<svg width="1920" height="1080" fill="none" xmlns="http://www.w3.org/2000/svg"><path d="m411.306 706.926-.065.065-.064.065-47.143 48.05H59.609V324.609h399.747v335.174l-48.05 47.143Z" fill="#F3F7FE" stroke="#1A73E8" stroke-width="19.219"/><path d="M359.42 655.169h109.546l-54.773 54.773-54.773 54.773V655.169Z" fill="#1A73E8"/><path d="m878.318 706.926-.065.065-.065.065-47.143 48.05H526.621V324.609h399.747v335.174l-48.05 47.143Z" fill="#F3F7FE" stroke="#3C4043" stroke-width="19.219"/><path d="M826.432 655.169h109.546l-54.773 54.773-54.773 54.773V655.169ZM678.404 593.967c-9.395 0-18.295-1.731-26.702-5.192-8.282-3.462-15.576-8.345-21.881-14.649-6.304-6.305-11.249-13.66-14.834-22.067-3.585-8.406-5.378-17.554-5.378-27.443 0-9.89 1.793-19.038 5.378-27.444 3.585-8.407 8.53-15.762 14.834-22.067 6.305-6.304 13.599-11.187 21.881-14.649 8.407-3.461 17.307-5.192 26.702-5.192 9.767 0 18.914 1.731 27.444 5.192 8.654 3.462 15.762 8.345 21.325 14.649l-11.126 11.312c-4.327-5.192-9.766-9.148-16.318-11.868-6.552-2.843-13.598-4.265-21.139-4.265a53 53 0 0 0-20.027 3.894c-6.304 2.473-11.929 6.119-16.874 10.941-4.945 4.697-8.901 10.384-11.868 17.059-2.843 6.676-4.265 14.155-4.265 22.438 0 8.282 1.422 15.761 4.265 22.437 2.967 6.675 6.923 12.424 11.868 17.245a54.344 54.344 0 0 0 16.874 10.94 55.31 55.31 0 0 0 20.027 3.709c9.89 0 17.739-1.545 23.55-4.636 5.933-3.214 10.693-6.737 14.278-10.569 6.675-7.047 10.508-16.627 11.497-28.742h-49.14v-14.649h63.789a64.27 64.27 0 0 1 .556 4.821c.247 1.483.371 3.09.371 4.821 0 7.294-1.175 14.958-3.523 22.994-2.349 7.911-6.614 14.958-12.795 21.139-5.934 6.428-12.98 11.373-21.139 14.834-8.159 3.338-17.369 5.007-27.63 5.007Zm115.907 40.053c-8.036 0-14.958-1.36-20.769-4.079-5.686-2.596-10.322-5.934-13.907-10.014-3.461-4.079-5.934-8.22-7.417-12.424l14.463-6.119c1.978 5.192 5.316 9.519 10.014 12.98 4.821 3.585 10.693 5.378 17.616 5.378 9.889 0 17.492-2.905 22.808-8.715 5.315-5.687 7.973-13.661 7.973-23.921v-10.57h-.741c-2.967 4.574-7.232 8.468-12.795 11.683-5.563 3.09-12.053 4.635-19.47 4.635-8.159 0-15.639-2.101-22.438-6.304-6.675-4.203-11.991-10.014-15.947-17.431-3.956-7.541-5.934-16.194-5.934-25.96 0-9.766 1.978-18.358 5.934-25.775 3.956-7.541 9.272-13.413 15.947-17.616 6.799-4.203 14.279-6.305 22.438-6.305 7.417 0 13.907 1.607 19.47 4.821 5.563 3.091 9.828 6.985 12.795 11.682h.741V496.43h15.02v90.861c0 10.508-2.039 19.223-6.119 26.146-3.956 6.923-9.395 12.053-16.318 15.391-6.799 3.461-14.587 5.192-23.364 5.192Zm0-55.444c5.563 0 10.693-1.36 15.39-4.079 4.698-2.844 8.407-6.923 11.126-12.239 2.844-5.316 4.265-11.682 4.265-19.099 0-7.665-1.421-14.093-4.265-19.285-2.719-5.316-6.428-9.334-11.126-12.053-4.697-2.72-9.827-4.08-15.39-4.08-5.563 0-10.694 1.422-15.391 4.265-4.698 2.72-8.468 6.738-11.311 12.053-2.844 5.192-4.265 11.559-4.265 19.1 0 7.541 1.421 13.969 4.265 19.285 2.843 5.192 6.613 9.209 11.311 12.053 4.697 2.719 9.828 4.079 15.391 4.079Z" fill="#3C4043"/><path d="m1345.33 706.926-.07.065-.06.065-47.14 48.05H993.631V324.609h399.749v335.174l-48.05 47.143Z" fill="#F3F7FE" stroke="#3C4043" stroke-width="19.219"/><path d="M1293.44 655.169h109.55l-54.78 54.773-54.77 54.773V655.169ZM1142.12 593.967c-11.87 0-22.25-2.905-31.15-8.715-8.9-5.811-15.89-13.908-20.95-24.292-4.95-10.384-7.42-22.499-7.42-36.344 0-13.846 2.66-25.961 7.97-36.345 5.32-10.384 12.55-18.481 21.7-24.292 9.15-5.81 19.47-8.715 30.96-8.715 14.34 0 26.21 3.4 35.61 10.199 9.39 6.675 15.39 15.762 17.98 27.258l-14.83 4.08c-1.98-8.036-6.31-14.464-12.98-19.285-6.68-4.821-15.21-7.232-25.59-7.232-8.16 0-15.64 2.102-22.44 6.305-6.8 4.079-12.24 10.199-16.32 18.358-4.07 8.035-6.11 17.925-6.11 29.669 0 11.62 1.97 21.51 5.93 29.669 3.96 8.035 9.27 14.154 15.95 18.357 6.67 4.203 13.97 6.305 21.88 6.305 8.4 0 15.57-1.793 21.51-5.378 6.05-3.585 10.75-8.406 14.09-14.463 3.46-6.058 5.5-12.795 6.12-20.212h-40.8V524.43h55.82V591h-14.46v-20.768h-.75c-3.21 6.428-8.34 11.991-15.39 16.689-7.04 4.697-15.82 7.046-26.33 7.046Zm114.29 40.053c-7.42 0-13.97-1.36-19.66-4.079-5.68-2.596-10.32-6.058-13.9-10.385-3.59-4.326-5.94-9.086-7.05-14.278l14.65-3.708c1.61 5.068 4.57 9.333 8.9 12.794 4.33 3.585 10.01 5.378 17.06 5.378 9.64 0 16.81-2.905 21.51-8.715 4.82-5.687 7.23-13.537 7.23-23.55v-14.649h-.74c-2.97 5.315-7.05 9.58-12.24 12.794-5.19 3.091-11.68 4.636-19.47 4.636-7.42 0-14.28-1.916-20.58-5.748-6.18-3.832-11.19-9.457-15.02-16.874-3.71-7.418-5.57-16.504-5.57-27.259 0-10.878 1.86-19.965 5.57-27.258 3.83-7.417 8.96-13.042 15.39-16.874 6.43-3.833 13.53-5.749 21.32-5.749 7.05 0 13.23 1.545 18.55 4.636 5.31 2.967 9.33 6.799 12.05 11.497h.74v-13.166h14.83v94.199c0 10.508-1.91 19.161-5.74 25.961-3.71 6.922-8.84 12.053-15.39 15.39-6.56 3.338-14.04 5.007-22.44 5.007Zm-.19-58.04c5.32 0 10.14-1.298 14.47-3.894 4.32-2.596 7.78-6.49 10.38-11.682 2.72-5.316 4.08-11.991 4.08-20.027 0-8.035-1.36-14.649-4.08-19.841-2.6-5.316-6.06-9.272-10.38-11.868-4.33-2.596-9.15-3.894-14.47-3.894-5.19 0-10.01 1.298-14.46 3.894-4.45 2.596-8.04 6.552-10.76 11.868-2.72 5.192-4.08 11.806-4.08 19.841 0 8.036 1.36 14.711 4.08 20.027 2.72 5.192 6.31 9.086 10.76 11.682s9.27 3.894 14.46 3.894Z" fill="#3C4043"/><path d="m1812.34 706.926-.06.065-.07.065-47.14 48.05h-304.42V324.609h399.74v335.174l-48.05 47.143Z" fill="#F3F7FE" stroke="#3C4043" stroke-width="19.219"/><path d="M1760.46 655.169H1870l-54.77 54.773-54.77 54.773V655.169ZM1605.07 594.378c-8.82 0-16.89-2.423-24.22-7.267-7.33-4.845-13.17-12.423-17.51-22.733-4.23-10.311-6.34-23.54-6.34-39.689 0-12.174 1.37-22.609 4.1-31.304 2.86-8.82 6.58-16.025 11.18-21.615 4.72-5.714 10.06-9.938 16.02-12.671 5.97-2.733 12.12-4.099 18.45-4.099 12.92 0 23.29 3.478 31.12 10.435 7.82 6.832 12.92 15.9 15.28 27.204l-14.91 4.1c-1.99-7.95-5.59-14.348-10.81-19.193-5.21-4.968-12.05-7.453-20.49-7.453-5.72 0-11.18 1.677-16.4 5.031-5.22 3.23-9.44 8.82-12.67 16.77-3.23 7.95-4.85 18.882-4.85 32.795 0 13.167 1.56 23.788 4.66 31.863 3.11 7.95 7.08 13.727 11.93 17.329 4.97 3.602 10.25 5.404 15.84 5.404 8.2 0 14.72-1.988 19.56-5.963 4.97-4.099 8.64-9.192 11-15.279 2.36-6.212 3.78-12.547 4.28-19.006h-31.68v-14.534h46.77v66.893h-14.53v-19.192h-.75c-3.1 6.832-7.51 12.236-13.22 16.211-5.59 3.975-12.86 5.963-21.81 5.963ZM1710.65 634.626c-7.45 0-14.03-1.367-19.75-4.1-5.71-2.732-10.37-6.335-13.97-10.807-3.48-4.472-5.78-9.317-6.9-14.534l14.72-3.727c1.62 5.342 4.6 9.814 8.95 13.416 4.34 3.727 10 5.59 16.95 5.59 9.94 0 17.33-2.919 22.18-8.757 4.97-5.839 7.45-13.789 7.45-23.851v-13.975h-.75c-3.1 5.342-7.26 9.503-12.48 12.484-5.22 2.857-11.68 4.286-19.38 4.286-7.45 0-14.28-1.863-20.5-5.59-6.21-3.727-11.24-9.192-15.09-16.397-3.73-7.33-5.59-16.211-5.59-26.646 0-10.559 1.86-19.441 5.59-26.646 3.85-7.205 8.95-12.671 15.28-16.397 6.46-3.727 13.6-5.59 21.43-5.59 6.71 0 12.79 1.428 18.26 4.285 5.47 2.733 9.63 6.522 12.48 11.367h.75v-12.671H1755v91.676c0 10.435-1.93 19.068-5.78 25.901-3.85 6.956-9.13 12.111-15.83 15.465-6.71 3.479-14.29 5.218-22.74 5.218Zm.56-58.323c5.22 0 10-1.242 14.35-3.726 4.47-2.485 8.01-6.274 10.62-11.367 2.73-5.093 4.1-11.49 4.1-19.192s-1.37-14.099-4.1-19.192c-2.61-5.094-6.09-8.882-10.43-11.367-4.35-2.484-9.2-3.727-14.54-3.727-5.22 0-10.06 1.243-14.53 3.727-4.35 2.485-7.89 6.273-10.62 11.367-2.74 5.093-4.1 11.49-4.1 19.192s1.36 14.099 4.1 19.192c2.73 5.093 6.27 8.882 10.62 11.367 4.47 2.484 9.31 3.726 14.53 3.726Z" fill="#3C4043"/><path d="M249.433 563.786h12.926v-26.178h26.059v-13.089h-26.059v-25.97h-12.926v25.97h-26.06v13.089h26.06v26.178ZM255.896 607c-10.424 0-20.292-1.939-29.604-5.817-9.173-4.017-17.234-9.419-24.183-16.206-6.81-6.925-12.231-14.958-16.261-24.1-4.031-9.28-6.046-19.183-6.046-29.709 0-10.527 2.015-20.361 6.046-29.502 4.03-9.142 9.451-17.175 16.261-24.1 6.949-6.926 15.01-12.327 24.183-16.206 9.312-4.016 19.18-6.025 29.604-6.025s20.222 2.009 29.395 6.025c9.312 3.879 17.442 9.28 24.392 16.206 6.949 6.925 12.369 14.958 16.261 24.1 4.03 9.141 6.046 18.975 6.046 29.502 0 10.526-2.016 20.429-6.046 29.709-3.892 9.142-9.312 17.175-16.261 24.1-6.95 6.787-15.08 12.189-24.392 16.206-9.173 3.878-18.971 5.817-29.395 5.817Zm-55.872-166 9.381 9.141-35.441 34.073-8.964-9.349L200.024 441Zm111.743 0L347 474.865l-9.173 9.349-35.441-34.073 9.381-9.141Zm-55.871 151.872c17.234 0 31.827-5.955 43.78-17.867 12.091-12.05 18.137-26.662 18.137-43.837 0-17.175-6.046-31.718-18.137-43.63-11.953-12.05-26.546-18.075-43.78-18.075s-31.897 6.025-43.989 18.075c-11.952 11.912-17.929 26.455-17.929 43.63 0 17.175 5.977 31.787 17.929 43.837 12.092 11.912 26.755 17.867 43.989 17.867Z" fill="#1A73E8"/><path d="M1459.6 849.904h11.24V862h-2.81v-3.024h-.43c-.41 1.056-1.13 1.908-2.16 2.556-1.04.648-2.24.972-3.6.972-2.72 0-4.85-.876-6.41-2.628-1.54-1.752-2.31-4.308-2.31-7.668v-5.616c0-3.264.78-5.796 2.34-7.596 1.56-1.8 3.74-2.7 6.52-2.7 1.44 0 2.71.24 3.82.72a7.502 7.502 0 0 1 2.77 1.944 8.177 8.177 0 0 1 1.69 2.916c.38 1.104.58 2.292.58 3.564v.432h-3.03v-.432a7.92 7.92 0 0 0-.36-2.376 5.29 5.29 0 0 0-1.04-2.016 4.636 4.636 0 0 0-1.8-1.404c-.72-.36-1.6-.54-2.63-.54-1.94 0-3.41.708-4.39 2.124-.96 1.416-1.44 3.276-1.44 5.58v5.184c0 2.472.48 4.38 1.44 5.724.98 1.32 2.47 1.98 4.46 1.98 1.8 0 3.21-.576 4.21-1.728 1.04-1.152 1.55-2.76 1.55-4.824v-.432h-8.21v-2.808Zm15.6-3.312c0-3.264.78-5.796 2.34-7.596 1.56-1.8 3.73-2.7 6.52-2.7 2.78 0 4.95.9 6.51 2.7 1.56 1.8 2.34 4.332 2.34 7.596v5.616c0 3.36-.78 5.916-2.34 7.668-1.56 1.752-3.73 2.628-6.51 2.628-2.79 0-4.96-.876-6.52-2.628-1.56-1.752-2.34-4.308-2.34-7.668v-5.616Zm8.86 13.104c1.94 0 3.39-.66 4.35-1.98.99-1.344 1.48-3.252 1.48-5.724v-5.184c0-2.304-.49-4.164-1.48-5.58-.96-1.416-2.41-2.124-4.35-2.124-1.95 0-3.41.708-4.39 2.124-.96 1.416-1.44 3.276-1.44 5.58v5.184c0 2.472.48 4.38 1.44 5.724.98 1.32 2.44 1.98 4.39 1.98Zm13.19-13.104c0-3.264.78-5.796 2.34-7.596 1.56-1.8 3.73-2.7 6.51-2.7 2.79 0 4.96.9 6.52 2.7 1.56 1.8 2.34 4.332 2.34 7.596v5.616c0 3.36-.78 5.916-2.34 7.668-1.56 1.752-3.73 2.628-6.52 2.628-2.78 0-4.95-.876-6.51-2.628-1.56-1.752-2.34-4.308-2.34-7.668v-5.616Zm8.85 13.104c1.95 0 3.4-.66 4.36-1.98.98-1.344 1.47-3.252 1.47-5.724v-5.184c0-2.304-.49-4.164-1.47-5.58-.96-1.416-2.41-2.124-4.36-2.124-1.94 0-3.41.708-4.39 2.124-.96 1.416-1.44 3.276-1.44 5.58v5.184c0 2.472.48 4.38 1.44 5.724.98 1.32 2.45 1.98 4.39 1.98Zm19.63-9.792h11.23V862h-2.8v-3.024h-.44c-.4 1.056-1.12 1.908-2.16 2.556-1.03.648-2.23.972-3.6.972-2.71 0-4.84-.876-6.4-2.628-1.54-1.752-2.31-4.308-2.31-7.668v-5.616c0-3.264.78-5.796 2.34-7.596 1.56-1.8 3.73-2.7 6.52-2.7 1.44 0 2.71.24 3.81.72a7.458 7.458 0 0 1 2.78 1.944c.74.816 1.3 1.788 1.69 2.916.38 1.104.57 2.292.57 3.564v.432h-3.02v-.432a7.92 7.92 0 0 0-.36-2.376c-.22-.768-.56-1.44-1.04-2.016a4.636 4.636 0 0 0-1.8-1.404c-.72-.36-1.6-.54-2.63-.54-1.95 0-3.41.708-4.39 2.124-.96 1.416-1.44 3.276-1.44 5.58v5.184c0 2.472.48 4.38 1.44 5.724.98 1.32 2.47 1.98 4.46 1.98 1.8 0 3.2-.576 4.21-1.728 1.03-1.152 1.55-2.76 1.55-4.824v-.432h-8.21v-2.808Zm16.57-13.104h3.03v22.392h13.17V862h-16.2v-25.2Zm22.3 0h15.26v2.808h-12.24v8.352h12.03v2.808h-12.03v8.424h12.46V862h-15.48v-25.2Zm57.66 7.272c0-.816-.17-1.536-.51-2.16a4.255 4.255 0 0 0-1.29-1.548 6.254 6.254 0 0 0-1.91-.936 7.875 7.875 0 0 0-2.27-.324c-.7 0-1.36.096-1.98.288-.62.168-1.19.42-1.69.756-.48.336-.87.756-1.15 1.26-.29.48-.44 1.044-.44 1.692v.216c0 .696.15 1.296.44 1.8.28.48.7.9 1.26 1.26.57.336 1.28.624 2.12.864.84.216 1.82.408 2.95.576 2.64.408 4.59 1.188 5.83 2.34 1.25 1.128 1.88 2.652 1.88 4.572v.432c0 1.08-.2 2.076-.58 2.988a5.97 5.97 0 0 1-1.66 2.304c-.72.648-1.62 1.152-2.7 1.512-1.08.36-2.32.54-3.74.54-1.61 0-3.04-.228-4.28-.684-1.23-.48-2.26-1.128-3.1-1.944a8.584 8.584 0 0 1-1.87-2.916c-.43-1.128-.65-2.352-.65-3.672v-1.08h3.02v.864c0 2.208.6 3.864 1.8 4.968 1.23 1.104 2.92 1.656 5.08 1.656 1.87 0 3.28-.408 4.21-1.224.96-.84 1.44-1.944 1.44-3.312v-.216c0-1.32-.49-2.328-1.47-3.024-.96-.696-2.54-1.2-4.72-1.512-1.27-.168-2.42-.42-3.46-.756-1-.36-1.87-.816-2.59-1.368a5.847 5.847 0 0 1-1.65-2.052c-.39-.792-.58-1.728-.58-2.808v-.432c0-.984.2-1.884.61-2.7.41-.816.97-1.524 1.69-2.124.75-.6 1.62-1.056 2.63-1.368 1.03-.336 2.16-.504 3.39-.504 1.41 0 2.67.204 3.78.612 1.12.408 2.07.96 2.84 1.656a6.435 6.435 0 0 1 1.73 2.412c.41.912.61 1.872.61 2.88v1.512h-3.02v-1.296Zm21.5 11.664h-10.8l-1.84 6.264h-3.24l7.64-25.2h5.68l7.64 25.2h-3.24l-1.84-6.264Zm-5.62-17.64-4.35 14.832h9.14l-4.35-14.832h-.44Zm27.19 22.608h.44V836.8h3.02V862h-6.05l-7.27-23.904h-.43V862h-3.03v-25.2h6.05l7.27 23.904Zm23.06-16.632c0-.816-.17-1.536-.51-2.16a4.255 4.255 0 0 0-1.29-1.548 6.254 6.254 0 0 0-1.91-.936 7.875 7.875 0 0 0-2.27-.324c-.7 0-1.36.096-1.98.288-.62.168-1.19.42-1.69.756-.48.336-.87.756-1.15 1.26-.29.48-.44 1.044-.44 1.692v.216c0 .696.15 1.296.44 1.8.28.48.7.9 1.26 1.26.57.336 1.28.624 2.12.864.84.216 1.82.408 2.95.576 2.64.408 4.59 1.188 5.83 2.34 1.25 1.128 1.88 2.652 1.88 4.572v.432c0 1.08-.2 2.076-.58 2.988a5.97 5.97 0 0 1-1.66 2.304c-.72.648-1.62 1.152-2.7 1.512-1.08.36-2.32.54-3.74.54-1.61 0-3.04-.228-4.28-.684-1.23-.48-2.26-1.128-3.1-1.944a8.584 8.584 0 0 1-1.87-2.916c-.43-1.128-.65-2.352-.65-3.672v-1.08h3.02v.864c0 2.208.6 3.864 1.8 4.968 1.23 1.104 2.92 1.656 5.08 1.656 1.87 0 3.28-.408 4.21-1.224.96-.84 1.44-1.944 1.44-3.312v-.216c0-1.32-.49-2.328-1.47-3.024-.96-.696-2.54-1.2-4.72-1.512-1.27-.168-2.42-.42-3.46-.756-1-.36-1.87-.816-2.59-1.368a5.847 5.847 0 0 1-1.65-2.052c-.39-.792-.58-1.728-.58-2.808v-.432c0-.984.2-1.884.61-2.7.41-.816.97-1.524 1.69-2.124.75-.6 1.62-1.056 2.63-1.368 1.03-.336 2.16-.504 3.39-.504 1.41 0 2.67.204 3.78.612 1.12.408 2.07.96 2.84 1.656a6.435 6.435 0 0 1 1.73 2.412c.41.912.61 1.872.61 2.88v1.512h-3.02v-1.296Zm28.78-7.272h5.76l3.39 23.904h.43l3.38-23.904h5.76V862h-2.81v-23.904h-.43L1729.27 862h-5.47l-3.39-23.904h-.43V862h-2.81v-25.2Zm22.55 9.792c0-3.264.78-5.796 2.34-7.596 1.56-1.8 3.73-2.7 6.51-2.7 2.79 0 4.96.9 6.52 2.7 1.56 1.8 2.34 4.332 2.34 7.596v5.616c0 3.36-.78 5.916-2.34 7.668-1.56 1.752-3.73 2.628-6.52 2.628-2.78 0-4.95-.876-6.51-2.628-1.56-1.752-2.34-4.308-2.34-7.668v-5.616Zm8.85 13.104c1.95 0 3.4-.66 4.36-1.98.98-1.344 1.48-3.252 1.48-5.724v-5.184c0-2.304-.5-4.164-1.48-5.58-.96-1.416-2.41-2.124-4.36-2.124-1.94 0-3.4.708-4.39 2.124-.96 1.416-1.44 3.276-1.44 5.58v5.184c0 2.472.48 4.38 1.44 5.724.99 1.32 2.45 1.98 4.39 1.98Zm26.98 1.008h.43V836.8h3.03V862h-6.05l-7.27-23.904h-.44V862h-3.02v-25.2h6.05l7.27 23.904Zm8.25-14.112c0-3.264.78-5.796 2.34-7.596 1.56-1.8 3.74-2.7 6.52-2.7 2.78 0 4.96.9 6.52 2.7 1.56 1.8 2.34 4.332 2.34 7.596v5.616c0 3.36-.78 5.916-2.34 7.668-1.56 1.752-3.74 2.628-6.52 2.628-2.78 0-4.96-.876-6.52-2.628-1.56-1.752-2.34-4.308-2.34-7.668v-5.616Zm8.86 13.104c1.94 0 3.4-.66 4.36-1.98.98-1.344 1.47-3.252 1.47-5.724v-5.184c0-2.304-.49-4.164-1.47-5.58-.96-1.416-2.42-2.124-4.36-2.124-1.94 0-3.41.708-4.39 2.124-.96 1.416-1.44 3.276-1.44 5.58v5.184c0 2.472.48 4.38 1.44 5.724.98 1.32 2.45 1.98 4.39 1.98ZM1469.9 910h-3.02v-8.424c0-.624-.15-1.104-.44-1.44-.28-.336-.79-.504-1.51-.504h-7.85V910h-3.02v-25.2h9c1.3 0 2.42.192 3.38.576.96.36 1.76.852 2.38 1.476a5.783 5.783 0 0 1 1.44 2.196c.34.816.5 1.68.5 2.592v1.08c0 .936-.26 1.872-.79 2.808-.5.936-1.29 1.656-2.37 2.16v.432c.72.12 1.28.408 1.69.864.41.456.61 1.104.61 1.944V910Zm-12.82-13.176h5.62c1.7 0 2.96-.36 3.78-1.08.84-.744 1.26-1.824 1.26-3.24v-.648c0-1.272-.42-2.292-1.26-3.06-.82-.792-2.08-1.188-3.78-1.188h-5.62v9.216Zm19.35-12.024h15.26v2.808h-12.24v8.352h12.02v2.808h-12.02v8.424h12.46V910h-15.48v-25.2Zm27.26 13.104h11.23V910h-2.81v-3.024h-.43c-.41 1.056-1.13 1.908-2.16 2.556-1.03.648-2.23.972-3.6.972-2.71 0-4.85-.876-6.41-2.628-1.53-1.752-2.3-4.308-2.3-7.668v-5.616c0-3.264.78-5.796 2.34-7.596 1.56-1.8 3.73-2.7 6.52-2.7 1.44 0 2.71.24 3.81.72 1.11.456 2.03 1.104 2.77 1.944.75.816 1.31 1.788 1.7 2.916.38 1.104.57 2.292.57 3.564v.432h-3.02v-.432a7.92 7.92 0 0 0-.36-2.376 5.452 5.452 0 0 0-1.05-2.016c-.45-.6-1.05-1.068-1.8-1.404-.72-.36-1.59-.54-2.62-.54-1.95 0-3.41.708-4.4 2.124-.96 1.416-1.44 3.276-1.44 5.58v5.184c0 2.472.48 4.38 1.44 5.724.99 1.32 2.48 1.98 4.47 1.98 1.8 0 3.2-.576 4.21-1.728 1.03-1.152 1.55-2.76 1.55-4.824v-.432h-8.21v-2.808Zm18.84-13.104v16.704c0 2.04.47 3.588 1.4 4.644.96 1.032 2.37 1.548 4.21 1.548 1.85 0 3.24-.516 4.18-1.548.96-1.056 1.44-2.604 1.44-4.644V884.8h3.02v16.704c0 2.928-.76 5.16-2.3 6.696-1.54 1.536-3.65 2.304-6.34 2.304-2.68 0-4.8-.768-6.33-2.304-1.54-1.536-2.31-3.768-2.31-6.696V884.8h3.03Zm19.77 0h3.03v22.392h13.17V910h-16.2v-25.2Zm35.33 18.936h-10.8l-1.84 6.264h-3.24l7.64-25.2h5.68l7.64 25.2h-3.24l-1.84-6.264Zm-5.62-17.64-4.35 14.832h9.14l-4.35-14.832h-.44ZM1602.16 910h-3.03v-8.424c0-.624-.14-1.104-.43-1.44-.29-.336-.79-.504-1.51-.504h-7.85V910h-3.02v-25.2h9c1.29 0 2.42.192 3.38.576.96.36 1.75.852 2.38 1.476a5.783 5.783 0 0 1 1.44 2.196c.33.816.5 1.68.5 2.592v1.08c0 .936-.26 1.872-.79 2.808-.5.936-1.3 1.656-2.38 2.16v.432c.72.12 1.29.408 1.7.864.4.456.61 1.104.61 1.944V910Zm-12.82-13.176h5.62c1.7 0 2.96-.36 3.78-1.08.84-.744 1.26-1.824 1.26-3.24v-.648c0-1.272-.42-2.292-1.26-3.06-.82-.792-2.08-1.188-3.78-1.188h-5.62v9.216ZM525.604 849.904h11.232V862h-2.808v-3.024h-.432c-.408 1.056-1.128 1.908-2.16 2.556-1.032.648-2.232.972-3.6.972-2.712 0-4.848-.876-6.408-2.628-1.536-1.752-2.304-4.308-2.304-7.668v-5.616c0-3.264.78-5.796 2.34-7.596 1.56-1.8 3.732-2.7 6.516-2.7 1.44 0 2.712.24 3.816.72 1.104.456 2.028 1.104 2.772 1.944.744.816 1.308 1.788 1.692 2.916.384 1.104.576 2.292.576 3.564v.432h-3.024v-.432a7.92 7.92 0 0 0-.36-2.376 5.383 5.383 0 0 0-1.044-2.016c-.456-.6-1.056-1.068-1.8-1.404-.72-.36-1.596-.54-2.628-.54-1.944 0-3.408.708-4.392 2.124-.96 1.416-1.44 3.276-1.44 5.58v5.184c0 2.472.48 4.38 1.44 5.724.984 1.32 2.472 1.98 4.464 1.98 1.8 0 3.204-.576 4.212-1.728 1.032-1.152 1.548-2.76 1.548-4.824v-.432h-8.208v-2.808Zm15.599-3.312c0-3.264.78-5.796 2.34-7.596 1.56-1.8 3.732-2.7 6.516-2.7s4.956.9 6.516 2.7c1.56 1.8 2.34 4.332 2.34 7.596v5.616c0 3.36-.78 5.916-2.34 7.668-1.56 1.752-3.732 2.628-6.516 2.628s-4.956-.876-6.516-2.628c-1.56-1.752-2.34-4.308-2.34-7.668v-5.616Zm8.856 13.104c1.944 0 3.396-.66 4.356-1.98.984-1.344 1.476-3.252 1.476-5.724v-5.184c0-2.304-.492-4.164-1.476-5.58-.96-1.416-2.412-2.124-4.356-2.124s-3.408.708-4.392 2.124c-.96 1.416-1.44 3.276-1.44 5.58v5.184c0 2.472.48 4.38 1.44 5.724.984 1.32 2.448 1.98 4.392 1.98Zm13.187-13.104c0-3.264.78-5.796 2.34-7.596 1.56-1.8 3.732-2.7 6.516-2.7s4.956.9 6.516 2.7c1.56 1.8 2.34 4.332 2.34 7.596v5.616c0 3.36-.78 5.916-2.34 7.668-1.56 1.752-3.732 2.628-6.516 2.628s-4.956-.876-6.516-2.628c-1.56-1.752-2.34-4.308-2.34-7.668v-5.616Zm8.856 13.104c1.944 0 3.396-.66 4.356-1.98.984-1.344 1.476-3.252 1.476-5.724v-5.184c0-2.304-.492-4.164-1.476-5.58-.96-1.416-2.412-2.124-4.356-2.124s-3.408.708-4.392 2.124c-.96 1.416-1.44 3.276-1.44 5.58v5.184c0 2.472.48 4.38 1.44 5.724.984 1.32 2.448 1.98 4.392 1.98Zm19.631-9.792h11.232V862h-2.808v-3.024h-.432c-.408 1.056-1.128 1.908-2.16 2.556-1.032.648-2.232.972-3.6.972-2.712 0-4.848-.876-6.408-2.628-1.536-1.752-2.304-4.308-2.304-7.668v-5.616c0-3.264.78-5.796 2.34-7.596 1.56-1.8 3.732-2.7 6.516-2.7 1.44 0 2.712.24 3.816.72 1.104.456 2.028 1.104 2.772 1.944.744.816 1.308 1.788 1.692 2.916.384 1.104.576 2.292.576 3.564v.432h-3.024v-.432a7.92 7.92 0 0 0-.36-2.376 5.383 5.383 0 0 0-1.044-2.016c-.456-.6-1.056-1.068-1.8-1.404-.72-.36-1.596-.54-2.628-.54-1.944 0-3.408.708-4.392 2.124-.96 1.416-1.44 3.276-1.44 5.58v5.184c0 2.472.48 4.38 1.44 5.724.984 1.32 2.472 1.98 4.464 1.98 1.8 0 3.204-.576 4.212-1.728 1.032-1.152 1.548-2.76 1.548-4.824v-.432h-8.208v-2.808Zm16.571-13.104h3.024v22.392h13.176V862h-16.2v-25.2Zm22.295 0h15.264v2.808h-12.24v8.352h12.024v2.808h-12.024v8.424h12.456V862h-15.48v-25.2Zm57.658 7.272c0-.816-.168-1.536-.504-2.16a4.27 4.27 0 0 0-1.296-1.548 6.154 6.154 0 0 0-1.908-.936 7.85 7.85 0 0 0-2.268-.324c-.696 0-1.356.096-1.98.288a5.694 5.694 0 0 0-1.692.756c-.48.336-.864.756-1.152 1.26-.288.48-.432 1.044-.432 1.692v.216c0 .696.144 1.296.432 1.8.288.48.708.9 1.26 1.26.576.336 1.284.624 2.124.864.84.216 1.824.408 2.952.576 2.64.408 4.584 1.188 5.832 2.34 1.248 1.128 1.872 2.652 1.872 4.572v.432c0 1.08-.192 2.076-.576 2.988a6.023 6.023 0 0 1-1.656 2.304c-.72.648-1.62 1.152-2.7 1.512-1.08.36-2.328.54-3.744.54-1.608 0-3.036-.228-4.284-.684-1.224-.48-2.256-1.128-3.096-1.944a8.68 8.68 0 0 1-1.872-2.916c-.432-1.128-.648-2.352-.648-3.672v-1.08h3.024v.864c0 2.208.6 3.864 1.8 4.968 1.224 1.104 2.916 1.656 5.076 1.656 1.872 0 3.276-.408 4.212-1.224.96-.84 1.44-1.944 1.44-3.312v-.216c0-1.32-.492-2.328-1.476-3.024-.96-.696-2.532-1.2-4.716-1.512-1.272-.168-2.424-.42-3.456-.756-1.008-.36-1.872-.816-2.592-1.368a5.91 5.91 0 0 1-1.656-2.052c-.384-.792-.576-1.728-.576-2.808v-.432c0-.984.204-1.884.612-2.7a6.563 6.563 0 0 1 1.692-2.124c.744-.6 1.62-1.056 2.628-1.368 1.032-.336 2.16-.504 3.384-.504 1.416 0 2.676.204 3.78.612 1.128.408 2.076.96 2.844 1.656a6.386 6.386 0 0 1 1.728 2.412c.408.912.612 1.872.612 2.88v1.512h-3.024v-1.296Zm21.503 11.664h-10.8L697.124 862h-3.24l7.632-25.2h5.688l7.632 25.2h-3.24l-1.836-6.264Zm-5.616-17.64-4.356 14.832h9.144l-4.356-14.832h-.432Zm27.191 22.608h.432V836.8h3.024V862h-6.048l-7.272-23.904h-.432V862h-3.024v-25.2h6.048l7.272 23.904Zm23.051-16.632c0-.816-.168-1.536-.504-2.16a4.27 4.27 0 0 0-1.296-1.548 6.154 6.154 0 0 0-1.908-.936 7.85 7.85 0 0 0-2.268-.324c-.696 0-1.356.096-1.98.288a5.694 5.694 0 0 0-1.692.756c-.48.336-.864.756-1.152 1.26-.288.48-.432 1.044-.432 1.692v.216c0 .696.144 1.296.432 1.8.288.48.708.9 1.26 1.26.576.336 1.284.624 2.124.864.84.216 1.824.408 2.952.576 2.64.408 4.584 1.188 5.832 2.34 1.248 1.128 1.872 2.652 1.872 4.572v.432c0 1.08-.192 2.076-.576 2.988a6.023 6.023 0 0 1-1.656 2.304c-.72.648-1.62 1.152-2.7 1.512-1.08.36-2.328.54-3.744.54-1.608 0-3.036-.228-4.284-.684-1.224-.48-2.256-1.128-3.096-1.944a8.68 8.68 0 0 1-1.872-2.916c-.432-1.128-.648-2.352-.648-3.672v-1.08h3.024v.864c0 2.208.6 3.864 1.8 4.968 1.224 1.104 2.916 1.656 5.076 1.656 1.872 0 3.276-.408 4.212-1.224.96-.84 1.44-1.944 1.44-3.312v-.216c0-1.32-.492-2.328-1.476-3.024-.96-.696-2.532-1.2-4.716-1.512-1.272-.168-2.424-.42-3.456-.756-1.008-.36-1.872-.816-2.592-1.368a5.91 5.91 0 0 1-1.656-2.052c-.384-.792-.576-1.728-.576-2.808v-.432c0-.984.204-1.884.612-2.7a6.563 6.563 0 0 1 1.692-2.124c.744-.6 1.62-1.056 2.628-1.368 1.032-.336 2.16-.504 3.384-.504 1.416 0 2.676.204 3.78.612 1.128.408 2.076.96 2.844 1.656a6.386 6.386 0 0 1 1.728 2.412c.408.912.612 1.872.612 2.88v1.512h-3.024v-1.296ZM535.9 910h-3.024v-8.424c0-.624-.144-1.104-.432-1.44-.288-.336-.792-.504-1.512-.504h-7.848V910h-3.024v-25.2h9c1.296 0 2.424.192 3.384.576.96.36 1.752.852 2.376 1.476a5.83 5.83 0 0 1 1.44 2.196 6.74 6.74 0 0 1 .504 2.592v1.08c0 .936-.264 1.872-.792 2.808-.504.936-1.296 1.656-2.376 2.16v.432c.72.12 1.284.408 1.692.864.408.456.612 1.104.612 1.944V910Zm-12.816-13.176h5.616c1.704 0 2.964-.36 3.78-1.08.84-.744 1.26-1.824 1.26-3.24v-.648c0-1.272-.42-2.292-1.26-3.06-.816-.792-2.076-1.188-3.78-1.188h-5.616v9.216Zm19.343-12.024h15.264v2.808h-12.24v8.352h12.024v2.808h-12.024v8.424h12.456V910h-15.48v-25.2Zm27.263 13.104h11.232V910h-2.808v-3.024h-.432c-.408 1.056-1.128 1.908-2.16 2.556-1.032.648-2.232.972-3.6.972-2.712 0-4.848-.876-6.408-2.628-1.536-1.752-2.304-4.308-2.304-7.668v-5.616c0-3.264.78-5.796 2.34-7.596 1.56-1.8 3.732-2.7 6.516-2.7 1.44 0 2.712.24 3.816.72 1.104.456 2.028 1.104 2.772 1.944.744.816 1.308 1.788 1.692 2.916.384 1.104.576 2.292.576 3.564v.432h-3.024v-.432a7.92 7.92 0 0 0-.36-2.376 5.383 5.383 0 0 0-1.044-2.016c-.456-.6-1.056-1.068-1.8-1.404-.72-.36-1.596-.54-2.628-.54-1.944 0-3.408.708-4.392 2.124-.96 1.416-1.44 3.276-1.44 5.58v5.184c0 2.472.48 4.38 1.44 5.724.984 1.32 2.472 1.98 4.464 1.98 1.8 0 3.204-.576 4.212-1.728 1.032-1.152 1.548-2.76 1.548-4.824v-.432h-8.208v-2.808Zm18.839-13.104v16.704c0 2.04.468 3.588 1.404 4.644.96 1.032 2.364 1.548 4.212 1.548 1.848 0 3.24-.516 4.176-1.548.96-1.056 1.44-2.604 1.44-4.644V884.8h3.024v16.704c0 2.928-.768 5.16-2.304 6.696-1.536 1.536-3.648 2.304-6.336 2.304s-4.8-.768-6.336-2.304c-1.536-1.536-2.304-3.768-2.304-6.696V884.8h3.024Zm19.775 0h3.024v22.392h13.176V910h-16.2v-25.2Zm35.327 18.936h-10.8L630.995 910h-3.24l7.632-25.2h5.688l7.632 25.2h-3.24l-1.836-6.264Zm-5.616-17.64-4.356 14.832h9.144l-4.356-14.832h-.432ZM668.158 910h-3.024v-8.424c0-.624-.144-1.104-.432-1.44-.288-.336-.792-.504-1.512-.504h-7.848V910h-3.024v-25.2h9c1.296 0 2.424.192 3.384.576.96.36 1.752.852 2.376 1.476a5.83 5.83 0 0 1 1.44 2.196 6.74 6.74 0 0 1 .504 2.592v1.08c0 .936-.264 1.872-.792 2.808-.504.936-1.296 1.656-2.376 2.16v.432c.72.12 1.284.408 1.692.864.408.456.612 1.104.612 1.944V910Zm-12.816-13.176h5.616c1.704 0 2.964-.36 3.78-1.08.84-.744 1.26-1.824 1.26-3.24v-.648c0-1.272-.42-2.292-1.26-3.06-.816-.792-2.076-1.188-3.78-1.188h-5.616v9.216ZM992.604 849.904h11.236V862h-2.81v-3.024h-.43c-.41 1.056-1.132 1.908-2.164 2.556-1.032.648-2.232.972-3.6.972-2.712 0-4.848-.876-6.408-2.628-1.536-1.752-2.304-4.308-2.304-7.668v-5.616c0-3.264.78-5.796 2.34-7.596 1.56-1.8 3.732-2.7 6.516-2.7 1.44 0 2.712.24 3.816.72a7.484 7.484 0 0 1 2.774 1.944 8.177 8.177 0 0 1 1.69 2.916c.38 1.104.58 2.292.58 3.564v.432h-3.03v-.432a7.92 7.92 0 0 0-.36-2.376 5.294 5.294 0 0 0-1.042-2.016c-.456-.6-1.056-1.068-1.8-1.404-.72-.36-1.596-.54-2.628-.54-1.944 0-3.408.708-4.392 2.124-.96 1.416-1.44 3.276-1.44 5.58v5.184c0 2.472.48 4.38 1.44 5.724.984 1.32 2.472 1.98 4.464 1.98 1.8 0 3.204-.576 4.212-1.728 1.036-1.152 1.546-2.76 1.546-4.824v-.432h-8.206v-2.808Zm15.596-3.312c0-3.264.78-5.796 2.34-7.596 1.56-1.8 3.73-2.7 6.52-2.7 2.78 0 4.95.9 6.51 2.7 1.56 1.8 2.34 4.332 2.34 7.596v5.616c0 3.36-.78 5.916-2.34 7.668-1.56 1.752-3.73 2.628-6.51 2.628-2.79 0-4.96-.876-6.52-2.628-1.56-1.752-2.34-4.308-2.34-7.668v-5.616Zm8.86 13.104c1.94 0 3.39-.66 4.35-1.98.99-1.344 1.48-3.252 1.48-5.724v-5.184c0-2.304-.49-4.164-1.48-5.58-.96-1.416-2.41-2.124-4.35-2.124-1.95 0-3.41.708-4.39 2.124-.96 1.416-1.44 3.276-1.44 5.58v5.184c0 2.472.48 4.38 1.44 5.724.98 1.32 2.44 1.98 4.39 1.98Zm13.19-13.104c0-3.264.78-5.796 2.34-7.596 1.56-1.8 3.73-2.7 6.51-2.7 2.79 0 4.96.9 6.52 2.7 1.56 1.8 2.34 4.332 2.34 7.596v5.616c0 3.36-.78 5.916-2.34 7.668-1.56 1.752-3.73 2.628-6.52 2.628-2.78 0-4.95-.876-6.51-2.628-1.56-1.752-2.34-4.308-2.34-7.668v-5.616Zm8.85 13.104c1.95 0 3.4-.66 4.36-1.98.98-1.344 1.47-3.252 1.47-5.724v-5.184c0-2.304-.49-4.164-1.47-5.58-.96-1.416-2.41-2.124-4.36-2.124-1.94 0-3.41.708-4.39 2.124-.96 1.416-1.44 3.276-1.44 5.58v5.184c0 2.472.48 4.38 1.44 5.724.98 1.32 2.45 1.98 4.39 1.98Zm19.63-9.792h11.23V862h-2.8v-3.024h-.44c-.4 1.056-1.12 1.908-2.16 2.556-1.03.648-2.23.972-3.6.972-2.71 0-4.84-.876-6.4-2.628-1.54-1.752-2.31-4.308-2.31-7.668v-5.616c0-3.264.78-5.796 2.34-7.596 1.56-1.8 3.73-2.7 6.52-2.7 1.44 0 2.71.24 3.81.72a7.458 7.458 0 0 1 2.78 1.944c.74.816 1.3 1.788 1.69 2.916.38 1.104.57 2.292.57 3.564v.432h-3.02v-.432a7.92 7.92 0 0 0-.36-2.376c-.22-.768-.56-1.44-1.04-2.016a4.636 4.636 0 0 0-1.8-1.404c-.72-.36-1.6-.54-2.63-.54-1.95 0-3.41.708-4.39 2.124-.96 1.416-1.44 3.276-1.44 5.58v5.184c0 2.472.48 4.38 1.44 5.724.98 1.32 2.47 1.98 4.46 1.98 1.8 0 3.2-.576 4.21-1.728 1.03-1.152 1.55-2.76 1.55-4.824v-.432h-8.21v-2.808Zm16.57-13.104h3.03v22.392h13.17V862h-16.2v-25.2Zm22.3 0h15.26v2.808h-12.24v8.352h12.03v2.808h-12.03v8.424h12.46V862h-15.48v-25.2Zm57.66 7.272c0-.816-.17-1.536-.51-2.16a4.255 4.255 0 0 0-1.29-1.548 6.254 6.254 0 0 0-1.91-.936 7.875 7.875 0 0 0-2.27-.324c-.7 0-1.36.096-1.98.288-.62.168-1.19.42-1.69.756-.48.336-.87.756-1.15 1.26-.29.48-.44 1.044-.44 1.692v.216c0 .696.15 1.296.44 1.8.28.48.7.9 1.26 1.26.57.336 1.28.624 2.12.864.84.216 1.82.408 2.95.576 2.64.408 4.59 1.188 5.83 2.34 1.25 1.128 1.88 2.652 1.88 4.572v.432c0 1.08-.2 2.076-.58 2.988a5.97 5.97 0 0 1-1.66 2.304c-.72.648-1.62 1.152-2.7 1.512-1.08.36-2.32.54-3.74.54-1.61 0-3.04-.228-4.28-.684-1.23-.48-2.26-1.128-3.1-1.944a8.584 8.584 0 0 1-1.87-2.916c-.43-1.128-.65-2.352-.65-3.672v-1.08h3.02v.864c0 2.208.6 3.864 1.8 4.968 1.23 1.104 2.92 1.656 5.08 1.656 1.87 0 3.28-.408 4.21-1.224.96-.84 1.44-1.944 1.44-3.312v-.216c0-1.32-.49-2.328-1.47-3.024-.96-.696-2.54-1.2-4.72-1.512-1.27-.168-2.42-.42-3.46-.756-1-.36-1.87-.816-2.59-1.368a5.847 5.847 0 0 1-1.65-2.052c-.39-.792-.58-1.728-.58-2.808v-.432c0-.984.2-1.884.61-2.7.41-.816.97-1.524 1.69-2.124.75-.6 1.62-1.056 2.63-1.368 1.03-.336 2.16-.504 3.39-.504 1.41 0 2.67.204 3.78.612 1.12.408 2.07.96 2.84 1.656a6.435 6.435 0 0 1 1.73 2.412c.41.912.61 1.872.61 2.88v1.512h-3.02v-1.296Zm21.5 11.664h-10.8l-1.84 6.264h-3.24l7.64-25.2h5.68l7.64 25.2h-3.24l-1.84-6.264Zm-5.62-17.64-4.35 14.832h9.14l-4.35-14.832h-.44Zm27.19 22.608h.44V836.8h3.02V862h-6.05l-7.27-23.904h-.43V862h-3.03v-25.2h6.05l7.27 23.904Zm23.06-16.632c0-.816-.17-1.536-.51-2.16a4.255 4.255 0 0 0-1.29-1.548 6.254 6.254 0 0 0-1.91-.936 7.875 7.875 0 0 0-2.27-.324c-.7 0-1.36.096-1.98.288-.62.168-1.19.42-1.69.756-.48.336-.87.756-1.15 1.26-.29.48-.44 1.044-.44 1.692v.216c0 .696.15 1.296.44 1.8.28.48.7.9 1.26 1.26.57.336 1.28.624 2.12.864.84.216 1.82.408 2.95.576 2.64.408 4.59 1.188 5.83 2.34 1.25 1.128 1.88 2.652 1.88 4.572v.432c0 1.08-.2 2.076-.58 2.988a5.97 5.97 0 0 1-1.66 2.304c-.72.648-1.62 1.152-2.7 1.512-1.08.36-2.32.54-3.74.54-1.61 0-3.04-.228-4.28-.684-1.23-.48-2.26-1.128-3.1-1.944a8.584 8.584 0 0 1-1.87-2.916c-.43-1.128-.65-2.352-.65-3.672v-1.08h3.02v.864c0 2.208.6 3.864 1.8 4.968 1.23 1.104 2.92 1.656 5.08 1.656 1.87 0 3.28-.408 4.21-1.224.96-.84 1.44-1.944 1.44-3.312v-.216c0-1.32-.49-2.328-1.47-3.024-.96-.696-2.54-1.2-4.72-1.512-1.27-.168-2.42-.42-3.46-.756-1-.36-1.87-.816-2.59-1.368a5.847 5.847 0 0 1-1.65-2.052c-.39-.792-.58-1.728-.58-2.808v-.432c0-.984.2-1.884.61-2.7.41-.816.97-1.524 1.69-2.124.75-.6 1.62-1.056 2.63-1.368 1.03-.336 2.16-.504 3.39-.504 1.41 0 2.67.204 3.78.612 1.12.408 2.07.96 2.84 1.656a6.435 6.435 0 0 1 1.73 2.412c.41.912.61 1.872.61 2.88v1.512h-3.02v-1.296Zm29.29-7.272h17.71v2.808h-7.35V862h-3.02v-22.392h-7.34V836.8Zm23.26 0h15.27v2.808h-12.24v8.352h12.02v2.808h-12.02v8.424h12.45V862h-15.48v-25.2Zm23.7 0 5.65 11.16h.65l5.65-11.16h3.32l-6.3 12.348v.432l6.3 12.42h-3.32l-5.65-11.232h-.65L1297.64 862h-3.31l6.3-12.42v-.432l-6.3-12.348h3.31Zm19.16 0h17.72v2.808h-7.35V862h-3.02v-22.392h-7.35V836.8ZM1002.9 910h-3.024v-8.424c0-.624-.144-1.104-.432-1.44-.288-.336-.792-.504-1.512-.504h-7.848V910h-3.024v-25.2h9c1.296 0 2.424.192 3.384.576.956.36 1.756.852 2.376 1.476a5.783 5.783 0 0 1 1.44 2.196c.34.816.5 1.68.5 2.592v1.08c0 .936-.26 1.872-.79 2.808-.5.936-1.29 1.656-2.37 2.16v.432c.72.12 1.28.408 1.69.864.41.456.61 1.104.61 1.944V910Zm-12.816-13.176h5.616c1.704 0 2.964-.36 3.78-1.08.84-.744 1.26-1.824 1.26-3.24v-.648c0-1.272-.42-2.292-1.26-3.06-.816-.792-2.076-1.188-3.78-1.188h-5.616v9.216Zm19.346-12.024h15.26v2.808h-12.24v8.352h12.02v2.808h-12.02v8.424h12.46V910h-15.48v-25.2Zm27.26 13.104h11.23V910h-2.81v-3.024h-.43c-.41 1.056-1.13 1.908-2.16 2.556-1.03.648-2.23.972-3.6.972-2.71 0-4.85-.876-6.41-2.628-1.53-1.752-2.3-4.308-2.3-7.668v-5.616c0-3.264.78-5.796 2.34-7.596 1.56-1.8 3.73-2.7 6.52-2.7 1.44 0 2.71.24 3.81.72 1.11.456 2.03 1.104 2.77 1.944.75.816 1.31 1.788 1.7 2.916.38 1.104.57 2.292.57 3.564v.432h-3.02v-.432a7.92 7.92 0 0 0-.36-2.376 5.452 5.452 0 0 0-1.05-2.016c-.45-.6-1.05-1.068-1.8-1.404-.72-.36-1.59-.54-2.62-.54-1.95 0-3.41.708-4.4 2.124-.96 1.416-1.44 3.276-1.44 5.58v5.184c0 2.472.48 4.38 1.44 5.724.99 1.32 2.48 1.98 4.47 1.98 1.8 0 3.2-.576 4.21-1.728 1.03-1.152 1.55-2.76 1.55-4.824v-.432h-8.21v-2.808Zm18.84-13.104v16.704c0 2.04.47 3.588 1.4 4.644.96 1.032 2.37 1.548 4.21 1.548 1.85 0 3.24-.516 4.18-1.548.96-1.056 1.44-2.604 1.44-4.644V884.8h3.02v16.704c0 2.928-.76 5.16-2.3 6.696-1.54 1.536-3.65 2.304-6.34 2.304-2.68 0-4.8-.768-6.33-2.304-1.54-1.536-2.31-3.768-2.31-6.696V884.8h3.03Zm19.77 0h3.03v22.392h13.17V910h-16.2v-25.2Zm35.33 18.936h-10.8l-1.84 6.264h-3.24l7.64-25.2h5.68l7.64 25.2h-3.24l-1.84-6.264Zm-5.62-17.64-4.35 14.832h9.14l-4.35-14.832h-.44ZM1135.16 910h-3.03v-8.424c0-.624-.14-1.104-.43-1.44-.29-.336-.79-.504-1.51-.504h-7.85V910h-3.02v-25.2h9c1.29 0 2.42.192 3.38.576.96.36 1.75.852 2.38 1.476a5.783 5.783 0 0 1 1.44 2.196c.33.816.5 1.68.5 2.592v1.08c0 .936-.26 1.872-.79 2.808-.5.936-1.3 1.656-2.38 2.16v.432c.72.12 1.29.408 1.7.864.4.456.61 1.104.61 1.944V910Zm-12.82-13.176h5.62c1.7 0 2.96-.36 3.78-1.08.84-.744 1.26-1.824 1.26-3.24v-.648c0-1.272-.42-2.292-1.26-3.06-.82-.792-2.08-1.188-3.78-1.188h-5.62v9.216ZM51.656 836.8h5.76l3.384 23.904h.432l3.384-23.904h5.76V862h-2.808v-23.904h-.432L63.752 862H58.28l-3.384-23.904h-.432V862h-2.808v-25.2Zm36.803 18.936h-10.8L75.823 862h-3.24l7.632-25.2h5.688l7.632 25.2h-3.24l-1.836-6.264Zm-5.616-17.64-4.356 14.832h9.144l-4.356-14.832h-.432Zm13.403-1.296h17.712v2.808h-7.344V862h-3.024v-22.392h-7.344V836.8Zm23.267 0h15.264v2.808h-12.24v8.352h12.024v2.808h-12.024v8.424h12.456V862h-15.48v-25.2Zm37.559 25.2h-3.024v-8.424c0-.624-.144-1.104-.432-1.44-.288-.336-.792-.504-1.512-.504h-7.848V862h-3.024v-25.2h9c1.296 0 2.424.192 3.384.576.96.36 1.752.852 2.376 1.476a5.83 5.83 0 0 1 1.44 2.196 6.74 6.74 0 0 1 .504 2.592v1.08c0 .936-.264 1.872-.792 2.808-.504.936-1.296 1.656-2.376 2.16v.432c.72.12 1.284.408 1.692.864.408.456.612 1.104.612 1.944V862Zm-12.816-13.176h5.616c1.704 0 2.964-.36 3.78-1.08.84-.744 1.26-1.824 1.26-3.24v-.648c0-1.272-.42-2.292-1.26-3.06-.816-.792-2.076-1.188-3.78-1.188h-5.616v9.216Zm18.983-12.024h15.984v2.808h-6.48v19.584h6.48V862h-15.984v-2.808h6.48v-19.584h-6.48V836.8Zm35.435 18.936h-10.8L186.038 862h-3.24l7.632-25.2h5.688l7.632 25.2h-3.24l-1.836-6.264Zm-5.616-17.64-4.356 14.832h9.144l-4.356-14.832h-.432Zm14.375-1.296h3.024v22.392h13.176V862h-16.2v-25.2Zm57.91 7.272c0-.816-.168-1.536-.504-2.16a4.27 4.27 0 0 0-1.296-1.548 6.154 6.154 0 0 0-1.908-.936 7.85 7.85 0 0 0-2.268-.324c-.696 0-1.356.096-1.98.288a5.694 5.694 0 0 0-1.692.756c-.48.336-.864.756-1.152 1.26-.288.48-.432 1.044-.432 1.692v.216c0 .696.144 1.296.432 1.8.288.48.708.9 1.26 1.26.576.336 1.284.624 2.124.864.84.216 1.824.408 2.952.576 2.64.408 4.584 1.188 5.832 2.34 1.248 1.128 1.872 2.652 1.872 4.572v.432c0 1.08-.192 2.076-.576 2.988a6.023 6.023 0 0 1-1.656 2.304c-.72.648-1.62 1.152-2.7 1.512-1.08.36-2.328.54-3.744.54-1.608 0-3.036-.228-4.284-.684-1.224-.48-2.256-1.128-3.096-1.944a8.68 8.68 0 0 1-1.872-2.916c-.432-1.128-.648-2.352-.648-3.672v-1.08h3.024v.864c0 2.208.6 3.864 1.8 4.968 1.224 1.104 2.916 1.656 5.076 1.656 1.872 0 3.276-.408 4.212-1.224.96-.84 1.44-1.944 1.44-3.312v-.216c0-1.32-.492-2.328-1.476-3.024-.96-.696-2.532-1.2-4.716-1.512-1.272-.168-2.424-.42-3.456-.756-1.008-.36-1.872-.816-2.592-1.368a5.91 5.91 0 0 1-1.656-2.052c-.384-.792-.576-1.728-.576-2.808v-.432c0-.984.204-1.884.612-2.7a6.563 6.563 0 0 1 1.692-2.124c.744-.6 1.62-1.056 2.628-1.368 1.032-.336 2.16-.504 3.384-.504 1.416 0 2.676.204 3.78.612 1.128.408 2.076.96 2.844 1.656a6.386 6.386 0 0 1 1.728 2.412c.408.912.612 1.872.612 2.88v1.512h-3.024v-1.296Zm14.591 9.072h-.648l-7.884-16.344h3.384l6.444 13.752h.432l6.444-13.752h3.384l-7.884 16.344h-.648V862h-3.024v-8.856Zm14.195-16.344h5.76l3.384 23.904h.432l3.384-23.904h5.76V862h-2.808v-23.904h-.432L306.225 862h-5.472l-3.384-23.904h-.432V862h-2.808v-25.2Zm22.439 22.392h2.16v-19.584h-2.16V836.8h10.188c1.2 0 2.256.168 3.168.504.936.336 1.716.792 2.34 1.368a5.272 5.272 0 0 1 1.44 2.088c.336.792.504 1.656.504 2.592v.432c0 .696-.108 1.332-.324 1.908a5.238 5.238 0 0 1-.9 1.548c-.384.456-.84.852-1.368 1.188a6.412 6.412 0 0 1-1.656.72v.432c1.2.336 2.208.984 3.024 1.944.816.936 1.224 2.088 1.224 3.456v.432c0 .936-.168 1.812-.504 2.628a5.633 5.633 0 0 1-1.44 2.088c-.624.576-1.404 1.032-2.34 1.368-.912.336-1.968.504-3.168.504h-10.188v-2.808Zm5.184 0h4.788c1.416 0 2.568-.348 3.456-1.044.888-.72 1.332-1.704 1.332-2.952v-.216c0-1.296-.42-2.316-1.26-3.06-.84-.768-1.98-1.152-3.42-1.152h-4.896v8.424Zm0-11.232h4.896c1.44 0 2.58-.372 3.42-1.116.84-.744 1.26-1.764 1.26-3.06v-.216c0-1.224-.444-2.184-1.332-2.88-.888-.72-2.04-1.08-3.456-1.08h-4.788v8.352Zm16.967-1.368c0-3.264.78-5.796 2.34-7.596 1.56-1.8 3.732-2.7 6.516-2.7s4.956.9 6.516 2.7c1.56 1.8 2.34 4.332 2.34 7.596v5.616c0 3.36-.78 5.916-2.34 7.668-1.56 1.752-3.732 2.628-6.516 2.628s-4.956-.876-6.516-2.628c-1.56-1.752-2.34-4.308-2.34-7.668v-5.616Zm8.856 13.104c1.944 0 3.396-.66 4.356-1.98.984-1.344 1.476-3.252 1.476-5.724v-5.184c0-2.304-.492-4.164-1.476-5.58-.96-1.416-2.412-2.124-4.356-2.124s-3.408.708-4.392 2.124c-.96 1.416-1.44 3.276-1.44 5.58v5.184c0 2.472.48 4.38 1.44 5.724.984 1.32 2.448 1.98 4.392 1.98Zm14.159-22.896h3.024v22.392h13.176V862h-16.2v-25.2Zm35.867 7.272c0-.816-.168-1.536-.504-2.16a4.27 4.27 0 0 0-1.296-1.548 6.154 6.154 0 0 0-1.908-.936 7.85 7.85 0 0 0-2.268-.324c-.696 0-1.356.096-1.98.288a5.694 5.694 0 0 0-1.692.756c-.48.336-.864.756-1.152 1.26-.288.48-.432 1.044-.432 1.692v.216c0 .696.144 1.296.432 1.8.288.48.708.9 1.26 1.26.576.336 1.284.624 2.124.864.84.216 1.824.408 2.952.576 2.64.408 4.584 1.188 5.832 2.34 1.248 1.128 1.872 2.652 1.872 4.572v.432c0 1.08-.192 2.076-.576 2.988a6.023 6.023 0 0 1-1.656 2.304c-.72.648-1.62 1.152-2.7 1.512-1.08.36-2.328.54-3.744.54-1.608 0-3.036-.228-4.284-.684-1.224-.48-2.256-1.128-3.096-1.944a8.68 8.68 0 0 1-1.872-2.916c-.432-1.128-.648-2.352-.648-3.672v-1.08h3.024v.864c0 2.208.6 3.864 1.8 4.968 1.224 1.104 2.916 1.656 5.076 1.656 1.872 0 3.276-.408 4.212-1.224.96-.84 1.44-1.944 1.44-3.312v-.216c0-1.32-.492-2.328-1.476-3.024-.96-.696-2.532-1.2-4.716-1.512-1.272-.168-2.424-.42-3.456-.756-1.008-.36-1.872-.816-2.592-1.368a5.91 5.91 0 0 1-1.656-2.052c-.384-.792-.576-1.728-.576-2.808v-.432c0-.984.204-1.884.612-2.7a6.563 6.563 0 0 1 1.692-2.124c.744-.6 1.62-1.056 2.628-1.368 1.032-.336 2.16-.504 3.384-.504 1.416 0 2.676.204 3.78.612 1.128.408 2.076.96 2.844 1.656a6.386 6.386 0 0 1 1.728 2.412c.408.912.612 1.872.612 2.88v1.512h-3.024v-1.296ZM68.9 910h-3.024v-8.424c0-.624-.144-1.104-.432-1.44-.288-.336-.792-.504-1.512-.504h-7.848V910H53.06v-25.2h9c1.296 0 2.424.192 3.384.576.96.36 1.752.852 2.376 1.476a5.83 5.83 0 0 1 1.44 2.196 6.74 6.74 0 0 1 .504 2.592v1.08c0 .936-.264 1.872-.792 2.808-.504.936-1.296 1.656-2.376 2.16v.432c.72.12 1.284.408 1.692.864.408.456.612 1.104.612 1.944V910Zm-12.816-13.176H61.7c1.704 0 2.964-.36 3.78-1.08.84-.744 1.26-1.824 1.26-3.24v-.648c0-1.272-.42-2.292-1.26-3.06-.816-.792-2.076-1.188-3.78-1.188h-5.616v9.216ZM75.427 884.8h15.264v2.808h-12.24v8.352h12.024v2.808H78.451v8.424h12.456V910h-15.48v-25.2Zm27.263 13.104h11.232V910h-2.808v-3.024h-.432c-.408 1.056-1.128 1.908-2.16 2.556-1.032.648-2.232.972-3.6.972-2.712 0-4.848-.876-6.408-2.628-1.536-1.752-2.304-4.308-2.304-7.668v-5.616c0-3.264.78-5.796 2.34-7.596 1.56-1.8 3.732-2.7 6.516-2.7 1.44 0 2.712.24 3.816.72 1.104.456 2.028 1.104 2.772 1.944.744.816 1.308 1.788 1.692 2.916.384 1.104.576 2.292.576 3.564v.432h-3.024v-.432a7.92 7.92 0 0 0-.36-2.376 5.383 5.383 0 0 0-1.044-2.016c-.456-.6-1.056-1.068-1.8-1.404-.72-.36-1.596-.54-2.628-.54-1.944 0-3.408.708-4.392 2.124-.96 1.416-1.44 3.276-1.44 5.58v5.184c0 2.472.48 4.38 1.44 5.724.984 1.32 2.472 1.98 4.464 1.98 1.8 0 3.204-.576 4.212-1.728 1.032-1.152 1.548-2.76 1.548-4.824v-.432h-8.208v-2.808Zm18.839-13.104v16.704c0 2.04.468 3.588 1.404 4.644.96 1.032 2.364 1.548 4.212 1.548 1.848 0 3.24-.516 4.176-1.548.96-1.056 1.44-2.604 1.44-4.644V884.8h3.024v16.704c0 2.928-.768 5.16-2.304 6.696-1.536 1.536-3.648 2.304-6.336 2.304s-4.8-.768-6.336-2.304c-1.536-1.536-2.304-3.768-2.304-6.696V884.8h3.024Zm19.775 0h3.024v22.392h13.176V910h-16.2v-25.2Zm35.327 18.936h-10.8L163.995 910h-3.24l7.632-25.2h5.688l7.632 25.2h-3.24l-1.836-6.264Zm-5.616-17.64-4.356 14.832h9.144l-4.356-14.832h-.432ZM201.158 910h-3.024v-8.424c0-.624-.144-1.104-.432-1.44-.288-.336-.792-.504-1.512-.504h-7.848V910h-3.024v-25.2h9c1.296 0 2.424.192 3.384.576.96.36 1.752.852 2.376 1.476a5.83 5.83 0 0 1 1.44 2.196 6.74 6.74 0 0 1 .504 2.592v1.08c0 .936-.264 1.872-.792 2.808-.504.936-1.296 1.656-2.376 2.16v.432c.72.12 1.284.408 1.692.864.408.456.612 1.104.612 1.944V910Zm-12.816-13.176h5.616c1.704 0 2.964-.36 3.78-1.08.84-.744 1.26-1.824 1.26-3.24v-.648c0-1.272-.42-2.292-1.26-3.06-.816-.792-2.076-1.188-3.78-1.188h-5.616v9.216Z" fill="#FF6D7F"/></svg>