<svg width="1920" height="1080" fill="none" xmlns="http://www.w3.org/2000/svg"><g clip-path="url(#a)" fill="#3C4043"><path d="M71.44 505.24c-4.693 0-8.693-1.013-12-3.04-3.307-2.133-5.973-4.907-8-8.32-2.027-3.52-3.52-7.307-4.48-11.36a61.962 61.962 0 0 1-1.28-12.48c0-4.8.8-9.333 2.4-13.6 1.6-4.373 3.787-8.267 6.56-11.68 2.88-3.52 6.293-6.24 10.24-8.16s8.32-2.88 13.12-2.88c1.387 0 3.36.107 5.92.32 2.56.107 5.28.213 8.16.32 2.88.107 5.653.213 8.32.32 2.667.107 4.8.16 6.4.16 3.84 0 6.773-.427 8.8-1.28 2.027-.853 3.467-1.6 4.32-2.24l1.92-1.44c.427-.427.907-.587 1.44-.48 1.28.747 1.813 1.867 1.6 3.36-.213 1.387-.64 3.467-1.28 6.24-.32 2.133-.853 4.053-1.6 5.76a15.628 15.628 0 0 1-2.72 4.64 12.105 12.105 0 0 1-4.16 3.2c-1.6.64-3.467.96-5.6.96h-8.16c-1.493 0-2.667.053-3.52.16a120.538 120.538 0 0 1 4.64 7.52c1.493 2.347 2.24 5.28 2.24 8.8 0 4.48-.8 8.8-2.4 12.96a36.722 36.722 0 0 1-6.56 11.36c-2.88 3.307-6.4 5.973-10.56 8-4.053 1.92-8.64 2.88-13.76 2.88Zm-4.16-17.28c4.907 0 9.387-1.12 13.44-3.36 4.16-2.347 7.467-5.28 9.92-8.8 2.56-3.52 3.84-7.147 3.84-10.88 0-1.6-.107-3.2-.32-4.8-.213-1.6-.64-3.04-1.28-4.32-.533-1.387-1.333-2.507-2.4-3.36a52.782 52.782 0 0 0-4.48-.48c-1.6-.107-3.093-.16-4.48-.16-5.013 0-9.493 1.28-13.44 3.84-3.947 2.453-7.04 5.6-9.28 9.44-2.24 3.733-3.36 7.467-3.36 11.2 0 3.307.907 6.133 2.72 8.48 1.813 2.24 4.853 3.307 9.12 3.2Zm92.256 17.44c-3.52 0-6.88-.907-10.08-2.72-3.093-1.92-5.653-4.32-7.68-7.2-1.92-2.987-2.88-5.973-2.88-8.96 0-1.173.267-2.88.8-5.12a205.91 205.91 0 0 0 1.6-7.36c.64-2.773 1.227-5.493 1.76-8.16.534-2.667.8-5.067.8-7.2 0-2.773-.586-4.64-1.76-5.6-1.066-1.067-3.2-1.6-6.4-1.6-2.666 0-4.586.213-5.76.64-1.066.32-1.866.48-2.4.48-.64 0-1.12-.107-1.44-.32-.32-.32-.48-.907-.48-1.76 0-2.027.8-4.32 2.4-6.88 1.707-2.667 3.947-4.96 6.72-6.88 2.88-1.92 6.24-2.88 10.08-2.88 4.374 0 7.414.853 9.12 2.56 1.814 1.6 2.72 4.16 2.72 7.68 0 1.6-.426 3.84-1.28 6.72a194.38 194.38 0 0 1-2.72 9.12 199.469 199.469 0 0 0-2.88 9.76c-.746 3.093-1.12 5.813-1.12 8.16 0 3.093.907 5.227 2.72 6.4 1.814 1.173 4.32 1.76 7.52 1.76 3.307 0 6.4-1.227 9.28-3.68 2.987-2.453 5.387-5.653 7.2-9.6 1.814-4.053 2.72-8.267 2.72-12.64 0-5.227-.426-9.707-1.28-13.44-.853-3.84-1.76-6.88-2.72-9.12-.96-2.347-1.493-3.84-1.6-4.48-.106-.427.107-.747.64-.96.534-.213.96-.32 1.28-.32 2.24 0 4.374.64 6.4 1.92a69.85 69.85 0 0 1 5.92 3.84c1.6 1.067 2.934 3.093 4 6.08 1.067 2.88 1.867 6.187 2.4 9.92.64 3.733.96 7.52.96 11.36 0 4.907-.96 9.76-2.88 14.56a45.106 45.106 0 0 1-7.68 13.12c-3.2 3.84-6.88 6.933-11.04 9.28-4.16 2.347-8.48 3.52-12.96 3.52Zm70.863-.16c-.96 0-1.974-.533-3.04-1.6-.96-.96-1.44-2.133-1.44-3.52 0-.32.213-1.867.64-4.64.426-2.773.64-6.773.64-12 0-7.893-.64-14.027-1.92-18.4-1.28-4.373-3.2-7.36-5.76-8.96-2.454-1.707-5.547-2.56-9.28-2.56-1.707 0-3.414.16-5.12.48-1.6.213-3.147.533-4.64.96-1.494.32-2.24-.64-2.24-2.88 0-2.56.906-5.227 2.72-8 1.92-2.88 4.426-5.28 7.52-7.2 3.2-2.027 6.56-3.04 10.08-3.04 3.626 0 6.4 1.013 8.32 3.04s3.253 4.96 4 8.8c.853 3.733 1.333 8.213 1.44 13.44.106 5.227.16 11.093.16 17.6v1.12c.106.427.373.64.8.64.32 0 .64-.053.96-.16.32-.107.906-.48 1.76-1.12 1.813-1.493 3.786-3.307 5.92-5.44 2.133-2.133 4.106-4.533 5.92-7.2 1.92-2.773 3.466-5.6 4.64-8.48 1.173-2.987 1.76-5.92 1.76-8.8 0-2.027-.16-3.787-.48-5.28-.32-1.6-.694-2.88-1.12-3.84-.427-1.067-.64-1.813-.64-2.24 0-.747.266-1.28.8-1.6.533-.427 1.6-.64 3.2-.64 2.453 0 4.533.907 6.24 2.72 1.706 1.813 2.986 4.107 3.84 6.88a23.926 23.926 0 0 1 1.44 8.16c0 4.8-.907 9.6-2.72 14.4-1.707 4.693-4 9.227-6.88 13.6-2.774 4.267-5.814 8.16-9.12 11.68-3.307 3.413-6.507 6.293-9.6 8.64a1009.927 1009.927 0 0 1-5.44 4c-1.174.96-2.294 1.44-3.36 1.44Zm62.58 0c-3.414 0-6.4-.747-8.96-2.24-2.454-1.6-4.374-3.84-5.76-6.72-1.387-2.987-2.08-6.56-2.08-10.72 0-4.16.426-8.587 1.28-13.28.96-4.693 2.24-9.28 3.84-13.76 1.706-4.48 3.68-8.533 5.92-12.16 2.24-3.733 4.693-6.667 7.36-8.8 2.773-2.24 5.706-3.36 8.8-3.36 4.48 0 8 2.08 10.56 6.24 2.666 4.16 4.8 9.387 6.4 15.68.213.533.48.853.8.96.32 0 .533-.32.64-.96.96-3.627 2.026-7.307 3.2-11.04 1.173-3.84 2.026-6.987 2.56-9.44.32-1.387.8-2.56 1.44-3.52.746-.96 1.6-1.44 2.56-1.44 1.386 0 3.04.64 4.96 1.92a19.275 19.275 0 0 1 4.96 4.8c1.493 1.813 2.24 3.627 2.24 5.44 0 2.133-.747 5.387-2.24 9.76-1.494 4.267-3.574 9.067-6.24 14.4a154.995 154.995 0 0 1-9.12 15.52c.96 1.6 2.133 2.72 3.52 3.36 1.386.533 2.666.8 3.84.8 2.666 0 4.96-.48 6.88-1.44 1.92-1.067 3.52-2.133 4.8-3.2 1.386-1.173 2.24-1.813 2.56-1.92.533-.107 1.013-.053 1.44.16.533.213.906.587 1.12 1.12.426.64.746 1.493.96 2.56.213 1.067.32 2.133.32 3.2 0 3.52-.854 6.667-2.56 9.44-1.6 2.773-3.68 4.907-6.24 6.4-2.454 1.493-4.907 2.24-7.36 2.24-3.2 0-5.974-1.653-8.32-4.96-2.347-3.413-4.107-7.84-5.28-13.28-3.734 4.693-8.107 8.907-13.12 12.64-5.014 3.733-10.24 5.6-15.68 5.6Zm-.96-8.32c2.773 0 6.08-2.133 9.92-6.4s7.626-9.6 11.36-16a92.162 92.162 0 0 0 2.4-4.48l2.56-4.48c-1.387-4.267-2.987-7.36-4.8-9.28-1.707-2.027-3.894-3.04-6.56-3.04-2.24 0-4.587 1.227-7.04 3.68-2.454 2.453-4.694 5.547-6.72 9.28a74.62 74.62 0 0 0-4.8 11.68c-1.28 3.947-1.92 7.573-1.92 10.88 0 2.453.426 4.427 1.28 5.92.96 1.493 2.4 2.24 4.32 2.24Zm84.286 51.68c-2.133 0-4.427-.533-6.88-1.6-2.347-.96-4.373-2.293-6.08-4-1.707-1.6-2.56-3.253-2.56-4.96 0-3.947-.053-7.787-.16-11.52 0-3.733-.053-7.413-.16-11.04 0-3.627-.053-7.253-.16-10.88-.107-3.627-.213-7.307-.32-11.04a425.3 425.3 0 0 0-.16-11.52v-12.16c0-6.4 1.173-12.32 3.52-17.76 2.347-5.547 5.76-9.973 10.24-13.28 4.587-3.413 10.187-5.12 16.8-5.12 6.293 0 11.36 1.76 15.2 5.28 3.947 3.52 6.827 8.107 8.64 13.76 1.92 5.547 2.88 11.467 2.88 17.76 0 6.187-1.227 11.893-3.68 17.12-2.347 5.12-5.707 9.28-10.08 12.48-4.267 3.2-9.28 4.8-15.04 4.8-1.067 0-2.507-.64-4.32-1.92a61.177 61.177 0 0 1-5.12-4.32c-1.6-1.707-2.88-3.147-3.84-4.32-.427-.64-.8-.693-1.12-.16-.213.427-.32 1.333-.32 2.72 0 2.347.213 5.12.64 8.32.533 3.2 1.12 6.24 1.76 9.12 1.067 4.373 2.08 8.48 3.04 12.32s1.76 7.093 2.4 9.76c.64 2.667.96 4.48.96 5.44 0 1.707-.427 3.253-1.28 4.64-.747 1.387-2.347 2.08-4.8 2.08Zm3.68-59.04c5.227 0 9.92-1.387 14.08-4.16s7.467-6.453 9.92-11.04c2.453-4.693 3.68-9.867 3.68-15.52 0-2.24-.8-4.427-2.4-6.56-1.493-2.133-3.787-3.253-6.88-3.36-5.867-.107-10.72 1.173-14.56 3.84s-6.667 6.507-8.48 11.52c-1.707 4.907-2.56 10.88-2.56 17.92 0 2.56.747 4.427 2.24 5.6 1.6 1.173 3.253 1.76 4.96 1.76Zm70.685 15.84c-2.56 0-4.853-.48-6.88-1.44-1.92-.853-3.413-1.867-4.48-3.04-1.067-1.173-1.6-2.133-1.6-2.88 0-1.493.16-3.147.48-4.96.427-1.813.96-3.947 1.6-6.4l8-29.28c.213-1.067.107-2.133-.32-3.2-.32-1.173-1.333-1.707-3.04-1.6-3.947 0-7.04.373-9.28 1.12-2.133.64-3.84 1.76-5.12 3.36-1.28 1.6-2.613 3.893-4 6.88-.107.32-.373.8-.8 1.44-.32.64-.853.96-1.6.96-.747 0-1.44-.587-2.08-1.76-.64-1.28-.96-3.2-.96-5.76 0-2.667.48-5.44 1.44-8.32.96-2.987 2.56-5.707 4.8-8.16 2.347-2.56 5.493-4.587 9.44-6.08 3.947-1.6 8.96-2.4 15.04-2.4 3.733 0 7.36.053 10.88.16 3.627.107 6.72.267 9.28.48 2.88.107 5.387.267 7.52.48 2.133.107 4.107.16 5.92.16 3.733 0 6.773-.213 9.12-.64 2.347-.427 4.16-.96 5.44-1.6 2.027-.747 3.307-1.547 3.84-2.4.533-.853 1.227-1.28 2.08-1.28 1.387 0 2.56.747 3.52 2.24.96 1.493 1.44 3.787 1.44 6.88 0 3.413-.747 6.293-2.24 8.64-1.493 2.347-3.413 4.107-5.76 5.28s-4.853 1.76-7.52 1.76h-7.2c-1.813 0-3.2.373-4.16 1.12-.96.747-1.547 2.027-1.76 3.84-.107 1.067-.267 2.4-.48 4-.213 1.493-.48 3.147-.8 4.96a81.367 81.367 0 0 0-.48 5.28 76.96 76.96 0 0 0-.16 4.8c0 2.88.853 4.853 2.56 5.92 1.707.96 3.36 1.44 4.96 1.44.96 0 2.08-.107 3.36-.32 1.28-.32 2.453-.64 3.52-.96.64-.213 1.173-.373 1.6-.48.427-.107.693-.16.8-.16.96 0 1.547.267 1.76.8.213.427.32 1.227.32 2.4 0 2.347-.693 4.96-2.08 7.84-1.28 2.88-3.147 5.387-5.6 7.52s-5.387 3.2-8.8 3.2c-3.307 0-6.027-1.387-8.16-4.16-2.133-2.88-3.253-6.507-3.36-10.88 0-2.88.16-5.92.48-9.12a229.97 229.97 0 0 1 1.44-9.6c.533-3.093.96-5.867 1.28-8.32.427-2.56.64-4.427.64-5.6 0-1.067-.213-2.027-.64-2.88-.427-.853-1.12-1.28-2.08-1.28l-10.08-.32c-1.387-.107-2.4.373-3.04 1.44-.64.96-1.227 2.613-1.76 4.96-1.92 7.253-3.36 13.6-4.32 19.04-.853 5.333-1.333 9.92-1.44 13.76 0 2.347.107 4.373.32 6.08.32 1.6.64 2.987.96 4.16.427 1.067.427 1.813 0 2.24-.32.427-.907.64-1.76.64Zm81.371-.16c-3.413 0-6.4-.747-8.96-2.24-2.453-1.6-4.373-3.84-5.76-6.72-1.386-2.987-2.08-6.56-2.08-10.72 0-4.16.427-8.587 1.28-13.28.96-4.693 2.24-9.28 3.84-13.76 1.707-4.48 3.68-8.533 5.92-12.16 2.24-3.733 4.694-6.667 7.36-8.8 2.774-2.24 5.707-3.36 8.8-3.36 4.48 0 8 2.08 10.56 6.24 2.667 4.16 4.8 9.387 6.4 15.68.214.533.48.853.8.96.32 0 .534-.32.64-.96.96-3.627 2.027-7.307 3.2-11.04 1.174-3.84 2.027-6.987 2.56-9.44.32-1.387.8-2.56 1.44-3.52.747-.96 1.6-1.44 2.56-1.44 1.387 0 3.04.64 4.96 1.92a19.26 19.26 0 0 1 4.96 4.8c1.494 1.813 2.24 3.627 2.24 5.44 0 2.133-.746 5.387-2.24 9.76-1.493 4.267-3.573 9.067-6.24 14.4a154.613 154.613 0 0 1-9.12 15.52c.96 1.6 2.134 2.72 3.52 3.36 1.387.533 2.667.8 3.84.8 2.667 0 4.96-.48 6.88-1.44 1.92-1.067 3.52-2.133 4.8-3.2 1.387-1.173 2.24-1.813 2.56-1.92.534-.107 1.014-.053 1.44.16a1.93 1.93 0 0 1 1.12 1.12c.427.64.747 1.493.96 2.56a16.23 16.23 0 0 1 .32 3.2c0 3.52-.853 6.667-2.56 9.44-1.6 2.773-3.68 4.907-6.24 6.4-2.453 1.493-4.906 2.24-7.36 2.24-3.2 0-5.973-1.653-8.32-4.96-2.346-3.413-4.106-7.84-5.28-13.28-3.733 4.693-8.106 8.907-13.12 12.64-5.013 3.733-10.24 5.6-15.68 5.6Zm-.96-8.32c2.774 0 6.08-2.133 9.92-6.4s7.627-9.6 11.36-16a90.455 90.455 0 0 0 2.4-4.48l2.56-4.48c-1.386-4.267-2.986-7.36-4.8-9.28-1.706-2.027-3.893-3.04-6.56-3.04-2.24 0-4.586 1.227-7.04 3.68-2.453 2.453-4.693 5.547-6.72 9.28a74.62 74.62 0 0 0-4.8 11.68c-1.28 3.947-1.92 7.573-1.92 10.88 0 2.453.427 4.427 1.28 5.92.96 1.493 2.4 2.24 4.32 2.24Zm90.047 8.32c-4.694 0-8.694-1.013-12-3.04-3.307-2.133-5.974-4.907-8-8.32-2.027-3.52-3.52-7.307-4.48-11.36a61.912 61.912 0 0 1-1.28-12.48c0-4.8.8-9.333 2.4-13.6 1.6-4.373 3.786-8.267 6.56-11.68 2.88-3.52 6.293-6.24 10.24-8.16 3.946-1.92 8.32-2.88 13.12-2.88 1.386 0 3.36.107 5.92.32 2.56.107 5.28.213 8.16.32 2.88.107 5.653.213 8.32.32 2.666.107 4.8.16 6.4.16 3.84 0 6.773-.427 8.8-1.28 2.026-.853 3.466-1.6 4.32-2.24l1.92-1.44c.426-.427.906-.587 1.44-.48 1.28.747 1.813 1.867 1.6 3.36-.214 1.387-.64 3.467-1.28 6.24-.32 2.133-.854 4.053-1.6 5.76a15.628 15.628 0 0 1-2.72 4.64 12.114 12.114 0 0 1-4.16 3.2c-1.6.64-3.467.96-5.6.96h-8.16c-1.494 0-2.667.053-3.52.16a120.871 120.871 0 0 1 4.64 7.52c1.493 2.347 2.24 5.28 2.24 8.8 0 4.48-.8 8.8-2.4 12.96a36.742 36.742 0 0 1-6.56 11.36c-2.88 3.307-6.4 5.973-10.56 8-4.054 1.92-8.64 2.88-13.76 2.88Zm-4.16-17.28c4.906 0 9.386-1.12 13.44-3.36 4.16-2.347 7.466-5.28 9.92-8.8 2.56-3.52 3.84-7.147 3.84-10.88 0-1.6-.107-3.2-.32-4.8-.214-1.6-.64-3.04-1.28-4.32-.534-1.387-1.334-2.507-2.4-3.36a52.795 52.795 0 0 0-4.48-.48c-1.6-.107-3.094-.16-4.48-.16-5.014 0-9.494 1.28-13.44 3.84-3.947 2.453-7.04 5.6-9.28 9.44-2.24 3.733-3.36 7.467-3.36 11.2 0 3.307.906 6.133 2.72 8.48 1.813 2.24 4.853 3.307 9.12 3.2Zm98.016 17.28c-3.947 0-6.934-1.547-8.96-4.64-1.92-3.093-2.934-7.147-3.04-12.16 0-2.56.106-5.333.32-8.32.32-3.093.693-6.133 1.12-9.12a1970.61 1970.61 0 0 0 1.44-8.16c.533-2.453.96-4.373 1.28-5.76.213-1.067-.054-1.973-.8-2.72-.64-.853-1.494-1.333-2.56-1.44-.64-.107-1.387-.16-2.24-.16h-2.72c-.96-.107-1.974-.16-3.04-.16-2.667 0-4.854.267-6.56.8-1.707.427-3.147 1.333-4.32 2.72-1.174 1.387-2.454 3.413-3.84 6.08-.107.32-.374.8-.8 1.44-.32.533-.854.8-1.6.8-.747 0-1.387-.533-1.92-1.6-.427-1.067-.64-2.88-.64-5.44 0-3.52.8-7.093 2.4-10.72 1.706-3.627 4.373-6.667 8-9.12 3.733-2.453 8.533-3.68 14.4-3.68 2.346 0 5.173.107 8.48.32l10.24.64c3.413.213 6.24.32 8.48.32 3.946-.107 6.88-.48 8.8-1.12 2.026-.64 3.52-1.28 4.48-1.92.96-.747 1.653-1.387 2.08-1.92.426-.64.96-.96 1.6-.96 1.493 0 2.4.587 2.72 1.76.32 1.067.16 3.2-.48 6.4a40.816 40.816 0 0 1-2.56 8.48c-1.174 2.667-2.72 4.8-4.64 6.4-1.92 1.6-4.374 2.4-7.36 2.4-.96 0-2.294-.053-4-.16-1.6-.213-3.2-.373-4.8-.48-1.6-.107-2.934-.16-4-.16-3.2 0-4.96 1.28-5.28 3.84-.107 1.6-.32 3.733-.64 6.4a176.48 176.48 0 0 0-.8 7.84c-.214 2.667-.32 4.96-.32 6.88 0 1.6.48 2.88 1.44 3.84 1.066.96 2.346 1.653 3.84 2.08 1.493.427 2.72.64 3.68.64 1.6 0 3.466-.32 5.6-.96.853-.213 1.6-.427 2.24-.64.64-.32 1.013-.48 1.12-.48.96 0 1.546.267 1.76.8.213.533.32 1.387.32 2.56 0 2.347-.8 5.013-2.4 8-1.6 2.88-3.734 5.387-6.4 7.52-2.56 2.027-5.6 3.04-9.12 3.04Zm57.452.16c-4.266 0-7.84-1.653-10.72-4.96-2.773-3.413-4.16-8.48-4.16-15.2l.16-47.2c0-1.707.854-2.827 2.56-3.36 1.707-.533 4.374-.8 8-.8 3.84 0 6.347.48 7.52 1.44 1.28.853 1.92 2.08 1.92 3.68s-.16 3.733-.48 6.4c-.32 2.667-.693 5.653-1.12 8.96-.426 3.2-.853 6.507-1.28 9.92-.426 3.413-.8 6.613-1.12 9.6-.32 2.987-.48 5.493-.48 7.52 0 1.707.64 2.773 1.92 3.2 1.387.427 2.934.64 4.64.64 1.814 0 3.574-.16 5.28-.48 1.707-.427 2.934-.64 3.68-.64.747 0 1.334.267 1.76.8.427.427.64 1.227.64 2.4 0 2.56-.693 5.227-2.08 8-1.28 2.773-3.306 5.173-6.08 7.2-2.773 1.92-6.293 2.88-10.56 2.88Zm84.174 0c-2.773 0-5.547-1.387-8.32-4.16-2.667-2.88-5.013-6.24-7.04-10.08-1.493-3.093-2.933-6.613-4.32-10.56-1.28-3.947-2.187-7.413-2.72-10.4-.107-.427-.32-.533-.64-.32-.32.107-.587.427-.8.96a148.123 148.123 0 0 0-3.84 12.32c-.96 4.053-2.293 8.587-4 13.6-.427 1.6-1.227 3.413-2.4 5.44-1.067 1.92-2.56 2.933-4.48 3.04-1.067 0-2.56-.16-4.48-.48-1.92-.32-3.68-.907-5.28-1.76-1.6-.747-2.4-1.76-2.4-3.04 0-1.6.373-3.84 1.12-6.72.747-2.88 1.547-5.92 2.4-9.12.96-3.84 1.867-7.84 2.72-12 .853-4.16 1.28-7.84 1.28-11.04 0-2.88-.587-4.8-1.76-5.76s-3.093-1.44-5.76-1.44c-3.093 0-5.333.16-6.72.48-1.28.213-2.347.32-3.2.32a3.182 3.182 0 0 1-1.44-.32c-.32-.32-.48-.96-.48-1.92 0-2.987.853-5.867 2.56-8.64 1.707-2.88 3.893-5.227 6.56-7.04 2.773-1.92 5.6-2.88 8.48-2.88 4.8 0 7.733 1.973 8.8 5.92 1.173 3.947 1.76 9.653 1.76 17.12 0 1.493-.107 2.933-.32 4.32a47.48 47.48 0 0 1-.48 3.84 89.67 89.67 0 0 1-.48 4.32c-.213.747.053 1.12.8 1.12.213 0 .427-.053.64-.16.213-.107.533-.693.96-1.76 2.453-6.933 5.653-13.013 9.6-18.24 4.053-5.227 8.213-9.28 12.48-12.16 4.267-2.987 7.893-4.48 10.88-4.48 3.52 0 6.24.747 8.16 2.24 2.027 1.387 3.413 3.307 4.16 5.76.853 2.347 1.28 5.013 1.28 8 0 1.067-.267 2.08-.8 3.04-.533.853-1.227 1.28-2.08 1.28-.533 0-1.28-.053-2.24-.16a84.793 84.793 0 0 0-3.2-.64c-1.173-.213-2.613-.32-4.32-.32-3.84 0-7.253 1.013-10.24 3.04a46.533 46.533 0 0 0-7.84 6.56c-.853.853-1.12 1.813-.8 2.88 1.387 4.267 2.987 7.947 4.8 11.04 1.813 3.093 4.16 5.493 7.04 7.2 2.987 1.707 6.827 2.56 11.52 2.56 2.133 0 3.947-.373 5.44-1.12 1.6-.747 2.933-1.493 4-2.24 1.067-.853 1.707-1.28 1.92-1.28.533 0 .853.213.96.64.213.427.32.907.32 1.44 0 5.013-.96 9.173-2.88 12.48-1.92 3.2-4.267 5.547-7.04 7.04-2.773 1.493-5.387 2.24-7.84 2.24Zm84.584 43.2c-2.347 0-4.747-.587-7.2-1.76-2.347-1.173-4.32-2.613-5.92-4.32-1.494-1.707-2.24-3.307-2.24-4.8 0-1.387.16-3.253.48-5.6.426-2.347.96-5.067 1.6-8.16.64-2.347 1.28-5.6 1.92-9.76.64-4.16 1.333-8.747 2.08-13.76.746-5.12 1.44-10.293 2.08-15.52a637.974 637.974 0 0 0 1.92-14.56c.64-4.587 1.12-8.427 1.44-11.52.32-3.093.48-5.067.48-5.92 0-1.387-.32-2.453-.96-3.2-.534-.747-1.334-1.12-2.4-1.12-1.174 0-2.827 1.28-4.96 3.84-2.027 2.453-4.32 5.867-6.88 10.24-2.454 4.267-4.854 9.067-7.2 14.4a139.575 139.575 0 0 0-6.08 16.16 140.89 140.89 0 0 1-2.72 8c-.96 2.56-2.294 3.84-4 3.84-3.094 0-5.76-.8-8-2.4-2.134-1.6-3.2-3.413-3.2-5.44 0-2.347.32-4.907.96-7.68a211.5 211.5 0 0 0 1.92-8 426.97 426.97 0 0 0 1.6-7.36c.64-2.56.96-5.28.96-8.16 0-4.267-.64-7.413-1.92-9.44-1.174-2.133-3.36-3.2-6.56-3.2-2.987 0-5.067.32-6.24.96-1.174.533-2.08.8-2.72.8-1.387 0-2.08-.8-2.08-2.4 0-2.987.8-5.92 2.4-8.8 1.706-2.88 3.733-5.28 6.08-7.2 2.453-2.027 4.906-3.04 7.36-3.04 4.266 0 7.306 1.44 9.12 4.32 1.92 2.773 2.826 6.72 2.72 11.84 0 2.027-.16 4.107-.48 6.24a49.84 49.84 0 0 1-1.12 6.56c-.427 2.24-.96 4.64-1.6 7.2-.107.64-.054 1.12.16 1.44.32.213.533.32.64.32.32 0 .586-.107.8-.32l.96-1.44c2.986-6.72 6.133-12.8 9.44-18.24 3.413-5.44 6.826-9.76 10.24-12.96 3.413-3.307 6.56-4.96 9.44-4.96 2.346 0 4.64 1.013 6.88 3.04s4.053 4.587 5.44 7.68c1.493 3.093 2.24 6.4 2.24 9.92 0 14.08-.107 28.373-.32 42.88-.107 14.507-.214 28.747-.32 42.72 0 3.093-.587 5.28-1.76 6.56-1.067 1.387-2.56 2.08-4.48 2.08Zm-28.16-121.76c-.96 0-1.547-.213-1.76-.64-.107-.427-.16-1.013-.16-1.76 0-.853.266-2.667.8-5.44.533-2.88 1.173-6.08 1.92-9.6a396.79 396.79 0 0 1 2.24-10.24c.853-3.2 1.653-5.6 2.4-7.2.533-1.28 1.333-2.187 2.4-2.72 1.066-.64 2.026-.907 2.88-.8 2.026.107 3.946 1.013 5.76 2.72 1.92 1.707 2.773 3.307 2.56 4.8 0 .427-.534 1.76-1.6 4-.96 2.24-2.187 4.8-3.68 7.68a215.795 215.795 0 0 1-4.64 8.48c-1.494 2.773-2.774 4.96-3.84 6.56-.64.853-1.44 1.76-2.4 2.72-.96.96-1.92 1.44-2.88 1.44Zm97.586 78.88c-1.28 0-2.99-.373-5.12-1.12-2.14-.747-4-1.76-5.605-3.04-1.6-1.28-2.4-2.72-2.4-4.32 0-1.28.373-2.4 1.12-3.36a108.283 108.283 0 0 1 2.085-2.88c2.13-3.2 4.53-6.773 7.2-10.72 2.66-4.053 5.38-8.373 8.16-12.96 2.88-4.693 5.65-9.6 8.32-14.72 2.77-5.12 5.33-10.4 7.68-15.84.32-.853.53-1.973.64-3.36.1-1.387-.06-2.827-.48-4.32-1.6-5.867-3.68-10.453-6.24-13.76-2.56-3.413-5.6-5.813-9.12-7.2-3.42-1.387-7.36-2.08-11.84-2.08-1.71 0-3.31.267-4.8.8-1.392.427-2.725.96-4.005 1.6l-2.24 1.12c-.747.213-1.333.32-1.76.32-.533 0-.96-.16-1.28-.48-.32-.32-.48-.907-.48-1.76 0-1.707.533-3.573 1.6-5.6.96-2.027 2.4-4 4.32-5.92 1.813-1.92 3.945-3.52 6.405-4.8 2.56-1.28 5.28-1.92 8.16-1.92 5.33 0 9.86 1.493 13.6 4.48 3.84 2.987 7.04 7.573 9.6 13.76 2.66 6.08 4.96 13.92 6.88 23.52 1.6 7.573 2.88 13.867 3.84 18.88 1.06 5.013 1.97 9.173 2.72 12.48.74 3.307 1.49 6.24 2.24 8.8 1.38 4.587 3.25 7.84 5.6 9.76 2.45 1.813 5.54 2.72 9.28 2.72 3.3.107 5.97-.16 8-.8 2.13-.64 3.57-.96 4.32-.96.64 0 1.12.16 1.44.48.32.213.48.747.48 1.6 0 2.027-.32 4.267-.96 6.72-.54 2.347-1.5 4.64-2.88 6.88-1.39 2.133-3.31 3.893-5.76 5.28-2.35 1.493-5.34 2.24-8.96 2.24-2.88 0-5.5-1.067-7.84-3.2-2.35-2.24-4.27-5.333-5.76-9.28-1.07-3.413-2.14-7.2-3.2-11.36a206.75 206.75 0 0 1-2.88-12.96c-.86-4.48-1.82-8.907-2.88-13.28-.11-.853-.38-1.333-.8-1.44-.43-.107-.75.213-.96.96-.96 2.56-2.24 5.92-3.84 10.08-1.6 4.053-3.36 8.32-5.28 12.8-1.92 4.48-3.79 8.693-5.6 12.64-1.82 3.84-3.31 6.987-4.48 9.44-.75 1.6-1.5 2.827-2.24 3.68-.64.96-1.28 1.6-1.92 1.92-.64.32-1.34.48-2.08.48Zm134.79 42.88c-2.34 0-4.74-.587-7.2-1.76-2.34-1.173-4.32-2.613-5.92-4.32-1.49-1.707-2.24-3.307-2.24-4.8 0-1.387.16-3.253.48-5.6.43-2.347.96-5.067 1.6-8.16.64-2.347 1.28-5.6 1.92-9.76.64-4.16 1.34-8.747 2.08-13.76.75-5.12 1.44-10.293 2.08-15.52.75-5.227 1.39-10.08 1.92-14.56.64-4.587 1.12-8.427 1.44-11.52.32-3.093.48-5.067.48-5.92 0-1.387-.32-2.453-.96-3.2-.53-.747-1.33-1.12-2.4-1.12-1.17 0-2.82 1.28-4.96 3.84-2.02 2.453-4.32 5.867-6.88 10.24-2.45 4.267-4.85 9.067-7.2 14.4a141.617 141.617 0 0 0-6.08 16.16c-.85 2.773-1.76 5.44-2.72 8-.96 2.56-2.29 3.84-4 3.84-3.09 0-5.76-.8-8-2.4-2.13-1.6-3.2-3.413-3.2-5.44 0-2.347.32-4.907.96-7.68.75-2.88 1.39-5.547 1.92-8 .54-2.347 1.07-4.8 1.6-7.36.64-2.56.96-5.28.96-8.16 0-4.267-.64-7.413-1.92-9.44-1.17-2.133-3.36-3.2-6.56-3.2-2.98 0-5.06.32-6.24.96-1.17.533-2.08.8-2.72.8-1.38 0-2.08-.8-2.08-2.4 0-2.987.8-5.92 2.4-8.8 1.71-2.88 3.74-5.28 6.08-7.2 2.46-2.027 4.91-3.04 7.36-3.04 4.27 0 7.31 1.44 9.12 4.32 1.92 2.773 2.83 6.72 2.72 11.84 0 2.027-.16 4.107-.48 6.24-.21 2.133-.58 4.32-1.12 6.56-.42 2.24-.96 4.64-1.6 7.2-.1.64-.05 1.12.16 1.44.32.213.54.32.64.32.32 0 .59-.107.8-.32.22-.32.54-.8.96-1.44 2.99-6.72 6.14-12.8 9.44-18.24 3.42-5.44 6.83-9.76 10.24-12.96 3.42-3.307 6.56-4.96 9.44-4.96 2.35 0 4.64 1.013 6.88 3.04s4.06 4.587 5.44 7.68c1.5 3.093 2.24 6.4 2.24 9.92 0 14.08-.1 28.373-.32 42.88-.1 14.507-.21 28.747-.32 42.72 0 3.093-.58 5.28-1.76 6.56-1.06 1.387-2.56 2.08-4.48 2.08Zm-28.16-121.76c-.96 0-1.54-.213-1.76-.64-.1-.427-.16-1.013-.16-1.76 0-.853.27-2.667.8-5.44.54-2.88 1.18-6.08 1.92-9.6.75-3.627 1.5-7.04 2.24-10.24.86-3.2 1.66-5.6 2.4-7.2.54-1.28 1.34-2.187 2.4-2.72 1.07-.64 2.03-.907 2.88-.8 2.03.107 3.95 1.013 5.76 2.72 1.92 1.707 2.78 3.307 2.56 4.8 0 .427-.53 1.76-1.6 4-.96 2.24-2.18 4.8-3.68 7.68-1.49 2.88-3.04 5.707-4.64 8.48-1.49 2.773-2.77 4.96-3.84 6.56-.64.853-1.44 1.76-2.4 2.72-.96.96-1.92 1.44-2.88 1.44Zm100.1 121.76c-2.46 0-4.38-1.067-5.76-3.2-1.28-2.027-2.19-4.8-2.72-8.32-.54-3.52-.86-7.467-.96-11.84v-20c-3.84-.213-7.2-1.44-10.08-3.68-2.78-2.24-5.07-5.12-6.88-8.64-1.71-3.52-2.72-7.253-3.04-11.2-.64-5.973-1.28-10.72-1.92-14.24-.54-3.52-1.28-6.133-2.25-7.84-.85-1.813-2.02-2.987-3.51-3.52-1.5-.533-3.47-.8-5.92-.8-2.99 0-5.18.48-6.56 1.44-1.39.96-2.46 1.44-3.2 1.44-.75 0-1.28-.16-1.6-.48-.33-.427-.49-1.227-.49-2.4 0-2.027.33-4.213.97-6.56.74-2.453 1.86-4.8 3.36-7.04 1.49-2.24 3.41-4.107 5.76-5.6 2.34-1.493 5.06-2.24 8.16-2.24 3.94 0 6.88 2.933 8.8 8.8 2.02 5.867 3.57 14.933 4.64 27.2.42 3.627 2.02 6.773 4.8 9.44 2.77 2.667 5.86 4.16 9.28 4.48 0-10.667-.16-19.787-.48-27.36-.22-7.573-.48-14.133-.8-19.68-.32-5.547-.64-10.453-.96-14.72-.22-4.373-.32-8.587-.32-12.64 0-1.6.37-2.827 1.12-3.68.85-.853 1.86-1.28 3.04-1.28 1.06 0 2.4.213 4 .64 1.7.32 3.2.96 4.48 1.92 1.28.853 1.92 1.973 1.92 3.36 0 .747-.22 2.933-.64 6.56-.43 3.52-.91 8.427-1.44 14.72-.54 6.187-1.02 13.653-1.44 22.4-.43 8.64-.7 18.4-.8 29.28 3.52-.96 6.18-3.307 8-7.04 1.81-3.84 3.68-8.427 5.6-13.76 2.13-5.547 4.1-10.453 5.92-14.72 1.92-4.373 4.32-7.787 7.19-10.24 2.99-2.453 6.99-3.68 12.01-3.68 2.66 0 4.8.427 6.4 1.28 1.6.747 2.4 2.187 2.4 4.32 0 .96-.32 1.813-.96 2.56-.64.64-1.34 1.067-2.08 1.28-4.16 1.387-7.31 3.467-9.44 6.24-2.14 2.667-4.06 5.973-5.76 9.92-.86 2.347-1.98 5.227-3.36 8.64-1.28 3.307-2.56 6.72-3.84 10.24a654.01 654.01 0 0 0-3.36 9.44c-1.71 5.013-4.43 8.853-8.16 11.52-3.74 2.56-7.2 4.213-10.4 4.96v5.76c0 5.867.48 10.72 1.44 14.56 1.06 3.84 2.29 6.88 3.68 9.12 1.38 2.24 2.56 3.947 3.52 5.12 1.06 1.28 1.6 2.293 1.6 3.04 0 1.813-.91 3.36-2.72 4.64-1.82 1.387-3.9 2.08-6.24 2.08Zm110.25 0c-2.35 0-4.75-.587-7.2-1.76-2.35-1.173-4.32-2.613-5.92-4.32-1.49-1.707-2.24-3.307-2.24-4.8 0-1.387.16-3.253.48-5.6.43-2.347.96-5.067 1.6-8.16.64-2.347 1.28-5.6 1.92-9.76.64-4.16 1.33-8.747 2.08-13.76.75-5.12 1.44-10.293 2.08-15.52.75-5.227 1.39-10.08 1.92-14.56.64-4.587 1.12-8.427 1.44-11.52.32-3.093.48-5.067.48-5.92 0-1.387-.32-2.453-.96-3.2-.53-.747-1.33-1.12-2.4-1.12-1.17 0-2.83 1.28-4.96 3.84-2.03 2.453-4.32 5.867-6.88 10.24-2.45 4.267-4.85 9.067-7.2 14.4a139.758 139.758 0 0 0-6.08 16.16c-.85 2.773-1.76 5.44-2.72 8-.96 2.56-2.29 3.84-4 3.84-3.09 0-5.76-.8-8-2.4-2.13-1.6-3.2-3.413-3.2-5.44 0-2.347.32-4.907.96-7.68.75-2.88 1.39-5.547 1.92-8 .53-2.347 1.07-4.8 1.6-7.36.64-2.56.96-5.28.96-8.16 0-4.267-.64-7.413-1.92-9.44-1.17-2.133-3.36-3.2-6.56-3.2-2.99 0-5.07.32-6.24.96-1.17.533-2.08.8-2.72.8-1.39 0-2.08-.8-2.08-2.4 0-2.987.8-5.92 2.4-8.8 1.71-2.88 3.73-5.28 6.08-7.2 2.45-2.027 4.91-3.04 7.36-3.04 4.27 0 7.31 1.44 9.12 4.32 1.92 2.773 2.83 6.72 2.72 11.84 0 2.027-.16 4.107-.48 6.24-.21 2.133-.59 4.32-1.12 6.56-.43 2.24-.96 4.64-1.6 7.2-.11.64-.05 1.12.16 1.44.32.213.53.32.64.32.32 0 .59-.107.8-.32.21-.32.53-.8.96-1.44 2.99-6.72 6.13-12.8 9.44-18.24 3.41-5.44 6.83-9.76 10.24-12.96 3.41-3.307 6.56-4.96 9.44-4.96 2.35 0 4.64 1.013 6.88 3.04s4.05 4.587 5.44 7.68c1.49 3.093 2.24 6.4 2.24 9.92 0 14.08-.11 28.373-.32 42.88-.11 14.507-.21 28.747-.32 42.72 0 3.093-.59 5.28-1.76 6.56-1.07 1.387-2.56 2.08-4.48 2.08Zm95.82-43.36c-3.95 0-6.93-1.547-8.96-4.64-1.92-3.093-2.93-7.147-3.04-12.16 0-2.56.11-5.333.32-8.32a230.5 230.5 0 0 1 1.12-9.12c.53-2.987 1.01-5.707 1.44-8.16.53-2.453.96-4.373 1.28-5.76.21-1.067-.05-1.973-.8-2.72-.64-.853-1.49-1.333-2.56-1.44-.64-.107-1.39-.16-2.24-.16h-2.72c-.96-.107-1.97-.16-3.04-.16-2.67 0-4.85.267-6.56.8-1.71.427-3.15 1.333-4.32 2.72-1.17 1.387-2.45 3.413-3.84 6.08-.11.32-.37.8-.8 1.44-.32.533-.85.8-1.6.8-.75 0-1.39-.533-1.92-1.6-.43-1.067-.64-2.88-.64-5.44 0-3.52.8-7.093 2.4-10.72 1.71-3.627 4.37-6.667 8-9.12 3.73-2.453 8.53-3.68 14.4-3.68 2.35 0 5.17.107 8.48.32l10.24.64c3.41.213 6.24.32 8.48.32 3.95-.107 6.88-.48 8.8-1.12 2.03-.64 3.52-1.28 4.48-1.92.96-.747 1.65-1.387 2.08-1.92.43-.64.96-.96 1.6-.96 1.49 0 2.4.587 2.72 1.76.32 1.067.16 3.2-.48 6.4a40.756 40.756 0 0 1-2.56 8.48c-1.17 2.667-2.72 4.8-4.64 6.4-1.92 1.6-4.37 2.4-7.36 2.4-.96 0-2.29-.053-4-.16-1.6-.213-3.2-.373-4.8-.48-1.6-.107-2.93-.16-4-.16-3.2 0-4.96 1.28-5.28 3.84-.11 1.6-.32 3.733-.64 6.4-.32 2.56-.59 5.173-.8 7.84-.21 2.667-.32 4.96-.32 6.88 0 1.6.48 2.88 1.44 3.84 1.07.96 2.35 1.653 3.84 2.08 1.49.427 2.72.64 3.68.64 1.6 0 3.47-.32 5.6-.96.85-.213 1.6-.427 2.24-.64.64-.32 1.01-.48 1.12-.48.96 0 1.55.267 1.76.8.21.533.32 1.387.32 2.56 0 2.347-.8 5.013-2.4 8-1.6 2.88-3.73 5.387-6.4 7.52-2.56 2.027-5.6 3.04-9.12 3.04Zm97.77 43.36c-2.34 0-4.74-.587-7.2-1.76-2.34-1.173-4.32-2.613-5.92-4.32-1.49-1.707-2.24-3.307-2.24-4.8 0-1.387.16-3.253.48-5.6.43-2.347.96-5.067 1.6-8.16.64-2.347 1.28-5.6 1.92-9.76.64-4.16 1.34-8.747 2.08-13.76.75-5.12 1.44-10.293 2.08-15.52.75-5.227 1.39-10.08 1.92-14.56.64-4.587 1.12-8.427 1.44-11.52.32-3.093.48-5.067.48-5.92 0-1.387-.32-2.453-.96-3.2-.53-.747-1.33-1.12-2.4-1.12-1.17 0-2.82 1.28-4.96 3.84-2.02 2.453-4.32 5.867-6.88 10.24-2.45 4.267-4.85 9.067-7.2 14.4a141.617 141.617 0 0 0-6.08 16.16c-.85 2.773-1.76 5.44-2.72 8-.96 2.56-2.29 3.84-4 3.84-3.09 0-5.76-.8-8-2.4-2.13-1.6-3.2-3.413-3.2-5.44 0-2.347.32-4.907.96-7.68.75-2.88 1.39-5.547 1.92-8 .54-2.347 1.07-4.8 1.6-7.36.64-2.56.96-5.28.96-8.16 0-4.267-.64-7.413-1.92-9.44-1.17-2.133-3.36-3.2-6.56-3.2-2.98 0-5.06.32-6.24.96-1.17.533-2.08.8-2.72.8-1.38 0-2.08-.8-2.08-2.4 0-2.987.8-5.92 2.4-8.8 1.71-2.88 3.74-5.28 6.08-7.2 2.46-2.027 4.91-3.04 7.36-3.04 4.27 0 7.31 1.44 9.12 4.32 1.92 2.773 2.83 6.72 2.72 11.84 0 2.027-.16 4.107-.48 6.24-.21 2.133-.58 4.32-1.12 6.56-.42 2.24-.96 4.64-1.6 7.2-.1.64-.05 1.12.16 1.44.32.213.54.32.64.32.32 0 .59-.107.8-.32.22-.32.54-.8.96-1.44 2.99-6.72 6.14-12.8 9.44-18.24 3.42-5.44 6.83-9.76 10.24-12.96 3.42-3.307 6.56-4.96 9.44-4.96 2.35 0 4.64 1.013 6.88 3.04s4.06 4.587 5.44 7.68c1.5 3.093 2.24 6.4 2.24 9.92 0 14.08-.1 28.373-.32 42.88-.1 14.507-.21 28.747-.32 42.72 0 3.093-.58 5.28-1.76 6.56-1.06 1.387-2.56 2.08-4.48 2.08Zm48.42-13.92c-1.28 0-2.88-.587-4.8-1.76-1.82-1.173-3.47-2.613-4.96-4.32-1.39-1.6-2.08-3.04-2.08-4.32 0-2.347.48-4 1.44-4.96.96-.853 2.18-1.28 3.68-1.28 4.26 0 7.94-.747 11.04-2.24 3.09-1.387 5.44-2.987 7.04-4.8 1.7-1.813 2.56-3.36 2.56-4.64a2.63 2.63 0 0 0-.8-1.92c-.54-.533-1.34-.8-2.4-.8h-6.56l-8.64.32c-2.78.107-4.96.16-6.56.16-2.99 0-5.76-.907-8.32-2.72-2.46-1.813-4.43-4.747-5.92-8.8-1.5-4.053-2.24-9.333-2.24-15.84 0-5.653.9-10.773 2.72-15.36 1.92-4.693 4.42-8.8 7.52-12.32 3.09-3.627 6.4-6.613 9.92-8.96 3.62-2.453 7.14-4.267 10.56-5.44 3.52-1.173 6.56-1.76 9.12-1.76 2.56 0 4.8.96 6.72 2.88 2.02 1.92 3.04 4.16 3.04 6.72 0 2.88-.7 5.44-2.08 7.68-1.28 2.24-3.58 3.36-6.88 3.36-7.26 0-13.28.587-18.08 1.76-4.7 1.067-8.27 2.987-10.72 5.76-2.35 2.773-3.52 6.667-3.52 11.68 0 3.52 1.12 6.4 3.36 8.64 2.34 2.24 5.17 3.36 8.48 3.36 1.28 0 2.77-.053 4.48-.16 1.7-.107 3.46-.213 5.28-.32 1.92-.107 3.73-.213 5.44-.32 1.7-.107 3.2-.16 4.48-.16 3.41 0 5.92 1.387 7.52 4.16 1.6 2.773 2.4 6.56 2.4 11.36 0 4.16-.64 8.32-1.92 12.48-1.28 4.267-2.99 8.107-5.12 11.52-2.03 3.52-4.38 6.293-7.04 8.32-2.67 2.027-5.39 3.04-8.16 3.04ZM133.25 684.484c-9.635 0-17.005-2.448-22.109-7.343-5.052-4.948-7.579-12.24-7.579-21.875V618h-17.5v65H58.642v-65H45.67v-19.531h94.61V618h-9.375v37.188c0 3.124.547 5.312 1.641 6.562 1.094 1.198 3.073 1.797 5.937 1.797 1.094 0 2.188-.078 3.282-.235 1.093-.156 2.343-.416 3.75-.781l1.718 20.157a59.65 59.65 0 0 1-6.875 1.328 52.652 52.652 0 0 1-7.109.468Zm51.016.157c-6.563 0-12.214-1.745-16.954-5.235-4.739-3.489-8.411-8.385-11.015-14.687-2.552-6.354-3.828-13.75-3.828-22.188v-1.64c0-8.802 1.276-16.485 3.828-23.047 2.552-6.615 6.198-11.745 10.937-15.391 4.74-3.698 10.365-5.547 16.875-5.547 4.636 0 8.49.99 11.563 2.969 3.125 1.979 5.807 4.766 8.047 8.359l1.953-9.609h23.984v55.078c0 3.594.469 6.146 1.406 7.656.938 1.459 2.214 2.188 3.829 2.188h.703c.26-.052.442-.104.547-.156L238.094 683c-1.823.625-3.542 1.042-5.156 1.25a29.96 29.96 0 0 1-4.766.391c-5.313 0-9.922-1.094-13.828-3.282-3.906-2.239-6.875-5.52-8.906-9.843-2.344 4.218-5.209 7.474-8.594 9.765-3.334 2.24-7.526 3.36-12.578 3.36Zm8.359-20.86c2.135 0 3.984-.364 5.547-1.093a10.605 10.605 0 0 0 4.062-3.204v-36.562c-.729-1.146-1.562-2.083-2.5-2.813a9.182 9.182 0 0 0-3.125-1.718 12.02 12.02 0 0 0-3.671-.547c-3.073 0-5.573.963-7.5 2.89-1.876 1.927-3.256 4.61-4.141 8.047-.833 3.438-1.25 7.474-1.25 12.11v1.64c0 6.771.911 12.005 2.734 15.703 1.875 3.698 5.157 5.547 9.844 5.547Zm56.094 51.719v-77.578c0-7.917 1.588-14.948 4.765-21.094 3.177-6.198 7.735-11.068 13.672-14.609 5.938-3.542 13.021-5.313 21.25-5.313 8.438 0 15.573 1.849 21.406 5.547 5.834 3.646 10.261 8.776 13.282 15.391 3.073 6.562 4.609 14.245 4.609 23.047v1.64c0 8.438-1.276 15.834-3.828 22.188-2.552 6.302-6.224 11.198-11.016 14.687-4.739 3.49-10.468 5.235-17.187 5.235-4.427 0-8.229-.808-11.406-2.422-3.125-1.615-5.834-3.933-8.125-6.953V715.5h-27.422Zm38.203-51.719c5.104 0 8.594-1.849 10.469-5.547 1.927-3.75 2.89-8.984 2.89-15.703v-1.64c0-4.74-.442-8.829-1.328-12.266-.885-3.437-2.239-6.094-4.062-7.969-1.823-1.875-4.193-2.812-7.11-2.812-2.656 0-4.843.833-6.562 2.5-1.719 1.614-2.995 4.088-3.828 7.422-.834 3.281-1.25 7.422-1.25 12.422v18.437c1.093 1.719 2.578 3.021 4.453 3.906 1.875.834 3.984 1.25 6.328 1.25Zm85.469 20.86c-6.563 0-12.214-1.745-16.953-5.235-4.74-3.489-8.412-8.385-11.016-14.687-2.552-6.354-3.828-13.75-3.828-22.188v-1.64c0-8.802 1.276-16.485 3.828-23.047 2.552-6.615 6.198-11.745 10.937-15.391 4.74-3.698 10.365-5.547 16.875-5.547 4.636 0 8.49.99 11.563 2.969 3.125 1.979 5.807 4.766 8.047 8.359l1.953-9.609h23.984v55.078c0 3.594.469 6.146 1.407 7.656.937 1.459 2.213 2.188 3.828 2.188h.703c.26-.052.442-.104.547-.156L426.219 683c-1.823.625-3.542 1.042-5.157 1.25-1.614.26-3.203.391-4.765.391-5.313 0-9.922-1.094-13.828-3.282-3.907-2.239-6.875-5.52-8.907-9.843-2.343 4.218-5.208 7.474-8.593 9.765-3.334 2.24-7.526 3.36-12.578 3.36Zm8.359-20.86c2.135 0 3.984-.364 5.547-1.093a10.605 10.605 0 0 0 4.062-3.204v-36.562c-.729-1.146-1.562-2.083-2.5-2.813a9.182 9.182 0 0 0-3.125-1.718 12.022 12.022 0 0 0-3.672-.547c-3.072 0-5.572.963-7.5 2.89-1.874 1.927-3.255 4.61-4.14 8.047-.833 3.438-1.25 7.474-1.25 12.11v1.64c0 6.771.911 12.005 2.734 15.703 1.875 3.698 5.156 5.547 9.844 5.547Zm93.516 20.781c-8.646 0-16.094-1.77-22.344-5.312-6.25-3.542-11.068-8.411-14.453-14.609-3.334-6.25-5-13.438-5-21.563v-1.484c0-5.573 1.015-10.677 3.047-15.313 2.031-4.687 4.791-8.646 8.281-11.875 3.542-3.229 7.5-5.442 11.875-6.64l.312-.86c-4.427-2.448-7.838-5.364-10.234-8.75-2.396-3.437-3.594-7.604-3.594-12.5 0-5.364 1.38-9.948 4.141-13.75 2.812-3.854 6.771-6.797 11.875-8.828 5.156-2.083 11.198-3.125 18.125-3.125 4.531 0 8.646.495 12.344 1.485 3.698.937 7.838 2.552 12.421 4.843l-3.437 17.031a57.92 57.92 0 0 0-5.781-1.953 46.484 46.484 0 0 0-6.172-1.484 37.518 37.518 0 0 0-6.484-.547c-3.75 0-6.641.573-8.672 1.719-1.98 1.094-2.969 2.708-2.969 4.844 0 1.354.573 2.76 1.719 4.218 1.198 1.459 3.619 2.891 7.265 4.297 8.646 3.021 15.86 6.693 21.641 11.016 5.833 4.323 10.208 9.349 13.125 15.078 2.969 5.729 4.453 12.266 4.453 19.609v1.485c0 8.385-1.693 15.807-5.078 22.265-3.333 6.459-8.099 11.537-14.297 15.235-6.198 3.646-13.568 5.468-22.109 5.468Zm0-20.781c3.125 0 5.729-1.015 7.812-3.047 2.136-2.083 3.724-4.895 4.766-8.437 1.094-3.594 1.64-7.682 1.64-12.266v-1.484c0-3.386-.599-6.667-1.796-9.844-1.198-3.229-2.865-5.989-5-8.281-2.136-2.344-4.61-3.828-7.422-4.453-3.125 0-5.782.989-7.969 2.969-2.136 1.979-3.776 4.687-4.922 8.124-1.094 3.386-1.641 7.214-1.641 11.485v1.484c0 4.584.521 8.672 1.563 12.266 1.094 3.542 2.708 6.354 4.844 8.437 2.187 2.032 4.895 3.047 8.125 3.047Zm90.312 20.86c-8.698 0-16.146-1.797-22.344-5.391-6.145-3.646-10.859-8.698-14.14-15.156-3.229-6.511-4.844-14.037-4.844-22.578v-1.563c0-8.437 1.615-15.885 4.844-22.344 3.281-6.458 7.995-11.51 14.14-15.156 6.146-3.698 13.542-5.547 22.188-5.547 8.698 0 16.094 1.823 22.187 5.469 6.146 3.646 10.834 8.698 14.063 15.156 3.281 6.459 4.922 13.933 4.922 22.422v1.563c0 8.489-1.641 15.989-4.922 22.5-3.229 6.458-7.917 11.51-14.063 15.156-6.093 3.646-13.437 5.469-22.031 5.469Zm0-20.86c3.333 0 5.99-.885 7.969-2.656 2.031-1.823 3.489-4.401 4.375-7.734.937-3.334 1.406-7.292 1.406-11.875v-1.563c0-4.427-.469-8.281-1.406-11.562-.886-3.334-2.344-5.912-4.375-7.735-2.031-1.875-4.74-2.812-8.125-2.812-3.333 0-6.016.937-8.047 2.812-2.031 1.823-3.49 4.401-4.375 7.735-.885 3.281-1.328 7.135-1.328 11.562v1.563c0 4.635.443 8.619 1.328 11.953.885 3.333 2.344 5.885 4.375 7.656s4.766 2.656 8.203 2.656Zm88.984 20.86c-8.593 0-15.963-1.797-22.109-5.391-6.094-3.646-10.781-8.698-14.062-15.156-3.23-6.511-4.844-14.037-4.844-22.578v-1.563c0-8.177 1.641-15.364 4.922-21.562 3.281-6.25 7.995-11.12 14.14-14.61 6.146-3.541 13.542-5.312 22.188-5.312h45.078v21.015h-19.766c3.855 2.084 7.136 5.131 9.844 9.141 2.708 3.958 4.063 9.323 4.063 16.094v1.64c0 7.136-1.589 13.594-4.766 19.375-3.177 5.782-7.708 10.391-13.594 13.828-5.885 3.386-12.916 5.079-21.094 5.079Zm-.39-20.86c3.125 0 5.599-.885 7.422-2.656 1.823-1.823 3.125-4.401 3.906-7.734.781-3.334 1.172-7.292 1.172-11.875v-1.563c0-4.114-.391-7.708-1.172-10.781-.781-3.073-2.083-5.443-3.906-7.11-1.823-1.718-4.297-2.578-7.422-2.578s-5.651.86-7.578 2.578c-1.927 1.719-3.36 4.115-4.297 7.188-.886 3.073-1.328 6.641-1.328 10.703v1.563c0 4.635.442 8.619 1.328 11.953.885 3.333 2.292 5.885 4.219 7.656 1.927 1.771 4.479 2.656 7.656 2.656Zm93.594 20.86c-9.427 0-16.667-2.448-21.719-7.344-5.052-4.948-7.578-12.266-7.578-21.953v-38.282l-11.797-2.5v-16.093h39.219v56.875c0 3.073.494 5.234 1.484 6.484 1.042 1.198 2.813 1.797 5.313 1.797 1.666 0 2.812-.026 3.437-.078.677-.104 2.135-.417 4.375-.938l1.719 20.157c-2.5.677-4.818 1.145-6.953 1.406-2.084.312-4.584.469-7.5.469Zm52.5 0c-6.563 0-12.214-1.745-16.954-5.235-4.739-3.489-8.411-8.385-11.015-14.687-2.552-6.354-3.828-13.75-3.828-22.188v-1.64c0-8.802 1.276-16.485 3.828-23.047 2.552-6.615 6.198-11.745 10.937-15.391 4.74-3.698 10.365-5.547 16.875-5.547 4.636 0 8.49.99 11.563 2.969 3.125 1.979 5.807 4.766 8.047 8.359l1.953-9.609h23.984v55.078c0 3.594.469 6.146 1.406 7.656.938 1.459 2.214 2.188 3.829 2.188h.703c.26-.052.442-.104.547-.156L853.094 683c-1.823.625-3.542 1.042-5.156 1.25a29.96 29.96 0 0 1-4.766.391c-5.313 0-9.922-1.094-13.828-3.282-3.906-2.239-6.875-5.52-8.906-9.843-2.344 4.218-5.209 7.474-8.594 9.765-3.334 2.24-7.526 3.36-12.578 3.36Zm8.359-20.86c2.135 0 3.984-.364 5.547-1.093a10.605 10.605 0 0 0 4.062-3.204v-36.562c-.729-1.146-1.562-2.083-2.5-2.813a9.182 9.182 0 0 0-3.125-1.718 12.02 12.02 0 0 0-3.671-.547c-3.073 0-5.573.963-7.5 2.89-1.876 1.927-3.256 4.61-4.141 8.047-.833 3.438-1.25 7.474-1.25 12.11v1.64c0 6.771.911 12.005 2.734 15.703 1.875 3.698 5.157 5.547 9.844 5.547Zm86.25-2.656-13.281-14.844 32.656-30.156.234-.156-7.343-1.563v-15.937h47.109v16.093l-10.859 2.891-48.516 43.672ZM858.797 683v-16.016l10.625-2.89v-46.563l-12.031-2.969v-16.093h39.375v65.625l9.609 2.89V683h-47.578Zm66.172 0-22.5-33.75 19.297-19.062 23.515 33.984 10.078 2.812V683h-30.39Zm95.471 32.422v-83.281c0-5.209-.84-8.881-2.5-11.016-1.62-2.187-4.04-3.281-7.27-3.281-2.55 0-4.87.573-6.95 1.718-2.08 1.146-3.881 2.761-5.392 4.844V683h-27.422v-58.828c0-1.979-.416-3.36-1.25-4.141-.781-.781-2.109-1.172-3.984-1.172-.938 0-1.511-.026-1.719-.078-.208-.052-1.146.078-2.812.391l-1.719-18.203c1.927-.834 4.609-1.563 8.047-2.188a54.444 54.444 0 0 1 10.39-1.015c5.261 0 9.558.963 12.891 2.89s5.495 4.662 6.484 8.203c.105.261.183.547.235.86.104.26.182.521.234.781 2.817-4.323 6.277-7.656 10.387-10 4.12-2.396 8.65-3.594 13.6-3.594 8.12 0 14.5 2.813 19.14 8.438 4.69 5.625 7.03 14.557 7.03 26.797v83.281h-27.42Zm-20.706-131.641 6.716-27.187h25.08l-18.12 27.187h-13.676Zm110.316 128.438-14.3-9.922c2.45-2.448 4.24-4.714 5.39-6.797 1.2-2.031 1.8-3.958 1.8-5.781 0-1.927-.55-3.49-1.64-4.688-1.1-1.198-2.48-2.031-4.14-2.5-11.93-3.333-20.6-8.099-26.02-14.297-5.36-6.25-8.05-15.078-8.05-26.484v-1.797c0-8.489 1.54-15.963 4.61-22.422 3.13-6.458 7.69-11.51 13.68-15.156 5.98-3.646 13.28-5.469 21.87-5.469 7.24 0 13.52 1.38 18.83 4.141 5.31 2.708 9.4 6.588 12.26 11.641 2.92 5 4.3 10.963 4.14 17.89l-.15.469h-24.92c0-3.854-.89-7.005-2.66-9.453-1.72-2.5-4.43-3.75-8.13-3.75-3.02 0-5.44.911-7.26 2.734-1.77 1.771-3.05 4.323-3.83 7.656-.78 3.282-1.17 7.188-1.17 11.719v1.797c0 4.375.47 7.891 1.41 10.547.99 2.604 2.57 4.687 4.76 6.25 2.24 1.51 5.21 2.864 8.91 4.062 6.14 1.927 11.01 3.933 14.61 6.016 3.59 2.083 6.17 4.375 7.73 6.875 1.56 2.448 2.34 5.234 2.34 8.359 0 3.802-.93 7.474-2.81 11.016-1.82 3.594-4.27 6.875-7.34 9.844a47.412 47.412 0 0 1-9.92 7.5Zm107.57-51.094-13.28-14.844 32.66-30.156.23-.156-7.34-1.563v-15.937H1277v16.093l-10.86 2.891-48.52 43.672ZM1182.55 683v-16.016l10.62-2.89v-46.563l-12.03-2.969v-16.093h39.38v65.625l9.6 2.89V683h-47.57Zm66.17 0-22.5-33.75 19.3-19.062 23.51 33.984 10.08 2.812V683h-30.39Zm80.55 1.641c-8.7 0-16.15-1.797-22.35-5.391-6.14-3.646-10.86-8.698-14.14-15.156-3.23-6.511-4.84-14.037-4.84-22.578v-1.563c0-8.437 1.61-15.885 4.84-22.344 3.28-6.458 8-11.51 14.14-15.156 6.15-3.698 13.54-5.547 22.19-5.547 8.7 0 16.09 1.823 22.19 5.469 6.14 3.646 10.83 8.698 14.06 15.156 3.28 6.459 4.92 13.933 4.92 22.422v1.563c0 8.489-1.64 15.989-4.92 22.5-3.23 6.458-7.92 11.51-14.06 15.156-6.1 3.646-13.44 5.469-22.03 5.469Zm0-20.86c3.33 0 5.99-.885 7.96-2.656 2.04-1.823 3.49-4.401 4.38-7.734.94-3.334 1.41-7.292 1.41-11.875v-1.563c0-4.427-.47-8.281-1.41-11.562-.89-3.334-2.34-5.912-4.38-7.735-2.03-1.875-4.74-2.812-8.12-2.812-3.33 0-6.02.937-8.05 2.812-2.03 1.823-3.49 4.401-4.37 7.735-.89 3.281-1.33 7.135-1.33 11.562v1.563c0 4.635.44 8.619 1.33 11.953.88 3.333 2.34 5.885 4.37 7.656 2.03 1.771 4.77 2.656 8.21 2.656Zm90.7 20.86c-10.73 0-19.17-2.813-25.31-8.438-6.1-5.677-9.14-14.167-9.14-25.469v-27.343c0-1.927-.45-3.282-1.33-4.063-.84-.833-2.24-1.25-4.22-1.25-.68 0-1.38.052-2.11.156-.68.052-1.43.131-2.27.235l-1.56-18.281c1.82-.782 4.48-1.485 7.97-2.11a54.863 54.863 0 0 1 10.47-1.016c6.46 0 11.48 1.537 15.08 4.61 3.59 3.073 5.39 7.604 5.39 13.594l-.16 37.343c0 3.959.63 6.823 1.88 8.594 1.25 1.719 2.94 2.578 5.07 2.578 2.61 0 4.9-1.041 6.88-3.125 1.98-2.135 3.54-5.078 4.69-8.828 1.14-3.802 1.72-8.203 1.72-13.203 0-6.667-.63-13.359-1.88-20.078a154.455 154.455 0 0 0-5-20.078h25.24c1.77 3.593 3.33 7.5 4.68 11.719 1.36 4.166 2.4 8.645 3.13 13.437.78 4.74 1.17 9.74 1.17 15 0 9.323-1.48 17.448-4.45 24.375-2.92 6.875-7.37 12.214-13.36 16.016-5.94 3.75-13.47 5.625-22.58 5.625Zm99.45 28.906-13.67-9.609c1.82-1.823 3.23-3.542 4.22-5.157 1.04-1.562 1.8-3.021 2.26-4.375.47-1.302.71-2.474.71-3.515.05-1.615-.45-3.021-1.49-4.219-.99-1.146-2.78-2.057-5.39-2.734l-5-1.25c-9.74-2.553-17-6.329-21.79-11.329-4.74-5-7.11-11.901-7.11-20.703 0-5.208.73-10.026 2.18-14.453 1.51-4.479 3.78-9.088 6.8-13.828 3.07-4.74 6.95-10.078 11.64-16.016l12.97-15.859-.16-.391h-35.15V569.25h71.64v14.453l-28.99 33.594c-3.33 3.958-6.01 7.526-8.04 10.703-2.03 3.125-3.49 6.172-4.38 9.141-.88 2.916-1.33 6.067-1.33 9.453 0 5.208 1.07 8.88 3.21 11.015 2.18 2.136 5.6 3.881 10.23 5.235l3.44 1.172c5.52 1.614 10.05 3.333 13.59 5.156 3.6 1.771 6.25 3.906 7.97 6.406 1.77 2.448 2.61 5.547 2.5 9.297.05 3.437-.68 6.797-2.19 10.078-1.51 3.333-3.82 6.537-6.95 9.609-3.07 3.073-6.98 6.068-11.72 8.985Zm67.35-28.906c-9.43 0-16.67-2.448-21.72-7.344-5.06-4.948-7.58-12.266-7.58-21.953v-38.282l-11.8-2.5v-16.093h39.22v56.875c0 3.073.5 5.234 1.49 6.484 1.04 1.198 2.81 1.797 5.31 1.797 1.66 0 2.81-.026 3.43-.078.68-.104 2.14-.417 4.38-.938l1.72 20.157c-2.5.677-4.82 1.145-6.95 1.406-2.09.312-4.59.469-7.5.469Zm-21.88-100.86 6.72-27.187h25.08l-18.13 27.187h-13.67ZM1635.05 683l-22.74-66.875-9.37-1.563v-16.093h44.45v16.015l-7.58 1.563 8.99 32.265 1.72 6.407h.46l2.11-6.407 11.8-32.187-9.77-1.641v-16.015h44.38v16.093l-9.69 1.876L1664.19 683h-29.14Zm96.72 1.641c-6.57 0-12.22-1.745-16.96-5.235-4.74-3.489-8.41-8.385-11.01-14.687-2.56-6.354-3.83-13.75-3.83-22.188v-1.64c0-8.802 1.27-16.485 3.83-23.047 2.55-6.615 6.19-11.745 10.93-15.391 4.74-3.698 10.37-5.547 16.88-5.547 4.63 0 8.49.99 11.56 2.969 3.13 1.979 5.81 4.766 8.05 8.359l1.95-9.609h23.99v55.078c0 3.594.46 6.146 1.4 7.656.94 1.459 2.22 2.188 3.83 2.188h.7c.26-.052.45-.104.55-.156l1.95 19.609c-1.82.625-3.54 1.042-5.15 1.25-1.62.26-3.21.391-4.77.391-5.31 0-9.92-1.094-13.83-3.282-3.9-2.239-6.87-5.52-8.9-9.843-2.35 4.218-5.21 7.474-8.6 9.765-3.33 2.24-7.52 3.36-12.57 3.36Zm8.35-20.86c2.14 0 3.99-.364 5.55-1.093 1.62-.73 2.97-1.797 4.06-3.204v-36.562c-.72-1.146-1.56-2.083-2.5-2.813a9.059 9.059 0 0 0-3.12-1.718 12.046 12.046 0 0 0-3.67-.547c-3.08 0-5.58.963-7.5 2.89-1.88 1.927-3.26 4.61-4.14 8.047-.84 3.438-1.25 7.474-1.25 12.11v1.64c0 6.771.91 12.005 2.73 15.703 1.88 3.698 5.16 5.547 9.84 5.547Zm100.24 48.438-14.3-9.922c2.45-2.448 4.25-4.714 5.39-6.797 1.2-2.031 1.8-3.958 1.8-5.781 0-1.927-.55-3.49-1.64-4.688-1.09-1.198-2.47-2.031-4.14-2.5-11.93-3.333-20.6-8.099-26.02-14.297-5.36-6.25-8.04-15.078-8.04-26.484v-1.797c0-8.489 1.53-15.963 4.61-22.422 3.12-6.458 7.68-11.51 13.67-15.156 5.99-3.646 13.28-5.469 21.87-5.469 7.24 0 13.52 1.38 18.83 4.141 5.31 2.708 9.4 6.588 12.27 11.641 2.91 5 4.29 10.963 4.14 17.89l-.16.469h-24.92c0-3.854-.89-7.005-2.66-9.453-1.72-2.5-4.42-3.75-8.12-3.75-3.02 0-5.45.911-7.27 2.734-1.77 1.771-3.05 4.323-3.83 7.656-.78 3.282-1.17 7.188-1.17 11.719v1.797c0 4.375.47 7.891 1.41 10.547.99 2.604 2.58 4.687 4.76 6.25 2.24 1.51 5.21 2.864 8.91 4.062 6.15 1.927 11.02 3.933 14.61 6.016s6.17 4.375 7.73 6.875c1.57 2.448 2.35 5.234 2.35 8.359 0 3.802-.94 7.474-2.82 11.016-1.82 3.594-4.27 6.875-7.34 9.844a47.412 47.412 0 0 1-9.92 7.5ZM96.4 863.96c-8.533 0-16.213-1.92-23.04-5.76-6.72-3.947-12.053-9.28-16-16-3.84-6.827-5.76-14.453-5.76-22.88 0-8.533 1.92-16.107 5.76-22.72 3.947-6.613 9.227-11.787 15.84-15.52 6.72-3.733 14.293-5.6 22.72-5.6h52.96c1.28 0 2.293.48 3.04 1.44.853.853 1.28 1.92 1.28 3.2 0 1.28-.427 2.4-1.28 3.36-.747.853-1.76 1.28-3.04 1.28h-24.16c5.013 3.947 8.96 8.907 11.84 14.88 2.987 5.867 4.48 12.427 4.48 19.68 0 8.427-1.973 16.053-5.92 22.88-3.84 6.72-9.12 12.053-15.84 16-6.72 3.84-14.347 5.76-22.88 5.76Zm0-8.96c6.72 0 12.693-1.547 17.92-4.64 5.333-3.2 9.493-7.467 12.48-12.8 3.093-5.44 4.64-11.52 4.64-18.24 0-6.827-1.547-12.8-4.64-17.92-2.987-5.227-7.147-9.28-12.48-12.16-5.227-2.987-11.2-4.48-17.92-4.48-6.613 0-12.587 1.493-17.92 4.48-5.333 2.88-9.547 6.933-12.64 12.16-3.093 5.12-4.64 11.093-4.64 17.92 0 6.72 1.547 12.8 4.64 18.24 3.093 5.333 7.307 9.6 12.64 12.8 5.333 3.093 11.307 4.64 17.92 4.64Zm128.678 8c-5.867-.107-11.094-1.44-15.68-4-4.587-2.667-8.16-6.293-10.72-10.88-2.56-4.693-3.84-9.973-3.84-15.84v-47.52h-26.88c-1.28 0-2.347-.427-3.2-1.28-.747-.96-1.12-2.08-1.12-3.36 0-1.28.373-2.347 1.12-3.2.853-.96 1.92-1.44 3.2-1.44h67.36c1.28 0 2.293.48 3.04 1.44.853.853 1.28 1.92 1.28 3.2 0 1.28-.427 2.4-1.28 3.36-.747.853-1.76 1.28-3.04 1.28h-30.72v47.52c0 6.187 1.92 11.253 5.76 15.2 3.84 3.84 8.8 5.76 14.88 5.76h3.52c1.493 0 2.666.48 3.52 1.44.96.853 1.44 2.027 1.44 3.52 0 1.387-.48 2.56-1.44 3.52-.854.853-2.027 1.28-3.52 1.28h-3.68Zm74.603.96c-8.533 0-16.213-1.92-23.04-5.76-6.72-3.947-12.053-9.28-16-16-3.84-6.827-5.76-14.453-5.76-22.88 0-8.533 1.92-16.16 5.76-22.88 3.947-6.827 9.28-12.16 16-16 6.827-3.947 14.507-5.92 23.04-5.92 8.534 0 16.16 1.973 22.88 5.92 6.72 3.84 12 9.173 15.84 16 3.947 6.72 5.92 14.347 5.92 22.88 0 8.427-1.973 16.053-5.92 22.88-3.84 6.72-9.12 12.053-15.84 16-6.72 3.84-14.346 5.76-22.88 5.76Zm0-8.96c6.72 0 12.694-1.547 17.92-4.64 5.334-3.2 9.494-7.467 12.48-12.8 3.094-5.44 4.64-11.52 4.64-18.24 0-6.827-1.546-12.907-4.64-18.24-2.986-5.44-7.146-9.707-12.48-12.8-5.226-3.2-11.2-4.8-17.92-4.8-6.613 0-12.586 1.6-17.92 4.8-5.333 3.093-9.546 7.36-12.64 12.8-3.093 5.333-4.64 11.413-4.64 18.24 0 6.72 1.547 12.8 4.64 18.24 3.094 5.333 7.307 9.6 12.64 12.8 5.334 3.093 11.307 4.64 17.92 4.64Zm120.269 8c-1.387 0-2.56-.427-3.52-1.28-.853-.96-1.28-2.133-1.28-3.52v-77.92c0-1.493.427-2.667 1.28-3.52.96-.853 2.133-1.28 3.52-1.28 1.493 0 2.667.427 3.52 1.28.853.853 1.28 2.027 1.28 3.52v40.8l49.6-45.12c2.133-1.813 4.16-1.707 6.08.32 2.027 2.24 1.973 4.267-.16 6.08l-33.92 30.88 34.88 42.72c1.813 2.24 1.6 4.32-.64 6.24s-4.32 1.707-6.24-.64l-34.72-42.4-14.88 13.6v25.44c0 1.387-.427 2.56-1.28 3.52-.853.853-2.027 1.28-3.52 1.28Zm121.795.96c-9.493 0-17.013-1.227-22.56-3.68-5.547-2.453-9.493-5.547-11.84-9.28-2.347-3.84-3.52-7.787-3.52-11.84 0-4.16 1.12-8 3.36-11.52 2.24-3.627 6.133-6.56 11.68-8.8-4.267-1.92-7.627-4.16-10.08-6.72-2.347-2.667-3.52-6.667-3.52-12 0-4.373 1.28-8.48 3.84-12.32 2.56-3.947 6.507-7.093 11.84-9.44 5.44-2.453 12.373-3.68 20.8-3.68 6.507 0 12.107.693 16.8 2.08 4.693 1.28 8.693 2.933 12 4.96 3.307 1.92 6.08 3.893 8.32 5.92 1.493 1.28 2.24 2.613 2.24 4 0 1.28-.48 2.347-1.44 3.2-.96.747-1.973 1.12-3.04 1.12-1.28 0-2.72-.64-4.32-1.92-3.307-2.667-7.52-5.12-12.64-7.36-5.013-2.24-10.987-3.36-17.92-3.36-6.827 0-12.213.8-16.16 2.4-3.84 1.6-6.56 3.68-8.16 6.24-1.6 2.56-2.4 5.28-2.4 8.16 0 5.013 1.867 8.693 5.6 11.04 3.733 2.24 8.213 3.36 13.44 3.36h23.84c1.387 0 2.507.373 3.36 1.12.853.64 1.28 1.707 1.28 3.2 0 2.88-1.493 4.32-4.48 4.32h-25.6c-6.827 0-11.787 1.547-14.88 4.64-2.987 3.093-4.48 6.507-4.48 10.24 0 5.973 2.293 10.347 6.88 13.12 4.587 2.773 11.84 4.16 21.76 4.16 2.24 0 5.173-.213 8.8-.64a106.5 106.5 0 0 0 11.04-2.24c3.733-.96 6.773-2.187 9.12-3.68 1.067-.64 1.92-1.12 2.56-1.44a3.673 3.673 0 0 1 2.08-.64c1.173 0 2.187.427 3.04 1.28.853.747 1.28 1.813 1.28 3.2 0 .747-.213 1.387-.64 1.92-.32.427-.747.907-1.28 1.44-1.813 1.6-4.693 3.147-8.64 4.64-3.84 1.387-8.16 2.56-12.96 3.52-4.8.853-9.6 1.28-14.4 1.28Zm2.72-104c-1.707 0-2.987-.48-3.84-1.44-.747-1.067-1.12-2.027-1.12-2.88 0-1.067.16-1.973.48-2.72l11.04-21.92c1.173-2.347 2.773-3.52 4.8-3.52 1.813 0 3.093.533 3.84 1.6.747.96 1.12 1.867 1.12 2.72 0 .96-.16 1.867-.48 2.72l-11.04 21.92c-1.173 2.347-2.773 3.52-4.8 3.52Zm87.446 103.2c-2.026 0-3.52-1.12-4.48-3.36l-34.88-78.08c-.426-1.173-.426-2.293 0-3.36.427-1.173 1.227-2.027 2.4-2.56 1.174-.533 2.294-.587 3.36-.16 1.174.427 2.027 1.227 2.56 2.4l31.2 72.16 30.72-72.32c.534-1.173 1.387-1.973 2.56-2.4 1.28-.427 2.507-.373 3.68.16 1.174.533 1.974 1.387 2.4 2.56.534 1.067.534 2.187 0 3.36l-34.4 78.24c-1.066 2.24-2.773 3.36-5.12 3.36Zm107.698-.16c-5.867-.107-11.094-1.44-15.68-4-4.587-2.667-8.16-6.293-10.72-10.88-2.56-4.693-3.84-9.973-3.84-15.84v-47.52h-26.88c-1.28 0-2.347-.427-3.2-1.28-.747-.96-1.12-2.08-1.12-3.36 0-1.28.373-2.347 1.12-3.2.853-.96 1.92-1.44 3.2-1.44h67.36c1.28 0 2.293.48 3.04 1.44.853.853 1.28 1.92 1.28 3.2 0 1.28-.427 2.4-1.28 3.36-.747.853-1.76 1.28-3.04 1.28h-30.72v47.52c0 6.187 1.92 11.253 5.76 15.2 3.84 3.84 8.8 5.76 14.88 5.76h3.52c1.493 0 2.666.48 3.52 1.44.96.853 1.44 2.027 1.44 3.52 0 1.387-.48 2.56-1.44 3.52-.854.853-2.027 1.28-3.52 1.28h-3.68Zm39.404 37.44c-1.387 0-2.56-.48-3.52-1.44-.854-.853-1.28-1.973-1.28-3.36v-77.28c.213-8.427 2.24-15.893 6.08-22.4 3.946-6.613 9.28-11.84 16-15.68 6.72-3.84 14.24-5.76 22.56-5.76 8.533 0 16.16 1.973 22.88 5.92 6.826 3.84 12.16 9.173 16 16 3.946 6.72 5.92 14.347 5.92 22.88 0 8.427-1.974 16.053-5.92 22.88-3.84 6.72-9.174 12.053-16 16-6.72 3.84-14.347 5.76-22.88 5.76-7.68 0-14.614-1.653-20.8-4.96-6.08-3.307-10.827-7.733-14.24-13.28v49.92c0 1.387-.427 2.507-1.28 3.36-.854.96-2.027 1.44-3.52 1.44Zm39.84-45.44c6.72 0 12.693-1.547 17.92-4.64 5.333-3.2 9.546-7.467 12.64-12.8 3.093-5.44 4.64-11.52 4.64-18.24 0-6.827-1.547-12.907-4.64-18.24-3.094-5.44-7.307-9.707-12.64-12.8-5.227-3.2-11.2-4.8-17.92-4.8-6.614 0-12.587 1.6-17.921 4.8-5.333 3.093-9.546 7.36-12.639 12.8-2.987 5.333-4.48 11.413-4.48 18.24 0 6.72 1.493 12.8 4.48 18.24 3.093 5.333 7.306 9.6 12.639 12.8 5.334 3.093 11.307 4.64 17.921 4.64Zm108.797 8.96c-8.533 0-16.213-1.92-23.04-5.76-6.72-3.947-12.053-9.28-16-16-3.84-6.827-5.76-14.453-5.76-22.88 0-8.533 1.92-16.16 5.76-22.88 3.947-6.827 9.28-12.16 16-16 6.827-3.947 14.507-5.92 23.04-5.92s16.16 1.973 22.88 5.92c6.72 3.84 12 9.173 15.84 16 3.947 6.72 5.92 14.347 5.92 22.88 0 8.427-1.973 16.053-5.92 22.88-3.84 6.72-9.12 12.053-15.84 16-6.72 3.84-14.347 5.76-22.88 5.76Zm0-8.96c6.72 0 12.693-1.547 17.92-4.64 5.333-3.2 9.493-7.467 12.48-12.8 3.093-5.44 4.64-11.52 4.64-18.24 0-6.827-1.547-12.907-4.64-18.24-2.987-5.44-7.147-9.707-12.48-12.8-5.227-3.2-11.2-4.8-17.92-4.8-6.613 0-12.587 1.6-17.92 4.8-5.333 3.093-9.547 7.36-12.64 12.8-3.093 5.333-4.64 11.413-4.64 18.24 0 6.72 1.547 12.8 4.64 18.24 3.093 5.333 7.307 9.6 12.64 12.8 5.333 3.093 11.307 4.64 17.92 4.64Zm165.71 8c-5.87-.107-11.09-1.44-15.68-4-4.59-2.667-8.16-6.293-10.72-10.88-2.56-4.693-3.84-9.973-3.84-15.84v-47.52h-26.88c-1.28 0-2.35-.427-3.2-1.28-.75-.96-1.12-2.08-1.12-3.36 0-1.28.37-2.347 1.12-3.2.85-.96 1.92-1.44 3.2-1.44h67.36c1.28 0 2.29.48 3.04 1.44.85.853 1.28 1.92 1.28 3.2 0 1.28-.43 2.4-1.28 3.36-.75.853-1.76 1.28-3.04 1.28h-30.72v47.52c0 6.187 1.92 11.253 5.76 15.2 3.84 3.84 8.8 5.76 14.88 5.76h3.52c1.49 0 2.67.48 3.52 1.44.96.853 1.44 2.027 1.44 3.52 0 1.387-.48 2.56-1.44 3.52-.85.853-2.03 1.28-3.52 1.28h-3.68Zm39.4 0c-1.38 0-2.56-.427-3.52-1.28-.85-.96-1.28-2.133-1.28-3.52v-77.92c0-1.493.43-2.667 1.28-3.52.96-.853 2.14-1.28 3.52-1.28 1.5 0 2.67.427 3.52 1.28.86.853 1.28 2.027 1.28 3.52v8.32c3.52-4.373 7.9-7.84 13.12-10.4 5.34-2.56 11.1-3.84 17.28-3.84 7.68 0 14.56 1.6 20.64 4.8 6.19 3.093 11.04 7.68 14.56 13.76 3.52 5.973 5.28 13.387 5.28 22.24v80.48c0 1.387-.48 2.507-1.44 3.36-.85.96-1.97 1.44-3.36 1.44-1.38 0-2.56-.48-3.52-1.44-.85-.853-1.28-1.973-1.28-3.36v-80.48c0-7.04-1.38-12.853-4.16-17.44-2.66-4.587-6.34-8-11.04-10.24-4.58-2.347-9.81-3.52-15.68-3.52-5.76 0-10.93 1.12-15.52 3.36-4.58 2.133-8.21 5.12-10.88 8.96-2.66 3.84-4 8.16-4 12.96v48.96c0 1.387-.42 2.56-1.28 3.52-.85.853-2.02 1.28-3.52 1.28Zm143.66 37.44c-1.39 0-2.56-.48-3.52-1.44-.96-.853-1.44-1.973-1.44-3.36 0-1.493.48-2.72 1.44-3.68.96-.853 2.13-1.28 3.52-1.28 4.37 0 7.95-1.333 10.72-4 2.88-2.667 4.32-5.973 4.32-9.92s-1.28-7.253-3.84-9.92c-2.45-2.56-6.67-3.84-12.64-3.84-13.55 0-24.32-3.68-32.32-11.04-7.89-7.36-11.84-17.707-11.84-31.04 0-9.6 1.76-17.813 5.28-24.64 3.52-6.933 8.37-12.267 14.56-16 6.19-3.733 13.28-5.6 21.28-5.6 6.83 0 13.07 1.333 18.72 4 5.65 2.56 10.56 6.507 14.72 11.84.85 1.067 1.17 2.187.96 3.36-.21 1.173-.91 2.133-2.08 2.88-.96.747-2.03 1.067-3.2.96-1.17-.213-2.19-.853-3.04-1.92-6.83-8.107-15.52-12.16-26.08-12.16-9.39 0-17.01 3.253-22.88 9.76-5.76 6.4-8.64 15.573-8.64 27.52 0 11.2 2.99 19.52 8.96 24.96 6.08 5.44 14.61 8.16 25.6 8.16 8.53 0 14.93 2.133 19.2 6.4 4.37 4.16 6.56 9.6 6.56 16.32 0 4.48-1.07 8.48-3.2 12-2.13 3.627-5.01 6.453-8.64 8.48-3.63 2.133-7.79 3.2-12.48 3.2ZM1398.78 863c-1.39 0-2.56-.427-3.52-1.28-.86-.96-1.28-2.133-1.28-3.52v-73.44h-21.92c-1.28 0-2.35-.427-3.2-1.28-.75-.96-1.12-2.08-1.12-3.36 0-1.28.37-2.347 1.12-3.2.85-.96 1.92-1.44 3.2-1.44h104.32c1.28 0 2.29.48 3.04 1.44.85.853 1.28 1.92 1.28 3.2 0 1.28-.43 2.4-1.28 3.36-.75.853-1.76 1.28-3.04 1.28h-21.12v47.52c0 6.187 1.12 11.253 3.36 15.2 2.24 3.84 6.4 5.76 12.48 5.76h1.92c1.49 0 2.66.48 3.52 1.44.96.853 1.44 2.027 1.44 3.52 0 1.387-.48 2.56-1.44 3.52-.86.853-2.03 1.28-3.52 1.28h-2.08c-8.86 0-15.31-2.88-19.36-8.64-4.06-5.867-6.08-13.227-6.08-22.08v-47.52h-41.76v73.44c0 1.387-.48 2.56-1.44 3.52-.96.853-2.14 1.28-3.52 1.28Zm143.56.96c-8.54 0-16.22-1.92-23.04-5.76-6.72-3.947-12.06-9.28-16-16-3.84-6.827-5.76-14.453-5.76-22.88 0-8.533 1.92-16.16 5.76-22.88 3.94-6.827 9.28-12.16 16-16 6.82-3.947 14.5-5.92 23.04-5.92 8.53 0 16.16 1.973 22.88 5.92 6.72 3.84 12 9.173 15.84 16 3.94 6.72 5.92 14.347 5.92 22.88 0 8.427-1.98 16.053-5.92 22.88-3.84 6.72-9.12 12.053-15.84 16-6.72 3.84-14.35 5.76-22.88 5.76Zm0-8.96c6.72 0 12.69-1.547 17.92-4.64 5.33-3.2 9.49-7.467 12.48-12.8 3.09-5.44 4.64-11.52 4.64-18.24 0-6.827-1.55-12.907-4.64-18.24-2.99-5.44-7.15-9.707-12.48-12.8-5.23-3.2-11.2-4.8-17.92-4.8-6.62 0-12.59 1.6-17.92 4.8-5.34 3.093-9.55 7.36-12.64 12.8-3.1 5.333-4.64 11.413-4.64 18.24 0 6.72 1.54 12.8 4.64 18.24 3.09 5.333 7.3 9.6 12.64 12.8 5.33 3.093 11.3 4.64 17.92 4.64Zm1.12-95.04c-1.71 0-2.99-.48-3.84-1.44-.75-1.067-1.12-2.027-1.12-2.88 0-1.067.16-1.973.48-2.72l11.04-21.92c1.17-2.347 2.77-3.52 4.8-3.52 1.81 0 3.09.533 3.84 1.6.74.96 1.12 1.867 1.12 2.72 0 .96-.16 1.867-.48 2.72l-11.04 21.92c-1.18 2.347-2.78 3.52-4.8 3.52ZM1603.73 863c-1.39 0-2.56-.427-3.52-1.28-.85-.96-1.28-2.133-1.28-3.52 0-.853.05-1.44.16-1.76l32.48-77.6-16-35.04c-.11-.32-.21-.693-.32-1.12a5.79 5.79 0 0 1-.16-1.44c0-1.28.43-2.347 1.28-3.2.96-.96 2.13-1.44 3.52-1.44.96 0 1.87.32 2.72.96.96.533 1.6 1.333 1.92 2.4l12.16 26.56.16-.16 1.92 4.48 39.2 85.6c.11.213.16.8.16 1.76 0 1.387-.48 2.56-1.44 3.52-.85.853-1.97 1.28-3.36 1.28-2.13 0-3.68-1.067-4.64-3.2l-31.52-68.8-28.8 68.8c-.85 2.133-2.4 3.2-4.64 3.2Zm95.13 0c-1.39 0-2.56-.427-3.52-1.28-.86-.96-1.28-2.133-1.28-3.52v-77.92c0-1.493.42-2.667 1.28-3.52.96-.853 2.13-1.28 3.52-1.28 1.49 0 2.66.427 3.52 1.28.85.853 1.28 2.027 1.28 3.52v8.32c3.52-4.373 7.89-7.84 13.12-10.4 5.33-2.56 11.09-3.84 17.28-3.84 7.68 0 14.56 1.6 20.64 4.8 6.18 3.093 11.04 7.68 14.56 13.76 3.52 5.973 5.28 13.387 5.28 22.24v80.48c0 1.387-.48 2.507-1.44 3.36-.86.96-1.98 1.44-3.36 1.44-1.39 0-2.56-.48-3.52-1.44-.86-.853-1.28-1.973-1.28-3.36v-80.48c0-7.04-1.39-12.853-4.16-17.44-2.67-4.587-6.35-8-11.04-10.24-4.59-2.347-9.82-3.52-15.68-3.52-5.76 0-10.94 1.12-15.52 3.36-4.59 2.133-8.22 5.12-10.88 8.96-2.67 3.84-4 8.16-4 12.96v48.96c0 1.387-.43 2.56-1.28 3.52-.86.853-2.03 1.28-3.52 1.28Zm143.65 37.44c-1.38 0-2.56-.48-3.52-1.44-.96-.853-1.44-1.973-1.44-3.36 0-1.493.48-2.72 1.44-3.68.96-.853 2.14-1.28 3.52-1.28 4.38 0 7.95-1.333 10.72-4 2.88-2.667 4.32-5.973 4.32-9.92s-1.28-7.253-3.84-9.92c-2.45-2.56-6.66-3.84-12.64-3.84-13.54 0-24.32-3.68-32.32-11.04-7.89-7.36-11.84-17.707-11.84-31.04 0-9.6 1.76-17.813 5.28-24.64 3.52-6.933 8.38-12.267 14.56-16 6.19-3.733 13.28-5.6 21.28-5.6 6.83 0 13.07 1.333 18.72 4 5.66 2.56 10.56 6.507 14.72 11.84.86 1.067 1.18 2.187.96 3.36-.21 1.173-.9 2.133-2.08 2.88-.96.747-2.02 1.067-3.2.96-1.17-.213-2.18-.853-3.04-1.92-6.82-8.107-15.52-12.16-26.08-12.16-9.38 0-17.01 3.253-22.88 9.76-5.76 6.4-8.64 15.573-8.64 27.52 0 11.2 2.99 19.52 8.96 24.96 6.08 5.44 14.62 8.16 25.6 8.16 8.54 0 14.94 2.133 19.2 6.4 4.38 4.16 6.56 9.6 6.56 16.32 0 4.48-1.06 8.48-3.2 12-2.13 3.627-5.01 6.453-8.64 8.48-3.62 2.133-7.78 3.2-12.48 3.2ZM153.16 337h-9.28l-4.96-52.48c-2.027-20.373-3.413-36.267-4.16-47.68l-27.52 87.2h-9.12l-28.48-87.2c-.533 10.347-1.6 24.053-3.2 41.12l-.48 6.24-4.8 52.8h-9.12l10.4-109.6h13.28l27.2 85.28 26.24-85.28h13.44L153.16 337Zm36.405-19.84c0 4.16.533 7.253 1.6 9.28 1.173 1.92 3.147 3.467 5.92 4.64l-2.88 7.2c-5.12-1.493-8.747-3.733-10.88-6.72-2.027-3.093-3.04-7.627-3.04-13.6v-64.64h9.28v63.84Zm58.809-65.6c7.466 0 13.333 2.293 17.6 6.88 4.373 4.587 7.626 12.587 9.76 24l5.92-29.12h8.96l-9.44 41.76 4.8 27.2c.426 2.347 1.173 4.107 2.24 5.28 1.066 1.173 2.56 2.133 4.48 2.88l-3.36 7.84c-6.827-1.387-10.774-5.6-11.84-12.64l-2.56-17.12c-2.347 10.133-5.814 17.707-10.4 22.72-4.587 5.013-10.507 7.52-17.76 7.52-9.387 0-16.64-3.68-21.76-11.04-5.12-7.36-7.68-18.187-7.68-32.48 0-13.12 2.72-23.68 8.16-31.68 5.546-8 13.173-12 22.88-12Zm.48 7.68c-6.614 0-11.894 3.147-15.84 9.44-3.947 6.293-5.92 15.147-5.92 26.56 0 12.053 1.76 21.067 5.28 27.04 3.52 5.867 8.533 8.8 15.04 8.8 5.76 0 10.773-2.72 15.04-8.16 4.373-5.44 7.84-15.04 10.4-28.8-1.707-9.067-3.68-16.107-5.92-21.12-2.134-5.013-4.64-8.533-7.52-10.56-2.88-2.133-6.4-3.2-10.56-3.2Zm107.222-7.2c9.174 12.053 18.027 37.76 26.56 77.12l25.76-77.12 9.12 2.08-29.76 82.88h-11.04c-5.44-22.827-10.453-40.587-15.04-53.28-4.586-12.693-9.44-22.187-14.56-28.48l8.96-3.2Zm104.024-.48c9.707 0 18.293 2.507 25.76 7.52l-4.64 5.92c-2.987-1.92-6.08-3.36-9.28-4.32-3.2-.96-6.88-1.44-11.04-1.44-6.08 0-10.827 1.333-14.24 4-3.307 2.667-4.96 6.347-4.96 11.04 0 4.48 1.76 8.16 5.28 11.04 3.627 2.773 8.427 4.16 14.4 4.16h9.6L469.7 297h-8.96c-7.573 0-13.173 1.387-16.8 4.16-3.52 2.773-5.28 7.093-5.28 12.96 0 5.227 1.92 9.333 5.76 12.32s9.067 4.48 15.68 4.48c5.013 0 9.28-.64 12.8-1.92 3.52-1.387 7.147-3.467 10.88-6.24l4.64 5.92c-8.107 6.72-17.707 10.08-28.8 10.08-9.173 0-16.64-2.133-22.4-6.4-5.653-4.373-8.48-10.4-8.48-18.08 0-6.613 1.867-11.68 5.6-15.2 3.84-3.52 9.013-5.653 15.52-6.4-11.84-2.56-17.76-8.853-17.76-18.88 0-6.827 2.56-12.213 7.68-16.16 5.227-4.053 12-6.08 20.32-6.08Zm-3.68-37.92 10.24.64-3.68 26.88h-6.56v-27.52Zm72.891 37.92c7.467 0 13.334 2.293 17.6 6.88 4.374 4.587 7.627 12.587 9.76 24l5.92-29.12h8.96l-9.44 41.76 4.8 27.2c.427 2.347 1.174 4.107 2.24 5.28 1.067 1.173 2.56 2.133 4.48 2.88l-3.36 7.84c-6.826-1.387-10.773-5.6-11.84-12.64l-2.56-17.12c-2.346 10.133-5.813 17.707-10.4 22.72-4.586 5.013-10.506 7.52-17.76 7.52-9.386 0-16.64-3.68-21.76-11.04-5.12-7.36-7.68-18.187-7.68-32.48 0-13.12 2.72-23.68 8.16-31.68 5.547-8 13.174-12 22.88-12Zm.48 7.68c-6.613 0-11.893 3.147-15.84 9.44-3.946 6.293-5.92 15.147-5.92 26.56 0 12.053 1.76 21.067 5.28 27.04 3.52 5.867 8.534 8.8 15.04 8.8 5.76 0 10.774-2.72 15.04-8.16 4.374-5.44 7.84-15.04 10.4-28.8-1.706-9.067-3.68-16.107-5.92-21.12-2.133-5.013-4.64-8.533-7.52-10.56-2.88-2.133-6.4-3.2-10.56-3.2Zm136.023 33.44 29.92 31.52c1.92 2.027 3.626 3.627 5.12 4.8 1.493 1.067 3.2 1.92 5.12 2.56l-2.88 7.04c-2.774-.32-5.12-1.173-7.04-2.56s-4.32-3.627-7.2-6.72L654.934 293l39.52-41.44 7.04 4-35.68 37.12Zm-16.32-40.64c1.386 3.733 2.453 7.787 3.2 12.16.853 4.267 1.28 10.187 1.28 17.76V337h-9.28v-56.8c0-5.76-.374-10.72-1.12-14.88a91.44 91.44 0 0 0-2.72-12.16l8.64-1.12Zm97.786-.48c7.467 0 13.333 2.293 17.6 6.88 4.373 4.587 7.627 12.587 9.76 24l5.92-29.12h8.96l-9.44 41.76 4.8 27.2c.427 2.347 1.173 4.107 2.24 5.28 1.067 1.173 2.56 2.133 4.48 2.88l-3.36 7.84c-6.827-1.387-10.773-5.6-11.84-12.64l-2.56-17.12c-2.347 10.133-5.813 17.707-10.4 22.72-4.587 5.013-10.507 7.52-17.76 7.52-9.387 0-16.64-3.68-21.76-11.04-5.12-7.36-7.68-18.187-7.68-32.48 0-13.12 2.72-23.68 8.16-31.68 5.547-8 13.173-12 22.88-12Zm.48 7.68c-6.613 0-11.893 3.147-15.84 9.44-3.947 6.293-5.92 15.147-5.92 26.56 0 12.053 1.76 21.067 5.28 27.04 3.52 5.867 8.533 8.8 15.04 8.8 5.76 0 10.773-2.72 15.04-8.16 4.373-5.44 7.84-15.04 10.4-28.8-1.707-9.067-3.68-16.107-5.92-21.12-2.133-5.013-4.64-8.533-7.52-10.56-2.88-2.133-6.4-3.2-10.56-3.2Zm77.118 57.92c0 4.16.533 7.253 1.6 9.28 1.173 1.92 3.146 3.467 5.92 4.64l-2.88 7.2c-5.12-1.493-8.747-3.733-10.88-6.72-2.027-3.093-3.04-7.627-3.04-13.6v-64.64h9.28v63.84Z"/></g><defs><clipPath id="a"><path fill="#fff" d="M0 0h1920v1080H0z"/></clipPath></defs></svg>