<svg xmlns="http://www.w3.org/2000/svg" width="1920" height="1080" fill="none"><path fill="#FF6D7F" d="M63.168 748c-.057-.71-.324-1.264-.8-1.662-.468-.398-1.182-.597-2.14-.597-.611 0-1.112.075-1.503.224-.383.142-.668.338-.852.586a1.45 1.45 0 0 0-.288.852 1.4 1.4 0 0 0 .139.714c.113.206.29.394.532.565a4.2 4.2 0 0 0 .927.447c.377.135.824.256 1.343.362l1.79.384c1.207.256 2.24.593 3.1 1.012.859.419 1.562.913 2.109 1.481a5.283 5.283 0 0 1 1.204 1.896c.263.703.397 1.47.404 2.301-.007 1.435-.365 2.649-1.075 3.644-.71.994-1.726 1.751-3.047 2.269-1.314.518-2.894.778-4.741.778-1.896 0-3.551-.281-4.965-.842-1.406-.561-2.5-1.424-3.28-2.589-.775-1.172-1.166-2.67-1.173-4.495h5.625c.036.667.203 1.228.501 1.683.298.454.717.799 1.257 1.033.547.235 1.197.352 1.95.352.632 0 1.16-.078 1.587-.235.426-.156.75-.373.97-.65.22-.276.333-.593.34-.948a1.345 1.345 0 0 0-.33-.873c-.206-.256-.547-.483-1.023-.682-.475-.206-1.118-.398-1.928-.575l-2.173-.469c-1.932-.419-3.455-1.119-4.57-2.099-1.108-.987-1.659-2.333-1.652-4.037-.007-1.385.363-2.596 1.108-3.633.753-1.044 1.793-1.858 3.122-2.44 1.335-.582 2.865-.873 4.591-.873 1.762 0 3.285.294 4.57.884 1.286.589 2.277 1.42 2.973 2.493.703 1.065 1.058 2.311 1.065 3.739h-5.667Zm14.185 5.795V763h-5.881v-21.818h5.668v8.565h.17c.37-1.044.984-1.857 1.843-2.439.86-.59 1.893-.885 3.1-.885 1.158 0 2.163.263 3.015.789a5.306 5.306 0 0 1 1.992 2.173c.476.923.71 1.981.703 3.175V763h-5.88v-9.205c.007-.809-.196-1.445-.608-1.907-.404-.461-.983-.692-1.736-.692-.476 0-.895.107-1.257.32a2.113 2.113 0 0 0-.831.895c-.192.383-.291.845-.298 1.384ZM90.867 763v-16.364h5.88V763h-5.88Zm2.94-18.068c-.796 0-1.478-.263-2.046-.789-.568-.525-.852-1.157-.852-1.896 0-.738.284-1.371.852-1.896.569-.526 1.25-.789 2.046-.789.802 0 1.484.263 2.045.789.569.525.852 1.158.852 1.896 0 .739-.283 1.371-.852 1.896-.56.526-1.243.789-2.045.789Zm5.936 24.204v-22.5h5.838v2.855h.128a4.94 4.94 0 0 1 .938-1.523 4.461 4.461 0 0 1 1.534-1.119c.611-.284 1.321-.426 2.131-.426 1.079 0 2.105.288 3.078.863.981.576 1.776 1.481 2.387 2.717.618 1.236.927 2.841.927 4.815 0 1.889-.295 3.455-.885 4.698-.582 1.243-1.363 2.17-2.343 2.781a5.912 5.912 0 0 1-3.207.916c-.767 0-1.452-.124-2.056-.373a4.733 4.733 0 0 1-1.534-1.033 4.803 4.803 0 0 1-.97-1.492h-.085v8.821h-5.88Zm5.753-14.318c0 .796.103 1.485.309 2.067.213.575.512 1.023.895 1.342.391.313.856.469 1.396.469.539 0 .998-.153 1.374-.458.384-.313.675-.756.874-1.332.206-.582.309-1.278.309-2.088 0-.809-.103-1.502-.309-2.077-.199-.583-.49-1.027-.874-1.332-.376-.312-.835-.469-1.374-.469-.54 0-1.005.157-1.396.469-.383.305-.682.749-.895 1.332-.206.575-.309 1.268-.309 2.077Zm13.671 14.318v-22.5h5.838v2.855h.128a4.94 4.94 0 0 1 .938-1.523 4.461 4.461 0 0 1 1.534-1.119c.611-.284 1.321-.426 2.13-.426 1.08 0 2.106.288 3.079.863.98.576 1.776 1.481 2.387 2.717.618 1.236.926 2.841.926 4.815 0 1.889-.294 3.455-.884 4.698-.582 1.243-1.363 2.17-2.343 2.781a5.914 5.914 0 0 1-3.207.916c-.767 0-1.453-.124-2.056-.373a4.733 4.733 0 0 1-1.534-1.033 4.785 4.785 0 0 1-.97-1.492h-.085v8.821h-5.881Zm5.753-14.318c0 .796.103 1.485.309 2.067.213.575.511 1.023.895 1.342.391.313.856.469 1.396.469.539 0 .997-.153 1.374-.458.383-.313.675-.756.873-1.332.206-.582.309-1.278.309-2.088 0-.809-.103-1.502-.309-2.077-.198-.583-.49-1.027-.873-1.332-.377-.312-.835-.469-1.374-.469-.54 0-1.005.157-1.396.469-.384.305-.682.749-.895 1.332-.206.575-.309 1.268-.309 2.077Zm21.555 8.48c-1.776 0-3.296-.351-4.56-1.054a7.256 7.256 0 0 1-2.908-2.962c-.675-1.271-1.013-2.745-1.013-4.421 0-1.676.338-3.147 1.013-4.411a7.164 7.164 0 0 1 2.908-2.961c1.264-.711 2.784-1.066 4.56-1.066 1.775 0 3.295.355 4.559 1.066a7.173 7.173 0 0 1 2.909 2.961c.674 1.264 1.012 2.735 1.012 4.411 0 1.676-.338 3.15-1.012 4.421a7.264 7.264 0 0 1-2.909 2.962c-1.264.703-2.784 1.054-4.559 1.054Zm.042-4.346c.497 0 .927-.167 1.289-.501.363-.334.643-.81.842-1.428.199-.617.298-1.353.298-2.205 0-.859-.099-1.594-.298-2.205-.199-.618-.479-1.094-.842-1.428a1.84 1.84 0 0 0-1.289-.5c-.525 0-.976.167-1.353.5-.376.334-.664.81-.863 1.428-.199.611-.298 1.346-.298 2.205 0 .852.099 1.588.298 2.205.199.618.487 1.094.863 1.428.377.334.828.501 1.353.501ZM157.341 763v-16.364h5.71v3.111h.171c.298-1.15.77-1.992 1.417-2.525.653-.532 1.417-.799 2.29-.799.256 0 .508.022.757.064.255.036.5.089.735.16v5.018c-.292-.1-.65-.174-1.076-.224a9.62 9.62 0 0 0-1.098-.075c-.575 0-1.093.132-1.555.395a2.775 2.775 0 0 0-1.076 1.086c-.263.462-.394 1.005-.394 1.63V763h-5.881Zm13.008 0v-16.364h5.881V763h-5.881Zm2.94-18.068c-.795 0-1.477-.263-2.045-.789-.568-.525-.852-1.157-.852-1.896 0-.738.284-1.371.852-1.896.568-.526 1.25-.789 2.045-.789.803 0 1.485.263 2.046.789.568.525.852 1.158.852 1.896 0 .739-.284 1.371-.852 1.896-.561.526-1.243.789-2.046.789Zm11.828-3.75h7.372l5.071 12.358h.256l5.071-12.358h7.372V763h-5.795v-12.614h-.171l-4.858 12.444h-3.494l-4.858-12.529h-.17V763h-5.796v-21.818ZM213.152 763v-16.364h5.88V763h-5.88Zm2.94-18.068c-.795 0-1.477-.263-2.045-.789-.569-.525-.853-1.157-.853-1.896 0-.738.284-1.371.853-1.896.568-.526 1.25-.789 2.045-.789.803 0 1.484.263 2.045.789.569.525.853 1.158.853 1.896 0 .739-.284 1.371-.853 1.896-.561.526-1.242.789-2.045.789Zm11.817 8.863V763h-5.88v-16.364h5.582v3.111h.17c.356-1.037.981-1.85 1.875-2.439.902-.59 1.954-.885 3.154-.885 1.158 0 2.162.267 3.015.799a5.313 5.313 0 0 1 1.992 2.174c.476.923.71 1.978.703 3.164V763h-5.881v-9.205c.007-.809-.198-1.445-.618-1.907-.411-.461-.987-.692-1.725-.692-.483 0-.906.107-1.268.32a2.043 2.043 0 0 0-.82.895c-.192.383-.292.845-.299 1.384Zm21.398 9.503c-1.776 0-3.296-.351-4.56-1.054a7.256 7.256 0 0 1-2.908-2.962c-.675-1.271-1.012-2.745-1.012-4.421 0-1.676.337-3.147 1.012-4.411a7.164 7.164 0 0 1 2.908-2.961c1.264-.711 2.784-1.066 4.56-1.066 1.605 0 2.993.291 4.165.874 1.179.575 2.092 1.392 2.738 2.45.646 1.051.973 2.287.98 3.708h-5.454c-.079-.86-.327-1.513-.746-1.961-.412-.454-.945-.682-1.598-.682-.511 0-.959.15-1.342.448-.384.291-.682.735-.895 1.332-.213.589-.32 1.331-.32 2.226s.107 1.641.32 2.237c.213.59.511 1.034.895 1.332.383.291.831.437 1.342.437.433 0 .817-.1 1.15-.298.334-.206.604-.505.81-.895.213-.398.341-.881.384-1.449h5.454c-.021 1.442-.351 2.699-.991 3.771-.639 1.065-1.544 1.889-2.716 2.472-1.165.582-2.557.873-4.176.873Zm16.19-9.503V763h-5.881v-21.818h5.668v8.565h.171c.369-1.044.983-1.857 1.843-2.439.859-.59 1.892-.885 3.1-.885 1.157 0 2.162.263 3.015.789a5.31 5.31 0 0 1 1.992 2.173c.476.923.71 1.981.703 3.175V763h-5.881v-9.205c.007-.809-.195-1.445-.607-1.907-.405-.461-.984-.692-1.736-.692-.476 0-.895.107-1.258.32a2.114 2.114 0 0 0-.831.895c-.191.383-.291.845-.298 1.384Zm21.398 9.503c-1.776 0-3.296-.351-4.56-1.054a7.264 7.264 0 0 1-2.909-2.962c-.674-1.271-1.012-2.745-1.012-4.421 0-1.676.338-3.147 1.012-4.411a7.173 7.173 0 0 1 2.909-2.961c1.264-.711 2.784-1.066 4.56-1.066 1.775 0 3.295.355 4.559 1.066a7.173 7.173 0 0 1 2.909 2.961c.674 1.264 1.012 2.735 1.012 4.411 0 1.676-.338 3.15-1.012 4.421a7.264 7.264 0 0 1-2.909 2.962c-1.264.703-2.784 1.054-4.559 1.054Zm.042-4.346c.497 0 .927-.167 1.289-.501.362-.334.643-.81.842-1.428.199-.617.298-1.353.298-2.205 0-.859-.099-1.594-.298-2.205-.199-.618-.48-1.094-.842-1.428a1.84 1.84 0 0 0-1.289-.5c-.525 0-.976.167-1.353.5-.376.334-.664.81-.863 1.428-.199.611-.298 1.346-.298 2.205 0 .852.099 1.588.298 2.205.199.618.487 1.094.863 1.428.377.334.828.501 1.353.501ZM51.492 339v-3.281l10.312-13.764h-10.27v-4.773h17.813v3.281l-10.313 13.764h10.27V339H51.491Zm28.67.298c-1.747 0-3.252-.334-4.517-1.001a7.02 7.02 0 0 1-2.908-2.898c-.675-1.264-1.012-2.777-1.012-4.538 0-1.691.34-3.168 1.023-4.432a7.31 7.31 0 0 1 2.887-2.951c1.243-.703 2.71-1.055 4.4-1.055 1.235 0 2.354.192 3.355.576a7.028 7.028 0 0 1 2.568 1.672c.71.725 1.257 1.605 1.64 2.642.384 1.037.576 2.205.576 3.505v1.364H73.557v-3.239h9.205a2.256 2.256 0 0 0-.362-1.236 2.308 2.308 0 0 0-.927-.841 2.725 2.725 0 0 0-1.31-.309c-.476 0-.913.103-1.31.309a2.478 2.478 0 0 0-.96.831 2.34 2.34 0 0 0-.373 1.246v3.495c0 .525.11.994.33 1.406.22.412.537.735.949.969.412.235.909.352 1.491.352.405 0 .774-.057 1.108-.171.341-.113.632-.277.874-.49.241-.22.419-.483.532-.788h5.37c-.185 1.136-.622 2.123-1.31 2.962-.69.831-1.602 1.477-2.739 1.938-1.129.455-2.45.682-3.963.682Zm16.292-9.503V339h-5.88v-16.364h5.582v3.111h.17c.356-1.037.98-1.85 1.875-2.439.902-.59 1.953-.885 3.154-.885 1.157 0 2.162.267 3.015.799a5.313 5.313 0 0 1 1.992 2.174c.476.923.71 1.978.703 3.164V339h-5.881v-9.205c.007-.809-.199-1.445-.618-1.907-.412-.461-.987-.692-1.725-.692-.483 0-.906.107-1.268.32a2.047 2.047 0 0 0-.82.895c-.192.383-.292.845-.299 1.384Zm40.542-1.704c0 2.429-.473 4.478-1.417 6.147-.945 1.662-2.22 2.923-3.825 3.782-1.605.852-3.395 1.278-5.369 1.278-1.989 0-3.786-.429-5.391-1.289-1.598-.866-2.869-2.13-3.814-3.792-.937-1.669-1.406-3.711-1.406-6.126 0-2.429.469-4.475 1.406-6.136.945-1.669 2.216-2.93 3.814-3.782 1.605-.86 3.402-1.289 5.391-1.289 1.974 0 3.764.429 5.369 1.289 1.605.852 2.88 2.113 3.825 3.782.944 1.661 1.417 3.707 1.417 6.136Zm-6.094 0c0-1.307-.174-2.408-.522-3.303-.341-.902-.849-1.583-1.523-2.045-.668-.469-1.492-.703-2.472-.703s-1.808.234-2.482.703c-.668.462-1.176 1.143-1.524 2.045-.341.895-.511 1.996-.511 3.303s.17 2.411.511 3.313c.348.895.856 1.577 1.524 2.046.674.461 1.502.692 2.482.692.98 0 1.804-.231 2.472-.692.674-.469 1.182-1.151 1.523-2.046.348-.902.522-2.006.522-3.313Zm14.8-10.909V339h-5.88v-21.818h5.88Zm8.92 22.031a5.968 5.968 0 0 1-3.218-.916c-.973-.611-1.754-1.538-2.343-2.781-.583-1.243-.874-2.809-.874-4.698 0-1.974.306-3.579.916-4.815.618-1.236 1.414-2.141 2.387-2.717.98-.575 2.01-.863 3.089-.863.81 0 1.52.142 2.131.426.611.277 1.122.65 1.534 1.119.412.462.724.969.937 1.523h.086v-8.309h5.88V339h-5.838v-2.685h-.128a4.694 4.694 0 0 1-.98 1.492c-.419.433-.93.778-1.534 1.033-.596.249-1.278.373-2.045.373Zm2.173-4.517c.54 0 1.002-.156 1.385-.469.391-.319.689-.767.895-1.342.213-.582.32-1.271.32-2.067 0-.809-.107-1.502-.32-2.077-.206-.583-.504-1.027-.895-1.332-.383-.312-.845-.469-1.385-.469s-1.001.157-1.385.469c-.376.305-.667.749-.873 1.332-.199.575-.299 1.268-.299 2.077 0 .81.1 1.506.299 2.088.206.576.497 1.019.873 1.332.384.305.845.458 1.385.458Zm17.131-17.514h7.372l5.071 12.358h.256l5.071-12.358h7.372V339h-5.796v-12.614h-.17l-4.858 12.444h-3.494l-4.858-12.529h-.171V339h-5.795v-21.818ZM201.96 339v-16.364h5.881V339h-5.881Zm2.941-18.068c-.796 0-1.478-.263-2.046-.789-.568-.525-.852-1.157-.852-1.896 0-.738.284-1.371.852-1.896.568-.526 1.25-.789 2.046-.789.802 0 1.484.263 2.045.789.568.525.852 1.158.852 1.896 0 .739-.284 1.371-.852 1.896-.561.526-1.243.789-2.045.789Zm11.817 8.863V339h-5.881v-16.364h5.583v3.111h.17c.355-1.037.98-1.85 1.875-2.439.902-.59 1.953-.885 3.153-.885 1.158 0 2.163.267 3.015.799a5.308 5.308 0 0 1 1.993 2.174c.475.923.71 1.978.703 3.164V339h-5.881v-9.205c.007-.809-.199-1.445-.618-1.907-.412-.461-.987-.692-1.726-.692-.483 0-.905.107-1.268.32a2.049 2.049 0 0 0-.82.895c-.192.383-.291.845-.298 1.384Zm21.397 9.503c-1.775 0-3.295-.351-4.559-1.054a7.258 7.258 0 0 1-2.909-2.962c-.675-1.271-1.012-2.745-1.012-4.421 0-1.676.337-3.147 1.012-4.411a7.167 7.167 0 0 1 2.909-2.961c1.264-.711 2.784-1.066 4.559-1.066 1.605 0 2.994.291 4.166.874 1.179.575 2.091 1.392 2.738 2.45.646 1.051.973 2.287.98 3.708h-5.455c-.078-.86-.326-1.513-.746-1.961-.411-.454-.944-.682-1.598-.682-.511 0-.958.15-1.342.448-.383.291-.682.735-.895 1.332-.213.589-.319 1.331-.319 2.226s.106 1.641.319 2.237c.213.59.512 1.034.895 1.332a2.16 2.16 0 0 0 1.342.437c.434 0 .817-.1 1.151-.298.334-.206.604-.505.81-.895.213-.398.341-.881.383-1.449h5.455c-.022 1.442-.352 2.699-.991 3.771-.639 1.065-1.545 1.889-2.717 2.472-1.164.582-2.556.873-4.176.873Zm16.191-9.503V339h-5.881v-21.818h5.668v8.565h.17c.369-1.044.984-1.857 1.843-2.439.86-.59 1.893-.885 3.1-.885 1.158 0 2.163.263 3.015.789a5.296 5.296 0 0 1 1.992 2.173c.476.923.711 1.981.704 3.175V339h-5.881v-9.205c.007-.809-.195-1.445-.607-1.907-.405-.461-.984-.692-1.737-.692-.476 0-.895.107-1.257.32a2.114 2.114 0 0 0-.831.895c-.192.383-.291.845-.298 1.384Zm21.397 9.503c-1.775 0-3.295-.351-4.56-1.054a7.262 7.262 0 0 1-2.908-2.962c-.675-1.271-1.012-2.745-1.012-4.421 0-1.676.337-3.147 1.012-4.411a7.17 7.17 0 0 1 2.908-2.961c1.265-.711 2.785-1.066 4.56-1.066 1.776 0 3.296.355 4.56 1.066a7.17 7.17 0 0 1 2.908 2.961c.675 1.264 1.012 2.735 1.012 4.411 0 1.676-.337 3.15-1.012 4.421a7.262 7.262 0 0 1-2.908 2.962c-1.264.703-2.784 1.054-4.56 1.054Zm.043-4.346c.497 0 .927-.167 1.289-.501.362-.334.643-.81.841-1.428.199-.617.299-1.353.299-2.205 0-.859-.1-1.594-.299-2.205-.198-.618-.479-1.094-.841-1.428a1.84 1.84 0 0 0-1.289-.5c-.526 0-.977.167-1.353.5-.377.334-.664.81-.863 1.428-.199.611-.298 1.346-.298 2.205 0 .852.099 1.588.298 2.205.199.618.486 1.094.863 1.428.376.334.827.501 1.353.501Z"/><path fill="#1A73E8" d="M655.5 434.75c-16.833 1.5-31.667.333-44.5-3.5-12.833-4-22.833-11.083-30-21.25-7.167-10.167-10.75-23.917-10.75-41.25 0-20 3.917-37.083 11.75-51.25 8-14.167 17.833-25.667 29.5-34.5-10.333 1.833-20.75 4.25-31.25 7.25-10.333 3-21.5 6.917-33.5 11.75-3.167 1.167-6.583 2.75-10.25 4.75-3.667 1.833-7.167 2.75-10.5 2.75-5 0-9.167-1.583-12.5-4.75-3.167-3.167-5.583-6.917-7.25-11.25-1.5-4.5-2.5-8.583-3-12.25 1.167-2.333 2.833-2.917 5-1.75 1.333 3.167 3.333 5.5 6 7 2.833 1.5 6.75 2.25 11.75 2.25 4.333 0 10.333-.667 18-2 7.667-1.5 16.417-3.333 26.25-5.5 10-2.333 20.583-4.75 31.75-7.25 11.333-2.5 22.75-4.833 34.25-7 11.5-2.333 22.583-4.25 33.25-5.75 3.333-.5 5.833-.75 7.5-.75 1.833 0 3.583.667 5.25 2 4.167 3 6.833 6.083 8 9.25 1.333 3.167 1.25 5.667-.25 7.5-1.5 1.833-4.333 2.5-8.5 2-6.167-.833-13-1.5-20.5-2a97.168 97.168 0 0 0-22 .5c-7.333 1-14 3.583-20 7.75-13.167 8.667-22.167 19.833-27 33.5-4.667 13.667-6.833 29.5-6.5 47.5.333 17.5 6.083 30.167 17.25 38 11.333 7.833 27.167 10.667 47.5 8.5 1.833-.333 3.25-.417 4.25-.25 1 .167 2.167.833 3.5 2 6.333 5.167 8.833 9.333 7.5 12.5-1.333 3.167-4.667 5-10 5.5Zm13.25-83c-1.5 0-3-.417-4.5-1.25-1.333-1-2.333-2.917-3-5.75A98.212 98.212 0 0 0 655 326.5c-2.667-6-6.667-11.333-12-16-.333-2.667.75-4 3.25-4 5 1.833 9.667 4.5 14 8 4.5 3.333 8.167 7.083 11 11.25 3 4.167 4.75 8.5 5.25 13 .333 3.833-.417 7-2.25 9.5-1.833 2.333-3.667 3.5-5.5 3.5Zm30.5-15.25c-1.5.167-3-.083-4.5-.75s-2.917-2.333-4.25-5c-2.667-5.833-5.833-11.25-9.5-16.25s-8.75-9.583-15.25-13.75c-.667-2.5.167-4 2.5-4.5 4.833 1.167 9.833 3 15 5.5s9.75 5.5 13.75 9 6.5 7.333 7.5 11.5c1 3.667.833 6.917-.5 9.75-1.333 2.667-2.917 4.167-4.75 4.5ZM881.5 442.5c-22.667 0-32.75-11.417-30.25-34.25.5-3.667.917-7.833 1.25-12.5.5-4.667 1-9.25 1.5-13.75s.833-8.333 1-11.5c.333-4.833 0-9.417-1-13.75-.833-4.5-3-8.083-6.5-10.75-3.5-2.833-9.083-4.25-16.75-4.25-6.333 0-13.083 1.667-20.25 5s-13.75 8.167-19.75 14.5c-5.833 6.167-10.25 13.833-13.25 23-2.667 8.167-4.667 15.833-6 23a339.762 339.762 0 0 0-3.25 21c-.333 4.333-2.167 7-5.5 8-3.333.833-6.167.417-8.5-1.25-2.167-1.833-3.75-3.667-4.75-5.5-.833-2-.917-4.917-.25-8.75 2.5-12.167 6.5-25.083 12-38.75a537.263 537.263 0 0 1 19-41.25c7.167-13.667 14.417-26.5 21.75-38.5s13.917-22.25 19.75-30.75c3-4.5 4.583-8.833 4.75-13 .167-4.167-1.417-8-4.75-11.5 0-2.667 1.167-4 3.5-4 3.833 1.833 7.5 4.333 11 7.5s6.167 6.417 8 9.75c4.167 6.833 3 12.083-3.5 15.75-3.333 1.833-7.083 5.083-11.25 9.75-4 4.5-8.167 9.75-12.5 15.75-4.167 6-8.25 12.25-12.25 18.75a602.819 602.819 0 0 0-10.5 18.5c-3.167 5.667-5.667 10.417-7.5 14.25 3.333-4 7.5-7.583 12.5-10.75 5.167-3.333 10.583-6 16.25-8 5.833-2 11.25-3 16.25-3 15.333 0 26.083 3.75 32.25 11.25 6.333 7.5 9.083 17.167 8.25 29-.5 5.667-1 11.417-1.5 17.25s-1.083 12.083-1.75 18.75c-.5 6.667.667 11.25 3.5 13.75 2.833 2.333 6.333 3.5 10.5 3.5 7.667 0 14.5-1.5 20.5-4.5 6.167-3 11.417-6.5 15.75-10.5 4.5-4.167 8-7.917 10.5-11.25 2.5-3.5 4-5.667 4.5-6.5 3.333-.5 5.25.667 5.75 3.5-.667 1.5-2.083 4.083-4.25 7.75-2.167 3.5-5.083 7.5-8.75 12-3.5 4.333-7.583 8.583-12.25 12.75a64.187 64.187 0 0 1-15.5 10.25c-5.5 2.833-11.417 4.25-17.75 4.25ZM1066 436.25c-13.33 0-25.08-1.083-35.25-3.25-10.17-2.167-18.08-6-23.75-11.5-5.5-5.667-8.25-13.667-8.25-24 0-8.5 2.5-16.167 7.5-23 5-6.833 11.5-12.917 19.5-18.25 8.17-5.5 16.67-10.25 25.5-14.25-3.17-2.833-5.58-6.833-7.25-12-1.5-5.333-2.25-12.583-2.25-21.75 0-3.167.08-7.5.25-13 .33-5.5.58-11.167.75-17 .33-5.833.58-10.75.75-14.75.17-3 .08-5.333-.25-7-.33-1.667-1.33-3-3-4-.83-.5-1.92-.75-3.25-.75-1.17-.167-2.25-.25-3.25-.25h-.75c-.67-.833-1.08-1.667-1.25-2.5 0-1 .33-1.833 1-2.5 3-.833 6.42-1.167 10.25-1 3.83 0 7.08.25 9.75.75 6.33 1.167 10.58 3.5 12.75 7 2.33 3.5 2.25 6.917-.25 10.25-3.33 4.167-5.75 10.25-7.25 18.25-1.33 7.833-2 16.417-2 25.75 0 7.333.33 13.583 1 18.75.67 5 2.08 8.833 4.25 11.5 6.5-2.667 12.75-5 18.75-7s11.17-3.75 15.5-5.25c3.67-1.333 6.75-2 9.25-2s5.25 1.417 8.25 4.25c3.67 3.167 5 6.167 4 9-.83 2.833-3.67 4.667-8.5 5.5-7.17 1.167-15.08 2.833-23.75 5-8.5 2-17.08 4.583-25.75 7.75-8.5 3-16.33 6.583-23.5 10.75-7.17 4.167-12.92 8.833-17.25 14-4.33 5-6.5 10.667-6.5 17 0 6.5 2.17 11.417 6.5 14.75 4.33 3.167 10.58 5.333 18.75 6.5 8.17 1 17.92 1.5 29.25 1.5 5.5 0 11.67-.333 18.5-1 7-.833 13.67-1.75 20-2.75 6.33-1.167 11.33-2.25 15-3.25 2.33-.667 4.5-.417 6.5.75 7.67 4.167 11.08 8.083 10.25 11.75-.83 3.5-4.17 5.917-10 7.25-2.83.667-6.83 1.25-12 1.75s-10.75.917-16.75 1.25c-6 .333-11.83.583-17.5.75-5.67.167-10.42.25-14.25.25ZM1226 447.5c-2.5-2-2.92-4.167-1.25-6.5 10.5-3 20.42-6.667 29.75-11 9.5-4.333 17.83-9.667 25-16 7.17-6.5 12.75-14.25 16.75-23.25 4.17-9 6.25-19.667 6.25-32 0-15.5-1.83-27.333-5.5-35.5-3.5-8.167-9.25-12.25-17.25-12.25-4.5 0-8.92 1.583-13.25 4.75s-8.67 6.917-13 11.25c-4.17 4.167-8.33 7.833-12.5 11-4 3.167-8.08 4.75-12.25 4.75-4.67 0-8.25-1.167-10.75-3.5-2.33-2.5-3.92-5.5-4.75-9-.67-3-.75-6.167-.25-9.5.67-3.5 1.67-6.583 3-9.25.83-.667 1.75-.833 2.75-.5 1 .333 1.75.917 2.25 1.75-.67 2.667-.08 5.167 1.75 7.5 1.83 2.167 4.08 3.25 6.75 3.25 3.33 0 6.92-1.083 10.75-3.25 3.83-2.333 7.83-5 12-8 4.17-3.167 8.5-5.833 13-8 4.67-2.333 9.5-3.5 14.5-3.5 15.17 0 25.92 5.167 32.25 15.5 6.33 10.167 9.5 24.417 9.5 42.75 0 12.333-2.17 23.167-6.5 32.5-4.17 9.167-9.83 17.083-17 23.75-7 6.5-14.75 11.917-23.25 16.25s-17 7.75-25.5 10.25c-8.5 2.667-16.25 4.583-23.25 5.75Zm25.25-161.75c-1-.333-1.75-.917-2.25-1.75s-.67-1.667-.5-2.5c2.17-1.667 4.92-3.583 8.25-5.75 3.33-2.333 6.33-4.083 9-5.25-6.83-.667-12.42-2.583-16.75-5.75-4.17-3.167-7.33-7.083-9.5-11.75s-3.58-9.583-4.25-14.75c.5-.833 1.25-1.333 2.25-1.5 1-.333 1.92-.167 2.75.5 1.83 6.167 6.08 10.917 12.75 14.25 6.83 3.333 14.83 4.667 24 4 4.83-.333 8.33.25 10.5 1.75s4.08 3.75 5.75 6.75c2.17 3.333 2.83 6.167 2 8.5-.67 2.167-2.17 3.083-4.5 2.75-7.83-1-14.83-.333-21 2-6 2.333-11.58 4.833-16.75 7.5-.83.5-1.42.833-1.75 1ZM1447.25 455.25c-2.33-1.167-2.83-2.833-1.5-5 14.5-6.333 26.42-13.5 35.75-21.5 9.5-8 16.92-17.333 22.25-28 5.5-10.833 9.33-23.333 11.5-37.5 2.33-14.167 3.5-30.5 3.5-49 0-24.167-.25-42.333-.75-54.5-.33-12.333-1.25-20.083-2.75-23.25-.33-1.167-.17-2.083.5-2.75.67-.667 1.58-.75 2.75-.25 1.17.667 3 1.667 5.5 3 2.67 1.333 5.33 2.75 8 4.25 2.67 1.333 4.83 2.5 6.5 3.5h45.75c1.17 0 2.08-.333 2.75-1 .83-1.167 2.08-2.583 3.75-4.25 1.67-1.833 3-3.25 4-4.25 1.17-1.167 2.58-1.167 4.25 0 1.17.667 2.83 1.917 5 3.75a180.21 180.21 0 0 1 6.5 5.25c2.33 1.667 3.92 2.917 4.75 3.75 2.17 1.833 1.75 3.417-1.25 4.75a101.55 101.55 0 0 1-4.25 2c-1.5.667-2.92 1.333-4.25 2-.67.333-1.17.75-1.5 1.25-.33.5-.5 1.583-.5 3.25v60c0 12 .08 23.667.25 35 .33 11.333.58 21.667.75 31 .17 9.167.33 16.833.5 23 .17 6 .25 9.75.25 11.25 0 6.333-1.75 12.5-5.25 18.5s-10.42 10.583-20.75 13.75c-3.17-8.5-7.17-14.417-12-17.75s-11.42-5.583-19.75-6.75c-.67-.833-.92-1.75-.75-2.75.33-1 .92-1.75 1.75-2.25 2.33.167 6.42.583 12.25 1.25 6 .5 12.5.75 19.5.75 2.67 0 4.5-.5 5.5-1.5s1.5-2.5 1.5-4.5V363.5H1532c-2.67 15.333-6.92 28.25-12.75 38.75s-12.67 19.167-20.5 26c-7.83 6.667-16.17 12.083-25 16.25-8.83 4.333-17.67 7.917-26.5 10.75Zm-34.5-56.75c-3 0-4.5-1.417-4.5-4.25v-8.75c.17-5.5.33-12.5.5-21 .33-8.5.58-17.75.75-27.75.17-10.167.25-20.333.25-30.5.17-10.167.25-19.5.25-28 0-8-.17-14.167-.5-18.5-.17-4.5-.42-7.917-.75-10.25s-.83-4.25-1.5-5.75v-.25c-.33-1-.17-1.75.5-2.25.83-.833 1.75-.917 2.75-.25 1.83 1 4.67 2.583 8.5 4.75s6.92 3.917 9.25 5.25h36.25c1.5 0 2.5-.333 3-1 .83-1 2-2.5 3.5-4.5 1.67-2 3-3.583 4-4.75 1.17-1.667 2.75-1.75 4.75-.25 1.17.667 2.83 1.917 5 3.75a250.03 250.03 0 0 1 6.75 5.5c2.33 1.833 4 3.167 5 4 2 1.667 1.75 3.333-.75 5-1.17.5-2.5 1.167-4 2-1.33.667-2.67 1.333-4 2-.67.167-1.17.5-1.5 1-.33.5-.5 1.583-.5 3.25v19c.17 7.5.33 15.583.5 24.25.17 8.667.33 17.333.5 26 .17 8.5.33 16.417.5 23.75.17 7.167.25 13.083.25 17.75.17 4.5.25 7.083.25 7.75 0 1.167-1.33 2.583-4 4.25-2.67 1.5-5.58 2.25-8.75 2.25-3.5 0-5.25-1.25-5.25-3.75v-17h-44V392c0 1.5-1.33 3-4 4.5-2.67 1.333-5.67 2-9 2ZM1533 355.75h54.25l.25-48.75H1535v18.5c0 5.5-.17 10.833-.5 16-.33 5-.83 9.75-1.5 14.25Zm2-56.25h52.5v-47.75H1535v47.75Zm-109.25 8.5h44v-49.5h-44V308Zm0 55.75h44V315.5h-44v48.25ZM1689.75 455c-3.5 0-5.25-1.417-5.25-4.25 0-1 .08-4.083.25-9.25.33-5.167.58-11.333.75-18.5.33-7.167.5-14.083.5-20.75h-39l-4.25.25c-2.83 0-5.92.417-9.25 1.25l-2-11c4.17 1 7.75 1.583 10.75 1.75l4.5.25H1686V369.5h-24.5v6.75c0 1.5-1.25 2.833-3.75 4-2.33 1-4.92 1.5-7.75 1.5-1.33 0-2.5-.25-3.5-.75-.83-.667-1.25-1.917-1.25-3.75 0-1 .08-3.667.25-8 .17-4.333.25-9.583.25-15.75.17-6.333.33-13 .5-20 .17-7.167.25-14.083.25-20.75 0-8.333-.25-14.25-.75-17.75-.33-3.5-.92-6.417-1.75-8.75-.33-1-.17-1.833.5-2.5s1.58-.75 2.75-.25c1.83.833 4.5 2.333 8 4.5 3.67 2 6.58 3.583 8.75 4.75h22v-23.5h-37l-4.25.25c-2.67 0-5.67.333-9 1l-2-10.75c4.17 1 7.75 1.583 10.75 1.75l4.5.25h37V244c0-5.833-.58-9.75-1.75-11.75-.83-.833-.83-1.75 0-2.75.33-.667 1.08-.833 2.25-.5 1.83.333 4.17.833 7 1.5s5.67 1.333 8.5 2c3 .667 5.42 1.25 7.25 1.75 1.67.167 2.33 1.167 2 3-.17 1.667-1.08 2.5-2.75 2.5-1.67.167-3.42.583-5.25 1.25-1.83.5-2.75 2-2.75 4.5v16.25h24.75c1 0 1.92-.417 2.75-1.25.5-.5 1.42-1.5 2.75-3 1.33-1.667 2.67-3.25 4-4.75s2.25-2.5 2.75-3c1.17-1.167 2.67-1.25 4.5-.25 1 .667 2.5 1.917 4.5 3.75l6 5.5c2 1.667 3.33 2.917 4 3.75 1.33 1.667 1.83 3.25 1.5 4.75-.33 1.333-1.42 2-3.25 2h-54.25v23.5h19.25c1.17 0 2.08-.333 2.75-1 .67-.833 1.75-2 3.25-3.5 1.67-1.667 2.92-2.917 3.75-3.75 1.5-1.667 3.17-1.75 5-.25 1.5 1.167 3.75 3.083 6.75 5.75 3.17 2.5 5.42 4.417 6.75 5.75 2.17 2 1.75 3.667-1.25 5-.83.5-1.83 1-3 1.5l-3 1.5c-.67.167-1.17.5-1.5 1-.33.5-.5 1.583-.5 3.25 0 10 .08 19.75.25 29.25.33 9.5.58 17.5.75 24 .17 6.333.25 10.083.25 11.25 0 1.333-1.25 2.667-3.75 4-2.33 1.167-5.08 1.75-8.25 1.75-2.83 0-4.25-1.333-4.25-4v-4.75h-23.25v25.25h24c1.17 0 2.08-.333 2.75-1 .5-.5 1.42-1.5 2.75-3 1.33-1.667 2.67-3.25 4-4.75 1.33-1.667 2.25-2.667 2.75-3 1.33-1.333 2.75-1.417 4.25-.25 1 .667 2.5 1.917 4.5 3.75 2 1.667 4 3.417 6 5.25 2 1.833 3.33 3.167 4 4 1.5 1.5 2 3 1.5 4.5-.33 1.333-1.33 2-3 2h-53.5c.17 6.167.33 12.667.5 19.5.17 6.667.33 12.583.5 17.75.17 5.167.25 8.333.25 9.5 0 1.5-1.33 2.833-4 4-2.5 1.333-5.17 2-8 2Zm34.75-1.25c-1-.333-1.75-1-2.25-2-.33-1-.25-1.917.25-2.75 9.83-6.167 17.92-12.5 24.25-19 6.5-6.667 11.58-14.417 15.25-23.25 3.83-9 6.5-20 8-33s2.25-28.917 2.25-47.75c0-16.5-.08-30.083-.25-40.75 0-10.667-.08-19.25-.25-25.75-.17-6.5-.5-11.417-1-14.75-.33-3.333-.92-5.833-1.75-7.5-.33-1-.17-1.833.5-2.5.83-.833 1.75-.917 2.75-.25 1.5.667 4.17 2.167 8 4.5 4 2.167 7.17 4 9.5 5.5h33.5c1.17 0 2.17-.417 3-1.25 1-1 2.42-2.417 4.25-4.25 2-2 3.5-3.417 4.5-4.25 1.17-1.167 2.58-1.083 4.25.25 1 .833 2.33 2.167 4 4 1.67 1.667 3.33 3.417 5 5.25 1.83 1.833 3.17 3.167 4 4 1.67 2.167 1.25 3.833-1.25 5-1.17.5-2.33 1-3.5 1.5-1 .5-2.17 1.083-3.5 1.75-.67.167-1.17.5-1.5 1-.33.5-.5 1.667-.5 3.5v66.75c0 27.167.17 49.167.5 66 .33 16.667.5 26.083.5 28.25 0 4.667-.5 8.917-1.5 12.75s-3.25 7.167-6.75 10c-3.5 3-8.92 5.583-16.25 7.75-1.83-5.167-4-9.25-6.5-12.25-2.33-2.833-5.5-4.917-9.5-6.25-4-1.5-9.17-2.5-15.5-3-1.5-2-1.25-3.75.75-5.25 1.5 0 4.08.167 7.75.5 3.67.167 7.75.417 12.25.75 4.5.167 8.58.25 12.25.25 2.83 0 4.67-.583 5.5-1.75.83-1.167 1.25-2.833 1.25-5v-61.75h-40.25c-1.17 14.667-3.5 27.167-7 37.5-3.33 10.333-7.67 19.083-13 26.25-5.33 7.167-11.58 13.167-18.75 18-7 5-14.75 9.417-23.25 13.25Zm62.5-102.5h39.75V304h-39.25v32.25c0 2.667-.08 5.25-.25 7.75 0 2.5-.08 4.917-.25 7.25Zm.5-54.75h39.25V252h-39.25v44.5Zm-126 31.25h62.25v-27.5h-62.25v27.5Zm0 34.25h62.25v-26.75h-62.25V362ZM648.25 661.5c5.667 0 10.917 1.583 15.75 4.75 5 3 7.5 6.667 7.5 11 0 1.833-.583 3.25-1.75 4.25-1 .833-2.333 1.25-4 1.25-3.5 0-8.167-.583-14-1.75-1.167-.167-3.417-.5-6.75-1s-6.083-.75-8.25-.75c-5 0-9.833.667-14.5 2-4.5 1.167-7.75 2.25-9.75 3.25-6.833 3.667-13 11-18.5 22-5.333 11-9.5 23.167-12.5 36.5-2.833 13.333-4.25 25-4.25 35 0 16.833 2.833 28.667 8.5 35.5 5.833 6.667 14.583 10 26.25 10l7-.5c5-.667 8.833-1 11.5-1 12 0 18 2.917 18 8.75 0 4.333-3.417 7.25-10.25 8.75-6.667 1.333-13.417 2-20.25 2-13.833 0-24.75-2.25-32.75-6.75-7.833-4.5-13.417-11.333-16.75-20.5s-5-21.167-5-36c0-19 3.667-36.917 11-53.75 7.5-17 16.917-30.917 28.25-41.75l-2 .5c-4.667 1-11.333 3.25-20 6.75-8.5 3.333-19.417 7.833-32.75 13.5l-10.75 4.5c-1.333.667-4.25 2.167-8.75 4.5-3.167 1.667-5.667 2.917-7.5 3.75a13.746 13.746 0 0 1-5.75 1.25c-4.167 0-8.667-1.917-13.5-5.75-4.667-3.833-8.25-7.667-10.75-11.5-.833-1.167-1.25-2.167-1.25-3 0-.667.25-1.25.75-1.75s1.083-.75 1.75-.75c1 0 2.083.333 3.25 1 .333.167 1.75 1 4.25 2.5 2.5 1.333 5.583 2 9.25 2 .833 0 2.25-.167 4.25-.5.5-.167 5.583-1.833 15.25-5 18.667-6.333 35.75-11.75 51.25-16.25 15.667-4.667 30.083-7.833 43.25-9.5a35.4 35.4 0 0 0 7.25-1.75c2.333-1 3.833-1.667 4.5-2 5-2.5 9.5-3.75 13.5-3.75Zm67.5-2.75c-1.5 0-3.083-.5-4.75-1.5-1.5-1.167-2.75-2.833-3.75-5-2-4.333-4.167-7.75-6.5-10.25-2.167-2.667-5.25-5.25-9.25-7.75-1-.667-2.083-1.25-3.25-1.75-1-.667-1.917-1.25-2.75-1.75-.667-.667-1-1.333-1-2 0-1 1-1.5 3-1.5 3.667 0 8.333 1 14 3 5.833 1.833 10.917 4.583 15.25 8.25 4.5 3.5 6.75 7.667 6.75 12.5 0 2.833-.833 4.833-2.5 6-1.5 1.167-3.25 1.75-5.25 1.75ZM688.25 675c-1.667 0-3.417-.5-5.25-1.5-1.833-1.167-3.167-3-4-5.5-1.667-4.833-3.75-8.917-6.25-12.25-2.333-3.5-5.5-6.5-9.5-9-.5-.333-1.333-.833-2.5-1.5-1-.667-1.75-1.25-2.25-1.75s-.75-1-.75-1.5c0-1.167.833-1.75 2.5-1.75 1.833 0 5.75 1 11.75 3 6.167 2 11.75 4.917 16.75 8.75 5.167 3.833 7.75 8.583 7.75 14.25 0 2.833-.833 5-2.5 6.5s-3.583 2.25-5.75 2.25ZM948 764c.667 0 1 .667 1 2 0 2.167-.417 4.333-1.25 6.5-5 16.333-11.167 29.667-18.5 40-7.333 10.167-14.833 17.5-22.5 22-7.667 4.333-14.917 6.5-21.75 6.5-9.833 0-17.167-3-22-9-4.667-6-7-13.25-7-21.75 0-4.167.75-14.333 2.25-30.5.833-8.833 1.25-14.583 1.25-17.25 0-7.333-1.417-13.25-4.25-17.75-2.833-4.667-7.583-7-14.25-7-6.5 0-13.917 2.167-22.25 6.5-8.167 4.333-15.75 10.167-22.75 17.5-6.5 6.667-11.667 14.167-15.5 22.5-3.667 8.167-6 14.5-7 19-1 4.333-2.417 11.167-4.25 20.5-1.333 7.5-2.5 12.583-3.5 15.25-1 2.5-2.667 3.75-5 3.75-3.833 0-6.833-1.667-9-5-2-3.5-3-7.667-3-12.5 0-4 .667-8 2-12 5.333-16.167 12.333-31.667 21-46.5 8.833-14.833 21-33.5 36.5-56 10.667-15.5 17.75-26 21.25-31.5 4.5-6.833 6.75-12.333 6.75-16.5 0-2.667-.917-5-2.75-7-1.333-1.667-2.583-3-3.75-4-1.167-1.167-1.75-1.917-1.75-2.25 0-1 1.167-1.5 3.5-1.5 3 0 6.25 1 9.75 3s6.417 4.75 8.75 8.25 3.5 7.25 3.5 11.25c0 4.833-1.333 9.167-4 13-2.5 3.667-6.083 7.667-10.75 12l-4.25 4.25c-7.5 7.5-14 14.583-19.5 21.25-5.333 6.5-10.417 13.583-15.25 21.25l-6.75 11.5c7.5-7.167 15.417-12.833 23.75-17 8.5-4.333 17-6.5 25.5-6.5 9.333 0 17.167 2.917 23.5 8.75 6.333 5.667 9.5 14.333 9.5 26 0 5.833-.667 12.917-2 21.25-.167 1-.5 3.5-1 7.5-.5 3.833-.75 7.833-.75 12 0 7 1.333 12.167 4 15.5s7.083 5 13.25 5c8.667 0 17.75-4.333 27.25-13s18.667-22.75 27.5-42.25c.333-.667.75-1.667 1.25-3 .667-1.333 1.25-2.333 1.75-3 .5-.667 1-1 1.5-1ZM1075.75 848.5c-15.67 0-29.5-3-41.5-9-11.83-6-17.75-17.083-17.75-33.25 0-13 3.58-23.75 10.75-32.25 7.33-8.5 16.08-15.917 26.25-22.25-6.67-4.667-11.42-10-14.25-16-2.67-6-4-13.667-4-23 0-8.5 1.17-18.083 3.5-28.75 1.83-8.333 2.75-15.417 2.75-21.25 0-3.667-.42-6.667-1.25-9-.83-2.333-2.25-4.5-4.25-6.5-1.17-1.167-2.33-2.167-3.5-3-1-1-1.5-1.667-1.5-2 0-1 1.17-1.5 3.5-1.5 1.67 0 3.67.333 6 1 2.33.5 4.33 1.167 6 2 4.33 2.167 7.33 4.667 9 7.5 1.83 2.833 2.75 6.667 2.75 11.5 0 2.833-.33 5.667-1 8.5A108.45 108.45 0 0 1 1055 679c-.83 2.333-1.42 3.917-1.75 4.75-.17.5-.83 2.333-2 5.5-1.67 3.667-2.92 7.333-3.75 11-.83 3.5-1.25 7.917-1.25 13.25a46.3 46.3 0 0 0 2.25 14.25c1.67 4.5 3.75 8.25 6.25 11.25 2.5 2.833 5.08 4.25 7.75 4.25 1.83 0 4.33-.583 7.5-1.75s6.33-2.5 9.5-4c6.67-3.167 11.08-4.75 13.25-4.75 3.17 0 6.25 1 9.25 3 3.17 1.833 4.75 3.75 4.75 5.75 0 3-1.17 5.167-3.5 6.5-2.33 1.333-6 2.417-11 3.25-14.83 2.667-29.17 7.583-43 14.75-13.83 7.167-20.75 19.25-20.75 36.25 0 8.667 3.17 15.917 9.5 21.75s15.83 8.75 28.5 8.75c4.33 0 8.67-.333 13-1s6.92-1.083 7.75-1.25c7.67-1.333 13.08-2 16.25-2 9.33 0 14 2.75 14 8.25 0 3.833-3.75 6.75-11.25 8.75s-17.67 3-30.5 3ZM1230.5 679.5c-.83 0-1.25-.417-1.25-1.25s1.17-2 3.5-3.5c2.17-1.5 4.92-3.333 8.25-5.5.67-.333 3.33-2 8-5 2-1.333 3-2.25 3-2.75 0-1-1.08-1.833-3.25-2.5-.17 0-1.75-.417-4.75-1.25-3-1-6.67-3-11-6s-7.83-6.583-10.5-10.75c-.83-1.167-1.25-2.083-1.25-2.75 0-.833.33-1.25 1-1.25.67 0 1.58.417 2.75 1.25 1.5 1.167 3.83 2.667 7 4.5 3.17 1.833 6.25 3 9.25 3.5 3.17.5 7 .917 11.5 1.25 4.5.167 7.25.25 8.25.25 5 .333 9.67 1.167 14 2.5a38.989 38.989 0 0 1 10.25 5c3.17 2 4.75 4.25 4.75 6.75 0 1.5-.75 2.833-2.25 4-1.33 1-2.92 1.5-4.75 1.5-1.33 0-2.75-.083-4.25-.25-1.33-.167-2.67-.25-4-.25-12.5 0-26.75 4-42.75 12-.67.333-1.17.5-1.5.5Zm-4 177.25c-1.5.5-2.58.75-3.25.75-1.17 0-1.75-.333-1.75-1 0-1.167 1.08-2.25 3.25-3.25 18-7.167 32.5-17.167 43.5-30 11.17-12.833 19.08-26 23.75-39.5 4.83-13.5 7.25-25.25 7.25-35.25 0-11.667-2.17-20.917-6.5-27.75-4.17-6.833-10.58-10.25-19.25-10.25-4.17 0-8.33 1-12.5 3-4 2-8.75 4.833-14.25 8.5-4.17 2.667-7.75 4.75-10.75 6.25-2.83 1.5-5.42 2.25-7.75 2.25-4 0-7.75-1.167-11.25-3.5-3.33-2.333-6.08-5.167-8.25-8.5-2-3.333-3-6.333-3-9 0-3.167.67-4.75 2-4.75.83 0 1.75.5 2.75 1.5 1.17.833 1.83 1.333 2 1.5 2.67 2 6.25 3 10.75 3s9.42-.75 14.75-2.25 8.33-2.333 9-2.5c12-3.167 22.17-4.75 30.5-4.75 9.5 0 18.58 3.083 27.25 9.25 8.83 6 13.25 18.583 13.25 37.75 0 19-6.25 38.417-18.75 58.25-12.33 19.667-36.58 36.417-72.75 50.25ZM1518 772.5c-3 19-9.17 36.083-18.5 51.25-9.33 15.167-23.33 28.167-42 39l-3.25-3c13.83-11 24.5-23.167 32-36.5 7.5-13.333 12.58-27.5 15.25-42.5 2.83-15 4.25-32.167 4.25-51.5v-44c0-19-.92-34.083-2.75-45.25l20.75 9.5h57l3.5-5.25 2.25-3c1-1.5 2-2.25 3-2.25s3.08 1.083 6.25 3.25a61.268 61.268 0 0 1 8.75 7.25c2.83 2.5 4.25 4.333 4.25 5.5-1 1-2.42 2-4.25 3s-3.92 1.667-6.25 2v177.75c0 5-.67 9.083-2 12.25-1.17 3.167-3.75 5.833-7.75 8-3.83 2.167-9.58 3.667-17.25 4.5-.83-6-2.92-10-6.25-12-4.17-2.833-12.25-5.083-24.25-6.75v-4c20.17 1.5 32.08 2.25 35.75 2.25 2.5 0 4.17-.417 5-1.25 1-.833 1.5-2.417 1.5-4.75v-63.5h-65Zm-55-124.75c.5-.667 1.33-1.75 2.5-3.25 1.33-1.667 2.5-2.5 3.5-2.5s3 1.167 6 3.5a60.56 60.56 0 0 1 8.25 7.75c2.5 2.667 3.75 4.583 3.75 5.75-1.5 2-5 3.75-10.5 5.25v79.5c.33 20.667 1 40.25 2 58.75-1.17 1.667-3.33 3.333-6.5 5-3 1.667-5.75 2.5-8.25 2.5-1 0-1.83-.5-2.5-1.5-.5-1-.75-2.167-.75-3.5 0 0 .33-2.833 1-8.5v-6.75h-45.25v8c.17 1.833.25 4 .25 6.5l.75 8.25c-.67 1.667-2.25 3.333-4.75 5-2.33 1.5-5.33 2.25-9 2.25-1.17 0-2.33-.5-3.5-1.5-1-1.167-1.5-2.333-1.5-3.5.67-9.833 1.25-19.333 1.75-28.5.5-9.333.83-21.5 1-36.5v-54c0-21-1.08-38.083-3.25-51.25l21.25 9H1459l4-5.75Zm120 59v-50h-62v50h62Zm-121.5 10V661h-45.25v55.75h45.25ZM1521 729c0 13.667-.67 25.833-2 36.5h64V714h-62v15Zm-104.75-4.75v58.25h45.25v-58.25h-45.25ZM1724 795c.5-.5 1.17-1.417 2-2.75 1-1.333 1.83-2.25 2.5-2.75.67-.667 1.33-1 2-1 1 0 3 1.167 6 3.5 3 2.167 5.75 4.583 8.25 7.25s3.75 4.583 3.75 5.75c-.67 2.667-2.75 4-6.25 4h-47v16.25l.25 10c.17 7.5.5 14.417 1 20.75-1 1.667-2.75 3.167-5.25 4.5-2.5 1.5-5.42 2.25-8.75 2.25-1.17 0-2.17-.5-3-1.5-.83-1-1.25-2.167-1.25-3.5.83-7.667 1.42-17.917 1.75-30.75v-18h-16.25c-9.5.167-19.33 1.333-29.5 3.5l-6.25-13c9.17 1 20.25 1.667 33.25 2H1680v-28.25h-21V780c0 1-1.42 2.167-4.25 3.5-2.67 1.333-5.33 2-8 2-1.17 0-2.17-.5-3-1.5-.67-1-1-2.167-1-3.5.67-7 1.17-15.833 1.5-26.5v-16c0-19.5-1-35.75-3-48.75l19 8.75H1680v-25h-16.25c-9.5.167-19.33 1.333-29.5 3.5l-6.25-12.75c9.17 1 20.25 1.667 33.25 2H1680c0-14-.67-25.083-2-33.25 15.5 4.5 23.25 7.917 23.25 10.25 0 .833-.67 1.667-2 2.5l-4 2.5v18H1719l4.75-7.25c.67-.833 1.33-1.833 2-3a23.756 23.756 0 0 1 2.5-3c.83-.833 1.58-1.25 2.25-1.25 1 0 3 1.25 6 3.75a80.45 80.45 0 0 1 8.75 8c2.67 2.833 4 4.833 4 6-.5 2.667-2.5 4-6 4h-48v25H1714l4-4.75c.5-.5 1.33-1.417 2.5-2.75 1.17-1.5 2.25-2.25 3.25-2.25s3 1.083 6 3.25c3 2 5.75 4.25 8.25 6.75 2.67 2.333 4 4.083 4 5.25-.83 1-2.17 2-4 3s-3.92 1.583-6.25 1.75v23c.5 19.167 1.08 34 1.75 44.5-1 1.667-3.08 3.25-6.25 4.75-3 1.5-5.83 2.25-8.5 2.25h-2.25v-9.5h-21.25v28.25h24.25l4.5-6.5Zm48.25-27c-2.33 20.167-7.5 38.167-15.5 54-7.83 15.833-20.33 29.417-37.5 40.75l-3.25-3c11.67-10.5 20.58-22.25 26.75-35.25 6.33-13 10.58-26.667 12.75-41 2.17-14.333 3.25-30.667 3.25-49V690c0-19.333-.92-34.583-2.75-45.75l20.75 9.25H1820l3.5-5.25c.5-.667 1.08-1.5 1.75-2.5.67-1 1.25-1.75 1.75-2.25s1.08-.75 1.75-.75c1 0 3.17 1.167 6.5 3.5 3.5 2.167 6.67 4.583 9.5 7.25s4.25 4.583 4.25 5.75c-1.83 2.5-5.67 4.333-11.5 5.5v174c0 4.833-.58 8.75-1.75 11.75s-3.58 5.5-7.25 7.5c-3.5 2-8.83 3.417-16 4.25-.5-5.667-2.25-9.5-5.25-11.5-3.83-2.833-10.75-4.917-20.75-6.25v-4c16.67 1.333 26.58 2 29.75 2 2.33 0 3.92-.417 4.75-1.25.83-.833 1.25-2.333 1.25-4.5V768h-50Zm50-62.25V661h-48.75v44.75h48.75ZM1716.5 732v-26.5H1659V732h57.5Zm57 2c0 9.833-.33 18.75-1 26.75h49.75V713h-48.75v21Zm-57 5.25H1659V766h57.5v-26.75Z"/><path fill="#FF6D7F" d="M54.24 384h-3.494l7.851-21.818h3.804L70.252 384h-3.494l-6.168-17.855h-.171L54.24 384Zm.586-8.544h11.335v2.77H54.826v-2.77Zm30.269-7.82L79.161 384h-3.409l-5.945-16.364h3.42l4.144 12.593h.17l4.134-12.593h3.42Zm7.287 16.726c-1.037 0-1.975-.192-2.813-.575a4.739 4.739 0 0 1-1.992-1.694c-.483-.739-.724-1.644-.724-2.717 0-.923.177-1.683.532-2.279a3.928 3.928 0 0 1 1.439-1.417 7.528 7.528 0 0 1 2.024-.789 20.174 20.174 0 0 1 2.28-.404l2.386-.277c.61-.079 1.055-.203 1.332-.373.277-.171.415-.448.415-.831v-.075c0-.93-.263-1.651-.788-2.163-.519-.511-1.293-.767-2.323-.767-1.072 0-1.917.238-2.535.714-.61.469-1.033.991-1.268 1.566l-2.993-.682c.355-.994.873-1.796 1.555-2.407a6.309 6.309 0 0 1 2.376-1.343 9.278 9.278 0 0 1 2.823-.426c.653 0 1.346.078 2.077.235a6.076 6.076 0 0 1 2.067.831c.646.404 1.175.983 1.587 1.736.412.746.618 1.715.618 2.909V384h-3.11v-2.237h-.128c-.206.412-.515.817-.927 1.214-.412.398-.941.728-1.588.991-.646.263-1.42.394-2.322.394Zm.692-2.557c.881 0 1.634-.174 2.259-.522.632-.348 1.111-.802 1.438-1.363.334-.568.5-1.176.5-1.822v-2.109c-.113.113-.333.22-.66.319-.32.093-.685.174-1.097.245-.412.064-.813.125-1.204.181l-.98.128a7.928 7.928 0 0 0-1.694.394c-.504.185-.909.451-1.214.799-.299.341-.448.796-.448 1.364 0 .788.291 1.385.874 1.79.582.398 1.324.596 2.226.596ZM104.7 384v-16.364h3.185V384H104.7Zm1.609-18.888c-.554 0-1.03-.185-1.428-.554-.391-.377-.586-.824-.586-1.343 0-.525.195-.973.586-1.342a2.004 2.004 0 0 1 1.428-.565c.554 0 1.026.188 1.416.565.398.369.597.817.597 1.342 0 .519-.199.966-.597 1.343-.39.369-.862.554-1.416.554Zm9.047-2.93V384h-3.185v-21.818h3.185Zm9.047 22.18c-1.037 0-1.974-.192-2.812-.575a4.738 4.738 0 0 1-1.992-1.694c-.483-.739-.725-1.644-.725-2.717 0-.923.178-1.683.533-2.279a3.924 3.924 0 0 1 1.438-1.417 7.54 7.54 0 0 1 2.024-.789 20.192 20.192 0 0 1 2.28-.404l2.387-.277c.61-.079 1.054-.203 1.331-.373.277-.171.416-.448.416-.831v-.075c0-.93-.263-1.651-.789-2.163-.518-.511-1.292-.767-2.322-.767-1.073 0-1.918.238-2.536.714-.61.469-1.033.991-1.267 1.566l-2.994-.682c.355-.994.874-1.796 1.555-2.407a6.31 6.31 0 0 1 2.376-1.343 9.278 9.278 0 0 1 2.823-.426c.654 0 1.346.078 2.078.235a6.074 6.074 0 0 1 2.066.831c.647.404 1.176.983 1.588 1.736.412.746.618 1.715.618 2.909V384h-3.111v-2.237h-.128c-.206.412-.515.817-.927 1.214-.412.398-.941.728-1.587.991s-1.421.394-2.323.394Zm.693-2.557c.881 0 1.633-.174 2.258-.522.633-.348 1.112-.802 1.439-1.363.333-.568.5-1.176.5-1.822v-2.109c-.113.113-.333.22-.66.319-.32.093-.686.174-1.097.245-.412.064-.814.125-1.204.181-.391.05-.718.093-.98.128a7.924 7.924 0 0 0-1.694.394c-.505.185-.909.451-1.215.799-.298.341-.447.796-.447 1.364 0 .788.291 1.385.873 1.79.583.398 1.325.596 2.227.596ZM136.977 384v-21.818h3.185v8.107h.192a8.9 8.9 0 0 1 .799-1.182c.348-.448.831-.839 1.449-1.172.618-.341 1.435-.512 2.45-.512 1.321 0 2.5.334 3.537 1.002 1.037.667 1.85 1.63 2.44 2.887.597 1.257.895 2.77.895 4.538 0 1.769-.295 3.285-.884 4.549-.59 1.257-1.4 2.227-2.429 2.909-1.03.674-2.206 1.012-3.527 1.012-.994 0-1.807-.167-2.439-.501-.625-.334-1.115-.725-1.47-1.172a8.795 8.795 0 0 1-.821-1.193h-.266V384h-3.111Zm3.122-8.182c0 1.151.166 2.159.5 3.026.334.866.817 1.544 1.449 2.035.632.483 1.406.724 2.323.724.951 0 1.747-.252 2.386-.756.639-.512 1.122-1.204 1.449-2.078.334-.873.5-1.857.5-2.951 0-1.079-.163-2.049-.49-2.908-.319-.86-.802-1.538-1.448-2.035-.64-.497-1.439-.746-2.397-.746-.924 0-1.705.238-2.344.714-.632.476-1.112 1.14-1.438 1.992-.327.852-.49 1.847-.49 2.983Zm18.587-13.636V384h-3.185v-21.818h3.185Zm11.338 22.148c-1.612 0-3.001-.344-4.166-1.033-1.157-.696-2.052-1.673-2.684-2.93-.625-1.264-.938-2.745-.938-4.442 0-1.676.313-3.154.938-4.432.632-1.279 1.513-2.276 2.642-2.994 1.136-.717 2.464-1.076 3.984-1.076a8.03 8.03 0 0 1 2.685.458 6.51 6.51 0 0 1 2.333 1.439c.689.653 1.232 1.502 1.63 2.546.398 1.037.597 2.297.597 3.782v1.129h-13.008v-2.386h9.886c0-.838-.17-1.581-.511-2.227a3.88 3.88 0 0 0-1.438-1.545c-.611-.376-1.329-.564-2.152-.564-.895 0-1.677.22-2.344.66a4.428 4.428 0 0 0-1.534 1.705 4.92 4.92 0 0 0-.533 2.269v1.864c0 1.094.192 2.024.575 2.791.391.768.934 1.353 1.63 1.758.696.398 1.51.597 2.44.597.604 0 1.154-.085 1.651-.256.497-.177.927-.44 1.289-.788.362-.348.639-.778.831-1.289l3.015.543a5.45 5.45 0 0 1-1.3 2.333c-.617.661-1.395 1.176-2.333 1.545-.93.362-1.992.543-3.185.543Zm25.387 0c-1.534 0-2.873-.351-4.016-1.054-1.144-.704-2.032-1.687-2.664-2.951-.632-1.265-.948-2.742-.948-4.432 0-1.698.316-3.182.948-4.453.632-1.272 1.52-2.259 2.664-2.962 1.143-.703 2.482-1.055 4.016-1.055 1.534 0 2.873.352 4.016 1.055 1.144.703 2.032 1.69 2.664 2.962.632 1.271.948 2.755.948 4.453 0 1.69-.316 3.167-.948 4.432-.632 1.264-1.52 2.247-2.664 2.951-1.143.703-2.482 1.054-4.016 1.054Zm.011-2.674c.994 0 1.818-.263 2.471-.788.654-.526 1.137-1.225 1.449-2.099.32-.873.48-1.836.48-2.887 0-1.044-.16-2.003-.48-2.876-.312-.881-.795-1.588-1.449-2.12-.653-.533-1.477-.799-2.471-.799-1.002 0-1.833.266-2.493.799-.654.532-1.14 1.239-1.46 2.12-.312.873-.468 1.832-.468 2.876 0 1.051.156 2.014.468 2.887.32.874.806 1.573 1.46 2.099.66.525 1.491.788 2.493.788Zm14.358-7.372V384h-3.186v-16.364h3.058v2.664h.202a4.674 4.674 0 0 1 1.769-2.088c.81-.526 1.829-.789 3.057-.789 1.115 0 2.092.235 2.93.703.838.462 1.488 1.151 1.95 2.067.461.916.692 2.049.692 3.399V384h-3.185v-10.025c0-1.186-.309-2.113-.927-2.78-.618-.675-1.467-1.012-2.546-1.012-.739 0-1.396.159-1.971.479-.568.32-1.019.788-1.353 1.406-.327.611-.49 1.35-.49 2.216Zm37.705-5.209a6.648 6.648 0 0 0-.831-1.737 5.314 5.314 0 0 0-1.225-1.321 5.158 5.158 0 0 0-1.63-.842 6.58 6.58 0 0 0-1.992-.287c-1.229 0-2.337.316-3.324.948-.987.632-1.769 1.559-2.344 2.78-.568 1.215-.852 2.703-.852 4.464 0 1.769.287 3.264.863 4.485.575 1.222 1.363 2.149 2.365 2.781 1.001.632 2.141.948 3.419.948 1.187 0 2.22-.241 3.101-.724a5.052 5.052 0 0 0 2.056-2.046c.49-.888.735-1.932.735-3.132l.852.16h-6.243v-2.717h8.576v2.482c0 1.833-.39 3.424-1.172 4.773a7.975 7.975 0 0 1-3.217 3.111c-1.364.732-2.926 1.097-4.688 1.097-1.974 0-3.707-.454-5.198-1.363-1.485-.909-2.642-2.198-3.473-3.868-.831-1.676-1.247-3.664-1.247-5.965 0-1.74.242-3.303.725-4.688.483-1.385 1.161-2.56 2.034-3.526a8.89 8.89 0 0 1 3.101-2.227c1.193-.518 2.496-.777 3.909-.777 1.179 0 2.277.174 3.292.522a8.887 8.887 0 0 1 2.728 1.48 8.373 8.373 0 0 1 3.057 5.189h-3.377Zm14.342 15.255c-1.534 0-2.873-.351-4.016-1.054-1.144-.704-2.032-1.687-2.664-2.951-.632-1.265-.948-2.742-.948-4.432 0-1.698.316-3.182.948-4.453.632-1.272 1.52-2.259 2.664-2.962 1.143-.703 2.482-1.055 4.016-1.055 1.534 0 2.873.352 4.016 1.055 1.144.703 2.032 1.69 2.664 2.962.632 1.271.948 2.755.948 4.453 0 1.69-.316 3.167-.948 4.432-.632 1.264-1.52 2.247-2.664 2.951-1.143.703-2.482 1.054-4.016 1.054Zm.011-2.674c.994 0 1.818-.263 2.471-.788.654-.526 1.137-1.225 1.449-2.099.32-.873.48-1.836.48-2.887 0-1.044-.16-2.003-.48-2.876-.312-.881-.795-1.588-1.449-2.12-.653-.533-1.477-.799-2.471-.799-1.002 0-1.833.266-2.493.799-.654.532-1.14 1.239-1.46 2.12-.312.873-.468 1.832-.468 2.876 0 1.051.156 2.014.468 2.887.32.874.806 1.573 1.46 2.099.66.525 1.491.788 2.493.788Zm18.065 2.674c-1.534 0-2.873-.351-4.016-1.054-1.144-.704-2.031-1.687-2.663-2.951-.633-1.265-.949-2.742-.949-4.432 0-1.698.316-3.182.949-4.453.632-1.272 1.519-2.259 2.663-2.962 1.143-.703 2.482-1.055 4.016-1.055 1.534 0 2.873.352 4.017 1.055 1.143.703 2.031 1.69 2.663 2.962.632 1.271.948 2.755.948 4.453 0 1.69-.316 3.167-.948 4.432-.632 1.264-1.52 2.247-2.663 2.951-1.144.703-2.483 1.054-4.017 1.054Zm.011-2.674c.994 0 1.818-.263 2.471-.788.654-.526 1.137-1.225 1.449-2.099.32-.873.48-1.836.48-2.887 0-1.044-.16-2.003-.48-2.876-.312-.881-.795-1.588-1.449-2.12-.653-.533-1.477-.799-2.471-.799-1.002 0-1.833.266-2.493.799-.653.532-1.14 1.239-1.46 2.12-.312.873-.468 1.832-.468 2.876 0 1.051.156 2.014.468 2.887.32.874.807 1.573 1.46 2.099.66.525 1.491.788 2.493.788Zm18.033 8.821c-1.299 0-2.418-.17-3.355-.511-.931-.341-1.691-.792-2.28-1.353-.59-.561-1.03-1.175-1.321-1.843l2.738-1.129c.191.312.447.642.767.99.326.356.767.657 1.321.906.561.249 1.282.373 2.162.373 1.208 0 2.206-.295 2.994-.884.788-.583 1.183-1.513 1.183-2.792v-3.217h-.203a7.283 7.283 0 0 1-.831 1.161c-.355.426-.845.796-1.47 1.108-.625.313-1.438.469-2.44.469-1.292 0-2.457-.302-3.494-.906-1.03-.61-1.847-1.509-2.45-2.695-.597-1.193-.895-2.66-.895-4.4 0-1.74.295-3.231.884-4.474.597-1.243 1.413-2.195 2.45-2.855 1.037-.668 2.213-1.002 3.527-1.002 1.015 0 1.836.171 2.461.512.625.333 1.111.724 1.459 1.172.355.447.629.841.82 1.182h.235v-2.653h3.121v16.726c0 1.406-.326 2.561-.98 3.463-.653.902-1.537 1.569-2.653 2.002-1.108.434-2.358.65-3.75.65Zm-.032-9.364c.917 0 1.691-.213 2.323-.639.639-.434 1.122-1.051 1.449-1.854.334-.81.501-1.779.501-2.908 0-1.101-.164-2.071-.491-2.909-.326-.838-.806-1.491-1.438-1.96-.632-.476-1.413-.714-2.344-.714-.958 0-1.757.249-2.397.746-.639.49-1.122 1.158-1.448 2.003-.32.845-.48 1.79-.48 2.834 0 1.072.164 2.013.49 2.823.327.809.81 1.442 1.449 1.896.646.455 1.442.682 2.386.682Zm14.873-18.931V384h-3.186v-21.818h3.186Zm11.338 22.148c-1.613 0-3.001-.344-4.166-1.033-1.158-.696-2.053-1.673-2.685-2.93-.625-1.264-.937-2.745-.937-4.442 0-1.676.312-3.154.937-4.432.632-1.279 1.513-2.276 2.642-2.994 1.137-.717 2.465-1.076 3.985-1.076.923 0 1.818.153 2.684.458a6.504 6.504 0 0 1 2.334 1.439c.688.653 1.232 1.502 1.63 2.546.397 1.037.596 2.297.596 3.782v1.129h-13.008v-2.386h9.887c0-.838-.171-1.581-.512-2.227a3.873 3.873 0 0 0-1.438-1.545c-.611-.376-1.328-.564-2.152-.564-.895 0-1.676.22-2.344.66a4.436 4.436 0 0 0-1.534 1.705 4.92 4.92 0 0 0-.532 2.269v1.864c0 1.094.191 2.024.575 2.791.391.768.934 1.353 1.63 1.758.696.398 1.509.597 2.439.597.604 0 1.155-.085 1.652-.256.497-.177.927-.44 1.289-.788.362-.348.639-.778.831-1.289l3.015.543a5.46 5.46 0 0 1-1.3 2.333c-.618.661-1.396 1.176-2.333 1.545-.93.362-1.992.543-3.185.543Zm18.75-.33v-21.818h13.529v2.834h-10.238v6.647h9.269v2.824h-9.269V384h-3.291Zm23.014.33c-1.535 0-2.873-.351-4.017-1.054-1.143-.704-2.031-1.687-2.663-2.951-.632-1.265-.948-2.742-.948-4.432 0-1.698.316-3.182.948-4.453.632-1.272 1.52-2.259 2.663-2.962 1.144-.703 2.482-1.055 4.017-1.055 1.534 0 2.872.352 4.016 1.055 1.143.703 2.031 1.69 2.663 2.962.632 1.271.948 2.755.948 4.453 0 1.69-.316 3.167-.948 4.432-.632 1.264-1.52 2.247-2.663 2.951-1.144.703-2.482 1.054-4.016 1.054Zm.01-2.674c.995 0 1.818-.263 2.472-.788.653-.526 1.136-1.225 1.449-2.099.319-.873.479-1.836.479-2.887 0-1.044-.16-2.003-.479-2.876-.313-.881-.796-1.588-1.449-2.12-.654-.533-1.477-.799-2.472-.799-1.001 0-1.832.266-2.493.799-.653.532-1.14 1.239-1.459 2.12-.313.873-.469 1.832-.469 2.876 0 1.051.156 2.014.469 2.887.319.874.806 1.573 1.459 2.099.661.525 1.492.788 2.493.788Zm14.358-7.372V384h-3.185v-16.364h3.058v2.664h.202a4.671 4.671 0 0 1 1.768-2.088c.81-.526 1.829-.789 3.058-.789 1.115 0 2.092.235 2.93.703.838.462 1.488 1.151 1.949 2.067.462.916.693 2.049.693 3.399V384h-3.186v-10.025c0-1.186-.309-2.113-.927-2.78-.617-.675-1.466-1.012-2.546-1.012-.738 0-1.395.159-1.971.479-.568.32-1.019.788-1.353 1.406-.326.611-.49 1.35-.49 2.216Zm22.383-6.648v2.557h-8.938v-2.557h8.938Zm-6.541-3.92h3.185v15.479c0 .618.093 1.083.277 1.396.185.305.423.515.714.628.298.107.622.16.97.16.255 0 .479-.017.671-.053l.447-.085.575 2.631a5.324 5.324 0 0 1-.788.213 6.239 6.239 0 0 1-1.278.128 5.62 5.62 0 0 1-2.344-.447 4.033 4.033 0 0 1-1.758-1.449c-.447-.654-.671-1.474-.671-2.461v-16.14Zm22.063 7.915-2.887.512a3.416 3.416 0 0 0-.575-1.055c-.256-.334-.604-.607-1.044-.82-.441-.213-.991-.32-1.651-.32-.902 0-1.655.203-2.259.607-.604.398-.906.913-.906 1.545 0 .547.203.987.608 1.321.405.334 1.058.607 1.96.82l2.599.597c1.506.348 2.628.884 3.367 1.609.738.724 1.108 1.665 1.108 2.823 0 .98-.284 1.854-.852 2.621-.562.76-1.346 1.356-2.355 1.789-1.001.434-2.163.65-3.484.65-1.832 0-3.327-.39-4.485-1.172-1.157-.788-1.868-1.907-2.13-3.355l3.079-.469c.191.802.585 1.41 1.182 1.822.597.404 1.374.607 2.333.607 1.044 0 1.879-.217 2.504-.65.625-.44.937-.977.937-1.609 0-.511-.192-.941-.575-1.289-.377-.348-.955-.611-1.737-.788l-2.769-.607c-1.527-.348-2.657-.902-3.388-1.662-.725-.76-1.087-1.723-1.087-2.887 0-.966.27-1.811.81-2.536.54-.724 1.285-1.289 2.237-1.694.952-.412 2.042-.618 3.271-.618 1.768 0 3.16.384 4.176 1.151 1.015.76 1.686 1.779 2.013 3.057ZM54.24 810h-3.494l7.851-21.818h3.804L70.252 810h-3.494l-6.168-17.855h-.171L54.24 810Zm.586-8.544h11.335v2.77H54.826v-2.77Zm30.269-7.82L79.161 810h-3.409l-5.945-16.364h3.42l4.144 12.593h.17l4.134-12.593h3.42Zm7.287 16.726c-1.037 0-1.975-.192-2.813-.575a4.739 4.739 0 0 1-1.992-1.694c-.483-.739-.724-1.644-.724-2.717 0-.923.177-1.683.532-2.279a3.928 3.928 0 0 1 1.439-1.417 7.528 7.528 0 0 1 2.024-.789 20.174 20.174 0 0 1 2.28-.404l2.386-.277c.61-.079 1.055-.203 1.332-.373.277-.171.415-.448.415-.831v-.075c0-.93-.263-1.651-.788-2.163-.519-.511-1.293-.767-2.323-.767-1.072 0-1.917.238-2.535.714-.61.469-1.033.991-1.268 1.566l-2.993-.682c.355-.994.873-1.796 1.555-2.407a6.309 6.309 0 0 1 2.376-1.343 9.278 9.278 0 0 1 2.823-.426c.653 0 1.346.078 2.077.235a6.076 6.076 0 0 1 2.067.831c.646.404 1.175.983 1.587 1.736.412.746.618 1.715.618 2.909V810h-3.11v-2.237h-.128c-.206.412-.515.817-.927 1.214-.412.398-.941.728-1.588.991-.646.263-1.42.394-2.322.394Zm.692-2.557c.881 0 1.634-.174 2.259-.522.632-.348 1.111-.802 1.438-1.363.334-.568.5-1.176.5-1.822v-2.109c-.113.113-.333.22-.66.319-.32.093-.685.174-1.097.245-.412.064-.813.125-1.204.181l-.98.128a7.928 7.928 0 0 0-1.694.394c-.504.185-.909.451-1.214.799-.299.341-.448.796-.448 1.364 0 .788.291 1.385.874 1.79.582.398 1.324.596 2.226.596ZM104.7 810v-16.364h3.185V810H104.7Zm1.609-18.888c-.554 0-1.03-.185-1.428-.554-.391-.377-.586-.824-.586-1.343 0-.525.195-.973.586-1.342a2.004 2.004 0 0 1 1.428-.565c.554 0 1.026.188 1.416.565.398.369.597.817.597 1.342 0 .519-.199.966-.597 1.343-.39.369-.862.554-1.416.554Zm9.047-2.93V810h-3.185v-21.818h3.185Zm9.047 22.18c-1.037 0-1.974-.192-2.812-.575a4.738 4.738 0 0 1-1.992-1.694c-.483-.739-.725-1.644-.725-2.717 0-.923.178-1.683.533-2.279a3.924 3.924 0 0 1 1.438-1.417 7.54 7.54 0 0 1 2.024-.789 20.192 20.192 0 0 1 2.28-.404l2.387-.277c.61-.079 1.054-.203 1.331-.373.277-.171.416-.448.416-.831v-.075c0-.93-.263-1.651-.789-2.163-.518-.511-1.292-.767-2.322-.767-1.073 0-1.918.238-2.536.714-.61.469-1.033.991-1.267 1.566l-2.994-.682c.355-.994.874-1.796 1.555-2.407a6.31 6.31 0 0 1 2.376-1.343 9.278 9.278 0 0 1 2.823-.426c.654 0 1.346.078 2.078.235a6.074 6.074 0 0 1 2.066.831c.647.404 1.176.983 1.588 1.736.412.746.618 1.715.618 2.909V810h-3.111v-2.237h-.128c-.206.412-.515.817-.927 1.214-.412.398-.941.728-1.587.991s-1.421.394-2.323.394Zm.693-2.557c.881 0 1.633-.174 2.258-.522.633-.348 1.112-.802 1.439-1.363.333-.568.5-1.176.5-1.822v-2.109c-.113.113-.333.22-.66.319-.32.093-.686.174-1.097.245-.412.064-.814.125-1.204.181-.391.05-.718.093-.98.128a7.924 7.924 0 0 0-1.694.394c-.505.185-.909.451-1.215.799-.298.341-.447.796-.447 1.364 0 .788.291 1.385.873 1.79.583.398 1.325.596 2.227.596ZM136.977 810v-21.818h3.185v8.107h.192a8.9 8.9 0 0 1 .799-1.182c.348-.448.831-.839 1.449-1.172.618-.341 1.435-.512 2.45-.512 1.321 0 2.5.334 3.537 1.002 1.037.667 1.85 1.63 2.44 2.887.597 1.257.895 2.77.895 4.538 0 1.769-.295 3.285-.884 4.549-.59 1.257-1.4 2.227-2.429 2.909-1.03.674-2.206 1.012-3.527 1.012-.994 0-1.807-.167-2.439-.501-.625-.334-1.115-.725-1.47-1.172a8.795 8.795 0 0 1-.821-1.193h-.266V810h-3.111Zm3.122-8.182c0 1.151.166 2.159.5 3.026.334.866.817 1.544 1.449 2.035.632.483 1.406.724 2.323.724.951 0 1.747-.252 2.386-.756.639-.512 1.122-1.204 1.449-2.078.334-.873.5-1.857.5-2.951 0-1.079-.163-2.049-.49-2.908-.319-.86-.802-1.538-1.448-2.035-.64-.497-1.439-.746-2.397-.746-.924 0-1.705.238-2.344.714-.632.476-1.112 1.14-1.438 1.992-.327.852-.49 1.847-.49 2.983Zm18.587-13.636V810h-3.185v-21.818h3.185Zm11.338 22.148c-1.612 0-3.001-.344-4.166-1.033-1.157-.696-2.052-1.673-2.684-2.93-.625-1.264-.938-2.745-.938-4.442 0-1.676.313-3.154.938-4.432.632-1.279 1.513-2.276 2.642-2.994 1.136-.717 2.464-1.076 3.984-1.076a8.03 8.03 0 0 1 2.685.458 6.51 6.51 0 0 1 2.333 1.439c.689.653 1.232 1.502 1.63 2.546.398 1.037.597 2.297.597 3.782v1.129h-13.008v-2.386h9.886c0-.838-.17-1.581-.511-2.227a3.88 3.88 0 0 0-1.438-1.545c-.611-.376-1.329-.564-2.152-.564-.895 0-1.677.22-2.344.66a4.428 4.428 0 0 0-1.534 1.705 4.92 4.92 0 0 0-.533 2.269v1.864c0 1.094.192 2.024.575 2.791.391.768.934 1.353 1.63 1.758.696.398 1.51.597 2.44.597.604 0 1.154-.085 1.651-.256.497-.177.927-.44 1.289-.788.362-.348.639-.778.831-1.289l3.015.543a5.45 5.45 0 0 1-1.3 2.333c-.617.661-1.395 1.176-2.333 1.545-.93.362-1.992.543-3.185.543Zm25.387 0c-1.534 0-2.873-.351-4.016-1.054-1.144-.704-2.032-1.687-2.664-2.951-.632-1.265-.948-2.742-.948-4.432 0-1.698.316-3.182.948-4.453.632-1.272 1.52-2.259 2.664-2.962 1.143-.703 2.482-1.055 4.016-1.055 1.534 0 2.873.352 4.016 1.055 1.144.703 2.032 1.69 2.664 2.962.632 1.271.948 2.755.948 4.453 0 1.69-.316 3.167-.948 4.432-.632 1.264-1.52 2.247-2.664 2.951-1.143.703-2.482 1.054-4.016 1.054Zm.011-2.674c.994 0 1.818-.263 2.471-.788.654-.526 1.137-1.225 1.449-2.099.32-.873.48-1.836.48-2.887 0-1.044-.16-2.003-.48-2.876-.312-.881-.795-1.588-1.449-2.12-.653-.533-1.477-.799-2.471-.799-1.002 0-1.833.266-2.493.799-.654.532-1.14 1.239-1.46 2.12-.312.873-.468 1.832-.468 2.876 0 1.051.156 2.014.468 2.887.32.874.806 1.573 1.46 2.099.66.525 1.491.788 2.493.788Zm14.358-7.372V810h-3.186v-16.364h3.058v2.664h.202a4.674 4.674 0 0 1 1.769-2.088c.81-.526 1.829-.789 3.057-.789 1.115 0 2.092.235 2.93.703.838.462 1.488 1.151 1.95 2.067.461.916.692 2.049.692 3.399V810h-3.185v-10.025c0-1.186-.309-2.113-.927-2.78-.618-.675-1.467-1.012-2.546-1.012-.739 0-1.396.159-1.971.479-.568.32-1.019.788-1.353 1.406-.327.611-.49 1.35-.49 2.216Zm37.705-5.209a6.648 6.648 0 0 0-.831-1.737 5.314 5.314 0 0 0-1.225-1.321 5.158 5.158 0 0 0-1.63-.842 6.58 6.58 0 0 0-1.992-.287c-1.229 0-2.337.316-3.324.948-.987.632-1.769 1.559-2.344 2.78-.568 1.215-.852 2.703-.852 4.464 0 1.769.287 3.264.863 4.485.575 1.222 1.363 2.149 2.365 2.781 1.001.632 2.141.948 3.419.948 1.187 0 2.22-.241 3.101-.724a5.052 5.052 0 0 0 2.056-2.046c.49-.888.735-1.932.735-3.132l.852.16h-6.243v-2.717h8.576v2.482c0 1.833-.39 3.424-1.172 4.773a7.975 7.975 0 0 1-3.217 3.111c-1.364.732-2.926 1.097-4.688 1.097-1.974 0-3.707-.454-5.198-1.363-1.485-.909-2.642-2.198-3.473-3.868-.831-1.676-1.247-3.664-1.247-5.965 0-1.74.242-3.303.725-4.688.483-1.385 1.161-2.56 2.034-3.526a8.89 8.89 0 0 1 3.101-2.227c1.193-.518 2.496-.777 3.909-.777 1.179 0 2.277.174 3.292.522a8.887 8.887 0 0 1 2.728 1.48 8.373 8.373 0 0 1 3.057 5.189h-3.377Zm14.342 15.255c-1.534 0-2.873-.351-4.016-1.054-1.144-.704-2.032-1.687-2.664-2.951-.632-1.265-.948-2.742-.948-4.432 0-1.698.316-3.182.948-4.453.632-1.272 1.52-2.259 2.664-2.962 1.143-.703 2.482-1.055 4.016-1.055 1.534 0 2.873.352 4.016 1.055 1.144.703 2.032 1.69 2.664 2.962.632 1.271.948 2.755.948 4.453 0 1.69-.316 3.167-.948 4.432-.632 1.264-1.52 2.247-2.664 2.951-1.143.703-2.482 1.054-4.016 1.054Zm.011-2.674c.994 0 1.818-.263 2.471-.788.654-.526 1.137-1.225 1.449-2.099.32-.873.48-1.836.48-2.887 0-1.044-.16-2.003-.48-2.876-.312-.881-.795-1.588-1.449-2.12-.653-.533-1.477-.799-2.471-.799-1.002 0-1.833.266-2.493.799-.654.532-1.14 1.239-1.46 2.12-.312.873-.468 1.832-.468 2.876 0 1.051.156 2.014.468 2.887.32.874.806 1.573 1.46 2.099.66.525 1.491.788 2.493.788Zm18.065 2.674c-1.534 0-2.873-.351-4.016-1.054-1.144-.704-2.031-1.687-2.663-2.951-.633-1.265-.949-2.742-.949-4.432 0-1.698.316-3.182.949-4.453.632-1.272 1.519-2.259 2.663-2.962 1.143-.703 2.482-1.055 4.016-1.055 1.534 0 2.873.352 4.017 1.055 1.143.703 2.031 1.69 2.663 2.962.632 1.271.948 2.755.948 4.453 0 1.69-.316 3.167-.948 4.432-.632 1.264-1.52 2.247-2.663 2.951-1.144.703-2.483 1.054-4.017 1.054Zm.011-2.674c.994 0 1.818-.263 2.471-.788.654-.526 1.137-1.225 1.449-2.099.32-.873.48-1.836.48-2.887 0-1.044-.16-2.003-.48-2.876-.312-.881-.795-1.588-1.449-2.12-.653-.533-1.477-.799-2.471-.799-1.002 0-1.833.266-2.493.799-.653.532-1.14 1.239-1.46 2.12-.312.873-.468 1.832-.468 2.876 0 1.051.156 2.014.468 2.887.32.874.807 1.573 1.46 2.099.66.525 1.491.788 2.493.788Zm18.033 8.821c-1.299 0-2.418-.17-3.355-.511-.931-.341-1.691-.792-2.28-1.353-.59-.561-1.03-1.175-1.321-1.843l2.738-1.129c.191.312.447.642.767.99.326.356.767.657 1.321.906.561.249 1.282.373 2.162.373 1.208 0 2.206-.295 2.994-.884.788-.583 1.183-1.513 1.183-2.792v-3.217h-.203a7.283 7.283 0 0 1-.831 1.161c-.355.426-.845.796-1.47 1.108-.625.313-1.438.469-2.44.469-1.292 0-2.457-.302-3.494-.906-1.03-.61-1.847-1.509-2.45-2.695-.597-1.193-.895-2.66-.895-4.4 0-1.74.295-3.231.884-4.474.597-1.243 1.413-2.195 2.45-2.855 1.037-.668 2.213-1.002 3.527-1.002 1.015 0 1.836.171 2.461.512.625.333 1.111.724 1.459 1.172.355.447.629.841.82 1.182h.235v-2.653h3.121v16.726c0 1.406-.326 2.561-.98 3.463-.653.902-1.537 1.569-2.653 2.002-1.108.434-2.358.65-3.75.65Zm-.032-9.364c.917 0 1.691-.213 2.323-.639.639-.434 1.122-1.051 1.449-1.854.334-.81.501-1.779.501-2.908 0-1.101-.164-2.071-.491-2.909-.326-.838-.806-1.491-1.438-1.96-.632-.476-1.413-.714-2.344-.714-.958 0-1.757.249-2.397.746-.639.49-1.122 1.158-1.448 2.003-.32.845-.48 1.79-.48 2.834 0 1.072.164 2.013.49 2.823.327.809.81 1.442 1.449 1.896.646.455 1.442.682 2.386.682Zm14.873-18.931V810h-3.186v-21.818h3.186Zm11.338 22.148c-1.613 0-3.001-.344-4.166-1.033-1.158-.696-2.053-1.673-2.685-2.93-.625-1.264-.937-2.745-.937-4.442 0-1.676.312-3.154.937-4.432.632-1.279 1.513-2.276 2.642-2.994 1.137-.717 2.465-1.076 3.985-1.076.923 0 1.818.153 2.684.458a6.504 6.504 0 0 1 2.334 1.439c.688.653 1.232 1.502 1.63 2.546.397 1.037.596 2.297.596 3.782v1.129h-13.008v-2.386h9.887c0-.838-.171-1.581-.512-2.227a3.873 3.873 0 0 0-1.438-1.545c-.611-.376-1.328-.564-2.152-.564-.895 0-1.676.22-2.344.66a4.436 4.436 0 0 0-1.534 1.705 4.92 4.92 0 0 0-.532 2.269v1.864c0 1.094.191 2.024.575 2.791.391.768.934 1.353 1.63 1.758.696.398 1.509.597 2.439.597.604 0 1.155-.085 1.652-.256.497-.177.927-.44 1.289-.788.362-.348.639-.778.831-1.289l3.015.543a5.46 5.46 0 0 1-1.3 2.333c-.618.661-1.396 1.176-2.333 1.545-.93.362-1.992.543-3.185.543Zm18.75-.33v-21.818h13.529v2.834h-10.238v6.647h9.269v2.824h-9.269V810h-3.291Zm23.014.33c-1.535 0-2.873-.351-4.017-1.054-1.143-.704-2.031-1.687-2.663-2.951-.632-1.265-.948-2.742-.948-4.432 0-1.698.316-3.182.948-4.453.632-1.272 1.52-2.259 2.663-2.962 1.144-.703 2.482-1.055 4.017-1.055 1.534 0 2.872.352 4.016 1.055 1.143.703 2.031 1.69 2.663 2.962.632 1.271.948 2.755.948 4.453 0 1.69-.316 3.167-.948 4.432-.632 1.264-1.52 2.247-2.663 2.951-1.144.703-2.482 1.054-4.016 1.054Zm.01-2.674c.995 0 1.818-.263 2.472-.788.653-.526 1.136-1.225 1.449-2.099.319-.873.479-1.836.479-2.887 0-1.044-.16-2.003-.479-2.876-.313-.881-.796-1.588-1.449-2.12-.654-.533-1.477-.799-2.472-.799-1.001 0-1.832.266-2.493.799-.653.532-1.14 1.239-1.459 2.12-.313.873-.469 1.832-.469 2.876 0 1.051.156 2.014.469 2.887.319.874.806 1.573 1.459 2.099.661.525 1.492.788 2.493.788Zm14.358-7.372V810h-3.185v-16.364h3.058v2.664h.202a4.671 4.671 0 0 1 1.768-2.088c.81-.526 1.829-.789 3.058-.789 1.115 0 2.092.235 2.93.703.838.462 1.488 1.151 1.949 2.067.462.916.693 2.049.693 3.399V810h-3.186v-10.025c0-1.186-.309-2.113-.927-2.78-.617-.675-1.466-1.012-2.546-1.012-.738 0-1.395.159-1.971.479-.568.32-1.019.788-1.353 1.406-.326.611-.49 1.35-.49 2.216Zm22.383-6.648v2.557h-8.938v-2.557h8.938Zm-6.541-3.92h3.185v15.479c0 .618.093 1.083.277 1.396.185.305.423.515.714.628.298.107.622.16.97.16.255 0 .479-.017.671-.053l.447-.085.575 2.631a5.324 5.324 0 0 1-.788.213 6.239 6.239 0 0 1-1.278.128 5.62 5.62 0 0 1-2.344-.447 4.033 4.033 0 0 1-1.758-1.449c-.447-.654-.671-1.474-.671-2.461v-16.14Zm22.063 7.915-2.887.512a3.416 3.416 0 0 0-.575-1.055c-.256-.334-.604-.607-1.044-.82-.441-.213-.991-.32-1.651-.32-.902 0-1.655.203-2.259.607-.604.398-.906.913-.906 1.545 0 .547.203.987.608 1.321.405.334 1.058.607 1.96.82l2.599.597c1.506.348 2.628.884 3.367 1.609.738.724 1.108 1.665 1.108 2.823 0 .98-.284 1.854-.852 2.621-.562.76-1.346 1.356-2.355 1.789-1.001.434-2.163.65-3.484.65-1.832 0-3.327-.39-4.485-1.172-1.157-.788-1.868-1.907-2.13-3.355l3.079-.469c.191.802.585 1.41 1.182 1.822.597.404 1.374.607 2.333.607 1.044 0 1.879-.217 2.504-.65.625-.44.937-.977.937-1.609 0-.511-.192-.941-.575-1.289-.377-.348-.955-.611-1.737-.788l-2.769-.607c-1.527-.348-2.657-.902-3.388-1.662-.725-.76-1.087-1.723-1.087-2.887 0-.966.27-1.811.81-2.536.54-.724 1.285-1.289 2.237-1.694.952-.412 2.042-.618 3.271-.618 1.768 0 3.16.384 4.176 1.151 1.015.76 1.686 1.779 2.013 3.057Z"/></svg>