<svg xmlns="http://www.w3.org/2000/svg" width="1912" height="1080" fill="none"><circle cx="216.5" cy="666.5" r="64.5" fill="#D2E3FC"/><circle cx="191.5" cy="898.5" r="64.5" fill="#D2E3FC"/><circle cx="603.5" cy="690.5" r="64.5" fill="#D2E3FC"/><circle cx="879.5" cy="834.5" r="64.5" fill="#D2E3FC"/><circle cx="1175.5" cy="666.5" r="64.5" fill="#D2E3FC"/><circle cx="1481.5" cy="647.5" r="64.5" fill="#D2E3FC"/><circle cx="1695.5" cy="776.5" r="64.5" fill="#D2E3FC"/><path fill="#1A73E8" d="M206.2 122.8c16.4 26.4 35.2 36.8 66.8 36.8 4 0 7.6-.4 15.2-.8-2.4 22.4-3.2 28.8-3.6 35.6-2 23.6-2 23.6-2.4 29.6-23.6 10.4-39.2 20-54 32-25.2 21.2-37.6 42-37.6 62.8 0 8.8 1.6 14.4 7.6 24 4 6.8 4.8 8.4 7.6 15.2 5.2 14 9.6 18.4 19.2 18.4 16 0 43.6-14.8 69.2-38 9.6 24.4 16.4 35.2 23.2 35.2 5.6 0 9.2-7.6 9.2-18.4 0-7.2-1.6-12.4-4.4-16.8-4.8-6.8-4.8-6.8-10-16.8 16.8-15.2 28.8-30 42.8-52 12.8-20.8 19.2-34.4 25.2-54.8 21.6 2.8 35.2 6.8 46.4 14 18.8 12.4 29.2 32.4 29.2 56.8 0 55.6-45.2 97.2-126.4 117.2l1.2 6.4c94-8 156-53.6 156-114.4 0-26.8-9.2-47.6-27.2-63.2-20-16.4-42-24.4-77.6-28.4-3.6-13.2-15.2-24-25.6-24-.8 0-2.4.4-4.4.8 9.6 8.8 12.8 14.4 12.8 22v2.4c-21.6 1.2-41.2 5.2-64 12.8.8-18 4-42.4 7.6-60.4 29.6-4.8 60.4-12 80.4-18.8 26.4-9.2 34.4-14 34.4-21.2 0-4-2.4-7.2-6.4-8.8-4.4-1.6-13.2-3.2-18.8-3.2-4 0-5.6.4-10 4.4-13.6 11.2-37.2 20.4-75.2 28.4 4.8-21.6 7.6-29.2 12.4-36 5.2-6.8 5.2-6.8 5.2-10.4 0-6.4-4.8-11.2-14.8-16.4-10.8-5.2-26-9.2-34.8-9.2-5.2 0-7.2.8-11.6 4.4 19.6 6 26 12.4 26 26.8 0 6.8-2 26.4-4.4 44.4-10.8 1.6-15.6 2-23.2 2-26.8 0-40.4-5.6-56-23.6l-5.2 3.2Zm75.6 115.6v14.4c0 25.2 1.2 38.4 6 64.4-22 18.8-46.8 32.4-59.6 32.4-9.2 0-15.2-9.6-15.2-24.4 0-12.4 4-24.8 12.4-37.6 12.4-19.6 26.4-31.6 56.4-49.2Zm18-8c24.8-9.6 40-13.2 62.8-15.2-11.6 32.8-26 54-57.2 86.4-3.6-16.8-5.6-36.8-5.6-58.4v-12.8ZM713 228c-5.2 8.8-5.2 8.8-11.6 19.2-20.8 34.8-20.8 34.8-33.6 56.4-8.8 14.8-8.8 14.8-13.2 21.2-10-7.6-14.8-14.8-20.8-31.2s-9.2-36.4-9.2-58c0-16.4 2.4-35.2 7.2-59.6.8-4.8 1.2-8 1.2-10.4 0-9.2-6-20-18-31.6-12-12-23.6-19.6-30-19.6h-3.6c17.2 22.4 20 31.6 20.4 68.8 0 42.8.4 52.8 2.8 70.4 4 32 13.6 60.4 27.2 80 12.4 18.4 32.8 34 44 34 4.8 0 8.8-4.4 8.8-10 0-2-.4-4.4-.8-6.4-2.4-10.4-2.4-10.4-2.4-13.6 0-16 8.4-39.6 37.6-106.8l-6-2.8Zm89.2-64.8c22.8 12.4 38.8 29.2 49.6 52.4 6.8 14.4 12.4 37.6 12.4 52.4 0 7.6-1.2 9.2-9.2 12-3.6 1.2-21.6 6.4-54 15.2l1.2 6c13.6-.8 21.2-.8 30.4-.8 17.2 0 24.8 1.2 30 4.8 5.6 3.6 8 4.4 12 4.4 12 0 20-12.4 20-31.6 0-55.2-40-108.4-90.4-119.6l-2 4.8ZM1050.6 145.6c-11.6 0-21.6-.8-34.4-3.2l3.2 15.2c11.6-2 20.8-2.8 30.8-2.8h77.6v222.8c0 5.6-1.2 7.2-6 7.2-30.8-.4-41.6-.8-77.2-3.6l-.4 6.8c22.8 4 36.8 7.2 46 11.2 10.8 4.4 14 8.8 16.8 21.6 40-6.4 48.8-12 49.6-32.8-1.2-53.6-1.6-85.6-1.6-96l-.8-104h2c11.2 38.8 25.2 70 46 102.4 25.2 40 49.6 65.6 93.2 97.6 10-19.6 15.2-24 30.4-26l.8-4.4c-37.2-14.4-59.2-28.8-88.8-58-17.2-16.8-31.6-34-44.8-54.4 40.4-28.8 58-44 84-72.8 4.4.4 8 .4 11.2.4 4.4 0 7.6-2 7.6-4.4 0-1.6-.8-2.8-3.2-4.4-4-2.8-22.4-13.2-36.4-20.8-14.4 32.4-36.4 62.8-68 94-12.8-21.6-20.8-40-33.6-78.4 9.6-3.2 15.6-7.2 15.6-10 0-1.6-1.6-3.2-4.8-5.6-10.4-7.6-14-10-26-18.4-6.8 9.2-9.2 12-16.8 20.8h-72Zm12.8-85.2c40.4 16.4 67.6 31.2 85.6 47.2 9.6 8.8 12 10 16 10 4.8 0 7.6-5.2 7.6-13.6 0-11.6-3.2-19.2-10.8-26-9.2-8-37.2-14.8-96-23.2l-2.4 5.6Zm-99.2 172.4c8.8-1.6 20-2.8 29.2-2.8h72.4c-13.6 34.4-26.4 57.6-47.2 85.6-21.2 28-39.2 46.4-70.8 72.8l4.4 5.2c35.6-21.6 56-37.6 80.4-63.6 24.4-26.4 39.2-48.4 63.2-94.8 11.6-3.2 14.8-5.2 14.8-8 0-1.6-1.2-3.6-4.8-6.4-9.6-8-13.2-10.4-24.4-18.4-7.6 8-10 10.4-17.6 18.4h-69.6c-13.6 0-21.2-.8-33.6-3.6l3.6 15.6ZM1670.6 234v-70.4c3.2-2 5.6-3.6 7.2-4.4 2.4-1.6 4.4-2.8 5.6-4 1.2-1.2 2-2.8 2-4 0-1.6-.8-2.8-3.2-4.4-10-8-13.2-10.4-24-18.8-7.2 8-9.6 10.4-16.8 18.4h-49.6c6-22.8 9.2-38 10.8-44.8.8-2.8 1.6-7.2 2.8-12.8h106c2.8 0 4.8-1.2 4.8-2.8 0-.8-.8-2-2-3.6-15.2-13.2-20-17.2-35.6-28.8-9.2 11.2-12 14.8-20.8 26h-111.6c-11.2 0-28.4-1.6-37.2-4l3.2 15.6c11.2-1.6 21.2-2.4 34-2.4h32.4c-4.8 25.2-9.2 44.4-12.4 57.6h-20c-15.6 0-21.6-.8-34-3.2l3.2 14c17.2-1.6 17.2-1.6 30.8-1.6h18c-3.6 13.6-3.6 13.6-22.4 78.4h-8.4c-17.2 0-21.2-.4-33.2-3.2l3.2 15.2c11.2-2 22-2.8 30-2.8h194c2.8 0 4.4-.8 4.4-2.4 0-.8-.4-2-1.6-3.6-12.8-12.4-16.8-16-30.8-28-9.2 10.4-12 13.6-20 24.8h-8.8Zm-25.6 0h-76.8c11.2-37.2 11.2-37.2 21.6-78.4h55.2V234ZM1369.8 91.2c10.4-2 14.8-2.4 25.6-2.4h95.2c3.6 0 4.4-.4 4.4-2.4 0-.8-.4-1.6-1.2-2.8-13.2-13.2-17.6-16.8-31.6-27.2-9.2 10-11.6 13.2-19.6 23.2h-47.2c-9.6 0-17.2-.8-28.4-3.2l2.8 14.8Zm-12.4 54.8c12.8-2 19.6-2.8 28.8-2.8h116.4c1.6 0 3.6-1.2 3.6-2.8 0-.8-.4-1.6-1.6-2.8-14.4-12.8-19.2-16.8-34-28-8.8 10.4-11.6 13.6-20 24.4h-64.4c-12.8 0-20.8-.8-32-3.6l3.2 15.6Zm14.8 54c10-2 14.4-2.4 20.8-2.4h96.8c2.4 0 4.4-1.2 4.4-2.8 0-.8-.8-1.6-2-3.2-12.4-11.2-16.4-14.8-30-25.6-8 9.6-10.4 12.4-18.4 22.4H1393c-7.6 0-16-.8-23.6-2.8l2.8 14.4Zm0 53.2c9.2-2 13.6-2.4 20.8-2.4h96.8c2 0 4-1.2 4-2.4 0-.8-.4-2-1.6-3.2-12-11.6-16-15.2-29.2-26.8-8 10-10.4 13.2-17.6 23.2h-51.2c-8.4 0-13.6-.8-24.4-2.8l2.4 14.4Zm27.6 141.6h58.4v16.8c0 4 2 5.6 6 5.6 18-1.2 20.8-2.4 20.8-9.2-.8-29.2-1.2-46.8-1.2-72.8v-20.8c12.4-8.4 13.2-9.2 13.2-11.2 0-1.2-.8-2.4-3.6-4.8-9.2-7.6-12.4-9.6-23.2-17.2-7.6 7.2-9.6 9.6-17.2 18h-50.4c-12.8-8.8-16.8-11.2-30-18 1.2 16.4 1.6 24.8 1.6 39.2 0 44.8-.4 72.4-2 95.6v.8c0 3.6 2.4 4.8 8.4 4.8 14.8 0 18.8-1.6 19.2-6.8v-20Zm0-86.4h58.4v77.2h-58.4v-77.2Zm152.4 86.4h108.4V416c.4 3.2 2.4 4.4 7.2 4.4 16 0 20.4-2 20.8-8.8-1.2-22-1.6-43.2-1.6-74.8v-31.6c11.2-7.2 12.4-8.4 12.4-10.8 0-1.6-.8-2.8-3.2-5.2-9.6-8-12.8-10.4-23.6-18-6.8 7.6-8.8 10-14.4 18h-104.4c-11.6-7.2-15.2-9.2-28-16 1.2 17.6 1.2 23.6 1.2 57.6 0 40 0 50.4-.8 85.6 0 3.6 1.6 5.2 6 5.2h4.4c12.4-.4 15.2-1.6 15.6-6.8v-20Zm0-96.4h108.4v87.2h-108.4v-87.2ZM200.199 669.6c17.2 26.4 31.6 34 57.6 34 11.6 0 24.4-.8 36.4-2-2.8 18.4-5.6 38.8-7.6 57.2-46 24-98.4 71.6-98.4 124 0 21.2 10 31.2 28 31.2 24 0 53.2-13.2 82-38 4.8 12 11.2 20 18.4 20 6.8 0 12-3.2 12-10.8 0-8.4-4.8-17.2-10-28.8 33.2-34 62.4-76 76.8-107.2 45.2 6 72 39.2 72 77.6 0 62.4-60.4 98.4-158 111.2l1.6 8.8c104.4-2.4 184-37.2 184-112.8 0-44.8-34-89.6-95.2-96.8 1.2-5.6.4-9.6-3.2-14-8-8.8-20.4-13.6-34.8-17.2l-4 6.8c14.8 8 21.2 13.2 20 23.2-26.4.4-51.6 6-71.2 13.6 2-16.8 5.2-34.8 8.4-50.8 43.2-6.8 90.4-20.8 107.2-28 7.2-3.2 9.2-6.4 9.2-11.6 0-6.8-7.6-11.2-21.2-11.2-7.2 0-35.2 18.8-90.4 29.6l4.4-17.6c3.6-14 10.8-15.2 10.8-23.6 0-7.6-20.4-21.2-43.2-21.2-4.8 0-13.2 2-20 3.6l-.4 8.4c8.4.8 16.4 2 23.6 4.4 5.6 2.4 7.2 4 7.2 10.8 0 6.8-2 21.2-4.8 38.8-12 1.6-24.4 2.4-36.8 2.4-20 0-32.8-3.2-54-20.4l-6.4 6.4Zm174 78.4c-11.2 26-37.2 62-62.8 89.2-4-13.2-7.2-29.6-7.2-51.6l.8-20.4c23.2-10.8 44.4-16.4 69.2-17.2Zm-82 107.6c-22 18.8-48.8 33.6-68.8 33.6-9.6 0-13.6-4.4-13.6-15.2 0-27.6 30-70 75.6-98.4l-.4 14.8c0 21.2 2.4 45.6 7.2 65.2ZM602.199 715.2c0 18-2.4 45.6-1.6 74.4 1.2 76.4 42.8 111.2 74 124.8 16.4 6.8 27.2.4 27.2-10.4 0-8.4-6.4-10.4-2.8-28.4 2.4-12.4 15.2-46 24.4-72.4l-10.4-4.8c-11.6 24.8-25.2 54.4-37.6 73.2-3.6 5.2-8 6-14 2.8-16.8-8.8-40-34.8-40-85.6 0-41.2 13.6-66.4 13.6-84 0-16.4-20.8-34.4-35.2-41.2-7.6-3.2-15.6-4.8-25.2-6.4l-3.6 6.4c28.4 20 31.2 30 31.2 51.6Zm186.4-10c26.4 10 48 24.8 62 48.4 16.8 28.4 20 62.4 22.8 80 1.6 9.2 6.4 14 12.8 14 10.8 0 16-6.8 16-22.4 0-26.8-12-66.4-34.8-90-18-18.8-37.6-32.8-75.2-39.6l-3.6 9.6ZM1068.2 596.4l-1.6 6c52 15.6 90.8 42 105.6 60.8 31.2 11.2 37.2-56-104-66.8ZM959.799 755.2l3.6 11.2h98.001c-16 62-52.8 122-110.801 159.2l3.6 6C1029.4 894.8 1068.6 834 1089 769.2c9.2-.4 12.8-1.6 16-5.2l-28-24.8-16.8 16H959.799ZM1265 692c-17.6 25.6-51.6 63.6-82.8 89.6-12.4-22.8-22.4-48.8-29.2-79.6v-1.2c8.4-1.6 15.2-4.8 18-8.4l-34.8-26-13.6 16.8h-104.4l3.6 12h104.8v223.6c0 6.4-2 9.6-10.4 9.6-9.6 0-56.8-4-56.8-4v6.4c20.4 2.8 31.6 6 38.8 10.4 6 4 8.4 10.8 9.6 19.2 40.4-4 45.2-18 45.2-38.4V727.6c25.6 110.4 78.4 164.4 146.8 204 3.6-12.8 12.4-21.6 23.6-23.2l1.2-4c-52-22-103.6-55.6-138.8-115.6 37.6-20.8 76.8-50.4 99.6-72 8.8 2.8 12.4 1.2 15.2-2.8l-35.6-22ZM1365.8 622.4l3.2 11.2h106.4c5.6 0 9.2-2 10.4-6.4-12-11.2-31.2-26.4-31.2-26.4l-17.2 21.6h-71.6Zm1.2 100.8 3.2 11.6h108c5.6 0 9.2-2 10-6-10.8-10.8-28.8-25.2-28.8-25.2l-15.6 19.6H1367Zm0 51.2 3.2 11.6h108c5.6 0 9.2-2 10-6-10.8-11.2-28.8-25.6-28.8-25.6l-15.6 20H1367Zm-15.2-102 3.2 11.6h141.6c5.6 0 9.2-2 10.4-6.4-12-11.2-31.6-26.8-31.6-26.8l-17.2 21.6h-106.4Zm166 16.8 3.6 11.6h42.4c-5.2 26.8-10.4 54-14.8 74.8h-50.8l3.2 11.6H1715c5.6 0 9.2-2 10.4-6.4-10.4-12-29.2-29.2-29.2-29.2l-15.6 24h-8.8v-70.4c7.6-1.2 14.4-4.4 16.8-7.6l-30.8-23.6-14.8 15.2h-52.8l9.6-53.6h97.6c5.6 0 9.6-2 10.4-6.4-12.4-12-33.2-28-33.2-28l-18 22.8h-146l3.2 11.6h61.2l-9.2 53.6h-48Zm55.2 86.4c4.8-20.8 10-47.6 15.2-74.8h58.8v74.8h-74Zm91.2 60.8v82h-110.8v-82h110.8Zm-136-11.6v136h3.6c10.8 0 21.6-6 21.6-8.8v-21.6h110.8v28h4c8.8 0 21.6-6.4 22-9.2v-108c7.6-1.6 14-4.8 16.8-7.6l-32-24.8-14.4 16h-105.2l-27.2-12.4v12.4Zm-74.4 12.8v79.6h-61.6v-79.6h61.6Zm-86-11.6v135.2h3.6c10.4 0 20.8-6 20.8-8.4v-23.6h61.6v20.4h3.6c8.4 0 20.8-6 20.8-8.4V842c8-1.6 14-4.8 16.8-7.6l-31.2-24-14 15.6h-55.6l-26.4-12.4V826Z"/><path fill="#FF6D7F" d="M212.284 993.182V1015h-4.943l-7.884-11.46h-.127V1015h-5.924v-21.818h5.029l7.755 11.418h.171v-11.418h5.923Zm10.771 22.118c-1.776 0-3.296-.35-4.56-1.06-1.264-.71-2.234-1.69-2.908-2.96-.675-1.27-1.012-2.74-1.012-4.42 0-1.68.337-3.15 1.012-4.41a7.158 7.158 0 0 1 2.908-2.961c1.264-.711 2.784-1.066 4.56-1.066 1.775 0 3.295.355 4.559 1.066a7.16 7.16 0 0 1 2.909 2.961c.674 1.26 1.012 2.73 1.012 4.41 0 1.68-.338 3.15-1.012 4.42a7.211 7.211 0 0 1-2.909 2.96c-1.264.71-2.784 1.06-4.559 1.06Zm.042-4.35c.497 0 .927-.17 1.289-.5.363-.33.643-.81.842-1.43.199-.61.298-1.35.298-2.2 0-.86-.099-1.6-.298-2.21-.199-.61-.479-1.09-.842-1.42a1.82 1.82 0 0 0-1.289-.51c-.525 0-.976.17-1.353.51-.376.33-.664.81-.863 1.42-.198.61-.298 1.35-.298 2.21 0 .85.1 1.59.298 2.2.199.62.487 1.1.863 1.43.377.33.828.5 1.353.5Zm20.583-12.314v4.264h-10.782v-4.264h10.782Zm-8.693-3.92h5.88v15.024c0 .22.039.42.117.57.078.15.199.27.363.34.163.07.372.11.628.11.178 0 .384-.02.618-.06.242-.05.419-.08.533-.11l.852 4.13c-.263.08-.639.18-1.129.29-.483.11-1.059.19-1.726.22-1.35.08-2.482-.06-3.399-.41-.916-.36-1.605-.91-2.066-1.67-.462-.76-.686-1.72-.671-2.86v-15.574Zm18.8 20.584c-1.775 0-3.295-.35-4.56-1.06a7.215 7.215 0 0 1-2.908-2.96c-.675-1.27-1.012-2.74-1.012-4.42 0-1.68.337-3.15 1.012-4.41a7.164 7.164 0 0 1 2.908-2.961c1.265-.711 2.785-1.066 4.56-1.066 1.776 0 3.296.355 4.56 1.066a7.164 7.164 0 0 1 2.908 2.961c.675 1.26 1.012 2.73 1.012 4.41 0 1.68-.337 3.15-1.012 4.42a7.215 7.215 0 0 1-2.908 2.96c-1.264.71-2.784 1.06-4.56 1.06Zm.043-4.35c.497 0 .927-.17 1.289-.5.362-.33.643-.81.841-1.43.199-.61.299-1.35.299-2.2 0-.86-.1-1.6-.299-2.21-.198-.61-.479-1.09-.841-1.42a1.82 1.82 0 0 0-1.289-.51c-.526 0-.977.17-1.353.51-.377.33-.664.81-.863 1.42-.199.61-.298 1.35-.298 2.21 0 .85.099 1.59.298 2.2.199.62.486 1.1.863 1.43.376.33.827.5 1.353.5Zm28.476-10.95c-.057-.71-.323-1.264-.799-1.662-.468-.398-1.182-.597-2.141-.597-.611 0-1.112.075-1.502.224-.384.142-.668.338-.852.586a1.447 1.447 0 0 0-.288.852c-.014.263.032.501.138.717.114.2.292.39.533.56.242.17.55.31.927.45.376.13.824.25 1.342.36l1.79.39c1.207.25 2.241.59 3.1 1.01.86.42 1.563.91 2.11 1.48.546.56.948 1.19 1.203 1.89.263.71.398 1.47.405 2.31-.007 1.43-.366 2.64-1.076 3.64-.71.99-1.726 1.75-3.047 2.27-1.314.52-2.894.78-4.74.78-1.897 0-3.552-.28-4.965-.85-1.406-.56-2.5-1.42-3.281-2.58-.774-1.18-1.165-2.68-1.172-4.5h5.625c.035.67.202 1.23.501 1.68.298.46.717.8 1.257 1.04.547.23 1.196.35 1.949.35.632 0 1.162-.08 1.588-.24.426-.15.749-.37.969-.65.22-.27.334-.59.341-.94a1.354 1.354 0 0 0-.33-.88c-.206-.25-.547-.48-1.023-.68-.476-.21-1.119-.4-1.928-.58l-2.173-.46c-1.932-.42-3.456-1.12-4.571-2.1-1.108-.99-1.658-2.34-1.651-4.04-.007-1.385.362-2.596 1.108-3.633.753-1.044 1.793-1.858 3.121-2.44 1.336-.582 2.866-.873 4.592-.873 1.761 0 3.285.294 4.57.884 1.286.589 2.277 1.42 2.973 2.493.703 1.065 1.058 2.311 1.065 3.739h-5.668Zm16.146 15.3c-1.748 0-3.253-.34-4.518-1a7.037 7.037 0 0 1-2.908-2.9c-.675-1.27-1.012-2.78-1.012-4.54 0-1.69.341-3.17 1.023-4.43a7.27 7.27 0 0 1 2.887-2.952c1.243-.703 2.709-1.055 4.4-1.055 1.235 0 2.354.192 3.356.576a7.04 7.04 0 0 1 2.567 1.671c.71.73 1.257 1.61 1.641 2.64.383 1.04.575 2.21.575 3.51v1.36h-14.617v-3.24h9.205a2.223 2.223 0 0 0-.362-1.23 2.26 2.26 0 0 0-.927-.84c-.384-.21-.82-.31-1.31-.31-.476 0-.913.1-1.311.31-.398.19-.717.47-.959.83-.234.35-.358.77-.373 1.24v3.5c0 .52.111.99.331 1.4.22.42.536.74.948.97.412.24.909.35 1.491.35.405 0 .775-.05 1.108-.17.341-.11.632-.27.874-.49.241-.22.419-.48.533-.78h5.369c-.185 1.13-.622 2.12-1.31 2.96-.689.83-1.602 1.47-2.738 1.94-1.13.45-2.451.68-3.963.68Zm10.411-.3v-16.364h5.71v3.114h.17c.299-1.15.771-1.995 1.417-2.528.654-.532 1.417-.799 2.291-.799.255 0 .507.022.756.064.256.036.501.089.735.16v5.013a6.04 6.04 0 0 0-1.076-.22 9.486 9.486 0 0 0-1.097-.07c-.575 0-1.094.13-1.556.39-.454.26-.813.62-1.076 1.09-.262.46-.394 1-.394 1.63v8.52h-5.88Zm13.007 0v-16.364h5.881V1015h-5.881Zm2.941-18.068c-.796 0-1.478-.263-2.046-.789-.568-.525-.852-1.157-.852-1.896 0-.738.284-1.371.852-1.896.568-.526 1.25-.789 2.046-.789.802 0 1.484.263 2.045.789.568.525.852 1.158.852 1.896 0 .739-.284 1.371-.852 1.896-.561.526-1.243.789-2.045.789Zm15.737 1.704v4.264h-10.951v-4.264h10.951ZM331.685 1015v-16.832c0-1.35.241-2.468.724-3.356a4.652 4.652 0 0 1 2.046-1.992c.88-.441 1.917-.661 3.111-.661.745 0 1.47.057 2.173.171.71.113 1.236.213 1.577.298l-.853 4.219a4.632 4.632 0 0 0-.745-.15 5.197 5.197 0 0 0-.746-.063c-.554 0-.927.117-1.119.351-.192.234-.287.543-.287.927V1015h-5.881Zm26.015-21.818h5.839v14.958c-.008 1.42-.366 2.67-1.076 3.75-.704 1.07-1.677 1.91-2.919 2.51-1.236.6-2.66.9-4.273.9-1.399 0-2.677-.24-3.835-.73a6.058 6.058 0 0 1-2.77-2.3c-.689-1.05-1.029-2.41-1.022-4.09h5.923c.021.55.114 1.01.277 1.39.17.37.405.66.703.85.305.18.675.28 1.108.28.44 0 .81-.1 1.108-.29.305-.19.536-.48.692-.85.157-.39.238-.86.245-1.42v-14.958Zm8.646 21.818v-21.818h9.417c1.62 0 3.037.319 4.251.959a6.954 6.954 0 0 1 2.834 2.695c.675 1.158 1.012 2.511 1.012 4.054 0 1.57-.348 2.92-1.044 4.06-.689 1.15-1.659 2.03-2.909 2.65-1.242.61-2.695.92-4.357.92h-5.625v-4.6h4.432c.696 0 1.289-.12 1.779-.36.497-.25.877-.6 1.14-1.06.27-.45.405-.99.405-1.61 0-.62-.135-1.153-.405-1.593a2.543 2.543 0 0 0-1.14-1.023c-.49-.241-1.083-.362-1.779-.362h-2.088V1015h-5.923Z"/><path fill="#1A73E8" d="M193.406 476v-21.818h5.924v8.523h7.84v-8.523h5.924V476h-5.924v-8.523h-7.84V476h-5.924Zm22.585 0v-16.364h5.881V476h-5.881Zm2.941-18.068c-.796 0-1.477-.263-2.046-.789-.568-.525-.852-1.157-.852-1.896 0-.738.284-1.371.852-1.896.569-.526 1.25-.789 2.046-.789.802 0 1.484.263 2.045.789.568.525.853 1.158.853 1.896 0 .739-.285 1.371-.853 1.896-.561.526-1.243.789-2.045.789ZM224.868 476v-16.364h5.711v3.111h.17c.298-1.15.771-1.992 1.417-2.525.653-.532 1.417-.799 2.29-.799.256 0 .508.022.757.064.256.036.501.089.735.16v5.018c-.291-.1-.65-.174-1.076-.224a9.62 9.62 0 0 0-1.097-.075c-.576 0-1.094.132-1.556.395a2.781 2.781 0 0 0-1.076 1.086c-.262.462-.394 1.005-.394 1.63V476h-5.881Zm16.806.256c-1.044 0-1.967-.171-2.77-.512a4.168 4.168 0 0 1-1.875-1.576c-.454-.704-.682-1.598-.682-2.685 0-.895.153-1.658.459-2.291a4.122 4.122 0 0 1 1.278-1.566 6.056 6.056 0 0 1 1.907-.926c.731-.213 1.52-.352 2.365-.416.916-.071 1.651-.156 2.205-.256.561-.106.966-.252 1.215-.436a.912.912 0 0 0 .373-.757v-.042c0-.427-.164-.753-.49-.981-.327-.227-.746-.34-1.258-.34-.561 0-1.019.124-1.374.372-.348.242-.557.615-.628 1.119h-5.412c.071-.994.387-1.91.948-2.749.568-.845 1.395-1.519 2.482-2.024 1.087-.511 2.443-.767 4.07-.767 1.172 0 2.223.139 3.153.416.93.27 1.722.65 2.376 1.14.653.483 1.15 1.051 1.491 1.704.348.647.522 1.35.522 2.11V476h-5.497v-2.301h-.128c-.326.611-.724 1.104-1.193 1.481-.462.376-.991.65-1.587.82-.59.17-1.24.256-1.95.256Zm1.918-3.708c.447 0 .866-.092 1.257-.277a2.41 2.41 0 0 0 .969-.799c.249-.348.373-.77.373-1.267v-1.364a6.863 6.863 0 0 1-.5.181 9.603 9.603 0 0 1-1.172.298c-.213.043-.437.082-.672.118-.454.071-.827.188-1.118.351a1.658 1.658 0 0 0-.639.586 1.473 1.473 0 0 0-.203.767c0 .455.16.803.48 1.044.319.242.728.362 1.225.362Zm19.131 9.929c-1.641 0-3.047-.234-4.219-.703-1.165-.462-2.07-1.101-2.717-1.917a5.006 5.006 0 0 1-1.076-2.792h5.668c.057.348.199.629.426.842.227.213.519.366.874.458.362.099.767.149 1.214.149.76 0 1.389-.184 1.886-.554.504-.369.756-1.037.756-2.003v-2.769h-.17a3.59 3.59 0 0 1-.98 1.416 4.6 4.6 0 0 1-1.588.885 6.639 6.639 0 0 1-2.035.298 6.558 6.558 0 0 1-3.217-.81c-.973-.54-1.754-1.395-2.344-2.567-.582-1.172-.873-2.703-.873-4.592 0-1.974.305-3.579.916-4.815.618-1.236 1.413-2.141 2.386-2.717.98-.575 2.01-.863 3.09-.863.809 0 1.52.142 2.13.426.611.277 1.123.65 1.535 1.119.412.462.724.969.937 1.523h.128v-2.855h5.881v16.321c0 1.385-.359 2.561-1.076 3.527-.711.973-1.712 1.715-3.005 2.226-1.292.512-2.801.767-4.527.767Zm.213-10.866c.539 0 1.001-.149 1.385-.448.39-.305.689-.738.895-1.299.213-.569.319-1.25.319-2.046 0-.809-.106-1.502-.319-2.077-.206-.583-.505-1.027-.895-1.332-.384-.312-.846-.469-1.385-.469-.54 0-1.002.157-1.385.469-.377.305-.668.749-.874 1.332-.199.575-.298 1.268-.298 2.077 0 .81.099 1.499.298 2.067.206.561.497.991.874 1.289.383.291.845.437 1.385.437ZM274.322 476v-16.364h5.88V476h-5.88Zm2.94-18.068c-.796 0-1.477-.263-2.046-.789-.568-.525-.852-1.157-.852-1.896 0-.738.284-1.371.852-1.896.569-.526 1.25-.789 2.046-.789.802 0 1.484.263 2.045.789.569.525.853 1.158.853 1.896 0 .739-.284 1.371-.853 1.896-.561.526-1.243.789-2.045.789Zm11.817 8.863V476h-5.88v-16.364h5.582v3.111h.17c.355-1.037.98-1.85 1.875-2.439.902-.59 1.953-.885 3.154-.885 1.157 0 2.162.267 3.015.799a5.313 5.313 0 0 1 1.992 2.174c.476.923.71 1.978.703 3.164V476h-5.881v-9.205c.007-.809-.199-1.445-.618-1.907-.412-.461-.987-.692-1.725-.692-.483 0-.906.107-1.268.32a2.05 2.05 0 0 0-.821.895c-.191.383-.291.845-.298 1.384Zm21.398 9.503c-1.776 0-3.296-.351-4.56-1.054a7.256 7.256 0 0 1-2.908-2.962c-.675-1.271-1.013-2.745-1.013-4.421 0-1.676.338-3.147 1.013-4.411a7.164 7.164 0 0 1 2.908-2.961c1.264-.711 2.784-1.066 4.56-1.066 1.775 0 3.295.355 4.559 1.066a7.173 7.173 0 0 1 2.909 2.961c.674 1.264 1.012 2.735 1.012 4.411 0 1.676-.338 3.15-1.012 4.421a7.264 7.264 0 0 1-2.909 2.962c-1.264.703-2.784 1.054-4.559 1.054Zm.042-4.346c.497 0 .927-.167 1.289-.501.362-.334.643-.81.842-1.428.199-.617.298-1.353.298-2.205 0-.859-.099-1.594-.298-2.205-.199-.618-.48-1.094-.842-1.428a1.84 1.84 0 0 0-1.289-.5c-.525 0-.976.167-1.353.5-.376.334-.664.81-.863 1.428-.199.611-.298 1.346-.298 2.205 0 .852.099 1.588.298 2.205.199.618.487 1.094.863 1.428.377.334.828.501 1.353.501Zm16.715-17.77h7.373l5.071 12.358h.255l5.071-12.358h7.372V476h-5.795v-12.614h-.17l-4.858 12.444h-3.495l-4.858-12.529h-.17V476h-5.796v-21.818ZM355.269 476v-16.364h5.881V476h-5.881Zm2.94-18.068c-.795 0-1.477-.263-2.045-.789-.568-.525-.853-1.157-.853-1.896 0-.738.285-1.371.853-1.896.568-.526 1.25-.789 2.045-.789.803 0 1.485.263 2.046.789.568.525.852 1.158.852 1.896 0 .739-.284 1.371-.852 1.896-.561.526-1.243.789-2.046.789Zm11.817 8.863V476h-5.88v-16.364h5.582v3.111h.171c.355-1.037.98-1.85 1.875-2.439.902-.59 1.953-.885 3.153-.885 1.158 0 2.163.267 3.015.799a5.313 5.313 0 0 1 1.992 2.174c.476.923.71 1.978.703 3.164V476h-5.88v-9.205c.007-.809-.199-1.445-.618-1.907-.412-.461-.988-.692-1.726-.692-.483 0-.906.107-1.268.32a2.049 2.049 0 0 0-.82.895c-.192.383-.291.845-.299 1.384Zm21.398 9.503c-1.776 0-3.296-.351-4.56-1.054a7.262 7.262 0 0 1-2.908-2.962c-.675-1.271-1.012-2.745-1.012-4.421 0-1.676.337-3.147 1.012-4.411a7.17 7.17 0 0 1 2.908-2.961c1.264-.711 2.784-1.066 4.56-1.066 1.605 0 2.993.291 4.165.874 1.179.575 2.092 1.392 2.738 2.45.647 1.051.973 2.287.98 3.708h-5.454c-.078-.86-.327-1.513-.746-1.961-.412-.454-.945-.682-1.598-.682-.511 0-.959.15-1.342.448-.384.291-.682.735-.895 1.332-.213.589-.32 1.331-.32 2.226s.107 1.641.32 2.237c.213.59.511 1.034.895 1.332.383.291.831.437 1.342.437.433 0 .817-.1 1.151-.298.333-.206.603-.505.809-.895.213-.398.341-.881.384-1.449h5.454c-.021 1.442-.351 2.699-.99 3.771-.64 1.065-1.545 1.889-2.717 2.472-1.165.582-2.557.873-4.176.873Zm16.19-9.503V476h-5.88v-21.818h5.667v8.565h.171c.369-1.044.983-1.857 1.843-2.439.859-.59 1.893-.885 3.1-.885 1.158 0 2.163.263 3.015.789a5.31 5.31 0 0 1 1.992 2.173c.476.923.71 1.981.703 3.175V476h-5.881v-9.205c.008-.809-.195-1.445-.607-1.907-.405-.461-.983-.692-1.736-.692-.476 0-.895.107-1.257.32a2.108 2.108 0 0 0-.831.895c-.192.383-.292.845-.299 1.384Zm21.398 9.503c-1.776 0-3.296-.351-4.56-1.054a7.256 7.256 0 0 1-2.908-2.962c-.675-1.271-1.012-2.745-1.012-4.421 0-1.676.337-3.147 1.012-4.411a7.164 7.164 0 0 1 2.908-2.961c1.264-.711 2.784-1.066 4.56-1.066 1.775 0 3.295.355 4.559 1.066a7.167 7.167 0 0 1 2.909 2.961c.674 1.264 1.012 2.735 1.012 4.411 0 1.676-.338 3.15-1.012 4.421a7.258 7.258 0 0 1-2.909 2.962c-1.264.703-2.784 1.054-4.559 1.054Zm.042-4.346c.497 0 .927-.167 1.289-.501.363-.334.643-.81.842-1.428.199-.617.298-1.353.298-2.205 0-.859-.099-1.594-.298-2.205-.199-.618-.479-1.094-.842-1.428a1.84 1.84 0 0 0-1.289-.5c-.525 0-.976.167-1.353.5-.376.334-.664.81-.863 1.428-.198.611-.298 1.346-.298 2.205 0 .852.1 1.588.298 2.205.199.618.487 1.094.863 1.428.377.334.828.501 1.353.501Z"/></svg>