<svg xmlns="http://www.w3.org/2000/svg" width="1920" height="1080" fill="none"><path fill="#1A73E8" d="M210.84 284.66c-.6-3.84-1.56-8.1-2.88-12.78-1.32-4.8-3-9.12-5.04-12.96 6.84 0 12.06-.3 15.66-.9 3.72-.6 6.24-1.74 7.56-3.42 1.44-1.68 2.16-4.02 2.16-7.02 0-1.2-.12-4.92-.36-11.16-.24-6.36-.48-13.92-.72-22.68-8.76 11.4-19.26 21.78-31.5 31.14-12.12 9.36-24.6 17.16-37.44 23.4-1.8-3.84-4.26-7.74-7.38-11.7-3.12-3.96-6.24-7.14-9.36-9.54 7.68-3.12 15.66-7.32 23.94-12.6 8.4-5.28 16.44-11.16 24.12-17.64 7.8-6.6 14.52-13.32 20.16-20.16-8.64.24-16.8.54-24.48.9-7.56.24-13.98.54-19.26.9-5.28.24-8.88.48-10.8.72l-1.44-25.56c3.48.24 8.94.36 16.38.36 7.44 0 16.02-.06 25.74-.18 9.72-.24 19.68-.48 29.88-.72l-1.26-37.44h27.18l1.26 36.54c9.24-.36 17.64-.72 25.2-1.08 7.68-.36 13.5-.78 17.46-1.26v25.56c-2.28-.24-7.26-.3-14.94-.18-7.68 0-16.68.12-27 .36.36 8.76.66 17.16.9 25.2s.42 14.82.54 20.34c.24 5.4.36 8.64.36 9.72.36 8.64-1.02 15.42-4.14 20.34-3 4.92-7.86 8.4-14.58 10.44-6.72 2.04-15.36 3.06-25.92 3.06ZM328.2 224c.12-2.16.12-4.98 0-8.46V205.1c0-3.48-.06-6.3-.18-8.46 1.68.12 5.34.3 10.98.54 5.64.12 12.54.24 20.7.36 8.16 0 16.98.06 26.46.18h55.8c8.52-.12 15.78-.24 21.78-.36 6-.24 10.08-.48 12.24-.72-.12 1.92-.24 4.68-.36 8.28v10.44c.12 3.48.18 6.24.18 8.28-2.76-.12-7.02-.24-12.78-.36-5.76-.24-12.54-.42-20.34-.54-7.8-.12-16.14-.18-25.02-.18h-26.82c-9 0-17.64.06-25.92.18-8.16.12-15.42.3-21.78.54-6.36.12-11.34.36-14.94.72ZM592.44 270.26l-14.58-11.34c.36-1.8.6-5.46.72-10.98.24-5.64.36-12.66.36-21.06.12-8.52.18-17.94.18-28.26 0-12.72-.12-22.74-.36-30.06-.24-7.44-.54-13.2-.9-17.28h28.62c-.36 3.12-.66 8.88-.9 17.28-.12 8.4-.18 17.94-.18 28.62v36.36c5.04-2.16 10.38-4.74 16.02-7.74 5.76-3 11.4-6.12 16.92-9.36 5.52-3.36 10.56-6.66 15.12-9.9 4.56-3.36 8.28-6.42 11.16-9.18 0 3 .18 6.6.54 10.8.36 4.08.84 7.98 1.44 11.7.6 3.6 1.2 6.3 1.8 8.1-4.08 3.36-9.3 7.08-15.66 11.16-6.36 4.08-13.2 8.1-20.52 12.06a522.25 522.25 0 0 1-21.42 10.98c-6.96 3.36-13.08 6.06-18.36 8.1Zm-77.4 2.34c-2.16-3.48-5.1-7.14-8.82-10.98-3.72-3.96-7.32-7.32-10.8-10.08 10.2-5.28 18.24-10.92 24.12-16.92 6-6.12 10.26-12.9 12.78-20.34 2.64-7.56 3.96-16.02 3.96-25.38.12-9.36-.6-19.98-2.16-31.86l25.92-2.16c2.64 19.08 3 35.94 1.08 50.58s-6.6 27.48-14.04 38.52c-7.32 10.92-18 20.46-32.04 28.62ZM738.6 284.84V137.06h27.18v54.9l8.64-12.42c2.88 2.04 6.72 4.68 11.52 7.92 4.92 3.12 10.14 6.36 15.66 9.72 5.64 3.24 10.98 6.24 16.02 9 5.16 2.76 9.42 4.74 12.78 5.94-1.92 1.8-4.02 4.2-6.3 7.2a93.087 93.087 0 0 0-6.3 9c-1.92 3.12-3.42 5.88-4.5 8.28-2.64-1.44-6-3.36-10.08-5.76-3.96-2.52-8.22-5.22-12.78-8.1-4.44-3-8.82-5.94-13.14-8.82-4.32-3-8.16-5.76-11.52-8.28v79.2H738.6Zm71.82-108.72c-2.16-3.84-4.92-7.8-8.28-11.88-3.24-4.2-6.24-7.62-9-10.26l11.88-9c1.56 1.44 3.48 3.54 5.76 6.3 2.4 2.76 4.68 5.58 6.84 8.46 2.28 2.76 4.02 5.16 5.22 7.2l-12.42 9.18Zm17.64-13.5c-2.16-3.84-4.92-7.8-8.28-11.88-3.24-4.08-6.24-7.44-9-10.08l11.88-9c1.56 1.44 3.48 3.54 5.76 6.3 2.4 2.64 4.68 5.4 6.84 8.28 2.28 2.76 4.02 5.16 5.22 7.2l-12.42 9.18ZM139.74 493.1v-15.12h69.84v-5.04h-50.04V458.9h50.04v-5.04h-50.04v-15.12h50.04v-5.04h-69.84v-15.66h69.84V413h-50.04v-15.48h50.04V386.9h25.38v10.62h48.06v20.52h20.52v15.66h-20.52v20.16h-48.06v5.04h48.06v14.04h-48.06v5.04h69.48v15.12h-164.7Zm22.14 59.04v-54h119.7v54h-119.7Zm26.82-15.12h66.78v-5.58H188.7v5.58Zm0-18.18h66.78v-5.58H188.7v5.58Zm46.26-80.1h24.3v-5.04h-24.3v5.04Zm0-20.7h24.3V413h-24.3v5.04ZM410.82 552.5v-24.3h-18v-26.1h18v-25.56c-5.52 8.4-11.58 16.56-18.18 24.48-6.48 7.92-12.66 14.46-18.54 19.62-1.2-1.56-2.7-3.24-4.5-5.04-1.68-1.8-3.42-3.48-5.22-5.04v41.58h-26.46v-81.18c-1.8 2.16-3.72 4.26-5.76 6.3-2.28-2.64-5.28-5.34-9-8.1-3.6-2.76-7.14-4.98-10.62-6.66 4.2-4.08 8.4-9.24 12.6-15.48 4.32-6.36 8.28-13.14 11.88-20.34 3.72-7.32 6.84-14.34 9.36-21.06 2.64-6.84 4.38-12.72 5.22-17.64l24.84 6.66c-1.32 5.52-3 11.16-5.04 16.92a189.74 189.74 0 0 1-7.02 17.1V494c4.2-4.32 8.52-9.18 12.96-14.58 4.56-5.52 8.94-11.22 13.14-17.1 4.2-5.88 7.8-11.52 10.8-16.92H369.6v-24.48h41.22v-32.76h25.74v32.76h45.9v24.48h-39.24c2.88 5.04 6.36 10.26 10.44 15.66 4.08 5.4 8.4 10.68 12.96 15.84 4.68 5.04 9.18 9.66 13.5 13.86 4.32 4.2 8.1 7.56 11.34 10.08-2.16 1.2-4.56 2.88-7.2 5.04a96.955 96.955 0 0 0-7.2 6.84c-2.28 2.4-4.2 4.68-5.76 6.84-5.52-4.92-11.34-10.98-17.46-18.18-6-7.2-11.76-14.76-17.28-22.68v23.4h16.74v26.1h-16.74v24.3h-25.74ZM584.7 544.04c-9.96-.6-18.06-3.66-24.3-9.18-6.24-5.52-9.3-12.6-9.18-21.24.12-5.04 1.74-9.66 4.86-13.86 3.24-4.2 7.68-7.56 13.32-10.08 5.76-2.64 12.48-3.96 20.16-3.96 1.44 0 2.82.06 4.14.18 1.32 0 2.64.06 3.96.18-.12-4.68-.3-9.84-.54-15.48a1079 1079 0 0 0-.54-18.18c-7.08.24-13.92.42-20.52.54-6.48 0-12.18-.12-17.1-.36l-1.44-26.82c4.2.72 9.72 1.14 16.56 1.26 6.84.12 14.16.06 21.96-.18l-.36-14.04v-14.4h25.92c-.12 4.08-.24 8.4-.36 12.96-.12 4.44-.12 9.12 0 14.04 6.72-.6 12.84-1.32 18.36-2.16 5.64-.84 9.9-1.74 12.78-2.7v26.46c-3.36.72-7.74 1.38-13.14 1.98-5.28.6-11.1 1.2-17.46 1.8.24 7.56.48 14.88.72 21.96.36 6.96.66 13.26.9 18.9 6.84 2.52 13.32 5.64 19.44 9.36 6.12 3.72 12 7.8 17.64 12.24-1.8 1.44-3.72 3.48-5.76 6.12-2.04 2.64-3.9 5.34-5.58 8.1-1.68 2.76-2.94 5.16-3.78 7.2-3.36-3.12-6.9-6-10.62-8.64-3.6-2.76-7.32-5.28-11.16-7.56-1.2 9.6-5.16 16.44-11.88 20.52-6.6 4.08-15.6 5.76-27 5.04Zm-69.12 1.62c-.84-4.8-1.56-10.98-2.16-18.54-.48-7.56-.84-15.9-1.08-25.02-.12-9.24-.12-18.78 0-28.62s.42-19.44.9-28.8c.48-9.36 1.14-18 1.98-25.92.84-8.04 1.8-14.76 2.88-20.16l25.02 5.94c-1.32 4.08-2.46 9.66-3.42 16.74-.96 7.08-1.74 15-2.34 23.76-.48 8.64-.78 17.64-.9 27s-.06 18.48.18 27.36c.36 8.76.9 16.8 1.62 24.12.72 7.2 1.62 13.08 2.7 17.64l-25.38 4.5Zm71.1-23.94c4.2 0 7.14-.84 8.82-2.52 1.8-1.8 2.7-5.4 2.7-10.8-1.68-.36-3.42-.66-5.22-.9a71.8 71.8 0 0 0-5.04-.54c-3.36-.24-6.3.3-8.82 1.62-2.52 1.2-3.84 3.06-3.96 5.58-.12 2.4.9 4.26 3.06 5.58 2.28 1.32 5.1 1.98 8.46 1.98ZM277.8 803.96c-11.88 2.04-23.4 3.36-34.56 3.96-11.16.6-21.54.36-31.14-.72-9.6-1.08-18-3.18-25.2-6.3-7.2-3.12-12.84-7.44-16.92-12.96-4.08-5.52-6.12-12.36-6.12-20.52 0-11.04 3.48-20.28 10.44-27.72 7.08-7.44 16.8-13.86 29.16-19.26-1.8-5.4-3.42-11.94-4.86-19.62-1.32-7.68-2.22-15.84-2.7-24.48s-.48-17.04 0-25.2h28.62c-.72 6.24-1.02 13.02-.9 20.34.24 7.32.78 14.52 1.62 21.6.84 6.96 1.8 13.02 2.88 18.18 6-1.92 12.3-3.72 18.9-5.4 6.72-1.8 13.68-3.6 20.88-5.4l4.68 27.72c-10.2.96-20.16 2.58-29.88 4.86-9.6 2.28-18.3 5.1-26.1 8.46-7.68 3.24-13.8 6.96-18.36 11.16-4.56 4.08-6.84 8.4-6.84 12.96 0 4.32 2.34 7.92 7.02 10.8 4.8 2.76 11.34 4.62 19.62 5.58 8.4.96 18 .9 28.8-.18 10.92-1.08 22.44-3.24 34.56-6.48-.84 2.4-1.56 5.34-2.16 8.82-.6 3.48-1.02 6.96-1.26 10.44-.24 3.48-.3 6.6-.18 9.36Zm-1.26-103.5c-2.4-3.6-5.4-7.38-9-11.34-3.48-3.96-6.72-7.14-9.72-9.54l11.34-9.72c1.68 1.32 3.78 3.3 6.3 5.94 2.52 2.52 4.98 5.16 7.38 7.92 2.4 2.64 4.26 4.92 5.58 6.84l-11.88 9.9Zm16.74-14.4c-2.4-3.72-5.4-7.5-9-11.34-3.48-3.96-6.72-7.14-9.72-9.54l11.34-9.72c1.68 1.32 3.78 3.3 6.3 5.94 2.52 2.52 4.98 5.16 7.38 7.92 2.4 2.64 4.26 4.92 5.58 6.84l-11.88 9.9ZM428.1 806.12c-6 0-11.28-.96-15.84-2.88-4.44-1.92-7.92-5.28-10.44-10.08-2.4-4.92-3.6-11.76-3.6-20.52v-12.78c0-6.6-.78-10.98-2.34-13.14-1.44-2.28-4.08-3.42-7.92-3.42-4.44 0-8.52 1.38-12.24 4.14-3.72 2.76-6.96 7.08-9.72 12.96-4.68 9.84-8.82 18.78-12.42 26.82-3.48 7.92-5.82 13.92-7.02 18l-25.38-11.16c1.2-1.92 3.18-5.64 5.94-11.16 2.88-5.52 6.24-12.18 10.08-19.98 3.96-7.8 8.16-16.14 12.6-25.02l13.32-27c4.44-9.12 8.58-17.64 12.42-25.56 3.96-8.04 7.32-15 10.08-20.88 2.88-5.88 4.92-10.02 6.12-12.42l27.18 11.88c-2.28 3.12-5.22 7.62-8.82 13.5-3.6 5.88-7.5 12.66-11.7 20.34-4.2 7.68-8.52 15.72-12.96 24.12 4.2-1.56 8.58-2.34 13.14-2.34 9.24 0 15.66 2.52 19.26 7.56 3.72 5.04 5.58 13.26 5.58 24.66 0 1.44-.06 3.42-.18 5.94v5.94c0 6.48.6 10.68 1.8 12.6 1.2 1.8 3.78 2.7 7.74 2.7 3.48 0 7.08-1.44 10.8-4.32 3.84-2.88 7.5-6.9 10.98-12.06 3.48-5.16 6.42-11.1 8.82-17.82 1.56 2.16 3.54 4.5 5.94 7.02 2.4 2.52 4.86 4.92 7.38 7.2 2.52 2.16 4.68 3.96 6.48 5.4-4.2 9.48-9.36 17.28-15.48 23.4-6 6.12-12.42 10.68-19.26 13.68-6.84 3.12-13.62 4.68-20.34 4.68ZM577.32 812.6c-6.6-.48-12.36-2.16-17.28-5.04-4.92-2.76-8.7-6.48-11.34-11.16-2.52-4.68-3.78-9.9-3.78-15.66.12-5.28 1.68-9.96 4.68-14.04 3.12-4.2 7.5-7.38 13.14-9.54 5.64-2.28 12.3-3.24 19.98-2.88 2.4 0 4.74.18 7.02.54V717.2h25.2v43.02c6.72 2.4 13.08 5.4 19.08 9 6.12 3.6 12.12 7.74 18 12.42-1.8 1.56-3.72 3.6-5.76 6.12-1.92 2.52-3.78 5.16-5.58 7.92-1.68 2.76-3.06 5.28-4.14 7.56-3.36-3.12-6.9-6.12-10.62-9-3.6-2.88-7.32-5.46-11.16-7.74-.96 9.84-4.56 16.8-10.8 20.88-6.12 4.2-15 5.94-26.64 5.22ZM528 781.82c-2.52-2.04-5.94-4.26-10.26-6.66-4.32-2.52-8.4-4.56-12.24-6.12 7.2-8.64 13.62-18.48 19.26-29.52a228.397 228.397 0 0 0 14.4-34.56c-5.52.72-10.5 1.32-14.94 1.8-4.44.36-8.04.66-10.8.9l-3.24-24.3c3.96.12 9.06-.06 15.3-.54 6.36-.6 13.08-1.32 20.16-2.16 1.2-5.52 2.16-10.92 2.88-16.2.84-5.28 1.38-10.38 1.62-15.3l24.48 3.42c-.48 4.08-1.02 8.16-1.62 12.24-.6 3.96-1.26 7.86-1.98 11.7 3.84-.72 7.44-1.5 10.8-2.34 3.48-.84 6.66-1.68 9.54-2.52l3.24 23.04c-3.72 1.2-8.16 2.34-13.32 3.42-5.04 1.08-10.38 2.1-16.02 3.06-4.08 15.24-9.3 29.64-15.66 43.2-6.24 13.44-13.44 25.92-21.6 37.44Zm112.32-59.04c-1.92-1.92-4.62-4.2-8.1-6.84-3.36-2.64-7.02-5.28-10.98-7.92-3.84-2.76-7.68-5.22-11.52-7.38s-7.2-3.72-10.08-4.68l12.78-19.44c3.12 1.2 6.66 2.88 10.62 5.04 4.08 2.04 8.16 4.32 12.24 6.84 4.2 2.52 8.1 5.04 11.7 7.56 3.6 2.52 6.54 4.86 8.82 7.02l-15.48 19.8Zm-61.02 68.04c3.84 0 6.54-.96 8.1-2.88 1.56-2.04 2.34-5.76 2.34-11.16v-.36l-4.68-.72c-1.44-.24-2.94-.36-4.5-.36-3.48-.24-6.3.24-8.46 1.44-2.04 1.08-3.12 2.82-3.24 5.22-.12 2.52.72 4.62 2.52 6.3 1.92 1.68 4.56 2.52 7.92 2.52ZM751.56 765.98l-4.32-46.44c11.16-.84 19.44-2.94 24.84-6.3 5.52-3.48 8.28-8.88 8.28-16.2 0-5.88-1.62-10.62-4.86-14.22-3.12-3.6-7.62-5.4-13.5-5.4s-10.56 1.92-14.04 5.76c-3.48 3.84-5.7 8.64-6.66 14.4l-29.52-4.5c.72-8.4 3.3-15.78 7.74-22.14 4.56-6.36 10.5-11.34 17.82-14.94 7.32-3.6 15.54-5.4 24.66-5.4 9.72 0 18.3 1.86 25.74 5.58 7.56 3.72 13.44 9.06 17.64 16.02 4.32 6.84 6.48 15.12 6.48 24.84 0 7.32-1.62 13.68-4.86 19.08-3.24 5.4-7.68 9.9-13.32 13.5-5.64 3.6-12 6.36-19.08 8.28l-2.16 28.08h-20.88ZM762 812.6c-4.8 0-8.94-1.74-12.42-5.22-3.48-3.48-5.22-7.62-5.22-12.42 0-4.92 1.74-9.06 5.22-12.42 3.48-3.36 7.62-5.04 12.42-5.04 4.92 0 9.06 1.68 12.42 5.04 3.48 3.36 5.22 7.5 5.22 12.42 0 4.8-1.74 8.94-5.22 12.42-3.36 3.48-7.5 5.22-12.42 5.22ZM1145.3 244.44c.36 7.92-1.08 9.72-5.22 10.62-6.12 1.26-11.88 1.62-25.38 1.8 6.66 5.22 9.72 9.36 12.6 16.02.9 2.34 2.16 3.06 5.58 3.06 8.28 0 18.72-2.7 24.84-6.3 5.94-3.6 9.18-9.54 8.64-19.08l-3.24-67.68h14.58c11.16 0 21.42.36 34.56.9 1.8 0 2.52-1.08 2.52-2.52.18-5.04.18-10.62 0-15.66 0-1.26-.9-2.16-2.7-2.16-13.32.54-22.32.9-34.92.9h-15.66l-.54-13.68c-.54-11.52.18-14.4.72-16.56.36-1.08.72-1.98.72-2.7 0-1.08-.54-1.8-2.34-2.16-5.58-1.08-12.96-1.62-22.68-1.98 1.62 5.76 2.52 12.24 2.88 21.24l.72 16.02h-42.84c-10.8 0-21.42-.18-32.22-.9.36 6.66.72 14.04 1.44 17.46.18 1.98.9 3.24 2.52 3.06 9.36-.54 19.44-.9 28.8-.9l31.5-.18c-7.2 9.9-15.84 18.54-26.46 27.9-12.24 10.8-23.58 18.36-41.94 28.44 5.04 1.98 11.16 6.3 14.76 10.62.9 1.26 1.98 1.8 3.06 1.8 1.26 0 2.52-.54 4.14-1.62 10.98-6.12 24.84-16.74 34.02-25.2 10.98-9.72 18.36-17.64 25.38-27.72l2.16 47.16ZM1346 214.38c13.32 0 26.64.18 40.14.36 2.52.18 3.24-.54 3.24-2.7.36-5.4.36-11.52 0-16.92 0-2.16-.54-2.7-3.24-2.52-13.86.18-27.72.54-41.4.54h-57.96c-18.18 0-27.18-.36-38.88-2.16.72 9.18 1.8 17.64 2.7 21.78.54 2.7 1.98 3.78 4.14 3.78 1.8 0 8.64-2.16 26.46-2.16h64.8ZM1517.36 171.9c0-12.96 0-16.56 1.62-19.98.9-1.8 1.44-3.42 1.44-4.5 0-1.44-.9-2.52-3.24-3.06-5.4-1.62-15.3-2.88-22.5-3.78 1.8 8.28 1.8 15.66 1.8 31.32v56.34c0 9.18.18 11.34-1.08 13.68-.54 1.08-.72 1.8-.72 2.7 0 1.08.54 2.16 1.62 3.78 2.7 3.6 6.84 8.28 10.8 10.98 1.44.9 2.7 1.44 3.78 1.44 1.26 0 2.52-.54 3.6-1.44 1.62-1.26 1.98-1.62 5.22-3.78 12.6-7.38 22.68-14.4 32.04-21.6 9.36-7.02 17.64-14.4 26.64-23.58 1.98-1.98 2.7-3.24 2.7-4.5 0-.9-.54-1.8-1.08-3.06-3.06-5.94-4.86-11.88-5.58-18.18-10.08 12.78-20.7 22.32-31.5 30.6-8.46 6.48-16.74 12.06-25.56 16.74V171.9Zm-62.82-19.98c1.44 5.4 1.8 8.28 1.8 15.12-.18 28.8-2.52 38.7-7.56 50.94-6.3 14.22-15.84 25.2-29.88 35.82 6.48 2.34 10.8 4.5 15.3 7.56 1.26.9 2.34 1.44 3.42 1.44 1.44 0 2.88-.9 4.68-2.34 12.96-11.16 20.88-22.86 25.56-33.84 5.94-13.32 9.36-30.42 9.72-52.92 0-4.32.18-8.28 2.16-12.24 1.08-2.52.72-4.68-2.34-5.58-4.32-1.44-12.6-2.7-22.86-3.96ZM1669.1 151.74c0-10.08 0-14.58 1.26-16.92.9-1.62 1.44-3.06 1.44-4.14 0-1.44-.9-2.52-3.42-3.06-5.22-1.44-14.22-2.34-22.5-2.88 1.26 7.2 1.8 13.14 1.8 26.64v88.56c0 11.52-.18 22.14-.72 35.46 0 2.16.9 2.7 3.42 2.7 5.22.36 10.8.36 16.02 0 2.52 0 3.42-.54 3.24-2.7-.36-12.96-.72-23.58-.72-35.28v-39.78c14.58 4.5 30.78 12.42 47.34 23.04.72.72 1.44.9 1.98.9.9 0 1.62-.72 2.34-1.98 2.52-4.14 5.4-9.72 7.74-15.66.9-2.34 0-3.6-1.98-4.68-17.82-10.62-35.28-17.64-57.24-24.48v-25.74Zm32.4-11.88c7.02 5.76 12.78 12.6 18.18 20.88.9 1.26 1.8 1.44 3.06.54l7.56-5.58c1.26-.9 1.26-1.8.54-2.88-5.04-7.74-11.52-14.94-17.1-19.26-1.08-.9-1.8-1.08-2.7-.36l-9.54 6.66Zm16.56-11.88c7.38 6.12 13.14 12.96 18 20.7.72 1.08 1.62 1.62 3.06.54l7.2-5.58c1.44-1.08 1.26-2.16.54-3.24-3.96-6.3-10.44-13.5-17.1-18.54-1.08-.9-1.62-1.08-2.7-.36l-9 6.48ZM1195.52 491.4c15.84 0 21.24.36 22.32.36 1.8 0 1.98-.18 1.98-1.98v-9.9c0-1.62-.18-1.8-1.98-1.8-1.08 0-6.48.36-22.32.36h-48.06v-7.2h28.8c17.46 0 23.58.36 24.66.36 1.62 0 1.8-.18 1.8-1.98v-7.74c0-1.8-.18-1.98-1.8-1.98-1.08 0-7.2.36-24.66.36h-28.8v-7.2h20.88c19.08 0 28.62.36 29.7.36 1.8 0 1.98-.18 1.98-1.98 0-1.08-.36-6.48-.36-16.02v-1.08c9.54 0 15.12.36 16.2.36 1.98 0 2.16-.18 2.16-1.98v-10.98c0-1.98-.18-2.16-2.16-2.16-1.08 0-6.66.36-16.2.36v-1.8c0-9.9.36-14.58.36-15.66 0-1.98-.18-2.16-1.98-2.16-1.08 0-10.62.36-29.7.36h-20.88c0-3.42.54-4.86.9-5.94.54-1.44.9-2.16.9-3.24s-1.08-1.8-2.52-1.98c-6.3-.72-12.24-1.08-18.9-1.26.72 3.42 1.08 6.48 1.26 12.42h-24.12c-17.64 0-23.76-.36-25.02-.36-1.8 0-1.98.18-1.98 2.16v9.18c0 1.8.18 1.98 1.98 1.98 1.26 0 7.38-.36 25.02-.36h24.12v7.56h-42.48c-17.1 0-23.22-.36-24.3-.36-1.8 0-1.98.18-1.98 1.98V432c0 1.8.18 1.98 1.98 1.98 1.08 0 7.2-.36 24.3-.36h42.48v7.74h-25.02c-17.28 0-23.22-.36-24.3-.36-1.98 0-2.16.18-2.16 1.98v8.46c0 1.8.18 1.98 2.16 1.98 1.08 0 7.02-.36 24.3-.36h25.02v7.2h-26.82c-17.64 0-23.58-.36-24.84-.36-1.62 0-1.8.18-1.8 1.98v7.74c0 1.8.18 1.98 1.8 1.98 1.26 0 7.2-.36 24.84-.36h26.82v7.2h-46.62c-15.84 0-21.24-.36-22.32-.36-1.62 0-1.8.18-1.8 1.8v9.9c0 1.8.18 1.98 1.8 1.98 1.08 0 6.48-.36 22.32-.36h113.04Zm-13.5-50.04h-34.56v-7.74h34.56v7.74Zm0-28.08v7.56h-34.56v-7.56h34.56Zm-83.88 140.58c1.8 0 1.98-.18 1.98-1.98v-4.68h78.12v4.14c0 1.62.18 1.8 1.98 1.8h14.4c1.8 0 1.98-.18 1.98-1.8 0-1.08-.36-4.86-.36-25.02V513c0-7.74.36-11.88.36-12.96 0-1.98-.18-2.16-1.98-2.16-1.26 0-7.56.36-25.02.36h-60.84c-17.46 0-23.76-.36-25.02-.36-1.8 0-1.98.18-1.98 2.16 0 1.08.36 5.22.36 15.12v11.52c0 20.52-.36 24.12-.36 25.2 0 1.8.18 1.98 1.98 1.98h14.4Zm1.98-18.18v-7.74h78.12v7.74h-78.12Zm0-25.74h78.12v7.56h-78.12v-7.56ZM1321.34 444.6c-11.88 26.64-27.18 45.72-47.16 62.46v-72.9c4.5-8.64 8.28-17.46 11.7-26.28 1.62-4.68 2.52-6.12 3.6-7.2 1.44-1.26 1.98-1.98 1.98-3.24 0-1.26-.9-1.8-2.88-2.7-5.22-2.16-10.98-3.96-17.46-5.58-.36 4.5-1.44 8.46-2.7 12.78-6.84 21.42-18.72 41.58-34.2 58.5 2.34 3.6 4.86 9.72 6.12 15.48.54 2.16 1.08 3.24 1.98 3.24.9 0 1.98-.9 3.24-2.34 3.6-4.14 7.02-8.64 10.44-13.14-.18 7.2-.18 14.4-.18 20.34v40.86c0 17.64-.36 26.28-.36 27.36 0 1.8.18 1.98 1.8 1.98h15.3c1.8 0 1.98-.18 1.98-1.98 0-.9-.36-9.72-.36-27.36V507.6c2.7 2.88 5.58 6.3 8.1 10.62 1.26 2.34 1.98 3.42 2.88 3.42.9 0 1.98-1.08 3.78-2.7 17.82-16.56 30.78-35.82 41.04-60.12 0 16.02-.18 32.04-.54 46.08h-3.42c-14.04 0-18.54-.36-19.62-.36-1.8 0-1.98.18-1.98 1.98v13.14c0 1.98.18 2.16 1.98 2.16 1.08 0 5.58-.36 19.62-.36h3.24c-.36 16.92-.72 28.98-.72 30.78 0 1.8.18 1.98 2.16 1.98h15.48c1.8 0 1.98-.18 1.98-1.98s-.36-13.68-.54-30.78h3.96c14.04 0 18.54.36 19.62.36 1.8 0 1.98-.18 1.98-2.16v-13.14c0-1.8-.18-1.98-1.98-1.98-1.08 0-5.58.36-19.62.36h-4.14c-.18-14.04-.36-30.06-.36-46.26 9.72 22.5 21.24 40.14 41.94 60.48 1.8 1.8 2.88 2.88 3.78 2.88.9 0 1.62-1.26 2.88-3.78 2.16-4.32 5.04-8.28 8.82-12.06-24.3-20.52-37.62-37.26-50.04-61.56h18.72c17.46 0 23.58.36 24.84.36 1.62 0 1.8-.18 1.8-1.98v-13.86c0-1.98-.18-1.98-1.8-1.98-1.26 0-7.38.18-24.84.18h-25.56v-12.06c0-12.24.18-16.02 1.08-18.18.54-1.26 1.26-2.34 1.26-3.78 0-.9-1.08-1.8-2.88-1.8-6.12-.9-12.42-1.26-18.9-1.44.9 7.74 1.26 14.04 1.26 25.56v11.7h-18.18c-17.64 0-23.58-.18-24.66-.18-1.8 0-1.98 0-1.98 1.98v13.86c0 1.8.18 1.98 1.98 1.98 1.08 0 7.02-.36 24.66-.36h10.08ZM1524.56 495.18c-4.32-.9-9.72-1.44-14.4-1.44-18.18 0-31.5 10.62-31.5 25.38 0 15.48 11.52 25.2 32.22 25.2 21.24 0 31.5-8.28 32.94-23.4 7.92 4.68 13.86 9.18 19.44 14.4.54.54 1.08.9 1.62.9s1.08-.36 1.62-1.08c3.06-4.14 5.94-9.18 8.28-13.86.9-1.98.72-2.52-.9-3.6-10.08-7.92-19.26-12.96-29.88-17.28-.9-15.48-1.26-28.08-1.26-48.24 9.36-.72 21.24-2.16 27.72-3.78 1.26-.18 1.98-1.08 1.98-2.7 0-3.78-.36-9.54-1.08-12.78-.36-1.98-.72-2.7-2.88-2.16-7.74 1.26-17.1 2.52-25.56 3.24 0-8.28 0-12.96.36-19.08.18-2.34.72-4.68 1.44-6.3s1.08-2.16 1.08-3.06c0-1.62-1.26-2.52-3.24-3.06-5.94-1.8-11.34-2.52-21.78-3.42 1.62 6.48 2.16 11.16 2.34 17.64 0 6.66.18 12.42.18 18.9-13.5.9-27.54.72-41.04-.54 0 5.58.54 12.06 1.26 16.38.18 1.8.9 2.34 3.24 2.34 12.24.9 24.84.54 37.08.18.18 14.22.36 27.36.72 41.22Zm.36 17.1c.18 1.44.18 2.34.18 3.6 0 6.48-5.76 11.7-14.76 11.7-10.62 0-14.58-3.42-14.58-9s5.04-8.64 13.5-8.64c5.04 0 9.9.54 15.66 2.34Zm-83.52-112.86c.72 7.2-.36 14.94-1.26 21.24-5.94 36.54-7.38 50.94-7.38 68.22 0 20.7 2.7 42.12 7.74 54.9.9 2.52 1.62 2.7 3.6 2.16 4.86-.72 10.08-1.8 13.5-3.06 1.62-.54 2.34-1.08 2.16-2.34-.18-1.8-.54-4.5.18-9.54.72-5.22 2.88-13.14 9.18-27.36.72-1.08 1.08-1.98 1.08-2.88 0-.9-.36-1.62-1.08-2.52-2.34-3.06-3.78-5.58-6.3-11.34-3.78 9-7.56 16.74-11.16 25.02-.54-7.56-.54-15.84-.54-23.04 0-13.14 3.06-38.34 9-65.52 1.26-5.22 1.98-7.74 3.24-9.9.72-1.44 1.26-2.7 1.26-3.96 0-1.44-.72-2.52-2.7-3.6-3.6-1.8-13.32-4.68-20.52-6.48ZM1101.56 668.88c2.16 5.04 3.42 11.34 4.68 20.88 1.8 13.86 5.04 30.06 9.36 43.92-21.06 13.32-34.2 26.46-34.2 46.44 0 23.4 18 34.56 52.02 34.56 22.86 0 37.26-.54 53.64-2.7 2.16-.18 3.42-1.08 3.24-3.06-.36-5.4-.9-11.88-1.8-16.74-.36-2.16-1.26-2.52-3.24-2.16-13.86 2.52-33.48 4.14-53.64 4.14-22.5 0-29.88-4.68-29.88-15.12 0-8.46 5.58-16.92 21.24-27.18 12.42-8.1 26.82-14.76 42.3-21.06 5.76-2.34 11.88-4.5 17.28-5.4 2.52-.36 3.6-1.8 3.6-3.6 0-1.26-.54-2.7-1.26-3.78-2.7-4.68-7.38-10.98-13.14-16.92-2.88 3.6-7.2 6.66-12.42 9.72-10.08 5.4-16.56 8.82-25.56 13.68-2.34-9.36-4.14-18.36-5.76-30.96-.36-4.14-.9-8.46-.9-12.06 0-2.52 1.26-5.04 1.26-7.56 0-1.44-1.08-2.34-3.24-2.88-6.66-1.62-14.94-2.16-23.58-2.16Zm72.9 10.98c7.02 5.76 12.78 12.6 18.18 20.88.9 1.26 1.8 1.44 3.06.54l7.56-5.58c1.26-.9 1.26-1.8.54-2.88-5.04-7.74-11.52-14.94-17.1-19.26-1.08-.9-1.8-1.08-2.7-.36l-9.54 6.66Zm16.56-11.88c7.38 6.12 13.14 12.96 18 20.7.72 1.08 1.62 1.62 3.06.54l7.2-5.58c1.44-1.08 1.26-2.16.54-3.24-3.96-6.3-10.44-13.5-17.1-18.54-1.08-.9-1.62-1.08-2.7-.36l-9 6.48ZM1290.02 748.98c9.9-16.2 19.62-35.1 31.14-57.24 1.62-2.7 3.42-5.4 5.58-7.74 1.26-1.26 1.98-2.52 1.98-3.6 0-1.44-.9-2.7-2.52-3.78-4.86-3.42-11.7-6.66-20.16-10.08-1.44 8.1-3.78 14.4-9 26.28-9.9 22.5-26.46 56.88-52.74 108.36-.54.9-.9 1.8-.9 2.52s.54 1.62 1.62 2.34c4.14 3.24 9 5.76 13.86 7.74 2.34.72 3.24.36 4.32-2.16 7.02-16.56 14.58-31.32 21.06-39.96 7.2-9.54 14.94-15.3 22.68-15.3 6.3 0 10.26 5.22 11.88 23.22 2.34 25.38 10.08 34.92 28.26 34.92 12.42 0 24.12-5.4 33.12-15.12 5.94-6.48 11.88-14.76 15.48-22.32.54-1.08.72-1.98.72-3.06 0-1.26-.54-2.52-1.98-3.78-3.24-3.24-6.84-6.84-10.44-14.94-4.5 12.24-11.88 22.68-18.18 29.34-5.04 5.4-10.44 8.64-16.92 8.64-6.84 0-9-5.94-10.44-19.08-1.98-17.28-6.84-34.02-26.28-34.02-7.02 0-14.76 3.24-21.96 9.18l-.18-.36ZM1514.48 769.86c-5.76-.9-10.8-1.08-14.22-1.08-20.34 0-33.3 10.62-33.3 26.28 0 15.48 13.32 25.56 33.12 25.56 20.52 0 33.48-8.28 33.48-26.28 7.38 4.32 14.04 8.28 21.96 15.12.72.72 1.26 1.08 1.8 1.08s1.08-.36 1.62-1.26c3.06-4.5 5.58-9 8.28-14.58.9-1.8.72-2.52-1.08-3.78-10.62-7.56-19.44-11.52-32.4-16.74-1.44-12.24-1.98-19.98-1.98-30.6-.18-3.06 0-5.22.72-7.38s1.08-3.42 1.08-3.78c0-1.62-.9-2.52-2.52-2.88-6.12-1.8-10.8-2.52-19.62-3.42 1.08 5.04 1.26 7.92 1.44 12.78.18 8.46.54 19.44 1.62 30.96Zm.36 17.1c.18 1.08.18 1.98.18 3.6 0 7.56-5.94 12.78-15.66 12.78-10.26 0-15.3-2.88-15.3-8.64 0-6.84 7.02-10.44 16.02-10.44 5.58 0 10.44 1.26 14.76 2.7Zm-29.34-92.34c1.62-5.4 3.06-10.98 4.32-15.3 1.08-3.6 1.8-5.22 2.88-6.66 1.08-1.08 1.62-1.98 1.62-3.42 0-1.26-1.08-2.34-2.88-2.7-5.58-1.62-13.32-2.7-21.06-3.78 0 5.58 0 8.28-1.08 14.58-1.26 6.48-2.52 12.6-4.68 20.16-8.28.72-13.68.9-20.7.9-5.22 0-9.36-.18-16.74-.72.36 5.94.9 11.88 1.8 15.3.36 2.34.72 2.88 2.52 2.88 4.5.18 5.94.18 9.9.18 5.58 0 11.16 0 18-.36-8.1 21.6-17.64 40.5-31.14 62.82-.72.9-.9 1.62-.9 2.16 0 .72.36 1.26 1.26 1.98 3.06 2.88 8.28 6.66 12.42 9.18.9.54 1.62.9 2.16.9.72 0 1.26-.54 1.98-1.8 12.96-21.96 23.58-46.8 35.1-77.22 11.16-1.62 19.98-2.88 29.7-4.86 1.44-.18 2.16-.54 2.16-2.16-.18-4.68-.72-10.08-1.62-14.58-.36-1.98-1.08-1.98-2.7-1.44-7.02 1.62-15.3 3.24-22.32 3.96Zm39.96 17.1c13.68 4.5 26.64 12.42 37.26 19.62.72.54 1.08.72 1.62.72s1.08-.36 1.62-1.26c2.52-3.78 5.76-9.36 7.56-13.32.54-.9.72-1.62.72-2.16 0-.72-.54-1.26-1.62-1.98-10.44-6.84-24.66-14.04-35.28-16.92-1.8-.72-2.7-.54-3.78 1.26-2.34 3.24-5.04 8.64-8.1 14.04ZM1654.16 709.02c1.08-16.38 10.08-25.92 24.3-25.92 13.32 0 21.78 7.74 21.78 19.98 0 9.18-3.42 15.48-16.38 28.44-12.78 12.78-16.56 20.88-16.56 38.7v4.32h18.54c.18-16.74 2.34-22.5 17.28-34.92 16.02-13.5 21.42-23.94 21.42-36.54 0-23.04-18.18-37.98-46.26-37.98-26.64 0-43.92 14.4-47.34 38.52l23.22 5.4Zm9.54 82.98v24.3h25.56V792h-25.56Z"/><path fill="#FF6D7F" d="M133.491 1029v-3.28l10.313-13.77h-10.27v-4.77h17.813v3.28l-10.313 13.77h10.27v4.77h-17.813Zm28.671.3c-1.747 0-3.252-.34-4.517-1a7.037 7.037 0 0 1-2.908-2.9c-.675-1.27-1.012-2.78-1.012-4.54 0-1.69.341-3.17 1.023-4.43a7.252 7.252 0 0 1 2.887-2.95c1.243-.71 2.709-1.06 4.4-1.06 1.235 0 2.354.2 3.355.58 1.002.38 1.858.94 2.568 1.67s1.257 1.61 1.641 2.64c.383 1.04.575 2.21.575 3.51v1.36h-14.617v-3.24h9.205a2.223 2.223 0 0 0-.362-1.23 2.266 2.266 0 0 0-.927-.84c-.384-.21-.82-.31-1.311-.31-.475 0-.912.1-1.31.31-.398.19-.717.47-.959.83-.234.35-.358.77-.373 1.24v3.5c0 .52.111.99.331 1.4.22.42.536.74.948.97.412.24.909.35 1.491.35.405 0 .774-.05 1.108-.17.341-.11.632-.27.874-.49.241-.22.419-.48.533-.78h5.369c-.185 1.13-.622 2.12-1.311 2.96-.688.83-1.601 1.47-2.737 1.94-1.13.45-2.451.68-3.964.68Zm16.292-9.5v9.2h-5.88v-16.36h5.582v3.11h.17c.355-1.04.98-1.85 1.875-2.44.902-.59 1.953-.89 3.154-.89 1.157 0 2.162.27 3.015.8a5.316 5.316 0 0 1 1.992 2.18c.476.92.71 1.97.703 3.16V1029h-5.881v-9.2c.007-.81-.199-1.45-.618-1.91-.412-.46-.987-.69-1.725-.69-.483 0-.906.1-1.268.32-.355.2-.629.5-.821.89-.191.38-.291.85-.298 1.39Zm19.405 9.2v-21.82h5.924v8.82h.298l6.562-8.82h6.904l-7.372 9.72 7.542 12.1h-7.074l-4.9-8.18-1.96 2.56v5.62h-5.924Zm26.091.26c-1.044 0-1.968-.17-2.77-.52a4.115 4.115 0 0 1-1.875-1.57c-.455-.71-.682-1.6-.682-2.69 0-.89.153-1.66.458-2.29.305-.64.731-1.16 1.278-1.56a5.875 5.875 0 0 1 1.907-.93c.732-.21 1.52-.35 2.365-.42.917-.07 1.652-.15 2.206-.25.561-.11.966-.25 1.214-.44a.898.898 0 0 0 .373-.75v-.05c0-.42-.163-.75-.49-.98-.327-.22-.746-.34-1.257-.34-.561 0-1.019.13-1.374.37-.348.25-.558.62-.629 1.12h-5.412c.071-.99.387-1.91.948-2.75.568-.84 1.396-1.52 2.482-2.02 1.087-.51 2.444-.77 4.07-.77 1.172 0 2.223.14 3.153.42.931.27 1.723.65 2.376 1.14a4.971 4.971 0 0 1 1.492 1.7c.348.65.522 1.35.522 2.11V1029h-5.497v-2.3h-.128c-.327.61-.725 1.1-1.193 1.48a4.33 4.33 0 0 1-1.588.82 7.01 7.01 0 0 1-1.949.26Zm1.917-3.71c.448 0 .867-.09 1.257-.28.398-.18.721-.45.97-.8.248-.35.373-.77.373-1.27v-1.36c-.157.06-.324.13-.501.18-.171.06-.355.11-.554.16-.192.05-.398.1-.618.14-.213.04-.437.08-.671.12-.455.07-.828.19-1.119.35-.284.16-.497.35-.639.59a1.44 1.44 0 0 0-.202.76c0 .46.159.8.479 1.05.32.24.728.36 1.225.36Zm16.532-.43.042-6.99h.767l3.963-5.49h6.605l-6.647 8.56h-1.662l-3.068 3.92Zm-5.284 3.88v-21.82h5.88V1029h-5.88Zm10.099 0-3.75-6.48 3.835-4.17 6.648 10.65h-6.733Zm18.705-7.16v-9.2h5.88V1029h-5.582v-3.11h-.17c-.356 1.04-.977 1.86-1.865 2.45-.888.58-1.942.87-3.164.87-1.143 0-2.145-.26-3.004-.79-.852-.52-1.516-1.25-1.992-2.17-.469-.92-.707-1.98-.714-3.17v-10.44h5.881v9.2c.007.81.213 1.45.617 1.91.412.46.988.69 1.726.69.49 0 .913-.1 1.268-.31.362-.21.639-.51.831-.89.199-.39.295-.86.288-1.4Zm28.932-7.46c-.093-.37-.238-.7-.437-.99a2.744 2.744 0 0 0-.746-.73 2.991 2.991 0 0 0-1.023-.46 4.588 4.588 0 0 0-1.267-.16c-.995 0-1.843.24-2.547.71-.696.48-1.228 1.16-1.598 2.06-.362.89-.543 1.97-.543 3.24 0 1.28.174 2.37.522 3.28.348.91.867 1.6 1.556 2.09.688.48 1.544.72 2.567.72.902 0 1.651-.13 2.248-.39.604-.26 1.055-.64 1.353-1.12.298-.48.447-1.05.447-1.71l1.023.11h-4.986v-4.22h9.674v3.03c0 1.99-.423 3.69-1.268 5.1a8.36 8.36 0 0 1-3.473 3.24c-1.47.75-3.157 1.12-5.061 1.12-2.123 0-3.987-.45-5.593-1.35-1.605-.91-2.858-2.19-3.76-3.86-.895-1.67-1.343-3.66-1.343-5.96 0-1.8.274-3.4.821-4.79.554-1.39 1.321-2.57 2.301-3.53a9.802 9.802 0 0 1 3.398-2.18c1.286-.5 2.664-.75 4.134-.75 1.292 0 2.493.19 3.601.56 1.115.36 2.098.88 2.951 1.55a8.072 8.072 0 0 1 2.077 2.38c.526.91.845 1.92.959 3.01h-5.987Zm16.973 14.92c-1.775 0-3.295-.35-4.559-1.06a7.211 7.211 0 0 1-2.909-2.96c-.675-1.27-1.012-2.74-1.012-4.42 0-1.68.337-3.15 1.012-4.41a7.153 7.153 0 0 1 2.909-2.96c1.264-.71 2.784-1.07 4.559-1.07 1.776 0 3.296.36 4.56 1.07a7.15 7.15 0 0 1 2.908 2.96c.675 1.26 1.012 2.73 1.012 4.41 0 1.68-.337 3.15-1.012 4.42-.674 1.27-1.644 2.25-2.908 2.96s-2.784 1.06-4.56 1.06Zm.043-4.35c.497 0 .927-.17 1.289-.5.362-.33.643-.81.842-1.43.198-.61.298-1.35.298-2.2 0-.86-.1-1.6-.298-2.21-.199-.61-.48-1.09-.842-1.42a1.82 1.82 0 0 0-1.289-.51c-.526 0-.977.17-1.353.51-.377.33-.664.81-.863 1.42-.199.61-.298 1.35-.298 2.21 0 .85.099 1.59.298 2.2.199.62.486 1.1.863 1.43.376.33.827.5 1.353.5Zm20.582-12.31v4.26h-10.781v-4.26h10.781Zm-8.693-3.92h5.881v15.02c0 .22.039.42.117.57.078.15.199.27.362.34.163.07.373.11.629.11.177 0 .383-.02.618-.06.241-.05.419-.08.532-.11l.853 4.13c-.263.08-.64.18-1.13.29-.483.11-1.058.19-1.726.22-1.349.08-2.482-.06-3.398-.41-.916-.36-1.605-.91-2.067-1.67-.461-.76-.685-1.72-.671-2.86v-15.57Zm17.325 11.08v9.2H335.2v-21.82h5.668v8.57h.171c.369-1.05.983-1.86 1.843-2.44.859-.59 1.892-.89 3.1-.89 1.157 0 2.162.27 3.015.79a5.352 5.352 0 0 1 1.992 2.17c.476.93.71 1.99.703 3.18V1029h-5.881v-9.2c.007-.81-.195-1.45-.607-1.91-.405-.46-.984-.69-1.736-.69-.476 0-.895.1-1.258.32-.355.2-.632.5-.831.89-.191.38-.291.85-.298 1.39Zm13.514 9.2v-16.36h5.881V1029h-5.881Zm2.94-18.07c-.795 0-1.477-.26-2.045-.79-.568-.52-.852-1.15-.852-1.89s.284-1.37.852-1.9c.568-.52 1.25-.79 2.045-.79.803 0 1.485.27 2.046.79.568.53.852 1.16.852 1.9s-.284 1.37-.852 1.89c-.561.53-1.243.79-2.046.79Zm13.82 18.37c-1.775 0-3.295-.35-4.559-1.06-1.264-.71-2.234-1.69-2.909-2.96-.674-1.27-1.012-2.74-1.012-4.42 0-1.68.338-3.15 1.012-4.41a7.158 7.158 0 0 1 2.909-2.96c1.264-.71 2.784-1.07 4.559-1.07 1.606 0 2.994.29 4.166.88 1.179.57 2.092 1.39 2.738 2.45.646 1.05.973 2.28.98 3.7h-5.455c-.078-.85-.326-1.51-.745-1.96-.412-.45-.945-.68-1.598-.68-.512 0-.959.15-1.343.45-.383.29-.681.74-.895 1.33-.213.59-.319 1.33-.319 2.23 0 .89.106 1.64.319 2.24.214.58.512 1.03.895 1.33.384.29.831.43 1.343.43.433 0 .816-.1 1.15-.29.334-.21.604-.51.81-.9.213-.4.341-.88.383-1.45h5.455c-.021 1.44-.352 2.7-.991 3.77-.639 1.07-1.545 1.89-2.716 2.47-1.165.59-2.557.88-4.177.88Zm35.079-22.12V1029h-4.943l-7.883-11.46h-.128V1029h-5.923v-21.82h5.028l7.756 11.42h.17v-11.42h5.923Zm10.728 22.12c-1.747 0-3.252-.34-4.517-1a7.037 7.037 0 0 1-2.908-2.9c-.675-1.27-1.012-2.78-1.012-4.54 0-1.69.341-3.17 1.023-4.43a7.252 7.252 0 0 1 2.887-2.95c1.243-.71 2.709-1.06 4.4-1.06 1.235 0 2.354.2 3.355.58 1.002.38 1.858.94 2.568 1.67s1.257 1.61 1.641 2.64c.383 1.04.575 2.21.575 3.51v1.36h-14.617v-3.24h9.205a2.223 2.223 0 0 0-.362-1.23 2.266 2.266 0 0 0-.927-.84c-.384-.21-.82-.31-1.311-.31-.475 0-.912.1-1.31.31-.398.19-.717.47-.959.83-.234.35-.358.77-.373 1.24v3.5c0 .52.111.99.331 1.4.22.42.536.74.948.97.412.24.909.35 1.491.35.405 0 .774-.05 1.108-.17.341-.11.632-.27.874-.49.241-.22.419-.48.533-.78h5.369c-.185 1.13-.622 2.12-1.311 2.96-.688.83-1.601 1.47-2.737 1.94-1.13.45-2.451.68-3.964.68Zm13.104-.3-4.091-16.36h5.881l1.875 9.97h.128l2.088-9.97h5.71l2.173 9.88h.128l1.79-9.88h5.881l-4.091 16.36h-6.35l-2.301-8.78h-.17l-2.301 8.78h-6.35ZM1049.51 1007.18h6.61l4.26 8.87h.17l4.26-8.87h6.6l-8.01 14.96v6.86h-5.88v-6.86l-8.01-14.96Zm33.33 14.66v-9.2h5.88V1029h-5.58v-3.11h-.17c-.36 1.04-.98 1.86-1.87 2.45-.88.58-1.94.87-3.16.87-1.14 0-2.14-.26-3-.79-.86-.52-1.52-1.25-2-2.17-.47-.92-.7-1.98-.71-3.17v-10.44h5.88v9.2c.01.81.21 1.45.62 1.91.41.46.99.69 1.72.69.49 0 .92-.1 1.27-.31.36-.21.64-.51.83-.89.2-.39.3-.86.29-1.4Zm28.93-7.46c-.09-.37-.24-.7-.43-.99-.2-.29-.45-.53-.75-.73-.29-.21-.63-.36-1.02-.46a4.65 4.65 0 0 0-1.27-.16c-.99 0-1.84.24-2.55.71-.69.48-1.23 1.16-1.59 2.06-.37.89-.55 1.97-.55 3.24 0 1.28.18 2.37.52 3.28.35.91.87 1.6 1.56 2.09.69.48 1.54.72 2.57.72.9 0 1.65-.13 2.24-.39.61-.26 1.06-.64 1.36-1.12.3-.48.45-1.05.45-1.71l1.02.11h-4.99v-4.22h9.68v3.03c0 1.99-.43 3.69-1.27 5.1-.84 1.41-2 2.49-3.48 3.24-1.47.75-3.15 1.12-5.06 1.12-2.12 0-3.98-.45-5.59-1.35a9.574 9.574 0 0 1-3.76-3.86c-.89-1.67-1.34-3.66-1.34-5.96 0-1.8.27-3.4.82-4.79.55-1.39 1.32-2.57 2.3-3.53.98-.96 2.11-1.69 3.4-2.18 1.28-.5 2.66-.75 4.13-.75 1.29 0 2.49.19 3.6.56 1.12.36 2.1.88 2.95 1.55.86.67 1.56 1.46 2.08 2.38.53.91.85 1.92.96 3.01h-5.99Zm16.98 14.92c-1.78 0-3.3-.35-4.56-1.06-1.27-.71-2.24-1.69-2.91-2.96-.68-1.27-1.01-2.74-1.01-4.42 0-1.68.33-3.15 1.01-4.41a7.096 7.096 0 0 1 2.91-2.96c1.26-.71 2.78-1.07 4.56-1.07 1.77 0 3.29.36 4.56 1.07 1.26.7 2.23 1.69 2.9 2.96.68 1.26 1.02 2.73 1.02 4.41 0 1.68-.34 3.15-1.02 4.42-.67 1.27-1.64 2.25-2.9 2.96-1.27.71-2.79 1.06-4.56 1.06Zm.04-4.35c.5 0 .93-.17 1.29-.5.36-.33.64-.81.84-1.43.2-.61.3-1.35.3-2.2 0-.86-.1-1.6-.3-2.21-.2-.61-.48-1.09-.84-1.42-.36-.34-.79-.51-1.29-.51-.53 0-.98.17-1.35.51-.38.33-.67.81-.87 1.42-.2.61-.3 1.35-.3 2.21 0 .85.1 1.59.3 2.2.2.62.49 1.1.87 1.43.37.33.82.5 1.35.5Zm20.58-12.31v4.26h-10.78v-4.26h10.78Zm-8.69-3.92h5.88v15.02c0 .22.04.42.12.57.07.15.19.27.36.34.16.07.37.11.63.11.17 0 .38-.02.61-.06.25-.05.42-.08.54-.11l.85 4.13c-.26.08-.64.18-1.13.29-.48.11-1.06.19-1.73.22-1.35.08-2.48-.06-3.39-.41-.92-.36-1.61-.91-2.07-1.67-.46-.76-.69-1.72-.67-2.86v-15.57Zm17.32 11.08v9.2h-5.88v-21.82h5.67v8.57h.17c.37-1.05.98-1.86 1.84-2.44.86-.59 1.9-.89 3.1-.89 1.16 0 2.17.27 3.02.79.86.53 1.52 1.25 1.99 2.17.48.93.71 1.99.7 3.18V1029h-5.88v-9.2c.01-.81-.19-1.45-.6-1.91-.41-.46-.99-.69-1.74-.69-.48 0-.9.1-1.26.32-.35.2-.63.5-.83.89-.19.38-.29.85-.3 1.39Zm13.52 9.2v-16.36h5.88V1029h-5.88Zm2.94-18.07c-.8 0-1.48-.26-2.05-.79-.57-.52-.85-1.15-.85-1.89s.28-1.37.85-1.9a2.94 2.94 0 0 1 2.05-.79c.8 0 1.48.27 2.04.79.57.53.85 1.16.85 1.9s-.28 1.37-.85 1.89c-.56.53-1.24.79-2.04.79Zm13.82 18.37c-1.78 0-3.3-.35-4.56-1.06-1.27-.71-2.24-1.69-2.91-2.96-.68-1.27-1.01-2.74-1.01-4.42 0-1.68.33-3.15 1.01-4.41a7.096 7.096 0 0 1 2.91-2.96c1.26-.71 2.78-1.07 4.56-1.07 1.6 0 2.99.29 4.16.88 1.18.57 2.09 1.39 2.74 2.45.65 1.05.97 2.28.98 3.7h-5.45c-.08-.85-.33-1.51-.75-1.96-.41-.45-.94-.68-1.6-.68-.51 0-.96.15-1.34.45-.38.29-.68.74-.89 1.33-.22.59-.32 1.33-.32 2.23 0 .89.1 1.64.32 2.24.21.58.51 1.03.89 1.33.38.29.83.43 1.34.43.44 0 .82-.1 1.15-.29.34-.21.61-.51.81-.9.22-.4.34-.88.39-1.45h5.45c-.02 1.44-.35 2.7-.99 3.77-.64 1.07-1.54 1.89-2.72 2.47-1.16.59-2.55.88-4.17.88ZM1239.4 1007.18h3.99l6.95 16.96h.25l6.95-16.96h3.99V1029h-3.13v-15.79h-.2l-6.43 15.76h-2.6l-6.44-15.77h-.2v15.8h-3.13v-21.82Zm31.43 22.18c-1.04 0-1.98-.19-2.82-.57a4.78 4.78 0 0 1-1.99-1.7c-.48-.74-.72-1.64-.72-2.71 0-.93.18-1.69.53-2.28a4 4 0 0 1 1.44-1.42c.6-.35 1.28-.61 2.02-.79.75-.18 1.51-.31 2.28-.4.98-.12 1.78-.21 2.39-.28.61-.08 1.05-.2 1.33-.37.28-.17.42-.45.42-.83v-.08c0-.93-.27-1.65-.79-2.16-.52-.51-1.29-.77-2.32-.77-1.08 0-1.92.24-2.54.72-.61.46-1.03.99-1.27 1.56l-2.99-.68c.35-.99.87-1.8 1.55-2.41.69-.62 1.49-1.06 2.38-1.34.89-.28 1.84-.43 2.82-.43.66 0 1.35.08 2.08.24.74.15 1.43.42 2.07.83.64.4 1.17.98 1.58 1.74.42.74.62 1.71.62 2.9V1029h-3.11v-2.24h-.13c-.2.41-.51.82-.92 1.22-.41.39-.94.73-1.59.99-.65.26-1.42.39-2.32.39Zm.69-2.55c.88 0 1.63-.18 2.26-.53.63-.34 1.11-.8 1.44-1.36.33-.57.5-1.18.5-1.82v-2.11c-.12.11-.34.22-.66.32-.32.09-.69.17-1.1.24-.41.07-.81.13-1.2.18-.4.05-.72.1-.98.13-.62.08-1.19.21-1.7.4-.5.18-.91.45-1.21.8-.3.34-.45.79-.45 1.36 0 .79.29 1.38.87 1.79.59.4 1.33.6 2.23.6Zm18.52 2.52c-1.59 0-2.95-.36-4.09-1.08-1.14-.72-2.01-1.72-2.62-2.99-.61-1.27-.92-2.73-.92-4.37 0-1.66.31-3.13.94-4.4.62-1.28 1.5-2.27 2.64-2.99 1.14-.72 2.47-1.08 4.02-1.08 1.24 0 2.35.23 3.32.7.97.45 1.76 1.09 2.35 1.91.61.83.97 1.79 1.08 2.89h-3.1c-.17-.77-.56-1.43-1.17-1.98-.61-.56-1.42-.83-2.43-.83-.89 0-1.67.23-2.33.7-.66.46-1.18 1.12-1.55 1.98-.37.85-.55 1.86-.55 3.03 0 1.19.18 2.22.54 3.09.36.86.87 1.54 1.53 2.01.67.48 1.46.71 2.36.71.6 0 1.15-.11 1.64-.33.5-.22.91-.55 1.25-.96.34-.42.58-.93.71-1.52h3.1a6.05 6.05 0 0 1-1.03 2.84c-.58.83-1.35 1.48-2.31 1.96-.96.47-2.09.71-3.38.71Zm10.13-.33v-16.36h3.18V1029h-3.18Zm1.61-18.89c-.56 0-1.03-.18-1.43-.55-.39-.38-.59-.83-.59-1.34 0-.53.2-.98.59-1.35.4-.37.87-.56 1.43-.56.55 0 1.02.19 1.41.56.4.37.6.82.6 1.35 0 .51-.2.96-.6 1.34-.39.37-.86.55-1.41.55Zm9.04 9.17v9.72h-3.18v-16.36h3.05v2.66h.21c.37-.87.96-1.56 1.77-2.09.81-.52 1.82-.79 3.05-.79 1.12 0 2.09.24 2.93.71.84.46 1.49 1.15 1.95 2.06.46.92.7 2.05.7 3.4V1029h-3.19v-10.02c0-1.19-.31-2.12-.93-2.79-.62-.67-1.46-1.01-2.54-1.01-.74 0-1.4.16-1.97.48-.57.32-1.02.79-1.36 1.41-.32.61-.49 1.35-.49 2.21Zm22.39-6.64v2.55h-8.94v-2.55h8.94Zm-6.55-3.92h3.19v15.48c0 .61.09 1.08.28 1.39.18.31.42.52.71.63.3.11.62.16.97.16.26 0 .48-.02.67-.05.19-.04.34-.07.45-.09l.57 2.63c-.18.07-.44.14-.78.22-.35.07-.77.12-1.28.12-.84.02-1.62-.13-2.35-.44a4.06 4.06 0 0 1-1.75-1.45c-.45-.66-.68-1.48-.68-2.46v-16.14Zm16.79 20.61c-1.54 0-2.88-.35-4.02-1.05-1.14-.71-2.03-1.69-2.66-2.96-.64-1.26-.95-2.74-.95-4.43 0-1.69.31-3.18.95-4.45.63-1.27 1.52-2.26 2.66-2.96 1.14-.71 2.48-1.06 4.02-1.06 1.53 0 2.87.35 4.01 1.06 1.15.7 2.03 1.69 2.67 2.96.63 1.27.94 2.76.94 4.45 0 1.69-.31 3.17-.94 4.43-.64 1.27-1.52 2.25-2.67 2.96-1.14.7-2.48 1.05-4.01 1.05Zm.01-2.67c.99 0 1.82-.27 2.47-.79.65-.53 1.13-1.23 1.45-2.1.32-.87.48-1.84.48-2.89 0-1.04-.16-2-.48-2.87-.32-.89-.8-1.59-1.45-2.12-.65-.54-1.48-.8-2.47-.8-1 0-1.84.26-2.5.8-.65.53-1.14 1.23-1.46 2.12-.31.87-.46 1.83-.46 2.87 0 1.05.15 2.02.46 2.89.32.87.81 1.57 1.46 2.1.66.52 1.5.79 2.5.79Zm23.43-10.03-2.89.51c-.12-.37-.31-.72-.57-1.05-.26-.34-.6-.61-1.04-.82-.45-.22-1-.32-1.66-.32-.9 0-1.65.2-2.25.61-.61.39-.91.91-.91 1.54 0 .55.2.99.61 1.32.4.33 1.06.61 1.96.82l2.6.6c1.5.35 2.62.88 3.36 1.61.74.72 1.11 1.66 1.11 2.82 0 .98-.28 1.85-.85 2.62-.56.76-1.35 1.36-2.36 1.79-1 .43-2.16.65-3.48.65-1.83 0-3.33-.39-4.48-1.17-1.16-.79-1.87-1.91-2.13-3.36l3.07-.47c.2.81.59 1.41 1.19 1.83.59.4 1.37.6 2.33.6 1.04 0 1.88-.21 2.5-.65.63-.44.94-.97.94-1.61 0-.51-.19-.94-.57-1.28-.38-.35-.96-.62-1.74-.79l-2.77-.61c-1.53-.35-2.66-.9-3.39-1.66-.72-.76-1.09-1.72-1.09-2.89 0-.97.27-1.81.81-2.53.54-.73 1.29-1.29 2.24-1.7.95-.41 2.04-.62 3.27-.62 1.77 0 3.16.39 4.18 1.15 1.01.76 1.68 1.78 2.01 3.06Zm7.01 2.65v9.72h-3.19v-21.82h3.15v8.12h.2c.38-.88.97-1.58 1.76-2.1.78-.52 1.81-.78 3.09-.78 1.12 0 2.1.23 2.94.7.84.46 1.49 1.15 1.96 2.06.47.91.7 2.05.7 3.41V1029h-3.19v-10.02c0-1.21-.3-2.14-.92-2.8-.62-.66-1.48-1-2.58-1-.75 0-1.43.16-2.02.48-.59.32-1.06.79-1.4 1.41-.33.61-.5 1.35-.5 2.21Zm35.06-2.65-2.89.51c-.12-.37-.31-.72-.57-1.05-.26-.34-.6-.61-1.04-.82-.44-.22-1-.32-1.66-.32-.9 0-1.65.2-2.25.61-.61.39-.91.91-.91 1.54 0 .55.2.99.61 1.32.4.33 1.06.61 1.96.82l2.6.6c1.5.35 2.63.88 3.36 1.61.74.72 1.11 1.66 1.11 2.82 0 .98-.28 1.85-.85 2.62-.56.76-1.35 1.36-2.36 1.79-1 .43-2.16.65-3.48.65-1.83 0-3.33-.39-4.48-1.17-1.16-.79-1.87-1.91-2.13-3.36l3.07-.47c.2.81.59 1.41 1.19 1.83.59.4 1.37.6 2.33.6 1.04 0 1.88-.21 2.5-.65.63-.44.94-.97.94-1.61 0-.51-.19-.94-.57-1.28-.38-.35-.96-.62-1.74-.79l-2.77-.61c-1.53-.35-2.66-.9-3.39-1.66-.72-.76-1.09-1.72-1.09-2.89 0-.97.27-1.81.81-2.53.54-.73 1.29-1.29 2.24-1.7.95-.41 2.04-.62 3.27-.62 1.77 0 3.16.39 4.18 1.15 1.01.76 1.69 1.78 2.01 3.06Zm5.84 18.51c-.48 0-.91-.04-1.3-.12-.39-.07-.68-.15-.88-.24l.77-2.61c.58.16 1.1.23 1.56.21.45-.02.85-.19 1.2-.51.36-.32.67-.85.94-1.57l.39-1.09-5.99-16.57h3.41l4.15 12.7h.17l4.14-12.7h3.42l-6.74 18.54c-.31.86-.71 1.58-1.19 2.17-.49.59-1.06 1.04-1.73 1.34-.67.3-1.44.45-2.32.45Zm27.24-18.51-2.89.51c-.12-.37-.31-.72-.57-1.05-.26-.34-.61-.61-1.05-.82-.44-.22-.99-.32-1.65-.32-.9 0-1.65.2-2.26.61-.6.39-.9.91-.9 1.54 0 .55.2.99.6 1.32.41.33 1.06.61 1.96.82l2.6.6c1.51.35 2.63.88 3.37 1.61.74.72 1.11 1.66 1.11 2.82 0 .98-.29 1.85-.85 2.62-.57.76-1.35 1.36-2.36 1.79-1 .43-2.16.65-3.48.65-1.83 0-3.33-.39-4.49-1.17-1.16-.79-1.87-1.91-2.13-3.36l3.08-.47c.19.81.59 1.41 1.18 1.83.6.4 1.38.6 2.34.6 1.04 0 1.87-.21 2.5-.65.62-.44.94-.97.94-1.61 0-.51-.19-.94-.58-1.28-.37-.35-.95-.62-1.73-.79l-2.77-.61c-1.53-.35-2.66-.9-3.39-1.66-.73-.76-1.09-1.72-1.09-2.89 0-.97.27-1.81.81-2.53.54-.73 1.29-1.29 2.24-1.7.95-.41 2.04-.62 3.27-.62 1.77 0 3.16.39 4.17 1.15 1.02.76 1.69 1.78 2.02 3.06Zm11.46-3.99v2.55h-8.94v-2.55h8.94Zm-6.54-3.92h3.18v15.48c0 .61.1 1.08.28 1.39.18.31.42.52.71.63.3.11.62.16.97.16.26 0 .48-.02.67-.05l.45-.09.58 2.63c-.19.07-.45.14-.79.22-.34.07-.77.12-1.28.12-.84.02-1.62-.13-2.34-.44-.73-.32-1.31-.8-1.76-1.45-.45-.66-.67-1.48-.67-2.46v-16.14Zm16.94 20.61c-1.61 0-3-.34-4.17-1.03-1.15-.7-2.05-1.68-2.68-2.93-.63-1.27-.94-2.75-.94-4.45 0-1.67.31-3.15.94-4.43.63-1.28 1.51-2.27 2.64-2.99 1.14-.72 2.47-1.08 3.99-1.08.92 0 1.81.16 2.68.46.87.31 1.64.79 2.33 1.44.69.65 1.24 1.5 1.63 2.55.4 1.03.6 2.29.6 3.78v1.13h-13.01v-2.39h9.89c0-.84-.17-1.58-.51-2.23-.34-.65-.82-1.16-1.44-1.54-.61-.38-1.33-.57-2.15-.57-.9 0-1.68.22-2.35.67-.66.43-1.17 1-1.53 1.7-.36.7-.53 1.45-.53 2.27v1.86c0 1.1.19 2.03.57 2.79.39.77.94 1.36 1.63 1.76.7.4 1.51.6 2.44.6.6 0 1.16-.09 1.65-.26.5-.17.93-.44 1.29-.79.36-.34.64-.77.83-1.28l3.02.54c-.24.89-.68 1.66-1.3 2.33-.62.66-1.4 1.18-2.34 1.55-.93.36-1.99.54-3.18.54Zm10.55-.33v-16.36h3.06v2.66h.2c.34-.9.9-1.61 1.68-2.11.77-.51 1.7-.77 2.78-.77 1.09 0 2.01.26 2.75.77.74.51 1.29 1.21 1.65 2.11h.17c.39-.87 1.01-1.57 1.86-2.09.85-.52 1.87-.79 3.05-.79 1.48 0 2.69.47 3.63 1.4.95.93 1.42 2.33 1.42 4.21V1029h-3.19v-10.67c0-1.11-.3-1.92-.9-2.41-.61-.5-1.33-.75-2.17-.75-1.03 0-1.84.32-2.41.96-.58.63-.87 1.45-.87 2.44V1029h-3.17v-10.88c0-.88-.28-1.6-.83-2.14-.56-.54-1.28-.81-2.16-.81-.61 0-1.17.16-1.68.48-.5.31-.91.75-1.22 1.31-.31.56-.46 1.21-.46 1.95V1029h-3.19Zm42.24-16.36v2.55h-9.24v-2.55h9.24Zm-6.71 16.36v-18.26c0-1.02.23-1.87.67-2.55.45-.68 1.04-1.19 1.78-1.52.74-.34 1.54-.51 2.41-.51.64 0 1.19.05 1.64.16.46.1.79.19 1.01.28l-.74 2.57c-.15-.04-.34-.09-.58-.15a3.46 3.46 0 0 0-.85-.09c-.77 0-1.33.19-1.66.57-.33.39-.49.94-.49 1.67V1029h-3.19Zm16.25.33c-1.53 0-2.87-.35-4.02-1.05-1.14-.71-2.03-1.69-2.66-2.96-.63-1.26-.95-2.74-.95-4.43 0-1.69.32-3.18.95-4.45.63-1.27 1.52-2.26 2.66-2.96 1.15-.71 2.49-1.06 4.02-1.06 1.53 0 2.87.35 4.02 1.06 1.14.7 2.03 1.69 2.66 2.96.63 1.27.95 2.76.95 4.45 0 1.69-.32 3.17-.95 4.43-.63 1.27-1.52 2.25-2.66 2.96-1.15.7-2.49 1.05-4.02 1.05Zm.01-2.67c.99 0 1.82-.27 2.47-.79.66-.53 1.14-1.23 1.45-2.1.32-.87.48-1.84.48-2.89 0-1.04-.16-2-.48-2.87-.31-.89-.79-1.59-1.45-2.12-.65-.54-1.48-.8-2.47-.8-1 0-1.83.26-2.49.8-.66.53-1.14 1.23-1.46 2.12-.31.87-.47 1.83-.47 2.87 0 1.05.16 2.02.47 2.89.32.87.8 1.57 1.46 2.1.66.52 1.49.79 2.49.79Zm14.36-7.38v9.72h-3.19v-16.36h3.06v2.66h.2c.38-.87.97-1.56 1.77-2.09.81-.52 1.83-.79 3.06-.79 1.11 0 2.09.24 2.93.71.84.46 1.49 1.15 1.95 2.06.46.92.69 2.05.69 3.4V1029h-3.18v-10.02c0-1.19-.31-2.12-.93-2.79-.62-.67-1.47-1.01-2.55-1.01-.74 0-1.39.16-1.97.48-.57.32-1.02.79-1.35 1.41-.33.61-.49 1.35-.49 2.21Zm22.38-6.64v2.55h-8.94v-2.55h8.94Zm-6.54-3.92h3.19v15.48c0 .61.09 1.08.27 1.39.19.31.42.52.72.63.29.11.62.16.97.16.25 0 .47-.02.67-.05.19-.04.34-.07.44-.09l.58 2.63c-.19.07-.45.14-.79.22-.34.07-.77.12-1.28.12-.84.02-1.62-.13-2.34-.44-.73-.32-1.31-.8-1.76-1.45-.45-.66-.67-1.48-.67-2.46v-16.14ZM496.24 1029h-3.494l7.851-21.82h3.804l7.851 21.82h-3.494l-6.169-17.86h-.17L496.24 1029Zm.586-8.54h11.335v2.77h-11.335v-2.77Zm30.269-7.82-5.934 16.36h-3.409l-5.945-16.36h3.42l4.144 12.59h.171l4.133-12.59h3.42Zm7.287 16.72c-1.037 0-1.975-.19-2.813-.57a4.737 4.737 0 0 1-1.992-1.7c-.483-.74-.724-1.64-.724-2.71 0-.93.177-1.69.532-2.28.356-.6.835-1.07 1.439-1.42a7.515 7.515 0 0 1 2.024-.79c.746-.18 1.506-.31 2.28-.4.98-.12 1.775-.21 2.386-.28.611-.08 1.055-.2 1.332-.37.277-.17.415-.45.415-.83v-.08c0-.93-.263-1.65-.788-2.16-.519-.51-1.293-.77-2.323-.77-1.072 0-1.917.24-2.535.72-.611.46-1.034.99-1.268 1.56l-2.993-.68c.355-.99.873-1.8 1.555-2.41a6.317 6.317 0 0 1 2.376-1.34 9.404 9.404 0 0 1 2.823-.43c.653 0 1.346.08 2.077.24a5.99 5.99 0 0 1 2.067.83c.646.4 1.175.98 1.587 1.74.412.74.618 1.71.618 2.9V1029h-3.111v-2.24h-.127c-.206.41-.515.82-.927 1.22-.412.39-.941.73-1.588.99-.646.26-1.42.39-2.322.39Zm.692-2.55c.881 0 1.634-.18 2.259-.53a3.602 3.602 0 0 0 1.939-3.18v-2.11c-.114.11-.334.22-.661.32-.319.09-.685.17-1.097.24-.412.07-.813.13-1.204.18-.39.05-.717.1-.98.13a7.7 7.7 0 0 0-1.694.4c-.504.18-.909.45-1.214.8-.299.34-.448.79-.448 1.36 0 .79.291 1.38.874 1.79.582.4 1.324.6 2.226.6ZM546.7 1029v-16.36h3.185V1029H546.7Zm1.609-18.89a2.02 2.02 0 0 1-1.428-.55c-.391-.38-.586-.83-.586-1.34 0-.53.195-.98.586-1.35.398-.37.874-.56 1.428-.56.554 0 1.026.19 1.416.56.398.37.597.82.597 1.35 0 .51-.199.96-.597 1.34-.39.37-.862.55-1.416.55Zm9.047-2.93V1029h-3.185v-21.82h3.185Zm9.047 22.18c-1.037 0-1.974-.19-2.812-.57a4.737 4.737 0 0 1-1.992-1.7c-.483-.74-.725-1.64-.725-2.71 0-.93.178-1.69.533-2.28.355-.6.834-1.07 1.438-1.42a7.541 7.541 0 0 1 2.024-.79c.746-.18 1.506-.31 2.28-.4.98-.12 1.776-.21 2.387-.28.61-.08 1.054-.2 1.331-.37.277-.17.416-.45.416-.83v-.08c0-.93-.263-1.65-.789-2.16-.518-.51-1.292-.77-2.322-.77-1.073 0-1.918.24-2.536.72-.61.46-1.033.99-1.267 1.56l-2.994-.68c.355-.99.874-1.8 1.555-2.41a6.317 6.317 0 0 1 2.376-1.34 9.404 9.404 0 0 1 2.823-.43c.654 0 1.346.08 2.078.24.738.15 1.427.42 2.066.83.647.4 1.176.98 1.588 1.74.412.74.618 1.71.618 2.9V1029h-3.111v-2.24h-.128c-.206.41-.515.82-.927 1.22-.412.39-.941.73-1.587.99s-1.421.39-2.323.39Zm.693-2.55c.881 0 1.633-.18 2.258-.53a3.598 3.598 0 0 0 1.939-3.18v-2.11c-.113.11-.333.22-.66.32-.32.09-.686.17-1.097.24-.412.07-.814.13-1.204.18-.391.05-.718.1-.98.13-.618.08-1.183.21-1.694.4-.505.18-.909.45-1.215.8-.298.34-.447.79-.447 1.36 0 .79.291 1.38.873 1.79.583.4 1.325.6 2.227.6Zm11.881 2.19v-21.82h3.185v8.11h.192c.185-.34.451-.74.799-1.18.348-.45.831-.84 1.449-1.18.618-.34 1.435-.51 2.45-.51 1.321 0 2.5.34 3.537 1 1.037.67 1.85 1.63 2.44 2.89.597 1.26.895 2.77.895 4.54s-.295 3.28-.884 4.55c-.59 1.26-1.4 2.23-2.429 2.91-1.03.67-2.206 1.01-3.527 1.01-.994 0-1.807-.17-2.439-.5-.625-.33-1.115-.73-1.47-1.17a8.875 8.875 0 0 1-.821-1.2h-.266v2.55h-3.111Zm3.122-8.18c0 1.15.166 2.16.5 3.02.334.87.817 1.55 1.449 2.04.632.48 1.406.72 2.323.72.951 0 1.747-.25 2.386-.75.639-.51 1.122-1.21 1.449-2.08.334-.87.5-1.86.5-2.95 0-1.08-.163-2.05-.49-2.91-.319-.86-.802-1.54-1.448-2.03-.64-.5-1.439-.75-2.397-.75-.924 0-1.705.24-2.344.71-.632.48-1.112 1.14-1.438 2-.327.85-.49 1.84-.49 2.98Zm18.587-13.64V1029h-3.185v-21.82h3.185Zm11.338 22.15c-1.612 0-3.001-.34-4.166-1.03-1.157-.7-2.052-1.68-2.684-2.93-.625-1.27-.938-2.75-.938-4.45 0-1.67.313-3.15.938-4.43.632-1.28 1.513-2.27 2.642-2.99 1.136-.72 2.464-1.08 3.984-1.08.924 0 1.818.16 2.685.46.866.31 1.644.79 2.333 1.44.689.65 1.232 1.5 1.63 2.55.398 1.03.597 2.29.597 3.78v1.13h-13.008v-2.39h9.886c0-.84-.17-1.58-.511-2.23a3.906 3.906 0 0 0-1.438-1.54c-.611-.38-1.329-.57-2.152-.57-.895 0-1.677.22-2.344.67-.661.43-1.172 1-1.534 1.7-.355.7-.533 1.45-.533 2.27v1.86c0 1.1.192 2.03.575 2.79.391.77.934 1.36 1.63 1.76.696.4 1.51.6 2.44.6.604 0 1.154-.09 1.651-.26.497-.17.927-.44 1.289-.79.362-.34.639-.77.831-1.28l3.015.54a5.445 5.445 0 0 1-1.3 2.33c-.617.66-1.395 1.18-2.333 1.55-.93.36-1.992.54-3.185.54Zm25.387 0c-1.534 0-2.873-.35-4.016-1.05-1.144-.71-2.032-1.69-2.664-2.96-.632-1.26-.948-2.74-.948-4.43 0-1.69.316-3.18.948-4.45.632-1.27 1.52-2.26 2.664-2.96 1.143-.71 2.482-1.06 4.016-1.06 1.534 0 2.873.35 4.016 1.06 1.144.7 2.032 1.69 2.664 2.96.632 1.27.948 2.76.948 4.45 0 1.69-.316 3.17-.948 4.43-.632 1.27-1.52 2.25-2.664 2.96-1.143.7-2.482 1.05-4.016 1.05Zm.011-2.67c.994 0 1.818-.27 2.471-.79.654-.53 1.137-1.23 1.449-2.1.32-.87.48-1.84.48-2.89 0-1.04-.16-2-.48-2.87-.312-.89-.795-1.59-1.449-2.12-.653-.54-1.477-.8-2.471-.8-1.002 0-1.833.26-2.493.8-.654.53-1.14 1.23-1.46 2.12-.312.87-.468 1.83-.468 2.87 0 1.05.156 2.02.468 2.89.32.87.806 1.57 1.46 2.1.66.52 1.491.79 2.493.79Zm14.358-7.38v9.72h-3.186v-16.36h3.058v2.66h.202a4.69 4.69 0 0 1 1.769-2.09c.81-.52 1.829-.79 3.057-.79 1.115 0 2.092.24 2.93.71.838.46 1.488 1.15 1.95 2.06.461.92.692 2.05.692 3.4V1029h-3.185v-10.02c0-1.19-.309-2.12-.927-2.79-.618-.67-1.467-1.01-2.546-1.01-.739 0-1.396.16-1.971.48-.568.32-1.019.79-1.353 1.41-.327.61-.49 1.35-.49 2.21Zm37.705-5.21a6.694 6.694 0 0 0-.831-1.73 5.24 5.24 0 0 0-1.225-1.32 5.093 5.093 0 0 0-1.63-.84c-.604-.2-1.268-.29-1.992-.29-1.229 0-2.337.31-3.324.95-.987.63-1.769 1.55-2.344 2.78-.568 1.21-.852 2.7-.852 4.46 0 1.77.287 3.26.863 4.49.575 1.22 1.363 2.14 2.365 2.78 1.001.63 2.141.94 3.419.94 1.187 0 2.22-.24 3.101-.72a5.05 5.05 0 0 0 2.056-2.05c.49-.88.735-1.93.735-3.13l.852.16h-6.243v-2.71h8.576v2.48c0 1.83-.39 3.42-1.172 4.77a7.98 7.98 0 0 1-3.217 3.11c-1.364.73-2.926 1.1-4.688 1.1-1.974 0-3.707-.46-5.198-1.37-1.485-.9-2.642-2.19-3.473-3.86-.831-1.68-1.247-3.67-1.247-5.97 0-1.74.242-3.3.725-4.69.483-1.38 1.161-2.56 2.034-3.52a8.785 8.785 0 0 1 3.101-2.23c1.193-.52 2.496-.78 3.909-.78 1.179 0 2.277.18 3.292.53a8.7 8.7 0 0 1 2.728 1.48c.802.64 1.466 1.4 1.992 2.28.525.87.88 1.84 1.065 2.9h-3.377Zm14.342 15.26c-1.534 0-2.873-.35-4.016-1.05-1.144-.71-2.032-1.69-2.664-2.96-.632-1.26-.948-2.74-.948-4.43 0-1.69.316-3.18.948-4.45.632-1.27 1.52-2.26 2.664-2.96 1.143-.71 2.482-1.06 4.016-1.06 1.534 0 2.873.35 4.016 1.06 1.144.7 2.032 1.69 2.664 2.96.632 1.27.948 2.76.948 4.45 0 1.69-.316 3.17-.948 4.43-.632 1.27-1.52 2.25-2.664 2.96-1.143.7-2.482 1.05-4.016 1.05Zm.011-2.67c.994 0 1.818-.27 2.471-.79.654-.53 1.137-1.23 1.449-2.1.32-.87.48-1.84.48-2.89 0-1.04-.16-2-.48-2.87-.312-.89-.795-1.59-1.449-2.12-.653-.54-1.477-.8-2.471-.8-1.002 0-1.833.26-2.493.8-.654.53-1.14 1.23-1.46 2.12-.312.87-.468 1.83-.468 2.87 0 1.05.156 2.02.468 2.89.32.87.806 1.57 1.46 2.1.66.52 1.491.79 2.493.79Zm18.065 2.67c-1.534 0-2.873-.35-4.016-1.05-1.144-.71-2.031-1.69-2.663-2.96-.633-1.26-.949-2.74-.949-4.43 0-1.69.316-3.18.949-4.45.632-1.27 1.519-2.26 2.663-2.96 1.143-.71 2.482-1.06 4.016-1.06 1.534 0 2.873.35 4.017 1.06 1.143.7 2.031 1.69 2.663 2.96.632 1.27.948 2.76.948 4.45 0 1.69-.316 3.17-.948 4.43-.632 1.27-1.52 2.25-2.663 2.96-1.144.7-2.483 1.05-4.017 1.05Zm.011-2.67c.994 0 1.818-.27 2.471-.79.654-.53 1.137-1.23 1.449-2.1.32-.87.48-1.84.48-2.89 0-1.04-.16-2-.48-2.87-.312-.89-.795-1.59-1.449-2.12-.653-.54-1.477-.8-2.471-.8-1.002 0-1.833.26-2.493.8-.653.53-1.14 1.23-1.46 2.12-.312.87-.468 1.83-.468 2.87 0 1.05.156 2.02.468 2.89.32.87.807 1.57 1.46 2.1.66.52 1.491.79 2.493.79Zm18.033 8.82c-1.299 0-2.418-.17-3.355-.51-.931-.34-1.691-.8-2.28-1.36-.59-.56-1.03-1.17-1.321-1.84l2.738-1.13c.191.31.447.64.767.99.326.36.767.66 1.321.91.561.25 1.282.37 2.162.37 1.208 0 2.206-.29 2.994-.88.788-.59 1.183-1.52 1.183-2.8v-3.21h-.203c-.192.35-.469.73-.831 1.16-.355.42-.845.79-1.47 1.11-.625.31-1.438.46-2.44.46-1.292 0-2.457-.3-3.494-.9-1.03-.61-1.847-1.51-2.45-2.7-.597-1.19-.895-2.66-.895-4.4 0-1.74.295-3.23.884-4.47.597-1.24 1.413-2.19 2.45-2.86 1.037-.66 2.213-1 3.527-1 1.015 0 1.836.17 2.461.51.625.34 1.111.73 1.459 1.18.355.44.629.84.82 1.18h.235v-2.65h3.121v16.72c0 1.41-.326 2.56-.98 3.46-.653.91-1.537 1.57-2.653 2.01-1.108.43-2.358.65-3.75.65Zm-.032-9.37c.917 0 1.691-.21 2.323-.64.639-.43 1.122-1.05 1.449-1.85.334-.81.501-1.78.501-2.91 0-1.1-.164-2.07-.491-2.91-.326-.83-.806-1.49-1.438-1.96-.632-.47-1.413-.71-2.344-.71-.958 0-1.757.25-2.397.75-.639.49-1.122 1.15-1.448 2-.32.84-.48 1.79-.48 2.83 0 1.07.164 2.02.49 2.82.327.81.81 1.45 1.449 1.9.646.46 1.442.68 2.386.68Zm14.873-18.93V1029h-3.186v-21.82h3.186Zm11.338 22.15c-1.613 0-3.001-.34-4.166-1.03-1.158-.7-2.053-1.68-2.685-2.93-.625-1.27-.937-2.75-.937-4.45 0-1.67.312-3.15.937-4.43.632-1.28 1.513-2.27 2.642-2.99 1.137-.72 2.465-1.08 3.985-1.08.923 0 1.818.16 2.684.46a6.62 6.62 0 0 1 2.334 1.44c.688.65 1.232 1.5 1.63 2.55.397 1.03.596 2.29.596 3.78v1.13h-13.008v-2.39h9.887c0-.84-.171-1.58-.512-2.23a3.899 3.899 0 0 0-1.438-1.54c-.611-.38-1.328-.57-2.152-.57-.895 0-1.676.22-2.344.67-.66.43-1.172 1-1.534 1.7-.355.7-.532 1.45-.532 2.27v1.86c0 1.1.191 2.03.575 2.79.391.77.934 1.36 1.63 1.76.696.4 1.509.6 2.439.6a5.08 5.08 0 0 0 1.652-.26c.497-.17.927-.44 1.289-.79.362-.34.639-.77.831-1.28l3.015.54a5.456 5.456 0 0 1-1.3 2.33c-.618.66-1.396 1.18-2.333 1.55-.93.36-1.992.54-3.185.54Zm18.75-.33v-21.82h13.529v2.84h-10.238v6.64h9.269v2.83h-9.269v9.51h-3.291Zm23.014.33c-1.535 0-2.873-.35-4.017-1.05-1.143-.71-2.031-1.69-2.663-2.96-.632-1.26-.948-2.74-.948-4.43 0-1.69.316-3.18.948-4.45.632-1.27 1.52-2.26 2.663-2.96 1.144-.71 2.482-1.06 4.017-1.06 1.534 0 2.872.35 4.016 1.06 1.143.7 2.031 1.69 2.663 2.96.632 1.27.948 2.76.948 4.45 0 1.69-.316 3.17-.948 4.43-.632 1.27-1.52 2.25-2.663 2.96-1.144.7-2.482 1.05-4.016 1.05Zm.01-2.67c.995 0 1.818-.27 2.472-.79.653-.53 1.136-1.23 1.449-2.1.319-.87.479-1.84.479-2.89 0-1.04-.16-2-.479-2.87-.313-.89-.796-1.59-1.449-2.12-.654-.54-1.477-.8-2.472-.8-1.001 0-1.832.26-2.493.8-.653.53-1.14 1.23-1.459 2.12-.313.87-.469 1.83-.469 2.87 0 1.05.156 2.02.469 2.89.319.87.806 1.57 1.459 2.1.661.52 1.492.79 2.493.79Zm14.358-7.38v9.72h-3.185v-16.36h3.058v2.66h.202c.376-.87.966-1.56 1.768-2.09.81-.52 1.829-.79 3.058-.79 1.115 0 2.092.24 2.93.71.838.46 1.488 1.15 1.949 2.06.462.92.693 2.05.693 3.4V1029h-3.186v-10.02c0-1.19-.309-2.12-.927-2.79-.617-.67-1.466-1.01-2.546-1.01-.738 0-1.395.16-1.971.48-.568.32-1.019.79-1.353 1.41-.326.61-.49 1.35-.49 2.21Zm22.383-6.64v2.55h-8.938v-2.55h8.938Zm-6.541-3.92h3.185v15.48c0 .61.093 1.08.277 1.39.185.31.423.52.714.63.298.11.622.16.97.16.255 0 .479-.02.671-.05.191-.04.341-.07.447-.09l.575 2.63c-.184.07-.447.14-.788.22-.341.07-.767.12-1.278.12-.838.02-1.62-.13-2.344-.44-.724-.32-1.31-.8-1.758-1.45-.447-.66-.671-1.48-.671-2.46v-16.14Zm22.063 7.91-2.887.51a3.348 3.348 0 0 0-.575-1.05c-.256-.34-.604-.61-1.044-.82-.441-.22-.991-.32-1.651-.32-.902 0-1.655.2-2.259.61-.604.39-.906.91-.906 1.54 0 .55.203.99.608 1.32.405.33 1.058.61 1.96.82l2.599.6c1.506.35 2.628.88 3.367 1.61.738.72 1.108 1.66 1.108 2.82 0 .98-.284 1.85-.852 2.62-.562.76-1.346 1.36-2.355 1.79-1.001.43-2.163.65-3.484.65-1.832 0-3.327-.39-4.485-1.17-1.157-.79-1.868-1.91-2.13-3.36l3.079-.47c.191.81.585 1.41 1.182 1.83.597.4 1.374.6 2.333.6 1.044 0 1.879-.21 2.504-.65.625-.44.937-.97.937-1.61 0-.51-.192-.94-.575-1.28-.377-.35-.955-.62-1.737-.79l-2.769-.61c-1.527-.35-2.657-.9-3.388-1.66-.725-.76-1.087-1.72-1.087-2.89 0-.97.27-1.81.81-2.53.54-.73 1.285-1.29 2.237-1.7.952-.41 2.042-.62 3.271-.62 1.768 0 3.16.39 4.176 1.15 1.015.76 1.686 1.78 2.013 3.06Z"/></svg>