<svg width="1920" height="1080" viewBox="0 0 1920 1080" fill="none" xmlns="http://www.w3.org/2000/svg">
<path d="M306.059 242.74H276.359V313.12H263.759L263.939 207.1C263.939 197.38 263.939 189.4 263.939 183.16C263.939 176.8 263.879 172.18 263.759 169.3C263.639 166.42 263.519 163.54 263.399 160.66C263.399 157.78 263.279 154.9 263.039 152.02H266.999C270.119 152.02 272.579 152.2 274.379 152.56C276.299 152.8 277.259 153.52 277.259 154.72C277.259 155.08 277.079 155.98 276.719 157.42C276.479 158.86 276.359 159.88 276.359 160.48V231.76L306.059 231.4V242.74ZM223.799 179.74C223.799 187.3 222.839 194.92 220.919 202.6C218.039 214.96 213.059 226.78 205.979 238.06C198.899 249.34 190.439 259.3 180.599 267.94C176.879 271.06 173.159 273.94 169.439 276.58C165.719 279.1 161.939 281.44 158.099 283.6C152.459 286.6 149.159 288.1 148.199 288.1L139.379 277.84C140.099 277.84 142.979 276.64 148.019 274.24C155.339 270.76 162.059 266.68 168.179 262C177.059 255.16 184.739 247.12 191.219 237.88C193.979 233.92 196.439 229.9 198.599 225.82C200.759 221.62 202.679 217.3 204.359 212.86C205.559 209.74 206.579 206.74 207.419 203.86C208.259 200.86 208.919 197.86 209.399 194.86C209.519 193.54 209.639 192.28 209.759 191.08C209.879 189.88 210.059 188.68 210.299 187.48H179.519C174.479 187.48 170.099 187.48 166.379 187.48C162.779 187.48 159.779 187.54 157.379 187.66C154.979 187.78 152.819 187.9 150.899 188.02C149.099 188.02 147.479 188.08 146.039 188.2V175.6C149.879 175.84 154.499 176.08 159.899 176.32C165.299 176.56 171.959 176.68 179.879 176.68H183.839C194.399 176.68 202.679 176.62 208.679 176.5C214.799 176.38 219.779 176.2 223.619 175.96L223.799 179.74Z" fill="#1A73E8"/>
<path d="M483.359 240.94H456.359V311.86L443.399 312.22L443.759 165.34C443.759 160.78 443.699 157.6 443.579 155.8C443.459 153.88 443.279 152.56 443.039 151.84C446.279 151.84 449.519 152.02 452.759 152.38C456.239 152.74 457.979 153.52 457.979 154.72C457.979 155.2 457.679 156.16 457.079 157.6C456.599 159.04 456.359 160.06 456.359 160.66V229.6L483.359 229.24V240.94ZM431.519 256.6C430.799 256.36 430.439 256.24 430.439 256.24C429.239 256 428.219 255.88 427.379 255.88C423.539 255.88 417.239 256.24 408.479 256.96C406.679 257.2 403.739 257.56 399.659 258.04C395.579 258.4 390.299 258.94 383.819 259.66C380.219 260.14 375.539 260.68 369.779 261.28C364.019 261.76 357.119 262.36 349.079 263.08C346.679 263.32 343.919 263.56 340.799 263.8C337.679 264.04 334.139 264.28 330.179 264.52V182.26L329.819 173.26C332.099 173.26 335.039 173.62 338.639 174.34C342.599 175.3 344.579 176.5 344.579 177.94C344.579 178.66 344.279 179.74 343.679 181.18C343.199 182.62 342.959 183.52 342.959 183.88V252.1C348.119 251.98 353.819 251.8 360.059 251.56C366.299 251.32 374.099 250.72 383.459 249.76C393.059 248.8 401.699 247.9 409.379 247.06C417.059 246.22 422.819 245.8 426.659 245.8C427.619 245.8 428.699 245.92 429.899 246.16C430.139 246.16 430.559 246.34 431.159 246.7L431.519 256.6Z" fill="#1A73E8"/>
<path d="M662.639 239.32H636.539L636.179 261.46L636.359 312.22L623.399 312.76L623.939 165.16C623.939 162.76 623.879 160.78 623.759 159.22C623.759 157.66 623.699 156.46 623.579 155.62C623.579 154.66 623.519 153.94 623.399 153.46C623.279 152.86 623.159 152.38 623.039 152.02H625.199C630.119 152.02 633.479 152.26 635.279 152.74C637.079 153.1 637.979 153.7 637.979 154.54C637.979 155.02 637.739 156.04 637.259 157.6C636.779 159.04 636.539 160 636.539 160.48L636.179 187.66L636.539 228.16L662.639 227.8V239.32ZM610.799 265.42C607.319 266.14 604.139 266.8 601.259 267.4C598.499 267.88 596.039 268.24 593.879 268.48C587.399 269.44 581.579 270.22 576.419 270.82C571.379 271.3 566.879 271.54 562.919 271.54C556.559 272.02 550.319 272.44 544.199 272.8C538.079 273.16 531.959 273.46 525.839 273.7C523.799 273.82 521.459 273.88 518.819 273.88C516.299 273.88 513.479 273.94 510.359 274.06C510.599 267.82 510.719 260.98 510.719 253.54C510.839 245.98 510.899 238.72 510.899 231.76L510.539 180.28L557.699 181C564.659 181 571.379 180.94 577.859 180.82C584.459 180.7 590.339 180.52 595.499 180.28V191.26L559.139 190.9L523.499 191.26L522.959 231.22L523.319 262.36C525.119 262.24 526.739 262.18 528.179 262.18C529.739 262.18 531.119 262.12 532.319 262C540.719 261.52 547.679 261.22 553.199 261.1C558.719 260.86 562.799 260.74 565.439 260.74C570.479 260.26 575.579 259.72 580.739 259.12C586.019 258.52 591.479 257.8 597.119 256.96C598.919 256.72 600.899 256.48 603.059 256.24C605.219 255.88 607.559 255.46 610.079 254.98L610.799 265.42Z" fill="#1A73E8"/>
<path d="M841.199 232.3H816.359L816.539 311.86L803.219 312.58V296.92C803.219 290.32 803.279 281.62 803.399 270.82C803.519 259.9 803.639 248.26 803.759 235.9C803.759 225.34 803.759 216.04 803.759 208C803.759 199.96 803.699 193.06 803.579 187.3C803.459 181.54 803.399 176.5 803.399 172.18C803.399 167.74 803.399 164.02 803.399 161.02C803.399 157.54 803.339 154.54 803.219 152.02C806.339 152.02 809.519 152.2 812.759 152.56C816.119 152.92 817.799 153.76 817.799 155.08C817.799 155.44 817.559 156.22 817.079 157.42C816.599 158.5 816.359 159.52 816.359 160.48V220.42L841.199 220.24V232.3ZM788.819 268.48C786.299 268.96 783.899 269.38 781.619 269.74C779.459 269.98 777.419 270.22 775.499 270.46C769.739 271.18 763.859 271.9 757.859 272.62C751.859 273.34 745.619 274 739.139 274.6C734.819 275.08 729.899 275.5 724.379 275.86C718.859 276.1 712.679 276.34 705.839 276.58C703.679 276.7 701.219 276.76 698.459 276.76C695.819 276.76 692.759 276.82 689.279 276.94L689.999 249.22L689.639 212.32C691.679 212.44 694.019 212.56 696.659 212.68C699.299 212.8 702.359 212.92 705.839 213.04C709.319 213.16 712.739 213.22 716.099 213.22C719.459 213.22 722.699 213.22 725.819 213.22C732.179 213.22 737.819 213.22 742.739 213.22C747.659 213.22 752.099 213.1 756.059 212.86V177.94C753.299 177.7 749.939 177.52 745.979 177.4C742.019 177.28 736.979 177.22 730.859 177.22L689.819 178.12V166.24C691.619 166.36 693.299 166.42 694.859 166.42C696.419 166.42 697.739 166.42 698.819 166.42C715.499 166.78 726.719 166.96 732.479 166.96L769.559 166.6C769.439 167.92 769.379 169.12 769.379 170.2C769.379 171.28 769.379 172.24 769.379 173.08C769.019 185.68 768.839 193.72 768.839 197.2L769.199 224.02C768.959 224.02 768.239 224.02 767.039 224.02C765.959 224.02 764.459 223.96 762.539 223.84C760.499 223.72 757.439 223.66 753.359 223.66C749.399 223.66 744.179 223.66 737.699 223.66C732.659 223.66 728.279 223.66 724.559 223.66C720.839 223.66 717.599 223.72 714.839 223.84C712.199 223.84 709.859 223.9 707.819 224.02C705.899 224.02 704.159 224.02 702.599 224.02V265.24L709.079 265.42C709.319 265.42 710.459 265.36 712.499 265.24C714.659 265.12 717.659 264.94 721.499 264.7C725.459 264.46 728.819 264.34 731.579 264.34C734.339 264.22 736.559 264.16 738.239 264.16C745.439 263.56 752.039 262.9 758.039 262.18C764.159 261.46 769.679 260.74 774.599 260.02C778.079 259.54 782.459 258.82 787.739 257.86L788.819 268.48Z" fill="#1A73E8"/>
<path d="M213.539 495.26V464.84H208.139C194.579 464.48 187.379 464.3 186.539 464.3L161.699 464.84V495.44L213.539 495.26ZM281.939 567.8L222.179 567.62L168.359 568.16V543.86C168.359 540.26 168.299 536.66 168.179 533.06C168.059 529.46 167.879 526.1 167.639 522.98H168.719C172.199 522.98 175.319 523.16 178.079 523.52C180.959 523.76 182.399 524.48 182.399 525.68C182.399 525.92 182.159 526.82 181.679 528.38C181.199 529.94 180.959 531.44 180.959 532.88V557.54L221.819 557.36C232.019 557.36 242.219 557.24 252.419 557C262.739 556.76 272.579 556.46 281.939 556.1V567.8ZM302.279 480.68L276.179 480.5L276.719 533.42L263.219 533.6V526.04C263.459 517.04 263.639 507.92 263.759 498.68C263.999 489.32 264.119 479.78 264.119 470.06V462.86C264.119 453.38 263.999 444.8 263.759 437.12C263.639 429.44 263.459 422.6 263.219 416.6C263.219 415.52 263.219 414.38 263.219 413.18C263.219 411.86 263.099 410.54 262.859 409.22H265.559C268.679 409.22 271.439 409.46 273.839 409.94C276.359 410.42 277.619 411.2 277.619 412.28C277.619 412.4 277.499 412.82 277.259 413.54C277.139 414.14 276.959 414.86 276.719 415.7C276.599 416.54 276.479 417.38 276.359 418.22C276.239 418.94 276.179 419.54 276.179 420.02V468.98L302.279 468.8V480.68ZM227.219 430.28C226.859 431.72 226.499 433.16 226.139 434.6C225.899 435.92 225.779 437.18 225.779 438.38V468.8L226.319 506.6L189.239 506.24L148.919 506.6C148.919 503.96 148.919 501.08 148.919 497.96C148.919 494.72 148.979 491.18 149.099 487.34C149.219 483.5 149.279 479.78 149.279 476.18C149.279 472.46 149.339 468.86 149.459 465.38C149.459 459.74 149.459 454.94 149.459 450.98C149.459 446.9 149.399 443.66 149.279 441.26C149.159 438.86 149.039 436.64 148.919 434.6C148.919 432.44 148.799 430.52 148.559 428.84H152.339C155.459 428.84 157.919 429.02 159.719 429.38C161.639 429.62 162.599 430.34 162.599 431.54C162.599 431.9 162.419 432.8 162.059 434.24C161.819 435.68 161.699 436.7 161.699 437.3V453.5L180.239 453.68L213.359 453.32L213.539 439.64L212.639 427.94L218.039 427.76C220.919 427.76 223.139 427.94 224.699 428.3C226.379 428.54 227.219 429.2 227.219 430.28Z" fill="#1A73E8"/>
<path d="M486.059 501.74H456.359V572.12H443.759L443.939 466.1C443.939 456.38 443.939 448.4 443.939 442.16C443.939 435.8 443.879 431.18 443.759 428.3C443.639 425.42 443.519 422.54 443.399 419.66C443.399 416.78 443.279 413.9 443.039 411.02H446.999C450.119 411.02 452.579 411.2 454.379 411.56C456.299 411.8 457.259 412.52 457.259 413.72C457.259 414.08 457.079 414.98 456.719 416.42C456.479 417.86 456.359 418.88 456.359 419.48V490.76L486.059 490.4V501.74ZM403.799 438.74C403.799 446.3 402.839 453.92 400.919 461.6C398.039 473.96 393.059 485.78 385.979 497.06C378.899 508.34 370.439 518.3 360.599 526.94C356.879 530.06 353.159 532.94 349.439 535.58C345.719 538.1 341.939 540.44 338.099 542.6C332.459 545.6 329.159 547.1 328.199 547.1L319.379 536.84C320.099 536.84 322.979 535.64 328.019 533.24C335.339 529.76 342.059 525.68 348.179 521C357.059 514.16 364.739 506.12 371.219 496.88C373.979 492.92 376.439 488.9 378.599 484.82C380.759 480.62 382.679 476.3 384.359 471.86C385.559 468.74 386.579 465.74 387.419 462.86C388.259 459.86 388.919 456.86 389.399 453.86C389.519 452.54 389.639 451.28 389.759 450.08C389.879 448.88 390.059 447.68 390.299 446.48H359.519C354.479 446.48 350.099 446.48 346.379 446.48C342.779 446.48 339.779 446.54 337.379 446.66C334.979 446.78 332.819 446.9 330.899 447.02C329.099 447.02 327.479 447.08 326.039 447.2V434.6C329.879 434.84 334.499 435.08 339.899 435.32C345.299 435.56 351.959 435.68 359.879 435.68H363.839C374.399 435.68 382.679 435.62 388.679 435.5C394.799 435.38 399.779 435.2 403.619 434.96L403.799 438.74Z" fill="#1A73E8"/>
<path d="M587.759 452.42C587.759 445.94 585.599 440.9 581.279 437.3C576.959 433.7 570.479 431.9 561.839 431.9C553.679 431.9 547.079 433.58 542.039 436.94C536.999 440.18 534.479 445.22 534.479 452.06C534.479 458.42 536.939 463.34 541.859 466.82C546.899 470.18 553.559 471.86 561.839 471.86C569.639 471.86 575.879 470.06 580.559 466.46C585.359 462.74 587.759 458.06 587.759 452.42ZM614.039 502.46C613.199 502.7 612.359 502.88 611.519 503C610.799 503.12 610.139 503.24 609.539 503.36C604.979 504.08 599.999 504.44 594.599 504.44C591.479 504.44 588.359 504.56 585.239 504.8C582.239 504.92 579.179 505.1 576.059 505.34C573.899 505.58 571.199 505.94 567.959 506.42L567.599 533.78V553.22C567.719 555.26 567.779 557.06 567.779 558.62C567.779 560.3 567.839 561.8 567.959 563.12L554.639 564.2C554.759 562.4 554.819 560.48 554.819 558.44C554.819 556.4 554.819 554.24 554.819 551.96C554.939 549.56 554.999 547.46 554.999 545.66C554.999 543.74 554.999 542.12 554.999 540.8C554.999 535.64 554.999 531.2 554.999 527.48C554.999 523.76 554.939 520.7 554.819 518.3C554.819 515.9 554.819 513.8 554.819 512C554.819 510.08 554.759 508.46 554.639 507.14C549.599 507.38 543.899 507.62 537.539 507.86C531.179 508.1 524.459 508.22 517.379 508.22C516.899 508.22 516.299 508.28 515.579 508.4C514.859 508.52 513.959 508.82 512.879 509.3C511.799 509.78 511.079 510.02 510.719 510.02C509.879 510.02 509.279 509.36 508.919 508.04L506.219 497.06L522.599 497.42C524.039 497.42 526.139 497.36 528.899 497.24C531.779 497.12 535.379 496.94 539.699 496.7C544.019 496.46 547.859 496.28 551.219 496.16C554.699 496.04 557.819 495.98 560.579 495.98L613.499 492.56L614.039 502.46ZM644.999 414.08C644.999 414.32 644.759 415.34 644.279 417.14C643.799 418.82 643.559 420.44 643.559 422L643.919 569.96L630.419 570.68L630.959 528.74H593.879V518.3L610.979 518.66L631.319 517.94V453.14C631.319 446.3 631.259 440.54 631.139 435.86C631.139 431.18 631.079 427.46 630.959 424.7C630.839 421.94 630.719 419.42 630.599 417.14C630.599 414.86 630.479 412.82 630.239 411.02C635.519 411.02 639.299 411.26 641.579 411.74C643.859 412.1 644.999 412.88 644.999 414.08ZM600.359 452.06C600.359 461.06 596.759 468.26 589.559 473.66C582.479 479.06 573.239 481.76 561.839 481.76C549.119 481.76 539.279 479.18 532.319 474.02C525.359 468.86 521.879 461.6 521.879 452.24C521.879 442.52 525.959 434.84 534.119 429.2C541.799 424.04 550.979 421.46 561.659 421.46C572.099 421.46 580.919 423.98 588.119 429.02C596.279 434.66 600.359 442.34 600.359 452.06Z" fill="#1A73E8"/>
<path d="M806.999 463.22C806.999 453.02 802.199 445.28 792.599 440C788.399 437.6 783.719 435.86 778.559 434.78C773.519 433.58 767.879 432.98 761.639 432.98C747.239 432.98 735.959 435.5 727.799 440.54C719.639 445.46 715.559 452.6 715.559 461.96C715.559 473.24 721.259 481.22 732.659 485.9C739.739 488.9 748.679 490.4 759.479 490.4C766.079 490.4 772.019 489.92 777.299 488.96C782.699 487.88 787.559 486.32 791.879 484.28C801.959 479.48 806.999 472.46 806.999 463.22ZM841.199 548.36H763.079C755.519 548.36 747.359 548.42 738.599 548.54C729.959 548.66 720.659 548.84 710.699 549.08C707.099 549.2 702.959 549.32 698.279 549.44C693.599 549.56 688.379 549.74 682.619 549.98V537.56L710.339 537.92L728.879 537.74V515.78L728.159 507.5H732.119C735.359 507.5 737.939 507.68 739.859 508.04C741.899 508.28 742.919 508.94 742.919 510.02C742.919 510.74 742.619 511.88 742.019 513.44C741.539 514.88 741.299 515.9 741.299 516.5V537.74H780.359C780.479 536.78 780.539 535.46 780.539 533.78C780.659 531.98 780.719 530.72 780.719 530L779.459 507.5H782.519C785.999 507.5 788.819 507.68 790.979 508.04C793.259 508.4 794.399 509.06 794.399 510.02C794.399 510.26 794.219 511.1 793.859 512.54C793.499 513.86 793.319 515.18 793.319 516.5V537.92C795.719 537.92 798.359 537.86 801.239 537.74C804.239 537.62 807.539 537.44 811.139 537.2C827.099 536.12 837.119 535.58 841.199 535.58V548.36ZM819.599 462.86C819.599 475.46 813.539 485.18 801.419 492.02C790.979 497.78 778.319 500.66 763.439 500.66C755.759 500.66 748.799 500.18 742.559 499.22C736.439 498.26 730.919 496.76 725.999 494.72C710.519 488.48 702.779 477.68 702.779 462.32C702.779 448.4 709.319 438.14 722.399 431.54C732.599 426.26 745.439 423.62 760.919 423.62C777.479 423.62 790.859 426.44 801.059 432.08C813.419 438.92 819.599 449.18 819.599 462.86Z" fill="#1A73E8"/>
<path d="M303.359 758.04H276.539L276.359 787.2C276.359 794.4 276.419 801.78 276.539 809.34C276.659 816.78 276.839 823.62 277.079 829.86L263.759 831.12C263.759 828.48 263.759 824.1 263.759 817.98C263.759 811.98 263.819 804.24 263.939 794.76C264.059 785.04 264.119 776.64 264.119 769.56C264.239 762.48 264.299 756.54 264.299 751.74C264.299 740.7 264.239 729.54 264.119 718.26C263.999 706.86 263.879 695.34 263.759 683.7C263.759 680.46 263.639 677.76 263.399 675.6C263.279 673.44 263.099 671.58 262.859 670.02C267.059 670.02 270.659 670.32 273.659 670.92C276.659 671.52 278.159 672.36 278.159 673.44C277.319 675.6 276.899 677.46 276.899 679.02L276.359 704.76L276.539 746.34H303.359V758.04ZM242.339 778.56C242.219 778.92 241.979 779.28 241.619 779.64C241.259 780.12 240.839 780.6 240.359 781.08C239.879 781.44 239.219 781.86 238.379 782.34L232.799 787.38C231.839 786.78 230.939 786.24 230.099 785.76C229.379 785.16 228.719 784.62 228.119 784.14C220.559 778.26 213.599 770.64 207.239 761.28C205.919 759.48 204.659 757.38 203.459 754.98C202.259 752.58 200.999 749.94 199.679 747.06C198.359 744.18 197.279 741.54 196.439 739.14C195.599 736.62 194.939 734.34 194.459 732.3C192.299 742.38 186.299 753.54 176.459 765.78C171.419 771.78 166.499 776.88 161.699 781.08C157.019 785.16 152.219 788.4 147.299 790.8C146.819 790.56 146.159 790.14 145.319 789.54C144.599 788.94 143.639 788.1 142.439 787.02C139.439 784.5 137.939 783.06 137.939 782.7C138.659 781.98 139.079 781.5 139.199 781.26C140.039 781.26 142.859 779.52 147.659 776.04C154.499 771.12 160.559 765.6 165.839 759.48C173.399 750.72 179.159 740.7 183.119 729.42C185.279 723.3 186.899 716.28 187.979 708.36C189.179 700.32 189.779 692.7 189.779 685.5C190.739 685.5 191.939 685.62 193.379 685.86C194.939 685.98 196.679 686.28 198.599 686.76C202.439 687.6 204.359 688.62 204.359 689.82C204.119 690.42 203.639 691.62 202.919 693.42C202.199 695.1 201.899 696.84 202.019 698.64L200.399 710.52C200.879 712.44 201.239 714.12 201.479 715.56C201.839 716.88 202.139 718.14 202.379 719.34C204.179 726.54 207.239 734.88 211.559 744.36C216.119 753.48 222.359 761.64 230.279 768.84C231.599 770.04 233.099 771.36 234.779 772.8C236.579 774.12 238.619 775.5 240.899 776.94C241.139 777.18 241.379 777.48 241.619 777.84C241.859 778.08 242.099 778.32 242.339 778.56Z" fill="#1A73E8"/>
<path d="M446.099 803.04C446.099 796.32 441.479 791.82 432.239 789.54C425.759 787.74 415.679 786.84 401.999 786.84C388.199 786.84 377.639 788.16 370.319 790.8C363.119 793.32 359.519 797.28 359.519 802.68C359.519 808.56 364.919 812.82 375.719 815.46C383.039 817.26 392.159 818.16 403.079 818.16C416.519 818.16 426.419 817.32 432.779 815.64C441.659 813.36 446.099 809.16 446.099 803.04ZM459.419 803.22C459.419 812.1 454.319 818.58 444.119 822.66C435.479 826.38 422.999 828.24 406.679 828.24H403.259C395.339 828.24 388.319 827.88 382.199 827.16C376.199 826.44 370.919 825.24 366.359 823.56C353.999 819.24 347.819 812.16 347.819 802.32C347.819 792.36 353.639 785.4 365.279 781.44C374.039 778.32 386.399 776.76 402.359 776.76C420.119 776.76 433.679 778.56 443.039 782.16C453.959 786.6 459.419 793.62 459.419 803.22ZM422.339 758.94C419.939 759.18 417.719 759.42 415.679 759.66C413.639 759.78 411.779 759.96 410.099 760.2C405.059 760.8 399.779 761.4 394.259 762C388.859 762.48 383.099 763.02 376.979 763.62C373.139 763.98 368.819 764.34 364.019 764.7C359.219 765.06 353.879 765.36 347.999 765.6C346.199 765.72 344.099 765.84 341.699 765.96C339.419 765.96 336.899 766.08 334.139 766.32L334.679 740.22L334.319 718.08L359.519 718.44L394.439 717.72V694.86H364.739C359.459 694.86 355.019 694.86 351.419 694.86C347.819 694.86 344.999 694.92 342.959 695.04C340.919 695.16 338.999 695.28 337.199 695.4C335.519 695.4 333.959 695.52 332.519 695.76V684.78L370.679 685.14C376.679 685.14 382.799 685.14 389.039 685.14C395.399 685.02 401.219 684.84 406.499 684.6L406.139 706.02L406.499 727.8L346.199 728.52V754.8C349.799 754.32 354.119 753.96 359.159 753.72C364.319 753.36 370.019 753.18 376.259 753.18C389.219 753.18 400.859 752.46 411.179 751.02C412.859 750.78 414.599 750.48 416.399 750.12C418.319 749.76 420.299 749.28 422.339 748.68V758.94ZM482.639 737.16L455.819 736.98L456.179 771.72L443.399 772.44L444.119 710.52C444.119 704.76 444.059 699.72 443.939 695.4C443.939 691.08 443.879 687.54 443.759 684.78C443.639 681.78 443.519 679.08 443.399 676.68C443.279 674.28 443.159 672.06 443.039 670.02H445.919C447.239 670.02 448.619 670.08 450.059 670.2C451.499 670.2 452.759 670.32 453.839 670.56C455.039 670.68 455.999 670.98 456.719 671.46C457.559 671.82 457.979 672.36 457.979 673.08C457.979 673.68 457.619 674.88 456.899 676.68C456.299 678.48 455.999 679.86 455.999 680.82L455.819 726.54L482.639 726.36V737.16Z" fill="#1A73E8"/>
<path d="M572.459 768.12C572.459 761.64 570.899 756.36 567.779 752.28C563.939 747.36 558.659 744.9 551.939 744.9C545.219 744.9 539.879 747.54 535.919 752.82C532.679 757.38 531.059 762.36 531.059 767.76C531.059 773.88 532.919 779.28 536.639 783.96C540.359 788.4 545.459 790.62 551.939 790.62C559.019 790.62 564.359 788.1 567.959 783.06C570.959 778.98 572.459 774 572.459 768.12ZM585.059 768.66C585.059 778.14 581.579 786.18 574.619 792.78C568.139 798.66 560.879 801.6 552.839 801.6C543.359 801.6 535.319 798.42 528.719 792.06C522.239 785.82 518.999 777.54 518.999 767.22C518.999 756.9 522.599 748.74 529.799 742.74C535.799 737.58 543.119 735 551.759 735C560.879 735 568.559 737.94 574.799 743.82C581.639 750.18 585.059 758.46 585.059 768.66ZM652.559 674.7C652.559 675.42 652.319 676.68 651.839 678.48C651.479 680.28 651.299 681.66 651.299 682.62V764.7C651.299 776.34 651.359 787.86 651.479 799.26C651.599 810.54 651.779 820.74 652.019 829.86H638.519L639.059 780L638.699 758.4H616.739V779.64L617.459 819.78H603.959V801.06C604.079 796.98 604.139 792.36 604.139 787.2C604.139 782.04 604.199 776.22 604.319 769.74C604.439 763.26 604.499 756.72 604.499 750.12C604.499 743.52 604.559 736.62 604.679 729.42L604.139 674.7C608.339 674.7 611.699 675.06 614.219 675.78C616.859 676.5 618.179 677.4 618.179 678.48C618.179 679.2 617.939 680.4 617.459 682.08C616.979 683.64 616.739 684.9 616.739 685.86V747.24H639.059L638.519 682.44C638.519 680.4 638.399 678.3 638.159 676.14C638.039 673.98 637.859 672 637.619 670.2C640.859 670.2 644.099 670.56 647.339 671.28C650.819 671.88 652.559 673.02 652.559 674.7ZM593.159 724.38L549.959 723.84L509.099 724.2V713.76C515.099 714 521.639 714.18 528.719 714.3C535.919 714.42 542.819 714.48 549.419 714.48C556.499 714.48 563.939 714.42 571.739 714.3C579.539 714.18 586.679 714 593.159 713.76V724.38ZM572.459 699.18L553.019 698.82L532.319 699.18V688.38C535.199 688.62 538.439 688.8 542.039 688.92C545.639 689.04 549.059 689.1 552.299 689.1L572.459 688.56V699.18Z" fill="#1A73E8"/>
<path d="M806.999 722.22C806.999 712.02 802.199 704.28 792.599 699C788.399 696.6 783.719 694.86 778.559 693.78C773.519 692.58 767.879 691.98 761.639 691.98C747.239 691.98 735.959 694.5 727.799 699.54C719.639 704.46 715.559 711.6 715.559 720.96C715.559 732.24 721.259 740.22 732.659 744.9C739.739 747.9 748.679 749.4 759.479 749.4C766.079 749.4 772.019 748.92 777.299 747.96C782.699 746.88 787.559 745.32 791.879 743.28C801.959 738.48 806.999 731.46 806.999 722.22ZM841.199 807.36H763.079C755.519 807.36 747.359 807.42 738.599 807.54C729.959 807.66 720.659 807.84 710.699 808.08C707.099 808.2 702.959 808.32 698.279 808.44C693.599 808.56 688.379 808.74 682.619 808.98V796.56L710.339 796.92L728.879 796.74V774.78L728.159 766.5H732.119C735.359 766.5 737.939 766.68 739.859 767.04C741.899 767.28 742.919 767.94 742.919 769.02C742.919 769.74 742.619 770.88 742.019 772.44C741.539 773.88 741.299 774.9 741.299 775.5V796.74H780.359C780.479 795.78 780.539 794.46 780.539 792.78C780.659 790.98 780.719 789.72 780.719 789L779.459 766.5H782.519C785.999 766.5 788.819 766.68 790.979 767.04C793.259 767.4 794.399 768.06 794.399 769.02C794.399 769.26 794.219 770.1 793.859 771.54C793.499 772.86 793.319 774.18 793.319 775.5V796.92C795.719 796.92 798.359 796.86 801.239 796.74C804.239 796.62 807.539 796.44 811.139 796.2C827.099 795.12 837.119 794.58 841.199 794.58V807.36ZM819.599 721.86C819.599 734.46 813.539 744.18 801.419 751.02C790.979 756.78 778.319 759.66 763.439 759.66C755.759 759.66 748.799 759.18 742.559 758.22C736.439 757.26 730.919 755.76 725.999 753.72C710.519 747.48 702.779 736.68 702.779 721.32C702.779 707.4 709.319 697.14 722.399 690.54C732.599 685.26 745.439 682.62 760.919 682.62C777.479 682.62 790.859 685.44 801.059 691.08C813.419 697.92 819.599 708.18 819.599 721.86Z" fill="#1A73E8"/>
<path d="M378.397 1007.18H382.392L389.338 1024.14H389.594L396.54 1007.18H400.535V1029H397.403V1013.21H397.2L390.766 1028.97H388.166L381.732 1013.2H381.529V1029H378.397V1007.18ZM409.827 1029.36C408.79 1029.36 407.853 1029.17 407.015 1028.79C406.177 1028.4 405.513 1027.83 405.023 1027.09C404.54 1026.35 404.298 1025.45 404.298 1024.38C404.298 1023.45 404.476 1022.69 404.831 1022.1C405.186 1021.5 405.665 1021.03 406.269 1020.68C406.873 1020.33 407.547 1020.07 408.293 1019.89C409.039 1019.71 409.799 1019.58 410.573 1019.49C411.553 1019.37 412.349 1019.28 412.959 1019.21C413.57 1019.13 414.014 1019.01 414.291 1018.84C414.568 1018.67 414.706 1018.39 414.706 1018.01V1017.93C414.706 1017 414.444 1016.28 413.918 1015.77C413.4 1015.26 412.626 1015 411.596 1015C410.523 1015 409.678 1015.24 409.06 1015.72C408.449 1016.18 408.027 1016.71 407.792 1017.28L404.799 1016.6C405.154 1015.61 405.672 1014.8 406.354 1014.19C407.043 1013.57 407.835 1013.13 408.73 1012.85C409.625 1012.57 410.566 1012.42 411.553 1012.42C412.206 1012.42 412.899 1012.5 413.631 1012.66C414.369 1012.81 415.058 1013.08 415.697 1013.49C416.344 1013.89 416.873 1014.47 417.285 1015.23C417.697 1015.97 417.903 1016.94 417.903 1018.13V1029H414.792V1026.76H414.664C414.458 1027.17 414.149 1027.58 413.737 1027.98C413.325 1028.37 412.796 1028.71 412.15 1028.97C411.503 1029.23 410.729 1029.36 409.827 1029.36ZM410.52 1026.81C411.4 1026.81 412.153 1026.63 412.778 1026.28C413.41 1025.94 413.89 1025.48 414.216 1024.92C414.55 1024.35 414.717 1023.74 414.717 1023.1V1020.99C414.604 1021.1 414.383 1021.21 414.057 1021.31C413.737 1021.4 413.371 1021.48 412.959 1021.55C412.547 1021.62 412.146 1021.68 411.756 1021.73C411.365 1021.78 411.038 1021.83 410.775 1021.86C410.157 1021.94 409.593 1022.07 409.081 1022.26C408.577 1022.44 408.172 1022.71 407.867 1023.06C407.569 1023.4 407.42 1023.85 407.42 1024.42C407.42 1025.21 407.711 1025.8 408.293 1026.21C408.876 1026.61 409.618 1026.81 410.52 1026.81ZM429.038 1029.33C427.454 1029.33 426.091 1028.97 424.947 1028.25C423.811 1027.53 422.937 1026.53 422.326 1025.26C421.716 1023.99 421.41 1022.53 421.41 1020.89C421.41 1019.23 421.723 1017.76 422.348 1016.49C422.973 1015.21 423.853 1014.22 424.99 1013.5C426.126 1012.78 427.465 1012.42 429.006 1012.42C430.249 1012.42 431.357 1012.65 432.33 1013.12C433.303 1013.57 434.088 1014.21 434.684 1015.03C435.288 1015.86 435.647 1016.82 435.76 1017.92H432.66C432.49 1017.15 432.099 1016.49 431.488 1015.94C430.885 1015.38 430.075 1015.11 429.059 1015.11C428.172 1015.11 427.394 1015.34 426.726 1015.81C426.066 1016.27 425.551 1016.93 425.181 1017.79C424.812 1018.64 424.627 1019.65 424.627 1020.82C424.627 1022.01 424.809 1023.04 425.171 1023.91C425.533 1024.77 426.044 1025.45 426.705 1025.92C427.373 1026.4 428.157 1026.63 429.059 1026.63C429.663 1026.63 430.21 1026.52 430.7 1026.3C431.197 1026.08 431.613 1025.75 431.946 1025.34C432.287 1024.92 432.525 1024.41 432.66 1023.82H435.76C435.647 1024.88 435.302 1025.83 434.727 1026.66C434.152 1027.49 433.381 1028.14 432.415 1028.62C431.456 1029.09 430.331 1029.33 429.038 1029.33ZM439.167 1029V1012.64H442.352V1029H439.167ZM440.775 1010.11C440.221 1010.11 439.746 1009.93 439.348 1009.56C438.957 1009.18 438.762 1008.73 438.762 1008.22C438.762 1007.69 438.957 1007.24 439.348 1006.87C439.746 1006.5 440.221 1006.31 440.775 1006.31C441.329 1006.31 441.802 1006.5 442.192 1006.87C442.59 1007.24 442.789 1007.69 442.789 1008.22C442.789 1008.73 442.59 1009.18 442.192 1009.56C441.802 1009.93 441.329 1010.11 440.775 1010.11ZM449.823 1019.28V1029H446.637V1012.64H449.695V1015.3H449.897C450.274 1014.43 450.863 1013.74 451.666 1013.21C452.475 1012.69 453.495 1012.42 454.723 1012.42C455.838 1012.42 456.815 1012.66 457.653 1013.13C458.491 1013.59 459.141 1014.28 459.603 1015.19C460.064 1016.11 460.295 1017.24 460.295 1018.59V1029H457.11V1018.98C457.11 1017.79 456.801 1016.86 456.183 1016.19C455.565 1015.52 454.716 1015.18 453.637 1015.18C452.898 1015.18 452.241 1015.34 451.666 1015.66C451.098 1015.98 450.647 1016.45 450.313 1017.07C449.986 1017.68 449.823 1018.42 449.823 1019.28ZM472.206 1012.64V1015.19H463.267V1012.64H472.206ZM465.664 1008.72H468.85V1024.2C468.85 1024.81 468.942 1025.28 469.127 1025.59C469.311 1025.9 469.549 1026.11 469.841 1026.22C470.139 1026.33 470.462 1026.38 470.81 1026.38C471.066 1026.38 471.289 1026.36 471.481 1026.33C471.673 1026.29 471.822 1026.26 471.929 1026.24L472.504 1028.87C472.319 1028.94 472.056 1029.01 471.716 1029.09C471.375 1029.16 470.949 1029.21 470.437 1029.21C469.599 1029.23 468.818 1029.08 468.093 1028.77C467.369 1028.45 466.783 1027.97 466.336 1027.32C465.888 1026.66 465.664 1025.84 465.664 1024.86V1008.72ZM482.446 1029.33C480.912 1029.33 479.573 1028.98 478.43 1028.28C477.286 1027.57 476.399 1026.59 475.767 1025.32C475.134 1024.06 474.818 1022.58 474.818 1020.89C474.818 1019.2 475.134 1017.71 475.767 1016.44C476.399 1015.17 477.286 1014.18 478.43 1013.48C479.573 1012.77 480.912 1012.42 482.446 1012.42C483.98 1012.42 485.319 1012.77 486.463 1013.48C487.606 1014.18 488.494 1015.17 489.126 1016.44C489.758 1017.71 490.074 1019.2 490.074 1020.89C490.074 1022.58 489.758 1024.06 489.126 1025.32C488.494 1026.59 487.606 1027.57 486.463 1028.28C485.319 1028.98 483.98 1029.33 482.446 1029.33ZM482.457 1026.66C483.451 1026.66 484.275 1026.39 484.928 1025.87C485.582 1025.34 486.065 1024.64 486.377 1023.77C486.697 1022.9 486.857 1021.93 486.857 1020.88C486.857 1019.84 486.697 1018.88 486.377 1018.01C486.065 1017.12 485.582 1016.42 484.928 1015.89C484.275 1015.35 483.451 1015.09 482.457 1015.09C481.455 1015.09 480.624 1015.35 479.964 1015.89C479.311 1016.42 478.824 1017.12 478.504 1018.01C478.192 1018.88 478.036 1019.84 478.036 1020.88C478.036 1021.93 478.192 1022.9 478.504 1023.77C478.824 1024.64 479.311 1025.34 479.964 1025.87C480.624 1026.39 481.455 1026.66 482.457 1026.66ZM505.892 1016.63L503.005 1017.14C502.884 1016.77 502.692 1016.42 502.429 1016.09C502.174 1015.75 501.826 1015.48 501.385 1015.27C500.945 1015.05 500.395 1014.95 499.734 1014.95C498.832 1014.95 498.079 1015.15 497.475 1015.56C496.872 1015.95 496.57 1016.47 496.57 1017.1C496.57 1017.65 496.772 1018.09 497.177 1018.42C497.582 1018.75 498.235 1019.03 499.137 1019.24L501.737 1019.84C503.243 1020.19 504.365 1020.72 505.103 1021.45C505.842 1022.17 506.211 1023.11 506.211 1024.27C506.211 1025.25 505.927 1026.12 505.359 1026.89C504.798 1027.65 504.013 1028.25 503.005 1028.68C502.003 1029.11 500.842 1029.33 499.521 1029.33C497.689 1029.33 496.194 1028.94 495.036 1028.16C493.878 1027.37 493.168 1026.25 492.905 1024.8L495.984 1024.33C496.176 1025.14 496.57 1025.74 497.167 1026.16C497.763 1026.56 498.541 1026.76 499.5 1026.76C500.544 1026.76 501.378 1026.55 502.003 1026.11C502.628 1025.67 502.941 1025.14 502.941 1024.5C502.941 1023.99 502.749 1023.56 502.365 1023.22C501.989 1022.87 501.41 1022.6 500.629 1022.43L497.859 1021.82C496.332 1021.47 495.203 1020.92 494.471 1020.16C493.747 1019.4 493.385 1018.44 493.385 1017.27C493.385 1016.3 493.654 1015.46 494.194 1014.74C494.734 1014.01 495.48 1013.45 496.431 1013.04C497.383 1012.63 498.473 1012.42 499.702 1012.42C501.471 1012.42 502.863 1012.81 503.878 1013.57C504.894 1014.33 505.565 1015.35 505.892 1016.63ZM512.899 1019.28V1029H509.714V1007.18H512.856V1015.3H513.059C513.442 1014.42 514.028 1013.72 514.817 1013.2C515.605 1012.68 516.635 1012.42 517.906 1012.42C519.028 1012.42 520.008 1012.65 520.846 1013.12C521.692 1013.58 522.345 1014.27 522.807 1015.18C523.275 1016.09 523.51 1017.23 523.51 1018.59V1029H520.324V1018.98C520.324 1017.77 520.015 1016.84 519.398 1016.18C518.78 1015.52 517.92 1015.18 516.819 1015.18C516.067 1015.18 515.392 1015.34 514.795 1015.66C514.206 1015.98 513.741 1016.45 513.4 1017.07C513.066 1017.68 512.899 1018.42 512.899 1019.28ZM547.962 1016.63L545.075 1017.14C544.954 1016.77 544.762 1016.42 544.5 1016.09C544.244 1015.75 543.896 1015.48 543.456 1015.27C543.015 1015.05 542.465 1014.95 541.804 1014.95C540.902 1014.95 540.15 1015.15 539.546 1015.56C538.942 1015.95 538.64 1016.47 538.64 1017.1C538.64 1017.65 538.843 1018.09 539.248 1018.42C539.652 1018.75 540.306 1019.03 541.208 1019.24L543.807 1019.84C545.313 1020.19 546.435 1020.72 547.174 1021.45C547.912 1022.17 548.282 1023.11 548.282 1024.27C548.282 1025.25 547.998 1026.12 547.429 1026.89C546.868 1027.65 546.083 1028.25 545.075 1028.68C544.074 1029.11 542.912 1029.33 541.591 1029.33C539.759 1029.33 538.264 1028.94 537.106 1028.16C535.949 1027.37 535.238 1026.25 534.975 1024.8L538.054 1024.33C538.246 1025.14 538.64 1025.74 539.237 1026.16C539.833 1026.56 540.611 1026.76 541.57 1026.76C542.614 1026.76 543.449 1026.55 544.074 1026.11C544.699 1025.67 545.011 1025.14 545.011 1024.5C545.011 1023.99 544.819 1023.56 544.436 1023.22C544.059 1022.87 543.48 1022.6 542.699 1022.43L539.929 1021.82C538.402 1021.47 537.273 1020.92 536.542 1020.16C535.817 1019.4 535.455 1018.44 535.455 1017.27C535.455 1016.3 535.725 1015.46 536.265 1014.74C536.804 1014.01 537.55 1013.45 538.502 1013.04C539.453 1012.63 540.544 1012.42 541.772 1012.42C543.541 1012.42 544.933 1012.81 545.949 1013.57C546.964 1014.33 547.635 1015.35 547.962 1016.63ZM553.797 1035.14C553.322 1035.14 552.888 1035.1 552.498 1035.02C552.107 1034.95 551.816 1034.87 551.624 1034.78L552.391 1032.17C552.974 1032.33 553.492 1032.4 553.947 1032.38C554.401 1032.36 554.802 1032.19 555.15 1031.87C555.506 1031.55 555.818 1031.02 556.088 1030.3L556.482 1029.21L550.495 1012.64H553.904L558.048 1025.34H558.219L562.363 1012.64H565.782L559.039 1031.18C558.726 1032.04 558.329 1032.76 557.846 1033.35C557.363 1033.94 556.787 1034.39 556.12 1034.69C555.452 1034.99 554.678 1035.14 553.797 1035.14ZM581.038 1016.63L578.151 1017.14C578.03 1016.77 577.839 1016.42 577.576 1016.09C577.32 1015.75 576.972 1015.48 576.532 1015.27C576.091 1015.05 575.541 1014.95 574.881 1014.95C573.979 1014.95 573.226 1015.15 572.622 1015.56C572.018 1015.95 571.716 1016.47 571.716 1017.1C571.716 1017.65 571.919 1018.09 572.324 1018.42C572.729 1018.75 573.382 1019.03 574.284 1019.24L576.883 1019.84C578.389 1020.19 579.511 1020.72 580.25 1021.45C580.988 1022.17 581.358 1023.11 581.358 1024.27C581.358 1025.25 581.074 1026.12 580.506 1026.89C579.944 1027.65 579.16 1028.25 578.151 1028.68C577.15 1029.11 575.988 1029.33 574.667 1029.33C572.835 1029.33 571.34 1028.94 570.182 1028.16C569.025 1027.37 568.314 1026.25 568.052 1024.8L571.131 1024.33C571.322 1025.14 571.716 1025.74 572.313 1026.16C572.91 1026.56 573.687 1026.76 574.646 1026.76C575.69 1026.76 576.525 1026.55 577.15 1026.11C577.775 1025.67 578.087 1025.14 578.087 1024.5C578.087 1023.99 577.895 1023.56 577.512 1023.22C577.135 1022.87 576.557 1022.6 575.775 1022.43L573.006 1021.82C571.479 1021.47 570.349 1020.92 569.618 1020.16C568.893 1019.4 568.531 1018.44 568.531 1017.27C568.531 1016.3 568.801 1015.46 569.341 1014.74C569.881 1014.01 570.626 1013.45 571.578 1013.04C572.53 1012.63 573.62 1012.42 574.849 1012.42C576.617 1012.42 578.009 1012.81 579.025 1013.57C580.04 1014.33 580.711 1015.35 581.038 1016.63ZM592.499 1012.64V1015.19H583.56V1012.64H592.499ZM585.957 1008.72H589.143V1024.2C589.143 1024.81 589.235 1025.28 589.42 1025.59C589.604 1025.9 589.842 1026.11 590.134 1026.22C590.432 1026.33 590.755 1026.38 591.103 1026.38C591.359 1026.38 591.582 1026.36 591.774 1026.33C591.966 1026.29 592.115 1026.26 592.222 1026.24L592.797 1028.87C592.612 1028.94 592.349 1029.01 592.009 1029.09C591.668 1029.16 591.241 1029.21 590.73 1029.21C589.892 1029.23 589.111 1029.08 588.386 1028.77C587.662 1028.45 587.076 1027.97 586.629 1027.32C586.181 1026.66 585.957 1025.84 585.957 1024.86V1008.72ZM602.899 1029.33C601.287 1029.33 599.898 1028.99 598.733 1028.3C597.576 1027.6 596.681 1026.62 596.049 1025.37C595.424 1024.1 595.111 1022.62 595.111 1020.92C595.111 1019.25 595.424 1017.77 596.049 1016.49C596.681 1015.21 597.562 1014.22 598.691 1013.5C599.827 1012.78 601.155 1012.42 602.675 1012.42C603.599 1012.42 604.493 1012.58 605.36 1012.88C606.226 1013.19 607.004 1013.67 607.693 1014.32C608.382 1014.97 608.925 1015.82 609.323 1016.87C609.721 1017.9 609.92 1019.16 609.92 1020.65V1021.78H596.912V1019.39H606.798C606.798 1018.55 606.628 1017.81 606.287 1017.16C605.946 1016.51 605.466 1016 604.849 1015.62C604.238 1015.24 603.52 1015.05 602.697 1015.05C601.802 1015.05 601.02 1015.27 600.353 1015.72C599.692 1016.15 599.181 1016.72 598.819 1017.42C598.464 1018.12 598.286 1018.87 598.286 1019.69V1021.55C598.286 1022.65 598.478 1023.58 598.861 1024.34C599.252 1025.11 599.795 1025.7 600.491 1026.1C601.187 1026.5 602.001 1026.7 602.931 1026.7C603.535 1026.7 604.085 1026.61 604.582 1026.44C605.079 1026.27 605.509 1026 605.871 1025.65C606.233 1025.31 606.51 1024.88 606.702 1024.37L609.717 1024.91C609.476 1025.8 609.042 1026.57 608.417 1027.24C607.8 1027.9 607.022 1028.42 606.084 1028.79C605.154 1029.15 604.092 1029.33 602.899 1029.33ZM613.454 1029V1012.64H616.511V1015.3H616.714C617.055 1014.4 617.612 1013.69 618.386 1013.19C619.161 1012.68 620.087 1012.42 621.167 1012.42C622.261 1012.42 623.177 1012.68 623.915 1013.19C624.661 1013.7 625.212 1014.4 625.567 1015.3H625.737C626.128 1014.43 626.749 1013.73 627.602 1013.21C628.454 1012.69 629.469 1012.42 630.648 1012.42C632.133 1012.42 633.344 1012.89 634.281 1013.82C635.226 1014.75 635.698 1016.15 635.698 1018.03V1029H632.513V1018.33C632.513 1017.22 632.211 1016.41 631.607 1015.92C631.004 1015.42 630.283 1015.17 629.445 1015.17C628.408 1015.17 627.602 1015.49 627.026 1016.13C626.451 1016.76 626.163 1017.58 626.163 1018.57V1029H622.989V1018.12C622.989 1017.24 622.712 1016.52 622.158 1015.98C621.604 1015.44 620.883 1015.17 619.995 1015.17C619.391 1015.17 618.834 1015.33 618.322 1015.65C617.818 1015.96 617.41 1016.4 617.097 1016.96C616.792 1017.52 616.639 1018.17 616.639 1018.91V1029H613.454ZM655.695 1012.64V1015.19H646.447V1012.64H655.695ZM648.983 1029V1010.74C648.983 1009.72 649.207 1008.87 649.654 1008.19C650.102 1007.51 650.695 1007 651.433 1006.67C652.172 1006.33 652.974 1006.16 653.841 1006.16C654.48 1006.16 655.027 1006.21 655.482 1006.32C655.936 1006.42 656.273 1006.51 656.494 1006.6L655.748 1009.17C655.599 1009.13 655.407 1009.08 655.173 1009.02C654.938 1008.96 654.654 1008.93 654.32 1008.93C653.546 1008.93 652.992 1009.12 652.658 1009.5C652.332 1009.89 652.168 1010.44 652.168 1011.17V1029H648.983ZM665.229 1029.33C663.695 1029.33 662.357 1028.98 661.213 1028.28C660.07 1027.57 659.182 1026.59 658.55 1025.32C657.918 1024.06 657.602 1022.58 657.602 1020.89C657.602 1019.2 657.918 1017.71 658.55 1016.44C659.182 1015.17 660.07 1014.18 661.213 1013.48C662.357 1012.77 663.695 1012.42 665.229 1012.42C666.763 1012.42 668.102 1012.77 669.246 1013.48C670.389 1014.18 671.277 1015.17 671.909 1016.44C672.541 1017.71 672.857 1019.2 672.857 1020.89C672.857 1022.58 672.541 1024.06 671.909 1025.32C671.277 1026.59 670.389 1027.57 669.246 1028.28C668.102 1028.98 666.763 1029.33 665.229 1029.33ZM665.24 1026.66C666.234 1026.66 667.058 1026.39 667.712 1025.87C668.365 1025.34 668.848 1024.64 669.161 1023.77C669.48 1022.9 669.64 1021.93 669.64 1020.88C669.64 1019.84 669.48 1018.88 669.161 1018.01C668.848 1017.12 668.365 1016.42 667.712 1015.89C667.058 1015.35 666.234 1015.09 665.24 1015.09C664.239 1015.09 663.408 1015.35 662.747 1015.89C662.094 1016.42 661.607 1017.12 661.288 1018.01C660.975 1018.88 660.819 1019.84 660.819 1020.88C660.819 1021.93 660.975 1022.9 661.288 1023.77C661.607 1024.64 662.094 1025.34 662.747 1025.87C663.408 1026.39 664.239 1026.66 665.24 1026.66ZM679.598 1019.28V1029H676.413V1012.64H679.47V1015.3H679.673C680.049 1014.43 680.639 1013.74 681.441 1013.21C682.251 1012.69 683.27 1012.42 684.499 1012.42C685.614 1012.42 686.59 1012.66 687.428 1013.13C688.267 1013.59 688.916 1014.28 689.378 1015.19C689.84 1016.11 690.07 1017.24 690.07 1018.59V1029H686.885V1018.98C686.885 1017.79 686.576 1016.86 685.958 1016.19C685.34 1015.52 684.492 1015.18 683.412 1015.18C682.673 1015.18 682.017 1015.34 681.441 1015.66C680.873 1015.98 680.422 1016.45 680.088 1017.07C679.762 1017.68 679.598 1018.42 679.598 1019.28ZM701.981 1012.64V1015.19H693.043V1012.64H701.981ZM695.44 1008.72H698.625V1024.2C698.625 1024.81 698.718 1025.28 698.902 1025.59C699.087 1025.9 699.325 1026.11 699.616 1026.22C699.914 1026.33 700.237 1026.38 700.585 1026.38C700.841 1026.38 701.065 1026.36 701.257 1026.33C701.448 1026.29 701.597 1026.26 701.704 1026.24L702.279 1028.87C702.095 1028.94 701.832 1029.01 701.491 1029.09C701.15 1029.16 700.724 1029.21 700.213 1029.21C699.374 1029.23 698.593 1029.08 697.869 1028.77C697.144 1028.45 696.558 1027.97 696.111 1027.32C695.664 1026.66 695.44 1025.84 695.44 1024.86V1008.72Z" fill="#FF6D7F"/>
<path d="M1064.05 177.65H1116.38C1116.38 214.75 1091.53 252.9 1055.48 263.05C1062.3 268.825 1069.48 276.525 1074.73 283.35C1122.5 255.175 1143.85 222.1 1143.85 155.6H1064.05V177.65ZM1172.9 141.425V305.4H1198.1V235.4H1219.98V213.175H1198.1V155.775C1198.1 150 1201.08 146.325 1201.08 144.225C1201.08 142.125 1198.28 141.425 1187.08 141.425H1172.9Z" fill="#1A73E8"/>
<path d="M1236.43 154.025V271.45H1256.73C1277.55 271.275 1301.88 269.875 1337.93 264.275L1335.65 242.575C1312.55 247.475 1285.6 249.05 1271.25 249.05H1261.63V165.75C1261.63 161.375 1263.73 158.575 1263.73 156.65C1263.73 154.725 1261.28 154.025 1250.95 154.025H1236.43ZM1347.9 141.425V305.4H1373.1V235.4H1394.98V213.175H1373.1V155.775C1373.1 150 1376.08 146.325 1376.08 144.225C1376.08 142.125 1373.28 141.425 1362.08 141.425H1347.9Z" fill="#1A73E8"/>
<path d="M1412.83 271.45H1433.83C1457.28 271.45 1488.25 268.475 1512.75 263.925C1512.23 257.1 1511.18 248.875 1510.48 242.4C1488.78 246.6 1463.05 248.875 1444.85 248.875H1438.2V176.775H1499.28V155.6H1412.83V271.45ZM1522.9 141.425V305.4H1548.1V235.4H1569.98V213.175H1548.1V155.775C1548.1 150 1551.08 146.325 1551.08 144.225C1551.08 142.125 1548.28 141.425 1537.08 141.425H1522.9Z" fill="#1A73E8"/>
<path d="M1589.4 175.725H1644V201.1H1589.75V272.85H1612.15C1634.9 272.85 1663.25 271.275 1690.9 266.2C1689.85 259.375 1688.8 252.025 1687.58 245.725C1664.13 250.625 1636.83 251.5 1620.9 251.5H1615.13V222.45H1669.9V154.2H1589.4V175.725ZM1697.9 141.425V305.4H1723.1V235.4H1744.98V213.175H1723.1V155.775C1723.1 150 1726.08 146.325 1726.08 144.225C1726.08 142.125 1723.28 141.425 1712.08 141.425H1697.9Z" fill="#1A73E8"/>
<path d="M1122.9 415.65V440.325H1088.6V427.725C1088.6 423.35 1090.53 420.375 1090.53 418.45C1090.53 416.525 1088.43 415.65 1079.33 415.65H1063.4V502.975H1147.93V426.15C1147.93 422.475 1149.68 419.85 1149.68 418.275C1149.68 416.35 1147.4 415.65 1137.6 415.65H1122.9ZM1122.9 461.325V481.975H1088.6V461.325H1122.9ZM1171.9 407.425V528.35H1197.1V486H1218.98V463.6H1197.1V421.775C1197.1 416.175 1199.73 412.675 1199.73 410.575C1199.73 408.125 1196.58 407.425 1183.63 407.425H1171.9ZM1074.6 514.35V567.2H1202V545.85H1100.15V526.425C1100.15 522.4 1102.08 519.425 1102.08 517.5C1102.08 515.225 1099.8 514.35 1089.65 514.35H1074.6Z" fill="#1A73E8"/>
<path d="M1238.05 443.65H1290.38C1290.38 480.75 1265.53 518.9 1229.48 529.05C1236.3 534.825 1243.48 542.525 1248.73 549.35C1296.5 521.175 1317.85 488.1 1317.85 421.6H1238.05V443.65ZM1346.9 407.425V571.4H1372.1V501.4H1393.98V479.175H1372.1V421.775C1372.1 416 1375.08 412.325 1375.08 410.225C1375.08 408.125 1372.28 407.425 1361.08 407.425H1346.9Z" fill="#1A73E8"/>
<path d="M1463.28 431.925C1474.83 431.925 1481.83 439.275 1481.83 447.85C1481.83 455.9 1474.83 462.9 1463.28 462.9C1451.38 462.9 1444.03 455.9 1444.03 447.85C1444.03 439.275 1451.38 431.925 1463.28 431.925ZM1463.28 411.625C1433.35 411.625 1418.83 428.775 1418.83 447.85C1418.83 466.4 1433.35 483.2 1463.28 483.2C1492.33 483.2 1506.85 466.4 1506.85 447.85C1506.85 428.775 1492.33 411.625 1463.28 411.625ZM1408.5 508.4C1409.38 512.775 1410.25 514 1411.83 514C1413.75 514 1416.73 512.075 1422.33 511.55C1432.65 510.85 1443.5 510.325 1452.25 510.15V566.15H1477.1V509.275C1490.23 508.75 1507.9 508.05 1522.08 507.175C1521.73 501.4 1520.68 494.05 1519.98 487.925C1483.93 489.85 1435.45 490.9 1405.7 491.25L1408.5 508.4ZM1529.43 407.425V515.05H1498.1V535.175H1529.43V571.4H1554.8V422.125C1554.8 416.175 1557.78 412.5 1557.78 410.4C1557.78 408.125 1554.63 407.425 1541.85 407.425H1529.43Z" fill="#1A73E8"/>
<path d="M1661.2 434.9C1690.6 434.9 1703.2 442.25 1703.2 455.9C1703.2 469.725 1690.6 478.3 1661.2 478.3C1630.75 478.3 1617.8 469.725 1617.8 455.9C1617.8 442.25 1630.75 434.9 1661.2 434.9ZM1660.85 414.075C1613.6 414.075 1592.43 434.9 1592.43 455.9C1592.43 478.3 1613.6 498.95 1661.03 498.95C1707.58 498.95 1728.58 478.3 1728.58 455.9C1728.58 432.8 1707.58 414.075 1660.85 414.075ZM1620.78 499.65V530.1H1578.6V551.625H1742.58V530.1H1699V509.275C1699 506.3 1701.1 504.025 1701.1 502.625C1701.1 501.05 1698.83 500.35 1689.9 500.35H1674.68V530.1H1645.1V509.975C1645.1 506.475 1646.68 504.2 1646.68 502.45C1646.68 500.525 1644.4 499.65 1634.25 499.65H1620.78Z" fill="#1A73E8"/>
<path d="M1093.85 674.4C1093.85 730.575 1077.4 768.55 1049.05 789.2C1055.18 793.4 1063.23 800.05 1068.3 804.775C1087.2 790.6 1100.15 762.775 1104 748.25C1106.98 763.125 1125.35 793.4 1140.93 804.6C1146 799 1154.58 791.475 1160.7 787.1C1136.9 774.15 1116.6 736.175 1116.6 712.9C1116.6 700.65 1117.13 692.425 1118.35 687C1119.05 682.8 1121.85 679.825 1121.85 677.725C1121.85 675.45 1118.88 674.4 1108.38 674.4H1093.85ZM1171.9 664.425V828.4H1197.1V758.4H1218.98V736.175H1197.1V678.775C1197.1 673 1200.08 669.325 1200.08 667.225C1200.08 665.125 1197.28 664.425 1186.08 664.425H1171.9Z" fill="#1A73E8"/>
<path d="M1239.1 690.675H1297.38V702.4H1239.1V757.525H1257.3C1280.58 757.525 1307.88 756.825 1334.65 753.675C1333.95 746.85 1333.08 739.325 1332.38 734.075C1309.63 736.525 1286.7 737.225 1271.3 737.225H1264.48V722.175H1322.4V670.9H1239.1V690.675ZM1346.9 664.425V766.625H1372.1V730.4H1393.98V708H1372.1V678.775C1372.1 673.175 1374.73 669.675 1374.73 667.575C1374.73 665.125 1371.58 664.425 1358.63 664.425H1346.9ZM1310.85 782.2C1337.45 782.2 1349 788.85 1349 796.9C1349 805.825 1337.45 812.65 1310.68 812.65C1283.55 812.65 1271.65 805.825 1271.65 796.9C1271.65 788.85 1283.55 782.2 1310.85 782.2ZM1310.68 763.825C1266.23 763.825 1245.75 779.575 1245.75 796.55C1245.75 814.4 1266.23 830.5 1310.68 830.5C1354.78 830.5 1375.08 814.4 1375.08 796.55C1375.08 779.575 1354.78 763.825 1310.68 763.825Z" fill="#1A73E8"/>
<path d="M1429.15 690.5H1474.65V669.85H1429.15V690.5ZM1408.15 720.075H1491.45V699.425H1408.15V720.075ZM1448.23 726.9C1423.55 726.9 1411.48 745.975 1411.48 765.4C1411.48 784.65 1423.55 804.075 1448.23 804.075C1473.43 804.075 1486.2 784.65 1486.2 765.4C1486.2 745.975 1473.43 726.9 1448.23 726.9ZM1448.93 746.675C1457.85 746.675 1462.4 756.475 1462.4 765.4C1462.4 774.85 1457.85 784.125 1448.93 784.125C1439.83 784.125 1435.28 774.85 1435.28 765.4C1435.28 756.475 1439.83 746.675 1448.93 746.675ZM1536.25 664.425V735.125H1523.65V678.95C1523.65 674.225 1526.45 671.25 1526.45 669.5C1526.45 667.925 1524.18 667.4 1516.13 667.4H1499.33V822.1H1523.65V756.475H1536.25V828.4H1561.1V676.5C1561.1 671.95 1563.2 668.975 1563.2 667.05C1563.2 665.125 1560.93 664.425 1551.83 664.425H1536.25Z" fill="#1A73E8"/>
<path d="M1661.2 691.9C1690.6 691.9 1703.2 699.25 1703.2 712.9C1703.2 726.725 1690.6 735.3 1661.2 735.3C1630.75 735.3 1617.8 726.725 1617.8 712.9C1617.8 699.25 1630.75 691.9 1661.2 691.9ZM1660.85 671.075C1613.6 671.075 1592.43 691.9 1592.43 712.9C1592.43 735.3 1613.6 755.95 1661.03 755.95C1707.58 755.95 1728.58 735.3 1728.58 712.9C1728.58 689.8 1707.58 671.075 1660.85 671.075ZM1620.78 756.65V787.1H1578.6V808.625H1742.58V787.1H1699V766.275C1699 763.3 1701.1 761.025 1701.1 759.625C1701.1 758.05 1698.83 757.35 1689.9 757.35H1674.68V787.1H1645.1V766.975C1645.1 763.475 1646.68 761.2 1646.68 759.45C1646.68 757.525 1644.4 756.65 1634.25 756.65H1620.78Z" fill="#1A73E8"/>
<path d="M139.074 1030H132.682L139.884 1008.18H147.98L155.182 1030H148.79L144.017 1014.19H143.847L139.074 1030ZM137.881 1021.39H149.898V1025.82H137.881V1021.39ZM157.368 1036.14V1013.64H163.206V1016.49H163.334C163.547 1015.94 163.86 1015.43 164.272 1014.97C164.684 1014.5 165.195 1014.13 165.806 1013.85C166.417 1013.57 167.127 1013.42 167.937 1013.42C169.016 1013.42 170.042 1013.71 171.015 1014.29C171.996 1014.86 172.791 1015.77 173.402 1017C174.02 1018.24 174.329 1019.84 174.329 1021.82C174.329 1023.71 174.034 1025.27 173.444 1026.52C172.862 1027.76 172.081 1028.69 171.101 1029.3C170.128 1029.91 169.059 1030.21 167.894 1030.21C167.127 1030.21 166.442 1030.09 165.838 1029.84C165.241 1029.58 164.73 1029.24 164.304 1028.81C163.885 1028.37 163.562 1027.87 163.334 1027.32H163.249V1036.14H157.368ZM163.121 1021.82C163.121 1022.61 163.224 1023.3 163.43 1023.88C163.643 1024.46 163.942 1024.91 164.325 1025.23C164.716 1025.54 165.181 1025.7 165.721 1025.7C166.26 1025.7 166.719 1025.54 167.095 1025.24C167.479 1024.93 167.77 1024.48 167.969 1023.91C168.175 1023.32 168.278 1022.63 168.278 1021.82C168.278 1021.01 168.175 1020.32 167.969 1019.74C167.77 1019.16 167.479 1018.71 167.095 1018.41C166.719 1018.1 166.26 1017.94 165.721 1017.94C165.181 1017.94 164.716 1018.1 164.325 1018.41C163.942 1018.71 163.643 1019.16 163.43 1019.74C163.224 1020.32 163.121 1021.01 163.121 1021.82ZM176.792 1036.14V1013.64H182.63V1016.49H182.758C182.971 1015.94 183.284 1015.43 183.696 1014.97C184.108 1014.5 184.619 1014.13 185.23 1013.85C185.841 1013.57 186.551 1013.42 187.36 1013.42C188.44 1013.42 189.466 1013.71 190.439 1014.29C191.419 1014.86 192.215 1015.77 192.826 1017C193.444 1018.24 193.752 1019.84 193.752 1021.82C193.752 1023.71 193.458 1025.27 192.868 1026.52C192.286 1027.76 191.505 1028.69 190.525 1029.3C189.551 1029.91 188.483 1030.21 187.318 1030.21C186.551 1030.21 185.865 1030.09 185.262 1029.84C184.665 1029.58 184.154 1029.24 183.728 1028.81C183.309 1028.37 182.985 1027.87 182.758 1027.32H182.673V1036.14H176.792ZM182.545 1021.82C182.545 1022.61 182.648 1023.3 182.854 1023.88C183.067 1024.46 183.365 1024.91 183.749 1025.23C184.14 1025.54 184.605 1025.7 185.145 1025.7C185.684 1025.7 186.142 1025.54 186.519 1025.24C186.902 1024.93 187.194 1024.48 187.392 1023.91C187.598 1023.32 187.701 1022.63 187.701 1021.82C187.701 1021.01 187.598 1020.32 187.392 1019.74C187.194 1019.16 186.902 1018.71 186.519 1018.41C186.142 1018.1 185.684 1017.94 185.145 1017.94C184.605 1017.94 184.14 1018.1 183.749 1018.41C183.365 1018.71 183.067 1019.16 182.854 1019.74C182.648 1020.32 182.545 1021.01 182.545 1021.82ZM202.097 1008.18V1030H196.216V1008.18H202.097ZM212.934 1030.3C211.187 1030.3 209.681 1029.96 208.417 1029.3C207.16 1028.62 206.19 1027.66 205.509 1026.4C204.834 1025.13 204.496 1023.62 204.496 1021.86C204.496 1020.17 204.837 1018.69 205.519 1017.43C206.201 1016.16 207.163 1015.18 208.406 1014.48C209.649 1013.77 211.116 1013.42 212.806 1013.42C214.042 1013.42 215.161 1013.62 216.162 1014C217.163 1014.38 218.019 1014.94 218.729 1015.67C219.44 1016.4 219.987 1017.28 220.37 1018.31C220.754 1019.35 220.945 1020.52 220.945 1021.82V1023.18H206.329V1019.94H215.533C215.526 1019.47 215.406 1019.06 215.171 1018.71C214.944 1018.35 214.635 1018.06 214.244 1017.87C213.861 1017.66 213.424 1017.56 212.934 1017.56C212.458 1017.56 212.021 1017.66 211.624 1017.87C211.226 1018.06 210.906 1018.34 210.665 1018.7C210.43 1019.05 210.306 1019.47 210.292 1019.94V1023.44C210.292 1023.96 210.402 1024.43 210.622 1024.84C210.842 1025.26 211.158 1025.58 211.57 1025.81C211.982 1026.05 212.479 1026.16 213.062 1026.16C213.467 1026.16 213.836 1026.11 214.17 1025.99C214.511 1025.88 214.802 1025.72 215.043 1025.5C215.285 1025.28 215.462 1025.02 215.576 1024.72H220.945C220.761 1025.85 220.324 1026.84 219.635 1027.68C218.946 1028.51 218.033 1029.15 216.897 1029.62C215.768 1030.07 214.447 1030.3 212.934 1030.3ZM243.405 1015.38C243.313 1015.01 243.167 1014.68 242.969 1014.39C242.77 1014.1 242.521 1013.86 242.223 1013.66C241.932 1013.45 241.591 1013.3 241.2 1013.2C240.817 1013.09 240.394 1013.04 239.932 1013.04C238.938 1013.04 238.089 1013.28 237.386 1013.75C236.69 1014.23 236.157 1014.91 235.788 1015.81C235.426 1016.7 235.245 1017.78 235.245 1019.05C235.245 1020.33 235.419 1021.42 235.767 1022.33C236.115 1023.24 236.633 1023.93 237.322 1024.42C238.011 1024.9 238.867 1025.14 239.89 1025.14C240.792 1025.14 241.541 1025.01 242.138 1024.75C242.741 1024.49 243.192 1024.11 243.491 1023.63C243.789 1023.15 243.938 1022.58 243.938 1021.92L244.961 1022.03H239.975V1017.81H249.648V1020.84C249.648 1022.83 249.226 1024.53 248.381 1025.94C247.542 1027.35 246.385 1028.43 244.907 1029.18C243.437 1029.93 241.751 1030.3 239.847 1030.3C237.724 1030.3 235.859 1029.85 234.254 1028.95C232.649 1028.04 231.395 1026.76 230.493 1025.09C229.599 1023.42 229.151 1021.43 229.151 1019.13C229.151 1017.33 229.425 1015.73 229.971 1014.34C230.525 1012.95 231.292 1011.77 232.273 1010.81C233.253 1009.85 234.385 1009.12 235.671 1008.63C236.956 1008.13 238.334 1007.88 239.805 1007.88C241.097 1007.88 242.297 1008.07 243.405 1008.44C244.52 1008.8 245.504 1009.32 246.356 1009.99C247.216 1010.66 247.908 1011.45 248.434 1012.37C248.959 1013.28 249.279 1014.29 249.393 1015.38H243.405ZM260.379 1030.3C258.603 1030.3 257.083 1029.95 255.819 1029.24C254.555 1028.53 253.586 1027.55 252.911 1026.28C252.236 1025.01 251.899 1023.54 251.899 1021.86C251.899 1020.18 252.236 1018.71 252.911 1017.45C253.586 1016.18 254.555 1015.19 255.819 1014.49C257.083 1013.78 258.603 1013.42 260.379 1013.42C262.154 1013.42 263.674 1013.78 264.939 1014.49C266.203 1015.19 267.172 1016.18 267.847 1017.45C268.522 1018.71 268.859 1020.18 268.859 1021.86C268.859 1023.54 268.522 1025.01 267.847 1026.28C267.172 1027.55 266.203 1028.53 264.939 1029.24C263.674 1029.95 262.154 1030.3 260.379 1030.3ZM260.422 1025.95C260.919 1025.95 261.348 1025.78 261.711 1025.45C262.073 1025.12 262.353 1024.64 262.552 1024.02C262.751 1023.41 262.85 1022.67 262.85 1021.82C262.85 1020.96 262.751 1020.22 262.552 1019.61C262.353 1019 262.073 1018.52 261.711 1018.19C261.348 1017.85 260.919 1017.68 260.422 1017.68C259.896 1017.68 259.445 1017.85 259.069 1018.19C258.692 1018.52 258.404 1019 258.206 1019.61C258.007 1020.22 257.907 1020.96 257.907 1021.82C257.907 1022.67 258.007 1023.41 258.206 1024.02C258.404 1024.64 258.692 1025.12 259.069 1025.45C259.445 1025.78 259.896 1025.95 260.422 1025.95ZM281.004 1013.64V1017.9H270.223V1013.64H281.004ZM272.311 1009.72H278.191V1024.74C278.191 1024.96 278.23 1025.16 278.309 1025.31C278.387 1025.46 278.507 1025.58 278.671 1025.65C278.834 1025.72 279.044 1025.76 279.299 1025.76C279.477 1025.76 279.683 1025.74 279.917 1025.7C280.159 1025.65 280.336 1025.62 280.45 1025.59L281.302 1029.72C281.039 1029.8 280.663 1029.9 280.173 1030.01C279.69 1030.12 279.115 1030.2 278.447 1030.23C277.098 1030.31 275.965 1030.17 275.049 1029.82C274.132 1029.46 273.444 1028.91 272.982 1028.15C272.52 1027.39 272.297 1026.43 272.311 1025.29V1009.72ZM289.636 1020.8V1030H283.755V1008.18H289.423V1016.75H289.593C289.963 1015.7 290.577 1014.89 291.436 1014.31C292.296 1013.72 293.329 1013.42 294.536 1013.42C295.694 1013.42 296.699 1013.69 297.551 1014.21C298.411 1014.74 299.075 1015.46 299.544 1016.38C300.019 1017.31 300.254 1018.37 300.247 1019.56V1030H294.366V1020.8C294.373 1019.99 294.171 1019.35 293.759 1018.89C293.354 1018.43 292.775 1018.2 292.022 1018.2C291.546 1018.2 291.127 1018.3 290.765 1018.52C290.41 1018.72 290.133 1019.02 289.934 1019.41C289.742 1019.79 289.643 1020.26 289.636 1020.8ZM303.15 1030V1013.64H309.03V1030H303.15ZM306.09 1011.93C305.295 1011.93 304.613 1011.67 304.045 1011.14C303.476 1010.62 303.192 1009.99 303.192 1009.25C303.192 1008.51 303.476 1007.88 304.045 1007.35C304.613 1006.83 305.295 1006.56 306.09 1006.56C306.893 1006.56 307.574 1006.83 308.135 1007.35C308.704 1007.88 308.988 1008.51 308.988 1009.25C308.988 1009.99 308.704 1010.62 308.135 1011.14C307.574 1011.67 306.893 1011.93 306.09 1011.93ZM319.91 1030.3C318.135 1030.3 316.615 1029.95 315.35 1029.24C314.086 1028.53 313.117 1027.55 312.442 1026.28C311.767 1025.01 311.43 1023.54 311.43 1021.86C311.43 1020.18 311.767 1018.71 312.442 1017.45C313.117 1016.18 314.086 1015.19 315.35 1014.49C316.615 1013.78 318.135 1013.42 319.91 1013.42C321.515 1013.42 322.904 1013.71 324.076 1014.3C325.255 1014.87 326.167 1015.69 326.814 1016.75C327.46 1017.8 327.787 1019.03 327.794 1020.45H322.339C322.261 1019.6 322.012 1018.94 321.593 1018.49C321.181 1018.04 320.649 1017.81 319.995 1017.81C319.484 1017.81 319.037 1017.96 318.653 1018.26C318.27 1018.55 317.971 1019 317.758 1019.59C317.545 1020.18 317.439 1020.92 317.439 1021.82C317.439 1022.71 317.545 1023.46 317.758 1024.06C317.971 1024.64 318.27 1025.09 318.653 1025.39C319.037 1025.68 319.484 1025.82 319.995 1025.82C320.429 1025.82 320.812 1025.72 321.146 1025.53C321.48 1025.32 321.75 1025.02 321.956 1024.63C322.169 1024.23 322.297 1023.75 322.339 1023.18H327.794C327.772 1024.62 327.442 1025.88 326.803 1026.95C326.164 1028.02 325.258 1028.84 324.086 1029.42C322.922 1030.01 321.529 1030.3 319.91 1030.3Z" fill="#FF6D7F"/>
<path d="M1056.07 1030H1049.68L1056.88 1008.18H1064.98L1072.18 1030H1065.79L1061.02 1014.19H1060.85L1056.07 1030ZM1054.88 1021.39H1066.9V1025.82H1054.88V1021.39ZM1079 1030.21C1077.84 1030.21 1076.77 1029.91 1075.79 1029.3C1074.81 1028.69 1074.03 1027.76 1073.44 1026.52C1072.86 1025.27 1072.57 1023.71 1072.57 1021.82C1072.57 1019.84 1072.87 1018.24 1073.48 1017C1074.1 1015.77 1074.9 1014.86 1075.87 1014.29C1076.85 1013.71 1077.88 1013.42 1078.96 1013.42C1079.77 1013.42 1080.48 1013.57 1081.09 1013.85C1081.7 1014.13 1082.21 1014.5 1082.62 1014.97C1083.04 1015.43 1083.35 1015.94 1083.56 1016.49H1083.65V1008.18H1089.53V1030H1083.69V1027.32H1083.56C1083.34 1027.87 1083.01 1028.37 1082.58 1028.81C1082.16 1029.24 1081.65 1029.58 1081.05 1029.84C1080.45 1030.09 1079.77 1030.21 1079 1030.21ZM1081.18 1025.7C1081.72 1025.7 1082.18 1025.54 1082.56 1025.23C1082.95 1024.91 1083.25 1024.46 1083.46 1023.88C1083.67 1023.3 1083.78 1022.61 1083.78 1021.82C1083.78 1021.01 1083.67 1020.32 1083.46 1019.74C1083.25 1019.16 1082.95 1018.71 1082.56 1018.41C1082.18 1018.1 1081.72 1017.94 1081.18 1017.94C1080.64 1017.94 1080.17 1018.1 1079.79 1018.41C1079.41 1018.71 1079.12 1019.16 1078.92 1019.74C1078.72 1020.32 1078.62 1021.01 1078.62 1021.82C1078.62 1022.63 1078.72 1023.32 1078.92 1023.91C1079.12 1024.48 1079.41 1024.93 1079.79 1025.24C1080.17 1025.54 1080.64 1025.7 1081.18 1025.7ZM1100.3 1030.3C1098.52 1030.3 1097 1029.95 1095.74 1029.24C1094.47 1028.53 1093.51 1027.55 1092.83 1026.28C1092.16 1025.01 1091.82 1023.54 1091.82 1021.86C1091.82 1020.18 1092.16 1018.71 1092.83 1017.45C1093.51 1016.18 1094.47 1015.19 1095.74 1014.49C1097 1013.78 1098.52 1013.42 1100.3 1013.42C1102.07 1013.42 1103.59 1013.78 1104.86 1014.49C1106.12 1015.19 1107.09 1016.18 1107.77 1017.45C1108.44 1018.71 1108.78 1020.18 1108.78 1021.86C1108.78 1023.54 1108.44 1025.01 1107.77 1026.28C1107.09 1027.55 1106.12 1028.53 1104.86 1029.24C1103.59 1029.95 1102.07 1030.3 1100.3 1030.3ZM1100.34 1025.95C1100.84 1025.95 1101.27 1025.78 1101.63 1025.45C1101.99 1025.12 1102.27 1024.64 1102.47 1024.02C1102.67 1023.41 1102.77 1022.67 1102.77 1021.82C1102.77 1020.96 1102.67 1020.22 1102.47 1019.61C1102.27 1019 1101.99 1018.52 1101.63 1018.19C1101.27 1017.85 1100.84 1017.68 1100.34 1017.68C1099.82 1017.68 1099.36 1017.85 1098.99 1018.19C1098.61 1018.52 1098.32 1019 1098.13 1019.61C1097.93 1020.22 1097.83 1020.96 1097.83 1021.82C1097.83 1022.67 1097.93 1023.41 1098.13 1024.02C1098.32 1024.64 1098.61 1025.12 1098.99 1025.45C1099.36 1025.78 1099.82 1025.95 1100.34 1025.95ZM1111.08 1030V1008.18H1116.96V1016.49H1117.05C1117.26 1015.94 1117.57 1015.43 1117.98 1014.97C1118.4 1014.5 1118.91 1014.13 1119.52 1013.85C1120.13 1013.57 1120.84 1013.42 1121.65 1013.42C1122.73 1013.42 1123.75 1013.71 1124.73 1014.29C1125.71 1014.86 1126.5 1015.77 1127.11 1017C1127.73 1018.24 1128.04 1019.84 1128.04 1021.82C1128.04 1023.71 1127.75 1025.27 1127.16 1026.52C1126.57 1027.76 1125.79 1028.69 1124.81 1029.3C1123.84 1029.91 1122.77 1030.21 1121.61 1030.21C1120.84 1030.21 1120.15 1030.09 1119.55 1029.84C1118.95 1029.58 1118.44 1029.24 1118.02 1028.81C1117.6 1028.37 1117.27 1027.87 1117.05 1027.32H1116.92V1030H1111.08ZM1116.83 1021.82C1116.83 1022.61 1116.94 1023.3 1117.14 1023.88C1117.35 1024.46 1117.65 1024.91 1118.04 1025.23C1118.43 1025.54 1118.89 1025.7 1119.43 1025.7C1119.97 1025.7 1120.43 1025.54 1120.81 1025.24C1121.19 1024.93 1121.48 1024.48 1121.68 1023.91C1121.89 1023.32 1121.99 1022.63 1121.99 1021.82C1121.99 1021.01 1121.89 1020.32 1121.68 1019.74C1121.48 1019.16 1121.19 1018.71 1120.81 1018.41C1120.43 1018.1 1119.97 1017.94 1119.43 1017.94C1118.89 1017.94 1118.43 1018.1 1118.04 1018.41C1117.65 1018.71 1117.35 1019.16 1117.14 1019.74C1116.94 1020.32 1116.83 1021.01 1116.83 1021.82ZM1138.34 1030.3C1136.59 1030.3 1135.09 1029.96 1133.83 1029.3C1132.57 1028.62 1131.6 1027.66 1130.92 1026.4C1130.24 1025.13 1129.9 1023.62 1129.9 1021.86C1129.9 1020.17 1130.25 1018.69 1130.93 1017.43C1131.61 1016.16 1132.57 1015.18 1133.81 1014.48C1135.06 1013.77 1136.52 1013.42 1138.21 1013.42C1139.45 1013.42 1140.57 1013.62 1141.57 1014C1142.57 1014.38 1143.43 1014.94 1144.14 1015.67C1144.85 1016.4 1145.39 1017.28 1145.78 1018.31C1146.16 1019.35 1146.35 1020.52 1146.35 1021.82V1023.18H1131.74V1019.94H1140.94C1140.93 1019.47 1140.81 1019.06 1140.58 1018.71C1140.35 1018.35 1140.04 1018.06 1139.65 1017.87C1139.27 1017.66 1138.83 1017.56 1138.34 1017.56C1137.87 1017.56 1137.43 1017.66 1137.03 1017.87C1136.63 1018.06 1136.31 1018.34 1136.07 1018.7C1135.84 1019.05 1135.71 1019.47 1135.7 1019.94V1023.44C1135.7 1023.96 1135.81 1024.43 1136.03 1024.84C1136.25 1025.26 1136.57 1025.58 1136.98 1025.81C1137.39 1026.05 1137.89 1026.16 1138.47 1026.16C1138.87 1026.16 1139.24 1026.11 1139.58 1025.99C1139.92 1025.88 1140.21 1025.72 1140.45 1025.5C1140.69 1025.28 1140.87 1025.02 1140.98 1024.72H1146.35C1146.17 1025.85 1145.73 1026.84 1145.04 1027.68C1144.35 1028.51 1143.44 1029.15 1142.31 1029.62C1141.18 1030.07 1139.85 1030.3 1138.34 1030.3ZM1168.81 1015.38C1168.72 1015.01 1168.58 1014.68 1168.38 1014.39C1168.18 1014.1 1167.93 1013.86 1167.63 1013.66C1167.34 1013.45 1167 1013.3 1166.61 1013.2C1166.22 1013.09 1165.8 1013.04 1165.34 1013.04C1164.35 1013.04 1163.5 1013.28 1162.79 1013.75C1162.1 1014.23 1161.57 1014.91 1161.2 1015.81C1160.83 1016.7 1160.65 1017.78 1160.65 1019.05C1160.65 1020.33 1160.83 1021.42 1161.18 1022.33C1161.52 1023.24 1162.04 1023.93 1162.73 1024.42C1163.42 1024.9 1164.28 1025.14 1165.3 1025.14C1166.2 1025.14 1166.95 1025.01 1167.55 1024.75C1168.15 1024.49 1168.6 1024.11 1168.9 1023.63C1169.2 1023.15 1169.35 1022.58 1169.35 1021.92L1170.37 1022.03H1165.38V1017.81H1175.06V1020.84C1175.06 1022.83 1174.63 1024.53 1173.79 1025.94C1172.95 1027.35 1171.79 1028.43 1170.32 1029.18C1168.85 1029.93 1167.16 1030.3 1165.26 1030.3C1163.13 1030.3 1161.27 1029.85 1159.66 1028.95C1158.06 1028.04 1156.8 1026.76 1155.9 1025.09C1155.01 1023.42 1154.56 1021.43 1154.56 1019.13C1154.56 1017.33 1154.83 1015.73 1155.38 1014.34C1155.93 1012.95 1156.7 1011.77 1157.68 1010.81C1158.66 1009.85 1159.79 1009.12 1161.08 1008.63C1162.36 1008.13 1163.74 1007.88 1165.21 1007.88C1166.51 1007.88 1167.71 1008.07 1168.81 1008.44C1169.93 1008.8 1170.91 1009.32 1171.76 1009.99C1172.62 1010.66 1173.32 1011.45 1173.84 1012.37C1174.37 1013.28 1174.69 1014.29 1174.8 1015.38H1168.81ZM1185.79 1030.3C1184.01 1030.3 1182.49 1029.95 1181.23 1029.24C1179.96 1028.53 1178.99 1027.55 1178.32 1026.28C1177.64 1025.01 1177.31 1023.54 1177.31 1021.86C1177.31 1020.18 1177.64 1018.71 1178.32 1017.45C1178.99 1016.18 1179.96 1015.19 1181.23 1014.49C1182.49 1013.78 1184.01 1013.42 1185.79 1013.42C1187.56 1013.42 1189.08 1013.78 1190.35 1014.49C1191.61 1015.19 1192.58 1016.18 1193.26 1017.45C1193.93 1018.71 1194.27 1020.18 1194.27 1021.86C1194.27 1023.54 1193.93 1025.01 1193.26 1026.28C1192.58 1027.55 1191.61 1028.53 1190.35 1029.24C1189.08 1029.95 1187.56 1030.3 1185.79 1030.3ZM1185.83 1025.95C1186.33 1025.95 1186.76 1025.78 1187.12 1025.45C1187.48 1025.12 1187.76 1024.64 1187.96 1024.02C1188.16 1023.41 1188.26 1022.67 1188.26 1021.82C1188.26 1020.96 1188.16 1020.22 1187.96 1019.61C1187.76 1019 1187.48 1018.52 1187.12 1018.19C1186.76 1017.85 1186.33 1017.68 1185.83 1017.68C1185.3 1017.68 1184.85 1017.85 1184.48 1018.19C1184.1 1018.52 1183.81 1019 1183.61 1019.61C1183.41 1020.22 1183.32 1020.96 1183.32 1021.82C1183.32 1022.67 1183.41 1023.41 1183.61 1024.02C1183.81 1024.64 1184.1 1025.12 1184.48 1025.45C1184.85 1025.78 1185.3 1025.95 1185.83 1025.95ZM1206.41 1013.64V1017.9H1195.63V1013.64H1206.41ZM1197.72 1009.72H1203.6V1024.74C1203.6 1024.96 1203.64 1025.16 1203.72 1025.31C1203.79 1025.46 1203.92 1025.58 1204.08 1025.65C1204.24 1025.72 1204.45 1025.76 1204.71 1025.76C1204.89 1025.76 1205.09 1025.74 1205.33 1025.7C1205.57 1025.65 1205.74 1025.62 1205.86 1025.59L1206.71 1029.72C1206.45 1029.8 1206.07 1029.9 1205.58 1030.01C1205.1 1030.12 1204.52 1030.2 1203.86 1030.23C1202.51 1030.31 1201.37 1030.17 1200.46 1029.82C1199.54 1029.46 1198.85 1028.91 1198.39 1028.15C1197.93 1027.39 1197.7 1026.43 1197.72 1025.29V1009.72ZM1215.04 1020.8V1030H1209.16V1008.18H1214.83V1016.75H1215C1215.37 1015.7 1215.99 1014.89 1216.84 1014.31C1217.7 1013.72 1218.74 1013.42 1219.94 1013.42C1221.1 1013.42 1222.11 1013.69 1222.96 1014.21C1223.82 1014.74 1224.48 1015.46 1224.95 1016.38C1225.43 1017.31 1225.66 1018.37 1225.65 1019.56V1030H1219.77V1020.8C1219.78 1019.99 1219.58 1019.35 1219.17 1018.89C1218.76 1018.43 1218.18 1018.2 1217.43 1018.2C1216.95 1018.2 1216.54 1018.3 1216.17 1018.52C1215.82 1018.72 1215.54 1019.02 1215.34 1019.41C1215.15 1019.79 1215.05 1020.26 1215.04 1020.8ZM1228.56 1030V1013.64H1234.44V1030H1228.56ZM1231.5 1011.93C1230.7 1011.93 1230.02 1011.67 1229.45 1011.14C1228.88 1010.62 1228.6 1009.99 1228.6 1009.25C1228.6 1008.51 1228.88 1007.88 1229.45 1007.35C1230.02 1006.83 1230.7 1006.56 1231.5 1006.56C1232.3 1006.56 1232.98 1006.83 1233.54 1007.35C1234.11 1007.88 1234.4 1008.51 1234.4 1009.25C1234.4 1009.99 1234.11 1010.62 1233.54 1011.14C1232.98 1011.67 1232.3 1011.93 1231.5 1011.93ZM1245.32 1030.3C1243.54 1030.3 1242.02 1029.95 1240.76 1029.24C1239.49 1028.53 1238.53 1027.55 1237.85 1026.28C1237.18 1025.01 1236.84 1023.54 1236.84 1021.86C1236.84 1020.18 1237.18 1018.71 1237.85 1017.45C1238.53 1016.18 1239.49 1015.19 1240.76 1014.49C1242.02 1013.78 1243.54 1013.42 1245.32 1013.42C1246.92 1013.42 1248.31 1013.71 1249.48 1014.3C1250.66 1014.87 1251.58 1015.69 1252.22 1016.75C1252.87 1017.8 1253.19 1019.03 1253.2 1020.45H1247.75C1247.67 1019.6 1247.42 1018.94 1247 1018.49C1246.59 1018.04 1246.06 1017.81 1245.4 1017.81C1244.89 1017.81 1244.44 1017.96 1244.06 1018.26C1243.68 1018.55 1243.38 1019 1243.17 1019.59C1242.95 1020.18 1242.85 1020.92 1242.85 1021.82C1242.85 1022.71 1242.95 1023.46 1243.17 1024.06C1243.38 1024.64 1243.68 1025.09 1244.06 1025.39C1244.44 1025.68 1244.89 1025.82 1245.4 1025.82C1245.84 1025.82 1246.22 1025.72 1246.55 1025.53C1246.89 1025.32 1247.16 1025.02 1247.36 1024.63C1247.58 1024.23 1247.7 1023.75 1247.75 1023.18H1253.2C1253.18 1024.62 1252.85 1025.88 1252.21 1026.95C1251.57 1028.02 1250.67 1028.84 1249.49 1029.42C1248.33 1030.01 1246.94 1030.3 1245.32 1030.3Z" fill="#FF6D7F"/>
</svg>
