<svg xmlns="http://www.w3.org/2000/svg" width="1920" height="1080" fill="none"><path fill="#1A73E8" d="M134.5 296.5c-4.667 0-8.5-1.5-11.5-4.5s-4.5-6.833-4.5-11.5v-50.25c0-2.833 1-5.167 3-7 2-2 4.583-3 7.75-3 2.833 0 5.25 1 7.25 3 2.167 1.833 3.25 4.167 3.25 7v6c0 1.833.417 3.167 1.25 4 .833.667 1.667.917 2.5.75h14c2.833 0 4.25-1.667 4.25-5v-6.25c0-3 .917-5.417 2.75-7.25 2-2 4.583-3 7.75-3 2.833 0 5.25 1 7.25 3 2.167 1.833 3.25 4.25 3.25 7.25v50.75c0 4.667-1.417 8.5-4.25 11.5s-6.667 4.5-11.5 4.5h-32.5Zm67.25-55.75c0-3.333 1-5.917 3-7.75 2-1.833 4.583-2.75 7.75-2.75s5.417.75 6.75 2.25c1.5 1.5 2.5 3.083 3 4.75.5 1.5.75 2.667.75 3.5v12.5c0 4.5 2.083 6.75 6.25 6.75h6.5c3.833 0 6.5 1 8 3s2.25 4.25 2.25 6.75c0 2.833-.917 5.25-2.75 7.25-1.833 1.833-4.333 2.75-7.5 2.75h-6.5c-4.167 0-6.25 1.833-6.25 5.5V307c0 3.167-1.083 5.75-3.25 7.75-2 2-4.417 3-7.25 3-3.167 0-5.75-1-7.75-3s-3-4.583-3-7.75v-66.25Zm-48.25 90.5c0-3 1-5.5 3-7.5s4.583-3 7.75-3c2.833 0 5.25 1 7.25 3 2.167 2 3.25 4.5 3.25 7.5V347c0 2.333.667 4.5 2 6.5 1.5 2.167 3.917 3.25 7.25 3.25h26.5c3 0 5.5.917 7.5 2.75s3 4.167 3 7c0 3.167-1 5.667-3 7.5-2 1.833-4.5 2.75-7.5 2.75h-41c-4.333 0-8.083-1.417-11.25-4.25-3.167-2.667-4.75-6.417-4.75-11.25v-30Zm-14-61.25c0 2.167.167 3.75.5 4.75.5 1 1.917 1.5 4.25 1.5h12c2.5 0 4-.5 4.5-1.5.667-1 1-2.583 1-4.75v-4.75c0-1.667-.333-2.917-1-3.75-.5-1-2.083-1.5-4.75-1.5h-11.5c-2.167 0-3.583.417-4.25 1.25-.5.833-.75 2.167-.75 4V270ZM349.078 235.25c3 0 5.417.917 7.25 2.75 2 1.667 3 4 3 7s-1 5.333-3 7c-1.833 1.667-4.25 2.5-7.25 2.5h-7.25c-.833 0-1.25.583-1.25 1.75 0 3.5 1.167 6.75 3.5 9.75s4.917 5.583 7.75 7.75c3 2.167 5.25 3.917 6.75 5.25 2 1.833 3 4.167 3 7s-1.083 5.333-3.25 7.5c-2 2.167-4.583 3.167-7.75 3-3-.167-5.417-1.333-7.25-3.5l-9.5-10.25c-1.667-2-3.167-2.833-4.5-2.5-1.333.333-2.917 1.583-4.75 3.75-2.5 2.5-4.667 4.417-6.5 5.75-1.833 1.167-3.917 1.75-6.25 1.75-4 0-8.417-2.417-13.25-7.25l-.25-.25c-2-1.833-3.583-3-4.75-3.5-1.167-.5-2.667.25-4.5 2.25l-12 12.5c-1.833 2-4.417 2.917-7.75 2.75-3.167-.167-5.667-1.333-7.5-3.5-1.833-1.833-2.917-4.333-3.25-7.5-.167-3.167 1.083-5.667 3.75-7.5 2.333-1.667 5-3.583 8-5.75 3.167-2.333 5.833-4.917 8-7.75 2.333-2.833 3.5-6 3.5-9.5 0-.333-.083-.75-.25-1.25-.167-.5-.667-.75-1.5-.75h-8.5c-3 0-5.5-.833-7.5-2.5-1.833-1.667-2.75-4-2.75-7s.917-5.333 2.75-7c2-1.833 4.5-2.75 7.5-2.75h77.5Zm19 5c0-3.333 1-5.917 3-7.75 2-1.833 4.583-2.75 7.75-2.75s5.417.75 6.75 2.25c1.5 1.5 2.5 3.083 3 4.75.5 1.5.75 2.667.75 3.5v12.5c0 4.5 2.083 6.75 6.25 6.75h6.5c3.833 0 6.5 1 8 3s2.25 4.25 2.25 6.75c0 2.833-.917 5.25-2.75 7.25-1.833 1.833-4.333 2.75-7.5 2.75h-6.5c-4.167 0-6.25 1.833-6.25 5.5v22.5c0 3.167-1.083 5.75-3.25 7.75-2 2-4.417 3-7.25 3-3.167 0-5.75-1-7.75-3s-3-4.583-3-7.75v-67Zm15.5 132.5c0 3-1 5.417-3 7.25-2 2-4.5 3-7.5 3s-5.5-1-7.5-3c-1.833-1.833-2.75-4.25-2.75-7.25V354c0-3.167-.833-5.75-2.5-7.75-1.5-1.833-3.833-2.75-7-2.75h-25.25c-3.167 0-5.75-.917-7.75-2.75-1.833-1.667-2.75-4.083-2.75-7.25 0-3 .917-5.333 2.75-7 2-1.833 4.583-2.75 7.75-2.75h40c4.333 0 8 1.333 11 4 3 2.5 4.5 6.333 4.5 11.5v33.5ZM308.078 272c1.667 1.167 3.5 1.167 5.5 0a16.1 16.1 0 0 0 4.75-6.75c1-2.667 1.583-5.583 1.75-8.75 0-1.5-.583-2.25-1.75-2.25h-15.25c-1.167 0-1.75.75-1.75 2.25.167 3.167.75 6.083 1.75 8.75 1.167 2.667 2.833 4.917 5 6.75ZM443.338 296.5c-4.667 0-8.5-1.5-11.5-4.5s-4.5-6.833-4.5-11.5v-50.25c0-2.833 1-5.167 3-7 2-2 4.583-3 7.75-3 2.833 0 5.25 1 7.25 3 2.167 1.833 3.25 4.167 3.25 7v6c0 1.833.417 3.167 1.25 4 .833.667 1.667.917 2.5.75h14c2.833 0 4.25-1.667 4.25-5v-6.25c0-3 .917-5.417 2.75-7.25 2-2 4.583-3 7.75-3 2.833 0 5.25 1 7.25 3 2.167 1.833 3.25 4.25 3.25 7.25v50.75c0 4.667-1.417 8.5-4.25 11.5s-6.667 4.5-11.5 4.5h-32.5Zm67.25-55.75c0-3.333 1-5.917 3-7.75 2-1.833 4.583-2.75 7.75-2.75s5.417.75 6.75 2.25c1.5 1.5 2.5 3.083 3 4.75.5 1.5.75 2.667.75 3.5v12.5c0 4.5 2.083 6.75 6.25 6.75h6.5c3.833 0 6.5 1 8 3s2.25 4.25 2.25 6.75c0 2.833-.917 5.25-2.75 7.25-1.833 1.833-4.333 2.75-7.5 2.75h-6.5c-4.167 0-6.25 1.833-6.25 5.5V307c0 3.167-1.083 5.75-3.25 7.75-2 2-4.417 3-7.25 3-3.167 0-5.75-1-7.75-3s-3-4.583-3-7.75v-66.25Zm-48.25 90.5c0-3 1-5.5 3-7.5s4.583-3 7.75-3c2.833 0 5.25 1 7.25 3 2.167 2 3.25 4.5 3.25 7.5V347c0 2.333.667 4.5 2 6.5 1.5 2.167 3.917 3.25 7.25 3.25h26.5c3 0 5.5.917 7.5 2.75s3 4.167 3 7c0 3.167-1 5.667-3 7.5-2 1.833-4.5 2.75-7.5 2.75h-41c-4.333 0-8.083-1.417-11.25-4.25-3.167-2.667-4.75-6.417-4.75-11.25v-30Zm-14-61.25c0 2.167.167 3.75.5 4.75.5 1 1.917 1.5 4.25 1.5h12c2.5 0 4-.5 4.5-1.5.667-1 1-2.583 1-4.75v-4.75c0-1.667-.333-2.917-1-3.75-.5-1-2.083-1.5-4.75-1.5h-11.5c-2.167 0-3.583.417-4.25 1.25-.5.833-.75 2.167-.75 4V270ZM657.916 235.25c3 0 5.417.917 7.25 2.75 2 1.667 3 4 3 7s-1 5.333-3 7c-1.833 1.667-4.25 2.5-7.25 2.5h-7.25c-.833 0-1.25.583-1.25 1.75 0 3.5 1.167 6.75 3.5 9.75s4.917 5.583 7.75 7.75c3 2.167 5.25 3.917 6.75 5.25 2 1.833 3 4.167 3 7s-1.083 5.333-3.25 7.5c-2 2.167-4.583 3.167-7.75 3-3-.167-5.417-1.333-7.25-3.5l-9.5-10.25c-1.667-2-3.167-2.833-4.5-2.5-1.333.333-2.917 1.583-4.75 3.75-2.5 2.5-4.667 4.417-6.5 5.75-1.833 1.167-3.917 1.75-6.25 1.75-4 0-8.417-2.417-13.25-7.25l-.25-.25c-2-1.833-3.583-3-4.75-3.5-1.167-.5-2.667.25-4.5 2.25l-12 12.5c-1.833 2-4.417 2.917-7.75 2.75-3.167-.167-5.667-1.333-7.5-3.5-1.833-1.833-2.917-4.333-3.25-7.5-.167-3.167 1.083-5.667 3.75-7.5 2.333-1.667 5-3.583 8-5.75 3.167-2.333 5.833-4.917 8-7.75 2.333-2.833 3.5-6 3.5-9.5 0-.333-.083-.75-.25-1.25-.167-.5-.667-.75-1.5-.75h-8.5c-3 0-5.5-.833-7.5-2.5-1.833-1.667-2.75-4-2.75-7s.917-5.333 2.75-7c2-1.833 4.5-2.75 7.5-2.75h77.5Zm19 5c0-3.333 1-5.917 3-7.75 2-1.833 4.583-2.75 7.75-2.75s5.417.75 6.75 2.25c1.5 1.5 2.5 3.083 3 4.75.5 1.5.75 2.667.75 3.5v12.5c0 4.5 2.083 6.75 6.25 6.75h6.5c3.833 0 6.5 1 8 3s2.25 4.25 2.25 6.75c0 2.833-.917 5.25-2.75 7.25-1.833 1.833-4.333 2.75-7.5 2.75h-6.5c-4.167 0-6.25 1.833-6.25 5.5v22.5c0 3.167-1.083 5.75-3.25 7.75-2 2-4.417 3-7.25 3-3.167 0-5.75-1-7.75-3s-3-4.583-3-7.75v-67Zm15.5 132.5c0 3-1 5.417-3 7.25-2 2-4.5 3-7.5 3s-5.5-1-7.5-3c-1.833-1.833-2.75-4.25-2.75-7.25V354c0-3.167-.833-5.75-2.5-7.75-1.5-1.833-3.833-2.75-7-2.75h-25.25c-3.167 0-5.75-.917-7.75-2.75-1.833-1.667-2.75-4.083-2.75-7.25 0-3 .917-5.333 2.75-7 2-1.833 4.583-2.75 7.75-2.75h40c4.333 0 8 1.333 11 4 3 2.5 4.5 6.333 4.5 11.5v33.5ZM616.916 272c1.667 1.167 3.5 1.167 5.5 0a16.1 16.1 0 0 0 4.75-6.75c1-2.667 1.583-5.583 1.75-8.75 0-1.5-.583-2.25-1.75-2.25h-15.25c-1.167 0-1.75.75-1.75 2.25.167 3.167.75 6.083 1.75 8.75 1.167 2.667 2.833 4.917 5 6.75ZM788.975 271.75c0-2 .25-4 .75-6 .5-2.167 1.083-3.833 1.75-5h-1.5c-3 0-5.417-.917-7.25-2.75-1.834-2-2.75-4.5-2.75-7.5 0-3.167.916-5.583 2.75-7.25 1.833-1.833 4.25-2.75 7.25-2.75h15.5c.833 0 1.666-.333 2.5-1 1-.667 1.5-1.833 1.5-3.5v-7.5c0-3 1-5.5 3-7.5s4.416-3 7.25-3c3.166 0 5.75 1 7.75 3s3 4.5 3 7.5v7.25c0 1.833.5 3.083 1.5 3.75 1 .667 1.833 1 2.5 1h15.25c3 0 5.416.917 7.25 2.75 2 1.667 3 4.083 3 7.25 0 3-1 5.5-3 7.5-1.834 1.833-4.25 2.75-7.25 2.75h-1.75c.833 1.167 1.5 2.75 2 4.75.666 1.833 1 3.917 1 6.25 0 8.5-3.084 15.583-9.25 21.25-6 5.5-13.334 8.25-22 8.25-5.5 0-10.584-1.25-15.25-3.75-4.667-2.667-8.417-6.167-11.25-10.5-2.834-4.5-4.25-9.583-4.25-15.25Zm83-31c0-3.333 1-5.917 3-7.75 2-1.833 4.583-2.75 7.75-2.75 3.166 0 5.416.75 6.75 2.25 1.5 1.5 2.5 3.083 3 4.75.5 1.5.75 2.667.75 3.5v12.5c0 4.5 2.083 6.75 6.25 6.75h6.5c3.833 0 6.5 1 8 3s2.25 4.25 2.25 6.75c0 2.833-.917 5.25-2.75 7.25-1.834 1.833-4.334 2.75-7.5 2.75h-6.5c-4.167 0-6.25 1.833-6.25 5.5V307c0 3.167-1.084 5.75-3.25 7.75-2 2-4.417 3-7.25 3-3.167 0-5.75-1-7.75-3s-3-4.583-3-7.75v-66.25Zm-63.75 30.75c0 3.167 1.166 5.833 3.5 8 2.5 2 5.166 3 8 3 3.166 0 5.916-1 8.25-3 2.333-2.167 3.5-4.833 3.5-8 0-3.667-1.167-6.417-3.5-8.25-2.334-2-5.084-3-8.25-3-2.834 0-5.5 1-8 3-2.334 1.833-3.5 4.583-3.5 8.25ZM987.744 348.25c4.833 0 8.667 1.25 11.5 3.75 2.996 2.667 4.496 6.583 4.496 11.75V387c0 4.667-1.58 8.333-4.746 11-3.167 2.833-6.917 4.25-11.25 4.25h-17c-3.167 0-5.167.667-6 2a9.371 9.371 0 0 0-1 4.25v2c0 1.667.333 3.25 1 4.75.833 1.5 3.083 2.25 6.75 2.25h23.75c3 0 5.416.833 7.246 2.5 2 1.833 3 4.333 3 7.5 0 2.833-1 5.25-3 7.25-1.83 2-4.246 3-7.246 3h-37c-4.333 0-8.083-1.5-11.25-4.5s-4.75-6.833-4.75-11.5v-23c0-4.833 1.667-8.75 5-11.75s7.333-4.5 12-4.5h16.25c3 0 5-.667 6-2 1-1.167 1.5-2.417 1.5-3.75v-2c0-1.5-.5-3-1.5-4.5-.833-1.5-3.083-2.25-6.75-2.25h-21.25c-3 0-5.5-.917-7.5-2.75-2-1.667-3-4.083-3-7.25 0-3 1-5.417 3-7.25 2-1.667 4.5-2.5 7.5-2.5h34.25Zm-49-103c0-2.833 1-5.167 3-7 2-2 4.583-3 7.75-3 2.833 0 5.25 1 7.25 3 2.167 1.833 3.25 4.167 3.25 7v21.5c0 2.667.667 5 2 7 1.5 2 3.917 3 7.25 3h27c3 0 5.496.833 7.496 2.5 2.17 1.667 3.25 4.083 3.25 7.25 0 3-1.08 5.5-3.25 7.5-2 1.833-4.496 2.75-7.496 2.75h-41.5c-4.333 0-8.083-1.333-11.25-4-3.167-2.833-4.75-6.75-4.75-11.75v-35.75Zm68.246 66.5c3.5 0 6.09 1 7.75 3 1.84 2 2.75 4.333 2.75 7s-1 5-3 7c-1.83 1.833-4.33 2.75-7.5 2.75h-68.746c-3.167 0-5.75-.917-7.75-2.75-2-2-3-4.333-3-7s.833-5 2.5-7c1.833-2 4.583-3 8.25-3h68.746ZM1140.67 306.25c0 3.167-.84 5.75-2.5 7.75-1.67 1.833-4 2.75-7 2.75-3.17 0-5.67-.917-7.5-2.75-1.67-2-2.5-4.583-2.5-7.75v-24c0-3-.59-4.917-1.75-5.75-1-1-2.75-1.5-5.25-1.5h-4.75c-3 0-5.42-.917-7.25-2.75-1.67 7.667-5.67 13.833-12 18.5-6.17 4.5-13.25 6.75-21.25 6.75-6.17 0-11.84-1.333-17-4-5.17-2.833-9.34-6.667-12.5-11.5-3-5-4.5-10.75-4.5-17.25 0-6.333 1.5-11.917 4.5-16.75 3.16-4.833 7.33-8.583 12.5-11.25 5.16-2.833 10.83-4.25 17-4.25 8 0 15.16 2.333 21.5 7 6.33 4.667 10.33 10.833 12 18.5 1.5-1.833 3.83-2.75 7-2.75h4.75c2.83 0 4.66-.583 5.5-1.75 1-1.167 1.5-3.083 1.5-5.75V241c0-.833.16-2 .5-3.5.33-1.667 1.16-3.25 2.5-4.75 1.5-1.5 3.83-2.333 7-2.5 3.16 0 5.5 1 7 3 1.66 2 2.5 4.583 2.5 7.75v65.25Zm31.75.5c0 3.167-.92 5.75-2.75 7.75-1.84 2-4.34 3-7.5 3-2.84 0-5.34-1-7.5-3-2-2-3-4.583-3-7.75V240.5c0-.833.16-2 .5-3.5.5-1.667 1.5-3.25 3-4.75s3.83-2.25 7-2.25c3.33 0 5.83 1 7.5 3 1.83 1.833 2.75 4.333 2.75 7.5v66.25Zm-116.5-42c0 4 1.25 7.167 3.75 9.5 2.66 2.167 5.75 3.25 9.25 3.25 3.83 0 7-1.083 9.5-3.25 2.5-2.333 3.75-5.5 3.75-9.5 0-3.833-1.25-6.833-3.75-9-2.5-2.333-5.67-3.5-9.5-3.5-3.5 0-6.59 1.167-9.25 3.5-2.5 2.167-3.75 5.167-3.75 9ZM1263.41 296.5c-4.67 0-8.5-1.5-11.5-4.5s-4.5-6.833-4.5-11.5v-50.25c0-2.833 1-5.167 3-7 2-2 4.58-3 7.75-3 2.83 0 5.25 1 7.25 3 2.16 1.833 3.25 4.167 3.25 7v6c0 1.833.41 3.167 1.25 4 .83.667 1.66.917 2.5.75h14c2.83 0 4.25-1.667 4.25-5v-6.25c0-3 .91-5.417 2.75-7.25 2-2 4.58-3 7.75-3 2.83 0 5.25 1 7.25 3 2.16 1.833 3.25 4.25 3.25 7.25v50.75c0 4.667-1.42 8.5-4.25 11.5-2.84 3-6.67 4.5-11.5 4.5h-32.5Zm60.5 56.25c-1.84 0-2.59.75-2.25 2.25.66 1.667 2.58 3.583 5.75 5.75 3.33 2.167 6.83 4.167 10.5 6 3.66 1.833 6.25 3.333 7.75 4.5 2.16 1.167 3.5 3.25 4 6.25.66 3.167.08 5.917-1.75 8.25-1.67 1.833-3.84 3-6.5 3.5-2.5.667-5.17.167-8-1.5L1319.16 377c-2.67-1.833-4.92-2.75-6.75-2.75-1.84 0-4 .917-6.5 2.75l-14.75 11c-2.5 1.833-5.25 2.667-8.25 2.5-2.84 0-5.25-1.083-7.25-3.25-2-2.333-3-4.917-3-7.75.16-2.833 1.5-5.083 4-6.75 2.33-1.667 5.25-3.5 8.75-5.5 3.66-1.833 7.08-3.833 10.25-6 3.16-2.167 5-4.25 5.5-6.25.16-.667.16-1.167 0-1.5-.34-.5-1.09-.75-2.25-.75h-13.75c-3.34 0-6-.833-8-2.5-2-1.5-3-3.75-3-6.75s1.08-5.25 3.25-6.75c2.16-1.667 4.75-2.5 7.75-2.5h12.5c1.66 0 2.66-.583 3-1.75.33-1.167.5-2.083.5-2.75v-4c0-3 1-5.5 3-7.5s4.5-3 7.5-3 5.5 1 7.5 3c2.16 2 3.25 4.5 3.25 7.5v3.75c0 1 .16 2.083.5 3.25.5 1 1.58 1.5 3.25 1.5h12.25c3 0 5.5.833 7.5 2.5 2 1.5 3 3.75 3 6.75s-1 5.25-3 6.75c-2 1.667-4.5 2.5-7.5 2.5h-14.5Zm27.25-46.75c0 3.167-1 5.75-3 7.75-1.84 2-4.25 3-7.25 3s-5.59-1-7.75-3c-2.17-2-3.25-4.583-3.25-7.75v-65.75c0-.833.25-2 .75-3.5.66-1.667 1.75-3.25 3.25-4.75 1.66-1.5 4-2.25 7-2.25 3.16 0 5.66 1 7.5 3 1.83 1.833 2.75 4.333 2.75 7.5V306Zm-82.75-36c0 2.167.16 3.75.5 4.75.5 1 1.91 1.5 4.25 1.5h12c2.5 0 4-.5 4.5-1.5.66-1 1-2.583 1-4.75v-4.75c0-1.667-.34-2.917-1-3.75-.5-1-2.09-1.5-4.75-1.5h-11.5c-2.17 0-3.59.417-4.25 1.25-.5.833-.75 2.167-.75 4V270ZM1456.82 240.75c0-3.333 1-5.917 3-7.75 2-1.833 4.58-2.75 7.75-2.75s5.42.75 6.75 2.25c1.5 1.5 2.5 3.083 3 4.75.5 1.5.75 2.667.75 3.5v12.5c0 4.5 2.08 6.75 6.25 6.75h6.5c3.83 0 6.5 1 8 3s2.25 4.25 2.25 6.75c0 2.833-.92 5.25-2.75 7.25-1.83 1.833-4.33 2.75-7.5 2.75h-6.5c-4.17 0-6.25 1.833-6.25 5.5V307c0 3.167-1.08 5.75-3.25 7.75-2 2-4.42 3-7.25 3-3.17 0-5.75-1-7.75-3s-3-4.583-3-7.75v-66.25Zm-80.75 4.5c0-2.833 1-5.167 3-7 2-2 4.58-3 7.75-3 2.83 0 5.25 1 7.25 3 2.17 1.833 3.25 4.167 3.25 7v21.5c0 2.667.67 5 2 7 1.5 2 3.92 3 7.25 3h27c3 0 5.5.833 7.5 2.5 2.17 1.667 3.25 4.083 3.25 7.25 0 3-1.08 5.5-3.25 7.5-2 1.833-4.5 2.75-7.5 2.75h-41.5c-4.33 0-8.08-1.333-11.25-4-3.17-2.833-4.75-6.75-4.75-11.75v-35.75ZM1523.46 245.25c0-2.833 1-5.167 3-7 2-2 4.58-3 7.75-3 2.83 0 5.25 1 7.25 3 2.17 1.833 3.25 4.167 3.25 7v21.5c0 2.667.67 5 2 7 1.5 2 3.92 3 7.25 3h27c3 0 5.5.833 7.5 2.5 2.17 1.667 3.25 4.083 3.25 7.25 0 3-1.08 5.5-3.25 7.5-2 1.833-4.5 2.75-7.5 2.75h-41.5c-4.33 0-8.08-1.333-11.25-4-3.17-2.833-4.75-6.75-4.75-11.75v-35.75Zm1.5 108c0-3 1-5.5 3-7.5s4.58-3 7.75-3c2.83 0 5.25 1 7.25 3 2.17 2 3.25 4.5 3.25 7.5v16c0 2.333.67 4.5 2 6.5 1.5 2.167 3.92 3.25 7.25 3.25h26.5c3 0 5.5.917 7.5 2.75s3 4.167 3 7c0 3.167-1 5.667-3 7.5-2 1.833-4.5 2.75-7.5 2.75h-41c-4.33 0-8.08-1.417-11.25-4.25-3.17-2.667-4.75-6.417-4.75-11.25v-30.25Zm66.75-41.5c3.5 0 6.08 1 7.75 3 1.83 2 2.75 4.333 2.75 7s-1 5-3 7c-1.83 1.833-4.33 2.75-7.5 2.75h-68.75c-3.17 0-5.75-.917-7.75-2.75-2-2-3-4.333-3-7s.83-5 2.5-7c1.83-2 4.58-3 8.25-3h68.75ZM1689.43 296.5c-4.67 0-8.5-1.5-11.5-4.5s-4.5-6.833-4.5-11.5v-50.25c0-2.833 1-5.167 3-7 2-2 4.58-3 7.75-3 2.83 0 5.25 1 7.25 3 2.17 1.833 3.25 4.167 3.25 7v6c0 1.833.42 3.167 1.25 4 .83.667 1.67.917 2.5.75h14c2.83 0 4.25-1.667 4.25-5v-6.25c0-3 .92-5.417 2.75-7.25 2-2 4.58-3 7.75-3 2.83 0 5.25 1 7.25 3 2.17 1.833 3.25 4.25 3.25 7.25v50.75c0 4.667-1.42 8.5-4.25 11.5s-6.67 4.5-11.5 4.5h-32.5Zm73.75 28c4.83 0 8.67 1.333 11.5 4 3 2.5 4.5 6.333 4.5 11.5v23.25c0 4.667-1.58 8.333-4.75 11-3.17 2.833-6.92 4.25-11.25 4.25h-17c-3.17 0-5.17.667-6 2-.67 1.333-1 2.75-1 4.25v2c0 1.667.33 3.25 1 4.75.83 1.5 3.08 2.25 6.75 2.25h23.75c3 0 5.42.833 7.25 2.5 2 1.833 3 4.333 3 7.5 0 2.833-1 5.25-3 7.25-1.83 2-4.25 3-7.25 3h-37c-4.33 0-8.08-1.5-11.25-4.5s-4.75-6.833-4.75-11.5v-23c0-4.833 1.67-8.75 5-11.75s7.33-4.5 12-4.5h16.25c3 0 5-.667 6-2 1-1.167 1.5-2.417 1.5-3.75v-2c0-1.5-.5-3-1.5-4.5-.83-1.5-3.08-2.25-6.75-2.25h-21.25c-3 0-5.5-.917-7.5-2.75-2-1.667-3-4.083-3-7.25 0-3 1-5.333 3-7 2-1.833 4.5-2.75 7.5-2.75h34.25Zm21.5-17.5c0 3.167-1 5.75-3 7.75-1.83 2-4.33 3-7.5 3-2.67 0-5.08-1-7.25-3-2-2-3-4.583-3-7.75v-8.5c0-1.833-.67-3.167-2-4-1.17-.833-2.42-1.25-3.75-1.25h-6c-3.17 0-5.75-.833-7.75-2.5-1.83-1.667-2.75-3.833-2.75-6.5 0-2.833.75-5.083 2.25-6.75 1.67-1.667 4.42-2.5 8.25-2.5h6c3.83 0 5.75-1.75 5.75-5.25v-5c0-2.333-.5-3.833-1.5-4.5-1-.833-2.42-1.25-4.25-1.25h-6c-3.17 0-5.75-.833-7.75-2.5-1.83-1.833-2.75-4.083-2.75-6.75 0-2.833.75-5.083 2.25-6.75 1.67-1.667 4.42-2.5 8.25-2.5h6c1.33 0 2.58-.417 3.75-1.25 1.33-1 2-2.417 2-4.25v-3c0-.833.17-2 .5-3.5.5-1.667 1.5-3.167 3-4.5 1.5-1.5 3.75-2.25 6.75-2.25 3.33 0 5.92.917 7.75 2.75s2.75 4.333 2.75 7.5v75Zm-90.25-37c0 2.167.17 3.75.5 4.75.5 1 1.92 1.5 4.25 1.5h12c2.5 0 4-.5 4.5-1.5.67-1 1-2.583 1-4.75v-4.75c0-1.667-.33-2.917-1-3.75-.5-1-2.08-1.5-4.75-1.5h-11.5c-2.17 0-3.58.417-4.25 1.25-.5.833-.75 2.167-.75 4V270Z"/><path fill="#FF6D7F" d="M127.75 711.5c-3.167 0-5.75-.917-7.75-2.75-1.833-1.833-2.75-4.25-2.75-7.25 0-3.167.917-5.583 2.75-7.25 2-1.667 4.583-2.5 7.75-2.5h3c2.5 0 3.75-1.5 3.75-4.5V675c0-3.5-1.25-5.25-3.75-5.25h-2.5c-3 0-5.5-.833-7.5-2.5-1.833-1.667-2.75-4.083-2.75-7.25 0-2.833.917-5.083 2.75-6.75 2-1.833 4.417-2.833 7.25-3h63.25c3 0 5.417.917 7.25 2.75 2 1.833 3 4.167 3 7 0 3.167-1 5.583-3 7.25-1.833 1.667-4.25 2.5-7.25 2.5h-1.75c-1.167 0-2.25.417-3.25 1.25-1 .667-1.5 1.833-1.5 3.5v12.75c0 3 1.333 4.5 4 4.5H192c2.833 0 5.25.833 7.25 2.5s3 4.083 3 7.25c0 3-1 5.417-3 7.25-2 1.833-4.417 2.75-7.25 2.75h-64.25ZM170 756.25c0 2.833-.917 5.25-2.75 7.25-1.667 2.167-4.25 3.25-7.75 3.25-3.167 0-5.75-1-7.75-3-1.833-1.833-2.75-4.333-2.75-7.5V751c0-4.667-2.167-7-6.5-7H125c-3.5 0-6.083-1-7.75-3-1.667-2-2.5-4.167-2.5-6.5 0-2.833.917-5.167 2.75-7 2-1.833 4.5-2.75 7.5-2.75h69.25c3.167 0 5.667.917 7.5 2.75 2 1.833 3 4.167 3 7 0 2.333-.917 4.5-2.75 6.5-1.667 2-4.25 3-7.75 3H176.5c-4.333 0-6.5 2.417-6.5 7.25v5ZM166.25 676c0-2.833-.667-4.583-2-5.25a7.435 7.435 0 0 0-3.75-1H159c-1.333 0-2.667.333-4 1-1.167.667-1.75 2.333-1.75 5V687c0 1.667.5 2.917 1.5 3.75 1.167.833 2.583 1.25 4.25 1.25h1.5c1.5 0 2.833-.333 4-1 1.167-.833 1.75-2.25 1.75-4.25V676ZM281.422 621c4.833 0 8.667 1.333 11.5 4 3 2.667 4.5 6.583 4.5 11.75v23.5c0 4.667-1.583 8.417-4.75 11.25s-6.917 4.25-11.25 4.25h-17.75c-3.167 0-5.167.75-6 2.25-.667 1.333-1 2.667-1 4v1.75c0 1.667.333 3.417 1 5.25.833 1.833 3.083 2.75 6.75 2.75h25.75c3 0 5.417.917 7.25 2.75 2 1.833 3 4.333 3 7.5 0 3-1 5.417-3 7.25-1.833 1.667-4.25 2.5-7.25 2.5h-39c-4.333 0-8.083-1.417-11.25-4.25-3.167-3-4.75-6.833-4.75-11.5v-23.75c0-4.833 1.667-8.75 5-11.75s7.333-4.5 12-4.5h17c3 0 5-.667 6-2s1.5-2.583 1.5-3.75V648c0-1.667-.5-3.167-1.5-4.5-.833-1.5-3.083-2.25-6.75-2.25h-22c-3 0-5.5-.917-7.5-2.75s-3-4.333-3-7.5c0-2.833 1-5.167 3-7 2-2 4.5-3 7.5-3h35Zm-46.5 147.25c0-3 1-5.5 3-7.5s4.583-3 7.75-3c2.833 0 5.25 1 7.25 3 2.167 2 3.25 4.5 3.25 7.5v16c0 2.333.667 4.5 2 6.5 1.5 2.167 3.917 3.25 7.25 3.25h26.5c3 0 5.5.917 7.5 2.75s3 4.167 3 7c0 3.167-1 5.667-3 7.5-2 1.833-4.5 2.75-7.5 2.75h-41c-4.333 0-8.083-1.417-11.25-4.25-3.167-2.667-4.75-6.417-4.75-11.25v-30.25Zm66.75-41.5c3.5 0 6.083 1 7.75 3 1.833 2 2.75 4.333 2.75 7s-1 5-3 7c-1.833 1.833-4.333 2.75-7.5 2.75h-68.75c-3.167 0-5.75-.917-7.75-2.75-2-2-3-4.333-3-7s.833-5 2.5-7c1.833-2 4.583-3 8.25-3h68.75ZM399.393 711.5c-4.667 0-8.5-1.5-11.5-4.5s-4.5-6.833-4.5-11.5v-50.25c0-2.833 1-5.167 3-7 2-2 4.583-3 7.75-3 2.833 0 5.25 1 7.25 3 2.166 1.833 3.25 4.167 3.25 7v6c0 1.833.416 3.167 1.25 4 .833.667 1.666.917 2.5.75h14c2.833 0 4.25-1.667 4.25-5v-6.25c0-3 .916-5.417 2.75-7.25 2-2 4.583-3 7.75-3 2.833 0 5.25 1 7.25 3 2.166 1.833 3.25 4.25 3.25 7.25v50.75c0 4.667-1.417 8.5-4.25 11.5-2.834 3-6.667 4.5-11.5 4.5h-32.5Zm67.25-55.75c0-3.333 1-5.917 3-7.75 2-1.833 4.583-2.75 7.75-2.75 3.166 0 5.416.75 6.75 2.25 1.5 1.5 2.5 3.083 3 4.75.5 1.5.75 2.667.75 3.5v12.5c0 4.5 2.083 6.75 6.25 6.75h6.5c3.833 0 6.5 1 8 3s2.25 4.25 2.25 6.75c0 2.833-.917 5.25-2.75 7.25-1.834 1.833-4.334 2.75-7.5 2.75h-6.5c-4.167 0-6.25 1.833-6.25 5.5V722c0 3.167-1.084 5.75-3.25 7.75-2 2-4.417 3-7.25 3-3.167 0-5.75-1-7.75-3s-3-4.583-3-7.75v-66.25ZM404.393 685c0 2.167.166 3.75.5 4.75.5 1 1.916 1.5 4.25 1.5h12c2.5 0 4-.5 4.5-1.5.666-1 1-2.583 1-4.75v-4.75c0-1.667-.334-2.917-1-3.75-.5-1-2.084-1.5-4.75-1.5h-11.5c-2.167 0-3.584.417-4.25 1.25-.5.833-.75 2.167-.75 4V685ZM541.971 711.5c-4.667 0-8.5-1.5-11.5-4.5s-4.5-6.833-4.5-11.5V666c0-4.833 1.5-8.667 4.5-11.5s6.833-4.25 11.5-4.25h39.5c3 0 5.5.917 7.5 2.75s3 4.333 3 7.5c0 3-1 5.417-3 7.25-2 1.667-4.5 2.5-7.5 2.5h-25.5c-3 0-5.25.833-6.75 2.5-1.334 1.667-2 3.667-2 6v3c0 6.333 2.75 9.5 8.25 9.5h27c3 0 5.5.917 7.5 2.75 2 1.667 3 4.083 3 7.25 0 3-1 5.417-3 7.25-2 1.667-4.5 2.667-7.5 3h-40.5Zm67.25-55.75c0-3.333 1-5.917 3-7.75 2-1.833 4.583-2.75 7.75-2.75 3.166 0 5.416.75 6.75 2.25 1.5 1.5 2.5 3.083 3 4.75.5 1.5.75 2.667.75 3.5v12.5c0 4.5 2.083 6.75 6.25 6.75h6.5c3.833 0 6.5 1 8 3s2.25 4.25 2.25 6.75c0 2.833-.917 5.25-2.75 7.25-1.834 1.833-4.334 2.75-7.5 2.75h-6.5c-4.167 0-6.25 1.833-6.25 5.5V722c0 3.167-1.084 5.75-3.25 7.75-2 2-4.417 3-7.25 3-3.167 0-5.75-1-7.75-3s-3-4.583-3-7.75v-66.25ZM725.348 680c0-6.333 1.5-11.917 4.5-16.75 3.166-4.833 7.333-8.583 12.5-11.25 5.166-2.833 10.833-4.25 17-4.25 6.166 0 11.833 1.417 17 4.25 5.166 2.667 9.333 6.417 12.5 11.25 3.166 4.833 4.75 10.417 4.75 16.75 0 6.5-1.584 12.25-4.75 17.25-3.167 4.833-7.334 8.667-12.5 11.5-5.167 2.667-10.834 4-17 4-6.167 0-11.834-1.333-17-4-5.167-2.833-9.334-6.667-12.5-11.5-3-5-4.5-10.75-4.5-17.25Zm40.5 76.25c0 2.833-.917 5.25-2.75 7.25-1.667 2.167-4.25 3.25-7.75 3.25-3.167 0-5.75-1-7.75-3-1.834-1.833-2.75-4.333-2.75-7.5V751c0-4.667-2.167-7-6.5-7h-13.25c-3.5 0-6.084-1-7.75-3-1.667-2-2.5-4.167-2.5-6.5 0-2.833.916-5.167 2.75-7 2-1.833 4.5-2.75 7.5-2.75h69.25c3.166 0 5.666.917 7.5 2.75 2 1.833 3 4.167 3 7 0 2.333-.917 4.5-2.75 6.5-1.667 2-4.25 3-7.75 3h-22c-4.334 0-6.5 2.417-6.5 7.25v5Zm69-35.25c0 3.167-1 5.75-3 7.75-1.834 2-4.25 3-7.25 3s-5.584-1-7.75-3c-2.167-2-3.25-4.583-3.25-7.75v-66.25c0-.833.25-2 .75-3.5.666-1.667 1.75-3.25 3.25-4.75 1.666-1.5 4-2.25 7-2.25 3.166 0 5.666 1 7.5 3 1.833 1.833 2.75 4.333 2.75 7.5V721Zm-88.5-41c0 4 1.25 7.167 3.75 9.5 2.666 2.167 5.75 3.25 9.25 3.25 3.833 0 7-1.083 9.5-3.25 2.5-2.333 3.75-5.5 3.75-9.5 0-3.833-1.25-6.833-3.75-9-2.5-2.333-5.667-3.5-9.5-3.5-3.5 0-6.584 1.167-9.25 3.5-2.5 2.167-3.75 5.167-3.75 9ZM961.955 721.25c0 3.167-.833 5.75-2.5 7.75-1.667 1.833-4 2.75-7 2.75-3.167 0-5.667-.917-7.5-2.75-1.667-2-2.5-4.583-2.5-7.75v-24c0-3-.583-4.917-1.75-5.75-1-1-2.75-1.5-5.25-1.5h-4.75c-3 0-5.417-.917-7.25-2.75-1.667 7.667-5.667 13.833-12 18.5-6.167 4.5-13.25 6.75-21.25 6.75-6.167 0-11.833-1.333-17-4-5.167-2.833-9.333-6.667-12.5-11.5-3-5-4.5-10.75-4.5-17.25 0-6.333 1.5-11.917 4.5-16.75 3.167-4.833 7.333-8.583 12.5-11.25 5.167-2.833 10.833-4.25 17-4.25 8 0 15.167 2.333 21.5 7s10.333 10.833 12 18.5c1.5-1.833 3.833-2.75 7-2.75h4.75c2.833 0 4.667-.583 5.5-1.75 1-1.167 1.5-3.083 1.5-5.75V656c0-.833.167-2 .5-3.5.333-1.667 1.167-3.25 2.5-4.75 1.5-1.5 3.833-2.333 7-2.5 3.167 0 5.5 1 7 3 1.667 2 2.5 4.583 2.5 7.75v65.25Zm31.75.5c0 3.167-.917 5.75-2.75 7.75s-4.333 3-7.5 3c-2.833 0-5.333-1-7.5-3-2-2-3-4.583-3-7.75V655.5c0-.833.167-2 .5-3.5.5-1.667 1.5-3.25 3-4.75s3.833-2.25 7-2.25c3.333 0 5.833 1 7.5 3 1.833 1.833 2.75 4.333 2.75 7.5v66.25Zm-116.5-42c0 4 1.25 7.167 3.75 9.5 2.667 2.167 5.75 3.25 9.25 3.25 3.833 0 7-1.083 9.5-3.25 2.5-2.333 3.75-5.5 3.75-9.5 0-3.833-1.25-6.833-3.75-9-2.5-2.333-5.667-3.5-9.5-3.5-3.5 0-6.583 1.167-9.25 3.5-2.5 2.167-3.75 5.167-3.75 9ZM1074.4 708.5c-2.67-2.667-5-5.083-7-7.25a110.935 110.935 0 0 0-6-6.5c-2.5-2.333-4.75-3.583-6.75-3.75-2-.167-4.34 1-7 3.5a370.958 370.958 0 0 0-8.5 8.25c-2.67 2.833-5 5.25-7 7.25-2.67 2.333-5.5 3.167-8.5 2.5-3-.667-5.42-1.833-7.25-3.5-2-2.333-2.92-4.917-2.75-7.75.33-2.833 1.58-5.083 3.75-6.75 1-.833 2-1.583 3-2.25 1-.833 2.08-1.667 3.25-2.5 3.33-2.667 6.58-5.417 9.75-8.25a31.762 31.762 0 0 0 7.5-10c2-3.833 2.83-8.583 2.5-14.25-.34-3 .58-5.5 2.75-7.5 2.16-2 4.66-3 7.5-3 3 0 5.58 1 7.75 3 2.16 2 3.08 4.5 2.75 7.5-.34 5.833.33 10.583 2 14.25 1.66 3.667 4 6.833 7 9.5 3.16 2.667 6.58 5.333 10.25 8 1 .5 1.91 1.083 2.75 1.75a38.53 38.53 0 0 0 2.75 2c2.16 1.667 3.25 4.167 3.25 7.5.16 3.333-.75 6-2.75 8-2 2.167-4.59 3.333-7.75 3.5-3 0-5.42-1.083-7.25-3.25Zm58 13.5c0 3.167-1 5.75-3 7.75-1.84 2-4.25 3-7.25 3-3.17 0-5.84-1-8-3-2-2-3-4.583-3-7.75v-26.25c0-3.833-1.84-5.75-5.5-5.75h-7c-3.17 0-5.67-.917-7.5-2.75-1.84-1.833-2.75-4.25-2.75-7.25 0-2.5.75-4.75 2.25-6.75 1.66-2 4.33-3 8-3h7c2.33 0 3.83-.5 4.5-1.5.66-1.167 1-2.833 1-5v-8c0-.833.25-2 .75-3.5.5-1.667 1.5-3.25 3-4.75 1.66-1.5 4.08-2.25 7.25-2.25 3.16 0 5.66 1 7.5 3 1.83 1.833 2.75 4.333 2.75 7.5V722ZM1233.12 821.5c-4.67 0-8.5-1.417-11.5-4.25s-4.5-6.583-4.5-11.25v-27.75c0-4.667 1.5-8.417 4.5-11.25s6.83-4.25 11.5-4.25h6.5c-1.17-1.667-1.75-3.833-1.75-6.5V751c0-4.667-2.17-7-6.5-7h-17.5c-3.5 0-6.09-1-7.75-3-1.67-2-2.5-4.167-2.5-6.5 0-2.833.91-5.167 2.75-7 2-1.833 4.5-2.75 7.5-2.75h69.25c3.16 0 5.66.917 7.5 2.75 2 1.833 3 4.167 3 7 0 2.333-.92 4.5-2.75 6.5-1.67 2-4.25 3-7.75 3h-17.75c-4.34 0-6.5 2.417-6.5 7.25v5c0 2.5-.67 4.667-2 6.5h9c4.83 0 8.66 1.417 11.5 4.25 2.83 2.833 4.25 6.583 4.25 11.25V806c0 4.667-1.42 8.417-4.25 11.25-2.84 2.833-6.67 4.25-11.5 4.25h-32.75Zm27.75-147c-2 0-2.75 1.167-2.25 3.5.66 1.667 2.58 3.583 5.75 5.75 3.33 2.167 6.83 4.25 10.5 6.25 3.83 1.833 6.5 3.25 8 4.25 2 1.333 3.25 3.5 3.75 6.5.66 3 .08 5.667-1.75 8-1.67 2-3.84 3.333-6.5 4-2.5.5-5.17-.083-8-1.75l-14.25-11.25c-2.67-2-4.92-3-6.75-3-1.84 0-4 .917-6.5 2.75l-14.75 12c-2.5 1.667-5.25 2.417-8.25 2.25-2.84-.167-5.25-1.333-7.25-3.5-1.84-2.333-2.75-4.833-2.75-7.5.16-2.833 1.41-5.083 3.75-6.75 2.33-1.5 5.25-3.25 8.75-5.25a187.05 187.05 0 0 0 10.25-6.5c3.16-2.333 5-4.417 5.5-6.25.16-.833.08-1.583-.25-2.25-.34-.833-1-1.25-2-1.25h-13.75c-3.34 0-6-.75-8-2.25-2-1.667-3-4.083-3-7.25 0-3 1.08-5.333 3.25-7 2.16-1.667 4.75-2.5 7.75-2.5h12.5c1.66 0 2.66-.5 3-1.5.33-1.167.5-2.083.5-2.75V645c0-2.833 1-5.167 3-7 2.16-2 4.66-3 7.5-3 3 0 5.5 1 7.5 3 2.16 1.833 3.25 4.167 3.25 7v6c0 1 .16 2 .5 3 .5 1 1.58 1.5 3.25 1.5h12.25c3.16 0 5.66.833 7.5 2.5 2 1.667 3 4 3 7 0 3.167-1 5.583-3 7.25-1.84 1.5-4.34 2.25-7.5 2.25h-14.5Zm-22.5 120.25c0 2.167.33 3.917 1 5.25.66 1.333 2.25 2 4.75 2h9.5c2.66 0 4.41-.667 5.25-2 1-1.333 1.5-3.083 1.5-5.25v-6.25c0-2-.5-3.583-1.5-4.75-.84-1-2.67-1.5-5.5-1.5h-8.75c-2.34 0-4 .583-5 1.75-.84 1.333-1.25 2.917-1.25 4.75v6ZM1368.29 674.5c-2 0-2.75 1.167-2.25 3.5.67 1.667 2.58 3.583 5.75 5.75 3.33 2.167 6.83 4.25 10.5 6.25 3.83 1.833 6.5 3.25 8 4.25 2 1.333 3.25 3.5 3.75 6.5.67 3 .08 5.667-1.75 8-1.67 2-3.83 3.333-6.5 4-2.5.5-5.17-.083-8-1.75l-14.25-11.25c-2.67-2-4.92-3-6.75-3s-4 .917-6.5 2.75l-14.75 12c-2.5 1.667-5.25 2.417-8.25 2.25-2.83-.167-5.25-1.333-7.25-3.5-1.83-2.333-2.75-4.833-2.75-7.5.17-2.833 1.42-5.083 3.75-6.75 2.33-1.5 5.25-3.25 8.75-5.25 3.67-2.167 7.08-4.333 10.25-6.5 3.17-2.333 5-4.417 5.5-6.25.17-.833.08-1.583-.25-2.25-.33-.833-1-1.25-2-1.25h-13.75c-3.33 0-6-.75-8-2.25-2-1.667-3-4.083-3-7.25 0-3 1.08-5.333 3.25-7 2.17-1.667 4.75-2.5 7.75-2.5h12.5c1.67 0 2.67-.5 3-1.5.33-1.167.5-2.083.5-2.75V645c0-2.833 1-5.167 3-7 2.17-2 4.67-3 7.5-3 3 0 5.5 1 7.5 3 2.17 1.833 3.25 4.167 3.25 7v6c0 1 .17 2 .5 3 .5 1 1.58 1.5 3.25 1.5h12.25c3.17 0 5.67.833 7.5 2.5 2 1.667 3 4 3 7 0 3.167-1 5.583-3 7.25-1.83 1.5-4.33 2.25-7.5 2.25h-14.5Zm-2 81.75c0 2.833-.92 5.25-2.75 7.25-1.67 2.167-4.25 3.25-7.75 3.25-3.17 0-5.75-1-7.75-3-1.83-1.833-2.75-4.333-2.75-7.5V751c0-4.667-2.17-7-6.5-7h-17.5c-3.5 0-6.08-1-7.75-3s-2.5-4.167-2.5-6.5c0-2.833.92-5.167 2.75-7 2-1.833 4.5-2.75 7.5-2.75h69.25c3.17 0 5.67.917 7.5 2.75 2 1.833 3 4.167 3 7 0 2.333-.92 4.5-2.75 6.5-1.67 2-4.25 3-7.75 3h-17.75c-4.33 0-6.5 2.417-6.5 7.25v5ZM1429.71 660.25c0-2.833 1-5.167 3-7 2-2 4.58-3 7.75-3 2.83 0 5.25 1 7.25 3 2.17 1.833 3.25 4.167 3.25 7v21.5c0 2.667.67 5 2 7 1.5 2 3.92 3 7.25 3h27c3 0 5.5.833 7.5 2.5 2.17 1.667 3.25 4.083 3.25 7.25 0 3-1.08 5.5-3.25 7.5-2 1.833-4.5 2.75-7.5 2.75h-41.5c-4.33 0-8.08-1.333-11.25-4-3.17-2.833-4.75-6.75-4.75-11.75v-35.75Zm1.5 108c0-3 1-5.5 3-7.5s4.58-3 7.75-3c2.83 0 5.25 1 7.25 3 2.17 2 3.25 4.5 3.25 7.5v16c0 2.333.67 4.5 2 6.5 1.5 2.167 3.92 3.25 7.25 3.25h26.5c3 0 5.5.917 7.5 2.75s3 4.167 3 7c0 3.167-1 5.667-3 7.5-2 1.833-4.5 2.75-7.5 2.75h-41c-4.33 0-8.08-1.417-11.25-4.25-3.17-2.667-4.75-6.417-4.75-11.25v-30.25Zm66.75-41.5c3.5 0 6.08 1 7.75 3 1.83 2 2.75 4.333 2.75 7s-1 5-3 7c-1.83 1.833-4.33 2.75-7.5 2.75h-68.75c-3.17 0-5.75-.917-7.75-2.75-2-2-3-4.333-3-7s.83-5 2.5-7c1.83-2 4.58-3 8.25-3h68.75ZM1586.43 711.5c-3.17 0-5.75-.917-7.75-2.75-1.83-1.833-2.75-4.25-2.75-7.25 0-3.167.92-5.583 2.75-7.25 2-1.667 4.58-2.5 7.75-2.5h3c2.5 0 3.75-1.5 3.75-4.5V675c0-3.5-1.25-5.25-3.75-5.25h-2.5c-3 0-5.5-.833-7.5-2.5-1.83-1.667-2.75-4.083-2.75-7.25 0-2.833.92-5.083 2.75-6.75 2-1.833 4.42-2.833 7.25-3h63.25c3 0 5.42.917 7.25 2.75 2 1.833 3 4.167 3 7 0 3.167-1 5.583-3 7.25-1.83 1.667-4.25 2.5-7.25 2.5h-1.75c-1.17 0-2.25.417-3.25 1.25-1 .667-1.5 1.833-1.5 3.5v12.75c0 3 1.33 4.5 4 4.5h3.25c2.83 0 5.25.833 7.25 2.5s3 4.083 3 7.25c0 3-1 5.417-3 7.25-2 1.833-4.42 2.75-7.25 2.75h-64.25Zm86.5-55.75c0-3.333 1-5.917 3-7.75 2-1.833 4.58-2.75 7.75-2.75s5.42.75 6.75 2.25c1.5 1.5 2.5 3.083 3 4.75.5 1.5.75 2.667.75 3.5v12.5c0 4.5 2.08 6.75 6.25 6.75h6.5c3.83 0 6.5 1 8 3s2.25 4.25 2.25 6.75c0 2.833-.92 5.25-2.75 7.25-1.83 1.833-4.33 2.75-7.5 2.75h-6.5c-4.17 0-6.25 1.833-6.25 5.5V722c0 3.167-1.08 5.75-3.25 7.75-2 2-4.42 3-7.25 3-3.17 0-5.75-1-7.75-3s-3-4.583-3-7.75v-66.25Zm-48 20.25c0-2.833-.67-4.583-2-5.25a7.45 7.45 0 0 0-3.75-1h-1.5c-1.33 0-2.67.333-4 1-1.17.667-1.75 2.333-1.75 5V687c0 1.667.5 2.917 1.5 3.75 1.17.833 2.58 1.25 4.25 1.25h1.5c1.5 0 2.83-.333 4-1 1.17-.833 1.75-2.25 1.75-4.25V676ZM1784.02 724.5c0 4.167 2.17 6.25 6.5 6.25h17.5c3.5 0 6.08 1.083 7.75 3.25 1.83 2 2.75 4.167 2.75 6.5 0 2.667-1 5-3 7-1.83 2-4.33 3-7.5 3h-69.25c-3 0-5.5-1-7.5-3-1.83-2-2.75-4.333-2.75-7 0-2.333.83-4.5 2.5-6.5 1.67-2.167 4.25-3.25 7.75-3.25h17.75c4.33 0 6.5-2 6.5-6v-5c0-3.833 1.25-6.583 3.75-8.25h-10.75c-4.67 0-8.5-1.5-11.5-4.5s-4.5-6.833-4.5-11.5V666c0-4.833 1.5-8.667 4.5-11.5s6.83-4.25 11.5-4.25h40.25c3 0 5.5.917 7.5 2.75s3 4.333 3 7.5c0 3-1 5.417-3 7.25-2 1.667-4.5 2.5-7.5 2.5h-26.25c-3 0-5.25.833-6.75 2.5-1.33 1.667-2 3.667-2 6v3c0 6.333 2.75 9.5 8.25 9.5h27.75c3 0 5.5.917 7.5 2.75 2 1.667 3 4.083 3 7.25 0 3-1 5.417-3 7.25-2 1.667-4.5 2.667-7.5 3h-17.25c2.67 2 4 4.75 4 8.25v4.75Z"/></svg>