<svg width="1920" height="1080" viewBox="0 0 1920 1080" fill="none" xmlns="http://www.w3.org/2000/svg">
<path d="M538.391 420.949V378.91H494.622C492.431 378.91 491.335 377.699 491.335 375.277C491.335 372.739 492.431 371.471 494.622 371.471H538.391V333.238H492.546C490.355 333.238 489.259 332.027 489.259 329.605C489.259 327.067 490.355 325.799 492.546 325.799H538.391V307.288C538.391 305.096 539.66 304.001 542.197 304.001C544.85 304.001 546.176 305.096 546.176 307.288V462.296C546.176 464.487 544.85 465.583 542.197 465.583C539.66 465.583 538.391 464.487 538.391 462.296V428.388H487.183C484.992 428.388 483.896 427.177 483.896 424.755C483.896 422.217 484.992 420.949 487.183 420.949H538.391ZM592.367 428.042V463.334C592.367 465.525 591.041 466.621 588.388 466.621C585.851 466.621 584.582 465.525 584.582 463.334V307.288C584.582 305.096 585.851 304.001 588.388 304.001C591.041 304.001 592.367 305.096 592.367 307.288V325.453H639.423C641.615 325.453 642.71 326.721 642.71 329.259C642.71 331.681 641.615 332.892 639.423 332.892H592.367V371.298H637.001C639.193 371.298 640.288 372.566 640.288 375.104C640.288 377.526 639.193 378.737 637.001 378.737H592.367V420.603H643.922C646.113 420.603 647.208 421.871 647.208 424.409C647.208 426.831 646.113 428.042 643.922 428.042H592.367Z" fill="#1A73E8"/>
<path d="M704.088 330.989H734.017V304.174C734.017 302.213 735.228 301.233 737.65 301.233C740.187 301.233 741.456 302.213 741.456 304.174V330.989H774.672C779.401 325.222 783.783 318.59 787.82 311.094C788.743 309.248 789.665 308.326 790.588 308.326C791.626 308.326 792.606 308.614 793.529 309.191C794.567 309.767 795.086 310.517 795.086 311.44C795.086 312.362 794.106 314.496 792.145 317.841C790.184 321.07 786.955 325.453 782.457 330.989H799.238C809.503 330.989 814.635 336.813 814.635 348.462C814.635 351.345 814.001 355.958 812.732 362.302C811.463 368.414 809.791 371.471 807.715 371.471C806.446 371.471 805.351 371.009 804.428 370.087C803.505 369.049 803.505 367.722 804.428 366.108C806.158 361.264 807.196 357.054 807.542 353.479C808.003 349.903 807.946 347.02 807.369 344.829C806.908 342.522 806.043 340.85 804.774 339.812C803.621 338.658 802.294 338.082 800.795 338.082H676.408C674.909 338.082 673.582 338.658 672.429 339.812C671.391 340.965 670.872 342.291 670.872 343.791V367.838C670.872 369.798 669.603 370.779 667.066 370.779C664.644 370.779 663.433 369.798 663.433 367.838V342.926C663.433 338.774 664.471 335.775 666.547 333.93C668.738 331.969 672.141 330.989 676.754 330.989H696.649C693.42 325.107 689.614 319.455 685.231 314.035C684.308 313.227 683.789 312.478 683.674 311.786C683.559 310.978 683.674 310.286 684.02 309.71C684.366 309.018 684.827 308.499 685.404 308.153C686.096 307.807 686.73 307.576 687.307 307.461C687.999 307.461 689.152 308.268 690.767 309.883C692.266 311.497 694.515 314.611 697.514 319.225C700.743 324.069 702.935 327.99 704.088 330.989ZM741.11 413.337V463.507C741.11 465.583 739.841 466.621 737.304 466.621C734.882 466.621 733.671 465.583 733.671 463.507V413.337H686.615C685.116 413.337 683.789 413.971 682.636 415.24C681.598 416.508 681.079 418.008 681.079 419.738V454.338C681.079 457.221 679.81 458.663 677.273 458.663C674.736 458.663 673.467 457.221 673.467 454.338V417.662C673.467 413.279 674.274 410.28 675.889 408.666C677.504 406.936 680.272 406.071 684.193 406.071H733.671V389.29H698.379C691.69 389.29 688.345 385.714 688.345 378.564V362.821C688.345 359.476 689.268 356.766 691.113 354.69C692.958 352.614 695.38 351.576 698.379 351.576H775.883C783.264 351.576 786.955 355.324 786.955 362.821V378.564C786.955 382.716 786.148 385.541 784.533 387.041C782.918 388.54 780.035 389.29 775.883 389.29H741.11V406.071H793.529C797.566 406.071 800.391 406.936 802.006 408.666C803.736 410.396 804.601 413.394 804.601 417.662V439.46C804.601 445.803 803.102 450.301 800.103 452.954C797.22 455.606 793.183 456.933 787.993 456.933C783.034 456.933 777.382 456.298 771.039 455.03C768.04 454.453 765.676 453.876 763.946 453.3C762.216 452.838 761.12 452.492 760.659 452.262C759.736 451.685 759.275 450.878 759.275 449.84C759.275 448.802 759.506 447.821 759.967 446.899C760.544 445.976 761.351 445.515 762.389 445.515C763.427 445.515 764.407 445.63 765.33 445.861C771.904 447.475 777.209 448.513 781.246 448.975C785.398 449.551 788.57 449.551 790.761 448.975C793.068 448.398 794.625 447.302 795.432 445.688C796.355 444.073 796.931 441.939 797.162 439.287V419.738C797.162 417.892 796.528 416.393 795.259 415.24C794.106 413.971 792.779 413.337 791.28 413.337H741.11ZM779.343 378.564V362.821C779.343 359.822 777.786 358.323 774.672 358.323H700.628C697.514 358.323 695.957 359.822 695.957 362.821V378.564C695.957 379.717 696.361 380.697 697.168 381.505C698.091 382.197 699.244 382.543 700.628 382.543H774.672C776.056 382.543 777.152 382.139 777.959 381.332C778.882 380.409 779.343 379.486 779.343 378.564Z" fill="#1A73E8"/>
<path d="M911.823 327.183H959.225C963.262 327.183 966.088 328.048 967.702 329.778C969.432 331.508 970.297 334.506 970.297 338.774V407.282C970.297 411.664 969.432 414.778 967.702 416.624C965.972 418.354 963.147 419.219 959.225 419.219H911.823V434.616C911.823 439.46 912.112 443.093 912.688 445.515C913.38 448.052 914.361 449.897 915.629 451.051C916.898 452.089 918.628 452.723 920.819 452.954C923.011 453.184 926.817 453.357 932.237 453.473C935.005 453.588 937.716 453.646 940.368 453.646C943.136 453.761 945.847 453.819 948.499 453.819C965.107 453.819 974.392 453.184 976.352 451.916C978.428 450.647 980.216 448.975 981.715 446.899C983.215 444.707 983.964 438.537 983.964 428.388C983.964 425.274 985.233 423.717 987.77 423.717C988.462 423.717 989.039 423.832 989.5 424.063C990.077 424.178 990.538 424.582 990.884 425.274C991.23 425.85 991.461 426.773 991.576 428.042C991.807 429.31 991.922 431.098 991.922 433.405C991.922 438.018 991.23 442.285 989.846 446.207C988.462 450.243 986.329 453.415 983.445 455.722C980.677 458.144 977.217 459.701 973.065 460.393C968.913 461.085 959.629 461.431 945.212 461.431C930.68 461.431 921.108 460.854 916.494 459.701C911.65 458.547 908.363 456.125 906.633 452.435C904.903 448.859 904.038 442.804 904.038 434.27V419.219H855.252C851.331 419.219 848.505 418.354 846.775 416.624C845.161 414.778 844.353 411.664 844.353 407.282V338.774C844.353 334.391 845.161 331.392 846.775 329.778C848.505 328.048 851.331 327.183 855.252 327.183H904.038V305.731C904.038 303.309 905.307 302.098 907.844 302.098C910.497 302.098 911.823 303.309 911.823 305.731V327.183ZM904.038 368.357V334.622H857.155C853.695 334.622 851.965 336.582 851.965 340.504V368.357H904.038ZM911.823 334.622V368.357H962.685V340.504C962.685 336.582 960.898 334.622 957.322 334.622H911.823ZM911.823 375.796V411.78H957.322C960.898 411.78 962.685 409.761 962.685 405.725V375.796H911.823ZM904.038 411.78V375.796H851.965V405.725C851.965 407.455 852.484 408.896 853.522 410.05C854.56 411.203 855.771 411.78 857.155 411.78H904.038Z" fill="#1A73E8"/>
<path d="M1047.94 335.66C1047.94 336.236 1047.76 336.871 1047.42 337.563C1047.07 338.139 1046.55 338.543 1045.86 338.774C1045.28 339.004 1044.53 339.004 1043.61 338.774C1042.69 338.543 1041.65 337.851 1040.5 336.698C1035.65 331.854 1031.1 327.471 1026.83 323.55C1022.68 319.628 1018.76 315.995 1015.07 312.651C1014.03 311.959 1013.39 311.267 1013.16 310.575C1012.93 309.767 1012.93 309.075 1013.16 308.499C1013.51 307.807 1013.97 307.23 1014.55 306.769C1015.12 306.307 1015.76 306.019 1016.45 305.904C1017.37 305.904 1018.41 306.307 1019.56 307.115C1020.14 307.576 1021.53 308.845 1023.72 310.921C1026.02 312.881 1029.14 315.707 1033.06 319.398C1036.98 323.088 1040.04 326.029 1042.23 328.221C1044.42 330.412 1045.8 331.796 1046.38 332.373C1047.42 333.641 1047.94 334.737 1047.94 335.66ZM1107.62 322.858C1097.93 323.78 1089.8 324.53 1083.23 325.107C1076.77 325.568 1071.75 325.799 1068.18 325.799C1065.87 325.799 1064.26 325.51 1063.33 324.934C1062.41 324.242 1061.95 323.146 1061.95 321.647C1061.95 320.147 1062.47 319.167 1063.51 318.706C1064.66 318.129 1066.51 317.841 1069.04 317.841C1077.23 317.841 1084.84 317.668 1091.88 317.322C1098.91 316.976 1105.49 316.399 1111.6 315.592C1117.83 314.784 1124.29 313.689 1130.98 312.305C1137.67 310.805 1144.7 309.018 1152.08 306.942C1152.54 306.826 1152.95 306.769 1153.29 306.769C1153.64 306.653 1153.99 306.596 1154.33 306.596C1156.87 306.596 1158.14 307.922 1158.14 310.575C1158.14 311.728 1157.39 312.708 1155.89 313.516C1155.08 313.862 1153.52 314.381 1151.22 315.073C1149.03 315.765 1146.03 316.572 1142.22 317.495C1138.53 318.417 1134.44 319.282 1129.94 320.09C1125.44 320.782 1120.6 321.416 1115.41 321.993V354.517H1164.02C1166.67 354.517 1168 355.785 1168 358.323C1168 360.745 1166.67 361.956 1164.02 361.956H1115.41V390.155H1142.91C1147.41 390.155 1150.53 391.02 1152.26 392.75C1153.99 394.364 1154.85 397.19 1154.85 401.227V448.975C1154.85 453.127 1153.99 455.952 1152.26 457.452C1150.53 459.066 1147.41 459.874 1142.91 459.874H1080.29C1075.91 459.874 1072.85 459.009 1071.12 457.279C1069.39 455.664 1068.52 452.896 1068.52 448.975V401.227C1068.52 397.19 1069.33 394.364 1070.95 392.75C1072.68 391.02 1075.79 390.155 1080.29 390.155H1107.62V361.956H1059.18C1056.53 361.956 1055.2 360.745 1055.2 358.323C1055.2 355.785 1056.53 354.517 1059.18 354.517H1107.62V322.858ZM1147.58 447.245V402.957C1147.58 400.881 1147.07 399.439 1146.03 398.632C1145.11 397.709 1143.43 397.248 1141.01 397.248H1082.19C1080.35 397.248 1078.79 397.767 1077.52 398.805C1076.37 399.843 1075.79 401.227 1075.79 402.957V447.245C1075.79 450.935 1077.92 452.781 1082.19 452.781H1141.01C1145.39 452.781 1147.58 450.935 1147.58 447.245ZM1034.1 447.072C1033.87 449.148 1034.44 450.186 1035.83 450.186C1036.4 450.186 1036.98 449.955 1037.56 449.494C1038.25 449.032 1040.56 446.726 1044.48 442.574C1046.44 440.498 1048.34 438.422 1050.19 436.346C1052.03 434.27 1053.76 432.136 1055.38 429.945C1056.64 428.33 1057.74 427.523 1058.66 427.523C1059.7 427.523 1060.57 427.869 1061.26 428.561C1061.95 429.253 1062.3 430.06 1062.3 430.983C1062.3 431.79 1061.95 432.77 1061.26 433.924C1060.91 434.5 1060.16 435.365 1059.01 436.519C1057.97 437.787 1056.53 439.402 1054.68 441.363C1052.84 443.323 1050.99 445.226 1049.15 447.072C1047.3 449.032 1045.4 450.935 1043.44 452.781C1039.63 456.241 1037.04 458.374 1035.65 459.182C1034.85 459.874 1033.87 460.22 1032.71 460.22C1031.67 460.335 1030.69 459.989 1029.77 459.182C1028.96 458.49 1028.27 457.221 1027.7 455.376C1027.12 453.646 1026.95 451.281 1027.18 448.283L1031.16 366.973C1031.27 364.781 1030.81 363.282 1029.77 362.475C1028.73 361.552 1027 361.206 1024.58 361.437L1006.59 363.167C1005.32 363.282 1004.46 363.109 1003.99 362.648C1003.65 362.071 1003.48 361.148 1003.48 359.88C1003.48 358.496 1003.65 357.573 1003.99 357.112C1004.34 356.535 1005.21 356.189 1006.59 356.074L1026.83 354.344C1030.87 353.998 1033.81 354.69 1035.65 356.42C1037.5 358.034 1038.31 361.033 1038.08 365.416L1034.1 447.072Z" fill="#1A73E8"/>
<path d="M1264.67 327.183H1331.79C1333.75 327.183 1334.73 328.451 1334.73 330.989C1334.73 333.411 1333.75 334.622 1331.79 334.622H1185.09C1183.01 334.622 1181.97 333.411 1181.97 330.989C1181.97 328.451 1183.01 327.183 1185.09 327.183H1257.23C1256.19 321.531 1255.21 317.149 1254.29 314.035C1253.48 310.921 1252.79 308.556 1252.21 306.942C1251.75 305.327 1251.52 304.231 1251.52 303.655C1251.64 303.078 1252.15 302.501 1253.08 301.925C1254 301.348 1254.98 301.06 1256.02 301.06C1257.06 301.06 1258.04 301.579 1258.96 302.617C1259.77 303.655 1260.8 307.057 1262.07 312.824C1263.23 318.475 1264.09 323.261 1264.67 327.183ZM1286.81 450.878H1337.16C1339.23 450.878 1340.27 452.089 1340.27 454.511C1340.27 457.048 1339.23 458.317 1337.16 458.317H1178.69C1176.73 458.317 1175.75 457.048 1175.75 454.511C1175.75 452.089 1176.73 450.878 1178.69 450.878H1279.55C1283.12 437.038 1286.47 421.814 1289.58 405.206C1292.69 388.598 1295.64 370.317 1298.4 350.365C1298.86 347.597 1300.08 346.213 1302.04 346.213C1304.92 346.213 1306.36 347.481 1306.36 350.019C1306.36 351.287 1305.9 354.69 1304.98 360.226C1304.17 365.762 1302.84 373.604 1301 383.754C1299.15 393.788 1297.08 404.398 1294.77 415.586C1292.46 426.658 1289.81 438.422 1286.81 450.878ZM1209.14 348.635C1210.17 348.635 1211.04 349.038 1211.73 349.846C1212.42 350.653 1212.94 351.576 1213.29 352.614L1217.27 365.762C1218.42 369.568 1219.57 373.547 1220.73 377.699C1221.88 381.851 1223.03 386.118 1224.19 390.501C1225.34 394.883 1226.44 399.612 1227.47 404.687C1228.63 409.646 1229.72 414.951 1230.76 420.603C1232.84 431.905 1233.87 438.537 1233.87 440.498C1233.87 443.266 1232.61 444.65 1230.07 444.65C1227.76 444.65 1226.32 442.977 1225.74 439.633C1224.47 430.867 1223.21 422.852 1221.94 415.586C1220.67 408.204 1219.28 401.515 1217.79 395.518C1216.4 389.52 1214.67 383.177 1212.6 376.488C1210.63 369.798 1208.33 362.763 1205.68 355.382C1205.1 353.652 1205.04 352.095 1205.5 350.711C1206.08 349.327 1207.29 348.635 1209.14 348.635Z" fill="#1A73E8"/>
<path d="M1420.33 317.495C1419.29 314.15 1418.83 311.786 1418.95 310.402C1419.18 308.902 1420.1 307.864 1421.71 307.288C1422.87 306.826 1423.96 307.115 1425 308.153C1426.04 309.075 1427.02 311.267 1427.94 314.727C1436.25 346.443 1446.86 374.181 1459.77 397.94C1472.81 421.583 1488.84 440.671 1507.87 455.203C1510.87 457.509 1512.6 459.297 1513.06 460.566C1513.52 461.95 1513.12 463.276 1511.85 464.545C1510.93 465.467 1509.89 465.813 1508.73 465.583C1507.58 465.352 1505.5 464.026 1502.51 461.604C1494.78 455.145 1487.57 448.167 1480.88 440.671C1474.19 433.174 1467.91 424.812 1462.02 415.586C1456.14 406.359 1450.55 396.152 1445.24 384.965C1440.05 373.662 1434.98 360.975 1430.02 346.905C1427.37 357.861 1423.85 368.645 1419.47 379.256C1415.2 389.751 1410.07 399.9 1404.07 409.704C1398.19 419.507 1391.44 428.791 1383.83 437.557C1376.22 446.322 1367.74 454.338 1358.4 461.604C1355.86 463.564 1354.01 464.545 1352.86 464.545C1351.71 464.66 1350.73 464.199 1349.92 463.161C1349.34 462.238 1349.29 461.085 1349.75 459.701C1350.21 458.317 1351.59 456.76 1353.9 455.03C1362.78 448.571 1370.85 441.132 1378.12 432.713C1385.5 424.293 1392.19 415.067 1398.19 405.033C1404.18 394.999 1409.49 384.157 1414.1 372.509C1418.72 360.86 1422.7 348.519 1426.04 335.487C1425.12 332.603 1424.14 329.662 1423.1 326.664C1422.18 323.665 1421.25 320.609 1420.33 317.495Z" fill="#1A73E8"/>
<path d="M1560.08 319.917V305.731C1560.08 303.77 1561.17 302.79 1563.36 302.79C1565.44 302.79 1566.48 303.77 1566.48 305.731V319.917H1590.87C1592.72 319.917 1593.64 321.012 1593.64 323.204C1593.64 325.28 1592.72 326.318 1590.87 326.318H1566.82C1582.05 340.388 1591.04 348.865 1593.81 351.749C1596.7 354.517 1598.14 356.42 1598.14 357.458C1598.14 358.15 1597.96 358.842 1597.62 359.534C1597.27 360.11 1596.75 360.514 1596.06 360.745C1595.37 360.975 1594.56 360.975 1593.64 360.745C1592.83 360.399 1591.91 359.649 1590.87 358.496C1584.99 351.345 1576.86 342.926 1566.48 333.238V379.429C1566.48 381.389 1565.38 382.37 1563.19 382.37C1561.12 382.37 1560.08 381.389 1560.08 379.429V335.314C1558.23 338.312 1556.39 341.196 1554.54 343.964C1552.7 346.616 1550.79 349.096 1548.83 351.403C1545.14 356.131 1540.99 360.802 1536.38 365.416C1531.99 369.914 1529.23 372.566 1528.07 373.374C1527.38 374.066 1526.52 374.412 1525.48 374.412C1524.55 374.412 1523.75 374.123 1523.06 373.547C1522.48 372.855 1522.25 371.99 1522.36 370.952C1522.59 369.798 1523.46 368.472 1524.96 366.973C1531.3 361.667 1537.36 355.67 1543.12 348.981C1548.89 342.176 1554.43 334.622 1559.73 326.318H1530.15C1528.3 326.318 1527.38 325.28 1527.38 323.204C1527.38 321.012 1528.3 319.917 1530.15 319.917H1560.08ZM1636.72 326.837H1602.81C1600.73 326.837 1599.69 325.856 1599.69 323.896C1599.69 321.474 1600.73 320.263 1602.81 320.263H1636.72V306.077C1636.72 304.116 1637.81 303.136 1640 303.136C1642.31 303.136 1643.46 304.116 1643.46 306.077V320.263H1679.27C1681.12 320.263 1682.04 321.358 1682.04 323.55C1682.04 325.741 1681.12 326.837 1679.27 326.837H1643.98C1649.86 335.256 1655.86 342.81 1661.97 349.5C1668.09 356.189 1674.43 362.013 1681 366.973C1682.85 368.472 1684 369.741 1684.46 370.779C1684.93 371.817 1684.98 372.682 1684.64 373.374C1684.41 373.95 1683.89 374.412 1683.08 374.758C1682.39 375.104 1681.81 375.334 1681.35 375.45C1680.43 375.45 1679.39 375.104 1678.24 374.412C1676.97 373.489 1673.97 370.836 1669.24 366.454C1664.4 361.956 1659.9 357.227 1655.75 352.268C1651.71 347.193 1647.62 341.369 1643.46 334.795V379.256C1643.46 381.216 1642.31 382.197 1640 382.197C1637.81 382.197 1636.72 381.216 1636.72 379.256V336.698C1632.33 342.926 1627.32 348.981 1621.67 354.863C1616.36 360.514 1610.82 365.762 1605.06 370.606C1599.75 374.988 1596.35 377.583 1594.85 378.391C1593.58 378.967 1592.54 379.256 1591.74 379.256C1591.04 379.256 1590.35 378.91 1589.66 378.218C1589.08 377.41 1588.8 376.488 1588.8 375.45C1588.8 374.296 1589.95 372.97 1592.26 371.471C1599.75 366.511 1608.17 359.361 1617.51 350.019C1626.62 340.792 1633.03 333.065 1636.72 326.837ZM1665.26 385.83C1667.34 385.83 1668.38 386.925 1668.38 389.117C1668.38 391.308 1667.34 392.404 1665.26 392.404H1542.78C1540.59 392.404 1539.49 391.308 1539.49 389.117C1539.49 386.925 1540.59 385.83 1542.78 385.83H1665.26ZM1604.54 416.97H1525.65C1523.57 416.97 1522.54 415.816 1522.54 413.51C1522.54 411.203 1523.57 410.05 1525.65 410.05H1683.43C1685.62 410.05 1686.71 411.203 1686.71 413.51C1686.71 415.816 1685.62 416.97 1683.43 416.97H1611.46V449.494C1611.46 455.837 1610.36 460.104 1608.17 462.296C1605.98 464.487 1602.64 465.583 1598.14 465.583C1593.41 465.583 1588.68 465.006 1583.95 463.853C1581.53 463.276 1579.63 462.757 1578.24 462.296C1576.97 461.834 1575.99 461.373 1575.3 460.912C1574.61 460.566 1574.21 460.162 1574.09 459.701C1573.97 459.355 1573.92 458.893 1573.92 458.317C1573.92 455.895 1575.07 454.684 1577.38 454.684C1577.72 454.684 1578.07 454.684 1578.42 454.684C1578.76 454.799 1579.17 454.914 1579.63 455.03C1587.58 457.106 1593.12 458.144 1596.23 458.144C1599.35 458.144 1601.48 457.509 1602.64 456.241C1603.9 455.087 1604.54 452.435 1604.54 448.283V416.97ZM1681.35 456.587C1681.35 457.163 1681.12 457.74 1680.66 458.317C1680.31 459.009 1679.79 459.528 1679.1 459.874C1678.52 460.22 1677.78 460.277 1676.85 460.047C1675.93 459.931 1674.95 459.412 1673.91 458.49C1668.14 453.069 1662.26 447.994 1656.27 443.266C1650.27 438.537 1644.1 434.039 1637.75 429.772C1635.68 428.388 1634.64 427.292 1634.64 426.485C1634.64 425.562 1634.93 424.639 1635.51 423.717C1636.08 422.794 1636.83 422.333 1637.75 422.333C1638.68 422.333 1639.6 422.563 1640.52 423.025C1641.1 423.255 1642.14 423.947 1643.64 425.101C1645.25 426.139 1647.38 427.638 1650.04 429.599C1652.69 431.559 1655.23 433.462 1657.65 435.308C1660.19 437.038 1662.55 438.825 1664.74 440.671C1667.05 442.516 1669.07 444.131 1670.8 445.515C1672.64 447.014 1674.26 448.398 1675.64 449.667C1677.03 450.935 1678.12 451.916 1678.93 452.608C1679.74 453.415 1680.31 454.049 1680.66 454.511C1681 454.972 1681.18 455.318 1681.18 455.549C1681.29 455.895 1681.35 456.241 1681.35 456.587ZM1570.28 423.89C1571.09 423.89 1571.9 424.293 1572.71 425.101C1573.51 425.793 1573.92 426.542 1573.92 427.35C1573.92 427.926 1573.63 428.676 1573.05 429.599C1572.59 430.291 1571.09 431.848 1568.55 434.27C1566.02 436.692 1562.33 439.633 1557.48 443.093C1552.64 446.783 1547.68 450.301 1542.6 453.646C1539.95 455.491 1537.82 456.875 1536.2 457.798C1534.59 458.836 1533.49 459.47 1532.92 459.701C1531.3 460.623 1529.92 460.796 1528.76 460.22C1527.61 459.643 1527.03 458.547 1527.03 456.933C1527.03 455.203 1528.25 453.703 1530.67 452.435C1545.08 444.938 1556.73 436.403 1565.61 426.831C1567.57 424.87 1569.13 423.89 1570.28 423.89Z" fill="#1A73E8"/>
<path d="M1789.09 450.186H1856.56C1858.64 450.186 1859.68 451.339 1859.68 453.646C1859.68 455.952 1858.64 457.106 1856.56 457.106H1697.75C1695.79 457.106 1694.81 456.183 1694.81 454.338C1694.81 452.608 1694.98 451.454 1695.33 450.878C1695.79 450.416 1696.59 450.186 1697.75 450.186H1725.43V335.66C1725.43 333.584 1726.7 332.546 1729.23 332.546C1731.77 332.546 1733.04 333.584 1733.04 335.66V450.186H1781.48V305.558C1781.48 303.482 1782.75 302.444 1785.29 302.444C1787.82 302.444 1789.09 303.482 1789.09 305.558V347.251H1846.87C1848.95 347.251 1849.99 348.404 1849.99 350.711C1849.99 353.017 1848.95 354.171 1846.87 354.171H1789.09V450.186Z" fill="#1A73E8"/>
<path d="M500.332 644.238C496.41 644.238 493.758 643.315 492.374 641.47C490.99 639.624 490.298 637.202 490.298 634.204C490.298 631.09 490.99 628.61 492.374 626.765C493.758 624.804 496.41 623.824 500.332 623.824H630.601C634.522 623.824 637.175 624.804 638.559 626.765C639.943 628.61 640.635 631.09 640.635 634.204C640.635 637.202 639.943 639.624 638.559 641.47C637.175 643.315 634.522 644.238 630.601 644.238H577.317V754.612H638.386C642.307 754.612 644.96 755.477 646.344 757.207C647.728 759.052 648.42 761.647 648.42 764.992C648.42 768.336 647.728 770.816 646.344 772.431C644.96 774.161 642.307 775.026 638.386 775.026H492.72C488.798 775.026 486.146 774.161 484.762 772.431C483.378 770.816 482.686 768.336 482.686 764.992C482.686 761.647 483.378 759.052 484.762 757.207C486.146 755.477 488.798 754.612 492.72 754.612H555.519V644.238H500.332Z" fill="#1A73E8"/>
<path d="M812.732 756.342C816.538 756.342 819.133 757.149 820.517 758.764C821.901 760.494 822.593 763.031 822.593 766.376C822.593 769.374 821.786 771.796 820.171 773.642C818.672 775.487 816.192 776.41 812.732 776.41H666.547C663.087 776.41 660.607 775.487 659.108 773.642C657.724 771.796 657.032 769.374 657.032 766.376C657.032 763.031 657.666 760.494 658.935 758.764C660.204 757.149 662.741 756.342 666.547 756.342H708.586V623.305C708.586 619.383 709.624 616.788 711.7 615.52C713.776 614.251 716.14 613.617 718.793 613.617C721.446 613.617 723.81 614.309 725.886 615.693C727.962 617.077 729 619.614 729 623.305V756.342H749.587V624.343C749.587 620.421 750.625 617.826 752.701 616.558C754.892 615.289 757.314 614.655 759.967 614.655C762.62 614.655 764.984 615.289 767.06 616.558C769.136 617.826 770.174 620.421 770.174 624.343V756.342H812.732ZM702.185 731.949C702.877 737.831 702.416 741.81 700.801 743.886C699.186 745.962 696.649 747.115 693.189 747.346C689.498 747.576 686.788 746.711 685.058 744.751C683.443 742.79 682.348 739.33 681.771 734.371C680.733 726.413 679.637 719.031 678.484 712.227C677.446 705.307 676.293 698.733 675.024 692.505C673.871 686.277 672.602 680.279 671.218 674.513C669.949 668.631 668.508 662.749 666.893 656.867C665.278 651.907 664.759 648.332 665.336 646.141C666.028 643.834 668.219 641.989 671.91 640.605C675.601 639.105 678.657 639.163 681.079 640.778C683.501 642.392 685.231 645.276 686.269 649.428C687.999 656.002 689.614 662.46 691.113 668.804C692.728 675.032 694.169 681.49 695.438 688.18C696.822 694.754 698.033 701.674 699.071 708.94C700.224 716.09 701.262 723.818 702.185 732.122V731.949ZM815.673 655.829C814.52 663.21 813.251 670.245 811.867 676.935C810.598 683.624 809.099 690.256 807.369 696.83C805.754 703.288 803.967 709.747 802.006 716.206C800.045 722.549 797.854 729.123 795.432 735.928C793.817 740.541 791.741 743.597 789.204 745.097C786.782 746.481 783.668 746.25 779.862 744.405C776.517 742.559 774.614 740.426 774.153 738.004C773.692 735.582 774.211 732.583 775.71 729.008C780.323 717.013 784.245 704.961 787.474 692.851C790.703 680.625 793.356 667.42 795.432 653.234C795.778 650.12 796.124 647.64 796.47 645.795C796.931 643.949 797.566 642.565 798.373 641.643C799.18 640.605 800.218 639.97 801.487 639.74C802.871 639.509 804.716 639.451 807.023 639.567C810.829 639.797 813.424 641.181 814.808 643.719C816.307 646.256 816.596 650.293 815.673 655.829Z" fill="#1A73E8"/>
<path d="M911.477 752.363C911.477 760.321 910.151 766.03 907.499 769.49C904.961 772.95 900.521 774.68 894.177 774.68C892.101 774.68 889.91 774.564 887.603 774.334C885.297 774.218 882.932 773.872 880.51 773.296C877.512 772.488 875.32 770.874 873.936 768.452C872.552 766.03 872.725 763.492 874.455 760.84C875.839 758.533 877.396 757.149 879.126 756.688C880.972 756.342 883.105 756.572 885.527 757.38C886.45 757.61 887.257 757.783 887.949 757.899C888.641 758.014 889.449 758.129 890.371 758.245C892.332 758.591 893.543 758.533 894.004 758.072C894.581 757.726 894.869 756.745 894.869 755.131V685.066C894.293 686.334 893.255 687.199 891.755 687.661C890.256 688.122 888.353 688.353 886.046 688.353H861.999C859.693 688.353 857.732 688.237 856.117 688.007C854.618 687.661 853.58 686.796 853.003 685.412V686.45C853.003 700.751 852.83 712.573 852.484 721.915C852.138 731.257 851.619 738.984 850.927 745.097C850.235 751.209 849.37 756.111 848.332 759.802C847.41 763.492 846.314 766.895 845.046 770.009C843.431 773.469 841.47 775.602 839.163 776.41C836.857 777.217 834.435 776.756 831.897 775.026C829.245 773.065 827.976 770.874 828.091 768.452C828.322 766.03 829.072 763.608 830.34 761.186L830.167 761.359C831.09 759.513 831.897 757.149 832.589 754.266C833.397 751.382 834.031 747.23 834.492 741.81C835.069 736.389 835.473 729.354 835.703 720.704C836.049 711.938 836.222 700.751 836.222 687.142V633.512C836.222 629.821 836.453 626.88 836.914 624.689C837.491 622.382 838.414 620.652 839.682 619.499C841.066 618.23 842.854 617.423 845.046 617.077C847.237 616.731 850.062 616.558 853.522 616.558H894.177C897.407 616.558 900.117 616.788 902.309 617.25C904.615 617.596 906.403 618.403 907.671 619.672C909.055 620.825 910.036 622.555 910.612 624.862C911.189 627.053 911.477 630.052 911.477 633.858V681.26C911.823 680.106 912.342 678.895 913.034 677.627C914.764 673.936 916.494 669.784 918.224 665.171C919.954 660.557 921.569 655.771 923.068 650.812C924.683 645.737 926.125 640.72 927.393 635.761C928.662 630.686 929.642 625.9 930.335 621.402C931.142 617.365 932.526 614.77 934.486 613.617C936.562 612.348 939.157 612.175 942.271 613.098C944.578 613.79 946.135 615.404 946.942 617.942C947.865 620.364 947.98 623.074 947.288 626.073C946.712 628.379 946.135 630.686 945.559 632.993C945.097 635.299 944.578 637.606 944.001 639.913H960.09C959.283 637.952 958.418 635.991 957.495 634.031C956.573 632.07 955.477 630.109 954.208 628.149C952.248 625.15 951.267 622.613 951.267 620.537C951.267 618.461 952.536 616.269 955.073 613.963C957.034 612.117 959.283 611.541 961.82 612.233C964.473 612.809 966.722 614.655 968.568 617.769C970.528 621.113 972.316 624.458 973.93 627.803C975.66 631.032 977.16 634.146 978.428 637.145C978.659 637.721 978.832 638.24 978.948 638.702C979.063 639.048 979.178 639.451 979.293 639.913H985.867C988.751 639.913 990.827 640.605 992.096 641.989C993.48 643.373 994.172 645.795 994.172 649.255C994.172 652.715 993.48 655.079 992.096 656.348C990.827 657.501 988.751 658.078 985.867 658.078H973.065V676.243H984.31C987.194 676.243 989.27 676.935 990.538 678.319C991.807 679.587 992.441 681.952 992.441 685.412C992.441 688.872 991.807 691.236 990.538 692.505C989.27 693.773 987.194 694.408 984.31 694.408H973.065V712.919H984.137C987.136 712.919 989.212 713.553 990.366 714.822C991.519 715.975 992.096 718.282 992.096 721.742C992.096 725.202 991.519 727.681 990.366 729.181C989.212 730.565 987.136 731.257 984.137 731.257H973.065V750.633H987.424C990.423 750.633 992.557 751.325 993.826 752.709C995.094 754.093 995.729 756.457 995.729 759.802C995.729 763.146 995.094 765.511 993.826 766.895C992.557 768.394 990.423 769.144 987.424 769.144H940.368C940.368 772.488 939.388 774.968 937.427 776.583C935.467 778.197 933.275 779.005 930.853 779.005C928.547 779.005 926.644 778.197 925.145 776.583C923.76 774.968 923.068 772.488 923.068 769.144V693.37C921.684 694.177 920.185 694.465 918.57 694.235C916.956 694.004 915.629 693.543 914.591 692.851C913.092 691.928 912.054 690.775 911.477 689.391V752.363ZM890.891 731.949C890.891 735.87 890.775 738.984 890.544 741.291C890.429 743.482 889.91 745.154 888.987 746.308C888.065 747.461 886.566 748.211 884.49 748.557C882.414 748.903 879.472 749.076 875.666 749.076H873.59C869.9 749.076 866.959 748.845 864.767 748.384C862.576 748.038 860.846 747.288 859.577 746.135C858.309 744.866 857.444 743.136 856.982 740.945C856.636 738.638 856.464 735.639 856.464 731.949V710.497C856.464 706.691 856.694 703.634 857.155 701.328C857.617 699.021 858.482 697.291 859.75 696.138C861.019 694.869 862.749 694.062 864.94 693.716C867.247 693.37 870.13 693.197 873.59 693.197H875.666C879.242 693.197 882.01 693.37 883.97 693.716C886.046 693.946 887.603 694.696 888.641 695.965C889.679 697.118 890.314 698.848 890.544 701.155C890.775 703.461 890.891 706.575 890.891 710.497V731.949ZM853.003 676.762C853.465 675.608 854.503 674.743 856.117 674.167C857.732 673.59 859.693 673.302 861.999 673.302H865.805V661.711H865.113C861.769 661.711 859.404 661.192 858.02 660.154C856.752 659 856.117 656.924 856.117 653.926C856.117 650.581 856.752 648.563 858.02 647.871C859.404 647.063 861.769 646.66 865.113 646.66H865.805V640.951C865.805 637.145 866.959 634.607 869.266 633.339H857.328C855.252 633.339 853.984 633.569 853.522 634.031C853.176 634.492 853.003 635.876 853.003 638.183V676.762ZM886.046 673.302C888.584 673.302 890.544 673.59 891.928 674.167C893.312 674.628 894.293 675.378 894.869 676.416V638.183C894.869 635.876 894.523 634.492 893.831 634.031C893.255 633.569 891.813 633.339 889.507 633.339H879.818C882.125 634.607 883.278 637.145 883.278 640.951V646.66C886.277 646.775 888.411 647.294 889.679 648.217C891.063 649.139 891.755 651.1 891.755 654.099C891.755 657.213 891.121 659.289 889.852 660.327C888.699 661.249 886.508 661.711 883.278 661.711V673.302H886.046ZM940.368 750.633H956.457V731.257H940.368V750.633ZM940.368 712.919H956.457V694.408H940.368V712.919ZM940.368 676.243H956.457V658.078H940.368V676.243ZM877.05 712.746C877.05 710.9 876.877 709.805 876.531 709.459C876.301 708.997 875.782 708.767 874.974 708.767H873.59C871.976 708.767 870.996 708.997 870.65 709.459C870.304 709.805 870.13 710.9 870.13 712.746V729.527C870.13 731.257 870.304 732.352 870.65 732.814C870.996 733.16 871.976 733.333 873.59 733.333H875.32C876.012 733.333 876.474 733.16 876.704 732.814C876.935 732.352 877.05 731.257 877.05 729.527V712.746Z" fill="#1A73E8"/>
<path d="M1013.86 648.909C1010.17 648.909 1007.51 648.159 1005.9 646.66C1004.28 645.045 1003.48 642.623 1003.48 639.394C1003.48 635.934 1004.28 633.512 1005.9 632.128C1007.51 630.628 1010.17 629.879 1013.86 629.879H1042.57V629.706C1040.5 625.554 1039.63 622.209 1039.98 619.672C1040.44 617.019 1042.52 614.712 1046.21 612.752C1049.32 611.368 1052.03 610.964 1054.34 611.541C1056.76 612.002 1059.01 614.539 1061.08 619.153C1061.78 620.998 1062.41 622.843 1062.99 624.689C1063.68 626.534 1064.31 628.264 1064.89 629.879H1090.15C1094.07 629.879 1096.9 630.571 1098.63 631.955C1100.47 633.223 1101.39 635.588 1101.39 639.048C1101.39 645.622 1097.65 648.909 1090.15 648.909H1058.14C1053.76 655.483 1049.9 660.961 1046.55 665.344C1043.21 669.611 1040.04 673.705 1037.04 677.627C1035.88 679.126 1036.35 679.876 1038.42 679.876H1054.34C1058.03 673.532 1061.32 666.901 1064.2 659.981C1067.31 652.484 1071.98 649.774 1078.21 651.85C1081.56 652.888 1083.4 654.733 1083.75 657.386C1084.21 660.038 1083.46 663.614 1081.5 668.112C1077.81 676.646 1073.94 684.201 1069.91 690.775C1065.87 697.233 1061.43 703.231 1056.59 708.767C1051.86 714.187 1046.61 719.262 1040.84 723.991C1035.08 728.604 1028.56 733.275 1021.29 738.004C1016.45 741.348 1012.82 742.79 1010.4 742.329C1008.09 741.867 1005.96 739.445 1003.99 735.063C1003.19 732.871 1002.84 731.026 1002.96 729.527C1003.19 728.027 1003.71 726.701 1004.51 725.548C1005.32 724.394 1006.3 723.414 1007.45 722.607C1008.72 721.799 1010.05 721.05 1011.43 720.358C1016.85 717.474 1022.16 714.072 1027.35 710.151C1032.54 706.229 1037.1 702.25 1041.02 698.214H1028.39C1022.16 698.214 1017.2 697.464 1013.51 695.965C1009.93 694.465 1008.15 691.697 1008.15 687.661C1008.15 683.393 1010.11 679.126 1014.03 674.859C1018.18 670.245 1021.87 665.92 1025.1 661.884C1028.45 657.847 1031.73 653.522 1034.96 648.909H1013.86ZM1019.05 774.507C1015.01 776.467 1011.72 777.448 1009.18 777.448C1006.76 777.448 1004.74 775.487 1003.13 771.566C1001.4 767.76 1001.28 764.703 1002.78 762.397C1004.4 760.205 1007.11 758.072 1010.91 755.996C1019.56 751.844 1027.41 747.461 1034.44 742.848C1041.48 738.234 1047.99 732.871 1053.99 726.759C1059.99 720.646 1065.53 713.611 1070.6 705.653C1075.67 697.579 1080.52 688.064 1085.13 677.108C1086.52 674.109 1088.19 672.033 1090.15 670.88C1092.11 669.611 1094.94 669.438 1098.63 670.361C1100.36 670.822 1101.68 671.572 1102.6 672.61C1103.53 673.648 1104.1 674.859 1104.34 676.243C1104.57 677.627 1104.51 679.126 1104.16 680.741C1103.82 682.355 1103.3 684.028 1102.6 685.758C1098.8 694.062 1094.99 701.558 1091.19 708.248C1087.5 714.822 1083.63 720.877 1079.6 726.413C1083.75 730.68 1087.21 734.313 1089.98 737.312C1092.74 740.195 1095.63 743.194 1098.63 746.308C1101.51 749.537 1102.95 752.305 1102.95 754.612C1103.07 757.034 1101.68 759.686 1098.8 762.57C1095.69 765.568 1092.92 766.779 1090.49 766.203C1088.19 765.626 1085.59 763.608 1082.71 760.148C1081.44 758.648 1080.23 757.207 1079.08 755.823C1078.04 754.554 1076.89 753.228 1075.62 751.844C1074.46 750.46 1073.14 748.96 1071.64 747.346C1070.14 745.846 1068.47 744.059 1066.62 741.983C1060.05 748.557 1052.9 754.381 1045.17 759.456C1037.56 764.646 1028.85 769.663 1019.05 774.507ZM1161.08 749.941C1161.08 756.515 1160.27 761.82 1158.66 765.857C1157.04 769.893 1154.56 772.834 1151.22 774.68C1147.87 776.525 1143.61 777.332 1138.42 777.102C1133.23 776.986 1127.06 775.891 1119.9 773.815C1114.37 772.2 1111.08 770.009 1110.04 767.241C1109.01 764.588 1109.29 761.186 1110.91 757.034C1113.56 750.575 1118.46 748.903 1125.61 752.017C1129.07 753.516 1131.78 754.496 1133.74 754.958C1135.71 755.419 1137.2 755.361 1138.24 754.785C1139.28 754.323 1139.92 753.285 1140.15 751.671C1140.49 750.171 1140.66 748.153 1140.66 745.616V622.267C1140.66 615.462 1144.01 612.06 1150.7 612.06C1154.04 612.06 1156.58 612.867 1158.31 614.482C1160.16 615.981 1161.08 618.576 1161.08 622.267V749.941ZM1129.77 723.472C1129.77 727.393 1128.79 730.276 1126.83 732.122C1124.98 733.852 1122.56 734.717 1119.56 734.717C1112.99 734.717 1109.7 730.968 1109.7 723.472V639.048C1109.7 634.78 1110.51 631.839 1112.12 630.225C1113.85 628.61 1116.33 627.803 1119.56 627.803C1122.56 627.803 1124.98 628.61 1126.83 630.225C1128.79 631.839 1129.77 634.78 1129.77 639.048V723.472Z" fill="#1A73E8"/>
<path d="M1332.31 664.652C1335.08 664.652 1337.21 665.459 1338.71 667.074C1340.33 668.688 1341.13 670.995 1341.13 673.994C1341.13 676.762 1340.33 679.011 1338.71 680.741C1337.21 682.355 1335.08 683.163 1332.31 683.163H1229.9C1227.47 683.163 1225.46 682.298 1223.84 680.568C1222.34 678.838 1221.59 676.531 1221.59 673.648C1221.59 668.458 1223.73 665.517 1227.99 664.825C1227.65 664.594 1227.3 664.421 1226.95 664.306C1226.61 664.075 1226.26 663.787 1225.92 663.441C1223.49 661.48 1222.11 659.346 1221.76 657.04C1221.42 654.618 1222.57 651.734 1225.22 648.39C1226.84 646.314 1228.28 644.353 1229.55 642.508C1230.82 640.547 1231.97 638.586 1233.01 636.626C1234.16 634.55 1235.2 632.416 1236.12 630.225C1237.16 627.918 1238.14 625.438 1239.06 622.786C1240.56 618.749 1242.35 616.212 1244.43 615.174C1246.5 614.136 1249.1 614.251 1252.21 615.52C1255.21 616.788 1257 618.461 1257.58 620.537C1258.27 622.613 1258.21 625.035 1257.4 627.803H1273.15V621.056C1273.15 617.48 1274.07 615.001 1275.91 613.617C1277.76 612.117 1280.12 611.368 1283.01 611.368C1285.77 611.368 1288.08 612.117 1289.93 613.617C1291.77 615.001 1292.69 617.48 1292.69 621.056V627.803H1323.32C1326.31 627.803 1328.62 628.552 1330.24 630.052C1331.85 631.436 1332.66 633.8 1332.66 637.145C1332.66 643.373 1329.54 646.487 1323.32 646.487H1292.69V664.652H1332.31ZM1340.1 763.954C1340.1 767.875 1339.4 770.528 1338.02 771.912C1336.64 773.296 1334.04 773.988 1330.24 773.988H1253.42C1247.31 773.988 1242.01 773.584 1237.51 772.777C1233.12 772.085 1229.26 770.989 1225.92 769.49C1222.57 768.106 1219.63 766.376 1217.09 764.3C1214.67 762.339 1212.42 760.09 1210.35 757.553C1205.73 764.819 1200.14 770.585 1193.57 774.853C1190.57 776.813 1187.63 777.678 1184.74 777.448C1181.97 777.332 1179.78 775.948 1178.17 773.296C1176.21 770.297 1175.46 767.529 1175.92 764.992C1176.5 762.454 1178.98 759.917 1183.36 757.38C1185.09 756.342 1186.82 754.958 1188.55 753.228C1190.28 751.613 1191.84 749.768 1193.22 747.692C1194.6 745.616 1195.7 743.482 1196.51 741.291C1197.31 739.099 1197.72 736.966 1197.72 734.89V689.564C1197.72 687.603 1197.37 686.277 1196.68 685.585C1196.1 684.777 1194.95 684.374 1193.22 684.374H1185.26C1181.46 684.374 1178.86 683.566 1177.48 681.952C1176.09 680.222 1175.4 677.569 1175.4 673.994C1175.4 670.418 1176.09 667.881 1177.48 666.382C1178.86 664.882 1181.46 664.133 1185.26 664.133H1201.35C1204.58 664.133 1207.23 664.421 1209.31 664.998C1211.5 665.459 1213.23 666.439 1214.5 667.939C1215.77 669.323 1216.63 671.283 1217.09 673.821C1217.67 676.358 1217.96 679.587 1217.96 683.509V730.911C1217.96 731.833 1217.96 732.698 1217.96 733.506C1217.96 734.198 1217.9 734.89 1217.79 735.582C1220.09 739.272 1222.34 742.329 1224.53 744.751C1226.84 747.057 1229.32 748.903 1231.97 750.287C1234.74 751.671 1237.8 752.651 1241.14 753.228C1244.6 753.804 1248.69 754.093 1253.42 754.093H1330.24C1334.04 754.093 1336.64 754.842 1338.02 756.342C1339.4 757.841 1340.1 760.378 1340.1 763.954ZM1328.68 729.008C1328.68 735.582 1327.7 740.31 1325.74 743.194C1323.89 745.962 1320.78 747.346 1316.4 747.346H1245.81C1241.43 747.346 1238.26 745.846 1236.3 742.848C1234.34 739.849 1233.36 735.063 1233.36 728.489V707.556C1233.36 704.326 1233.76 701.731 1234.57 699.771C1235.49 697.695 1236.64 696.08 1238.03 694.927C1239.53 693.773 1241.2 693.024 1243.04 692.678C1245 692.216 1247.08 691.986 1249.27 691.986H1312.94C1317.32 691.986 1321.01 693.254 1324.01 695.792C1327.12 698.329 1328.68 702.827 1328.68 709.286V729.008ZM1252.9 724.856C1252.9 726.124 1253.02 726.932 1253.25 727.278C1253.48 727.508 1253.88 727.624 1254.46 727.624H1307.23C1308.26 727.624 1308.9 727.393 1309.13 726.932C1309.36 726.47 1309.48 725.605 1309.48 724.337V713.957C1309.48 712.919 1309.36 712.227 1309.13 711.881C1308.9 711.419 1308.26 711.189 1307.23 711.189H1254.81C1254 711.189 1253.48 711.362 1253.25 711.708C1253.02 712.054 1252.9 712.976 1252.9 714.476V724.856ZM1215.02 651.677C1212.36 653.868 1209.77 654.675 1207.23 654.099C1204.81 653.407 1202.27 651.388 1199.62 648.044C1198.24 646.544 1196.97 645.218 1195.81 644.065C1194.66 642.911 1193.51 641.758 1192.35 640.605C1191.32 639.451 1190.16 638.298 1188.89 637.145C1187.63 635.991 1186.18 634.665 1184.57 633.166C1182.03 630.744 1180.53 628.495 1180.07 626.419C1179.73 624.227 1180.76 621.748 1183.19 618.98C1185.26 616.904 1187.51 615.866 1189.93 615.866C1192.35 615.866 1195.18 617.192 1198.41 619.845C1201.64 622.613 1204.46 625.15 1206.89 627.457C1209.42 629.648 1212.19 632.358 1215.19 635.588C1217.73 638.471 1219.11 641.239 1219.34 643.892C1219.69 646.544 1218.19 649.197 1214.84 651.85L1215.02 651.677ZM1242.18 657.905C1240.1 661.249 1237.85 663.498 1235.43 664.652H1273.15V646.487H1249.1C1248.18 648.217 1247.14 650.004 1245.98 651.85C1244.95 653.58 1243.68 655.598 1242.18 657.905Z" fill="#1A73E8"/>
<path d="M1514.1 762.051C1514.1 758.591 1513.4 756.284 1512.02 755.131C1510.64 753.977 1508.04 753.401 1504.24 753.401H1441.61V737.312H1494.72C1498.53 737.312 1501.12 736.677 1502.51 735.409C1503.89 734.14 1504.58 731.776 1504.58 728.316C1504.58 724.856 1503.89 722.491 1502.51 721.223C1501.12 719.954 1498.53 719.32 1494.72 719.32H1441.61V714.822C1441.61 711.016 1440.69 708.421 1438.84 707.037C1437.11 705.653 1434.57 704.961 1431.23 704.961C1427.89 704.961 1425.29 705.653 1423.44 707.037C1421.71 708.421 1420.85 711.016 1420.85 714.822V719.32H1367.74C1363.93 719.32 1361.34 719.896 1359.95 721.05C1358.57 722.203 1357.88 724.51 1357.88 727.97C1357.88 731.43 1358.57 733.852 1359.95 735.236C1361.34 736.62 1363.93 737.312 1367.74 737.312H1420.85V753.401H1358.22C1354.42 753.401 1351.82 753.977 1350.44 755.131C1349.05 756.399 1348.36 758.764 1348.36 762.224C1348.36 765.684 1349.05 768.163 1350.44 769.663C1351.82 771.162 1354.42 771.912 1358.22 771.912H1504.24C1508.04 771.912 1510.64 771.104 1512.02 769.49C1513.4 767.99 1514.1 765.511 1514.1 762.051ZM1431.75 694.581C1431.75 698.041 1431 700.52 1429.5 702.02C1428.12 703.519 1425.81 704.269 1422.58 704.269C1419.47 704.269 1417.04 703.519 1415.31 702.02C1413.7 700.52 1412.89 698.041 1412.89 694.581V672.956H1393.34C1392.77 676.531 1392.19 679.703 1391.61 682.471C1391.04 685.123 1390.29 687.603 1389.36 689.91C1388.44 692.216 1387.35 694.465 1386.08 696.657C1384.92 698.848 1383.48 701.27 1381.75 703.923C1378.18 709.113 1374.95 711.938 1372.06 712.4C1369.18 712.861 1366.41 711.765 1363.76 709.113C1362.49 707.959 1361.51 706.864 1360.82 705.826C1360.24 704.788 1360.01 703.692 1360.13 702.539C1360.24 701.27 1360.76 699.828 1361.68 698.214C1362.61 696.599 1363.99 694.581 1365.84 692.159C1367.8 689.621 1369.41 686.969 1370.68 684.201C1372.06 681.433 1373.1 677.684 1373.79 672.956H1359.95C1356.49 672.956 1354.01 672.437 1352.51 671.399C1351.02 670.245 1350.27 667.996 1350.27 664.652C1350.27 661.653 1351.02 659.577 1352.51 658.424C1354.01 657.27 1356.49 656.694 1359.95 656.694H1375.7C1375.93 653.349 1376.04 650.35 1376.04 647.698C1376.04 644.93 1375.99 641.816 1375.87 638.356H1364.97C1361.16 638.356 1358.57 637.837 1357.19 636.799C1355.92 635.761 1355.28 633.569 1355.28 630.225C1355.28 626.995 1355.92 624.804 1357.19 623.651C1358.57 622.497 1361.16 621.921 1364.97 621.921H1434.17C1437.63 621.921 1440.11 622.497 1441.61 623.651C1443.11 624.689 1443.86 626.822 1443.86 630.052C1443.86 633.396 1443.11 635.645 1441.61 636.799C1440.11 637.837 1437.63 638.356 1434.17 638.356H1431.75V656.694H1438.67C1442.13 656.694 1444.61 657.27 1446.11 658.424C1447.61 659.462 1448.36 661.48 1448.36 664.479C1448.36 667.823 1447.61 670.072 1446.11 671.226C1444.61 672.379 1442.13 672.956 1438.67 672.956H1431.75V694.581ZM1502.85 685.412C1502.85 691.409 1502.39 696.195 1501.47 699.771C1500.55 703.346 1498.82 705.999 1496.28 707.729C1493.74 709.459 1490.17 710.324 1485.55 710.324C1480.94 710.208 1475 709.516 1467.73 708.248C1462.66 707.325 1459.54 705.653 1458.39 703.231C1457.35 700.693 1457.53 697.695 1458.91 694.235C1460.18 691.467 1462.02 690.025 1464.45 689.91C1466.98 689.679 1470.15 690.083 1473.96 691.121C1477.65 692.159 1480.25 692.332 1481.75 691.64C1483.25 690.948 1483.99 689.275 1483.99 686.623V621.575C1483.99 617.769 1484.69 615.231 1486.07 613.963C1487.57 612.579 1489.99 611.887 1493.34 611.887C1496.68 611.887 1499.1 612.579 1500.6 613.963C1502.22 615.231 1503.02 617.769 1503.02 621.575L1502.85 685.412ZM1470.85 675.897C1470.85 679.703 1470.15 682.298 1468.77 683.682C1467.39 684.95 1465.14 685.585 1462.02 685.585C1458.68 685.585 1456.2 684.95 1454.58 683.682C1453.09 682.298 1452.34 679.703 1452.34 675.897V632.993C1452.34 629.187 1453.09 626.649 1454.58 625.381C1456.2 623.997 1458.68 623.305 1462.02 623.305C1465.14 623.305 1467.39 623.997 1468.77 625.381C1470.15 626.649 1470.85 629.187 1470.85 632.993V675.897ZM1395.76 638.356C1395.65 641.7 1395.53 644.699 1395.42 647.352C1395.42 650.004 1395.3 653.118 1395.07 656.694H1412.89V638.356H1395.76Z" fill="#1A73E8"/>
<path d="M1686.02 735.928C1685.79 742.848 1685.1 748.499 1683.95 752.882C1682.79 757.38 1681 760.897 1678.58 763.435C1676.28 766.087 1673.22 768.048 1669.41 769.317C1665.72 770.585 1661.17 771.566 1655.75 772.258C1652.63 772.604 1648.54 772.892 1643.46 773.123C1638.5 773.469 1633.03 773.757 1627.03 773.988C1621.15 774.218 1614.98 774.391 1608.52 774.507C1602.17 774.622 1596.06 774.68 1590.18 774.68C1584.3 774.68 1578.93 774.622 1574.09 774.507C1569.36 774.391 1565.56 774.218 1562.67 773.988C1554.14 773.065 1548.14 770.874 1544.68 767.414C1541.34 763.954 1539.55 759.744 1539.32 754.785C1538.86 743.021 1544.1 733.736 1555.06 726.932C1567.17 719.666 1578.42 713.265 1588.8 707.729C1599.29 702.193 1609.44 697.464 1619.24 693.543C1621.78 692.505 1622.88 691.64 1622.53 690.948C1622.3 690.14 1620.74 689.737 1617.86 689.737H1546.58C1542.66 689.737 1540.01 689.045 1538.63 687.661C1537.24 686.277 1536.55 683.682 1536.55 679.876C1536.55 676.185 1537.24 673.532 1538.63 671.918C1540.01 670.303 1542.66 669.496 1546.58 669.496H1653.32C1658.17 669.496 1662.09 670.591 1665.09 672.783C1668.2 674.859 1669.76 677.8 1669.76 681.606C1669.76 682.99 1669.36 684.489 1668.55 686.104C1667.86 687.718 1666.88 689.333 1665.61 690.948C1664.34 692.447 1662.84 693.889 1661.11 695.273C1659.49 696.541 1657.71 697.579 1655.75 698.387C1647.44 701.962 1639.02 705.768 1630.49 709.805C1621.95 713.841 1613.82 717.878 1606.1 721.915C1598.37 725.836 1591.22 729.7 1584.64 733.506C1578.07 737.196 1572.53 740.599 1568.04 743.713C1566.07 744.981 1564.46 746.135 1563.19 747.173C1561.92 748.326 1561.12 749.306 1560.77 750.114C1560.54 751.036 1560.83 751.786 1561.63 752.363C1562.44 752.939 1564 753.285 1566.31 753.401C1568.38 753.631 1571.55 753.804 1575.82 753.92C1580.09 754.035 1584.99 754.093 1590.53 754.093C1595.83 754.093 1601.48 754.035 1607.48 753.92C1613.48 753.92 1619.19 753.804 1624.61 753.574C1630.14 753.458 1635.1 753.228 1639.48 752.882C1643.98 752.651 1647.38 752.363 1649.69 752.017C1652.57 751.555 1654.94 751.094 1656.78 750.633C1658.74 750.171 1660.3 749.422 1661.46 748.384C1662.61 747.346 1663.47 745.846 1664.05 743.886C1664.63 741.925 1665.03 739.215 1665.26 735.755C1665.61 730.449 1666.41 726.816 1667.68 724.856C1669.07 722.78 1671.84 721.742 1675.99 721.742C1680.14 721.742 1682.91 722.722 1684.29 724.683C1685.68 726.643 1686.25 730.392 1686.02 735.928ZM1583.09 630.225H1625.13V621.921C1625.13 618.576 1626.05 616.096 1627.89 614.482C1629.85 612.752 1632.33 611.887 1635.33 611.887C1638.33 611.887 1640.81 612.752 1642.77 614.482C1644.85 616.096 1645.89 618.576 1645.89 621.921V630.225H1675.47C1678.93 630.225 1681.47 631.147 1683.08 632.993C1684.81 634.723 1685.68 637.202 1685.68 640.432C1685.68 643.43 1684.75 645.91 1682.91 647.871C1681.18 649.716 1678.7 650.639 1675.47 650.639H1645.89V656.521C1645.89 659.865 1644.85 662.403 1642.77 664.133C1640.81 665.747 1638.33 666.555 1635.33 666.555C1632.33 666.555 1629.85 665.747 1627.89 664.133C1626.05 662.403 1625.13 659.865 1625.13 656.521V650.639H1583.09V657.213C1583.09 660.557 1582.11 663.095 1580.15 664.825C1578.3 666.439 1575.82 667.247 1572.71 667.247C1569.71 667.247 1567.23 666.439 1565.27 664.825C1563.42 663.095 1562.5 660.557 1562.5 657.213V650.639H1533.09C1529.74 650.639 1527.21 649.716 1525.48 647.871C1523.86 645.91 1523.06 643.43 1523.06 640.432C1523.06 637.202 1523.8 634.723 1525.3 632.993C1526.8 631.147 1529.4 630.225 1533.09 630.225H1562.5V621.921C1562.5 618.576 1563.42 616.096 1565.27 614.482C1567.23 612.752 1569.71 611.887 1572.71 611.887C1575.82 611.887 1578.3 612.752 1580.15 614.482C1582.11 616.096 1583.09 618.576 1583.09 621.921V630.225Z" fill="#1A73E8"/>
<path d="M1766.6 621.575C1766.6 619.614 1766.89 617.999 1767.47 616.731C1768.16 615.462 1769.02 614.424 1770.06 613.617C1771.1 612.809 1772.25 612.29 1773.52 612.06C1774.79 611.714 1776.06 611.541 1777.33 611.541C1780.1 611.541 1782.52 612.233 1784.59 613.617C1786.79 615.001 1787.88 617.653 1787.88 621.575V653.926H1847.57C1851.49 653.926 1854.14 654.964 1855.52 657.04C1856.91 659 1857.6 661.422 1857.6 664.306C1857.6 667.074 1856.91 669.438 1855.52 671.399C1854.14 673.359 1851.49 674.34 1847.57 674.34H1789.61C1798.38 686.45 1807.6 697.522 1817.29 707.556C1826.98 717.474 1838.17 727.162 1850.85 736.62C1855.58 740.08 1858.23 743.309 1858.81 746.308C1859.5 749.191 1858.75 752.19 1856.56 755.304C1854.02 758.418 1851.37 759.859 1848.6 759.629C1845.95 759.513 1842.49 757.726 1838.22 754.266H1838.4C1826.75 744.578 1816.94 735.639 1808.99 727.451C1801.03 719.147 1793.99 710.727 1787.88 702.193V768.625C1787.88 772.431 1786.79 775.026 1784.59 776.41C1782.52 777.794 1780.1 778.486 1777.33 778.486C1774.91 778.486 1772.48 777.794 1770.06 776.41C1767.76 775.026 1766.6 772.431 1766.6 768.625V702.885C1759.91 712.573 1752.42 721.857 1744.11 730.738C1735.81 739.618 1726.06 748.614 1714.87 757.726C1711.41 760.378 1708.19 761.532 1705.19 761.186C1702.19 760.84 1699.65 759.283 1697.57 756.515C1695.84 753.977 1695.27 751.267 1695.84 748.384C1696.42 745.616 1698.73 742.732 1702.76 739.734C1712.57 732.468 1722.83 723.299 1733.56 712.227C1744.28 701.039 1754.26 688.41 1763.49 674.34H1708.47C1704.32 674.34 1701.61 673.359 1700.34 671.399C1699.07 669.438 1698.44 667.074 1698.44 664.306C1698.44 661.422 1699.07 659 1700.34 657.04C1701.61 654.964 1704.32 653.926 1708.47 653.926H1766.6V621.575ZM1818.5 645.968C1816.08 643.661 1813.66 641.585 1811.24 639.74C1808.93 637.894 1805.87 635.588 1802.07 632.82C1798.84 630.282 1797.05 627.86 1796.7 625.554C1796.47 623.247 1797.28 621.056 1799.13 618.98C1801.43 616.212 1803.68 614.828 1805.87 614.828C1808.18 614.712 1810.54 615.52 1812.97 617.25C1815.04 618.634 1816.89 619.96 1818.5 621.229C1820.12 622.382 1821.67 623.535 1823.17 624.689C1824.67 625.842 1826.17 627.053 1827.67 628.322C1829.29 629.59 1831.07 631.032 1833.03 632.647C1835.69 634.838 1837.19 637.202 1837.53 639.74C1837.99 642.277 1837.07 644.93 1834.76 647.698C1832.8 650.12 1830.44 651.273 1827.67 651.158C1825.02 651.042 1821.96 649.312 1818.5 645.968Z" fill="#1A73E8"/>
<path d="M50.5114 381.182H57.1165L61.3778 390.045H61.5483L65.8097 381.182H72.4148L64.4034 396.139V403H58.5227V396.139L50.5114 381.182ZM83.8406 395.841V386.636H89.7212V403H84.1388V399.889H83.9684C83.6133 400.933 82.9918 401.75 82.104 402.339C81.2163 402.922 80.1616 403.213 78.94 403.213C77.7965 403.213 76.7951 402.95 75.9357 402.425C75.0835 401.899 74.4194 401.175 73.9435 400.251C73.4748 399.328 73.2369 398.27 73.2298 397.077V386.636H79.1104V395.841C79.1175 396.651 79.3235 397.286 79.7283 397.748C80.1403 398.21 80.7156 398.44 81.4542 398.44C81.9442 398.44 82.3668 398.337 82.7219 398.131C83.0842 397.918 83.3612 397.62 83.5529 397.237C83.7518 396.846 83.8477 396.381 83.8406 395.841ZM97.2718 403.256C96.2278 403.256 95.3045 403.085 94.502 402.744C93.7065 402.396 93.0815 401.871 92.627 401.168C92.1724 400.464 91.9451 399.57 91.9451 398.483C91.9451 397.588 92.0978 396.825 92.4032 396.192C92.7086 395.553 93.1348 395.031 93.6816 394.626C94.2285 394.222 94.8642 393.913 95.5886 393.7C96.3201 393.487 97.1085 393.348 97.9537 393.284C98.8699 393.213 99.6049 393.128 100.159 393.028C100.72 392.922 101.125 392.776 101.373 392.592C101.622 392.4 101.746 392.148 101.746 391.835V391.793C101.746 391.366 101.583 391.04 101.256 390.812C100.93 390.585 100.51 390.472 99.9991 390.472C99.438 390.472 98.9799 390.596 98.6248 390.844C98.2768 391.086 98.0673 391.459 97.9963 391.963H92.5843C92.6554 390.969 92.9714 390.053 93.5325 389.214C94.1007 388.369 94.9281 387.695 96.0147 387.19C97.1014 386.679 98.4579 386.423 100.084 386.423C101.256 386.423 102.307 386.562 103.238 386.839C104.168 387.109 104.96 387.489 105.613 387.979C106.267 388.462 106.764 389.03 107.105 389.683C107.453 390.33 107.627 391.033 107.627 391.793V403H102.13V400.699H102.002C101.675 401.31 101.278 401.803 100.809 402.18C100.347 402.556 99.818 402.83 99.2214 403C98.6319 403.17 97.9821 403.256 97.2718 403.256ZM99.1895 399.548C99.6369 399.548 100.056 399.456 100.447 399.271C100.844 399.087 101.167 398.82 101.416 398.472C101.665 398.124 101.789 397.702 101.789 397.205V395.841C101.633 395.905 101.466 395.965 101.288 396.022C101.118 396.079 100.933 396.132 100.734 396.182C100.542 396.232 100.336 396.278 100.116 396.32C99.9032 396.363 99.6795 396.402 99.4451 396.438C98.9906 396.509 98.6177 396.626 98.3265 396.789C98.0424 396.945 97.8294 397.141 97.6873 397.375C97.5524 397.602 97.4849 397.858 97.4849 398.142C97.4849 398.597 97.6447 398.945 97.9643 399.186C98.2839 399.428 98.6923 399.548 99.1895 399.548ZM116.317 393.795V403H110.437V386.636H116.019V389.747H116.19C116.545 388.71 117.17 387.897 118.065 387.308C118.967 386.718 120.018 386.423 121.218 386.423C122.376 386.423 123.381 386.69 124.233 387.222C125.092 387.748 125.756 388.472 126.225 389.396C126.701 390.319 126.935 391.374 126.928 392.56V403H121.048V393.795C121.055 392.986 120.849 392.35 120.43 391.888C120.018 391.427 119.442 391.196 118.704 391.196C118.221 391.196 117.798 391.303 117.436 391.516C117.081 391.722 116.808 392.02 116.616 392.411C116.424 392.794 116.325 393.256 116.317 393.795ZM139.59 386.636V390.898H128.809V386.636H139.59ZM130.897 382.716H136.777V397.737C136.777 397.964 136.816 398.156 136.895 398.312C136.973 398.462 137.093 398.575 137.257 398.653C137.42 398.724 137.63 398.76 137.885 398.76C138.063 398.76 138.269 398.739 138.503 398.696C138.745 398.653 138.922 398.618 139.036 398.589L139.888 402.723C139.625 402.801 139.249 402.897 138.759 403.011C138.276 403.124 137.701 403.199 137.033 403.234C135.684 403.305 134.551 403.167 133.635 402.819C132.718 402.464 132.029 401.906 131.568 401.146C131.106 400.386 130.882 399.435 130.897 398.291V382.716ZM141.99 403V386.636H147.87V403H141.99ZM144.93 384.932C144.134 384.932 143.453 384.669 142.884 384.143C142.316 383.618 142.032 382.986 142.032 382.247C142.032 381.509 142.316 380.876 142.884 380.351C143.453 379.825 144.134 379.562 144.93 379.562C145.732 379.562 146.414 379.825 146.975 380.351C147.544 380.876 147.828 381.509 147.828 382.247C147.828 382.986 147.544 383.618 146.975 384.143C146.414 384.669 145.732 384.932 144.93 384.932ZM168.519 388C168.462 387.29 168.196 386.736 167.72 386.338C167.251 385.94 166.538 385.741 165.579 385.741C164.968 385.741 164.467 385.816 164.077 385.965C163.693 386.107 163.409 386.303 163.224 386.551C163.04 386.8 162.944 387.084 162.937 387.403C162.923 387.666 162.969 387.904 163.075 388.117C163.189 388.323 163.366 388.511 163.608 388.682C163.849 388.845 164.158 388.994 164.535 389.129C164.911 389.264 165.359 389.385 165.877 389.491L167.667 389.875C168.874 390.131 169.908 390.468 170.767 390.887C171.626 391.306 172.33 391.8 172.876 392.368C173.423 392.929 173.825 393.561 174.08 394.264C174.343 394.967 174.478 395.734 174.485 396.565C174.478 398 174.119 399.214 173.409 400.209C172.699 401.203 171.683 401.96 170.362 402.478C169.048 402.996 167.468 403.256 165.621 403.256C163.725 403.256 162.07 402.975 160.657 402.414C159.251 401.853 158.157 400.99 157.376 399.825C156.602 398.653 156.211 397.155 156.204 395.33H161.829C161.864 395.997 162.031 396.558 162.33 397.013C162.628 397.467 163.047 397.812 163.587 398.046C164.134 398.281 164.783 398.398 165.536 398.398C166.168 398.398 166.697 398.32 167.124 398.163C167.55 398.007 167.873 397.79 168.093 397.513C168.313 397.237 168.427 396.92 168.434 396.565C168.427 396.232 168.317 395.94 168.104 395.692C167.898 395.436 167.557 395.209 167.081 395.01C166.605 394.804 165.962 394.612 165.153 394.435L162.979 393.966C161.048 393.547 159.524 392.847 158.409 391.867C157.301 390.88 156.751 389.534 156.758 387.83C156.751 386.445 157.12 385.234 157.866 384.197C158.619 383.153 159.659 382.339 160.987 381.757C162.322 381.175 163.853 380.884 165.579 380.884C167.34 380.884 168.864 381.178 170.149 381.768C171.435 382.357 172.425 383.188 173.121 384.261C173.825 385.326 174.18 386.572 174.187 388H168.519ZM197.108 389.364H191.099C191.056 388.866 190.943 388.415 190.758 388.011C190.581 387.606 190.332 387.258 190.012 386.967C189.7 386.668 189.32 386.441 188.873 386.285C188.425 386.121 187.917 386.04 187.349 386.04C186.355 386.04 185.513 386.281 184.824 386.764C184.142 387.247 183.624 387.94 183.269 388.842C182.921 389.744 182.747 390.827 182.747 392.091C182.747 393.426 182.924 394.545 183.279 395.447C183.642 396.342 184.164 397.016 184.846 397.471C185.527 397.918 186.348 398.142 187.306 398.142C187.853 398.142 188.343 398.075 188.777 397.94C189.21 397.798 189.586 397.595 189.906 397.332C190.225 397.07 190.485 396.754 190.684 396.384C190.89 396.008 191.028 395.585 191.099 395.116L197.108 395.159C197.037 396.082 196.777 397.023 196.33 397.982C195.882 398.934 195.247 399.815 194.423 400.624C193.606 401.427 192.594 402.073 191.387 402.563C190.179 403.053 188.777 403.298 187.179 403.298C185.176 403.298 183.379 402.869 181.788 402.009C180.204 401.15 178.951 399.886 178.027 398.217C177.111 396.548 176.653 394.506 176.653 392.091C176.653 389.662 177.122 387.616 178.059 385.955C178.997 384.286 180.261 383.025 181.852 382.173C183.443 381.313 185.218 380.884 187.179 380.884C188.556 380.884 189.824 381.072 190.982 381.448C192.14 381.825 193.155 382.375 194.029 383.099C194.902 383.817 195.605 384.701 196.138 385.752C196.671 386.803 196.994 388.007 197.108 389.364ZM205.771 403V381.182H211.695V398.227H220.516V403H205.771ZM222.995 403V386.636H228.876V403H222.995ZM225.936 384.932C225.14 384.932 224.458 384.669 223.89 384.143C223.322 383.618 223.038 382.986 223.038 382.247C223.038 381.509 223.322 380.876 223.89 380.351C224.458 379.825 225.14 379.562 225.936 379.562C226.738 379.562 227.42 379.825 227.981 380.351C228.549 380.876 228.833 381.509 228.833 382.247C228.833 382.986 228.549 383.618 227.981 384.143C227.42 384.669 226.738 384.932 225.936 384.932ZM239.756 409.477C238.115 409.477 236.709 409.243 235.537 408.774C234.372 408.312 233.467 407.673 232.82 406.857C232.181 406.047 231.823 405.116 231.744 404.065H237.412C237.469 404.413 237.611 404.694 237.838 404.907C238.066 405.12 238.357 405.273 238.712 405.365C239.074 405.464 239.479 405.514 239.926 405.514C240.686 405.514 241.315 405.33 241.812 404.96C242.316 404.591 242.568 403.923 242.568 402.957V400.188H242.398C242.185 400.741 241.858 401.214 241.418 401.604C240.977 401.988 240.448 402.283 239.83 402.489C239.213 402.687 238.534 402.787 237.796 402.787C236.631 402.787 235.558 402.517 234.578 401.977C233.605 401.437 232.824 400.582 232.235 399.41C231.652 398.238 231.361 396.707 231.361 394.818C231.361 392.844 231.666 391.239 232.277 390.003C232.895 388.767 233.691 387.862 234.664 387.286C235.644 386.711 236.673 386.423 237.753 386.423C238.563 386.423 239.273 386.565 239.884 386.849C240.494 387.126 241.006 387.499 241.418 387.968C241.83 388.43 242.142 388.937 242.355 389.491H242.483V386.636H248.364V402.957C248.364 404.342 248.005 405.518 247.288 406.484C246.578 407.457 245.576 408.199 244.284 408.71C242.991 409.222 241.482 409.477 239.756 409.477ZM239.969 398.611C240.509 398.611 240.97 398.462 241.354 398.163C241.744 397.858 242.043 397.425 242.249 396.864C242.462 396.295 242.568 395.614 242.568 394.818C242.568 394.009 242.462 393.316 242.249 392.741C242.043 392.158 241.744 391.714 241.354 391.409C240.97 391.097 240.509 390.94 239.969 390.94C239.429 390.94 238.968 391.097 238.584 391.409C238.208 391.714 237.916 392.158 237.71 392.741C237.512 393.316 237.412 394.009 237.412 394.818C237.412 395.628 237.512 396.317 237.71 396.885C237.916 397.446 238.208 397.876 238.584 398.174C238.968 398.465 239.429 398.611 239.969 398.611ZM257.235 393.795V403H251.355V381.182H257.022V389.747H257.193C257.562 388.703 258.176 387.89 259.036 387.308C259.895 386.718 260.929 386.423 262.136 386.423C263.294 386.423 264.299 386.686 265.151 387.212C266.01 387.737 266.674 388.462 267.143 389.385C267.619 390.308 267.853 391.366 267.846 392.56V403H261.966V393.795C261.973 392.986 261.77 392.35 261.358 391.888C260.953 391.427 260.375 391.196 259.622 391.196C259.146 391.196 258.727 391.303 258.365 391.516C258.01 391.722 257.733 392.02 257.534 392.411C257.342 392.794 257.243 393.256 257.235 393.795ZM280.508 386.636V390.898H269.727V386.636H280.508ZM271.815 382.716H277.695V397.737C277.695 397.964 277.734 398.156 277.812 398.312C277.891 398.462 278.011 398.575 278.175 398.653C278.338 398.724 278.548 398.76 278.803 398.76C278.981 398.76 279.187 398.739 279.421 398.696C279.663 398.653 279.84 398.618 279.954 398.589L280.806 402.723C280.543 402.801 280.167 402.897 279.677 403.011C279.194 403.124 278.619 403.199 277.951 403.234C276.602 403.305 275.469 403.167 274.553 402.819C273.636 402.464 272.947 401.906 272.486 401.146C272.024 400.386 271.8 399.435 271.815 398.291V382.716Z" fill="#FF6D7F"/>
<path d="M50.5114 666.182H57.1165L61.3778 675.045H61.5483L65.8097 666.182H72.4148L64.4034 681.139V688H58.5227V681.139L50.5114 666.182ZM83.8406 680.841V671.636H89.7212V688H84.1388V684.889H83.9684C83.6133 685.933 82.9918 686.75 82.104 687.339C81.2163 687.922 80.1616 688.213 78.94 688.213C77.7965 688.213 76.7951 687.95 75.9357 687.425C75.0835 686.899 74.4194 686.175 73.9435 685.251C73.4748 684.328 73.2369 683.27 73.2298 682.077V671.636H79.1104V680.841C79.1175 681.651 79.3235 682.286 79.7283 682.748C80.1403 683.21 80.7156 683.44 81.4542 683.44C81.9442 683.44 82.3668 683.337 82.7219 683.131C83.0842 682.918 83.3612 682.62 83.5529 682.237C83.7518 681.846 83.8477 681.381 83.8406 680.841ZM97.2718 688.256C96.2278 688.256 95.3045 688.085 94.502 687.744C93.7065 687.396 93.0815 686.871 92.627 686.168C92.1724 685.464 91.9451 684.57 91.9451 683.483C91.9451 682.588 92.0978 681.825 92.4032 681.192C92.7086 680.553 93.1348 680.031 93.6816 679.626C94.2285 679.222 94.8642 678.913 95.5886 678.7C96.3201 678.487 97.1085 678.348 97.9537 678.284C98.8699 678.213 99.6049 678.128 100.159 678.028C100.72 677.922 101.125 677.776 101.373 677.592C101.622 677.4 101.746 677.148 101.746 676.835V676.793C101.746 676.366 101.583 676.04 101.256 675.812C100.93 675.585 100.51 675.472 99.9991 675.472C99.438 675.472 98.9799 675.596 98.6248 675.844C98.2768 676.086 98.0673 676.459 97.9963 676.963H92.5843C92.6554 675.969 92.9714 675.053 93.5325 674.214C94.1007 673.369 94.9281 672.695 96.0147 672.19C97.1014 671.679 98.4579 671.423 100.084 671.423C101.256 671.423 102.307 671.562 103.238 671.839C104.168 672.109 104.96 672.489 105.613 672.979C106.267 673.462 106.764 674.03 107.105 674.683C107.453 675.33 107.627 676.033 107.627 676.793V688H102.13V685.699H102.002C101.675 686.31 101.278 686.803 100.809 687.18C100.347 687.556 99.818 687.83 99.2214 688C98.6319 688.17 97.9821 688.256 97.2718 688.256ZM99.1895 684.548C99.6369 684.548 100.056 684.456 100.447 684.271C100.844 684.087 101.167 683.82 101.416 683.472C101.665 683.124 101.789 682.702 101.789 682.205V680.841C101.633 680.905 101.466 680.965 101.288 681.022C101.118 681.079 100.933 681.132 100.734 681.182C100.542 681.232 100.336 681.278 100.116 681.32C99.9032 681.363 99.6795 681.402 99.4451 681.438C98.9906 681.509 98.6177 681.626 98.3265 681.789C98.0424 681.945 97.8294 682.141 97.6873 682.375C97.5524 682.602 97.4849 682.858 97.4849 683.142C97.4849 683.597 97.6447 683.945 97.9643 684.186C98.2839 684.428 98.6923 684.548 99.1895 684.548ZM116.317 678.795V688H110.437V671.636H116.019V674.747H116.19C116.545 673.71 117.17 672.897 118.065 672.308C118.967 671.718 120.018 671.423 121.218 671.423C122.376 671.423 123.381 671.69 124.233 672.222C125.092 672.748 125.756 673.472 126.225 674.396C126.701 675.319 126.935 676.374 126.928 677.56V688H121.048V678.795C121.055 677.986 120.849 677.35 120.43 676.888C120.018 676.427 119.442 676.196 118.704 676.196C118.221 676.196 117.798 676.303 117.436 676.516C117.081 676.722 116.808 677.02 116.616 677.411C116.424 677.794 116.325 678.256 116.317 678.795ZM139.59 671.636V675.898H128.809V671.636H139.59ZM130.897 667.716H136.777V682.737C136.777 682.964 136.816 683.156 136.895 683.312C136.973 683.462 137.093 683.575 137.257 683.653C137.42 683.724 137.63 683.76 137.885 683.76C138.063 683.76 138.269 683.739 138.503 683.696C138.745 683.653 138.922 683.618 139.036 683.589L139.888 687.723C139.625 687.801 139.249 687.897 138.759 688.011C138.276 688.124 137.701 688.199 137.033 688.234C135.684 688.305 134.551 688.167 133.635 687.819C132.718 687.464 132.029 686.906 131.568 686.146C131.106 685.386 130.882 684.435 130.897 683.291V667.716ZM141.99 688V671.636H147.87V688H141.99ZM144.93 669.932C144.134 669.932 143.453 669.669 142.884 669.143C142.316 668.618 142.032 667.986 142.032 667.247C142.032 666.509 142.316 665.876 142.884 665.351C143.453 664.825 144.134 664.562 144.93 664.562C145.732 664.562 146.414 664.825 146.975 665.351C147.544 665.876 147.828 666.509 147.828 667.247C147.828 667.986 147.544 668.618 146.975 669.143C146.414 669.669 145.732 669.932 144.93 669.932ZM168.519 673C168.462 672.29 168.196 671.736 167.72 671.338C167.251 670.94 166.538 670.741 165.579 670.741C164.968 670.741 164.467 670.816 164.077 670.965C163.693 671.107 163.409 671.303 163.224 671.551C163.04 671.8 162.944 672.084 162.937 672.403C162.923 672.666 162.969 672.904 163.075 673.117C163.189 673.323 163.366 673.511 163.608 673.682C163.849 673.845 164.158 673.994 164.535 674.129C164.911 674.264 165.359 674.385 165.877 674.491L167.667 674.875C168.874 675.131 169.908 675.468 170.767 675.887C171.626 676.306 172.33 676.8 172.876 677.368C173.423 677.929 173.825 678.561 174.08 679.264C174.343 679.967 174.478 680.734 174.485 681.565C174.478 683 174.119 684.214 173.409 685.209C172.699 686.203 171.683 686.96 170.362 687.478C169.048 687.996 167.468 688.256 165.621 688.256C163.725 688.256 162.07 687.975 160.657 687.414C159.251 686.853 158.157 685.99 157.376 684.825C156.602 683.653 156.211 682.155 156.204 680.33H161.829C161.864 680.997 162.031 681.558 162.33 682.013C162.628 682.467 163.047 682.812 163.587 683.046C164.134 683.281 164.783 683.398 165.536 683.398C166.168 683.398 166.697 683.32 167.124 683.163C167.55 683.007 167.873 682.79 168.093 682.513C168.313 682.237 168.427 681.92 168.434 681.565C168.427 681.232 168.317 680.94 168.104 680.692C167.898 680.436 167.557 680.209 167.081 680.01C166.605 679.804 165.962 679.612 165.153 679.435L162.979 678.966C161.048 678.547 159.524 677.847 158.409 676.867C157.301 675.88 156.751 674.534 156.758 672.83C156.751 671.445 157.12 670.234 157.866 669.197C158.619 668.153 159.659 667.339 160.987 666.757C162.322 666.175 163.853 665.884 165.579 665.884C167.34 665.884 168.864 666.178 170.149 666.768C171.435 667.357 172.425 668.188 173.121 669.261C173.825 670.326 174.18 671.572 174.187 673H168.519ZM197.108 674.364H191.099C191.056 673.866 190.943 673.415 190.758 673.011C190.581 672.606 190.332 672.258 190.012 671.967C189.7 671.668 189.32 671.441 188.873 671.285C188.425 671.121 187.917 671.04 187.349 671.04C186.355 671.04 185.513 671.281 184.824 671.764C184.142 672.247 183.624 672.94 183.269 673.842C182.921 674.744 182.747 675.827 182.747 677.091C182.747 678.426 182.924 679.545 183.279 680.447C183.642 681.342 184.164 682.016 184.846 682.471C185.527 682.918 186.348 683.142 187.306 683.142C187.853 683.142 188.343 683.075 188.777 682.94C189.21 682.798 189.586 682.595 189.906 682.332C190.225 682.07 190.485 681.754 190.684 681.384C190.89 681.008 191.028 680.585 191.099 680.116L197.108 680.159C197.037 681.082 196.777 682.023 196.33 682.982C195.882 683.934 195.247 684.815 194.423 685.624C193.606 686.427 192.594 687.073 191.387 687.563C190.179 688.053 188.777 688.298 187.179 688.298C185.176 688.298 183.379 687.869 181.788 687.009C180.204 686.15 178.951 684.886 178.027 683.217C177.111 681.548 176.653 679.506 176.653 677.091C176.653 674.662 177.122 672.616 178.059 670.955C178.997 669.286 180.261 668.025 181.852 667.173C183.443 666.313 185.218 665.884 187.179 665.884C188.556 665.884 189.824 666.072 190.982 666.448C192.14 666.825 193.155 667.375 194.029 668.099C194.902 668.817 195.605 669.701 196.138 670.752C196.671 671.803 196.994 673.007 197.108 674.364ZM205.771 688V666.182H215.232C216.894 666.182 218.289 666.406 219.419 666.853C220.555 667.3 221.411 667.933 221.986 668.749C222.568 669.566 222.86 670.528 222.86 671.636C222.86 672.439 222.682 673.17 222.327 673.831C221.979 674.491 221.489 675.045 220.857 675.493C220.225 675.933 219.486 676.239 218.641 676.409V676.622C219.578 676.658 220.431 676.896 221.198 677.336C221.965 677.769 222.575 678.369 223.03 679.136C223.485 679.896 223.712 680.791 223.712 681.821C223.712 683.014 223.399 684.076 222.774 685.006C222.156 685.937 221.276 686.668 220.132 687.201C218.989 687.734 217.625 688 216.041 688H205.771ZM211.695 683.27H214.465C215.459 683.27 216.205 683.085 216.702 682.716C217.199 682.339 217.448 681.786 217.448 681.054C217.448 680.543 217.33 680.109 217.096 679.754C216.862 679.399 216.528 679.129 216.095 678.945C215.669 678.76 215.154 678.668 214.55 678.668H211.695V683.27ZM211.695 675.003H214.124C214.642 675.003 215.1 674.921 215.498 674.758C215.896 674.594 216.205 674.36 216.425 674.055C216.652 673.742 216.766 673.362 216.766 672.915C216.766 672.24 216.524 671.725 216.041 671.37C215.558 671.008 214.948 670.827 214.209 670.827H211.695V675.003ZM233.779 688.298C232.004 688.298 230.484 687.947 229.22 687.244C227.955 686.533 226.986 685.546 226.311 684.282C225.637 683.011 225.299 681.537 225.299 679.861C225.299 678.185 225.637 676.714 226.311 675.45C226.986 674.179 227.955 673.192 229.22 672.489C230.484 671.778 232.004 671.423 233.779 671.423C235.555 671.423 237.075 671.778 238.339 672.489C239.603 673.192 240.573 674.179 241.247 675.45C241.922 676.714 242.259 678.185 242.259 679.861C242.259 681.537 241.922 683.011 241.247 684.282C240.573 685.546 239.603 686.533 238.339 687.244C237.075 687.947 235.555 688.298 233.779 688.298ZM233.822 683.952C234.319 683.952 234.749 683.785 235.111 683.451C235.473 683.117 235.754 682.641 235.953 682.023C236.151 681.406 236.251 680.67 236.251 679.818C236.251 678.959 236.151 678.224 235.953 677.613C235.754 676.995 235.473 676.519 235.111 676.185C234.749 675.852 234.319 675.685 233.822 675.685C233.296 675.685 232.845 675.852 232.469 676.185C232.093 676.519 231.805 676.995 231.606 677.613C231.407 678.224 231.308 678.959 231.308 679.818C231.308 680.67 231.407 681.406 231.606 682.023C231.805 682.641 232.093 683.117 232.469 683.451C232.845 683.785 233.296 683.952 233.822 683.952ZM250.526 666.182V688H244.646V666.182H250.526ZM259.446 688.213C258.281 688.213 257.209 687.908 256.229 687.297C255.256 686.686 254.474 685.759 253.885 684.516C253.303 683.273 253.011 681.707 253.011 679.818C253.011 677.844 253.317 676.239 253.928 675.003C254.545 673.767 255.341 672.862 256.314 672.286C257.294 671.711 258.324 671.423 259.403 671.423C260.213 671.423 260.923 671.565 261.534 671.849C262.145 672.126 262.656 672.499 263.068 672.968C263.48 673.43 263.793 673.937 264.006 674.491H264.091V666.182H269.972V688H264.134V685.315H264.006C263.778 685.869 263.452 686.366 263.026 686.807C262.607 687.24 262.095 687.585 261.491 687.84C260.895 688.089 260.213 688.213 259.446 688.213ZM261.619 683.696C262.159 683.696 262.621 683.54 263.004 683.227C263.395 682.908 263.693 682.46 263.899 681.885C264.112 681.303 264.219 680.614 264.219 679.818C264.219 679.009 264.112 678.316 263.899 677.741C263.693 677.158 263.395 676.714 263.004 676.409C262.621 676.097 262.159 675.94 261.619 675.94C261.08 675.94 260.618 676.097 260.234 676.409C259.858 676.714 259.567 677.158 259.361 677.741C259.162 678.316 259.062 679.009 259.062 679.818C259.062 680.628 259.162 681.324 259.361 681.906C259.567 682.482 259.858 682.925 260.234 683.238C260.618 683.543 261.08 683.696 261.619 683.696ZM52.397 714.182H56.392L63.3381 731.142H63.5938L70.5398 714.182H74.5348V736H71.4027V720.212H71.2003L64.7656 735.968H62.1662L55.7315 720.201H55.5291V736H52.397V714.182ZM83.8272 736.362C82.7903 736.362 81.8528 736.17 81.0147 735.787C80.1767 735.396 79.5126 734.832 79.0225 734.093C78.5396 733.354 78.2981 732.449 78.2981 731.376C78.2981 730.453 78.4757 729.693 78.8308 729.097C79.1859 728.5 79.6653 728.028 80.269 727.68C80.8727 727.332 81.5474 727.069 82.2931 726.891C83.0389 726.714 83.7988 726.579 84.573 726.487C85.5531 726.373 86.3485 726.281 86.9593 726.21C87.5701 726.131 88.014 726.007 88.291 725.837C88.568 725.666 88.7065 725.389 88.7065 725.006V724.931C88.7065 724.001 88.4437 723.28 87.9181 722.768C87.3997 722.257 86.6255 722.001 85.5957 722.001C84.5233 722.001 83.6781 722.239 83.0602 722.715C82.4494 723.184 82.0268 723.706 81.7924 724.281L78.7988 723.599C79.1539 722.605 79.6724 721.803 80.3542 721.192C81.0431 720.574 81.835 720.126 82.7299 719.849C83.6248 719.565 84.5659 719.423 85.5531 719.423C86.2065 719.423 86.899 719.501 87.6305 719.658C88.3691 719.807 89.0581 720.084 89.6973 720.489C90.3436 720.893 90.8727 721.472 91.2846 722.225C91.6966 722.971 91.9025 723.94 91.9025 725.134V736H88.7917V733.763H88.6639C88.4579 734.175 88.149 734.58 87.737 734.977C87.3251 735.375 86.796 735.705 86.1497 735.968C85.5034 736.231 84.7292 736.362 83.8272 736.362ZM84.5197 733.805C85.4004 733.805 86.1532 733.631 86.7782 733.283C87.4103 732.935 87.8897 732.481 88.2164 731.92C88.5502 731.352 88.7172 730.744 88.7172 730.098V727.989C88.6035 728.102 88.3833 728.209 88.0566 728.308C87.737 728.401 87.3713 728.482 86.9593 728.553C86.5474 728.617 86.1461 728.678 85.7555 728.734C85.3649 728.784 85.0382 728.827 84.7754 728.862C84.1575 728.94 83.5929 729.072 83.0815 729.256C82.5772 729.441 82.1724 729.707 81.867 730.055C81.5687 730.396 81.4196 730.851 81.4196 731.419C81.4196 732.207 81.7108 732.804 82.2931 733.209C82.8755 733.607 83.6177 733.805 84.5197 733.805ZM103.038 736.33C101.454 736.33 100.091 735.972 98.9471 735.254C97.8107 734.53 96.9371 733.532 96.3263 732.261C95.7156 730.989 95.4102 729.533 95.4102 727.893C95.4102 726.231 95.7227 724.764 96.3477 723.493C96.9727 722.214 97.8533 721.217 98.9897 720.499C100.126 719.782 101.465 719.423 103.006 719.423C104.249 719.423 105.357 719.654 106.33 720.116C107.303 720.57 108.088 721.21 108.684 722.033C109.288 722.857 109.647 723.82 109.76 724.92H106.66C106.49 724.153 106.099 723.493 105.488 722.939C104.885 722.385 104.075 722.108 103.059 722.108C102.172 722.108 101.394 722.342 100.726 722.811C100.066 723.273 99.5508 723.933 99.1815 724.793C98.8121 725.645 98.6275 726.653 98.6275 727.818C98.6275 729.011 98.8086 730.041 99.1708 730.908C99.533 731.774 100.044 732.445 100.705 732.921C101.373 733.397 102.157 733.635 103.059 733.635C103.663 733.635 104.21 733.525 104.7 733.305C105.197 733.077 105.613 732.754 105.946 732.335C106.287 731.916 106.525 731.412 106.66 730.822H109.76C109.647 731.881 109.302 732.825 108.727 733.656C108.152 734.487 107.381 735.141 106.415 735.616C105.456 736.092 104.331 736.33 103.038 736.33ZM113.167 736V719.636H116.352V736H113.167ZM114.775 717.112C114.221 717.112 113.746 716.927 113.348 716.558C112.957 716.181 112.762 715.734 112.762 715.215C112.762 714.69 112.957 714.242 113.348 713.873C113.746 713.496 114.221 713.308 114.775 713.308C115.329 713.308 115.802 713.496 116.192 713.873C116.59 714.242 116.789 714.69 116.789 715.215C116.789 715.734 116.59 716.181 116.192 716.558C115.802 716.927 115.329 717.112 114.775 717.112ZM123.823 726.284V736H120.637V719.636H123.695V722.3H123.897C124.274 721.433 124.863 720.737 125.666 720.212C126.475 719.686 127.495 719.423 128.723 719.423C129.838 719.423 130.815 719.658 131.653 720.126C132.491 720.588 133.141 721.277 133.603 722.193C134.064 723.109 134.295 724.242 134.295 725.592V736H131.11V725.975C131.11 724.789 130.801 723.862 130.183 723.195C129.565 722.52 128.716 722.183 127.637 722.183C126.898 722.183 126.241 722.342 125.666 722.662C125.098 722.982 124.647 723.45 124.313 724.068C123.986 724.679 123.823 725.418 123.823 726.284ZM146.206 719.636V722.193H137.267V719.636H146.206ZM139.664 715.716H142.85V731.195C142.85 731.813 142.942 732.278 143.127 732.591C143.311 732.896 143.549 733.106 143.841 733.219C144.139 733.326 144.462 733.379 144.81 733.379C145.066 733.379 145.289 733.362 145.481 733.326C145.673 733.29 145.822 733.262 145.929 733.241L146.504 735.872C146.319 735.943 146.056 736.014 145.716 736.085C145.375 736.163 144.949 736.206 144.437 736.213C143.599 736.227 142.818 736.078 142.093 735.766C141.369 735.453 140.783 734.97 140.336 734.317C139.888 733.663 139.664 732.843 139.664 731.856V715.716ZM156.446 736.33C154.912 736.33 153.573 735.979 152.43 735.276C151.286 734.572 150.399 733.589 149.767 732.325C149.134 731.06 148.818 729.583 148.818 727.893C148.818 726.195 149.134 724.711 149.767 723.44C150.399 722.168 151.286 721.181 152.43 720.478C153.573 719.775 154.912 719.423 156.446 719.423C157.98 719.423 159.319 719.775 160.463 720.478C161.606 721.181 162.494 722.168 163.126 723.44C163.758 724.711 164.074 726.195 164.074 727.893C164.074 729.583 163.758 731.06 163.126 732.325C162.494 733.589 161.606 734.572 160.463 735.276C159.319 735.979 157.98 736.33 156.446 736.33ZM156.457 733.656C157.451 733.656 158.275 733.393 158.928 732.868C159.582 732.342 160.065 731.643 160.377 730.769C160.697 729.896 160.857 728.933 160.857 727.882C160.857 726.838 160.697 725.879 160.377 725.006C160.065 724.125 159.582 723.418 158.928 722.886C158.275 722.353 157.451 722.087 156.457 722.087C155.455 722.087 154.624 722.353 153.964 722.886C153.311 723.418 152.824 724.125 152.504 725.006C152.192 725.879 152.036 726.838 152.036 727.882C152.036 728.933 152.192 729.896 152.504 730.769C152.824 731.643 153.311 732.342 153.964 732.868C154.624 733.393 155.455 733.656 156.457 733.656ZM179.892 723.631L177.005 724.143C176.884 723.773 176.692 723.422 176.429 723.088C176.174 722.754 175.826 722.481 175.385 722.268C174.945 722.055 174.395 721.948 173.734 721.948C172.832 721.948 172.079 722.151 171.475 722.555C170.872 722.953 170.57 723.468 170.57 724.1C170.57 724.647 170.772 725.087 171.177 725.421C171.582 725.755 172.235 726.028 173.137 726.241L175.737 726.838C177.243 727.186 178.365 727.722 179.103 728.447C179.842 729.171 180.211 730.112 180.211 731.27C180.211 732.25 179.927 733.124 179.359 733.891C178.798 734.651 178.013 735.247 177.005 735.68C176.003 736.114 174.842 736.33 173.521 736.33C171.689 736.33 170.194 735.94 169.036 735.158C167.878 734.37 167.168 733.251 166.905 731.803L169.984 731.334C170.176 732.136 170.57 732.744 171.167 733.156C171.763 733.56 172.541 733.763 173.5 733.763C174.544 733.763 175.378 733.546 176.003 733.113C176.628 732.673 176.941 732.136 176.941 731.504C176.941 730.993 176.749 730.563 176.365 730.215C175.989 729.867 175.41 729.604 174.629 729.427L171.859 728.82C170.332 728.472 169.203 727.918 168.471 727.158C167.747 726.398 167.385 725.435 167.385 724.271C167.385 723.305 167.654 722.46 168.194 721.735C168.734 721.011 169.48 720.446 170.431 720.041C171.383 719.629 172.473 719.423 173.702 719.423C175.471 719.423 176.863 719.807 177.878 720.574C178.894 721.334 179.565 722.353 179.892 723.631ZM186.899 726.284V736H183.714V714.182H186.856V722.3H187.059C187.442 721.419 188.028 720.719 188.817 720.201C189.605 719.683 190.635 719.423 191.906 719.423C193.028 719.423 194.008 719.654 194.846 720.116C195.692 720.577 196.345 721.266 196.807 722.183C197.275 723.092 197.51 724.228 197.51 725.592V736H194.324V725.975C194.324 724.775 194.015 723.844 193.398 723.184C192.78 722.516 191.92 722.183 190.819 722.183C190.067 722.183 189.392 722.342 188.795 722.662C188.206 722.982 187.741 723.45 187.4 724.068C187.066 724.679 186.899 725.418 186.899 726.284ZM221.962 723.631L219.075 724.143C218.954 723.773 218.762 723.422 218.5 723.088C218.244 722.754 217.896 722.481 217.456 722.268C217.015 722.055 216.465 721.948 215.804 721.948C214.902 721.948 214.15 722.151 213.546 722.555C212.942 722.953 212.64 723.468 212.64 724.1C212.64 724.647 212.843 725.087 213.248 725.421C213.652 725.755 214.306 726.028 215.208 726.241L217.807 726.838C219.313 727.186 220.435 727.722 221.174 728.447C221.912 729.171 222.282 730.112 222.282 731.27C222.282 732.25 221.998 733.124 221.429 733.891C220.868 734.651 220.083 735.247 219.075 735.68C218.074 736.114 216.912 736.33 215.591 736.33C213.759 736.33 212.264 735.94 211.106 735.158C209.949 734.37 209.238 733.251 208.975 731.803L212.054 731.334C212.246 732.136 212.64 732.744 213.237 733.156C213.833 733.56 214.611 733.763 215.57 733.763C216.614 733.763 217.449 733.546 218.074 733.113C218.699 732.673 219.011 732.136 219.011 731.504C219.011 730.993 218.819 730.563 218.436 730.215C218.059 729.867 217.48 729.604 216.699 729.427L213.929 728.82C212.402 728.472 211.273 727.918 210.542 727.158C209.817 726.398 209.455 725.435 209.455 724.271C209.455 723.305 209.725 722.46 210.265 721.735C210.804 721.011 211.55 720.446 212.502 720.041C213.453 719.629 214.544 719.423 215.772 719.423C217.541 719.423 218.933 719.807 219.949 720.574C220.964 721.334 221.635 722.353 221.962 723.631ZM227.797 742.136C227.322 742.136 226.888 742.097 226.498 742.019C226.107 741.948 225.816 741.87 225.624 741.785L226.391 739.175C226.974 739.331 227.492 739.398 227.947 739.377C228.401 739.356 228.802 739.185 229.15 738.866C229.506 738.546 229.818 738.024 230.088 737.3L230.482 736.213L224.495 719.636H227.904L232.048 732.335H232.219L236.363 719.636H239.782L233.039 738.184C232.726 739.036 232.329 739.757 231.846 740.347C231.363 740.943 230.787 741.391 230.12 741.689C229.452 741.987 228.678 742.136 227.797 742.136ZM255.038 723.631L252.151 724.143C252.03 723.773 251.839 723.422 251.576 723.088C251.32 722.754 250.972 722.481 250.532 722.268C250.091 722.055 249.541 721.948 248.881 721.948C247.979 721.948 247.226 722.151 246.622 722.555C246.018 722.953 245.716 723.468 245.716 724.1C245.716 724.647 245.919 725.087 246.324 725.421C246.729 725.755 247.382 726.028 248.284 726.241L250.883 726.838C252.389 727.186 253.511 727.722 254.25 728.447C254.988 729.171 255.358 730.112 255.358 731.27C255.358 732.25 255.074 733.124 254.506 733.891C253.944 734.651 253.16 735.247 252.151 735.68C251.15 736.114 249.988 736.33 248.667 736.33C246.835 736.33 245.34 735.94 244.182 735.158C243.025 734.37 242.314 733.251 242.052 731.803L245.131 731.334C245.322 732.136 245.716 732.744 246.313 733.156C246.91 733.56 247.687 733.763 248.646 733.763C249.69 733.763 250.525 733.546 251.15 733.113C251.775 732.673 252.087 732.136 252.087 731.504C252.087 730.993 251.895 730.563 251.512 730.215C251.135 729.867 250.557 729.604 249.775 729.427L247.006 728.82C245.479 728.472 244.349 727.918 243.618 727.158C242.893 726.398 242.531 725.435 242.531 724.271C242.531 723.305 242.801 722.46 243.341 721.735C243.881 721.011 244.626 720.446 245.578 720.041C246.53 719.629 247.62 719.423 248.849 719.423C250.617 719.423 252.009 719.807 253.025 720.574C254.04 721.334 254.711 722.353 255.038 723.631ZM266.499 719.636V722.193H257.56V719.636H266.499ZM259.957 715.716H263.143V731.195C263.143 731.813 263.235 732.278 263.42 732.591C263.604 732.896 263.842 733.106 264.134 733.219C264.432 733.326 264.755 733.379 265.103 733.379C265.359 733.379 265.582 733.362 265.774 733.326C265.966 733.29 266.115 733.262 266.222 733.241L266.797 735.872C266.612 735.943 266.349 736.014 266.009 736.085C265.668 736.163 265.241 736.206 264.73 736.213C263.892 736.227 263.111 736.078 262.386 735.766C261.662 735.453 261.076 734.97 260.629 734.317C260.181 733.663 259.957 732.843 259.957 731.856V715.716ZM276.899 736.33C275.287 736.33 273.898 735.986 272.733 735.297C271.576 734.601 270.681 733.624 270.049 732.367C269.424 731.103 269.111 729.622 269.111 727.925C269.111 726.249 269.424 724.771 270.049 723.493C270.681 722.214 271.562 721.217 272.691 720.499C273.827 719.782 275.155 719.423 276.675 719.423C277.599 719.423 278.493 719.576 279.36 719.881C280.226 720.187 281.004 720.666 281.693 721.32C282.382 721.973 282.925 722.822 283.323 723.866C283.721 724.903 283.92 726.163 283.92 727.648V728.777H270.912V726.391H280.798C280.798 725.553 280.628 724.81 280.287 724.164C279.946 723.511 279.466 722.996 278.849 722.619C278.238 722.243 277.52 722.055 276.697 722.055C275.802 722.055 275.02 722.275 274.353 722.715C273.692 723.148 273.181 723.717 272.819 724.42C272.464 725.116 272.286 725.872 272.286 726.689V728.553C272.286 729.647 272.478 730.577 272.861 731.344C273.252 732.112 273.795 732.697 274.491 733.102C275.187 733.5 276.001 733.699 276.931 733.699C277.535 733.699 278.085 733.614 278.582 733.443C279.079 733.266 279.509 733.003 279.871 732.655C280.233 732.307 280.51 731.877 280.702 731.366L283.717 731.909C283.476 732.797 283.042 733.575 282.417 734.242C281.8 734.903 281.022 735.418 280.084 735.787C279.154 736.149 278.092 736.33 276.899 736.33ZM287.454 736V719.636H290.511V722.3H290.714C291.055 721.398 291.612 720.695 292.386 720.19C293.161 719.679 294.087 719.423 295.167 719.423C296.261 719.423 297.177 719.679 297.915 720.19C298.661 720.702 299.212 721.405 299.567 722.3H299.737C300.128 721.426 300.749 720.73 301.602 720.212C302.454 719.686 303.469 719.423 304.648 719.423C306.133 719.423 307.344 719.888 308.281 720.819C309.226 721.749 309.698 723.152 309.698 725.027V736H306.513V725.325C306.513 724.217 306.211 723.415 305.607 722.918C305.004 722.42 304.283 722.172 303.445 722.172C302.408 722.172 301.602 722.491 301.026 723.131C300.451 723.763 300.163 724.576 300.163 725.57V736H296.989V725.123C296.989 724.235 296.712 723.521 296.158 722.982C295.604 722.442 294.883 722.172 293.995 722.172C293.391 722.172 292.834 722.332 292.322 722.651C291.818 722.964 291.41 723.401 291.097 723.962C290.792 724.523 290.639 725.173 290.639 725.911V736H287.454ZM329.695 719.636V722.193H320.447V719.636H329.695ZM322.983 736V717.74C322.983 716.717 323.207 715.869 323.654 715.194C324.102 714.512 324.695 714.004 325.433 713.67C326.172 713.33 326.974 713.159 327.841 713.159C328.48 713.159 329.027 713.212 329.482 713.319C329.936 713.418 330.273 713.511 330.494 713.596L329.748 716.174C329.599 716.131 329.407 716.082 329.173 716.025C328.938 715.961 328.654 715.929 328.32 715.929C327.546 715.929 326.992 716.121 326.658 716.504C326.332 716.888 326.168 717.442 326.168 718.166V736H322.983ZM339.229 736.33C337.695 736.33 336.357 735.979 335.213 735.276C334.07 734.572 333.182 733.589 332.55 732.325C331.918 731.06 331.602 729.583 331.602 727.893C331.602 726.195 331.918 724.711 332.55 723.44C333.182 722.168 334.07 721.181 335.213 720.478C336.357 719.775 337.695 719.423 339.229 719.423C340.763 719.423 342.102 719.775 343.246 720.478C344.389 721.181 345.277 722.168 345.909 723.44C346.541 724.711 346.857 726.195 346.857 727.893C346.857 729.583 346.541 731.06 345.909 732.325C345.277 733.589 344.389 734.572 343.246 735.276C342.102 735.979 340.763 736.33 339.229 736.33ZM339.24 733.656C340.234 733.656 341.058 733.393 341.712 732.868C342.365 732.342 342.848 731.643 343.161 730.769C343.48 729.896 343.64 728.933 343.64 727.882C343.64 726.838 343.48 725.879 343.161 725.006C342.848 724.125 342.365 723.418 341.712 722.886C341.058 722.353 340.234 722.087 339.24 722.087C338.239 722.087 337.408 722.353 336.747 722.886C336.094 723.418 335.607 724.125 335.288 725.006C334.975 725.879 334.819 726.838 334.819 727.882C334.819 728.933 334.975 729.896 335.288 730.769C335.607 731.643 336.094 732.342 336.747 732.868C337.408 733.393 338.239 733.656 339.24 733.656ZM353.598 726.284V736H350.413V719.636H353.47V722.3H353.673C354.049 721.433 354.639 720.737 355.441 720.212C356.251 719.686 357.27 719.423 358.499 719.423C359.614 719.423 360.59 719.658 361.428 720.126C362.267 720.588 362.916 721.277 363.378 722.193C363.84 723.109 364.07 724.242 364.07 725.592V736H360.885V725.975C360.885 724.789 360.576 723.862 359.958 723.195C359.34 722.52 358.492 722.183 357.412 722.183C356.673 722.183 356.017 722.342 355.441 722.662C354.873 722.982 354.422 723.45 354.088 724.068C353.762 724.679 353.598 725.418 353.598 726.284ZM375.981 719.636V722.193H367.043V719.636H375.981ZM369.44 715.716H372.625V731.195C372.625 731.813 372.718 732.278 372.902 732.591C373.087 732.896 373.325 733.106 373.616 733.219C373.914 733.326 374.237 733.379 374.585 733.379C374.841 733.379 375.065 733.362 375.257 733.326C375.448 733.29 375.597 733.262 375.704 733.241L376.279 735.872C376.095 735.943 375.832 736.014 375.491 736.085C375.15 736.163 374.724 736.206 374.213 736.213C373.374 736.227 372.593 736.078 371.869 735.766C371.144 735.453 370.558 734.97 370.111 734.317C369.664 733.663 369.44 732.843 369.44 731.856V715.716Z" fill="#FF6D7F"/>
</svg>
