<svg xmlns="http://www.w3.org/2000/svg" width="1920" height="1080" fill="none"><path fill="#1A73E8" d="M210.84 353.604c-.6-3.84-1.56-8.1-2.88-12.78-1.32-4.8-3-9.12-5.04-12.96 6.84 0 12.06-.3 15.66-.899 3.72-.6 6.24-1.741 7.56-3.421 1.44-1.68 2.16-4.02 2.16-7.02 0-1.199-.12-4.92-.36-11.16-.24-6.36-.48-13.92-.72-22.68-8.76 11.4-19.26 21.781-31.5 31.141-12.12 9.36-24.6 17.159-37.44 23.399-1.8-3.84-4.26-7.74-7.38-11.7-3.12-3.96-6.24-7.14-9.36-9.54 7.68-3.12 15.66-7.32 23.94-12.6 8.4-5.28 16.44-11.16 24.12-17.64 7.8-6.599 14.52-13.32 20.16-20.16-8.64.24-16.8.54-24.48.9-7.56.24-13.98.54-19.26.9-5.28.24-8.88.48-10.8.72l-1.44-25.56c3.48.24 8.94.36 16.38.36 7.44 0 16.02-.06 25.74-.18 9.72-.24 19.68-.48 29.88-.72l-1.26-37.44h27.18l1.26 36.54c9.24-.36 17.64-.72 25.2-1.08 7.68-.36 13.5-.78 17.46-1.26v25.56c-2.28-.24-7.26-.3-14.94-.18-7.68 0-16.68.12-27 .36.36 8.76.66 17.16.9 25.2s.42 14.82.54 20.34c.24 5.4.36 8.64.36 9.72.36 8.64-1.02 15.42-4.14 20.34-3 4.92-7.86 8.401-14.58 10.44-6.72 2.04-15.36 3.06-25.92 3.06ZM328.2 292.944c.12-2.16.12-4.98 0-8.46v-10.44c0-3.48-.06-6.3-.18-8.46 1.68.12 5.34.3 10.98.54 5.64.12 12.54.24 20.7.36 8.16 0 16.98.06 26.46.18h55.8c8.52-.12 15.78-.24 21.78-.36 6-.24 10.08-.48 12.24-.72-.12 1.92-.24 4.68-.36 8.28v10.44c.12 3.481.18 6.24.18 8.28-2.76-.119-7.02-.24-12.78-.36-5.76-.24-12.54-.42-20.34-.539-7.8-.121-16.14-.181-25.02-.181h-26.82c-9 0-17.64.06-25.92.181-8.16.119-15.42.299-21.78.539-6.36.12-11.34.36-14.94.72ZM592.44 339.204l-14.58-11.34c.36-1.8.6-5.46.72-10.98.24-5.64.36-12.659.36-21.059.12-8.521.18-17.941.18-28.261 0-12.72-.12-22.74-.36-30.06-.24-7.44-.54-13.2-.9-17.28h28.62c-.36 3.12-.66 8.88-.9 17.28-.12 8.4-.18 17.94-.18 28.62v36.36c5.04-2.16 10.38-4.74 16.02-7.74 5.76-3 11.4-6.12 16.92-9.36 5.52-3.36 10.56-6.66 15.12-9.9 4.56-3.36 8.28-6.42 11.16-9.18 0 3 .18 6.601.54 10.8.36 4.081.84 7.98 1.44 11.7.6 3.6 1.2 6.3 1.8 8.1-4.08 3.36-9.3 7.08-15.66 11.16-6.36 4.08-13.2 8.1-20.52 12.06a522.25 522.25 0 0 1-21.42 10.98c-6.96 3.36-13.08 6.061-18.36 8.1Zm-77.4 2.34c-2.16-3.48-5.1-7.14-8.82-10.98-3.72-3.96-7.32-7.32-10.8-10.08 10.2-5.28 18.24-10.92 24.12-16.92 6-6.12 10.26-12.9 12.78-20.34 2.64-7.56 3.96-16.02 3.96-25.38.12-9.36-.6-19.98-2.16-31.86l25.92-2.16c2.64 19.08 3 35.94 1.08 50.58s-6.6 27.48-14.04 38.52c-7.32 10.92-18 20.46-32.04 28.62ZM738.6 353.784v-147.78h27.18v54.9l8.64-12.42c2.88 2.04 6.72 4.68 11.52 7.92 4.92 3.12 10.14 6.36 15.66 9.72 5.64 3.24 10.98 6.24 16.02 9 5.16 2.76 9.42 4.74 12.78 5.94-1.92 1.8-4.02 4.2-6.3 7.2a93.087 93.087 0 0 0-6.3 9c-1.92 3.12-3.42 5.881-4.5 8.281-2.64-1.441-6-3.361-10.08-5.761-3.96-2.52-8.22-5.22-12.78-8.099-4.44-3-8.82-5.941-13.14-8.821-4.32-3-8.16-5.76-11.52-8.28v79.2H738.6Zm71.82-108.72c-2.16-3.84-4.92-7.8-8.28-11.88-3.24-4.2-6.24-7.62-9-10.26l11.88-9c1.56 1.44 3.48 3.54 5.76 6.3 2.4 2.76 4.68 5.58 6.84 8.46 2.28 2.76 4.02 5.16 5.22 7.2l-12.42 9.18Zm17.64-13.5c-2.16-3.84-4.92-7.8-8.28-11.88-3.24-4.08-6.24-7.44-9-10.08l11.88-9c1.56 1.44 3.48 3.54 5.76 6.3 2.4 2.64 4.68 5.4 6.84 8.28 2.28 2.76 4.02 5.16 5.22 7.2l-12.42 9.18ZM139.74 562.044v-15.12h69.84v-5.04h-50.04v-14.04h50.04v-5.04h-50.04v-15.12h50.04v-5.04h-69.84v-15.66h69.84v-5.04h-50.04v-15.48h50.04v-10.62h25.38v10.62h48.06v20.52h20.52v15.66h-20.52v20.16h-48.06v5.04h48.06v14.04h-48.06v5.04h69.48v15.12h-164.7Zm22.14 59.041v-54.001h119.7v54.001h-119.7Zm26.82-15.121h66.78v-5.58H188.7v5.58Zm0-18.18h66.78v-5.58H188.7v5.58Zm46.26-80.1h24.3v-5.04h-24.3v5.04Zm0-20.7h24.3v-5.04h-24.3v5.04ZM410.82 621.444v-24.299h-18v-26.101h18v-25.56c-5.52 8.4-11.58 16.56-18.18 24.48-6.48 7.92-12.66 14.46-18.54 19.62-1.2-1.56-2.7-3.24-4.5-5.04a68.789 68.789 0 0 0-5.22-5.04v41.581h-26.46v-81.181c-1.8 2.16-3.72 4.26-5.76 6.3-2.28-2.639-5.28-5.339-9-8.1-3.6-2.76-7.14-4.98-10.62-6.66 4.2-4.079 8.4-9.24 12.6-15.48 4.32-6.36 8.28-13.14 11.88-20.34 3.72-7.32 6.84-14.34 9.36-21.06 2.64-6.84 4.38-12.72 5.22-17.64l24.84 6.66c-1.32 5.52-3 11.16-5.04 16.92a189.62 189.62 0 0 1-7.02 17.1v65.34c4.2-4.32 8.52-9.18 12.96-14.58 4.56-5.52 8.94-11.219 13.14-17.1 4.2-5.88 7.8-11.52 10.8-16.92H369.6v-24.48h41.22v-32.76h25.74v32.76h45.9v24.48h-39.24c2.88 5.04 6.36 10.26 10.44 15.66 4.08 5.4 8.4 10.68 12.96 15.84 4.68 5.04 9.18 9.66 13.5 13.86 4.32 4.201 8.1 7.56 11.34 10.08-2.16 1.2-4.56 2.88-7.2 5.04a96.955 96.955 0 0 0-7.2 6.84c-2.28 2.4-4.2 4.68-5.76 6.84-5.52-4.92-11.34-10.979-17.46-18.18-6-7.2-11.76-14.759-17.28-22.679v23.399h16.74v26.101h-16.74v24.299h-25.74ZM584.7 612.984c-9.96-.6-18.06-3.66-24.3-9.18-6.24-5.52-9.3-12.6-9.18-21.24.12-5.04 1.74-9.659 4.86-13.86 3.24-4.2 7.68-7.56 13.32-10.08 5.76-2.64 12.48-3.96 20.16-3.96 1.44 0 2.82.06 4.14.18 1.32 0 2.64.06 3.96.18-.12-4.68-.3-9.839-.54-15.48a1079 1079 0 0 0-.54-18.18c-7.08.24-13.92.42-20.52.54-6.48 0-12.18-.12-17.1-.36l-1.44-26.82c4.2.72 9.72 1.14 16.56 1.26 6.84.12 14.16.06 21.96-.18l-.36-14.04v-14.4h25.92c-.12 4.08-.24 8.4-.36 12.96-.12 4.44-.12 9.12 0 14.04 6.72-.6 12.84-1.32 18.36-2.16 5.64-.839 9.9-1.74 12.78-2.7v26.46c-3.36.72-7.74 1.38-13.14 1.98-5.28.6-11.1 1.2-17.46 1.8.24 7.56.48 14.881.72 21.96.36 6.96.66 13.261.9 18.9 6.84 2.52 13.32 5.64 19.44 9.36 6.12 3.72 12 7.8 17.64 12.24-1.8 1.441-3.72 3.48-5.76 6.12a88.665 88.665 0 0 0-5.58 8.1c-1.68 2.761-2.94 5.16-3.78 7.2-3.36-3.12-6.9-5.999-10.62-8.64-3.6-2.76-7.32-5.28-11.16-7.56-1.2 9.601-5.16 16.441-11.88 20.52-6.6 4.08-15.6 5.76-27 5.04Zm-69.12 1.62c-.84-4.799-1.56-10.98-2.16-18.54-.48-7.56-.84-15.9-1.08-25.02-.12-9.239-.12-18.78 0-28.62.12-9.839.42-19.44.9-28.8.48-9.36 1.14-18 1.98-25.92.84-8.04 1.8-14.76 2.88-20.16l25.02 5.94c-1.32 4.08-2.46 9.66-3.42 16.74-.96 7.081-1.74 15-2.34 23.76-.48 8.641-.78 17.641-.9 27-.12 9.36-.06 18.48.18 27.36.36 8.76.9 16.8 1.62 24.12.72 7.2 1.62 13.08 2.7 17.64l-25.38 4.5Zm71.1-23.94c4.2 0 7.14-.84 8.82-2.519 1.8-1.8 2.7-5.401 2.7-10.801-1.68-.36-3.42-.66-5.22-.9a71.8 71.8 0 0 0-5.04-.54c-3.36-.24-6.3.3-8.82 1.62-2.52 1.2-3.84 3.061-3.96 5.58-.12 2.4.9 4.26 3.06 5.58 2.28 1.32 5.1 1.98 8.46 1.98ZM277.8 872.905c-11.88 2.04-23.4 3.36-34.56 3.96-11.16.599-21.54.36-31.14-.72-9.6-1.08-18-3.18-25.2-6.3-7.2-3.12-12.84-7.44-16.92-12.96-4.08-5.52-6.12-12.361-6.12-20.52 0-11.04 3.48-20.28 10.44-27.72 7.08-7.44 16.8-13.86 29.16-19.26-1.8-5.401-3.42-11.94-4.86-19.62-1.32-7.68-2.22-15.841-2.7-24.481-.48-8.64-.48-17.039 0-25.199h28.62c-.72 6.24-1.02 13.019-.9 20.339.24 7.321.78 14.521 1.62 21.601.84 6.96 1.8 13.02 2.88 18.18 6-1.92 12.3-3.721 18.9-5.4 6.72-1.8 13.68-3.6 20.88-5.4l4.68 27.72c-10.2.96-20.16 2.579-29.88 4.859-9.6 2.281-18.3 5.101-26.1 8.461-7.68 3.24-13.8 6.959-18.36 11.159-4.56 4.081-6.84 8.401-6.84 12.961 0 4.32 2.34 7.919 7.02 10.8 4.8 2.76 11.34 4.619 19.62 5.58 8.4.96 18 .9 28.8-.18 10.92-1.08 22.44-3.24 34.56-6.48-.84 2.4-1.56 5.34-2.16 8.819-.6 3.48-1.02 6.961-1.26 10.44-.24 3.48-.3 6.601-.18 9.361Zm-1.26-103.5c-2.4-3.6-5.4-7.38-9-11.34-3.48-3.961-6.72-7.14-9.72-9.54l11.34-9.72c1.68 1.32 3.78 3.299 6.3 5.94 2.52 2.52 4.98 5.159 7.38 7.919 2.4 2.641 4.26 4.921 5.58 6.841l-11.88 9.9Zm16.74-14.4c-2.4-3.721-5.4-7.5-9-11.341-3.48-3.96-6.72-7.139-9.72-9.539l11.34-9.72c1.68 1.32 3.78 3.299 6.3 5.939 2.52 2.521 4.98 5.161 7.38 7.921 2.4 2.64 4.26 4.92 5.58 6.839l-11.88 9.901ZM428.1 875.065c-6 0-11.28-.961-15.84-2.88-4.44-1.92-7.92-5.281-10.44-10.081-2.4-4.919-3.6-11.759-3.6-20.519v-12.78c0-6.6-.78-10.981-2.34-13.141-1.44-2.28-4.08-3.419-7.92-3.419-4.44 0-8.52 1.38-12.24 4.14-3.72 2.76-6.96 7.08-9.72 12.96-4.68 9.84-8.82 18.78-12.42 26.819-3.48 7.92-5.82 13.92-7.02 18l-25.38-11.159c1.2-1.92 3.18-5.64 5.94-11.16 2.88-5.52 6.24-12.181 10.08-19.98 3.96-7.8 8.16-16.14 12.6-25.02l13.32-27.001c4.44-9.12 8.58-17.64 12.42-25.56 3.96-8.039 7.32-14.999 10.08-20.879 2.88-5.88 4.92-10.02 6.12-12.421l27.18 11.881c-2.28 3.119-5.22 7.619-8.82 13.5-3.6 5.88-7.5 12.66-11.7 20.34-4.2 7.68-8.52 15.719-12.96 24.12 4.2-1.56 8.58-2.341 13.14-2.341 9.24 0 15.66 2.521 19.26 7.56 3.72 5.04 5.58 13.261 5.58 24.661 0 1.44-.06 3.42-.18 5.94v5.94c0 6.48.6 10.68 1.8 12.6 1.2 1.799 3.78 2.7 7.74 2.7 3.48 0 7.08-1.44 10.8-4.32 3.84-2.88 7.5-6.901 10.98-12.06 3.48-5.16 6.42-11.101 8.82-17.82 1.56 2.159 3.54 4.5 5.94 7.02 2.4 2.52 4.86 4.92 7.38 7.2 2.52 2.16 4.68 3.96 6.48 5.4-4.2 9.479-9.36 17.28-15.48 23.4-6 6.12-12.42 10.68-19.26 13.68-6.84 3.12-13.62 4.68-20.34 4.68ZM577.32 881.544c-6.6-.479-12.36-2.159-17.28-5.039-4.92-2.76-8.7-6.48-11.34-11.16-2.52-4.68-3.78-9.9-3.78-15.66.12-5.281 1.68-9.96 4.68-14.04 3.12-4.2 7.5-7.381 13.14-9.541 5.64-2.28 12.3-3.239 19.98-2.88 2.4 0 4.74.181 7.02.541v-37.62h25.2v43.019a106.932 106.932 0 0 1 19.08 9c6.12 3.6 12.12 7.741 18 12.421-1.8 1.56-3.72 3.6-5.76 6.12-1.92 2.52-3.78 5.16-5.58 7.92-1.68 2.76-3.06 5.279-4.14 7.56-3.36-3.12-6.9-6.12-10.62-9-3.6-2.88-7.32-5.46-11.16-7.74-.96 9.84-4.56 16.8-10.8 20.88-6.12 4.2-15 5.939-26.64 5.219ZM528 850.765c-2.52-2.04-5.94-4.26-10.26-6.661-4.32-2.52-8.4-4.56-12.24-6.12 7.2-8.64 13.62-18.479 19.26-29.519a228.397 228.397 0 0 0 14.4-34.56c-5.52.72-10.5 1.32-14.94 1.8-4.44.36-8.04.66-10.8.899l-3.24-24.299c3.96.119 9.06-.06 15.3-.54 6.36-.6 13.08-1.32 20.16-2.161a209.6 209.6 0 0 0 2.88-16.199c.84-5.28 1.38-10.381 1.62-15.301l24.48 3.421c-.48 4.08-1.02 8.16-1.62 12.24-.6 3.96-1.26 7.86-1.98 11.7 3.84-.72 7.44-1.5 10.8-2.34 3.48-.84 6.66-1.68 9.54-2.521l3.24 23.041c-3.72 1.2-8.16 2.339-13.32 3.42a386.203 386.203 0 0 1-16.02 3.06c-4.08 15.24-9.3 29.64-15.66 43.2-6.24 13.44-13.44 25.92-21.6 37.44Zm112.32-59.041c-1.92-1.919-4.62-4.199-8.1-6.839-3.36-2.64-7.02-5.28-10.98-7.92-3.84-2.76-7.68-5.22-11.52-7.38s-7.2-3.72-10.08-4.68l12.78-19.44c3.12 1.2 6.66 2.88 10.62 5.04a156.13 156.13 0 0 1 12.24 6.84c4.2 2.52 8.1 5.04 11.7 7.56 3.6 2.52 6.54 4.86 8.82 7.019l-15.48 19.8Zm-61.02 68.041c3.84 0 6.54-.96 8.1-2.88 1.56-2.04 2.34-5.76 2.34-11.161v-.359l-4.68-.72c-1.44-.24-2.94-.36-4.5-.36-3.48-.24-6.3.239-8.46 1.439-2.04 1.081-3.12 2.82-3.24 5.221-.12 2.52.72 4.62 2.52 6.3 1.92 1.679 4.56 2.52 7.92 2.52ZM751.56 834.924l-4.32-46.44c11.16-.84 19.44-2.94 24.84-6.299 5.52-3.48 8.28-8.88 8.28-16.201 0-5.88-1.62-10.619-4.86-14.219-3.12-3.6-7.62-5.4-13.5-5.4s-10.56 1.919-14.04 5.76c-3.48 3.84-5.7 8.64-6.66 14.4l-29.52-4.5c.72-8.4 3.3-15.78 7.74-22.14 4.56-6.36 10.5-11.341 17.82-14.94 7.32-3.6 15.54-5.401 24.66-5.401 9.72 0 18.3 1.86 25.74 5.581 7.56 3.72 13.44 9.06 17.64 16.02 4.32 6.84 6.48 15.119 6.48 24.839 0 7.321-1.62 13.68-4.86 19.081-3.24 5.4-7.68 9.9-13.32 13.5-5.64 3.599-12 6.36-19.08 8.28l-2.16 28.079h-20.88Zm10.44 46.62c-4.8 0-8.94-1.739-12.42-5.219-3.48-3.48-5.22-7.62-5.22-12.42 0-4.92 1.74-9.061 5.22-12.421 3.48-3.359 7.62-5.039 12.42-5.039 4.92 0 9.06 1.68 12.42 5.039 3.48 3.36 5.22 7.501 5.22 12.421 0 4.8-1.74 8.94-5.22 12.42-3.36 3.48-7.5 5.219-12.42 5.219ZM1145.3 313.384c.36 7.92-1.08 9.72-5.22 10.62-6.12 1.26-11.88 1.62-25.38 1.8 6.66 5.22 9.72 9.36 12.6 16.02.9 2.34 2.16 3.06 5.58 3.06 8.28 0 18.72-2.7 24.84-6.3 5.94-3.6 9.18-9.54 8.64-19.08l-3.24-67.68h14.58c11.16 0 21.42.36 34.56.9 1.8 0 2.52-1.08 2.52-2.52.18-5.04.18-10.62 0-15.66 0-1.26-.9-2.16-2.7-2.16-13.32.54-22.32.9-34.92.9h-15.66l-.54-13.68c-.54-11.52.18-14.4.72-16.56.36-1.08.72-1.98.72-2.7 0-1.08-.54-1.8-2.34-2.16-5.58-1.08-12.96-1.62-22.68-1.98 1.62 5.76 2.52 12.24 2.88 21.24l.72 16.02h-42.84c-10.8 0-21.42-.18-32.22-.9.36 6.66.72 14.04 1.44 17.46.18 1.98.9 3.24 2.52 3.06 9.36-.54 19.44-.9 28.8-.9l31.5-.18c-7.2 9.9-15.84 18.54-26.46 27.9-12.24 10.8-23.58 18.36-41.94 28.44 5.04 1.98 11.16 6.3 14.76 10.62.9 1.26 1.98 1.8 3.06 1.8 1.26 0 2.52-.54 4.14-1.62 10.98-6.12 24.84-16.74 34.02-25.2 10.98-9.72 18.36-17.64 25.38-27.72l2.16 47.16ZM1346 283.324c13.32 0 26.64.18 40.14.36 2.52.18 3.24-.54 3.24-2.7.36-5.4.36-11.52 0-16.92 0-2.16-.54-2.7-3.24-2.52-13.86.18-27.72.54-41.4.54h-57.96c-18.18 0-27.18-.36-38.88-2.16.72 9.18 1.8 17.64 2.7 21.78.54 2.7 1.98 3.78 4.14 3.78 1.8 0 8.64-2.16 26.46-2.16h64.8ZM1517.36 240.844c0-12.96 0-16.56 1.62-19.98.9-1.8 1.44-3.42 1.44-4.5 0-1.44-.9-2.52-3.24-3.06-5.4-1.62-15.3-2.88-22.5-3.78 1.8 8.28 1.8 15.66 1.8 31.32v56.34c0 9.18.18 11.34-1.08 13.68-.54 1.08-.72 1.8-.72 2.7 0 1.08.54 2.16 1.62 3.78 2.7 3.6 6.84 8.28 10.8 10.98 1.44.9 2.7 1.44 3.78 1.44 1.26 0 2.52-.54 3.6-1.44 1.62-1.26 1.98-1.62 5.22-3.78 12.6-7.38 22.68-14.4 32.04-21.6 9.36-7.02 17.64-14.4 26.64-23.58 1.98-1.98 2.7-3.24 2.7-4.5 0-.9-.54-1.8-1.08-3.06-3.06-5.94-4.86-11.88-5.58-18.18-10.08 12.78-20.7 22.32-31.5 30.6-8.46 6.48-16.74 12.06-25.56 16.74v-60.12Zm-62.82-19.98c1.44 5.4 1.8 8.28 1.8 15.12-.18 28.8-2.52 38.7-7.56 50.94-6.3 14.22-15.84 25.2-29.88 35.82 6.48 2.34 10.8 4.5 15.3 7.56 1.26.9 2.34 1.44 3.42 1.44 1.44 0 2.88-.9 4.68-2.34 12.96-11.16 20.88-22.86 25.56-33.84 5.94-13.32 9.36-30.42 9.72-52.92 0-4.32.18-8.28 2.16-12.24 1.08-2.52.72-4.68-2.34-5.58-4.32-1.44-12.6-2.7-22.86-3.96ZM1669.1 220.684c0-10.08 0-14.58 1.26-16.92.9-1.62 1.44-3.06 1.44-4.14 0-1.44-.9-2.52-3.42-3.06-5.22-1.44-14.22-2.34-22.5-2.88 1.26 7.2 1.8 13.14 1.8 26.64v88.56c0 11.52-.18 22.14-.72 35.46 0 2.16.9 2.7 3.42 2.7 5.22.36 10.8.36 16.02 0 2.52 0 3.42-.54 3.24-2.7-.36-12.96-.72-23.58-.72-35.28v-39.78c14.58 4.5 30.78 12.42 47.34 23.04.72.72 1.44.9 1.98.9.9 0 1.62-.72 2.34-1.98 2.52-4.14 5.4-9.72 7.74-15.66.9-2.34 0-3.6-1.98-4.68-17.82-10.62-35.28-17.64-57.24-24.48v-25.74Zm32.4-11.88c7.02 5.76 12.78 12.6 18.18 20.88.9 1.26 1.8 1.44 3.06.54l7.56-5.58c1.26-.9 1.26-1.8.54-2.88-5.04-7.74-11.52-14.94-17.1-19.26-1.08-.9-1.8-1.08-2.7-.36l-9.54 6.66Zm16.56-11.88c7.38 6.12 13.14 12.96 18 20.7.72 1.08 1.62 1.62 3.06.54l7.2-5.58c1.44-1.08 1.26-2.16.54-3.24-3.96-6.3-10.44-13.5-17.1-18.54-1.08-.9-1.62-1.08-2.7-.36l-9 6.48ZM1195.52 560.344c15.84 0 21.24.36 22.32.36 1.8 0 1.98-.18 1.98-1.98v-9.9c0-1.62-.18-1.8-1.98-1.8-1.08 0-6.48.36-22.32.36h-48.06v-7.2h28.8c17.46 0 23.58.36 24.66.36 1.62 0 1.8-.18 1.8-1.98v-7.74c0-1.8-.18-1.98-1.8-1.98-1.08 0-7.2.36-24.66.36h-28.8v-7.2h20.88c19.08 0 28.62.36 29.7.36 1.8 0 1.98-.18 1.98-1.98 0-1.08-.36-6.48-.36-16.02v-1.08c9.54 0 15.12.36 16.2.36 1.98 0 2.16-.18 2.16-1.98v-10.98c0-1.98-.18-2.16-2.16-2.16-1.08 0-6.66.36-16.2.36v-1.8c0-9.9.36-14.58.36-15.66 0-1.98-.18-2.16-1.98-2.16-1.08 0-10.62.36-29.7.36h-20.88c0-3.42.54-4.86.9-5.94.54-1.44.9-2.16.9-3.24s-1.08-1.8-2.52-1.98c-6.3-.72-12.24-1.08-18.9-1.26.72 3.42 1.08 6.48 1.26 12.42h-24.12c-17.64 0-23.76-.36-25.02-.36-1.8 0-1.98.18-1.98 2.16v9.18c0 1.8.18 1.98 1.98 1.98 1.26 0 7.38-.36 25.02-.36h24.12v7.56h-42.48c-17.1 0-23.22-.36-24.3-.36-1.8 0-1.98.18-1.98 1.98v9.54c0 1.8.18 1.98 1.98 1.98 1.08 0 7.2-.36 24.3-.36h42.48v7.74h-25.02c-17.28 0-23.22-.36-24.3-.36-1.98 0-2.16.18-2.16 1.98v8.46c0 1.8.18 1.98 2.16 1.98 1.08 0 7.02-.36 24.3-.36h25.02v7.2h-26.82c-17.64 0-23.58-.36-24.84-.36-1.62 0-1.8.18-1.8 1.98v7.74c0 1.8.18 1.98 1.8 1.98 1.26 0 7.2-.36 24.84-.36h26.82v7.2h-46.62c-15.84 0-21.24-.36-22.32-.36-1.62 0-1.8.18-1.8 1.8v9.9c0 1.8.18 1.98 1.8 1.98 1.08 0 6.48-.36 22.32-.36h113.04Zm-13.5-50.04h-34.56v-7.74h34.56v7.74Zm0-28.08v7.56h-34.56v-7.56h34.56Zm-83.88 140.58c1.8 0 1.98-.18 1.98-1.98v-4.68h78.12v4.14c0 1.62.18 1.8 1.98 1.8h14.4c1.8 0 1.98-.18 1.98-1.8 0-1.08-.36-4.86-.36-25.02v-13.32c0-7.74.36-11.88.36-12.96 0-1.98-.18-2.16-1.98-2.16-1.26 0-7.56.36-25.02.36h-60.84c-17.46 0-23.76-.36-25.02-.36-1.8 0-1.98.18-1.98 2.16 0 1.08.36 5.22.36 15.12v11.52c0 20.52-.36 24.12-.36 25.2 0 1.8.18 1.98 1.98 1.98h14.4Zm1.98-18.18v-7.74h78.12v7.74h-78.12Zm0-25.74h78.12v7.56h-78.12v-7.56ZM1321.34 513.544c-11.88 26.64-27.18 45.72-47.16 62.46v-72.9c4.5-8.64 8.28-17.46 11.7-26.28 1.62-4.68 2.52-6.12 3.6-7.2 1.44-1.26 1.98-1.98 1.98-3.24 0-1.26-.9-1.8-2.88-2.7-5.22-2.16-10.98-3.96-17.46-5.58-.36 4.5-1.44 8.46-2.7 12.78-6.84 21.42-18.72 41.58-34.2 58.5 2.34 3.6 4.86 9.72 6.12 15.48.54 2.16 1.08 3.24 1.98 3.24.9 0 1.98-.9 3.24-2.34 3.6-4.14 7.02-8.64 10.44-13.14-.18 7.2-.18 14.4-.18 20.34v40.86c0 17.64-.36 26.28-.36 27.36 0 1.8.18 1.98 1.8 1.98h15.3c1.8 0 1.98-.18 1.98-1.98 0-.9-.36-9.72-.36-27.36v-17.28c2.7 2.88 5.58 6.3 8.1 10.62 1.26 2.34 1.98 3.42 2.88 3.42.9 0 1.98-1.08 3.78-2.7 17.82-16.56 30.78-35.82 41.04-60.12 0 16.02-.18 32.04-.54 46.08h-3.42c-14.04 0-18.54-.36-19.62-.36-1.8 0-1.98.18-1.98 1.98v13.14c0 1.98.18 2.16 1.98 2.16 1.08 0 5.58-.36 19.62-.36h3.24c-.36 16.92-.72 28.98-.72 30.78 0 1.8.18 1.98 2.16 1.98h15.48c1.8 0 1.98-.18 1.98-1.98s-.36-13.68-.54-30.78h3.96c14.04 0 18.54.36 19.62.36 1.8 0 1.98-.18 1.98-2.16v-13.14c0-1.8-.18-1.98-1.98-1.98-1.08 0-5.58.36-19.62.36h-4.14c-.18-14.04-.36-30.06-.36-46.26 9.72 22.5 21.24 40.14 41.94 60.48 1.8 1.8 2.88 2.88 3.78 2.88.9 0 1.62-1.26 2.88-3.78 2.16-4.32 5.04-8.28 8.82-12.06-24.3-20.52-37.62-37.26-50.04-61.56h18.72c17.46 0 23.58.36 24.84.36 1.62 0 1.8-.18 1.8-1.98v-13.86c0-1.98-.18-1.98-1.8-1.98-1.26 0-7.38.18-24.84.18h-25.56v-12.06c0-12.24.18-16.02 1.08-18.18.54-1.26 1.26-2.34 1.26-3.78 0-.9-1.08-1.8-2.88-1.8-6.12-.9-12.42-1.26-18.9-1.44.9 7.74 1.26 14.04 1.26 25.56v11.7h-18.18c-17.64 0-23.58-.18-24.66-.18-1.8 0-1.98 0-1.98 1.98v13.86c0 1.8.18 1.98 1.98 1.98 1.08 0 7.02-.36 24.66-.36h10.08ZM1524.56 564.124c-4.32-.9-9.72-1.44-14.4-1.44-18.18 0-31.5 10.62-31.5 25.38 0 15.48 11.52 25.2 32.22 25.2 21.24 0 31.5-8.28 32.94-23.4 7.92 4.68 13.86 9.18 19.44 14.4.54.54 1.08.9 1.62.9s1.08-.36 1.62-1.08c3.06-4.14 5.94-9.18 8.28-13.86.9-1.98.72-2.52-.9-3.6-10.08-7.92-19.26-12.96-29.88-17.28-.9-15.48-1.26-28.08-1.26-48.24 9.36-.72 21.24-2.16 27.72-3.78 1.26-.18 1.98-1.08 1.98-2.7 0-3.78-.36-9.54-1.08-12.78-.36-1.98-.72-2.7-2.88-2.16-7.74 1.26-17.1 2.52-25.56 3.24 0-8.28 0-12.96.36-19.08.18-2.34.72-4.68 1.44-6.3s1.08-2.16 1.08-3.06c0-1.62-1.26-2.52-3.24-3.06-5.94-1.8-11.34-2.52-21.78-3.42 1.62 6.48 2.16 11.16 2.34 17.64 0 6.66.18 12.42.18 18.9-13.5.9-27.54.72-41.04-.54 0 5.58.54 12.06 1.26 16.38.18 1.8.9 2.34 3.24 2.34 12.24.9 24.84.54 37.08.18.18 14.22.36 27.36.72 41.22Zm.36 17.1c.18 1.44.18 2.34.18 3.6 0 6.48-5.76 11.7-14.76 11.7-10.62 0-14.58-3.42-14.58-9s5.04-8.64 13.5-8.64c5.04 0 9.9.54 15.66 2.34Zm-83.52-112.86c.72 7.2-.36 14.94-1.26 21.24-5.94 36.54-7.38 50.94-7.38 68.22 0 20.7 2.7 42.12 7.74 54.9.9 2.52 1.62 2.7 3.6 2.16 4.86-.72 10.08-1.8 13.5-3.06 1.62-.54 2.34-1.08 2.16-2.34-.18-1.8-.54-4.5.18-9.54.72-5.22 2.88-13.14 9.18-27.36.72-1.08 1.08-1.98 1.08-2.88 0-.9-.36-1.62-1.08-2.52-2.34-3.06-3.78-5.58-6.3-11.34-3.78 9-7.56 16.74-11.16 25.02-.54-7.56-.54-15.84-.54-23.04 0-13.14 3.06-38.34 9-65.52 1.26-5.22 1.98-7.74 3.24-9.9.72-1.44 1.26-2.7 1.26-3.96 0-1.44-.72-2.52-2.7-3.6-3.6-1.8-13.32-4.68-20.52-6.48ZM1101.56 737.824c2.16 5.04 3.42 11.34 4.68 20.88 1.8 13.86 5.04 30.06 9.36 43.92-21.06 13.32-34.2 26.46-34.2 46.44 0 23.4 18 34.56 52.02 34.56 22.86 0 37.26-.54 53.64-2.7 2.16-.18 3.42-1.08 3.24-3.06-.36-5.4-.9-11.88-1.8-16.74-.36-2.16-1.26-2.52-3.24-2.16-13.86 2.52-33.48 4.14-53.64 4.14-22.5 0-29.88-4.68-29.88-15.12 0-8.46 5.58-16.92 21.24-27.18 12.42-8.1 26.82-14.76 42.3-21.06 5.76-2.34 11.88-4.5 17.28-5.4 2.52-.36 3.6-1.8 3.6-3.6 0-1.26-.54-2.7-1.26-3.78-2.7-4.68-7.38-10.98-13.14-16.92-2.88 3.6-7.2 6.66-12.42 9.72-10.08 5.4-16.56 8.82-25.56 13.68-2.34-9.36-4.14-18.36-5.76-30.96-.36-4.14-.9-8.46-.9-12.06 0-2.52 1.26-5.04 1.26-7.56 0-1.44-1.08-2.34-3.24-2.88-6.66-1.62-14.94-2.16-23.58-2.16Zm72.9 10.98c7.02 5.76 12.78 12.6 18.18 20.88.9 1.26 1.8 1.44 3.06.54l7.56-5.58c1.26-.9 1.26-1.8.54-2.88-5.04-7.74-11.52-14.94-17.1-19.26-1.08-.9-1.8-1.08-2.7-.36l-9.54 6.66Zm16.56-11.88c7.38 6.12 13.14 12.96 18 20.7.72 1.08 1.62 1.62 3.06.54l7.2-5.58c1.44-1.08 1.26-2.16.54-3.24-3.96-6.3-10.44-13.5-17.1-18.54-1.08-.9-1.62-1.08-2.7-.36l-9 6.48ZM1290.02 817.924c9.9-16.2 19.62-35.1 31.14-57.24 1.62-2.7 3.42-5.4 5.58-7.74 1.26-1.26 1.98-2.52 1.98-3.6 0-1.44-.9-2.7-2.52-3.78-4.86-3.42-11.7-6.66-20.16-10.08-1.44 8.1-3.78 14.4-9 26.28-9.9 22.5-26.46 56.88-52.74 108.36-.54.9-.9 1.8-.9 2.52s.54 1.62 1.62 2.34c4.14 3.24 9 5.76 13.86 7.74 2.34.72 3.24.36 4.32-2.16 7.02-16.56 14.58-31.32 21.06-39.96 7.2-9.54 14.94-15.3 22.68-15.3 6.3 0 10.26 5.22 11.88 23.22 2.34 25.38 10.08 34.92 28.26 34.92 12.42 0 24.12-5.4 33.12-15.12 5.94-6.48 11.88-14.76 15.48-22.32.54-1.08.72-1.98.72-3.06 0-1.26-.54-2.52-1.98-3.78-3.24-3.24-6.84-6.84-10.44-14.94-4.5 12.24-11.88 22.68-18.18 29.34-5.04 5.4-10.44 8.64-16.92 8.64-6.84 0-9-5.94-10.44-19.08-1.98-17.28-6.84-34.02-26.28-34.02-7.02 0-14.76 3.24-21.96 9.18l-.18-.36ZM1514.48 838.804c-5.76-.9-10.8-1.08-14.22-1.08-20.34 0-33.3 10.62-33.3 26.28 0 15.48 13.32 25.56 33.12 25.56 20.52 0 33.48-8.28 33.48-26.28 7.38 4.32 14.04 8.28 21.96 15.12.72.72 1.26 1.08 1.8 1.08s1.08-.36 1.62-1.26c3.06-4.5 5.58-9 8.28-14.58.9-1.8.72-2.52-1.08-3.78-10.62-7.56-19.44-11.52-32.4-16.74-1.44-12.24-1.98-19.98-1.98-30.6-.18-3.06 0-5.22.72-7.38s1.08-3.42 1.08-3.78c0-1.62-.9-2.52-2.52-2.88-6.12-1.8-10.8-2.52-19.62-3.42 1.08 5.04 1.26 7.92 1.44 12.78.18 8.46.54 19.44 1.62 30.96Zm.36 17.1c.18 1.08.18 1.98.18 3.6 0 7.56-5.94 12.78-15.66 12.78-10.26 0-15.3-2.88-15.3-8.64 0-6.84 7.02-10.44 16.02-10.44 5.58 0 10.44 1.26 14.76 2.7Zm-29.34-92.34c1.62-5.4 3.06-10.98 4.32-15.3 1.08-3.6 1.8-5.22 2.88-6.66 1.08-1.08 1.62-1.98 1.62-3.42 0-1.26-1.08-2.34-2.88-2.7-5.58-1.62-13.32-2.7-21.06-3.78 0 5.58 0 8.28-1.08 14.58-1.26 6.48-2.52 12.6-4.68 20.16-8.28.72-13.68.9-20.7.9-5.22 0-9.36-.18-16.74-.72.36 5.94.9 11.88 1.8 15.3.36 2.34.72 2.88 2.52 2.88 4.5.18 5.94.18 9.9.18 5.58 0 11.16 0 18-.36-8.1 21.6-17.64 40.5-31.14 62.82-.72.9-.9 1.62-.9 2.16 0 .72.36 1.26 1.26 1.98 3.06 2.88 8.28 6.66 12.42 9.18.9.54 1.62.9 2.16.9.72 0 1.26-.54 1.98-1.8 12.96-21.96 23.58-46.8 35.1-77.22 11.16-1.62 19.98-2.88 29.7-4.86 1.44-.18 2.16-.54 2.16-2.16-.18-4.68-.72-10.08-1.62-14.58-.36-1.98-1.08-1.98-2.7-1.44-7.02 1.62-15.3 3.24-22.32 3.96Zm39.96 17.1c13.68 4.5 26.64 12.42 37.26 19.62.72.54 1.08.72 1.62.72s1.08-.36 1.62-1.26c2.52-3.78 5.76-9.36 7.56-13.32.54-.9.72-1.62.72-2.16 0-.72-.54-1.26-1.62-1.98-10.44-6.84-24.66-14.04-35.28-16.92-1.8-.72-2.7-.54-3.78 1.26-2.34 3.24-5.04 8.64-8.1 14.04ZM1654.16 777.964c1.08-16.38 10.08-25.92 24.3-25.92 13.32 0 21.78 7.74 21.78 19.98 0 9.18-3.42 15.48-16.38 28.44-12.78 12.78-16.56 20.88-16.56 38.7v4.32h18.54c.18-16.74 2.34-22.5 17.28-34.92 16.02-13.5 21.42-23.94 21.42-36.54 0-23.04-18.18-37.98-46.26-37.98-26.64 0-43.92 14.4-47.34 38.52l23.22 5.4Zm9.54 82.98v24.3h25.56v-24.3h-25.56Z"/></svg>