<svg width="1920" height="1080" fill="none" xmlns="http://www.w3.org/2000/svg"><path d="M547.706 628.332c-10.157 0-12.295-9.622-12.295-16.571V380.298c0-3.208-2.673-5.881-5.88-5.881h-90.344v41.161h-12.296s-19.779-47.041-86.601-47.041c-75.911-.534-97.294 67.889-97.294 109.05V606.95c0 27.797 14.968 106.911 97.294 106.911 68.426 0 89.809-62.543 89.809-62.543h13.899s10.691 56.129 84.998 56.129h30.471c3.207 0 5.88-2.673 5.88-5.881v-73.234h-17.641Zm-108.519-42.23s-27.264 39.557-62.546 39.557c-27.264 0-39.559-14.967-39.559-42.764v-82.322c0-15.502 2.673-44.368 39.559-44.368 36.886 0 62.546 24.589 62.546 24.589v105.308ZM1035.79 803.13c0 2.138 1.06 3.741 2.67 4.811 8.02 5.88 37.42 22.985 107.98 22.985 177.48 0 165.19-154.487 165.19-157.159V380.295c0-3.208-2.67-5.88-5.88-5.88h-86.6v50.248h-11.76S1188.14 368 1120.78 368c-79.65 0-101.03 68.958-101.03 110.119v102.1c0 27.263 14.97 109.584 97.29 109.584 67.89 0 89.81-59.335 89.81-59.335h12.3v53.455c0 58.267-48.12 65.216-79.66 65.216-31 0-92.48-19.778-92.48-19.778h-10.69v73.769h-.53Zm184.43-238.948s-26.73 34.747-65.22 34.747c-24.06 0-39.56-9.088-39.56-44.369v-53.455c0-9.622 0-45.438 37.95-45.438 39.56 0 66.83 32.074 66.83 32.074v76.441Z" fill="#3C4043"/><path d="M909.628 626.726c-6.949 0-12.295-5.346-12.295-12.295V491.483c0-41.161-10.691-123.483-149.148-123.483-75.375 0-111.192 19.779-111.192 19.779v79.649h12.295s39.559-13.899 99.967-13.899c60.942 0 56.665 32.074 56.665 32.074v28.866s-43.301-.535-100.501-.535c-52.389 0-93.017 35.281-93.017 83.391v28.866c0 63.078 49.182 86.598 89.81 86.598 76.445 0 96.224-59.87 96.224-59.87h10.692s12.829 53.99 77.514 53.99l39.558.535c3.208 0 5.881-2.673 5.881-5.88v-74.838h-22.453Zm-103.173-18.175s-32.61 24.589-79.118 24.589c-22.987 1.069-22.987-18.175-22.987-21.382v-25.659c0-3.742 2.673-16.571 21.383-16.571h80.722v39.023ZM1578.91 643.299h-79.12c-4.81 0-9.08-4.277-9.08-9.088v-36.35h36.35c26.73 0 123.49-2.138 123.49-88.202 0-50.248-44.37-53.455-44.37-53.455v-10.691h65.21c3.21 0 5.88-2.673 5.88-5.881v-70.027h-176.41c-110.12 0-134.18 65.216-134.18 115.465 0 97.289 82.33 106.377 82.33 106.377v10.691s-51.86 8.553-51.86 56.128c0 29.936 18.18 42.765 18.18 42.765v12.295s-64.15 3.207-64.15 71.63c0 65.216 45.44 77.511 102.64 77.511 56.67 0 90.34.535 113.87.535 33.67 0 117.6 2.138 117.6-110.654.54-109.584-83.93-109.049-106.38-109.049Zm-72.17-198.321c31.01 0 34.22.535 34.22.535 7.48 0 21.38-.535 21.38 37.953 0 27.263-9.62 45.438-51.85 45.438-48.12 0-53.46-23.521-53.46-44.369 0-23.52 13.36-39.557 49.71-39.557Zm87.14 329.822c0 11.76-9.62 21.382-21.38 21.382h-108.52c-11.76 0-21.39-9.622-21.39-21.382v-29.935c0-13.364 9.09-25.659 19.78-25.659h109.59c11.76 0 21.39 9.622 21.39 21.382V774.8h.53Z" fill="#1A73E8"/></svg>