<svg width="1920" height="1080" fill="none" xmlns="http://www.w3.org/2000/svg"><path d="M987.853 404.849c-3.733 0-7.202-.483-10.408-1.448-3.187-1.03-5.756-2.252-7.706-3.668L974 386.22h6.2l-1.085 11.39a14.44 14.44 0 0 0 4.203 1.833c1.562.387 3.409.58 5.543.58 4.733 0 8.77-.998 12.109-2.993 3.36-2.059 5.54-4.954 6.56-8.686.83-3.089.48-5.47-1.07-7.143-1.46-1.737-4.11-3.41-7.94-5.019l-3.481-1.544c-4.611-1.931-8.106-4.408-10.487-7.432-2.296-3.089-2.782-7.078-1.457-11.969 1.011-3.732 2.841-6.917 5.489-9.555 2.715-2.638 5.964-4.665 9.748-6.081 3.798-1.48 7.838-2.22 12.098-2.22 3.34 0 6.25.451 8.74 1.351 2.49.901 4.59 2.124 6.3 3.668l-4.02 12.644h-6.1l.85-10.906c-2.12-1.287-4.67-1.931-7.67-1.931-3.8 0-7.26.933-10.363 2.799-3.088 1.802-5.12 4.504-6.097 8.108-.802 2.96-.497 5.405.913 7.335 1.477 1.931 3.832 3.572 7.067 4.923l3.61 1.448c5.87 2.445 9.78 5.212 11.75 8.3 1.98 3.025 2.35 6.821 1.11 11.39-1.03 3.796-2.95 7.078-5.77 9.845-2.73 2.702-6.06 4.794-10 6.274-3.93 1.48-8.23 2.22-12.897 2.22Zm24.337 21.62.92-3.378 8.36-1.351a392.94 392.94 0 0 0 2.25-7.915c.76-2.574 1.49-5.148 2.19-7.722l7.48-27.604a225.13 225.13 0 0 0 1.68-6.564c.47-1.737.9-3.571 1.29-5.501l-7.67-.869.92-3.378 15.59-5.888 1.24.965-1.1 6.274c6.04-4.826 11.73-7.239 17.06-7.239 3.6 0 6.57.965 8.92 2.896 2.34 1.93 3.86 4.697 4.55 8.3.77 3.539.48 7.818-.88 12.837-1.34 4.955-3.41 9.266-6.2 12.934-2.78 3.604-6 6.403-9.68 8.397-3.61 1.995-7.38 2.993-11.31 2.993-2.27 0-4.41-.451-6.43-1.352-1.96-.901-3.68-2.541-5.17-4.922l-2.07 7.625c-.69 2.574-1.39 5.148-2.09 7.721-.65 2.639-1.29 5.277-1.94 7.915l8.71 1.448-.92 3.378h-25.7Zm46.32-64.668c-1.53 0-3.4.386-5.61 1.158-2.19.708-4.84 2.091-7.93 4.15l-7.34 27.122c1.39 1.738 2.88 2.992 4.48 3.765 1.59.772 3.31 1.158 5.18 1.158 3.73 0 7.33-1.448 10.78-4.344 3.45-2.895 6.02-7.464 7.71-13.705 1.68-6.178 1.8-10.939.37-14.285-1.42-3.346-3.97-5.019-7.64-5.019Zm41.79 42.855c-3.87 0-7.33-.869-10.39-2.607-2.98-1.801-5.09-4.472-6.33-8.011-1.23-3.603-1.12-8.043.31-13.319 1.44-5.341 3.76-9.813 6.93-13.417 3.2-3.667 6.77-6.402 10.73-8.204 4.03-1.866 7.99-2.799 11.85-2.799 3.87 0 7.28.933 10.25 2.799 3.04 1.802 5.17 4.537 6.37 8.204 1.29 3.604 1.21 8.076-.23 13.417-1.43 5.276-3.77 9.716-7.01 13.319-3.16 3.539-6.75 6.21-10.77 8.011-3.94 1.738-7.84 2.607-11.71 2.607Zm1.18-4.344c4.33 0 8.11-1.641 11.33-4.922 3.24-3.346 5.73-8.237 7.48-14.671 1.76-6.499 1.93-11.454.52-14.865-1.4-3.41-4.28-5.115-8.61-5.115-4.33 0-8.13 1.705-11.39 5.115-3.19 3.411-5.66 8.366-7.42 14.865-1.75 6.434-1.94 11.325-.58 14.671 1.45 3.281 4.34 4.922 8.67 4.922Zm45.83 4.344c-3.47 0-5.99-.901-7.57-2.703-1.58-1.802-1.86-4.569-.85-8.301.33-1.222.65-2.413.97-3.571.39-1.223.85-2.767 1.35-4.633l6.17-22.779h-8.3l1.15-4.247 9.19-1.061 6.11-12.934h6l-4.16 13.127h13.5l-1.39 5.115h-13.6l-8.1 29.922c-.67 2.445-.65 4.246.03 5.405.71 1.094 1.89 1.64 3.56 1.64 1.13 0 2.26-.225 3.38-.675 1.19-.451 2.53-1.094 4.02-1.931l1.72 2.51c-3.65 3.41-8.05 5.116-13.18 5.116Zm33.4 0c-3.47 0-5.99-.901-7.57-2.703-1.58-1.802-1.86-4.569-.85-8.301.33-1.222.65-2.413.97-3.571.39-1.223.84-2.767 1.35-4.633l6.17-22.779h-8.3l1.15-4.247 9.19-1.061 6.1-12.934h6l-4.15 13.127h13.5l-1.39 5.115h-13.6l-8.1 29.922c-.67 2.445-.66 4.246.03 5.405.7 1.094 1.89 1.64 3.56 1.64 1.13 0 2.26-.225 3.38-.675 1.19-.451 2.53-1.094 4.02-1.931l1.72 2.51c-3.66 3.41-8.05 5.116-13.18 5.116Zm15.86-1.255.94-3.475 7.86-1.351c.73-2.445 1.48-5.084 2.25-7.915a417.4 417.4 0 0 0 2.14-7.528l1.23-4.537c.71-2.638 1.27-4.826 1.68-6.563.48-1.802.92-3.668 1.31-5.598l-7.76-.869.91-3.378 17-5.888 1.24.965-3.86 13.127-3.45 12.741c-.58 2.123-1.26 4.633-2.04 7.528-.7 2.831-1.35 5.47-1.95 7.915l6.64 1.351-.94 3.475h-23.2Zm27.43-57.719c-1.86 0-3.31-.579-4.32-1.738-.96-1.158-1.19-2.638-.7-4.439.5-1.867 1.54-3.346 3.1-4.44 1.65-1.159 3.41-1.738 5.27-1.738 1.87 0 3.28.579 4.23 1.738 1.04 1.094 1.3 2.573.8 4.44-.49 1.801-1.56 3.281-3.2 4.439-1.59 1.159-3.31 1.738-5.18 1.738Zm2.85 57.719.94-3.475 7.77-1.351c.73-2.445 1.48-5.084 2.24-7.915.84-2.831 1.55-5.341 2.14-7.528l1.26-4.633a225.13 225.13 0 0 0 1.68-6.564c.47-1.737.9-3.571 1.29-5.501l-7.67-.869.92-3.378 15.59-5.888 1.24.965-1.29 7.722a44.73 44.73 0 0 1 10.2-6.274c3.63-1.609 6.99-2.413 10.05-2.413 4.34 0 7.15 1.416 8.45 4.247 1.39 2.767 1.22 7.303-.49 13.609l-2.43 8.977c-.59 2.187-1.27 4.697-2.04 7.528-.7 2.831-1.35 5.47-1.94 7.915l6.63 1.351-.94 3.475h-23.2l.94-3.475 7.77-1.351c.71-2.381 1.45-4.987 2.22-7.818.85-2.896 1.57-5.438 2.16-7.625l2.23-8.205c1.2-4.44 1.36-7.496.48-9.169-.81-1.673-2.69-2.51-5.62-2.51-2.27 0-4.59.451-6.97 1.352-2.37.901-5.11 2.381-8.2 4.44l-3.82 14.092c-.57 2.123-1.25 4.633-2.04 7.528-.7 2.831-1.35 5.47-1.94 7.915l6.53 1.351-.94 3.475h-23.2Zm85.58-19.304c3.2 0 6.01-1.158 8.44-3.475 2.42-2.316 4.12-5.244 5.08-8.783.92-3.411.8-6.178-.35-8.301-1.08-2.188-3.18-3.282-6.31-3.282-3.14 0-5.91 1.126-8.32 3.379-2.39 2.187-4.07 5.051-5.03 8.59-.96 3.539-.9 6.402.17 8.59 1.15 2.188 3.25 3.282 6.32 3.282Zm-.85 3.861c-2.6 0-4.97-.354-7.11-1.062-2.23 2.059-3.62 4.118-4.18 6.177-.34 1.287-.26 2.317.27 3.089.59.772 2.05 1.158 4.38 1.158h13.1c5.54 0 9.31 1.094 11.31 3.282 2.01 2.187 2.48 5.244 1.42 9.169-.75 2.767-2.41 5.437-4.97 8.011-2.5 2.574-5.8 4.665-9.9 6.274-4.1 1.609-8.89 2.413-14.35 2.413-7.27 0-12.24-1.094-14.92-3.282-2.67-2.187-3.54-4.987-2.62-8.397.56-2.059 1.78-3.989 3.67-5.791 1.94-1.737 4.97-3.475 9.11-5.212-4.09-1.158-5.62-3.604-4.61-7.336.42-1.544 1.35-3.153 2.81-4.826 1.52-1.673 3.81-3.635 6.89-5.887-2.05-1.287-3.47-3.057-4.26-5.309-.72-2.252-.64-5.019.25-8.301 1.38-5.083 4.13-8.976 8.26-11.679 4.22-2.767 8.93-4.15 14.13-4.15 5.26 0 9.16 1.255 11.68 3.764l12.32-3.764 1.24.965-1.65 6.081h-9.8c.89 2.381.86 5.309-.08 8.783-1.38 5.084-4.18 9.009-8.39 11.776-4.13 2.702-8.8 4.054-14 4.054Zm-18.95 25.288c-.86 3.153-.3 5.405 1.67 6.756 1.96 1.351 4.91 2.027 8.85 2.027 5.46 0 9.89-.965 13.28-2.896 3.38-1.866 5.43-4.15 6.16-6.852.57-2.124.3-3.926-.84-5.406-1.15-1.415-3.52-2.123-7.12-2.123h-11.7c-.67 0-1.36-.032-2.07-.096-.67 0-1.33-.033-1.98-.097-1.78 1.416-3.16 2.799-4.12 4.15a14.328 14.328 0 0 0-2.13 4.537Zm69.56-9.845.94-3.475 8.27-1.351c.76-2.574 1.5-5.148 2.19-7.722.77-2.574 1.5-5.148 2.19-7.721l5.55-20.463h-8.3l1.15-4.247 8.79-1.061c1.86-5.148 3.72-9.298 5.57-12.451 1.94-3.218 4.46-6.017 7.58-8.398 2.69-2.059 5.3-3.474 7.85-4.246 2.54-.773 4.94-1.159 7.21-1.159 2.33 0 4.29.419 5.86 1.255 1.59.772 2.37 2.091 2.33 3.957-.4 1.223-1.25 2.253-2.54 3.089-1.29.837-2.87 1.255-4.74 1.255-2.4 0-4.54-.965-6.41-2.896l-2.23-2.123-.96.579-.75.579c-2.19 1.673-4.21 4.215-6.07 7.625-1.77 3.346-3.32 7.722-4.65 13.127h13.8l-1.39 5.115h-13.6l-5.55 20.463c-.69 2.573-1.39 5.147-2.09 7.721-.61 2.51-1.23 5.051-1.86 7.625l8.6 1.448-.94 3.475h-25.8Zm73.09.965c-2.4 0-4.21-.676-5.45-2.027-1.23-1.351-1.74-3.153-1.53-5.405-3.43 2.574-6.36 4.504-8.77 5.791-2.42 1.287-5.09 1.931-8.03 1.931-3.66 0-6.56-.998-8.68-2.993-2.05-2.059-2.53-5.083-1.45-9.072.51-1.867 1.41-3.604 2.72-5.213 1.37-1.608 3.46-3.185 6.28-4.729 2.82-1.544 6.67-3.089 11.55-4.633 1.68-.515 3.59-1.062 5.75-1.641 2.15-.579 4.29-1.094 6.42-1.544l.65-2.413c1.27-4.697 1.38-7.818.34-9.363-1.05-1.544-3.24-2.316-6.58-2.316-.73 0-1.57.032-2.52.096-.89.065-1.9.226-3.03.483l-3.6 6.274c-1.77 3.088-3.93 4.633-6.46 4.633-2.8 0-4.01-1.319-3.63-3.958 1.93-3.667 4.92-6.563 8.96-8.686 4.12-2.188 8.72-3.282 13.79-3.282 5.26 0 8.81 1.287 10.65 3.861 1.85 2.509 1.95 6.821.3 12.933l-5.57 20.559c-.56 2.059-.63 3.539-.21 4.44.44.837 1.2 1.255 2.26 1.255.87 0 1.66-.193 2.36-.579.7-.386 1.41-.901 2.12-1.545l1.42 2.124c-1.7 1.866-3.39 3.185-5.07 3.957a12.124 12.124 0 0 1-4.99 1.062Zm-24.61-13.223c-.7 2.574-.43 4.407.81 5.501 1.23 1.094 2.98 1.641 5.25 1.641 1 0 1.97-.129 2.91-.386 1-.257 2.23-.74 3.69-1.448 1.47-.772 3.4-1.866 5.79-3.281l4-14.768c-1.86.451-3.7.965-5.52 1.544-1.81.515-3.3.966-4.47 1.352-3.16 1.094-5.6 2.22-7.31 3.378-1.72 1.158-2.95 2.284-3.72 3.378-.69 1.094-1.17 2.124-1.43 3.089Zm36.65 12.258.95-3.475 8.36-1.351c.77-2.574 1.5-5.148 2.19-7.722.78-2.638 1.52-5.212 2.2-7.721l11.48-42.373-7.94-.965.91-3.378 16.78-4.343 1.19.772-4.11 13.705-9.13 33.686 21.75-17.181-6.92-1.737 1.02-3.764h23.3l-1.02 3.764-9.77 1.351-13.96 10.907 9.58 25.192 6.29 1.158-.95 3.475h-13.6l-8.91-23.937-8.38 6.563c-.56 2.059-1.12 4.151-1.7 6.274-.51 2.123-1.01 4.215-1.5 6.274l7.64 1.351-.95 3.475h-24.8Zm88.7-42.662c-1.87 0-3.91.515-6.12 1.544-2.15 1.03-4.22 2.671-6.24 4.923-1.94 2.252-3.62 5.244-5.03 8.976h18.2c2.4 0 4.1-.482 5.09-1.448 1.07-.965 1.79-2.155 2.17-3.571.51-1.866.47-3.571-.11-5.115-.5-1.609-1.45-2.896-2.86-3.861-1.33-.965-3.04-1.448-5.1-1.448Zm-12 43.917c-6.74 0-11.57-2.092-14.5-6.274-2.92-4.247-3.37-10.071-1.37-17.47 1.34-4.955 3.55-9.266 6.61-12.934 3.12-3.668 6.7-6.531 10.72-8.59 4.09-2.059 8.21-3.089 12.34-3.089 3.47 0 6.4.74 8.8 2.22 2.4 1.48 4.06 3.603 4.97 6.37.94 2.703.87 6.017-.19 9.942-.3 1.094-.64 2.123-1.04 3.088-.38.901-.75 1.673-1.13 2.317h-31.9c-1.47 5.92-1.15 10.424.94 13.513 2.1 3.088 5.55 4.633 10.35 4.633 3.2 0 6.03-.612 8.49-1.834 2.49-1.287 4.9-2.928 7.24-4.923l1.9 1.834c-2.79 3.411-6.06 6.145-9.82 8.204-3.74 1.995-7.88 2.993-12.41 2.993Zm44.17 0c-2.8 0-5.27-.322-7.43-.966-2.18-.579-4.34-1.48-6.47-2.702l2.47-10.617h5.5l-.37 8.397c2.05 1.029 4.61 1.544 7.68 1.544 3.8 0 6.78-.676 8.95-2.027 2.23-1.351 3.65-3.121 4.24-5.308.56-2.06.23-3.7-.97-4.923-1.18-1.287-3.2-2.445-6.06-3.475l-4.15-1.64c-3.32-1.287-5.8-2.96-7.44-5.02-1.64-2.059-2.02-4.729-1.13-8.011.64-2.38 1.91-4.6 3.8-6.66 1.89-2.059 4.31-3.732 7.26-5.019s6.29-1.93 10.03-1.93c2.73 0 5.1.354 7.11 1.062 2.09.643 4.03 1.608 5.81 2.895l-3.06 9.845h-5.2l.49-7.721c-1.97-1.094-4.12-1.641-6.46-1.641-3.06 0-5.56.611-7.49 1.834-1.85 1.158-3.04 2.735-3.58 4.729-.58 2.124-.35 3.732.69 4.826 1.1 1.094 3.19 2.252 6.26 3.475l2.81 1.062c4.51 1.801 7.49 3.861 8.92 6.177 1.51 2.316 1.85 4.987 1.03 8.011-.66 2.445-2.01 4.73-4.05 6.853-2.03 2.059-4.65 3.732-7.86 5.019-3.22 1.287-6.99 1.931-11.33 1.931ZM999.914 671.354l-8.383 24.734h16.679l-8.296-24.734ZM974.682 718v-3.403l6.972-1.079 17.679-51.46h5.227l17.68 51.792 6.23.747V718h-22.58v-3.403l8.13-.996-4.56-13.612h-19.257l-4.648 13.529 8.134 1.079V718h-19.007Zm77.728-52.124v-3.403h23.49v3.403l-7.64.913c-.05 3.541-.11 7.11-.17 10.707v25.979c.06 3.375.12 6.834.17 10.375h18.84l2.41-11.454h5.06l-.83 15.604h-41.33v-3.403l7.63-.913c.11-3.597.17-7.166.17-10.707v-25.564c0-3.597-.06-7.138-.17-10.624l-7.63-.913Zm47.9 0v-3.403h23.49v3.403l-7.64.913c-.05 3.486-.11 7.027-.16 10.624v25.564c.05 3.541.11 7.11.16 10.707l7.64.913V718h-23.49v-3.403l7.64-.913c.11-3.486.16-7.027.16-10.624v-25.564c0-3.597-.05-7.166-.16-10.707l-7.64-.913Zm28.81 11.371.66-14.774h45.49l.66 14.774h-4.81l-1.83-10.624h-12.7c-.05 3.541-.11 7.11-.16 10.707v25.647c.05 3.541.11 7.11.16 10.707l8.47.913V718h-25.07v-3.403l8.47-.913c.11-3.541.16-7.083.16-10.624v-25.647c0-3.597-.05-7.193-.16-10.79h-12.7l-1.83 10.624h-4.81Zm50.9 0 .67-14.774h45.48l.66 14.774h-4.81l-1.83-10.624h-12.69c-.06 3.541-.12 7.11-.17 10.707v25.647c.05 3.541.11 7.11.17 10.707l8.46.913V718h-25.06v-3.403l8.46-.913c.11-3.541.17-7.083.17-10.624v-25.647c0-3.597-.06-7.193-.17-10.79h-12.7l-1.82 10.624h-4.82Zm52.09-11.371v-3.403h23.49v3.403l-7.64.913c-.06 3.541-.11 7.11-.17 10.707v25.979c.06 3.375.11 6.834.17 10.375h18.84l2.41-11.454h5.06l-.83 15.604h-41.33v-3.403l7.63-.913c.11-3.597.17-7.166.17-10.707v-25.564c0-3.597-.06-7.138-.17-10.624l-7.63-.913Zm47.9 0v-3.403h41.33l.58 14.691h-4.73l-1.82-10.541h-19.51c-.05 3.541-.11 7.083-.16 10.624v10.458h12.2l1.16-7.885h3.82v19.588h-3.82l-1.08-7.802h-12.28v11.703c.05 3.597.11 7.11.16 10.541h21.17l1.82-10.624h4.73L1323 718h-42.99v-3.403l7.64-.913c.11-3.486.16-7.027.16-10.624v-25.564c0-3.597-.05-7.166-.16-10.707l-7.64-.913Zm104.08 0v-3.403h23.4v3.403l-7.63.913c-.06 3.486-.11 7.027-.17 10.624v25.564c.06 3.541.11 7.11.17 10.707l7.63.913V718h-23.4v-3.403l7.63-.913c.11-3.541.17-7.138.17-10.79v-11.371h-26.81v11.703c.05 3.597.11 7.11.17 10.541l7.55.83V718h-23.41v-3.403l7.64-.913c.11-3.486.16-7.027.16-10.624v-25.564c0-3.597-.05-7.166-.16-10.707l-7.64-.913v-3.403h23.41v3.403l-7.55.83c-.06 3.541-.12 7.083-.17 10.624v10.292h26.81v-10.624c0-3.431-.06-6.834-.17-10.209l-7.63-.913Zm52.79 5.478-8.38 24.734h16.68l-8.3-24.734ZM1411.65 718v-3.403l6.97-1.079 17.68-51.46h5.23l17.68 51.792 6.22.747V718h-22.57v-3.403l8.13-.996-4.57-13.612h-19.25l-4.65 13.529 8.13 1.079V718h-19Zm80.53-51.709h-7.14c-.05 3.652-.11 7.304-.16 10.956v11.288h6.39c4.48 0 7.77-1.079 9.88-3.237 2.15-2.158 3.23-4.897 3.23-8.217 0-3.486-.97-6.142-2.9-7.968-1.94-1.881-5.04-2.822-9.3-2.822Zm-22.99-.415v-3.403h23.24c6.36 0 11.32 1.273 14.86 3.818 3.54 2.545 5.31 6.114 5.31 10.707 0 3.209-1.16 6.142-3.49 8.798-2.32 2.656-5.81 4.399-10.45 5.229 2.43.498 4.42 1.577 5.97 3.237 1.61 1.605 2.88 4.039 3.82 7.304l3.57 12.284 6.39.747V718c-.83.221-1.77.415-2.82.581-1 .166-2.13.249-3.4.249-2.61 0-4.57-.387-5.9-1.162-1.27-.775-2.16-2.158-2.65-4.15l-3.32-13.28c-.5-2.269-1.22-3.956-2.16-5.063-.94-1.162-2.16-1.937-3.65-2.324-1.44-.387-3.3-.581-5.56-.581h-4.07v11.205c.05 3.486.11 6.889.16 10.209l7.64.913V718h-23.49v-3.403l7.64-.913c.11-3.486.16-7.027.16-10.624v-25.564c0-3.597-.05-7.166-.16-10.707l-7.64-.913Zm69.75 25.398v11.703c.06 3.763.11 7.47.17 11.122h6.55c6.42 0 11.35-2.075 14.78-6.225 3.43-4.205 5.14-10.071 5.14-17.596 0-7.802-1.68-13.75-5.06-17.845-3.37-4.095-8.08-6.142-14.11-6.142h-7.3c-.06 3.541-.11 7.166-.17 10.873v14.11Zm-15.69-25.398v-3.403h24.49c5.31 0 9.99 1.079 14.03 3.237 4.04 2.103 7.19 5.229 9.46 9.379 2.27 4.095 3.4 9.158 3.4 15.189 0 5.976-1.24 11.039-3.73 15.189-2.49 4.095-5.9 7.221-10.21 9.379-4.26 2.103-9.1 3.154-14.53 3.154h-22.91v-3.403l7.64-.913c.11-3.541.17-7.138.17-10.79v-25.398c0-3.597-.06-7.166-.17-10.707l-7.64-.913ZM977.767 561.979v-3.6l7.5-1.4c.066-2.533.1-5.266.1-8.2.066-3 .1-5.6.1-7.8v-4.7c0-2.733-.034-5-.1-6.8 0-1.866-.067-3.8-.2-5.8l-8-.9v-3.5l15.4-6.1 1.5 1-.3 13.6v21c.066 2.934.133 5.667.2 8.2l7.003 1.4v3.6h-23.203Zm11.8-59.8c-1.867 0-3.467-.6-4.8-1.8-1.267-1.2-1.9-2.733-1.9-4.6 0-1.933.633-3.466 1.9-4.6 1.333-1.2 2.933-1.8 4.8-1.8 1.866 0 3.433.6 4.7 1.8 1.333 1.134 2 2.667 2 4.6 0 1.867-.667 3.4-2 4.6-1.267 1.2-2.834 1.8-4.7 1.8Zm34.483 61.1c-2.8 0-5.36-.333-7.7-1-2.33-.6-4.73-1.533-7.2-2.8l-.4-11h5.5l1.9 8.7c2.34 1.067 5.04 1.6 8.1 1.6 3.8 0 6.6-.7 8.4-2.1 1.87-1.4 2.8-3.233 2.8-5.5 0-2.133-.76-3.833-2.3-5.1-1.53-1.333-3.86-2.533-7-3.6l-4.6-1.7c-3.66-1.333-6.6-3.066-8.8-5.2-2.2-2.133-3.3-4.9-3.3-8.3 0-2.466.67-4.766 2-6.9 1.34-2.133 3.3-3.866 5.9-5.2 2.6-1.333 5.77-2 9.5-2 2.74 0 5.2.367 7.4 1.1 2.27.667 4.47 1.667 6.6 3l-.4 10.2h-5.2l-1.6-8c-2.26-1.133-4.56-1.7-6.9-1.7-3.06 0-5.4.634-7 1.9-1.53 1.2-2.3 2.834-2.3 4.9 0 2.2.67 3.867 2 5 1.4 1.134 3.8 2.334 7.2 3.6l3.1 1.1c5 1.867 8.54 4 10.6 6.4 2.14 2.4 3.2 5.167 3.2 8.3 0 2.534-.73 4.9-2.2 7.1-1.46 2.134-3.63 3.867-6.5 5.2-2.86 1.334-6.46 2-10.8 2Zm66.7 0c-2.8 0-5.37-.333-7.7-1-2.33-.6-4.73-1.533-7.2-2.8l-.4-11h5.5l1.9 8.7c2.33 1.067 5.03 1.6 8.1 1.6 3.8 0 6.6-.7 8.4-2.1 1.87-1.4 2.8-3.233 2.8-5.5 0-2.133-.77-3.833-2.3-5.1-1.53-1.333-3.87-2.533-7-3.6l-4.6-1.7c-3.67-1.333-6.6-3.066-8.8-5.2-2.2-2.133-3.3-4.9-3.3-8.3 0-2.466.67-4.766 2-6.9 1.33-2.133 3.3-3.866 5.9-5.2 2.6-1.333 5.77-2 9.5-2 2.73 0 5.2.367 7.4 1.1 2.27.667 4.47 1.667 6.6 3l-.4 10.2h-5.2l-1.6-8c-2.27-1.133-4.57-1.7-6.9-1.7-3.07 0-5.4.634-7 1.9-1.53 1.2-2.3 2.834-2.3 4.9 0 2.2.67 3.867 2 5 1.4 1.134 3.8 2.334 7.2 3.6l3.1 1.1c5 1.867 8.53 4 10.6 6.4 2.13 2.4 3.2 5.167 3.2 8.3 0 2.534-.73 4.9-2.2 7.1-1.47 2.134-3.63 3.867-6.5 5.2-2.87 1.334-6.47 2-10.8 2Zm50.76 0c-3.87 0-7.57-.9-11.1-2.7-3.47-1.866-6.3-4.633-8.5-8.3-2.2-3.733-3.3-8.333-3.3-13.8 0-5.533 1.1-10.166 3.3-13.9 2.2-3.8 5.03-6.633 8.5-8.5 3.53-1.933 7.23-2.9 11.1-2.9 3.87 0 7.53.967 11 2.9 3.53 1.867 6.4 4.7 8.6 8.5 2.27 3.734 3.4 8.367 3.4 13.9 0 5.467-1.13 10.067-3.4 13.8-2.2 3.667-5.07 6.434-8.6 8.3-3.47 1.8-7.13 2.7-11 2.7Zm0-4.5c4.33 0 7.67-1.7 10-5.1 2.33-3.466 3.5-8.533 3.5-15.2 0-6.733-1.17-11.866-3.5-15.4-2.33-3.533-5.67-5.3-10-5.3s-7.67 1.767-10 5.3c-2.27 3.534-3.4 8.667-3.4 15.4 0 6.667 1.13 11.734 3.4 15.2 2.33 3.4 5.67 5.1 10 5.1Zm31.48 3.2v-3.6l7.4-1.4c.07-2.533.1-5.266.1-8.2.07-2.933.1-5.533.1-7.8v-4.8c0-2.733-.03-5-.1-6.8 0-1.8-.06-3.7-.2-5.7l-7.9-.9v-3.5l14-6.1 1.5 1 .8 8.1a28.895 28.895 0 0 1 8.2-6.5c3.14-1.733 6.24-2.6 9.3-2.6 3.14 0 5.67.734 7.6 2.2 2 1.467 3.44 3.867 4.3 7.2 2.54-3.133 5.37-5.466 8.5-7 3.14-1.6 6.34-2.4 9.6-2.4 4.07 0 7.2 1.367 9.4 4.1 2.27 2.734 3.4 7.2 3.4 13.4v18.1c.07 2.934.14 5.667.2 8.2l7 1.4v3.6h-23.2v-3.6l7.4-1.4c.07-2.466.1-5.166.1-8.1.07-3 .1-5.633.1-7.9v-8.7c0-4.666-.66-7.8-2-9.4-1.33-1.666-3.46-2.5-6.4-2.5-2.06 0-4.2.467-6.4 1.4-2.13.934-4.46 2.567-7 4.9.07.734.1 1.534.1 2.4.07.8.1 1.667.1 2.6v17.1c.07 2.934.14 5.667.2 8.2l7 1.4v3.6h-23.2v-3.6l7.4-1.4c.07-2.466.1-5.166.1-8.1.07-3 .1-5.633.1-7.9v-8.5c0-4.533-.63-7.666-1.9-9.4-1.26-1.8-3.36-2.7-6.3-2.7-2.26 0-4.43.467-6.5 1.4-2.06.934-4.33 2.467-6.8 4.6v22.4c.07 2.934.14 5.667.2 8.2l6.9 1.4v3.6h-23.2Zm113.04-44.2c-1.87 0-3.77.534-5.7 1.6-1.87 1.067-3.5 2.767-4.9 5.1-1.33 2.334-2.2 5.434-2.6 9.3h18.2c2.4 0 3.97-.5 4.7-1.5.8-1 1.2-2.233 1.2-3.7 0-1.933-.5-3.7-1.5-5.3-.93-1.666-2.23-3-3.9-4-1.6-1-3.43-1.5-5.5-1.5Zm-.1 45.5c-6.73 0-12.13-2.166-16.2-6.5-4.07-4.4-6.1-10.433-6.1-18.1 0-5.133 1.03-9.6 3.1-13.4 2.13-3.8 4.93-6.766 8.4-8.9 3.53-2.133 7.37-3.2 11.5-3.2 3.47 0 6.6.767 9.4 2.3 2.8 1.534 5.03 3.734 6.7 6.6 1.67 2.8 2.5 6.234 2.5 10.3 0 1.134-.07 2.2-.2 3.2-.13.934-.3 1.734-.5 2.4h-31.9c.13 6.134 1.67 10.8 4.6 14 2.93 3.2 6.8 4.8 11.6 4.8 3.2 0 5.87-.633 8-1.9 2.13-1.333 4.1-3.033 5.9-5.1l2.4 1.9c-1.87 3.534-4.4 6.367-7.6 8.5-3.2 2.067-7.07 3.1-11.6 3.1Zm44.68 0c-3.47 0-6.24-.933-8.3-2.8-2.07-1.866-3.1-4.733-3.1-8.6v-3.7c.06-1.266.1-2.866.1-4.8v-23.6h-8.3v-4.4l8.9-1.1 2.6-13.4h6l-.6 13.6h13.5v5.3h-13.6v31c0 2.534.5 4.4 1.5 5.6 1 1.134 2.33 1.7 4 1.7 1.13 0 2.2-.233 3.2-.7 1.06-.466 2.23-1.133 3.5-2l2.4 2.6c-2.74 3.534-6.67 5.3-11.8 5.3Zm15.52-1.3v-3.6l7.5-1.4c.06-2.533.1-5.266.1-8.2.06-3 .1-5.6.1-7.8v-4.7c0-2.733-.04-5-.1-6.8 0-1.866-.07-3.8-.2-5.8l-8-.9v-3.5l15.4-6.1 1.5 1-.3 13.6v21c.06 2.934.13 5.667.2 8.2l7 1.4v3.6h-23.2Zm11.8-59.8c-1.87 0-3.47-.6-4.8-1.8-1.27-1.2-1.9-2.733-1.9-4.6 0-1.933.63-3.466 1.9-4.6 1.33-1.2 2.93-1.8 4.8-1.8 1.86 0 3.43.6 4.7 1.8 1.33 1.134 2 2.667 2 4.6 0 1.867-.67 3.4-2 4.6-1.27 1.2-2.84 1.8-4.7 1.8Zm18.48 59.8v-3.6l7.4-1.4c.07-2.533.1-5.266.1-8.2.07-2.933.1-5.533.1-7.8v-4.8c0-2.733-.03-5-.1-6.8 0-1.8-.07-3.7-.2-5.7l-7.9-.9v-3.5l14-6.1 1.5 1 .8 8.1a28.757 28.757 0 0 1 8.2-6.5c3.13-1.733 6.23-2.6 9.3-2.6 3.13 0 5.67.734 7.6 2.2 2 1.467 3.43 3.867 4.3 7.2 2.53-3.133 5.37-5.466 8.5-7 3.13-1.6 6.33-2.4 9.6-2.4 4.07 0 7.2 1.367 9.4 4.1 2.27 2.734 3.4 7.2 3.4 13.4v18.1c.07 2.934.13 5.667.2 8.2l7 1.4v3.6h-23.2v-3.6l7.4-1.4c.07-2.466.1-5.166.1-8.1.07-3 .1-5.633.1-7.9v-8.7c0-4.666-.67-7.8-2-9.4-1.33-1.666-3.47-2.5-6.4-2.5-2.07 0-4.2.467-6.4 1.4-2.13.934-4.47 2.567-7 4.9.07.734.1 1.534.1 2.4.07.8.1 1.667.1 2.6v17.1c.07 2.934.13 5.667.2 8.2l7 1.4v3.6h-23.2v-3.6l7.4-1.4c.07-2.466.1-5.166.1-8.1.07-3 .1-5.633.1-7.9v-8.5c0-4.533-.63-7.666-1.9-9.4-1.27-1.8-3.37-2.7-6.3-2.7-2.27 0-4.43.467-6.5 1.4-2.07.934-4.33 2.467-6.8 4.6v22.4c.07 2.934.13 5.667.2 8.2l6.9 1.4v3.6h-23.2Zm113.04-44.2c-1.87 0-3.77.534-5.7 1.6-1.87 1.067-3.5 2.767-4.9 5.1-1.34 2.334-2.2 5.434-2.6 9.3h18.2c2.4 0 3.96-.5 4.7-1.5.8-1 1.2-2.233 1.2-3.7 0-1.933-.5-3.7-1.5-5.3-.94-1.666-2.24-3-3.9-4-1.6-1-3.44-1.5-5.5-1.5Zm-.1 45.5c-6.74 0-12.14-2.166-16.2-6.5-4.07-4.4-6.1-10.433-6.1-18.1 0-5.133 1.03-9.6 3.1-13.4 2.13-3.8 4.93-6.766 8.4-8.9 3.53-2.133 7.36-3.2 11.5-3.2 3.46 0 6.6.767 9.4 2.3 2.8 1.534 5.03 3.734 6.7 6.6 1.66 2.8 2.5 6.234 2.5 10.3 0 1.134-.07 2.2-.2 3.2-.14.934-.3 1.734-.5 2.4h-31.9c.13 6.134 1.66 10.8 4.6 14 2.93 3.2 6.8 4.8 11.6 4.8 3.2 0 5.86-.633 8-1.9 2.13-1.333 4.1-3.033 5.9-5.1l2.4 1.9c-1.87 3.534-4.4 6.367-7.6 8.5-3.2 2.067-7.07 3.1-11.6 3.1Zm44.17 0c-2.8 0-5.36-.333-7.7-1-2.33-.6-4.73-1.533-7.2-2.8l-.4-11h5.5l1.9 8.7c2.34 1.067 5.04 1.6 8.1 1.6 3.8 0 6.6-.7 8.4-2.1 1.87-1.4 2.8-3.233 2.8-5.5 0-2.133-.76-3.833-2.3-5.1-1.53-1.333-3.86-2.533-7-3.6l-4.6-1.7c-3.66-1.333-6.6-3.066-8.8-5.2-2.2-2.133-3.3-4.9-3.3-8.3 0-2.466.67-4.766 2-6.9 1.34-2.133 3.3-3.866 5.9-5.2 2.6-1.333 5.77-2 9.5-2 2.74 0 5.2.367 7.4 1.1 2.27.667 4.47 1.667 6.6 3l-.4 10.2h-5.2l-1.6-8c-2.26-1.133-4.56-1.7-6.9-1.7-3.06 0-5.4.634-7 1.9-1.53 1.2-2.3 2.834-2.3 4.9 0 2.2.67 3.867 2 5 1.4 1.134 3.8 2.334 7.2 3.6l3.1 1.1c5 1.867 8.54 4 10.6 6.4 2.14 2.4 3.2 5.167 3.2 8.3 0 2.534-.73 4.9-2.2 7.1-1.46 2.134-3.63 3.867-6.5 5.2-2.86 1.334-6.46 2-10.8 2Z" fill="#FF6D7F"/><path d="M977.767 561.979h-3v3h3v-3Zm0-3.6-.551-2.949-2.449.457v2.492h3Zm7.5-1.4.55 2.949 2.385-.445.064-2.425-2.999-.079Zm.1-8.2-3-.066v.066h3Zm0-19.3h-3v.056l.002.055 2.998-.111Zm-.2-5.8 2.993-.199-.167-2.502-2.491-.28-.335 2.981Zm-8-.9h-3v2.682l2.664.299.336-2.981Zm0-3.5-1.105-2.789-1.895.751v2.038h3Zm15.4-6.1 1.664-2.496-1.308-.872-1.461.579 1.105 2.789Zm1.5 1 2.999.066.036-1.648-1.371-.914-1.664 2.496Zm-.3 13.6-3-.066v.066h3Zm0 21h-3v.068l3-.068Zm.2 8.2-2.999.079.063 2.393 2.347.47.589-2.942Zm7.003 1.4h3v-2.459l-2.42-.482-.58 2.941Zm0 3.6v3h3v-3h-3Zm-16.203-61.6-2.064 2.178.028.026.029.026 2.007-2.23Zm0-9.2 2 2.236.006-.006-2.006-2.23Zm9.5 0-2.064 2.178.059.056.062.052 1.943-2.286Zm0 9.2-2.007-2.23-.029.026-.028.026 2.064 2.178Zm-13.5 61.6v-3.6h-6v3.6h6Zm-2.45-.651 7.5-1.4-1.101-5.898-7.5 1.4 1.101 5.898Zm9.949-4.27c.067-2.563.101-5.323.101-8.279h-6c0 2.911-.033 5.618-.099 8.121l5.998.158Zm.1-8.212c.067-3.015.101-5.638.101-7.867h-6c0 2.172-.033 4.748-.1 7.734l5.999.133Zm.101-7.867v-4.7h-6v4.7h6Zm0-4.7c0-2.753-.034-5.06-.102-6.911l-5.996.222c.064 1.75.098 3.976.098 6.689h6Zm-.1-6.8c0-1.938-.07-3.938-.207-5.999l-5.987.399c.129 1.938.194 3.805.194 5.6h6Zm-2.865-8.781-8-.9-.671 5.962 8 .9.671-5.962Zm-5.335 2.081v-3.5h-6v3.5h6Zm-1.896-.711 15.4-6.1-2.209-5.578-15.4 6.1 2.209 5.578Zm12.632-6.393 1.5 1 3.328-4.992-1.5-1-3.328 4.992Zm.164-1.562-.3 13.6 5.999.132.3-13.6-5.999-.132Zm-.3 13.666v13.2h6v-13.2h-6Zm0 13.2V548.779h6V540.979h-6Zm0 7.868c.067 2.937.134 5.674.201 8.211l5.998-.158a2070.03 2070.03 0 0 1-.2-8.189l-5.999.136Zm2.611 11.074 7.002 1.4 1.17-5.883-6.995-1.4-1.177 5.883Zm4.589-1.542v3.6h6.003v-3.6h-6.003Zm3.003.6h-23.203v6h23.203v-6Zm-11.403-59.8c-1.159 0-2.035-.347-2.794-1.03l-4.013 4.46c1.908 1.718 4.232 2.57 6.807 2.57v-6Zm-2.737-.978c-.624-.59-.963-1.315-.963-2.422h-6c0 2.626.927 4.969 2.836 6.778l4.127-4.356Zm-.963-2.422c0-1.21.36-1.881.9-2.364l-4.001-4.471c-1.993 1.783-2.899 4.178-2.899 6.835h6Zm.906-2.37c.759-.682 1.635-1.03 2.794-1.03v-6c-2.575 0-4.899.853-6.807 2.57l4.013 4.46Zm2.794-1.03c1.158 0 1.968.345 2.636.978l4.127-4.356c-1.865-1.767-4.188-2.622-6.763-2.622v6Zm2.757 1.086c.587.499.943 1.157.943 2.314h6c0-2.709-.978-5.118-3.057-6.886l-3.886 4.572Zm.943 2.314c0 1.056-.335 1.765-1.007 2.37l4.013 4.46c1.995-1.795 2.994-4.152 2.994-6.83h-6Zm-1.064 2.422c-.668.633-1.478.978-2.636.978v6c2.575 0 4.898-.855 6.763-2.622l-4.127-4.356Zm24.147 64.078.83-2.884-.04-.011-.04-.01-.75 2.905Zm-7.2-2.8-3 .109.07 1.757 1.56.803 1.37-2.669Zm-.4-11v-3h-3.11l.11 3.109 3-.109Zm5.5 0 2.93-.64-.51-2.36h-2.42v3Zm1.9 8.7-2.93.64.32 1.465 1.36.624 1.25-2.729Zm16.5-.5-1.8-2.4-.02.016-.02.016 1.84 2.368Zm.5-10.6-1.97 2.264.03.025.03.024 1.91-2.313Zm-7-3.6-1.04 2.814.04.014.03.012.97-2.84Zm-4.6-1.7 1.04-2.814-.01-.002v-.003l-1.03 2.819Zm-8.8-5.2-2.09 2.154 2.09-2.154Zm-1.3-15.2-2.54-1.59 2.54 1.59Zm5.9-5.2-1.37-2.669 1.37 2.669Zm16.9-.9-.95 2.846.05.017.06.015.84-2.878Zm6.6 3 3 .118.07-1.739-1.48-.923-1.59 2.544Zm-.4 10.2v3h2.89l.11-2.882-3-.118Zm-5.2 0-2.94.589.48 2.411h2.46v-3Zm-1.6-8 2.94-.588-.28-1.439-1.32-.656-1.34 2.683Zm-13.9.2 1.85 2.363.01-.005v-.006l-1.86-2.352Zm-.3 9.9-1.94 2.286.03.023.02.023 1.89-2.332Zm7.2 3.6-1.05 2.811.03.009.02.008 1-2.828Zm3.1 1.1 1.05-2.81-.02-.009-.03-.008-1 2.827Zm10.6 6.4-2.27 1.958.01.018.02.017 2.24-1.993Zm1 15.4 2.47 1.7.02-.018.01-.018-2.5-1.664Zm-6.5 5.2 1.27 2.72-1.27-2.72Zm-10.8-1c-2.56 0-4.85-.305-6.87-.884l-1.65 5.769c2.64.754 5.48 1.115 8.52 1.115v-6Zm-6.95-.905c-2.09-.537-4.28-1.384-6.58-2.563l-2.74 5.337c2.64 1.354 5.25 2.374 7.82 3.037l1.5-5.811Zm-4.95-.004-.4-11-6 .218.4 11 6-.218Zm-3.4-7.891h5.5v-6h-5.5v6Zm2.57-2.36 1.9 8.7 5.86-1.28-1.9-8.7-5.86 1.28Zm3.58 10.789c2.8 1.277 5.94 1.871 9.35 1.871v-6c-2.72 0-4.98-.472-6.85-1.328l-2.5 5.457Zm9.35 1.871c4.06 0 7.67-.728 10.24-2.732l-3.68-4.736c-1.02.796-3.02 1.468-6.56 1.468v6Zm10.2-2.7c2.6-1.947 4-4.657 4-7.9h-6c0 1.29-.46 2.247-1.6 3.1l3.6 4.8Zm4-7.9c0-2.954-1.11-5.53-3.39-7.413l-3.82 4.626c.79.651 1.21 1.475 1.21 2.787h6Zm-3.33-7.364c-1.95-1.699-4.7-3.053-8-4.176l-1.94 5.68c2.97 1.011 4.89 2.056 6 3.024l3.94-4.528Zm-7.93-4.15-4.6-1.7-2.08 5.628 4.6 1.7 2.08-5.628Zm-4.61-1.705c-3.38-1.227-5.91-2.764-7.74-4.534l-4.18 4.307c2.58 2.496 5.91 4.426 9.87 5.866l2.05-5.639Zm-7.74-4.534c-1.55-1.504-2.39-3.461-2.39-6.147h-6c0 4.114 1.36 7.691 4.21 10.454l4.18-4.307Zm-2.39-6.147c0-1.892.5-3.643 1.55-5.31l-5.09-3.18c-1.63 2.6-2.46 5.45-2.46 8.49h6Zm1.55-5.31c1-1.604 2.52-2.994 4.72-4.12l-2.74-5.339c-3 1.54-5.41 3.617-7.07 6.279l5.09 3.18Zm4.72-4.12c2.08-1.065 4.75-1.67 8.13-1.67v-6c-4.08 0-7.74.728-10.87 2.331l2.74 5.339Zm8.13-1.67c2.47 0 4.61.331 6.45.946l1.9-5.692c-2.55-.851-5.35-1.254-8.35-1.254v6Zm6.56.978c1.98.585 3.93 1.468 5.85 2.666l3.18-5.088c-2.35-1.468-4.8-2.585-7.34-3.334l-1.69 5.756Zm4.44.005-.4 10.2 6 .235.4-10.2-6-.235Zm2.6 7.317h-5.2v6h5.2v-6Zm-2.26 2.412-1.6-8-5.88 1.177 1.6 8 5.88-1.177Zm-3.2-10.095c-2.64-1.323-5.4-2.017-8.24-2.017v6c1.83 0 3.67.44 5.56 1.384l2.68-5.367Zm-8.24-2.017c-3.42 0-6.52.697-8.86 2.548l3.72 4.704c.87-.682 2.43-1.252 5.14-1.252v-6Zm-8.85 2.538c-2.31 1.808-3.45 4.339-3.45 7.262h6c0-1.209.39-1.945 1.15-2.537l-3.7-4.725Zm-3.45 7.262c0 2.835.89 5.441 3.06 7.286l3.88-4.572c-.49-.421-.94-1.149-.94-2.714h-6Zm3.11 7.332c1.8 1.454 4.58 2.79 8.04 4.079l2.1-5.622c-3.34-1.244-5.36-2.308-6.36-3.12l-3.78 4.663Zm8.09 4.096 3.1 1.1 2-5.655-3.1-1.1-2 5.655Zm3.05 1.083c4.81 1.796 7.8 3.708 9.38 5.547l4.55-3.915c-2.55-2.962-6.64-5.316-11.83-7.253l-2.1 5.621Zm9.41 5.582c1.66 1.866 2.44 3.928 2.44 6.307h6c0-3.888-1.35-7.359-3.96-10.293l-4.48 3.986Zm2.44 6.307c0 1.915-.54 3.706-1.69 5.436l4.99 3.328c1.78-2.67 2.7-5.611 2.7-8.764h-6Zm-1.67 5.401c-1.1 1.603-2.81 3.022-5.29 4.179l2.53 5.44c3.24-1.509 5.87-3.557 7.7-6.22l-4.94-3.399Zm-5.29 4.179c-2.36 1.094-5.49 1.72-9.54 1.72v6c4.62 0 8.69-.707 12.07-2.28l-2.53-5.44Zm49.46 3.72.83-2.884-.04-.011-.04-.01-.75 2.905Zm-7.2-2.8-3 .109.07 1.757 1.56.803 1.37-2.669Zm-.4-11v-3h-3.11l.11 3.109 3-.109Zm5.5 0 2.93-.64-.51-2.36h-2.42v3Zm1.9 8.7-2.93.64.32 1.465 1.36.624 1.25-2.729Zm16.5-.5-1.8-2.4-.02.016-.02.016 1.84 2.368Zm.5-10.6-1.97 2.264.03.025.03.024 1.91-2.313Zm-7-3.6-1.04 2.814.04.014.03.012.97-2.84Zm-4.6-1.7 1.04-2.814-.01-.002v-.003l-1.03 2.819Zm-8.8-5.2-2.09 2.154 2.09-2.154Zm-1.3-15.2-2.54-1.59 2.54 1.59Zm5.9-5.2-1.37-2.669 1.37 2.669Zm16.9-.9-.95 2.846.05.017.05.015.85-2.878Zm6.6 3 3 .118.07-1.739-1.48-.923-1.59 2.544Zm-.4 10.2v3h2.89l.11-2.882-3-.118Zm-5.2 0-2.94.589.48 2.411h2.46v-3Zm-1.6-8 2.94-.588-.29-1.439-1.31-.656-1.34 2.683Zm-13.9.2 1.85 2.363.01-.005v-.006l-1.86-2.352Zm-.3 9.9-1.94 2.286.03.023.02.023 1.89-2.332Zm7.2 3.6-1.05 2.811.03.009.02.008 1-2.828Zm3.1 1.1 1.05-2.81-.02-.009-.03-.008-1 2.827Zm10.6 6.4-2.27 1.958.01.018.02.017 2.24-1.993Zm1 15.4 2.47 1.7.02-.018.01-.018-2.5-1.664Zm-6.5 5.2 1.27 2.72-1.27-2.72Zm-10.8-1c-2.56 0-4.85-.305-6.87-.884l-1.65 5.769c2.64.754 5.48 1.115 8.52 1.115v-6Zm-6.95-.905c-2.09-.537-4.28-1.384-6.58-2.563l-2.74 5.337c2.64 1.354 5.25 2.374 7.82 3.037l1.5-5.811Zm-4.95-.004-.4-11-6 .218.4 11 6-.218Zm-3.4-7.891h5.5v-6h-5.5v6Zm2.57-2.36 1.9 8.7 5.86-1.28-1.9-8.7-5.86 1.28Zm3.58 10.789c2.8 1.277 5.94 1.871 9.35 1.871v-6c-2.72 0-4.98-.472-6.85-1.328l-2.5 5.457Zm9.35 1.871c4.06 0 7.67-.728 10.24-2.732l-3.68-4.736c-1.02.796-3.02 1.468-6.56 1.468v6Zm10.2-2.7c2.6-1.947 4-4.657 4-7.9h-6c0 1.29-.46 2.247-1.6 3.1l3.6 4.8Zm4-7.9c0-2.954-1.11-5.53-3.39-7.413l-3.82 4.626c.79.651 1.21 1.475 1.21 2.787h6Zm-3.33-7.364c-1.95-1.699-4.7-3.053-8-4.176l-1.94 5.68c2.97 1.011 4.89 2.056 6 3.024l3.94-4.528Zm-7.93-4.15-4.6-1.7-2.08 5.628 4.6 1.7 2.08-5.628Zm-4.61-1.705c-3.38-1.227-5.92-2.764-7.74-4.534l-4.18 4.307c2.58 2.496 5.91 4.426 9.87 5.866l2.05-5.639Zm-7.74-4.534c-1.55-1.504-2.39-3.461-2.39-6.147h-6c0 4.114 1.36 7.691 4.21 10.454l4.18-4.307Zm-2.39-6.147c0-1.892.5-3.643 1.54-5.31l-5.08-3.18c-1.63 2.6-2.46 5.45-2.46 8.49h6Zm1.54-5.31c1.01-1.604 2.53-2.994 4.73-4.12l-2.74-5.339c-3 1.54-5.41 3.617-7.07 6.279l5.08 3.18Zm4.73-4.12c2.08-1.065 4.75-1.67 8.13-1.67v-6c-4.08 0-7.74.728-10.87 2.331l2.74 5.339Zm8.13-1.67c2.47 0 4.61.331 6.45.946l1.9-5.692c-2.56-.851-5.35-1.254-8.35-1.254v6Zm6.55.978c1.99.585 3.94 1.468 5.86 2.666l3.18-5.088c-2.35-1.468-4.8-2.585-7.34-3.334l-1.7 5.756Zm4.45.005-.4 10.2 6 .235.4-10.2-6-.235Zm2.6 7.317h-5.2v6h5.2v-6Zm-2.26 2.412-1.6-8-5.88 1.177 1.6 8 5.88-1.177Zm-3.2-10.095c-2.64-1.323-5.4-2.017-8.24-2.017v6c1.83 0 3.67.44 5.56 1.384l2.68-5.367Zm-8.24-2.017c-3.42 0-6.52.697-8.86 2.548l3.72 4.704c.86-.682 2.43-1.252 5.14-1.252v-6Zm-8.85 2.538c-2.31 1.808-3.45 4.339-3.45 7.262h6c0-1.209.39-1.945 1.15-2.537l-3.7-4.725Zm-3.45 7.262c0 2.835.89 5.441 3.06 7.286l3.88-4.572c-.49-.421-.94-1.149-.94-2.714h-6Zm3.11 7.332c1.8 1.454 4.58 2.79 8.04 4.079l2.1-5.622c-3.34-1.244-5.36-2.308-6.36-3.12l-3.78 4.663Zm8.09 4.096 3.1 1.1 2-5.655-3.1-1.1-2 5.655Zm3.05 1.083c4.81 1.796 7.79 3.708 9.38 5.547l4.54-3.915c-2.55-2.962-6.63-5.316-11.82-7.253l-2.1 5.621Zm9.41 5.582c1.66 1.866 2.44 3.928 2.44 6.307h6c0-3.888-1.35-7.359-3.96-10.293l-4.48 3.986Zm2.44 6.307c0 1.915-.54 3.706-1.7 5.436l5 3.328c1.78-2.67 2.7-5.611 2.7-8.764h-6Zm-1.67 5.401c-1.1 1.603-2.81 3.022-5.29 4.179l2.53 5.44c3.24-1.509 5.87-3.557 7.7-6.22l-4.94-3.399Zm-5.29 4.179c-2.36 1.094-5.49 1.72-9.54 1.72v6c4.62 0 8.68-.707 12.07-2.28l-2.53-5.44Zm30.12 2.02-1.42 2.642.03.016.03.015 1.36-2.673Zm-8.5-8.3-2.58 1.523v.011l.01.01 2.57-1.544Zm0-27.7 2.58 1.523.01-.01.01-.01-2.6-1.503Zm8.5-8.5 1.42 2.642.01-.005.01-.005-1.44-2.632Zm22.1 0-1.46 2.62.03.017.03.016 1.4-2.653Zm8.6 8.5-2.6 1.503.02.027.02.027 2.56-1.557Zm0 27.7-2.56-1.557-.01.007v.007l2.57 1.543Zm-8.6 8.3 1.38 2.663.01-.005.01-.005-1.4-2.653Zm-1-6.9 2.47 1.698.01-.011.01-.012-2.49-1.675Zm-20-30.6-2.5-1.653-.01.017-.01.016 2.52 1.62Zm0 30.6-2.51 1.642.02.028.02.028 2.47-1.698Zm10 6.6c-3.38 0-6.62-.782-9.74-2.373l-2.72 5.346c3.94 2.01 8.11 3.027 12.46 3.027v-6Zm-9.68-2.341c-2.95-1.589-5.4-3.957-7.35-7.202l-5.14 3.087c2.45 4.088 5.67 7.253 9.65 9.398l2.84-5.283Zm-7.34-7.182c-1.86-3.166-2.88-7.207-2.88-12.277h-6c0 5.864 1.18 11.022 3.72 15.323l5.16-3.046Zm-2.88-12.277c0-5.143 1.02-9.216 2.88-12.377l-5.16-3.046c-2.54 4.306-3.72 9.5-3.72 15.423h6Zm2.9-12.397c1.95-3.376 4.4-5.788 7.32-7.361l-2.84-5.283c-4.01 2.159-7.23 5.414-9.68 9.638l5.2 3.006Zm7.34-7.371c3.11-1.702 6.32-2.532 9.66-2.532v-6c-4.39 0-8.58 1.104-12.54 3.268l2.88 5.264Zm9.66-2.532c3.34 0 6.51.829 9.54 2.52l2.92-5.24c-3.9-2.175-8.07-3.28-12.46-3.28v6Zm9.6 2.553c2.99 1.578 5.46 3.988 7.4 7.35l5.2-3.006c-2.46-4.238-5.72-7.494-9.8-9.649l-2.8 5.305Zm7.44 7.404c1.91 3.154 2.96 7.214 2.96 12.343h6c0-5.937-1.22-11.144-3.84-15.457l-5.12 3.114Zm2.96 12.343c0 5.055-1.05 9.084-2.96 12.243l5.12 3.114c2.62-4.307 3.84-9.478 3.84-15.357h-6Zm-2.97 12.257c-1.94 3.231-4.42 5.598-7.43 7.191l2.8 5.305c4.05-2.141 7.31-5.307 9.77-9.409l-5.14-3.087Zm-7.41 7.181c-3.05 1.58-6.24 2.362-9.62 2.362v6c4.35 0 8.49-1.018 12.38-3.037l-2.76-5.325Zm-9.62 3.862c5.26 0 9.55-2.139 12.47-6.402l-4.94-3.395c-1.74 2.536-4.13 3.797-7.53 3.797v6Zm12.49-6.425c2.81-4.176 4.01-9.937 4.01-16.875h-6c0 6.396-1.13 10.768-2.99 13.525l4.98 3.35Zm4.01-16.875c0-7.003-1.2-12.818-4-17.053l-5 3.306c1.87 2.832 3 7.284 3 13.747h6Zm-4-17.053c-2.9-4.398-7.19-6.647-12.5-6.647v6c3.35 0 5.73 1.284 7.5 3.953l5-3.306Zm-12.5-6.647c-5.31 0-9.6 2.249-12.5 6.647l5 3.306c1.77-2.669 4.15-3.953 7.5-3.953v-6Zm-12.52 6.68c-2.72 4.228-3.88 10.028-3.88 17.02h6c0-6.474 1.1-10.94 2.93-13.78l-5.05-3.24Zm-3.88 17.02c0 6.927 1.16 12.673 3.89 16.842l5.02-3.284c-1.81-2.764-2.91-7.151-2.91-13.558h-6Zm3.93 16.898c2.92 4.263 7.21 6.402 12.47 6.402v-6c-3.4 0-5.79-1.261-7.53-3.797l-4.94 3.395Zm43.95 6.602h-3v3h3v-3Zm0-3.6-.55-2.947-2.45.462v2.485h3Zm7.4-1.4.56 2.948 2.38-.45.06-2.419-3-.079Zm.1-8.2-3-.068v.068h3Zm0-19.4h-3v.056l.01.055 2.99-.111Zm-.2-5.7 3-.199-.17-2.498-2.49-.283-.34 2.98Zm-7.9-.9h-3v2.678l2.66.303.34-2.981Zm0-3.5-1.2-2.75-1.8.785v1.965h3Zm14-6.1 1.67-2.496-1.36-.908-1.51.654 1.2 2.75Zm1.5 1 2.99-.295-.14-1.413-1.18-.788-1.67 2.496Zm.8 8.1-2.98.295.68 6.895 4.56-5.214-2.26-1.976Zm8.2-6.5 1.41 2.649.02-.012.03-.012-1.46-2.625Zm16.9-.4-1.81 2.39.02.015.02.014 1.77-2.419Zm4.3 7.2-2.9.755 1.5 5.757 3.74-4.626-2.34-1.886Zm8.5-7 1.32 2.695.02-.011.03-.012-1.37-2.672Zm19 1.7-2.33 1.881.01.017.01.017 2.31-1.915Zm3.4 31.5h-3v.068l3-.068Zm.2 8.2-3 .079.07 2.393 2.34.47.59-2.942Zm7 1.4h3v-2.459l-2.41-.482-.59 2.941Zm0 3.6v3h3v-3h-3Zm-23.2 0h-3v3h3v-3Zm0-3.6-.55-2.947-2.45.462v2.485h3Zm7.4-1.4.56 2.948 2.38-.45.06-2.417-3-.081Zm.1-8.1-3-.066v.066h3Zm-1.9-26-2.34 1.874.02.024.02.023 2.3-1.921Zm-12.8-1.1-1.17-2.761-.01.006-.02.007 1.2 2.748Zm-7 4.9-2.03-2.206-1.09 1.003.14 1.475 2.98-.272Zm.1 2.4h-3v.125l.01.124 2.99-.249Zm.1 19.7h-3v.068l3-.068Zm.2 8.2-3 .079.07 2.393 2.34.47.59-2.942Zm7 1.4h3v-2.459l-2.41-.482-.59 2.941Zm0 3.6v3h3v-3h-3Zm-23.2 0h-3v3h3v-3Zm0-3.6-.55-2.947-2.45.462v2.485h3Zm7.4-1.4.56 2.948 2.38-.45.06-2.417-3-.081Zm.1-8.1-3-.066v.066h3Zm-1.8-25.8-2.45 1.727.02.022.01.021 2.42-1.77Zm-12.8-1.3 1.24 2.734-1.24-2.734Zm-6.8 4.6-1.96-2.269-1.04.897v1.372h3Zm0 22.4h-3v.068l3-.068Zm.2 8.2-3 .079.07 2.387 2.34.474.59-2.94Zm6.9 1.4h3v-2.452l-2.4-.488-.6 2.94Zm0 3.6v3h3v-3h-3Zm-20.2 0v-3.6h-6v3.6h6Zm-2.44-.652 7.4-1.4-1.11-5.895-7.4 1.4 1.11 5.895Zm9.84-4.269c.07-2.563.1-5.323.1-8.279h-6c0 2.911-.03 5.618-.1 8.121l6 .158Zm.1-8.211c.07-2.949.1-5.573.1-7.868h-6c0 2.239-.03 4.815-.1 7.732l6 .136Zm.1-7.868v-4.8h-6v4.8h6Zm0-4.8c0-2.753-.03-5.06-.1-6.911l-5.99.222c.06 1.75.09 3.976.09 6.689h6Zm-.1-6.8c0-1.873-.07-3.84-.2-5.899l-5.99.399c.13 1.941.19 3.774.19 5.5h6Zm-2.86-8.68-7.9-.9-.68 5.961 7.9.9.68-5.961Zm-5.24 2.08v-3.5h-6v3.5h6Zm-1.8-.749 14-6.1-2.4-5.501-14 6.1 2.4 5.501Zm11.14-6.355 1.5 1 3.33-4.992-1.5-1-3.33 4.992Zm.18-1.201.8 8.1 5.97-.59-.8-8.1-5.97.59Zm6.04 9.781a25.729 25.729 0 0 1 7.35-5.827l-2.82-5.297a31.707 31.707 0 0 0-9.04 7.173l4.51 3.951Zm7.4-5.851c2.76-1.529 5.36-2.225 7.84-2.225v-6c-3.65 0-7.25 1.037-10.75 2.975l2.91 5.25Zm7.84-2.225c2.67 0 4.51.621 5.79 1.59l3.63-4.78c-2.59-1.964-5.82-2.81-9.42-2.81v6Zm5.83 1.619c1.26.926 2.41 2.614 3.17 5.536l5.81-1.51c-.98-3.744-2.69-6.856-5.43-8.864l-3.55 4.838Zm8.41 6.667c2.3-2.845 4.8-4.878 7.48-6.191l-2.64-5.389c-3.58 1.753-6.74 4.387-9.51 7.808l4.67 3.772Zm7.53-6.214c2.74-1.401 5.48-2.072 8.23-2.072v-6c-3.77 0-7.44.93-10.96 2.728l2.73 5.344Zm8.23-2.072c3.32 0 5.53 1.073 7.07 2.981l4.67-3.762c-2.86-3.558-6.92-5.219-11.74-5.219v6Zm7.09 3.015c1.6 1.919 2.71 5.514 2.71 11.485h6c0-6.428-1.15-11.767-4.09-15.315l-4.62 3.83Zm2.71 11.485v10.3h6v-10.3h-6Zm0 10.3V548.779h6V540.979h-6Zm0 7.868c.07 2.937.14 5.674.2 8.211l6-.158c-.06-2.529-.13-5.259-.2-8.189l-6 .136Zm2.61 11.074 7 1.4 1.18-5.883-7-1.4-1.18 5.883Zm4.59-1.542v3.6h6v-3.6h-6Zm3 .6h-23.2v6h23.2v-6Zm-20.2 3v-3.6h-6v3.6h6Zm-2.44-.652 7.4-1.4-1.11-5.895-7.4 1.4 1.11 5.895Zm9.84-4.267c.07-2.498.1-5.225.1-8.181h-6c0 2.911-.03 5.584-.1 8.019l6 .162Zm.1-8.114c.07-3.016.1-5.672.1-7.967h-6c0 2.239-.03 4.849-.1 7.834l6 .133Zm.1-7.967v-8.7h-6v8.7h6Zm0-8.7c0-2.457-.17-4.632-.56-6.474-.39-1.81-1.03-3.524-2.13-4.846l-4.61 3.841c.23.277.59.93.87 2.254.27 1.291.43 3.016.43 5.225h6Zm-2.65-11.274c-2.1-2.619-5.26-3.626-8.75-3.626v6c2.39 0 3.49.661 4.06 1.374l4.69-3.748Zm-8.75-3.626c-2.52 0-5.06.572-7.57 1.639l2.34 5.523c1.89-.8 3.63-1.162 5.23-1.162v-6Zm-7.6 1.652c-2.55 1.114-5.16 2.98-7.83 5.442l4.07 4.413c2.39-2.206 4.45-3.606 6.17-4.358l-2.41-5.497Zm-8.78 7.92c.05.629.08 1.337.08 2.128h6c0-.942-.03-1.834-.11-2.671l-5.97.543Zm.09 2.377c.06.706.09 1.488.09 2.351h6c0-1.003-.03-1.954-.11-2.849l-5.98.498Zm.09 2.351v9.3h6v-9.3h-6Zm0 9.3V548.779h6V540.979h-6Zm0 7.868c.07 2.937.14 5.674.2 8.211l6-.158c-.06-2.529-.13-5.259-.2-8.189l-6 .136Zm2.61 11.074 7 1.4 1.18-5.883-7-1.4-1.18 5.883Zm4.59-1.542v3.6h6v-3.6h-6Zm3 .6h-23.2v6h23.2v-6Zm-20.2 3v-3.6h-6v3.6h6Zm-2.44-.652 7.4-1.4-1.11-5.895-7.4 1.4 1.11 5.895Zm9.84-4.267c.07-2.498.1-5.225.1-8.181h-6c0 2.911-.03 5.584-.1 8.019l6 .162Zm.1-8.114c.07-3.016.1-5.672.1-7.967h-6c0 2.239-.03 4.849-.1 7.834l6 .133Zm.1-7.967v-8.5h-6v8.5h6Zm0-8.5c0-4.595-.6-8.599-2.47-11.17l-4.85 3.54c.66.896 1.32 3.159 1.32 7.63h6Zm-2.44-11.126c-2.01-2.851-5.2-3.974-8.76-3.974v6c2.32 0 3.32.678 3.85 1.427l4.91-3.453Zm-8.76-3.974c-2.69 0-5.28.558-7.73 1.666l2.47 5.468a12.603 12.603 0 0 1 5.26-1.134v-6Zm-7.73 1.666c-2.42 1.092-4.93 2.818-7.53 5.065l3.93 4.538c2.33-2.019 4.35-3.36 6.07-4.135l-2.47-5.468Zm-8.57 7.334v14.6h6v-14.6h-6Zm0 14.6V548.779h6V540.979h-6Zm0 7.868c.07 2.937.14 5.674.2 8.211l6-.158c-.06-2.529-.13-5.259-.2-8.189l-6 .136Zm2.61 11.072 6.9 1.4 1.19-5.88-6.9-1.4-1.19 5.88Zm4.49-1.54v3.6h6v-3.6h-6Zm3 .6h-23.2v6h23.2v-6Zm84.14-39.6-1.45-2.626-.02.01-.02.012 1.49 2.604Zm-4.9 5.1-2.57-1.543-.02.027-.01.028 2.6 1.488Zm-2.6 9.3-2.98-.308-.35 3.308h3.33v-3Zm22.9-1.5-2.34-1.874-.04.049-.04.051 2.42 1.774Zm-.3-9-2.62 1.466.04.063.04.061 2.54-1.59Zm-3.9-4-1.59 2.544.02.015.03.014 1.54-2.573Zm-21.8 37.5-2.2 2.036v.009l.01.008 2.19-2.053Zm-3-31.5-2.62-1.468-.01.017-.01.018 2.64 1.433Zm8.4-8.9-1.55-2.568-.01.007-.01.006 1.57 2.555Zm27.6 5.7-2.59 1.508v.013l.01.014 2.58-1.535Zm2.3 13.5 2.97.425v-.028l-2.97-.397Zm-.5 2.4v3h2.23l.64-2.138-2.87-.862Zm-31.9 0v-3h-3.07l.07 3.065 3-.065Zm24.2 16.9 1.53 2.58.03-.018.03-.018-1.59-2.544Zm5.9-5.1 1.86-2.352-2.24-1.777-1.88 2.159 2.26 1.97Zm2.4 1.9 2.65 1.402 1.17-2.206-1.96-1.548-1.86 2.352Zm-7.6 8.5 1.63 2.52.02-.011.01-.013-1.66-2.496Zm-11.5-45.4c-2.46 0-4.85.707-7.15 1.974l2.9 5.253c1.57-.867 2.98-1.227 4.25-1.227v-6Zm-7.19 1.996c-2.42 1.38-4.39 3.502-5.98 6.161l5.14 3.087c1.21-2.008 2.5-3.287 3.82-4.039l-2.98-5.209Zm-6.01 6.216c-1.62 2.82-2.56 6.368-2.98 10.48l5.96.617c.38-3.622 1.17-6.274 2.22-8.12l-5.2-2.977Zm0 13.788h18.2v-6h-18.2v6Zm18.2 0c2.53 0 5.46-.47 7.12-2.726l-4.84-3.548c.11-.155.16-.078-.22.041-.38.124-1.04.233-2.06.233v6Zm7.04-2.626c1.29-1.608 1.86-3.53 1.86-5.574h-6c0 .89-.23 1.434-.54 1.826l4.68 3.748Zm1.86-5.574c0-2.481-.65-4.801-1.96-6.89l-5.08 3.18c.69 1.111 1.04 2.325 1.04 3.71h6Zm-1.88-6.766a13.728 13.728 0 0 0-4.98-5.106l-3.08 5.145c1.22.736 2.15 1.691 2.82 2.893l5.24-2.932Zm-4.93-5.078c-2.12-1.326-4.52-1.956-7.09-1.956v6c1.56 0 2.83.37 3.91 1.044l3.18-5.088Zm-7.19 43.544c-6.03 0-10.59-1.907-14.01-5.553l-4.38 4.106c4.71 5.021 10.95 7.447 18.39 7.447v-6Zm-14-5.536c-3.42-3.704-5.3-8.933-5.3-16.064h-6c0 8.203 2.19 15.04 6.9 20.136l4.4-4.072Zm-5.3-16.064c0-4.726.95-8.682 2.74-11.966l-5.28-2.867c-2.34 4.315-3.46 9.293-3.46 14.833h6Zm2.72-11.931c1.9-3.388 4.35-5.967 7.35-7.814l-3.14-5.11c-3.93 2.42-7.08 5.774-9.45 9.987l5.24 2.937Zm7.33-7.801c3.07-1.85 6.36-2.768 9.95-2.768v-6c-4.68 0-9.05 1.216-13.05 3.632l3.1 5.136Zm9.95-2.768c3.01 0 5.64.661 7.96 1.932l2.88-5.263c-3.28-1.796-6.91-2.669-10.84-2.669v6Zm7.96 1.932c2.3 1.26 4.14 3.063 5.55 5.476l5.18-3.016c-1.93-3.32-4.55-5.917-7.85-7.723l-2.88 5.263Zm5.56 5.503c1.33 2.233 2.08 5.106 2.08 8.765h6c0-4.474-.92-8.468-2.92-11.834l-5.16 3.069Zm2.08 8.765c0 1.017-.06 1.95-.17 2.804l5.94.793c.16-1.147.23-2.347.23-3.597h-6Zm-.17 2.776c-.12.833-.26 1.479-.4 1.962l5.74 1.724c.26-.85.45-1.804.6-2.837l-5.94-.849Zm2.47-.176h-31.9v6h31.9v-6Zm-34.9 3.065c.14 6.563 1.79 12.04 5.39 15.962l4.42-4.054c-2.27-2.478-3.69-6.334-3.81-12.038l-6 .13Zm5.39 15.962c3.56 3.89 8.27 5.773 13.81 5.773v-6c-4.06 0-7.09-1.316-9.39-3.827l-4.42 4.054Zm13.81 5.773c3.59 0 6.82-.709 9.53-2.32l-3.06-5.159c-1.56.922-3.66 1.479-6.47 1.479v6Zm9.59-2.356c2.41-1.503 4.59-3.403 6.57-5.673l-4.52-3.941c-1.63 1.863-3.37 3.363-5.23 4.526l3.18 5.088Zm2.45-5.292 2.4 1.9 3.72-4.704-2.4-1.9-3.72 4.704Zm1.61-1.853c-1.65 3.11-3.85 5.56-6.61 7.405l3.32 4.992c3.64-2.421 6.5-5.637 8.59-9.594l-5.3-2.803Zm-6.58 7.381c-2.63 1.698-5.9 2.62-9.97 2.62v6c5 0 9.46-1.144 13.23-3.58l-3.26-5.04Zm26.41 2.82 2.01-2.226-2.01 2.226Zm-3.1-12.3-3-.157v.157h3Zm.1-28.4h3v-3h-3v3Zm-8.3 0h-3v3h3v-3Zm0-4.4-.37-2.977-2.63.325v2.652h3Zm8.9-1.1.36 2.978 2.17-.268.41-2.138-2.94-.572Zm2.6-13.4v-3h-2.48l-.47 2.429 2.95.571Zm6 0 2.99.132.14-3.132h-3.13v3Zm-.6 13.6-3-.132-.14 3.132h3.14v-3Zm13.5 0h3v-3h-3v3Zm0 5.3v3h3v-3h-3Zm-13.6 0v-3h-3v3h3Zm1.5 36.6L1327 558.3l.03.032.03.032 2.25-1.985Zm7.2 1-1.21-2.748-.03.014-.03.016 1.27 2.718Zm3.5-2 2.2-2.035-1.76-1.905-2.14 1.464 1.7 2.476Zm2.4 2.6 2.37 1.836 1.55-2.007-1.72-1.864-2.2 2.035Zm-11.8 2.3c-2.92 0-4.9-.771-6.29-2.026l-4.02 4.453c2.74 2.478 6.29 3.573 10.31 3.573v-6Zm-6.29-2.026c-1.22-1.104-2.11-3.015-2.11-6.374h-6c0 4.374 1.17 8.197 4.09 10.827l4.02-4.453Zm-2.11-6.374V548.179h-6V551.879h6Zm-.01-3.542c.07-1.339.11-2.996.11-4.958h-6c0 1.905-.04 3.448-.1 4.643l5.99.315Zm.11-4.958v-23.6h-6v23.6h6Zm-3-26.6h-8.3v6h8.3v-6Zm-5.3 3v-4.4h-6v4.4h6Zm-2.64-1.422 8.9-1.1-.73-5.955-8.9 1.1.73 5.955Zm11.48-3.506 2.6-13.4-5.89-1.143-2.6 13.4 5.89 1.143Zm-.34-10.972h6v-6h-6v6Zm3-3.132-.6 13.6 5.99.264.6-13.6-5.99-.264Zm2.4 16.732h13.5v-6h-13.5v6Zm10.5-3v5.3h6v-5.3h-6Zm3 2.3h-13.6v6h13.6v-6Zm-16.6 3v31h6v-31h-6Zm0 31c0 2.828.54 5.535 2.19 7.521l4.61-3.841c-.34-.415-.8-1.441-.8-3.68h-6Zm2.25 7.585c1.63 1.85 3.82 2.715 6.25 2.715v-6c-.91 0-1.39-.267-1.75-.685l-4.5 3.97Zm6.25 2.715c1.56 0 3.06-.324 4.47-.981l-2.54-5.437a4.49 4.49 0 0 1-1.93.418v6Zm4.4-.951c1.28-.562 2.61-1.331 3.99-2.273l-3.39-4.952c-1.16.792-2.16 1.356-3.01 1.728l2.41 5.497Zm.09-2.714 2.4 2.6 4.41-4.07-2.4-2.6-4.41 4.07Zm2.23-1.27c-2.07 2.683-5.06 4.135-9.42 4.135v6c5.9 0 10.78-2.081 14.17-6.464l-4.75-3.671Zm6.1 5.835h-3v3h3v-3Zm0-3.6-.55-2.949-2.45.457v2.492h3Zm7.5-1.4.55 2.949 2.38-.445.06-2.425-2.99-.079Zm.1-8.2-3-.066v.066h3Zm0-19.3h-3v.111l3-.111Zm-.2-5.8 2.99-.199-.17-2.502-2.49-.28-.33 2.981Zm-8-.9h-3v2.682l2.66.299.34-2.981Zm0-3.5-1.11-2.789-1.89.751v2.038h3Zm15.4-6.1 1.66-2.496-1.31-.872-1.46.579 1.11 2.789Zm1.5 1 3 .066.03-1.648-1.37-.914-1.66 2.496Zm-.3 13.6-3-.066v.066h3Zm0 21h-3v.068l3-.068Zm.2 8.2-3 .079.06 2.393 2.35.47.59-2.942Zm7 1.4h3v-2.459l-2.42-.482-.58 2.941Zm0 3.6v3h3v-3h-3Zm-16.2-61.6-2.07 2.178.03.026.03.026 2.01-2.23Zm0-9.2 2 2.236v-.006l-2-2.23Zm9.5 0-2.07 2.178.06.056.06.052 1.95-2.286Zm0 9.2-2.01-2.23-.03.026-.03.026 2.07 2.178Zm-13.5 61.6v-3.6h-6v3.6h6Zm-2.45-.651 7.5-1.4-1.1-5.898-7.5 1.4 1.1 5.898Zm9.94-4.27c.07-2.563.11-5.323.11-8.279h-6c0 2.911-.04 5.618-.1 8.121l5.99.158Zm.11-8.212c.06-3.015.1-5.638.1-7.867h-6c0 2.172-.04 4.748-.1 7.734l6 .133Zm.1-7.867v-4.7h-6v4.7h6Zm0-4.7c0-2.753-.04-5.06-.11-6.911l-5.99.222c.06 1.75.1 3.976.1 6.689h6Zm-.1-6.8c0-1.938-.07-3.938-.21-5.999l-5.99.399c.13 1.938.2 3.805.2 5.6h6Zm-2.87-8.781-8-.9-.67 5.962 8 .9.67-5.962Zm-5.33 2.081v-3.5h-6v3.5h6Zm-1.9-.711 15.4-6.1-2.21-5.578-15.4 6.1 2.21 5.578Zm12.63-6.393 1.5 1 3.33-4.992-1.5-1-3.33 4.992Zm.17-1.562-.3 13.6 6 .132.3-13.6-6-.132Zm-.3 13.666v13.2h6v-13.2h-6Zm0 13.2V548.779h6V540.979h-6Zm0 7.868c.06 2.937.13 5.674.2 8.211l5.99-.158c-.06-2.529-.13-5.259-.19-8.189l-6 .136Zm2.61 11.074 7 1.4 1.17-5.883-7-1.4-1.17 5.883Zm4.59-1.542v3.6h6v-3.6h-6Zm3 .6h-23.2v6h23.2v-6Zm-11.4-59.8c-1.16 0-2.04-.347-2.8-1.03l-4.01 4.46c1.91 1.718 4.23 2.57 6.81 2.57v-6Zm-2.74-.978c-.62-.59-.96-1.315-.96-2.422h-6c0 2.626.92 4.969 2.83 6.778l4.13-4.356Zm-.96-2.422c0-1.21.36-1.881.9-2.364l-4-4.471c-2 1.783-2.9 4.178-2.9 6.835h6Zm.9-2.37c.76-.682 1.64-1.03 2.8-1.03v-6c-2.58 0-4.9.853-6.81 2.57l4.01 4.46Zm2.8-1.03c1.15 0 1.96.345 2.63.978l4.13-4.356c-1.87-1.767-4.19-2.622-6.76-2.622v6Zm2.75 1.086c.59.499.95 1.157.95 2.314h6c0-2.709-.98-5.118-3.06-6.886l-3.89 4.572Zm.95 2.314c0 1.056-.34 1.765-1.01 2.37l4.01 4.46c2-1.795 3-4.152 3-6.83h-6Zm-1.07 2.422c-.67.633-1.48.978-2.63.978v6c2.57 0 4.89-.855 6.76-2.622l-4.13-4.356Zm15.85 63.778h-3v3h3v-3Zm0-3.6-.56-2.947-2.44.462v2.485h3Zm7.4-1.4.56 2.948 2.38-.45.06-2.419-3-.079Zm.1-8.2-3-.068v.068h3Zm0-19.4h-3v.111l3-.111Zm-.2-5.7 2.99-.199-.16-2.498-2.49-.283-.34 2.98Zm-7.9-.9h-3v2.678l2.66.303.34-2.981Zm0-3.5-1.2-2.75-1.8.785v1.965h3Zm14-6.1 1.67-2.496-1.37-.908-1.5.654 1.2 2.75Zm1.5 1 2.99-.295-.14-1.413-1.18-.788-1.67 2.496Zm.8 8.1-2.98.295.68 6.895 4.56-5.214-2.26-1.976Zm8.2-6.5 1.41 2.649.02-.012.02-.012-1.45-2.625Zm16.9-.4-1.81 2.39.02.015.02.014 1.77-2.419Zm4.3 7.2-2.9.755 1.49 5.757 3.74-4.626-2.33-1.886Zm8.5-7 1.32 2.695.02-.011.03-.012-1.37-2.672Zm19 1.7-2.34 1.881.02.017.01.017 2.31-1.915Zm3.4 31.5h-3v.068l3-.068Zm.2 8.2-3 .079.07 2.393 2.34.47.59-2.942Zm7 1.4h3v-2.459l-2.41-.482-.59 2.941Zm0 3.6v3h3v-3h-3Zm-23.2 0h-3v3h3v-3Zm0-3.6-.56-2.947-2.44.462v2.485h3Zm7.4-1.4.56 2.948 2.37-.45.07-2.417-3-.081Zm.1-8.1-3-.066v.066h3Zm-1.9-26-2.34 1.874.02.024.02.023 2.3-1.921Zm-12.8-1.1-1.17-2.761-.02.006-.01.007 1.2 2.748Zm-7 4.9-2.03-2.206-1.09 1.003.13 1.475 2.99-.272Zm.1 2.4h-3v.125l.01.124 2.99-.249Zm.1 19.7h-3v.068l3-.068Zm.2 8.2-3 .079.07 2.393 2.34.47.59-2.942Zm7 1.4h3v-2.459l-2.41-.482-.59 2.941Zm0 3.6v3h3v-3h-3Zm-23.2 0h-3v3h3v-3Zm0-3.6-.56-2.947-2.44.462v2.485h3Zm7.4-1.4.56 2.948 2.37-.45.07-2.417-3-.081Zm.1-8.1-3-.066v.066h3Zm-1.8-25.8-2.45 1.727.01.022.02.021 2.42-1.77Zm-12.8-1.3 1.24 2.734-1.24-2.734Zm-6.8 4.6-1.96-2.269-1.04.897v1.372h3Zm0 22.4h-3v.068l3-.068Zm.2 8.2-3 .079.06 2.387 2.34.474.6-2.94Zm6.9 1.4h3v-2.452l-2.4-.488-.6 2.94Zm0 3.6v3h3v-3h-3Zm-20.2 0v-3.6h-6v3.6h6Zm-2.44-.652 7.4-1.4-1.12-5.895-7.4 1.4 1.12 5.895Zm9.84-4.269c.07-2.563.1-5.323.1-8.279h-6c0 2.911-.03 5.618-.1 8.121l6 .158Zm.1-8.211c.07-2.949.1-5.573.1-7.868h-6c0 2.239-.03 4.815-.1 7.732l6 .136Zm.1-7.868v-4.8h-6v4.8h6Zm0-4.8c0-2.753-.03-5.06-.1-6.911l-6 .222c.07 1.75.1 3.976.1 6.689h6Zm-.1-6.8c0-1.873-.07-3.84-.21-5.899l-5.98.399c.13 1.941.19 3.774.19 5.5h6Zm-2.86-8.68-7.9-.9-.68 5.961 7.9.9.68-5.961Zm-5.24 2.08v-3.5h-6v3.5h6Zm-1.8-.749 14-6.1-2.4-5.501-14 6.1 2.4 5.501Zm11.14-6.355 1.5 1 3.33-4.992-1.5-1-3.33 4.992Zm.18-1.201.8 8.1 5.97-.59-.8-8.1-5.97.59Zm6.04 9.781a25.729 25.729 0 0 1 7.35-5.827l-2.82-5.297a31.888 31.888 0 0 0-9.05 7.173l4.52 3.951Zm7.39-5.851c2.77-1.529 5.37-2.225 7.85-2.225v-6c-3.65 0-7.25 1.037-10.75 2.975l2.9 5.25Zm7.85-2.225c2.67 0 4.51.621 5.79 1.59l3.62-4.78c-2.59-1.964-5.81-2.81-9.41-2.81v6Zm5.83 1.619c1.26.926 2.41 2.614 3.17 5.536l5.8-1.51c-.97-3.744-2.69-6.856-5.42-8.864l-3.55 4.838Zm8.4 6.667c2.3-2.845 4.81-4.878 7.49-6.191l-2.64-5.389c-3.58 1.753-6.75 4.387-9.51 7.808l4.66 3.772Zm7.54-6.214c2.74-1.401 5.47-2.072 8.23-2.072v-6c-3.78 0-7.44.93-10.96 2.728l2.73 5.344Zm8.23-2.072c3.32 0 5.53 1.073 7.06 2.981l4.68-3.762c-2.87-3.558-6.93-5.219-11.74-5.219v6Zm7.09 3.015c1.59 1.919 2.71 5.514 2.71 11.485h6c0-6.428-1.15-11.767-4.09-15.315l-4.62 3.83Zm2.71 11.485v10.3h6v-10.3h-6Zm0 10.3V548.779h6V540.979h-6Zm0 7.868c.07 2.937.14 5.674.2 8.211l6-.158c-.07-2.529-.13-5.259-.2-8.189l-6 .136Zm2.61 11.074 7 1.4 1.18-5.883-7-1.4-1.18 5.883Zm4.59-1.542v3.6h6v-3.6h-6Zm3 .6h-23.2v6h23.2v-6Zm-20.2 3v-3.6h-6v3.6h6Zm-2.44-.652 7.4-1.4-1.12-5.895-7.4 1.4 1.12 5.895Zm9.84-4.267c.07-2.498.1-5.225.1-8.181h-6c0 2.911-.03 5.584-.1 8.019l6 .162Zm.1-8.114c.07-3.016.1-5.672.1-7.967h-6c0 2.239-.03 4.849-.1 7.834l6 .133Zm.1-7.967v-8.7h-6v8.7h6Zm0-8.7c0-2.457-.17-4.632-.56-6.474-.39-1.81-1.03-3.524-2.13-4.846l-4.61 3.841c.23.277.59.93.87 2.254.27 1.291.43 3.016.43 5.225h6Zm-2.66-11.274c-2.09-2.619-5.26-3.626-8.74-3.626v6c2.38 0 3.49.661 4.06 1.374l4.68-3.748Zm-8.74-3.626c-2.53 0-5.06.572-7.57 1.639l2.34 5.523c1.89-.8 3.63-1.162 5.23-1.162v-6Zm-7.6 1.652c-2.55 1.114-5.16 2.98-7.83 5.442l4.06 4.413c2.4-2.206 4.45-3.606 6.17-4.358l-2.4-5.497Zm-8.79 7.92c.06.629.09 1.337.09 2.128h6c0-.942-.04-1.834-.11-2.671l-5.98.543Zm.1 2.377c.06.706.09 1.488.09 2.351h6c0-1.003-.03-1.954-.11-2.849l-5.98.498Zm.09 2.351v9.3h6v-9.3h-6Zm0 9.3V548.779h6V540.979h-6Zm0 7.868c.07 2.937.14 5.674.2 8.211l6-.158c-.07-2.529-.13-5.259-.2-8.189l-6 .136Zm2.61 11.074 7 1.4 1.18-5.883-7-1.4-1.18 5.883Zm4.59-1.542v3.6h6v-3.6h-6Zm3 .6h-23.2v6h23.2v-6Zm-20.2 3v-3.6h-6v3.6h6Zm-2.44-.652 7.4-1.4-1.12-5.895-7.4 1.4 1.12 5.895Zm9.84-4.267c.07-2.498.1-5.225.1-8.181h-6c0 2.911-.03 5.584-.1 8.019l6 .162Zm.1-8.114c.07-3.016.1-5.672.1-7.967h-6c0 2.239-.03 4.849-.1 7.834l6 .133Zm.1-7.967v-8.5h-6v8.5h6Zm0-8.5c0-4.595-.6-8.599-2.48-11.17l-4.84 3.54c.65.896 1.32 3.159 1.32 7.63h6Zm-2.45-11.126c-2-2.851-5.2-3.974-8.75-3.974v6c2.31 0 3.32.678 3.85 1.427l4.9-3.453Zm-8.75-3.974c-2.69 0-5.28.558-7.73 1.666l2.47 5.468a12.57 12.57 0 0 1 5.26-1.134v-6Zm-7.73 1.666c-2.42 1.092-4.93 2.818-7.53 5.065l3.92 4.538c2.34-2.019 4.36-3.36 6.08-4.135l-2.47-5.468Zm-8.57 7.334v14.6h6v-14.6h-6Zm0 14.6V548.779h6V540.979h-6Zm0 7.868c.07 2.937.14 5.674.2 8.211l6-.158c-.07-2.529-.13-5.259-.2-8.189l-6 .136Zm2.6 11.072 6.9 1.4 1.2-5.88-6.9-1.4-1.2 5.88Zm4.5-1.54v3.6h6v-3.6h-6Zm3 .6h-23.2v6h23.2v-6Zm84.14-39.6-1.45-2.626-.02.01-.02.012 1.49 2.604Zm-4.9 5.1-2.57-1.543-.02.027-.02.028 2.61 1.488Zm-2.6 9.3-2.99-.308-.34 3.308h3.33v-3Zm22.9-1.5-2.34-1.874-.04.049-.04.051 2.42 1.774Zm-.3-9-2.62 1.466.04.063.03.061 2.55-1.59Zm-3.9-4-1.59 2.544.02.015.02.014 1.55-2.573Zm-21.8 37.5-2.21 2.036.01.009.01.008 2.19-2.053Zm-3-31.5-2.62-1.468-.01.017-.01.018 2.64 1.433Zm8.4-8.9-1.55-2.568-.01.007-.01.006 1.57 2.555Zm27.6 5.7-2.6 1.508.01.013.01.014 2.58-1.535Zm2.3 13.5 2.97.425v-.028l-2.97-.397Zm-.5 2.4v3h2.23l.64-2.138-2.87-.862Zm-31.9 0v-3h-3.07l.07 3.065 3-.065Zm24.2 16.9 1.53 2.58.03-.018.03-.018-1.59-2.544Zm5.9-5.1 1.86-2.352-2.24-1.777-1.88 2.159 2.26 1.97Zm2.4 1.9 2.65 1.402 1.17-2.206-1.96-1.548-1.86 2.352Zm-7.6 8.5 1.63 2.52.01-.011.02-.013-1.66-2.496Zm-11.5-45.4c-2.46 0-4.86.707-7.15 1.974l2.9 5.253c1.57-.867 2.97-1.227 4.25-1.227v-6Zm-7.19 1.996c-2.42 1.38-4.39 3.502-5.98 6.161l5.14 3.087c1.2-2.008 2.5-3.287 3.82-4.039l-2.98-5.209Zm-6.02 6.216c-1.61 2.82-2.55 6.368-2.98 10.48l5.97.617c.38-3.622 1.17-6.274 2.22-8.12l-5.21-2.977Zm.01 13.788h18.2v-6h-18.2v6Zm18.2 0c2.53 0 5.46-.47 7.12-2.726l-4.84-3.548c.11-.155.16-.078-.22.041-.39.124-1.04.233-2.06.233v6Zm7.04-2.626c1.29-1.608 1.86-3.53 1.86-5.574h-6c0 .89-.23 1.434-.54 1.826l4.68 3.748Zm1.86-5.574c0-2.481-.65-4.801-1.96-6.89l-5.09 3.18c.7 1.111 1.05 2.325 1.05 3.71h6Zm-1.88-6.766a13.728 13.728 0 0 0-4.98-5.106l-3.09 5.145c1.23.736 2.16 1.691 2.83 2.893l5.24-2.932Zm-4.93-5.078c-2.12-1.326-4.52-1.956-7.09-1.956v6c1.56 0 2.83.37 3.91 1.044l3.18-5.088Zm-7.19 43.544c-6.03 0-10.59-1.907-14.01-5.553l-4.38 4.106c4.71 5.021 10.95 7.447 18.39 7.447v-6Zm-14-5.536c-3.42-3.704-5.3-8.933-5.3-16.064h-6c0 8.203 2.18 15.04 6.89 20.136l4.41-4.072Zm-5.3-16.064c0-4.726.95-8.682 2.73-11.966l-5.27-2.867c-2.34 4.315-3.46 9.293-3.46 14.833h6Zm2.71-11.931c1.91-3.388 4.36-5.967 7.36-7.814l-3.14-5.11c-3.94 2.42-7.08 5.774-9.45 9.987l5.23 2.937Zm7.34-7.801c3.06-1.85 6.36-2.768 9.95-2.768v-6c-4.68 0-9.05 1.216-13.05 3.632l3.1 5.136Zm9.95-2.768c3.01 0 5.64.661 7.96 1.932l2.88-5.263c-3.28-1.796-6.92-2.669-10.84-2.669v6Zm7.96 1.932c2.3 1.26 4.14 3.063 5.54 5.476l5.19-3.016c-1.93-3.32-4.55-5.917-7.85-7.723l-2.88 5.263Zm5.56 5.503c1.33 2.233 2.08 5.106 2.08 8.765h6c0-4.474-.92-8.468-2.92-11.834l-5.16 3.069Zm2.08 8.765c0 1.017-.06 1.95-.18 2.804l5.95.793c.15-1.147.23-2.347.23-3.597h-6Zm-.17 2.776c-.12.833-.26 1.479-.41 1.962l5.75 1.724c.26-.85.45-1.804.6-2.837l-5.94-.849Zm2.47-.176h-31.9v6h31.9v-6Zm-34.9 3.065c.14 6.563 1.79 12.04 5.39 15.962l4.42-4.054c-2.27-2.478-3.69-6.334-3.81-12.038l-6 .13Zm5.39 15.962c3.56 3.89 8.27 5.773 13.81 5.773v-6c-4.06 0-7.09-1.316-9.39-3.827l-4.42 4.054Zm13.81 5.773c3.58 0 6.82-.709 9.53-2.32l-3.06-5.159c-1.56.922-3.66 1.479-6.47 1.479v6Zm9.59-2.356c2.4-1.503 4.59-3.403 6.57-5.673l-4.52-3.941c-1.63 1.863-3.37 3.363-5.23 4.526l3.18 5.088Zm2.45-5.292 2.4 1.9 3.72-4.704-2.4-1.9-3.72 4.704Zm1.61-1.853c-1.65 3.11-3.85 5.56-6.62 7.405l3.33 4.992c3.63-2.421 6.5-5.637 8.59-9.594l-5.3-2.803Zm-6.58 7.381c-2.63 1.698-5.9 2.62-9.97 2.62v6c5 0 9.45-1.144 13.23-3.58l-3.26-5.04Zm26.5 4.62.83-2.884-.04-.011-.04-.01-.75 2.905Zm-7.2-2.8-2.99.109.06 1.757 1.56.803 1.37-2.669Zm-.4-11v-3h-3.11l.12 3.109 2.99-.109Zm5.5 0 2.94-.64-.52-2.36h-2.42v3Zm1.9 8.7-2.93.64.32 1.465 1.37.624 1.24-2.729Zm16.5-.5-1.8-2.4-.02.016-.02.016 1.84 2.368Zm.5-10.6-1.96 2.264.02.025.03.024 1.91-2.313Zm-7-3.6-1.04 2.814.04.014.04.012.96-2.84Zm-4.6-1.7 1.04-2.814v-.002l-.01-.003-1.03 2.819Zm-8.8-5.2-2.08 2.154 2.08-2.154Zm-1.3-15.2-2.54-1.59 2.54 1.59Zm5.9-5.2-1.36-2.669 1.36 2.669Zm16.9-.9-.94 2.846.05.017.05.015.84-2.878Zm6.6 3 3 .118.07-1.739-1.48-.923-1.59 2.544Zm-.4 10.2v3h2.89l.11-2.882-3-.118Zm-5.2 0-2.94.589.49 2.411h2.45v-3Zm-1.6-8 2.95-.588-.29-1.439-1.31-.656-1.35 2.683Zm-13.9.2 1.85 2.363.01-.005.01-.006-1.87-2.352Zm-.3 9.9-1.94 2.286.03.023.03.023 1.88-2.332Zm7.2 3.6-1.04 2.811.02.009.02.008 1-2.828Zm3.1 1.1 1.05-2.81-.02-.009-.02-.008-1.01 2.827Zm10.6 6.4-2.27 1.958.02.018.01.017 2.24-1.993Zm1 15.4 2.48 1.7.01-.018.01-.018-2.5-1.664Zm-6.5 5.2 1.27 2.72-1.27-2.72Zm-10.8-1c-2.56 0-4.84-.305-6.87-.884l-1.65 5.769c2.64.754 5.49 1.115 8.52 1.115v-6Zm-6.95-.905c-2.09-.537-4.28-1.384-6.58-2.563l-2.74 5.337c2.64 1.354 5.25 2.374 7.83 3.037l1.49-5.811Zm-4.95-.004-.4-11-5.99.218.4 11 5.99-.218Zm-3.4-7.891h5.5v-6h-5.5v6Zm2.57-2.36 1.9 8.7 5.87-1.28-1.9-8.7-5.87 1.28Zm3.59 10.789c2.79 1.277 5.93 1.871 9.34 1.871v-6c-2.71 0-4.98-.472-6.85-1.328l-2.49 5.457Zm9.34 1.871c4.07 0 7.67-.728 10.25-2.732l-3.69-4.736c-1.02.796-3.02 1.468-6.56 1.468v6Zm10.2-2.7c2.6-1.947 4-4.657 4-7.9h-6c0 1.29-.46 2.247-1.6 3.1l3.6 4.8Zm4-7.9c0-2.954-1.11-5.53-3.38-7.413l-3.83 4.626c.79.651 1.21 1.475 1.21 2.787h6Zm-3.33-7.364c-1.95-1.699-4.7-3.053-8-4.176l-1.93 5.68c2.97 1.011 4.88 2.056 6 3.024l3.93-4.528Zm-7.93-4.15-4.6-1.7-2.08 5.628 4.6 1.7 2.08-5.628Zm-4.61-1.705c-3.37-1.227-5.91-2.764-7.74-4.534l-4.17 4.307c2.57 2.496 5.9 4.426 9.86 5.866l2.05-5.639Zm-7.74-4.534c-1.55-1.504-2.39-3.461-2.39-6.147h-6c0 4.114 1.37 7.691 4.22 10.454l4.17-4.307Zm-2.39-6.147c0-1.892.51-3.643 1.55-5.31l-5.09-3.18c-1.62 2.6-2.46 5.45-2.46 8.49h6Zm1.55-5.31c1-1.604 2.53-2.994 4.72-4.12l-2.73-5.339c-3.01 1.54-5.42 3.617-7.08 6.279l5.09 3.18Zm4.72-4.12c2.08-1.065 4.75-1.67 8.13-1.67v-6c-4.08 0-7.74.728-10.86 2.331l2.73 5.339Zm8.13-1.67c2.47 0 4.61.331 6.46.946l1.89-5.692c-2.55-.851-5.35-1.254-8.35-1.254v6Zm6.56.978c1.99.585 3.94 1.468 5.85 2.666l3.18-5.088c-2.35-1.468-4.79-2.585-7.34-3.334l-1.69 5.756Zm4.45.005-.4 10.2 5.99.235.4-10.2-5.99-.235Zm2.59 7.317h-5.2v6h5.2v-6Zm-2.25 2.412-1.6-8-5.89 1.177 1.6 8 5.89-1.177Zm-3.2-10.095c-2.65-1.323-5.41-2.017-8.25-2.017v6c1.83 0 3.68.44 5.56 1.384l2.69-5.367Zm-8.25-2.017c-3.41 0-6.52.697-8.86 2.548l3.73 4.704c.86-.682 2.42-1.252 5.13-1.252v-6Zm-8.84 2.538c-2.31 1.808-3.46 4.339-3.46 7.262h6c0-1.209.4-1.945 1.15-2.537l-3.69-4.725Zm-3.46 7.262c0 2.835.89 5.441 3.06 7.286l3.89-4.572c-.5-.421-.95-1.149-.95-2.714h-6Zm3.12 7.332c1.79 1.454 4.58 2.79 8.04 4.079l2.09-5.622c-3.34-1.244-5.35-2.308-6.36-3.12l-3.77 4.663Zm8.08 4.096 3.1 1.1 2.01-5.655-3.1-1.1-2.01 5.655Zm3.06 1.083c4.81 1.796 7.79 3.708 9.37 5.547l4.55-3.915c-2.55-2.962-6.64-5.316-11.83-7.253l-2.09 5.621Zm9.4 5.582c1.66 1.866 2.44 3.928 2.44 6.307h6c0-3.888-1.35-7.359-3.95-10.293l-4.49 3.986Zm2.44 6.307c0 1.915-.54 3.706-1.69 5.436l4.99 3.328c1.78-2.67 2.7-5.611 2.7-8.764h-6Zm-1.67 5.401c-1.1 1.603-2.8 3.022-5.29 4.179l2.53 5.44c3.25-1.509 5.88-3.557 7.71-6.22l-4.95-3.399Zm-5.29 4.179c-2.35 1.094-5.49 1.72-9.54 1.72v6c4.62 0 8.69-.707 12.07-2.28l-2.53-5.44Z" fill="#FF6D7F"/><path d="m244.4 399 1.9-14.2h5.7l1.2 12.5c2.733.8 5.567 1.2 8.5 1.2 5 0 8.7-1.133 11.1-3.4 2.4-2.267 3.6-5.133 3.6-8.6 0-1.533-.233-3-.7-4.4-.467-1.4-1.433-2.933-2.9-4.6-1.467-1.733-3.7-3.733-6.7-6-3.4-2.6-6.033-5-7.9-7.2s-3.167-4.3-3.9-6.3c-.733-2.067-1.1-4.133-1.1-6.2 0-3.533.933-6.667 2.8-9.4 1.867-2.8 4.433-4.967 7.7-6.5 3.333-1.6 7.1-2.4 11.3-2.4 2.733 0 5.467.333 8.2 1 2.8.667 5.6 1.833 8.4 3.5l-2.3 14h-5.9l-.6-12.3c-1.333-.533-2.533-.867-3.6-1-1-.133-2-.2-3-.2-4.867 0-8.667.933-11.4 2.8-2.667 1.8-4 4.567-4 8.3 0 2.667.733 5.1 2.2 7.3 1.533 2.133 4.067 4.567 7.6 7.3 3.8 2.933 6.667 5.533 8.6 7.8 2 2.267 3.367 4.367 4.1 6.3a16.785 16.785 0 0 1 1.1 6c0 3.867-.933 7.233-2.8 10.1-1.867 2.867-4.467 5.1-7.8 6.7-3.333 1.6-7.233 2.4-11.7 2.4-3 0-6.167-.4-9.5-1.2-3.333-.8-6.067-1.9-8.2-3.3Zm38.261 27.1.7-3.4 8.6-1.4 12.6-59.4-9.9-.6.4-2.9 17-5.1 1.3 1-2.4 11.2c3.133-3.8 6.5-6.767 10.1-8.9 3.6-2.2 6.833-3.3 9.7-3.3 2.467 0 4.6.933 6.4 2.8 1.8 1.8 2.7 4.967 2.7 9.5 0 3.4-.6 6.867-1.8 10.4a47.766 47.766 0 0 1-4.9 10.2 49.947 49.947 0 0 1-7.1 8.7c-2.667 2.6-5.467 4.667-8.4 6.2-2.933 1.467-5.833 2.2-8.7 2.2-2.067 0-3.967-.5-5.7-1.5-.867 4.267-1.6 7.933-2.2 11-.6 3.067-1.1 5.867-1.5 8.4l9.2 1.5-.8 3.4h-25.3Zm43.4-66.1c-2.067 0-4.5.9-7.3 2.7-2.733 1.8-5.667 4.367-8.8 7.7l-5 23.3c1.333 1 2.633 1.733 3.9 2.2 1.333.4 2.567.6 3.7.6 2.533 0 4.9-.7 7.1-2.1 2.267-1.4 4.267-3.233 6-5.5 2-2.667 3.567-5.667 4.7-9 1.2-3.4 1.8-6.833 1.8-10.3 0-6.4-2.033-9.6-6.1-9.6Zm36.648 43.3c-3.066 0-5.866-.667-8.4-2-2.533-1.333-4.566-3.3-6.1-5.9-1.466-2.667-2.2-5.9-2.2-9.7 0-4.533.667-8.733 2-12.6 1.4-3.933 3.3-7.367 5.7-10.3 2.4-3 5.167-5.333 8.3-7 3.2-1.667 6.567-2.5 10.1-2.5 4.734 0 8.6 1.5 11.6 4.5 3.067 3 4.6 7.333 4.6 13 0 4.333-.666 8.467-2 12.4-1.333 3.867-3.2 7.333-5.6 10.4-2.333 3-5.033 5.367-8.1 7.1-3.066 1.733-6.366 2.6-9.9 2.6Zm1.1-4c2.467 0 4.7-.767 6.7-2.3s3.7-3.6 5.1-6.2c1.467-2.6 2.6-5.5 3.4-8.7.8-3.2 1.2-6.467 1.2-9.8 0-5.4-.866-9.233-2.6-11.5-1.666-2.333-3.866-3.5-6.6-3.5-3.133 0-6 1.233-8.6 3.7-2.533 2.467-4.533 5.767-6 9.9-1.466 4.067-2.2 8.6-2.2 13.6 0 5.267.9 9.067 2.7 11.4 1.8 2.267 4.1 3.4 6.9 3.4Zm35.629-8.4 6.7-31.4h-10.2l.7-4 10.8-1 4.7-13.4h5.1l-2.9 13.5h12.7l-.8 5.4-12.9-.4-6.1 28.7c-.6 2.667-.9 4.6-.9 5.8 0 .733.233 1.3.7 1.7.533.4 1.1.6 1.7.6 2.533 0 5.8-2.4 9.8-7.2l2.5 1.9c-1.4 2-3 3.933-4.8 5.8-1.8 1.867-3.734 3.4-5.8 4.6-2.067 1.2-4.234 1.8-6.5 1.8-1.467 0-2.767-.433-3.9-1.3-1.067-.867-1.6-2.133-1.6-3.8 0-.733.066-1.6.2-2.6.133-1.067.4-2.633.8-4.7Zm32.91 0 6.7-31.4h-10.2l.7-4 10.8-1 4.7-13.4h5.1l-2.9 13.5h12.7l-.8 5.4-12.9-.4-6.1 28.7c-.6 2.667-.9 4.6-.9 5.8 0 .733.233 1.3.7 1.7.533.4 1.1.6 1.7.6 2.533 0 5.8-2.4 9.8-7.2l2.5 1.9c-1.4 2-3 3.933-4.8 5.8-1.8 1.867-3.734 3.4-5.8 4.6-2.067 1.2-4.234 1.8-6.5 1.8-1.467 0-2.767-.433-3.9-1.3-1.067-.867-1.6-2.133-1.6-3.8 0-.733.066-1.6.2-2.6.133-1.067.4-2.633.8-4.7Zm31.91 7.3c0-.733.066-1.6.2-2.6.133-1.067.433-2.633.9-4.7l6-29-9.9-.6.4-2.9 17-5.1 1.3 1-7.1 34.2c-.267 1.267-.5 2.4-.7 3.4-.134 1-.2 1.767-.2 2.3 0 .667.233 1.2.7 1.6.466.4.966.6 1.5.6 2.4 0 5.6-2.4 9.6-7.2l2.5 1.9a65.263 65.263 0 0 1-4.8 5.8c-1.667 1.867-3.5 3.4-5.5 4.6-1.934 1.2-4.1 1.8-6.5 1.8-1.334 0-2.567-.433-3.7-1.3-1.134-.867-1.7-2.133-1.7-3.8Zm14.7-58.5c-1.6 0-2.9-.5-3.9-1.5-1-1.067-1.5-2.533-1.5-4.4 0-1.667.6-3.1 1.8-4.3 1.2-1.267 2.566-1.9 4.1-1.9 1.6 0 2.9.533 3.9 1.6 1 1 1.5 2.4 1.5 4.2 0 1.6-.6 3.067-1.8 4.4-1.2 1.267-2.567 1.9-4.1 1.9Zm22.069 62.3-6.7.8-1-.8 8.5-40.1-9.9-.6.4-2.9 17-5.1 1.3 1-2.1 10.3c3.333-3.133 6.866-5.8 10.6-8 3.8-2.2 7.233-3.3 10.3-3.3 4.266 0 6.4 2.3 6.4 6.9 0 1.6-.167 3.233-.5 4.9-.334 1.6-.7 3.233-1.1 4.9l-4.5 18.5c-.334 1.4-.634 2.6-.9 3.6-.267.933-.4 1.667-.4 2.2 0 1.4.633 2.1 1.9 2.1 1.266 0 2.766-.633 4.5-1.9 1.8-1.267 3.6-3.033 5.4-5.3l2.4 1.9c-1.267 1.933-2.834 3.867-4.7 5.8-1.8 1.867-3.767 3.4-5.9 4.6-2.134 1.2-4.367 1.8-6.7 1.8-1.534 0-2.767-.4-3.7-1.2-.867-.8-1.3-1.833-1.3-3.1 0-1.133.133-2.233.4-3.3.333-1.133.733-2.733 1.2-4.8l4.3-17.6a407.9 407.9 0 0 0 1.1-4.9c.333-1.533.5-2.8.5-3.8 0-1.733-.3-2.933-.9-3.6-.6-.667-1.467-1-2.6-1-1.8 0-4.1.733-6.9 2.2-2.8 1.467-6.034 3.7-9.7 6.7l-2.7 12.1a480.02 480.02 0 0 0-2.1 10.5c-.6 3.467-1.234 6.967-1.9 10.5Zm64.947-18.7c3.134-.067 5.6-1.533 7.4-4.4 1.867-2.867 2.8-6.933 2.8-12.2 0-3.2-.766-5.7-2.3-7.5-1.466-1.867-3.266-2.767-5.4-2.7-3.466.067-6.066 1.6-7.8 4.6-1.733 2.933-2.6 6.733-2.6 11.4 0 7.333 2.634 10.933 7.9 10.8Zm-15.6-10.3c0-3.667.834-6.967 2.5-9.9 1.734-3 4.034-5.367 6.9-7.1 2.867-1.8 6.034-2.7 9.5-2.7 3.2 0 5.9.833 8.1 2.5 2.2 1.6 3.634 3.9 4.3 6.9.934-3.933 2.234-6.667 3.9-8.2 1.734-1.533 3.534-2.3 5.4-2.3 1.334 0 2.334.2 3 .6.6.733.9 1.433.9 2.1 0 2-.866 3.433-2.6 4.3-1.666.867-4.1 1.767-7.3 2.7-.333.867-.633 1.8-.9 2.8a69.583 69.583 0 0 0-.8 3.1c-1.466 6.467-3.866 11.2-7.2 14.2-3.266 3-6.9 4.5-10.9 4.5-3 0-5.566-.5-7.7-1.5-1.066 1.267-1.766 2.3-2.1 3.1-.266.8-.4 1.567-.4 2.3 0 .867.367 1.767 1.1 2.7.734.933 2.1 1.533 4.1 1.8l9.9 1.2c5.334.667 9.1 1.933 11.3 3.8 2.267 1.867 3.4 4.233 3.4 7.1 0 3.467-1.266 6.633-3.8 9.5-2.466 2.933-5.9 5.267-10.3 7-4.333 1.733-9.266 2.6-14.8 2.6-4.666 0-8.566-.867-11.7-2.6-3.066-1.733-4.6-4.4-4.6-8 0-3 1.234-5.867 3.7-8.6 2.467-2.667 5.434-4.833 8.9-6.5-1.733-.867-2.9-1.9-3.5-3.1-.6-1.267-.9-2.433-.9-3.5 0-1.867.667-3.6 2-5.2 1.334-1.667 3.167-3.333 5.5-5-3.266-2.333-4.9-5.867-4.9-10.6Zm-3 39.2c0 2.867 1.134 5.1 3.4 6.7 2.267 1.667 5.434 2.5 9.5 2.5 5.334 0 9.6-.967 12.8-2.9 3.2-1.933 4.8-4.5 4.8-7.7a6.044 6.044 0 0 0-1.1-3.5c-.666-1.067-1.9-2-3.7-2.8-1.8-.8-4.433-1.4-7.9-1.8l-8-.9a3.694 3.694 0 0 0-.9-.1l-.8-.2c-2.666 1.733-4.7 3.4-6.1 5-1.333 1.667-2 3.567-2 5.7ZM651.145 327c2.933 0 5.433.767 7.5 2.3 2.133 1.467 3.4 3.133 3.8 5-.667 2.267-1.967 3.4-3.9 3.4-1.467 0-2.767-.433-3.9-1.3-1.067-.867-2.4-2.267-4-4.2l-1.6-1.9c-1.667.733-3.267 1.967-4.8 3.7-1.534 1.667-2.934 4.067-4.2 7.2-1.2 3.067-2.234 7.167-3.1 12.3-.067.2-.1.4-.1.6 0 .133-.034.3-.1.5h12.9l-.8 5.3-12.9-.4a2363.083 2363.083 0 0 0-3.2 19.5 513.306 513.306 0 0 1-3.5 19.5c-1.067 5.333-2.367 9.967-3.9 13.9-1.467 3.933-3.6 7.167-6.4 9.7-2.067 1.867-3.934 3.133-5.6 3.8-1.734.733-3.4 1.1-5 1.1-2.267 0-4.267-.567-6-1.7-1.734-1.133-2.834-2.633-3.3-4.5.2-1.067.766-1.933 1.7-2.6.866-.667 1.833-1 2.9-1 1.466 0 2.8.4 4 1.2a21.94 21.94 0 0 1 3.3 2.9l1.2 1.2a17.58 17.58 0 0 0 2-1.9 15.1 15.1 0 0 0 2.1-2.4c1.266-1.867 2.366-4.333 3.3-7.4.933-3 1.866-7.1 2.8-12.3 1.2-6.733 2.3-13.267 3.3-19.6a2071.007 2071.007 0 0 0 3.2-19.6h-10.4l.8-3.8 10.4-.9.1-.9c.866-5.533 2.133-10.033 3.8-13.5 1.733-3.533 3.633-6.233 5.7-8.1 2.133-1.933 4.233-3.267 6.3-4 2.133-.733 4-1.1 5.6-1.1Zm3.132 60.4c0 3.067.533 5.333 1.6 6.8 1.133 1.467 2.6 2.2 4.4 2.2 1.733 0 3.733-.7 6-2.1 2.266-1.4 5.033-3.9 8.3-7.5l5.4-25a15.142 15.142 0 0 0-3-1.3c-1-.4-2.034-.6-3.1-.6-1.6 0-3.4.5-5.4 1.5-1.934 1-3.8 2.433-5.6 4.3-2.4 2.467-4.434 5.6-6.1 9.4-1.667 3.8-2.5 7.9-2.5 12.3Zm24 15.9c-1.334 0-2.534-.467-3.6-1.4-1.067-.933-1.6-2.4-1.6-4.4 0-1.933.133-3.7.4-5.3-2.867 3.267-5.834 5.933-8.9 8-3 2.067-5.867 3.1-8.6 3.1-2.4 0-4.6-.933-6.6-2.8-1.934-1.867-2.9-4.867-2.9-9 0-3.467.633-7 1.9-10.6a51.457 51.457 0 0 1 5.2-10.3c2.2-3.333 4.633-6.3 7.3-8.9 2.733-2.6 5.5-4.633 8.3-6.1 2.866-1.533 5.6-2.3 8.2-2.3 1.133 0 2.166.233 3.1.7.933.467 1.8 1.133 2.6 2l4.6-3.7 1.8.9-8 35.3c-.6 2.467-.9 4.367-.9 5.7 0 .667.233 1.2.7 1.6.466.4 1.033.6 1.7.6 1.266 0 2.766-.667 4.5-2 1.8-1.333 3.566-3.067 5.3-5.2l2.4 1.9c-1.267 1.933-2.8 3.833-4.6 5.7-1.8 1.867-3.734 3.433-5.8 4.7-2.067 1.2-4.234 1.8-6.5 1.8Zm22.146-1.3 9.6-47.7a413.22 413.22 0 0 0 1.7-8.8c.6-3 1.133-6 1.6-9l-9.5-.6.4-2.9 17.3-5 .6.8-9 45.7 26.6-20.7c1.066.067 1.933.5 2.6 1.3.733.8 1.1 1.733 1.1 2.8 0 .867-.4 1.7-1.2 2.5-.8.8-2.134 1.7-4 2.7l-24.3 13.4 2.3.5c2.933.533 5.233 1.633 6.9 3.3 1.733 1.6 3.166 3.667 4.3 6.2l2.9 6.3c1.133 2.4 2.166 3.933 3.1 4.6.933.667 2.166 1.067 3.7 1.2l5.1.4-.5 3c-1.467.467-2.734.8-3.8 1-1.067.2-2.167.3-3.3.3-2.334 0-4.367-.467-6.1-1.4-1.734-.933-3.334-3.133-4.8-6.6l-3.2-7.8c-1.2-2.8-2.3-4.767-3.3-5.9-1-1.2-2.367-2.033-4.1-2.5l-.9-.3-.4 2.2c-.667 3.467-1.334 6.967-2 10.5-.6 3.467-1.2 6.967-1.8 10.5l-6.7.8-.9-.8Zm69.291-44.4c-1.533 0-3.233.6-5.1 1.8-1.8 1.2-3.567 2.867-5.3 5-1.733 2.133-3.2 4.6-4.4 7.4-1.133 2.733-1.833 5.667-2.1 8.8 5.533-1.6 9.933-3.367 13.2-5.3 3.333-2 5.7-4 7.1-6 1.467-2.067 2.2-4 2.2-5.8 0-1.867-.533-3.3-1.6-4.3-1-1.067-2.333-1.6-4-1.6Zm-8.8 45.7c-4.4 0-8.033-1.5-10.9-4.5-2.8-3-4.2-7.7-4.2-14.1 0-4 .7-7.867 2.1-11.6 1.4-3.8 3.3-7.167 5.7-10.1 2.4-3 5.167-5.367 8.3-7.1 3.2-1.733 6.533-2.6 10-2.6 3.267 0 5.733.8 7.4 2.4 1.733 1.6 2.6 3.867 2.6 6.8 0 2.133-.833 4.5-2.5 7.1-1.667 2.533-4.633 5.1-8.9 7.7-4.2 2.6-10.1 5-17.7 7.2.2 4.267 1.2 7.333 3 9.2 1.8 1.8 4.233 2.7 7.3 2.7 3.133 0 5.833-.8 8.1-2.4 2.267-1.6 4.067-3.233 5.4-4.9l2.3 1.8a32.804 32.804 0 0 1-7.8 8.8c-3.133 2.4-6.533 3.6-10.2 3.6Zm53.123-14.2c0 4.133-1.567 7.533-4.7 10.2-3.067 2.667-7.134 4-12.2 4-3.867 0-6.834-.9-8.9-2.7-2-1.8-3.167-4.2-3.5-7.2.266-.867.733-1.533 1.4-2 .733-.533 1.5-.8 2.3-.8 1.466 0 2.533.4 3.2 1.2.733.733 1.266 1.8 1.6 3.2l1.1 4.3c.2.067.4.1.6.1h.8c3.466 0 6.166-.767 8.1-2.3 1.933-1.533 2.9-3.6 2.9-6.2 0-1.6-.367-3.133-1.1-4.6-.734-1.467-2.534-3.233-5.4-5.3-2.467-1.933-4.567-3.9-6.3-5.9-1.667-2.067-2.5-4.667-2.5-7.8 0-2.6.666-4.967 2-7.1 1.333-2.133 3.166-3.8 5.5-5 2.4-1.267 5.2-1.9 8.4-1.9 2.933 0 5.466.667 7.6 2 2.133 1.267 3.566 3.533 4.3 6.8-.6 1.867-1.867 2.8-3.8 2.8-2.334 0-4.034-1.567-5.1-4.7l-.9-2.9a2.21 2.21 0 0 0-.7-.1h-.7c-3.467 0-5.934.8-7.4 2.4-1.4 1.6-2.1 3.533-2.1 5.8 0 2.067.5 3.8 1.5 5.2 1.066 1.333 3.033 3.067 5.9 5.2 3 2.267 5.1 4.333 6.3 6.2 1.2 1.8 1.8 4.167 1.8 7.1ZM244 561.979v-4.7l5.4-1.2c.067-2.4.1-5 .1-7.8v-12.1c0-2.733-.033-5-.1-6.8 0-1.867-.067-3.8-.2-5.8l-6.2-.9v-3.9l21-6.7 1.7 1.1-.3 14.5V548.379c0 2.8.033 5.433.1 7.9l5 1v4.7H244Zm13.3-57.3c-2.333 0-4.333-.733-6-2.2-1.667-1.533-2.5-3.433-2.5-5.7 0-2.333.833-4.233 2.5-5.7 1.667-1.533 3.667-2.3 6-2.3s4.333.767 6 2.3c1.667 1.467 2.5 3.367 2.5 5.7 0 2.267-.833 4.167-2.5 5.7-1.667 1.467-3.667 2.2-6 2.2Zm35.741 58.8c-6.334 0-12.134-1.533-17.4-4.6l.3-12.2h8l1.7 9.9c1.2.467 2.4.833 3.6 1.1 1.2.2 2.5.3 3.9.3 2.866 0 5.066-.467 6.6-1.4 1.533-1 2.3-2.5 2.3-4.5 0-1.533-.567-2.867-1.7-4-1.134-1.133-3.367-2.167-6.7-3.1l-5.4-1.6c-3.867-1.133-6.867-2.967-9-5.5-2.067-2.533-3.1-5.667-3.1-9.4 0-4.6 1.8-8.467 5.4-11.6 3.6-3.2 8.766-4.8 15.5-4.8 2.933 0 5.633.367 8.1 1.1 2.533.667 5.1 1.667 7.7 3l-.7 10.9h-8l-2-8.6c-1.4-.533-3.234-.8-5.5-.8-2.267 0-4.1.467-5.5 1.4-1.334.933-2 2.333-2 4.2 0 1.333.533 2.533 1.6 3.6 1.066 1 3.333 2.033 6.8 3.1l4.9 1.4c4.733 1.4 8.133 3.4 10.2 6 2.066 2.6 3.1 5.767 3.1 9.5 0 5.267-2.034 9.367-6.1 12.3-4 2.867-9.534 4.3-16.6 4.3Zm66.894 0c-6.333 0-12.133-1.533-17.4-4.6l.3-12.2h8l1.7 9.9c1.2.467 2.4.833 3.6 1.1 1.2.2 2.5.3 3.9.3 2.867 0 5.067-.467 6.6-1.4 1.533-1 2.3-2.5 2.3-4.5 0-1.533-.567-2.867-1.7-4s-3.367-2.167-6.7-3.1l-5.4-1.6c-3.867-1.133-6.867-2.967-9-5.5-2.067-2.533-3.1-5.667-3.1-9.4 0-4.6 1.8-8.467 5.4-11.6 3.6-3.2 8.767-4.8 15.5-4.8 2.933 0 5.633.367 8.1 1.1 2.533.667 5.1 1.667 7.7 3l-.7 10.9h-8l-2-8.6c-1.4-.533-3.233-.8-5.5-.8s-4.1.467-5.5 1.4c-1.333.933-2 2.333-2 4.2 0 1.333.533 2.533 1.6 3.6 1.067 1 3.333 2.033 6.8 3.1l4.9 1.4c4.733 1.4 8.133 3.4 10.2 6s3.1 5.767 3.1 9.5c0 5.267-2.033 9.367-6.1 12.3-4 2.867-9.533 4.3-16.6 4.3Zm53.408 0c-5.2 0-9.7-1.067-13.5-3.2-3.8-2.2-6.733-5.233-8.8-9.1-2.067-3.933-3.1-8.467-3.1-13.6 0-5.133 1.1-9.6 3.3-13.4 2.267-3.8 5.333-6.767 9.2-8.9 3.867-2.133 8.167-3.2 12.9-3.2 4.733 0 9 1.033 12.8 3.1 3.867 2.067 6.933 5.033 9.2 8.9 2.267 3.8 3.4 8.3 3.4 13.5 0 5.2-1.033 9.733-3.1 13.6-2.067 3.867-5 6.9-8.8 9.1-3.8 2.133-8.3 3.2-13.5 3.2Zm0-5.2c2.8 0 4.9-1.633 6.3-4.9 1.4-3.267 2.1-8.433 2.1-15.5 0-7.133-.7-12.333-2.1-15.6-1.4-3.267-3.5-4.9-6.3-4.9-2.867 0-5 1.633-6.4 4.9-1.4 3.267-2.1 8.467-2.1 15.6 0 7.067.7 12.233 2.1 15.5 1.4 3.267 3.533 4.9 6.4 4.9Zm31.043 3.7v-4.7l5.4-1.2c.067-2.4.1-5 .1-7.8v-13.1c0-2.733-.033-4.833-.1-6.3 0-1.533-.067-3.3-.2-5.3l-6.1-.9v-3.9l19.7-6.7 1.8 1.1.6 7.2c2.333-2.733 4.767-4.8 7.3-6.2 2.6-1.4 5.367-2.1 8.3-2.1 6.867 0 11.3 2.967 13.3 8.9 2.733-3.333 5.367-5.633 7.9-6.9 2.6-1.333 5.333-2 8.2-2 5.067 0 8.767 1.467 11.1 4.4 2.333 2.933 3.5 7.367 3.5 13.3v18.6c0 2.8.033 5.4.1 7.8l5 1.1v4.7h-25.8v-4.7l4.9-1.2c.067-2.4.1-4.967.1-7.7v-17.1c0-3.733-.433-6.233-1.3-7.5-.867-1.333-2.333-2-4.4-2-2.8 0-5.6 1.2-8.4 3.6.067.6.1 1.233.1 1.9.067.6.1 1.267.1 2v19.2c0 2.733.033 5.333.1 7.8l4.7 1v4.7h-25.8v-4.7l5.2-1.2c.067-2.4.1-4.967.1-7.7v-17c0-3.533-.433-6-1.3-7.4-.8-1.467-2.3-2.2-4.5-2.2-1.4 0-2.8.333-4.2 1a18.672 18.672 0 0 0-4 2.6v23c0 2.8.033 5.433.1 7.9l4.7 1v4.7h-26.3Zm115.523-44.7c-1.867 0-3.6 1.167-5.2 3.5-1.534 2.267-2.4 6.467-2.6 12.6h8.5c2.4 0 4-.467 4.8-1.4.866-1 1.3-2.633 1.3-4.9 0-3.333-.667-5.8-2-7.4-1.334-1.6-2.934-2.4-4.8-2.4Zm.2 46.2c-4.867 0-9.167-1-12.9-3-3.734-2.067-6.667-5-8.8-8.8-2.134-3.867-3.2-8.467-3.2-13.8 0-5.6 1.233-10.3 3.7-14.1 2.533-3.867 5.766-6.767 9.7-8.7 3.933-2 8.033-3 12.3-3 4.4 0 8.133.933 11.2 2.8 3.133 1.867 5.5 4.4 7.1 7.6 1.6 3.133 2.4 6.733 2.4 10.8 0 1.933-.2 3.7-.6 5.3h-28.9c.333 5.267 1.766 9.167 4.3 11.7 2.6 2.467 5.633 3.7 9.1 3.7 2.733 0 5.066-.5 7-1.5a21.154 21.154 0 0 0 5.1-3.9l3.5 3.2c-2.067 3.933-4.867 6.867-8.4 8.8-3.534 1.933-7.734 2.9-12.6 2.9Zm46.148 0c-4.467 0-7.967-1.067-10.5-3.2-2.533-2.2-3.8-5.767-3.8-10.7v-4.8c.067-1.533.1-3.267.1-5.2v-19.1h-6.5v-5.9l7.4-1 5-14h10.2l-.2 14.1h10.5v6.8h-10.5v28c0 2.333.467 4.067 1.4 5.2 1 1.067 2.233 1.6 3.7 1.6 1.733 0 3.533-.733 5.4-2.2l2.5 2.4c-1.333 2.533-3.2 4.5-5.6 5.9-2.333 1.4-5.367 2.1-9.1 2.1Zm17.04-1.5v-4.7l5.4-1.2c.067-2.4.1-5 .1-7.8v-12.1c0-2.733-.033-5-.1-6.8 0-1.867-.067-3.8-.2-5.8l-6.2-.9v-3.9l21-6.7 1.7 1.1-.3 14.5V548.379c0 2.8.033 5.433.1 7.9l5 1v4.7h-26.5Zm13.3-57.3c-2.333 0-4.333-.733-6-2.2-1.667-1.533-2.5-3.433-2.5-5.7 0-2.333.833-4.233 2.5-5.7 1.667-1.533 3.667-2.3 6-2.3s4.333.767 6 2.3c1.667 1.467 2.5 3.367 2.5 5.7 0 2.267-.833 4.167-2.5 5.7-1.667 1.467-3.667 2.2-6 2.2Zm18.141 57.3v-4.7l5.4-1.2c.066-2.4.1-5 .1-7.8v-13.1c0-2.733-.034-4.833-.1-6.3 0-1.533-.067-3.3-.2-5.3l-6.1-.9v-3.9l19.7-6.7 1.8 1.1.6 7.2c2.333-2.733 4.766-4.8 7.3-6.2 2.6-1.4 5.366-2.1 8.3-2.1 6.866 0 11.3 2.967 13.3 8.9 2.733-3.333 5.366-5.633 7.9-6.9 2.6-1.333 5.333-2 8.2-2 5.066 0 8.766 1.467 11.1 4.4 2.333 2.933 3.5 7.367 3.5 13.3v18.6c0 2.8.033 5.4.1 7.8l5 1.1v4.7h-25.8v-4.7l4.9-1.2c.066-2.4.1-4.967.1-7.7v-17.1c0-3.733-.434-6.233-1.3-7.5-.867-1.333-2.334-2-4.4-2-2.8 0-5.6 1.2-8.4 3.6.066.6.1 1.233.1 1.9.066.6.1 1.267.1 2v19.2c0 2.733.033 5.333.1 7.8l4.699 1v4.7h-25.799v-4.7l5.2-1.2c.066-2.4.1-4.967.1-7.7v-17c0-3.533-.434-6-1.3-7.4-.8-1.467-2.3-2.2-4.5-2.2-1.4 0-2.8.333-4.2 1a18.648 18.648 0 0 0-4 2.6v23c0 2.8.033 5.433.1 7.9l4.7 1v4.7h-26.3Zm115.522-44.7c-1.867 0-3.6 1.167-5.2 3.5-1.533 2.267-2.4 6.467-2.6 12.6h8.5c2.4 0 4-.467 4.8-1.4.867-1 1.3-2.633 1.3-4.9 0-3.333-.667-5.8-2-7.4-1.333-1.6-2.933-2.4-4.8-2.4Zm.2 46.2c-4.867 0-9.167-1-12.9-3-3.733-2.067-6.667-5-8.8-8.8-2.133-3.867-3.2-8.467-3.2-13.8 0-5.6 1.233-10.3 3.7-14.1 2.533-3.867 5.767-6.767 9.7-8.7 3.933-2 8.033-3 12.3-3 4.4 0 8.133.933 11.2 2.8 3.133 1.867 5.5 4.4 7.1 7.6 1.6 3.133 2.4 6.733 2.4 10.8 0 1.933-.2 3.7-.6 5.3h-28.9c.333 5.267 1.767 9.167 4.3 11.7 2.6 2.467 5.633 3.7 9.1 3.7 2.733 0 5.067-.5 7-1.5a21.154 21.154 0 0 0 5.1-3.9l3.5 3.2c-2.067 3.933-4.867 6.867-8.4 8.8-3.533 1.933-7.733 2.9-12.6 2.9Zm44.749 0c-6.334 0-12.134-1.533-17.4-4.6l.3-12.2h8l1.7 9.9c1.2.467 2.4.833 3.6 1.1 1.2.2 2.5.3 3.9.3 2.866 0 5.066-.467 6.6-1.4 1.533-1 2.3-2.5 2.3-4.5 0-1.533-.567-2.867-1.7-4-1.134-1.133-3.367-2.167-6.7-3.1l-5.4-1.6c-3.867-1.133-6.867-2.967-9-5.5-2.067-2.533-3.1-5.667-3.1-9.4 0-4.6 1.8-8.467 5.4-11.6 3.6-3.2 8.766-4.8 15.5-4.8 2.933 0 5.633.367 8.1 1.1 2.533.667 5.1 1.667 7.7 3l-.7 10.9h-8l-2-8.6c-1.4-.533-3.234-.8-5.5-.8-2.267 0-4.1.467-5.5 1.4-1.334.933-2 2.333-2 4.2 0 1.333.533 2.533 1.6 3.6 1.066 1 3.333 2.033 6.8 3.1l4.9 1.4c4.733 1.4 8.133 3.4 10.2 6 2.066 2.6 3.1 5.767 3.1 9.5 0 5.267-2.034 9.367-6.1 12.3-4 2.867-9.534 4.3-16.6 4.3ZM271.9 662.28l-10.1 29.8h20.1l-10-29.8Zm-30.4 56.2v-4.1l8.4-1.3 21.3-62h6.3l21.3 62.4 7.5.9v4.1h-27.2v-4.1l9.8-1.2-5.5-16.4h-23.2l-5.6 16.3 9.8 1.3v4.1h-22.9Zm93.646-62.8v-4.1h28.3v4.1l-9.2 1.1-.2 12.9v31.3c.067 4.067.133 8.234.2 12.5h22.7l2.9-13.8h6.1l-1 18.8h-49.8v-4.1l9.2-1.1c.133-4.333.2-8.633.2-12.9v-30.8c0-4.333-.067-8.6-.2-12.8l-9.2-1.1Zm68.77 37.3v-14.1c0-3.466-.066-6.933-.2-10.4l-7.9-1v-3.9h25.2v3.9l-7.8.9-.2 10.3v24.6c.067 3.4.134 6.834.2 10.3l7.8.9v4h-25.2v-4l7.9-1c.134-3.333.2-6.7.2-10.1v-10.4Zm45.529 0v-14.1c0-3.466-.067-6.933-.2-10.4h-12.4l-2 10.2h-5.6l.7-15.1h48.1l.7 15.1h-5.6l-2-10.2h-12.4c-.067 3.4-.134 6.834-.2 10.3v24.5l.2 10.2 8.7 1v4h-26.9v-4l8.7-1c.133-3.333.2-6.7.2-10.1v-10.4Zm56.543 0v-14.1c0-3.466-.067-6.933-.2-10.4h-12.4l-2 10.2h-5.6l.699-15.1h48.1l.701 15.1h-5.6l-2-10.2h-12.4c-.067 3.4-.134 6.834-.2 10.3v24.5l.2 10.2 8.7 1v4h-26.9v-4l8.7-1c.133-3.333.2-6.7.2-10.1v-10.4Zm45.487-3.9v-10.4c0-3.466-.067-6.866-.2-10.2l-7.9-1v-3.9h25.2v3.9l-7.8.9-.2 10.4v25c.067 3.2.133 6.467.2 9.8h18.9l2.7-11.3h5.9l-.9 16.2h-44v-4l7.9-1c.133-3.4.2-6.8.2-10.2V689.08Zm55.566 3.9v-14.1c0-3.466-.066-6.933-.2-10.4l-7.9-1v-3.9h43.9l.6 15.3h-5.6l-1.9-10.4h-19.6l-.2 10.1v9.5h12.3l1.2-7.8h4.4v19.9h-4.4l-1.1-7.6h-12.4v10.6l.2 10.4h21.4l1.9-10.4h5.6l-.5 15.3h-45.8v-4l7.9-1c.134-3.333.2-6.7.2-10.1v-10.4Zm111.995-37.3v-4.1h28.2v4.1l-9.2 1.1c-.067 4.2-.133 8.467-.2 12.8V700.38l.2 12.9 9.2 1.1v4.1h-28.2v-4.1l9.2-1.1c.133-4.266.2-8.6.2-13v-13.7h-32.3v14.1c.067 4.334.133 8.567.2 12.7l9.1 1v4.1h-28.2v-4.1l9.2-1.1c.133-4.2.2-8.466.2-12.8V669.68c0-4.333-.067-8.633-.2-12.9l-9.2-1.1v-4.1h28.2v4.1l-9.1 1-.2 12.8v12.4h32.3v-12.8c0-4.133-.067-8.233-.2-12.3l-9.2-1.1Zm59.906 18.3-8.5 22.8h16.7l-8.2-22.8Zm-26.7 44.5v-4l7.6-1.3 18.5-50h6l18.5 50.5 6.3.9v3.9h-24.2v-3.9l8.3-1.1-4.4-12.1h-20.1l-4.3 11.8 8.4 1.3v4h-20.6Zm88.387-50.4h-7.1l-.2 10.3v10.3h6.1c4.733 0 8.167-1 10.3-3 2.133-2 3.2-4.533 3.2-7.6 0-3.333-1-5.833-3-7.5-1.933-1.666-5.033-2.5-9.3-2.5Zm-16.4 24.9v-14.1c0-3.466-.067-6.933-.2-10.4l-7.9-1v-3.9h24.7c6.867 0 12.2 1.267 16 3.8 3.8 2.534 5.7 6.067 5.7 10.6 0 2.934-1.233 5.734-3.7 8.4-2.4 2.6-6.067 4.334-11 5.2 2.6.534 4.767 1.667 6.5 3.4 1.733 1.734 3.133 4.367 4.2 7.9l3.3 10.8 6.4.8v4c-.867.267-1.867.5-3 .7-1.067.2-2.267.3-3.6.3-2.867 0-5.033-.4-6.5-1.2-1.467-.866-2.467-2.433-3-4.7l-3.2-12.8c-.533-2.333-1.3-4.033-2.3-5.1-.933-1.066-2.2-1.766-3.8-2.1-1.6-.333-3.567-.5-5.9-.5h-3.6v10.6c.067 3.334.133 6.634.2 9.9l7.8.9v4h-25.2v-4l7.9-1c.133-3.333.2-6.7.2-10.1v-10.4Zm59.375-.5v-13.8c0-3.4-.067-6.8-.2-10.2l-7.9-1v-3.9h26.4c5.467 0 10.3 1.067 14.5 3.2 4.267 2.067 7.6 5.134 10 9.2 2.4 4.067 3.6 9.1 3.6 15.1 0 6.067-1.333 11.134-4 15.2-2.667 4.067-6.267 7.134-10.8 9.2-4.533 2-9.6 3-15.2 3h-24.5v-4l7.9-1c.133-3.333.2-6.733.2-10.2v-10.8Zm9.1 0v10.9l.2 10.6h6.7c6.333 0 11.2-1.966 14.6-5.9 3.467-4 5.2-9.666 5.2-17 0-7.533-1.7-13.233-5.1-17.1-3.333-3.933-8-5.9-14-5.9h-7.4l-.2 10.4v14Z" fill="#3C4043"/></svg>