<svg width="1920" height="1080" fill="none" xmlns="http://www.w3.org/2000/svg"><mask id="a" style="mask-type:alpha" maskUnits="userSpaceOnUse" x="50" y="50" width="1820" height="980"><path fill="#C4C4C4" d="M50 50h1820v980H50z"/></mask><g mask="url(#a)"><path stroke="#D2E3FC" stroke-width="17.721" d="M251.861 226.861h363.733v515.984H251.861z"/><path d="M304.728 279.628c0 6-1.024 10.458-3.073 13.374-2.049 2.917-5.252 4.375-9.608 4.375-4.301 0-7.486-1.421-9.553-4.264-2.068-2.861-3.138-7.125-3.212-12.792v-6.84c0-5.925 1.024-10.328 3.073-13.207 2.049-2.88 5.261-4.32 9.636-4.32 4.338 0 7.532 1.394 9.581 4.181 2.049 2.769 3.101 7.052 3.156 12.848v6.645Zm-5.122-7.005c0-4.338-.609-7.495-1.828-9.47-1.218-1.993-3.147-2.99-5.787-2.99-2.621 0-4.532.987-5.731 2.963-1.2 1.975-1.819 5.011-1.856 9.109v8.196c0 4.357.628 7.578 1.883 9.664 1.274 2.067 3.194 3.101 5.76 3.101 2.529 0 4.402-.978 5.621-2.935 1.236-1.957 1.882-5.039 1.938-9.248v-8.39Zm36.965 7.005c0 6-1.025 10.458-3.074 13.374-2.049 2.917-5.251 4.375-9.608 4.375-4.301 0-7.485-1.421-9.553-4.264-2.067-2.861-3.138-7.125-3.211-12.792v-6.84c0-5.925 1.024-10.328 3.073-13.207 2.049-2.88 5.261-4.32 9.636-4.32 4.338 0 7.531 1.394 9.58 4.181 2.049 2.769 3.102 7.052 3.157 12.848v6.645Zm-5.123-7.005c0-4.338-.609-7.495-1.827-9.47-1.218-1.993-3.147-2.99-5.787-2.99-2.621 0-4.532.987-5.732 2.963-1.2 1.975-1.818 5.011-1.855 9.109v8.196c0 4.357.628 7.578 1.883 9.664 1.274 2.067 3.193 3.101 5.759 3.101 2.529 0 4.403-.978 5.621-2.935 1.237-1.957 1.883-5.039 1.938-9.248v-8.39Zm38.101 24.2h-26.416v-3.682l13.956-15.506c2.067-2.345 3.488-4.246 4.264-5.704.793-1.477 1.19-3 1.19-4.569 0-2.104-.636-3.83-1.91-5.178-1.274-1.347-2.972-2.021-5.095-2.021-2.547 0-4.532.729-5.953 2.187-1.403 1.44-2.105 3.452-2.105 6.037h-5.122c0-3.711 1.191-6.71 3.572-8.999 2.4-2.289 5.602-3.434 9.608-3.434 3.747 0 6.71.988 8.888 2.963 2.178 1.957 3.268 4.569 3.268 7.836 0 3.969-2.529 8.694-7.587 14.177l-10.799 11.712h20.241v4.181Zm30.707-17.195c0 6-1.024 10.458-3.073 13.374-2.049 2.917-5.252 4.375-9.609 4.375-4.301 0-7.485-1.421-9.552-4.264-2.068-2.861-3.138-7.125-3.212-12.792v-6.84c0-5.925 1.024-10.328 3.073-13.207 2.049-2.88 5.261-4.32 9.636-4.32 4.338 0 7.531 1.394 9.58 4.181 2.05 2.769 3.102 7.052 3.157 12.848v6.645Zm-5.122-7.005c0-4.338-.61-7.495-1.828-9.47-1.218-1.993-3.147-2.99-5.787-2.99-2.621 0-4.532.987-5.732 2.963-1.199 1.975-1.818 5.011-1.855 9.109v8.196c0 4.357.628 7.578 1.883 9.664 1.274 2.067 3.194 3.101 5.759 3.101 2.529 0 4.403-.978 5.621-2.935 1.237-1.957 1.883-5.039 1.939-9.248v-8.39Z" fill="#1A73E8"/><path stroke="#D2E3FC" stroke-width="15.702" d="M250.851 743.007h365.752v518.003H250.851z"/><path d="M408.905 1006.4h18.65c11.718-.17 20.931-3.26 27.639-9.253 6.709-5.993 10.063-14.088 10.063-24.285 0-22.899-11.404-34.348-34.213-34.348-10.734 0-19.321 3.086-25.761 9.258-6.351 6.082-9.526 14.177-9.526 24.285h-24.822c0-15.475 5.635-28.31 16.906-38.507 11.359-10.287 25.76-15.43 43.203-15.43 18.426 0 32.872 4.875 43.337 14.625 10.465 9.749 15.698 23.301 15.698 40.653 0 8.498-2.773 16.727-8.319 24.688-5.456 7.964-12.925 13.904-22.406 17.844 10.733 3.4 19.007 9.03 24.821 16.91 5.904 7.87 8.856 17.48 8.856 28.84 0 17.53-5.725 31.44-17.174 41.73-11.449 10.29-26.342 15.43-44.679 15.43-18.337 0-33.275-4.96-44.813-14.89-11.45-9.93-17.174-23.04-17.174-39.32h24.956c0 10.29 3.354 18.52 10.062 24.69 6.709 6.17 15.698 9.26 26.969 9.26 11.986 0 21.154-3.13 27.505-9.39 6.351-6.26 9.526-15.25 9.526-26.97 0-11.36-3.488-20.08-10.465-26.16-6.977-6.09-17.04-9.22-30.189-9.4h-18.65v-20.26Z" fill="#3C4043"/><path d="M301.466 796.744c0 5.316-.908 9.266-2.723 11.85-1.816 2.584-4.654 3.877-8.514 3.877-3.811 0-6.632-1.26-8.464-3.779-1.832-2.535-2.78-6.313-2.846-11.334v-6.06c0-5.251.908-9.152 2.723-11.703 1.816-2.552 4.662-3.828 8.538-3.828 3.844 0 6.674 1.235 8.489 3.705 1.816 2.454 2.748 6.248 2.797 11.384v5.888Zm-4.539-6.207c0-3.844-.54-6.641-1.619-8.391-1.08-1.766-2.789-2.649-5.128-2.649-2.322 0-4.015.875-5.078 2.625-1.063 1.75-1.611 4.44-1.644 8.072v7.262c0 3.86.556 6.714 1.668 8.562 1.129 1.832 2.83 2.748 5.103 2.748 2.241 0 3.901-.867 4.981-2.601 1.096-1.733 1.668-4.465 1.717-8.194v-7.434Zm32.753 6.207c0 5.316-.908 9.266-2.723 11.85-1.816 2.584-4.653 3.877-8.513 3.877-3.811 0-6.633-1.26-8.465-3.779-1.832-2.535-2.78-6.313-2.846-11.334v-6.06c0-5.251.908-9.152 2.724-11.703 1.815-2.552 4.661-3.828 8.538-3.828 3.843 0 6.673 1.235 8.488 3.705 1.816 2.454 2.748 6.248 2.797 11.384v5.888Zm-4.539-6.207c0-3.844-.539-6.641-1.619-8.391-1.079-1.766-2.789-2.649-5.127-2.649-2.323 0-4.016.875-5.079 2.625-1.063 1.75-1.611 4.44-1.644 8.072v7.262c0 3.86.556 6.714 1.669 8.562 1.128 1.832 2.829 2.748 5.103 2.748 2.24 0 3.901-.867 4.98-2.601 1.096-1.733 1.668-4.465 1.717-8.194v-7.434Zm16.954 1.374h3.41c2.142-.033 3.827-.597 5.054-1.693 1.227-1.096 1.84-2.576 1.84-4.441 0-4.187-2.086-6.28-6.256-6.28-1.963 0-3.533.564-4.711 1.692-1.161 1.113-1.742 2.593-1.742 4.441h-4.539c0-2.829 1.031-5.177 3.092-7.041 2.077-1.881 4.71-2.822 7.9-2.822 3.369 0 6.011.892 7.924 2.675 1.914 1.782 2.871 4.26 2.871 7.434 0 1.553-.507 3.058-1.521 4.514-.998 1.455-2.364 2.543-4.098 3.263 1.963.621 3.476 1.652 4.539 3.091 1.08 1.439 1.619 3.198 1.619 5.275 0 3.206-1.046 5.749-3.14 7.63-2.094 1.881-4.817 2.822-8.17 2.822-3.353 0-6.084-.908-8.194-2.724-2.094-1.815-3.141-4.211-3.141-7.188h4.564c0 1.881.613 3.385 1.84 4.514 1.227 1.129 2.87 1.693 4.931 1.693 2.192 0 3.868-.573 5.03-1.718 1.161-1.144 1.742-2.788 1.742-4.931 0-2.077-.638-3.672-1.914-4.784-1.276-1.112-3.116-1.685-5.52-1.717h-3.41v-3.705Zm28.214 0h3.41c2.143-.033 3.827-.597 5.054-1.693 1.227-1.096 1.84-2.576 1.84-4.441 0-4.187-2.085-6.28-6.256-6.28-1.963 0-3.533.564-4.711 1.692-1.161 1.113-1.742 2.593-1.742 4.441h-4.538c0-2.829 1.03-5.177 3.091-7.041 2.077-1.881 4.711-2.822 7.9-2.822 3.369 0 6.011.892 7.924 2.675 1.914 1.782 2.871 4.26 2.871 7.434 0 1.553-.507 3.058-1.521 4.514-.998 1.455-2.364 2.543-4.097 3.263 1.962.621 3.475 1.652 4.538 3.091 1.08 1.439 1.62 3.198 1.62 5.275 0 3.206-1.047 5.749-3.141 7.63-2.093 1.881-4.817 2.822-8.17 2.822-3.353 0-6.084-.908-8.194-2.724-2.094-1.815-3.14-4.211-3.14-7.188h4.563c0 1.881.613 3.385 1.84 4.514 1.227 1.129 2.871 1.693 4.931 1.693 2.192 0 3.869-.573 5.03-1.718 1.161-1.144 1.742-2.788 1.742-4.931 0-2.077-.638-3.672-1.914-4.784-1.276-1.112-3.116-1.685-5.52-1.717h-3.41v-3.705Z" fill="#1A73E8"/><path stroke="#D2E3FC" stroke-width="15.702" d="M617.41 225.851h365.752v518.003H617.41z"/><path d="M811.422 543.856h-22.407l-1.744-140.209H813.3l-1.878 140.209Zm-25.09 42.666c0-4.025 1.207-7.379 3.622-10.063 2.505-2.773 6.172-4.159 11.002-4.159 4.831 0 8.498 1.386 11.003 4.159 2.504 2.684 3.756 6.038 3.756 10.063s-1.252 7.379-3.756 10.063c-2.505 2.594-6.172 3.891-11.003 3.891-4.83 0-8.497-1.297-11.002-3.891-2.415-2.684-3.622-6.038-3.622-10.063Z" fill="#3C4043"/><path d="M668.025 279.588c0 5.315-.908 9.265-2.724 11.85-1.815 2.584-4.653 3.876-8.513 3.876-3.811 0-6.632-1.259-8.464-3.778-1.832-2.535-2.781-6.314-2.846-11.335v-6.06c0-5.25.907-9.151 2.723-11.703 1.815-2.551 4.661-3.827 8.538-3.827 3.844 0 6.673 1.235 8.489 3.705 1.815 2.453 2.747 6.248 2.797 11.383v5.889Zm-4.539-6.207c0-3.844-.54-6.641-1.62-8.391-1.079-1.767-2.788-2.65-5.127-2.65-2.323 0-4.016.875-5.079 2.625-1.063 1.75-1.611 4.441-1.644 8.072v7.262c0 3.86.557 6.714 1.669 8.563 1.128 1.831 2.829 2.747 5.103 2.747 2.241 0 3.901-.866 4.98-2.6 1.096-1.734 1.669-4.465 1.718-8.195v-7.433Zm32.753 6.207c0 5.315-.908 9.265-2.723 11.85-1.816 2.584-4.654 3.876-8.514 3.876-3.811 0-6.632-1.259-8.464-3.778-1.832-2.535-2.781-6.314-2.846-11.335v-6.06c0-5.25.908-9.151 2.723-11.703 1.816-2.551 4.662-3.827 8.538-3.827 3.844 0 6.673 1.235 8.489 3.705 1.815 2.453 2.748 6.248 2.797 11.383v5.889Zm-4.539-6.207c0-3.844-.54-6.641-1.619-8.391-1.08-1.767-2.789-2.65-5.128-2.65-2.322 0-4.015.875-5.078 2.625-1.064 1.75-1.612 4.441-1.644 8.072v7.262c0 3.86.556 6.714 1.668 8.563 1.129 1.831 2.83 2.747 5.103 2.747 2.241 0 3.901-.866 4.981-2.6 1.095-1.734 1.668-4.465 1.717-8.195v-7.433Zm33.759 21.442h-23.406v-3.263l12.366-13.739c1.832-2.077 3.091-3.762 3.778-5.054.703-1.308 1.055-2.658 1.055-4.048 0-1.865-.564-3.394-1.693-4.588s-2.633-1.791-4.514-1.791c-2.257 0-4.016.646-5.275 1.938-1.243 1.276-1.865 3.059-1.865 5.349h-4.539c0-3.288 1.055-5.946 3.165-7.974 2.127-2.028 4.964-3.042 8.514-3.042 3.32 0 5.945.875 7.875 2.625 1.93 1.734 2.895 4.048 2.895 6.943 0 3.517-2.241 7.704-6.722 12.562l-9.568 10.378h17.934v3.704Zm19.725 0h-4.563v-30.25l-9.151 3.361v-4.122l13.003-4.882h.711v35.893Z" fill="#1A73E8"/><path stroke="#D2E3FC" stroke-width="15.702" d="M617.41 743.007h365.752v518.003H617.41z"/><path d="M844.16 1050.55h27.102v20.26H844.16v45.35h-24.956v-45.35h-88.956v-14.63l87.48-135.377h26.432v129.747Zm-85.736 0h60.78v-95.802l-2.952 5.367-57.828 90.435Z" fill="#3C4043"/><path d="M668.025 796.744c0 5.316-.908 9.266-2.724 11.85-1.815 2.584-4.653 3.876-8.513 3.876-3.811 0-6.632-1.259-8.464-3.778-1.832-2.535-2.781-6.313-2.846-11.335v-6.06c0-5.25.907-9.151 2.723-11.702 1.815-2.552 4.661-3.828 8.538-3.828 3.844 0 6.673 1.235 8.489 3.705 1.815 2.453 2.747 6.248 2.797 11.384v5.888Zm-4.539-6.207c0-3.844-.54-6.641-1.62-8.391-1.079-1.766-2.788-2.65-5.127-2.65-2.323 0-4.016.875-5.079 2.626-1.063 1.75-1.611 4.44-1.644 8.071v7.262c0 3.86.557 6.715 1.669 8.563 1.128 1.832 2.829 2.748 5.103 2.748 2.241 0 3.901-.867 4.98-2.601 1.096-1.734 1.669-4.465 1.718-8.194v-7.434Zm32.753 6.207c0 5.316-.908 9.266-2.723 11.85-1.816 2.584-4.654 3.876-8.514 3.876-3.811 0-6.632-1.259-8.464-3.778-1.832-2.535-2.781-6.313-2.846-11.335v-6.06c0-5.25.908-9.151 2.723-11.702 1.816-2.552 4.662-3.828 8.538-3.828 3.844 0 6.673 1.235 8.489 3.705 1.815 2.453 2.748 6.248 2.797 11.384v5.888Zm-4.539-6.207c0-3.844-.54-6.641-1.619-8.391-1.08-1.766-2.789-2.65-5.128-2.65-2.322 0-4.015.875-5.078 2.626-1.064 1.75-1.612 4.44-1.644 8.071v7.262c0 3.86.556 6.715 1.668 8.563 1.129 1.832 2.83 2.748 5.103 2.748 2.241 0 3.901-.867 4.981-2.601 1.095-1.734 1.668-4.465 1.717-8.194v-7.434Zm16.953 1.374h3.41c2.143-.033 3.828-.597 5.054-1.693 1.227-1.096 1.84-2.576 1.84-4.441 0-4.187-2.085-6.281-6.256-6.281-1.962 0-3.533.565-4.71 1.693-1.162 1.112-1.742 2.593-1.742 4.441h-4.539c0-2.83 1.03-5.177 3.091-7.041 2.077-1.881 4.711-2.822 7.9-2.822 3.37 0 6.011.892 7.925 2.674 1.913 1.783 2.87 4.261 2.87 7.434 0 1.554-.507 3.059-1.521 4.515-.998 1.455-2.363 2.543-4.097 3.263 1.963.621 3.476 1.652 4.539 3.091 1.079 1.439 1.619 3.198 1.619 5.275 0 3.206-1.047 5.749-3.14 7.63-2.094 1.881-4.817 2.821-8.17 2.821-3.353 0-6.085-.907-8.195-2.723-2.093-1.816-3.14-4.212-3.14-7.189h4.563c0 1.881.614 3.386 1.84 4.515 1.227 1.128 2.871 1.693 4.932 1.693 2.192 0 3.868-.573 5.029-1.718 1.162-1.145 1.742-2.788 1.742-4.931 0-2.077-.638-3.672-1.913-4.784-1.276-1.112-3.116-1.685-5.521-1.718h-3.41v-3.704Zm40.776 8.071h4.956v3.705h-4.956v8.293h-4.563v-8.293h-16.267v-2.674l15.997-24.755h4.833v23.724Zm-15.677 0h11.114v-17.517l-.54.981-10.574 16.536Z" fill="#1A73E8"/><path stroke="#D2E3FC" stroke-width="15.702" d="M983.972 225.851h365.752v518.003H983.972z"/><path d="M1204.55 548.686c0-8.229-2.91-15.162-8.72-20.797-5.73-5.635-15.43-10.733-29.12-15.295-19.05-5.814-32.96-13.373-41.72-22.675-8.68-9.392-13.02-21.289-13.02-35.69 0-14.669 4.25-26.7 12.75-36.092 8.59-9.392 20.35-14.982 35.29-16.771v-29.384H1180V401.5c15.02 2.057 26.7 8.363 35.02 18.918 8.4 10.555 12.61 25.001 12.61 43.337h-24.69c0-12.612-3-22.63-8.99-30.054-5.99-7.424-14.09-11.136-24.28-11.136-10.65 0-18.79 2.773-24.42 8.319-5.64 5.456-8.46 13.104-8.46 22.943 0 9.123 2.96 16.413 8.86 21.87 5.99 5.367 15.79 10.286 29.38 14.759 13.69 4.382 24.33 9.257 31.94 14.624 7.69 5.278 13.32 11.449 16.9 18.516 3.67 7.066 5.5 15.34 5.5 24.821 0 15.117-4.56 27.282-13.68 36.495-9.04 9.213-21.74 14.669-38.11 16.369v25.627h-19.86v-25.627c-16.63-1.521-29.69-7.424-39.17-17.711-9.4-10.376-14.09-24.419-14.09-42.129h24.82c0 12.433 3.27 22.004 9.79 28.712 6.53 6.709 15.79 10.063 27.78 10.063 11.72 0 20.93-2.818 27.64-8.453 6.71-5.635 10.06-13.327 10.06-23.077Z" fill="#3C4043"/><path d="M1034.59 279.588c0 5.315-.91 9.265-2.73 11.85-1.81 2.584-4.65 3.876-8.51 3.876-3.81 0-6.63-1.259-8.46-3.778-1.84-2.535-2.78-6.314-2.85-11.335v-6.06c0-5.25.91-9.151 2.72-11.703 1.82-2.551 4.66-3.827 8.54-3.827 3.85 0 6.67 1.235 8.49 3.705 1.82 2.453 2.75 6.248 2.8 11.383v5.889Zm-4.54-6.207c0-3.844-.54-6.641-1.62-8.391-1.08-1.767-2.79-2.65-5.13-2.65-2.32 0-4.01.875-5.08 2.625-1.06 1.75-1.61 4.441-1.64 8.072v7.262c0 3.86.56 6.714 1.67 8.563 1.13 1.831 2.83 2.747 5.1 2.747 2.24 0 3.9-.866 4.98-2.6 1.1-1.734 1.67-4.465 1.72-8.195v-7.433Zm32.75 6.207c0 5.315-.91 9.265-2.72 11.85-1.82 2.584-4.66 3.876-8.52 3.876-3.81 0-6.63-1.259-8.46-3.778-1.83-2.535-2.78-6.314-2.85-11.335v-6.06c0-5.25.91-9.151 2.73-11.703 1.81-2.551 4.66-3.827 8.54-3.827 3.84 0 6.67 1.235 8.48 3.705 1.82 2.453 2.75 6.248 2.8 11.383v5.889Zm-4.54-6.207c0-3.844-.54-6.641-1.62-8.391-1.08-1.767-2.79-2.65-5.12-2.65s-4.02.875-5.08 2.625c-1.07 1.75-1.61 4.441-1.65 8.072v7.262c0 3.86.56 6.714 1.67 8.563 1.13 1.831 2.83 2.747 5.1 2.747 2.25 0 3.91-.866 4.99-2.6 1.09-1.734 1.66-4.465 1.71-8.195v-7.433Zm33.76 21.442h-23.4v-3.263l12.36-13.739c1.83-2.077 3.09-3.762 3.78-5.054.7-1.308 1.05-2.658 1.05-4.048 0-1.865-.56-3.394-1.69-4.588s-2.63-1.791-4.51-1.791c-2.26 0-4.02.646-5.28 1.938-1.24 1.276-1.86 3.059-1.86 5.349h-4.54c0-3.288 1.05-5.946 3.16-7.974 2.13-2.028 4.97-3.042 8.52-3.042 3.32 0 5.94.875 7.87 2.625 1.93 1.734 2.9 4.048 2.9 6.943 0 3.517-2.24 7.704-6.72 12.562l-9.57 10.378h17.93v3.704Zm23.97-11.997h4.96v3.705h-4.96v8.292h-4.56v-8.292h-16.27v-2.674l16-24.755h4.83v23.724Zm-15.68 0h11.12v-17.517l-.54.981-10.58 16.536Z" fill="#1A73E8"/><path stroke="#D2E3FC" stroke-width="15.702" d="M983.972 743.007h365.752v518.003H983.972z"/><path d="m1117.34 1018.21 9.93-97.407h100.09v22.944h-79.03l-5.9 53.266c9.57-5.636 20.44-8.453 32.6-8.453 17.8 0 31.94 5.903 42.4 17.71 10.47 11.72 15.7 27.59 15.7 47.63 0 20.13-5.46 36-16.37 47.63-10.82 11.54-25.98 17.31-45.48 17.31-17.27 0-31.36-4.79-42.27-14.36-10.91-9.57-17.13-22.81-18.65-39.71h23.48c1.52 11.18 5.5 19.63 11.94 25.36 6.44 5.63 14.94 8.45 25.5 8.45 11.53 0 20.57-3.94 27.1-11.81 6.62-7.87 9.93-18.74 9.93-32.6 0-13.06-3.58-23.53-10.74-31.4-7.06-7.96-16.5-11.94-28.31-11.94-10.82 0-19.32 2.37-25.49 7.11l-6.57 5.37-19.86-5.1Z" fill="#3C4043"/><path d="M1034.59 796.744c0 5.316-.91 9.266-2.73 11.85-1.81 2.584-4.65 3.877-8.51 3.877-3.81 0-6.63-1.26-8.46-3.779-1.84-2.535-2.78-6.313-2.85-11.334v-6.06c0-5.251.91-9.152 2.72-11.703 1.82-2.552 4.66-3.828 8.54-3.828 3.85 0 6.67 1.235 8.49 3.705 1.82 2.454 2.75 6.248 2.8 11.384v5.888Zm-4.54-6.207c0-3.844-.54-6.641-1.62-8.391-1.08-1.766-2.79-2.649-5.13-2.649-2.32 0-4.01.875-5.08 2.625-1.06 1.75-1.61 4.44-1.64 8.072v7.262c0 3.86.56 6.714 1.67 8.562 1.13 1.832 2.83 2.748 5.1 2.748 2.24 0 3.9-.867 4.98-2.601 1.1-1.733 1.67-4.465 1.72-8.194v-7.434Zm32.75 6.207c0 5.316-.91 9.266-2.72 11.85-1.82 2.584-4.66 3.877-8.52 3.877-3.81 0-6.63-1.26-8.46-3.779-1.83-2.535-2.78-6.313-2.85-11.334v-6.06c0-5.251.91-9.152 2.73-11.703 1.81-2.552 4.66-3.828 8.54-3.828 3.84 0 6.67 1.235 8.48 3.705 1.82 2.454 2.75 6.248 2.8 11.384v5.888Zm-4.54-6.207c0-3.844-.54-6.641-1.62-8.391-1.08-1.766-2.79-2.649-5.12-2.649s-4.02.875-5.08 2.625c-1.07 1.75-1.61 4.44-1.65 8.072v7.262c0 3.86.56 6.714 1.67 8.562 1.13 1.832 2.83 2.748 5.1 2.748 2.25 0 3.91-.867 4.99-2.601 1.09-1.733 1.66-4.465 1.71-8.194v-7.434Zm16.96 1.374h3.41c2.14-.033 3.82-.597 5.05-1.693s1.84-2.576 1.84-4.441c0-4.187-2.09-6.28-6.26-6.28-1.96 0-3.53.564-4.71 1.692-1.16 1.113-1.74 2.593-1.74 4.441h-4.54c0-2.829 1.03-5.177 3.09-7.041 2.08-1.881 4.71-2.822 7.9-2.822 3.37 0 6.01.892 7.93 2.675 1.91 1.782 2.87 4.26 2.87 7.434 0 1.553-.51 3.058-1.52 4.514-1 1.455-2.37 2.543-4.1 3.263 1.96.621 3.48 1.652 4.54 3.091 1.08 1.439 1.62 3.198 1.62 5.275 0 3.206-1.05 5.749-3.14 7.63-2.1 1.881-4.82 2.822-8.17 2.822-3.35 0-6.09-.908-8.2-2.724-2.09-1.815-3.14-4.211-3.14-7.188h4.57c0 1.881.61 3.385 1.84 4.514 1.22 1.129 2.87 1.693 4.93 1.693 2.19 0 3.87-.573 5.03-1.718 1.16-1.144 1.74-2.788 1.74-4.931 0-2.077-.64-3.672-1.91-4.784-1.28-1.112-3.12-1.685-5.52-1.717h-3.41v-3.705Zm23.7 2.159 1.81-17.812h18.3v4.195h-14.45l-1.08 9.741c1.75-1.031 3.74-1.546 5.97-1.546 3.25 0 5.83 1.079 7.75 3.238 1.91 2.143 2.87 5.046 2.87 8.71 0 3.68-1 6.583-2.99 8.71-1.98 2.11-4.76 3.165-8.32 3.165-3.16 0-5.73-.876-7.73-2.626s-3.13-4.17-3.41-7.262h4.29c.28 2.045 1.01 3.59 2.19 4.637 1.17 1.031 2.73 1.546 4.66 1.546 2.11 0 3.76-.72 4.95-2.159 1.21-1.439 1.82-3.427 1.82-5.962 0-2.388-.65-4.302-1.96-5.741-1.3-1.456-3.02-2.183-5.18-2.183-1.98 0-3.53.433-4.66 1.3l-1.2.981-3.63-.932Z" fill="#1A73E8"/><path stroke="#D2E3FC" stroke-width="15.702" d="M1350.53 225.851h365.752v518.003H1350.53z"/><path d="M1461.49 546.539c0-9.392 2.59-18.024 7.78-25.895 5.28-7.871 15.29-17.04 30.05-27.505-8.67-10.555-14.49-19.052-17.44-25.493-2.95-6.44-4.43-12.835-4.43-19.186 0-14.848 4.39-26.476 13.15-34.885 8.77-8.408 20.66-12.612 35.69-12.612 13.42 0 24.51 3.936 33.28 11.807 8.76 7.782 13.14 17.622 13.14 29.518 0 7.871-2.01 15.161-6.03 21.87-3.94 6.619-10.87 13.596-20.8 20.931l-14.36 10.599 43.48 51.924c6.08-11.628 9.12-24.553 9.12-38.775h22.41c0 22.809-5.5 41.727-16.51 56.754L1617.93 599h-29.79l-13.01-15.43c-6.62 5.904-14.4 10.421-23.35 13.552-8.85 3.041-17.89 4.561-27.1 4.561-19.05 0-34.35-5.053-45.88-15.161-11.54-10.107-17.31-23.435-17.31-39.983Zm63.19 34.885c13.15 0 25.18-5.009 36.09-15.028l-47.63-57.022-4.42 3.22c-14.94 11.002-22.41 22.317-22.41 33.945 0 10.555 3.4 19.008 10.2 25.358 6.88 6.351 16.28 9.527 28.17 9.527Zm-22.4-133.769c0 8.587 5.27 19.321 15.83 32.201l15.83-11.136c6.08-4.294 10.24-8.364 12.48-12.21 2.23-3.935 3.35-8.676 3.35-14.222 0-5.993-2.23-10.957-6.71-14.893-4.47-4.025-10.1-6.038-16.9-6.038-7.34 0-13.15 2.505-17.44 7.514-4.3 4.92-6.44 11.181-6.44 18.784Z" fill="#3C4043"/><path d="M1401.14 279.588c0 5.315-.91 9.265-2.72 11.85-1.82 2.584-4.65 3.876-8.51 3.876-3.82 0-6.64-1.259-8.47-3.778-1.83-2.535-2.78-6.314-2.85-11.335v-6.06c0-5.25.91-9.151 2.73-11.703 1.81-2.551 4.66-3.827 8.54-3.827 3.84 0 6.67 1.235 8.48 3.705 1.82 2.453 2.75 6.248 2.8 11.383v5.889Zm-4.54-6.207c0-3.844-.54-6.641-1.62-8.391-1.08-1.767-2.79-2.65-5.12-2.65s-4.02.875-5.08 2.625c-1.07 1.75-1.61 4.441-1.65 8.072v7.262c0 3.86.56 6.714 1.67 8.563 1.13 1.831 2.83 2.747 5.11 2.747 2.24 0 3.9-.866 4.98-2.6 1.09-1.734 1.66-4.465 1.71-8.195v-7.433Zm32.76 6.207c0 5.315-.91 9.265-2.73 11.85-1.81 2.584-4.65 3.876-8.51 3.876-3.81 0-6.63-1.259-8.46-3.778-1.84-2.535-2.79-6.314-2.85-11.335v-6.06c0-5.25.91-9.151 2.72-11.703 1.82-2.551 4.66-3.827 8.54-3.827 3.84 0 6.67 1.235 8.49 3.705 1.81 2.453 2.75 6.248 2.8 11.383v5.889Zm-4.54-6.207c0-3.844-.54-6.641-1.62-8.391-1.08-1.767-2.79-2.65-5.13-2.65-2.32 0-4.02.875-5.08 2.625-1.06 1.75-1.61 4.441-1.64 8.072v7.262c0 3.86.55 6.714 1.67 8.563 1.12 1.831 2.83 2.747 5.1 2.747 2.24 0 3.9-.866 4.98-2.6 1.1-1.734 1.67-4.465 1.72-8.195v-7.433Zm33.76 21.442h-23.41v-3.263l12.37-13.739c1.83-2.077 3.09-3.762 3.77-5.054.71-1.308 1.06-2.658 1.06-4.048 0-1.865-.57-3.394-1.69-4.588-1.13-1.194-2.64-1.791-4.52-1.791-2.26 0-4.01.646-5.27 1.938-1.25 1.276-1.87 3.059-1.87 5.349h-4.54c0-3.288 1.06-5.946 3.17-7.974 2.12-2.028 4.96-3.042 8.51-3.042 3.32 0 5.95.875 7.88 2.625 1.93 1.734 2.89 4.048 2.89 6.943 0 3.517-2.24 7.704-6.72 12.562l-9.57 10.378h17.94v3.704Zm22.62-35.746v3.852h-.84c-3.53.065-6.34 1.112-8.44 3.14-2.09 2.028-3.3 4.883-3.63 8.563 1.88-2.159 4.45-3.239 7.71-3.239 3.1 0 5.58 1.096 7.43 3.288 1.86 2.192 2.8 5.021 2.8 8.489 0 3.68-1.01 6.624-3.02 8.832-2 2.208-4.68 3.312-8.05 3.312-3.42 0-6.19-1.308-8.32-3.925-2.12-2.634-3.19-6.019-3.19-10.158v-1.741c0-6.576 1.4-11.597 4.2-15.064 2.81-3.484 6.99-5.267 12.54-5.349h.81Zm-5.97 16.095c-1.55 0-2.98.466-4.29 1.398-1.31.932-2.21 2.102-2.72 3.508v1.669c0 2.944.66 5.315 1.99 7.115 1.32 1.799 2.97 2.698 4.95 2.698 2.05 0 3.65-.752 4.81-2.257 1.18-1.505 1.77-3.475 1.77-5.913 0-2.453-.6-4.432-1.79-5.937-1.18-1.521-2.75-2.281-4.72-2.281Z" fill="#1A73E8"/><path stroke="#D2E3FC" stroke-width="15.702" d="M1350.53 743.007h365.752v518.003H1350.53z"/><path d="M1569.9 920.669v21.065h-4.56c-19.33.358-34.71 6.082-46.16 17.174-11.45 11.091-18.07 26.7-19.86 46.822 10.29-11.804 24.33-17.707 42.13-17.707 17 0 30.55 5.993 40.66 17.977 10.19 11.99 15.29 27.46 15.29 46.42 0 20.13-5.5 36.23-16.5 48.31-10.91 12.07-25.58 18.11-44.01 18.11-18.69 0-33.85-7.16-45.48-21.47-11.63-14.4-17.44-32.91-17.44-55.54v-9.53c0-35.959 7.64-63.419 22.94-82.382 15.38-19.052 38.24-28.802 68.56-29.249h4.43Zm-32.61 88.021c-8.49 0-16.32 2.54-23.48 7.64-7.15 5.1-12.12 11.5-14.89 19.19v9.12c0 16.1 3.62 29.07 10.87 38.91 7.24 9.84 16.28 14.76 27.1 14.76 11.18 0 19.95-4.11 26.3-12.34 6.44-8.23 9.66-19.01 9.66-32.34 0-13.41-3.27-24.24-9.8-32.47-6.44-8.32-15.02-12.47-25.76-12.47Z" fill="#3C4043"/><path d="M1401.14 796.744c0 5.316-.91 9.266-2.72 11.85-1.82 2.584-4.65 3.876-8.51 3.876-3.82 0-6.64-1.259-8.47-3.778-1.83-2.535-2.78-6.313-2.85-11.335v-6.06c0-5.25.91-9.151 2.73-11.702 1.81-2.552 4.66-3.828 8.54-3.828 3.84 0 6.67 1.235 8.48 3.705 1.82 2.453 2.75 6.248 2.8 11.384v5.888Zm-4.54-6.207c0-3.844-.54-6.641-1.62-8.391-1.08-1.766-2.79-2.65-5.12-2.65s-4.02.875-5.08 2.626c-1.07 1.75-1.61 4.44-1.65 8.071v7.262c0 3.86.56 6.715 1.67 8.563 1.13 1.832 2.83 2.748 5.11 2.748 2.24 0 3.9-.867 4.98-2.601 1.09-1.734 1.66-4.465 1.71-8.194v-7.434Zm32.76 6.207c0 5.316-.91 9.266-2.73 11.85-1.81 2.584-4.65 3.876-8.51 3.876-3.81 0-6.63-1.259-8.46-3.778-1.84-2.535-2.79-6.313-2.85-11.335v-6.06c0-5.25.91-9.151 2.72-11.702 1.82-2.552 4.66-3.828 8.54-3.828 3.84 0 6.67 1.235 8.49 3.705 1.81 2.453 2.75 6.248 2.8 11.384v5.888Zm-4.54-6.207c0-3.844-.54-6.641-1.62-8.391-1.08-1.766-2.79-2.65-5.13-2.65-2.32 0-4.02.875-5.08 2.626-1.06 1.75-1.61 4.44-1.64 8.071v7.262c0 3.86.55 6.715 1.67 8.563 1.12 1.832 2.83 2.748 5.1 2.748 2.24 0 3.9-.867 4.98-2.601 1.1-1.734 1.67-4.465 1.72-8.194v-7.434Zm16.95 1.374h3.41c2.14-.033 3.83-.597 5.05-1.693 1.23-1.096 1.84-2.576 1.84-4.441 0-4.187-2.08-6.281-6.25-6.281-1.96 0-3.53.565-4.71 1.693-1.16 1.112-1.74 2.593-1.74 4.441h-4.54c0-2.83 1.03-5.177 3.09-7.041 2.08-1.881 4.71-2.822 7.9-2.822 3.37 0 6.01.892 7.92 2.674 1.92 1.783 2.87 4.261 2.87 7.434 0 1.554-.5 3.059-1.52 4.515-1 1.455-2.36 2.543-4.09 3.263 1.96.621 3.47 1.652 4.53 3.091 1.08 1.439 1.62 3.198 1.62 5.275 0 3.206-1.04 5.749-3.14 7.63-2.09 1.881-4.81 2.821-8.17 2.821-3.35 0-6.08-.907-8.19-2.723-2.1-1.816-3.14-4.212-3.14-7.189h4.56c0 1.881.61 3.386 1.84 4.515 1.23 1.128 2.87 1.693 4.93 1.693 2.19 0 3.87-.573 5.03-1.718 1.16-1.145 1.74-2.788 1.74-4.931 0-2.077-.63-3.672-1.91-4.784-1.28-1.112-3.12-1.685-5.52-1.718h-3.41v-3.704Zm39.43-15.678v3.852h-.84c-3.53.066-6.34 1.112-8.44 3.141-2.09 2.028-3.3 4.882-3.63 8.562 1.88-2.159 4.45-3.239 7.71-3.239 3.1 0 5.58 1.096 7.43 3.288 1.86 2.192 2.8 5.021 2.8 8.489 0 3.68-1.01 6.624-3.02 8.832-2 2.208-4.68 3.312-8.05 3.312-3.42 0-6.19-1.308-8.32-3.925-2.12-2.634-3.19-6.019-3.19-10.157v-1.742c0-6.575 1.4-11.597 4.2-15.064 2.81-3.484 6.99-5.267 12.54-5.349h.81Zm-5.97 16.095c-1.55 0-2.98.466-4.29 1.398-1.31.933-2.21 2.102-2.72 3.509v1.668c0 2.944.66 5.316 1.99 7.115 1.32 1.799 2.97 2.699 4.95 2.699 2.05 0 3.65-.753 4.81-2.258 1.18-1.504 1.77-3.475 1.77-5.912 0-2.454-.6-4.433-1.79-5.938-1.18-1.521-2.75-2.281-4.72-2.281Z" fill="#1A73E8"/><path stroke="#D2E3FC" stroke-width="15.702" d="M1708.4 743.007h365.752v518.003H1708.4z"/><path d="m1956.48 934.757-80.9 181.403h-26.03l80.63-174.963h-105.72v-20.394h132.02v13.954Z" fill="#3C4043"/><path d="M1759.01 796.744c0 5.316-.9 9.266-2.72 11.85-1.82 2.584-4.65 3.877-8.51 3.877-3.81 0-6.64-1.26-8.47-3.779-1.83-2.535-2.78-6.313-2.84-11.334v-6.06c0-5.251.9-9.152 2.72-11.703 1.81-2.552 4.66-3.828 8.54-3.828 3.84 0 6.67 1.235 8.49 3.705 1.81 2.454 2.74 6.248 2.79 11.384v5.888Zm-4.54-6.207c0-3.844-.54-6.641-1.62-8.391-1.07-1.766-2.78-2.649-5.12-2.649-2.33 0-4.02.875-5.08 2.625-1.06 1.75-1.61 4.44-1.65 8.072v7.262c0 3.86.56 6.714 1.67 8.562 1.13 1.832 2.83 2.748 5.11 2.748 2.24 0 3.9-.867 4.98-2.601 1.09-1.733 1.66-4.465 1.71-8.194v-7.434Zm32.76 6.207c0 5.316-.91 9.266-2.73 11.85-1.81 2.584-4.65 3.877-8.51 3.877-3.81 0-6.63-1.26-8.46-3.779-1.84-2.535-2.78-6.313-2.85-11.334v-6.06c0-5.251.91-9.152 2.72-11.703 1.82-2.552 4.67-3.828 8.54-3.828 3.85 0 6.67 1.235 8.49 3.705 1.82 2.454 2.75 6.248 2.8 11.384v5.888Zm-4.54-6.207c0-3.844-.54-6.641-1.62-8.391-1.08-1.766-2.79-2.649-5.13-2.649-2.32 0-4.01.875-5.08 2.625-1.06 1.75-1.61 4.44-1.64 8.072v7.262c0 3.86.56 6.714 1.67 8.562 1.13 1.832 2.83 2.748 5.1 2.748 2.24 0 3.9-.867 4.98-2.601 1.1-1.733 1.67-4.465 1.72-8.194v-7.434Zm16.95 1.374h3.41c2.14-.033 3.83-.597 5.06-1.693 1.22-1.096 1.84-2.576 1.84-4.441 0-4.187-2.09-6.28-6.26-6.28-1.96 0-3.53.564-4.71 1.692-1.16 1.113-1.74 2.593-1.74 4.441h-4.54c0-2.829 1.03-5.177 3.09-7.041 2.08-1.881 4.71-2.822 7.9-2.822 3.37 0 6.01.892 7.92 2.675 1.92 1.782 2.87 4.26 2.87 7.434 0 1.553-.5 3.058-1.52 4.514-.99 1.455-2.36 2.543-4.09 3.263 1.96.621 3.47 1.652 4.54 3.091 1.07 1.439 1.61 3.198 1.61 5.275 0 3.206-1.04 5.749-3.14 7.63-2.09 1.881-4.81 2.822-8.17 2.822-3.35 0-6.08-.908-8.19-2.724-2.09-1.815-3.14-4.211-3.14-7.188h4.56c0 1.881.62 3.385 1.84 4.514 1.23 1.129 2.87 1.693 4.93 1.693 2.2 0 3.87-.573 5.03-1.718 1.16-1.144 1.75-2.788 1.75-4.931 0-2.077-.64-3.672-1.92-4.784-1.27-1.112-3.11-1.685-5.52-1.717h-3.41v-3.705Zm44.68-13.101-14.8 33.17h-4.76l14.75-31.993h-19.33v-3.729h24.14v2.552Z" fill="#1A73E8"/><path stroke="#D2E3FC" stroke-width="15.702" d="M1708.4 225.851h365.752v518.003H1708.4z"/><path d="M1759.01 279.588c0 5.315-.9 9.265-2.72 11.85-1.82 2.584-4.65 3.876-8.51 3.876-3.81 0-6.64-1.259-8.47-3.778-1.83-2.535-2.78-6.314-2.84-11.335v-6.06c0-5.25.9-9.151 2.72-11.703 1.81-2.551 4.66-3.827 8.54-3.827 3.84 0 6.67 1.235 8.49 3.705 1.81 2.453 2.74 6.248 2.79 11.383v5.889Zm-4.54-6.207c0-3.844-.54-6.641-1.62-8.391-1.07-1.767-2.78-2.65-5.12-2.65-2.33 0-4.02.875-5.08 2.625-1.06 1.75-1.61 4.441-1.65 8.072v7.262c0 3.86.56 6.714 1.67 8.563 1.13 1.831 2.83 2.747 5.11 2.747 2.24 0 3.9-.866 4.98-2.6 1.09-1.734 1.66-4.465 1.71-8.195v-7.433Zm32.76 6.207c0 5.315-.91 9.265-2.73 11.85-1.81 2.584-4.65 3.876-8.51 3.876-3.81 0-6.63-1.259-8.46-3.778-1.84-2.535-2.78-6.314-2.85-11.335v-6.06c0-5.25.91-9.151 2.72-11.703 1.82-2.551 4.67-3.827 8.54-3.827 3.85 0 6.67 1.235 8.49 3.705 1.82 2.453 2.75 6.248 2.8 11.383v5.889Zm-4.54-6.207c0-3.844-.54-6.641-1.62-8.391-1.08-1.767-2.79-2.65-5.13-2.65-2.32 0-4.01.875-5.08 2.625-1.06 1.75-1.61 4.441-1.64 8.072v7.262c0 3.86.56 6.714 1.67 8.563 1.13 1.831 2.83 2.747 5.1 2.747 2.24 0 3.9-.866 4.98-2.6 1.1-1.734 1.67-4.465 1.72-8.195v-7.433Zm33.76 21.442h-23.41v-3.263l12.37-13.739c1.83-2.077 3.09-3.762 3.78-5.054.7-1.308 1.05-2.658 1.05-4.048 0-1.865-.56-3.394-1.69-4.588s-2.64-1.791-4.52-1.791c-2.25 0-4.01.646-5.27 1.938-1.24 1.276-1.87 3.059-1.87 5.349h-4.54c0-3.288 1.06-5.946 3.17-7.974 2.13-2.028 4.96-3.042 8.51-3.042 3.32 0 5.95.875 7.88 2.625 1.93 1.734 2.89 4.048 2.89 6.943 0 3.517-2.24 7.704-6.72 12.562l-9.57 10.378h17.94v3.704Zm27.87-33.17-14.8 33.17h-4.76l14.75-31.992h-19.33v-3.729h24.14v2.551Z" fill="#1A73E8"/></g></svg>