<svg width="1920" height="1080" fill="none" xmlns="http://www.w3.org/2000/svg"><path d="M243.326 276.09h87.08v13.684h-69.975v101.075h57.535v13.062h-57.535v110.716h70.908V528h-88.013V276.09Zm161.9 0h19.593L478 528h-17.105l-13.062-69.664h-65.31L369.15 528h-16.794l52.87-251.91Zm40.43 169.806-30.478-149.28-30.167 149.28h60.645Zm121.53 85.525c-23.014 0-38.978-6.635-47.894-19.904-8.915-13.477-13.373-32.137-13.373-55.98V348.553c0-23.843 4.562-42.296 13.684-55.358 9.123-13.269 24.984-19.904 47.583-19.904 20.941 0 35.765 6.116 44.473 18.349 8.708 12.025 13.062 29.545 13.062 52.559v12.751h-16.172v-12.751c0-19.282-3.006-33.588-9.019-42.918-6.012-9.33-16.794-13.995-32.344-13.995-17.001 0-28.612 4.976-34.832 14.928-6.22 9.952-9.33 24.776-9.33 44.473v111.338c0 19.904 3.214 34.832 9.641 44.784 6.428 9.745 17.935 14.617 34.521 14.617 15.758 0 26.539-4.769 32.344-14.306 6.013-9.745 9.019-24.051 9.019-42.918v-15.239h16.172v12.44c0 23.636-4.25 41.881-12.751 54.736-8.5 12.855-23.428 19.282-44.784 19.282Zm95.869-255.331h17.105v113.515h88.324V276.09h16.794V528h-16.794V402.667H680.16V528h-17.105V276.09Zm261.067 13.684H873.74V276.09h116.314v13.684h-49.138V528h-16.794V289.774Zm152.408 241.647c-23.01 0-39.18-6.531-48.51-19.593-9.13-13.269-13.69-31.722-13.69-55.358V346.376c0-23.221 4.67-41.156 14-53.803 9.53-12.855 25.6-19.282 48.2-19.282 22.39 0 38.36 6.427 47.9 19.282 9.53 12.855 14.3 30.789 14.3 53.803v110.405c0 23.636-4.66 41.985-13.99 55.047-9.13 13.062-25.19 19.593-48.21 19.593Zm0-13.995c17 0 28.72-4.872 35.14-14.617 6.64-9.745 9.96-23.947 9.96-42.607V343.888c0-18.66-3.32-32.759-9.96-42.296-6.42-9.537-18.14-14.306-35.14-14.306s-28.82 4.769-35.45 14.306c-6.43 9.537-9.64 23.636-9.64 42.296v116.314c0 18.867 3.21 33.173 9.64 42.918 6.63 9.537 18.45 14.306 35.45 14.306Zm219.28 13.995c-23.01 0-39.19-6.531-48.52-19.593-9.12-13.269-13.68-31.722-13.68-55.358V346.376c0-23.221 4.67-41.156 14-53.803 9.53-12.855 25.6-19.282 48.2-19.282 22.39 0 38.36 6.427 47.89 19.282 9.54 12.855 14.31 30.789 14.31 53.803v110.405c0 23.636-4.66 41.985-13.99 55.047-9.13 13.062-25.2 19.593-48.21 19.593Zm0-13.995c17 0 28.72-4.872 35.14-14.617 6.64-9.745 9.96-23.947 9.96-42.607V343.888c0-18.66-3.32-32.759-9.96-42.296-6.42-9.537-18.14-14.306-35.14-14.306s-28.82 4.769-35.45 14.306c-6.43 9.537-9.64 23.636-9.64 42.296v116.314c0 18.867 3.21 33.173 9.64 42.918 6.63 9.537 18.45 14.306 35.45 14.306Zm163.16 13.995c-23.01 0-39.29-5.494-48.83-16.483-9.33-10.989-13.99-26.331-13.99-46.028V276.09h16.79v193.131c0 15.343 3.42 27.264 10.26 35.765 6.85 8.293 18.77 12.44 35.77 12.44 16.17 0 27.89-4.354 35.14-13.062 7.26-8.708 10.89-20.422 10.89-35.143V276.09h16.48v192.82c0 19.282-4.87 34.521-14.62 45.717-9.74 11.196-25.71 16.794-47.89 16.794Zm106.11-255.331h60.96c20.73 0 35.14 5.494 43.23 16.483 8.08 10.989 12.13 26.228 12.13 45.717 0 16.379-2.7 29.856-8.09 40.43-5.18 10.574-14.82 17.001-28.92 19.282L1684.82 528h-16.8l-39.18-126.888h-46.96V528h-16.8V276.09Zm60.34 111.96c15.13 0 25.5-4.043 31.1-12.129 5.6-8.293 8.39-20.837 8.39-37.631 0-17.001-2.9-29.338-8.7-37.009-5.6-7.879-15.97-11.818-31.1-11.818h-43.23v98.587h43.54ZM380.274 807.421c-23.014 0-39.186-6.531-48.516-19.593-9.123-13.269-13.684-31.722-13.684-55.358V622.376c0-23.221 4.665-41.156 13.995-53.803 9.537-12.855 25.606-19.282 48.205-19.282 22.392 0 38.357 6.427 47.894 19.282 9.537 12.855 14.306 30.789 14.306 53.803v110.405c0 23.636-4.665 41.985-13.995 55.047-9.123 13.062-25.191 19.593-48.205 19.593Zm0-13.995c17.001 0 28.716-4.872 35.143-14.617 6.635-9.745 9.952-23.947 9.952-42.607V619.888c0-18.66-3.317-32.759-9.952-42.296-6.427-9.537-18.142-14.306-35.143-14.306s-28.819 4.769-35.454 14.306c-6.427 9.537-9.641 23.636-9.641 42.296v116.314c0 18.867 3.214 33.173 9.641 42.918 6.635 9.537 18.453 14.306 35.454 14.306ZM470.97 552.09h14.928l37.009 218.633 40.43-213.035h16.172l41.674 213.035 33.588-218.633h14.617L628.647 804h-14.306l-42.918-220.499L529.438 804h-14.617L470.97 552.09Zm232.334 0h13.373l85.525 212.724V552.09h14.928V804h-13.373l-85.525-213.035V804h-14.928V552.09Zm218.975 0h55.047c23.424 0 40.014 6.531 49.764 19.593 9.74 12.855 14.61 30.478 14.61 52.87v104.496c0 23.636-4.77 42.089-14.3 55.358-9.33 13.062-25.5 19.593-48.519 19.593h-56.602V552.09Zm55.669 238.537c12.855 0 22.702-2.695 29.542-8.086 6.85-5.598 11.41-12.958 13.69-22.081 2.28-9.123 3.42-20.215 3.42-33.277V625.797c0-20.111-3.42-35.143-10.26-45.095-6.64-9.952-18.976-14.928-37.014-14.928h-38.253v224.853h38.875ZM1083.25 552.09h16.8V804h-16.8V552.09Zm47.91 0h16.8l52.25 222.365 48.82-222.365h16.49L1207.98 804h-15.86l-60.96-251.91Zm165.6 0h16.8V804h-16.8V552.09Zm63.77 0h55.05c23.43 0 40.02 6.531 49.76 19.593 9.75 12.855 14.62 30.478 14.62 52.87v104.496c0 23.636-4.77 42.089-14.31 55.358-9.33 13.062-25.5 19.593-48.51 19.593h-56.61V552.09Zm55.67 238.537c12.86 0 22.71-2.695 29.55-8.086 6.84-5.598 11.4-12.958 13.68-22.081 2.28-9.123 3.42-20.215 3.42-33.277V625.797c0-20.111-3.42-35.143-10.26-45.095-6.63-9.952-18.97-14.928-37.01-14.928h-38.25v224.853h38.87Zm104.69-238.537h87.08v13.684h-69.98v101.075h57.54v13.062h-57.54v110.716h70.91V804h-88.01V552.09Z" fill="#3C4043"/></svg>