<svg xmlns="http://www.w3.org/2000/svg" width="1920" height="1080" fill="none"><g clip-path="url(#a)"><path fill="#FF6D7F" d="M143.647 512.12h-51.84v10.2h29.28c-3.96 3.24-7.68 9.12-7.68 19.68v1.56c0 18.72 11.52 29.64 30.24 29.64s30.24-11.16 30.24-29.88V542c0-18.84-11.4-29.88-30.24-29.88Zm-18.84 31.8v-2.52c0-10.08 4.08-18.6 16.2-19.08h2.04c12.36 0 19.44 6.72 19.44 19.08v2.52c0 12.36-6.48 19.2-18.84 19.2s-18.84-6.84-18.84-19.2Z"/><path fill="#1A73E8" d="M192.933 516.2h52.08v-9.48h-52.08v9.48Zm0 30h52.08v-9.48h-52.08v9.48Zm71.473 25.8h11.16v-37.56c0-13.32 8.4-17.88 17.4-17.88 7.8 0 15.12 4.92 15.12 17.16V572h11.16v-39.12c0-16.8-7.32-26.76-23.52-26.76-9 0-15.72 3.72-20.16 9.72v-8.04h-11.16V572Zm97.602-65.88c-15.84 0-27.36 11.64-27.36 29.88v7.92c0 19.44 12.72 29.88 29.76 29.88 10.08 0 16.44-1.56 23.52-5.64v-9.96c-8.28 5.04-14.28 5.76-22.44 5.76-11.28 0-19.44-6.96-19.68-19.2h43.68v-9.96c0-19.44-11.64-28.68-27.48-28.68Zm0 9.84c10.32 0 16.32 6 16.32 18.24v1.08h-32.52c0-12.12 5.88-19.32 16.2-19.32Z"/><path fill="#FF6D7F" d="M524.887 512.12c-18.84 0-30.24 11.04-30.24 29.88v1.32c0 18.72 11.52 29.88 30.24 29.88s30.24-10.92 30.24-29.64V542c0-10.56-3.72-16.44-7.68-19.68h29.28v-10.2h-51.84Zm0 51c-12.36 0-18.84-6.84-18.84-19.2v-2.52c0-12.36 7.08-19.08 19.44-19.08h2.04c12.12.48 16.2 9 16.2 19.08v2.52c0 12.36-6.48 19.2-18.84 19.2Z"/><path fill="#1A73E8" d="M591.933 516.2h52.08v-9.48h-52.08v9.48Zm0 30h52.08v-9.48h-52.08v9.48Zm71.473 25.8h11.16v-37.56c0-13.32 8.4-17.88 17.4-17.88 7.8 0 15.12 4.92 15.12 17.16V572h11.16v-39.12c0-16.8-7.32-26.76-23.52-26.76-9 0-15.72 3.72-20.16 9.72v-8.04h-11.16V572Zm72.762-78.12h12V482h-12v11.88Zm.48 78.12h11.16v-64.2h-11.16V572Z"/><path fill="#FF6D7F" d="M897.315 572c18.84 0 30.24-11.04 30.24-29.88v-1.32c0-18.72-11.52-29.88-30.24-29.88s-30.24 10.92-30.24 29.64v1.56c0 10.56 3.72 16.44 7.68 19.68h-29.28V572h51.84Zm-18.84-29.28v-2.52c0-12.36 6.48-19.2 18.84-19.2s18.84 6.84 18.84 19.2v2.52c0 12.36-7.08 19.08-19.44 19.08h-2.04c-12.12-.48-16.2-9-16.2-19.08Z"/><path fill="#1A73E8" d="M946.601 516.2h52.08v-9.48h-52.08v9.48Zm0 30h52.08v-9.48h-52.08v9.48Zm71.469 25.8h11.16v-37.56c0-13.32 8.4-17.88 17.4-17.88 7.8 0 15.12 4.92 15.12 17.16V572h11.16v-39.12c0-16.8-7.32-26.76-23.52-26.76-9 0-15.72 3.72-20.16 9.72v-8.04h-11.16V572Zm70.25-28.08c0 19.44 12.72 29.88 28.56 29.88 15.84 0 28.68-10.44 28.68-29.88V536c0-19.44-12.84-29.88-28.68-29.88s-28.56 10.44-28.56 29.88v7.92Zm11.16-8.52c0-12.24 7.08-19.44 17.4-19.44 10.32 0 17.52 7.2 17.52 19.44v9.12c0 12.24-7.2 19.44-17.52 19.44s-17.4-7.2-17.4-19.44v-9.12Z"/><path fill="#FF6D7F" d="M1277.5 572h51.84v-10.2h-29.28c3.96-3.24 7.68-9.12 7.68-19.68v-1.56c0-18.72-11.52-29.64-30.24-29.64s-30.24 11.16-30.24 29.88v1.32c0 18.84 11.4 29.88 30.24 29.88Zm.6-10.2c-12.36 0-19.44-6.72-19.44-19.08v-2.52c0-12.36 6.48-19.2 18.84-19.2s18.84 6.84 18.84 19.2v2.52c0 10.08-4.08 18.6-16.2 19.08h-2.04Z"/><path fill="#1A73E8" d="M1344.55 516.2h52.08v-9.48h-52.08v9.48Zm0 30h52.08v-9.48h-52.08v9.48Zm71.47 25.8h11.16v-37.56c0-13.32 8.4-17.88 17.4-17.88 7.8 0 15.12 4.92 15.12 17.16V572h11.16v-39.12c0-16.8-7.32-26.76-23.52-26.76-9 0-15.72 3.72-20.16 9.72v-8.04h-11.16V572Zm120.76 0v-39.6c0-10.68 0-26.28-26.16-26.28-10.68 0-17.04 2.64-22.08 6.72v10.92c6.36-5.76 13.2-7.8 20.64-7.8 16.44 0 16.44 9.96 16.44 17.04v2.16h-13.2c-7.56 0-27.48 0-27.48 20.04 0 11.76 6.84 18.6 20.88 18.6 9 0 15.6-2.88 19.8-8.88V572h11.16Zm-11.16-23.88c0 12.36-9.72 16.2-18.12 16.2-7.56 0-11.4-3.12-11.4-9.84 0-9.84 8.4-9.84 15.72-9.84h13.8v3.48Z"/><path fill="#FF6D7F" d="M1676.72 518.12h-16.92c2.52-2.16 3.6-5.88 3.6-10.2 0-11.28-6.6-16.92-19.68-16.92-12.72 0-19.44 5.88-19.44 18.24 0 12.6 6.48 18.36 21 18.36h31.44v-9.48Zm-32.64 0c-6.84 0-9.24-3-9.24-9 0-5.28 2.4-9 8.88-9 7.2 0 9.12 3.84 9.12 8.88 0 6.96-3.24 9.12-7.92 9.12h-.84Z"/><path fill="#1A73E8" d="M1691.5 516.2h52.08v-9.48h-52.08v9.48Zm0 30h52.08v-9.48h-52.08v9.48Zm71.47 25.8h11.16v-37.56c0-13.32 8.4-17.88 17.4-17.88 7.8 0 15.12 4.92 15.12 17.16V572h11.16v-39.12c0-16.8-7.32-26.76-23.52-26.76-9 0-15.72 3.72-20.16 9.72v-8.04h-11.16V572Z"/></g><defs><clipPath id="a"><path fill="#fff" d="M0 0h1920v1080H0z"/></clipPath></defs></svg>