<svg xmlns="http://www.w3.org/2000/svg" width="1920" height="1080" fill="none"><g clip-path="url(#a)"><mask id="b" width="2607" height="372" x="79" y="332" maskUnits="userSpaceOnUse" style="mask-type:luminance"><path fill="#fff" d="M79.95 703.194h2605.57V332H79.95v371.194Z"/></mask><g mask="url(#b)"><path fill="#D2E3FC" d="M265.621 651.682H1832 265.621Z"/><path stroke="#3C4043" stroke-width="3.527" d="M265.621 651.682H1832"/><path fill="#D2E3FC" d="M265.621 377.419H1832 265.621Z"/><path stroke="#3C4043" stroke-width="3.527" d="M265.621 377.419H1832"/><path fill="#D2E3FC" d="M265.621 512.011H1831.46 265.621Z"/><path stroke="#3C4043" stroke-width="3.527" d="M265.621 512.011H1831.46"/><path fill="#3C4043" d="M97.914 370.89h6.39v16.02h2.843v-16.02h6.145v-2.599H97.914v2.599Zm18.588 8.285a8.38 8.38 0 0 0 1.972 6.1 7.6 7.6 0 0 0 5.671 1.999 7.927 7.927 0 0 0 5.779-2.003 8.184 8.184 0 0 0 2.044-6.096v-3.027a8.487 8.487 0 0 0-2.029-6.194 7.688 7.688 0 0 0-5.734-2.063 7.59 7.59 0 0 0-5.685 2.063 8.53 8.53 0 0 0-2.018 6.19v3.031Zm2.905-3.21c0-3.709 1.589-5.564 4.768-5.564a4.674 4.674 0 0 1 3.639 1.376 6.05 6.05 0 0 1 1.253 4.188v3.394a5.93 5.93 0 0 1-1.195 4.126 4.856 4.856 0 0 1-3.729 1.288 4.575 4.575 0 0 1-3.608-1.288 6.17 6.17 0 0 1-1.131-4.126l.003-3.394Zm24.64-7.674h-6.813v18.619h2.843v-6.695h4.096a6.502 6.502 0 0 0 4.815-1.682 5.975 5.975 0 0 0 1.665-4.402 5.997 5.997 0 0 0-.736-2.951 5.208 5.208 0 0 0-2.231-2.106 7.804 7.804 0 0 0-3.639-.781m-3.978 9.448v-6.905h3.577a4.695 4.695 0 0 1 3.087.856 3.253 3.253 0 0 1 1.009 2.629c0 2.283-1.284 3.424-3.851 3.424l-3.822-.004Zm15.07-9.45v18.619h10.976v-2.507h-8.127v-16.112h-2.849Zm14.956 18.619h2.843v-18.619h-2.843v18.619Zm20.912-4.585-9.294-14.034h-2.692v18.619h2.692v-7.215l-.031-6.904 9.294 14.123h2.692v-18.623h-2.692v6.787l.031 7.247ZM211 378.656v-2.446h-8.407v-5.383h9.203v-2.536h-12.045v18.619h12.287v-2.507h-9.445v-5.747H211ZM105.774 502.884h-2.692v18.619h2.692v-7.797l-.031-5.777 4.922 8.894h2.232l4.984-9.08-.032 6.141v7.619h2.692v-18.619h-2.692l-6.114 10.822-5.961-10.822Zm20.85 18.619h2.843v-18.619h-2.843v18.619Zm15.164-18.619h-6.236v18.619h6.236a8.79 8.79 0 0 0 5.977-1.885c1.437-1.253 2.155-3.215 2.155-5.885v-2.901a7.651 7.651 0 0 0-2.186-5.976 8.547 8.547 0 0 0-5.946-1.972Zm5.227 11a4.966 4.966 0 0 1-1.299 3.944 5.966 5.966 0 0 1-3.928 1.101h-3.394v-13.477h3.394c3.485 0 5.227 1.742 5.227 5.228v3.204Zm8.133-11v18.619h10.975v-2.507h-8.132v-16.112h-2.843Zm14.949 18.619h2.849v-18.619h-2.844l-.005 18.619Zm20.912-4.587-9.294-14.032h-2.684v18.619h2.691v-7.215l-.03-6.904 9.287 14.119h2.692v-18.619h-2.692v6.787l.03 7.245Zm19.995-3.668v-2.446h-8.408v-5.383h9.202v-2.535h-12.045v18.619h12.288v-2.507h-9.445v-5.748h8.408ZM92.963 649.451a4.944 4.944 0 0 0 2.063-1.558 4.064 4.064 0 0 0 .689-2.446 4.332 4.332 0 0 0-1.639-3.608 7.862 7.862 0 0 0-4.904-1.282h-6.879v18.617h7.185a7.4 7.4 0 0 0 5.106-1.483 4.964 4.964 0 0 0 1.62-3.837 4.502 4.502 0 0 0-.856-2.844 4.596 4.596 0 0 0-2.385-1.559Zm-4.158-6.389a5.747 5.747 0 0 1 2.926.611 2.345 2.345 0 0 1 1.018 2.201 2.398 2.398 0 0 1-.81 1.957 4.563 4.563 0 0 1-2.859.672h-3.978v-5.441h3.703Zm-3.699 13.605v-5.748h4.096a5.507 5.507 0 0 1 3.133.673 2.455 2.455 0 0 1 .936 2.14 2.5 2.5 0 0 1-1.026 2.262 5.728 5.728 0 0 1-3.104.673h-4.035Zm24.152-16.479h-2.752l-7.551 18.986h2.965l1.651-4.34h8.075l1.562 4.34h3.302l-7.252-18.986Zm1.529 12.198h-6.268l3.21-8.499 3.058 8.499Zm8.836 5.656a12.537 12.537 0 0 0 5.839 1.404 9.094 9.094 0 0 0 5.417-1.465 4.9 4.9 0 0 0 2.048-4.249 4.533 4.533 0 0 0-1.473-3.608 7.541 7.541 0 0 0-4.097-1.621l-1.436-.183a6.973 6.973 0 0 1-2.783-.764 2.058 2.058 0 0 1-.795-1.865c0-2.059 1.327-3.088 3.979-3.088a8.963 8.963 0 0 1 2.905.459c.958.336 1.872.787 2.721 1.344v-2.873a7.404 7.404 0 0 0-2.477-1.04 13.033 13.033 0 0 0-2.965-.336 8.467 8.467 0 0 0-5.106 1.407 4.733 4.733 0 0 0-1.481 1.788 4.734 4.734 0 0 0-.45 2.277 4.752 4.752 0 0 0 1.346 3.532 6.297 6.297 0 0 0 3.76 1.638l1.467.183c.724.074 1.44.207 2.141.398.514.14.975.427 1.329.825.361.46.541 1.037.505 1.621a2.737 2.737 0 0 1-1.116 2.369 5.322 5.322 0 0 1-3.159.81 11.475 11.475 0 0 1-6.115-1.835l-.004 2.872Zm29.38-7.123v-2.446h-8.411v-5.383h9.203v-2.533h-12.043v18.617h12.287v-2.507h-9.447v-5.748h8.411Zm6.145-10.362v18.617h10.974v-2.507h-8.132v-16.11h-2.842Zm14.948 18.617h2.844v-18.617h-2.844v18.617Zm20.913-4.586-9.295-14.031h-2.691v18.617h2.691v-7.216l-.03-6.904 9.294 14.124h2.692v-18.621h-2.692v6.788l.031 7.243Zm19.994-3.669v-2.446h-8.408v-5.383h9.203v-2.533h-12.045v18.617h12.287v-2.507h-9.445v-5.748h8.408Z"/><path fill="#FF6D7F" d="M556.34 375.38h-39.9v68.04h-111.3c-70.98 0-101.64 40.74-101.64 96.18v17.22c0 55.44 30.66 96.18 101.64 96.18h151.2V375.38ZM405.14 617.3c-49.98 0-61.74-27.3-61.74-58.38V537.5c0-31.08 11.76-58.38 61.74-58.38h111.3V617.3h-111.3Zm401.048-163.8v68.46c0 90.72 34.86 137.34 126.42 137.34 91.562 0 126.422-46.62 126.422-136.92v-147h-39.9v144.9c0 65.94-14.28 103.74-86.522 103.74-72.24 0-86.52-37.8-86.52-104.16v-10.92c10.5 11.34 27.3 21 55.44 21 48.72 0 71.4-33.6 71.4-78.54 0-51.66-27.72-81.9-84-81.9-55.86 0-82.74 28.98-82.74 84Zm39.9 7.14v-4.2c0-33.6 11.34-51.66 42.84-51.66 33.18 0 45.36 17.22 45.36 46.62 0 26.88-12.6 44.94-42.42 44.94s-45.78-17.64-45.78-35.7Zm462.592-85.26V653h37.38l217.56-116.34v-44.94l-217.56-116.34h-37.38Zm39.9 46.2 178.08 92.4-178.08 91.98V421.58Z"/><path fill="#1A73E8" d="M627.786 375.38v155.4h36.96v-155.4h-36.96Zm74.34 0v155.4h36.96v-155.4h-36.96Zm452.564 207.9v-13.86h-36.96v14.7c0 40.32 12.6 75.18 64.26 75.18 52.08 0 65.94-30.66 65.94-70.98v-85.68h-36.96v84.84c0 21-2.94 39.06-28.98 39.06-25.62 0-27.3-22.26-27.3-43.26Zm531.5-213.78c-47.04 0-78.54 22.26-78.54 77.28v12.18c0 54.6 31.5 76.86 78.54 76.86 47.04 0 78.54-22.26 78.54-76.86v-12.18c0-55.02-31.5-77.28-78.54-77.28Zm41.58 89.46c0 33.18-16.8 44.52-41.58 44.52-24.78 0-41.58-11.34-41.58-44.52v-12.18c0-33.18 16.8-44.94 41.58-44.94 24.78 0 41.58 11.76 41.58 44.94v12.18Z"/></g></g><defs><clipPath id="a"><path fill="#fff" d="M0 0h1920v1080H0z"/></clipPath></defs></svg>