<svg xmlns="http://www.w3.org/2000/svg" width="1920" height="1080" fill="none"><mask id="a" width="1626" height="910" x="161" y="129" maskUnits="userSpaceOnUse" style="mask-type:luminance"><path fill="#fff" d="M161.262 1039H1786.74V129.183H161.262V1039Z"/></mask><g mask="url(#a)"><path fill="#1A73E8" d="M1666.86 197.176c0 11.335-2.62 19.192-7.86 23.572-5.23 4.38-12.12 6.572-20.67 6.575h-42.63v25.337h43.27c37.39 0 56.09-18.495 56.1-55.484v-8.018c0-36.771-18.7-55.159-56.1-55.164h-43.27v25.336h42.63c19.02 0 28.53 9.943 28.53 29.828v8.018Z"/><path fill="#FF6D7F" d="M1220.66 182.743c-23.29 0-41.25 7.591-53.85 22.771v-71.52h-30.45v138.871c0 24.164 6.89 43.194 20.67 57.088 13.78 13.894 33.6 20.843 59.46 20.847 16.24 0 30.29-3.421 42.15-10.263a66.667 66.667 0 0 0 26.93-28.544c6.09-12.187 9.14-26.192 9.14-42.015v-6.413c0-24.16-6.47-43.671-19.4-58.532-12.93-14.86-31.14-22.29-54.65-22.29Zm43.59 88.198c0 15.61-3.95 28.331-11.86 38.165-7.9 9.834-19.87 14.752-35.9 14.753-17.1 0-29.65-4.436-37.66-13.309-8.01-8.874-12.02-20.901-12.02-36.081v-11.867c0-15.82 4-28.595 12.02-38.326 8.01-9.731 20.57-14.595 37.66-14.592 16.03 0 28 4.917 35.9 14.753 7.91 9.835 11.87 22.557 11.86 38.165v8.339Zm219.9 47.787c13.67-11.115 20.51-28.647 20.51-52.598v-4.17c0-24.8-7.16-44.204-21.47-58.21-14.32-14.006-34.09-21.009-59.31-21.007-25 0-44.71 7.056-59.13 21.168-14.42 14.112-21.64 33.675-21.65 58.691v3.528c0 25.016 7.16 44.58 21.48 58.691 14.32 14.111 34.09 21.167 59.3 21.167h138.48v-27.26h-78.21Zm-58.66 0c-16.67 0-29.49-4.383-38.47-13.15-8.97-8.766-13.46-21.381-13.46-37.844v-6.735c0-16.677 4.27-29.399 12.82-38.166 8.55-8.768 21.05-13.151 37.5-13.149 16.46 0 28.96 4.383 37.51 13.149 8.55 8.766 12.82 21.488 12.82 38.166v6.735c0 14.752-3.42 26.779-10.26 36.081-6.84 9.302-17.84 14.273-33.01 14.913h-5.45Z"/></g><path fill="#1A73E8" d="m876.07 257.15 166.04 88.84h28.53V133.994h-28.53l-166.04 88.84v34.316Zm28.208-17.319 135.912-70.558v140.796l-135.912-70.238Z"/><mask id="b" width="1626" height="910" x="161" y="129" maskUnits="userSpaceOnUse" style="mask-type:luminance"><path fill="#fff" d="M161.262 1039H1786.74V129.183H161.262V1039Z"/></mask><g mask="url(#b)"><path fill="#FF6D7F" d="M542.067 182.743c-25.218 0-44.986 7.003-59.301 21.007-14.316 14.005-21.475 33.408-21.477 58.211v4.169c0 23.95 6.838 41.482 20.515 52.598H403.59v27.261h138.477c25.213 0 44.98-7.056 59.301-21.167 14.321-14.111 21.48-33.675 21.477-58.691v-3.529c0-25.016-7.212-44.58-21.637-58.691-14.424-14.111-34.138-21.167-59.141-21.168Zm50.326 84.991c0 16.466-4.488 29.081-13.463 37.845-8.975 8.763-21.797 13.146-38.465 13.149h-5.45c-15.176-.641-26.181-5.612-33.016-14.913-6.835-9.3-10.254-21.327-10.258-36.081v-6.735c0-16.676 4.274-29.399 12.822-38.166 8.547-8.768 21.049-13.151 37.504-13.149 16.453 0 28.955 4.383 37.504 13.149 8.55 8.766 12.824 21.488 12.822 38.166v6.735Zm166.999-138.555c-25.856 0-45.674 6.95-59.456 20.851-13.781 13.901-20.672 32.93-20.672 57.088v138.871h30.452v-71.52c12.607 15.185 30.557 22.775 53.852 22.771 23.505 0 41.723-7.43 54.654-22.29 12.931-14.859 19.393-34.369 19.386-58.53v-6.415c0-15.821-3.045-29.826-9.136-42.015a66.751 66.751 0 0 0-26.926-28.544c-11.86-6.84-25.912-10.263-42.154-10.267Zm47.761 88.197c0 15.61-3.953 28.332-11.861 38.166-7.907 9.835-19.874 14.754-35.9 14.757-17.1 0-29.655-4.864-37.665-14.592-8.01-9.728-12.016-22.504-12.021-38.326v-11.867c0-15.179 4.007-27.206 12.021-36.081 8.014-8.875 20.569-13.311 37.665-13.309 16.027 0 27.994 4.917 35.9 14.753 7.907 9.835 11.861 22.557 11.861 38.165v8.334Z"/></g><path fill="#1A73E8" d="m327.306 133.994-166.044 88.84v34.316l166.044 88.839h28.528V133.994h-28.528ZM189.47 239.831l135.912-70.558v140.795L189.47 239.831Z"/><mask id="c" width="1626" height="910" x="161" y="75" maskUnits="userSpaceOnUse" style="mask-type:luminance"><path fill="#fff" d="M161.262 984.817H1786.74V75H161.262v909.817Z"/></mask><g mask="url(#c)"><path fill="#1A73E8" d="M1758.53 684.599c0 11.336-2.62 19.193-7.85 23.573-5.24 4.38-12.13 6.572-20.67 6.575h-42.64v25.337h43.28c37.39 0 56.09-18.495 56.09-55.485v-8.017c0-36.771-18.7-55.159-56.09-55.164h-43.28v25.336H1730c19.02 0 28.53 9.943 28.53 29.828v8.017Z"/><path fill="#FF6D7F" d="M1215.85 673.375v-51.957h-30.45v211.996h115.4c26.07 0 45.51-6.682 58.34-20.046 12.82-13.363 19.23-31.163 19.23-53.399v-13.15c0-22.235-6.41-40.034-19.23-53.399-12.83-13.365-32.27-20.046-58.34-20.045h-84.95Zm132.07 88.198c0 13.685-3.48 24.536-10.42 32.553-6.95 8.016-19.18 12.025-36.7 12.026h-84.95V700.636h84.95c17.52 0 29.75 4.009 36.7 12.027 6.95 8.017 10.42 18.868 10.42 32.553v16.357Zm248.1-61.579c0-25.868-7.27-46.181-21.8-60.936-14.53-14.755-34.19-22.132-58.98-22.129-24.8 0-44.46 7.376-58.98 22.129-14.53 14.753-21.79 35.065-21.8 60.936v133.42h219.25v-27.262h-57.69V699.994Zm-131.11-1.605c0-17.103 4.28-30.467 12.82-40.09 8.55-9.623 21.05-14.434 37.51-14.432 16.45 0 28.95 4.81 37.5 14.432s12.83 22.985 12.82 40.09v107.763h-100.65V698.389Z"/></g><path fill="#1A73E8" d="m921.91 744.574 166.04 88.839h28.53V621.418h-28.53l-166.04 88.839v34.317Zm28.208-17.319 135.912-70.558v140.796l-135.912-70.238Z"/><mask id="d" width="1626" height="910" x="161" y="75" maskUnits="userSpaceOnUse" style="mask-type:luminance"><path fill="#fff" d="M161.262 984.817H1786.74V75H161.262v909.817Z"/></mask><g mask="url(#d)"><path fill="#FF6D7F" d="M542.391 616.928c-24.795 0-44.455 7.376-58.98 22.129-14.526 14.753-21.792 35.066-21.798 60.937v106.157h-57.699v27.261H623.17V699.994c0-25.869-7.266-46.181-21.798-60.937-14.532-14.756-34.192-22.132-58.981-22.129Zm-50.325 81.462c0-17.102 4.273-30.465 12.821-40.089 8.547-9.624 21.049-14.435 37.504-14.433 16.453 0 28.955 4.811 37.505 14.433 8.55 9.621 12.823 22.984 12.821 40.089v107.762H492.066V698.39Zm313.814-76.972H690.483v211.995h30.45v-51.956h84.946c26.069 0 45.516-6.682 58.339-20.045 12.823-13.364 19.234-31.164 19.233-53.4v-13.15c0-22.234-6.411-40.034-19.233-53.399-12.822-13.365-32.268-20.047-58.338-20.045Zm47.121 88.198c0 13.685-3.473 24.536-10.418 32.552-6.946 8.016-19.18 12.026-36.703 12.03h-84.947V648.679h84.946c17.519 0 29.753 4.009 36.702 12.027 6.949 8.017 10.422 18.868 10.418 32.553l.002 16.357Z"/></g><path fill="#1A73E8" d="m327.306 621.418-166.044 88.839v34.317l166.044 88.839h28.528V621.418h-28.528ZM189.47 727.256l135.912-70.56v140.796L189.47 727.256Z"/><mask id="e" width="1626" height="910" x="161" y="75" maskUnits="userSpaceOnUse" style="mask-type:luminance"><path fill="#fff" d="M161.262 984.817H1786.74V75H161.262v909.817Z"/></mask><g fill="#1A73E8" mask="url(#e)"><path d="m204.628 465.803-6.969-14.997a9.637 9.637 0 0 0 4.344-4.035 12.39 12.39 0 0 0 1.477-6.138 11.302 11.302 0 0 0-1.361-5.569 9.647 9.647 0 0 0-4.081-3.889 14.215 14.215 0 0 0-6.682-1.433h-13.794v36.061h6.779v-13.708h6.826l5.824 13.708h7.637Zm-20.287-30.376h5.107c2.514 0 4.336.399 5.466 1.195s1.694 2.244 1.694 4.343a5.24 5.24 0 0 1-1.527 4.131c-1.018.908-2.721 1.361-5.107 1.361h-5.633v-11.03Zm24.105 19.009c-.073 2.316.48 4.61 1.599 6.639a10.202 10.202 0 0 0 4.368 4.083c1.968.934 4.124 1.4 6.302 1.361a14.246 14.246 0 0 0 6.324-1.361 10.308 10.308 0 0 0 4.417-4.083 12.763 12.763 0 0 0 1.619-6.639v-3.152a12.868 12.868 0 0 0-1.623-6.687 10.317 10.317 0 0 0-4.417-4.084 14.261 14.261 0 0 0-6.325-1.361 14.102 14.102 0 0 0-6.301 1.361 10.21 10.21 0 0 0-4.368 4.084 13.002 13.002 0 0 0-1.599 6.687l.004 3.152Zm6.684-3.2c0-2.293.485-4.012 1.455-5.158a5.114 5.114 0 0 1 4.13-1.72 5.186 5.186 0 0 1 4.152 1.72c.986 1.146 1.479 2.866 1.48 5.158v3.2c0 2.293-.494 4.02-1.48 5.182a5.158 5.158 0 0 1-4.152 1.743 5.08 5.08 0 0 1-4.13-1.746c-.971-1.16-1.456-2.887-1.455-5.179v-3.2Zm40.284 2.723a7.493 7.493 0 0 1-1.428 4.918 4.939 4.939 0 0 1-4.01 1.72 4.707 4.707 0 0 1-3.724-1.457c-.859-.971-1.288-2.523-1.289-4.656v-14.663h-6.537v16.239c0 3.375.787 5.954 2.362 7.737 1.575 1.783 3.874 2.675 6.896 2.674a8.743 8.743 0 0 0 7.734-3.868v3.2h6.537v-25.982h-6.537l-.004 14.138Zm27.88-14.807a9.031 9.031 0 0 0-4.594.988 9.024 9.024 0 0 0-3.473 3.167v-3.487h-6.538v25.983h6.538v-14.09a7.318 7.318 0 0 1 1.502-4.966 5.143 5.143 0 0 1 4.081-1.72 4.621 4.621 0 0 1 3.724 1.577c.89 1.05 1.336 2.657 1.336 4.823v14.376h6.538v-16.191c0-3.374-.772-5.962-2.316-7.761-1.543-1.8-3.811-2.699-6.802-2.699m32.459 3.63a8.65 8.65 0 0 0-7.446-3.63c-3.406 0-6.008 1.051-7.806 3.153-1.797 2.102-2.695 5.014-2.692 8.737v3.581c0 3.916.891 6.878 2.673 8.883 1.782 2.006 4.392 3.008 7.829 3.006a8.497 8.497 0 0 0 7.446-3.964v3.255h6.538v-36.059h-6.538l-.004 13.038Zm-5.771 18.579a4.988 4.988 0 0 1-4.01-1.671 7.21 7.21 0 0 1-1.432-4.825v-4.059a6.958 6.958 0 0 1 1.479-4.8 5.184 5.184 0 0 1 4.058-1.648 5.406 5.406 0 0 1 3.799 1.481 6.203 6.203 0 0 1 1.885 4.012v5.014a6.812 6.812 0 0 1-1.623 4.634 5.27 5.27 0 0 1-4.152 1.862m42.336-27.175a8.81 8.81 0 0 1 2.385.381v-5.062a14 14 0 0 0-3.818-.43c-2.96 0-5.259.764-6.898 2.293-1.638 1.528-2.458 3.693-2.458 6.495v1.958h-2.865v5.11h2.865v20.872h6.537v-20.872h6.014v-5.11h-6.014v-1.337a4.325 4.325 0 0 1 1.073-3.319 4.57 4.57 0 0 1 3.175-.979m4.916 20.25a12.887 12.887 0 0 0 1.6 6.639 10.193 10.193 0 0 0 4.374 4.083 14.103 14.103 0 0 0 6.298 1.361 14.246 14.246 0 0 0 6.324-1.361 10.308 10.308 0 0 0 4.417-4.083 12.754 12.754 0 0 0 1.623-6.639v-3.152a12.848 12.848 0 0 0-1.623-6.687 10.317 10.317 0 0 0-4.417-4.084 14.26 14.26 0 0 0-6.324-1.361 14.1 14.1 0 0 0-6.301 1.361 10.199 10.199 0 0 0-4.368 4.084 12.993 12.993 0 0 0-1.6 6.687l-.003 3.152Zm6.683-3.2c0-2.293.485-4.012 1.456-5.158a5.11 5.11 0 0 1 4.129-1.72 5.184 5.184 0 0 1 4.152 1.72c.987 1.146 1.481 2.866 1.481 5.158v3.2c0 2.293-.492 4.019-1.476 5.179a5.155 5.155 0 0 1-4.153 1.744 5.079 5.079 0 0 1-4.13-1.744c-.97-1.162-1.456-2.89-1.456-5.182l-.003-3.197Zm30.025-11.415h-6.537v25.982h6.537v-11.94a9.613 9.613 0 0 1 1.862-6.018 5.842 5.842 0 0 1 4.82-2.292c.45 0 .898.048 1.337.143v-6.541a8.385 8.385 0 0 0-4.654 1.313 10.64 10.64 0 0 0-3.365 3.559v-4.206Zm43.391-.669a9.186 9.186 0 0 0-8.64 5.063c-1.273-3.375-3.962-5.062-8.068-5.063a8.702 8.702 0 0 0-7.78 4.012v-3.343h-6.537v25.982h6.537v-14.09a7.758 7.758 0 0 1 1.384-4.966 4.738 4.738 0 0 1 3.915-1.72c3.246 0 4.868 2.133 4.868 6.4v14.376h6.538v-14.09a7.846 7.846 0 0 1 1.359-4.99 4.757 4.757 0 0 1 3.946-1.692c3.214 0 4.821 2.134 4.822 6.4v14.372h6.537v-16.191c0-3.407-.732-6.003-2.195-7.785-1.464-1.783-3.692-2.674-6.684-2.675m25.823 25.266a17.462 17.462 0 0 0 4.488 1.456c1.68.352 3.391.535 5.108.548a17.43 17.43 0 0 0 5.585-.884 9.755 9.755 0 0 0 4.32-2.818 7.234 7.234 0 0 0 1.695-4.944c0-2.483-.7-4.322-2.1-5.516a10.377 10.377 0 0 0-5.967-2.122l-3.199-.286a8.87 8.87 0 0 1-3.198-.741 1.955 1.955 0 0 1-1.05-1.886 2.327 2.327 0 0 1 1.289-2.126 7.467 7.467 0 0 1 3.675-.74c1.6.016 3.189.248 4.726.692a19.328 19.328 0 0 1 4.535 1.888v-5.779a13.717 13.717 0 0 0-4.177-1.481 26.425 26.425 0 0 0-5.322-.526 15.707 15.707 0 0 0-5.301.884 8.943 8.943 0 0 0-4.01 2.746 7.065 7.065 0 0 0-1.527 4.633c0 4.617 2.641 7.181 7.924 7.69l3.342.383a6.404 6.404 0 0 1 3.102.763 2.316 2.316 0 0 1 1.051 2.102 2.38 2.38 0 0 1-1.409 2.221 8.2 8.2 0 0 1-3.798.74 21.631 21.631 0 0 1-9.786-2.386l.004 5.489Zm38.43-3.439a3.603 3.603 0 0 1-2.793-.931 5.024 5.024 0 0 1-.835-3.319v-11.798h6.253v-5.11h-6.255v-7.45h-6.537v7.45h-4.152v5.11h4.152v12.752c0 2.835.748 5.015 2.244 6.541 1.496 1.526 3.659 2.291 6.489 2.295a20.537 20.537 0 0 0 2.339-.143 14.099 14.099 0 0 0 2.1-.382v-5.35c-.982.246-1.992.358-3.004.335m18.474-1.863-6.538-19.295H506.6l10.353 27.176-3.388 9.408h6.635l3.534-10.793 9.496-25.791h-6.731l-6.44 19.295Zm16.849-.239c0 2.644.613 4.579 1.839 5.803 1.226 1.225 3.094 1.838 5.604 1.839 1.327.02 2.649-.173 3.915-.573v-5.303a5.85 5.85 0 0 1-2.339.382 2.119 2.119 0 0 1-1.981-.836 6.565 6.565 0 0 1-.501-3.08v-27.365h-6.537v29.133Zm25.968-19.725a12.566 12.566 0 0 0-6.111 1.433 10.098 10.098 0 0 0-4.108 4.181 13.55 13.55 0 0 0-1.48 6.52v3.152c0 3.884 1.089 6.869 3.268 8.954 2.18 2.086 5.291 3.128 9.334 3.127a25.11 25.11 0 0 0 5.609-.549 18.345 18.345 0 0 0 4.702-1.839v-5.11a16.629 16.629 0 0 1-4.487 1.695 24.864 24.864 0 0 1-4.771.407c-4.424 0-6.747-1.975-6.969-5.923h16.803v-4.203c0-3.852-1.066-6.79-3.199-8.812-2.132-2.022-4.996-3.033-8.592-3.033m0 5.206a4.667 4.667 0 0 1 3.842 1.553c.843 1.034 1.281 2.634 1.313 4.799h-10.218c.096-4.234 1.782-6.351 5.061-6.352M176.415 950.569a22.809 22.809 0 0 0 11.17 2.675c4.073 0 7.422-.932 10.048-2.794 2.626-1.863 3.939-4.641 3.939-8.335a9.62 9.62 0 0 0-2.554-7.071c-1.704-1.719-4.177-2.785-7.421-3.199l-3.344-.427a8.618 8.618 0 0 1-4.272-1.385 4.114 4.114 0 0 1-1.218-3.344c0-3.248 2.26-4.871 6.779-4.871a17.38 17.38 0 0 1 5.394.883 19.388 19.388 0 0 1 5.013 2.46v-6.495a13.428 13.428 0 0 0-4.727-1.934 27.33 27.33 0 0 0-6.014-.645 17.977 17.977 0 0 0-6.683 1.194 10.489 10.489 0 0 0-4.771 3.653 10.094 10.094 0 0 0-1.767 6.042 10.052 10.052 0 0 0 2.313 6.976 10.754 10.754 0 0 0 6.803 3.2l3.58.478c2.259.255 3.835.724 4.726 1.409a4.105 4.105 0 0 1 1.336 3.462 4.424 4.424 0 0 1-1.742 3.746 8.079 8.079 0 0 1-4.941 1.317 21.522 21.522 0 0 1-11.647-3.491v6.496Zm47.401-20.871a8.653 8.653 0 0 0-7.447-3.63c-3.406 0-6.008 1.051-7.805 3.152-1.798 2.102-2.696 5.015-2.696 8.74v3.583c0 3.915.891 6.876 2.672 8.883 1.782 2.006 4.391 3.008 7.829 3.005a8.5 8.5 0 0 0 7.447-3.964v13.902h6.537v-36.633h-6.537v2.962Zm-5.776 18.578a4.99 4.99 0 0 1-4.01-1.671 7.214 7.214 0 0 1-1.432-4.824v-4.059a6.958 6.958 0 0 1 1.479-4.8 5.179 5.179 0 0 1 4.058-1.648 5.4 5.4 0 0 1 3.799 1.481 6.2 6.2 0 0 1 1.885 4.011v5.015a6.801 6.801 0 0 1-1.626 4.634 5.265 5.265 0 0 1-4.152 1.862m35.801-7.403a7.499 7.499 0 0 1-1.433 4.922 4.936 4.936 0 0 1-4.01 1.719 4.694 4.694 0 0 1-3.723-1.456c-.859-.972-1.289-2.524-1.289-4.657v-14.666h-6.537v16.24c0 3.374.787 5.953 2.363 7.736 1.575 1.783 3.875 2.675 6.898 2.675a8.738 8.738 0 0 0 7.732-3.869v3.201h6.538v-25.983h-6.538l-.001 14.138Zm23.151-14.805a16.784 16.784 0 0 0-9.929 2.77v5.922a14.655 14.655 0 0 1 4.248-2.197 15.335 15.335 0 0 1 4.583-.668 7.666 7.666 0 0 1 3.819.74 3.373 3.373 0 0 1 1.599 1.911c.265 1.004.384 2.042.353 3.08h-5.246c-7.192 0-10.788 2.722-10.788 8.167a7.177 7.177 0 0 0 2.242 5.611c1.496 1.356 3.597 2.033 6.302 2.033 3.5 0 5.998-1.178 7.494-3.535v2.816h6.537v-16.287c0-3.216-.803-5.747-2.411-7.594-1.607-1.846-4.543-2.77-8.807-2.77m-1.098 22.54c-2.609 0-3.914-1.067-3.914-3.201 0-1.368.429-2.276 1.289-2.722a8.973 8.973 0 0 1 3.962-.669h4.439v.765c0 2.101-.541 3.598-1.623 4.489a6.32 6.32 0 0 1-4.153 1.338Zm25.353-21.872h-6.537v25.983h6.537v-11.941a9.613 9.613 0 0 1 1.861-6.017 5.843 5.843 0 0 1 4.822-2.293c.45 0 .898.048 1.337.143v-6.541a8.372 8.372 0 0 0-4.655 1.313 10.636 10.636 0 0 0-3.365 3.558v-4.205Zm22.96-.668a12.55 12.55 0 0 0-6.113 1.431 10.08 10.08 0 0 0-4.105 4.179 13.55 13.55 0 0 0-1.48 6.519v3.153c0 3.885 1.09 6.87 3.269 8.955 2.179 2.085 5.29 3.127 9.332 3.128a25.1 25.1 0 0 0 5.608-.549 18.306 18.306 0 0 0 4.704-1.838v-5.109a16.66 16.66 0 0 1-4.492 1.695 24.933 24.933 0 0 1-4.77.406c-4.424 0-6.747-1.974-6.97-5.923h16.803v-4.202c0-3.853-1.066-6.79-3.198-8.812-2.132-2.022-4.996-3.033-8.592-3.033m0 5.206a4.664 4.664 0 0 1 3.843 1.553c.843 1.034 1.28 2.634 1.313 4.799h-10.215c.095-4.234 1.781-6.351 5.059-6.352Zm40.67-10.173a8.81 8.81 0 0 1 2.385.382v-5.063a14.04 14.04 0 0 0-3.819-.429c-2.96 0-5.259.764-6.898 2.292-1.639 1.528-2.458 3.693-2.458 6.496v1.957h-2.864v5.111h2.864v20.872h6.538v-20.872h6.014v-5.111h-6.014v-1.337a4.325 4.325 0 0 1 1.074-3.319 4.567 4.567 0 0 1 3.174-.979m4.916 20.251a12.896 12.896 0 0 0 1.6 6.638 10.195 10.195 0 0 0 4.371 4.082c1.967.934 4.124 1.4 6.301 1.361a14.248 14.248 0 0 0 6.325-1.361 10.317 10.317 0 0 0 4.417-4.084 12.75 12.75 0 0 0 1.623-6.638v-3.153a12.864 12.864 0 0 0-1.623-6.686 10.308 10.308 0 0 0-4.417-4.083 14.248 14.248 0 0 0-6.325-1.362 14.09 14.09 0 0 0-6.301 1.362 10.185 10.185 0 0 0-4.368 4.083 12.999 12.999 0 0 0-1.599 6.686l-.004 3.155Zm6.684-3.201c0-2.292.485-4.011 1.456-5.157a5.097 5.097 0 0 1 4.129-1.72 5.185 5.185 0 0 1 4.152 1.72c.986 1.145 1.479 2.864 1.48 5.157v3.201c0 2.292-.494 4.019-1.48 5.181a5.15 5.15 0 0 1-4.152 1.743 5.075 5.075 0 0 1-4.125-1.743c-.972-1.161-1.457-2.888-1.456-5.181l-.004-3.201Zm30.024-11.415h-6.537v25.983h6.537v-11.941a9.62 9.62 0 0 1 1.862-6.017 5.846 5.846 0 0 1 2.134-1.731 5.849 5.849 0 0 1 2.689-.562c.449 0 .897.048 1.337.143v-6.541a8.367 8.367 0 0 0-4.654 1.313 10.62 10.62 0 0 0-3.366 3.558l-.002-4.205Zm43.392-.668a9.191 9.191 0 0 0-8.64 5.062c-1.274-3.373-3.963-5.061-8.068-5.062a8.704 8.704 0 0 0-4.432.955 8.704 8.704 0 0 0-3.349 3.057v-3.344h-6.538v25.983h6.538v-14.09a7.755 7.755 0 0 1 1.384-4.967 4.738 4.738 0 0 1 3.915-1.719c3.245 0 4.869 2.133 4.869 6.399v14.377h6.538v-14.09a7.835 7.835 0 0 1 1.36-4.991 4.756 4.756 0 0 1 3.938-1.695c3.214 0 4.821 2.133 4.821 6.399v14.377h6.538v-16.192c0-3.406-.732-6.001-2.197-7.784-1.464-1.783-3.691-2.675-6.682-2.675m25.831 25.266a17.455 17.455 0 0 0 4.487 1.456c1.68.352 3.391.536 5.108.549a17.403 17.403 0 0 0 5.585-.884 9.744 9.744 0 0 0 4.32-2.817 7.233 7.233 0 0 0 1.694-4.943c0-2.484-.7-4.323-2.101-5.517a10.363 10.363 0 0 0-5.966-2.121l-3.198-.287a8.89 8.89 0 0 1-3.198-.74 1.952 1.952 0 0 1-1.051-1.887 2.329 2.329 0 0 1 1.289-2.122 7.473 7.473 0 0 1 3.676-.74c1.6.015 3.189.248 4.726.693a19.315 19.315 0 0 1 4.534 1.886v-5.786a13.708 13.708 0 0 0-4.177-1.481 26.345 26.345 0 0 0-5.322-.525 15.707 15.707 0 0 0-5.301.884 8.924 8.924 0 0 0-4.01 2.746 7.068 7.068 0 0 0-1.527 4.634c0 4.617 2.641 7.18 7.923 7.69l3.342.382a6.42 6.42 0 0 1 3.103.764 2.307 2.307 0 0 1 1.053 2.098 2.381 2.381 0 0 1-1.408 2.221 8.204 8.204 0 0 1-3.799.74 21.648 21.648 0 0 1-9.786-2.387l.004 5.494Zm38.429-3.44a3.586 3.586 0 0 1-2.795-.931 5.017 5.017 0 0 1-.836-3.319v-11.797h6.254v-5.111h-6.254v-7.45h-6.537v7.45h-4.152v5.111h4.152v12.752c0 2.834.748 5.014 2.243 6.541 1.495 1.527 3.659 2.291 6.492 2.293a20.537 20.537 0 0 0 2.339-.143 14.099 14.099 0 0 0 2.1-.382v-5.344c-.981.244-1.992.357-3.003.334m18.472-1.862-6.537-19.296h-6.922l10.351 27.172-3.388 9.409h6.634l3.534-10.794 9.499-25.791h-6.73l-6.441 19.3Zm16.851-.239c0 2.643.613 4.577 1.838 5.803 1.225 1.225 3.094 1.838 5.608 1.838a12.37 12.37 0 0 0 3.915-.572v-5.304a5.874 5.874 0 0 1-2.339.382 2.117 2.117 0 0 1-1.981-.835 6.561 6.561 0 0 1-.502-3.082v-27.368h-6.537l-.002 29.138Zm25.967-19.725a12.537 12.537 0 0 0-6.11 1.433 10.068 10.068 0 0 0-4.106 4.175 13.546 13.546 0 0 0-1.48 6.519v3.153c0 3.885 1.09 6.87 3.269 8.955 2.179 2.084 5.29 3.127 9.332 3.128a25.103 25.103 0 0 0 5.609-.549 18.329 18.329 0 0 0 4.698-1.84v-5.109a16.683 16.683 0 0 1-4.487 1.695 24.933 24.933 0 0 1-4.77.406c-4.424 0-6.748-1.974-6.97-5.923h16.803v-4.202c0-3.853-1.066-6.79-3.199-8.812-2.132-2.022-4.996-3.033-8.592-3.033m0 5.206a4.658 4.658 0 0 1 3.843 1.553c.843 1.034 1.28 2.634 1.313 4.799h-10.218c.095-4.234 1.782-6.351 5.059-6.352"/></g></svg>