<svg xmlns="http://www.w3.org/2000/svg" width="1920" height="1080" fill="none"><mask id="a" width="1698" height="136" x="111" y="274" maskUnits="userSpaceOnUse" style="mask-type:luminance"><path fill="#fff" d="M111.211 409.728H1808.79V274H111.211v135.728Z"/></mask><g mask="url(#a)"><path fill="#1A73E8" d="M805.387 390.258v16.523H930.1v-16.523l-50.554-113.501h-21.048l-53.111 113.501Zm20.654-.787 42.489-94.42 39.932 94.42h-82.421Zm140.253-58.816H946.82v21.638h19.474v-21.638Zm45.246 6.885a48.615 48.615 0 0 1 9.93-32.056 36.98 36.98 0 0 1 13.69-9.496 36.965 36.965 0 0 1 16.48-2.511h46.84v-16.756h-46.84a56.487 56.487 0 0 0-43.57 16.429 63.737 63.737 0 0 0-15.25 45.169v6.885a63.759 63.759 0 0 0 15.25 45.17 56.501 56.501 0 0 0 20.01 12.9 56.544 56.544 0 0 0 23.56 3.507h46.84v-16.72h-46.84c-5.61.43-11.25-.428-16.47-2.507a37.006 37.006 0 0 1-13.7-9.492 48.617 48.617 0 0 1-9.93-32.056v-8.466Zm137.1-60.783h-18.69v130.024h84.79v-16.72h-66.1V276.757Zm166.22 43.866a40.585 40.585 0 0 0-33.05-13.966 42.05 42.05 0 0 0-18.31 3.038 42.024 42.024 0 0 0-15.23 10.622 52.712 52.712 0 0 0-11.9 35.896v3.934a56.983 56.983 0 0 0 5.61 25.769 40.948 40.948 0 0 0 16.52 17.485 50.908 50.908 0 0 0 25.87 6.294 49.168 49.168 0 0 0 36.49-12.749 47.4 47.4 0 0 0 9.93-16.208 47.407 47.407 0 0 0 2.79-18.806v-85.175h-18.72v43.866Zm0 42.256a31.783 31.783 0 0 1-7.38 22.17 29.737 29.737 0 0 1-10.67 6.577 29.707 29.707 0 0 1-12.44 1.582 26.557 26.557 0 0 1-22.03-9.048 36.178 36.178 0 0 1-7.29-23.409v-5.099a36.178 36.178 0 0 1 7.29-23.409 26.557 26.557 0 0 1 22.03-9.048c4.28-.363 8.58.254 12.59 1.804 4 1.55 7.6 3.993 10.52 7.142a35.787 35.787 0 0 1 7.38 23.496v7.242Zm43.28 27.379v16.523h124.71v-16.523l-50.56-113.501h-21.04l-53.11 113.501Zm20.65-.787 42.49-94.42 39.93 94.42h-82.42Zm140.25-58.816h-19.47v21.638h19.47v-21.638Zm52.72 37.965c18.1 0 31.37-4.59 39.83-13.77 8.46-9.179 12.68-22.876 12.68-41.09v-36.981h-18.68v37.965a56.69 56.69 0 0 1-3.25 20.851 23.09 23.09 0 0 1-11.31 12.196 49.412 49.412 0 0 1-22.23 4.13h-25.18v54.86h18.73V368.62h9.41Zm76.12 21.638v16.523h124.71v-16.523l-50.55-113.501h-21.05l-53.11 113.501Zm20.65-.787 42.49-94.42 39.93 94.42h-82.42Zm140.26-58.816h-19.48v21.638h19.48v-21.638Z"/></g><path fill="#FF6D7F" d="M774.917 318.262h-71.624v15.343h71.624v-15.343Zm0 30.686h-71.624v15.343h71.624v-15.343Z"/><mask id="b" width="1698" height="136" x="111" y="274" maskUnits="userSpaceOnUse" style="mask-type:luminance"><path fill="#fff" d="M111.211 409.728H1808.79V274H111.211v135.728Z"/></mask><g mask="url(#b)"><path fill="#1A73E8" d="M129.899 337.537a48.662 48.662 0 0 1 9.938-32.056 36.918 36.918 0 0 1 30.191-12.006h46.816v-16.757h-46.816a56.505 56.505 0 0 0-43.567 16.458 63.768 63.768 0 0 0-15.249 45.148v6.885a63.725 63.725 0 0 0 15.249 45.17 56.464 56.464 0 0 0 43.567 16.37h46.816v-16.691h-46.816a36.924 36.924 0 0 1-30.191-11.999 48.662 48.662 0 0 1-9.938-32.063v-8.459Zm157.563-60.782-56.848 129.994h20.654l46.197-111.468 43.895 111.468h22.032L308.51 276.755h-21.048Zm141.426 72.781h17.31v-43.669a32.987 32.987 0 0 0-7.868-23.51 34.713 34.713 0 0 0-26.162-8.356 34.711 34.711 0 0 0-26.162 8.356 32.993 32.993 0 0 0-7.869 23.51v43.669h17.311v-42.255a20.655 20.655 0 0 1 3.839-13.478 15.895 15.895 0 0 1 12.881-4.619 15.912 15.912 0 0 1 12.888 4.619 20.653 20.653 0 0 1 3.832 13.478v42.255ZM551.24 320.62a40.53 40.53 0 0 0-14.885-10.831 40.54 40.54 0 0 0-18.14-3.135 42.106 42.106 0 0 0-33.513 13.668 52.7 52.7 0 0 0-11.948 35.903v3.934a56.87 56.87 0 0 0 5.61 25.768 40.934 40.934 0 0 0 16.523 17.486 50.904 50.904 0 0 0 25.864 6.294 49.178 49.178 0 0 0 36.493-12.786 47.532 47.532 0 0 0 12.698-34.992v-85.174H551.24v43.865Zm0 42.293a31.745 31.745 0 0 1-7.373 22.126 29.667 29.667 0 0 1-23.116 8.167 26.584 26.584 0 0 1-22.032-9.042 36.186 36.186 0 0 1-7.285-23.408v-5.1a36.186 36.186 0 0 1 7.285-23.408 26.583 26.583 0 0 1 22.032-9.049 28.266 28.266 0 0 1 23.116 8.925 35.79 35.79 0 0 1 7.373 23.51v7.279Zm46.227-42.489h72.388V305.08h-72.388v15.344Z"/></g><path fill="#FF6D7F" d="m787.486 726.99-14.163 21.857-14.36-21.857h-21.857l26.556 35.408-28.107 36.784h21.856l15.933-23.605 15.737 23.605h21.857l-28.173-36.981 26.577-35.211h-21.856Z"/><mask id="c" width="700" height="134" x="111" y="669" maskUnits="userSpaceOnUse" style="mask-type:luminance"><path fill="#fff" d="M111.211 802.128h699.683V669.153H111.211v132.975Z"/></mask><g mask="url(#c)"><path fill="#1A73E8" d="M164.322 799.178h21.048l50.554-113.5v-16.524H111.211v16.524l53.111 113.5Zm49.964-112.714-39.932 94.42-42.489-94.42h82.421Zm46.816-17.31v56.652h62.772l-66.298 73.372h24.392l66.298-74.749v-15.146h-68.484v-40.129h-18.68Zm167.392 29.871a40.553 40.553 0 0 0-33.047 13.966v-43.866h-18.688v85.204a47.52 47.52 0 0 0 12.684 35.014 49.172 49.172 0 0 0 36.493 12.786 50.92 50.92 0 0 0 25.871-6.295 40.94 40.94 0 0 0 16.524-17.485 56.882 56.882 0 0 0 5.624-25.798v-3.934a52.734 52.734 0 0 0-11.897-35.903 42.115 42.115 0 0 0-33.513-13.668m26.752 54.095a36.187 36.187 0 0 1-7.286 23.408 26.58 26.58 0 0 1-22.031 9.049 29.639 29.639 0 0 1-23.109-8.167 31.749 31.749 0 0 1-7.381-22.126v-7.286a35.801 35.801 0 0 1 7.381-23.51 28.248 28.248 0 0 1 23.109-8.946 26.582 26.582 0 0 1 22.031 9.048 36.19 36.19 0 0 1 7.286 23.408v5.122Zm64.717-30.096h-19.525v21.638h19.474l.051-21.638Zm20.654 21.638 101.844 54.495h17.485V669.154h-17.485l-101.895 54.488.051 21.041Zm17.31-10.623 83.405-43.275v86.362l-83.405-43.087Zm154.023-11.015h-19.525v21.638h19.474l.051-21.638Z"/></g></svg>