<svg xmlns="http://www.w3.org/2000/svg" width="1920" height="1080" fill="none"><path fill="#FF6D7F" d="M133.211 228.68v10.08l32.4 69.24h12.84l30.84-69.24v-10.08h-76.08Zm12.6 10.56h50.28l-24.36 57.6-25.92-57.6Zm41.52 278.88h-51.84v10.2h29.28c-3.96 3.24-7.68 9.12-7.68 19.68v1.56c0 18.72 11.52 29.64 30.24 29.64s30.24-11.16 30.24-29.88V548c0-18.84-11.4-29.88-30.24-29.88Zm-18.84 31.8v-2.52c0-10.08 4.08-18.6 16.2-19.08h2.04c12.36 0 19.44 6.72 19.44 19.08v2.52c0 12.36-6.48 19.2-18.84 19.2s-18.84-6.84-18.84-19.2Zm44.64 218.76-37.08 71.16-17.52-28.8c1.68.72 4.32 1.32 8.04 1.32 13.92 0 20.28-9.24 20.28-22.08 0-14.76-7.92-23.4-24-23.4-15.96 0-23.64 8.52-23.64 22.2 0 9.24 3.96 15.72 9.24 24.12l21.96 34.8h13.2l42.84-79.32h-13.32Zm-49.44 34.44c-9.96 0-13.08-6.36-13.08-13.2 0-7.56 3.24-12.96 12.24-12.96 9.48 0 12.96 4.92 12.96 13.32 0 7.68-3.6 12.84-12.12 12.84Z"/><path fill="#1A73E8" d="M222.202 252.2h52.08v-9.48h-52.08v9.48Zm0 30h52.08v-9.48h-52.08v9.48Zm95.833-40.08c-15.84 0-27.36 11.64-27.36 29.88v7.92c0 19.44 12.72 29.88 29.76 29.88 10.08 0 16.44-1.56 23.52-5.64v-9.96c-8.28 5.04-14.28 5.76-22.44 5.76-11.28 0-19.44-6.96-19.68-19.2h43.68v-9.96c0-19.44-11.64-28.68-27.48-28.68Zm0 9.84c10.32 0 16.32 6 16.32 18.24v1.08h-32.52c0-12.12 5.88-19.32 16.2-19.32ZM236.616 522.2h52.08v-9.48h-52.08v9.48Zm0 30h52.08v-9.48h-52.08v9.48Zm71.473 25.8h11.16v-37.56c0-13.32 8.4-17.88 17.4-17.88 7.8 0 15.12 4.92 15.12 17.16V578h11.16v-39.12c0-16.8-7.32-26.76-23.52-26.76-9 0-15.72 3.72-20.16 9.72v-8.04h-11.16V578Zm97.603-65.88c-15.84 0-27.36 11.64-27.36 29.88v7.92c0 19.44 12.72 29.88 29.76 29.88 10.08 0 16.44-1.56 23.52-5.64v-9.96c-8.28 5.04-14.28 5.76-22.44 5.76-11.28 0-19.44-6.96-19.68-19.2h43.68v-9.96c0-19.44-11.64-28.68-27.48-28.68Zm0 9.84c10.32 0 16.32 6 16.32 18.24v1.08h-32.52c0-12.12 5.88-19.32 16.2-19.32ZM238.843 792.2h52.08v-9.48h-52.08v9.48Zm0 30h52.08v-9.48h-52.08v9.48Zm126.073-38.4h-11.52l-19.32 52.8-18.84-52.8h-12.12l24.84 65.52h12l24.96-65.52Zm34.565-1.68c-15.84 0-27.36 11.64-27.36 29.88v7.92c0 19.44 12.72 29.88 29.76 29.88 10.08 0 16.44-1.56 23.52-5.64v-9.96c-8.28 5.04-14.28 5.76-22.44 5.76-11.28 0-19.44-6.96-19.68-19.2h43.68v-9.96c0-19.44-11.64-28.68-27.48-28.68Zm0 9.84c10.32 0 16.32 6 16.32 18.24v1.08h-32.52c0-12.12 5.88-19.32 16.2-19.32Z"/><path fill="#FF6D7F" d="M578.879 311h82.42v-10.92l-33.41-75.01h-13.91l-35.1 75.01V311Zm13.65-11.44 28.08-62.4 26.39 62.4h-54.47Zm25.74 216.57c-20.41 0-32.76 11.96-32.76 32.37v1.43c0 20.28 12.48 32.37 32.76 32.37 20.28 0 32.76-11.83 32.76-32.11v-1.69c0-11.44-4.03-17.81-8.32-21.32h31.72v-11.05h-56.16Zm0 55.25c-13.39 0-20.41-7.41-20.41-20.8v-2.73c0-13.39 7.67-20.67 21.06-20.67h2.21c13.13.52 17.55 9.75 17.55 20.67v2.73c0 13.39-7.02 20.8-20.41 20.8ZM665.459 851h14.43l-46.41-85.93h-14.3l-23.79 37.7c-5.72 9.1-10.01 16.12-10.01 26.13 0 14.82 8.32 24.05 25.61 24.05 17.42 0 26-9.36 26-25.35 0-13.91-6.89-23.92-21.97-23.92-4.03 0-6.89.65-8.71 1.43l18.98-31.2 40.17 77.09Zm-53.56-37.31c9.23 0 13.13 5.59 13.13 13.91 0 9.1-3.77 14.43-14.04 14.43-9.75 0-13.26-5.85-13.26-14.04 0-7.41 3.38-14.3 14.17-14.3Z"/><path fill="#1A73E8" d="M675.286 250.55h56.42v-10.27h-56.42v10.27Zm0 32.5h56.42v-10.27h-56.42v10.27Zm76.909-56.68h13V213.5h-13v12.87Zm.52 84.63h12.09v-69.55h-12.09V311Zm-61.814 209.55h56.42v-10.27h-56.42v10.27Zm0 32.5h56.42v-10.27h-56.42v10.27Zm77.43 27.95h12.09v-40.69c0-14.43 9.1-19.37 18.85-19.37 8.45 0 16.38 5.33 16.38 18.59V581h12.09v-42.38c0-18.2-7.93-28.99-25.48-28.99-9.75 0-17.03 4.03-21.84 10.53v-8.71h-12.09V581Zm78.825-84.63h13V483.5h-13v12.87Zm.52 84.63h12.09v-69.55h-12.09V581ZM693.313 790.55h56.42v-10.27h-56.42v10.27Zm0 32.5h56.42v-10.27h-56.42v10.27Zm136.58-41.6h-12.48l-20.93 57.2-20.41-57.2h-13.13l26.91 70.98h13l27.04-70.98Zm12.185-15.08h13V753.5h-13v12.87Zm.52 84.63h12.09v-69.55h-12.09V851Z"/><path fill="#FF6D7F" d="M1061.93 228.68V308h10.68l62.16-33.24v-12.84l-62.16-33.24h-10.68Zm11.4 13.2 50.88 26.4-50.88 26.28v-52.68ZM1106.45 578c18.84 0 30.24-11.04 30.24-29.88v-1.32c0-18.72-11.52-29.88-30.24-29.88s-30.24 10.92-30.24 29.64v1.56c0 10.56 3.72 16.44 7.68 19.68h-29.28V578h51.84Zm-18.84-29.28v-2.52c0-12.36 6.48-19.2 18.84-19.2s18.84 6.84 18.84 19.2v2.52c0 12.36-7.08 19.08-19.44 19.08h-2.04c-12.12-.48-16.2-9-16.2-19.08Zm-24.36 287.88v12.6l77.4-39v-12l-34.44-21.96c-8.4-5.4-15.12-9.24-23.88-9.24-13.92 0-24 8.76-24 23.28 0 15 9.84 23.16 23.76 23.16 13.32 0 23.04-8.16 23.04-21.6 0-1.56-.12-3-.36-4.32l25.92 16.32-67.44 32.76Zm31.2-46.32c0 8.04-3.72 13.32-12.36 13.32-8.64 0-12.36-5.28-12.36-13.32 0-7.68 3.96-13.44 12.6-13.44s12.12 5.76 12.12 13.44Z"/><path fill="#1A73E8" d="M1150.11 252.2h52.08v-9.48h-52.08v9.48Zm0 30h52.08v-9.48h-52.08v9.48Zm68.48-2.28c0 19.44 12.72 29.88 28.56 29.88 15.84 0 28.68-10.44 28.68-29.88V272c0-19.44-12.84-29.88-28.68-29.88s-28.56 10.44-28.56 29.88v7.92Zm11.16-8.52c0-12.24 7.08-19.44 17.4-19.44 10.32 0 17.52 7.2 17.52 19.44v9.12c0 12.24-7.2 19.44-17.52 19.44s-17.4-7.2-17.4-19.44v-9.12Zm-74.01 250.8h52.08v-9.48h-52.08v9.48Zm0 30h52.08v-9.48h-52.08v9.48Zm71.47 25.8h11.16v-37.56c0-13.32 8.4-17.88 17.4-17.88 7.8 0 15.12 4.92 15.12 17.16V578h11.16v-39.12c0-16.8-7.32-26.76-23.52-26.76-9 0-15.72 3.72-20.16 9.72v-8.04h-11.16V578Zm70.24-28.08c0 19.44 12.72 29.88 28.56 29.88 15.84 0 28.68-10.44 28.68-29.88V542c0-19.44-12.84-29.88-28.68-29.88s-28.56 10.44-28.56 29.88v7.92Zm11.16-8.52c0-12.24 7.08-19.44 17.4-19.44 10.32 0 17.52 7.2 17.52 19.44v9.12c0 12.24-7.2 19.44-17.52 19.44s-17.4-7.2-17.4-19.44v-9.12Zm-152.64 250.8h52.08v-9.48h-52.08v9.48Zm0 30h52.08v-9.48h-52.08v9.48Zm126.07-38.4h-11.52l-19.32 52.8-18.84-52.8h-12.12l24.84 65.52h12l24.96-65.52Zm7.21 36.12c0 19.44 12.72 29.88 28.56 29.88 15.84 0 28.68-10.44 28.68-29.88V812c0-19.44-12.84-29.88-28.68-29.88s-28.56 10.44-28.56 29.88v7.92Zm11.16-8.52c0-12.24 7.08-19.44 17.4-19.44 10.32 0 17.52 7.2 17.52 19.44v9.12c0 12.24-7.2 19.44-17.52 19.44s-17.4-7.2-17.4-19.44v-9.12Z"/><path fill="#FF6D7F" d="M1572.99 228.68h-10.68l-62.16 33.24v12.84l62.16 33.24h10.68v-79.32Zm-62.28 39.6 50.88-26.4v52.68l-50.88-26.28Zm23.4 309.72h51.84v-10.2h-29.28c3.96-3.24 7.68-9.12 7.68-19.68v-1.56c0-18.72-11.52-29.64-30.24-29.64s-30.24 11.16-30.24 29.88v1.32c0 18.84 11.4 29.88 30.24 29.88Zm.6-10.2c-12.36 0-19.44-6.72-19.44-19.08v-2.52c0-12.36 6.48-19.2 18.84-19.2s18.84 6.84 18.84 19.2v2.52c0 10.08-4.08 18.6-16.2 19.08h-2.04Zm42.84 268.8-67.44-32.76 26.04-16.32c-.36 1.32-.48 2.76-.48 4.32 0 13.44 9.72 21.6 23.04 21.6 13.92 0 23.76-8.16 23.76-23.16 0-14.52-10.08-23.28-24-23.28-8.76 0-15.48 3.84-23.88 9.24l-34.44 21.96v12l77.4 39v-12.6Zm-31.2-46.32c0-7.68 3.48-13.44 12.12-13.44 8.64 0 12.6 5.76 12.6 13.44 0 8.04-3.72 13.32-12.36 13.32-8.64 0-12.36-5.28-12.36-13.32Z"/><path fill="#1A73E8" d="M1595.53 252.2h52.08v-9.48h-52.08v9.48Zm0 30h52.08v-9.48h-52.08v9.48Zm119 25.8v-39.6c0-10.68 0-26.28-26.16-26.28-10.68 0-17.04 2.64-22.08 6.72v10.92c6.36-5.76 13.2-7.8 20.64-7.8 16.44 0 16.44 9.96 16.44 17.04v2.16h-13.2c-7.56 0-27.48 0-27.48 20.04 0 11.76 6.84 18.6 20.88 18.6 9 0 15.6-2.88 19.8-8.88V308h11.16Zm-11.16-23.88c0 12.36-9.72 16.2-18.12 16.2-7.56 0-11.4-3.12-11.4-9.84 0-9.84 8.4-9.84 15.72-9.84h13.8v3.48ZM1601.16 522.2h52.08v-9.48h-52.08v9.48Zm0 30h52.08v-9.48h-52.08v9.48Zm71.47 25.8h11.16v-37.56c0-13.32 8.4-17.88 17.4-17.88 7.8 0 15.12 4.92 15.12 17.16V578h11.16v-39.12c0-16.8-7.32-26.76-23.52-26.76-9 0-15.72 3.72-20.16 9.72v-8.04h-11.16V578Zm120.76 0v-39.6c0-10.68 0-26.28-26.16-26.28-10.68 0-17.04 2.64-22.08 6.72v10.92c6.36-5.76 13.2-7.8 20.64-7.8 16.44 0 16.44 9.96 16.44 17.04v2.16h-13.2c-7.56 0-27.48 0-27.48 20.04 0 11.76 6.84 18.6 20.88 18.6 9 0 15.6-2.88 19.8-8.88V578h11.16Zm-11.16-23.88c0 12.36-9.72 16.2-18.12 16.2-7.56 0-11.4-3.12-11.4-9.84 0-9.84 8.4-9.84 15.72-9.84h13.8v3.48ZM1601.39 792.2h52.08v-9.48h-52.08v9.48Zm0 30h52.08v-9.48h-52.08v9.48Zm126.08-38.4h-11.52l-19.32 52.8-18.84-52.8h-12.12l24.84 65.52h12l24.96-65.52Zm57.37 64.2v-39.6c0-10.68 0-26.28-26.16-26.28-10.68 0-17.04 2.64-22.08 6.72v10.92c6.36-5.76 13.2-7.8 20.64-7.8 16.44 0 16.44 9.96 16.44 17.04v2.16h-13.2c-7.56 0-27.48 0-27.48 20.04 0 11.76 6.84 18.6 20.88 18.6 9 0 15.6-2.88 19.8-8.88V848h11.16Zm-11.16-23.88c0 12.36-9.72 16.2-18.12 16.2-7.56 0-11.4-3.12-11.4-9.84 0-9.84 8.4-9.84 15.72-9.84h13.8v3.48Z"/></svg>