<svg xmlns="http://www.w3.org/2000/svg" width="1920" height="1080" fill="none"><path fill="#1A73E8" d="M275.492 206.136v3.526c0 12.3-6.314 20.09-18.204 20.09h-18.286V235h18.286c15.416 0 24.026-9.84 24.026-25.666v-2.87c0-15.826-8.61-25.666-24.026-25.666h-18.286v5.248h18.286c11.89 0 18.204 7.79 18.204 20.09Zm65.535 14.186c0-6.478-2.542-11.398-9.512-12.71 6.888-1.23 9.512-6.068 9.512-12.3 0-10.496-5.412-14.514-20.09-14.514h-27.634v3.772l9.676 20.418h-9.676v5.248h10.004l-10.004 20.992V235h27.634c14.76 0 20.09-4.264 20.09-14.678Zm-20.09-15.334h-12.464l-8.774-18.942h21.238c11.48 0 14.186 2.87 14.186 9.266 0 6.806-3.116 9.676-14.186 9.676Zm0 5.248c11.234 0 14.186 3.034 14.186 10.086 0 6.806-3.28 9.43-14.186 9.43h-21.238l9.102-19.516h12.136Zm54.15-1.722c0 4.756-.984 9.676-8.036 9.676s-8.036-4.346-8.036-8.856v-16.236h-5.412v16.4c0 8.118 3.116 13.612 13.448 13.612 10.578 0 13.448-6.478 13.448-14.432v-2.87h-5.412v2.706Zm117.422-27.716h-5.412l-42.722 23.78v6.56L487.097 235h5.412v-54.202Zm-42.804 27.06 36.982-20.172v40.344l-36.982-20.172Zm57.656 12.71c1.968 1.394 6.232 2.706 10.824 2.706 7.462 0 12.546-2.788 12.546-9.43 0-5.576-3.444-7.38-9.84-8.118l-2.624-.328c-2.788-.492-5.986-1.066-5.986-4.264 0-2.624 1.886-4.1 6.314-4.1 3.69 0 7.544 1.066 10.988 3.116v-5.084c-2.706-1.722-6.888-2.706-10.824-2.706-7.052 0-11.726 2.788-11.726 8.856 0 6.314 4.592 7.872 9.676 8.528l2.624.328c3.936.492 6.15 1.476 6.15 4.264 0 2.87-2.296 4.264-7.052 4.264-4.838 0-7.954-1.312-11.07-3.116v5.084Zm99.705-12.874c0 3.608 2.706 6.396 6.396 6.396 2.624 0 4.92-1.476 5.904-3.772 8.938.41 11.808 3.198 11.808 9.43 0 7.38-3.034 10.004-14.186 10.004h-6.314V235h6.314c14.514 0 20.008-4.592 20.008-15.252 0-5.248-1.312-10.004-8.61-12.054 6.15-1.722 8.61-5.986 8.61-12.382 0-10.496-5.412-14.514-20.008-14.514H594.93v5.248h22.058c11.48 0 14.186 2.87 14.186 9.266 0 6.232-2.706 9.266-11.89 9.676-1.066-2.214-3.28-3.772-5.822-3.772-3.69 0-6.396 2.952-6.396 6.478Zm78.026-1.558v3.526c0 12.3-6.314 20.09-18.204 20.09h-18.286V235h18.286c15.416 0 24.026-9.84 24.026-25.666v-2.87c0-15.826-8.61-25.666-24.026-25.666h-18.286v5.248h18.286c11.89 0 18.204 7.79 18.204 20.09Zm-23.124 1.968a3.5 3.5 0 0 0 3.526 3.526c1.886 0 3.526-1.558 3.526-3.526 0-1.968-1.64-3.608-3.526-3.608-1.968 0-3.526 1.64-3.526 3.608Zm62.418 2.214c0 5.002-1.64 8.528-7.954 8.528s-8.036-3.526-8.036-8.528v-17.22h-5.412v17.63c0 8.036 3.526 12.956 13.448 12.956 9.84 0 13.366-4.92 13.366-12.956v-17.63h-5.412v17.22Zm74.538-29.52V235h5.412l42.804-23.862v-6.56l-42.804-23.78h-5.412Zm5.822 6.888 36.982 20.172-36.982 20.172v-40.344Zm77.336 5.412h-27.634v4.838H865.6v24.682h5.412v-24.682h11.07v-4.838Zm70.099 16.564v-3.526c0-11.644 5.248-20.09 19.024-20.09h8.364v-5.248h-8.364c-16.072 0-24.846 9.102-24.846 25.666v2.87c0 16.646 8.774 25.666 24.846 25.666h27.798v-5.248h-27.798c-13.776 0-19.024-8.282-19.024-20.09ZM1110.77 235l-22.64-54.202h-6.47L1058.2 235h6.48l20.09-48.216L1103.88 235h6.89Zm49.08-47.97v-6.642l-43.54 24.354v6.56l43.54 24.354v-6.806l-5.82-3.198v-35.424l5.82-3.198Zm-38.21 20.992 26.9-14.842v29.52l-26.9-14.678Zm73.05.492c0 4.756-.99 9.676-8.04 9.676-7.05 0-8.03-4.346-8.03-8.856v-16.236h-5.42v16.4c0 8.118 3.12 13.612 13.45 13.612 10.58 0 13.45-6.478 13.45-14.432v-2.87h-5.41v2.706Zm112.83-21.484v-6.642l-43.54 24.354v6.56l43.54 24.354v-6.806l-38.21-20.828 38.21-20.992Zm14.58 8.282c0 6.396 2.46 10.66 8.61 12.382-7.3 2.05-8.61 6.806-8.61 12.054 0 10.66 5.57 15.252 20.09 15.252h24.35v-54.202h-24.35c-14.68 0-20.09 4.018-20.09 14.514Zm20.09 9.676c-11.15 0-14.27-2.87-14.27-9.676 0-6.396 2.71-9.266 14.27-9.266h18.53v18.942h-18.53Zm0 24.764c-11.24 0-14.27-2.624-14.27-10.004 0-6.806 3.36-9.512 14.27-9.512h18.53v19.516h-18.53Zm44.27-23.616c0-12.3 6.31-20.09 18.2-20.09h18.29v-5.248h-18.29c-15.42 0-24.03 9.84-24.03 25.666v2.87c0 15.826 8.61 25.666 24.03 25.666h18.29v-5.248h-18.29c-11.89 0-18.2-7.79-18.2-20.09v-3.526ZM242.2 331h17.712c15.17 0 25.42-8.282 25.42-26.896v-7.544c0-18.614-10.25-27.47-25.42-27.47H242.2V331Zm17.712-56.498c11.398 0 19.27 6.642 19.27 21.484v8.692c0 15.58-8.036 20.91-19.27 20.91h-11.726v-51.086h11.726Zm37.181 12.628v26.814c0 11.48 4.756 18.122 15.744 18.122 6.396 0 11.07-3.034 13.94-7.544V331h5.74v-43.87h-5.74v26.24c0 7.954-5.986 13.284-12.956 13.284-6.642 0-11.07-3.28-11.07-12.71V287.13h-5.658ZM346.191 331h5.658v-20.992h7.462L373.661 331h6.642l-16.4-23.698 14.924-20.172h-6.478l-12.792 18.122h-7.708V269.09h-5.658V331Zm40.487-42.64h4.592l3.772-19.27h-5.74l-2.624 19.27Zm19.161-1.23v26.814c0 11.48 4.756 18.122 15.744 18.122 6.396 0 11.07-3.034 13.94-7.544V331h5.74v-43.87h-5.74v26.24c0 7.954-5.986 13.284-12.956 13.284-6.642 0-11.07-3.28-11.07-12.71V287.13h-5.658Zm48.77 32.964c0 7.954 2.296 11.972 9.676 11.972 1.886 0 3.936-.492 5.002-.984v-5.002c-.902.41-2.624.82-4.346.82-3.444 0-4.592-2.214-4.592-7.134V269.09h-5.74v51.004ZM477.519 331h5.658v-25.912c0-9.266 6.068-13.612 13.038-13.612 6.642 0 11.234 3.854 11.234 13.284V331h5.74v-26.814c0-11.48-4.674-18.04-15.662-18.04-6.478 0-11.398 2.952-14.35 7.708V269.09h-5.658V331Zm100.498 0v-27.634c0-8.118-1.23-17.22-16.81-17.22-6.97 0-11.398 1.64-14.842 4.428v5.74c4.346-3.854 9.184-5.084 14.186-5.084 10.66 0 11.726 6.396 11.726 12.464v2.624h-9.922c-7.052 0-18.204 1.312-18.204 13.284 0 7.872 4.92 12.464 13.858 12.464 6.478 0 11.398-2.214 14.268-6.806V331h5.74Zm-19.188-3.854c-5.576 0-8.938-2.624-8.938-7.872 0-6.724 5.248-8.036 12.218-8.036h10.168v5.822c-1.066 7.544-7.626 10.086-13.448 10.086Zm30.593 1.558c3.772 2.05 10.004 3.28 14.842 3.28 8.528 0 17.958-4.1 17.958-13.284 0-8.364-5.248-11.726-13.202-12.3l-4.92-.41c-5.002-.41-9.676-1.558-9.676-7.052 0-5.002 4.346-7.708 11.48-7.708 4.018 0 9.512 1.066 14.432 3.854v-5.74c-3.526-1.968-8.528-3.28-15.006-3.28-8.774 0-16.482 4.592-16.482 12.628 0 8.938 6.068 11.644 13.202 12.136l4.346.328c6.642.574 10.168 3.034 10.168 7.79 0 5.412-4.838 8.036-12.136 8.036-5.166 0-10.004-1.558-15.006-3.936v5.658ZM653.691 331h5.658v-26.486c0-8.118 5.33-13.038 12.464-13.038 6.396 0 10.988 4.018 10.988 13.284V331h5.74v-25.912c0-7.954 4.674-13.612 12.3-13.612 6.642 0 11.152 4.346 11.152 13.284V331h5.74v-26.814c0-11.152-4.674-18.04-15.58-18.04-7.38 0-12.3 3.608-14.924 9.02-2.05-5.822-6.56-9.02-14.104-9.02-6.396 0-10.988 2.706-13.776 7.134v-6.15h-5.658V331Zm77.189-53.382h6.15V269.5h-6.15v8.118Zm.246 53.382h5.658v-43.87h-5.658V331Zm34.711 1.066c6.56 0 11.152-3.608 14.022-8.364V331h5.74v-61.91h-5.74v24.764c-2.87-4.51-7.626-7.708-14.104-7.708-11.48 0-17.302 8.528-17.302 20.336v5.166c0 12.218 5.822 20.418 17.384 20.418Zm-11.644-20.008v-5.986c0-10.496 5.576-14.842 12.464-14.842 6.97 0 12.628 5.904 13.202 12.546v9.348c0 6.724-5.412 13.858-13.366 13.858-8.282 0-12.3-6.56-12.3-14.924Zm44.914-34.44h6.15V269.5h-6.15v8.118Zm.246 53.382h5.658v-43.87h-5.658V331Zm19.459 0h5.658v-25.912c0-9.266 6.068-13.612 13.038-13.612 6.642 0 11.234 3.854 11.234 13.284V331h5.74v-26.814c0-11.48-4.674-18.04-15.662-18.04-6.478 0-11.398 2.952-14.35 7.708v-6.724h-5.658V331Zm64.26 1.066c6.642 0 11.234-3.772 14.104-8.528v7.052c0 8.856-3.444 14.432-14.104 14.432-4.018 0-9.512-.82-14.514-3.034v5.412c4.1 1.64 9.184 2.788 14.432 2.788 13.366 0 19.844-7.708 19.844-19.27V287.13h-5.658v6.806c-2.87-4.592-7.708-7.79-14.268-7.79-11.398 0-17.22 8.528-17.22 20.336v5.166c0 12.218 5.822 20.418 17.384 20.418Zm-11.644-20.008v-5.986c0-10.496 5.576-14.842 12.382-14.842 7.052 0 12.71 5.904 13.366 12.546v9.348c0 6.724-5.658 13.858-13.448 13.858-8.282 0-12.3-6.56-12.3-14.924Zm65.489-24.928v26.814c0 11.48 4.756 18.122 15.744 18.122 6.396 0 11.07-3.034 13.94-7.544V331h5.74v-43.87h-5.74v26.24c0 7.954-5.986 13.284-12.956 13.284-6.642 0-11.07-3.28-11.07-12.71V287.13h-5.658Zm52.378 30.586c0 8.938 3.854 14.35 13.115 14.35 2.46 0 4.27-.328 5.58-.738v-5.084c-1.15.41-3.44.738-5.17.738-5.817 0-7.785-3.034-7.785-9.594V292.05h11.885v-4.92h-11.885V273.6h-5.74v13.53h-8.2v4.92h8.2v25.666ZM1037.67 331h5.65v-25.912c0-9.266 6.07-13.612 13.04-13.612 6.64 0 11.24 3.854 11.24 13.284V331h5.74v-26.814c0-11.48-4.68-18.04-15.67-18.04-6.47 0-11.39 2.952-14.35 7.708v-6.724h-5.65V331Zm79.75 0v-27.634c0-8.118-1.23-17.22-16.81-17.22-6.97 0-11.39 1.64-14.84 4.428v5.74c4.35-3.854 9.19-5.084 14.19-5.084 10.66 0 11.72 6.396 11.72 12.464v2.624h-9.92c-7.05 0-18.2 1.312-18.2 13.284 0 7.872 4.92 12.464 13.86 12.464 6.47 0 11.39-2.214 14.26-6.806V331h5.74Zm-19.18-3.854c-5.58 0-8.94-2.624-8.94-7.872 0-6.724 5.25-8.036 12.22-8.036h10.16v5.822c-1.06 7.544-7.62 10.086-13.44 10.086Zm53.3 3.854h5.65v-25.912c0-9.266 6.07-13.612 13.04-13.612 6.64 0 11.24 3.854 11.24 13.284V331h5.74v-26.814c0-11.48-4.68-18.04-15.67-18.04-6.47 0-11.39 2.952-14.35 7.708V269.09h-5.65V331Zm46.95-19.106c0 13.284 7.71 20.172 18.54 20.172 10.82 0 18.69-6.888 18.69-20.172v-5.576c0-13.284-7.87-20.172-18.69-20.172-10.83 0-18.54 6.888-18.54 20.172v5.576Zm5.66-5.986c0-9.594 5.09-14.76 12.88-14.76 7.79 0 12.95 5.166 12.95 14.76v6.396c0 9.348-4.92 14.678-12.95 14.678-7.88 0-12.88-5.248-12.88-14.678v-6.396Zm58.49 26.158c6.64 0 11.24-3.772 14.11-8.528v7.052c0 8.856-3.45 14.432-14.11 14.432-4.02 0-9.51-.82-14.51-3.034v5.412c4.1 1.64 9.18 2.788 14.43 2.788 13.37 0 19.84-7.708 19.84-19.27V287.13h-5.65v6.806c-2.87-4.592-7.71-7.79-14.27-7.79-11.4 0-17.22 8.528-17.22 20.336v5.166c0 12.218 5.82 20.418 17.38 20.418ZM1251 312.058v-5.986c0-10.496 5.57-14.842 12.38-14.842 7.05 0 12.71 5.904 13.37 12.546v9.348c0 6.724-5.66 13.858-13.45 13.858-8.28 0-12.3-6.56-12.3-14.924ZM1296.16 331h5.66v-25.912c0-9.266 6.06-13.612 13.03-13.612 6.65 0 11.24 3.854 11.24 13.284V331h5.74v-26.814c0-11.48-4.68-18.04-15.66-18.04-6.48 0-11.4 2.952-14.35 7.708V269.09h-5.66V331Zm79.76 0v-27.634c0-8.118-1.23-17.22-16.81-17.22-6.97 0-11.4 1.64-14.85 4.428v5.74c4.35-3.854 9.19-5.084 14.19-5.084 10.66 0 11.73 6.396 11.73 12.464v2.624h-9.93c-7.05 0-18.2 1.312-18.2 13.284 0 7.872 4.92 12.464 13.86 12.464 6.48 0 11.4-2.214 14.27-6.806V331h5.74Zm-19.19-3.854c-5.58 0-8.94-2.624-8.94-7.872 0-6.724 5.25-8.036 12.22-8.036h10.17v5.822c-1.07 7.544-7.63 10.086-13.45 10.086Zm32.23-7.052c0 7.954 2.3 11.972 9.68 11.972 1.88 0 3.93-.492 5-.984v-5.002c-.9.41-2.63.82-4.35.82-3.44 0-4.59-2.214-4.59-7.134V269.09h-5.74v51.004ZM1411.87 331h5.66v-25.912c0-9.266 6.07-13.612 13.04-13.612 6.64 0 11.23 3.854 11.23 13.284V331h5.74v-26.814c0-11.48-4.67-18.04-15.66-18.04-6.48 0-11.4 2.952-14.35 7.708V269.09h-5.66V331Zm69.75 0h5.66v-25.912c0-9.266 6.06-13.612 13.03-13.612 6.65 0 11.24 3.854 11.24 13.284V331h5.74v-26.814c0-11.48-4.68-18.04-15.66-18.04-6.48 0-11.4 2.952-14.35 7.708V269.09h-5.66V331Zm79.76 0v-27.634c0-8.118-1.23-17.22-16.81-17.22-6.97 0-11.4 1.64-14.85 4.428v5.74c4.35-3.854 9.19-5.084 14.19-5.084 10.66 0 11.73 6.396 11.73 12.464v2.624h-9.93c-7.05 0-18.2 1.312-18.2 13.284 0 7.872 4.92 12.464 13.86 12.464 6.48 0 11.4-2.214 14.27-6.806V331h5.74Zm-19.19-3.854c-5.58 0-8.94-2.624-8.94-7.872 0-6.724 5.25-8.036 12.22-8.036h10.17v5.822c-1.07 7.544-7.63 10.086-13.45 10.086Zm32.56 3.854h5.66v-20.992h7.46L1602.22 331h6.64l-16.4-23.698 14.93-20.172h-6.48l-12.79 18.122h-7.71V269.09h-5.66V331Zm72.07 0v-27.634c0-8.118-1.23-17.22-16.81-17.22-6.97 0-11.4 1.64-14.84 4.428v5.74c4.34-3.854 9.18-5.084 14.18-5.084 10.66 0 11.73 6.396 11.73 12.464v2.624h-9.92c-7.05 0-18.21 1.312-18.21 13.284 0 7.872 4.92 12.464 13.86 12.464 6.48 0 11.4-2.214 14.27-6.806V331h5.74Zm-19.19-3.854c-5.57 0-8.94-2.624-8.94-7.872 0-6.724 5.25-8.036 12.22-8.036h10.17v5.822c-1.07 7.544-7.63 10.086-13.45 10.086Zm47.81 4.92c6.56 0 11.16-3.608 14.03-8.364V331h5.74v-61.91h-5.74v24.764c-2.87-4.51-7.63-7.708-14.11-7.708-11.48 0-17.3 8.528-17.3 20.336v5.166c0 12.218 5.82 20.418 17.38 20.418Zm-11.64-20.008v-5.986c0-10.496 5.58-14.842 12.46-14.842 6.97 0 12.63 5.904 13.21 12.546v9.348c0 6.724-5.42 13.858-13.37 13.858-8.28 0-12.3-6.56-12.3-14.924ZM1739.71 331v-27.634c0-8.118-1.23-17.22-16.81-17.22-6.97 0-11.4 1.64-14.84 4.428v5.74c4.34-3.854 9.18-5.084 14.18-5.084 10.66 0 11.73 6.396 11.73 12.464v2.624h-9.92c-7.05 0-18.21 1.312-18.21 13.284 0 7.872 4.92 12.464 13.86 12.464 6.48 0 11.4-2.214 14.27-6.806V331h5.74Zm-19.19-3.854c-5.57 0-8.94-2.624-8.94-7.872 0-6.724 5.25-8.036 12.22-8.036h10.17v5.822c-1.07 7.544-7.63 10.086-13.45 10.086ZM275.492 494.136v3.526c0 12.3-6.314 20.09-18.204 20.09h-18.286V523h18.286c15.416 0 24.026-9.84 24.026-25.666v-2.87c0-15.826-8.61-25.666-24.026-25.666h-18.286v5.248h18.286c11.89 0 18.204 7.79 18.204 20.09Zm-23.124 1.968a3.5 3.5 0 0 0 3.526 3.526c1.886 0 3.526-1.558 3.526-3.526 0-1.968-1.64-3.608-3.526-3.608-1.968 0-3.526 1.64-3.526 3.608Zm99.32-27.306V523h5.412l42.804-23.862v-6.56l-42.804-23.78h-5.412Zm5.822 6.888 36.982 20.172-36.982 20.172v-40.344Zm8.528 20.336c0 1.968 1.476 3.444 3.444 3.444s3.608-1.476 3.608-3.444-1.64-3.608-3.608-3.608c-1.968 0-3.444 1.64-3.444 3.608Zm61.674-1.312v2.214c0 6.806-3.772 8.774-9.02 8.774h-9.594v4.92h9.758c8.692 0 14.268-3.772 14.268-13.694v-2.214c0-9.84-5.576-13.612-14.268-13.612h-9.758v4.92h9.594c5.248 0 9.02 2.05 9.02 8.692Zm35.244-26.978c-13.612 0-17.794 9.512-17.794 24.6v5.494c0 16.564 7.79 26.24 23.288 26.24 11.808 0 18.778-6.478 22.304-13.448V523h5.822v-54.202h-5.822v27.552c0 8.528-6.806 22.55-21.976 22.55-12.136 0-17.794-7.298-17.794-20.5v-6.56c0-10.988 2.378-18.86 11.972-18.86 7.708 0 11.726 4.182 11.726 12.382 0 8.61-3.772 11.316-8.364 11.316-2.296 0-3.772-.738-3.772-.738v5.002s1.23.738 4.264.738c9.43 0 13.776-6.888 13.776-16.318 0-11.48-6.724-17.63-17.63-17.63Zm65.093 26.978v2.214c0 6.806-3.772 8.774-9.02 8.774h-9.594v4.92h9.758c8.692 0 14.268-3.772 14.268-13.694v-2.214c0-9.84-5.576-13.612-14.268-13.612h-9.758v4.92h9.594c5.248 0 9.02 2.05 9.02 8.692Zm89.448 0v2.214c0 6.806-3.772 8.774-9.02 8.774h-9.594v4.92h9.758c8.692 0 14.268-3.772 14.268-13.694v-2.214c0-9.84-5.576-13.612-14.268-13.612h-9.758v4.92h9.594c5.248 0 9.02 2.05 9.02 8.692Zm35.244-26.978c-13.612 0-17.794 9.512-17.794 24.6v5.494c0 16.564 7.79 26.24 23.288 26.24 11.808 0 18.778-6.478 22.304-13.448V523h5.822v-54.202h-5.822v27.552c0 8.528-6.806 22.55-21.976 22.55-12.136 0-17.794-7.298-17.794-20.5v-6.56c0-10.988 2.378-18.86 11.972-18.86 7.708 0 11.726 4.182 11.726 12.382 0 8.61-3.772 11.316-8.364 11.316-2.296 0-3.772-.738-3.772-.738v5.002s1.23.738 4.264.738c9.43 0 13.776-6.888 13.776-16.318 0-11.48-6.724-17.63-17.63-17.63Zm65.094 26.978v2.214c0 6.806-3.772 8.774-9.02 8.774h-9.594v4.92h9.758c8.692 0 14.268-3.772 14.268-13.694v-2.214c0-9.84-5.576-13.612-14.268-13.612h-9.758v4.92h9.594c5.248 0 9.02 2.05 9.02 8.692ZM837.54 523l-22.632-54.202h-6.478L784.978 523h6.478l20.09-48.216L830.652 523h6.888Zm17.598-41.902-13.776 29.52h6.15l13.694-29.52h-6.068Zm17.056 0-13.776 29.52h6.15l13.694-29.52h-6.068Zm24.184 13.038c0-12.3 6.314-20.09 18.204-20.09h18.286v-5.248h-18.286c-15.416 0-24.026 9.84-24.026 25.666v2.87c0 15.826 8.61 25.666 24.026 25.666h18.286v-5.248h-18.286c-11.89 0-18.204-7.79-18.204-20.09v-3.526Zm152.862-12.628c0-4.674 1.56-7.544 5.17-7.544.41 0 .82 0 1.23.082v-5.248c-.66-.082-1.31-.164-2.05-.164-7.22 0-10.17 5.248-10.17 12.874 0 9.512 6.56 18.532 6.56 27.716 0 5.822-2.54 9.594-8.53 9.594-7.79 0-10.66-7.298-10.66-16.81v-33.21h-5.82v33.21c0 9.512-2.87 16.81-10.66 16.81-5.9 0-8.53-3.772-8.53-9.594 0-9.184 6.56-18.204 6.56-27.716 0-7.708-3.36-12.792-10.49-12.792-.49 0-1.15 0-1.72.082v5.248c.49-.082.9-.082 1.31-.082 3.69 0 5.08 2.624 5.08 7.544 0 9.348-6.558 16.892-6.558 27.798 0 11.152 6.478 14.678 13.938 14.678 7.63 0 12.06-4.756 14.02-11.398 1.89 6.642 6.32 11.48 13.94 11.48 7.47-.082 13.94-3.608 13.94-14.76 0-10.906-6.56-18.45-6.56-27.798Zm79.4 24.108V498.4h9.11l-5.58 12.71c-6.07.328-8.94 3.69-8.94 8.528 0 1.64.33 2.706.49 3.362h5.25c0-.492-.24-1.394-.24-2.214 0-2.296.98-4.51 4.75-4.51 8.2 0 13.78 7.79 24.19 7.79 10.91 0 15.83-6.478 15.83-14.268 0-7.462-3.12-12.218-10.99-14.022 7.87-1.886 10.99-6.724 10.99-13.94 0-7.708-4.92-14.104-15.83-14.104-10.41 0-15.99 7.79-24.19 7.79-3.77 0-4.75-2.214-4.75-4.51 0-.82.24-1.722.24-2.214h-5.25c-.16.656-.49 1.722-.49 3.362 0 4.838 2.79 8.2 8.86 8.528l5.33 12.464h-8.78v-7.216h-5.08v19.68h5.08Zm29.03-32.636c6.4 0 9.92 3.28 9.92 9.102 0 7.626-4.67 11.07-15.58 11.07h-9.18l-5.41-12.956c6.97-1.722 12.79-7.216 20.25-7.216Zm-5.66 25.42c10.91 0 15.58 3.28 15.58 11.152 0 5.822-3.52 9.266-9.92 9.266-7.3 0-13.12-5.494-20.17-7.298l5.66-13.12h8.85Zm74.23-23.37v-6.642l-43.54 24.354v6.56l43.54 24.354v-6.806l-38.21-20.828 38.21-20.992Zm31.96 19.68v2.214c0 6.806-3.77 8.774-9.02 8.774h-9.59v4.92h9.76c8.69 0 14.26-3.772 14.26-13.694v-2.214c0-9.84-5.57-13.612-14.26-13.612h-9.76v4.92h9.59c5.25 0 9.02 2.05 9.02 8.692Zm23.27-.574c0-12.3 6.32-20.09 18.21-20.09h18.28v-5.248h-18.28c-15.42 0-24.03 9.84-24.03 25.666v2.87c0 15.826 8.61 25.666 24.03 25.666h18.28v-5.248h-18.28c-11.89 0-18.21-7.79-18.21-20.09v-3.526ZM242.2 619h17.712c15.17 0 25.42-8.282 25.42-26.896v-7.544c0-18.614-10.25-27.47-25.42-27.47H242.2V619Zm17.712-56.498c11.398 0 19.27 6.642 19.27 21.484v8.692c0 15.58-8.036 20.91-19.27 20.91h-11.726v-51.086h11.726Zm37.345 3.116h6.15V557.5h-6.15v8.118Zm.246 53.382h5.658v-43.87h-5.658V619Zm39.953-53.382h6.15V557.5h-6.15v8.118Zm.246 53.382h5.658v-43.87h-5.658V619Zm19.459 0h5.658v-25.912c0-9.266 6.068-13.612 13.038-13.612 6.642 0 11.234 3.854 11.234 13.284V619h5.74v-26.814c0-11.48-4.674-18.04-15.662-18.04-6.478 0-11.398 2.952-14.35 7.708v-6.724h-5.658V619Zm49.418-53.382h6.15V557.5h-6.15v8.118Zm5.986 9.512h-5.74v47.642c0 6.97-2.378 10.25-7.872 10.25-1.64 0-3.116-.328-4.018-.738v5.33c.984.328 2.132.574 4.018.574 9.266 0 13.612-5.412 13.612-15.088v-47.97ZM457.019 619v-27.634c0-8.118-1.23-17.22-16.81-17.22-6.97 0-11.398 1.64-14.842 4.428v5.74c4.346-3.854 9.184-5.084 14.186-5.084 10.66 0 11.726 6.396 11.726 12.464v2.624h-9.922c-7.052 0-18.204 1.312-18.204 13.284 0 7.872 4.92 12.464 13.858 12.464 6.478 0 11.398-2.214 14.268-6.806V619h5.74Zm-19.188-3.854c-5.576 0-8.938-2.624-8.938-7.872 0-6.724 5.248-8.036 12.218-8.036h10.168v5.822c-1.066 7.544-7.626 10.086-13.448 10.086ZM470.392 619h5.658v-25.912c0-9.266 6.068-13.612 13.038-13.612 6.642 0 11.234 3.854 11.234 13.284V619h5.74v-26.814c0-11.48-4.674-18.04-15.662-18.04-6.478 0-11.398 2.952-14.35 7.708v-6.724h-5.658V619Zm69.748 0h5.658v-25.912c0-9.266 6.068-13.612 13.038-13.612 6.642 0 11.234 3.854 11.234 13.284V619h5.74v-26.814c0-11.48-4.674-18.04-15.662-18.04-6.478 0-11.398 2.952-14.35 7.708v-6.724h-5.658V619Zm49.418-53.382h6.15V557.5h-6.15v8.118Zm5.986 9.512h-5.74v47.642c0 6.97-2.378 10.25-7.872 10.25-1.64 0-3.116-.328-4.018-.738v5.33c.984.328 2.132.574 4.018.574 9.266 0 13.612-5.412 13.612-15.088v-47.97ZM639.997 619v-27.634c0-8.118-1.23-17.22-16.81-17.22-6.97 0-11.398 1.64-14.842 4.428v5.74c4.346-3.854 9.184-5.084 14.186-5.084 10.66 0 11.726 6.396 11.726 12.464v2.624h-9.922c-7.052 0-18.204 1.312-18.204 13.284 0 7.872 4.92 12.464 13.858 12.464 6.478 0 11.398-2.214 14.268-6.806V619h5.74Zm-19.188-3.854c-5.576 0-8.938-2.624-8.938-7.872 0-6.724 5.248-8.036 12.218-8.036h10.168v5.822c-1.066 7.544-7.626 10.086-13.448 10.086ZM653.37 619h5.658v-25.912c0-9.266 6.068-13.612 13.038-13.612 6.642 0 11.234 3.854 11.234 13.284V619h5.74v-26.814c0-11.48-4.674-18.04-15.662-18.04-6.478 0-11.398 2.952-14.35 7.708v-6.724h-5.658V619Zm69.748 0h5.658v-25.912c0-9.266 6.068-13.612 13.038-13.612 6.642 0 11.234 3.854 11.234 13.284V619h5.74v-26.814c0-11.48-4.674-18.04-15.662-18.04-6.478 0-11.398 2.952-14.35 7.708V557.09h-5.658V619Zm46.958-19.106c0 13.284 7.708 20.172 18.532 20.172s18.696-6.888 18.696-20.172v-5.576c0-13.284-7.872-20.172-18.696-20.172-10.824 0-18.532 6.888-18.532 20.172v5.576Zm5.658-5.986c0-9.594 5.084-14.76 12.874-14.76 7.79 0 12.956 5.166 12.956 14.76v6.396c0 9.348-4.92 14.678-12.956 14.678-7.872 0-12.874-5.248-12.874-14.678v-6.396ZM818.972 619h5.658v-20.992h7.462L846.442 619h6.642l-16.4-23.698 14.924-20.172h-6.478l-12.792 18.122h-7.708V557.09h-5.658V619Zm41.881 0h5.658v-25.912c0-9.266 6.068-13.612 13.038-13.612 6.642 0 11.234 3.854 11.234 13.284V619h5.74v-26.814c0-11.48-4.674-18.04-15.662-18.04-6.478 0-11.398 2.952-14.35 7.708V557.09h-5.658V619Zm64.26 1.066c6.56 0 11.152-3.608 14.022-8.364V619h5.74v-61.91h-5.74v24.764c-2.87-4.51-7.626-7.708-14.104-7.708-11.48 0-17.302 8.528-17.302 20.336v5.166c0 12.218 5.822 20.418 17.384 20.418Zm-11.644-20.008v-5.986c0-10.496 5.576-14.842 12.464-14.842 6.97 0 12.628 5.904 13.202 12.546v9.348c0 6.724-5.412 13.858-13.366 13.858-8.282 0-12.3-6.56-12.3-14.924ZM989.378 619v-27.634c0-8.118-1.23-17.22-16.81-17.22-6.97 0-11.398 1.64-14.842 4.428v5.74c4.346-3.854 9.184-5.084 14.186-5.084 10.66 0 11.726 6.396 11.726 12.464v2.624h-9.922c-7.052 0-18.204 1.312-18.204 13.284 0 7.872 4.92 12.464 13.858 12.464 6.478 0 11.398-2.214 14.268-6.806V619h5.74Zm-19.188-3.854c-5.576 0-8.938-2.624-8.938-7.872 0-6.724 5.248-8.036 12.218-8.036h10.168v5.822c-1.066 7.544-7.626 10.086-13.448 10.086Zm51.33 1.558c3.78 2.05 10.01 3.28 14.85 3.28 8.52 0 17.95-4.1 17.95-13.284 0-8.364-5.24-11.726-13.2-12.3l-4.92-.41c-5-.41-9.67-1.558-9.67-7.052 0-5.002 4.34-7.708 11.48-7.708 4.01 0 9.51 1.066 14.43 3.854v-5.74c-3.53-1.968-8.53-3.28-15.01-3.28-8.77 0-16.48 4.592-16.48 12.628 0 8.938 6.07 11.644 13.2 12.136l4.35.328c6.64.574 10.17 3.034 10.17 7.79 0 5.412-4.84 8.036-12.14 8.036-5.17 0-10-1.558-15.01-3.936v5.658Zm41.48-16.81c0 13.284 7.71 20.172 18.53 20.172 10.83 0 18.7-6.888 18.7-20.172v-5.576c0-13.284-7.87-20.172-18.7-20.172-10.82 0-18.53 6.888-18.53 20.172v5.576Zm5.66-5.986c0-9.594 5.08-14.76 12.87-14.76 7.79 0 12.96 5.166 12.96 14.76v6.396c0 9.348-4.92 14.678-12.96 14.678-7.87 0-12.87-5.248-12.87-14.678v-6.396Zm41.19 5.986c0 13.284 7.71 20.172 18.53 20.172s18.7-6.888 18.7-20.172v-5.576c0-13.284-7.88-20.172-18.7-20.172s-18.53 6.888-18.53 20.172v5.576Zm5.66-5.986c0-9.594 5.08-14.76 12.87-14.76 7.79 0 12.96 5.166 12.96 14.76v6.396c0 9.348-4.92 14.678-12.96 14.678-7.87 0-12.87-5.248-12.87-14.678v-6.396Zm66.69 11.808c0 8.938 3.86 14.35 13.12 14.35 2.46 0 4.27-.328 5.58-.738v-5.084c-1.15.41-3.44.738-5.17.738-5.82 0-7.79-3.034-7.79-9.594V580.05h11.89v-4.92h-11.89V561.6h-5.74v13.53h-8.2v4.92h8.2v25.666Zm25.67 10.988c3.77 2.05 10 3.28 14.84 3.28 8.53 0 17.96-4.1 17.96-13.284 0-8.364-5.25-11.726-13.21-12.3l-4.92-.41c-5-.41-9.67-1.558-9.67-7.052 0-5.002 4.34-7.708 11.48-7.708 4.02 0 9.51 1.066 14.43 3.854v-5.74c-3.53-1.968-8.53-3.28-15.01-3.28-8.77 0-16.48 4.592-16.48 12.628 0 8.938 6.07 11.644 13.2 12.136l4.35.328c6.64.574 10.17 3.034 10.17 7.79 0 5.412-4.84 8.036-12.14 8.036-5.16 0-10-1.558-15-3.936v5.658ZM1250 576.36h4.59l3.77-19.27h-5.74l-2.62 19.27Zm19.16-1.23v26.814c0 11.48 4.76 18.122 15.75 18.122 6.39 0 11.07-3.034 13.94-7.544V619h5.74v-43.87h-5.74v26.24c0 7.954-5.99 13.284-12.96 13.284-6.64 0-11.07-3.28-11.07-12.71V575.13h-5.66Zm47.13 41.574c3.77 2.05 10.01 3.28 14.84 3.28 8.53 0 17.96-4.1 17.96-13.284 0-8.364-5.25-11.726-13.2-12.3l-4.92-.41c-5-.41-9.68-1.558-9.68-7.052 0-5.002 4.35-7.708 11.48-7.708 4.02 0 9.52 1.066 14.44 3.854v-5.74c-3.53-1.968-8.53-3.28-15.01-3.28-8.77 0-16.48 4.592-16.48 12.628 0 8.938 6.07 11.644 13.2 12.136l4.35.328c6.64.574 10.16 3.034 10.16 7.79 0 5.412-4.83 8.036-12.13 8.036-5.17 0-10.01-1.558-15.01-3.936v5.658Zm43.53 2.296h5.66v-25.912c0-9.266 6.07-13.612 13.04-13.612 6.64 0 11.23 3.854 11.23 13.284V619h5.74v-26.814c0-11.48-4.67-18.04-15.66-18.04-6.48 0-11.4 2.952-14.35 7.708V557.09h-5.66V619Zm79.76 0v-27.634c0-8.118-1.23-17.22-16.81-17.22-6.97 0-11.4 1.64-14.84 4.428v5.74c4.34-3.854 9.18-5.084 14.18-5.084 10.66 0 11.73 6.396 11.73 12.464v2.624h-9.92c-7.06 0-18.21 1.312-18.21 13.284 0 7.872 4.92 12.464 13.86 12.464 6.48 0 11.4-2.214 14.27-6.806V619h5.74Zm-19.19-3.854c-5.58 0-8.94-2.624-8.94-7.872 0-6.724 5.25-8.036 12.22-8.036h10.17v5.822c-1.07 7.544-7.63 10.086-13.45 10.086Zm32.56 3.854h5.66v-25.912c0-9.266 6.07-13.612 13.04-13.612 6.64 0 11.23 3.854 11.23 13.284V619h5.74v-26.814c0-11.48-4.67-18.04-15.66-18.04-6.48 0-11.4 2.952-14.35 7.708v-6.724h-5.66V619Zm64.26 1.066c6.56 0 11.15-3.608 14.02-8.364V619h5.74v-61.91h-5.74v24.764c-2.87-4.51-7.62-7.708-14.1-7.708-11.48 0-17.3 8.528-17.3 20.336v5.166c0 12.218 5.82 20.418 17.38 20.418Zm-11.64-20.008v-5.986c0-10.496 5.57-14.842 12.46-14.842 6.97 0 12.63 5.904 13.2 12.546v9.348c0 6.724-5.41 13.858-13.36 13.858-8.29 0-12.3-6.56-12.3-14.924ZM1581.48 619v-27.634c0-8.118-1.23-17.22-16.81-17.22-6.97 0-11.4 1.64-14.85 4.428v5.74c4.35-3.854 9.19-5.084 14.19-5.084 10.66 0 11.73 6.396 11.73 12.464v2.624h-9.93c-7.05 0-18.2 1.312-18.2 13.284 0 7.872 4.92 12.464 13.86 12.464 6.48 0 11.4-2.214 14.27-6.806V619h5.74Zm-19.19-3.854c-5.58 0-8.94-2.624-8.94-7.872 0-6.724 5.25-8.036 12.22-8.036h10.17v5.822c-1.07 7.544-7.63 10.086-13.45 10.086ZM275.492 782.136v3.526c0 12.3-6.314 20.09-18.204 20.09h-18.286V811h18.286c15.416 0 24.026-9.84 24.026-25.666v-2.87c0-15.826-8.61-25.666-24.026-25.666h-18.286v5.248h18.286c11.89 0 18.204 7.79 18.204 20.09Zm18.221 14.432c1.968 1.394 6.232 2.706 10.824 2.706 7.462 0 12.546-2.788 12.546-9.43 0-5.576-3.444-7.38-9.84-8.118l-2.624-.328c-2.788-.492-5.986-1.066-5.986-4.264 0-2.624 1.886-4.1 6.314-4.1 3.69 0 7.544 1.066 10.988 3.116v-5.084c-2.706-1.722-6.888-2.706-10.824-2.706-7.052 0-11.726 2.788-11.726 8.856 0 6.314 4.592 7.872 9.676 8.528l2.624.328c3.936.492 6.15 1.476 6.15 4.264 0 2.87-2.296 4.264-7.052 4.264-4.838 0-7.954-1.312-11.07-3.116v5.084Zm74.128-14.432v3.526c0 11.644-5.248 20.09-19.024 20.09h-8.364V811h8.364c16.072 0 24.846-9.102 24.846-25.666v-2.87c0-16.646-8.774-25.666-24.846-25.666h-27.798v5.248h27.798c13.776 0 19.024 8.282 19.024 20.09Zm-29.192 1.722a3.5 3.5 0 0 0 3.526 3.526 3.5 3.5 0 0 0 3.526-3.526 3.5 3.5 0 0 0-3.526-3.526 3.5 3.5 0 0 0-3.526 3.526Zm68.55.656c0 4.756-.984 9.676-8.036 9.676s-8.036-4.346-8.036-8.856v-16.236h-5.412v16.4c0 8.118 3.116 13.612 13.448 13.612 10.578 0 13.448-6.478 13.448-14.432v-2.87h-5.412v2.706Zm119.718-27.716h-6.888l-19.106 48.216-20.09-48.216h-6.478L497.807 811h6.478l22.632-54.202Zm25.716 25.912v2.214c0 6.806-3.772 8.774-9.02 8.774h-9.594v4.92h9.758c8.692 0 14.268-3.772 14.268-13.694v-2.214c0-9.84-5.576-13.612-14.268-13.612h-9.758v4.92h9.594c5.248 0 9.02 2.05 9.02 8.692Zm21.55 10.906V786.4h9.348l-5.576 12.628c-6.232.328-9.184 3.69-9.184 8.61 0 1.64.328 2.706.492 3.362h5.248c0-.492-.246-1.394-.246-2.214 0-2.296.984-4.51 4.756-4.51 8.2 0 13.776 7.79 24.19 7.79 10.906 0 15.826-6.478 15.826-14.268 0-7.462-3.116-12.218-10.988-14.022 7.872-1.886 10.988-6.724 10.988-13.94 0-7.708-4.92-14.104-15.826-14.104-10.414 0-15.99 7.79-24.19 7.79-3.772 0-4.756-2.214-4.756-4.51 0-.82.246-1.722.246-2.214h-5.248c-.164.656-.492 1.722-.492 3.362 0 4.92 2.87 8.282 9.184 8.61l5.248 12.382h-9.02v-7.216h-5.084v19.68h5.084Zm21.894-21.074v8.61h-7.462l-5.412-12.956c6.888-1.804 12.628-7.216 20.008-7.216 6.396 0 9.922 3.28 9.922 9.102 0 6.724-3.69 10.25-11.89 10.988v-8.528h-5.166Zm0 22.796h5.166v-8.774c8.2.656 11.89 4.1 11.89 10.988 0 5.822-3.526 9.266-9.922 9.266-7.216 0-12.956-5.412-20.008-7.216l5.74-13.202h7.134v8.938Zm45.36 9.348h3.854v-6.068h.41c6.888 0 11.152-2.214 11.152-9.102 0-6.478-3.444-7.708-9.348-7.954l-2.214-.082v-7.544h9.758v-4.838h-9.758v-5.986h-3.854v5.986h-.738c-6.396 0-10.906 2.05-10.906 8.61 0 6.724 4.1 7.954 10.168 8.2l1.476.082v7.79h-10.906v4.838h10.906v6.068Zm-1.312-23.452c-3.198-.082-4.92-.574-4.92-3.69 0-3.034 1.722-3.608 5.412-3.608h.82v7.38l-1.312-.082Zm6.15 4.92c2.952.164 5.166.492 5.166 3.608s-1.722 4.018-5.658 4.018h-.492v-7.626h.984Zm117.992-23.124v-6.642l-43.542 24.354v6.56l43.542 24.354v-6.806l-38.212-20.828 38.212-20.992Zm116.835-6.232h-6.888l-19.106 48.216-20.09-48.216h-6.478L851.992 811h6.478l22.632-54.202Zm49.087 6.232v-6.642l-43.542 24.354v6.478l43.542 24.436v-6.806l-35.178-18.532h36.08v-4.674h-35.916l35.014-18.614ZM242.2 907h17.712c15.17 0 25.42-8.282 25.42-26.896v-7.544c0-18.614-10.25-27.47-25.42-27.47H242.2V907Zm17.712-56.498c11.398 0 19.27 6.642 19.27 21.484v8.692c0 15.58-8.036 20.91-19.27 20.91h-11.726v-51.086h11.726Zm37.181 12.628v26.814c0 11.48 4.756 18.122 15.744 18.122 6.396 0 11.07-3.034 13.94-7.544V907h5.74v-43.87h-5.74v26.24c0 7.954-5.986 13.284-12.956 13.284-6.642 0-11.07-3.28-11.07-12.71V863.13h-5.658Zm47.13 41.574c3.772 2.05 10.004 3.28 14.842 3.28 8.528 0 17.958-4.1 17.958-13.284 0-8.364-5.248-11.726-13.202-12.3l-4.92-.41c-5.002-.41-9.676-1.558-9.676-7.052 0-5.002 4.346-7.708 11.48-7.708 4.018 0 9.512 1.066 14.432 3.854v-5.74c-3.526-1.968-8.528-3.28-15.006-3.28-8.774 0-16.482 4.592-16.482 12.628 0 8.938 6.068 11.644 13.202 12.136l4.346.328c6.642.574 10.168 3.034 10.168 7.79 0 5.412-4.838 8.036-12.136 8.036-5.166 0-10.004-1.558-15.006-3.936v5.658ZM387.751 907h5.658v-25.912c0-9.266 6.068-13.612 13.038-13.612 6.642 0 11.234 3.854 11.234 13.284V907h5.74v-26.814c0-11.48-4.674-18.04-15.662-18.04-6.478 0-11.398 2.952-14.35 7.708v-6.724h-5.658V907Zm48.762-53.382h6.15V845.5h-6.15v8.118Zm.246 53.382h5.658v-43.87h-5.658V907Zm19.131-10.906c0 7.954 2.296 11.972 9.676 11.972 1.886 0 3.936-.492 5.002-.984v-5.002c-.902.41-2.624.82-4.346.82-3.444 0-4.592-2.214-4.592-7.134V845.09h-5.74v51.004ZM478.8 907h5.658v-25.912c0-9.266 6.068-13.612 13.038-13.612 6.642 0 11.234 3.854 11.234 13.284V907h5.74v-26.814c0-11.48-4.674-18.04-15.662-18.04-6.478 0-11.398 2.952-14.35 7.708V845.09H478.8V907Zm69.748 0h5.658v-25.912c0-9.266 6.068-13.612 13.038-13.612 6.642 0 11.234 3.854 11.234 13.284V907h5.74v-26.814c0-11.48-4.674-18.04-15.662-18.04-6.478 0-11.398 2.952-14.35 7.708V845.09h-5.658V907Zm46.958-19.106c0 13.284 7.708 20.172 18.532 20.172s18.696-6.888 18.696-20.172v-5.576c0-13.284-7.872-20.172-18.696-20.172-10.824 0-18.532 6.888-18.532 20.172v5.576Zm5.658-5.986c0-9.594 5.084-14.76 12.874-14.76 7.79 0 12.956 5.166 12.956 14.76v6.396c0 9.348-4.92 14.678-12.956 14.678-7.872 0-12.874-5.248-12.874-14.678v-6.396Zm41.188 5.986c0 13.284 7.708 20.172 18.532 20.172s18.696-6.888 18.696-20.172v-5.576c0-13.284-7.872-20.172-18.696-20.172-10.824 0-18.532 6.888-18.532 20.172v5.576Zm5.658-5.986c0-9.594 5.084-14.76 12.874-14.76 7.79 0 12.956 5.166 12.956 14.76v6.396c0 9.348-4.92 14.678-12.956 14.678-7.872 0-12.874-5.248-12.874-14.678v-6.396ZM691.247 907h5.658v-25.912c0-9.266 6.068-13.612 13.038-13.612 6.642 0 11.234 3.854 11.234 13.284V907h5.74v-26.814c0-11.48-4.674-18.04-15.662-18.04-6.478 0-11.398 2.952-14.35 7.708v-6.724h-5.658V907Zm72.468-13.284c0 8.938 3.854 14.35 13.12 14.35 2.46 0 4.264-.328 5.576-.738v-5.084c-1.148.41-3.444.738-5.166.738-5.822 0-7.79-3.034-7.79-9.594V868.05h11.89v-4.92h-11.89V849.6h-5.74v13.53h-8.2v4.92h8.2v25.666Zm25.662 10.988c3.772 2.05 10.004 3.28 14.842 3.28 8.528 0 17.958-4.1 17.958-13.284 0-8.364-5.248-11.726-13.202-12.3l-4.92-.41c-5.002-.41-9.676-1.558-9.676-7.052 0-5.002 4.346-7.708 11.48-7.708 4.018 0 9.512 1.066 14.432 3.854v-5.74c-3.526-1.968-8.528-3.28-15.006-3.28-8.774 0-16.482 4.592-16.482 12.628 0 8.938 6.068 11.644 13.202 12.136l4.346.328c6.642.574 10.168 3.034 10.168 7.79 0 5.412-4.838 8.036-12.136 8.036-5.166 0-10.004-1.558-15.006-3.936v5.658Zm42.135-40.344h4.592l3.772-19.27h-5.74l-2.624 19.27Zm32.196-2.214c-10.988 0-17.958 7.79-17.958 20.254v5.412c0 12.792 7.216 20.254 19.434 20.254 5.986 0 10.578-.82 15.416-3.772v-5.166c-5.494 3.444-9.922 3.854-14.842 3.854-9.758 0-14.35-6.314-14.35-14.76v-.656h30.176v-5.986c0-13.12-7.052-19.434-17.876-19.434Zm-12.3 19.844c0-10.578 5.33-14.76 12.382-14.76 8.282 0 12.054 4.92 12.054 14.104v1.312h-24.436v-.656Zm39.668 22.714c3.772 2.05 10.004 3.28 14.842 3.28 8.528 0 17.958-4.1 17.958-13.284 0-8.364-5.248-11.726-13.202-12.3l-4.92-.41c-5.002-.41-9.676-1.558-9.676-7.052 0-5.002 4.346-7.708 11.48-7.708 4.018 0 9.512 1.066 14.432 3.854v-5.74c-3.526-1.968-8.528-3.28-15.006-3.28-8.774 0-16.482 4.592-16.482 12.628 0 8.938 6.068 11.644 13.202 12.136l4.346.328c6.642.574 10.168 3.034 10.168 7.79 0 5.412-4.838 8.036-12.136 8.036-5.166 0-10.004-1.558-15.006-3.936v5.658ZM934.605 907h5.658v-25.912c0-9.266 6.068-13.612 13.038-13.612 6.642 0 11.234 3.854 11.234 13.284V907h5.74v-26.814c0-11.48-4.674-18.04-15.662-18.04-6.478 0-11.398 2.952-14.35 7.708V845.09h-5.658V907Zm69.745 0h5.66v-25.912c0-9.266 6.07-13.612 13.04-13.612 6.64 0 11.23 3.854 11.23 13.284V907h5.74v-26.814c0-11.48-4.67-18.04-15.66-18.04-6.48 0-11.4 2.952-14.35 7.708V845.09h-5.66V907Zm79.76 0v-27.634c0-8.118-1.23-17.22-16.81-17.22-6.97 0-11.4 1.64-14.84 4.428v5.74c4.34-3.854 9.18-5.084 14.18-5.084 10.66 0 11.73 6.396 11.73 12.464v2.624h-9.92c-7.05 0-18.21 1.312-18.21 13.284 0 7.872 4.92 12.464 13.86 12.464 6.48 0 11.4-2.214 14.27-6.806V907h5.74Zm-19.19-3.854c-5.57 0-8.94-2.624-8.94-7.872 0-6.724 5.25-8.036 12.22-8.036h10.17v5.822c-1.07 7.544-7.63 10.086-13.45 10.086Zm32.56 3.854h5.66v-25.912c0-9.266 6.07-13.612 13.04-13.612 6.64 0 11.23 3.854 11.23 13.284V907h5.74v-26.814c0-11.48-4.67-18.04-15.66-18.04-6.48 0-11.4 2.952-14.35 7.708V845.09h-5.66V907Zm46.96-19.106c0 13.284 7.71 20.172 18.53 20.172 10.83 0 18.7-6.888 18.7-20.172v-5.576c0-13.284-7.87-20.172-18.7-20.172-10.82 0-18.53 6.888-18.53 20.172v5.576Zm5.66-5.986c0-9.594 5.08-14.76 12.87-14.76 7.79 0 12.96 5.166 12.96 14.76v6.396c0 9.348-4.92 14.678-12.96 14.678-7.87 0-12.87-5.248-12.87-14.678v-6.396Zm41.19 5.986c0 13.284 7.71 20.172 18.53 20.172s18.7-6.888 18.7-20.172v-5.576c0-13.284-7.88-20.172-18.7-20.172s-18.53 6.888-18.53 20.172v5.576Zm5.66-5.986c0-9.594 5.08-14.76 12.87-14.76 7.79 0 12.96 5.166 12.96 14.76v6.396c0 9.348-4.92 14.678-12.96 14.678-7.87 0-12.87-5.248-12.87-14.678v-6.396Zm37.68-18.778 13.94 44.608h6.15l12.46-36.326 12.46 36.326h5.99l13.86-44.608h-5.91l-10.98 37.556-12.55-37.556h-5.58l-12.54 37.966-11.07-37.966h-6.23ZM1338.28 907v-27.634c0-8.118-1.23-17.22-16.81-17.22-6.97 0-11.4 1.64-14.84 4.428v5.74c4.34-3.854 9.18-5.084 14.18-5.084 10.66 0 11.73 6.396 11.73 12.464v2.624h-9.92c-7.06 0-18.21 1.312-18.21 13.284 0 7.872 4.92 12.464 13.86 12.464 6.48 0 11.4-2.214 14.27-6.806V907h5.74Zm-19.19-3.854c-5.58 0-8.94-2.624-8.94-7.872 0-6.724 5.25-8.036 12.22-8.036h10.17v5.822c-1.07 7.544-7.63 10.086-13.45 10.086Z"/></svg>