<svg xmlns="http://www.w3.org/2000/svg" width="1920" height="1080" fill="none"><mask id="a" width="1787" height="275" x="59" y="396" maskUnits="userSpaceOnUse" style="mask-type:luminance"><path fill="#fff" d="M59 670.421h1786.89V396H59v274.421Z"/></mask><g mask="url(#a)"><path stroke="#3C4043" stroke-width="3.335" d="M296.355 666.815H1845.89M296.355 436.942H1845.89M296.355 489.703H1845.89M298.5 550l1546.85.805M296.355 403.533H1845.89"/><path fill="#FF6D7F" d="M1120.57 637.837c15.01-12.193 22.51-31.428 22.52-57.705v-4.574c0-27.21-7.86-48.497-23.58-63.864-15.72-15.367-37.41-23.049-65.09-23.047-27.45 0-49.09 7.742-64.923 23.227-15.834 15.484-23.751 36.948-23.751 64.391v3.87c0 27.445 7.858 48.909 23.575 64.391 15.719 15.482 37.419 23.224 65.099 23.226h152v-29.915h-85.85Zm-64.39 0c-18.3 0-32.38-4.808-42.23-14.426-9.85-9.617-14.776-23.457-14.776-41.52v-7.389c0-18.297 4.696-32.254 14.076-41.872 9.38-9.617 23.1-14.426 41.17-14.426 18.06 0 31.78 4.809 41.16 14.426 9.39 9.618 14.08 23.575 14.08 41.872v7.389c0 16.186-3.75 29.38-11.26 39.584-7.51 10.204-19.59 15.658-36.24 16.362h-5.98Zm217.44-207.599c-20.64 0-36.77 5.22-48.38 15.658-11.61 10.439-17.42 26.8-17.42 49.085v10.204c0 22.052 5.81 38.297 17.42 48.733 11.61 10.437 27.74 15.656 48.38 15.658 20.64 0 36.77-5.219 48.38-15.658 11.62-10.438 17.42-26.683 17.42-48.733v-10.204c0-22.282-5.81-38.644-17.42-49.085-11.61-10.441-27.74-15.66-48.38-15.658Zm34.84 74.947c0 24.867-11.62 37.299-34.84 37.297-23.22-.002-34.83-12.434-34.83-37.297v-10.204c0-25.098 11.61-37.647 34.83-37.65 23.22-.002 34.84 12.548 34.84 37.65v10.204Zm32.72 133.004v29.557h223.08v-29.557l-90.43-203.025h-37.65l-95 203.025Zm36.94-1.404 76-168.897 71.43 168.897h-147.43ZM1629 531.579h-34.84v38.705H1629v-38.705Zm120.34-27.094c0 12.436-2.88 21.057-8.62 25.862-5.75 4.806-13.31 7.21-22.7 7.213h-46.8v27.797h47.51c41.05 0 61.57-20.29 61.57-60.872v-8.796c0-40.343-20.52-60.517-61.57-60.521h-47.51v27.798h46.8c20.88 0 31.32 10.907 31.32 32.723v8.796Z"/><path fill="#1A73E8" d="M852.805 474.571c-12.903 0-24.28 2.463-34.13 7.389a69.624 69.624 0 0 0-24.983 21.113v-23.576h-32.723v188.25h32.723V557.611c0-10.787 2.347-20.17 7.041-28.149a46.582 46.582 0 0 1 18.821-18.121 53.59 53.59 0 0 1 25.158-6.158c12.667 0 23.223 4.164 31.668 12.491 8.445 8.328 12.668 20.936 12.667 37.825v112.248h32.723v-114.71c0-25.335-5.688-44.746-17.065-58.234-11.377-13.488-28.677-20.232-51.9-20.232Z"/><path fill="#FF6D7F" d="M610.022 429.886c-17.829 0-33.253 3.753-46.27 11.259a73.254 73.254 0 0 0-29.559 31.316c-6.686 13.371-10.029 28.736-10.029 46.094v7.041c0 26.511 7.096 47.915 21.288 64.215 14.192 16.299 34.19 24.451 59.993 24.455 25.565 0 45.27-8.328 59.113-24.983v78.466h33.423v-152.36c0-26.506-7.565-47.383-22.694-62.632-15.13-15.249-36.885-22.873-65.265-22.871Zm0 154.82c-17.593 0-30.73-5.395-39.412-16.186-8.681-10.79-13.021-24.747-13.019-41.871v-9.145c0-17.12 4.34-31.077 13.019-41.872 8.68-10.795 21.817-16.19 39.412-16.186 18.764 0 32.545 4.868 41.344 14.603 8.798 9.735 13.196 22.93 13.191 39.584v13.019c0 17.363-4.397 31.378-13.191 42.048-8.794 10.67-22.575 16.005-41.344 16.006Z"/></g><path fill="#1A73E8" d="M339.441 402.089v265.657h34.483V547.057h115.412v-30.261H373.924v-83.743h125.615v-30.964H339.441Z"/><path fill="#000" d="M81.532 407.572h-6.384v-12.648h-2.232v14.616h8.616v-1.968Zm.693 1.968h2.328l1.296-3.408h6.336l1.224 3.408H96l-5.688-14.904h-2.16l-5.928 14.904Zm4.368-5.328 2.52-6.672 2.4 6.672h-4.92Zm20.904-9.288H95.425v2.04h5.016v12.576h2.232v-12.576h4.824v-2.04Zm4.8 0h-2.232v14.616h2.232v-14.616Zm4.166 14.616h2.112v-5.664l-.024-5.424 7.296 11.088h2.112v-14.616h-2.112v5.328l.024 5.688-7.296-11.016h-2.112v14.616Zm31.522-13.992c-.816-.504-2.112-.936-3.888-.936-3.984 0-6.72 2.136-6.72 6.504v2.328c0 4.392 2.736 6.384 6.72 6.384 1.44 0 2.784-.264 3.84-.792v-2.04c-1.152.624-2.592.816-3.768.816-2.712 0-4.488-1.008-4.488-4.248v-2.568c0-3.12 1.872-4.368 4.44-4.368 1.584 0 3 .48 3.864 1.176v-2.256Zm1.271 13.992h2.328l1.296-3.408h6.336l1.224 3.408h2.592l-5.688-14.904h-2.16l-5.928 14.904Zm4.368-5.328 2.52-6.672 2.4 6.672h-4.92Zm22.406-4.704c0-2.496-1.68-4.584-5.184-4.584h-5.352v14.616h2.232v-5.256h3.216c3.384 0 5.088-2.016 5.088-4.776Zm-5.496-2.592c2.184 0 3.216.864 3.216 2.736 0 1.44-.648 2.688-3.024 2.688h-3v-5.424h2.808Zm8.005 7.176h6.912v-1.896h-6.912v1.896Zm12.906-9.168h-2.232v14.616h2.232v-6.456h7.248v6.456h2.232v-14.616h-2.232v6.096h-7.248v-6.096Zm23.307 12.648h-7.416v-4.512h6.6v-1.92h-6.6v-4.224h7.224v-1.992h-9.456v14.616h9.648v-1.968Zm5.638-12.648h-2.232v14.616h2.232v-14.616Zm3.495 8.52c0 4.512 3 6.384 6.96 6.384 1.944 0 3.504-.456 4.608-1.008v-7.512h-5.976v2.064h3.744v4.2c-.696.144-1.488.24-2.328.24-2.712 0-4.704-.96-4.704-4.248v-2.568c0-3.216 2.136-4.368 4.704-4.368 1.584 0 3.096.432 4.08 1.152v-2.208c-.912-.528-2.28-.96-4.128-.96-3.936 0-6.96 1.992-6.96 6.504v2.328Zm17.388-8.52h-2.232v14.616h2.232v-6.456h7.248v6.456h2.232v-14.616h-2.232v6.096h-7.248v-6.096Zm24.123 0h-12.072v2.04h5.016v12.576h2.232v-12.576h4.824v-2.04ZM185.661 430.018h-12.072v2.04h5.016v12.576h2.232v-12.576h4.824v-2.04Zm1.568 8.544c0 4.392 2.232 6.36 6 6.36 3.792 0 6.144-1.968 6.144-6.36v-2.376c0-4.392-2.304-6.48-6.096-6.48-3.768 0-6.048 2.088-6.048 6.48v2.376Zm2.28-2.52c0-3.024 1.32-4.368 3.744-4.368 2.424 0 3.84 1.344 3.84 4.368v2.664c0 3-1.248 4.248-3.864 4.248-2.592 0-3.72-1.248-3.72-4.248v-2.664Zm23.928-1.44c0-2.496-1.68-4.584-5.184-4.584h-5.352v14.616h2.232v-5.256h3.216c3.384 0 5.088-2.016 5.088-4.776Zm-5.496-2.592c2.184 0 3.216.864 3.216 2.736 0 1.44-.648 2.688-3.024 2.688h-3v-5.424h2.808Zm22.372 10.656h-6.384v-12.648h-2.232v14.616h8.616v-1.968Zm4.749-12.648h-2.232v14.616h2.232v-14.616Zm4.167 14.616h2.112v-5.664l-.024-5.424 7.296 11.088h2.112v-14.616h-2.112v5.328l.024 5.688-7.296-11.016h-2.112v14.616Zm25.327-1.968h-7.416v-4.512h6.6v-1.92h-6.6v-4.224h7.224v-1.992h-9.456v14.616h9.648v-1.968ZM138.799 495.651h2.112v-6.12l-.024-4.536 3.864 6.984h1.752l3.912-7.128-.024 4.824v5.976h2.112v-14.616h-2.112l-4.8 8.496-4.68-8.496h-2.112v14.616Zm27.531-1.968h-7.416v-4.512h6.6v-1.92h-6.6v-4.224h7.224v-1.992h-9.456v14.616h9.648v-1.968Zm3.406 1.968h4.896c3.768 0 6.384-1.704 6.384-6.096v-2.28c0-4.368-2.616-6.24-6.384-6.24h-4.896v14.616Zm4.896-12.6c2.4 0 4.104 1.08 4.104 4.104v2.52c0 3.144-1.56 3.96-4.104 3.96h-2.664v-10.584h2.664Zm12.126-2.016h-2.232v14.616h2.232v-14.616Zm2.342 14.616h2.328l1.296-3.408h6.336l1.224 3.408h2.592l-5.688-14.904h-2.16l-5.928 14.904Zm4.368-5.328 2.52-6.672 2.4 6.672h-4.92Zm20.486 3.36h-6.384v-12.648h-2.232v14.616h8.616v-1.968Zm16.359 0h-6.384v-12.648h-2.232v14.616h8.616v-1.968Zm4.749-12.648h-2.232v14.616h2.232v-14.616Zm4.167 14.616h2.112v-5.664l-.024-5.424 7.296 11.088h2.112v-14.616h-2.112v5.328l.024 5.688-7.296-11.016h-2.112v14.616Zm25.327-1.968h-7.416v-4.512h6.6v-1.92h-6.6v-4.224h7.224v-1.992h-9.456v14.616h9.648v-1.968ZM177.721 558h2.112v-6.12l-.024-4.536 3.864 6.984h1.752l3.912-7.128-.024 4.824V558h2.112v-14.616h-2.112l-4.8 8.496-4.68-8.496h-2.112V558Zm20.115-14.616h-2.232V558h2.232v-14.616ZM202.002 558h4.896c3.768 0 6.384-1.704 6.384-6.096v-2.28c0-4.368-2.616-6.24-6.384-6.24h-4.896V558Zm4.896-12.6c2.4 0 4.104 1.08 4.104 4.104v2.52c0 3.144-1.56 3.96-4.104 3.96h-2.664V545.4h2.664Zm24.415 10.632h-6.384v-12.648h-2.232V558h8.616v-1.968Zm4.749-12.648h-2.232V558h2.232v-14.616ZM240.229 558h2.112v-5.664l-.024-5.424L249.613 558h2.112v-14.616h-2.112v5.328l.024 5.688-7.296-11.016h-2.112V558Zm25.327-1.968h-7.416v-4.512h6.6v-1.92h-6.6v-4.224h7.224v-1.992h-9.456V558h9.648v-1.968ZM167.205 671.899h5.64c3.888 0 5.28-1.944 5.28-4.176 0-1.872-.984-3-2.544-3.456 1.368-.6 2.16-1.512 2.16-3.144 0-2.352-1.632-3.84-5.136-3.84h-5.4v14.616Zm5.112-12.648c1.776 0 3.096.408 3.096 2.208 0 1.248-.624 2.064-2.88 2.064h-3.12v-4.272h2.904Zm.312 6.168c2.328 0 3.192.696 3.192 2.208 0 1.728-1.152 2.304-3.24 2.304h-3.168v-4.512h3.216Zm6.885 6.48h2.328l1.296-3.408h6.336l1.224 3.408h2.592l-5.688-14.904h-2.16l-5.928 14.904Zm4.368-5.328 2.52-6.672 2.4 6.672h-4.92Zm11.129 4.44c1.488.768 2.976 1.104 4.584 1.104 3.384 0 5.856-1.464 5.856-4.488 0-2.496-1.704-3.768-4.368-4.104l-1.128-.144c-1.944-.24-2.808-.6-2.808-2.064 0-1.68 1.104-2.424 3.12-2.424 1.704 0 3.048.528 4.416 1.416v-2.256c-1.152-.768-2.784-1.08-4.272-1.08-3.216 0-5.52 1.44-5.52 4.296 0 2.328 1.512 3.744 4.008 4.056l1.152.144c1.728.216 3.12.504 3.12 2.232 0 1.656-1.248 2.496-3.36 2.496-1.728 0-3.36-.552-4.8-1.44v2.256Zm23.28-1.08h-7.416v-4.512h6.6v-1.92h-6.6v-4.224h7.224v-1.992h-9.456v14.616h9.648v-1.968Zm12.022 0h-6.384v-12.648h-2.232v14.616h8.616v-1.968Zm4.749-12.648h-2.232v14.616h2.232v-14.616Zm4.167 14.616h2.112v-5.664l-.024-5.424 7.296 11.088h2.112v-14.616h-2.112v5.328l.024 5.688-7.296-11.016h-2.112v14.616Zm25.327-1.968h-7.416v-4.512h6.6v-1.92h-6.6v-4.224h7.224v-1.992h-9.456v14.616h9.648v-1.968Z"/></svg>