<svg xmlns="http://www.w3.org/2000/svg" width="1920" height="1080" fill="none"><mask id="a" width="1682" height="145" x="117" y="460" maskUnits="userSpaceOnUse" style="mask-type:luminance"><path fill="#fff" stroke="#fff" d="M1798.21 460.5v143.832H118.359V460.5H1798.21Z"/></mask><g mask="url(#a)"><path fill="#3C4043" d="M117.859 601.729H1798.71 117.859Z"/><path stroke="#3C4043" stroke-width="1.313" d="M117.859 601.729H1798.71"/><path fill="#3C4043" d="M117.859 480.295H1798.71 117.859Z"/><path stroke="#3C4043" stroke-width="1.313" d="M117.859 480.295H1798.71"/></g><path fill="#FF6D7F" d="M1691.44 462.59h-17.18l-5.36 43.413h15.34l7.2-43.413Zm36.95 0h-17.18l-5.36 43.413h15.33l7.21-43.413Z"/><mask id="b" width="1682" height="145" x="117" y="460" maskUnits="userSpaceOnUse" style="mask-type:luminance"><path fill="#fff" d="M117.859 604.832H1798.71V460H117.859v144.832Z"/></mask><g mask="url(#b)"><path fill="#FF6D7F" d="M1649.88 498.425c0-11.944-3.6-21.335-10.81-28.172-7.2-6.837-17.09-10.255-29.65-10.253-8.13 0-15.21 1.755-21.24 5.265a36.55 36.55 0 0 0-13.95 14.132 39.856 39.856 0 0 0-4.89 19.582v1.847h17.18v-1.847c0-7.635 2.21-13.515 6.65-17.642 4.43-4.127 9.97-6.189 16.62-6.188 7.27 0 12.96 2.062 17.09 6.188 4.13 4.126 6.19 10.006 6.19 17.642 0 5.542-1.23 10.099-3.7 13.67-2.46 3.572-6.28 7.698-11.45 12.378-3.82 3.449-6.93 6.497-9.33 9.144a33.072 33.072 0 0 0-6 9.884 36.066 36.066 0 0 0-2.4 13.67v6.099h17.18v-8.871c-.1-3.996 1.1-7.917 3.41-11.175a74.124 74.124 0 0 1 10.44-10.992c3.42-2.941 6.66-6.087 9.7-9.422a36.926 36.926 0 0 0 6.37-10.437 37.274 37.274 0 0 0 2.59-14.502Zm-31.22 83.5h-18.29v20.136h18.29v-20.136Z"/><path fill="#1A73E8" d="M1164.21 503.228h-16.63l-26.05 80.729-22.35-80.729h-18.66l30.85 100.681h18.66l25.68-75.741 25.31 75.741h17.92l31.03-100.681h-17.73l-22.54 79.621-25.49-79.621Zm132.82-2.585a39.564 39.564 0 0 0-17.92 3.879c-5.19 2.6-9.68 6.4-13.11 11.084V462.59h-17.19v139.472H1266v-57.823a28.524 28.524 0 0 1 3.69-14.779 24.487 24.487 0 0 1 9.88-9.514 28.179 28.179 0 0 1 13.21-3.233c6.65 0 12.19 2.186 16.63 6.558 4.43 4.372 6.65 10.993 6.65 19.862v58.93h17.18v-60.225c0-13.301-2.99-23.492-8.96-30.574-5.97-7.082-15.06-10.623-27.25-10.621Zm101.98 0a41.784 41.784 0 0 0-21.71 5.63 39.343 39.343 0 0 0-14.96 16.072c-3.64 6.959-5.45 15.057-5.45 24.292v12.196c0 9.731 1.97 18.044 5.91 24.94a39.062 39.062 0 0 0 16.26 15.702c6.89 3.572 14.77 5.357 23.64 5.357 6.67.112 13.34-.539 19.86-1.939a58.638 58.638 0 0 0 16.35-6.743v-15.333c-5.91 3.574-11.39 5.946-16.44 7.116a81.116 81.116 0 0 1-18.1 1.755c-8.87 0-16.11-2.618-21.71-7.852-5.6-5.234-8.47-12.471-8.59-21.709h67.24v-15.333c0-14.409-3.88-25.37-11.64-32.883-7.76-7.513-17.98-11.269-30.66-11.268Zm0 15.147c8 0 14.19 2.372 18.56 7.116 4.38 4.744 6.56 11.732 6.56 20.964v1.662h-50.06c0-9.358 2.18-16.656 6.56-21.895 4.37-5.238 10.49-7.855 18.38-7.851m114.72-15.143c-6.2-.129-12.34 1.2-17.92 3.879a36.453 36.453 0 0 0-13.11 11.084v-12.378h-17.19v98.834h17.19v-57.823a28.62 28.62 0 0 1 3.69-14.779 24.487 24.487 0 0 1 9.88-9.514 28.179 28.179 0 0 1 13.21-3.233c6.65 0 12.19 2.186 16.63 6.558 4.43 4.372 6.65 10.993 6.65 19.862v58.93h17.18v-60.225c0-13.301-2.99-23.492-8.96-30.574-5.98-7.082-15.06-10.623-27.25-10.621Z"/></g><path fill="#FF6D7F" d="M838.151 479.955h-17.18l-5.358 43.412h15.333l7.205-43.412Zm36.947 0h-17.18l-5.358 43.412h15.333l7.205-43.412Zm155.182-17.365h-15.34l-9.05 43.412h17.18l7.21-43.412Zm36.94 0h-15.33l-9.05 43.412h17.18l7.2-43.412Z"/><mask id="c" width="1682" height="145" x="117" y="460" maskUnits="userSpaceOnUse" style="mask-type:luminance"><path fill="#fff" d="M117.859 604.832H1798.71V460H117.859v144.832Z"/></mask><g mask="url(#c)"><path fill="#FF6D7F" d="M791.417 509.138c0-10.467-3.109-18.38-9.329-23.739-6.22-5.359-14.995-8.037-26.327-8.036-13.794 0-24.047 3.571-30.759 10.713-6.712 7.142-10.067 16.564-10.064 28.267v1.847h17.18v-1.847c0-7.881 1.939-13.824 5.819-17.829 3.879-4.005 9.945-6.006 18.196-6.004 12.315.001 18.473 5.729 18.473 17.182 0 4.434-1.109 8.005-3.325 10.713-2.217 2.708-5.788 5.912-10.715 9.611a105.761 105.761 0 0 0-9.79 8.217 30.926 30.926 0 0 0-6.374 9.514c-1.786 3.943-2.679 8.745-2.678 14.407v3.325h17.18v-6.1c0-4.186 1.108-7.603 3.325-10.253 2.216-2.649 5.727-5.82 10.53-9.513a85.226 85.226 0 0 0 9.697-7.943 31.216 31.216 0 0 0 6.376-9.231 31.277 31.277 0 0 0 2.585-13.301Zm-31.22 72.786h-18.289v20.136h18.289v-20.136Z"/><path fill="#1A73E8" d="M287.273 508.033c-13.426 0-23.771 4.372-31.035 13.116v-41.196h-17.55v79.993c0 13.919 3.971 24.88 11.915 32.884 7.943 8.003 19.366 12.006 34.269 12.007 9.357 0 17.455-1.97 24.292-5.911a38.45 38.45 0 0 0 15.518-16.445c3.51-7.02 5.264-15.087 5.265-24.2v-3.695c0-13.915-3.725-25.154-11.176-33.714-7.451-8.561-17.95-12.841-31.498-12.839Zm25.124 50.802c0 8.991-2.278 16.319-6.835 21.984-4.557 5.665-11.453 8.497-20.69 8.497-9.853 0-17.089-2.554-21.707-7.663-4.619-5.109-6.928-12.037-6.927-20.786v-6.835c0-9.113 2.309-16.472 6.927-22.076 4.618-5.605 11.854-8.406 21.707-8.405 9.236 0 16.133 2.832 20.69 8.497 4.557 5.665 6.836 12.993 6.835 21.984v4.803Zm58.746-78.882h-16.257v68.35h16.257v-68.35Zm32.698 0h-16.257v68.35h16.257v-68.35Zm19.397 70.938 95.692 51.172h16.442v-122.11H518.93l-95.692 51.172v19.766Zm16.257-9.975 78.327-40.642v81.098l-78.327-40.456Zm189.353-63.549c-19.705 0-33.899 4.957-42.581 14.871-8.682 9.914-13.024 25.093-13.024 45.537v30.112c0 24.633 12.131 36.949 36.392 36.947 12.193 0 21.399-3.11 27.619-9.329 6.219-6.22 9.329-15.118 9.329-26.695 0-10.345-2.648-18.689-7.944-25.031-5.295-6.343-13.114-9.514-23.458-9.513-10.594 0-18.722 3.078-24.385 9.236v-4.804c0-10.589 1.017-19.148 3.05-25.677a26.13 26.13 0 0 1 11.361-14.963c5.542-3.447 13.424-5.172 23.646-5.173 10.221-.002 18.103 1.723 23.646 5.173a26.133 26.133 0 0 1 11.36 14.963c2.033 6.529 3.049 15.026 3.049 25.491v63.549h17.55V537.59c0-20.32-4.341-35.437-13.024-45.353-8.682-9.915-22.878-14.871-42.586-14.87Zm-17.919 71.677c6.281 0 10.961 1.755 14.04 5.265 3.078 3.511 4.618 8.344 4.618 14.501 0 6.777-1.57 11.888-4.711 15.334-3.14 3.445-8.22 5.169-15.241 5.172-6.774 0-11.608-1.878-14.501-5.634-2.893-3.757-4.34-9.453-4.341-17.088v-1.847c0-4.31 1.786-8.005 5.357-11.084 3.571-3.08 8.498-4.619 14.779-4.619Z"/></g><path fill="#FF6D7F" d="M174.213 479.955H158.88l-9.052 43.413h17.18l7.205-43.413Zm36.947 0h-15.333l-9.052 43.413h17.18l7.205-43.413Z"/></svg>