<svg xmlns="http://www.w3.org/2000/svg" width="1920" height="1080" fill="none"><path fill="#3C4043" d="M191.807 530.127c-2.162 0-4.498-1.124-7.006-3.373-2.422-2.249-4.67-5.233-6.746-8.952l-13.883-25.17h-10.768l-.389 19.331c0 3.114.173 5.449.519 7.006.432 1.471 1.297 2.465 2.595 2.984 1.384.433 3.459.649 6.227.649l.26.519-1.168 5.449-1.297-.13c-.865 0-1.99-.043-3.374-.129-1.297 0-2.767-.044-4.411-.13h-4.671a87.181 87.181 0 0 0-6.746 0c-2.249.086-4.195.173-5.838.259l-2.336.13 1.168-5.838c4.065-.433 6.703-1.298 7.914-2.595 1.298-1.384 1.946-3.936 1.946-7.655l.13-54.491c0-2.767-.346-4.627-1.038-5.578-.605-.952-1.859-1.428-3.762-1.428-.779 0-1.73.044-2.855.13l-1.557.13-.259-.519.908-5.709 1.427.13c1.038 0 2.336.043 3.893.13 1.556 0 3.157.043 4.8.13H154.053c1.816-.087 3.589-.173 5.319-.26a99.21 99.21 0 0 1 4.541-.13l1.816-.129c8.044 0 14.402 1.816 19.072 5.449 4.671 3.632 7.006 8.606 7.006 14.92 0 5.189-1.686 9.947-5.06 14.271-3.286 4.325-7.957 7.871-14.012 10.639l14.272 22.575c2.508 4.065 4.93 6.919 7.265 8.563 2.422 1.643 5.363 2.465 8.823 2.465l.518.519-.778 4.411-11.028 1.427Zm-24.78-43.463 2.076-.778c1.47-.606 3.113-1.601 4.93-2.984 1.816-1.384 3.416-3.33 4.8-5.839 1.471-2.508 2.206-5.665 2.206-9.471 0-5.708-1.99-9.99-5.968-12.844-3.893-2.854-9.817-4.281-17.775-4.281-.865 0-1.47.216-1.816.648-.26.346-.433 1.125-.519 2.336-.346 6.833-.649 12.714-.908 17.644-.173 4.93-.303 9.687-.389 14.272l13.363 1.297ZM250.423 529.608c-3.459 0-6.184-.865-8.173-2.595-1.903-1.816-3.028-4.454-3.374-7.914l-.519-.13c-2.075 2.076-4.065 3.892-5.968 5.449-1.816 1.471-3.459 2.638-4.93 3.503-1.384.779-2.508 1.168-3.373 1.168-3.2 0-6.054-.692-8.563-2.076-2.508-1.384-4.497-3.287-5.968-5.708-1.384-2.422-2.076-5.19-2.076-8.304 0-2.508.606-4.714 1.817-6.617 1.297-1.902 2.984-3.157 5.06-3.762l24.65-6.746.13-5.709c0-4.325-.995-7.698-2.984-10.12-1.989-2.422-4.8-3.632-8.433-3.632-2.422 0-4.974.562-7.655 1.686-2.681 1.125-5.319 2.725-7.914 4.801l-.649-.39-1.557-5.579a143.951 143.951 0 0 1 7.525-4.021c2.768-1.471 5.406-2.682 7.914-3.633 2.509-.952 4.412-1.427 5.709-1.427 3.806 0 7.049.692 9.731 2.076 2.681 1.297 4.713 3.2 6.097 5.708 1.471 2.422 2.206 5.406 2.206 8.952 0 1.125-.13 2.941-.389 5.449-.173 2.509-.433 5.32-.779 8.433a386.48 386.48 0 0 0-.908 8.823c-.173 2.854-.259 5.233-.259 7.135 0 1.903.475 3.374 1.427 4.412.951 1.037 2.249 1.556 3.892 1.556 1.47 0 2.941-.346 4.411-1.037 1.47-.779 2.595-1.514 3.373-2.206l1.817 2.076c-.692 1.124-1.644 2.422-2.855 3.892a27.525 27.525 0 0 1-3.892 3.892c-1.384 1.211-2.897 2.076-4.541 2.595Zm-24.131-9.341c1.643 0 3.546-.563 5.708-1.687a26.016 26.016 0 0 0 6.098-4.541l.649-13.233-17.645 5.319c-2.508.778-3.762 2.595-3.762 5.449 0 2.422.821 4.498 2.465 6.228 1.73 1.643 3.892 2.465 6.487 2.465ZM290.23 559.448c-4.065 0-7.568-.692-10.509-2.076-2.941-1.384-5.233-3.373-6.876-5.968-1.557-2.595-2.335-5.665-2.335-9.211 1.211-1.471 2.94-3.287 5.189-5.449a119.043 119.043 0 0 1 7.655-6.228v-.778c-4.498-.779-7.957-2.249-10.379-4.411-2.336-2.163-3.59-4.931-3.763-8.304a62.891 62.891 0 0 1 5.06-4.281 46.54 46.54 0 0 1 5.838-4.022v-1.817l6.747 2.206c-2.681 1.384-4.627 2.638-5.838 3.763-1.125 1.037-1.687 2.119-1.687 3.243 0 1.73 1.038 3.027 3.114 3.892 2.076.779 4.714 1.384 7.914 1.817 3.287.346 6.746.735 10.379 1.167 3.719.433 7.179 1.125 10.379 2.076 3.287.865 5.968 2.162 8.044 3.892 2.076 1.817 3.114 4.325 3.114 7.525 0 2.854-.908 5.666-2.725 8.433-1.729 2.768-4.151 5.233-7.265 7.395-3.027 2.163-6.444 3.893-10.249 5.19a36.356 36.356 0 0 1-11.807 1.946Zm4.411-6.357c3.374 0 6.531-.606 9.471-1.816 2.941-1.125 5.32-2.682 7.136-4.671 1.816-1.989 2.725-4.109 2.725-6.357 0-1.73-.649-3.114-1.946-4.152-1.298-1.038-3.763-1.989-7.396-2.854-3.546-.779-8.779-1.6-15.698-2.465-2.595 1.816-4.584 3.805-5.968 5.968-1.384 2.248-2.076 4.454-2.076 6.616 0 2.941 1.254 5.277 3.762 7.006 2.509 1.817 5.839 2.725 9.99 2.725Zm.519-47.615c3.979 0 7.093-1.254 9.342-3.762 2.335-2.508 3.503-5.968 3.503-10.379 0-5.017-1.384-9.082-4.152-12.196-2.768-3.114-6.357-4.671-10.769-4.671-3.978 0-7.135 1.298-9.471 3.893-2.248 2.594-3.373 6.097-3.373 10.509 0 4.93 1.384 8.952 4.152 12.065 2.768 3.028 6.357 4.541 10.768 4.541Zm-2.984 5.709c-4.238 0-8-.822-11.287-2.465-3.2-1.73-5.752-4.065-7.655-7.006-1.816-3.027-2.724-6.444-2.724-10.25 0-4.324 1.081-8.26 3.243-11.806 2.249-3.546 5.19-6.4 8.823-8.563 3.719-2.162 7.741-3.243 12.065-3.243 2.422 0 4.714.259 6.877.778 2.248.433 4.195.649 5.838.649 1.73-.173 4.152-.606 7.265-1.298a231.183 231.183 0 0 0 10.639-2.594l.389.519-1.427 7.265c-1.903.26-3.892.476-5.968.649-2.076.173-3.806.346-5.19.519l-.519.648c3.46 3.806 5.19 8.217 5.19 13.234 0 4.238-1.168 8.087-3.503 11.547-2.249 3.459-5.319 6.227-9.211 8.303-3.806 2.076-8.088 3.114-12.845 3.114ZM349.778 529.608c-3.114 0-5.838-.26-8.174-.778-2.335-.433-4.151-.865-5.449-1.298l-1.816-.649-.389-.908c.173-.951.346-2.508.519-4.67.259-2.249.475-4.585.648-7.006.26-2.422.389-4.325.389-5.709l4.541-.649c0 5.709.952 9.731 2.855 12.066 1.902 2.336 5.146 3.503 9.73 3.503 3.287 0 6.055-.735 8.303-2.205 2.249-1.471 3.374-3.287 3.374-5.449a6.76 6.76 0 0 0-1.298-4.022c-.865-1.211-2.378-2.552-4.541-4.022-2.162-1.471-5.232-3.244-9.211-5.32-4.93-2.508-8.52-5.06-10.769-7.654-2.248-2.595-3.373-5.449-3.373-8.563 0-3.546 1.038-6.703 3.114-9.471 2.076-2.768 4.93-4.93 8.563-6.487 3.633-1.644 7.698-2.465 12.195-2.465 3.547 0 6.574.346 9.082 1.038l3.892 1.038.26.648-.519 2.206c-.26 1.47-.606 3.416-1.038 5.838-.346 2.335-.649 4.93-.908 7.785l-4.801.389.13-1.427c.087-.952.13-1.73.13-2.336 0-3.113-.865-5.362-2.595-6.746-1.643-1.471-4.325-2.206-8.044-2.206-2.941 0-5.449.692-7.525 2.076-1.989 1.384-2.984 3.071-2.984 5.06 0 2.076.865 4.022 2.595 5.838 1.816 1.817 4.714 3.763 8.693 5.839 4.67 2.421 8.303 4.627 10.898 6.616 2.681 1.903 4.541 3.763 5.579 5.579 1.124 1.816 1.686 3.806 1.686 5.968 0 3.287-1.124 6.357-3.373 9.212-2.162 2.854-5.06 5.146-8.693 6.876-3.546 1.643-7.438 2.465-11.676 2.465ZM406.519 529.608c-5.882 0-10.033-1.168-12.455-3.503-2.422-2.422-3.633-6.487-3.633-12.196v-31.916c0-2.335-.519-3.978-1.557-4.93-1.038-.951-2.984-1.47-5.838-1.557l-.519-.778.649-3.892a51.479 51.479 0 0 0 5.968-3.503c1.989-1.384 3.719-2.682 5.189-3.892a134.918 134.918 0 0 0 3.633-3.114l1.297-1.298 2.595 1.038-.389 2.465c-.173 1.644-.389 4.066-.649 7.266l19.072-.389.389.389-1.167 6.876-18.813-.389c-.259 4.065-.475 8.822-.648 14.271-.173 5.449-.26 11.504-.26 18.164 0 4.411.735 7.525 2.206 9.341 1.557 1.816 4.195 2.725 7.914 2.725 2.162 0 4.152-.39 5.968-1.168l2.854-1.168 1.298 3.374-1.557 1.167a87.886 87.886 0 0 1-3.892 2.725 40.535 40.535 0 0 1-4.412 2.724c-1.384.779-2.465 1.168-3.243 1.168ZM452.457 529.608c-4.93 0-9.298-1.211-13.104-3.633-3.805-2.422-6.789-5.795-8.952-10.119-2.076-4.412-3.114-9.428-3.114-15.05 0-6.228 1.298-11.807 3.893-16.737 2.681-5.016 6.314-8.952 10.898-11.806 4.584-2.941 9.687-4.411 15.309-4.411 4.93 0 9.298 1.211 13.104 3.632 3.806 2.422 6.746 5.795 8.822 10.12 2.163 4.325 3.244 9.341 3.244 15.05 0 6.141-1.341 11.72-4.022 16.736-2.595 5.017-6.185 8.996-10.769 11.937-4.497 2.854-9.6 4.281-15.309 4.281Zm3.633-6.357c4.843 0 8.692-1.946 11.547-5.839 2.854-3.978 4.281-9.341 4.281-16.087 0-5.19-.778-9.774-2.335-13.753-1.557-3.979-3.72-7.092-6.487-9.341-2.768-2.249-5.968-3.373-9.601-3.373-4.844 0-8.693 1.989-11.547 5.968-2.854 3.978-4.281 9.384-4.281 16.217 0 5.19.778 9.774 2.335 13.753 1.557 3.892 3.719 6.962 6.487 9.211 2.768 2.163 5.968 3.244 9.601 3.244ZM529.658 524.289c2.595-.692 4.455-1.687 5.579-2.984 1.125-1.384 1.687-3.201 1.687-5.449l.519-25.689c0-4.325-.952-7.655-2.854-9.99-1.817-2.335-4.455-3.503-7.915-3.503-2.075 0-4.195.432-6.357 1.297s-4.108 1.817-5.838 2.855c-1.644 1.038-2.898 1.903-3.763 2.594a475.555 475.555 0 0 1-.389 8.044 365.456 365.456 0 0 1-.389 9.342c-.087 3.2-.173 6.097-.26 8.692-.086 2.595-.129 4.541-.129 5.839 0 2.681.346 4.584 1.038 5.708.778 1.038 1.989 1.557 3.632 1.557.779 0 1.73-.043 2.855-.13l1.686-.129.26.518-1.168 5.579-1.946-.129a250.69 250.69 0 0 0-4.671-.26h-5.189c-1.817 0-3.719.043-5.709.13-1.989.173-3.676.303-5.06.389l-2.076.26.649-5.32c2.508-.432 4.282-1.211 5.32-2.335 1.037-1.125 1.556-2.898 1.556-5.319v-31.657c0-2.941-.475-4.973-1.427-6.098-.951-1.211-2.595-1.816-4.93-1.816h-1.427l-.389-.519.389-4.282a581.963 581.963 0 0 0 8.693-1.556 247.715 247.715 0 0 0 6.746-1.557l2.725-.649.778 1.038-.649 2.595c-.346 1.73-.605 3.719-.778 5.968l.259.389c.779-.519 1.99-1.297 3.633-2.335a150.308 150.308 0 0 1 5.449-3.374 58.692 58.692 0 0 1 5.709-2.854c1.816-.865 3.243-1.297 4.281-1.297 5.449 0 9.774 1.513 12.974 4.541 3.2 3.027 4.801 7.092 4.801 12.195 0 1.125-.087 2.984-.26 5.579a606.611 606.611 0 0 1-.649 8.693c-.259 3.2-.475 6.27-.648 9.211-.173 2.941-.26 5.363-.26 7.266 0 2.508.346 4.367 1.038 5.578.692 1.125 1.86 1.687 3.503 1.687a37.9 37.9 0 0 0 2.854-.13l1.687-.129.259.518-1.037 5.579-1.168-.129c-.692 0-1.643-.044-2.854-.13-1.125 0-2.379-.043-3.763-.13h-3.762c-1.384 0-2.855.087-4.411.26-1.471.173-2.898.346-4.282.519-1.384.173-2.508.345-3.373.518l-1.298.26.519-5.319ZM590.228 529.608c-5.449 0-10.206-1.211-14.272-3.633-4.065-2.422-7.265-5.752-9.6-9.99-2.249-4.324-3.374-9.341-3.374-15.05 0-4.411.736-8.606 2.206-12.584 1.557-3.979 3.676-7.482 6.357-10.509 2.682-3.114 5.709-5.536 9.082-7.266 3.46-1.816 7.136-2.724 11.028-2.724 12.887 0 19.331 6.27 19.331 18.812 0 1.124-.086 2.292-.259 3.503-.173 1.211-.346 2.162-.519 2.854l-1.687 1.557h-35.808c-.087 7.698 1.297 13.796 4.152 18.294 2.94 4.411 7.049 7.005 12.325 7.784 5.276.692 11.504-.606 18.682-3.892l.779.259 1.427 3.763c-1.73 1.211-3.806 2.508-6.228 3.892a49.496 49.496 0 0 1-7.135 3.503c-2.422.951-4.584 1.427-6.487 1.427Zm-16.996-39.83 23.483-1.168c1.297-.173 2.162-.476 2.595-.908.432-.433.648-1.297.648-2.595 0-3.46-.951-6.098-2.854-7.914-1.816-1.816-4.454-2.725-7.914-2.725-3.979 0-7.439 1.384-10.379 4.152-2.941 2.681-4.801 6.401-5.579 11.158ZM711.143 483.363v-1.371h17.709c3.817 0 7.037-.755 9.66-2.266 2.624-1.55 4.631-3.816 6.023-6.798 1.391-3.021 2.087-6.757 2.087-11.21 0-4.452-.696-8.189-2.087-11.21-1.392-3.021-3.399-5.307-6.023-6.857-2.623-1.55-5.843-2.326-9.66-2.326h-39.235V439h40.07c6.162 0 11.548.815 16.159 2.445 4.651 1.63 8.249 4.134 10.793 7.513 2.584 3.339 3.876 7.593 3.876 12.76 0 5.168-1.213 9.342-3.637 12.522-2.386 3.18-5.884 5.506-10.495 6.977-4.571 1.431-10.137 2.146-16.696 2.146h-18.544Zm-21.526 45.079v-2.325h38.997v2.325h-38.997Zm12.82-1.252v-86.699h13.357v86.699h-13.357Zm56.468 1.908c-3.617 0-6.46-.616-8.527-1.849-2.027-1.272-3.518-2.961-4.472-5.068-.914-2.147-1.491-4.552-1.729-7.215a109.418 109.418 0 0 1-.418-8.229 91.038 91.038 0 0 0-.477-8.228c-.238-2.664-.834-5.049-1.788-7.156-.915-2.146-2.405-3.856-4.473-5.128-2.067-1.272-4.929-1.908-8.586-1.908h-17.292v-1.252h21.645c5.645 0 10.117.795 13.416 2.385 3.339 1.551 5.844 3.618 7.513 6.202 1.67 2.544 2.783 5.366 3.339 8.467.597 3.061.915 6.141.955 9.242a255.7 255.7 0 0 0 .238 8.467c.159 2.544.596 4.592 1.312 6.142.755 1.55 2.146 2.325 4.174 2.325 1.232 0 2.345-.119 3.339-.357 1.034-.279 1.948-.616 2.743-1.014l.835 2.206c-.954.517-2.485.974-4.592 1.372-2.107.397-4.492.596-7.155.596ZM821.567 529.635c-2.067 0-3.955-.338-5.664-1.014a8.352 8.352 0 0 1-4.055-3.339c-.994-1.551-1.491-3.598-1.491-6.142v-27.011c0-2.863-.258-5.605-.775-8.229-.517-2.624-1.55-4.77-3.1-6.44-1.551-1.67-3.916-2.504-7.096-2.504-1.749 0-3.598.198-5.546.596a21.97 21.97 0 0 0-5.366 1.848c-1.67.795-3.041 1.829-4.114 3.101-1.034 1.232-1.551 2.723-1.551 4.472h-2.802c0-2.146.735-3.856 2.206-5.128 1.511-1.312 3.18-1.968 5.009-1.968 1.948 0 3.697.597 5.247 1.789 1.59 1.193 2.385 2.882 2.385 5.069 0 2.504-.815 4.353-2.445 5.545-1.59 1.153-3.319 1.729-5.187 1.729-2.067 0-3.816-.596-5.248-1.789-1.391-1.232-2.087-2.981-2.087-5.247 0-1.987.617-3.736 1.849-5.247 1.232-1.511 2.882-2.783 4.949-3.816 2.107-1.074 4.452-1.888 7.036-2.445a38.37 38.37 0 0 1 7.99-.835c5.645 0 9.958.934 12.94 2.803 2.981 1.828 5.028 4.233 6.141 7.215 1.113 2.981 1.67 6.141 1.67 9.481v29.158c0 1.311.238 2.425.715 3.339.477.914 1.451 1.371 2.922 1.371 1.034 0 2.187-.417 3.459-1.252a8.502 8.502 0 0 0 3.041-3.339l1.192 1.968c-1.073 1.868-2.663 3.379-4.77 4.531-2.067 1.153-4.552 1.73-7.454 1.73Zm-28.859 0c-5.168 0-9.302-1.312-12.403-3.936-3.061-2.663-4.591-6.261-4.591-10.793 0-5.326 2.285-9.5 6.857-12.521 4.611-3.061 11.15-4.592 19.617-4.592h13.715v2.028h-12.641c-3.379 0-6.102.735-8.169 2.206-2.028 1.431-3.518 3.22-4.472 5.366-.955 2.147-1.432 4.274-1.432 6.381 0 1.947.279 3.796.835 5.545.597 1.749 1.511 3.2 2.743 4.353 1.232 1.113 2.842 1.669 4.83 1.669 2.027 0 4.015-.695 5.963-2.087 1.948-1.391 3.558-3.458 4.83-6.201 1.312-2.743 1.967-6.201 1.967-10.375h1.372c0 4.532-.755 8.527-2.266 11.985-1.471 3.458-3.617 6.162-6.44 8.109-2.822 1.909-6.261 2.863-10.315 2.863ZM862.718 559.449c-3.657 0-7.115-.299-10.375-.895-3.22-.596-6.082-1.55-8.586-2.862-2.505-1.272-4.473-2.922-5.904-4.949-1.431-1.988-2.146-4.393-2.146-7.215 0-2.624.616-4.83 1.848-6.619 1.233-1.789 2.763-3.22 4.592-4.293 1.868-1.034 3.756-1.769 5.664-2.206 1.908-.438 3.538-.656 4.89-.656h1.729c-2.425 1.232-4.194 2.902-5.307 5.009-1.113 2.106-1.67 4.571-1.67 7.393 0 2.545.656 4.93 1.968 7.156 1.312 2.266 3.24 4.094 5.784 5.486 2.584 1.391 5.784 2.087 9.6 2.087 2.862 0 5.566-.358 8.11-1.074 2.544-.675 4.77-1.669 6.678-2.981 1.948-1.312 3.478-2.962 4.591-4.949 1.113-1.948 1.67-4.194 1.67-6.738 0-2.346-.636-4.313-1.908-5.903-1.272-1.59-2.982-2.803-5.128-3.638-2.107-.834-4.452-1.252-7.036-1.252h-13.834c-5.605 0-10.077-.795-13.416-2.385-3.339-1.59-5.009-4.234-5.009-7.931 0-2.226.636-4.154 1.908-5.783 1.272-1.63 2.981-2.982 5.128-4.055 2.147-1.073 4.552-1.868 7.215-2.385a40.09 40.09 0 0 1 8.229-.835l-.12 1.55c-1.232 0-2.623.159-4.174.477-1.51.279-2.961.716-4.352 1.312-1.392.596-2.544 1.332-3.459 2.206-.874.875-1.312 1.849-1.312 2.922 0 1.948 1.054 3.141 3.161 3.578 2.107.437 4.79.656 8.049.656h3.876c1.233-.04 2.405-.06 3.518-.06 1.153-.04 2.306-.06 3.459-.06 2.226 0 4.512.219 6.857.656a17.514 17.514 0 0 1 6.499 2.624c1.988 1.272 3.598 3.14 4.83 5.605 1.233 2.465 1.849 5.724 1.849 9.779 0 3.816-.775 7.056-2.326 9.719-1.55 2.704-3.657 4.89-6.32 6.559-2.664 1.71-5.665 2.962-9.004 3.757a44.388 44.388 0 0 1-10.316 1.193Zm-1.848-50.446c-2.544 0-5.108-.338-7.692-1.013a24.92 24.92 0 0 1-7.215-3.161 17.226 17.226 0 0 1-5.307-5.664c-1.312-2.346-1.968-5.168-1.968-8.468 0-3.299.656-6.101 1.968-8.407 1.351-2.345 3.12-4.234 5.307-5.665a24.918 24.918 0 0 1 7.215-3.16c2.584-.676 5.148-1.014 7.692-1.014 2.504 0 5.028.338 7.573 1.014 2.583.676 4.929 1.729 7.036 3.16 2.106 1.431 3.796 3.32 5.068 5.665 1.312 2.306 1.968 5.108 1.968 8.407 0 3.3-.656 6.122-1.968 8.468-1.272 2.305-2.962 4.194-5.068 5.664-2.107 1.431-4.453 2.485-7.036 3.161-2.545.675-5.069 1.013-7.573 1.013Zm0-2.325c2.146 0 3.915-.716 5.307-2.147 1.391-1.431 2.425-3.339 3.1-5.724.676-2.425 1.014-5.128 1.014-8.11 0-3.021-.338-5.724-1.014-8.109-.675-2.425-1.709-4.333-3.1-5.724-1.392-1.392-3.161-2.087-5.307-2.087-2.187 0-3.975.695-5.367 2.087-1.351 1.391-2.385 3.299-3.1 5.724-.676 2.385-1.014 5.088-1.014 8.109 0 2.982.199 5.685.596 8.11.398 2.385 1.252 4.293 2.564 5.724 1.352 1.431 3.459 2.147 6.321 2.147Zm33.391-17.292c-1.629 0-3.12-.557-4.472-1.67-1.311-1.113-1.967-2.703-1.967-4.77 0-2.107.675-3.618 2.027-4.532 1.391-.954 2.862-1.431 4.412-1.431 1.551 0 3.041.477 4.473 1.431 1.431.914 2.146 2.246 2.146 3.995h-2.266c0-1.789-.695-3.418-2.087-4.889-1.391-1.511-3.339-2.266-5.843-2.266-1.511 0-3.18.358-5.009 1.073-1.789.676-3.478 1.928-5.068 3.757-1.59 1.789-2.783 4.333-3.578 7.632l-1.67-1.192c.795-3.459 2.067-6.162 3.817-8.11 1.788-1.987 3.697-3.379 5.724-4.174 2.067-.835 3.935-1.252 5.605-1.252 2.107 0 3.935.457 5.486 1.371 1.59.915 2.822 2.107 3.697 3.578.874 1.431 1.311 2.922 1.311 4.472 0 2.664-.715 4.492-2.146 5.486-1.431.994-2.962 1.491-4.592 1.491ZM906.712 529.635v-17.829h2.385c.636 2.941 1.848 5.565 3.637 7.871a19.856 19.856 0 0 0 6.559 5.485c2.584 1.312 5.367 1.968 8.348 1.968 2.266 0 4.373-.338 6.321-1.013 1.947-.716 3.518-1.769 4.71-3.161 1.193-1.391 1.789-3.18 1.789-5.366 0-2.385-.775-4.274-2.325-5.665-1.551-1.391-3.558-2.544-6.023-3.458a155.644 155.644 0 0 0-7.751-2.803 51.656 51.656 0 0 1-7.752-3.339c-2.425-1.312-4.413-3.061-5.963-5.247-1.55-2.187-2.325-5.069-2.325-8.646 0-2.704.616-5.268 1.848-7.692 1.232-2.425 3.081-4.393 5.545-5.904 2.505-1.55 5.645-2.325 9.422-2.325 2.703 0 5.167.457 7.394 1.371 2.265.875 4.253 2.028 5.962 3.459l4.949-4.89h2.087v16.637h-2.385c-.437-2.386-1.451-4.651-3.041-6.798-1.55-2.147-3.597-3.896-6.141-5.247-2.505-1.392-5.407-2.087-8.706-2.087-1.868 0-3.578.318-5.128.954-1.511.636-2.743 1.55-3.697 2.743-.914 1.192-1.371 2.603-1.371 4.233 0 2.107.814 3.836 2.444 5.188 1.63 1.312 3.717 2.464 6.261 3.458 2.544.954 5.228 1.928 8.05 2.922a49.47 49.47 0 0 1 8.109 3.518c2.584 1.391 4.671 3.18 6.261 5.367 1.63 2.186 2.445 4.969 2.445 8.348 0 3.696-.914 6.897-2.743 9.6-1.789 2.703-4.194 4.77-7.215 6.201s-6.38 2.147-10.077 2.147c-2.822 0-5.486-.477-7.99-1.431-2.504-.955-4.731-2.286-6.678-3.996l-5.188 5.427h-2.027ZM974.256 529.277c-3.418 0-6.002-.696-7.751-2.087-1.75-1.431-2.942-3.22-3.578-5.367a24.424 24.424 0 0 1-.954-6.857v-53.307c2.027 0 4.233-.358 6.619-1.074 2.385-.715 4.293-1.55 5.724-2.504v59.449c0 2.982.358 5.009 1.073 6.082.755 1.034 1.968 1.55 3.637 1.55 1.829 0 3.598-.795 5.307-2.385 1.749-1.629 3.18-3.557 4.294-5.784l1.967 1.193c-1.55 3.299-3.637 5.983-6.261 8.05-2.584 2.027-5.943 3.041-10.077 3.041Zm-20.393-53.367v-2.326h33.213v2.326h-33.213ZM1022.88 529.635c-5.72 0-10.67-1.312-14.85-3.936-4.17-2.623-7.39-6.102-9.657-10.435-2.266-4.333-3.399-9.083-3.399-14.251 0-5.168 1.133-9.918 3.399-14.251 2.267-4.333 5.487-7.791 9.657-10.375 4.18-2.624 9.13-3.936 14.85-3.936 5.68 0 10.59 1.312 14.73 3.936 4.17 2.584 7.37 6.042 9.6 10.375 2.26 4.333 3.4 9.083 3.4 14.251 0 5.168-1.14 9.918-3.4 14.251-2.23 4.333-5.43 7.812-9.6 10.435-4.14 2.624-9.05 3.936-14.73 3.936Zm0-2.326c2.86 0 5.23-.795 7.1-2.385 1.86-1.59 3.3-3.677 4.29-6.261.99-2.584 1.67-5.426 2.03-8.527.39-3.1.59-6.141.59-9.123 0-3.021-.2-6.062-.59-9.123-.36-3.101-1.04-5.943-2.03-8.527-.99-2.584-2.43-4.671-4.29-6.261-1.87-1.59-4.24-2.385-7.1-2.385-2.94 0-5.35.795-7.21 2.385-1.83 1.59-3.24 3.677-4.24 6.261-.99 2.584-1.69 5.426-2.09 8.527a80.263 80.263 0 0 0-.53 9.123c0 2.982.18 6.023.53 9.123.4 3.101 1.1 5.943 2.09 8.527 1 2.584 2.41 4.671 4.24 6.261 1.86 1.59 4.27 2.385 7.21 2.385ZM1077.32 473.584v52.533h7.28v2.325h-27.31v-2.325h7.93V475.91h-7.93v-2.326h20.03Zm36.37 16.756v35.777h7.87v2.325h-27.36v-2.325h7.33v-34.048c0-3.339-.16-6.201-.48-8.586-.28-2.425-.91-4.274-1.91-5.546-.95-1.312-2.44-1.968-4.47-1.968-2.94 0-5.5.835-7.69 2.505-2.19 1.669-3.99 3.816-5.43 6.44a35.84 35.84 0 0 0-3.16 8.407c-.71 2.982-1.07 5.784-1.07 8.408l-1.55.238c0-2.703.34-5.724 1.01-9.063a36.091 36.091 0 0 1 3.46-9.72c1.63-3.14 3.82-5.704 6.56-7.692 2.78-2.027 6.28-3.041 10.5-3.041 4.57 0 8.03.775 10.37 2.326 2.35 1.55 3.94 3.677 4.77 6.38.84 2.663 1.25 5.724 1.25 9.183ZM1155.79 529.635c-5.21 0-9.9-1.133-14.07-3.399-4.14-2.266-7.44-5.526-9.9-9.779-2.43-4.293-3.64-9.441-3.64-15.444 0-6.002 1.15-11.13 3.46-15.384 2.31-4.293 5.49-7.553 9.54-9.779 4.06-2.266 8.71-3.399 13.95-3.399 5.77 0 10.42 1.153 13.96 3.459 3.53 2.305 6.1 5.346 7.69 9.123 1.63 3.737 2.44 7.771 2.44 12.104h-42.99v-2.325h28.98c0-2.107-.1-4.313-.3-6.619-.2-2.345-.63-4.532-1.31-6.559-.67-2.027-1.69-3.677-3.04-4.949-1.31-1.312-3.12-1.968-5.43-1.968-2.62 0-4.79.716-6.5 2.147-1.67 1.391-2.98 3.299-3.93 5.724-.95 2.425-1.61 5.188-1.97 8.288a84.853 84.853 0 0 0-.54 9.779c0 3.538.22 6.897.66 10.078.44 3.18 1.19 5.982 2.27 8.407 1.11 2.425 2.62 4.353 4.53 5.784 1.95 1.391 4.41 2.087 7.39 2.087 5.25 0 9.58-1.352 13-4.055 3.42-2.703 5.86-6.122 7.34-10.256h2.68c-1.55 4.85-4.31 8.885-8.29 12.105-3.97 3.22-9.3 4.83-15.98 4.83ZM1290.76 534.37v-8.319h-10.37v-33.156h14.35c7.83 0 15.43 1.206 15.43 10.128v31.347h21.58v-8.319h-10.13v-24.113c0-7.234-4.58-12.78-11.45-12.78v-.241c9.28-4.1 14.83-9.043 14.83-19.894 0-13.262-8.8-21.461-24.23-21.702h-42.08v8.319h10.25v70.411h-10.25v8.319h32.07Zm-10.37-78.73h12.78c9.4 0 20.38 1.447 20.38 13.263 0 12.177-9.77 15.673-20.38 15.673h-12.78V455.64ZM1395.29 486.747h9.4v-8.078h-18.56v8.439h-.37c-3.85-5.546-11.81-9.645-18.93-9.645-17.24 0-27.6 12.659-27.6 28.936 0 16.276 10.36 29.177 27.6 29.177 7.12 0 15.08-3.979 18.93-9.645h.37v8.439h18.56v-8.078h-9.4v-39.545Zm-45.7 19.652c0-10.369 5.55-20.738 18.21-20.738 9.04 0 18.08 7.476 18.08 20.738s-9.04 20.978-18.08 20.978c-12.66 0-18.21-10.248-18.21-20.978ZM1470.32 486.747h9.65v-8.078h-19.17v7.957h-.25c-4.46-5.787-11.69-9.163-19.17-9.163-18.68 0-27.73 15.191-27.73 29.177 0 13.986 9.05 28.936 27.73 28.936 9.53 0 17.61-6.028 18.33-9.284h.24v6.632c0 13.744-6.99 18.205-18.08 18.326-6.27 0-13.27-2.412-15.56-8.44h-11.81c3.86 11.454 15.55 16.638 26.88 16.638 18.93 0 28.94-8.56 28.94-27.851v-44.85Zm-28.09-1.086c11.33 0 17.72 7.958 17.72 20.979 0 13.262-10.49 20.737-17.72 20.737-12.06 0-18.21-10.851-18.21-20.737 0-14.227 8.8-20.979 18.21-20.979ZM1497.25 528.824c4.7 5.305 12.29 6.752 19.17 6.752 11.09 0 21.7-4.702 21.7-17.12 0-23.993-39.55-11.213-39.55-25.199 0-6.269 5.79-7.596 12.9-7.596 3.26 0 6.27.965 8.8 2.653 2.66 1.688 4.59 4.22 5.55 7.354h8.56v-16.999h-8.08v5.184c-4.7-3.979-10.73-6.39-16.88-6.39-10.24 0-20.25 4.461-20.25 16.035 0 26.645 39.54 11.575 39.54 25.802 0 7.595-8.8 8.077-13.62 8.077-6.63 0-15.31-3.014-17.84-11.092h-8.08v18.085h8.08v-5.546ZM1566.93 478.669v-19.291h-10.36v19.291h-9.53v8.078h9.53v34.24c0 11.937 2.29 14.589 11.93 14.589 3.02 0 6.03-.362 8.92-1.206v-8.319c-1.68.121-3.49.362-5.18.362-4.22 0-5.31-.482-5.31-8.199v-31.467h10.61v-8.078h-10.61ZM1587.07 506.519c0 15.795 10.97 29.057 29.78 29.057 18.81 0 29.78-13.262 29.78-29.057 0-15.794-10.97-29.056-29.78-29.056-18.81 0-29.78 13.262-29.78 29.056Zm29.78-20.858c11.69 0 19.41 8.44 19.41 20.858 0 12.419-7.72 20.858-19.41 20.858-11.7 0-19.41-8.439-19.41-20.858 0-12.418 7.71-20.858 19.41-20.858ZM1673.84 478.669h-19.66v8.078h9.29v39.545h-9.29v8.078H1683v-8.078h-9.16v-30.865c5.54-5.184 10.97-9.283 18.93-9.283 4.94 0 7.71 4.22 7.71 10.007v30.141h-9.52v8.078h28.45v-8.078h-8.56v-32.673c0-10.61-8.32-16.156-17.12-16.156-6.87 0-15.43 4.702-19.89 9.645v-8.439ZM1786.49 510.016c0-18.326-11.82-32.553-29.3-32.553-16.16 0-29.42 12.659-29.42 29.298 0 16.638 13.26 28.815 28.69 28.815 12.91 0 25.81-6.752 28.82-17.362h-10.25c-3.25 5.546-10.01 9.163-18.45 9.163-8.56 0-17.48-6.51-18.44-17.361h48.35Zm-48.35-8.078c.96-9.043 9.4-16.277 18.93-16.277 9.76 0 19.05 7.476 19.05 16.277h-37.98Z"/><path fill="#1A73E8" d="M877.722 946.736h-10.8L865.086 953h-3.24l7.632-25.2h5.688l7.632 25.2h-3.24l-1.836-6.264Zm-5.616-17.64-4.356 14.832h9.144l-4.356-14.832h-.432ZM886.481 927.8h3.024v22.392h13.176V953h-16.2v-25.2ZM908.524 927.8h3.024v22.392h13.176V953h-16.2v-25.2ZM966.434 935.072c0-.816-.168-1.536-.504-2.16a4.27 4.27 0 0 0-1.296-1.548 6.154 6.154 0 0 0-1.908-.936 7.85 7.85 0 0 0-2.268-.324c-.696 0-1.356.096-1.98.288a5.694 5.694 0 0 0-1.692.756c-.48.336-.864.756-1.152 1.26-.288.48-.432 1.044-.432 1.692v.216c0 .696.144 1.296.432 1.8.288.48.708.9 1.26 1.26.576.336 1.284.624 2.124.864.84.216 1.824.408 2.952.576 2.64.408 4.584 1.188 5.832 2.34 1.248 1.128 1.872 2.652 1.872 4.572v.432c0 1.08-.192 2.076-.576 2.988a6.023 6.023 0 0 1-1.656 2.304c-.72.648-1.62 1.152-2.7 1.512-1.08.36-2.328.54-3.744.54-1.608 0-3.036-.228-4.284-.684-1.224-.48-2.256-1.128-3.096-1.944a8.68 8.68 0 0 1-1.872-2.916c-.432-1.128-.648-2.352-.648-3.672v-1.08h3.024v.864c0 2.208.6 3.864 1.8 4.968 1.224 1.104 2.916 1.656 5.076 1.656 1.872 0 3.276-.408 4.212-1.224.96-.84 1.44-1.944 1.44-3.312v-.216c0-1.32-.492-2.328-1.476-3.024-.96-.696-2.532-1.2-4.716-1.512-1.272-.168-2.424-.42-3.456-.756-1.008-.36-1.872-.816-2.592-1.368a5.91 5.91 0 0 1-1.656-2.052c-.384-.792-.576-1.728-.576-2.808v-.432c0-.984.204-1.884.612-2.7a6.563 6.563 0 0 1 1.692-2.124c.744-.6 1.62-1.056 2.628-1.368 1.032-.336 2.16-.504 3.384-.504 1.416 0 2.676.204 3.78.612 1.128.408 2.076.96 2.844 1.656a6.386 6.386 0 0 1 1.728 2.412c.408.912.612 1.872.612 2.88v1.512h-3.024v-1.296ZM974.905 927.8h15.264v2.808h-12.24v8.352h12.024v2.808h-12.024v8.424h12.456V953h-15.48v-25.2ZM1012.46 953h-3.02v-8.424c0-.624-.14-1.104-.43-1.44-.29-.336-.79-.504-1.51-.504h-7.852V953h-3.024v-25.2h8.996c1.3 0 2.43.192 3.39.576.96.36 1.75.852 2.37 1.476a5.783 5.783 0 0 1 1.44 2.196c.34.816.51 1.68.51 2.592v1.08c0 .936-.27 1.872-.79 2.808-.51.936-1.3 1.656-2.38 2.16v.432c.72.12 1.28.408 1.69.864.41.456.61 1.104.61 1.944V953Zm-12.812-13.176h5.612c1.71 0 2.97-.36 3.78-1.08.84-.744 1.26-1.824 1.26-3.24v-.648c0-1.272-.42-2.292-1.26-3.06-.81-.792-2.07-1.188-3.78-1.188h-5.612v9.216ZM1018.63 927.8h15.98v2.808h-6.48v19.584h6.48V953h-15.98v-2.808h6.48v-19.584h-6.48V927.8ZM1041.07 927.8h15.48v2.808h-12.46v8.352h12.24v2.808h-12.24V953h-3.02v-25.2Z"/></svg>