<svg width="1920" height="1080" viewBox="0 0 1920 1080" fill="none" xmlns="http://www.w3.org/2000/svg">
<path d="M146.826 535.391V456.289H171.546C175.565 456.289 179.263 456.691 182.639 457.495C186.096 458.218 189.03 459.464 191.442 461.233C193.934 463.001 195.863 465.293 197.23 468.106C198.596 470.92 199.28 474.376 199.28 478.476C199.28 484.666 197.672 489.61 194.456 493.308C191.241 497.006 186.9 499.538 181.433 500.905L201.571 535.391H190.236L171.184 501.99H156.835V535.391H146.826ZM156.835 493.79H170.099C176.289 493.79 181.031 492.544 184.327 490.052C187.623 487.48 189.271 483.621 189.271 478.476C189.271 473.251 187.623 469.593 184.327 467.503C181.031 465.413 176.289 464.368 170.099 464.368H156.835V493.79Z" fill="#3C4043"/>
<path d="M227.548 536.838C222.644 536.838 218.544 535.391 215.248 532.497C212.033 529.603 210.425 525.503 210.425 520.198C210.425 513.767 213.279 508.863 218.986 505.487C224.694 502.03 233.818 499.618 246.359 498.252C246.359 496.403 246.158 494.594 245.756 492.826C245.434 491.057 244.831 489.489 243.947 488.123C243.063 486.756 241.817 485.671 240.209 484.867C238.681 483.983 236.712 483.541 234.3 483.541C230.924 483.541 227.749 484.184 224.774 485.47C221.8 486.756 219.147 488.203 216.816 489.811L212.957 482.938C215.69 481.169 219.027 479.481 222.966 477.873C226.905 476.185 231.246 475.341 235.988 475.341C243.143 475.341 248.328 477.552 251.544 481.973C254.759 486.314 256.367 492.142 256.367 499.458V535.391H248.167L247.323 528.397H246.961C244.148 530.729 241.133 532.738 237.918 534.427C234.702 536.034 231.246 536.838 227.548 536.838ZM230.442 528.88C233.255 528.88 235.908 528.237 238.4 526.95C240.892 525.584 243.545 523.614 246.359 521.042V504.763C241.455 505.406 237.315 506.17 233.939 507.054C230.643 507.939 227.95 508.984 225.86 510.189C223.85 511.395 222.363 512.802 221.398 514.41C220.514 515.937 220.072 517.625 220.072 519.474C220.072 522.851 221.076 525.262 223.086 526.709C225.096 528.156 227.548 528.88 230.442 528.88Z" fill="#3C4043"/>
<path d="M294.58 562.402C290.963 562.402 287.667 562.04 284.693 561.316C281.718 560.673 279.146 559.669 276.975 558.302C274.885 556.935 273.237 555.287 272.031 553.358C270.906 551.429 270.343 549.178 270.343 546.605C270.343 544.113 271.107 541.742 272.634 539.491C274.162 537.24 276.252 535.19 278.905 533.341V532.859C277.458 531.975 276.212 530.769 275.166 529.242C274.202 527.634 273.719 525.664 273.719 523.333C273.719 520.841 274.403 518.67 275.769 516.822C277.136 514.973 278.583 513.526 280.11 512.481V511.998C278.181 510.39 276.413 508.26 274.805 505.607C273.277 502.874 272.514 499.739 272.514 496.202C272.514 492.986 273.076 490.092 274.202 487.52C275.408 484.948 277.015 482.777 279.025 481.008C281.035 479.16 283.366 477.753 286.019 476.788C288.752 475.823 291.606 475.341 294.58 475.341C296.188 475.341 297.675 475.502 299.042 475.823C300.489 476.065 301.775 476.386 302.9 476.788H323.279V484.385H311.221C312.587 485.751 313.713 487.48 314.597 489.57C315.562 491.66 316.044 493.951 316.044 496.443C316.044 499.578 315.481 502.432 314.356 505.004C313.23 507.496 311.703 509.627 309.774 511.395C307.844 513.083 305.553 514.41 302.9 515.375C300.328 516.339 297.555 516.822 294.58 516.822C293.133 516.822 291.646 516.661 290.119 516.339C288.591 515.937 287.144 515.415 285.778 514.772C284.733 515.656 283.848 516.661 283.125 517.786C282.401 518.831 282.04 520.158 282.04 521.765C282.04 523.614 282.763 525.142 284.21 526.348C285.657 527.553 288.39 528.156 292.41 528.156H303.745C310.578 528.156 315.682 529.282 319.059 531.533C322.515 533.703 324.244 537.24 324.244 542.144C324.244 544.877 323.56 547.449 322.194 549.861C320.827 552.353 318.858 554.524 316.285 556.373C313.713 558.222 310.578 559.669 306.88 560.714C303.262 561.839 299.162 562.402 294.58 562.402ZM294.58 510.189C296.268 510.189 297.836 509.868 299.283 509.225C300.81 508.582 302.137 507.657 303.262 506.451C304.468 505.246 305.393 503.799 306.036 502.11C306.679 500.342 307 498.372 307 496.202C307 491.861 305.794 488.525 303.383 486.194C300.971 483.782 298.037 482.576 294.58 482.576C291.124 482.576 288.189 483.782 285.778 486.194C283.366 488.525 282.16 491.861 282.16 496.202C282.16 498.372 282.482 500.342 283.125 502.11C283.768 503.799 284.652 505.246 285.778 506.451C286.984 507.657 288.31 508.582 289.757 509.225C291.284 509.868 292.892 510.189 294.58 510.189ZM296.027 555.528C298.841 555.528 301.373 555.167 303.624 554.443C305.955 553.8 307.925 552.916 309.533 551.79C311.14 550.745 312.386 549.499 313.271 548.052C314.155 546.605 314.597 545.118 314.597 543.591C314.597 540.858 313.592 538.968 311.582 537.923C309.573 536.878 306.639 536.356 302.78 536.356H292.651C291.526 536.356 290.28 536.275 288.913 536.115C287.627 536.034 286.34 535.793 285.054 535.391C282.964 536.919 281.437 538.526 280.472 540.215C279.507 541.903 279.025 543.591 279.025 545.279C279.025 548.414 280.512 550.906 283.487 552.755C286.541 554.604 290.722 555.528 296.027 555.528Z" fill="#3C4043"/>
<path d="M350.881 536.838C346.701 536.838 342.722 536.075 338.943 534.547C335.165 533.02 331.869 531.09 329.056 528.759L333.999 522.127C336.572 524.217 339.185 525.905 341.837 527.192C344.571 528.478 347.706 529.121 351.243 529.121C355.101 529.121 357.995 528.237 359.925 526.468C361.854 524.7 362.819 522.529 362.819 519.957C362.819 518.429 362.417 517.103 361.613 515.977C360.809 514.852 359.764 513.887 358.478 513.083C357.272 512.199 355.865 511.435 354.257 510.792C352.65 510.149 351.042 509.506 349.434 508.863C347.344 508.14 345.254 507.336 343.164 506.451C341.074 505.487 339.185 504.361 337.496 503.075C335.889 501.708 334.562 500.141 333.517 498.372C332.472 496.604 331.95 494.474 331.95 491.981C331.95 489.65 332.392 487.48 333.276 485.47C334.241 483.38 335.567 481.611 337.255 480.164C339.024 478.637 341.154 477.471 343.646 476.668C346.138 475.783 348.952 475.341 352.087 475.341C355.785 475.341 359.161 475.984 362.216 477.27C365.351 478.557 368.044 480.124 370.295 481.973L365.592 488.243C363.582 486.716 361.492 485.47 359.322 484.505C357.151 483.541 354.78 483.058 352.207 483.058C348.51 483.058 345.776 483.902 344.008 485.591C342.32 487.279 341.476 489.248 341.476 491.499C341.476 492.866 341.837 494.072 342.561 495.117C343.284 496.081 344.249 496.966 345.455 497.769C346.661 498.493 348.027 499.176 349.555 499.819C351.162 500.382 352.81 500.985 354.499 501.628C356.589 502.432 358.679 503.276 360.769 504.16C362.939 505.045 364.869 506.17 366.557 507.537C368.245 508.823 369.612 510.431 370.657 512.36C371.782 514.289 372.345 516.621 372.345 519.354C372.345 521.765 371.862 524.016 370.898 526.106C370.013 528.196 368.647 530.045 366.798 531.653C365.029 533.261 362.779 534.507 360.045 535.391C357.392 536.356 354.338 536.838 350.881 536.838Z" fill="#3C4043"/>
<path d="M402.179 536.838C399.043 536.838 396.391 536.356 394.22 535.391C392.13 534.427 390.402 533.1 389.035 531.412C387.749 529.724 386.824 527.674 386.262 525.262C385.699 522.851 385.418 520.198 385.418 517.304V484.867H376.736V477.391L385.9 476.788L387.106 460.389H395.426V476.788H411.222V484.867H395.426V517.424C395.426 521.042 396.069 523.855 397.355 525.865C398.722 527.795 401.093 528.759 404.47 528.759C405.515 528.759 406.64 528.598 407.846 528.277C409.052 527.955 410.137 527.594 411.102 527.192L413.031 534.668C411.423 535.23 409.655 535.713 407.725 536.115C405.876 536.597 404.027 536.838 402.179 536.838Z" fill="#3C4043"/>
<path d="M445.615 536.838C441.997 536.838 438.54 536.155 435.245 534.788C432.029 533.422 429.175 531.452 426.683 528.88C424.191 526.227 422.181 523.011 420.654 519.233C419.207 515.375 418.484 511.034 418.484 506.21C418.484 501.307 419.207 496.966 420.654 493.187C422.181 489.329 424.191 486.073 426.683 483.42C429.175 480.767 432.029 478.758 435.245 477.391C438.54 476.024 441.997 475.341 445.615 475.341C449.232 475.341 452.649 476.024 455.864 477.391C459.16 478.758 462.054 480.767 464.546 483.42C467.038 486.073 469.008 489.329 470.455 493.187C471.982 496.966 472.746 501.307 472.746 506.21C472.746 511.034 471.982 515.375 470.455 519.233C469.008 523.011 467.038 526.227 464.546 528.88C462.054 531.452 459.16 533.422 455.864 534.788C452.649 536.155 449.232 536.838 445.615 536.838ZM445.615 528.639C448.107 528.639 450.398 528.116 452.488 527.071C454.578 525.946 456.346 524.418 457.793 522.489C459.321 520.479 460.486 518.108 461.29 515.375C462.094 512.641 462.496 509.587 462.496 506.21C462.496 502.834 462.094 499.779 461.29 497.046C460.486 494.232 459.321 491.821 457.793 489.811C456.346 487.801 454.578 486.274 452.488 485.229C450.398 484.103 448.107 483.541 445.615 483.541C443.123 483.541 440.832 484.103 438.741 485.229C436.651 486.274 434.843 487.801 433.315 489.811C431.868 491.821 430.743 494.232 429.939 497.046C429.135 499.779 428.733 502.834 428.733 506.21C428.733 509.587 429.135 512.641 429.939 515.375C430.743 518.108 431.868 520.479 433.315 522.489C434.843 524.418 436.651 525.946 438.741 527.071C440.832 528.116 443.123 528.639 445.615 528.639Z" fill="#3C4043"/>
<path d="M488.179 535.391V476.788H496.379L497.223 485.229H497.585C500.398 482.415 503.333 480.084 506.387 478.235C509.522 476.306 513.14 475.341 517.24 475.341C523.43 475.341 527.931 477.27 530.745 481.129C533.639 484.988 535.086 490.695 535.086 498.252V535.391H525.198V499.578C525.198 494.031 524.314 490.052 522.545 487.641C520.777 485.148 517.963 483.902 514.105 483.902C511.05 483.902 508.357 484.666 506.026 486.194C503.694 487.721 501.041 489.972 498.067 492.946V535.391H488.179Z" fill="#3C4043"/>
<path d="M577.878 536.838C573.939 536.838 570.241 536.155 566.784 534.788C563.408 533.341 560.433 531.332 557.861 528.759C555.369 526.106 553.399 522.891 551.952 519.113C550.505 515.334 549.782 511.034 549.782 506.21C549.782 501.387 550.505 497.086 551.952 493.308C553.48 489.449 555.449 486.194 557.861 483.541C560.353 480.888 563.167 478.878 566.302 477.512C569.437 476.065 572.693 475.341 576.069 475.341C579.767 475.341 583.063 475.984 585.957 477.27C588.931 478.557 591.383 480.406 593.312 482.817C595.322 485.229 596.849 488.123 597.894 491.499C598.939 494.875 599.462 498.654 599.462 502.834C599.462 503.879 599.422 504.924 599.341 505.969C599.341 506.934 599.261 507.778 599.1 508.501H559.549C559.951 514.772 561.88 519.756 565.337 523.454C568.874 527.071 573.456 528.88 579.084 528.88C581.897 528.88 584.47 528.478 586.801 527.674C589.212 526.79 591.504 525.664 593.674 524.298L597.171 530.809C594.598 532.417 591.745 533.824 588.61 535.029C585.474 536.235 581.897 536.838 577.878 536.838ZM559.429 501.387H590.78C590.78 495.438 589.494 490.936 586.921 487.882C584.429 484.747 580.892 483.179 576.31 483.179C574.22 483.179 572.21 483.581 570.281 484.385C568.432 485.189 566.744 486.395 565.217 488.002C563.689 489.53 562.403 491.419 561.358 493.67C560.393 495.921 559.75 498.493 559.429 501.387Z" fill="#3C4043"/>
<path d="M738.015 493.487C743.165 493.487 747.229 492.457 750.209 490.397C753.225 488.338 754.733 484.622 754.733 479.252C754.733 473.477 752.637 469.541 748.443 467.444C746.2 466.341 743.202 465.789 739.45 465.789H712.634V493.487H738.015ZM701.654 456.354H739.174C745.354 456.354 750.448 457.255 754.458 459.058C762.072 462.515 765.879 468.897 765.879 478.204C765.879 483.059 764.867 487.032 762.844 490.122C760.858 493.211 758.062 495.694 754.458 497.57C757.621 498.858 759.993 500.55 761.575 502.646C763.194 504.743 764.095 508.146 764.279 512.854L764.665 523.724C764.775 526.813 765.033 529.112 765.438 530.621C766.1 533.195 767.277 534.851 768.969 535.586V537.407H755.506C755.138 536.708 754.844 535.807 754.623 534.704C754.402 533.6 754.218 531.467 754.071 528.303L753.409 514.785C753.152 509.488 751.184 505.939 747.505 504.136C745.409 503.143 742.117 502.646 737.629 502.646H712.634V537.407H701.654V456.354Z" fill="#3C4043"/>
<path d="M788.28 521.682C788.28 524.551 789.329 526.813 791.425 528.469C793.522 530.124 796.005 530.952 798.874 530.952C802.368 530.952 805.753 530.142 809.026 528.524C814.544 525.839 817.303 521.443 817.303 515.337V507.336C816.089 508.109 814.526 508.753 812.613 509.268C810.7 509.783 808.824 510.15 806.985 510.371L800.971 511.144C797.366 511.622 794.662 512.376 792.86 513.406C789.807 515.135 788.28 517.893 788.28 521.682ZM812.337 501.598C814.618 501.304 816.144 500.347 816.917 498.729C817.358 497.846 817.579 496.577 817.579 494.922C817.579 491.538 816.365 489.092 813.937 487.583C811.546 486.039 808.107 485.266 803.619 485.266C798.433 485.266 794.754 486.664 792.584 489.459C791.37 491.004 790.579 493.303 790.211 496.356H780.942C781.126 489.073 783.48 484.015 788.004 481.183C792.566 478.314 797.844 476.879 803.84 476.879C810.792 476.879 816.438 478.204 820.779 480.852C825.083 483.5 827.234 487.62 827.234 493.211V527.255C827.234 528.285 827.437 529.112 827.841 529.738C828.283 530.363 829.184 530.676 830.545 530.676C830.986 530.676 831.483 530.657 832.035 530.621C832.586 530.547 833.175 530.455 833.8 530.345V537.683C832.255 538.125 831.078 538.4 830.269 538.511C829.46 538.621 828.356 538.676 826.958 538.676C823.538 538.676 821.055 537.462 819.51 535.035C818.701 533.747 818.13 531.926 817.799 529.572C815.776 532.221 812.87 534.52 809.082 536.469C805.293 538.419 801.118 539.394 796.557 539.394C791.076 539.394 786.588 537.738 783.094 534.428C779.636 531.08 777.907 526.905 777.907 521.903C777.907 516.422 779.618 512.174 783.039 509.157C786.459 506.141 790.947 504.283 796.501 503.584L812.337 501.598Z" fill="#3C4043"/>
<path d="M864.423 477.266C869.058 477.266 873.104 478.406 876.562 480.687C878.438 481.974 880.35 483.85 882.3 486.314V478.866H891.459V532.607C891.459 540.111 890.355 546.033 888.148 550.374C884.029 558.392 876.249 562.402 864.809 562.402C858.445 562.402 853.093 560.967 848.753 558.098C844.412 555.266 841.985 550.815 841.47 544.746H851.567C852.045 547.394 853.001 549.436 854.436 550.87C856.68 553.077 860.211 554.181 865.03 554.181C872.644 554.181 877.628 551.495 879.982 546.125C881.38 542.962 882.024 537.315 881.914 529.186C879.927 532.202 877.536 534.446 874.741 535.917C871.945 537.389 868.248 538.125 863.65 538.125C857.25 538.125 851.64 535.862 846.822 531.338C842.04 526.777 839.649 519.254 839.649 508.771C839.649 498.876 842.058 491.152 846.877 485.597C851.732 480.043 857.581 477.266 864.423 477.266ZM882.3 507.612C882.3 500.292 880.792 494.867 877.775 491.335C874.759 487.804 870.915 486.039 866.244 486.039C859.255 486.039 854.473 489.312 851.898 495.86C850.537 499.354 849.856 503.934 849.856 509.599C849.856 516.257 851.199 521.333 853.884 524.827C856.606 528.285 860.248 530.014 864.809 530.014C871.945 530.014 876.966 526.795 879.872 520.358C881.491 516.716 882.3 512.468 882.3 507.612Z" fill="#3C4043"/>
<path d="M912.371 518.868C912.665 522.179 913.493 524.717 914.854 526.482C917.355 529.683 921.695 531.283 927.875 531.283C931.553 531.283 934.79 530.492 937.586 528.91C940.382 527.292 941.779 524.809 941.779 521.461C941.779 518.923 940.657 516.992 938.414 515.668C936.979 514.859 934.147 513.921 929.917 512.854L922.026 510.868C916.987 509.617 913.272 508.219 910.881 506.674C906.614 503.989 904.48 500.274 904.48 495.529C904.48 489.938 906.485 485.413 910.495 481.956C914.541 478.498 919.966 476.769 926.771 476.769C935.673 476.769 942.092 479.381 946.028 484.604C948.492 487.915 949.688 491.483 949.614 495.308H940.234C940.05 493.064 939.26 491.023 937.862 489.184C935.581 486.572 931.627 485.266 925.999 485.266C922.247 485.266 919.396 485.983 917.447 487.418C915.534 488.853 914.578 490.747 914.578 493.101C914.578 495.676 915.847 497.736 918.385 499.281C919.856 500.2 922.026 501.01 924.896 501.708L931.461 503.309C938.597 505.037 943.379 506.711 945.807 508.33C949.669 510.868 951.601 514.859 951.601 520.303C951.601 525.563 949.596 530.106 945.586 533.931C941.614 537.757 935.544 539.669 927.378 539.669C918.587 539.669 912.352 537.683 908.674 533.71C905.032 529.701 903.083 524.754 902.825 518.868H912.371Z" fill="#3C4043"/>
<path d="M964.953 461.816H974.995V478.314H984.43V486.425H974.995V524.993C974.995 527.053 975.694 528.432 977.092 529.131C977.864 529.535 979.152 529.738 980.954 529.738C981.432 529.738 981.947 529.738 982.499 529.738C983.051 529.701 983.694 529.646 984.43 529.572V537.407C983.29 537.738 982.094 537.977 980.844 538.125C979.63 538.272 978.306 538.345 976.871 538.345C972.236 538.345 969.091 537.168 967.436 534.814C965.781 532.423 964.953 529.333 964.953 525.544V486.425H956.953V478.314H964.953V461.816Z" fill="#3C4043"/>
<path d="M1017.87 531.007C1024.45 531.007 1028.96 528.524 1031.38 523.558C1033.85 518.556 1035.08 513.001 1035.08 506.895C1035.08 501.377 1034.2 496.89 1032.43 493.432C1029.64 487.988 1024.82 485.266 1017.98 485.266C1011.91 485.266 1007.49 487.583 1004.73 492.218C1001.98 496.853 1000.6 502.444 1000.6 508.992C1000.6 515.282 1001.98 520.523 1004.73 524.717C1007.49 528.91 1011.87 531.007 1017.87 531.007ZM1018.25 476.604C1025.87 476.604 1032.3 479.142 1037.56 484.218C1042.82 489.294 1045.45 496.761 1045.45 506.619C1045.45 516.146 1043.14 524.018 1038.5 530.234C1033.87 536.451 1026.68 539.559 1016.93 539.559C1008.8 539.559 1002.34 536.819 997.562 531.338C992.78 525.82 990.389 518.427 990.389 509.157C990.389 499.226 992.909 491.317 997.948 485.432C1002.99 479.546 1009.76 476.604 1018.25 476.604Z" fill="#3C4043"/>
<path d="M1057.32 478.314H1066.75V486.701C1069.55 483.243 1072.51 480.76 1075.64 479.252C1078.76 477.744 1082.24 476.99 1086.06 476.99C1094.45 476.99 1100.12 479.914 1103.06 485.763C1104.68 488.963 1105.49 493.542 1105.49 499.501V537.407H1095.39V500.164C1095.39 496.559 1094.86 493.653 1093.79 491.446C1092.02 487.767 1088.82 485.928 1084.19 485.928C1081.83 485.928 1079.9 486.167 1078.39 486.646C1075.67 487.455 1073.28 489.073 1071.22 491.501C1069.57 493.451 1068.48 495.474 1067.97 497.57C1067.49 499.63 1067.25 502.591 1067.25 506.454V537.407H1057.32V478.314Z" fill="#3C4043"/>
<path d="M1144.83 476.99C1149.02 476.99 1153.08 477.983 1157.02 479.969C1160.96 481.919 1163.95 484.457 1166.01 487.583C1168 490.563 1169.32 494.039 1169.99 498.012C1170.57 500.734 1170.87 505.074 1170.87 511.033H1127.56C1127.74 517.029 1129.16 521.848 1131.8 525.489C1134.45 529.094 1138.55 530.896 1144.11 530.896C1149.3 530.896 1153.43 529.186 1156.52 525.765C1158.29 523.779 1159.54 521.48 1160.28 518.868H1170.04C1169.78 521.038 1168.92 523.466 1167.45 526.151C1166.01 528.8 1164.4 530.97 1162.59 532.662C1159.58 535.605 1155.84 537.591 1151.39 538.621C1149 539.21 1146.3 539.504 1143.28 539.504C1135.92 539.504 1129.69 536.837 1124.58 531.503C1119.46 526.133 1116.91 518.629 1116.91 508.992C1116.91 499.501 1119.48 491.795 1124.63 485.873C1129.78 479.951 1136.51 476.99 1144.83 476.99ZM1160.66 503.143C1160.26 498.839 1159.32 495.4 1157.85 492.825C1155.13 488.043 1150.58 485.652 1144.22 485.652C1139.66 485.652 1135.83 487.308 1132.74 490.618C1129.65 493.892 1128.02 498.067 1127.83 503.143H1160.66Z" fill="#3C4043"/>
<path d="M1279.82 499.403V490.806H1303.64C1308.88 490.806 1312.89 489.456 1315.68 486.754C1318.54 484.052 1319.97 480.45 1319.97 475.947C1319.97 471.608 1318.58 468.047 1315.8 465.263C1313.02 462.397 1309 460.965 1303.76 460.965H1279.82V452H1303.89C1309.29 452 1313.96 453.023 1317.89 455.07C1321.9 457.117 1324.97 459.941 1327.1 463.544C1329.31 467.064 1330.41 471.117 1330.41 475.701C1330.41 480.45 1329.31 484.625 1327.1 488.227C1324.97 491.748 1321.9 494.491 1317.89 496.455C1313.96 498.42 1309.29 499.403 1303.89 499.403H1279.82ZM1273.06 536.858V452H1283.38V536.858H1273.06ZM1323.17 536.858L1291.85 498.175L1301.68 494.982L1336.18 536.858H1323.17Z" fill="#3C4043"/>
<path d="M1369.78 538.086C1364.38 538.086 1359.5 536.776 1355.17 534.157C1350.91 531.455 1347.51 527.853 1344.97 523.35C1342.43 518.765 1341.17 513.648 1341.17 507.999C1341.17 502.268 1342.43 497.11 1344.97 492.526C1347.51 487.941 1350.91 484.298 1355.17 481.596C1359.5 478.894 1364.38 477.543 1369.78 477.543C1374.2 477.543 1378.13 478.444 1381.57 480.245C1385.09 482.046 1387.91 484.584 1390.04 487.859C1392.25 491.052 1393.52 494.736 1393.85 498.912V516.718C1393.44 520.894 1392.17 524.619 1390.04 527.894C1387.91 531.086 1385.09 533.583 1381.57 535.385C1378.13 537.186 1374.2 538.086 1369.78 538.086ZM1371.38 528.753C1377.19 528.753 1381.81 526.829 1385.25 522.981C1388.77 519.133 1390.53 514.098 1390.53 507.876C1390.53 503.701 1389.71 500.058 1388.08 496.947C1386.52 493.754 1384.27 491.298 1381.32 489.578C1378.46 487.777 1375.1 486.877 1371.25 486.877C1367.4 486.877 1363.97 487.777 1360.94 489.578C1357.99 491.379 1355.66 493.877 1353.94 497.069C1352.22 500.181 1351.36 503.783 1351.36 507.876C1351.36 511.888 1352.22 515.49 1353.94 518.683C1355.66 521.794 1358.03 524.25 1361.06 526.051C1364.09 527.853 1367.53 528.753 1371.38 528.753ZM1389.92 536.858V521.262L1391.76 507.017L1389.92 493.017V478.771H1399.74V536.858H1389.92Z" fill="#3C4043"/>
<path d="M1440.52 562.402C1434.62 562.402 1429.38 561.296 1424.8 559.086C1420.21 556.957 1416.53 553.887 1413.74 549.876L1420.13 543.49C1422.42 546.519 1425.25 548.852 1428.6 550.49C1432.04 552.209 1436.09 553.069 1440.76 553.069C1446.98 553.069 1451.94 551.39 1455.62 548.034C1459.3 544.759 1461.15 540.256 1461.15 534.525V520.034L1462.99 507.017L1461.15 493.877V478.771H1471.09V534.525C1471.09 540.092 1469.78 544.963 1467.16 549.139C1464.63 553.314 1461.07 556.548 1456.48 558.84C1451.9 561.215 1446.57 562.402 1440.52 562.402ZM1440.88 536.121C1435.48 536.121 1430.65 534.852 1426.39 532.314C1422.22 529.695 1418.9 526.174 1416.45 521.753C1413.99 517.332 1412.76 512.338 1412.76 506.771C1412.76 501.204 1413.95 496.251 1416.32 491.912C1418.78 487.491 1422.14 484.011 1426.39 481.473C1430.65 478.853 1435.44 477.543 1440.76 477.543C1445.26 477.543 1449.28 478.444 1452.8 480.245C1456.4 482.046 1459.26 484.543 1461.39 487.736C1463.52 490.847 1464.75 494.572 1465.08 498.912V514.876C1464.67 519.052 1463.4 522.736 1461.27 525.929C1459.14 529.122 1456.32 531.619 1452.8 533.42C1449.28 535.221 1445.31 536.121 1440.88 536.121ZM1442.73 526.788C1446.49 526.788 1449.81 525.97 1452.67 524.332C1455.54 522.613 1457.75 520.28 1459.3 517.332C1460.94 514.303 1461.76 510.824 1461.76 506.894C1461.76 502.882 1460.94 499.403 1459.3 496.455C1457.75 493.426 1455.54 491.093 1452.67 489.456C1449.81 487.736 1446.45 486.877 1442.6 486.877C1438.76 486.877 1435.32 487.736 1432.29 489.456C1429.34 491.093 1427.05 493.426 1425.41 496.455C1423.77 499.403 1422.95 502.841 1422.95 506.771C1422.95 510.701 1423.77 514.18 1425.41 517.209C1427.13 520.239 1429.46 522.613 1432.41 524.332C1435.36 525.97 1438.8 526.788 1442.73 526.788Z" fill="#3C4043"/>
<path d="M1505.86 538.086C1502.66 538.086 1499.59 537.677 1496.65 536.858C1493.78 535.958 1491.16 534.73 1488.79 533.174C1486.41 531.619 1484.33 529.736 1482.52 527.525L1488.91 521.139C1491.12 523.841 1493.66 525.847 1496.52 527.157C1499.39 528.467 1502.54 529.122 1505.98 529.122C1509.66 529.122 1512.49 528.467 1514.45 527.157C1516.5 525.847 1517.52 524.005 1517.52 521.63C1517.52 519.338 1516.75 517.537 1515.19 516.227C1513.72 514.917 1511.75 513.853 1509.3 513.034C1506.92 512.215 1504.38 511.438 1501.68 510.701C1499.06 509.964 1496.52 508.982 1494.07 507.753C1491.69 506.525 1489.73 504.847 1488.17 502.718C1486.7 500.59 1485.96 497.765 1485.96 494.245C1485.96 490.888 1486.78 487.982 1488.42 485.526C1490.06 482.988 1492.39 481.023 1495.42 479.631C1498.45 478.239 1502.09 477.543 1506.35 477.543C1510.77 477.543 1514.74 478.362 1518.26 480C1521.86 481.555 1524.77 483.888 1526.98 486.999L1520.59 493.385C1518.96 491.175 1516.87 489.496 1514.33 488.35C1511.88 487.122 1509.09 486.508 1505.98 486.508C1502.54 486.508 1499.92 487.163 1498.12 488.473C1496.32 489.783 1495.42 491.461 1495.42 493.508C1495.42 495.637 1496.16 497.315 1497.63 498.543C1499.19 499.689 1501.15 500.631 1503.52 501.368C1505.98 502.104 1508.52 502.882 1511.14 503.701C1513.84 504.438 1516.38 505.461 1518.75 506.771C1521.21 508.081 1523.17 509.841 1524.65 512.052C1526.2 514.18 1526.98 517.046 1526.98 520.648C1526.98 526.051 1525.06 530.309 1521.21 533.42C1517.44 536.531 1512.33 538.086 1505.86 538.086Z" fill="#3C4043"/>
<path d="M1548.82 536.858V454.456H1558.76V536.858H1548.82ZM1534.45 487.736V478.771H1573.13V487.736H1534.45Z" fill="#3C4043"/>
<path d="M1608.83 538.086C1603.18 538.086 1598.06 536.735 1593.48 534.034C1588.97 531.332 1585.37 527.689 1582.67 523.104C1580.05 518.519 1578.74 513.362 1578.74 507.631C1578.74 501.982 1580.05 496.906 1582.67 492.403C1585.37 487.9 1588.97 484.298 1593.48 481.596C1598.06 478.894 1603.18 477.543 1608.83 477.543C1614.48 477.543 1619.59 478.894 1624.18 481.596C1628.76 484.216 1632.37 487.818 1634.99 492.403C1637.69 496.906 1639.04 501.982 1639.04 507.631C1639.04 513.362 1637.69 518.519 1634.99 523.104C1632.37 527.689 1628.76 531.332 1624.18 534.034C1619.59 536.735 1614.48 538.086 1608.83 538.086ZM1608.83 528.63C1612.76 528.63 1616.24 527.73 1619.27 525.929C1622.3 524.127 1624.67 521.63 1626.39 518.438C1628.11 515.245 1628.97 511.642 1628.97 507.631C1628.97 503.701 1628.07 500.181 1626.27 497.069C1624.55 493.958 1622.17 491.543 1619.14 489.824C1616.2 488.023 1612.76 487.122 1608.83 487.122C1605.06 487.122 1601.62 488.023 1598.51 489.824C1595.48 491.543 1593.11 493.958 1591.39 497.069C1589.67 500.181 1588.81 503.701 1588.81 507.631C1588.81 511.642 1589.67 515.245 1591.39 518.438C1593.11 521.63 1595.48 524.127 1598.51 525.929C1601.62 527.73 1605.06 528.63 1608.83 528.63Z" fill="#3C4043"/>
<path d="M1693.73 536.858V502.964C1693.73 498.216 1692.3 494.327 1689.43 491.298C1686.57 488.268 1682.8 486.754 1678.14 486.754C1674.94 486.754 1672.12 487.45 1669.66 488.842C1667.29 490.233 1665.41 492.157 1664.01 494.613C1662.7 496.988 1662.05 499.73 1662.05 502.841L1657.75 500.508C1657.75 496.087 1658.73 492.157 1660.7 488.719C1662.75 485.28 1665.49 482.578 1668.93 480.614C1672.45 478.567 1676.46 477.543 1680.96 477.543C1685.38 477.543 1689.27 478.649 1692.63 480.859C1696.07 483.07 1698.77 485.976 1700.73 489.578C1702.7 493.099 1703.68 496.947 1703.68 501.122V536.858H1693.73ZM1652.1 536.858V478.771H1662.05V536.858H1652.1Z" fill="#3C4043"/>
<path d="M1746.04 538.086C1740.22 538.086 1734.98 536.776 1730.32 534.157C1725.73 531.537 1722.09 527.934 1719.39 523.35C1716.77 518.765 1715.46 513.566 1715.46 507.753C1715.46 502.023 1716.77 496.906 1719.39 492.403C1722.01 487.818 1725.57 484.216 1730.07 481.596C1734.57 478.894 1739.65 477.543 1745.3 477.543C1750.62 477.543 1755.33 478.771 1759.42 481.228C1763.51 483.684 1766.71 487.04 1769 491.298C1771.37 495.555 1772.56 500.426 1772.56 505.911C1772.56 506.648 1772.52 507.467 1772.44 508.368C1772.36 509.268 1772.19 510.291 1771.95 511.438H1722.33V503.21H1766.67L1763.11 506.28C1763.11 502.268 1762.37 498.83 1760.89 495.964C1759.5 493.017 1757.46 490.725 1754.75 489.087C1752.05 487.45 1748.82 486.631 1745.05 486.631C1741.04 486.631 1737.52 487.532 1734.49 489.333C1731.54 491.052 1729.25 493.467 1727.61 496.578C1725.98 499.607 1725.16 503.251 1725.16 507.508C1725.16 511.765 1726.02 515.49 1727.74 518.683C1729.46 521.876 1731.91 524.373 1735.11 526.174C1738.3 527.975 1741.98 528.876 1746.16 528.876C1749.51 528.876 1752.59 528.262 1755.37 527.034C1758.23 525.806 1760.69 524.005 1762.74 521.63L1769 528.016C1766.3 531.291 1762.94 533.788 1758.93 535.507C1754.92 537.227 1750.62 538.086 1746.04 538.086Z" fill="#3C4043"/>
<path d="M822.614 946.736H811.814L809.978 953H806.738L814.37 927.8H820.058L827.69 953H824.45L822.614 946.736ZM816.998 929.096L812.642 943.928H821.786L817.43 929.096H816.998Z" fill="#1A73E8"/>
<path d="M831.373 927.8H834.397V950.192H847.573V953H831.373V927.8Z" fill="#1A73E8"/>
<path d="M853.416 927.8H856.44V950.192H869.616V953H853.416V927.8Z" fill="#1A73E8"/>
<path d="M911.326 935.072C911.326 934.256 911.158 933.536 910.822 932.912C910.51 932.288 910.078 931.772 909.526 931.364C908.974 930.956 908.338 930.644 907.618 930.428C906.898 930.212 906.142 930.104 905.35 930.104C904.654 930.104 903.994 930.2 903.37 930.392C902.746 930.56 902.182 930.812 901.678 931.148C901.198 931.484 900.814 931.904 900.526 932.408C900.238 932.888 900.094 933.452 900.094 934.1V934.316C900.094 935.012 900.238 935.612 900.526 936.116C900.814 936.596 901.234 937.016 901.786 937.376C902.362 937.712 903.07 938 903.91 938.24C904.75 938.456 905.734 938.648 906.862 938.816C909.502 939.224 911.446 940.004 912.694 941.156C913.942 942.284 914.566 943.808 914.566 945.728V946.16C914.566 947.24 914.374 948.236 913.99 949.148C913.63 950.036 913.078 950.804 912.334 951.452C911.614 952.1 910.714 952.604 909.634 952.964C908.554 953.324 907.306 953.504 905.89 953.504C904.282 953.504 902.854 953.276 901.606 952.82C900.382 952.34 899.35 951.692 898.51 950.876C897.694 950.036 897.07 949.064 896.638 947.96C896.206 946.832 895.99 945.608 895.99 944.288V943.208H899.014V944.072C899.014 946.28 899.614 947.936 900.814 949.04C902.038 950.144 903.73 950.696 905.89 950.696C907.762 950.696 909.166 950.288 910.102 949.472C911.062 948.632 911.542 947.528 911.542 946.16V945.944C911.542 944.624 911.05 943.616 910.066 942.92C909.106 942.224 907.534 941.72 905.35 941.408C904.078 941.24 902.926 940.988 901.894 940.652C900.886 940.292 900.022 939.836 899.302 939.284C898.582 938.708 898.03 938.024 897.646 937.232C897.262 936.44 897.07 935.504 897.07 934.424V933.992C897.07 933.008 897.274 932.108 897.682 931.292C898.09 930.476 898.654 929.768 899.374 929.168C900.118 928.568 900.994 928.112 902.002 927.8C903.034 927.464 904.162 927.296 905.386 927.296C906.802 927.296 908.062 927.5 909.166 927.908C910.294 928.316 911.242 928.868 912.01 929.564C912.778 930.236 913.354 931.04 913.738 931.976C914.146 932.888 914.35 933.848 914.35 934.856V936.368H911.326V935.072Z" fill="#1A73E8"/>
<path d="M932.829 946.736H922.029L920.193 953H916.953L924.585 927.8H930.273L937.905 953H934.665L932.829 946.736ZM927.213 929.096L922.857 943.928H932.001L927.645 929.096H927.213Z" fill="#1A73E8"/>
<path d="M954.404 951.704H954.836V927.8H957.86V953H951.812L944.54 929.096H944.108V953H941.084V927.8H947.132L954.404 951.704Z" fill="#1A73E8"/>
<path d="M977.455 935.072C977.455 934.256 977.287 933.536 976.951 932.912C976.639 932.288 976.207 931.772 975.655 931.364C975.103 930.956 974.467 930.644 973.747 930.428C973.027 930.212 972.271 930.104 971.479 930.104C970.783 930.104 970.123 930.2 969.499 930.392C968.875 930.56 968.311 930.812 967.807 931.148C967.327 931.484 966.943 931.904 966.655 932.408C966.367 932.888 966.223 933.452 966.223 934.1V934.316C966.223 935.012 966.367 935.612 966.655 936.116C966.943 936.596 967.363 937.016 967.915 937.376C968.491 937.712 969.199 938 970.039 938.24C970.879 938.456 971.863 938.648 972.991 938.816C975.631 939.224 977.575 940.004 978.823 941.156C980.071 942.284 980.695 943.808 980.695 945.728V946.16C980.695 947.24 980.503 948.236 980.119 949.148C979.759 950.036 979.207 950.804 978.463 951.452C977.743 952.1 976.843 952.604 975.763 952.964C974.683 953.324 973.435 953.504 972.019 953.504C970.411 953.504 968.983 953.276 967.735 952.82C966.511 952.34 965.479 951.692 964.639 950.876C963.823 950.036 963.199 949.064 962.767 947.96C962.335 946.832 962.119 945.608 962.119 944.288V943.208H965.143V944.072C965.143 946.28 965.743 947.936 966.943 949.04C968.167 950.144 969.859 950.696 972.019 950.696C973.891 950.696 975.295 950.288 976.231 949.472C977.191 948.632 977.671 947.528 977.671 946.16V945.944C977.671 944.624 977.179 943.616 976.195 942.92C975.235 942.224 973.663 941.72 971.479 941.408C970.207 941.24 969.055 940.988 968.023 940.652C967.015 940.292 966.151 939.836 965.431 939.284C964.711 938.708 964.159 938.024 963.775 937.232C963.391 936.44 963.199 935.504 963.199 934.424V933.992C963.199 933.008 963.403 932.108 963.811 931.292C964.219 930.476 964.783 929.768 965.503 929.168C966.247 928.568 967.123 928.112 968.131 927.8C969.163 927.464 970.291 927.296 971.515 927.296C972.931 927.296 974.191 927.5 975.295 927.908C976.423 928.316 977.371 928.868 978.139 929.564C978.907 930.236 979.483 931.04 979.867 931.976C980.275 932.888 980.479 933.848 980.479 934.856V936.368H977.455V935.072Z" fill="#1A73E8"/>
<path d="M1021.54 935.072C1021.54 934.256 1021.37 933.536 1021.04 932.912C1020.73 932.288 1020.29 931.772 1019.74 931.364C1019.19 930.956 1018.55 930.644 1017.83 930.428C1017.11 930.212 1016.36 930.104 1015.57 930.104C1014.87 930.104 1014.21 930.2 1013.59 930.392C1012.96 930.56 1012.4 930.812 1011.89 931.148C1011.41 931.484 1011.03 931.904 1010.74 932.408C1010.45 932.888 1010.31 933.452 1010.31 934.1V934.316C1010.31 935.012 1010.45 935.612 1010.74 936.116C1011.03 936.596 1011.45 937.016 1012 937.376C1012.58 937.712 1013.28 938 1014.12 938.24C1014.96 938.456 1015.95 938.648 1017.08 938.816C1019.72 939.224 1021.66 940.004 1022.91 941.156C1024.16 942.284 1024.78 943.808 1024.78 945.728V946.16C1024.78 947.24 1024.59 948.236 1024.21 949.148C1023.85 950.036 1023.29 950.804 1022.55 951.452C1021.83 952.1 1020.93 952.604 1019.85 952.964C1018.77 953.324 1017.52 953.504 1016.11 953.504C1014.5 953.504 1013.07 953.276 1011.82 952.82C1010.6 952.34 1009.57 951.692 1008.73 950.876C1007.91 950.036 1007.29 949.064 1006.85 947.96C1006.42 946.832 1006.21 945.608 1006.21 944.288V943.208H1009.23V944.072C1009.23 946.28 1009.83 947.936 1011.03 949.04C1012.25 950.144 1013.95 950.696 1016.11 950.696C1017.98 950.696 1019.38 950.288 1020.32 949.472C1021.28 948.632 1021.76 947.528 1021.76 946.16V945.944C1021.76 944.624 1021.27 943.616 1020.28 942.92C1019.32 942.224 1017.75 941.72 1015.57 941.408C1014.29 941.24 1013.14 940.988 1012.11 940.652C1011.1 940.292 1010.24 939.836 1009.52 939.284C1008.8 938.708 1008.25 938.024 1007.86 937.232C1007.48 936.44 1007.29 935.504 1007.29 934.424V933.992C1007.29 933.008 1007.49 932.108 1007.9 931.292C1008.31 930.476 1008.87 929.768 1009.59 929.168C1010.33 928.568 1011.21 928.112 1012.22 927.8C1013.25 927.464 1014.38 927.296 1015.6 927.296C1017.02 927.296 1018.28 927.5 1019.38 927.908C1020.51 928.316 1021.46 928.868 1022.23 929.564C1022.99 930.236 1023.57 931.04 1023.95 931.976C1024.36 932.888 1024.57 933.848 1024.57 934.856V936.368H1021.54V935.072Z" fill="#1A73E8"/>
<path d="M1030.01 927.8H1045.28V930.608H1033.04V938.96H1045.06V941.768H1033.04V950.192H1045.49V953H1030.01V927.8Z" fill="#1A73E8"/>
<path d="M1067.57 953H1064.55V944.576C1064.55 943.952 1064.4 943.472 1064.11 943.136C1063.83 942.8 1063.32 942.632 1062.6 942.632H1054.75V953H1051.73V927.8H1060.73C1062.03 927.8 1063.15 927.992 1064.11 928.376C1065.07 928.736 1065.87 929.228 1066.49 929.852C1067.14 930.476 1067.62 931.208 1067.93 932.048C1068.27 932.864 1068.43 933.728 1068.43 934.64V935.72C1068.43 936.656 1068.17 937.592 1067.64 938.528C1067.14 939.464 1066.35 940.184 1065.27 940.688V941.12C1065.99 941.24 1066.55 941.528 1066.96 941.984C1067.37 942.44 1067.57 943.088 1067.57 943.928V953ZM1054.75 939.824H1060.37C1062.07 939.824 1063.33 939.464 1064.15 938.744C1064.99 938 1065.41 936.92 1065.41 935.504V934.856C1065.41 933.584 1064.99 932.564 1064.15 931.796C1063.33 931.004 1062.07 930.608 1060.37 930.608H1054.75V939.824Z" fill="#1A73E8"/>
<path d="M1073.74 927.8H1089.72V930.608H1083.24V950.192H1089.72V953H1073.74V950.192H1080.22V930.608H1073.74V927.8Z" fill="#1A73E8"/>
<path d="M1096.18 927.8H1111.66V930.608H1099.2V938.96H1111.44V941.768H1099.2V953H1096.18V927.8Z" fill="#1A73E8"/>
</svg>
