<svg width="1920" height="1080" viewBox="0 0 1920 1080" fill="none" xmlns="http://www.w3.org/2000/svg">
<path d="M191.807 530.127C189.645 530.127 187.309 529.003 184.801 526.754C182.379 524.505 180.131 521.521 178.055 517.802L164.172 492.632H153.404L153.015 511.963C153.015 515.077 153.188 517.412 153.534 518.969C153.966 520.44 154.831 521.434 156.129 521.953C157.513 522.386 159.588 522.602 162.356 522.602L162.616 523.121L161.448 528.57C161.448 528.57 161.015 528.527 160.151 528.44C159.286 528.44 158.161 528.397 156.777 528.311C155.48 528.311 154.01 528.267 152.366 528.181C150.809 528.181 149.252 528.181 147.695 528.181C145.533 528.094 143.284 528.094 140.949 528.181C138.7 528.267 136.754 528.354 135.111 528.44C133.554 528.527 132.775 528.57 132.775 528.57L133.943 522.732C138.008 522.299 140.646 521.434 141.857 520.137C143.155 518.753 143.803 516.201 143.803 512.482L143.933 457.991C143.933 455.224 143.587 453.364 142.895 452.413C142.29 451.461 141.036 450.985 139.133 450.985C138.354 450.985 137.403 451.029 136.278 451.115C135.24 451.202 134.721 451.245 134.721 451.245L134.462 450.726L135.37 445.017C135.37 445.017 135.846 445.061 136.797 445.147C137.835 445.147 139.133 445.19 140.69 445.277C142.246 445.277 143.847 445.32 145.49 445.407C147.133 445.407 148.56 445.407 149.771 445.407C150.896 445.407 152.323 445.407 154.053 445.407C155.869 445.32 157.642 445.234 159.372 445.147C161.188 445.061 162.702 445.017 163.913 445.017C165.124 444.931 165.729 444.888 165.729 444.888C173.773 444.888 180.131 446.704 184.801 450.337C189.472 453.969 191.807 458.943 191.807 465.257C191.807 470.446 190.121 475.204 186.747 479.528C183.461 483.853 178.79 487.399 172.735 490.167L187.007 512.742C189.515 516.807 191.937 519.661 194.272 521.305C196.694 522.948 199.635 523.77 203.095 523.77L203.613 524.289L202.835 528.7L191.807 530.127ZM167.027 486.664C167.027 486.664 167.719 486.405 169.103 485.886C170.573 485.28 172.216 484.285 174.033 482.902C175.849 481.518 177.449 479.572 178.833 477.063C180.304 474.555 181.039 471.398 181.039 467.592C181.039 461.884 179.049 457.602 175.071 454.748C171.178 451.894 165.254 450.467 157.296 450.467C156.431 450.467 155.826 450.683 155.48 451.115C155.22 451.461 155.047 452.24 154.961 453.451C154.615 460.284 154.312 466.165 154.053 471.095C153.88 476.025 153.75 480.782 153.664 485.367L167.027 486.664Z" fill="#3C4043"/>
<path d="M250.423 529.608C246.964 529.608 244.239 528.743 242.25 527.013C240.347 525.197 239.222 522.559 238.876 519.099L238.357 518.969C236.282 521.045 234.292 522.861 232.389 524.418C230.573 525.889 228.93 527.056 227.459 527.921C226.075 528.7 224.951 529.089 224.086 529.089C220.886 529.089 218.032 528.397 215.523 527.013C213.015 525.629 211.026 523.726 209.555 521.305C208.171 518.883 207.479 516.115 207.479 513.001C207.479 510.493 208.085 508.287 209.296 506.384C210.593 504.482 212.28 503.227 214.356 502.622L239.006 495.876L239.136 490.167C239.136 485.842 238.141 482.469 236.152 480.047C234.163 477.625 231.352 476.415 227.719 476.415C225.297 476.415 222.745 476.977 220.064 478.101C217.383 479.226 214.745 480.826 212.15 482.902L211.501 482.512L209.944 476.933C212.193 475.636 214.702 474.295 217.469 472.912C220.237 471.441 222.875 470.23 225.383 469.279C227.892 468.327 229.795 467.852 231.092 467.852C234.898 467.852 238.141 468.544 240.823 469.928C243.504 471.225 245.536 473.128 246.92 475.636C248.391 478.058 249.126 481.042 249.126 484.588C249.126 485.713 248.996 487.529 248.737 490.037C248.564 492.546 248.304 495.357 247.958 498.47C247.612 501.498 247.31 504.438 247.05 507.293C246.877 510.147 246.791 512.526 246.791 514.428C246.791 516.331 247.266 517.802 248.218 518.84C249.169 519.877 250.467 520.396 252.11 520.396C253.58 520.396 255.051 520.05 256.521 519.359C257.991 518.58 259.116 517.845 259.894 517.153L261.711 519.229C261.019 520.353 260.067 521.651 258.856 523.121C257.732 524.505 256.435 525.802 254.964 527.013C253.58 528.224 252.067 529.089 250.423 529.608ZM226.292 520.267C227.935 520.267 229.838 519.704 232 518.58C234.249 517.369 236.282 515.856 238.098 514.039L238.747 500.806L221.102 506.125C218.594 506.903 217.34 508.72 217.34 511.574C217.34 513.996 218.161 516.072 219.805 517.802C221.535 519.445 223.697 520.267 226.292 520.267Z" fill="#3C4043"/>
<path d="M290.23 559.448C286.165 559.448 282.662 558.756 279.721 557.372C276.78 555.988 274.488 553.999 272.845 551.404C271.288 548.809 270.51 545.739 270.51 542.193C271.721 540.722 273.45 538.906 275.699 536.744C278.035 534.668 280.586 532.592 283.354 530.516V529.738C278.856 528.959 275.397 527.489 272.975 525.327C270.639 523.164 269.385 520.396 269.212 517.023C270.769 515.553 272.456 514.126 274.272 512.742C276.089 511.271 278.035 509.931 280.11 508.72V506.903L286.857 509.109C284.176 510.493 282.23 511.747 281.019 512.872C279.894 513.909 279.332 514.991 279.332 516.115C279.332 517.845 280.37 519.142 282.446 520.007C284.522 520.786 287.16 521.391 290.36 521.824C293.647 522.17 297.106 522.559 300.739 522.991C304.458 523.424 307.918 524.116 311.118 525.067C314.405 525.932 317.086 527.229 319.162 528.959C321.238 530.776 322.276 533.284 322.276 536.484C322.276 539.338 321.368 542.15 319.551 544.917C317.822 547.685 315.4 550.15 312.286 552.312C309.259 554.475 305.842 556.205 302.037 557.502C298.231 558.799 294.295 559.448 290.23 559.448ZM294.641 553.091C298.015 553.091 301.172 552.485 304.112 551.275C307.053 550.15 309.432 548.593 311.248 546.604C313.064 544.615 313.973 542.495 313.973 540.247C313.973 538.517 313.324 537.133 312.027 536.095C310.729 535.057 308.264 534.106 304.631 533.241C301.085 532.462 295.852 531.641 288.933 530.776C286.338 532.592 284.349 534.581 282.965 536.744C281.581 538.992 280.889 541.198 280.889 543.36C280.889 546.301 282.143 548.637 284.651 550.366C287.16 552.183 290.49 553.091 294.641 553.091ZM295.16 505.476C299.139 505.476 302.253 504.222 304.502 501.714C306.837 499.206 308.005 495.746 308.005 491.335C308.005 486.318 306.621 482.253 303.853 479.139C301.085 476.025 297.496 474.468 293.084 474.468C289.106 474.468 285.949 475.766 283.613 478.361C281.365 480.955 280.24 484.458 280.24 488.87C280.24 493.8 281.624 497.822 284.392 500.935C287.16 503.963 290.749 505.476 295.16 505.476ZM292.176 511.185C287.938 511.185 284.176 510.363 280.889 508.72C277.689 506.99 275.137 504.655 273.234 501.714C271.418 498.687 270.51 495.27 270.51 491.464C270.51 487.14 271.591 483.204 273.753 479.658C276.002 476.112 278.943 473.258 282.576 471.095C286.295 468.933 290.317 467.852 294.641 467.852C297.063 467.852 299.355 468.111 301.518 468.63C303.766 469.063 305.713 469.279 307.356 469.279C309.086 469.106 311.508 468.673 314.621 467.981C317.822 467.289 321.368 466.425 325.26 465.387L325.649 465.906L324.222 473.171C322.319 473.431 320.33 473.647 318.254 473.82C316.178 473.993 314.448 474.166 313.064 474.339L312.545 474.987C316.005 478.793 317.735 483.204 317.735 488.221C317.735 492.459 316.567 496.308 314.232 499.768C311.983 503.227 308.913 505.995 305.021 508.071C301.215 510.147 296.933 511.185 292.176 511.185Z" fill="#3C4043"/>
<path d="M349.778 529.608C346.664 529.608 343.94 529.348 341.604 528.83C339.269 528.397 337.453 527.965 336.155 527.532C334.944 527.1 334.339 526.883 334.339 526.883L333.95 525.975C334.123 525.024 334.296 523.467 334.469 521.305C334.728 519.056 334.944 516.72 335.117 514.299C335.377 511.877 335.506 509.974 335.506 508.59L340.047 507.941C340.047 513.65 340.999 517.672 342.902 520.007C344.804 522.343 348.048 523.51 352.632 523.51C355.919 523.51 358.687 522.775 360.935 521.305C363.184 519.834 364.309 518.018 364.309 515.856C364.309 514.385 363.876 513.044 363.011 511.834C362.146 510.623 360.633 509.282 358.47 507.812C356.308 506.341 353.238 504.568 349.259 502.492C344.329 499.984 340.739 497.432 338.49 494.838C336.242 492.243 335.117 489.389 335.117 486.275C335.117 482.729 336.155 479.572 338.231 476.804C340.307 474.036 343.161 471.874 346.794 470.317C350.427 468.673 354.492 467.852 358.989 467.852C362.536 467.852 365.563 468.198 368.071 468.89C370.666 469.582 371.963 469.928 371.963 469.928L372.223 470.576C372.223 470.576 372.05 471.311 371.704 472.782C371.444 474.252 371.098 476.198 370.666 478.62C370.32 480.955 370.017 483.55 369.758 486.405L364.957 486.794C364.957 486.794 365.001 486.318 365.087 485.367C365.174 484.415 365.217 483.637 365.217 483.031C365.217 479.918 364.352 477.669 362.622 476.285C360.979 474.814 358.297 474.079 354.578 474.079C351.637 474.079 349.129 474.771 347.053 476.155C345.064 477.539 344.069 479.226 344.069 481.215C344.069 483.291 344.934 485.237 346.664 487.053C348.48 488.87 351.378 490.816 355.357 492.892C360.027 495.313 363.66 497.519 366.255 499.508C368.936 501.411 370.796 503.271 371.834 505.087C372.958 506.903 373.52 508.893 373.52 511.055C373.52 514.342 372.396 517.412 370.147 520.267C367.985 523.121 365.087 525.413 361.454 527.143C357.908 528.786 354.016 529.608 349.778 529.608Z" fill="#3C4043"/>
<path d="M406.519 529.608C400.637 529.608 396.486 528.44 394.064 526.105C391.642 523.683 390.431 519.618 390.431 513.909V481.993C390.431 479.658 389.912 478.015 388.874 477.063C387.836 476.112 385.89 475.593 383.036 475.506L382.517 474.728L383.166 470.836C385.241 469.798 387.231 468.63 389.134 467.333C391.123 465.949 392.853 464.651 394.323 463.441C395.88 462.143 397.091 461.105 397.956 460.327C398.821 459.462 399.253 459.029 399.253 459.029L401.848 460.067C401.848 460.067 401.718 460.889 401.459 462.532C401.286 464.176 401.07 466.598 400.81 469.798L419.882 469.409L420.271 469.798L419.104 476.674L400.291 476.285C400.032 480.35 399.816 485.107 399.643 490.556C399.47 496.005 399.383 502.06 399.383 508.72C399.383 513.131 400.118 516.245 401.589 518.061C403.146 519.877 405.784 520.786 409.503 520.786C411.665 520.786 413.655 520.396 415.471 519.618C417.374 518.84 418.325 518.45 418.325 518.45L419.623 521.824C419.623 521.824 419.104 522.213 418.066 522.991C417.028 523.77 415.73 524.678 414.174 525.716C412.703 526.754 411.233 527.662 409.762 528.44C408.378 529.219 407.297 529.608 406.519 529.608Z" fill="#3C4043"/>
<path d="M452.457 529.608C447.527 529.608 443.159 528.397 439.353 525.975C435.548 523.553 432.564 520.18 430.401 515.856C428.325 511.444 427.287 506.428 427.287 500.806C427.287 494.578 428.585 488.999 431.18 484.069C433.861 479.053 437.494 475.117 442.078 472.263C446.662 469.322 451.765 467.852 457.387 467.852C462.317 467.852 466.685 469.063 470.491 471.484C474.297 473.906 477.237 477.279 479.313 481.604C481.476 485.929 482.557 490.945 482.557 496.654C482.557 502.795 481.216 508.374 478.535 513.39C475.94 518.407 472.35 522.386 467.766 525.327C463.269 528.181 458.166 529.608 452.457 529.608ZM456.09 523.251C460.933 523.251 464.782 521.305 467.637 517.412C470.491 513.434 471.918 508.071 471.918 501.325C471.918 496.135 471.14 491.551 469.583 487.572C468.026 483.593 465.863 480.48 463.096 478.231C460.328 475.982 457.128 474.858 453.495 474.858C448.651 474.858 444.802 476.847 441.948 480.826C439.094 484.804 437.667 490.21 437.667 497.043C437.667 502.233 438.445 506.817 440.002 510.796C441.559 514.688 443.721 517.758 446.489 520.007C449.257 522.17 452.457 523.251 456.09 523.251Z" fill="#3C4043"/>
<path d="M529.658 524.289C532.253 523.597 534.113 522.602 535.237 521.305C536.362 519.921 536.924 518.104 536.924 515.856L537.443 490.167C537.443 485.842 536.491 482.512 534.589 480.177C532.772 477.842 530.134 476.674 526.674 476.674C524.599 476.674 522.479 477.106 520.317 477.971C518.155 478.836 516.209 479.788 514.479 480.826C512.835 481.864 511.581 482.729 510.716 483.42C510.63 485.669 510.5 488.351 510.327 491.464C510.241 494.492 510.111 497.605 509.938 500.806C509.851 504.006 509.765 506.903 509.678 509.498C509.592 512.093 509.549 514.039 509.549 515.337C509.549 518.018 509.895 519.921 510.587 521.045C511.365 522.083 512.576 522.602 514.219 522.602C514.998 522.602 515.949 522.559 517.074 522.472C518.198 522.386 518.76 522.343 518.76 522.343L519.02 522.861L517.852 528.44C517.852 528.44 517.203 528.397 515.906 528.311C514.609 528.224 513.052 528.138 511.235 528.051C509.419 528.051 507.689 528.051 506.046 528.051C504.229 528.051 502.327 528.094 500.337 528.181C498.348 528.354 496.661 528.484 495.277 528.57C493.893 528.743 493.201 528.83 493.201 528.83L493.85 523.51C496.358 523.078 498.132 522.299 499.17 521.175C500.207 520.05 500.726 518.277 500.726 515.856V484.199C500.726 481.258 500.251 479.226 499.299 478.101C498.348 476.89 496.704 476.285 494.369 476.285H492.942L492.553 475.766L492.942 471.484C495.969 470.965 498.867 470.446 501.635 469.928C504.402 469.322 506.651 468.803 508.381 468.371C510.197 467.938 511.106 467.722 511.106 467.722L511.884 468.76C511.884 468.76 511.668 469.625 511.235 471.355C510.889 473.085 510.63 475.074 510.457 477.323L510.716 477.712C511.495 477.193 512.706 476.415 514.349 475.377C516.079 474.252 517.895 473.128 519.798 472.003C521.788 470.879 523.69 469.928 525.507 469.149C527.323 468.284 528.75 467.852 529.788 467.852C535.237 467.852 539.562 469.365 542.762 472.393C545.962 475.42 547.563 479.485 547.563 484.588C547.563 485.713 547.476 487.572 547.303 490.167C547.13 492.762 546.914 495.659 546.654 498.86C546.395 502.06 546.179 505.13 546.006 508.071C545.833 511.012 545.746 513.434 545.746 515.337C545.746 517.845 546.092 519.704 546.784 520.915C547.476 522.04 548.644 522.602 550.287 522.602C551.066 522.602 552.017 522.559 553.141 522.472C554.266 522.386 554.828 522.343 554.828 522.343L555.087 522.861L554.05 528.44C554.05 528.44 553.66 528.397 552.882 528.311C552.19 528.311 551.239 528.267 550.028 528.181C548.903 528.181 547.649 528.138 546.265 528.051C544.968 528.051 543.714 528.051 542.503 528.051C541.119 528.051 539.648 528.138 538.092 528.311C536.621 528.484 535.194 528.657 533.81 528.83C532.426 529.003 531.302 529.175 530.437 529.348C529.572 529.521 529.139 529.608 529.139 529.608L529.658 524.289Z" fill="#3C4043"/>
<path d="M590.228 529.608C584.779 529.608 580.022 528.397 575.956 525.975C571.891 523.553 568.691 520.223 566.356 515.985C564.107 511.661 562.982 506.644 562.982 500.935C562.982 496.524 563.718 492.329 565.188 488.351C566.745 484.372 568.864 480.869 571.545 477.842C574.227 474.728 577.254 472.306 580.627 470.576C584.087 468.76 587.763 467.852 591.655 467.852C604.542 467.852 610.986 474.122 610.986 486.664C610.986 487.788 610.9 488.956 610.727 490.167C610.554 491.378 610.381 492.329 610.208 493.021L608.521 494.578H572.713C572.626 502.276 574.01 508.374 576.865 512.872C579.805 517.283 583.914 519.877 589.19 520.656C594.466 521.348 600.694 520.05 607.872 516.764L608.651 517.023L610.078 520.786C608.348 521.997 606.272 523.294 603.85 524.678C601.515 526.062 599.137 527.229 596.715 528.181C594.293 529.132 592.131 529.608 590.228 529.608ZM573.232 489.778L596.715 488.61C598.012 488.437 598.877 488.134 599.31 487.702C599.742 487.269 599.958 486.405 599.958 485.107C599.958 481.647 599.007 479.009 597.104 477.193C595.288 475.377 592.65 474.468 589.19 474.468C585.211 474.468 581.751 475.852 578.811 478.62C575.87 481.301 574.01 485.021 573.232 489.778Z" fill="#3C4043"/>
<path d="M711.143 483.363V481.992H728.852C732.669 481.992 735.889 481.237 738.512 479.726C741.136 478.176 743.143 475.91 744.535 472.928C745.926 469.907 746.622 466.171 746.622 461.718C746.622 457.266 745.926 453.529 744.535 450.508C743.143 447.487 741.136 445.201 738.512 443.651C735.889 442.101 732.669 441.325 728.852 441.325H689.617V439H729.687C735.849 439 741.235 439.815 745.846 441.445C750.497 443.075 754.095 445.579 756.639 448.958C759.223 452.297 760.515 456.551 760.515 461.718C760.515 466.886 759.302 471.06 756.878 474.24C754.492 477.42 750.994 479.746 746.383 481.217C741.812 482.648 736.246 483.363 729.687 483.363H711.143ZM689.617 528.442V526.117H728.614V528.442H689.617ZM702.437 527.19V440.491H715.794V527.19H702.437ZM758.905 529.098C755.288 529.098 752.445 528.482 750.378 527.249C748.351 525.977 746.86 524.288 745.906 522.181C744.992 520.034 744.415 517.629 744.177 514.966C743.938 512.303 743.799 509.56 743.759 506.737C743.72 503.915 743.561 501.172 743.282 498.509C743.044 495.845 742.448 493.46 741.494 491.353C740.579 489.207 739.089 487.497 737.021 486.225C734.954 484.953 732.092 484.317 728.435 484.317H711.143V483.065H732.788C738.433 483.065 742.905 483.86 746.204 485.45C749.543 487.001 752.048 489.068 753.717 491.652C755.387 494.196 756.5 497.018 757.056 500.119C757.653 503.18 757.971 506.26 758.011 509.361C758.05 512.422 758.13 515.244 758.249 517.828C758.408 520.372 758.845 522.42 759.561 523.97C760.316 525.52 761.707 526.295 763.735 526.295C764.967 526.295 766.08 526.176 767.074 525.938C768.108 525.659 769.022 525.322 769.817 524.924L770.652 527.13C769.698 527.647 768.167 528.104 766.06 528.502C763.953 528.899 761.568 529.098 758.905 529.098Z" fill="#3C4043"/>
<path d="M821.567 529.635C819.5 529.635 817.612 529.297 815.903 528.621C814.193 527.945 812.842 526.832 811.848 525.282C810.854 523.731 810.357 521.684 810.357 519.14V492.129C810.357 489.266 810.099 486.524 809.582 483.9C809.065 481.276 808.032 479.13 806.482 477.46C804.931 475.79 802.566 474.956 799.386 474.956C797.637 474.956 795.788 475.154 793.84 475.552C791.932 475.949 790.144 476.566 788.474 477.4C786.804 478.195 785.433 479.229 784.36 480.501C783.326 481.733 782.809 483.224 782.809 484.973H780.007C780.007 482.827 780.742 481.117 782.213 479.845C783.724 478.533 785.393 477.877 787.222 477.877C789.17 477.877 790.919 478.474 792.469 479.666C794.059 480.859 794.854 482.548 794.854 484.735C794.854 487.239 794.039 489.088 792.409 490.28C790.819 491.433 789.09 492.009 787.222 492.009C785.155 492.009 783.406 491.413 781.974 490.22C780.583 488.988 779.887 487.239 779.887 484.973C779.887 482.986 780.504 481.237 781.736 479.726C782.968 478.215 784.618 476.943 786.685 475.91C788.792 474.836 791.137 474.022 793.721 473.465C796.345 472.908 799.008 472.63 801.711 472.63C807.356 472.63 811.669 473.564 814.651 475.433C817.632 477.261 819.679 479.666 820.792 482.648C821.905 485.629 822.462 488.789 822.462 492.129V521.287C822.462 522.598 822.7 523.712 823.177 524.626C823.654 525.54 824.628 525.997 826.099 525.997C827.133 525.997 828.286 525.58 829.558 524.745C830.869 523.91 831.883 522.797 832.599 521.406L833.791 523.374C832.718 525.242 831.128 526.753 829.021 527.905C826.954 529.058 824.469 529.635 821.567 529.635ZM792.708 529.635C787.54 529.635 783.406 528.323 780.305 525.699C777.244 523.036 775.714 519.438 775.714 514.906C775.714 509.58 777.999 505.406 782.571 502.385C787.182 499.324 793.721 497.793 802.188 497.793H815.903V499.821H803.262C799.883 499.821 797.16 500.556 795.093 502.027C793.065 503.458 791.575 505.247 790.621 507.393C789.666 509.54 789.189 511.667 789.189 513.774C789.189 515.721 789.468 517.57 790.024 519.319C790.621 521.068 791.535 522.519 792.767 523.672C793.999 524.785 795.609 525.341 797.597 525.341C799.624 525.341 801.612 524.646 803.56 523.254C805.508 521.863 807.118 519.796 808.39 517.053C809.702 514.31 810.357 510.852 810.357 506.678H811.729C811.729 511.21 810.974 515.205 809.463 518.663C807.992 522.121 805.846 524.825 803.023 526.772C800.201 528.681 796.762 529.635 792.708 529.635Z" fill="#3C4043"/>
<path d="M862.718 559.449C859.061 559.449 855.603 559.15 852.343 558.554C849.123 557.958 846.261 557.004 843.757 555.692C841.252 554.42 839.284 552.77 837.853 550.743C836.422 548.755 835.707 546.35 835.707 543.528C835.707 540.904 836.323 538.698 837.555 536.909C838.788 535.12 840.318 533.689 842.147 532.616C844.015 531.582 845.903 530.847 847.811 530.41C849.719 529.972 851.349 529.754 852.701 529.754H854.43C852.005 530.986 850.236 532.656 849.123 534.763C848.01 536.869 847.453 539.334 847.453 542.156C847.453 544.701 848.109 547.086 849.421 549.312C850.733 551.578 852.661 553.406 855.205 554.798C857.789 556.189 860.989 556.885 864.805 556.885C867.667 556.885 870.371 556.527 872.915 555.811C875.459 555.136 877.685 554.142 879.593 552.83C881.541 551.518 883.071 549.868 884.184 547.881C885.297 545.933 885.854 543.687 885.854 541.143C885.854 538.797 885.218 536.83 883.946 535.24C882.674 533.65 880.964 532.437 878.818 531.602C876.711 530.768 874.366 530.35 871.782 530.35C870.947 530.35 869.575 530.35 867.667 530.35C865.799 530.35 863.931 530.35 862.062 530.35C860.194 530.35 858.823 530.35 857.948 530.35C852.343 530.35 847.871 529.555 844.532 527.965C841.193 526.375 839.523 523.731 839.523 520.034C839.523 517.808 840.159 515.88 841.431 514.251C842.703 512.621 844.412 511.269 846.559 510.196C848.706 509.123 851.111 508.328 853.774 507.811C856.437 507.254 859.18 506.976 862.003 506.976L861.883 508.526C860.651 508.526 859.26 508.685 857.709 509.003C856.199 509.282 854.748 509.719 853.357 510.315C851.965 510.911 850.813 511.647 849.898 512.521C849.024 513.396 848.586 514.37 848.586 515.443C848.586 517.391 849.64 518.584 851.747 519.021C853.854 519.458 856.537 519.677 859.796 519.677C861.188 519.677 862.48 519.677 863.672 519.677C864.905 519.637 866.077 519.617 867.19 519.617C868.343 519.577 869.496 519.557 870.649 519.557C872.875 519.557 875.161 519.776 877.506 520.213C879.851 520.651 882.018 521.525 884.005 522.837C885.993 524.109 887.603 525.977 888.835 528.442C890.068 530.907 890.684 534.166 890.684 538.221C890.684 542.037 889.909 545.277 888.358 547.94C886.808 550.644 884.701 552.83 882.038 554.499C879.374 556.209 876.373 557.461 873.034 558.256C869.695 559.051 866.256 559.449 862.718 559.449ZM860.87 509.003C858.326 509.003 855.762 508.665 853.178 507.99C850.594 507.314 848.189 506.26 845.963 504.829C843.776 503.359 842.007 501.47 840.656 499.165C839.344 496.819 838.688 493.997 838.688 490.697C838.688 487.398 839.344 484.596 840.656 482.29C842.007 479.945 843.776 478.056 845.963 476.625C848.189 475.194 850.594 474.141 853.178 473.465C855.762 472.789 858.326 472.451 860.87 472.451C863.374 472.451 865.898 472.789 868.443 473.465C871.026 474.141 873.372 475.194 875.479 476.625C877.585 478.056 879.275 479.945 880.547 482.29C881.859 484.596 882.515 487.398 882.515 490.697C882.515 493.997 881.859 496.819 880.547 499.165C879.275 501.47 877.585 503.359 875.479 504.829C873.372 506.26 871.026 507.314 868.443 507.99C865.898 508.665 863.374 509.003 860.87 509.003ZM860.87 506.678C863.016 506.678 864.785 505.962 866.177 504.531C867.568 503.1 868.602 501.192 869.277 498.807C869.953 496.382 870.291 493.679 870.291 490.697C870.291 487.676 869.953 484.973 869.277 482.588C868.602 480.163 867.568 478.255 866.177 476.864C864.785 475.472 863.016 474.777 860.87 474.777C858.683 474.777 856.895 475.472 855.503 476.864C854.152 478.255 853.118 480.163 852.403 482.588C851.727 484.973 851.389 487.676 851.389 490.697C851.389 493.679 851.588 496.382 851.985 498.807C852.383 501.192 853.237 503.1 854.549 504.531C855.901 505.962 858.008 506.678 860.87 506.678ZM894.261 489.386C892.632 489.386 891.141 488.829 889.789 487.716C888.478 486.603 887.822 485.013 887.822 482.946C887.822 480.839 888.497 479.328 889.849 478.414C891.24 477.46 892.711 476.983 894.261 476.983C895.812 476.983 897.302 477.46 898.734 478.414C900.165 479.328 900.88 480.66 900.88 482.409H898.614C898.614 480.62 897.919 478.991 896.527 477.52C895.136 476.009 893.188 475.254 890.684 475.254C889.173 475.254 887.504 475.612 885.675 476.327C883.886 477.003 882.197 478.255 880.607 480.084C879.017 481.873 877.824 484.417 877.029 487.716L875.359 486.524C876.154 483.065 877.426 480.362 879.176 478.414C880.964 476.427 882.873 475.035 884.9 474.24C886.967 473.405 888.835 472.988 890.505 472.988C892.612 472.988 894.44 473.445 895.991 474.359C897.581 475.274 898.813 476.466 899.688 477.937C900.562 479.368 900.999 480.859 900.999 482.409C900.999 485.073 900.284 486.901 898.853 487.895C897.422 488.889 895.891 489.386 894.261 489.386Z" fill="#3C4043"/>
<path d="M906.712 529.635V511.806H909.097C909.733 514.747 910.945 517.371 912.734 519.677C914.523 521.982 916.709 523.811 919.293 525.162C921.877 526.474 924.66 527.13 927.641 527.13C929.907 527.13 932.014 526.792 933.962 526.117C935.909 525.401 937.48 524.348 938.672 522.956C939.865 521.565 940.461 519.776 940.461 517.59C940.461 515.205 939.686 513.316 938.136 511.925C936.585 510.534 934.578 509.381 932.113 508.467C929.688 507.513 927.104 506.578 924.362 505.664C921.658 504.75 919.074 503.637 916.61 502.325C914.185 501.013 912.197 499.264 910.647 497.078C909.097 494.891 908.322 492.009 908.322 488.432C908.322 485.728 908.938 483.164 910.17 480.74C911.402 478.315 913.251 476.347 915.715 474.836C918.22 473.286 921.36 472.511 925.137 472.511C927.84 472.511 930.304 472.968 932.531 473.882C934.796 474.757 936.784 475.91 938.493 477.341L943.442 472.451H945.529V489.088H943.144C942.707 486.702 941.693 484.437 940.103 482.29C938.553 480.143 936.506 478.394 933.962 477.043C931.457 475.651 928.555 474.956 925.256 474.956C923.388 474.956 921.678 475.274 920.128 475.91C918.617 476.546 917.385 477.46 916.431 478.653C915.517 479.845 915.06 481.256 915.06 482.886C915.06 484.993 915.874 486.722 917.504 488.074C919.134 489.386 921.221 490.538 923.765 491.532C926.309 492.486 928.993 493.46 931.815 494.454C934.677 495.408 937.38 496.581 939.924 497.972C942.508 499.363 944.595 501.152 946.185 503.339C947.815 505.525 948.63 508.308 948.63 511.687C948.63 515.383 947.716 518.584 945.887 521.287C944.098 523.99 941.693 526.057 938.672 527.488C935.651 528.919 932.292 529.635 928.595 529.635C925.773 529.635 923.109 529.158 920.605 528.204C918.101 527.249 915.874 525.918 913.927 524.208L908.739 529.635H906.712Z" fill="#3C4043"/>
<path d="M974.256 529.277C970.838 529.277 968.254 528.581 966.505 527.19C964.755 525.759 963.563 523.97 962.927 521.823C962.291 519.637 961.973 517.351 961.973 514.966V461.659C964 461.659 966.206 461.301 968.592 460.585C970.977 459.87 972.885 459.035 974.316 458.081V517.53C974.316 520.512 974.674 522.539 975.389 523.612C976.144 524.646 977.357 525.162 979.026 525.162C980.855 525.162 982.624 524.367 984.333 522.777C986.082 521.148 987.513 519.22 988.627 516.993L990.594 518.186C989.044 521.485 986.957 524.169 984.333 526.236C981.749 528.263 978.39 529.277 974.256 529.277ZM953.863 475.91V473.584H987.076V475.91H953.863Z" fill="#3C4043"/>
<path d="M1022.88 529.635C1017.16 529.635 1012.21 528.323 1008.03 525.699C1003.86 523.076 1000.64 519.597 998.373 515.264C996.107 510.931 994.974 506.181 994.974 501.013C994.974 495.845 996.107 491.095 998.373 486.762C1000.64 482.429 1003.86 478.971 1008.03 476.387C1012.21 473.763 1017.16 472.451 1022.88 472.451C1028.56 472.451 1033.47 473.763 1037.61 476.387C1041.78 478.971 1044.98 482.429 1047.21 486.762C1049.47 491.095 1050.61 495.845 1050.61 501.013C1050.61 506.181 1049.47 510.931 1047.21 515.264C1044.98 519.597 1041.78 523.076 1037.61 525.699C1033.47 528.323 1028.56 529.635 1022.88 529.635ZM1022.88 527.309C1025.74 527.309 1028.11 526.514 1029.98 524.924C1031.84 523.334 1033.28 521.247 1034.27 518.663C1035.26 516.079 1035.94 513.237 1036.3 510.136C1036.69 507.036 1036.89 503.995 1036.89 501.013C1036.89 497.992 1036.69 494.951 1036.3 491.89C1035.94 488.789 1035.26 485.947 1034.27 483.363C1033.28 480.779 1031.84 478.692 1029.98 477.102C1028.11 475.512 1025.74 474.717 1022.88 474.717C1019.94 474.717 1017.53 475.512 1015.67 477.102C1013.84 478.692 1012.43 480.779 1011.43 483.363C1010.44 485.947 1009.74 488.789 1009.34 491.89C1008.99 494.951 1008.81 497.992 1008.81 501.013C1008.81 503.995 1008.99 507.036 1009.34 510.136C1009.74 513.237 1010.44 516.079 1011.43 518.663C1012.43 521.247 1013.84 523.334 1015.67 524.924C1017.53 526.514 1019.94 527.309 1022.88 527.309Z" fill="#3C4043"/>
<path d="M1077.32 473.584V526.117H1084.6V528.442H1057.29V526.117H1065.22V475.91H1057.29V473.584H1077.32ZM1113.69 490.34V526.117H1121.56V528.442H1094.2V526.117H1101.53V492.069C1101.53 488.73 1101.37 485.868 1101.05 483.483C1100.77 481.058 1100.14 479.209 1099.14 477.937C1098.19 476.625 1096.7 475.969 1094.67 475.969C1091.73 475.969 1089.17 476.804 1086.98 478.474C1084.79 480.143 1082.99 482.29 1081.55 484.914C1080.16 487.537 1079.11 490.34 1078.39 493.321C1077.68 496.303 1077.32 499.105 1077.32 501.729L1075.77 501.967C1075.77 499.264 1076.11 496.243 1076.78 492.904C1077.46 489.525 1078.61 486.285 1080.24 483.184C1081.87 480.044 1084.06 477.48 1086.8 475.492C1089.58 473.465 1093.08 472.451 1097.3 472.451C1101.87 472.451 1105.33 473.226 1107.67 474.777C1110.02 476.327 1111.61 478.454 1112.44 481.157C1113.28 483.82 1113.69 486.881 1113.69 490.34Z" fill="#3C4043"/>
<path d="M1155.79 529.635C1150.58 529.635 1145.89 528.502 1141.72 526.236C1137.58 523.97 1134.28 520.71 1131.82 516.457C1129.39 512.164 1128.18 507.016 1128.18 501.013C1128.18 495.011 1129.33 489.883 1131.64 485.629C1133.95 481.336 1137.13 478.076 1141.18 475.85C1145.24 473.584 1149.89 472.451 1155.13 472.451C1160.9 472.451 1165.55 473.604 1169.09 475.91C1172.62 478.215 1175.19 481.256 1176.78 485.033C1178.41 488.77 1179.22 492.804 1179.22 497.137H1136.23V494.812H1165.21C1165.21 492.705 1165.11 490.499 1164.91 488.193C1164.71 485.848 1164.28 483.661 1163.6 481.634C1162.93 479.607 1161.91 477.957 1160.56 476.685C1159.25 475.373 1157.44 474.717 1155.13 474.717C1152.51 474.717 1150.34 475.433 1148.63 476.864C1146.96 478.255 1145.65 480.163 1144.7 482.588C1143.75 485.013 1143.09 487.776 1142.73 490.876C1142.37 493.977 1142.19 497.237 1142.19 500.655C1142.19 504.193 1142.41 507.552 1142.85 510.733C1143.29 513.913 1144.04 516.715 1145.12 519.14C1146.23 521.565 1147.74 523.493 1149.65 524.924C1151.6 526.315 1154.06 527.011 1157.04 527.011C1162.29 527.011 1166.62 525.659 1170.04 522.956C1173.46 520.253 1175.9 516.834 1177.38 512.7H1180.06C1178.51 517.55 1175.75 521.585 1171.77 524.805C1167.8 528.025 1162.47 529.635 1155.79 529.635Z" fill="#3C4043"/>
<path d="M1290.76 534.37V526.051H1280.39V492.895H1294.74C1302.57 492.895 1310.17 494.101 1310.17 503.023V534.37H1331.75V526.051H1321.62V501.938C1321.62 494.704 1317.04 489.158 1310.17 489.158V488.917C1319.45 484.817 1325 479.874 1325 469.023C1325 455.761 1316.2 447.562 1300.77 447.321H1258.69V455.64H1268.94V526.051H1258.69V534.37H1290.76ZM1280.39 455.64H1293.17C1302.57 455.64 1313.55 457.087 1313.55 468.903C1313.55 481.08 1303.78 484.576 1293.17 484.576H1280.39V455.64Z" fill="#3C4043"/>
<path d="M1395.29 486.747H1404.69V478.669H1386.13V487.108H1385.76C1381.91 481.562 1373.95 477.463 1366.83 477.463C1349.59 477.463 1339.23 490.122 1339.23 506.399C1339.23 522.675 1349.59 535.576 1366.83 535.576C1373.95 535.576 1381.91 531.597 1385.76 525.931H1386.13V534.37H1404.69V526.292H1395.29V486.747ZM1349.59 506.399C1349.59 496.03 1355.14 485.661 1367.8 485.661C1376.84 485.661 1385.88 493.137 1385.88 506.399C1385.88 519.661 1376.84 527.377 1367.8 527.377C1355.14 527.377 1349.59 517.129 1349.59 506.399Z" fill="#3C4043"/>
<path d="M1470.32 486.747H1479.97V478.669H1460.8V486.626H1460.55C1456.09 480.839 1448.86 477.463 1441.38 477.463C1422.7 477.463 1413.65 492.654 1413.65 506.64C1413.65 520.626 1422.7 535.576 1441.38 535.576C1450.91 535.576 1458.99 529.548 1459.71 526.292H1459.95V532.924C1459.95 546.668 1452.96 551.129 1441.87 551.25C1435.6 551.25 1428.6 548.838 1426.31 542.81H1414.5C1418.36 554.264 1430.05 559.448 1441.38 559.448C1460.31 559.448 1470.32 550.888 1470.32 531.597V486.747ZM1442.23 485.661C1453.56 485.661 1459.95 493.619 1459.95 506.64C1459.95 519.902 1449.46 527.377 1442.23 527.377C1430.17 527.377 1424.02 516.526 1424.02 506.64C1424.02 492.413 1432.82 485.661 1442.23 485.661Z" fill="#3C4043"/>
<path d="M1497.25 528.824C1501.95 534.129 1509.54 535.576 1516.42 535.576C1527.51 535.576 1538.12 530.874 1538.12 518.456C1538.12 494.463 1498.57 507.243 1498.57 493.257C1498.57 486.988 1504.36 485.661 1511.47 485.661C1514.73 485.661 1517.74 486.626 1520.27 488.314C1522.93 490.002 1524.86 492.534 1525.82 495.668H1534.38V478.669H1526.3V483.853C1521.6 479.874 1515.57 477.463 1509.42 477.463C1499.18 477.463 1489.17 481.924 1489.17 493.498C1489.17 520.143 1528.71 505.073 1528.71 519.3C1528.71 526.895 1519.91 527.377 1515.09 527.377C1508.46 527.377 1499.78 524.363 1497.25 516.285H1489.17V534.37H1497.25V528.824Z" fill="#3C4043"/>
<path d="M1566.93 478.669V459.378H1556.57V478.669H1547.04V486.747H1556.57V520.987C1556.57 532.924 1558.86 535.576 1568.5 535.576C1571.52 535.576 1574.53 535.214 1577.42 534.37V526.051C1575.74 526.172 1573.93 526.413 1572.24 526.413C1568.02 526.413 1566.93 525.931 1566.93 518.214V486.747H1577.54V478.669H1566.93Z" fill="#3C4043"/>
<path d="M1587.07 506.519C1587.07 522.314 1598.04 535.576 1616.85 535.576C1635.66 535.576 1646.63 522.314 1646.63 506.519C1646.63 490.725 1635.66 477.463 1616.85 477.463C1598.04 477.463 1587.07 490.725 1587.07 506.519ZM1616.85 485.661C1628.54 485.661 1636.26 494.101 1636.26 506.519C1636.26 518.938 1628.54 527.377 1616.85 527.377C1605.15 527.377 1597.44 518.938 1597.44 506.519C1597.44 494.101 1605.15 485.661 1616.85 485.661Z" fill="#3C4043"/>
<path d="M1673.84 478.669H1654.18V486.747H1663.47V526.292H1654.18V534.37H1683V526.292H1673.84V495.427C1679.38 490.243 1684.81 486.144 1692.77 486.144C1697.71 486.144 1700.48 490.364 1700.48 496.151V526.292H1690.96V534.37H1719.41V526.292H1710.85V493.619C1710.85 483.009 1702.53 477.463 1693.73 477.463C1686.86 477.463 1678.3 482.165 1673.84 487.108V478.669Z" fill="#3C4043"/>
<path d="M1786.49 510.016C1786.49 491.69 1774.67 477.463 1757.19 477.463C1741.03 477.463 1727.77 490.122 1727.77 506.761C1727.77 523.399 1741.03 535.576 1756.46 535.576C1769.37 535.576 1782.27 528.824 1785.28 518.214H1775.03C1771.78 523.76 1765.02 527.377 1756.58 527.377C1748.02 527.377 1739.1 520.867 1738.14 510.016H1786.49ZM1738.14 501.938C1739.1 492.895 1747.54 485.661 1757.07 485.661C1766.83 485.661 1776.12 493.137 1776.12 501.938H1738.14Z" fill="#3C4043"/>
<path d="M877.722 946.736H866.922L865.086 953H861.846L869.478 927.8H875.166L882.798 953H879.558L877.722 946.736ZM872.106 929.096L867.75 943.928H876.894L872.538 929.096H872.106Z" fill="#1A73E8"/>
<path d="M886.481 927.8H889.505V950.192H902.681V953H886.481V927.8Z" fill="#1A73E8"/>
<path d="M908.524 927.8H911.548V950.192H924.724V953H908.524V927.8Z" fill="#1A73E8"/>
<path d="M966.434 935.072C966.434 934.256 966.266 933.536 965.93 932.912C965.618 932.288 965.186 931.772 964.634 931.364C964.082 930.956 963.446 930.644 962.726 930.428C962.006 930.212 961.25 930.104 960.458 930.104C959.762 930.104 959.102 930.2 958.478 930.392C957.854 930.56 957.29 930.812 956.786 931.148C956.306 931.484 955.922 931.904 955.634 932.408C955.346 932.888 955.202 933.452 955.202 934.1V934.316C955.202 935.012 955.346 935.612 955.634 936.116C955.922 936.596 956.342 937.016 956.894 937.376C957.47 937.712 958.178 938 959.018 938.24C959.858 938.456 960.842 938.648 961.97 938.816C964.61 939.224 966.554 940.004 967.802 941.156C969.05 942.284 969.674 943.808 969.674 945.728V946.16C969.674 947.24 969.482 948.236 969.098 949.148C968.738 950.036 968.186 950.804 967.442 951.452C966.722 952.1 965.822 952.604 964.742 952.964C963.662 953.324 962.414 953.504 960.998 953.504C959.39 953.504 957.962 953.276 956.714 952.82C955.49 952.34 954.458 951.692 953.618 950.876C952.802 950.036 952.178 949.064 951.746 947.96C951.314 946.832 951.098 945.608 951.098 944.288V943.208H954.122V944.072C954.122 946.28 954.722 947.936 955.922 949.04C957.146 950.144 958.838 950.696 960.998 950.696C962.87 950.696 964.274 950.288 965.21 949.472C966.17 948.632 966.65 947.528 966.65 946.16V945.944C966.65 944.624 966.158 943.616 965.174 942.92C964.214 942.224 962.642 941.72 960.458 941.408C959.186 941.24 958.034 940.988 957.002 940.652C955.994 940.292 955.13 939.836 954.41 939.284C953.69 938.708 953.138 938.024 952.754 937.232C952.37 936.44 952.178 935.504 952.178 934.424V933.992C952.178 933.008 952.382 932.108 952.79 931.292C953.198 930.476 953.762 929.768 954.482 929.168C955.226 928.568 956.102 928.112 957.11 927.8C958.142 927.464 959.27 927.296 960.494 927.296C961.91 927.296 963.17 927.5 964.274 927.908C965.402 928.316 966.35 928.868 967.118 929.564C967.886 930.236 968.462 931.04 968.846 931.976C969.254 932.888 969.458 933.848 969.458 934.856V936.368H966.434V935.072Z" fill="#1A73E8"/>
<path d="M974.905 927.8H990.169V930.608H977.929V938.96H989.953V941.768H977.929V950.192H990.385V953H974.905V927.8Z" fill="#1A73E8"/>
<path d="M1012.46 953H1009.44V944.576C1009.44 943.952 1009.3 943.472 1009.01 943.136C1008.72 942.8 1008.22 942.632 1007.5 942.632H999.648V953H996.624V927.8H1005.62C1006.92 927.8 1008.05 927.992 1009.01 928.376C1009.97 928.736 1010.76 929.228 1011.38 929.852C1012.03 930.476 1012.51 931.208 1012.82 932.048C1013.16 932.864 1013.33 933.728 1013.33 934.64V935.72C1013.33 936.656 1013.06 937.592 1012.54 938.528C1012.03 939.464 1011.24 940.184 1010.16 940.688V941.12C1010.88 941.24 1011.44 941.528 1011.85 941.984C1012.26 942.44 1012.46 943.088 1012.46 943.928V953ZM999.648 939.824H1005.26C1006.97 939.824 1008.23 939.464 1009.04 938.744C1009.88 938 1010.3 936.92 1010.3 935.504V934.856C1010.3 933.584 1009.88 932.564 1009.04 931.796C1008.23 931.004 1006.97 930.608 1005.26 930.608H999.648V939.824Z" fill="#1A73E8"/>
<path d="M1018.63 927.8H1034.61V930.608H1028.13V950.192H1034.61V953H1018.63V950.192H1025.11V930.608H1018.63V927.8Z" fill="#1A73E8"/>
<path d="M1041.07 927.8H1056.55V930.608H1044.09V938.96H1056.33V941.768H1044.09V953H1041.07V927.8Z" fill="#1A73E8"/>
</svg>
