<svg width="1920" height="1080" viewBox="0 0 1920 1080" fill="none" xmlns="http://www.w3.org/2000/svg">
<path d="M1031.17 276.14L1042.93 277.61V381H1032.64L1031.52 371.27C1028.77 375.19 1025.59 378.06 1022 379.88C1018.45 381.7 1014.65 382.61 1010.59 382.61C1004.2 382.61 998.924 381 994.77 377.78C990.617 374.56 987.537 370.08 985.53 364.34C983.524 358.553 982.52 351.857 982.52 344.25C982.52 336.877 983.664 330.297 985.95 324.51C988.237 318.677 991.527 314.103 995.82 310.79C1000.16 307.43 1005.36 305.75 1011.43 305.75C1015.68 305.75 1019.41 306.497 1022.63 307.99C1025.85 309.437 1028.7 311.583 1031.17 314.43V276.14ZM1014.51 315.2C1008.35 315.2 1003.61 317.603 1000.3 322.41C996.987 327.217 995.33 334.497 995.33 344.25C995.33 350.597 996.007 355.917 997.36 360.21C998.714 364.503 1000.7 367.723 1003.31 369.87C1005.97 372.017 1009.21 373.09 1013.04 373.09C1017.24 373.09 1020.81 371.9 1023.75 369.52C1026.74 367.14 1029.21 364.457 1031.17 361.47V324.65C1029.16 321.663 1026.74 319.353 1023.89 317.72C1021.04 316.04 1017.92 315.2 1014.51 315.2Z" fill="#D2E3FC"/>
<path d="M1132.34 307.29L1106.44 381.49C1104.71 386.483 1102.52 391.057 1099.86 395.21C1097.24 399.363 1093.81 402.793 1089.57 405.5C1085.37 408.253 1080.02 409.957 1073.54 410.61L1071.72 401.23C1076.8 400.39 1080.82 399.107 1083.76 397.38C1086.7 395.653 1089.01 393.437 1090.69 390.73C1092.41 388.023 1093.93 384.78 1095.24 381H1091.32L1065.56 307.29H1078.16L1099.3 372.04L1120.16 307.29H1132.34Z" fill="#D2E3FC"/>
<path d="M1154.96 381V307.29H1164.97L1165.88 317.51C1168.87 313.73 1172.6 310.837 1177.08 308.83C1181.61 306.777 1185.99 305.75 1190.24 305.75C1197.47 305.75 1202.72 307.663 1205.99 311.49C1209.3 315.317 1210.96 320.637 1210.96 327.45V381H1199.2V336.13C1199.2 331.09 1198.92 327.03 1198.36 323.95C1197.8 320.823 1196.63 318.56 1194.86 317.16C1193.09 315.713 1190.33 314.99 1186.6 314.99C1183.71 314.99 1180.98 315.62 1178.41 316.88C1175.89 318.14 1173.63 319.727 1171.62 321.64C1169.66 323.507 1168.03 325.397 1166.72 327.31V381H1154.96Z" fill="#D2E3FC"/>
<path d="M1291.69 364.9C1291.69 367.84 1292.18 369.987 1293.16 371.34C1294.14 372.693 1295.65 373.697 1297.71 374.35L1294.84 382.61C1291.66 382.19 1288.89 381.187 1286.51 379.6C1284.13 377.967 1282.4 375.517 1281.33 372.25C1278.67 375.657 1275.35 378.247 1271.39 380.02C1267.42 381.747 1263.03 382.61 1258.23 382.61C1250.85 382.61 1245.04 380.533 1240.8 376.38C1236.55 372.227 1234.43 366.72 1234.43 359.86C1234.43 352.253 1237.39 346.42 1243.32 342.36C1249.24 338.3 1257.81 336.27 1269.01 336.27H1279.86V330.11C1279.86 324.79 1278.29 321.033 1275.17 318.84C1272.09 316.6 1267.79 315.48 1262.29 315.48C1259.86 315.48 1257.01 315.783 1253.75 316.39C1250.48 316.95 1246.93 317.907 1243.11 319.26L1240.03 310.37C1244.55 308.69 1248.8 307.5 1252.77 306.8C1256.73 306.1 1260.51 305.75 1264.11 305.75C1273.3 305.75 1280.18 307.897 1284.76 312.19C1289.38 316.437 1291.69 322.223 1291.69 329.55V364.9ZM1261.24 373.65C1264.88 373.65 1268.35 372.74 1271.67 370.92C1274.98 369.053 1277.71 366.487 1279.86 363.22V344.25H1269.22C1261.1 344.25 1255.36 345.65 1252 348.45C1248.68 351.25 1247.03 355.007 1247.03 359.72C1247.03 364.293 1248.19 367.77 1250.53 370.15C1252.91 372.483 1256.48 373.65 1261.24 373.65Z" fill="#D2E3FC"/>
<path d="M1371.43 305.75C1373.81 305.75 1376.07 306.263 1378.22 307.29C1380.41 308.317 1382.21 310.3 1383.61 313.24C1385.01 316.18 1385.71 320.473 1385.71 326.12V381H1374.79V328.01C1374.79 323.39 1374.51 320.053 1373.95 318C1373.39 315.947 1371.78 314.92 1369.12 314.92C1366.93 314.92 1364.73 315.62 1362.54 317.02C1360.39 318.373 1358.29 320.613 1356.24 323.74V381H1345.25V328.01C1345.25 323.39 1344.97 320.053 1344.41 318C1343.85 315.947 1342.24 314.92 1339.58 314.92C1337.29 314.92 1335.08 315.62 1332.93 317.02C1330.83 318.373 1328.75 320.613 1326.7 323.74V381H1315.85V307.29H1325.09L1325.79 315.83C1327.8 312.983 1330.04 310.603 1332.51 308.69C1335.03 306.73 1338.13 305.75 1341.82 305.75C1344.62 305.75 1347.26 306.427 1349.73 307.78C1352.2 309.087 1354.02 311.653 1355.19 315.48C1357.2 312.587 1359.46 310.253 1361.98 308.48C1364.5 306.66 1367.65 305.75 1371.43 305.75Z" fill="#D2E3FC"/>
<path d="M1444.11 307.29V371.69H1464.9V381H1409.6V371.69H1432.35V316.6H1410.3V307.29H1444.11ZM1434.73 272.78C1437.34 272.78 1439.42 273.573 1440.96 275.16C1442.54 276.747 1443.34 278.683 1443.34 280.97C1443.34 283.35 1442.54 285.357 1440.96 286.99C1439.42 288.577 1437.34 289.37 1434.73 289.37C1432.25 289.37 1430.22 288.577 1428.64 286.99C1427.05 285.357 1426.26 283.35 1426.26 280.97C1426.26 278.683 1427.05 276.747 1428.64 275.16C1430.22 273.573 1432.25 272.78 1434.73 272.78Z" fill="#D2E3FC"/>
<path d="M1524.06 372.46C1527.75 372.46 1531.18 371.853 1534.35 370.64C1537.57 369.427 1540.54 367.887 1543.24 366.02L1548.98 373.72C1545.76 376.473 1541.89 378.643 1537.36 380.23C1532.84 381.817 1528.4 382.61 1524.06 382.61C1516.74 382.61 1510.48 381.047 1505.3 377.92C1500.17 374.747 1496.25 370.313 1493.54 364.62C1490.84 358.88 1489.48 352.16 1489.48 344.46C1489.48 337.087 1490.84 330.483 1493.54 324.65C1496.3 318.77 1500.24 314.15 1505.37 310.79C1510.55 307.43 1516.83 305.75 1524.2 305.75C1528.92 305.75 1533.33 306.473 1537.43 307.92C1541.59 309.32 1545.39 311.443 1548.84 314.29L1543.1 322.13C1539.98 319.937 1536.83 318.303 1533.65 317.23C1530.53 316.11 1527.33 315.55 1524.06 315.55C1517.72 315.55 1512.49 317.93 1508.38 322.69C1504.28 327.45 1502.22 334.707 1502.22 344.46C1502.22 350.993 1503.16 356.337 1505.02 360.49C1506.94 364.597 1509.53 367.63 1512.79 369.59C1516.11 371.503 1519.86 372.46 1524.06 372.46Z" fill="#D2E3FC"/>
<path d="M1015.77 461.61V546.8C1015.77 550.44 1016.89 553.03 1019.13 554.57C1021.42 556.063 1024.36 556.81 1027.95 556.81C1030.19 556.81 1032.31 556.577 1034.32 556.11C1036.33 555.643 1038.33 555.013 1040.34 554.22L1043.49 562.83C1041.48 563.81 1038.99 564.673 1036 565.42C1033.06 566.213 1029.72 566.61 1025.99 566.61C1019.46 566.61 1014.16 564.813 1010.1 561.22C1006.04 557.58 1004.01 552.563 1004.01 546.17V470.92H981.4V461.61H1015.77Z" fill="#D2E3FC"/>
<path d="M1108.33 491.29V555.69H1129.12V565H1073.82V555.69H1096.57V500.6H1074.52V491.29H1108.33ZM1098.95 456.78C1101.56 456.78 1103.64 457.573 1105.18 459.16C1106.76 460.747 1107.56 462.683 1107.56 464.97C1107.56 467.35 1106.76 469.357 1105.18 470.99C1103.64 472.577 1101.56 473.37 1098.95 473.37C1096.47 473.37 1094.44 472.577 1092.86 470.99C1091.27 469.357 1090.48 467.35 1090.48 464.97C1090.48 462.683 1091.27 460.747 1092.86 459.16C1094.44 457.573 1096.47 456.78 1098.95 456.78Z" fill="#D2E3FC"/>
<path d="M1154.96 565V491.29H1164.97L1165.88 501.51C1168.87 497.73 1172.6 494.837 1177.08 492.83C1181.61 490.777 1185.99 489.75 1190.24 489.75C1197.47 489.75 1202.72 491.663 1205.99 495.49C1209.3 499.317 1210.96 504.637 1210.96 511.45V565H1199.2V520.13C1199.2 515.09 1198.92 511.03 1198.36 507.95C1197.8 504.823 1196.63 502.56 1194.86 501.16C1193.09 499.713 1190.33 498.99 1186.6 498.99C1183.71 498.99 1180.98 499.62 1178.41 500.88C1175.89 502.14 1173.63 503.727 1171.62 505.64C1169.66 507.507 1168.03 509.397 1166.72 511.31V565H1154.96Z" fill="#D2E3FC"/>
<path d="M1248.15 532.31C1248.38 538.003 1249.48 542.67 1251.44 546.31C1253.4 549.903 1255.99 552.563 1259.21 554.29C1262.43 555.97 1265.93 556.81 1269.71 556.81C1273.49 556.81 1276.89 556.25 1279.93 555.13C1283.01 554.01 1286.16 552.353 1289.38 550.16L1294.91 557.93C1291.45 560.637 1287.51 562.76 1283.08 564.3C1278.69 565.84 1274.19 566.61 1269.57 566.61C1262.43 566.61 1256.34 565 1251.3 561.78C1246.26 558.56 1242.41 554.08 1239.75 548.34C1237.13 542.553 1235.83 535.857 1235.83 528.25C1235.83 520.783 1237.16 514.157 1239.82 508.37C1242.48 502.583 1246.21 498.033 1251.02 494.72C1255.82 491.407 1261.49 489.75 1268.03 489.75C1274.23 489.75 1279.58 491.22 1284.06 494.16C1288.54 497.053 1291.97 501.207 1294.35 506.62C1296.77 511.987 1297.99 518.403 1297.99 525.87C1297.99 527.13 1297.96 528.32 1297.92 529.44C1297.87 530.513 1297.8 531.47 1297.71 532.31H1248.15ZM1268.17 499.41C1262.71 499.41 1258.13 501.347 1254.45 505.22C1250.81 509.093 1248.73 515.09 1248.22 523.21H1286.65C1286.51 515.323 1284.78 509.397 1281.47 505.43C1278.15 501.417 1273.72 499.41 1268.17 499.41Z" fill="#D2E3FC"/>
<path d="M1375.63 548.9C1375.63 551.84 1376.12 553.987 1377.1 555.34C1378.08 556.693 1379.6 557.697 1381.65 558.35L1378.78 566.61C1375.61 566.19 1372.83 565.187 1370.45 563.6C1368.07 561.967 1366.34 559.517 1365.27 556.25C1362.61 559.657 1359.3 562.247 1355.33 564.02C1351.36 565.747 1346.98 566.61 1342.17 566.61C1334.8 566.61 1328.99 564.533 1324.74 560.38C1320.49 556.227 1318.37 550.72 1318.37 543.86C1318.37 536.253 1321.33 530.42 1327.26 526.36C1333.19 522.3 1341.75 520.27 1352.95 520.27H1363.8V514.11C1363.8 508.79 1362.24 505.033 1359.11 502.84C1356.03 500.6 1351.74 499.48 1346.23 499.48C1343.8 499.48 1340.96 499.783 1337.69 500.39C1334.42 500.95 1330.88 501.907 1327.05 503.26L1323.97 494.37C1328.5 492.69 1332.74 491.5 1336.71 490.8C1340.68 490.1 1344.46 489.75 1348.05 489.75C1357.24 489.75 1364.13 491.897 1368.7 496.19C1373.32 500.437 1375.63 506.223 1375.63 513.55V548.9ZM1345.18 557.65C1348.82 557.65 1352.3 556.74 1355.61 554.92C1358.92 553.053 1361.65 550.487 1363.8 547.22V528.25H1353.16C1345.04 528.25 1339.3 529.65 1335.94 532.45C1332.63 535.25 1330.97 539.007 1330.97 543.72C1330.97 548.293 1332.14 551.77 1334.47 554.15C1336.85 556.483 1340.42 557.65 1345.18 557.65Z" fill="#D2E3FC"/>
<path d="M1407.5 565V555.97H1418.98V500.32H1407.5V491.29H1427.94L1430.11 508.72C1432.95 502.653 1436.41 497.963 1440.47 494.65C1444.53 491.337 1449.89 489.68 1456.57 489.68C1458.62 489.68 1460.44 489.843 1462.03 490.17C1463.66 490.45 1465.32 490.823 1467 491.29L1463.57 501.79C1462.03 501.37 1460.63 501.067 1459.37 500.88C1458.11 500.647 1456.66 500.53 1455.03 500.53C1449.38 500.53 1444.53 502.537 1440.47 506.55C1436.41 510.563 1433.16 516.63 1430.74 524.75V555.97H1445.72V565H1407.5ZM1455.66 516.21V500.18L1456.85 491.29H1467L1465.32 516.21H1455.66Z" fill="#D2E3FC"/>
<path d="M1035.65 673.75C1038.03 673.75 1040.29 674.263 1042.44 675.29C1044.63 676.317 1046.43 678.3 1047.83 681.24C1049.23 684.18 1049.93 688.473 1049.93 694.12V749H1039.01V696.01C1039.01 691.39 1038.73 688.053 1038.17 686C1037.61 683.947 1036 682.92 1033.34 682.92C1031.15 682.92 1028.95 683.62 1026.76 685.02C1024.61 686.373 1022.51 688.613 1020.46 691.74V749H1009.47V696.01C1009.47 691.39 1009.19 688.053 1008.63 686C1008.07 683.947 1006.46 682.92 1003.8 682.92C1001.51 682.92 999.297 683.62 997.15 685.02C995.05 686.373 992.974 688.613 990.92 691.74V749H980.07V675.29H989.31L990.01 683.83C992.017 680.983 994.257 678.603 996.73 676.69C999.25 674.73 1002.35 673.75 1006.04 673.75C1008.84 673.75 1011.48 674.427 1013.95 675.78C1016.42 677.087 1018.24 679.653 1019.41 683.48C1021.42 680.587 1023.68 678.253 1026.2 676.48C1028.72 674.66 1031.87 673.75 1035.65 673.75Z" fill="#D2E3FC"/>
<path d="M1099.09 673.75C1106.04 673.75 1111.85 675.337 1116.52 678.51C1121.23 681.637 1124.75 686.07 1127.09 691.81C1129.47 697.55 1130.66 704.317 1130.66 712.11C1130.66 719.623 1129.44 726.273 1127.02 732.06C1124.59 737.847 1121.02 742.397 1116.31 745.71C1111.64 748.977 1105.85 750.61 1098.95 750.61C1092.04 750.61 1086.23 749.023 1081.52 745.85C1076.8 742.677 1073.23 738.22 1070.81 732.48C1068.43 726.693 1067.24 719.95 1067.24 712.25C1067.24 704.643 1068.45 697.947 1070.88 692.16C1073.3 686.373 1076.87 681.87 1081.59 678.65C1086.35 675.383 1092.18 673.75 1099.09 673.75ZM1099.09 683.34C1092.74 683.34 1087.93 685.697 1084.67 690.41C1081.45 695.077 1079.84 702.357 1079.84 712.25C1079.84 721.957 1081.42 729.167 1084.6 733.88C1087.82 738.593 1092.6 740.95 1098.95 740.95C1105.29 740.95 1110.05 738.593 1113.23 733.88C1116.45 729.167 1118.06 721.91 1118.06 712.11C1118.06 702.31 1116.47 695.077 1113.3 690.41C1110.12 685.697 1105.39 683.34 1099.09 683.34Z" fill="#D2E3FC"/>
<path d="M1154.96 749V675.29H1164.97L1165.88 685.51C1168.87 681.73 1172.6 678.837 1177.08 676.83C1181.61 674.777 1185.99 673.75 1190.24 673.75C1197.47 673.75 1202.72 675.663 1205.99 679.49C1209.3 683.317 1210.96 688.637 1210.96 695.45V749H1199.2V704.13C1199.2 699.09 1198.92 695.03 1198.36 691.95C1197.8 688.823 1196.63 686.56 1194.86 685.16C1193.09 683.713 1190.33 682.99 1186.6 682.99C1183.71 682.99 1180.98 683.62 1178.41 684.88C1175.89 686.14 1173.63 687.727 1171.62 689.64C1169.66 691.507 1168.03 693.397 1166.72 695.31V749H1154.96Z" fill="#D2E3FC"/>
<path d="M1266.98 673.75C1273.93 673.75 1279.74 675.337 1284.41 678.51C1289.12 681.637 1292.64 686.07 1294.98 691.81C1297.36 697.55 1298.55 704.317 1298.55 712.11C1298.55 719.623 1297.33 726.273 1294.91 732.06C1292.48 737.847 1288.91 742.397 1284.2 745.71C1279.53 748.977 1273.74 750.61 1266.84 750.61C1259.93 750.61 1254.12 749.023 1249.41 745.85C1244.69 742.677 1241.12 738.22 1238.7 732.48C1236.32 726.693 1235.13 719.95 1235.13 712.25C1235.13 704.643 1236.34 697.947 1238.77 692.16C1241.19 686.373 1244.76 681.87 1249.48 678.65C1254.24 675.383 1260.07 673.75 1266.98 673.75ZM1266.98 683.34C1260.63 683.34 1255.82 685.697 1252.56 690.41C1249.34 695.077 1247.73 702.357 1247.73 712.25C1247.73 721.957 1249.31 729.167 1252.49 733.88C1255.71 738.593 1260.49 740.95 1266.84 740.95C1273.18 740.95 1277.94 738.593 1281.12 733.88C1284.34 729.167 1285.95 721.91 1285.95 712.11C1285.95 702.31 1284.36 695.077 1281.19 690.41C1278.01 685.697 1273.28 683.34 1266.98 683.34Z" fill="#D2E3FC"/>
<path d="M1347.91 740.88C1353.56 740.88 1358.01 739.83 1361.28 737.73C1364.59 735.583 1366.25 732.737 1366.25 729.19C1366.25 726.95 1365.83 725.013 1364.99 723.38C1364.2 721.747 1362.54 720.277 1360.02 718.97C1357.5 717.663 1353.63 716.357 1348.4 715.05C1343.31 713.79 1338.88 712.343 1335.1 710.71C1331.37 709.03 1328.45 706.86 1326.35 704.2C1324.3 701.54 1323.27 698.087 1323.27 693.84C1323.27 689.687 1324.44 686.117 1326.77 683.13C1329.15 680.097 1332.44 677.787 1336.64 676.2C1340.84 674.567 1345.72 673.75 1351.27 673.75C1357.2 673.75 1362.35 674.543 1366.74 676.13C1371.17 677.67 1374.93 679.583 1378.01 681.87L1372.83 689.85C1370.03 687.937 1366.95 686.373 1363.59 685.16C1360.23 683.9 1356.17 683.27 1351.41 683.27C1345.62 683.27 1341.52 684.18 1339.09 686C1336.66 687.773 1335.45 690.083 1335.45 692.93C1335.45 695.077 1336.03 696.873 1337.2 698.32C1338.41 699.72 1340.44 701.003 1343.29 702.17C1346.14 703.29 1350.06 704.527 1355.05 705.88C1359.86 707.14 1364.03 708.657 1367.58 710.43C1371.17 712.203 1373.97 714.537 1375.98 717.43C1377.99 720.323 1378.99 724.057 1378.99 728.63C1378.99 733.857 1377.5 738.103 1374.51 741.37C1371.52 744.59 1367.65 746.947 1362.89 748.44C1358.18 749.887 1353.18 750.61 1347.91 750.61C1341.24 750.61 1335.54 749.653 1330.83 747.74C1326.16 745.78 1322.24 743.423 1319.07 740.67L1325.79 732.9C1328.68 735.28 1332 737.217 1335.73 738.71C1339.51 740.157 1343.57 740.88 1347.91 740.88Z" fill="#D2E3FC"/>
<path d="M1439.77 673.75C1446.3 673.75 1451.5 675.337 1455.38 678.51C1459.3 681.683 1462.12 686.163 1463.85 691.95C1465.57 697.69 1466.44 704.41 1466.44 712.11C1466.44 719.53 1465.39 726.157 1463.29 731.99C1461.23 737.777 1458.11 742.327 1453.91 745.64C1449.71 748.953 1444.41 750.61 1438.02 750.61C1429.94 750.61 1423.46 747.763 1418.56 742.07V777.21L1406.8 778.68V675.29H1416.81L1417.79 685.58C1420.49 681.8 1423.71 678.883 1427.45 676.83C1431.23 674.777 1435.33 673.75 1439.77 673.75ZM1436.97 683.2C1432.91 683.2 1429.31 684.437 1426.19 686.91C1423.11 689.337 1420.56 692.043 1418.56 695.03V731.57C1420.47 734.417 1422.87 736.68 1425.77 738.36C1428.71 739.993 1431.93 740.81 1435.43 740.81C1441.54 740.81 1446.14 738.477 1449.22 733.81C1452.3 729.143 1453.84 721.887 1453.84 712.04C1453.84 705.6 1453.23 700.257 1452.02 696.01C1450.8 691.717 1448.96 688.52 1446.49 686.42C1444.01 684.273 1440.84 683.2 1436.97 683.2Z" fill="#D2E3FC"/>
<path d="M1543.52 732.9C1543.52 735.84 1544.01 737.987 1544.99 739.34C1545.97 740.693 1547.49 741.697 1549.54 742.35L1546.67 750.61C1543.5 750.19 1540.72 749.187 1538.34 747.6C1535.96 745.967 1534.24 743.517 1533.16 740.25C1530.5 743.657 1527.19 746.247 1523.22 748.02C1519.26 749.747 1514.87 750.61 1510.06 750.61C1502.69 750.61 1496.88 748.533 1492.63 744.38C1488.39 740.227 1486.26 734.72 1486.26 727.86C1486.26 720.253 1489.23 714.42 1495.15 710.36C1501.08 706.3 1509.64 704.27 1520.84 704.27H1531.69V698.11C1531.69 692.79 1530.13 689.033 1527 686.84C1523.92 684.6 1519.63 683.48 1514.12 683.48C1511.7 683.48 1508.85 683.783 1505.58 684.39C1502.32 684.95 1498.77 685.907 1494.94 687.26L1491.86 678.37C1496.39 676.69 1500.64 675.5 1504.6 674.8C1508.57 674.1 1512.35 673.75 1515.94 673.75C1525.14 673.75 1532.02 675.897 1536.59 680.19C1541.21 684.437 1543.52 690.223 1543.52 697.55V732.9ZM1513.07 741.65C1516.71 741.65 1520.19 740.74 1523.5 738.92C1526.82 737.053 1529.55 734.487 1531.69 731.22V712.25H1521.05C1512.93 712.25 1507.19 713.65 1503.83 716.45C1500.52 719.25 1498.86 723.007 1498.86 727.72C1498.86 732.293 1500.03 735.77 1502.36 738.15C1504.74 740.483 1508.31 741.65 1513.07 741.65Z" fill="#D2E3FC"/>
<path d="M1608.01 740.46C1611.69 740.46 1615.12 739.853 1618.3 738.64C1621.52 737.427 1624.48 735.887 1627.19 734.02L1632.93 741.72C1629.71 744.473 1625.83 746.643 1621.31 748.23C1616.78 749.817 1612.35 750.61 1608.01 750.61C1600.68 750.61 1594.43 749.047 1589.25 745.92C1584.11 742.747 1580.19 738.313 1577.49 732.62C1574.78 726.88 1573.43 720.16 1573.43 712.46C1573.43 705.087 1574.78 698.483 1577.49 692.65C1580.24 686.77 1584.18 682.15 1589.32 678.79C1594.5 675.43 1600.77 673.75 1608.15 673.75C1612.86 673.75 1617.27 674.473 1621.38 675.92C1625.53 677.32 1629.33 679.443 1632.79 682.29L1627.05 690.13C1623.92 687.937 1620.77 686.303 1617.6 685.23C1614.47 684.11 1611.27 683.55 1608.01 683.55C1601.66 683.55 1596.43 685.93 1592.33 690.69C1588.22 695.45 1586.17 702.707 1586.17 712.46C1586.17 718.993 1587.1 724.337 1588.97 728.49C1590.88 732.597 1593.47 735.63 1596.74 737.59C1600.05 739.503 1603.81 740.46 1608.01 740.46Z" fill="#D2E3FC"/>
<path d="M1667.87 716.31C1668.11 722.003 1669.2 726.67 1671.16 730.31C1673.12 733.903 1675.71 736.563 1678.93 738.29C1682.15 739.97 1685.65 740.81 1689.43 740.81C1693.21 740.81 1696.62 740.25 1699.65 739.13C1702.73 738.01 1705.88 736.353 1709.1 734.16L1714.63 741.93C1711.18 744.637 1707.24 746.76 1702.8 748.3C1698.42 749.84 1693.91 750.61 1689.29 750.61C1682.15 750.61 1676.06 749 1671.02 745.78C1665.98 742.56 1662.13 738.08 1659.47 732.34C1656.86 726.553 1655.55 719.857 1655.55 712.25C1655.55 704.783 1656.88 698.157 1659.54 692.37C1662.2 686.583 1665.94 682.033 1670.74 678.72C1675.55 675.407 1681.22 673.75 1687.75 673.75C1693.96 673.75 1699.3 675.22 1703.78 678.16C1708.26 681.053 1711.69 685.207 1714.07 690.62C1716.5 695.987 1717.71 702.403 1717.71 709.87C1717.71 711.13 1717.69 712.32 1717.64 713.44C1717.6 714.513 1717.53 715.47 1717.43 716.31H1667.87ZM1687.89 683.41C1682.43 683.41 1677.86 685.347 1674.17 689.22C1670.53 693.093 1668.46 699.09 1667.94 707.21H1706.37C1706.23 699.323 1704.51 693.397 1701.19 689.43C1697.88 685.417 1693.45 683.41 1687.89 683.41Z" fill="#D2E3FC"/>
<path d="M56.0826 77.6319V87.9999H53.0586V62.7999H62.0586C63.3546 62.7999 64.4826 62.9919 65.4426 63.3759C66.4026 63.7359 67.1946 64.2279 67.8186 64.8519C68.4666 65.4759 68.9466 66.2079 69.2586 67.0479C69.5946 67.8639 69.7626 68.7279 69.7626 69.6399V70.7199C69.7626 71.6319 69.5946 72.5079 69.2586 73.3479C68.9466 74.1879 68.4666 74.9319 67.8186 75.5799C67.1706 76.2039 66.3666 76.7079 65.4066 77.0919C64.4466 77.4519 63.3306 77.6319 62.0586 77.6319H56.0826ZM56.0826 74.8239H61.6986C65.0586 74.8239 66.7386 73.3839 66.7386 70.5039V69.8559C66.7386 68.5839 66.3186 67.5639 65.4786 66.7959C64.6626 66.0039 63.4026 65.6079 61.6986 65.6079H56.0826V74.8239Z" fill="#1A73E8"/>
<path d="M90.9416 87.9999H87.9176V79.5759C87.9176 78.9519 87.7736 78.4719 87.4856 78.1359C87.1976 77.7999 86.6936 77.6319 85.9736 77.6319H78.1256V87.9999H75.1016V62.7999H84.1016C85.3976 62.7999 86.5256 62.9919 87.4856 63.3759C88.4456 63.7359 89.2376 64.2279 89.8616 64.8519C90.5096 65.4759 90.9896 66.2079 91.3016 67.0479C91.6376 67.8639 91.8056 68.7279 91.8056 69.6399V70.7199C91.8056 71.6559 91.5416 72.5919 91.0136 73.5279C90.5096 74.4639 89.7176 75.1839 88.6376 75.6879V76.1199C89.3576 76.2399 89.9216 76.5279 90.3296 76.9839C90.7376 77.4399 90.9416 78.0879 90.9416 78.9279V87.9999ZM78.1256 74.8239H83.7416C85.4456 74.8239 86.7056 74.4639 87.5216 73.7439C88.3616 72.9999 88.7816 71.9199 88.7816 70.5039V69.8559C88.7816 68.5839 88.3616 67.5639 87.5216 66.7959C86.7056 66.0039 85.4456 65.6079 83.7416 65.6079H78.1256V74.8239Z" fill="#1A73E8"/>
<path d="M97.1085 62.7999H113.093V65.6079H106.613V85.1919H113.093V87.9999H97.1085V85.1919H103.589V65.6079H97.1085V62.7999Z" fill="#1A73E8"/>
<path d="M117.784 62.7999H123.544L126.928 86.7039H127.36L130.743 62.7999H136.504V87.9999H133.696V64.0959H133.264L129.88 87.9999H124.408L121.024 64.0959H120.591V87.9999H117.784V62.7999Z" fill="#1A73E8"/>
<path d="M154.586 81.7359H143.786L141.95 87.9999H138.71L146.342 62.7999H152.03L159.662 87.9999H156.422L154.586 81.7359ZM148.97 64.0959L144.614 78.9279H153.758L149.402 64.0959H148.97Z" fill="#1A73E8"/>
<path d="M179.113 87.9999H176.089V79.5759C176.089 78.9519 175.945 78.4719 175.657 78.1359C175.369 77.7999 174.865 77.6319 174.145 77.6319H166.297V87.9999H163.273V62.7999H172.273C173.569 62.7999 174.697 62.9919 175.657 63.3759C176.617 63.7359 177.409 64.2279 178.033 64.8519C178.681 65.4759 179.161 66.2079 179.473 67.0479C179.809 67.8639 179.977 68.7279 179.977 69.6399V70.7199C179.977 71.6559 179.713 72.5919 179.185 73.5279C178.681 74.4639 177.889 75.1839 176.809 75.6879V76.1199C177.529 76.2399 178.093 76.5279 178.501 76.9839C178.909 77.4399 179.113 78.0879 179.113 78.9279V87.9999ZM166.297 74.8239H171.913C173.617 74.8239 174.877 74.4639 175.693 73.7439C176.533 72.9999 176.953 71.9199 176.953 70.5039V69.8559C176.953 68.5839 176.533 67.5639 175.693 66.7959C174.877 66.0039 173.617 65.6079 171.913 65.6079H166.297V74.8239Z" fill="#1A73E8"/>
<path d="M191.76 79.1439H191.112L183.228 62.7999H186.612L193.056 76.5519H193.488L199.932 62.7999H203.316L195.432 79.1439H194.784V87.9999H191.76V79.1439Z" fill="#1A73E8"/>
<path d="M228.502 62.7999H246.214V65.6079H238.87V87.9999H235.846V65.6079H228.502V62.7999Z" fill="#1A73E8"/>
<path d="M257.889 79.1439H257.241L249.357 62.7999H252.741L259.185 76.5519H259.617L266.061 62.7999H269.445L261.561 79.1439H260.913V87.9999H257.889V79.1439Z" fill="#1A73E8"/>
<path d="M276.512 77.6319V87.9999H273.488V62.7999H282.488C283.784 62.7999 284.912 62.9919 285.872 63.3759C286.832 63.7359 287.624 64.2279 288.248 64.8519C288.896 65.4759 289.376 66.2079 289.688 67.0479C290.024 67.8639 290.192 68.7279 290.192 69.6399V70.7199C290.192 71.6319 290.024 72.5079 289.688 73.3479C289.376 74.1879 288.896 74.9319 288.248 75.5799C287.6 76.2039 286.796 76.7079 285.836 77.0919C284.876 77.4519 283.76 77.6319 282.488 77.6319H276.512ZM276.512 74.8239H282.128C285.488 74.8239 287.168 73.3839 287.168 70.5039V69.8559C287.168 68.5839 286.748 67.5639 285.908 66.7959C285.092 66.0039 283.832 65.6079 282.128 65.6079H276.512V74.8239Z" fill="#1A73E8"/>
<path d="M295.855 62.7999H311.119V65.6079H298.879V73.9599H310.903V76.7679H298.879V85.1919H311.335V87.9999H295.855V62.7999Z" fill="#1A73E8"/>
<path d="M317.934 62.7999H333.414V65.6079H320.958V73.9599H333.198V76.7679H320.958V87.9999H317.934V62.7999Z" fill="#1A73E8"/>
<path d="M352.973 81.7359H342.173L340.337 87.9999H337.097L344.729 62.7999H350.417L358.049 87.9999H354.809L352.973 81.7359ZM347.357 64.0959L343.001 78.9279H352.145L347.789 64.0959H347.357Z" fill="#1A73E8"/>
<path d="M369.76 85.6959C370.792 85.6959 371.668 85.5279 372.388 85.1919C373.132 84.8319 373.732 84.3639 374.188 83.7879C374.668 83.1879 375.016 82.5159 375.232 81.7719C375.472 81.0039 375.592 80.1999 375.592 79.3599V78.9279H378.616V79.3599C378.616 80.6319 378.424 81.8319 378.04 82.9599C377.656 84.0639 377.092 85.0359 376.348 85.8759C375.604 86.6919 374.68 87.3399 373.576 87.8199C372.472 88.2759 371.2 88.5039 369.76 88.5039C366.976 88.5039 364.804 87.6279 363.244 85.8759C361.684 84.1239 360.904 81.5679 360.904 78.2079V72.5919C360.904 69.3279 361.684 66.7959 363.244 64.9959C364.804 63.1959 366.976 62.2959 369.76 62.2959C371.2 62.2959 372.472 62.5359 373.576 63.0159C374.68 63.4719 375.604 64.1199 376.348 64.9599C377.092 65.7759 377.656 66.7479 378.04 67.8759C378.424 68.9799 378.616 70.1679 378.616 71.4399V71.8719H375.592V71.4399C375.568 70.6239 375.436 69.8319 375.196 69.0639C374.98 68.2959 374.632 67.6239 374.152 67.0479C373.696 66.4479 373.108 65.9799 372.388 65.6439C371.668 65.2839 370.792 65.1039 369.76 65.1039C367.816 65.1039 366.352 65.8119 365.368 67.2279C364.408 68.6439 363.928 70.5039 363.928 72.8079V77.9919C363.928 80.4639 364.408 82.3719 365.368 83.7159C366.352 85.0359 367.816 85.6959 369.76 85.6959Z" fill="#1A73E8"/>
<path d="M384.027 62.7999H399.291V65.6079H387.051V73.9599H399.075V76.7679H387.051V85.1919H399.507V87.9999H384.027V62.7999Z" fill="#1A73E8"/>
<path d="M68.8986 136H65.8746V127.576C65.8746 126.952 65.7306 126.472 65.4426 126.136C65.1546 125.8 64.6506 125.632 63.9306 125.632H56.0826V136H53.0586V110.8H62.0586C63.3546 110.8 64.4826 110.992 65.4426 111.376C66.4026 111.736 67.1946 112.228 67.8186 112.852C68.4666 113.476 68.9466 114.208 69.2586 115.048C69.5946 115.864 69.7626 116.728 69.7626 117.64V118.72C69.7626 119.656 69.4986 120.592 68.9706 121.528C68.4666 122.464 67.6746 123.184 66.5946 123.688V124.12C67.3146 124.24 67.8786 124.528 68.2866 124.984C68.6946 125.44 68.8986 126.088 68.8986 126.928V136ZM56.0826 122.824H61.6986C63.4026 122.824 64.6626 122.464 65.4786 121.744C66.3186 121 66.7386 119.92 66.7386 118.504V117.856C66.7386 116.584 66.3186 115.564 65.4786 114.796C64.6626 114.004 63.4026 113.608 61.6986 113.608H56.0826V122.824Z" fill="#1A73E8"/>
<path d="M74.2016 120.592C74.2016 117.328 74.9816 114.796 76.5416 112.996C78.1016 111.196 80.2736 110.296 83.0576 110.296C85.8416 110.296 88.0136 111.196 89.5736 112.996C91.1336 114.796 91.9136 117.328 91.9136 120.592V126.208C91.9136 129.568 91.1336 132.124 89.5736 133.876C88.0136 135.628 85.8416 136.504 83.0576 136.504C80.2736 136.504 78.1016 135.628 76.5416 133.876C74.9816 132.124 74.2016 129.568 74.2016 126.208V120.592ZM83.0576 133.696C85.0016 133.696 86.4536 133.036 87.4136 131.716C88.3976 130.372 88.8896 128.464 88.8896 125.992V120.808C88.8896 118.504 88.3976 116.644 87.4136 115.228C86.4536 113.812 85.0016 113.104 83.0576 113.104C81.1136 113.104 79.6496 113.812 78.6656 115.228C77.7056 116.644 77.2256 118.504 77.2256 120.808V125.992C77.2256 128.464 77.7056 130.372 78.6656 131.716C79.6496 133.036 81.1136 133.696 83.0576 133.696Z" fill="#1A73E8"/>
<path d="M97.2165 110.8H100.241V133.192H113.417V136H97.2165V110.8Z" fill="#1A73E8"/>
<path d="M119.512 110.8H134.776V113.608H122.535V121.96H134.56V124.768H122.535V133.192H134.992V136H119.512V110.8Z" fill="#1A73E8"/>
<path d="M146.666 133.984C146.666 133.288 146.906 132.7 147.386 132.22C147.89 131.716 148.49 131.464 149.186 131.464C149.882 131.464 150.47 131.716 150.95 132.22C151.454 132.7 151.706 133.288 151.706 133.984C151.706 134.68 151.454 135.28 150.95 135.784C150.47 136.264 149.882 136.504 149.186 136.504C148.49 136.504 147.89 136.264 147.386 135.784C146.906 135.28 146.666 134.68 146.666 133.984ZM146.666 120.16C146.666 119.464 146.906 118.876 147.386 118.396C147.89 117.892 148.49 117.64 149.186 117.64C149.882 117.64 150.47 117.892 150.95 118.396C151.454 118.876 151.706 119.464 151.706 120.16C151.706 120.856 151.454 121.456 150.95 121.96C150.47 122.44 149.882 122.68 149.186 122.68C148.49 122.68 147.89 122.44 147.386 121.96C146.906 121.456 146.666 120.856 146.666 120.16Z" fill="#1A73E8"/>
<path d="M184.308 133.192H186.468V113.608H184.308V110.8H194.496C195.696 110.8 196.752 110.968 197.664 111.304C198.6 111.64 199.38 112.096 200.004 112.672C200.652 113.248 201.132 113.944 201.444 114.76C201.78 115.552 201.948 116.416 201.948 117.352V117.784C201.948 118.48 201.84 119.116 201.624 119.692C201.408 120.268 201.108 120.784 200.724 121.24C200.34 121.696 199.884 122.092 199.356 122.428C198.852 122.74 198.3 122.98 197.7 123.148V123.58C198.9 123.916 199.908 124.564 200.724 125.524C201.54 126.46 201.948 127.612 201.948 128.98V129.412C201.948 130.348 201.78 131.224 201.444 132.04C201.132 132.832 200.652 133.528 200.004 134.128C199.38 134.704 198.6 135.16 197.664 135.496C196.752 135.832 195.696 136 194.496 136H184.308V133.192ZM189.492 133.192H194.28C195.696 133.192 196.848 132.844 197.736 132.148C198.624 131.428 199.068 130.444 199.068 129.196V128.98C199.068 127.684 198.648 126.664 197.808 125.92C196.968 125.152 195.828 124.768 194.388 124.768H189.492V133.192ZM189.492 121.96H194.388C195.828 121.96 196.968 121.588 197.808 120.844C198.648 120.1 199.068 119.08 199.068 117.784V117.568C199.068 116.344 198.624 115.384 197.736 114.688C196.848 113.968 195.696 113.608 194.28 113.608H189.492V121.96Z" fill="#1A73E8"/>
<path d="M206.459 120.592C206.459 117.328 207.239 114.796 208.799 112.996C210.359 111.196 212.531 110.296 215.315 110.296C218.099 110.296 220.271 111.196 221.831 112.996C223.391 114.796 224.171 117.328 224.171 120.592V126.208C224.171 129.568 223.391 132.124 221.831 133.876C220.271 135.628 218.099 136.504 215.315 136.504C212.531 136.504 210.359 135.628 208.799 133.876C207.239 132.124 206.459 129.568 206.459 126.208V120.592ZM215.315 133.696C217.259 133.696 218.711 133.036 219.671 131.716C220.655 130.372 221.147 128.464 221.147 125.992V120.808C221.147 118.504 220.655 116.644 219.671 115.228C218.711 113.812 217.259 113.104 215.315 113.104C213.371 113.104 211.907 113.812 210.923 115.228C209.963 116.644 209.483 118.504 209.483 120.808V125.992C209.483 128.464 209.963 130.372 210.923 131.716C211.907 133.036 213.371 133.696 215.315 133.696Z" fill="#1A73E8"/>
<path d="M228.97 110.8H237.25C240.37 110.8 242.65 111.544 244.09 113.032C245.53 114.52 246.25 116.896 246.25 120.16V126.64C246.25 129.904 245.53 132.28 244.09 133.768C242.65 135.256 240.37 136 237.25 136H228.97V133.156H231.13V113.608H228.97V110.8ZM236.818 133.192C237.922 133.192 238.87 133.084 239.662 132.868C240.478 132.652 241.15 132.292 241.678 131.788C242.206 131.26 242.59 130.564 242.83 129.7C243.094 128.836 243.226 127.744 243.226 126.424V120.376C243.226 119.056 243.094 117.964 242.83 117.1C242.59 116.236 242.206 115.552 241.678 115.048C241.15 114.52 240.478 114.148 239.662 113.932C238.87 113.716 237.922 113.608 236.818 113.608H234.154V133.192H236.818Z" fill="#1A73E8"/>
<path d="M257.889 127.144H257.241L249.357 110.8H252.741L259.185 124.552H259.617L266.061 110.8H269.445L261.561 127.144H260.913V136H257.889V127.144Z" fill="#1A73E8"/>
<path d="M294.631 110.8H312.343V113.608H304.999V136H301.975V113.608H294.631V110.8Z" fill="#1A73E8"/>
<path d="M317.898 110.8H333.162V113.608H320.922V121.96H332.946V124.768H320.922V133.192H333.378V136H317.898V110.8Z" fill="#1A73E8"/>
<path d="M341.597 110.8L347.249 121.96H347.897L353.549 110.8H356.861L350.561 123.148V123.58L356.861 136H353.549L347.897 124.768H347.249L341.597 136H338.285L344.585 123.58V123.148L338.285 110.8H341.597Z" fill="#1A73E8"/>
<path d="M360.76 110.8H378.472V113.608H371.128V136H368.104V113.608H360.76V110.8Z" fill="#1A73E8"/>
<path d="M989.957 70.0719C989.957 69.2559 989.789 68.5359 989.453 67.9119C989.141 67.2879 988.709 66.7719 988.157 66.3639C987.605 65.9559 986.969 65.6439 986.249 65.4279C985.529 65.2119 984.773 65.1039 983.981 65.1039C983.285 65.1039 982.625 65.1999 982.001 65.3919C981.377 65.5599 980.813 65.8119 980.309 66.1479C979.829 66.4839 979.445 66.9039 979.157 67.4079C978.869 67.8879 978.725 68.4519 978.725 69.0999V69.3159C978.725 70.0119 978.869 70.6119 979.157 71.1159C979.445 71.5959 979.865 72.0159 980.417 72.3759C980.993 72.7119 981.701 72.9999 982.541 73.2399C983.381 73.4559 984.365 73.6479 985.493 73.8159C988.133 74.2239 990.077 75.0039 991.325 76.1559C992.573 77.2839 993.197 78.8079 993.197 80.7279V81.1599C993.197 82.2399 993.005 83.2359 992.621 84.1479C992.261 85.0359 991.709 85.8039 990.965 86.4519C990.245 87.0999 989.345 87.6039 988.265 87.9639C987.185 88.3239 985.937 88.5039 984.521 88.5039C982.913 88.5039 981.485 88.2759 980.237 87.8199C979.013 87.3399 977.981 86.6919 977.141 85.8759C976.325 85.0359 975.701 84.0639 975.269 82.9599C974.837 81.8319 974.621 80.6079 974.621 79.2879V78.2079H977.645V79.0719C977.645 81.2799 978.245 82.9359 979.445 84.0399C980.669 85.1439 982.361 85.6959 984.521 85.6959C986.393 85.6959 987.797 85.2879 988.733 84.4719C989.693 83.6319 990.173 82.5279 990.173 81.1599V80.9439C990.173 79.6239 989.681 78.6159 988.697 77.9199C987.737 77.2239 986.165 76.7199 983.981 76.4079C982.709 76.2399 981.557 75.9879 980.525 75.6519C979.517 75.2919 978.653 74.8359 977.933 74.2839C977.213 73.7079 976.661 73.0239 976.277 72.2319C975.893 71.4399 975.701 70.5039 975.701 69.4239V68.9919C975.701 68.0079 975.905 67.1079 976.313 66.2919C976.721 65.4759 977.285 64.7679 978.005 64.1679C978.749 63.5679 979.625 63.1119 980.633 62.7999C981.665 62.4639 982.793 62.2959 984.017 62.2959C985.433 62.2959 986.693 62.4999 987.797 62.9079C988.925 63.3159 989.873 63.8679 990.641 64.5639C991.409 65.2359 991.985 66.0399 992.369 66.9759C992.777 67.8879 992.981 68.8479 992.981 69.8559V71.3679H989.957V70.0719Z" fill="#1A73E8"/>
<path d="M998.428 62.7999H1013.69V65.6079H1001.45V73.9599H1013.48V76.7679H1001.45V85.1919H1013.91V87.9999H998.428V62.7999Z" fill="#1A73E8"/>
<path d="M1028.25 85.6959C1029.28 85.6959 1030.16 85.5279 1030.88 85.1919C1031.62 84.8319 1032.22 84.3639 1032.68 83.7879C1033.16 83.1879 1033.5 82.5159 1033.72 81.7719C1033.96 81.0039 1034.08 80.1999 1034.08 79.3599V78.9279H1037.1V79.3599C1037.1 80.6319 1036.91 81.8319 1036.53 82.9599C1036.14 84.0639 1035.58 85.0359 1034.84 85.8759C1034.09 86.6919 1033.17 87.3399 1032.06 87.8199C1030.96 88.2759 1029.69 88.5039 1028.25 88.5039C1025.46 88.5039 1023.29 87.6279 1021.73 85.8759C1020.17 84.1239 1019.39 81.5679 1019.39 78.2079V72.5919C1019.39 69.3279 1020.17 66.7959 1021.73 64.9959C1023.29 63.1959 1025.46 62.2959 1028.25 62.2959C1029.69 62.2959 1030.96 62.5359 1032.06 63.0159C1033.17 63.4719 1034.09 64.1199 1034.84 64.9599C1035.58 65.7759 1036.14 66.7479 1036.53 67.8759C1036.91 68.9799 1037.1 70.1679 1037.1 71.4399V71.8719H1034.08V71.4399C1034.06 70.6239 1033.92 69.8319 1033.68 69.0639C1033.47 68.2959 1033.12 67.6239 1032.64 67.0479C1032.18 66.4479 1031.6 65.9799 1030.88 65.6439C1030.16 65.2839 1029.28 65.1039 1028.25 65.1039C1026.3 65.1039 1024.84 65.8119 1023.86 67.2279C1022.9 68.6439 1022.42 70.5039 1022.42 72.8079V77.9919C1022.42 80.4639 1022.9 82.3719 1023.86 83.7159C1024.84 85.0359 1026.3 85.6959 1028.25 85.6959Z" fill="#1A73E8"/>
<path d="M1041.29 72.5919C1041.29 69.3279 1042.07 66.7959 1043.63 64.9959C1045.19 63.1959 1047.36 62.2959 1050.15 62.2959C1052.93 62.2959 1055.1 63.1959 1056.66 64.9959C1058.22 66.7959 1059 69.3279 1059 72.5919V78.2079C1059 81.5679 1058.22 84.1239 1056.66 85.8759C1055.1 87.6279 1052.93 88.5039 1050.15 88.5039C1047.36 88.5039 1045.19 87.6279 1043.63 85.8759C1042.07 84.1239 1041.29 81.5679 1041.29 78.2079V72.5919ZM1050.15 85.6959C1052.09 85.6959 1053.54 85.0359 1054.5 83.7159C1055.49 82.3719 1055.98 80.4639 1055.98 77.9919V72.8079C1055.98 70.5039 1055.49 68.6439 1054.5 67.2279C1053.54 65.8119 1052.09 65.1039 1050.15 65.1039C1048.2 65.1039 1046.74 65.8119 1045.75 67.2279C1044.79 68.6439 1044.31 70.5039 1044.31 72.8079V77.9919C1044.31 80.4639 1044.79 82.3719 1045.75 83.7159C1046.74 85.0359 1048.2 85.6959 1050.15 85.6959Z" fill="#1A73E8"/>
<path d="M1077.12 86.7039H1077.55V62.7999H1080.58V87.9999H1074.53L1067.26 64.0959H1066.82V87.9999H1063.8V62.7999H1069.85L1077.12 86.7039Z" fill="#1A73E8"/>
<path d="M1085.84 62.7999H1094.12C1097.24 62.7999 1099.52 63.5439 1100.96 65.0319C1102.4 66.5199 1103.12 68.8959 1103.12 72.1599V78.6399C1103.12 81.9039 1102.4 84.2799 1100.96 85.7679C1099.52 87.2559 1097.24 87.9999 1094.12 87.9999H1085.84V85.1559H1088V65.6079H1085.84V62.7999ZM1093.69 85.1919C1094.8 85.1919 1095.74 85.0839 1096.54 84.8679C1097.35 84.6519 1098.02 84.2919 1098.55 83.7879C1099.08 83.2599 1099.46 82.5639 1099.7 81.6999C1099.97 80.8359 1100.1 79.7439 1100.1 78.4239V72.3759C1100.1 71.0559 1099.97 69.9639 1099.7 69.0999C1099.46 68.2359 1099.08 67.5519 1098.55 67.0479C1098.02 66.5199 1097.35 66.1479 1096.54 65.9319C1095.74 65.7159 1094.8 65.6079 1093.69 65.6079H1091.03V85.1919H1093.69Z" fill="#1A73E8"/>
<path d="M1124.16 87.9999H1121.13V79.5759C1121.13 78.9519 1120.99 78.4719 1120.7 78.1359C1120.41 77.7999 1119.91 77.6319 1119.19 77.6319H1111.34V87.9999H1108.32V62.7999H1117.32C1118.61 62.7999 1119.74 62.9919 1120.7 63.3759C1121.66 63.7359 1122.45 64.2279 1123.08 64.8519C1123.73 65.4759 1124.21 66.2079 1124.52 67.0479C1124.85 67.8639 1125.02 68.7279 1125.02 69.6399V70.7199C1125.02 71.6559 1124.76 72.5919 1124.23 73.5279C1123.73 74.4639 1122.93 75.1839 1121.85 75.6879V76.1199C1122.57 76.2399 1123.14 76.5279 1123.55 76.9839C1123.95 77.4399 1124.16 78.0879 1124.16 78.9279V87.9999ZM1111.34 74.8239H1116.96C1118.66 74.8239 1119.92 74.4639 1120.74 73.7439C1121.58 72.9999 1122 71.9199 1122 70.5039V69.8559C1122 68.5839 1121.58 67.5639 1120.74 66.7959C1119.92 66.0039 1118.66 65.6079 1116.96 65.6079H1111.34V74.8239Z" fill="#1A73E8"/>
<path d="M1143.72 81.7359H1132.92L1131.08 87.9999H1127.84L1135.47 62.7999H1141.16L1148.79 87.9999H1145.55L1143.72 81.7359ZM1138.1 64.0959L1133.75 78.9279H1142.89L1138.53 64.0959H1138.1Z" fill="#1A73E8"/>
<path d="M1168.24 87.9999H1165.22V79.5759C1165.22 78.9519 1165.08 78.4719 1164.79 78.1359C1164.5 77.7999 1164 77.6319 1163.28 77.6319H1155.43V87.9999H1152.4V62.7999H1161.4C1162.7 62.7999 1163.83 62.9919 1164.79 63.3759C1165.75 63.7359 1166.54 64.2279 1167.16 64.8519C1167.81 65.4759 1168.29 66.2079 1168.6 67.0479C1168.94 67.8639 1169.11 68.7279 1169.11 69.6399V70.7199C1169.11 71.6559 1168.84 72.5919 1168.32 73.5279C1167.81 74.4639 1167.02 75.1839 1165.94 75.6879V76.1199C1166.66 76.2399 1167.22 76.5279 1167.63 76.9839C1168.04 77.4399 1168.24 78.0879 1168.24 78.9279V87.9999ZM1155.43 74.8239H1161.04C1162.75 74.8239 1164.01 74.4639 1164.82 73.7439C1165.66 72.9999 1166.08 71.9199 1166.08 70.5039V69.8559C1166.08 68.5839 1165.66 67.5639 1164.82 66.7959C1164.01 66.0039 1162.75 65.6079 1161.04 65.6079H1155.43V74.8239Z" fill="#1A73E8"/>
<path d="M1180.89 79.1439H1180.24L1172.36 62.7999H1175.74L1182.19 76.5519H1182.62L1189.06 62.7999H1192.45L1184.56 79.1439H1183.92V87.9999H1180.89V79.1439Z" fill="#1A73E8"/>
<path d="M1217.63 62.7999H1235.35V65.6079H1228V87.9999H1224.98V65.6079H1217.63V62.7999Z" fill="#1A73E8"/>
<path d="M1247.02 79.1439H1246.37L1238.49 62.7999H1241.87L1248.32 76.5519H1248.75L1255.19 62.7999H1258.58L1250.69 79.1439H1250.04V87.9999H1247.02V79.1439Z" fill="#1A73E8"/>
<path d="M1265.64 77.6319V87.9999H1262.62V62.7999H1271.62C1272.92 62.7999 1274.04 62.9919 1275 63.3759C1275.96 63.7359 1276.76 64.2279 1277.38 64.8519C1278.03 65.4759 1278.51 66.2079 1278.82 67.0479C1279.16 67.8639 1279.32 68.7279 1279.32 69.6399V70.7199C1279.32 71.6319 1279.16 72.5079 1278.82 73.3479C1278.51 74.1879 1278.03 74.9319 1277.38 75.5799C1276.73 76.2039 1275.93 76.7079 1274.97 77.0919C1274.01 77.4519 1272.89 77.6319 1271.62 77.6319H1265.64ZM1265.64 74.8239H1271.26C1274.62 74.8239 1276.3 73.3839 1276.3 70.5039V69.8559C1276.3 68.5839 1275.88 67.5639 1275.04 66.7959C1274.22 66.0039 1272.96 65.6079 1271.26 65.6079H1265.64V74.8239Z" fill="#1A73E8"/>
<path d="M1284.99 62.7999H1300.25V65.6079H1288.01V73.9599H1300.03V76.7679H1288.01V85.1919H1300.47V87.9999H1284.99V62.7999Z" fill="#1A73E8"/>
<path d="M1307.07 62.7999H1322.55V65.6079H1310.09V73.9599H1322.33V76.7679H1310.09V87.9999H1307.07V62.7999Z" fill="#1A73E8"/>
<path d="M1342.1 81.7359H1331.3L1329.47 87.9999H1326.23L1333.86 62.7999H1339.55L1347.18 87.9999H1343.94L1342.1 81.7359ZM1336.49 64.0959L1332.13 78.9279H1341.28L1336.92 64.0959H1336.49Z" fill="#1A73E8"/>
<path d="M1358.89 85.6959C1359.92 85.6959 1360.8 85.5279 1361.52 85.1919C1362.26 84.8319 1362.86 84.3639 1363.32 83.7879C1363.8 83.1879 1364.15 82.5159 1364.36 81.7719C1364.6 81.0039 1364.72 80.1999 1364.72 79.3599V78.9279H1367.75V79.3599C1367.75 80.6319 1367.56 81.8319 1367.17 82.9599C1366.79 84.0639 1366.22 85.0359 1365.48 85.8759C1364.74 86.6919 1363.81 87.3399 1362.71 87.8199C1361.6 88.2759 1360.33 88.5039 1358.89 88.5039C1356.11 88.5039 1353.94 87.6279 1352.38 85.8759C1350.82 84.1239 1350.04 81.5679 1350.04 78.2079V72.5919C1350.04 69.3279 1350.82 66.7959 1352.38 64.9959C1353.94 63.1959 1356.11 62.2959 1358.89 62.2959C1360.33 62.2959 1361.6 62.5359 1362.71 63.0159C1363.81 63.4719 1364.74 64.1199 1365.48 64.9599C1366.22 65.7759 1366.79 66.7479 1367.17 67.8759C1367.56 68.9799 1367.75 70.1679 1367.75 71.4399V71.8719H1364.72V71.4399C1364.7 70.6239 1364.57 69.8319 1364.33 69.0639C1364.11 68.2959 1363.76 67.6239 1363.28 67.0479C1362.83 66.4479 1362.24 65.9799 1361.52 65.6439C1360.8 65.2839 1359.92 65.1039 1358.89 65.1039C1356.95 65.1039 1355.48 65.8119 1354.5 67.2279C1353.54 68.6439 1353.06 70.5039 1353.06 72.8079V77.9919C1353.06 80.4639 1353.54 82.3719 1354.5 83.7159C1355.48 85.0359 1356.95 85.6959 1358.89 85.6959Z" fill="#1A73E8"/>
<path d="M1373.16 62.7999H1388.42V65.6079H1376.18V73.9599H1388.21V76.7679H1376.18V85.1919H1388.64V87.9999H1373.16V62.7999Z" fill="#1A73E8"/>
<path d="M991.901 136H988.877V127.576C988.877 126.952 988.733 126.472 988.445 126.136C988.157 125.8 987.653 125.632 986.933 125.632H979.085V136H976.061V110.8H985.061C986.357 110.8 987.485 110.992 988.445 111.376C989.405 111.736 990.197 112.228 990.821 112.852C991.469 113.476 991.949 114.208 992.261 115.048C992.597 115.864 992.765 116.728 992.765 117.64V118.72C992.765 119.656 992.501 120.592 991.973 121.528C991.469 122.464 990.677 123.184 989.597 123.688V124.12C990.317 124.24 990.881 124.528 991.289 124.984C991.697 125.44 991.901 126.088 991.901 126.928V136ZM979.085 122.824H984.701C986.405 122.824 987.665 122.464 988.481 121.744C989.321 121 989.741 119.92 989.741 118.504V117.856C989.741 116.584 989.321 115.564 988.481 114.796C987.665 114.004 986.405 113.608 984.701 113.608H979.085V122.824Z" fill="#1A73E8"/>
<path d="M997.204 120.592C997.204 117.328 997.984 114.796 999.544 112.996C1001.1 111.196 1003.28 110.296 1006.06 110.296C1008.84 110.296 1011.02 111.196 1012.58 112.996C1014.14 114.796 1014.92 117.328 1014.92 120.592V126.208C1014.92 129.568 1014.14 132.124 1012.58 133.876C1011.02 135.628 1008.84 136.504 1006.06 136.504C1003.28 136.504 1001.1 135.628 999.544 133.876C997.984 132.124 997.204 129.568 997.204 126.208V120.592ZM1006.06 133.696C1008 133.696 1009.46 133.036 1010.42 131.716C1011.4 130.372 1011.89 128.464 1011.89 125.992V120.808C1011.89 118.504 1011.4 116.644 1010.42 115.228C1009.46 113.812 1008 113.104 1006.06 113.104C1004.12 113.104 1002.65 113.812 1001.67 115.228C1000.71 116.644 1000.23 118.504 1000.23 120.808V125.992C1000.23 128.464 1000.71 130.372 1001.67 131.716C1002.65 133.036 1004.12 133.696 1006.06 133.696Z" fill="#1A73E8"/>
<path d="M1020.22 110.8H1023.24V133.192H1036.42V136H1020.22V110.8Z" fill="#1A73E8"/>
<path d="M1042.51 110.8H1057.78V113.608H1045.54V121.96H1057.56V124.768H1045.54V133.192H1057.99V136H1042.51V110.8Z" fill="#1A73E8"/>
<path d="M1069.67 133.984C1069.67 133.288 1069.91 132.7 1070.39 132.22C1070.89 131.716 1071.49 131.464 1072.19 131.464C1072.88 131.464 1073.47 131.716 1073.95 132.22C1074.46 132.7 1074.71 133.288 1074.71 133.984C1074.71 134.68 1074.46 135.28 1073.95 135.784C1073.47 136.264 1072.88 136.504 1072.19 136.504C1071.49 136.504 1070.89 136.264 1070.39 135.784C1069.91 135.28 1069.67 134.68 1069.67 133.984ZM1069.67 120.16C1069.67 119.464 1069.91 118.876 1070.39 118.396C1070.89 117.892 1071.49 117.64 1072.19 117.64C1072.88 117.64 1073.47 117.892 1073.95 118.396C1074.46 118.876 1074.71 119.464 1074.71 120.16C1074.71 120.856 1074.46 121.456 1073.95 121.96C1073.47 122.44 1072.88 122.68 1072.19 122.68C1071.49 122.68 1070.89 122.44 1070.39 121.96C1069.91 121.456 1069.67 120.856 1069.67 120.16Z" fill="#1A73E8"/>
<path d="M1108.28 110.8H1124.27V113.608H1117.79V133.192H1124.27V136H1108.28V133.192H1114.76V113.608H1108.28V110.8Z" fill="#1A73E8"/>
<path d="M1143.25 134.704H1143.68V110.8H1146.71V136H1140.66L1133.39 112.096H1132.95V136H1129.93V110.8H1135.98L1143.25 134.704Z" fill="#1A73E8"/>
<path d="M1152.48 110.8H1155.5V133.192H1168.68V136H1152.48V110.8Z" fill="#1A73E8"/>
<path d="M1174.41 110.8H1190.4V113.608H1183.92V133.192H1190.4V136H1174.41V133.192H1180.89V113.608H1174.41V110.8Z" fill="#1A73E8"/>
<path d="M1209.38 134.704H1209.81V110.8H1212.83V136H1206.79L1199.51 112.096H1199.08V136H1196.06V110.8H1202.11L1209.38 134.704Z" fill="#1A73E8"/>
<path d="M1218.86 110.8H1234.12V113.608H1221.88V121.96H1233.91V124.768H1221.88V133.192H1234.34V136H1218.86V110.8Z" fill="#1A73E8"/>
<path d="M1270.72 133.696C1271.75 133.696 1272.63 133.528 1273.35 133.192C1274.09 132.832 1274.69 132.364 1275.15 131.788C1275.63 131.188 1275.98 130.516 1276.19 129.772C1276.43 129.004 1276.55 128.2 1276.55 127.36V126.928H1279.58V127.36C1279.58 128.632 1279.38 129.832 1279 130.96C1278.62 132.064 1278.05 133.036 1277.31 133.876C1276.56 134.692 1275.64 135.34 1274.54 135.82C1273.43 136.276 1272.16 136.504 1270.72 136.504C1267.94 136.504 1265.76 135.628 1264.2 133.876C1262.64 132.124 1261.86 129.568 1261.86 126.208V120.592C1261.86 117.328 1262.64 114.796 1264.2 112.996C1265.76 111.196 1267.94 110.296 1270.72 110.296C1272.16 110.296 1273.43 110.536 1274.54 111.016C1275.64 111.472 1276.56 112.12 1277.31 112.96C1278.05 113.776 1278.62 114.748 1279 115.876C1279.38 116.98 1279.58 118.168 1279.58 119.44V119.872H1276.55V119.44C1276.53 118.624 1276.4 117.832 1276.16 117.064C1275.94 116.296 1275.59 115.624 1275.11 115.048C1274.66 114.448 1274.07 113.98 1273.35 113.644C1272.63 113.284 1271.75 113.104 1270.72 113.104C1268.78 113.104 1267.31 113.812 1266.33 115.228C1265.37 116.644 1264.89 118.504 1264.89 120.808V125.992C1264.89 128.464 1265.37 130.372 1266.33 131.716C1267.31 133.036 1268.78 133.696 1270.72 133.696Z" fill="#1A73E8"/>
<path d="M1283.76 120.592C1283.76 117.328 1284.54 114.796 1286.1 112.996C1287.66 111.196 1289.83 110.296 1292.62 110.296C1295.4 110.296 1297.57 111.196 1299.13 112.996C1300.69 114.796 1301.47 117.328 1301.47 120.592V126.208C1301.47 129.568 1300.69 132.124 1299.13 133.876C1297.57 135.628 1295.4 136.504 1292.62 136.504C1289.83 136.504 1287.66 135.628 1286.1 133.876C1284.54 132.124 1283.76 129.568 1283.76 126.208V120.592ZM1292.62 133.696C1294.56 133.696 1296.01 133.036 1296.97 131.716C1297.96 130.372 1298.45 128.464 1298.45 125.992V120.808C1298.45 118.504 1297.96 116.644 1296.97 115.228C1296.01 113.812 1294.56 113.104 1292.62 113.104C1290.67 113.104 1289.21 113.812 1288.23 115.228C1287.27 116.644 1286.79 118.504 1286.79 120.808V125.992C1286.79 128.464 1287.27 130.372 1288.23 131.716C1289.21 133.036 1290.67 133.696 1292.62 133.696Z" fill="#1A73E8"/>
<path d="M1306.27 110.8H1314.55C1317.67 110.8 1319.95 111.544 1321.39 113.032C1322.83 114.52 1323.55 116.896 1323.55 120.16V126.64C1323.55 129.904 1322.83 132.28 1321.39 133.768C1319.95 135.256 1317.67 136 1314.55 136H1306.27V133.156H1308.43V113.608H1306.27V110.8ZM1314.12 133.192C1315.23 133.192 1316.17 133.084 1316.97 132.868C1317.78 132.652 1318.45 132.292 1318.98 131.788C1319.51 131.26 1319.89 130.564 1320.13 129.7C1320.4 128.836 1320.53 127.744 1320.53 126.424V120.376C1320.53 119.056 1320.4 117.964 1320.13 117.1C1319.89 116.236 1319.51 115.552 1318.98 115.048C1318.45 114.52 1317.78 114.148 1316.97 113.932C1316.17 113.716 1315.23 113.608 1314.12 113.608H1311.46V133.192H1314.12Z" fill="#1A73E8"/>
<path d="M1329.07 110.8H1344.34V113.608H1332.1V121.96H1344.12V124.768H1332.1V133.192H1344.55V136H1329.07V110.8Z" fill="#1A73E8"/>
<path d="M56.8594 565V558.98L70.7194 556.04L68.8994 558.56V474L71.2794 476.66L56.8594 474V467.98L80.7994 467.28H97.1794C107.726 467.28 115.706 469.473 121.119 473.86C126.533 478.247 129.239 484.593 129.239 492.9C129.239 500.553 126.813 506.807 121.959 511.66C117.199 516.513 109.919 519.453 100.119 520.48L99.9794 519.08C103.619 519.453 106.559 520.293 108.799 521.6C111.133 522.813 113.093 524.493 114.679 526.64C116.266 528.693 117.806 531.26 119.299 534.34L131.059 558.14L127.559 555.76L139.319 558.98V565H122.099L109.219 537.42C107.446 533.407 105.719 530.327 104.039 528.18C102.453 525.94 100.446 524.353 98.0194 523.42C95.686 522.487 92.326 522.02 87.9394 522.02L78.2794 522.16L80.3794 520.2V558.56L78.5594 556.04L94.7994 558.98V565H56.8594ZM80.3794 516.84L78.2794 513.76H91.5794C99.886 513.76 106.279 512.08 110.759 508.72C115.239 505.267 117.479 500.227 117.479 493.6C117.479 487.813 115.659 483.427 112.019 480.44C108.379 477.36 102.966 475.82 95.7794 475.82H78.2794L80.3794 473.72V516.84Z" fill="#3C4043"/>
<path d="M202.684 558.7L200.864 556.18L213.744 558.7V564.86L194.144 565.7L192.464 552.26L193.444 552.68C189.337 557.16 184.904 560.567 180.144 562.9C175.384 565.14 170.764 566.26 166.284 566.26C160.87 566.26 156.297 564.533 152.564 561.08C148.83 557.627 146.964 552.4 146.964 545.4C146.964 539.893 148.13 535.693 150.464 532.8C152.797 529.813 156.017 527.713 160.124 526.5C164.23 525.287 168.99 524.68 174.404 524.68H192.744L191.484 526.08V512.64C191.484 507.507 190.13 503.867 187.424 501.72C184.717 499.48 180.984 498.36 176.224 498.36C173.704 498.36 170.997 498.64 168.104 499.2C165.304 499.667 162.317 500.46 159.144 501.58L160.824 499.76L159.424 512.5H152.004L150.884 495.14C156.204 493.367 161.197 492.06 165.864 491.22C170.53 490.287 174.824 489.82 178.744 489.82C186.21 489.82 192.044 491.5 196.244 494.86C200.537 498.127 202.684 503.4 202.684 510.68V558.7ZM158.304 544.42C158.304 548.993 159.377 552.353 161.524 554.5C163.764 556.647 166.564 557.72 169.924 557.72C173.19 557.72 176.784 556.74 180.704 554.78C184.717 552.727 188.59 549.973 192.324 546.52L191.484 549.46V530.7L192.744 531.96H176.084C169.457 531.96 164.837 532.987 162.224 535.04C159.61 537 158.304 540.127 158.304 544.42Z" fill="#3C4043"/>
<path d="M253.346 598.46C242.426 598.46 234.259 596.873 228.846 593.7C223.433 590.527 220.726 585.953 220.726 579.98C220.726 575.78 222.126 572.047 224.926 568.78C227.726 565.513 231.833 562.667 237.246 560.24L237.386 562.48C234.399 562.293 232.113 561.687 230.526 560.66C228.939 559.54 228.146 558 228.146 556.04C228.146 555.293 228.239 554.547 228.426 553.8C228.613 553.053 228.939 552.027 229.406 550.72C229.966 549.32 230.759 547.5 231.786 545.26C232.906 542.927 234.306 539.893 235.986 536.16L236.266 538.12C232.253 535.973 229.173 533.08 227.026 529.44C224.879 525.707 223.806 521.32 223.806 516.28C223.806 508.16 226.466 501.72 231.786 496.96C237.199 492.2 244.619 489.82 254.046 489.82C260.393 489.82 265.853 490.94 270.426 493.18L267.346 492.48L289.326 491.5L289.466 498.22L276.446 500.74L277.426 499.06C279.386 500.927 280.879 503.213 281.906 505.92C282.933 508.627 283.446 511.707 283.446 515.16C283.446 523.373 280.693 529.86 275.186 534.62C269.679 539.38 262.353 541.76 253.206 541.76C247.979 541.76 243.173 540.873 238.786 539.1L241.306 537.84L237.666 556.18L235.286 554.78H262.726C271.686 554.78 278.499 556.553 283.166 560.1C287.833 563.553 290.166 568.547 290.166 575.08C290.166 582.64 287.039 588.427 280.786 592.44C274.626 596.453 265.479 598.46 253.346 598.46ZM254.326 589.92C262.819 589.92 269.119 588.753 273.226 586.42C277.333 584.087 279.386 580.587 279.386 575.92C279.386 571.813 277.846 568.687 274.766 566.54C271.686 564.487 267.066 563.46 260.906 563.46H238.646L241.866 562.76C234.399 567.427 230.666 572.467 230.666 577.88C230.666 581.893 232.579 584.88 236.406 586.84C240.326 588.893 246.299 589.92 254.326 589.92ZM253.206 533.92C259.179 533.92 263.846 532.333 267.206 529.16C270.566 525.893 272.246 521.32 272.246 515.44C272.246 509.56 270.659 505.127 267.486 502.14C264.313 499.153 259.786 497.66 253.906 497.66C247.933 497.66 243.313 499.247 240.046 502.42C236.779 505.5 235.146 510.027 235.146 516C235.146 521.787 236.686 526.22 239.766 529.3C242.939 532.38 247.419 533.92 253.206 533.92Z" fill="#3C4043"/>
<path d="M312.682 509C312.682 511.987 313.662 514.32 315.622 516C317.582 517.68 320.102 519.08 323.182 520.2C326.262 521.227 329.529 522.253 332.982 523.28C336.435 524.307 339.702 525.567 342.782 527.06C345.862 528.553 348.382 530.607 350.342 533.22C352.302 535.833 353.282 539.287 353.282 543.58C353.282 548.527 351.929 552.68 349.222 556.04C346.515 559.4 342.829 561.967 338.162 563.74C333.589 565.42 328.455 566.26 322.762 566.26C319.309 566.26 315.762 565.98 312.122 565.42C308.482 564.86 304.749 564.067 300.922 563.04L301.902 544.28H309.042L310.442 558L309.182 556.46C311.329 557.02 313.662 557.487 316.182 557.86C318.702 558.233 321.035 558.42 323.182 558.42C326.542 558.42 329.622 557.953 332.422 557.02C335.315 555.993 337.649 554.547 339.422 552.68C341.195 550.72 342.082 548.293 342.082 545.4C342.082 542.32 341.102 539.893 339.142 538.12C337.275 536.347 334.802 534.9 331.722 533.78C328.642 532.66 325.375 531.633 321.922 530.7C318.562 529.673 315.342 528.413 312.262 526.92C309.182 525.333 306.662 523.28 304.702 520.76C302.742 518.24 301.762 514.787 301.762 510.4C301.762 505.64 302.975 501.767 305.402 498.78C307.922 495.7 311.189 493.46 315.202 492.06C319.309 490.567 323.695 489.82 328.362 489.82C331.535 489.82 335.035 490.147 338.862 490.8C342.689 491.453 346.609 492.433 350.622 493.74L349.922 509.56H342.782L340.682 497.94L342.362 499.9C337.509 498.5 332.935 497.8 328.642 497.8C324.069 497.8 320.242 498.78 317.162 500.74C314.175 502.607 312.682 505.36 312.682 509Z" fill="#3C4043"/>
<path d="M390.178 566.26C385.324 566.26 381.498 564.767 378.698 561.78C375.898 558.7 374.498 554.08 374.498 547.92V497.1L376.318 498.92H361.898V492.76L376.458 490.66L374.498 492.9V474.42L385.698 472.6V492.9L384.158 491.08H406.138L405.718 498.92H384.158L385.698 497.1V546.38C385.698 550.3 386.444 553.147 387.938 554.92C389.524 556.693 391.718 557.58 394.518 557.58C396.198 557.58 398.018 557.3 399.978 556.74C401.938 556.18 404.038 555.387 406.278 554.36L408.658 560.8C402.031 564.44 395.871 566.26 390.178 566.26Z" fill="#3C4043"/>
<path d="M450.183 489.82C460.449 489.82 468.476 493.04 474.263 499.48C480.143 505.92 483.083 515.02 483.083 526.78C483.083 534.713 481.636 541.667 478.743 547.64C475.943 553.52 471.929 558.093 466.703 561.36C461.476 564.627 455.176 566.26 447.803 566.26C437.723 566.26 429.836 563.133 424.143 556.88C418.449 550.533 415.603 541.433 415.603 529.58C415.603 521.367 416.956 514.32 419.663 508.44C422.463 502.467 426.43 497.893 431.563 494.72C436.79 491.453 442.996 489.82 450.183 489.82ZM449.623 498.08C442.436 498.08 436.929 500.787 433.103 506.2C429.276 511.613 427.363 519.22 427.363 529.02C427.363 538.633 429.183 545.867 432.823 550.72C436.463 555.573 441.69 558 448.503 558C453.45 558 457.603 556.787 460.963 554.36C464.416 551.84 466.983 548.293 468.663 543.72C470.436 539.147 471.323 533.687 471.323 527.34C471.323 517.82 469.409 510.587 465.583 505.64C461.849 500.6 456.53 498.08 449.623 498.08Z" fill="#3C4043"/>
<path d="M494.87 565V558.98L507.47 556.18L505.79 558.28V498.08L507.47 500.18L494.87 497.52V491.5L514.47 490.52L516.01 504.24L514.47 503.68C519.137 498.92 523.99 495.42 529.03 493.18C534.164 490.94 539.017 489.82 543.59 489.82C549.75 489.82 554.837 491.733 558.85 495.56C562.957 499.293 564.964 505.127 564.87 513.06V558.28L563.47 556.32L575.79 558.98V565H543.17V558.98L555.35 556.32L553.67 558.42V515.44C553.67 509.653 552.364 505.407 549.75 502.7C547.137 499.993 543.637 498.64 539.25 498.64C535.797 498.64 532.017 499.573 527.91 501.44C523.897 503.307 519.93 506.2 516.01 510.12L516.99 507.88V558.42L515.59 556.46L527.49 558.98V565H494.87Z" fill="#3C4043"/>
<path d="M616.784 566.26C610.531 566.26 604.977 564.86 600.124 562.06C595.364 559.167 591.631 554.967 588.924 549.46C586.217 543.953 584.864 537.233 584.864 529.3C584.864 521.18 586.264 514.18 589.064 508.3C591.864 502.42 595.831 497.893 600.964 494.72C606.097 491.453 612.117 489.82 619.024 489.82C625.557 489.82 630.924 491.22 635.124 494.02C639.417 496.727 642.591 500.507 644.644 505.36C646.791 510.213 647.864 515.767 647.864 522.02C647.864 523.047 647.817 524.073 647.724 525.1C647.631 526.127 647.491 527.387 647.304 528.88H593.404V520.9H637.504L636.244 521.74C636.337 517.54 635.824 513.667 634.704 510.12C633.584 506.573 631.671 503.727 628.964 501.58C626.257 499.433 622.664 498.36 618.184 498.36C613.424 498.36 609.411 499.62 606.144 502.14C602.877 504.66 600.451 508.113 598.864 512.5C597.277 516.887 596.484 521.973 596.484 527.76C596.484 533.92 597.371 539.24 599.144 543.72C600.917 548.107 603.484 551.513 606.844 553.94C610.297 556.367 614.497 557.58 619.444 557.58C622.897 557.58 626.677 556.927 630.784 555.62C634.891 554.22 639.137 552.12 643.524 549.32L647.584 555.62C642.357 559.167 637.131 561.827 631.904 563.6C626.677 565.373 621.637 566.26 616.784 566.26Z" fill="#3C4043"/>
<path d="M52.6289 614.8H60.9089C64.0289 614.8 66.3089 615.544 67.7489 617.032C69.1889 618.52 69.9089 620.896 69.9089 624.16V630.64C69.9089 633.904 69.1889 636.28 67.7489 637.768C66.3089 639.256 64.0289 640 60.9089 640H52.6289V637.156H54.7889V617.608H52.6289V614.8ZM60.4769 637.192C61.5809 637.192 62.5289 637.084 63.3209 636.868C64.1369 636.652 64.8089 636.292 65.3369 635.788C65.8649 635.26 66.2489 634.564 66.4889 633.7C66.7529 632.836 66.8849 631.744 66.8849 630.424V624.376C66.8849 623.056 66.7529 621.964 66.4889 621.1C66.2489 620.236 65.8649 619.552 65.3369 619.048C64.8089 618.52 64.1369 618.148 63.3209 617.932C62.5289 617.716 61.5809 617.608 60.4769 617.608H57.8129V637.192H60.4769Z" fill="#1A73E8"/>
<path d="M81.5479 631.144H80.8999L73.0159 614.8H76.3999L82.8439 628.552H83.2759L89.7199 614.8H93.1039L85.2199 631.144H84.5719V640H81.5479V631.144Z" fill="#1A73E8"/>
<path d="M110.035 638.704H110.467V614.8H113.491V640H107.443L100.171 616.096H99.7388V640H96.7148V614.8H102.763L110.035 638.704Z" fill="#1A73E8"/>
<path d="M132.546 633.736H121.746L119.91 640H116.67L124.302 614.8H129.99L137.622 640H134.382L132.546 633.736ZM126.93 616.096L122.574 630.928H131.718L127.362 616.096H126.93Z" fill="#1A73E8"/>
<path d="M139.829 614.8H145.589L148.973 638.704H149.405L152.789 614.8H158.549V640H155.741V616.096H155.309L151.925 640H146.453L143.069 616.096H142.637V640H139.829V614.8Z" fill="#1A73E8"/>
<path d="M163.24 614.8H179.224V617.608H172.744V637.192H179.224V640H163.24V637.192H169.72V617.608H163.24V614.8Z" fill="#1A73E8"/>
<path d="M193.419 637.696C194.451 637.696 195.327 637.528 196.047 637.192C196.791 636.832 197.391 636.364 197.847 635.788C198.327 635.188 198.675 634.516 198.891 633.772C199.131 633.004 199.251 632.2 199.251 631.36V630.928H202.275V631.36C202.275 632.632 202.083 633.832 201.699 634.96C201.315 636.064 200.751 637.036 200.007 637.876C199.263 638.692 198.339 639.34 197.235 639.82C196.131 640.276 194.859 640.504 193.419 640.504C190.635 640.504 188.463 639.628 186.903 637.876C185.343 636.124 184.563 633.568 184.563 630.208V624.592C184.563 621.328 185.343 618.796 186.903 616.996C188.463 615.196 190.635 614.296 193.419 614.296C194.859 614.296 196.131 614.536 197.235 615.016C198.339 615.472 199.263 616.12 200.007 616.96C200.751 617.776 201.315 618.748 201.699 619.876C202.083 620.98 202.275 622.168 202.275 623.44V623.872H199.251V623.44C199.227 622.624 199.095 621.832 198.855 621.064C198.639 620.296 198.291 619.624 197.811 619.048C197.355 618.448 196.767 617.98 196.047 617.644C195.327 617.284 194.451 617.104 193.419 617.104C191.475 617.104 190.011 617.812 189.027 619.228C188.067 620.644 187.587 622.504 187.587 624.808V629.992C187.587 632.464 188.067 634.372 189.027 635.716C190.011 637.036 191.475 637.696 193.419 637.696Z" fill="#1A73E8"/>
<path d="M246.001 642.952V645.616H244.705C243.025 645.616 241.417 645.304 239.881 644.68C238.345 644.056 236.989 643.144 235.813 641.944C234.637 640.768 233.701 639.34 233.005 637.66C232.309 635.98 231.961 634.072 231.961 631.936V622.864C231.961 620.752 232.309 618.856 233.005 617.176C233.701 615.472 234.637 614.032 235.813 612.856C236.989 611.656 238.345 610.744 239.881 610.12C241.417 609.496 243.025 609.184 244.705 609.184H246.001V611.848H244.705C243.409 611.848 242.161 612.112 240.961 612.64C239.761 613.144 238.705 613.876 237.793 614.836C236.881 615.796 236.149 616.972 235.597 618.364C235.045 619.732 234.769 621.28 234.769 623.008V631.792C234.769 633.52 235.045 635.08 235.597 636.472C236.149 637.84 236.881 639.004 237.793 639.964C238.705 640.924 239.761 641.656 240.961 642.16C242.161 642.688 243.409 642.952 244.705 642.952H246.001Z" fill="#1A73E8"/>
<path d="M250.44 637.192H252.6V617.608H250.44V614.8H260.628C261.828 614.8 262.884 614.968 263.796 615.304C264.732 615.64 265.512 616.096 266.136 616.672C266.784 617.248 267.264 617.944 267.576 618.76C267.912 619.552 268.08 620.416 268.08 621.352V621.784C268.08 622.48 267.972 623.116 267.756 623.692C267.54 624.268 267.24 624.784 266.856 625.24C266.472 625.696 266.016 626.092 265.488 626.428C264.984 626.74 264.432 626.98 263.832 627.148V627.58C265.032 627.916 266.04 628.564 266.856 629.524C267.672 630.46 268.08 631.612 268.08 632.98V633.412C268.08 634.348 267.912 635.224 267.576 636.04C267.264 636.832 266.784 637.528 266.136 638.128C265.512 638.704 264.732 639.16 263.796 639.496C262.884 639.832 261.828 640 260.628 640H250.44V637.192ZM255.624 637.192H260.412C261.828 637.192 262.98 636.844 263.868 636.148C264.756 635.428 265.2 634.444 265.2 633.196V632.98C265.2 631.684 264.78 630.664 263.94 629.92C263.1 629.152 261.96 628.768 260.52 628.768H255.624V637.192ZM255.624 625.96H260.52C261.96 625.96 263.1 625.588 263.94 624.844C264.78 624.1 265.2 623.08 265.2 621.784V621.568C265.2 620.344 264.756 619.384 263.868 618.688C262.98 617.968 261.828 617.608 260.412 617.608H255.624V625.96Z" fill="#1A73E8"/>
<path d="M273.455 614.8H289.439V617.608H282.959V637.192H289.439V640H273.455V637.192H279.935V617.608H273.455V614.8Z" fill="#1A73E8"/>
<path d="M294.634 614.8H312.346V617.608H305.002V640H301.978V617.608H294.634V614.8Z" fill="#1A73E8"/>
<path d="M316.677 614.8H334.389V617.608H327.045V640H324.021V617.608H316.677V614.8Z" fill="#1A73E8"/>
<path d="M339.944 614.8H355.208V617.608H342.967V625.96H354.992V628.768H342.967V637.192H355.424V640H339.944V614.8Z" fill="#1A73E8"/>
<path d="M377.502 640H374.478V631.576C374.478 630.952 374.334 630.472 374.046 630.136C373.758 629.8 373.254 629.632 372.534 629.632H364.686V640H361.662V614.8H370.662C371.958 614.8 373.086 614.992 374.046 615.376C375.006 615.736 375.798 616.228 376.422 616.852C377.07 617.476 377.55 618.208 377.862 619.048C378.198 619.864 378.366 620.728 378.366 621.64V622.72C378.366 623.656 378.102 624.592 377.574 625.528C377.07 626.464 376.278 627.184 375.198 627.688V628.12C375.918 628.24 376.482 628.528 376.89 628.984C377.298 629.44 377.502 630.088 377.502 630.928V640ZM364.686 626.824H370.302C372.006 626.824 373.266 626.464 374.082 625.744C374.922 625 375.342 623.92 375.342 622.504V621.856C375.342 620.584 374.922 619.564 374.082 618.796C373.266 618.004 372.006 617.608 370.302 617.608H364.686V626.824Z" fill="#1A73E8"/>
<path d="M384.317 642.952C385.613 642.952 386.861 642.688 388.061 642.16C389.261 641.656 390.317 640.924 391.229 639.964C392.141 639.004 392.873 637.84 393.425 636.472C393.977 635.08 394.253 633.52 394.253 631.792V623.008C394.253 621.28 393.977 619.732 393.425 618.364C392.873 616.972 392.141 615.796 391.229 614.836C390.317 613.876 389.261 613.144 388.061 612.64C386.861 612.112 385.613 611.848 384.317 611.848H383.021V609.184H384.317C385.997 609.184 387.605 609.496 389.141 610.12C390.677 610.744 392.033 611.656 393.209 612.856C394.385 614.032 395.321 615.472 396.017 617.176C396.713 618.856 397.061 620.752 397.061 622.864V631.936C397.061 634.072 396.713 635.98 396.017 637.66C395.321 639.34 394.385 640.768 393.209 641.944C392.033 643.144 390.677 644.056 389.141 644.68C387.605 645.304 385.997 645.616 384.317 645.616H383.021V642.952H384.317Z" fill="#1A73E8"/>
</svg>
