<svg width="1920" height="1080" viewBox="0 0 1920 1080" fill="none" xmlns="http://www.w3.org/2000/svg">
<path fill-rule="evenodd" clip-rule="evenodd" d="M1669 586.521C1664.06 587.457 1660.33 591.793 1660.33 597C1660.33 602.891 1665.11 607.667 1671 607.667C1676.89 607.667 1681.67 602.891 1681.67 597C1681.67 591.793 1677.93 587.457 1673 586.521V337.5H1669V586.521Z" fill="#FF6D7F"/>
<path opacity="0.25" d="M1709 597C1709 617.987 1691.99 635 1671 635C1650.01 635 1633 617.987 1633 597C1633 576.013 1650.01 559 1671 559C1691.99 559 1709 576.013 1709 597Z" fill="#FF6D7F"/>
<path d="M215.102 654V638.993L249.653 631.664L245.116 637.946V427.15L251.049 433.781L215.102 427.15V412.143L274.781 410.398H315.614C341.905 410.398 361.798 415.866 375.293 426.801C388.787 437.736 395.535 453.558 395.535 474.265C395.535 493.344 389.485 508.932 377.387 521.031C365.521 533.13 347.373 540.459 322.943 543.018L322.594 539.528C331.668 540.459 338.997 542.553 344.581 545.81C350.397 548.835 355.283 553.023 359.239 558.374C363.194 563.493 367.033 569.891 370.756 577.569L400.072 636.899L391.347 630.966L420.663 638.993V654H377.736L345.628 585.247C341.207 575.242 336.903 567.564 332.715 562.213C328.759 556.629 323.757 552.674 317.708 550.347C311.891 548.02 303.515 546.857 292.58 546.857L268.499 547.206L273.734 542.32V637.946L269.197 631.664L309.681 638.993V654H215.102ZM273.734 533.944L268.499 526.266H301.654C322.361 526.266 338.299 522.078 349.467 513.702C360.635 505.093 366.219 492.529 366.219 476.01C366.219 461.585 361.682 450.649 352.608 443.204C343.534 435.526 330.039 431.687 312.124 431.687H268.499L273.734 426.452V533.944Z" fill="#3C4043"/>
<path d="M578.621 638.295L574.083 632.013L606.191 638.295V653.651L557.332 655.745L553.143 622.241L555.586 623.288C545.349 634.456 534.297 642.948 522.431 648.765C510.565 654.349 499.048 657.141 487.88 657.141C474.386 657.141 462.985 652.837 453.679 644.228C444.372 635.619 439.719 622.59 439.719 605.14C439.719 591.413 442.627 580.943 448.444 573.73C454.26 566.285 462.287 561.05 472.525 558.025C482.762 555 494.628 553.488 508.122 553.488H553.841L550.701 556.978V523.474C550.701 510.677 547.327 501.603 540.579 496.252C533.832 490.668 524.526 487.876 512.66 487.876C506.378 487.876 499.63 488.574 492.418 489.97C485.438 491.133 477.992 493.111 470.082 495.903L474.27 491.366L470.779 523.125H452.283L449.491 479.849C462.753 475.428 475.2 472.171 486.833 470.077C498.467 467.75 509.169 466.587 518.941 466.587C537.555 466.587 552.096 470.775 562.566 479.151C573.269 487.294 578.621 500.44 578.621 518.588V638.295ZM467.988 602.697C467.988 614.098 470.663 622.474 476.014 627.825C481.598 633.176 488.578 635.852 496.954 635.852C505.098 635.852 514.056 633.409 523.828 628.523C533.832 623.404 543.488 616.541 552.794 607.932L550.701 615.261V568.495L553.841 571.636H512.31C495.791 571.636 484.274 574.195 477.759 579.314C471.245 584.2 467.988 591.994 467.988 602.697Z" fill="#3C4043"/>
<path d="M704.915 737.411C677.693 737.411 657.335 733.456 643.84 725.545C630.345 717.634 623.598 706.234 623.598 691.343C623.598 680.873 627.088 671.566 634.068 663.423C641.048 655.28 651.285 648.183 664.78 642.134L665.129 647.718C657.684 647.253 651.983 645.74 648.028 643.181C644.073 640.389 642.095 636.55 642.095 631.664C642.095 629.803 642.328 627.941 642.793 626.08C643.258 624.219 644.073 621.659 645.236 618.402C646.632 614.912 648.61 610.375 651.169 604.791C653.961 598.974 657.451 591.413 661.639 582.106L662.337 586.992C652.332 581.641 644.654 574.428 639.303 565.354C633.952 556.047 631.276 545.112 631.276 532.548C631.276 512.306 637.907 496.252 651.169 484.386C664.664 472.52 683.161 466.587 706.66 466.587C722.481 466.587 736.092 469.379 747.493 474.963L739.815 473.218L794.608 470.775L794.957 487.527L762.5 493.809L764.943 489.621C769.829 494.274 773.552 499.975 776.111 506.722C778.67 513.469 779.95 521.147 779.95 529.756C779.95 550.231 773.086 566.401 759.359 578.267C745.632 590.133 727.367 596.066 704.566 596.066C691.537 596.066 679.554 593.856 668.619 589.435L674.901 586.294L665.827 632.013L659.894 628.523H728.298C750.634 628.523 767.619 632.944 779.252 641.785C790.885 650.394 796.702 662.841 796.702 679.128C796.702 697.974 788.908 712.399 773.319 722.404C757.963 732.409 735.162 737.411 704.915 737.411ZM707.358 716.122C728.531 716.122 744.236 713.214 754.473 707.397C764.71 701.58 769.829 692.855 769.829 681.222C769.829 670.985 765.99 663.19 758.312 657.839C750.634 652.72 739.117 650.161 723.761 650.161H668.27L676.297 648.416C657.684 660.049 648.377 672.613 648.377 686.108C648.377 696.113 653.147 703.558 662.686 708.444C672.458 713.563 687.349 716.122 707.358 716.122ZM704.566 576.522C719.457 576.522 731.09 572.567 739.466 564.656C747.842 556.513 752.03 545.112 752.03 530.454C752.03 515.796 748.075 504.744 740.164 497.299C732.253 489.854 720.969 486.131 706.311 486.131C691.42 486.131 679.903 490.086 671.76 497.997C663.617 505.675 659.545 516.959 659.545 531.85C659.545 546.275 663.384 557.327 671.062 565.005C678.973 572.683 690.141 576.522 704.566 576.522Z" fill="#3C4043"/>
<path d="M852.831 514.4C852.831 521.845 855.274 527.662 860.16 531.85C865.046 536.038 871.328 539.528 879.006 542.32C886.684 544.879 894.827 547.439 903.436 549.998C912.045 552.557 920.188 555.698 927.866 559.421C935.544 563.144 941.826 568.262 946.712 574.777C951.598 581.292 954.041 589.9 954.041 600.603C954.041 612.934 950.667 623.288 943.92 631.664C937.173 640.04 927.982 646.438 916.349 650.859C904.948 655.047 892.152 657.141 877.959 657.141C869.35 657.141 860.509 656.443 851.435 655.047C842.361 653.651 833.054 651.673 823.515 649.114L825.958 602.348H843.757L847.247 636.55L844.106 632.711C849.457 634.107 855.274 635.27 861.556 636.201C867.838 637.132 873.655 637.597 879.006 637.597C887.382 637.597 895.06 636.434 902.04 634.107C909.253 631.548 915.069 627.941 919.49 623.288C923.911 618.402 926.121 612.353 926.121 605.14C926.121 597.462 923.678 591.413 918.792 586.992C914.139 582.571 907.973 578.965 900.295 576.173C892.617 573.381 884.474 570.822 875.865 568.495C867.489 565.936 859.462 562.795 851.784 559.072C844.106 555.117 837.824 549.998 832.938 543.716C828.052 537.434 825.609 528.825 825.609 517.89C825.609 506.024 828.634 496.368 834.683 488.923C840.965 481.245 849.108 475.661 859.113 472.171C869.35 468.448 880.286 466.587 891.919 466.587C899.83 466.587 908.555 467.401 918.094 469.03C927.633 470.659 937.405 473.102 947.41 476.359L945.665 515.796H927.866L922.631 486.829L926.819 491.715C914.72 488.225 903.32 486.48 892.617 486.48C881.216 486.48 871.677 488.923 863.999 493.809C856.554 498.462 852.831 505.326 852.831 514.4Z" fill="#3C4043"/>
<path d="M1046.02 657.141C1033.92 657.141 1024.38 653.418 1017.4 645.973C1010.42 638.295 1006.93 626.778 1006.93 611.422V484.735L1011.47 489.272H975.518V473.916L1011.81 468.681L1006.93 474.265V428.197L1034.85 423.66V474.265L1031.01 469.728H1085.8L1084.76 489.272H1031.01L1034.85 484.735V607.583C1034.85 617.355 1036.71 624.451 1040.43 628.872C1044.39 633.293 1049.86 635.503 1056.84 635.503C1061.02 635.503 1065.56 634.805 1070.45 633.409C1075.33 632.013 1080.57 630.035 1086.15 627.476L1092.08 643.53C1075.56 652.604 1060.21 657.141 1046.02 657.141Z" fill="#3C4043"/>
<path d="M1195.6 466.587C1221.19 466.587 1241.2 474.614 1255.63 490.668C1270.29 506.722 1277.62 529.407 1277.62 558.723C1277.62 578.5 1274.01 595.833 1266.8 610.724C1259.82 625.382 1249.81 636.783 1236.78 644.926C1223.75 653.069 1208.05 657.141 1189.67 657.141C1164.54 657.141 1144.88 649.347 1130.69 633.758C1116.49 617.937 1109.4 595.252 1109.4 565.703C1109.4 545.228 1112.77 527.662 1119.52 513.004C1126.5 498.113 1136.39 486.713 1149.18 478.802C1162.21 470.659 1177.69 466.587 1195.6 466.587ZM1194.2 487.178C1176.29 487.178 1162.56 493.925 1153.02 507.42C1143.48 520.915 1138.71 539.877 1138.71 564.307C1138.71 588.272 1143.25 606.303 1152.32 618.402C1161.4 630.501 1174.43 636.55 1191.41 636.55C1203.74 636.55 1214.1 633.525 1222.47 627.476C1231.08 621.194 1237.48 612.353 1241.67 600.952C1246.09 589.551 1248.3 575.94 1248.3 560.119C1248.3 536.387 1243.53 518.355 1233.99 506.024C1224.68 493.46 1211.42 487.178 1194.2 487.178Z" fill="#3C4043"/>
<path d="M1307 654V638.993L1338.41 632.013L1334.22 637.248V487.178L1338.41 492.413L1307 485.782V470.775L1355.86 468.332L1359.7 502.534L1355.86 501.138C1367.49 489.272 1379.59 480.547 1392.16 474.963C1404.95 469.379 1417.05 466.587 1428.45 466.587C1443.81 466.587 1456.49 471.357 1466.49 480.896C1476.73 490.203 1481.73 504.744 1481.5 524.521V637.248L1478.01 632.362L1508.72 638.993V654H1427.4V638.993L1457.77 632.362L1453.58 637.597V530.454C1453.58 516.029 1450.32 505.442 1443.81 498.695C1437.29 491.948 1428.57 488.574 1417.63 488.574C1409.02 488.574 1399.6 490.901 1389.36 495.554C1379.36 500.207 1369.47 507.42 1359.7 517.192L1362.14 511.608V637.597L1358.65 632.711L1388.32 638.993V654H1307Z" fill="#3C4043"/>
<path d="M1610.91 657.141C1595.32 657.141 1581.48 653.651 1569.38 646.671C1557.52 639.458 1548.21 628.988 1541.46 615.261C1534.72 601.534 1531.34 584.782 1531.34 565.005C1531.34 544.763 1534.83 527.313 1541.81 512.655C1548.79 497.997 1558.68 486.713 1571.48 478.802C1584.27 470.659 1599.28 466.587 1616.5 466.587C1632.78 466.587 1646.16 470.077 1656.63 477.057C1667.34 483.804 1675.25 493.227 1680.36 505.326C1685.72 517.425 1688.39 531.268 1688.39 546.857C1688.39 549.416 1688.28 551.976 1688.04 554.535C1687.81 557.094 1687.46 560.235 1687 563.958H1552.63V544.065H1662.57L1659.42 546.159C1659.66 535.689 1658.38 526.033 1655.59 517.192C1652.79 508.351 1648.02 501.254 1641.28 495.903C1634.53 490.552 1625.57 487.876 1614.4 487.876C1602.54 487.876 1592.53 491.017 1584.39 497.299C1576.25 503.581 1570.2 512.19 1566.24 523.125C1562.29 534.06 1560.31 546.741 1560.31 561.166C1560.31 576.522 1562.52 589.784 1566.94 600.952C1571.36 611.887 1577.76 620.38 1586.13 626.429C1594.74 632.478 1605.21 635.503 1617.54 635.503C1626.15 635.503 1635.58 633.874 1645.81 630.617C1656.05 627.127 1666.64 621.892 1677.57 614.912L1687.69 630.617C1674.66 639.458 1661.63 646.089 1648.61 650.51C1635.58 654.931 1623.01 657.141 1610.91 657.141Z" fill="#3C4043"/>
<path d="M1050.96 229.8H1059.24C1062.36 229.8 1064.64 230.544 1066.08 232.032C1067.52 233.52 1068.24 235.896 1068.24 239.16V245.64C1068.24 248.904 1067.52 251.28 1066.08 252.768C1064.64 254.256 1062.36 255 1059.24 255H1050.96V252.156H1053.12V232.608H1050.96V229.8ZM1058.81 252.192C1059.91 252.192 1060.86 252.084 1061.65 251.868C1062.47 251.652 1063.14 251.292 1063.67 250.788C1064.19 250.26 1064.58 249.564 1064.82 248.7C1065.08 247.836 1065.21 246.744 1065.21 245.424V239.376C1065.21 238.056 1065.08 236.964 1064.82 236.1C1064.58 235.236 1064.19 234.552 1063.67 234.048C1063.14 233.52 1062.47 233.148 1061.65 232.932C1060.86 232.716 1059.91 232.608 1058.81 232.608H1056.14V252.192H1058.81Z" fill="#FF6D7F"/>
<path d="M1073.4 229.8H1089.38V232.608H1082.9V252.192H1089.38V255H1073.4V252.192H1079.88V232.608H1073.4V229.8Z" fill="#FF6D7F"/>
<path d="M1108.83 248.736H1098.03L1096.19 255H1092.95L1100.59 229.8H1106.27L1113.91 255H1110.67L1108.83 248.736ZM1103.21 231.096L1098.86 245.928H1108L1103.65 231.096H1103.21Z" fill="#FF6D7F"/>
<path d="M1123.06 242.904H1134.29V255H1131.49V251.976H1131.05C1130.65 253.032 1129.93 253.884 1128.89 254.532C1127.86 255.18 1126.66 255.504 1125.29 255.504C1122.58 255.504 1120.45 254.628 1118.89 252.876C1117.35 251.124 1116.58 248.568 1116.58 245.208V239.592C1116.58 236.328 1117.36 233.796 1118.92 231.996C1120.48 230.196 1122.65 229.296 1125.44 229.296C1126.88 229.296 1128.15 229.536 1129.25 230.016C1130.36 230.472 1131.28 231.12 1132.03 231.96C1132.77 232.776 1133.33 233.748 1133.72 234.876C1134.1 235.98 1134.29 237.168 1134.29 238.44V238.872H1131.27V238.44C1131.27 237.624 1131.15 236.832 1130.91 236.064C1130.69 235.296 1130.35 234.624 1129.87 234.048C1129.41 233.448 1128.81 232.98 1128.07 232.644C1127.35 232.284 1126.47 232.104 1125.44 232.104C1123.49 232.104 1122.03 232.812 1121.05 234.228C1120.09 235.644 1119.61 237.504 1119.61 239.808V244.992C1119.61 247.464 1120.09 249.372 1121.05 250.716C1122.03 252.036 1123.52 252.696 1125.51 252.696C1127.31 252.696 1128.71 252.12 1129.72 250.968C1130.75 249.816 1131.27 248.208 1131.27 246.144V245.712H1123.06V242.904Z" fill="#FF6D7F"/>
<path d="M1138.66 239.592C1138.66 236.328 1139.44 233.796 1141 231.996C1142.56 230.196 1144.73 229.296 1147.52 229.296C1150.3 229.296 1152.47 230.196 1154.03 231.996C1155.59 233.796 1156.37 236.328 1156.37 239.592V245.208C1156.37 248.568 1155.59 251.124 1154.03 252.876C1152.47 254.628 1150.3 255.504 1147.52 255.504C1144.73 255.504 1142.56 254.628 1141 252.876C1139.44 251.124 1138.66 248.568 1138.66 245.208V239.592ZM1147.52 252.696C1149.46 252.696 1150.91 252.036 1151.87 250.716C1152.86 249.372 1153.35 247.464 1153.35 244.992V239.808C1153.35 237.504 1152.86 235.644 1151.87 234.228C1150.91 232.812 1149.46 232.104 1147.52 232.104C1145.57 232.104 1144.11 232.812 1143.12 234.228C1142.16 235.644 1141.68 237.504 1141.68 239.808V244.992C1141.68 247.464 1142.16 249.372 1143.12 250.716C1144.11 252.036 1145.57 252.696 1147.52 252.696Z" fill="#FF6D7F"/>
<path d="M1174.49 253.704H1174.92V229.8H1177.95V255H1171.9L1164.63 231.096H1164.2V255H1161.17V229.8H1167.22L1174.49 253.704Z" fill="#FF6D7F"/>
<path d="M1197 248.736H1186.2L1184.37 255H1181.13L1188.76 229.8H1194.45L1202.08 255H1198.84L1197 248.736ZM1191.39 231.096L1187.03 245.928H1196.17L1191.82 231.096H1191.39Z" fill="#FF6D7F"/>
<path d="M1205.76 229.8H1208.79V252.192H1221.96V255H1205.76V229.8Z" fill="#FF6D7F"/>
<path d="M1108.83 296.736H1098.03L1096.19 303H1092.95L1100.59 277.8H1106.27L1113.91 303H1110.67L1108.83 296.736ZM1103.21 279.096L1098.86 293.928H1108L1103.65 279.096H1103.21Z" fill="#FF6D7F"/>
<path d="M1119.5 277.8L1125.15 288.96H1125.8L1131.45 277.8H1134.76L1128.46 290.148V290.58L1134.76 303H1131.45L1125.8 291.768H1125.15L1119.5 303H1116.19L1122.49 290.58V290.148L1116.19 277.8H1119.5Z" fill="#FF6D7F"/>
<path d="M1139.52 277.8H1155.51V280.608H1149.03V300.192H1155.51V303H1139.52V300.192H1146V280.608H1139.52V277.8Z" fill="#FF6D7F"/>
<path d="M1175.5 285.072C1175.5 284.256 1175.33 283.536 1175 282.912C1174.68 282.288 1174.25 281.772 1173.7 281.364C1173.15 280.956 1172.51 280.644 1171.79 280.428C1171.07 280.212 1170.32 280.104 1169.52 280.104C1168.83 280.104 1168.17 280.2 1167.54 280.392C1166.92 280.56 1166.36 280.812 1165.85 281.148C1165.37 281.484 1164.99 281.904 1164.7 282.408C1164.41 282.888 1164.27 283.452 1164.27 284.1V284.316C1164.27 285.012 1164.41 285.612 1164.7 286.116C1164.99 286.596 1165.41 287.016 1165.96 287.376C1166.54 287.712 1167.24 288 1168.08 288.24C1168.92 288.456 1169.91 288.648 1171.04 288.816C1173.68 289.224 1175.62 290.004 1176.87 291.156C1178.12 292.284 1178.74 293.808 1178.74 295.728V296.16C1178.74 297.24 1178.55 298.236 1178.16 299.148C1177.8 300.036 1177.25 300.804 1176.51 301.452C1175.79 302.1 1174.89 302.604 1173.81 302.964C1172.73 303.324 1171.48 303.504 1170.06 303.504C1168.46 303.504 1167.03 303.276 1165.78 302.82C1164.56 302.34 1163.52 301.692 1162.68 300.876C1161.87 300.036 1161.24 299.064 1160.81 297.96C1160.38 296.832 1160.16 295.608 1160.16 294.288V293.208H1163.19V294.072C1163.19 296.28 1163.79 297.936 1164.99 299.04C1166.21 300.144 1167.9 300.696 1170.06 300.696C1171.94 300.696 1173.34 300.288 1174.28 299.472C1175.24 298.632 1175.72 297.528 1175.72 296.16V295.944C1175.72 294.624 1175.22 293.616 1174.24 292.92C1173.28 292.224 1171.71 291.72 1169.52 291.408C1168.25 291.24 1167.1 290.988 1166.07 290.652C1165.06 290.292 1164.2 289.836 1163.48 289.284C1162.76 288.708 1162.2 288.024 1161.82 287.232C1161.44 286.44 1161.24 285.504 1161.24 284.424V283.992C1161.24 283.008 1161.45 282.108 1161.86 281.292C1162.26 280.476 1162.83 279.768 1163.55 279.168C1164.29 278.568 1165.17 278.112 1166.18 277.8C1167.21 277.464 1168.34 277.296 1169.56 277.296C1170.98 277.296 1172.24 277.5 1173.34 277.908C1174.47 278.316 1175.42 278.868 1176.18 279.564C1176.95 280.236 1177.53 281.04 1177.91 281.976C1178.32 282.888 1178.52 283.848 1178.52 284.856V286.368H1175.5V285.072Z" fill="#FF6D7F"/>
<path fill-rule="evenodd" clip-rule="evenodd" d="M1244.54 742.175L1137.41 385.933L1141.24 384.781L1248.37 741.023L1244.54 742.175Z" fill="#FF6D7F"/>
<path d="M1629.58 234.592C1629.58 231.328 1630.36 228.796 1631.92 226.996C1633.48 225.196 1635.65 224.296 1638.43 224.296C1641.22 224.296 1643.39 225.196 1644.95 226.996C1646.51 228.796 1647.29 231.328 1647.29 234.592V240.208C1647.29 243.568 1646.51 246.124 1644.95 247.876C1643.39 249.628 1641.22 250.504 1638.43 250.504C1635.65 250.504 1633.48 249.628 1631.92 247.876C1630.36 246.124 1629.58 243.568 1629.58 240.208V234.592ZM1638.43 247.696C1640.38 247.696 1641.83 247.036 1642.79 245.716C1643.77 244.372 1644.26 242.464 1644.26 239.992V234.808C1644.26 232.504 1643.77 230.644 1642.79 229.228C1641.83 227.812 1640.38 227.104 1638.43 227.104C1636.49 227.104 1635.02 227.812 1634.04 229.228C1633.08 230.644 1632.6 232.504 1632.6 234.808V239.992C1632.6 242.464 1633.08 244.372 1634.04 245.716C1635.02 247.036 1636.49 247.696 1638.43 247.696Z" fill="#FF6D7F"/>
<path d="M1655.54 239.632V250H1652.52V224.8H1661.52C1662.81 224.8 1663.94 224.992 1664.9 225.376C1665.86 225.736 1666.65 226.228 1667.28 226.852C1667.93 227.476 1668.41 228.208 1668.72 229.048C1669.05 229.864 1669.22 230.728 1669.22 231.64V232.72C1669.22 233.632 1669.05 234.508 1668.72 235.348C1668.41 236.188 1667.93 236.932 1667.28 237.58C1666.63 238.204 1665.83 238.708 1664.87 239.092C1663.91 239.452 1662.79 239.632 1661.52 239.632H1655.54ZM1655.54 236.824H1661.16C1664.52 236.824 1666.2 235.384 1666.2 232.504V231.856C1666.2 230.584 1665.78 229.564 1664.94 228.796C1664.12 228.004 1662.86 227.608 1661.16 227.608H1655.54V236.824Z" fill="#FF6D7F"/>
<path d="M1674.89 224.8H1690.15V227.608H1677.91V235.96H1689.93V238.768H1677.91V247.192H1690.37V250H1674.89V224.8Z" fill="#FF6D7F"/>
<path d="M1709.49 248.704H1709.92V224.8H1712.95V250H1706.9L1699.63 226.096H1699.2V250H1696.17V224.8H1702.22L1709.49 248.704Z" fill="#FF6D7F"/>
<path d="M1588.72 291.736H1577.92L1576.09 298H1572.85L1580.48 272.8H1586.17L1593.8 298H1590.56L1588.72 291.736ZM1583.11 274.096L1578.75 288.928H1587.9L1583.54 274.096H1583.11Z" fill="#FF6D7F"/>
<path d="M1600.43 287.632V298H1597.41V272.8H1606.41C1607.71 272.8 1608.83 272.992 1609.79 273.376C1610.75 273.736 1611.55 274.228 1612.17 274.852C1612.82 275.476 1613.3 276.208 1613.61 277.048C1613.95 277.864 1614.11 278.728 1614.11 279.64V280.72C1614.11 281.632 1613.95 282.508 1613.61 283.348C1613.3 284.188 1612.82 284.932 1612.17 285.58C1611.52 286.204 1610.72 286.708 1609.76 287.092C1608.8 287.452 1607.68 287.632 1606.41 287.632H1600.43ZM1600.43 284.824H1606.05C1609.41 284.824 1611.09 283.384 1611.09 280.504V279.856C1611.09 278.584 1610.67 277.564 1609.83 276.796C1609.01 276.004 1607.75 275.608 1606.05 275.608H1600.43V284.824Z" fill="#FF6D7F"/>
<path d="M1619.78 272.8H1635.04V275.608H1622.8V283.96H1634.83V286.768H1622.8V295.192H1635.26V298H1619.78V272.8Z" fill="#FF6D7F"/>
<path d="M1657.34 298H1654.31V289.576C1654.31 288.952 1654.17 288.472 1653.88 288.136C1653.59 287.8 1653.09 287.632 1652.37 287.632H1644.52V298H1641.5V272.8H1650.5C1651.79 272.8 1652.92 272.992 1653.88 273.376C1654.84 273.736 1655.63 274.228 1656.26 274.852C1656.9 275.476 1657.38 276.208 1657.7 277.048C1658.03 277.864 1658.2 278.728 1658.2 279.64V280.72C1658.2 281.656 1657.94 282.592 1657.41 283.528C1656.9 284.464 1656.11 285.184 1655.03 285.688V286.12C1655.75 286.24 1656.32 286.528 1656.72 286.984C1657.13 287.44 1657.34 288.088 1657.34 288.928V298ZM1644.52 284.824H1650.14C1651.84 284.824 1653.1 284.464 1653.92 283.744C1654.76 283 1655.18 281.92 1655.18 280.504V279.856C1655.18 278.584 1654.76 277.564 1653.92 276.796C1653.1 276.004 1651.84 275.608 1650.14 275.608H1644.52V284.824Z" fill="#FF6D7F"/>
<path d="M1662.64 272.8H1680.35V275.608H1673.01V298H1669.98V275.608H1662.64V272.8Z" fill="#FF6D7F"/>
<path d="M1687.92 272.8V289.504C1687.92 291.544 1688.39 293.092 1689.33 294.148C1690.29 295.18 1691.69 295.696 1693.54 295.696C1695.39 295.696 1696.78 295.18 1697.71 294.148C1698.67 293.092 1699.15 291.544 1699.15 289.504V272.8H1702.18V289.504C1702.18 292.432 1701.41 294.664 1699.87 296.2C1698.34 297.736 1696.23 298.504 1693.54 298.504C1690.85 298.504 1688.74 297.736 1687.2 296.2C1685.67 294.664 1684.9 292.432 1684.9 289.504V272.8H1687.92Z" fill="#FF6D7F"/>
<path d="M1723.47 298H1720.44V289.576C1720.44 288.952 1720.3 288.472 1720.01 288.136C1719.72 287.8 1719.22 287.632 1718.5 287.632H1710.65V298H1707.63V272.8H1716.63C1717.92 272.8 1719.05 272.992 1720.01 273.376C1720.97 273.736 1721.76 274.228 1722.39 274.852C1723.03 275.476 1723.51 276.208 1723.83 277.048C1724.16 277.864 1724.33 278.728 1724.33 279.64V280.72C1724.33 281.656 1724.07 282.592 1723.54 283.528C1723.03 284.464 1722.24 285.184 1721.16 285.688V286.12C1721.88 286.24 1722.45 286.528 1722.85 286.984C1723.26 287.44 1723.47 288.088 1723.47 288.928V298ZM1710.65 284.824H1716.27C1717.97 284.824 1719.23 284.464 1720.05 283.744C1720.89 283 1721.31 281.92 1721.31 280.504V279.856C1721.31 278.584 1720.89 277.564 1720.05 276.796C1719.23 276.004 1717.97 275.608 1716.27 275.608H1710.65V284.824Z" fill="#FF6D7F"/>
<path d="M1729.99 272.8H1745.26V275.608H1733.02V283.96H1745.04V286.768H1733.02V295.192H1745.47V298H1729.99V272.8Z" fill="#FF6D7F"/>
<path d="M1765.61 280.072C1765.61 279.256 1765.44 278.536 1765.1 277.912C1764.79 277.288 1764.36 276.772 1763.81 276.364C1763.26 275.956 1762.62 275.644 1761.9 275.428C1761.18 275.212 1760.42 275.104 1759.63 275.104C1758.94 275.104 1758.28 275.2 1757.65 275.392C1757.03 275.56 1756.46 275.812 1755.96 276.148C1755.48 276.484 1755.1 276.904 1754.81 277.408C1754.52 277.888 1754.38 278.452 1754.38 279.1V279.316C1754.38 280.012 1754.52 280.612 1754.81 281.116C1755.1 281.596 1755.52 282.016 1756.07 282.376C1756.64 282.712 1757.35 283 1758.19 283.24C1759.03 283.456 1760.02 283.648 1761.14 283.816C1763.78 284.224 1765.73 285.004 1766.98 286.156C1768.22 287.284 1768.85 288.808 1768.85 290.728V291.16C1768.85 292.24 1768.66 293.236 1768.27 294.148C1767.91 295.036 1767.36 295.804 1766.62 296.452C1765.9 297.1 1765 297.604 1763.92 297.964C1762.84 298.324 1761.59 298.504 1760.17 298.504C1758.56 298.504 1757.14 298.276 1755.89 297.82C1754.66 297.34 1753.63 296.692 1752.79 295.876C1751.98 295.036 1751.35 294.064 1750.92 292.96C1750.49 291.832 1750.27 290.608 1750.27 289.288V288.208H1753.3V289.072C1753.3 291.28 1753.9 292.936 1755.1 294.04C1756.32 295.144 1758.01 295.696 1760.17 295.696C1762.04 295.696 1763.45 295.288 1764.38 294.472C1765.34 293.632 1765.82 292.528 1765.82 291.16V290.944C1765.82 289.624 1765.33 288.616 1764.35 287.92C1763.39 287.224 1761.82 286.72 1759.63 286.408C1758.36 286.24 1757.21 285.988 1756.18 285.652C1755.17 285.292 1754.3 284.836 1753.58 284.284C1752.86 283.708 1752.31 283.024 1751.93 282.232C1751.54 281.44 1751.35 280.504 1751.35 279.424V278.992C1751.35 278.008 1751.56 277.108 1751.96 276.292C1752.37 275.476 1752.94 274.768 1753.66 274.168C1754.4 273.568 1755.28 273.112 1756.28 272.8C1757.32 272.464 1758.44 272.296 1759.67 272.296C1761.08 272.296 1762.34 272.5 1763.45 272.908C1764.58 273.316 1765.52 273.868 1766.29 274.564C1767.06 275.236 1767.64 276.04 1768.02 276.976C1768.43 277.888 1768.63 278.848 1768.63 279.856V281.368H1765.61V280.072Z" fill="#FF6D7F"/>
<circle cx="73" cy="76" r="24" fill="#D2E3FC"/>
<path d="M70.9825 83.464V65.176H70.3345L67.9585 73.816H63.4225V73.384L66.4465 62.8H75.7345V83.464H81.9985V88H63.8545V83.464H70.9825Z" fill="#1A73E8"/>
<path d="M111.628 62.8H119.908C123.028 62.8 125.308 63.544 126.748 65.032C128.188 66.52 128.908 68.896 128.908 72.16V78.64C128.908 81.904 128.188 84.28 126.748 85.768C125.308 87.256 123.028 88 119.908 88H111.628V85.156H113.788V65.608H111.628V62.8ZM119.476 85.192C120.58 85.192 121.528 85.084 122.32 84.868C123.136 84.652 123.808 84.292 124.336 83.788C124.864 83.26 125.248 82.564 125.488 81.7C125.752 80.836 125.884 79.744 125.884 78.424V72.376C125.884 71.056 125.752 69.964 125.488 69.1C125.248 68.236 124.864 67.552 124.336 67.048C123.808 66.52 123.136 66.148 122.32 65.932C121.528 65.716 120.58 65.608 119.476 65.608H116.812V85.192H119.476ZM140.547 79.144H139.899L132.015 62.8H135.399L141.843 76.552H142.275L148.719 62.8H152.103L144.219 79.144H143.571V88H140.547V79.144ZM169.034 86.704H169.466V62.8H172.49V88H166.442L159.17 64.096H158.738V88H155.714V62.8H161.762L169.034 86.704ZM191.545 81.736H180.745L178.909 88H175.669L183.301 62.8H188.989L196.621 88H193.381L191.545 81.736ZM185.929 64.096L181.573 78.928H190.717L186.361 64.096H185.929ZM198.828 62.8H204.588L207.972 86.704H208.404L211.788 62.8H217.548V88H214.74V64.096H214.308L210.924 88H205.452L202.068 64.096H201.636V88H198.828V62.8ZM222.239 62.8H238.223V65.608H231.743V85.192H238.223V88H222.239V85.192H228.719V65.608H222.239V62.8ZM252.418 85.696C253.45 85.696 254.326 85.528 255.046 85.192C255.79 84.832 256.39 84.364 256.846 83.788C257.326 83.188 257.674 82.516 257.89 81.772C258.13 81.004 258.25 80.2 258.25 79.36V78.928H261.274V79.36C261.274 80.632 261.082 81.832 260.698 82.96C260.314 84.064 259.75 85.036 259.006 85.876C258.262 86.692 257.338 87.34 256.234 87.82C255.13 88.276 253.858 88.504 252.418 88.504C249.634 88.504 247.462 87.628 245.902 85.876C244.342 84.124 243.562 81.568 243.562 78.208V72.592C243.562 69.328 244.342 66.796 245.902 64.996C247.462 63.196 249.634 62.296 252.418 62.296C253.858 62.296 255.13 62.536 256.234 63.016C257.338 63.472 258.262 64.12 259.006 64.96C259.75 65.776 260.314 66.748 260.698 67.876C261.082 68.98 261.274 70.168 261.274 71.44V71.872H258.25V71.44C258.226 70.624 258.094 69.832 257.854 69.064C257.638 68.296 257.29 67.624 256.81 67.048C256.354 66.448 255.766 65.98 255.046 65.644C254.326 65.284 253.45 65.104 252.418 65.104C250.474 65.104 249.01 65.812 248.026 67.228C247.066 68.644 246.586 70.504 246.586 72.808V77.992C246.586 80.464 247.066 82.372 248.026 83.716C249.01 85.036 250.474 85.696 252.418 85.696Z" fill="#1A73E8"/>
<circle cx="322" cy="76" r="24" fill="#D2E3FC"/>
<path d="M330.531 83.464V88H312.819V83.032C312.819 81.712 313.011 80.584 313.395 79.648C313.803 78.712 314.367 77.92 315.087 77.272C315.831 76.624 316.719 76.096 317.751 75.688C318.783 75.256 319.947 74.896 321.243 74.608C322.203 74.392 322.983 74.152 323.583 73.888C324.207 73.6 324.699 73.288 325.059 72.952C325.419 72.592 325.659 72.208 325.779 71.8C325.923 71.368 325.995 70.888 325.995 70.36C325.995 69.352 325.623 68.512 324.879 67.84C324.159 67.168 323.151 66.832 321.855 66.832C320.487 66.832 319.395 67.252 318.579 68.092C317.763 68.908 317.355 70.048 317.355 71.512V73.096H312.603V71.08C312.603 69.904 312.807 68.788 313.215 67.732C313.647 66.652 314.247 65.716 315.015 64.924C315.807 64.108 316.767 63.472 317.895 63.016C319.023 62.536 320.295 62.296 321.711 62.296C323.223 62.296 324.543 62.524 325.671 62.98C326.799 63.412 327.735 63.988 328.479 64.708C329.247 65.428 329.811 66.268 330.171 67.228C330.555 68.164 330.747 69.136 330.747 70.144V70.576C330.747 72.688 330.147 74.44 328.947 75.832C327.771 77.224 325.839 78.232 323.151 78.856C322.023 79.12 321.087 79.396 320.343 79.684C319.623 79.948 319.059 80.248 318.651 80.584C318.243 80.92 317.955 81.292 317.787 81.7C317.643 82.084 317.571 82.528 317.571 83.032V83.464H330.531Z" fill="#1A73E8"/>
<path d="M361.132 62.8H364.156V85.192H377.332V88H361.132V62.8ZM383.067 62.8H399.051V65.608H392.571V85.192H399.051V88H383.067V85.192H389.547V65.608H383.067V62.8ZM418.034 86.704H418.466V62.8H421.49V88H415.442L408.17 64.096H407.738V88H404.714V62.8H410.762L418.034 86.704ZM427.513 62.8H442.777V65.608H430.537V73.96H442.561V76.768H430.537V85.192H442.993V88H427.513V62.8ZM462.588 81.736H451.788L449.952 88H446.712L454.344 62.8H460.032L467.664 88H464.424L462.588 81.736ZM456.972 64.096L452.616 78.928H461.76L457.404 64.096H456.972ZM487.115 88H484.091V79.576C484.091 78.952 483.947 78.472 483.659 78.136C483.371 77.8 482.867 77.632 482.147 77.632H474.299V88H471.275V62.8H480.275C481.571 62.8 482.699 62.992 483.659 63.376C484.619 63.736 485.411 64.228 486.035 64.852C486.683 65.476 487.163 66.208 487.475 67.048C487.811 67.864 487.979 68.728 487.979 69.64V70.72C487.979 71.656 487.715 72.592 487.187 73.528C486.683 74.464 485.891 75.184 484.811 75.688V76.12C485.531 76.24 486.095 76.528 486.503 76.984C486.911 77.44 487.115 78.088 487.115 78.928V88ZM474.299 74.824H479.915C481.619 74.824 482.879 74.464 483.695 73.744C484.535 73 484.955 71.92 484.955 70.504V69.856C484.955 68.584 484.535 67.564 483.695 66.796C482.879 66.004 481.619 65.608 479.915 65.608H474.299V74.824ZM529.257 70.072C529.257 69.256 529.089 68.536 528.753 67.912C528.441 67.288 528.009 66.772 527.457 66.364C526.905 65.956 526.269 65.644 525.549 65.428C524.829 65.212 524.073 65.104 523.281 65.104C522.585 65.104 521.925 65.2 521.301 65.392C520.677 65.56 520.113 65.812 519.609 66.148C519.129 66.484 518.745 66.904 518.457 67.408C518.169 67.888 518.025 68.452 518.025 69.1V69.316C518.025 70.012 518.169 70.612 518.457 71.116C518.745 71.596 519.165 72.016 519.717 72.376C520.293 72.712 521.001 73 521.841 73.24C522.681 73.456 523.665 73.648 524.793 73.816C527.433 74.224 529.377 75.004 530.625 76.156C531.873 77.284 532.497 78.808 532.497 80.728V81.16C532.497 82.24 532.305 83.236 531.921 84.148C531.561 85.036 531.009 85.804 530.265 86.452C529.545 87.1 528.645 87.604 527.565 87.964C526.485 88.324 525.237 88.504 523.821 88.504C522.213 88.504 520.785 88.276 519.537 87.82C518.313 87.34 517.281 86.692 516.441 85.876C515.625 85.036 515.001 84.064 514.569 82.96C514.137 81.832 513.921 80.608 513.921 79.288V78.208H516.945V79.072C516.945 81.28 517.545 82.936 518.745 84.04C519.969 85.144 521.661 85.696 523.821 85.696C525.693 85.696 527.097 85.288 528.033 84.472C528.993 83.632 529.473 82.528 529.473 81.16V80.944C529.473 79.624 528.981 78.616 527.997 77.92C527.037 77.224 525.465 76.72 523.281 76.408C522.009 76.24 520.857 75.988 519.825 75.652C518.817 75.292 517.953 74.836 517.233 74.284C516.513 73.708 515.961 73.024 515.577 72.232C515.193 71.44 515.001 70.504 515.001 69.424V68.992C515.001 68.008 515.205 67.108 515.613 66.292C516.021 65.476 516.585 64.768 517.305 64.168C518.049 63.568 518.925 63.112 519.933 62.8C520.965 62.464 522.093 62.296 523.317 62.296C524.733 62.296 525.993 62.5 527.097 62.908C528.225 63.316 529.173 63.868 529.941 64.564C530.709 65.236 531.285 66.04 531.669 66.976C532.077 67.888 532.281 68.848 532.281 69.856V71.368H529.257V70.072ZM537.728 62.8H552.992V65.608H540.752V73.96H552.776V76.768H540.752V85.192H553.208V88H537.728V62.8ZM575.287 88H572.263V79.576C572.263 78.952 572.119 78.472 571.831 78.136C571.543 77.8 571.039 77.632 570.319 77.632H562.471V88H559.447V62.8H568.447C569.743 62.8 570.871 62.992 571.831 63.376C572.791 63.736 573.583 64.228 574.207 64.852C574.855 65.476 575.335 66.208 575.647 67.048C575.983 67.864 576.151 68.728 576.151 69.64V70.72C576.151 71.656 575.887 72.592 575.359 73.528C574.855 74.464 574.063 75.184 572.983 75.688V76.12C573.703 76.24 574.267 76.528 574.675 76.984C575.083 77.44 575.287 78.088 575.287 78.928V88ZM562.471 74.824H568.087C569.791 74.824 571.051 74.464 571.867 73.744C572.707 73 573.127 71.92 573.127 70.504V69.856C573.127 68.584 572.707 67.564 571.867 66.796C571.051 66.004 569.791 65.608 568.087 65.608H562.471V74.824ZM581.454 62.8H597.438V65.608H590.958V85.192H597.438V88H581.454V85.192H587.934V65.608H581.454V62.8ZM603.893 62.8H619.373V65.608H606.917V73.96H619.157V76.768H606.917V88H603.893V62.8Z" fill="#1A73E8"/>
<path d="M701.567 942.632V953H698.543V927.8H707.543C708.839 927.8 709.967 927.992 710.927 928.376C711.887 928.736 712.679 929.228 713.303 929.852C713.951 930.476 714.431 931.208 714.743 932.048C715.079 932.864 715.247 933.728 715.247 934.64V935.72C715.247 936.632 715.079 937.508 714.743 938.348C714.431 939.188 713.951 939.932 713.303 940.58C712.655 941.204 711.851 941.708 710.891 942.092C709.931 942.452 708.815 942.632 707.543 942.632H701.567ZM701.567 939.824H707.183C710.543 939.824 712.223 938.384 712.223 935.504V934.856C712.223 933.584 711.803 932.564 710.963 931.796C710.147 931.004 708.887 930.608 707.183 930.608H701.567V939.824Z" fill="#1A73E8"/>
<path d="M736.426 953H733.402V944.576C733.402 943.952 733.258 943.472 732.97 943.136C732.682 942.8 732.178 942.632 731.458 942.632H723.61V953H720.586V927.8H729.586C730.882 927.8 732.01 927.992 732.97 928.376C733.93 928.736 734.722 929.228 735.346 929.852C735.994 930.476 736.474 931.208 736.786 932.048C737.122 932.864 737.29 933.728 737.29 934.64V935.72C737.29 936.656 737.026 937.592 736.498 938.528C735.994 939.464 735.202 940.184 734.122 940.688V941.12C734.842 941.24 735.406 941.528 735.814 941.984C736.222 942.44 736.426 943.088 736.426 943.928V953ZM723.61 939.824H729.226C730.93 939.824 732.19 939.464 733.006 938.744C733.846 938 734.266 936.92 734.266 935.504V934.856C734.266 933.584 733.846 932.564 733.006 931.796C732.19 931.004 730.93 930.608 729.226 930.608H723.61V939.824Z" fill="#1A73E8"/>
<path d="M742.593 927.8H758.577V930.608H752.097V950.192H758.577V953H742.593V950.192H749.073V930.608H742.593V927.8Z" fill="#1A73E8"/>
<path d="M763.268 927.8H769.028L772.412 951.704H772.844L776.228 927.8H781.988V953H779.18V929.096H778.748L775.364 953H769.892L766.508 929.096H766.076V953H763.268V927.8Z" fill="#1A73E8"/>
<path d="M800.071 946.736H789.271L787.435 953H784.195L791.827 927.8H797.515L805.147 953H801.907L800.071 946.736ZM794.455 929.096L790.099 943.928H799.243L794.887 929.096H794.455Z" fill="#1A73E8"/>
<path d="M824.598 953H821.574V944.576C821.574 943.952 821.43 943.472 821.142 943.136C820.854 942.8 820.35 942.632 819.63 942.632H811.782V953H808.758V927.8H817.758C819.054 927.8 820.182 927.992 821.142 928.376C822.102 928.736 822.894 929.228 823.518 929.852C824.166 930.476 824.646 931.208 824.958 932.048C825.294 932.864 825.462 933.728 825.462 934.64V935.72C825.462 936.656 825.198 937.592 824.67 938.528C824.166 939.464 823.374 940.184 822.294 940.688V941.12C823.014 941.24 823.578 941.528 823.986 941.984C824.394 942.44 824.598 943.088 824.598 943.928V953ZM811.782 939.824H817.398C819.102 939.824 820.362 939.464 821.178 938.744C822.018 938 822.438 936.92 822.438 935.504V934.856C822.438 933.584 822.018 932.564 821.178 931.796C820.362 931.004 819.102 930.608 817.398 930.608H811.782V939.824Z" fill="#1A73E8"/>
<path d="M837.245 944.144H836.597L828.713 927.8H832.097L838.541 941.552H838.973L845.417 927.8H848.801L840.917 944.144H840.269V953H837.245V944.144Z" fill="#1A73E8"/>
<path d="M873.987 927.8H891.699V930.608H884.355V953H881.331V930.608H873.987V927.8Z" fill="#1A73E8"/>
<path d="M903.374 944.144H902.726L894.842 927.8H898.226L904.67 941.552H905.102L911.546 927.8H914.93L907.046 944.144H906.398V953H903.374V944.144Z" fill="#1A73E8"/>
<path d="M921.997 942.632V953H918.973V927.8H927.973C929.269 927.8 930.397 927.992 931.357 928.376C932.317 928.736 933.109 929.228 933.733 929.852C934.381 930.476 934.861 931.208 935.173 932.048C935.509 932.864 935.677 933.728 935.677 934.64V935.72C935.677 936.632 935.509 937.508 935.173 938.348C934.861 939.188 934.381 939.932 933.733 940.58C933.085 941.204 932.281 941.708 931.321 942.092C930.361 942.452 929.245 942.632 927.973 942.632H921.997ZM921.997 939.824H927.613C930.973 939.824 932.653 938.384 932.653 935.504V934.856C932.653 933.584 932.233 932.564 931.393 931.796C930.577 931.004 929.317 930.608 927.613 930.608H921.997V939.824Z" fill="#1A73E8"/>
<path d="M941.34 927.8H956.604V930.608H944.364V938.96H956.388V941.768H944.364V950.192H956.82V953H941.34V927.8Z" fill="#1A73E8"/>
<path d="M963.419 927.8H978.899V930.608H966.443V938.96H978.683V941.768H966.443V953H963.419V927.8Z" fill="#1A73E8"/>
<path d="M998.458 946.736H987.658L985.822 953H982.582L990.214 927.8H995.902L1003.53 953H1000.29L998.458 946.736ZM992.842 929.096L988.486 943.928H997.63L993.274 929.096H992.842Z" fill="#1A73E8"/>
<path d="M1015.24 950.696C1016.28 950.696 1017.15 950.528 1017.87 950.192C1018.62 949.832 1019.22 949.364 1019.67 948.788C1020.15 948.188 1020.5 947.516 1020.72 946.772C1020.96 946.004 1021.08 945.2 1021.08 944.36V943.928H1024.1V944.36C1024.1 945.632 1023.91 946.832 1023.52 947.96C1023.14 949.064 1022.58 950.036 1021.83 950.876C1021.09 951.692 1020.16 952.34 1019.06 952.82C1017.96 953.276 1016.68 953.504 1015.24 953.504C1012.46 953.504 1010.29 952.628 1008.73 950.876C1007.17 949.124 1006.39 946.568 1006.39 943.208V937.592C1006.39 934.328 1007.17 931.796 1008.73 929.996C1010.29 928.196 1012.46 927.296 1015.24 927.296C1016.68 927.296 1017.96 927.536 1019.06 928.016C1020.16 928.472 1021.09 929.12 1021.83 929.96C1022.58 930.776 1023.14 931.748 1023.52 932.876C1023.91 933.98 1024.1 935.168 1024.1 936.44V936.872H1021.08V936.44C1021.05 935.624 1020.92 934.832 1020.68 934.064C1020.46 933.296 1020.12 932.624 1019.64 932.048C1019.18 931.448 1018.59 930.98 1017.87 930.644C1017.15 930.284 1016.28 930.104 1015.24 930.104C1013.3 930.104 1011.84 930.812 1010.85 932.228C1009.89 933.644 1009.41 935.504 1009.41 937.808V942.992C1009.41 945.464 1009.89 947.372 1010.85 948.716C1011.84 950.036 1013.3 950.696 1015.24 950.696Z" fill="#1A73E8"/>
<path d="M1029.51 927.8H1044.78V930.608H1032.54V938.96H1044.56V941.768H1032.54V950.192H1044.99V953H1029.51V927.8Z" fill="#1A73E8"/>
<path d="M1056.67 950.984C1056.67 950.288 1056.91 949.7 1057.39 949.22C1057.89 948.716 1058.49 948.464 1059.19 948.464C1059.88 948.464 1060.47 948.716 1060.95 949.22C1061.45 949.7 1061.71 950.288 1061.71 950.984C1061.71 951.68 1061.45 952.28 1060.95 952.784C1060.47 953.264 1059.88 953.504 1059.19 953.504C1058.49 953.504 1057.89 953.264 1057.39 952.784C1056.91 952.28 1056.67 951.68 1056.67 950.984ZM1056.67 937.16C1056.67 936.464 1056.91 935.876 1057.39 935.396C1057.89 934.892 1058.49 934.64 1059.19 934.64C1059.88 934.64 1060.47 934.892 1060.95 935.396C1061.45 935.876 1061.71 936.464 1061.71 937.16C1061.71 937.856 1061.45 938.456 1060.95 938.96C1060.47 939.44 1059.88 939.68 1059.19 939.68C1058.49 939.68 1057.89 939.44 1057.39 938.96C1056.91 938.456 1056.67 937.856 1056.67 937.16Z" fill="#1A73E8"/>
<path d="M1094.31 950.192H1096.47V930.608H1094.31V927.8H1104.5C1105.7 927.8 1106.75 927.968 1107.66 928.304C1108.6 928.64 1109.38 929.096 1110 929.672C1110.65 930.248 1111.13 930.944 1111.44 931.76C1111.78 932.552 1111.95 933.416 1111.95 934.352V934.784C1111.95 935.48 1111.84 936.116 1111.62 936.692C1111.41 937.268 1111.11 937.784 1110.72 938.24C1110.34 938.696 1109.88 939.092 1109.36 939.428C1108.85 939.74 1108.3 939.98 1107.7 940.148V940.58C1108.9 940.916 1109.91 941.564 1110.72 942.524C1111.54 943.46 1111.95 944.612 1111.95 945.98V946.412C1111.95 947.348 1111.78 948.224 1111.44 949.04C1111.13 949.832 1110.65 950.528 1110 951.128C1109.38 951.704 1108.6 952.16 1107.66 952.496C1106.75 952.832 1105.7 953 1104.5 953H1094.31V950.192ZM1099.49 950.192H1104.28C1105.7 950.192 1106.85 949.844 1107.74 949.148C1108.62 948.428 1109.07 947.444 1109.07 946.196V945.98C1109.07 944.684 1108.65 943.664 1107.81 942.92C1106.97 942.152 1105.83 941.768 1104.39 941.768H1099.49V950.192ZM1099.49 938.96H1104.39C1105.83 938.96 1106.97 938.588 1107.81 937.844C1108.65 937.1 1109.07 936.08 1109.07 934.784V934.568C1109.07 933.344 1108.62 932.384 1107.74 931.688C1106.85 930.968 1105.7 930.608 1104.28 930.608H1099.49V938.96Z" fill="#1A73E8"/>
<path d="M1117.32 927.8H1133.31V930.608H1126.83V950.192H1133.31V953H1117.32V950.192H1123.8V930.608H1117.32V927.8Z" fill="#1A73E8"/>
<path d="M1138.5 927.8H1156.21V930.608H1148.87V953H1145.85V930.608H1138.5V927.8Z" fill="#1A73E8"/>
<path d="M1160.55 927.8H1178.26V930.608H1170.91V953H1167.89V930.608H1160.55V927.8Z" fill="#1A73E8"/>
<path d="M1183.81 927.8H1199.08V930.608H1186.84V938.96H1198.86V941.768H1186.84V950.192H1199.29V953H1183.81V927.8Z" fill="#1A73E8"/>
<path d="M1221.37 953H1218.35V944.576C1218.35 943.952 1218.2 943.472 1217.92 943.136C1217.63 942.8 1217.12 942.632 1216.4 942.632H1208.56V953H1205.53V927.8H1214.53C1215.83 927.8 1216.96 927.992 1217.92 928.376C1218.88 928.736 1219.67 929.228 1220.29 929.852C1220.94 930.476 1221.42 931.208 1221.73 932.048C1222.07 932.864 1222.24 933.728 1222.24 934.64V935.72C1222.24 936.656 1221.97 937.592 1221.44 938.528C1220.94 939.464 1220.15 940.184 1219.07 940.688V941.12C1219.79 941.24 1220.35 941.528 1220.76 941.984C1221.17 942.44 1221.37 943.088 1221.37 943.928V953ZM1208.56 939.824H1214.17C1215.88 939.824 1217.14 939.464 1217.95 938.744C1218.79 938 1219.21 936.92 1219.21 935.504V934.856C1219.21 933.584 1218.79 932.564 1217.95 931.796C1217.14 931.004 1215.88 930.608 1214.17 930.608H1208.56V939.824Z" fill="#1A73E8"/>
<path d="M813.576 1001H810.552V992.576C810.552 991.952 810.408 991.472 810.12 991.136C809.832 990.8 809.328 990.632 808.608 990.632H800.76V1001H797.736V975.8H806.736C808.032 975.8 809.16 975.992 810.12 976.376C811.08 976.736 811.872 977.228 812.496 977.852C813.144 978.476 813.624 979.208 813.936 980.048C814.272 980.864 814.44 981.728 814.44 982.64V983.72C814.44 984.656 814.176 985.592 813.648 986.528C813.144 987.464 812.352 988.184 811.272 988.688V989.12C811.992 989.24 812.556 989.528 812.964 989.984C813.372 990.44 813.576 991.088 813.576 991.928V1001ZM800.76 987.824H806.376C808.08 987.824 809.34 987.464 810.156 986.744C810.996 986 811.416 984.92 811.416 983.504V982.856C811.416 981.584 810.996 980.564 810.156 979.796C809.34 979.004 808.08 978.608 806.376 978.608H800.76V987.824Z" fill="#1A73E8"/>
<path d="M818.879 985.592C818.879 982.328 819.659 979.796 821.219 977.996C822.779 976.196 824.951 975.296 827.735 975.296C830.519 975.296 832.691 976.196 834.251 977.996C835.811 979.796 836.591 982.328 836.591 985.592V991.208C836.591 994.568 835.811 997.124 834.251 998.876C832.691 1000.63 830.519 1001.5 827.735 1001.5C824.951 1001.5 822.779 1000.63 821.219 998.876C819.659 997.124 818.879 994.568 818.879 991.208V985.592ZM827.735 998.696C829.679 998.696 831.131 998.036 832.091 996.716C833.075 995.372 833.567 993.464 833.567 990.992V985.808C833.567 983.504 833.075 981.644 832.091 980.228C831.131 978.812 829.679 978.104 827.735 978.104C825.791 978.104 824.327 978.812 823.343 980.228C822.383 981.644 821.903 983.504 821.903 985.808V990.992C821.903 993.464 822.383 995.372 823.343 996.716C824.327 998.036 825.791 998.696 827.735 998.696Z" fill="#1A73E8"/>
<path d="M841.894 975.8H844.918V998.192H858.094V1001H841.894V975.8Z" fill="#1A73E8"/>
<path d="M864.189 975.8H879.453V978.608H867.213V986.96H879.237V989.768H867.213V998.192H879.669V1001H864.189V975.8Z" fill="#1A73E8"/>
<path d="M891.344 998.984C891.344 998.288 891.584 997.7 892.064 997.22C892.568 996.716 893.168 996.464 893.864 996.464C894.56 996.464 895.148 996.716 895.628 997.22C896.132 997.7 896.384 998.288 896.384 998.984C896.384 999.68 896.132 1000.28 895.628 1000.78C895.148 1001.26 894.56 1001.5 893.864 1001.5C893.168 1001.5 892.568 1001.26 892.064 1000.78C891.584 1000.28 891.344 999.68 891.344 998.984ZM891.344 985.16C891.344 984.464 891.584 983.876 892.064 983.396C892.568 982.892 893.168 982.64 893.864 982.64C894.56 982.64 895.148 982.892 895.628 983.396C896.132 983.876 896.384 984.464 896.384 985.16C896.384 985.856 896.132 986.456 895.628 986.96C895.148 987.44 894.56 987.68 893.864 987.68C893.168 987.68 892.568 987.44 892.064 986.96C891.584 986.456 891.344 985.856 891.344 985.16Z" fill="#1A73E8"/>
<path d="M928.986 998.192H931.146V978.608H928.986V975.8H939.174C940.374 975.8 941.43 975.968 942.342 976.304C943.278 976.64 944.058 977.096 944.682 977.672C945.33 978.248 945.81 978.944 946.122 979.76C946.458 980.552 946.626 981.416 946.626 982.352V982.784C946.626 983.48 946.518 984.116 946.302 984.692C946.086 985.268 945.786 985.784 945.402 986.24C945.018 986.696 944.562 987.092 944.034 987.428C943.53 987.74 942.978 987.98 942.378 988.148V988.58C943.578 988.916 944.586 989.564 945.402 990.524C946.218 991.46 946.626 992.612 946.626 993.98V994.412C946.626 995.348 946.458 996.224 946.122 997.04C945.81 997.832 945.33 998.528 944.682 999.128C944.058 999.704 943.278 1000.16 942.342 1000.5C941.43 1000.83 940.374 1001 939.174 1001H928.986V998.192ZM934.17 998.192H938.958C940.374 998.192 941.526 997.844 942.414 997.148C943.302 996.428 943.746 995.444 943.746 994.196V993.98C943.746 992.684 943.326 991.664 942.486 990.92C941.646 990.152 940.506 989.768 939.066 989.768H934.17V998.192ZM934.17 986.96H939.066C940.506 986.96 941.646 986.588 942.486 985.844C943.326 985.1 943.746 984.08 943.746 982.784V982.568C943.746 981.344 943.302 980.384 942.414 979.688C941.526 978.968 940.374 978.608 938.958 978.608H934.17V986.96Z" fill="#1A73E8"/>
<path d="M951.137 985.592C951.137 982.328 951.917 979.796 953.477 977.996C955.037 976.196 957.209 975.296 959.993 975.296C962.777 975.296 964.949 976.196 966.509 977.996C968.069 979.796 968.849 982.328 968.849 985.592V991.208C968.849 994.568 968.069 997.124 966.509 998.876C964.949 1000.63 962.777 1001.5 959.993 1001.5C957.209 1001.5 955.037 1000.63 953.477 998.876C951.917 997.124 951.137 994.568 951.137 991.208V985.592ZM959.993 998.696C961.937 998.696 963.389 998.036 964.349 996.716C965.333 995.372 965.825 993.464 965.825 990.992V985.808C965.825 983.504 965.333 981.644 964.349 980.228C963.389 978.812 961.937 978.104 959.993 978.104C958.049 978.104 956.585 978.812 955.601 980.228C954.641 981.644 954.161 983.504 954.161 985.808V990.992C954.161 993.464 954.641 995.372 955.601 996.716C956.585 998.036 958.049 998.696 959.993 998.696Z" fill="#1A73E8"/>
<path d="M973.648 975.8H981.928C985.048 975.8 987.328 976.544 988.768 978.032C990.208 979.52 990.928 981.896 990.928 985.16V991.64C990.928 994.904 990.208 997.28 988.768 998.768C987.328 1000.26 985.048 1001 981.928 1001H973.648V998.156H975.808V978.608H973.648V975.8ZM981.496 998.192C982.6 998.192 983.548 998.084 984.34 997.868C985.156 997.652 985.828 997.292 986.356 996.788C986.884 996.26 987.268 995.564 987.508 994.7C987.772 993.836 987.904 992.744 987.904 991.424V985.376C987.904 984.056 987.772 982.964 987.508 982.1C987.268 981.236 986.884 980.552 986.356 980.048C985.828 979.52 985.156 979.148 984.34 978.932C983.548 978.716 982.6 978.608 981.496 978.608H978.832V998.192H981.496Z" fill="#1A73E8"/>
<path d="M1002.57 992.144H1001.92L994.035 975.8H997.419L1003.86 989.552H1004.3L1010.74 975.8H1014.12L1006.24 992.144H1005.59V1001H1002.57V992.144Z" fill="#1A73E8"/>
<path d="M1039.31 975.8H1057.02V978.608H1049.68V1001H1046.65V978.608H1039.31V975.8Z" fill="#1A73E8"/>
<path d="M1062.58 975.8H1077.84V978.608H1065.6V986.96H1077.62V989.768H1065.6V998.192H1078.06V1001H1062.58V975.8Z" fill="#1A73E8"/>
<path d="M1086.27 975.8L1091.93 986.96H1092.57L1098.23 975.8H1101.54L1095.24 988.148V988.58L1101.54 1001H1098.23L1092.57 989.768H1091.93L1086.27 1001H1082.96L1089.26 988.58V988.148L1082.96 975.8H1086.27Z" fill="#1A73E8"/>
<path d="M1105.44 975.8H1123.15V978.608H1115.81V1001H1112.78V978.608H1105.44V975.8Z" fill="#1A73E8"/>
</svg>
