<svg xmlns="http://www.w3.org/2000/svg" width="1920" height="1080" fill="none"><path fill="#FF6D7F" fill-rule="evenodd" d="M1669 586.521c-4.94.936-8.67 5.272-8.67 10.479 0 5.891 4.78 10.667 10.67 10.667s10.67-4.776 10.67-10.667c0-5.207-3.74-9.543-8.67-10.479V337.5h-4v249.021Z" clip-rule="evenodd"/><path fill="#FF6D7F" d="M1709 597c0 20.987-17.01 38-38 38s-38-17.013-38-38 17.01-38 38-38 38 17.013 38 38Z" opacity=".25"/><path fill="#3C4043" d="M215.102 654v-15.007l34.551-7.329-4.537 6.282V427.15l5.933 6.631-35.947-6.631v-15.007l59.679-1.745h40.833c26.291 0 46.184 5.468 59.679 16.403 13.494 10.935 20.242 26.757 20.242 47.464 0 19.079-6.05 34.667-18.148 46.766-11.866 12.099-30.014 19.428-54.444 21.987l-.349-3.49c9.074.931 16.403 3.025 21.987 6.282 5.816 3.025 10.702 7.213 14.658 12.564 3.955 5.119 7.794 11.517 11.517 19.195l29.316 59.33-8.725-5.933 29.316 8.027V654h-42.927l-32.108-68.753c-4.421-10.005-8.725-17.683-12.913-23.034-3.956-5.584-8.958-9.539-15.007-11.866-5.817-2.327-14.193-3.49-25.128-3.49l-24.081.349 5.235-4.886v95.626l-4.537-6.282 40.484 7.329V654h-94.579Zm58.632-120.056-5.235-7.678h33.155c20.707 0 36.645-4.188 47.813-12.564 11.168-8.609 16.752-21.173 16.752-37.692 0-14.425-4.537-25.361-13.611-32.806-9.074-7.678-22.569-11.517-40.484-11.517h-43.625l5.235-5.235v107.492ZM578.621 638.295l-4.538-6.282 32.108 6.282v15.356l-48.859 2.094-4.189-33.504 2.443 1.047c-10.237 11.168-21.289 19.66-33.155 25.477-11.866 5.584-23.383 8.376-34.551 8.376-13.494 0-24.895-4.304-34.201-12.913-9.307-8.609-13.96-21.638-13.96-39.088 0-13.727 2.908-24.197 8.725-31.41 5.816-7.445 13.843-12.68 24.081-15.705 10.237-3.025 22.103-4.537 35.597-4.537h45.719l-3.14 3.49v-33.504c0-12.797-3.374-21.871-10.122-27.222-6.747-5.584-16.053-8.376-27.919-8.376-6.282 0-13.03.698-20.242 2.094-6.98 1.163-14.426 3.141-22.336 5.933l4.188-4.537-3.491 31.759h-18.496l-2.792-43.276c13.262-4.421 25.709-7.678 37.342-9.772 11.634-2.327 22.336-3.49 32.108-3.49 18.614 0 33.155 4.188 43.625 12.564 10.703 8.143 16.055 21.289 16.055 39.437v119.707Zm-110.633-35.598c0 11.401 2.675 19.777 8.026 25.128 5.584 5.351 12.564 8.027 20.94 8.027 8.144 0 17.102-2.443 26.874-7.329 10.004-5.119 19.66-11.982 28.966-20.591l-2.093 7.329v-46.766l3.14 3.141H512.31c-16.519 0-28.036 2.559-34.551 7.678-6.514 4.886-9.771 12.68-9.771 23.383ZM704.915 737.411c-27.222 0-47.58-3.955-61.075-11.866-13.495-7.911-20.242-19.311-20.242-34.202 0-10.47 3.49-19.777 10.47-27.92s17.217-15.24 30.712-21.289l.349 5.584c-7.445-.465-13.146-1.978-17.101-4.537-3.955-2.792-5.933-6.631-5.933-11.517 0-1.861.233-3.723.698-5.584.465-1.861 1.28-4.421 2.443-7.678 1.396-3.49 3.374-8.027 5.933-13.611 2.792-5.817 6.282-13.378 10.47-22.685l.698 4.886c-10.005-5.351-17.683-12.564-23.034-21.638-5.351-9.307-8.027-20.242-8.027-32.806 0-20.242 6.631-36.296 19.893-48.162 13.495-11.866 31.992-17.799 55.491-17.799 15.821 0 29.432 2.792 40.833 8.376l-7.678-1.745 54.793-2.443.349 16.752-32.457 6.282 2.443-4.188c4.886 4.653 8.609 10.354 11.168 17.101 2.559 6.747 3.839 14.425 3.839 23.034 0 20.475-6.864 36.645-20.591 48.511s-31.992 17.799-54.793 17.799c-13.029 0-25.012-2.21-35.947-6.631l6.282-3.141-9.074 45.719-5.933-3.49h68.404c22.336 0 39.321 4.421 50.954 13.262 11.633 8.609 17.45 21.056 17.45 37.343 0 18.846-7.794 33.271-23.383 43.276-15.356 10.005-38.157 15.007-68.404 15.007Zm2.443-21.289c21.173 0 36.878-2.908 47.115-8.725 10.237-5.817 15.356-14.542 15.356-26.175 0-10.237-3.839-18.032-11.517-23.383-7.678-5.119-19.195-7.678-34.551-7.678H668.27l8.027-1.745c-18.613 11.633-27.92 24.197-27.92 37.692 0 10.005 4.77 17.45 14.309 22.336 9.772 5.119 24.663 7.678 44.672 7.678Zm-2.792-139.6c14.891 0 26.524-3.955 34.9-11.866 8.376-8.143 12.564-19.544 12.564-34.202 0-14.658-3.955-25.71-11.866-33.155s-19.195-11.168-33.853-11.168c-14.891 0-26.408 3.955-34.551 11.866-8.143 7.678-12.215 18.962-12.215 33.853 0 14.425 3.839 25.477 11.517 33.155 7.911 7.678 19.079 11.517 33.504 11.517ZM852.831 514.4c0 7.445 2.443 13.262 7.329 17.45 4.886 4.188 11.168 7.678 18.846 10.47a782.618 782.618 0 0 0 24.43 7.678c8.609 2.559 16.752 5.7 24.43 9.423 7.678 3.723 13.96 8.841 18.846 15.356 4.886 6.515 7.329 15.123 7.329 25.826 0 12.331-3.374 22.685-10.121 31.061-6.747 8.376-15.938 14.774-27.571 19.195-11.401 4.188-24.197 6.282-38.39 6.282-8.609 0-17.45-.698-26.524-2.094-9.074-1.396-18.381-3.374-27.92-5.933l2.443-46.766h17.799l3.49 34.202-3.141-3.839c5.351 1.396 11.168 2.559 17.45 3.49s12.099 1.396 17.45 1.396c8.376 0 16.054-1.163 23.034-3.49 7.213-2.559 13.029-6.166 17.45-10.819 4.421-4.886 6.631-10.935 6.631-18.148 0-7.678-2.443-13.727-7.329-18.148-4.653-4.421-10.819-8.027-18.497-10.819-7.678-2.792-15.821-5.351-24.43-7.678-8.376-2.559-16.403-5.7-24.081-9.423-7.678-3.955-13.96-9.074-18.846-15.356-4.886-6.282-7.329-14.891-7.329-25.826 0-11.866 3.025-21.522 9.074-28.967 6.282-7.678 14.425-13.262 24.43-16.752 10.237-3.723 21.173-5.584 32.806-5.584 7.911 0 16.636.814 26.175 2.443 9.539 1.629 19.311 4.072 29.316 7.329l-1.745 39.437h-17.799l-5.235-28.967 4.188 4.886c-12.099-3.49-23.499-5.235-34.202-5.235-11.401 0-20.94 2.443-28.618 7.329-7.445 4.653-11.168 11.517-11.168 20.591ZM1046.02 657.141c-12.1 0-21.64-3.723-28.62-11.168-6.98-7.678-10.47-19.195-10.47-34.551V484.735l4.54 4.537h-35.952v-15.356l36.292-5.235-4.88 5.584v-46.068l27.92-4.537v50.605l-3.84-4.537h54.79l-1.04 19.544h-53.75l3.84-4.537v122.848c0 9.772 1.86 16.868 5.58 21.289 3.96 4.421 9.43 6.631 16.41 6.631 4.18 0 8.72-.698 13.61-2.094 4.88-1.396 10.12-3.374 15.7-5.933l5.93 16.054c-16.52 9.074-31.87 13.611-46.06 13.611ZM1195.6 466.587c25.59 0 45.6 8.027 60.03 24.081 14.66 16.054 21.99 38.739 21.99 68.055 0 19.777-3.61 37.11-10.82 52.001-6.98 14.658-16.99 26.059-30.02 34.202-13.03 8.143-28.73 12.215-47.11 12.215-25.13 0-44.79-7.794-58.98-23.383-14.2-15.821-21.29-38.506-21.29-68.055 0-20.475 3.37-38.041 10.12-52.699 6.98-14.891 16.87-26.291 29.66-34.202 13.03-8.143 28.51-12.215 46.42-12.215Zm-1.4 20.591c-17.91 0-31.64 6.747-41.18 20.242-9.54 13.495-14.31 32.457-14.31 56.887 0 23.965 4.54 41.996 13.61 54.095 9.08 12.099 22.11 18.148 39.09 18.148 12.33 0 22.69-3.025 31.06-9.074 8.61-6.282 15.01-15.123 19.2-26.524 4.42-11.401 6.63-25.012 6.63-40.833 0-23.732-4.77-41.764-14.31-54.095-9.31-12.564-22.57-18.846-39.79-18.846ZM1307 654v-15.007l31.41-6.98-4.19 5.235v-150.07l4.19 5.235-31.41-6.631v-15.007l48.86-2.443 3.84 34.202-3.84-1.396c11.63-11.866 23.73-20.591 36.3-26.175 12.79-5.584 24.89-8.376 36.29-8.376 15.36 0 28.04 4.77 38.04 14.309 10.24 9.307 15.24 23.848 15.01 43.625v112.727l-3.49-4.886 30.71 6.631V654h-81.32v-15.007l30.37-6.631-4.19 5.235V530.454c0-14.425-3.26-25.012-9.77-31.759-6.52-6.747-15.24-10.121-26.18-10.121-8.61 0-18.03 2.327-28.27 6.98-10 4.653-19.89 11.866-29.66 21.638l2.44-5.584v125.989l-3.49-4.886 29.67 6.282V654H1307ZM1610.91 657.141c-15.59 0-29.43-3.49-41.53-10.47-11.86-7.213-21.17-17.683-27.92-31.41-6.74-13.727-10.12-30.479-10.12-50.256 0-20.242 3.49-37.692 10.47-52.35 6.98-14.658 16.87-25.942 29.67-33.853 12.79-8.143 27.8-12.215 45.02-12.215 16.28 0 29.66 3.49 40.13 10.47 10.71 6.747 18.62 16.17 23.73 28.269 5.36 12.099 8.03 25.942 8.03 41.531 0 2.559-.11 5.119-.35 7.678-.23 2.559-.58 5.7-1.04 9.423h-134.37v-19.893h109.94l-3.15 2.094c.24-10.47-1.04-20.126-3.83-28.967-2.8-8.841-7.57-15.938-14.31-21.289-6.75-5.351-15.71-8.027-26.88-8.027-11.86 0-21.87 3.141-30.01 9.423s-14.19 14.891-18.15 25.826c-3.95 10.935-5.93 23.616-5.93 38.041 0 15.356 2.21 28.618 6.63 39.786 4.42 10.935 10.82 19.428 19.19 25.477 8.61 6.049 19.08 9.074 31.41 9.074 8.61 0 18.04-1.629 28.27-4.886 10.24-3.49 20.83-8.725 31.76-15.705l10.12 15.705c-13.03 8.841-26.06 15.472-39.08 19.893-13.03 4.421-25.6 6.631-37.7 6.631Z"/><path fill="#FF6D7F" d="M1050.96 229.8h8.28c3.12 0 5.4.744 6.84 2.232 1.44 1.488 2.16 3.864 2.16 7.128v6.48c0 3.264-.72 5.64-2.16 7.128-1.44 1.488-3.72 2.232-6.84 2.232h-8.28v-2.844h2.16v-19.548h-2.16V229.8Zm7.85 22.392c1.1 0 2.05-.108 2.84-.324.82-.216 1.49-.576 2.02-1.08.52-.528.91-1.224 1.15-2.088.26-.864.39-1.956.39-3.276v-6.048c0-1.32-.13-2.412-.39-3.276-.24-.864-.63-1.548-1.15-2.052-.53-.528-1.2-.9-2.02-1.116-.79-.216-1.74-.324-2.84-.324h-2.67v19.584h2.67ZM1073.4 229.8h15.98v2.808h-6.48v19.584h6.48V255h-15.98v-2.808h6.48v-19.584h-6.48V229.8ZM1108.83 248.736h-10.8l-1.84 6.264h-3.24l7.64-25.2h5.68l7.64 25.2h-3.24l-1.84-6.264Zm-5.62-17.64-4.35 14.832h9.14l-4.35-14.832h-.44ZM1123.06 242.904h11.23V255h-2.8v-3.024h-.44c-.4 1.056-1.12 1.908-2.16 2.556-1.03.648-2.23.972-3.6.972-2.71 0-4.84-.876-6.4-2.628-1.54-1.752-2.31-4.308-2.31-7.668v-5.616c0-3.264.78-5.796 2.34-7.596 1.56-1.8 3.73-2.7 6.52-2.7 1.44 0 2.71.24 3.81.72a7.458 7.458 0 0 1 2.78 1.944c.74.816 1.3 1.788 1.69 2.916.38 1.104.57 2.292.57 3.564v.432h-3.02v-.432a7.92 7.92 0 0 0-.36-2.376c-.22-.768-.56-1.44-1.04-2.016a4.636 4.636 0 0 0-1.8-1.404c-.72-.36-1.6-.54-2.63-.54-1.95 0-3.41.708-4.39 2.124-.96 1.416-1.44 3.276-1.44 5.58v5.184c0 2.472.48 4.38 1.44 5.724.98 1.32 2.47 1.98 4.46 1.98 1.8 0 3.2-.576 4.21-1.728 1.03-1.152 1.55-2.76 1.55-4.824v-.432h-8.21v-2.808ZM1138.66 239.592c0-3.264.78-5.796 2.34-7.596 1.56-1.8 3.73-2.7 6.52-2.7 2.78 0 4.95.9 6.51 2.7 1.56 1.8 2.34 4.332 2.34 7.596v5.616c0 3.36-.78 5.916-2.34 7.668-1.56 1.752-3.73 2.628-6.51 2.628-2.79 0-4.96-.876-6.52-2.628-1.56-1.752-2.34-4.308-2.34-7.668v-5.616Zm8.86 13.104c1.94 0 3.39-.66 4.35-1.98.99-1.344 1.48-3.252 1.48-5.724v-5.184c0-2.304-.49-4.164-1.48-5.58-.96-1.416-2.41-2.124-4.35-2.124-1.95 0-3.41.708-4.4 2.124-.96 1.416-1.44 3.276-1.44 5.58v5.184c0 2.472.48 4.38 1.44 5.724.99 1.32 2.45 1.98 4.4 1.98ZM1174.49 253.704h.43V229.8h3.03V255h-6.05l-7.27-23.904h-.43V255h-3.03v-25.2h6.05l7.27 23.904ZM1197 248.736h-10.8l-1.83 6.264h-3.24l7.63-25.2h5.69l7.63 25.2h-3.24l-1.84-6.264Zm-5.61-17.64-4.36 14.832h9.14l-4.35-14.832h-.43ZM1205.76 229.8h3.03v22.392h13.17V255h-16.2v-25.2ZM1108.83 296.736h-10.8l-1.84 6.264h-3.24l7.64-25.2h5.68l7.64 25.2h-3.24l-1.84-6.264Zm-5.62-17.64-4.35 14.832h9.14l-4.35-14.832h-.44ZM1119.5 277.8l5.65 11.16h.65l5.65-11.16h3.31l-6.3 12.348v.432l6.3 12.42h-3.31l-5.65-11.232h-.65L1119.5 303h-3.31l6.3-12.42v-.432l-6.3-12.348h3.31ZM1139.52 277.8h15.99v2.808h-6.48v19.584h6.48V303h-15.99v-2.808h6.48v-19.584h-6.48V277.8ZM1175.5 285.072c0-.816-.17-1.536-.5-2.16a4.382 4.382 0 0 0-1.3-1.548 6.143 6.143 0 0 0-1.91-.936 7.825 7.825 0 0 0-2.27-.324c-.69 0-1.35.096-1.98.288-.62.168-1.18.42-1.69.756-.48.336-.86.756-1.15 1.26-.29.48-.43 1.044-.43 1.692v.216c0 .696.14 1.296.43 1.8.29.48.71.9 1.26 1.26.58.336 1.28.624 2.12.864.84.216 1.83.408 2.96.576 2.64.408 4.58 1.188 5.83 2.34 1.25 1.128 1.87 2.652 1.87 4.572v.432c0 1.08-.19 2.076-.58 2.988a6.05 6.05 0 0 1-1.65 2.304c-.72.648-1.62 1.152-2.7 1.512-1.08.36-2.33.54-3.75.54-1.6 0-3.03-.228-4.28-.684-1.22-.48-2.26-1.128-3.1-1.944a8.737 8.737 0 0 1-1.87-2.916c-.43-1.128-.65-2.352-.65-3.672v-1.08h3.03v.864c0 2.208.6 3.864 1.8 4.968 1.22 1.104 2.91 1.656 5.07 1.656 1.88 0 3.28-.408 4.22-1.224.96-.84 1.44-1.944 1.44-3.312v-.216c0-1.32-.5-2.328-1.48-3.024-.96-.696-2.53-1.2-4.72-1.512-1.27-.168-2.42-.42-3.45-.756-1.01-.36-1.87-.816-2.59-1.368a5.877 5.877 0 0 1-1.66-2.052c-.38-.792-.58-1.728-.58-2.808v-.432c0-.984.21-1.884.62-2.7.4-.816.97-1.524 1.69-2.124.74-.6 1.62-1.056 2.63-1.368 1.03-.336 2.16-.504 3.38-.504 1.42 0 2.68.204 3.78.612 1.13.408 2.08.96 2.84 1.656a6.327 6.327 0 0 1 1.73 2.412c.41.912.61 1.872.61 2.88v1.512h-3.02v-1.296Z"/><path fill="#FF6D7F" fill-rule="evenodd" d="m1244.54 742.175-107.13-356.242 3.83-1.152 107.13 356.242-3.83 1.152Z" clip-rule="evenodd"/><path fill="#FF6D7F" d="M1629.58 234.592c0-3.264.78-5.796 2.34-7.596 1.56-1.8 3.73-2.7 6.51-2.7 2.79 0 4.96.9 6.52 2.7 1.56 1.8 2.34 4.332 2.34 7.596v5.616c0 3.36-.78 5.916-2.34 7.668-1.56 1.752-3.73 2.628-6.52 2.628-2.78 0-4.95-.876-6.51-2.628-1.56-1.752-2.34-4.308-2.34-7.668v-5.616Zm8.85 13.104c1.95 0 3.4-.66 4.36-1.98.98-1.344 1.47-3.252 1.47-5.724v-5.184c0-2.304-.49-4.164-1.47-5.58-.96-1.416-2.41-2.124-4.36-2.124-1.94 0-3.41.708-4.39 2.124-.96 1.416-1.44 3.276-1.44 5.58v5.184c0 2.472.48 4.38 1.44 5.724.98 1.32 2.45 1.98 4.39 1.98ZM1655.54 239.632V250h-3.02v-25.2h9c1.29 0 2.42.192 3.38.576.96.36 1.75.852 2.38 1.476a5.783 5.783 0 0 1 1.44 2.196c.33.816.5 1.68.5 2.592v1.08c0 .912-.17 1.788-.5 2.628-.31.84-.79 1.584-1.44 2.232-.65.624-1.45 1.128-2.41 1.512-.96.36-2.08.54-3.35.54h-5.98Zm0-2.808h5.62c3.36 0 5.04-1.44 5.04-4.32v-.648c0-1.272-.42-2.292-1.26-3.06-.82-.792-2.08-1.188-3.78-1.188h-5.62v9.216ZM1674.89 224.8h15.26v2.808h-12.24v8.352h12.02v2.808h-12.02v8.424h12.46V250h-15.48v-25.2ZM1709.49 248.704h.43V224.8h3.03V250h-6.05l-7.27-23.904h-.43V250h-3.03v-25.2h6.05l7.27 23.904ZM1588.72 291.736h-10.8l-1.83 6.264h-3.24l7.63-25.2h5.69l7.63 25.2h-3.24l-1.84-6.264Zm-5.61-17.64-4.36 14.832h9.15l-4.36-14.832h-.43ZM1600.43 287.632V298h-3.02v-25.2h9c1.3 0 2.42.192 3.38.576.96.36 1.76.852 2.38 1.476a5.783 5.783 0 0 1 1.44 2.196c.34.816.5 1.68.5 2.592v1.08a6.93 6.93 0 0 1-.5 2.628c-.31.84-.79 1.584-1.44 2.232-.65.624-1.45 1.128-2.41 1.512-.96.36-2.08.54-3.35.54h-5.98Zm0-2.808h5.62c3.36 0 5.04-1.44 5.04-4.32v-.648c0-1.272-.42-2.292-1.26-3.06-.82-.792-2.08-1.188-3.78-1.188h-5.62v9.216ZM1619.78 272.8h15.26v2.808h-12.24v8.352h12.03v2.808h-12.03v8.424h12.46V298h-15.48v-25.2ZM1657.34 298h-3.03v-8.424c0-.624-.14-1.104-.43-1.44-.29-.336-.79-.504-1.51-.504h-7.85V298h-3.02v-25.2h9c1.29 0 2.42.192 3.38.576.96.36 1.75.852 2.38 1.476a6.027 6.027 0 0 1 1.44 2.196c.33.816.5 1.68.5 2.592v1.08c0 .936-.26 1.872-.79 2.808-.51.936-1.3 1.656-2.38 2.16v.432c.72.12 1.29.408 1.69.864.41.456.62 1.104.62 1.944V298Zm-12.82-13.176h5.62c1.7 0 2.96-.36 3.78-1.08.84-.744 1.26-1.824 1.26-3.24v-.648c0-1.272-.42-2.292-1.26-3.06-.82-.792-2.08-1.188-3.78-1.188h-5.62v9.216ZM1662.64 272.8h17.71v2.808h-7.34V298h-3.03v-22.392h-7.34V272.8ZM1687.92 272.8v16.704c0 2.04.47 3.588 1.41 4.644.96 1.032 2.36 1.548 4.21 1.548s3.24-.516 4.17-1.548c.96-1.056 1.44-2.604 1.44-4.644V272.8h3.03v16.704c0 2.928-.77 5.16-2.31 6.696-1.53 1.536-3.64 2.304-6.33 2.304s-4.8-.768-6.34-2.304c-1.53-1.536-2.3-3.768-2.3-6.696V272.8h3.02ZM1723.47 298h-3.03v-8.424c0-.624-.14-1.104-.43-1.44-.29-.336-.79-.504-1.51-.504h-7.85V298h-3.02v-25.2h9c1.29 0 2.42.192 3.38.576.96.36 1.75.852 2.38 1.476a6.027 6.027 0 0 1 1.44 2.196c.33.816.5 1.68.5 2.592v1.08c0 .936-.26 1.872-.79 2.808-.51.936-1.3 1.656-2.38 2.16v.432c.72.12 1.29.408 1.69.864.41.456.62 1.104.62 1.944V298Zm-12.82-13.176h5.62c1.7 0 2.96-.36 3.78-1.08.84-.744 1.26-1.824 1.26-3.24v-.648c0-1.272-.42-2.292-1.26-3.06-.82-.792-2.08-1.188-3.78-1.188h-5.62v9.216ZM1729.99 272.8h15.27v2.808h-12.24v8.352h12.02v2.808h-12.02v8.424h12.45V298h-15.48v-25.2ZM1765.61 280.072c0-.816-.17-1.536-.51-2.16a4.255 4.255 0 0 0-1.29-1.548 6.143 6.143 0 0 0-1.91-.936 7.875 7.875 0 0 0-2.27-.324c-.69 0-1.35.096-1.98.288-.62.168-1.19.42-1.69.756-.48.336-.86.756-1.15 1.26-.29.48-.43 1.044-.43 1.692v.216c0 .696.14 1.296.43 1.8.29.48.71.9 1.26 1.26.57.336 1.28.624 2.12.864.84.216 1.83.408 2.95.576 2.64.408 4.59 1.188 5.84 2.34 1.24 1.128 1.87 2.652 1.87 4.572v.432c0 1.08-.19 2.076-.58 2.988a6.05 6.05 0 0 1-1.65 2.304c-.72.648-1.62 1.152-2.7 1.512-1.08.36-2.33.54-3.75.54-1.61 0-3.03-.228-4.28-.684-1.23-.48-2.26-1.128-3.1-1.944a8.737 8.737 0 0 1-1.87-2.916c-.43-1.128-.65-2.352-.65-3.672v-1.08h3.03v.864c0 2.208.6 3.864 1.8 4.968 1.22 1.104 2.91 1.656 5.07 1.656 1.87 0 3.28-.408 4.21-1.224.96-.84 1.44-1.944 1.44-3.312v-.216c0-1.32-.49-2.328-1.47-3.024-.96-.696-2.53-1.2-4.72-1.512-1.27-.168-2.42-.42-3.45-.756-1.01-.36-1.88-.816-2.6-1.368a5.847 5.847 0 0 1-1.65-2.052c-.39-.792-.58-1.728-.58-2.808v-.432c0-.984.21-1.884.61-2.7.41-.816.98-1.524 1.7-2.124.74-.6 1.62-1.056 2.62-1.368 1.04-.336 2.16-.504 3.39-.504 1.41 0 2.67.204 3.78.612 1.13.408 2.07.96 2.84 1.656a6.327 6.327 0 0 1 1.73 2.412c.41.912.61 1.872.61 2.88v1.512h-3.02v-1.296Z"/><circle cx="73" cy="76" r="24" fill="#D2E3FC"/><path fill="#1A73E8" d="M70.983 83.464V65.176h-.648l-2.376 8.64h-4.537v-.432L66.448 62.8h9.287v20.664H82V88H63.855v-4.536h7.128ZM111.628 62.8h8.28c3.12 0 5.4.744 6.84 2.232 1.44 1.488 2.16 3.864 2.16 7.128v6.48c0 3.264-.72 5.64-2.16 7.128-1.44 1.488-3.72 2.232-6.84 2.232h-8.28v-2.844h2.16V65.608h-2.16V62.8Zm7.848 22.392c1.104 0 2.052-.108 2.844-.324.816-.216 1.488-.576 2.016-1.08.528-.528.912-1.224 1.152-2.088.264-.864.396-1.956.396-3.276v-6.048c0-1.32-.132-2.412-.396-3.276-.24-.864-.624-1.548-1.152-2.052-.528-.528-1.2-.9-2.016-1.116-.792-.216-1.74-.324-2.844-.324h-2.664v19.584h2.664Zm21.071-6.048h-.648L132.015 62.8h3.384l6.444 13.752h.432l6.444-13.752h3.384l-7.884 16.344h-.648V88h-3.024v-8.856Zm28.487 7.56h.432V62.8h3.024V88h-6.048l-7.272-23.904h-.432V88h-3.024V62.8h6.048l7.272 23.904Zm22.511-4.968h-10.8L178.909 88h-3.24l7.632-25.2h5.688l7.632 25.2h-3.24l-1.836-6.264Zm-5.616-17.64-4.356 14.832h9.144l-4.356-14.832h-.432Zm12.899-1.296h5.76l3.384 23.904h.432l3.384-23.904h5.76V88h-2.808V64.096h-.432L210.924 88h-5.472l-3.384-23.904h-.432V88h-2.808V62.8Zm23.411 0h15.984v2.808h-6.48v19.584h6.48V88h-15.984v-2.808h6.48V65.608h-6.48V62.8Zm30.179 22.896c1.032 0 1.908-.168 2.628-.504.744-.36 1.344-.828 1.8-1.404a5.77 5.77 0 0 0 1.044-2.016 8.04 8.04 0 0 0 .36-2.412v-.432h3.024v.432c0 1.272-.192 2.472-.576 3.6a8.618 8.618 0 0 1-1.692 2.916c-.744.816-1.668 1.464-2.772 1.944-1.104.456-2.376.684-3.816.684-2.784 0-4.956-.876-6.516-2.628-1.56-1.752-2.34-4.308-2.34-7.668v-5.616c0-3.264.78-5.796 2.34-7.596 1.56-1.8 3.732-2.7 6.516-2.7 1.44 0 2.712.24 3.816.72 1.104.456 2.028 1.104 2.772 1.944.744.816 1.308 1.788 1.692 2.916.384 1.104.576 2.292.576 3.564v.432h-3.024v-.432a8.795 8.795 0 0 0-.396-2.376 5.383 5.383 0 0 0-1.044-2.016 4.636 4.636 0 0 0-1.764-1.404c-.72-.36-1.596-.54-2.628-.54-1.944 0-3.408.708-4.392 2.124-.96 1.416-1.44 3.276-1.44 5.58v5.184c0 2.472.48 4.38 1.44 5.724.984 1.32 2.448 1.98 4.392 1.98Z"/><circle cx="322" cy="76" r="24" fill="#D2E3FC"/><path fill="#1A73E8" d="M330.531 83.464V88h-17.712v-4.968c0-1.32.192-2.448.576-3.384a6.811 6.811 0 0 1 1.692-2.376c.744-.648 1.632-1.176 2.664-1.584 1.032-.432 2.196-.792 3.492-1.08.96-.216 1.74-.456 2.34-.72.624-.288 1.116-.6 1.476-.936.36-.36.6-.744.72-1.152.144-.432.216-.912.216-1.44 0-1.008-.372-1.848-1.116-2.52-.72-.672-1.728-1.008-3.024-1.008-1.368 0-2.46.42-3.276 1.26-.816.816-1.224 1.956-1.224 3.42v1.584h-4.752V71.08c0-1.176.204-2.292.612-3.348a8.541 8.541 0 0 1 1.8-2.808c.792-.816 1.752-1.452 2.88-1.908 1.128-.48 2.4-.72 3.816-.72 1.512 0 2.832.228 3.96.684 1.128.432 2.064 1.008 2.808 1.728a6.588 6.588 0 0 1 1.692 2.52c.384.936.576 1.908.576 2.916v.432c0 2.112-.6 3.864-1.8 5.256-1.176 1.392-3.108 2.4-5.796 3.024-1.128.264-2.064.54-2.808.828-.72.264-1.284.564-1.692.9-.408.336-.696.708-.864 1.116-.144.384-.216.828-.216 1.332v.432h12.96ZM361.132 62.8h3.024v22.392h13.176V88h-16.2V62.8Zm21.935 0h15.984v2.808h-6.48v19.584h6.48V88h-15.984v-2.808h6.48V65.608h-6.48V62.8Zm34.967 23.904h.432V62.8h3.024V88h-6.048l-7.272-23.904h-.432V88h-3.024V62.8h6.048l7.272 23.904Zm9.479-23.904h15.264v2.808h-12.24v8.352h12.024v2.808h-12.024v8.424h12.456V88h-15.48V62.8Zm35.075 18.936h-10.8L449.952 88h-3.24l7.632-25.2h5.688l7.632 25.2h-3.24l-1.836-6.264Zm-5.616-17.64-4.356 14.832h9.144l-4.356-14.832h-.432ZM487.115 88h-3.024v-8.424c0-.624-.144-1.104-.432-1.44-.288-.336-.792-.504-1.512-.504h-7.848V88h-3.024V62.8h9c1.296 0 2.424.192 3.384.576.96.36 1.752.852 2.376 1.476a5.83 5.83 0 0 1 1.44 2.196 6.74 6.74 0 0 1 .504 2.592v1.08c0 .936-.264 1.872-.792 2.808-.504.936-1.296 1.656-2.376 2.16v.432c.72.12 1.284.408 1.692.864.408.456.612 1.104.612 1.944V88Zm-12.816-13.176h5.616c1.704 0 2.964-.36 3.78-1.08.84-.744 1.26-1.824 1.26-3.24v-.648c0-1.272-.42-2.292-1.26-3.06-.816-.792-2.076-1.188-3.78-1.188h-5.616v9.216Zm54.958-4.752c0-.816-.168-1.536-.504-2.16a4.27 4.27 0 0 0-1.296-1.548 6.154 6.154 0 0 0-1.908-.936 7.85 7.85 0 0 0-2.268-.324c-.696 0-1.356.096-1.98.288a5.694 5.694 0 0 0-1.692.756c-.48.336-.864.756-1.152 1.26-.288.48-.432 1.044-.432 1.692v.216c0 .696.144 1.296.432 1.8.288.48.708.9 1.26 1.26.576.336 1.284.624 2.124.864.84.216 1.824.408 2.952.576 2.64.408 4.584 1.188 5.832 2.34 1.248 1.128 1.872 2.652 1.872 4.572v.432c0 1.08-.192 2.076-.576 2.988a6.023 6.023 0 0 1-1.656 2.304c-.72.648-1.62 1.152-2.7 1.512-1.08.36-2.328.54-3.744.54-1.608 0-3.036-.228-4.284-.684-1.224-.48-2.256-1.128-3.096-1.944a8.68 8.68 0 0 1-1.872-2.916c-.432-1.128-.648-2.352-.648-3.672v-1.08h3.024v.864c0 2.208.6 3.864 1.8 4.968 1.224 1.104 2.916 1.656 5.076 1.656 1.872 0 3.276-.408 4.212-1.224.96-.84 1.44-1.944 1.44-3.312v-.216c0-1.32-.492-2.328-1.476-3.024-.96-.696-2.532-1.2-4.716-1.512-1.272-.168-2.424-.42-3.456-.756-1.008-.36-1.872-.816-2.592-1.368a5.91 5.91 0 0 1-1.656-2.052c-.384-.792-.576-1.728-.576-2.808v-.432c0-.984.204-1.884.612-2.7a6.563 6.563 0 0 1 1.692-2.124c.744-.6 1.62-1.056 2.628-1.368 1.032-.336 2.16-.504 3.384-.504 1.416 0 2.676.204 3.78.612 1.128.408 2.076.96 2.844 1.656a6.386 6.386 0 0 1 1.728 2.412c.408.912.612 1.872.612 2.88v1.512h-3.024v-1.296Zm8.471-7.272h15.264v2.808h-12.24v8.352h12.024v2.808h-12.024v8.424h12.456V88h-15.48V62.8ZM575.287 88h-3.024v-8.424c0-.624-.144-1.104-.432-1.44-.288-.336-.792-.504-1.512-.504h-7.848V88h-3.024V62.8h9c1.296 0 2.424.192 3.384.576.96.36 1.752.852 2.376 1.476a5.83 5.83 0 0 1 1.44 2.196 6.74 6.74 0 0 1 .504 2.592v1.08c0 .936-.264 1.872-.792 2.808-.504.936-1.296 1.656-2.376 2.16v.432c.72.12 1.284.408 1.692.864.408.456.612 1.104.612 1.944V88Zm-12.816-13.176h5.616c1.704 0 2.964-.36 3.78-1.08.84-.744 1.26-1.824 1.26-3.24v-.648c0-1.272-.42-2.292-1.26-3.06-.816-.792-2.076-1.188-3.78-1.188h-5.616v9.216ZM581.454 62.8h15.984v2.808h-6.48v19.584h6.48V88h-15.984v-2.808h6.48V65.608h-6.48V62.8Zm22.439 0h15.48v2.808h-12.456v8.352h12.24v2.808h-12.24V88h-3.024V62.8ZM701.567 942.632V953h-3.024v-25.2h9c1.296 0 2.424.192 3.384.576.96.36 1.752.852 2.376 1.476a5.83 5.83 0 0 1 1.44 2.196 6.74 6.74 0 0 1 .504 2.592v1.08c0 .912-.168 1.788-.504 2.628a6.158 6.158 0 0 1-1.44 2.232c-.648.624-1.452 1.128-2.412 1.512-.96.36-2.076.54-3.348.54h-5.976Zm0-2.808h5.616c3.36 0 5.04-1.44 5.04-4.32v-.648c0-1.272-.42-2.292-1.26-3.06-.816-.792-2.076-1.188-3.78-1.188h-5.616v9.216ZM736.426 953h-3.024v-8.424c0-.624-.144-1.104-.432-1.44-.288-.336-.792-.504-1.512-.504h-7.848V953h-3.024v-25.2h9c1.296 0 2.424.192 3.384.576.96.36 1.752.852 2.376 1.476a5.83 5.83 0 0 1 1.44 2.196 6.74 6.74 0 0 1 .504 2.592v1.08c0 .936-.264 1.872-.792 2.808-.504.936-1.296 1.656-2.376 2.16v.432c.72.12 1.284.408 1.692.864.408.456.612 1.104.612 1.944V953Zm-12.816-13.176h5.616c1.704 0 2.964-.36 3.78-1.08.84-.744 1.26-1.824 1.26-3.24v-.648c0-1.272-.42-2.292-1.26-3.06-.816-.792-2.076-1.188-3.78-1.188h-5.616v9.216ZM742.593 927.8h15.984v2.808h-6.48v19.584h6.48V953h-15.984v-2.808h6.48v-19.584h-6.48V927.8ZM763.268 927.8h5.76l3.384 23.904h.432l3.384-23.904h5.76V953h-2.808v-23.904h-.432L775.364 953h-5.472l-3.384-23.904h-.432V953h-2.808v-25.2ZM800.071 946.736h-10.8L787.435 953h-3.24l7.632-25.2h5.688l7.632 25.2h-3.24l-1.836-6.264Zm-5.616-17.64-4.356 14.832h9.144l-4.356-14.832h-.432ZM824.598 953h-3.024v-8.424c0-.624-.144-1.104-.432-1.44-.288-.336-.792-.504-1.512-.504h-7.848V953h-3.024v-25.2h9c1.296 0 2.424.192 3.384.576.96.36 1.752.852 2.376 1.476a5.83 5.83 0 0 1 1.44 2.196 6.74 6.74 0 0 1 .504 2.592v1.08c0 .936-.264 1.872-.792 2.808-.504.936-1.296 1.656-2.376 2.16v.432c.72.12 1.284.408 1.692.864.408.456.612 1.104.612 1.944V953Zm-12.816-13.176h5.616c1.704 0 2.964-.36 3.78-1.08.84-.744 1.26-1.824 1.26-3.24v-.648c0-1.272-.42-2.292-1.26-3.06-.816-.792-2.076-1.188-3.78-1.188h-5.616v9.216ZM837.245 944.144h-.648l-7.884-16.344h3.384l6.444 13.752h.432l6.444-13.752h3.384l-7.884 16.344h-.648V953h-3.024v-8.856ZM873.987 927.8h17.712v2.808h-7.344V953h-3.024v-22.392h-7.344V927.8ZM903.374 944.144h-.648l-7.884-16.344h3.384l6.444 13.752h.432l6.444-13.752h3.384l-7.884 16.344h-.648V953h-3.024v-8.856ZM921.997 942.632V953h-3.024v-25.2h9c1.296 0 2.424.192 3.384.576.96.36 1.752.852 2.376 1.476a5.83 5.83 0 0 1 1.44 2.196 6.74 6.74 0 0 1 .504 2.592v1.08c0 .912-.168 1.788-.504 2.628a6.158 6.158 0 0 1-1.44 2.232c-.648.624-1.452 1.128-2.412 1.512-.96.36-2.076.54-3.348.54h-5.976Zm0-2.808h5.616c3.36 0 5.04-1.44 5.04-4.32v-.648c0-1.272-.42-2.292-1.26-3.06-.816-.792-2.076-1.188-3.78-1.188h-5.616v9.216ZM941.34 927.8h15.264v2.808h-12.24v8.352h12.024v2.808h-12.024v8.424h12.456V953h-15.48v-25.2ZM963.419 927.8h15.48v2.808h-12.456v8.352h12.24v2.808h-12.24V953h-3.024v-25.2ZM998.458 946.736h-10.8L985.822 953h-3.24l7.632-25.2h5.688l7.628 25.2h-3.24l-1.832-6.264Zm-5.616-17.64-4.356 14.832h9.144l-4.356-14.832h-.432ZM1015.24 950.696c1.04 0 1.91-.168 2.63-.504.75-.36 1.35-.828 1.8-1.404.48-.6.83-1.272 1.05-2.016a8.04 8.04 0 0 0 .36-2.412v-.432h3.02v.432c0 1.272-.19 2.472-.58 3.6a8.452 8.452 0 0 1-1.69 2.916c-.74.816-1.67 1.464-2.77 1.944-1.1.456-2.38.684-3.82.684-2.78 0-4.95-.876-6.51-2.628-1.56-1.752-2.34-4.308-2.34-7.668v-5.616c0-3.264.78-5.796 2.34-7.596 1.56-1.8 3.73-2.7 6.51-2.7 1.44 0 2.72.24 3.82.72 1.1.456 2.03 1.104 2.77 1.944.75.816 1.31 1.788 1.69 2.916.39 1.104.58 2.292.58 3.564v.432h-3.02v-.432a9.038 9.038 0 0 0-.4-2.376c-.22-.768-.56-1.44-1.04-2.016a4.686 4.686 0 0 0-1.77-1.404c-.72-.36-1.59-.54-2.63-.54-1.94 0-3.4.708-4.39 2.124-.96 1.416-1.44 3.276-1.44 5.58v5.184c0 2.472.48 4.38 1.44 5.724.99 1.32 2.45 1.98 4.39 1.98ZM1029.51 927.8h15.27v2.808h-12.24v8.352h12.02v2.808h-12.02v8.424h12.45V953h-15.48v-25.2ZM1056.67 950.984c0-.696.24-1.284.72-1.764.5-.504 1.1-.756 1.8-.756.69 0 1.28.252 1.76.756.5.48.76 1.068.76 1.764s-.26 1.296-.76 1.8a2.4 2.4 0 0 1-1.76.72c-.7 0-1.3-.24-1.8-.72a2.52 2.52 0 0 1-.72-1.8Zm0-13.824c0-.696.24-1.284.72-1.764.5-.504 1.1-.756 1.8-.756.69 0 1.28.252 1.76.756.5.48.76 1.068.76 1.764s-.26 1.296-.76 1.8a2.4 2.4 0 0 1-1.76.72c-.7 0-1.3-.24-1.8-.72a2.52 2.52 0 0 1-.72-1.8ZM1094.31 950.192h2.16v-19.584h-2.16V927.8h10.19c1.2 0 2.25.168 3.16.504.94.336 1.72.792 2.34 1.368a5.231 5.231 0 0 1 1.44 2.088c.34.792.51 1.656.51 2.592v.432c0 .696-.11 1.332-.33 1.908a4.99 4.99 0 0 1-.9 1.548 5.99 5.99 0 0 1-1.36 1.188 6.53 6.53 0 0 1-1.66.72v.432c1.2.336 2.21.984 3.02 1.944.82.936 1.23 2.088 1.23 3.456v.432c0 .936-.17 1.812-.51 2.628a5.587 5.587 0 0 1-1.44 2.088c-.62.576-1.4 1.032-2.34 1.368-.91.336-1.96.504-3.16.504h-10.19v-2.808Zm5.18 0h4.79c1.42 0 2.57-.348 3.46-1.044.88-.72 1.33-1.704 1.33-2.952v-.216c0-1.296-.42-2.316-1.26-3.06-.84-.768-1.98-1.152-3.42-1.152h-4.9v8.424Zm0-11.232h4.9c1.44 0 2.58-.372 3.42-1.116.84-.744 1.26-1.764 1.26-3.06v-.216c0-1.224-.45-2.184-1.33-2.88-.89-.72-2.04-1.08-3.46-1.08h-4.79v8.352ZM1117.32 927.8h15.99v2.808h-6.48v19.584h6.48V953h-15.99v-2.808h6.48v-19.584h-6.48V927.8ZM1138.5 927.8h17.71v2.808h-7.34V953h-3.02v-22.392h-7.35V927.8ZM1160.55 927.8h17.71v2.808h-7.35V953h-3.02v-22.392h-7.34V927.8ZM1183.81 927.8h15.27v2.808h-12.24v8.352h12.02v2.808h-12.02v8.424h12.45V953h-15.48v-25.2ZM1221.37 953h-3.02v-8.424c0-.624-.15-1.104-.43-1.44-.29-.336-.8-.504-1.52-.504h-7.84V953h-3.03v-25.2h9c1.3 0 2.43.192 3.39.576.96.36 1.75.852 2.37 1.476a5.783 5.783 0 0 1 1.44 2.196c.34.816.51 1.68.51 2.592v1.08c0 .936-.27 1.872-.8 2.808-.5.936-1.29 1.656-2.37 2.16v.432c.72.12 1.28.408 1.69.864.41.456.61 1.104.61 1.944V953Zm-12.81-13.176h5.61c1.71 0 2.97-.36 3.78-1.08.84-.744 1.26-1.824 1.26-3.24v-.648c0-1.272-.42-2.292-1.26-3.06-.81-.792-2.07-1.188-3.78-1.188h-5.61v9.216ZM813.576 1001h-3.024v-8.424c0-.624-.144-1.104-.432-1.44-.288-.336-.792-.504-1.512-.504h-7.848V1001h-3.024v-25.2h9c1.296 0 2.424.192 3.384.576.96.36 1.752.852 2.376 1.476a5.83 5.83 0 0 1 1.44 2.196 6.74 6.74 0 0 1 .504 2.592v1.08c0 .936-.264 1.872-.792 2.808-.504.936-1.296 1.656-2.376 2.16v.432c.72.12 1.284.408 1.692.864.408.456.612 1.104.612 1.944V1001Zm-12.816-13.176h5.616c1.704 0 2.964-.36 3.78-1.08.84-.744 1.26-1.824 1.26-3.24v-.648c0-1.272-.42-2.292-1.26-3.06-.816-.792-2.076-1.188-3.78-1.188h-5.616v9.216ZM818.879 985.592c0-3.264.78-5.796 2.34-7.596 1.56-1.8 3.732-2.7 6.516-2.7s4.956.9 6.516 2.7c1.56 1.8 2.34 4.332 2.34 7.596v5.616c0 3.36-.78 5.916-2.34 7.668-1.56 1.754-3.732 2.624-6.516 2.624s-4.956-.87-6.516-2.624c-1.56-1.752-2.34-4.308-2.34-7.668v-5.616Zm8.856 13.104c1.944 0 3.396-.66 4.356-1.98.984-1.344 1.476-3.252 1.476-5.724v-5.184c0-2.304-.492-4.164-1.476-5.58-.96-1.416-2.412-2.124-4.356-2.124s-3.408.708-4.392 2.124c-.96 1.416-1.44 3.276-1.44 5.58v5.184c0 2.472.48 4.38 1.44 5.724.984 1.32 2.448 1.98 4.392 1.98ZM841.894 975.8h3.024v22.392h13.176V1001h-16.2v-25.2ZM864.189 975.8h15.264v2.808h-12.24v8.352h12.024v2.808h-12.024v8.424h12.456V1001h-15.48v-25.2ZM891.344 998.984c0-.696.24-1.284.72-1.764.504-.504 1.104-.756 1.8-.756s1.284.252 1.764.756c.504.48.756 1.068.756 1.764s-.252 1.296-.756 1.796c-.48.48-1.068.72-1.764.72a2.52 2.52 0 0 1-1.8-.72c-.48-.5-.72-1.1-.72-1.796Zm0-13.824c0-.696.24-1.284.72-1.764.504-.504 1.104-.756 1.8-.756s1.284.252 1.764.756c.504.48.756 1.068.756 1.764s-.252 1.296-.756 1.8c-.48.48-1.068.72-1.764.72a2.52 2.52 0 0 1-1.8-.72 2.52 2.52 0 0 1-.72-1.8ZM928.986 998.192h2.16v-19.584h-2.16V975.8h10.188c1.2 0 2.256.168 3.168.504.936.336 1.716.792 2.34 1.368a5.272 5.272 0 0 1 1.44 2.088c.336.792.504 1.656.504 2.592v.432c0 .696-.108 1.332-.324 1.908a5.238 5.238 0 0 1-.9 1.548c-.384.456-.84.852-1.368 1.188a6.412 6.412 0 0 1-1.656.72v.432c1.2.336 2.208.984 3.024 1.944.816.936 1.224 2.088 1.224 3.456v.432c0 .936-.168 1.812-.504 2.628a5.633 5.633 0 0 1-1.44 2.088c-.624.576-1.404 1.032-2.34 1.372-.912.33-1.968.5-3.168.5h-10.188v-2.808Zm5.184 0h4.788c1.416 0 2.568-.348 3.456-1.044.888-.72 1.332-1.704 1.332-2.952v-.216c0-1.296-.42-2.316-1.26-3.06-.84-.768-1.98-1.152-3.42-1.152h-4.896v8.424Zm0-11.232h4.896c1.44 0 2.58-.372 3.42-1.116.84-.744 1.26-1.764 1.26-3.06v-.216c0-1.224-.444-2.184-1.332-2.88-.888-.72-2.04-1.08-3.456-1.08h-4.788v8.352ZM951.137 985.592c0-3.264.78-5.796 2.34-7.596 1.56-1.8 3.732-2.7 6.516-2.7s4.956.9 6.516 2.7c1.56 1.8 2.34 4.332 2.34 7.596v5.616c0 3.36-.78 5.916-2.34 7.668-1.56 1.754-3.732 2.624-6.516 2.624s-4.956-.87-6.516-2.624c-1.56-1.752-2.34-4.308-2.34-7.668v-5.616Zm8.856 13.104c1.944 0 3.396-.66 4.356-1.98.984-1.344 1.476-3.252 1.476-5.724v-5.184c0-2.304-.492-4.164-1.476-5.58-.96-1.416-2.412-2.124-4.356-2.124s-3.408.708-4.392 2.124c-.96 1.416-1.44 3.276-1.44 5.58v5.184c0 2.472.48 4.38 1.44 5.724.984 1.32 2.448 1.98 4.392 1.98ZM973.648 975.8h8.28c3.12 0 5.4.744 6.84 2.232 1.44 1.488 2.16 3.864 2.16 7.128v6.48c0 3.264-.72 5.64-2.16 7.128-1.44 1.492-3.72 2.232-6.84 2.232h-8.28v-2.844h2.16v-19.548h-2.16V975.8Zm7.848 22.392c1.104 0 2.052-.108 2.844-.324.816-.216 1.488-.576 2.016-1.08.528-.528.912-1.224 1.152-2.088.264-.864.396-1.956.396-3.276v-6.048c0-1.32-.132-2.412-.396-3.276-.24-.864-.624-1.548-1.152-2.052-.528-.528-1.2-.9-2.016-1.116-.792-.216-1.74-.324-2.844-.324h-2.664v19.584h2.664ZM1002.57 992.144h-.65l-7.885-16.344h3.384l6.441 13.752h.44l6.44-13.752h3.38l-7.88 16.344h-.65V1001h-3.02v-8.856ZM1039.31 975.8h17.71v2.808h-7.34V1001h-3.03v-22.392h-7.34V975.8ZM1062.58 975.8h15.26v2.808h-12.24v8.352h12.02v2.808h-12.02v8.424h12.46V1001h-15.48v-25.2ZM1086.27 975.8l5.66 11.16h.64l5.66-11.16h3.31l-6.3 12.348v.432l6.3 12.42h-3.31l-5.66-11.232h-.64l-5.66 11.232h-3.31l6.3-12.42v-.432l-6.3-12.348h3.31ZM1105.44 975.8h17.71v2.808h-7.34V1001h-3.03v-22.392h-7.34V975.8Z"/></svg>