<svg xmlns="http://www.w3.org/2000/svg" width="1920" height="1080" fill="none"><path fill="#D2E3FC" d="m1031.17 276.14 11.76 1.47V381h-10.29l-1.12-9.73c-2.75 3.92-5.93 6.79-9.52 8.61-3.55 1.82-7.35 2.73-11.41 2.73-6.39 0-11.666-1.61-15.82-4.83-4.153-3.22-7.233-7.7-9.24-13.44-2.006-5.787-3.01-12.483-3.01-20.09 0-7.373 1.144-13.953 3.43-19.74 2.287-5.833 5.577-10.407 9.87-13.72 4.34-3.36 9.54-5.04 15.61-5.04 4.25 0 7.98.747 11.2 2.24 3.22 1.447 6.07 3.593 8.54 6.44v-38.29Zm-16.66 39.06c-6.16 0-10.9 2.403-14.21 7.21-3.313 4.807-4.97 12.087-4.97 21.84 0 6.347.677 11.667 2.03 15.96 1.354 4.293 3.34 7.513 5.95 9.66 2.66 2.147 5.9 3.22 9.73 3.22 4.2 0 7.77-1.19 10.71-3.57 2.99-2.38 5.46-5.063 7.42-8.05v-36.82c-2.01-2.987-4.43-5.297-7.28-6.93-2.85-1.68-5.97-2.52-9.38-2.52ZM1132.34 307.29l-25.9 74.2c-1.73 4.993-3.92 9.567-6.58 13.72-2.62 4.153-6.05 7.583-10.29 10.29-4.2 2.753-9.55 4.457-16.03 5.11l-1.82-9.38c5.08-.84 9.1-2.123 12.04-3.85 2.94-1.727 5.25-3.943 6.93-6.65 1.72-2.707 3.24-5.95 4.55-9.73h-3.92l-25.76-73.71h12.6l21.14 64.75 20.86-64.75h12.18ZM1154.96 381v-73.71h10.01l.91 10.22c2.99-3.78 6.72-6.673 11.2-8.68 4.53-2.053 8.91-3.08 13.16-3.08 7.23 0 12.48 1.913 15.75 5.74 3.31 3.827 4.97 9.147 4.97 15.96V381h-11.76v-44.87c0-5.04-.28-9.1-.84-12.18-.56-3.127-1.73-5.39-3.5-6.79-1.77-1.447-4.53-2.17-8.26-2.17-2.89 0-5.62.63-8.19 1.89a27.855 27.855 0 0 0-6.79 4.76c-1.96 1.867-3.59 3.757-4.9 5.67V381h-11.76ZM1291.69 364.9c0 2.94.49 5.087 1.47 6.44.98 1.353 2.49 2.357 4.55 3.01l-2.87 8.26c-3.18-.42-5.95-1.423-8.33-3.01-2.38-1.633-4.11-4.083-5.18-7.35-2.66 3.407-5.98 5.997-9.94 7.77-3.97 1.727-8.36 2.59-13.16 2.59-7.38 0-13.19-2.077-17.43-6.23-4.25-4.153-6.37-9.66-6.37-16.52 0-7.607 2.96-13.44 8.89-17.5 5.92-4.06 14.49-6.09 25.69-6.09h10.85v-6.16c0-5.32-1.57-9.077-4.69-11.27-3.08-2.24-7.38-3.36-12.88-3.36-2.43 0-5.28.303-8.54.91-3.27.56-6.82 1.517-10.64 2.87l-3.08-8.89c4.52-1.68 8.77-2.87 12.74-3.57 3.96-.7 7.74-1.05 11.34-1.05 9.19 0 16.07 2.147 20.65 6.44 4.62 4.247 6.93 10.033 6.93 17.36v35.35Zm-30.45 8.75c3.64 0 7.11-.91 10.43-2.73 3.31-1.867 6.04-4.433 8.19-7.7v-18.97h-10.64c-8.12 0-13.86 1.4-17.22 4.2-3.32 2.8-4.97 6.557-4.97 11.27 0 4.573 1.16 8.05 3.5 10.43 2.38 2.333 5.95 3.5 10.71 3.5ZM1371.43 305.75c2.38 0 4.64.513 6.79 1.54 2.19 1.027 3.99 3.01 5.39 5.95 1.4 2.94 2.1 7.233 2.1 12.88V381h-10.92v-52.99c0-4.62-.28-7.957-.84-10.01-.56-2.053-2.17-3.08-4.83-3.08-2.19 0-4.39.7-6.58 2.1-2.15 1.353-4.25 3.593-6.3 6.72V381h-10.99v-52.99c0-4.62-.28-7.957-.84-10.01-.56-2.053-2.17-3.08-4.83-3.08-2.29 0-4.5.7-6.65 2.1-2.1 1.353-4.18 3.593-6.23 6.72V381h-10.85v-73.71h9.24l.7 8.54c2.01-2.847 4.25-5.227 6.72-7.14 2.52-1.96 5.62-2.94 9.31-2.94 2.8 0 5.44.677 7.91 2.03 2.47 1.307 4.29 3.873 5.46 7.7 2.01-2.893 4.27-5.227 6.79-7 2.52-1.82 5.67-2.73 9.45-2.73ZM1444.11 307.29v64.4h20.79V381h-55.3v-9.31h22.75V316.6h-22.05v-9.31h33.81Zm-9.38-34.51c2.61 0 4.69.793 6.23 2.38 1.58 1.587 2.38 3.523 2.38 5.81 0 2.38-.8 4.387-2.38 6.02-1.54 1.587-3.62 2.38-6.23 2.38-2.48 0-4.51-.793-6.09-2.38-1.59-1.633-2.38-3.64-2.38-6.02 0-2.287.79-4.223 2.38-5.81 1.58-1.587 3.61-2.38 6.09-2.38ZM1524.06 372.46c3.69 0 7.12-.607 10.29-1.82 3.22-1.213 6.19-2.753 8.89-4.62l5.74 7.7c-3.22 2.753-7.09 4.923-11.62 6.51-4.52 1.587-8.96 2.38-13.3 2.38-7.32 0-13.58-1.563-18.76-4.69-5.13-3.173-9.05-7.607-11.76-13.3-2.7-5.74-4.06-12.46-4.06-20.16 0-7.373 1.36-13.977 4.06-19.81 2.76-5.88 6.7-10.5 11.83-13.86 5.18-3.36 11.46-5.04 18.83-5.04 4.72 0 9.13.723 13.23 2.17 4.16 1.4 7.96 3.523 11.41 6.37l-5.74 7.84c-3.12-2.193-6.27-3.827-9.45-4.9a28.196 28.196 0 0 0-9.59-1.68c-6.34 0-11.57 2.38-15.68 7.14-4.1 4.76-6.16 12.017-6.16 21.77 0 6.533.94 11.877 2.8 16.03 1.92 4.107 4.51 7.14 7.77 9.1 3.32 1.913 7.07 2.87 11.27 2.87ZM1015.77 461.61v85.19c0 3.64 1.12 6.23 3.36 7.77 2.29 1.493 5.23 2.24 8.82 2.24 2.24 0 4.36-.233 6.37-.7a42.72 42.72 0 0 0 6.02-1.89l3.15 8.61c-2.01.98-4.5 1.843-7.49 2.59-2.94.793-6.28 1.19-10.01 1.19-6.53 0-11.83-1.797-15.89-5.39-4.06-3.64-6.09-8.657-6.09-15.05v-75.25H981.4v-9.31h34.37ZM1108.33 491.29v64.4h20.79V565h-55.3v-9.31h22.75V500.6h-22.05v-9.31h33.81Zm-9.38-34.51c2.61 0 4.69.793 6.23 2.38 1.58 1.587 2.38 3.523 2.38 5.81 0 2.38-.8 4.387-2.38 6.02-1.54 1.587-3.62 2.38-6.23 2.38-2.48 0-4.51-.793-6.09-2.38-1.59-1.633-2.38-3.64-2.38-6.02 0-2.287.79-4.223 2.38-5.81 1.58-1.587 3.61-2.38 6.09-2.38ZM1154.96 565v-73.71h10.01l.91 10.22c2.99-3.78 6.72-6.673 11.2-8.68 4.53-2.053 8.91-3.08 13.16-3.08 7.23 0 12.48 1.913 15.75 5.74 3.31 3.827 4.97 9.147 4.97 15.96V565h-11.76v-44.87c0-5.04-.28-9.1-.84-12.18-.56-3.127-1.73-5.39-3.5-6.79-1.77-1.447-4.53-2.17-8.26-2.17-2.89 0-5.62.63-8.19 1.89a27.855 27.855 0 0 0-6.79 4.76c-1.96 1.867-3.59 3.757-4.9 5.67V565h-11.76ZM1248.15 532.31c.23 5.693 1.33 10.36 3.29 14 1.96 3.593 4.55 6.253 7.77 7.98 3.22 1.68 6.72 2.52 10.5 2.52 3.78 0 7.18-.56 10.22-1.68 3.08-1.12 6.23-2.777 9.45-4.97l5.53 7.77c-3.46 2.707-7.4 4.83-11.83 6.37a40.516 40.516 0 0 1-13.51 2.31c-7.14 0-13.23-1.61-18.27-4.83-5.04-3.22-8.89-7.7-11.55-13.44-2.62-5.787-3.92-12.483-3.92-20.09 0-7.467 1.33-14.093 3.99-19.88 2.66-5.787 6.39-10.337 11.2-13.65 4.8-3.313 10.47-4.97 17.01-4.97 6.2 0 11.55 1.47 16.03 4.41 4.48 2.893 7.91 7.047 10.29 12.46 2.42 5.367 3.64 11.783 3.64 19.25 0 1.26-.03 2.45-.07 3.57-.05 1.073-.12 2.03-.21 2.87h-49.56Zm20.02-32.9c-5.46 0-10.04 1.937-13.72 5.81-3.64 3.873-5.72 9.87-6.23 17.99h38.43c-.14-7.887-1.87-13.813-5.18-17.78-3.32-4.013-7.75-6.02-13.3-6.02ZM1375.63 548.9c0 2.94.49 5.087 1.47 6.44.98 1.353 2.5 2.357 4.55 3.01l-2.87 8.26c-3.17-.42-5.95-1.423-8.33-3.01-2.38-1.633-4.11-4.083-5.18-7.35-2.66 3.407-5.97 5.997-9.94 7.77-3.97 1.727-8.35 2.59-13.16 2.59-7.37 0-13.18-2.077-17.43-6.23-4.25-4.153-6.37-9.66-6.37-16.52 0-7.607 2.96-13.44 8.89-17.5 5.93-4.06 14.49-6.09 25.69-6.09h10.85v-6.16c0-5.32-1.56-9.077-4.69-11.27-3.08-2.24-7.37-3.36-12.88-3.36-2.43 0-5.27.303-8.54.91-3.27.56-6.81 1.517-10.64 2.87l-3.08-8.89c4.53-1.68 8.77-2.87 12.74-3.57 3.97-.7 7.75-1.05 11.34-1.05 9.19 0 16.08 2.147 20.65 6.44 4.62 4.247 6.93 10.033 6.93 17.36v35.35Zm-30.45 8.75c3.64 0 7.12-.91 10.43-2.73 3.31-1.867 6.04-4.433 8.19-7.7v-18.97h-10.64c-8.12 0-13.86 1.4-17.22 4.2-3.31 2.8-4.97 6.557-4.97 11.27 0 4.573 1.17 8.05 3.5 10.43 2.38 2.333 5.95 3.5 10.71 3.5ZM1407.5 565v-9.03h11.48v-55.65h-11.48v-9.03h20.44l2.17 17.43c2.84-6.067 6.3-10.757 10.36-14.07 4.06-3.313 9.42-4.97 16.1-4.97 2.05 0 3.87.163 5.46.49 1.63.28 3.29.653 4.97 1.12l-3.43 10.5c-1.54-.42-2.94-.723-4.2-.91-1.26-.233-2.71-.35-4.34-.35-5.65 0-10.5 2.007-14.56 6.02-4.06 4.013-7.31 10.08-9.73 18.2v31.22h14.98V565h-38.22Zm48.16-48.79v-16.03l1.19-8.89H1467l-1.68 24.92h-9.66ZM1035.65 673.75c2.38 0 4.64.513 6.79 1.54 2.19 1.027 3.99 3.01 5.39 5.95 1.4 2.94 2.1 7.233 2.1 12.88V749h-10.92v-52.99c0-4.62-.28-7.957-.84-10.01-.56-2.053-2.17-3.08-4.83-3.08-2.19 0-4.39.7-6.58 2.1-2.15 1.353-4.25 3.593-6.3 6.72V749h-10.99v-52.99c0-4.62-.28-7.957-.84-10.01-.56-2.053-2.17-3.08-4.83-3.08-2.29 0-4.503.7-6.65 2.1-2.1 1.353-4.176 3.593-6.23 6.72V749h-10.85v-73.71h9.24l.7 8.54c2.007-2.847 4.247-5.227 6.72-7.14 2.52-1.96 5.62-2.94 9.31-2.94 2.8 0 5.44.677 7.91 2.03 2.47 1.307 4.29 3.873 5.46 7.7 2.01-2.893 4.27-5.227 6.79-7 2.52-1.82 5.67-2.73 9.45-2.73ZM1099.09 673.75c6.95 0 12.76 1.587 17.43 4.76 4.71 3.127 8.23 7.56 10.57 13.3 2.38 5.74 3.57 12.507 3.57 20.3 0 7.513-1.22 14.163-3.64 19.95-2.43 5.787-6 10.337-10.71 13.65-4.67 3.267-10.46 4.9-17.36 4.9-6.91 0-12.72-1.587-17.43-4.76-4.72-3.173-8.29-7.63-10.71-13.37-2.38-5.787-3.57-12.53-3.57-20.23 0-7.607 1.21-14.303 3.64-20.09 2.42-5.787 5.99-10.29 10.71-13.51 4.76-3.267 10.59-4.9 17.5-4.9Zm0 9.59c-6.35 0-11.16 2.357-14.42 7.07-3.22 4.667-4.83 11.947-4.83 21.84 0 9.707 1.58 16.917 4.76 21.63 3.22 4.713 8 7.07 14.35 7.07 6.34 0 11.1-2.357 14.28-7.07 3.22-4.713 4.83-11.97 4.83-21.77 0-9.8-1.59-17.033-4.76-21.7-3.18-4.713-7.91-7.07-14.21-7.07ZM1154.96 749v-73.71h10.01l.91 10.22c2.99-3.78 6.72-6.673 11.2-8.68 4.53-2.053 8.91-3.08 13.16-3.08 7.23 0 12.48 1.913 15.75 5.74 3.31 3.827 4.97 9.147 4.97 15.96V749h-11.76v-44.87c0-5.04-.28-9.1-.84-12.18-.56-3.127-1.73-5.39-3.5-6.79-1.77-1.447-4.53-2.17-8.26-2.17-2.89 0-5.62.63-8.19 1.89a27.855 27.855 0 0 0-6.79 4.76c-1.96 1.867-3.59 3.757-4.9 5.67V749h-11.76ZM1266.98 673.75c6.95 0 12.76 1.587 17.43 4.76 4.71 3.127 8.23 7.56 10.57 13.3 2.38 5.74 3.57 12.507 3.57 20.3 0 7.513-1.22 14.163-3.64 19.95-2.43 5.787-6 10.337-10.71 13.65-4.67 3.267-10.46 4.9-17.36 4.9-6.91 0-12.72-1.587-17.43-4.76-4.72-3.173-8.29-7.63-10.71-13.37-2.38-5.787-3.57-12.53-3.57-20.23 0-7.607 1.21-14.303 3.64-20.09 2.42-5.787 5.99-10.29 10.71-13.51 4.76-3.267 10.59-4.9 17.5-4.9Zm0 9.59c-6.35 0-11.16 2.357-14.42 7.07-3.22 4.667-4.83 11.947-4.83 21.84 0 9.707 1.58 16.917 4.76 21.63 3.22 4.713 8 7.07 14.35 7.07 6.34 0 11.1-2.357 14.28-7.07 3.22-4.713 4.83-11.97 4.83-21.77 0-9.8-1.59-17.033-4.76-21.7-3.18-4.713-7.91-7.07-14.21-7.07ZM1347.91 740.88c5.65 0 10.1-1.05 13.37-3.15 3.31-2.147 4.97-4.993 4.97-8.54 0-2.24-.42-4.177-1.26-5.81-.79-1.633-2.45-3.103-4.97-4.41-2.52-1.307-6.39-2.613-11.62-3.92-5.09-1.26-9.52-2.707-13.3-4.34-3.73-1.68-6.65-3.85-8.75-6.51-2.05-2.66-3.08-6.113-3.08-10.36 0-4.153 1.17-7.723 3.5-10.71 2.38-3.033 5.67-5.343 9.87-6.93 4.2-1.633 9.08-2.45 14.63-2.45 5.93 0 11.08.793 15.47 2.38 4.43 1.54 8.19 3.453 11.27 5.74l-5.18 7.98c-2.8-1.913-5.88-3.477-9.24-4.69-3.36-1.26-7.42-1.89-12.18-1.89-5.79 0-9.89.91-12.32 2.73-2.43 1.773-3.64 4.083-3.64 6.93 0 2.147.58 3.943 1.75 5.39 1.21 1.4 3.24 2.683 6.09 3.85 2.85 1.12 6.77 2.357 11.76 3.71 4.81 1.26 8.98 2.777 12.53 4.55 3.59 1.773 6.39 4.107 8.4 7 2.01 2.893 3.01 6.627 3.01 11.2 0 5.227-1.49 9.473-4.48 12.74-2.99 3.22-6.86 5.577-11.62 7.07-4.71 1.447-9.71 2.17-14.98 2.17-6.67 0-12.37-.957-17.08-2.87-4.67-1.96-8.59-4.317-11.76-7.07l6.72-7.77c2.89 2.38 6.21 4.317 9.94 5.81 3.78 1.447 7.84 2.17 12.18 2.17ZM1439.77 673.75c6.53 0 11.73 1.587 15.61 4.76 3.92 3.173 6.74 7.653 8.47 13.44 1.72 5.74 2.59 12.46 2.59 20.16 0 7.42-1.05 14.047-3.15 19.88-2.06 5.787-5.18 10.337-9.38 13.65-4.2 3.313-9.5 4.97-15.89 4.97-8.08 0-14.56-2.847-19.46-8.54v35.14l-11.76 1.47V675.29h10.01l.98 10.29c2.7-3.78 5.92-6.697 9.66-8.75 3.78-2.053 7.88-3.08 12.32-3.08Zm-2.8 9.45c-4.06 0-7.66 1.237-10.78 3.71-3.08 2.427-5.63 5.133-7.63 8.12v36.54c1.91 2.847 4.31 5.11 7.21 6.79 2.94 1.633 6.16 2.45 9.66 2.45 6.11 0 10.71-2.333 13.79-7 3.08-4.667 4.62-11.923 4.62-21.77 0-6.44-.61-11.783-1.82-16.03-1.22-4.293-3.06-7.49-5.53-9.59-2.48-2.147-5.65-3.22-9.52-3.22ZM1543.52 732.9c0 2.94.49 5.087 1.47 6.44.98 1.353 2.5 2.357 4.55 3.01l-2.87 8.26c-3.17-.42-5.95-1.423-8.33-3.01-2.38-1.633-4.1-4.083-5.18-7.35-2.66 3.407-5.97 5.997-9.94 7.77-3.96 1.727-8.35 2.59-13.16 2.59-7.37 0-13.18-2.077-17.43-6.23-4.24-4.153-6.37-9.66-6.37-16.52 0-7.607 2.97-13.44 8.89-17.5 5.93-4.06 14.49-6.09 25.69-6.09h10.85v-6.16c0-5.32-1.56-9.077-4.69-11.27-3.08-2.24-7.37-3.36-12.88-3.36-2.42 0-5.27.303-8.54.91-3.26.56-6.81 1.517-10.64 2.87l-3.08-8.89c4.53-1.68 8.78-2.87 12.74-3.57 3.97-.7 7.75-1.05 11.34-1.05 9.2 0 16.08 2.147 20.65 6.44 4.62 4.247 6.93 10.033 6.93 17.36v35.35Zm-30.45 8.75c3.64 0 7.12-.91 10.43-2.73 3.32-1.867 6.05-4.433 8.19-7.7v-18.97h-10.64c-8.12 0-13.86 1.4-17.22 4.2-3.31 2.8-4.97 6.557-4.97 11.27 0 4.573 1.17 8.05 3.5 10.43 2.38 2.333 5.95 3.5 10.71 3.5ZM1608.01 740.46c3.68 0 7.11-.607 10.29-1.82 3.22-1.213 6.18-2.753 8.89-4.62l5.74 7.7c-3.22 2.753-7.1 4.923-11.62 6.51-4.53 1.587-8.96 2.38-13.3 2.38-7.33 0-13.58-1.563-18.76-4.69-5.14-3.173-9.06-7.607-11.76-13.3-2.71-5.74-4.06-12.46-4.06-20.16 0-7.373 1.35-13.977 4.06-19.81 2.75-5.88 6.69-10.5 11.83-13.86 5.18-3.36 11.45-5.04 18.83-5.04 4.71 0 9.12.723 13.23 2.17 4.15 1.4 7.95 3.523 11.41 6.37l-5.74 7.84c-3.13-2.193-6.28-3.827-9.45-4.9a28.28 28.28 0 0 0-9.59-1.68c-6.35 0-11.58 2.38-15.68 7.14-4.11 4.76-6.16 12.017-6.16 21.77 0 6.533.93 11.877 2.8 16.03 1.91 4.107 4.5 7.14 7.77 9.1 3.31 1.913 7.07 2.87 11.27 2.87ZM1667.87 716.31c.24 5.693 1.33 10.36 3.29 14 1.96 3.593 4.55 6.253 7.77 7.98 3.22 1.68 6.72 2.52 10.5 2.52 3.78 0 7.19-.56 10.22-1.68 3.08-1.12 6.23-2.777 9.45-4.97l5.53 7.77c-3.45 2.707-7.39 4.83-11.83 6.37a40.473 40.473 0 0 1-13.51 2.31c-7.14 0-13.23-1.61-18.27-4.83-5.04-3.22-8.89-7.7-11.55-13.44-2.61-5.787-3.92-12.483-3.92-20.09 0-7.467 1.33-14.093 3.99-19.88 2.66-5.787 6.4-10.337 11.2-13.65 4.81-3.313 10.48-4.97 17.01-4.97 6.21 0 11.55 1.47 16.03 4.41 4.48 2.893 7.91 7.047 10.29 12.46 2.43 5.367 3.64 11.783 3.64 19.25 0 1.26-.02 2.45-.07 3.57a35.81 35.81 0 0 1-.21 2.87h-49.56Zm20.02-32.9c-5.46 0-10.03 1.937-13.72 5.81-3.64 3.873-5.71 9.87-6.23 17.99h38.43c-.14-7.887-1.86-13.813-5.18-17.78-3.31-4.013-7.74-6.02-13.3-6.02Z"/><path fill="#1A73E8" d="M56.083 77.632V88h-3.024V62.8h9c1.296 0 2.424.192 3.384.576.96.36 1.752.852 2.376 1.476a5.83 5.83 0 0 1 1.44 2.196 6.74 6.74 0 0 1 .504 2.592v1.08c0 .912-.168 1.788-.504 2.628a6.158 6.158 0 0 1-1.44 2.232c-.648.624-1.452 1.128-2.412 1.512-.96.36-2.076.54-3.348.54h-5.976Zm0-2.808h5.616c3.36 0 5.04-1.44 5.04-4.32v-.648c0-1.272-.42-2.292-1.26-3.06-.816-.792-2.076-1.188-3.78-1.188h-5.616v9.216ZM90.942 88h-3.024v-8.424c0-.624-.144-1.104-.432-1.44-.288-.336-.792-.504-1.512-.504h-7.848V88h-3.024V62.8h9c1.296 0 2.424.192 3.384.576.96.36 1.752.852 2.376 1.476a5.83 5.83 0 0 1 1.44 2.196 6.74 6.74 0 0 1 .504 2.592v1.08c0 .936-.264 1.872-.792 2.808-.504.936-1.296 1.656-2.376 2.16v.432c.72.12 1.284.408 1.692.864.408.456.612 1.104.612 1.944V88ZM78.126 74.824h5.616c1.704 0 2.964-.36 3.78-1.08.84-.744 1.26-1.824 1.26-3.24v-.648c0-1.272-.42-2.292-1.26-3.06-.816-.792-2.076-1.188-3.78-1.188h-5.616v9.216ZM97.109 62.8h15.984v2.808h-6.48v19.584h6.48V88H97.109v-2.808h6.48V65.608h-6.48V62.8ZM117.784 62.8h5.76l3.384 23.904h.432l3.383-23.904h5.761V88h-2.808V64.096h-.432L129.88 88h-5.472l-3.384-23.904h-.433V88h-2.807V62.8ZM154.586 81.736h-10.8L141.95 88h-3.24l7.632-25.2h5.688l7.632 25.2h-3.24l-1.836-6.264Zm-5.616-17.64-4.356 14.832h9.144l-4.356-14.832h-.432ZM179.113 88h-3.024v-8.424c0-.624-.144-1.104-.432-1.44-.288-.336-.792-.504-1.512-.504h-7.848V88h-3.024V62.8h9c1.296 0 2.424.192 3.384.576.96.36 1.752.852 2.376 1.476a5.83 5.83 0 0 1 1.44 2.196 6.74 6.74 0 0 1 .504 2.592v1.08c0 .936-.264 1.872-.792 2.808-.504.936-1.296 1.656-2.376 2.16v.432c.72.12 1.284.408 1.692.864.408.456.612 1.104.612 1.944V88Zm-12.816-13.176h5.616c1.704 0 2.964-.36 3.78-1.08.84-.744 1.26-1.824 1.26-3.24v-.648c0-1.272-.42-2.292-1.26-3.06-.816-.792-2.076-1.188-3.78-1.188h-5.616v9.216ZM191.76 79.144h-.648L183.228 62.8h3.384l6.444 13.752h.432l6.444-13.752h3.384l-7.884 16.344h-.648V88h-3.024v-8.856ZM228.502 62.8h17.712v2.808h-7.344V88h-3.024V65.608h-7.344V62.8ZM257.889 79.144h-.648L249.357 62.8h3.384l6.444 13.752h.432l6.444-13.752h3.384l-7.884 16.344h-.648V88h-3.024v-8.856ZM276.512 77.632V88h-3.024V62.8h9c1.296 0 2.424.192 3.384.576.96.36 1.752.852 2.376 1.476a5.83 5.83 0 0 1 1.44 2.196 6.74 6.74 0 0 1 .504 2.592v1.08c0 .912-.168 1.788-.504 2.628a6.158 6.158 0 0 1-1.44 2.232c-.648.624-1.452 1.128-2.412 1.512-.96.36-2.076.54-3.348.54h-5.976Zm0-2.808h5.616c3.36 0 5.04-1.44 5.04-4.32v-.648c0-1.272-.42-2.292-1.26-3.06-.816-.792-2.076-1.188-3.78-1.188h-5.616v9.216ZM295.855 62.8h15.264v2.808h-12.24v8.352h12.024v2.808h-12.024v8.424h12.456V88h-15.48V62.8ZM317.934 62.8h15.48v2.808h-12.456v8.352h12.24v2.808h-12.24V88h-3.024V62.8ZM352.973 81.736h-10.8L340.337 88h-3.24l7.632-25.2h5.688l7.632 25.2h-3.24l-1.836-6.264Zm-5.616-17.64-4.356 14.832h9.144l-4.356-14.832h-.432ZM369.76 85.696c1.032 0 1.908-.168 2.628-.504.744-.36 1.344-.828 1.8-1.404a5.77 5.77 0 0 0 1.044-2.016 8.04 8.04 0 0 0 .36-2.412v-.432h3.024v.432c0 1.272-.192 2.472-.576 3.6a8.618 8.618 0 0 1-1.692 2.916c-.744.816-1.668 1.464-2.772 1.944-1.104.456-2.376.684-3.816.684-2.784 0-4.956-.876-6.516-2.628-1.56-1.752-2.34-4.308-2.34-7.668v-5.616c0-3.264.78-5.796 2.34-7.596 1.56-1.8 3.732-2.7 6.516-2.7 1.44 0 2.712.24 3.816.72 1.104.456 2.028 1.104 2.772 1.944.744.816 1.308 1.788 1.692 2.916.384 1.104.576 2.292.576 3.564v.432h-3.024v-.432a8.795 8.795 0 0 0-.396-2.376 5.383 5.383 0 0 0-1.044-2.016 4.636 4.636 0 0 0-1.764-1.404c-.72-.36-1.596-.54-2.628-.54-1.944 0-3.408.708-4.392 2.124-.96 1.416-1.44 3.276-1.44 5.58v5.184c0 2.472.48 4.38 1.44 5.724.984 1.32 2.448 1.98 4.392 1.98ZM384.027 62.8h15.264v2.808h-12.24v8.352h12.024v2.808h-12.024v8.424h12.456V88h-15.48V62.8ZM68.899 136h-3.024v-8.424c0-.624-.144-1.104-.432-1.44-.288-.336-.792-.504-1.512-.504h-7.848V136h-3.024v-25.2h9c1.296 0 2.424.192 3.384.576.96.36 1.752.852 2.376 1.476a5.83 5.83 0 0 1 1.44 2.196 6.74 6.74 0 0 1 .504 2.592v1.08c0 .936-.264 1.872-.792 2.808-.504.936-1.296 1.656-2.376 2.16v.432c.72.12 1.284.408 1.692.864.408.456.612 1.104.612 1.944V136Zm-12.816-13.176h5.616c1.704 0 2.964-.36 3.78-1.08.84-.744 1.26-1.824 1.26-3.24v-.648c0-1.272-.42-2.292-1.26-3.06-.816-.792-2.076-1.188-3.78-1.188h-5.616v9.216ZM74.202 120.592c0-3.264.78-5.796 2.34-7.596 1.56-1.8 3.732-2.7 6.516-2.7s4.956.9 6.516 2.7c1.56 1.8 2.34 4.332 2.34 7.596v5.616c0 3.36-.78 5.916-2.34 7.668-1.56 1.752-3.732 2.628-6.516 2.628s-4.956-.876-6.516-2.628c-1.56-1.752-2.34-4.308-2.34-7.668v-5.616Zm8.856 13.104c1.944 0 3.396-.66 4.356-1.98.984-1.344 1.476-3.252 1.476-5.724v-5.184c0-2.304-.492-4.164-1.476-5.58-.96-1.416-2.412-2.124-4.356-2.124s-3.408.708-4.392 2.124c-.96 1.416-1.44 3.276-1.44 5.58v5.184c0 2.472.48 4.38 1.44 5.724.984 1.32 2.448 1.98 4.392 1.98ZM97.216 110.8h3.025v22.392h13.176V136h-16.2v-25.2ZM119.512 110.8h15.264v2.808h-12.241v8.352h12.025v2.808h-12.025v8.424h12.457V136h-15.48v-25.2ZM146.666 133.984c0-.696.24-1.284.72-1.764.504-.504 1.104-.756 1.8-.756s1.284.252 1.764.756c.504.48.756 1.068.756 1.764s-.252 1.296-.756 1.8c-.48.48-1.068.72-1.764.72a2.52 2.52 0 0 1-1.8-.72 2.52 2.52 0 0 1-.72-1.8Zm0-13.824c0-.696.24-1.284.72-1.764.504-.504 1.104-.756 1.8-.756s1.284.252 1.764.756c.504.48.756 1.068.756 1.764s-.252 1.296-.756 1.8c-.48.48-1.068.72-1.764.72a2.52 2.52 0 0 1-1.8-.72 2.52 2.52 0 0 1-.72-1.8ZM184.308 133.192h2.16v-19.584h-2.16V110.8h10.188c1.2 0 2.256.168 3.168.504.936.336 1.716.792 2.34 1.368a5.272 5.272 0 0 1 1.44 2.088c.336.792.504 1.656.504 2.592v.432c0 .696-.108 1.332-.324 1.908a5.238 5.238 0 0 1-.9 1.548c-.384.456-.84.852-1.368 1.188a6.412 6.412 0 0 1-1.656.72v.432c1.2.336 2.208.984 3.024 1.944.816.936 1.224 2.088 1.224 3.456v.432c0 .936-.168 1.812-.504 2.628a5.633 5.633 0 0 1-1.44 2.088c-.624.576-1.404 1.032-2.34 1.368-.912.336-1.968.504-3.168.504h-10.188v-2.808Zm5.184 0h4.788c1.416 0 2.568-.348 3.456-1.044.888-.72 1.332-1.704 1.332-2.952v-.216c0-1.296-.42-2.316-1.26-3.06-.84-.768-1.98-1.152-3.42-1.152h-4.896v8.424Zm0-11.232h4.896c1.44 0 2.58-.372 3.42-1.116.84-.744 1.26-1.764 1.26-3.06v-.216c0-1.224-.444-2.184-1.332-2.88-.888-.72-2.04-1.08-3.456-1.08h-4.788v8.352ZM206.459 120.592c0-3.264.78-5.796 2.34-7.596 1.56-1.8 3.732-2.7 6.516-2.7s4.956.9 6.516 2.7c1.56 1.8 2.34 4.332 2.34 7.596v5.616c0 3.36-.78 5.916-2.34 7.668-1.56 1.752-3.732 2.628-6.516 2.628s-4.956-.876-6.516-2.628c-1.56-1.752-2.34-4.308-2.34-7.668v-5.616Zm8.856 13.104c1.944 0 3.396-.66 4.356-1.98.984-1.344 1.476-3.252 1.476-5.724v-5.184c0-2.304-.492-4.164-1.476-5.58-.96-1.416-2.412-2.124-4.356-2.124s-3.408.708-4.392 2.124c-.96 1.416-1.44 3.276-1.44 5.58v5.184c0 2.472.48 4.38 1.44 5.724.984 1.32 2.448 1.98 4.392 1.98ZM228.97 110.8h8.28c3.12 0 5.4.744 6.84 2.232 1.44 1.488 2.16 3.864 2.16 7.128v6.48c0 3.264-.72 5.64-2.16 7.128-1.44 1.488-3.72 2.232-6.84 2.232h-8.28v-2.844h2.16v-19.548h-2.16V110.8Zm7.848 22.392c1.104 0 2.052-.108 2.844-.324.816-.216 1.488-.576 2.016-1.08.528-.528.912-1.224 1.152-2.088.264-.864.396-1.956.396-3.276v-6.048c0-1.32-.132-2.412-.396-3.276-.24-.864-.624-1.548-1.152-2.052-.528-.528-1.2-.9-2.016-1.116-.792-.216-1.74-.324-2.844-.324h-2.664v19.584h2.664ZM257.889 127.144h-.648l-7.884-16.344h3.384l6.444 13.752h.432l6.444-13.752h3.384l-7.884 16.344h-.648V136h-3.024v-8.856ZM294.631 110.8h17.712v2.808h-7.344V136h-3.024v-22.392h-7.344V110.8ZM317.898 110.8h15.264v2.808h-12.24v8.352h12.024v2.808h-12.024v8.424h12.456V136h-15.48v-25.2ZM341.597 110.8l5.652 11.16h.648l5.652-11.16h3.312l-6.3 12.348v.432l6.3 12.42h-3.312l-5.652-11.232h-.648L341.597 136h-3.312l6.3-12.42v-.432l-6.3-12.348h3.312ZM360.76 110.8h17.712v2.808h-7.344V136h-3.024v-22.392h-7.344V110.8ZM989.957 70.072c0-.816-.168-1.536-.504-2.16a4.27 4.27 0 0 0-1.296-1.548 6.154 6.154 0 0 0-1.908-.936 7.85 7.85 0 0 0-2.268-.324c-.696 0-1.356.096-1.98.288a5.694 5.694 0 0 0-1.692.756c-.48.336-.864.756-1.152 1.26-.288.48-.432 1.044-.432 1.692v.216c0 .696.144 1.296.432 1.8.288.48.708.9 1.26 1.26.576.336 1.284.624 2.124.864.84.216 1.824.408 2.952.576 2.64.408 4.584 1.188 5.832 2.34 1.248 1.128 1.872 2.652 1.872 4.572v.432c0 1.08-.192 2.076-.576 2.988a6.023 6.023 0 0 1-1.656 2.304c-.72.648-1.62 1.152-2.7 1.512-1.08.36-2.328.54-3.744.54-1.608 0-3.036-.228-4.284-.684-1.224-.48-2.256-1.128-3.096-1.944a8.68 8.68 0 0 1-1.872-2.916c-.432-1.128-.648-2.352-.648-3.672v-1.08h3.024v.864c0 2.208.6 3.864 1.8 4.968 1.224 1.104 2.916 1.656 5.076 1.656 1.872 0 3.276-.408 4.212-1.224.96-.84 1.44-1.944 1.44-3.312v-.216c0-1.32-.492-2.328-1.476-3.024-.96-.696-2.532-1.2-4.716-1.512-1.272-.168-2.424-.42-3.456-.756-1.008-.36-1.872-.816-2.592-1.368a5.91 5.91 0 0 1-1.656-2.052c-.384-.792-.576-1.728-.576-2.808v-.432c0-.984.204-1.884.612-2.7a6.563 6.563 0 0 1 1.692-2.124c.744-.6 1.62-1.056 2.628-1.368 1.032-.336 2.16-.504 3.384-.504 1.416 0 2.676.204 3.78.612 1.128.408 2.076.96 2.844 1.656a6.386 6.386 0 0 1 1.728 2.412c.408.912.612 1.872.612 2.88v1.512h-3.024v-1.296ZM998.428 62.8h15.262v2.808h-12.24v8.352h12.03v2.808h-12.03v8.424h12.46V88h-15.482V62.8ZM1028.25 85.696c1.03 0 1.91-.168 2.63-.504.74-.36 1.34-.828 1.8-1.404.48-.6.82-1.272 1.04-2.016a8.04 8.04 0 0 0 .36-2.412v-.432h3.02v.432c0 1.272-.19 2.472-.57 3.6a8.78 8.78 0 0 1-1.69 2.916c-.75.816-1.67 1.464-2.78 1.944-1.1.456-2.37.684-3.81.684-2.79 0-4.96-.876-6.52-2.628-1.56-1.752-2.34-4.308-2.34-7.668v-5.616c0-3.264.78-5.796 2.34-7.596 1.56-1.8 3.73-2.7 6.52-2.7 1.44 0 2.71.24 3.81.72a7.458 7.458 0 0 1 2.78 1.944c.74.816 1.3 1.788 1.69 2.916.38 1.104.57 2.292.57 3.564v.432h-3.02v-.432a8.646 8.646 0 0 0-.4-2.376 5.29 5.29 0 0 0-1.04-2.016 4.653 4.653 0 0 0-1.76-1.404c-.72-.36-1.6-.54-2.63-.54-1.95 0-3.41.708-4.39 2.124-.96 1.416-1.44 3.276-1.44 5.58v5.184c0 2.472.48 4.38 1.44 5.724.98 1.32 2.44 1.98 4.39 1.98ZM1041.29 72.592c0-3.264.78-5.796 2.34-7.596 1.56-1.8 3.73-2.7 6.52-2.7 2.78 0 4.95.9 6.51 2.7 1.56 1.8 2.34 4.332 2.34 7.596v5.616c0 3.36-.78 5.916-2.34 7.668-1.56 1.752-3.73 2.628-6.51 2.628-2.79 0-4.96-.876-6.52-2.628-1.56-1.752-2.34-4.308-2.34-7.668v-5.616Zm8.86 13.104c1.94 0 3.39-.66 4.35-1.98.99-1.344 1.48-3.252 1.48-5.724v-5.184c0-2.304-.49-4.164-1.48-5.58-.96-1.416-2.41-2.124-4.35-2.124-1.95 0-3.41.708-4.4 2.124-.96 1.416-1.44 3.276-1.44 5.58v5.184c0 2.472.48 4.38 1.44 5.724.99 1.32 2.45 1.98 4.4 1.98ZM1077.12 86.704h.43V62.8h3.03V88h-6.05l-7.27-23.904h-.44V88h-3.02V62.8h6.05l7.27 23.904ZM1085.84 62.8h8.28c3.12 0 5.4.744 6.84 2.232 1.44 1.488 2.16 3.864 2.16 7.128v6.48c0 3.264-.72 5.64-2.16 7.128-1.44 1.488-3.72 2.232-6.84 2.232h-8.28v-2.844h2.16V65.608h-2.16V62.8Zm7.85 22.392c1.11 0 2.05-.108 2.85-.324.81-.216 1.48-.576 2.01-1.08.53-.528.91-1.224 1.15-2.088.27-.864.4-1.956.4-3.276v-6.048c0-1.32-.13-2.412-.4-3.276-.24-.864-.62-1.548-1.15-2.052-.53-.528-1.2-.9-2.01-1.116-.8-.216-1.74-.324-2.85-.324h-2.66v19.584h2.66ZM1124.16 88h-3.03v-8.424c0-.624-.14-1.104-.43-1.44-.29-.336-.79-.504-1.51-.504h-7.85V88h-3.02V62.8h9c1.29 0 2.42.192 3.38.576.96.36 1.75.852 2.38 1.476a5.783 5.783 0 0 1 1.44 2.196c.33.816.5 1.68.5 2.592v1.08c0 .936-.26 1.872-.79 2.808-.5.936-1.3 1.656-2.38 2.16v.432c.72.12 1.29.408 1.7.864.4.456.61 1.104.61 1.944V88Zm-12.82-13.176h5.62c1.7 0 2.96-.36 3.78-1.08.84-.744 1.26-1.824 1.26-3.24v-.648c0-1.272-.42-2.292-1.26-3.06-.82-.792-2.08-1.188-3.78-1.188h-5.62v9.216ZM1143.72 81.736h-10.8L1131.08 88h-3.24l7.63-25.2h5.69l7.63 25.2h-3.24l-1.83-6.264Zm-5.62-17.64-4.35 14.832h9.14l-4.36-14.832h-.43ZM1168.24 88h-3.02v-8.424c0-.624-.14-1.104-.43-1.44-.29-.336-.79-.504-1.51-.504h-7.85V88h-3.03V62.8h9c1.3 0 2.43.192 3.39.576.96.36 1.75.852 2.37 1.476a5.783 5.783 0 0 1 1.44 2.196c.34.816.51 1.68.51 2.592v1.08c0 .936-.27 1.872-.79 2.808-.51.936-1.3 1.656-2.38 2.16v.432c.72.12 1.28.408 1.69.864.41.456.61 1.104.61 1.944V88Zm-12.81-13.176h5.61c1.71 0 2.97-.36 3.78-1.08.84-.744 1.26-1.824 1.26-3.24v-.648c0-1.272-.42-2.292-1.26-3.06-.81-.792-2.07-1.188-3.78-1.188h-5.61v9.216ZM1180.89 79.144h-.65l-7.88-16.344h3.38l6.45 13.752h.43l6.44-13.752h3.39l-7.89 16.344h-.64V88h-3.03v-8.856ZM1217.63 62.8h17.72v2.808H1228V88h-3.02V65.608h-7.35V62.8ZM1247.02 79.144h-.65l-7.88-16.344h3.38l6.45 13.752h.43l6.44-13.752h3.39l-7.89 16.344h-.65V88h-3.02v-8.856ZM1265.64 77.632V88h-3.02V62.8h9c1.3 0 2.42.192 3.38.576.96.36 1.76.852 2.38 1.476a5.783 5.783 0 0 1 1.44 2.196c.34.816.5 1.68.5 2.592v1.08a6.93 6.93 0 0 1-.5 2.628c-.31.84-.79 1.584-1.44 2.232-.65.624-1.45 1.128-2.41 1.512-.96.36-2.08.54-3.35.54h-5.98Zm0-2.808h5.62c3.36 0 5.04-1.44 5.04-4.32v-.648c0-1.272-.42-2.292-1.26-3.06-.82-.792-2.08-1.188-3.78-1.188h-5.62v9.216ZM1284.99 62.8h15.26v2.808h-12.24v8.352h12.02v2.808h-12.02v8.424h12.46V88h-15.48V62.8ZM1307.07 62.8h15.48v2.808h-12.46v8.352h12.24v2.808h-12.24V88h-3.02V62.8ZM1342.1 81.736h-10.8L1329.47 88h-3.24l7.63-25.2h5.69l7.63 25.2h-3.24l-1.84-6.264Zm-5.61-17.64-4.36 14.832h9.15l-4.36-14.832h-.43ZM1358.89 85.696c1.03 0 1.91-.168 2.63-.504.74-.36 1.34-.828 1.8-1.404.48-.6.83-1.272 1.04-2.016a8.04 8.04 0 0 0 .36-2.412v-.432h3.03v.432c0 1.272-.19 2.472-.58 3.6a8.613 8.613 0 0 1-1.69 2.916c-.74.816-1.67 1.464-2.77 1.944-1.11.456-2.38.684-3.82.684-2.78 0-4.95-.876-6.51-2.628-1.56-1.752-2.34-4.308-2.34-7.668v-5.616c0-3.264.78-5.796 2.34-7.596 1.56-1.8 3.73-2.7 6.51-2.7 1.44 0 2.71.24 3.82.72 1.1.456 2.03 1.104 2.77 1.944a8.177 8.177 0 0 1 1.69 2.916c.39 1.104.58 2.292.58 3.564v.432h-3.03v-.432a8.636 8.636 0 0 0-.39-2.376 5.452 5.452 0 0 0-1.05-2.016 4.578 4.578 0 0 0-1.76-1.404c-.72-.36-1.6-.54-2.63-.54-1.94 0-3.41.708-4.39 2.124-.96 1.416-1.44 3.276-1.44 5.58v5.184c0 2.472.48 4.38 1.44 5.724.98 1.32 2.45 1.98 4.39 1.98ZM1373.16 62.8h15.26v2.808h-12.24v8.352h12.03v2.808h-12.03v8.424h12.46V88h-15.48V62.8ZM991.901 136h-3.024v-8.424c0-.624-.144-1.104-.432-1.44-.288-.336-.792-.504-1.512-.504h-7.848V136h-3.024v-25.2h9c1.296 0 2.424.192 3.384.576.96.36 1.752.852 2.376 1.476a5.83 5.83 0 0 1 1.44 2.196 6.74 6.74 0 0 1 .504 2.592v1.08c0 .936-.264 1.872-.792 2.808-.504.936-1.296 1.656-2.376 2.16v.432c.72.12 1.284.408 1.692.864.408.456.612 1.104.612 1.944V136Zm-12.816-13.176h5.616c1.704 0 2.964-.36 3.78-1.08.84-.744 1.26-1.824 1.26-3.24v-.648c0-1.272-.42-2.292-1.26-3.06-.816-.792-2.076-1.188-3.78-1.188h-5.616v9.216ZM997.204 120.592c0-3.264.78-5.796 2.34-7.596 1.556-1.8 3.736-2.7 6.516-2.7s4.96.9 6.52 2.7c1.56 1.8 2.34 4.332 2.34 7.596v5.616c0 3.36-.78 5.916-2.34 7.668-1.56 1.752-3.74 2.628-6.52 2.628-2.78 0-4.96-.876-6.516-2.628-1.56-1.752-2.34-4.308-2.34-7.668v-5.616Zm8.856 13.104c1.94 0 3.4-.66 4.36-1.98.98-1.344 1.47-3.252 1.47-5.724v-5.184c0-2.304-.49-4.164-1.47-5.58-.96-1.416-2.42-2.124-4.36-2.124-1.94 0-3.41.708-4.39 2.124-.96 1.416-1.44 3.276-1.44 5.58v5.184c0 2.472.48 4.38 1.44 5.724.98 1.32 2.45 1.98 4.39 1.98ZM1020.22 110.8h3.02v22.392h13.18V136h-16.2v-25.2ZM1042.51 110.8h15.27v2.808h-12.24v8.352h12.02v2.808h-12.02v8.424h12.45V136h-15.48v-25.2ZM1069.67 133.984c0-.696.24-1.284.72-1.764.5-.504 1.1-.756 1.8-.756.69 0 1.28.252 1.76.756.51.48.76 1.068.76 1.764s-.25 1.296-.76 1.8a2.4 2.4 0 0 1-1.76.72c-.7 0-1.3-.24-1.8-.72a2.52 2.52 0 0 1-.72-1.8Zm0-13.824c0-.696.24-1.284.72-1.764.5-.504 1.1-.756 1.8-.756.69 0 1.28.252 1.76.756.51.48.76 1.068.76 1.764s-.25 1.296-.76 1.8a2.4 2.4 0 0 1-1.76.72c-.7 0-1.3-.24-1.8-.72a2.52 2.52 0 0 1-.72-1.8ZM1108.28 110.8h15.99v2.808h-6.48v19.584h6.48V136h-15.99v-2.808h6.48v-19.584h-6.48V110.8ZM1143.25 134.704h.43V110.8h3.03V136h-6.05l-7.27-23.904h-.44V136h-3.02v-25.2h6.05l7.27 23.904ZM1152.48 110.8h3.02v22.392h13.18V136h-16.2v-25.2ZM1174.41 110.8h15.99v2.808h-6.48v19.584h6.48V136h-15.99v-2.808h6.48v-19.584h-6.48V110.8ZM1209.38 134.704h.43V110.8h3.02V136h-6.04l-7.28-23.904h-.43V136h-3.02v-25.2h6.05l7.27 23.904ZM1218.86 110.8h15.26v2.808h-12.24v8.352h12.03v2.808h-12.03v8.424h12.46V136h-15.48v-25.2ZM1270.72 133.696c1.03 0 1.91-.168 2.63-.504.74-.36 1.34-.828 1.8-1.404.48-.6.83-1.272 1.04-2.016a8.04 8.04 0 0 0 .36-2.412v-.432h3.03v.432c0 1.272-.2 2.472-.58 3.6a8.613 8.613 0 0 1-1.69 2.916c-.75.816-1.67 1.464-2.77 1.944-1.11.456-2.38.684-3.82.684-2.78 0-4.96-.876-6.52-2.628-1.56-1.752-2.34-4.308-2.34-7.668v-5.616c0-3.264.78-5.796 2.34-7.596 1.56-1.8 3.74-2.7 6.52-2.7 1.44 0 2.71.24 3.82.72a7.502 7.502 0 0 1 2.77 1.944 8.177 8.177 0 0 1 1.69 2.916c.38 1.104.58 2.292.58 3.564v.432h-3.03v-.432a8.636 8.636 0 0 0-.39-2.376 5.452 5.452 0 0 0-1.05-2.016 4.578 4.578 0 0 0-1.76-1.404c-.72-.36-1.6-.54-2.63-.54-1.94 0-3.41.708-4.39 2.124-.96 1.416-1.44 3.276-1.44 5.58v5.184c0 2.472.48 4.38 1.44 5.724.98 1.32 2.45 1.98 4.39 1.98ZM1283.76 120.592c0-3.264.78-5.796 2.34-7.596 1.56-1.8 3.73-2.7 6.52-2.7 2.78 0 4.95.9 6.51 2.7 1.56 1.8 2.34 4.332 2.34 7.596v5.616c0 3.36-.78 5.916-2.34 7.668-1.56 1.752-3.73 2.628-6.51 2.628-2.79 0-4.96-.876-6.52-2.628-1.56-1.752-2.34-4.308-2.34-7.668v-5.616Zm8.86 13.104c1.94 0 3.39-.66 4.35-1.98.99-1.344 1.48-3.252 1.48-5.724v-5.184c0-2.304-.49-4.164-1.48-5.58-.96-1.416-2.41-2.124-4.35-2.124-1.95 0-3.41.708-4.39 2.124-.96 1.416-1.44 3.276-1.44 5.58v5.184c0 2.472.48 4.38 1.44 5.724.98 1.32 2.44 1.98 4.39 1.98ZM1306.27 110.8h8.28c3.12 0 5.4.744 6.84 2.232 1.44 1.488 2.16 3.864 2.16 7.128v6.48c0 3.264-.72 5.64-2.16 7.128-1.44 1.488-3.72 2.232-6.84 2.232h-8.28v-2.844h2.16v-19.548h-2.16V110.8Zm7.85 22.392c1.11 0 2.05-.108 2.85-.324.81-.216 1.48-.576 2.01-1.08.53-.528.91-1.224 1.15-2.088.27-.864.4-1.956.4-3.276v-6.048c0-1.32-.13-2.412-.4-3.276-.24-.864-.62-1.548-1.15-2.052-.53-.528-1.2-.9-2.01-1.116-.8-.216-1.74-.324-2.85-.324h-2.66v19.584h2.66ZM1329.07 110.8h15.27v2.808h-12.24v8.352h12.02v2.808h-12.02v8.424h12.45V136h-15.48v-25.2Z"/><path fill="#3C4043" d="M56.86 565v-6.02l13.86-2.94-1.82 2.52V474l2.38 2.66L56.86 474v-6.02l23.94-.7h16.38c10.546 0 18.526 2.193 23.939 6.58 5.414 4.387 8.12 10.733 8.12 19.04 0 7.653-2.426 13.907-7.28 18.76-4.76 4.853-12.04 7.793-21.84 8.82l-.14-1.4c3.64.373 6.58 1.213 8.82 2.52a16.94 16.94 0 0 1 5.88 5.04c1.587 2.053 3.127 4.62 4.62 7.7l11.76 23.8-3.5-2.38 11.76 3.22V565h-17.22l-12.88-27.58c-1.773-4.013-3.5-7.093-5.18-9.24-1.586-2.24-3.593-3.827-6.02-4.76-2.333-.933-5.693-1.4-10.08-1.4l-9.66.14 2.1-1.96v38.36l-1.82-2.52 16.24 2.94V565H56.86Zm23.52-48.16-2.1-3.08h13.3c8.306 0 14.699-1.68 19.179-5.04 4.48-3.453 6.72-8.493 6.72-15.12 0-5.787-1.82-10.173-5.46-13.16-3.64-3.08-9.053-4.62-16.24-4.62h-17.5l2.1-2.1v43.12ZM202.684 558.7l-1.82-2.52 12.88 2.52v6.16l-19.6.84-1.68-13.44.98.42c-4.107 4.48-8.54 7.887-13.3 10.22-4.76 2.24-9.38 3.36-13.86 3.36-5.414 0-9.987-1.727-13.72-5.18-3.734-3.453-5.6-8.68-5.6-15.68 0-5.507 1.166-9.707 3.5-12.6 2.333-2.987 5.553-5.087 9.66-6.3 4.106-1.213 8.866-1.82 14.28-1.82h18.34l-1.26 1.4v-13.44c0-5.133-1.354-8.773-4.06-10.92-2.707-2.24-6.44-3.36-11.2-3.36-2.52 0-5.227.28-8.12.84-2.8.467-5.787 1.26-8.96 2.38l1.68-1.82-1.4 12.74h-7.42l-1.12-17.36c5.32-1.773 10.313-3.08 14.98-3.92 4.666-.933 8.96-1.4 12.88-1.4 7.466 0 13.3 1.68 17.5 5.04 4.293 3.267 6.44 8.54 6.44 15.82v48.02Zm-44.38-14.28c0 4.573 1.073 7.933 3.22 10.08 2.24 2.147 5.04 3.22 8.4 3.22 3.266 0 6.86-.98 10.78-2.94 4.013-2.053 7.886-4.807 11.62-8.26l-.84 2.94V530.7l1.26 1.26h-16.66c-6.627 0-11.247 1.027-13.86 3.08-2.614 1.96-3.92 5.087-3.92 9.38ZM253.346 598.46c-10.92 0-19.087-1.587-24.5-4.76s-8.12-7.747-8.12-13.72c0-4.2 1.4-7.933 4.2-11.2 2.8-3.267 6.907-6.113 12.32-8.54l.14 2.24c-2.987-.187-5.273-.793-6.86-1.82-1.587-1.12-2.38-2.66-2.38-4.62 0-.747.093-1.493.28-2.24.187-.747.513-1.773.98-3.08.56-1.4 1.353-3.22 2.38-5.46 1.12-2.333 2.52-5.367 4.2-9.1l.28 1.96c-4.013-2.147-7.093-5.04-9.24-8.68-2.147-3.733-3.22-8.12-3.22-13.16 0-8.12 2.66-14.56 7.98-19.32 5.413-4.76 12.833-7.14 22.26-7.14 6.347 0 11.807 1.12 16.38 3.36l-3.08-.7 21.98-.98.14 6.72-13.02 2.52.98-1.68c1.96 1.867 3.453 4.153 4.48 6.86 1.027 2.707 1.54 5.787 1.54 9.24 0 8.213-2.753 14.7-8.26 19.46-5.507 4.76-12.833 7.14-21.98 7.14-5.227 0-10.033-.887-14.42-2.66l2.52-1.26-3.64 18.34-2.38-1.4h27.44c8.96 0 15.773 1.773 20.44 5.32 4.667 3.453 7 8.447 7 14.98 0 7.56-3.127 13.347-9.38 17.36-6.16 4.013-15.307 6.02-27.44 6.02Zm.98-8.54c8.493 0 14.793-1.167 18.9-3.5 4.107-2.333 6.16-5.833 6.16-10.5 0-4.107-1.54-7.233-4.62-9.38-3.08-2.053-7.7-3.08-13.86-3.08h-22.26l3.22-.7c-7.467 4.667-11.2 9.707-11.2 15.12 0 4.013 1.913 7 5.74 8.96 3.92 2.053 9.893 3.08 17.92 3.08Zm-1.12-56c5.973 0 10.64-1.587 14-4.76 3.36-3.267 5.04-7.84 5.04-13.72 0-5.88-1.587-10.313-4.76-13.3s-7.7-4.48-13.58-4.48c-5.973 0-10.593 1.587-13.86 4.76-3.267 3.08-4.9 7.607-4.9 13.58 0 5.787 1.54 10.22 4.62 13.3 3.173 3.08 7.653 4.62 13.44 4.62ZM312.682 509c0 2.987.98 5.32 2.94 7 1.96 1.68 4.48 3.08 7.56 4.2a314.338 314.338 0 0 0 9.8 3.08 64.728 64.728 0 0 1 9.8 3.78c3.08 1.493 5.6 3.547 7.56 6.16s2.94 6.067 2.94 10.36c0 4.947-1.353 9.1-4.06 12.46-2.707 3.36-6.393 5.927-11.06 7.7-4.573 1.68-9.707 2.52-15.4 2.52-3.453 0-7-.28-10.64-.84a104.61 104.61 0 0 1-11.2-2.38l.98-18.76h7.14l1.4 13.72-1.26-1.54c2.147.56 4.48 1.027 7 1.4 2.52.373 4.853.56 7 .56 3.36 0 6.44-.467 9.24-1.4 2.893-1.027 5.227-2.473 7-4.34 1.773-1.96 2.66-4.387 2.66-7.28 0-3.08-.98-5.507-2.94-7.28-1.867-1.773-4.34-3.22-7.42-4.34a121.194 121.194 0 0 0-9.8-3.08 67.017 67.017 0 0 1-9.66-3.78c-3.08-1.587-5.6-3.64-7.56-6.16s-2.94-5.973-2.94-10.36c0-4.76 1.213-8.633 3.64-11.62 2.52-3.08 5.787-5.32 9.8-6.72 4.107-1.493 8.493-2.24 13.16-2.24 3.173 0 6.673.327 10.5.98s7.747 1.633 11.76 2.94l-.7 15.82h-7.14l-2.1-11.62 1.68 1.96c-4.853-1.4-9.427-2.1-13.72-2.1-4.573 0-8.4.98-11.48 2.94-2.987 1.867-4.48 4.62-4.48 8.26ZM390.178 566.26c-4.854 0-8.68-1.493-11.48-4.48-2.8-3.08-4.2-7.7-4.2-13.86V497.1l1.82 1.82h-14.42v-6.16l14.56-2.1-1.96 2.24v-18.48l11.2-1.82v20.3l-1.54-1.82h21.98l-.42 7.84h-21.56l1.54-1.82v49.28c0 3.92.746 6.767 2.24 8.54 1.586 1.773 3.78 2.66 6.58 2.66 1.68 0 3.5-.28 5.46-.84 1.96-.56 4.06-1.353 6.3-2.38l2.38 6.44c-6.627 3.64-12.787 5.46-18.48 5.46ZM450.183 489.82c10.266 0 18.293 3.22 24.08 9.66 5.88 6.44 8.82 15.54 8.82 27.3 0 7.933-1.447 14.887-4.34 20.86-2.8 5.88-6.814 10.453-12.04 13.72-5.227 3.267-11.527 4.9-18.9 4.9-10.08 0-17.967-3.127-23.66-9.38-5.694-6.347-8.54-15.447-8.54-27.3 0-8.213 1.353-15.26 4.06-21.14 2.8-5.973 6.767-10.547 11.9-13.72 5.227-3.267 11.433-4.9 18.62-4.9Zm-.56 8.26c-7.187 0-12.694 2.707-16.52 8.12-3.827 5.413-5.74 13.02-5.74 22.82 0 9.613 1.82 16.847 5.46 21.7 3.64 4.853 8.867 7.28 15.68 7.28 4.947 0 9.1-1.213 12.46-3.64 3.453-2.52 6.02-6.067 7.7-10.64 1.773-4.573 2.66-10.033 2.66-16.38 0-9.52-1.914-16.753-5.74-21.7-3.734-5.04-9.053-7.56-15.96-7.56ZM494.87 565v-6.02l12.6-2.8-1.68 2.1v-60.2l1.68 2.1-12.6-2.66v-6.02l19.6-.98 1.54 13.72-1.54-.56c4.667-4.76 9.52-8.26 14.56-10.5 5.134-2.24 9.987-3.36 14.56-3.36 6.16 0 11.247 1.913 15.26 5.74 4.107 3.733 6.114 9.567 6.02 17.5v45.22l-1.4-1.96 12.32 2.66V565h-32.62v-6.02l12.18-2.66-1.68 2.1v-42.98c0-5.787-1.306-10.033-3.92-12.74-2.613-2.707-6.113-4.06-10.5-4.06-3.453 0-7.233.933-11.34 2.8-4.013 1.867-7.98 4.76-11.9 8.68l.98-2.24v50.54l-1.4-1.96 11.9 2.52V565h-32.62ZM616.784 566.26c-6.253 0-11.807-1.4-16.66-4.2-4.76-2.893-8.493-7.093-11.2-12.6-2.707-5.507-4.06-12.227-4.06-20.16 0-8.12 1.4-15.12 4.2-21 2.8-5.88 6.767-10.407 11.9-13.58 5.133-3.267 11.153-4.9 18.06-4.9 6.533 0 11.9 1.4 16.1 4.2 4.293 2.707 7.467 6.487 9.52 11.34 2.147 4.853 3.22 10.407 3.22 16.66 0 1.027-.047 2.053-.14 3.08a113.905 113.905 0 0 1-.42 3.78h-53.9v-7.98h44.1l-1.26.84c.093-4.2-.42-8.073-1.54-11.62-1.12-3.547-3.033-6.393-5.74-8.54-2.707-2.147-6.3-3.22-10.78-3.22-4.76 0-8.773 1.26-12.04 3.78-3.267 2.52-5.693 5.973-7.28 10.36-1.587 4.387-2.38 9.473-2.38 15.26 0 6.16.887 11.48 2.66 15.96 1.773 4.387 4.34 7.793 7.7 10.22 3.453 2.427 7.653 3.64 12.6 3.64 3.453 0 7.233-.653 11.34-1.96 4.107-1.4 8.353-3.5 12.74-6.3l4.06 6.3c-5.227 3.547-10.453 6.207-15.68 7.98-5.227 1.773-10.267 2.66-15.12 2.66Z"/><path fill="#1A73E8" d="M52.629 614.8h8.28c3.12 0 5.4.744 6.84 2.232 1.44 1.488 2.16 3.864 2.16 7.128v6.48c0 3.264-.72 5.64-2.16 7.128-1.44 1.488-3.72 2.232-6.84 2.232h-8.28v-2.844h2.16v-19.548h-2.16V614.8Zm7.848 22.392c1.104 0 2.052-.108 2.844-.324.816-.216 1.488-.576 2.016-1.08.528-.528.912-1.224 1.152-2.088.264-.864.396-1.956.396-3.276v-6.048c0-1.32-.132-2.412-.396-3.276-.24-.864-.624-1.548-1.152-2.052-.528-.528-1.2-.9-2.016-1.116-.792-.216-1.74-.324-2.844-.324h-2.664v19.584h2.664ZM81.548 631.144H80.9L73.016 614.8H76.4l6.444 13.752h.432L89.72 614.8h3.384l-7.884 16.344h-.648V640h-3.024v-8.856ZM110.035 638.704h.432V614.8h3.024V640h-6.048l-7.272-23.904h-.432V640h-3.024v-25.2h6.048l7.272 23.904ZM132.546 633.736h-10.8L119.91 640h-3.24l7.632-25.2h5.688l7.632 25.2h-3.24l-1.836-6.264Zm-5.616-17.64-4.356 14.832h9.144l-4.356-14.832h-.432ZM139.829 614.8h5.76l3.384 23.904h.432l3.384-23.904h5.76V640h-2.808v-23.904h-.432L151.925 640h-5.472l-3.384-23.904h-.432V640h-2.808v-25.2ZM163.24 614.8h15.984v2.808h-6.48v19.584h6.48V640H163.24v-2.808h6.48v-19.584h-6.48V614.8ZM193.419 637.696c1.032 0 1.908-.168 2.628-.504.744-.36 1.344-.828 1.8-1.404a5.77 5.77 0 0 0 1.044-2.016 8.04 8.04 0 0 0 .36-2.412v-.432h3.024v.432c0 1.272-.192 2.472-.576 3.6a8.618 8.618 0 0 1-1.692 2.916c-.744.816-1.668 1.464-2.772 1.944-1.104.456-2.376.684-3.816.684-2.784 0-4.956-.876-6.516-2.628-1.56-1.752-2.34-4.308-2.34-7.668v-5.616c0-3.264.78-5.796 2.34-7.596 1.56-1.8 3.732-2.7 6.516-2.7 1.44 0 2.712.24 3.816.72 1.104.456 2.028 1.104 2.772 1.944.744.816 1.308 1.788 1.692 2.916.384 1.104.576 2.292.576 3.564v.432h-3.024v-.432a8.795 8.795 0 0 0-.396-2.376 5.383 5.383 0 0 0-1.044-2.016 4.636 4.636 0 0 0-1.764-1.404c-.72-.36-1.596-.54-2.628-.54-1.944 0-3.408.708-4.392 2.124-.96 1.416-1.44 3.276-1.44 5.58v5.184c0 2.472.48 4.38 1.44 5.724.984 1.32 2.448 1.98 4.392 1.98ZM246.001 642.952v2.664h-1.296c-1.68 0-3.288-.312-4.824-.936a11.928 11.928 0 0 1-4.068-2.736c-1.176-1.176-2.112-2.604-2.808-4.284-.696-1.68-1.044-3.588-1.044-5.724v-9.072c0-2.112.348-4.008 1.044-5.688.696-1.704 1.632-3.144 2.808-4.32a11.928 11.928 0 0 1 4.068-2.736 12.696 12.696 0 0 1 4.824-.936h1.296v2.664h-1.296a9.2 9.2 0 0 0-3.744.792 9.293 9.293 0 0 0-3.168 2.196c-.912.96-1.644 2.136-2.196 3.528-.552 1.368-.828 2.916-.828 4.644v8.784c0 1.728.276 3.288.828 4.68.552 1.368 1.284 2.532 2.196 3.492a9.293 9.293 0 0 0 3.168 2.196 9.2 9.2 0 0 0 3.744.792h1.296ZM250.44 637.192h2.16v-19.584h-2.16V614.8h10.188c1.2 0 2.256.168 3.168.504.936.336 1.716.792 2.34 1.368a5.272 5.272 0 0 1 1.44 2.088c.336.792.504 1.656.504 2.592v.432c0 .696-.108 1.332-.324 1.908a5.238 5.238 0 0 1-.9 1.548c-.384.456-.84.852-1.368 1.188a6.412 6.412 0 0 1-1.656.72v.432c1.2.336 2.208.984 3.024 1.944.816.936 1.224 2.088 1.224 3.456v.432c0 .936-.168 1.812-.504 2.628a5.633 5.633 0 0 1-1.44 2.088c-.624.576-1.404 1.032-2.34 1.368-.912.336-1.968.504-3.168.504H250.44v-2.808Zm5.184 0h4.788c1.416 0 2.568-.348 3.456-1.044.888-.72 1.332-1.704 1.332-2.952v-.216c0-1.296-.42-2.316-1.26-3.06-.84-.768-1.98-1.152-3.42-1.152h-4.896v8.424Zm0-11.232h4.896c1.44 0 2.58-.372 3.42-1.116.84-.744 1.26-1.764 1.26-3.06v-.216c0-1.224-.444-2.184-1.332-2.88-.888-.72-2.04-1.08-3.456-1.08h-4.788v8.352ZM273.455 614.8h15.984v2.808h-6.48v19.584h6.48V640h-15.984v-2.808h6.48v-19.584h-6.48V614.8ZM294.634 614.8h17.712v2.808h-7.344V640h-3.024v-22.392h-7.344V614.8ZM316.677 614.8h17.712v2.808h-7.344V640h-3.024v-22.392h-7.344V614.8ZM339.944 614.8h15.264v2.808h-12.241v8.352h12.025v2.808h-12.025v8.424h12.457V640h-15.48v-25.2ZM377.502 640h-3.024v-8.424c0-.624-.144-1.104-.432-1.44-.288-.336-.792-.504-1.512-.504h-7.848V640h-3.024v-25.2h9c1.296 0 2.424.192 3.384.576.96.36 1.752.852 2.376 1.476a5.83 5.83 0 0 1 1.44 2.196 6.74 6.74 0 0 1 .504 2.592v1.08c0 .936-.264 1.872-.792 2.808-.504.936-1.296 1.656-2.376 2.16v.432c.72.12 1.284.408 1.692.864.408.456.612 1.104.612 1.944V640Zm-12.816-13.176h5.616c1.704 0 2.964-.36 3.78-1.08.84-.744 1.26-1.824 1.26-3.24v-.648c0-1.272-.42-2.292-1.26-3.06-.816-.792-2.076-1.188-3.78-1.188h-5.616v9.216ZM384.317 642.952a9.2 9.2 0 0 0 3.744-.792 9.293 9.293 0 0 0 3.168-2.196c.912-.96 1.644-2.124 2.196-3.492.552-1.392.828-2.952.828-4.68v-8.784c0-1.728-.276-3.276-.828-4.644-.552-1.392-1.284-2.568-2.196-3.528a9.293 9.293 0 0 0-3.168-2.196 9.2 9.2 0 0 0-3.744-.792h-1.296v-2.664h1.296c1.68 0 3.288.312 4.824.936a11.928 11.928 0 0 1 4.068 2.736c1.176 1.176 2.112 2.616 2.808 4.32.696 1.68 1.044 3.576 1.044 5.688v9.072c0 2.136-.348 4.044-1.044 5.724-.696 1.68-1.632 3.108-2.808 4.284a11.928 11.928 0 0 1-4.068 2.736 12.696 12.696 0 0 1-4.824.936h-1.296v-2.664h1.296Z"/></svg>