<svg width="1920" height="1080" viewBox="0 0 1920 1080" fill="none" xmlns="http://www.w3.org/2000/svg">
<path opacity="0.25" d="M526 545.5C526 567.868 507.868 586 485.5 586C463.132 586 445 567.868 445 545.5C445 523.132 463.132 505 485.5 505C507.868 505 526 523.132 526 545.5Z" fill="#FF6D7F"/>
<path opacity="0.25" d="M1688 591C1688 618.062 1666.06 640 1639 640C1611.94 640 1590 618.062 1590 591C1590 563.938 1611.94 542 1639 542C1666.06 542 1688 563.938 1688 591Z" fill="#FF6D7F"/>
<path d="M411.68 661.24C405.18 661.24 398.16 657.86 390.62 651.1C383.34 644.34 376.58 635.37 370.34 624.19L328.61 548.53H296.24L295.07 606.64C295.07 616 295.59 623.02 296.63 627.7C297.93 632.12 300.53 635.11 304.43 636.67C308.59 637.97 314.83 638.62 323.15 638.62L323.93 640.18L320.42 656.56C320.42 656.56 319.12 656.43 316.52 656.17C313.92 656.17 310.54 656.04 306.38 655.78C302.48 655.78 298.06 655.65 293.12 655.39C288.44 655.39 283.76 655.39 279.08 655.39C272.58 655.13 265.82 655.13 258.8 655.39C252.04 655.65 246.19 655.91 241.25 656.17C236.57 656.43 234.23 656.56 234.23 656.56L237.74 639.01C249.96 637.71 257.89 635.11 261.53 631.21C265.43 627.05 267.38 619.38 267.38 608.2L267.77 444.4C267.77 436.08 266.73 430.49 264.65 427.63C262.83 424.77 259.06 423.34 253.34 423.34C251 423.34 248.14 423.47 244.76 423.73C241.64 423.99 240.08 424.12 240.08 424.12L239.3 422.56L242.03 405.4C242.03 405.4 243.46 405.53 246.32 405.79C249.44 405.79 253.34 405.92 258.02 406.18C262.7 406.18 267.51 406.31 272.45 406.57C277.39 406.57 281.68 406.57 285.32 406.57C288.7 406.57 292.99 406.57 298.19 406.57C303.65 406.31 308.98 406.05 314.18 405.79C319.64 405.53 324.19 405.4 327.83 405.4C331.47 405.14 333.29 405.01 333.29 405.01C357.47 405.01 376.58 410.47 390.62 421.39C404.66 432.31 411.68 447.26 411.68 466.24C411.68 481.84 406.61 496.14 396.47 509.14C386.59 522.14 372.55 532.8 354.35 541.12L397.25 608.98C404.79 621.2 412.07 629.78 419.09 634.72C426.37 639.66 435.21 642.13 445.61 642.13L447.17 643.69L444.83 656.95L411.68 661.24ZM337.19 530.59C337.19 530.59 339.27 529.81 343.43 528.25C347.85 526.43 352.79 523.44 358.25 519.28C363.71 515.12 368.52 509.27 372.68 501.73C377.1 494.19 379.31 484.7 379.31 473.26C379.31 456.1 373.33 443.23 361.37 434.65C349.67 426.07 331.86 421.78 307.94 421.78C305.34 421.78 303.52 422.43 302.48 423.73C301.7 424.77 301.18 427.11 300.92 430.75C299.88 451.29 298.97 468.97 298.19 483.79C297.67 498.61 297.28 512.91 297.02 526.69L337.19 530.59Z" fill="#3C4043"/>
<path d="M587.881 659.68C577.481 659.68 569.291 657.08 563.311 651.88C557.591 646.42 554.211 638.49 553.171 628.09L551.611 627.7C545.371 633.94 539.391 639.4 533.671 644.08C528.211 648.5 523.271 652.01 518.851 654.61C514.691 656.95 511.311 658.12 508.711 658.12C499.091 658.12 490.511 656.04 482.971 651.88C475.431 647.72 469.451 642 465.031 634.72C460.871 627.44 458.791 619.12 458.791 609.76C458.791 602.22 460.611 595.59 464.251 589.87C468.151 584.15 473.221 580.38 479.461 578.56L553.561 558.28L553.951 541.12C553.951 528.12 550.961 517.98 544.981 510.7C539.001 503.42 530.551 499.78 519.631 499.78C512.351 499.78 504.681 501.47 496.621 504.85C488.561 508.23 480.631 513.04 472.831 519.28L470.881 518.11L466.201 501.34C472.961 497.44 480.501 493.41 488.821 489.25C497.141 484.83 505.071 481.19 512.611 478.33C520.151 475.47 525.871 474.04 529.771 474.04C541.211 474.04 550.961 476.12 559.021 480.28C567.081 484.18 573.191 489.9 577.351 497.44C581.771 504.72 583.981 513.69 583.981 524.35C583.981 527.73 583.591 533.19 582.811 540.73C582.291 548.27 581.511 556.72 580.471 566.08C579.431 575.18 578.521 584.02 577.741 592.6C577.221 601.18 576.961 608.33 576.961 614.05C576.961 619.77 578.391 624.19 581.251 627.31C584.111 630.43 588.011 631.99 592.951 631.99C597.371 631.99 601.791 630.95 606.211 628.87C610.631 626.53 614.011 624.32 616.351 622.24L621.811 628.48C619.731 631.86 616.871 635.76 613.231 640.18C609.851 644.34 605.951 648.24 601.531 651.88C597.371 655.52 592.821 658.12 587.881 659.68ZM515.341 631.6C520.281 631.6 526.001 629.91 532.501 626.53C539.261 622.89 545.371 618.34 550.831 612.88L552.781 573.1L499.741 589.09C492.201 591.43 488.431 596.89 488.431 605.47C488.431 612.75 490.901 618.99 495.841 624.19C501.041 629.13 507.541 631.6 515.341 631.6Z" fill="#3C4043"/>
<path d="M707.541 749.38C695.321 749.38 684.791 747.3 675.951 743.14C667.111 738.98 660.221 733 655.281 725.2C650.601 717.4 648.261 708.17 648.261 697.51C651.901 693.09 657.101 687.63 663.861 681.13C670.881 674.89 678.551 668.65 686.871 662.41V660.07C673.351 657.73 662.951 653.31 655.671 646.81C648.651 640.31 644.881 631.99 644.361 621.85C649.041 617.43 654.111 613.14 659.571 608.98C665.031 604.56 670.881 600.53 677.121 596.89V591.43L697.401 598.06C689.341 602.22 683.491 605.99 679.851 609.37C676.471 612.49 674.781 615.74 674.781 619.12C674.781 624.32 677.901 628.22 684.141 630.82C690.381 633.16 698.311 634.98 707.931 636.28C717.811 637.32 728.211 638.49 739.131 639.79C750.311 641.09 760.711 643.17 770.331 646.03C780.211 648.63 788.271 652.53 794.511 657.73C800.751 663.19 803.871 670.73 803.871 680.35C803.871 688.93 801.141 697.38 795.681 705.7C790.481 714.02 783.201 721.43 773.841 727.93C764.741 734.43 754.471 739.63 743.031 743.53C731.591 747.43 719.761 749.38 707.541 749.38ZM720.801 730.27C730.941 730.27 740.431 728.45 749.271 724.81C758.111 721.43 765.261 716.75 770.721 710.77C776.181 704.79 778.911 698.42 778.911 691.66C778.911 686.46 776.961 682.3 773.061 679.18C769.161 676.06 761.751 673.2 750.831 670.6C740.171 668.26 724.441 665.79 703.641 663.19C695.841 668.65 689.861 674.63 685.701 681.13C681.541 687.89 679.461 694.52 679.461 701.02C679.461 709.86 683.231 716.88 690.771 722.08C698.311 727.54 708.321 730.27 720.801 730.27ZM722.361 587.14C734.321 587.14 743.681 583.37 750.441 575.83C757.461 568.29 760.971 557.89 760.971 544.63C760.971 529.55 756.811 517.33 748.491 507.97C740.171 498.61 729.381 493.93 716.121 493.93C704.161 493.93 694.671 497.83 687.651 505.63C680.891 513.43 677.511 523.96 677.511 537.22C677.511 552.04 681.671 564.13 689.991 573.49C698.311 582.59 709.101 587.14 722.361 587.14ZM713.391 604.3C700.651 604.3 689.341 601.83 679.461 596.89C669.841 591.69 662.171 584.67 656.451 575.83C650.991 566.73 648.261 556.46 648.261 545.02C648.261 532.02 651.511 520.19 658.011 509.53C664.771 498.87 673.611 490.29 684.531 483.79C695.711 477.29 707.801 474.04 720.801 474.04C728.081 474.04 734.971 474.82 741.471 476.38C748.231 477.68 754.081 478.33 759.021 478.33C764.221 477.81 771.501 476.51 780.861 474.43C790.481 472.35 801.141 469.75 812.841 466.63L814.011 468.19L809.721 490.03C804.001 490.81 798.021 491.46 791.781 491.98C785.541 492.5 780.341 493.02 776.181 493.54L774.621 495.49C785.021 506.93 790.221 520.19 790.221 535.27C790.221 548.01 786.711 559.58 779.691 569.98C772.931 580.38 763.701 588.7 752.001 594.94C740.561 601.18 727.691 604.3 713.391 604.3Z" fill="#3C4043"/>
<path d="M886.542 659.68C877.182 659.68 868.992 658.9 861.972 657.34C854.952 656.04 849.492 654.74 845.592 653.44C841.952 652.14 840.132 651.49 840.132 651.49L838.962 648.76C839.482 645.9 840.002 641.22 840.522 634.72C841.302 627.96 841.952 620.94 842.472 613.66C843.252 606.38 843.642 600.66 843.642 596.5L857.292 594.55C857.292 611.71 860.152 623.8 865.872 630.82C871.592 637.84 881.342 641.35 895.122 641.35C905.002 641.35 913.322 639.14 920.082 634.72C926.842 630.3 930.222 624.84 930.222 618.34C930.222 613.92 928.922 609.89 926.322 606.25C923.722 602.61 919.172 598.58 912.672 594.16C906.172 589.74 896.942 584.41 884.982 578.17C870.162 570.63 859.372 562.96 852.612 555.16C845.852 547.36 842.472 538.78 842.472 529.42C842.472 518.76 845.592 509.27 851.832 500.95C858.072 492.63 866.652 486.13 877.572 481.45C888.492 476.51 900.712 474.04 914.232 474.04C924.892 474.04 933.992 475.08 941.532 477.16C949.332 479.24 953.232 480.28 953.232 480.28L954.012 482.23C954.012 482.23 953.492 484.44 952.452 488.86C951.672 493.28 950.632 499.13 949.332 506.41C948.292 513.43 947.382 521.23 946.602 529.81L932.172 530.98C932.172 530.98 932.302 529.55 932.562 526.69C932.822 523.83 932.952 521.49 932.952 519.67C932.952 510.31 930.352 503.55 925.152 499.39C920.212 494.97 912.152 492.76 900.972 492.76C892.132 492.76 884.592 494.84 878.352 499C872.372 503.16 869.382 508.23 869.382 514.21C869.382 520.45 871.982 526.3 877.182 531.76C882.642 537.22 891.352 543.07 903.312 549.31C917.352 556.59 928.272 563.22 936.072 569.2C944.132 574.92 949.722 580.51 952.842 585.97C956.222 591.43 957.912 597.41 957.912 603.91C957.912 613.79 954.532 623.02 947.772 631.6C941.272 640.18 932.562 647.07 921.642 652.27C910.982 657.21 899.282 659.68 886.542 659.68Z" fill="#3C4043"/>
<path d="M1057.11 659.68C1039.43 659.68 1026.95 656.17 1019.67 649.15C1012.39 641.87 1008.75 629.65 1008.75 612.49V516.55C1008.75 509.53 1007.19 504.59 1004.07 501.73C1000.95 498.87 995.096 497.31 986.516 497.05L984.956 494.71L986.906 483.01C993.146 479.89 999.126 476.38 1004.85 472.48C1010.83 468.32 1016.03 464.42 1020.45 460.78C1025.13 456.88 1028.77 453.76 1031.37 451.42C1033.97 448.82 1035.27 447.52 1035.27 447.52L1043.07 450.64C1043.07 450.64 1042.68 453.11 1041.9 458.05C1041.38 462.99 1040.73 470.27 1039.95 479.89L1097.28 478.72L1098.45 479.89L1094.94 500.56L1038.39 499.39C1037.61 511.61 1036.96 525.91 1036.44 542.29C1035.92 558.67 1035.66 576.87 1035.66 596.89C1035.66 610.15 1037.87 619.51 1042.29 624.97C1046.97 630.43 1054.9 633.16 1066.08 633.16C1072.58 633.16 1078.56 631.99 1084.02 629.65C1089.74 627.31 1092.6 626.14 1092.6 626.14L1096.5 636.28C1096.5 636.28 1094.94 637.45 1091.82 639.79C1088.7 642.13 1084.8 644.86 1080.12 647.98C1075.7 651.1 1071.28 653.83 1066.86 656.17C1062.7 658.51 1059.45 659.68 1057.11 659.68Z" fill="#3C4043"/>
<path d="M1195.2 659.68C1180.38 659.68 1167.25 656.04 1155.81 648.76C1144.37 641.48 1135.4 631.34 1128.9 618.34C1122.66 605.08 1119.54 590 1119.54 573.1C1119.54 554.38 1123.44 537.61 1131.24 522.79C1139.3 507.71 1150.22 495.88 1164 487.3C1177.78 478.46 1193.12 474.04 1210.02 474.04C1224.84 474.04 1237.97 477.68 1249.41 484.96C1260.85 492.24 1269.69 502.38 1275.93 515.38C1282.43 528.38 1285.68 543.46 1285.68 560.62C1285.68 579.08 1281.65 595.85 1273.59 610.93C1265.79 626.01 1255 637.97 1241.22 646.81C1227.7 655.39 1212.36 659.68 1195.2 659.68ZM1206.12 640.57C1220.68 640.57 1232.25 634.72 1240.83 623.02C1249.41 611.06 1253.7 594.94 1253.7 574.66C1253.7 559.06 1251.36 545.28 1246.68 533.32C1242 521.36 1235.5 512 1227.18 505.24C1218.86 498.48 1209.24 495.1 1198.32 495.1C1183.76 495.1 1172.19 501.08 1163.61 513.04C1155.03 525 1150.74 541.25 1150.74 561.79C1150.74 577.39 1153.08 591.17 1157.76 603.13C1162.44 614.83 1168.94 624.06 1177.26 630.82C1185.58 637.32 1195.2 640.57 1206.12 640.57Z" fill="#3C4043"/>
<path d="M1427.26 643.69C1435.06 641.61 1440.65 638.62 1444.03 634.72C1447.41 630.56 1449.1 625.1 1449.1 618.34L1450.66 541.12C1450.66 528.12 1447.8 518.11 1442.08 511.09C1436.62 504.07 1428.69 500.56 1418.29 500.56C1412.05 500.56 1405.68 501.86 1399.18 504.46C1392.68 507.06 1386.83 509.92 1381.63 513.04C1376.69 516.16 1372.92 518.76 1370.32 520.84C1370.06 527.6 1369.67 535.66 1369.15 545.02C1368.89 554.12 1368.5 563.48 1367.98 573.1C1367.72 582.72 1367.46 591.43 1367.2 599.23C1366.94 607.03 1366.81 612.88 1366.81 616.78C1366.81 624.84 1367.85 630.56 1369.93 633.94C1372.27 637.06 1375.91 638.62 1380.85 638.62C1383.19 638.62 1386.05 638.49 1389.43 638.23C1392.81 637.97 1394.5 637.84 1394.5 637.84L1395.28 639.4L1391.77 656.17C1391.77 656.17 1389.82 656.04 1385.92 655.78C1382.02 655.52 1377.34 655.26 1371.88 655C1366.42 655 1361.22 655 1356.28 655C1350.82 655 1345.1 655.13 1339.12 655.39C1333.14 655.91 1328.07 656.3 1323.91 656.56C1319.75 657.08 1317.67 657.34 1317.67 657.34L1319.62 641.35C1327.16 640.05 1332.49 637.71 1335.61 634.33C1338.73 630.95 1340.29 625.62 1340.29 618.34V523.18C1340.29 514.34 1338.86 508.23 1336 504.85C1333.14 501.21 1328.2 499.39 1321.18 499.39H1316.89L1315.72 497.83L1316.89 484.96C1325.99 483.4 1334.7 481.84 1343.02 480.28C1351.34 478.46 1358.1 476.9 1363.3 475.6C1368.76 474.3 1371.49 473.65 1371.49 473.65L1373.83 476.77C1373.83 476.77 1373.18 479.37 1371.88 484.57C1370.84 489.77 1370.06 495.75 1369.54 502.51L1370.32 503.68C1372.66 502.12 1376.3 499.78 1381.24 496.66C1386.44 493.28 1391.9 489.9 1397.62 486.52C1403.6 483.14 1409.32 480.28 1414.78 477.94C1420.24 475.34 1424.53 474.04 1427.65 474.04C1444.03 474.04 1457.03 478.59 1466.65 487.69C1476.27 496.79 1481.08 509.01 1481.08 524.35C1481.08 527.73 1480.82 533.32 1480.3 541.12C1479.78 548.92 1479.13 557.63 1478.35 567.25C1477.57 576.87 1476.92 586.1 1476.4 594.94C1475.88 603.78 1475.62 611.06 1475.62 616.78C1475.62 624.32 1476.66 629.91 1478.74 633.55C1480.82 636.93 1484.33 638.62 1489.27 638.62C1491.61 638.62 1494.47 638.49 1497.85 638.23C1501.23 637.97 1502.92 637.84 1502.92 637.84L1503.7 639.4L1500.58 656.17C1500.58 656.17 1499.41 656.04 1497.07 655.78C1494.99 655.78 1492.13 655.65 1488.49 655.39C1485.11 655.39 1481.34 655.26 1477.18 655C1473.28 655 1469.51 655 1465.87 655C1461.71 655 1457.29 655.26 1452.61 655.78C1448.19 656.3 1443.9 656.82 1439.74 657.34C1435.58 657.86 1432.2 658.38 1429.6 658.9C1427 659.42 1425.7 659.68 1425.7 659.68L1427.26 643.69Z" fill="#3C4043"/>
<path d="M1609.34 659.68C1592.96 659.68 1578.66 656.04 1566.44 648.76C1554.22 641.48 1544.6 631.47 1537.58 618.73C1530.82 605.73 1527.44 590.65 1527.44 573.49C1527.44 560.23 1529.65 547.62 1534.07 535.66C1538.75 523.7 1545.12 513.17 1553.18 504.07C1561.24 494.71 1570.34 487.43 1580.48 482.23C1590.88 476.77 1601.93 474.04 1613.63 474.04C1652.37 474.04 1671.74 492.89 1671.74 530.59C1671.74 533.97 1671.48 537.48 1670.96 541.12C1670.44 544.76 1669.92 547.62 1669.4 549.7L1664.33 554.38H1556.69C1556.43 577.52 1560.59 595.85 1569.17 609.37C1578.01 622.63 1590.36 630.43 1606.22 632.77C1622.08 634.85 1640.8 630.95 1662.38 621.07L1664.72 621.85L1669.01 633.16C1663.81 636.8 1657.57 640.7 1650.29 644.86C1643.27 649.02 1636.12 652.53 1628.84 655.39C1621.56 658.25 1615.06 659.68 1609.34 659.68ZM1558.25 539.95L1628.84 536.44C1632.74 535.92 1635.34 535.01 1636.64 533.71C1637.94 532.41 1638.59 529.81 1638.59 525.91C1638.59 515.51 1635.73 507.58 1630.01 502.12C1624.55 496.66 1616.62 493.93 1606.22 493.93C1594.26 493.93 1583.86 498.09 1575.02 506.41C1566.18 514.47 1560.59 525.65 1558.25 539.95Z" fill="#3C4043"/>
<path d="M447.575 800.592C447.575 797.328 448.355 794.796 449.915 792.996C451.475 791.196 453.647 790.296 456.431 790.296C459.215 790.296 461.387 791.196 462.947 792.996C464.507 794.796 465.287 797.328 465.287 800.592V806.208C465.287 809.568 464.507 812.124 462.947 813.876C461.387 815.628 459.215 816.504 456.431 816.504C453.647 816.504 451.475 815.628 449.915 813.876C448.355 812.124 447.575 809.568 447.575 806.208V800.592ZM456.431 813.696C458.375 813.696 459.827 813.036 460.787 811.716C461.771 810.372 462.263 808.464 462.263 805.992V800.808C462.263 798.504 461.771 796.644 460.787 795.228C459.827 793.812 458.375 793.104 456.431 793.104C454.487 793.104 453.023 793.812 452.039 795.228C451.079 796.644 450.599 798.504 450.599 800.808V805.992C450.599 808.464 451.079 810.372 452.039 811.716C453.023 813.036 454.487 813.696 456.431 813.696Z" fill="#FF6D7F"/>
<path d="M473.542 805.632V816H470.518V790.8H479.518C480.814 790.8 481.942 790.992 482.902 791.376C483.862 791.736 484.654 792.228 485.278 792.852C485.926 793.476 486.406 794.208 486.718 795.048C487.054 795.864 487.222 796.728 487.222 797.64V798.72C487.222 799.632 487.054 800.508 486.718 801.348C486.406 802.188 485.926 802.932 485.278 803.58C484.63 804.204 483.826 804.708 482.866 805.092C481.906 805.452 480.79 805.632 479.518 805.632H473.542ZM473.542 802.824H479.158C482.518 802.824 484.198 801.384 484.198 798.504V797.856C484.198 796.584 483.778 795.564 482.938 794.796C482.122 794.004 480.862 793.608 479.158 793.608H473.542V802.824Z" fill="#FF6D7F"/>
<path d="M492.885 790.8H508.149V793.608H495.909V801.96H507.933V804.768H495.909V813.192H508.365V816H492.885V790.8Z" fill="#FF6D7F"/>
<path d="M527.492 814.704H527.924V790.8H530.948V816H524.9L517.628 792.096H517.196V816H514.172V790.8H520.22L527.492 814.704Z" fill="#FF6D7F"/>
<path d="M406.724 857.736H395.924L394.088 864H390.848L398.48 838.8H404.168L411.8 864H408.56L406.724 857.736ZM401.108 840.096L396.752 854.928H405.896L401.54 840.096H401.108Z" fill="#FF6D7F"/>
<path d="M418.435 853.632V864H415.411V838.8H424.411C425.707 838.8 426.835 838.992 427.795 839.376C428.755 839.736 429.547 840.228 430.171 840.852C430.819 841.476 431.299 842.208 431.611 843.048C431.947 843.864 432.115 844.728 432.115 845.64V846.72C432.115 847.632 431.947 848.508 431.611 849.348C431.299 850.188 430.819 850.932 430.171 851.58C429.523 852.204 428.719 852.708 427.759 853.092C426.799 853.452 425.683 853.632 424.411 853.632H418.435ZM418.435 850.824H424.051C427.411 850.824 429.091 849.384 429.091 846.504V845.856C429.091 844.584 428.671 843.564 427.831 842.796C427.015 842.004 425.755 841.608 424.051 841.608H418.435V850.824Z" fill="#FF6D7F"/>
<path d="M437.778 838.8H453.042V841.608H440.802V849.96H452.826V852.768H440.802V861.192H453.258V864H437.778V838.8Z" fill="#FF6D7F"/>
<path d="M475.337 864H472.313V855.576C472.313 854.952 472.169 854.472 471.881 854.136C471.593 853.8 471.089 853.632 470.369 853.632H462.521V864H459.497V838.8H468.497C469.793 838.8 470.921 838.992 471.881 839.376C472.841 839.736 473.633 840.228 474.257 840.852C474.905 841.476 475.385 842.208 475.697 843.048C476.033 843.864 476.201 844.728 476.201 845.64V846.72C476.201 847.656 475.937 848.592 475.409 849.528C474.905 850.464 474.113 851.184 473.033 851.688V852.12C473.753 852.24 474.317 852.528 474.725 852.984C475.133 853.44 475.337 854.088 475.337 854.928V864ZM462.521 850.824H468.137C469.841 850.824 471.101 850.464 471.917 849.744C472.757 849 473.177 847.92 473.177 846.504V845.856C473.177 844.584 472.757 843.564 471.917 842.796C471.101 842.004 469.841 841.608 468.137 841.608H462.521V850.824Z" fill="#FF6D7F"/>
<path d="M480.64 838.8H498.352V841.608H491.008V864H487.984V841.608H480.64V838.8Z" fill="#FF6D7F"/>
<path d="M505.923 838.8V855.504C505.923 857.544 506.39 859.092 507.326 860.148C508.287 861.18 509.69 861.696 511.538 861.696C513.386 861.696 514.779 861.18 515.715 860.148C516.675 859.092 517.155 857.544 517.155 855.504V838.8H520.179V855.504C520.179 858.432 519.41 860.664 517.874 862.2C516.338 863.736 514.226 864.504 511.538 864.504C508.85 864.504 506.738 863.736 505.202 862.2C503.666 860.664 502.898 858.432 502.898 855.504V838.8H505.923Z" fill="#FF6D7F"/>
<path d="M541.465 864H538.441V855.576C538.441 854.952 538.297 854.472 538.009 854.136C537.721 853.8 537.217 853.632 536.497 853.632H528.649V864H525.625V838.8H534.625C535.921 838.8 537.049 838.992 538.009 839.376C538.969 839.736 539.761 840.228 540.385 840.852C541.033 841.476 541.513 842.208 541.825 843.048C542.161 843.864 542.329 844.728 542.329 845.64V846.72C542.329 847.656 542.065 848.592 541.537 849.528C541.033 850.464 540.241 851.184 539.161 851.688V852.12C539.881 852.24 540.445 852.528 540.853 852.984C541.261 853.44 541.465 854.088 541.465 854.928V864ZM528.649 850.824H534.265C535.969 850.824 537.229 850.464 538.045 849.744C538.885 849 539.305 847.92 539.305 846.504V845.856C539.305 844.584 538.885 843.564 538.045 842.796C537.229 842.004 535.969 841.608 534.265 841.608H528.649V850.824Z" fill="#FF6D7F"/>
<path d="M547.992 838.8H563.256V841.608H551.016V849.96H563.04V852.768H551.016V861.192H563.472V864H547.992V838.8Z" fill="#FF6D7F"/>
<path d="M583.607 846.072C583.607 845.256 583.439 844.536 583.103 843.912C582.791 843.288 582.359 842.772 581.807 842.364C581.255 841.956 580.619 841.644 579.899 841.428C579.179 841.212 578.423 841.104 577.631 841.104C576.935 841.104 576.275 841.2 575.651 841.392C575.027 841.56 574.463 841.812 573.959 842.148C573.479 842.484 573.095 842.904 572.807 843.408C572.519 843.888 572.375 844.452 572.375 845.1V845.316C572.375 846.012 572.519 846.612 572.807 847.116C573.095 847.596 573.515 848.016 574.067 848.376C574.643 848.712 575.351 849 576.191 849.24C577.031 849.456 578.015 849.648 579.143 849.816C581.783 850.224 583.727 851.004 584.975 852.156C586.223 853.284 586.847 854.808 586.847 856.728V857.16C586.847 858.24 586.655 859.236 586.271 860.148C585.911 861.036 585.359 861.804 584.615 862.452C583.895 863.1 582.995 863.604 581.915 863.964C580.835 864.324 579.587 864.504 578.171 864.504C576.563 864.504 575.135 864.276 573.887 863.82C572.663 863.34 571.631 862.692 570.791 861.876C569.975 861.036 569.351 860.064 568.919 858.96C568.487 857.832 568.271 856.608 568.271 855.288V854.208H571.295V855.072C571.295 857.28 571.895 858.936 573.095 860.04C574.319 861.144 576.011 861.696 578.171 861.696C580.043 861.696 581.447 861.288 582.383 860.472C583.343 859.632 583.823 858.528 583.823 857.16V856.944C583.823 855.624 583.331 854.616 582.347 853.92C581.387 853.224 579.815 852.72 577.631 852.408C576.359 852.24 575.207 851.988 574.175 851.652C573.167 851.292 572.303 850.836 571.583 850.284C570.863 849.708 570.311 849.024 569.927 848.232C569.543 847.44 569.351 846.504 569.351 845.424V844.992C569.351 844.008 569.555 843.108 569.963 842.292C570.371 841.476 570.935 840.768 571.655 840.168C572.399 839.568 573.275 839.112 574.283 838.8C575.315 838.464 576.443 838.296 577.667 838.296C579.083 838.296 580.343 838.5 581.447 838.908C582.575 839.316 583.523 839.868 584.291 840.564C585.059 841.236 585.635 842.04 586.019 842.976C586.427 843.888 586.631 844.848 586.631 845.856V847.368H583.607V846.072Z" fill="#FF6D7F"/>
<path fill-rule="evenodd" clip-rule="evenodd" d="M482.999 556.479C478.064 555.543 474.332 551.207 474.332 546C474.332 540.109 479.108 535.333 484.999 535.333C490.89 535.333 495.665 540.109 495.665 546C495.665 551.207 491.934 555.543 486.999 556.479V761.5H482.999V556.479Z" fill="#FF6D7F"/>
<path fill-rule="evenodd" clip-rule="evenodd" d="M1254.92 716.236L1128.53 388.764L1132.27 387.324L1258.65 714.796L1254.92 716.236Z" fill="#FF6D7F"/>
<path d="M1143.96 786.8H1152.24C1155.36 786.8 1157.64 787.544 1159.08 789.032C1160.52 790.52 1161.24 792.896 1161.24 796.16V802.64C1161.24 805.904 1160.52 808.28 1159.08 809.768C1157.64 811.256 1155.36 812 1152.24 812H1143.96V809.156H1146.12V789.608H1143.96V786.8ZM1151.81 809.192C1152.91 809.192 1153.86 809.084 1154.65 808.868C1155.47 808.652 1156.14 808.292 1156.67 807.788C1157.19 807.26 1157.58 806.564 1157.82 805.7C1158.08 804.836 1158.21 803.744 1158.21 802.424V796.376C1158.21 795.056 1158.08 793.964 1157.82 793.1C1157.58 792.236 1157.19 791.552 1156.67 791.048C1156.14 790.52 1155.47 790.148 1154.65 789.932C1153.86 789.716 1152.91 789.608 1151.81 789.608H1149.14V809.192H1151.81Z" fill="#FF6D7F"/>
<path d="M1166.4 786.8H1182.38V789.608H1175.9V809.192H1182.38V812H1166.4V809.192H1172.88V789.608H1166.4V786.8Z" fill="#FF6D7F"/>
<path d="M1201.83 805.736H1191.03L1189.19 812H1185.95L1193.59 786.8H1199.27L1206.91 812H1203.67L1201.83 805.736ZM1196.21 788.096L1191.86 802.928H1201L1196.65 788.096H1196.21Z" fill="#FF6D7F"/>
<path d="M1216.06 799.904H1227.29V812H1224.49V808.976H1224.05C1223.65 810.032 1222.93 810.884 1221.89 811.532C1220.86 812.18 1219.66 812.504 1218.29 812.504C1215.58 812.504 1213.45 811.628 1211.89 809.876C1210.35 808.124 1209.58 805.568 1209.58 802.208V796.592C1209.58 793.328 1210.36 790.796 1211.92 788.996C1213.48 787.196 1215.65 786.296 1218.44 786.296C1219.88 786.296 1221.15 786.536 1222.25 787.016C1223.36 787.472 1224.28 788.12 1225.03 788.96C1225.77 789.776 1226.33 790.748 1226.72 791.876C1227.1 792.98 1227.29 794.168 1227.29 795.44V795.872H1224.27V795.44C1224.27 794.624 1224.15 793.832 1223.91 793.064C1223.69 792.296 1223.35 791.624 1222.87 791.048C1222.41 790.448 1221.81 789.98 1221.07 789.644C1220.35 789.284 1219.47 789.104 1218.44 789.104C1216.49 789.104 1215.03 789.812 1214.05 791.228C1213.09 792.644 1212.61 794.504 1212.61 796.808V801.992C1212.61 804.464 1213.09 806.372 1214.05 807.716C1215.03 809.036 1216.52 809.696 1218.51 809.696C1220.31 809.696 1221.71 809.12 1222.72 807.968C1223.75 806.816 1224.27 805.208 1224.27 803.144V802.712H1216.06V799.904Z" fill="#FF6D7F"/>
<path d="M1231.66 796.592C1231.66 793.328 1232.44 790.796 1234 788.996C1235.56 787.196 1237.73 786.296 1240.52 786.296C1243.3 786.296 1245.47 787.196 1247.03 788.996C1248.59 790.796 1249.37 793.328 1249.37 796.592V802.208C1249.37 805.568 1248.59 808.124 1247.03 809.876C1245.47 811.628 1243.3 812.504 1240.52 812.504C1237.73 812.504 1235.56 811.628 1234 809.876C1232.44 808.124 1231.66 805.568 1231.66 802.208V796.592ZM1240.52 809.696C1242.46 809.696 1243.91 809.036 1244.87 807.716C1245.86 806.372 1246.35 804.464 1246.35 801.992V796.808C1246.35 794.504 1245.86 792.644 1244.87 791.228C1243.91 789.812 1242.46 789.104 1240.52 789.104C1238.57 789.104 1237.11 789.812 1236.12 791.228C1235.16 792.644 1234.68 794.504 1234.68 796.808V801.992C1234.68 804.464 1235.16 806.372 1236.12 807.716C1237.11 809.036 1238.57 809.696 1240.52 809.696Z" fill="#FF6D7F"/>
<path d="M1267.49 810.704H1267.92V786.8H1270.95V812H1264.9L1257.63 788.096H1257.2V812H1254.17V786.8H1260.22L1267.49 810.704Z" fill="#FF6D7F"/>
<path d="M1290 805.736H1279.2L1277.37 812H1274.13L1281.76 786.8H1287.45L1295.08 812H1291.84L1290 805.736ZM1284.39 788.096L1280.03 802.928H1289.17L1284.82 788.096H1284.39Z" fill="#FF6D7F"/>
<path d="M1298.76 786.8H1301.79V809.192H1314.96V812H1298.76V786.8Z" fill="#FF6D7F"/>
<path d="M1201.83 853.736H1191.03L1189.19 860H1185.95L1193.59 834.8H1199.27L1206.91 860H1203.67L1201.83 853.736ZM1196.21 836.096L1191.86 850.928H1201L1196.65 836.096H1196.21Z" fill="#FF6D7F"/>
<path d="M1212.5 834.8L1218.15 845.96H1218.8L1224.45 834.8H1227.76L1221.46 847.148V847.58L1227.76 860H1224.45L1218.8 848.768H1218.15L1212.5 860H1209.19L1215.49 847.58V847.148L1209.19 834.8H1212.5Z" fill="#FF6D7F"/>
<path d="M1232.52 834.8H1248.51V837.608H1242.03V857.192H1248.51V860H1232.52V857.192H1239V837.608H1232.52V834.8Z" fill="#FF6D7F"/>
<path d="M1268.5 842.072C1268.5 841.256 1268.33 840.536 1268 839.912C1267.68 839.288 1267.25 838.772 1266.7 838.364C1266.15 837.956 1265.51 837.644 1264.79 837.428C1264.07 837.212 1263.32 837.104 1262.52 837.104C1261.83 837.104 1261.17 837.2 1260.54 837.392C1259.92 837.56 1259.36 837.812 1258.85 838.148C1258.37 838.484 1257.99 838.904 1257.7 839.408C1257.41 839.888 1257.27 840.452 1257.27 841.1V841.316C1257.27 842.012 1257.41 842.612 1257.7 843.116C1257.99 843.596 1258.41 844.016 1258.96 844.376C1259.54 844.712 1260.24 845 1261.08 845.24C1261.92 845.456 1262.91 845.648 1264.04 845.816C1266.68 846.224 1268.62 847.004 1269.87 848.156C1271.12 849.284 1271.74 850.808 1271.74 852.728V853.16C1271.74 854.24 1271.55 855.236 1271.16 856.148C1270.8 857.036 1270.25 857.804 1269.51 858.452C1268.79 859.1 1267.89 859.604 1266.81 859.964C1265.73 860.324 1264.48 860.504 1263.06 860.504C1261.46 860.504 1260.03 860.276 1258.78 859.82C1257.56 859.34 1256.52 858.692 1255.68 857.876C1254.87 857.036 1254.24 856.064 1253.81 854.96C1253.38 853.832 1253.16 852.608 1253.16 851.288V850.208H1256.19V851.072C1256.19 853.28 1256.79 854.936 1257.99 856.04C1259.21 857.144 1260.9 857.696 1263.06 857.696C1264.94 857.696 1266.34 857.288 1267.28 856.472C1268.24 855.632 1268.72 854.528 1268.72 853.16V852.944C1268.72 851.624 1268.22 850.616 1267.24 849.92C1266.28 849.224 1264.71 848.72 1262.52 848.408C1261.25 848.24 1260.1 847.988 1259.07 847.652C1258.06 847.292 1257.2 846.836 1256.48 846.284C1255.76 845.708 1255.2 845.024 1254.82 844.232C1254.44 843.44 1254.24 842.504 1254.24 841.424V840.992C1254.24 840.008 1254.45 839.108 1254.86 838.292C1255.26 837.476 1255.83 836.768 1256.55 836.168C1257.29 835.568 1258.17 835.112 1259.18 834.8C1260.21 834.464 1261.34 834.296 1262.56 834.296C1263.98 834.296 1265.24 834.5 1266.34 834.908C1267.47 835.316 1268.42 835.868 1269.18 836.564C1269.95 837.236 1270.53 838.04 1270.91 838.976C1271.32 839.888 1271.52 840.848 1271.52 841.856V843.368H1268.5V842.072Z" fill="#FF6D7F"/>
<circle cx="73" cy="76" r="24" fill="#D2E3FC"/>
<path d="M70.9825 83.464V65.176H70.3345L67.9585 73.816H63.4225V73.384L66.4465 62.8H75.7345V83.464H81.9985V88H63.8545V83.464H70.9825Z" fill="#1A73E8"/>
<path d="M111.628 62.8H119.908C123.028 62.8 125.308 63.544 126.748 65.032C128.188 66.52 128.908 68.896 128.908 72.16V78.64C128.908 81.904 128.188 84.28 126.748 85.768C125.308 87.256 123.028 88 119.908 88H111.628V85.156H113.788V65.608H111.628V62.8ZM119.476 85.192C120.58 85.192 121.528 85.084 122.32 84.868C123.136 84.652 123.808 84.292 124.336 83.788C124.864 83.26 125.248 82.564 125.488 81.7C125.752 80.836 125.884 79.744 125.884 78.424V72.376C125.884 71.056 125.752 69.964 125.488 69.1C125.248 68.236 124.864 67.552 124.336 67.048C123.808 66.52 123.136 66.148 122.32 65.932C121.528 65.716 120.58 65.608 119.476 65.608H116.812V85.192H119.476ZM140.547 79.144H139.899L132.015 62.8H135.399L141.843 76.552H142.275L148.719 62.8H152.103L144.219 79.144H143.571V88H140.547V79.144ZM169.034 86.704H169.466V62.8H172.49V88H166.442L159.17 64.096H158.738V88H155.714V62.8H161.762L169.034 86.704ZM191.545 81.736H180.745L178.909 88H175.669L183.301 62.8H188.989L196.621 88H193.381L191.545 81.736ZM185.929 64.096L181.573 78.928H190.717L186.361 64.096H185.929ZM198.828 62.8H204.588L207.972 86.704H208.404L211.788 62.8H217.548V88H214.74V64.096H214.308L210.924 88H205.452L202.068 64.096H201.636V88H198.828V62.8ZM222.239 62.8H238.223V65.608H231.743V85.192H238.223V88H222.239V85.192H228.719V65.608H222.239V62.8ZM252.418 85.696C253.45 85.696 254.326 85.528 255.046 85.192C255.79 84.832 256.39 84.364 256.846 83.788C257.326 83.188 257.674 82.516 257.89 81.772C258.13 81.004 258.25 80.2 258.25 79.36V78.928H261.274V79.36C261.274 80.632 261.082 81.832 260.698 82.96C260.314 84.064 259.75 85.036 259.006 85.876C258.262 86.692 257.338 87.34 256.234 87.82C255.13 88.276 253.858 88.504 252.418 88.504C249.634 88.504 247.462 87.628 245.902 85.876C244.342 84.124 243.562 81.568 243.562 78.208V72.592C243.562 69.328 244.342 66.796 245.902 64.996C247.462 63.196 249.634 62.296 252.418 62.296C253.858 62.296 255.13 62.536 256.234 63.016C257.338 63.472 258.262 64.12 259.006 64.96C259.75 65.776 260.314 66.748 260.698 67.876C261.082 68.98 261.274 70.168 261.274 71.44V71.872H258.25V71.44C258.226 70.624 258.094 69.832 257.854 69.064C257.638 68.296 257.29 67.624 256.81 67.048C256.354 66.448 255.766 65.98 255.046 65.644C254.326 65.284 253.45 65.104 252.418 65.104C250.474 65.104 249.01 65.812 248.026 67.228C247.066 68.644 246.586 70.504 246.586 72.808V77.992C246.586 80.464 247.066 82.372 248.026 83.716C249.01 85.036 250.474 85.696 252.418 85.696Z" fill="#1A73E8"/>
<circle cx="322" cy="76" r="24" fill="#D2E3FC"/>
<path d="M330.531 83.464V88H312.819V83.032C312.819 81.712 313.011 80.584 313.395 79.648C313.803 78.712 314.367 77.92 315.087 77.272C315.831 76.624 316.719 76.096 317.751 75.688C318.783 75.256 319.947 74.896 321.243 74.608C322.203 74.392 322.983 74.152 323.583 73.888C324.207 73.6 324.699 73.288 325.059 72.952C325.419 72.592 325.659 72.208 325.779 71.8C325.923 71.368 325.995 70.888 325.995 70.36C325.995 69.352 325.623 68.512 324.879 67.84C324.159 67.168 323.151 66.832 321.855 66.832C320.487 66.832 319.395 67.252 318.579 68.092C317.763 68.908 317.355 70.048 317.355 71.512V73.096H312.603V71.08C312.603 69.904 312.807 68.788 313.215 67.732C313.647 66.652 314.247 65.716 315.015 64.924C315.807 64.108 316.767 63.472 317.895 63.016C319.023 62.536 320.295 62.296 321.711 62.296C323.223 62.296 324.543 62.524 325.671 62.98C326.799 63.412 327.735 63.988 328.479 64.708C329.247 65.428 329.811 66.268 330.171 67.228C330.555 68.164 330.747 69.136 330.747 70.144V70.576C330.747 72.688 330.147 74.44 328.947 75.832C327.771 77.224 325.839 78.232 323.151 78.856C322.023 79.12 321.087 79.396 320.343 79.684C319.623 79.948 319.059 80.248 318.651 80.584C318.243 80.92 317.955 81.292 317.787 81.7C317.643 82.084 317.571 82.528 317.571 83.032V83.464H330.531Z" fill="#1A73E8"/>
<path d="M369.16 85.696C370.192 85.696 371.068 85.528 371.788 85.192C372.532 84.832 373.132 84.364 373.588 83.788C374.068 83.188 374.416 82.516 374.632 81.772C374.872 81.004 374.992 80.2 374.992 79.36V78.928H378.016V79.36C378.016 80.632 377.824 81.832 377.44 82.96C377.056 84.064 376.492 85.036 375.748 85.876C375.004 86.692 374.08 87.34 372.976 87.82C371.872 88.276 370.6 88.504 369.16 88.504C366.376 88.504 364.204 87.628 362.644 85.876C361.084 84.124 360.304 81.568 360.304 78.208V72.592C360.304 69.328 361.084 66.796 362.644 64.996C364.204 63.196 366.376 62.296 369.16 62.296C370.6 62.296 371.872 62.536 372.976 63.016C374.08 63.472 375.004 64.12 375.748 64.96C376.492 65.776 377.056 66.748 377.44 67.876C377.824 68.98 378.016 70.168 378.016 71.44V71.872H374.992V71.44C374.968 70.624 374.836 69.832 374.596 69.064C374.38 68.296 374.032 67.624 373.552 67.048C373.096 66.448 372.508 65.98 371.788 65.644C371.068 65.284 370.192 65.104 369.16 65.104C367.216 65.104 365.752 65.812 364.768 67.228C363.808 68.644 363.328 70.504 363.328 72.808V77.992C363.328 80.464 363.808 82.372 364.768 83.716C365.752 85.036 367.216 85.696 369.16 85.696ZM382.203 72.592C382.203 69.328 382.983 66.796 384.543 64.996C386.103 63.196 388.275 62.296 391.059 62.296C393.843 62.296 396.015 63.196 397.575 64.996C399.135 66.796 399.915 69.328 399.915 72.592V78.208C399.915 81.568 399.135 84.124 397.575 85.876C396.015 87.628 393.843 88.504 391.059 88.504C388.275 88.504 386.103 87.628 384.543 85.876C382.983 84.124 382.203 81.568 382.203 78.208V72.592ZM391.059 85.696C393.003 85.696 394.455 85.036 395.415 83.716C396.399 82.372 396.891 80.464 396.891 77.992V72.808C396.891 70.504 396.399 68.644 395.415 67.228C394.455 65.812 393.003 65.104 391.059 65.104C389.115 65.104 387.651 65.812 386.667 67.228C385.707 68.644 385.227 70.504 385.227 72.808V77.992C385.227 80.464 385.707 82.372 386.667 83.716C387.651 85.036 389.115 85.696 391.059 85.696ZM418.034 86.704H418.466V62.8H421.49V88H415.442L408.17 64.096H407.738V88H404.714V62.8H410.762L418.034 86.704ZM426.289 62.8H444.001V65.608H436.657V88H433.633V65.608H426.289V62.8ZM465.072 88H462.048V79.576C462.048 78.952 461.904 78.472 461.616 78.136C461.328 77.8 460.824 77.632 460.104 77.632H452.256V88H449.232V62.8H458.232C459.528 62.8 460.656 62.992 461.616 63.376C462.576 63.736 463.368 64.228 463.992 64.852C464.64 65.476 465.12 66.208 465.432 67.048C465.768 67.864 465.936 68.728 465.936 69.64V70.72C465.936 71.656 465.672 72.592 465.144 73.528C464.64 74.464 463.848 75.184 462.768 75.688V76.12C463.488 76.24 464.052 76.528 464.46 76.984C464.868 77.44 465.072 78.088 465.072 78.928V88ZM452.256 74.824H457.872C459.576 74.824 460.836 74.464 461.652 73.744C462.492 73 462.912 71.92 462.912 70.504V69.856C462.912 68.584 462.492 67.564 461.652 66.796C460.836 66.004 459.576 65.608 457.872 65.608H452.256V74.824ZM484.631 81.736H473.831L471.995 88H468.755L476.387 62.8H482.075L489.707 88H486.467L484.631 81.736ZM479.015 64.096L474.659 78.928H483.803L479.447 64.096H479.015ZM507.214 70.072C507.214 69.256 507.046 68.536 506.71 67.912C506.398 67.288 505.966 66.772 505.414 66.364C504.862 65.956 504.226 65.644 503.506 65.428C502.786 65.212 502.03 65.104 501.238 65.104C500.542 65.104 499.882 65.2 499.258 65.392C498.634 65.56 498.07 65.812 497.566 66.148C497.086 66.484 496.702 66.904 496.414 67.408C496.126 67.888 495.982 68.452 495.982 69.1V69.316C495.982 70.012 496.126 70.612 496.414 71.116C496.702 71.596 497.122 72.016 497.674 72.376C498.25 72.712 498.958 73 499.798 73.24C500.638 73.456 501.622 73.648 502.75 73.816C505.39 74.224 507.334 75.004 508.582 76.156C509.83 77.284 510.454 78.808 510.454 80.728V81.16C510.454 82.24 510.262 83.236 509.878 84.148C509.518 85.036 508.966 85.804 508.222 86.452C507.502 87.1 506.602 87.604 505.522 87.964C504.442 88.324 503.194 88.504 501.778 88.504C500.17 88.504 498.742 88.276 497.494 87.82C496.27 87.34 495.238 86.692 494.398 85.876C493.582 85.036 492.958 84.064 492.526 82.96C492.094 81.832 491.878 80.608 491.878 79.288V78.208H494.902V79.072C494.902 81.28 495.502 82.936 496.702 84.04C497.926 85.144 499.618 85.696 501.778 85.696C503.65 85.696 505.054 85.288 505.99 84.472C506.95 83.632 507.43 82.528 507.43 81.16V80.944C507.43 79.624 506.938 78.616 505.954 77.92C504.994 77.224 503.422 76.72 501.238 76.408C499.966 76.24 498.814 75.988 497.782 75.652C496.774 75.292 495.91 74.836 495.19 74.284C494.47 73.708 493.918 73.024 493.534 72.232C493.15 71.44 492.958 70.504 492.958 69.424V68.992C492.958 68.008 493.162 67.108 493.57 66.292C493.978 65.476 494.542 64.768 495.262 64.168C496.006 63.568 496.882 63.112 497.89 62.8C498.922 62.464 500.05 62.296 501.274 62.296C502.69 62.296 503.95 62.5 505.054 62.908C506.182 63.316 507.13 63.868 507.898 64.564C508.666 65.236 509.242 66.04 509.626 66.976C510.034 67.888 510.238 68.848 510.238 69.856V71.368H507.214V70.072ZM514.461 62.8H532.173V65.608H524.829V88H521.805V65.608H514.461V62.8ZM537.368 62.8H553.352V65.608H546.872V85.192H553.352V88H537.368V85.192H543.848V65.608H537.368V62.8ZM572.335 86.704H572.767V62.8H575.791V88H569.743L562.471 64.096H562.039V88H559.015V62.8H565.063L572.335 86.704ZM587.034 75.904H598.266V88H595.458V84.976H595.026C594.618 86.032 593.898 86.884 592.866 87.532C591.834 88.18 590.634 88.504 589.266 88.504C586.554 88.504 584.418 87.628 582.858 85.876C581.322 84.124 580.554 81.568 580.554 78.208V72.592C580.554 69.328 581.334 66.796 582.894 64.996C584.454 63.196 586.626 62.296 589.41 62.296C590.85 62.296 592.122 62.536 593.226 63.016C594.33 63.472 595.254 64.12 595.998 64.96C596.742 65.776 597.306 66.748 597.69 67.876C598.074 68.98 598.266 70.168 598.266 71.44V71.872H595.242V71.44C595.242 70.624 595.122 69.832 594.882 69.064C594.666 68.296 594.318 67.624 593.838 67.048C593.382 66.448 592.782 65.98 592.038 65.644C591.318 65.284 590.442 65.104 589.41 65.104C587.466 65.104 586.002 65.812 585.018 67.228C584.058 68.644 583.578 70.504 583.578 72.808V77.992C583.578 80.464 584.058 82.372 585.018 83.716C586.002 85.036 587.49 85.696 589.482 85.696C591.282 85.696 592.686 85.12 593.694 83.968C594.726 82.816 595.242 81.208 595.242 79.144V78.712H587.034V75.904ZM639.472 70.072C639.472 69.256 639.304 68.536 638.968 67.912C638.656 67.288 638.224 66.772 637.672 66.364C637.12 65.956 636.484 65.644 635.764 65.428C635.044 65.212 634.288 65.104 633.496 65.104C632.8 65.104 632.14 65.2 631.516 65.392C630.892 65.56 630.328 65.812 629.824 66.148C629.344 66.484 628.96 66.904 628.672 67.408C628.384 67.888 628.24 68.452 628.24 69.1V69.316C628.24 70.012 628.384 70.612 628.672 71.116C628.96 71.596 629.38 72.016 629.932 72.376C630.508 72.712 631.216 73 632.056 73.24C632.896 73.456 633.88 73.648 635.008 73.816C637.648 74.224 639.592 75.004 640.84 76.156C642.088 77.284 642.712 78.808 642.712 80.728V81.16C642.712 82.24 642.52 83.236 642.136 84.148C641.776 85.036 641.224 85.804 640.48 86.452C639.76 87.1 638.86 87.604 637.78 87.964C636.7 88.324 635.452 88.504 634.036 88.504C632.428 88.504 631 88.276 629.752 87.82C628.528 87.34 627.496 86.692 626.656 85.876C625.84 85.036 625.216 84.064 624.784 82.96C624.352 81.832 624.136 80.608 624.136 79.288V78.208H627.16V79.072C627.16 81.28 627.76 82.936 628.96 84.04C630.184 85.144 631.876 85.696 634.036 85.696C635.908 85.696 637.312 85.288 638.248 84.472C639.208 83.632 639.688 82.528 639.688 81.16V80.944C639.688 79.624 639.196 78.616 638.212 77.92C637.252 77.224 635.68 76.72 633.496 76.408C632.224 76.24 631.072 75.988 630.04 75.652C629.032 75.292 628.168 74.836 627.448 74.284C626.728 73.708 626.176 73.024 625.792 72.232C625.408 71.44 625.216 70.504 625.216 69.424V68.992C625.216 68.008 625.42 67.108 625.828 66.292C626.236 65.476 626.8 64.768 627.52 64.168C628.264 63.568 629.14 63.112 630.148 62.8C631.18 62.464 632.308 62.296 633.532 62.296C634.948 62.296 636.208 62.5 637.312 62.908C638.44 63.316 639.388 63.868 640.156 64.564C640.924 65.236 641.5 66.04 641.884 66.976C642.292 67.888 642.496 68.848 642.496 69.856V71.368H639.472V70.072ZM647.943 62.8H663.207V65.608H650.967V73.96H662.991V76.768H650.967V85.192H663.423V88H647.943V62.8ZM685.502 88H682.478V79.576C682.478 78.952 682.334 78.472 682.046 78.136C681.758 77.8 681.254 77.632 680.534 77.632H672.686V88H669.662V62.8H678.662C679.958 62.8 681.086 62.992 682.046 63.376C683.006 63.736 683.798 64.228 684.422 64.852C685.07 65.476 685.55 66.208 685.862 67.048C686.198 67.864 686.366 68.728 686.366 69.64V70.72C686.366 71.656 686.102 72.592 685.574 73.528C685.07 74.464 684.278 75.184 683.198 75.688V76.12C683.918 76.24 684.482 76.528 684.89 76.984C685.298 77.44 685.502 78.088 685.502 78.928V88ZM672.686 74.824H678.302C680.006 74.824 681.266 74.464 682.082 73.744C682.922 73 683.342 71.92 683.342 70.504V69.856C683.342 68.584 682.922 67.564 682.082 66.796C681.266 66.004 680.006 65.608 678.302 65.608H672.686V74.824ZM691.669 62.8H707.653V65.608H701.173V85.192H707.653V88H691.669V85.192H698.149V65.608H691.669V62.8ZM714.108 62.8H729.588V65.608H717.132V73.96H729.372V76.768H717.132V88H714.108V62.8Z" fill="#1A73E8"/>
</svg>
