<svg xmlns="http://www.w3.org/2000/svg" width="1920" height="1080" fill="none"><path fill="#FF6D7F" d="M516 534.5c0 22.368-18.132 40.5-40.5 40.5S435 556.868 435 534.5s18.132-40.5 40.5-40.5 40.5 18.132 40.5 40.5ZM1680 602c0 22.644-18.36 41-41 41s-41-18.356-41-41 18.36-41 41-41 41 18.356 41 41Z" opacity=".25"/><path fill="#FF6D7F" d="M437.573 799.592c0-3.264.78-5.796 2.34-7.596 1.56-1.8 3.732-2.7 6.516-2.7s4.956.9 6.516 2.7c1.56 1.8 2.34 4.332 2.34 7.596v5.616c0 3.36-.78 5.916-2.34 7.668-1.56 1.752-3.732 2.628-6.516 2.628s-4.956-.876-6.516-2.628c-1.56-1.752-2.34-4.308-2.34-7.668v-5.616Zm8.856 13.104c1.944 0 3.396-.66 4.356-1.98.984-1.344 1.476-3.252 1.476-5.724v-5.184c0-2.304-.492-4.164-1.476-5.58-.96-1.416-2.412-2.124-4.356-2.124s-3.408.708-4.392 2.124c-.96 1.416-1.44 3.276-1.44 5.58v5.184c0 2.472.48 4.38 1.44 5.724.984 1.32 2.448 1.98 4.392 1.98ZM463.54 804.632V815h-3.024v-25.2h9c1.296 0 2.424.192 3.384.576.96.36 1.752.852 2.376 1.476a5.83 5.83 0 0 1 1.44 2.196 6.74 6.74 0 0 1 .504 2.592v1.08c0 .912-.168 1.788-.504 2.628a6.158 6.158 0 0 1-1.44 2.232c-.648.624-1.452 1.128-2.412 1.512-.96.36-2.076.54-3.348.54h-5.976Zm0-2.808h5.616c3.36 0 5.04-1.44 5.04-4.32v-.648c0-1.272-.42-2.292-1.26-3.06-.816-.792-2.076-1.188-3.78-1.188h-5.616v9.216ZM482.883 789.8h15.264v2.808h-12.24v8.352h12.024v2.808h-12.024v8.424h12.456V815h-15.48v-25.2ZM517.49 813.704h.432V789.8h3.024V815h-6.048l-7.272-23.904h-.432V815h-3.024v-25.2h6.048l7.272 23.904ZM396.722 856.736h-10.8L384.086 863h-3.24l7.632-25.2h5.688l7.632 25.2h-3.24l-1.836-6.264Zm-5.616-17.64-4.356 14.832h9.144l-4.356-14.832h-.432ZM408.433 852.632V863h-3.024v-25.2h9c1.296 0 2.424.192 3.384.576.96.36 1.752.852 2.376 1.476a5.83 5.83 0 0 1 1.44 2.196 6.74 6.74 0 0 1 .504 2.592v1.08c0 .912-.168 1.788-.504 2.628a6.158 6.158 0 0 1-1.44 2.232c-.648.624-1.452 1.128-2.412 1.512-.96.36-2.076.54-3.348.54h-5.976Zm0-2.808h5.616c3.36 0 5.04-1.44 5.04-4.32v-.648c0-1.272-.42-2.292-1.26-3.06-.816-.792-2.076-1.188-3.78-1.188h-5.616v9.216ZM427.776 837.8h15.264v2.808H430.8v8.352h12.024v2.808H430.8v8.424h12.456V863h-15.48v-25.2ZM465.335 863h-3.024v-8.424c0-.624-.144-1.104-.432-1.44-.288-.336-.792-.504-1.512-.504h-7.848V863h-3.024v-25.2h9c1.296 0 2.424.192 3.384.576.96.36 1.752.852 2.376 1.476a5.83 5.83 0 0 1 1.44 2.196 6.74 6.74 0 0 1 .504 2.592v1.08c0 .936-.264 1.872-.792 2.808-.504.936-1.296 1.656-2.376 2.16v.432c.72.12 1.284.408 1.692.864.408.456.612 1.104.612 1.944V863Zm-12.816-13.176h5.616c1.704 0 2.964-.36 3.78-1.08.84-.744 1.26-1.824 1.26-3.24v-.648c0-1.272-.42-2.292-1.26-3.06-.816-.792-2.076-1.188-3.78-1.188h-5.616v9.216ZM470.638 837.8h17.712v2.808h-7.344V863h-3.024v-22.392h-7.344V837.8ZM495.921 837.8v16.704c0 2.04.468 3.588 1.404 4.644.96 1.032 2.364 1.548 4.212 1.548 1.848 0 3.24-.516 4.176-1.548.96-1.056 1.44-2.604 1.44-4.644V837.8h3.024v16.704c0 2.928-.768 5.16-2.304 6.696-1.536 1.536-3.648 2.304-6.336 2.304s-4.8-.768-6.336-2.304c-1.536-1.536-2.304-3.768-2.304-6.696V837.8h3.024ZM531.464 863h-3.024v-8.424c0-.624-.144-1.104-.432-1.44-.288-.336-.792-.504-1.512-.504h-7.848V863h-3.024v-25.2h9c1.296 0 2.424.192 3.384.576.96.36 1.752.852 2.376 1.476a5.83 5.83 0 0 1 1.44 2.196 6.74 6.74 0 0 1 .504 2.592v1.08c0 .936-.264 1.872-.792 2.808-.504.936-1.296 1.656-2.376 2.16v.432c.72.12 1.284.408 1.692.864.408.456.612 1.104.612 1.944V863Zm-12.816-13.176h5.616c1.704 0 2.964-.36 3.78-1.08.84-.744 1.26-1.824 1.26-3.24v-.648c0-1.272-.42-2.292-1.26-3.06-.816-.792-2.076-1.188-3.78-1.188h-5.616v9.216ZM537.99 837.8h15.264v2.808h-12.24v8.352h12.024v2.808h-12.024v8.424h12.456V863h-15.48v-25.2ZM573.605 845.072c0-.816-.168-1.536-.504-2.16a4.27 4.27 0 0 0-1.296-1.548 6.154 6.154 0 0 0-1.908-.936 7.85 7.85 0 0 0-2.268-.324c-.696 0-1.356.096-1.98.288a5.694 5.694 0 0 0-1.692.756c-.48.336-.864.756-1.152 1.26-.288.48-.432 1.044-.432 1.692v.216c0 .696.144 1.296.432 1.8.288.48.708.9 1.26 1.26.576.336 1.284.624 2.124.864.84.216 1.824.408 2.952.576 2.64.408 4.584 1.188 5.832 2.34 1.248 1.128 1.872 2.652 1.872 4.572v.432c0 1.08-.192 2.076-.576 2.988a6.023 6.023 0 0 1-1.656 2.304c-.72.648-1.62 1.152-2.7 1.512-1.08.36-2.328.54-3.744.54-1.608 0-3.036-.228-4.284-.684-1.224-.48-2.256-1.128-3.096-1.944a8.68 8.68 0 0 1-1.872-2.916c-.432-1.128-.648-2.352-.648-3.672v-1.08h3.024v.864c0 2.208.6 3.864 1.8 4.968 1.224 1.104 2.916 1.656 5.076 1.656 1.872 0 3.276-.408 4.212-1.224.96-.84 1.44-1.944 1.44-3.312v-.216c0-1.32-.492-2.328-1.476-3.024-.96-.696-2.532-1.2-4.716-1.512-1.272-.168-2.424-.42-3.456-.756-1.008-.36-1.872-.816-2.592-1.368a5.91 5.91 0 0 1-1.656-2.052c-.384-.792-.576-1.728-.576-2.808v-.432c0-.984.204-1.884.612-2.7a6.563 6.563 0 0 1 1.692-2.124c.744-.6 1.62-1.056 2.628-1.368 1.032-.336 2.16-.504 3.384-.504 1.416 0 2.676.204 3.78.612 1.128.408 2.076.96 2.844 1.656a6.386 6.386 0 0 1 1.728 2.412c.408.912.612 1.872.612 2.88v1.512h-3.024v-1.296ZM1143.96 786.8h8.28c3.12 0 5.4.744 6.84 2.232 1.44 1.488 2.16 3.864 2.16 7.128v6.48c0 3.264-.72 5.64-2.16 7.128-1.44 1.488-3.72 2.232-6.84 2.232h-8.28v-2.844h2.16v-19.548h-2.16V786.8Zm7.85 22.392c1.1 0 2.05-.108 2.84-.324.82-.216 1.49-.576 2.02-1.08.52-.528.91-1.224 1.15-2.088.26-.864.39-1.956.39-3.276v-6.048c0-1.32-.13-2.412-.39-3.276-.24-.864-.63-1.548-1.15-2.052-.53-.528-1.2-.9-2.02-1.116-.79-.216-1.74-.324-2.84-.324h-2.67v19.584h2.67ZM1166.4 786.8h15.98v2.808h-6.48v19.584h6.48V812h-15.98v-2.808h6.48v-19.584h-6.48V786.8ZM1201.83 805.736h-10.8l-1.84 6.264h-3.24l7.64-25.2h5.68l7.64 25.2h-3.24l-1.84-6.264Zm-5.62-17.64-4.35 14.832h9.14l-4.35-14.832h-.44ZM1216.06 799.904h11.23V812h-2.8v-3.024h-.44c-.4 1.056-1.12 1.908-2.16 2.556-1.03.648-2.23.972-3.6.972-2.71 0-4.84-.876-6.4-2.628-1.54-1.752-2.31-4.308-2.31-7.668v-5.616c0-3.264.78-5.796 2.34-7.596 1.56-1.8 3.73-2.7 6.52-2.7 1.44 0 2.71.24 3.81.72a7.458 7.458 0 0 1 2.78 1.944c.74.816 1.3 1.788 1.69 2.916.38 1.104.57 2.292.57 3.564v.432h-3.02v-.432a7.92 7.92 0 0 0-.36-2.376c-.22-.768-.56-1.44-1.04-2.016a4.636 4.636 0 0 0-1.8-1.404c-.72-.36-1.6-.54-2.63-.54-1.95 0-3.41.708-4.39 2.124-.96 1.416-1.44 3.276-1.44 5.58v5.184c0 2.472.48 4.38 1.44 5.724.98 1.32 2.47 1.98 4.46 1.98 1.8 0 3.2-.576 4.21-1.728 1.03-1.152 1.55-2.76 1.55-4.824v-.432h-8.21v-2.808ZM1231.66 796.592c0-3.264.78-5.796 2.34-7.596 1.56-1.8 3.73-2.7 6.52-2.7 2.78 0 4.95.9 6.51 2.7 1.56 1.8 2.34 4.332 2.34 7.596v5.616c0 3.36-.78 5.916-2.34 7.668-1.56 1.752-3.73 2.628-6.51 2.628-2.79 0-4.96-.876-6.52-2.628-1.56-1.752-2.34-4.308-2.34-7.668v-5.616Zm8.86 13.104c1.94 0 3.39-.66 4.35-1.98.99-1.344 1.48-3.252 1.48-5.724v-5.184c0-2.304-.49-4.164-1.48-5.58-.96-1.416-2.41-2.124-4.35-2.124-1.95 0-3.41.708-4.4 2.124-.96 1.416-1.44 3.276-1.44 5.58v5.184c0 2.472.48 4.38 1.44 5.724.99 1.32 2.45 1.98 4.4 1.98ZM1267.49 810.704h.43V786.8h3.03V812h-6.05l-7.27-23.904h-.43V812h-3.03v-25.2h6.05l7.27 23.904ZM1290 805.736h-10.8l-1.83 6.264h-3.24l7.63-25.2h5.69l7.63 25.2h-3.24l-1.84-6.264Zm-5.61-17.64-4.36 14.832h9.14l-4.35-14.832h-.43ZM1298.76 786.8h3.03v22.392h13.17V812h-16.2v-25.2ZM1201.83 853.736h-10.8l-1.84 6.264h-3.24l7.64-25.2h5.68l7.64 25.2h-3.24l-1.84-6.264Zm-5.62-17.64-4.35 14.832h9.14l-4.35-14.832h-.44ZM1212.5 834.8l5.65 11.16h.65l5.65-11.16h3.31l-6.3 12.348v.432l6.3 12.42h-3.31l-5.65-11.232h-.65L1212.5 860h-3.31l6.3-12.42v-.432l-6.3-12.348h3.31ZM1232.52 834.8h15.99v2.808h-6.48v19.584h6.48V860h-15.99v-2.808h6.48v-19.584h-6.48V834.8ZM1268.5 842.072c0-.816-.17-1.536-.5-2.16a4.382 4.382 0 0 0-1.3-1.548 6.143 6.143 0 0 0-1.91-.936 7.825 7.825 0 0 0-2.27-.324c-.69 0-1.35.096-1.98.288-.62.168-1.18.42-1.69.756-.48.336-.86.756-1.15 1.26-.29.48-.43 1.044-.43 1.692v.216c0 .696.14 1.296.43 1.8.29.48.71.9 1.26 1.26.58.336 1.28.624 2.12.864.84.216 1.83.408 2.96.576 2.64.408 4.58 1.188 5.83 2.34 1.25 1.128 1.87 2.652 1.87 4.572v.432c0 1.08-.19 2.076-.58 2.988a6.05 6.05 0 0 1-1.65 2.304c-.72.648-1.62 1.152-2.7 1.512-1.08.36-2.33.54-3.75.54-1.6 0-3.03-.228-4.28-.684-1.22-.48-2.26-1.128-3.1-1.944a8.737 8.737 0 0 1-1.87-2.916c-.43-1.128-.65-2.352-.65-3.672v-1.08h3.03v.864c0 2.208.6 3.864 1.8 4.968 1.22 1.104 2.91 1.656 5.07 1.656 1.88 0 3.28-.408 4.22-1.224.96-.84 1.44-1.944 1.44-3.312v-.216c0-1.32-.5-2.328-1.48-3.024-.96-.696-2.53-1.2-4.72-1.512-1.27-.168-2.42-.42-3.45-.756-1.01-.36-1.87-.816-2.59-1.368a5.877 5.877 0 0 1-1.66-2.052c-.38-.792-.58-1.728-.58-2.808v-.432c0-.984.21-1.884.62-2.7.4-.816.97-1.524 1.69-2.124.74-.6 1.62-1.056 2.63-1.368 1.03-.336 2.16-.504 3.38-.504 1.42 0 2.68.204 3.78.612 1.13.408 2.08.96 2.84 1.656a6.327 6.327 0 0 1 1.73 2.412c.41.912.61 1.872.61 2.88v1.512h-3.02v-1.296Z"/><circle cx="73" cy="76" r="24" fill="#D2E3FC"/><path fill="#1A73E8" d="M71.162 85.192v-21.06h-.431L66.59 73.6h-2.988v-.216L68.317 62.8h5.868v22.392h7.128V88h-17.28v-2.808h7.128ZM111.628 62.8h8.28c3.12 0 5.4.744 6.84 2.232 1.44 1.488 2.16 3.864 2.16 7.128v6.48c0 3.264-.72 5.64-2.16 7.128-1.44 1.488-3.72 2.232-6.84 2.232h-8.28v-2.844h2.16V65.608h-2.16V62.8Zm7.848 22.392c1.104 0 2.052-.108 2.844-.324.816-.216 1.488-.576 2.016-1.08.528-.528.912-1.224 1.152-2.088.264-.864.396-1.956.396-3.276v-6.048c0-1.32-.132-2.412-.396-3.276-.24-.864-.624-1.548-1.152-2.052-.528-.528-1.2-.9-2.016-1.116-.792-.216-1.74-.324-2.844-.324h-2.664v19.584h2.664Zm21.071-6.048h-.648L132.015 62.8h3.384l6.444 13.752h.432l6.444-13.752h3.384l-7.884 16.344h-.648V88h-3.024v-8.856Zm28.487 7.56h.432V62.8h3.024V88h-6.048l-7.272-23.904h-.432V88h-3.024V62.8h6.048l7.272 23.904Zm22.511-4.968h-10.8L178.909 88h-3.24l7.632-25.2h5.688l7.632 25.2h-3.24l-1.836-6.264Zm-5.616-17.64-4.356 14.832h9.144l-4.356-14.832h-.432Zm12.899-1.296h5.76l3.384 23.904h.432l3.384-23.904h5.76V88h-2.808V64.096h-.432L210.924 88h-5.472l-3.384-23.904h-.432V88h-2.808V62.8Zm23.411 0h15.984v2.808h-6.48v19.584h6.48V88h-15.984v-2.808h6.48V65.608h-6.48V62.8Zm30.179 22.896c1.032 0 1.908-.168 2.628-.504.744-.36 1.344-.828 1.8-1.404a5.77 5.77 0 0 0 1.044-2.016 8.04 8.04 0 0 0 .36-2.412v-.432h3.024v.432c0 1.272-.192 2.472-.576 3.6a8.618 8.618 0 0 1-1.692 2.916c-.744.816-1.668 1.464-2.772 1.944-1.104.456-2.376.684-3.816.684-2.784 0-4.956-.876-6.516-2.628-1.56-1.752-2.34-4.308-2.34-7.668v-5.616c0-3.264.78-5.796 2.34-7.596 1.56-1.8 3.732-2.7 6.516-2.7 1.44 0 2.712.24 3.816.72 1.104.456 2.028 1.104 2.772 1.944.744.816 1.308 1.788 1.692 2.916.384 1.104.576 2.292.576 3.564v.432h-3.024v-.432a8.795 8.795 0 0 0-.396-2.376 5.383 5.383 0 0 0-1.044-2.016 4.636 4.636 0 0 0-1.764-1.404c-.72-.36-1.596-.54-2.628-.54-1.944 0-3.408.708-4.392 2.124-.96 1.416-1.44 3.276-1.44 5.58v5.184c0 2.472.48 4.38 1.44 5.724.984 1.32 2.448 1.98 4.392 1.98Z"/><circle cx="322" cy="76" r="24" fill="#D2E3FC"/><path fill="#1A73E8" d="M330.063 85.192V88h-17.064v-4.32c0-1.152.192-2.148.576-2.988a6.163 6.163 0 0 1 1.62-2.196c.72-.624 1.584-1.14 2.592-1.548 1.008-.408 2.148-.756 3.42-1.044 2.136-.48 3.672-1.164 4.608-2.052.96-.888 1.44-1.98 1.44-3.276v-.216c0-.648-.108-1.284-.324-1.908a4.882 4.882 0 0 0-1.008-1.692c-.456-.504-1.044-.9-1.764-1.188-.696-.312-1.536-.468-2.52-.468-1.848 0-3.288.564-4.32 1.692-1.008 1.128-1.512 2.628-1.512 4.5v1.584h-3.024v-1.8c0-1.152.192-2.256.576-3.312a8.37 8.37 0 0 1 1.692-2.808c.744-.816 1.668-1.464 2.772-1.944 1.104-.48 2.376-.72 3.816-.72 1.464 0 2.736.228 3.816.684 1.08.432 1.98 1.02 2.7 1.764a6.659 6.659 0 0 1 1.584 2.484c.36.912.54 1.848.54 2.808v.648c0 1.92-.6 3.564-1.8 4.932-1.2 1.344-3.12 2.304-5.76 2.88-2.304.504-3.996 1.176-5.076 2.016-1.08.816-1.62 2.016-1.62 3.6v1.08h14.04ZM361.132 62.8h3.024v22.392h13.176V88h-16.2V62.8Zm21.935 0h15.984v2.808h-6.48v19.584h6.48V88h-15.984v-2.808h6.48V65.608h-6.48V62.8Zm34.967 23.904h.432V62.8h3.024V88h-6.048l-7.272-23.904h-.432V88h-3.024V62.8h6.048l7.272 23.904Zm9.479-23.904h15.264v2.808h-12.24v8.352h12.024v2.808h-12.024v8.424h12.456V88h-15.48V62.8Zm35.075 18.936h-10.8L449.952 88h-3.24l7.632-25.2h5.688l7.632 25.2h-3.24l-1.836-6.264Zm-5.616-17.64-4.356 14.832h9.144l-4.356-14.832h-.432ZM487.115 88h-3.024v-8.424c0-.624-.144-1.104-.432-1.44-.288-.336-.792-.504-1.512-.504h-7.848V88h-3.024V62.8h9c1.296 0 2.424.192 3.384.576.96.36 1.752.852 2.376 1.476a5.83 5.83 0 0 1 1.44 2.196 6.74 6.74 0 0 1 .504 2.592v1.08c0 .936-.264 1.872-.792 2.808-.504.936-1.296 1.656-2.376 2.16v.432c.72.12 1.284.408 1.692.864.408.456.612 1.104.612 1.944V88Zm-12.816-13.176h5.616c1.704 0 2.964-.36 3.78-1.08.84-.744 1.26-1.824 1.26-3.24v-.648c0-1.272-.42-2.292-1.26-3.06-.816-.792-2.076-1.188-3.78-1.188h-5.616v9.216Zm54.958-4.752c0-.816-.168-1.536-.504-2.16a4.27 4.27 0 0 0-1.296-1.548 6.154 6.154 0 0 0-1.908-.936 7.85 7.85 0 0 0-2.268-.324c-.696 0-1.356.096-1.98.288a5.694 5.694 0 0 0-1.692.756c-.48.336-.864.756-1.152 1.26-.288.48-.432 1.044-.432 1.692v.216c0 .696.144 1.296.432 1.8.288.48.708.9 1.26 1.26.576.336 1.284.624 2.124.864.84.216 1.824.408 2.952.576 2.64.408 4.584 1.188 5.832 2.34 1.248 1.128 1.872 2.652 1.872 4.572v.432c0 1.08-.192 2.076-.576 2.988a6.023 6.023 0 0 1-1.656 2.304c-.72.648-1.62 1.152-2.7 1.512-1.08.36-2.328.54-3.744.54-1.608 0-3.036-.228-4.284-.684-1.224-.48-2.256-1.128-3.096-1.944a8.68 8.68 0 0 1-1.872-2.916c-.432-1.128-.648-2.352-.648-3.672v-1.08h3.024v.864c0 2.208.6 3.864 1.8 4.968 1.224 1.104 2.916 1.656 5.076 1.656 1.872 0 3.276-.408 4.212-1.224.96-.84 1.44-1.944 1.44-3.312v-.216c0-1.32-.492-2.328-1.476-3.024-.96-.696-2.532-1.2-4.716-1.512-1.272-.168-2.424-.42-3.456-.756-1.008-.36-1.872-.816-2.592-1.368a5.91 5.91 0 0 1-1.656-2.052c-.384-.792-.576-1.728-.576-2.808v-.432c0-.984.204-1.884.612-2.7a6.563 6.563 0 0 1 1.692-2.124c.744-.6 1.62-1.056 2.628-1.368 1.032-.336 2.16-.504 3.384-.504 1.416 0 2.676.204 3.78.612 1.128.408 2.076.96 2.844 1.656a6.386 6.386 0 0 1 1.728 2.412c.408.912.612 1.872.612 2.88v1.512h-3.024v-1.296Zm21.503 11.664h-10.8L538.124 88h-3.24l7.632-25.2h5.688l7.632 25.2h-3.24l-1.836-6.264Zm-5.616-17.64-4.356 14.832h9.144l-4.356-14.832h-.432Zm27.191 22.608h.432V62.8h3.024V88h-6.048l-7.272-23.904h-.432V88h-3.024V62.8h6.048l7.272 23.904Zm23.051-16.632c0-.816-.168-1.536-.504-2.16a4.27 4.27 0 0 0-1.296-1.548 6.154 6.154 0 0 0-1.908-.936 7.85 7.85 0 0 0-2.268-.324c-.696 0-1.356.096-1.98.288a5.694 5.694 0 0 0-1.692.756c-.48.336-.864.756-1.152 1.26-.288.48-.432 1.044-.432 1.692v.216c0 .696.144 1.296.432 1.8.288.48.708.9 1.26 1.26.576.336 1.284.624 2.124.864.84.216 1.824.408 2.952.576 2.64.408 4.584 1.188 5.832 2.34 1.248 1.128 1.872 2.652 1.872 4.572v.432c0 1.08-.192 2.076-.576 2.988a6.023 6.023 0 0 1-1.656 2.304c-.72.648-1.62 1.152-2.7 1.512-1.08.36-2.328.54-3.744.54-1.608 0-3.036-.228-4.284-.684-1.224-.48-2.256-1.128-3.096-1.944a8.68 8.68 0 0 1-1.872-2.916c-.432-1.128-.648-2.352-.648-3.672v-1.08h3.024v.864c0 2.208.6 3.864 1.8 4.968 1.224 1.104 2.916 1.656 5.076 1.656 1.872 0 3.276-.408 4.212-1.224.96-.84 1.44-1.944 1.44-3.312v-.216c0-1.32-.492-2.328-1.476-3.024-.96-.696-2.532-1.2-4.716-1.512-1.272-.168-2.424-.42-3.456-.756-1.008-.36-1.872-.816-2.592-1.368a5.91 5.91 0 0 1-1.656-2.052c-.384-.792-.576-1.728-.576-2.808v-.432c0-.984.204-1.884.612-2.7a6.563 6.563 0 0 1 1.692-2.124c.744-.6 1.62-1.056 2.628-1.368 1.032-.336 2.16-.504 3.384-.504 1.416 0 2.676.204 3.78.612 1.128.408 2.076.96 2.844 1.656a6.386 6.386 0 0 1 1.728 2.412c.408.912.612 1.872.612 2.88v1.512h-3.024v-1.296Z"/><path fill="#3C4043" d="M252.088 656V407.534h77.645c12.626 0 24.241 1.263 34.846 3.788 10.858 2.273 20.074 6.186 27.65 11.742 7.827 5.555 13.887 12.751 18.18 21.589 4.293 8.837 6.439 19.695 6.439 32.573 0 19.443-5.05 34.972-15.15 46.587-10.101 11.616-23.736 19.569-40.906 23.862L424.044 656h-35.603l-59.844-104.916h-45.072V656h-31.437Zm31.437-130.672h41.663c19.443 0 34.341-3.914 44.694-11.741 10.353-8.08 15.529-20.201 15.529-36.361 0-16.413-5.176-27.902-15.529-34.467-10.353-6.565-25.251-9.848-44.694-9.848h-41.663v92.417ZM505.64 660.545c-15.403 0-28.281-4.545-38.633-13.635-10.101-9.09-15.151-21.968-15.151-38.634 0-20.2 8.964-35.603 26.892-46.208 17.928-10.858 46.588-18.433 85.978-22.726 0-5.807-.631-11.489-1.893-17.044-1.01-5.555-2.904-10.479-5.682-14.771-2.777-4.293-6.691-7.702-11.741-10.227-4.798-2.777-10.984-4.166-18.559-4.166-10.606 0-20.58 2.02-29.922 6.06-9.343 4.04-17.676 8.585-24.998 13.635L459.81 491.24c8.585-5.555 19.064-10.858 31.437-15.908 12.373-5.302 26.008-7.954 40.906-7.954 22.473 0 38.76 6.944 48.86 20.832 10.1 13.635 15.15 31.942 15.15 54.92V656h-25.755l-2.651-21.968h-1.137a163.567 163.567 0 0 1-28.407 18.938c-10.1 5.05-20.958 7.575-32.573 7.575Zm9.09-24.998c8.838 0 17.171-2.02 24.998-6.06 7.828-4.293 16.161-10.479 24.998-18.559v-51.133c-15.402 2.02-28.406 4.419-39.012 7.197-10.352 2.777-18.811 6.06-25.377 9.847-6.312 3.788-10.984 8.207-14.014 13.257-2.777 4.798-4.166 10.1-4.166 15.908 0 10.605 3.156 18.18 9.469 22.725 6.313 4.545 14.014 6.818 23.104 6.818ZM716.194 740.842c-11.362 0-21.715-1.136-31.058-3.409-9.343-2.02-17.423-5.176-24.24-9.469-6.566-4.292-11.742-9.469-15.53-15.529-3.535-6.06-5.302-13.13-5.302-21.21 0-7.828 2.399-15.277 7.196-22.347 4.798-7.07 11.363-13.509 19.696-19.317v-1.515c-4.545-2.777-8.459-6.565-11.742-11.363-3.03-5.05-4.545-11.236-4.545-18.559 0-7.828 2.146-14.645 6.439-20.453 4.293-5.807 8.838-10.353 13.635-13.635v-1.515c-6.06-5.05-11.615-11.742-16.665-20.074-4.798-8.586-7.196-18.433-7.196-29.544 0-10.1 1.767-19.19 5.302-27.27 3.788-8.08 8.838-14.898 15.15-20.453 6.313-5.808 13.636-10.227 21.968-13.257 8.586-3.03 17.55-4.545 26.892-4.545 5.05 0 9.722.505 14.014 1.515 4.545.758 8.586 1.768 12.121 3.03h64.01v23.862h-37.876c4.293 4.293 7.828 9.722 10.605 16.287 3.03 6.565 4.545 13.761 4.545 21.589 0 9.848-1.767 18.812-5.302 26.892-3.535 7.828-8.333 14.519-14.393 20.074-6.06 5.303-13.257 9.469-21.589 12.499-8.081 3.03-16.792 4.545-26.135 4.545-4.545 0-9.216-.505-14.014-1.515-4.797-1.262-9.342-2.904-13.635-4.924-3.283 2.778-6.06 5.934-8.333 9.469-2.272 3.283-3.409 7.449-3.409 12.499 0 5.808 2.273 10.606 6.818 14.393 4.545 3.788 13.13 5.681 25.756 5.681h35.603c21.463 0 37.497 3.536 48.102 10.606 10.858 6.817 16.287 17.928 16.287 33.331 0 8.585-2.146 16.665-6.439 24.24-4.293 7.828-10.479 14.645-18.559 20.453-8.08 5.808-17.928 10.353-29.543 13.635-11.363 3.535-24.241 5.303-38.634 5.303Zm0-164.003c5.303 0 10.227-1.01 14.772-3.03 4.797-2.02 8.964-4.923 12.499-8.711 3.787-3.788 6.691-8.333 8.711-13.635 2.02-5.555 3.03-11.742 3.03-18.56 0-13.635-3.787-24.114-11.362-31.436-7.575-7.576-16.792-11.363-27.65-11.363-10.857 0-20.074 3.787-27.649 11.363-7.575 7.322-11.363 17.801-11.363 31.436 0 6.818 1.01 13.005 3.03 18.56 2.02 5.302 4.798 9.847 8.333 13.635 3.788 3.788 7.954 6.691 12.499 8.711 4.798 2.02 9.848 3.03 15.15 3.03Zm4.545 142.414c8.838 0 16.792-1.137 23.862-3.409 7.323-2.02 13.509-4.798 18.559-8.333 5.05-3.282 8.964-7.196 11.742-11.741 2.777-4.545 4.166-9.217 4.166-14.014 0-8.586-3.156-14.52-9.469-17.802-6.312-3.283-15.529-4.924-27.649-4.924h-31.816c-3.535 0-7.449-.252-11.741-.757-4.04-.253-8.081-1.01-12.121-2.273-6.565 4.798-11.362 9.848-14.392 15.15-3.03 5.303-4.546 10.606-4.546 15.908 0 9.848 4.672 17.676 14.015 23.483 9.595 5.808 22.725 8.712 39.39 8.712ZM893.039 660.545c-13.13 0-25.629-2.399-37.497-7.196-11.868-4.798-22.221-10.858-31.058-18.181l15.529-20.831c8.08 6.565 16.287 11.867 24.619 15.907 8.585 4.041 18.433 6.061 29.543 6.061 12.121 0 21.211-2.778 27.271-8.333 6.06-5.555 9.09-12.373 9.09-20.453 0-4.798-1.262-8.964-3.787-12.499s-5.808-6.565-9.848-9.09c-3.788-2.778-8.207-5.177-13.257-7.197l-15.15-6.06a314.353 314.353 0 0 1-19.695-7.575c-6.566-3.03-12.499-6.565-17.802-10.605-5.05-4.293-9.217-9.217-12.499-14.772-3.283-5.555-4.924-12.246-4.924-20.074 0-7.323 1.389-14.14 4.166-20.453 3.03-6.565 7.197-12.12 12.499-16.665 5.556-4.798 12.247-8.459 20.075-10.984 7.827-2.778 16.665-4.167 26.513-4.167 11.615 0 22.22 2.02 31.815 6.06 9.848 4.04 18.307 8.964 25.377 14.772l-14.771 19.695c-6.313-4.797-12.878-8.711-19.696-11.741-6.817-3.03-14.266-4.545-22.347-4.545-11.615 0-20.2 2.651-25.755 7.954-5.303 5.302-7.954 11.489-7.954 18.559 0 4.293 1.136 8.08 3.409 11.363 2.272 3.03 5.302 5.807 9.09 8.332 3.788 2.273 8.08 4.419 12.878 6.439a608.663 608.663 0 0 1 15.529 5.682 641.094 641.094 0 0 1 19.695 7.954c6.818 2.777 12.878 6.312 18.181 10.605 5.302 4.04 9.595 9.09 12.877 15.15 3.536 6.06 5.303 13.383 5.303 21.968 0 7.575-1.515 14.645-4.545 21.211-2.778 6.565-7.07 12.372-12.878 17.422-5.555 5.051-12.625 8.964-21.21 11.742-8.333 3.03-17.928 4.545-28.786 4.545ZM1054.17 660.545c-9.85 0-18.18-1.515-25-4.545-6.56-3.03-11.99-7.196-16.29-12.499-4.04-5.303-6.94-11.742-8.71-19.317-1.77-7.575-2.65-15.908-2.65-24.998V497.3h-27.27v-23.483l28.79-1.894 3.78-51.511h26.14v51.511h49.62V497.3h-49.62v102.265c0 11.363 2.02 20.2 6.06 26.513 4.29 6.06 11.74 9.09 22.34 9.09 3.29 0 6.82-.505 10.61-1.515 3.79-1.01 7.2-2.146 10.23-3.409l6.06 23.483c-5.05 1.768-10.61 3.283-16.67 4.546-5.81 1.515-11.61 2.272-17.42 2.272ZM1190.6 660.545c-11.36 0-22.22-2.146-32.57-6.439-10.1-4.292-19.06-10.479-26.89-18.559-7.83-8.333-14.14-18.433-18.94-30.301-4.54-12.12-6.82-25.755-6.82-40.906 0-15.402 2.28-29.038 6.82-40.905 4.8-12.121 11.11-22.347 18.94-30.68 7.83-8.333 16.79-14.645 26.89-18.938 10.35-4.292 21.21-6.439 32.57-6.439 11.37 0 22.1 2.147 32.2 6.439 10.35 4.293 19.44 10.605 27.27 18.938 7.83 8.333 14.01 18.559 18.56 30.68 4.8 11.867 7.19 25.503 7.19 40.905 0 15.151-2.39 28.786-7.19 40.906-4.55 11.868-10.73 21.968-18.56 30.301-7.83 8.08-16.92 14.267-27.27 18.559-10.1 4.293-20.83 6.439-32.2 6.439Zm0-25.755c7.83 0 15.03-1.642 21.59-4.924 6.57-3.535 12.12-8.333 16.67-14.393 4.8-6.313 8.46-13.762 10.98-22.347 2.53-8.585 3.79-18.18 3.79-28.786 0-10.605-1.26-20.2-3.79-28.785-2.52-8.838-6.18-16.413-10.98-22.726-4.55-6.312-10.1-11.11-16.67-14.393-6.56-3.535-13.76-5.302-21.59-5.302-7.82 0-15.02 1.767-21.59 5.302-6.56 3.283-12.24 8.081-17.04 14.393-4.54 6.313-8.08 13.888-10.6 22.726-2.53 8.585-3.79 18.18-3.79 28.785 0 10.606 1.26 20.201 3.79 28.786 2.52 8.585 6.06 16.034 10.6 22.347 4.8 6.06 10.48 10.858 17.04 14.393 6.57 3.282 13.77 4.924 21.59 4.924ZM1324.3 656V471.923h25.76l2.65 26.513h1.14c8.83-8.837 18.05-16.16 27.65-21.968 9.84-6.06 21.21-9.09 34.08-9.09 19.45 0 33.59 6.06 42.42 18.181 9.09 12.12 13.64 30.048 13.64 53.783V656h-31.06V543.509c0-17.423-2.78-29.922-8.33-37.497-5.56-7.828-14.39-11.742-26.51-11.742-9.6 0-18.06 2.399-25.38 7.197-7.32 4.797-15.66 11.867-25 21.21V656h-31.06ZM1606.05 660.545c-12.37 0-23.99-2.146-34.84-6.439-10.61-4.545-19.95-10.858-28.03-18.938-7.83-8.332-14.02-18.433-18.56-30.3-4.55-11.868-6.82-25.377-6.82-40.528 0-15.15 2.27-28.659 6.82-40.527 4.8-12.12 10.98-22.346 18.56-30.679 7.83-8.333 16.66-14.645 26.51-18.938 9.85-4.545 20.08-6.818 30.68-6.818 11.62 0 21.97 2.02 31.06 6.06 9.34 4.04 17.04 9.848 23.1 17.423 6.32 7.575 11.11 16.666 14.4 27.271 3.28 10.605 4.92 22.473 4.92 35.603 0 3.283-.13 6.565-.38 9.848 0 3.03-.25 5.681-.76 7.954h-124.23c1.26 19.695 7.32 35.351 18.18 46.966 11.11 11.363 25.5 17.044 43.18 17.044 8.84 0 16.92-1.262 24.24-3.788a114.05 114.05 0 0 0 21.59-10.605l10.98 20.453c-8.08 5.05-17.04 9.469-26.89 13.257-9.85 3.787-21.08 5.681-33.71 5.681ZM1548.1 549.19h98.48c0-18.685-4.04-32.826-12.12-42.421-7.83-9.848-18.94-14.771-33.33-14.771-6.57 0-12.88 1.262-18.94 3.787-5.81 2.525-11.11 6.313-15.91 11.363-4.8 4.798-8.84 10.731-12.12 17.802-3.03 7.07-5.05 15.15-6.06 24.24Z"/><path fill="#FF6D7F" fill-rule="evenodd" d="M473.001 545.479c-4.935-.936-8.667-5.272-8.667-10.479 0-5.891 4.776-10.667 10.667-10.667s10.666 4.776 10.666 10.667c0 5.207-3.731 9.543-8.666 10.479V760.5h-4V545.479ZM1229.45 722.212 1140 382.788l3.87-1.019 89.45 339.424-3.87 1.019Z" clip-rule="evenodd"/></svg>