<svg width="1920" height="1080" viewBox="0 0 1920 1080" fill="none" xmlns="http://www.w3.org/2000/svg">
<path d="M531 611H255C248.373 611 243 616.373 243 623V899C243 905.627 248.373 911 255 911H531C537.627 911 543 905.627 543 899V623C543 616.373 537.627 611 531 611Z" fill="#F3F7FE"/>
<path fill-rule="evenodd" clip-rule="evenodd" d="M531 621H255C253.895 621 253 621.895 253 623V899C253 900.105 253.895 901 255 901H531C532.105 901 533 900.105 533 899V623C533 621.895 532.105 621 531 621ZM255 611H531C537.627 611 543 616.373 543 623V899C543 905.627 537.627 911 531 911H255C248.373 911 243 905.627 243 899V623C243 616.373 248.373 611 255 611Z" fill="#D2E3FC"/>
<circle cx="287" cy="655" r="24" fill="#D2E3FC"/>
<path d="M284.983 662.464V644.176H284.335L281.959 652.816H277.423V652.384L280.447 641.8H289.735V662.464H295.999V667H277.855V662.464H284.983Z" fill="#1A73E8"/>
<path fill-rule="evenodd" clip-rule="evenodd" d="M341.658 723.267C341.658 723.265 341.657 723.264 338.982 723.472C336.306 723.681 336.306 723.679 336.306 723.677L336.306 723.672L336.305 723.659L336.302 723.621C336.3 723.59 336.297 723.548 336.294 723.496C336.288 723.393 336.281 723.248 336.275 723.064C336.263 722.697 336.254 722.174 336.265 721.519C336.287 720.209 336.388 718.36 336.704 716.152C337.333 711.744 338.824 705.836 342.29 699.907C349.339 687.845 364.154 676.365 394.366 676.365C416.109 676.365 429.013 681.654 436.473 688.876C443.948 696.112 445.512 704.855 445.512 710.78V842.323L440.144 842.324V710.78C440.144 705.743 438.824 698.621 432.74 692.732C426.643 686.829 415.316 681.733 394.366 681.733C365.733 681.733 352.856 692.465 346.924 702.615C343.899 707.791 342.577 712.989 342.017 716.911C341.738 718.867 341.65 720.489 341.631 721.608C341.622 722.167 341.63 722.599 341.639 722.883C341.644 723.024 341.649 723.129 341.653 723.193C341.655 723.225 341.656 723.248 341.657 723.26L341.658 723.267Z" fill="#3C4043"/>
<path fill-rule="evenodd" clip-rule="evenodd" d="M428.62 742.89C418.169 751.102 403.401 757.71 386.059 764.069L385.175 761.657L386.059 764.069C353.984 775.829 339.358 791.176 339.358 810.011C339.358 819.771 342.349 827.4 347.517 832.583C352.683 837.765 360.309 840.788 370.135 840.788C397.099 840.788 414.52 824.39 425.342 803.993C436.198 783.532 440.144 759.46 440.144 745.395H445.511C445.511 760.177 441.419 785.143 430.083 806.509C418.713 827.939 399.787 846.156 370.135 846.156C359.192 846.156 350.088 842.764 343.716 836.373C337.345 829.983 333.99 820.881 333.99 810.011C333.99 787.583 351.648 770.969 384.212 759.029C401.485 752.696 415.564 746.323 425.304 738.67C434.939 731.099 440.144 722.438 440.144 711.357H445.511C445.511 724.506 439.178 734.595 428.62 742.89Z" fill="#3C4043"/>
<path fill-rule="evenodd" clip-rule="evenodd" d="M314.293 638.615C313.903 638.224 313.903 637.591 314.293 637.2L316.55 634.943C316.941 634.553 317.574 634.553 317.964 634.943C318.355 635.334 318.355 635.967 317.964 636.358L315.707 638.615C315.317 639.005 314.684 639.005 314.293 638.615ZM325.578 627.33C325.187 626.939 325.187 626.306 325.578 625.915L330.092 621.402C330.482 621.011 331.116 621.011 331.506 621.402C331.897 621.792 331.897 622.425 331.506 622.816L326.992 627.33C326.602 627.72 325.968 627.72 325.578 627.33ZM339.12 613.788C338.729 613.397 338.729 612.764 339.12 612.374L343.634 607.86C344.024 607.469 344.657 607.469 345.048 607.86C345.438 608.25 345.438 608.883 345.048 609.274L340.534 613.788C340.143 614.178 339.51 614.178 339.12 613.788ZM352.662 600.246C352.271 599.855 352.271 599.222 352.662 598.832L357.176 594.318C357.566 593.927 358.199 593.927 358.59 594.318C358.98 594.708 358.98 595.342 358.59 595.732L354.076 600.246C353.685 600.637 353.052 600.637 352.662 600.246ZM366.203 586.704C365.813 586.314 365.813 585.68 366.203 585.29L370.717 580.776C371.108 580.385 371.741 580.385 372.132 580.776C372.522 581.167 372.522 581.8 372.132 582.19L367.618 586.704C367.227 587.095 366.594 587.095 366.203 586.704ZM379.745 573.162C379.355 572.772 379.355 572.139 379.745 571.748L384.259 567.234C384.65 566.844 385.283 566.844 385.673 567.234C386.064 567.625 386.064 568.258 385.673 568.648L381.16 573.162C380.769 573.553 380.136 573.553 379.745 573.162ZM393.287 559.62C392.897 559.23 392.897 558.597 393.287 558.206L397.801 553.692C398.192 553.302 398.825 553.302 399.215 553.692C399.606 554.083 399.606 554.716 399.215 555.107L394.701 559.62C394.311 560.011 393.678 560.011 393.287 559.62ZM406.829 546.079C406.438 545.688 406.438 545.055 406.829 544.664L411.343 540.15C411.733 539.76 412.367 539.76 412.757 540.15C413.148 540.541 413.148 541.174 412.757 541.565L408.243 546.079C407.853 546.469 407.219 546.469 406.829 546.079ZM420.371 532.537C419.98 532.146 419.98 531.513 420.371 531.123L424.885 526.609C425.275 526.218 425.908 526.218 426.299 526.609C426.69 526.999 426.69 527.632 426.299 528.023L421.785 532.537C421.395 532.927 420.761 532.927 420.371 532.537ZM433.913 518.995C433.522 518.604 433.522 517.971 433.913 517.581L438.427 513.067C438.817 512.676 439.45 512.676 439.841 513.067C440.231 513.457 440.231 514.09 439.841 514.481L435.327 518.995C434.936 519.385 434.303 519.385 433.913 518.995ZM447.455 505.453C447.064 505.063 447.064 504.429 447.455 504.039L451.968 499.525C452.359 499.134 452.992 499.134 453.383 499.525C453.773 499.915 453.773 500.549 453.383 500.939L448.869 505.453C448.478 505.844 447.845 505.844 447.455 505.453ZM460.996 491.911C460.606 491.521 460.606 490.888 460.996 490.497L465.51 485.983C465.901 485.593 466.534 485.593 466.925 485.983C467.315 486.374 467.315 487.007 466.925 487.397L462.411 491.911C462.02 492.302 461.387 492.302 460.996 491.911ZM474.538 478.369C474.148 477.979 474.148 477.346 474.538 476.955L479.052 472.441C479.443 472.051 480.076 472.051 480.466 472.441C480.857 472.832 480.857 473.465 480.466 473.855L475.952 478.369C475.562 478.76 474.929 478.76 474.538 478.369ZM488.08 464.828C487.69 464.437 487.69 463.804 488.08 463.413L492.594 458.899C492.985 458.509 493.618 458.509 494.008 458.899C494.399 459.29 494.399 459.923 494.008 460.314L489.494 464.828C489.104 465.218 488.471 465.218 488.08 464.828ZM501.622 451.286C501.231 450.895 501.231 450.262 501.622 449.872L503.879 447.615C504.269 447.224 504.903 447.224 505.293 447.615C505.684 448.005 505.684 448.638 505.293 449.029L503.036 451.286C502.646 451.676 502.012 451.676 501.622 451.286Z" fill="#1A73E8"/>
<path d="M758.007 393H481.993C475.369 393 470 398.373 470 405V681C470 687.627 475.369 693 481.993 693H758.007C764.63 693 770 687.627 770 681V405C770 398.373 764.63 393 758.007 393Z" fill="#F3F7FE"/>
<path fill-rule="evenodd" clip-rule="evenodd" d="M758.007 403H481.993C480.898 403 480 403.89 480 405V681C480 682.11 480.898 683 481.993 683H758.007C759.102 683 760 682.11 760 681V405C760 403.89 759.102 403 758.007 403ZM481.993 393H758.007C764.63 393 770 398.373 770 405V681C770 687.627 764.63 693 758.007 693H481.993C475.369 693 470 687.627 470 681V405C470 398.373 475.369 393 481.993 393Z" fill="#D2E3FC"/>
<path d="M639.608 594.23V592.407C632.688 612.461 611.551 636.161 574.015 636.161C542.314 636.161 521.545 618.3 521.545 588.034C521.545 557.769 546.684 543.554 584.589 534.069C625.043 524.227 634.88 515.111 634.88 498.334C634.88 485.204 625.4 475.73 604.274 475.73C596.986 475.73 584.232 477.184 577.313 482.296C583.148 484.488 588.971 490.315 588.971 498.704C588.971 511.465 575.491 522.404 558.366 522.404C544.516 522.404 529.583 513.657 529.583 495.057C529.583 473.55 562.01 449.48 616.313 449.48C670.617 449.48 695.018 476.1 695.018 504.173V590.215C695.018 600.427 697.566 603.346 704.497 603.346C711.785 603.346 714.334 600.427 714.334 590.215V561.046H736.567V593.861C736.567 619.384 720.895 636.519 688.099 636.519C653.48 636.519 639.631 613.915 639.631 594.219L639.608 594.23ZM635.237 546.83V534.796C626.127 544.638 614.826 550.107 602.441 554.85C586.042 561.046 579.85 568.338 579.85 580.373C579.85 592.407 588.233 599.7 600.261 599.7C618.85 599.7 635.249 583.292 635.249 546.83H635.237Z" fill="#3C4043"/>
<circle cx="514" cy="437" r="24" fill="#D2E3FC"/>
<path d="M522.531 444.464V449H504.819V444.032C504.819 442.712 505.011 441.584 505.395 440.648C505.803 439.712 506.367 438.92 507.087 438.272C507.831 437.624 508.719 437.096 509.751 436.688C510.783 436.256 511.947 435.896 513.243 435.608C514.203 435.392 514.983 435.152 515.583 434.888C516.207 434.6 516.699 434.288 517.059 433.952C517.419 433.592 517.659 433.208 517.779 432.8C517.923 432.368 517.995 431.888 517.995 431.36C517.995 430.352 517.623 429.512 516.879 428.84C516.159 428.168 515.151 427.832 513.855 427.832C512.487 427.832 511.395 428.252 510.579 429.092C509.763 429.908 509.355 431.048 509.355 432.512V434.096H504.603V432.08C504.603 430.904 504.807 429.788 505.215 428.732C505.647 427.652 506.247 426.716 507.015 425.924C507.807 425.108 508.767 424.472 509.895 424.016C511.023 423.536 512.295 423.296 513.711 423.296C515.223 423.296 516.543 423.524 517.671 423.98C518.799 424.412 519.735 424.988 520.479 425.708C521.247 426.428 521.811 427.268 522.171 428.228C522.555 429.164 522.747 430.136 522.747 431.144V431.576C522.747 433.688 522.147 435.44 520.947 436.832C519.771 438.224 517.839 439.232 515.151 439.856C514.023 440.12 513.087 440.396 512.343 440.684C511.623 440.948 511.059 441.248 510.651 441.584C510.243 441.92 509.955 442.292 509.787 442.7C509.643 443.084 509.571 443.528 509.571 444.032V444.464H522.531Z" fill="#1A73E8"/>
<path fill-rule="evenodd" clip-rule="evenodd" d="M535.293 420.293C534.903 419.902 534.903 419.269 535.293 418.879L537.455 416.717C537.846 416.326 538.479 416.326 538.869 416.717C539.26 417.107 539.26 417.74 538.869 418.131L536.707 420.293C536.317 420.683 535.684 420.683 535.293 420.293ZM546.103 409.482C545.713 409.092 545.713 408.459 546.103 408.068L550.427 403.744C550.818 403.354 551.451 403.354 551.842 403.744C552.232 404.135 552.232 404.768 551.842 405.158L547.518 409.482C547.127 409.873 546.494 409.873 546.103 409.482ZM559.076 396.51C558.685 396.12 558.685 395.486 559.076 395.096L563.4 390.772C563.79 390.381 564.424 390.381 564.814 390.772C565.205 391.162 565.205 391.795 564.814 392.186L560.49 396.51C560.099 396.901 559.466 396.901 559.076 396.51ZM572.048 383.538C571.658 383.147 571.658 382.514 572.048 382.123L576.372 377.799C576.763 377.409 577.396 377.409 577.786 377.799C578.177 378.19 578.177 378.823 577.786 379.214L573.462 383.538C573.072 383.928 572.439 383.928 572.048 383.538ZM585.021 370.565C584.63 370.175 584.63 369.542 585.021 369.151L589.345 364.827C589.735 364.436 590.368 364.436 590.759 364.827C591.149 365.218 591.149 365.851 590.759 366.241L586.435 370.565C586.044 370.956 585.411 370.956 585.021 370.565ZM597.993 357.593C597.602 357.202 597.602 356.569 597.993 356.179L602.317 351.855C602.708 351.464 603.341 351.464 603.731 351.855C604.122 352.245 604.122 352.878 603.731 353.269L599.407 357.593C599.017 357.983 598.383 357.983 597.993 357.593ZM610.965 344.621C610.575 344.23 610.575 343.597 610.965 343.206L615.289 338.882C615.68 338.492 616.313 338.492 616.704 338.882C617.094 339.273 617.094 339.906 616.704 340.296L612.38 344.621C611.989 345.011 611.356 345.011 610.965 344.621ZM623.938 331.648C623.547 331.258 623.547 330.624 623.938 330.234L628.262 325.91C628.652 325.519 629.285 325.519 629.676 325.91C630.067 326.3 630.067 326.934 629.676 327.324L625.352 331.648C624.961 332.039 624.328 332.039 623.938 331.648ZM636.91 318.676C636.52 318.285 636.52 317.652 636.91 317.262L641.234 312.937C641.625 312.547 642.258 312.547 642.648 312.937C643.039 313.328 643.039 313.961 642.648 314.352L638.324 318.676C637.934 319.066 637.301 319.066 636.91 318.676ZM649.882 305.703C649.492 305.313 649.492 304.68 649.882 304.289L654.207 299.965C654.597 299.575 655.23 299.575 655.621 299.965C656.011 300.356 656.011 300.989 655.621 301.379L651.297 305.703C650.906 306.094 650.273 306.094 649.882 305.703ZM662.855 292.731C662.464 292.34 662.464 291.707 662.855 291.317L667.179 286.993C667.569 286.602 668.203 286.602 668.593 286.993C668.984 287.383 668.984 288.016 668.593 288.407L664.269 292.731C663.879 293.122 663.245 293.122 662.855 292.731ZM675.827 279.759C675.437 279.368 675.437 278.735 675.827 278.344L680.151 274.02C680.542 273.63 681.175 273.63 681.566 274.02C681.956 274.411 681.956 275.044 681.566 275.435L677.241 279.759C676.851 280.149 676.218 280.149 675.827 279.759ZM688.8 266.786C688.409 266.396 688.409 265.763 688.8 265.372L693.124 261.048C693.514 260.657 694.147 260.657 694.538 261.048C694.928 261.438 694.928 262.072 694.538 262.462L690.214 266.786C689.823 267.177 689.19 267.177 688.8 266.786ZM701.772 253.814C701.381 253.423 701.381 252.79 701.772 252.4L706.096 248.076C706.487 247.685 707.12 247.685 707.51 248.076C707.901 248.466 707.901 249.099 707.51 249.49L703.186 253.814C702.796 254.204 702.163 254.204 701.772 253.814ZM714.744 240.841C714.354 240.451 714.354 239.818 714.744 239.427L719.068 235.103C719.459 234.713 720.092 234.713 720.483 235.103C720.873 235.494 720.873 236.127 720.483 236.517L716.159 240.841C715.768 241.232 715.135 241.232 714.744 240.841ZM727.717 227.869C727.326 227.479 727.326 226.845 727.717 226.455L729.879 224.293C730.269 223.902 730.903 223.902 731.293 224.293C731.684 224.683 731.684 225.317 731.293 225.707L729.131 227.869C728.74 228.26 728.107 228.26 727.717 227.869Z" fill="#1A73E8"/>
<path d="M985 166H709C702.373 166 697 171.373 697 178V454C697 460.627 702.373 466 709 466H985C991.627 466 997 460.627 997 454V178C997 171.373 991.627 166 985 166Z" fill="#F3F7FE"/>
<path fill-rule="evenodd" clip-rule="evenodd" d="M985 176H709C707.895 176 707 176.895 707 178V454C707 455.105 707.895 456 709 456H985C986.105 456 987 455.105 987 454V178C987 176.895 986.105 176 985 176ZM709 166H985C991.627 166 997 171.373 997 178V454C997 460.627 991.627 466 985 466H709C702.373 466 697 460.627 697 454V178C697 171.373 702.373 166 709 166Z" fill="#D2E3FC"/>
<path d="M869.608 367.23V365.407C862.688 385.461 841.551 409.161 804.015 409.161C772.314 409.161 751.545 391.299 751.545 361.034C751.545 330.769 776.684 316.553 814.589 307.069C855.043 297.226 864.88 288.111 864.88 271.334C864.88 258.203 855.4 248.73 834.274 248.73C826.986 248.73 814.232 250.184 807.313 255.296C813.148 257.488 818.971 263.315 818.971 271.703C818.971 284.465 805.491 295.403 788.366 295.403C774.516 295.403 759.583 286.657 759.583 268.057C759.583 246.549 792.01 222.48 846.313 222.48C900.617 222.48 925.018 249.099 925.018 277.173V363.215C925.018 373.426 927.566 376.346 934.497 376.346C941.785 376.346 944.334 373.426 944.334 363.215V334.046H966.567V366.861C966.567 392.384 950.895 409.519 918.099 409.519C883.48 409.519 869.631 386.915 869.631 367.219L869.608 367.23ZM865.237 319.83V307.796C856.127 317.638 844.826 323.107 832.441 327.849C816.042 334.046 809.85 341.338 809.85 353.373C809.85 365.407 818.233 372.699 830.261 372.699C848.85 372.699 865.249 356.292 865.249 319.83H865.237Z" fill="#F2F5F7"/>
<path d="M848.358 221.812L856.377 223.266L867.316 224.719L873.881 226.912L880.447 228.735L885.547 232.012H887.37L900.131 238.935L903.408 240.031L905.601 243.308L913.989 252.054L917.266 261.539L921.281 271.023V286.335L920.912 308.212L919.458 314.05L920.185 330.827L920.554 361.819L920.185 363.643H911.439L910.712 354.158L908.52 353.431L908.889 342.862L912.904 339.585L913.631 335.212L912.177 331.196L906.339 331.923L904.147 328.277L899.404 327.55L896.854 329.004V331.196L901.954 335.212V338.131L898.308 337.762L896.854 341.408L894.662 339.954V335.939L892.112 333.389H890.289L887.37 336.308V339.227L882.997 343.6L877.158 344.696L874.966 342.873L873.512 343.6L872.058 348.7L874.251 351.25V352.346H868.412L867.685 353.8H864.766L864.039 355.254L866.589 358.173L870.962 360.366L874.239 359.996L876.431 364.012L882.627 366.931L883.724 365.108V360.735L881.901 355.266L884.82 350.166L889.92 347.246L891.743 347.973V352.346L888.824 354.169L890.647 358.185L887.727 361.104L893.197 366.943L890.647 368.396L888.097 375.689L888.824 378.608L895.389 382.981L895.02 389.177H897.939L900.489 391V393.919L899.035 394.646V401.212L900.858 402.666L907.781 400.116L911.427 395.373H915.801L917.624 391.358L919.447 390.989L922.724 396.458L923.093 396.827L933.662 397.554L936.212 394.635L934.389 389.535L940.585 383.696L939.131 380.777H936.939L934.747 383.696L927.085 382.969L924.893 385.162L921.247 387.354L917.97 384.435H915.051L911.404 379.335H909.212V378.608L912.489 376.058L910.666 370.589L906.293 368.396V366.204L909.57 365.477H917.589L920.139 367.3L923.785 376.785V379.335H919.412V381.527L922.331 382.981L925.977 381.527L926.704 378.608L928.527 377.881L932.174 377.154L939.835 372.412L939.108 368.396L938.012 359.281L940.204 349.069V346.15L938.381 336.666L940.204 334.116H960.258L962.808 335.939L962.081 341.039L963.177 346.139V372.031L959.531 384.066L956.254 391.358L949.689 397.923L937.297 405.216L936.201 405.943L930.731 407.039L917.97 408.493L915.777 409.946L902.289 409.219L898.643 407.766L890.624 406.312L882.604 401.939L872.393 392.096L867.293 384.077L866.924 380.062V376.416H869.474L873.489 379.693L874.216 387.354L877.135 390.273H878.231L883.701 386.996L887.347 381.527L885.893 378.608L886.262 376.416H884.808L881.531 377.143L878.612 375.689L877.516 369.85L875.693 369.123L871.32 372.769L868.401 373.496L868.031 373.127L862.562 364.739H860.37L858.177 371.662L854.901 376.762L853.804 384.781V386.604L849.062 388.058L846.512 393.158L839.947 396.804L835.931 400.081L823.897 404.454L818.058 408.469L806.393 409.196L798.374 412.116L782.693 408.839L776.127 408.112L771.754 405.193H768.835L760.816 399.354L756.801 394.981V393.885L752.427 387.319L749.151 382.946L745.874 378.204L745.504 372.008L744.408 365.443L744.777 358.519L745.147 351.227L748.793 345.031L750.616 341.385L755.358 332.269L766.654 323.881L773.947 320.604L777.593 317.327L786.339 314.05L790.712 315.873L796.181 310.404L804.201 308.95L811.862 307.127L824.254 302.754H826.447L832.274 298.739L842.116 295.462L851.231 290.362L857.427 280.519V269.581L855.604 263.743L853.412 257.904L846.847 252.804L841.747 250.981L834.454 249.885L819.143 250.254L810.397 250.623L806.024 253.173L798.004 252.077L796.551 247.335L791.808 245.881L788.889 247.335L786.339 246.966L791.081 244.046V242.223L788.889 240.769L784.885 244.046L779.785 245.869L773.947 246.596L769.574 250.243L764.474 252.066L760.101 258.262L759.374 273.573L761.924 281.235L769.585 288.527L776.151 291.077L782.716 292.531L786.362 291.804L788.185 290.35V288.527L784.539 285.25V282.331L786.731 279.054L787.458 273.954L790.008 270.308L792.558 271.404L793.654 275.777L796.574 277.231L798.397 279.423H801.316L801.685 277.6L803.508 270.677L799.135 265.577L801.327 261.204V259.012L805.343 254.639L812.635 264.481L814.458 274.323L810.812 281.985L805.343 289.277L800.97 292.196L795.501 294.746L787.481 296.569L775.447 296.2L766.701 294.008L762.685 292.554L758.312 285.631L754.666 280.889L751.389 270.677L754.666 257.916L759.766 249.169L764.139 244.796L768.512 245.893L772.885 241.15V240.054L778.354 238.231L785.647 233.489L790.02 232.393L795.12 229.116H797.67L805.331 226.196L821.37 223.277L830.854 222.55L840.339 221.454L844.354 221.823H848.37L848.358 221.812ZM783.824 324.631L775.435 325.358L771.789 326.812L768.87 331.554L764.497 333.746L758.301 340.312L756.477 344.685L753.201 348.7V351.25L755.393 354.169V355.623L751.02 361.462L751.747 367.3L753.939 371.673L756.858 373.866L755.035 382.254L759.408 390.643L765.247 394.289L766.701 397.935L773.266 398.662L776.543 398.293L775.816 396.839H773.624L770.347 393.193H767.797L768.166 391.369L770.716 391L772.908 389.546V386.627L777.281 381.527V377.512L774.731 374.962L770.358 374.593V371.673L777.651 369.123L779.104 366.204L777.281 364.012L774.004 363.643L773.635 361.093V358.9L776.185 352.335L773.635 348.689V347.235H778.377L782.751 341.766L785.301 343.958L788.22 346.508V353.431L789.674 355.623L788.22 357.446L787.493 361.462L787.124 365.835L782.381 366.204L780.927 368.396L781.654 369.85H784.574L785.67 372.4L784.943 378.966L781.666 381.885L780.939 385.162H783.131L786.051 383.708L786.777 380.062L791.151 380.789L791.877 379.335L792.247 374.235L792.616 369.493L795.535 366.573L798.454 368.396H800.647L801.374 364.75L799.551 362.558L796.631 362.927L794.808 361.831V358.912L792.616 357.458V353.812L794.07 353.085L793.343 348.343L794.439 343.969L791.889 337.404L790.066 329.016L791.889 324.273V322.45L789.697 320.258H785.324L783.87 324.631H783.824ZM769.239 343.231L771.789 347.246L769.597 348.7H768.501L764.485 345.054L766.677 342.862H767.774L769.227 343.231H769.239ZM785.277 335.569V338.489L784.551 340.681H782.727L779.451 334.485L782.001 331.935H783.454L785.277 335.581V335.569ZM804.604 382.6L799.504 382.969L795.489 386.985L791.474 385.162L789.651 387.712L788.924 392.454L785.277 393.908L780.177 398.281V399.377H781.274L783.097 398.65H785.289V401.569L787.112 403.023L791.854 404.119L795.858 396.1H797.312L798.766 398.293H807.512L808.966 395.016L807.87 391.369V388.819L811.516 387.366L812.243 385.912L809.324 382.266H806.774L804.581 382.635L804.604 382.6ZM811.897 233.477L810.443 234.573L808.62 237.85H807.524L806.07 234.573L802.054 234.204L796.954 237.481L794.035 241.854V244.404L796.227 245.858L800.601 244.404L807.524 239.304L809.716 240.758L812.266 237.839L816.639 236.016V234.919L816.27 233.823L814.077 233.454H811.885L811.897 233.477ZM799.135 324.262L801.685 327.908L809.704 327.539L811.158 326.085L806.058 320.985H802.412L799.135 324.262V324.262ZM858.2 292.9V295.093L855.281 298.369V301.289L858.927 303.481L850.181 311.869V313.693H854.554L855.281 315.146L854.554 316.969L850.908 318.793L847.631 323.893L842.531 326.085L836.704 329.731L825.766 334.104L810.812 341.396L810.085 344.316L805.343 349.416L804.616 355.981L806.808 360.354L814.101 366.193L817.747 371.662L820.297 373.116L829.412 371.293L835.251 367.277L846.558 361.439L849.835 357.066L854.208 351.596L857.127 347.581L858.951 341.016L860.404 335.177L862.597 319.866L861.501 309.654L860.404 308.2L861.131 304.185L863.324 302.731V297.989L866.243 291.793L865.516 289.6H860.416L858.224 292.877L858.2 292.9ZM810.074 373.473L809.347 374.927L810.074 378.573L815.912 381.493V382.946H818.831V381.123L816.639 378.204V375.654L814.816 374.2L812.624 373.831L810.074 373.462V373.473ZM837.42 308.939L832.677 309.308L830.127 313.681L825.027 314.408L820.285 315.135L817.735 318.781L823.931 324.619H829.031L830.854 321.7L841.066 323.893L843.258 321.7L841.435 319.877V317.685L843.985 315.862L842.162 314.408L839.243 315.862L836.693 313.669L840.708 312.216L841.435 310.762L840.708 308.569H838.885L837.431 308.939H837.42ZM821.381 232.369L819.189 236.385L821.739 240.758L820.285 245.131L821.012 247.323H823.931L825.027 244.773L823.204 240.4L824.658 238.946V236.754L825.027 234.562L834.143 234.931L839.243 234.204V232.75H837.42L832.677 228.377H829.401L821.381 232.393V232.369ZM819.558 385.139L820.285 387.331L821.739 386.962V385.508L820.643 385.139H819.547H819.558ZM821.012 394.254V396.804L824.289 398.996H828.304L829.031 395.719L829.758 390.619L828.304 388.796H827.208L821.012 394.266V394.254ZM838.147 377.846L833.774 378.216L832.677 384.781L835.597 391.704H843.616L845.07 389.881L842.877 386.604L843.604 384.412L849.431 381.493V379.669L847.608 377.846H843.593L842.139 374.927H839.947L838.124 377.846H838.147ZM840.697 228.354V231.273H842.52L844.712 229.819L843.616 227.627H842.52L840.697 228.354V228.354ZM845.439 237.1L841.793 238.196L843.247 243.296L843.974 246.573L848.716 248.766L851.266 252.043L855.639 254.235L857.462 252.412L855.27 248.396L849.431 244.381L847.608 237.458H846.512L845.416 237.089L845.439 237.1ZM856.008 230.904V232.727L858.2 233.454H861.847L862.574 232L860.024 229.081H857.831L856.008 230.904V230.904ZM858.927 352.323L857.474 355.243L858.2 358.889H859.654L861.108 356.696V354.873L860.739 352.681H860.012L858.916 352.312L858.927 352.323ZM866.589 233.466L858.2 242.95V244.773L861.12 248.789L867.685 250.981L870.962 250.254L872.785 246.608H877.527L879.351 244.785L883.366 246.977H887.739L888.108 252.077L891.754 255.723L893.947 260.466V264.839L891.754 266.293L892.124 271.035L890.3 280.15L892.493 284.523L891.766 289.993L887.393 294.735H885.201L881.924 293.281L880.101 290.004L877.908 285.262L873.166 282.712L868.424 283.808V284.535L870.616 290.004L870.247 293.281L869.877 296.927L871.701 304.946L869.508 308.593L872.785 311.869L867.685 318.066V319.519L868.054 321.343L873.524 321.712L874.251 323.904L872.427 326.454L868.412 334.116L869.866 334.843L871.32 338.489H873.512V336.296L871.32 335.569V333.377L875.693 331.185L878.97 331.912L880.424 335.189L882.974 336.643L885.166 334.45L884.439 331.9H880.793V330.077L883.343 325.704L885.166 320.604L882.247 315.862L878.6 315.135V312.216L880.793 311.489L886.989 313.681L891.731 318.423L895.377 315.873L901.574 318.066L904.124 320.616L908.497 318.066H910.32L913.239 315.146L913.608 303.481L910.689 300.931V298.739L912.143 297.285L912.512 283.427H900.477L899.024 281.235V279.781L899.393 278.327L902.312 278.696L904.135 270.677L902.681 268.485H898.308L897.581 266.293L900.501 261.193L904.147 259V248.789L900.501 245.143H896.854L892.112 242.95L888.097 243.677V241.485L883.724 237.112L881.531 237.839L875.335 235.289L872.416 232.012H870.224L866.577 233.466H866.589ZM876.431 252.423L877.158 256.796V257.893L869.508 258.262L864.039 258.989L861.847 264.089V271.012L864.039 273.931V276.481L865.862 277.577L869.877 277.208L873.524 279.4V281.593L878.993 280.866L880.816 280.139L880.089 273.216L878.635 270.666L874.989 271.393L870.616 266.65L871.343 264.827L878.266 262.635L883.008 257.166V252.423L878.635 250.969V249.516H877.181L876.454 252.435L876.431 252.423ZM864.766 309.308L866.958 310.035L868.412 309.308L867.685 307.854H865.493L864.766 309.308ZM904.504 293.627L906.327 297.643L904.504 299.096H900.131L897.212 301.289L895.758 306.031L890.658 308.581H887.739L878.266 300.193L877.897 298.739V296.916L879.351 293.996H881.543V295.45L881.912 297.273L891.397 297.643L895.77 298.012L898.689 292.543L900.881 291.816H902.335L904.527 293.639L904.504 293.627ZM886.643 346.127L885.189 348.319L883.735 346.127V343.577L886.654 345.031V346.127H886.643ZM888.835 388.427V390.619L890.658 393.539L893.935 391.716V389.523L890.658 387.331H889.931L888.835 388.427V388.427ZM899.774 380.039L901.227 382.958L909.616 382.589L911.439 385.508L910.343 386.604L903.777 387.331L900.858 384.054L898.666 383.327V377.131H899.762V380.05L899.774 380.039ZM908.52 359.985L907.066 362.177L905.612 362.546L902.335 359.996L904.527 357.446H907.447L908.543 359.996L908.52 359.985ZM904.874 263.004L904.147 266.65L907.793 270.296V272.119L910.712 273.573L912.166 271.381L911.439 267.735L908.52 261.169H906.327L904.874 262.993V263.004ZM948.258 377.131L946.066 377.858L947.889 383.327V385.15L941.693 384.781L941.324 388.796V392.443L943.516 393.169L946.435 391.716L947.162 387.7L950.808 384.054L951.535 380.777L951.166 377.5H949.712L948.258 377.131V377.131ZM949.354 338.477L947.9 340.669L944.624 341.039L944.254 343.231V345.423L947.531 344.327H953.001L953.727 342.135L951.904 339.943L950.808 339.216L949.354 338.489V338.477ZM944.254 365.096V369.112L945.708 372.758H948.627L950.82 369.481L948.997 363.285H946.077L944.254 365.108V365.096ZM948.627 348.689L949.724 351.239L949.354 353.789L945.708 355.243V357.793L948.627 362.166L953.001 361.796V358.15L950.808 356.696V346.485H949.354L948.627 348.677V348.689Z" fill="#3C4043"/>
<circle cx="741" cy="210" r="24" fill="#D2E3FC"/>
<path d="M738.047 211.2V203.712L744.311 201.984V201.336H731.783V196.8H748.199V204.72L741.503 206.664V207.312H742.367C743.255 207.312 744.131 207.456 744.995 207.744C745.859 208.008 746.615 208.428 747.263 209.004C747.935 209.58 748.475 210.3 748.883 211.164C749.291 212.004 749.495 213 749.495 214.152V214.584C749.495 215.712 749.303 216.756 748.919 217.716C748.559 218.676 748.007 219.516 747.263 220.236C746.543 220.932 745.643 221.484 744.563 221.892C743.483 222.3 742.247 222.504 740.855 222.504C739.439 222.504 738.155 222.276 737.003 221.82C735.851 221.364 734.867 220.74 734.051 219.948C733.259 219.156 732.647 218.244 732.215 217.212C731.783 216.18 731.567 215.088 731.567 213.936V212.424H736.319V213.72C736.319 214.872 736.691 215.868 737.435 216.708C738.179 217.548 739.295 217.968 740.783 217.968C742.055 217.968 743.027 217.644 743.699 216.996C744.395 216.348 744.743 215.496 744.743 214.44C744.743 213.312 744.371 212.496 743.627 211.992C742.907 211.464 741.983 211.2 740.855 211.2H738.047Z" fill="#1A73E8"/>
<path d="M1106.34 342.504C1106.34 341.496 1105.94 340.62 1105.15 339.876C1104.38 339.132 1103.29 338.76 1101.87 338.76C1100.67 338.76 1099.72 339.012 1099.03 339.516C1098.33 339.996 1097.98 340.656 1097.98 341.496C1097.98 341.928 1098.07 342.324 1098.24 342.684C1098.4 343.02 1098.69 343.332 1099.1 343.62C1099.53 343.884 1100.08 344.124 1100.76 344.34C1101.45 344.556 1102.33 344.76 1103.38 344.952C1106.02 345.432 1108.04 346.236 1109.43 347.364C1110.82 348.492 1111.52 350.16 1111.52 352.368V352.8C1111.52 353.976 1111.3 355.044 1110.87 356.004C1110.46 356.94 1109.86 357.744 1109.07 358.416C1108.28 359.088 1107.32 359.604 1106.19 359.964C1105.06 360.324 1103.79 360.504 1102.38 360.504C1100.72 360.504 1099.26 360.276 1097.98 359.82C1096.74 359.34 1095.69 358.692 1094.85 357.876C1094.01 357.036 1093.38 356.064 1092.94 354.96C1092.51 353.832 1092.3 352.608 1092.3 351.288V350.208H1097.05V351.072C1097.05 352.584 1097.48 353.796 1098.34 354.708C1099.23 355.596 1100.6 356.04 1102.45 356.04C1103.89 356.04 1104.96 355.728 1105.65 355.104C1106.35 354.48 1106.7 353.736 1106.7 352.872C1106.7 352.464 1106.62 352.08 1106.48 351.72C1106.34 351.336 1106.08 351 1105.72 350.712C1105.36 350.4 1104.87 350.124 1104.25 349.884C1103.62 349.644 1102.83 349.44 1101.87 349.272C1100.6 349.056 1099.44 348.78 1098.38 348.444C1097.32 348.084 1096.4 347.616 1095.61 347.04C1094.84 346.464 1094.24 345.744 1093.81 344.88C1093.38 344.016 1093.16 342.96 1093.16 341.712V341.496C1093.16 340.464 1093.36 339.516 1093.77 338.652C1094.2 337.764 1094.79 336.996 1095.54 336.348C1096.3 335.7 1097.22 335.196 1098.27 334.836C1099.35 334.476 1100.55 334.296 1101.87 334.296C1103.36 334.296 1104.68 334.512 1105.83 334.944C1106.98 335.352 1107.94 335.916 1108.71 336.636C1109.5 337.356 1110.09 338.184 1110.48 339.12C1110.88 340.056 1111.09 341.04 1111.09 342.072V343.368H1106.34V342.504Z" fill="#1A73E8"/>
<path d="M1120.57 360H1115.82V334.8H1120.57V345.132H1121.61L1128.27 334.8H1133.64V335.016L1125.86 347.076V347.724L1134.07 359.784V360H1128.49L1121.61 349.668H1120.57V360Z" fill="#1A73E8"/>
<path d="M1137.68 334.8H1154.53V339.336H1148.48V355.464H1154.53V360H1137.68V355.464H1143.73V339.336H1137.68V334.8Z" fill="#1A73E8"/>
<path d="M1171.57 357.624H1172.21V334.8H1176.97V360H1167.68L1164.73 337.176H1164.08V360H1159.33V334.8H1168.61L1171.57 357.624Z" fill="#1A73E8"/>
<path d="M1204.64 334.8H1220.12V337.608H1207.66V345.96H1219.9V348.768H1207.66V360H1204.64V334.8Z" fill="#1A73E8"/>
<path d="M1226.28 334.8H1242.27V337.608H1235.79V357.192H1242.27V360H1226.28V357.192H1232.76V337.608H1226.28V334.8Z" fill="#1A73E8"/>
<path d="M1261.25 358.704H1261.68V334.8H1264.71V360H1258.66L1251.39 336.096H1250.95V360H1247.93V334.8H1253.98L1261.25 358.704Z" fill="#1A73E8"/>
<path d="M1270.73 334.8H1285.99V337.608H1273.75V345.96H1285.78V348.768H1273.75V357.192H1286.21V360H1270.73V334.8Z" fill="#1A73E8"/>
<path d="M1308.29 360H1305.26V351.576C1305.26 350.952 1305.12 350.472 1304.83 350.136C1304.54 349.8 1304.04 349.632 1303.32 349.632H1295.47V360H1292.45V334.8H1301.45C1302.74 334.8 1303.87 334.992 1304.83 335.376C1305.79 335.736 1306.58 336.228 1307.21 336.852C1307.86 337.476 1308.34 338.208 1308.65 339.048C1308.98 339.864 1309.15 340.728 1309.15 341.64V342.72C1309.15 343.656 1308.89 344.592 1308.36 345.528C1307.86 346.464 1307.06 347.184 1305.98 347.688V348.12C1306.7 348.24 1307.27 348.528 1307.68 348.984C1308.08 349.44 1308.29 350.088 1308.29 350.928V360ZM1295.47 346.824H1301.09C1302.79 346.824 1304.05 346.464 1304.87 345.744C1305.71 345 1306.13 343.92 1306.13 342.504V341.856C1306.13 340.584 1305.71 339.564 1304.87 338.796C1304.05 338.004 1302.79 337.608 1301.09 337.608H1295.47V346.824Z" fill="#1A73E8"/>
<path d="M1336.1 334.8H1344.38C1347.5 334.8 1349.78 335.544 1351.22 337.032C1352.66 338.52 1353.38 340.896 1353.38 344.16V350.64C1353.38 353.904 1352.66 356.28 1351.22 357.768C1349.78 359.256 1347.5 360 1344.38 360H1336.1V357.156H1338.26V337.608H1336.1V334.8ZM1343.95 357.192C1345.05 357.192 1346 357.084 1346.79 356.868C1347.61 356.652 1348.28 356.292 1348.81 355.788C1349.34 355.26 1349.72 354.564 1349.96 353.7C1350.23 352.836 1350.36 351.744 1350.36 350.424V344.376C1350.36 343.056 1350.23 341.964 1349.96 341.1C1349.72 340.236 1349.34 339.552 1348.81 339.048C1348.28 338.52 1347.61 338.148 1346.79 337.932C1346 337.716 1345.05 337.608 1343.95 337.608H1341.29V357.192H1343.95Z" fill="#1A73E8"/>
<path d="M1358.54 334.8H1374.52V337.608H1368.04V357.192H1374.52V360H1358.54V357.192H1365.02V337.608H1358.54V334.8Z" fill="#1A73E8"/>
<path d="M1380.98 334.8H1396.46V337.608H1384V345.96H1396.24V348.768H1384V360H1380.98V334.8Z" fill="#1A73E8"/>
<path d="M1403.02 334.8H1418.5V337.608H1406.05V345.96H1418.29V348.768H1406.05V360H1403.02V334.8Z" fill="#1A73E8"/>
<path d="M1425.03 334.8H1440.29V337.608H1428.05V345.96H1440.08V348.768H1428.05V357.192H1440.51V360H1425.03V334.8Z" fill="#1A73E8"/>
<path d="M1462.59 360H1459.56V351.576C1459.56 350.952 1459.42 350.472 1459.13 350.136C1458.84 349.8 1458.34 349.632 1457.62 349.632H1449.77V360H1446.75V334.8H1455.75C1457.04 334.8 1458.17 334.992 1459.13 335.376C1460.09 335.736 1460.88 336.228 1461.51 336.852C1462.16 337.476 1462.64 338.208 1462.95 339.048C1463.28 339.864 1463.45 340.728 1463.45 341.64V342.72C1463.45 343.656 1463.19 344.592 1462.66 345.528C1462.16 346.464 1461.36 347.184 1460.28 347.688V348.12C1461 348.24 1461.57 348.528 1461.98 348.984C1462.38 349.44 1462.59 350.088 1462.59 350.928V360ZM1449.77 346.824H1455.39C1457.09 346.824 1458.35 346.464 1459.17 345.744C1460.01 345 1460.43 343.92 1460.43 342.504V341.856C1460.43 340.584 1460.01 339.564 1459.17 338.796C1458.35 338.004 1457.09 337.608 1455.39 337.608H1449.77V346.824Z" fill="#1A73E8"/>
<path d="M1469.12 334.8H1484.38V337.608H1472.14V345.96H1484.16V348.768H1472.14V357.192H1484.6V360H1469.12V334.8Z" fill="#1A73E8"/>
<path d="M1503.72 358.704H1504.15V334.8H1507.18V360H1501.13L1493.86 336.096H1493.43V360H1490.4V334.8H1496.45L1503.72 358.704Z" fill="#1A73E8"/>
<path d="M1511.98 334.8H1529.69V337.608H1522.35V360H1519.32V337.608H1511.98V334.8Z" fill="#1A73E8"/>
<path d="M1534.88 334.8H1550.87V337.608H1544.39V357.192H1550.87V360H1534.88V357.192H1541.36V337.608H1534.88V334.8Z" fill="#1A73E8"/>
<path d="M1570.32 353.736H1559.52L1557.68 360H1554.44L1562.08 334.8H1567.76L1575.4 360H1572.16L1570.32 353.736ZM1564.7 336.096L1560.35 350.928H1569.49L1565.14 336.096H1564.7Z" fill="#1A73E8"/>
<path d="M1578.11 334.8H1595.82V337.608H1588.47V360H1585.45V337.608H1578.11V334.8Z" fill="#1A73E8"/>
<path d="M1601.01 334.8H1617V337.608H1610.52V357.192H1617V360H1601.01V357.192H1607.49V337.608H1601.01V334.8Z" fill="#1A73E8"/>
<path d="M1622.19 344.592C1622.19 341.328 1622.97 338.796 1624.53 336.996C1626.09 335.196 1628.26 334.296 1631.05 334.296C1633.83 334.296 1636 335.196 1637.56 336.996C1639.12 338.796 1639.9 341.328 1639.9 344.592V350.208C1639.9 353.568 1639.12 356.124 1637.56 357.876C1636 359.628 1633.83 360.504 1631.05 360.504C1628.26 360.504 1626.09 359.628 1624.53 357.876C1622.97 356.124 1622.19 353.568 1622.19 350.208V344.592ZM1631.05 357.696C1632.99 357.696 1634.44 357.036 1635.4 355.716C1636.39 354.372 1636.88 352.464 1636.88 349.992V344.808C1636.88 342.504 1636.39 340.644 1635.4 339.228C1634.44 337.812 1632.99 337.104 1631.05 337.104C1629.1 337.104 1627.64 337.812 1626.66 339.228C1625.7 340.644 1625.22 342.504 1625.22 344.808V349.992C1625.22 352.464 1625.7 354.372 1626.66 355.716C1627.64 357.036 1629.1 357.696 1631.05 357.696Z" fill="#1A73E8"/>
<path d="M1658.02 358.704H1658.46V334.8H1661.48V360H1655.43L1648.16 336.096H1647.73V360H1644.7V334.8H1650.75L1658.02 358.704Z" fill="#1A73E8"/>
<path d="M1681.07 342.072C1681.07 341.256 1680.91 340.536 1680.57 339.912C1680.26 339.288 1679.83 338.772 1679.27 338.364C1678.72 337.956 1678.09 337.644 1677.37 337.428C1676.65 337.212 1675.89 337.104 1675.1 337.104C1674.4 337.104 1673.74 337.2 1673.12 337.392C1672.49 337.56 1671.93 337.812 1671.43 338.148C1670.95 338.484 1670.56 338.904 1670.27 339.408C1669.99 339.888 1669.84 340.452 1669.84 341.1V341.316C1669.84 342.012 1669.99 342.612 1670.27 343.116C1670.56 343.596 1670.98 344.016 1671.53 344.376C1672.11 344.712 1672.82 345 1673.66 345.24C1674.5 345.456 1675.48 345.648 1676.61 345.816C1679.25 346.224 1681.19 347.004 1682.44 348.156C1683.69 349.284 1684.31 350.808 1684.31 352.728V353.16C1684.31 354.24 1684.12 355.236 1683.74 356.148C1683.38 357.036 1682.83 357.804 1682.08 358.452C1681.36 359.1 1680.46 359.604 1679.38 359.964C1678.3 360.324 1677.05 360.504 1675.64 360.504C1674.03 360.504 1672.6 360.276 1671.35 359.82C1670.13 359.34 1669.1 358.692 1668.26 357.876C1667.44 357.036 1666.82 356.064 1666.39 354.96C1665.95 353.832 1665.74 352.608 1665.74 351.288V350.208H1668.76V351.072C1668.76 353.28 1669.36 354.936 1670.56 356.04C1671.79 357.144 1673.48 357.696 1675.64 357.696C1677.51 357.696 1678.91 357.288 1679.85 356.472C1680.81 355.632 1681.29 354.528 1681.29 353.16V352.944C1681.29 351.624 1680.8 350.616 1679.81 349.92C1678.85 349.224 1677.28 348.72 1675.1 348.408C1673.83 348.24 1672.67 347.988 1671.64 347.652C1670.63 347.292 1669.77 346.836 1669.05 346.284C1668.33 345.708 1667.78 345.024 1667.39 344.232C1667.01 343.44 1666.82 342.504 1666.82 341.424V340.992C1666.82 340.008 1667.02 339.108 1667.43 338.292C1667.84 337.476 1668.4 336.768 1669.12 336.168C1669.87 335.568 1670.74 335.112 1671.75 334.8C1672.78 334.464 1673.91 334.296 1675.13 334.296C1676.55 334.296 1677.81 334.5 1678.91 334.908C1680.04 335.316 1680.99 335.868 1681.76 336.564C1682.53 337.236 1683.1 338.04 1683.49 338.976C1683.89 339.888 1684.1 340.848 1684.1 341.856V343.368H1681.07V342.072Z" fill="#1A73E8"/>
<path d="M864.168 583.8H880.296V588.336H868.92V594.096H880.08V598.632H868.92V609H864.168V583.8Z" fill="#1A73E8"/>
<path d="M885.995 583.8H890.747V604.464H902.195V609H885.995V583.8Z" fill="#1A73E8"/>
<path d="M908.038 583.8H923.95V588.336H912.79V594.096H923.518V598.632H912.79V604.464H924.382V609H908.038V583.8Z" fill="#1A73E8"/>
<path d="M942.465 591.504C942.465 590.496 942.069 589.62 941.277 588.876C940.509 588.132 939.417 587.76 938.001 587.76C936.801 587.76 935.853 588.012 935.157 588.516C934.461 588.996 934.113 589.656 934.113 590.496C934.113 590.928 934.197 591.324 934.365 591.684C934.533 592.02 934.821 592.332 935.229 592.62C935.661 592.884 936.213 593.124 936.885 593.34C937.581 593.556 938.457 593.76 939.513 593.952C942.153 594.432 944.169 595.236 945.561 596.364C946.953 597.492 947.649 599.16 947.649 601.368V601.8C947.649 602.976 947.433 604.044 947.001 605.004C946.593 605.94 945.993 606.744 945.201 607.416C944.409 608.088 943.449 608.604 942.321 608.964C941.193 609.324 939.921 609.504 938.505 609.504C936.849 609.504 935.385 609.276 934.113 608.82C932.865 608.34 931.821 607.692 930.981 606.876C930.141 606.036 929.505 605.064 929.073 603.96C928.641 602.832 928.425 601.608 928.425 600.288V599.208H933.177V600.072C933.177 601.584 933.609 602.796 934.473 603.708C935.361 604.596 936.729 605.04 938.577 605.04C940.017 605.04 941.085 604.728 941.781 604.104C942.477 603.48 942.825 602.736 942.825 601.872C942.825 601.464 942.753 601.08 942.609 600.72C942.465 600.336 942.213 600 941.853 599.712C941.493 599.4 941.001 599.124 940.377 598.884C939.753 598.644 938.961 598.44 938.001 598.272C936.729 598.056 935.565 597.78 934.509 597.444C933.453 597.084 932.529 596.616 931.737 596.04C930.969 595.464 930.369 594.744 929.937 593.88C929.505 593.016 929.289 591.96 929.289 590.712V590.496C929.289 589.464 929.493 588.516 929.901 587.652C930.333 586.764 930.921 585.996 931.665 585.348C932.433 584.7 933.345 584.196 934.401 583.836C935.481 583.476 936.681 583.296 938.001 583.296C939.489 583.296 940.809 583.512 941.961 583.944C943.113 584.352 944.073 584.916 944.841 585.636C945.633 586.356 946.221 587.184 946.605 588.12C947.013 589.056 947.217 590.04 947.217 591.072V592.368H942.465V591.504Z" fill="#1A73E8"/>
<path d="M951.368 583.8H956.12V594.096H964.256V583.8H969.008V609H964.256V598.632H956.12V609H951.368V583.8Z" fill="#1A73E8"/>
<path d="M1004.42 606.696C1005.45 606.696 1006.33 606.528 1007.05 606.192C1007.79 605.832 1008.39 605.364 1008.85 604.788C1009.33 604.188 1009.67 603.516 1009.89 602.772C1010.13 602.004 1010.25 601.2 1010.25 600.36V599.928H1013.27V600.36C1013.27 601.632 1013.08 602.832 1012.7 603.96C1012.31 605.064 1011.75 606.036 1011.01 606.876C1010.26 607.692 1009.34 608.34 1008.23 608.82C1007.13 609.276 1005.86 609.504 1004.42 609.504C1001.63 609.504 999.462 608.628 997.902 606.876C996.342 605.124 995.562 602.568 995.562 599.208V593.592C995.562 590.328 996.342 587.796 997.902 585.996C999.462 584.196 1001.63 583.296 1004.42 583.296C1005.86 583.296 1007.13 583.536 1008.23 584.016C1009.34 584.472 1010.26 585.12 1011.01 585.96C1011.75 586.776 1012.31 587.748 1012.7 588.876C1013.08 589.98 1013.27 591.168 1013.27 592.44V592.872H1010.25V592.44C1010.23 591.624 1010.09 590.832 1009.85 590.064C1009.64 589.296 1009.29 588.624 1008.81 588.048C1008.35 587.448 1007.77 586.98 1007.05 586.644C1006.33 586.284 1005.45 586.104 1004.42 586.104C1002.47 586.104 1001.01 586.812 1000.03 588.228C999.066 589.644 998.586 591.504 998.586 593.808V598.992C998.586 601.464 999.066 603.372 1000.03 604.716C1001.01 606.036 1002.47 606.696 1004.42 606.696Z" fill="#1A73E8"/>
<path d="M1017.46 593.592C1017.46 590.328 1018.24 587.796 1019.8 585.996C1021.36 584.196 1023.53 583.296 1026.32 583.296C1029.1 583.296 1031.27 584.196 1032.83 585.996C1034.39 587.796 1035.17 590.328 1035.17 593.592V599.208C1035.17 602.568 1034.39 605.124 1032.83 606.876C1031.27 608.628 1029.1 609.504 1026.32 609.504C1023.53 609.504 1021.36 608.628 1019.8 606.876C1018.24 605.124 1017.46 602.568 1017.46 599.208V593.592ZM1026.32 606.696C1028.26 606.696 1029.71 606.036 1030.67 604.716C1031.66 603.372 1032.15 601.464 1032.15 598.992V593.808C1032.15 591.504 1031.66 589.644 1030.67 588.228C1029.71 586.812 1028.26 586.104 1026.32 586.104C1024.37 586.104 1022.91 586.812 1021.92 588.228C1020.96 589.644 1020.48 591.504 1020.48 593.808V598.992C1020.48 601.464 1020.96 603.372 1021.92 604.716C1022.91 606.036 1024.37 606.696 1026.32 606.696Z" fill="#1A73E8"/>
<path d="M1053.29 607.704H1053.72V583.8H1056.75V609H1050.7L1043.43 585.096H1043V609H1039.97V583.8H1046.02L1053.29 607.704Z" fill="#1A73E8"/>
<path d="M1061.55 583.8H1079.26V586.608H1071.91V609H1068.89V586.608H1061.55V583.8Z" fill="#1A73E8"/>
<path d="M1100.33 609H1097.31V600.576C1097.31 599.952 1097.16 599.472 1096.87 599.136C1096.59 598.8 1096.08 598.632 1095.36 598.632H1087.51V609H1084.49V583.8H1093.49C1094.79 583.8 1095.91 583.992 1096.87 584.376C1097.83 584.736 1098.63 585.228 1099.25 585.852C1099.9 586.476 1100.38 587.208 1100.69 588.048C1101.03 588.864 1101.19 589.728 1101.19 590.64V591.72C1101.19 592.656 1100.93 593.592 1100.4 594.528C1099.9 595.464 1099.11 596.184 1098.03 596.688V597.12C1098.75 597.24 1099.31 597.528 1099.72 597.984C1100.13 598.44 1100.33 599.088 1100.33 599.928V609ZM1087.51 595.824H1093.13C1094.83 595.824 1096.09 595.464 1096.91 594.744C1097.75 594 1098.17 592.92 1098.17 591.504V590.856C1098.17 589.584 1097.75 588.564 1096.91 587.796C1096.09 587.004 1094.83 586.608 1093.13 586.608H1087.51V595.824Z" fill="#1A73E8"/>
<path d="M1119.89 602.736H1109.09L1107.25 609H1104.01L1111.64 583.8H1117.33L1124.96 609H1121.72L1119.89 602.736ZM1114.27 585.096L1109.92 599.928H1119.06L1114.7 585.096H1114.27Z" fill="#1A73E8"/>
<path d="M1142.47 591.072C1142.47 590.256 1142.3 589.536 1141.97 588.912C1141.66 588.288 1141.22 587.772 1140.67 587.364C1140.12 586.956 1139.48 586.644 1138.76 586.428C1138.04 586.212 1137.29 586.104 1136.5 586.104C1135.8 586.104 1135.14 586.2 1134.52 586.392C1133.89 586.56 1133.33 586.812 1132.82 587.148C1132.34 587.484 1131.96 587.904 1131.67 588.408C1131.38 588.888 1131.24 589.452 1131.24 590.1V590.316C1131.24 591.012 1131.38 591.612 1131.67 592.116C1131.96 592.596 1132.38 593.016 1132.93 593.376C1133.51 593.712 1134.22 594 1135.06 594.24C1135.9 594.456 1136.88 594.648 1138.01 594.816C1140.65 595.224 1142.59 596.004 1143.84 597.156C1145.09 598.284 1145.71 599.808 1145.71 601.728V602.16C1145.71 603.24 1145.52 604.236 1145.14 605.148C1144.78 606.036 1144.22 606.804 1143.48 607.452C1142.76 608.1 1141.86 608.604 1140.78 608.964C1139.7 609.324 1138.45 609.504 1137.04 609.504C1135.43 609.504 1134 609.276 1132.75 608.82C1131.53 608.34 1130.5 607.692 1129.66 606.876C1128.84 606.036 1128.22 605.064 1127.78 603.96C1127.35 602.832 1127.14 601.608 1127.14 600.288V599.208H1130.16V600.072C1130.16 602.28 1130.76 603.936 1131.96 605.04C1133.18 606.144 1134.88 606.696 1137.04 606.696C1138.91 606.696 1140.31 606.288 1141.25 605.472C1142.21 604.632 1142.69 603.528 1142.69 602.16V601.944C1142.69 600.624 1142.2 599.616 1141.21 598.92C1140.25 598.224 1138.68 597.72 1136.5 597.408C1135.22 597.24 1134.07 596.988 1133.04 596.652C1132.03 596.292 1131.17 595.836 1130.45 595.284C1129.73 594.708 1129.18 594.024 1128.79 593.232C1128.41 592.44 1128.22 591.504 1128.22 590.424V589.992C1128.22 589.008 1128.42 588.108 1128.83 587.292C1129.24 586.476 1129.8 585.768 1130.52 585.168C1131.26 584.568 1132.14 584.112 1133.15 583.8C1134.18 583.464 1135.31 583.296 1136.53 583.296C1137.95 583.296 1139.21 583.5 1140.31 583.908C1141.44 584.316 1142.39 584.868 1143.16 585.564C1143.92 586.236 1144.5 587.04 1144.88 587.976C1145.29 588.888 1145.5 589.848 1145.5 590.856V592.368H1142.47V591.072Z" fill="#1A73E8"/>
<path d="M1149.72 583.8H1167.43V586.608H1160.09V609H1157.06V586.608H1149.72V583.8Z" fill="#1A73E8"/>
<path d="M1212.52 597.768H1209.03V609H1200.97C1199.77 609 1198.7 608.832 1197.76 608.496C1196.83 608.16 1196.05 607.704 1195.42 607.128C1194.8 606.528 1194.32 605.832 1193.98 605.04C1193.67 604.224 1193.52 603.348 1193.52 602.412V601.98C1193.52 600.612 1193.92 599.46 1194.74 598.524C1195.56 597.564 1196.56 596.916 1197.76 596.58V596.148C1196.56 595.836 1195.56 595.212 1194.74 594.276C1193.92 593.316 1193.52 592.152 1193.52 590.784V590.352C1193.52 589.416 1193.67 588.552 1193.98 587.76C1194.32 586.944 1194.8 586.248 1195.42 585.672C1196.05 585.096 1196.83 584.64 1197.76 584.304C1198.7 583.968 1199.77 583.8 1200.97 583.8H1205.58V586.608H1201.18C1199.77 586.608 1198.62 586.968 1197.73 587.688C1196.84 588.384 1196.4 589.344 1196.4 590.568V590.784C1196.4 592.08 1196.82 593.1 1197.66 593.844C1198.5 594.588 1199.64 594.96 1201.08 594.96H1206.01V591.144H1209.03V594.96H1212.52V597.768ZM1206.01 606.192V597.768H1201.08C1199.64 597.768 1198.5 598.152 1197.66 598.92C1196.82 599.664 1196.4 600.684 1196.4 601.98V602.196C1196.4 603.444 1196.84 604.428 1197.73 605.148C1198.62 605.844 1199.77 606.192 1201.18 606.192H1206.01Z" fill="#1A73E8"/>
<path d="M1252.69 591.072C1252.69 590.256 1252.52 589.536 1252.18 588.912C1251.87 588.288 1251.44 587.772 1250.89 587.364C1250.33 586.956 1249.7 586.644 1248.98 586.428C1248.26 586.212 1247.5 586.104 1246.71 586.104C1246.01 586.104 1245.35 586.2 1244.73 586.392C1244.11 586.56 1243.54 586.812 1243.04 587.148C1242.56 587.484 1242.17 587.904 1241.89 588.408C1241.6 588.888 1241.45 589.452 1241.45 590.1V590.316C1241.45 591.012 1241.6 591.612 1241.89 592.116C1242.17 592.596 1242.59 593.016 1243.15 593.376C1243.72 593.712 1244.43 594 1245.27 594.24C1246.11 594.456 1247.09 594.648 1248.22 594.816C1250.86 595.224 1252.81 596.004 1254.05 597.156C1255.3 598.284 1255.93 599.808 1255.93 601.728V602.16C1255.93 603.24 1255.73 604.236 1255.35 605.148C1254.99 606.036 1254.44 606.804 1253.69 607.452C1252.97 608.1 1252.07 608.604 1250.99 608.964C1249.91 609.324 1248.67 609.504 1247.25 609.504C1245.64 609.504 1244.21 609.276 1242.97 608.82C1241.74 608.34 1240.71 607.692 1239.87 606.876C1239.05 606.036 1238.43 605.064 1238 603.96C1237.57 602.832 1237.35 601.608 1237.35 600.288V599.208H1240.37V600.072C1240.37 602.28 1240.97 603.936 1242.17 605.04C1243.4 606.144 1245.09 606.696 1247.25 606.696C1249.12 606.696 1250.53 606.288 1251.46 605.472C1252.42 604.632 1252.9 603.528 1252.9 602.16V601.944C1252.9 600.624 1252.41 599.616 1251.43 598.92C1250.47 598.224 1248.89 597.72 1246.71 597.408C1245.44 597.24 1244.29 596.988 1243.25 596.652C1242.25 596.292 1241.38 595.836 1240.66 595.284C1239.94 594.708 1239.39 594.024 1239.01 593.232C1238.62 592.44 1238.43 591.504 1238.43 590.424V589.992C1238.43 589.008 1238.63 588.108 1239.04 587.292C1239.45 586.476 1240.01 585.768 1240.73 585.168C1241.48 584.568 1242.35 584.112 1243.36 583.8C1244.39 583.464 1245.52 583.296 1246.75 583.296C1248.16 583.296 1249.42 583.5 1250.53 583.908C1251.65 584.316 1252.6 584.868 1253.37 585.564C1254.14 586.236 1254.71 587.04 1255.1 587.976C1255.51 588.888 1255.71 589.848 1255.71 590.856V592.368H1252.69V591.072Z" fill="#1A73E8"/>
<path d="M1261.16 583.8H1276.42V586.608H1264.18V594.96H1276.21V597.768H1264.18V606.192H1276.64V609H1261.16V583.8Z" fill="#1A73E8"/>
<path d="M1298.72 609H1295.69V600.576C1295.69 599.952 1295.55 599.472 1295.26 599.136C1294.97 598.8 1294.47 598.632 1293.75 598.632H1285.9V609H1282.88V583.8H1291.88C1293.17 583.8 1294.3 583.992 1295.26 584.376C1296.22 584.736 1297.01 585.228 1297.64 585.852C1298.28 586.476 1298.76 587.208 1299.08 588.048C1299.41 588.864 1299.58 589.728 1299.58 590.64V591.72C1299.58 592.656 1299.32 593.592 1298.79 594.528C1298.28 595.464 1297.49 596.184 1296.41 596.688V597.12C1297.13 597.24 1297.7 597.528 1298.1 597.984C1298.51 598.44 1298.72 599.088 1298.72 599.928V609ZM1285.9 595.824H1291.52C1293.22 595.824 1294.48 595.464 1295.3 594.744C1296.14 594 1296.56 592.92 1296.56 591.504V590.856C1296.56 589.584 1296.14 588.564 1295.3 587.796C1294.48 587.004 1293.22 586.608 1291.52 586.608H1285.9V595.824Z" fill="#1A73E8"/>
<path d="M1304.88 583.8H1320.87V586.608H1314.39V606.192H1320.87V609H1304.88V606.192H1311.36V586.608H1304.88V583.8Z" fill="#1A73E8"/>
<path d="M1327.32 583.8H1342.8V586.608H1330.35V594.96H1342.59V597.768H1330.35V609H1327.32V583.8Z" fill="#1A73E8"/>
<path d="M1362.9 591.072C1362.9 590.256 1362.73 589.536 1362.4 588.912C1362.09 588.288 1361.65 587.772 1361.1 587.364C1360.55 586.956 1359.91 586.644 1359.19 586.428C1358.47 586.212 1357.72 586.104 1356.93 586.104C1356.23 586.104 1355.57 586.2 1354.95 586.392C1354.32 586.56 1353.76 586.812 1353.25 587.148C1352.77 587.484 1352.39 587.904 1352.1 588.408C1351.81 588.888 1351.67 589.452 1351.67 590.1V590.316C1351.67 591.012 1351.81 591.612 1352.1 592.116C1352.39 592.596 1352.81 593.016 1353.36 593.376C1353.94 593.712 1354.65 594 1355.49 594.24C1356.33 594.456 1357.31 594.648 1358.44 594.816C1361.08 595.224 1363.02 596.004 1364.27 597.156C1365.52 598.284 1366.14 599.808 1366.14 601.728V602.16C1366.14 603.24 1365.95 604.236 1365.57 605.148C1365.21 606.036 1364.65 606.804 1363.91 607.452C1363.19 608.1 1362.29 608.604 1361.21 608.964C1360.13 609.324 1358.88 609.504 1357.47 609.504C1355.86 609.504 1354.43 609.276 1353.18 608.82C1351.96 608.34 1350.93 607.692 1350.09 606.876C1349.27 606.036 1348.65 605.064 1348.21 603.96C1347.78 602.832 1347.57 601.608 1347.57 600.288V599.208H1350.59V600.072C1350.59 602.28 1351.19 603.936 1352.39 605.04C1353.61 606.144 1355.31 606.696 1357.47 606.696C1359.34 606.696 1360.74 606.288 1361.68 605.472C1362.64 604.632 1363.12 603.528 1363.12 602.16V601.944C1363.12 600.624 1362.63 599.616 1361.64 598.92C1360.68 598.224 1359.11 597.72 1356.93 597.408C1355.65 597.24 1354.5 596.988 1353.47 596.652C1352.46 596.292 1351.6 595.836 1350.88 595.284C1350.16 594.708 1349.61 594.024 1349.22 593.232C1348.84 592.44 1348.65 591.504 1348.65 590.424V589.992C1348.65 589.008 1348.85 588.108 1349.26 587.292C1349.67 586.476 1350.23 585.768 1350.95 585.168C1351.69 584.568 1352.57 584.112 1353.58 583.8C1354.61 583.464 1355.74 583.296 1356.96 583.296C1358.38 583.296 1359.64 583.5 1360.74 583.908C1361.87 584.316 1362.82 584.868 1363.59 585.564C1364.35 586.236 1364.93 587.04 1365.31 587.976C1365.72 588.888 1365.93 589.848 1365.93 590.856V592.368H1362.9V591.072Z" fill="#1A73E8"/>
<path d="M644.337 843.504C644.337 842.496 643.941 841.62 643.149 840.876C642.381 840.132 641.289 839.76 639.873 839.76C638.673 839.76 637.725 840.012 637.029 840.516C636.333 840.996 635.985 841.656 635.985 842.496C635.985 842.928 636.069 843.324 636.237 843.684C636.405 844.02 636.693 844.332 637.101 844.62C637.533 844.884 638.085 845.124 638.757 845.34C639.453 845.556 640.329 845.76 641.385 845.952C644.025 846.432 646.041 847.236 647.433 848.364C648.825 849.492 649.521 851.16 649.521 853.368V853.8C649.521 854.976 649.305 856.044 648.873 857.004C648.465 857.94 647.865 858.744 647.073 859.416C646.281 860.088 645.321 860.604 644.193 860.964C643.065 861.324 641.793 861.504 640.377 861.504C638.721 861.504 637.257 861.276 635.985 860.82C634.737 860.34 633.693 859.692 632.853 858.876C632.013 858.036 631.377 857.064 630.945 855.96C630.513 854.832 630.297 853.608 630.297 852.288V851.208H635.049V852.072C635.049 853.584 635.481 854.796 636.345 855.708C637.233 856.596 638.601 857.04 640.449 857.04C641.889 857.04 642.957 856.728 643.653 856.104C644.349 855.48 644.697 854.736 644.697 853.872C644.697 853.464 644.625 853.08 644.481 852.72C644.337 852.336 644.085 852 643.725 851.712C643.365 851.4 642.873 851.124 642.249 850.884C641.625 850.644 640.833 850.44 639.873 850.272C638.601 850.056 637.437 849.78 636.381 849.444C635.325 849.084 634.401 848.616 633.609 848.04C632.841 847.464 632.241 846.744 631.809 845.88C631.377 845.016 631.161 843.96 631.161 842.712V842.496C631.161 841.464 631.365 840.516 631.773 839.652C632.205 838.764 632.793 837.996 633.537 837.348C634.305 836.7 635.217 836.196 636.273 835.836C637.353 835.476 638.553 835.296 639.873 835.296C641.361 835.296 642.681 835.512 643.833 835.944C644.985 836.352 645.945 836.916 646.713 837.636C647.505 838.356 648.093 839.184 648.477 840.12C648.885 841.056 649.089 842.04 649.089 843.072V844.368H644.337V843.504Z" fill="#1A73E8"/>
<path d="M658.568 861H653.816V835.8H658.568V846.132H659.612L666.272 835.8H671.636V836.016L663.86 848.076V848.724L672.068 860.784V861H666.488L659.612 850.668H658.568V861Z" fill="#1A73E8"/>
<path d="M676.039 835.8H691.951V840.336H680.791V846.096H691.519V850.632H680.791V856.464H692.383V861H676.039V835.8Z" fill="#1A73E8"/>
<path d="M698.082 835.8H702.834V856.464H714.282V861H698.082V835.8Z" fill="#1A73E8"/>
<path d="M720.125 835.8H736.037V840.336H724.877V846.096H735.605V850.632H724.877V856.464H736.469V861H720.125V835.8Z" fill="#1A73E8"/>
<path d="M741.16 835.8H759.304V840.336H752.608V861H747.856V840.336H741.16V835.8Z" fill="#1A73E8"/>
<path d="M762.987 845.592C762.987 842.328 763.803 839.796 765.435 837.996C767.091 836.196 769.371 835.296 772.275 835.296C775.179 835.296 777.447 836.196 779.079 837.996C780.735 839.796 781.563 842.328 781.563 845.592V851.208C781.563 854.568 780.735 857.124 779.079 858.876C777.447 860.628 775.179 861.504 772.275 861.504C769.371 861.504 767.091 860.628 765.435 858.876C763.803 857.124 762.987 854.568 762.987 851.208V845.592ZM772.275 857.184C773.139 857.184 773.859 857.052 774.435 856.788C775.011 856.5 775.479 856.104 775.839 855.6C776.199 855.096 776.451 854.496 776.595 853.8C776.739 853.104 776.811 852.336 776.811 851.496V845.304C776.811 844.512 776.727 843.768 776.559 843.072C776.391 842.376 776.127 841.776 775.767 841.272C775.407 840.768 774.939 840.372 774.363 840.084C773.787 839.772 773.091 839.616 772.275 839.616C771.459 839.616 770.763 839.772 770.187 840.084C769.611 840.372 769.143 840.768 768.783 841.272C768.423 841.776 768.159 842.376 767.991 843.072C767.823 843.768 767.739 844.512 767.739 845.304V851.496C767.739 852.336 767.811 853.104 767.955 853.8C768.099 854.496 768.351 855.096 768.711 855.6C769.071 856.104 769.539 856.5 770.115 856.788C770.691 857.052 771.411 857.184 772.275 857.184Z" fill="#1A73E8"/>
<path d="M797.738 858.624H798.386V835.8H803.138V861H793.85L790.898 838.176H790.25V861H785.498V835.8H794.786L797.738 858.624Z" fill="#1A73E8"/>
<path d="M830.808 835.8H846.288V838.608H833.832V846.96H846.072V849.768H833.832V861H830.808V835.8Z" fill="#1A73E8"/>
<path d="M851.591 845.592C851.591 842.328 852.371 839.796 853.931 837.996C855.491 836.196 857.663 835.296 860.447 835.296C863.231 835.296 865.403 836.196 866.963 837.996C868.523 839.796 869.303 842.328 869.303 845.592V851.208C869.303 854.568 868.523 857.124 866.963 858.876C865.403 860.628 863.231 861.504 860.447 861.504C857.663 861.504 855.491 860.628 853.931 858.876C852.371 857.124 851.591 854.568 851.591 851.208V845.592ZM860.447 858.696C862.391 858.696 863.843 858.036 864.803 856.716C865.787 855.372 866.279 853.464 866.279 850.992V845.808C866.279 843.504 865.787 841.644 864.803 840.228C863.843 838.812 862.391 838.104 860.447 838.104C858.503 838.104 857.039 838.812 856.055 840.228C855.095 841.644 854.615 843.504 854.615 845.808V850.992C854.615 853.464 855.095 855.372 856.055 856.716C857.039 858.036 858.503 858.696 860.447 858.696Z" fill="#1A73E8"/>
<path d="M890.374 861H887.35V852.576C887.35 851.952 887.206 851.472 886.918 851.136C886.63 850.8 886.126 850.632 885.406 850.632H877.558V861H874.534V835.8H883.534C884.83 835.8 885.958 835.992 886.918 836.376C887.878 836.736 888.67 837.228 889.294 837.852C889.942 838.476 890.422 839.208 890.734 840.048C891.07 840.864 891.238 841.728 891.238 842.64V843.72C891.238 844.656 890.974 845.592 890.446 846.528C889.942 847.464 889.15 848.184 888.07 848.688V849.12C888.79 849.24 889.354 849.528 889.762 849.984C890.17 850.44 890.374 851.088 890.374 851.928V861ZM877.558 847.824H883.174C884.878 847.824 886.138 847.464 886.954 846.744C887.794 846 888.214 844.92 888.214 843.504V842.856C888.214 841.584 887.794 840.564 886.954 839.796C886.138 839.004 884.878 838.608 883.174 838.608H877.558V847.824Z" fill="#1A73E8"/>
<path d="M895.173 835.8H900.933L904.316 859.704H904.749L908.133 835.8H913.893V861H911.085V837.096H910.652L907.269 861H901.797L898.413 837.096H897.98V861H895.173V835.8Z" fill="#1A73E8"/>
<path d="M939.258 835.8H945.018L948.402 859.704H948.834L952.218 835.8H957.978V861H955.17V837.096H954.738L951.354 861H945.882L942.498 837.096H942.066V861H939.258V835.8Z" fill="#1A73E8"/>
<path d="M961.805 845.592C961.805 842.328 962.585 839.796 964.145 837.996C965.705 836.196 967.877 835.296 970.661 835.296C973.445 835.296 975.617 836.196 977.177 837.996C978.737 839.796 979.517 842.328 979.517 845.592V851.208C979.517 854.568 978.737 857.124 977.177 858.876C975.617 860.628 973.445 861.504 970.661 861.504C967.877 861.504 965.705 860.628 964.145 858.876C962.585 857.124 961.805 854.568 961.805 851.208V845.592ZM970.661 858.696C972.605 858.696 974.057 858.036 975.017 856.716C976.001 855.372 976.493 853.464 976.493 850.992V845.808C976.493 843.504 976.001 841.644 975.017 840.228C974.057 838.812 972.605 838.104 970.661 838.104C968.717 838.104 967.253 838.812 966.269 840.228C965.309 841.644 964.829 843.504 964.829 845.808V850.992C964.829 853.464 965.309 855.372 966.269 856.716C967.253 858.036 968.717 858.696 970.661 858.696Z" fill="#1A73E8"/>
<path d="M984.316 835.8H992.596C995.716 835.8 997.996 836.544 999.436 838.032C1000.88 839.52 1001.6 841.896 1001.6 845.16V851.64C1001.6 854.904 1000.88 857.28 999.436 858.768C997.996 860.256 995.716 861 992.596 861H984.316V858.156H986.476V838.608H984.316V835.8ZM992.164 858.192C993.268 858.192 994.216 858.084 995.008 857.868C995.824 857.652 996.496 857.292 997.024 856.788C997.552 856.26 997.936 855.564 998.176 854.7C998.44 853.836 998.572 852.744 998.572 851.424V845.376C998.572 844.056 998.44 842.964 998.176 842.1C997.936 841.236 997.552 840.552 997.024 840.048C996.496 839.52 995.824 839.148 995.008 838.932C994.216 838.716 993.268 838.608 992.164 838.608H989.5V858.192H992.164Z" fill="#1A73E8"/>
<path d="M1007.12 835.8H1022.38V838.608H1010.14V846.96H1022.16V849.768H1010.14V858.192H1022.6V861H1007.12V835.8Z" fill="#1A73E8"/>
<path d="M1028.91 835.8H1031.93V858.192H1045.11V861H1028.91V835.8Z" fill="#1A73E8"/>
<path fill-rule="evenodd" clip-rule="evenodd" d="M992.001 357.667C986.11 357.667 981.334 352.891 981.334 347C981.334 341.109 986.11 336.333 992.001 336.333C997.208 336.333 1001.54 340.065 1002.48 345H1080V349H1002.48C1001.54 353.935 997.208 357.667 992.001 357.667Z" fill="#1A73E8"/>
<path fill-rule="evenodd" clip-rule="evenodd" d="M762.001 606.667C756.11 606.667 751.334 601.891 751.334 596C751.334 590.109 756.11 585.333 762.001 585.333C767.208 585.333 771.544 589.065 772.48 594H850.001V598H772.48C771.544 602.935 767.208 606.667 762.001 606.667Z" fill="#1A73E8"/>
<path fill-rule="evenodd" clip-rule="evenodd" d="M540.001 858.667C534.11 858.667 529.334 853.891 529.334 848C529.334 842.109 534.11 837.333 540.001 837.333C545.208 837.333 549.544 841.065 550.48 846H618.001V850H550.48C549.544 854.935 545.208 858.667 540.001 858.667Z" fill="#1A73E8"/>
</svg>
