<svg xmlns="http://www.w3.org/2000/svg" width="1920" height="1080" fill="none"><path fill="#FF6D7F" d="M927 507.5c0 21.263-17.237 38.5-38.5 38.5S850 528.763 850 507.5s17.237-38.5 38.5-38.5 38.5 17.237 38.5 38.5Z" opacity=".25"/><path fill="#FF6D7F" fill-rule="evenodd" d="m1605.89 540.7-3.99-.137c.07-2.012.1-4.033.1-6.063 0-2.03-.03-4.051-.1-6.063l3.99-.137c.07 2.058.11 4.125.11 6.2s-.04 4.142-.11 6.2Zm-1.93-33.245-3.95.603c-.62-4.014-1.37-7.981-2.25-11.895l3.91-.878c.9 4.005 1.66 8.064 2.29 12.17Zm-8.1-32.282-3.77 1.337a173.028 173.028 0 0 0-4.44-11.255l3.66-1.6c1.65 3.769 3.17 7.611 4.55 11.518Zm-14.06-30.167-3.45 2.029a170.293 170.293 0 0 0-6.5-10.199l3.29-2.27a172.17 172.17 0 0 1 6.66 10.44Zm-19.56-26.928-3 2.652a164.95 164.95 0 0 0-8.34-8.754l2.8-2.862c2.95 2.88 5.8 5.87 8.54 8.964Zm-24.4-22.64-2.42 3.185c-3.21-2.436-6.5-4.754-9.88-6.948l2.17-3.355c3.47 2.247 6.85 4.622 10.13 7.118Zm-28.38-17.381-1.73 3.604a158.292 158.292 0 0 0-11.07-4.821l1.46-3.726c3.85 1.507 7.63 3.156 11.34 4.943Zm-31.29-11.291-.97 3.883c-3.89-.965-7.83-1.786-11.82-2.457l.67-3.944c4.09.688 8.13 1.529 12.12 2.518Zm-32.95-4.649-.15 3.997a159.844 159.844 0 0 0-12.03-.003l-.15-3.997a164.107 164.107 0 0 1 12.33.003Zm-32.9 2.099.67 3.944c-3.95.666-7.84 1.481-11.67 2.439l-.97-3.88c3.93-.984 7.92-1.82 11.97-2.503Zm-31.65 8.858c-3.8 1.515-7.53 3.175-11.17 4.974l1.77 3.587c3.55-1.752 7.18-3.37 10.88-4.846l-1.48-3.715Zm-29.07 15.342 2.23 3.321c-3.3 2.215-6.51 4.558-9.63 7.021l-2.48-3.139c3.2-2.526 6.5-4.93 9.88-7.203Zm-25.25 21.041 2.86 2.796c-2.78 2.84-5.45 5.788-8.02 8.839l-3.06-2.576a161.96 161.96 0 0 1 8.22-9.059Zm-20.54 25.671 3.35 2.182a166.48 166.48 0 0 0-6.15 10.239l-3.5-1.937a168.32 168.32 0 0 1 6.3-10.484Zm-15.23 29.138 3.7 1.513a175.62 175.62 0 0 0-4.14 11.22l-3.8-1.256c1.29-3.893 2.7-7.72 4.24-11.477Zm-9.61 31.45 3.92.818c-.81 3.882-1.5 7.815-2.06 11.795l-3.96-.559a182.64 182.64 0 0 1 2.1-12.054Zm-3.87 32.658c-.07 2.034-.1 4.076-.1 6.126 0 2.05.03 4.092.1 6.126l3.99-.127a199.165 199.165 0 0 1 0-11.998l-3.99-.127Zm1.77 32.856 3.96-.559c.56 3.98 1.25 7.913 2.06 11.795l-3.92.818a182.64 182.64 0 0 1-2.1-12.054Zm7.47 32.027 3.8-1.256a175.62 175.62 0 0 0 4.14 11.22l-3.7 1.513a177.228 177.228 0 0 1-4.24-11.477Zm13.17 30.131 3.5-1.938c1.93 3.499 3.99 6.914 6.15 10.24l-3.35 2.182a168.32 168.32 0 0 1-6.3-10.484Zm18.62 27.096 3.06-2.576c2.57 3.051 5.24 5.999 8.02 8.839l-2.86 2.796a161.96 161.96 0 0 1-8.22-9.059Zm23.59 22.897 2.48-3.139c3.12 2.463 6.33 4.806 9.63 7.021l-2.23 3.321a160.145 160.145 0 0 1-9.88-7.203Zm27.78 17.571 1.77-3.587c3.55 1.752 7.18 3.37 10.88 4.846l-1.48 3.715c-3.8-1.515-7.53-3.175-11.17-4.974Zm30.85 11.329.97-3.88c3.83.958 7.72 1.773 11.67 2.439l-.67 3.944a156.23 156.23 0 0 1-11.97-2.503Zm32.54 4.605.15-3.997a160.375 160.375 0 0 0 12.03-.003l.15 3.997a163.584 163.584 0 0 1-12.33.003Zm33.16-2.134c4.09-.688 8.13-1.529 12.12-2.518l-.97-3.883c-3.89.965-7.83 1.786-11.82 2.457l.67 3.944Zm32.07-8.866-1.46-3.726c3.76-1.469 7.45-3.078 11.07-4.821l1.73 3.604a163.228 163.228 0 0 1-11.34 4.943Zm29.59-15.206-2.17-3.355c3.38-2.194 6.67-4.512 9.88-6.948l2.42 3.185a163.315 163.315 0 0 1-10.13 7.118Zm25.99-20.794-2.8-2.862a164.95 164.95 0 0 0 8.34-8.754l3 2.652a170.568 170.568 0 0 1-8.54 8.964Zm21.44-25.452-3.29-2.27c2.28-3.313 4.45-6.714 6.5-10.199l3.45 2.029a172.17 172.17 0 0 1-6.66 10.44Zm16.17-29.089-3.66-1.6c1.6-3.683 3.09-7.437 4.44-11.255l3.77 1.337c-1.38 3.907-2.9 7.749-4.55 11.518Zm10.36-31.63-3.91-.878c.88-3.914 1.63-7.881 2.25-11.895l3.95.603a180.03 180.03 0 0 1-2.29 12.17Z" clip-rule="evenodd"/><path fill="#FF6D7F" d="M455 491.5c0 39.488-32.012 71.5-71.5 71.5S312 530.988 312 491.5s32.012-71.5 71.5-71.5 71.5 32.012 71.5 71.5Z" opacity=".25"/><path fill="#3C4043" d="M1589.48 431.15h49.14v-42.21h-97.02v44.1h-1.89c-20.16-28.98-61.74-50.4-98.91-50.4-90.09 0-144.27 66.15-144.27 151.2 0 85.05 54.18 152.46 144.27 152.46 37.17 0 78.75-20.79 98.91-50.4h1.89V680h97.02v-42.21h-49.14V431.15Zm-238.77 102.69c0-54.18 28.98-108.36 95.13-108.36 47.25 0 94.5 39.06 94.5 108.36s-47.25 109.62-94.5 109.62c-66.15 0-95.13-53.55-95.13-109.62ZM569.8 687.8c-17.333 0-30.983-4.333-40.95-13-9.533-9.1-15.166-22.317-16.9-39.65l-2.6-.65c-10.4 10.4-20.366 19.5-29.9 27.3-9.1 7.367-17.333 13.217-24.7 17.55-6.933 3.9-12.566 5.85-16.9 5.85-16.033 0-30.333-3.467-42.9-10.4-12.566-6.933-22.533-16.467-29.9-28.6-6.933-12.133-10.4-26-10.4-41.6 0-12.567 3.034-23.617 9.1-33.15 6.5-9.533 14.95-15.817 25.35-18.85l123.5-33.8.65-28.6c0-21.667-4.983-38.567-14.95-50.7-9.966-12.133-24.05-18.2-42.25-18.2-12.133 0-24.916 2.817-38.35 8.45-13.433 5.633-26.65 13.65-39.65 24.05l-3.25-1.95-7.8-27.95c11.267-6.5 23.834-13.217 37.7-20.15 13.867-7.367 27.084-13.433 39.65-18.2 12.567-4.767 22.1-7.15 28.6-7.15 19.067 0 35.317 3.467 48.75 10.4 13.434 6.5 23.617 16.033 30.55 28.6 7.367 12.133 11.05 27.083 11.05 44.85 0 5.633-.65 14.733-1.95 27.3-.866 12.567-2.166 26.65-3.9 42.25-1.733 15.167-3.25 29.9-4.55 44.2-.866 14.3-1.3 26.217-1.3 35.75 0 9.533 2.384 16.9 7.15 22.1 4.767 5.2 11.267 7.8 19.5 7.8 7.367 0 14.734-1.733 22.1-5.2 7.367-3.9 13-7.583 16.9-11.05l9.1 10.4c-3.466 5.633-8.233 12.133-14.3 19.5-5.633 6.933-12.133 13.433-19.5 19.5-6.933 6.067-14.516 10.4-22.75 13ZM448.9 641c8.234 0 17.767-2.817 28.6-8.45 11.267-6.067 21.45-13.65 30.55-22.75l3.25-66.3-88.4 26.65c-12.566 3.9-18.85 13-18.85 27.3 0 12.133 4.117 22.533 12.35 31.2 8.667 8.233 19.5 12.35 32.5 12.35ZM1076.55 686.3c-9.87 0-19.01-1.785-27.41-5.355-8.19-3.36-14.8-9.03-19.84-17.01-5.04-8.19-7.56-19.11-7.56-32.76v-143.01c0-15.12-1.26-29.61-3.78-43.47-2.52-13.86-7.88-25.2-16.07-34.02-7.98-8.82-20.37-13.23-37.17-13.23-9.45 0-19.32 1.05-29.61 3.15-10.08 2.1-19.53 5.355-28.35 9.765-8.61 4.2-15.645 9.555-21.105 16.065-5.46 6.51-8.19 14.175-8.19 22.995H862.66c0-10.71 3.465-19.11 10.395-25.2 7.14-6.3 14.91-9.45 23.31-9.45 9.03 0 17.22 2.94 24.57 8.82 7.56 5.67 11.34 13.86 11.34 24.57 0 12.6-3.885 21.735-11.655 27.405-7.56 5.67-15.645 8.505-24.255 8.505-9.66 0-17.85-2.94-24.57-8.82-6.51-5.88-9.765-14.49-9.765-25.83 0-9.87 3.15-18.69 9.45-26.46 6.51-7.98 15.12-14.7 25.83-20.16 10.92-5.67 23.1-9.975 36.54-12.915 13.65-3.15 27.615-4.725 41.895-4.725 28.985 0 50.615 5.04 64.895 15.12 14.49 10.08 24.15 22.995 28.98 38.745 4.83 15.75 7.24 32.13 7.24 49.14v154.98c0 6.93 1.16 12.81 3.47 17.64 2.52 4.83 7.66 7.245 15.43 7.245 5.46 0 11.45-2.205 17.96-6.615 6.72-4.62 11.86-10.395 15.43-17.325l5.99 11.34c-5.46 8.82-13.13 16.17-23 22.05-9.87 5.88-21.73 8.82-35.59 8.82Zm-146.795 0c-27.3 0-49.14-6.93-65.52-20.79-16.17-14.07-24.255-33.075-24.255-57.015 0-28.14 12.075-50.19 36.225-66.15 24.15-16.17 58.59-24.255 103.32-24.255h71.505v10.71h-71.505c-18.48 0-33.39 3.885-44.73 11.655-11.34 7.77-19.635 17.43-24.885 28.98s-7.875 23.1-7.875 34.65c0 10.5 1.575 20.58 4.725 30.24 3.36 9.66 8.505 17.64 15.435 23.94 6.93 6.3 15.96 9.45 27.09 9.45 11.55 0 22.89-3.78 34.02-11.34 11.13-7.77 20.265-19.215 27.405-34.335 7.35-15.33 11.03-34.44 11.03-57.33h7.24c0 23.94-3.88 45.045-11.65 63.315-7.56 18.27-18.695 32.55-33.395 42.84-14.7 10.29-32.76 15.435-54.18 15.435Z"/><path fill="#1A73E8" d="M412.328 129.8h8.28c3.12 0 5.4.744 6.84 2.232 1.44 1.488 2.16 3.864 2.16 7.128v6.48c0 3.264-.72 5.64-2.16 7.128-1.44 1.488-3.72 2.232-6.84 2.232h-8.28v-2.844h2.16v-19.548h-2.16V129.8Zm7.848 22.392c1.104 0 2.052-.108 2.844-.324.816-.216 1.488-.576 2.016-1.08.528-.528.912-1.224 1.152-2.088.264-.864.396-1.956.396-3.276v-6.048c0-1.32-.132-2.412-.396-3.276-.24-.864-.624-1.548-1.152-2.052-.528-.528-1.2-.9-2.016-1.116-.792-.216-1.74-.324-2.844-.324h-2.664v19.584h2.664ZM441.247 146.144h-.648l-7.884-16.344h3.384l6.444 13.752h.432l6.444-13.752h3.384l-7.884 16.344h-.648V155h-3.024v-8.856ZM469.734 153.704h.432V129.8h3.024V155h-6.048l-7.272-23.904h-.432V155h-3.024v-25.2h6.048l7.272 23.904ZM492.245 148.736h-10.8L479.609 155h-3.24l7.632-25.2h5.688l7.632 25.2h-3.24l-1.836-6.264Zm-5.616-17.64-4.356 14.832h9.144l-4.356-14.832h-.432ZM499.528 129.8h5.76l3.384 23.904h.432l3.384-23.904h5.76V155h-2.808v-23.904h-.432L511.624 155h-5.472l-3.384-23.904h-.432V155h-2.808v-25.2ZM522.939 129.8h15.984v2.808h-6.48v19.584h6.48V155h-15.984v-2.808h6.48v-19.584h-6.48V129.8ZM553.118 152.696c1.032 0 1.908-.168 2.628-.504.744-.36 1.344-.828 1.8-1.404a5.77 5.77 0 0 0 1.044-2.016 8.04 8.04 0 0 0 .36-2.412v-.432h3.024v.432c0 1.272-.192 2.472-.576 3.6a8.618 8.618 0 0 1-1.692 2.916c-.744.816-1.668 1.464-2.772 1.944-1.104.456-2.376.684-3.816.684-2.784 0-4.956-.876-6.516-2.628-1.56-1.752-2.34-4.308-2.34-7.668v-5.616c0-3.264.78-5.796 2.34-7.596 1.56-1.8 3.732-2.7 6.516-2.7 1.44 0 2.712.24 3.816.72 1.104.456 2.028 1.104 2.772 1.944.744.816 1.308 1.788 1.692 2.916.384 1.104.576 2.292.576 3.564v.432h-3.024v-.432a8.795 8.795 0 0 0-.396-2.376 5.383 5.383 0 0 0-1.044-2.016 4.636 4.636 0 0 0-1.764-1.404c-.72-.36-1.596-.54-2.628-.54-1.944 0-3.408.708-4.392 2.124-.96 1.416-1.44 3.276-1.44 5.58v5.184c0 2.472.48 4.38 1.44 5.724.984 1.32 2.448 1.98 4.392 1.98ZM891.557 155h-3.024v-8.424c0-.624-.144-1.104-.432-1.44-.288-.336-.792-.504-1.512-.504h-7.848V155h-3.024v-25.2h9c1.296 0 2.424.192 3.384.576.96.36 1.752.852 2.376 1.476a5.83 5.83 0 0 1 1.44 2.196 6.74 6.74 0 0 1 .504 2.592v1.08c0 .936-.264 1.872-.792 2.808-.504.936-1.296 1.656-2.376 2.16v.432c.72.12 1.284.408 1.692.864.408.456.612 1.104.612 1.944V155Zm-12.816-13.176h5.616c1.704 0 2.964-.36 3.78-1.08.84-.744 1.26-1.824 1.26-3.24v-.648c0-1.272-.42-2.292-1.26-3.06-.816-.792-2.076-1.188-3.78-1.188h-5.616v9.216ZM911.116 148.736h-10.8L898.48 155h-3.24l7.632-25.2h5.688l7.632 25.2h-3.24l-1.836-6.264Zm-5.616-17.64-4.356 14.832h9.144l-4.356-14.832h-.432ZM918.903 129.8h17.712v2.808h-7.344V155h-3.024v-22.392h-7.344V129.8ZM941.81 129.8h15.984v2.808h-6.48v19.584h6.48V155H941.81v-2.808h6.48v-19.584h-6.48V129.8ZM962.989 139.592c0-3.264.78-5.796 2.34-7.596 1.56-1.8 3.732-2.7 6.516-2.7s4.956.9 6.516 2.7c1.56 1.8 2.34 4.332 2.34 7.596v5.616c0 3.36-.78 5.916-2.34 7.668-1.56 1.752-3.732 2.628-6.516 2.628s-4.956-.876-6.516-2.628c-1.56-1.752-2.34-4.308-2.34-7.668v-5.616Zm8.856 13.104c1.944 0 3.396-.66 4.356-1.98.984-1.344 1.476-3.252 1.476-5.724v-5.184c0-2.304-.492-4.164-1.476-5.58-.96-1.416-2.412-2.124-4.356-2.124s-3.408.708-4.392 2.124c-.96 1.416-1.44 3.276-1.44 5.58v5.184c0 2.472.48 4.38 1.44 5.724.984 1.32 2.448 1.98 4.392 1.98ZM998.82 153.704h.432V129.8h3.028V155h-6.052l-7.272-23.904h-.432V155H985.5v-25.2h6.048l7.272 23.904ZM1021.33 148.736h-10.8l-1.84 6.264h-3.24l7.64-25.2h5.68l7.64 25.2h-3.24l-1.84-6.264Zm-5.62-17.64-4.35 14.832h9.14l-4.35-14.832h-.44ZM1030.09 129.8h3.02v22.392h13.18V155h-16.2v-25.2ZM1366.22 142.904h11.23V155h-2.81v-3.024h-.43c-.41 1.056-1.13 1.908-2.16 2.556-1.03.648-2.23.972-3.6.972-2.71 0-4.85-.876-6.41-2.628-1.53-1.752-2.3-4.308-2.3-7.668v-5.616c0-3.264.78-5.796 2.34-7.596 1.56-1.8 3.73-2.7 6.51-2.7 1.44 0 2.72.24 3.82.72 1.1.456 2.03 1.104 2.77 1.944.75.816 1.31 1.788 1.69 2.916.39 1.104.58 2.292.58 3.564v.432h-3.02v-.432a7.92 7.92 0 0 0-.36-2.376 5.452 5.452 0 0 0-1.05-2.016c-.45-.6-1.05-1.068-1.8-1.404-.72-.36-1.59-.54-2.63-.54-1.94 0-3.4.708-4.39 2.124-.96 1.416-1.44 3.276-1.44 5.58v5.184c0 2.472.48 4.38 1.44 5.724.99 1.32 2.47 1.98 4.47 1.98 1.8 0 3.2-.576 4.21-1.728 1.03-1.152 1.55-2.76 1.55-4.824v-.432h-8.21v-2.808ZM1383.04 129.8h15.27v2.808h-12.24v8.352h12.02v2.808h-12.02v8.424h12.45V155h-15.48v-25.2ZM1403.86 139.592c0-3.264.78-5.796 2.34-7.596 1.56-1.8 3.73-2.7 6.52-2.7 2.78 0 4.95.9 6.51 2.7 1.56 1.8 2.34 4.332 2.34 7.596v5.616c0 3.36-.78 5.916-2.34 7.668-1.56 1.752-3.73 2.628-6.51 2.628-2.79 0-4.96-.876-6.52-2.628-1.56-1.752-2.34-4.308-2.34-7.668v-5.616Zm8.86 13.104c1.94 0 3.39-.66 4.35-1.98.99-1.344 1.48-3.252 1.48-5.724v-5.184c0-2.304-.49-4.164-1.48-5.58-.96-1.416-2.41-2.124-4.35-2.124-1.95 0-3.41.708-4.4 2.124-.96 1.416-1.44 3.276-1.44 5.58v5.184c0 2.472.48 4.38 1.44 5.724.99 1.32 2.45 1.98 4.4 1.98ZM1425.4 129.8h5.76l3.38 23.904h.44l3.38-23.904h5.76V155h-2.81v-23.904h-.43L1437.5 155h-5.48l-3.38-23.904h-.43V155h-2.81v-25.2ZM1449.17 129.8h15.26v2.808h-12.24v8.352h12.03v2.808h-12.03v8.424h12.46V155h-15.48v-25.2ZM1469.99 129.8h17.71v2.808h-7.34V155h-3.03v-22.392h-7.34V129.8ZM1508.77 155h-3.02v-8.424c0-.624-.15-1.104-.43-1.44-.29-.336-.8-.504-1.52-.504h-7.84V155h-3.03v-25.2h9c1.3 0 2.43.192 3.39.576.96.36 1.75.852 2.37 1.476a5.783 5.783 0 0 1 1.44 2.196c.34.816.51 1.68.51 2.592v1.08c0 .936-.27 1.872-.8 2.808-.5.936-1.29 1.656-2.37 2.16v.432c.72.12 1.28.408 1.69.864.41.456.61 1.104.61 1.944V155Zm-12.81-13.176h5.61c1.71 0 2.97-.36 3.78-1.08.84-.744 1.26-1.824 1.26-3.24v-.648c0-1.272-.42-2.292-1.26-3.06-.81-.792-2.07-1.188-3.78-1.188h-5.61v9.216ZM1514.94 129.8h15.98v2.808h-6.48v19.584h6.48V155h-15.98v-2.808h6.48v-19.584h-6.48V129.8ZM1545.12 152.696c1.03 0 1.91-.168 2.63-.504.74-.36 1.34-.828 1.8-1.404.48-.6.82-1.272 1.04-2.016a8.04 8.04 0 0 0 .36-2.412v-.432h3.02v.432c0 1.272-.19 2.472-.57 3.6a8.78 8.78 0 0 1-1.69 2.916c-.75.816-1.67 1.464-2.78 1.944-1.1.456-2.37.684-3.81.684-2.79 0-4.96-.876-6.52-2.628-1.56-1.752-2.34-4.308-2.34-7.668v-5.616c0-3.264.78-5.796 2.34-7.596 1.56-1.8 3.73-2.7 6.52-2.7 1.44 0 2.71.24 3.81.72a7.458 7.458 0 0 1 2.78 1.944c.74.816 1.3 1.788 1.69 2.916.38 1.104.57 2.292.57 3.564v.432h-3.02v-.432a8.646 8.646 0 0 0-.4-2.376 5.29 5.29 0 0 0-1.04-2.016 4.653 4.653 0 0 0-1.76-1.404c-.72-.36-1.6-.54-2.63-.54-1.95 0-3.41.708-4.39 2.124-.96 1.416-1.44 3.276-1.44 5.58v5.184c0 2.472.48 4.38 1.44 5.724.98 1.32 2.44 1.98 4.39 1.98Z"/><path fill="#FF6D7F" d="M340.573 850.592c0-3.264.78-5.796 2.34-7.596 1.56-1.8 3.732-2.7 6.516-2.7s4.956.9 6.516 2.7c1.56 1.8 2.34 4.332 2.34 7.596v5.616c0 3.36-.78 5.916-2.34 7.668-1.56 1.752-3.732 2.628-6.516 2.628s-4.956-.876-6.516-2.628c-1.56-1.752-2.34-4.308-2.34-7.668v-5.616Zm8.856 13.104c1.944 0 3.396-.66 4.356-1.98.984-1.344 1.476-3.252 1.476-5.724v-5.184c0-2.304-.492-4.164-1.476-5.58-.96-1.416-2.412-2.124-4.356-2.124s-3.408.708-4.392 2.124c-.96 1.416-1.44 3.276-1.44 5.58v5.184c0 2.472.48 4.38 1.44 5.724.984 1.32 2.448 1.98 4.392 1.98ZM366.54 855.632V866h-3.024v-25.2h9c1.296 0 2.424.192 3.384.576.96.36 1.752.852 2.376 1.476a5.83 5.83 0 0 1 1.44 2.196 6.74 6.74 0 0 1 .504 2.592v1.08c0 .912-.168 1.788-.504 2.628a6.158 6.158 0 0 1-1.44 2.232c-.648.624-1.452 1.128-2.412 1.512-.96.36-2.076.54-3.348.54h-5.976Zm0-2.808h5.616c3.36 0 5.04-1.44 5.04-4.32v-.648c0-1.272-.42-2.292-1.26-3.06-.816-.792-2.076-1.188-3.78-1.188h-5.616v9.216ZM385.883 840.8h15.264v2.808h-12.24v8.352h12.024v2.808h-12.024v8.424h12.456V866h-15.48v-25.2ZM420.49 864.704h.432V840.8h3.024V866h-6.048l-7.272-23.904h-.432V866h-3.024v-25.2h6.048l7.272 23.904ZM310.743 907.736h-10.8L298.107 914h-3.24l7.632-25.2h5.688l7.632 25.2h-3.24l-1.836-6.264Zm-5.616-17.64-4.356 14.832h9.144l-4.356-14.832h-.432ZM322.454 903.632V914h-3.024v-25.2h9c1.296 0 2.424.192 3.384.576.96.36 1.752.852 2.376 1.476a5.83 5.83 0 0 1 1.44 2.196 6.74 6.74 0 0 1 .504 2.592v1.08c0 .912-.168 1.788-.504 2.628a6.158 6.158 0 0 1-1.44 2.232c-.648.624-1.452 1.128-2.412 1.512-.96.36-2.076.54-3.348.54h-5.976Zm0-2.808h5.616c3.36 0 5.04-1.44 5.04-4.32v-.648c0-1.272-.42-2.292-1.26-3.06-.816-.792-2.076-1.188-3.78-1.188h-5.616v9.216ZM341.797 888.8h15.264v2.808h-12.24v8.352h12.024v2.808h-12.024v8.424h12.456V914h-15.48v-25.2ZM379.356 914h-3.024v-8.424c0-.624-.144-1.104-.432-1.44-.288-.336-.792-.504-1.512-.504h-7.848V914h-3.024v-25.2h9c1.296 0 2.424.192 3.384.576.96.36 1.752.852 2.376 1.476a5.83 5.83 0 0 1 1.44 2.196 6.74 6.74 0 0 1 .504 2.592v1.08c0 .936-.264 1.872-.792 2.808-.504.936-1.296 1.656-2.376 2.16v.432c.72.12 1.284.408 1.692.864.408.456.612 1.104.612 1.944V914Zm-12.816-13.176h5.616c1.704 0 2.964-.36 3.78-1.08.84-.744 1.26-1.824 1.26-3.24v-.648c0-1.272-.42-2.292-1.26-3.06-.816-.792-2.076-1.188-3.78-1.188h-5.616v9.216ZM384.659 888.8h17.712v2.808h-7.344V914h-3.024v-22.392h-7.344V888.8ZM409.942 888.8v16.704c0 2.04.468 3.588 1.404 4.644.96 1.032 2.364 1.548 4.212 1.548 1.848 0 3.24-.516 4.176-1.548.96-1.056 1.44-2.604 1.44-4.644V888.8h3.024v16.704c0 2.928-.768 5.16-2.304 6.696-1.536 1.536-3.648 2.304-6.336 2.304s-4.8-.768-6.336-2.304c-1.536-1.536-2.304-3.768-2.304-6.696V888.8h3.024ZM445.485 914h-3.024v-8.424c0-.624-.144-1.104-.432-1.44-.288-.336-.792-.504-1.512-.504h-7.848V914h-3.024v-25.2h9c1.296 0 2.424.192 3.384.576.96.36 1.752.852 2.376 1.476a5.83 5.83 0 0 1 1.44 2.196 6.74 6.74 0 0 1 .504 2.592v1.08c0 .936-.264 1.872-.792 2.808-.504.936-1.296 1.656-2.376 2.16v.432c.72.12 1.284.408 1.692.864.408.456.612 1.104.612 1.944V914Zm-12.816-13.176h5.616c1.704 0 2.964-.36 3.78-1.08.84-.744 1.26-1.824 1.26-3.24v-.648c0-1.272-.42-2.292-1.26-3.06-.816-.792-2.076-1.188-3.78-1.188h-5.616v9.216ZM452.012 888.8h15.264v2.808h-12.24v8.352h12.024v2.808h-12.024v8.424h12.456V914h-15.48v-25.2ZM832.53 860.696c1.032 0 1.908-.168 2.628-.504.744-.36 1.344-.828 1.8-1.404a5.77 5.77 0 0 0 1.044-2.016 8.04 8.04 0 0 0 .36-2.412v-.432h3.024v.432c0 1.272-.192 2.472-.576 3.6a8.618 8.618 0 0 1-1.692 2.916c-.744.816-1.668 1.464-2.772 1.944-1.104.456-2.376.684-3.816.684-2.784 0-4.956-.876-6.516-2.628-1.56-1.752-2.34-4.308-2.34-7.668v-5.616c0-3.264.78-5.796 2.34-7.596 1.56-1.8 3.732-2.7 6.516-2.7 1.44 0 2.712.24 3.816.72 1.104.456 2.028 1.104 2.772 1.944.744.816 1.308 1.788 1.692 2.916.384 1.104.576 2.292.576 3.564v.432h-3.024v-.432a8.795 8.795 0 0 0-.396-2.376 5.383 5.383 0 0 0-1.044-2.016 4.636 4.636 0 0 0-1.764-1.404c-.72-.36-1.596-.54-2.628-.54-1.944 0-3.408.708-4.392 2.124-.96 1.416-1.44 3.276-1.44 5.58v5.184c0 2.472.48 4.38 1.44 5.724.984 1.32 2.448 1.98 4.392 1.98ZM846.545 837.8h3.024v22.392h13.176V863h-16.2v-25.2ZM867.616 847.592c0-3.264.78-5.796 2.34-7.596 1.56-1.8 3.732-2.7 6.516-2.7s4.956.9 6.516 2.7c1.56 1.8 2.34 4.332 2.34 7.596v5.616c0 3.36-.78 5.916-2.34 7.668-1.56 1.752-3.732 2.628-6.516 2.628s-4.956-.876-6.516-2.628c-1.56-1.752-2.34-4.308-2.34-7.668v-5.616Zm8.856 13.104c1.944 0 3.396-.66 4.356-1.98.984-1.344 1.476-3.252 1.476-5.724v-5.184c0-2.304-.492-4.164-1.476-5.58-.96-1.416-2.412-2.124-4.356-2.124s-3.408.708-4.392 2.124c-.96 1.416-1.44 3.276-1.44 5.58v5.184c0 2.472.48 4.38 1.44 5.724.984 1.32 2.448 1.98 4.392 1.98ZM904.455 845.072c0-.816-.168-1.536-.504-2.16a4.27 4.27 0 0 0-1.296-1.548 6.154 6.154 0 0 0-1.908-.936 7.85 7.85 0 0 0-2.268-.324c-.696 0-1.356.096-1.98.288a5.694 5.694 0 0 0-1.692.756c-.48.336-.864.756-1.152 1.26-.288.48-.432 1.044-.432 1.692v.216c0 .696.144 1.296.432 1.8.288.48.708.9 1.26 1.26.576.336 1.284.624 2.124.864.84.216 1.824.408 2.952.576 2.64.408 4.584 1.188 5.832 2.34 1.248 1.128 1.872 2.652 1.872 4.572v.432c0 1.08-.192 2.076-.576 2.988a6.023 6.023 0 0 1-1.656 2.304c-.72.648-1.62 1.152-2.7 1.512-1.08.36-2.328.54-3.744.54-1.608 0-3.036-.228-4.284-.684-1.224-.48-2.256-1.128-3.096-1.944a8.68 8.68 0 0 1-1.872-2.916c-.432-1.128-.648-2.352-.648-3.672v-1.08h3.024v.864c0 2.208.6 3.864 1.8 4.968 1.224 1.104 2.916 1.656 5.076 1.656 1.872 0 3.276-.408 4.212-1.224.96-.84 1.44-1.944 1.44-3.312v-.216c0-1.32-.492-2.328-1.476-3.024-.96-.696-2.532-1.2-4.716-1.512-1.272-.168-2.424-.42-3.456-.756-1.008-.36-1.872-.816-2.592-1.368a5.91 5.91 0 0 1-1.656-2.052c-.384-.792-.576-1.728-.576-2.808v-.432c0-.984.204-1.884.612-2.7a6.563 6.563 0 0 1 1.692-2.124c.744-.6 1.62-1.056 2.628-1.368 1.032-.336 2.16-.504 3.384-.504 1.416 0 2.676.204 3.78.612 1.128.408 2.076.96 2.844 1.656a6.386 6.386 0 0 1 1.728 2.412c.408.912.612 1.872.612 2.88v1.512h-3.024v-1.296ZM912.926 837.8h15.264v2.808h-12.24v8.352h12.024v2.808H915.95v8.424h12.456V863h-15.48v-25.2ZM934.213 837.8h8.28c3.12 0 5.4.744 6.84 2.232 1.44 1.488 2.16 3.864 2.16 7.128v6.48c0 3.264-.72 5.64-2.16 7.128-1.44 1.488-3.72 2.232-6.84 2.232h-8.28v-2.844h2.16v-19.548h-2.16V837.8Zm7.848 22.392c1.104 0 2.052-.108 2.844-.324.816-.216 1.488-.576 2.016-1.08.528-.528.912-1.224 1.152-2.088.264-.864.396-1.956.396-3.276v-6.048c0-1.32-.132-2.412-.396-3.276-.24-.864-.624-1.548-1.152-2.052-.528-.528-1.2-.9-2.016-1.116-.792-.216-1.74-.324-2.844-.324h-2.664v19.584h2.664ZM815.743 904.736h-10.8L803.107 911h-3.24l7.632-25.2h5.688l7.632 25.2h-3.24l-1.836-6.264Zm-5.616-17.64-4.356 14.832h9.144l-4.356-14.832h-.432ZM827.454 900.632V911h-3.024v-25.2h9c1.296 0 2.424.192 3.384.576.96.36 1.752.852 2.376 1.476a5.83 5.83 0 0 1 1.44 2.196 6.74 6.74 0 0 1 .504 2.592v1.08c0 .912-.168 1.788-.504 2.628a6.158 6.158 0 0 1-1.44 2.232c-.648.624-1.452 1.128-2.412 1.512-.96.36-2.076.54-3.348.54h-5.976Zm0-2.808h5.616c3.36 0 5.04-1.44 5.04-4.32v-.648c0-1.272-.42-2.292-1.26-3.06-.816-.792-2.076-1.188-3.78-1.188h-5.616v9.216ZM846.797 885.8h15.264v2.808h-12.24v8.352h12.024v2.808h-12.024v8.424h12.456V911h-15.48v-25.2ZM884.356 911h-3.024v-8.424c0-.624-.144-1.104-.432-1.44-.288-.336-.792-.504-1.512-.504h-7.848V911h-3.024v-25.2h9c1.296 0 2.424.192 3.384.576.96.36 1.752.852 2.376 1.476a5.83 5.83 0 0 1 1.44 2.196 6.74 6.74 0 0 1 .504 2.592v1.08c0 .936-.264 1.872-.792 2.808-.504.936-1.296 1.656-2.376 2.16v.432c.72.12 1.284.408 1.692.864.408.456.612 1.104.612 1.944V911Zm-12.816-13.176h5.616c1.704 0 2.964-.36 3.78-1.08.84-.744 1.26-1.824 1.26-3.24v-.648c0-1.272-.42-2.292-1.26-3.06-.816-.792-2.076-1.188-3.78-1.188h-5.616v9.216ZM889.659 885.8h17.712v2.808h-7.344V911h-3.024v-22.392h-7.344V885.8ZM914.942 885.8v16.704c0 2.04.468 3.588 1.404 4.644.96 1.032 2.364 1.548 4.212 1.548 1.848 0 3.24-.516 4.176-1.548.96-1.056 1.44-2.604 1.44-4.644V885.8h3.024v16.704c0 2.928-.768 5.16-2.304 6.696-1.536 1.536-3.648 2.304-6.336 2.304s-4.8-.768-6.336-2.304c-1.536-1.536-2.304-3.768-2.304-6.696V885.8h3.024ZM950.485 911h-3.024v-8.424c0-.624-.144-1.104-.432-1.44-.288-.336-.792-.504-1.512-.504h-7.848V911h-3.024v-25.2h9c1.296 0 2.424.192 3.384.576.96.36 1.752.852 2.376 1.476a5.83 5.83 0 0 1 1.44 2.196 6.74 6.74 0 0 1 .504 2.592v1.08c0 .936-.264 1.872-.792 2.808-.504.936-1.296 1.656-2.376 2.16v.432c.72.12 1.284.408 1.692.864.408.456.612 1.104.612 1.944V911Zm-12.816-13.176h5.616c1.704 0 2.964-.36 3.78-1.08.84-.744 1.26-1.824 1.26-3.24v-.648c0-1.272-.42-2.292-1.26-3.06-.816-.792-2.076-1.188-3.78-1.188h-5.616v9.216ZM957.012 885.8h15.264v2.808h-12.24v8.352h12.024v2.808h-12.024v8.424h12.456V911h-15.48v-25.2Z"/><path fill="#FF6D7F" fill-rule="evenodd" d="M381.001 502.48c-4.935-.937-8.667-5.272-8.667-10.48 0-5.891 4.776-10.667 10.667-10.667s10.666 4.776 10.666 10.667c0 5.208-3.731 9.543-8.666 10.48V814h-4V502.48ZM886.001 518.48c-4.935-.937-8.667-5.272-8.667-10.48 0-5.891 4.776-10.667 10.667-10.667s10.666 4.776 10.666 10.667c0 5.208-3.731 9.543-8.666 10.48V809h-4V518.48Z" clip-rule="evenodd"/><path fill="#FF6D7F" d="M1339.42 860.696c1.04 0 1.91-.168 2.63-.504.75-.36 1.35-.828 1.8-1.404.48-.6.83-1.272 1.05-2.016a8.04 8.04 0 0 0 .36-2.412v-.432h3.02v.432c0 1.272-.19 2.472-.58 3.6a8.452 8.452 0 0 1-1.69 2.916c-.74.816-1.67 1.464-2.77 1.944-1.1.456-2.38.684-3.82.684-2.78 0-4.95-.876-6.51-2.628-1.56-1.752-2.34-4.308-2.34-7.668v-5.616c0-3.264.78-5.796 2.34-7.596 1.56-1.8 3.73-2.7 6.51-2.7 1.44 0 2.72.24 3.82.72 1.1.456 2.03 1.104 2.77 1.944.75.816 1.31 1.788 1.69 2.916.39 1.104.58 2.292.58 3.564v.432h-3.02v-.432a9.038 9.038 0 0 0-.4-2.376c-.22-.768-.56-1.44-1.04-2.016a4.686 4.686 0 0 0-1.77-1.404c-.72-.36-1.59-.54-2.63-.54-1.94 0-3.4.708-4.39 2.124-.96 1.416-1.44 3.276-1.44 5.58v5.184c0 2.472.48 4.38 1.44 5.724.99 1.32 2.45 1.98 4.39 1.98ZM1352.47 847.592c0-3.264.78-5.796 2.34-7.596 1.56-1.8 3.73-2.7 6.51-2.7 2.79 0 4.96.9 6.52 2.7 1.56 1.8 2.34 4.332 2.34 7.596v5.616c0 3.36-.78 5.916-2.34 7.668-1.56 1.752-3.73 2.628-6.52 2.628-2.78 0-4.95-.876-6.51-2.628-1.56-1.752-2.34-4.308-2.34-7.668v-5.616Zm8.85 13.104c1.95 0 3.4-.66 4.36-1.98.98-1.344 1.48-3.252 1.48-5.724v-5.184c0-2.304-.5-4.164-1.48-5.58-.96-1.416-2.41-2.124-4.36-2.124-1.94 0-3.4.708-4.39 2.124-.96 1.416-1.44 3.276-1.44 5.58v5.184c0 2.472.48 4.38 1.44 5.724.99 1.32 2.45 1.98 4.39 1.98ZM1388.3 861.704h.43V837.8h3.02V863h-6.04l-7.28-23.904h-.43V863h-3.02v-25.2h6.05l7.27 23.904ZM1411.35 845.072c0-.816-.17-1.536-.5-2.16a4.382 4.382 0 0 0-1.3-1.548 6.143 6.143 0 0 0-1.91-.936 7.825 7.825 0 0 0-2.27-.324c-.69 0-1.35.096-1.98.288-.62.168-1.18.42-1.69.756-.48.336-.86.756-1.15 1.26-.29.48-.43 1.044-.43 1.692v.216c0 .696.14 1.296.43 1.8.29.48.71.9 1.26 1.26.58.336 1.28.624 2.12.864.84.216 1.83.408 2.96.576 2.64.408 4.58 1.188 5.83 2.34 1.25 1.128 1.87 2.652 1.87 4.572v.432c0 1.08-.19 2.076-.58 2.988a6.05 6.05 0 0 1-1.65 2.304c-.72.648-1.62 1.152-2.7 1.512-1.08.36-2.33.54-3.75.54-1.6 0-3.03-.228-4.28-.684-1.22-.48-2.26-1.128-3.1-1.944a8.737 8.737 0 0 1-1.87-2.916c-.43-1.128-.65-2.352-.65-3.672v-1.08h3.03v.864c0 2.208.6 3.864 1.8 4.968 1.22 1.104 2.91 1.656 5.07 1.656 1.88 0 3.28-.408 4.22-1.224.96-.84 1.44-1.944 1.44-3.312v-.216c0-1.32-.5-2.328-1.48-3.024-.96-.696-2.53-1.2-4.72-1.512-1.27-.168-2.42-.42-3.45-.756-1.01-.36-1.87-.816-2.59-1.368a5.877 5.877 0 0 1-1.66-2.052c-.38-.792-.58-1.728-.58-2.808v-.432c0-.984.21-1.884.62-2.7.4-.816.97-1.524 1.69-2.124.74-.6 1.62-1.056 2.63-1.368 1.03-.336 2.16-.504 3.38-.504 1.42 0 2.68.204 3.78.612 1.13.408 2.08.96 2.84 1.656a6.327 6.327 0 0 1 1.73 2.412c.41.912.61 1.872.61 2.88v1.512h-3.02v-1.296ZM1418.6 837.8h17.71v2.808h-7.35V863h-3.02v-22.392h-7.34V837.8ZM1457.38 863h-3.02v-8.424c0-.624-.15-1.104-.44-1.44-.28-.336-.79-.504-1.51-.504h-7.85V863h-3.02v-25.2h9c1.3 0 2.42.192 3.38.576.96.36 1.76.852 2.38 1.476a5.783 5.783 0 0 1 1.44 2.196c.34.816.5 1.68.5 2.592v1.08c0 .936-.26 1.872-.79 2.808-.5.936-1.29 1.656-2.37 2.16v.432c.72.12 1.28.408 1.69.864.41.456.61 1.104.61 1.944V863Zm-12.82-13.176h5.62c1.7 0 2.96-.36 3.78-1.08.84-.744 1.26-1.824 1.26-3.24v-.648c0-1.272-.42-2.292-1.26-3.06-.82-.792-2.08-1.188-3.78-1.188h-5.62v9.216ZM1465.92 837.8v16.704c0 2.04.47 3.588 1.41 4.644.96 1.032 2.36 1.548 4.21 1.548s3.24-.516 4.17-1.548c.96-1.056 1.44-2.604 1.44-4.644V837.8h3.03v16.704c0 2.928-.77 5.16-2.31 6.696-1.53 1.536-3.64 2.304-6.33 2.304s-4.8-.768-6.34-2.304c-1.53-1.536-2.3-3.768-2.3-6.696V837.8h3.02ZM1493.73 860.696c1.03 0 1.9-.168 2.62-.504.75-.36 1.35-.828 1.8-1.404.48-.6.83-1.272 1.05-2.016a8.04 8.04 0 0 0 .36-2.412v-.432h3.02v.432c0 1.272-.19 2.472-.57 3.6a8.636 8.636 0 0 1-1.7 2.916c-.74.816-1.66 1.464-2.77 1.944-1.1.456-2.37.684-3.81.684-2.79 0-4.96-.876-6.52-2.628-1.56-1.752-2.34-4.308-2.34-7.668v-5.616c0-3.264.78-5.796 2.34-7.596 1.56-1.8 3.73-2.7 6.52-2.7 1.44 0 2.71.24 3.81.72 1.11.456 2.03 1.104 2.77 1.944.75.816 1.31 1.788 1.7 2.916.38 1.104.57 2.292.57 3.564v.432h-3.02v-.432a9.038 9.038 0 0 0-.4-2.376 5.29 5.29 0 0 0-1.04-2.016 4.686 4.686 0 0 0-1.77-1.404c-.72-.36-1.59-.54-2.62-.54-1.95 0-3.41.708-4.4 2.124-.96 1.416-1.44 3.276-1.44 5.58v5.184c0 2.472.48 4.38 1.44 5.724.99 1.32 2.45 1.98 4.4 1.98ZM1506.77 837.8h17.71v2.808h-7.34V863h-3.03v-22.392h-7.34V837.8ZM1530.04 837.8h15.26v2.808h-12.24v8.352h12.02v2.808h-12.02v8.424h12.46V863h-15.48v-25.2ZM1551.32 837.8h8.28c3.12 0 5.4.744 6.84 2.232 1.44 1.488 2.16 3.864 2.16 7.128v6.48c0 3.264-.72 5.64-2.16 7.128-1.44 1.488-3.72 2.232-6.84 2.232h-8.28v-2.844h2.16v-19.548h-2.16V837.8Zm7.85 22.392c1.1 0 2.05-.108 2.84-.324.82-.216 1.49-.576 2.02-1.08.53-.528.91-1.224 1.15-2.088.27-.864.4-1.956.4-3.276v-6.048c0-1.32-.13-2.412-.4-3.276-.24-.864-.62-1.548-1.15-2.052-.53-.528-1.2-.9-2.02-1.116-.79-.216-1.74-.324-2.84-.324h-2.66v19.584h2.66Z"/><path fill="#FF6D7F" fill-rule="evenodd" d="M1428.33 707c0-5.891 4.78-10.667 10.67-10.667s10.67 4.776 10.67 10.667c0 5.208-3.74 9.543-8.67 10.48V812h-4v-94.52c-4.94-.937-8.67-5.272-8.67-10.48Z" clip-rule="evenodd"/></svg>