<svg width="1920" height="1080" viewBox="0 0 1920 1080" fill="none" xmlns="http://www.w3.org/2000/svg">
<path fill-rule="evenodd" clip-rule="evenodd" d="M1605.89 540.7L1601.9 540.563C1601.97 538.551 1602 536.53 1602 534.5C1602 532.47 1601.97 530.449 1601.9 528.437L1605.89 528.3C1605.96 530.358 1606 532.425 1606 534.5C1606 536.575 1605.96 538.642 1605.89 540.7ZM1603.96 507.455L1600.01 508.058C1599.39 504.044 1598.64 500.077 1597.76 496.163L1601.67 495.285C1602.57 499.29 1603.33 503.349 1603.96 507.455ZM1595.86 475.173L1592.09 476.51C1590.74 472.692 1589.25 468.938 1587.65 465.255L1591.31 463.655C1592.96 467.424 1594.48 471.266 1595.86 475.173ZM1581.8 445.006L1578.35 447.035C1576.3 443.55 1574.13 440.149 1571.85 436.836L1575.14 434.566C1577.48 437.957 1579.7 441.439 1581.8 445.006ZM1562.24 418.078L1559.24 420.73C1556.57 417.709 1553.78 414.789 1550.9 411.976L1553.7 409.114C1556.65 411.994 1559.5 414.984 1562.24 418.078ZM1537.84 395.438L1535.42 398.623C1532.21 396.187 1528.92 393.869 1525.54 391.675L1527.71 388.32C1531.18 390.567 1534.56 392.942 1537.84 395.438ZM1509.46 378.057L1507.73 381.661C1504.11 379.918 1500.42 378.309 1496.66 376.84L1498.12 373.114C1501.97 374.621 1505.75 376.27 1509.46 378.057ZM1478.17 366.766L1477.2 370.649C1473.31 369.684 1469.37 368.863 1465.38 368.192L1466.05 364.248C1470.14 364.936 1474.18 365.777 1478.17 366.766ZM1445.22 362.117L1445.07 366.114C1443.06 366.038 1441.05 366 1439.02 366C1437.02 366 1435.02 366.037 1433.04 366.111L1432.89 362.114C1434.92 362.038 1436.97 362 1439.02 362C1441.1 362 1443.16 362.039 1445.22 362.117ZM1412.32 364.216L1412.99 368.16C1409.04 368.826 1405.15 369.641 1401.32 370.599L1400.35 366.719C1404.28 365.735 1408.27 364.899 1412.32 364.216ZM1380.67 373.074C1376.87 374.589 1373.14 376.249 1369.5 378.048L1371.27 381.635C1374.82 379.883 1378.45 378.265 1382.15 376.789L1380.67 373.074ZM1351.6 388.416L1353.83 391.737C1350.53 393.952 1347.32 396.295 1344.2 398.758L1341.72 395.619C1344.92 393.093 1348.22 390.689 1351.6 388.416ZM1326.35 409.457L1329.21 412.253C1326.43 415.093 1323.76 418.041 1321.19 421.092L1318.13 418.516C1320.76 415.389 1323.5 412.368 1326.35 409.457ZM1305.81 435.128L1309.16 437.31C1307 440.636 1304.94 444.051 1303.01 447.549L1299.51 445.612C1301.49 442.03 1303.59 438.534 1305.81 435.128ZM1290.58 464.266L1294.28 465.779C1292.78 469.451 1291.4 473.193 1290.14 476.999L1286.34 475.743C1287.63 471.85 1289.04 468.023 1290.58 464.266ZM1280.97 495.716L1284.89 496.534C1284.08 500.416 1283.39 504.349 1282.83 508.329L1278.87 507.77C1279.44 503.703 1280.14 499.683 1280.97 495.716ZM1277.1 528.374C1277.03 530.408 1277 532.45 1277 534.5C1277 536.55 1277.03 538.592 1277.1 540.626L1281.09 540.499C1281.03 538.508 1281 536.508 1281 534.5C1281 532.492 1281.03 530.492 1281.09 528.501L1277.1 528.374ZM1278.87 561.23L1282.83 560.671C1283.39 564.651 1284.08 568.584 1284.89 572.466L1280.97 573.284C1280.14 569.317 1279.44 565.297 1278.87 561.23ZM1286.34 593.257L1290.14 592.001C1291.4 595.807 1292.78 599.549 1294.28 603.221L1290.58 604.734C1289.04 600.977 1287.63 597.15 1286.34 593.257ZM1299.51 623.388L1303.01 621.45C1304.94 624.949 1307 628.364 1309.16 631.69L1305.81 633.872C1303.59 630.466 1301.49 626.97 1299.51 623.388ZM1318.13 650.484L1321.19 647.908C1323.76 650.959 1326.43 653.907 1329.21 656.747L1326.35 659.543C1323.5 656.632 1320.76 653.611 1318.13 650.484ZM1341.72 673.381L1344.2 670.242C1347.32 672.705 1350.53 675.048 1353.83 677.263L1351.6 680.584C1348.22 678.311 1344.92 675.908 1341.72 673.381ZM1369.5 690.952L1371.27 687.365C1374.82 689.117 1378.45 690.735 1382.15 692.211L1380.67 695.926C1376.87 694.411 1373.14 692.751 1369.5 690.952ZM1400.35 702.281L1401.32 698.401C1405.15 699.359 1409.04 700.174 1412.99 700.84L1412.32 704.784C1408.27 704.101 1404.28 703.265 1400.35 702.281ZM1432.89 706.886L1433.04 702.889C1435.02 702.963 1437.02 703 1439.02 703C1441.05 703 1443.06 702.962 1445.07 702.886L1445.22 706.883C1443.16 706.961 1441.1 707 1439.02 707C1436.97 707 1434.92 706.962 1432.89 706.886ZM1466.05 704.752C1470.14 704.064 1474.18 703.223 1478.17 702.234L1477.2 698.351C1473.31 699.316 1469.37 700.137 1465.38 700.808L1466.05 704.752ZM1498.12 695.886L1496.66 692.16C1500.42 690.691 1504.11 689.082 1507.73 687.339L1509.46 690.943C1505.75 692.73 1501.97 694.379 1498.12 695.886ZM1527.71 680.68L1525.54 677.325C1528.92 675.131 1532.21 672.813 1535.42 670.377L1537.84 673.562C1534.56 676.058 1531.18 678.433 1527.71 680.68ZM1553.7 659.886L1550.9 657.024C1553.78 654.211 1556.57 651.291 1559.24 648.27L1562.24 650.922C1559.5 654.016 1556.65 657.006 1553.7 659.886ZM1575.14 634.434L1571.85 632.164C1574.13 628.851 1576.3 625.45 1578.35 621.965L1581.8 623.994C1579.7 627.561 1577.48 631.043 1575.14 634.434ZM1591.31 605.345L1587.65 603.745C1589.25 600.062 1590.74 596.308 1592.09 592.49L1595.86 593.827C1594.48 597.734 1592.96 601.576 1591.31 605.345ZM1601.67 573.715L1597.76 572.837C1598.64 568.923 1599.39 564.956 1600.01 560.942L1603.96 561.545C1603.33 565.651 1602.57 569.71 1601.67 573.715Z" fill="#FF6D7F"/>
<path opacity="0.25" d="M465 483.5C465 522.988 432.988 555 393.5 555C354.012 555 322 522.988 322 483.5C322 444.012 354.012 412 393.5 412C432.988 412 465 444.012 465 483.5Z" fill="#FF6D7F"/>
<path opacity="0.25" d="M907 497.5C907 518.763 889.763 536 868.5 536C847.237 536 830 518.763 830 497.5C830 476.237 847.237 459 868.5 459C889.763 459 907 476.237 907 497.5Z" fill="#FF6D7F"/>
<path d="M446.341 687.32C421.534 687.32 400.794 680 384.121 665.36C367.854 650.72 359.721 629.98 359.721 603.14C359.721 570.607 374.157 545.8 403.031 528.72C431.904 511.233 478.061 499.033 541.501 492.12C541.501 482.767 540.484 473.617 538.451 464.67C536.824 455.723 533.774 447.793 529.301 440.88C524.827 433.967 518.524 428.477 510.391 424.41C502.664 419.937 492.701 417.7 480.501 417.7C463.421 417.7 447.357 420.953 432.311 427.46C417.264 433.967 403.844 441.287 392.051 449.42L372.531 414.65C386.357 405.703 403.234 397.163 423.161 389.03C443.087 380.49 465.047 376.22 489.041 376.22C525.234 376.22 551.464 387.403 567.731 409.77C583.997 431.73 592.131 461.213 592.131 498.22V680H550.651L546.381 644.62H544.551C530.317 656.413 515.067 666.58 498.801 675.12C482.534 683.253 465.047 687.32 446.341 687.32ZM460.981 647.06C475.214 647.06 488.634 643.807 501.241 637.3C513.847 630.387 527.267 620.423 541.501 607.41V525.06C516.694 528.313 495.751 532.177 478.671 536.65C461.997 541.123 448.374 546.41 437.801 552.51C427.634 558.61 420.111 565.727 415.231 573.86C410.757 581.587 408.521 590.127 408.521 599.48C408.521 616.56 413.604 628.76 423.771 636.08C433.937 643.4 446.341 647.06 460.981 647.06Z" fill="#3C4043"/>
<path d="M885.697 601.153C885.697 615.539 890.953 626.882 901.466 635.182C911.979 643.481 924.428 647.631 938.814 647.631C956.336 647.631 973.304 643.574 989.719 635.458C1017.38 621.995 1031.22 599.954 1031.22 569.338V529.223C1025.13 533.096 1017.29 536.324 1007.7 538.906C998.111 541.488 988.705 543.332 979.483 544.439L949.327 548.312C931.253 550.71 917.696 554.491 908.659 559.655C893.351 568.324 885.697 582.156 885.697 601.153ZM1006.32 500.451C1017.75 498.975 1025.41 494.18 1029.28 486.065C1031.49 481.638 1032.6 475.275 1032.6 466.976C1032.6 450.007 1026.51 437.742 1014.34 430.18C1002.35 422.434 985.108 418.561 962.607 418.561C936.601 418.561 918.158 425.569 907.276 439.587C901.189 447.333 897.224 458.86 895.38 474.169H848.902C849.824 437.65 861.628 412.29 884.313 398.088C907.184 383.702 933.65 376.509 963.713 376.509C998.572 376.509 1026.88 383.149 1048.65 396.428C1070.23 409.708 1081.02 430.365 1081.02 458.399V629.095C1081.02 634.26 1082.03 638.409 1084.06 641.545C1086.27 644.68 1090.79 646.248 1097.61 646.248C1099.83 646.248 1102.32 646.156 1105.08 645.971C1107.85 645.603 1110.8 645.141 1113.94 644.588V681.383C1106.19 683.597 1100.29 684.98 1096.23 685.533C1092.17 686.086 1086.64 686.363 1079.63 686.363C1062.48 686.363 1050.03 680.277 1042.28 668.104C1038.23 661.649 1035.37 652.519 1033.71 640.715C1023.56 653.994 1008.99 665.522 989.996 675.297C970.999 685.072 950.065 689.96 927.195 689.96C899.714 689.96 877.213 681.66 859.691 665.061C842.354 648.277 833.686 627.343 833.686 602.26C833.686 574.779 842.262 553.476 859.414 538.353C876.567 523.229 899.068 513.915 926.918 510.41L1006.32 500.451Z" fill="#3C4043"/>
<path d="M1442.05 686.159C1415.36 686.159 1391.14 679.59 1369.38 666.451C1347.62 652.902 1330.38 634.631 1317.65 611.639C1305.33 588.647 1299.17 562.781 1299.17 534.04C1299.17 505.3 1305.33 479.434 1317.65 456.441C1330.38 433.449 1347.41 415.178 1368.76 401.629C1390.53 388.08 1414.95 381.306 1442.05 381.306C1464.22 381.306 1483.93 386.028 1501.18 395.471C1518.83 404.503 1533 417.231 1543.67 433.654C1554.34 449.667 1560.3 468.348 1561.53 489.698V577.767C1560.3 598.706 1554.34 617.387 1543.67 633.81C1533.41 650.233 1519.45 663.166 1501.79 672.61C1484.55 681.642 1464.63 686.159 1442.05 686.159ZM1451.29 633.81C1478.8 633.81 1500.97 624.572 1517.8 606.096C1534.64 587.21 1543.05 563.191 1543.05 534.04C1543.05 513.922 1539.15 496.473 1531.35 481.692C1523.96 466.5 1513.29 454.799 1499.33 446.588C1485.37 437.965 1469.15 433.654 1450.67 433.654C1432.2 433.654 1415.78 437.965 1401.41 446.588C1387.45 455.21 1376.36 467.116 1368.15 482.308C1360.35 497.088 1356.45 514.127 1356.45 533.424C1356.45 553.132 1360.35 570.582 1368.15 585.773C1376.36 600.554 1387.65 612.255 1402.02 620.877C1416.39 629.499 1432.81 633.81 1451.29 633.81ZM1539.36 680V601.169L1549.83 529.729L1539.36 458.905V387.465H1595.4V680H1539.36Z" fill="#3C4043"/>
<path d="M412.328 129.8H420.608C423.728 129.8 426.008 130.544 427.448 132.032C428.888 133.52 429.608 135.896 429.608 139.16V145.64C429.608 148.904 428.888 151.28 427.448 152.768C426.008 154.256 423.728 155 420.608 155H412.328V152.156H414.488V132.608H412.328V129.8ZM420.176 152.192C421.28 152.192 422.228 152.084 423.02 151.868C423.836 151.652 424.508 151.292 425.036 150.788C425.564 150.26 425.948 149.564 426.188 148.7C426.452 147.836 426.584 146.744 426.584 145.424V139.376C426.584 138.056 426.452 136.964 426.188 136.1C425.948 135.236 425.564 134.552 425.036 134.048C424.508 133.52 423.836 133.148 423.02 132.932C422.228 132.716 421.28 132.608 420.176 132.608H417.512V152.192H420.176Z" fill="#1A73E8"/>
<path d="M441.247 146.144H440.599L432.715 129.8H436.099L442.543 143.552H442.975L449.419 129.8H452.803L444.919 146.144H444.271V155H441.247V146.144Z" fill="#1A73E8"/>
<path d="M469.734 153.704H470.166V129.8H473.19V155H467.142L459.87 131.096H459.438V155H456.414V129.8H462.462L469.734 153.704Z" fill="#1A73E8"/>
<path d="M492.245 148.736H481.445L479.609 155H476.369L484.001 129.8H489.689L497.321 155H494.081L492.245 148.736ZM486.629 131.096L482.273 145.928H491.417L487.061 131.096H486.629Z" fill="#1A73E8"/>
<path d="M499.528 129.8H505.288L508.672 153.704H509.104L512.488 129.8H518.248V155H515.44V131.096H515.008L511.624 155H506.152L502.768 131.096H502.336V155H499.528V129.8Z" fill="#1A73E8"/>
<path d="M522.939 129.8H538.923V132.608H532.443V152.192H538.923V155H522.939V152.192H529.419V132.608H522.939V129.8Z" fill="#1A73E8"/>
<path d="M553.118 152.696C554.15 152.696 555.026 152.528 555.746 152.192C556.49 151.832 557.09 151.364 557.546 150.788C558.026 150.188 558.374 149.516 558.59 148.772C558.83 148.004 558.95 147.2 558.95 146.36V145.928H561.974V146.36C561.974 147.632 561.782 148.832 561.398 149.96C561.014 151.064 560.45 152.036 559.706 152.876C558.962 153.692 558.038 154.34 556.934 154.82C555.83 155.276 554.558 155.504 553.118 155.504C550.334 155.504 548.162 154.628 546.602 152.876C545.042 151.124 544.262 148.568 544.262 145.208V139.592C544.262 136.328 545.042 133.796 546.602 131.996C548.162 130.196 550.334 129.296 553.118 129.296C554.558 129.296 555.83 129.536 556.934 130.016C558.038 130.472 558.962 131.12 559.706 131.96C560.45 132.776 561.014 133.748 561.398 134.876C561.782 135.98 561.974 137.168 561.974 138.44V138.872H558.95V138.44C558.926 137.624 558.794 136.832 558.554 136.064C558.338 135.296 557.99 134.624 557.51 134.048C557.054 133.448 556.466 132.98 555.746 132.644C555.026 132.284 554.15 132.104 553.118 132.104C551.174 132.104 549.71 132.812 548.726 134.228C547.766 135.644 547.286 137.504 547.286 139.808V144.992C547.286 147.464 547.766 149.372 548.726 150.716C549.71 152.036 551.174 152.696 553.118 152.696Z" fill="#1A73E8"/>
<path d="M891.557 155H888.533V146.576C888.533 145.952 888.389 145.472 888.101 145.136C887.813 144.8 887.309 144.632 886.589 144.632H878.741V155H875.717V129.8H884.717C886.013 129.8 887.141 129.992 888.101 130.376C889.061 130.736 889.853 131.228 890.477 131.852C891.125 132.476 891.605 133.208 891.917 134.048C892.253 134.864 892.421 135.728 892.421 136.64V137.72C892.421 138.656 892.157 139.592 891.629 140.528C891.125 141.464 890.333 142.184 889.253 142.688V143.12C889.973 143.24 890.537 143.528 890.945 143.984C891.353 144.44 891.557 145.088 891.557 145.928V155ZM878.741 141.824H884.357C886.061 141.824 887.321 141.464 888.137 140.744C888.977 140 889.397 138.92 889.397 137.504V136.856C889.397 135.584 888.977 134.564 888.137 133.796C887.321 133.004 886.061 132.608 884.357 132.608H878.741V141.824Z" fill="#1A73E8"/>
<path d="M911.116 148.736H900.316L898.48 155H895.24L902.872 129.8H908.56L916.192 155H912.952L911.116 148.736ZM905.5 131.096L901.144 145.928H910.288L905.932 131.096H905.5Z" fill="#1A73E8"/>
<path d="M918.903 129.8H936.615V132.608H929.271V155H926.247V132.608H918.903V129.8Z" fill="#1A73E8"/>
<path d="M941.81 129.8H957.794V132.608H951.314V152.192H957.794V155H941.81V152.192H948.29V132.608H941.81V129.8Z" fill="#1A73E8"/>
<path d="M962.989 139.592C962.989 136.328 963.769 133.796 965.329 131.996C966.889 130.196 969.061 129.296 971.845 129.296C974.629 129.296 976.801 130.196 978.361 131.996C979.921 133.796 980.701 136.328 980.701 139.592V145.208C980.701 148.568 979.921 151.124 978.361 152.876C976.801 154.628 974.629 155.504 971.845 155.504C969.061 155.504 966.889 154.628 965.329 152.876C963.769 151.124 962.989 148.568 962.989 145.208V139.592ZM971.845 152.696C973.789 152.696 975.241 152.036 976.201 150.716C977.185 149.372 977.677 147.464 977.677 144.992V139.808C977.677 137.504 977.185 135.644 976.201 134.228C975.241 132.812 973.789 132.104 971.845 132.104C969.901 132.104 968.437 132.812 967.453 134.228C966.493 135.644 966.013 137.504 966.013 139.808V144.992C966.013 147.464 966.493 149.372 967.453 150.716C968.437 152.036 969.901 152.696 971.845 152.696Z" fill="#1A73E8"/>
<path d="M998.82 153.704H999.252V129.8H1002.28V155H996.228L988.956 131.096H988.524V155H985.5V129.8H991.548L998.82 153.704Z" fill="#1A73E8"/>
<path d="M1021.33 148.736H1010.53L1008.69 155H1005.45L1013.09 129.8H1018.77L1026.41 155H1023.17L1021.33 148.736ZM1015.71 131.096L1011.36 145.928H1020.5L1016.15 131.096H1015.71Z" fill="#1A73E8"/>
<path d="M1030.09 129.8H1033.11V152.192H1046.29V155H1030.09V129.8Z" fill="#1A73E8"/>
<path d="M1366.22 142.904H1377.45V155H1374.64V151.976H1374.21C1373.8 153.032 1373.08 153.884 1372.05 154.532C1371.02 155.18 1369.82 155.504 1368.45 155.504C1365.74 155.504 1363.6 154.628 1362.04 152.876C1360.51 151.124 1359.74 148.568 1359.74 145.208V139.592C1359.74 136.328 1360.52 133.796 1362.08 131.996C1363.64 130.196 1365.81 129.296 1368.59 129.296C1370.03 129.296 1371.31 129.536 1372.41 130.016C1373.51 130.472 1374.44 131.12 1375.18 131.96C1375.93 132.776 1376.49 133.748 1376.87 134.876C1377.26 135.98 1377.45 137.168 1377.45 138.44V138.872H1374.43V138.44C1374.43 137.624 1374.31 136.832 1374.07 136.064C1373.85 135.296 1373.5 134.624 1373.02 134.048C1372.57 133.448 1371.97 132.98 1371.22 132.644C1370.5 132.284 1369.63 132.104 1368.59 132.104C1366.65 132.104 1365.19 132.812 1364.2 134.228C1363.24 135.644 1362.76 137.504 1362.76 139.808V144.992C1362.76 147.464 1363.24 149.372 1364.2 150.716C1365.19 152.036 1366.67 152.696 1368.67 152.696C1370.47 152.696 1371.87 152.12 1372.88 150.968C1373.91 149.816 1374.43 148.208 1374.43 146.144V145.712H1366.22V142.904Z" fill="#1A73E8"/>
<path d="M1383.04 129.8H1398.31V132.608H1386.07V140.96H1398.09V143.768H1386.07V152.192H1398.52V155H1383.04V129.8Z" fill="#1A73E8"/>
<path d="M1403.86 139.592C1403.86 136.328 1404.64 133.796 1406.2 131.996C1407.76 130.196 1409.93 129.296 1412.72 129.296C1415.5 129.296 1417.67 130.196 1419.23 131.996C1420.79 133.796 1421.57 136.328 1421.57 139.592V145.208C1421.57 148.568 1420.79 151.124 1419.23 152.876C1417.67 154.628 1415.5 155.504 1412.72 155.504C1409.93 155.504 1407.76 154.628 1406.2 152.876C1404.64 151.124 1403.86 148.568 1403.86 145.208V139.592ZM1412.72 152.696C1414.66 152.696 1416.11 152.036 1417.07 150.716C1418.06 149.372 1418.55 147.464 1418.55 144.992V139.808C1418.55 137.504 1418.06 135.644 1417.07 134.228C1416.11 132.812 1414.66 132.104 1412.72 132.104C1410.77 132.104 1409.31 132.812 1408.32 134.228C1407.36 135.644 1406.88 137.504 1406.88 139.808V144.992C1406.88 147.464 1407.36 149.372 1408.32 150.716C1409.31 152.036 1410.77 152.696 1412.72 152.696Z" fill="#1A73E8"/>
<path d="M1425.4 129.8H1431.16L1434.54 153.704H1434.98L1438.36 129.8H1444.12V155H1441.31V131.096H1440.88L1437.5 155H1432.02L1428.64 131.096H1428.21V155H1425.4V129.8Z" fill="#1A73E8"/>
<path d="M1449.17 129.8H1464.43V132.608H1452.19V140.96H1464.22V143.768H1452.19V152.192H1464.65V155H1449.17V129.8Z" fill="#1A73E8"/>
<path d="M1469.99 129.8H1487.7V132.608H1480.36V155H1477.33V132.608H1469.99V129.8Z" fill="#1A73E8"/>
<path d="M1508.77 155H1505.75V146.576C1505.75 145.952 1505.6 145.472 1505.32 145.136C1505.03 144.8 1504.52 144.632 1503.8 144.632H1495.96V155H1492.93V129.8H1501.93C1503.23 129.8 1504.36 129.992 1505.32 130.376C1506.28 130.736 1507.07 131.228 1507.69 131.852C1508.34 132.476 1508.82 133.208 1509.13 134.048C1509.47 134.864 1509.64 135.728 1509.64 136.64V137.72C1509.64 138.656 1509.37 139.592 1508.84 140.528C1508.34 141.464 1507.55 142.184 1506.47 142.688V143.12C1507.19 143.24 1507.75 143.528 1508.16 143.984C1508.57 144.44 1508.77 145.088 1508.77 145.928V155ZM1495.96 141.824H1501.57C1503.28 141.824 1504.54 141.464 1505.35 140.744C1506.19 140 1506.61 138.92 1506.61 137.504V136.856C1506.61 135.584 1506.19 134.564 1505.35 133.796C1504.54 133.004 1503.28 132.608 1501.57 132.608H1495.96V141.824Z" fill="#1A73E8"/>
<path d="M1514.94 129.8H1530.92V132.608H1524.44V152.192H1530.92V155H1514.94V152.192H1521.42V132.608H1514.94V129.8Z" fill="#1A73E8"/>
<path d="M1545.12 152.696C1546.15 152.696 1547.03 152.528 1547.75 152.192C1548.49 151.832 1549.09 151.364 1549.55 150.788C1550.03 150.188 1550.37 149.516 1550.59 148.772C1550.83 148.004 1550.95 147.2 1550.95 146.36V145.928H1553.97V146.36C1553.97 147.632 1553.78 148.832 1553.4 149.96C1553.01 151.064 1552.45 152.036 1551.71 152.876C1550.96 153.692 1550.04 154.34 1548.93 154.82C1547.83 155.276 1546.56 155.504 1545.12 155.504C1542.33 155.504 1540.16 154.628 1538.6 152.876C1537.04 151.124 1536.26 148.568 1536.26 145.208V139.592C1536.26 136.328 1537.04 133.796 1538.6 131.996C1540.16 130.196 1542.33 129.296 1545.12 129.296C1546.56 129.296 1547.83 129.536 1548.93 130.016C1550.04 130.472 1550.96 131.12 1551.71 131.96C1552.45 132.776 1553.01 133.748 1553.4 134.876C1553.78 135.98 1553.97 137.168 1553.97 138.44V138.872H1550.95V138.44C1550.93 137.624 1550.79 136.832 1550.55 136.064C1550.34 135.296 1549.99 134.624 1549.51 134.048C1549.05 133.448 1548.47 132.98 1547.75 132.644C1547.03 132.284 1546.15 132.104 1545.12 132.104C1543.17 132.104 1541.71 132.812 1540.73 134.228C1539.77 135.644 1539.29 137.504 1539.29 139.808V144.992C1539.29 147.464 1539.77 149.372 1540.73 150.716C1541.71 152.036 1543.17 152.696 1545.12 152.696Z" fill="#1A73E8"/>
<path d="M350.573 847.592C350.573 844.328 351.353 841.796 352.913 839.996C354.473 838.196 356.645 837.296 359.429 837.296C362.213 837.296 364.385 838.196 365.945 839.996C367.505 841.796 368.285 844.328 368.285 847.592V853.208C368.285 856.568 367.505 859.124 365.945 860.876C364.385 862.628 362.213 863.504 359.429 863.504C356.645 863.504 354.473 862.628 352.913 860.876C351.353 859.124 350.573 856.568 350.573 853.208V847.592ZM359.429 860.696C361.373 860.696 362.825 860.036 363.785 858.716C364.769 857.372 365.261 855.464 365.261 852.992V847.808C365.261 845.504 364.769 843.644 363.785 842.228C362.825 840.812 361.373 840.104 359.429 840.104C357.485 840.104 356.021 840.812 355.037 842.228C354.077 843.644 353.597 845.504 353.597 847.808V852.992C353.597 855.464 354.077 857.372 355.037 858.716C356.021 860.036 357.485 860.696 359.429 860.696Z" fill="#FF6D7F"/>
<path d="M376.54 852.632V863H373.516V837.8H382.516C383.812 837.8 384.94 837.992 385.9 838.376C386.86 838.736 387.652 839.228 388.276 839.852C388.924 840.476 389.404 841.208 389.716 842.048C390.052 842.864 390.22 843.728 390.22 844.64V845.72C390.22 846.632 390.052 847.508 389.716 848.348C389.404 849.188 388.924 849.932 388.276 850.58C387.628 851.204 386.824 851.708 385.864 852.092C384.904 852.452 383.788 852.632 382.516 852.632H376.54ZM376.54 849.824H382.156C385.516 849.824 387.196 848.384 387.196 845.504V844.856C387.196 843.584 386.776 842.564 385.936 841.796C385.12 841.004 383.86 840.608 382.156 840.608H376.54V849.824Z" fill="#FF6D7F"/>
<path d="M395.883 837.8H411.147V840.608H398.907V848.96H410.931V851.768H398.907V860.192H411.363V863H395.883V837.8Z" fill="#FF6D7F"/>
<path d="M430.49 861.704H430.922V837.8H433.946V863H427.898L420.626 839.096H420.194V863H417.17V837.8H423.218L430.49 861.704Z" fill="#FF6D7F"/>
<path d="M320.743 904.736H309.943L308.107 911H304.867L312.499 885.8H318.187L325.819 911H322.579L320.743 904.736ZM315.127 887.096L310.771 901.928H319.915L315.559 887.096H315.127Z" fill="#FF6D7F"/>
<path d="M332.454 900.632V911H329.43V885.8H338.43C339.726 885.8 340.854 885.992 341.814 886.376C342.774 886.736 343.566 887.228 344.19 887.852C344.838 888.476 345.318 889.208 345.63 890.048C345.966 890.864 346.134 891.728 346.134 892.64V893.72C346.134 894.632 345.966 895.508 345.63 896.348C345.318 897.188 344.838 897.932 344.19 898.58C343.542 899.204 342.738 899.708 341.778 900.092C340.818 900.452 339.702 900.632 338.43 900.632H332.454ZM332.454 897.824H338.07C341.43 897.824 343.11 896.384 343.11 893.504V892.856C343.11 891.584 342.69 890.564 341.85 889.796C341.034 889.004 339.774 888.608 338.07 888.608H332.454V897.824Z" fill="#FF6D7F"/>
<path d="M351.797 885.8H367.061V888.608H354.821V896.96H366.845V899.768H354.821V908.192H367.277V911H351.797V885.8Z" fill="#FF6D7F"/>
<path d="M389.356 911H386.332V902.576C386.332 901.952 386.188 901.472 385.9 901.136C385.612 900.8 385.108 900.632 384.388 900.632H376.54V911H373.516V885.8H382.516C383.812 885.8 384.94 885.992 385.9 886.376C386.86 886.736 387.652 887.228 388.276 887.852C388.924 888.476 389.404 889.208 389.716 890.048C390.052 890.864 390.22 891.728 390.22 892.64V893.72C390.22 894.656 389.956 895.592 389.428 896.528C388.924 897.464 388.132 898.184 387.052 898.688V899.12C387.772 899.24 388.336 899.528 388.744 899.984C389.152 900.44 389.356 901.088 389.356 901.928V911ZM376.54 897.824H382.156C383.86 897.824 385.12 897.464 385.936 896.744C386.776 896 387.196 894.92 387.196 893.504V892.856C387.196 891.584 386.776 890.564 385.936 889.796C385.12 889.004 383.86 888.608 382.156 888.608H376.54V897.824Z" fill="#FF6D7F"/>
<path d="M394.659 885.8H412.371V888.608H405.027V911H402.003V888.608H394.659V885.8Z" fill="#FF6D7F"/>
<path d="M419.942 885.8V902.504C419.942 904.544 420.41 906.092 421.346 907.148C422.306 908.18 423.71 908.696 425.558 908.696C427.406 908.696 428.798 908.18 429.734 907.148C430.694 906.092 431.174 904.544 431.174 902.504V885.8H434.198V902.504C434.198 905.432 433.43 907.664 431.894 909.2C430.358 910.736 428.246 911.504 425.558 911.504C422.87 911.504 420.758 910.736 419.222 909.2C417.686 907.664 416.918 905.432 416.918 902.504V885.8H419.942Z" fill="#FF6D7F"/>
<path d="M455.485 911H452.461V902.576C452.461 901.952 452.317 901.472 452.029 901.136C451.741 900.8 451.237 900.632 450.517 900.632H442.669V911H439.645V885.8H448.645C449.941 885.8 451.069 885.992 452.029 886.376C452.989 886.736 453.781 887.228 454.405 887.852C455.053 888.476 455.533 889.208 455.845 890.048C456.181 890.864 456.349 891.728 456.349 892.64V893.72C456.349 894.656 456.085 895.592 455.557 896.528C455.053 897.464 454.261 898.184 453.181 898.688V899.12C453.901 899.24 454.465 899.528 454.873 899.984C455.281 900.44 455.485 901.088 455.485 901.928V911ZM442.669 897.824H448.285C449.989 897.824 451.249 897.464 452.065 896.744C452.905 896 453.325 894.92 453.325 893.504V892.856C453.325 891.584 452.905 890.564 452.065 889.796C451.249 889.004 449.989 888.608 448.285 888.608H442.669V897.824Z" fill="#FF6D7F"/>
<path d="M462.012 885.8H477.276V888.608H465.036V896.96H477.06V899.768H465.036V908.192H477.492V911H462.012V885.8Z" fill="#FF6D7F"/>
<path d="M812.53 860.696C813.562 860.696 814.438 860.528 815.158 860.192C815.902 859.832 816.502 859.364 816.958 858.788C817.438 858.188 817.786 857.516 818.002 856.772C818.242 856.004 818.362 855.2 818.362 854.36V853.928H821.386V854.36C821.386 855.632 821.194 856.832 820.81 857.96C820.426 859.064 819.862 860.036 819.118 860.876C818.374 861.692 817.45 862.34 816.346 862.82C815.242 863.276 813.97 863.504 812.53 863.504C809.746 863.504 807.574 862.628 806.014 860.876C804.454 859.124 803.674 856.568 803.674 853.208V847.592C803.674 844.328 804.454 841.796 806.014 839.996C807.574 838.196 809.746 837.296 812.53 837.296C813.97 837.296 815.242 837.536 816.346 838.016C817.45 838.472 818.374 839.12 819.118 839.96C819.862 840.776 820.426 841.748 820.81 842.876C821.194 843.98 821.386 845.168 821.386 846.44V846.872H818.362V846.44C818.338 845.624 818.206 844.832 817.966 844.064C817.75 843.296 817.402 842.624 816.922 842.048C816.466 841.448 815.878 840.98 815.158 840.644C814.438 840.284 813.562 840.104 812.53 840.104C810.586 840.104 809.122 840.812 808.138 842.228C807.178 843.644 806.698 845.504 806.698 847.808V852.992C806.698 855.464 807.178 857.372 808.138 858.716C809.122 860.036 810.586 860.696 812.53 860.696Z" fill="#FF6D7F"/>
<path d="M826.545 837.8H829.569V860.192H842.745V863H826.545V837.8Z" fill="#FF6D7F"/>
<path d="M847.616 847.592C847.616 844.328 848.396 841.796 849.956 839.996C851.516 838.196 853.688 837.296 856.472 837.296C859.256 837.296 861.428 838.196 862.988 839.996C864.548 841.796 865.328 844.328 865.328 847.592V853.208C865.328 856.568 864.548 859.124 862.988 860.876C861.428 862.628 859.256 863.504 856.472 863.504C853.688 863.504 851.516 862.628 849.956 860.876C848.396 859.124 847.616 856.568 847.616 853.208V847.592ZM856.472 860.696C858.416 860.696 859.868 860.036 860.828 858.716C861.812 857.372 862.304 855.464 862.304 852.992V847.808C862.304 845.504 861.812 843.644 860.828 842.228C859.868 840.812 858.416 840.104 856.472 840.104C854.528 840.104 853.064 840.812 852.08 842.228C851.12 843.644 850.64 845.504 850.64 847.808V852.992C850.64 855.464 851.12 857.372 852.08 858.716C853.064 860.036 854.528 860.696 856.472 860.696Z" fill="#FF6D7F"/>
<path d="M884.455 845.072C884.455 844.256 884.287 843.536 883.951 842.912C883.639 842.288 883.207 841.772 882.655 841.364C882.103 840.956 881.467 840.644 880.747 840.428C880.027 840.212 879.271 840.104 878.479 840.104C877.783 840.104 877.123 840.2 876.499 840.392C875.875 840.56 875.311 840.812 874.807 841.148C874.327 841.484 873.943 841.904 873.655 842.408C873.367 842.888 873.223 843.452 873.223 844.1V844.316C873.223 845.012 873.367 845.612 873.655 846.116C873.943 846.596 874.363 847.016 874.915 847.376C875.491 847.712 876.199 848 877.039 848.24C877.879 848.456 878.863 848.648 879.991 848.816C882.631 849.224 884.575 850.004 885.823 851.156C887.071 852.284 887.695 853.808 887.695 855.728V856.16C887.695 857.24 887.503 858.236 887.119 859.148C886.759 860.036 886.207 860.804 885.463 861.452C884.743 862.1 883.843 862.604 882.763 862.964C881.683 863.324 880.435 863.504 879.019 863.504C877.411 863.504 875.983 863.276 874.735 862.82C873.511 862.34 872.479 861.692 871.639 860.876C870.823 860.036 870.199 859.064 869.767 857.96C869.335 856.832 869.119 855.608 869.119 854.288V853.208H872.143V854.072C872.143 856.28 872.743 857.936 873.943 859.04C875.167 860.144 876.859 860.696 879.019 860.696C880.891 860.696 882.295 860.288 883.231 859.472C884.191 858.632 884.671 857.528 884.671 856.16V855.944C884.671 854.624 884.179 853.616 883.195 852.92C882.235 852.224 880.663 851.72 878.479 851.408C877.207 851.24 876.055 850.988 875.023 850.652C874.015 850.292 873.151 849.836 872.431 849.284C871.711 848.708 871.159 848.024 870.775 847.232C870.391 846.44 870.199 845.504 870.199 844.424V843.992C870.199 843.008 870.403 842.108 870.811 841.292C871.219 840.476 871.783 839.768 872.503 839.168C873.247 838.568 874.123 838.112 875.131 837.8C876.163 837.464 877.291 837.296 878.515 837.296C879.931 837.296 881.191 837.5 882.295 837.908C883.423 838.316 884.371 838.868 885.139 839.564C885.907 840.236 886.483 841.04 886.867 841.976C887.275 842.888 887.479 843.848 887.479 844.856V846.368H884.455V845.072Z" fill="#FF6D7F"/>
<path d="M892.926 837.8H908.19V840.608H895.95V848.96H907.974V851.768H895.95V860.192H908.406V863H892.926V837.8Z" fill="#FF6D7F"/>
<path d="M914.213 837.8H922.493C925.613 837.8 927.893 838.544 929.333 840.032C930.773 841.52 931.493 843.896 931.493 847.16V853.64C931.493 856.904 930.773 859.28 929.333 860.768C927.893 862.256 925.613 863 922.493 863H914.213V860.156H916.373V840.608H914.213V837.8ZM922.061 860.192C923.165 860.192 924.113 860.084 924.905 859.868C925.721 859.652 926.393 859.292 926.921 858.788C927.449 858.26 927.833 857.564 928.073 856.7C928.337 855.836 928.469 854.744 928.469 853.424V847.376C928.469 846.056 928.337 844.964 928.073 844.1C927.833 843.236 927.449 842.552 926.921 842.048C926.393 841.52 925.721 841.148 924.905 840.932C924.113 840.716 923.165 840.608 922.061 840.608H919.397V860.192H922.061Z" fill="#FF6D7F"/>
<path d="M795.743 904.736H784.943L783.107 911H779.867L787.499 885.8H793.187L800.819 911H797.579L795.743 904.736ZM790.127 887.096L785.771 901.928H794.915L790.559 887.096H790.127Z" fill="#FF6D7F"/>
<path d="M807.454 900.632V911H804.43V885.8H813.43C814.726 885.8 815.854 885.992 816.814 886.376C817.774 886.736 818.566 887.228 819.19 887.852C819.838 888.476 820.318 889.208 820.63 890.048C820.966 890.864 821.134 891.728 821.134 892.64V893.72C821.134 894.632 820.966 895.508 820.63 896.348C820.318 897.188 819.838 897.932 819.19 898.58C818.542 899.204 817.738 899.708 816.778 900.092C815.818 900.452 814.702 900.632 813.43 900.632H807.454ZM807.454 897.824H813.07C816.43 897.824 818.11 896.384 818.11 893.504V892.856C818.11 891.584 817.69 890.564 816.85 889.796C816.034 889.004 814.774 888.608 813.07 888.608H807.454V897.824Z" fill="#FF6D7F"/>
<path d="M826.797 885.8H842.061V888.608H829.821V896.96H841.845V899.768H829.821V908.192H842.277V911H826.797V885.8Z" fill="#FF6D7F"/>
<path d="M864.356 911H861.332V902.576C861.332 901.952 861.188 901.472 860.9 901.136C860.612 900.8 860.108 900.632 859.388 900.632H851.54V911H848.516V885.8H857.516C858.812 885.8 859.94 885.992 860.9 886.376C861.86 886.736 862.652 887.228 863.276 887.852C863.924 888.476 864.404 889.208 864.716 890.048C865.052 890.864 865.22 891.728 865.22 892.64V893.72C865.22 894.656 864.956 895.592 864.428 896.528C863.924 897.464 863.132 898.184 862.052 898.688V899.12C862.772 899.24 863.336 899.528 863.744 899.984C864.152 900.44 864.356 901.088 864.356 901.928V911ZM851.54 897.824H857.156C858.86 897.824 860.12 897.464 860.936 896.744C861.776 896 862.196 894.92 862.196 893.504V892.856C862.196 891.584 861.776 890.564 860.936 889.796C860.12 889.004 858.86 888.608 857.156 888.608H851.54V897.824Z" fill="#FF6D7F"/>
<path d="M869.659 885.8H887.371V888.608H880.027V911H877.003V888.608H869.659V885.8Z" fill="#FF6D7F"/>
<path d="M894.942 885.8V902.504C894.942 904.544 895.41 906.092 896.346 907.148C897.306 908.18 898.71 908.696 900.558 908.696C902.406 908.696 903.798 908.18 904.734 907.148C905.694 906.092 906.174 904.544 906.174 902.504V885.8H909.198V902.504C909.198 905.432 908.43 907.664 906.894 909.2C905.358 910.736 903.246 911.504 900.558 911.504C897.87 911.504 895.758 910.736 894.222 909.2C892.686 907.664 891.918 905.432 891.918 902.504V885.8H894.942Z" fill="#FF6D7F"/>
<path d="M930.485 911H927.461V902.576C927.461 901.952 927.317 901.472 927.029 901.136C926.741 900.8 926.237 900.632 925.517 900.632H917.669V911H914.645V885.8H923.645C924.941 885.8 926.069 885.992 927.029 886.376C927.989 886.736 928.781 887.228 929.405 887.852C930.053 888.476 930.533 889.208 930.845 890.048C931.181 890.864 931.349 891.728 931.349 892.64V893.72C931.349 894.656 931.085 895.592 930.557 896.528C930.053 897.464 929.261 898.184 928.181 898.688V899.12C928.901 899.24 929.465 899.528 929.873 899.984C930.281 900.44 930.485 901.088 930.485 901.928V911ZM917.669 897.824H923.285C924.989 897.824 926.249 897.464 927.065 896.744C927.905 896 928.325 894.92 928.325 893.504V892.856C928.325 891.584 927.905 890.564 927.065 889.796C926.249 889.004 924.989 888.608 923.285 888.608H917.669V897.824Z" fill="#FF6D7F"/>
<path d="M937.012 885.8H952.276V888.608H940.036V896.96H952.06V899.768H940.036V908.192H952.492V911H937.012V885.8Z" fill="#FF6D7F"/>
<path fill-rule="evenodd" clip-rule="evenodd" d="M391.001 494.479C386.066 493.543 382.334 489.207 382.334 484C382.334 478.109 387.11 473.333 393.001 473.333C398.892 473.333 403.667 478.109 403.667 484C403.667 489.207 399.936 493.543 395.001 494.479V811H391.001V494.479Z" fill="#FF6D7F"/>
<path fill-rule="evenodd" clip-rule="evenodd" d="M866.001 508.479C861.066 507.543 857.334 503.207 857.334 498C857.334 492.109 862.11 487.333 868.001 487.333C873.892 487.333 878.667 492.109 878.667 498C878.667 503.207 874.936 507.543 870.001 508.479V811H866.001V508.479Z" fill="#FF6D7F"/>
<path d="M1339.42 860.696C1340.46 860.696 1341.33 860.528 1342.05 860.192C1342.8 859.832 1343.4 859.364 1343.85 858.788C1344.33 858.188 1344.68 857.516 1344.9 856.772C1345.14 856.004 1345.26 855.2 1345.26 854.36V853.928H1348.28V854.36C1348.28 855.632 1348.09 856.832 1347.7 857.96C1347.32 859.064 1346.76 860.036 1346.01 860.876C1345.27 861.692 1344.34 862.34 1343.24 862.82C1342.14 863.276 1340.86 863.504 1339.42 863.504C1336.64 863.504 1334.47 862.628 1332.91 860.876C1331.35 859.124 1330.57 856.568 1330.57 853.208V847.592C1330.57 844.328 1331.35 841.796 1332.91 839.996C1334.47 838.196 1336.64 837.296 1339.42 837.296C1340.86 837.296 1342.14 837.536 1343.24 838.016C1344.34 838.472 1345.27 839.12 1346.01 839.96C1346.76 840.776 1347.32 841.748 1347.7 842.876C1348.09 843.98 1348.28 845.168 1348.28 846.44V846.872H1345.26V846.44C1345.23 845.624 1345.1 844.832 1344.86 844.064C1344.64 843.296 1344.3 842.624 1343.82 842.048C1343.36 841.448 1342.77 840.98 1342.05 840.644C1341.33 840.284 1340.46 840.104 1339.42 840.104C1337.48 840.104 1336.02 840.812 1335.03 842.228C1334.07 843.644 1333.59 845.504 1333.59 847.808V852.992C1333.59 855.464 1334.07 857.372 1335.03 858.716C1336.02 860.036 1337.48 860.696 1339.42 860.696Z" fill="#FF6D7F"/>
<path d="M1352.47 847.592C1352.47 844.328 1353.25 841.796 1354.81 839.996C1356.37 838.196 1358.54 837.296 1361.32 837.296C1364.11 837.296 1366.28 838.196 1367.84 839.996C1369.4 841.796 1370.18 844.328 1370.18 847.592V853.208C1370.18 856.568 1369.4 859.124 1367.84 860.876C1366.28 862.628 1364.11 863.504 1361.32 863.504C1358.54 863.504 1356.37 862.628 1354.81 860.876C1353.25 859.124 1352.47 856.568 1352.47 853.208V847.592ZM1361.32 860.696C1363.27 860.696 1364.72 860.036 1365.68 858.716C1366.66 857.372 1367.16 855.464 1367.16 852.992V847.808C1367.16 845.504 1366.66 843.644 1365.68 842.228C1364.72 840.812 1363.27 840.104 1361.32 840.104C1359.38 840.104 1357.92 840.812 1356.93 842.228C1355.97 843.644 1355.49 845.504 1355.49 847.808V852.992C1355.49 855.464 1355.97 857.372 1356.93 858.716C1357.92 860.036 1359.38 860.696 1361.32 860.696Z" fill="#FF6D7F"/>
<path d="M1388.3 861.704H1388.73V837.8H1391.75V863H1385.71L1378.43 839.096H1378V863H1374.98V837.8H1381.03L1388.3 861.704Z" fill="#FF6D7F"/>
<path d="M1411.35 845.072C1411.35 844.256 1411.18 843.536 1410.85 842.912C1410.53 842.288 1410.1 841.772 1409.55 841.364C1409 840.956 1408.36 840.644 1407.64 840.428C1406.92 840.212 1406.17 840.104 1405.37 840.104C1404.68 840.104 1404.02 840.2 1403.39 840.392C1402.77 840.56 1402.21 840.812 1401.7 841.148C1401.22 841.484 1400.84 841.904 1400.55 842.408C1400.26 842.888 1400.12 843.452 1400.12 844.1V844.316C1400.12 845.012 1400.26 845.612 1400.55 846.116C1400.84 846.596 1401.26 847.016 1401.81 847.376C1402.39 847.712 1403.09 848 1403.93 848.24C1404.77 848.456 1405.76 848.648 1406.89 848.816C1409.53 849.224 1411.47 850.004 1412.72 851.156C1413.97 852.284 1414.59 853.808 1414.59 855.728V856.16C1414.59 857.24 1414.4 858.236 1414.01 859.148C1413.65 860.036 1413.1 860.804 1412.36 861.452C1411.64 862.1 1410.74 862.604 1409.66 862.964C1408.58 863.324 1407.33 863.504 1405.91 863.504C1404.31 863.504 1402.88 863.276 1401.63 862.82C1400.41 862.34 1399.37 861.692 1398.53 860.876C1397.72 860.036 1397.09 859.064 1396.66 857.96C1396.23 856.832 1396.01 855.608 1396.01 854.288V853.208H1399.04V854.072C1399.04 856.28 1399.64 857.936 1400.84 859.04C1402.06 860.144 1403.75 860.696 1405.91 860.696C1407.79 860.696 1409.19 860.288 1410.13 859.472C1411.09 858.632 1411.57 857.528 1411.57 856.16V855.944C1411.57 854.624 1411.07 853.616 1410.09 852.92C1409.13 852.224 1407.56 851.72 1405.37 851.408C1404.1 851.24 1402.95 850.988 1401.92 850.652C1400.91 850.292 1400.05 849.836 1399.33 849.284C1398.61 848.708 1398.05 848.024 1397.67 847.232C1397.29 846.44 1397.09 845.504 1397.09 844.424V843.992C1397.09 843.008 1397.3 842.108 1397.71 841.292C1398.11 840.476 1398.68 839.768 1399.4 839.168C1400.14 838.568 1401.02 838.112 1402.03 837.8C1403.06 837.464 1404.19 837.296 1405.41 837.296C1406.83 837.296 1408.09 837.5 1409.19 837.908C1410.32 838.316 1411.27 838.868 1412.03 839.564C1412.8 840.236 1413.38 841.04 1413.76 841.976C1414.17 842.888 1414.37 843.848 1414.37 844.856V846.368H1411.35V845.072Z" fill="#FF6D7F"/>
<path d="M1418.6 837.8H1436.31V840.608H1428.96V863H1425.94V840.608H1418.6V837.8Z" fill="#FF6D7F"/>
<path d="M1457.38 863H1454.36V854.576C1454.36 853.952 1454.21 853.472 1453.92 853.136C1453.64 852.8 1453.13 852.632 1452.41 852.632H1444.56V863H1441.54V837.8H1450.54C1451.84 837.8 1452.96 837.992 1453.92 838.376C1454.88 838.736 1455.68 839.228 1456.3 839.852C1456.95 840.476 1457.43 841.208 1457.74 842.048C1458.08 842.864 1458.24 843.728 1458.24 844.64V845.72C1458.24 846.656 1457.98 847.592 1457.45 848.528C1456.95 849.464 1456.16 850.184 1455.08 850.688V851.12C1455.8 851.24 1456.36 851.528 1456.77 851.984C1457.18 852.44 1457.38 853.088 1457.38 853.928V863ZM1444.56 849.824H1450.18C1451.88 849.824 1453.14 849.464 1453.96 848.744C1454.8 848 1455.22 846.92 1455.22 845.504V844.856C1455.22 843.584 1454.8 842.564 1453.96 841.796C1453.14 841.004 1451.88 840.608 1450.18 840.608H1444.56V849.824Z" fill="#FF6D7F"/>
<path d="M1465.92 837.8V854.504C1465.92 856.544 1466.39 858.092 1467.33 859.148C1468.29 860.18 1469.69 860.696 1471.54 860.696C1473.39 860.696 1474.78 860.18 1475.71 859.148C1476.67 858.092 1477.15 856.544 1477.15 854.504V837.8H1480.18V854.504C1480.18 857.432 1479.41 859.664 1477.87 861.2C1476.34 862.736 1474.23 863.504 1471.54 863.504C1468.85 863.504 1466.74 862.736 1465.2 861.2C1463.67 859.664 1462.9 857.432 1462.9 854.504V837.8H1465.92Z" fill="#FF6D7F"/>
<path d="M1493.73 860.696C1494.76 860.696 1495.63 860.528 1496.35 860.192C1497.1 859.832 1497.7 859.364 1498.15 858.788C1498.63 858.188 1498.98 857.516 1499.2 856.772C1499.44 856.004 1499.56 855.2 1499.56 854.36V853.928H1502.58V854.36C1502.58 855.632 1502.39 856.832 1502.01 857.96C1501.62 859.064 1501.06 860.036 1500.31 860.876C1499.57 861.692 1498.65 862.34 1497.54 862.82C1496.44 863.276 1495.17 863.504 1493.73 863.504C1490.94 863.504 1488.77 862.628 1487.21 860.876C1485.65 859.124 1484.87 856.568 1484.87 853.208V847.592C1484.87 844.328 1485.65 841.796 1487.21 839.996C1488.77 838.196 1490.94 837.296 1493.73 837.296C1495.17 837.296 1496.44 837.536 1497.54 838.016C1498.65 838.472 1499.57 839.12 1500.31 839.96C1501.06 840.776 1501.62 841.748 1502.01 842.876C1502.39 843.98 1502.58 845.168 1502.58 846.44V846.872H1499.56V846.44C1499.53 845.624 1499.4 844.832 1499.16 844.064C1498.95 843.296 1498.6 842.624 1498.12 842.048C1497.66 841.448 1497.07 840.98 1496.35 840.644C1495.63 840.284 1494.76 840.104 1493.73 840.104C1491.78 840.104 1490.32 840.812 1489.33 842.228C1488.37 843.644 1487.89 845.504 1487.89 847.808V852.992C1487.89 855.464 1488.37 857.372 1489.33 858.716C1490.32 860.036 1491.78 860.696 1493.73 860.696Z" fill="#FF6D7F"/>
<path d="M1506.77 837.8H1524.48V840.608H1517.14V863H1514.11V840.608H1506.77V837.8Z" fill="#FF6D7F"/>
<path d="M1530.04 837.8H1545.3V840.608H1533.06V848.96H1545.08V851.768H1533.06V860.192H1545.52V863H1530.04V837.8Z" fill="#FF6D7F"/>
<path d="M1551.32 837.8H1559.6C1562.72 837.8 1565 838.544 1566.44 840.032C1567.88 841.52 1568.6 843.896 1568.6 847.16V853.64C1568.6 856.904 1567.88 859.28 1566.44 860.768C1565 862.256 1562.72 863 1559.6 863H1551.32V860.156H1553.48V840.608H1551.32V837.8ZM1559.17 860.192C1560.27 860.192 1561.22 860.084 1562.01 859.868C1562.83 859.652 1563.5 859.292 1564.03 858.788C1564.56 858.26 1564.94 857.564 1565.18 856.7C1565.45 855.836 1565.58 854.744 1565.58 853.424V847.376C1565.58 846.056 1565.45 844.964 1565.18 844.1C1564.94 843.236 1564.56 842.552 1564.03 842.048C1563.5 841.52 1562.83 841.148 1562.01 840.932C1561.22 840.716 1560.27 840.608 1559.17 840.608H1556.51V860.192H1559.17Z" fill="#FF6D7F"/>
<path fill-rule="evenodd" clip-rule="evenodd" d="M1428.33 707C1428.33 701.109 1433.11 696.333 1439 696.333C1444.89 696.333 1449.67 701.109 1449.67 707C1449.67 712.208 1445.93 716.543 1441 717.48L1441 812L1437 812L1437 717.48C1432.06 716.543 1428.33 712.208 1428.33 707Z" fill="#FF6D7F"/>
</svg>
