<svg width="1920" height="1080" viewBox="0 0 1920 1080" fill="none" xmlns="http://www.w3.org/2000/svg">
<path d="M347.295 809.696C348.327 809.696 349.203 809.528 349.923 809.192C350.667 808.832 351.267 808.364 351.723 807.788C352.203 807.188 352.551 806.516 352.767 805.772C353.007 805.004 353.127 804.2 353.127 803.36V802.928H356.151V803.36C356.151 804.632 355.959 805.832 355.575 806.96C355.191 808.064 354.627 809.036 353.883 809.876C353.139 810.692 352.215 811.34 351.111 811.82C350.007 812.276 348.735 812.504 347.295 812.504C344.511 812.504 342.339 811.628 340.779 809.876C339.219 808.124 338.439 805.568 338.439 802.208V796.592C338.439 793.328 339.219 790.796 340.779 788.996C342.339 787.196 344.511 786.296 347.295 786.296C348.735 786.296 350.007 786.536 351.111 787.016C352.215 787.472 353.139 788.12 353.883 788.96C354.627 789.776 355.191 790.748 355.575 791.876C355.959 792.98 356.151 794.168 356.151 795.44V795.872H353.127V795.44C353.103 794.624 352.971 793.832 352.731 793.064C352.515 792.296 352.167 791.624 351.687 791.048C351.231 790.448 350.643 789.98 349.923 789.644C349.203 789.284 348.327 789.104 347.295 789.104C345.351 789.104 343.887 789.812 342.903 791.228C341.943 792.644 341.463 794.504 341.463 796.808V801.992C341.463 804.464 341.943 806.372 342.903 807.716C343.887 809.036 345.351 809.696 347.295 809.696Z" fill="#FF6D7F"/>
<path d="M360.338 796.592C360.338 793.328 361.118 790.796 362.678 788.996C364.238 787.196 366.41 786.296 369.194 786.296C371.978 786.296 374.15 787.196 375.71 788.996C377.27 790.796 378.05 793.328 378.05 796.592V802.208C378.05 805.568 377.27 808.124 375.71 809.876C374.15 811.628 371.978 812.504 369.194 812.504C366.41 812.504 364.238 811.628 362.678 809.876C361.118 808.124 360.338 805.568 360.338 802.208V796.592ZM369.194 809.696C371.138 809.696 372.59 809.036 373.55 807.716C374.534 806.372 375.026 804.464 375.026 801.992V796.808C375.026 794.504 374.534 792.644 373.55 791.228C372.59 789.812 371.138 789.104 369.194 789.104C367.25 789.104 365.786 789.812 364.802 791.228C363.842 792.644 363.362 794.504 363.362 796.808V801.992C363.362 804.464 363.842 806.372 364.802 807.716C365.786 809.036 367.25 809.696 369.194 809.696Z" fill="#FF6D7F"/>
<path d="M396.169 810.704H396.601V786.8H399.625V812H393.577L386.305 788.096H385.873V812H382.849V786.8H388.897L396.169 810.704Z" fill="#FF6D7F"/>
<path d="M419.22 794.072C419.22 793.256 419.052 792.536 418.716 791.912C418.404 791.288 417.972 790.772 417.42 790.364C416.868 789.956 416.232 789.644 415.512 789.428C414.792 789.212 414.036 789.104 413.244 789.104C412.548 789.104 411.888 789.2 411.264 789.392C410.64 789.56 410.076 789.812 409.572 790.148C409.092 790.484 408.708 790.904 408.42 791.408C408.132 791.888 407.988 792.452 407.988 793.1V793.316C407.988 794.012 408.132 794.612 408.42 795.116C408.708 795.596 409.128 796.016 409.68 796.376C410.256 796.712 410.964 797 411.804 797.24C412.644 797.456 413.628 797.648 414.756 797.816C417.396 798.224 419.34 799.004 420.588 800.156C421.836 801.284 422.46 802.808 422.46 804.728V805.16C422.46 806.24 422.268 807.236 421.884 808.148C421.524 809.036 420.972 809.804 420.228 810.452C419.508 811.1 418.608 811.604 417.528 811.964C416.448 812.324 415.2 812.504 413.784 812.504C412.176 812.504 410.748 812.276 409.5 811.82C408.276 811.34 407.244 810.692 406.404 809.876C405.588 809.036 404.964 808.064 404.532 806.96C404.1 805.832 403.884 804.608 403.884 803.288V802.208H406.908V803.072C406.908 805.28 407.508 806.936 408.708 808.04C409.932 809.144 411.624 809.696 413.784 809.696C415.656 809.696 417.06 809.288 417.996 808.472C418.956 807.632 419.436 806.528 419.436 805.16V804.944C419.436 803.624 418.944 802.616 417.96 801.92C417 801.224 415.428 800.72 413.244 800.408C411.972 800.24 410.82 799.988 409.788 799.652C408.78 799.292 407.916 798.836 407.196 798.284C406.476 797.708 405.924 797.024 405.54 796.232C405.156 795.44 404.964 794.504 404.964 793.424V792.992C404.964 792.008 405.168 791.108 405.576 790.292C405.984 789.476 406.548 788.768 407.268 788.168C408.012 787.568 408.888 787.112 409.896 786.8C410.928 786.464 412.056 786.296 413.28 786.296C414.696 786.296 415.956 786.5 417.06 786.908C418.188 787.316 419.136 787.868 419.904 788.564C420.672 789.236 421.248 790.04 421.632 790.976C422.04 791.888 422.244 792.848 422.244 793.856V795.368H419.22V794.072Z" fill="#FF6D7F"/>
<path d="M426.467 786.8H444.179V789.608H436.835V812H433.811V789.608H426.467V786.8Z" fill="#FF6D7F"/>
<path d="M465.25 812H462.226V803.576C462.226 802.952 462.082 802.472 461.794 802.136C461.506 801.8 461.002 801.632 460.282 801.632H452.434V812H449.41V786.8H458.41C459.706 786.8 460.834 786.992 461.794 787.376C462.754 787.736 463.546 788.228 464.17 788.852C464.818 789.476 465.298 790.208 465.61 791.048C465.946 791.864 466.114 792.728 466.114 793.64V794.72C466.114 795.656 465.85 796.592 465.322 797.528C464.818 798.464 464.026 799.184 462.946 799.688V800.12C463.666 800.24 464.23 800.528 464.638 800.984C465.046 801.44 465.25 802.088 465.25 802.928V812ZM452.434 798.824H458.05C459.754 798.824 461.014 798.464 461.83 797.744C462.67 797 463.09 795.92 463.09 794.504V793.856C463.09 792.584 462.67 791.564 461.83 790.796C461.014 790.004 459.754 789.608 458.05 789.608H452.434V798.824Z" fill="#FF6D7F"/>
<path d="M473.793 786.8V803.504C473.793 805.544 474.261 807.092 475.197 808.148C476.157 809.18 477.561 809.696 479.409 809.696C481.257 809.696 482.649 809.18 483.585 808.148C484.545 807.092 485.025 805.544 485.025 803.504V786.8H488.049V803.504C488.049 806.432 487.281 808.664 485.745 810.2C484.209 811.736 482.097 812.504 479.409 812.504C476.721 812.504 474.609 811.736 473.073 810.2C471.537 808.664 470.769 806.432 470.769 803.504V786.8H473.793Z" fill="#FF6D7F"/>
<path d="M501.596 809.696C502.628 809.696 503.504 809.528 504.224 809.192C504.968 808.832 505.568 808.364 506.024 807.788C506.504 807.188 506.852 806.516 507.068 805.772C507.308 805.004 507.428 804.2 507.428 803.36V802.928H510.452V803.36C510.452 804.632 510.26 805.832 509.876 806.96C509.492 808.064 508.928 809.036 508.184 809.876C507.44 810.692 506.516 811.34 505.412 811.82C504.308 812.276 503.036 812.504 501.596 812.504C498.812 812.504 496.64 811.628 495.08 809.876C493.52 808.124 492.74 805.568 492.74 802.208V796.592C492.74 793.328 493.52 790.796 495.08 788.996C496.64 787.196 498.812 786.296 501.596 786.296C503.036 786.296 504.308 786.536 505.412 787.016C506.516 787.472 507.44 788.12 508.184 788.96C508.928 789.776 509.492 790.748 509.876 791.876C510.26 792.98 510.452 794.168 510.452 795.44V795.872H507.428V795.44C507.404 794.624 507.272 793.832 507.032 793.064C506.816 792.296 506.468 791.624 505.988 791.048C505.532 790.448 504.944 789.98 504.224 789.644C503.504 789.284 502.628 789.104 501.596 789.104C499.652 789.104 498.188 789.812 497.204 791.228C496.244 792.644 495.764 794.504 495.764 796.808V801.992C495.764 804.464 496.244 806.372 497.204 807.716C498.188 809.036 499.652 809.696 501.596 809.696Z" fill="#FF6D7F"/>
<path d="M514.639 786.8H532.351V789.608H525.007V812H521.983V789.608H514.639V786.8Z" fill="#FF6D7F"/>
<path d="M537.906 786.8H553.17V789.608H540.93V797.96H552.954V800.768H540.93V809.192H553.386V812H537.906V786.8Z" fill="#FF6D7F"/>
<path d="M559.193 786.8H567.473C570.593 786.8 572.873 787.544 574.313 789.032C575.753 790.52 576.473 792.896 576.473 796.16V802.64C576.473 805.904 575.753 808.28 574.313 809.768C572.873 811.256 570.593 812 567.473 812H559.193V809.156H561.353V789.608H559.193V786.8ZM567.041 809.192C568.145 809.192 569.093 809.084 569.885 808.868C570.701 808.652 571.373 808.292 571.901 807.788C572.429 807.26 572.813 806.564 573.053 805.7C573.317 804.836 573.449 803.744 573.449 802.424V796.376C573.449 795.056 573.317 793.964 573.053 793.1C572.813 792.236 572.429 791.552 571.901 791.048C571.373 790.52 570.701 790.148 569.885 789.932C569.093 789.716 568.145 789.608 567.041 789.608H564.377V809.192H567.041Z" fill="#FF6D7F"/>
<path d="M604.071 786.8H619.551V789.608H607.095V797.96H619.335V800.768H607.095V812H604.071V786.8Z" fill="#FF6D7F"/>
<path d="M624.854 796.592C624.854 793.328 625.634 790.796 627.194 788.996C628.754 787.196 630.926 786.296 633.71 786.296C636.494 786.296 638.666 787.196 640.226 788.996C641.786 790.796 642.566 793.328 642.566 796.592V802.208C642.566 805.568 641.786 808.124 640.226 809.876C638.666 811.628 636.494 812.504 633.71 812.504C630.926 812.504 628.754 811.628 627.194 809.876C625.634 808.124 624.854 805.568 624.854 802.208V796.592ZM633.71 809.696C635.654 809.696 637.106 809.036 638.066 807.716C639.05 806.372 639.542 804.464 639.542 801.992V796.808C639.542 794.504 639.05 792.644 638.066 791.228C637.106 789.812 635.654 789.104 633.71 789.104C631.766 789.104 630.302 789.812 629.318 791.228C628.358 792.644 627.878 794.504 627.878 796.808V801.992C627.878 804.464 628.358 806.372 629.318 807.716C630.302 809.036 631.766 809.696 633.71 809.696Z" fill="#FF6D7F"/>
<path d="M663.637 812H660.613V803.576C660.613 802.952 660.469 802.472 660.181 802.136C659.893 801.8 659.389 801.632 658.669 801.632H650.821V812H647.797V786.8H656.797C658.093 786.8 659.221 786.992 660.181 787.376C661.141 787.736 661.933 788.228 662.557 788.852C663.205 789.476 663.685 790.208 663.997 791.048C664.333 791.864 664.501 792.728 664.501 793.64V794.72C664.501 795.656 664.237 796.592 663.709 797.528C663.205 798.464 662.413 799.184 661.333 799.688V800.12C662.053 800.24 662.617 800.528 663.025 800.984C663.433 801.44 663.637 802.088 663.637 802.928V812ZM650.821 798.824H656.437C658.141 798.824 659.401 798.464 660.217 797.744C661.057 797 661.477 795.92 661.477 794.504V793.856C661.477 792.584 661.057 791.564 660.217 790.796C659.401 790.004 658.141 789.608 656.437 789.608H650.821V798.824Z" fill="#FF6D7F"/>
<path d="M668.436 786.8H674.196L677.58 810.704H678.012L681.396 786.8H687.156V812H684.348V788.096H683.916L680.532 812H675.06L671.676 788.096H671.244V812H668.436V786.8Z" fill="#FF6D7F"/>
<path d="M705.779 794.072C705.779 793.256 705.611 792.536 705.275 791.912C704.963 791.288 704.531 790.772 703.979 790.364C703.427 789.956 702.791 789.644 702.071 789.428C701.351 789.212 700.595 789.104 699.803 789.104C699.107 789.104 698.447 789.2 697.823 789.392C697.199 789.56 696.635 789.812 696.131 790.148C695.651 790.484 695.267 790.904 694.979 791.408C694.691 791.888 694.547 792.452 694.547 793.1V793.316C694.547 794.012 694.691 794.612 694.979 795.116C695.267 795.596 695.687 796.016 696.239 796.376C696.815 796.712 697.523 797 698.363 797.24C699.203 797.456 700.187 797.648 701.315 797.816C703.955 798.224 705.899 799.004 707.147 800.156C708.395 801.284 709.019 802.808 709.019 804.728V805.16C709.019 806.24 708.827 807.236 708.443 808.148C708.083 809.036 707.531 809.804 706.787 810.452C706.067 811.1 705.167 811.604 704.087 811.964C703.007 812.324 701.759 812.504 700.343 812.504C698.735 812.504 697.307 812.276 696.059 811.82C694.835 811.34 693.803 810.692 692.963 809.876C692.147 809.036 691.523 808.064 691.091 806.96C690.659 805.832 690.443 804.608 690.443 803.288V802.208H693.467V803.072C693.467 805.28 694.067 806.936 695.267 808.04C696.491 809.144 698.183 809.696 700.343 809.696C702.215 809.696 703.619 809.288 704.555 808.472C705.515 807.632 705.995 806.528 705.995 805.16V804.944C705.995 803.624 705.503 802.616 704.519 801.92C703.559 801.224 701.987 800.72 699.803 800.408C698.531 800.24 697.379 799.988 696.347 799.652C695.339 799.292 694.475 798.836 693.755 798.284C693.035 797.708 692.483 797.024 692.099 796.232C691.715 795.44 691.523 794.504 691.523 793.424V792.992C691.523 792.008 691.727 791.108 692.135 790.292C692.543 789.476 693.107 788.768 693.827 788.168C694.571 787.568 695.447 787.112 696.455 786.8C697.487 786.464 698.615 786.296 699.839 786.296C701.255 786.296 702.515 786.5 703.619 786.908C704.747 787.316 705.695 787.868 706.463 788.564C707.231 789.236 707.807 790.04 708.191 790.976C708.599 791.888 708.803 792.848 708.803 793.856V795.368H705.779V794.072Z" fill="#FF6D7F"/>
<path d="M384.892 868.46C382.588 868.46 380.596 868.052 378.916 867.236C377.26 866.42 375.988 865.136 375.1 863.384C374.212 861.656 373.768 859.412 373.768 856.652V844.988C373.768 842.204 374.212 839.948 375.1 838.22C375.988 836.492 377.26 835.22 378.916 834.404C380.596 833.588 382.588 833.18 384.892 833.18V835.664C382.036 835.688 379.924 836.48 378.556 838.04C377.188 839.576 376.504 841.952 376.504 845.168V856.472C376.504 859.664 377.188 862.04 378.556 863.6C379.924 865.16 382.036 865.952 384.892 865.976V868.46Z" fill="#FF6D7F"/>
<path d="M395.845 860.504C394.141 860.504 392.605 860.144 391.237 859.424C389.893 858.68 388.825 857.624 388.033 856.256C387.265 854.888 386.881 853.268 386.881 851.396V851C386.881 849.104 387.265 847.484 388.033 846.14C388.825 844.772 389.893 843.728 391.237 843.008C392.605 842.264 394.141 841.892 395.845 841.892C397.525 841.892 398.953 842.204 400.129 842.828C401.329 843.452 402.265 844.28 402.937 845.312C403.633 846.344 404.077 847.448 404.269 848.624L401.497 849.2C401.377 848.336 401.089 847.544 400.633 846.824C400.201 846.104 399.589 845.528 398.797 845.096C398.005 844.664 397.033 844.448 395.881 844.448C394.705 844.448 393.649 844.712 392.713 845.24C391.801 845.768 391.069 846.524 390.517 847.508C389.989 848.492 389.725 849.668 389.725 851.036V851.36C389.725 852.728 389.989 853.904 390.517 854.888C391.069 855.872 391.801 856.628 392.713 857.156C393.649 857.684 394.705 857.948 395.881 857.948C397.633 857.948 398.965 857.492 399.877 856.58C400.813 855.668 401.389 854.54 401.605 853.196L404.413 853.808C404.149 854.96 403.669 856.052 402.973 857.084C402.277 858.116 401.329 858.944 400.129 859.568C398.953 860.192 397.525 860.504 395.845 860.504Z" fill="#FF6D7F"/>
<path d="M409.26 860V842.396H412.104V860H409.26ZM410.7 839.66C410.076 839.66 409.548 839.456 409.116 839.048C408.708 838.64 408.504 838.124 408.504 837.5C408.504 836.852 408.708 836.324 409.116 835.916C409.548 835.508 410.076 835.304 410.7 835.304C411.324 835.304 411.84 835.508 412.248 835.916C412.656 836.324 412.86 836.852 412.86 837.5C412.86 838.124 412.656 838.64 412.248 839.048C411.84 839.456 411.324 839.66 410.7 839.66Z" fill="#FF6D7F"/>
<path d="M418.084 860V842.396H420.856V844.556H421.36C421.672 843.788 422.152 843.224 422.8 842.864C423.448 842.504 424.3 842.324 425.356 842.324H427.444V844.916H425.176C423.904 844.916 422.872 845.276 422.08 845.996C421.312 846.692 420.928 847.784 420.928 849.272V860H418.084Z" fill="#FF6D7F"/>
<path d="M439.122 860.504C437.418 860.504 435.882 860.144 434.514 859.424C433.17 858.68 432.102 857.624 431.31 856.256C430.542 854.888 430.158 853.268 430.158 851.396V851C430.158 849.104 430.542 847.484 431.31 846.14C432.102 844.772 433.17 843.728 434.514 843.008C435.882 842.264 437.418 841.892 439.122 841.892C440.802 841.892 442.23 842.204 443.406 842.828C444.606 843.452 445.542 844.28 446.214 845.312C446.91 846.344 447.354 847.448 447.546 848.624L444.774 849.2C444.654 848.336 444.366 847.544 443.91 846.824C443.478 846.104 442.866 845.528 442.074 845.096C441.282 844.664 440.31 844.448 439.158 844.448C437.982 844.448 436.926 844.712 435.99 845.24C435.078 845.768 434.346 846.524 433.794 847.508C433.266 848.492 433.002 849.668 433.002 851.036V851.36C433.002 852.728 433.266 853.904 433.794 854.888C434.346 855.872 435.078 856.628 435.99 857.156C436.926 857.684 437.982 857.948 439.158 857.948C440.91 857.948 442.242 857.492 443.154 856.58C444.09 855.668 444.666 854.54 444.882 853.196L447.69 853.808C447.426 854.96 446.946 856.052 446.25 857.084C445.554 858.116 444.606 858.944 443.406 859.568C442.23 860.192 440.802 860.504 439.122 860.504Z" fill="#FF6D7F"/>
<path d="M459.27 860.324C457.998 860.324 456.822 860.048 455.742 859.496C454.686 858.944 453.846 858.128 453.222 857.048C452.622 855.944 452.322 854.612 452.322 853.052V842.396H455.166V852.836C455.166 854.588 455.598 855.86 456.462 856.652C457.35 857.444 458.538 857.84 460.026 857.84C461.706 857.84 463.086 857.288 464.166 856.184C465.246 855.08 465.786 853.436 465.786 851.252V842.396H468.63V860H465.858V857.012H465.354C464.97 857.852 464.31 858.62 463.374 859.316C462.438 859.988 461.07 860.324 459.27 860.324Z" fill="#FF6D7F"/>
<path d="M474.58 860V834.8H477.424V860H474.58Z" fill="#FF6D7F"/>
<path d="M488.805 860.504C487.581 860.504 486.465 860.288 485.457 859.856C484.449 859.424 483.657 858.8 483.081 857.984C482.505 857.168 482.217 856.172 482.217 854.996C482.217 853.796 482.505 852.812 483.081 852.044C483.657 851.252 484.449 850.664 485.457 850.28C486.465 849.872 487.593 849.668 488.841 849.668H494.781V848.372C494.781 847.124 494.409 846.14 493.665 845.42C492.945 844.7 491.865 844.34 490.425 844.34C489.009 844.34 487.905 844.688 487.113 845.384C486.321 846.056 485.781 846.968 485.493 848.12L482.829 847.256C483.117 846.272 483.573 845.384 484.197 844.592C484.821 843.776 485.649 843.128 486.681 842.648C487.737 842.144 488.997 841.892 490.461 841.892C492.717 841.892 494.469 842.48 495.717 843.656C496.965 844.808 497.589 846.44 497.589 848.552V856.508C497.589 857.228 497.925 857.588 498.597 857.588H500.217V860H497.733C496.941 860 496.305 859.784 495.825 859.352C495.345 858.896 495.105 858.296 495.105 857.552V857.372H494.673C494.409 857.828 494.049 858.308 493.593 858.812C493.161 859.292 492.561 859.688 491.793 860C491.025 860.336 490.029 860.504 488.805 860.504ZM489.129 858.056C490.809 858.056 492.165 857.564 493.197 856.58C494.253 855.572 494.781 854.168 494.781 852.368V851.972H488.949C487.821 851.972 486.885 852.224 486.141 852.728C485.421 853.208 485.061 853.94 485.061 854.924C485.061 855.908 485.433 856.676 486.177 857.228C486.945 857.78 487.929 858.056 489.129 858.056Z" fill="#FF6D7F"/>
<path d="M504.112 860V842.396H506.884V844.556H507.388C507.7 843.788 508.18 843.224 508.828 842.864C509.476 842.504 510.328 842.324 511.384 842.324H513.472V844.916H511.204C509.932 844.916 508.9 845.276 508.108 845.996C507.34 846.692 506.956 847.784 506.956 849.272V860H504.112Z" fill="#FF6D7F"/>
<path d="M532.328 860.504C531.104 860.504 529.988 860.288 528.98 859.856C527.972 859.424 527.18 858.8 526.604 857.984C526.028 857.168 525.74 856.172 525.74 854.996C525.74 853.796 526.028 852.812 526.604 852.044C527.18 851.252 527.972 850.664 528.98 850.28C529.988 849.872 531.116 849.668 532.364 849.668H538.304V848.372C538.304 847.124 537.932 846.14 537.188 845.42C536.468 844.7 535.388 844.34 533.948 844.34C532.532 844.34 531.428 844.688 530.636 845.384C529.844 846.056 529.304 846.968 529.016 848.12L526.352 847.256C526.64 846.272 527.096 845.384 527.72 844.592C528.344 843.776 529.172 843.128 530.204 842.648C531.26 842.144 532.52 841.892 533.984 841.892C536.24 841.892 537.992 842.48 539.24 843.656C540.488 844.808 541.112 846.44 541.112 848.552V856.508C541.112 857.228 541.448 857.588 542.12 857.588H543.74V860H541.256C540.464 860 539.828 859.784 539.348 859.352C538.868 858.896 538.628 858.296 538.628 857.552V857.372H538.196C537.932 857.828 537.572 858.308 537.116 858.812C536.684 859.292 536.084 859.688 535.316 860C534.548 860.336 533.552 860.504 532.328 860.504ZM532.652 858.056C534.332 858.056 535.688 857.564 536.72 856.58C537.776 855.572 538.304 854.168 538.304 852.368V851.972H532.472C531.344 851.972 530.408 852.224 529.664 852.728C528.944 853.208 528.584 853.94 528.584 854.924C528.584 855.908 528.956 856.676 529.7 857.228C530.468 857.78 531.452 858.056 532.652 858.056Z" fill="#FF6D7F"/>
<path d="M547.347 864.5V862.7H548.391C549.255 862.7 549.687 862.268 549.687 861.404V860.252H549.183C548.487 860.252 547.899 860.036 547.419 859.604C546.963 859.172 546.735 858.632 546.735 857.984C546.735 857.288 546.963 856.724 547.419 856.292C547.899 855.86 548.487 855.644 549.183 855.644C549.879 855.644 550.455 855.872 550.911 856.328C551.367 856.784 551.595 857.36 551.595 858.056V861.404C551.595 863.468 550.563 864.5 548.499 864.5H547.347Z" fill="#FF6D7F"/>
<path d="M563.857 851.288V850.784C563.857 848.936 564.229 847.352 564.973 846.032C565.717 844.712 566.725 843.692 567.997 842.972C569.269 842.252 570.661 841.892 572.173 841.892C574.021 841.892 575.437 842.252 576.421 842.972C577.429 843.668 578.173 844.448 578.653 845.312H579.157V842.396H581.857V864.104C581.857 865.064 581.593 865.82 581.065 866.372C580.537 866.924 579.769 867.2 578.761 867.2H566.809V864.68H578.005C578.725 864.68 579.085 864.32 579.085 863.6V856.904H578.581C578.293 857.432 577.885 857.948 577.357 858.452C576.829 858.956 576.145 859.376 575.305 859.712C574.465 860.024 573.421 860.18 572.173 860.18C570.661 860.18 569.269 859.82 567.997 859.1C566.725 858.38 565.717 857.36 564.973 856.04C564.229 854.696 563.857 853.112 563.857 851.288ZM572.929 857.66C574.753 857.66 576.229 857.084 577.357 855.932C578.509 854.78 579.085 853.196 579.085 851.18V850.892C579.085 848.852 578.509 847.268 577.357 846.14C576.229 844.988 574.753 844.412 572.929 844.412C571.129 844.412 569.641 844.988 568.465 846.14C567.313 847.268 566.737 848.852 566.737 850.892V851.18C566.737 853.196 567.313 854.78 568.465 855.932C569.641 857.084 571.129 857.66 572.929 857.66Z" fill="#FF6D7F"/>
<path d="M587.531 864.5V862.7H588.575C589.439 862.7 589.871 862.268 589.871 861.404V860.252H589.367C588.671 860.252 588.083 860.036 587.603 859.604C587.147 859.172 586.919 858.632 586.919 857.984C586.919 857.288 587.147 856.724 587.603 856.292C588.083 855.86 588.671 855.644 589.367 855.644C590.063 855.644 590.639 855.872 591.095 856.328C591.551 856.784 591.779 857.36 591.779 858.056V861.404C591.779 863.468 590.747 864.5 588.683 864.5H587.531Z" fill="#FF6D7F"/>
<path d="M613.041 860.504C611.265 860.504 609.693 860.132 608.325 859.388C606.981 858.644 605.925 857.6 605.157 856.256C604.413 854.888 604.041 853.28 604.041 851.432V850.964C604.041 849.14 604.413 847.544 605.157 846.176C605.925 844.808 606.981 843.752 608.325 843.008C609.693 842.264 611.265 841.892 613.041 841.892C614.817 841.892 616.377 842.264 617.721 843.008C619.089 843.752 620.145 844.808 620.889 846.176C621.657 847.544 622.041 849.14 622.041 850.964V851.432C622.041 853.28 621.657 854.888 620.889 856.256C620.145 857.6 619.089 858.644 617.721 859.388C616.377 860.132 614.817 860.504 613.041 860.504ZM613.041 857.948C614.913 857.948 616.401 857.36 617.505 856.184C618.633 854.984 619.197 853.376 619.197 851.36V851.036C619.197 849.02 618.633 847.424 617.505 846.248C616.401 845.048 614.913 844.448 613.041 844.448C611.193 844.448 609.705 845.048 608.577 846.248C607.449 847.424 606.885 849.02 606.885 851.036V851.36C606.885 853.376 607.449 854.984 608.577 856.184C609.705 857.36 611.193 857.948 613.041 857.948Z" fill="#FF6D7F"/>
<path d="M626.625 864.5V862.7H627.669C628.533 862.7 628.965 862.268 628.965 861.404V860.252H628.461C627.765 860.252 627.177 860.036 626.697 859.604C626.241 859.172 626.013 858.632 626.013 857.984C626.013 857.288 626.241 856.724 626.697 856.292C627.177 855.86 627.765 855.644 628.461 855.644C629.157 855.644 629.733 855.872 630.189 856.328C630.645 856.784 630.873 857.36 630.873 858.056V861.404C630.873 863.468 629.841 864.5 627.777 864.5H626.625Z" fill="#FF6D7F"/>
<path d="M652.062 860.504C650.286 860.504 648.726 860.132 647.382 859.388C646.038 858.62 644.994 857.552 644.25 856.184C643.506 854.816 643.134 853.232 643.134 851.432V851C643.134 849.176 643.506 847.58 644.25 846.212C644.994 844.844 646.026 843.788 647.346 843.044C648.666 842.276 650.178 841.892 651.882 841.892C653.538 841.892 655.002 842.252 656.274 842.972C657.546 843.668 658.542 844.676 659.262 845.996C659.982 847.316 660.342 848.864 660.342 850.64V851.936H645.978C646.05 853.832 646.662 855.32 647.814 856.4C648.966 857.456 650.406 857.984 652.134 857.984C653.646 857.984 654.81 857.636 655.626 856.94C656.442 856.244 657.066 855.416 657.498 854.456L659.946 855.644C659.586 856.388 659.082 857.132 658.434 857.876C657.81 858.62 656.982 859.244 655.95 859.748C654.942 860.252 653.646 860.504 652.062 860.504ZM646.014 849.596H657.462C657.366 847.964 656.802 846.692 655.77 845.78C654.762 844.868 653.466 844.412 651.882 844.412C650.274 844.412 648.954 844.868 647.922 845.78C646.89 846.692 646.254 847.964 646.014 849.596Z" fill="#FF6D7F"/>
<path d="M662.075 868.46V865.976C664.979 865.952 667.103 865.16 668.447 863.6C669.791 862.04 670.463 859.664 670.463 856.472V845.168C670.463 841.952 669.791 839.576 668.447 838.04C667.103 836.48 664.979 835.688 662.075 835.664V833.18C664.403 833.18 666.395 833.588 668.051 834.404C669.707 835.22 670.979 836.492 671.867 838.22C672.779 839.948 673.235 842.204 673.235 844.988V856.652C673.235 859.412 672.779 861.656 671.867 863.384C670.979 865.136 669.707 866.42 668.051 867.236C666.395 868.052 664.403 868.46 662.075 868.46Z" fill="#FF6D7F"/>
<path d="M1000.55 809.696C1001.58 809.696 1002.46 809.528 1003.18 809.192C1003.92 808.832 1004.52 808.364 1004.98 807.788C1005.46 807.188 1005.81 806.516 1006.02 805.772C1006.26 805.004 1006.38 804.2 1006.38 803.36V802.928H1009.41V803.36C1009.41 804.632 1009.22 805.832 1008.83 806.96C1008.45 808.064 1007.88 809.036 1007.14 809.876C1006.4 810.692 1005.47 811.34 1004.37 811.82C1003.26 812.276 1001.99 812.504 1000.55 812.504C997.768 812.504 995.596 811.628 994.036 809.876C992.476 808.124 991.696 805.568 991.696 802.208V796.592C991.696 793.328 992.476 790.796 994.036 788.996C995.596 787.196 997.768 786.296 1000.55 786.296C1001.99 786.296 1003.26 786.536 1004.37 787.016C1005.47 787.472 1006.4 788.12 1007.14 788.96C1007.88 789.776 1008.45 790.748 1008.83 791.876C1009.22 792.98 1009.41 794.168 1009.41 795.44V795.872H1006.38V795.44C1006.36 794.624 1006.23 793.832 1005.99 793.064C1005.77 792.296 1005.42 791.624 1004.94 791.048C1004.49 790.448 1003.9 789.98 1003.18 789.644C1002.46 789.284 1001.58 789.104 1000.55 789.104C998.608 789.104 997.144 789.812 996.16 791.228C995.2 792.644 994.72 794.504 994.72 796.808V801.992C994.72 804.464 995.2 806.372 996.16 807.716C997.144 809.036 998.608 809.696 1000.55 809.696Z" fill="#FF6D7F"/>
<path d="M1030.33 812H1027.31V803.576C1027.31 802.952 1027.17 802.472 1026.88 802.136C1026.59 801.8 1026.09 801.632 1025.37 801.632H1017.52V812H1014.49V786.8H1023.49C1024.79 786.8 1025.92 786.992 1026.88 787.376C1027.84 787.736 1028.63 788.228 1029.25 788.852C1029.9 789.476 1030.38 790.208 1030.69 791.048C1031.03 791.864 1031.2 792.728 1031.2 793.64V794.72C1031.2 795.656 1030.93 796.592 1030.41 797.528C1029.9 798.464 1029.11 799.184 1028.03 799.688V800.12C1028.75 800.24 1029.31 800.528 1029.72 800.984C1030.13 801.44 1030.33 802.088 1030.33 802.928V812ZM1017.52 798.824H1023.13C1024.84 798.824 1026.1 798.464 1026.91 797.744C1027.75 797 1028.17 795.92 1028.17 794.504V793.856C1028.17 792.584 1027.75 791.564 1026.91 790.796C1026.1 790.004 1024.84 789.608 1023.13 789.608H1017.52V798.824Z" fill="#FF6D7F"/>
<path d="M1035.64 796.592C1035.64 793.328 1036.42 790.796 1037.98 788.996C1039.54 787.196 1041.71 786.296 1044.49 786.296C1047.28 786.296 1049.45 787.196 1051.01 788.996C1052.57 790.796 1053.35 793.328 1053.35 796.592V802.208C1053.35 805.568 1052.57 808.124 1051.01 809.876C1049.45 811.628 1047.28 812.504 1044.49 812.504C1041.71 812.504 1039.54 811.628 1037.98 809.876C1036.42 808.124 1035.64 805.568 1035.64 802.208V796.592ZM1044.49 809.696C1046.44 809.696 1047.89 809.036 1048.85 807.716C1049.83 806.372 1050.33 804.464 1050.33 801.992V796.808C1050.33 794.504 1049.83 792.644 1048.85 791.228C1047.89 789.812 1046.44 789.104 1044.49 789.104C1042.55 789.104 1041.09 789.812 1040.1 791.228C1039.14 792.644 1038.66 794.504 1038.66 796.808V801.992C1038.66 804.464 1039.14 806.372 1040.1 807.716C1041.09 809.036 1042.55 809.696 1044.49 809.696Z" fill="#FF6D7F"/>
<path d="M1072.48 794.072C1072.48 793.256 1072.31 792.536 1071.97 791.912C1071.66 791.288 1071.23 790.772 1070.68 790.364C1070.12 789.956 1069.49 789.644 1068.77 789.428C1068.05 789.212 1067.29 789.104 1066.5 789.104C1065.8 789.104 1065.14 789.2 1064.52 789.392C1063.9 789.56 1063.33 789.812 1062.83 790.148C1062.35 790.484 1061.96 790.904 1061.68 791.408C1061.39 791.888 1061.24 792.452 1061.24 793.1V793.316C1061.24 794.012 1061.39 794.612 1061.68 795.116C1061.96 795.596 1062.38 796.016 1062.94 796.376C1063.51 796.712 1064.22 797 1065.06 797.24C1065.9 797.456 1066.88 797.648 1068.01 797.816C1070.65 798.224 1072.6 799.004 1073.84 800.156C1075.09 801.284 1075.72 802.808 1075.72 804.728V805.16C1075.72 806.24 1075.52 807.236 1075.14 808.148C1074.78 809.036 1074.23 809.804 1073.48 810.452C1072.76 811.1 1071.86 811.604 1070.78 811.964C1069.7 812.324 1068.46 812.504 1067.04 812.504C1065.43 812.504 1064 812.276 1062.76 811.82C1061.53 811.34 1060.5 810.692 1059.66 809.876C1058.84 809.036 1058.22 808.064 1057.79 806.96C1057.36 805.832 1057.14 804.608 1057.14 803.288V802.208H1060.16V803.072C1060.16 805.28 1060.76 806.936 1061.96 808.04C1063.19 809.144 1064.88 809.696 1067.04 809.696C1068.91 809.696 1070.32 809.288 1071.25 808.472C1072.21 807.632 1072.69 806.528 1072.69 805.16V804.944C1072.69 803.624 1072.2 802.616 1071.22 801.92C1070.26 801.224 1068.68 800.72 1066.5 800.408C1065.23 800.24 1064.08 799.988 1063.04 799.652C1062.04 799.292 1061.17 798.836 1060.45 798.284C1059.73 797.708 1059.18 797.024 1058.8 796.232C1058.41 795.44 1058.22 794.504 1058.22 793.424V792.992C1058.22 792.008 1058.42 791.108 1058.83 790.292C1059.24 789.476 1059.8 788.768 1060.52 788.168C1061.27 787.568 1062.14 787.112 1063.15 786.8C1064.18 786.464 1065.31 786.296 1066.54 786.296C1067.95 786.296 1069.21 786.5 1070.32 786.908C1071.44 787.316 1072.39 787.868 1073.16 788.564C1073.93 789.236 1074.5 790.04 1074.89 790.976C1075.3 791.888 1075.5 792.848 1075.5 793.856V795.368H1072.48V794.072Z" fill="#FF6D7F"/>
<path d="M1094.52 794.072C1094.52 793.256 1094.35 792.536 1094.02 791.912C1093.7 791.288 1093.27 790.772 1092.72 790.364C1092.17 789.956 1091.53 789.644 1090.81 789.428C1090.09 789.212 1089.34 789.104 1088.54 789.104C1087.85 789.104 1087.19 789.2 1086.56 789.392C1085.94 789.56 1085.38 789.812 1084.87 790.148C1084.39 790.484 1084.01 790.904 1083.72 791.408C1083.43 791.888 1083.29 792.452 1083.29 793.1V793.316C1083.29 794.012 1083.43 794.612 1083.72 795.116C1084.01 795.596 1084.43 796.016 1084.98 796.376C1085.56 796.712 1086.26 797 1087.1 797.24C1087.94 797.456 1088.93 797.648 1090.06 797.816C1092.7 798.224 1094.64 799.004 1095.89 800.156C1097.14 801.284 1097.76 802.808 1097.76 804.728V805.16C1097.76 806.24 1097.57 807.236 1097.18 808.148C1096.82 809.036 1096.27 809.804 1095.53 810.452C1094.81 811.1 1093.91 811.604 1092.83 811.964C1091.75 812.324 1090.5 812.504 1089.08 812.504C1087.48 812.504 1086.05 812.276 1084.8 811.82C1083.58 811.34 1082.54 810.692 1081.7 809.876C1080.89 809.036 1080.26 808.064 1079.83 806.96C1079.4 805.832 1079.18 804.608 1079.18 803.288V802.208H1082.21V803.072C1082.21 805.28 1082.81 806.936 1084.01 808.04C1085.23 809.144 1086.92 809.696 1089.08 809.696C1090.96 809.696 1092.36 809.288 1093.3 808.472C1094.26 807.632 1094.74 806.528 1094.74 805.16V804.944C1094.74 803.624 1094.24 802.616 1093.26 801.92C1092.3 801.224 1090.73 800.72 1088.54 800.408C1087.27 800.24 1086.12 799.988 1085.09 799.652C1084.08 799.292 1083.22 798.836 1082.5 798.284C1081.78 797.708 1081.22 797.024 1080.84 796.232C1080.46 795.44 1080.26 794.504 1080.26 793.424V792.992C1080.26 792.008 1080.47 791.108 1080.88 790.292C1081.28 789.476 1081.85 788.768 1082.57 788.168C1083.31 787.568 1084.19 787.112 1085.2 786.8C1086.23 786.464 1087.36 786.296 1088.58 786.296C1090 786.296 1091.26 786.5 1092.36 786.908C1093.49 787.316 1094.44 787.868 1095.2 788.564C1095.97 789.236 1096.55 790.04 1096.93 790.976C1097.34 791.888 1097.54 792.848 1097.54 793.856V795.368H1094.52V794.072Z" fill="#FF6D7F"/>
<path d="M995.326 842.072C995.326 841.256 995.158 840.536 994.822 839.912C994.51 839.288 994.078 838.772 993.526 838.364C992.974 837.956 992.338 837.644 991.618 837.428C990.898 837.212 990.142 837.104 989.35 837.104C988.654 837.104 987.994 837.2 987.37 837.392C986.746 837.56 986.182 837.812 985.678 838.148C985.198 838.484 984.814 838.904 984.526 839.408C984.238 839.888 984.094 840.452 984.094 841.1V841.316C984.094 842.012 984.238 842.612 984.526 843.116C984.814 843.596 985.234 844.016 985.786 844.376C986.362 844.712 987.07 845 987.91 845.24C988.75 845.456 989.734 845.648 990.862 845.816C993.502 846.224 995.446 847.004 996.694 848.156C997.942 849.284 998.566 850.808 998.566 852.728V853.16C998.566 854.24 998.374 855.236 997.99 856.148C997.63 857.036 997.078 857.804 996.334 858.452C995.614 859.1 994.714 859.604 993.634 859.964C992.554 860.324 991.306 860.504 989.89 860.504C988.282 860.504 986.854 860.276 985.606 859.82C984.382 859.34 983.35 858.692 982.51 857.876C981.694 857.036 981.07 856.064 980.638 854.96C980.206 853.832 979.99 852.608 979.99 851.288V850.208H983.014V851.072C983.014 853.28 983.614 854.936 984.814 856.04C986.038 857.144 987.73 857.696 989.89 857.696C991.762 857.696 993.166 857.288 994.102 856.472C995.062 855.632 995.542 854.528 995.542 853.16V852.944C995.542 851.624 995.05 850.616 994.066 849.92C993.106 849.224 991.534 848.72 989.35 848.408C988.078 848.24 986.926 847.988 985.894 847.652C984.886 847.292 984.022 846.836 983.302 846.284C982.582 845.708 982.03 845.024 981.646 844.232C981.262 843.44 981.07 842.504 981.07 841.424V840.992C981.07 840.008 981.274 839.108 981.682 838.292C982.09 837.476 982.654 836.768 983.374 836.168C984.118 835.568 984.994 835.112 986.002 834.8C987.034 834.464 988.162 834.296 989.386 834.296C990.802 834.296 992.062 834.5 993.166 834.908C994.294 835.316 995.242 835.868 996.01 836.564C996.778 837.236 997.354 838.04 997.738 838.976C998.146 839.888 998.35 840.848 998.35 841.856V843.368H995.326V842.072Z" fill="#FF6D7F"/>
<path d="M1003.04 834.8H1006.07V845.96H1016.79V834.8H1019.82V860H1016.79V848.768H1006.07V860H1003.04V834.8Z" fill="#FF6D7F"/>
<path d="M1038.87 853.736H1028.07L1026.24 860H1023L1030.63 834.8H1036.32L1043.95 860H1040.71L1038.87 853.736ZM1033.26 836.096L1028.9 850.928H1038.04L1033.69 836.096H1033.26Z" fill="#FF6D7F"/>
<path d="M1050.58 849.632V860H1047.56V834.8H1056.56C1057.86 834.8 1058.98 834.992 1059.94 835.376C1060.9 835.736 1061.7 836.228 1062.32 836.852C1062.97 837.476 1063.45 838.208 1063.76 839.048C1064.1 839.864 1064.26 840.728 1064.26 841.64V842.72C1064.26 843.632 1064.1 844.508 1063.76 845.348C1063.45 846.188 1062.97 846.932 1062.32 847.58C1061.67 848.204 1060.87 848.708 1059.91 849.092C1058.95 849.452 1057.83 849.632 1056.56 849.632H1050.58ZM1050.58 846.824H1056.2C1059.56 846.824 1061.24 845.384 1061.24 842.504V841.856C1061.24 840.584 1060.82 839.564 1059.98 838.796C1059.16 838.004 1057.9 837.608 1056.2 837.608H1050.58V846.824Z" fill="#FF6D7F"/>
<path d="M1069.93 834.8H1085.19V837.608H1072.95V845.96H1084.97V848.768H1072.95V857.192H1085.41V860H1069.93V834.8Z" fill="#FF6D7F"/>
<path d="M1091.21 834.8H1099.49C1102.61 834.8 1104.89 835.544 1106.33 837.032C1107.77 838.52 1108.49 840.896 1108.49 844.16V850.64C1108.49 853.904 1107.77 856.28 1106.33 857.768C1104.89 859.256 1102.61 860 1099.49 860H1091.21V857.156H1093.37V837.608H1091.21V834.8ZM1099.06 857.192C1100.17 857.192 1101.11 857.084 1101.91 856.868C1102.72 856.652 1103.39 856.292 1103.92 855.788C1104.45 855.26 1104.83 854.564 1105.07 853.7C1105.34 852.836 1105.47 851.744 1105.47 850.424V844.376C1105.47 843.056 1105.34 841.964 1105.07 841.1C1104.83 840.236 1104.45 839.552 1103.92 839.048C1103.39 838.52 1102.72 838.148 1101.91 837.932C1101.11 837.716 1100.17 837.608 1099.06 837.608H1096.4V857.192H1099.06Z" fill="#FF6D7F"/>
<path d="M268.715 550.373V522.741H334.469C348.693 522.741 359.652 519.127 367.347 511.899C375.042 504.671 378.889 494.877 378.889 482.519C378.889 470.86 375.042 461.184 367.347 453.489C359.885 445.794 349.043 441.947 334.819 441.947H268.715V413.267H335.868C351.258 413.267 364.665 416.298 376.091 422.36C387.516 428.19 396.26 436.234 402.323 446.494C408.619 456.753 411.766 468.529 411.766 481.82C411.766 495.577 408.619 507.585 402.323 517.845C396.26 528.104 387.516 536.149 376.091 541.978C364.665 547.574 351.258 550.373 335.868 550.373H268.715ZM246.68 656V413.267H279.557V656H246.68ZM386.584 656L298.444 547.225L329.573 536.382L428.205 656H386.584Z" fill="#3C4043"/>
<path d="M521.796 659.498C506.64 659.498 492.882 655.767 480.524 648.305C468.166 640.611 458.373 630.234 451.144 617.177C444.149 604.119 440.652 589.429 440.652 573.107C440.652 556.785 444.149 542.095 451.144 529.037C458.373 515.979 468.05 505.603 480.175 497.909C492.533 490.214 506.407 486.366 521.796 486.366C534.387 486.366 545.58 489.048 555.373 494.411C565.399 499.541 573.444 506.769 579.506 516.096C585.569 525.19 588.95 535.799 589.649 547.924V597.94C588.95 609.832 585.569 620.441 579.506 629.768C573.677 639.095 565.749 646.44 555.723 651.803C545.929 656.933 534.621 659.498 521.796 659.498ZM527.042 629.768C542.665 629.768 555.256 624.522 564.816 614.029C574.377 603.303 579.157 589.662 579.157 573.107C579.157 561.681 576.941 551.772 572.511 543.377C568.314 534.75 562.252 528.104 554.324 523.441C546.396 518.544 537.185 516.096 526.693 516.096C516.2 516.096 506.873 518.544 498.712 523.441C490.784 528.338 484.488 535.1 479.825 543.727C475.395 552.121 473.179 561.798 473.179 572.757C473.179 583.949 475.395 593.859 479.825 602.487C484.488 610.881 490.901 617.526 499.062 622.423C507.223 627.32 516.55 629.768 527.042 629.768ZM577.058 656V611.231L583.004 570.659L577.058 530.436V489.864H608.886V656H577.058Z" fill="#3C4043"/>
<path d="M723.618 729.1C706.597 729.1 691.441 725.952 678.15 719.656C665.092 713.361 654.599 704.5 646.671 693.075L666.957 672.439C673.719 681.066 681.764 687.595 691.091 692.025C700.418 696.689 711.493 699.021 724.318 699.021C741.34 699.021 754.747 694.474 764.54 685.38C774.567 676.519 779.58 664.511 779.58 649.355V608.083L785.176 570.659L779.58 533.584V489.864H811.058V649.355C811.058 665.21 807.328 679.084 799.866 690.976C792.638 702.868 782.378 712.195 769.087 718.957C756.03 725.719 740.873 729.1 723.618 729.1ZM723.618 653.202C708.462 653.202 694.822 649.588 682.697 642.359C670.805 635.131 661.361 625.221 654.366 612.63C647.371 599.805 643.873 585.465 643.873 569.609C643.873 553.754 647.371 539.647 654.366 527.288C661.361 514.697 670.805 504.787 682.697 497.559C694.822 490.097 708.462 486.366 723.618 486.366C736.676 486.366 748.218 488.931 758.245 494.061C768.271 499.191 776.199 506.419 782.028 515.746C788.091 524.84 791.355 535.566 791.822 547.924V591.994C791.122 604.119 787.741 614.845 781.679 624.172C775.849 633.266 767.921 640.377 757.895 645.507C747.868 650.637 736.443 653.202 723.618 653.202ZM729.914 623.472C740.174 623.472 749.151 621.257 756.846 616.827C764.774 612.397 770.836 606.218 775.033 598.29C779.23 590.129 781.329 580.685 781.329 569.959C781.329 559.233 779.114 549.906 774.683 541.978C770.486 533.817 764.54 527.522 756.846 523.091C749.151 518.428 740.057 516.096 729.564 516.096C719.072 516.096 709.861 518.428 701.933 523.091C694.005 527.522 687.71 533.817 683.046 541.978C678.616 549.906 676.401 559.117 676.401 569.609C676.401 580.102 678.616 589.429 683.046 597.59C687.71 605.751 694.005 612.163 701.933 616.827C710.094 621.257 719.421 623.472 729.914 623.472Z" fill="#3C4043"/>
<path d="M910.076 659.498C900.749 659.498 891.889 658.332 883.494 656C875.333 653.435 867.755 649.938 860.76 645.507C853.765 640.844 847.702 635.364 842.572 629.069L862.858 608.782C868.921 616.244 875.916 621.84 883.844 625.571C891.772 629.069 900.633 630.817 910.426 630.817C920.219 630.817 927.797 629.185 933.16 625.921C938.523 622.423 941.205 617.643 941.205 611.581C941.205 605.518 938.99 600.855 934.559 597.59C930.362 594.093 924.883 591.294 918.121 589.196C911.359 586.864 904.13 584.649 896.435 582.55C888.974 580.219 881.862 577.304 875.1 573.806C868.338 570.309 862.742 565.529 858.312 559.466C854.114 553.404 852.016 545.359 852.016 535.333C852.016 525.306 854.464 516.679 859.361 509.451C864.258 501.989 871.02 496.276 879.647 492.312C888.508 488.348 899.117 486.366 911.475 486.366C924.533 486.366 936.075 488.698 946.101 493.362C956.361 497.792 964.755 504.554 971.284 513.648L950.998 533.934C946.335 527.871 940.505 523.208 933.51 519.943C926.748 516.679 919.053 515.047 910.426 515.047C901.332 515.047 894.337 516.679 889.44 519.943C884.777 522.975 882.445 527.288 882.445 532.885C882.445 538.481 884.544 542.794 888.741 545.826C892.938 548.857 898.417 551.422 905.179 553.52C912.175 555.619 919.403 557.834 926.865 560.166C934.326 562.264 941.438 565.179 948.2 568.91C954.962 572.641 960.442 577.654 964.639 583.949C969.069 590.245 971.284 598.523 971.284 608.782C971.284 624.405 965.688 636.763 954.496 645.857C943.536 654.951 928.73 659.498 910.076 659.498Z" fill="#3C4043"/>
<path d="M1032.06 656V420.262H1063.54V656H1032.06ZM991.136 518.544V489.864H1104.46V518.544H991.136Z" fill="#3C4043"/>
<path d="M1206.07 659.498C1189.75 659.498 1175.06 655.65 1162 647.956C1148.94 640.261 1138.57 629.885 1130.87 616.827C1123.18 603.536 1119.33 588.73 1119.33 572.407C1119.33 556.318 1123.18 541.862 1130.87 529.037C1138.57 515.979 1148.94 505.603 1162 497.909C1175.06 490.214 1189.75 486.366 1206.07 486.366C1222.16 486.366 1236.73 490.214 1249.79 497.909C1263.08 505.37 1273.57 515.63 1281.27 528.687C1288.96 541.745 1292.81 556.318 1292.81 572.407C1292.81 588.73 1288.96 603.536 1281.27 616.827C1273.57 629.885 1263.08 640.261 1249.79 647.956C1236.73 655.65 1222.16 659.498 1206.07 659.498ZM1206.07 629.069C1216.56 629.069 1225.89 626.62 1234.05 621.724C1242.21 616.827 1248.62 610.182 1253.29 601.787C1257.95 593.16 1260.28 583.367 1260.28 572.407C1260.28 561.681 1257.83 552.121 1252.94 543.727C1248.27 535.333 1241.86 528.804 1233.7 524.141C1225.77 519.244 1216.56 516.796 1206.07 516.796C1195.58 516.796 1186.25 519.244 1178.09 524.141C1169.93 528.804 1163.51 535.333 1158.85 543.727C1154.19 552.121 1151.86 561.681 1151.86 572.407C1151.86 583.367 1154.19 593.16 1158.85 601.787C1163.51 610.182 1169.93 616.827 1178.09 621.724C1186.25 626.62 1195.58 629.069 1206.07 629.069Z" fill="#3C4043"/>
<path d="M1445.8 656V559.117C1445.8 546.525 1441.83 536.149 1433.9 527.988C1425.98 519.827 1415.72 515.746 1403.13 515.746C1394.73 515.746 1387.27 517.612 1380.74 521.342C1374.21 525.073 1369.08 530.203 1365.35 536.732C1361.62 543.261 1359.76 550.722 1359.76 559.117L1346.81 551.772C1346.81 539.18 1349.61 527.988 1355.21 518.195C1360.8 508.401 1368.62 500.707 1378.64 495.11C1388.67 489.281 1399.98 486.366 1412.57 486.366C1425.16 486.366 1436.24 489.514 1445.8 495.81C1455.59 502.106 1463.28 510.383 1468.88 520.643C1474.48 530.669 1477.27 541.395 1477.27 552.821V656H1445.8ZM1328.28 656V489.864H1359.76V656H1328.28Z" fill="#3C4043"/>
<path d="M1596.84 659.498C1580.29 659.498 1565.36 655.767 1552.07 648.305C1538.78 640.611 1528.29 630.234 1520.59 617.177C1512.9 604.119 1509.05 589.312 1509.05 572.757C1509.05 556.435 1512.78 541.745 1520.24 528.687C1527.94 515.63 1538.2 505.37 1551.02 497.909C1564.08 490.214 1578.65 486.366 1594.74 486.366C1610.13 486.366 1623.66 489.864 1635.31 496.859C1647.21 503.854 1656.42 513.531 1662.95 525.889C1669.71 538.248 1673.09 552.238 1673.09 567.861C1673.09 570.192 1672.97 572.757 1672.74 575.555C1672.51 578.12 1672.04 581.151 1671.34 584.649H1531.09V558.417H1654.55L1643.01 568.56C1643.01 557.368 1641.03 547.924 1637.06 540.229C1633.1 532.302 1627.5 526.239 1620.27 522.042C1613.05 517.612 1604.3 515.397 1594.04 515.397C1583.32 515.397 1573.87 517.728 1565.71 522.392C1557.55 527.055 1551.26 533.584 1546.83 541.978C1542.39 550.373 1540.18 560.282 1540.18 571.708C1540.18 583.367 1542.51 593.626 1547.17 602.487C1551.84 611.114 1558.48 617.876 1567.11 622.773C1575.74 627.436 1585.65 629.768 1596.84 629.768C1606.17 629.768 1614.68 628.136 1622.37 624.871C1630.3 621.607 1637.06 616.71 1642.66 610.181L1662.95 630.817C1655.02 640.144 1645.22 647.256 1633.57 652.153C1622.14 657.049 1609.9 659.498 1596.84 659.498Z" fill="#3C4043"/>
<path fill-rule="evenodd" clip-rule="evenodd" d="M616.844 578.627C616.948 576.765 617 574.889 617 573C617 571.111 616.948 569.235 616.844 567.373L612.851 567.595C612.95 569.383 613 571.185 613 573C613 574.815 612.95 576.617 612.851 578.405L616.844 578.627ZM614.065 597.144L610.183 596.18C609.309 599.702 608.24 603.143 606.989 606.49L610.736 607.89C612.04 604.401 613.154 600.814 614.065 597.144ZM602.535 624.724L599.124 622.636C597.239 625.715 595.184 628.673 592.973 631.493L596.121 633.961C598.427 631.019 600.57 627.935 602.535 624.724ZM583.193 647.507L580.583 644.476C577.859 646.822 575 649.004 572.02 651.008L574.252 654.327C577.365 652.234 580.35 649.955 583.193 647.507ZM557.744 663.159L556.224 659.459C552.922 660.815 549.524 661.975 546.044 662.924L547.097 666.783C550.738 665.79 554.291 664.577 557.744 663.159ZM528.626 669.829L528.383 665.837C526.603 665.945 524.808 666 523 666C521.192 666 519.397 665.945 517.617 665.837L517.374 669.829C519.235 669.942 521.111 670 523 670C524.889 670 526.765 669.942 528.626 669.829ZM498.902 666.783L499.956 662.924C496.476 661.975 493.078 660.815 489.776 659.459L488.256 663.159C491.709 664.577 495.262 665.79 498.902 666.783ZM471.748 654.327L473.98 651.008C471 649.004 468.141 646.822 465.417 644.476L462.807 647.507C465.65 649.955 468.635 652.234 471.748 654.327ZM449.879 633.961L453.027 631.493C450.816 628.673 448.761 625.715 446.876 622.636L443.465 624.724C445.43 627.935 447.573 631.019 449.879 633.961ZM435.264 607.89L439.011 606.49C437.76 603.143 436.691 599.702 435.817 596.18L431.935 597.144C432.846 600.814 433.96 604.401 435.264 607.89ZM429.156 578.627C429.052 576.765 429 574.889 429 573C429 571.111 429.052 569.235 429.156 567.373L433.149 567.595C433.05 569.383 433 571.185 433 573C433 574.815 433.05 576.617 433.149 578.405L429.156 578.627ZM431.935 548.856L435.817 549.82C436.691 546.298 437.76 542.857 439.011 539.51L435.264 538.11C433.96 541.599 432.846 545.186 431.935 548.856ZM443.465 521.276L446.876 523.364C448.761 520.285 450.816 517.327 453.027 514.507L449.879 512.039C447.573 514.981 445.43 518.065 443.465 521.276ZM462.807 498.493L465.417 501.524C468.141 499.178 471 496.996 473.98 494.992L471.748 491.673C468.635 493.766 465.65 496.045 462.807 498.493ZM488.256 482.841L489.776 486.541C493.078 485.185 496.476 484.025 499.956 483.076L498.903 479.217C495.262 480.21 491.709 481.423 488.256 482.841ZM517.374 476.171L517.617 480.163C519.397 480.055 521.192 480 523 480C524.808 480 526.603 480.055 528.383 480.163L528.626 476.171C526.765 476.057 524.889 476 523 476C521.111 476 519.235 476.057 517.374 476.171ZM547.098 479.217L546.044 483.076C549.524 484.025 552.922 485.185 556.224 486.541L557.744 482.841C554.291 481.423 550.738 480.21 547.098 479.217ZM574.252 491.673L572.02 494.992C575 496.996 577.859 499.178 580.583 501.524L583.193 498.493C580.35 496.045 577.365 493.766 574.252 491.673ZM596.121 512.039L592.973 514.507C595.184 517.327 597.239 520.285 599.124 523.364L602.535 521.276C600.57 518.065 598.427 514.981 596.121 512.039ZM610.736 538.11L606.989 539.51C608.24 542.857 609.309 546.298 610.183 549.82L614.065 548.856C613.154 545.186 612.04 541.599 610.736 538.11Z" fill="#FF6D7F"/>
<path fill-rule="evenodd" clip-rule="evenodd" d="M817.842 574.994L813.849 574.764C813.949 573.022 814 571.267 814 569.5C814 567.733 813.949 565.978 813.849 564.236L817.842 564.006C817.947 565.824 818 567.656 818 569.5C818 571.344 817.947 573.176 817.842 574.994ZM815.024 545.944L811.151 546.944C810.268 543.525 809.19 540.186 807.928 536.939L811.656 535.49C812.975 538.883 814.101 542.372 815.024 545.944ZM803.397 519.181L800.022 521.328C798.136 518.363 796.081 515.518 793.87 512.805L796.97 510.278C799.28 513.112 801.427 516.084 803.397 519.181ZM784.094 497.299L781.542 500.379C778.846 498.146 776.017 496.069 773.069 494.163L775.241 490.804C778.321 492.796 781.277 494.966 784.094 497.299ZM758.986 482.44L757.516 486.16C754.277 484.881 750.945 483.787 747.533 482.892L748.548 479.023C752.115 479.959 755.599 481.103 758.986 482.44ZM730.494 476.16L730.26 480.154C728.52 480.052 726.766 480 725 480C723.234 480 721.48 480.052 719.74 480.154L719.506 476.16C721.324 476.054 723.156 476 725 476C726.844 476 728.676 476.054 730.494 476.16ZM701.452 479.023L702.467 482.892C699.055 483.787 695.723 484.881 692.484 486.16L691.014 482.44C694.401 481.103 697.885 479.959 701.452 479.023ZM674.759 490.804L676.931 494.163C673.983 496.069 671.154 498.146 668.458 500.379L665.906 497.299C668.723 494.966 671.679 492.796 674.759 490.804ZM653.03 510.278L656.13 512.805C653.919 515.518 651.864 518.364 649.978 521.328L646.603 519.181C648.573 516.084 650.72 513.112 653.03 510.278ZM638.344 535.49L642.072 536.939C640.81 540.186 639.732 543.525 638.849 546.944L634.976 545.944C635.899 542.372 637.025 538.883 638.344 535.49ZM632.158 564.006C632.053 565.824 632 567.656 632 569.5C632 571.344 632.053 573.176 632.158 574.994L636.151 574.764C636.051 573.022 636 571.267 636 569.5C636 567.733 636.051 565.978 636.151 564.236L632.158 564.006ZM634.976 593.056L638.849 592.056C639.732 595.475 640.81 598.814 642.072 602.061L638.344 603.51C637.025 600.117 635.899 596.628 634.976 593.056ZM646.603 619.819L649.978 617.672C651.864 620.637 653.919 623.482 656.13 626.195L653.03 628.722C650.72 625.888 648.573 622.916 646.603 619.819ZM665.906 641.701L668.458 638.621C671.154 640.854 673.983 642.931 676.931 644.837L674.759 648.196C671.679 646.204 668.723 644.034 665.906 641.701ZM691.014 656.56L692.484 652.84C695.723 654.119 699.055 655.212 702.467 656.108L701.452 659.977C697.885 659.041 694.401 657.897 691.014 656.56ZM719.506 662.84L719.74 658.846C721.48 658.948 723.234 659 725 659C726.766 659 728.52 658.948 730.26 658.846L730.494 662.84C728.676 662.946 726.844 663 725 663C723.156 663 721.324 662.946 719.506 662.84ZM748.548 659.977L747.533 656.108C750.945 655.212 754.277 654.119 757.516 652.84L758.986 656.56C755.599 657.897 752.115 659.041 748.548 659.977ZM775.241 648.196L773.069 644.837C776.017 642.931 778.846 640.854 781.542 638.621L784.094 641.701C781.277 644.034 778.321 646.204 775.241 648.196ZM796.97 628.722L793.87 626.195C796.081 623.482 798.136 620.636 800.022 617.672L803.397 619.819C801.427 622.916 799.28 625.888 796.97 628.722ZM811.656 603.51L807.928 602.061C809.19 598.814 810.268 595.475 811.151 592.056L815.024 593.056C814.101 596.628 812.975 600.117 811.656 603.51Z" fill="#FF6D7F"/>
<path fill-rule="evenodd" clip-rule="evenodd" d="M1303.83 578.744L1299.84 578.508C1299.95 576.686 1300 574.85 1300 573C1300 571.15 1299.95 569.314 1299.84 567.492L1303.83 567.256C1303.94 569.156 1304 571.072 1304 573C1304 574.928 1303.94 576.844 1303.83 578.744ZM1300.82 548.382L1296.95 549.404C1296.01 545.833 1294.85 542.346 1293.5 538.956L1297.22 537.477C1298.63 541.015 1299.83 544.655 1300.82 548.382ZM1288.42 520.507L1285.07 522.691C1283.07 519.61 1280.88 516.654 1278.53 513.837L1281.6 511.274C1284.05 514.212 1286.33 517.295 1288.42 520.507ZM1267.98 497.861L1265.47 500.97C1262.62 498.665 1259.63 496.522 1256.51 494.555L1258.65 491.173C1261.9 493.223 1265.01 495.458 1267.98 497.861ZM1241.57 482.588L1240.13 486.32C1236.73 485.006 1233.23 483.883 1229.64 482.965L1230.63 479.09C1234.37 480.048 1238.02 481.218 1241.57 482.588ZM1211.74 476.164L1211.52 480.157C1209.69 480.053 1207.85 480 1206 480C1204.15 480 1202.31 480.053 1200.48 480.157L1200.26 476.164C1202.16 476.055 1204.07 476 1206 476C1207.93 476 1209.84 476.055 1211.74 476.164ZM1181.37 479.09L1182.36 482.965C1178.77 483.883 1175.27 485.006 1171.87 486.32L1170.43 482.588C1173.98 481.218 1177.63 480.048 1181.37 479.09ZM1153.35 491.173L1155.49 494.555C1152.37 496.522 1149.38 498.665 1146.53 500.97L1144.02 497.861C1146.99 495.458 1150.1 493.223 1153.35 491.173ZM1130.4 511.274L1133.47 513.837C1131.12 516.654 1128.93 519.61 1126.93 522.691L1123.58 520.507C1125.67 517.295 1127.95 514.212 1130.4 511.274ZM1114.78 537.477L1118.5 538.956C1117.15 542.346 1115.99 545.833 1115.05 549.404L1111.18 548.382C1112.17 544.655 1113.37 541.015 1114.78 537.477ZM1108.17 567.256C1108.06 569.156 1108 571.072 1108 573C1108 574.928 1108.06 576.844 1108.17 578.744L1112.16 578.508C1112.05 576.686 1112 574.85 1112 573C1112 571.15 1112.05 569.314 1112.16 567.492L1108.17 567.256ZM1111.18 597.618L1115.05 596.596C1115.99 600.167 1117.15 603.654 1118.5 607.044L1114.78 608.523C1113.37 604.985 1112.17 601.345 1111.18 597.618ZM1123.58 625.493L1126.93 623.309C1128.93 626.39 1131.12 629.346 1133.47 632.163L1130.4 634.726C1127.95 631.788 1125.67 628.705 1123.58 625.493ZM1144.02 648.139L1146.53 645.03C1149.38 647.335 1152.37 649.478 1155.49 651.445L1153.35 654.827C1150.1 652.777 1146.99 650.542 1144.02 648.139ZM1170.43 663.412L1171.87 659.68C1175.27 660.994 1178.77 662.117 1182.36 663.035L1181.37 666.91C1177.63 665.952 1173.98 664.782 1170.43 663.412ZM1200.26 669.836L1200.48 665.843C1202.31 665.947 1204.15 666 1206 666C1207.85 666 1209.69 665.947 1211.52 665.843L1211.74 669.836C1209.84 669.945 1207.93 670 1206 670C1204.07 670 1202.16 669.945 1200.26 669.836ZM1230.63 666.91L1229.64 663.035C1233.23 662.117 1236.73 660.994 1240.13 659.68L1241.57 663.412C1238.02 664.782 1234.37 665.952 1230.63 666.91ZM1258.65 654.827L1256.51 651.445C1259.63 649.478 1262.62 647.335 1265.47 645.03L1267.98 648.139C1265.01 650.542 1261.9 652.777 1258.65 654.827ZM1281.6 634.726L1278.53 632.163C1280.88 629.346 1283.07 626.39 1285.07 623.309L1288.42 625.493C1286.33 628.705 1284.05 631.788 1281.6 634.726ZM1297.22 608.523L1293.5 607.044C1294.85 603.654 1296.01 600.167 1296.95 596.596L1300.82 597.618C1299.83 601.345 1298.63 604.985 1297.22 608.523Z" fill="#FF6D7F"/>
<path fill-rule="evenodd" clip-rule="evenodd" d="M1690.84 578.744L1686.84 578.516C1686.95 576.691 1687 574.852 1687 573C1687 571.148 1686.95 569.309 1686.84 567.484L1690.84 567.256C1690.94 569.157 1691 571.072 1691 573C1691 574.928 1690.94 576.843 1690.84 578.744ZM1687.91 548.367L1684.04 549.36C1683.12 545.775 1681.99 542.273 1680.68 538.868L1684.41 537.429C1685.78 540.979 1686.95 544.63 1687.91 548.367ZM1675.83 520.35L1672.45 522.486C1670.48 519.373 1668.34 516.384 1666.03 513.535L1669.14 511.019C1671.54 513.989 1673.78 517.105 1675.83 520.35ZM1655.73 497.399L1653.16 500.47C1650.35 498.12 1647.39 495.934 1644.31 493.927L1646.49 490.576C1649.71 492.669 1652.79 494.948 1655.73 497.399ZM1629.52 481.78L1628.04 485.497C1624.65 484.148 1621.17 482.995 1617.6 482.051L1618.62 478.184C1622.35 479.169 1625.98 480.372 1629.52 481.78ZM1599.74 475.169L1599.51 479.162C1597.69 479.055 1595.85 479 1594 479C1592.15 479 1590.31 479.055 1588.49 479.162L1588.26 475.169C1590.16 475.057 1592.07 475 1594 475C1595.93 475 1597.84 475.057 1599.74 475.169ZM1569.38 478.184L1570.4 482.051C1566.83 482.995 1563.35 484.148 1559.96 485.497L1558.48 481.78C1562.02 480.372 1565.65 479.169 1569.38 478.184ZM1541.51 490.576L1543.69 493.927C1540.61 495.934 1537.65 498.12 1534.84 500.47L1532.27 497.399C1535.21 494.948 1538.29 492.669 1541.51 490.576ZM1518.86 511.019L1521.97 513.535C1519.66 516.384 1517.52 519.373 1515.55 522.486L1512.17 520.35C1514.22 517.105 1516.46 513.989 1518.86 511.019ZM1503.59 537.429L1507.32 538.868C1506.01 542.273 1504.88 545.775 1503.96 549.36L1500.09 548.367C1501.05 544.63 1502.22 540.979 1503.59 537.429ZM1497.16 567.256C1497.06 569.157 1497 571.072 1497 573C1497 574.928 1497.06 576.843 1497.16 578.744L1501.16 578.516C1501.05 576.691 1501 574.852 1501 573C1501 571.148 1501.05 569.309 1501.16 567.484L1497.16 567.256ZM1500.09 597.633L1503.96 596.64C1504.88 600.225 1506.01 603.727 1507.32 607.132L1503.59 608.571C1502.22 605.021 1501.05 601.37 1500.09 597.633ZM1512.17 625.65L1515.55 623.514C1517.52 626.627 1519.66 629.616 1521.97 632.465L1518.86 634.981C1516.46 632.011 1514.22 628.895 1512.17 625.65ZM1532.27 648.601L1534.84 645.53C1537.65 647.88 1540.61 650.066 1543.69 652.073L1541.51 655.424C1538.29 653.331 1535.21 651.052 1532.27 648.601ZM1558.48 664.22L1559.96 660.503C1563.35 661.852 1566.83 663.005 1570.4 663.949L1569.38 667.816C1565.65 666.831 1562.02 665.628 1558.48 664.22ZM1588.26 670.831L1588.49 666.838C1590.31 666.945 1592.15 667 1594 667C1595.85 667 1597.69 666.945 1599.51 666.838L1599.74 670.831C1597.84 670.943 1595.93 671 1594 671C1592.07 671 1590.16 670.943 1588.26 670.831ZM1618.62 667.816L1617.6 663.949C1621.17 663.005 1624.65 661.852 1628.04 660.503L1629.52 664.22C1625.98 665.628 1622.35 666.831 1618.62 667.816ZM1646.49 655.424C1649.71 653.331 1652.79 651.052 1655.73 648.601L1653.16 645.53C1650.35 647.88 1647.39 650.066 1644.31 652.073L1646.49 655.424ZM1669.14 634.981L1666.03 632.465C1668.34 629.616 1670.48 626.627 1672.45 623.514L1675.83 625.65C1673.78 628.895 1671.54 632.011 1669.14 634.981ZM1684.41 608.571L1680.68 607.132C1681.99 603.727 1683.12 600.225 1684.04 596.64L1687.91 597.633C1686.95 601.37 1685.78 605.021 1684.41 608.571Z" fill="#FF6D7F"/>
<path fill-rule="evenodd" clip-rule="evenodd" d="M1046 618.48C1041.07 617.543 1037.33 613.208 1037.33 608C1037.33 602.109 1042.11 597.333 1048 597.333C1053.89 597.333 1058.67 602.109 1058.67 608C1058.67 613.208 1054.94 617.543 1050 618.48V754H1046V618.48Z" fill="#FF6D7F"/>
<path fill-rule="evenodd" clip-rule="evenodd" d="M521.001 582.98C516.066 582.043 512.334 577.708 512.334 572.5C512.334 566.609 517.11 561.833 523.001 561.833C528.892 561.833 533.667 566.609 533.667 572.5C533.667 577.708 529.936 582.043 525.001 582.98V754H521.001V582.98Z" fill="#FF6D7F"/>
<circle cx="73" cy="76" r="24" fill="#D2E3FC"/>
<path d="M70.9825 83.464V65.176H70.3345L67.9585 73.816H63.4225V73.384L66.4465 62.8H75.7345V83.464H81.9985V88H63.8545V83.464H70.9825Z" fill="#1A73E8"/>
<path d="M117.604 75.904H128.836V88H126.028V84.976H125.596C125.188 86.032 124.468 86.884 123.436 87.532C122.404 88.18 121.204 88.504 119.836 88.504C117.124 88.504 114.988 87.628 113.428 85.876C111.892 84.124 111.124 81.568 111.124 78.208V72.592C111.124 69.328 111.904 66.796 113.464 64.996C115.024 63.196 117.196 62.296 119.98 62.296C121.42 62.296 122.692 62.536 123.796 63.016C124.9 63.472 125.824 64.12 126.568 64.96C127.312 65.776 127.876 66.748 128.26 67.876C128.644 68.98 128.836 70.168 128.836 71.44V71.872H125.812V71.44C125.812 70.624 125.692 69.832 125.452 69.064C125.236 68.296 124.888 67.624 124.408 67.048C123.952 66.448 123.352 65.98 122.608 65.644C121.888 65.284 121.012 65.104 119.98 65.104C118.036 65.104 116.572 65.812 115.588 67.228C114.628 68.644 114.148 70.504 114.148 72.808V77.992C114.148 80.464 114.628 82.372 115.588 83.716C116.572 85.036 118.06 85.696 120.052 85.696C121.852 85.696 123.256 85.12 124.264 83.968C125.296 82.816 125.812 81.208 125.812 79.144V78.712H117.604V75.904ZM134.427 62.8H149.691V65.608H137.451V73.96H149.475V76.768H137.451V85.192H149.907V88H134.427V62.8ZM155.246 72.592C155.246 69.328 156.026 66.796 157.586 64.996C159.146 63.196 161.318 62.296 164.102 62.296C166.886 62.296 169.058 63.196 170.618 64.996C172.178 66.796 172.958 69.328 172.958 72.592V78.208C172.958 81.568 172.178 84.124 170.618 85.876C169.058 87.628 166.886 88.504 164.102 88.504C161.318 88.504 159.146 87.628 157.586 85.876C156.026 84.124 155.246 81.568 155.246 78.208V72.592ZM164.102 85.696C166.046 85.696 167.498 85.036 168.458 83.716C169.442 82.372 169.934 80.464 169.934 77.992V72.808C169.934 70.504 169.442 68.644 168.458 67.228C167.498 65.812 166.046 65.104 164.102 65.104C162.158 65.104 160.694 65.812 159.71 67.228C158.75 68.644 158.27 70.504 158.27 72.808V77.992C158.27 80.464 158.75 82.372 159.71 83.716C160.694 85.036 162.158 85.696 164.102 85.696ZM176.785 62.8H182.545L185.929 86.704H186.361L189.745 62.8H195.505V88H192.697V64.096H192.265L188.881 88H183.409L180.025 64.096H179.593V88H176.785V62.8ZM200.556 62.8H215.82V65.608H203.58V73.96H215.604V76.768H203.58V85.192H216.036V88H200.556V62.8ZM221.375 62.8H239.087V65.608H231.743V88H228.719V65.608H221.375V62.8ZM260.158 88H257.134V79.576C257.134 78.952 256.99 78.472 256.702 78.136C256.414 77.8 255.91 77.632 255.19 77.632H247.342V88H244.318V62.8H253.318C254.614 62.8 255.742 62.992 256.702 63.376C257.662 63.736 258.454 64.228 259.078 64.852C259.726 65.476 260.206 66.208 260.518 67.048C260.854 67.864 261.022 68.728 261.022 69.64V70.72C261.022 71.656 260.758 72.592 260.23 73.528C259.726 74.464 258.934 75.184 257.854 75.688V76.12C258.574 76.24 259.138 76.528 259.546 76.984C259.954 77.44 260.158 78.088 260.158 78.928V88ZM247.342 74.824H252.958C254.662 74.824 255.922 74.464 256.738 73.744C257.578 73 257.998 71.92 257.998 70.504V69.856C257.998 68.584 257.578 67.564 256.738 66.796C255.922 66.004 254.662 65.608 252.958 65.608H247.342V74.824ZM266.325 62.8H282.309V65.608H275.829V85.192H282.309V88H266.325V85.192H272.805V65.608H266.325V62.8ZM296.504 85.696C297.536 85.696 298.412 85.528 299.132 85.192C299.876 84.832 300.476 84.364 300.932 83.788C301.412 83.188 301.76 82.516 301.976 81.772C302.216 81.004 302.336 80.2 302.336 79.36V78.928H305.36V79.36C305.36 80.632 305.168 81.832 304.784 82.96C304.4 84.064 303.836 85.036 303.092 85.876C302.348 86.692 301.424 87.34 300.32 87.82C299.216 88.276 297.944 88.504 296.504 88.504C293.72 88.504 291.548 87.628 289.988 85.876C288.428 84.124 287.648 81.568 287.648 78.208V72.592C287.648 69.328 288.428 66.796 289.988 64.996C291.548 63.196 293.72 62.296 296.504 62.296C297.944 62.296 299.216 62.536 300.32 63.016C301.424 63.472 302.348 64.12 303.092 64.96C303.836 65.776 304.4 66.748 304.784 67.876C305.168 68.98 305.36 70.168 305.36 71.44V71.872H302.336V71.44C302.312 70.624 302.18 69.832 301.94 69.064C301.724 68.296 301.376 67.624 300.896 67.048C300.44 66.448 299.852 65.98 299.132 65.644C298.412 65.284 297.536 65.104 296.504 65.104C294.56 65.104 293.096 65.812 292.112 67.228C291.152 68.644 290.672 70.504 290.672 72.808V77.992C290.672 80.464 291.152 82.372 292.112 83.716C293.096 85.036 294.56 85.696 296.504 85.696Z" fill="#1A73E8"/>
<circle cx="366" cy="76" r="24" fill="#D2E3FC"/>
<path d="M374.531 83.464V88H356.819V83.032C356.819 81.712 357.011 80.584 357.395 79.648C357.803 78.712 358.367 77.92 359.087 77.272C359.831 76.624 360.719 76.096 361.751 75.688C362.783 75.256 363.947 74.896 365.243 74.608C366.203 74.392 366.983 74.152 367.583 73.888C368.207 73.6 368.699 73.288 369.059 72.952C369.419 72.592 369.659 72.208 369.779 71.8C369.923 71.368 369.995 70.888 369.995 70.36C369.995 69.352 369.623 68.512 368.879 67.84C368.159 67.168 367.151 66.832 365.855 66.832C364.487 66.832 363.395 67.252 362.579 68.092C361.763 68.908 361.355 70.048 361.355 71.512V73.096H356.603V71.08C356.603 69.904 356.807 68.788 357.215 67.732C357.647 66.652 358.247 65.716 359.015 64.924C359.807 64.108 360.767 63.472 361.895 63.016C363.023 62.536 364.295 62.296 365.711 62.296C367.223 62.296 368.543 62.524 369.671 62.98C370.799 63.412 371.735 63.988 372.479 64.708C373.247 65.428 373.811 66.268 374.171 67.228C374.555 68.164 374.747 69.136 374.747 70.144V70.576C374.747 72.688 374.147 74.44 372.947 75.832C371.771 77.224 369.839 78.232 367.151 78.856C366.023 79.12 365.087 79.396 364.343 79.684C363.623 79.948 363.059 80.248 362.651 80.584C362.243 80.92 361.955 81.292 361.787 81.7C361.643 82.084 361.571 82.528 361.571 83.032V83.464H374.531Z" fill="#1A73E8"/>
<path d="M405.132 62.8H408.156V85.192H421.332V88H405.132V62.8ZM427.067 62.8H443.051V65.608H436.571V85.192H443.051V88H427.067V85.192H433.547V65.608H427.067V62.8ZM462.034 86.704H462.466V62.8H465.49V88H459.442L452.17 64.096H451.738V88H448.714V62.8H454.762L462.034 86.704ZM471.513 62.8H486.777V65.608H474.537V73.96H486.561V76.768H474.537V85.192H486.993V88H471.513V62.8ZM506.588 81.736H495.788L493.952 88H490.712L498.344 62.8H504.032L511.664 88H508.424L506.588 81.736ZM500.972 64.096L496.616 78.928H505.76L501.404 64.096H500.972ZM531.115 88H528.091V79.576C528.091 78.952 527.947 78.472 527.659 78.136C527.371 77.8 526.867 77.632 526.147 77.632H518.299V88H515.275V62.8H524.275C525.571 62.8 526.699 62.992 527.659 63.376C528.619 63.736 529.411 64.228 530.035 64.852C530.683 65.476 531.163 66.208 531.475 67.048C531.811 67.864 531.979 68.728 531.979 69.64V70.72C531.979 71.656 531.715 72.592 531.187 73.528C530.683 74.464 529.891 75.184 528.811 75.688V76.12C529.531 76.24 530.095 76.528 530.503 76.984C530.911 77.44 531.115 78.088 531.115 78.928V88ZM518.299 74.824H523.915C525.619 74.824 526.879 74.464 527.695 73.744C528.535 73 528.955 71.92 528.955 70.504V69.856C528.955 68.584 528.535 67.564 527.695 66.796C526.879 66.004 525.619 65.608 523.915 65.608H518.299V74.824ZM573.257 70.072C573.257 69.256 573.089 68.536 572.753 67.912C572.441 67.288 572.009 66.772 571.457 66.364C570.905 65.956 570.269 65.644 569.549 65.428C568.829 65.212 568.073 65.104 567.281 65.104C566.585 65.104 565.925 65.2 565.301 65.392C564.677 65.56 564.113 65.812 563.609 66.148C563.129 66.484 562.745 66.904 562.457 67.408C562.169 67.888 562.025 68.452 562.025 69.1V69.316C562.025 70.012 562.169 70.612 562.457 71.116C562.745 71.596 563.165 72.016 563.717 72.376C564.293 72.712 565.001 73 565.841 73.24C566.681 73.456 567.665 73.648 568.793 73.816C571.433 74.224 573.377 75.004 574.625 76.156C575.873 77.284 576.497 78.808 576.497 80.728V81.16C576.497 82.24 576.305 83.236 575.921 84.148C575.561 85.036 575.009 85.804 574.265 86.452C573.545 87.1 572.645 87.604 571.565 87.964C570.485 88.324 569.237 88.504 567.821 88.504C566.213 88.504 564.785 88.276 563.537 87.82C562.313 87.34 561.281 86.692 560.441 85.876C559.625 85.036 559.001 84.064 558.569 82.96C558.137 81.832 557.921 80.608 557.921 79.288V78.208H560.945V79.072C560.945 81.28 561.545 82.936 562.745 84.04C563.969 85.144 565.661 85.696 567.821 85.696C569.693 85.696 571.097 85.288 572.033 84.472C572.993 83.632 573.473 82.528 573.473 81.16V80.944C573.473 79.624 572.981 78.616 571.997 77.92C571.037 77.224 569.465 76.72 567.281 76.408C566.009 76.24 564.857 75.988 563.825 75.652C562.817 75.292 561.953 74.836 561.233 74.284C560.513 73.708 559.961 73.024 559.577 72.232C559.193 71.44 559.001 70.504 559.001 69.424V68.992C559.001 68.008 559.205 67.108 559.613 66.292C560.021 65.476 560.585 64.768 561.305 64.168C562.049 63.568 562.925 63.112 563.933 62.8C564.965 62.464 566.093 62.296 567.317 62.296C568.733 62.296 569.993 62.5 571.097 62.908C572.225 63.316 573.173 63.868 573.941 64.564C574.709 65.236 575.285 66.04 575.669 66.976C576.077 67.888 576.281 68.848 576.281 69.856V71.368H573.257V70.072ZM594.76 81.736H583.96L582.124 88H578.884L586.516 62.8H592.204L599.836 88H596.596L594.76 81.736ZM589.144 64.096L584.788 78.928H593.932L589.576 64.096H589.144ZM616.335 86.704H616.767V62.8H619.791V88H613.743L606.471 64.096H606.039V88H603.015V62.8H609.063L616.335 86.704ZM639.386 70.072C639.386 69.256 639.218 68.536 638.882 67.912C638.57 67.288 638.138 66.772 637.586 66.364C637.034 65.956 636.398 65.644 635.678 65.428C634.958 65.212 634.202 65.104 633.41 65.104C632.714 65.104 632.054 65.2 631.43 65.392C630.806 65.56 630.242 65.812 629.738 66.148C629.258 66.484 628.874 66.904 628.586 67.408C628.298 67.888 628.154 68.452 628.154 69.1V69.316C628.154 70.012 628.298 70.612 628.586 71.116C628.874 71.596 629.294 72.016 629.846 72.376C630.422 72.712 631.13 73 631.97 73.24C632.81 73.456 633.794 73.648 634.922 73.816C637.562 74.224 639.506 75.004 640.754 76.156C642.002 77.284 642.626 78.808 642.626 80.728V81.16C642.626 82.24 642.434 83.236 642.05 84.148C641.69 85.036 641.138 85.804 640.394 86.452C639.674 87.1 638.774 87.604 637.694 87.964C636.614 88.324 635.366 88.504 633.95 88.504C632.342 88.504 630.914 88.276 629.666 87.82C628.442 87.34 627.41 86.692 626.57 85.876C625.754 85.036 625.13 84.064 624.698 82.96C624.266 81.832 624.05 80.608 624.05 79.288V78.208H627.074V79.072C627.074 81.28 627.674 82.936 628.874 84.04C630.098 85.144 631.79 85.696 633.95 85.696C635.822 85.696 637.226 85.288 638.162 84.472C639.122 83.632 639.602 82.528 639.602 81.16V80.944C639.602 79.624 639.11 78.616 638.126 77.92C637.166 77.224 635.594 76.72 633.41 76.408C632.138 76.24 630.986 75.988 629.954 75.652C628.946 75.292 628.082 74.836 627.362 74.284C626.642 73.708 626.09 73.024 625.706 72.232C625.322 71.44 625.13 70.504 625.13 69.424V68.992C625.13 68.008 625.334 67.108 625.742 66.292C626.15 65.476 626.714 64.768 627.434 64.168C628.178 63.568 629.054 63.112 630.062 62.8C631.094 62.464 632.222 62.296 633.446 62.296C634.862 62.296 636.122 62.5 637.226 62.908C638.354 63.316 639.302 63.868 640.07 64.564C640.838 65.236 641.414 66.04 641.798 66.976C642.206 67.888 642.41 68.848 642.41 69.856V71.368H639.386V70.072Z" fill="#1A73E8"/>
</svg>
