<svg xmlns="http://www.w3.org/2000/svg" width="1920" height="1080" fill="none"><path fill="#FF6D7F" d="M347.295 809.696c1.032 0 1.908-.168 2.628-.504.744-.36 1.344-.828 1.8-1.404a5.77 5.77 0 0 0 1.044-2.016 8.04 8.04 0 0 0 .36-2.412v-.432h3.024v.432c0 1.272-.192 2.472-.576 3.6a8.618 8.618 0 0 1-1.692 2.916c-.744.816-1.668 1.464-2.772 1.944-1.104.456-2.376.684-3.816.684-2.784 0-4.956-.876-6.516-2.628-1.56-1.752-2.34-4.308-2.34-7.668v-5.616c0-3.264.78-5.796 2.34-7.596 1.56-1.8 3.732-2.7 6.516-2.7 1.44 0 2.712.24 3.816.72 1.104.456 2.028 1.104 2.772 1.944.744.816 1.308 1.788 1.692 2.916.384 1.104.576 2.292.576 3.564v.432h-3.024v-.432a8.795 8.795 0 0 0-.396-2.376 5.383 5.383 0 0 0-1.044-2.016 4.636 4.636 0 0 0-1.764-1.404c-.72-.36-1.596-.54-2.628-.54-1.944 0-3.408.708-4.392 2.124-.96 1.416-1.44 3.276-1.44 5.58v5.184c0 2.472.48 4.38 1.44 5.724.984 1.32 2.448 1.98 4.392 1.98ZM360.338 796.592c0-3.264.78-5.796 2.34-7.596 1.56-1.8 3.732-2.7 6.516-2.7s4.956.9 6.516 2.7c1.56 1.8 2.34 4.332 2.34 7.596v5.616c0 3.36-.78 5.916-2.34 7.668-1.56 1.752-3.732 2.628-6.516 2.628s-4.956-.876-6.516-2.628c-1.56-1.752-2.34-4.308-2.34-7.668v-5.616Zm8.856 13.104c1.944 0 3.396-.66 4.356-1.98.984-1.344 1.476-3.252 1.476-5.724v-5.184c0-2.304-.492-4.164-1.476-5.58-.96-1.416-2.412-2.124-4.356-2.124s-3.408.708-4.392 2.124c-.96 1.416-1.44 3.276-1.44 5.58v5.184c0 2.472.48 4.38 1.44 5.724.984 1.32 2.448 1.98 4.392 1.98ZM396.169 810.704h.432V786.8h3.024V812h-6.048l-7.272-23.904h-.432V812h-3.024v-25.2h6.048l7.272 23.904ZM419.22 794.072c0-.816-.168-1.536-.504-2.16a4.27 4.27 0 0 0-1.296-1.548 6.154 6.154 0 0 0-1.908-.936 7.85 7.85 0 0 0-2.268-.324c-.696 0-1.356.096-1.98.288a5.694 5.694 0 0 0-1.692.756c-.48.336-.864.756-1.152 1.26-.288.48-.432 1.044-.432 1.692v.216c0 .696.144 1.296.432 1.8.288.48.708.9 1.26 1.26.576.336 1.284.624 2.124.864.84.216 1.824.408 2.952.576 2.64.408 4.584 1.188 5.832 2.34 1.248 1.128 1.872 2.652 1.872 4.572v.432c0 1.08-.192 2.076-.576 2.988a6.023 6.023 0 0 1-1.656 2.304c-.72.648-1.62 1.152-2.7 1.512-1.08.36-2.328.54-3.744.54-1.608 0-3.036-.228-4.284-.684-1.224-.48-2.256-1.128-3.096-1.944a8.68 8.68 0 0 1-1.872-2.916c-.432-1.128-.648-2.352-.648-3.672v-1.08h3.024v.864c0 2.208.6 3.864 1.8 4.968 1.224 1.104 2.916 1.656 5.076 1.656 1.872 0 3.276-.408 4.212-1.224.96-.84 1.44-1.944 1.44-3.312v-.216c0-1.32-.492-2.328-1.476-3.024-.96-.696-2.532-1.2-4.716-1.512-1.272-.168-2.424-.42-3.456-.756-1.008-.36-1.872-.816-2.592-1.368a5.91 5.91 0 0 1-1.656-2.052c-.384-.792-.576-1.728-.576-2.808v-.432c0-.984.204-1.884.612-2.7a6.563 6.563 0 0 1 1.692-2.124c.744-.6 1.62-1.056 2.628-1.368 1.032-.336 2.16-.504 3.384-.504 1.416 0 2.676.204 3.78.612 1.128.408 2.076.96 2.844 1.656a6.386 6.386 0 0 1 1.728 2.412c.408.912.612 1.872.612 2.88v1.512h-3.024v-1.296ZM426.467 786.8h17.712v2.808h-7.344V812h-3.024v-22.392h-7.344V786.8ZM465.25 812h-3.024v-8.424c0-.624-.144-1.104-.432-1.44-.288-.336-.792-.504-1.512-.504h-7.848V812h-3.024v-25.2h9c1.296 0 2.424.192 3.384.576.96.36 1.752.852 2.376 1.476a5.83 5.83 0 0 1 1.44 2.196 6.74 6.74 0 0 1 .504 2.592v1.08c0 .936-.264 1.872-.792 2.808-.504.936-1.296 1.656-2.376 2.16v.432c.72.12 1.284.408 1.692.864.408.456.612 1.104.612 1.944V812Zm-12.816-13.176h5.616c1.704 0 2.964-.36 3.78-1.08.84-.744 1.26-1.824 1.26-3.24v-.648c0-1.272-.42-2.292-1.26-3.06-.816-.792-2.076-1.188-3.78-1.188h-5.616v9.216ZM473.793 786.8v16.704c0 2.04.468 3.588 1.404 4.644.96 1.032 2.364 1.548 4.212 1.548 1.848 0 3.24-.516 4.176-1.548.96-1.056 1.44-2.604 1.44-4.644V786.8h3.024v16.704c0 2.928-.768 5.16-2.304 6.696-1.536 1.536-3.648 2.304-6.336 2.304s-4.8-.768-6.336-2.304c-1.536-1.536-2.304-3.768-2.304-6.696V786.8h3.024ZM501.596 809.696c1.032 0 1.908-.168 2.628-.504.744-.36 1.344-.828 1.8-1.404a5.77 5.77 0 0 0 1.044-2.016 8.04 8.04 0 0 0 .36-2.412v-.432h3.024v.432c0 1.272-.192 2.472-.576 3.6a8.618 8.618 0 0 1-1.692 2.916c-.744.816-1.668 1.464-2.772 1.944-1.104.456-2.376.684-3.816.684-2.784 0-4.956-.876-6.516-2.628-1.56-1.752-2.34-4.308-2.34-7.668v-5.616c0-3.264.78-5.796 2.34-7.596 1.56-1.8 3.732-2.7 6.516-2.7 1.44 0 2.712.24 3.816.72 1.104.456 2.028 1.104 2.772 1.944.744.816 1.308 1.788 1.692 2.916.384 1.104.576 2.292.576 3.564v.432h-3.024v-.432a8.795 8.795 0 0 0-.396-2.376 5.383 5.383 0 0 0-1.044-2.016 4.636 4.636 0 0 0-1.764-1.404c-.72-.36-1.596-.54-2.628-.54-1.944 0-3.408.708-4.392 2.124-.96 1.416-1.44 3.276-1.44 5.58v5.184c0 2.472.48 4.38 1.44 5.724.984 1.32 2.448 1.98 4.392 1.98ZM514.639 786.8h17.712v2.808h-7.344V812h-3.024v-22.392h-7.344V786.8ZM537.906 786.8h15.264v2.808h-12.24v8.352h12.024v2.808H540.93v8.424h12.456V812h-15.48v-25.2ZM559.193 786.8h8.28c3.12 0 5.4.744 6.84 2.232 1.44 1.488 2.16 3.864 2.16 7.128v6.48c0 3.264-.72 5.64-2.16 7.128-1.44 1.488-3.72 2.232-6.84 2.232h-8.28v-2.844h2.16v-19.548h-2.16V786.8Zm7.848 22.392c1.104 0 2.052-.108 2.844-.324.816-.216 1.488-.576 2.016-1.08.528-.528.912-1.224 1.152-2.088.264-.864.396-1.956.396-3.276v-6.048c0-1.32-.132-2.412-.396-3.276-.24-.864-.624-1.548-1.152-2.052-.528-.528-1.2-.9-2.016-1.116-.792-.216-1.74-.324-2.844-.324h-2.664v19.584h2.664ZM604.071 786.8h15.48v2.808h-12.456v8.352h12.24v2.808h-12.24V812h-3.024v-25.2ZM624.854 796.592c0-3.264.78-5.796 2.34-7.596 1.56-1.8 3.732-2.7 6.516-2.7s4.956.9 6.516 2.7c1.56 1.8 2.34 4.332 2.34 7.596v5.616c0 3.36-.78 5.916-2.34 7.668-1.56 1.752-3.732 2.628-6.516 2.628s-4.956-.876-6.516-2.628c-1.56-1.752-2.34-4.308-2.34-7.668v-5.616Zm8.856 13.104c1.944 0 3.396-.66 4.356-1.98.984-1.344 1.476-3.252 1.476-5.724v-5.184c0-2.304-.492-4.164-1.476-5.58-.96-1.416-2.412-2.124-4.356-2.124s-3.408.708-4.392 2.124c-.96 1.416-1.44 3.276-1.44 5.58v5.184c0 2.472.48 4.38 1.44 5.724.984 1.32 2.448 1.98 4.392 1.98ZM663.637 812h-3.024v-8.424c0-.624-.144-1.104-.432-1.44-.288-.336-.792-.504-1.512-.504h-7.848V812h-3.024v-25.2h9c1.296 0 2.424.192 3.384.576.96.36 1.752.852 2.376 1.476a5.83 5.83 0 0 1 1.44 2.196 6.74 6.74 0 0 1 .504 2.592v1.08c0 .936-.264 1.872-.792 2.808-.504.936-1.296 1.656-2.376 2.16v.432c.72.12 1.284.408 1.692.864.408.456.612 1.104.612 1.944V812Zm-12.816-13.176h5.616c1.704 0 2.964-.36 3.78-1.08.84-.744 1.26-1.824 1.26-3.24v-.648c0-1.272-.42-2.292-1.26-3.06-.816-.792-2.076-1.188-3.78-1.188h-5.616v9.216ZM668.436 786.8h5.76l3.384 23.904h.432l3.384-23.904h5.76V812h-2.808v-23.904h-.432L680.532 812h-5.472l-3.384-23.904h-.432V812h-2.808v-25.2ZM705.779 794.072c0-.816-.168-1.536-.504-2.16a4.27 4.27 0 0 0-1.296-1.548 6.154 6.154 0 0 0-1.908-.936 7.85 7.85 0 0 0-2.268-.324c-.696 0-1.356.096-1.98.288a5.694 5.694 0 0 0-1.692.756c-.48.336-.864.756-1.152 1.26-.288.48-.432 1.044-.432 1.692v.216c0 .696.144 1.296.432 1.8.288.48.708.9 1.26 1.26.576.336 1.284.624 2.124.864.84.216 1.824.408 2.952.576 2.64.408 4.584 1.188 5.832 2.34 1.248 1.128 1.872 2.652 1.872 4.572v.432c0 1.08-.192 2.076-.576 2.988a6.023 6.023 0 0 1-1.656 2.304c-.72.648-1.62 1.152-2.7 1.512-1.08.36-2.328.54-3.744.54-1.608 0-3.036-.228-4.284-.684-1.224-.48-2.256-1.128-3.096-1.944a8.68 8.68 0 0 1-1.872-2.916c-.432-1.128-.648-2.352-.648-3.672v-1.08h3.024v.864c0 2.208.6 3.864 1.8 4.968 1.224 1.104 2.916 1.656 5.076 1.656 1.872 0 3.276-.408 4.212-1.224.96-.84 1.44-1.944 1.44-3.312v-.216c0-1.32-.492-2.328-1.476-3.024-.96-.696-2.532-1.2-4.716-1.512-1.272-.168-2.424-.42-3.456-.756-1.008-.36-1.872-.816-2.592-1.368a5.91 5.91 0 0 1-1.656-2.052c-.384-.792-.576-1.728-.576-2.808v-.432c0-.984.204-1.884.612-2.7a6.563 6.563 0 0 1 1.692-2.124c.744-.6 1.62-1.056 2.628-1.368 1.032-.336 2.16-.504 3.384-.504 1.416 0 2.676.204 3.78.612 1.128.408 2.076.96 2.844 1.656a6.386 6.386 0 0 1 1.728 2.412c.408.912.612 1.872.612 2.88v1.512h-3.024v-1.296ZM384.892 868.46c-2.304 0-4.296-.408-5.976-1.224-1.656-.816-2.928-2.1-3.816-3.852-.888-1.728-1.332-3.972-1.332-6.732v-11.664c0-2.784.444-5.04 1.332-6.768.888-1.728 2.16-3 3.816-3.816 1.68-.816 3.672-1.224 5.976-1.224v2.484c-2.856.024-4.968.816-6.336 2.376-1.368 1.536-2.052 3.912-2.052 7.128v11.304c0 3.192.684 5.568 2.052 7.128 1.368 1.56 3.48 2.352 6.336 2.376v2.484ZM395.845 860.504c-1.704 0-3.24-.36-4.608-1.08-1.344-.744-2.412-1.8-3.204-3.168-.768-1.368-1.152-2.988-1.152-4.86V851c0-1.896.384-3.516 1.152-4.86.792-1.368 1.86-2.412 3.204-3.132 1.368-.744 2.904-1.116 4.608-1.116 1.68 0 3.108.312 4.284.936 1.2.624 2.136 1.452 2.808 2.484a8.245 8.245 0 0 1 1.332 3.312l-2.772.576a5.906 5.906 0 0 0-.864-2.376c-.432-.72-1.044-1.296-1.836-1.728-.792-.432-1.764-.648-2.916-.648-1.176 0-2.232.264-3.168.792-.912.528-1.644 1.284-2.196 2.268-.528.984-.792 2.16-.792 3.528v.324c0 1.368.264 2.544.792 3.528.552.984 1.284 1.74 2.196 2.268.936.528 1.992.792 3.168.792 1.752 0 3.084-.456 3.996-1.368.936-.912 1.512-2.04 1.728-3.384l2.808.612a9.7 9.7 0 0 1-1.44 3.276c-.696 1.032-1.644 1.86-2.844 2.484-1.176.624-2.604.936-4.284.936ZM409.26 860v-17.604h2.844V860h-2.844Zm1.44-20.34c-.624 0-1.152-.204-1.584-.612-.408-.408-.612-.924-.612-1.548 0-.648.204-1.176.612-1.584.432-.408.96-.612 1.584-.612.624 0 1.14.204 1.548.612.408.408.612.936.612 1.584 0 .624-.204 1.14-.612 1.548-.408.408-.924.612-1.548.612ZM418.084 860v-17.604h2.772v2.16h.504c.312-.768.792-1.332 1.44-1.692.648-.36 1.5-.54 2.556-.54h2.088v2.592h-2.268c-1.272 0-2.304.36-3.096 1.08-.768.696-1.152 1.788-1.152 3.276V860h-2.844ZM439.122 860.504c-1.704 0-3.24-.36-4.608-1.08-1.344-.744-2.412-1.8-3.204-3.168-.768-1.368-1.152-2.988-1.152-4.86V851c0-1.896.384-3.516 1.152-4.86.792-1.368 1.86-2.412 3.204-3.132 1.368-.744 2.904-1.116 4.608-1.116 1.68 0 3.108.312 4.284.936 1.2.624 2.136 1.452 2.808 2.484a8.245 8.245 0 0 1 1.332 3.312l-2.772.576a5.906 5.906 0 0 0-.864-2.376c-.432-.72-1.044-1.296-1.836-1.728-.792-.432-1.764-.648-2.916-.648-1.176 0-2.232.264-3.168.792-.912.528-1.644 1.284-2.196 2.268-.528.984-.792 2.16-.792 3.528v.324c0 1.368.264 2.544.792 3.528.552.984 1.284 1.74 2.196 2.268.936.528 1.992.792 3.168.792 1.752 0 3.084-.456 3.996-1.368.936-.912 1.512-2.04 1.728-3.384l2.808.612a9.7 9.7 0 0 1-1.44 3.276c-.696 1.032-1.644 1.86-2.844 2.484-1.176.624-2.604.936-4.284.936ZM459.27 860.324c-1.272 0-2.448-.276-3.528-.828-1.056-.552-1.896-1.368-2.52-2.448-.6-1.104-.9-2.436-.9-3.996v-10.656h2.844v10.44c0 1.752.432 3.024 1.296 3.816.888.792 2.076 1.188 3.564 1.188 1.68 0 3.06-.552 4.14-1.656 1.08-1.104 1.62-2.748 1.62-4.932v-8.856h2.844V860h-2.772v-2.988h-.504c-.384.84-1.044 1.608-1.98 2.304-.936.672-2.304 1.008-4.104 1.008ZM474.58 860v-25.2h2.844V860h-2.844ZM488.805 860.504c-1.224 0-2.34-.216-3.348-.648-1.008-.432-1.8-1.056-2.376-1.872-.576-.816-.864-1.812-.864-2.988 0-1.2.288-2.184.864-2.952.576-.792 1.368-1.38 2.376-1.764 1.008-.408 2.136-.612 3.384-.612h5.94v-1.296c0-1.248-.372-2.232-1.116-2.952-.72-.72-1.8-1.08-3.24-1.08-1.416 0-2.52.348-3.312 1.044-.792.672-1.332 1.584-1.62 2.736l-2.664-.864a7.805 7.805 0 0 1 1.368-2.664c.624-.816 1.452-1.464 2.484-1.944 1.056-.504 2.316-.756 3.78-.756 2.256 0 4.008.588 5.256 1.764 1.248 1.152 1.872 2.784 1.872 4.896v7.956c0 .72.336 1.08 1.008 1.08h1.62V860h-2.484c-.792 0-1.428-.216-1.908-.648-.48-.456-.72-1.056-.72-1.8v-.18h-.432a8.642 8.642 0 0 1-1.08 1.44c-.432.48-1.032.876-1.8 1.188-.768.336-1.764.504-2.988.504Zm.324-2.448c1.68 0 3.036-.492 4.068-1.476 1.056-1.008 1.584-2.412 1.584-4.212v-.396h-5.832c-1.128 0-2.064.252-2.808.756-.72.48-1.08 1.212-1.08 2.196 0 .984.372 1.752 1.116 2.304.768.552 1.752.828 2.952.828ZM504.112 860v-17.604h2.772v2.16h.504c.312-.768.792-1.332 1.44-1.692.648-.36 1.5-.54 2.556-.54h2.088v2.592h-2.268c-1.272 0-2.304.36-3.096 1.08-.768.696-1.152 1.788-1.152 3.276V860h-2.844ZM532.328 860.504c-1.224 0-2.34-.216-3.348-.648-1.008-.432-1.8-1.056-2.376-1.872-.576-.816-.864-1.812-.864-2.988 0-1.2.288-2.184.864-2.952.576-.792 1.368-1.38 2.376-1.764 1.008-.408 2.136-.612 3.384-.612h5.94v-1.296c0-1.248-.372-2.232-1.116-2.952-.72-.72-1.8-1.08-3.24-1.08-1.416 0-2.52.348-3.312 1.044-.792.672-1.332 1.584-1.62 2.736l-2.664-.864a7.805 7.805 0 0 1 1.368-2.664c.624-.816 1.452-1.464 2.484-1.944 1.056-.504 2.316-.756 3.78-.756 2.256 0 4.008.588 5.256 1.764 1.248 1.152 1.872 2.784 1.872 4.896v7.956c0 .72.336 1.08 1.008 1.08h1.62V860h-2.484c-.792 0-1.428-.216-1.908-.648-.48-.456-.72-1.056-.72-1.8v-.18h-.432a8.642 8.642 0 0 1-1.08 1.44c-.432.48-1.032.876-1.8 1.188-.768.336-1.764.504-2.988.504Zm.324-2.448c1.68 0 3.036-.492 4.068-1.476 1.056-1.008 1.584-2.412 1.584-4.212v-.396h-5.832c-1.128 0-2.064.252-2.808.756-.72.48-1.08 1.212-1.08 2.196 0 .984.372 1.752 1.116 2.304.768.552 1.752.828 2.952.828ZM547.347 864.5v-1.8h1.044c.864 0 1.296-.432 1.296-1.296v-1.152h-.504c-.696 0-1.284-.216-1.764-.648-.456-.432-.684-.972-.684-1.62 0-.696.228-1.26.684-1.692.48-.432 1.068-.648 1.764-.648s1.272.228 1.728.684c.456.456.684 1.032.684 1.728v3.348c0 2.064-1.032 3.096-3.096 3.096h-1.152ZM563.857 851.288v-.504c0-1.848.372-3.432 1.116-4.752.744-1.32 1.752-2.34 3.024-3.06 1.272-.72 2.664-1.08 4.176-1.08 1.848 0 3.264.36 4.248 1.08 1.008.696 1.752 1.476 2.232 2.34h.504v-2.916h2.7v21.708c0 .96-.264 1.716-.792 2.268-.528.552-1.296.828-2.304.828h-11.952v-2.52h11.196c.72 0 1.08-.36 1.08-1.08v-6.696h-.504c-.288.528-.696 1.044-1.224 1.548s-1.212.924-2.052 1.26c-.84.312-1.884.468-3.132.468-1.512 0-2.904-.36-4.176-1.08-1.272-.72-2.28-1.74-3.024-3.06-.744-1.344-1.116-2.928-1.116-4.752Zm9.072 6.372c1.824 0 3.3-.576 4.428-1.728 1.152-1.152 1.728-2.736 1.728-4.752v-.288c0-2.04-.576-3.624-1.728-4.752-1.128-1.152-2.604-1.728-4.428-1.728-1.8 0-3.288.576-4.464 1.728-1.152 1.128-1.728 2.712-1.728 4.752v.288c0 2.016.576 3.6 1.728 4.752 1.176 1.152 2.664 1.728 4.464 1.728ZM587.531 864.5v-1.8h1.044c.864 0 1.296-.432 1.296-1.296v-1.152h-.504c-.696 0-1.284-.216-1.764-.648-.456-.432-.684-.972-.684-1.62 0-.696.228-1.26.684-1.692.48-.432 1.068-.648 1.764-.648s1.272.228 1.728.684c.456.456.684 1.032.684 1.728v3.348c0 2.064-1.032 3.096-3.096 3.096h-1.152ZM613.041 860.504c-1.776 0-3.348-.372-4.716-1.116a8.11 8.11 0 0 1-3.168-3.132c-.744-1.368-1.116-2.976-1.116-4.824v-.468c0-1.824.372-3.42 1.116-4.788.768-1.368 1.824-2.424 3.168-3.168 1.368-.744 2.94-1.116 4.716-1.116 1.776 0 3.336.372 4.68 1.116a7.747 7.747 0 0 1 3.168 3.168c.768 1.368 1.152 2.964 1.152 4.788v.468c0 1.848-.384 3.456-1.152 4.824a7.806 7.806 0 0 1-3.168 3.132c-1.344.744-2.904 1.116-4.68 1.116Zm0-2.556c1.872 0 3.36-.588 4.464-1.764 1.128-1.2 1.692-2.808 1.692-4.824v-.324c0-2.016-.564-3.612-1.692-4.788-1.104-1.2-2.592-1.8-4.464-1.8-1.848 0-3.336.6-4.464 1.8-1.128 1.176-1.692 2.772-1.692 4.788v.324c0 2.016.564 3.624 1.692 4.824 1.128 1.176 2.616 1.764 4.464 1.764ZM626.625 864.5v-1.8h1.044c.864 0 1.296-.432 1.296-1.296v-1.152h-.504c-.696 0-1.284-.216-1.764-.648-.456-.432-.684-.972-.684-1.62 0-.696.228-1.26.684-1.692.48-.432 1.068-.648 1.764-.648s1.272.228 1.728.684c.456.456.684 1.032.684 1.728v3.348c0 2.064-1.032 3.096-3.096 3.096h-1.152ZM652.062 860.504c-1.776 0-3.336-.372-4.68-1.116a8.046 8.046 0 0 1-3.132-3.204c-.744-1.368-1.116-2.952-1.116-4.752V851c0-1.824.372-3.42 1.116-4.788.744-1.368 1.776-2.424 3.096-3.168 1.32-.768 2.832-1.152 4.536-1.152 1.656 0 3.12.36 4.392 1.08 1.272.696 2.268 1.704 2.988 3.024.72 1.32 1.08 2.868 1.08 4.644v1.296h-14.364c.072 1.896.684 3.384 1.836 4.464 1.152 1.056 2.592 1.584 4.32 1.584 1.512 0 2.676-.348 3.492-1.044a7.014 7.014 0 0 0 1.872-2.484l2.448 1.188c-.36.744-.864 1.488-1.512 2.232-.624.744-1.452 1.368-2.484 1.872-1.008.504-2.304.756-3.888.756Zm-6.048-10.908h11.448c-.096-1.632-.66-2.904-1.692-3.816-1.008-.912-2.304-1.368-3.888-1.368-1.608 0-2.928.456-3.96 1.368-1.032.912-1.668 2.184-1.908 3.816ZM662.075 868.46v-2.484c2.904-.024 5.028-.816 6.372-2.376 1.344-1.56 2.016-3.936 2.016-7.128v-11.304c0-3.216-.672-5.592-2.016-7.128-1.344-1.56-3.468-2.352-6.372-2.376v-2.484c2.328 0 4.32.408 5.976 1.224 1.656.816 2.928 2.088 3.816 3.816.912 1.728 1.368 3.984 1.368 6.768v11.664c0 2.76-.456 5.004-1.368 6.732-.888 1.752-2.16 3.036-3.816 3.852-1.656.816-3.648 1.224-5.976 1.224ZM1000.55 809.696c1.03 0 1.91-.168 2.63-.504.74-.36 1.34-.828 1.8-1.404.48-.6.83-1.272 1.04-2.016a8.04 8.04 0 0 0 .36-2.412v-.432h3.03v.432c0 1.272-.19 2.472-.58 3.6a8.613 8.613 0 0 1-1.69 2.916c-.74.816-1.67 1.464-2.77 1.944-1.11.456-2.38.684-3.82.684-2.782 0-4.954-.876-6.514-2.628-1.56-1.752-2.34-4.308-2.34-7.668v-5.616c0-3.264.78-5.796 2.34-7.596 1.56-1.8 3.732-2.7 6.514-2.7 1.44 0 2.71.24 3.82.72 1.1.456 2.03 1.104 2.77 1.944a8.177 8.177 0 0 1 1.69 2.916c.39 1.104.58 2.292.58 3.564v.432h-3.03v-.432a8.636 8.636 0 0 0-.39-2.376 5.452 5.452 0 0 0-1.05-2.016 4.578 4.578 0 0 0-1.76-1.404c-.72-.36-1.6-.54-2.63-.54-1.942 0-3.406.708-4.39 2.124-.96 1.416-1.44 3.276-1.44 5.58v5.184c0 2.472.48 4.38 1.44 5.724.984 1.32 2.448 1.98 4.39 1.98ZM1030.33 812h-3.02v-8.424c0-.624-.14-1.104-.43-1.44-.29-.336-.79-.504-1.51-.504h-7.85V812h-3.03v-25.2h9c1.3 0 2.43.192 3.39.576.96.36 1.75.852 2.37 1.476a5.783 5.783 0 0 1 1.44 2.196c.34.816.51 1.68.51 2.592v1.08c0 .936-.27 1.872-.79 2.808-.51.936-1.3 1.656-2.38 2.16v.432c.72.12 1.28.408 1.69.864.41.456.61 1.104.61 1.944V812Zm-12.81-13.176h5.61c1.71 0 2.97-.36 3.78-1.08.84-.744 1.26-1.824 1.26-3.24v-.648c0-1.272-.42-2.292-1.26-3.06-.81-.792-2.07-1.188-3.78-1.188h-5.61v9.216ZM1035.64 796.592c0-3.264.78-5.796 2.34-7.596 1.56-1.8 3.73-2.7 6.51-2.7 2.79 0 4.96.9 6.52 2.7 1.56 1.8 2.34 4.332 2.34 7.596v5.616c0 3.36-.78 5.916-2.34 7.668-1.56 1.752-3.73 2.628-6.52 2.628-2.78 0-4.95-.876-6.51-2.628-1.56-1.752-2.34-4.308-2.34-7.668v-5.616Zm8.85 13.104c1.95 0 3.4-.66 4.36-1.98.98-1.344 1.48-3.252 1.48-5.724v-5.184c0-2.304-.5-4.164-1.48-5.58-.96-1.416-2.41-2.124-4.36-2.124-1.94 0-3.4.708-4.39 2.124-.96 1.416-1.44 3.276-1.44 5.58v5.184c0 2.472.48 4.38 1.44 5.724.99 1.32 2.45 1.98 4.39 1.98ZM1072.48 794.072c0-.816-.17-1.536-.51-2.16a4.255 4.255 0 0 0-1.29-1.548 6.254 6.254 0 0 0-1.91-.936 7.875 7.875 0 0 0-2.27-.324c-.7 0-1.36.096-1.98.288-.62.168-1.19.42-1.69.756-.48.336-.87.756-1.15 1.26-.29.48-.44 1.044-.44 1.692v.216c0 .696.15 1.296.44 1.8.28.48.7.9 1.26 1.26.57.336 1.28.624 2.12.864.84.216 1.82.408 2.95.576 2.64.408 4.59 1.188 5.83 2.34 1.25 1.128 1.88 2.652 1.88 4.572v.432c0 1.08-.2 2.076-.58 2.988a5.97 5.97 0 0 1-1.66 2.304c-.72.648-1.62 1.152-2.7 1.512-1.08.36-2.32.54-3.74.54-1.61 0-3.04-.228-4.28-.684-1.23-.48-2.26-1.128-3.1-1.944a8.584 8.584 0 0 1-1.87-2.916c-.43-1.128-.65-2.352-.65-3.672v-1.08h3.02v.864c0 2.208.6 3.864 1.8 4.968 1.23 1.104 2.92 1.656 5.08 1.656 1.87 0 3.28-.408 4.21-1.224.96-.84 1.44-1.944 1.44-3.312v-.216c0-1.32-.49-2.328-1.47-3.024-.96-.696-2.54-1.2-4.72-1.512-1.27-.168-2.42-.42-3.46-.756-1-.36-1.87-.816-2.59-1.368a5.847 5.847 0 0 1-1.65-2.052c-.39-.792-.58-1.728-.58-2.808v-.432c0-.984.2-1.884.61-2.7.41-.816.97-1.524 1.69-2.124.75-.6 1.62-1.056 2.63-1.368 1.03-.336 2.16-.504 3.39-.504 1.41 0 2.67.204 3.78.612 1.12.408 2.07.96 2.84 1.656a6.435 6.435 0 0 1 1.73 2.412c.41.912.61 1.872.61 2.88v1.512h-3.02v-1.296ZM1094.52 794.072c0-.816-.17-1.536-.5-2.16a4.382 4.382 0 0 0-1.3-1.548 6.143 6.143 0 0 0-1.91-.936 7.825 7.825 0 0 0-2.27-.324c-.69 0-1.35.096-1.98.288-.62.168-1.18.42-1.69.756-.48.336-.86.756-1.15 1.26-.29.48-.43 1.044-.43 1.692v.216c0 .696.14 1.296.43 1.8.29.48.71.9 1.26 1.26.58.336 1.28.624 2.12.864.84.216 1.83.408 2.96.576 2.64.408 4.58 1.188 5.83 2.34 1.25 1.128 1.87 2.652 1.87 4.572v.432c0 1.08-.19 2.076-.58 2.988a6.05 6.05 0 0 1-1.65 2.304c-.72.648-1.62 1.152-2.7 1.512-1.08.36-2.33.54-3.75.54-1.6 0-3.03-.228-4.28-.684-1.22-.48-2.26-1.128-3.1-1.944a8.737 8.737 0 0 1-1.87-2.916c-.43-1.128-.65-2.352-.65-3.672v-1.08h3.03v.864c0 2.208.6 3.864 1.8 4.968 1.22 1.104 2.91 1.656 5.07 1.656 1.88 0 3.28-.408 4.22-1.224.96-.84 1.44-1.944 1.44-3.312v-.216c0-1.32-.5-2.328-1.48-3.024-.96-.696-2.53-1.2-4.72-1.512-1.27-.168-2.42-.42-3.45-.756-1.01-.36-1.87-.816-2.59-1.368a5.877 5.877 0 0 1-1.66-2.052c-.38-.792-.58-1.728-.58-2.808v-.432c0-.984.21-1.884.62-2.7.4-.816.97-1.524 1.69-2.124.74-.6 1.62-1.056 2.63-1.368 1.03-.336 2.16-.504 3.38-.504 1.42 0 2.68.204 3.78.612 1.13.408 2.08.96 2.84 1.656a6.327 6.327 0 0 1 1.73 2.412c.41.912.61 1.872.61 2.88v1.512h-3.02v-1.296ZM995.326 842.072c0-.816-.168-1.536-.504-2.16a4.27 4.27 0 0 0-1.296-1.548 6.154 6.154 0 0 0-1.908-.936 7.85 7.85 0 0 0-2.268-.324c-.696 0-1.356.096-1.98.288a5.694 5.694 0 0 0-1.692.756c-.48.336-.864.756-1.152 1.26-.288.48-.432 1.044-.432 1.692v.216c0 .696.144 1.296.432 1.8.288.48.708.9 1.26 1.26.576.336 1.284.624 2.124.864.84.216 1.824.408 2.952.576 2.64.408 4.584 1.188 5.832 2.34 1.248 1.128 1.872 2.652 1.872 4.572v.432c0 1.08-.192 2.076-.576 2.988a6.023 6.023 0 0 1-1.656 2.304c-.72.648-1.62 1.152-2.7 1.512-1.08.36-2.328.54-3.744.54-1.608 0-3.036-.228-4.284-.684-1.224-.48-2.256-1.128-3.096-1.944a8.68 8.68 0 0 1-1.872-2.916c-.432-1.128-.648-2.352-.648-3.672v-1.08h3.024v.864c0 2.208.6 3.864 1.8 4.968 1.224 1.104 2.916 1.656 5.076 1.656 1.872 0 3.276-.408 4.212-1.224.96-.84 1.44-1.944 1.44-3.312v-.216c0-1.32-.492-2.328-1.476-3.024-.96-.696-2.532-1.2-4.716-1.512-1.272-.168-2.424-.42-3.456-.756-1.008-.36-1.872-.816-2.592-1.368a5.91 5.91 0 0 1-1.656-2.052c-.384-.792-.576-1.728-.576-2.808v-.432c0-.984.204-1.884.612-2.7a6.563 6.563 0 0 1 1.692-2.124c.744-.6 1.62-1.056 2.628-1.368 1.032-.336 2.16-.504 3.384-.504 1.416 0 2.676.204 3.78.612 1.128.408 2.076.96 2.844 1.656a6.386 6.386 0 0 1 1.728 2.412c.408.912.612 1.872.612 2.88v1.512h-3.024v-1.296ZM1003.04 834.8h3.03v11.16h10.72V834.8h3.03V860h-3.03v-11.232h-10.72V860h-3.03v-25.2ZM1038.87 853.736h-10.8l-1.83 6.264H1023l7.63-25.2h5.69l7.63 25.2h-3.24l-1.84-6.264Zm-5.61-17.64-4.36 14.832h9.14l-4.35-14.832h-.43ZM1050.58 849.632V860h-3.02v-25.2h9c1.3 0 2.42.192 3.38.576.96.36 1.76.852 2.38 1.476a5.783 5.783 0 0 1 1.44 2.196c.34.816.5 1.68.5 2.592v1.08a6.93 6.93 0 0 1-.5 2.628c-.31.84-.79 1.584-1.44 2.232-.65.624-1.45 1.128-2.41 1.512-.96.36-2.08.54-3.35.54h-5.98Zm0-2.808h5.62c3.36 0 5.04-1.44 5.04-4.32v-.648c0-1.272-.42-2.292-1.26-3.06-.82-.792-2.08-1.188-3.78-1.188h-5.62v9.216ZM1069.93 834.8h15.26v2.808h-12.24v8.352h12.02v2.808h-12.02v8.424h12.46V860h-15.48v-25.2ZM1091.21 834.8h8.28c3.12 0 5.4.744 6.84 2.232 1.44 1.488 2.16 3.864 2.16 7.128v6.48c0 3.264-.72 5.64-2.16 7.128-1.44 1.488-3.72 2.232-6.84 2.232h-8.28v-2.844h2.16v-19.548h-2.16V834.8Zm7.85 22.392c1.11 0 2.05-.108 2.85-.324.81-.216 1.48-.576 2.01-1.08.53-.528.91-1.224 1.15-2.088.27-.864.4-1.956.4-3.276v-6.048c0-1.32-.13-2.412-.4-3.276-.24-.864-.62-1.548-1.15-2.052-.53-.528-1.2-.9-2.01-1.116-.8-.216-1.74-.324-2.85-.324h-2.66v19.584h2.66Z"/><path fill="#3C4043" d="M268.715 550.373v-27.632h65.754c14.224 0 25.183-3.614 32.878-10.842 7.695-7.228 11.542-17.022 11.542-29.38 0-11.659-3.847-21.335-11.542-29.03-7.462-7.695-18.304-11.542-32.528-11.542h-66.104v-28.68h67.153c15.39 0 28.797 3.031 40.223 9.093 11.425 5.83 20.169 13.874 26.232 24.134 6.296 10.259 9.443 22.035 9.443 35.326 0 13.757-3.147 25.765-9.443 36.025-6.063 10.259-14.807 18.304-26.232 24.133-11.426 5.596-24.833 8.395-40.223 8.395h-67.153ZM246.68 656V413.267h32.877V656H246.68Zm139.904 0-88.14-108.775 31.129-10.843L428.205 656h-41.621ZM521.796 659.498c-15.156 0-28.914-3.731-41.272-11.193-12.358-7.694-22.151-18.071-29.38-31.128-6.995-13.058-10.492-27.748-10.492-44.07s3.497-31.012 10.492-44.07c7.229-13.058 16.906-23.434 29.031-31.128 12.358-7.695 26.232-11.543 41.621-11.543 12.591 0 23.784 2.682 33.577 8.045 10.026 5.13 18.071 12.358 24.133 21.685 6.063 9.094 9.444 19.703 10.143 31.828v50.016c-.699 11.892-4.08 22.501-10.143 31.828-5.829 9.327-13.757 16.672-23.783 22.035-9.794 5.13-21.102 7.695-33.927 7.695Zm5.246-29.73c15.623 0 28.214-5.246 37.774-15.739 9.561-10.726 14.341-24.367 14.341-40.922 0-11.426-2.216-21.335-6.646-29.73-4.197-8.627-10.259-15.273-18.187-19.936-7.928-4.897-17.139-7.345-27.631-7.345-10.493 0-19.82 2.448-27.981 7.345-7.928 4.897-14.224 11.659-18.887 20.286-4.43 8.394-6.646 18.071-6.646 29.03 0 11.192 2.216 21.102 6.646 29.73 4.663 8.394 11.076 15.039 19.237 19.936 8.161 4.897 17.488 7.345 27.98 7.345ZM577.058 656v-44.769l5.946-40.572-5.946-40.223v-40.572h31.828V656h-31.828ZM723.618 729.1c-17.021 0-32.177-3.148-45.468-9.444-13.058-6.295-23.551-15.156-31.479-26.581l20.286-20.636c6.762 8.627 14.807 15.156 24.134 19.586 9.327 4.664 20.402 6.996 33.227 6.996 17.022 0 30.429-4.547 40.222-13.641 10.027-8.861 15.04-20.869 15.04-36.025v-41.272l5.596-37.424-5.596-37.075v-43.72h31.478v159.491c0 15.855-3.73 29.729-11.192 41.621-7.228 11.892-17.488 21.219-30.779 27.981-13.057 6.762-28.214 10.143-45.469 10.143Zm0-75.898c-15.156 0-28.796-3.614-40.921-10.843-11.892-7.228-21.336-17.138-28.331-29.729-6.995-12.825-10.493-27.165-10.493-43.021 0-15.855 3.498-29.962 10.493-42.321 6.995-12.591 16.439-22.501 28.331-29.729 12.125-7.462 25.765-11.193 40.921-11.193 13.058 0 24.6 2.565 34.627 7.695 10.026 5.13 17.954 12.358 23.783 21.685 6.063 9.094 9.327 19.82 9.794 32.178v44.07c-.7 12.125-4.081 22.851-10.143 32.178-5.83 9.094-13.758 16.205-23.784 21.335-10.027 5.13-21.452 7.695-34.277 7.695Zm6.296-29.73c10.26 0 19.237-2.215 26.932-6.645 7.928-4.43 13.99-10.609 18.187-18.537 4.197-8.161 6.296-17.605 6.296-28.331 0-10.726-2.215-20.053-6.646-27.981-4.197-8.161-10.143-14.456-17.837-18.887-7.695-4.663-16.789-6.995-27.282-6.995-10.492 0-19.703 2.332-27.631 6.995-7.928 4.431-14.223 10.726-18.887 18.887-4.43 7.928-6.645 17.139-6.645 27.631 0 10.493 2.215 19.82 6.645 27.981 4.664 8.161 10.959 14.573 18.887 19.237 8.161 4.43 17.488 6.645 27.981 6.645ZM910.076 659.498c-9.327 0-18.187-1.166-26.582-3.498-8.161-2.565-15.739-6.062-22.734-10.493-6.995-4.663-13.058-10.143-18.188-16.438l20.286-20.287c6.063 7.462 13.058 13.058 20.986 16.789 7.928 3.498 16.789 5.246 26.582 5.246s17.371-1.632 22.734-4.896c5.363-3.498 8.045-8.278 8.045-14.34 0-6.063-2.215-10.726-6.646-13.991-4.197-3.497-9.676-6.296-16.438-8.394-6.762-2.332-13.991-4.547-21.686-6.646-7.461-2.331-14.573-5.246-21.335-8.744-6.762-3.497-12.358-8.277-16.788-14.34-4.198-6.062-6.296-14.107-6.296-24.133 0-10.027 2.448-18.654 7.345-25.882 4.897-7.462 11.659-13.175 20.286-17.139 8.861-3.964 19.47-5.946 31.828-5.946 13.058 0 24.6 2.332 34.626 6.996 10.26 4.43 18.654 11.192 25.183 20.286l-20.286 20.286c-4.663-6.063-10.493-10.726-17.488-13.991-6.762-3.264-14.457-4.896-23.084-4.896-9.094 0-16.089 1.632-20.986 4.896-4.663 3.032-6.995 7.345-6.995 12.942 0 5.596 2.099 9.909 6.296 12.941 4.197 3.031 9.676 5.596 16.438 7.694a1988.15 1988.15 0 0 1 21.686 6.646 100.11 100.11 0 0 1 21.335 8.744c6.762 3.731 12.242 8.744 16.439 15.039 4.43 6.296 6.645 14.574 6.645 24.833 0 15.623-5.596 27.981-16.788 37.075-10.96 9.094-25.766 13.641-44.42 13.641ZM1032.06 656V420.262h31.48V656h-31.48Zm-40.924-137.456v-28.68h113.324v28.68H991.136ZM1206.07 659.498c-16.32 0-31.01-3.848-44.07-11.542-13.06-7.695-23.43-18.071-31.13-31.129-7.69-13.291-11.54-28.097-11.54-44.42 0-16.089 3.85-30.545 11.54-43.37 7.7-13.058 18.07-23.434 31.13-31.128 13.06-7.695 27.75-11.543 44.07-11.543 16.09 0 30.66 3.848 43.72 11.543 13.29 7.461 23.78 17.721 31.48 30.778 7.69 13.058 11.54 27.631 11.54 43.72 0 16.323-3.85 31.129-11.54 44.42-7.7 13.058-18.19 23.434-31.48 31.129-13.06 7.694-27.63 11.542-43.72 11.542Zm0-30.429c10.49 0 19.82-2.449 27.98-7.345 8.16-4.897 14.57-11.542 19.24-19.937 4.66-8.627 6.99-18.42 6.99-29.38 0-10.726-2.45-20.286-7.34-28.68-4.67-8.394-11.08-14.923-19.24-19.586-7.93-4.897-17.14-7.345-27.63-7.345-10.49 0-19.82 2.448-27.98 7.345-8.16 4.663-14.58 11.192-19.24 19.586-4.66 8.394-6.99 17.954-6.99 28.68 0 10.96 2.33 20.753 6.99 29.38 4.66 8.395 11.08 15.04 19.24 19.937 8.16 4.896 17.49 7.345 27.98 7.345ZM1445.8 656v-96.883c0-12.592-3.97-22.968-11.9-31.129-7.92-8.161-18.18-12.242-30.77-12.242-8.4 0-15.86 1.866-22.39 5.596-6.53 3.731-11.66 8.861-15.39 15.39-3.73 6.529-5.59 13.99-5.59 22.385l-12.95-7.345c0-12.592 2.8-23.784 8.4-33.577 5.59-9.794 13.41-17.488 23.43-23.085 10.03-5.829 21.34-8.744 33.93-8.744s23.67 3.148 33.23 9.444c9.79 6.296 17.48 14.573 23.08 24.833 5.6 10.026 8.39 20.752 8.39 32.178V656h-31.47Zm-117.52 0V489.864h31.48V656h-31.48ZM1596.84 659.498c-16.55 0-31.48-3.731-44.77-11.193-13.29-7.694-23.78-18.071-31.48-31.128-7.69-13.058-11.54-27.865-11.54-44.42 0-16.322 3.73-31.012 11.19-44.07 7.7-13.057 17.96-23.317 30.78-30.778 13.06-7.695 27.63-11.543 43.72-11.543 15.39 0 28.92 3.498 40.57 10.493 11.9 6.995 21.11 16.672 27.64 29.03 6.76 12.359 10.14 26.349 10.14 41.972 0 2.331-.12 4.896-.35 7.694-.23 2.565-.7 5.596-1.4 9.094h-140.25v-26.232h123.46l-11.54 10.143c0-11.192-1.98-20.636-5.95-28.331-3.96-7.927-9.56-13.99-16.79-18.187-7.22-4.43-15.97-6.645-26.23-6.645-10.72 0-20.17 2.331-28.33 6.995-8.16 4.663-14.45 11.192-18.88 19.586-4.44 8.395-6.65 18.304-6.65 29.73 0 11.659 2.33 21.918 6.99 30.779 4.67 8.627 11.31 15.389 19.94 20.286 8.63 4.663 18.54 6.995 29.73 6.995 9.33 0 17.84-1.632 25.53-4.897 7.93-3.264 14.69-8.161 20.29-14.69l20.29 20.636c-7.93 9.327-17.73 16.439-29.38 21.336-11.43 4.896-23.67 7.345-36.73 7.345Z"/><path fill="#FF6D7F" fill-rule="evenodd" d="M616.844 578.627a100.894 100.894 0 0 0 0-11.254l-3.993.222a97.759 97.759 0 0 1 0 10.81l3.993.222Zm-2.779 18.517-3.882-.964a94.352 94.352 0 0 1-3.194 10.31l3.747 1.4a98.424 98.424 0 0 0 3.329-10.746Zm-11.53 27.58-3.411-2.088a93.364 93.364 0 0 1-6.151 8.857l3.148 2.468a97.317 97.317 0 0 0 6.414-9.237Zm-19.342 22.783-2.61-3.031a90.59 90.59 0 0 1-8.563 6.532l2.232 3.319a94.591 94.591 0 0 0 8.941-6.82Zm-25.449 15.652-1.52-3.7a87.163 87.163 0 0 1-10.18 3.465l1.053 3.859a91.17 91.17 0 0 0 10.647-3.624Zm-29.118 6.67-.243-3.992a88.879 88.879 0 0 1-10.766 0l-.243 3.992a92.82 92.82 0 0 0 11.252 0Zm-29.724-3.046 1.054-3.859a87.163 87.163 0 0 1-10.18-3.465l-1.52 3.7a91.219 91.219 0 0 0 10.646 3.624Zm-27.154-12.456 2.232-3.319a90.59 90.59 0 0 1-8.563-6.532l-2.61 3.031a94.591 94.591 0 0 0 8.941 6.82Zm-21.869-20.366 3.148-2.468a93.364 93.364 0 0 1-6.151-8.857l-3.411 2.088a97.317 97.317 0 0 0 6.414 9.237Zm-14.615-26.071 3.747-1.4a94.352 94.352 0 0 1-3.194-10.31l-3.882.964a98.424 98.424 0 0 0 3.329 10.746Zm-6.108-29.263a100.894 100.894 0 0 1 0-11.254l3.993.222a97.759 97.759 0 0 0 0 10.81l-3.993.222Zm2.779-29.771 3.882.964a94.352 94.352 0 0 1 3.194-10.31l-3.747-1.4a98.424 98.424 0 0 0-3.329 10.746Zm11.53-27.58 3.411 2.088a93.364 93.364 0 0 1 6.151-8.857l-3.148-2.468a97.317 97.317 0 0 0-6.414 9.237Zm19.342-22.783 2.61 3.031a90.59 90.59 0 0 1 8.563-6.532l-2.232-3.319a94.591 94.591 0 0 0-8.941 6.82Zm25.449-15.652 1.52 3.7a87.163 87.163 0 0 1 10.18-3.465l-1.053-3.859a91.17 91.17 0 0 0-10.647 3.624Zm29.118-6.67.243 3.992a88.879 88.879 0 0 1 10.766 0l.243-3.992a92.011 92.011 0 0 0-11.252 0Zm29.724 3.046-1.054 3.859a87.163 87.163 0 0 1 10.18 3.465l1.52-3.7a91.219 91.219 0 0 0-10.646-3.624Zm27.154 12.456-2.232 3.319a90.59 90.59 0 0 1 8.563 6.532l2.61-3.031a94.591 94.591 0 0 0-8.941-6.82Zm21.869 20.366-3.148 2.468a93.364 93.364 0 0 1 6.151 8.857l3.411-2.088a97.317 97.317 0 0 0-6.414-9.237Zm14.615 26.071-3.747 1.4a94.352 94.352 0 0 1 3.194 10.31l3.882-.964a98.424 98.424 0 0 0-3.329-10.746ZM817.842 574.994l-3.993-.23a91.84 91.84 0 0 0 0-10.528l3.993-.23a95.282 95.282 0 0 1 0 10.988Zm-2.818-29.05-3.873 1a89.147 89.147 0 0 0-3.223-10.005l3.728-1.449a93.199 93.199 0 0 1 3.368 10.454Zm-11.627-26.763-3.375 2.147a89.684 89.684 0 0 0-6.152-8.523l3.1-2.527a93.63 93.63 0 0 1 6.427 8.903Zm-19.303-21.882-2.552 3.08a89.266 89.266 0 0 0-8.473-6.216l2.172-3.359a93.427 93.427 0 0 1 8.853 6.495Zm-25.108-14.859-1.47 3.72a87.907 87.907 0 0 0-9.983-3.268l1.015-3.869a92.072 92.072 0 0 1 10.438 3.417Zm-28.492-6.28-.234 3.994a89.88 89.88 0 0 0-10.52 0l-.234-3.994a94.384 94.384 0 0 1 10.988 0Zm-29.042 2.863 1.015 3.869a87.907 87.907 0 0 0-9.983 3.268l-1.47-3.72a92.072 92.072 0 0 1 10.438-3.417Zm-26.693 11.781 2.172 3.359a89.266 89.266 0 0 0-8.473 6.216l-2.552-3.08a93.427 93.427 0 0 1 8.853-6.495Zm-21.729 19.474 3.1 2.527a89.812 89.812 0 0 0-6.152 8.523l-3.375-2.147a93.63 93.63 0 0 1 6.427-8.903Zm-14.686 25.212 3.728 1.449a89.147 89.147 0 0 0-3.223 10.005l-3.873-1a93.199 93.199 0 0 1 3.368-10.454Zm-6.186 28.516a95.282 95.282 0 0 0 0 10.988l3.993-.23a91.84 91.84 0 0 1 0-10.528l-3.993-.23Zm2.818 29.05 3.873-1a89.147 89.147 0 0 0 3.223 10.005l-3.728 1.449a93.199 93.199 0 0 1-3.368-10.454Zm11.627 26.763 3.375-2.147a89.684 89.684 0 0 0 6.152 8.523l-3.1 2.527a93.63 93.63 0 0 1-6.427-8.903Zm19.303 21.882 2.552-3.08a89.266 89.266 0 0 0 8.473 6.216l-2.172 3.359a93.427 93.427 0 0 1-8.853-6.495Zm25.108 14.859 1.47-3.72a88.107 88.107 0 0 0 9.983 3.268l-1.015 3.869a92.072 92.072 0 0 1-10.438-3.417Zm28.492 6.28.234-3.994a89.88 89.88 0 0 0 10.52 0l.234 3.994a94.384 94.384 0 0 1-10.988 0Zm29.042-2.863-1.015-3.869a88.107 88.107 0 0 0 9.983-3.268l1.47 3.72a92.072 92.072 0 0 1-10.438 3.417Zm26.693-11.781-2.172-3.359a89.266 89.266 0 0 0 8.473-6.216l2.552 3.08a93.427 93.427 0 0 1-8.853 6.495Zm21.729-19.474-3.1-2.527a89.812 89.812 0 0 0 6.152-8.523l3.375 2.147a93.63 93.63 0 0 1-6.427 8.903Zm14.686-25.212-3.728-1.449a89.147 89.147 0 0 0 3.223-10.005l3.873 1a93.199 93.199 0 0 1-3.368 10.454ZM1303.83 578.744l-3.99-.236c.11-1.822.16-3.658.16-5.508s-.05-3.686-.16-5.508l3.99-.236c.11 1.9.17 3.816.17 5.744s-.06 3.844-.17 5.744Zm-3.01-30.362-3.87 1.022a90.548 90.548 0 0 0-3.45-10.448l3.72-1.479a96.05 96.05 0 0 1 3.6 10.905Zm-12.4-27.875-3.35 2.184c-2-3.081-4.19-6.037-6.54-8.854l3.07-2.563a97.175 97.175 0 0 1 6.82 9.233Zm-20.44-22.646-2.51 3.109a93.78 93.78 0 0 0-8.96-6.415l2.14-3.382a97.69 97.69 0 0 1 9.33 6.688Zm-26.41-15.273-1.44 3.732a93.015 93.015 0 0 0-10.49-3.355l.99-3.875c3.74.958 7.39 2.128 10.94 3.498Zm-29.83-6.424-.22 3.993a97.267 97.267 0 0 0-11.04 0l-.22-3.993a100.113 100.113 0 0 1 11.48 0Zm-30.37 2.926.99 3.875a93.015 93.015 0 0 0-10.49 3.355l-1.44-3.732c3.55-1.37 7.2-2.54 10.94-3.498Zm-28.02 12.083 2.14 3.382a93.78 93.78 0 0 0-8.96 6.415l-2.51-3.109a97.69 97.69 0 0 1 9.33-6.688Zm-22.95 20.101 3.07 2.563a92.213 92.213 0 0 0-6.54 8.854l-3.35-2.184a97.175 97.175 0 0 1 6.82-9.233Zm-15.62 26.203 3.72 1.479a90.548 90.548 0 0 0-3.45 10.448l-3.87-1.022a96.05 96.05 0 0 1 3.6-10.905Zm-6.61 29.779c-.11 1.9-.17 3.816-.17 5.744s.06 3.844.17 5.744l3.99-.236A91.394 91.394 0 0 1 1112 573c0-1.85.05-3.686.16-5.508l-3.99-.236Zm3.01 30.362 3.87-1.022c.94 3.571 2.1 7.058 3.45 10.448l-3.72 1.479a96.05 96.05 0 0 1-3.6-10.905Zm12.4 27.875 3.35-2.184c2 3.081 4.19 6.037 6.54 8.854l-3.07 2.563a97.175 97.175 0 0 1-6.82-9.233Zm20.44 22.646 2.51-3.109a93.78 93.78 0 0 0 8.96 6.415l-2.14 3.382a97.69 97.69 0 0 1-9.33-6.688Zm26.41 15.273 1.44-3.732c3.4 1.314 6.9 2.437 10.49 3.355l-.99 3.875a97.738 97.738 0 0 1-10.94-3.498Zm29.83 6.424.22-3.993a97.267 97.267 0 0 0 11.04 0l.22 3.993a100.113 100.113 0 0 1-11.48 0Zm30.37-2.926-.99-3.875a93.015 93.015 0 0 0 10.49-3.355l1.44 3.732c-3.55 1.37-7.2 2.54-10.94 3.498Zm28.02-12.083-2.14-3.382a93.78 93.78 0 0 0 8.96-6.415l2.51 3.109a97.69 97.69 0 0 1-9.33 6.688Zm22.95-20.101-3.07-2.563a92.213 92.213 0 0 0 6.54-8.854l3.35 2.184a97.175 97.175 0 0 1-6.82 9.233Zm15.62-26.203-3.72-1.479a90.548 90.548 0 0 0 3.45-10.448l3.87 1.022a96.05 96.05 0 0 1-3.6 10.905ZM1690.84 578.744l-4-.228c.11-1.825.16-3.664.16-5.516 0-1.852-.05-3.691-.16-5.516l4-.228c.1 1.901.16 3.816.16 5.744s-.06 3.843-.16 5.744Zm-2.93-30.377-3.87.993a94.978 94.978 0 0 0-3.36-10.492l3.73-1.439a98.328 98.328 0 0 1 3.5 10.938Zm-12.08-28.017-3.38 2.136a94.107 94.107 0 0 0-6.42-8.951l3.11-2.516c2.4 2.97 4.64 6.086 6.69 9.331Zm-20.1-22.951-2.57 3.071a92.623 92.623 0 0 0-8.85-6.543l2.18-3.351a96.883 96.883 0 0 1 9.24 6.823Zm-26.21-15.619-1.48 3.717a91.44 91.44 0 0 0-10.44-3.446l1.02-3.867c3.73.985 7.36 2.188 10.9 3.596Zm-29.78-6.611-.23 3.993a93.947 93.947 0 0 0-11.02 0l-.23-3.993a97.438 97.438 0 0 1 11.48 0Zm-30.36 3.015 1.02 3.867a91.44 91.44 0 0 0-10.44 3.446l-1.48-3.717a95.295 95.295 0 0 1 10.9-3.596Zm-27.87 12.392 2.18 3.351a92.623 92.623 0 0 0-8.85 6.543l-2.57-3.071a96.883 96.883 0 0 1 9.24-6.823Zm-22.65 20.443 3.11 2.516a94.107 94.107 0 0 0-6.42 8.951l-3.38-2.136a98.898 98.898 0 0 1 6.69-9.331Zm-15.27 26.41 3.73 1.439a94.978 94.978 0 0 0-3.36 10.492l-3.87-.993a98.328 98.328 0 0 1 3.5-10.938Zm-6.43 29.827c-.1 1.901-.16 3.816-.16 5.744s.06 3.843.16 5.744l4-.228A91.684 91.684 0 0 1 1501 573c0-1.852.05-3.691.16-5.516l-4-.228Zm2.93 30.377 3.87-.993a94.978 94.978 0 0 0 3.36 10.492l-3.73 1.439a98.328 98.328 0 0 1-3.5-10.938Zm12.08 28.017 3.38-2.136a94.107 94.107 0 0 0 6.42 8.951l-3.11 2.516a98.898 98.898 0 0 1-6.69-9.331Zm20.1 22.951 2.57-3.071a92.623 92.623 0 0 0 8.85 6.543l-2.18 3.351a96.883 96.883 0 0 1-9.24-6.823Zm26.21 15.619 1.48-3.717a91.44 91.44 0 0 0 10.44 3.446l-1.02 3.867a95.295 95.295 0 0 1-10.9-3.596Zm29.78 6.611.23-3.993a93.947 93.947 0 0 0 11.02 0l.23 3.993a97.438 97.438 0 0 1-11.48 0Zm30.36-3.015-1.02-3.867a91.44 91.44 0 0 0 10.44-3.446l1.48 3.717a95.295 95.295 0 0 1-10.9 3.596Zm27.87-12.392a96.883 96.883 0 0 0 9.24-6.823l-2.57-3.071a92.623 92.623 0 0 1-8.85 6.543l2.18 3.351Zm22.65-20.443-3.11-2.516a94.107 94.107 0 0 0 6.42-8.951l3.38 2.136a98.898 98.898 0 0 1-6.69 9.331Zm15.27-26.41-3.73-1.439a94.978 94.978 0 0 0 3.36-10.492l3.87.993a98.328 98.328 0 0 1-3.5 10.938ZM1046 618.48c-4.93-.937-8.67-5.272-8.67-10.48 0-5.891 4.78-10.667 10.67-10.667s10.67 4.776 10.67 10.667c0 5.208-3.73 9.543-8.67 10.48V754h-4V618.48Z" clip-rule="evenodd"/><path fill="#FF6D7F" fill-rule="evenodd" d="M521.001 582.98c-4.935-.937-8.667-5.272-8.667-10.48 0-5.891 4.776-10.667 10.667-10.667s10.666 4.776 10.666 10.667c0 5.208-3.731 9.543-8.666 10.48V754h-4V582.98Z" clip-rule="evenodd"/><circle cx="73" cy="76" r="24" fill="#D2E3FC"/><path fill="#1A73E8" d="M70.983 83.464V65.176h-.648l-2.376 8.64h-4.537v-.432L66.448 62.8h9.287v20.664H82V88H63.855v-4.536h7.128ZM117.604 75.904h11.232V88h-2.808v-3.024h-.432c-.408 1.056-1.128 1.908-2.16 2.556-1.032.648-2.232.972-3.6.972-2.712 0-4.848-.876-6.408-2.628-1.536-1.752-2.304-4.308-2.304-7.668v-5.616c0-3.264.78-5.796 2.34-7.596 1.56-1.8 3.732-2.7 6.516-2.7 1.44 0 2.712.24 3.816.72 1.104.456 2.028 1.104 2.772 1.944.744.816 1.308 1.788 1.692 2.916.384 1.104.576 2.292.576 3.564v.432h-3.024v-.432a7.92 7.92 0 0 0-.36-2.376 5.383 5.383 0 0 0-1.044-2.016c-.456-.6-1.056-1.068-1.8-1.404-.72-.36-1.596-.54-2.628-.54-1.944 0-3.408.708-4.392 2.124-.96 1.416-1.44 3.276-1.44 5.58v5.184c0 2.472.48 4.38 1.44 5.724.984 1.32 2.472 1.98 4.464 1.98 1.8 0 3.204-.576 4.212-1.728 1.032-1.152 1.548-2.76 1.548-4.824v-.432h-8.208v-2.808ZM134.427 62.8h15.264v2.808h-12.24v8.352h12.024v2.808h-12.024v8.424h12.456V88h-15.48V62.8Zm20.819 9.792c0-3.264.78-5.796 2.34-7.596 1.56-1.8 3.732-2.7 6.516-2.7s4.956.9 6.516 2.7c1.56 1.8 2.34 4.332 2.34 7.596v5.616c0 3.36-.78 5.916-2.34 7.668-1.56 1.752-3.732 2.628-6.516 2.628s-4.956-.876-6.516-2.628c-1.56-1.752-2.34-4.308-2.34-7.668v-5.616Zm8.856 13.104c1.944 0 3.396-.66 4.356-1.98.984-1.344 1.476-3.252 1.476-5.724v-5.184c0-2.304-.492-4.164-1.476-5.58-.96-1.416-2.412-2.124-4.356-2.124s-3.408.708-4.392 2.124c-.96 1.416-1.44 3.276-1.44 5.58v5.184c0 2.472.48 4.38 1.44 5.724.984 1.32 2.448 1.98 4.392 1.98ZM176.785 62.8h5.76l3.384 23.904h.432l3.384-23.904h5.76V88h-2.808V64.096h-.432L188.881 88h-5.472l-3.384-23.904h-.432V88h-2.808V62.8Zm23.771 0h15.264v2.808h-12.24v8.352h12.024v2.808H203.58v8.424h12.456V88h-15.48V62.8Zm20.819 0h17.712v2.808h-7.344V88h-3.024V65.608h-7.344V62.8ZM260.158 88h-3.024v-8.424c0-.624-.144-1.104-.432-1.44-.288-.336-.792-.504-1.512-.504h-7.848V88h-3.024V62.8h9c1.296 0 2.424.192 3.384.576.96.36 1.752.852 2.376 1.476a5.83 5.83 0 0 1 1.44 2.196 6.74 6.74 0 0 1 .504 2.592v1.08c0 .936-.264 1.872-.792 2.808-.504.936-1.296 1.656-2.376 2.16v.432c.72.12 1.284.408 1.692.864.408.456.612 1.104.612 1.944V88Zm-12.816-13.176h5.616c1.704 0 2.964-.36 3.78-1.08.84-.744 1.26-1.824 1.26-3.24v-.648c0-1.272-.42-2.292-1.26-3.06-.816-.792-2.076-1.188-3.78-1.188h-5.616v9.216ZM266.325 62.8h15.984v2.808h-6.48v19.584h6.48V88h-15.984v-2.808h6.48V65.608h-6.48V62.8Zm30.179 22.896c1.032 0 1.908-.168 2.628-.504.744-.36 1.344-.828 1.8-1.404a5.77 5.77 0 0 0 1.044-2.016 8.04 8.04 0 0 0 .36-2.412v-.432h3.024v.432c0 1.272-.192 2.472-.576 3.6a8.618 8.618 0 0 1-1.692 2.916c-.744.816-1.668 1.464-2.772 1.944-1.104.456-2.376.684-3.816.684-2.784 0-4.956-.876-6.516-2.628-1.56-1.752-2.34-4.308-2.34-7.668v-5.616c0-3.264.78-5.796 2.34-7.596 1.56-1.8 3.732-2.7 6.516-2.7 1.44 0 2.712.24 3.816.72 1.104.456 2.028 1.104 2.772 1.944.744.816 1.308 1.788 1.692 2.916.384 1.104.576 2.292.576 3.564v.432h-3.024v-.432a8.795 8.795 0 0 0-.396-2.376 5.383 5.383 0 0 0-1.044-2.016 4.636 4.636 0 0 0-1.764-1.404c-.72-.36-1.596-.54-2.628-.54-1.944 0-3.408.708-4.392 2.124-.96 1.416-1.44 3.276-1.44 5.58v5.184c0 2.472.48 4.38 1.44 5.724.984 1.32 2.448 1.98 4.392 1.98Z"/><circle cx="366" cy="76" r="24" fill="#D2E3FC"/><path fill="#1A73E8" d="M374.531 83.464V88h-17.712v-4.968c0-1.32.192-2.448.576-3.384a6.811 6.811 0 0 1 1.692-2.376c.744-.648 1.632-1.176 2.664-1.584 1.032-.432 2.196-.792 3.492-1.08.96-.216 1.74-.456 2.34-.72.624-.288 1.116-.6 1.476-.936.36-.36.6-.744.72-1.152.144-.432.216-.912.216-1.44 0-1.008-.372-1.848-1.116-2.52-.72-.672-1.728-1.008-3.024-1.008-1.368 0-2.46.42-3.276 1.26-.816.816-1.224 1.956-1.224 3.42v1.584h-4.752V71.08c0-1.176.204-2.292.612-3.348a8.541 8.541 0 0 1 1.8-2.808c.792-.816 1.752-1.452 2.88-1.908 1.128-.48 2.4-.72 3.816-.72 1.512 0 2.832.228 3.96.684 1.128.432 2.064 1.008 2.808 1.728a6.588 6.588 0 0 1 1.692 2.52c.384.936.576 1.908.576 2.916v.432c0 2.112-.6 3.864-1.8 5.256-1.176 1.392-3.108 2.4-5.796 3.024-1.128.264-2.064.54-2.808.828-.72.264-1.284.564-1.692.9-.408.336-.696.708-.864 1.116-.144.384-.216.828-.216 1.332v.432h12.96ZM405.132 62.8h3.024v22.392h13.176V88h-16.2V62.8Zm21.935 0h15.984v2.808h-6.48v19.584h6.48V88h-15.984v-2.808h6.48V65.608h-6.48V62.8Zm34.967 23.904h.432V62.8h3.024V88h-6.048l-7.272-23.904h-.432V88h-3.024V62.8h6.048l7.272 23.904Zm9.479-23.904h15.264v2.808h-12.24v8.352h12.024v2.808h-12.024v8.424h12.456V88h-15.48V62.8Zm35.075 18.936h-10.8L493.952 88h-3.24l7.632-25.2h5.688l7.632 25.2h-3.24l-1.836-6.264Zm-5.616-17.64-4.356 14.832h9.144l-4.356-14.832h-.432ZM531.115 88h-3.024v-8.424c0-.624-.144-1.104-.432-1.44-.288-.336-.792-.504-1.512-.504h-7.848V88h-3.024V62.8h9c1.296 0 2.424.192 3.384.576.96.36 1.752.852 2.376 1.476a5.83 5.83 0 0 1 1.44 2.196 6.74 6.74 0 0 1 .504 2.592v1.08c0 .936-.264 1.872-.792 2.808-.504.936-1.296 1.656-2.376 2.16v.432c.72.12 1.284.408 1.692.864.408.456.612 1.104.612 1.944V88Zm-12.816-13.176h5.616c1.704 0 2.964-.36 3.78-1.08.84-.744 1.26-1.824 1.26-3.24v-.648c0-1.272-.42-2.292-1.26-3.06-.816-.792-2.076-1.188-3.78-1.188h-5.616v9.216Zm54.958-4.752c0-.816-.168-1.536-.504-2.16a4.27 4.27 0 0 0-1.296-1.548 6.154 6.154 0 0 0-1.908-.936 7.85 7.85 0 0 0-2.268-.324c-.696 0-1.356.096-1.98.288a5.694 5.694 0 0 0-1.692.756c-.48.336-.864.756-1.152 1.26-.288.48-.432 1.044-.432 1.692v.216c0 .696.144 1.296.432 1.8.288.48.708.9 1.26 1.26.576.336 1.284.624 2.124.864.84.216 1.824.408 2.952.576 2.64.408 4.584 1.188 5.832 2.34 1.248 1.128 1.872 2.652 1.872 4.572v.432c0 1.08-.192 2.076-.576 2.988a6.023 6.023 0 0 1-1.656 2.304c-.72.648-1.62 1.152-2.7 1.512-1.08.36-2.328.54-3.744.54-1.608 0-3.036-.228-4.284-.684-1.224-.48-2.256-1.128-3.096-1.944a8.68 8.68 0 0 1-1.872-2.916c-.432-1.128-.648-2.352-.648-3.672v-1.08h3.024v.864c0 2.208.6 3.864 1.8 4.968 1.224 1.104 2.916 1.656 5.076 1.656 1.872 0 3.276-.408 4.212-1.224.96-.84 1.44-1.944 1.44-3.312v-.216c0-1.32-.492-2.328-1.476-3.024-.96-.696-2.532-1.2-4.716-1.512-1.272-.168-2.424-.42-3.456-.756-1.008-.36-1.872-.816-2.592-1.368a5.91 5.91 0 0 1-1.656-2.052c-.384-.792-.576-1.728-.576-2.808v-.432c0-.984.204-1.884.612-2.7a6.563 6.563 0 0 1 1.692-2.124c.744-.6 1.62-1.056 2.628-1.368 1.032-.336 2.16-.504 3.384-.504 1.416 0 2.676.204 3.78.612 1.128.408 2.076.96 2.844 1.656a6.386 6.386 0 0 1 1.728 2.412c.408.912.612 1.872.612 2.88v1.512h-3.024v-1.296Zm21.503 11.664h-10.8L582.124 88h-3.24l7.632-25.2h5.688l7.632 25.2h-3.24l-1.836-6.264Zm-5.616-17.64-4.356 14.832h9.144l-4.356-14.832h-.432Zm27.191 22.608h.432V62.8h3.024V88h-6.048l-7.272-23.904h-.432V88h-3.024V62.8h6.048l7.272 23.904Zm23.051-16.632c0-.816-.168-1.536-.504-2.16a4.27 4.27 0 0 0-1.296-1.548 6.154 6.154 0 0 0-1.908-.936 7.85 7.85 0 0 0-2.268-.324c-.696 0-1.356.096-1.98.288a5.694 5.694 0 0 0-1.692.756c-.48.336-.864.756-1.152 1.26-.288.48-.432 1.044-.432 1.692v.216c0 .696.144 1.296.432 1.8.288.48.708.9 1.26 1.26.576.336 1.284.624 2.124.864.84.216 1.824.408 2.952.576 2.64.408 4.584 1.188 5.832 2.34 1.248 1.128 1.872 2.652 1.872 4.572v.432c0 1.08-.192 2.076-.576 2.988a6.023 6.023 0 0 1-1.656 2.304c-.72.648-1.62 1.152-2.7 1.512-1.08.36-2.328.54-3.744.54-1.608 0-3.036-.228-4.284-.684-1.224-.48-2.256-1.128-3.096-1.944a8.68 8.68 0 0 1-1.872-2.916c-.432-1.128-.648-2.352-.648-3.672v-1.08h3.024v.864c0 2.208.6 3.864 1.8 4.968 1.224 1.104 2.916 1.656 5.076 1.656 1.872 0 3.276-.408 4.212-1.224.96-.84 1.44-1.944 1.44-3.312v-.216c0-1.32-.492-2.328-1.476-3.024-.96-.696-2.532-1.2-4.716-1.512-1.272-.168-2.424-.42-3.456-.756-1.008-.36-1.872-.816-2.592-1.368a5.91 5.91 0 0 1-1.656-2.052c-.384-.792-.576-1.728-.576-2.808v-.432c0-.984.204-1.884.612-2.7a6.563 6.563 0 0 1 1.692-2.124c.744-.6 1.62-1.056 2.628-1.368 1.032-.336 2.16-.504 3.384-.504 1.416 0 2.676.204 3.78.612 1.128.408 2.076.96 2.844 1.656a6.386 6.386 0 0 1 1.728 2.412c.408.912.612 1.872.612 2.88v1.512h-3.024v-1.296Z"/></svg>