<svg xmlns="http://www.w3.org/2000/svg" width="1920" height="1080" fill="none"><circle cx="73" cy="76" r="24" fill="#D2E3FC"/><path fill="#1A73E8" d="M70.983 83.464V65.176h-.648l-2.376 8.64h-4.537v-.432L66.448 62.8h9.287v20.664H82V88H63.855v-4.536h7.128ZM117.604 75.904h11.232V88h-2.808v-3.024h-.432c-.408 1.056-1.128 1.908-2.16 2.556-1.032.648-2.232.972-3.6.972-2.712 0-4.848-.876-6.408-2.628-1.536-1.752-2.304-4.308-2.304-7.668v-5.616c0-3.264.78-5.796 2.34-7.596 1.56-1.8 3.732-2.7 6.516-2.7 1.44 0 2.712.24 3.816.72 1.104.456 2.028 1.104 2.772 1.944.744.816 1.308 1.788 1.692 2.916.384 1.104.576 2.292.576 3.564v.432h-3.024v-.432a7.92 7.92 0 0 0-.36-2.376 5.383 5.383 0 0 0-1.044-2.016c-.456-.6-1.056-1.068-1.8-1.404-.72-.36-1.596-.54-2.628-.54-1.944 0-3.408.708-4.392 2.124-.96 1.416-1.44 3.276-1.44 5.58v5.184c0 2.472.48 4.38 1.44 5.724.984 1.32 2.472 1.98 4.464 1.98 1.8 0 3.204-.576 4.212-1.728 1.032-1.152 1.548-2.76 1.548-4.824v-.432h-8.208v-2.808ZM134.427 62.8h15.264v2.808h-12.24v8.352h12.024v2.808h-12.024v8.424h12.456V88h-15.48V62.8Zm20.819 9.792c0-3.264.78-5.796 2.34-7.596 1.56-1.8 3.732-2.7 6.516-2.7s4.956.9 6.516 2.7c1.56 1.8 2.34 4.332 2.34 7.596v5.616c0 3.36-.78 5.916-2.34 7.668-1.56 1.752-3.732 2.628-6.516 2.628s-4.956-.876-6.516-2.628c-1.56-1.752-2.34-4.308-2.34-7.668v-5.616Zm8.856 13.104c1.944 0 3.396-.66 4.356-1.98.984-1.344 1.476-3.252 1.476-5.724v-5.184c0-2.304-.492-4.164-1.476-5.58-.96-1.416-2.412-2.124-4.356-2.124s-3.408.708-4.392 2.124c-.96 1.416-1.44 3.276-1.44 5.58v5.184c0 2.472.48 4.38 1.44 5.724.984 1.32 2.448 1.98 4.392 1.98ZM176.785 62.8h5.76l3.384 23.904h.432l3.384-23.904h5.76V88h-2.808V64.096h-.432L188.881 88h-5.472l-3.384-23.904h-.432V88h-2.808V62.8Zm23.771 0h15.264v2.808h-12.24v8.352h12.024v2.808H203.58v8.424h12.456V88h-15.48V62.8Zm20.819 0h17.712v2.808h-7.344V88h-3.024V65.608h-7.344V62.8ZM260.158 88h-3.024v-8.424c0-.624-.144-1.104-.432-1.44-.288-.336-.792-.504-1.512-.504h-7.848V88h-3.024V62.8h9c1.296 0 2.424.192 3.384.576.96.36 1.752.852 2.376 1.476a5.83 5.83 0 0 1 1.44 2.196 6.74 6.74 0 0 1 .504 2.592v1.08c0 .936-.264 1.872-.792 2.808-.504.936-1.296 1.656-2.376 2.16v.432c.72.12 1.284.408 1.692.864.408.456.612 1.104.612 1.944V88Zm-12.816-13.176h5.616c1.704 0 2.964-.36 3.78-1.08.84-.744 1.26-1.824 1.26-3.24v-.648c0-1.272-.42-2.292-1.26-3.06-.816-.792-2.076-1.188-3.78-1.188h-5.616v9.216ZM266.325 62.8h15.984v2.808h-6.48v19.584h6.48V88h-15.984v-2.808h6.48V65.608h-6.48V62.8Zm30.179 22.896c1.032 0 1.908-.168 2.628-.504.744-.36 1.344-.828 1.8-1.404a5.77 5.77 0 0 0 1.044-2.016 8.04 8.04 0 0 0 .36-2.412v-.432h3.024v.432c0 1.272-.192 2.472-.576 3.6a8.618 8.618 0 0 1-1.692 2.916c-.744.816-1.668 1.464-2.772 1.944-1.104.456-2.376.684-3.816.684-2.784 0-4.956-.876-6.516-2.628-1.56-1.752-2.34-4.308-2.34-7.668v-5.616c0-3.264.78-5.796 2.34-7.596 1.56-1.8 3.732-2.7 6.516-2.7 1.44 0 2.712.24 3.816.72 1.104.456 2.028 1.104 2.772 1.944.744.816 1.308 1.788 1.692 2.916.384 1.104.576 2.292.576 3.564v.432h-3.024v-.432a8.795 8.795 0 0 0-.396-2.376 5.383 5.383 0 0 0-1.044-2.016 4.636 4.636 0 0 0-1.764-1.404c-.72-.36-1.596-.54-2.628-.54-1.944 0-3.408.708-4.392 2.124-.96 1.416-1.44 3.276-1.44 5.58v5.184c0 2.472.48 4.38 1.44 5.724.984 1.32 2.448 1.98 4.392 1.98Z"/><circle cx="366" cy="76" r="24" fill="#D2E3FC"/><path fill="#1A73E8" d="M374.531 83.464V88h-17.712v-4.968c0-1.32.192-2.448.576-3.384a6.811 6.811 0 0 1 1.692-2.376c.744-.648 1.632-1.176 2.664-1.584 1.032-.432 2.196-.792 3.492-1.08.96-.216 1.74-.456 2.34-.72.624-.288 1.116-.6 1.476-.936.36-.36.6-.744.72-1.152.144-.432.216-.912.216-1.44 0-1.008-.372-1.848-1.116-2.52-.72-.672-1.728-1.008-3.024-1.008-1.368 0-2.46.42-3.276 1.26-.816.816-1.224 1.956-1.224 3.42v1.584h-4.752V71.08c0-1.176.204-2.292.612-3.348a8.541 8.541 0 0 1 1.8-2.808c.792-.816 1.752-1.452 2.88-1.908 1.128-.48 2.4-.72 3.816-.72 1.512 0 2.832.228 3.96.684 1.128.432 2.064 1.008 2.808 1.728a6.588 6.588 0 0 1 1.692 2.52c.384.936.576 1.908.576 2.916v.432c0 2.112-.6 3.864-1.8 5.256-1.176 1.392-3.108 2.4-5.796 3.024-1.128.264-2.064.54-2.808.828-.72.264-1.284.564-1.692.9-.408.336-.696.708-.864 1.116-.144.384-.216.828-.216 1.332v.432h12.96ZM413.16 85.696c1.032 0 1.908-.168 2.628-.504.744-.36 1.344-.828 1.8-1.404a5.77 5.77 0 0 0 1.044-2.016 8.04 8.04 0 0 0 .36-2.412v-.432h3.024v.432c0 1.272-.192 2.472-.576 3.6a8.618 8.618 0 0 1-1.692 2.916c-.744.816-1.668 1.464-2.772 1.944-1.104.456-2.376.684-3.816.684-2.784 0-4.956-.876-6.516-2.628-1.56-1.752-2.34-4.308-2.34-7.668v-5.616c0-3.264.78-5.796 2.34-7.596 1.56-1.8 3.732-2.7 6.516-2.7 1.44 0 2.712.24 3.816.72 1.104.456 2.028 1.104 2.772 1.944.744.816 1.308 1.788 1.692 2.916.384 1.104.576 2.292.576 3.564v.432h-3.024v-.432a8.795 8.795 0 0 0-.396-2.376 5.383 5.383 0 0 0-1.044-2.016 4.636 4.636 0 0 0-1.764-1.404c-.72-.36-1.596-.54-2.628-.54-1.944 0-3.408.708-4.392 2.124-.96 1.416-1.44 3.276-1.44 5.58v5.184c0 2.472.48 4.38 1.44 5.724.984 1.32 2.448 1.98 4.392 1.98Zm13.043-13.104c0-3.264.78-5.796 2.34-7.596 1.56-1.8 3.732-2.7 6.516-2.7s4.956.9 6.516 2.7c1.56 1.8 2.34 4.332 2.34 7.596v5.616c0 3.36-.78 5.916-2.34 7.668-1.56 1.752-3.732 2.628-6.516 2.628s-4.956-.876-6.516-2.628c-1.56-1.752-2.34-4.308-2.34-7.668v-5.616Zm8.856 13.104c1.944 0 3.396-.66 4.356-1.98.984-1.344 1.476-3.252 1.476-5.724v-5.184c0-2.304-.492-4.164-1.476-5.58-.96-1.416-2.412-2.124-4.356-2.124s-3.408.708-4.392 2.124c-.96 1.416-1.44 3.276-1.44 5.58v5.184c0 2.472.48 4.38 1.44 5.724.984 1.32 2.448 1.98 4.392 1.98Zm26.975 1.008h.432V62.8h3.024V88h-6.048l-7.272-23.904h-.432V88h-3.024V62.8h6.048l7.272 23.904Zm8.255-23.904h17.712v2.808h-7.344V88h-3.024V65.608h-7.344V62.8ZM509.072 88h-3.024v-8.424c0-.624-.144-1.104-.432-1.44-.288-.336-.792-.504-1.512-.504h-7.848V88h-3.024V62.8h9c1.296 0 2.424.192 3.384.576.96.36 1.752.852 2.376 1.476a5.83 5.83 0 0 1 1.44 2.196 6.74 6.74 0 0 1 .504 2.592v1.08c0 .936-.264 1.872-.792 2.808-.504.936-1.296 1.656-2.376 2.16v.432c.72.12 1.284.408 1.692.864.408.456.612 1.104.612 1.944V88Zm-12.816-13.176h5.616c1.704 0 2.964-.36 3.78-1.08.84-.744 1.26-1.824 1.26-3.24v-.648c0-1.272-.42-2.292-1.26-3.06-.816-.792-2.076-1.188-3.78-1.188h-5.616v9.216Zm32.375 6.912h-10.8L515.995 88h-3.24l7.632-25.2h5.688l7.632 25.2h-3.24l-1.836-6.264Zm-5.616-17.64-4.356 14.832h9.144l-4.356-14.832h-.432Zm28.199 5.976c0-.816-.168-1.536-.504-2.16a4.27 4.27 0 0 0-1.296-1.548 6.154 6.154 0 0 0-1.908-.936 7.85 7.85 0 0 0-2.268-.324c-.696 0-1.356.096-1.98.288a5.694 5.694 0 0 0-1.692.756c-.48.336-.864.756-1.152 1.26-.288.48-.432 1.044-.432 1.692v.216c0 .696.144 1.296.432 1.8.288.48.708.9 1.26 1.26.576.336 1.284.624 2.124.864.84.216 1.824.408 2.952.576 2.64.408 4.584 1.188 5.832 2.34 1.248 1.128 1.872 2.652 1.872 4.572v.432c0 1.08-.192 2.076-.576 2.988a6.023 6.023 0 0 1-1.656 2.304c-.72.648-1.62 1.152-2.7 1.512-1.08.36-2.328.54-3.744.54-1.608 0-3.036-.228-4.284-.684-1.224-.48-2.256-1.128-3.096-1.944a8.68 8.68 0 0 1-1.872-2.916c-.432-1.128-.648-2.352-.648-3.672v-1.08h3.024v.864c0 2.208.6 3.864 1.8 4.968 1.224 1.104 2.916 1.656 5.076 1.656 1.872 0 3.276-.408 4.212-1.224.96-.84 1.44-1.944 1.44-3.312v-.216c0-1.32-.492-2.328-1.476-3.024-.96-.696-2.532-1.2-4.716-1.512-1.272-.168-2.424-.42-3.456-.756-1.008-.36-1.872-.816-2.592-1.368a5.91 5.91 0 0 1-1.656-2.052c-.384-.792-.576-1.728-.576-2.808v-.432c0-.984.204-1.884.612-2.7a6.563 6.563 0 0 1 1.692-2.124c.744-.6 1.62-1.056 2.628-1.368 1.032-.336 2.16-.504 3.384-.504 1.416 0 2.676.204 3.78.612 1.128.408 2.076.96 2.844 1.656a6.386 6.386 0 0 1 1.728 2.412c.408.912.612 1.872.612 2.88v1.512h-3.024v-1.296Zm7.247-7.272h17.712v2.808h-7.344V88h-3.024V65.608h-7.344V62.8Zm22.907 0h15.984v2.808h-6.48v19.584h6.48V88h-15.984v-2.808h6.48V65.608h-6.48V62.8Zm34.967 23.904h.432V62.8h3.024V88h-6.048l-7.272-23.904h-.432V88h-3.024V62.8h6.048l7.272 23.904Zm14.699-10.8h11.232V88h-2.808v-3.024h-.432c-.408 1.056-1.128 1.908-2.16 2.556-1.032.648-2.232.972-3.6.972-2.712 0-4.848-.876-6.408-2.628-1.536-1.752-2.304-4.308-2.304-7.668v-5.616c0-3.264.78-5.796 2.34-7.596 1.56-1.8 3.732-2.7 6.516-2.7 1.44 0 2.712.24 3.816.72 1.104.456 2.028 1.104 2.772 1.944.744.816 1.308 1.788 1.692 2.916.384 1.104.576 2.292.576 3.564v.432h-3.024v-.432a7.92 7.92 0 0 0-.36-2.376 5.383 5.383 0 0 0-1.044-2.016c-.456-.6-1.056-1.068-1.8-1.404-.72-.36-1.596-.54-2.628-.54-1.944 0-3.408.708-4.392 2.124-.96 1.416-1.44 3.276-1.44 5.58v5.184c0 2.472.48 4.38 1.44 5.724.984 1.32 2.472 1.98 4.464 1.98 1.8 0 3.204-.576 4.212-1.728 1.032-1.152 1.548-2.76 1.548-4.824v-.432h-8.208v-2.808Zm52.438-5.832c0-.816-.168-1.536-.504-2.16a4.27 4.27 0 0 0-1.296-1.548 6.154 6.154 0 0 0-1.908-.936 7.85 7.85 0 0 0-2.268-.324c-.696 0-1.356.096-1.98.288a5.694 5.694 0 0 0-1.692.756c-.48.336-.864.756-1.152 1.26-.288.48-.432 1.044-.432 1.692v.216c0 .696.144 1.296.432 1.8.288.48.708.9 1.26 1.26.576.336 1.284.624 2.124.864.84.216 1.824.408 2.952.576 2.64.408 4.584 1.188 5.832 2.34 1.248 1.128 1.872 2.652 1.872 4.572v.432c0 1.08-.192 2.076-.576 2.988a6.023 6.023 0 0 1-1.656 2.304c-.72.648-1.62 1.152-2.7 1.512-1.08.36-2.328.54-3.744.54-1.608 0-3.036-.228-4.284-.684-1.224-.48-2.256-1.128-3.096-1.944a8.68 8.68 0 0 1-1.872-2.916c-.432-1.128-.648-2.352-.648-3.672v-1.08h3.024v.864c0 2.208.6 3.864 1.8 4.968 1.224 1.104 2.916 1.656 5.076 1.656 1.872 0 3.276-.408 4.212-1.224.96-.84 1.44-1.944 1.44-3.312v-.216c0-1.32-.492-2.328-1.476-3.024-.96-.696-2.532-1.2-4.716-1.512-1.272-.168-2.424-.42-3.456-.756-1.008-.36-1.872-.816-2.592-1.368a5.91 5.91 0 0 1-1.656-2.052c-.384-.792-.576-1.728-.576-2.808v-.432c0-.984.204-1.884.612-2.7a6.563 6.563 0 0 1 1.692-2.124c.744-.6 1.62-1.056 2.628-1.368 1.032-.336 2.16-.504 3.384-.504 1.416 0 2.676.204 3.78.612 1.128.408 2.076.96 2.844 1.656a6.386 6.386 0 0 1 1.728 2.412c.408.912.612 1.872.612 2.88v1.512h-3.024v-1.296Zm8.471-7.272h15.264v2.808h-12.24v8.352h12.024v2.808h-12.024v8.424h12.456V88h-15.48V62.8ZM729.502 88h-3.024v-8.424c0-.624-.144-1.104-.432-1.44-.288-.336-.792-.504-1.512-.504h-7.848V88h-3.024V62.8h9c1.296 0 2.424.192 3.384.576.96.36 1.752.852 2.376 1.476a5.83 5.83 0 0 1 1.44 2.196 6.74 6.74 0 0 1 .504 2.592v1.08c0 .936-.264 1.872-.792 2.808-.504.936-1.296 1.656-2.376 2.16v.432c.72.12 1.284.408 1.692.864.408.456.612 1.104.612 1.944V88Zm-12.816-13.176h5.616c1.704 0 2.964-.36 3.78-1.08.84-.744 1.26-1.824 1.26-3.24v-.648c0-1.272-.42-2.292-1.26-3.06-.816-.792-2.076-1.188-3.78-1.188h-5.616v9.216ZM735.669 62.8h15.984v2.808h-6.48v19.584h6.48V88h-15.984v-2.808h6.48V65.608h-6.48V62.8Zm22.439 0h15.48v2.808h-12.456v8.352h12.24v2.808h-12.24V88h-3.024V62.8Z"/><path fill="#3C4043" d="M280.23 429.751v105.911h34.495c17.103 0 30.45-5.142 40.042-15.427 9.707-10.285 14.56-23.285 14.56-39.002 0-15.947-5.027-28.485-15.08-37.614-9.939-9.245-25.019-13.868-45.242-13.868H280.23ZM216.441 657v-14.907h31.895V429.751h-31.895v-14.907h104.351c11.209 0 21.552 1.156 31.028 3.467 9.476 2.311 18.201 6.009 26.174 11.094 7.974 4.969 14.214 11.902 18.721 20.801 4.507 8.898 6.76 19.356 6.76 31.374 0 16.063-5.258 29.641-15.774 40.735-10.516 10.978-23.863 18.258-40.041 21.841 4.044 3.467 8.262 8.551 12.653 15.254 4.507 6.587 9.65 14.791 15.428 24.614 5.778 9.707 10.747 17.565 14.907 23.574.924 1.387 2.369 3.64 4.333 6.76a551.5 551.5 0 0 1 4.681 7.107c1.155 1.503 2.715 3.525 4.68 6.067 1.964 2.427 3.755 4.334 5.373 5.72 1.734 1.272 3.756 2.658 6.067 4.161a28.897 28.897 0 0 0 7.28 3.12c2.658.578 5.49.866 8.494.866h3.12V657h-20.627c-6.587 0-12.712-1.213-18.374-3.64-5.547-2.427-10.458-5.489-14.734-9.187-4.16-3.814-8.725-9.072-13.694-15.774-4.969-6.703-9.36-13.174-13.174-19.414-3.813-6.356-8.898-14.503-15.254-24.441-6.355-9.938-12.365-18.894-18.027-26.868-3.236-4.738-9.649-7.107-19.241-7.107H280.23v91.524h31.895V657h-95.684ZM593.306 642.093h28.774V657h-57.895v-20.974h-.694c-4.853 8.089-11.845 14.329-20.974 18.721-9.129 4.391-19.414 6.586-30.854 6.586-17.912 0-32.473-5.142-43.682-15.427-11.094-10.4-16.641-24.787-16.641-43.161 0-18.143 5.952-32.473 17.854-42.989 12.019-10.631 27.619-15.947 46.802-15.947 21.148 0 36.748 8.263 46.802 24.788h.693v-36.228c0-11.094-2.773-19.588-8.32-25.481-5.547-6.009-14.849-9.014-27.908-9.014-8.782 0-17.334 2.196-25.654 6.587-8.205 4.391-15.023 9.938-20.454 16.641l-15.254-14.908c9.129-7.28 18.778-12.596 28.948-15.947 10.285-3.351 21.956-5.027 35.014-5.027 42.295 0 63.443 17.508 63.443 52.522v104.351Zm-29.815-26.001v-25.481c0-7.743-4.333-14.618-13-20.628-8.667-6.124-17.565-9.187-26.694-9.187-11.325 0-20.917 3.756-28.775 11.267-7.858 7.512-11.787 16.988-11.787 28.428 0 14.099 3.64 24.903 10.92 32.415 7.281 7.511 16.814 11.267 28.601 11.267 11.21 0 20.801-3.236 28.775-9.707 7.974-6.472 11.96-12.596 11.96-18.374ZM676.359 576.05c0 8.667.751 16.93 2.254 24.788a101.677 101.677 0 0 0 7.453 22.361c3.351 7.049 8.205 12.711 14.561 16.987 6.356 4.16 13.867 6.24 22.534 6.24 10.285 0 19.356-2.889 27.214-8.667 7.858-5.778 13.636-12.769 17.334-20.974 3.698-8.32 5.547-16.929 5.547-25.827V562.53c0-17.681-4.218-32.473-12.654-44.375-8.436-12.018-19.992-18.028-34.668-18.028-7.396 0-14.04 1.561-19.934 4.681-5.893 3.12-10.689 7.164-14.387 12.133-3.582 4.854-6.587 10.69-9.014 17.508-2.311 6.818-3.929 13.636-4.853 20.454-.925 6.702-1.387 13.751-1.387 21.147Zm-23.401 134.512 23.748-18.027c6.24 10.284 12.885 18.258 19.934 23.921 7.049 5.778 15.658 8.667 25.828 8.667 35.014 0 52.522-17.739 52.522-53.216v-44.028h-.694c-11.903 22.303-30.97 33.454-57.202 33.454-10.516 0-20.05-1.733-28.601-5.2-8.551-3.466-15.658-8.031-21.321-13.694-5.547-5.778-10.285-12.48-14.214-20.107-3.813-7.627-6.587-15.427-8.32-23.401-1.618-7.973-2.427-16.178-2.427-24.614 0-11.787 1.618-22.939 4.854-33.455 3.351-10.631 8.204-20.107 14.56-28.427 6.356-8.321 14.561-14.908 24.615-19.761 10.169-4.969 21.551-7.454 34.147-7.454 12.019 0 23.055 2.831 33.108 8.494 10.054 5.547 16.988 13.116 20.801 22.707h.694V489.38h57.895v14.908h-29.814v155.485c0 53.505-28.428 80.257-85.284 80.257-27.85 0-49.459-9.823-64.829-29.468ZM854.229 657v-46.802h17.854v7.801c0 6.818 4.681 13.289 14.041 19.414 9.476 6.009 19.818 9.013 31.028 9.013 4.622 0 9.245-.866 13.867-2.6 4.738-1.733 8.956-4.738 12.654-9.014 3.813-4.391 5.72-9.649 5.72-15.773 0-5.316-1.387-9.939-4.16-13.868-2.774-3.929-6.414-6.991-10.921-9.187-4.506-2.195-9.649-4.333-15.427-6.413a177.703 177.703 0 0 0-17.854-5.374c-6.009-1.618-11.902-3.813-17.68-6.587-5.778-2.773-10.921-5.835-15.428-9.187-4.507-3.466-8.147-8.204-10.92-14.214-2.774-6.009-4.16-12.942-4.16-20.8 0-15.485 5.315-27.388 15.947-35.708 10.631-8.321 24.152-12.481 40.562-12.481 8.089 0 16.12 1.734 24.094 5.2 7.973 3.352 13.52 7.743 16.64 13.174h.694V489.38h17.16v40.562h-17.854v-8.147c0-4.507-4.044-9.245-12.133-14.214-7.974-4.969-17.161-7.454-27.561-7.454-9.592 0-17.334 2.138-23.228 6.414-5.778 4.16-8.667 10.4-8.667 18.721 0 4.969 1.387 9.302 4.16 13 2.889 3.583 6.645 6.414 11.267 8.494 4.623 2.08 9.881 4.16 15.774 6.24a232.854 232.854 0 0 0 18.028 5.547 95.99 95.99 0 0 1 18.2 6.76c5.894 2.774 11.152 5.894 15.774 9.361 4.623 3.466 8.32 8.147 11.094 14.04 2.889 5.894 4.333 12.712 4.333 20.454 0 15.485-5.662 28.081-16.987 37.788-11.209 9.592-24.499 14.387-39.868 14.387-21.263 0-37.326-7.106-48.189-21.32h-.693V657h-17.161ZM1052.55 504.288v114.404c0 9.36.99 16.352 2.95 20.974 1.97 4.507 6.07 6.76 12.31 6.76 4.62 0 8.32-2.022 11.09-6.067 2.77-4.16 4.39-8.667 4.85-13.52h4.17l12.13 11.787v3.813c-3.01 5.201-7.69 9.65-14.04 13.348-6.24 3.698-14.22 5.546-23.92 5.546-13.29 0-23.17-3.293-29.64-9.88-6.48-6.702-9.71-17.623-9.71-32.761V504.288h-27.735V489.38h27.735v-46.801l27.56-15.254 2.25 2.773v59.282h41.78v14.908h-41.78ZM1152.94 545.196c-1.62 8.32-2.43 17.68-2.43 28.081 0 10.4.81 19.818 2.43 28.254 1.73 8.321 4.39 15.948 7.97 22.881 3.59 6.934 8.61 12.365 15.09 16.294 6.47 3.814 14.15 5.72 23.05 5.72s16.58-1.906 23.05-5.72c6.48-3.929 11.5-9.36 15.08-16.294 3.7-6.933 6.36-14.56 7.98-22.881 1.73-8.436 2.6-17.854 2.6-28.254 0-10.401-.87-19.761-2.6-28.081-1.62-8.436-4.28-16.121-7.98-23.054-3.58-6.934-8.6-12.308-15.08-16.121-6.47-3.929-14.15-5.894-23.05-5.894s-16.58 1.965-23.05 5.894c-6.48 3.813-11.5 9.187-15.09 16.121-3.58 6.933-6.24 14.618-7.97 23.054Zm-13.17 91.697c-15.6-16.294-23.4-37.5-23.4-63.616 0-26.117 7.8-47.322 23.4-63.616 15.6-16.294 35.36-24.441 59.28-24.441s43.68 8.147 59.28 24.441c15.72 16.294 23.58 37.499 23.58 63.616 0 26.116-7.86 47.322-23.58 63.616-15.6 16.294-35.36 24.44-59.28 24.44s-43.68-8.146-59.28-24.44ZM1328.9 642.093V504.288h-28.77V489.38h58.59v26.348h.69c11.1-20.339 29.82-30.508 56.16-30.508 7.17 0 13.93.925 20.29 2.774 6.35 1.849 12.19 4.622 17.5 8.32 5.32 3.698 9.48 8.783 12.48 15.254 3.12 6.356 4.68 13.751 4.68 22.187v108.338h28.78V657h-87.37v-14.907h28.78V539.129c0-10.4-3.12-18.779-9.36-25.134-6.13-6.472-14.56-9.707-25.31-9.707-13.75 0-25.08 4.911-33.97 14.733-8.9 9.708-13.35 21.379-13.35 35.015v88.057h28.77V657h-87.36v-14.907h28.77ZM1680.46 577.437h-128.44c0 23.343 5.37 40.677 16.12 52.002 10.74 11.325 25.48 16.987 44.2 16.987 11.55 0 22.13-2.831 31.72-8.493 9.71-5.663 17.97-13.521 24.79-23.575l14.56 12.134c-4.97 7.974-11.9 14.676-20.8 20.108-8.79 5.431-17.91 9.244-27.39 11.44-9.36 2.196-19.01 3.293-28.95 3.293-18.83 0-35.01-3.813-48.53-11.44-13.41-7.742-23.4-18.143-29.99-31.201-6.59-13.174-9.88-28.312-9.88-45.415 0-26.117 7.8-47.322 23.4-63.616 15.6-16.294 35.36-24.441 59.28-24.441 10.86 0 20.98 1.676 30.34 5.027 9.47 3.236 17.91 8.147 25.3 14.734 7.52 6.471 13.41 15.196 17.68 26.174 4.4 10.863 6.59 23.343 6.59 37.442v8.84Zm-128.44-14.907h96.55c0-8.783-.87-16.756-2.6-23.921-1.62-7.28-4.22-13.867-7.8-19.761-3.59-5.893-8.55-10.458-14.91-13.694-6.36-3.351-13.93-5.027-22.71-5.027-8.55 0-16.06 1.734-22.53 5.201-6.36 3.351-11.39 8.031-15.08 14.04-3.7 5.894-6.47 12.481-8.32 19.761-1.74 7.165-2.6 14.965-2.6 23.401Z"/><path fill="#FF6D7F" d="M1025.29 809.696c1.04 0 1.91-.168 2.63-.504.75-.36 1.35-.828 1.8-1.404.48-.6.83-1.272 1.05-2.016a8.04 8.04 0 0 0 .36-2.412v-.432h3.02v.432c0 1.272-.19 2.472-.58 3.6a8.452 8.452 0 0 1-1.69 2.916c-.74.816-1.67 1.464-2.77 1.944-1.1.456-2.38.684-3.82.684-2.78 0-4.95-.876-6.51-2.628-1.56-1.752-2.34-4.308-2.34-7.668v-5.616c0-3.264.78-5.796 2.34-7.596 1.56-1.8 3.73-2.7 6.51-2.7 1.44 0 2.72.24 3.82.72 1.1.456 2.03 1.104 2.77 1.944.75.816 1.31 1.788 1.69 2.916.39 1.104.58 2.292.58 3.564v.432h-3.02v-.432a9.038 9.038 0 0 0-.4-2.376c-.22-.768-.56-1.44-1.04-2.016a4.686 4.686 0 0 0-1.77-1.404c-.72-.36-1.59-.54-2.63-.54-1.94 0-3.4.708-4.39 2.124-.96 1.416-1.44 3.276-1.44 5.58v5.184c0 2.472.48 4.38 1.44 5.724.99 1.32 2.45 1.98 4.39 1.98ZM1038.34 796.592c0-3.264.78-5.796 2.34-7.596 1.56-1.8 3.73-2.7 6.51-2.7 2.79 0 4.96.9 6.52 2.7 1.56 1.8 2.34 4.332 2.34 7.596v5.616c0 3.36-.78 5.916-2.34 7.668-1.56 1.752-3.73 2.628-6.52 2.628-2.78 0-4.95-.876-6.51-2.628-1.56-1.752-2.34-4.308-2.34-7.668v-5.616Zm8.85 13.104c1.95 0 3.4-.66 4.36-1.98.98-1.344 1.47-3.252 1.47-5.724v-5.184c0-2.304-.49-4.164-1.47-5.58-.96-1.416-2.41-2.124-4.36-2.124-1.94 0-3.41.708-4.39 2.124-.96 1.416-1.44 3.276-1.44 5.58v5.184c0 2.472.48 4.38 1.44 5.724.98 1.32 2.45 1.98 4.39 1.98ZM1074.17 810.704h.43V786.8h3.02V812h-6.04l-7.28-23.904h-.43V812h-3.02v-25.2h6.05l7.27 23.904ZM1097.22 794.072c0-.816-.17-1.536-.51-2.16a4.255 4.255 0 0 0-1.29-1.548 6.143 6.143 0 0 0-1.91-.936 7.875 7.875 0 0 0-2.27-.324c-.69 0-1.35.096-1.98.288-.62.168-1.19.42-1.69.756-.48.336-.86.756-1.15 1.26-.29.48-.43 1.044-.43 1.692v.216c0 .696.14 1.296.43 1.8.29.48.71.9 1.26 1.26.57.336 1.28.624 2.12.864.84.216 1.83.408 2.95.576 2.64.408 4.59 1.188 5.84 2.34 1.24 1.128 1.87 2.652 1.87 4.572v.432c0 1.08-.19 2.076-.58 2.988a6.05 6.05 0 0 1-1.65 2.304c-.72.648-1.62 1.152-2.7 1.512-1.08.36-2.33.54-3.75.54-1.61 0-3.03-.228-4.28-.684-1.23-.48-2.26-1.128-3.1-1.944a8.737 8.737 0 0 1-1.87-2.916c-.43-1.128-.65-2.352-.65-3.672v-1.08h3.03v.864c0 2.208.6 3.864 1.8 4.968 1.22 1.104 2.91 1.656 5.07 1.656 1.87 0 3.28-.408 4.21-1.224.96-.84 1.44-1.944 1.44-3.312v-.216c0-1.32-.49-2.328-1.47-3.024-.96-.696-2.53-1.2-4.72-1.512-1.27-.168-2.42-.42-3.45-.756-1.01-.36-1.88-.816-2.6-1.368a5.847 5.847 0 0 1-1.65-2.052c-.39-.792-.58-1.728-.58-2.808v-.432c0-.984.21-1.884.61-2.7.41-.816.98-1.524 1.7-2.124.74-.6 1.62-1.056 2.62-1.368 1.04-.336 2.16-.504 3.39-.504 1.41 0 2.67.204 3.78.612 1.13.408 2.07.96 2.84 1.656a6.327 6.327 0 0 1 1.73 2.412c.41.912.61 1.872.61 2.88v1.512h-3.02v-1.296ZM1104.47 786.8h17.71v2.808h-7.35V812h-3.02v-22.392h-7.34V786.8ZM1143.25 812h-3.03v-8.424c0-.624-.14-1.104-.43-1.44-.29-.336-.79-.504-1.51-.504h-7.85V812h-3.02v-25.2h9c1.29 0 2.42.192 3.38.576.96.36 1.75.852 2.38 1.476a5.783 5.783 0 0 1 1.44 2.196c.33.816.5 1.68.5 2.592v1.08c0 .936-.26 1.872-.79 2.808-.5.936-1.3 1.656-2.38 2.16v.432c.72.12 1.29.408 1.7.864.4.456.61 1.104.61 1.944V812Zm-12.82-13.176h5.62c1.7 0 2.96-.36 3.78-1.08.84-.744 1.26-1.824 1.26-3.24v-.648c0-1.272-.42-2.292-1.26-3.06-.82-.792-2.08-1.188-3.78-1.188h-5.62v9.216ZM1151.79 786.8v16.704c0 2.04.47 3.588 1.41 4.644.96 1.032 2.36 1.548 4.21 1.548s3.24-.516 4.17-1.548c.96-1.056 1.44-2.604 1.44-4.644V786.8h3.03v16.704c0 2.928-.77 5.16-2.31 6.696-1.53 1.536-3.64 2.304-6.33 2.304s-4.8-.768-6.34-2.304c-1.53-1.536-2.3-3.768-2.3-6.696V786.8h3.02ZM1179.59 809.696c1.04 0 1.91-.168 2.63-.504.75-.36 1.35-.828 1.8-1.404.48-.6.83-1.272 1.05-2.016a8.04 8.04 0 0 0 .36-2.412v-.432h3.02v.432c0 1.272-.19 2.472-.58 3.6a8.452 8.452 0 0 1-1.69 2.916c-.74.816-1.67 1.464-2.77 1.944-1.1.456-2.38.684-3.82.684-2.78 0-4.95-.876-6.51-2.628-1.56-1.752-2.34-4.308-2.34-7.668v-5.616c0-3.264.78-5.796 2.34-7.596 1.56-1.8 3.73-2.7 6.51-2.7 1.44 0 2.72.24 3.82.72 1.1.456 2.03 1.104 2.77 1.944.75.816 1.31 1.788 1.69 2.916.39 1.104.58 2.292.58 3.564v.432h-3.02v-.432a9.038 9.038 0 0 0-.4-2.376c-.22-.768-.56-1.44-1.04-2.016a4.686 4.686 0 0 0-1.77-1.404c-.72-.36-1.59-.54-2.63-.54-1.94 0-3.4.708-4.39 2.124-.96 1.416-1.44 3.276-1.44 5.58v5.184c0 2.472.48 4.38 1.44 5.724.99 1.32 2.45 1.98 4.39 1.98ZM1192.64 786.8h17.71v2.808h-7.34V812h-3.03v-22.392h-7.34V786.8ZM1215.9 786.8h15.27v2.808h-12.24v8.352h12.02v2.808h-12.02v8.424h12.45V812h-15.48v-25.2ZM1237.19 786.8h8.28c3.12 0 5.4.744 6.84 2.232 1.44 1.488 2.16 3.864 2.16 7.128v6.48c0 3.264-.72 5.64-2.16 7.128-1.44 1.488-3.72 2.232-6.84 2.232h-8.28v-2.844h2.16v-19.548h-2.16V786.8Zm7.85 22.392c1.1 0 2.05-.108 2.84-.324.82-.216 1.49-.576 2.02-1.08.53-.528.91-1.224 1.15-2.088.27-.864.4-1.956.4-3.276v-6.048c0-1.32-.13-2.412-.4-3.276-.24-.864-.62-1.548-1.15-2.052-.53-.528-1.2-.9-2.02-1.116-.79-.216-1.74-.324-2.84-.324h-2.66v19.584h2.66ZM1282.07 786.8h15.48v2.808h-12.46v8.352h12.24v2.808h-12.24V812h-3.02v-25.2ZM1302.85 796.592c0-3.264.78-5.796 2.34-7.596 1.56-1.8 3.73-2.7 6.52-2.7 2.78 0 4.95.9 6.51 2.7 1.56 1.8 2.34 4.332 2.34 7.596v5.616c0 3.36-.78 5.916-2.34 7.668-1.56 1.752-3.73 2.628-6.51 2.628-2.79 0-4.96-.876-6.52-2.628-1.56-1.752-2.34-4.308-2.34-7.668v-5.616Zm8.86 13.104c1.94 0 3.39-.66 4.35-1.98.99-1.344 1.48-3.252 1.48-5.724v-5.184c0-2.304-.49-4.164-1.48-5.58-.96-1.416-2.41-2.124-4.35-2.124-1.95 0-3.41.708-4.39 2.124-.96 1.416-1.44 3.276-1.44 5.58v5.184c0 2.472.48 4.38 1.44 5.724.98 1.32 2.44 1.98 4.39 1.98ZM1341.64 812h-3.03v-8.424c0-.624-.14-1.104-.43-1.44-.29-.336-.79-.504-1.51-.504h-7.85V812h-3.02v-25.2h9c1.29 0 2.42.192 3.38.576.96.36 1.75.852 2.38 1.476a6.027 6.027 0 0 1 1.44 2.196c.33.816.5 1.68.5 2.592v1.08c0 .936-.26 1.872-.79 2.808-.51.936-1.3 1.656-2.38 2.16v.432c.72.12 1.29.408 1.69.864.41.456.62 1.104.62 1.944V812Zm-12.82-13.176h5.62c1.7 0 2.96-.36 3.78-1.08.84-.744 1.26-1.824 1.26-3.24v-.648c0-1.272-.42-2.292-1.26-3.06-.82-.792-2.08-1.188-3.78-1.188h-5.62v9.216ZM1346.43 786.8h5.76l3.39 23.904h.43l3.38-23.904h5.76V812h-2.8v-23.904h-.44L1358.53 812h-5.47l-3.39-23.904h-.43V812h-2.81v-25.2ZM1383.78 794.072c0-.816-.17-1.536-.51-2.16a4.255 4.255 0 0 0-1.29-1.548 6.143 6.143 0 0 0-1.91-.936 7.875 7.875 0 0 0-2.27-.324c-.69 0-1.35.096-1.98.288-.62.168-1.19.42-1.69.756-.48.336-.86.756-1.15 1.26-.29.48-.43 1.044-.43 1.692v.216c0 .696.14 1.296.43 1.8.29.48.71.9 1.26 1.26.57.336 1.28.624 2.12.864.84.216 1.83.408 2.95.576 2.64.408 4.59 1.188 5.84 2.34 1.24 1.128 1.87 2.652 1.87 4.572v.432c0 1.08-.19 2.076-.58 2.988a6.05 6.05 0 0 1-1.65 2.304c-.72.648-1.62 1.152-2.7 1.512-1.08.36-2.33.54-3.75.54-1.61 0-3.03-.228-4.28-.684-1.23-.48-2.26-1.128-3.1-1.944a8.737 8.737 0 0 1-1.87-2.916c-.43-1.128-.65-2.352-.65-3.672v-1.08h3.03v.864c0 2.208.6 3.864 1.8 4.968 1.22 1.104 2.91 1.656 5.07 1.656 1.87 0 3.28-.408 4.21-1.224.96-.84 1.44-1.944 1.44-3.312v-.216c0-1.32-.49-2.328-1.47-3.024-.96-.696-2.53-1.2-4.72-1.512-1.27-.168-2.42-.42-3.45-.756-1.01-.36-1.88-.816-2.6-1.368a5.847 5.847 0 0 1-1.65-2.052c-.39-.792-.58-1.728-.58-2.808v-.432c0-.984.21-1.884.61-2.7.41-.816.98-1.524 1.7-2.124.74-.6 1.62-1.056 2.62-1.368 1.04-.336 2.16-.504 3.39-.504 1.41 0 2.67.204 3.78.612 1.13.408 2.07.96 2.84 1.656a6.327 6.327 0 0 1 1.73 2.412c.41.912.61 1.872.61 2.88v1.512h-3.02v-1.296ZM1081.79 868.46c-2.31 0-4.3-.408-5.98-1.224-1.66-.816-2.93-2.1-3.82-3.852-.88-1.728-1.33-3.972-1.33-6.732v-11.664c0-2.784.45-5.04 1.33-6.768.89-1.728 2.16-3 3.82-3.816 1.68-.816 3.67-1.224 5.98-1.224v2.484c-2.86.024-4.97.816-6.34 2.376-1.37 1.536-2.05 3.912-2.05 7.128v11.304c0 3.192.68 5.568 2.05 7.128 1.37 1.56 3.48 2.352 6.34 2.376v2.484ZM1092.74 860.504c-1.7 0-3.24-.36-4.61-1.08-1.34-.744-2.41-1.8-3.2-3.168-.77-1.368-1.15-2.988-1.15-4.86V851c0-1.896.38-3.516 1.15-4.86.79-1.368 1.86-2.412 3.2-3.132 1.37-.744 2.91-1.116 4.61-1.116 1.68 0 3.11.312 4.28.936 1.2.624 2.14 1.452 2.81 2.484a8.156 8.156 0 0 1 1.33 3.312l-2.77.576a5.99 5.99 0 0 0-.86-2.376c-.43-.72-1.05-1.296-1.84-1.728-.79-.432-1.76-.648-2.91-.648-1.18 0-2.24.264-3.17.792-.91.528-1.65 1.284-2.2 2.268-.53.984-.79 2.16-.79 3.528v.324c0 1.368.26 2.544.79 3.528.55.984 1.29 1.74 2.2 2.268.93.528 1.99.792 3.17.792 1.75 0 3.08-.456 3.99-1.368.94-.912 1.51-2.04 1.73-3.384l2.81.612a9.943 9.943 0 0 1-1.44 3.276c-.7 1.032-1.65 1.86-2.85 2.484-1.17.624-2.6.936-4.28.936ZM1106.15 860v-17.604h2.85V860h-2.85Zm1.44-20.34c-.62 0-1.15-.204-1.58-.612-.41-.408-.61-.924-.61-1.548 0-.648.2-1.176.61-1.584.43-.408.96-.612 1.58-.612.63 0 1.14.204 1.55.612.41.408.61.936.61 1.584 0 .624-.2 1.14-.61 1.548-.41.408-.92.612-1.55.612ZM1114.98 860v-17.604h2.77v2.16h.5c.32-.768.8-1.332 1.44-1.692.65-.36 1.5-.54 2.56-.54h2.09v2.592h-2.27c-1.27 0-2.3.36-3.1 1.08-.76.696-1.15 1.788-1.15 3.276V860h-2.84ZM1136.02 860.504c-1.71 0-3.24-.36-4.61-1.08-1.35-.744-2.41-1.8-3.21-3.168-.76-1.368-1.15-2.988-1.15-4.86V851c0-1.896.39-3.516 1.15-4.86.8-1.368 1.86-2.412 3.21-3.132 1.37-.744 2.9-1.116 4.61-1.116 1.68 0 3.1.312 4.28.936 1.2.624 2.14 1.452 2.81 2.484.69 1.032 1.14 2.136 1.33 3.312l-2.77.576a5.856 5.856 0 0 0-.87-2.376c-.43-.72-1.04-1.296-1.83-1.728-.79-.432-1.77-.648-2.92-.648-1.17 0-2.23.264-3.17.792-.91.528-1.64 1.284-2.19 2.268-.53.984-.79 2.16-.79 3.528v.324c0 1.368.26 2.544.79 3.528.55.984 1.28 1.74 2.19 2.268.94.528 2 .792 3.17.792 1.75 0 3.09-.456 4-1.368.93-.912 1.51-2.04 1.73-3.384l2.8.612a9.546 9.546 0 0 1-1.44 3.276c-.69 1.032-1.64 1.86-2.84 2.484-1.18.624-2.6.936-4.28.936ZM1156.16 860.324c-1.27 0-2.44-.276-3.52-.828-1.06-.552-1.9-1.368-2.52-2.448-.6-1.104-.9-2.436-.9-3.996v-10.656h2.84v10.44c0 1.752.43 3.024 1.3 3.816.88.792 2.07 1.188 3.56 1.188 1.68 0 3.06-.552 4.14-1.656 1.08-1.104 1.62-2.748 1.62-4.932v-8.856h2.84V860h-2.77v-2.988h-.5c-.39.84-1.05 1.608-1.98 2.304-.94.672-2.31 1.008-4.11 1.008ZM1171.48 860v-25.2h2.84V860h-2.84ZM1185.7 860.504c-1.22 0-2.34-.216-3.35-.648-1.01-.432-1.8-1.056-2.37-1.872-.58-.816-.87-1.812-.87-2.988 0-1.2.29-2.184.87-2.952.57-.792 1.36-1.38 2.37-1.764 1.01-.408 2.14-.612 3.39-.612h5.94v-1.296c0-1.248-.38-2.232-1.12-2.952-.72-.72-1.8-1.08-3.24-1.08-1.42 0-2.52.348-3.31 1.044-.79.672-1.33 1.584-1.62 2.736l-2.67-.864c.29-.984.75-1.872 1.37-2.664.63-.816 1.45-1.464 2.49-1.944 1.05-.504 2.31-.756 3.78-.756 2.25 0 4 .588 5.25 1.764 1.25 1.152 1.87 2.784 1.87 4.896v7.956c0 .72.34 1.08 1.01 1.08h1.62V860h-2.48c-.79 0-1.43-.216-1.91-.648-.48-.456-.72-1.056-.72-1.8v-.18h-.43c-.27.456-.63.936-1.08 1.44-.43.48-1.03.876-1.8 1.188-.77.336-1.77.504-2.99.504Zm.32-2.448c1.68 0 3.04-.492 4.07-1.476 1.06-1.008 1.59-2.412 1.59-4.212v-.396h-5.84c-1.12 0-2.06.252-2.8.756-.72.48-1.08 1.212-1.08 2.196 0 .984.37 1.752 1.11 2.304.77.552 1.75.828 2.95.828ZM1201.01 860v-17.604h2.77v2.16h.5c.31-.768.79-1.332 1.44-1.692.65-.36 1.5-.54 2.56-.54h2.09v2.592h-2.27c-1.27 0-2.31.36-3.1 1.08-.77.696-1.15 1.788-1.15 3.276V860h-2.84ZM1222.96 851.288v-.504c0-1.848.37-3.432 1.11-4.752.75-1.32 1.76-2.34 3.03-3.06 1.27-.72 2.66-1.08 4.17-1.08 1.85 0 3.27.36 4.25 1.08 1.01.696 1.75 1.476 2.23 2.34h.51v-2.916h2.7v21.708c0 .96-.27 1.716-.79 2.268-.53.552-1.3.828-2.31.828h-11.95v-2.52h11.2c.72 0 1.08-.36 1.08-1.08v-6.696h-.51a6.39 6.39 0 0 1-1.22 1.548c-.53.504-1.21.924-2.05 1.26-.84.312-1.89.468-3.14.468-1.51 0-2.9-.36-4.17-1.08-1.27-.72-2.28-1.74-3.03-3.06-.74-1.344-1.11-2.928-1.11-4.752Zm9.07 6.372c1.82 0 3.3-.576 4.43-1.728 1.15-1.152 1.73-2.736 1.73-4.752v-.288c0-2.04-.58-3.624-1.73-4.752-1.13-1.152-2.61-1.728-4.43-1.728-1.8 0-3.29.576-4.46 1.728-1.16 1.128-1.73 2.712-1.73 4.752v.288c0 2.016.57 3.6 1.73 4.752 1.17 1.152 2.66 1.728 4.46 1.728ZM1246.63 864.5v-1.8h1.05c.86 0 1.29-.432 1.29-1.296v-1.152h-.5c-.7 0-1.29-.216-1.77-.648a2.157 2.157 0 0 1-.68-1.62c0-.696.23-1.26.68-1.692.48-.432 1.07-.648 1.77-.648.69 0 1.27.228 1.73.684.45.456.68 1.032.68 1.728v3.348c0 2.064-1.03 3.096-3.1 3.096h-1.15ZM1272.14 860.504c-1.77 0-3.35-.372-4.71-1.116a8.09 8.09 0 0 1-3.17-3.132c-.75-1.368-1.12-2.976-1.12-4.824v-.468c0-1.824.37-3.42 1.12-4.788.77-1.368 1.82-2.424 3.17-3.168 1.36-.744 2.94-1.116 4.71-1.116 1.78 0 3.34.372 4.68 1.116 1.37.744 2.43 1.8 3.17 3.168.77 1.368 1.15 2.964 1.15 4.788v.468c0 1.848-.38 3.456-1.15 4.824-.74 1.344-1.8 2.388-3.17 3.132-1.34.744-2.9 1.116-4.68 1.116Zm0-2.556c1.87 0 3.36-.588 4.47-1.764 1.12-1.2 1.69-2.808 1.69-4.824v-.324c0-2.016-.57-3.612-1.69-4.788-1.11-1.2-2.6-1.8-4.47-1.8-1.85 0-3.33.6-4.46 1.8-1.13 1.176-1.69 2.772-1.69 4.788v.324c0 2.016.56 3.624 1.69 4.824 1.13 1.176 2.61 1.764 4.46 1.764ZM1285.73 864.5v-1.8h1.04c.86 0 1.3-.432 1.3-1.296v-1.152h-.51c-.69 0-1.28-.216-1.76-.648-.46-.432-.69-.972-.69-1.62 0-.696.23-1.26.69-1.692.48-.432 1.07-.648 1.76-.648.7 0 1.27.228 1.73.684.46.456.68 1.032.68 1.728v3.348c0 2.064-1.03 3.096-3.09 3.096h-1.15ZM1311.16 860.504c-1.77 0-3.33-.372-4.68-1.116a8.107 8.107 0 0 1-3.13-3.204c-.74-1.368-1.11-2.952-1.11-4.752V851c0-1.824.37-3.42 1.11-4.788.75-1.368 1.78-2.424 3.1-3.168 1.32-.768 2.83-1.152 4.53-1.152 1.66 0 3.12.36 4.4 1.08 1.27.696 2.26 1.704 2.98 3.024.72 1.32 1.08 2.868 1.08 4.644v1.296h-14.36c.07 1.896.68 3.384 1.84 4.464 1.15 1.056 2.59 1.584 4.32 1.584 1.51 0 2.67-.348 3.49-1.044a7.056 7.056 0 0 0 1.87-2.484l2.45 1.188c-.36.744-.87 1.488-1.51 2.232-.63.744-1.46 1.368-2.49 1.872-1.01.504-2.3.756-3.89.756Zm-6.04-10.908h11.44c-.09-1.632-.66-2.904-1.69-3.816-1.01-.912-2.3-1.368-3.89-1.368-1.6 0-2.92.456-3.96 1.368-1.03.912-1.66 2.184-1.9 3.816ZM1321.18 868.46v-2.484c2.9-.024 5.02-.816 6.37-2.376 1.34-1.56 2.01-3.936 2.01-7.128v-11.304c0-3.216-.67-5.592-2.01-7.128-1.35-1.56-3.47-2.352-6.37-2.376v-2.484c2.32 0 4.32.408 5.97 1.224 1.66.816 2.93 2.088 3.82 3.816.91 1.728 1.37 3.984 1.37 6.768v11.664c0 2.76-.46 5.004-1.37 6.732-.89 1.752-2.16 3.036-3.82 3.852-1.65.816-3.65 1.224-5.97 1.224ZM441.489 799.696c1.032 0 1.908-.168 2.628-.504.744-.36 1.344-.828 1.8-1.404a5.77 5.77 0 0 0 1.044-2.016 8.04 8.04 0 0 0 .36-2.412v-.432h3.024v.432c0 1.272-.192 2.472-.576 3.6a8.618 8.618 0 0 1-1.692 2.916c-.744.816-1.668 1.464-2.772 1.944-1.104.456-2.376.684-3.816.684-2.784 0-4.956-.876-6.516-2.628-1.56-1.752-2.34-4.308-2.34-7.668v-5.616c0-3.264.78-5.796 2.34-7.596 1.56-1.8 3.732-2.7 6.516-2.7 1.44 0 2.712.24 3.816.72 1.104.456 2.028 1.104 2.772 1.944.744.816 1.308 1.788 1.692 2.916.384 1.104.576 2.292.576 3.564v.432h-3.024v-.432a8.795 8.795 0 0 0-.396-2.376 5.383 5.383 0 0 0-1.044-2.016 4.636 4.636 0 0 0-1.764-1.404c-.72-.36-1.596-.54-2.628-.54-1.944 0-3.408.708-4.392 2.124-.96 1.416-1.44 3.276-1.44 5.58v5.184c0 2.472.48 4.38 1.44 5.724.984 1.32 2.448 1.98 4.392 1.98ZM455.396 776.8h15.984v2.808h-6.48v19.584h6.48V802h-15.984v-2.808h6.48v-19.584h-6.48V776.8ZM493.315 802h-3.024v-8.424c0-.624-.144-1.104-.432-1.44-.288-.336-.792-.504-1.512-.504h-7.848V802h-3.024v-25.2h9c1.296 0 2.424.192 3.384.576.96.36 1.752.852 2.376 1.476a5.83 5.83 0 0 1 1.44 2.196 6.74 6.74 0 0 1 .504 2.592v1.08c0 .936-.264 1.872-.792 2.808-.504.936-1.296 1.656-2.376 2.16v.432c.72.12 1.284.408 1.692.864.408.456.612 1.104.612 1.944V802Zm-12.816-13.176h5.616c1.704 0 2.964-.36 3.78-1.08.84-.744 1.26-1.824 1.26-3.24v-.648c0-1.272-.42-2.292-1.26-3.06-.816-.792-2.076-1.188-3.78-1.188h-5.616v9.216ZM507.618 799.696c1.032 0 1.908-.168 2.628-.504.744-.36 1.344-.828 1.8-1.404a5.77 5.77 0 0 0 1.044-2.016 8.04 8.04 0 0 0 .36-2.412v-.432h3.024v.432c0 1.272-.192 2.472-.576 3.6a8.618 8.618 0 0 1-1.692 2.916c-.744.816-1.668 1.464-2.772 1.944-1.104.456-2.376.684-3.816.684-2.784 0-4.956-.876-6.516-2.628-1.56-1.752-2.34-4.308-2.34-7.668v-5.616c0-3.264.78-5.796 2.34-7.596 1.56-1.8 3.732-2.7 6.516-2.7 1.44 0 2.712.24 3.816.72 1.104.456 2.028 1.104 2.772 1.944.744.816 1.308 1.788 1.692 2.916.384 1.104.576 2.292.576 3.564v.432h-3.024v-.432a8.795 8.795 0 0 0-.396-2.376 5.383 5.383 0 0 0-1.044-2.016 4.636 4.636 0 0 0-1.764-1.404c-.72-.36-1.596-.54-2.628-.54-1.944 0-3.408.708-4.392 2.124-.96 1.416-1.44 3.276-1.44 5.58v5.184c0 2.472.48 4.38 1.44 5.724.984 1.32 2.448 1.98 4.392 1.98ZM523.901 776.8v16.704c0 2.04.468 3.588 1.404 4.644.96 1.032 2.364 1.548 4.212 1.548 1.848 0 3.24-.516 4.176-1.548.96-1.056 1.44-2.604 1.44-4.644V776.8h3.024v16.704c0 2.928-.768 5.16-2.304 6.696-1.536 1.536-3.648 2.304-6.336 2.304s-4.8-.768-6.336-2.304c-1.536-1.536-2.304-3.768-2.304-6.696V776.8h3.024ZM543.676 776.8h3.024v22.392h13.176V802h-16.2v-25.2ZM579.003 795.736h-10.8L566.367 802h-3.24l7.632-25.2h5.688l7.632 25.2h-3.24l-1.836-6.264Zm-5.616-17.64-4.356 14.832h9.144l-4.356-14.832h-.432ZM603.53 802h-3.024v-8.424c0-.624-.144-1.104-.432-1.44-.288-.336-.792-.504-1.512-.504h-7.848V802h-3.024v-25.2h9c1.296 0 2.424.192 3.384.576.96.36 1.752.852 2.376 1.476a5.83 5.83 0 0 1 1.44 2.196 6.74 6.74 0 0 1 .504 2.592v1.08c0 .936-.264 1.872-.792 2.808-.504.936-1.296 1.656-2.376 2.16v.432c.72.12 1.284.408 1.692.864.408.456.612 1.104.612 1.944V802Zm-12.816-13.176h5.616c1.704 0 2.964-.36 3.78-1.08.84-.744 1.26-1.824 1.26-3.24v-.648c0-1.272-.42-2.292-1.26-3.06-.816-.792-2.076-1.188-3.78-1.188h-5.616v9.216ZM476.467 847.192h2.16v-19.584h-2.16V824.8h10.188c1.2 0 2.256.168 3.168.504.936.336 1.716.792 2.34 1.368a5.272 5.272 0 0 1 1.44 2.088c.336.792.504 1.656.504 2.592v.432c0 .696-.108 1.332-.324 1.908a5.238 5.238 0 0 1-.9 1.548c-.384.456-.84.852-1.368 1.188a6.412 6.412 0 0 1-1.656.72v.432c1.2.336 2.208.984 3.024 1.944.816.936 1.224 2.088 1.224 3.456v.432c0 .936-.168 1.812-.504 2.628a5.633 5.633 0 0 1-1.44 2.088c-.624.576-1.404 1.032-2.34 1.368-.912.336-1.968.504-3.168.504h-10.188v-2.808Zm5.184 0h4.788c1.416 0 2.568-.348 3.456-1.044.888-.72 1.332-1.704 1.332-2.952v-.216c0-1.296-.42-2.316-1.26-3.06-.84-.768-1.98-1.152-3.42-1.152h-4.896v8.424Zm0-11.232h4.896c1.44 0 2.58-.372 3.42-1.116.84-.744 1.26-1.764 1.26-3.06v-.216c0-1.224-.444-2.184-1.332-2.88-.888-.72-2.04-1.08-3.456-1.08h-4.788v8.352ZM498.618 834.592c0-3.264.78-5.796 2.34-7.596 1.56-1.8 3.732-2.7 6.516-2.7s4.956.9 6.516 2.7c1.56 1.8 2.34 4.332 2.34 7.596v5.616c0 3.36-.78 5.916-2.34 7.668-1.56 1.752-3.732 2.628-6.516 2.628s-4.956-.876-6.516-2.628c-1.56-1.752-2.34-4.308-2.34-7.668v-5.616Zm8.856 13.104c1.944 0 3.396-.66 4.356-1.98.984-1.344 1.476-3.252 1.476-5.724v-5.184c0-2.304-.492-4.164-1.476-5.58-.96-1.416-2.412-2.124-4.356-2.124s-3.408.708-4.392 2.124c-.96 1.416-1.44 3.276-1.44 5.58v5.184c0 2.472.48 4.38 1.44 5.724.984 1.32 2.448 1.98 4.392 1.98ZM537.581 850h-5.508l-2.34-23.904h-.432L526.961 850h-5.508l-2.556-25.2h2.736l2.412 23.904h.432l2.268-23.904h5.544l2.268 23.904h.432l2.412-23.904h2.736l-2.556 25.2ZM543.676 824.8h3.024v22.392h13.176V850h-16.2v-25.2Z"/><path fill="#FF6D7F" fill-rule="evenodd" d="m1296.83 578.744-3.99-.236c.11-1.822.16-3.658.16-5.508s-.05-3.686-.16-5.508l3.99-.236c.11 1.9.17 3.816.17 5.744s-.06 3.844-.17 5.744Zm-3.01-30.362-3.87 1.022a90.548 90.548 0 0 0-3.45-10.448l3.72-1.479a96.05 96.05 0 0 1 3.6 10.905Zm-12.4-27.875-3.35 2.184c-2-3.081-4.19-6.037-6.54-8.854l3.07-2.563a97.175 97.175 0 0 1 6.82 9.233Zm-20.44-22.646-2.51 3.109a93.78 93.78 0 0 0-8.96-6.415l2.14-3.382a97.69 97.69 0 0 1 9.33 6.688Zm-26.41-15.273-1.44 3.732a93.015 93.015 0 0 0-10.49-3.355l.99-3.875c3.74.958 7.39 2.128 10.94 3.498Zm-29.83-6.424-.22 3.993a97.267 97.267 0 0 0-11.04 0l-.22-3.993a100.113 100.113 0 0 1 11.48 0Zm-30.37 2.926.99 3.875a93.015 93.015 0 0 0-10.49 3.355l-1.44-3.732c3.55-1.37 7.2-2.54 10.94-3.498Zm-28.02 12.083 2.14 3.382a93.78 93.78 0 0 0-8.96 6.415l-2.51-3.109a97.69 97.69 0 0 1 9.33-6.688Zm-22.95 20.101 3.07 2.563a92.213 92.213 0 0 0-6.54 8.854l-3.35-2.184a97.175 97.175 0 0 1 6.82-9.233Zm-15.62 26.203 3.72 1.479a90.548 90.548 0 0 0-3.45 10.448l-3.87-1.022a96.05 96.05 0 0 1 3.6-10.905Zm-6.61 29.779c-.11 1.9-.17 3.816-.17 5.744s.06 3.844.17 5.744l3.99-.236A91.394 91.394 0 0 1 1105 573c0-1.85.05-3.686.16-5.508l-3.99-.236Zm3.01 30.362 3.87-1.022c.94 3.571 2.1 7.058 3.45 10.448l-3.72 1.479a96.05 96.05 0 0 1-3.6-10.905Zm12.4 27.875 3.35-2.184c2 3.081 4.19 6.037 6.54 8.854l-3.07 2.563a97.175 97.175 0 0 1-6.82-9.233Zm20.44 22.646 2.51-3.109a93.78 93.78 0 0 0 8.96 6.415l-2.14 3.382a97.69 97.69 0 0 1-9.33-6.688Zm26.41 15.273 1.44-3.732c3.4 1.314 6.9 2.437 10.49 3.355l-.99 3.875a97.738 97.738 0 0 1-10.94-3.498Zm29.83 6.424.22-3.993a97.267 97.267 0 0 0 11.04 0l.22 3.993a100.113 100.113 0 0 1-11.48 0Zm30.37-2.926-.99-3.875a93.015 93.015 0 0 0 10.49-3.355l1.44 3.732c-3.55 1.37-7.2 2.54-10.94 3.498Zm28.02-12.083-2.14-3.382a93.78 93.78 0 0 0 8.96-6.415l2.51 3.109a97.69 97.69 0 0 1-9.33 6.688Zm22.95-20.101-3.07-2.563a92.213 92.213 0 0 0 6.54-8.854l3.35 2.184a97.175 97.175 0 0 1-6.82 9.233Zm15.62-26.203-3.72-1.479a90.548 90.548 0 0 0 3.45-10.448l3.87 1.022a96.05 96.05 0 0 1-3.6 10.905ZM810.853 578.554l-3.995-.213a100.542 100.542 0 0 0 0-10.682l3.995-.213a105.384 105.384 0 0 1 0 11.108Zm-2.639-29.404-3.891.928c-.833-3.49-1.85-6.9-3.042-10.219l3.765-1.351a100.565 100.565 0 0 1 3.168 10.642Zm-11.004-27.383-3.448 2.027a93.24 93.24 0 0 0-5.908-8.856l3.195-2.407a97.346 97.346 0 0 1 6.161 9.236Zm-18.651-22.858-2.67 2.978a88.32 88.32 0 0 0-8.317-6.605l2.295-3.277a92.545 92.545 0 0 1 8.692 6.904Zm-24.835-15.896-1.573 3.678a83.182 83.182 0 0 0-9.982-3.54l1.094-3.848a87.35 87.35 0 0 1 10.461 3.71Zm-28.67-6.837-.254 3.992a83.113 83.113 0 0 0-10.6 0l-.254-3.992a87.398 87.398 0 0 1 11.108 0Zm-29.317 3.127 1.094 3.848a83.182 83.182 0 0 0-9.982 3.54l-1.573-3.678a87.35 87.35 0 0 1 10.461-3.71Zm-26.604 12.702 2.295 3.277a88.179 88.179 0 0 0-8.316 6.605l-2.671-2.978a92.545 92.545 0 0 1 8.692-6.904Zm-21.182 20.526 3.195 2.407a93.24 93.24 0 0 0-5.908 8.856l-3.448-2.027a97.346 97.346 0 0 1 6.161-9.236Zm-13.997 25.977 3.765 1.351a96.527 96.527 0 0 0-3.042 10.219l-3.891-.928a100.565 100.565 0 0 1 3.168-10.642Zm-5.807 28.938a105.384 105.384 0 0 0 0 11.108l3.995-.213a100.542 100.542 0 0 1 0-10.682l-3.995-.213Zm2.639 29.404 3.891-.928c.833 3.49 1.85 6.9 3.042 10.219l-3.765 1.351a100.565 100.565 0 0 1-3.168-10.642Zm11.004 27.383 3.448-2.027a93.24 93.24 0 0 0 5.908 8.856l-3.195 2.407a97.346 97.346 0 0 1-6.161-9.236Zm18.651 22.858 2.67-2.978a88.32 88.32 0 0 0 8.317 6.605l-2.295 3.277a92.545 92.545 0 0 1-8.692-6.904Zm24.835 15.896 1.573-3.678a83.182 83.182 0 0 0 9.982 3.54l-1.094 3.848a87.35 87.35 0 0 1-10.461-3.71Zm28.67 6.837.254-3.992a83.113 83.113 0 0 0 10.6 0l.254 3.992a87.398 87.398 0 0 1-11.108 0Zm29.317-3.127-1.094-3.848a83.182 83.182 0 0 0 9.982-3.54l1.573 3.678a87.35 87.35 0 0 1-10.461 3.71Zm26.604-12.702-2.295-3.277a88.179 88.179 0 0 0 8.316-6.605l2.671 2.978a92.545 92.545 0 0 1-8.692 6.904Zm21.182-20.526-3.195-2.407a93.24 93.24 0 0 0 5.908-8.856l3.448 2.027a97.346 97.346 0 0 1-6.161 9.236Zm13.997-25.977-3.765-1.351a96.527 96.527 0 0 0 3.042-10.219l3.891.928a100.565 100.565 0 0 1-3.168 10.642ZM1702.83 578.98l-3.99-.229c.1-1.902.16-3.82.16-5.751 0-1.931-.06-3.849-.16-5.751l3.99-.229c.11 1.979.17 3.973.17 5.98 0 2.007-.06 4.001-.17 5.98Zm-3.05-31.623-3.87.993a98.36 98.36 0 0 0-3.5-10.94l3.73-1.44c1.42 3.696 2.64 7.496 3.64 11.387Zm-12.58-29.164-3.39 2.137a97.14 97.14 0 0 0-6.69-9.332l3.11-2.517c2.5 3.092 4.83 6.334 6.97 9.712Zm-20.94-23.886-2.56 3.072a97.82 97.82 0 0 0-9.23-6.82l2.18-3.353c3.34 2.178 6.55 4.55 9.61 7.101Zm-27.28-16.253-1.48 3.717a95.31 95.31 0 0 0-10.89-3.591l1.02-3.867a99.166 99.166 0 0 1 11.35 3.741Zm-31-6.878-.24 3.993a97.438 97.438 0 0 0-11.41-.004l-.24-3.993a101.244 101.244 0 0 1 11.89.004Zm-31.29 3.105 1.03 3.865a90.79 90.79 0 0 0-10.72 3.59l-1.5-3.707a94.84 94.84 0 0 1 11.19-3.748Zm-28.54 12.984 2.24 3.317a91.556 91.556 0 0 0-8.97 6.888l-2.63-3.018a95.98 95.98 0 0 1 9.36-7.187Zm-22.81 21.51 3.17 2.435a96.18 96.18 0 0 0-6.36 9.383l-3.44-2.046c2.03-3.399 4.24-6.661 6.63-9.772Zm-15.01 27.546 3.76 1.356a103.131 103.131 0 0 0-3.25 10.888l-3.89-.928c.92-3.865 2.05-7.642 3.38-11.316Zm-6.17 30.773A105.11 105.11 0 0 0 1504 573c0 1.982.05 3.952.16 5.906l3.99-.211a107.448 107.448 0 0 1 0-11.39l-3.99-.211Zm2.79 31.268 3.89-.927c.89 3.721 1.98 7.354 3.25 10.888l-3.76 1.356a103.923 103.923 0 0 1-3.38-11.317Zm11.76 29.091 3.44-2.046a96.18 96.18 0 0 0 6.36 9.383l-3.17 2.435c-2.39-3.111-4.6-6.373-6.63-9.772Zm20.08 24.095 2.63-3.018a91.556 91.556 0 0 0 8.97 6.888l-2.24 3.317a95.98 95.98 0 0 1-9.36-7.187Zm26.71 16.423 1.5-3.707a90.79 90.79 0 0 0 10.72 3.59l-1.03 3.865a94.84 94.84 0 0 1-11.19-3.748Zm30.59 6.857.24-3.993a97.418 97.418 0 0 0 11.41-.004l.24 3.993a101.27 101.27 0 0 1-11.89.004Zm31.54-3.141-1.02-3.867a95.31 95.31 0 0 0 10.89-3.591l1.48 3.717a99.166 99.166 0 0 1-11.35 3.741Zm29.02-12.893-2.18-3.353a97.82 97.82 0 0 0 9.23-6.82l2.56 3.072a102.132 102.132 0 0 1-9.61 7.101Zm23.58-21.275-3.11-2.517a97.265 97.265 0 0 0 6.69-9.332l3.39 2.137c-2.14 3.378-4.47 6.62-6.97 9.712Zm15.91-27.489-3.73-1.44a98.36 98.36 0 0 0 3.5-10.94l3.87.993c-1 3.891-2.22 7.691-3.64 11.387ZM517.999 615.48c-4.935-.937-8.667-5.272-8.667-10.48 0-5.891 4.776-10.667 10.667-10.667s10.666 4.776 10.666 10.667c0 5.208-3.731 9.543-8.666 10.48V744h-4V615.48Z" clip-rule="evenodd"/><path fill="#FF6D7F" fill-rule="evenodd" d="M1199 589.48c-4.94-.937-8.67-5.272-8.67-10.48 0-5.891 4.78-10.667 10.67-10.667s10.67 4.776 10.67 10.667c0 5.208-3.74 9.543-8.67 10.48V744h-4V589.48Z" clip-rule="evenodd"/></svg>