<svg width="1920" height="1080" viewBox="0 0 1920 1080" fill="none" xmlns="http://www.w3.org/2000/svg">
<path opacity="0.25" d="M1684 591.5C1684 608.897 1669.9 623 1652.5 623C1635.1 623 1621 608.897 1621 591.5C1621 574.103 1635.1 560 1652.5 560C1669.9 560 1684 574.103 1684 591.5Z" fill="#FF6D7F"/>
<path fill-rule="evenodd" clip-rule="evenodd" d="M969.999 554.521C965.064 555.457 961.332 559.793 961.332 565C961.332 570.891 966.108 575.667 971.999 575.667C977.89 575.667 982.665 570.891 982.665 565C982.665 559.793 978.934 555.457 973.999 554.521V276.5H969.999V554.521Z" fill="#FF6D7F"/>
<path opacity="0.25" d="M511 550.5C511 567.897 496.897 582 479.5 582C462.103 582 448 567.897 448 550.5C448 533.103 462.103 519 479.5 519C496.897 519 511 533.103 511 550.5Z" fill="#FF6D7F"/>
<path d="M286.867 652.219C281.82 655.385 276.081 656.969 269.648 656.969C263.216 656.969 257.477 655.385 252.43 652.219C247.383 655.385 242.682 656.969 238.328 656.969C234.073 656.969 230.56 656.573 227.789 655.781C225.018 655.089 222.594 654.099 220.516 652.812C216.26 650.24 214.133 647.023 214.133 643.164C214.133 641.185 214.677 639.453 215.766 637.969C217.943 639.651 220.714 640.492 224.078 640.492C232.885 640.492 238.971 636.732 242.336 629.211V556.625C242.336 552.073 241.396 548.708 239.516 546.531C236.547 542.87 231.451 539.258 224.227 535.695C230.956 532.628 235.31 529.906 237.289 527.531C240.654 523.672 242.336 519.318 242.336 514.469V451.828C238.971 444.208 232.885 440.398 224.078 440.398C220.714 440.398 217.943 441.24 215.766 442.922C214.677 441.438 214.133 439.755 214.133 437.875C214.133 435.896 214.677 434.065 215.766 432.383C216.953 430.701 218.536 429.266 220.516 428.078C225.068 425.307 230.263 423.922 236.102 423.922C242.039 423.922 247.482 425.555 252.43 428.82C257.576 425.555 263.315 423.922 269.648 423.922C275.982 423.922 281.721 425.555 286.867 428.82C298.049 424.565 310.419 422.438 323.977 422.438C337.633 422.438 349.062 423.674 358.266 426.148C367.469 428.622 375.385 432.135 382.016 436.688C395.375 445.891 403.688 458.706 406.953 475.133C408.24 482.456 412.94 487.997 421.055 491.758C413.336 496.112 408.289 503.039 405.914 512.539C401.065 532.133 388.943 544.354 369.547 549.203C379.542 551.875 387.706 557.367 394.039 565.68C400.57 574.289 403.836 584.432 403.836 596.109V610.953C403.836 625.203 408.438 634.406 417.641 638.562C420.411 639.849 423.43 640.492 426.695 640.492C429.961 640.492 432.682 639.651 434.859 637.969C435.948 639.453 436.492 641.185 436.492 643.164C436.492 645.044 435.997 646.826 435.008 648.508C434.018 650.19 432.682 651.625 431 652.812C427.438 655.583 423.281 656.969 418.531 656.969C413.781 656.969 409.13 655.682 404.578 653.109C396.266 657.661 388.497 658.107 381.273 654.445C378.503 656.128 375.583 656.969 372.516 656.969C369.448 656.969 366.479 656.276 363.609 654.891C360.839 653.505 358.365 651.229 356.188 648.062C351.536 641.234 349.211 630.745 349.211 616.594V605.609C349.211 582.75 342.68 567.906 329.617 561.078C325.263 558.802 320.167 557.664 314.328 557.664H296.961V629.953C299.633 636.979 304.729 640.492 312.25 640.492C315.615 640.492 318.385 639.651 320.562 637.969C321.651 639.453 322.195 641.63 322.195 644.5C322.195 647.37 320.612 650.19 317.445 652.961C314.378 655.633 309.727 656.969 303.492 656.969C297.258 656.969 291.716 655.385 286.867 652.219ZM325.461 442.18C306.461 442.18 296.961 449.552 296.961 464.297V525.008C296.961 530.154 298.99 533.617 303.047 535.398C306.906 537.081 312.596 537.922 320.117 537.922C327.737 537.922 333.031 537.526 336 536.734C339.068 535.844 341.69 534.359 343.867 532.281C348.32 528.026 350.547 520.901 350.547 510.906V467.562C350.547 455.193 345.401 447.276 335.109 443.812C332.042 442.724 328.826 442.18 325.461 442.18ZM360.492 451.68C363.56 458.607 365.094 469.69 365.094 484.93C365.094 511.154 363.857 526.839 361.383 531.984C366.826 530.896 370.734 523.622 373.109 510.164L374.297 504.078C375.385 497.646 378.552 493.539 383.797 491.758C379.938 490.471 377.464 488.938 376.375 487.156C375.188 485.078 374.099 481.565 373.109 476.617C372.219 471.57 371.279 467.513 370.289 464.445C369.299 461.378 368.26 458.953 367.172 457.172C365.292 454.005 363.065 452.174 360.492 451.68ZM256.586 614.664C261.534 612.784 264.255 606.302 264.75 595.219C265.344 584.135 265.641 568.797 265.641 549.203C265.641 529.609 265.591 516.596 265.492 510.164C265.492 503.633 265.443 498.388 265.344 494.43C265.047 482.753 263.909 475.727 261.93 473.352C260.049 470.878 258.268 469.245 256.586 468.453C256.586 502.891 255.992 522.484 254.805 527.234C253.419 531.193 250.055 534.013 244.711 535.695C250.648 537.773 254.013 540.297 254.805 543.266C255.992 548.016 256.586 565.383 256.586 595.367V614.664ZM359.008 573.992C362.966 578.445 364.945 583.888 364.945 590.32V609.914C364.945 626.341 368.211 635.099 374.742 636.188C376.523 636.484 378.255 636.435 379.938 636.039C376.375 630.497 374.594 624.659 374.594 618.523V597.742C374.594 589.924 373.505 584.383 371.328 581.117C367.568 575.576 363.461 573.201 359.008 573.992Z" fill="#3C4043"/>
<path d="M550.641 639.898C541.635 651.773 528.128 657.711 510.117 657.711C488.148 657.711 471.672 651.13 460.688 637.969C455.938 632.328 452.672 626.044 450.891 619.117C449.901 614.961 448.169 611.794 445.695 609.617C443.221 607.341 440.154 605.312 436.492 603.531C443.617 600.266 448.714 594.13 451.781 585.125C455.047 575.625 460.49 568.747 468.109 564.492C476.323 560.039 485.378 557.714 495.273 557.516C505.169 557.219 512.492 556.872 517.242 556.477C521.992 556.081 526.198 555.438 529.859 554.547C536.688 552.964 542.031 550.044 545.891 545.789V523.523C545.891 513.727 543.862 506.552 539.805 502C535.846 497.448 529.76 495.172 521.547 495.172C513.432 495.172 507.396 496.706 503.438 499.773C499.578 502.742 497.648 506.75 497.648 511.797C497.648 519.516 501.607 523.276 509.523 523.078C507.94 530.797 503.784 534.656 497.055 534.656C495.076 534.656 493.146 534.31 491.266 533.617V534.062C491.266 536.635 492.453 538.268 494.828 538.961C492.354 542.721 488.198 544.552 482.359 544.453C476.521 544.354 471.969 541.237 468.703 535.102C467.219 535.497 465.487 535.695 463.508 535.695C461.628 535.695 459.5 535.052 457.125 533.766C454.849 532.479 453.018 530.698 451.633 528.422C456.581 525.453 459.599 520.852 460.688 514.617C461.875 506.997 467.961 499.279 478.945 491.461C492.206 482.06 509.128 477.359 529.711 477.359C563.852 477.359 584.682 487.849 592.203 508.828C594.677 515.854 595.914 524.167 595.914 533.766V545.789C595.914 550.638 597.102 554.596 599.477 557.664C601.951 560.732 606.107 563.255 611.945 565.234C605.711 568.104 601.703 570.677 599.922 572.953C597.25 576.417 595.914 580.375 595.914 584.828V629.359C598.784 636.781 602.891 640.492 608.234 640.492C611.599 640.492 614.37 639.651 616.547 637.969C617.932 639.849 618.625 642.224 618.625 645.094C618.625 647.865 617.19 650.536 614.32 653.109C611.549 655.682 607.344 656.969 601.703 656.969C596.062 656.969 590.818 655.385 585.969 652.219C581.714 655.385 577.904 656.969 574.539 656.969C571.273 656.969 568.404 656.622 565.93 655.93C563.555 655.336 561.328 654.346 559.25 652.961C554.599 649.893 551.729 645.539 550.641 639.898ZM559.992 614.664C565.732 612.388 568.75 601.453 569.047 581.859C569.047 577.703 569.047 572.953 569.047 567.609C569.047 562.266 568.997 557.714 568.898 553.953C568.898 550.094 568.849 546.432 568.75 542.969C568.354 530.5 567.216 523.078 565.336 520.703C563.456 518.229 561.674 516.596 559.992 515.805V614.664ZM505.219 604.125C505.219 608.281 505.664 612.339 506.555 616.297C507.445 620.255 508.781 623.719 510.562 626.688C514.521 632.922 520.112 636.039 527.336 636.039C532.779 636.039 537.281 633.812 540.844 629.359C544.208 625.005 545.891 619.414 545.891 612.586V564.195C539.557 567.857 531.443 570.38 521.547 571.766C510.661 573.448 505.219 584.234 505.219 604.125ZM482.953 637.523C483.943 636.831 484.438 635.94 484.438 634.852C484.438 633.367 483.745 631.289 482.359 628.617C477.411 619.513 474.938 612.042 474.938 606.203C474.938 600.365 475.135 596.159 475.531 593.586C476.026 591.013 476.62 588.836 477.312 587.055C478.104 585.174 478.945 583.542 479.836 582.156C480.826 580.771 481.667 579.534 482.359 578.445C483.646 576.169 484.289 574.635 484.289 573.844C484.289 572.953 483.844 572.211 482.953 571.617C478.896 573.497 475.927 575.724 474.047 578.297C470.682 582.849 468.208 588.737 466.625 595.961C466.229 598.039 462.766 600.562 456.234 603.531C462.568 606.401 466.031 608.924 466.625 611.102C469.99 622.878 475.432 631.685 482.953 637.523Z" fill="#3C4043"/>
<path d="M656.031 659.789C648.906 653.258 645.344 645.143 645.344 635.445C645.344 620.997 653.904 609.122 671.023 599.82C659.841 592.003 651.677 579.633 646.531 562.711C644.849 557.466 643.167 553.904 641.484 552.023C639.01 549.055 634.755 546.086 628.719 543.117C633.667 540.841 637.427 537.922 640 534.359C642.672 530.797 644.948 526.146 646.828 520.406C648.807 514.667 651.529 509.174 654.992 503.93C658.555 498.685 663.107 494.083 668.648 490.125C680.82 481.615 696.505 477.359 715.703 477.359C721.839 477.359 728.221 478.003 734.852 479.289C736.237 468.503 741.036 459.349 749.25 451.828C757.365 444.208 766.865 440.398 777.75 440.398C790.516 440.398 801.253 443.714 809.961 450.344C814.711 453.906 819.461 455.242 824.211 454.352C824.607 462.268 821.539 467.365 815.008 469.641C813.919 483 808.13 489.68 797.641 489.68C793.484 489.68 790.961 489.383 790.07 488.789C791.555 487.503 792.297 485.87 792.297 483.891C792.297 481.812 791.456 480.031 789.773 478.547C787.695 482.406 783.044 484.336 775.82 484.336C771.862 484.336 768.745 482.456 766.469 478.695C770.229 477.508 773.198 475.727 775.375 473.352C777.552 470.878 778.641 468.602 778.641 466.523C778.641 461.081 775.771 458.359 770.031 458.359C758.948 458.359 752.466 466.969 750.586 484.188C768.596 491.906 780.076 504.029 785.023 520.555C788.289 531.737 794.326 539.258 803.133 543.117C795.414 546.977 790.318 551.281 787.844 556.031C786.854 557.911 785.964 560.138 785.172 562.711C779.828 579.534 771.466 591.953 760.086 599.969C748.706 607.885 734.06 611.844 716.148 611.844C704.768 611.844 694.872 610.458 686.461 607.688C683.195 609.766 681.562 612.091 681.562 614.664C681.562 617.138 682.057 619.266 683.047 621.047C684.036 622.729 685.818 624.263 688.391 625.648C693.438 628.32 703.036 630.695 717.188 632.773C723.62 634.06 730.25 629.904 737.078 620.305C737.474 625.352 738.612 629.161 740.492 631.734C742.372 634.208 744.451 635.594 746.727 635.891C774.039 639.948 791.703 648.854 799.719 662.609C802.49 667.26 803.875 673.198 803.875 680.422C803.875 687.745 801.549 694.82 796.898 701.648C792.247 708.576 785.964 714.464 778.047 719.312C761.62 729.208 741.432 734.156 717.484 734.156C689.38 734.156 667.906 729.555 653.062 720.352C640.297 712.336 633.914 702.094 633.914 689.625C633.914 681.312 638.12 673.445 646.531 666.023C649.302 663.648 652.469 661.57 656.031 659.789ZM701.75 584.828C703.927 587.896 706.104 589.875 708.281 590.766C710.458 591.557 712.982 591.953 715.852 591.953C718.82 591.953 721.393 591.557 723.57 590.766C725.747 589.875 727.578 588.391 729.062 586.312C731.932 582.255 733.367 575.427 733.367 565.828V524.711C733.367 515.112 732.279 508.779 730.102 505.711C727.924 502.643 725.747 500.714 723.57 499.922C721.393 499.031 718.82 498.586 715.852 498.586C712.982 498.586 710.458 499.031 708.281 499.922C706.104 500.714 704.323 502.099 702.938 504.078C699.969 508.234 698.484 515.112 698.484 524.711V565.828C698.484 575.427 699.573 581.76 701.75 584.828ZM747.766 583.789C752.318 582.206 754.94 577.307 755.633 569.094C756.326 561.375 756.672 552.716 756.672 543.117C756.672 528.273 756.276 518.773 755.484 514.617C754.297 509.076 751.724 505.464 747.766 503.781V583.789ZM670.43 583.789C672.409 582.305 673.398 580.573 673.398 578.594C673.398 576.021 673.052 573.547 672.359 571.172C669.688 562.068 668.352 552.716 668.352 543.117C668.352 533.617 669.688 524.315 672.359 515.211C673.052 512.836 673.398 510.956 673.398 509.57V506.008C673.398 505.117 673.003 504.375 672.211 503.781C668.154 508.729 665.185 514.37 663.305 520.703C661.523 527.036 660.089 532.628 659 537.477C658.604 538.961 655.833 540.841 650.688 543.117C655.932 545.69 658.703 547.62 659 548.906L661.969 561.375C664.542 571.865 667.362 579.336 670.43 583.789ZM662.859 636.633C661.969 637.523 661.523 638.81 661.523 640.492C661.919 651.18 677.159 659.245 707.242 664.688C710.706 665.479 713.18 669.24 714.664 675.969C715.159 673.792 717.089 671.961 720.453 670.477C723.917 669.091 726.242 668.448 727.43 668.547C742.372 670.328 752.466 672.01 757.711 673.594C767.013 676.464 773.792 680.719 778.047 686.359C779.234 684.974 779.828 683.193 779.828 681.016C779.828 678.839 778.74 676.612 776.562 674.336C774.385 672.159 770.823 670.229 765.875 668.547C757.365 665.479 745.836 663.104 731.289 661.422C716.742 659.74 706.5 658.255 700.562 656.969C694.724 655.682 689.331 654.099 684.383 652.219C673.596 647.964 666.422 642.768 662.859 636.633ZM670.875 669.289C663.849 672.357 660.336 678.096 660.336 686.508C660.336 693.237 665.432 699.323 675.625 704.766C687.005 710.901 701.701 713.969 719.711 713.969C741.878 713.969 756.276 710.159 762.906 702.539C764.786 700.461 765.727 698.234 765.727 695.859C765.727 693.583 764.589 691.555 762.312 689.773C760.135 687.992 757.266 686.557 753.703 685.469C748.458 683.688 740.195 682.154 728.914 680.867C723.471 680.273 716.742 684.281 708.727 692.891C708.727 687.349 707.786 683.341 705.906 680.867C704.125 678.393 702.344 677.057 700.562 676.859C689.083 675.375 679.188 672.852 670.875 669.289Z" fill="#3C4043"/>
<path d="M849.297 650.438C842.568 656.87 836.086 660.086 829.852 660.086C826.388 660.086 824.013 658.799 822.727 656.227C825.003 653.951 826.141 651.674 826.141 649.398C826.141 647.122 825.794 645.391 825.102 644.203L823.172 640.789L825.547 645.242C823.172 644.154 821.341 642.323 820.055 639.75C818.768 637.177 818.125 634.06 818.125 630.398C818.125 626.638 820.203 622.383 824.359 617.633C822.38 614.862 821.391 611.794 821.391 608.43C821.391 605.065 821.935 602.294 823.023 600.117C824.211 597.841 825.695 595.812 827.477 594.031C831.435 590.271 835.641 588.391 840.094 588.391C843.062 588.391 845.19 589.43 846.477 591.508C843.805 594.378 842.469 598.93 842.469 605.164C842.469 611.299 843.508 616.544 845.586 620.898C847.763 625.253 850.682 628.964 854.344 632.031C862.062 638.562 871.562 641.828 882.844 641.828C895.411 641.828 904.12 637.227 908.969 628.023C910.354 625.253 911.047 622.482 911.047 619.711C911.047 616.841 910.404 614.318 909.117 612.141C907.831 609.865 906.148 607.688 904.07 605.609C900.607 602.245 895.312 598.385 888.188 594.031C881.359 589.182 873.294 586.758 863.992 586.758C857.956 586.758 853.898 587.253 851.82 588.242C853.107 585.273 853.75 582.305 853.75 579.336C853.75 576.367 851.771 573.151 847.812 569.688C843.854 566.125 840.292 562.562 837.125 559C834.057 555.438 831.583 551.875 829.703 548.312C825.943 541.583 824.062 534.458 824.062 526.938C824.062 519.417 825.596 512.786 828.664 507.047C831.831 501.208 836.234 496.211 841.875 492.055C853.651 483.247 868.742 478.844 887.148 478.844C896.055 478.844 902.141 479.24 905.406 480.031C908.771 480.823 911.443 481.565 913.422 482.258C916.094 483.247 919.359 483.742 923.219 483.742C927.078 483.742 929.75 482.901 931.234 481.219C932.818 479.536 933.609 478.003 933.609 476.617C933.609 475.133 933.461 473.995 933.164 473.203C933.758 473.005 934.648 472.906 935.836 472.906C937.023 472.906 938.359 473.253 939.844 473.945C941.427 474.638 942.812 475.578 944 476.766C946.375 479.438 947.562 482.307 947.562 485.375C947.562 488.344 946.969 490.62 945.781 492.203C948.552 494.776 949.938 498.438 949.938 503.188C949.938 507.938 947.958 511.945 944 515.211C944.891 516.992 945.336 519.169 945.336 521.742C945.336 524.315 943.951 526.789 941.18 529.164C938.409 531.539 935.786 532.727 933.312 532.727C929.057 532.727 926.188 532.182 924.703 531.094C925.99 527.927 926.633 524.513 926.633 520.852C926.633 517.091 925.643 513.529 923.664 510.164C921.685 506.799 919.161 504.078 916.094 502C910.354 498.042 903.526 496.062 895.609 496.062C885.615 496.062 878.885 499.229 875.422 505.562C874.333 507.542 873.789 509.719 873.789 512.094C873.789 514.37 874.086 516.497 874.68 518.477C875.372 520.357 876.461 522.286 877.945 524.266C880.815 528.125 884.872 531.786 890.117 535.25C896.945 539.703 901.695 541.93 904.367 541.93C910.107 541.93 915.104 540.544 919.359 537.773C918.172 542.523 917.578 545.839 917.578 547.719C917.578 550.589 919.854 553.904 924.406 557.664C937.172 566.471 945.88 574.536 950.531 581.859C954.984 588.984 957.211 596.901 957.211 605.609C957.211 614.318 955.281 621.789 951.422 628.023C947.562 634.159 942.318 639.453 935.688 643.906C921.932 653.109 905.258 657.711 885.664 657.711C872.305 657.711 860.182 655.286 849.297 650.438ZM844.102 514.469C841.232 515.854 839.797 519.714 839.797 526.047C839.797 532.281 841.826 538.268 845.883 544.008C849.94 549.648 856.372 556.031 865.18 563.156C867.258 564.74 868.297 566.273 868.297 567.758C868.297 570.034 868.099 571.865 867.703 573.25C868.891 572.953 870.969 572.656 873.938 572.359C881.161 571.667 890.117 575.031 900.805 582.453C917.826 592.943 926.336 603.977 926.336 615.555C926.336 619.909 925.742 623.174 924.555 625.352C928.117 624.659 930.839 621.641 932.719 616.297C933.214 614.714 933.461 613.081 933.461 611.398C933.461 603.383 929.107 595.268 920.398 587.055C911.789 578.742 899.37 570.727 883.141 563.008C856.224 549.352 843.211 533.172 844.102 514.469Z" fill="#3C4043"/>
<path d="M1072.25 632.328C1074.13 630.349 1075.61 627.875 1076.7 624.906C1077.79 621.839 1078.34 618.672 1078.34 615.406C1078.34 612.042 1078.14 608.974 1077.74 606.203C1078.43 604.719 1080.32 603.581 1083.38 602.789C1086.45 601.898 1088.48 601.453 1089.47 601.453C1093.23 601.453 1096.25 602.888 1098.52 605.758C1100.8 608.529 1101.94 612.438 1101.94 617.484C1101.94 622.432 1100.45 627.331 1097.48 632.18C1094.61 637.029 1090.76 641.333 1085.91 645.094C1075.12 653.505 1062.55 657.711 1048.2 657.711C1020.89 657.711 1002.78 647.37 993.875 626.688C990.609 619.068 988.977 609.518 988.977 598.039V579.93C988.977 575.279 983.88 570.38 973.688 565.234C983.88 559.396 988.977 551.529 988.977 541.633V524.117C988.977 512.836 984.375 507.195 975.172 507.195C971.807 507.195 969.036 508.036 966.859 509.719C965.474 507.839 964.781 505.909 964.781 503.93C964.781 501.852 965.128 499.625 965.82 497.25C966.612 494.776 967.948 492.549 969.828 490.57C974.578 485.424 981.951 483.643 991.945 485.227V480.477C991.945 470.086 994.568 460.932 999.812 453.016C1004.46 445.891 1008.57 442.328 1012.13 442.328C1015.79 442.328 1018.61 443.565 1020.59 446.039C1022.28 438.221 1024.5 432.581 1027.27 429.117C1030.04 425.654 1034 423.922 1039.15 423.922V485.82H1087.39C1088.18 487.404 1088.58 490.076 1088.58 493.836C1088.58 497.497 1087.14 500.466 1084.27 502.742C1081.4 504.919 1077.94 506.008 1073.88 506.008H1039.15V606.5C1039.15 623.719 1043.06 633.812 1050.88 636.781C1053.15 637.573 1055.58 637.969 1058.15 637.969C1060.82 637.969 1063.34 637.523 1065.72 636.633C1068.19 635.643 1070.37 634.208 1072.25 632.328ZM1003.23 614.664C1007.88 611.695 1010.5 605.51 1011.09 596.109C1011.49 589.38 1011.69 584.135 1011.69 580.375C1011.79 576.615 1011.84 573.596 1011.84 571.32C1011.93 568.945 1011.98 567.115 1011.98 565.828V559.891C1011.98 557.021 1011.93 553.359 1011.84 548.906C1011.84 544.354 1011.79 539.456 1011.69 534.211C1011.69 528.867 1011.59 523.771 1011.39 518.922C1011.09 507.245 1010.65 500.12 1010.05 497.547C1008.87 491.807 1006.59 487.849 1003.23 485.672V531.984C1003.23 545.74 1002.98 553.013 1002.48 553.805C1002.09 554.596 1001.74 555.536 1001.45 556.625C1000.55 559.594 997.19 562.068 991.352 564.047C997.289 566.125 1000.65 568.648 1001.45 571.617C1002.63 576.367 1003.23 587.5 1003.23 605.016V614.664Z" fill="#3C4043"/>
<path d="M1143.5 637.375C1137.27 631.042 1132.32 623.521 1128.66 614.812C1125.09 606.104 1122.92 598.633 1122.12 592.398C1121.33 586.164 1120.64 582.156 1120.05 580.375C1119.55 578.594 1118.66 576.911 1117.38 575.328C1114.8 572.062 1110.1 568.747 1103.27 565.383C1111.88 561.523 1117.38 555.339 1119.75 546.828C1120.44 544.453 1120.99 542.078 1121.38 539.703C1123.96 521.99 1132.52 507.195 1147.06 495.32C1161.61 483.346 1178.58 477.359 1197.98 477.359C1218.16 477.359 1235.53 483.396 1250.08 495.469C1264.23 507.245 1272.59 521.99 1275.16 539.703C1276.05 545.938 1277.39 550.49 1279.17 553.359C1282.54 558.604 1287.24 562.612 1293.27 565.383C1286.54 568.648 1282.19 571.518 1280.21 573.992C1277.54 577.456 1275.86 581.562 1275.16 586.312C1272 609.667 1263.88 627.43 1250.82 639.602C1237.76 651.674 1220.34 657.711 1198.57 657.711C1175.22 657.711 1156.86 650.932 1143.5 637.375ZM1223.51 535.398C1223.51 510.659 1215.1 498.289 1198.27 498.289C1181.45 498.289 1173.04 510.659 1173.04 535.398V601.156C1173.04 624.906 1181.4 636.781 1198.12 636.781C1215.05 636.781 1223.51 624.906 1223.51 601.156V535.398ZM1237.76 614.664C1242.71 612.784 1245.43 606.302 1245.92 595.219C1246.52 584.135 1246.81 575.922 1246.81 570.578C1246.81 565.135 1246.76 560.633 1246.66 557.07C1246.66 553.409 1246.61 549.648 1246.52 545.789C1246.12 531.341 1244.98 522.93 1243.1 520.555C1241.22 518.18 1239.44 516.596 1237.76 515.805V614.664ZM1148.84 614.664C1150.23 613.576 1150.92 612.339 1150.92 610.953C1150.92 608.776 1150.48 606.005 1149.59 602.641C1145.53 587.104 1143.5 576.318 1143.5 570.281C1143.5 564.146 1143.7 559.396 1144.09 556.031C1144.49 552.568 1144.98 549.104 1145.58 545.641C1146.86 538.911 1148.2 532.974 1149.59 527.828C1150.48 524.464 1150.92 522.188 1150.92 521C1150.92 518.625 1150.23 516.893 1148.84 515.805C1144.69 520.753 1141.52 527.383 1139.34 535.695C1137.17 544.008 1135.39 551.331 1134 557.664C1133.51 560.336 1130.59 562.909 1125.24 565.383C1130.59 567.857 1133.51 570.331 1134 572.805C1137.66 589.529 1140.68 600.167 1143.05 604.719C1145.43 609.271 1147.36 612.586 1148.84 614.664Z" fill="#3C4043"/>
<path d="M1341.81 652.219C1337.26 655.385 1332.07 656.969 1326.23 656.969C1320.39 656.969 1316.13 655.633 1313.46 652.961C1310.89 650.19 1309.6 647.568 1309.6 645.094C1309.6 641.828 1310.15 639.453 1311.23 637.969C1313.41 639.651 1316.18 640.492 1319.55 640.492C1325.88 640.492 1329.99 637.424 1331.87 631.289V585.125C1331.87 580.771 1330.93 577.604 1329.05 575.625C1326.18 572.359 1321.08 568.945 1313.76 565.383C1320.68 562.216 1325.09 559.693 1326.97 557.812C1330.23 554.547 1331.87 550.539 1331.87 545.789V524.117C1331.87 515.706 1329 511.154 1323.26 510.461C1321.58 510.263 1319.45 510.164 1316.88 510.164C1314.3 510.164 1311.93 511.005 1309.75 512.688C1308.36 510.807 1307.67 508.878 1307.67 506.898C1307.67 504.82 1308.17 502.544 1309.16 500.07C1310.24 497.497 1311.83 495.073 1313.91 492.797C1319.15 487.453 1325.19 484.781 1332.02 484.781C1338.94 484.781 1344.68 485.87 1349.23 488.047C1354.68 481.911 1360.22 478.844 1365.86 478.844C1371.5 478.844 1375.41 480.18 1377.59 482.852C1379.76 485.424 1380.85 489.432 1380.85 494.875V508.828C1386 499.625 1393.02 492.352 1401.93 487.008C1410.84 481.565 1420.29 478.844 1430.28 478.844C1440.28 478.844 1448.29 480.18 1454.33 482.852C1460.46 485.424 1465.51 489.135 1469.47 493.984C1477.19 503.583 1481.05 517.536 1481.05 535.844V545.641C1481.05 550.391 1482.09 553.805 1484.16 555.883C1487.23 559.049 1492.23 562.216 1499.16 565.383C1491.73 569.044 1487.08 571.815 1485.2 573.695C1482.43 576.763 1481.05 580.474 1481.05 584.828V631.289C1482.93 637.424 1487.03 640.492 1493.37 640.492C1496.73 640.492 1499.5 639.651 1501.68 637.969C1502.77 639.453 1503.31 641.63 1503.31 644.5C1503.31 647.37 1501.98 650.19 1499.3 652.961C1496.73 655.633 1492.72 656.969 1487.28 656.969C1481.84 656.969 1476.89 655.435 1472.44 652.367C1468.48 655.435 1463.83 656.969 1458.48 656.969C1453.24 656.969 1448.54 655.484 1444.38 652.516C1440.03 655.484 1435.38 656.969 1430.43 656.969C1425.48 656.969 1421.57 655.732 1418.7 653.258C1415.83 650.784 1414.4 647.221 1414.4 642.57C1414.4 640.393 1415.14 638.661 1416.62 637.375C1418.9 639.156 1421.18 640.047 1423.45 640.047C1427.81 640.047 1430.92 637.622 1432.8 632.773V544.305C1432.8 525.107 1428.1 513.974 1418.7 510.906C1415.64 509.917 1412.32 509.422 1408.76 509.422C1405.2 509.422 1401.88 510.164 1398.81 511.648C1395.74 513.034 1392.97 515.013 1390.5 517.586C1385.06 523.326 1381.84 530.154 1380.85 538.07V632.773C1382.73 637.622 1385.85 640.047 1390.2 640.047C1392.48 640.047 1394.76 639.156 1397.03 637.375C1398.52 638.661 1399.26 641.036 1399.26 644.5C1399.26 647.865 1397.82 650.784 1394.95 653.258C1392.08 655.732 1388.27 656.969 1383.52 656.969C1378.87 656.969 1374.62 655.484 1370.76 652.516C1367 655.484 1362.4 656.969 1356.95 656.969C1351.51 656.969 1346.46 655.385 1341.81 652.219ZM1447.05 614.664C1452 612.784 1454.72 606.302 1455.22 595.219C1455.81 584.135 1456.11 573.695 1456.11 563.898C1456.11 554.102 1455.71 546.036 1454.92 539.703C1454.13 533.271 1452.99 528.273 1451.51 524.711C1450.02 521.049 1448.24 518.427 1446.16 516.844C1444.18 515.161 1442.01 513.727 1439.63 512.539C1443.39 521.445 1445.57 529.56 1446.16 536.883C1446.76 544.206 1447.05 551.281 1447.05 558.109V614.664ZM1354.58 581.859C1354.68 578.594 1354.73 575.872 1354.73 573.695C1354.83 571.419 1354.88 569.589 1354.88 568.203C1354.88 566.818 1354.88 565.432 1354.88 564.047C1354.88 562.562 1354.83 560.633 1354.73 558.258C1354.73 555.883 1354.68 553.26 1354.58 550.391C1354.58 547.521 1354.48 544.701 1354.28 541.93C1353.98 535.102 1353.54 530.401 1352.95 527.828C1351.76 522.089 1349.48 518.13 1346.12 515.953V525.602C1346.12 542.227 1345.72 552.023 1344.93 554.992C1344.24 557.862 1343.05 560.039 1341.37 561.523C1339.78 563.008 1337.41 564.294 1334.24 565.383C1340.18 567.461 1343.54 569.935 1344.34 572.805C1345.52 577.555 1346.12 588.242 1346.12 604.867V614.516C1350.67 611.547 1353.29 605.51 1353.98 596.406C1354.38 589.974 1354.58 585.125 1354.58 581.859Z" fill="#3C4043"/>
<path d="M1649.52 609.172C1651.7 605.016 1655.71 602.938 1661.55 602.938C1665.51 602.938 1668.57 604.57 1670.75 607.836C1672.53 610.409 1673.42 613.576 1673.42 617.336C1673.42 620.997 1672.48 624.708 1670.6 628.469C1668.72 632.229 1666.15 635.643 1662.88 638.711C1659.62 641.779 1655.86 644.5 1651.6 646.875C1647.45 649.25 1642.99 651.229 1638.24 652.812C1628.45 656.078 1618.25 657.711 1607.66 657.711C1597.08 657.711 1587.13 655.979 1577.83 652.516C1568.62 648.953 1560.71 644.005 1554.08 637.672C1541.11 625.203 1533.2 608.083 1530.33 586.312C1529.64 581.464 1528.5 578 1526.91 575.922C1523.95 572.26 1519.05 568.747 1512.22 565.383C1520.83 561.523 1526.32 555.339 1528.7 546.828C1529.39 544.453 1529.93 542.078 1530.33 539.703C1532.8 522.286 1541.61 507.443 1556.75 495.172C1571.4 483.297 1587.77 477.359 1605.88 477.359C1624.68 477.359 1640.96 483.99 1654.72 497.25C1668.97 510.906 1676.09 527.68 1676.09 547.57C1676.09 548.263 1676.04 548.956 1675.95 549.648C1675.95 550.341 1675.99 550.984 1676.09 551.578C1676.29 552.865 1677.08 553.607 1678.47 553.805C1680.25 556.081 1681.14 558.505 1681.14 561.078C1681.14 567.016 1677.97 570.529 1671.64 571.617C1670.06 571.914 1667.58 572.31 1664.22 572.805L1580.5 586.164V600.414C1580.5 611.893 1583.96 620.997 1590.89 627.727C1597.42 634.159 1605.68 637.375 1615.68 637.375C1626.27 637.375 1634.78 635.198 1641.21 630.844C1647.25 626.688 1650.27 621.245 1650.27 614.516C1650.27 612.932 1650.02 611.151 1649.52 609.172ZM1623.55 561.227V519.664C1623.55 513.133 1622.26 508.333 1619.69 505.266C1615.14 500.021 1610.63 497.398 1606.18 497.398C1601.73 497.398 1598.02 498.091 1595.05 499.477C1592.08 500.763 1589.51 502.841 1587.33 505.711C1582.78 511.747 1580.5 521.148 1580.5 533.914V568.203L1623.55 561.227ZM1645.52 557.516V552.914C1645.52 534.508 1643.98 523.375 1640.91 519.516C1639.53 517.833 1637.99 516.596 1636.31 515.805V559L1645.52 557.516ZM1556.3 614.664C1557.69 613.576 1558.38 612.339 1558.38 610.953C1558.38 608.776 1557.94 606.005 1557.05 602.641C1552.99 587.104 1550.96 576.318 1550.96 570.281C1550.96 564.146 1551.16 559.396 1551.55 556.031C1551.95 552.568 1552.49 549.104 1553.19 545.641C1554.38 538.911 1555.66 532.974 1557.05 527.828C1557.94 524.464 1558.38 522.188 1558.38 521C1558.38 518.625 1557.69 516.893 1556.3 515.805C1552.15 520.753 1548.98 527.383 1546.8 535.695C1544.63 544.008 1542.85 551.331 1541.46 557.664C1540.97 560.336 1538.05 562.909 1532.7 565.383C1538.05 567.857 1540.97 570.331 1541.46 572.805C1545.12 589.529 1548.14 600.167 1550.52 604.719C1552.89 609.271 1554.82 612.586 1556.3 614.664Z" fill="#3C4043"/>
<circle cx="73" cy="76" r="24" fill="#D2E3FC"/>
<path d="M70.9825 83.464V65.176H70.3345L67.9585 73.816H63.4225V73.384L66.4465 62.8H75.7345V83.464H81.9985V88H63.8545V83.464H70.9825Z" fill="#1A73E8"/>
<path d="M127.9 88H124.876V79.576C124.876 78.952 124.732 78.472 124.444 78.136C124.156 77.8 123.652 77.632 122.932 77.632H115.084V88H112.06V62.8H121.06C122.356 62.8 123.484 62.992 124.444 63.376C125.404 63.736 126.196 64.228 126.82 64.852C127.468 65.476 127.948 66.208 128.26 67.048C128.596 67.864 128.764 68.728 128.764 69.64V70.72C128.764 71.656 128.5 72.592 127.972 73.528C127.468 74.464 126.676 75.184 125.596 75.688V76.12C126.316 76.24 126.88 76.528 127.288 76.984C127.696 77.44 127.9 78.088 127.9 78.928V88ZM115.084 74.824H120.7C122.404 74.824 123.664 74.464 124.48 73.744C125.32 73 125.74 71.92 125.74 70.504V69.856C125.74 68.584 125.32 67.564 124.48 66.796C123.664 66.004 122.404 65.608 120.7 65.608H115.084V74.824ZM147.459 81.736H136.659L134.823 88H131.583L139.215 62.8H144.903L152.535 88H149.295L147.459 81.736ZM141.843 64.096L137.487 78.928H146.631L142.275 64.096H141.843ZM155.246 62.8H172.958V65.608H165.614V88H162.59V65.608H155.246V62.8ZM178.153 62.8H194.137V65.608H187.657V85.192H194.137V88H178.153V85.192H184.633V65.608H178.153V62.8ZM199.332 72.592C199.332 69.328 200.112 66.796 201.672 64.996C203.232 63.196 205.404 62.296 208.188 62.296C210.972 62.296 213.144 63.196 214.704 64.996C216.264 66.796 217.044 69.328 217.044 72.592V78.208C217.044 81.568 216.264 84.124 214.704 85.876C213.144 87.628 210.972 88.504 208.188 88.504C205.404 88.504 203.232 87.628 201.672 85.876C200.112 84.124 199.332 81.568 199.332 78.208V72.592ZM208.188 85.696C210.132 85.696 211.584 85.036 212.544 83.716C213.528 82.372 214.02 80.464 214.02 77.992V72.808C214.02 70.504 213.528 68.644 212.544 67.228C211.584 65.812 210.132 65.104 208.188 65.104C206.244 65.104 204.78 65.812 203.796 67.228C202.836 68.644 202.356 70.504 202.356 72.808V77.992C202.356 80.464 202.836 82.372 203.796 83.716C204.78 85.036 206.244 85.696 208.188 85.696ZM235.163 86.704H235.595V62.8H238.619V88H232.571L225.299 64.096H224.867V88H221.843V62.8H227.891L235.163 86.704ZM257.674 81.736H246.874L245.038 88H241.798L249.43 62.8H255.118L262.75 88H259.51L257.674 81.736ZM252.058 64.096L247.702 78.928H256.846L252.49 64.096H252.058ZM266.433 62.8H269.457V85.192H282.633V88H266.433V62.8Z" fill="#1A73E8"/>
<circle cx="344" cy="76" r="24" fill="#D2E3FC"/>
<path d="M352.531 83.464V88H334.819V83.032C334.819 81.712 335.011 80.584 335.395 79.648C335.803 78.712 336.367 77.92 337.087 77.272C337.831 76.624 338.719 76.096 339.751 75.688C340.783 75.256 341.947 74.896 343.243 74.608C344.203 74.392 344.983 74.152 345.583 73.888C346.207 73.6 346.699 73.288 347.059 72.952C347.419 72.592 347.659 72.208 347.779 71.8C347.923 71.368 347.995 70.888 347.995 70.36C347.995 69.352 347.623 68.512 346.879 67.84C346.159 67.168 345.151 66.832 343.855 66.832C342.487 66.832 341.395 67.252 340.579 68.092C339.763 68.908 339.355 70.048 339.355 71.512V73.096H334.603V71.08C334.603 69.904 334.807 68.788 335.215 67.732C335.647 66.652 336.247 65.716 337.015 64.924C337.807 64.108 338.767 63.472 339.895 63.016C341.023 62.536 342.295 62.296 343.711 62.296C345.223 62.296 346.543 62.524 347.671 62.98C348.799 63.412 349.735 63.988 350.479 64.708C351.247 65.428 351.811 66.268 352.171 67.228C352.555 68.164 352.747 69.136 352.747 70.144V70.576C352.747 72.688 352.147 74.44 350.947 75.832C349.771 77.224 347.839 78.232 345.151 78.856C344.023 79.12 343.087 79.396 342.343 79.684C341.623 79.948 341.059 80.248 340.651 80.584C340.243 80.92 339.955 81.292 339.787 81.7C339.643 82.084 339.571 82.528 339.571 83.032V83.464H352.531Z" fill="#1A73E8"/>
<path d="M391.16 85.696C392.192 85.696 393.068 85.528 393.788 85.192C394.532 84.832 395.132 84.364 395.588 83.788C396.068 83.188 396.416 82.516 396.632 81.772C396.872 81.004 396.992 80.2 396.992 79.36V78.928H400.016V79.36C400.016 80.632 399.824 81.832 399.44 82.96C399.056 84.064 398.492 85.036 397.748 85.876C397.004 86.692 396.08 87.34 394.976 87.82C393.872 88.276 392.6 88.504 391.16 88.504C388.376 88.504 386.204 87.628 384.644 85.876C383.084 84.124 382.304 81.568 382.304 78.208V72.592C382.304 69.328 383.084 66.796 384.644 64.996C386.204 63.196 388.376 62.296 391.16 62.296C392.6 62.296 393.872 62.536 394.976 63.016C396.08 63.472 397.004 64.12 397.748 64.96C398.492 65.776 399.056 66.748 399.44 67.876C399.824 68.98 400.016 70.168 400.016 71.44V71.872H396.992V71.44C396.968 70.624 396.836 69.832 396.596 69.064C396.38 68.296 396.032 67.624 395.552 67.048C395.096 66.448 394.508 65.98 393.788 65.644C393.068 65.284 392.192 65.104 391.16 65.104C389.216 65.104 387.752 65.812 386.768 67.228C385.808 68.644 385.328 70.504 385.328 72.808V77.992C385.328 80.464 385.808 82.372 386.768 83.716C387.752 85.036 389.216 85.696 391.16 85.696ZM404.203 72.592C404.203 69.328 404.983 66.796 406.543 64.996C408.103 63.196 410.275 62.296 413.059 62.296C415.843 62.296 418.015 63.196 419.575 64.996C421.135 66.796 421.915 69.328 421.915 72.592V78.208C421.915 81.568 421.135 84.124 419.575 85.876C418.015 87.628 415.843 88.504 413.059 88.504C410.275 88.504 408.103 87.628 406.543 85.876C404.983 84.124 404.203 81.568 404.203 78.208V72.592ZM413.059 85.696C415.003 85.696 416.455 85.036 417.415 83.716C418.399 82.372 418.891 80.464 418.891 77.992V72.808C418.891 70.504 418.399 68.644 417.415 67.228C416.455 65.812 415.003 65.104 413.059 65.104C411.115 65.104 409.651 65.812 408.667 67.228C407.707 68.644 407.227 70.504 407.227 72.808V77.992C407.227 80.464 407.707 82.372 408.667 83.716C409.651 85.036 411.115 85.696 413.059 85.696ZM440.034 86.704H440.466V62.8H443.49V88H437.442L430.17 64.096H429.738V88H426.714V62.8H432.762L440.034 86.704ZM448.289 62.8H466.001V65.608H458.657V88H455.633V65.608H448.289V62.8ZM487.072 88H484.048V79.576C484.048 78.952 483.904 78.472 483.616 78.136C483.328 77.8 482.824 77.632 482.104 77.632H474.256V88H471.232V62.8H480.232C481.528 62.8 482.656 62.992 483.616 63.376C484.576 63.736 485.368 64.228 485.992 64.852C486.64 65.476 487.12 66.208 487.432 67.048C487.768 67.864 487.936 68.728 487.936 69.64V70.72C487.936 71.656 487.672 72.592 487.144 73.528C486.64 74.464 485.848 75.184 484.768 75.688V76.12C485.488 76.24 486.052 76.528 486.46 76.984C486.868 77.44 487.072 78.088 487.072 78.928V88ZM474.256 74.824H479.872C481.576 74.824 482.836 74.464 483.652 73.744C484.492 73 484.912 71.92 484.912 70.504V69.856C484.912 68.584 484.492 67.564 483.652 66.796C482.836 66.004 481.576 65.608 479.872 65.608H474.256V74.824ZM506.631 81.736H495.831L493.995 88H490.755L498.387 62.8H504.075L511.707 88H508.467L506.631 81.736ZM501.015 64.096L496.659 78.928H505.803L501.447 64.096H501.015ZM529.214 70.072C529.214 69.256 529.046 68.536 528.71 67.912C528.398 67.288 527.966 66.772 527.414 66.364C526.862 65.956 526.226 65.644 525.506 65.428C524.786 65.212 524.03 65.104 523.238 65.104C522.542 65.104 521.882 65.2 521.258 65.392C520.634 65.56 520.07 65.812 519.566 66.148C519.086 66.484 518.702 66.904 518.414 67.408C518.126 67.888 517.982 68.452 517.982 69.1V69.316C517.982 70.012 518.126 70.612 518.414 71.116C518.702 71.596 519.122 72.016 519.674 72.376C520.25 72.712 520.958 73 521.798 73.24C522.638 73.456 523.622 73.648 524.75 73.816C527.39 74.224 529.334 75.004 530.582 76.156C531.83 77.284 532.454 78.808 532.454 80.728V81.16C532.454 82.24 532.262 83.236 531.878 84.148C531.518 85.036 530.966 85.804 530.222 86.452C529.502 87.1 528.602 87.604 527.522 87.964C526.442 88.324 525.194 88.504 523.778 88.504C522.17 88.504 520.742 88.276 519.494 87.82C518.27 87.34 517.238 86.692 516.398 85.876C515.582 85.036 514.958 84.064 514.526 82.96C514.094 81.832 513.878 80.608 513.878 79.288V78.208H516.902V79.072C516.902 81.28 517.502 82.936 518.702 84.04C519.926 85.144 521.618 85.696 523.778 85.696C525.65 85.696 527.054 85.288 527.99 84.472C528.95 83.632 529.43 82.528 529.43 81.16V80.944C529.43 79.624 528.938 78.616 527.954 77.92C526.994 77.224 525.422 76.72 523.238 76.408C521.966 76.24 520.814 75.988 519.782 75.652C518.774 75.292 517.91 74.836 517.19 74.284C516.47 73.708 515.918 73.024 515.534 72.232C515.15 71.44 514.958 70.504 514.958 69.424V68.992C514.958 68.008 515.162 67.108 515.57 66.292C515.978 65.476 516.542 64.768 517.262 64.168C518.006 63.568 518.882 63.112 519.89 62.8C520.922 62.464 522.05 62.296 523.274 62.296C524.69 62.296 525.95 62.5 527.054 62.908C528.182 63.316 529.13 63.868 529.898 64.564C530.666 65.236 531.242 66.04 531.626 66.976C532.034 67.888 532.238 68.848 532.238 69.856V71.368H529.214V70.072ZM536.461 62.8H554.173V65.608H546.829V88H543.805V65.608H536.461V62.8ZM559.368 62.8H575.352V65.608H568.872V85.192H575.352V88H559.368V85.192H565.848V65.608H559.368V62.8ZM594.335 86.704H594.767V62.8H597.791V88H591.743L584.471 64.096H584.039V88H581.015V62.8H587.063L594.335 86.704ZM609.034 75.904H620.266V88H617.458V84.976H617.026C616.618 86.032 615.898 86.884 614.866 87.532C613.834 88.18 612.634 88.504 611.266 88.504C608.554 88.504 606.418 87.628 604.858 85.876C603.322 84.124 602.554 81.568 602.554 78.208V72.592C602.554 69.328 603.334 66.796 604.894 64.996C606.454 63.196 608.626 62.296 611.41 62.296C612.85 62.296 614.122 62.536 615.226 63.016C616.33 63.472 617.254 64.12 617.998 64.96C618.742 65.776 619.306 66.748 619.69 67.876C620.074 68.98 620.266 70.168 620.266 71.44V71.872H617.242V71.44C617.242 70.624 617.122 69.832 616.882 69.064C616.666 68.296 616.318 67.624 615.838 67.048C615.382 66.448 614.782 65.98 614.038 65.644C613.318 65.284 612.442 65.104 611.41 65.104C609.466 65.104 608.002 65.812 607.018 67.228C606.058 68.644 605.578 70.504 605.578 72.808V77.992C605.578 80.464 606.058 82.372 607.018 83.716C608.002 85.036 609.49 85.696 611.482 85.696C613.282 85.696 614.686 85.12 615.694 83.968C616.726 82.816 617.242 81.208 617.242 79.144V78.712H609.034V75.904ZM661.472 70.072C661.472 69.256 661.304 68.536 660.968 67.912C660.656 67.288 660.224 66.772 659.672 66.364C659.12 65.956 658.484 65.644 657.764 65.428C657.044 65.212 656.288 65.104 655.496 65.104C654.8 65.104 654.14 65.2 653.516 65.392C652.892 65.56 652.328 65.812 651.824 66.148C651.344 66.484 650.96 66.904 650.672 67.408C650.384 67.888 650.24 68.452 650.24 69.1V69.316C650.24 70.012 650.384 70.612 650.672 71.116C650.96 71.596 651.38 72.016 651.932 72.376C652.508 72.712 653.216 73 654.056 73.24C654.896 73.456 655.88 73.648 657.008 73.816C659.648 74.224 661.592 75.004 662.84 76.156C664.088 77.284 664.712 78.808 664.712 80.728V81.16C664.712 82.24 664.52 83.236 664.136 84.148C663.776 85.036 663.224 85.804 662.48 86.452C661.76 87.1 660.86 87.604 659.78 87.964C658.7 88.324 657.452 88.504 656.036 88.504C654.428 88.504 653 88.276 651.752 87.82C650.528 87.34 649.496 86.692 648.656 85.876C647.84 85.036 647.216 84.064 646.784 82.96C646.352 81.832 646.136 80.608 646.136 79.288V78.208H649.16V79.072C649.16 81.28 649.76 82.936 650.96 84.04C652.184 85.144 653.876 85.696 656.036 85.696C657.908 85.696 659.312 85.288 660.248 84.472C661.208 83.632 661.688 82.528 661.688 81.16V80.944C661.688 79.624 661.196 78.616 660.212 77.92C659.252 77.224 657.68 76.72 655.496 76.408C654.224 76.24 653.072 75.988 652.04 75.652C651.032 75.292 650.168 74.836 649.448 74.284C648.728 73.708 648.176 73.024 647.792 72.232C647.408 71.44 647.216 70.504 647.216 69.424V68.992C647.216 68.008 647.42 67.108 647.828 66.292C648.236 65.476 648.8 64.768 649.52 64.168C650.264 63.568 651.14 63.112 652.148 62.8C653.18 62.464 654.308 62.296 655.532 62.296C656.948 62.296 658.208 62.5 659.312 62.908C660.44 63.316 661.388 63.868 662.156 64.564C662.924 65.236 663.5 66.04 663.884 66.976C664.292 67.888 664.496 68.848 664.496 69.856V71.368H661.472V70.072ZM669.943 62.8H685.207V65.608H672.967V73.96H684.991V76.768H672.967V85.192H685.423V88H669.943V62.8ZM707.502 88H704.478V79.576C704.478 78.952 704.334 78.472 704.046 78.136C703.758 77.8 703.254 77.632 702.534 77.632H694.686V88H691.662V62.8H700.662C701.958 62.8 703.086 62.992 704.046 63.376C705.006 63.736 705.798 64.228 706.422 64.852C707.07 65.476 707.55 66.208 707.862 67.048C708.198 67.864 708.366 68.728 708.366 69.64V70.72C708.366 71.656 708.102 72.592 707.574 73.528C707.07 74.464 706.278 75.184 705.198 75.688V76.12C705.918 76.24 706.482 76.528 706.89 76.984C707.298 77.44 707.502 78.088 707.502 78.928V88ZM694.686 74.824H700.302C702.006 74.824 703.266 74.464 704.082 73.744C704.922 73 705.342 71.92 705.342 70.504V69.856C705.342 68.584 704.922 67.564 704.082 66.796C703.266 66.004 702.006 65.608 700.302 65.608H694.686V74.824ZM713.669 62.8H729.653V65.608H723.173V85.192H729.653V88H713.669V85.192H720.149V65.608H713.669V62.8ZM736.108 62.8H751.588V65.608H739.132V73.96H751.372V76.768H739.132V88H736.108V62.8Z" fill="#1A73E8"/>
<circle cx="813" cy="76" r="24" fill="#D2E3FC"/>
<path d="M810.047 77.2V69.712L816.311 67.984V67.336H803.783V62.8H820.199V70.72L813.503 72.664V73.312H814.367C815.255 73.312 816.131 73.456 816.995 73.744C817.859 74.008 818.615 74.428 819.263 75.004C819.935 75.58 820.475 76.3 820.883 77.164C821.291 78.004 821.495 79 821.495 80.152V80.584C821.495 81.712 821.303 82.756 820.919 83.716C820.559 84.676 820.007 85.516 819.263 86.236C818.543 86.932 817.643 87.484 816.563 87.892C815.483 88.3 814.247 88.504 812.855 88.504C811.439 88.504 810.155 88.276 809.003 87.82C807.851 87.364 806.867 86.74 806.051 85.948C805.259 85.156 804.647 84.244 804.215 83.212C803.783 82.18 803.567 81.088 803.567 79.936V78.424H808.319V79.72C808.319 80.872 808.691 81.868 809.435 82.708C810.179 83.548 811.295 83.968 812.783 83.968C814.055 83.968 815.027 83.644 815.699 82.996C816.395 82.348 816.743 81.496 816.743 80.44C816.743 79.312 816.371 78.496 815.627 77.992C814.907 77.464 813.983 77.2 812.855 77.2H810.047Z" fill="#1A73E8"/>
<path d="M852.024 62.8H868.008V65.608H861.528V85.192H868.008V88H852.024V85.192H858.504V65.608H852.024V62.8ZM886.991 86.704H887.423V62.8H890.447V88H884.399L877.127 64.096H876.695V88H873.671V62.8H879.719L886.991 86.704ZM896.218 62.8H899.242V85.192H912.418V88H896.218V62.8ZM918.153 62.8H934.137V65.608H927.657V85.192H934.137V88H918.153V85.192H924.633V65.608H918.153V62.8ZM953.12 86.704H953.552V62.8H956.576V88H950.528L943.256 64.096H942.824V88H939.8V62.8H945.848L953.12 86.704ZM962.599 62.8H977.863V65.608H965.623V73.96H977.647V76.768H965.623V85.192H978.079V88H962.599V62.8ZM989.754 85.984C989.754 85.288 989.994 84.7 990.474 84.22C990.978 83.716 991.578 83.464 992.274 83.464C992.97 83.464 993.558 83.716 994.038 84.22C994.542 84.7 994.794 85.288 994.794 85.984V89.512C994.794 90.328 994.53 91 994.002 91.528C993.498 92.056 992.838 92.32 992.022 92.32H990.186V90.376H991.878C992.526 90.376 992.85 90.016 992.85 89.296V88.396C992.658 88.468 992.454 88.504 992.238 88.504C991.566 88.504 990.978 88.264 990.474 87.784C989.994 87.28 989.754 86.68 989.754 85.984ZM1027.5 62.8H1045.22V65.608H1037.87V88H1034.85V65.608H1027.5V62.8ZM1066.29 88H1063.26V79.576C1063.26 78.952 1063.12 78.472 1062.83 78.136C1062.54 77.8 1062.04 77.632 1061.32 77.632H1053.47V88H1050.45V62.8H1059.45C1060.74 62.8 1061.87 62.992 1062.83 63.376C1063.79 63.736 1064.58 64.228 1065.21 64.852C1065.85 65.476 1066.33 66.208 1066.65 67.048C1066.98 67.864 1067.15 68.728 1067.15 69.64V70.72C1067.15 71.656 1066.89 72.592 1066.36 73.528C1065.85 74.464 1065.06 75.184 1063.98 75.688V76.12C1064.7 76.24 1065.27 76.528 1065.67 76.984C1066.08 77.44 1066.29 78.088 1066.29 78.928V88ZM1053.47 74.824H1059.09C1060.79 74.824 1062.05 74.464 1062.87 73.744C1063.71 73 1064.13 71.92 1064.13 70.504V69.856C1064.13 68.584 1063.71 67.564 1062.87 66.796C1062.05 66.004 1060.79 65.608 1059.09 65.608H1053.47V74.824ZM1072.45 62.8H1088.44V65.608H1081.96V85.192H1088.44V88H1072.45V85.192H1078.93V65.608H1072.45V62.8ZM1094.89 62.8H1110.37V65.608H1097.92V73.96H1110.16V76.768H1097.92V88H1094.89V62.8ZM1118.92 62.8V79.504C1118.92 81.544 1119.38 83.092 1120.32 84.148C1121.28 85.18 1122.68 85.696 1124.53 85.696C1126.38 85.696 1127.77 85.18 1128.71 84.148C1129.67 83.092 1130.15 81.544 1130.15 79.504V62.8H1133.17V79.504C1133.17 82.432 1132.4 84.664 1130.87 86.2C1129.33 87.736 1127.22 88.504 1124.53 88.504C1121.84 88.504 1119.73 87.736 1118.2 86.2C1116.66 84.664 1115.89 82.432 1115.89 79.504V62.8H1118.92ZM1154.46 88H1151.43V79.576C1151.43 78.952 1151.29 78.472 1151 78.136C1150.71 77.8 1150.21 77.632 1149.49 77.632H1141.64V88H1138.62V62.8H1147.62C1148.91 62.8 1150.04 62.992 1151 63.376C1151.96 63.736 1152.75 64.228 1153.38 64.852C1154.03 65.476 1154.51 66.208 1154.82 67.048C1155.15 67.864 1155.32 68.728 1155.32 69.64V70.72C1155.32 71.656 1155.06 72.592 1154.53 73.528C1154.03 74.464 1153.23 75.184 1152.15 75.688V76.12C1152.87 76.24 1153.44 76.528 1153.85 76.984C1154.25 77.44 1154.46 78.088 1154.46 78.928V88ZM1141.64 74.824H1147.26C1148.96 74.824 1150.22 74.464 1151.04 73.744C1151.88 73 1152.3 71.92 1152.3 70.504V69.856C1152.3 68.584 1151.88 67.564 1151.04 66.796C1150.22 66.004 1148.96 65.608 1147.26 65.608H1141.64V74.824ZM1168.76 85.696C1169.79 85.696 1170.67 85.528 1171.39 85.192C1172.13 84.832 1172.73 84.364 1173.19 83.788C1173.67 83.188 1174.02 82.516 1174.23 81.772C1174.47 81.004 1174.59 80.2 1174.59 79.36V78.928H1177.62V79.36C1177.62 80.632 1177.43 81.832 1177.04 82.96C1176.66 84.064 1176.09 85.036 1175.35 85.876C1174.61 86.692 1173.68 87.34 1172.58 87.82C1171.47 88.276 1170.2 88.504 1168.76 88.504C1165.98 88.504 1163.81 87.628 1162.25 85.876C1160.69 84.124 1159.91 81.568 1159.91 78.208V72.592C1159.91 69.328 1160.69 66.796 1162.25 64.996C1163.81 63.196 1165.98 62.296 1168.76 62.296C1170.2 62.296 1171.47 62.536 1172.58 63.016C1173.68 63.472 1174.61 64.12 1175.35 64.96C1176.09 65.776 1176.66 66.748 1177.04 67.876C1177.43 68.98 1177.62 70.168 1177.62 71.44V71.872H1174.59V71.44C1174.57 70.624 1174.44 69.832 1174.2 69.064C1173.98 68.296 1173.63 67.624 1173.15 67.048C1172.7 66.448 1172.11 65.98 1171.39 65.644C1170.67 65.284 1169.79 65.104 1168.76 65.104C1166.82 65.104 1165.35 65.812 1164.37 67.228C1163.41 68.644 1162.93 70.504 1162.93 72.808V77.992C1162.93 80.464 1163.41 82.372 1164.37 83.716C1165.35 85.036 1166.82 85.696 1168.76 85.696ZM1196.06 81.736H1185.26L1183.42 88H1180.18L1187.82 62.8H1193.5L1201.14 88H1197.9L1196.06 81.736ZM1190.44 64.096L1186.09 78.928H1195.23L1190.88 64.096H1190.44ZM1203.85 62.8H1221.56V65.608H1214.22V88H1211.19V65.608H1203.85V62.8ZM1227.11 62.8H1242.38V65.608H1230.14V73.96H1242.16V76.768H1230.14V85.192H1242.59V88H1227.11V62.8ZM1248.4 62.8H1256.68C1259.8 62.8 1262.08 63.544 1263.52 65.032C1264.96 66.52 1265.68 68.896 1265.68 72.16V78.64C1265.68 81.904 1264.96 84.28 1263.52 85.768C1262.08 87.256 1259.8 88 1256.68 88H1248.4V85.156H1250.56V65.608H1248.4V62.8ZM1256.25 85.192C1257.35 85.192 1258.3 85.084 1259.09 84.868C1259.91 84.652 1260.58 84.292 1261.11 83.788C1261.64 83.26 1262.02 82.564 1262.26 81.7C1262.53 80.836 1262.66 79.744 1262.66 78.424V72.376C1262.66 71.056 1262.53 69.964 1262.26 69.1C1262.02 68.236 1261.64 67.552 1261.11 67.048C1260.58 66.52 1259.91 66.148 1259.09 65.932C1258.3 65.716 1257.35 65.608 1256.25 65.608H1253.59V85.192H1256.25ZM1306.82 70.072C1306.82 69.256 1306.65 68.536 1306.31 67.912C1306 67.288 1305.57 66.772 1305.02 66.364C1304.46 65.956 1303.83 65.644 1303.11 65.428C1302.39 65.212 1301.63 65.104 1300.84 65.104C1300.14 65.104 1299.48 65.2 1298.86 65.392C1298.24 65.56 1297.67 65.812 1297.17 66.148C1296.69 66.484 1296.3 66.904 1296.02 67.408C1295.73 67.888 1295.58 68.452 1295.58 69.1V69.316C1295.58 70.012 1295.73 70.612 1296.02 71.116C1296.3 71.596 1296.72 72.016 1297.28 72.376C1297.85 72.712 1298.56 73 1299.4 73.24C1300.24 73.456 1301.22 73.648 1302.35 73.816C1304.99 74.224 1306.94 75.004 1308.18 76.156C1309.43 77.284 1310.06 78.808 1310.06 80.728V81.16C1310.06 82.24 1309.86 83.236 1309.48 84.148C1309.12 85.036 1308.57 85.804 1307.82 86.452C1307.1 87.1 1306.2 87.604 1305.12 87.964C1304.04 88.324 1302.8 88.504 1301.38 88.504C1299.77 88.504 1298.34 88.276 1297.1 87.82C1295.87 87.34 1294.84 86.692 1294 85.876C1293.18 85.036 1292.56 84.064 1292.13 82.96C1291.7 81.832 1291.48 80.608 1291.48 79.288V78.208H1294.5V79.072C1294.5 81.28 1295.1 82.936 1296.3 84.04C1297.53 85.144 1299.22 85.696 1301.38 85.696C1303.25 85.696 1304.66 85.288 1305.59 84.472C1306.55 83.632 1307.03 82.528 1307.03 81.16V80.944C1307.03 79.624 1306.54 78.616 1305.56 77.92C1304.6 77.224 1303.02 76.72 1300.84 76.408C1299.57 76.24 1298.42 75.988 1297.38 75.652C1296.38 75.292 1295.51 74.836 1294.79 74.284C1294.07 73.708 1293.52 73.024 1293.14 72.232C1292.75 71.44 1292.56 70.504 1292.56 69.424V68.992C1292.56 68.008 1292.76 67.108 1293.17 66.292C1293.58 65.476 1294.14 64.768 1294.86 64.168C1295.61 63.568 1296.48 63.112 1297.49 62.8C1298.52 62.464 1299.65 62.296 1300.88 62.296C1302.29 62.296 1303.55 62.5 1304.66 62.908C1305.78 63.316 1306.73 63.868 1307.5 64.564C1308.27 65.236 1308.84 66.04 1309.23 66.976C1309.64 67.888 1309.84 68.848 1309.84 69.856V71.368H1306.82V70.072ZM1315.29 62.8H1330.55V65.608H1318.31V73.96H1330.33V76.768H1318.31V85.192H1330.77V88H1315.29V62.8ZM1352.85 88H1349.82V79.576C1349.82 78.952 1349.68 78.472 1349.39 78.136C1349.1 77.8 1348.6 77.632 1347.88 77.632H1340.03V88H1337.01V62.8H1346.01C1347.3 62.8 1348.43 62.992 1349.39 63.376C1350.35 63.736 1351.14 64.228 1351.77 64.852C1352.41 65.476 1352.89 66.208 1353.21 67.048C1353.54 67.864 1353.71 68.728 1353.71 69.64V70.72C1353.71 71.656 1353.45 72.592 1352.92 73.528C1352.41 74.464 1351.62 75.184 1350.54 75.688V76.12C1351.26 76.24 1351.83 76.528 1352.23 76.984C1352.64 77.44 1352.85 78.088 1352.85 78.928V88ZM1340.03 74.824H1345.65C1347.35 74.824 1348.61 74.464 1349.43 73.744C1350.27 73 1350.69 71.92 1350.69 70.504V69.856C1350.69 68.584 1350.27 67.564 1349.43 66.796C1348.61 66.004 1347.35 65.608 1345.65 65.608H1340.03V74.824ZM1359.01 62.8H1375V65.608H1368.52V85.192H1375V88H1359.01V85.192H1365.49V65.608H1359.01V62.8ZM1381.45 62.8H1396.93V65.608H1384.48V73.96H1396.72V76.768H1384.48V88H1381.45V62.8ZM1417.03 70.072C1417.03 69.256 1416.86 68.536 1416.53 67.912C1416.21 67.288 1415.78 66.772 1415.23 66.364C1414.68 65.956 1414.04 65.644 1413.32 65.428C1412.6 65.212 1411.85 65.104 1411.05 65.104C1410.36 65.104 1409.7 65.2 1409.07 65.392C1408.45 65.56 1407.89 65.812 1407.38 66.148C1406.9 66.484 1406.52 66.904 1406.23 67.408C1405.94 67.888 1405.8 68.452 1405.8 69.1V69.316C1405.8 70.012 1405.94 70.612 1406.23 71.116C1406.52 71.596 1406.94 72.016 1407.49 72.376C1408.07 72.712 1408.77 73 1409.61 73.24C1410.45 73.456 1411.44 73.648 1412.57 73.816C1415.21 74.224 1417.15 75.004 1418.4 76.156C1419.65 77.284 1420.27 78.808 1420.27 80.728V81.16C1420.27 82.24 1420.08 83.236 1419.69 84.148C1419.33 85.036 1418.78 85.804 1418.04 86.452C1417.32 87.1 1416.42 87.604 1415.34 87.964C1414.26 88.324 1413.01 88.504 1411.59 88.504C1409.99 88.504 1408.56 88.276 1407.31 87.82C1406.09 87.34 1405.05 86.692 1404.21 85.876C1403.4 85.036 1402.77 84.064 1402.34 82.96C1401.91 81.832 1401.69 80.608 1401.69 79.288V78.208H1404.72V79.072C1404.72 81.28 1405.32 82.936 1406.52 84.04C1407.74 85.144 1409.43 85.696 1411.59 85.696C1413.47 85.696 1414.87 85.288 1415.81 84.472C1416.77 83.632 1417.25 82.528 1417.25 81.16V80.944C1417.25 79.624 1416.75 78.616 1415.77 77.92C1414.81 77.224 1413.24 76.72 1411.05 76.408C1409.78 76.24 1408.63 75.988 1407.6 75.652C1406.59 75.292 1405.73 74.836 1405.01 74.284C1404.29 73.708 1403.73 73.024 1403.35 72.232C1402.97 71.44 1402.77 70.504 1402.77 69.424V68.992C1402.77 68.008 1402.98 67.108 1403.39 66.292C1403.79 65.476 1404.36 64.768 1405.08 64.168C1405.82 63.568 1406.7 63.112 1407.71 62.8C1408.74 62.464 1409.87 62.296 1411.09 62.296C1412.51 62.296 1413.77 62.5 1414.87 62.908C1416 63.316 1416.95 63.868 1417.71 64.564C1418.48 65.236 1419.06 66.04 1419.44 66.976C1419.85 67.888 1420.05 68.848 1420.05 69.856V71.368H1417.03V70.072ZM1430.61 85.984C1430.61 85.288 1430.85 84.7 1431.33 84.22C1431.84 83.716 1432.44 83.464 1433.13 83.464C1433.83 83.464 1434.42 83.716 1434.9 84.22C1435.4 84.7 1435.65 85.288 1435.65 85.984V89.512C1435.65 90.328 1435.39 91 1434.86 91.528C1434.36 92.056 1433.7 92.32 1432.88 92.32H1431.05V90.376H1432.74C1433.39 90.376 1433.71 90.016 1433.71 89.296V88.396C1433.52 88.468 1433.31 88.504 1433.1 88.504C1432.43 88.504 1431.84 88.264 1431.33 87.784C1430.85 87.28 1430.61 86.68 1430.61 85.984ZM1468.36 62.8H1486.08V65.608H1478.73V88H1475.71V65.608H1468.36V62.8ZM1490.87 62.8H1493.9V73.96H1504.63V62.8H1507.65V88H1504.63V76.768H1493.9V88H1490.87V62.8ZM1512.45 72.592C1512.45 69.328 1513.23 66.796 1514.79 64.996C1516.35 63.196 1518.52 62.296 1521.31 62.296C1524.09 62.296 1526.26 63.196 1527.82 64.996C1529.38 66.796 1530.16 69.328 1530.16 72.592V78.208C1530.16 81.568 1529.38 84.124 1527.82 85.876C1526.26 87.628 1524.09 88.504 1521.31 88.504C1518.52 88.504 1516.35 87.628 1514.79 85.876C1513.23 84.124 1512.45 81.568 1512.45 78.208V72.592ZM1521.31 85.696C1523.25 85.696 1524.7 85.036 1525.66 83.716C1526.65 82.372 1527.14 80.464 1527.14 77.992V72.808C1527.14 70.504 1526.65 68.644 1525.66 67.228C1524.7 65.812 1523.25 65.104 1521.31 65.104C1519.36 65.104 1517.9 65.812 1516.91 67.228C1515.95 68.644 1515.47 70.504 1515.47 72.808V77.992C1515.47 80.464 1515.95 82.372 1516.91 83.716C1517.9 85.036 1519.36 85.696 1521.31 85.696ZM1551.23 88H1548.21V79.576C1548.21 78.952 1548.06 78.472 1547.78 78.136C1547.49 77.8 1546.98 77.632 1546.26 77.632H1538.42V88H1535.39V62.8H1544.39C1545.69 62.8 1546.82 62.992 1547.78 63.376C1548.74 63.736 1549.53 64.228 1550.15 64.852C1550.8 65.476 1551.28 66.208 1551.59 67.048C1551.93 67.864 1552.1 68.728 1552.1 69.64V70.72C1552.1 71.656 1551.83 72.592 1551.3 73.528C1550.8 74.464 1550.01 75.184 1548.93 75.688V76.12C1549.65 76.24 1550.21 76.528 1550.62 76.984C1551.03 77.44 1551.23 78.088 1551.23 78.928V88ZM1538.42 74.824H1544.03C1545.74 74.824 1547 74.464 1547.81 73.744C1548.65 73 1549.07 71.92 1549.07 70.504V69.856C1549.07 68.584 1548.65 67.564 1547.81 66.796C1547 66.004 1545.74 65.608 1544.03 65.608H1538.42V74.824ZM1570.32 86.704H1570.76V62.8H1573.78V88H1567.73L1560.46 64.096H1560.03V88H1557V62.8H1563.05L1570.32 86.704ZM1593.37 70.072C1593.37 69.256 1593.21 68.536 1592.87 67.912C1592.56 67.288 1592.13 66.772 1591.57 66.364C1591.02 65.956 1590.39 65.644 1589.67 65.428C1588.95 65.212 1588.19 65.104 1587.4 65.104C1586.7 65.104 1586.04 65.2 1585.42 65.392C1584.79 65.56 1584.23 65.812 1583.73 66.148C1583.25 66.484 1582.86 66.904 1582.57 67.408C1582.29 67.888 1582.14 68.452 1582.14 69.1V69.316C1582.14 70.012 1582.29 70.612 1582.57 71.116C1582.86 71.596 1583.28 72.016 1583.83 72.376C1584.41 72.712 1585.12 73 1585.96 73.24C1586.8 73.456 1587.78 73.648 1588.91 73.816C1591.55 74.224 1593.49 75.004 1594.74 76.156C1595.99 77.284 1596.61 78.808 1596.61 80.728V81.16C1596.61 82.24 1596.42 83.236 1596.04 84.148C1595.68 85.036 1595.13 85.804 1594.38 86.452C1593.66 87.1 1592.76 87.604 1591.68 87.964C1590.6 88.324 1589.35 88.504 1587.94 88.504C1586.33 88.504 1584.9 88.276 1583.65 87.82C1582.43 87.34 1581.4 86.692 1580.56 85.876C1579.74 85.036 1579.12 84.064 1578.69 82.96C1578.25 81.832 1578.04 80.608 1578.04 79.288V78.208H1581.06V79.072C1581.06 81.28 1581.66 82.936 1582.86 84.04C1584.09 85.144 1585.78 85.696 1587.94 85.696C1589.81 85.696 1591.21 85.288 1592.15 84.472C1593.11 83.632 1593.59 82.528 1593.59 81.16V80.944C1593.59 79.624 1593.1 78.616 1592.11 77.92C1591.15 77.224 1589.58 76.72 1587.4 76.408C1586.13 76.24 1584.97 75.988 1583.94 75.652C1582.93 75.292 1582.07 74.836 1581.35 74.284C1580.63 73.708 1580.08 73.024 1579.69 72.232C1579.31 71.44 1579.12 70.504 1579.12 69.424V68.992C1579.12 68.008 1579.32 67.108 1579.73 66.292C1580.14 65.476 1580.7 64.768 1581.42 64.168C1582.17 63.568 1583.04 63.112 1584.05 62.8C1585.08 62.464 1586.21 62.296 1587.43 62.296C1588.85 62.296 1590.11 62.5 1591.21 62.908C1592.34 63.316 1593.29 63.868 1594.06 64.564C1594.83 65.236 1595.4 66.04 1595.79 66.976C1596.19 67.888 1596.4 68.848 1596.4 69.856V71.368H1593.37V70.072ZM1606.96 85.984C1606.96 85.288 1607.2 84.7 1607.68 84.22C1608.18 83.716 1608.78 83.464 1609.48 83.464C1610.17 83.464 1610.76 83.716 1611.24 84.22C1611.74 84.7 1612 85.288 1612 85.984V89.512C1612 90.328 1611.73 91 1611.2 91.528C1610.7 92.056 1610.04 92.32 1609.22 92.32H1607.39V90.376H1609.08C1609.73 90.376 1610.05 90.016 1610.05 89.296V88.396C1609.86 88.468 1609.66 88.504 1609.44 88.504C1608.77 88.504 1608.18 88.264 1607.68 87.784C1607.2 87.28 1606.96 86.68 1606.96 85.984ZM1659.5 70.072C1659.5 69.256 1659.33 68.536 1659 67.912C1658.69 67.288 1658.25 66.772 1657.7 66.364C1657.15 65.956 1656.51 65.644 1655.79 65.428C1655.07 65.212 1654.32 65.104 1653.53 65.104C1652.83 65.104 1652.17 65.2 1651.55 65.392C1650.92 65.56 1650.36 65.812 1649.85 66.148C1649.37 66.484 1648.99 66.904 1648.7 67.408C1648.41 67.888 1648.27 68.452 1648.27 69.1V69.316C1648.27 70.012 1648.41 70.612 1648.7 71.116C1648.99 71.596 1649.41 72.016 1649.96 72.376C1650.54 72.712 1651.25 73 1652.09 73.24C1652.93 73.456 1653.91 73.648 1655.04 73.816C1657.68 74.224 1659.62 75.004 1660.87 76.156C1662.12 77.284 1662.74 78.808 1662.74 80.728V81.16C1662.74 82.24 1662.55 83.236 1662.17 84.148C1661.81 85.036 1661.25 85.804 1660.51 86.452C1659.79 87.1 1658.89 87.604 1657.81 87.964C1656.73 88.324 1655.48 88.504 1654.07 88.504C1652.46 88.504 1651.03 88.276 1649.78 87.82C1648.56 87.34 1647.53 86.692 1646.69 85.876C1645.87 85.036 1645.25 84.064 1644.81 82.96C1644.38 81.832 1644.17 80.608 1644.17 79.288V78.208H1647.19V79.072C1647.19 81.28 1647.79 82.936 1648.99 84.04C1650.21 85.144 1651.91 85.696 1654.07 85.696C1655.94 85.696 1657.34 85.288 1658.28 84.472C1659.24 83.632 1659.72 82.528 1659.72 81.16V80.944C1659.72 79.624 1659.23 78.616 1658.24 77.92C1657.28 77.224 1655.71 76.72 1653.53 76.408C1652.25 76.24 1651.1 75.988 1650.07 75.652C1649.06 75.292 1648.2 74.836 1647.48 74.284C1646.76 73.708 1646.21 73.024 1645.82 72.232C1645.44 71.44 1645.25 70.504 1645.25 69.424V68.992C1645.25 68.008 1645.45 67.108 1645.86 66.292C1646.27 65.476 1646.83 64.768 1647.55 64.168C1648.29 63.568 1649.17 63.112 1650.18 62.8C1651.21 62.464 1652.34 62.296 1653.56 62.296C1654.98 62.296 1656.24 62.5 1657.34 62.908C1658.47 63.316 1659.42 63.868 1660.19 64.564C1660.95 65.236 1661.53 66.04 1661.91 66.976C1662.32 67.888 1662.53 68.848 1662.53 69.856V71.368H1659.5V70.072ZM1670.67 77.632V88H1667.65V62.8H1676.65C1677.95 62.8 1679.07 62.992 1680.03 63.376C1680.99 63.736 1681.79 64.228 1682.41 64.852C1683.06 65.476 1683.54 66.208 1683.85 67.048C1684.19 67.864 1684.35 68.728 1684.35 69.64V70.72C1684.35 71.632 1684.19 72.508 1683.85 73.348C1683.54 74.188 1683.06 74.932 1682.41 75.58C1681.76 76.204 1680.96 76.708 1680 77.092C1679.04 77.452 1677.92 77.632 1676.65 77.632H1670.67ZM1670.67 74.824H1676.29C1679.65 74.824 1681.33 73.384 1681.33 70.504V69.856C1681.33 68.584 1680.91 67.564 1680.07 66.796C1679.25 66.004 1677.99 65.608 1676.29 65.608H1670.67V74.824ZM1688.79 72.592C1688.79 69.328 1689.57 66.796 1691.13 64.996C1692.69 63.196 1694.86 62.296 1697.65 62.296C1700.43 62.296 1702.6 63.196 1704.16 64.996C1705.72 66.796 1706.5 69.328 1706.5 72.592V78.208C1706.5 81.568 1705.72 84.124 1704.16 85.876C1702.6 87.628 1700.43 88.504 1697.65 88.504C1694.86 88.504 1692.69 87.628 1691.13 85.876C1689.57 84.124 1688.79 81.568 1688.79 78.208V72.592ZM1697.65 85.696C1699.59 85.696 1701.04 85.036 1702 83.716C1702.99 82.372 1703.48 80.464 1703.48 77.992V72.808C1703.48 70.504 1702.99 68.644 1702 67.228C1701.04 65.812 1699.59 65.104 1697.65 65.104C1695.7 65.104 1694.24 65.812 1693.26 67.228C1692.3 68.644 1691.82 70.504 1691.82 72.808V77.992C1691.82 80.464 1692.3 82.372 1693.26 83.716C1694.24 85.036 1695.7 85.696 1697.65 85.696ZM1710.84 72.592C1710.84 69.328 1711.62 66.796 1713.18 64.996C1714.74 63.196 1716.91 62.296 1719.69 62.296C1722.48 62.296 1724.65 63.196 1726.21 64.996C1727.77 66.796 1728.55 69.328 1728.55 72.592V78.208C1728.55 81.568 1727.77 84.124 1726.21 85.876C1724.65 87.628 1722.48 88.504 1719.69 88.504C1716.91 88.504 1714.74 87.628 1713.18 85.876C1711.62 84.124 1710.84 81.568 1710.84 78.208V72.592ZM1719.69 85.696C1721.64 85.696 1723.09 85.036 1724.05 83.716C1725.03 82.372 1725.52 80.464 1725.52 77.992V72.808C1725.52 70.504 1725.03 68.644 1724.05 67.228C1723.09 65.812 1721.64 65.104 1719.69 65.104C1717.75 65.104 1716.28 65.812 1715.3 67.228C1714.34 68.644 1713.86 70.504 1713.86 72.808V77.992C1713.86 80.464 1714.34 82.372 1715.3 83.716C1716.28 85.036 1717.75 85.696 1719.69 85.696ZM1736.95 88H1733.92V62.8H1736.95V73.96H1737.77L1747.46 62.8H1751.2V63.016L1740.76 75.184V75.616L1751.63 87.784V88H1747.82L1737.77 76.768H1736.95V88ZM1762.27 79.144H1761.62L1753.73 62.8H1757.12L1763.56 76.552H1763.99L1770.44 62.8H1773.82L1765.94 79.144H1765.29V88H1762.27V79.144Z" fill="#1A73E8"/>
<path d="M1107.3 786.8H1110.54L1117.13 810.704H1117.56L1124.15 786.8H1127.39L1120.26 812H1114.43L1107.3 786.8Z" fill="#FF6D7F"/>
<path d="M1131.76 786.8H1147.02V789.608H1134.78V797.96H1146.8V800.768H1134.78V809.192H1147.24V812H1131.76V786.8Z" fill="#FF6D7F"/>
<path d="M1169.31 812H1166.29V803.576C1166.29 802.952 1166.15 802.472 1165.86 802.136C1165.57 801.8 1165.07 801.632 1164.35 801.632H1156.5V812H1153.47V786.8H1162.47C1163.77 786.8 1164.9 786.992 1165.86 787.376C1166.82 787.736 1167.61 788.228 1168.23 788.852C1168.88 789.476 1169.36 790.208 1169.67 791.048C1170.01 791.864 1170.18 792.728 1170.18 793.64V794.72C1170.18 795.656 1169.91 796.592 1169.39 797.528C1168.88 798.464 1168.09 799.184 1167.01 799.688V800.12C1167.73 800.24 1168.29 800.528 1168.7 800.984C1169.11 801.44 1169.31 802.088 1169.31 802.928V812ZM1156.5 798.824H1162.11C1163.82 798.824 1165.08 798.464 1165.89 797.744C1166.73 797 1167.15 795.92 1167.15 794.504V793.856C1167.15 792.584 1166.73 791.564 1165.89 790.796C1165.08 790.004 1163.82 789.608 1162.11 789.608H1156.5V798.824Z" fill="#FF6D7F"/>
<path d="M1174.62 786.8H1192.33V789.608H1184.99V812H1181.96V789.608H1174.62V786.8Z" fill="#FF6D7F"/>
<path d="M1197.52 786.8H1213.51V789.608H1207.03V809.192H1213.51V812H1197.52V809.192H1204V789.608H1197.52V786.8Z" fill="#FF6D7F"/>
<path d="M1227.7 809.696C1228.74 809.696 1229.61 809.528 1230.33 809.192C1231.08 808.832 1231.68 808.364 1232.13 807.788C1232.61 807.188 1232.96 806.516 1233.18 805.772C1233.42 805.004 1233.54 804.2 1233.54 803.36V802.928H1236.56V803.36C1236.56 804.632 1236.37 805.832 1235.98 806.96C1235.6 808.064 1235.04 809.036 1234.29 809.876C1233.55 810.692 1232.62 811.34 1231.52 811.82C1230.42 812.276 1229.14 812.504 1227.7 812.504C1224.92 812.504 1222.75 811.628 1221.19 809.876C1219.63 808.124 1218.85 805.568 1218.85 802.208V796.592C1218.85 793.328 1219.63 790.796 1221.19 788.996C1222.75 787.196 1224.92 786.296 1227.7 786.296C1229.14 786.296 1230.42 786.536 1231.52 787.016C1232.62 787.472 1233.55 788.12 1234.29 788.96C1235.04 789.776 1235.6 790.748 1235.98 791.876C1236.37 792.98 1236.56 794.168 1236.56 795.44V795.872H1233.54V795.44C1233.51 794.624 1233.38 793.832 1233.14 793.064C1232.92 792.296 1232.58 791.624 1232.1 791.048C1231.64 790.448 1231.05 789.98 1230.33 789.644C1229.61 789.284 1228.74 789.104 1227.7 789.104C1225.76 789.104 1224.3 789.812 1223.31 791.228C1222.35 792.644 1221.87 794.504 1221.87 796.808V801.992C1221.87 804.464 1222.35 806.372 1223.31 807.716C1224.3 809.036 1225.76 809.696 1227.7 809.696Z" fill="#FF6D7F"/>
<path d="M1255 805.736H1244.2L1242.37 812H1239.13L1246.76 786.8H1252.45L1260.08 812H1256.84L1255 805.736ZM1249.39 788.096L1245.03 802.928H1254.17L1249.82 788.096H1249.39Z" fill="#FF6D7F"/>
<path d="M1263.76 786.8H1266.79V809.192H1279.96V812H1263.76V786.8Z" fill="#FF6D7F"/>
<path d="M1166.83 853.736H1156.03L1154.19 860H1150.95L1158.59 834.8H1164.27L1171.91 860H1168.67L1166.83 853.736ZM1161.21 836.096L1156.86 850.928H1166L1161.65 836.096H1161.21Z" fill="#FF6D7F"/>
<path d="M1177.5 834.8L1183.15 845.96H1183.8L1189.45 834.8H1192.76L1186.46 847.148V847.58L1192.76 860H1189.45L1183.8 848.768H1183.15L1177.5 860H1174.19L1180.49 847.58V847.148L1174.19 834.8H1177.5Z" fill="#FF6D7F"/>
<path d="M1197.52 834.8H1213.51V837.608H1207.03V857.192H1213.51V860H1197.52V857.192H1204V837.608H1197.52V834.8Z" fill="#FF6D7F"/>
<path d="M1233.5 842.072C1233.5 841.256 1233.33 840.536 1233 839.912C1232.68 839.288 1232.25 838.772 1231.7 838.364C1231.15 837.956 1230.51 837.644 1229.79 837.428C1229.07 837.212 1228.32 837.104 1227.52 837.104C1226.83 837.104 1226.17 837.2 1225.54 837.392C1224.92 837.56 1224.36 837.812 1223.85 838.148C1223.37 838.484 1222.99 838.904 1222.7 839.408C1222.41 839.888 1222.27 840.452 1222.27 841.1V841.316C1222.27 842.012 1222.41 842.612 1222.7 843.116C1222.99 843.596 1223.41 844.016 1223.96 844.376C1224.54 844.712 1225.24 845 1226.08 845.24C1226.92 845.456 1227.91 845.648 1229.04 845.816C1231.68 846.224 1233.62 847.004 1234.87 848.156C1236.12 849.284 1236.74 850.808 1236.74 852.728V853.16C1236.74 854.24 1236.55 855.236 1236.16 856.148C1235.8 857.036 1235.25 857.804 1234.51 858.452C1233.79 859.1 1232.89 859.604 1231.81 859.964C1230.73 860.324 1229.48 860.504 1228.06 860.504C1226.46 860.504 1225.03 860.276 1223.78 859.82C1222.56 859.34 1221.52 858.692 1220.68 857.876C1219.87 857.036 1219.24 856.064 1218.81 854.96C1218.38 853.832 1218.16 852.608 1218.16 851.288V850.208H1221.19V851.072C1221.19 853.28 1221.79 854.936 1222.99 856.04C1224.21 857.144 1225.9 857.696 1228.06 857.696C1229.94 857.696 1231.34 857.288 1232.28 856.472C1233.24 855.632 1233.72 854.528 1233.72 853.16V852.944C1233.72 851.624 1233.22 850.616 1232.24 849.92C1231.28 849.224 1229.71 848.72 1227.52 848.408C1226.25 848.24 1225.1 847.988 1224.07 847.652C1223.06 847.292 1222.2 846.836 1221.48 846.284C1220.76 845.708 1220.2 845.024 1219.82 844.232C1219.44 843.44 1219.24 842.504 1219.24 841.424V840.992C1219.24 840.008 1219.45 839.108 1219.86 838.292C1220.26 837.476 1220.83 836.768 1221.55 836.168C1222.29 835.568 1223.17 835.112 1224.18 834.8C1225.21 834.464 1226.34 834.296 1227.56 834.296C1228.98 834.296 1230.24 834.5 1231.34 834.908C1232.47 835.316 1233.42 835.868 1234.18 836.564C1234.95 837.236 1235.53 838.04 1235.91 838.976C1236.32 839.888 1236.52 840.848 1236.52 841.856V843.368H1233.5V842.072Z" fill="#FF6D7F"/>
<path d="M1340.42 786.8H1358.13V789.608H1350.79V812H1347.77V789.608H1340.42V786.8Z" fill="#FF6D7F"/>
<path d="M1379.2 812H1376.18V803.576C1376.18 802.952 1376.04 802.472 1375.75 802.136C1375.46 801.8 1374.96 801.632 1374.24 801.632H1366.39V812H1363.36V786.8H1372.36C1373.66 786.8 1374.79 786.992 1375.75 787.376C1376.71 787.736 1377.5 788.228 1378.12 788.852C1378.77 789.476 1379.25 790.208 1379.56 791.048C1379.9 791.864 1380.07 792.728 1380.07 793.64V794.72C1380.07 795.656 1379.8 796.592 1379.28 797.528C1378.77 798.464 1377.98 799.184 1376.9 799.688V800.12C1377.62 800.24 1378.18 800.528 1378.59 800.984C1379 801.44 1379.2 802.088 1379.2 802.928V812ZM1366.39 798.824H1372C1373.71 798.824 1374.97 798.464 1375.78 797.744C1376.62 797 1377.04 795.92 1377.04 794.504V793.856C1377.04 792.584 1376.62 791.564 1375.78 790.796C1374.97 790.004 1373.71 789.608 1372 789.608H1366.39V798.824Z" fill="#FF6D7F"/>
<path d="M1385.37 786.8H1401.36V789.608H1394.88V809.192H1401.36V812H1385.37V809.192H1391.85V789.608H1385.37V786.8Z" fill="#FF6D7F"/>
<path d="M1407.81 786.8H1423.29V789.608H1410.83V797.96H1423.07V800.768H1410.83V812H1407.81V786.8Z" fill="#FF6D7F"/>
<path d="M1431.83 786.8V803.504C1431.83 805.544 1432.3 807.092 1433.24 808.148C1434.2 809.18 1435.6 809.696 1437.45 809.696C1439.3 809.696 1440.69 809.18 1441.63 808.148C1442.59 807.092 1443.07 805.544 1443.07 803.504V786.8H1446.09V803.504C1446.09 806.432 1445.32 808.664 1443.79 810.2C1442.25 811.736 1440.14 812.504 1437.45 812.504C1434.76 812.504 1432.65 811.736 1431.11 810.2C1429.58 808.664 1428.81 806.432 1428.81 803.504V786.8H1431.83Z" fill="#FF6D7F"/>
<path d="M1467.38 812H1464.35V803.576C1464.35 802.952 1464.21 802.472 1463.92 802.136C1463.63 801.8 1463.13 801.632 1462.41 801.632H1454.56V812H1451.54V786.8H1460.54C1461.83 786.8 1462.96 786.992 1463.92 787.376C1464.88 787.736 1465.67 788.228 1466.3 788.852C1466.94 789.476 1467.42 790.208 1467.74 791.048C1468.07 791.864 1468.24 792.728 1468.24 793.64V794.72C1468.24 795.656 1467.98 796.592 1467.45 797.528C1466.94 798.464 1466.15 799.184 1465.07 799.688V800.12C1465.79 800.24 1466.36 800.528 1466.76 800.984C1467.17 801.44 1467.38 802.088 1467.38 802.928V812ZM1454.56 798.824H1460.18C1461.88 798.824 1463.14 798.464 1463.96 797.744C1464.8 797 1465.22 795.92 1465.22 794.504V793.856C1465.22 792.584 1464.8 791.564 1463.96 790.796C1463.14 790.004 1461.88 789.608 1460.18 789.608H1454.56V798.824Z" fill="#FF6D7F"/>
<path d="M1481.68 809.696C1482.71 809.696 1483.59 809.528 1484.31 809.192C1485.05 808.832 1485.65 808.364 1486.11 807.788C1486.59 807.188 1486.94 806.516 1487.15 805.772C1487.39 805.004 1487.51 804.2 1487.51 803.36V802.928H1490.54V803.36C1490.54 804.632 1490.34 805.832 1489.96 806.96C1489.58 808.064 1489.01 809.036 1488.27 809.876C1487.52 810.692 1486.6 811.34 1485.5 811.82C1484.39 812.276 1483.12 812.504 1481.68 812.504C1478.9 812.504 1476.72 811.628 1475.16 809.876C1473.6 808.124 1472.82 805.568 1472.82 802.208V796.592C1472.82 793.328 1473.6 790.796 1475.16 788.996C1476.72 787.196 1478.9 786.296 1481.68 786.296C1483.12 786.296 1484.39 786.536 1485.5 787.016C1486.6 787.472 1487.52 788.12 1488.27 788.96C1489.01 789.776 1489.58 790.748 1489.96 791.876C1490.34 792.98 1490.54 794.168 1490.54 795.44V795.872H1487.51V795.44C1487.49 794.624 1487.36 793.832 1487.12 793.064C1486.9 792.296 1486.55 791.624 1486.07 791.048C1485.62 790.448 1485.03 789.98 1484.31 789.644C1483.59 789.284 1482.71 789.104 1481.68 789.104C1479.74 789.104 1478.27 789.812 1477.29 791.228C1476.33 792.644 1475.85 794.504 1475.85 796.808V801.992C1475.85 804.464 1476.33 806.372 1477.29 807.716C1478.27 809.036 1479.74 809.696 1481.68 809.696Z" fill="#FF6D7F"/>
<path d="M1508.98 805.736H1498.18L1496.34 812H1493.1L1500.73 786.8H1506.42L1514.05 812H1510.81L1508.98 805.736ZM1503.36 788.096L1499.01 802.928H1508.15L1503.79 788.096H1503.36Z" fill="#FF6D7F"/>
<path d="M1516.77 786.8H1534.48V789.608H1527.13V812H1524.11V789.608H1516.77V786.8Z" fill="#FF6D7F"/>
<path d="M1540.03 786.8H1555.3V789.608H1543.06V797.96H1555.08V800.768H1543.06V809.192H1555.51V812H1540.03V786.8Z" fill="#FF6D7F"/>
<path d="M1561.32 786.8H1569.6C1572.72 786.8 1575 787.544 1576.44 789.032C1577.88 790.52 1578.6 792.896 1578.6 796.16V802.64C1578.6 805.904 1577.88 808.28 1576.44 809.768C1575 811.256 1572.72 812 1569.6 812H1561.32V809.156H1563.48V789.608H1561.32V786.8ZM1569.17 809.192C1570.27 809.192 1571.22 809.084 1572.01 808.868C1572.83 808.652 1573.5 808.292 1574.03 807.788C1574.56 807.26 1574.94 806.564 1575.18 805.7C1575.44 804.836 1575.58 803.744 1575.58 802.424V796.376C1575.58 795.056 1575.44 793.964 1575.18 793.1C1574.94 792.236 1574.56 791.552 1574.03 791.048C1573.5 790.52 1572.83 790.148 1572.01 789.932C1571.22 789.716 1570.27 789.608 1569.17 789.608H1566.5V809.192H1569.17Z" fill="#FF6D7F"/>
<path d="M1410.33 842.072C1410.33 841.256 1410.16 840.536 1409.82 839.912C1409.51 839.288 1409.08 838.772 1408.53 838.364C1407.97 837.956 1407.34 837.644 1406.62 837.428C1405.9 837.212 1405.14 837.104 1404.35 837.104C1403.65 837.104 1402.99 837.2 1402.37 837.392C1401.75 837.56 1401.18 837.812 1400.68 838.148C1400.2 838.484 1399.81 838.904 1399.53 839.408C1399.24 839.888 1399.09 840.452 1399.09 841.1V841.316C1399.09 842.012 1399.24 842.612 1399.53 843.116C1399.81 843.596 1400.23 844.016 1400.79 844.376C1401.36 844.712 1402.07 845 1402.91 845.24C1403.75 845.456 1404.73 845.648 1405.86 845.816C1408.5 846.224 1410.45 847.004 1411.69 848.156C1412.94 849.284 1413.57 850.808 1413.57 852.728V853.16C1413.57 854.24 1413.37 855.236 1412.99 856.148C1412.63 857.036 1412.08 857.804 1411.33 858.452C1410.61 859.1 1409.71 859.604 1408.63 859.964C1407.55 860.324 1406.31 860.504 1404.89 860.504C1403.28 860.504 1401.85 860.276 1400.61 859.82C1399.38 859.34 1398.35 858.692 1397.51 857.876C1396.69 857.036 1396.07 856.064 1395.64 854.96C1395.21 853.832 1394.99 852.608 1394.99 851.288V850.208H1398.01V851.072C1398.01 853.28 1398.61 854.936 1399.81 856.04C1401.04 857.144 1402.73 857.696 1404.89 857.696C1406.76 857.696 1408.17 857.288 1409.1 856.472C1410.06 855.632 1410.54 854.528 1410.54 853.16V852.944C1410.54 851.624 1410.05 850.616 1409.07 849.92C1408.11 849.224 1406.53 848.72 1404.35 848.408C1403.08 848.24 1401.93 847.988 1400.89 847.652C1399.89 847.292 1399.02 846.836 1398.3 846.284C1397.58 845.708 1397.03 845.024 1396.65 844.232C1396.26 843.44 1396.07 842.504 1396.07 841.424V840.992C1396.07 840.008 1396.27 839.108 1396.68 838.292C1397.09 837.476 1397.65 836.768 1398.37 836.168C1399.12 835.568 1399.99 835.112 1401 834.8C1402.03 834.464 1403.16 834.296 1404.39 834.296C1405.8 834.296 1407.06 834.5 1408.17 834.908C1409.29 835.316 1410.24 835.868 1411.01 836.564C1411.78 837.236 1412.35 838.04 1412.74 838.976C1413.15 839.888 1413.35 840.848 1413.35 841.856V843.368H1410.33V842.072Z" fill="#FF6D7F"/>
<path d="M1418.8 834.8H1434.06V837.608H1421.82V845.96H1433.84V848.768H1421.82V857.192H1434.28V860H1418.8V834.8Z" fill="#FF6D7F"/>
<path d="M1456.36 860H1453.33V851.576C1453.33 850.952 1453.19 850.472 1452.9 850.136C1452.61 849.8 1452.11 849.632 1451.39 849.632H1443.54V860H1440.52V834.8H1449.52C1450.81 834.8 1451.94 834.992 1452.9 835.376C1453.86 835.736 1454.65 836.228 1455.28 836.852C1455.92 837.476 1456.4 838.208 1456.72 839.048C1457.05 839.864 1457.22 840.728 1457.22 841.64V842.72C1457.22 843.656 1456.96 844.592 1456.43 845.528C1455.92 846.464 1455.13 847.184 1454.05 847.688V848.12C1454.77 848.24 1455.34 848.528 1455.74 848.984C1456.15 849.44 1456.36 850.088 1456.36 850.928V860ZM1443.54 846.824H1449.16C1450.86 846.824 1452.12 846.464 1452.94 845.744C1453.78 845 1454.2 843.92 1454.2 842.504V841.856C1454.2 840.584 1453.78 839.564 1452.94 838.796C1452.12 838.004 1450.86 837.608 1449.16 837.608H1443.54V846.824Z" fill="#FF6D7F"/>
<path d="M1462.52 834.8H1478.51V837.608H1472.03V857.192H1478.51V860H1462.52V857.192H1469V837.608H1462.52V834.8Z" fill="#FF6D7F"/>
<path d="M1484.96 834.8H1500.44V837.608H1487.99V845.96H1500.23V848.768H1487.99V860H1484.96V834.8Z" fill="#FF6D7F"/>
<path d="M1520.54 842.072C1520.54 841.256 1520.37 840.536 1520.04 839.912C1519.72 839.288 1519.29 838.772 1518.74 838.364C1518.19 837.956 1517.55 837.644 1516.83 837.428C1516.11 837.212 1515.36 837.104 1514.56 837.104C1513.87 837.104 1513.21 837.2 1512.58 837.392C1511.96 837.56 1511.4 837.812 1510.89 838.148C1510.41 838.484 1510.03 838.904 1509.74 839.408C1509.45 839.888 1509.31 840.452 1509.31 841.1V841.316C1509.31 842.012 1509.45 842.612 1509.74 843.116C1510.03 843.596 1510.45 844.016 1511 844.376C1511.58 844.712 1512.28 845 1513.12 845.24C1513.96 845.456 1514.95 845.648 1516.08 845.816C1518.72 846.224 1520.66 847.004 1521.91 848.156C1523.16 849.284 1523.78 850.808 1523.78 852.728V853.16C1523.78 854.24 1523.59 855.236 1523.2 856.148C1522.84 857.036 1522.29 857.804 1521.55 858.452C1520.83 859.1 1519.93 859.604 1518.85 859.964C1517.77 860.324 1516.52 860.504 1515.1 860.504C1513.5 860.504 1512.07 860.276 1510.82 859.82C1509.6 859.34 1508.56 858.692 1507.72 857.876C1506.91 857.036 1506.28 856.064 1505.85 854.96C1505.42 853.832 1505.2 852.608 1505.2 851.288V850.208H1508.23V851.072C1508.23 853.28 1508.83 854.936 1510.03 856.04C1511.25 857.144 1512.94 857.696 1515.1 857.696C1516.98 857.696 1518.38 857.288 1519.32 856.472C1520.28 855.632 1520.76 854.528 1520.76 853.16V852.944C1520.76 851.624 1520.26 850.616 1519.28 849.92C1518.32 849.224 1516.75 848.72 1514.56 848.408C1513.29 848.24 1512.14 847.988 1511.11 847.652C1510.1 847.292 1509.24 846.836 1508.52 846.284C1507.8 845.708 1507.24 845.024 1506.86 844.232C1506.48 843.44 1506.28 842.504 1506.28 841.424V840.992C1506.28 840.008 1506.49 839.108 1506.9 838.292C1507.3 837.476 1507.87 836.768 1508.59 836.168C1509.33 835.568 1510.21 835.112 1511.22 834.8C1512.25 834.464 1513.38 834.296 1514.6 834.296C1516.02 834.296 1517.28 834.5 1518.38 834.908C1519.51 835.316 1520.46 835.868 1521.22 836.564C1521.99 837.236 1522.57 838.04 1522.95 838.976C1523.36 839.888 1523.56 840.848 1523.56 841.856V843.368H1520.54V842.072Z" fill="#FF6D7F"/>
<path d="M307.395 230.8H323.379V233.608H316.899V253.192H323.379V256H307.395V253.192H313.875V233.608H307.395V230.8Z" fill="#FF6D7F"/>
<path d="M342.362 254.704H342.794V230.8H345.817V256H339.77L332.497 232.096H332.066V256H329.042V230.8H335.09L342.362 254.704Z" fill="#FF6D7F"/>
<path d="M351.588 230.8H354.612V253.192H367.788V256H351.588V230.8Z" fill="#FF6D7F"/>
<path d="M373.523 230.8H389.507V233.608H383.027V253.192H389.507V256H373.523V253.192H380.003V233.608H373.523V230.8Z" fill="#FF6D7F"/>
<path d="M408.49 254.704H408.922V230.8H411.946V256H405.898L398.626 232.096H398.194V256H395.17V230.8H401.218L408.49 254.704Z" fill="#FF6D7F"/>
<path d="M417.969 230.8H433.233V233.608H420.993V241.96H433.017V244.768H420.993V253.192H433.449V256H417.969V230.8Z" fill="#FF6D7F"/>
<path d="M908.531 228.8H926.243V231.608H918.899V254H915.875V231.608H908.531V228.8Z" fill="#FF6D7F"/>
<path d="M931.042 228.8H934.066V239.96H944.794V228.8H947.818V254H944.794V242.768H934.066V254H931.042V228.8Z" fill="#FF6D7F"/>
<path d="M952.617 238.592C952.617 235.328 953.397 232.796 954.957 230.996C956.517 229.196 958.689 228.296 961.473 228.296C964.257 228.296 966.429 229.196 967.989 230.996C969.549 232.796 970.329 235.328 970.329 238.592V244.208C970.329 247.568 969.549 250.124 967.989 251.876C966.429 253.628 964.257 254.504 961.473 254.504C958.689 254.504 956.517 253.628 954.957 251.876C953.397 250.124 952.617 247.568 952.617 244.208V238.592ZM961.473 251.696C963.417 251.696 964.869 251.036 965.829 249.716C966.813 248.372 967.305 246.464 967.305 243.992V238.808C967.305 236.504 966.813 234.644 965.829 233.228C964.869 231.812 963.417 231.104 961.473 231.104C959.529 231.104 958.065 231.812 957.081 233.228C956.121 234.644 955.641 236.504 955.641 238.808V243.992C955.641 246.464 956.121 248.372 957.081 249.716C958.065 251.036 959.529 251.696 961.473 251.696Z" fill="#FF6D7F"/>
<path d="M991.4 254H988.376V245.576C988.376 244.952 988.232 244.472 987.944 244.136C987.656 243.8 987.152 243.632 986.432 243.632H978.584V254H975.56V228.8H984.56C985.856 228.8 986.984 228.992 987.944 229.376C988.904 229.736 989.696 230.228 990.32 230.852C990.968 231.476 991.448 232.208 991.76 233.048C992.096 233.864 992.264 234.728 992.264 235.64V236.72C992.264 237.656 992 238.592 991.472 239.528C990.968 240.464 990.176 241.184 989.096 241.688V242.12C989.816 242.24 990.38 242.528 990.788 242.984C991.196 243.44 991.4 244.088 991.4 244.928V254ZM978.584 240.824H984.2C985.904 240.824 987.164 240.464 987.98 239.744C988.82 239 989.24 237.92 989.24 236.504V235.856C989.24 234.584 988.82 233.564 987.98 232.796C987.164 232.004 985.904 231.608 984.2 231.608H978.584V240.824Z" fill="#FF6D7F"/>
<path d="M1010.49 252.704H1010.92V228.8H1013.95V254H1007.9L1000.63 230.096H1000.2V254H997.171V228.8H1003.22L1010.49 252.704Z" fill="#FF6D7F"/>
<path d="M1033.54 236.072C1033.54 235.256 1033.37 234.536 1033.04 233.912C1032.73 233.288 1032.29 232.772 1031.74 232.364C1031.19 231.956 1030.55 231.644 1029.83 231.428C1029.11 231.212 1028.36 231.104 1027.57 231.104C1026.87 231.104 1026.21 231.2 1025.59 231.392C1024.96 231.56 1024.4 231.812 1023.89 232.148C1023.41 232.484 1023.03 232.904 1022.74 233.408C1022.45 233.888 1022.31 234.452 1022.31 235.1V235.316C1022.31 236.012 1022.45 236.612 1022.74 237.116C1023.03 237.596 1023.45 238.016 1024 238.376C1024.58 238.712 1025.29 239 1026.13 239.24C1026.97 239.456 1027.95 239.648 1029.08 239.816C1031.72 240.224 1033.66 241.004 1034.91 242.156C1036.16 243.284 1036.78 244.808 1036.78 246.728V247.16C1036.78 248.24 1036.59 249.236 1036.21 250.148C1035.85 251.036 1035.29 251.804 1034.55 252.452C1033.83 253.1 1032.93 253.604 1031.85 253.964C1030.77 254.324 1029.52 254.504 1028.11 254.504C1026.5 254.504 1025.07 254.276 1023.82 253.82C1022.6 253.34 1021.57 252.692 1020.73 251.876C1019.91 251.036 1019.29 250.064 1018.85 248.96C1018.42 247.832 1018.21 246.608 1018.21 245.288V244.208H1021.23V245.072C1021.23 247.28 1021.83 248.936 1023.03 250.04C1024.25 251.144 1025.95 251.696 1028.11 251.696C1029.98 251.696 1031.38 251.288 1032.32 250.472C1033.28 249.632 1033.76 248.528 1033.76 247.16V246.944C1033.76 245.624 1033.27 244.616 1032.28 243.92C1031.32 243.224 1029.75 242.72 1027.57 242.408C1026.29 242.24 1025.14 241.988 1024.11 241.652C1023.1 241.292 1022.24 240.836 1021.52 240.284C1020.8 239.708 1020.25 239.024 1019.86 238.232C1019.48 237.44 1019.29 236.504 1019.29 235.424V234.992C1019.29 234.008 1019.49 233.108 1019.9 232.292C1020.31 231.476 1020.87 230.768 1021.59 230.168C1022.33 229.568 1023.21 229.112 1024.22 228.8C1025.25 228.464 1026.38 228.296 1027.6 228.296C1029.02 228.296 1030.28 228.5 1031.38 228.908C1032.51 229.316 1033.46 229.868 1034.23 230.564C1034.99 231.236 1035.57 232.04 1035.95 232.976C1036.36 233.888 1036.57 234.848 1036.57 235.856V237.368H1033.54V236.072Z" fill="#FF6D7F"/>
<path d="M424.532 809.696C425.564 809.696 426.44 809.528 427.16 809.192C427.904 808.832 428.504 808.364 428.96 807.788C429.44 807.188 429.788 806.516 430.004 805.772C430.244 805.004 430.364 804.2 430.364 803.36V802.928H433.388V803.36C433.388 804.632 433.196 805.832 432.812 806.96C432.428 808.064 431.864 809.036 431.12 809.876C430.376 810.692 429.452 811.34 428.348 811.82C427.244 812.276 425.972 812.504 424.532 812.504C421.748 812.504 419.576 811.628 418.016 809.876C416.456 808.124 415.676 805.568 415.676 802.208V796.592C415.676 793.328 416.456 790.796 418.016 788.996C419.576 787.196 421.748 786.296 424.532 786.296C425.972 786.296 427.244 786.536 428.348 787.016C429.452 787.472 430.376 788.12 431.12 788.96C431.864 789.776 432.428 790.748 432.812 791.876C433.196 792.98 433.388 794.168 433.388 795.44V795.872H430.364V795.44C430.34 794.624 430.208 793.832 429.968 793.064C429.752 792.296 429.404 791.624 428.924 791.048C428.468 790.448 427.88 789.98 427.16 789.644C426.44 789.284 425.564 789.104 424.532 789.104C422.588 789.104 421.124 789.812 420.14 791.228C419.18 792.644 418.7 794.504 418.7 796.808V801.992C418.7 804.464 419.18 806.372 420.14 807.716C421.124 809.036 422.588 809.696 424.532 809.696Z" fill="#FF6D7F"/>
<path d="M438.547 786.8H441.571V809.192H454.747V812H438.547V786.8Z" fill="#FF6D7F"/>
<path d="M459.618 796.592C459.618 793.328 460.398 790.796 461.958 788.996C463.518 787.196 465.69 786.296 468.474 786.296C471.258 786.296 473.43 787.196 474.99 788.996C476.55 790.796 477.33 793.328 477.33 796.592V802.208C477.33 805.568 476.55 808.124 474.99 809.876C473.43 811.628 471.258 812.504 468.474 812.504C465.69 812.504 463.518 811.628 461.958 809.876C460.398 808.124 459.618 805.568 459.618 802.208V796.592ZM468.474 809.696C470.418 809.696 471.87 809.036 472.83 807.716C473.814 806.372 474.306 804.464 474.306 801.992V796.808C474.306 794.504 473.814 792.644 472.83 791.228C471.87 789.812 470.418 789.104 468.474 789.104C466.53 789.104 465.066 789.812 464.082 791.228C463.122 792.644 462.642 794.504 462.642 796.808V801.992C462.642 804.464 463.122 806.372 464.082 807.716C465.066 809.036 466.53 809.696 468.474 809.696Z" fill="#FF6D7F"/>
<path d="M496.457 794.072C496.457 793.256 496.289 792.536 495.953 791.912C495.641 791.288 495.209 790.772 494.657 790.364C494.105 789.956 493.469 789.644 492.749 789.428C492.029 789.212 491.273 789.104 490.481 789.104C489.785 789.104 489.125 789.2 488.501 789.392C487.877 789.56 487.313 789.812 486.809 790.148C486.329 790.484 485.945 790.904 485.657 791.408C485.369 791.888 485.225 792.452 485.225 793.1V793.316C485.225 794.012 485.369 794.612 485.657 795.116C485.945 795.596 486.365 796.016 486.917 796.376C487.493 796.712 488.201 797 489.041 797.24C489.881 797.456 490.865 797.648 491.993 797.816C494.633 798.224 496.577 799.004 497.825 800.156C499.073 801.284 499.697 802.808 499.697 804.728V805.16C499.697 806.24 499.505 807.236 499.121 808.148C498.761 809.036 498.209 809.804 497.465 810.452C496.745 811.1 495.845 811.604 494.765 811.964C493.685 812.324 492.437 812.504 491.021 812.504C489.413 812.504 487.985 812.276 486.737 811.82C485.513 811.34 484.481 810.692 483.641 809.876C482.825 809.036 482.201 808.064 481.769 806.96C481.337 805.832 481.121 804.608 481.121 803.288V802.208H484.145V803.072C484.145 805.28 484.745 806.936 485.945 808.04C487.169 809.144 488.861 809.696 491.021 809.696C492.893 809.696 494.297 809.288 495.233 808.472C496.193 807.632 496.673 806.528 496.673 805.16V804.944C496.673 803.624 496.181 802.616 495.197 801.92C494.237 801.224 492.665 800.72 490.481 800.408C489.209 800.24 488.057 799.988 487.025 799.652C486.017 799.292 485.153 798.836 484.433 798.284C483.713 797.708 483.161 797.024 482.777 796.232C482.393 795.44 482.201 794.504 482.201 793.424V792.992C482.201 792.008 482.405 791.108 482.813 790.292C483.221 789.476 483.785 788.768 484.505 788.168C485.249 787.568 486.125 787.112 487.133 786.8C488.165 786.464 489.293 786.296 490.517 786.296C491.933 786.296 493.193 786.5 494.297 786.908C495.425 787.316 496.373 787.868 497.141 788.564C497.909 789.236 498.485 790.04 498.869 790.976C499.277 791.888 499.481 792.848 499.481 793.856V795.368H496.457V794.072Z" fill="#FF6D7F"/>
<path d="M504.928 786.8H520.192V789.608H507.952V797.96H519.976V800.768H507.952V809.192H520.408V812H504.928V786.8Z" fill="#FF6D7F"/>
<path d="M526.215 786.8H534.495C537.615 786.8 539.895 787.544 541.335 789.032C542.775 790.52 543.495 792.896 543.495 796.16V802.64C543.495 805.904 542.775 808.28 541.335 809.768C539.895 811.256 537.615 812 534.495 812H526.215V809.156H528.375V789.608H526.215V786.8ZM534.063 809.192C535.167 809.192 536.115 809.084 536.907 808.868C537.723 808.652 538.395 808.292 538.923 807.788C539.451 807.26 539.835 806.564 540.075 805.7C540.339 804.836 540.471 803.744 540.471 802.424V796.376C540.471 795.056 540.339 793.964 540.075 793.1C539.835 792.236 539.451 791.552 538.923 791.048C538.395 790.52 537.723 790.148 536.907 789.932C536.115 789.716 535.167 789.608 534.063 789.608H531.399V809.192H534.063Z" fill="#FF6D7F"/>
<path d="M396.724 853.736H385.924L384.088 860H380.848L388.48 834.8H394.168L401.8 860H398.56L396.724 853.736ZM391.108 836.096L386.752 850.928H395.896L391.54 836.096H391.108Z" fill="#FF6D7F"/>
<path d="M408.435 849.632V860H405.411V834.8H414.411C415.707 834.8 416.835 834.992 417.795 835.376C418.755 835.736 419.547 836.228 420.171 836.852C420.819 837.476 421.299 838.208 421.611 839.048C421.947 839.864 422.115 840.728 422.115 841.64V842.72C422.115 843.632 421.947 844.508 421.611 845.348C421.299 846.188 420.819 846.932 420.171 847.58C419.523 848.204 418.719 848.708 417.759 849.092C416.799 849.452 415.683 849.632 414.411 849.632H408.435ZM408.435 846.824H414.051C417.411 846.824 419.091 845.384 419.091 842.504V841.856C419.091 840.584 418.671 839.564 417.831 838.796C417.015 838.004 415.755 837.608 414.051 837.608H408.435V846.824Z" fill="#FF6D7F"/>
<path d="M427.778 834.8H443.042V837.608H430.802V845.96H442.826V848.768H430.802V857.192H443.258V860H427.778V834.8Z" fill="#FF6D7F"/>
<path d="M465.337 860H462.313V851.576C462.313 850.952 462.169 850.472 461.881 850.136C461.593 849.8 461.089 849.632 460.369 849.632H452.521V860H449.497V834.8H458.497C459.793 834.8 460.921 834.992 461.881 835.376C462.841 835.736 463.633 836.228 464.257 836.852C464.905 837.476 465.385 838.208 465.697 839.048C466.033 839.864 466.201 840.728 466.201 841.64V842.72C466.201 843.656 465.937 844.592 465.409 845.528C464.905 846.464 464.113 847.184 463.033 847.688V848.12C463.753 848.24 464.317 848.528 464.725 848.984C465.133 849.44 465.337 850.088 465.337 850.928V860ZM452.521 846.824H458.137C459.841 846.824 461.101 846.464 461.917 845.744C462.757 845 463.177 843.92 463.177 842.504V841.856C463.177 840.584 462.757 839.564 461.917 838.796C461.101 838.004 459.841 837.608 458.137 837.608H452.521V846.824Z" fill="#FF6D7F"/>
<path d="M470.64 834.8H488.352V837.608H481.008V860H477.984V837.608H470.64V834.8Z" fill="#FF6D7F"/>
<path d="M495.923 834.8V851.504C495.923 853.544 496.39 855.092 497.326 856.148C498.287 857.18 499.69 857.696 501.538 857.696C503.386 857.696 504.779 857.18 505.715 856.148C506.675 855.092 507.155 853.544 507.155 851.504V834.8H510.179V851.504C510.179 854.432 509.41 856.664 507.874 858.2C506.338 859.736 504.226 860.504 501.538 860.504C498.85 860.504 496.738 859.736 495.202 858.2C493.666 856.664 492.898 854.432 492.898 851.504V834.8H495.923Z" fill="#FF6D7F"/>
<path d="M531.465 860H528.441V851.576C528.441 850.952 528.297 850.472 528.009 850.136C527.721 849.8 527.217 849.632 526.497 849.632H518.649V860H515.625V834.8H524.625C525.921 834.8 527.049 834.992 528.009 835.376C528.969 835.736 529.761 836.228 530.385 836.852C531.033 837.476 531.513 838.208 531.825 839.048C532.161 839.864 532.329 840.728 532.329 841.64V842.72C532.329 843.656 532.065 844.592 531.537 845.528C531.033 846.464 530.241 847.184 529.161 847.688V848.12C529.881 848.24 530.445 848.528 530.853 848.984C531.261 849.44 531.465 850.088 531.465 850.928V860ZM518.649 846.824H524.265C525.969 846.824 527.229 846.464 528.045 845.744C528.885 845 529.305 843.92 529.305 842.504V841.856C529.305 840.584 528.885 839.564 528.045 838.796C527.229 838.004 525.969 837.608 524.265 837.608H518.649V846.824Z" fill="#FF6D7F"/>
<path d="M537.992 834.8H553.256V837.608H541.016V845.96H553.04V848.768H541.016V857.192H553.472V860H537.992V834.8Z" fill="#FF6D7F"/>
<path d="M573.607 842.072C573.607 841.256 573.439 840.536 573.103 839.912C572.791 839.288 572.359 838.772 571.807 838.364C571.255 837.956 570.619 837.644 569.899 837.428C569.179 837.212 568.423 837.104 567.631 837.104C566.935 837.104 566.275 837.2 565.651 837.392C565.027 837.56 564.463 837.812 563.959 838.148C563.479 838.484 563.095 838.904 562.807 839.408C562.519 839.888 562.375 840.452 562.375 841.1V841.316C562.375 842.012 562.519 842.612 562.807 843.116C563.095 843.596 563.515 844.016 564.067 844.376C564.643 844.712 565.351 845 566.191 845.24C567.031 845.456 568.015 845.648 569.143 845.816C571.783 846.224 573.727 847.004 574.975 848.156C576.223 849.284 576.847 850.808 576.847 852.728V853.16C576.847 854.24 576.655 855.236 576.271 856.148C575.911 857.036 575.359 857.804 574.615 858.452C573.895 859.1 572.995 859.604 571.915 859.964C570.835 860.324 569.587 860.504 568.171 860.504C566.563 860.504 565.135 860.276 563.887 859.82C562.663 859.34 561.631 858.692 560.791 857.876C559.975 857.036 559.351 856.064 558.919 854.96C558.487 853.832 558.271 852.608 558.271 851.288V850.208H561.295V851.072C561.295 853.28 561.895 854.936 563.095 856.04C564.319 857.144 566.011 857.696 568.171 857.696C570.043 857.696 571.447 857.288 572.383 856.472C573.343 855.632 573.823 854.528 573.823 853.16V852.944C573.823 851.624 573.331 850.616 572.347 849.92C571.387 849.224 569.815 848.72 567.631 848.408C566.359 848.24 565.207 847.988 564.175 847.652C563.167 847.292 562.303 846.836 561.583 846.284C560.863 845.708 560.311 845.024 559.927 844.232C559.543 843.44 559.351 842.504 559.351 841.424V840.992C559.351 840.008 559.555 839.108 559.963 838.292C560.371 837.476 560.935 836.768 561.655 836.168C562.399 835.568 563.275 835.112 564.283 834.8C565.315 834.464 566.443 834.296 567.667 834.296C569.083 834.296 570.343 834.5 571.447 834.908C572.575 835.316 573.523 835.868 574.291 836.564C575.059 837.236 575.635 838.04 576.019 838.976C576.427 839.888 576.631 840.848 576.631 841.856V843.368H573.607V842.072Z" fill="#FF6D7F"/>
<path fill-rule="evenodd" clip-rule="evenodd" d="M1194 754L1194 382L1198 382L1198 754L1194 754Z" fill="#FF6D7F"/>
<path fill-rule="evenodd" clip-rule="evenodd" d="M476.999 562.48C472.064 561.543 468.332 557.208 468.332 552C468.332 546.109 473.108 541.333 478.999 541.333C484.89 541.333 489.665 546.109 489.665 552C489.665 557.208 485.934 561.543 480.999 562.48V755H476.999V562.48Z" fill="#FF6D7F"/>
<path fill-rule="evenodd" clip-rule="evenodd" d="M1457 652.48C1452.06 651.543 1448.33 647.208 1448.33 642C1448.33 636.109 1453.11 631.333 1459 631.333C1464.89 631.333 1469.67 636.109 1469.67 642C1469.67 647.208 1465.93 651.543 1461 652.48V755H1457V652.48Z" fill="#FF6D7F"/>
<path fill-rule="evenodd" clip-rule="evenodd" d="M367.999 481.521C363.064 482.457 359.332 486.793 359.332 492C359.332 497.891 364.108 502.667 369.999 502.667C375.89 502.667 380.665 497.891 380.665 492C380.665 486.793 376.934 482.457 371.999 481.521V281H367.999V481.521Z" fill="#FF6D7F"/>
</svg>
