<svg xmlns="http://www.w3.org/2000/svg" width="1920" height="1080" fill="none"><path fill="#FF6D7F" d="M531 560.5c0 17.397-14.103 31.5-31.5 31.5S468 577.897 468 560.5s14.103-31.5 31.5-31.5 31.5 14.103 31.5 31.5ZM1682 590.5c0 17.397-14.1 31.5-31.5 31.5s-31.5-14.103-31.5-31.5 14.1-31.5 31.5-31.5 31.5 14.103 31.5 31.5Z" opacity=".25"/><path fill="#FF6D7F" d="M1118.3 786.8h3.24l6.59 23.904h.43l6.59-23.904h3.24l-7.13 25.2h-5.83l-7.13-25.2ZM1142.76 786.8h15.26v2.808h-12.24v8.352h12.02v2.808h-12.02v8.424h12.46V812h-15.48v-25.2ZM1180.31 812h-3.02v-8.424c0-.624-.14-1.104-.43-1.44-.29-.336-.79-.504-1.51-.504h-7.85V812h-3.03v-25.2h9c1.3 0 2.43.192 3.39.576.96.36 1.75.852 2.37 1.476a5.783 5.783 0 0 1 1.44 2.196c.34.816.51 1.68.51 2.592v1.08c0 .936-.27 1.872-.79 2.808-.51.936-1.3 1.656-2.38 2.16v.432c.72.12 1.28.408 1.69.864.41.456.61 1.104.61 1.944V812Zm-12.81-13.176h5.61c1.71 0 2.97-.36 3.78-1.08.84-.744 1.26-1.824 1.26-3.24v-.648c0-1.272-.42-2.292-1.26-3.06-.81-.792-2.07-1.188-3.78-1.188h-5.61v9.216ZM1185.62 786.8h17.71v2.808h-7.34V812h-3.03v-22.392h-7.34V786.8ZM1208.52 786.8h15.99v2.808h-6.48v19.584h6.48V812h-15.99v-2.808h6.48v-19.584h-6.48V786.8ZM1238.7 809.696c1.04 0 1.91-.168 2.63-.504.75-.36 1.35-.828 1.8-1.404.48-.6.83-1.272 1.05-2.016a8.04 8.04 0 0 0 .36-2.412v-.432h3.02v.432c0 1.272-.19 2.472-.58 3.6a8.452 8.452 0 0 1-1.69 2.916c-.74.816-1.67 1.464-2.77 1.944-1.1.456-2.38.684-3.82.684-2.78 0-4.95-.876-6.51-2.628-1.56-1.752-2.34-4.308-2.34-7.668v-5.616c0-3.264.78-5.796 2.34-7.596 1.56-1.8 3.73-2.7 6.51-2.7 1.44 0 2.72.24 3.82.72 1.1.456 2.03 1.104 2.77 1.944.75.816 1.31 1.788 1.69 2.916.39 1.104.58 2.292.58 3.564v.432h-3.02v-.432a9.038 9.038 0 0 0-.4-2.376c-.22-.768-.56-1.44-1.04-2.016a4.686 4.686 0 0 0-1.77-1.404c-.72-.36-1.59-.54-2.63-.54-1.94 0-3.4.708-4.39 2.124-.96 1.416-1.44 3.276-1.44 5.58v5.184c0 2.472.48 4.38 1.44 5.724.99 1.32 2.45 1.98 4.39 1.98ZM1266 805.736h-10.8l-1.83 6.264h-3.24l7.63-25.2h5.69l7.63 25.2h-3.24l-1.84-6.264Zm-5.61-17.64-4.36 14.832h9.14l-4.35-14.832h-.43ZM1274.76 786.8h3.03v22.392h13.17V812h-16.2v-25.2ZM1177.83 853.736h-10.8l-1.84 6.264h-3.24l7.64-25.2h5.68l7.64 25.2h-3.24l-1.84-6.264Zm-5.62-17.64-4.35 14.832h9.14l-4.35-14.832h-.44ZM1188.5 834.8l5.65 11.16h.65l5.65-11.16h3.31l-6.3 12.348v.432l6.3 12.42h-3.31l-5.65-11.232h-.65L1188.5 860h-3.31l6.3-12.42v-.432l-6.3-12.348h3.31ZM1208.52 834.8h15.99v2.808h-6.48v19.584h6.48V860h-15.99v-2.808h6.48v-19.584h-6.48V834.8ZM1244.5 842.072c0-.816-.17-1.536-.5-2.16a4.382 4.382 0 0 0-1.3-1.548 6.143 6.143 0 0 0-1.91-.936 7.825 7.825 0 0 0-2.27-.324c-.69 0-1.35.096-1.98.288-.62.168-1.18.42-1.69.756-.48.336-.86.756-1.15 1.26-.29.48-.43 1.044-.43 1.692v.216c0 .696.14 1.296.43 1.8.29.48.71.9 1.26 1.26.58.336 1.28.624 2.12.864.84.216 1.83.408 2.96.576 2.64.408 4.58 1.188 5.83 2.34 1.25 1.128 1.87 2.652 1.87 4.572v.432c0 1.08-.19 2.076-.58 2.988a6.05 6.05 0 0 1-1.65 2.304c-.72.648-1.62 1.152-2.7 1.512-1.08.36-2.33.54-3.75.54-1.6 0-3.03-.228-4.28-.684-1.22-.48-2.26-1.128-3.1-1.944a8.737 8.737 0 0 1-1.87-2.916c-.43-1.128-.65-2.352-.65-3.672v-1.08h3.03v.864c0 2.208.6 3.864 1.8 4.968 1.22 1.104 2.91 1.656 5.07 1.656 1.88 0 3.28-.408 4.22-1.224.96-.84 1.44-1.944 1.44-3.312v-.216c0-1.32-.5-2.328-1.48-3.024-.96-.696-2.53-1.2-4.72-1.512-1.27-.168-2.42-.42-3.45-.756-1.01-.36-1.87-.816-2.59-1.368a5.877 5.877 0 0 1-1.66-2.052c-.38-.792-.58-1.728-.58-2.808v-.432c0-.984.21-1.884.62-2.7.4-.816.97-1.524 1.69-2.124.74-.6 1.62-1.056 2.63-1.368 1.03-.336 2.16-.504 3.38-.504 1.42 0 2.68.204 3.78.612 1.13.408 2.08.96 2.84 1.656a6.327 6.327 0 0 1 1.73 2.412c.41.912.61 1.872.61 2.88v1.512h-3.02v-1.296Z"/><path fill="#3C4043" d="M280.795 525.935v-3.967h51.75c11.04 0 20.413-2.243 28.118-6.728 7.705-4.6 13.57-11.27 17.595-20.01 4.14-8.74 6.21-19.377 6.21-31.912s-2.07-23.23-6.21-32.086c-4.025-8.855-9.89-15.582-17.595-20.182-7.705-4.715-17.078-7.073-28.118-7.073h-113.85v-6.727h113.85c17.365 0 32.488 2.415 45.368 7.245 12.995 4.715 23.057 11.96 30.187 21.735 7.13 9.775 10.695 22.138 10.695 37.088s-3.335 27.025-10.005 36.225c-6.67 9.2-16.445 15.927-29.325 20.182-12.765 4.14-28.405 6.21-46.92 6.21h-51.75ZM218.695 656v-6.727h108.848V656H218.695Zm37.95-3.622v-250.47h32.775v250.47h-32.775Zm160.425 5.347c-10.005 0-17.825-1.782-23.46-5.347-5.52-3.68-9.545-8.568-12.075-14.663-2.53-6.21-4.14-13.11-4.83-20.7-.575-7.705-.92-15.64-1.035-23.805-.115-8.165-.575-16.042-1.38-23.633-.805-7.704-2.587-14.604-5.347-20.699-2.76-6.21-7.188-11.098-13.283-14.663-5.98-3.68-14.26-5.52-24.84-5.52h-50.025v-3.623h56.925c16.445 0 29.498 2.301 39.158 6.901 9.775 4.485 17.135 10.465 22.08 17.94 4.945 7.36 8.28 15.467 10.005 24.322a149.59 149.59 0 0 1 2.76 26.738c.23 8.855.517 17.02.862 24.495.46 7.36 1.725 13.282 3.795 17.767 2.185 4.485 6.153 6.728 11.903 6.728 3.565 0 6.785-.345 9.66-1.035 2.875-.805 5.462-1.783 7.762-2.933l2.415 6.383c-2.76 1.495-6.9 2.759-12.42 3.794-5.52 1.035-11.73 1.553-18.63 1.553ZM602.397 659.45c-5.405 0-10.407-.977-15.007-2.932-4.485-1.84-8.108-4.945-10.868-9.315-2.76-4.485-4.14-10.465-4.14-17.94v-78.315c0-8.28-.69-16.215-2.07-23.805s-4.312-13.8-8.797-18.63c-4.37-4.83-11.155-7.245-20.355-7.245-5.175 0-10.58.575-16.215 1.725-5.52 1.15-10.695 2.932-15.525 5.347-4.715 2.3-8.568 5.233-11.558 8.797-2.99 3.565-4.485 7.763-4.485 12.593h-8.107c0-5.865 1.897-10.465 5.692-13.8 3.91-3.45 8.165-5.175 12.765-5.175 4.945 0 9.43 1.61 13.455 4.83 4.14 3.105 6.21 7.59 6.21 13.455 0 6.9-2.127 11.902-6.382 15.008-4.14 3.105-8.568 4.657-13.283 4.657-5.29 0-9.775-1.61-13.455-4.83-3.565-3.22-5.347-7.935-5.347-14.145 0-5.405 1.725-10.235 5.175-14.49 3.565-4.37 8.28-8.05 14.145-11.04 5.98-3.105 12.65-5.462 20.01-7.072 7.475-1.725 15.122-2.588 22.942-2.588 15.87 0 27.715 2.76 35.535 8.28 7.935 5.52 13.225 12.593 15.87 21.218 2.645 8.625 3.968 17.595 3.968 26.91v84.87c0 3.795.632 7.015 1.897 9.66 1.38 2.645 4.198 3.967 8.453 3.967 2.99 0 6.267-1.207 9.832-3.622 3.68-2.53 6.498-5.693 8.453-9.488l3.277 6.21c-2.99 4.83-7.187 8.855-12.592 12.075-5.405 3.22-11.903 4.83-19.493 4.83Zm-80.385 0c-14.95 0-26.91-3.795-35.88-11.385-8.855-7.705-13.282-18.112-13.282-31.222 0-15.41 6.612-27.485 19.837-36.225 13.225-8.855 32.085-13.283 56.58-13.283h39.158v5.865h-39.158c-10.12 0-18.285 2.128-24.495 6.383-6.21 4.255-10.752 9.544-13.627 15.869-2.875 6.326-4.313 12.651-4.313 18.976 0 5.75.863 11.27 2.588 16.56 1.84 5.29 4.657 9.66 8.452 13.11 3.795 3.45 8.74 5.175 14.835 5.175 6.325 0 12.535-2.07 18.63-6.21 6.095-4.255 11.098-10.523 15.008-18.803 4.025-8.395 6.037-18.86 6.037-31.395h3.968c0 13.11-2.128 24.668-6.383 34.673-4.14 10.005-10.235 17.825-18.285 23.46-8.05 5.635-17.94 8.452-29.67 8.452ZM726.576 745.7c-10.465 0-20.298-.92-29.498-2.76-9.2-1.725-17.365-4.485-24.495-8.28-7.015-3.795-12.535-8.625-16.56-14.49-4.025-5.865-6.037-12.88-6.037-21.045 0-7.82 1.725-14.432 5.175-19.837 3.565-5.29 7.935-9.545 13.11-12.765 5.29-3.22 10.637-5.521 16.042-6.901 5.405-1.38 10.063-2.07 13.973-2.07h5.002c-7.82 3.91-13.455 9.086-16.905 15.526-3.335 6.44-5.002 13.915-5.002 22.425 0 7.245 1.897 14.145 5.692 20.7s9.373 11.845 16.733 15.87c7.475 4.14 16.675 6.21 27.6 6.21 8.625 0 16.675-1.093 24.15-3.278 7.475-2.07 13.972-5.117 19.492-9.142 5.635-4.025 10.005-8.97 13.11-14.835 3.22-5.865 4.83-12.535 4.83-20.01 0-6.785-1.84-12.535-5.52-17.25-3.565-4.715-8.452-8.338-14.662-10.868-6.095-2.53-12.88-3.795-20.355-3.795h-40.193c-15.525 0-27.945-2.127-37.26-6.382-9.315-4.255-13.972-11.558-13.972-21.908 0-6.095 1.725-11.442 5.175-16.042 3.565-4.715 8.337-8.625 14.317-11.73 5.98-3.22 12.708-5.635 20.183-7.245 7.59-1.61 15.467-2.415 23.632-2.415l-.345 4.83c-3.68 0-7.762.46-12.247 1.38-4.485.92-8.798 2.3-12.938 4.14-4.025 1.84-7.36 4.082-10.005 6.727-2.53 2.645-3.795 5.635-3.795 8.97 0 5.98 3.105 9.602 9.315 10.868 6.325 1.149 14.203 1.725 23.633 1.725h11.04c3.335-.115 6.555-.173 9.66-.173 3.105-.115 6.325-.172 9.66-.172 6.44 0 12.995.575 19.665 1.725 6.67 1.15 12.822 3.507 18.457 7.072 5.75 3.565 10.35 8.797 13.8 15.697 3.45 7.015 5.175 16.388 5.175 28.118 0 10.925-2.242 20.24-6.727 27.945-4.37 7.82-10.35 14.145-17.94 18.975-7.475 4.945-15.928 8.568-25.358 10.868a115.655 115.655 0 0 1-28.807 3.622Zm-6.21-146.107c-7.015 0-14.145-.978-21.39-2.933-7.13-1.955-13.8-5.003-20.01-9.142-6.095-4.255-11.04-9.718-14.835-16.388-3.68-6.785-5.52-14.892-5.52-24.322 0-9.545 1.84-17.653 5.52-24.323 3.795-6.785 8.74-12.247 14.835-16.387 6.21-4.14 12.88-7.188 20.01-9.143 7.245-1.955 14.375-2.932 21.39-2.932 7.015 0 14.03.977 21.045 2.932 7.13 1.955 13.627 5.003 19.492 9.143 5.865 4.14 10.58 9.602 14.145 16.387 3.565 6.67 5.348 14.778 5.348 24.323 0 9.43-1.783 17.537-5.348 24.322-3.565 6.67-8.28 12.133-14.145 16.388-5.865 4.139-12.362 7.187-19.492 9.142-7.015 1.955-14.03 2.933-21.045 2.933Zm0-6.728c6.785 0 12.362-2.07 16.732-6.21 4.485-4.14 7.763-9.66 9.833-16.56 2.185-7.015 3.277-14.777 3.277-23.287s-1.092-16.215-3.277-23.115c-2.07-7.016-5.348-12.593-9.833-16.733-4.37-4.14-9.947-6.21-16.732-6.21s-12.363 2.07-16.733 6.21c-4.37 4.14-7.647 9.717-9.832 16.733-2.185 6.9-3.278 14.605-3.278 23.115 0 8.51.575 16.272 1.725 23.287 1.265 6.9 3.968 12.42 8.108 16.56 4.255 4.14 10.925 6.21 20.01 6.21Zm93.84-52.267c-4.37 0-8.395-1.495-12.075-4.485-3.565-2.99-5.348-7.303-5.348-12.938 0-5.75 1.84-9.832 5.52-12.247 3.795-2.53 7.763-3.795 11.903-3.795 4.255 0 8.28 1.265 12.075 3.795 3.91 2.415 5.865 5.98 5.865 10.695h-6.555c0-4.715-1.84-9.143-5.52-13.283-3.68-4.14-8.97-6.21-15.87-6.21-4.255 0-9.028 1.035-14.318 3.105-5.175 1.955-10.062 5.578-14.662 10.868-4.6 5.175-8.05 12.592-10.35 22.252l-4.83-3.45c2.3-10.12 6.037-17.997 11.212-23.632 5.175-5.75 10.695-9.775 16.56-12.075 5.98-2.415 11.27-3.623 15.87-3.623 5.635 0 10.58 1.265 14.835 3.795 4.37 2.53 7.763 5.808 10.178 9.833 2.53 3.91 3.795 8.05 3.795 12.42 0 7.36-2.013 12.362-6.038 15.007-3.91 2.645-7.992 3.968-12.247 3.968ZM859.126 659.45v-50.37h6.9c1.265 7.935 4.37 15.18 9.315 21.735 5.06 6.44 11.27 11.615 18.63 15.525 7.36 3.91 15.295 5.865 23.805 5.865 6.44 0 12.535-1.035 18.285-3.105 5.75-2.07 10.407-5.232 13.972-9.487 3.565-4.255 5.348-9.775 5.348-16.56 0-7.245-2.185-12.995-6.555-17.25-4.37-4.255-10.063-7.706-17.078-10.351-6.9-2.76-14.26-5.404-22.08-7.934-7.705-2.645-15.065-5.808-22.08-9.488-6.9-3.68-12.592-8.567-17.077-14.662-4.37-6.095-6.555-14.203-6.555-24.323 0-7.36 1.667-14.432 5.002-21.218 3.335-6.9 8.453-12.535 15.353-16.904 6.9-4.485 15.812-6.728 26.737-6.728 7.82 0 15.008 1.323 21.563 3.968 6.555 2.53 12.305 5.865 17.25 10.005l12.937-14.145h6.038v48.127h-6.9c-.575-6.785-3.105-13.282-7.59-19.492-4.37-6.21-10.235-11.328-17.595-15.353-7.36-4.025-15.813-6.037-25.358-6.037-5.52 0-10.522.977-15.007 2.932-4.485 1.84-8.108 4.543-10.868 8.108-2.76 3.565-4.14 7.819-4.14 12.764 0 6.325 2.3 11.501 6.9 15.526 4.715 3.91 10.695 7.302 17.94 10.177a630.483 630.483 0 0 0 23.115 8.625c8.165 2.76 15.87 6.153 23.115 10.177 7.36 3.911 13.34 8.971 17.94 15.181 4.6 6.095 6.9 13.915 6.9 23.46 0 10.235-2.53 19.205-7.59 26.91-4.945 7.705-11.672 13.685-20.182 17.94-8.51 4.255-18.17 6.382-28.98 6.382-7.935 0-15.468-1.38-22.598-4.14-7.13-2.76-13.455-6.497-18.975-11.212l-13.972 15.352h-5.865ZM1060.42 658.415c-9.43 0-16.56-2.07-21.39-6.21-4.72-4.255-7.94-9.487-9.66-15.697-1.61-6.325-2.42-12.65-2.42-18.975V462.8c5.18 0 10.75-1.092 16.73-3.277s10.7-4.543 14.15-7.073v173.19c0 8.625 1.03 14.375 3.1 17.25 2.19 2.875 5.7 4.313 10.53 4.313 5.4 0 10.58-2.415 15.52-7.245 5.06-4.83 9.14-10.293 12.25-16.388l5.69 3.623c-4.6 9.315-10.41 16.847-17.42 22.597-7.02 5.75-16.04 8.625-27.08 8.625Zm-56.58-154.387V497.3h90.9v6.728h-90.9ZM1207.54 659.45c-16.22 0-30.25-3.795-42.09-11.385-11.85-7.59-20.99-17.652-27.43-30.187-6.44-12.535-9.66-26.278-9.66-41.228 0-14.95 3.22-28.692 9.66-41.227 6.44-12.535 15.58-22.54 27.43-30.015 11.84-7.59 25.87-11.385 42.09-11.385 16.21 0 30.19 3.795 41.92 11.385 11.84 7.475 20.93 17.48 27.25 30.015 6.44 12.535 9.66 26.277 9.66 41.227 0 14.95-3.22 28.693-9.66 41.228-6.32 12.535-15.41 22.597-27.25 30.187-11.73 7.59-25.71 11.385-41.92 11.385Zm0-6.727c9.2 0 16.67-2.415 22.42-7.245 5.87-4.83 10.3-11.04 13.29-18.63 3.1-7.705 5.17-15.985 6.21-24.84 1.15-8.855 1.72-17.308 1.72-25.358 0-8.165-.57-16.618-1.72-25.358-1.04-8.854-3.11-17.077-6.21-24.667-2.99-7.705-7.42-13.972-13.29-18.802-5.75-4.83-13.22-7.245-22.42-7.245-9.32 0-16.85 2.415-22.6 7.245s-10.18 11.097-13.28 18.802c-2.99 7.59-5.06 15.813-6.21 24.667-1.04 8.74-1.55 17.193-1.55 25.358 0 8.05.51 16.503 1.55 25.358 1.15 8.855 3.22 17.135 6.21 24.84 3.1 7.59 7.53 13.8 13.28 18.63 5.75 4.83 13.28 7.245 22.6 7.245ZM1369.36 497.3v151.973h22.25V656h-75.04v-6.727h22.6V504.028h-22.6V497.3h52.79Zm105.22 48.473v103.5h22.6V656h-75.38v-6.727h22.42v-98.325c0-9.66-.46-18.113-1.38-25.358-.8-7.36-2.7-13.052-5.69-17.077-2.99-4.14-7.65-6.21-13.97-6.21-9.32 0-17.37 2.53-24.15 7.59-6.79 5.06-12.36 11.557-16.73 19.492-4.37 7.82-7.65 16.158-9.84 25.013-2.07 8.74-3.1 16.79-3.1 24.15l-4.31.862c0-7.59.97-16.215 2.93-25.875 2.07-9.775 5.46-19.205 10.18-28.29 4.71-9.085 11.09-16.56 19.14-22.425 8.05-5.865 18.17-8.797 30.36-8.797 13.23 0 23.18 2.242 29.85 6.727 6.78 4.485 11.32 10.638 13.62 18.458 2.3 7.705 3.45 16.56 3.45 26.565ZM1605.58 659.45c-14.72 0-28-3.277-39.85-9.832-11.73-6.67-21.1-16.158-28.11-28.463-6.9-12.42-10.35-27.255-10.35-44.505 0-17.25 3.27-32.027 9.83-44.332 6.55-12.42 15.52-21.908 26.91-28.463 11.5-6.555 24.67-9.832 39.5-9.832 16.68 0 29.96 3.335 39.85 10.005 10 6.555 17.19 15.237 21.56 26.047 4.49 10.81 6.73 22.483 6.73 35.018h-121.1v-6.728h84.53c0-5.75-.35-11.96-1.04-18.63-.57-6.67-1.89-12.937-3.96-18.802-2.07-5.98-5.24-10.868-9.49-14.663-4.14-3.795-9.83-5.692-17.08-5.692-8.28 0-15.06 2.127-20.35 6.382-5.29 4.14-9.43 9.775-12.42 16.905-2.99 7.13-5.06 15.238-6.21 24.323-1.15 9.085-1.73 18.572-1.73 28.462s.63 19.378 1.9 28.463c1.38 8.97 3.68 16.962 6.9 23.977 3.33 7.015 7.88 12.593 13.63 16.733 5.86 4.14 13.28 6.21 22.25 6.21 15.41 0 28-3.853 37.78-11.558 9.77-7.82 16.84-17.652 21.21-29.497h7.77c-4.49 13.915-12.37 25.472-23.64 34.672-11.27 9.2-26.27 13.8-45.02 13.8Z"/><path fill="#FF6D7F" d="M444.532 809.696c1.032 0 1.908-.168 2.628-.504.744-.36 1.344-.828 1.8-1.404a5.77 5.77 0 0 0 1.044-2.016 8.04 8.04 0 0 0 .36-2.412v-.432h3.024v.432c0 1.272-.192 2.472-.576 3.6a8.618 8.618 0 0 1-1.692 2.916c-.744.816-1.668 1.464-2.772 1.944-1.104.456-2.376.684-3.816.684-2.784 0-4.956-.876-6.516-2.628-1.56-1.752-2.34-4.308-2.34-7.668v-5.616c0-3.264.78-5.796 2.34-7.596 1.56-1.8 3.732-2.7 6.516-2.7 1.44 0 2.712.24 3.816.72 1.104.456 2.028 1.104 2.772 1.944.744.816 1.308 1.788 1.692 2.916.384 1.104.576 2.292.576 3.564v.432h-3.024v-.432a8.795 8.795 0 0 0-.396-2.376 5.383 5.383 0 0 0-1.044-2.016 4.636 4.636 0 0 0-1.764-1.404c-.72-.36-1.596-.54-2.628-.54-1.944 0-3.408.708-4.392 2.124-.96 1.416-1.44 3.276-1.44 5.58v5.184c0 2.472.48 4.38 1.44 5.724.984 1.32 2.448 1.98 4.392 1.98ZM458.547 786.8h3.024v22.392h13.176V812h-16.2v-25.2ZM479.618 796.592c0-3.264.78-5.796 2.34-7.596 1.56-1.8 3.732-2.7 6.516-2.7s4.956.9 6.516 2.7c1.56 1.8 2.34 4.332 2.34 7.596v5.616c0 3.36-.78 5.916-2.34 7.668-1.56 1.752-3.732 2.628-6.516 2.628s-4.956-.876-6.516-2.628c-1.56-1.752-2.34-4.308-2.34-7.668v-5.616Zm8.856 13.104c1.944 0 3.396-.66 4.356-1.98.984-1.344 1.476-3.252 1.476-5.724v-5.184c0-2.304-.492-4.164-1.476-5.58-.96-1.416-2.412-2.124-4.356-2.124s-3.408.708-4.392 2.124c-.96 1.416-1.44 3.276-1.44 5.58v5.184c0 2.472.48 4.38 1.44 5.724.984 1.32 2.448 1.98 4.392 1.98ZM516.457 794.072c0-.816-.168-1.536-.504-2.16a4.27 4.27 0 0 0-1.296-1.548 6.154 6.154 0 0 0-1.908-.936 7.85 7.85 0 0 0-2.268-.324c-.696 0-1.356.096-1.98.288a5.694 5.694 0 0 0-1.692.756c-.48.336-.864.756-1.152 1.26-.288.48-.432 1.044-.432 1.692v.216c0 .696.144 1.296.432 1.8.288.48.708.9 1.26 1.26.576.336 1.284.624 2.124.864.84.216 1.824.408 2.952.576 2.64.408 4.584 1.188 5.832 2.34 1.248 1.128 1.872 2.652 1.872 4.572v.432c0 1.08-.192 2.076-.576 2.988a6.023 6.023 0 0 1-1.656 2.304c-.72.648-1.62 1.152-2.7 1.512-1.08.36-2.328.54-3.744.54-1.608 0-3.036-.228-4.284-.684-1.224-.48-2.256-1.128-3.096-1.944a8.68 8.68 0 0 1-1.872-2.916c-.432-1.128-.648-2.352-.648-3.672v-1.08h3.024v.864c0 2.208.6 3.864 1.8 4.968 1.224 1.104 2.916 1.656 5.076 1.656 1.872 0 3.276-.408 4.212-1.224.96-.84 1.44-1.944 1.44-3.312v-.216c0-1.32-.492-2.328-1.476-3.024-.96-.696-2.532-1.2-4.716-1.512-1.272-.168-2.424-.42-3.456-.756-1.008-.36-1.872-.816-2.592-1.368a5.91 5.91 0 0 1-1.656-2.052c-.384-.792-.576-1.728-.576-2.808v-.432c0-.984.204-1.884.612-2.7a6.563 6.563 0 0 1 1.692-2.124c.744-.6 1.62-1.056 2.628-1.368 1.032-.336 2.16-.504 3.384-.504 1.416 0 2.676.204 3.78.612 1.128.408 2.076.96 2.844 1.656a6.386 6.386 0 0 1 1.728 2.412c.408.912.612 1.872.612 2.88v1.512h-3.024v-1.296ZM524.928 786.8h15.264v2.808h-12.24v8.352h12.024v2.808h-12.024v8.424h12.456V812h-15.48v-25.2ZM546.215 786.8h8.28c3.12 0 5.4.744 6.84 2.232 1.44 1.488 2.16 3.864 2.16 7.128v6.48c0 3.264-.72 5.64-2.16 7.128-1.44 1.488-3.72 2.232-6.84 2.232h-8.28v-2.844h2.16v-19.548h-2.16V786.8Zm7.848 22.392c1.104 0 2.052-.108 2.844-.324.816-.216 1.488-.576 2.016-1.08.528-.528.912-1.224 1.152-2.088.264-.864.396-1.956.396-3.276v-6.048c0-1.32-.132-2.412-.396-3.276-.24-.864-.624-1.548-1.152-2.052-.528-.528-1.2-.9-2.016-1.116-.792-.216-1.74-.324-2.844-.324h-2.664v19.584h2.664ZM416.724 853.736h-10.8L404.088 860h-3.24l7.632-25.2h5.688L421.8 860h-3.24l-1.836-6.264Zm-5.616-17.64-4.356 14.832h9.144l-4.356-14.832h-.432ZM428.435 849.632V860h-3.024v-25.2h9c1.296 0 2.424.192 3.384.576.96.36 1.752.852 2.376 1.476a5.83 5.83 0 0 1 1.44 2.196 6.74 6.74 0 0 1 .504 2.592v1.08c0 .912-.168 1.788-.504 2.628a6.158 6.158 0 0 1-1.44 2.232c-.648.624-1.452 1.128-2.412 1.512-.96.36-2.076.54-3.348.54h-5.976Zm0-2.808h5.616c3.36 0 5.04-1.44 5.04-4.32v-.648c0-1.272-.42-2.292-1.26-3.06-.816-.792-2.076-1.188-3.78-1.188h-5.616v9.216ZM447.778 834.8h15.264v2.808h-12.24v8.352h12.024v2.808h-12.024v8.424h12.456V860h-15.48v-25.2ZM485.337 860h-3.024v-8.424c0-.624-.144-1.104-.432-1.44-.288-.336-.792-.504-1.512-.504h-7.848V860h-3.024v-25.2h9c1.296 0 2.424.192 3.384.576.96.36 1.752.852 2.376 1.476a5.83 5.83 0 0 1 1.44 2.196 6.74 6.74 0 0 1 .504 2.592v1.08c0 .936-.264 1.872-.792 2.808-.504.936-1.296 1.656-2.376 2.16v.432c.72.12 1.284.408 1.692.864.408.456.612 1.104.612 1.944V860Zm-12.816-13.176h5.616c1.704 0 2.964-.36 3.78-1.08.84-.744 1.26-1.824 1.26-3.24v-.648c0-1.272-.42-2.292-1.26-3.06-.816-.792-2.076-1.188-3.78-1.188h-5.616v9.216ZM490.64 834.8h17.712v2.808h-7.344V860h-3.024v-22.392h-7.344V834.8ZM515.923 834.8v16.704c0 2.04.467 3.588 1.403 4.644.961 1.032 2.364 1.548 4.212 1.548 1.848 0 3.241-.516 4.177-1.548.96-1.056 1.44-2.604 1.44-4.644V834.8h3.024v16.704c0 2.928-.769 5.16-2.305 6.696-1.536 1.536-3.648 2.304-6.336 2.304s-4.8-.768-6.336-2.304c-1.536-1.536-2.304-3.768-2.304-6.696V834.8h3.025ZM551.465 860h-3.024v-8.424c0-.624-.144-1.104-.432-1.44-.288-.336-.792-.504-1.512-.504h-7.848V860h-3.024v-25.2h9c1.296 0 2.424.192 3.384.576.96.36 1.752.852 2.376 1.476a5.83 5.83 0 0 1 1.44 2.196 6.74 6.74 0 0 1 .504 2.592v1.08c0 .936-.264 1.872-.792 2.808-.504.936-1.296 1.656-2.376 2.16v.432c.72.12 1.284.408 1.692.864.408.456.612 1.104.612 1.944V860Zm-12.816-13.176h5.616c1.704 0 2.964-.36 3.78-1.08.84-.744 1.26-1.824 1.26-3.24v-.648c0-1.272-.42-2.292-1.26-3.06-.816-.792-2.076-1.188-3.78-1.188h-5.616v9.216ZM557.992 834.8h15.264v2.808h-12.24v8.352h12.024v2.808h-12.024v8.424h12.456V860h-15.48v-25.2ZM593.607 842.072c0-.816-.168-1.536-.504-2.16a4.27 4.27 0 0 0-1.296-1.548 6.154 6.154 0 0 0-1.908-.936 7.85 7.85 0 0 0-2.268-.324c-.696 0-1.356.096-1.98.288a5.694 5.694 0 0 0-1.692.756c-.48.336-.864.756-1.152 1.26-.288.48-.432 1.044-.432 1.692v.216c0 .696.144 1.296.432 1.8.288.48.708.9 1.26 1.26.576.336 1.284.624 2.124.864.84.216 1.824.408 2.952.576 2.64.408 4.584 1.188 5.832 2.34 1.248 1.128 1.872 2.652 1.872 4.572v.432c0 1.08-.192 2.076-.576 2.988a6.023 6.023 0 0 1-1.656 2.304c-.72.648-1.62 1.152-2.7 1.512-1.08.36-2.328.54-3.744.54-1.608 0-3.036-.228-4.284-.684-1.224-.48-2.256-1.128-3.096-1.944a8.68 8.68 0 0 1-1.872-2.916c-.432-1.128-.648-2.352-.648-3.672v-1.08h3.024v.864c0 2.208.6 3.864 1.8 4.968 1.224 1.104 2.916 1.656 5.076 1.656 1.872 0 3.276-.408 4.212-1.224.96-.84 1.44-1.944 1.44-3.312v-.216c0-1.32-.492-2.328-1.476-3.024-.96-.696-2.532-1.2-4.716-1.512-1.272-.168-2.424-.42-3.456-.756-1.008-.36-1.872-.816-2.592-1.368a5.91 5.91 0 0 1-1.656-2.052c-.384-.792-.576-1.728-.576-2.808v-.432c0-.984.204-1.884.612-2.7a6.563 6.563 0 0 1 1.692-2.124c.744-.6 1.62-1.056 2.628-1.368 1.032-.336 2.16-.504 3.384-.504 1.416 0 2.676.204 3.78.612 1.128.408 2.076.96 2.844 1.656a6.386 6.386 0 0 1 1.728 2.412c.408.912.612 1.872.612 2.88v1.512h-3.024v-1.296Z"/><path fill="#FF6D7F" fill-rule="evenodd" d="M1205 754V382h4v372h-4ZM496.999 572.479c-4.935-.936-8.667-5.272-8.667-10.479 0-5.891 4.776-10.667 10.667-10.667s10.666 4.776 10.666 10.667c0 5.207-3.731 9.543-8.666 10.479V755h-4V572.479Z" clip-rule="evenodd"/><circle cx="73" cy="76" r="24" fill="#D2E3FC"/><path fill="#1A73E8" d="M70.983 83.464V65.176h-.648l-2.376 8.64h-4.537v-.432L66.448 62.8h9.287v20.664H82V88H63.855v-4.536h7.128ZM127.9 88h-3.024v-8.424c0-.624-.144-1.104-.432-1.44-.288-.336-.792-.504-1.512-.504h-7.848V88h-3.024V62.8h9c1.296 0 2.424.192 3.384.576.96.36 1.752.852 2.376 1.476a5.83 5.83 0 0 1 1.44 2.196 6.74 6.74 0 0 1 .504 2.592v1.08c0 .936-.264 1.872-.792 2.808-.504.936-1.296 1.656-2.376 2.16v.432c.72.12 1.284.408 1.692.864.408.456.612 1.104.612 1.944V88Zm-12.816-13.176h5.616c1.704 0 2.964-.36 3.78-1.08.84-.744 1.26-1.824 1.26-3.24v-.648c0-1.272-.42-2.292-1.26-3.06-.816-.792-2.076-1.188-3.78-1.188h-5.616v9.216Zm32.375 6.912h-10.8L134.823 88h-3.24l7.632-25.2h5.688l7.632 25.2h-3.24l-1.836-6.264Zm-5.616-17.64-4.356 14.832h9.144l-4.356-14.832h-.432Zm13.403-1.296h17.712v2.808h-7.344V88h-3.024V65.608h-7.344V62.8Zm22.907 0h15.984v2.808h-6.48v19.584h6.48V88h-15.984v-2.808h6.48V65.608h-6.48V62.8Zm21.179 9.792c0-3.264.78-5.796 2.34-7.596 1.56-1.8 3.732-2.7 6.516-2.7s4.956.9 6.516 2.7c1.56 1.8 2.34 4.332 2.34 7.596v5.616c0 3.36-.78 5.916-2.34 7.668-1.56 1.752-3.732 2.628-6.516 2.628s-4.956-.876-6.516-2.628c-1.56-1.752-2.34-4.308-2.34-7.668v-5.616Zm8.856 13.104c1.944 0 3.396-.66 4.356-1.98.984-1.344 1.476-3.252 1.476-5.724v-5.184c0-2.304-.492-4.164-1.476-5.58-.96-1.416-2.412-2.124-4.356-2.124s-3.408.708-4.392 2.124c-.96 1.416-1.44 3.276-1.44 5.58v5.184c0 2.472.48 4.38 1.44 5.724.984 1.32 2.448 1.98 4.392 1.98Zm26.975 1.008h.432V62.8h3.024V88h-6.048l-7.272-23.904h-.432V88h-3.024V62.8h6.048l7.272 23.904Zm22.511-4.968h-10.8L245.038 88h-3.24l7.632-25.2h5.688L262.75 88h-3.24l-1.836-6.264Zm-5.616-17.64-4.356 14.832h9.144l-4.356-14.832h-.432Zm14.375-1.296h3.024v22.392h13.176V88h-16.2V62.8Z"/><circle cx="344" cy="76" r="24" fill="#D2E3FC"/><path fill="#1A73E8" d="M352.531 83.464V88h-17.712v-4.968c0-1.32.192-2.448.576-3.384a6.811 6.811 0 0 1 1.692-2.376c.744-.648 1.632-1.176 2.664-1.584 1.032-.432 2.196-.792 3.492-1.08.96-.216 1.74-.456 2.34-.72.624-.288 1.116-.6 1.476-.936.36-.36.6-.744.72-1.152.144-.432.216-.912.216-1.44 0-1.008-.372-1.848-1.116-2.52-.72-.672-1.728-1.008-3.024-1.008-1.368 0-2.46.42-3.276 1.26-.816.816-1.224 1.956-1.224 3.42v1.584h-4.752V71.08c0-1.176.204-2.292.612-3.348a8.541 8.541 0 0 1 1.8-2.808c.792-.816 1.752-1.452 2.88-1.908 1.128-.48 2.4-.72 3.816-.72 1.512 0 2.832.228 3.96.684 1.128.432 2.064 1.008 2.808 1.728a6.588 6.588 0 0 1 1.692 2.52c.384.936.576 1.908.576 2.916v.432c0 2.112-.6 3.864-1.8 5.256-1.176 1.392-3.108 2.4-5.796 3.024-1.128.264-2.064.54-2.808.828-.72.264-1.284.564-1.692.9-.408.336-.696.708-.864 1.116-.144.384-.216.828-.216 1.332v.432h12.96ZM391.16 85.696c1.032 0 1.908-.168 2.628-.504.744-.36 1.344-.828 1.8-1.404a5.77 5.77 0 0 0 1.044-2.016 8.04 8.04 0 0 0 .36-2.412v-.432h3.024v.432c0 1.272-.192 2.472-.576 3.6a8.618 8.618 0 0 1-1.692 2.916c-.744.816-1.668 1.464-2.772 1.944-1.104.456-2.376.684-3.816.684-2.784 0-4.956-.876-6.516-2.628-1.56-1.752-2.34-4.308-2.34-7.668v-5.616c0-3.264.78-5.796 2.34-7.596 1.56-1.8 3.732-2.7 6.516-2.7 1.44 0 2.712.24 3.816.72 1.104.456 2.028 1.104 2.772 1.944.744.816 1.308 1.788 1.692 2.916.384 1.104.576 2.292.576 3.564v.432h-3.024v-.432a8.795 8.795 0 0 0-.396-2.376 5.383 5.383 0 0 0-1.044-2.016 4.636 4.636 0 0 0-1.764-1.404c-.72-.36-1.596-.54-2.628-.54-1.944 0-3.408.708-4.392 2.124-.96 1.416-1.44 3.276-1.44 5.58v5.184c0 2.472.48 4.38 1.44 5.724.984 1.32 2.448 1.98 4.392 1.98Zm13.043-13.104c0-3.264.78-5.796 2.34-7.596 1.56-1.8 3.732-2.7 6.516-2.7s4.956.9 6.516 2.7c1.56 1.8 2.34 4.332 2.34 7.596v5.616c0 3.36-.78 5.916-2.34 7.668-1.56 1.752-3.732 2.628-6.516 2.628s-4.956-.876-6.516-2.628c-1.56-1.752-2.34-4.308-2.34-7.668v-5.616Zm8.856 13.104c1.944 0 3.396-.66 4.356-1.98.984-1.344 1.476-3.252 1.476-5.724v-5.184c0-2.304-.492-4.164-1.476-5.58-.96-1.416-2.412-2.124-4.356-2.124s-3.408.708-4.392 2.124c-.96 1.416-1.44 3.276-1.44 5.58v5.184c0 2.472.48 4.38 1.44 5.724.984 1.32 2.448 1.98 4.392 1.98Zm26.975 1.008h.432V62.8h3.024V88h-6.048l-7.272-23.904h-.432V88h-3.024V62.8h6.048l7.272 23.904Zm8.255-23.904h17.712v2.808h-7.344V88h-3.024V65.608h-7.344V62.8ZM487.072 88h-3.024v-8.424c0-.624-.144-1.104-.432-1.44-.288-.336-.792-.504-1.512-.504h-7.848V88h-3.024V62.8h9c1.296 0 2.424.192 3.384.576.96.36 1.752.852 2.376 1.476a5.83 5.83 0 0 1 1.44 2.196 6.74 6.74 0 0 1 .504 2.592v1.08c0 .936-.264 1.872-.792 2.808-.504.936-1.296 1.656-2.376 2.16v.432c.72.12 1.284.408 1.692.864.408.456.612 1.104.612 1.944V88Zm-12.816-13.176h5.616c1.704 0 2.964-.36 3.78-1.08.84-.744 1.26-1.824 1.26-3.24v-.648c0-1.272-.42-2.292-1.26-3.06-.816-.792-2.076-1.188-3.78-1.188h-5.616v9.216Zm32.375 6.912h-10.8L493.995 88h-3.24l7.632-25.2h5.688l7.632 25.2h-3.24l-1.836-6.264Zm-5.616-17.64-4.356 14.832h9.144l-4.356-14.832h-.432Zm28.199 5.976c0-.816-.168-1.536-.504-2.16a4.27 4.27 0 0 0-1.296-1.548 6.154 6.154 0 0 0-1.908-.936 7.85 7.85 0 0 0-2.268-.324c-.696 0-1.356.096-1.98.288a5.694 5.694 0 0 0-1.692.756c-.48.336-.864.756-1.152 1.26-.288.48-.432 1.044-.432 1.692v.216c0 .696.144 1.296.432 1.8.288.48.708.9 1.26 1.26.576.336 1.284.624 2.124.864.84.216 1.824.408 2.952.576 2.64.408 4.584 1.188 5.832 2.34 1.248 1.128 1.872 2.652 1.872 4.572v.432c0 1.08-.192 2.076-.576 2.988a6.023 6.023 0 0 1-1.656 2.304c-.72.648-1.62 1.152-2.7 1.512-1.08.36-2.328.54-3.744.54-1.608 0-3.036-.228-4.284-.684-1.224-.48-2.256-1.128-3.096-1.944a8.68 8.68 0 0 1-1.872-2.916c-.432-1.128-.648-2.352-.648-3.672v-1.08h3.024v.864c0 2.208.6 3.864 1.8 4.968 1.224 1.104 2.916 1.656 5.076 1.656 1.872 0 3.276-.408 4.212-1.224.96-.84 1.44-1.944 1.44-3.312v-.216c0-1.32-.492-2.328-1.476-3.024-.96-.696-2.532-1.2-4.716-1.512-1.272-.168-2.424-.42-3.456-.756-1.008-.36-1.872-.816-2.592-1.368a5.91 5.91 0 0 1-1.656-2.052c-.384-.792-.576-1.728-.576-2.808v-.432c0-.984.204-1.884.612-2.7a6.563 6.563 0 0 1 1.692-2.124c.744-.6 1.62-1.056 2.628-1.368 1.032-.336 2.16-.504 3.384-.504 1.416 0 2.676.204 3.78.612 1.128.408 2.076.96 2.844 1.656a6.386 6.386 0 0 1 1.728 2.412c.408.912.612 1.872.612 2.88v1.512h-3.024v-1.296Zm7.247-7.272h17.712v2.808h-7.344V88h-3.024V65.608h-7.344V62.8Zm22.907 0h15.984v2.808h-6.48v19.584h6.48V88h-15.984v-2.808h6.48V65.608h-6.48V62.8Zm34.967 23.904h.432V62.8h3.024V88h-6.048l-7.272-23.904h-.432V88h-3.024V62.8h6.048l7.272 23.904Zm14.699-10.8h11.232V88h-2.808v-3.024h-.432c-.408 1.056-1.128 1.908-2.16 2.556-1.032.648-2.232.972-3.6.972-2.712 0-4.848-.876-6.408-2.628-1.536-1.752-2.304-4.308-2.304-7.668v-5.616c0-3.264.78-5.796 2.34-7.596 1.56-1.8 3.732-2.7 6.516-2.7 1.44 0 2.712.24 3.816.72 1.104.456 2.028 1.104 2.772 1.944.744.816 1.308 1.788 1.692 2.916.384 1.104.576 2.292.576 3.564v.432h-3.024v-.432a7.92 7.92 0 0 0-.36-2.376 5.383 5.383 0 0 0-1.044-2.016c-.456-.6-1.056-1.068-1.8-1.404-.72-.36-1.596-.54-2.628-.54-1.944 0-3.408.708-4.392 2.124-.96 1.416-1.44 3.276-1.44 5.58v5.184c0 2.472.48 4.38 1.44 5.724.984 1.32 2.472 1.98 4.464 1.98 1.8 0 3.204-.576 4.212-1.728 1.032-1.152 1.548-2.76 1.548-4.824v-.432h-8.208v-2.808Zm52.438-5.832c0-.816-.168-1.536-.504-2.16a4.27 4.27 0 0 0-1.296-1.548 6.154 6.154 0 0 0-1.908-.936 7.85 7.85 0 0 0-2.268-.324c-.696 0-1.356.096-1.98.288a5.694 5.694 0 0 0-1.692.756c-.48.336-.864.756-1.152 1.26-.288.48-.432 1.044-.432 1.692v.216c0 .696.144 1.296.432 1.8.288.48.708.9 1.26 1.26.576.336 1.284.624 2.124.864.84.216 1.824.408 2.952.576 2.64.408 4.584 1.188 5.832 2.34 1.248 1.128 1.872 2.652 1.872 4.572v.432c0 1.08-.192 2.076-.576 2.988a6.023 6.023 0 0 1-1.656 2.304c-.72.648-1.62 1.152-2.7 1.512-1.08.36-2.328.54-3.744.54-1.608 0-3.036-.228-4.284-.684-1.224-.48-2.256-1.128-3.096-1.944a8.68 8.68 0 0 1-1.872-2.916c-.432-1.128-.648-2.352-.648-3.672v-1.08h3.024v.864c0 2.208.6 3.864 1.8 4.968 1.224 1.104 2.916 1.656 5.076 1.656 1.872 0 3.276-.408 4.212-1.224.96-.84 1.44-1.944 1.44-3.312v-.216c0-1.32-.492-2.328-1.476-3.024-.96-.696-2.532-1.2-4.716-1.512-1.272-.168-2.424-.42-3.456-.756-1.008-.36-1.872-.816-2.592-1.368a5.91 5.91 0 0 1-1.656-2.052c-.384-.792-.576-1.728-.576-2.808v-.432c0-.984.204-1.884.612-2.7a6.563 6.563 0 0 1 1.692-2.124c.744-.6 1.62-1.056 2.628-1.368 1.032-.336 2.16-.504 3.384-.504 1.416 0 2.676.204 3.78.612 1.128.408 2.076.96 2.844 1.656a6.386 6.386 0 0 1 1.728 2.412c.408.912.612 1.872.612 2.88v1.512h-3.024v-1.296Zm8.471-7.272h15.264v2.808h-12.24v8.352h12.024v2.808h-12.024v8.424h12.456V88h-15.48V62.8ZM707.502 88h-3.024v-8.424c0-.624-.144-1.104-.432-1.44-.288-.336-.792-.504-1.512-.504h-7.848V88h-3.024V62.8h9c1.296 0 2.424.192 3.384.576.96.36 1.752.852 2.376 1.476a5.83 5.83 0 0 1 1.44 2.196 6.74 6.74 0 0 1 .504 2.592v1.08c0 .936-.264 1.872-.792 2.808-.504.936-1.296 1.656-2.376 2.16v.432c.72.12 1.284.408 1.692.864.408.456.612 1.104.612 1.944V88Zm-12.816-13.176h5.616c1.704 0 2.964-.36 3.78-1.08.84-.744 1.26-1.824 1.26-3.24v-.648c0-1.272-.42-2.292-1.26-3.06-.816-.792-2.076-1.188-3.78-1.188h-5.616v9.216ZM713.669 62.8h15.984v2.808h-6.48v19.584h6.48V88h-15.984v-2.808h6.48V65.608h-6.48V62.8Zm22.439 0h15.48v2.808h-12.456v8.352h12.24v2.808h-12.24V88h-3.024V62.8Z"/></svg>