<svg width="1920" height="1080" viewBox="0 0 1920 1080" fill="none" xmlns="http://www.w3.org/2000/svg">
<path opacity="0.25" d="M531 545.5C531 562.897 516.897 577 499.5 577C482.103 577 468 562.897 468 545.5C468 528.103 482.103 514 499.5 514C516.897 514 531 528.103 531 545.5Z" fill="#FF6D7F"/>
<path opacity="0.4" d="M1678 588.5C1678 605.897 1663.9 620 1646.5 620C1629.1 620 1615 605.897 1615 588.5C1615 571.103 1629.1 557 1646.5 557C1663.9 557 1678 571.103 1678 588.5Z" fill="#FF6D7F"/>
<path d="M1111.3 786.8H1114.54L1121.13 810.704H1121.56L1128.15 786.8H1131.39L1124.26 812H1118.43L1111.3 786.8Z" fill="#FF6D7F"/>
<path d="M1135.76 786.8H1151.02V789.608H1138.78V797.96H1150.8V800.768H1138.78V809.192H1151.24V812H1135.76V786.8Z" fill="#FF6D7F"/>
<path d="M1173.31 812H1170.29V803.576C1170.29 802.952 1170.15 802.472 1169.86 802.136C1169.57 801.8 1169.07 801.632 1168.35 801.632H1160.5V812H1157.47V786.8H1166.47C1167.77 786.8 1168.9 786.992 1169.86 787.376C1170.82 787.736 1171.61 788.228 1172.23 788.852C1172.88 789.476 1173.36 790.208 1173.67 791.048C1174.01 791.864 1174.18 792.728 1174.18 793.64V794.72C1174.18 795.656 1173.91 796.592 1173.39 797.528C1172.88 798.464 1172.09 799.184 1171.01 799.688V800.12C1171.73 800.24 1172.29 800.528 1172.7 800.984C1173.11 801.44 1173.31 802.088 1173.31 802.928V812ZM1160.5 798.824H1166.11C1167.82 798.824 1169.08 798.464 1169.89 797.744C1170.73 797 1171.15 795.92 1171.15 794.504V793.856C1171.15 792.584 1170.73 791.564 1169.89 790.796C1169.08 790.004 1167.82 789.608 1166.11 789.608H1160.5V798.824Z" fill="#FF6D7F"/>
<path d="M1178.62 786.8H1196.33V789.608H1188.99V812H1185.96V789.608H1178.62V786.8Z" fill="#FF6D7F"/>
<path d="M1201.52 786.8H1217.51V789.608H1211.03V809.192H1217.51V812H1201.52V809.192H1208V789.608H1201.52V786.8Z" fill="#FF6D7F"/>
<path d="M1231.7 809.696C1232.74 809.696 1233.61 809.528 1234.33 809.192C1235.08 808.832 1235.68 808.364 1236.13 807.788C1236.61 807.188 1236.96 806.516 1237.18 805.772C1237.42 805.004 1237.54 804.2 1237.54 803.36V802.928H1240.56V803.36C1240.56 804.632 1240.37 805.832 1239.98 806.96C1239.6 808.064 1239.04 809.036 1238.29 809.876C1237.55 810.692 1236.62 811.34 1235.52 811.82C1234.42 812.276 1233.14 812.504 1231.7 812.504C1228.92 812.504 1226.75 811.628 1225.19 809.876C1223.63 808.124 1222.85 805.568 1222.85 802.208V796.592C1222.85 793.328 1223.63 790.796 1225.19 788.996C1226.75 787.196 1228.92 786.296 1231.7 786.296C1233.14 786.296 1234.42 786.536 1235.52 787.016C1236.62 787.472 1237.55 788.12 1238.29 788.96C1239.04 789.776 1239.6 790.748 1239.98 791.876C1240.37 792.98 1240.56 794.168 1240.56 795.44V795.872H1237.54V795.44C1237.51 794.624 1237.38 793.832 1237.14 793.064C1236.92 792.296 1236.58 791.624 1236.1 791.048C1235.64 790.448 1235.05 789.98 1234.33 789.644C1233.61 789.284 1232.74 789.104 1231.7 789.104C1229.76 789.104 1228.3 789.812 1227.31 791.228C1226.35 792.644 1225.87 794.504 1225.87 796.808V801.992C1225.87 804.464 1226.35 806.372 1227.31 807.716C1228.3 809.036 1229.76 809.696 1231.7 809.696Z" fill="#FF6D7F"/>
<path d="M1259 805.736H1248.2L1246.37 812H1243.13L1250.76 786.8H1256.45L1264.08 812H1260.84L1259 805.736ZM1253.39 788.096L1249.03 802.928H1258.17L1253.82 788.096H1253.39Z" fill="#FF6D7F"/>
<path d="M1267.76 786.8H1270.79V809.192H1283.96V812H1267.76V786.8Z" fill="#FF6D7F"/>
<path d="M1170.83 853.736H1160.03L1158.19 860H1154.95L1162.59 834.8H1168.27L1175.91 860H1172.67L1170.83 853.736ZM1165.21 836.096L1160.86 850.928H1170L1165.65 836.096H1165.21Z" fill="#FF6D7F"/>
<path d="M1181.5 834.8L1187.15 845.96H1187.8L1193.45 834.8H1196.76L1190.46 847.148V847.58L1196.76 860H1193.45L1187.8 848.768H1187.15L1181.5 860H1178.19L1184.49 847.58V847.148L1178.19 834.8H1181.5Z" fill="#FF6D7F"/>
<path d="M1201.52 834.8H1217.51V837.608H1211.03V857.192H1217.51V860H1201.52V857.192H1208V837.608H1201.52V834.8Z" fill="#FF6D7F"/>
<path d="M1237.5 842.072C1237.5 841.256 1237.33 840.536 1237 839.912C1236.68 839.288 1236.25 838.772 1235.7 838.364C1235.15 837.956 1234.51 837.644 1233.79 837.428C1233.07 837.212 1232.32 837.104 1231.52 837.104C1230.83 837.104 1230.17 837.2 1229.54 837.392C1228.92 837.56 1228.36 837.812 1227.85 838.148C1227.37 838.484 1226.99 838.904 1226.7 839.408C1226.41 839.888 1226.27 840.452 1226.27 841.1V841.316C1226.27 842.012 1226.41 842.612 1226.7 843.116C1226.99 843.596 1227.41 844.016 1227.96 844.376C1228.54 844.712 1229.24 845 1230.08 845.24C1230.92 845.456 1231.91 845.648 1233.04 845.816C1235.68 846.224 1237.62 847.004 1238.87 848.156C1240.12 849.284 1240.74 850.808 1240.74 852.728V853.16C1240.74 854.24 1240.55 855.236 1240.16 856.148C1239.8 857.036 1239.25 857.804 1238.51 858.452C1237.79 859.1 1236.89 859.604 1235.81 859.964C1234.73 860.324 1233.48 860.504 1232.06 860.504C1230.46 860.504 1229.03 860.276 1227.78 859.82C1226.56 859.34 1225.52 858.692 1224.68 857.876C1223.87 857.036 1223.24 856.064 1222.81 854.96C1222.38 853.832 1222.16 852.608 1222.16 851.288V850.208H1225.19V851.072C1225.19 853.28 1225.79 854.936 1226.99 856.04C1228.21 857.144 1229.9 857.696 1232.06 857.696C1233.94 857.696 1235.34 857.288 1236.28 856.472C1237.24 855.632 1237.72 854.528 1237.72 853.16V852.944C1237.72 851.624 1237.22 850.616 1236.24 849.92C1235.28 849.224 1233.71 848.72 1231.52 848.408C1230.25 848.24 1229.1 847.988 1228.07 847.652C1227.06 847.292 1226.2 846.836 1225.48 846.284C1224.76 845.708 1224.2 845.024 1223.82 844.232C1223.44 843.44 1223.24 842.504 1223.24 841.424V840.992C1223.24 840.008 1223.45 839.108 1223.86 838.292C1224.26 837.476 1224.83 836.768 1225.55 836.168C1226.29 835.568 1227.17 835.112 1228.18 834.8C1229.21 834.464 1230.34 834.296 1231.56 834.296C1232.98 834.296 1234.24 834.5 1235.34 834.908C1236.47 835.316 1237.42 835.868 1238.18 836.564C1238.95 837.236 1239.53 838.04 1239.91 838.976C1240.32 839.888 1240.52 840.848 1240.52 841.856V843.368H1237.5V842.072Z" fill="#FF6D7F"/>
<path d="M357.598 522.556C373.128 522.556 385.385 519.45 394.37 513.238C403.465 507.027 408.013 495.823 408.013 479.628C408.013 462.213 401.691 450.344 389.045 444.022C382.279 440.694 373.238 439.03 361.924 439.03H281.06V522.556H357.598ZM247.949 410.578H361.092C379.727 410.578 395.091 413.296 407.181 418.731C430.143 429.158 441.623 448.403 441.623 476.467C441.623 491.109 438.573 503.089 432.472 512.407C426.482 521.724 418.052 529.212 407.181 534.869C416.721 538.751 423.875 543.854 428.645 550.176C433.526 556.499 436.244 566.76 436.798 580.958L437.963 613.736C438.296 623.054 439.072 629.986 440.292 634.534C442.289 642.299 445.838 647.291 450.941 649.509V655H410.343C409.233 652.892 408.346 650.175 407.68 646.847C407.015 643.519 406.46 637.086 406.017 627.546L404.02 586.781C403.243 570.808 397.309 560.104 386.217 554.669C379.894 551.674 369.966 550.176 356.433 550.176H281.06V655H247.949V410.578Z" fill="#3C4043"/>
<path d="M509.176 607.58C509.176 616.232 512.338 623.054 518.66 628.045C524.983 633.037 532.471 635.533 541.123 635.533C551.66 635.533 561.865 633.092 571.738 628.212C588.376 620.114 596.696 606.859 596.696 588.445V564.319C593.035 566.649 588.321 568.59 582.553 570.143C576.785 571.696 571.128 572.805 565.581 573.47L547.445 575.8C536.575 577.242 528.422 579.516 522.986 582.622C513.78 587.835 509.176 596.155 509.176 607.58ZM581.721 547.015C588.598 546.128 593.202 543.244 595.531 538.363C596.862 535.701 597.528 531.874 597.528 526.882C597.528 516.677 593.867 509.301 586.546 504.753C579.336 500.094 568.965 497.765 555.432 497.765C539.792 497.765 528.699 501.98 522.155 510.41C518.494 515.069 516.109 522.002 515 531.208H487.047C487.602 509.245 494.701 493.993 508.344 485.452C522.099 476.8 538.017 472.474 556.097 472.474C577.062 472.474 594.089 476.467 607.178 484.454C620.156 492.44 626.645 504.864 626.645 521.724V624.385C626.645 627.491 627.255 629.987 628.476 631.872C629.807 633.758 632.524 634.701 636.629 634.701C637.96 634.701 639.457 634.645 641.121 634.534C642.785 634.313 644.56 634.035 646.445 633.702V655.832C641.787 657.163 638.237 657.995 635.797 658.328C633.356 658.66 630.029 658.827 625.813 658.827C615.497 658.827 608.01 655.166 603.351 647.845C600.911 643.963 599.192 638.472 598.193 631.373C592.092 639.36 583.329 646.292 571.904 652.171C560.479 658.05 547.889 660.99 534.134 660.99C517.607 660.99 504.074 655.998 493.536 646.015C483.109 635.921 477.896 623.331 477.896 608.245C477.896 591.718 483.054 578.906 493.37 569.81C503.686 560.714 517.218 555.112 533.968 553.005L581.721 547.015Z" fill="#3C4043"/>
<path d="M738.79 473.638C752.767 473.638 764.968 477.077 775.395 483.954C781.052 487.837 786.82 493.494 792.699 500.926V478.464H820.32V640.524C820.32 663.153 816.992 681.012 810.336 694.101C797.913 718.282 774.452 730.373 739.955 730.373C720.765 730.373 704.625 726.047 691.536 717.395C678.447 708.854 671.126 695.432 669.573 677.129H700.022C701.464 685.116 704.348 691.272 708.674 695.598C715.44 702.254 726.089 705.582 740.62 705.582C763.582 705.582 778.612 697.484 785.711 681.289C789.926 671.75 791.867 654.723 791.535 630.208C785.545 639.304 778.335 646.071 769.904 650.508C761.474 654.945 750.326 657.163 736.461 657.163C717.16 657.163 700.244 650.341 685.713 636.697C671.293 622.943 664.082 600.259 664.082 568.645C664.082 538.807 671.348 515.512 685.879 498.763C700.521 482.013 718.158 473.638 738.79 473.638ZM792.699 565.151C792.699 543.077 788.151 526.716 779.056 516.067C769.96 505.418 758.368 500.094 744.281 500.094C723.205 500.094 708.785 509.966 701.02 529.711C696.916 540.249 694.864 554.059 694.864 571.141C694.864 591.218 698.913 606.526 707.01 617.064C715.219 627.491 726.2 632.704 739.955 632.704C761.474 632.704 776.615 622.998 785.378 603.586C790.259 592.605 792.699 579.793 792.699 565.151Z" fill="#3C4043"/>
<path d="M883.38 599.094C884.268 609.077 886.763 616.731 890.868 622.055C898.41 631.706 911.5 636.531 930.135 636.531C941.227 636.531 950.989 634.146 959.419 629.376C967.849 624.496 972.064 617.008 972.064 606.914C972.064 599.26 968.681 593.437 961.915 589.444C957.589 587.003 949.047 584.175 936.291 580.958L912.498 574.968C897.301 571.197 886.098 566.981 878.888 562.323C866.02 554.225 859.587 543.022 859.587 528.712C859.587 511.852 865.632 498.208 877.723 487.781C889.925 477.354 906.286 472.141 926.807 472.141C953.651 472.141 973.007 480.017 984.876 495.768C992.308 505.751 995.913 516.511 995.691 528.047H967.405C966.851 521.281 964.466 515.124 960.251 509.578C953.373 501.702 941.449 497.765 924.478 497.765C913.163 497.765 904.567 499.928 898.688 504.254C892.92 508.58 890.036 514.292 890.036 521.391C890.036 529.156 893.863 535.368 901.516 540.027C905.953 542.8 912.498 545.24 921.15 547.348L940.95 552.173C962.469 557.386 976.889 562.434 984.211 567.314C995.858 574.968 1001.68 587.003 1001.68 603.42C1001.68 619.282 995.636 632.981 983.545 644.518C971.565 656.054 953.263 661.822 928.637 661.822C902.126 661.822 883.325 655.832 872.232 643.852C861.251 631.761 855.372 616.842 854.595 599.094H883.38Z" fill="#3C4043"/>
<path d="M1041.95 427.05H1072.23V476.8H1100.68V501.259H1072.23V617.563C1072.23 623.775 1074.34 627.934 1078.55 630.042C1080.88 631.262 1084.76 631.872 1090.2 631.872C1091.64 631.872 1093.19 631.872 1094.86 631.872C1096.52 631.761 1098.46 631.595 1100.68 631.373V655C1097.24 655.998 1093.64 656.719 1089.87 657.163C1086.21 657.607 1082.21 657.829 1077.89 657.829C1063.91 657.829 1054.43 654.279 1049.43 647.18C1044.44 639.97 1041.95 630.652 1041.95 619.227V501.259H1017.82V476.8H1041.95V427.05Z" fill="#3C4043"/>
<path d="M1201.51 635.699C1221.37 635.699 1234.96 628.212 1242.28 613.237C1249.71 598.151 1253.42 581.402 1253.42 562.988C1253.42 546.349 1250.76 532.817 1245.44 522.39C1237.01 505.973 1222.48 497.765 1201.84 497.765C1183.54 497.765 1170.23 504.753 1161.91 518.729C1153.59 532.706 1149.43 549.566 1149.43 569.311C1149.43 588.279 1153.59 604.086 1161.91 616.731C1170.23 629.376 1183.43 635.699 1201.51 635.699ZM1202.68 471.642C1225.64 471.642 1245.05 479.296 1260.91 494.603C1276.77 509.911 1284.7 532.428 1284.7 562.156C1284.7 590.886 1277.72 614.623 1263.74 633.37C1249.76 652.116 1228.08 661.489 1198.68 661.489C1174.17 661.489 1154.7 653.225 1140.28 636.697C1125.86 620.059 1118.65 597.763 1118.65 569.81C1118.65 539.86 1126.25 516.012 1141.45 498.264C1156.64 480.516 1177.05 471.642 1202.68 471.642Z" fill="#3C4043"/>
<path d="M1320.48 476.8H1348.93V502.091C1357.36 491.664 1366.29 484.176 1375.72 479.628C1385.15 475.08 1395.63 472.807 1407.17 472.807C1432.46 472.807 1449.54 481.625 1458.41 499.262C1463.29 508.912 1465.73 522.723 1465.73 540.692V655H1435.28V542.689C1435.28 531.818 1433.68 523.055 1430.46 516.4C1425.14 505.307 1415.48 499.761 1401.51 499.761C1394.41 499.761 1388.59 500.482 1384.04 501.924C1375.83 504.365 1368.62 509.245 1362.41 516.566C1357.42 522.445 1354.14 528.546 1352.59 534.869C1351.15 541.081 1350.43 550.01 1350.43 561.657V655H1320.48V476.8Z" fill="#3C4043"/>
<path d="M1584.37 472.807C1597.01 472.807 1609.27 475.801 1621.14 481.791C1633.01 487.67 1642.05 495.324 1648.26 504.753C1654.25 513.738 1658.24 524.22 1660.24 536.2C1662.01 544.408 1662.9 557.497 1662.9 575.467H1532.29C1532.84 593.548 1537.11 608.079 1545.1 619.06C1553.09 629.931 1565.45 635.366 1582.2 635.366C1597.84 635.366 1610.32 630.208 1619.64 619.892C1624.97 613.902 1628.74 606.97 1630.96 599.094H1660.41C1659.63 605.639 1657.02 612.96 1652.59 621.057C1648.26 629.044 1643.38 635.588 1637.94 640.691C1628.85 649.565 1617.59 655.555 1604.17 658.66C1596.96 660.435 1588.8 661.323 1579.71 661.323C1557.52 661.323 1538.72 653.281 1523.3 637.197C1507.88 621.002 1500.18 598.373 1500.18 569.311C1500.18 540.692 1507.94 517.454 1523.47 499.595C1539 481.736 1559.3 472.807 1584.37 472.807ZM1632.12 551.674C1630.9 538.696 1628.07 528.324 1623.63 520.56C1615.43 506.139 1601.73 498.929 1582.54 498.929C1568.78 498.929 1557.25 503.921 1547.93 513.904C1538.61 523.776 1533.67 536.366 1533.12 551.674H1632.12Z" fill="#3C4043"/>
<path d="M444.53 809.696C445.562 809.696 446.438 809.528 447.158 809.192C447.902 808.832 448.502 808.364 448.958 807.788C449.438 807.188 449.786 806.516 450.002 805.772C450.242 805.004 450.362 804.2 450.362 803.36V802.928H453.386V803.36C453.386 804.632 453.194 805.832 452.81 806.96C452.426 808.064 451.862 809.036 451.118 809.876C450.374 810.692 449.45 811.34 448.346 811.82C447.242 812.276 445.97 812.504 444.53 812.504C441.746 812.504 439.574 811.628 438.014 809.876C436.454 808.124 435.674 805.568 435.674 802.208V796.592C435.674 793.328 436.454 790.796 438.014 788.996C439.574 787.196 441.746 786.296 444.53 786.296C445.97 786.296 447.242 786.536 448.346 787.016C449.45 787.472 450.374 788.12 451.118 788.96C451.862 789.776 452.426 790.748 452.81 791.876C453.194 792.98 453.386 794.168 453.386 795.44V795.872H450.362V795.44C450.338 794.624 450.206 793.832 449.966 793.064C449.75 792.296 449.402 791.624 448.922 791.048C448.466 790.448 447.878 789.98 447.158 789.644C446.438 789.284 445.562 789.104 444.53 789.104C442.586 789.104 441.122 789.812 440.138 791.228C439.178 792.644 438.698 794.504 438.698 796.808V801.992C438.698 804.464 439.178 806.372 440.138 807.716C441.122 809.036 442.586 809.696 444.53 809.696Z" fill="#FF6D7F"/>
<path d="M458.545 786.8H461.569V809.192H474.745V812H458.545V786.8Z" fill="#FF6D7F"/>
<path d="M479.616 796.592C479.616 793.328 480.396 790.796 481.956 788.996C483.516 787.196 485.688 786.296 488.472 786.296C491.256 786.296 493.428 787.196 494.988 788.996C496.548 790.796 497.328 793.328 497.328 796.592V802.208C497.328 805.568 496.548 808.124 494.988 809.876C493.428 811.628 491.256 812.504 488.472 812.504C485.688 812.504 483.516 811.628 481.956 809.876C480.396 808.124 479.616 805.568 479.616 802.208V796.592ZM488.472 809.696C490.416 809.696 491.868 809.036 492.828 807.716C493.812 806.372 494.304 804.464 494.304 801.992V796.808C494.304 794.504 493.812 792.644 492.828 791.228C491.868 789.812 490.416 789.104 488.472 789.104C486.528 789.104 485.064 789.812 484.08 791.228C483.12 792.644 482.64 794.504 482.64 796.808V801.992C482.64 804.464 483.12 806.372 484.08 807.716C485.064 809.036 486.528 809.696 488.472 809.696Z" fill="#FF6D7F"/>
<path d="M516.455 794.072C516.455 793.256 516.287 792.536 515.951 791.912C515.639 791.288 515.207 790.772 514.655 790.364C514.103 789.956 513.467 789.644 512.747 789.428C512.027 789.212 511.271 789.104 510.479 789.104C509.783 789.104 509.123 789.2 508.499 789.392C507.875 789.56 507.311 789.812 506.807 790.148C506.327 790.484 505.943 790.904 505.655 791.408C505.367 791.888 505.223 792.452 505.223 793.1V793.316C505.223 794.012 505.367 794.612 505.655 795.116C505.943 795.596 506.363 796.016 506.915 796.376C507.491 796.712 508.199 797 509.039 797.24C509.879 797.456 510.863 797.648 511.991 797.816C514.631 798.224 516.575 799.004 517.823 800.156C519.071 801.284 519.695 802.808 519.695 804.728V805.16C519.695 806.24 519.503 807.236 519.119 808.148C518.759 809.036 518.207 809.804 517.463 810.452C516.743 811.1 515.843 811.604 514.763 811.964C513.683 812.324 512.435 812.504 511.019 812.504C509.411 812.504 507.983 812.276 506.735 811.82C505.511 811.34 504.479 810.692 503.639 809.876C502.823 809.036 502.199 808.064 501.767 806.96C501.335 805.832 501.119 804.608 501.119 803.288V802.208H504.143V803.072C504.143 805.28 504.743 806.936 505.943 808.04C507.167 809.144 508.859 809.696 511.019 809.696C512.891 809.696 514.295 809.288 515.231 808.472C516.191 807.632 516.671 806.528 516.671 805.16V804.944C516.671 803.624 516.179 802.616 515.195 801.92C514.235 801.224 512.663 800.72 510.479 800.408C509.207 800.24 508.055 799.988 507.023 799.652C506.015 799.292 505.151 798.836 504.431 798.284C503.711 797.708 503.159 797.024 502.775 796.232C502.391 795.44 502.199 794.504 502.199 793.424V792.992C502.199 792.008 502.403 791.108 502.811 790.292C503.219 789.476 503.783 788.768 504.503 788.168C505.247 787.568 506.123 787.112 507.131 786.8C508.163 786.464 509.291 786.296 510.515 786.296C511.931 786.296 513.191 786.5 514.295 786.908C515.423 787.316 516.371 787.868 517.139 788.564C517.907 789.236 518.483 790.04 518.867 790.976C519.275 791.888 519.479 792.848 519.479 793.856V795.368H516.455V794.072Z" fill="#FF6D7F"/>
<path d="M524.926 786.8H540.19V789.608H527.95V797.96H539.974V800.768H527.95V809.192H540.406V812H524.926V786.8Z" fill="#FF6D7F"/>
<path d="M546.213 786.8H554.493C557.613 786.8 559.893 787.544 561.333 789.032C562.773 790.52 563.493 792.896 563.493 796.16V802.64C563.493 805.904 562.773 808.28 561.333 809.768C559.893 811.256 557.613 812 554.493 812H546.213V809.156H548.373V789.608H546.213V786.8ZM554.061 809.192C555.165 809.192 556.113 809.084 556.905 808.868C557.721 808.652 558.393 808.292 558.921 807.788C559.449 807.26 559.833 806.564 560.073 805.7C560.337 804.836 560.469 803.744 560.469 802.424V796.376C560.469 795.056 560.337 793.964 560.073 793.1C559.833 792.236 559.449 791.552 558.921 791.048C558.393 790.52 557.721 790.148 556.905 789.932C556.113 789.716 555.165 789.608 554.061 789.608H551.397V809.192H554.061Z" fill="#FF6D7F"/>
<path d="M416.722 853.736H405.922L404.086 860H400.846L408.478 834.8H414.166L421.798 860H418.558L416.722 853.736ZM411.106 836.096L406.75 850.928H415.894L411.538 836.096H411.106Z" fill="#FF6D7F"/>
<path d="M428.433 849.632V860H425.409V834.8H434.409C435.705 834.8 436.833 834.992 437.793 835.376C438.753 835.736 439.545 836.228 440.169 836.852C440.817 837.476 441.297 838.208 441.609 839.048C441.945 839.864 442.113 840.728 442.113 841.64V842.72C442.113 843.632 441.945 844.508 441.609 845.348C441.297 846.188 440.817 846.932 440.169 847.58C439.521 848.204 438.717 848.708 437.757 849.092C436.797 849.452 435.681 849.632 434.409 849.632H428.433ZM428.433 846.824H434.049C437.409 846.824 439.089 845.384 439.089 842.504V841.856C439.089 840.584 438.669 839.564 437.829 838.796C437.013 838.004 435.753 837.608 434.049 837.608H428.433V846.824Z" fill="#FF6D7F"/>
<path d="M447.776 834.8H463.04V837.608H450.8V845.96H462.824V848.768H450.8V857.192H463.256V860H447.776V834.8Z" fill="#FF6D7F"/>
<path d="M485.335 860H482.311V851.576C482.311 850.952 482.167 850.472 481.879 850.136C481.591 849.8 481.087 849.632 480.367 849.632H472.519V860H469.495V834.8H478.495C479.791 834.8 480.919 834.992 481.879 835.376C482.839 835.736 483.631 836.228 484.255 836.852C484.903 837.476 485.383 838.208 485.695 839.048C486.031 839.864 486.199 840.728 486.199 841.64V842.72C486.199 843.656 485.935 844.592 485.407 845.528C484.903 846.464 484.111 847.184 483.031 847.688V848.12C483.751 848.24 484.315 848.528 484.723 848.984C485.131 849.44 485.335 850.088 485.335 850.928V860ZM472.519 846.824H478.135C479.839 846.824 481.099 846.464 481.915 845.744C482.755 845 483.175 843.92 483.175 842.504V841.856C483.175 840.584 482.755 839.564 481.915 838.796C481.099 838.004 479.839 837.608 478.135 837.608H472.519V846.824Z" fill="#FF6D7F"/>
<path d="M490.638 834.8H508.35V837.608H501.006V860H497.982V837.608H490.638V834.8Z" fill="#FF6D7F"/>
<path d="M515.921 834.8V851.504C515.921 853.544 516.389 855.092 517.325 856.148C518.285 857.18 519.689 857.696 521.537 857.696C523.385 857.696 524.777 857.18 525.713 856.148C526.673 855.092 527.153 853.544 527.153 851.504V834.8H530.177V851.504C530.177 854.432 529.409 856.664 527.873 858.2C526.337 859.736 524.225 860.504 521.537 860.504C518.849 860.504 516.737 859.736 515.201 858.2C513.665 856.664 512.897 854.432 512.897 851.504V834.8H515.921Z" fill="#FF6D7F"/>
<path d="M551.464 860H548.44V851.576C548.44 850.952 548.296 850.472 548.008 850.136C547.72 849.8 547.216 849.632 546.496 849.632H538.648V860H535.624V834.8H544.624C545.92 834.8 547.048 834.992 548.008 835.376C548.968 835.736 549.76 836.228 550.384 836.852C551.032 837.476 551.512 838.208 551.824 839.048C552.16 839.864 552.328 840.728 552.328 841.64V842.72C552.328 843.656 552.064 844.592 551.536 845.528C551.032 846.464 550.24 847.184 549.16 847.688V848.12C549.88 848.24 550.444 848.528 550.852 848.984C551.26 849.44 551.464 850.088 551.464 850.928V860ZM538.648 846.824H544.264C545.968 846.824 547.228 846.464 548.044 845.744C548.884 845 549.304 843.92 549.304 842.504V841.856C549.304 840.584 548.884 839.564 548.044 838.796C547.228 838.004 545.968 837.608 544.264 837.608H538.648V846.824Z" fill="#FF6D7F"/>
<path d="M557.99 834.8H573.254V837.608H561.014V845.96H573.038V848.768H561.014V857.192H573.47V860H557.99V834.8Z" fill="#FF6D7F"/>
<path d="M593.605 842.072C593.605 841.256 593.437 840.536 593.101 839.912C592.789 839.288 592.357 838.772 591.805 838.364C591.253 837.956 590.617 837.644 589.897 837.428C589.177 837.212 588.421 837.104 587.629 837.104C586.933 837.104 586.273 837.2 585.649 837.392C585.025 837.56 584.461 837.812 583.957 838.148C583.477 838.484 583.093 838.904 582.805 839.408C582.517 839.888 582.373 840.452 582.373 841.1V841.316C582.373 842.012 582.517 842.612 582.805 843.116C583.093 843.596 583.513 844.016 584.065 844.376C584.641 844.712 585.349 845 586.189 845.24C587.029 845.456 588.013 845.648 589.141 845.816C591.781 846.224 593.725 847.004 594.973 848.156C596.221 849.284 596.845 850.808 596.845 852.728V853.16C596.845 854.24 596.653 855.236 596.269 856.148C595.909 857.036 595.357 857.804 594.613 858.452C593.893 859.1 592.993 859.604 591.913 859.964C590.833 860.324 589.585 860.504 588.169 860.504C586.561 860.504 585.133 860.276 583.885 859.82C582.661 859.34 581.629 858.692 580.789 857.876C579.973 857.036 579.349 856.064 578.917 854.96C578.485 853.832 578.269 852.608 578.269 851.288V850.208H581.293V851.072C581.293 853.28 581.893 854.936 583.093 856.04C584.317 857.144 586.009 857.696 588.169 857.696C590.041 857.696 591.445 857.288 592.381 856.472C593.341 855.632 593.821 854.528 593.821 853.16V852.944C593.821 851.624 593.329 850.616 592.345 849.92C591.385 849.224 589.813 848.72 587.629 848.408C586.357 848.24 585.205 847.988 584.173 847.652C583.165 847.292 582.301 846.836 581.581 846.284C580.861 845.708 580.309 845.024 579.925 844.232C579.541 843.44 579.349 842.504 579.349 841.424V840.992C579.349 840.008 579.553 839.108 579.961 838.292C580.369 837.476 580.933 836.768 581.653 836.168C582.397 835.568 583.273 835.112 584.281 834.8C585.313 834.464 586.441 834.296 587.665 834.296C589.081 834.296 590.341 834.5 591.445 834.908C592.573 835.316 593.521 835.868 594.289 836.564C595.057 837.236 595.633 838.04 596.017 838.976C596.425 839.888 596.629 840.848 596.629 841.856V843.368H593.605V842.072Z" fill="#FF6D7F"/>
<path fill-rule="evenodd" clip-rule="evenodd" d="M1198 754L1198 382L1202 382L1202 754L1198 754Z" fill="#FF6D7F"/>
<path fill-rule="evenodd" clip-rule="evenodd" d="M497.001 556.479C492.066 555.543 488.334 551.207 488.334 546C488.334 540.109 493.11 535.333 499.001 535.333C504.892 535.333 509.667 540.109 509.667 546C509.667 551.207 505.936 555.543 501.001 556.479V754H497.001V556.479Z" fill="#FF6D7F"/>
<circle cx="73" cy="76" r="24" fill="#D2E3FC"/>
<path d="M70.9825 83.464V65.176H70.3345L67.9585 73.816H63.4225V73.384L66.4465 62.8H75.7345V83.464H81.9985V88H63.8545V83.464H70.9825Z" fill="#1A73E8"/>
<path d="M127.9 88H124.876V79.576C124.876 78.952 124.732 78.472 124.444 78.136C124.156 77.8 123.652 77.632 122.932 77.632H115.084V88H112.06V62.8H121.06C122.356 62.8 123.484 62.992 124.444 63.376C125.404 63.736 126.196 64.228 126.82 64.852C127.468 65.476 127.948 66.208 128.26 67.048C128.596 67.864 128.764 68.728 128.764 69.64V70.72C128.764 71.656 128.5 72.592 127.972 73.528C127.468 74.464 126.676 75.184 125.596 75.688V76.12C126.316 76.24 126.88 76.528 127.288 76.984C127.696 77.44 127.9 78.088 127.9 78.928V88ZM115.084 74.824H120.7C122.404 74.824 123.664 74.464 124.48 73.744C125.32 73 125.74 71.92 125.74 70.504V69.856C125.74 68.584 125.32 67.564 124.48 66.796C123.664 66.004 122.404 65.608 120.7 65.608H115.084V74.824ZM147.459 81.736H136.659L134.823 88H131.583L139.215 62.8H144.903L152.535 88H149.295L147.459 81.736ZM141.843 64.096L137.487 78.928H146.631L142.275 64.096H141.843ZM155.246 62.8H172.958V65.608H165.614V88H162.59V65.608H155.246V62.8ZM178.153 62.8H194.137V65.608H187.657V85.192H194.137V88H178.153V85.192H184.633V65.608H178.153V62.8ZM199.332 72.592C199.332 69.328 200.112 66.796 201.672 64.996C203.232 63.196 205.404 62.296 208.188 62.296C210.972 62.296 213.144 63.196 214.704 64.996C216.264 66.796 217.044 69.328 217.044 72.592V78.208C217.044 81.568 216.264 84.124 214.704 85.876C213.144 87.628 210.972 88.504 208.188 88.504C205.404 88.504 203.232 87.628 201.672 85.876C200.112 84.124 199.332 81.568 199.332 78.208V72.592ZM208.188 85.696C210.132 85.696 211.584 85.036 212.544 83.716C213.528 82.372 214.02 80.464 214.02 77.992V72.808C214.02 70.504 213.528 68.644 212.544 67.228C211.584 65.812 210.132 65.104 208.188 65.104C206.244 65.104 204.78 65.812 203.796 67.228C202.836 68.644 202.356 70.504 202.356 72.808V77.992C202.356 80.464 202.836 82.372 203.796 83.716C204.78 85.036 206.244 85.696 208.188 85.696ZM235.163 86.704H235.595V62.8H238.619V88H232.571L225.299 64.096H224.867V88H221.843V62.8H227.891L235.163 86.704ZM257.674 81.736H246.874L245.038 88H241.798L249.43 62.8H255.118L262.75 88H259.51L257.674 81.736ZM252.058 64.096L247.702 78.928H256.846L252.49 64.096H252.058ZM266.433 62.8H269.457V85.192H282.633V88H266.433V62.8Z" fill="#1A73E8"/>
<circle cx="344" cy="76" r="24" fill="#D2E3FC"/>
<path d="M352.531 83.464V88H334.819V83.032C334.819 81.712 335.011 80.584 335.395 79.648C335.803 78.712 336.367 77.92 337.087 77.272C337.831 76.624 338.719 76.096 339.751 75.688C340.783 75.256 341.947 74.896 343.243 74.608C344.203 74.392 344.983 74.152 345.583 73.888C346.207 73.6 346.699 73.288 347.059 72.952C347.419 72.592 347.659 72.208 347.779 71.8C347.923 71.368 347.995 70.888 347.995 70.36C347.995 69.352 347.623 68.512 346.879 67.84C346.159 67.168 345.151 66.832 343.855 66.832C342.487 66.832 341.395 67.252 340.579 68.092C339.763 68.908 339.355 70.048 339.355 71.512V73.096H334.603V71.08C334.603 69.904 334.807 68.788 335.215 67.732C335.647 66.652 336.247 65.716 337.015 64.924C337.807 64.108 338.767 63.472 339.895 63.016C341.023 62.536 342.295 62.296 343.711 62.296C345.223 62.296 346.543 62.524 347.671 62.98C348.799 63.412 349.735 63.988 350.479 64.708C351.247 65.428 351.811 66.268 352.171 67.228C352.555 68.164 352.747 69.136 352.747 70.144V70.576C352.747 72.688 352.147 74.44 350.947 75.832C349.771 77.224 347.839 78.232 345.151 78.856C344.023 79.12 343.087 79.396 342.343 79.684C341.623 79.948 341.059 80.248 340.651 80.584C340.243 80.92 339.955 81.292 339.787 81.7C339.643 82.084 339.571 82.528 339.571 83.032V83.464H352.531Z" fill="#1A73E8"/>
<path d="M383.132 62.8H386.156V85.192H399.332V88H383.132V62.8ZM405.067 62.8H421.051V65.608H414.571V85.192H421.051V88H405.067V85.192H411.547V65.608H405.067V62.8ZM440.034 86.704H440.466V62.8H443.49V88H437.442L430.17 64.096H429.738V88H426.714V62.8H432.762L440.034 86.704ZM449.513 62.8H464.777V65.608H452.537V73.96H464.561V76.768H452.537V85.192H464.993V88H449.513V62.8ZM484.588 81.736H473.788L471.952 88H468.712L476.344 62.8H482.032L489.664 88H486.424L484.588 81.736ZM478.972 64.096L474.616 78.928H483.76L479.404 64.096H478.972ZM509.115 88H506.091V79.576C506.091 78.952 505.947 78.472 505.659 78.136C505.371 77.8 504.867 77.632 504.147 77.632H496.299V88H493.275V62.8H502.275C503.571 62.8 504.699 62.992 505.659 63.376C506.619 63.736 507.411 64.228 508.035 64.852C508.683 65.476 509.163 66.208 509.475 67.048C509.811 67.864 509.979 68.728 509.979 69.64V70.72C509.979 71.656 509.715 72.592 509.187 73.528C508.683 74.464 507.891 75.184 506.811 75.688V76.12C507.531 76.24 508.095 76.528 508.503 76.984C508.911 77.44 509.115 78.088 509.115 78.928V88ZM496.299 74.824H501.915C503.619 74.824 504.879 74.464 505.695 73.744C506.535 73 506.955 71.92 506.955 70.504V69.856C506.955 68.584 506.535 67.564 505.695 66.796C504.879 66.004 503.619 65.608 501.915 65.608H496.299V74.824ZM551.257 70.072C551.257 69.256 551.089 68.536 550.753 67.912C550.441 67.288 550.009 66.772 549.457 66.364C548.905 65.956 548.269 65.644 547.549 65.428C546.829 65.212 546.073 65.104 545.281 65.104C544.585 65.104 543.925 65.2 543.301 65.392C542.677 65.56 542.113 65.812 541.609 66.148C541.129 66.484 540.745 66.904 540.457 67.408C540.169 67.888 540.025 68.452 540.025 69.1V69.316C540.025 70.012 540.169 70.612 540.457 71.116C540.745 71.596 541.165 72.016 541.717 72.376C542.293 72.712 543.001 73 543.841 73.24C544.681 73.456 545.665 73.648 546.793 73.816C549.433 74.224 551.377 75.004 552.625 76.156C553.873 77.284 554.497 78.808 554.497 80.728V81.16C554.497 82.24 554.305 83.236 553.921 84.148C553.561 85.036 553.009 85.804 552.265 86.452C551.545 87.1 550.645 87.604 549.565 87.964C548.485 88.324 547.237 88.504 545.821 88.504C544.213 88.504 542.785 88.276 541.537 87.82C540.313 87.34 539.281 86.692 538.441 85.876C537.625 85.036 537.001 84.064 536.569 82.96C536.137 81.832 535.921 80.608 535.921 79.288V78.208H538.945V79.072C538.945 81.28 539.545 82.936 540.745 84.04C541.969 85.144 543.661 85.696 545.821 85.696C547.693 85.696 549.097 85.288 550.033 84.472C550.993 83.632 551.473 82.528 551.473 81.16V80.944C551.473 79.624 550.981 78.616 549.997 77.92C549.037 77.224 547.465 76.72 545.281 76.408C544.009 76.24 542.857 75.988 541.825 75.652C540.817 75.292 539.953 74.836 539.233 74.284C538.513 73.708 537.961 73.024 537.577 72.232C537.193 71.44 537.001 70.504 537.001 69.424V68.992C537.001 68.008 537.205 67.108 537.613 66.292C538.021 65.476 538.585 64.768 539.305 64.168C540.049 63.568 540.925 63.112 541.933 62.8C542.965 62.464 544.093 62.296 545.317 62.296C546.733 62.296 547.993 62.5 549.097 62.908C550.225 63.316 551.173 63.868 551.941 64.564C552.709 65.236 553.285 66.04 553.669 66.976C554.077 67.888 554.281 68.848 554.281 69.856V71.368H551.257V70.072ZM572.76 81.736H561.96L560.124 88H556.884L564.516 62.8H570.204L577.836 88H574.596L572.76 81.736ZM567.144 64.096L562.788 78.928H571.932L567.576 64.096H567.144ZM594.335 86.704H594.767V62.8H597.791V88H591.743L584.471 64.096H584.039V88H581.015V62.8H587.063L594.335 86.704ZM617.386 70.072C617.386 69.256 617.218 68.536 616.882 67.912C616.57 67.288 616.138 66.772 615.586 66.364C615.034 65.956 614.398 65.644 613.678 65.428C612.958 65.212 612.202 65.104 611.41 65.104C610.714 65.104 610.054 65.2 609.43 65.392C608.806 65.56 608.242 65.812 607.738 66.148C607.258 66.484 606.874 66.904 606.586 67.408C606.298 67.888 606.154 68.452 606.154 69.1V69.316C606.154 70.012 606.298 70.612 606.586 71.116C606.874 71.596 607.294 72.016 607.846 72.376C608.422 72.712 609.13 73 609.97 73.24C610.81 73.456 611.794 73.648 612.922 73.816C615.562 74.224 617.506 75.004 618.754 76.156C620.002 77.284 620.626 78.808 620.626 80.728V81.16C620.626 82.24 620.434 83.236 620.05 84.148C619.69 85.036 619.138 85.804 618.394 86.452C617.674 87.1 616.774 87.604 615.694 87.964C614.614 88.324 613.366 88.504 611.95 88.504C610.342 88.504 608.914 88.276 607.666 87.82C606.442 87.34 605.41 86.692 604.57 85.876C603.754 85.036 603.13 84.064 602.698 82.96C602.266 81.832 602.05 80.608 602.05 79.288V78.208H605.074V79.072C605.074 81.28 605.674 82.936 606.874 84.04C608.098 85.144 609.79 85.696 611.95 85.696C613.822 85.696 615.226 85.288 616.162 84.472C617.122 83.632 617.602 82.528 617.602 81.16V80.944C617.602 79.624 617.11 78.616 616.126 77.92C615.166 77.224 613.594 76.72 611.41 76.408C610.138 76.24 608.986 75.988 607.954 75.652C606.946 75.292 606.082 74.836 605.362 74.284C604.642 73.708 604.09 73.024 603.706 72.232C603.322 71.44 603.13 70.504 603.13 69.424V68.992C603.13 68.008 603.334 67.108 603.742 66.292C604.15 65.476 604.714 64.768 605.434 64.168C606.178 63.568 607.054 63.112 608.062 62.8C609.094 62.464 610.222 62.296 611.446 62.296C612.862 62.296 614.122 62.5 615.226 62.908C616.354 63.316 617.302 63.868 618.07 64.564C618.838 65.236 619.414 66.04 619.798 66.976C620.206 67.888 620.41 68.848 620.41 69.856V71.368H617.386V70.072Z" fill="#1A73E8"/>
</svg>
