<svg xmlns="http://www.w3.org/2000/svg" width="1920" height="1080" fill="none"><path fill="#FF6D7F" d="M1684 591.5c0 17.397-14.1 31.5-31.5 31.5s-31.5-14.103-31.5-31.5 14.1-31.5 31.5-31.5 31.5 14.103 31.5 31.5Z" opacity=".25"/><path fill="#FF6D7F" fill-rule="evenodd" d="M969.999 554.521c-4.935.936-8.667 5.272-8.667 10.479 0 5.891 4.776 10.667 10.667 10.667s10.666-4.776 10.666-10.667c0-5.207-3.731-9.543-8.666-10.479V276.5h-4v278.021Z" clip-rule="evenodd"/><path fill="#FF6D7F" d="M511 550.5c0 17.397-14.103 31.5-31.5 31.5S448 567.897 448 550.5s14.103-31.5 31.5-31.5 31.5 14.103 31.5 31.5Z" opacity=".25"/><path fill="#3C4043" d="M286.867 652.219c-5.047 3.166-10.786 4.75-17.219 4.75-6.432 0-12.171-1.584-17.218-4.75-5.047 3.166-9.748 4.75-14.102 4.75-4.255 0-7.768-.396-10.539-1.188-2.771-.692-5.195-1.682-7.273-2.969-4.256-2.572-6.383-5.789-6.383-9.648 0-1.979.544-3.711 1.633-5.195 2.177 1.682 4.948 2.523 8.312 2.523 8.807 0 14.893-3.76 18.258-11.281v-72.586c0-4.552-.94-7.917-2.82-10.094-2.969-3.661-8.065-7.273-15.289-10.836 6.729-3.067 11.083-5.789 13.062-8.164 3.365-3.859 5.047-8.213 5.047-13.062v-62.641c-3.365-7.62-9.451-11.43-18.258-11.43-3.364 0-6.135.842-8.312 2.524-1.089-1.484-1.633-3.167-1.633-5.047 0-1.979.544-3.81 1.633-5.492 1.187-1.682 2.77-3.117 4.75-4.305 4.552-2.771 9.747-4.156 15.586-4.156 5.937 0 11.38 1.633 16.328 4.898 5.146-3.265 10.885-4.898 17.218-4.898 6.334 0 12.073 1.633 17.219 4.898 11.182-4.255 23.552-6.382 37.11-6.382 13.656 0 25.085 1.236 34.289 3.71 9.203 2.474 17.119 5.987 23.75 10.54 13.359 9.203 21.672 22.018 24.937 38.445 1.287 7.323 5.987 12.864 14.102 16.625-7.719 4.354-12.766 11.281-15.141 20.781-4.849 19.594-16.971 31.815-36.367 36.664 9.995 2.672 18.159 8.164 24.492 16.477 6.531 8.609 9.797 18.752 9.797 30.429v14.844c0 14.25 4.602 23.453 13.805 27.609 2.77 1.287 5.789 1.93 9.054 1.93 3.266 0 5.987-.841 8.164-2.523 1.089 1.484 1.633 3.216 1.633 5.195 0 1.88-.495 3.662-1.484 5.344-.99 1.682-2.326 3.117-4.008 4.304-3.562 2.771-7.719 4.157-12.469 4.157-4.75 0-9.401-1.287-13.953-3.86-8.312 4.552-16.081 4.998-23.305 1.336-2.77 1.683-5.69 2.524-8.757 2.524-3.068 0-6.037-.693-8.907-2.078-2.77-1.386-5.244-3.662-7.421-6.829-4.652-6.828-6.977-17.317-6.977-31.468v-10.985c0-22.859-6.531-37.703-19.594-44.531-4.354-2.276-9.45-3.414-15.289-3.414h-17.367v72.289c2.672 7.026 7.768 10.539 15.289 10.539 3.365 0 6.135-.841 8.312-2.523 1.089 1.484 1.633 3.661 1.633 6.531 0 2.87-1.583 5.69-4.75 8.461-3.067 2.672-7.718 4.008-13.953 4.008-6.234 0-11.776-1.584-16.625-4.75Zm38.594-210.039c-19 0-28.5 7.372-28.5 22.117v60.711c0 5.146 2.029 8.609 6.086 10.39 3.859 1.683 9.549 2.524 17.07 2.524 7.62 0 12.914-.396 15.883-1.188 3.068-.89 5.69-2.375 7.867-4.453 4.453-4.255 6.68-11.38 6.68-21.375v-43.344c0-12.369-5.146-20.286-15.438-23.75-3.067-1.088-6.283-1.632-9.648-1.632Zm35.031 9.5c3.068 6.927 4.602 18.01 4.602 33.25 0 26.224-1.237 41.909-3.711 47.054 5.443-1.088 9.351-8.362 11.726-21.82l1.188-6.086c1.088-6.432 4.255-10.539 9.5-12.32-3.859-1.287-6.333-2.82-7.422-4.602-1.187-2.078-2.276-5.591-3.266-10.539-.89-5.047-1.83-9.104-2.82-12.172-.99-3.067-2.029-5.492-3.117-7.273-1.88-3.167-4.107-4.998-6.68-5.492ZM256.586 614.664c4.948-1.88 7.669-8.362 8.164-19.445.594-11.084.891-26.422.891-46.016 0-19.594-.05-32.607-.149-39.039 0-6.531-.049-11.776-.148-15.734-.297-11.677-1.435-18.703-3.414-21.078-1.881-2.474-3.662-4.107-5.344-4.899 0 34.438-.594 54.031-1.781 58.781-1.386 3.959-4.75 6.779-10.094 8.461 5.937 2.078 9.302 4.602 10.094 7.571 1.187 4.75 1.781 22.117 1.781 52.101v19.297Zm102.422-40.672c3.958 4.453 5.937 9.896 5.937 16.328v19.594c0 16.427 3.266 25.185 9.797 26.274 1.781.296 3.513.247 5.196-.149-3.563-5.542-5.344-11.38-5.344-17.516v-20.781c0-7.818-1.089-13.359-3.266-16.625-3.76-5.541-7.867-7.916-12.32-7.125ZM550.641 639.898c-9.006 11.875-22.513 17.813-40.524 17.813-21.969 0-38.445-6.581-49.429-19.742-4.75-5.641-8.016-11.925-9.797-18.852-.99-4.156-2.722-7.323-5.196-9.5-2.474-2.276-5.541-4.305-9.203-6.086 7.125-3.265 12.222-9.401 15.289-18.406 3.266-9.5 8.709-16.378 16.328-20.633 8.214-4.453 17.269-6.778 27.164-6.976 9.896-.297 17.219-.644 21.969-1.039 4.75-.396 8.956-1.039 12.617-1.93 6.829-1.583 12.172-4.503 16.032-8.758v-22.266c0-9.796-2.029-16.971-6.086-21.523-3.959-4.552-10.045-6.828-18.258-6.828-8.115 0-14.151 1.534-18.109 4.601-3.86 2.969-5.79 6.977-5.79 12.024 0 7.719 3.959 11.479 11.875 11.281-1.583 7.719-5.739 11.578-12.468 11.578-1.979 0-3.909-.346-5.789-1.039v.445c0 2.573 1.187 4.206 3.562 4.899-2.474 3.76-6.63 5.591-12.469 5.492-5.838-.099-10.39-3.216-13.656-9.351-1.484.395-3.216.593-5.195.593-1.88 0-4.008-.643-6.383-1.929-2.276-1.287-4.107-3.068-5.492-5.344 4.948-2.969 7.966-7.57 9.055-13.805 1.187-7.62 7.273-15.338 18.257-23.156 13.261-9.401 30.183-14.102 50.766-14.102 34.141 0 54.971 10.49 62.492 31.469 2.474 7.026 3.711 15.339 3.711 24.938v12.023c0 4.849 1.188 8.807 3.563 11.875 2.474 3.068 6.63 5.591 12.468 7.57-6.234 2.87-10.242 5.443-12.023 7.719-2.672 3.464-4.008 7.422-4.008 11.875v44.531c2.87 7.422 6.977 11.133 12.32 11.133 3.365 0 6.136-.841 8.313-2.523 1.385 1.88 2.078 4.255 2.078 7.125 0 2.771-1.435 5.442-4.305 8.015-2.771 2.573-6.976 3.86-12.617 3.86-5.641 0-10.885-1.584-15.734-4.75-4.255 3.166-8.065 4.75-11.43 4.75-3.266 0-6.135-.347-8.609-1.039a21.276 21.276 0 0 1-6.68-2.969c-4.651-3.068-7.521-7.422-8.609-13.063Zm9.351-25.234c5.74-2.276 8.758-13.211 9.055-32.805v-14.25c0-5.343-.05-9.895-.149-13.656 0-3.859-.049-7.521-.148-10.984-.396-12.469-1.534-19.891-3.414-22.266-1.88-2.474-3.662-4.107-5.344-4.898v98.859Zm-54.773-10.539c0 4.156.445 8.214 1.336 12.172.89 3.958 2.226 7.422 4.007 10.391 3.959 6.234 9.55 9.351 16.774 9.351 5.443 0 9.945-2.227 13.508-6.68 3.364-4.354 5.047-9.945 5.047-16.773v-48.391c-6.334 3.662-14.448 6.185-24.344 7.571-10.886 1.682-16.328 12.468-16.328 32.359Zm-22.266 33.398c.99-.692 1.485-1.583 1.485-2.671 0-1.485-.693-3.563-2.079-6.235-4.948-9.104-7.421-16.575-7.421-22.414 0-5.838.197-10.044.593-12.617.495-2.573 1.089-4.75 1.781-6.531.792-1.881 1.633-3.513 2.524-4.899a83.504 83.504 0 0 0 2.523-3.711c1.287-2.276 1.93-3.81 1.93-4.601 0-.891-.445-1.633-1.336-2.227-4.057 1.88-7.026 4.107-8.906 6.68-3.365 4.552-5.839 10.44-7.422 17.664-.396 2.078-3.859 4.601-10.391 7.57 6.334 2.87 9.797 5.393 10.391 7.571 3.365 11.776 8.807 20.583 16.328 26.421ZM656.031 659.789c-7.125-6.531-10.687-14.646-10.687-24.344 0-14.448 8.56-26.323 25.679-35.625-11.182-7.817-19.346-20.187-24.492-37.109-1.682-5.245-3.364-8.807-5.047-10.688-2.474-2.968-6.729-5.937-12.765-8.906 4.948-2.276 8.708-5.195 11.281-8.758 2.672-3.562 4.948-8.213 6.828-13.953 1.979-5.739 4.701-11.232 8.164-16.476 3.563-5.245 8.115-9.847 13.656-13.805 12.172-8.51 27.857-12.766 47.055-12.766 6.136 0 12.518.644 19.149 1.93 1.385-10.786 6.184-19.94 14.398-27.461 8.115-7.62 17.615-11.43 28.5-11.43 12.766 0 23.503 3.316 32.211 9.946 4.75 3.562 9.5 4.898 14.25 4.008.396 7.916-2.672 13.013-9.203 15.289-1.089 13.359-6.878 20.039-17.367 20.039-4.157 0-6.68-.297-7.571-.891 1.485-1.286 2.227-2.919 2.227-4.898 0-2.079-.841-3.86-2.524-5.344-2.078 3.859-6.729 5.789-13.953 5.789-3.958 0-7.075-1.88-9.351-5.641 3.76-1.187 6.729-2.968 8.906-5.343 2.177-2.474 3.266-4.75 3.266-6.829 0-5.442-2.87-8.164-8.61-8.164-11.083 0-17.565 8.61-19.445 25.829 18.01 7.718 29.49 19.841 34.437 36.367 3.266 11.182 9.303 18.703 18.11 22.562-7.719 3.86-12.815 8.164-15.289 12.914-.99 1.88-1.88 4.107-2.672 6.68-5.344 16.823-13.706 29.242-25.086 37.258-11.38 7.916-26.026 11.875-43.938 11.875-11.38 0-21.276-1.386-29.687-4.156-3.266 2.078-4.899 4.403-4.899 6.976 0 2.474.495 4.602 1.485 6.383.989 1.682 2.771 3.216 5.344 4.601 5.047 2.672 14.645 5.047 28.797 7.125 6.432 1.287 13.062-2.869 19.89-12.468.396 5.047 1.534 8.856 3.414 11.429 1.88 2.474 3.959 3.86 6.235 4.157 27.312 4.057 44.976 12.963 52.992 26.718 2.771 4.651 4.156 10.589 4.156 17.813 0 7.323-2.326 14.398-6.977 21.226-4.651 6.928-10.934 12.816-18.851 17.664-16.427 9.896-36.615 14.844-60.563 14.844-28.104 0-49.578-4.601-64.422-13.804-12.765-8.016-19.148-18.258-19.148-30.727 0-8.313 4.206-16.18 12.617-23.602 2.771-2.375 5.938-4.453 9.5-6.234Zm45.719-74.961c2.177 3.068 4.354 5.047 6.531 5.938 2.177.791 4.701 1.187 7.571 1.187 2.968 0 5.541-.396 7.718-1.187 2.177-.891 4.008-2.375 5.492-4.454 2.87-4.057 4.305-10.885 4.305-20.484v-41.117c0-9.599-1.088-15.932-3.265-19-2.178-3.068-4.355-4.997-6.532-5.789-2.177-.891-4.75-1.336-7.718-1.336-2.87 0-5.394.445-7.571 1.336-2.177.792-3.958 2.177-5.343 4.156-2.969 4.156-4.454 11.034-4.454 20.633v41.117c0 9.599 1.089 15.932 3.266 19Zm46.016-1.039c4.552-1.583 7.174-6.482 7.867-14.695.693-7.719 1.039-16.378 1.039-25.977 0-14.844-.396-24.344-1.188-28.5-1.187-5.541-3.76-9.153-7.718-10.836v80.008Zm-77.336 0c1.979-1.484 2.968-3.216 2.968-5.195 0-2.573-.346-5.047-1.039-7.422-2.671-9.104-4.007-18.456-4.007-28.055 0-9.5 1.336-18.802 4.007-27.906.693-2.375 1.039-4.255 1.039-5.641v-3.562c0-.891-.395-1.633-1.187-2.227-4.057 4.948-7.026 10.589-8.906 16.922-1.782 6.333-3.216 11.925-4.305 16.774-.396 1.484-3.167 3.364-8.312 5.64 5.244 2.573 8.015 4.503 8.312 5.789l2.969 12.469c2.573 10.49 5.393 17.961 8.461 22.414Zm-7.571 52.844c-.89.89-1.336 2.177-1.336 3.859.396 10.688 15.636 18.753 45.719 24.196 3.464.791 5.938 4.552 7.422 11.281.495-2.177 2.425-4.008 5.789-5.492 3.464-1.386 5.789-2.029 6.977-1.93 14.942 1.781 25.036 3.463 30.281 5.047 9.302 2.87 16.081 7.125 20.336 12.765 1.187-1.385 1.781-3.166 1.781-5.343s-1.088-4.404-3.266-6.68c-2.177-2.177-5.739-4.107-10.687-5.789-8.51-3.068-20.039-5.443-34.586-7.125-14.547-1.682-24.789-3.167-30.727-4.453-5.838-1.287-11.231-2.87-16.179-4.75-10.787-4.255-17.961-9.451-21.524-15.586Zm8.016 32.656c-7.026 3.068-10.539 8.807-10.539 17.219 0 6.729 5.096 12.815 15.289 18.258 11.38 6.135 26.076 9.203 44.086 9.203 22.167 0 36.565-3.81 43.195-11.43 1.88-2.078 2.821-4.305 2.821-6.68 0-2.276-1.138-4.304-3.415-6.086-2.177-1.781-5.046-3.216-8.609-4.304-5.245-1.781-13.508-3.315-24.789-4.602-5.443-.594-12.172 3.414-20.187 12.024 0-5.542-.941-9.55-2.821-12.024-1.781-2.474-3.562-3.81-5.344-4.008-11.479-1.484-21.374-4.007-29.687-7.57ZM849.297 650.438c-6.729 6.432-13.211 9.648-19.445 9.648-3.464 0-5.839-1.287-7.125-3.859 2.276-2.276 3.414-4.553 3.414-6.829s-.347-4.007-1.039-5.195l-1.93-3.414 2.375 4.453c-2.375-1.088-4.206-2.919-5.492-5.492-1.287-2.573-1.93-5.69-1.93-9.352 0-3.76 2.078-8.015 6.234-12.765-1.979-2.771-2.968-5.839-2.968-9.203 0-3.365.544-6.136 1.632-8.313a24.713 24.713 0 0 1 4.454-6.086c3.958-3.76 8.164-5.64 12.617-5.64 2.968 0 5.096 1.039 6.383 3.117-2.672 2.87-4.008 7.422-4.008 13.656 0 6.135 1.039 11.38 3.117 15.734 2.177 4.355 5.096 8.066 8.758 11.133 7.718 6.531 17.218 9.797 28.5 9.797 12.567 0 21.276-4.601 26.125-13.805 1.385-2.77 2.078-5.541 2.078-8.312 0-2.87-.643-5.393-1.93-7.57-1.286-2.276-2.969-4.453-5.047-6.532-3.463-3.364-8.758-7.224-15.882-11.578-6.829-4.849-14.894-7.273-24.196-7.273-6.036 0-10.094.495-12.172 1.484 1.287-2.969 1.93-5.937 1.93-8.906 0-2.969-1.979-6.185-5.938-9.648-3.958-3.563-7.52-7.126-10.687-10.688-3.068-3.562-5.542-7.125-7.422-10.688-3.76-6.729-5.641-13.854-5.641-21.374 0-7.521 1.534-14.152 4.602-19.891 3.167-5.839 7.57-10.836 13.211-14.992 11.776-8.808 26.867-13.211 45.273-13.211 8.907 0 14.993.396 18.258 1.187 3.365.792 6.037 1.534 8.016 2.227 2.672.989 5.937 1.484 9.797 1.484 3.859 0 6.531-.841 8.015-2.523 1.584-1.683 2.375-3.216 2.375-4.602 0-1.484-.148-2.622-.445-3.414.594-.198 1.484-.297 2.672-.297 1.187 0 2.523.347 4.008 1.039a13.437 13.437 0 0 1 4.156 2.821c2.375 2.672 3.562 5.541 3.562 8.609 0 2.969-.593 5.245-1.781 6.828 2.771 2.573 4.157 6.235 4.157 10.985 0 4.75-1.98 8.757-5.938 12.023.891 1.781 1.336 3.958 1.336 6.531 0 2.573-1.385 5.047-4.156 7.422s-5.394 3.563-7.868 3.563c-4.255 0-7.124-.545-8.609-1.633 1.287-3.167 1.93-6.581 1.93-10.242 0-3.761-.99-7.323-2.969-10.688-1.979-3.365-4.503-6.086-7.57-8.164-5.74-3.958-12.568-5.938-20.485-5.938-9.994 0-16.724 3.167-20.187 9.5-1.089 1.98-1.633 4.157-1.633 6.532 0 2.276.297 4.403.891 6.383.692 1.88 1.781 3.809 3.265 5.789 2.87 3.859 6.927 7.52 12.172 10.984 6.828 4.453 11.578 6.68 14.25 6.68 5.74 0 10.737-1.386 14.992-4.157-1.187 4.75-1.781 8.066-1.781 9.946 0 2.87 2.276 6.185 6.828 9.945 12.766 8.807 21.474 16.872 26.125 24.195 4.453 7.125 6.68 15.042 6.68 23.75 0 8.709-1.93 16.18-5.789 22.414-3.86 6.136-9.104 11.43-15.734 15.883-13.756 9.203-30.43 13.805-50.024 13.805-13.359 0-25.482-2.425-36.367-7.273Zm-5.195-135.969c-2.87 1.385-4.305 5.245-4.305 11.578 0 6.234 2.029 12.221 6.086 17.961 4.057 5.64 10.489 12.023 19.297 19.148 2.078 1.584 3.117 3.117 3.117 4.602 0 2.276-.198 4.107-.594 5.492 1.188-.297 3.266-.594 6.235-.891 7.223-.692 16.179 2.672 26.867 10.094 17.021 10.49 25.531 21.524 25.531 33.102 0 4.354-.594 7.619-1.781 9.797 3.562-.693 6.284-3.711 8.164-9.055.495-1.583.742-3.216.742-4.899 0-8.015-4.354-16.13-13.063-24.343-8.609-8.313-21.028-16.328-37.257-24.047-26.917-13.656-39.93-29.836-39.039-48.539ZM1072.25 632.328c1.88-1.979 3.36-4.453 4.45-7.422a28.169 28.169 0 0 0 1.64-9.5c0-3.364-.2-6.432-.6-9.203.69-1.484 2.58-2.622 5.64-3.414 3.07-.891 5.1-1.336 6.09-1.336 3.76 0 6.78 1.435 9.05 4.305 2.28 2.771 3.42 6.68 3.42 11.726 0 4.948-1.49 9.847-4.46 14.696-2.87 4.849-6.72 9.153-11.57 12.914-10.79 8.411-23.36 12.617-37.71 12.617-27.31 0-45.42-10.341-54.325-31.023-3.266-7.62-4.898-17.17-4.898-28.649V579.93c0-4.651-5.097-9.55-15.289-14.696 10.192-5.838 15.289-13.705 15.289-23.601v-17.516c0-11.281-4.602-16.922-13.805-16.922-3.365 0-6.136.841-8.313 2.524-1.385-1.88-2.078-3.81-2.078-5.789 0-2.078.347-4.305 1.039-6.68.792-2.474 2.128-4.701 4.008-6.68 4.75-5.146 12.123-6.927 22.117-5.343v-4.75c0-10.391 2.623-19.545 7.867-27.461 4.648-7.125 8.758-10.688 12.318-10.688 3.66 0 6.48 1.237 8.46 3.711 1.69-7.818 3.91-13.458 6.68-16.922 2.77-3.463 6.73-5.195 11.88-5.195v61.898h48.24c.79 1.584 1.19 4.256 1.19 8.016 0 3.661-1.44 6.63-4.31 8.906-2.87 2.177-6.33 3.266-10.39 3.266h-34.73V606.5c0 17.219 3.91 27.312 11.73 30.281 2.27.792 4.7 1.188 7.27 1.188 2.67 0 5.19-.446 7.57-1.336 2.47-.99 4.65-2.425 6.53-4.305Zm-69.02-17.664c4.65-2.969 7.27-9.154 7.86-18.555.4-6.729.6-11.974.6-15.734.1-3.76.15-6.779.15-9.055.09-2.375.14-4.205.14-5.492v-5.937c0-2.87-.05-6.532-.14-10.985 0-4.552-.05-9.45-.15-14.695 0-5.344-.1-10.44-.3-15.289-.3-11.677-.74-18.802-1.34-21.375-1.18-5.74-3.46-9.698-6.82-11.875v46.312c0 13.756-.25 21.029-.75 21.821-.39.791-.74 1.731-1.03 2.82-.9 2.969-4.26 5.443-10.098 7.422 5.937 2.078 9.298 4.601 10.098 7.57 1.18 4.75 1.78 15.883 1.78 33.399v9.648ZM1143.5 637.375c-6.23-6.333-11.18-13.854-14.84-22.563-3.57-8.708-5.74-16.179-6.54-22.414-.79-6.234-1.48-10.242-2.07-12.023-.5-1.781-1.39-3.464-2.67-5.047-2.58-3.266-7.28-6.581-14.11-9.945 8.61-3.86 14.11-10.044 16.48-18.555.69-2.375 1.24-4.75 1.63-7.125 2.58-17.713 11.14-32.508 25.68-44.383 14.55-11.974 31.52-17.961 50.92-17.961 20.18 0 37.55 6.037 52.1 18.11 14.15 11.776 22.51 26.521 25.08 44.234.89 6.235 2.23 10.787 4.01 13.656 3.37 5.245 8.07 9.253 14.1 12.024-6.73 3.265-11.08 6.135-13.06 8.609-2.67 3.464-4.35 7.57-5.05 12.32-3.16 23.355-11.28 41.118-24.34 53.29-13.06 12.072-30.48 18.109-52.25 18.109-23.35 0-41.71-6.779-55.07-20.336Zm80.01-101.977c0-24.739-8.41-37.109-25.24-37.109-16.82 0-25.23 12.37-25.23 37.109v65.758c0 23.75 8.36 35.625 25.08 35.625 16.93 0 25.39-11.875 25.39-35.625v-65.758Zm14.25 79.266c4.95-1.88 7.67-8.362 8.16-19.445.6-11.084.89-19.297.89-24.641 0-5.443-.05-9.945-.15-13.508 0-3.661-.05-7.422-.14-11.281-.4-14.448-1.54-22.859-3.42-25.234s-3.66-3.959-5.34-4.75v98.859Zm-88.92 0c1.39-1.088 2.08-2.325 2.08-3.711 0-2.177-.44-4.948-1.33-8.312-4.06-15.537-6.09-26.323-6.09-32.36 0-6.135.2-10.885.59-14.25.4-3.463.89-6.927 1.49-10.39 1.28-6.73 2.62-12.667 4.01-17.813.89-3.364 1.33-5.64 1.33-6.828 0-2.375-.69-4.107-2.08-5.195-4.15 4.948-7.32 11.578-9.5 19.89-2.17 8.313-3.95 15.636-5.34 21.969-.49 2.672-3.41 5.245-8.76 7.719 5.35 2.474 8.27 4.948 8.76 7.422 3.66 16.724 6.68 27.362 9.05 31.914 2.38 4.552 4.31 7.867 5.79 9.945ZM1341.81 652.219c-4.55 3.166-9.74 4.75-15.58 4.75s-10.1-1.336-12.77-4.008c-2.57-2.771-3.86-5.393-3.86-7.867 0-3.266.55-5.641 1.63-7.125 2.18 1.682 4.95 2.523 8.32 2.523 6.33 0 10.44-3.068 12.32-9.203v-46.164c0-4.354-.94-7.521-2.82-9.5-2.87-3.266-7.97-6.68-15.29-10.242 6.92-3.167 11.33-5.69 13.21-7.571 3.26-3.265 4.9-7.273 4.9-12.023v-21.672c0-8.411-2.87-12.963-8.61-13.656-1.68-.198-3.81-.297-6.38-.297-2.58 0-4.95.841-7.13 2.524-1.39-1.881-2.08-3.81-2.08-5.79 0-2.078.5-4.354 1.49-6.828 1.08-2.573 2.67-4.997 4.75-7.273 5.24-5.344 11.28-8.016 18.11-8.016 6.92 0 12.66 1.089 17.21 3.266 5.45-6.136 10.99-9.203 16.63-9.203 5.64 0 9.55 1.336 11.73 4.008 2.17 2.572 3.26 6.58 3.26 12.023v13.953c5.15-9.203 12.17-16.476 21.08-21.82 8.91-5.443 18.36-8.164 28.35-8.164 10 0 18.01 1.336 24.05 4.008 6.13 2.572 11.18 6.283 15.14 11.132 7.72 9.599 11.58 23.552 11.58 41.86v9.797c0 4.75 1.04 8.164 3.11 10.242 3.07 3.166 8.07 6.333 15 9.5-7.43 3.661-12.08 6.432-13.96 8.312-2.77 3.068-4.15 6.779-4.15 11.133v46.461c1.88 6.135 5.98 9.203 12.32 9.203 3.36 0 6.13-.841 8.31-2.523 1.09 1.484 1.63 3.661 1.63 6.531 0 2.87-1.33 5.69-4.01 8.461-2.57 2.672-6.58 4.008-12.02 4.008-5.44 0-10.39-1.534-14.84-4.602-3.96 3.068-8.61 4.602-13.96 4.602-5.24 0-9.94-1.485-14.1-4.453-4.35 2.968-9 4.453-13.95 4.453-4.95 0-8.86-1.237-11.73-3.711-2.87-2.474-4.3-6.037-4.3-10.688 0-2.177.74-3.909 2.22-5.195 2.28 1.781 4.56 2.672 6.83 2.672 4.36 0 7.47-2.425 9.35-7.274v-88.468c0-19.198-4.7-30.331-14.1-33.399-3.06-.989-6.38-1.484-9.94-1.484-3.56 0-6.88.742-9.95 2.226-3.07 1.386-5.84 3.365-8.31 5.938-5.44 5.74-8.66 12.568-9.65 20.484v94.703c1.88 4.849 5 7.274 9.35 7.274 2.28 0 4.56-.891 6.83-2.672 1.49 1.286 2.23 3.661 2.23 7.125 0 3.365-1.44 6.284-4.31 8.758-2.87 2.474-6.68 3.711-11.43 3.711-4.65 0-8.9-1.485-12.76-4.453-3.76 2.968-8.36 4.453-13.81 4.453-5.44 0-10.49-1.584-15.14-4.75Zm105.24-37.555c4.95-1.88 7.67-8.362 8.17-19.445.59-11.084.89-21.524.89-31.321 0-9.796-.4-17.862-1.19-24.195-.79-6.432-1.93-11.43-3.41-14.992-1.49-3.662-3.27-6.284-5.35-7.867a32.31 32.31 0 0 0-6.53-4.305c3.76 8.906 5.94 17.021 6.53 24.344.6 7.323.89 14.398.89 21.226v56.555Zm-92.47-32.805c.1-3.265.15-5.987.15-8.164.1-2.276.15-4.106.15-5.492v-4.156c0-1.485-.05-3.414-.15-5.789 0-2.375-.05-4.998-.15-7.867 0-2.87-.1-5.69-.3-8.461-.3-6.828-.74-11.529-1.33-14.102-1.19-5.739-3.47-9.698-6.83-11.875v9.649c0 16.625-.4 26.421-1.19 29.39-.69 2.87-1.88 5.047-3.56 6.531-1.59 1.485-3.96 2.771-7.13 3.86 5.94 2.078 9.3 4.552 10.1 7.422 1.18 4.75 1.78 15.437 1.78 32.062v9.649c4.55-2.969 7.17-9.006 7.86-18.11.4-6.432.6-11.281.6-14.547ZM1649.52 609.172c2.18-4.156 6.19-6.234 12.03-6.234 3.96 0 7.02 1.632 9.2 4.898 1.78 2.573 2.67 5.74 2.67 9.5 0 3.661-.94 7.372-2.82 11.133-1.88 3.76-4.45 7.174-7.72 10.242-3.26 3.068-7.02 5.789-11.28 8.164-4.15 2.375-8.61 4.354-13.36 5.937-9.79 3.266-19.99 4.899-30.58 4.899-10.58 0-20.53-1.732-29.83-5.195-9.21-3.563-17.12-8.511-23.75-14.844-12.97-12.469-20.88-29.589-23.75-51.36-.69-4.848-1.83-8.312-3.42-10.39-2.96-3.662-7.86-7.175-14.69-10.539 8.61-3.86 14.1-10.044 16.48-18.555.69-2.375 1.23-4.75 1.63-7.125 2.47-17.417 11.28-32.26 26.42-44.531 14.65-11.875 31.02-17.813 49.13-17.813 18.8 0 35.08 6.631 48.84 19.891 14.25 13.656 21.37 30.43 21.37 50.32 0 .693-.05 1.386-.14 2.078 0 .693.04 1.336.14 1.93.2 1.287.99 2.029 2.38 2.227 1.78 2.276 2.67 4.7 2.67 7.273 0 5.938-3.17 9.451-9.5 10.539-1.58.297-4.06.693-7.42 1.188l-83.72 13.359v14.25c0 11.479 3.46 20.583 10.39 27.313 6.53 6.432 14.79 9.648 24.79 9.648 10.59 0 19.1-2.177 25.53-6.531 6.04-4.156 9.06-9.599 9.06-16.328 0-1.584-.25-3.365-.75-5.344Zm-25.97-47.945v-41.563c0-6.531-1.29-11.331-3.86-14.398-4.55-5.245-9.06-7.868-13.51-7.868-4.45 0-8.16.693-11.13 2.079-2.97 1.286-5.54 3.364-7.72 6.234-4.55 6.036-6.83 15.437-6.83 28.203v34.289l43.05-6.976Zm21.97-3.711v-4.602c0-18.406-1.54-29.539-4.61-33.398-1.38-1.683-2.92-2.92-4.6-3.711V559l9.21-1.484Zm-89.22 57.148c1.39-1.088 2.08-2.325 2.08-3.711 0-2.177-.44-4.948-1.33-8.312-4.06-15.537-6.09-26.323-6.09-32.36 0-6.135.2-10.885.59-14.25.4-3.463.94-6.927 1.64-10.39 1.19-6.73 2.47-12.667 3.86-17.813.89-3.364 1.33-5.64 1.33-6.828 0-2.375-.69-4.107-2.08-5.195-4.15 4.948-7.32 11.578-9.5 19.89-2.17 8.313-3.95 15.636-5.34 21.969-.49 2.672-3.41 5.245-8.76 7.719 5.35 2.474 8.27 4.948 8.76 7.422 3.66 16.724 6.68 27.362 9.06 31.914 2.37 4.552 4.3 7.867 5.78 9.945Z"/><circle cx="73" cy="76" r="24" fill="#D2E3FC"/><path fill="#1A73E8" d="M70.983 83.464V65.176h-.648l-2.376 8.64h-4.537v-.432L66.448 62.8h9.287v20.664H82V88H63.855v-4.536h7.128ZM127.9 88h-3.024v-8.424c0-.624-.144-1.104-.432-1.44-.288-.336-.792-.504-1.512-.504h-7.848V88h-3.024V62.8h9c1.296 0 2.424.192 3.384.576.96.36 1.752.852 2.376 1.476a5.83 5.83 0 0 1 1.44 2.196 6.74 6.74 0 0 1 .504 2.592v1.08c0 .936-.264 1.872-.792 2.808-.504.936-1.296 1.656-2.376 2.16v.432c.72.12 1.284.408 1.692.864.408.456.612 1.104.612 1.944V88Zm-12.816-13.176h5.616c1.704 0 2.964-.36 3.78-1.08.84-.744 1.26-1.824 1.26-3.24v-.648c0-1.272-.42-2.292-1.26-3.06-.816-.792-2.076-1.188-3.78-1.188h-5.616v9.216Zm32.375 6.912h-10.8L134.823 88h-3.24l7.632-25.2h5.688l7.632 25.2h-3.24l-1.836-6.264Zm-5.616-17.64-4.356 14.832h9.144l-4.356-14.832h-.432Zm13.403-1.296h17.712v2.808h-7.344V88h-3.024V65.608h-7.344V62.8Zm22.907 0h15.984v2.808h-6.48v19.584h6.48V88h-15.984v-2.808h6.48V65.608h-6.48V62.8Zm21.179 9.792c0-3.264.78-5.796 2.34-7.596 1.56-1.8 3.732-2.7 6.516-2.7s4.956.9 6.516 2.7c1.56 1.8 2.34 4.332 2.34 7.596v5.616c0 3.36-.78 5.916-2.34 7.668-1.56 1.752-3.732 2.628-6.516 2.628s-4.956-.876-6.516-2.628c-1.56-1.752-2.34-4.308-2.34-7.668v-5.616Zm8.856 13.104c1.944 0 3.396-.66 4.356-1.98.984-1.344 1.476-3.252 1.476-5.724v-5.184c0-2.304-.492-4.164-1.476-5.58-.96-1.416-2.412-2.124-4.356-2.124s-3.408.708-4.392 2.124c-.96 1.416-1.44 3.276-1.44 5.58v5.184c0 2.472.48 4.38 1.44 5.724.984 1.32 2.448 1.98 4.392 1.98Zm26.975 1.008h.432V62.8h3.024V88h-6.048l-7.272-23.904h-.432V88h-3.024V62.8h6.048l7.272 23.904Zm22.511-4.968h-10.8L245.038 88h-3.24l7.632-25.2h5.688L262.75 88h-3.24l-1.836-6.264Zm-5.616-17.64-4.356 14.832h9.144l-4.356-14.832h-.432Zm14.375-1.296h3.024v22.392h13.176V88h-16.2V62.8Z"/><circle cx="344" cy="76" r="24" fill="#D2E3FC"/><path fill="#1A73E8" d="M352.531 83.464V88h-17.712v-4.968c0-1.32.192-2.448.576-3.384a6.811 6.811 0 0 1 1.692-2.376c.744-.648 1.632-1.176 2.664-1.584 1.032-.432 2.196-.792 3.492-1.08.96-.216 1.74-.456 2.34-.72.624-.288 1.116-.6 1.476-.936.36-.36.6-.744.72-1.152.144-.432.216-.912.216-1.44 0-1.008-.372-1.848-1.116-2.52-.72-.672-1.728-1.008-3.024-1.008-1.368 0-2.46.42-3.276 1.26-.816.816-1.224 1.956-1.224 3.42v1.584h-4.752V71.08c0-1.176.204-2.292.612-3.348a8.541 8.541 0 0 1 1.8-2.808c.792-.816 1.752-1.452 2.88-1.908 1.128-.48 2.4-.72 3.816-.72 1.512 0 2.832.228 3.96.684 1.128.432 2.064 1.008 2.808 1.728a6.588 6.588 0 0 1 1.692 2.52c.384.936.576 1.908.576 2.916v.432c0 2.112-.6 3.864-1.8 5.256-1.176 1.392-3.108 2.4-5.796 3.024-1.128.264-2.064.54-2.808.828-.72.264-1.284.564-1.692.9-.408.336-.696.708-.864 1.116-.144.384-.216.828-.216 1.332v.432h12.96ZM391.16 85.696c1.032 0 1.908-.168 2.628-.504.744-.36 1.344-.828 1.8-1.404a5.77 5.77 0 0 0 1.044-2.016 8.04 8.04 0 0 0 .36-2.412v-.432h3.024v.432c0 1.272-.192 2.472-.576 3.6a8.618 8.618 0 0 1-1.692 2.916c-.744.816-1.668 1.464-2.772 1.944-1.104.456-2.376.684-3.816.684-2.784 0-4.956-.876-6.516-2.628-1.56-1.752-2.34-4.308-2.34-7.668v-5.616c0-3.264.78-5.796 2.34-7.596 1.56-1.8 3.732-2.7 6.516-2.7 1.44 0 2.712.24 3.816.72 1.104.456 2.028 1.104 2.772 1.944.744.816 1.308 1.788 1.692 2.916.384 1.104.576 2.292.576 3.564v.432h-3.024v-.432a8.795 8.795 0 0 0-.396-2.376 5.383 5.383 0 0 0-1.044-2.016 4.636 4.636 0 0 0-1.764-1.404c-.72-.36-1.596-.54-2.628-.54-1.944 0-3.408.708-4.392 2.124-.96 1.416-1.44 3.276-1.44 5.58v5.184c0 2.472.48 4.38 1.44 5.724.984 1.32 2.448 1.98 4.392 1.98Zm13.043-13.104c0-3.264.78-5.796 2.34-7.596 1.56-1.8 3.732-2.7 6.516-2.7s4.956.9 6.516 2.7c1.56 1.8 2.34 4.332 2.34 7.596v5.616c0 3.36-.78 5.916-2.34 7.668-1.56 1.752-3.732 2.628-6.516 2.628s-4.956-.876-6.516-2.628c-1.56-1.752-2.34-4.308-2.34-7.668v-5.616Zm8.856 13.104c1.944 0 3.396-.66 4.356-1.98.984-1.344 1.476-3.252 1.476-5.724v-5.184c0-2.304-.492-4.164-1.476-5.58-.96-1.416-2.412-2.124-4.356-2.124s-3.408.708-4.392 2.124c-.96 1.416-1.44 3.276-1.44 5.58v5.184c0 2.472.48 4.38 1.44 5.724.984 1.32 2.448 1.98 4.392 1.98Zm26.975 1.008h.432V62.8h3.024V88h-6.048l-7.272-23.904h-.432V88h-3.024V62.8h6.048l7.272 23.904Zm8.255-23.904h17.712v2.808h-7.344V88h-3.024V65.608h-7.344V62.8ZM487.072 88h-3.024v-8.424c0-.624-.144-1.104-.432-1.44-.288-.336-.792-.504-1.512-.504h-7.848V88h-3.024V62.8h9c1.296 0 2.424.192 3.384.576.96.36 1.752.852 2.376 1.476a5.83 5.83 0 0 1 1.44 2.196 6.74 6.74 0 0 1 .504 2.592v1.08c0 .936-.264 1.872-.792 2.808-.504.936-1.296 1.656-2.376 2.16v.432c.72.12 1.284.408 1.692.864.408.456.612 1.104.612 1.944V88Zm-12.816-13.176h5.616c1.704 0 2.964-.36 3.78-1.08.84-.744 1.26-1.824 1.26-3.24v-.648c0-1.272-.42-2.292-1.26-3.06-.816-.792-2.076-1.188-3.78-1.188h-5.616v9.216Zm32.375 6.912h-10.8L493.995 88h-3.24l7.632-25.2h5.688l7.632 25.2h-3.24l-1.836-6.264Zm-5.616-17.64-4.356 14.832h9.144l-4.356-14.832h-.432Zm28.199 5.976c0-.816-.168-1.536-.504-2.16a4.27 4.27 0 0 0-1.296-1.548 6.154 6.154 0 0 0-1.908-.936 7.85 7.85 0 0 0-2.268-.324c-.696 0-1.356.096-1.98.288a5.694 5.694 0 0 0-1.692.756c-.48.336-.864.756-1.152 1.26-.288.48-.432 1.044-.432 1.692v.216c0 .696.144 1.296.432 1.8.288.48.708.9 1.26 1.26.576.336 1.284.624 2.124.864.84.216 1.824.408 2.952.576 2.64.408 4.584 1.188 5.832 2.34 1.248 1.128 1.872 2.652 1.872 4.572v.432c0 1.08-.192 2.076-.576 2.988a6.023 6.023 0 0 1-1.656 2.304c-.72.648-1.62 1.152-2.7 1.512-1.08.36-2.328.54-3.744.54-1.608 0-3.036-.228-4.284-.684-1.224-.48-2.256-1.128-3.096-1.944a8.68 8.68 0 0 1-1.872-2.916c-.432-1.128-.648-2.352-.648-3.672v-1.08h3.024v.864c0 2.208.6 3.864 1.8 4.968 1.224 1.104 2.916 1.656 5.076 1.656 1.872 0 3.276-.408 4.212-1.224.96-.84 1.44-1.944 1.44-3.312v-.216c0-1.32-.492-2.328-1.476-3.024-.96-.696-2.532-1.2-4.716-1.512-1.272-.168-2.424-.42-3.456-.756-1.008-.36-1.872-.816-2.592-1.368a5.91 5.91 0 0 1-1.656-2.052c-.384-.792-.576-1.728-.576-2.808v-.432c0-.984.204-1.884.612-2.7a6.563 6.563 0 0 1 1.692-2.124c.744-.6 1.62-1.056 2.628-1.368 1.032-.336 2.16-.504 3.384-.504 1.416 0 2.676.204 3.78.612 1.128.408 2.076.96 2.844 1.656a6.386 6.386 0 0 1 1.728 2.412c.408.912.612 1.872.612 2.88v1.512h-3.024v-1.296Zm7.247-7.272h17.712v2.808h-7.344V88h-3.024V65.608h-7.344V62.8Zm22.907 0h15.984v2.808h-6.48v19.584h6.48V88h-15.984v-2.808h6.48V65.608h-6.48V62.8Zm34.967 23.904h.432V62.8h3.024V88h-6.048l-7.272-23.904h-.432V88h-3.024V62.8h6.048l7.272 23.904Zm14.699-10.8h11.232V88h-2.808v-3.024h-.432c-.408 1.056-1.128 1.908-2.16 2.556-1.032.648-2.232.972-3.6.972-2.712 0-4.848-.876-6.408-2.628-1.536-1.752-2.304-4.308-2.304-7.668v-5.616c0-3.264.78-5.796 2.34-7.596 1.56-1.8 3.732-2.7 6.516-2.7 1.44 0 2.712.24 3.816.72 1.104.456 2.028 1.104 2.772 1.944.744.816 1.308 1.788 1.692 2.916.384 1.104.576 2.292.576 3.564v.432h-3.024v-.432a7.92 7.92 0 0 0-.36-2.376 5.383 5.383 0 0 0-1.044-2.016c-.456-.6-1.056-1.068-1.8-1.404-.72-.36-1.596-.54-2.628-.54-1.944 0-3.408.708-4.392 2.124-.96 1.416-1.44 3.276-1.44 5.58v5.184c0 2.472.48 4.38 1.44 5.724.984 1.32 2.472 1.98 4.464 1.98 1.8 0 3.204-.576 4.212-1.728 1.032-1.152 1.548-2.76 1.548-4.824v-.432h-8.208v-2.808Zm52.438-5.832c0-.816-.168-1.536-.504-2.16a4.27 4.27 0 0 0-1.296-1.548 6.154 6.154 0 0 0-1.908-.936 7.85 7.85 0 0 0-2.268-.324c-.696 0-1.356.096-1.98.288a5.694 5.694 0 0 0-1.692.756c-.48.336-.864.756-1.152 1.26-.288.48-.432 1.044-.432 1.692v.216c0 .696.144 1.296.432 1.8.288.48.708.9 1.26 1.26.576.336 1.284.624 2.124.864.84.216 1.824.408 2.952.576 2.64.408 4.584 1.188 5.832 2.34 1.248 1.128 1.872 2.652 1.872 4.572v.432c0 1.08-.192 2.076-.576 2.988a6.023 6.023 0 0 1-1.656 2.304c-.72.648-1.62 1.152-2.7 1.512-1.08.36-2.328.54-3.744.54-1.608 0-3.036-.228-4.284-.684-1.224-.48-2.256-1.128-3.096-1.944a8.68 8.68 0 0 1-1.872-2.916c-.432-1.128-.648-2.352-.648-3.672v-1.08h3.024v.864c0 2.208.6 3.864 1.8 4.968 1.224 1.104 2.916 1.656 5.076 1.656 1.872 0 3.276-.408 4.212-1.224.96-.84 1.44-1.944 1.44-3.312v-.216c0-1.32-.492-2.328-1.476-3.024-.96-.696-2.532-1.2-4.716-1.512-1.272-.168-2.424-.42-3.456-.756-1.008-.36-1.872-.816-2.592-1.368a5.91 5.91 0 0 1-1.656-2.052c-.384-.792-.576-1.728-.576-2.808v-.432c0-.984.204-1.884.612-2.7a6.563 6.563 0 0 1 1.692-2.124c.744-.6 1.62-1.056 2.628-1.368 1.032-.336 2.16-.504 3.384-.504 1.416 0 2.676.204 3.78.612 1.128.408 2.076.96 2.844 1.656a6.386 6.386 0 0 1 1.728 2.412c.408.912.612 1.872.612 2.88v1.512h-3.024v-1.296Zm8.471-7.272h15.264v2.808h-12.24v8.352h12.024v2.808h-12.024v8.424h12.456V88h-15.48V62.8ZM707.502 88h-3.024v-8.424c0-.624-.144-1.104-.432-1.44-.288-.336-.792-.504-1.512-.504h-7.848V88h-3.024V62.8h9c1.296 0 2.424.192 3.384.576.96.36 1.752.852 2.376 1.476a5.83 5.83 0 0 1 1.44 2.196 6.74 6.74 0 0 1 .504 2.592v1.08c0 .936-.264 1.872-.792 2.808-.504.936-1.296 1.656-2.376 2.16v.432c.72.12 1.284.408 1.692.864.408.456.612 1.104.612 1.944V88Zm-12.816-13.176h5.616c1.704 0 2.964-.36 3.78-1.08.84-.744 1.26-1.824 1.26-3.24v-.648c0-1.272-.42-2.292-1.26-3.06-.816-.792-2.076-1.188-3.78-1.188h-5.616v9.216ZM713.669 62.8h15.984v2.808h-6.48v19.584h6.48V88h-15.984v-2.808h6.48V65.608h-6.48V62.8Zm22.439 0h15.48v2.808h-12.456v8.352h12.24v2.808h-12.24V88h-3.024V62.8Z"/><circle cx="813" cy="76" r="24" fill="#D2E3FC"/><path fill="#1A73E8" d="M810.047 77.2v-7.488l6.264-1.728v-.648h-12.528V62.8h16.416v7.92l-6.696 1.944v.648h.864a8.26 8.26 0 0 1 2.628.432c.864.264 1.62.684 2.268 1.26a6.398 6.398 0 0 1 1.62 2.16c.408.84.612 1.836.612 2.988v.432c0 1.128-.192 2.172-.576 3.132a6.78 6.78 0 0 1-1.656 2.52c-.72.696-1.62 1.248-2.7 1.656-1.08.408-2.316.612-3.708.612-1.416 0-2.7-.228-3.852-.684-1.152-.456-2.136-1.08-2.952-1.872a8.445 8.445 0 0 1-2.484-6.012v-1.512h4.752v1.296c0 1.152.372 2.148 1.116 2.988.744.84 1.86 1.26 3.348 1.26 1.272 0 2.244-.324 2.916-.972.696-.648 1.044-1.5 1.044-2.556 0-1.128-.372-1.944-1.116-2.448-.72-.528-1.644-.792-2.772-.792h-2.808ZM852.024 62.8h15.984v2.808h-6.48v19.584h6.48V88h-15.984v-2.808h6.48V65.608h-6.48V62.8Zm34.967 23.904h.432V62.8h3.024V88h-6.048l-7.272-23.904h-.432V88h-3.024V62.8h6.048l7.272 23.904Zm9.227-23.904h3.024v22.392h13.176V88h-16.2V62.8Zm21.935 0h15.984v2.808h-6.48v19.584h6.48V88h-15.984v-2.808h6.48V65.608h-6.48V62.8Zm34.967 23.904h.432V62.8h3.024V88h-6.048l-7.272-23.904h-.432V88H939.8V62.8h6.048l7.272 23.904Zm9.479-23.904h15.264v2.808h-12.24v8.352h12.024v2.808h-12.024v8.424h12.456V88h-15.48V62.8Zm27.155 23.184c0-.696.24-1.284.72-1.764.504-.504 1.104-.756 1.8-.756s1.284.252 1.764.756c.504.48.756 1.068.756 1.764v3.528c0 .816-.264 1.488-.792 2.016-.504.528-1.164.792-1.98.792h-1.836v-1.944h1.692c.648 0 .972-.36.972-1.08v-.9a1.729 1.729 0 0 1-.612.108c-.672 0-1.26-.24-1.764-.72a2.52 2.52 0 0 1-.72-1.8ZM1027.5 62.8h17.72v2.808h-7.35V88h-3.02V65.608h-7.35V62.8Zm38.79 25.2h-3.03v-8.424c0-.624-.14-1.104-.43-1.44-.29-.336-.79-.504-1.51-.504h-7.85V88h-3.02V62.8h9c1.29 0 2.42.192 3.38.576.96.36 1.75.852 2.38 1.476a6.027 6.027 0 0 1 1.44 2.196c.33.816.5 1.68.5 2.592v1.08c0 .936-.26 1.872-.79 2.808-.51.936-1.3 1.656-2.38 2.16v.432c.72.12 1.29.408 1.69.864.41.456.62 1.104.62 1.944V88Zm-12.82-13.176h5.62c1.7 0 2.96-.36 3.78-1.08.84-.744 1.26-1.824 1.26-3.24v-.648c0-1.272-.42-2.292-1.26-3.06-.82-.792-2.08-1.188-3.78-1.188h-5.62v9.216Zm18.98-12.024h15.99v2.808h-6.48v19.584h6.48V88h-15.99v-2.808h6.48V65.608h-6.48V62.8Zm22.44 0h15.48v2.808h-12.45v8.352h12.24v2.808h-12.24V88h-3.03V62.8Zm24.03 0v16.704c0 2.04.46 3.588 1.4 4.644.96 1.032 2.36 1.548 4.21 1.548s3.24-.516 4.18-1.548c.96-1.056 1.44-2.604 1.44-4.644V62.8h3.02v16.704c0 2.928-.77 5.16-2.3 6.696-1.54 1.536-3.65 2.304-6.34 2.304s-4.8-.768-6.33-2.304c-1.54-1.536-2.31-3.768-2.31-6.696V62.8h3.03Zm35.54 25.2h-3.03v-8.424c0-.624-.14-1.104-.43-1.44-.29-.336-.79-.504-1.51-.504h-7.85V88h-3.02V62.8h9c1.29 0 2.42.192 3.38.576.96.36 1.75.852 2.38 1.476a5.783 5.783 0 0 1 1.44 2.196c.33.816.5 1.68.5 2.592v1.08c0 .936-.26 1.872-.79 2.808-.5.936-1.3 1.656-2.38 2.16v.432c.72.12 1.29.408 1.7.864.4.456.61 1.104.61 1.944V88Zm-12.82-13.176h5.62c1.7 0 2.96-.36 3.78-1.08.84-.744 1.26-1.824 1.26-3.24v-.648c0-1.272-.42-2.292-1.26-3.06-.82-.792-2.08-1.188-3.78-1.188h-5.62v9.216Zm27.12 10.872c1.03 0 1.91-.168 2.63-.504.74-.36 1.34-.828 1.8-1.404.48-.6.83-1.272 1.04-2.016a8.04 8.04 0 0 0 .36-2.412v-.432h3.03v.432c0 1.272-.19 2.472-.58 3.6a8.613 8.613 0 0 1-1.69 2.916c-.74.816-1.67 1.464-2.77 1.944-1.11.456-2.38.684-3.82.684-2.78 0-4.95-.876-6.51-2.628-1.56-1.752-2.34-4.308-2.34-7.668v-5.616c0-3.264.78-5.796 2.34-7.596 1.56-1.8 3.73-2.7 6.51-2.7 1.44 0 2.71.24 3.82.72 1.1.456 2.03 1.104 2.77 1.944a8.177 8.177 0 0 1 1.69 2.916c.39 1.104.58 2.292.58 3.564v.432h-3.03v-.432a8.636 8.636 0 0 0-.39-2.376 5.452 5.452 0 0 0-1.05-2.016 4.578 4.578 0 0 0-1.76-1.404c-.72-.36-1.6-.54-2.63-.54-1.94 0-3.41.708-4.39 2.124-.96 1.416-1.44 3.276-1.44 5.58v5.184c0 2.472.48 4.38 1.44 5.724.98 1.32 2.45 1.98 4.39 1.98Zm27.3-3.96h-10.8L1183.42 88h-3.24l7.64-25.2h5.68l7.64 25.2h-3.24l-1.84-6.264Zm-5.62-17.64-4.35 14.832h9.14l-4.35-14.832h-.44Zm13.41-1.296h17.71v2.808h-7.34V88h-3.03V65.608h-7.34V62.8Zm23.26 0h15.27v2.808h-12.24v8.352h12.02v2.808h-12.02v8.424h12.45V88h-15.48V62.8Zm21.29 0h8.28c3.12 0 5.4.744 6.84 2.232 1.44 1.488 2.16 3.864 2.16 7.128v6.48c0 3.264-.72 5.64-2.16 7.128-1.44 1.488-3.72 2.232-6.84 2.232h-8.28v-2.844h2.16V65.608h-2.16V62.8Zm7.85 22.392c1.1 0 2.05-.108 2.84-.324.82-.216 1.49-.576 2.02-1.08.53-.528.91-1.224 1.15-2.088.27-.864.4-1.956.4-3.276v-6.048c0-1.32-.13-2.412-.4-3.276-.24-.864-.62-1.548-1.15-2.052-.53-.528-1.2-.9-2.02-1.116-.79-.216-1.74-.324-2.84-.324h-2.66v19.584h2.66Zm50.57-15.12c0-.816-.17-1.536-.51-2.16a4.255 4.255 0 0 0-1.29-1.548 6.254 6.254 0 0 0-1.91-.936 7.875 7.875 0 0 0-2.27-.324c-.7 0-1.36.096-1.98.288-.62.168-1.19.42-1.69.756-.48.336-.87.756-1.15 1.26-.29.48-.44 1.044-.44 1.692v.216c0 .696.15 1.296.44 1.8.28.48.7.9 1.26 1.26.57.336 1.28.624 2.12.864.84.216 1.82.408 2.95.576 2.64.408 4.59 1.188 5.83 2.34 1.25 1.128 1.88 2.652 1.88 4.572v.432c0 1.08-.2 2.076-.58 2.988a5.97 5.97 0 0 1-1.66 2.304c-.72.648-1.62 1.152-2.7 1.512-1.08.36-2.32.54-3.74.54-1.61 0-3.04-.228-4.28-.684-1.23-.48-2.26-1.128-3.1-1.944a8.584 8.584 0 0 1-1.87-2.916c-.43-1.128-.65-2.352-.65-3.672v-1.08h3.02v.864c0 2.208.6 3.864 1.8 4.968 1.23 1.104 2.92 1.656 5.08 1.656 1.87 0 3.28-.408 4.21-1.224.96-.84 1.44-1.944 1.44-3.312v-.216c0-1.32-.49-2.328-1.47-3.024-.96-.696-2.54-1.2-4.72-1.512-1.27-.168-2.42-.42-3.46-.756-1-.36-1.87-.816-2.59-1.368a5.847 5.847 0 0 1-1.65-2.052c-.39-.792-.58-1.728-.58-2.808v-.432c0-.984.2-1.884.61-2.7.41-.816.97-1.524 1.69-2.124.75-.6 1.62-1.056 2.63-1.368 1.03-.336 2.16-.504 3.39-.504 1.41 0 2.67.204 3.78.612 1.12.408 2.07.96 2.84 1.656a6.435 6.435 0 0 1 1.73 2.412c.41.912.61 1.872.61 2.88v1.512h-3.02v-1.296Zm8.47-7.272h15.26v2.808h-12.24v8.352h12.02v2.808h-12.02v8.424h12.46V88h-15.48V62.8Zm37.56 25.2h-3.03v-8.424c0-.624-.14-1.104-.43-1.44-.29-.336-.79-.504-1.51-.504h-7.85V88h-3.02V62.8h9c1.29 0 2.42.192 3.38.576.96.36 1.75.852 2.38 1.476a6.027 6.027 0 0 1 1.44 2.196c.33.816.5 1.68.5 2.592v1.08c0 .936-.26 1.872-.79 2.808-.51.936-1.3 1.656-2.38 2.16v.432c.72.12 1.29.408 1.69.864.41.456.62 1.104.62 1.944V88Zm-12.82-13.176h5.62c1.7 0 2.96-.36 3.78-1.08.84-.744 1.26-1.824 1.26-3.24v-.648c0-1.272-.42-2.292-1.26-3.06-.82-.792-2.08-1.188-3.78-1.188h-5.62v9.216Zm18.98-12.024H1375v2.808h-6.48v19.584h6.48V88h-15.99v-2.808h6.48V65.608h-6.48V62.8Zm22.44 0h15.48v2.808h-12.45v8.352h12.24v2.808h-12.24V88h-3.03V62.8Zm35.58 7.272c0-.816-.17-1.536-.5-2.16a4.382 4.382 0 0 0-1.3-1.548 6.143 6.143 0 0 0-1.91-.936 7.825 7.825 0 0 0-2.27-.324c-.69 0-1.35.096-1.98.288-.62.168-1.18.42-1.69.756-.48.336-.86.756-1.15 1.26-.29.48-.43 1.044-.43 1.692v.216c0 .696.14 1.296.43 1.8.29.48.71.9 1.26 1.26.58.336 1.28.624 2.12.864.84.216 1.83.408 2.96.576 2.64.408 4.58 1.188 5.83 2.34 1.25 1.128 1.87 2.652 1.87 4.572v.432c0 1.08-.19 2.076-.58 2.988a6.05 6.05 0 0 1-1.65 2.304c-.72.648-1.62 1.152-2.7 1.512-1.08.36-2.33.54-3.75.54-1.6 0-3.03-.228-4.28-.684-1.22-.48-2.26-1.128-3.1-1.944a8.737 8.737 0 0 1-1.87-2.916c-.43-1.128-.65-2.352-.65-3.672v-1.08h3.03v.864c0 2.208.6 3.864 1.8 4.968 1.22 1.104 2.91 1.656 5.07 1.656 1.88 0 3.28-.408 4.22-1.224.96-.84 1.44-1.944 1.44-3.312v-.216c0-1.32-.5-2.328-1.48-3.024-.96-.696-2.53-1.2-4.72-1.512-1.27-.168-2.42-.42-3.45-.756-1.01-.36-1.87-.816-2.59-1.368a5.877 5.877 0 0 1-1.66-2.052c-.38-.792-.58-1.728-.58-2.808v-.432c0-.984.21-1.884.62-2.7.4-.816.97-1.524 1.69-2.124.74-.6 1.62-1.056 2.63-1.368 1.03-.336 2.16-.504 3.38-.504 1.42 0 2.68.204 3.78.612 1.13.408 2.08.96 2.84 1.656a6.327 6.327 0 0 1 1.73 2.412c.41.912.61 1.872.61 2.88v1.512h-3.02v-1.296Zm13.58 15.912c0-.696.24-1.284.72-1.764.51-.504 1.11-.756 1.8-.756.7 0 1.29.252 1.77.756.5.48.75 1.068.75 1.764v3.528c0 .816-.26 1.488-.79 2.016-.5.528-1.16.792-1.98.792h-1.83v-1.944h1.69c.65 0 .97-.36.97-1.08v-.9c-.19.072-.4.108-.61.108-.67 0-1.26-.24-1.77-.72a2.52 2.52 0 0 1-.72-1.8Zm37.75-23.184h17.72v2.808h-7.35V88h-3.02V65.608h-7.35V62.8Zm22.51 0h3.03v11.16h10.73V62.8h3.02V88h-3.02V76.768h-10.73V88h-3.03V62.8Zm21.58 9.792c0-3.264.78-5.796 2.34-7.596 1.56-1.8 3.73-2.7 6.52-2.7 2.78 0 4.95.9 6.51 2.7 1.56 1.8 2.34 4.332 2.34 7.596v5.616c0 3.36-.78 5.916-2.34 7.668-1.56 1.752-3.73 2.628-6.51 2.628-2.79 0-4.96-.876-6.52-2.628-1.56-1.752-2.34-4.308-2.34-7.668v-5.616Zm8.86 13.104c1.94 0 3.39-.66 4.35-1.98.99-1.344 1.48-3.252 1.48-5.724v-5.184c0-2.304-.49-4.164-1.48-5.58-.96-1.416-2.41-2.124-4.35-2.124-1.95 0-3.41.708-4.4 2.124-.96 1.416-1.44 3.276-1.44 5.58v5.184c0 2.472.48 4.38 1.44 5.724.99 1.32 2.45 1.98 4.4 1.98ZM1551.23 88h-3.02v-8.424c0-.624-.15-1.104-.43-1.44-.29-.336-.8-.504-1.52-.504h-7.84V88h-3.03V62.8h9c1.3 0 2.43.192 3.39.576.96.36 1.75.852 2.37 1.476a5.783 5.783 0 0 1 1.44 2.196c.34.816.51 1.68.51 2.592v1.08c0 .936-.27 1.872-.8 2.808-.5.936-1.29 1.656-2.37 2.16v.432c.72.12 1.28.408 1.69.864.41.456.61 1.104.61 1.944V88Zm-12.81-13.176h5.61c1.71 0 2.97-.36 3.78-1.08.84-.744 1.26-1.824 1.26-3.24v-.648c0-1.272-.42-2.292-1.26-3.06-.81-.792-2.07-1.188-3.78-1.188h-5.61v9.216Zm31.9 11.88h.44V62.8h3.02V88h-6.05l-7.27-23.904h-.43V88H1557V62.8h6.05l7.27 23.904Zm23.05-16.632c0-.816-.16-1.536-.5-2.16a4.185 4.185 0 0 0-1.3-1.548 6.088 6.088 0 0 0-1.9-.936 7.875 7.875 0 0 0-2.27-.324c-.7 0-1.36.096-1.98.288-.63.168-1.19.42-1.69.756-.48.336-.87.756-1.16 1.26-.28.48-.43 1.044-.43 1.692v.216c0 .696.15 1.296.43 1.8.29.48.71.9 1.26 1.26.58.336 1.29.624 2.13.864.84.216 1.82.408 2.95.576 2.64.408 4.58 1.188 5.83 2.34 1.25 1.128 1.87 2.652 1.87 4.572v.432c0 1.08-.19 2.076-.57 2.988a5.97 5.97 0 0 1-1.66 2.304c-.72.648-1.62 1.152-2.7 1.512-1.08.36-2.33.54-3.74.54-1.61 0-3.04-.228-4.29-.684-1.22-.48-2.25-1.128-3.09-1.944a8.584 8.584 0 0 1-1.87-2.916c-.44-1.128-.65-2.352-.65-3.672v-1.08h3.02v.864c0 2.208.6 3.864 1.8 4.968 1.23 1.104 2.92 1.656 5.08 1.656 1.87 0 3.27-.408 4.21-1.224.96-.84 1.44-1.944 1.44-3.312v-.216c0-1.32-.49-2.328-1.48-3.024-.96-.696-2.53-1.2-4.71-1.512-1.27-.168-2.43-.42-3.46-.756-1.01-.36-1.87-.816-2.59-1.368a5.99 5.99 0 0 1-1.66-2.052c-.38-.792-.57-1.728-.57-2.808v-.432c0-.984.2-1.884.61-2.7.41-.816.97-1.524 1.69-2.124.75-.6 1.62-1.056 2.63-1.368 1.03-.336 2.16-.504 3.38-.504 1.42 0 2.68.204 3.78.612 1.13.408 2.08.96 2.85 1.656a6.435 6.435 0 0 1 1.73 2.412c.4.912.61 1.872.61 2.88v1.512h-3.03v-1.296Zm13.59 15.912c0-.696.24-1.284.72-1.764.5-.504 1.1-.756 1.8-.756.69 0 1.28.252 1.76.756.5.48.76 1.068.76 1.764v3.528c0 .816-.27 1.488-.8 2.016-.5.528-1.16.792-1.98.792h-1.83v-1.944h1.69c.65 0 .97-.36.97-1.08v-.9c-.19.072-.39.108-.61.108-.67 0-1.26-.24-1.76-.72a2.52 2.52 0 0 1-.72-1.8Zm52.54-15.912c0-.816-.17-1.536-.5-2.16a4.281 4.281 0 0 0-1.3-1.548 6.143 6.143 0 0 0-1.91-.936 7.806 7.806 0 0 0-2.26-.324c-.7 0-1.36.096-1.98.288-.63.168-1.19.42-1.7.756-.48.336-.86.756-1.15 1.26-.29.48-.43 1.044-.43 1.692v.216c0 .696.14 1.296.43 1.8.29.48.71.9 1.26 1.26.58.336 1.29.624 2.13.864.84.216 1.82.408 2.95.576 2.64.408 4.58 1.188 5.83 2.34 1.25 1.128 1.87 2.652 1.87 4.572v.432c0 1.08-.19 2.076-.57 2.988a6.076 6.076 0 0 1-1.66 2.304c-.72.648-1.62 1.152-2.7 1.512-1.08.36-2.33.54-3.74.54-1.61 0-3.04-.228-4.29-.684-1.22-.48-2.25-1.128-3.09-1.944a8.764 8.764 0 0 1-1.88-2.916c-.43-1.128-.64-2.352-.64-3.672v-1.08h3.02v.864c0 2.208.6 3.864 1.8 4.968 1.22 1.104 2.92 1.656 5.08 1.656 1.87 0 3.27-.408 4.21-1.224.96-.84 1.44-1.944 1.44-3.312v-.216c0-1.32-.49-2.328-1.48-3.024-.96-.696-2.53-1.2-4.71-1.512-1.28-.168-2.43-.42-3.46-.756-1.01-.36-1.87-.816-2.59-1.368a5.99 5.99 0 0 1-1.66-2.052c-.38-.792-.57-1.728-.57-2.808v-.432c0-.984.2-1.884.61-2.7.41-.816.97-1.524 1.69-2.124.74-.6 1.62-1.056 2.63-1.368 1.03-.336 2.16-.504 3.38-.504 1.42 0 2.68.204 3.78.612 1.13.408 2.08.96 2.85 1.656a6.41 6.41 0 0 1 1.72 2.412c.41.912.62 1.872.62 2.88v1.512h-3.03v-1.296Zm11.17 7.56V88h-3.02V62.8h9c1.3 0 2.42.192 3.38.576.96.36 1.76.852 2.38 1.476a5.783 5.783 0 0 1 1.44 2.196c.34.816.5 1.68.5 2.592v1.08a6.93 6.93 0 0 1-.5 2.628c-.31.84-.79 1.584-1.44 2.232-.65.624-1.45 1.128-2.41 1.512-.96.36-2.08.54-3.35.54h-5.98Zm0-2.808h5.62c3.36 0 5.04-1.44 5.04-4.32v-.648c0-1.272-.42-2.292-1.26-3.06-.82-.792-2.08-1.188-3.78-1.188h-5.62v9.216Zm18.12-2.232c0-3.264.78-5.796 2.34-7.596 1.56-1.8 3.73-2.7 6.52-2.7 2.78 0 4.95.9 6.51 2.7 1.56 1.8 2.34 4.332 2.34 7.596v5.616c0 3.36-.78 5.916-2.34 7.668-1.56 1.752-3.73 2.628-6.51 2.628-2.79 0-4.96-.876-6.52-2.628-1.56-1.752-2.34-4.308-2.34-7.668v-5.616Zm8.86 13.104c1.94 0 3.39-.66 4.35-1.98.99-1.344 1.48-3.252 1.48-5.724v-5.184c0-2.304-.49-4.164-1.48-5.58-.96-1.416-2.41-2.124-4.35-2.124-1.95 0-3.41.708-4.39 2.124-.96 1.416-1.44 3.276-1.44 5.58v5.184c0 2.472.48 4.38 1.44 5.724.98 1.32 2.44 1.98 4.39 1.98Zm13.19-13.104c0-3.264.78-5.796 2.34-7.596 1.56-1.8 3.73-2.7 6.51-2.7 2.79 0 4.96.9 6.52 2.7 1.56 1.8 2.34 4.332 2.34 7.596v5.616c0 3.36-.78 5.916-2.34 7.668-1.56 1.752-3.73 2.628-6.52 2.628-2.78 0-4.95-.876-6.51-2.628-1.56-1.752-2.34-4.308-2.34-7.668v-5.616Zm8.85 13.104c1.95 0 3.4-.66 4.36-1.98.98-1.344 1.47-3.252 1.47-5.724v-5.184c0-2.304-.49-4.164-1.47-5.58-.96-1.416-2.41-2.124-4.36-2.124-1.94 0-3.41.708-4.39 2.124-.96 1.416-1.44 3.276-1.44 5.58v5.184c0 2.472.48 4.38 1.44 5.724.98 1.32 2.45 1.98 4.39 1.98ZM1736.95 88h-3.03V62.8h3.03v11.16h.82l9.69-11.16h3.74v.216l-10.44 12.168v.432l10.87 12.168V88h-3.81l-10.05-11.232h-.82V88Zm25.32-8.856h-.65l-7.89-16.344h3.39l6.44 13.752h.43l6.45-13.752h3.38l-7.88 16.344h-.65V88h-3.02v-8.856Z"/><path fill="#FF6D7F" d="M1107.3 786.8h3.24l6.59 23.904h.43l6.59-23.904h3.24l-7.13 25.2h-5.83l-7.13-25.2ZM1131.76 786.8h15.26v2.808h-12.24v8.352h12.02v2.808h-12.02v8.424h12.46V812h-15.48v-25.2ZM1169.31 812h-3.02v-8.424c0-.624-.14-1.104-.43-1.44-.29-.336-.79-.504-1.51-.504h-7.85V812h-3.03v-25.2h9c1.3 0 2.43.192 3.39.576.96.36 1.75.852 2.37 1.476a5.783 5.783 0 0 1 1.44 2.196c.34.816.51 1.68.51 2.592v1.08c0 .936-.27 1.872-.79 2.808-.51.936-1.3 1.656-2.38 2.16v.432c.72.12 1.28.408 1.69.864.41.456.61 1.104.61 1.944V812Zm-12.81-13.176h5.61c1.71 0 2.97-.36 3.78-1.08.84-.744 1.26-1.824 1.26-3.24v-.648c0-1.272-.42-2.292-1.26-3.06-.81-.792-2.07-1.188-3.78-1.188h-5.61v9.216ZM1174.62 786.8h17.71v2.808h-7.34V812h-3.03v-22.392h-7.34V786.8ZM1197.52 786.8h15.99v2.808h-6.48v19.584h6.48V812h-15.99v-2.808h6.48v-19.584h-6.48V786.8ZM1227.7 809.696c1.04 0 1.91-.168 2.63-.504.75-.36 1.35-.828 1.8-1.404.48-.6.83-1.272 1.05-2.016a8.04 8.04 0 0 0 .36-2.412v-.432h3.02v.432c0 1.272-.19 2.472-.58 3.6a8.452 8.452 0 0 1-1.69 2.916c-.74.816-1.67 1.464-2.77 1.944-1.1.456-2.38.684-3.82.684-2.78 0-4.95-.876-6.51-2.628-1.56-1.752-2.34-4.308-2.34-7.668v-5.616c0-3.264.78-5.796 2.34-7.596 1.56-1.8 3.73-2.7 6.51-2.7 1.44 0 2.72.24 3.82.72 1.1.456 2.03 1.104 2.77 1.944.75.816 1.31 1.788 1.69 2.916.39 1.104.58 2.292.58 3.564v.432h-3.02v-.432a9.038 9.038 0 0 0-.4-2.376c-.22-.768-.56-1.44-1.04-2.016a4.686 4.686 0 0 0-1.77-1.404c-.72-.36-1.59-.54-2.63-.54-1.94 0-3.4.708-4.39 2.124-.96 1.416-1.44 3.276-1.44 5.58v5.184c0 2.472.48 4.38 1.44 5.724.99 1.32 2.45 1.98 4.39 1.98ZM1255 805.736h-10.8l-1.83 6.264h-3.24l7.63-25.2h5.69l7.63 25.2h-3.24l-1.84-6.264Zm-5.61-17.64-4.36 14.832h9.14l-4.35-14.832h-.43ZM1263.76 786.8h3.03v22.392h13.17V812h-16.2v-25.2ZM1166.83 853.736h-10.8l-1.84 6.264h-3.24l7.64-25.2h5.68l7.64 25.2h-3.24l-1.84-6.264Zm-5.62-17.64-4.35 14.832h9.14l-4.35-14.832h-.44ZM1177.5 834.8l5.65 11.16h.65l5.65-11.16h3.31l-6.3 12.348v.432l6.3 12.42h-3.31l-5.65-11.232h-.65L1177.5 860h-3.31l6.3-12.42v-.432l-6.3-12.348h3.31ZM1197.52 834.8h15.99v2.808h-6.48v19.584h6.48V860h-15.99v-2.808h6.48v-19.584h-6.48V834.8ZM1233.5 842.072c0-.816-.17-1.536-.5-2.16a4.382 4.382 0 0 0-1.3-1.548 6.143 6.143 0 0 0-1.91-.936 7.825 7.825 0 0 0-2.27-.324c-.69 0-1.35.096-1.98.288-.62.168-1.18.42-1.69.756-.48.336-.86.756-1.15 1.26-.29.48-.43 1.044-.43 1.692v.216c0 .696.14 1.296.43 1.8.29.48.71.9 1.26 1.26.58.336 1.28.624 2.12.864.84.216 1.83.408 2.96.576 2.64.408 4.58 1.188 5.83 2.34 1.25 1.128 1.87 2.652 1.87 4.572v.432c0 1.08-.19 2.076-.58 2.988a6.05 6.05 0 0 1-1.65 2.304c-.72.648-1.62 1.152-2.7 1.512-1.08.36-2.33.54-3.75.54-1.6 0-3.03-.228-4.28-.684-1.22-.48-2.26-1.128-3.1-1.944a8.737 8.737 0 0 1-1.87-2.916c-.43-1.128-.65-2.352-.65-3.672v-1.08h3.03v.864c0 2.208.6 3.864 1.8 4.968 1.22 1.104 2.91 1.656 5.07 1.656 1.88 0 3.28-.408 4.22-1.224.96-.84 1.44-1.944 1.44-3.312v-.216c0-1.32-.5-2.328-1.48-3.024-.96-.696-2.53-1.2-4.72-1.512-1.27-.168-2.42-.42-3.45-.756-1.01-.36-1.87-.816-2.59-1.368a5.877 5.877 0 0 1-1.66-2.052c-.38-.792-.58-1.728-.58-2.808v-.432c0-.984.21-1.884.62-2.7.4-.816.97-1.524 1.69-2.124.74-.6 1.62-1.056 2.63-1.368 1.03-.336 2.16-.504 3.38-.504 1.42 0 2.68.204 3.78.612 1.13.408 2.08.96 2.84 1.656a6.327 6.327 0 0 1 1.73 2.412c.41.912.61 1.872.61 2.88v1.512h-3.02v-1.296ZM1340.42 786.8h17.71v2.808h-7.34V812h-3.02v-22.392h-7.35V786.8ZM1379.2 812h-3.02v-8.424c0-.624-.14-1.104-.43-1.44-.29-.336-.79-.504-1.51-.504h-7.85V812h-3.03v-25.2h9c1.3 0 2.43.192 3.39.576.96.36 1.75.852 2.37 1.476a5.783 5.783 0 0 1 1.44 2.196c.34.816.51 1.68.51 2.592v1.08c0 .936-.27 1.872-.79 2.808-.51.936-1.3 1.656-2.38 2.16v.432c.72.12 1.28.408 1.69.864.41.456.61 1.104.61 1.944V812Zm-12.81-13.176h5.61c1.71 0 2.97-.36 3.78-1.08.84-.744 1.26-1.824 1.26-3.24v-.648c0-1.272-.42-2.292-1.26-3.06-.81-.792-2.07-1.188-3.78-1.188h-5.61v9.216ZM1385.37 786.8h15.99v2.808h-6.48v19.584h6.48V812h-15.99v-2.808h6.48v-19.584h-6.48V786.8ZM1407.81 786.8h15.48v2.808h-12.46v8.352h12.24v2.808h-12.24V812h-3.02v-25.2ZM1431.83 786.8v16.704c0 2.04.47 3.588 1.41 4.644.96 1.032 2.36 1.548 4.21 1.548s3.24-.516 4.18-1.548c.96-1.056 1.44-2.604 1.44-4.644V786.8h3.02v16.704c0 2.928-.77 5.16-2.3 6.696-1.54 1.536-3.65 2.304-6.34 2.304s-4.8-.768-6.34-2.304c-1.53-1.536-2.3-3.768-2.3-6.696V786.8h3.02ZM1467.38 812h-3.03v-8.424c0-.624-.14-1.104-.43-1.44-.29-.336-.79-.504-1.51-.504h-7.85V812h-3.02v-25.2h9c1.29 0 2.42.192 3.38.576.96.36 1.75.852 2.38 1.476a6.027 6.027 0 0 1 1.44 2.196c.33.816.5 1.68.5 2.592v1.08c0 .936-.26 1.872-.79 2.808-.51.936-1.3 1.656-2.38 2.16v.432c.72.12 1.29.408 1.69.864.41.456.62 1.104.62 1.944V812Zm-12.82-13.176h5.62c1.7 0 2.96-.36 3.78-1.08.84-.744 1.26-1.824 1.26-3.24v-.648c0-1.272-.42-2.292-1.26-3.06-.82-.792-2.08-1.188-3.78-1.188h-5.62v9.216ZM1481.68 809.696c1.03 0 1.91-.168 2.63-.504.74-.36 1.34-.828 1.8-1.404.48-.6.83-1.272 1.04-2.016a8.04 8.04 0 0 0 .36-2.412v-.432h3.03v.432c0 1.272-.2 2.472-.58 3.6a8.613 8.613 0 0 1-1.69 2.916c-.75.816-1.67 1.464-2.77 1.944-1.11.456-2.38.684-3.82.684-2.78 0-4.96-.876-6.52-2.628-1.56-1.752-2.34-4.308-2.34-7.668v-5.616c0-3.264.78-5.796 2.34-7.596 1.56-1.8 3.74-2.7 6.52-2.7 1.44 0 2.71.24 3.82.72a7.502 7.502 0 0 1 2.77 1.944 8.177 8.177 0 0 1 1.69 2.916c.38 1.104.58 2.292.58 3.564v.432h-3.03v-.432a8.636 8.636 0 0 0-.39-2.376 5.452 5.452 0 0 0-1.05-2.016 4.578 4.578 0 0 0-1.76-1.404c-.72-.36-1.6-.54-2.63-.54-1.94 0-3.41.708-4.39 2.124-.96 1.416-1.44 3.276-1.44 5.58v5.184c0 2.472.48 4.38 1.44 5.724.98 1.32 2.45 1.98 4.39 1.98ZM1508.98 805.736h-10.8l-1.84 6.264h-3.24l7.63-25.2h5.69l7.63 25.2h-3.24l-1.83-6.264Zm-5.62-17.64-4.35 14.832h9.14l-4.36-14.832h-.43ZM1516.77 786.8h17.71v2.808h-7.35V812h-3.02v-22.392h-7.34V786.8ZM1540.03 786.8h15.27v2.808h-12.24v8.352h12.02v2.808h-12.02v8.424h12.45V812h-15.48v-25.2ZM1561.32 786.8h8.28c3.12 0 5.4.744 6.84 2.232 1.44 1.488 2.16 3.864 2.16 7.128v6.48c0 3.264-.72 5.64-2.16 7.128-1.44 1.488-3.72 2.232-6.84 2.232h-8.28v-2.844h2.16v-19.548h-2.16V786.8Zm7.85 22.392c1.1 0 2.05-.108 2.84-.324.82-.216 1.49-.576 2.02-1.08.53-.528.91-1.224 1.15-2.088.26-.864.4-1.956.4-3.276v-6.048c0-1.32-.14-2.412-.4-3.276-.24-.864-.62-1.548-1.15-2.052-.53-.528-1.2-.9-2.02-1.116-.79-.216-1.74-.324-2.84-.324h-2.67v19.584h2.67ZM1410.33 842.072c0-.816-.17-1.536-.51-2.16a4.255 4.255 0 0 0-1.29-1.548 6.254 6.254 0 0 0-1.91-.936 7.875 7.875 0 0 0-2.27-.324c-.7 0-1.36.096-1.98.288-.62.168-1.19.42-1.69.756-.48.336-.87.756-1.15 1.26-.29.48-.44 1.044-.44 1.692v.216c0 .696.15 1.296.44 1.8.28.48.7.9 1.26 1.26.57.336 1.28.624 2.12.864.84.216 1.82.408 2.95.576 2.64.408 4.59 1.188 5.83 2.34 1.25 1.128 1.88 2.652 1.88 4.572v.432c0 1.08-.2 2.076-.58 2.988a5.97 5.97 0 0 1-1.66 2.304c-.72.648-1.62 1.152-2.7 1.512-1.08.36-2.32.54-3.74.54-1.61 0-3.04-.228-4.28-.684-1.23-.48-2.26-1.128-3.1-1.944a8.584 8.584 0 0 1-1.87-2.916c-.43-1.128-.65-2.352-.65-3.672v-1.08h3.02v.864c0 2.208.6 3.864 1.8 4.968 1.23 1.104 2.92 1.656 5.08 1.656 1.87 0 3.28-.408 4.21-1.224.96-.84 1.44-1.944 1.44-3.312v-.216c0-1.32-.49-2.328-1.47-3.024-.96-.696-2.54-1.2-4.72-1.512-1.27-.168-2.42-.42-3.46-.756-1-.36-1.87-.816-2.59-1.368a5.847 5.847 0 0 1-1.65-2.052c-.39-.792-.58-1.728-.58-2.808v-.432c0-.984.2-1.884.61-2.7.41-.816.97-1.524 1.69-2.124.75-.6 1.62-1.056 2.63-1.368 1.03-.336 2.16-.504 3.39-.504 1.41 0 2.67.204 3.78.612 1.12.408 2.07.96 2.84 1.656a6.435 6.435 0 0 1 1.73 2.412c.41.912.61 1.872.61 2.88v1.512h-3.02v-1.296ZM1418.8 834.8h15.26v2.808h-12.24v8.352h12.02v2.808h-12.02v8.424h12.46V860h-15.48v-25.2ZM1456.36 860h-3.03v-8.424c0-.624-.14-1.104-.43-1.44-.29-.336-.79-.504-1.51-.504h-7.85V860h-3.02v-25.2h9c1.29 0 2.42.192 3.38.576.96.36 1.75.852 2.38 1.476a6.027 6.027 0 0 1 1.44 2.196c.33.816.5 1.68.5 2.592v1.08c0 .936-.26 1.872-.79 2.808-.51.936-1.3 1.656-2.38 2.16v.432c.72.12 1.29.408 1.69.864.41.456.62 1.104.62 1.944V860Zm-12.82-13.176h5.62c1.7 0 2.96-.36 3.78-1.08.84-.744 1.26-1.824 1.26-3.24v-.648c0-1.272-.42-2.292-1.26-3.06-.82-.792-2.08-1.188-3.78-1.188h-5.62v9.216ZM1462.52 834.8h15.99v2.808h-6.48v19.584h6.48V860h-15.99v-2.808h6.48v-19.584h-6.48V834.8ZM1484.96 834.8h15.48v2.808h-12.45v8.352h12.24v2.808h-12.24V860h-3.03v-25.2ZM1520.54 842.072c0-.816-.17-1.536-.5-2.16a4.382 4.382 0 0 0-1.3-1.548 6.143 6.143 0 0 0-1.91-.936 7.825 7.825 0 0 0-2.27-.324c-.69 0-1.35.096-1.98.288-.62.168-1.18.42-1.69.756-.48.336-.86.756-1.15 1.26-.29.48-.43 1.044-.43 1.692v.216c0 .696.14 1.296.43 1.8.29.48.71.9 1.26 1.26.58.336 1.28.624 2.12.864.84.216 1.83.408 2.96.576 2.64.408 4.58 1.188 5.83 2.34 1.25 1.128 1.87 2.652 1.87 4.572v.432c0 1.08-.19 2.076-.58 2.988a6.05 6.05 0 0 1-1.65 2.304c-.72.648-1.62 1.152-2.7 1.512-1.08.36-2.33.54-3.75.54-1.6 0-3.03-.228-4.28-.684-1.22-.48-2.26-1.128-3.1-1.944a8.737 8.737 0 0 1-1.87-2.916c-.43-1.128-.65-2.352-.65-3.672v-1.08h3.03v.864c0 2.208.6 3.864 1.8 4.968 1.22 1.104 2.91 1.656 5.07 1.656 1.88 0 3.28-.408 4.22-1.224.96-.84 1.44-1.944 1.44-3.312v-.216c0-1.32-.5-2.328-1.48-3.024-.96-.696-2.53-1.2-4.72-1.512-1.27-.168-2.42-.42-3.45-.756-1.01-.36-1.87-.816-2.59-1.368a5.877 5.877 0 0 1-1.66-2.052c-.38-.792-.58-1.728-.58-2.808v-.432c0-.984.21-1.884.62-2.7.4-.816.97-1.524 1.69-2.124.74-.6 1.62-1.056 2.63-1.368 1.03-.336 2.16-.504 3.38-.504 1.42 0 2.68.204 3.78.612 1.13.408 2.08.96 2.84 1.656a6.327 6.327 0 0 1 1.73 2.412c.41.912.61 1.872.61 2.88v1.512h-3.02v-1.296ZM307.395 230.8h15.984v2.808h-6.48v19.584h6.48V256h-15.984v-2.808h6.48v-19.584h-6.48V230.8ZM342.362 254.704h.432V230.8h3.023V256h-6.047l-7.273-23.904h-.431V256h-3.024v-25.2h6.048l7.272 23.904ZM351.588 230.8h3.024v22.392h13.176V256h-16.2v-25.2ZM373.523 230.8h15.984v2.808h-6.48v19.584h6.48V256h-15.984v-2.808h6.48v-19.584h-6.48V230.8ZM408.49 254.704h.432V230.8h3.024V256h-6.048l-7.272-23.904h-.432V256h-3.024v-25.2h6.048l7.272 23.904ZM417.969 230.8h15.264v2.808h-12.24v8.352h12.024v2.808h-12.024v8.424h12.456V256h-15.48v-25.2ZM908.531 228.8h17.712v2.808h-7.344V254h-3.024v-22.392h-7.344V228.8ZM931.042 228.8h3.024v11.16h10.728V228.8h3.024V254h-3.024v-11.232h-10.728V254h-3.024v-25.2ZM952.617 238.592c0-3.264.78-5.796 2.34-7.596 1.56-1.8 3.732-2.7 6.516-2.7s4.956.9 6.516 2.7c1.56 1.8 2.34 4.332 2.34 7.596v5.616c0 3.36-.78 5.916-2.34 7.668-1.56 1.752-3.732 2.628-6.516 2.628s-4.956-.876-6.516-2.628c-1.56-1.752-2.34-4.308-2.34-7.668v-5.616Zm8.856 13.104c1.944 0 3.396-.66 4.356-1.98.984-1.344 1.476-3.252 1.476-5.724v-5.184c0-2.304-.492-4.164-1.476-5.58-.96-1.416-2.412-2.124-4.356-2.124s-3.408.708-4.392 2.124c-.96 1.416-1.44 3.276-1.44 5.58v5.184c0 2.472.48 4.38 1.44 5.724.984 1.32 2.448 1.98 4.392 1.98ZM991.4 254h-3.024v-8.424c0-.624-.144-1.104-.432-1.44-.288-.336-.792-.504-1.512-.504h-7.848V254h-3.024v-25.2h9c1.296 0 2.424.192 3.384.576.96.36 1.752.852 2.376 1.476a5.83 5.83 0 0 1 1.44 2.196 6.74 6.74 0 0 1 .504 2.592v1.08c0 .936-.264 1.872-.792 2.808-.504.936-1.296 1.656-2.376 2.16v.432c.72.12 1.284.408 1.692.864.408.456.612 1.104.612 1.944V254Zm-12.816-13.176h5.616c1.704 0 2.964-.36 3.78-1.08.84-.744 1.26-1.824 1.26-3.24v-.648c0-1.272-.42-2.292-1.26-3.06-.816-.792-2.076-1.188-3.78-1.188h-5.616v9.216ZM1010.49 252.704h.43V228.8h3.03V254h-6.05l-7.27-23.904h-.43V254h-3.029v-25.2h6.049l7.27 23.904ZM1033.54 236.072c0-.816-.17-1.536-.5-2.16a4.281 4.281 0 0 0-1.3-1.548 6.143 6.143 0 0 0-1.91-.936 7.806 7.806 0 0 0-2.26-.324c-.7 0-1.36.096-1.98.288-.63.168-1.19.42-1.7.756-.48.336-.86.756-1.15 1.26-.29.48-.43 1.044-.43 1.692v.216c0 .696.14 1.296.43 1.8.29.48.71.9 1.26 1.26.58.336 1.29.624 2.13.864.84.216 1.82.408 2.95.576 2.64.408 4.58 1.188 5.83 2.34 1.25 1.128 1.87 2.652 1.87 4.572v.432c0 1.08-.19 2.076-.57 2.988a6.076 6.076 0 0 1-1.66 2.304c-.72.648-1.62 1.152-2.7 1.512-1.08.36-2.33.54-3.74.54-1.61 0-3.04-.228-4.29-.684-1.22-.48-2.25-1.128-3.09-1.944a8.764 8.764 0 0 1-1.88-2.916c-.43-1.128-.64-2.352-.64-3.672v-1.08h3.02v.864c0 2.208.6 3.864 1.8 4.968 1.22 1.104 2.92 1.656 5.08 1.656 1.87 0 3.27-.408 4.21-1.224.96-.84 1.44-1.944 1.44-3.312v-.216c0-1.32-.49-2.328-1.48-3.024-.96-.696-2.53-1.2-4.71-1.512-1.28-.168-2.43-.42-3.46-.756-1.01-.36-1.87-.816-2.59-1.368a5.99 5.99 0 0 1-1.66-2.052c-.38-.792-.57-1.728-.57-2.808v-.432c0-.984.2-1.884.61-2.7.41-.816.97-1.524 1.69-2.124.74-.6 1.62-1.056 2.63-1.368 1.03-.336 2.16-.504 3.38-.504 1.42 0 2.68.204 3.78.612 1.13.408 2.08.96 2.85 1.656a6.41 6.41 0 0 1 1.72 2.412c.41.912.62 1.872.62 2.88v1.512h-3.03v-1.296ZM424.532 809.696c1.032 0 1.908-.168 2.628-.504.744-.36 1.344-.828 1.8-1.404a5.77 5.77 0 0 0 1.044-2.016 8.04 8.04 0 0 0 .36-2.412v-.432h3.024v.432c0 1.272-.192 2.472-.576 3.6a8.618 8.618 0 0 1-1.692 2.916c-.744.816-1.668 1.464-2.772 1.944-1.104.456-2.376.684-3.816.684-2.784 0-4.956-.876-6.516-2.628-1.56-1.752-2.34-4.308-2.34-7.668v-5.616c0-3.264.78-5.796 2.34-7.596 1.56-1.8 3.732-2.7 6.516-2.7 1.44 0 2.712.24 3.816.72 1.104.456 2.028 1.104 2.772 1.944.744.816 1.308 1.788 1.692 2.916.384 1.104.576 2.292.576 3.564v.432h-3.024v-.432a8.795 8.795 0 0 0-.396-2.376 5.383 5.383 0 0 0-1.044-2.016 4.636 4.636 0 0 0-1.764-1.404c-.72-.36-1.596-.54-2.628-.54-1.944 0-3.408.708-4.392 2.124-.96 1.416-1.44 3.276-1.44 5.58v5.184c0 2.472.48 4.38 1.44 5.724.984 1.32 2.448 1.98 4.392 1.98ZM438.547 786.8h3.024v22.392h13.176V812h-16.2v-25.2ZM459.618 796.592c0-3.264.78-5.796 2.34-7.596 1.56-1.8 3.732-2.7 6.516-2.7s4.956.9 6.516 2.7c1.56 1.8 2.34 4.332 2.34 7.596v5.616c0 3.36-.78 5.916-2.34 7.668-1.56 1.752-3.732 2.628-6.516 2.628s-4.956-.876-6.516-2.628c-1.56-1.752-2.34-4.308-2.34-7.668v-5.616Zm8.856 13.104c1.944 0 3.396-.66 4.356-1.98.984-1.344 1.476-3.252 1.476-5.724v-5.184c0-2.304-.492-4.164-1.476-5.58-.96-1.416-2.412-2.124-4.356-2.124s-3.408.708-4.392 2.124c-.96 1.416-1.44 3.276-1.44 5.58v5.184c0 2.472.48 4.38 1.44 5.724.984 1.32 2.448 1.98 4.392 1.98ZM496.457 794.072c0-.816-.168-1.536-.504-2.16a4.27 4.27 0 0 0-1.296-1.548 6.154 6.154 0 0 0-1.908-.936 7.85 7.85 0 0 0-2.268-.324c-.696 0-1.356.096-1.98.288a5.694 5.694 0 0 0-1.692.756c-.48.336-.864.756-1.152 1.26-.288.48-.432 1.044-.432 1.692v.216c0 .696.144 1.296.432 1.8.288.48.708.9 1.26 1.26.576.336 1.284.624 2.124.864.84.216 1.824.408 2.952.576 2.64.408 4.584 1.188 5.832 2.34 1.248 1.128 1.872 2.652 1.872 4.572v.432c0 1.08-.192 2.076-.576 2.988a6.023 6.023 0 0 1-1.656 2.304c-.72.648-1.62 1.152-2.7 1.512-1.08.36-2.328.54-3.744.54-1.608 0-3.036-.228-4.284-.684-1.224-.48-2.256-1.128-3.096-1.944a8.68 8.68 0 0 1-1.872-2.916c-.432-1.128-.648-2.352-.648-3.672v-1.08h3.024v.864c0 2.208.6 3.864 1.8 4.968 1.224 1.104 2.916 1.656 5.076 1.656 1.872 0 3.276-.408 4.212-1.224.96-.84 1.44-1.944 1.44-3.312v-.216c0-1.32-.492-2.328-1.476-3.024-.96-.696-2.532-1.2-4.716-1.512-1.272-.168-2.424-.42-3.456-.756-1.008-.36-1.872-.816-2.592-1.368a5.91 5.91 0 0 1-1.656-2.052c-.384-.792-.576-1.728-.576-2.808v-.432c0-.984.204-1.884.612-2.7a6.563 6.563 0 0 1 1.692-2.124c.744-.6 1.62-1.056 2.628-1.368 1.032-.336 2.16-.504 3.384-.504 1.416 0 2.676.204 3.78.612 1.128.408 2.076.96 2.844 1.656a6.386 6.386 0 0 1 1.728 2.412c.408.912.612 1.872.612 2.88v1.512h-3.024v-1.296ZM504.928 786.8h15.264v2.808h-12.24v8.352h12.024v2.808h-12.024v8.424h12.456V812h-15.48v-25.2ZM526.215 786.8h8.28c3.12 0 5.4.744 6.84 2.232 1.44 1.488 2.16 3.864 2.16 7.128v6.48c0 3.264-.72 5.64-2.16 7.128-1.44 1.488-3.72 2.232-6.84 2.232h-8.28v-2.844h2.16v-19.548h-2.16V786.8Zm7.848 22.392c1.104 0 2.052-.108 2.844-.324.816-.216 1.488-.576 2.016-1.08.528-.528.912-1.224 1.152-2.088.264-.864.396-1.956.396-3.276v-6.048c0-1.32-.132-2.412-.396-3.276-.24-.864-.624-1.548-1.152-2.052-.528-.528-1.2-.9-2.016-1.116-.792-.216-1.74-.324-2.844-.324h-2.664v19.584h2.664ZM396.724 853.736h-10.8L384.088 860h-3.24l7.632-25.2h5.688L401.8 860h-3.24l-1.836-6.264Zm-5.616-17.64-4.356 14.832h9.144l-4.356-14.832h-.432ZM408.435 849.632V860h-3.024v-25.2h9c1.296 0 2.424.192 3.384.576.96.36 1.752.852 2.376 1.476a5.83 5.83 0 0 1 1.44 2.196 6.74 6.74 0 0 1 .504 2.592v1.08c0 .912-.168 1.788-.504 2.628a6.158 6.158 0 0 1-1.44 2.232c-.648.624-1.452 1.128-2.412 1.512-.96.36-2.076.54-3.348.54h-5.976Zm0-2.808h5.616c3.36 0 5.04-1.44 5.04-4.32v-.648c0-1.272-.42-2.292-1.26-3.06-.816-.792-2.076-1.188-3.78-1.188h-5.616v9.216ZM427.778 834.8h15.264v2.808h-12.24v8.352h12.024v2.808h-12.024v8.424h12.456V860h-15.48v-25.2ZM465.337 860h-3.024v-8.424c0-.624-.144-1.104-.432-1.44-.288-.336-.792-.504-1.512-.504h-7.848V860h-3.024v-25.2h9c1.296 0 2.424.192 3.384.576.96.36 1.752.852 2.376 1.476a5.83 5.83 0 0 1 1.44 2.196 6.74 6.74 0 0 1 .504 2.592v1.08c0 .936-.264 1.872-.792 2.808-.504.936-1.296 1.656-2.376 2.16v.432c.72.12 1.284.408 1.692.864.408.456.612 1.104.612 1.944V860Zm-12.816-13.176h5.616c1.704 0 2.964-.36 3.78-1.08.84-.744 1.26-1.824 1.26-3.24v-.648c0-1.272-.42-2.292-1.26-3.06-.816-.792-2.076-1.188-3.78-1.188h-5.616v9.216ZM470.64 834.8h17.712v2.808h-7.344V860h-3.024v-22.392h-7.344V834.8ZM495.923 834.8v16.704c0 2.04.467 3.588 1.403 4.644.961 1.032 2.364 1.548 4.212 1.548 1.848 0 3.241-.516 4.177-1.548.96-1.056 1.44-2.604 1.44-4.644V834.8h3.024v16.704c0 2.928-.769 5.16-2.305 6.696-1.536 1.536-3.648 2.304-6.336 2.304s-4.8-.768-6.336-2.304c-1.536-1.536-2.304-3.768-2.304-6.696V834.8h3.025ZM531.465 860h-3.024v-8.424c0-.624-.144-1.104-.432-1.44-.288-.336-.792-.504-1.512-.504h-7.848V860h-3.024v-25.2h9c1.296 0 2.424.192 3.384.576.96.36 1.752.852 2.376 1.476a5.83 5.83 0 0 1 1.44 2.196 6.74 6.74 0 0 1 .504 2.592v1.08c0 .936-.264 1.872-.792 2.808-.504.936-1.296 1.656-2.376 2.16v.432c.72.12 1.284.408 1.692.864.408.456.612 1.104.612 1.944V860Zm-12.816-13.176h5.616c1.704 0 2.964-.36 3.78-1.08.84-.744 1.26-1.824 1.26-3.24v-.648c0-1.272-.42-2.292-1.26-3.06-.816-.792-2.076-1.188-3.78-1.188h-5.616v9.216ZM537.992 834.8h15.264v2.808h-12.24v8.352h12.024v2.808h-12.024v8.424h12.456V860h-15.48v-25.2ZM573.607 842.072c0-.816-.168-1.536-.504-2.16a4.27 4.27 0 0 0-1.296-1.548 6.154 6.154 0 0 0-1.908-.936 7.85 7.85 0 0 0-2.268-.324c-.696 0-1.356.096-1.98.288a5.694 5.694 0 0 0-1.692.756c-.48.336-.864.756-1.152 1.26-.288.48-.432 1.044-.432 1.692v.216c0 .696.144 1.296.432 1.8.288.48.708.9 1.26 1.26.576.336 1.284.624 2.124.864.84.216 1.824.408 2.952.576 2.64.408 4.584 1.188 5.832 2.34 1.248 1.128 1.872 2.652 1.872 4.572v.432c0 1.08-.192 2.076-.576 2.988a6.023 6.023 0 0 1-1.656 2.304c-.72.648-1.62 1.152-2.7 1.512-1.08.36-2.328.54-3.744.54-1.608 0-3.036-.228-4.284-.684-1.224-.48-2.256-1.128-3.096-1.944a8.68 8.68 0 0 1-1.872-2.916c-.432-1.128-.648-2.352-.648-3.672v-1.08h3.024v.864c0 2.208.6 3.864 1.8 4.968 1.224 1.104 2.916 1.656 5.076 1.656 1.872 0 3.276-.408 4.212-1.224.96-.84 1.44-1.944 1.44-3.312v-.216c0-1.32-.492-2.328-1.476-3.024-.96-.696-2.532-1.2-4.716-1.512-1.272-.168-2.424-.42-3.456-.756-1.008-.36-1.872-.816-2.592-1.368a5.91 5.91 0 0 1-1.656-2.052c-.384-.792-.576-1.728-.576-2.808v-.432c0-.984.204-1.884.612-2.7a6.563 6.563 0 0 1 1.692-2.124c.744-.6 1.62-1.056 2.628-1.368 1.032-.336 2.16-.504 3.384-.504 1.416 0 2.676.204 3.78.612 1.128.408 2.076.96 2.844 1.656a6.386 6.386 0 0 1 1.728 2.412c.408.912.612 1.872.612 2.88v1.512h-3.024v-1.296Z"/><path fill="#FF6D7F" fill-rule="evenodd" d="M1194 754V382h4v372h-4ZM476.999 562.48c-4.935-.937-8.667-5.272-8.667-10.48 0-5.891 4.776-10.667 10.667-10.667s10.666 4.776 10.666 10.667c0 5.208-3.731 9.543-8.666 10.48V755h-4V562.48ZM1457 652.48c-4.94-.937-8.67-5.272-8.67-10.48 0-5.891 4.78-10.667 10.67-10.667s10.67 4.776 10.67 10.667c0 5.208-3.74 9.543-8.67 10.48V755h-4V652.48ZM367.999 481.521c-4.935.936-8.667 5.272-8.667 10.479 0 5.891 4.776 10.667 10.667 10.667s10.666-4.776 10.666-10.667c0-5.207-3.731-9.543-8.666-10.479V281h-4v200.521Z" clip-rule="evenodd"/></svg>