<svg width="1920" height="1080" viewBox="0 0 1920 1080" fill="none" xmlns="http://www.w3.org/2000/svg">
<path opacity="0.25" d="M531 560.5C531 577.897 516.897 592 499.5 592C482.103 592 468 577.897 468 560.5C468 543.103 482.103 529 499.5 529C516.897 529 531 543.103 531 560.5Z" fill="#FF6D7F"/>
<path opacity="0.25" d="M1682 590.5C1682 607.897 1667.9 622 1650.5 622C1633.1 622 1619 607.897 1619 590.5C1619 573.103 1633.1 559 1650.5 559C1667.9 559 1682 573.103 1682 590.5Z" fill="#FF6D7F"/>
<path d="M1118.3 786.8H1121.54L1128.13 810.704H1128.56L1135.15 786.8H1138.39L1131.26 812H1125.43L1118.3 786.8Z" fill="#FF6D7F"/>
<path d="M1142.76 786.8H1158.02V789.608H1145.78V797.96H1157.8V800.768H1145.78V809.192H1158.24V812H1142.76V786.8Z" fill="#FF6D7F"/>
<path d="M1180.31 812H1177.29V803.576C1177.29 802.952 1177.15 802.472 1176.86 802.136C1176.57 801.8 1176.07 801.632 1175.35 801.632H1167.5V812H1164.47V786.8H1173.47C1174.77 786.8 1175.9 786.992 1176.86 787.376C1177.82 787.736 1178.61 788.228 1179.23 788.852C1179.88 789.476 1180.36 790.208 1180.67 791.048C1181.01 791.864 1181.18 792.728 1181.18 793.64V794.72C1181.18 795.656 1180.91 796.592 1180.39 797.528C1179.88 798.464 1179.09 799.184 1178.01 799.688V800.12C1178.73 800.24 1179.29 800.528 1179.7 800.984C1180.11 801.44 1180.31 802.088 1180.31 802.928V812ZM1167.5 798.824H1173.11C1174.82 798.824 1176.08 798.464 1176.89 797.744C1177.73 797 1178.15 795.92 1178.15 794.504V793.856C1178.15 792.584 1177.73 791.564 1176.89 790.796C1176.08 790.004 1174.82 789.608 1173.11 789.608H1167.5V798.824Z" fill="#FF6D7F"/>
<path d="M1185.62 786.8H1203.33V789.608H1195.99V812H1192.96V789.608H1185.62V786.8Z" fill="#FF6D7F"/>
<path d="M1208.52 786.8H1224.51V789.608H1218.03V809.192H1224.51V812H1208.52V809.192H1215V789.608H1208.52V786.8Z" fill="#FF6D7F"/>
<path d="M1238.7 809.696C1239.74 809.696 1240.61 809.528 1241.33 809.192C1242.08 808.832 1242.68 808.364 1243.13 807.788C1243.61 807.188 1243.96 806.516 1244.18 805.772C1244.42 805.004 1244.54 804.2 1244.54 803.36V802.928H1247.56V803.36C1247.56 804.632 1247.37 805.832 1246.98 806.96C1246.6 808.064 1246.04 809.036 1245.29 809.876C1244.55 810.692 1243.62 811.34 1242.52 811.82C1241.42 812.276 1240.14 812.504 1238.7 812.504C1235.92 812.504 1233.75 811.628 1232.19 809.876C1230.63 808.124 1229.85 805.568 1229.85 802.208V796.592C1229.85 793.328 1230.63 790.796 1232.19 788.996C1233.75 787.196 1235.92 786.296 1238.7 786.296C1240.14 786.296 1241.42 786.536 1242.52 787.016C1243.62 787.472 1244.55 788.12 1245.29 788.96C1246.04 789.776 1246.6 790.748 1246.98 791.876C1247.37 792.98 1247.56 794.168 1247.56 795.44V795.872H1244.54V795.44C1244.51 794.624 1244.38 793.832 1244.14 793.064C1243.92 792.296 1243.58 791.624 1243.1 791.048C1242.64 790.448 1242.05 789.98 1241.33 789.644C1240.61 789.284 1239.74 789.104 1238.7 789.104C1236.76 789.104 1235.3 789.812 1234.31 791.228C1233.35 792.644 1232.87 794.504 1232.87 796.808V801.992C1232.87 804.464 1233.35 806.372 1234.31 807.716C1235.3 809.036 1236.76 809.696 1238.7 809.696Z" fill="#FF6D7F"/>
<path d="M1266 805.736H1255.2L1253.37 812H1250.13L1257.76 786.8H1263.45L1271.08 812H1267.84L1266 805.736ZM1260.39 788.096L1256.03 802.928H1265.17L1260.82 788.096H1260.39Z" fill="#FF6D7F"/>
<path d="M1274.76 786.8H1277.79V809.192H1290.96V812H1274.76V786.8Z" fill="#FF6D7F"/>
<path d="M1177.83 853.736H1167.03L1165.19 860H1161.95L1169.59 834.8H1175.27L1182.91 860H1179.67L1177.83 853.736ZM1172.21 836.096L1167.86 850.928H1177L1172.65 836.096H1172.21Z" fill="#FF6D7F"/>
<path d="M1188.5 834.8L1194.15 845.96H1194.8L1200.45 834.8H1203.76L1197.46 847.148V847.58L1203.76 860H1200.45L1194.8 848.768H1194.15L1188.5 860H1185.19L1191.49 847.58V847.148L1185.19 834.8H1188.5Z" fill="#FF6D7F"/>
<path d="M1208.52 834.8H1224.51V837.608H1218.03V857.192H1224.51V860H1208.52V857.192H1215V837.608H1208.52V834.8Z" fill="#FF6D7F"/>
<path d="M1244.5 842.072C1244.5 841.256 1244.33 840.536 1244 839.912C1243.68 839.288 1243.25 838.772 1242.7 838.364C1242.15 837.956 1241.51 837.644 1240.79 837.428C1240.07 837.212 1239.32 837.104 1238.52 837.104C1237.83 837.104 1237.17 837.2 1236.54 837.392C1235.92 837.56 1235.36 837.812 1234.85 838.148C1234.37 838.484 1233.99 838.904 1233.7 839.408C1233.41 839.888 1233.27 840.452 1233.27 841.1V841.316C1233.27 842.012 1233.41 842.612 1233.7 843.116C1233.99 843.596 1234.41 844.016 1234.96 844.376C1235.54 844.712 1236.24 845 1237.08 845.24C1237.92 845.456 1238.91 845.648 1240.04 845.816C1242.68 846.224 1244.62 847.004 1245.87 848.156C1247.12 849.284 1247.74 850.808 1247.74 852.728V853.16C1247.74 854.24 1247.55 855.236 1247.16 856.148C1246.8 857.036 1246.25 857.804 1245.51 858.452C1244.79 859.1 1243.89 859.604 1242.81 859.964C1241.73 860.324 1240.48 860.504 1239.06 860.504C1237.46 860.504 1236.03 860.276 1234.78 859.82C1233.56 859.34 1232.52 858.692 1231.68 857.876C1230.87 857.036 1230.24 856.064 1229.81 854.96C1229.38 853.832 1229.16 852.608 1229.16 851.288V850.208H1232.19V851.072C1232.19 853.28 1232.79 854.936 1233.99 856.04C1235.21 857.144 1236.9 857.696 1239.06 857.696C1240.94 857.696 1242.34 857.288 1243.28 856.472C1244.24 855.632 1244.72 854.528 1244.72 853.16V852.944C1244.72 851.624 1244.22 850.616 1243.24 849.92C1242.28 849.224 1240.71 848.72 1238.52 848.408C1237.25 848.24 1236.1 847.988 1235.07 847.652C1234.06 847.292 1233.2 846.836 1232.48 846.284C1231.76 845.708 1231.2 845.024 1230.82 844.232C1230.44 843.44 1230.24 842.504 1230.24 841.424V840.992C1230.24 840.008 1230.45 839.108 1230.86 838.292C1231.26 837.476 1231.83 836.768 1232.55 836.168C1233.29 835.568 1234.17 835.112 1235.18 834.8C1236.21 834.464 1237.34 834.296 1238.56 834.296C1239.98 834.296 1241.24 834.5 1242.34 834.908C1243.47 835.316 1244.42 835.868 1245.18 836.564C1245.95 837.236 1246.53 838.04 1246.91 838.976C1247.32 839.888 1247.52 840.848 1247.52 841.856V843.368H1244.5V842.072Z" fill="#FF6D7F"/>
<path d="M280.795 525.935V521.968H332.545C343.585 521.968 352.958 519.725 360.663 515.24C368.368 510.64 374.233 503.97 378.258 495.23C382.398 486.49 384.468 475.853 384.468 463.318C384.468 450.783 382.398 440.088 378.258 431.232C374.233 422.377 368.368 415.65 360.663 411.05C352.958 406.335 343.585 403.977 332.545 403.977H218.695V397.25H332.545C349.91 397.25 365.033 399.665 377.913 404.495C390.908 409.21 400.97 416.455 408.1 426.23C415.23 436.005 418.795 448.368 418.795 463.318C418.795 478.268 415.46 490.343 408.79 499.543C402.12 508.743 392.345 515.47 379.465 519.725C366.7 523.865 351.06 525.935 332.545 525.935H280.795ZM218.695 656V649.273H327.543V656H218.695ZM256.645 652.378V401.908H289.42V652.378H256.645ZM417.07 657.725C407.065 657.725 399.245 655.943 393.61 652.378C388.09 648.698 384.065 643.81 381.535 637.715C379.005 631.505 377.395 624.605 376.705 617.015C376.13 609.31 375.785 601.375 375.67 593.21C375.555 585.045 375.095 577.168 374.29 569.577C373.485 561.873 371.703 554.973 368.943 548.878C366.183 542.668 361.755 537.78 355.66 534.215C349.68 530.535 341.4 528.695 330.82 528.695H280.795V525.072H337.72C354.165 525.072 367.218 527.373 376.878 531.973C386.653 536.458 394.013 542.438 398.958 549.913C403.903 557.273 407.238 565.38 408.963 574.235C410.688 583.09 411.608 592.003 411.723 600.973C411.953 609.828 412.24 617.993 412.585 625.468C413.045 632.828 414.31 638.75 416.38 643.235C418.565 647.72 422.533 649.963 428.283 649.963C431.848 649.963 435.068 649.618 437.943 648.928C440.818 648.123 443.405 647.145 445.705 645.995L448.12 652.378C445.36 653.873 441.22 655.137 435.7 656.172C430.18 657.207 423.97 657.725 417.07 657.725Z" fill="#3C4043"/>
<path d="M602.397 659.45C596.992 659.45 591.99 658.473 587.39 656.518C582.905 654.678 579.282 651.573 576.522 647.203C573.762 642.718 572.382 636.738 572.382 629.263V550.948C572.382 542.668 571.692 534.733 570.312 527.143C568.932 519.553 566 513.343 561.515 508.513C557.145 503.683 550.36 501.268 541.16 501.268C535.985 501.268 530.58 501.843 524.945 502.993C519.425 504.143 514.25 505.925 509.42 508.34C504.705 510.64 500.852 513.573 497.862 517.137C494.872 520.702 493.377 524.9 493.377 529.73H485.27C485.27 523.865 487.167 519.265 490.962 515.93C494.872 512.48 499.127 510.755 503.727 510.755C508.672 510.755 513.157 512.365 517.182 515.585C521.322 518.69 523.392 523.175 523.392 529.04C523.392 535.94 521.265 540.942 517.01 544.048C512.87 547.153 508.442 548.705 503.727 548.705C498.437 548.705 493.952 547.095 490.272 543.875C486.707 540.655 484.925 535.94 484.925 529.73C484.925 524.325 486.65 519.495 490.1 515.24C493.665 510.87 498.38 507.19 504.245 504.2C510.225 501.095 516.895 498.738 524.255 497.128C531.73 495.403 539.377 494.54 547.197 494.54C563.067 494.54 574.912 497.3 582.732 502.82C590.667 508.34 595.957 515.413 598.602 524.038C601.247 532.663 602.57 541.633 602.57 550.948V635.818C602.57 639.613 603.202 642.833 604.467 645.478C605.847 648.123 608.665 649.445 612.92 649.445C615.91 649.445 619.187 648.238 622.752 645.823C626.432 643.293 629.25 640.13 631.205 636.335L634.482 642.545C631.492 647.375 627.295 651.4 621.89 654.62C616.485 657.84 609.987 659.45 602.397 659.45ZM522.012 659.45C507.062 659.45 495.102 655.655 486.132 648.065C477.277 640.36 472.85 629.953 472.85 616.843C472.85 601.433 479.462 589.358 492.687 580.618C505.912 571.763 524.772 567.335 549.267 567.335H588.425V573.2H549.267C539.147 573.2 530.982 575.328 524.772 579.583C518.562 583.838 514.02 589.127 511.145 595.452C508.27 601.778 506.832 608.103 506.832 614.428C506.832 620.178 507.695 625.698 509.42 630.988C511.26 636.278 514.077 640.648 517.872 644.098C521.667 647.548 526.612 649.273 532.707 649.273C539.032 649.273 545.242 647.203 551.337 643.063C557.432 638.808 562.435 632.54 566.345 624.26C570.37 615.865 572.382 605.4 572.382 592.865H576.35C576.35 605.975 574.222 617.533 569.967 627.538C565.827 637.543 559.732 645.363 551.682 650.998C543.632 656.633 533.742 659.45 522.012 659.45Z" fill="#3C4043"/>
<path d="M726.576 745.7C716.111 745.7 706.278 744.78 697.078 742.94C687.878 741.215 679.713 738.455 672.583 734.66C665.568 730.865 660.048 726.035 656.023 720.17C651.998 714.305 649.986 707.29 649.986 699.125C649.986 691.305 651.711 684.693 655.161 679.288C658.726 673.998 663.096 669.743 668.271 666.523C673.561 663.303 678.908 661.002 684.313 659.622C689.718 658.242 694.376 657.552 698.286 657.552H703.288C695.468 661.462 689.833 666.638 686.383 673.078C683.048 679.518 681.381 686.993 681.381 695.503C681.381 702.748 683.278 709.648 687.073 716.203C690.868 722.758 696.446 728.048 703.806 732.073C711.281 736.213 720.481 738.283 731.406 738.283C740.031 738.283 748.081 737.19 755.556 735.005C763.031 732.935 769.528 729.888 775.048 725.863C780.683 721.838 785.053 716.893 788.158 711.028C791.378 705.163 792.988 698.493 792.988 691.018C792.988 684.233 791.148 678.483 787.468 673.768C783.903 669.053 779.016 665.43 772.806 662.9C766.711 660.37 759.926 659.105 752.451 659.105C750.036 659.105 746.068 659.105 740.548 659.105C735.143 659.105 729.681 659.105 724.161 659.105C718.756 659.105 714.788 659.105 712.258 659.105C696.733 659.105 684.313 656.978 674.998 652.723C665.683 648.468 661.026 641.165 661.026 630.815C661.026 624.72 662.751 619.373 666.201 614.773C669.766 610.058 674.538 606.148 680.518 603.043C686.498 599.823 693.226 597.408 700.701 595.798C708.291 594.188 716.168 593.383 724.333 593.383L723.988 598.213C720.308 598.213 716.226 598.673 711.741 599.593C707.256 600.513 702.943 601.893 698.803 603.733C694.778 605.573 691.443 607.815 688.798 610.46C686.268 613.105 685.003 616.095 685.003 619.43C685.003 625.41 688.108 629.032 694.318 630.298C700.643 631.447 708.521 632.023 717.951 632.023C721.976 632.023 725.656 632.023 728.991 632.023C732.326 631.908 735.546 631.85 738.651 631.85C741.756 631.735 744.976 631.678 748.311 631.678C754.751 631.678 761.306 632.253 767.976 633.403C774.646 634.553 780.798 636.91 786.433 640.475C792.183 644.04 796.783 649.272 800.233 656.172C803.683 663.187 805.408 672.56 805.408 684.29C805.408 695.215 803.166 704.53 798.681 712.235C794.311 720.055 788.331 726.38 780.741 731.21C773.266 736.155 764.813 739.778 755.383 742.078C745.953 744.493 736.351 745.7 726.576 745.7ZM720.366 599.593C713.351 599.593 706.221 598.615 698.976 596.66C691.846 594.705 685.176 591.657 678.966 587.518C672.871 583.263 667.926 577.8 664.131 571.13C660.451 564.345 658.611 556.238 658.611 546.808C658.611 537.263 660.451 529.155 664.131 522.485C667.926 515.7 672.871 510.238 678.966 506.098C685.176 501.958 691.846 498.91 698.976 496.955C706.221 495 713.351 494.023 720.366 494.023C727.381 494.023 734.396 495 741.411 496.955C748.541 498.91 755.038 501.958 760.903 506.098C766.768 510.238 771.483 515.7 775.048 522.485C778.613 529.155 780.396 537.263 780.396 546.808C780.396 556.238 778.613 564.345 775.048 571.13C771.483 577.8 766.768 583.263 760.903 587.518C755.038 591.657 748.541 594.705 741.411 596.66C734.396 598.615 727.381 599.593 720.366 599.593ZM720.366 592.865C727.151 592.865 732.728 590.795 737.098 586.655C741.583 582.515 744.861 576.995 746.931 570.095C749.116 563.08 750.208 555.318 750.208 546.808C750.208 538.298 749.116 530.593 746.931 523.693C744.861 516.677 741.583 511.1 737.098 506.96C732.728 502.82 727.151 500.75 720.366 500.75C713.581 500.75 708.003 502.82 703.633 506.96C699.263 511.1 695.986 516.677 693.801 523.693C691.616 530.593 690.523 538.298 690.523 546.808C690.523 555.318 691.098 563.08 692.248 570.095C693.513 576.995 696.216 582.515 700.356 586.655C704.611 590.795 711.281 592.865 720.366 592.865ZM814.206 540.598C809.836 540.598 805.811 539.103 802.131 536.113C798.566 533.123 796.783 528.81 796.783 523.175C796.783 517.425 798.623 513.343 802.303 510.928C806.098 508.398 810.066 507.133 814.206 507.133C818.461 507.133 822.486 508.398 826.281 510.928C830.191 513.343 832.146 516.908 832.146 521.623H825.591C825.591 516.908 823.751 512.48 820.071 508.34C816.391 504.2 811.101 502.13 804.201 502.13C799.946 502.13 795.173 503.165 789.883 505.235C784.708 507.19 779.821 510.813 775.221 516.103C770.621 521.278 767.171 528.695 764.871 538.355L760.041 534.905C762.341 524.785 766.078 516.908 771.253 511.273C776.428 505.523 781.948 501.498 787.813 499.198C793.793 496.783 799.083 495.575 803.683 495.575C809.318 495.575 814.263 496.84 818.518 499.37C822.888 501.9 826.281 505.178 828.696 509.203C831.226 513.113 832.491 517.253 832.491 521.623C832.491 528.983 830.478 533.985 826.453 536.63C822.543 539.275 818.461 540.598 814.206 540.598Z" fill="#3C4043"/>
<path d="M859.126 659.45V609.08H866.026C867.291 617.015 870.396 624.26 875.341 630.815C880.401 637.255 886.611 642.43 893.971 646.34C901.331 650.25 909.266 652.205 917.776 652.205C924.216 652.205 930.311 651.17 936.061 649.1C941.811 647.03 946.468 643.868 950.033 639.613C953.598 635.358 955.381 629.838 955.381 623.053C955.381 615.808 953.196 610.058 948.826 605.803C944.456 601.548 938.763 598.097 931.748 595.452C924.848 592.692 917.488 590.048 909.668 587.518C901.963 584.873 894.603 581.71 887.588 578.03C880.688 574.35 874.996 569.463 870.511 563.368C866.141 557.273 863.956 549.165 863.956 539.045C863.956 531.685 865.623 524.613 868.958 517.827C872.293 510.927 877.411 505.292 884.311 500.923C891.211 496.438 900.123 494.195 911.048 494.195C918.868 494.195 926.056 495.518 932.611 498.163C939.166 500.693 944.916 504.028 949.861 508.168L962.798 494.023H968.836V542.15H961.936C961.361 535.365 958.831 528.868 954.346 522.658C949.976 516.448 944.111 511.33 936.751 507.305C929.391 503.28 920.938 501.268 911.393 501.268C905.873 501.268 900.871 502.245 896.386 504.2C891.901 506.04 888.278 508.743 885.518 512.308C882.758 515.873 881.378 520.127 881.378 525.072C881.378 531.397 883.678 536.573 888.278 540.598C892.993 544.508 898.973 547.9 906.218 550.775C913.463 553.65 921.168 556.525 929.333 559.4C937.498 562.16 945.203 565.553 952.448 569.577C959.808 573.488 965.788 578.548 970.388 584.758C974.988 590.853 977.288 598.673 977.288 608.218C977.288 618.453 974.758 627.423 969.698 635.128C964.753 642.833 958.026 648.813 949.516 653.068C941.006 657.323 931.346 659.45 920.536 659.45C912.601 659.45 905.068 658.07 897.938 655.31C890.808 652.55 884.483 648.813 878.963 644.098L864.991 659.45H859.126Z" fill="#3C4043"/>
<path d="M1060.42 658.415C1050.99 658.415 1043.86 656.345 1039.03 652.205C1034.31 647.95 1031.09 642.718 1029.37 636.508C1027.76 630.183 1026.95 623.858 1026.95 617.533V462.8C1032.13 462.8 1037.7 461.708 1043.68 459.523C1049.66 457.338 1054.38 454.98 1057.83 452.45V625.64C1057.83 634.265 1058.86 640.015 1060.93 642.89C1063.12 645.765 1066.63 647.203 1071.46 647.203C1076.86 647.203 1082.04 644.788 1086.98 639.958C1092.04 635.128 1096.12 629.665 1099.23 623.57L1104.92 627.193C1100.32 636.508 1094.51 644.04 1087.5 649.79C1080.48 655.54 1071.46 658.415 1060.42 658.415ZM1003.84 504.028V497.3H1094.74V504.028H1003.84Z" fill="#3C4043"/>
<path d="M1207.54 659.45C1191.32 659.45 1177.29 655.655 1165.45 648.065C1153.6 640.475 1144.46 630.413 1138.02 617.878C1131.58 605.343 1128.36 591.6 1128.36 576.65C1128.36 561.7 1131.58 547.958 1138.02 535.423C1144.46 522.888 1153.6 512.883 1165.45 505.408C1177.29 497.818 1191.32 494.023 1207.54 494.023C1223.75 494.023 1237.73 497.818 1249.46 505.408C1261.3 512.883 1270.39 522.888 1276.71 535.423C1283.15 547.958 1286.37 561.7 1286.37 576.65C1286.37 591.6 1283.15 605.343 1276.71 617.878C1270.39 630.413 1261.3 640.475 1249.46 648.065C1237.73 655.655 1223.75 659.45 1207.54 659.45ZM1207.54 652.723C1216.74 652.723 1224.21 650.308 1229.96 645.478C1235.83 640.648 1240.26 634.438 1243.25 626.848C1246.35 619.143 1248.42 610.863 1249.46 602.008C1250.61 593.153 1251.18 584.7 1251.18 576.65C1251.18 568.485 1250.61 560.032 1249.46 551.292C1248.42 542.438 1246.35 534.215 1243.25 526.625C1240.26 518.92 1235.83 512.653 1229.96 507.823C1224.21 502.993 1216.74 500.578 1207.54 500.578C1198.22 500.578 1190.69 502.993 1184.94 507.823C1179.19 512.653 1174.76 518.92 1171.66 526.625C1168.67 534.215 1166.6 542.438 1165.45 551.292C1164.41 560.032 1163.9 568.485 1163.9 576.65C1163.9 584.7 1164.41 593.153 1165.45 602.008C1166.6 610.863 1168.67 619.143 1171.66 626.848C1174.76 634.438 1179.19 640.648 1184.94 645.478C1190.69 650.308 1198.22 652.723 1207.54 652.723Z" fill="#3C4043"/>
<path d="M1369.36 497.3V649.273H1391.61V656H1316.57V649.273H1339.17V504.028H1316.57V497.3H1369.36ZM1474.58 545.773V649.273H1497.18V656H1421.8V649.273H1444.22V550.948C1444.22 541.288 1443.76 532.835 1442.84 525.59C1442.04 518.23 1440.14 512.538 1437.15 508.513C1434.16 504.373 1429.5 502.303 1423.18 502.303C1413.86 502.303 1405.81 504.833 1399.03 509.893C1392.24 514.953 1386.67 521.45 1382.3 529.385C1377.93 537.205 1374.65 545.543 1372.46 554.398C1370.39 563.138 1369.36 571.188 1369.36 578.548L1365.05 579.41C1365.05 571.82 1366.02 563.195 1367.98 553.535C1370.05 543.76 1373.44 534.33 1378.16 525.245C1382.87 516.16 1389.25 508.685 1397.3 502.82C1405.35 496.955 1415.47 494.023 1427.66 494.023C1440.89 494.023 1450.84 496.265 1457.51 500.75C1464.29 505.235 1468.83 511.388 1471.13 519.208C1473.43 526.913 1474.58 535.768 1474.58 545.773Z" fill="#3C4043"/>
<path d="M1605.58 659.45C1590.86 659.45 1577.58 656.173 1565.73 649.618C1554 642.948 1544.63 633.46 1537.62 621.155C1530.72 608.735 1527.27 593.9 1527.27 576.65C1527.27 559.4 1530.54 544.623 1537.1 532.318C1543.65 519.898 1552.62 510.41 1564.01 503.855C1575.51 497.3 1588.68 494.023 1603.51 494.023C1620.19 494.023 1633.47 497.358 1643.36 504.028C1653.36 510.583 1660.55 519.265 1664.92 530.075C1669.41 540.885 1671.65 552.558 1671.65 565.093H1550.55V558.365H1635.08C1635.08 552.615 1634.73 546.405 1634.04 539.735C1633.47 533.065 1632.15 526.798 1630.08 520.933C1628.01 514.953 1624.84 510.065 1620.59 506.27C1616.45 502.475 1610.76 500.578 1603.51 500.578C1595.23 500.578 1588.45 502.705 1583.16 506.96C1577.87 511.1 1573.73 516.735 1570.74 523.865C1567.75 530.995 1565.68 539.103 1564.53 548.188C1563.38 557.273 1562.8 566.76 1562.8 576.65C1562.8 586.54 1563.43 596.028 1564.7 605.113C1566.08 614.083 1568.38 622.075 1571.6 629.09C1574.93 636.105 1579.48 641.683 1585.23 645.823C1591.09 649.963 1598.51 652.033 1607.48 652.033C1622.89 652.033 1635.48 648.18 1645.26 640.475C1655.03 632.655 1662.1 622.823 1666.47 610.978H1674.24C1669.75 624.893 1661.87 636.45 1650.6 645.65C1639.33 654.85 1624.33 659.45 1605.58 659.45Z" fill="#3C4043"/>
<path d="M444.532 809.696C445.564 809.696 446.44 809.528 447.16 809.192C447.904 808.832 448.504 808.364 448.96 807.788C449.44 807.188 449.788 806.516 450.004 805.772C450.244 805.004 450.364 804.2 450.364 803.36V802.928H453.388V803.36C453.388 804.632 453.196 805.832 452.812 806.96C452.428 808.064 451.864 809.036 451.12 809.876C450.376 810.692 449.452 811.34 448.348 811.82C447.244 812.276 445.972 812.504 444.532 812.504C441.748 812.504 439.576 811.628 438.016 809.876C436.456 808.124 435.676 805.568 435.676 802.208V796.592C435.676 793.328 436.456 790.796 438.016 788.996C439.576 787.196 441.748 786.296 444.532 786.296C445.972 786.296 447.244 786.536 448.348 787.016C449.452 787.472 450.376 788.12 451.12 788.96C451.864 789.776 452.428 790.748 452.812 791.876C453.196 792.98 453.388 794.168 453.388 795.44V795.872H450.364V795.44C450.34 794.624 450.208 793.832 449.968 793.064C449.752 792.296 449.404 791.624 448.924 791.048C448.468 790.448 447.88 789.98 447.16 789.644C446.44 789.284 445.564 789.104 444.532 789.104C442.588 789.104 441.124 789.812 440.14 791.228C439.18 792.644 438.7 794.504 438.7 796.808V801.992C438.7 804.464 439.18 806.372 440.14 807.716C441.124 809.036 442.588 809.696 444.532 809.696Z" fill="#FF6D7F"/>
<path d="M458.547 786.8H461.571V809.192H474.747V812H458.547V786.8Z" fill="#FF6D7F"/>
<path d="M479.618 796.592C479.618 793.328 480.398 790.796 481.958 788.996C483.518 787.196 485.69 786.296 488.474 786.296C491.258 786.296 493.43 787.196 494.99 788.996C496.55 790.796 497.33 793.328 497.33 796.592V802.208C497.33 805.568 496.55 808.124 494.99 809.876C493.43 811.628 491.258 812.504 488.474 812.504C485.69 812.504 483.518 811.628 481.958 809.876C480.398 808.124 479.618 805.568 479.618 802.208V796.592ZM488.474 809.696C490.418 809.696 491.87 809.036 492.83 807.716C493.814 806.372 494.306 804.464 494.306 801.992V796.808C494.306 794.504 493.814 792.644 492.83 791.228C491.87 789.812 490.418 789.104 488.474 789.104C486.53 789.104 485.066 789.812 484.082 791.228C483.122 792.644 482.642 794.504 482.642 796.808V801.992C482.642 804.464 483.122 806.372 484.082 807.716C485.066 809.036 486.53 809.696 488.474 809.696Z" fill="#FF6D7F"/>
<path d="M516.457 794.072C516.457 793.256 516.289 792.536 515.953 791.912C515.641 791.288 515.209 790.772 514.657 790.364C514.105 789.956 513.469 789.644 512.749 789.428C512.029 789.212 511.273 789.104 510.481 789.104C509.785 789.104 509.125 789.2 508.501 789.392C507.877 789.56 507.313 789.812 506.809 790.148C506.329 790.484 505.945 790.904 505.657 791.408C505.369 791.888 505.225 792.452 505.225 793.1V793.316C505.225 794.012 505.369 794.612 505.657 795.116C505.945 795.596 506.365 796.016 506.917 796.376C507.493 796.712 508.201 797 509.041 797.24C509.881 797.456 510.865 797.648 511.993 797.816C514.633 798.224 516.577 799.004 517.825 800.156C519.073 801.284 519.697 802.808 519.697 804.728V805.16C519.697 806.24 519.505 807.236 519.121 808.148C518.761 809.036 518.209 809.804 517.465 810.452C516.745 811.1 515.845 811.604 514.765 811.964C513.685 812.324 512.437 812.504 511.021 812.504C509.413 812.504 507.985 812.276 506.737 811.82C505.513 811.34 504.481 810.692 503.641 809.876C502.825 809.036 502.201 808.064 501.769 806.96C501.337 805.832 501.121 804.608 501.121 803.288V802.208H504.145V803.072C504.145 805.28 504.745 806.936 505.945 808.04C507.169 809.144 508.861 809.696 511.021 809.696C512.893 809.696 514.297 809.288 515.233 808.472C516.193 807.632 516.673 806.528 516.673 805.16V804.944C516.673 803.624 516.181 802.616 515.197 801.92C514.237 801.224 512.665 800.72 510.481 800.408C509.209 800.24 508.057 799.988 507.025 799.652C506.017 799.292 505.153 798.836 504.433 798.284C503.713 797.708 503.161 797.024 502.777 796.232C502.393 795.44 502.201 794.504 502.201 793.424V792.992C502.201 792.008 502.405 791.108 502.813 790.292C503.221 789.476 503.785 788.768 504.505 788.168C505.249 787.568 506.125 787.112 507.133 786.8C508.165 786.464 509.293 786.296 510.517 786.296C511.933 786.296 513.193 786.5 514.297 786.908C515.425 787.316 516.373 787.868 517.141 788.564C517.909 789.236 518.485 790.04 518.869 790.976C519.277 791.888 519.481 792.848 519.481 793.856V795.368H516.457V794.072Z" fill="#FF6D7F"/>
<path d="M524.928 786.8H540.192V789.608H527.952V797.96H539.976V800.768H527.952V809.192H540.408V812H524.928V786.8Z" fill="#FF6D7F"/>
<path d="M546.215 786.8H554.495C557.615 786.8 559.895 787.544 561.335 789.032C562.775 790.52 563.495 792.896 563.495 796.16V802.64C563.495 805.904 562.775 808.28 561.335 809.768C559.895 811.256 557.615 812 554.495 812H546.215V809.156H548.375V789.608H546.215V786.8ZM554.063 809.192C555.167 809.192 556.115 809.084 556.907 808.868C557.723 808.652 558.395 808.292 558.923 807.788C559.451 807.26 559.835 806.564 560.075 805.7C560.339 804.836 560.471 803.744 560.471 802.424V796.376C560.471 795.056 560.339 793.964 560.075 793.1C559.835 792.236 559.451 791.552 558.923 791.048C558.395 790.52 557.723 790.148 556.907 789.932C556.115 789.716 555.167 789.608 554.063 789.608H551.399V809.192H554.063Z" fill="#FF6D7F"/>
<path d="M416.724 853.736H405.924L404.088 860H400.848L408.48 834.8H414.168L421.8 860H418.56L416.724 853.736ZM411.108 836.096L406.752 850.928H415.896L411.54 836.096H411.108Z" fill="#FF6D7F"/>
<path d="M428.435 849.632V860H425.411V834.8H434.411C435.707 834.8 436.835 834.992 437.795 835.376C438.755 835.736 439.547 836.228 440.171 836.852C440.819 837.476 441.299 838.208 441.611 839.048C441.947 839.864 442.115 840.728 442.115 841.64V842.72C442.115 843.632 441.947 844.508 441.611 845.348C441.299 846.188 440.819 846.932 440.171 847.58C439.523 848.204 438.719 848.708 437.759 849.092C436.799 849.452 435.683 849.632 434.411 849.632H428.435ZM428.435 846.824H434.051C437.411 846.824 439.091 845.384 439.091 842.504V841.856C439.091 840.584 438.671 839.564 437.831 838.796C437.015 838.004 435.755 837.608 434.051 837.608H428.435V846.824Z" fill="#FF6D7F"/>
<path d="M447.778 834.8H463.042V837.608H450.802V845.96H462.826V848.768H450.802V857.192H463.258V860H447.778V834.8Z" fill="#FF6D7F"/>
<path d="M485.337 860H482.313V851.576C482.313 850.952 482.169 850.472 481.881 850.136C481.593 849.8 481.089 849.632 480.369 849.632H472.521V860H469.497V834.8H478.497C479.793 834.8 480.921 834.992 481.881 835.376C482.841 835.736 483.633 836.228 484.257 836.852C484.905 837.476 485.385 838.208 485.697 839.048C486.033 839.864 486.201 840.728 486.201 841.64V842.72C486.201 843.656 485.937 844.592 485.409 845.528C484.905 846.464 484.113 847.184 483.033 847.688V848.12C483.753 848.24 484.317 848.528 484.725 848.984C485.133 849.44 485.337 850.088 485.337 850.928V860ZM472.521 846.824H478.137C479.841 846.824 481.101 846.464 481.917 845.744C482.757 845 483.177 843.92 483.177 842.504V841.856C483.177 840.584 482.757 839.564 481.917 838.796C481.101 838.004 479.841 837.608 478.137 837.608H472.521V846.824Z" fill="#FF6D7F"/>
<path d="M490.64 834.8H508.352V837.608H501.008V860H497.984V837.608H490.64V834.8Z" fill="#FF6D7F"/>
<path d="M515.923 834.8V851.504C515.923 853.544 516.39 855.092 517.326 856.148C518.287 857.18 519.69 857.696 521.538 857.696C523.386 857.696 524.779 857.18 525.715 856.148C526.675 855.092 527.155 853.544 527.155 851.504V834.8H530.179V851.504C530.179 854.432 529.41 856.664 527.874 858.2C526.338 859.736 524.226 860.504 521.538 860.504C518.85 860.504 516.738 859.736 515.202 858.2C513.666 856.664 512.898 854.432 512.898 851.504V834.8H515.923Z" fill="#FF6D7F"/>
<path d="M551.465 860H548.441V851.576C548.441 850.952 548.297 850.472 548.009 850.136C547.721 849.8 547.217 849.632 546.497 849.632H538.649V860H535.625V834.8H544.625C545.921 834.8 547.049 834.992 548.009 835.376C548.969 835.736 549.761 836.228 550.385 836.852C551.033 837.476 551.513 838.208 551.825 839.048C552.161 839.864 552.329 840.728 552.329 841.64V842.72C552.329 843.656 552.065 844.592 551.537 845.528C551.033 846.464 550.241 847.184 549.161 847.688V848.12C549.881 848.24 550.445 848.528 550.853 848.984C551.261 849.44 551.465 850.088 551.465 850.928V860ZM538.649 846.824H544.265C545.969 846.824 547.229 846.464 548.045 845.744C548.885 845 549.305 843.92 549.305 842.504V841.856C549.305 840.584 548.885 839.564 548.045 838.796C547.229 838.004 545.969 837.608 544.265 837.608H538.649V846.824Z" fill="#FF6D7F"/>
<path d="M557.992 834.8H573.256V837.608H561.016V845.96H573.04V848.768H561.016V857.192H573.472V860H557.992V834.8Z" fill="#FF6D7F"/>
<path d="M593.607 842.072C593.607 841.256 593.439 840.536 593.103 839.912C592.791 839.288 592.359 838.772 591.807 838.364C591.255 837.956 590.619 837.644 589.899 837.428C589.179 837.212 588.423 837.104 587.631 837.104C586.935 837.104 586.275 837.2 585.651 837.392C585.027 837.56 584.463 837.812 583.959 838.148C583.479 838.484 583.095 838.904 582.807 839.408C582.519 839.888 582.375 840.452 582.375 841.1V841.316C582.375 842.012 582.519 842.612 582.807 843.116C583.095 843.596 583.515 844.016 584.067 844.376C584.643 844.712 585.351 845 586.191 845.24C587.031 845.456 588.015 845.648 589.143 845.816C591.783 846.224 593.727 847.004 594.975 848.156C596.223 849.284 596.847 850.808 596.847 852.728V853.16C596.847 854.24 596.655 855.236 596.271 856.148C595.911 857.036 595.359 857.804 594.615 858.452C593.895 859.1 592.995 859.604 591.915 859.964C590.835 860.324 589.587 860.504 588.171 860.504C586.563 860.504 585.135 860.276 583.887 859.82C582.663 859.34 581.631 858.692 580.791 857.876C579.975 857.036 579.351 856.064 578.919 854.96C578.487 853.832 578.271 852.608 578.271 851.288V850.208H581.295V851.072C581.295 853.28 581.895 854.936 583.095 856.04C584.319 857.144 586.011 857.696 588.171 857.696C590.043 857.696 591.447 857.288 592.383 856.472C593.343 855.632 593.823 854.528 593.823 853.16V852.944C593.823 851.624 593.331 850.616 592.347 849.92C591.387 849.224 589.815 848.72 587.631 848.408C586.359 848.24 585.207 847.988 584.175 847.652C583.167 847.292 582.303 846.836 581.583 846.284C580.863 845.708 580.311 845.024 579.927 844.232C579.543 843.44 579.351 842.504 579.351 841.424V840.992C579.351 840.008 579.555 839.108 579.963 838.292C580.371 837.476 580.935 836.768 581.655 836.168C582.399 835.568 583.275 835.112 584.283 834.8C585.315 834.464 586.443 834.296 587.667 834.296C589.083 834.296 590.343 834.5 591.447 834.908C592.575 835.316 593.523 835.868 594.291 836.564C595.059 837.236 595.635 838.04 596.019 838.976C596.427 839.888 596.631 840.848 596.631 841.856V843.368H593.607V842.072Z" fill="#FF6D7F"/>
<path fill-rule="evenodd" clip-rule="evenodd" d="M1205 754L1205 382L1209 382L1209 754L1205 754Z" fill="#FF6D7F"/>
<path fill-rule="evenodd" clip-rule="evenodd" d="M496.999 572.479C492.064 571.543 488.332 567.207 488.332 562C488.332 556.109 493.108 551.333 498.999 551.333C504.89 551.333 509.665 556.109 509.665 562C509.665 567.207 505.934 571.543 500.999 572.479V755H496.999V572.479Z" fill="#FF6D7F"/>
<circle cx="73" cy="76" r="24" fill="#D2E3FC"/>
<path d="M70.9825 83.464V65.176H70.3345L67.9585 73.816H63.4225V73.384L66.4465 62.8H75.7345V83.464H81.9985V88H63.8545V83.464H70.9825Z" fill="#1A73E8"/>
<path d="M127.9 88H124.876V79.576C124.876 78.952 124.732 78.472 124.444 78.136C124.156 77.8 123.652 77.632 122.932 77.632H115.084V88H112.06V62.8H121.06C122.356 62.8 123.484 62.992 124.444 63.376C125.404 63.736 126.196 64.228 126.82 64.852C127.468 65.476 127.948 66.208 128.26 67.048C128.596 67.864 128.764 68.728 128.764 69.64V70.72C128.764 71.656 128.5 72.592 127.972 73.528C127.468 74.464 126.676 75.184 125.596 75.688V76.12C126.316 76.24 126.88 76.528 127.288 76.984C127.696 77.44 127.9 78.088 127.9 78.928V88ZM115.084 74.824H120.7C122.404 74.824 123.664 74.464 124.48 73.744C125.32 73 125.74 71.92 125.74 70.504V69.856C125.74 68.584 125.32 67.564 124.48 66.796C123.664 66.004 122.404 65.608 120.7 65.608H115.084V74.824ZM147.459 81.736H136.659L134.823 88H131.583L139.215 62.8H144.903L152.535 88H149.295L147.459 81.736ZM141.843 64.096L137.487 78.928H146.631L142.275 64.096H141.843ZM155.246 62.8H172.958V65.608H165.614V88H162.59V65.608H155.246V62.8ZM178.153 62.8H194.137V65.608H187.657V85.192H194.137V88H178.153V85.192H184.633V65.608H178.153V62.8ZM199.332 72.592C199.332 69.328 200.112 66.796 201.672 64.996C203.232 63.196 205.404 62.296 208.188 62.296C210.972 62.296 213.144 63.196 214.704 64.996C216.264 66.796 217.044 69.328 217.044 72.592V78.208C217.044 81.568 216.264 84.124 214.704 85.876C213.144 87.628 210.972 88.504 208.188 88.504C205.404 88.504 203.232 87.628 201.672 85.876C200.112 84.124 199.332 81.568 199.332 78.208V72.592ZM208.188 85.696C210.132 85.696 211.584 85.036 212.544 83.716C213.528 82.372 214.02 80.464 214.02 77.992V72.808C214.02 70.504 213.528 68.644 212.544 67.228C211.584 65.812 210.132 65.104 208.188 65.104C206.244 65.104 204.78 65.812 203.796 67.228C202.836 68.644 202.356 70.504 202.356 72.808V77.992C202.356 80.464 202.836 82.372 203.796 83.716C204.78 85.036 206.244 85.696 208.188 85.696ZM235.163 86.704H235.595V62.8H238.619V88H232.571L225.299 64.096H224.867V88H221.843V62.8H227.891L235.163 86.704ZM257.674 81.736H246.874L245.038 88H241.798L249.43 62.8H255.118L262.75 88H259.51L257.674 81.736ZM252.058 64.096L247.702 78.928H256.846L252.49 64.096H252.058ZM266.433 62.8H269.457V85.192H282.633V88H266.433V62.8Z" fill="#1A73E8"/>
<circle cx="344" cy="76" r="24" fill="#D2E3FC"/>
<path d="M352.531 83.464V88H334.819V83.032C334.819 81.712 335.011 80.584 335.395 79.648C335.803 78.712 336.367 77.92 337.087 77.272C337.831 76.624 338.719 76.096 339.751 75.688C340.783 75.256 341.947 74.896 343.243 74.608C344.203 74.392 344.983 74.152 345.583 73.888C346.207 73.6 346.699 73.288 347.059 72.952C347.419 72.592 347.659 72.208 347.779 71.8C347.923 71.368 347.995 70.888 347.995 70.36C347.995 69.352 347.623 68.512 346.879 67.84C346.159 67.168 345.151 66.832 343.855 66.832C342.487 66.832 341.395 67.252 340.579 68.092C339.763 68.908 339.355 70.048 339.355 71.512V73.096H334.603V71.08C334.603 69.904 334.807 68.788 335.215 67.732C335.647 66.652 336.247 65.716 337.015 64.924C337.807 64.108 338.767 63.472 339.895 63.016C341.023 62.536 342.295 62.296 343.711 62.296C345.223 62.296 346.543 62.524 347.671 62.98C348.799 63.412 349.735 63.988 350.479 64.708C351.247 65.428 351.811 66.268 352.171 67.228C352.555 68.164 352.747 69.136 352.747 70.144V70.576C352.747 72.688 352.147 74.44 350.947 75.832C349.771 77.224 347.839 78.232 345.151 78.856C344.023 79.12 343.087 79.396 342.343 79.684C341.623 79.948 341.059 80.248 340.651 80.584C340.243 80.92 339.955 81.292 339.787 81.7C339.643 82.084 339.571 82.528 339.571 83.032V83.464H352.531Z" fill="#1A73E8"/>
<path d="M391.16 85.696C392.192 85.696 393.068 85.528 393.788 85.192C394.532 84.832 395.132 84.364 395.588 83.788C396.068 83.188 396.416 82.516 396.632 81.772C396.872 81.004 396.992 80.2 396.992 79.36V78.928H400.016V79.36C400.016 80.632 399.824 81.832 399.44 82.96C399.056 84.064 398.492 85.036 397.748 85.876C397.004 86.692 396.08 87.34 394.976 87.82C393.872 88.276 392.6 88.504 391.16 88.504C388.376 88.504 386.204 87.628 384.644 85.876C383.084 84.124 382.304 81.568 382.304 78.208V72.592C382.304 69.328 383.084 66.796 384.644 64.996C386.204 63.196 388.376 62.296 391.16 62.296C392.6 62.296 393.872 62.536 394.976 63.016C396.08 63.472 397.004 64.12 397.748 64.96C398.492 65.776 399.056 66.748 399.44 67.876C399.824 68.98 400.016 70.168 400.016 71.44V71.872H396.992V71.44C396.968 70.624 396.836 69.832 396.596 69.064C396.38 68.296 396.032 67.624 395.552 67.048C395.096 66.448 394.508 65.98 393.788 65.644C393.068 65.284 392.192 65.104 391.16 65.104C389.216 65.104 387.752 65.812 386.768 67.228C385.808 68.644 385.328 70.504 385.328 72.808V77.992C385.328 80.464 385.808 82.372 386.768 83.716C387.752 85.036 389.216 85.696 391.16 85.696ZM404.203 72.592C404.203 69.328 404.983 66.796 406.543 64.996C408.103 63.196 410.275 62.296 413.059 62.296C415.843 62.296 418.015 63.196 419.575 64.996C421.135 66.796 421.915 69.328 421.915 72.592V78.208C421.915 81.568 421.135 84.124 419.575 85.876C418.015 87.628 415.843 88.504 413.059 88.504C410.275 88.504 408.103 87.628 406.543 85.876C404.983 84.124 404.203 81.568 404.203 78.208V72.592ZM413.059 85.696C415.003 85.696 416.455 85.036 417.415 83.716C418.399 82.372 418.891 80.464 418.891 77.992V72.808C418.891 70.504 418.399 68.644 417.415 67.228C416.455 65.812 415.003 65.104 413.059 65.104C411.115 65.104 409.651 65.812 408.667 67.228C407.707 68.644 407.227 70.504 407.227 72.808V77.992C407.227 80.464 407.707 82.372 408.667 83.716C409.651 85.036 411.115 85.696 413.059 85.696ZM440.034 86.704H440.466V62.8H443.49V88H437.442L430.17 64.096H429.738V88H426.714V62.8H432.762L440.034 86.704ZM448.289 62.8H466.001V65.608H458.657V88H455.633V65.608H448.289V62.8ZM487.072 88H484.048V79.576C484.048 78.952 483.904 78.472 483.616 78.136C483.328 77.8 482.824 77.632 482.104 77.632H474.256V88H471.232V62.8H480.232C481.528 62.8 482.656 62.992 483.616 63.376C484.576 63.736 485.368 64.228 485.992 64.852C486.64 65.476 487.12 66.208 487.432 67.048C487.768 67.864 487.936 68.728 487.936 69.64V70.72C487.936 71.656 487.672 72.592 487.144 73.528C486.64 74.464 485.848 75.184 484.768 75.688V76.12C485.488 76.24 486.052 76.528 486.46 76.984C486.868 77.44 487.072 78.088 487.072 78.928V88ZM474.256 74.824H479.872C481.576 74.824 482.836 74.464 483.652 73.744C484.492 73 484.912 71.92 484.912 70.504V69.856C484.912 68.584 484.492 67.564 483.652 66.796C482.836 66.004 481.576 65.608 479.872 65.608H474.256V74.824ZM506.631 81.736H495.831L493.995 88H490.755L498.387 62.8H504.075L511.707 88H508.467L506.631 81.736ZM501.015 64.096L496.659 78.928H505.803L501.447 64.096H501.015ZM529.214 70.072C529.214 69.256 529.046 68.536 528.71 67.912C528.398 67.288 527.966 66.772 527.414 66.364C526.862 65.956 526.226 65.644 525.506 65.428C524.786 65.212 524.03 65.104 523.238 65.104C522.542 65.104 521.882 65.2 521.258 65.392C520.634 65.56 520.07 65.812 519.566 66.148C519.086 66.484 518.702 66.904 518.414 67.408C518.126 67.888 517.982 68.452 517.982 69.1V69.316C517.982 70.012 518.126 70.612 518.414 71.116C518.702 71.596 519.122 72.016 519.674 72.376C520.25 72.712 520.958 73 521.798 73.24C522.638 73.456 523.622 73.648 524.75 73.816C527.39 74.224 529.334 75.004 530.582 76.156C531.83 77.284 532.454 78.808 532.454 80.728V81.16C532.454 82.24 532.262 83.236 531.878 84.148C531.518 85.036 530.966 85.804 530.222 86.452C529.502 87.1 528.602 87.604 527.522 87.964C526.442 88.324 525.194 88.504 523.778 88.504C522.17 88.504 520.742 88.276 519.494 87.82C518.27 87.34 517.238 86.692 516.398 85.876C515.582 85.036 514.958 84.064 514.526 82.96C514.094 81.832 513.878 80.608 513.878 79.288V78.208H516.902V79.072C516.902 81.28 517.502 82.936 518.702 84.04C519.926 85.144 521.618 85.696 523.778 85.696C525.65 85.696 527.054 85.288 527.99 84.472C528.95 83.632 529.43 82.528 529.43 81.16V80.944C529.43 79.624 528.938 78.616 527.954 77.92C526.994 77.224 525.422 76.72 523.238 76.408C521.966 76.24 520.814 75.988 519.782 75.652C518.774 75.292 517.91 74.836 517.19 74.284C516.47 73.708 515.918 73.024 515.534 72.232C515.15 71.44 514.958 70.504 514.958 69.424V68.992C514.958 68.008 515.162 67.108 515.57 66.292C515.978 65.476 516.542 64.768 517.262 64.168C518.006 63.568 518.882 63.112 519.89 62.8C520.922 62.464 522.05 62.296 523.274 62.296C524.69 62.296 525.95 62.5 527.054 62.908C528.182 63.316 529.13 63.868 529.898 64.564C530.666 65.236 531.242 66.04 531.626 66.976C532.034 67.888 532.238 68.848 532.238 69.856V71.368H529.214V70.072ZM536.461 62.8H554.173V65.608H546.829V88H543.805V65.608H536.461V62.8ZM559.368 62.8H575.352V65.608H568.872V85.192H575.352V88H559.368V85.192H565.848V65.608H559.368V62.8ZM594.335 86.704H594.767V62.8H597.791V88H591.743L584.471 64.096H584.039V88H581.015V62.8H587.063L594.335 86.704ZM609.034 75.904H620.266V88H617.458V84.976H617.026C616.618 86.032 615.898 86.884 614.866 87.532C613.834 88.18 612.634 88.504 611.266 88.504C608.554 88.504 606.418 87.628 604.858 85.876C603.322 84.124 602.554 81.568 602.554 78.208V72.592C602.554 69.328 603.334 66.796 604.894 64.996C606.454 63.196 608.626 62.296 611.41 62.296C612.85 62.296 614.122 62.536 615.226 63.016C616.33 63.472 617.254 64.12 617.998 64.96C618.742 65.776 619.306 66.748 619.69 67.876C620.074 68.98 620.266 70.168 620.266 71.44V71.872H617.242V71.44C617.242 70.624 617.122 69.832 616.882 69.064C616.666 68.296 616.318 67.624 615.838 67.048C615.382 66.448 614.782 65.98 614.038 65.644C613.318 65.284 612.442 65.104 611.41 65.104C609.466 65.104 608.002 65.812 607.018 67.228C606.058 68.644 605.578 70.504 605.578 72.808V77.992C605.578 80.464 606.058 82.372 607.018 83.716C608.002 85.036 609.49 85.696 611.482 85.696C613.282 85.696 614.686 85.12 615.694 83.968C616.726 82.816 617.242 81.208 617.242 79.144V78.712H609.034V75.904ZM661.472 70.072C661.472 69.256 661.304 68.536 660.968 67.912C660.656 67.288 660.224 66.772 659.672 66.364C659.12 65.956 658.484 65.644 657.764 65.428C657.044 65.212 656.288 65.104 655.496 65.104C654.8 65.104 654.14 65.2 653.516 65.392C652.892 65.56 652.328 65.812 651.824 66.148C651.344 66.484 650.96 66.904 650.672 67.408C650.384 67.888 650.24 68.452 650.24 69.1V69.316C650.24 70.012 650.384 70.612 650.672 71.116C650.96 71.596 651.38 72.016 651.932 72.376C652.508 72.712 653.216 73 654.056 73.24C654.896 73.456 655.88 73.648 657.008 73.816C659.648 74.224 661.592 75.004 662.84 76.156C664.088 77.284 664.712 78.808 664.712 80.728V81.16C664.712 82.24 664.52 83.236 664.136 84.148C663.776 85.036 663.224 85.804 662.48 86.452C661.76 87.1 660.86 87.604 659.78 87.964C658.7 88.324 657.452 88.504 656.036 88.504C654.428 88.504 653 88.276 651.752 87.82C650.528 87.34 649.496 86.692 648.656 85.876C647.84 85.036 647.216 84.064 646.784 82.96C646.352 81.832 646.136 80.608 646.136 79.288V78.208H649.16V79.072C649.16 81.28 649.76 82.936 650.96 84.04C652.184 85.144 653.876 85.696 656.036 85.696C657.908 85.696 659.312 85.288 660.248 84.472C661.208 83.632 661.688 82.528 661.688 81.16V80.944C661.688 79.624 661.196 78.616 660.212 77.92C659.252 77.224 657.68 76.72 655.496 76.408C654.224 76.24 653.072 75.988 652.04 75.652C651.032 75.292 650.168 74.836 649.448 74.284C648.728 73.708 648.176 73.024 647.792 72.232C647.408 71.44 647.216 70.504 647.216 69.424V68.992C647.216 68.008 647.42 67.108 647.828 66.292C648.236 65.476 648.8 64.768 649.52 64.168C650.264 63.568 651.14 63.112 652.148 62.8C653.18 62.464 654.308 62.296 655.532 62.296C656.948 62.296 658.208 62.5 659.312 62.908C660.44 63.316 661.388 63.868 662.156 64.564C662.924 65.236 663.5 66.04 663.884 66.976C664.292 67.888 664.496 68.848 664.496 69.856V71.368H661.472V70.072ZM669.943 62.8H685.207V65.608H672.967V73.96H684.991V76.768H672.967V85.192H685.423V88H669.943V62.8ZM707.502 88H704.478V79.576C704.478 78.952 704.334 78.472 704.046 78.136C703.758 77.8 703.254 77.632 702.534 77.632H694.686V88H691.662V62.8H700.662C701.958 62.8 703.086 62.992 704.046 63.376C705.006 63.736 705.798 64.228 706.422 64.852C707.07 65.476 707.55 66.208 707.862 67.048C708.198 67.864 708.366 68.728 708.366 69.64V70.72C708.366 71.656 708.102 72.592 707.574 73.528C707.07 74.464 706.278 75.184 705.198 75.688V76.12C705.918 76.24 706.482 76.528 706.89 76.984C707.298 77.44 707.502 78.088 707.502 78.928V88ZM694.686 74.824H700.302C702.006 74.824 703.266 74.464 704.082 73.744C704.922 73 705.342 71.92 705.342 70.504V69.856C705.342 68.584 704.922 67.564 704.082 66.796C703.266 66.004 702.006 65.608 700.302 65.608H694.686V74.824ZM713.669 62.8H729.653V65.608H723.173V85.192H729.653V88H713.669V85.192H720.149V65.608H713.669V62.8ZM736.108 62.8H751.588V65.608H739.132V73.96H751.372V76.768H739.132V88H736.108V62.8Z" fill="#1A73E8"/>
</svg>
