<svg width="1920" height="1080" viewBox="0 0 1920 1080" fill="none" xmlns="http://www.w3.org/2000/svg">
<path fill-rule="evenodd" clip-rule="evenodd" d="M1676 591.521C1671.06 592.457 1667.33 596.793 1667.33 602C1667.33 607.891 1672.11 612.667 1678 612.667C1683.89 612.667 1688.67 607.891 1688.67 602C1688.67 596.793 1684.93 592.457 1680 591.521V342.5H1676V591.521Z" fill="#FF6D7F"/>
<path opacity="0.4" d="M1710 602C1710 619.673 1695.67 634 1678 634C1660.33 634 1646 619.673 1646 602C1646 584.327 1660.33 570 1678 570C1695.67 570 1710 584.327 1710 602Z" fill="#FF6D7F"/>
<path d="M216.605 655V633.836L243.984 629.133V436.473L216.605 431.77V410.605H325.617C343.422 410.605 358.427 413.293 370.633 418.668C382.951 423.931 392.301 431.602 398.684 441.68C405.066 451.758 408.258 464.076 408.258 478.633C408.258 492.966 405.122 505.004 398.852 514.746C392.693 524.488 383.902 531.879 372.48 536.918C361.059 541.845 347.509 544.477 331.832 544.812L277.074 545.82V629.133L304.453 633.836V655H216.605ZM378.023 655L323.602 532.887L356.691 532.551L401.875 630.309L418.84 633.332V655H378.023ZM277.074 519.785H322.258C340.734 519.785 354.172 516.258 362.57 509.203C370.969 502.148 375.168 491.846 375.168 478.297C375.168 465.419 371.137 455.229 363.074 447.727C355.012 440.224 342.526 436.473 325.617 436.473H277.074V519.785Z" fill="#3C4043"/>
<path d="M507.023 658.527C488.099 658.527 473.71 653.936 463.855 644.754C454.001 635.46 449.074 622.414 449.074 605.617C449.074 594.083 452.21 584.061 458.48 575.551C464.863 566.928 474.046 560.266 486.027 555.562C498.009 550.747 512.342 548.34 529.027 548.34H561.445V530.535C561.445 519.561 558.086 511.051 551.367 505.004C544.76 498.957 535.41 495.934 523.316 495.934C515.702 495.934 509.095 496.885 503.496 498.789C497.897 500.581 492.802 503.1 488.211 506.348L484.684 531.711H459.152V490.055C467.327 483.448 476.845 478.465 487.707 475.105C498.569 471.634 510.607 469.898 523.82 469.898C545.88 469.898 563.181 475.161 575.723 485.688C588.264 496.214 594.535 511.275 594.535 530.871V618.383C594.535 620.734 594.535 623.03 594.535 625.27C594.647 627.509 594.815 629.749 595.039 631.988L612.676 633.836V655H565.141C564.133 650.073 563.349 645.65 562.789 641.73C562.229 637.811 561.837 633.892 561.613 629.973C555.23 638.147 547.224 644.978 537.594 650.465C528.076 655.84 517.885 658.527 507.023 658.527ZM511.895 630.812C522.868 630.812 532.891 628.181 541.961 622.918C551.031 617.655 557.526 611.328 561.445 603.938V571.016H527.852C512.622 571.016 501.201 574.655 493.586 581.934C485.971 589.212 482.164 597.331 482.164 606.289C482.164 614.24 484.628 620.342 489.555 624.598C494.482 628.741 501.928 630.812 511.895 630.812Z" fill="#3C4043"/>
<path d="M718.16 728.402C709.426 728.402 699.964 727.171 689.773 724.707C679.583 722.355 670.625 719.108 662.898 714.965L671.465 689.266C677.624 692.513 684.902 695.201 693.301 697.328C701.699 699.456 709.874 700.52 717.824 700.52C732.605 700.52 743.411 696.376 750.242 688.09C757.185 679.803 760.656 667.99 760.656 652.648V635.348C754.721 642.962 747.611 648.729 739.324 652.648C731.038 656.568 721.52 658.527 710.77 658.527C695.988 658.527 683.223 654.888 672.473 647.609C661.723 640.219 653.436 629.973 647.613 616.871C641.902 603.658 639.047 588.372 639.047 571.016V567.488C639.047 548.004 641.902 530.927 647.613 516.258C653.436 501.589 661.723 490.223 672.473 482.16C683.223 473.986 696.1 469.898 711.105 469.898C722.527 469.898 732.549 472.138 741.172 476.617C749.794 481.096 757.017 487.591 762.84 496.102L765.863 473.258H793.746V652.648C793.746 668.326 790.779 681.819 784.844 693.129C779.021 704.439 770.454 713.117 759.145 719.164C747.947 725.323 734.285 728.402 718.16 728.402ZM719 631.652C728.966 631.652 737.309 629.413 744.027 624.934C750.746 620.342 756.289 613.904 760.656 605.617V521.969C756.401 514.242 750.858 508.139 744.027 503.66C737.197 499.069 728.966 496.773 719.336 496.773C708.81 496.773 700.02 499.797 692.965 505.844C686.022 511.891 680.815 520.233 677.344 530.871C673.872 541.397 672.137 553.603 672.137 567.488V571.016C672.137 589.268 676 603.938 683.727 615.023C691.453 626.109 703.211 631.652 719 631.652ZM788.707 500.301L775.773 473.258H816.254V494.422L788.707 500.301Z" fill="#3C4043"/>
<path d="M906.453 658.527C894.247 658.527 882.826 657.296 872.188 654.832C861.549 652.368 850.24 648.561 838.258 643.41L837.922 600.242H862.949L869.164 626.277C875.435 628.853 881.482 630.757 887.305 631.988C893.24 633.108 899.622 633.668 906.453 633.668C919.891 633.668 929.521 631.092 935.344 625.941C941.167 620.79 944.078 614.408 944.078 606.793C944.078 599.626 941.111 593.579 935.176 588.652C929.353 583.613 918.715 579.358 903.262 575.887C881.314 570.848 865.133 564.129 854.719 555.73C844.417 547.22 839.266 535.91 839.266 521.801C839.266 511.947 842.121 503.156 847.832 495.43C853.543 487.591 861.493 481.376 871.684 476.785C881.874 472.194 893.743 469.898 907.293 469.898C921.066 469.898 932.824 471.466 942.566 474.602C952.421 477.737 960.987 481.936 968.266 487.199L969.945 528.688H945.086L939.711 504.5C935.792 501.589 931.145 499.349 925.77 497.781C920.395 496.214 914.236 495.43 907.293 495.43C896.991 495.43 888.592 497.837 882.098 502.652C875.715 507.467 872.523 513.514 872.523 520.793C872.523 525.048 873.419 528.743 875.211 531.879C877.115 535.014 880.698 537.87 885.961 540.445C891.224 542.909 898.951 545.372 909.141 547.836C934.448 553.771 952.085 561.329 962.051 570.512C972.129 579.694 977.168 591.004 977.168 604.441C977.168 619.783 971.457 632.66 960.035 643.074C948.725 653.376 930.865 658.527 906.453 658.527Z" fill="#3C4043"/>
<path d="M1068.71 657.855C1055.27 657.855 1044.58 653.936 1036.63 646.098C1028.79 638.147 1024.87 625.493 1024.87 608.137V497.781H996.148V473.258H1024.87V429.418H1057.96V473.258H1097.43V497.781H1057.96V608.137C1057.96 616.871 1059.7 623.31 1063.17 627.453C1066.64 631.596 1071.29 633.668 1077.11 633.668C1081.03 633.668 1085.4 633.332 1090.21 632.66C1095.03 631.876 1098.78 631.204 1101.46 630.645L1106 652.312C1101.18 653.768 1095.25 655.056 1088.2 656.176C1081.25 657.296 1074.76 657.855 1068.71 657.855Z" fill="#3C4043"/>
<path d="M1205.94 658.527C1189.14 658.527 1174.64 654.608 1162.44 646.77C1150.34 638.819 1140.99 627.901 1134.39 614.016C1127.78 600.018 1124.48 584.061 1124.48 566.145V562.449C1124.48 544.533 1127.78 528.632 1134.39 514.746C1140.99 500.749 1150.34 489.775 1162.44 481.824C1174.64 473.874 1189.03 469.898 1205.61 469.898C1222.4 469.898 1236.85 473.874 1248.94 481.824C1261.15 489.775 1270.55 500.693 1277.16 514.578C1283.77 528.464 1287.07 544.421 1287.07 562.449V566.145C1287.07 584.173 1283.77 600.186 1277.16 614.184C1270.55 628.069 1261.2 638.931 1249.11 646.77C1237.02 654.608 1222.63 658.527 1205.94 658.527ZM1205.94 632.66C1216.47 632.66 1225.26 629.805 1232.31 624.094C1239.48 618.271 1244.85 610.376 1248.44 600.41C1252.13 590.332 1253.98 578.91 1253.98 566.145V562.449C1253.98 549.684 1252.13 538.318 1248.44 528.352C1244.85 518.273 1239.48 510.379 1232.31 504.668C1225.15 498.845 1216.24 495.934 1205.61 495.934C1195.08 495.934 1186.23 498.845 1179.07 504.668C1171.9 510.379 1166.52 518.273 1162.94 528.352C1159.36 538.318 1157.57 549.684 1157.57 562.449V566.145C1157.57 578.91 1159.36 590.332 1162.94 600.41C1166.52 610.376 1171.9 618.271 1179.07 624.094C1186.35 629.805 1195.3 632.66 1205.94 632.66Z" fill="#3C4043"/>
<path d="M1312.6 655V633.836L1339.98 629.133V499.293L1312.6 494.59V473.258H1369.54L1371.89 500.301C1377.94 490.671 1385.5 483.224 1394.57 477.961C1403.75 472.586 1414.17 469.898 1425.81 469.898C1445.41 469.898 1460.58 475.665 1471.33 487.199C1482.08 498.621 1487.46 516.314 1487.46 540.277V629.133L1514.84 633.836V655H1426.99V633.836L1454.37 629.133V540.949C1454.37 524.936 1451.18 513.57 1444.79 506.852C1438.52 500.133 1428.89 496.773 1415.9 496.773C1406.38 496.773 1397.93 499.069 1390.54 503.66C1383.26 508.251 1377.44 514.522 1373.07 522.473V629.133L1400.45 633.836V655H1312.6Z" fill="#3C4043"/>
<path d="M1618.47 658.527C1601.68 658.527 1587.06 654.72 1574.63 647.105C1562.2 639.379 1552.57 628.685 1545.74 615.023C1539.02 601.362 1535.66 585.573 1535.66 567.656V560.266C1535.66 543.021 1539.19 527.624 1546.25 514.074C1553.41 500.413 1562.88 489.663 1574.63 481.824C1586.5 473.874 1599.44 469.898 1613.43 469.898C1629.78 469.898 1643.44 473.258 1654.42 479.977C1665.5 486.695 1673.85 496.158 1679.45 508.363C1685.04 520.457 1687.84 534.734 1687.84 551.195V571.855H1569.93L1569.43 572.695C1569.65 584.341 1571.67 594.699 1575.47 603.77C1579.39 612.728 1584.99 619.783 1592.27 624.934C1599.55 630.085 1608.28 632.66 1618.47 632.66C1629.67 632.66 1639.47 631.092 1647.87 627.957C1656.38 624.71 1663.71 620.286 1669.87 614.688L1682.8 636.188C1676.31 642.458 1667.69 647.777 1656.94 652.145C1646.3 656.4 1633.48 658.527 1618.47 658.527ZM1570.94 545.988H1654.75V541.621C1654.75 532.887 1653.19 525.104 1650.05 518.273C1647.03 511.331 1642.44 505.9 1636.28 501.98C1630.23 497.949 1622.62 495.934 1613.43 495.934C1606.04 495.934 1599.32 498.117 1593.28 502.484C1587.23 506.74 1582.25 512.562 1578.33 519.953C1574.41 527.344 1571.83 535.742 1570.6 545.148L1570.94 545.988Z" fill="#3C4043"/>
<path d="M1113.3 229.8H1116.54L1123.13 253.704H1123.56L1130.15 229.8H1133.39L1126.26 255H1120.43L1113.3 229.8Z" fill="#FF6D7F"/>
<path d="M1137.76 229.8H1153.02V232.608H1140.78V240.96H1152.8V243.768H1140.78V252.192H1153.24V255H1137.76V229.8Z" fill="#FF6D7F"/>
<path d="M1175.31 255H1172.29V246.576C1172.29 245.952 1172.15 245.472 1171.86 245.136C1171.57 244.8 1171.07 244.632 1170.35 244.632H1162.5V255H1159.47V229.8H1168.47C1169.77 229.8 1170.9 229.992 1171.86 230.376C1172.82 230.736 1173.61 231.228 1174.23 231.852C1174.88 232.476 1175.36 233.208 1175.67 234.048C1176.01 234.864 1176.18 235.728 1176.18 236.64V237.72C1176.18 238.656 1175.91 239.592 1175.39 240.528C1174.88 241.464 1174.09 242.184 1173.01 242.688V243.12C1173.73 243.24 1174.29 243.528 1174.7 243.984C1175.11 244.44 1175.31 245.088 1175.31 245.928V255ZM1162.5 241.824H1168.11C1169.82 241.824 1171.08 241.464 1171.89 240.744C1172.73 240 1173.15 238.92 1173.15 237.504V236.856C1173.15 235.584 1172.73 234.564 1171.89 233.796C1171.08 233.004 1169.82 232.608 1168.11 232.608H1162.5V241.824Z" fill="#FF6D7F"/>
<path d="M1180.62 229.8H1198.33V232.608H1190.99V255H1187.96V232.608H1180.62V229.8Z" fill="#FF6D7F"/>
<path d="M1203.52 229.8H1219.51V232.608H1213.03V252.192H1219.51V255H1203.52V252.192H1210V232.608H1203.52V229.8Z" fill="#FF6D7F"/>
<path d="M1233.7 252.696C1234.74 252.696 1235.61 252.528 1236.33 252.192C1237.08 251.832 1237.68 251.364 1238.13 250.788C1238.61 250.188 1238.96 249.516 1239.18 248.772C1239.42 248.004 1239.54 247.2 1239.54 246.36V245.928H1242.56V246.36C1242.56 247.632 1242.37 248.832 1241.98 249.96C1241.6 251.064 1241.04 252.036 1240.29 252.876C1239.55 253.692 1238.62 254.34 1237.52 254.82C1236.42 255.276 1235.14 255.504 1233.7 255.504C1230.92 255.504 1228.75 254.628 1227.19 252.876C1225.63 251.124 1224.85 248.568 1224.85 245.208V239.592C1224.85 236.328 1225.63 233.796 1227.19 231.996C1228.75 230.196 1230.92 229.296 1233.7 229.296C1235.14 229.296 1236.42 229.536 1237.52 230.016C1238.62 230.472 1239.55 231.12 1240.29 231.96C1241.04 232.776 1241.6 233.748 1241.98 234.876C1242.37 235.98 1242.56 237.168 1242.56 238.44V238.872H1239.54V238.44C1239.51 237.624 1239.38 236.832 1239.14 236.064C1238.92 235.296 1238.58 234.624 1238.1 234.048C1237.64 233.448 1237.05 232.98 1236.33 232.644C1235.61 232.284 1234.74 232.104 1233.7 232.104C1231.76 232.104 1230.3 232.812 1229.31 234.228C1228.35 235.644 1227.87 237.504 1227.87 239.808V244.992C1227.87 247.464 1228.35 249.372 1229.31 250.716C1230.3 252.036 1231.76 252.696 1233.7 252.696Z" fill="#FF6D7F"/>
<path d="M1261 248.736H1250.2L1248.37 255H1245.13L1252.76 229.8H1258.45L1266.08 255H1262.84L1261 248.736ZM1255.39 231.096L1251.03 245.928H1260.17L1255.82 231.096H1255.39Z" fill="#FF6D7F"/>
<path d="M1269.76 229.8H1272.79V252.192H1285.96V255H1269.76V229.8Z" fill="#FF6D7F"/>
<path d="M1172.83 296.736H1162.03L1160.19 303H1156.95L1164.59 277.8H1170.27L1177.91 303H1174.67L1172.83 296.736ZM1167.21 279.096L1162.86 293.928H1172L1167.65 279.096H1167.21Z" fill="#FF6D7F"/>
<path d="M1183.5 277.8L1189.15 288.96H1189.8L1195.45 277.8H1198.76L1192.46 290.148V290.58L1198.76 303H1195.45L1189.8 291.768H1189.15L1183.5 303H1180.19L1186.49 290.58V290.148L1180.19 277.8H1183.5Z" fill="#FF6D7F"/>
<path d="M1203.52 277.8H1219.51V280.608H1213.03V300.192H1219.51V303H1203.52V300.192H1210V280.608H1203.52V277.8Z" fill="#FF6D7F"/>
<path d="M1239.5 285.072C1239.5 284.256 1239.33 283.536 1239 282.912C1238.68 282.288 1238.25 281.772 1237.7 281.364C1237.15 280.956 1236.51 280.644 1235.79 280.428C1235.07 280.212 1234.32 280.104 1233.52 280.104C1232.83 280.104 1232.17 280.2 1231.54 280.392C1230.92 280.56 1230.36 280.812 1229.85 281.148C1229.37 281.484 1228.99 281.904 1228.7 282.408C1228.41 282.888 1228.27 283.452 1228.27 284.1V284.316C1228.27 285.012 1228.41 285.612 1228.7 286.116C1228.99 286.596 1229.41 287.016 1229.96 287.376C1230.54 287.712 1231.24 288 1232.08 288.24C1232.92 288.456 1233.91 288.648 1235.04 288.816C1237.68 289.224 1239.62 290.004 1240.87 291.156C1242.12 292.284 1242.74 293.808 1242.74 295.728V296.16C1242.74 297.24 1242.55 298.236 1242.16 299.148C1241.8 300.036 1241.25 300.804 1240.51 301.452C1239.79 302.1 1238.89 302.604 1237.81 302.964C1236.73 303.324 1235.48 303.504 1234.06 303.504C1232.46 303.504 1231.03 303.276 1229.78 302.82C1228.56 302.34 1227.52 301.692 1226.68 300.876C1225.87 300.036 1225.24 299.064 1224.81 297.96C1224.38 296.832 1224.16 295.608 1224.16 294.288V293.208H1227.19V294.072C1227.19 296.28 1227.79 297.936 1228.99 299.04C1230.21 300.144 1231.9 300.696 1234.06 300.696C1235.94 300.696 1237.34 300.288 1238.28 299.472C1239.24 298.632 1239.72 297.528 1239.72 296.16V295.944C1239.72 294.624 1239.22 293.616 1238.24 292.92C1237.28 292.224 1235.71 291.72 1233.52 291.408C1232.25 291.24 1231.1 290.988 1230.07 290.652C1229.06 290.292 1228.2 289.836 1227.48 289.284C1226.76 288.708 1226.2 288.024 1225.82 287.232C1225.44 286.44 1225.24 285.504 1225.24 284.424V283.992C1225.24 283.008 1225.45 282.108 1225.86 281.292C1226.26 280.476 1226.83 279.768 1227.55 279.168C1228.29 278.568 1229.17 278.112 1230.18 277.8C1231.21 277.464 1232.34 277.296 1233.56 277.296C1234.98 277.296 1236.24 277.5 1237.34 277.908C1238.47 278.316 1239.42 278.868 1240.18 279.564C1240.95 280.236 1241.53 281.04 1241.91 281.976C1242.32 282.888 1242.52 283.848 1242.52 284.856V286.368H1239.5V285.072Z" fill="#FF6D7F"/>
<path fill-rule="evenodd" clip-rule="evenodd" d="M1200 754L1200 382L1204 382L1204 754L1200 754Z" fill="#FF6D7F"/>
<path d="M1614.53 239.592C1614.53 236.328 1615.31 233.796 1616.87 231.996C1618.43 230.196 1620.6 229.296 1623.39 229.296C1626.17 229.296 1628.34 230.196 1629.9 231.996C1631.46 233.796 1632.24 236.328 1632.24 239.592V245.208C1632.24 248.568 1631.46 251.124 1629.9 252.876C1628.34 254.628 1626.17 255.504 1623.39 255.504C1620.6 255.504 1618.43 254.628 1616.87 252.876C1615.31 251.124 1614.53 248.568 1614.53 245.208V239.592ZM1623.39 252.696C1625.33 252.696 1626.78 252.036 1627.74 250.716C1628.73 249.372 1629.22 247.464 1629.22 244.992V239.808C1629.22 237.504 1628.73 235.644 1627.74 234.228C1626.78 232.812 1625.33 232.104 1623.39 232.104C1621.44 232.104 1619.98 232.812 1619 234.228C1618.04 235.644 1617.56 237.504 1617.56 239.808V244.992C1617.56 247.464 1618.04 249.372 1619 250.716C1619.98 252.036 1621.44 252.696 1623.39 252.696Z" fill="#FF6D7F"/>
<path d="M1640.5 244.632V255H1637.48V229.8H1646.48C1647.77 229.8 1648.9 229.992 1649.86 230.376C1650.82 230.736 1651.61 231.228 1652.24 231.852C1652.88 232.476 1653.36 233.208 1653.68 234.048C1654.01 234.864 1654.18 235.728 1654.18 236.64V237.72C1654.18 238.632 1654.01 239.508 1653.68 240.348C1653.36 241.188 1652.88 241.932 1652.24 242.58C1651.59 243.204 1650.78 243.708 1649.82 244.092C1648.86 244.452 1647.75 244.632 1646.48 244.632H1640.5ZM1640.5 241.824H1646.12C1649.48 241.824 1651.16 240.384 1651.16 237.504V236.856C1651.16 235.584 1650.74 234.564 1649.9 233.796C1649.08 233.004 1647.82 232.608 1646.12 232.608H1640.5V241.824Z" fill="#FF6D7F"/>
<path d="M1659.84 229.8H1675.11V232.608H1662.87V240.96H1674.89V243.768H1662.87V252.192H1675.32V255H1659.84V229.8Z" fill="#FF6D7F"/>
<path d="M1694.45 253.704H1694.88V229.8H1697.91V255H1691.86L1684.59 231.096H1684.15V255H1681.13V229.8H1687.18L1694.45 253.704Z" fill="#FF6D7F"/>
<path d="M1703.93 229.8H1719.19V232.608H1706.95V240.96H1718.98V243.768H1706.95V252.192H1719.41V255H1703.93V229.8Z" fill="#FF6D7F"/>
<path d="M1725.21 229.8H1733.49C1736.61 229.8 1738.89 230.544 1740.33 232.032C1741.77 233.52 1742.49 235.896 1742.49 239.16V245.64C1742.49 248.904 1741.77 251.28 1740.33 252.768C1738.89 254.256 1736.61 255 1733.49 255H1725.21V252.156H1727.37V232.608H1725.21V229.8ZM1733.06 252.192C1734.17 252.192 1735.11 252.084 1735.91 251.868C1736.72 251.652 1737.39 251.292 1737.92 250.788C1738.45 250.26 1738.83 249.564 1739.07 248.7C1739.34 247.836 1739.47 246.744 1739.47 245.424V239.376C1739.47 238.056 1739.34 236.964 1739.07 236.1C1738.83 235.236 1738.45 234.552 1737.92 234.048C1737.39 233.52 1736.72 233.148 1735.91 232.932C1735.11 232.716 1734.17 232.608 1733.06 232.608H1730.4V252.192H1733.06Z" fill="#FF6D7F"/>
<path d="M1595.72 296.736H1584.92L1583.09 303H1579.85L1587.48 277.8H1593.17L1600.8 303H1597.56L1595.72 296.736ZM1590.11 279.096L1585.75 293.928H1594.9L1590.54 279.096H1590.11Z" fill="#FF6D7F"/>
<path d="M1607.43 292.632V303H1604.41V277.8H1613.41C1614.71 277.8 1615.83 277.992 1616.79 278.376C1617.75 278.736 1618.55 279.228 1619.17 279.852C1619.82 280.476 1620.3 281.208 1620.61 282.048C1620.95 282.864 1621.11 283.728 1621.11 284.64V285.72C1621.11 286.632 1620.95 287.508 1620.61 288.348C1620.3 289.188 1619.82 289.932 1619.17 290.58C1618.52 291.204 1617.72 291.708 1616.76 292.092C1615.8 292.452 1614.68 292.632 1613.41 292.632H1607.43ZM1607.43 289.824H1613.05C1616.41 289.824 1618.09 288.384 1618.09 285.504V284.856C1618.09 283.584 1617.67 282.564 1616.83 281.796C1616.01 281.004 1614.75 280.608 1613.05 280.608H1607.43V289.824Z" fill="#FF6D7F"/>
<path d="M1626.78 277.8H1642.04V280.608H1629.8V288.96H1641.83V291.768H1629.8V300.192H1642.26V303H1626.78V277.8Z" fill="#FF6D7F"/>
<path d="M1664.34 303H1661.31V294.576C1661.31 293.952 1661.17 293.472 1660.88 293.136C1660.59 292.8 1660.09 292.632 1659.37 292.632H1651.52V303H1648.5V277.8H1657.5C1658.79 277.8 1659.92 277.992 1660.88 278.376C1661.84 278.736 1662.63 279.228 1663.26 279.852C1663.9 280.476 1664.38 281.208 1664.7 282.048C1665.03 282.864 1665.2 283.728 1665.2 284.64V285.72C1665.2 286.656 1664.94 287.592 1664.41 288.528C1663.9 289.464 1663.11 290.184 1662.03 290.688V291.12C1662.75 291.24 1663.32 291.528 1663.72 291.984C1664.13 292.44 1664.34 293.088 1664.34 293.928V303ZM1651.52 289.824H1657.14C1658.84 289.824 1660.1 289.464 1660.92 288.744C1661.76 288 1662.18 286.92 1662.18 285.504V284.856C1662.18 283.584 1661.76 282.564 1660.92 281.796C1660.1 281.004 1658.84 280.608 1657.14 280.608H1651.52V289.824Z" fill="#FF6D7F"/>
<path d="M1669.64 277.8H1687.35V280.608H1680.01V303H1676.98V280.608H1669.64V277.8Z" fill="#FF6D7F"/>
<path d="M1694.92 277.8V294.504C1694.92 296.544 1695.39 298.092 1696.33 299.148C1697.29 300.18 1698.69 300.696 1700.54 300.696C1702.39 300.696 1703.78 300.18 1704.71 299.148C1705.67 298.092 1706.15 296.544 1706.15 294.504V277.8H1709.18V294.504C1709.18 297.432 1708.41 299.664 1706.87 301.2C1705.34 302.736 1703.23 303.504 1700.54 303.504C1697.85 303.504 1695.74 302.736 1694.2 301.2C1692.67 299.664 1691.9 297.432 1691.9 294.504V277.8H1694.92Z" fill="#FF6D7F"/>
<path d="M1730.47 303H1727.44V294.576C1727.44 293.952 1727.3 293.472 1727.01 293.136C1726.72 292.8 1726.22 292.632 1725.5 292.632H1717.65V303H1714.63V277.8H1723.63C1724.92 277.8 1726.05 277.992 1727.01 278.376C1727.97 278.736 1728.76 279.228 1729.39 279.852C1730.03 280.476 1730.51 281.208 1730.83 282.048C1731.16 282.864 1731.33 283.728 1731.33 284.64V285.72C1731.33 286.656 1731.07 287.592 1730.54 288.528C1730.03 289.464 1729.24 290.184 1728.16 290.688V291.12C1728.88 291.24 1729.45 291.528 1729.85 291.984C1730.26 292.44 1730.47 293.088 1730.47 293.928V303ZM1717.65 289.824H1723.27C1724.97 289.824 1726.23 289.464 1727.05 288.744C1727.89 288 1728.31 286.92 1728.31 285.504V284.856C1728.31 283.584 1727.89 282.564 1727.05 281.796C1726.23 281.004 1724.97 280.608 1723.27 280.608H1717.65V289.824Z" fill="#FF6D7F"/>
<path d="M1736.99 277.8H1752.26V280.608H1740.02V288.96H1752.04V291.768H1740.02V300.192H1752.47V303H1736.99V277.8Z" fill="#FF6D7F"/>
<path d="M1772.61 285.072C1772.61 284.256 1772.44 283.536 1772.1 282.912C1771.79 282.288 1771.36 281.772 1770.81 281.364C1770.26 280.956 1769.62 280.644 1768.9 280.428C1768.18 280.212 1767.42 280.104 1766.63 280.104C1765.94 280.104 1765.28 280.2 1764.65 280.392C1764.03 280.56 1763.46 280.812 1762.96 281.148C1762.48 281.484 1762.1 281.904 1761.81 282.408C1761.52 282.888 1761.38 283.452 1761.38 284.1V284.316C1761.38 285.012 1761.52 285.612 1761.81 286.116C1762.1 286.596 1762.52 287.016 1763.07 287.376C1763.64 287.712 1764.35 288 1765.19 288.24C1766.03 288.456 1767.02 288.648 1768.14 288.816C1770.78 289.224 1772.73 290.004 1773.98 291.156C1775.22 292.284 1775.85 293.808 1775.85 295.728V296.16C1775.85 297.24 1775.66 298.236 1775.27 299.148C1774.91 300.036 1774.36 300.804 1773.62 301.452C1772.9 302.1 1772 302.604 1770.92 302.964C1769.84 303.324 1768.59 303.504 1767.17 303.504C1765.56 303.504 1764.14 303.276 1762.89 302.82C1761.66 302.34 1760.63 301.692 1759.79 300.876C1758.98 300.036 1758.35 299.064 1757.92 297.96C1757.49 296.832 1757.27 295.608 1757.27 294.288V293.208H1760.3V294.072C1760.3 296.28 1760.9 297.936 1762.1 299.04C1763.32 300.144 1765.01 300.696 1767.17 300.696C1769.04 300.696 1770.45 300.288 1771.38 299.472C1772.34 298.632 1772.82 297.528 1772.82 296.16V295.944C1772.82 294.624 1772.33 293.616 1771.35 292.92C1770.39 292.224 1768.82 291.72 1766.63 291.408C1765.36 291.24 1764.21 290.988 1763.18 290.652C1762.17 290.292 1761.3 289.836 1760.58 289.284C1759.86 288.708 1759.31 288.024 1758.93 287.232C1758.54 286.44 1758.35 285.504 1758.35 284.424V283.992C1758.35 283.008 1758.56 282.108 1758.96 281.292C1759.37 280.476 1759.94 279.768 1760.66 279.168C1761.4 278.568 1762.28 278.112 1763.28 277.8C1764.32 277.464 1765.44 277.296 1766.67 277.296C1768.08 277.296 1769.34 277.5 1770.45 277.908C1771.58 278.316 1772.52 278.868 1773.29 279.564C1774.06 280.236 1774.64 281.04 1775.02 281.976C1775.43 282.888 1775.63 283.848 1775.63 284.856V286.368H1772.61V285.072Z" fill="#FF6D7F"/>
<circle cx="73" cy="76" r="24" fill="#D2E3FC"/>
<path d="M70.9825 83.464V65.176H70.3345L67.9585 73.816H63.4225V73.384L66.4465 62.8H75.7345V83.464H81.9985V88H63.8545V83.464H70.9825Z" fill="#1A73E8"/>
<path d="M111.16 72.592C111.16 69.328 111.94 66.796 113.5 64.996C115.06 63.196 117.232 62.296 120.016 62.296C122.8 62.296 124.972 63.196 126.532 64.996C128.092 66.796 128.872 69.328 128.872 72.592V78.208C128.872 81.28 128.212 83.692 126.892 85.444C125.596 87.172 123.772 88.168 121.42 88.432V89.944C121.42 90.664 121.744 91.024 122.392 91.024H125.416V93.616H121.384C120.568 93.616 119.896 93.352 119.368 92.824C118.864 92.296 118.612 91.624 118.612 90.808V88.432C116.236 88.144 114.4 87.136 113.104 85.408C111.808 83.68 111.16 81.28 111.16 78.208V72.592ZM120.016 85.696C121.96 85.696 123.412 85.036 124.372 83.716C125.356 82.372 125.848 80.464 125.848 77.992V72.808C125.848 70.504 125.356 68.644 124.372 67.228C123.412 65.812 121.96 65.104 120.016 65.104C118.072 65.104 116.608 65.812 115.624 67.228C114.664 68.644 114.184 70.504 114.184 72.808V77.992C114.184 80.464 114.664 82.372 115.624 83.716C116.608 85.036 118.072 85.696 120.016 85.696ZM136.443 62.8V79.504C136.443 81.544 136.911 83.092 137.847 84.148C138.807 85.18 140.211 85.696 142.059 85.696C143.907 85.696 145.299 85.18 146.235 84.148C147.195 83.092 147.675 81.544 147.675 79.504V62.8H150.699V79.504C150.699 82.432 149.931 84.664 148.395 86.2C146.859 87.736 144.747 88.504 142.059 88.504C139.371 88.504 137.259 87.736 135.723 86.2C134.187 84.664 133.419 82.432 133.419 79.504V62.8H136.443ZM156.11 62.8H172.094V65.608H165.614V85.192H172.094V88H156.11V85.192H162.59V65.608H156.11V62.8ZM177.289 62.8H195.001V65.608H187.657V88H184.633V65.608H177.289V62.8ZM200.556 62.8H215.82V65.608H203.58V73.96H215.604V76.768H203.58V85.192H216.036V88H200.556V62.8ZM260.158 88H257.134V79.576C257.134 78.952 256.99 78.472 256.702 78.136C256.414 77.8 255.91 77.632 255.19 77.632H247.342V88H244.318V62.8H253.318C254.614 62.8 255.742 62.992 256.702 63.376C257.662 63.736 258.454 64.228 259.078 64.852C259.726 65.476 260.206 66.208 260.518 67.048C260.854 67.864 261.022 68.728 261.022 69.64V70.72C261.022 71.656 260.758 72.592 260.23 73.528C259.726 74.464 258.934 75.184 257.854 75.688V76.12C258.574 76.24 259.138 76.528 259.546 76.984C259.954 77.44 260.158 78.088 260.158 78.928V88ZM247.342 74.824H252.958C254.662 74.824 255.922 74.464 256.738 73.744C257.578 73 257.998 71.92 257.998 70.504V69.856C257.998 68.584 257.578 67.564 256.738 66.796C255.922 66.004 254.662 65.608 252.958 65.608H247.342V74.824ZM279.717 81.736H268.917L267.081 88H263.841L271.473 62.8H277.161L284.793 88H281.553L279.717 81.736ZM274.101 64.096L269.745 78.928H278.889L274.533 64.096H274.101ZM287.504 62.8H305.216V65.608H297.872V88H294.848V65.608H287.504V62.8ZM310.411 62.8H326.395V65.608H319.915V85.192H326.395V88H310.411V85.192H316.891V65.608H310.411V62.8ZM331.59 72.592C331.59 69.328 332.37 66.796 333.93 64.996C335.49 63.196 337.662 62.296 340.446 62.296C343.23 62.296 345.402 63.196 346.962 64.996C348.522 66.796 349.302 69.328 349.302 72.592V78.208C349.302 81.568 348.522 84.124 346.962 85.876C345.402 87.628 343.23 88.504 340.446 88.504C337.662 88.504 335.49 87.628 333.93 85.876C332.37 84.124 331.59 81.568 331.59 78.208V72.592ZM340.446 85.696C342.39 85.696 343.842 85.036 344.802 83.716C345.786 82.372 346.278 80.464 346.278 77.992V72.808C346.278 70.504 345.786 68.644 344.802 67.228C343.842 65.812 342.39 65.104 340.446 65.104C338.502 65.104 337.038 65.812 336.054 67.228C335.094 68.644 334.614 70.504 334.614 72.808V77.992C334.614 80.464 335.094 82.372 336.054 83.716C337.038 85.036 338.502 85.696 340.446 85.696ZM367.421 86.704H367.853V62.8H370.877V88H364.829L357.557 64.096H357.125V88H354.101V62.8H360.149L367.421 86.704ZM389.932 81.736H379.132L377.296 88H374.056L381.688 62.8H387.376L395.008 88H391.768L389.932 81.736ZM384.316 64.096L379.96 78.928H389.104L384.748 64.096H384.316ZM398.691 62.8H401.715V85.192H414.891V88H398.691V62.8Z" fill="#1A73E8"/>
<circle cx="476" cy="76" r="24" fill="#D2E3FC"/>
<path d="M484.531 83.464V88H466.819V83.032C466.819 81.712 467.011 80.584 467.395 79.648C467.803 78.712 468.367 77.92 469.087 77.272C469.831 76.624 470.719 76.096 471.751 75.688C472.783 75.256 473.947 74.896 475.243 74.608C476.203 74.392 476.983 74.152 477.583 73.888C478.207 73.6 478.699 73.288 479.059 72.952C479.419 72.592 479.659 72.208 479.779 71.8C479.923 71.368 479.995 70.888 479.995 70.36C479.995 69.352 479.623 68.512 478.879 67.84C478.159 67.168 477.151 66.832 475.855 66.832C474.487 66.832 473.395 67.252 472.579 68.092C471.763 68.908 471.355 70.048 471.355 71.512V73.096H466.603V71.08C466.603 69.904 466.807 68.788 467.215 67.732C467.647 66.652 468.247 65.716 469.015 64.924C469.807 64.108 470.767 63.472 471.895 63.016C473.023 62.536 474.295 62.296 475.711 62.296C477.223 62.296 478.543 62.524 479.671 62.98C480.799 63.412 481.735 63.988 482.479 64.708C483.247 65.428 483.811 66.268 484.171 67.228C484.555 68.164 484.747 69.136 484.747 70.144V70.576C484.747 72.688 484.147 74.44 482.947 75.832C481.771 77.224 479.839 78.232 477.151 78.856C476.023 79.12 475.087 79.396 474.343 79.684C473.623 79.948 473.059 80.248 472.651 80.584C472.243 80.92 471.955 81.292 471.787 81.7C471.643 82.084 471.571 82.528 471.571 83.032V83.464H484.531Z" fill="#1A73E8"/>
<path d="M515.132 62.8H518.156V85.192H531.332V88H515.132V62.8ZM537.067 62.8H553.051V65.608H546.571V85.192H553.051V88H537.067V85.192H543.547V65.608H537.067V62.8ZM572.034 86.704H572.466V62.8H575.49V88H569.442L562.17 64.096H561.738V88H558.714V62.8H564.762L572.034 86.704ZM581.513 62.8H596.777V65.608H584.537V73.96H596.561V76.768H584.537V85.192H596.993V88H581.513V62.8ZM616.588 81.736H605.788L603.952 88H600.712L608.344 62.8H614.032L621.664 88H618.424L616.588 81.736ZM610.972 64.096L606.616 78.928H615.76L611.404 64.096H610.972ZM641.115 88H638.091V79.576C638.091 78.952 637.947 78.472 637.659 78.136C637.371 77.8 636.867 77.632 636.147 77.632H628.299V88H625.275V62.8H634.275C635.571 62.8 636.699 62.992 637.659 63.376C638.619 63.736 639.411 64.228 640.035 64.852C640.683 65.476 641.163 66.208 641.475 67.048C641.811 67.864 641.979 68.728 641.979 69.64V70.72C641.979 71.656 641.715 72.592 641.187 73.528C640.683 74.464 639.891 75.184 638.811 75.688V76.12C639.531 76.24 640.095 76.528 640.503 76.984C640.911 77.44 641.115 78.088 641.115 78.928V88ZM628.299 74.824H633.915C635.619 74.824 636.879 74.464 637.695 73.744C638.535 73 638.955 71.92 638.955 70.504V69.856C638.955 68.584 638.535 67.564 637.695 66.796C636.879 66.004 635.619 65.608 633.915 65.608H628.299V74.824ZM683.257 70.072C683.257 69.256 683.089 68.536 682.753 67.912C682.441 67.288 682.009 66.772 681.457 66.364C680.905 65.956 680.269 65.644 679.549 65.428C678.829 65.212 678.073 65.104 677.281 65.104C676.585 65.104 675.925 65.2 675.301 65.392C674.677 65.56 674.113 65.812 673.609 66.148C673.129 66.484 672.745 66.904 672.457 67.408C672.169 67.888 672.025 68.452 672.025 69.1V69.316C672.025 70.012 672.169 70.612 672.457 71.116C672.745 71.596 673.165 72.016 673.717 72.376C674.293 72.712 675.001 73 675.841 73.24C676.681 73.456 677.665 73.648 678.793 73.816C681.433 74.224 683.377 75.004 684.625 76.156C685.873 77.284 686.497 78.808 686.497 80.728V81.16C686.497 82.24 686.305 83.236 685.921 84.148C685.561 85.036 685.009 85.804 684.265 86.452C683.545 87.1 682.645 87.604 681.565 87.964C680.485 88.324 679.237 88.504 677.821 88.504C676.213 88.504 674.785 88.276 673.537 87.82C672.313 87.34 671.281 86.692 670.441 85.876C669.625 85.036 669.001 84.064 668.569 82.96C668.137 81.832 667.921 80.608 667.921 79.288V78.208H670.945V79.072C670.945 81.28 671.545 82.936 672.745 84.04C673.969 85.144 675.661 85.696 677.821 85.696C679.693 85.696 681.097 85.288 682.033 84.472C682.993 83.632 683.473 82.528 683.473 81.16V80.944C683.473 79.624 682.981 78.616 681.997 77.92C681.037 77.224 679.465 76.72 677.281 76.408C676.009 76.24 674.857 75.988 673.825 75.652C672.817 75.292 671.953 74.836 671.233 74.284C670.513 73.708 669.961 73.024 669.577 72.232C669.193 71.44 669.001 70.504 669.001 69.424V68.992C669.001 68.008 669.205 67.108 669.613 66.292C670.021 65.476 670.585 64.768 671.305 64.168C672.049 63.568 672.925 63.112 673.933 62.8C674.965 62.464 676.093 62.296 677.317 62.296C678.733 62.296 679.993 62.5 681.097 62.908C682.225 63.316 683.173 63.868 683.941 64.564C684.709 65.236 685.285 66.04 685.669 66.976C686.077 67.888 686.281 68.848 686.281 69.856V71.368H683.257V70.072ZM691.728 62.8H706.992V65.608H694.752V73.96H706.776V76.768H694.752V85.192H707.208V88H691.728V62.8ZM729.287 88H726.263V79.576C726.263 78.952 726.119 78.472 725.831 78.136C725.543 77.8 725.039 77.632 724.319 77.632H716.471V88H713.447V62.8H722.447C723.743 62.8 724.871 62.992 725.831 63.376C726.791 63.736 727.583 64.228 728.207 64.852C728.855 65.476 729.335 66.208 729.647 67.048C729.983 67.864 730.151 68.728 730.151 69.64V70.72C730.151 71.656 729.887 72.592 729.359 73.528C728.855 74.464 728.063 75.184 726.983 75.688V76.12C727.703 76.24 728.267 76.528 728.675 76.984C729.083 77.44 729.287 78.088 729.287 78.928V88ZM716.471 74.824H722.087C723.791 74.824 725.051 74.464 725.867 73.744C726.707 73 727.127 71.92 727.127 70.504V69.856C727.127 68.584 726.707 67.564 725.867 66.796C725.051 66.004 723.791 65.608 722.087 65.608H716.471V74.824ZM735.454 62.8H751.438V65.608H744.958V85.192H751.438V88H735.454V85.192H741.934V65.608H735.454V62.8ZM757.893 62.8H773.373V65.608H760.917V73.96H773.157V76.768H760.917V88H757.893V62.8Z" fill="#1A73E8"/>
</svg>
