<svg xmlns="http://www.w3.org/2000/svg" width="1920" height="1080" fill="none"><path fill="#FF6D7F" fill-rule="evenodd" d="M1676 591.521c-4.94.936-8.67 5.272-8.67 10.479 0 5.891 4.78 10.667 10.67 10.667s10.67-4.776 10.67-10.667c0-5.207-3.74-9.543-8.67-10.479V342.5h-4v249.021Z" clip-rule="evenodd"/><path fill="#FF6D7F" d="M1710 602c0 17.673-14.33 32-32 32s-32-14.327-32-32c0-17.673 14.33-32 32-32s32 14.327 32 32Z" opacity=".4"/><path fill="#3C4043" d="M216.605 655v-21.164l27.379-4.703v-192.66l-27.379-4.703v-21.165h109.012c17.805 0 32.81 2.688 45.016 8.063 12.318 5.263 21.668 12.934 28.051 23.012 6.382 10.078 9.574 22.396 9.574 36.953 0 14.333-3.136 26.371-9.406 36.113-6.159 9.742-14.95 17.133-26.372 22.172-11.421 4.927-24.971 7.559-40.648 7.894l-54.758 1.008v83.313l27.379 4.703V655h-87.848Zm161.418 0-54.421-122.113 33.089-.336 45.184 97.758 16.965 3.023V655h-40.817ZM277.074 519.785h45.184c18.476 0 31.914-3.527 40.312-10.582 8.399-7.055 12.598-17.357 12.598-30.906 0-12.878-4.031-23.068-12.094-30.57-8.062-7.503-20.548-11.254-37.457-11.254h-48.543v83.312ZM507.023 658.527c-18.924 0-33.313-4.591-43.168-13.773-9.854-9.294-14.781-22.34-14.781-39.137 0-11.534 3.136-21.556 9.406-30.066 6.383-8.623 15.566-15.285 27.547-19.989 11.982-4.815 26.315-7.222 43-7.222h32.418v-17.805c0-10.974-3.359-19.484-10.078-25.531-6.607-6.047-15.957-9.07-28.051-9.07-7.614 0-14.221.951-19.82 2.855-5.599 1.792-10.694 4.311-15.285 7.559l-3.527 25.363h-25.532v-41.656c8.175-6.607 17.693-11.59 28.555-14.95 10.862-3.471 22.9-5.207 36.113-5.207 22.06 0 39.361 5.263 51.903 15.79 12.541 10.526 18.812 25.587 18.812 45.183v94.399c.112 2.239.28 4.479.504 6.718l17.637 1.848V655h-47.535c-1.008-4.927-1.792-9.35-2.352-13.27-.56-3.919-.952-7.838-1.176-11.757-6.383 8.174-14.389 15.005-24.019 20.492-9.518 5.375-19.709 8.062-30.571 8.062Zm4.872-27.715c10.973 0 20.996-2.631 30.066-7.894s15.565-11.59 19.484-18.98v-32.922h-33.593c-15.23 0-26.651 3.639-34.266 10.918-7.615 7.278-11.422 15.397-11.422 24.355 0 7.951 2.464 14.053 7.391 18.309 4.927 4.143 12.373 6.214 22.34 6.214ZM718.16 728.402c-8.734 0-18.196-1.231-28.387-3.695-10.19-2.352-19.148-5.599-26.875-9.742l8.567-25.699c6.159 3.247 13.437 5.935 21.836 8.062 8.398 2.128 16.573 3.192 24.523 3.192 14.781 0 25.587-4.144 32.418-12.43 6.943-8.287 10.414-20.1 10.414-35.442v-17.3c-5.935 7.614-13.045 13.381-21.332 17.3-8.286 3.92-17.804 5.879-28.554 5.879-14.782 0-27.547-3.639-38.297-10.918-10.75-7.39-19.037-17.636-24.86-30.738-5.711-13.213-8.566-28.499-8.566-45.855v-3.528c0-19.484 2.855-36.561 8.566-51.23 5.823-14.669 14.11-26.035 24.86-34.098 10.75-8.174 23.627-12.262 38.632-12.262 11.422 0 21.444 2.24 30.067 6.719 8.622 4.479 15.845 10.974 21.668 19.485l3.023-22.844h27.883v179.39c0 15.678-2.967 29.171-8.902 40.481-5.823 11.31-14.39 19.988-25.699 26.035-11.198 6.159-24.86 9.238-40.985 9.238Zm.84-96.75c9.966 0 18.309-2.239 25.027-6.718 6.719-4.592 12.262-11.03 16.629-19.317v-83.648c-4.255-7.727-9.798-13.83-16.629-18.309-6.83-4.591-15.061-6.887-24.691-6.887-10.526 0-19.316 3.024-26.371 9.071-6.943 6.047-12.15 14.389-15.621 25.027-3.472 10.526-5.207 22.732-5.207 36.617v3.528c0 18.252 3.863 32.922 11.59 44.007 7.726 11.086 19.484 16.629 35.273 16.629Zm69.707-131.351-12.934-27.043h40.481v21.164l-27.547 5.879ZM906.453 658.527c-12.206 0-23.627-1.231-34.265-3.695-10.639-2.464-21.948-6.271-33.93-11.422l-.336-43.168h25.027l6.215 26.035c6.271 2.576 12.318 4.48 18.141 5.711 5.935 1.12 12.317 1.68 19.148 1.68 13.438 0 23.068-2.576 28.891-7.727 5.823-5.151 8.734-11.533 8.734-19.148 0-7.167-2.967-13.214-8.902-18.141-5.823-5.039-16.461-9.294-31.914-12.765-21.948-5.039-38.129-11.758-48.543-20.157-10.302-8.51-15.453-19.82-15.453-33.929 0-9.854 2.855-18.645 8.566-26.371 5.711-7.839 13.661-14.054 23.852-18.645 10.19-4.591 22.059-6.887 35.609-6.887 13.773 0 25.531 1.568 35.273 4.704 9.855 3.135 18.421 7.334 25.7 12.597l1.679 41.489h-24.859l-5.375-24.188c-3.919-2.911-8.566-5.151-13.941-6.719-5.375-1.567-11.534-2.351-18.477-2.351-10.302 0-18.701 2.407-25.195 7.222-6.383 4.815-9.575 10.862-9.575 18.141 0 4.255.896 7.95 2.688 11.086 1.904 3.135 5.487 5.991 10.75 8.566 5.263 2.464 12.99 4.927 23.18 7.391 25.307 5.935 42.944 13.493 52.91 22.676 10.078 9.182 15.117 20.492 15.117 33.929 0 15.342-5.711 28.219-17.133 38.633-11.31 10.302-29.17 15.453-53.582 15.453ZM1068.71 657.855c-13.44 0-24.13-3.919-32.08-11.757-7.84-7.951-11.76-20.605-11.76-37.961V497.781h-28.722v-24.523h28.722v-43.84h33.09v43.84h39.47v24.523h-39.47v110.356c0 8.734 1.74 15.173 5.21 19.316 3.47 4.143 8.12 6.215 13.94 6.215 3.92 0 8.29-.336 13.1-1.008 4.82-.784 8.57-1.456 11.25-2.015l4.54 21.667c-4.82 1.456-10.75 2.744-17.8 3.864-6.95 1.12-13.44 1.679-19.49 1.679ZM1205.94 658.527c-16.8 0-31.3-3.919-43.5-11.757-12.1-7.951-21.45-18.869-28.05-32.754-6.61-13.998-9.91-29.955-9.91-47.871v-3.696c0-17.916 3.3-33.817 9.91-47.703 6.6-13.997 15.95-24.971 28.05-32.922 12.2-7.95 26.59-11.926 43.17-11.926 16.79 0 31.24 3.976 43.33 11.926 12.21 7.951 21.61 18.869 28.22 32.754 6.61 13.886 9.91 29.843 9.91 47.871v3.696c0 18.028-3.3 34.041-9.91 48.039-6.61 13.885-15.96 24.747-28.05 32.586-12.09 7.838-26.48 11.757-43.17 11.757Zm0-25.867c10.53 0 19.32-2.855 26.37-8.566 7.17-5.823 12.54-13.718 16.13-23.684 3.69-10.078 5.54-21.5 5.54-34.265v-3.696c0-12.765-1.85-24.131-5.54-34.097-3.59-10.079-8.96-17.973-16.13-23.684-7.16-5.823-16.07-8.734-26.7-8.734-10.53 0-19.38 2.911-26.54 8.734-7.17 5.711-12.55 13.605-16.13 23.684-3.58 9.966-5.37 21.332-5.37 34.097v3.696c0 12.765 1.79 24.187 5.37 34.265 3.58 9.966 8.96 17.861 16.13 23.684 7.28 5.711 16.23 8.566 26.87 8.566ZM1312.6 655v-21.164l27.38-4.703v-129.84l-27.38-4.703v-21.332h56.94l2.35 27.043c6.05-9.63 13.61-17.077 22.68-22.34 9.18-5.375 19.6-8.063 31.24-8.063 19.6 0 34.77 5.767 45.52 17.301 10.75 11.422 16.13 29.115 16.13 53.078v88.856l27.38 4.703V655h-87.85v-21.164l27.38-4.703v-88.184c0-16.013-3.19-27.379-9.58-34.097-6.27-6.719-15.9-10.079-28.89-10.079-9.52 0-17.97 2.296-25.36 6.887-7.28 4.591-13.1 10.862-17.47 18.813v106.66l27.38 4.703V655h-87.85ZM1618.47 658.527c-16.79 0-31.41-3.807-43.84-11.422-12.43-7.726-22.06-18.42-28.89-32.082-6.72-13.661-10.08-29.45-10.08-47.367v-7.39c0-17.245 3.53-32.642 10.59-46.192 7.16-13.661 16.63-24.411 28.38-32.25 11.87-7.95 24.81-11.926 38.8-11.926 16.35 0 30.01 3.36 40.99 10.079 11.08 6.718 19.43 16.181 25.03 28.386 5.59 12.094 8.39 26.371 8.39 42.832v20.66h-117.91l-.5.84c.22 11.646 2.24 22.004 6.04 31.075 3.92 8.958 9.52 16.013 16.8 21.164 7.28 5.151 16.01 7.726 26.2 7.726 11.2 0 21-1.568 29.4-4.703 8.51-3.247 15.84-7.671 22-13.269l12.93 21.5c-6.49 6.27-15.11 11.589-25.86 15.957-10.64 4.255-23.46 6.382-38.47 6.382Zm-47.53-112.539h83.81v-4.367c0-8.734-1.56-16.517-4.7-23.348-3.02-6.942-7.61-12.373-13.77-16.293-6.05-4.031-13.66-6.046-22.85-6.046-7.39 0-14.11 2.183-20.15 6.55-6.05 4.256-11.03 10.078-14.95 17.469-3.92 7.391-6.5 15.789-7.73 25.195l.34.84Z"/><path fill="#FF6D7F" d="M1113.3 229.8h3.24l6.59 23.904h.43l6.59-23.904h3.24l-7.13 25.2h-5.83l-7.13-25.2ZM1137.76 229.8h15.26v2.808h-12.24v8.352h12.02v2.808h-12.02v8.424h12.46V255h-15.48v-25.2ZM1175.31 255h-3.02v-8.424c0-.624-.14-1.104-.43-1.44-.29-.336-.79-.504-1.51-.504h-7.85V255h-3.03v-25.2h9c1.3 0 2.43.192 3.39.576.96.36 1.75.852 2.37 1.476a5.783 5.783 0 0 1 1.44 2.196c.34.816.51 1.68.51 2.592v1.08c0 .936-.27 1.872-.79 2.808-.51.936-1.3 1.656-2.38 2.16v.432c.72.12 1.28.408 1.69.864.41.456.61 1.104.61 1.944V255Zm-12.81-13.176h5.61c1.71 0 2.97-.36 3.78-1.08.84-.744 1.26-1.824 1.26-3.24v-.648c0-1.272-.42-2.292-1.26-3.06-.81-.792-2.07-1.188-3.78-1.188h-5.61v9.216ZM1180.62 229.8h17.71v2.808h-7.34V255h-3.03v-22.392h-7.34V229.8ZM1203.52 229.8h15.99v2.808h-6.48v19.584h6.48V255h-15.99v-2.808h6.48v-19.584h-6.48V229.8ZM1233.7 252.696c1.04 0 1.91-.168 2.63-.504.75-.36 1.35-.828 1.8-1.404.48-.6.83-1.272 1.05-2.016a8.04 8.04 0 0 0 .36-2.412v-.432h3.02v.432c0 1.272-.19 2.472-.58 3.6a8.452 8.452 0 0 1-1.69 2.916c-.74.816-1.67 1.464-2.77 1.944-1.1.456-2.38.684-3.82.684-2.78 0-4.95-.876-6.51-2.628-1.56-1.752-2.34-4.308-2.34-7.668v-5.616c0-3.264.78-5.796 2.34-7.596 1.56-1.8 3.73-2.7 6.51-2.7 1.44 0 2.72.24 3.82.72 1.1.456 2.03 1.104 2.77 1.944.75.816 1.31 1.788 1.69 2.916.39 1.104.58 2.292.58 3.564v.432h-3.02v-.432a9.038 9.038 0 0 0-.4-2.376c-.22-.768-.56-1.44-1.04-2.016a4.686 4.686 0 0 0-1.77-1.404c-.72-.36-1.59-.54-2.63-.54-1.94 0-3.4.708-4.39 2.124-.96 1.416-1.44 3.276-1.44 5.58v5.184c0 2.472.48 4.38 1.44 5.724.99 1.32 2.45 1.98 4.39 1.98ZM1261 248.736h-10.8l-1.83 6.264h-3.24l7.63-25.2h5.69l7.63 25.2h-3.24l-1.84-6.264Zm-5.61-17.64-4.36 14.832h9.14l-4.35-14.832h-.43ZM1269.76 229.8h3.03v22.392h13.17V255h-16.2v-25.2ZM1172.83 296.736h-10.8l-1.84 6.264h-3.24l7.64-25.2h5.68l7.64 25.2h-3.24l-1.84-6.264Zm-5.62-17.64-4.35 14.832h9.14l-4.35-14.832h-.44ZM1183.5 277.8l5.65 11.16h.65l5.65-11.16h3.31l-6.3 12.348v.432l6.3 12.42h-3.31l-5.65-11.232h-.65L1183.5 303h-3.31l6.3-12.42v-.432l-6.3-12.348h3.31ZM1203.52 277.8h15.99v2.808h-6.48v19.584h6.48V303h-15.99v-2.808h6.48v-19.584h-6.48V277.8ZM1239.5 285.072c0-.816-.17-1.536-.5-2.16a4.382 4.382 0 0 0-1.3-1.548 6.143 6.143 0 0 0-1.91-.936 7.825 7.825 0 0 0-2.27-.324c-.69 0-1.35.096-1.98.288-.62.168-1.18.42-1.69.756-.48.336-.86.756-1.15 1.26-.29.48-.43 1.044-.43 1.692v.216c0 .696.14 1.296.43 1.8.29.48.71.9 1.26 1.26.58.336 1.28.624 2.12.864.84.216 1.83.408 2.96.576 2.64.408 4.58 1.188 5.83 2.34 1.25 1.128 1.87 2.652 1.87 4.572v.432c0 1.08-.19 2.076-.58 2.988a6.05 6.05 0 0 1-1.65 2.304c-.72.648-1.62 1.152-2.7 1.512-1.08.36-2.33.54-3.75.54-1.6 0-3.03-.228-4.28-.684-1.22-.48-2.26-1.128-3.1-1.944a8.737 8.737 0 0 1-1.87-2.916c-.43-1.128-.65-2.352-.65-3.672v-1.08h3.03v.864c0 2.208.6 3.864 1.8 4.968 1.22 1.104 2.91 1.656 5.07 1.656 1.88 0 3.28-.408 4.22-1.224.96-.84 1.44-1.944 1.44-3.312v-.216c0-1.32-.5-2.328-1.48-3.024-.96-.696-2.53-1.2-4.72-1.512-1.27-.168-2.42-.42-3.45-.756-1.01-.36-1.87-.816-2.59-1.368a5.877 5.877 0 0 1-1.66-2.052c-.38-.792-.58-1.728-.58-2.808v-.432c0-.984.21-1.884.62-2.7.4-.816.97-1.524 1.69-2.124.74-.6 1.62-1.056 2.63-1.368 1.03-.336 2.16-.504 3.38-.504 1.42 0 2.68.204 3.78.612 1.13.408 2.08.96 2.84 1.656a6.327 6.327 0 0 1 1.73 2.412c.41.912.61 1.872.61 2.88v1.512h-3.02v-1.296Z"/><path fill="#FF6D7F" fill-rule="evenodd" d="M1200 754V382h4v372h-4Z" clip-rule="evenodd"/><path fill="#FF6D7F" d="M1614.53 239.592c0-3.264.78-5.796 2.34-7.596 1.56-1.8 3.73-2.7 6.52-2.7 2.78 0 4.95.9 6.51 2.7 1.56 1.8 2.34 4.332 2.34 7.596v5.616c0 3.36-.78 5.916-2.34 7.668-1.56 1.752-3.73 2.628-6.51 2.628-2.79 0-4.96-.876-6.52-2.628-1.56-1.752-2.34-4.308-2.34-7.668v-5.616Zm8.86 13.104c1.94 0 3.39-.66 4.35-1.98.99-1.344 1.48-3.252 1.48-5.724v-5.184c0-2.304-.49-4.164-1.48-5.58-.96-1.416-2.41-2.124-4.35-2.124-1.95 0-3.41.708-4.39 2.124-.96 1.416-1.44 3.276-1.44 5.58v5.184c0 2.472.48 4.38 1.44 5.724.98 1.32 2.44 1.98 4.39 1.98ZM1640.5 244.632V255h-3.02v-25.2h9c1.29 0 2.42.192 3.38.576.96.36 1.75.852 2.38 1.476a6.027 6.027 0 0 1 1.44 2.196c.33.816.5 1.68.5 2.592v1.08c0 .912-.17 1.788-.5 2.628-.32.84-.8 1.584-1.44 2.232-.65.624-1.46 1.128-2.42 1.512-.96.36-2.07.54-3.34.54h-5.98Zm0-2.808h5.62c3.36 0 5.04-1.44 5.04-4.32v-.648c0-1.272-.42-2.292-1.26-3.06-.82-.792-2.08-1.188-3.78-1.188h-5.62v9.216ZM1659.84 229.8h15.27v2.808h-12.24v8.352h12.02v2.808h-12.02v8.424h12.45V255h-15.48v-25.2ZM1694.45 253.704h.43V229.8h3.03V255h-6.05l-7.27-23.904h-.44V255h-3.02v-25.2h6.05l7.27 23.904ZM1703.93 229.8h15.26v2.808h-12.24v8.352h12.03v2.808h-12.03v8.424h12.46V255h-15.48v-25.2ZM1725.21 229.8h8.28c3.12 0 5.4.744 6.84 2.232 1.44 1.488 2.16 3.864 2.16 7.128v6.48c0 3.264-.72 5.64-2.16 7.128-1.44 1.488-3.72 2.232-6.84 2.232h-8.28v-2.844h2.16v-19.548h-2.16V229.8Zm7.85 22.392c1.11 0 2.05-.108 2.85-.324.81-.216 1.48-.576 2.01-1.08.53-.528.91-1.224 1.15-2.088.27-.864.4-1.956.4-3.276v-6.048c0-1.32-.13-2.412-.4-3.276-.24-.864-.62-1.548-1.15-2.052-.53-.528-1.2-.9-2.01-1.116-.8-.216-1.74-.324-2.85-.324h-2.66v19.584h2.66ZM1595.72 296.736h-10.8l-1.83 6.264h-3.24l7.63-25.2h5.69l7.63 25.2h-3.24l-1.84-6.264Zm-5.61-17.64-4.36 14.832h9.15l-4.36-14.832h-.43ZM1607.43 292.632V303h-3.02v-25.2h9c1.3 0 2.42.192 3.38.576.96.36 1.76.852 2.38 1.476a5.783 5.783 0 0 1 1.44 2.196c.34.816.5 1.68.5 2.592v1.08a6.93 6.93 0 0 1-.5 2.628c-.31.84-.79 1.584-1.44 2.232-.65.624-1.45 1.128-2.41 1.512-.96.36-2.08.54-3.35.54h-5.98Zm0-2.808h5.62c3.36 0 5.04-1.44 5.04-4.32v-.648c0-1.272-.42-2.292-1.26-3.06-.82-.792-2.08-1.188-3.78-1.188h-5.62v9.216ZM1626.78 277.8h15.26v2.808h-12.24v8.352h12.03v2.808h-12.03v8.424h12.46V303h-15.48v-25.2ZM1664.34 303h-3.03v-8.424c0-.624-.14-1.104-.43-1.44-.29-.336-.79-.504-1.51-.504h-7.85V303h-3.02v-25.2h9c1.29 0 2.42.192 3.38.576.96.36 1.75.852 2.38 1.476a6.027 6.027 0 0 1 1.44 2.196c.33.816.5 1.68.5 2.592v1.08c0 .936-.26 1.872-.79 2.808-.51.936-1.3 1.656-2.38 2.16v.432c.72.12 1.29.408 1.69.864.41.456.62 1.104.62 1.944V303Zm-12.82-13.176h5.62c1.7 0 2.96-.36 3.78-1.08.84-.744 1.26-1.824 1.26-3.24v-.648c0-1.272-.42-2.292-1.26-3.06-.82-.792-2.08-1.188-3.78-1.188h-5.62v9.216ZM1669.64 277.8h17.71v2.808h-7.34V303h-3.03v-22.392h-7.34V277.8ZM1694.92 277.8v16.704c0 2.04.47 3.588 1.41 4.644.96 1.032 2.36 1.548 4.21 1.548s3.24-.516 4.17-1.548c.96-1.056 1.44-2.604 1.44-4.644V277.8h3.03v16.704c0 2.928-.77 5.16-2.31 6.696-1.53 1.536-3.64 2.304-6.33 2.304s-4.8-.768-6.34-2.304c-1.53-1.536-2.3-3.768-2.3-6.696V277.8h3.02ZM1730.47 303h-3.03v-8.424c0-.624-.14-1.104-.43-1.44-.29-.336-.79-.504-1.51-.504h-7.85V303h-3.02v-25.2h9c1.29 0 2.42.192 3.38.576.96.36 1.75.852 2.38 1.476a6.027 6.027 0 0 1 1.44 2.196c.33.816.5 1.68.5 2.592v1.08c0 .936-.26 1.872-.79 2.808-.51.936-1.3 1.656-2.38 2.16v.432c.72.12 1.29.408 1.69.864.41.456.62 1.104.62 1.944V303Zm-12.82-13.176h5.62c1.7 0 2.96-.36 3.78-1.08.84-.744 1.26-1.824 1.26-3.24v-.648c0-1.272-.42-2.292-1.26-3.06-.82-.792-2.08-1.188-3.78-1.188h-5.62v9.216ZM1736.99 277.8h15.27v2.808h-12.24v8.352h12.02v2.808h-12.02v8.424h12.45V303h-15.48v-25.2ZM1772.61 285.072c0-.816-.17-1.536-.51-2.16a4.255 4.255 0 0 0-1.29-1.548 6.143 6.143 0 0 0-1.91-.936 7.875 7.875 0 0 0-2.27-.324c-.69 0-1.35.096-1.98.288-.62.168-1.19.42-1.69.756-.48.336-.86.756-1.15 1.26-.29.48-.43 1.044-.43 1.692v.216c0 .696.14 1.296.43 1.8.29.48.71.9 1.26 1.26.57.336 1.28.624 2.12.864.84.216 1.83.408 2.95.576 2.64.408 4.59 1.188 5.84 2.34 1.24 1.128 1.87 2.652 1.87 4.572v.432c0 1.08-.19 2.076-.58 2.988a6.05 6.05 0 0 1-1.65 2.304c-.72.648-1.62 1.152-2.7 1.512-1.08.36-2.33.54-3.75.54-1.61 0-3.03-.228-4.28-.684-1.23-.48-2.26-1.128-3.1-1.944a8.737 8.737 0 0 1-1.87-2.916c-.43-1.128-.65-2.352-.65-3.672v-1.08h3.03v.864c0 2.208.6 3.864 1.8 4.968 1.22 1.104 2.91 1.656 5.07 1.656 1.87 0 3.28-.408 4.21-1.224.96-.84 1.44-1.944 1.44-3.312v-.216c0-1.32-.49-2.328-1.47-3.024-.96-.696-2.53-1.2-4.72-1.512-1.27-.168-2.42-.42-3.45-.756-1.01-.36-1.88-.816-2.6-1.368a5.847 5.847 0 0 1-1.65-2.052c-.39-.792-.58-1.728-.58-2.808v-.432c0-.984.21-1.884.61-2.7.41-.816.98-1.524 1.7-2.124.74-.6 1.62-1.056 2.62-1.368 1.04-.336 2.16-.504 3.39-.504 1.41 0 2.67.204 3.78.612 1.13.408 2.07.96 2.84 1.656a6.327 6.327 0 0 1 1.73 2.412c.41.912.61 1.872.61 2.88v1.512h-3.02v-1.296Z"/><circle cx="73" cy="76" r="24" fill="#D2E3FC"/><path fill="#1A73E8" d="M70.983 83.464V65.176h-.648l-2.376 8.64h-4.537v-.432L66.448 62.8h9.287v20.664H82V88H63.855v-4.536h7.128ZM111.16 72.592c0-3.264.78-5.796 2.34-7.596 1.56-1.8 3.732-2.7 6.516-2.7s4.956.9 6.516 2.7c1.56 1.8 2.34 4.332 2.34 7.596v5.616c0 3.072-.66 5.484-1.98 7.236-1.296 1.728-3.12 2.724-5.472 2.988v1.512c0 .72.324 1.08.972 1.08h3.024v2.592h-4.032c-.816 0-1.488-.264-2.016-.792-.504-.528-.756-1.2-.756-2.016v-2.376c-2.376-.288-4.212-1.296-5.508-3.024-1.296-1.728-1.944-4.128-1.944-7.2v-5.616Zm8.856 13.104c1.944 0 3.396-.66 4.356-1.98.984-1.344 1.476-3.252 1.476-5.724v-5.184c0-2.304-.492-4.164-1.476-5.58-.96-1.416-2.412-2.124-4.356-2.124s-3.408.708-4.392 2.124c-.96 1.416-1.44 3.276-1.44 5.58v5.184c0 2.472.48 4.38 1.44 5.724.984 1.32 2.448 1.98 4.392 1.98ZM136.443 62.8v16.704c0 2.04.468 3.588 1.404 4.644.96 1.032 2.364 1.548 4.212 1.548 1.848 0 3.24-.516 4.176-1.548.96-1.056 1.44-2.604 1.44-4.644V62.8h3.024v16.704c0 2.928-.768 5.16-2.304 6.696-1.536 1.536-3.648 2.304-6.336 2.304s-4.8-.768-6.336-2.304c-1.536-1.536-2.304-3.768-2.304-6.696V62.8h3.024Zm19.667 0h15.984v2.808h-6.48v19.584h6.48V88H156.11v-2.808h6.48V65.608h-6.48V62.8Zm21.179 0h17.712v2.808h-7.344V88h-3.024V65.608h-7.344V62.8Zm23.267 0h15.264v2.808h-12.24v8.352h12.024v2.808H203.58v8.424h12.456V88h-15.48V62.8ZM260.158 88h-3.024v-8.424c0-.624-.144-1.104-.432-1.44-.288-.336-.792-.504-1.512-.504h-7.848V88h-3.024V62.8h9c1.296 0 2.424.192 3.384.576.96.36 1.752.852 2.376 1.476a5.83 5.83 0 0 1 1.44 2.196 6.74 6.74 0 0 1 .504 2.592v1.08c0 .936-.264 1.872-.792 2.808-.504.936-1.296 1.656-2.376 2.16v.432c.72.12 1.284.408 1.692.864.408.456.612 1.104.612 1.944V88Zm-12.816-13.176h5.616c1.704 0 2.964-.36 3.78-1.08.84-.744 1.26-1.824 1.26-3.24v-.648c0-1.272-.42-2.292-1.26-3.06-.816-.792-2.076-1.188-3.78-1.188h-5.616v9.216Zm32.375 6.912h-10.8L267.081 88h-3.24l7.632-25.2h5.688l7.632 25.2h-3.24l-1.836-6.264Zm-5.616-17.64-4.356 14.832h9.144l-4.356-14.832h-.432Zm13.403-1.296h17.712v2.808h-7.344V88h-3.024V65.608h-7.344V62.8Zm22.907 0h15.984v2.808h-6.48v19.584h6.48V88h-15.984v-2.808h6.48V65.608h-6.48V62.8Zm21.179 9.792c0-3.264.78-5.796 2.34-7.596 1.56-1.8 3.732-2.7 6.516-2.7s4.956.9 6.516 2.7c1.56 1.8 2.34 4.332 2.34 7.596v5.616c0 3.36-.78 5.916-2.34 7.668-1.56 1.752-3.732 2.628-6.516 2.628s-4.956-.876-6.516-2.628c-1.56-1.752-2.34-4.308-2.34-7.668v-5.616Zm8.856 13.104c1.944 0 3.396-.66 4.356-1.98.984-1.344 1.476-3.252 1.476-5.724v-5.184c0-2.304-.492-4.164-1.476-5.58-.96-1.416-2.412-2.124-4.356-2.124s-3.408.708-4.392 2.124c-.96 1.416-1.44 3.276-1.44 5.58v5.184c0 2.472.48 4.38 1.44 5.724.984 1.32 2.448 1.98 4.392 1.98Zm26.975 1.008h.432V62.8h3.024V88h-6.048l-7.272-23.904h-.432V88h-3.024V62.8h6.048l7.272 23.904Zm22.511-4.968h-10.8L377.296 88h-3.24l7.632-25.2h5.688l7.632 25.2h-3.24l-1.836-6.264Zm-5.616-17.64-4.356 14.832h9.144l-4.356-14.832h-.432Zm14.375-1.296h3.024v22.392h13.176V88h-16.2V62.8Z"/><circle cx="476" cy="76" r="24" fill="#D2E3FC"/><path fill="#1A73E8" d="M484.531 83.464V88h-17.712v-4.968c0-1.32.192-2.448.576-3.384a6.811 6.811 0 0 1 1.692-2.376c.744-.648 1.632-1.176 2.664-1.584 1.032-.432 2.196-.792 3.492-1.08.96-.216 1.74-.456 2.34-.72.624-.288 1.116-.6 1.476-.936.36-.36.6-.744.72-1.152.144-.432.216-.912.216-1.44 0-1.008-.372-1.848-1.116-2.52-.72-.672-1.728-1.008-3.024-1.008-1.368 0-2.46.42-3.276 1.26-.816.816-1.224 1.956-1.224 3.42v1.584h-4.752V71.08c0-1.176.204-2.292.612-3.348a8.541 8.541 0 0 1 1.8-2.808c.792-.816 1.752-1.452 2.88-1.908 1.128-.48 2.4-.72 3.816-.72 1.512 0 2.832.228 3.96.684 1.128.432 2.064 1.008 2.808 1.728a6.588 6.588 0 0 1 1.692 2.52c.384.936.576 1.908.576 2.916v.432c0 2.112-.6 3.864-1.8 5.256-1.176 1.392-3.108 2.4-5.796 3.024-1.128.264-2.064.54-2.808.828-.72.264-1.284.564-1.692.9-.408.336-.696.708-.864 1.116-.144.384-.216.828-.216 1.332v.432h12.96ZM515.132 62.8h3.024v22.392h13.176V88h-16.2V62.8Zm21.935 0h15.984v2.808h-6.48v19.584h6.48V88h-15.984v-2.808h6.48V65.608h-6.48V62.8Zm34.967 23.904h.432V62.8h3.024V88h-6.048l-7.272-23.904h-.432V88h-3.024V62.8h6.048l7.272 23.904Zm9.479-23.904h15.264v2.808h-12.24v8.352h12.024v2.808h-12.024v8.424h12.456V88h-15.48V62.8Zm35.075 18.936h-10.8L603.952 88h-3.24l7.632-25.2h5.688l7.632 25.2h-3.24l-1.836-6.264Zm-5.616-17.64-4.356 14.832h9.144l-4.356-14.832h-.432ZM641.115 88h-3.024v-8.424c0-.624-.144-1.104-.432-1.44-.288-.336-.792-.504-1.512-.504h-7.848V88h-3.024V62.8h9c1.296 0 2.424.192 3.384.576.96.36 1.752.852 2.376 1.476a5.83 5.83 0 0 1 1.44 2.196 6.74 6.74 0 0 1 .504 2.592v1.08c0 .936-.264 1.872-.792 2.808-.504.936-1.296 1.656-2.376 2.16v.432c.72.12 1.284.408 1.692.864.408.456.612 1.104.612 1.944V88Zm-12.816-13.176h5.616c1.704 0 2.964-.36 3.78-1.08.84-.744 1.26-1.824 1.26-3.24v-.648c0-1.272-.42-2.292-1.26-3.06-.816-.792-2.076-1.188-3.78-1.188h-5.616v9.216Zm54.958-4.752c0-.816-.168-1.536-.504-2.16a4.27 4.27 0 0 0-1.296-1.548 6.154 6.154 0 0 0-1.908-.936 7.85 7.85 0 0 0-2.268-.324c-.696 0-1.356.096-1.98.288a5.694 5.694 0 0 0-1.692.756c-.48.336-.864.756-1.152 1.26-.288.48-.432 1.044-.432 1.692v.216c0 .696.144 1.296.432 1.8.288.48.708.9 1.26 1.26.576.336 1.284.624 2.124.864.84.216 1.824.408 2.952.576 2.64.408 4.584 1.188 5.832 2.34 1.248 1.128 1.872 2.652 1.872 4.572v.432c0 1.08-.192 2.076-.576 2.988a6.023 6.023 0 0 1-1.656 2.304c-.72.648-1.62 1.152-2.7 1.512-1.08.36-2.328.54-3.744.54-1.608 0-3.036-.228-4.284-.684-1.224-.48-2.256-1.128-3.096-1.944a8.68 8.68 0 0 1-1.872-2.916c-.432-1.128-.648-2.352-.648-3.672v-1.08h3.024v.864c0 2.208.6 3.864 1.8 4.968 1.224 1.104 2.916 1.656 5.076 1.656 1.872 0 3.276-.408 4.212-1.224.96-.84 1.44-1.944 1.44-3.312v-.216c0-1.32-.492-2.328-1.476-3.024-.96-.696-2.532-1.2-4.716-1.512-1.272-.168-2.424-.42-3.456-.756-1.008-.36-1.872-.816-2.592-1.368a5.91 5.91 0 0 1-1.656-2.052c-.384-.792-.576-1.728-.576-2.808v-.432c0-.984.204-1.884.612-2.7a6.563 6.563 0 0 1 1.692-2.124c.744-.6 1.62-1.056 2.628-1.368 1.032-.336 2.16-.504 3.384-.504 1.416 0 2.676.204 3.78.612 1.128.408 2.076.96 2.844 1.656a6.386 6.386 0 0 1 1.728 2.412c.408.912.612 1.872.612 2.88v1.512h-3.024v-1.296Zm8.471-7.272h15.264v2.808h-12.24v8.352h12.024v2.808h-12.024v8.424h12.456V88h-15.48V62.8ZM729.287 88h-3.024v-8.424c0-.624-.144-1.104-.432-1.44-.288-.336-.792-.504-1.512-.504h-7.848V88h-3.024V62.8h9c1.296 0 2.424.192 3.384.576.96.36 1.752.852 2.376 1.476a5.83 5.83 0 0 1 1.44 2.196 6.74 6.74 0 0 1 .504 2.592v1.08c0 .936-.264 1.872-.792 2.808-.504.936-1.296 1.656-2.376 2.16v.432c.72.12 1.284.408 1.692.864.408.456.612 1.104.612 1.944V88Zm-12.816-13.176h5.616c1.704 0 2.964-.36 3.78-1.08.84-.744 1.26-1.824 1.26-3.24v-.648c0-1.272-.42-2.292-1.26-3.06-.816-.792-2.076-1.188-3.78-1.188h-5.616v9.216ZM735.454 62.8h15.984v2.808h-6.48v19.584h6.48V88h-15.984v-2.808h6.48V65.608h-6.48V62.8Zm22.439 0h15.48v2.808h-12.456v8.352h12.24v2.808h-12.24V88h-3.024V62.8Z"/></svg>