<svg width="1920" height="1080" fill="none" xmlns="http://www.w3.org/2000/svg">
  <g clip-path="url(#a)">
    <path fill="#ECCA4A" d="M670.2 931 1556 807.5l27.1 194.5-885.8 123.4z"/>
    <path d="M822 1028.1a23.4 23.4 0 0 1-6.9 21.5c-5.8 5.5-15 9.1-27.5 10.9-22.6 3.1-37-3.2-43-19l17.7-5.6c2 4.6 4.8 7.7 8.6 9.4 3.9 1.6 9 2 15.2 1a29 29 0 0 0 14.3-5c3-2.4 4.2-5.6 3.6-9.6a9.1 9.1 0 0 0-3-6c-1.8-1.4-4-2.4-7-3.2a211.8 211.8 0 0 0-16.3-1.8c-4.5-.4-8.2-.8-10.8-1.2a54.8 54.8 0 0 1-11.2-3 20.5 20.5 0 0 1-8.4-6.6c-2.2-2.9-3.7-6.7-4.3-11.4-1.2-8.1 1-14.7 6.4-19.8a46 46 0 0 1 25.6-10.1c11-1.6 19.6-1 25.6 1.7a25 25 0 0 1 13.2 15.6l-17.8 5a14 14 0 0 0-6.9-7.8c-3-1.6-7.3-2-12.6-1.3-5.7.8-9.8 2.3-12.4 4.5a8.9 8.9 0 0 0-3.1 8.6 9 9 0 0 0 2.6 5.4c1.4 1.3 3.4 2.3 5.9 3 2.4.8 7.3 1.4 14.9 2a220 220 0 0 1 19.1 2.4 39.2 39.2 0 0 1 9.5 4.1c2.5 1.8 4.5 4 6 6.8 1.5 2.6 2.6 5.8 3 9.5Zm63 3.6a25.8 25.8 0 0 1-7.5 12.6 23.5 23.5 0 0 1-12.5 5.4c-7.3 1-13.2-.5-17.7-4.4-4.5-3.9-7.3-10.2-8.5-18.8l-6.1-43.5 17.8-2.5 5.4 38.5c.8 6 2.4 10.3 4.9 13.1 2.4 2.7 5.7 3.8 9.7 3.2 4.3-.6 7.5-2.9 9.7-7 2.1-4 2.8-9 2-14.7l-5.2-36.8 17.8-2.5 7.5 53.3a260 260 0 0 0 2.6 15.2l-17 2.4a293.1 293.1 0 0 1-2.6-13.5h-.4ZM986 996.2c1.6 11.5.5 20.6-3.2 27.5a22.9 22.9 0 0 1-18.1 12c-10 1.4-17.4-1.7-22.5-9.2h-.4c.5 1.3 1.1 5.1 2 11.5l3.7 26.3-17.8 2.5-11.1-79.7a278.6 278.6 0 0 0-2.7-15.7l17.3-2.4a52.8 52.8 0 0 1 2.3 11h.2c1.4-4.5 3.8-8 7.2-10.6 3.4-2.7 7.7-4.3 13-5 8-1.2 14.6 1 19.9 6.6 5.2 5.5 8.6 14 10.2 25.2Zm-18.6 2.6c-1-7.7-3-13.3-6-16.8-2.8-3.5-6.6-5-11.3-4.3-4.7.7-8 3.3-10 7.8a34 34 0 0 0-1.4 17.8c1 7.4 3.1 13 6.2 16.7 3 3.6 7 5.2 11.6 4.5 4.8-.7 8-3.1 9.9-7.4a35.8 35.8 0 0 0 1-18.3Zm51.7-3.4c1 6.7 2.9 11.6 5.8 14.7 3 3 6.7 4.2 11.3 3.5 3.1-.4 5.6-1.4 7.4-3 1.8-1.7 3-4 3.4-6.8l17-.9c-3.2 13.1-12.2 20.7-27 22.8-10.3 1.4-18.7-.5-25-5.8-6.5-5.4-10.5-14-12-25.6-1.7-11.3 0-20.4 4.7-27.3 4.8-6.8 12.3-11 22.6-12.4 9.9-1.4 17.8.8 24 6.6 6 5.8 10 15 11.7 27.6v.5l-43.9 6.1Zm25.2-14.8c-1.1-5.5-3-9.5-5.7-12-2.7-2.4-6-3.3-10-2.8-4.2.6-7.2 2.5-9 5.7a20.7 20.7 0 0 0-1.9 12.8l26.6-3.7Zm53.2 1 4.7 33.7-17.8 2.5-7.3-52.5a205 205 0 0 0-2.7-16l17-2.4.5 2.5a254 254 0 0 1 2.3 12h.3c1-5 2-8.6 3.2-10.8a13 13 0 0 1 4.2-5c1.7-1.3 4-2 6.7-2.4 2.3-.3 4.2-.3 5.7.2l2 14.8c-2.9-.2-5.4-.2-7.7.2a12 12 0 0 0-9.6 6.8c-2 4-2.4 9.4-1.5 16.5Zm54-30.8 7.8 56.5-17.7 2.5-7.9-56.5-10 1.4-1.7-12 10-1.4-1-7.2c-.8-6.2.2-11 3-14.5 3-3.5 7.7-5.6 14.5-6.6 3.4-.5 7.2-.7 11.4-.5l1.6 11.4a24 24 0 0 0-5.3.2c-3 .4-5.1 1.3-6.2 2.7-1 1.4-1.4 3.6-1 6.6l.8 5.4 13.5-1.9 1.7 12-13.5 2Zm49.6 52c-6.6 1-12-.1-16.3-3.2-4.2-3.1-6.7-8-7.7-14.5-1-7.1.6-12.8 4.7-17.1a33.3 33.3 0 0 1 19.3-8.6l14.8-2.3-.5-3.5c-.6-4.5-1.9-7.7-3.7-9.6-2-2-4.6-2.7-8.2-2.2-3.3.4-5.6 1.5-7 3.3-1.3 1.7-1.9 4.3-1.8 7.8l-18.6 1.7c.4-14 9.3-22 26.6-24.5a29 29 0 0 1 20.9 3.6c5.3 3.7 8.5 9.4 9.6 17.2l3.4 25c.6 3.8 1.4 6.4 2.4 7.8 1.1 1.3 2.7 1.8 4.7 1.6 1.3-.2 2.6-.5 3.9-1l1.3 9.7-5.5 2c-1.5.5-3.4.9-5.7 1.2-4.4.6-8 0-10.4-2a16 16 0 0 1-5.1-9h-.4a26.9 26.9 0 0 1-8 11.4 25.5 25.5 0 0 1-12.7 5.2Zm16.1-35.9-9 1.4c-4.2.8-7 1.7-8.7 2.6a8.7 8.7 0 0 0-3.5 4c-.7 1.6-.8 3.7-.5 6.2.5 3.3 1.6 5.6 3.3 7a8.1 8.1 0 0 0 6.3 1.5c2.8-.4 5.2-1.5 7.3-3.3 2.1-1.9 3.6-4.2 4.5-7 1-3 1.3-5.9.8-8.9l-.5-3.5Zm56.3-13 5.1 36.8-17.8 2.5-7.4-53.2a172.2 172.2 0 0 0-2.7-15.3l17-2.3a250.6 250.6 0 0 1 2.7 13.5h.3c1.5-5.6 3.7-9.8 6.6-12.6 3-2.8 6.7-4.6 11.3-5.2a20 20 0 0 1 13 2c3.6 2 6.3 5.5 8.1 10.3h.4c1.6-5.7 3.8-10 6.8-12.7 2.9-2.8 6.9-4.5 11.9-5.2 6.7-1 12 .6 16.2 4.7 4.2 4 6.8 10.3 8 18.8l6 43.5-17.6 2.5-5.4-38.5a28 28 0 0 0-4.5-13.2 8.5 8.5 0 0 0-8.4-3.4c-3.4.5-6.1 2.6-8 6.3a24.2 24.2 0 0 0-1.5 14.3l5.2 37.6-17.7 2.5-5.3-38.5c-.9-6-2.3-10.4-4.5-13.2a8.5 8.5 0 0 0-8.4-3.4c-3.6.5-6.3 2.8-8 6.8-1.8 4-2.2 8.9-1.4 14.7Zm110.9-73.8 1.8 13.2-17.8 2.4-1.8-13 17.8-2.6Zm3.5 25.5 9.6 68.6-17.8 2.4-9.6-68.5 17.8-2.5Zm36-31 13.2 94-17.8 2.5-13.1-94 17.8-2.5Zm47.6 116.7c-4.4.6-8.2.8-11.4.7l-1.7-12.6c2.4 0 4.5-.1 6.2-.4 4.1-.6 7-2.1 8.8-4.6a35 35 0 0 0 4.4-12.1l-36.6-64.1 18.9-2.6 15.2 30.6a490.6 490.6 0 0 1 9.3 20.3 606.3 606.3 0 0 1 2.8-21.8l5.7-33.7 18.6-2.6-17 75.9a60.1 60.1 0 0 1-5.4 14.7 23 23 0 0 1-7.4 8.6 24.6 24.6 0 0 1-10.4 3.7Z" fill="#fff"/>
    <path fill="#C0BECC" d="m776.9 716 687.5-172.6 47.8 190.4-687.5 172.6z"/>
    <path d="m891.6 800.7 8 32-18.2 4.6-22-87.4 64.5-16.2 3.5 14.2-46.1 11.6 6.8 27 44.7-11.2 3.6 14.1-44.8 11.3ZM1015 768a36.3 36.3 0 0 1-2.7 27.9 34.5 34.5 0 0 1-22.7 15.5 33.5 33.5 0 0 1-27-3.1 36.5 36.5 0 0 1-15.3-23.3 36.2 36.2 0 0 1 2.5-27.7 34 34 0 0 1 22.7-15.6c11-2.7 20-1.8 27.3 2.7 7.3 4.5 12.3 12.4 15.1 23.6Zm-18.3 4.6c-2-8-4.7-13.5-8.3-16.4-3.5-3-7.7-3.8-12.7-2.6-5.3 1.4-8.8 4.3-10.4 8.7a30.7 30.7 0 0 0 .3 18 32.4 32.4 0 0 0 8.1 16.2c3.6 3.3 7.8 4.3 12.7 3 5.4-1.3 9-4.2 10.6-8.7a31.1 31.1 0 0 0-.3-18.2Zm49-14.9 9.1 36-17.4 4.4-13-52.1a186.8 186.8 0 0 0-4.4-14.9l16.7-4.2 1.2 3.5a192.5 192.5 0 0 1 3 9.7l.2-.1c1-5.7 3-10.2 6-13.4 3-3.2 7-5.4 11.9-6.7 7.1-1.7 13.1-1 18 2.5 5 3.4 8.4 9.4 10.5 17.8l10.8 42.6-17.4 4.4-9.5-37.7c-1.5-5.9-3.6-10-6.3-12.5-2.7-2.4-6-3.2-10-2.1-4.3 1-7.3 3.7-9 8a24 24 0 0 0-.3 14.8Zm101.1 11.9a48 48 0 0 1-14.2 5.8c-5.1 1.3-9.4.9-12.9-1.2-3.4-2.1-5.9-6-7.3-11.7l-10-39.6-8.5 2.2-3-11.8 9.5-2.4 1.5-17 10.9-2.8 4 15.7 12.6-3.2 3 11.8-12.7 3.2 8.8 34.9c.8 3.2 2 5.5 3.6 6.8 1.7 1.2 3.8 1.5 6.4.8 1.2-.3 3-1 5.6-2.3l2.7 10.8Zm110.8-53.6c2.2 8.6.6 16-4.6 22.1a49.5 49.5 0 0 1-26.2 13.8c-22.2 5.5-37 .8-44.7-14.3l17-7.4c2.3 4.3 5.5 7.1 9.5 8.4 4 1.2 9 1 15.2-.6a29 29 0 0 0 13.7-6.5c2.7-2.7 3.5-6 2.6-10a9.1 9.1 0 0 0-3.7-5.5c-1.9-1.3-4.3-2.1-7.3-2.5a211.7 211.7 0 0 0-16.4 0h-10.9a53.3 53.3 0 0 1-11.4-1.9c-3.5-1-6.6-3-9.1-5.6a24.3 24.3 0 0 1-5.5-11c-2-7.9-.6-14.6 4.3-20.3a46 46 0 0 1 24.3-12.8c10.9-2.8 19.4-3.1 25.7-1a25 25 0 0 1 14.8 14l-17.2 7a14 14 0 0 0-7.7-7.1 21.7 21.7 0 0 0-12.7.1 24.5 24.5 0 0 0-11.8 5.8 8.9 8.9 0 0 0-2.2 8.8 9 9 0 0 0 3.1 5.2c1.6 1.1 3.7 1.9 6.3 2.4 2.4.4 7.4.5 15 .2a221.5 221.5 0 0 1 19.3.4 38.4 38.4 0 0 1 9.9 3.1 21 21 0 0 1 6.6 6c1.8 2.5 3.2 5.6 4.1 9.2Zm14.6-74.7 3.2 12.8-17.4 4.4-3.2-12.8 17.4-4.4Zm6.3 25 16.8 67-17.4 4.4-16.9-67.1 17.4-4.4Zm81.7 37.2 3.2 12.8-53.8 13.5-3.2-12.4 21-50-29 7.2-3.2-12.6 48.3-12.1 3.1 12.5-20.8 49.8 34.4-8.7Zm23.6-24.5c1.6 6.6 4 11.2 7.3 14 3.3 2.6 7.1 3.4 11.6 2.3 3-.8 5.4-2 7-3.9a11 11 0 0 0 2.6-7l16.8-2.7c-1.7 13.3-9.8 21.8-24.3 25.5-10.1 2.5-18.6 1.5-25.6-3.1-6.9-4.6-11.8-12.7-14.7-24.1-2.7-11.1-2.1-20.3 1.9-27.7 4-7.3 11-12.2 21.1-14.8 9.7-2.4 17.8-1 24.5 4 6.7 5.2 11.6 13.9 14.7 26.2l.1.5-43 10.8Zm23.4-17.5c-1.7-5.3-4-9-7-11.1-3-2.2-6.3-2.8-10.2-1.8-4 1-6.9 3.2-8.4 6.6a20.7 20.7 0 0 0-.5 12.9l26.1-6.6Z" fill="#443D4D"/>
    <path fill="#433C4C" d="m782.7 134.5 656 168-49.5 193.3-656-168z"/>
    <path d="M981.9 303.5c5.2 1.4 9.5-.3 12.9-5l6.8 4.7c-2.7 3.6-5.8 6-9.5 7.1a21.7 21.7 0 0 1-12 0c-4.4-1-8-2.9-10.6-5.4a17.6 17.6 0 0 1-5.3-9.2c-.8-3.6-.6-7.6.6-12.1 1.1-4.6 2.9-8.2 5.3-11 2.3-2.7 5.2-4.4 8.7-5.3 3.5-.8 7.4-.7 11.8.4 4.9 1.3 8.6 3.3 11.1 6 2.6 2.7 4 6.1 4.3 10.2l-8.2.1c-.1-2.2-1-4.2-2.5-5.9a12.2 12.2 0 0 0-6.2-3.5c-4-1-7.2-.6-9.9 1.3-2.6 2-4.5 5.2-5.7 9.9-.8 3.2-1 6-.7 8.4a11 11 0 0 0 2.8 6 13 13 0 0 0 6.3 3.3Zm57 4.3a17.1 17.1 0 0 1-7.4 11c-3.6 2.2-8 2.7-13 1.4-5-1.3-8.4-3.7-10.5-7.4-2-3.7-2.4-8-1.1-13.2 1.3-5 3.7-8.7 7.3-10.9 3.5-2.2 7.9-2.7 13-1.4 5.1 1.4 8.7 3.8 10.7 7.3s2.3 8 1 13.2Zm-8.7-2.2c1-3.7 1.1-6.6.3-8.7-.8-2-2.4-3.3-4.7-3.9-2.5-.6-4.6-.2-6.3 1.3-1.7 1.4-3 4-4 7.6-.9 3.5-1 6.3-.2 8.5a6.2 6.2 0 0 0 4.6 4.1c2.5.7 4.6.3 6.4-1.2 1.7-1.5 3-4 4-7.7Zm23.9 5-4.4 17-8.2-2.2 6.3-24.6a93.3 93.3 0 0 0 1.6-7.2l7.8 2c0 .3 0 .9-.3 1.8a88.5 88.5 0 0 1-1 4.7h.2c1.7-2.1 3.6-3.5 5.6-4.2 2-.7 4-.7 6.4-.1 3.4.8 5.7 2.5 7 5 1.2 2.6 1.3 5.9.3 9.9l-5.2 20.1-8.2-2.1 4.6-17.8c.7-2.8.8-5 .2-6.6-.6-1.7-1.8-2.7-3.7-3.2-2-.5-3.9 0-5.5 1.3a11.4 11.4 0 0 0-3.5 6.1Zm39.4 27.7c-2.2.1-4.6-.1-7.2-.8-2.5-.6-4.1-1.8-5.1-3.4-1-1.7-1.1-3.9-.5-6.5l4.8-18.7-4-1 1.5-5.6 4.4 1 4.5-6.7 5.1 1.3-1.9 7.5 6 1.5-1.4 5.6-6-1.6-4.2 16.5c-.4 1.6-.4 2.8 0 3.7.4.9 1.2 1.4 2.4 1.8l2.9.3-1.3 5Zm17.1-11.7-4 15.5-8.2-2 6.2-24.4a78.9 78.9 0 0 0 1.7-7.5l7.8 2-.1 1.2-.5 2.1a92.5 92.5 0 0 1-.7 3.6h.1c1.3-2 2.5-3.3 3.3-4.1a6 6 0 0 1 2.8-1.5c1-.2 2-.1 3.4.2 1 .3 1.8.6 2.4 1l-1.7 7-3.4-1.4c-2.1-.5-4 0-5.5 1.3a13.6 13.6 0 0 0-3.6 7Zm18.5 21.9c-3.1-.8-5.3-2.2-6.6-4.3a9.8 9.8 0 0 1-.8-7.8c.9-3.2 2.6-5.5 5.2-6.6 2.5-1.2 5.9-1.3 10-.3l6.8 1.6.4-1.6c.6-2 .6-3.7.1-4.9-.4-1.2-1.5-2-3.1-2.4-1.5-.4-2.8-.3-3.7.2-.8.5-1.6 1.5-2.2 3l-8.5-2.5c2.7-6 8-8 16.1-6 4 1 6.8 2.9 8.5 5.4 1.7 2.5 2 5.6 1.1 9.2l-3 11.6c-.4 1.8-.5 3-.3 3.8.2.8.8 1.3 1.8 1.6l1.8.2-1.1 4.5a33.9 33.9 0 0 1-5.5-.6c-2-.5-3.5-1.4-4.2-2.7-.7-1.3-1-2.9-.6-5h-.2c-1.7 1.8-3.5 3-5.5 3.6-2 .6-4.2.6-6.5 0Zm13.5-12.8-4.3-1c-2-.4-3.3-.6-4.2-.5-.9.2-1.6.5-2.3 1.1-.5.6-1 1.5-1.3 2.7-.4 1.5-.3 2.7.2 3.6.5 1 1.3 1.5 2.5 1.8 1.3.4 2.5.3 3.8-.1a7.5 7.5 0 0 0 3.2-2.3c1-1 1.6-2.3 2-3.7l.4-1.6Zm42 16.5c-.9 3-2.7 5.2-5.7 6.3-3 1-6.7 1-11 0a20.6 20.6 0 0 1-9.6-4.7c-2-2-3-4.5-3-7.6l7.6.7c0 1.7.4 2.9 1.3 3.8a11 11 0 0 0 5 2.3c2.3.6 4 .7 5.3.4a3 3 0 0 0 2.3-2.4c.2-1 0-1.9-.7-2.7a12 12 0 0 0-4-2.6 141.6 141.6 0 0 1-6.8-3.7l-1.9-1.3a9.8 9.8 0 0 1-3-4 8.4 8.4 0 0 1 0-5c.8-3 2.5-5.1 5.3-6.2 2.8-1 6.3-1 10.6 0 3.8 1 6.6 2.5 8.5 4.5 2 2 2.9 4.6 2.7 7.5l-7.5-1.1c.1-1.4-.2-2.5-1-3.3-.7-.9-2.1-1.6-4.1-2.1-2-.5-3.5-.6-4.6-.4-1.1.3-1.8 1-2.1 2.1-.2 1 0 1.8.5 2.5a11 11 0 0 0 3.5 2.3l6.2 3.3c1.8 1 3.2 2 4.2 3.1 1 1 1.6 2.2 2 3.6.4 1.3.4 2.9 0 4.7Zm19.5 14.4c-2.1.2-4.5-.1-7.2-.8-2.4-.6-4.1-1.7-5-3.4-1-1.6-1.2-3.8-.5-6.5l4.8-18.7-4-1 1.4-5.6 4.4 1.1 4.5-6.8 5.2 1.4-2 7.4 6 1.6-1.3 5.5-6-1.5-4.3 16.5c-.4 1.5-.4 2.7 0 3.6.4.9 1.2 1.5 2.5 1.8.6.2 1.5.3 2.8.3l-1.3 5.1Z" fill="#fff"/>
    <path fill="#433C4C" d="m782.7 134.5 656 168-49.5 193.3-656-168z"/>
    <path d="M866.2 291.3c11 2.9 20.1-.7 27.2-10.7l14.4 10a39.5 39.5 0 0 1-20 15 45.8 45.8 0 0 1-25.3 0 51.1 51.1 0 0 1-22.5-11.3 37.2 37.2 0 0 1-11-19.5 55.2 55.2 0 0 1 1-25.7 55.7 55.7 0 0 1 11.2-23c5-5.8 11.2-9.5 18.5-11.3a51 51 0 0 1 25 .8c10.3 2.7 18 6.9 23.5 12.6 5.4 5.8 8.3 13 8.9 21.6l-17.2.3c-.3-4.7-2-8.9-5.4-12.5a25.9 25.9 0 0 0-13.1-7.5c-8.3-2.1-15.2-1.2-20.8 2.9-5.6 4-9.6 11-12.1 20.8a44.8 44.8 0 0 0-1.5 17.7c.8 5 2.8 9.3 6 12.7 3.3 3.3 7.6 5.7 13.2 7.1Zm120.3 9a36.3 36.3 0 0 1-15.6 23.3 34.5 34.5 0 0 1-27.4 2.8 33.5 33.5 0 0 1-22.2-15.6c-4.4-7.7-5.1-17-2.4-27.8a36.2 36.2 0 0 1 15.5-23 34 34 0 0 1 27.3-3c11 2.8 18.5 8 22.7 15.4 4.3 7.4 5 16.8 2.1 28Zm-18.2-4.6c2-8 2.2-14.1.5-18.4-1.6-4.2-5-7-10-8.3-5.2-1.3-9.6-.4-13.3 2.7-3.6 3-6.4 8.4-8.3 16-2 7.5-2 13.5-.5 18.1 1.6 4.6 4.8 7.5 9.7 8.7 5.4 1.4 9.9.5 13.5-2.6 3.6-3.2 6.5-8.6 8.4-16.2Zm50.2 10.3-9.2 36-17.4-4.5 13.3-52a176.5 176.5 0 0 0 3.4-15.2l16.6 4.3-.6 3.6a242.2 242.2 0 0 1-2 10h.2c3.7-4.5 7.6-7.5 11.7-8.9 4.2-1.4 8.7-1.5 13.6-.2 7.1 1.8 12 5.4 14.7 10.7 2.7 5.4 3 12.3.8 20.7l-11 42.6-17.3-4.5 9.7-37.6c1.5-5.9 1.6-10.6.4-14-1.2-3.4-3.9-5.7-7.9-6.7-4.2-1-8-.1-11.6 2.8a24 24 0 0 0-7.4 13Zm83.2 58.6a48 48 0 0 1-15.3-1.7c-5-1.3-8.7-3.7-10.7-7.2s-2.4-8-1-13.7l10.2-39.6-8.5-2.1 3-11.8 9.4 2.4 9.5-14.4 10.9 2.8-4 15.8 12.7 3.2-3 11.8-12.8-3.2-8.9 34.8c-.8 3.2-.8 5.8 0 7.7.9 1.9 2.6 3.1 5.2 3.8 1.2.3 3.3.5 6 .6l-2.7 10.8Zm36-24.8-8.4 33-17.4-4.5 13.2-51.3a183.5 183.5 0 0 0 3.5-16l16.6 4.3-.4 2.6-.8 4.4a193.1 193.1 0 0 1-1.6 7.6h.2c2.8-4.2 5.2-7.1 7-8.8 1.9-1.6 3.8-2.6 5.9-3 2-.5 4.4-.4 7.2.3 2.2.6 3.9 1.4 5.1 2.3l-3.7 14.6c-2.6-1.3-5-2.3-7.2-2.8a12 12 0 0 0-11.5 2.6 28.7 28.7 0 0 0-7.6 14.7Zm39 46.4a21.6 21.6 0 0 1-13.9-9.2c-2.7-4.5-3.3-10-1.6-16.3 1.8-7 5.4-11.7 10.8-14.1a33.3 33.3 0 0 1 21.1-.6l14.5 3.5 1-3.4c1-4.4 1.1-7.9.1-10.4s-3.2-4.2-6.7-5.1c-3.2-.8-5.8-.7-7.7.4-1.8 1-3.4 3.2-4.6 6.5l-18-5.5c5.7-12.7 17-16.8 34-12.5 8.4 2.2 14.4 6 18 11.3 3.5 5.3 4.2 11.8 2.3 19.5l-6.3 24.4c-1 3.8-1.2 6.5-.7 8.2.5 1.6 1.7 2.7 3.7 3.2 1.3.3 2.6.5 4 .6l-2.5 9.4c-2.3 0-4.2 0-5.8-.2-1.6-.1-3.5-.5-5.8-1-4.3-1.2-7.3-3-8.8-5.8a16 16 0 0 1-1.3-10.4h-.4a27 27 0 0 1-11.7 7.5 25.5 25.5 0 0 1-13.8 0Zm28.5-27.1-9-2.2a31 31 0 0 0-9-.9c-1.8.3-3.4 1-4.7 2.3a12 12 0 0 0-2.8 5.7c-.8 3.1-.7 5.7.3 7.6a8 8 0 0 0 5.3 3.8c2.8.7 5.5.6 8.1-.3 2.6-.9 4.9-2.5 6.8-4.8 2-2.3 3.4-4.9 4.1-7.8l.9-3.4Zm88.5 34.9c-1.6 6.5-5.6 10.9-11.9 13.2-6.2 2.3-14 2.3-23.4 0-9.2-2.5-15.9-5.7-20-9.9a22.1 22.1 0 0 1-6.3-16l15.9 1.5c0 3.4 1 6 2.7 8 1.8 1.8 5.4 3.4 10.7 4.8 4.8 1.2 8.5 1.5 11.1.9a6.4 6.4 0 0 0 4.8-5 6 6 0 0 0-1.4-5.8 25.6 25.6 0 0 0-8.3-5.6 277 277 0 0 1-14.4-7.6c-1.7-1.1-3-2-4-2.9-3-2.6-5.1-5.4-6.3-8.5a17.7 17.7 0 0 1-.1-10.5 18 18 0 0 1 11.2-13 36.4 36.4 0 0 1 22.4 0c8 2 14 5.2 18 9.5 4 4.4 6 9.6 5.6 15.8l-15.8-2.3c.2-2.9-.5-5.2-2-7-1.7-2-4.6-3.4-8.8-4.5-4.1-1-7.4-1.3-9.7-.7-2.3.5-3.8 2-4.5 4.4-.5 2 0 3.7 1.2 5.3 1.3 1.5 3.8 3.1 7.3 4.8 5 2.5 9.4 4.8 13.1 7 3.8 2.1 6.8 4.3 8.9 6.5 2 2.2 3.4 4.7 4.2 7.6.9 2.8.8 6.1-.2 10Zm41.3 30.4a48 48 0 0 1-15.2-1.7c-5-1.3-8.7-3.7-10.7-7.2s-2.4-8-1-13.7l10.2-39.6-8.5-2.2 3-11.7 9.4 2.4 9.5-14.4 10.9 2.8-4 15.8 12.6 3.2-3 11.8-12.7-3.3-9 34.9c-.8 3.2-.7 5.8 0 7.7 1 1.8 2.7 3 5.3 3.8 1.2.3 3.2.5 6 .6l-2.8 10.8Z" fill="#fff"/>
    <path fill="#A4E0CA" d="m1158.2-48.4 523.4 246.8-84.5 179.3-523.4-246.8z"/>
    <path d="M1259 90.3c-2.5 5.3-6 9.4-10.3 12.4-4.3 2.9-9.2 4.5-14.8 4.7a38 38 0 0 1-17.4-4l-20.3-9.6-13.5 28.7-17-8 38.4-81.6 36.6 17.3a37 37 0 0 1 19.3 17.4 26 26 0 0 1-1 22.7Zm-17.4-7.8c4-8.5 1-15.2-9-20l-17.7-8.3-12.5 26.5 18.1 8.5c4.7 2.2 9 2.8 12.5 1.7 3.7-1.2 6.6-4 8.6-8.4Zm17.3 77.3c-6-2.8-10-6.7-11.8-11.6-1.8-4.9-1.4-10.3 1.5-16.3 3-6.5 7.4-10.4 13.2-11.8 5.9-1.3 12.8-.2 21 3.4l13.5 6.2 1.5-3.2c2-4.1 2.6-7.5 2.1-10.1-.4-2.7-2.3-4.8-5.5-6.3-3-1.4-5.6-1.8-7.7-1-2 .6-4 2.5-5.8 5.5l-16.5-8.8c8-11.4 19.8-13.4 35.6-6 8 3.8 13.1 8.6 15.5 14.5 2.5 6 2 12.5-1.4 19.7l-10.7 22.8a17.6 17.6 0 0 0-2.3 7.8c.2 1.7 1.2 3 3 3.8 1.3.6 2.6 1 3.8 1.4l-4.1 8.8-5.7-1.3c-1.5-.4-3.4-1.1-5.4-2.1-4.1-2-6.7-4.4-7.7-7.3-1-3-.8-6.4.7-10.5l-.4-.2c-4.2 3-8.5 4.8-12.9 5.3-4.4.4-8.9-.5-13.5-2.7Zm33.2-21.2-8.4-3.8a31 31 0 0 0-8.6-2.6c-2 0-3.6.4-5.1 1.4-1.5 1-2.8 2.7-3.9 5-1.4 3-1.8 5.5-1.1 7.6.7 2.1 2.2 3.7 4.5 4.8 2.5 1.2 5.2 1.6 8 1.2 2.7-.4 5.3-1.6 7.6-3.4 2.4-2 4.2-4.3 5.5-7l1.5-3.2Zm75.6-33.8-5.6 12-16.3-7.7 5.7-12 16.2 7.7Zm-11 23.2-29.5 62.6-16.2-7.6 29.5-62.6 16.3 7.6Zm18 47.5-14.5 30.7-16.3-7.7 22.6-47.9a192.9 192.9 0 0 0 6.5-14.9l15.5 7.3c0 .4-.4 1.2-.8 2.4a475 475 0 0 1-4.7 11.3l.2.1c3.6-3.6 6.4-6 8.6-7.3 2.1-1.2 4.2-1.9 6.3-1.9 2 0 4.4.5 7 1.7 2 1 3.6 2 4.6 3.3l-6.4 13.6a35.6 35.6 0 0 0-6.6-4.2c-4-1.9-8-1.7-11.8.5a28.7 28.7 0 0 0-10.2 13Zm72.2-33.4-5.7 12-16.2-7.7 5.6-12 16.3 7.7Zm-11 23.3-29.5 62.6-16.3-7.7 29.5-62.6 16.3 7.7Zm19.3 44.5-15.9 33.6-16.2-7.7 23-48.6a171.1 171.1 0 0 0 6-14.2l15.6 7.3-1.3 3.5a243 243 0 0 1-3.9 9.3l.3.1c4.4-3.7 8.8-5.9 13.2-6.5 4.3-.6 8.8.2 13.3 2.4 6.7 3.1 10.8 7.5 12.4 13.3 1.6 5.8.6 12.6-3.1 20.5l-18.8 39.7-16.1-7.6 16.5-35.2c2.6-5.5 3.6-10 3-13.6-.5-3.7-2.6-6.3-6.4-8.1-4-1.9-7.9-1.7-12 .6-3.9 2.2-7.1 6-9.6 11.2Zm54.7 97.6c-7.6-3.6-13.1-8-16.4-13.1-3.3-5.1-4.2-10.6-2.7-16.5l17.2 5.7a11 11 0 0 0 .9 7.7c1.3 2.3 3.4 4.2 6.5 5.7 4.5 2.1 8.5 2.3 11.9.5 3.4-1.8 6.4-5.5 9-11l4.5-9.4h-.1c-3.6 3-7.5 4.7-11.8 5-4.2.3-8.8-.7-13.8-3a21.9 21.9 0 0 1-13-16.2c-1.5-7.4.2-16.2 5-26.3a43.2 43.2 0 0 1 17.4-20.8c6.7-3.6 14-3.5 21.9.2 4.5 2.1 8 4.9 10.2 8.2 2.3 3.4 3.4 7.4 3.4 12l.3.1a76 76 0 0 1 5.5-9.7l15.4 7.3c-2.2 4-4.6 8.8-7.1 14.3l-21.8 46.2c-4.2 9-10 14.5-17.1 16.6-7.2 2.2-15.7 1-25.3-3.5Zm40.6-51c3-6.3 4.3-12 3.6-16.6-.5-4.7-3-8-7.2-10a12 12 0 0 0-12.2.6 33.2 33.2 0 0 0-10.6 14 32.6 32.6 0 0 0-4 16.9c.5 4.4 3 7.6 7.3 9.7 4.3 2 8.4 1.8 12.4-.8 4-2.5 7.6-7 10.7-13.7Z" fill="#433D49"/>
    <path fill="#76AC3D" d="m297.5 199 435.4 4-1.8 198.2-435.4-4z"/>
    <path d="M439 318.4c0 8.8-3.4 15.5-10 20.2a49.4 49.4 0 0 1-28.8 6.7c-22.8-.2-36-8.6-39.6-25.1l18.2-2.9c1.2 4.8 3.6 8.3 7.1 10.5 3.6 2.2 8.6 3.3 15 3.3a29 29 0 0 0 14.8-2.8c3.3-2 5-5 5-9 0-2.6-.7-4.7-2.2-6.3-1.5-1.7-3.6-3.1-6.3-4.3l-6-1.8a260.6 260.6 0 0 1-20.4-5.1 53.4 53.4 0 0 1-10.6-4.7c-3.2-2-5.7-4.5-7.5-7.7a24.2 24.2 0 0 1-2.5-12c0-8.1 3.2-14.3 9.3-18.6a46 46 0 0 1 26.8-6.3c11.2.1 19.5 2 25 5.5a25 25 0 0 1 10.8 17.4l-18.3 2.4a14 14 0 0 0-5.7-8.8c-2.8-2-7-3-12.3-3.1-5.7 0-10 .8-12.9 2.6a8.9 8.9 0 0 0-4.4 8 9 9 0 0 0 1.8 5.8c1.2 1.5 3 2.8 5.4 3.9 2.2 1 7 2.3 14.5 4a220 220 0 0 1 18.5 5.2 38.8 38.8 0 0 1 8.8 5.5 21 21 0 0 1 5 7.6c1 2.8 1.6 6.1 1.6 9.9Zm47.5 25.4a48 48 0 0 1-15.2 2c-5.3 0-9.4-1.5-12.2-4.4-2.8-3-4.2-7.3-4.2-13.1l.4-40.8-8.7-.1v-12.2l9.7.1 5.8-16.2 11.3.1-.2 16.3h13.1v12.2H473l-.3 35.9c0 3.3.6 5.8 1.8 7.5 1.3 1.6 3.3 2.4 6 2.4 1.2 0 3.2-.3 6-.9l-.1 11.2Zm20 28.4c-4.5 0-8.3-.4-11.4-1l.1-12.8c2.4.4 4.5.6 6.2.6 4.2 0 7.3-1 9.4-3.3 2-2.2 4.2-6 6.2-11.3l-26.8-68.8 19 .2 10.6 32.5c.8 2.4 1.8 5.3 2.8 8.9l3.5 12.5a626.1 626.1 0 0 1 5.9-21l10.5-32.6 18.8.2-28 72.6a61.5 61.5 0 0 1-7.4 13.7 23 23 0 0 1-8.6 7.4c-3 1.5-6.7 2.2-10.9 2.2ZM590 250.8l-1 95-17.9-.2.9-95 18 .2Zm33.2 64.1c0 6.7 1.1 11.9 3.6 15.3 2.5 3.5 6 5.2 10.6 5.2 3.2 0 5.7-.6 7.8-2a11 11 0 0 0 4.3-6l17 1.5c-5 12.5-15 18.7-30.1 18.6-10.4-.1-18.4-3.3-23.9-9.5s-8.2-15.2-8.1-27c0-11.5 3-20.2 8.7-26.3 5.8-6.1 13.8-9 24.2-9 10 0 17.5 3.5 22.7 10.1 5.2 6.6 7.7 16.3 7.6 29v.5l-44.4-.4Zm27.1-11c-.3-5.6-1.6-9.8-4-12.6a11.7 11.7 0 0 0-9.3-4.3c-4.3 0-7.5 1.4-9.9 4.3-2.3 3-3.5 7-3.7 12.4l26.9.2Z" fill="#403C51"/>
    <path fill="#99E5EE" d="m-271.9 70.3 1335.8-174.7L1090 95.2-245.8 270z"/>
    <path d="m-111.6 181.5 2 14.5-66.7 8.7-11.7-89.3 18.7-2.5 9.8 75 48-6.4ZM-77 193c-6.7.9-12-.2-16.3-3.3-4.2-3.2-6.7-8-7.6-14.6-.9-7 .7-12.8 4.8-17 4.2-4.4 10.7-7.2 19.4-8.5l14.8-2.2-.5-3.5c-.5-4.4-1.8-7.7-3.6-9.6-1.9-2-4.6-2.8-8.1-2.3-3.3.4-5.6 1.5-7 3.2-1.3 1.7-2 4.3-1.9 7.8l-18.7 1.6c.6-13.9 9.5-22 26.8-24.2 8.7-1.2 15.7 0 21 3.7 5.2 3.7 8.3 9.5 9.3 17.3l3.3 25c.5 3.9 1.3 6.5 2.3 7.8 1 1.4 2.6 1.9 4.7 1.6 1.3-.1 2.6-.4 3.9-.9l1.2 9.7-5.5 2a32 32 0 0 1-5.7 1.1c-4.5.6-8 0-10.4-2-2.4-1.9-4-5-5-9.2h-.4a27 27 0 0 1-8 11.4A25.5 25.5 0 0 1-77 193Zm16.4-35.7-9.1 1.3a31 31 0 0 0-8.7 2.5 8.7 8.7 0 0 0-3.5 4c-.7 1.6-.9 3.6-.6 6.2.5 3.2 1.5 5.6 3.2 7a8 8 0 0 0 6.3 1.5c2.8-.3 5.3-1.4 7.4-3.2 2.1-1.9 3.6-4.2 4.6-7 1-2.9 1.2-5.8.8-8.8l-.4-3.5Zm56.3-12.5 4.8 36.8-17.8 2.3-7-53.3a173.3 173.3 0 0 0-2.5-15.2l17-2.3.8 3.6a228.6 228.6 0 0 1 1.8 10h.3c1.7-5.6 4.2-9.8 7.6-12.7 3.3-2.8 7.5-4.6 12.5-5.2 7.3-1 13.2.5 17.6 4.5 4.5 4 7.3 10.3 8.4 19l5.7 43.5-17.7 2.3-5-38.5c-.9-6-2.5-10.4-4.9-13.2-2.4-2.7-5.7-3.8-9.8-3.3-4.3.6-7.5 3-9.7 7-2.1 4-2.8 9-2 14.7Zm102.2 52a38 38 0 0 1-20.8-2.1 20.2 20.2 0 0 1-11.2-12.4l17.5-4.5a11 11 0 0 0 5 6c2.3 1.3 5.1 1.7 8.5 1.3 5-.7 8.4-2.7 10.2-6 2-3.4 2.5-8 1.7-14l-1.2-10.5h-.2c-1.4 4.5-3.8 8-7.2 10.7a27.7 27.7 0 0 1-13.2 4.9c-8 1-14.6-1.2-19.7-6.6a43.4 43.4 0 0 1-10-25 43.2 43.2 0 0 1 3.4-26.7A23.3 23.3 0 0 1 79.2 100c5-.6 9.3-.1 13 1.5 3.8 1.6 6.9 4.3 9.4 8.2h.3a72.7 72.7 0 0 1-.6-11.2l16.9-2.2c.3 4.6 1 10 1.7 16l6.6 50.6c1.3 9.8-.5 17.5-5.4 23.2-4.9 5.7-12.6 9.3-23.2 10.7Zm6.7-64.7c-1-7-2.9-12.4-6-16a12 12 0 0 0-11.4-4.5c-4.8.6-8.1 3-10 7-1.9 4.2-2.3 10-1.3 17.7 1 7.4 2.8 12.9 5.7 16.3 2.8 3.4 6.6 4.8 11.3 4.2 4.8-.6 8.1-3 10.1-7.3s2.6-10.1 1.6-17.4Zm85.7 10.8a25.8 25.8 0 0 1-7.6 12.5 23.5 23.5 0 0 1-12.5 5.3c-7.3 1-13.1-.5-17.6-4.5-4.5-4-7.3-10.2-8.4-18.9l-5.7-43.5 17.8-2.4 5 38.5c.8 6 2.4 10.4 4.9 13.2 2.4 2.7 5.6 3.8 9.7 3.3 4.3-.6 7.5-2.9 9.7-6.9 2.1-4 2.8-9 2-14.8L183 88l17.8-2.3 7 53.3a252.4 252.4 0 0 0 2.5 15.3l-17 2.2a299.3 299.3 0 0 1-2.6-13.5h-.3Zm57 7.7c-6.6.9-12-.2-16.2-3.4-4.2-3.1-6.7-8-7.6-14.5-.9-7.1.7-12.8 4.8-17 4.2-4.4 10.7-7.2 19.5-8.5l14.7-2.2-.5-3.5c-.5-4.5-1.8-7.7-3.6-9.6-1.9-2-4.6-2.8-8.1-2.3-3.3.4-5.6 1.5-7 3.2-1.3 1.7-2 4.3-1.9 7.8l-18.7 1.6c.6-14 9.5-22 26.8-24.3 8.7-1 15.7.2 21 3.8 5.2 3.7 8.3 9.4 9.3 17.3l3.3 25c.5 3.8 1.3 6.5 2.3 7.8 1.1 1.3 2.7 1.9 4.7 1.6l3.9-.9 1.2 9.7-5.5 1.9a32 32 0 0 1-5.7 1.2c-4.5.6-8 0-10.4-2-2.4-2-4-5-5-9.2h-.4a27 27 0 0 1-8 11.4 25.5 25.5 0 0 1-12.8 5.1Zm16.5-35.8-9.1 1.4a31 31 0 0 0-8.7 2.5 8.7 8.7 0 0 0-3.5 3.9c-.7 1.6-.9 3.7-.6 6.3.5 3.2 1.5 5.6 3.2 7a8 8 0 0 0 6.4 1.5c2.7-.3 5.2-1.4 7.3-3.3 2.1-1.8 3.6-4.1 4.6-7 1-2.8 1.2-5.8.8-8.8l-.4-3.5Zm75.7 50.5a38 38 0 0 1-21-2.2 20.2 20.2 0 0 1-11-12.4l17.5-4.4a11 11 0 0 0 4.9 5.9c2.3 1.3 5.1 1.7 8.5 1.3 5-.7 8.4-2.7 10.3-6 1.9-3.4 2.4-8 1.6-14l-1.2-10.5h-.1c-1.4 4.5-3.8 8-7.2 10.7a27.7 27.7 0 0 1-13.3 4.9c-8 1-14.5-1.2-19.7-6.6a43.4 43.4 0 0 1-10-24.9 43.2 43.2 0 0 1 3.4-26.8c3.7-6.7 10-10.6 18.5-11.7 5-.7 9.4-.2 13 1.4 3.8 1.6 7 4.3 9.4 8.2h.3A71.6 71.6 0 0 1 343 67l16.8-2.2 1.7 16 6.7 50.6c1.2 9.8-.6 17.5-5.5 23.2-4.8 5.7-12.6 9.3-23.1 10.7Zm6.6-64.8c-.9-7-2.9-12.4-6-16a12 12 0 0 0-11.4-4.5c-4.7.6-8 3-10 7-1.9 4.2-2.3 10-1.3 17.7 1 7.4 2.9 12.9 5.7 16.3 2.8 3.4 6.6 4.8 11.4 4.2 4.7-.6 8-3 10-7.3s2.6-10.1 1.6-17.4Zm54.6-2.7c.9 6.7 2.7 11.6 5.6 14.7 3 3 6.7 4.3 11.3 3.7 3.1-.4 5.6-1.4 7.4-3a11 11 0 0 0 3.4-6.7l17-.8c-3.2 13.1-12.3 20.6-27.1 22.6-10.4 1.3-18.7-.7-25-6-6.4-5.5-10.3-14-11.8-25.7-1.5-11.4.2-20.5 5-27.3 4.8-6.8 12.4-10.9 22.7-12.2 9.9-1.3 17.8 1 23.9 6.8 6 5.9 9.9 15 11.5 27.7v.5l-44 5.7ZM426 83.2c-1-5.5-3-9.5-5.6-12-2.7-2.4-6-3.4-10-2.9-4.2.6-7.2 2.4-9.1 5.7a20.7 20.7 0 0 0-2 12.7l26.7-3.5Zm148.5-2.9a23.4 23.4 0 0 1-7.1 21.4c-5.9 5.5-15 9-27.6 10.7-22.7 3-37-3.5-42.8-19.4l17.7-5.4c1.9 4.6 4.7 7.8 8.5 9.4 3.9 1.7 9 2.1 15.2 1.3a29 29 0 0 0 14.4-5c3-2.3 4.2-5.5 3.7-9.5a9.1 9.1 0 0 0-3-6c-1.8-1.4-4-2.5-7-3.3a212.4 212.4 0 0 0-16.3-2 261 261 0 0 1-10.8-1.2 53.5 53.5 0 0 1-11.1-3.1 20.5 20.5 0 0 1-8.4-6.7c-2.2-3-3.6-6.8-4.2-11.5-1-8 1.1-14.6 6.6-19.7a46 46 0 0 1 25.7-10c11-1.4 19.6-.7 25.6 2a25 25 0 0 1 13 15.8l-17.8 4.8a14 14 0 0 0-6.8-8c-3.1-1.5-7.3-2-12.7-1.2-5.6.7-9.8 2.2-12.4 4.3a8.9 8.9 0 0 0-3.2 8.6 9 9 0 0 0 2.5 5.4c1.5 1.3 3.4 2.4 6 3.1 2.3.8 7.3 1.4 14.8 2a220.3 220.3 0 0 1 19.2 2.6 38.7 38.7 0 0 1 9.4 4.3 21 21 0 0 1 6 6.7c1.4 2.7 2.4 6 3 9.6Zm62.9 4.1a25.8 25.8 0 0 1-7.6 12.6 23.5 23.5 0 0 1-12.6 5.2c-7.2 1-13.1-.5-17.6-4.4-4.5-4-7.3-10.3-8.4-19l-5.7-43.5 17.8-2.3 5 38.5c.9 6 2.5 10.4 4.9 13.1 2.4 2.8 5.7 3.9 9.7 3.3 4.3-.5 7.6-2.8 9.7-6.8 2.2-4.1 2.9-9 2.1-14.8L630 29.5l17.8-2.3 7 53.2a252.6 252.6 0 0 0 2.5 15.3l-17 2.2a298.5 298.5 0 0 1-2.5-13.5h-.3Zm101.4-34.6c1.5 11.5.4 20.6-3.4 27.5a22.9 22.9 0 0 1-18.2 11.9c-10 1.3-17.4-1.9-22.4-9.5h-.4c.4 1.3 1 5.1 1.9 11.6l3.4 26.3-17.8 2.3-10.4-79.8a277.2 277.2 0 0 0-2.6-15.7l17.3-2.3a52.2 52.2 0 0 1 2.2 11h.3c1.4-4.4 3.9-8 7.3-10.5 3.4-2.6 7.7-4.2 13-5 8-1 14.6 1.3 19.8 6.9 5.2 5.6 8.5 14 10 25.3Zm-18.6 2.5c-1-7.7-3-13.4-5.8-16.9-2.8-3.5-6.6-5-11.3-4.4-4.8.6-8.1 3.2-10.1 7.7a34 34 0 0 0-1.5 17.8c1 7.4 3 13 6 16.7 3 3.7 6.9 5.3 11.6 4.6 4.7-.6 8-3 9.9-7.3a35.8 35.8 0 0 0 1.2-18.2ZM821.7 39c1.5 11.4.3 20.6-3.5 27.5a22.9 22.9 0 0 1-18.1 11.8c-10 1.3-17.4-1.8-22.4-9.4h-.4c.4 1.3 1 5 1.9 11.5l3.4 26.3-17.8 2.4-10.4-79.8a280 280 0 0 0-2.6-15.7l17.3-2.3a52.7 52.7 0 0 1 2.2 11h.3c1.4-4.5 3.8-8 7.2-10.5 3.4-2.6 7.8-4.3 13-5 8-1 14.7 1.3 19.9 6.9 5.2 5.5 8.5 14 10 25.3ZM803 41.4a34 34 0 0 0-5.8-16.8c-2.8-3.6-6.6-5-11.4-4.4-4.7.6-8 3.2-10 7.6a34 34 0 0 0-1.5 17.9c1 7.4 3 13 6 16.7 3 3.7 6.9 5.2 11.5 4.6 4.8-.6 8.1-3 10-7.3a35.8 35.8 0 0 0 1.2-18.3Zm101.7-13a36.3 36.3 0 0 1-5.8 27.4 34.5 34.5 0 0 1-24.4 12.8 33.5 33.5 0 0 1-26.4-6.2 36.5 36.5 0 0 1-12.5-25c-1.5-11 .4-20 5.7-27.2a34 34 0 0 1 24.3-12.8c11.2-1.5 20.1.5 26.8 5.8 6.7 5.3 10.9 13.7 12.3 25.2Zm-18.6 2.4c-1-8.1-3.2-13.9-6.3-17.2a13.6 13.6 0 0 0-12.3-4c-5.5.7-9.3 3.2-11.5 7.4a30.7 30.7 0 0 0-1.7 18c1 7.6 3 13.3 6.2 17 3.2 3.6 7.3 5 12.2 4.4 5.5-.7 9.4-3.2 11.6-7.4a31.1 31.1 0 0 0 1.8-18.2Zm54.2-6.4 4.4 33.7-17.8 2.3L920.2 8a192.3 192.3 0 0 0-2.7-16l17-2.2a356.2 356.2 0 0 1 2.7 14.5h.3c1.1-5 2.2-8.6 3.3-10.9 1.1-2.1 2.5-3.8 4.3-5 1.7-1.1 4-1.9 6.8-2.3 2.3-.3 4.1-.2 5.6.3l2 14.9c-3-.3-5.5-.3-7.8 0A12 12 0 0 0 942 8c-2 3.9-2.5 9.4-1.6 16.4Zm73.2 23.7a48 48 0 0 1-14.8 4.1c-5.2.7-9.4-.2-12.6-2.7-3.3-2.5-5.2-6.6-6-12.4l-5.3-40.5-8.7 1.2-1.6-12 9.6-1.3 3.5-16.9 11.2-1.4 2 16 13-1.6 1.6 12-13 1.7 4.7 35.7c.4 3.3 1.4 5.7 2.9 7.1 1.4 1.4 3.5 2 6.2 1.6 1.3-.1 3.2-.7 5.8-1.6l1.5 11Z" fill="#403C51"/>
    <path fill="#CD9138" d="m598.6 401.3 213.1 465.8-177.6 81.2-213-465.7z"/>
    <path d="M548.7 572.6c-8 3.7-15.6 3.5-22.6-.5-6.9-4-13-11.8-18.3-23.3-9.5-20.7-7.5-36.2 6-46.5l10.3 15.3c-3.8 3.1-6 6.8-6.5 11-.4 4 .7 9 3.3 14.8a29 29 0 0 0 9 12.2 9.9 9.9 0 0 0 10.2.8c2.3-1 3.9-2.6 4.8-4.7.9-2 1.3-4.6 1.1-7.5a212 212 0 0 0-3-16.1l-1.9-10.8a53.3 53.3 0 0 1-.3-11.6c.4-3.7 1.7-7 3.9-10 2.1-3 5.4-5.4 9.7-7.4a21.5 21.5 0 0 1 20.8.6 46 46 0 0 1 17 21.6 48.1 48.1 0 0 1 5.8 25 25 25 0 0 1-11.3 17.1L577 537a14 14 0 0 0 5.5-8.9c.6-3.4-.2-7.5-2.4-12.4-2.4-5.2-5-8.7-7.8-10.6a8.9 8.9 0 0 0-9.1-.5 9 9 0 0 0-4.5 4c-.9 1.7-1.3 4-1.3 6.5s.9 7.4 2.5 14.9a219.3 219.3 0 0 1 3.2 19 38.8 38.8 0 0 1-1.3 10.3 21 21 0 0 1-4.7 7.6 26.4 26.4 0 0 1-8.3 5.7Zm-5.4 53.7a31.3 31.3 0 0 1-1.6-26c3.3-7.8 10-14 20.2-18.6a38.3 38.3 0 0 1 27.9-3.3 31.3 31.3 0 0 1 18.9 18.3 32.2 32.2 0 0 1 2.8 21c-1.5 6.5-5.3 11.9-11.2 16.1l-8.4-16c3-2 5-4.3 6-7 1.2-2.8 1-5.9-.6-9.3-2-4.2-5.2-6.6-9.6-7-4.5-.6-10.2.8-17.3 4a36.4 36.4 0 0 0-14.9 10.7c-2.6 3.8-3 7.9-1 12.1 1.4 3.1 3.6 5.3 6.5 6.5 3 1.2 6.5 1.2 10.6-.1l6.7 16.7a26.2 26.2 0 0 1-13.8.6c-4.4-1-8.5-3-12.2-6.2a36.1 36.1 0 0 1-9-12.5Zm79.8 88.1a36.3 36.3 0 0 1-27.9 2.5c-8.3-3-14.8-9.5-19.4-19.5a33.5 33.5 0 0 1-1.8-27c3.2-8.3 10-14.8 20.1-19.4a36.2 36.2 0 0 1 27.7-2.6 34 34 0 0 1 19.4 19.5c4.7 10.3 5.5 19.4 2.3 27.3-3 8-9.9 14.4-20.4 19.2Zm-7.8-17c7.5-3.5 12.4-7.2 14.6-11.2 2.3-4 2.3-8.3.2-13-2.3-4.9-5.7-7.8-10.4-8.7-4.7-.8-10.6.4-17.7 3.6-7 3.2-11.9 6.9-14.5 11a13 13 0 0 0-.6 13c2.3 5 5.8 8 10.5 8.9 4.8.8 10.7-.4 18-3.7ZM658 790a44.6 44.6 0 0 1-27.2 4.8A22.9 22.9 0 0 1 614 781c-4.2-9-3.4-17.1 2.4-24.2l-.1-.3a94 94 0 0 1-10.5 5.2l-24.1 11-7.5-16.3 73.2-33.5a279.6 279.6 0 0 0 14.3-7l7.2 15.8a52.7 52.7 0 0 1-10 5.4l.2.2c4.7 0 8.8 1.3 12.2 3.8 3.5 2.5 6.4 6.2 8.6 11a21.7 21.7 0 0 1-.7 21 44.9 44.9 0 0 1-21.3 17Zm-7.8-17c7.1-3.3 11.9-6.8 14.4-10.6 2.6-3.7 2.9-7.8.9-12.1s-5.4-6.8-10.3-7.4a34 34 0 0 0-17.5 3.9 33.2 33.2 0 0 0-14.2 10.6c-2.6 4-3 8.2-1 12.4 2 4.4 5.3 6.9 9.9 7.4 4.6.5 10.6-1 17.8-4.2Zm18.1 48.5c-6.1 2.8-10.2 6-12.4 9.7-2 3.8-2 7.7-.2 11.9 1.3 2.9 3 5 5.1 6.2a11 11 0 0 0 7.4 1.3l5.8 16c-13.5.8-23.3-5.7-29.6-19.3-4.3-9.5-4.8-18-1.6-25.7 3.3-7.6 10.3-13.9 21-18.8 10.5-4.8 19.6-5.8 27.6-3.2 8 2.6 14 8.6 18.4 18 4.1 9 4.3 17.4.5 24.9s-11.5 13.9-23 19.2l-.5.2-18.5-40.4Zm21.5 19.9c5-2.7 8.1-5.6 9.7-8.9 1.6-3.3 1.5-6.8-.1-10.4a11.7 11.7 0 0 0-8-7c-3.7-.9-8-.2-12.8 1.8l11.2 24.5Z" fill="#473D46"/>
    <path fill="#5E3985" d="m156.4 218 347 450.5-157 121-347-450.6z"/>
    <path d="M147.9 400.4c-7 5.4-14.4 7-22.1 4.6a49.4 49.4 0 0 1-23-18.5c-14-18.1-15.6-33.7-4.8-46.7l13.5 12.6c-3 3.9-4.3 8-3.8 12 .5 4.2 2.6 8.8 6.5 13.8a29 29 0 0 0 11.5 10c3.5 1.3 7 .8 10.1-1.6 2-1.6 3.3-3.5 3.7-5.7.4-2.2.2-4.7-.6-7.6a212.3 212.3 0 0 0-6.5-15c-2-4.2-3.4-7.6-4.4-10a53.4 53.4 0 0 1-2.9-11.2c-.4-3.8.1-7.3 1.5-10.7 1.5-3.3 4.1-6.5 7.9-9.4 6.4-5 13.2-6.3 20.4-4.1a46 46 0 0 1 21.4 17.2 48.1 48.1 0 0 1 11.2 23 25 25 0 0 1-7 19.3l-13.2-13c2.5-3.1 3.6-6.4 3.4-10-.2-3.4-1.9-7.2-5.2-11.5a24.6 24.6 0 0 0-10-8.5 8.9 8.9 0 0 0-9 1.5 9 9 0 0 0-3.4 5c-.4 1.8-.4 4 .3 6.6.5 2.4 2.4 7 5.7 13.9a219.8 219.8 0 0 1 7.4 17.8 38.7 38.7 0 0 1 1 10.3 21 21 0 0 1-2.8 8.5 26.4 26.4 0 0 1-6.8 7.4Zm6.8 53.6a31.3 31.3 0 0 1-7.4-25c1.5-8.3 6.6-15.9 15.5-22.7 9-7 17.8-10.1 26.4-9.5 8.6.7 16 5.2 22.5 13.6 5 6.5 7.5 13 7.5 19.8 0 6.7-2.4 12.8-7.3 18.3l-11.7-13.8c2.4-2.6 3.9-5.3 4.3-8.2.4-3-.5-5.9-2.8-8.9a11.3 11.3 0 0 0-11-4.7c-4.4.5-9.7 3.2-15.8 7.9a36.4 36.4 0 0 0-12.1 13.8 11.6 11.6 0 0 0 1.7 12c2.1 2.7 4.7 4.3 7.8 4.8 3.1.5 6.5-.3 10.3-2.5l10.3 14.8a26.2 26.2 0 0 1-13.3 3.7c-4.5 0-9-1-13.3-3.3a36.1 36.1 0 0 1-11.6-10.1Zm68 30.4-27 20.7-11-14.2 42-32.3a193.3 193.3 0 0 0 12.6-10.3l10.4 13.5a359 359 0 0 1-11.2 9.7l.2.2c4.8-1.5 8.5-2.4 11-2.6 2.4-.1 4.6.3 6.5 1.2 1.9 1 3.7 2.5 5.4 4.7 1.4 1.8 2.3 3.5 2.6 5l-11.9 9.2a35.5 35.5 0 0 0-4-6.7 12 12 0 0 0-10.6-5c-4.4.3-9.4 2.6-15 7Zm29 42.5A26.2 26.2 0 0 0 242 539c-1.1 4.1-.3 8 2.5 11.6 2 2.5 4 4.1 6.3 4.9 2.4.8 5 .6 7.6-.4l9.2 14.3c-13 3.8-24-.3-33.2-12.2-6.3-8.2-8.8-16.4-7.3-24.6 1.5-8.2 7-15.9 16.3-23 9-7 17.7-10.2 26-9.4 8.4.7 15.7 5.2 22 13.5 6.1 7.8 8.1 15.9 6 24-2 8.2-8 16.2-18 24l-.4.2-27.1-35.1Zm25.5 14.5c4.2-3.7 6.7-7.3 7.5-10.9.7-3.5 0-6.9-2.5-10-2.6-3.4-5.7-5-9.4-5.1-3.8 0-7.7 1.6-12 4.7l16.4 21.3Zm21.2 46a26.2 26.2 0 0 0-9.8 12.3c-1.2 4-.4 8 2.4 11.6 2 2.5 4 4 6.4 4.8 2.3.8 4.9.7 7.5-.3l9.2 14.3c-13 3.7-24-.3-33.1-12.2-6.4-8.3-8.8-16.5-7.4-24.6 1.5-8.2 7-16 16.3-23.1 9-7 17.7-10.1 26-9.4 8.4.8 15.7 5.3 22 13.5 6.1 7.9 8.2 15.9 6.1 24-2 8.3-8 16.2-18 24l-.5.3-27-35.2Zm25.4 14.5c4.2-3.7 6.7-7.3 7.5-10.8.8-3.6 0-7-2.4-10.1-2.6-3.3-5.8-5-9.5-5s-7.7 1.5-12 4.6l16.4 21.3Zm27.9 44.9-29.4 22.6-11-14.2 42.6-32.8a172.5 172.5 0 0 0 12-9.8l10.4 13.5-2.7 2.5a225.1 225.1 0 0 1-7.7 6.6l.2.2a26.4 26.4 0 0 1 14.7.2c4.1 1.5 7.7 4.2 10.8 8.2 4.5 5.8 6.1 11.7 5 17.5-1.2 5.9-5.3 11.5-12.2 16.8l-34.8 26.8-11-14.2 30.8-23.7c4.9-3.7 7.9-7.3 9-10.8 1.2-3.4.5-6.8-2-10-2.7-3.5-6.3-5.2-11-5-4.5.2-9.1 2-13.7 5.6Z" fill="#fff"/>
    <path fill="#A893CA" d="M-58.6 569.6 677 972.1 582 1146l-735.6-402.5z"/>
    <path d="M17 705c-2.8 5.2-6.4 9-11 11.7-4.4 2.7-9.4 4-15 3.9a38 38 0 0 1-17.1-5.1l-19.7-10.8-15.2 27.8-16.6-9 43.3-79 35.5 19.4a37 37 0 0 1 18.3 18.5A26 26 0 0 1 17 705ZM.3 696.2c4.6-8.3 2-15.1-7.9-20.5l-17-9.4-14.1 25.7 17.6 9.6c4.5 2.5 8.7 3.3 12.4 2.4 3.7-1 6.7-3.5 9-7.8Zm30.3 50.9c-3.3 5.9-4.6 11-4.1 15.2.6 4.2 2.9 7.4 7 9.6 2.7 1.5 5.3 2.2 7.7 2a11 11 0 0 0 6.7-3.5L62 780c-10.3 8.6-22 9.3-35.3 2.1-9-5-14.6-11.5-16.6-19.6-1.9-8 0-17.3 5.6-27.7 5.5-10 12.2-16.3 20.1-19 8-2.7 16.5-1.5 25.6 3.5 8.7 4.8 13.8 11.3 15.2 19.6 1.5 8.3-.8 18-7 29.2l-.2.4-39-21.3Zm29 3c2.4-5 3.3-9.3 2.5-12.9-.7-3.6-2.8-6.3-6.2-8.2-3.7-2-7.3-2.3-10.7-.8a20.7 20.7 0 0 0-9.1 9l23.6 13Zm42.1 32.7-16.3 29.8-15.8-8.6L95 757.5a193 193 0 0 0 7.3-14.5l15 8.2a338 338 0 0 1-6.4 13.4l.3.1c3.8-3.3 6.8-5.6 9-6.8 2.2-1 4.3-1.6 6.4-1.5 2.1 0 4.4.8 6.9 2.1 2 1.2 3.5 2.3 4.4 3.6l-7.2 13.1c-2.2-1.9-4.3-3.4-6.3-4.5a12 12 0 0 0-11.8-.2c-3.9 2-7.6 6-11 12.3Zm76.7 57.6a18.2 18.2 0 0 1-14.9 10c-6.6.6-14.1-1.3-22.6-6-8.3-4.5-14-9.3-17-14.4-3-5-3.7-10.8-2.1-17.2l15 5.5c-.8 3.4-.6 6.1.7 8.4 1.3 2.2 4.3 4.7 9.1 7.3 4.4 2.4 8 3.6 10.6 3.6 2.6 0 4.6-1.2 5.9-3.6 1-2 1-4 0-6s-3.1-4.5-6.6-7.4a278.5 278.5 0 0 1-12.1-11 48.1 48.1 0 0 1-3.2-3.8 20.7 20.7 0 0 1-4-9.8c-.2-3.3.6-6.7 2.5-10.2a18 18 0 0 1 14.1-9.9c6.3-.8 13.5 1 21.7 5.6 7.2 4 12.2 8.5 15 13.7a20.6 20.6 0 0 1 1.7 16.7l-14.8-6.2c.9-2.7.8-5.1-.3-7.3-1-2.2-3.5-4.3-7.4-6.4-3.7-2-6.8-3.1-9.2-3.2-2.3 0-4.2 1-5.4 3.3-1 1.7-1 3.5-.2 5.3 1 1.8 3 4 6 6.5 4.2 3.6 7.8 7 11 10 3 3 5.4 5.9 6.9 8.5 1.4 2.6 2.1 5.4 2.2 8.4.2 3-.7 6.2-2.6 9.6Zm80.5 27.6a36.3 36.3 0 0 1-21 18.7 34.5 34.5 0 0 1-27.2-4A33.5 33.5 0 0 1 193 862a36.5 36.5 0 0 1 4.5-27.5c5.4-9.8 12.3-16 20.7-18.6a34 34 0 0 1 27.2 4c10 5.4 16 12.2 18.2 20.5 2.3 8.3.7 17.5-4.8 27.6Zm-16.5-9c4-7.2 5.6-13.1 5-17.7-.6-4.5-3-8-7.6-10.5-4.8-2.6-9.3-2.8-13.6-.7-4.2 2-8.2 6.6-12 13.5a32.4 32.4 0 0 0-5 17.3c.4 4.9 2.9 8.5 7.3 10.9 4.8 2.6 9.4 3 13.7.8 4.3-2.2 8.4-6.7 12.2-13.6Zm49 24-17.8 32.6-15.7-8.6 25.8-47.2a173.3 173.3 0 0 0 7-13.8l15 8.2-1.5 3.4a226 226 0 0 1-4.4 9.1l.2.1c4.7-3.4 9.2-5.3 13.6-5.7 4.3-.3 8.7.7 13.2 3.2 6.4 3.5 10.3 8.2 11.6 14 1.2 5.9-.2 12.6-4.4 20.2l-21 38.6-15.8-8.6 18.6-34c3-5.4 4.3-10 4-13.5-.4-3.7-2.4-6.5-6-8.5-3.9-2-7.9-2.1-12-.1s-7.6 5.5-10.4 10.7Zm53.2 72.9a21.6 21.6 0 0 1-11.1-12.3c-1.6-5-.8-10.4 2.4-16.2 3.5-6.3 8.1-10 14-11s12.7.6 20.6 4.7l13.2 6.9 1.7-3c2.2-4 3-7.4 2.7-10-.3-2.7-2-5-5.2-6.7-2.9-1.6-5.4-2-7.5-1.5-2 .6-4.1 2.3-6.1 5.2l-16-9.8c8.6-10.9 20.6-12.1 35.9-3.7 7.7 4.2 12.5 9.3 14.6 15.4 2.1 6 1.3 12.5-2.6 19.5l-12 22c-2 3.5-2.8 6-2.8 7.8 0 1.7 1 3 2.8 4 1.2.6 2.5 1.2 3.7 1.6l-4.7 8.5a71 71 0 0 1-5.5-1.7 32 32 0 0 1-5.4-2.4c-4-2.1-6.3-4.7-7.2-7.7a16 16 0 0 1 1.3-10.4l-.3-.2a27 27 0 0 1-13.2 4.4c-4.4.2-8.9-1-13.3-3.4Zm34.3-19.2-8.1-4.3a31 31 0 0 0-8.4-3.1c-2-.2-3.7.2-5.2 1-1.6 1-3 2.6-4.2 4.8-1.5 3-2 5.4-1.5 7.6a8 8 0 0 0 4.2 5c2.4 1.3 5 1.9 7.9 1.7 2.7-.3 5.3-1.3 7.8-3 2.4-1.8 4.4-4 5.9-6.6l1.6-3.1Zm80.7-27.6-45.6 83.3-15.8-8.6 45.6-83.3 15.8 8.6Zm35 19.2-6.3 11.6-15.8-8.6 6.3-11.6 15.8 8.6ZM482.2 951l-33.3 60.7-15.7-8.6 33.2-60.8 15.8 8.7Zm15.4 86.1c-4.5-.8-9.3-2.6-14.4-5.3-4.6-2.6-7.5-5.8-8.6-9.7-1.2-3.9-.3-8.4 2.5-13.5l19.6-35.8-7.7-4.2 5.8-10.7 8.5 4.6L516 951l10 5.4-7.9 14.2 11.5 6.3-5.8 10.7-11.5-6.3-17.3 31.5c-1.6 3-2.2 5.5-1.9 7.5.4 2 1.7 3.7 4.1 5 1.1.6 3 1.3 5.7 2l-5.3 9.8Zm6.8 36c-3.9-2.2-7-4.3-9.6-6.3l6.2-11.2c2 1.5 3.6 2.6 5.2 3.5 3.6 2 7 2.5 9.8 1.5 3-1 6.5-3.4 10.8-7.1l8.9-73.3 16.6 9.2-6 33.6-1.7 9.2-2.9 12.7A650 650 0 0 1 557 1029l24.7-23.7 16.5 9-59 50.8a61.5 61.5 0 0 1-13 8.6 23 23 0 0 1-11.1 2.5c-3.4-.2-7-1.3-10.6-3.3Z" fill="#463C4E"/>
    <path fill="#99E5EE" d="m-337.4 748.3 649.2 251.4-71.6 184.8L-409 933.1z"/>
    <path d="M-285.3 908.4c10.6 4.2 20 1.7 28.3-7.4l13 11.7a39.5 39.5 0 0 1-21.5 12.5c-7.9 1.5-16.3.5-25.2-3-9-3.4-16-8-21-14-5-5.9-7.8-12.7-8.6-20.5-.8-7.8.6-16.3 4.1-25.5a55.7 55.7 0 0 1 13.8-21.5 34.8 34.8 0 0 1 19.7-9 51 51 0 0 1 24.8 3.8c9.8 3.8 17 8.9 21.7 15.3a33.6 33.6 0 0 1 6.4 22.5l-17.2-1.8c.3-4.7-1-9-3.9-13-2.8-4-6.8-7-12-9-8-3.1-15-3-21 .3-6 3.4-10.9 9.8-14.6 19.3a44.8 44.8 0 0 0-3.5 17.4c.2 5.1 1.7 9.6 4.5 13.3 2.8 3.7 6.9 6.6 12.2 8.6Zm121.6 24.5a36.3 36.3 0 0 1-18.3 21.3 34.5 34.5 0 0 1-27.5-.5c-10-3.9-16.8-10-20.2-18.1a36.5 36.5 0 0 1 .9-28c4-10.3 10-17.3 18-21a34 34 0 0 1 27.6.3c10.5 4.1 17.4 10.1 20.7 18 3.4 7.9 3 17.2-1.2 28Zm-17.6-6.8c3-7.7 4-13.7 2.8-18.2a13.6 13.6 0 0 0-9-9.4c-5-2-9.6-1.6-13.5 1-4 2.7-7.4 7.7-10.2 15a32.4 32.4 0 0 0-2.7 17.9c1 4.7 4 8 8.6 9.8 5.2 2 9.8 1.7 13.7-1 4-2.7 7.5-7.7 10.3-15.1Zm51.8 17.5-13.4 34.6-16.7-6.5 19.4-50.1a173.9 173.9 0 0 0 5.1-14.7l16 6.2-1 3.5a232.8 232.8 0 0 1-3.2 9.7h.2c4-4 8-6.7 11.9-7.7 4-1 8-.7 12.4 1 5 1.9 8.4 4.6 10.5 8 2.1 3.6 2.8 7.9 2 13l.3.1c4.2-4.1 8.2-6.7 12-7.7 4-1 8.3-.6 13 1.2a18.3 18.3 0 0 1 12 12c1.6 5.6.9 12.3-2.2 20.3l-16 41-16.5-6.5 14-36.2a28 28 0 0 0 2.5-13.7 8.5 8.5 0 0 0-5.7-7c-3.3-1.3-6.6-.8-10 1.6a24.2 24.2 0 0 0-8.4 11.8l-13.7 35.3-16.6-6.4 14-36.2a28 28 0 0 0 2.5-13.7 8.5 8.5 0 0 0-5.7-7.1c-3.4-1.3-6.8-.7-10.3 2a27.3 27.3 0 0 0-8.4 12.2Zm112 43.3-13.4 34.6-16.8-6.5 19.4-50a173.7 173.7 0 0 0 5.1-14.7l16 6.2c0 .5-.4 1.7-1 3.5a228.5 228.5 0 0 1-3.2 9.6l.3.1c4-4.1 7.9-6.7 11.8-7.8 4-1 8.1-.7 12.4 1 5 2 8.4 4.6 10.5 8.1 2.1 3.5 2.8 7.8 2 13h.4c4.1-4 8.1-6.7 12-7.7 4-1 8.3-.6 13 1.3a18.3 18.3 0 0 1 11.9 12c1.6 5.5.9 12.3-2.2 20.3l-15.9 41-16.6-6.5 14-36.2a28 28 0 0 0 2.5-13.7 8.5 8.5 0 0 0-5.7-7c-3.2-1.4-6.6-.8-10 1.5a24.2 24.2 0 0 0-8.3 11.8L7 1036.2l-16.7-6.5 14-36.2a28 28 0 0 0 2.5-13.7 8.5 8.5 0 0 0-5.7-7c-3.3-1.4-6.8-.7-10.3 2a27.3 27.3 0 0 0-8.3 12.1Zm155.6 62.9a36.3 36.3 0 0 1-18.2 21.3 34.5 34.5 0 0 1-27.6-.5c-10-3.9-16.8-10-20.2-18.1a36.5 36.5 0 0 1 1-28c4-10.3 10-17.3 18-21a34 34 0 0 1 27.5.3c10.5 4.1 17.4 10.1 20.7 18 3.4 7.9 3 17.2-1.2 28Zm-17.5-6.8c3-7.7 3.8-13.7 2.7-18.2a13.6 13.6 0 0 0-9-9.4c-5-2-9.5-1.6-13.5 1-4 2.7-7.3 7.7-10.2 15a32.4 32.4 0 0 0-2.7 17.9c1.1 4.7 4 8 8.7 9.8 5.1 2 9.7 1.7 13.7-1s7.4-7.7 10.3-15Zm51.8 17.5L159 1095l-16.8-6.5 19.4-50.1a170 170 0 0 0 5.1-14.7l16 6.2c0 .5-.4 1.7-1 3.5a222.7 222.7 0 0 1-3.2 9.7h.3c4.1-4 8.4-6.5 12.6-7.4 4.3-.9 8.8-.4 13.6 1.4 6.8 2.7 11.2 6.8 13.3 12.4 2 5.7 1.4 12.5-1.7 20.7l-15.9 41-16.7-6.5 14-36.3a24.6 24.6 0 0 0 2.1-13.8c-.8-3.6-3.1-6.1-7-7.6-4-1.6-8-1.1-11.9 1.4a24.1 24.1 0 0 0-8.8 12Z" fill="#fff"/>
    <path fill="#E76396" d="m1585.5 371.8 537.2 697.5-158.2 121.8-537.2-697.5z"/>
    <path d="M1525.7 544.4a49 49 0 0 1-10-18.9c-1.4-6.2-1-12 1.2-17.6a38.6 38.6 0 0 1 12.1-15.4l44-35.2 11.8 14.7-42.8 34.3c-5.6 4.5-8.8 9.2-9.5 14.1-.8 5 1 10 5 15.2 4.2 5.2 9 8 14.2 8.5 5.3.4 10.8-1.7 16.4-6.2l42.3-33.9 11.8 14.7-43.2 34.7c-5.9 4.7-12 7.5-18.2 8.4-6.1.9-12.2-.1-18.2-3-6-3-11.6-7.7-17-14.4Zm79.4 37.7-29 23.2-11.2-14 41.9-33.7a170.3 170.3 0 0 0 11.8-10l10.7 13.3-2.7 2.6a251 251 0 0 1-7.5 6.7l.1.2a26.4 26.4 0 0 1 14.7 0c4.2 1.3 7.8 4 11 8 4.6 5.6 6.4 11.4 5.3 17.3-1 6-5 11.6-11.8 17l-34.3 27.5-11.2-14 30.3-24.2c4.8-3.9 7.7-7.5 8.8-11 1-3.5.3-6.9-2.3-10-2.7-3.5-6.4-5-11-4.8-4.5.3-9 2.2-13.6 5.9Zm97.4 29-10.4 8.3-11.2-14 10.3-8.3 11.3 14Zm-20.1 16.1-54 43.3-11.3-14 54-43.3 11.3 14Zm-15.7 35.9c9-7.1 17.3-10.9 25.1-11.2 7.9-.2 14.4 3 19.8 9.5 3.1 4 5 8 5.5 12 .6 4-.2 8-2.2 12.2a77.3 77.3 0 0 1 9.3-6.3l10.8 13.5a290.5 290.5 0 0 0-12.7 9.7l-62.8 50.3-11.1-14 22.4-18 8-5.9h-.1c-4.6 1-8.9.8-12.9-.8s-7.8-4.6-11.2-8.9c-5-6.3-6.5-13-4.4-20.4a45.7 45.7 0 0 1 16.5-21.7Zm30.2 37a33 33 0 0 0 11-13.6 12 12 0 0 0-2-12.3c-3-3.8-6.8-5.3-11.4-4.8-4.5.6-9.9 3.4-16 8.3a35 35 0 0 0-11.6 13.8c-1.6 4.3-.9 8.4 2.1 12 3 3.7 6.8 5.3 11.7 4.7 4.8-.6 10.3-3.3 16.2-8Zm35.8 78.5a25.8 25.8 0 0 1-14.7 0c-4.1-1.3-7.8-4-11-8-4.6-5.7-6.3-11.5-5.3-17.3 1-6 5-11.6 11.8-17l34.3-27.5 11.2 14-30.3 24.3a24.9 24.9 0 0 0-8.7 11c-1.1 3.4-.4 6.8 2.2 10 2.7 3.4 6.3 5 10.9 4.7 4.6-.3 9.2-2.2 13.7-5.9l29-23.2 11.2 14-41.9 33.6a252 252 0 0 0-11.8 10.1l-10.7-13.3a273.7 273.7 0 0 1 10.3-9.2l-.2-.3Zm47.6 31.6a26.2 26.2 0 0 0-9.6 12.4c-1.1 4.1-.2 8 2.7 11.6 2 2.4 4 4 6.4 4.7 2.4.8 4.9.6 7.5-.5l9.5 14.1c-12.9 4-24 .2-33.4-11.5-6.5-8.1-9.1-16.3-7.8-24.5 1.3-8.2 6.6-16 15.8-23.4 9-7.1 17.6-10.4 25.9-9.8 8.3.5 15.8 4.9 22.3 13 6.2 7.8 8.4 15.8 6.5 24-1.9 8.2-7.7 16.3-17.7 24.2l-.4.3-27.7-34.6Zm25.6 14c4.2-3.8 6.6-7.4 7.3-11 .7-3.6-.1-7-2.6-10-2.7-3.3-5.8-5-9.6-4.9-3.7 0-7.7 1.7-11.9 5l16.8 20.9Zm28.8 44.3-29 23.2-11.2-14 42-33.6a176.6 176.6 0 0 0 11.7-10l10.7 13.3-2.7 2.5a218.7 218.7 0 0 1-7.5 6.8l.1.2a26.4 26.4 0 0 1 14.7-.1c4.2 1.4 7.9 4 11 8 4.6 5.7 6.4 11.5 5.3 17.4-1 5.9-5 11.6-11.8 17l-34.3 27.5-11.2-14 30.3-24.3c4.8-3.8 7.7-7.4 8.8-11 1-3.4.3-6.8-2.3-10-2.7-3.4-6.4-5-11-4.7-4.5.2-9 2.2-13.6 5.8Zm45.6 66.5a26.2 26.2 0 0 0-9.6 12.5c-1 4-.2 8 2.7 11.5 2 2.5 4.1 4 6.5 4.8 2.3.7 4.8.5 7.5-.6l9.4 14.2c-12.8 4-24 .2-33.3-11.6-6.5-8-9.1-16.2-7.8-24.4 1.3-8.3 6.6-16 15.8-23.5 9-7.1 17.5-10.4 25.9-9.8 8.3.6 15.7 5 22.3 13 6.2 7.8 8.3 15.8 6.5 24-1.9 8.2-7.8 16.3-17.7 24.2l-.4.4-27.8-34.7Zm25.7 14c4.2-3.7 6.6-7.4 7.3-11 .7-3.5-.2-6.9-2.6-10-2.7-3.3-5.9-4.9-9.6-4.8-3.7 0-7.7 1.7-11.9 4.9l16.8 21Zm40.8 86.4c-5.2 4.2-11 5.4-17.5 3.5a39.3 39.3 0 0 1-18.6-14.2c-6-7.4-9.4-14-10.2-19.9-.8-5.8.8-11.3 4.7-16.6l11.7 10.9c-2 2.7-2.8 5.4-2.5 8 .3 2.5 2.1 6 5.6 10.2 3.1 4 5.9 6.4 8.3 7.4 2.5 1 4.8.6 6.9-1.1a6 6 0 0 0 2.3-5.5c0-2.2-1.2-5.4-3.3-9.4a285.4 285.4 0 0 1-7-14.8l-1.4-4.7c-.9-3.9-.8-7.4.2-10.6 1-3.1 3-6 6.1-8.4a18 18 0 0 1 16.8-3.7c6.1 1.6 12 6.1 18 13.4 5 6.4 8 12.6 8.6 18.5.6 5.9-1 11.2-5 16l-11.2-11.4a9.1 9.1 0 0 0 2.5-6.9c-.2-2.4-1.6-5.3-4.3-8.7a21.5 21.5 0 0 0-7.3-6.5c-2.2-1-4.3-.7-6.3 1a5.7 5.7 0 0 0-2.2 4.8c.1 2 1.1 4.8 3 8.3 2.5 5 4.6 9.4 6.3 13.4 1.7 4 2.8 7.5 3 10.6.4 3 0 5.8-1 8.6-1 2.7-3 5.4-6.2 7.8Zm47.8 59.7c-5.2 4.2-11 5.3-17.5 3.4a39.2 39.2 0 0 1-18.6-14.2c-6-7.4-9.4-14-10.2-19.8-.8-5.8.8-11.4 4.7-16.7l11.7 10.9c-2 2.8-2.8 5.4-2.5 8 .3 2.5 2.1 6 5.6 10.2 3.1 4 5.9 6.4 8.3 7.4 2.5 1 4.8.6 6.9-1a6 6 0 0 0 2.3-5.5c0-2.3-1.2-5.4-3.3-9.5a264 264 0 0 1-7-14.8l-1.4-4.7c-.9-3.9-.8-7.4.2-10.5 1-3.2 3-6 6.1-8.5a18 18 0 0 1 16.8-3.7c6.1 1.7 12 6.1 18 13.4 5 6.5 8 12.6 8.6 18.5.6 6-1 11.3-5 16l-11.2-11.4a9.2 9.2 0 0 0 2.5-6.8c-.2-2.5-1.6-5.4-4.3-8.8a21.4 21.4 0 0 0-7.3-6.4c-2.2-1-4.3-.7-6.3.9a5.7 5.7 0 0 0-2.2 4.9c.2 2 1.1 4.7 3 8.3 2.5 4.9 4.6 9.3 6.3 13.3a38 38 0 0 1 3 10.6c.4 3 0 5.8-1 8.6s-3.1 5.4-6.2 7.9Z" fill="#443D4D"/>
    <path fill="#E76396" d="M-368.1 622.2-79.7 295 69 425.9l-288.4 327.3z"/>
    <path fill="#DE373E" d="m702.9 456.4 417.4-28.8 13.7 198.7L716.6 655z"/>
    <path d="m865.3 551 1.1 16-9.1.6-3-43.6 32.1-2.2.5 7-23 1.7 1 13.4 22.2-1.5.5 7-22.3 1.6Zm38.6-3.1 1.1 16.4-8.7.6-1.8-25.6a93.5 93.5 0 0 0-.8-7.8l8.3-.6.2 1.2a157 157 0 0 1 .7 6h.2a24 24 0 0 1 1.9-5.2c.6-1 1.3-1.8 2.2-2.3.9-.5 2-.8 3.3-1 1.1 0 2 0 2.8.3l.5 7.3c-1.4-.2-2.7-.3-3.8-.2a5.8 5.8 0 0 0-4.9 3 14 14 0 0 0-1.2 7.9Zm23.3-.2c.3 3.2 1 5.6 2.3 7.2a6 6 0 0 0 5.4 2.1c1.5 0 2.7-.5 3.6-1.2 1-.8 1.6-1.8 2-3.2l8.2.2c-2 6.2-6.6 9.6-13.9 10-5 .4-9-.8-11.9-3.6-2.9-2.8-4.5-7-5-12.7-.3-5.6.8-10 3.3-13 2.5-3.2 6.3-5 11.4-5.3 4.8-.4 8.5 1 11.3 4 2.8 3 4.4 7.6 4.8 13.7v.3l-21.5 1.5Zm12.7-6.4c-.3-2.7-1.1-4.7-2.4-6a5.7 5.7 0 0 0-4.7-1.6c-2 .1-3.6 1-4.6 2.4a10 10 0 0 0-1.3 6.1l13-.9Zm22.7 4c.2 3.2 1 5.6 2.3 7.2a6 6 0 0 0 5.3 2.1c1.6-.1 2.8-.5 3.7-1.3 1-.7 1.6-1.7 1.9-3.1l8.2.1c-2 6.3-6.5 9.6-13.8 10.1-5 .4-9-.8-12-3.6-2.8-2.8-4.5-7-4.9-12.8-.3-5.5.7-9.9 3.3-13 2.5-3.2 6.3-5 11.3-5.3 4.8-.3 8.6 1 11.4 4 2.7 3 4.3 7.6 4.7 13.8v.2l-21.4 1.5Zm12.7-6.4c-.4-2.7-1.2-4.7-2.4-6a5.7 5.7 0 0 0-4.7-1.7c-2 .2-3.6 1-4.6 2.5a10 10 0 0 0-1.3 6l13-.8Z" fill="#fff"/>
    <path fill="#D14943" d="m702.9 456.4 417.4-28.8 13.7 198.7L716.6 655z"/>
    <path d="m808.9 560.9 2.3 33-18.9 1.3-6.2-90 66.3-4.5 1 14.5-47.4 3.3 1.9 27.8 46-3.2 1 14.6-46 3.2Zm79.4-6.4 2.4 33.9-18 1.2-3.6-52.8a192.9 192.9 0 0 0-1.7-16.2l17.1-1.2c.2.4.3 1.2.5 2.6a352.6 352.6 0 0 1 1.4 12.1h.2c1.4-4.9 2.7-8.4 4-10.6 1.2-2.1 2.7-3.7 4.5-4.7 1.8-1.1 4.2-1.7 7-2 2.3 0 4.1.1 5.6.6l1 15c-2.9-.4-5.5-.5-7.7-.4a12 12 0 0 0-10.1 6.2c-2.2 3.7-3 9.2-2.6 16.3Zm48.1-.5c.5 6.7 2 11.7 4.8 15 2.7 3.2 6.4 4.7 11 4.4 3.1-.3 5.6-1.1 7.5-2.6a11 11 0 0 0 3.9-6.5l17 .3c-4 12.8-13.5 19.8-28.5 20.8-10.4.7-18.6-1.8-24.6-7.5-6-5.8-9.4-14.6-10.2-26.4-.8-11.4 1.5-20.3 6.7-26.9 5.2-6.5 13-10 23.4-10.8 10-.7 17.7 2 23.4 8.3 5.7 6.2 9 15.6 9.9 28.3v.5l-44.3 3Zm26.2-13.1c-.8-5.6-2.4-9.6-5-12.2a11.7 11.7 0 0 0-9.7-3.6c-4.2.3-7.3 2-9.4 5-2 3.2-3 7.4-2.7 12.6l26.8-1.8Zm46.6 8c.5 6.8 2.1 11.8 4.8 15 2.8 3.3 6.4 4.7 11 4.4 3.2-.2 5.7-1 7.6-2.6a11 11 0 0 0 3.8-6.4l17 .3c-4 12.8-13.5 19.7-28.5 20.8-10.3.7-18.5-1.8-24.5-7.6-6-5.7-9.4-14.5-10.2-26.3-.8-11.4 1.4-20.4 6.6-26.9 5.3-6.5 13-10.1 23.5-10.8 9.9-.7 17.7 2 23.4 8.3 5.6 6.2 9 15.6 9.8 28.3v.5l-44.3 3Zm26.2-13a21 21 0 0 0-4.9-12.3 11.7 11.7 0 0 0-9.7-3.5c-4.2.3-7.4 2-9.5 5-2 3.1-3 7.3-2.7 12.6l26.8-1.8Z" fill="#fff"/>
    <path fill="#CD9138" d="m1912.8 478.5 302.4 265.3-130.6 149L1782 627.5z"/>
    <path d="m1903.2 616.3-22.6 25.7-14.1-12.4 59.4-67.8 33.8 29.7c8.1 7 12.8 14.3 14.1 21.7 1.4 7.3-.8 14.2-6.5 20.7a25.3 25.3 0 0 1-31.7 6l-6.6 44.5-16-14 6.8-39.5-16.6-14.6Zm49.3 5.6c2.9-3.2 4-6.5 3.3-10-.6-3.5-3-7-7.2-10.7l-18.2-16-17.5 20 18.5 16.4c4 3.4 7.8 5.2 11.4 5.2 3.7 0 6.9-1.6 9.7-4.9Zm-.8 84.2c-5-4.5-7.7-9.3-8.2-14.5a20.6 20.6 0 0 1 6-15.3c4.7-5.3 10-7.9 16-7.6 6 .3 12.3 3.3 19 9l11.5 9.6 2.3-2.6c3-3.4 4.6-6.4 4.8-9.1.3-2.7-1-5.3-3.6-7.6-2.5-2.2-4.8-3.3-7-3.1-2.2 0-4.5 1.3-7.2 3.7l-13.5-13c10.8-8.8 22.8-7.4 36 4.1a29 29 0 0 1 10.9 18.2c.7 6.4-1.5 12.5-6.8 18.5l-16.6 19c-2.5 2.9-4 5.2-4.3 6.9-.3 1.6.3 3.2 1.8 4.5 1 .9 2.1 1.7 3.3 2.3l-6.4 7.3-5.1-2.8c-1.4-.8-3-2-4.7-3.5-3.4-3-5.2-6-5.4-9.1 0-3.1 1.1-6.4 3.6-10l-.3-.2a26.9 26.9 0 0 1-13.8 1.5c-4.4-.8-8.5-2.9-12.3-6.2Zm37.7-11.3-7-6a31.1 31.1 0 0 0-7.6-4.8 8.7 8.7 0 0 0-5.3 0c-1.7.5-3.3 1.7-5 3.6-2.2 2.5-3.2 4.8-3.2 7a8.1 8.1 0 0 0 3 5.8c2.1 1.9 4.6 3 7.4 3.4 2.7.4 5.5 0 8.2-1.2 2.8-1.2 5.2-2.9 7.2-5.2l2.3-2.6Zm46.6 34.1-24.5 27.9-13.5-11.9 35.4-40.4a171 171 0 0 0 9.8-12l13 11.4-2.2 3a216.2 216.2 0 0 1-6.3 7.9l.2.1c5.1-2.5 9.7-3.6 13.8-3.2 4 .4 7.8 2.1 11.3 5.2a20 20 0 0 1 7 11.2c.8 4 0 8.3-2.5 12.8l.3.3c5.3-2.5 10-3.6 14-3.2 4 .4 8 2.3 11.7 5.6 5.1 4.5 7.4 9.6 7 15.4a31.5 31.5 0 0 1-9 18.3l-29 33-13.3-11.7 25.6-29.2a28 28 0 0 0 7-12c.7-3.4-.3-6.3-2.9-8.6s-6-3-10-2-7.9 3.8-11.8 8.3l-25 28.5-13.5-11.8 25.6-29.2a28 28 0 0 0 7-12c.8-3.4-.2-6.3-2.8-8.6-2.8-2.4-6.2-3-10.4-1.7a27.3 27.3 0 0 0-12 8.6Z" fill="#fff"/>
    <path fill="#76AC3D" d="M1663.1 237.6 2332 337l-29.2 196-668.8-99.5z"/>
    <path d="m1726.6 359.3-4.8 32.7-18.7-2.8 13.3-89.1 65.7 9.8-2.1 14.4-47.1-7-4.1 27.6 45.6 6.8-2.1 14.4-45.7-6.8Zm78.8 13.6c-1 6.7-.5 12 1.4 15.7 2 3.8 5.3 6 9.9 6.7 3 .4 5.7.1 8-1 2.1-1 3.9-2.9 5-5.4l16.6 4c-6.7 11.6-17.5 16.3-32.3 14.1-10.3-1.5-17.7-5.7-22.4-12.6-4.6-7-6-16.3-4.3-28 1.7-11.3 5.8-19.5 12.3-24.8 6.5-5.2 15-7 25.2-5.5 9.9 1.4 16.9 5.8 21 13.1 4.3 7.3 5.5 17.2 3.6 29.8v.5l-44-6.6Zm28.4-7.1a21 21 0 0 0-2.2-13c-1.9-3.1-4.8-5-8.7-5.6-4.2-.6-7.6.4-10.3 3a20.7 20.7 0 0 0-5.4 11.6l26.6 4Zm43.6 50.6c-6.6-1-11.5-3.5-14.7-7.6a20.6 20.6 0 0 1-3.3-16.1c1-7.1 4.1-12.1 9.3-15.1 5.2-3 12.2-4 21-2.8l14.7 2 .5-3.5c.7-4.5.4-8-.8-10.3-1.3-2.4-3.6-4-7.2-4.4-3.3-.5-5.8-.1-7.6 1.2-1.7 1.2-3 3.5-4 7L1867 363c4.3-13.2 15.1-18.5 32.4-16 8.6 1.3 15 4.5 19 9.4 4 5 5.5 11.4 4.4 19.2l-3.8 25c-.5 3.8-.5 6.5.1 8.1.7 1.6 2 2.5 4 2.8 1.4.2 2.8.3 4 .2l-1.4 9.6c-2.3.3-4.2.4-5.8.4a32 32 0 0 1-5.8-.4c-4.5-.7-7.6-2.3-9.4-4.8a16 16 0 0 1-2.4-10.2h-.4a27 27 0 0 1-10.9 8.6c-4 1.7-8.6 2.2-13.6 1.4Zm25.6-29.8-9.2-1.3a31 31 0 0 0-9 0 8.6 8.6 0 0 0-4.4 2.9 12.1 12.1 0 0 0-2.3 5.8c-.5 3.3 0 5.8 1.2 7.7a8 8 0 0 0 5.6 3.2c2.8.4 5.5 0 8-1.1 2.5-1.2 4.6-3 6.3-5.5 1.7-2.5 2.8-5.3 3.3-8.3l.5-3.4Zm67 41.3a48 48 0 0 1-15.3 0c-5.2-.9-9-2.9-11.5-6.1-2.4-3.3-3.1-7.8-2.3-13.6l6-40.4-8.6-1.3 1.8-12 9.5 1.4 8-15.2 11.1 1.6-2.4 16.1 13 2-1.8 12-13-2-5.3 35.6c-.5 3.3-.2 5.9.8 7.7 1 1.7 3 2.8 5.6 3.2 1.2.2 3.3.2 6 0l-1.6 11Zm59.5-4a25.8 25.8 0 0 1-10.7 10c-4 1.8-8.5 2.3-13.5 1.6-7.3-1.1-12.5-4.1-15.7-9.2-3.3-5-4.2-11.8-3-20.4l6.5-43.5 17.8 2.6-5.7 38.4c-.9 6-.6 10.7 1 14 1.6 3.3 4.4 5.3 8.5 5.9 4.3.6 8-.7 11.1-4 3.3-3.3 5.3-7.8 6.2-13.6l5.4-36.7 17.8 2.6-8 53.2a239.1 239.1 0 0 0-1.7 15.4l-17-2.6a275.2 275.2 0 0 1 1.3-13.7h-.3Zm59.9-11.5-5 33.6-17.8-2.7 7.8-52.4a185.6 185.6 0 0 0 1.9-16.1l17 2.5-.2 2.6a353.8 353.8 0 0 1-1.2 12.1h.3c2.4-4.4 4.4-7.6 6.1-9.4 1.6-1.8 3.5-3 5.4-3.7 2-.6 4.4-.7 7.2-.3 2.3.3 4 .9 5.4 1.7l-2.2 14.9c-2.8-1-5.2-1.7-7.5-2a12 12 0 0 0-11.2 3.8c-3 3.2-5 8.3-6 15.4Zm50.4 10.3c-1 6.7-.5 11.9 1.5 15.7 2 3.7 5.2 6 9.8 6.6 3 .5 5.7.2 8-.9 2.2-1 3.9-3 5-5.5l16.6 4c-6.7 11.6-17.4 16.4-32.3 14.2-10.3-1.6-17.7-5.8-22.4-12.7-4.6-7-6-16.2-4.3-27.9 1.7-11.3 5.8-19.6 12.3-24.8 6.5-5.3 15-7.1 25.2-5.6 9.9 1.5 16.9 5.9 21 13.2 4.3 7.2 5.5 17.2 3.6 29.7v.5l-44-6.5Zm28.4-7.2a21 21 0 0 0-2.1-13c-2-3-4.9-5-8.8-5.5-4.2-.6-7.6.3-10.3 3a20.7 20.7 0 0 0-5.4 11.6l26.6 4Zm88.6 35.7c-1 6.6-4.4 11.4-10.5 14.4-6 3-13.7 3.7-23.3 2.3-9.3-1.4-16.3-4-21-7.7a22.2 22.2 0 0 1-7.8-15.4h16c.4 3.4 1.6 6 3.5 7.6 2 1.7 5.7 2.9 11.1 3.7 5 .7 8.7.7 11.2-.3 2.4-.9 3.9-2.7 4.3-5.4a6 6 0 0 0-2-5.6 25.6 25.6 0 0 0-8.9-4.7 276 276 0 0 1-15.1-6.1l-4.3-2.5a20.6 20.6 0 0 1-7-7.8c-1.5-3-1.9-6.5-1.3-10.4a18 18 0 0 1 9.8-14.1c5.6-3 13-3.7 22.3-2.4a36.3 36.3 0 0 1 18.9 7.7c4.5 4 6.9 9 7.2 15.1l-16-.7c0-2.8-1-5-2.8-6.7-1.8-1.7-4.8-2.9-9.1-3.5-4.2-.7-7.5-.6-9.7.2-2.3.7-3.6 2.4-4 5-.3 1.9.3 3.6 1.7 5 1.5 1.4 4 2.8 7.8 4 5.2 2 9.8 3.8 13.7 5.6 4 1.8 7.2 3.7 9.5 5.6 2.2 2 3.9 4.4 5 7.1 1.1 2.7 1.4 6 .8 10Z" fill="#fff"/>
    <path fill="#F9E415" d="m1469.2-118 838.3 237-53.5 189.4-838.4-237z"/>
    <path d="m1548.2-25-20.5 72.6-18.2-5.1 20.6-72.7-28-8 4-14 74.2 21-4 14-28-7.9Zm34.5 55.8c-1.8 6.5-2 11.7-.5 15.7 1.4 4 4.4 6.6 8.8 7.9 3 .8 5.7.9 8 0a11 11 0 0 0 5.8-4.7l16 6c-8.2 10.7-19.5 14-33.9 10-10-2.8-16.9-8-20.6-15.4-3.7-7.5-4-16.9-.7-28.3 3.1-11 8.2-18.6 15.4-23a31.2 31.2 0 0 1 25.7-2.3c9.5 2.7 16 8 19.2 15.7 3.3 7.8 3.1 17.8-.3 30l-.1.5-42.8-12.1Zm29-3.5a21 21 0 0 0-.4-13.2 11.7 11.7 0 0 0-8-6.6c-4-1.1-7.6-.6-10.6 1.6s-5.2 5.8-6.8 10.9l25.9 7.3Zm54.7 33.5L1644 80.5l-18.4-5.2 34-27.5-14-38.8 18.6 5.3 8 25.8 20.4-17.8 18.8 5.3-32.3 25.5 14.8 41.5-18.8-5.3-8.7-28.5Zm72.6 45.5a48 48 0 0 1-15.2-2c-5-1.5-8.6-4-10.6-7.5-2-3.6-2.1-8.2-.5-13.8l11-39.3-8.4-2.3 3.3-11.7 9.3 2.6 9.8-14.1 10.9 3-4.4 15.7 12.6 3.5-3.3 11.7-12.6-3.5-9.8 34.6c-1 3.2-1 5.8-.2 7.7.8 1.9 2.5 3.2 5 3.9 1.3.3 3.3.6 6.1.8l-3 10.7Zm120.2 19.8-4 14-64.7-18.2 24.5-86.7 18.2 5.1-20.6 72.7 46.6 13.1Zm34.8-7.3c-1.8 6.5-2 11.7-.5 15.7s4.4 6.6 8.8 7.8c3 .9 5.8 1 8 .2a11 11 0 0 0 5.9-4.8l15.9 6c-8.2 10.7-19.4 14-33.9 10-10-2.9-16.9-8-20.6-15.4-3.7-7.5-3.9-16.9-.7-28.3 3.1-11 8.2-18.7 15.4-23a31.2 31.2 0 0 1 25.7-2.3c9.5 2.7 16 8 19.2 15.7 3.3 7.8 3.2 17.7-.3 30l-.1.5-42.8-12.1Zm29-3.5c1.3-5.5 1.1-9.9-.4-13.2a11.7 11.7 0 0 0-8-6.6c-4-1.1-7.5-.6-10.6 1.6-3 2.2-5.2 5.8-6.8 10.9l25.9 7.3Zm49.2 19.4-10 35.7-17.4-4.9 14.7-51.7a166.7 166.7 0 0 0 3.7-15l16.5 4.6-.7 3.6a259.2 259.2 0 0 1-2.3 9.9h.3c3.7-4.4 7.7-7.2 11.9-8.5 4.2-1.3 8.7-1.3 13.6.1 7 2 11.8 5.7 14.4 11.1 2.5 5.4 2.6 12.3.3 20.7l-12 42.3-17.2-4.9 10.5-37.3c1.7-6 2-10.6.8-14-1.1-3.5-3.7-5.8-7.7-7-4.2-1.1-8-.3-11.7 2.6-3.5 2.8-6 7-7.7 12.7Zm73.4 88.1a38 38 0 0 1-18.3-10.2c-4-4.4-5.9-9.7-5.4-15.8l17.9 2.9a11 11 0 0 0 2.2 7.4c1.6 2 4 3.6 7.3 4.5 4.8 1.4 8.7.9 11.8-1.5 3-2.3 5.4-6.4 7-12.2l3-10h-.1c-3 3.5-6.7 5.8-10.8 6.8-4.1 1-8.8.8-14.1-.7-7.8-2.2-13-6.8-15.6-13.8-2.6-7-2.4-16 .7-26.8 3-10.9 7.6-18.7 13.7-23.3 6-4.7 13.3-5.9 21.7-3.5 4.8 1.4 8.6 3.5 11.3 6.5 2.9 3 4.6 6.6 5.4 11.2h.3a62.7 62.7 0 0 1 3.9-10.4l16.4 4.6c-1.5 4.4-3.1 9.5-4.8 15.3l-13.9 49.2c-2.6 9.5-7.3 15.9-14.1 19.2-6.7 3.3-15.2 3.5-25.5.6Zm31.7-56.8c2-6.9 2.2-12.5.8-17a12 12 0 0 0-8.8-8.8 12 12 0 0 0-12 2.6c-3.3 3-6 8.3-8 15.7-2.1 7.2-2.5 13-1.3 17.2a12 12 0 0 0 8.8 8.4c4.6 1.3 8.7.4 12.2-2.8 3.5-3.1 6.3-8.2 8.3-15.3Zm60.3 53a48 48 0 0 1-15.2-2c-5-1.5-8.6-4-10.6-7.5-2-3.6-2.1-8.2-.5-13.8l11-39.3-8.4-2.4 3.4-11.7 9.3 2.7 9.8-14.1 10.8 3-4.4 15.7 12.6 3.5-3.3 11.7-12.6-3.6-9.8 34.6c-.9 3.3-1 5.9-.2 7.8.8 1.8 2.5 3.1 5.1 3.9 1.2.3 3.3.6 6 .7l-3 10.7Zm45.6-43.7c3.7-4.4 7.7-7.3 11.9-8.6 4.2-1.3 8.7-1.2 13.6.1 7 2 11.9 5.7 14.4 11.2 2.5 5.4 2.6 12.3.3 20.6l-12 42.3-17.2-4.9 10.5-37.3c1.7-5.9 2-10.5.8-14-1.1-3.5-3.7-5.8-7.7-6.9-4.2-1.2-8-.3-11.7 2.5-3.5 2.9-6.1 7.1-7.7 12.8l-10 35.6-17.4-4.9 25.9-91.3 17.3 4.8-7 25a137.6 137.6 0 0 1-4.3 13h.3Z" fill="#473E4C"/>
    <path fill="#DE373E" d="m1309.4 1094.5 459.8-156.1 63.3 186.5-459.9 156z"/>
    <path d="m1416.7 1173.4 11 32.4-17.9 6-29-85.3 42.7-14.5c10.2-3.4 18.8-3.9 25.8-1.4s12 7.9 14.7 16c2 6 2 11.8.2 17.3-2 5.5-5.6 9.9-10.9 13.2l35.3 28-20.1 6.9-30.8-25.7-21 7Zm29.6-40c-1.4-4-3.8-6.6-7.1-7.8-3.3-1.1-7.6-.8-12.9 1l-22.9 7.7 8.6 25.2 23.4-8c5-1.6 8.4-4 10.2-7.2 1.8-3.1 2-6.7.7-10.8Zm72.4 42.8a21.6 21.6 0 0 1-16.6 0 20.6 20.6 0 0 1-10.3-12.9c-2.3-6.7-1.8-12.6 1.4-17.6 3.2-5 9-9 17.4-12l14-5.1-1.1-3.3c-1.5-4.3-3.3-7.3-5.5-8.8-2.2-1.6-5-1.8-8.4-.7-3.1 1.1-5.2 2.6-6.2 4.6-1 1.9-1 4.6-.3 8l-18 5.2c-2.2-13.8 5-23.4 21.5-29 8.3-2.8 15.4-3 21.2-.4 5.9 2.5 10 7.6 12.6 15l8.1 24c1.3 3.6 2.6 6 3.8 7.2 1.4 1 3 1.3 5 .6 1.2-.4 2.4-1 3.5-1.6l3.2 9.2-5 3a32 32 0 0 1-5.4 2.3c-4.3 1.4-7.8 1.4-10.6 0a16 16 0 0 1-6.8-8l-.3.1c-1 5.1-2.8 9.4-5.7 12.8a25.5 25.5 0 0 1-11.5 7.5Zm9.1-38.2-8.7 3c-4 1.6-6.6 3-8 4.2a8.6 8.6 0 0 0-2.7 4.5 12 12 0 0 0 .7 6.3c1 3.1 2.6 5.2 4.5 6.2 2 1 4.1 1.1 6.5.3 2.7-.9 4.9-2.4 6.6-4.6 1.7-2.2 2.7-4.8 3.1-7.8.4-3 .1-6-.9-8.8l-1.1-3.3Zm53.8-20.3 11 32.1-17 5.8-17.1-50.1a193.3 193.3 0 0 0-5.7-15.3l16.2-5.5c.2.4.6 1.1 1 2.4a543.4 543.4 0 0 1 4.6 11.4l.2-.1c0-5 .5-8.8 1.1-11.3.7-2.3 1.7-4.2 3.2-5.7 1.5-1.5 3.5-2.7 6.2-3.6 2.2-.8 4-1 5.6-.9l4.8 14.3c-2.9.3-5.4.8-7.6 1.5a12 12 0 0 0-8.1 8.5c-1.2 4.3-.7 9.7 1.6 16.5Zm32-75.3 4.3 12.6-17 5.7-4.2-12.5 17-5.8Zm8.4 24.4 22.2 65.5-17 5.8-22.3-65.5 17-5.8Zm73.8 47a48 48 0 0 1-13.6 6.9c-5 1.6-9.4 1.6-13-.2-3.6-1.8-6.4-5.5-8.3-11l-13-38.7-8.4 2.9-3.9-11.6 9.2-3v-17.3l10.7-3.6 5.3 15.4 12.4-4.2 3.9 11.5-12.4 4.2 11.5 34c1.1 3.3 2.5 5.4 4.2 6.5 1.8 1.1 3.9 1.2 6.4.4a32 32 0 0 0 5.4-2.8l3.6 10.5Zm31 19.2a65.8 65.8 0 0 1-11 2.8l-4-12c2.3-.5 4.3-1 6-1.6 4-1.3 6.5-3.4 7.7-6.2 1.3-2.8 2-7 2.1-12.7l-47.9-56.1 18-6.1 20.7 27.2 5.6 7.4 7.4 10.8a635.8 635.8 0 0 1-1.3-21.9l-.8-34.2 17.8-6-2.6 77.7a61.5 61.5 0 0 1-2.4 15.4 23 23 0 0 1-5.7 9.9 24.6 24.6 0 0 1-9.6 5.6Z" fill="#463D4A"/>
  </g>
  <defs>
    <clipPath id="a">
      <path fill="#fff" d="M0 0h1920v1080H0z"/>
    </clipPath>
  </defs>
</svg>
