<svg width="1920" height="1080" fill="none" xmlns="http://www.w3.org/2000/svg">
  <g clip-path="url(#a)">
    <path fill="#ECCA4A" d="M360 457.6 766 401l12.5 89.1-406 56.6z"/>
    <path d="M429.5 502.8c.6 4.3-.5 7.7-3.4 10.4a24 24 0 0 1-13.3 5.3c-11 1.5-17.9-1.5-20.8-9.2l8.6-2.7a8 8 0 0 0 4.1 4.5c1.9.8 4.3 1 7.4.6a14 14 0 0 0 7-2.5c1.4-1.1 2-2.7 1.7-4.6a4.4 4.4 0 0 0-1.5-3c-.8-.6-2-1.1-3.4-1.5l-3-.4-4.9-.4a125.6 125.6 0 0 1-8.3-1.3 27 27 0 0 1-2.3-.8 10 10 0 0 1-4.1-3.2c-1.1-1.4-1.8-3.3-2.1-5.5-.6-4 .5-7.1 3.1-9.6 2.7-2.5 6.8-4.2 12.4-5 5.4-.7 9.5-.4 12.4.9 3 1.3 5.1 3.8 6.4 7.6l-8.6 2.4c-.7-1.8-1.8-3-3.4-3.8-1.5-.8-3.5-1-6-.6a12 12 0 0 0-6 2.1 4.3 4.3 0 0 0-1.6 4.2c.2 1.1.6 2 1.3 2.6.7.7 1.6 1.2 2.8 1.5 1.2.4 3.6.7 7.3 1a106.6 106.6 0 0 1 9.2 1.1 18.7 18.7 0 0 1 4.6 2c1.2.9 2.2 2 3 3.3.7 1.3 1.2 2.8 1.4 4.6Zm29 2c-.9 2.7-2 4.7-3.7 6.1a11.4 11.4 0 0 1-6 2.6c-3.6.5-6.4-.2-8.6-2.1-2.2-2-3.6-5-4.2-9.1l-3-21.1 8.7-1.2 2.6 18.6c.4 3 1.2 5 2.4 6.4a5 5 0 0 0 4.7 1.5 6 6 0 0 0 4.7-3.3c1-2 1.4-4.4 1-7.2l-2.5-17.8 8.6-1.2 3.6 25.8a123.9 123.9 0 0 0 1.3 7.4l-8.2 1.1a147.3 147.3 0 0 1-1.3-6.5h-.2Zm47.4-17c.7 5.6.2 10-1.6 13.3a11 11 0 0 1-8.8 5.9c-4.8.6-8.4-.9-10.9-4.5h-.1l1 5.6 1.7 12.7-8.6 1.2-5.4-38.6a132.8 132.8 0 0 0-1.3-7.6l8.4-1.2.3 1.2a25.5 25.5 0 0 1 .8 4.2h.1a10 10 0 0 1 3.5-5.2 13 13 0 0 1 6.3-2.5c3.8-.5 7 .6 9.6 3.3 2.5 2.6 4.2 6.7 5 12.2Zm-9 1.3c-.6-3.8-1.5-6.5-3-8.2a5.6 5.6 0 0 0-5.4-2 6 6 0 0 0-4.9 3.7c-1 2.2-1.1 5-.6 8.7a16 16 0 0 0 3 8 5.9 5.9 0 0 0 5.6 2.2c2.3-.3 3.9-1.5 4.7-3.6 1-2 1.1-5 .6-8.8Zm23.4-1.5c.5 3.3 1.4 5.6 2.8 7.1a6 6 0 0 0 5.5 1.8c1.5-.2 2.7-.7 3.6-1.5.9-.8 1.4-2 1.6-3.3l8.3-.4c-1.5 6.3-5.9 10-13.1 11-5 .7-9-.2-12.1-2.8-3.1-2.6-5-6.7-5.9-12.4-.7-5.5 0-9.9 2.4-13.2 2.3-3.4 6-5.4 11-6 4.7-.7 8.5.4 11.5 3.2 3 2.8 4.9 7.2 5.7 13.3v.3l-21.3 3Zm12.2-7.2c-.5-2.6-1.4-4.5-2.7-5.7a5.7 5.7 0 0 0-4.9-1.4c-2 .3-3.4 1.2-4.4 2.8a10 10 0 0 0-.9 6.1l13-1.8Zm24.3.8 2.2 16.3-8.6 1.2-3.5-25.4a93 93 0 0 0-1.4-7.8l8.3-1.1.3 1.2a172.7 172.7 0 0 1 1 5.8h.2a24 24 0 0 1 1.5-5.3c.5-1 1.2-1.8 2-2.4.9-.6 2-1 3.3-1.2 1.2-.1 2 0 2.8.1l1 7.2H562a5.9 5.9 0 0 0-4.6 3.4 14 14 0 0 0-.7 8Zm24.5-14.7 3.8 27.4-8.6 1.2-3.8-27.4-4.8.6-.8-5.8 4.8-.7-.5-3.4c-.4-3 .1-5.4 1.5-7 1.4-1.7 3.7-2.8 7-3.3 1.7-.2 3.5-.3 5.5-.2l.8 5.5-2.6.1c-1.5.2-2.5.6-3 1.3-.5.7-.7 1.7-.4 3.2l.3 2.6 6.6-.9.8 5.9-6.6.9Zm22.5 25.4c-3.2.4-5.8 0-7.9-1.6a10 10 0 0 1-3.7-7c-.5-3.4.3-6.2 2.3-8.3 2-2.1 5-3.5 9.3-4.2l7.2-1-.3-1.8c-.3-2.1-.9-3.7-1.8-4.6-.9-1-2.2-1.3-4-1.1-1.5.2-2.6.7-3.3 1.6-.6.8-1 2-.9 3.8l-9 .8c.2-6.7 4.5-10.7 12.9-11.8 4.2-.6 7.6 0 10.1 1.7 2.6 1.8 4.1 4.5 4.6 8.3l1.7 12.1c.3 1.9.7 3.2 1.2 3.8.5.7 1.3 1 2.3.8l1.8-.5.7 4.7a34.5 34.5 0 0 1-5.4 1.6c-2.2.3-3.9 0-5-1-1.3-.9-2-2.4-2.6-4.4h-.2a13 13 0 0 1-3.8 5.6 12.4 12.4 0 0 1-6.2 2.5Zm7.8-17.4-4.4.7c-2 .3-3.4.8-4.2 1.2-.7.5-1.3 1.1-1.7 2-.3.7-.4 1.7-.2 3 .2 1.5.7 2.7 1.6 3.3a4 4 0 0 0 3 .8c1.4-.2 2.6-.8 3.6-1.6 1-1 1.7-2 2.2-3.4.4-1.4.6-2.9.4-4.3l-.3-1.7Zm25.7-6 2.5 17.7-8.6 1.2-3.6-25.7a83.2 83.2 0 0 0-1.3-7.4l8.2-1.2.4 1.7a110.5 110.5 0 0 1 1 4.9c.8-2.8 1.8-4.8 3.3-6.1a9.6 9.6 0 0 1 5.4-2.6c2.6-.3 4.7 0 6.4 1 1.7 1 3 2.7 3.9 5h.2c.7-2.8 1.8-4.8 3.2-6.1 1.5-1.4 3.4-2.2 5.8-2.6 3.3-.4 5.9.3 7.9 2.3 2 2 3.3 5 3.9 9.1l2.9 21.1-8.6 1.2-2.6-18.6c-.4-3-1.1-5.1-2.1-6.4a4.1 4.1 0 0 0-4.1-1.7c-1.7.2-3 1.3-3.9 3-.9 1.8-1.1 4.1-.7 7l2.5 18.2-8.6 1.2-2.6-18.6c-.4-3-1.1-5-2.1-6.4a4.1 4.1 0 0 0-4.1-1.7c-1.8.3-3 1.4-4 3.3-.8 2-1 4.3-.6 7.1Zm52.2-35.6.9 6.3-8.6 1.2-1-6.3 8.7-1.2Zm1.7 12.3 4.6 33.2-8.6 1.2-4.6-33.2 8.6-1.2Zm15.9-14.8 6.3 45.6-8.6 1.2-6.3-45.6 8.6-1.2Zm21.4 56.8c-2 .3-3.9.4-5.5.3l-.8-6.1c1.2 0 2.2 0 3-.2 2-.3 3.4-1 4.3-2.2a17 17 0 0 0 2.1-5.9l-17.7-31 9.1-1.3 7.4 14.8a82.2 82.2 0 0 1 4.5 9.8 304.3 304.3 0 0 1 1.4-10.5l2.7-16.4 9-1.2-8.2 36.8a29.6 29.6 0 0 1-2.6 7.1c-1 1.9-2.2 3.3-3.6 4.2a12 12 0 0 1-5 1.8Z" fill="#fff"/>
    <path fill="#C0BECC" d="m409 359 315-79 22 87.2-315.2 79.1z"/>
    <path d="m455 400 3.8 15.6-8.8 2.2-10.7-42.4 31.3-7.8 1.7 6.8-22.4 5.7 3.3 13 21.7-5.4 1.7 6.9L455 400Zm59.7-15.8c1.3 5.3 1 9.8-1.3 13.5a16.7 16.7 0 0 1-11 7.6c-5 1.2-9.4.7-13-1.5-3.7-2.3-6.2-6.1-7.5-11.4-1.3-5.2-.9-9.7 1.2-13.4 2.2-3.7 5.8-6.2 11-7.5 5.3-1.4 9.8-1 13.3 1.3 3.5 2.2 6 6 7.3 11.4Zm-8.8 2.2c-1-3.8-2.3-6.5-4-8a6.6 6.6 0 0 0-6.2-1.1c-2.6.6-4.2 2-5 4.2-.9 2.1-.8 5 0 8.7 1 3.7 2.3 6.3 4 7.9 1.8 1.5 3.8 2 6.2 1.4 2.6-.6 4.3-2 5.1-4.2a15 15 0 0 0-.1-8.9Zm23.8-7.2 4.4 17.5-8.5 2.1-6.3-25.3a84.4 84.4 0 0 0-2-7.2l8-2 .6 1.7a109.4 109.4 0 0 1 1.4 4.7h.1c.5-2.8 1.5-5 3-6.6 1.4-1.5 3.3-2.6 5.7-3.2 3.5-.9 6.4-.5 8.8 1.2 2.3 1.7 4 4.5 5 8.6l5.2 20.7-8.4 2.1-4.6-18.3a12 12 0 0 0-3-6c-1.3-1.2-3-1.6-5-1a6 6 0 0 0-4.2 3.8c-.8 2-.9 4.5-.2 7.2Zm49 5.8a23.3 23.3 0 0 1-6.8 2.8c-2.5.6-4.6.4-6.3-.6-1.7-1-2.9-3-3.6-5.7l-4.8-19.1-4 1-1.5-5.7 4.5-1.2.7-8.3 5.3-1.3 2 7.6 6.1-1.5 1.5 5.7-6.2 1.6 4.2 16.9c.4 1.5 1 2.6 1.8 3.2.8.6 1.8.8 3.1.5l2.7-1.2 1.3 5.3Zm53.8-26c1 4.1.3 7.7-2.2 10.7a24 24 0 0 1-12.7 6.7c-10.7 2.6-18 .3-21.7-7l8.3-3.5a8 8 0 0 0 4.6 4c2 .6 4.4.5 7.4-.3a14 14 0 0 0 6.6-3.1c1.3-1.4 1.7-3 1.2-4.8a4.4 4.4 0 0 0-1.8-2.8c-.9-.6-2-1-3.5-1.2h-7.9a126.7 126.7 0 0 1-8.4-.3 27 27 0 0 1-2.4-.6 10 10 0 0 1-4.5-2.7c-1.2-1.3-2-3-2.6-5.3-1-3.8-.3-7.1 2-9.9 2.4-2.7 6.4-4.8 11.9-6.2 5.2-1.3 9.4-1.5 12.4-.5s5.5 3.3 7.2 6.9l-8.3 3.3a6.8 6.8 0 0 0-3.8-3.4c-1.6-.6-3.6-.6-6.1 0a12 12 0 0 0-5.8 2.8 4.3 4.3 0 0 0-1 4.3c.3 1.1.8 2 1.5 2.5.8.6 1.8 1 3 1.2 1.2.2 3.6.2 7.3.1a105.5 105.5 0 0 1 9.3.2 18.8 18.8 0 0 1 4.8 1.5c1.3.7 2.4 1.7 3.3 3 .8 1.1 1.5 2.6 2 4.4Zm7.2-36.3 1.5 6.3-8.4 2-1.6-6.1 8.5-2.2Zm3 12.1 8.2 32.6-8.5 2-8.2-32.5 8.5-2Zm39.7 18.1 1.5 6.2-26 6.5-1.6-6 10.2-24.3-14 3.6-1.6-6.1 23.4-6 1.5 6.1-10.1 24.2 16.7-4.2Zm11.4-11.9c.8 3.2 2 5.4 3.6 6.8a6 6 0 0 0 5.6 1c1.5-.3 2.6-.9 3.4-1.8.8-.9 1.2-2 1.3-3.4l8.1-1.3c-.8 6.5-4.7 10.6-11.8 12.4-4.9 1.2-9 .7-12.3-1.5-3.4-2.3-5.8-6.2-7.2-11.7-1.3-5.4-1-9.9 1-13.4 1.9-3.6 5.3-6 10.2-7.2 4.6-1.2 8.6-.5 11.8 2 3.3 2.4 5.7 6.6 7.2 12.6v.3l-20.9 5.2Zm11.4-8.5c-.8-2.6-2-4.4-3.4-5.4s-3-1.3-5-.9c-1.9.5-3.3 1.6-4 3.3a10 10 0 0 0-.2 6.2l12.6-3.2Z" fill="#443D4D"/>
    <path fill="#433C4C" d="m411.6 92.5 300.7 77-22.7 88.6-300.7-77z"/>
    <path d="M446.5 163.7c5.2 1.3 9.5-.4 12.9-5.1l6.8 4.8c-2.6 3.5-5.8 6-9.4 7a21.7 21.7 0 0 1-12 0c-4.5-1-8-2.9-10.7-5.3a17.6 17.6 0 0 1-5.2-9.2c-.8-3.6-.7-7.7.5-12.2 1.2-4.5 3-8.2 5.3-10.9 2.4-2.7 5.3-4.5 8.7-5.3 3.5-1 7.4-.8 11.9.4 4.8 1.2 8.5 3.2 11 6 2.6 2.6 4 6 4.3 10.1l-8.2.2c0-2.3-1-4.2-2.5-6a12.2 12.2 0 0 0-6.2-3.5c-4-1-7.2-.5-9.8 1.4-2.7 1.9-4.6 5.2-5.8 9.8-.8 3.2-1 6-.7 8.4a11 11 0 0 0 2.9 6 13 13 0 0 0 6.2 3.4Zm57 4.3a17.2 17.2 0 0 1-7.4 11c-3.6 2.2-8 2.6-13 1.3-4.9-1.3-8.4-3.7-10.5-7.4-2-3.6-2.4-8-1-13.1 1.2-5.1 3.6-8.8 7.2-11 3.6-2.2 7.9-2.6 13-1.3s8.7 3.7 10.7 7.2c2 3.6 2.4 8 1 13.3Zm-8.6-2.2c1-3.8 1-6.7.2-8.7-.8-2-2.3-3.4-4.7-4-2.5-.6-4.6-.2-6.3 1.3-1.7 1.5-3 4-4 7.6-.8 3.5-1 6.4-.2 8.5a6.2 6.2 0 0 0 4.6 4.2c2.5.6 4.7.2 6.4-1.3 1.7-1.5 3-4 4-7.6Zm23.8 4.9-4.4 17-8.2-2.1 6.3-24.7a82 82 0 0 0 1.6-7.1l7.9 2-.3 1.7a106.4 106.4 0 0 1-1 4.7h.1c1.8-2.1 3.6-3.5 5.6-4.2 2-.6 4-.7 6.4 0 3.4.8 5.7 2.5 7 5 1.2 2.5 1.3 5.8.3 9.8l-5.1 20.1-8.2-2 4.5-17.9c.7-2.8.8-5 .2-6.6-.6-1.6-1.8-2.7-3.7-3.2-2-.5-3.8 0-5.5 1.4a11.4 11.4 0 0 0-3.5 6Zm39.4 27.7c-2.2.1-4.6-.1-7.2-.8-2.4-.6-4.1-1.7-5.1-3.4s-1.1-3.8-.4-6.5l4.8-18.7-4-1 1.4-5.6 4.4 1.1 4.5-6.8 5.2 1.3-2 7.5 6 1.5-1.4 5.6-6-1.5-4.2 16.5c-.4 1.5-.4 2.7 0 3.6.4.9 1.2 1.5 2.4 1.8l3 .3-1.4 5Zm17.1-11.7-4 15.6-8.2-2.2 6.2-24.2a91 91 0 0 0 1.7-7.5l7.9 2-.2 1.2a165 165 0 0 1-1.2 5.6h.1c1.4-2 2.5-3.3 3.4-4.1a6 6 0 0 1 2.7-1.5c1-.2 2.1-.1 3.4.2 1 .3 1.9.7 2.5 1.1l-1.8 7a17 17 0 0 0-3.4-1.4c-2-.6-3.9-.1-5.5 1.2a13.6 13.6 0 0 0-3.6 7Zm18.5 22c-3-.9-5.3-2.3-6.6-4.4a9.7 9.7 0 0 1-.7-7.7c.8-3.3 2.5-5.5 5-6.7 2.7-1.1 6-1.2 10-.3l7 1.7.4-1.7c.5-2 .5-3.7 0-4.8-.4-1.2-1.5-2-3-2.5-1.6-.4-2.8-.3-3.7.2-1 .5-1.6 1.6-2.2 3.1l-8.5-2.6c2.7-6 8-8 16-6 4 1.1 6.9 2.9 8.5 5.4 1.7 2.6 2 5.6 1.1 9.3l-3 11.5c-.4 1.8-.5 3-.3 3.9.3.7.8 1.2 1.8 1.5l1.8.3-1.1 4.4a33.8 33.8 0 0 1-5.5-.6c-2-.5-3.4-1.4-4.2-2.7-.7-1.2-.9-2.9-.6-4.9h-.2c-1.7 1.7-3.5 3-5.5 3.5-2 .6-4.2.6-6.5 0Zm13.5-12.9-4.2-1c-2-.4-3.4-.6-4.3-.4-.9.1-1.6.5-2.2 1-.6.7-1 1.5-1.4 2.7-.4 1.5-.3 2.7.2 3.7.5.9 1.3 1.5 2.5 1.8 1.3.3 2.6.2 3.8-.2a7.5 7.5 0 0 0 3.3-2.3c.9-1 1.5-2.3 1.9-3.7l.4-1.6Zm42 16.5c-.8 3.1-2.7 5.2-5.7 6.3-3 1.1-6.6 1-11 0a20.7 20.7 0 0 1-9.6-4.7c-2-2-2.9-4.5-3-7.6l7.6.8c0 1.6.5 2.8 1.3 3.7a11 11 0 0 0 5 2.3c2.3.6 4.1.7 5.3.4a3 3 0 0 0 2.3-2.3c.3-1 0-2-.7-2.8-.7-.8-2-1.7-3.9-2.6a132.6 132.6 0 0 1-6.9-3.6l-1.9-1.4a9.8 9.8 0 0 1-2.9-4 8.4 8.4 0 0 1 0-5c.7-3 2.5-5 5.2-6.2 2.8-1 6.4-1 10.6 0 3.8 1 6.6 2.5 8.6 4.6 1.9 2 2.8 4.5 2.6 7.4l-7.5-1c.1-1.4-.2-2.5-1-3.4-.7-.9-2-1.6-4-2-2-.6-3.6-.7-4.7-.4-1 .2-1.8.9-2 2-.3 1-.1 1.8.5 2.6a11 11 0 0 0 3.5 2.3l6.1 3.2c1.8 1 3.2 2 4.2 3.1 1 1 1.7 2.3 2 3.6.5 1.3.4 3 0 4.7Zm19.6 14.4c-2.2.2-4.6 0-7.2-.8-2.5-.6-4.2-1.7-5.1-3.3-1-1.7-1.2-3.9-.5-6.6l4.8-18.7-4-1 1.4-5.6 4.5 1.2 4.5-6.8 5.1 1.3-1.9 7.4 6 1.6-1.4 5.6-6-1.6-4.2 16.5c-.4 1.5-.4 2.8 0 3.7.4.8 1.2 1.4 2.4 1.7.6.2 1.5.3 2.9.3l-1.3 5.1Z" fill="#fff"/>
    <path fill="#A4E0CA" d="m583.7 8.6 240 113.2-38.8 82.2-240-113.2z"/>
    <path d="M626.6 70.1a14.6 14.6 0 0 1-5 6 13.5 13.5 0 0 1-7.2 2.4c-2.7 0-5.6-.6-8.6-2l-9.9-4.7-6.6 14L581 82l18.8-39.8 17.9 8.4c4.7 2.3 7.9 5 9.4 8.5 1.5 3.4 1.4 7.1-.5 11.1Zm-8.5-3.8c2-4.2.5-7.4-4.4-9.8l-8.6-4-6.1 12.9 8.8 4.2c2.3 1 4.3 1.3 6.1.8 1.8-.6 3.2-2 4.2-4Zm8.5 37.8c-3-1.4-5-3.3-5.8-5.7a10 10 0 0 1 .7-8c1.5-3.1 3.7-5 6.5-5.7 2.8-.7 6.2-.1 10.2 1.6l6.6 3 .8-1.5c.9-2 1.2-3.7 1-5-.2-1.3-1.1-2.3-2.7-3-1.5-.7-2.7-.9-3.8-.6-1 .4-1.9 1.3-2.8 2.8l-8-4.3c3.8-5.6 9.6-6.6 17.3-3 3.9 1.9 6.4 4.3 7.6 7.1 1.2 3 1 6.1-.7 9.6l-5.2 11.2c-.8 1.7-1.2 3-1.1 3.8 0 .8.6 1.5 1.5 1.9l1.8.6-2 4.3a34.5 34.5 0 0 1-5.5-1.6c-2-1-3.2-2.2-3.7-3.6s-.4-3.1.3-5.1h-.1c-2 1.4-4.2 2.2-6.3 2.5-2.2.2-4.4-.3-6.6-1.3Zm16.2-10.4-4.1-1.8c-2-.8-3.4-1.3-4.2-1.3-1 0-1.8.2-2.5.7a6 6 0 0 0-2 2.4c-.6 1.5-.8 2.7-.5 3.7a4 4 0 0 0 2.2 2.3c1.3.6 2.6.8 4 .6 1.3-.2 2.5-.7 3.6-1.6 1.2-1 2-2 2.7-3.4l.8-1.6Zm37-16.5L677 83l-8-3.7 2.8-5.9 8 3.8Zm-5.4 11.3-14.5 30.6-8-3.7 14.5-30.6 8 3.7Zm8.7 23.2-7 15-8-3.7 11-23.4a94.1 94.1 0 0 0 3.2-7.3l7.6 3.6-.4 1.1a167.6 167.6 0 0 1-2.3 5.6c1.8-1.7 3.2-3 4.3-3.6 1-.6 2-.9 3-.9s2.2.3 3.5.8c1 .5 1.7 1 2.2 1.6l-3.1 6.7c-1.1-1-2.2-1.6-3.2-2-2-1-4-1-5.8.2a14 14 0 0 0-5 6.3Zm35.3-16.3-2.8 5.9-8-3.8 2.8-5.8 8 3.7Zm-5.4 11.4-14.4 30.6-8-3.8 14.5-30.6 8 3.8Zm9.4 21.8-7.7 16.4-8-3.8 11.3-23.7a84.4 84.4 0 0 0 3-7l7.5 3.6-.6 1.7a110 110 0 0 1-1.9 4.5h.2c2.1-1.7 4.3-2.8 6.4-3 2.1-.4 4.3 0 6.5 1 3.3 1.6 5.3 3.8 6 6.6.9 2.8.4 6.1-1.4 10l-9.2 19.4-8-3.7 8.2-17.2a12 12 0 0 0 1.5-6.7c-.3-1.8-1.4-3-3.2-4a6 6 0 0 0-5.8.4c-2 1-3.5 2.9-4.8 5.5Zm26.8 47.6a18.5 18.5 0 0 1-8-6.4 9.9 9.9 0 0 1-1.3-8l8.3 2.8c-.3 1.3-.1 2.6.5 3.7s1.7 2 3.2 2.8c2.2 1 4.1 1.1 5.8.2a11 11 0 0 0 4.3-5.3l2.3-4.6a10 10 0 0 1-5.8 2.4c-2.1.2-4.3-.3-6.8-1.5a10.7 10.7 0 0 1-6.4-7.9c-.6-3.6.2-7.9 2.5-12.8 2.4-5 5.2-8.4 8.5-10.2 3.3-1.7 6.9-1.7 10.7.1 2.2 1 3.9 2.4 5 4a10 10 0 0 1 1.7 5.9 35 35 0 0 1 2.8-4.7l7.5 3.6-3.5 7-10.6 22.5c-2 4.4-4.9 7-8.4 8.1-3.5 1.1-7.6.5-12.3-1.7Zm19.8-24.9a15 15 0 0 0 1.8-8.1c-.3-2.3-1.5-4-3.5-5-2.1-1-4.1-.8-6 .4a16.2 16.2 0 0 0-5.2 6.9 16 16 0 0 0-2 8.2 5.8 5.8 0 0 0 3.6 4.7 6 6 0 0 0 6-.3c2-1.3 3.8-3.5 5.3-6.8Z" fill="#433D49"/>
    <path fill="#76AC3D" d="m189.8 122 199.6 1.8-.8 91-199.6-1.9z"/>
    <path d="M253.2 177.3c0 4.4-1.6 7.6-4.9 9.9-3.2 2.2-7.9 3.3-14 3.3-11.2-.1-17.6-4.2-19.4-12.3l9-1.4a8 8 0 0 0 3.4 5.1c1.7 1.1 4.2 1.6 7.3 1.7 3.2 0 5.6-.5 7.2-1.4 1.6-1 2.5-2.5 2.5-4.4 0-1.3-.4-2.3-1-3.1a8.2 8.2 0 0 0-3.2-2 128.4 128.4 0 0 1-15.9-4.5L222 167a10 10 0 0 1-3.6-3.8c-.9-1.6-1.3-3.5-1.3-5.9 0-4 1.6-7 4.6-9 3-2.2 7.4-3.2 13-3.1 5.6 0 9.6 1 12.4 2.6 2.7 1.8 4.4 4.6 5.2 8.6l-9 1.1a6.9 6.9 0 0 0-2.7-4.3c-1.4-1-3.4-1.5-6-1.5a12 12 0 0 0-6.3 1.3 4.3 4.3 0 0 0-2.2 3.9c0 1.1.3 2 .9 2.8.6.7 1.4 1.4 2.6 1.9a43 43 0 0 0 7 2 107.9 107.9 0 0 1 9.2 2.5 19 19 0 0 1 4.2 2.7c1.1 1 1.9 2.3 2.4 3.7.6 1.4.9 3 .8 4.8Zm23 12.4c-2.2.7-4.6 1-7.5 1-2.5 0-4.5-.7-5.9-2.1-1.4-1.4-2-3.6-2-6.4l.1-20h-4.2v-6h4.7l2.9-7.8h5.5l-.1 8h6.4v6h-6.5l-.1 17.5c0 1.6.3 2.8.9 3.6.6.8 1.6 1.2 2.9 1.2.6 0 1.6-.1 3-.4l-.1 5.4Zm9.5 14-5.6-.5v-6.3l3.1.3c2 0 3.6-.5 4.6-1.6 1-1.1 2-3 3-5.6l-13-33.6 9.2.1 5.2 16a83.5 83.5 0 0 1 3 10.4 312.5 312.5 0 0 1 3-10.3l5.1-16 9.2.2-13.7 35.4a30 30 0 0 1-3.6 6.8c-1.3 1.7-2.7 2.9-4.2 3.6a12 12 0 0 1-5.3 1Zm40.5-59.4-.4 46.4H317l.5-46.5 8.7.1Zm16 31.3c0 3.3.6 5.8 1.8 7.5 1.2 1.7 3 2.5 5.2 2.6 1.5 0 2.8-.3 3.8-1s1.7-1.7 2-3l8.4.8c-2.5 6-7.4 9.1-14.7 9-5.1 0-9-1.5-11.7-4.6-2.7-3-4-7.4-4-13.2 0-5.6 1.5-9.9 4.3-12.8 2.8-3 6.7-4.5 11.8-4.4 4.9 0 8.6 1.7 11.1 5 2.5 3.2 3.8 7.9 3.7 14v.3l-21.7-.2Zm13.3-5.3c-.2-2.8-.8-4.8-2-6.2a5.7 5.7 0 0 0-4.5-2c-2.1-.1-3.7.6-4.8 2a10.1 10.1 0 0 0-1.9 6l13.2.2Z" fill="#403C51"/>
    <path fill="#99E5EE" d="m-71.9 63 612.4-80 12 91.5-612.4 80z"/>
    <path d="m-1.3 115.4.9 7-32.6 4.3-5.7-43.7 9.2-1.2 4.7 36.6 23.5-3Zm15.1 5.8c-3.2.4-5.9-.1-7.9-1.6a10 10 0 0 1-3.7-7.2c-.5-3.4.3-6.2 2.3-8.3 2-2.1 5.2-3.5 9.5-4.1l7.2-1-.2-1.8c-.3-2.2-.9-3.7-1.8-4.7s-2.2-1.3-4-1.1c-1.6.2-2.7.7-3.4 1.6-.6.8-1 2-.9 3.8l-9.1.7c.3-6.8 4.6-10.7 13-11.8 4.3-.6 7.7 0 10.3 1.8 2.6 1.8 4 4.6 4.6 8.5l1.6 12.2c.2 1.9.6 3.1 1.1 3.8.5.7 1.3 1 2.3.8.7 0 1.3-.2 1.9-.4l.6 4.7a34.2 34.2 0 0 1-5.5 1.5c-2.1.3-3.8 0-5-1-1.2-1-2-2.4-2.5-4.5H24c-1 2.4-2.2 4.3-4 5.6a12.5 12.5 0 0 1-6.2 2.5Zm8-17.5-4.4.7c-2 .3-3.4.7-4.2 1.2-.8.5-1.4 1.1-1.8 2a6 6 0 0 0-.2 3c.2 1.6.7 2.7 1.5 3.4a4 4 0 0 0 3.1.8c1.4-.2 2.6-.8 3.6-1.6 1-1 1.8-2 2.3-3.5.4-1.4.6-2.8.4-4.3l-.2-1.7ZM47.8 98l2.3 18-8.7 1L38 91a84.7 84.7 0 0 0-1.2-7.4l8.3-1.1.4 1.7a111.4 111.4 0 0 1 .9 4.9h.1c.8-2.7 2-4.8 3.7-6.2 1.6-1.4 3.7-2.2 6.1-2.5 3.6-.5 6.4.2 8.6 2.2 2.2 2 3.6 5 4.1 9.2l2.8 21.3L63 114l-2.4-18.8a12 12 0 0 0-2.4-6.4c-1.1-1.4-2.7-1.9-4.7-1.6a6 6 0 0 0-4.8 3.4c-1 2-1.4 4.3-1 7.2Zm48.2 25.6c-4 .5-7.5.2-10.2-1a9.9 9.9 0 0 1-5.4-6.1l8.5-2.2a5.4 5.4 0 0 0 2.4 3c1.2.6 2.6.8 4.2.5 2.4-.3 4.1-1.2 5-2.9 1-1.6 1.2-3.9.8-6.8l-.6-5.1A10 10 0 0 1 97 108c-1.7 1.2-3.9 2-6.5 2.4-4 .5-7.1-.6-9.7-3.2A21.2 21.2 0 0 1 76.1 95c-.7-5.5-.2-9.9 1.6-13.1 1.8-3.3 4.9-5.2 9-5.7 2.5-.4 4.6-.1 6.4.7a10 10 0 0 1 4.6 4h.2a34.9 34.9 0 0 1-.3-5.5l8.2-1 .9 7.7 3.2 24.8c.6 4.7-.3 8.5-2.7 11.3-2.3 2.8-6.1 4.5-11.3 5.2ZM99.2 92a15 15 0 0 0-3-7.8 5.9 5.9 0 0 0-5.5-2.3c-2.4.3-4 1.5-5 3.5-.8 2-1 4.9-.6 8.6a16 16 0 0 0 2.8 8 5.8 5.8 0 0 0 5.6 2 6 6 0 0 0 5-3.5c.9-2.1 1.2-5 .7-8.5Zm40.2 5.5c-.9 2.7-2 4.7-3.7 6.1a11.5 11.5 0 0 1-6.2 2.6c-3.5.4-6.4-.3-8.6-2.2-2.2-2-3.5-5-4-9.3L114 73.4l8.7-1.2 2.5 18.8c.4 3 1.2 5.1 2.4 6.5a5 5 0 0 0 4.7 1.6 6 6 0 0 0 4.7-3.4c1.1-2 1.4-4.4 1-7.2l-2.3-18 8.7-1.1 3.4 26a123.5 123.5 0 0 0 1.3 7.5l-8.3 1a147.5 147.5 0 0 1-1.3-6.5h-.1Zm26.1 4c-3.2.4-5.8-.2-7.9-1.7a10 10 0 0 1-3.7-7.1c-.5-3.5.3-6.2 2.3-8.3 2-2.1 5.2-3.5 9.5-4.1L173 79l-.2-1.7c-.3-2.2-.9-3.8-1.8-4.7-.9-1-2.2-1.4-4-1.2-1.5.3-2.7.8-3.3 1.6-.7.8-1 2.1-1 3.8l-9.1.8c.3-6.8 4.6-10.7 13.1-11.8 4.2-.6 7.6 0 10.2 1.8 2.6 1.8 4.1 4.6 4.6 8.4l1.6 12.3c.2 1.8.6 3.1 1.1 3.8.6.6 1.3.9 2.3.8l2-.5.5 4.7a34.6 34.6 0 0 1-5.5 1.6c-2.1.2-3.8 0-5-1-1.2-1-2-2.5-2.5-4.5h-.2c-1 2.4-2.2 4.2-4 5.6a12.5 12.5 0 0 1-6.2 2.5Zm8-17.5-4.4.6c-2 .4-3.4.8-4.2 1.2-.8.5-1.4 1.2-1.7 2a6 6 0 0 0-.3 3c.2 1.6.7 2.8 1.5 3.5a4 4 0 0 0 3.1.7c1.4-.2 2.6-.7 3.6-1.6 1-.9 1.8-2 2.3-3.4.4-1.4.6-2.8.4-4.3l-.2-1.7Zm35.3 24.8c-4 .6-7.5.2-10.2-1a9.9 9.9 0 0 1-5.4-6l8.6-2.2a5.4 5.4 0 0 0 2.4 2.9c1 .6 2.5.8 4.1.6 2.4-.3 4.1-1.3 5-3 1-1.6 1.2-3.9.8-6.8l-.6-5a10 10 0 0 1-3.5 5.1c-1.7 1.3-3.9 2-6.5 2.4-3.9.5-7.1-.6-9.7-3.2a21.2 21.2 0 0 1-4.8-12.2c-.7-5.4-.2-9.8 1.6-13 1.9-3.3 4.9-5.3 9-5.8 2.5-.3 4.7 0 6.5.7a10 10 0 0 1 4.5 4h.2a34.8 34.8 0 0 1-.3-5.5l8.2-1 .9 7.7 3.2 24.8c.6 4.8-.3 8.6-2.6 11.3-2.4 2.8-6.2 4.6-11.4 5.2Zm3.3-31.6a15 15 0 0 0-3-7.8 5.9 5.9 0 0 0-5.5-2.2c-2.3.3-4 1.4-4.9 3.4-1 2-1.1 5-.6 8.6a16 16 0 0 0 2.7 8 5.8 5.8 0 0 0 5.6 2 6 6 0 0 0 5-3.5c1-2.1 1.2-5 .7-8.5Zm25-1c.4 3.2 1.3 5.6 2.7 7.1 1.4 1.5 3.3 2 5.5 1.8 1.5-.2 2.7-.7 3.6-1.5 1-.8 1.5-1.9 1.7-3.3l8.3-.3c-1.6 6.4-6 10-13.3 11-5 .6-9-.3-12.2-3-3-2.6-5-6.8-5.7-12.5-.8-5.5 0-10 2.4-13.3 2.4-3.3 6-5.3 11.1-6 4.8-.6 8.7.5 11.7 3.4 3 2.8 4.8 7.3 5.6 13.5v.2L237 76Zm12.3-7.2c-.5-2.7-1.4-4.7-2.7-5.9a5.7 5.7 0 0 0-4.9-1.4c-2 .3-3.5 1.2-4.5 2.8-.9 1.5-1.2 3.6-.9 6.2l13-1.7Zm69.2-1c.5 4.3-.6 7.8-3.5 10.5a24.2 24.2 0 0 1-13.5 5.2c-11 1.4-18-1.7-20.9-9.5l8.7-2.6a8 8 0 0 0 4.1 4.6c1.9.8 4.4 1 7.5.6 3.2-.4 5.5-1.2 7-2.4 1.4-1.2 2-2.8 1.8-4.7a4.5 4.5 0 0 0-1.5-3c-.8-.6-2-1.2-3.4-1.5a103.8 103.8 0 0 0-8-1 127.4 127.4 0 0 1-8.3-1.3l-2.4-.8a10 10 0 0 1-4-3.3c-1.1-1.4-1.8-3.3-2.1-5.6-.6-4 .5-7.2 3.2-9.6 2.7-2.5 6.9-4.1 12.5-4.9 5.5-.7 9.6-.4 12.6 1 3 1.3 5 3.9 6.3 7.7l-8.7 2.3a6.9 6.9 0 0 0-3.3-3.8c-1.5-.8-3.6-1-6.2-.7a12 12 0 0 0-6 2.1 4.3 4.3 0 0 0-1.6 4.2c.1 1.1.5 2 1.2 2.7.7.6 1.7 1.1 2.9 1.5 1.2.4 3.6.7 7.3 1a107.7 107.7 0 0 1 9.3 1.2 19 19 0 0 1 4.6 2.1c1.2.9 2.2 2 3 3.3.7 1.3 1.2 2.9 1.4 4.7Zm29 2.2c-.8 2.7-2 4.8-3.7 6.2a11.5 11.5 0 0 1-6.1 2.5c-3.6.5-6.5-.2-8.6-2.1-2.2-2-3.6-5-4.2-9.3l-2.7-21.3L331 45l2.4 18.8c.4 3 1.2 5 2.4 6.4a5 5 0 0 0 4.7 1.7 6 6 0 0 0 4.8-3.4c1-2 1.4-4.4 1-7.2l-2.3-18 8.7-1.1 3.4 26a126.3 126.3 0 0 0 1.2 7.5l-8.3 1a147.3 147.3 0 0 1-1.3-6.6h-.1Zm47.9-16.6c.7 5.6.1 10-1.7 13.4a11.2 11.2 0 0 1-9 5.8c-4.8.6-8.4-1-10.9-4.6h-.1c.2.6.5 2.5.9 5.6l1.7 12.9-8.7 1-5.1-38.9a135.1 135.1 0 0 0-1.3-7.7l8.5-1 .3 1.2a25.5 25.5 0 0 1 .8 4.1 10 10 0 0 1 3.6-5.2c1.7-1.2 3.8-2 6.4-2.4 3.9-.5 7.1.6 9.7 3.4a22 22 0 0 1 4.9 12.4Zm-9.1 1.1c-.5-3.7-1.5-6.5-2.9-8.2a5.7 5.7 0 0 0-5.5-2.1 6 6 0 0 0-5 3.7c-.9 2.2-1.1 5-.7 8.7.5 3.6 1.5 6.4 3 8.2a6 6 0 0 0 5.6 2.2c2.4-.3 4-1.5 4.9-3.5.9-2.1 1-5.1.6-9Zm47.9-6.2c.7 5.6.1 10-1.7 13.4a11.2 11.2 0 0 1-9 5.8c-4.8.6-8.4-1-10.9-4.6h-.1c.2.6.5 2.5.9 5.6l1.7 12.9-8.7 1.1-5.1-39A135.3 135.3 0 0 0 400 36l8.5-1.2.3 1.3a26 26 0 0 1 .7 4.2h.2a10 10 0 0 1 3.5-5.2c1.7-1.3 3.8-2.1 6.4-2.4 3.9-.5 7.1.6 9.7 3.3a22 22 0 0 1 4.9 12.4Zm-9.1 1.2c-.5-3.8-1.5-6.5-2.9-8.3a5.7 5.7 0 0 0-5.5-2.1 6 6 0 0 0-5 3.7c-.9 2.2-1.1 5.1-.7 8.8.5 3.6 1.5 6.3 3 8.1a6 6 0 0 0 5.6 2.3c2.4-.3 4-1.5 4.9-3.6.9-2 1-5 .6-9Zm48-6.2c.7 5.4-.3 10-2.9 13.4a16.9 16.9 0 0 1-11.9 6.3c-5.2.6-9.5-.4-12.9-3a17.8 17.8 0 0 1-6.1-12.3c-.7-5.4.2-9.8 2.8-13.3 2.6-3.4 6.5-5.5 11.9-6.2 5.4-.7 9.8.2 13 2.8 3.3 2.6 5.4 6.7 6 12.3Zm-9.1 1.2c-.5-4-1.6-6.8-3.1-8.4a6.6 6.6 0 0 0-6-2c-2.7.4-4.5 1.6-5.6 3.7-1 2-1.4 5-.9 8.7.5 3.8 1.5 6.5 3 8.3a6.4 6.4 0 0 0 6 2.2c2.7-.3 4.6-1.5 5.7-3.6 1-2.1 1.4-5 .9-8.9Zm24.8-2.9 2.1 16.5-8.7 1.1-3.3-25.7a92.6 92.6 0 0 0-1.3-7.8l8.3-1 .3 1.1a174.4 174.4 0 0 1 1 6h.2c.5-2.5 1-4.3 1.6-5.4.5-1 1.2-1.8 2-2.4.9-.6 2-1 3.4-1.1 1-.2 2-.2 2.7 0l1 7.3h-3.8a5.9 5.9 0 0 0-4.7 3.4 14 14 0 0 0-.8 8Zm34 11.8c-2 1-4.4 1.6-7.2 2-2.6.3-4.6-.1-6.2-1.3-1.6-1.2-2.5-3.3-2.9-6L504 28.3l-4.2.5-.8-5.9 4.7-.6 1.7-8.2 5.4-.7 1 7.8 6.4-.8.8 5.9-6.4.8 2.3 17.4c.2 1.7.7 2.8 1.4 3.5.7.7 1.8 1 3 .8.7 0 1.6-.3 3-.8l.6 5.4Z" fill="#403D50"/>
    <path fill="#CD9138" d="m327.7 214.8 97.6 213.5-81.3 37.2L246.3 252z"/>
    <path d="M304.2 293.6c-3.9 1.8-7.6 1.7-11-.3-3.4-2-6.4-5.7-9-11.4-4.6-10-3.6-17.7 3-22.7l5 7.5a8 8 0 0 0-3.2 5.3c-.2 2 .4 4.5 1.7 7.3 1.3 3 2.7 5 4.3 6 1.6 1 3.2 1.2 5 .3 1.2-.5 2-1.2 2.4-2.2.4-1 .6-2.3.5-3.7l-.4-3-1-4.9a127.6 127.6 0 0 1-1.3-8.4l.2-2.5a10 10 0 0 1 1.9-4.9c1-1.4 2.6-2.6 4.7-3.6 3.7-1.7 7-1.6 10.2.3 3.2 1.8 6 5.3 8.3 10.5 2.3 5 3.2 9 2.8 12.2-.4 3.3-2.2 6-5.5 8.4l-4.8-7.6a6.9 6.9 0 0 0 2.7-4.4c.3-1.6-.1-3.7-1.2-6a12 12 0 0 0-3.8-5.2c-1.4-1-2.9-1-4.4-.3-1 .5-1.8 1.2-2.2 2-.5.8-.7 2-.6 3.2 0 1.2.4 3.6 1.2 7.2a108.4 108.4 0 0 1 1.5 9.3 19 19 0 0 1-.6 5c-.5 1.4-1.3 2.7-2.3 3.8-1 1-2.4 2-4 2.8Zm-3.3 24.7a15.3 15.3 0 0 1-.8-12.7c1.6-3.8 5-6.9 9.9-9.2 5-2.3 9.6-2.8 13.6-1.5 4 1.2 7 4.2 9.2 8.9 1.7 3.6 2.1 7 1.4 10.2-.7 3.2-2.6 5.9-5.5 8l-4-8c1.4-.9 2.4-2 3-3.4.4-1.3.3-2.8-.4-4.5-1-2-2.6-3.2-4.7-3.4-2.2-.3-5 .4-8.5 2s-6 3.3-7.2 5.2a5.7 5.7 0 0 0-.5 6 6 6 0 0 0 3.1 3c1.5.7 3.2.6 5.2 0l3.3 8.2c-2.3.7-4.5.8-6.7.3s-4.2-1.5-6-3a17.6 17.6 0 0 1-4.4-6.1Zm38.3 41.5c-5 2.2-9.5 2.6-13.7 1.2-4-1.5-7.2-4.7-9.4-9.6a16.4 16.4 0 0 1-1-13.2c1.7-4 5-7.2 9.9-9.4 5-2.3 9.4-2.7 13.5-1.3 4.1 1.4 7.3 4.6 9.5 9.5 2.3 5 2.7 9.5 1.2 13.4-1.6 3.9-4.9 7-10 9.4Zm-3.8-8.4c3.6-1.7 6-3.5 7-5.4 1.2-2 1.2-4 .2-6.4-1.1-2.4-2.8-3.8-5.1-4.2a15 15 0 0 0-8.7 1.7 15.8 15.8 0 0 0-7 5.4 6.4 6.4 0 0 0-.3 6.3c1.1 2.5 2.8 4 5.1 4.4 2.3.4 5.3-.2 8.8-1.8Zm20.1 43.8a21.8 21.8 0 0 1-13.3 2.3c-3.7-.8-6.4-3-8.2-6.8-2-4.4-1.6-8.4 1.2-11.8v-.2a46 46 0 0 1-5.1 2.6l-11.8 5.4-3.7-8 35.8-16.4a132.4 132.4 0 0 0 7-3.4l3.5 7.7-1.1.7a25.2 25.2 0 0 1-3.8 2c2.4 0 4.4.7 6 2 1.8 1.2 3.2 3 4.2 5.3 1.7 3.6 1.6 7-.3 10.2a22 22 0 0 1-10.4 8.4Zm-3.8-8.4c3.5-1.5 5.8-3.3 7-5.1a5.7 5.7 0 0 0 .5-6 6 6 0 0 0-5-3.5c-2.4-.3-5.3.3-8.6 1.8a16.2 16.2 0 0 0-7 5.2 6 6 0 0 0-.4 6.1c1 2.1 2.5 3.3 4.8 3.6 2.3.2 5.2-.4 8.7-2Zm8.1 22.2c-3 1.4-5 3-6 4.8-1 1.8-1 3.7-.1 5.7a6.6 6.6 0 0 0 2.5 3c1 .7 2.2 1 3.6.7l2.8 7.8c-6.6.4-11.4-2.7-14.4-9.4-2.2-4.6-2.4-8.8-.8-12.5 1.6-3.8 5-6.8 10.3-9.2 5-2.4 9.5-2.9 13.4-1.6 3.9 1.2 6.9 4.2 9 8.8 2 4.4 2 8.5.2 12.2-1.8 3.6-5.6 6.7-11.2 9.3l-.3.1-9-19.7Zm10.5 9.7c2.4-1.3 4-2.7 4.8-4.3.7-1.6.7-3.3 0-5-1-2-2.3-3.1-4-3.5-1.8-.4-3.9-.1-6.3.9l5.5 12Z" fill="#473D46"/>
    <path fill="#5E3985" d="M125 130.5 284 337l-72 55.5L53 186z"/>
    <path d="M120.6 214.5c-3.4 2.7-7 3.4-10.8 2.3a24.2 24.2 0 0 1-11.3-9c-6.8-9-7.6-16.5-2.3-22.9l6.6 6.2a8 8 0 0 0-1.9 5.9c.3 2 1.3 4.2 3.2 6.7 2 2.5 3.9 4.2 5.6 4.8 1.8.7 3.4.5 5-.7 1-.8 1.6-1.7 1.8-2.8.2-1 0-2.3-.3-3.7l-1.1-2.9a127.3 127.3 0 0 1-5.2-12.4l-.4-2.4a10 10 0 0 1 .7-5.2c.7-1.7 2-3.2 3.8-4.6 3.2-2.4 6.5-3.1 10-2 3.5 1 7 3.8 10.5 8.4 3.3 4.3 5.1 8 5.4 11.3.4 3.2-.8 6.3-3.4 9.3l-6.4-6.3a6.9 6.9 0 0 0 1.6-4.9c0-1.6-1-3.5-2.5-5.6a12 12 0 0 0-4.9-4.2c-1.5-.6-3-.3-4.4.8-.9.7-1.5 1.5-1.7 2.4-.2.9-.1 2 .2 3.2a43 43 0 0 0 2.8 6.8 107.8 107.8 0 0 1 3.6 8.7 19 19 0 0 1 .5 5c-.2 1.5-.6 2.9-1.4 4.2-.8 1.3-1.9 2.5-3.3 3.6Zm2.3 24.8c-3.2-4-4.4-8-3.7-12.1.8-4.1 3.3-7.8 7.6-11.2 4.4-3.4 8.7-5 13-4.6 4.1.4 7.8 2.6 11 6.7 2.4 3.1 3.6 6.3 3.6 9.6s-1.2 6.3-3.6 9l-5.7-6.8c1.2-1.2 1.9-2.6 2-4 .3-1.4-.1-2.9-1.3-4.3a5.5 5.5 0 0 0-5.3-2.3c-2.2.2-4.8 1.5-7.8 3.8-3 2.4-5 4.7-5.9 6.8-.8 2-.5 4 .9 5.8a6 6 0 0 0 3.8 2.4c1.5.2 3.2-.2 5-1.2l5 7.2c-2 1.2-4.2 1.8-6.5 1.8-2.2 0-4.4-.5-6.5-1.6-2-1.2-4-2.8-5.6-5ZM155 253l-13.1 10-5.4-6.9 20.5-15.8a94.4 94.4 0 0 0 6.1-5l5.2 6.6-1 .9a171.5 171.5 0 0 1-4.5 3.9c2.4-.7 4.2-1.1 5.4-1.2 1.2 0 2.3.1 3.2.6 1 .4 1.8 1.2 2.6 2.3.7.9 1.2 1.7 1.3 2.4l-5.8 4.5c-.6-1.3-1.2-2.4-2-3.3a5.9 5.9 0 0 0-5.1-2.4 14 14 0 0 0-7.4 3.4Zm13.2 19.3c-2.6 2-4.2 4-4.8 6-.6 2-.2 4 1.2 5.7 1 1.2 2 2 3.1 2.4 1.2.3 2.4.3 3.7-.2l4.5 7c-6.4 1.8-11.8-.2-16.2-6-3.1-4-4.3-8-3.6-12 .7-4 3.4-7.8 8-11.3 4.4-3.4 8.6-5 12.7-4.6 4 .4 7.6 2.6 10.7 6.6 3 3.9 4 7.8 3 11.8-1 4-4 7.9-8.9 11.7l-.2.1-13.2-17.2Zm12.4 7.1c2-1.8 3.3-3.5 3.7-5.3.3-1.7 0-3.4-1.2-4.9a5.7 5.7 0 0 0-4.7-2.5c-1.8 0-3.7.8-5.8 2.3l8 10.4Zm9.3 21.2c-2.6 2-4.2 4-4.8 6-.5 2-.1 3.8 1.2 5.6 1 1.2 2 2 3.1 2.4 1.2.4 2.4.3 3.7-.2l4.5 7c-6.3 1.8-11.7-.1-16.2-6-3-4-4.3-8-3.6-12 .8-4 3.4-7.7 8-11.3 4.4-3.4 8.6-4.9 12.7-4.5 4 .3 7.7 2.5 10.8 6.6 3 3.8 4 7.7 3 11.7-1 4-4 7.9-9 11.7l-.1.1-13.3-17.1Zm12.4 7c2.1-1.7 3.3-3.5 3.7-5.2.4-1.8 0-3.4-1.2-5a5.7 5.7 0 0 0-4.6-2.4c-1.8 0-3.8.7-5.9 2.3l8 10.4Zm12.6 20.6-14.3 11-5.4-6.9 20.8-16a84.8 84.8 0 0 0 5.8-4.8l5.1 6.6-1.3 1.2a113.5 113.5 0 0 1-3.7 3.3c2.8-.6 5.2-.5 7.2.2s3.8 2 5.3 4c2.2 2.8 3 5.7 2.4 8.5-.5 2.9-2.5 5.6-5.9 8.2l-17 13.1-5.3-7 15-11.5a12 12 0 0 0 4.4-5.3c.5-1.7.2-3.3-1-4.9a6 6 0 0 0-5.4-2.4c-2.2 0-4.4 1-6.7 2.7Z" fill="#fff"/>
    <path fill="#A893CA" d="M26 292 363 476.4l-43.6 79.7-337.2-184.5z"/>
    <path d="M61 353.7a14.6 14.6 0 0 1-5.4 5.7c-2.2 1.3-4.6 2-7.3 1.9-2.7-.1-5.5-1-8.4-2.5l-9.6-5.3-7.5 13.6-8-4.4 21-38.6 17.4 9.5c4.7 2.5 7.6 5.5 9 9 1.3 3.5.9 7.2-1.2 11Zm-8.3-4.3c2.3-4.1 1-7.4-3.8-10l-8.4-4.6-6.8 12.5 8.6 4.7c2.2 1.2 4.2 1.6 6 1.2 1.8-.5 3.3-1.8 4.4-3.8Zm13.3 24a12.8 12.8 0 0 0-2 7.4c.3 2 1.4 3.6 3.4 4.7 1.4.8 2.6 1 3.8 1 1.2-.2 2.3-.7 3.3-1.7l7 4.6c-5.1 4.2-10.9 4.6-17.3 1-4.5-2.4-7.2-5.6-8.1-9.5-1-4 0-8.5 2.7-13.5s6-8 9.8-9.3c4-1.3 8-.8 12.5 1.7 4.3 2.3 6.8 5.5 7.5 9.6.7 4-.4 8.7-3.4 14.2l-.2.2-19-10.4Zm14.2 1.5c1.2-2.5 1.6-4.6 1.2-6.3a5.7 5.7 0 0 0-3-4 5.7 5.7 0 0 0-5.3-.5c-1.6.8-3 2.3-4.4 4.5l11.5 6.3Zm19 15.1-7.9 14.6-7.7-4.2L96 377.7a94.3 94.3 0 0 0 3.6-7.1l7.4 4-.5 1.2a145.6 145.6 0 0 1-2.6 5.3c2-1.6 3.4-2.7 4.5-3.2 1-.6 2-.8 3.1-.8 1 0 2.1.4 3.4 1 1 .6 1.7 1.2 2.1 1.8l-3.5 6.4c-1-1-2.1-1.7-3-2.2-2-1-4-1-5.8-.1-2 1-3.8 3-5.4 6Zm36 27.4a9 9 0 0 1-7.2 4.8c-3.2.3-7-.6-11-2.9-4.2-2.2-7-4.6-8.4-7a10.8 10.8 0 0 1-1-8.4l7.3 2.7c-.4 1.6-.3 3 .4 4 .6 1.1 2 2.3 4.4 3.6 2.2 1.2 3.9 1.8 5.2 1.8 1.3 0 2.2-.6 2.9-1.8.5-1 .5-2 0-3-.5-.9-1.6-2.1-3.3-3.5a131.7 131.7 0 0 1-5.9-5.4l-1.5-1.9a10.1 10.1 0 0 1-2-4.8c0-1.6.3-3.2 1.2-5a8.8 8.8 0 0 1 7-4.7c3-.4 6.5.5 10.5 2.7 3.5 1.9 6 4.1 7.4 6.7a10 10 0 0 1 .8 8.1l-7.2-3c.4-1.3.3-2.5-.2-3.6-.5-1-1.7-2.1-3.6-3.1-1.8-1-3.3-1.5-4.5-1.6-1.1 0-2 .5-2.6 1.6-.5.9-.5 1.8-.1 2.6.4 1 1.4 2 2.9 3.2a96 96 0 0 1 5.3 4.9c1.6 1.5 2.7 2.9 3.4 4.2a9 9 0 0 1 1.1 4 9 9 0 0 1-1.3 4.8Zm37.9 12.6c-2.7 4.8-6 7.9-10.2 9.1-4.2 1.3-8.6.6-13.4-2a16.4 16.4 0 0 1-8.6-10c-1.1-4.2-.4-8.7 2.2-13.5 2.7-4.7 6-7.8 10.1-9 4.2-1.3 8.6-.7 13.3 1.9 4.9 2.6 7.8 6 9 10 1 4 .3 8.6-2.4 13.5Zm-8.1-4.4c2-3.5 2.7-6.4 2.5-8.6-.3-2.2-1.6-4-3.7-5.2-2.4-1.2-4.6-1.4-6.7-.3-2 1-4 3.2-5.9 6.6a15.8 15.8 0 0 0-2.4 8.5 6.4 6.4 0 0 0 3.5 5.3c2.4 1.3 4.6 1.4 6.7.3 2.2-1 4.1-3.2 6-6.6Zm22.5 11-8.7 15.8-7.7-4.2 12.6-23a84.1 84.1 0 0 0 3.4-6.8l7.3 4c0 .3-.3.8-.7 1.7a113 113 0 0 1-2.1 4.4v.1c2.3-1.7 4.6-2.6 6.7-2.8 2.1-.1 4.3.4 6.4 1.6 3.2 1.7 5 4 5.7 6.8.6 2.9-.1 6.2-2.1 9.9L198 462.9l-7.7-4.2 9-16.6a12 12 0 0 0 2-6.6c-.2-1.8-1.2-3.1-3-4.1a6 6 0 0 0-5.8 0c-2 .9-3.7 2.6-5 5.1Zm24.4 34.7a10.6 10.6 0 0 1-5.4-6 10 10 0 0 1 1.2-8c1.7-3 4-4.8 6.8-5.3 2.9-.5 6.3.3 10.1 2.3l6.4 3.4.9-1.5c1-2 1.5-3.6 1.3-4.9-.1-1.3-1-2.4-2.5-3.2-1.5-.8-2.7-1-3.7-.8-1 .3-2 1.2-3 2.6l-7.8-4.8c4.2-5.3 10-6 17.5-1.8 3.8 2 6.2 4.5 7.2 7.5s.6 6.1-1.3 9.5l-5.9 10.8c-.9 1.7-1.4 3-1.3 3.8 0 .8.5 1.4 1.3 2l1.8.7-2.2 4.2a34.7 34.7 0 0 1-5.4-2c-2-1-3-2.4-3.5-3.8-.4-1.5-.2-3.2.7-5.1l-.2-.1c-2.1 1.3-4.3 2-6.5 2.2-2.1 0-4.3-.5-6.5-1.7Zm16.8-9.4-4-2a15 15 0 0 0-4-1.6c-1 0-1.9.1-2.6.5a6 6 0 0 0-2 2.4c-.8 1.4-1 2.6-.8 3.6a4 4 0 0 0 2 2.5c1.3.6 2.5 1 3.9.8 1.3-.1 2.6-.6 3.8-1.4 1.2-.9 2.2-2 2.9-3.3l.8-1.5Zm37.9-14.3-22.3 40.7-7.7-4.2 22.3-40.7 7.7 4.2Zm15.6 8.6-3 5.7-7.8-4.3 3.1-5.6 7.7 4.2Zm-6 11L260 497l-7.7-4.2 16.2-29.7 7.7 4.2Zm6 41.3c-2.2-.4-4.5-1.3-7-2.6-2.3-1.3-3.7-2.9-4.2-4.7-.6-2-.1-4.2 1.2-6.7l9.6-17.5-3.8-2 2.9-5.2 4.1 2.2 6.2-5.6 4.9 2.6-3.8 7 5.6 3-2.9 5.3-5.6-3-8.4 15.3c-.8 1.5-1.1 2.7-1 3.7.2 1 .9 1.8 2 2.4l2.8 1-2.6 4.8Zm1.8 16.7c-1.8-1-3.4-2-4.6-3l3-5.5a22 22 0 0 0 2.5 1.7c1.8 1 3.4 1.2 4.8.7 1.5-.5 3.2-1.6 5.3-3.5l4.3-35.7 8.2 4.4-3 16.5a82.7 82.7 0 0 1-2.2 10.6 301.4 301.4 0 0 1 7.4-7.7l12-11.6 8.1 4.4-28.8 24.9a30.1 30.1 0 0 1-6.4 4.2c-2 .9-3.7 1.3-5.4 1.2a12 12 0 0 1-5.2-1.6Z" fill="#463C4E"/>
    <path fill="#99E5EE" d="m-102 373.8 297.7 115.3-32.9 84.7-297.5-115.2z"/>
    <path d="M-81 447.1c5.1 2 9.8.8 13.8-3.6l6.4 5.7a19.3 19.3 0 0 1-10.6 6.1c-3.8.7-8 .3-12.3-1.4a25 25 0 0 1-10.2-6.9 18.2 18.2 0 0 1-4.3-10c-.4-3.8.3-8 2-12.5 1.8-4.5 4-8 6.8-10.5s6-4 9.6-4.4c3.7-.4 7.7.2 12.1 1.9a23 23 0 0 1 10.7 7.4c2.2 3.1 3.3 6.8 3 11l-8.3-.8c.1-2.3-.5-4.5-2-6.4-1.3-2-3.3-3.4-5.8-4.4-4-1.5-7.3-1.4-10.3.2-3 1.6-5.3 4.8-7 9.4-1.3 3.1-1.9 6-1.8 8.5.1 2.5.8 4.7 2.2 6.5 1.3 1.8 3.3 3.2 6 4.2Zm57.8 11.3c-2 5.2-5 8.6-9 10.4-4 1.8-8.4 1.8-13.4-.2-5-1.9-8.2-4.8-9.9-8.8-1.7-4-1.5-8.6.5-13.7 2-5 4.9-8.5 8.8-10.3 4-1.8 8.4-1.8 13.4.2 5.2 2 8.5 5 10.2 8.8 1.6 3.8 1.4 8.4-.6 13.6Zm-8.6-3.3c1.4-3.7 1.9-6.7 1.3-8.8-.6-2.2-2-3.7-4.3-4.6-2.5-1-4.7-.8-6.7.5a15 15 0 0 0-5 7.3 15.8 15.8 0 0 0-1.3 8.7c.6 2.3 2 3.9 4.3 4.8 2.5 1 4.7.8 6.7-.5s3.6-3.8 5-7.4Zm23.7 8-6.5 16.8-8.2-3.1 9.4-24.5a84.7 84.7 0 0 0 2.5-7.2l7.9 3-.5 1.8a111.9 111.9 0 0 1-1.6 4.7h.1c2-2 3.9-3.3 5.8-3.8 2-.5 4-.3 6 .5 2.5 1 4.2 2.3 5.2 4 1 1.7 1.4 3.8 1 6.3h.1c2-2 4-3.2 6-3.7 1.8-.5 4-.3 6.3.6a9 9 0 0 1 5.8 5.8c.8 2.7.4 6-1 10l-7.8 20-8.2-3.2 6.9-17.7c1-2.7 1.5-5 1.2-6.7a4.2 4.2 0 0 0-2.8-3.4c-1.6-.6-3.2-.4-4.9.8-1.6 1-3 3-4 5.7l-6.7 17.3-8.2-3.1 6.9-17.7c1-2.8 1.5-5 1.2-6.7A4.2 4.2 0 0 0 1 456c-1.6-.6-3.3-.3-5 1-1.7 1.3-3 3.3-4.1 6Zm53 20.5-6.5 16.9-8.1-3.2 9.4-24.4a84.7 84.7 0 0 0 2.5-7.2l7.8 3-.5 1.8A112 112 0 0 1 48 475h.1c2-2 3.9-3.2 5.8-3.7 2-.5 4-.3 6 .5 2.5 1 4.2 2.2 5.2 4 1 1.7 1.3 3.8 1 6.2l.1.1c2-2 4-3.3 6-3.8 1.8-.5 4-.3 6.3.6a9 9 0 0 1 5.8 6c.8 2.6.4 6-1 9.8l-7.8 20-8.2-3.1 6.9-17.7c1-2.8 1.5-5 1.2-6.7a4.2 4.2 0 0 0-2.8-3.5c-1.6-.6-3.2-.3-4.9.8-1.6 1.2-3 3-4 5.8l-6.8 17.3-8-3.2 6.8-17.7c1-2.7 1.5-5 1.2-6.7a4.2 4.2 0 0 0-2.8-3.4c-1.6-.7-3.3-.3-5 1-1.7 1.2-3 3.2-4.1 5.9Zm74.5 30.1c-2 5.1-5 8.6-8.9 10.4-4 1.8-8.4 1.7-13.4-.2-5-2-8.3-4.9-10-8.9-1.6-4-1.4-8.5.5-13.6 2-5 5-8.5 8.9-10.3 3.9-1.9 8.4-1.8 13.4.1 5.1 2 8.5 5 10.1 8.8 1.7 3.9 1.5 8.4-.6 13.7Zm-8.5-3.3c1.4-3.8 1.9-6.7 1.3-8.9-.6-2.1-2-3.7-4.4-4.6-2.5-1-4.7-.8-6.6.5a15 15 0 0 0-5 7.3 15.8 15.8 0 0 0-1.3 8.8c.5 2.3 2 3.9 4.2 4.7 2.6 1 4.8.9 6.7-.4 2-1.4 3.7-3.8 5-7.4Zm23.7 7.9-6.6 16.9-8.2-3.2 9.5-24.4a83.6 83.6 0 0 0 2.5-7.2l7.8 3-.5 1.8a107.6 107.6 0 0 1-1.5 4.6c2.1-1.9 4.2-3.1 6.3-3.5 2-.5 4.3-.3 6.6.6 3.3 1.3 5.5 3.4 6.5 6.1 1 2.8.7 6.1-.8 10l-7.8 20.1-8.1-3.2 6.8-17.6c1-2.8 1.4-5 1-6.8-.4-1.8-1.5-3-3.4-3.7a6 6 0 0 0-5.8.7 11.8 11.8 0 0 0-4.3 5.8Z" fill="#fff"/>
    <path fill="#E76396" d="M779.6 201.2 1025.9 521l-72.6 55.9L707 257z"/>
    <path d="M751.8 277.3a24 24 0 0 1-4.7-9.3c-.6-3-.4-5.9.8-8.6 1.1-2.7 3.2-5.2 6-7.4l21.9-16.8 5.6 7.3-21.2 16.4c-2.8 2-4.4 4.4-4.8 6.8-.4 2.4.3 4.9 2.3 7.4 2 2.6 4.3 4 6.9 4.3 2.5.2 5.2-.7 8-2.9l21-16.1 5.6 7.3-21.4 16.5c-3 2.3-6 3.6-9 4-3 .3-6-.2-8.8-1.7a25 25 0 0 1-8.2-7.2Zm37.4 17.8-14.4 11-5.3-6.9 20.8-16a84 84 0 0 0 5.8-4.8l5.1 6.6-1.3 1.2a117.2 117.2 0 0 1-3.7 3.2v.1c2.8-.6 5.2-.6 7.2.1s3.8 2 5.3 4c2.2 2.9 3 5.7 2.4 8.6-.6 2.9-2.5 5.6-5.9 8.2l-17 13-5.3-6.8 15-11.6a12 12 0 0 0 4.4-5.3c.5-1.7.2-3.3-1-5a6 6 0 0 0-5.4-2.3c-2.2 0-4.4 1-6.7 2.7Zm46.3 13.8-5.2 4-5.3-7 5.1-4 5.4 7Zm-10 7.6-26.8 20.7-5.3-7 26.8-20.6 5.3 7Zm-9 16c4.4-3.4 8.5-5 12.3-5.2 3.9 0 7 1.6 9.6 4.9 1.5 2 2.3 3.9 2.6 5.8.2 2-.2 4-1.2 6a38.2 38.2 0 0 1 4.6-3l5.1 6.7a159.7 159.7 0 0 0-6.2 4.6l-31.2 24-5.3-6.9 11.1-8.6 4-2.8a10 10 0 0 1-6.4-.5c-1.9-.9-3.7-2.3-5.4-4.5-2.4-3.1-3-6.5-1.9-10 1.1-3.6 3.9-7 8.3-10.4Zm14.4 18.4c2.8-2.2 4.7-4.3 5.5-6.5.8-2.2.6-4.2-.9-6a5.8 5.8 0 0 0-5.5-2.5 17 17 0 0 0-8 4c-3 2.2-4.9 4.5-5.7 6.5-.8 2.1-.5 4.1 1 6a6 6 0 0 0 5.5 2.3c2.4-.2 5.1-1.5 8-3.8Zm15.6 37.3c-2.7.7-5 .6-7.1 0-2-.8-3.8-2.1-5.3-4-2.2-3-3-5.8-2.4-8.6.5-2.9 2.5-5.6 5.9-8.2l17-13.1 5.3 7-15 11.5a12.1 12.1 0 0 0-4.4 5.3 5 5 0 0 0 1 4.9 6 6 0 0 0 5.3 2.4c2.3 0 4.5-1 6.8-2.7l14.3-11 5.4 6.9-20.8 16a126 126 0 0 0-5.8 4.8l-5.2-6.6a143.3 143.3 0 0 1 5.1-4.4v-.2Zm22 14.6c-2.6 2-4.3 4-4.8 6-.6 2-.2 3.8 1.2 5.6.9 1.2 2 2 3 2.4 1.2.4 2.4.3 3.7-.2l4.5 7c-6.3 1.8-11.7-.1-16.2-6-3-4-4.3-8-3.6-12 .8-4 3.4-7.7 8-11.3 4.4-3.4 8.7-4.9 12.7-4.5 4.1.3 7.7 2.5 10.8 6.6 3 3.8 4 7.7 3 11.7-1 4-4 7.9-9 11.7l-.1.1-13.2-17.1Zm12.4 7c2-1.7 3.2-3.5 3.6-5.2.4-1.8 0-3.4-1.2-5a5.7 5.7 0 0 0-4.6-2.4c-1.8 0-3.8.7-5.8 2.3l8 10.4Zm12.5 20.6-14.3 11-5.4-6.9 20.8-16a84 84 0 0 0 5.9-4.8l5 6.6a110 110 0 0 1-5 4.4v.2c2.8-.7 5.2-.6 7.3 0 2 .8 3.7 2.1 5.2 4 2.2 3 3 5.8 2.5 8.6-.6 2.9-2.6 5.6-6 8.2l-17 13.1-5.3-7 15-11.5a12 12 0 0 0 4.4-5.3c.6-1.7.2-3.3-1-4.9a6 6 0 0 0-5.3-2.4c-2.3 0-4.5 1-6.8 2.7Zm20.7 31.6c-2.6 2-4.2 4-4.8 6-.6 2-.2 3.9 1.2 5.6 1 1.3 2 2 3 2.4 1.2.4 2.4.3 3.7-.2l4.5 7c-6.3 1.9-11.7-.1-16.2-6-3-4-4.3-8-3.5-12 .7-4 3.3-7.7 8-11.2 4.3-3.5 8.6-5 12.6-4.6 4.1.4 7.7 2.6 10.8 6.6 3 3.8 4 7.7 3 11.7-1 4-4 8-8.9 11.7l-.2.2-13.2-17.2Zm12.4 7c2-1.7 3.3-3.5 3.6-5.2.4-1.8 0-3.4-1.2-5a5.7 5.7 0 0 0-4.6-2.4c-1.8 0-3.7.8-5.8 2.3l8 10.4Zm18 41.3a9 9 0 0 1-8.5 1.5c-3.1-1-6.1-3.3-9-7-2.8-3.8-4.4-7-4.8-9.9-.3-2.8.5-5.5 2.5-8l5.6 5.4a5.5 5.5 0 0 0-1.3 3.8c.1 1.3 1 3 2.6 5 1.5 2 2.8 3.3 4 3.8 1.2.5 2.3.3 3.4-.5a3 3 0 0 0 1.2-2.6c0-1.1-.6-2.7-1.5-4.7a134 134 0 0 1-3.3-7.3l-.7-2.3c-.4-1.9-.3-3.6.2-5.1a8.7 8.7 0 0 1 3-4.1c2.6-2 5.4-2.5 8.3-1.7 3 .9 5.9 3.1 8.6 6.8 2.5 3.1 3.8 6.2 4 9a10 10 0 0 1-2.5 7.8l-5.4-5.6c1-1 1.4-2.2 1.3-3.4 0-1.1-.7-2.6-2-4.3a10.5 10.5 0 0 0-3.5-3.2c-1-.5-2-.4-3 .4-.8.6-1.2 1.4-1.2 2.4s.5 2.3 1.4 4l3 6.6c.7 2 1.2 3.7 1.4 5.2a9 9 0 0 1-.7 4.2 9 9 0 0 1-3 3.8Zm21.8 28.2a9 9 0 0 1-8.6 1.5c-3-1-6-3.3-9-7-2.8-3.7-4.4-7-4.8-9.9-.3-2.8.5-5.5 2.5-8l5.6 5.4a5.5 5.5 0 0 0-1.3 3.8c.1 1.3 1 3 2.6 5.1 1.5 2 2.9 3.2 4 3.7 1.2.5 2.4.3 3.4-.5a3 3 0 0 0 1.2-2.6c0-1.1-.5-2.7-1.5-4.6a134 134 0 0 1-3.3-7.4l-.6-2.3c-.4-1.9-.4-3.6.1-5.1a8.6 8.6 0 0 1 3.1-4.1c2.6-2 5.3-2.5 8.3-1.6 3 .8 5.8 3 8.6 6.7 2.4 3.2 3.8 6.2 4 9a10 10 0 0 1-2.5 7.9l-5.4-5.7c1-1 1.3-2.1 1.3-3.3 0-1.2-.8-2.7-2-4.3a10.5 10.5 0 0 0-3.6-3.3c-1-.5-2-.3-3 .4-.8.6-1.2 1.4-1.1 2.4 0 1 .5 2.3 1.3 4a96 96 0 0 1 3 6.7c.8 2 1.3 3.7 1.4 5.1a9 9 0 0 1-.6 4.2 9 9 0 0 1-3.1 3.8Z" fill="#463D4A"/>
    <path fill="#E76396" d="M-116 316 16.2 166l68.2 60L-48 376z"/>
    <path d="M-29.1 300.2c3.2 2.9 4.6 6.3 4.2 10.2-.4 3.9-2.6 8.1-6.7 12.8-7.4 8.3-14.7 10.5-22 6.6l4.8-7.7a8 8 0 0 0 6.2.8c2-.7 4-2.1 6-4.5 2.1-2.4 3.3-4.5 3.7-6.4.3-1.8-.3-3.4-1.8-4.7-.9-.8-2-1.2-3-1.2-1.1 0-2.3.3-3.6 1a103.2 103.2 0 0 0-6.6 4.5 127.4 127.4 0 0 1-7.2 4.6l-2.3.8a10 10 0 0 1-5.2.3c-1.8-.4-3.5-1.3-5.3-2.9-3-2.6-4.3-5.7-3.9-9.4.4-3.6 2.5-7.6 6.3-11.9 3.6-4 7-6.6 10-7.5 3.1-1 6.4-.4 9.9 1.6l-5 7.5a6.9 6.9 0 0 0-5-.7c-1.7.4-3.4 1.6-5.2 3.6a12 12 0 0 0-3.1 5.6c-.3 1.6.2 3 1.5 4.1.9.8 1.8 1.2 2.7 1.2 1 0 2-.2 3.2-.7a43 43 0 0 0 6.1-4 107.6 107.6 0 0 1 7.9-5.3 19 19 0 0 1 4.8-1.4c1.5-.2 3 0 4.4.5 1.4.5 2.8 1.4 4.2 2.6Zm7.5-12.3c2.4 2.2 4.7 3.3 6.8 3.6 2 .1 3.8-.6 5.3-2.3 1-1.2 1.6-2.3 1.7-3.5.2-1.2-.1-2.4-.8-3.6l6-5.7c3 5.8 2 11.5-2.8 17-3.3 3.8-7 5.8-11.1 5.8-4 0-8.3-1.8-12.6-5.6-4.2-3.7-6.5-7.6-7-11.7-.3-4 1.1-8 4.5-11.8 3.2-3.6 6.9-5.3 11-5.1 4 .2 8.5 2.3 13.1 6.4l.2.2-14.3 16.3Zm4.6-13.6a10.3 10.3 0 0 0-6-2.5c-1.7 0-3.3.6-4.5 2a5.7 5.7 0 0 0-1.6 5c.4 1.9 1.5 3.6 3.4 5.4l8.7-9.9Zm19-15.2 12.4 11-5.9 6.5-19.4-17a93 93 0 0 0-6-5.1l5.5-6.3 1 .7a169.7 169.7 0 0 1 4.6 3.8l.1-.1c-1.2-2.2-2-3.9-2.2-5a6.3 6.3 0 0 1 0-3.3c.2-1 .8-2 1.7-3 .7-.9 1.4-1.4 2.1-1.7l5.5 4.8-2.8 2.5a5.9 5.9 0 0 0-1.4 5.6 14 14 0 0 0 4.7 6.6Zm-6-38.4L1 225l-5.8 6.6-4.9-4.3 5.8-6.6Zm9.5 8.3 25.3 22.4-5.8 6.5-25.3-22.3 5.8-6.6Zm17.2-10.6 21 18.4-5.9 6.6L17 225l-3.2 3.7-4.5-4 3.3-3.7-2.7-2.3c-2.3-2-3.4-4.1-3.5-6.3 0-2.2 1-4.6 3.3-7a34 34 0 0 1 4-3.9l4.3 3.8c-.7.5-1.4 1-2 1.7-1 1.1-1.4 2.1-1.4 3 0 .8.6 1.7 1.8 2.7l2 1.8 4.4-5 4.4 4-4.4 5Z" fill="#fff"/>
    <path fill="#DE373E" d="m375 240 191.3-13.2 6.3 91-191.3 13.3z"/>
    <path d="m420.7 288.6 1 16-9 .7-3-43.6 32-2.3.6 7.1-23 1.6.9 13.5 22.3-1.6.5 7-22.3 1.6Zm38.5-3 1.2 16.4-8.7.6-1.8-25.7a93.5 93.5 0 0 0-.8-7.8l8.3-.6.2 1.3a175.7 175.7 0 0 1 .7 5.8h.1a24 24 0 0 1 2-5.1c.5-1 1.3-1.8 2.1-2.3 1-.5 2-.8 3.4-1 1.1 0 2 .1 2.7.4l.5 7.2c-1.4-.2-2.6-.2-3.7-.2a5.9 5.9 0 0 0-5 3 14 14 0 0 0-1.2 8Zm23.4-.3c.2 3.2 1 5.7 2.3 7.3a6 6 0 0 0 5.3 2c1.6 0 2.8-.5 3.7-1.2 1-.7 1.6-1.8 1.9-3.1l8.2.1c-2 6.2-6.5 9.6-13.8 10.1-5 .4-9-.9-12-3.6-2.8-2.8-4.5-7.1-4.9-12.8-.3-5.5.7-9.9 3.3-13 2.5-3.2 6.3-5 11.3-5.3 4.8-.3 8.6 1 11.4 4 2.7 3 4.3 7.6 4.7 13.8v.2l-21.4 1.5Zm12.7-6.4c-.4-2.7-1.2-4.6-2.4-5.9a5.7 5.7 0 0 0-4.7-1.7c-2 .1-3.6 1-4.6 2.4a10 10 0 0 0-1.3 6.1l13-.9Zm22.6 4c.3 3.2 1 5.6 2.4 7.2a6 6 0 0 0 5.3 2.1c1.5 0 2.7-.5 3.7-1.2 1-.8 1.5-1.8 1.8-3.2l8.3.2c-2 6.2-6.6 9.6-13.8 10-5 .4-9-.8-12-3.6-2.9-2.8-4.5-7-4.9-12.8-.4-5.5.7-9.8 3.2-13 2.6-3.1 6.4-4.9 11.4-5.2 4.8-.4 8.6 1 11.3 4 2.8 3 4.4 7.6 4.8 13.7v.3l-21.5 1.4Zm12.7-6.4c-.3-2.7-1.1-4.7-2.3-6a5.7 5.7 0 0 0-4.8-1.7c-2 .2-3.5 1-4.5 2.5a10 10 0 0 0-1.4 6l13-.8Z" fill="#fff"/>
    <path fill="#CD9138" d="m929.6 250.2 138.7 121.6-60 68.3-138.6-121.6z"/>
    <path d="m923.5 312.3-11 12.6-7-6.1 29.1-33.1 16.6 14.5c4 3.5 6.2 7 6.9 10.6.6 3.5-.4 7-3.2 10.1a12.3 12.3 0 0 1-15.5 3l-3.3 21.7-7.8-6.9 3.4-19.3-8.2-7.1Zm24.1 2.8c1.4-1.6 2-3.3 1.6-5-.3-1.6-1.5-3.4-3.5-5.2l-8.9-7.8-8.5 9.8 9 8c2 1.7 3.8 2.5 5.6 2.5 1.8 0 3.4-.8 4.7-2.3Zm-1.6 40a10.6 10.6 0 0 1-4-7.1c-.2-2.6.7-5 2.9-7.5 2.3-2.6 4.9-3.9 7.8-3.7 2.9.1 6 1.6 9.3 4.4l5.6 4.7 1.1-1.3c1.5-1.7 2.3-3.2 2.4-4.5.1-1.3-.5-2.5-1.8-3.7-1.2-1-2.4-1.6-3.4-1.5-1 0-2.2.7-3.5 1.8l-6.6-6.3c5.3-4.3 11.1-3.6 17.5 2 3.2 2.8 5 5.8 5.4 8.9.3 3-.8 6.1-3.3 9l-8.1 9.3a8.7 8.7 0 0 0-2.2 3.3c-.1.9.2 1.6 1 2.3l1.5 1.1-3.1 3.6a34.9 34.9 0 0 1-4.8-3.1c-1.6-1.5-2.5-3-2.6-4.5 0-1.5.5-3.1 1.8-4.8l-.2-.1c-2.4.8-4.6 1-6.8.7-2-.4-4-1.4-6-3Zm18.4-5.6-3.4-2.9c-1.7-1.3-2.9-2-3.7-2.4-1-.2-1.8-.3-2.6 0a6 6 0 0 0-2.5 1.8c-1 1.2-1.6 2.4-1.6 3.5.1 1 .6 2 1.5 2.8 1 .9 2.2 1.4 3.6 1.6 1.3.2 2.7 0 4-.5a9.6 9.6 0 0 0 3.5-2.6l1.2-1.3Zm21.4 15.6-12 13.6-6.5-5.8 17.3-19.7a85.1 85.1 0 0 0 4.8-5.9l6.3 5.5-1 1.5a117.2 117.2 0 0 1-3.1 3.9 13 13 0 0 1 6.8-1.5c2 .2 3.8 1 5.5 2.5 2 1.7 3.1 3.5 3.5 5.5.4 2 0 4-1.3 6.2l.2.2c2.6-1.3 4.8-1.8 6.8-1.6 2 .2 3.9 1.1 5.7 2.8a9 9 0 0 1 3.5 7.5c-.2 2.8-1.7 5.8-4.4 9l-14.2 16-6.5-5.7 12.5-14.3c2-2.2 3-4.2 3.4-5.8.4-1.7-.1-3.1-1.4-4.2-1.3-1.2-3-1.5-4.9-1-2 .5-3.8 1.8-5.8 4l-12.2 14-6.6-5.8 12.6-14.2c2-2.3 3-4.2 3.4-6 .3-1.6-.1-3-1.4-4.1-1.4-1.2-3-1.5-5-.8-2.1.6-4 2-6 4.2Z" fill="#fff"/>
    <path fill="#76AC3D" d="m815.2 139.7 306.6 45.6-13.4 90-306.6-45.7z"/>
    <path d="m842.2 195.6-2.3 16-9.2-1.4 6.5-43.5 32.1 4.7-1 7-23-3.3-2 13.4 22.3 3.4-1 7-22.4-3.3ZM879 202c-.4 3.3-.2 5.8.7 7.7 1 1.8 2.6 2.9 4.8 3.2 1.6.2 2.9 0 4-.4 1-.6 1.8-1.5 2.4-2.7l8.1 2c-3.2 5.6-8.5 8-15.8 6.9-5-.8-8.6-2.9-10.9-6.2-2.2-3.4-3-8-2.1-13.7.8-5.5 2.8-9.5 6-12 3.2-2.7 7.3-3.6 12.3-2.8 4.8.7 8.3 2.8 10.3 6.4 2 3.6 2.6 8.4 1.7 14.6v.2L879 202Zm13.9-3.5c.2-2.7-.1-4.8-1-6.3a5.7 5.7 0 0 0-4.3-2.8c-2-.3-3.7.2-5 1.5a10.1 10.1 0 0 0-2.7 5.7l13 2Zm19.6 24.5c-3.2-.5-5.6-1.7-7.2-3.7a10 10 0 0 1-1.6-7.9c.5-3.5 2-6 4.6-7.4 2.5-1.4 5.9-1.9 10.2-1.3l7.2 1 .3-1.8c.3-2.2.2-3.8-.4-5-.6-1.2-1.8-2-3.5-2.2-1.7-.2-2.9 0-3.8.6-.8.6-1.5 1.8-1.9 3.4l-9-1.8c2.1-6.4 7.4-9 15.9-7.7 4.2.6 7.3 2.1 9.3 4.5 2 2.5 2.6 5.6 2 9.4l-1.7 12.2a8.7 8.7 0 0 0 0 4c.3.7 1 1.2 2 1.4h2l-.8 4.7a34.2 34.2 0 0 1-5.7 0c-2.1-.3-3.7-1-4.6-2.3a7.8 7.8 0 0 1-1.1-5h-.2c-1.6 2-3.3 3.4-5.3 4.2-2 .8-4.2 1-6.7.7Zm12.5-14.6-4.5-.6c-2-.2-3.5-.2-4.3 0-1 .3-1.7.7-2.2 1.4a6 6 0 0 0-1.1 2.9c-.3 1.6 0 2.8.5 3.7a4 4 0 0 0 2.8 1.6c1.3.2 2.7 0 3.9-.6a7.7 7.7 0 0 0 3-2.7 9.6 9.6 0 0 0 1.7-4l.2-1.7Zm31 20c-2.1.3-4.6.3-7.4 0-2.6-.5-4.4-1.4-5.6-3-1.2-1.6-1.6-3.9-1.1-6.7l2.9-19.7-4.2-.6.8-5.9 4.7.7 3.9-7.5 5.4.9-1.1 7.8 6.3 1-.9 5.8-6.3-1-2.6 17.5c-.2 1.6-.1 2.8.4 3.7.5.9 1.4 1.4 2.7 1.6h3l-.8 5.4Zm27.4-2.3c-1.5 2.4-3.2 4-5.2 5-2 .8-4.1 1-6.6.7-3.5-.5-6.1-2-7.7-4.5-1.5-2.4-2-5.8-1.4-10l3.2-21.2 8.7 1.3-2.8 18.8c-.5 2.9-.3 5.2.5 6.8a5 5 0 0 0 4 2.8 6 6 0 0 0 5.6-1.9c1.5-1.6 2.5-3.8 3-6.7l2.6-17.9 8.7 1.3-3.9 26a126.5 126.5 0 0 0-.8 7.5l-8.3-1.2a143.7 143.7 0 0 1 .6-6.7h-.2Zm27.6-5.8-2.4 16.4-8.7-1.3 3.8-25.6a97.4 97.4 0 0 0 1-7.9l8.2 1.2v1.3a107 107 0 0 1-.7 6h.2c1.1-2.2 2.1-3.8 3-4.7.8-.9 1.6-1.5 2.6-1.8 1-.3 2.2-.4 3.5-.1 1.1.1 2 .4 2.7.8l-1.1 7.3c-1.4-.5-2.6-.9-3.7-1-2.1-.4-4 .3-5.4 1.8a14 14 0 0 0-3 7.6Zm23 4.8c-.5 3.2-.3 5.8.7 7.6 1 1.8 2.5 3 4.8 3.3 1.5.2 2.8 0 3.8-.5 1.1-.5 2-1.4 2.6-2.7l8 2c-3.2 5.7-8.5 8-15.8 7-5-.8-8.6-2.9-10.9-6.3-2.2-3.4-3-8-2-13.6.7-5.5 2.7-9.6 6-12.1 3.1-2.6 7.2-3.5 12.2-2.8 4.8.8 8.3 2.9 10.3 6.5 2 3.5 2.7 8.4 1.8 14.5v.3L1034 225Zm13.8-3.5c.3-2.8 0-4.9-1-6.4a5.7 5.7 0 0 0-4.3-2.7c-2-.3-3.7.2-5 1.4a10.1 10.1 0 0 0-2.7 5.7l13 2Zm41.6 17.1a9 9 0 0 1-5 7c-3 1.5-6.8 1.9-11.5 1.2-4.6-.7-8-2-10.2-3.8a10.8 10.8 0 0 1-3.9-7.5h7.8c.2 1.7.8 2.9 1.8 3.7 1 .8 2.8 1.4 5.4 1.8 2.4.4 4.2.3 5.4-.1a3.1 3.1 0 0 0 2.1-2.7c.2-1-.1-2-1-2.7-.7-.8-2.2-1.5-4.3-2.3a129.7 129.7 0 0 1-7.4-3 24 24 0 0 1-2-1.2 10.1 10.1 0 0 1-3.5-3.8 8.6 8.6 0 0 1-.6-5c.5-3.3 2-5.6 4.8-7 2.7-1.4 6.3-1.8 10.9-1.1 4 .6 7 1.8 9.2 3.7 2.2 2 3.4 4.4 3.5 7.4l-7.8-.3c0-1.4-.5-2.5-1.3-3.3-1-.9-2.4-1.4-4.5-1.7-2-.3-3.6-.3-4.8 0-1 .4-1.7 1.2-1.9 2.5-.1 1 .1 1.8.8 2.5.8.6 2 1.3 3.8 2 2.6.9 4.8 1.8 6.8 2.7 2 .8 3.5 1.7 4.6 2.7a9 9 0 0 1 2.4 3.5 9 9 0 0 1 .4 4.8Z" fill="#fff"/>
    <path fill="#F9E415" d="m726.3-23.3 384.3 108.7-24.6 86.8L701.7 63.6z"/>
    <path d="m761.5 18-10 35.6-9-2.5 10.1-35.5-13.7-3.9 2-6.8L777 15l-2 6.9-13.6-4Zm15.2 27c-.9 3-1 5.6-.3 7.6s2.2 3.2 4.3 3.8c1.5.4 2.8.5 4 0a5.4 5.4 0 0 0 2.8-2.3l7.8 3c-4 5.2-9.5 6.9-16.6 4.9-4.9-1.4-8.2-4-10-7.6-1.8-3.6-2-8.2-.4-13.8 1.5-5.3 4-9 7.5-11.2 3.5-2.2 7.7-2.5 12.6-1.1 4.7 1.3 7.8 3.8 9.4 7.6 1.6 3.8 1.5 8.7-.2 14.7v.2l-21-5.9Zm14.2-1.8c.6-2.7.5-4.8-.3-6.4-.7-1.6-2-2.7-3.8-3.3-2-.5-3.8-.3-5.2.8-1.5 1.1-2.6 2.9-3.4 5.3l12.7 3.6Zm25 15.9-11 9.6-9-2.5 16.7-13.5-6.9-18.9 9.2 2.6 3.9 12.6 10-8.7 9 2.6-15.7 12.4 7.3 20.3-9.2-2.6-4.3-13.9Zm33.8 21.8c-2.2 0-4.7-.3-7.4-1-2.5-.7-4.2-2-5.2-3.7-1-1.7-1-4-.2-6.7l5.4-19.2-4.1-1.2 1.6-5.7 4.5 1.3 4.8-6.9 5.3 1.5-2.1 7.7 6.1 1.7-1.6 5.7-6.1-1.7-4.8 16.9c-.5 1.6-.5 2.8-.1 3.7.4 1 1.2 1.6 2.5 2l3 .3-1.6 5.3Zm55.5 8.7-2 6.9-31.6-9 12-42.3 8.9 2.5-10 35.5 22.7 6.4Zm15.4-4c-1 3.2-1 5.7-.3 7.7.7 1.9 2.1 3.2 4.3 3.8 1.5.4 2.8.4 4 0a5.4 5.4 0 0 0 2.8-2.3l7.7 3c-4 5.2-9.5 6.8-16.5 4.8-4.9-1.4-8.3-3.9-10-7.5-1.9-3.6-2-8.2-.4-13.8 1.5-5.4 4-9.1 7.5-11.3 3.5-2 7.7-2.5 12.5-1 4.7 1.2 7.8 3.8 9.4 7.6 1.6 3.8 1.6 8.7-.1 14.6v.3l-21-6Zm14.1-1.7c.6-2.7.5-4.8-.2-6.5-.7-1.6-2-2.7-3.9-3.2-2-.6-3.7-.3-5.2.8-1.4 1-2.5 2.8-3.3 5.3l12.6 3.6Zm22.4 9-5 17.4-8.4-2.4 7.2-25.2a85.3 85.3 0 0 0 1.8-7.4l8 2.3-.3 1.8a116.5 116.5 0 0 1-1.1 4.8h.1c1.9-2.1 3.8-3.5 5.9-4.2 2-.6 4.2-.6 6.6 0 3.4 1 5.8 2.9 7 5.5 1.3 2.7 1.3 6 .2 10.1l-5.9 20.7-8.4-2.4 5.2-18.2c.8-3 .9-5.2.3-6.9-.5-1.7-1.8-2.8-3.7-3.4a6 6 0 0 0-5.7 1.3c-1.8 1.4-3 3.4-3.8 6.2Zm34.2 42.6c-4-1.1-7-2.8-9-5a9.9 9.9 0 0 1-2.6-7.7l8.8 1.4c-.1 1.4.3 2.6 1 3.6.8 1 2 1.7 3.6 2.2 2.4.7 4.3.4 5.8-.7 1.5-1.2 2.6-3.1 3.4-6l1.5-5a10.1 10.1 0 0 1-5.4 3.5c-2 .4-4.3.3-6.8-.4-3.8-1-6.4-3.3-7.7-6.8-1.2-3.4-1.1-7.8.4-13 1.5-5.4 3.7-9.2 6.7-11.4 3-2.3 6.5-2.9 10.5-1.7 2.4.6 4.3 1.7 5.6 3.1a10 10 0 0 1 2.6 5.5h.2a26 26 0 0 1 1.9-5l8 2.2c-.8 2.1-1.5 4.6-2.3 7.5l-6.8 24c-1.3 4.6-3.6 7.8-7 9.4-3.2 1.6-7.4 1.7-12.4.3Zm15.5-27.8c1-3.3 1-6.1.4-8.3-.7-2.2-2-3.7-4.3-4.3a5.8 5.8 0 0 0-5.8 1.3c-1.7 1.5-3 4-4 7.6a16 16 0 0 0-.6 8.5c.6 2 2 3.4 4.3 4a6 6 0 0 0 6-1.3c1.7-1.5 3-4 4-7.5Zm27.8 25.4c-2.2.1-4.7-.2-7.4-1-2.5-.7-4.2-1.9-5.2-3.6-1-1.8-1-4-.3-6.7l5.5-19.2-4.2-1.2 1.7-5.7 4.5 1.3 4.8-7 5.3 1.6-2.1 7.6 6.1 1.8-1.6 5.7-6.2-1.8-4.7 17c-.5 1.5-.5 2.8-.1 3.7.4 1 1.2 1.6 2.5 2l2.9.3-1.5 5.2Zm20.6-21.8a13 13 0 0 1 5.8-4.2c2-.6 4.3-.6 6.7.1 3.4 1 5.8 2.8 7 5.4 1.3 2.7 1.3 6 .2 10.1l-5.9 20.7-8.4-2.4 5.2-18.2c.8-3 .9-5.2.3-6.9-.5-1.7-1.8-2.8-3.7-3.3a6 6 0 0 0-5.7 1.2c-1.8 1.4-3 3.5-3.8 6.2l-5 17.4-8.4-2.4 12.6-44.6 8.5 2.4-3.4 12.2-.7 2.1-.7 2.1-.7 2.1h.1Z" fill="#473E4C"/>
    <path fill="#DE373E" d="M653 532.5 863.8 461l29 85.5L682 618z"/>
    <path d="M701.6 569.3 707 585l-8.7 3-14.2-41.7 20.8-7.1c5-1.7 9.2-2 12.7-.7 3.4 1.2 5.8 3.8 7.1 7.8 1 3 1 5.8.1 8.5-1 2.6-2.7 4.8-5.3 6.4l17.2 13.7-9.8 3.3-15-12.5-10.3 3.5Zm14.5-19.5c-.7-2-1.9-3.3-3.5-3.9-1.6-.5-3.7-.4-6.3.5l-11.2 3.8 4.2 12.3 11.4-3.9c2.5-.8 4.2-2 5-3.5 1-1.6 1-3.3.4-5.3Zm33.7 21.4c-3 1-5.8 1-8 0a10 10 0 0 1-5-6.3c-1.2-3.3-1-6.2.6-8.6 1.6-2.5 4.4-4.4 8.5-6l6.8-2.4-.5-1.6c-.7-2-1.6-3.5-2.7-4.3-1-.7-2.4-.9-4.1-.3-1.5.5-2.6 1.3-3 2.2-.5 1-.6 2.3-.2 4l-8.8 2.5c-1-6.7 2.4-11.5 10.5-14.2 4-1.4 7.5-1.4 10.4-.2 2.9 1.3 5 3.7 6.2 7.4l4 11.7c.5 1.7 1.1 3 1.8 3.5.6.5 1.4.6 2.4.3l1.7-.8 1.6 4.5a34.4 34.4 0 0 1-5.1 2.6c-2.1.7-3.8.7-5.2 0-1.3-.7-2.4-2-3.3-4l-.2.1c-.4 2.5-1.3 4.6-2.7 6.3a12.5 12.5 0 0 1-5.7 3.6Zm4.5-18.7L750 554c-1.9.8-3.2 1.5-3.9 2-.7.7-1 1.4-1.3 2.3a6 6 0 0 0 .4 3c.5 1.5 1.2 2.6 2.1 3 1 .6 2 .6 3.2.2a6.8 6.8 0 0 0 3.2-2.3c.9-1 1.4-2.3 1.6-3.7.2-1.5 0-3-.5-4.4l-.5-1.6Zm24.7-9.3 5.3 15.7-8.3 2.8-8.3-24.5a92 92 0 0 0-2.8-7.4l7.9-2.7.5 1.1a165 165 0 0 1 2.2 5.6h.1c0-2.5.2-4.4.6-5.6.3-1.1.8-2 1.5-2.8.7-.7 1.8-1.3 3-1.7 1.1-.4 2-.5 2.8-.5l2.3 7c-1.4.1-2.6.4-3.7.8-2 .7-3.4 2-4 4.1-.5 2-.3 4.8.9 8Zm14-36.3 2 6.2-8.2 2.8-2.1-6.1 8.3-2.9Zm4 12 10.9 32-8.3 2.8-10.9-32 8.3-2.9Zm34.5 23.4c-1.8 1.4-4 2.5-6.7 3.4-2.4.8-4.5.8-6.3 0-1.8-1-3.1-2.8-4-5.5l-6.4-18.8-4.1 1.3-1.9-5.6 4.5-1.5v-8.4l5.2-1.8 2.6 7.6 6-2.1 2 5.6-6.1 2 5.6 16.7c.6 1.6 1.2 2.6 2 3.2 1 .5 2 .6 3.2.1.6-.2 1.5-.6 2.7-1.3l1.7 5.1Zm13.5 10c-2 .7-3.8 1.1-5.3 1.4l-2-6 3-.7c1.9-.6 3.1-1.7 3.7-3 .6-1.4 1-3.5 1-6.2L822 510.4l8.8-3 10.1 13.3a82.8 82.8 0 0 1 6.4 8.8 308.8 308.8 0 0 1-.7-10.6l-.4-16.8 8.7-3-1.2 38.1a30 30 0 0 1-1.2 7.5c-.7 2-1.6 3.7-2.8 4.8a12 12 0 0 1-4.7 2.8Z" fill="#463D4A"/>
  </g>
  <defs>
    <clipPath id="a">
      <path fill="#fff" d="M0 0h944v531H0z"/>
    </clipPath>
  </defs>
</svg>