<svg width="1920" height="1080" viewBox="0 0 1920 1080" fill="none" xmlns="http://www.w3.org/2000/svg">
<g clip-path="url(#clip0_4029_6704)">
<rect x="1459" y="813" width="218" height="50" rx="25" fill="#D2E3FC"/>
<rect x="1458" y="813" width="200" height="50" rx="25" fill="#1A73E8"/>
<rect x="851" y="813" width="218" height="50" rx="25" fill="#D2E3FC"/>
<rect x="850" y="813" width="122" height="50" rx="25" fill="#1A73E8"/>
<rect x="243" y="813" width="218" height="50" rx="25" fill="#D2E3FC"/>
<rect x="243" y="813" width="50" height="50" rx="25" fill="#1A73E8"/>
<path d="M1451.52 655.5L1476.02 586.5L1547.02 390.5C1548.02 388.833 1549.35 388 1551.02 388H1579.02C1580.69 388 1582.02 388.833 1583.02 390.5L1654.52 586.5L1678.02 655.5L1670.02 658.5L1646.52 589.5C1646.85 589.5 1646.85 589.5 1646.52 589.5L1575.02 393.5C1574.69 392.833 1575.35 393.167 1577.02 394.5C1579.02 395.5 1579.69 396 1579.02 396H1551.02C1550.35 396 1550.85 395.5 1552.52 394.5C1554.52 393.167 1555.35 392.833 1555.02 393.5L1484.02 589.5L1459.52 658.5L1451.52 655.5ZM1650.52 592H1480.02V584H1650.52V592ZM1531.52 350L1554.52 390C1554.52 390.333 1554.52 390.667 1554.52 391C1554.85 391 1555.02 391 1555.02 391L1567.02 449.5C1567.69 451.833 1566.35 453 1563.02 453C1560.02 452.667 1558.69 451.5 1559.02 449.5L1575.02 391C1575.35 390.667 1575.52 390.5 1575.52 390.5C1575.52 390.167 1575.52 390 1575.52 390L1601.52 350L1608.52 354L1582.52 394C1582.19 394.333 1582.19 394.167 1582.52 393.5C1582.85 392.833 1583.02 392.667 1583.02 393L1567.02 451.5C1566.35 453.5 1565.02 454.5 1563.02 454.5C1561.02 454.5 1559.69 453.5 1559.02 451.5L1547.02 393C1547.02 392.667 1547.02 392.833 1547.02 393.5C1547.35 394.167 1547.52 394.333 1547.52 394L1524.52 354L1531.52 350ZM1527.02 560L1482.52 591.5C1481.52 591.833 1481.19 590.833 1481.52 588.5C1482.19 585.833 1482.69 584.833 1483.02 585.5L1507.02 616.5L1501.02 621.5L1477.02 590.5C1476.35 589.5 1476.02 588.5 1476.02 587.5C1476.35 586.167 1476.85 585.167 1477.52 584.5L1522.02 553L1527.02 560ZM1603.52 553L1652.52 584.5C1653.85 585.167 1654.52 586.167 1654.52 587.5C1654.52 588.833 1654.19 589.833 1653.52 590.5L1625.02 621.5L1619.02 616.5L1647.52 585.5C1648.19 584.5 1648.69 585.333 1649.02 588C1649.69 590.667 1649.52 591.833 1648.52 591.5L1599.52 560L1603.52 553ZM1496.52 695L1453.02 660C1452.35 659.333 1453.02 659.167 1455.02 659.5C1457.35 659.5 1458.19 659.833 1457.52 660.5L1398.52 695.5L1394.52 688.5L1453.52 653.5C1454.19 652.833 1454.85 652.667 1455.52 653C1456.52 653 1457.35 653.333 1458.02 654L1501.52 689L1496.52 695ZM1734.52 695.5L1672.02 660.5C1671.35 659.833 1672.02 659.5 1674.02 659.5C1676.35 659.5 1677.19 659.667 1676.52 660L1629.52 695L1624.52 689L1671.52 654C1672.19 653.333 1672.85 653 1673.52 653C1674.52 652.667 1675.35 652.833 1676.02 653.5L1738.52 688.5L1734.52 695.5ZM1504.02 623L1508.02 620C1504.35 633.667 1501.69 644.833 1500.02 653.5C1498.69 661.833 1498.35 668.833 1499.02 674.5C1499.69 680.167 1500.85 685.5 1502.52 690.5C1503.19 691.833 1503.19 693 1502.52 694C1501.85 695.333 1500.69 696 1499.02 696H1396.52C1394.85 696 1393.69 695.167 1393.02 693.5C1392.35 692.167 1392.52 690.833 1393.52 689.5C1397.19 684.5 1400.85 678.5 1404.52 671.5C1408.52 664.5 1413.02 655 1418.02 643C1423.35 630.667 1430.02 614.333 1438.02 594C1446.02 573.667 1456.02 547.667 1468.02 516C1478.69 487.667 1487.52 464 1494.52 445C1501.52 426 1507.19 410.667 1511.52 399C1515.85 387 1518.85 377.5 1520.52 370.5C1522.52 363.167 1523.69 357 1524.02 352C1524.02 350.667 1524.35 349.667 1525.02 349C1526.02 348.333 1527.02 348 1528.02 348H1605.02C1606.02 348 1606.85 348.333 1607.52 349C1608.19 349.667 1608.69 350.5 1609.02 351.5C1610.02 356.167 1611.35 362 1613.02 369C1615.02 375.667 1617.85 384.833 1621.52 396.5C1625.52 407.833 1631.02 423.167 1638.02 442.5C1645.02 461.833 1654.02 486.333 1665.02 516C1677.02 547.667 1687.02 573.667 1695.02 594C1703.02 614.333 1709.52 630.667 1714.52 643C1719.85 655 1724.35 664.5 1728.02 671.5C1732.02 678.5 1735.85 684.5 1739.52 689.5C1740.52 690.833 1740.69 692.167 1740.02 693.5C1739.35 695.167 1738.19 696 1736.52 696H1627.02C1625.69 696 1624.69 695.333 1624.02 694C1623.35 693 1623.19 691.833 1623.52 690.5C1625.52 685.5 1626.69 680.167 1627.02 674.5C1627.69 668.833 1627.35 661.833 1626.02 653.5C1624.69 644.833 1622.02 633.667 1618.02 620L1622.02 623H1504.02ZM1559.02 452H1567.02L1528.52 558L1524.52 552.5H1601.52L1597.52 558L1559.02 452ZM1504.02 615H1622.02C1623.02 615 1623.85 615.333 1624.52 616C1625.19 616.333 1625.69 617 1626.02 618C1630.02 632.667 1632.69 644.667 1634.02 654C1635.35 663 1635.69 670.5 1635.02 676.5C1634.35 682.5 1632.85 688.167 1630.52 693.5L1627.02 688H1736.52L1733.52 694.5C1729.52 689.5 1725.52 683.5 1721.52 676.5C1717.85 669.167 1713.35 659.333 1708.02 647C1702.69 634.667 1696.02 618.333 1688.02 598C1680.02 577.333 1670.02 551 1658.02 519C1646.69 489 1637.35 464.333 1630.02 445C1623.02 425.667 1617.52 410.167 1613.52 398.5C1609.85 386.5 1607.02 377.167 1605.02 370.5C1603.35 363.5 1602.02 357.5 1601.02 352.5L1605.02 356H1528.02L1532.02 352C1531.69 357 1530.52 363.167 1528.52 370.5C1526.85 377.833 1523.85 387.5 1519.52 399.5C1515.19 411.5 1509.35 427.167 1502.02 446.5C1495.02 465.833 1486.02 490 1475.02 519C1463.02 551 1453.02 577.333 1445.02 598C1437.02 618.333 1430.35 634.667 1425.02 647C1419.69 659.333 1415.02 669.167 1411.02 676.5C1407.35 683.5 1403.52 689.5 1399.52 694.5L1396.52 688H1499.02L1495.52 693.5C1493.52 688.167 1492.02 682.5 1491.02 676.5C1490.35 670.5 1490.69 663 1492.02 654C1493.35 644.667 1496.02 632.667 1500.02 618C1500.35 617 1500.85 616.333 1501.52 616C1502.19 615.333 1503.02 615 1504.02 615ZM1567.02 449L1605.52 555C1605.85 556.333 1605.69 557.667 1605.02 559C1604.35 560 1603.19 560.5 1601.52 560.5H1524.52C1523.19 560.5 1522.02 560 1521.02 559C1520.35 557.667 1520.19 556.333 1520.52 555L1559.02 449C1559.69 447.333 1561.02 446.5 1563.02 446.5C1565.02 446.5 1566.35 447.333 1567.02 449Z" fill="#D2E3FC"/>
<path d="M236.52 655.5L261.02 586.5L332.02 390.5C333.02 388.833 334.353 388 336.02 388H364.02C365.686 388 367.02 388.833 368.02 390.5L439.52 586.5L463.02 655.5L455.02 658.5L431.52 589.5C431.853 589.5 431.853 589.5 431.52 589.5L360.02 393.5C359.686 392.833 360.353 393.167 362.02 394.5C364.02 395.5 364.686 396 364.02 396H336.02C335.353 396 335.853 395.5 337.52 394.5C339.52 393.167 340.353 392.833 340.02 393.5L269.02 589.5L244.52 658.5L236.52 655.5ZM435.52 592H265.02V584H435.52V592ZM316.52 350L339.52 390C339.52 390.333 339.52 390.667 339.52 391C339.853 391 340.02 391 340.02 391L352.02 449.5C352.686 451.833 351.353 453 348.02 453C345.02 452.667 343.686 451.5 344.02 449.5L360.02 391C360.353 390.667 360.52 390.5 360.52 390.5C360.52 390.167 360.52 390 360.52 390L386.52 350L393.52 354L367.52 394C367.186 394.333 367.186 394.167 367.52 393.5C367.853 392.833 368.02 392.667 368.02 393L352.02 451.5C351.353 453.5 350.02 454.5 348.02 454.5C346.02 454.5 344.686 453.5 344.02 451.5L332.02 393C332.02 392.667 332.02 392.833 332.02 393.5C332.353 394.167 332.52 394.333 332.52 394L309.52 354L316.52 350ZM312.02 560L267.52 591.5C266.52 591.833 266.186 590.833 266.52 588.5C267.186 585.833 267.686 584.833 268.02 585.5L292.02 616.5L286.02 621.5L262.02 590.5C261.353 589.5 261.02 588.5 261.02 587.5C261.353 586.167 261.853 585.167 262.52 584.5L307.02 553L312.02 560ZM388.52 553L437.52 584.5C438.853 585.167 439.52 586.167 439.52 587.5C439.52 588.833 439.186 589.833 438.52 590.5L410.02 621.5L404.02 616.5L432.52 585.5C433.186 584.5 433.686 585.333 434.02 588C434.686 590.667 434.52 591.833 433.52 591.5L384.52 560L388.52 553ZM281.52 695L238.02 660C237.353 659.333 238.02 659.167 240.02 659.5C242.353 659.5 243.186 659.833 242.52 660.5L183.52 695.5L179.52 688.5L238.52 653.5C239.186 652.833 239.853 652.667 240.52 653C241.52 653 242.353 653.333 243.02 654L286.52 689L281.52 695ZM519.52 695.5L457.02 660.5C456.353 659.833 457.02 659.5 459.02 659.5C461.353 659.5 462.186 659.667 461.52 660L414.52 695L409.52 689L456.52 654C457.186 653.333 457.853 653 458.52 653C459.52 652.667 460.353 652.833 461.02 653.5L523.52 688.5L519.52 695.5ZM289.02 623L293.02 620C289.353 633.667 286.686 644.833 285.02 653.5C283.686 661.833 283.353 668.833 284.02 674.5C284.686 680.167 285.853 685.5 287.52 690.5C288.186 691.833 288.186 693 287.52 694C286.853 695.333 285.686 696 284.02 696H181.52C179.853 696 178.686 695.167 178.02 693.5C177.353 692.167 177.52 690.833 178.52 689.5C182.186 684.5 185.853 678.5 189.52 671.5C193.52 664.5 198.02 655 203.02 643C208.353 630.667 215.02 614.333 223.02 594C231.02 573.667 241.02 547.667 253.02 516C263.686 487.667 272.52 464 279.52 445C286.52 426 292.186 410.667 296.52 399C300.853 387 303.853 377.5 305.52 370.5C307.52 363.167 308.686 357 309.02 352C309.02 350.667 309.353 349.667 310.02 349C311.02 348.333 312.02 348 313.02 348H390.02C391.02 348 391.853 348.333 392.52 349C393.186 349.667 393.686 350.5 394.02 351.5C395.02 356.167 396.353 362 398.02 369C400.02 375.667 402.853 384.833 406.52 396.5C410.52 407.833 416.02 423.167 423.02 442.5C430.02 461.833 439.02 486.333 450.02 516C462.02 547.667 472.02 573.667 480.02 594C488.02 614.333 494.52 630.667 499.52 643C504.853 655 509.353 664.5 513.02 671.5C517.02 678.5 520.853 684.5 524.52 689.5C525.52 690.833 525.686 692.167 525.02 693.5C524.353 695.167 523.186 696 521.52 696H412.02C410.686 696 409.686 695.333 409.02 694C408.353 693 408.186 691.833 408.52 690.5C410.52 685.5 411.686 680.167 412.02 674.5C412.686 668.833 412.353 661.833 411.02 653.5C409.686 644.833 407.02 633.667 403.02 620L407.02 623H289.02ZM344.02 452H352.02L313.52 558L309.52 552.5H386.52L382.52 558L344.02 452ZM289.02 615H407.02C408.02 615 408.853 615.333 409.52 616C410.186 616.333 410.686 617 411.02 618C415.02 632.667 417.686 644.667 419.02 654C420.353 663 420.686 670.5 420.02 676.5C419.353 682.5 417.853 688.167 415.52 693.5L412.02 688H521.52L518.52 694.5C514.52 689.5 510.52 683.5 506.52 676.5C502.853 669.167 498.353 659.333 493.02 647C487.686 634.667 481.02 618.333 473.02 598C465.02 577.333 455.02 551 443.02 519C431.686 489 422.353 464.333 415.02 445C408.02 425.667 402.52 410.167 398.52 398.5C394.853 386.5 392.02 377.167 390.02 370.5C388.353 363.5 387.02 357.5 386.02 352.5L390.02 356H313.02L317.02 352C316.686 357 315.52 363.167 313.52 370.5C311.853 377.833 308.853 387.5 304.52 399.5C300.186 411.5 294.353 427.167 287.02 446.5C280.02 465.833 271.02 490 260.02 519C248.02 551 238.02 577.333 230.02 598C222.02 618.333 215.353 634.667 210.02 647C204.686 659.333 200.02 669.167 196.02 676.5C192.353 683.5 188.52 689.5 184.52 694.5L181.52 688H284.02L280.52 693.5C278.52 688.167 277.02 682.5 276.02 676.5C275.353 670.5 275.686 663 277.02 654C278.353 644.667 281.02 632.667 285.02 618C285.353 617 285.853 616.333 286.52 616C287.186 615.333 288.02 615 289.02 615ZM352.02 449L390.52 555C390.853 556.333 390.686 557.667 390.02 559C389.353 560 388.186 560.5 386.52 560.5H309.52C308.186 560.5 307.02 560 306.02 559C305.353 557.667 305.186 556.333 305.52 555L344.02 449C344.686 447.333 346.02 446.5 348.02 446.5C350.02 446.5 351.353 447.333 352.02 449Z" fill="#D2E3FC"/>
<path d="M238.02 590.5L262.52 537.5L333.52 386C334.186 384.333 335.353 383.5 337.02 383.5H365.02C366.686 383.5 367.853 384.333 368.52 386L440.02 537.5C440.02 537.5 440.02 537.667 440.02 538L463.52 591L456.52 594L433.02 541C433.02 541 433.02 541.167 433.02 541.5L361.52 389.5C361.186 388.833 361.853 389 363.52 390C365.186 391 365.686 391.5 365.02 391.5H337.02C336.353 391.5 336.853 391 338.52 390C340.186 389 340.853 388.833 340.52 389.5L269.52 541.5L245.02 594.5L238.02 590.5ZM436.52 543.5H266.02V535.5H436.52V543.5ZM314.02 381L337.02 384C337.686 384 338.353 384.333 339.02 385C340.02 385.333 340.686 386 341.02 387L353.02 460C353.353 462.333 352.02 463.5 349.02 463.5C346.02 463.167 344.686 461.833 345.02 459.5L361.02 386.5C361.353 385.833 361.853 385.333 362.52 385C363.52 384.333 364.353 384 365.02 384L391.02 381V388L365.02 391.5C364.02 390.833 364.52 390 366.52 389C368.52 387.667 369.353 387.5 369.02 388.5L353.02 461.5C352.686 463.5 351.353 464.5 349.02 464.5C346.686 464.5 345.353 463.333 345.02 461L333.02 388.5C332.686 387.167 333.52 387.167 335.52 388.5C337.52 389.833 338.02 390.833 337.02 391.5L314.02 388V381ZM310.52 546.5L266.02 543.5C264.353 542.833 264.353 541.333 266.02 539C268.02 536.667 269.186 536.167 269.52 537.5L293.52 589L286.52 592.5L262.52 541C261.853 539.667 262.02 538.333 263.02 537C264.02 535.667 265.02 535.167 266.02 535.5L310.52 538.5V546.5ZM387.02 538.5L436.02 535.5C437.686 535.5 438.853 536.167 439.52 537.5C440.52 538.833 440.686 540.167 440.02 541.5L411.52 592.5L404.52 588.5L433.02 537.5C433.686 535.833 434.853 536.333 436.52 539C438.186 541.333 438.353 542.833 437.02 543.5L388.02 546.5L387.02 538.5ZM282.02 649.5L238.52 595C237.853 594 238.853 593.667 241.52 594C244.186 594 245.186 594.5 244.52 595.5L185.52 650L179.52 644L238.52 589.5C239.52 588.833 240.686 588.5 242.02 588.5C243.353 588.5 244.186 589 244.52 590L288.02 644.5L282.02 649.5ZM519.52 650L457.02 595.5C456.353 594.5 457.353 594 460.02 594C462.686 594 463.686 594.333 463.02 595L416.02 649.5L410.02 644.5L457.02 590C457.686 589 458.52 588.5 459.52 588.5C460.853 588.5 462.02 588.833 463.02 589.5L525.52 644L519.52 650ZM290.02 594.5L293.52 592C289.853 602.333 287.353 610.667 286.02 617C284.686 623.333 284.353 628.667 285.02 633C285.686 637.333 286.853 641.333 288.52 645C289.186 646.333 289.186 647.667 288.52 649C287.853 650.333 286.686 651 285.02 651H182.52C180.853 651 179.686 650.167 179.02 648.5C178.353 646.833 178.686 645.333 180.02 644C183.686 640 187.353 635.333 191.02 630C195.02 624.667 199.52 617.333 204.52 608C209.853 598.667 216.353 586.167 224.02 570.5C232.02 554.833 242.02 534.833 254.02 510.5C264.353 489.167 273.02 471.333 280.02 457C287.02 442.333 292.686 430.333 297.02 421C301.353 411.667 304.52 404.167 306.52 398.5C308.52 392.833 309.686 388.167 310.02 384.5C310.02 383.167 310.353 382.167 311.02 381.5C312.02 380.833 313.02 380.5 314.02 380.5H391.02C392.02 380.5 392.853 380.833 393.52 381.5C394.186 382.167 394.686 383 395.02 384C396.02 387.333 397.353 391.667 399.02 397C401.02 402.333 403.853 409.5 407.52 418.5C411.52 427.5 417.02 439.333 424.02 454C431.02 468.667 440.02 487.5 451.02 510.5C463.02 534.833 472.853 554.833 480.52 570.5C488.52 586.167 495.02 598.667 500.02 608C505.353 617.333 509.853 624.667 513.52 630C517.52 635.333 521.353 640 525.02 644C526.686 645.333 527.02 646.833 526.02 648.5C525.353 650.167 524.186 651 522.52 651H413.02C411.686 651 410.52 650.333 409.52 649C408.853 647.667 408.853 646.333 409.52 645C411.52 641.333 412.686 637.333 413.02 633C413.686 628.667 413.353 623.333 412.02 617C410.686 610.667 408.186 602.333 404.52 592L408.02 594.5H290.02ZM345.52 462.5H352.52L314.02 544.5L310.52 538.5H387.52L384.02 544.5L345.52 462.5ZM290.02 586.5H408.02C408.686 586.5 409.353 586.833 410.02 587.5C410.686 587.833 411.186 588.333 411.52 589C415.853 600.667 418.686 610.167 420.02 617.5C421.353 624.5 421.686 630.5 421.02 635.5C420.353 640.167 418.853 644.667 416.52 649L413.02 643H522.52L520.02 650C516.02 646 512.02 641.333 508.02 636C504.353 630.333 499.853 622.833 494.52 613.5C489.186 603.833 482.353 591 474.02 575C466.02 559 456.02 538.833 444.02 514.5C432.686 491.167 423.353 472 416.02 457C409.02 442 403.52 430 399.52 421C395.853 411.667 393.02 404.333 391.02 399C389.353 393.667 388.02 389.167 387.02 385.5L391.02 388.5H314.02L318.02 385C317.686 389 316.686 393.667 315.02 399C313.353 404.333 310.353 411.667 306.02 421C302.02 430 296.353 442.167 289.02 457.5C281.686 472.5 272.353 491.5 261.02 514.5C249.02 538.833 238.853 559 230.52 575C222.52 591 215.853 603.833 210.52 613.5C205.186 622.833 200.52 630.333 196.52 636C192.853 641.333 189.02 646 185.02 650L182.52 643H285.02L281.52 649C279.52 644.667 278.02 640.167 277.02 635.5C276.353 630.5 276.686 624.5 278.02 617.5C279.353 610.167 282.186 600.667 286.52 589C286.853 588.333 287.353 587.833 288.02 587.5C288.686 586.833 289.353 586.5 290.02 586.5ZM352.52 458.5L391.02 540.5C391.686 541.833 391.686 543.167 391.02 544.5C390.353 545.833 389.186 546.5 387.52 546.5H310.52C309.186 546.5 308.02 545.833 307.02 544.5C306.353 543.167 306.353 541.833 307.02 540.5L345.52 458.5C346.186 457.167 347.353 456.5 349.02 456.5C350.686 456.5 351.853 457.167 352.52 458.5Z" fill="#3C4043"/>
<path d="M857.52 655.5L882.02 586.5L953.02 390.5C954.02 388.833 955.353 388 957.02 388H985.02C986.686 388 988.02 388.833 989.02 390.5L1060.52 586.5L1084.02 655.5L1076.02 658.5L1052.52 589.5C1052.85 589.5 1052.85 589.5 1052.52 589.5L981.02 393.5C980.686 392.833 981.353 393.167 983.02 394.5C985.02 395.5 985.686 396 985.02 396H957.02C956.353 396 956.853 395.5 958.52 394.5C960.52 393.167 961.353 392.833 961.02 393.5L890.02 589.5L865.52 658.5L857.52 655.5ZM1056.52 592H886.02V584H1056.52V592ZM937.52 350L960.52 390C960.52 390.333 960.52 390.667 960.52 391C960.853 391 961.02 391 961.02 391L973.02 449.5C973.686 451.833 972.353 453 969.02 453C966.02 452.667 964.686 451.5 965.02 449.5L981.02 391C981.353 390.667 981.52 390.5 981.52 390.5C981.52 390.167 981.52 390 981.52 390L1007.52 350L1014.52 354L988.52 394C988.186 394.333 988.186 394.167 988.52 393.5C988.853 392.833 989.02 392.667 989.02 393L973.02 451.5C972.353 453.5 971.02 454.5 969.02 454.5C967.02 454.5 965.686 453.5 965.02 451.5L953.02 393C953.02 392.667 953.02 392.833 953.02 393.5C953.353 394.167 953.52 394.333 953.52 394L930.52 354L937.52 350ZM933.02 560L888.52 591.5C887.52 591.833 887.186 590.833 887.52 588.5C888.186 585.833 888.686 584.833 889.02 585.5L913.02 616.5L907.02 621.5L883.02 590.5C882.353 589.5 882.02 588.5 882.02 587.5C882.353 586.167 882.853 585.167 883.52 584.5L928.02 553L933.02 560ZM1009.52 553L1058.52 584.5C1059.85 585.167 1060.52 586.167 1060.52 587.5C1060.52 588.833 1060.19 589.833 1059.52 590.5L1031.02 621.5L1025.02 616.5L1053.52 585.5C1054.19 584.5 1054.69 585.333 1055.02 588C1055.69 590.667 1055.52 591.833 1054.52 591.5L1005.52 560L1009.52 553ZM902.52 695L859.02 660C858.353 659.333 859.02 659.167 861.02 659.5C863.353 659.5 864.186 659.833 863.52 660.5L804.52 695.5L800.52 688.5L859.52 653.5C860.186 652.833 860.853 652.667 861.52 653C862.52 653 863.353 653.333 864.02 654L907.52 689L902.52 695ZM1140.52 695.5L1078.02 660.5C1077.35 659.833 1078.02 659.5 1080.02 659.5C1082.35 659.5 1083.19 659.667 1082.52 660L1035.52 695L1030.52 689L1077.52 654C1078.19 653.333 1078.85 653 1079.52 653C1080.52 652.667 1081.35 652.833 1082.02 653.5L1144.52 688.5L1140.52 695.5ZM910.02 623L914.02 620C910.353 633.667 907.686 644.833 906.02 653.5C904.686 661.833 904.353 668.833 905.02 674.5C905.686 680.167 906.853 685.5 908.52 690.5C909.186 691.833 909.186 693 908.52 694C907.853 695.333 906.686 696 905.02 696H802.52C800.853 696 799.686 695.167 799.02 693.5C798.353 692.167 798.52 690.833 799.52 689.5C803.186 684.5 806.853 678.5 810.52 671.5C814.52 664.5 819.02 655 824.02 643C829.353 630.667 836.02 614.333 844.02 594C852.02 573.667 862.02 547.667 874.02 516C884.686 487.667 893.52 464 900.52 445C907.52 426 913.186 410.667 917.52 399C921.853 387 924.853 377.5 926.52 370.5C928.52 363.167 929.686 357 930.02 352C930.02 350.667 930.353 349.667 931.02 349C932.02 348.333 933.02 348 934.02 348H1011.02C1012.02 348 1012.85 348.333 1013.52 349C1014.19 349.667 1014.69 350.5 1015.02 351.5C1016.02 356.167 1017.35 362 1019.02 369C1021.02 375.667 1023.85 384.833 1027.52 396.5C1031.52 407.833 1037.02 423.167 1044.02 442.5C1051.02 461.833 1060.02 486.333 1071.02 516C1083.02 547.667 1093.02 573.667 1101.02 594C1109.02 614.333 1115.52 630.667 1120.52 643C1125.85 655 1130.35 664.5 1134.02 671.5C1138.02 678.5 1141.85 684.5 1145.52 689.5C1146.52 690.833 1146.69 692.167 1146.02 693.5C1145.35 695.167 1144.19 696 1142.52 696H1033.02C1031.69 696 1030.69 695.333 1030.02 694C1029.35 693 1029.19 691.833 1029.52 690.5C1031.52 685.5 1032.69 680.167 1033.02 674.5C1033.69 668.833 1033.35 661.833 1032.02 653.5C1030.69 644.833 1028.02 633.667 1024.02 620L1028.02 623H910.02ZM965.02 452H973.02L934.52 558L930.52 552.5H1007.52L1003.52 558L965.02 452ZM910.02 615H1028.02C1029.02 615 1029.85 615.333 1030.52 616C1031.19 616.333 1031.69 617 1032.02 618C1036.02 632.667 1038.69 644.667 1040.02 654C1041.35 663 1041.69 670.5 1041.02 676.5C1040.35 682.5 1038.85 688.167 1036.52 693.5L1033.02 688H1142.52L1139.52 694.5C1135.52 689.5 1131.52 683.5 1127.52 676.5C1123.85 669.167 1119.35 659.333 1114.02 647C1108.69 634.667 1102.02 618.333 1094.02 598C1086.02 577.333 1076.02 551 1064.02 519C1052.69 489 1043.35 464.333 1036.02 445C1029.02 425.667 1023.52 410.167 1019.52 398.5C1015.85 386.5 1013.02 377.167 1011.02 370.5C1009.35 363.5 1008.02 357.5 1007.02 352.5L1011.02 356H934.02L938.02 352C937.686 357 936.52 363.167 934.52 370.5C932.853 377.833 929.853 387.5 925.52 399.5C921.186 411.5 915.353 427.167 908.02 446.5C901.02 465.833 892.02 490 881.02 519C869.02 551 859.02 577.333 851.02 598C843.02 618.333 836.353 634.667 831.02 647C825.686 659.333 821.02 669.167 817.02 676.5C813.353 683.5 809.52 689.5 805.52 694.5L802.52 688H905.02L901.52 693.5C899.52 688.167 898.02 682.5 897.02 676.5C896.353 670.5 896.686 663 898.02 654C899.353 644.667 902.02 632.667 906.02 618C906.353 617 906.853 616.333 907.52 616C908.186 615.333 909.02 615 910.02 615ZM973.02 449L1011.52 555C1011.85 556.333 1011.69 557.667 1011.02 559C1010.35 560 1009.19 560.5 1007.52 560.5H930.52C929.186 560.5 928.02 560 927.02 559C926.353 557.667 926.186 556.333 926.52 555L965.02 449C965.686 447.333 967.02 446.5 969.02 446.5C971.02 446.5 972.353 447.333 973.02 449Z" fill="#3C4043"/>
<path d="M1452.52 678.5L1477.02 625.5L1548.02 474C1548.69 472.667 1549.85 472 1551.52 472H1579.52C1581.19 472 1582.35 472.667 1583.02 474L1654.52 625.5C1654.52 625.5 1654.52 625.667 1654.52 626L1678.02 679L1671.02 682L1647.52 629L1576.02 478C1575.69 477.333 1576.35 477.5 1578.02 478.5C1579.69 479.5 1580.19 480 1579.52 480H1551.52C1550.85 480 1551.35 479.5 1553.02 478.5C1554.69 477.5 1555.35 477.333 1555.02 478L1484.02 629L1459.52 682L1452.52 678.5ZM1651.02 631.5H1480.52V623.5H1651.02V631.5ZM1532.52 415.5L1555.52 474.5C1555.52 474.833 1555.19 474.667 1554.52 474C1553.85 473 1553.69 472.667 1554.02 473L1566.02 490.5C1566.69 491.5 1566.02 492 1564.02 492C1562.02 491.667 1561.19 491.167 1561.52 490.5L1577.52 473C1578.19 472.667 1578.02 473 1577.02 474C1576.02 474.667 1575.69 474.833 1576.02 474.5L1602.02 415.5L1609.02 419L1583.02 477.5C1583.02 477.833 1582.85 478.167 1582.52 478.5C1582.52 478.833 1582.19 479 1581.52 479L1565.52 496.5C1565.19 497.167 1564.52 497.5 1563.52 497.5C1562.52 497.5 1561.69 497.167 1561.02 496.5L1549.02 479C1548.69 478.667 1548.35 478.5 1548.02 478.5C1548.02 478.167 1547.85 477.833 1547.52 477.5L1524.52 419L1532.52 415.5ZM1528.02 578.5L1483.52 630C1482.19 631.333 1480.69 630.833 1479.02 628.5C1477.69 626.167 1477.85 624.667 1479.52 624L1503.52 620.5L1505.52 627L1481.52 630.5C1479.85 631.167 1478.52 630.667 1477.52 629C1476.52 627.333 1476.52 625.833 1477.52 624.5L1522.02 573L1528.02 578.5ZM1605.02 573L1654.02 624.5C1655.35 625.833 1655.35 627.333 1654.02 629C1653.02 630.667 1651.85 631.167 1650.52 630.5L1622.02 627L1623.02 620.5L1651.52 624C1653.19 624.333 1653.35 625.833 1652.02 628.5C1651.02 630.833 1649.69 631.333 1648.02 630L1599.02 578.5L1605.02 573ZM1499.52 683.5L1456.02 684C1455.69 684 1455.69 684 1456.02 684C1456.35 684 1456.35 684 1456.02 684H1397.02V676L1456.02 676.5C1456.35 676.167 1456.19 676.167 1455.52 676.5C1455.19 676.5 1455.35 676.5 1456.02 676.5L1499.52 676V683.5ZM1737.02 684H1674.52C1674.19 684 1674.19 684 1674.52 684C1674.85 684 1674.85 684 1674.52 684L1627.52 683.5V676L1674.52 676.5C1675.19 676.5 1675.19 676.5 1674.52 676.5C1674.19 676.167 1674.19 676.167 1674.52 676.5L1737.02 676V684ZM1504.52 627.5L1508.02 625C1504.35 635.333 1501.85 643.833 1500.52 650.5C1499.19 656.833 1498.85 662.167 1499.52 666.5C1500.19 670.5 1501.35 674.333 1503.02 678C1503.69 679.333 1503.69 680.667 1503.02 682C1502.35 683.333 1501.19 684 1499.52 684H1397.02C1395.35 684 1394.19 683.167 1393.52 681.5C1392.85 679.833 1393.19 678.333 1394.52 677C1398.19 673 1401.85 668.333 1405.52 663C1409.52 657.667 1414.02 650.333 1419.02 641C1424.35 631.667 1430.85 619.167 1438.52 603.5C1446.52 587.833 1456.52 567.667 1468.52 543C1478.85 521.667 1487.52 503.833 1494.52 489.5C1501.52 475.167 1507.19 463.333 1511.52 454C1515.85 444.333 1519.02 436.667 1521.02 431C1523.02 425.333 1524.19 420.667 1524.52 417C1524.52 416 1524.85 415.167 1525.52 414.5C1526.52 413.833 1527.52 413.5 1528.52 413.5H1605.52C1606.52 413.5 1607.35 413.833 1608.02 414.5C1608.69 414.833 1609.19 415.5 1609.52 416.5C1610.52 420.167 1611.85 424.667 1613.52 430C1615.52 435 1618.35 442 1622.02 451C1626.02 460 1631.52 472 1638.52 487C1645.52 501.667 1654.52 520.333 1665.52 543C1677.52 567.667 1687.35 587.833 1695.02 603.5C1703.02 619.167 1709.52 631.667 1714.52 641C1719.85 650.333 1724.35 657.667 1728.02 663C1732.02 668.333 1735.85 673 1739.52 677C1741.19 678.333 1741.52 679.833 1740.52 681.5C1739.85 683.167 1738.69 684 1737.02 684H1627.52C1626.19 684 1625.02 683.333 1624.02 682C1623.35 680.667 1623.35 679.333 1624.02 678C1626.02 674.333 1627.19 670.5 1627.52 666.5C1628.19 662.167 1627.85 656.833 1626.52 650.5C1625.19 643.833 1622.69 635.333 1619.02 625L1622.52 627.5H1504.52ZM1560.02 495.5H1567.02L1528.52 577.5L1525.02 571.5H1602.02L1598.52 577.5L1560.02 495.5ZM1504.52 619.5H1622.52C1623.19 619.5 1623.85 619.833 1624.52 620.5C1625.19 620.833 1625.69 621.5 1626.02 622.5C1630.35 633.833 1633.19 643.167 1634.52 650.5C1635.85 657.833 1636.19 663.833 1635.52 668.5C1634.85 673.167 1633.35 677.667 1631.02 682L1627.52 676H1737.02L1734.52 683C1730.52 679 1726.52 674.333 1722.52 669C1718.85 663.333 1714.35 655.667 1709.02 646C1703.69 636.333 1696.85 623.667 1688.52 608C1680.52 592 1670.52 571.667 1658.52 547C1647.19 523.667 1637.85 504.667 1630.52 490C1623.52 475 1618.02 463 1614.02 454C1610.35 444.667 1607.52 437.333 1605.52 432C1603.85 426.667 1602.52 422 1601.52 418L1605.52 421.5H1528.52L1532.52 417.5C1532.19 421.5 1531.19 426.333 1529.52 432C1527.85 437.333 1524.85 444.667 1520.52 454C1516.52 463 1510.85 475 1503.52 490C1496.19 505 1486.85 524 1475.52 547C1463.52 571.667 1453.35 592 1445.02 608C1437.02 623.667 1430.35 636.333 1425.02 646C1419.69 655.667 1415.02 663.333 1411.02 669C1407.35 674.333 1403.52 679 1399.52 683L1397.02 676H1499.52L1496.02 682C1494.02 677.667 1492.52 673.167 1491.52 668.5C1490.85 663.833 1491.19 657.833 1492.52 650.5C1493.85 643.167 1496.69 633.833 1501.02 622.5C1501.35 621.5 1501.85 620.833 1502.52 620.5C1503.19 619.833 1503.85 619.5 1504.52 619.5ZM1567.02 492L1605.52 573.5C1606.19 574.833 1606.19 576.167 1605.52 577.5C1604.85 578.833 1603.69 579.5 1602.02 579.5H1525.02C1523.69 579.5 1522.52 578.833 1521.52 577.5C1520.85 576.167 1520.85 574.833 1521.52 573.5L1560.02 492C1560.69 490.333 1561.85 489.5 1563.52 489.5C1565.19 489.5 1566.35 490.333 1567.02 492Z" fill="#3C4043"/>
</g>
<defs>
<clipPath id="clip0_4029_6704">
<rect width="1920" height="1080" fill="white"/>
</clipPath>
</defs>
</svg>
