<svg width="1920" height="1080" fill="none" xmlns="http://www.w3.org/2000/svg"><g clip-path="url(#a)"><path d="M310.837 626V430.54h-68.748V390.1h181.98v40.44h-68.748V626h-44.484Zm131.978 67.4v-37.07h90.99c6.29 0 9.436-3.37 9.436-10.11v-42.125h-6.066c-1.798 3.819-4.606 7.639-8.425 11.458-3.82 3.819-8.987 6.965-15.502 9.436-6.516 2.471-14.828 3.707-24.938 3.707-13.031 0-24.489-2.921-34.374-8.762-9.661-6.066-17.187-14.379-22.579-24.938-5.392-10.559-8.088-22.691-8.088-36.396v-99.752h42.462v96.382c0 12.581 3.033 22.017 9.099 28.308 6.29 6.291 15.165 9.436 26.623 9.436 13.03 0 23.14-4.269 30.33-12.806 7.189-8.762 10.784-20.894 10.784-36.396v-84.924h42.462v196.808c0 11.458-3.37 20.557-10.11 27.297-6.74 6.965-15.727 10.447-26.96 10.447H442.815Zm182.725 0V458.848h41.788v20.22h6.066c3.819-6.515 9.773-12.244 17.861-17.187 8.088-5.167 19.658-7.751 34.711-7.751 13.48 0 25.949 3.37 37.407 10.11 11.458 6.515 20.669 16.176 27.634 28.982 6.964 12.806 10.447 28.308 10.447 46.506v5.392c0 18.198-3.483 33.7-10.447 46.506-6.965 12.806-16.176 22.579-27.634 29.319-11.458 6.515-23.927 9.773-37.407 9.773-10.11 0-18.648-1.236-25.612-3.707-6.74-2.247-12.245-5.167-16.513-8.762-4.044-3.819-7.302-7.639-9.773-11.458h-6.066V693.4H625.54Zm87.62-99.752c13.255 0 24.151-4.156 32.689-12.469 8.762-8.537 13.143-20.894 13.143-37.07v-3.37c0-16.176-4.381-28.42-13.143-36.733-8.762-8.537-19.659-12.806-32.689-12.806-13.031 0-23.927 4.269-32.689 12.806-8.762 8.313-13.143 20.557-13.143 36.733v3.37c0 16.176 4.381 28.533 13.143 37.07 8.762 8.313 19.658 12.469 32.689 12.469Zm200.075 37.07c-16.625 0-31.566-3.37-44.821-10.11-13.255-6.74-23.702-16.513-31.341-29.319-7.639-12.806-11.458-28.196-11.458-46.169v-5.392c0-17.973 3.819-33.363 11.458-46.169 7.639-12.806 18.086-22.579 31.341-29.319 13.255-6.74 28.196-10.11 44.821-10.11 16.625 0 31.566 3.37 44.821 10.11 13.255 6.74 23.702 16.513 31.341 29.319 7.639 12.806 11.463 28.196 11.463 46.169v5.392c0 17.973-3.824 33.363-11.463 46.169-7.639 12.806-18.086 22.579-31.341 29.319-13.255 6.74-28.196 10.11-44.821 10.11Zm0-37.744c13.031 0 23.815-4.156 32.352-12.469 8.537-8.537 12.806-20.669 12.806-36.396v-3.37c0-15.727-4.269-27.746-12.806-36.059-8.313-8.537-19.097-12.806-32.352-12.806-13.031 0-23.815 4.269-32.352 12.806-8.537 8.313-12.806 20.332-12.806 36.059v3.37c0 15.727 4.269 27.859 12.806 36.396 8.537 8.313 19.321 12.469 32.352 12.469ZM1033.31 626V390.1h42.46V626h-42.46Zm82.78 0V458.848h42.46V626h-42.46Zm21.23-186.698c-7.64 0-14.16-2.471-19.55-7.414-5.17-4.943-7.75-11.458-7.75-19.546s2.58-14.603 7.75-19.546c5.39-4.943 11.91-7.414 19.55-7.414 7.86 0 14.38 2.471 19.54 7.414 5.17 4.943 7.75 11.458 7.75 19.546s-2.58 14.603-7.75 19.546c-5.16 4.943-11.68 7.414-19.54 7.414ZM1262.89 626c-11.01 0-19.99-3.37-26.96-10.11-6.74-6.965-10.11-16.176-10.11-27.634v-94.36h-41.79v-35.048h41.79V406.95h42.46v51.898h45.84v35.048h-45.84v86.946c0 6.74 3.15 10.11 9.44 10.11h32.35V626h-47.18Zm153.16 4.718c-16.63 0-31.34-3.482-44.15-10.447-12.58-7.189-22.46-17.187-29.65-29.993-6.97-13.031-10.45-28.308-10.45-45.832v-4.044c0-17.524 3.48-32.689 10.45-45.495 6.96-13.031 16.73-23.028 29.32-29.993 12.58-7.189 27.18-10.784 43.81-10.784 16.4 0 30.66 3.707 42.79 11.121 12.14 7.189 21.57 17.299 28.31 30.33 6.74 12.806 10.11 27.746 10.11 44.821v14.491h-121.65c.44 11.458 4.71 20.782 12.8 27.971s17.97 10.784 29.66 10.784c11.9 0 20.67-2.584 26.28-7.751 5.62-5.167 9.89-10.896 12.81-17.187l34.71 18.198c-3.14 5.841-7.75 12.244-13.82 19.209-5.84 6.74-13.7 12.581-23.59 17.524-9.88 4.718-22.46 7.077-37.74 7.077Zm-40.78-107.503h78.19c-.9-9.661-4.83-17.412-11.8-23.253-6.74-5.841-15.61-8.762-26.62-8.762-11.46 0-20.56 2.921-27.3 8.762-6.74 5.841-10.89 13.592-12.47 23.253Z" fill="#3C4043"/><path d="M1588.98 464.914V390.1h26.96l14.15 62.008h3.37l14.16-62.008h26.96v74.814h-14.16v-62.008h-3.37l-14.15 62.008h-22.24l-14.16-62.008h-3.37v62.008h-14.15Zm-49.2 0v-62.008h-24.94V390.1h64.03v12.806h-24.94v62.008h-14.15Z" fill="#1A73E8"/><path d="m785.785 863-9.31-24.108h-29.106L737.961 863h-5.782l27.538-70.168h5.096L791.665 863h-5.88Zm-20.482-54.488a61.961 61.961 0 0 0-.882-2.646 112.076 112.076 0 0 1-1.176-3.528 47.795 47.795 0 0 0-1.176-3.332 101.317 101.317 0 0 1-1.078 3.43 40.012 40.012 0 0 1-1.078 3.332 47.765 47.765 0 0 1-.98 2.842l-9.604 25.186h25.382l-9.408-25.284Zm67.855 40.67c0 3.136-.784 5.815-2.352 8.036-1.568 2.221-3.855 3.92-6.86 5.096-3.006 1.111-6.664 1.666-10.976 1.666-3.594 0-6.795-.327-9.604-.98-2.81-.653-5.194-1.437-7.154-2.352v-5.39c2.352 1.176 4.998 2.156 7.938 2.94a37.404 37.404 0 0 0 8.918 1.078c5.226 0 8.983-.849 11.27-2.548 2.286-1.764 3.43-4.149 3.43-7.154 0-1.96-.556-3.561-1.666-4.802-1.046-1.307-2.646-2.45-4.802-3.43-2.091-1.045-4.704-2.091-7.84-3.136-3.202-1.111-6.044-2.221-8.526-3.332-2.483-1.176-4.41-2.646-5.782-4.41-1.372-1.764-2.058-4.181-2.058-7.252 0-4.181 1.698-7.448 5.096-9.8 3.397-2.352 7.938-3.528 13.622-3.528 3.136 0 6.043.294 8.722.882 2.744.588 5.226 1.372 7.448 2.352l-1.96 4.606c-1.307-.588-2.777-1.111-4.41-1.568a32.634 32.634 0 0 0-4.998-1.176 33.52 33.52 0 0 0-5.096-.392c-4.116 0-7.318.719-9.604 2.156-2.287 1.437-3.43 3.528-3.43 6.272 0 2.091.522 3.757 1.568 4.998 1.11 1.176 2.711 2.189 4.802 3.038 2.156.849 4.736 1.829 7.742 2.94 3.07 1.045 5.847 2.156 8.33 3.332 2.548 1.176 4.54 2.679 5.978 4.508 1.502 1.829 2.254 4.279 2.254 7.35Zm33.984 14.798c-5.096 0-9.441-1.045-13.034-3.136-3.528-2.156-6.24-5.227-8.134-9.212-1.83-3.985-2.744-8.787-2.744-14.406 0-5.88 1.045-10.845 3.136-14.896 2.156-4.051 5.096-7.121 8.82-9.212 3.724-2.156 8.101-3.234 13.132-3.234 2.482 0 4.802.261 6.958.784 2.221.457 4.181 1.078 5.88 1.862l-1.47 4.704a30.262 30.262 0 0 0-5.684-1.666c-2.026-.457-3.953-.686-5.782-.686-4.182 0-7.71.915-10.584 2.744-2.81 1.764-4.966 4.312-6.468 7.644-1.438 3.332-2.156 7.317-2.156 11.956 0 4.312.62 8.134 1.862 11.466 1.306 3.267 3.299 5.815 5.978 7.644 2.678 1.829 6.108 2.744 10.29 2.744 2.548 0 4.932-.261 7.154-.784 2.286-.523 4.377-1.209 6.272-2.058v5.096c-1.699.719-3.659 1.339-5.88 1.862-2.222.523-4.737.784-7.546.784Zm69.343-27.048c0 4.051-.523 7.742-1.568 11.074-.98 3.267-2.483 6.109-4.508 8.526-1.96 2.352-4.41 4.181-7.35 5.488-2.94 1.307-6.305 1.96-10.094 1.96-3.593 0-6.827-.621-9.702-1.862a21.349 21.349 0 0 1-7.252-5.488c-2.025-2.417-3.561-5.292-4.606-8.624-1.045-3.332-1.568-7.023-1.568-11.074 0-5.684.915-10.519 2.744-14.504 1.895-4.051 4.606-7.154 8.134-9.31 3.593-2.156 7.84-3.234 12.74-3.234 4.965 0 9.147 1.143 12.544 3.43 3.463 2.221 6.076 5.357 7.84 9.408 1.764 4.051 2.646 8.787 2.646 14.21Zm-40.866 0c0 4.443.621 8.363 1.862 11.76 1.241 3.332 3.169 5.913 5.782 7.742 2.613 1.829 5.88 2.744 9.8 2.744 4.051 0 7.383-.915 9.996-2.744 2.613-1.895 4.541-4.508 5.782-7.84 1.241-3.397 1.862-7.285 1.862-11.662 0-4.377-.588-8.232-1.764-11.564-1.176-3.332-3.038-5.945-5.586-7.84-2.548-1.895-5.88-2.842-9.996-2.842-5.945 0-10.388 1.96-13.328 5.88-2.94 3.92-4.41 9.375-4.41 16.366Zm76.425-26.95c1.306 0 2.548.098 3.724.294 1.241.131 2.352.327 3.332.588l-.784 5.096a26.62 26.62 0 0 0-3.136-.588 18.652 18.652 0 0 0-3.43-.294c-2.352 0-4.476.457-6.37 1.372-1.895.915-3.528 2.221-4.9 3.92-1.372 1.699-2.418 3.724-3.136 6.076-.719 2.352-1.078 4.998-1.078 7.938V863h-5.586v-52.136h4.704l.588 9.8h.294a18.468 18.468 0 0 1 3.43-5.39c1.502-1.633 3.299-2.907 5.39-3.822 2.09-.98 4.41-1.47 6.958-1.47Zm22.692-.882c0 1.895-.033 3.92-.098 6.076-.065 2.091-.163 3.822-.294 5.194h.392c1.307-3.005 3.43-5.488 6.374-7.448 3-2.025 6.79-3.038 11.36-3.038 6.67 0 11.86 2.287 15.59 6.86 3.79 4.508 5.68 11.205 5.68 20.09 0 5.488-.85 10.257-2.55 14.308-1.63 4.051-4.11 7.219-7.45 9.506-3.26 2.221-7.28 3.332-12.05 3.332-4.38 0-7.97-.915-10.78-2.744-2.744-1.829-4.769-4.051-6.076-6.664h-.49L993.266 863h-4.116v-74.48h5.586v20.58Zm16.954 5.586c-3.99 0-7.25.849-9.8 2.548-2.483 1.699-4.312 4.181-5.488 7.448-1.111 3.267-1.666 7.317-1.666 12.152v.686c0 7.056 1.241 12.446 3.724 16.17 2.55 3.659 6.73 5.488 12.54 5.488 5.62 0 9.84-1.927 12.65-5.782 2.87-3.855 4.31-9.375 4.31-16.562 0-7.383-1.34-12.903-4.02-16.562-2.68-3.724-6.76-5.586-12.25-5.586Zm41.71-3.822V863h-5.49v-52.136h5.49Zm-2.74-19.306c1.24 0 2.19.392 2.84 1.176.65.719.98 1.731.98 3.038 0 1.372-.33 2.45-.98 3.234-.65.719-1.6 1.078-2.84 1.078-1.18 0-2.09-.359-2.75-1.078-.65-.784-.98-1.862-.98-3.234 0-1.307.33-2.319.98-3.038.66-.784 1.57-1.176 2.75-1.176Zm40.91 72.422c-5.1 0-9.45-1.045-13.04-3.136-3.53-2.156-6.24-5.227-8.13-9.212-1.83-3.985-2.75-8.787-2.75-14.406 0-5.88 1.05-10.845 3.14-14.896 2.16-4.051 5.1-7.121 8.82-9.212 3.72-2.156 8.1-3.234 13.13-3.234 2.48 0 4.8.261 6.96.784 2.22.457 4.18 1.078 5.88 1.862l-1.47 4.704c-1.76-.719-3.66-1.274-5.68-1.666-2.03-.457-3.96-.686-5.79-.686-4.18 0-7.71.915-10.58 2.744-2.81 1.764-4.97 4.312-6.47 7.644-1.44 3.332-2.15 7.317-2.15 11.956 0 4.312.62 8.134 1.86 11.466 1.3 3.267 3.3 5.815 5.98 7.644 2.67 1.829 6.1 2.744 10.29 2.744 2.54 0 4.93-.261 7.15-.784 2.29-.523 4.38-1.209 6.27-2.058v5.096c-1.7.719-3.66 1.339-5.88 1.862-2.22.523-4.74.784-7.54.784Zm96.17-.98-9.31-24.108h-29.11L1139.91 863h-5.78l27.54-70.168h5.1L1193.62 863h-5.88Zm-20.48-54.488c-.2-.653-.49-1.535-.89-2.646-.39-1.111-.78-2.287-1.17-3.528a47.688 47.688 0 0 0-1.18-3.332 75.894 75.894 0 0 1-1.08 3.43 38.261 38.261 0 0 1-1.07 3.332 55.223 55.223 0 0 1-.98 2.842l-9.61 25.186h25.38l-9.4-25.284Zm55.99 55.468c-5.09 0-9.44-1.045-13.03-3.136-3.53-2.156-6.24-5.227-8.14-9.212-1.82-3.985-2.74-8.787-2.74-14.406 0-5.88 1.05-10.845 3.14-14.896 2.15-4.051 5.09-7.121 8.82-9.212 3.72-2.156 8.1-3.234 13.13-3.234 2.48 0 4.8.261 6.96.784 2.22.457 4.18 1.078 5.88 1.862l-1.47 4.704a30.347 30.347 0 0 0-5.69-1.666c-2.02-.457-3.95-.686-5.78-.686-4.18 0-7.71.915-10.58 2.744-2.81 1.764-4.97 4.312-6.47 7.644-1.44 3.332-2.16 7.317-2.16 11.956 0 4.312.62 8.134 1.86 11.466 1.31 3.267 3.3 5.815 5.98 7.644 2.68 1.829 6.11 2.744 10.29 2.744 2.55 0 4.94-.261 7.16-.784 2.28-.523 4.37-1.209 6.27-2.058v5.096c-1.7.719-3.66 1.339-5.88 1.862-2.22.523-4.74.784-7.55.784Zm31.22-53.116V863h-5.48v-52.136h5.48Zm-2.74-19.306c1.24 0 2.19.392 2.84 1.176.66.719.98 1.731.98 3.038 0 1.372-.32 2.45-.98 3.234-.65.719-1.6 1.078-2.84 1.078-1.18 0-2.09-.359-2.74-1.078-.66-.784-.98-1.862-.98-3.234 0-1.307.32-2.319.98-3.038.65-.784 1.56-1.176 2.74-1.176Zm38.75 72.422c-6.99 0-12.38-2.221-16.17-6.664-3.72-4.508-5.58-11.107-5.58-19.796 0-9.016 1.96-15.876 5.88-20.58 3.98-4.704 9.44-7.056 16.36-7.056 2.94 0 5.49.457 7.65 1.372 2.15.849 3.98 2.025 5.48 3.528 1.57 1.503 2.78 3.201 3.63 5.096h.39c-.06-1.568-.16-3.267-.29-5.096-.07-1.895-.1-3.593-.1-5.096V788.52h5.59V863h-4.51l-.79-9.114h-.29a20.761 20.761 0 0 1-3.63 5.096c-1.5 1.503-3.36 2.711-5.58 3.626s-4.9 1.372-8.04 1.372Zm.69-4.802c6.07 0 10.35-1.829 12.84-5.488 2.54-3.659 3.82-8.951 3.82-15.876v-.882c0-7.187-1.28-12.675-3.82-16.464-2.49-3.855-6.64-5.782-12.45-5.782-5.62 0-9.87 1.993-12.74 5.978-2.88 3.92-4.31 9.571-4.31 16.954 0 7.056 1.37 12.413 4.11 16.072 2.75 3.659 6.93 5.488 12.55 5.488Zm38.38.098c0-1.633.36-2.842 1.08-3.626.71-.784 1.73-1.176 3.03-1.176 1.44 0 2.52.392 3.24 1.176.78.784 1.17 1.993 1.17 3.626 0 1.568-.39 2.777-1.17 3.626-.72.784-1.8 1.176-3.24 1.176-1.3 0-2.32-.392-3.03-1.176-.72-.849-1.08-2.058-1.08-3.626Zm0-44.492c0-1.568.36-2.744 1.08-3.528.71-.849 1.73-1.274 3.03-1.274 1.44 0 2.52.425 3.24 1.274.78.784 1.17 1.96 1.17 3.528 0 1.633-.39 2.875-1.17 3.724-.72.784-1.8 1.176-3.24 1.176-1.3 0-2.32-.392-3.03-1.176-.72-.849-1.08-2.091-1.08-3.724Zm81.23-17.64c-4.31 0-8.2.751-11.66 2.254-3.4 1.437-6.27 3.528-8.63 6.272-2.35 2.679-4.14 5.913-5.39 9.702-1.24 3.724-1.86 7.873-1.86 12.446 0 6.272.98 11.76 2.94 16.464 1.96 4.639 4.9 8.232 8.82 10.78 3.99 2.548 8.92 3.822 14.8 3.822 3.4 0 6.53-.261 9.41-.784 2.87-.523 5.52-1.176 7.94-1.96v4.9c-2.36.915-5 1.633-7.94 2.156-2.88.523-6.24.784-10.1.784-6.99 0-12.87-1.503-17.64-4.508-4.7-3.005-8.26-7.219-10.68-12.642-2.35-5.423-3.53-11.76-3.53-19.012 0-5.161.76-9.931 2.26-14.308 1.5-4.377 3.69-8.167 6.56-11.368 2.88-3.201 6.37-5.684 10.49-7.448 4.18-1.764 8.95-2.646 14.31-2.646 3.33 0 6.53.327 9.6.98 3.14.653 6.05 1.601 8.72 2.842l-2.25 4.998a32.882 32.882 0 0 0-7.84-2.744c-2.68-.653-5.45-.98-8.33-.98ZM1526.51 863h-5.68v-34.104h-39.89V863h-5.68v-69.972h5.68V823.8h39.89v-30.772h5.68V863Zm112.07-35.084c0 5.357-.69 10.225-2.06 14.602-1.31 4.377-3.27 8.199-5.88 11.466-2.62 3.201-5.92 5.684-9.9 7.448-3.92 1.699-8.49 2.548-13.72 2.548-5.29 0-9.9-.882-13.82-2.646-3.92-1.764-7.19-4.247-9.8-7.448-2.61-3.201-4.57-6.991-5.88-11.368-1.31-4.443-1.96-9.343-1.96-14.7 0-7.121 1.18-13.361 3.53-18.718 2.42-5.357 5.98-9.539 10.68-12.544 4.77-3.071 10.65-4.606 17.64-4.606 6.73 0 12.38 1.47 16.96 4.41 4.63 2.875 8.16 6.991 10.58 12.348 2.42 5.357 3.63 11.76 3.63 19.208Zm-57.04-.098c0 6.272.91 11.727 2.74 16.366 1.83 4.639 4.64 8.265 8.43 10.878 3.79 2.613 8.59 3.92 14.41 3.92 5.88 0 10.68-1.274 14.4-3.822 3.79-2.613 6.57-6.239 8.33-10.878 1.83-4.639 2.75-10.094 2.75-16.366 0-9.735-2.13-17.313-6.37-22.736-4.18-5.423-10.46-8.134-18.82-8.134-5.88 0-10.75 1.274-14.6 3.822-3.79 2.548-6.63 6.141-8.53 10.78-1.83 4.639-2.74 10.029-2.74 16.17Z" fill="#3C4043"/><path d="M1454.3 832.914c1.17 0 2.28.065 3.33.196 1.11.131 2.09.294 2.94.49v4.214c-.78-.261-1.76-.457-2.94-.588a20.913 20.913 0 0 0-3.63-.294c-3.52 0-6.37.719-8.52 2.156-2.16 1.372-3.76 3.365-4.8 5.978-1.05 2.613-1.67 5.717-1.87 9.31h.3c.98-1.437 2.38-2.679 4.21-3.724 1.9-1.045 4.25-1.568 7.06-1.568 3.92 0 7.05 1.143 9.41 3.43 2.35 2.287 3.52 5.521 3.52 9.702 0 2.94-.62 5.488-1.86 7.644-1.17 2.156-2.81 3.789-4.9 4.9-2.09 1.176-4.54 1.764-7.35 1.764-2.87 0-5.45-.686-7.74-2.058-2.29-1.307-4.08-3.299-5.39-5.978-1.31-2.679-1.96-6.011-1.96-9.996 0-4.116.39-7.742 1.18-10.878.78-3.201 1.99-5.88 3.62-8.036 1.63-2.221 3.73-3.887 6.27-4.998 2.55-1.111 5.59-1.666 9.12-1.666Zm-4.9 20.09c-1.83 0-3.53.359-5.1 1.078-1.57.653-2.84 1.601-3.82 2.842-.92 1.241-1.37 2.711-1.37 4.41 0 2.091.39 3.985 1.17 5.684.79 1.699 1.93 3.038 3.43 4.018 1.51.98 3.3 1.47 5.39 1.47 2.81 0 5.1-.882 6.86-2.646 1.83-1.764 2.75-4.279 2.75-7.546 0-3.005-.82-5.292-2.45-6.86-1.57-1.633-3.86-2.45-6.86-2.45Zm103.44-19.796c3.72 0 6.76.915 9.11 2.744 2.35 1.764 3.53 4.247 3.53 7.448 0 2.483-.69 4.541-2.06 6.174s-3.26 2.973-5.68 4.018c3 1.045 5.26 2.483 6.76 4.312 1.5 1.764 2.25 3.985 2.25 6.664 0 3.397-1.27 6.174-3.82 8.33-2.48 2.221-5.81 3.332-9.99 3.332-3.01 0-5.56-.49-7.65-1.47-2.02-.915-3.59-2.254-4.7-4.018-1.05-1.699-1.57-3.659-1.57-5.88 0-1.96.33-3.593.98-4.9.65-1.372 1.6-2.581 2.84-3.626 1.31-1.045 2.81-1.927 4.51-2.646-2.48-1.176-4.31-2.548-5.49-4.116-1.11-1.568-1.66-3.561-1.66-5.978 0-2.091.52-3.92 1.56-5.488 1.12-1.568 2.62-2.777 4.51-3.626 1.96-.849 4.15-1.274 6.57-1.274Zm-.98 22.344c-1.9.588-3.46 1.339-4.71 2.254-1.17.849-2.09 1.862-2.74 3.038-.59 1.111-.88 2.45-.88 4.018 0 2.156.82 3.92 2.45 5.292 1.63 1.437 3.92 2.156 6.86 2.156 3.07 0 5.39-.686 6.96-2.058 1.56-1.372 2.35-3.234 2.35-5.586 0-1.895-.69-3.561-2.06-4.998-1.37-1.503-3.66-2.744-6.86-3.724l-1.37-.392Zm.88-18.62c-2.42 0-4.34.621-5.78 1.862-1.44 1.176-2.16 2.777-2.16 4.802 0 2.091.72 3.757 2.16 4.998 1.44 1.241 3.43 2.287 5.98 3.136 2.61-.784 4.57-1.829 5.88-3.136 1.37-1.307 2.05-3.005 2.05-5.096 0-2.025-.71-3.626-2.15-4.802-1.37-1.176-3.37-1.764-5.98-1.764Zm113.92-4.018c1.18 0 2.29.065 3.33.196 1.11.131 2.09.294 2.94.49v4.214c-.78-.261-1.76-.457-2.94-.588a20.877 20.877 0 0 0-3.62-.294c-3.53 0-6.37.719-8.53 2.156-2.15 1.372-3.75 3.365-4.8 5.978-1.05 2.613-1.67 5.717-1.86 9.31h.29c.98-1.437 2.39-2.679 4.22-3.724 1.89-1.045 4.24-1.568 7.05-1.568 3.92 0 7.06 1.143 9.41 3.43 2.35 2.287 3.53 5.521 3.53 9.702 0 2.94-.62 5.488-1.86 7.644-1.18 2.156-2.81 3.789-4.9 4.9-2.09 1.176-4.54 1.764-7.35 1.764-2.88 0-5.46-.686-7.75-2.058-2.28-1.307-4.08-3.299-5.39-5.978-1.3-2.679-1.96-6.011-1.96-9.996 0-4.116.4-7.742 1.18-10.878.78-3.201 1.99-5.88 3.63-8.036 1.63-2.221 3.72-3.887 6.27-4.998 2.55-1.111 5.58-1.666 9.11-1.666Zm-4.9 20.09c-1.83 0-3.53.359-5.09 1.078-1.57.653-2.85 1.601-3.83 2.842-.91 1.241-1.37 2.711-1.37 4.41 0 2.091.39 3.985 1.18 5.684.78 1.699 1.93 3.038 3.43 4.018 1.5.98 3.3 1.47 5.39 1.47 2.81 0 5.09-.882 6.86-2.646 1.83-1.764 2.74-4.279 2.74-7.546 0-3.005-.81-5.292-2.45-6.86-1.57-1.633-3.85-2.45-6.86-2.45Z" fill="#1A73E8"/><path d="M260.02 242.42c-.36 0-1.2-.04-2.52-.12-1.28-.08-2.74-.16-4.38-.24-1.64-.04-3.2-.06-4.68-.06-.72 0-1.38.02-1.98.06-.56.04-1.16.08-1.8.12-.64.08-1.46.12-2.46.12-.48 0-.84-.06-1.08-.18-.24-.08-.36-.24-.36-.48 0-.64.72-1 2.16-1.08 1.28-.04 2.24-.22 2.88-.54.68-.36 1.2-.86 1.56-1.5.36-.68.7-1.5 1.02-2.46l9-27.66c.32-.96.2-1.66-.36-2.1-.52-.48-1.24-.82-2.16-1.02-.92-.24-1.82-.44-2.7-.6-.6-.12-1-.28-1.2-.48-.16-.2-.24-.44-.24-.72 0-.24.18-.4.54-.48.36-.12.78-.18 1.26-.18 1.6 0 3.06.04 4.38.12 1.32.08 2.6.12 3.84.12.8 0 1.48-.02 2.04-.06.6-.08 1.2-.14 1.8-.18.64-.08 1.42-.12 2.34-.12 3.76 0 7.04.64 9.84 1.92 2.8 1.24 4.98 3.1 6.54 5.58 1.6 2.44 2.4 5.5 2.4 9.18 0 3.04-.62 5.94-1.86 8.7-1.24 2.76-3 5.22-5.28 7.38-2.28 2.16-5 3.86-8.16 5.1-3.12 1.24-6.58 1.86-10.38 1.86Zm.3-1.8c3 0 5.72-.62 8.16-1.86 2.48-1.24 4.62-2.92 6.42-5.04 1.8-2.16 3.18-4.56 4.14-7.2 1-2.68 1.5-5.42 1.5-8.22 0-3.08-.52-5.62-1.56-7.62s-2.54-3.5-4.5-4.5c-1.92-1-4.24-1.5-6.96-1.5-1.68 0-2.88.12-3.6.36-.72.2-1.2.54-1.44 1.02-.2.44-.42 1-.66 1.68l-8.16 25.8c-.56 1.76-.64 3.16-.24 4.2s1.18 1.78 2.34 2.22c1.2.44 2.72.66 4.56.66Zm32.157 2.28c-.84 0-1.7-.32-2.58-.96a8.121 8.121 0 0 1-2.1-2.4c-.56-1-.84-1.96-.84-2.88 0-2 .4-4.12 1.2-6.36.84-2.28 1.98-4.4 3.42-6.36 1.44-2 3.1-3.62 4.98-4.86 1.92-1.28 3.94-1.92 6.06-1.92 1.4 0 2.48.3 3.24.9.8.56 1.2 1.36 1.2 2.4 0 1.24-.4 2.32-1.2 3.24-.76.92-1.8 1.72-3.12 2.4-1.32.64-2.8 1.18-4.44 1.62-1.6.44-3.24.82-4.92 1.14-.24.04-.44.1-.6.18-.12.04-.22.18-.3.42-.28.88-.56 1.84-.84 2.88-.28 1.04-.42 2.02-.42 2.94 0 1.4.26 2.48.78 3.24.56.76 1.36 1.14 2.4 1.14 1.44 0 2.66-.36 3.66-1.08 1-.72 1.82-1.44 2.46-2.16.4-.44.76-.66 1.08-.66.4 0 .6.2.6.6v.24c0 .08-.04.16-.12.24-.8 1.32-1.7 2.44-2.7 3.36-1 .88-2.08 1.54-3.24 1.98-1.12.48-2.34.72-3.66.72Zm1.32-15.42c.44 0 1.18-.12 2.22-.36 1.08-.28 2.2-.7 3.36-1.26 1.16-.6 2.14-1.32 2.94-2.16.84-.88 1.26-1.92 1.26-3.12 0-.52-.14-.96-.42-1.32-.28-.4-.68-.6-1.2-.6-.84 0-1.76.36-2.76 1.08-.96.68-1.88 1.52-2.76 2.52-.88.96-1.62 1.9-2.22 2.82-.56.92-.84 1.6-.84 2.04 0 .24.14.36.42.36Zm16.609 15.36c-.32 0-.68-.14-1.08-.42-.4-.24-.74-.52-1.02-.84-.24-.36-.36-.68-.36-.96 0-.68.08-1.26.24-1.74.2-.48.4-1.02.6-1.62l5.7-16.02c.08-.28.04-.46-.12-.54a.649.649 0 0 0-.48-.18l-2.4-.12c-.52-.04-.84-.14-.96-.3-.08-.2-.12-.38-.12-.54 0-.08.1-.22.3-.42.2-.24.44-.46.72-.66.32-.24.66-.36 1.02-.36h2.16c.44 0 .74-.06.9-.18.16-.16.34-.46.54-.9l1.44-2.94c.16-.32.46-.68.9-1.08.44-.44.88-.82 1.32-1.14.48-.32.82-.48 1.02-.48.32 0 .52.22.6.66.08.44.04.86-.12 1.26l-1.56 4.02c-.08.28-.06.46.06.54.16.08.4.12.72.12.8 0 1.62.06 2.46.18.84.12 1.52.22 2.04.3.64.12 1.02.26 1.14.42.16.12.24.28.24.48 0 .08-.08.22-.24.42-.16.16-.46.26-.9.3-.88.04-1.72.1-2.52.18-.8.04-1.64.08-2.52.12-.64.04-1.1.14-1.38.3-.24.16-.4.36-.48.6l-5.34 14.76c-.16.48-.24.9-.24 1.26s.1.64.3.84c.24.2.58.3 1.02.3.56 0 1.16-.2 1.8-.6.64-.4 1.26-.86 1.86-1.38.6-.52 1.1-.98 1.5-1.38.44-.44.82-.64 1.14-.6.32.04.48.18.48.42 0 .28-.1.6-.3.96-.2.32-.46.66-.78 1.02-.64.68-1.32 1.32-2.04 1.92-.68.6-1.4 1.16-2.16 1.68-.72.48-1.42.9-2.1 1.26-.64.32-1.22.58-1.74.78-.52.2-.94.3-1.26.3Zm16.38 0c-.48 0-.96-.14-1.44-.42-.48-.24-.88-.56-1.2-.96-.28-.4-.42-.82-.42-1.26 0-1.44.48-3.1 1.44-4.98.96-1.92 2.3-3.92 4.02-6 1.72-2.12 3.7-4.16 5.94-6.12 2.16-1.88 3.92-3.28 5.28-4.2 1.36-.96 2.36-1.44 3-1.44.64 0 1.2.28 1.68.84.56.72.8 1.06.72 1.02-.04-.08-.04-.12 0-.12.08 0 .14-.02.18-.06.08-.08.14-.18.18-.3.56-.96.9-1.54 1.02-1.74.12-.2.12-.22 0-.06.24-.4.48-.6.72-.6.36 0 .72.06 1.08.18.36.12.64.28.84.48.24.2.36.4.36.6 0 .2-.14.7-.42 1.5l-6.72 17.82c-.52 1.36-.26 2.04.78 2.04.72 0 1.58-.34 2.58-1.02 1.04-.72 1.94-1.58 2.7-2.58a.94.94 0 0 1 .24-.18c.12-.08.22-.12.3-.12.16 0 .26.06.3.18.08.08.12.24.12.48 0 .28-.28.84-.84 1.68-.56.8-1.14 1.5-1.74 2.1-1.12 1.04-2.26 1.84-3.42 2.4-1.12.56-2.16.84-3.12.84-.4 0-.8-.12-1.2-.36-.4-.24-.74-.54-1.02-.9-.24-.36-.36-.72-.36-1.08 0-.44.12-.9.36-1.38-.16.36-.18.36-.06 0 .16-.36.4-.92.72-1.68l1.14-2.4c.4-.84.74-1.58 1.02-2.22.2-.44.28-.76.24-.96 0-.24-.12-.22-.36.06-2.44 2.72-4.54 4.88-6.3 6.48-1.72 1.6-3.24 2.74-4.56 3.42-1.32.68-2.58 1.02-3.78 1.02Zm3.36-3.78c.88 0 2.18-.72 3.9-2.16 1.76-1.48 3.74-3.52 5.94-6.12 1.52-1.76 2.72-3.38 3.6-4.86.88-1.48 1.32-2.58 1.32-3.3 0-.32-.26-.7-.78-1.14-.24-.2-.5-.36-.78-.48s-.52-.18-.72-.18c-.72 0-1.72.36-3 1.08a17.85 17.85 0 0 0-3.42 2.58 36.527 36.527 0 0 0-3.78 4.32c-1.2 1.6-2.18 3.14-2.94 4.62-.72 1.48-1.08 2.68-1.08 3.6 0 .6.16 1.1.48 1.5.32.36.74.54 1.26.54Zm26.201 3.78c-.68 0-1.24-.22-1.68-.66-.44-.44-.66-.9-.66-1.38v-.48c.04-.16.1-.32.18-.48 1.64-3.32 3.02-6.44 4.14-9.36 1.12-2.96 2.12-5.54 3-7.74.16-.48.06-.72-.3-.72-.2 0-.6.12-1.2.36-.56.2-1.16.48-1.8.84-.64.36-1.2.72-1.68 1.08-.2.16-.4.2-.6.12-.2-.08-.3-.22-.3-.42 0-.2.14-.48.42-.84.32-.4.74-.84 1.26-1.32.56-.48 1.22-.98 1.98-1.5a29.1 29.1 0 0 1 2.46-1.62c.92-.56 1.88-1.06 2.88-1.5.36-.16.72-.12 1.08.12.36.24.64.54.84.9.24.36.32.64.24.84l-7.32 17.34c-.16.32-.28.64-.36.96-.04.28-.06.54-.06.78 0 .28.1.48.3.6.24.08.46.12.66.12.56 0 1.2-.26 1.92-.78.72-.56 1.48-1.22 2.28-1.98.84-.8 1.64-1.58 2.4-2.34.08-.08.16-.12.24-.12.08 0 .16.04.24.12.08.04.12.1.12.18 0 .64-.38 1.46-1.14 2.46-.76.96-1.72 1.94-2.88 2.94-1.12.96-2.28 1.78-3.48 2.46-1.2.68-2.26 1.02-3.18 1.02Zm12.12-31.62c-.6 0-1.1-.24-1.5-.72-.4-.48-.6-1.02-.6-1.62 0-.96.32-1.8.96-2.52.64-.76 1.44-1.14 2.4-1.14.64 0 1.14.28 1.5.84.36.52.54 1.1.54 1.74 0 .88-.32 1.68-.96 2.4-.64.68-1.42 1.02-2.34 1.02Zm3.393 31.62c-.52 0-1.1-.28-1.74-.84-.64-.56-.96-1.16-.96-1.8 0-.24.04-.48.12-.72l11.4-32.46c.2-.56.34-1.1.42-1.62.12-.52.18-1.04.18-1.56 0-.36-.2-.7-.6-1.02-.36-.32-.82-.54-1.38-.66-.4-.08-.72-.18-.96-.3-.24-.16-.36-.32-.36-.48v-.3l.12-.24c.08-.08.16-.12.24-.12.76-.2 1.68-.38 2.76-.54 1.08-.2 2.08-.36 3-.48.96-.16 1.6-.24 1.92-.24.2 0 .36.08.48.24.16.12.24.34.24.66 0 .24-.04.52-.12.84l-.24.84-12.12 34.56c-.12.32-.2.64-.24.96-.04.28-.06.54-.06.78 0 .64.2.96.6.96.56 0 1.24-.3 2.04-.9.84-.64 1.66-1.4 2.46-2.28.8-.88 1.44-1.66 1.92-2.34.24-.32.52-.62.84-.9.32-.32.56-.48.72-.48.16 0 .24.08.24.24.04.12.06.3.06.54 0 .8-.28 1.64-.84 2.52-.52.88-1.22 1.76-2.1 2.64-.88.84-1.82 1.6-2.82 2.28-1 .68-1.96 1.22-2.88 1.62-.92.4-1.7.6-2.34.6Zm15.368 0c-.88 0-1.64-.26-2.28-.78-.64-.48-.96-1.1-.96-1.86 0-.92.22-1.6.66-2.04.4-.48.74-.72 1.02-.72s.56.12.84.36c.32.2.66.46 1.02.78.44.32.92.64 1.44.96.56.28 1.28.42 2.16.42 1.08 0 1.94-.38 2.58-1.14.64-.8.98-1.64 1.02-2.52 0-.88-.16-1.82-.48-2.82-.28-1.04-.7-2.06-1.26-3.06-.52-.96-.96-1.86-1.32-2.7-.32-.88-.48-1.62-.48-2.22 0-1.16.3-2.24.9-3.24.64-1.04 1.4-1.94 2.28-2.7.92-.76 1.82-1.34 2.7-1.74.88-.44 1.58-.66 2.1-.66s1.04.16 1.56.48c.52.28.94.62 1.26 1.02.36.36.54.68.54.96 0 .24-.12.54-.36.9-.24.32-.52.62-.84.9-.32.28-.6.42-.84.42-.2 0-.4-.1-.6-.3l-.66-.66c-.24-.24-.54-.46-.9-.66-.32-.2-.76-.3-1.32-.3-.64 0-1.2.28-1.68.84-.48.52-.72 1.22-.72 2.1 0 .32.1.82.3 1.5.24.68.5 1.38.78 2.1.32.72.62 1.36.9 1.92.44.8.84 1.82 1.2 3.06.4 1.2.6 2.26.6 3.18 0 1.2-.36 2.3-1.08 3.3-.68 1-1.58 1.88-2.7 2.64-1.12.72-2.34 1.28-3.66 1.68-1.28.4-2.52.6-3.72.6Zm30.994 0c-.68 0-1.24-.22-1.68-.66-.44-.44-.66-.9-.66-1.38v-.48c.04-.16.1-.32.18-.48 1.64-3.32 3.02-6.44 4.14-9.36 1.12-2.96 2.12-5.54 3-7.74.16-.48.06-.72-.3-.72-.2 0-.6.12-1.2.36-.56.2-1.16.48-1.8.84-.64.36-1.2.72-1.68 1.08-.2.16-.4.2-.6.12-.2-.08-.3-.22-.3-.42 0-.2.14-.48.42-.84.32-.4.74-.84 1.26-1.32.56-.48 1.22-.98 1.98-1.5a29.1 29.1 0 0 1 2.46-1.62c.92-.56 1.88-1.06 2.88-1.5.36-.16.72-.12 1.08.12.36.24.64.54.84.9.24.36.32.64.24.84l-7.32 17.34c-.16.32-.28.64-.36.96-.04.28-.06.54-.06.78 0 .28.1.48.3.6.24.08.46.12.66.12.56 0 1.2-.26 1.92-.78.72-.56 1.48-1.22 2.28-1.98.84-.8 1.64-1.58 2.4-2.34.08-.08.16-.12.24-.12.08 0 .16.04.24.12.08.04.12.1.12.18 0 .64-.38 1.46-1.14 2.46-.76.96-1.72 1.94-2.88 2.94-1.12.96-2.28 1.78-3.48 2.46-1.2.68-2.26 1.02-3.18 1.02Zm12.12-31.62c-.6 0-1.1-.24-1.5-.72-.4-.48-.6-1.02-.6-1.62 0-.96.32-1.8.96-2.52.64-.76 1.44-1.14 2.4-1.14.64 0 1.14.28 1.5.84.36.52.54 1.1.54 1.74 0 .88-.32 1.68-.96 2.4-.64.68-1.42 1.02-2.34 1.02Zm4.458 31.74c-.24 0-.48-.1-.72-.3-.2-.16-.38-.38-.54-.66-.16-.24-.28-.52-.36-.84-.04-.32 0-.6.12-.84l6.96-17.04c.72-1.76.76-2.64.12-2.64-.4 0-.82.06-1.26.18-.44.08-.92.32-1.44.72-.52.4-1.1 1.02-1.74 1.86-.16.16-.34.24-.54.24-.16-.04-.28-.2-.36-.48 0-.24.06-.54.18-.9.16-.4.34-.78.54-1.14.2-.4.38-.72.54-.96.6-.92 1.4-1.64 2.4-2.16 1.04-.52 2.24-.8 3.6-.84.44 0 .84.12 1.2.36.36.2.62.5.78.9.2.4.2.84 0 1.32l-3.96 10.2c-.12.28-.1.44.06.48.2.04.36-.04.48-.24 1.64-2.8 3.3-5.16 4.98-7.08 1.72-1.96 3.36-3.44 4.92-4.44 1.56-1 2.94-1.5 4.14-1.5.84 0 1.56.3 2.16.9.64.56 1.04 1.34 1.2 2.34.2.96.02 2.08-.54 3.36l-5.52 13.08c-.6 1.44-.5 2.16.3 2.16.48 0 1.06-.18 1.74-.54.72-.36 1.44-.78 2.16-1.26.72-.52 1.34-.98 1.86-1.38.56-.44.92-.74 1.08-.9l.06-.06h.12c.12 0 .22.06.3.18.12.08.18.2.18.36 0 .32-.08.6-.24.84a26.66 26.66 0 0 1-3.36 3.36c-1.16 1-2.38 1.8-3.66 2.4-1.24.56-2.5.84-3.78.84-.36 0-.72-.14-1.08-.42-.36-.24-.64-.56-.84-.96-.16-.4-.14-.82.06-1.26 1.16-2.68 2.32-5.34 3.48-7.98 1.2-2.68 2.32-5.36 3.36-8.04.64-1.64.86-2.78.66-3.42-.2-.68-.58-1.04-1.14-1.08-.44-.04-.96.12-1.56.48-.6.32-1.28.84-2.04 1.56-.76.68-1.58 1.56-2.46 2.64-.48.56-1.12 1.44-1.92 2.64-.8 1.16-1.7 2.52-2.7 4.08-1 1.52-2.04 3.16-3.12 4.92-1.04 1.72-2.04 3.42-3 5.1-.36.64-.68 1.1-.96 1.38-.28.32-.58.48-.9.48Zm40.052-.66c-.48 0-.82-.06-1.02-.18-.24-.08-.36-.24-.36-.48 0-.28.18-.48.54-.6.32-.16.82-.34 1.5-.54 1.28-.36 2.22-.7 2.82-1.02.64-.32 1.1-.92 1.38-1.8l8.94-28.74c.44-1.4.6-2.38.48-2.94-.12-.6-.84-1.04-2.16-1.32-.6-.12-1-.28-1.2-.48-.16-.2-.24-.44-.24-.72 0-.24.18-.4.54-.48.36-.12.78-.18 1.26-.18 1 0 1.78.02 2.34.06.56.04 1.08.08 1.56.12h3.66c.52-.04 1.08-.08 1.68-.12.6-.04 1.4-.06 2.4-.06.96 0 1.44.22 1.44.66 0 .28-.2.52-.6.72-.4.2-.94.36-1.62.48-.96.16-1.78.44-2.46.84-.68.36-1.24.82-1.68 1.38-.4.56-.72 1.24-.96 2.04l-3.66 11.82c-.08.36.12.54.6.54h20.1c.24 0 .44-.24.6-.72l3.66-11.7c.32-1.08.32-1.98 0-2.7-.28-.72-1.08-1.22-2.4-1.5-.6-.12-1-.28-1.2-.48-.16-.2-.24-.44-.24-.72 0-.24.18-.4.54-.48.36-.12.78-.18 1.26-.18 1 0 1.82.02 2.46.06.64.04 1.24.08 1.8.12h3.72c.36-.04.78-.08 1.26-.12.52-.04 1.28-.06 2.28-.06.48 0 .84.06 1.08.18.24.08.36.24.36.48 0 .56-.74.96-2.22 1.2-1.48.28-2.46.76-2.94 1.44-.48.68-.9 1.6-1.26 2.76l-8.7 28.26c-.28.96-.3 1.72-.06 2.28.28.56.98.94 2.1 1.14.6.12 1 .26 1.2.42.2.16.3.38.3.66 0 .24-.18.4-.54.48-.36.12-.78.18-1.26.18-1 0-1.78-.04-2.34-.12-.52-.04-1.02-.08-1.5-.12-.48-.04-1.1-.06-1.86-.06s-1.42.02-1.98.06c-.52.04-1.08.08-1.68.12-.6.08-1.4.12-2.4.12-.96 0-1.44-.22-1.44-.66 0-.28.18-.5.54-.66.4-.16.94-.3 1.62-.42 1.28-.2 2.36-.66 3.24-1.38.88-.72 1.52-1.72 1.92-3l3.72-11.7c.08-.2.14-.4.18-.6.08-.2.02-.3-.18-.3h-20.7c-.2 0-.36.22-.48.66l-3.54 11.52c-.52 1.72-.5 2.9.06 3.54.6.6 1.52 1.02 2.76 1.26.6.12 1 .26 1.2.42.2.16.3.38.3.66 0 .24-.18.4-.54.48-.36.12-.78.18-1.26.18-1 0-1.82-.04-2.46-.12-.64-.04-1.26-.08-1.86-.12-.6-.04-1.32-.06-2.16-.06-.8 0-1.48.02-2.04.06-.56.04-1.16.08-1.8.12-.6.08-1.4.12-2.4.12Zm51.358.54c-.96 0-1.86-.32-2.7-.96-.84-.64-1.52-1.48-2.04-2.52a7.782 7.782 0 0 1-.72-3.3c0-1.88.36-3.9 1.08-6.06.76-2.2 1.8-4.26 3.12-6.18 1.32-1.96 2.84-3.56 4.56-4.8 1.76-1.24 3.64-1.86 5.64-1.86 2 0 3.54.68 4.62 2.04 1.12 1.36 1.68 3.04 1.68 5.04 0 1.8-.36 3.78-1.08 5.94-.72 2.12-1.76 4.14-3.12 6.06-1.32 1.92-2.92 3.5-4.8 4.74-1.84 1.24-3.92 1.86-6.24 1.86Zm.96-1.8c.96 0 1.92-.42 2.88-1.26 1-.84 1.94-1.94 2.82-3.3.92-1.36 1.72-2.86 2.4-4.5.72-1.64 1.28-3.28 1.68-4.92.44-1.64.66-3.14.66-4.5 0-1.04-.18-1.9-.54-2.58-.32-.68-1-1.02-2.04-1.02-.92 0-1.88.38-2.88 1.14-.96.76-1.9 1.78-2.82 3.06-.88 1.28-1.68 2.72-2.4 4.32-.72 1.56-1.3 3.2-1.74 4.92-.4 1.68-.6 3.32-.6 4.92 0 1.32.22 2.28.66 2.88.48.56 1.12.84 1.92.84Zm17.542 1.8c-.52 0-1.1-.28-1.74-.84-.64-.56-.96-1.16-.96-1.8 0-.24.04-.48.12-.72l11.4-32.46c.2-.56.34-1.1.42-1.62.12-.52.18-1.04.18-1.56 0-.36-.2-.7-.6-1.02-.36-.32-.82-.54-1.38-.66-.4-.08-.72-.18-.96-.3-.24-.16-.36-.32-.36-.48v-.3l.12-.24c.08-.08.16-.12.24-.12.76-.2 1.68-.38 2.76-.54 1.08-.2 2.08-.36 3-.48.96-.16 1.6-.24 1.92-.24.2 0 .36.08.48.24.16.12.24.34.24.66 0 .24-.04.52-.12.84l-.24.84-12.12 34.56c-.12.32-.2.64-.24.96-.04.28-.06.54-.06.78 0 .64.2.96.6.96.56 0 1.24-.3 2.04-.9.84-.64 1.66-1.4 2.46-2.28.8-.88 1.44-1.66 1.92-2.34.24-.32.52-.62.84-.9.32-.32.56-.48.72-.48.16 0 .24.08.24.24.04.12.06.3.06.54 0 .8-.28 1.64-.84 2.52-.52.88-1.22 1.76-2.1 2.64-.88.84-1.82 1.6-2.82 2.28-1 .68-1.96 1.22-2.88 1.62-.92.4-1.7.6-2.34.6Zm18.008 0c-1.16 0-2.1-.4-2.82-1.2-.72-.8-1.08-1.84-1.08-3.12 0-1.52.32-3.22.96-5.1.68-1.88 1.58-3.78 2.7-5.7 1.16-1.92 2.46-3.7 3.9-5.34 1.56-1.76 3.14-3.12 4.74-4.08 1.6-1 3.04-1.5 4.32-1.5.52 0 .94.08 1.26.24.32.12 1.04.54 2.16 1.26.84.52 1.3.82 1.38.9.12.04.14.06.06.06.12 0 .22-.14.3-.42l4.02-13.5c.08-.24.12-.42.12-.54.04-.16.06-.26.06-.3a.46.46 0 0 0 .06-.18v-.18c0-.44-.12-.78-.36-1.02-.24-.28-.68-.54-1.32-.78-.88-.32-1.4-.5-1.56-.54-.16-.08-.24-.18-.24-.3 0-.28.16-.5.48-.66.32-.16.84-.3 1.56-.42l1.8-.24c.64-.12 1.22-.2 1.74-.24.52-.08.96-.14 1.32-.18.36-.04.6-.06.72-.06.48 0 .72.28.72.84 0 .2-.02.42-.06.66-.04.2-.1.44-.18.72l-9.72 33.66-.24.96c-.04.28-.06.58-.06.9 0 .88.28 1.32.84 1.32.52 0 1.14-.18 1.86-.54.72-.4 1.44-.92 2.16-1.56.72-.64 1.34-1.32 1.86-2.04.08-.12.16-.2.24-.24.08-.04.16-.06.24-.06.32 0 .44.16.36.48 0 .44-.22 1-.66 1.68-.44.68-1.02 1.4-1.74 2.16-.72.72-1.5 1.4-2.34 2.04-.8.64-1.58 1.16-2.34 1.56-.76.4-1.4.6-1.92.6-.44 0-.86-.14-1.26-.42-.4-.24-.74-.56-1.02-.96-.24-.44-.36-.88-.36-1.32 0-.2.08-.72.24-1.56.08-.44.2-.98.36-1.62.16-.68.3-1.32.42-1.92.16-.64.26-1.1.3-1.38.08-.28.08-.24 0 .12.08-.32.06-.54-.06-.66-.08-.16-.18-.14-.3.06-2.76 3.48-5.18 5.96-7.26 7.44-2.08 1.48-4.2 2.22-6.36 2.22Zm2.22-2.82c1.08 0 2.26-.38 3.54-1.14 1.28-.8 2.54-1.84 3.78-3.12 1.28-1.32 2.44-2.76 3.48-4.32 1.08-1.56 1.94-3.12 2.58-4.68.64-1.56.96-3 .96-4.32 0-1.16-.26-2.06-.78-2.7-.52-.68-1.26-1.02-2.22-1.02-.92 0-1.96.44-3.12 1.32-1.16.88-2.34 2.04-3.54 3.48-1.2 1.44-2.32 3.02-3.36 4.74-1 1.68-1.82 3.36-2.46 5.04-.6 1.68-.9 3.16-.9 4.44 0 .88.14 1.48.42 1.8.32.32.86.48 1.62.48Zm30.877 2.88c-.84 0-1.7-.32-2.58-.96a8.121 8.121 0 0 1-2.1-2.4c-.56-1-.84-1.96-.84-2.88 0-2 .4-4.12 1.2-6.36.84-2.28 1.98-4.4 3.42-6.36 1.44-2 3.1-3.62 4.98-4.86 1.92-1.28 3.94-1.92 6.06-1.92 1.4 0 2.48.3 3.24.9.8.56 1.2 1.36 1.2 2.4 0 1.24-.4 2.32-1.2 3.24-.76.92-1.8 1.72-3.12 2.4-1.32.64-2.8 1.18-4.44 1.62-1.6.44-3.24.82-4.92 1.14-.24.04-.44.1-.6.18-.12.04-.22.18-.3.42-.28.88-.56 1.84-.84 2.88-.28 1.04-.42 2.02-.42 2.94 0 1.4.26 2.48.78 3.24.56.76 1.36 1.14 2.4 1.14 1.44 0 2.66-.36 3.66-1.08 1-.72 1.82-1.44 2.46-2.16.4-.44.76-.66 1.08-.66.4 0 .6.2.6.6v.24c0 .08-.04.16-.12.24-.8 1.32-1.7 2.44-2.7 3.36-1 .88-2.08 1.54-3.24 1.98-1.12.48-2.34.72-3.66.72Zm1.32-15.42c.44 0 1.18-.12 2.22-.36 1.08-.28 2.2-.7 3.36-1.26 1.16-.6 2.14-1.32 2.94-2.16.84-.88 1.26-1.92 1.26-3.12 0-.52-.14-.96-.42-1.32-.28-.4-.68-.6-1.2-.6-.84 0-1.76.36-2.76 1.08-.96.68-1.88 1.52-2.76 2.52-.88.96-1.62 1.9-2.22 2.82-.56.92-.84 1.6-.84 2.04 0 .24.14.36.42.36Zm16.549 15.48c-.24 0-.48-.1-.72-.3-.2-.16-.38-.38-.54-.66-.16-.24-.28-.52-.36-.84-.04-.32 0-.6.12-.84l6.96-17.04c.72-1.76.76-2.64.12-2.64-.4 0-.82.06-1.26.18-.44.08-.92.32-1.44.72-.52.4-1.1 1.02-1.74 1.86-.16.16-.34.24-.54.24-.16-.04-.28-.2-.36-.48 0-.24.06-.54.18-.9.16-.4.34-.78.54-1.14.2-.4.38-.72.54-.96.6-.92 1.4-1.64 2.4-2.16 1.04-.52 2.24-.8 3.6-.84.44 0 .84.12 1.2.36.36.2.62.5.78.9.2.4.2.84 0 1.32l-3.96 10.2c-.12.28-.1.44.06.48.2.04.36-.04.48-.24 1.64-2.8 3.3-5.16 4.98-7.08 1.72-1.96 3.36-3.44 4.92-4.44 1.56-1 2.94-1.5 4.14-1.5.84 0 1.56.3 2.16.9.64.56 1.04 1.34 1.2 2.34.2.96.02 2.08-.54 3.36l-5.52 13.08c-.6 1.44-.5 2.16.3 2.16.48 0 1.06-.18 1.74-.54.72-.36 1.44-.78 2.16-1.26.72-.52 1.34-.98 1.86-1.38.56-.44.92-.74 1.08-.9l.06-.06h.12c.12 0 .22.06.3.18.12.08.18.2.18.36 0 .32-.08.6-.24.84a26.66 26.66 0 0 1-3.36 3.36c-1.16 1-2.38 1.8-3.66 2.4-1.24.56-2.5.84-3.78.84-.36 0-.72-.14-1.08-.42-.36-.24-.64-.56-.84-.96-.16-.4-.14-.82.06-1.26 1.16-2.68 2.32-5.34 3.48-7.98 1.2-2.68 2.32-5.36 3.36-8.04.64-1.64.86-2.78.66-3.42-.2-.68-.58-1.04-1.14-1.08-.44-.04-.96.12-1.56.48-.6.32-1.28.84-2.04 1.56-.76.68-1.58 1.56-2.46 2.64-.48.56-1.12 1.44-1.92 2.64-.8 1.16-1.7 2.52-2.7 4.08-1 1.52-2.04 3.16-3.12 4.92-1.04 1.72-2.04 3.42-3 5.1-.36.64-.68 1.1-.96 1.38-.28.32-.58.48-.9.48Zm36.561-27.54h-.78c-.2-.04-.3-.16-.3-.36 0-.2.14-.36.42-.48.28-.12.64-.3 1.08-.54 1.16-.64 2.14-1.32 2.94-2.04.84-.72 1.46-1.48 1.86-2.28.44-.8.66-1.6.66-2.4 0-.68-.22-1.18-.66-1.5-.4-.32-.82-.58-1.26-.78-.44-.24-.86-.5-1.26-.78-.36-.32-.54-.78-.54-1.38 0-.68.34-1.24 1.02-1.68.72-.48 1.48-.72 2.28-.72 1.08 0 2 .36 2.76 1.08.8.68 1.2 1.72 1.2 3.12 0 1.48-.32 2.88-.96 4.2-.6 1.32-1.4 2.46-2.4 3.42-.96.96-1.98 1.72-3.06 2.28-1.08.56-2.08.84-3 .84Zm5.751 27.42c-.88 0-1.64-.26-2.281-.78-.64-.48-.96-1.1-.96-1.86 0-.92.22-1.6.66-2.04.4-.48.74-.72 1.021-.72.28 0 .56.12.84.36.32.2.66.46 1.02.78.44.32.92.64 1.44.96.56.28 1.28.42 2.16.42 1.08 0 1.94-.38 2.58-1.14.64-.8.98-1.64 1.02-2.52 0-.88-.16-1.82-.48-2.82-.28-1.04-.7-2.06-1.26-3.06-.52-.96-.96-1.86-1.32-2.7-.32-.88-.48-1.62-.48-2.22 0-1.16.3-2.24.9-3.24.64-1.04 1.4-1.94 2.28-2.7.92-.76 1.82-1.34 2.7-1.74.88-.44 1.58-.66 2.1-.66s1.04.16 1.56.48c.52.28.94.62 1.26 1.02.36.36.54.68.54.96 0 .24-.12.54-.36.9-.24.32-.52.62-.84.9-.32.28-.6.42-.84.42-.2 0-.4-.1-.6-.3l-.66-.66c-.24-.24-.54-.46-.9-.66-.32-.2-.76-.3-1.32-.3-.64 0-1.2.28-1.68.84-.48.52-.72 1.22-.72 2.1 0 .32.1.82.3 1.5.24.68.5 1.38.78 2.1.32.72.62 1.36.9 1.92.44.8.84 1.82 1.2 3.06.4 1.2.6 2.26.6 3.18 0 1.2-.36 2.3-1.08 3.3-.68 1-1.58 1.88-2.7 2.64-1.12.72-2.34 1.28-3.66 1.68-1.28.4-2.52.6-3.72.6Zm30.633.18c-.2 0-.42-.08-.66-.24-.24-.12-.44-.3-.6-.54-.16-.2-.24-.42-.24-.66 0-.48.12-1.08.36-1.8.28-.76.62-1.7 1.02-2.82l5.52-14.4c.2-.52.28-1 .24-1.44 0-.44-.2-.66-.6-.66-.56 0-1.12.08-1.68.24-.52.12-.92.26-1.2.42-.24.16-.48.2-.72.12-.2-.12-.3-.32-.3-.6 0-.32.14-.68.42-1.08.32-.4.74-.78 1.26-1.14.48-.36 1.04-.66 1.68-.9.68-.24 1.38-.36 2.1-.36 1.12 0 1.82.28 2.1.84.32.56.36 1.32.12 2.28-.2.92-.54 1.98-1.02 3.18l-2.7 6.78c-.16.28-.12.46.12.54.28.08.48.02.6-.18 1.6-2.76 3.2-5.16 4.8-7.2 1.64-2.08 3.16-3.68 4.56-4.8 1.4-1.16 2.56-1.74 3.48-1.74 1.04 0 1.76.3 2.16.9.44.6.66 1.3.66 2.1 0 .72-.14 1.46-.42 2.22-.24.76-.6 1.4-1.08 1.92-.44.48-.94.72-1.5.72-.32 0-.56-.18-.72-.54-.16-.4-.24-.92-.24-1.56 0-.6-.08-1.06-.24-1.38-.16-.36-.46-.54-.9-.54-.4 0-.94.26-1.62.78-.64.52-1.46 1.42-2.46 2.7-.44.6-1.02 1.42-1.74 2.46s-1.5 2.2-2.34 3.48c-.8 1.24-1.6 2.52-2.4 3.84-.8 1.28-1.5 2.46-2.1 3.54-1.08 1.92-1.86 3.32-2.34 4.2-.44.88-.9 1.32-1.38 1.32Zm25.495-.12c-.84 0-1.7-.32-2.58-.96a8.121 8.121 0 0 1-2.1-2.4c-.56-1-.84-1.96-.84-2.88 0-2 .4-4.12 1.2-6.36.84-2.28 1.98-4.4 3.42-6.36 1.44-2 3.1-3.62 4.98-4.86 1.92-1.28 3.94-1.92 6.06-1.92 1.4 0 2.48.3 3.24.9.8.56 1.2 1.36 1.2 2.4 0 1.24-.4 2.32-1.2 3.24-.76.92-1.8 1.72-3.12 2.4-1.32.64-2.8 1.18-4.44 1.62-1.6.44-3.24.82-4.92 1.14-.24.04-.44.1-.6.18-.12.04-.22.18-.3.42-.28.88-.56 1.84-.84 2.88-.28 1.04-.42 2.02-.42 2.94 0 1.4.26 2.48.78 3.24.56.76 1.36 1.14 2.4 1.14 1.44 0 2.66-.36 3.66-1.08 1-.72 1.82-1.44 2.46-2.16.4-.44.76-.66 1.08-.66.4 0 .6.2.6.6v.24c0 .08-.04.16-.12.24-.8 1.32-1.7 2.44-2.7 3.36-1 .88-2.08 1.54-3.24 1.98-1.12.48-2.34.72-3.66.72Zm1.32-15.42c.44 0 1.18-.12 2.22-.36 1.08-.28 2.2-.7 3.36-1.26 1.16-.6 2.14-1.32 2.94-2.16.84-.88 1.26-1.92 1.26-3.12 0-.52-.14-.96-.42-1.32-.28-.4-.68-.6-1.2-.6-.84 0-1.76.36-2.76 1.08-.96.68-1.88 1.52-2.76 2.52-.88.96-1.62 1.9-2.22 2.82-.56.92-.84 1.6-.84 2.04 0 .24.14.36.42.36Zm6.349 31.68c-.2 0-.4-.04-.6-.12-.24-.08-.36-.22-.36-.42 0-.32.22-.6.66-.84.4-.2.78-.32 1.14-.36.84-.16 1.5-.38 1.98-.66s.86-.8 1.14-1.56l11.58-32.34c.2-.56.32-.98.36-1.26.04-.28-.02-.46-.18-.54-.16-.12-.44-.14-.84-.06-.96.16-1.8.34-2.52.54-.68.16-1.44.44-2.28.84-.32.16-.62.2-.9.12-.24-.12-.36-.3-.36-.54 0-.32.08-.58.24-.78.2-.2.42-.36.66-.48.64-.32 1.56-.76 2.76-1.32 1.2-.56 2.6-1.04 4.2-1.44.28-.08.5-.18.66-.3.2-.16.34-.38.42-.66.56-1.88 1.08-3.24 1.56-4.08.48-.84 1.16-1.26 2.04-1.26.32 0 .6.1.84.3.24.2.32.48.24.84l-1.02 3.48c-.12.4-.14.7-.06.9.08.16.2.22.36.18.52-.08.98-.14 1.38-.18.44-.04.86-.06 1.26-.06 2 0 3.56.34 4.68 1.02 1.16.64 1.96 1.54 2.4 2.7.48 1.12.72 2.38.72 3.78 0 1.92-.44 3.94-1.32 6.06-.88 2.08-2.08 4.06-3.6 5.94-1.48 1.84-3.16 3.34-5.04 4.5-1.84 1.16-3.76 1.74-5.76 1.74-.36 0-.76-.12-1.2-.36-.44-.24-.86-.48-1.26-.72-.36-.24-.66-.3-.9-.18-.2.08-.44.5-.72 1.26l-3.96 11.7c-.28.84-.2 1.46.24 1.86.48.44 1.22.7 2.22.78.4.04.8.12 1.2.24.4.12.6.34.6.66 0 .24-.18.4-.54.48-.36.12-.76.18-1.2.18-.6 0-1.22-.02-1.86-.06h-1.8c-.52 0-.96.02-1.32.06-1 .12-1.96.22-2.88.3-.96.08-1.98.12-3.06.12Zm17.58-18.36c.92 0 1.96-.5 3.12-1.5 1.16-1.04 2.26-2.36 3.3-3.96 1.08-1.6 1.96-3.3 2.64-5.1.72-1.8 1.08-3.5 1.08-5.1 0-2.24-.4-3.76-1.2-4.56-.8-.8-1.92-1.22-3.36-1.26h-1.08c-.36 0-.76.04-1.2.12l-5.52 16.2c-.24.72-.38 1.4-.42 2.04 0 .6.08 1.12.24 1.56.2.52.48.92.84 1.2.4.24.92.36 1.56.36Zm21.687 2.04c-.96 0-1.86-.32-2.7-.96-.84-.64-1.52-1.48-2.04-2.52a7.782 7.782 0 0 1-.72-3.3c0-1.88.36-3.9 1.08-6.06.76-2.2 1.8-4.26 3.12-6.18 1.32-1.96 2.84-3.56 4.56-4.8 1.76-1.24 3.64-1.86 5.64-1.86 2 0 3.54.68 4.62 2.04 1.12 1.36 1.68 3.04 1.68 5.04 0 1.8-.36 3.78-1.08 5.94-.72 2.12-1.76 4.14-3.12 6.06-1.32 1.92-2.92 3.5-4.8 4.74-1.84 1.24-3.92 1.86-6.24 1.86Zm.96-1.8c.96 0 1.92-.42 2.88-1.26 1-.84 1.94-1.94 2.82-3.3.92-1.36 1.72-2.86 2.4-4.5.72-1.64 1.28-3.28 1.68-4.92.44-1.64.66-3.14.66-4.5 0-1.04-.18-1.9-.54-2.58-.32-.68-1-1.02-2.04-1.02-.92 0-1.88.38-2.88 1.14-.96.76-1.9 1.78-2.82 3.06-.88 1.28-1.68 2.72-2.4 4.32-.72 1.56-1.3 3.2-1.74 4.92-.4 1.68-.6 3.32-.6 4.92 0 1.32.22 2.28.66 2.88.48.56 1.12.84 1.92.84Zm18.953 1.98c-.2 0-.42-.08-.66-.24-.24-.12-.44-.3-.6-.54-.16-.2-.24-.42-.24-.66 0-.48.12-1.08.36-1.8.28-.76.62-1.7 1.02-2.82l5.52-14.4c.2-.52.28-1 .24-1.44 0-.44-.2-.66-.6-.66-.56 0-1.12.08-1.68.24-.52.12-.92.26-1.2.42-.24.16-.48.2-.72.12-.2-.12-.3-.32-.3-.6 0-.32.14-.68.42-1.08.32-.4.74-.78 1.26-1.14.48-.36 1.04-.66 1.68-.9.68-.24 1.38-.36 2.1-.36 1.12 0 1.82.28 2.1.84.32.56.36 1.32.12 2.28-.2.92-.54 1.98-1.02 3.18l-2.7 6.78c-.16.28-.12.46.12.54.28.08.48.02.6-.18 1.6-2.76 3.2-5.16 4.8-7.2 1.64-2.08 3.16-3.68 4.56-4.8 1.4-1.16 2.56-1.74 3.48-1.74 1.04 0 1.76.3 2.16.9.44.6.66 1.3.66 2.1 0 .72-.14 1.46-.42 2.22-.24.76-.6 1.4-1.08 1.92-.44.48-.94.72-1.5.72-.32 0-.56-.18-.72-.54-.16-.4-.24-.92-.24-1.56 0-.6-.08-1.06-.24-1.38-.16-.36-.46-.54-.9-.54-.4 0-.94.26-1.62.78-.64.52-1.46 1.42-2.46 2.7-.44.6-1.02 1.42-1.74 2.46s-1.5 2.2-2.34 3.48c-.8 1.24-1.6 2.52-2.4 3.84-.8 1.28-1.5 2.46-2.1 3.54-1.08 1.92-1.86 3.32-2.34 4.2-.44.88-.9 1.32-1.38 1.32Zm22.974-.18c-.32 0-.68-.14-1.08-.42-.4-.24-.74-.52-1.02-.84-.24-.36-.36-.68-.36-.96 0-.68.08-1.26.24-1.74.2-.48.4-1.02.6-1.62l5.7-16.02c.08-.28.04-.46-.12-.54a.649.649 0 0 0-.48-.18l-2.4-.12c-.52-.04-.84-.14-.96-.3-.08-.2-.12-.38-.12-.54 0-.08.1-.22.3-.42.2-.24.44-.46.72-.66.32-.24.66-.36 1.02-.36h2.16c.44 0 .74-.06.9-.18.16-.16.34-.46.54-.9l1.44-2.94c.16-.32.46-.68.9-1.08.44-.44.88-.82 1.32-1.14.48-.32.82-.48 1.02-.48.32 0 .52.22.6.66.08.44.04.86-.12 1.26l-1.56 4.02c-.08.28-.06.46.06.54.16.08.4.12.72.12.8 0 1.62.06 2.46.18.84.12 1.52.22 2.04.3.64.12 1.02.26 1.14.42.16.12.24.28.24.48 0 .08-.08.22-.24.42-.16.16-.46.26-.9.3-.88.04-1.72.1-2.52.18-.8.04-1.64.08-2.52.12-.64.04-1.1.14-1.38.3-.24.16-.4.36-.48.6l-5.34 14.76c-.16.48-.24.9-.24 1.26s.1.64.3.84c.24.2.58.3 1.02.3.56 0 1.16-.2 1.8-.6.64-.4 1.26-.86 1.86-1.38.6-.52 1.1-.98 1.5-1.38.44-.44.82-.64 1.14-.6.32.04.48.18.48.42 0 .28-.1.6-.3.96-.2.32-.46.66-.78 1.02-.64.68-1.32 1.32-2.04 1.92-.68.6-1.4 1.16-2.16 1.68-.72.48-1.42.9-2.1 1.26-.64.32-1.22.58-1.74.78-.52.2-.94.3-1.26.3Zm45.751.24c-.2 0-.38-.08-.54-.24-.16-.16-.28-.36-.36-.6-.08-.24-.12-.48-.12-.72 0-.6.06-1.2.18-1.8.16-.6.36-1.34.6-2.22l8.46-28.98c.2-.68.4-1.42.6-2.22.2-.84.3-1.46.3-1.86 0-.4-.26-.7-.78-.9-.48-.2-.96-.38-1.44-.54-.28-.08-.54-.16-.78-.24-.2-.12-.3-.26-.3-.42 0-.16.06-.3.18-.42.12-.16.4-.32.84-.48.32-.12.76-.28 1.32-.48.6-.2 1.22-.4 1.86-.6.68-.24 1.28-.42 1.8-.54.56-.16.94-.24 1.14-.24.2 0 .42.02.66.06.24.04.36.22.36.54 0 .32-.04.6-.12.84-.04.24-.1.5-.18.78l-8.16 28.2c-.08.28-.08.42 0 .42.12 0 .24-.08.36-.24 1.76-2.6 3.58-4.9 5.46-6.9 1.88-2.04 3.66-3.64 5.34-4.8 1.68-1.16 3.12-1.74 4.32-1.74 1.32 0 2.32.44 3 1.32.72.88 1.08 1.9 1.08 3.06 0 2.04-.38 4.2-1.14 6.48-.72 2.28-1.68 4.46-2.88 6.54s-2.5 3.86-3.9 5.34c-.24.24-.6.56-1.08.96-.48.36-1.04.72-1.68 1.08-.64.36-1.3.66-1.98.9-.64.28-1.24.42-1.8.42-.28 0-.62-.12-1.02-.36-.36-.24-.68-.54-.96-.9-.24-.36-.36-.68-.36-.96 0-.2.08-.44.24-.72.16-.28.36-.52.6-.72.24-.2.48-.3.72-.3.36 0 .66.08.9.24.28.12.52.28.72.48.24.2.48.38.72.54.24.16.52.24.84.24.68 0 1.4-.4 2.16-1.2.76-.8 1.48-1.86 2.16-3.18.72-1.32 1.36-2.76 1.92-4.32.56-1.6 1-3.2 1.32-4.8.36-1.6.54-3.08.54-4.44 0-.92-.2-1.62-.6-2.1-.36-.52-.92-.78-1.68-.78-.88 0-1.88.44-3 1.32-1.08.84-2.22 1.96-3.42 3.36-1.16 1.4-2.3 2.9-3.42 4.5s-2.14 3.16-3.06 4.68c-.92 1.52-1.66 2.82-2.22 3.9-1 1.92-1.76 3.36-2.28 4.32-.48.96-.96 1.44-1.44 1.44Zm29.897-.24c-.68 0-1.24-.22-1.68-.66-.44-.44-.66-.9-.66-1.38v-.48c.04-.16.1-.32.18-.48 1.64-3.32 3.02-6.44 4.14-9.36 1.12-2.96 2.12-5.54 3-7.74.16-.48.06-.72-.3-.72-.2 0-.6.12-1.2.36-.56.2-1.16.48-1.8.84-.64.36-1.2.72-1.68 1.08-.2.16-.4.2-.6.12-.2-.08-.3-.22-.3-.42 0-.2.14-.48.42-.84.32-.4.74-.84 1.26-1.32.56-.48 1.22-.98 1.98-1.5a29.1 29.1 0 0 1 2.46-1.62c.92-.56 1.88-1.06 2.88-1.5.36-.16.72-.12 1.08.12.36.24.64.54.84.9.24.36.32.64.24.84l-7.32 17.34c-.16.32-.28.64-.36.96-.04.28-.06.54-.06.78 0 .28.1.48.3.6.24.08.46.12.66.12.56 0 1.2-.26 1.92-.78.72-.56 1.48-1.22 2.28-1.98.84-.8 1.64-1.58 2.4-2.34.08-.08.16-.12.24-.12.08 0 .16.04.24.12.08.04.12.1.12.18 0 .64-.38 1.46-1.14 2.46-.76.96-1.72 1.94-2.88 2.94-1.12.96-2.28 1.78-3.48 2.46-1.2.68-2.26 1.02-3.18 1.02Zm12.12-31.62c-.6 0-1.1-.24-1.5-.72-.4-.48-.6-1.02-.6-1.62 0-.96.32-1.8.96-2.52.64-.76 1.44-1.14 2.4-1.14.64 0 1.14.28 1.5.84.36.52.54 1.1.54 1.74 0 .88-.32 1.68-.96 2.4-.64.68-1.42 1.02-2.34 1.02Zm4.458 31.74c-.24 0-.48-.1-.72-.3-.2-.16-.38-.38-.54-.66-.16-.24-.28-.52-.36-.84-.04-.32 0-.6.12-.84l6.96-17.04c.72-1.76.76-2.64.12-2.64-.4 0-.82.06-1.26.18-.44.08-.92.32-1.44.72-.52.4-1.1 1.02-1.74 1.86-.16.16-.34.24-.54.24-.16-.04-.28-.2-.36-.48 0-.24.06-.54.18-.9.16-.4.34-.78.54-1.14.2-.4.38-.72.54-.96.6-.92 1.4-1.64 2.4-2.16 1.04-.52 2.24-.8 3.6-.84.44 0 .84.12 1.2.36.36.2.62.5.78.9.2.4.2.84 0 1.32l-3.96 10.2c-.12.28-.1.44.06.48.2.04.36-.04.48-.24 1.64-2.8 3.3-5.16 4.98-7.08 1.72-1.96 3.36-3.44 4.92-4.44 1.56-1 2.94-1.5 4.14-1.5.84 0 1.56.3 2.16.9.64.56 1.04 1.34 1.2 2.34.2.96.02 2.08-.54 3.36l-5.52 13.08c-.6 1.44-.5 2.16.3 2.16.48 0 1.06-.18 1.74-.54.72-.36 1.44-.78 2.16-1.26.72-.52 1.34-.98 1.86-1.38.56-.44.92-.74 1.08-.9l.06-.06h.12c.12 0 .22.06.3.18.12.08.18.2.18.36 0 .32-.08.6-.24.84a26.66 26.66 0 0 1-3.36 3.36c-1.16 1-2.38 1.8-3.66 2.4-1.24.56-2.5.84-3.78.84-.36 0-.72-.14-1.08-.42-.36-.24-.64-.56-.84-.96-.16-.4-.14-.82.06-1.26 1.16-2.68 2.32-5.34 3.48-7.98 1.2-2.68 2.32-5.36 3.36-8.04.64-1.64.86-2.78.66-3.42-.2-.68-.58-1.04-1.14-1.08-.44-.04-.96.12-1.56.48-.6.32-1.28.84-2.04 1.56-.76.68-1.58 1.56-2.46 2.64-.48.56-1.12 1.44-1.92 2.64-.8 1.16-1.7 2.52-2.7 4.08-1 1.52-2.04 3.16-3.12 4.92-1.04 1.72-2.04 3.42-3 5.1-.36.64-.68 1.1-.96 1.38-.28.32-.58.48-.9.48Zm31.7-.12c-.32 0-.68-.14-1.08-.42-.4-.24-.74-.52-1.02-.84-.24-.36-.36-.68-.36-.96 0-.68.08-1.26.24-1.74.2-.48.4-1.02.6-1.62l5.7-16.02c.08-.28.04-.46-.12-.54a.649.649 0 0 0-.48-.18l-2.4-.12c-.52-.04-.84-.14-.96-.3-.08-.2-.12-.38-.12-.54 0-.08.1-.22.3-.42.2-.24.44-.46.72-.66.32-.24.66-.36 1.02-.36h2.16c.44 0 .74-.06.9-.18.16-.16.34-.46.54-.9l1.44-2.94c.16-.32.46-.68.9-1.08.44-.44.88-.82 1.32-1.14.48-.32.82-.48 1.02-.48.32 0 .52.22.6.66.08.44.04.86-.12 1.26l-1.56 4.02c-.08.28-.06.46.06.54.16.08.4.12.72.12.8 0 1.62.06 2.46.18.84.12 1.52.22 2.04.3.64.12 1.02.26 1.14.42.16.12.24.28.24.48 0 .08-.08.22-.24.42-.16.16-.46.26-.9.3-.88.04-1.72.1-2.52.18-.8.04-1.64.08-2.52.12-.64.04-1.1.14-1.38.3-.24.16-.4.36-.48.6l-5.34 14.76c-.16.48-.24.9-.24 1.26s.1.64.3.84c.24.2.58.3 1.02.3.56 0 1.16-.2 1.8-.6.64-.4 1.26-.86 1.86-1.38.6-.52 1.1-.98 1.5-1.38.44-.44.82-.64 1.14-.6.32.04.48.18.48.42 0 .28-.1.6-.3.96-.2.32-.46.66-.78 1.02-.64.68-1.32 1.32-2.04 1.92-.68.6-1.4 1.16-2.16 1.68-.72.48-1.42.9-2.1 1.26-.64.32-1.22.58-1.74.78-.52.2-.94.3-1.26.3Zm20.04.06c-.84 0-1.7-.32-2.58-.96a8.121 8.121 0 0 1-2.1-2.4c-.56-1-.84-1.96-.84-2.88 0-2 .4-4.12 1.2-6.36.84-2.28 1.98-4.4 3.42-6.36 1.44-2 3.1-3.62 4.98-4.86 1.92-1.28 3.94-1.92 6.06-1.92 1.4 0 2.48.3 3.24.9.8.56 1.2 1.36 1.2 2.4 0 1.24-.4 2.32-1.2 3.24-.76.92-1.8 1.72-3.12 2.4-1.32.64-2.8 1.18-4.44 1.62-1.6.44-3.24.82-4.92 1.14-.24.04-.44.1-.6.18-.12.04-.22.18-.3.42-.28.88-.56 1.84-.84 2.88-.28 1.04-.42 2.02-.42 2.94 0 1.4.26 2.48.78 3.24.56.76 1.36 1.14 2.4 1.14 1.44 0 2.66-.36 3.66-1.08 1-.72 1.82-1.44 2.46-2.16.4-.44.76-.66 1.08-.66.4 0 .6.2.6.6v.24c0 .08-.04.16-.12.24-.8 1.32-1.7 2.44-2.7 3.36-1 .88-2.08 1.54-3.24 1.98-1.12.48-2.34.72-3.66.72Zm1.32-15.42c.44 0 1.18-.12 2.22-.36 1.08-.28 2.2-.7 3.36-1.26 1.16-.6 2.14-1.32 2.94-2.16.84-.88 1.26-1.92 1.26-3.12 0-.52-.14-.96-.42-1.32-.28-.4-.68-.6-1.2-.6-.84 0-1.76.36-2.76 1.08-.96.68-1.88 1.52-2.76 2.52-.88.96-1.62 1.9-2.22 2.82-.56.92-.84 1.6-.84 2.04 0 .24.14.36.42.36Zm16.969 15.36c-1.16 0-2.1-.4-2.82-1.2-.72-.8-1.08-1.84-1.08-3.12 0-1.52.32-3.22.96-5.1.68-1.88 1.58-3.78 2.7-5.7 1.16-1.92 2.46-3.7 3.9-5.34 1.56-1.76 3.14-3.12 4.74-4.08 1.6-1 3.04-1.5 4.32-1.5.52 0 .94.08 1.26.24.32.12 1.04.54 2.16 1.26.84.52 1.3.82 1.38.9.12.04.14.06.06.06.12 0 .22-.14.3-.42l4.02-13.5c.08-.24.12-.42.12-.54.04-.16.06-.26.06-.3a.46.46 0 0 0 .06-.18v-.18c0-.44-.12-.78-.36-1.02-.24-.28-.68-.54-1.32-.78-.88-.32-1.4-.5-1.56-.54-.16-.08-.24-.18-.24-.3 0-.28.16-.5.48-.66.32-.16.84-.3 1.56-.42l1.8-.24c.64-.12 1.22-.2 1.74-.24.52-.08.96-.14 1.32-.18.36-.04.6-.06.72-.06.48 0 .72.28.72.84 0 .2-.02.42-.06.66-.04.2-.1.44-.18.72l-9.72 33.66-.24.96c-.04.28-.06.58-.06.9 0 .88.28 1.32.84 1.32.52 0 1.14-.18 1.86-.54.72-.4 1.44-.92 2.16-1.56.72-.64 1.34-1.32 1.86-2.04.08-.12.16-.2.24-.24.08-.04.16-.06.24-.06.32 0 .44.16.36.48 0 .44-.22 1-.66 1.68-.44.68-1.02 1.4-1.74 2.16-.72.72-1.5 1.4-2.34 2.04-.8.64-1.58 1.16-2.34 1.56-.76.4-1.4.6-1.92.6-.44 0-.86-.14-1.26-.42-.4-.24-.74-.56-1.02-.96-.24-.44-.36-.88-.36-1.32 0-.2.08-.72.24-1.56.08-.44.2-.98.36-1.62.16-.68.3-1.32.42-1.92.16-.64.26-1.1.3-1.38.08-.28.08-.24 0 .12.08-.32.06-.54-.06-.66-.08-.16-.18-.14-.3.06-2.76 3.48-5.18 5.96-7.26 7.44-2.08 1.48-4.2 2.22-6.36 2.22Zm2.22-2.82c1.08 0 2.26-.38 3.54-1.14 1.28-.8 2.54-1.84 3.78-3.12 1.28-1.32 2.44-2.76 3.48-4.32 1.08-1.56 1.94-3.12 2.58-4.68.64-1.56.96-3 .96-4.32 0-1.16-.26-2.06-.78-2.7-.52-.68-1.26-1.02-2.22-1.02-.92 0-1.96.44-3.12 1.32-1.16.88-2.34 2.04-3.54 3.48-1.2 1.44-2.32 3.02-3.36 4.74-1 1.68-1.82 3.36-2.46 5.04-.6 1.68-.9 3.16-.9 4.44 0 .88.14 1.48.42 1.8.32.32.86.48 1.62.48ZM243.7 311.84c-.48 0-.96-.14-1.44-.42-.48-.24-.88-.56-1.2-.96-.28-.4-.42-.82-.42-1.26 0-1.44.48-3.1 1.44-4.98.96-1.92 2.3-3.92 4.02-6 1.72-2.12 3.7-4.16 5.94-6.12 2.16-1.88 3.92-3.28 5.28-4.2 1.36-.96 2.36-1.44 3-1.44.64 0 1.2.28 1.68.84.56.72.8 1.06.72 1.02-.04-.08-.04-.12 0-.12.08 0 .14-.02.18-.06.08-.08.14-.18.18-.3.56-.96.9-1.54 1.02-1.74.12-.2.12-.22 0-.06.24-.4.48-.6.72-.6.36 0 .72.06 1.08.18.36.12.64.28.84.48.24.2.36.4.36.6 0 .2-.14.7-.42 1.5l-6.72 17.82c-.52 1.36-.26 2.04.78 2.04.72 0 1.58-.34 2.58-1.02 1.04-.72 1.94-1.58 2.7-2.58a.94.94 0 0 1 .24-.18c.12-.08.22-.12.3-.12.16 0 .26.06.3.18.08.08.12.24.12.48 0 .28-.28.84-.84 1.68-.56.8-1.14 1.5-1.74 2.1-1.12 1.04-2.26 1.84-3.42 2.4-1.12.56-2.16.84-3.12.84-.4 0-.8-.12-1.2-.36-.4-.24-.74-.54-1.02-.9-.24-.36-.36-.72-.36-1.08 0-.44.12-.9.36-1.38-.16.36-.18.36-.06 0 .16-.36.4-.92.72-1.68l1.14-2.4c.4-.84.74-1.58 1.02-2.22.2-.44.28-.76.24-.96 0-.24-.12-.22-.36.06-2.44 2.72-4.54 4.88-6.3 6.48-1.72 1.6-3.24 2.74-4.56 3.42-1.32.68-2.58 1.02-3.78 1.02Zm3.36-3.78c.88 0 2.18-.72 3.9-2.16 1.76-1.48 3.74-3.52 5.94-6.12 1.52-1.76 2.72-3.38 3.6-4.86.88-1.48 1.32-2.58 1.32-3.3 0-.32-.26-.7-.78-1.14-.24-.2-.5-.36-.78-.48s-.52-.18-.72-.18c-.72 0-1.72.36-3 1.08a17.85 17.85 0 0 0-3.42 2.58 36.527 36.527 0 0 0-3.78 4.32c-1.2 1.6-2.18 3.14-2.94 4.62-.72 1.48-1.08 2.68-1.08 3.6 0 .6.16 1.1.48 1.5.32.36.74.54 1.26.54Zm27.253 3.78c-.32 0-.68-.14-1.08-.42-.4-.24-.74-.52-1.02-.84-.24-.36-.36-.68-.36-.96 0-.68.08-1.26.24-1.74.2-.48.4-1.02.6-1.62l5.7-16.02c.08-.28.04-.46-.12-.54a.649.649 0 0 0-.48-.18l-2.4-.12c-.52-.04-.84-.14-.96-.3-.08-.2-.12-.38-.12-.54 0-.08.1-.22.3-.42.2-.24.44-.46.72-.66.32-.24.66-.36 1.02-.36h2.16c.44 0 .74-.06.9-.18.16-.16.34-.46.54-.9l1.44-2.94c.16-.32.46-.68.9-1.08.44-.44.88-.82 1.32-1.14.48-.32.82-.48 1.02-.48.32 0 .52.22.6.66.08.44.04.86-.12 1.26l-1.56 4.02c-.08.28-.06.46.06.54.16.08.4.12.72.12.8 0 1.62.06 2.46.18.84.12 1.52.22 2.04.3.64.12 1.02.26 1.14.42.16.12.24.28.24.48 0 .08-.08.22-.24.42-.16.16-.46.26-.9.3-.88.04-1.72.1-2.52.18-.8.04-1.64.08-2.52.12-.64.04-1.1.14-1.38.3-.24.16-.4.36-.48.6l-5.34 14.76c-.16.48-.24.9-.24 1.26s.1.64.3.84c.24.2.58.3 1.02.3.56 0 1.16-.2 1.8-.6.64-.4 1.26-.86 1.86-1.38.6-.52 1.1-.98 1.5-1.38.44-.44.82-.64 1.14-.6.32.04.48.18.48.42 0 .28-.1.6-.3.96-.2.32-.46.66-.78 1.02-.64.68-1.32 1.32-2.04 1.92-.68.6-1.4 1.16-2.16 1.68-.72.48-1.42.9-2.1 1.26-.64.32-1.22.58-1.74.78-.52.2-.94.3-1.26.3Zm28.391 0c-.48 0-.96-.14-1.44-.42-.48-.24-.88-.56-1.2-.96-.28-.4-.42-.82-.42-1.26 0-1.44.48-3.1 1.44-4.98.96-1.92 2.3-3.92 4.02-6 1.72-2.12 3.7-4.16 5.94-6.12 2.16-1.88 3.92-3.28 5.28-4.2 1.36-.96 2.36-1.44 3-1.44.64 0 1.2.28 1.68.84.56.72.8 1.06.72 1.02-.04-.08-.04-.12 0-.12.08 0 .14-.02.18-.06.08-.08.14-.18.18-.3.56-.96.9-1.54 1.02-1.74.12-.2.12-.22 0-.06.24-.4.48-.6.72-.6.36 0 .72.06 1.08.18.36.12.64.28.84.48.24.2.36.4.36.6 0 .2-.14.7-.42 1.5l-6.72 17.82c-.52 1.36-.26 2.04.78 2.04.72 0 1.58-.34 2.58-1.02 1.04-.72 1.94-1.58 2.7-2.58a.94.94 0 0 1 .24-.18c.12-.08.22-.12.3-.12.16 0 .26.06.3.18.08.08.12.24.12.48 0 .28-.28.84-.84 1.68-.56.8-1.14 1.5-1.74 2.1-1.12 1.04-2.26 1.84-3.42 2.4-1.12.56-2.16.84-3.12.84-.4 0-.8-.12-1.2-.36-.4-.24-.74-.54-1.02-.9-.24-.36-.36-.72-.36-1.08 0-.44.12-.9.36-1.38-.16.36-.18.36-.06 0 .16-.36.4-.92.72-1.68l1.14-2.4c.4-.84.74-1.58 1.02-2.22.2-.44.28-.76.24-.96 0-.24-.12-.22-.36.06-2.44 2.72-4.54 4.88-6.3 6.48-1.72 1.6-3.24 2.74-4.56 3.42-1.32.68-2.58 1.02-3.78 1.02Zm3.36-3.78c.88 0 2.18-.72 3.9-2.16 1.76-1.48 3.74-3.52 5.94-6.12 1.52-1.76 2.72-3.38 3.6-4.86.88-1.48 1.32-2.58 1.32-3.3 0-.32-.26-.7-.78-1.14-.24-.2-.5-.36-.78-.48s-.52-.18-.72-.18c-.72 0-1.72.36-3 1.08a17.85 17.85 0 0 0-3.42 2.58 36.527 36.527 0 0 0-3.78 4.32c-1.2 1.6-2.18 3.14-2.94 4.62-.72 1.48-1.08 2.68-1.08 3.6 0 .6.16 1.1.48 1.5.32.36.74.54 1.26.54Zm26.021 3.9c-.24 0-.48-.1-.72-.3-.2-.16-.38-.38-.54-.66-.16-.24-.28-.52-.36-.84-.04-.32 0-.6.12-.84l6.96-17.04c.72-1.76.76-2.64.12-2.64-.4 0-.82.06-1.26.18-.44.08-.92.32-1.44.72-.52.4-1.1 1.02-1.74 1.86-.16.16-.34.24-.54.24-.16-.04-.28-.2-.36-.48 0-.24.06-.54.18-.9.16-.4.34-.78.54-1.14.2-.4.38-.72.54-.96.6-.92 1.4-1.64 2.4-2.16 1.04-.52 2.24-.8 3.6-.84.44 0 .84.12 1.2.36.36.2.62.5.78.9.2.4.2.84 0 1.32l-3.96 10.2c-.12.28-.1.44.06.48.2.04.36-.04.48-.24 1.64-2.8 3.3-5.16 4.98-7.08 1.72-1.96 3.36-3.44 4.92-4.44 1.56-1 2.94-1.5 4.14-1.5.84 0 1.56.3 2.16.9.64.56 1.04 1.34 1.2 2.34.2.96.02 2.08-.54 3.36l-5.52 13.08c-.6 1.44-.5 2.16.3 2.16.48 0 1.06-.18 1.74-.54.72-.36 1.44-.78 2.16-1.26.72-.52 1.34-.98 1.86-1.38.56-.44.92-.74 1.08-.9l.06-.06h.12c.12 0 .22.06.3.18.12.08.18.2.18.36 0 .32-.08.6-.24.84a26.66 26.66 0 0 1-3.36 3.36c-1.16 1-2.38 1.8-3.66 2.4-1.24.56-2.5.84-3.78.84-.36 0-.72-.14-1.08-.42-.36-.24-.64-.56-.84-.96-.16-.4-.14-.82.06-1.26 1.16-2.68 2.32-5.34 3.48-7.98 1.2-2.68 2.32-5.36 3.36-8.04.64-1.64.86-2.78.66-3.42-.2-.68-.58-1.04-1.14-1.08-.44-.04-.96.12-1.56.48-.6.32-1.28.84-2.04 1.56-.76.68-1.58 1.56-2.46 2.64-.48.56-1.12 1.44-1.92 2.64-.8 1.16-1.7 2.52-2.7 4.08-1 1.52-2.04 3.16-3.12 4.92-1.04 1.72-2.04 3.42-3 5.1-.36.64-.68 1.1-.96 1.38-.28.32-.58.48-.9.48Zm46.232-.06c-.84 0-1.7-.32-2.58-.96a8.121 8.121 0 0 1-2.1-2.4c-.56-1-.84-1.96-.84-2.88 0-2 .4-4.12 1.2-6.36.84-2.28 1.98-4.4 3.42-6.36 1.44-2 3.1-3.62 4.98-4.86 1.92-1.28 3.94-1.92 6.06-1.92 1.4 0 2.48.3 3.24.9.8.56 1.2 1.36 1.2 2.4 0 1.24-.4 2.32-1.2 3.24-.76.92-1.8 1.72-3.12 2.4-1.32.64-2.8 1.18-4.44 1.62-1.6.44-3.24.82-4.92 1.14-.24.04-.44.1-.6.18-.12.04-.22.18-.3.42-.28.88-.56 1.84-.84 2.88-.28 1.04-.42 2.02-.42 2.94 0 1.4.26 2.48.78 3.24.56.76 1.36 1.14 2.4 1.14 1.44 0 2.66-.36 3.66-1.08 1-.72 1.82-1.44 2.46-2.16.4-.44.76-.66 1.08-.66.4 0 .6.2.6.6v.24c0 .08-.04.16-.12.24-.8 1.32-1.7 2.44-2.7 3.36-1 .88-2.08 1.54-3.24 1.98-1.12.48-2.34.72-3.66.72Zm1.32-15.42c.44 0 1.18-.12 2.22-.36 1.08-.28 2.2-.7 3.36-1.26 1.16-.6 2.14-1.32 2.94-2.16.84-.88 1.26-1.92 1.26-3.12 0-.52-.14-.96-.42-1.32-.28-.4-.68-.6-1.2-.6-.84 0-1.76.36-2.76 1.08-.96.68-1.88 1.52-2.76 2.52-.88.96-1.62 1.9-2.22 2.82-.56.92-.84 1.6-.84 2.04 0 .24.14.36.42.36Zm16.549 15.48c-.24 0-.48-.1-.72-.3-.2-.16-.38-.38-.54-.66-.16-.24-.28-.52-.36-.84-.04-.32 0-.6.12-.84l6.96-17.04c.72-1.76.76-2.64.12-2.64-.4 0-.82.06-1.26.18-.44.08-.92.32-1.44.72-.52.4-1.1 1.02-1.74 1.86-.16.16-.34.24-.54.24-.16-.04-.28-.2-.36-.48 0-.24.06-.54.18-.9.16-.4.34-.78.54-1.14.2-.4.38-.72.54-.96.6-.92 1.4-1.64 2.4-2.16 1.04-.52 2.24-.8 3.6-.84.44 0 .84.12 1.2.36.36.2.62.5.78.9.2.4.2.84 0 1.32l-3.96 10.2c-.12.28-.1.44.06.48.2.04.36-.04.48-.24 1.64-2.8 3.3-5.16 4.98-7.08 1.72-1.96 3.36-3.44 4.92-4.44 1.56-1 2.94-1.5 4.14-1.5.84 0 1.56.3 2.16.9.64.56 1.04 1.34 1.2 2.34.2.96.02 2.08-.54 3.36l-5.52 13.08c-.6 1.44-.5 2.16.3 2.16.48 0 1.06-.18 1.74-.54.72-.36 1.44-.78 2.16-1.26.72-.52 1.34-.98 1.86-1.38.56-.44.92-.74 1.08-.9l.06-.06h.12c.12 0 .22.06.3.18.12.08.18.2.18.36 0 .32-.08.6-.24.84a26.66 26.66 0 0 1-3.36 3.36c-1.16 1-2.38 1.8-3.66 2.4-1.24.56-2.5.84-3.78.84-.36 0-.72-.14-1.08-.42-.36-.24-.64-.56-.84-.96-.16-.4-.14-.82.06-1.26 1.16-2.68 2.32-5.34 3.48-7.98 1.2-2.68 2.32-5.36 3.36-8.04.64-1.64.86-2.78.66-3.42-.2-.68-.58-1.04-1.14-1.08-.44-.04-.96.12-1.56.48-.6.32-1.28.84-2.04 1.56-.76.68-1.58 1.56-2.46 2.64-.48.56-1.12 1.44-1.92 2.64-.8 1.16-1.7 2.52-2.7 4.08-1 1.52-2.04 3.16-3.12 4.92-1.04 1.72-2.04 3.42-3 5.1-.36.64-.68 1.1-.96 1.38-.28.32-.58.48-.9.48Zm31.701-.12c-.32 0-.68-.14-1.08-.42-.4-.24-.74-.52-1.02-.84-.24-.36-.36-.68-.36-.96 0-.68.08-1.26.24-1.74.2-.48.4-1.02.6-1.62l5.7-16.02c.08-.28.04-.46-.12-.54a.649.649 0 0 0-.48-.18l-2.4-.12c-.52-.04-.84-.14-.96-.3-.08-.2-.12-.38-.12-.54 0-.08.1-.22.3-.42.2-.24.44-.46.72-.66.32-.24.66-.36 1.02-.36h2.16c.44 0 .74-.06.9-.18.16-.16.34-.46.54-.9l1.44-2.94c.16-.32.46-.68.9-1.08.44-.44.88-.82 1.32-1.14.48-.32.82-.48 1.02-.48.32 0 .52.22.6.66.08.44.04.86-.12 1.26l-1.56 4.02c-.08.28-.06.46.06.54.16.08.4.12.72.12.8 0 1.62.06 2.46.18.84.12 1.52.22 2.04.3.64.12 1.02.26 1.14.42.16.12.24.28.24.48 0 .08-.08.22-.24.42-.16.16-.46.26-.9.3-.88.04-1.72.1-2.52.18-.8.04-1.64.08-2.52.12-.64.04-1.1.14-1.38.3-.24.16-.4.36-.48.6l-5.34 14.76c-.16.48-.24.9-.24 1.26s.1.64.3.84c.24.2.58.3 1.02.3.56 0 1.16-.2 1.8-.6.64-.4 1.26-.86 1.86-1.38.6-.52 1.1-.98 1.5-1.38.44-.44.82-.64 1.14-.6.32.04.48.18.48.42 0 .28-.1.6-.3.96-.2.32-.46.66-.78 1.02-.64.68-1.32 1.32-2.04 1.92-.68.6-1.4 1.16-2.16 1.68-.72.48-1.42.9-2.1 1.26-.64.32-1.22.58-1.74.78-.52.2-.94.3-1.26.3Zm17.639 0c-.68 0-1.24-.22-1.68-.66-.44-.44-.66-.9-.66-1.38v-.48c.04-.16.1-.32.18-.48 1.64-3.32 3.02-6.44 4.14-9.36 1.12-2.96 2.12-5.54 3-7.74.16-.48.06-.72-.3-.72-.2 0-.6.12-1.2.36-.56.2-1.16.48-1.8.84-.64.36-1.2.72-1.68 1.08-.2.16-.4.2-.6.12-.2-.08-.3-.22-.3-.42 0-.2.14-.48.42-.84.32-.4.74-.84 1.26-1.32.56-.48 1.22-.98 1.98-1.5a29.1 29.1 0 0 1 2.46-1.62c.92-.56 1.88-1.06 2.88-1.5.36-.16.72-.12 1.08.12.36.24.64.54.84.9.24.36.32.64.24.84l-7.32 17.34c-.16.32-.28.64-.36.96-.04.28-.06.54-.06.78 0 .28.1.48.3.6.24.08.46.12.66.12.56 0 1.2-.26 1.92-.78.72-.56 1.48-1.22 2.28-1.98.84-.8 1.64-1.58 2.4-2.34.08-.08.16-.12.24-.12.08 0 .16.04.24.12.08.04.12.1.12.18 0 .64-.38 1.46-1.14 2.46-.76.96-1.72 1.94-2.88 2.94-1.12.96-2.28 1.78-3.48 2.46-1.2.68-2.26 1.02-3.18 1.02Zm12.12-31.62c-.6 0-1.1-.24-1.5-.72-.4-.48-.6-1.02-.6-1.62 0-.96.32-1.8.96-2.52.64-.76 1.44-1.14 2.4-1.14.64 0 1.14.28 1.5.84.36.52.54 1.1.54 1.74 0 .88-.32 1.68-.96 2.4-.64.68-1.42 1.02-2.34 1.02Zm4.278 31.8c-.2 0-.42-.08-.66-.24-.24-.12-.44-.3-.6-.54-.16-.2-.24-.42-.24-.66 0-.48.12-1.08.36-1.8.28-.76.62-1.7 1.02-2.82l5.52-14.4c.2-.52.28-1 .24-1.44 0-.44-.2-.66-.6-.66-.56 0-1.12.08-1.68.24-.52.12-.92.26-1.2.42-.24.16-.48.2-.72.12-.2-.12-.3-.32-.3-.6 0-.32.14-.68.42-1.08.32-.4.74-.78 1.26-1.14.48-.36 1.04-.66 1.68-.9.68-.24 1.38-.36 2.1-.36 1.12 0 1.82.28 2.1.84.32.56.36 1.32.12 2.28-.2.92-.54 1.98-1.02 3.18l-2.7 6.78c-.16.28-.12.46.12.54.28.08.48.02.6-.18 1.6-2.76 3.2-5.16 4.8-7.2 1.64-2.08 3.16-3.68 4.56-4.8 1.4-1.16 2.56-1.74 3.48-1.74 1.04 0 1.76.3 2.16.9.44.6.66 1.3.66 2.1 0 .72-.14 1.46-.42 2.22-.24.76-.6 1.4-1.08 1.92-.44.48-.94.72-1.5.72-.32 0-.56-.18-.72-.54-.16-.4-.24-.92-.24-1.56 0-.6-.08-1.06-.24-1.38-.16-.36-.46-.54-.9-.54-.4 0-.94.26-1.62.78-.64.52-1.46 1.42-2.46 2.7-.44.6-1.02 1.42-1.74 2.46s-1.5 2.2-2.34 3.48c-.8 1.24-1.6 2.52-2.4 3.84-.8 1.28-1.5 2.46-2.1 3.54-1.08 1.92-1.86 3.32-2.34 4.2-.44.88-.9 1.32-1.38 1.32Zm25.495-.12c-.84 0-1.7-.32-2.58-.96a8.121 8.121 0 0 1-2.1-2.4c-.56-1-.84-1.96-.84-2.88 0-2 .4-4.12 1.2-6.36.84-2.28 1.98-4.4 3.42-6.36 1.44-2 3.1-3.62 4.98-4.86 1.92-1.28 3.94-1.92 6.06-1.92 1.4 0 2.48.3 3.24.9.8.56 1.2 1.36 1.2 2.4 0 1.24-.4 2.32-1.2 3.24-.76.92-1.8 1.72-3.12 2.4-1.32.64-2.8 1.18-4.44 1.62-1.6.44-3.24.82-4.92 1.14-.24.04-.44.1-.6.18-.12.04-.22.18-.3.42-.28.88-.56 1.84-.84 2.88-.28 1.04-.42 2.02-.42 2.94 0 1.4.26 2.48.78 3.24.56.76 1.36 1.14 2.4 1.14 1.44 0 2.66-.36 3.66-1.08 1-.72 1.82-1.44 2.46-2.16.4-.44.76-.66 1.08-.66.4 0 .6.2.6.6v.24c0 .08-.04.16-.12.24-.8 1.32-1.7 2.44-2.7 3.36-1 .88-2.08 1.54-3.24 1.98-1.12.48-2.34.72-3.66.72Zm1.32-15.42c.44 0 1.18-.12 2.22-.36 1.08-.28 2.2-.7 3.36-1.26 1.16-.6 2.14-1.32 2.94-2.16.84-.88 1.26-1.92 1.26-3.12 0-.52-.14-.96-.42-1.32-.28-.4-.68-.6-1.2-.6-.84 0-1.76.36-2.76 1.08-.96.68-1.88 1.52-2.76 2.52-.88.96-1.62 1.9-2.22 2.82-.56.92-.84 1.6-.84 2.04 0 .24.14.36.42.36Zm14.605 15.36c-.52 0-1.1-.28-1.74-.84-.64-.56-.96-1.16-.96-1.8 0-.24.04-.48.12-.72l11.4-32.46c.2-.56.34-1.1.42-1.62.12-.52.18-1.04.18-1.56 0-.36-.2-.7-.6-1.02-.36-.32-.82-.54-1.38-.66-.4-.08-.72-.18-.96-.3-.24-.16-.36-.32-.36-.48v-.3l.12-.24c.08-.08.16-.12.24-.12.76-.2 1.68-.38 2.76-.54 1.08-.2 2.08-.36 3-.48.96-.16 1.6-.24 1.92-.24.2 0 .36.08.48.24.16.12.24.34.24.66 0 .24-.04.52-.12.84l-.24.84-12.12 34.56c-.12.32-.2.64-.24.96-.04.28-.06.54-.06.78 0 .64.2.96.6.96.56 0 1.24-.3 2.04-.9.84-.64 1.66-1.4 2.46-2.28.8-.88 1.44-1.66 1.92-2.34.24-.32.52-.62.84-.9.32-.32.56-.48.72-.48.16 0 .24.08.24.24.04.12.06.3.06.54 0 .8-.28 1.64-.84 2.52-.52.88-1.22 1.76-2.1 2.64-.88.84-1.82 1.6-2.82 2.28-1 .68-1.96 1.22-2.88 1.62-.92.4-1.7.6-2.34.6Zm10.568 16.56c-.6 0-1.2-.22-1.8-.66-.6-.4-.9-1.02-.9-1.86 0-.56.12-1.06.36-1.5.24-.44.54-.8.9-1.08s.72-.42 1.08-.42c.4 0 .74.1 1.02.3l.84.72c.28.24.56.44.84.6.28.2.6.3.96.3 1.4 0 2.86-.9 4.38-2.7 1.56-1.76 3-3.98 4.32-6.66.92-1.88 1.52-3.94 1.8-6.18.32-2.28.48-4.78.48-7.5 0-2.96-.22-5.32-.66-7.08-.4-1.76-.88-3.02-1.44-3.78-.52-.8-.98-1.2-1.38-1.2-.4 0-.84.24-1.32.72-.44.44-.86.96-1.26 1.56-.36.6-.62 1.14-.78 1.62-.04.2-.18.54-.42 1.02s-.48.72-.72.72c-.16 0-.3-.16-.42-.48-.08-.36-.12-.76-.12-1.2 0-.92.18-1.82.54-2.7.4-.88.9-1.68 1.5-2.4.64-.72 1.32-1.3 2.04-1.74.72-.44 1.42-.66 2.1-.66.96 0 1.76.34 2.4 1.02.68.68 1.22 1.66 1.62 2.94.56 1.72 1.06 3.86 1.5 6.42.44 2.52.56 5.78.36 9.78-.04.72.02 1.06.18 1.02.2-.04.44-.32.72-.84 1.32-2.52 2.5-5.44 3.54-8.76 1.08-3.32 1.62-6.98 1.62-10.98 0-.2.14-.44.42-.72.32-.28.56-.42.72-.42.16 0 .4.12.72.36.32.2.6.5.84.9.28.4.42.84.42 1.32 0 2.48-.62 5.4-1.86 8.76-1.24 3.36-2.98 6.92-5.22 10.68-2.24 3.76-4.84 7.48-7.8 11.16-1.4 1.72-2.82 3.3-4.26 4.74-1.44 1.48-2.84 2.66-4.2 3.54-1.32.88-2.54 1.32-3.66 1.32Zm43.768-16.56c-1.16 0-2.1-.4-2.82-1.2-.72-.8-1.08-1.84-1.08-3.12 0-1.52.32-3.22.96-5.1.68-1.88 1.58-3.78 2.7-5.7 1.16-1.92 2.46-3.7 3.9-5.34 1.56-1.76 3.14-3.12 4.74-4.08 1.6-1 3.04-1.5 4.32-1.5.52 0 .94.08 1.26.24.32.12 1.04.54 2.16 1.26.84.52 1.3.82 1.38.9.12.04.14.06.06.06.12 0 .22-.14.3-.42l4.02-13.5c.08-.24.12-.42.12-.54.04-.16.06-.26.06-.3a.46.46 0 0 0 .06-.18v-.18c0-.44-.12-.78-.36-1.02-.24-.28-.68-.54-1.32-.78-.88-.32-1.4-.5-1.56-.54-.16-.08-.24-.18-.24-.3 0-.28.16-.5.48-.66.32-.16.84-.3 1.56-.42l1.8-.24c.64-.12 1.22-.2 1.74-.24.52-.08.96-.14 1.32-.18.36-.04.6-.06.72-.06.48 0 .72.28.72.84 0 .2-.02.42-.06.66-.04.2-.1.44-.18.72l-9.72 33.66-.24.96c-.04.28-.06.58-.06.9 0 .88.28 1.32.84 1.32.52 0 1.14-.18 1.86-.54.72-.4 1.44-.92 2.16-1.56.72-.64 1.34-1.32 1.86-2.04.08-.12.16-.2.24-.24.08-.04.16-.06.24-.06.32 0 .44.16.36.48 0 .44-.22 1-.66 1.68-.44.68-1.02 1.4-1.74 2.16-.72.72-1.5 1.4-2.34 2.04-.8.64-1.58 1.16-2.34 1.56-.76.4-1.4.6-1.92.6-.44 0-.86-.14-1.26-.42-.4-.24-.74-.56-1.02-.96-.24-.44-.36-.88-.36-1.32 0-.2.08-.72.24-1.56.08-.44.2-.98.36-1.62.16-.68.3-1.32.42-1.92.16-.64.26-1.1.3-1.38.08-.28.08-.24 0 .12.08-.32.06-.54-.06-.66-.08-.16-.18-.14-.3.06-2.76 3.48-5.18 5.96-7.26 7.44-2.08 1.48-4.2 2.22-6.36 2.22Zm2.22-2.82c1.08 0 2.26-.38 3.54-1.14 1.28-.8 2.54-1.84 3.78-3.12 1.28-1.32 2.44-2.76 3.48-4.32 1.08-1.56 1.94-3.12 2.58-4.68.64-1.56.96-3 .96-4.32 0-1.16-.26-2.06-.78-2.7-.52-.68-1.26-1.02-2.22-1.02-.92 0-1.96.44-3.12 1.32-1.16.88-2.34 2.04-3.54 3.48-1.2 1.44-2.32 3.02-3.36 4.74-1 1.68-1.82 3.36-2.46 5.04-.6 1.68-.9 3.16-.9 4.44 0 .88.14 1.48.42 1.8.32.32.86.48 1.62.48Zm28.478 2.82c-.68 0-1.24-.22-1.68-.66-.44-.44-.66-.9-.66-1.38v-.48c.04-.16.1-.32.18-.48 1.64-3.32 3.02-6.44 4.14-9.36 1.12-2.96 2.12-5.54 3-7.74.16-.48.06-.72-.3-.72-.2 0-.6.12-1.2.36-.56.2-1.16.48-1.8.84-.64.36-1.2.72-1.68 1.08-.2.16-.4.2-.6.12-.2-.08-.3-.22-.3-.42 0-.2.14-.48.42-.84.32-.4.74-.84 1.26-1.32.56-.48 1.22-.98 1.98-1.5a29.1 29.1 0 0 1 2.46-1.62c.92-.56 1.88-1.06 2.88-1.5.36-.16.72-.12 1.08.12.36.24.64.54.84.9.24.36.32.64.24.84l-7.32 17.34c-.16.32-.28.64-.36.96-.04.28-.06.54-.06.78 0 .28.1.48.3.6.24.08.46.12.66.12.56 0 1.2-.26 1.92-.78.72-.56 1.48-1.22 2.28-1.98.84-.8 1.64-1.58 2.4-2.34.08-.08.16-.12.24-.12.08 0 .16.04.24.12.08.04.12.1.12.18 0 .64-.38 1.46-1.14 2.46-.76.96-1.72 1.94-2.88 2.94-1.12.96-2.28 1.78-3.48 2.46-1.2.68-2.26 1.02-3.18 1.02Zm12.12-31.62c-.6 0-1.1-.24-1.5-.72-.4-.48-.6-1.02-.6-1.62 0-.96.32-1.8.96-2.52.64-.76 1.44-1.14 2.4-1.14.64 0 1.14.28 1.5.84.36.52.54 1.1.54 1.74 0 .88-.32 1.68-.96 2.4-.64.68-1.42 1.02-2.34 1.02Zm9.177 48.18c-1.4 0-2.6-.22-3.6-.66-1-.44-1.76-1.04-2.28-1.8-.52-.72-.78-1.48-.78-2.28l2.16-2.82c.8 1.84 1.68 3.14 2.64 3.9 1 .76 2.26 1.14 3.78 1.14 2.28 0 4.2-.76 5.76-2.28 1.6-1.52 2.92-4 3.96-7.44l9.48-33.72c.92-3.28 2.16-5.92 3.72-7.92 1.6-2.04 3.26-3.52 4.98-4.44 1.72-.96 3.28-1.44 4.68-1.44 1.76 0 3.14.4 4.14 1.2 1 .76 1.5 1.76 1.5 3 0 1-.28 1.76-.84 2.28-.52.52-1.06.78-1.62.78-.28 0-.54-.22-.78-.66l-.84-1.68c-.36-.8-.82-1.4-1.38-1.8-.56-.44-1.28-.66-2.16-.66-1.12 0-2.08.34-2.88 1.02-.8.64-1.54 1.68-2.22 3.12-.64 1.4-1.32 3.26-2.04 5.58-.24.76-.46 1.5-.66 2.22-.16.68-.36 1.42-.6 2.22-.08.28-.16.5-.24.66-.04.16-.06.34-.06.54s.06.34.18.42c.12.08.26.12.42.12 1.2 0 2.34-.02 3.42-.06 1.12-.08 2.18-.12 3.18-.12.28 0 .42.22.42.66 0 .16-.08.38-.24.66-.12.28-.32.54-.6.78-.24.2-.54.3-.9.3l-5.46.06c-.4 0-.74.08-1.02.24-.24.12-.4.36-.48.72l-6.54 22.74c-1.04 3.76-2.48 6.76-4.32 9-1.84 2.28-3.82 3.92-5.94 4.92-2.08 1-4.06 1.5-5.94 1.5Zm-14.28 0c-1.48 0-2.68-.26-3.6-.78-.92-.48-1.38-1.22-1.38-2.22 0-.6.3-1.18.9-1.74.56-.52 1.04-.78 1.44-.78.32 0 .62.16.9.48.28.36.62.76 1.02 1.2.36.4.8.74 1.32 1.02.48.28 1.08.42 1.8.42.76 0 1.42-.22 1.98-.66.56-.44 1.12-1.24 1.68-2.4.52-1.16 1.1-2.84 1.74-5.04l8.04-27.24c.24-.72-.04-1.08-.84-1.08l-3.72.06c-.28 0-.48-.06-.6-.18a.878.878 0 0 1-.18-.54c0-.32.12-.64.36-.96.24-.36.5-.56.78-.6l4.2-.24c.28-.04.52-.16.72-.36.2-.24.34-.52.42-.84l.24-.9c.84-2.84 1.92-5.24 3.24-7.2 1.32-2 2.74-3.6 4.26-4.8 1.56-1.2 3.1-2.06 4.62-2.58 1.52-.56 2.9-.84 4.14-.84 1.4 0 2.6.22 3.6.66 1 .44 1.76 1.02 2.28 1.74.52.72.78 1.5.78 2.34l-2.16 2.82c-.76-1.84-1.64-3.14-2.64-3.9-1-.76-2.26-1.14-3.78-1.14-2.28 0-4.22.76-5.82 2.28-1.56 1.52-2.86 4-3.9 7.44-.48 1.6-.82 2.7-1.02 3.3-.16.6-.26.94-.3 1.02v.3c0 .2.06.34.18.42.12.08.26.12.42.12l15.06-.18c.28 0 .42.22.42.66 0 .16-.08.38-.24.66-.12.28-.32.54-.6.78-.24.2-.54.3-.9.3l-13.92.06c-.4 0-.74.08-1.02.24-.24.12-.4.36-.48.72l-7.8 27.36c-.4 1.6-1.08 3.06-2.04 4.38-.92 1.32-1.96 2.46-3.12 3.42-1.2.96-2.36 1.7-3.48 2.22-1.16.52-2.16.78-3 .78Zm49.875-16.5c-.84 0-1.7-.32-2.58-.96a8.121 8.121 0 0 1-2.1-2.4c-.56-1-.84-1.96-.84-2.88 0-2 .4-4.12 1.2-6.36.84-2.28 1.98-4.4 3.42-6.36 1.44-2 3.1-3.62 4.98-4.86 1.92-1.28 3.94-1.92 6.06-1.92 1.4 0 2.48.3 3.24.9.8.56 1.2 1.36 1.2 2.4 0 1.24-.4 2.32-1.2 3.24-.76.92-1.8 1.72-3.12 2.4-1.32.64-2.8 1.18-4.44 1.62-1.6.44-3.24.82-4.92 1.14-.24.04-.44.1-.6.18-.12.04-.22.18-.3.42-.28.88-.56 1.84-.84 2.88-.28 1.04-.42 2.02-.42 2.94 0 1.4.26 2.48.78 3.24.56.76 1.36 1.14 2.4 1.14 1.44 0 2.66-.36 3.66-1.08 1-.72 1.82-1.44 2.46-2.16.4-.44.76-.66 1.08-.66.4 0 .6.2.6.6v.24c0 .08-.04.16-.12.24-.8 1.32-1.7 2.44-2.7 3.36-1 .88-2.08 1.54-3.24 1.98-1.12.48-2.34.72-3.66.72Zm1.32-15.42c.44 0 1.18-.12 2.22-.36 1.08-.28 2.2-.7 3.36-1.26 1.16-.6 2.14-1.32 2.94-2.16.84-.88 1.26-1.92 1.26-3.12 0-.52-.14-.96-.42-1.32-.28-.4-.68-.6-1.2-.6-.84 0-1.76.36-2.76 1.08-.96.68-1.88 1.52-2.76 2.52-.88.96-1.62 1.9-2.22 2.82-.56.92-.84 1.6-.84 2.04 0 .24.14.36.42.36Zm16.369 15.54c-.2 0-.42-.08-.66-.24-.24-.12-.44-.3-.6-.54-.16-.2-.24-.42-.24-.66 0-.48.12-1.08.36-1.8.28-.76.62-1.7 1.02-2.82l5.52-14.4c.2-.52.28-1 .24-1.44 0-.44-.2-.66-.6-.66-.56 0-1.12.08-1.68.24-.52.12-.92.26-1.2.42-.24.16-.48.2-.72.12-.2-.12-.3-.32-.3-.6 0-.32.14-.68.42-1.08.32-.4.74-.78 1.26-1.14.48-.36 1.04-.66 1.68-.9.68-.24 1.38-.36 2.1-.36 1.12 0 1.82.28 2.1.84.32.56.36 1.32.12 2.28-.2.92-.54 1.98-1.02 3.18l-2.7 6.78c-.16.28-.12.46.12.54.28.08.48.02.6-.18 1.6-2.76 3.2-5.16 4.8-7.2 1.64-2.08 3.16-3.68 4.56-4.8 1.4-1.16 2.56-1.74 3.48-1.74 1.04 0 1.76.3 2.16.9.44.6.66 1.3.66 2.1 0 .72-.14 1.46-.42 2.22-.24.76-.6 1.4-1.08 1.92-.44.48-.94.72-1.5.72-.32 0-.56-.18-.72-.54-.16-.4-.24-.92-.24-1.56 0-.6-.08-1.06-.24-1.38-.16-.36-.46-.54-.9-.54-.4 0-.94.26-1.62.78-.64.52-1.46 1.42-2.46 2.7-.44.6-1.02 1.42-1.74 2.46s-1.5 2.2-2.34 3.48c-.8 1.24-1.6 2.52-2.4 3.84-.8 1.28-1.5 2.46-2.1 3.54-1.08 1.92-1.86 3.32-2.34 4.2-.44.88-.9 1.32-1.38 1.32Zm25.495-.12c-.84 0-1.7-.32-2.58-.96a8.121 8.121 0 0 1-2.1-2.4c-.56-1-.84-1.96-.84-2.88 0-2 .4-4.12 1.2-6.36.84-2.28 1.98-4.4 3.42-6.36 1.44-2 3.1-3.62 4.98-4.86 1.92-1.28 3.94-1.92 6.06-1.92 1.4 0 2.48.3 3.24.9.8.56 1.2 1.36 1.2 2.4 0 1.24-.4 2.32-1.2 3.24-.76.92-1.8 1.72-3.12 2.4-1.32.64-2.8 1.18-4.44 1.62-1.6.44-3.24.82-4.92 1.14-.24.04-.44.1-.6.18-.12.04-.22.18-.3.42-.28.88-.56 1.84-.84 2.88-.28 1.04-.42 2.02-.42 2.94 0 1.4.26 2.48.78 3.24.56.76 1.36 1.14 2.4 1.14 1.44 0 2.66-.36 3.66-1.08 1-.72 1.82-1.44 2.46-2.16.4-.44.76-.66 1.08-.66.4 0 .6.2.6.6v.24c0 .08-.04.16-.12.24-.8 1.32-1.7 2.44-2.7 3.36-1 .88-2.08 1.54-3.24 1.98-1.12.48-2.34.72-3.66.72Zm1.32-15.42c.44 0 1.18-.12 2.22-.36 1.08-.28 2.2-.7 3.36-1.26 1.16-.6 2.14-1.32 2.94-2.16.84-.88 1.26-1.92 1.26-3.12 0-.52-.14-.96-.42-1.32-.28-.4-.68-.6-1.2-.6-.84 0-1.76.36-2.76 1.08-.96.68-1.88 1.52-2.76 2.52-.88.96-1.62 1.9-2.22 2.82-.56.92-.84 1.6-.84 2.04 0 .24.14.36.42.36Zm16.549 15.48c-.24 0-.48-.1-.72-.3-.2-.16-.38-.38-.54-.66-.16-.24-.28-.52-.36-.84-.04-.32 0-.6.12-.84l6.96-17.04c.72-1.76.76-2.64.12-2.64-.4 0-.82.06-1.26.18-.44.08-.92.32-1.44.72-.52.4-1.1 1.02-1.74 1.86-.16.16-.34.24-.54.24-.16-.04-.28-.2-.36-.48 0-.24.06-.54.18-.9.16-.4.34-.78.54-1.14.2-.4.38-.72.54-.96.6-.92 1.4-1.64 2.4-2.16 1.04-.52 2.24-.8 3.6-.84.44 0 .84.12 1.2.36.36.2.62.5.78.9.2.4.2.84 0 1.32l-3.96 10.2c-.12.28-.1.44.06.48.2.04.36-.04.48-.24 1.64-2.8 3.3-5.16 4.98-7.08 1.72-1.96 3.36-3.44 4.92-4.44 1.56-1 2.94-1.5 4.14-1.5.84 0 1.56.3 2.16.9.64.56 1.04 1.34 1.2 2.34.2.96.02 2.08-.54 3.36l-5.52 13.08c-.6 1.44-.5 2.16.3 2.16.48 0 1.06-.18 1.74-.54.72-.36 1.44-.78 2.16-1.26.72-.52 1.34-.98 1.86-1.38.56-.44.92-.74 1.08-.9l.06-.06h.12c.12 0 .22.06.3.18.12.08.18.2.18.36 0 .32-.08.6-.24.84a26.66 26.66 0 0 1-3.36 3.36c-1.16 1-2.38 1.8-3.66 2.4-1.24.56-2.5.84-3.78.84-.36 0-.72-.14-1.08-.42-.36-.24-.64-.56-.84-.96-.16-.4-.14-.82.06-1.26 1.16-2.68 2.32-5.34 3.48-7.98 1.2-2.68 2.32-5.36 3.36-8.04.64-1.64.86-2.78.66-3.42-.2-.68-.58-1.04-1.14-1.08-.44-.04-.96.12-1.56.48-.6.32-1.28.84-2.04 1.56-.76.68-1.58 1.56-2.46 2.64-.48.56-1.12 1.44-1.92 2.64-.8 1.16-1.7 2.52-2.7 4.08-1 1.52-2.04 3.16-3.12 4.92-1.04 1.72-2.04 3.42-3 5.1-.36.64-.68 1.1-.96 1.38-.28.32-.58.48-.9.48Zm31.701-.12c-.32 0-.68-.14-1.08-.42-.4-.24-.74-.52-1.02-.84-.24-.36-.36-.68-.36-.96 0-.68.08-1.26.24-1.74.2-.48.4-1.02.6-1.62l5.7-16.02c.08-.28.04-.46-.12-.54a.649.649 0 0 0-.48-.18l-2.4-.12c-.52-.04-.84-.14-.96-.3-.08-.2-.12-.38-.12-.54 0-.08.1-.22.3-.42.2-.24.44-.46.72-.66.32-.24.66-.36 1.02-.36h2.16c.44 0 .74-.06.9-.18.16-.16.34-.46.54-.9l1.44-2.94c.16-.32.46-.68.9-1.08.44-.44.88-.82 1.32-1.14.48-.32.82-.48 1.02-.48.32 0 .52.22.6.66.08.44.04.86-.12 1.26l-1.56 4.02c-.08.28-.06.46.06.54.16.08.4.12.72.12.8 0 1.62.06 2.46.18.84.12 1.52.22 2.04.3.64.12 1.02.26 1.14.42.16.12.24.28.24.48 0 .08-.08.22-.24.42-.16.16-.46.26-.9.3-.88.04-1.72.1-2.52.18-.8.04-1.64.08-2.52.12-.64.04-1.1.14-1.38.3-.24.16-.4.36-.48.6l-5.34 14.76c-.16.48-.24.9-.24 1.26s.1.64.3.84c.24.2.58.3 1.02.3.56 0 1.16-.2 1.8-.6.64-.4 1.26-.86 1.86-1.38.6-.52 1.1-.98 1.5-1.38.44-.44.82-.64 1.14-.6.32.04.48.18.48.42 0 .28-.1.6-.3.96-.2.32-.46.66-.78 1.02-.64.68-1.32 1.32-2.04 1.92-.68.6-1.4 1.16-2.16 1.68-.72.48-1.42.9-2.1 1.26-.64.32-1.22.58-1.74.78-.52.2-.94.3-1.26.3Zm19.031 16.56c-1.48 0-2.68-.26-3.6-.78-.92-.48-1.38-1.22-1.38-2.22 0-.6.3-1.18.9-1.74.56-.52 1.04-.78 1.44-.78.32 0 .62.16.9.48.28.36.62.76 1.02 1.2.36.4.8.74 1.32 1.02.48.28 1.08.42 1.8.42.76 0 1.42-.22 1.98-.66.56-.44 1.12-1.24 1.68-2.4.52-1.16 1.1-2.84 1.74-5.04l8.04-27.24c.24-.72-.04-1.08-.84-1.08l-3.72.06c-.28 0-.48-.06-.6-.18a.878.878 0 0 1-.18-.54c0-.32.12-.64.36-.96.24-.36.5-.56.78-.6l4.2-.24c.56-.08.94-.48 1.14-1.2l.48-1.92c.96-3.8 2.24-6.82 3.84-9.06 1.64-2.24 3.34-3.84 5.1-4.8 1.8-1 3.4-1.5 4.8-1.5 1.76 0 3.14.4 4.14 1.2 1 .76 1.5 1.76 1.5 3 0 1-.28 1.76-.84 2.28-.52.52-1.06.78-1.62.78-.28 0-.54-.22-.78-.66l-.84-1.68c-.36-.8-.82-1.4-1.38-1.8-.56-.44-1.28-.66-2.16-.66-1.12 0-2.08.26-2.88.78-.76.52-1.46 1.48-2.1 2.88-.64 1.4-1.36 3.42-2.16 6.06-.24.76-.46 1.5-.66 2.22-.16.68-.36 1.42-.6 2.22-.08.28-.16.5-.24.66-.04.16-.06.34-.06.54s.06.34.18.42c.12.08.26.12.42.12 1.2 0 2.34-.02 3.42-.06 1.12-.08 2.18-.12 3.18-.12.28 0 .42.22.42.66 0 .16-.08.38-.24.66-.12.28-.32.54-.6.78-.24.2-.54.3-.9.3l-5.46.06c-.4 0-.74.08-1.02.24-.24.12-.4.36-.48.72-1.4 4.52-2.76 9.08-4.08 13.68a502.2 502.2 0 0 0-3.72 13.68c-.4 1.6-1.08 3.06-2.04 4.38-.92 1.32-1.96 2.46-3.12 3.42-1.2.96-2.36 1.7-3.48 2.22-1.16.52-2.16.78-3 .78Zm32.417-16.56c-.96 0-1.86-.32-2.7-.96-.84-.64-1.52-1.48-2.04-2.52a7.782 7.782 0 0 1-.72-3.3c0-1.88.36-3.9 1.08-6.06.76-2.2 1.8-4.26 3.12-6.18 1.32-1.96 2.84-3.56 4.56-4.8 1.76-1.24 3.64-1.86 5.64-1.86 2 0 3.54.68 4.62 2.04 1.12 1.36 1.68 3.04 1.68 5.04 0 1.8-.36 3.78-1.08 5.94-.72 2.12-1.76 4.14-3.12 6.06-1.32 1.92-2.92 3.5-4.8 4.74-1.84 1.24-3.92 1.86-6.24 1.86Zm.96-1.8c.96 0 1.92-.42 2.88-1.26 1-.84 1.94-1.94 2.82-3.3.92-1.36 1.72-2.86 2.4-4.5.72-1.64 1.28-3.28 1.68-4.92.44-1.64.66-3.14.66-4.5 0-1.04-.18-1.9-.54-2.58-.32-.68-1-1.02-2.04-1.02-.92 0-1.88.38-2.88 1.14-.96.76-1.9 1.78-2.82 3.06-.88 1.28-1.68 2.72-2.4 4.32-.72 1.56-1.3 3.2-1.74 4.92-.4 1.68-.6 3.32-.6 4.92 0 1.32.22 2.28.66 2.88.48.56 1.12.84 1.92.84Zm18.953 1.98c-.2 0-.42-.08-.66-.24-.24-.12-.44-.3-.6-.54-.16-.2-.24-.42-.24-.66 0-.48.12-1.08.36-1.8.28-.76.62-1.7 1.02-2.82l5.52-14.4c.2-.52.28-1 .24-1.44 0-.44-.2-.66-.6-.66-.56 0-1.12.08-1.68.24-.52.12-.92.26-1.2.42-.24.16-.48.2-.72.12-.2-.12-.3-.32-.3-.6 0-.32.14-.68.42-1.08.32-.4.74-.78 1.26-1.14.48-.36 1.04-.66 1.68-.9.68-.24 1.38-.36 2.1-.36 1.12 0 1.82.28 2.1.84.32.56.36 1.32.12 2.28-.2.92-.54 1.98-1.02 3.18l-2.7 6.78c-.16.28-.12.46.12.54.28.08.48.02.6-.18 1.6-2.76 3.2-5.16 4.8-7.2 1.64-2.08 3.16-3.68 4.56-4.8 1.4-1.16 2.56-1.74 3.48-1.74 1.04 0 1.76.3 2.16.9.44.6.66 1.3.66 2.1 0 .72-.14 1.46-.42 2.22-.24.76-.6 1.4-1.08 1.92-.44.48-.94.72-1.5.72-.32 0-.56-.18-.72-.54-.16-.4-.24-.92-.24-1.56 0-.6-.08-1.06-.24-1.38-.16-.36-.46-.54-.9-.54-.4 0-.94.26-1.62.78-.64.52-1.46 1.42-2.46 2.7-.44.6-1.02 1.42-1.74 2.46s-1.5 2.2-2.34 3.48c-.8 1.24-1.6 2.52-2.4 3.84-.8 1.28-1.5 2.46-2.1 3.54-1.08 1.92-1.86 3.32-2.34 4.2-.44.88-.9 1.32-1.38 1.32Zm23.635 0c-.2 0-.38-.1-.54-.3-.16-.2-.3-.44-.42-.72-.08-.28-.12-.54-.12-.78 0-.2.12-.68.36-1.44.28-.76.62-1.7 1.02-2.82l5.52-14.46c.2-.52.2-.96 0-1.32-.2-.36-.54-.54-1.02-.54-.6 0-1.24.14-1.92.42-.64.28-1.44 1.06-2.4 2.34-.16.16-.34.24-.54.24-.16-.04-.28-.2-.36-.48 0-.24.04-.54.12-.9.08-.4.2-.8.36-1.2.2-.4.38-.7.54-.9.68-.84 1.5-1.54 2.46-2.1s2.12-.86 3.48-.9c.56 0 1.1.1 1.62.3.56.16.96.48 1.2.96.28.48.26 1.14-.06 1.98l-3.42 8.88c-.12.28-.1.44.06.48.2.04.36-.04.48-.24 1.72-2.64 3.36-4.88 4.92-6.72 1.6-1.84 3.12-3.24 4.56-4.2 1.48-.96 2.86-1.44 4.14-1.44.76 0 1.44.22 2.04.66.64.44 1.06 1.1 1.26 1.98.24.84.14 1.9-.3 3.18l-2.16 6.3c-.12.28-.1.44.06.48.2.04.36-.04.48-.24 1.68-2.76 3.32-5.04 4.92-6.84 1.64-1.84 3.22-3.22 4.74-4.14 1.52-.92 2.92-1.38 4.2-1.38.76 0 1.44.24 2.04.72.6.48.98 1.2 1.14 2.16.2.92.02 2.08-.54 3.48l-5.16 13.32c-.6 1.44-.5 2.16.3 2.16.48 0 1.06-.22 1.74-.66.68-.44 1.36-.96 2.04-1.56.72-.6 1.34-1.14 1.86-1.62l1.02-1.02.06-.06h.12c.12 0 .22.06.3.18.12.08.18.2.18.36 0 .32-.08.66-.24 1.02-.12.32-.4.7-.84 1.14-1.32 1.48-2.8 2.86-4.44 4.14-1.64 1.28-3.4 1.92-5.28 1.92-.32 0-.66-.14-1.02-.42-.32-.24-.58-.58-.78-1.02-.16-.44-.16-.88 0-1.32l6.96-17.94c.32-.8.3-1.4-.06-1.8-.32-.4-.7-.62-1.14-.66-.64-.04-1.5.3-2.58 1.02-1.08.68-2.28 1.84-3.6 3.48-.6.76-1.44 1.9-2.52 3.42-1.04 1.52-2.12 3.16-3.24 4.92a86.032 86.032 0 0 0-2.82 4.8c-.68 1.28-1.32 2.34-1.92 3.18-.6.84-1.14 1.46-1.62 1.86-.48.44-.88.66-1.2.66-.2 0-.38-.1-.54-.3-.16-.16-.3-.36-.42-.6-.08-.24-.12-.48-.12-.72 0-.2.12-.7.36-1.5.28-.84.62-1.82 1.02-2.94l5.58-15c.36-.92.32-1.54-.12-1.86-.44-.36-.8-.56-1.08-.6-.64-.08-1.5.26-2.58 1.02-1.08.72-2.28 1.9-3.6 3.54-.48.56-1.08 1.36-1.8 2.4-.72 1.04-1.5 2.2-2.34 3.48-.8 1.24-1.6 2.52-2.4 3.84-.76 1.28-1.44 2.46-2.04 3.54-1.04 1.92-1.84 3.36-2.4 4.32-.56.92-1.08 1.38-1.56 1.38Zm61.335-.18c-.96 0-1.86-.32-2.7-.96-.84-.64-1.52-1.48-2.04-2.52a7.782 7.782 0 0 1-.72-3.3c0-1.88.36-3.9 1.08-6.06.76-2.2 1.8-4.26 3.12-6.18 1.32-1.96 2.84-3.56 4.56-4.8 1.76-1.24 3.64-1.86 5.64-1.86 2 0 3.54.68 4.62 2.04 1.12 1.36 1.68 3.04 1.68 5.04 0 1.8-.36 3.78-1.08 5.94-.72 2.12-1.76 4.14-3.12 6.06-1.32 1.92-2.92 3.5-4.8 4.74-1.84 1.24-3.92 1.86-6.24 1.86Zm.96-1.8c.96 0 1.92-.42 2.88-1.26 1-.84 1.94-1.94 2.82-3.3.92-1.36 1.72-2.86 2.4-4.5.72-1.64 1.28-3.28 1.68-4.92.44-1.64.66-3.14.66-4.5 0-1.04-.18-1.9-.54-2.58-.32-.68-1-1.02-2.04-1.02-.92 0-1.88.38-2.88 1.14-.96.76-1.9 1.78-2.82 3.06-.88 1.28-1.68 2.72-2.4 4.32-.72 1.56-1.3 3.2-1.74 4.92-.4 1.68-.6 3.32-.6 4.92 0 1.32.22 2.28.66 2.88.48.56 1.12.84 1.92.84Zm8.693 18.36c-1.48 0-2.68-.26-3.6-.78-.92-.48-1.38-1.22-1.38-2.22 0-.6.3-1.18.9-1.74.56-.52 1.04-.78 1.44-.78.32 0 .62.16.9.48.28.36.62.76 1.02 1.2.36.4.8.74 1.32 1.02.48.28 1.08.42 1.8.42.76 0 1.42-.22 1.98-.66.56-.44 1.12-1.24 1.68-2.4.52-1.16 1.1-2.84 1.74-5.04l8.04-27.24c.24-.72-.04-1.08-.84-1.08l-3.72.06c-.28 0-.48-.06-.6-.18a.878.878 0 0 1-.18-.54c0-.32.12-.64.36-.96.24-.36.5-.56.78-.6l4.2-.24c.56-.08.94-.48 1.14-1.2l.48-1.92c.96-3.8 2.24-6.82 3.84-9.06 1.64-2.24 3.34-3.84 5.1-4.8 1.8-1 3.4-1.5 4.8-1.5 1.76 0 3.14.4 4.14 1.2 1 .76 1.5 1.76 1.5 3 0 1-.28 1.76-.84 2.28-.52.52-1.06.78-1.62.78-.28 0-.54-.22-.78-.66l-.84-1.68c-.36-.8-.82-1.4-1.38-1.8-.56-.44-1.28-.66-2.16-.66-1.12 0-2.08.26-2.88.78-.76.52-1.46 1.48-2.1 2.88-.64 1.4-1.36 3.42-2.16 6.06-.24.76-.46 1.5-.66 2.22-.16.68-.36 1.42-.6 2.22-.08.28-.16.5-.24.66-.04.16-.06.34-.06.54s.06.34.18.42c.12.08.26.12.42.12 1.2 0 2.34-.02 3.42-.06 1.12-.08 2.18-.12 3.18-.12.28 0 .42.22.42.66 0 .16-.08.38-.24.66-.12.28-.32.54-.6.78-.24.2-.54.3-.9.3l-5.46.06c-.4 0-.74.08-1.02.24-.24.12-.4.36-.48.72-1.4 4.52-2.76 9.08-4.08 13.68a502.2 502.2 0 0 0-3.72 13.68c-.4 1.6-1.08 3.06-2.04 4.38-.92 1.32-1.96 2.46-3.12 3.42-1.2.96-2.36 1.7-3.48 2.22-1.16.52-2.16.78-3 .78Zm41.309-16.56c-.52 0-1.1-.28-1.74-.84-.64-.56-.96-1.16-.96-1.8 0-.24.04-.48.12-.72l11.4-32.46c.2-.56.34-1.1.42-1.62.12-.52.18-1.04.18-1.56 0-.36-.2-.7-.6-1.02-.36-.32-.82-.54-1.38-.66-.4-.08-.72-.18-.96-.3-.24-.16-.36-.32-.36-.48v-.3l.12-.24c.08-.08.16-.12.24-.12.76-.2 1.68-.38 2.76-.54 1.08-.2 2.08-.36 3-.48.96-.16 1.6-.24 1.92-.24.2 0 .36.08.48.24.16.12.24.34.24.66 0 .24-.04.52-.12.84l-.24.84-12.12 34.56c-.12.32-.2.64-.24.96-.04.28-.06.54-.06.78 0 .64.2.96.6.96.56 0 1.24-.3 2.04-.9.84-.64 1.66-1.4 2.46-2.28.8-.88 1.44-1.66 1.92-2.34.24-.32.52-.62.84-.9.32-.32.56-.48.72-.48.16 0 .24.08.24.24.04.12.06.3.06.54 0 .8-.28 1.64-.84 2.52-.52.88-1.22 1.76-2.1 2.64-.88.84-1.82 1.6-2.82 2.28-1 .68-1.96 1.22-2.88 1.62-.92.4-1.7.6-2.34.6Zm17.768 0c-.68 0-1.24-.22-1.68-.66-.44-.44-.66-.9-.66-1.38v-.48c.04-.16.1-.32.18-.48 1.64-3.32 3.02-6.44 4.14-9.36 1.12-2.96 2.12-5.54 3-7.74.16-.48.06-.72-.3-.72-.2 0-.6.12-1.2.36-.56.2-1.16.48-1.8.84-.64.36-1.2.72-1.68 1.08-.2.16-.4.2-.6.12-.2-.08-.3-.22-.3-.42 0-.2.14-.48.42-.84.32-.4.74-.84 1.26-1.32.56-.48 1.22-.98 1.98-1.5a29.1 29.1 0 0 1 2.46-1.62c.92-.56 1.88-1.06 2.88-1.5.36-.16.72-.12 1.08.12.36.24.64.54.84.9.24.36.32.64.24.84l-7.32 17.34c-.16.32-.28.64-.36.96-.04.28-.06.54-.06.78 0 .28.1.48.3.6.24.08.46.12.66.12.56 0 1.2-.26 1.92-.78.72-.56 1.48-1.22 2.28-1.98.84-.8 1.64-1.58 2.4-2.34.08-.08.16-.12.24-.12.08 0 .16.04.24.12.08.04.12.1.12.18 0 .64-.38 1.46-1.14 2.46-.76.96-1.72 1.94-2.88 2.94-1.12.96-2.28 1.78-3.48 2.46-1.2.68-2.26 1.02-3.18 1.02Zm12.12-31.62c-.6 0-1.1-.24-1.5-.72-.4-.48-.6-1.02-.6-1.62 0-.96.32-1.8.96-2.52.64-.76 1.44-1.14 2.4-1.14.64 0 1.14.28 1.5.84.36.52.54 1.1.54 1.74 0 .88-.32 1.68-.96 2.4-.64.68-1.42 1.02-2.34 1.02Zm-5.103 48.18c-1.48 0-2.68-.26-3.6-.78-.92-.48-1.38-1.22-1.38-2.22 0-.6.3-1.18.9-1.74.56-.52 1.04-.78 1.44-.78.32 0 .62.16.9.48.28.36.62.76 1.02 1.2.36.4.8.74 1.32 1.02.48.28 1.08.42 1.8.42.76 0 1.42-.22 1.98-.66.56-.44 1.12-1.24 1.68-2.4.52-1.16 1.1-2.84 1.74-5.04l8.04-27.24c.24-.72-.04-1.08-.84-1.08l-3.72.06c-.28 0-.48-.06-.6-.18a.878.878 0 0 1-.18-.54c0-.32.12-.64.36-.96.24-.36.5-.56.78-.6l4.2-.24c.56-.08.94-.48 1.14-1.2l.48-1.92c.96-3.8 2.24-6.82 3.84-9.06 1.64-2.24 3.34-3.84 5.1-4.8 1.8-1 3.4-1.5 4.798-1.5 1.76 0 3.14.4 4.14 1.2 1 .76 1.5 1.76 1.5 3 0 1-.28 1.76-.84 2.28-.52.52-1.06.78-1.62.78-.28 0-.54-.22-.78-.66l-.84-1.68c-.36-.8-.82-1.4-1.38-1.8-.56-.44-1.28-.66-2.158-.66-1.12 0-2.08.26-2.88.78-.76.52-1.46 1.48-2.1 2.88-.64 1.4-1.36 3.42-2.16 6.06-.24.76-.46 1.5-.66 2.22-.16.68-.36 1.42-.6 2.22-.08.28-.16.5-.24.66-.04.16-.06.34-.06.54s.06.34.18.42c.12.08.26.12.42.12 1.2 0 2.34-.02 3.42-.06 1.12-.08 2.18-.12 3.18-.12.28 0 .42.22.42.66 0 .16-.08.38-.24.66-.12.28-.32.54-.6.78-.24.2-.54.3-.9.3l-5.46.06c-.4 0-.74.08-1.02.24-.24.12-.4.36-.48.72-1.4 4.52-2.76 9.08-4.08 13.68a502.2 502.2 0 0 0-3.72 13.68c-.4 1.6-1.08 3.06-2.04 4.38-.92 1.32-1.96 2.46-3.12 3.42-1.2.96-2.36 1.7-3.48 2.22-1.16.52-2.16.78-3 .78Zm32.298-16.5c-.84 0-1.7-.32-2.581-.96a8.121 8.121 0 0 1-2.1-2.4c-.56-1-.84-1.96-.84-2.88 0-2 .4-4.12 1.2-6.36.84-2.28 1.981-4.4 3.421-6.36 1.44-2 3.1-3.62 4.98-4.86 1.92-1.28 3.94-1.92 6.06-1.92 1.4 0 2.48.3 3.24.9.8.56 1.2 1.36 1.2 2.4 0 1.24-.4 2.32-1.2 3.24-.76.92-1.8 1.72-3.12 2.4-1.32.64-2.8 1.18-4.44 1.62-1.6.44-3.24.82-4.92 1.14-.24.04-.44.1-.6.18-.12.04-.22.18-.3.42-.28.88-.56 1.84-.84 2.88-.28 1.04-.42 2.02-.42 2.94 0 1.4.26 2.48.78 3.24.56.76 1.36 1.14 2.4 1.14 1.44 0 2.66-.36 3.66-1.08 1-.72 1.82-1.44 2.46-2.16.4-.44.76-.66 1.08-.66.4 0 .6.2.6.6v.24c0 .08-.04.16-.12.24-.8 1.32-1.7 2.44-2.7 3.36-1 .88-2.08 1.54-3.24 1.98-1.12.48-2.34.72-3.66.72Zm1.32-15.42c.44 0 1.18-.12 2.22-.36 1.08-.28 2.2-.7 3.36-1.26 1.16-.6 2.14-1.32 2.94-2.16.84-.88 1.26-1.92 1.26-3.12 0-.52-.14-.96-.42-1.32-.28-.4-.68-.6-1.2-.6-.84 0-1.76.36-2.76 1.08-.96.68-1.88 1.52-2.76 2.52-.88.96-1.62 1.9-2.22 2.82-.56.92-.84 1.6-.84 2.04 0 .24.14.36.42.36Zm15.71 15.36c-.76 0-1.4-.3-1.92-.9-.52-.64-.78-1.34-.78-2.1 0-.72.18-1.38.54-1.98.36-.6.82-1.06 1.38-1.38.6-.36 1.26-.54 1.98-.54.8 0 1.44.3 1.92.9.52.6.78 1.3.78 2.1 0 .72-.18 1.38-.54 1.98-.32.56-.78 1.02-1.38 1.38-.6.36-1.26.54-1.98.54Z" fill="#3C4043"/><path d="M833.209 215.78c-1.24-.08-2.36-.14-3.36-.18-.96-.04-1.84-.06-2.64-.06-.56 0-1.14.02-1.74.06-.56 0-1.18.02-1.86.06-.64 0-1.34.02-2.1.06-.12 0-.18-.06-.18-.18 0-.28.16-.54.48-.78l6.78-5.64c1.72-1.4 3.08-2.9 4.08-4.5 1.04-1.64 1.56-2.86 1.56-3.66 0-.84-.26-1.48-.78-1.92-.52-.44-1.2-.66-2.04-.66-.76 0-1.54.22-2.34.66-.8.4-1.56 1.02-2.28 1.86l-.3.3c-.08.04-.16.06-.24.06-.12 0-.2-.06-.24-.18-.04-.12-.04-.28 0-.48.24-.68.72-1.42 1.44-2.22.76-.8 1.7-1.5 2.82-2.1 1.12-.6 2.32-.9 3.6-.9 1.12 0 2.06.36 2.82 1.08.76.72 1.14 1.68 1.14 2.88 0 1.44-.4 2.62-1.2 3.54-.76.92-1.58 1.86-2.46 2.82-.48.48-1.1 1.06-1.86 1.74-.76.68-1.56 1.36-2.4 2.04-.8.68-1.52 1.26-2.16 1.74-.6.48-.96.78-1.08.9-.12.12-.1.22.06.3.2.04.38.06.54.06h3.84c.84 0 1.72-.28 2.64-.84.92-.56 1.72-1.28 2.4-2.16.08-.16.22-.28.42-.36.2-.08.38-.12.54-.12.08 0 .12.08.12.24 0 .12-.04.22-.12.3-.44.72-.86 1.38-1.26 1.98-.36.6-.7 1.18-1.02 1.74-.28.52-.58 1.1-.9 1.74-.16.32-.3.54-.42.66-.12.08-.22.12-.3.12Z" fill="#1A73E8"/></g><defs><clipPath id="a"><path fill="#fff" d="M0 0h1920v1080H0z"/></clipPath></defs></svg>