<svg width="1920" height="1080" fill="none" xmlns="http://www.w3.org/2000/svg"><path fill="#D2E3FC" d="M222.999 1030V50h20v980zM953 1030V50h20v980z"/><path d="M981.664 511h-8.037v-69.325h19.458c5.358 0 9.805 1.003 13.345 3.008 3.54 1.974 6.19 4.637 7.95 7.99 1.75 3.353 2.63 7.081 2.63 11.186 0 4.105-.91 7.896-2.73 11.374-1.78 3.478-4.46 6.282-8.03 8.413-3.55 2.099-7.932 3.149-13.165 3.149h-11.421V511Zm0-27.166-3.619-4.089h14.053c3.76 0 6.878-.658 9.352-1.974 2.51-1.347 4.37-3.212 5.59-5.593 1.26-2.381 1.88-5.154 1.88-8.319 0-3.196-.59-5.922-1.78-8.178-1.19-2.256-3.03-3.979-5.5-5.17-2.476-1.191-5.657-1.786-9.542-1.786h-14.053l3.619-4.559v39.668Zm65.016 28.059c-3.57 0-6.55-.611-8.93-1.833-2.38-1.253-4.27-2.867-5.68-4.841a19.654 19.654 0 0 1-2.96-6.392c-.57-2.319-.85-4.543-.85-6.674v-31.067h8.04V490.226c0 2.538.34 4.888 1.03 7.05.72 2.162 1.96 3.917 3.71 5.264 1.76 1.316 4.17 1.974 7.24 1.974 2.88 0 5.41-.862 7.57-2.585 2.16-1.755 3.85-3.932 5.07-6.533 1.23-2.632 1.84-5.248 1.84-7.849l4.65 1.927c0 2.757-.49 5.468-1.46 8.131a23.93 23.93 0 0 1-4.18 7.191 19.953 19.953 0 0 1-6.53 5.17c-2.54 1.285-5.39 1.927-8.56 1.927Zm16.08-.893v-49.914h7.99V511h-7.99Zm30.46-73.461V511h-7.89v-73.461h7.89Zm23.23 0V511h-7.9v-73.461h7.9Zm58.71 74.401c-4.11 0-7.87-.987-11.28-2.961-3.42-2.005-6.14-4.935-8.18-8.789-2.04-3.885-3.06-8.617-3.06-14.194 0-5.483 1.04-10.136 3.11-13.959 2.06-3.823 4.81-6.721 8.22-8.695 3.42-2.005 7.15-3.008 11.19-3.008 3.85 0 7.46.924 10.81 2.773 3.38 1.817 6.11 4.355 8.18 7.614 2.06 3.259 3.1 7.034 3.1 11.327v.564l-5.74.235v-.611c0-2.726-.72-5.186-2.16-7.379-1.41-2.193-3.27-3.932-5.59-5.217a14.895 14.895 0 0 0-7.47-1.974c-4.45 0-8.14 1.504-11.05 4.512-2.91 2.977-4.37 7.583-4.37 13.818 0 6.204 1.46 10.826 4.37 13.865 2.95 3.008 6.63 4.512 11.05 4.512 2.78 0 5.32-.674 7.61-2.021 2.32-1.347 4.17-3.149 5.55-5.405 1.37-2.287 2.06-4.841 2.06-7.661l5.74.141c0 4.261-.99 8.1-2.96 11.515-1.98 3.384-4.64 6.063-7.99 8.037-3.32 1.974-7.04 2.961-11.14 2.961Zm16.35 19.599v-70.453h7.99v70.453h-7.99Zm40.51-19.646c-3.57 0-6.55-.611-8.93-1.833-2.38-1.253-4.28-2.867-5.69-4.841a20.077 20.077 0 0 1-2.96-6.392c-.56-2.319-.84-4.543-.84-6.674v-31.067h8.03V490.226c0 2.538.35 4.888 1.04 7.05.72 2.162 1.96 3.917 3.71 5.264 1.76 1.316 4.17 1.974 7.24 1.974 2.88 0 5.4-.862 7.57-2.585 2.16-1.755 3.85-3.932 5.07-6.533 1.22-2.632 1.84-5.248 1.84-7.849l4.65 1.927c0 2.757-.49 5.468-1.46 8.131a23.93 23.93 0 0 1-4.18 7.191c-1.79 2.162-3.97 3.885-6.53 5.17-2.54 1.285-5.39 1.927-8.56 1.927Zm16.08-.893v-49.914h7.99V511h-7.99Zm45.5.893c-5.01 0-9.45-1.112-13.3-3.337-3.82-2.256-6.83-5.327-9.02-9.212-2.17-3.917-3.25-8.366-3.25-13.348 0-4.982 1.08-9.4 3.25-13.254 2.19-3.854 5.2-6.878 9.02-9.071 3.85-2.193 8.29-3.29 13.3-3.29 5.01 0 9.43 1.097 13.26 3.29 3.85 2.193 6.86 5.217 9.02 9.071 2.19 3.854 3.29 8.272 3.29 13.254 0 4.982-1.1 9.431-3.29 13.348-2.16 3.885-5.17 6.956-9.02 9.212-3.83 2.225-8.25 3.337-13.26 3.337Zm0-7.332c3.45 0 6.49-.768 9.12-2.303 2.63-1.535 4.68-3.697 6.16-6.486 1.5-2.789 2.25-6.047 2.25-9.776s-.75-6.956-2.25-9.682c-1.48-2.757-3.53-4.872-6.16-6.345-2.63-1.504-5.67-2.256-9.12-2.256-3.41 0-6.45.752-9.12 2.256-2.63 1.473-4.7 3.588-6.2 6.345-1.47 2.726-2.21 5.953-2.21 9.682s.74 6.987 2.21 9.776c1.5 2.789 3.57 4.951 6.2 6.486 2.67 1.535 5.71 2.303 9.12 2.303Zm56.78 7.191c-1.54 0-3.04-.172-4.51-.517a10.79 10.79 0 0 1-4-1.833c-1.16-.909-2.08-2.178-2.77-3.807-.69-1.661-1.04-3.791-1.04-6.392v-31.067h-12.17v-7.05h7.8c1.07 0 1.9-.031 2.49-.094.6-.094 1.02-.298 1.27-.611.29-.345.46-.862.52-1.551.06-.721.09-1.708.09-2.961v-11.327h8.04v16.544h15.61v7.05h-15.61V496.195c0 2.663.31 4.747.94 6.251.66 1.504 2.12 2.256 4.37 2.256.91 0 1.77-.078 2.59-.235.81-.157 1.42-.313 1.83-.47v6.956c-.53.188-1.28.36-2.26.517-.94.188-2 .282-3.19.282Zm22.5-22.513v-7.144h38.59l-1.41 2.35v-1.034c0-2.883-.61-5.515-1.84-7.896-1.19-2.413-2.97-4.34-5.35-5.781-2.39-1.441-5.33-2.162-8.84-2.162-3.54 0-6.66.752-9.35 2.256-2.7 1.504-4.8 3.635-6.3 6.392-1.51 2.726-2.26 5.985-2.26 9.776 0 3.854.72 7.175 2.16 9.964 1.48 2.789 3.56 4.935 6.26 6.439 2.69 1.504 5.89 2.256 9.58 2.256 2.64 0 4.92-.266 6.87-.799 1.94-.564 3.54-1.3 4.79-2.209 1.28-.94 2.26-1.958 2.91-3.055.66-1.097 1.05-2.193 1.18-3.29h7.99c-.16 2.005-.78 3.995-1.88 5.969-1.1 1.974-2.65 3.776-4.65 5.405-2.01 1.598-4.47 2.883-7.38 3.854-2.92.971-6.27 1.457-10.06 1.457-5.01 0-9.43-1.097-13.26-3.29-3.82-2.193-6.83-5.233-9.02-9.118-2.16-3.885-3.24-8.35-3.24-13.395 0-5.107 1.09-9.588 3.29-13.442 2.19-3.885 5.21-6.925 9.07-9.118 3.85-2.193 8.25-3.29 13.21-3.29 5.04 0 9.41 1.097 13.11 3.29 3.7 2.193 6.55 5.201 8.55 9.024 2.01 3.791 3.01 8.115 3.01 12.972 0 .501-.02 1.159-.05 1.974-.03.815-.07 1.363-.14 1.645h-45.54Zm105.33 22.654c-5.02 0-9.45-1.112-13.31-3.337-3.82-2.256-6.83-5.327-9.02-9.212-2.16-3.917-3.24-8.366-3.24-13.348 0-4.982 1.08-9.4 3.24-13.254 2.19-3.854 5.2-6.878 9.02-9.071 3.86-2.193 8.29-3.29 13.31-3.29 5.01 0 9.43 1.097 13.25 3.29 3.85 2.193 6.86 5.217 9.02 9.071 2.2 3.854 3.29 8.272 3.29 13.254 0 4.982-1.09 9.431-3.29 13.348-2.16 3.885-5.17 6.956-9.02 9.212-3.82 2.225-8.24 3.337-13.25 3.337Zm0-7.332c3.44 0 6.48-.768 9.11-2.303 2.64-1.535 4.69-3.697 6.16-6.486 1.5-2.789 2.26-6.047 2.26-9.776s-.76-6.956-2.26-9.682c-1.47-2.757-3.52-4.872-6.16-6.345-2.63-1.504-5.67-2.256-9.11-2.256-3.42 0-6.46.752-9.12 2.256-2.63 1.473-4.7 3.588-6.21 6.345-1.47 2.726-2.21 5.953-2.21 9.682s.74 6.987 2.21 9.776c1.51 2.789 3.58 4.951 6.21 6.486 2.66 1.535 5.7 2.303 9.12 2.303Zm43.56 6.439v-42.864h-10.91v-7.05h10.91v-6.439c0-2.225.25-4.261.75-6.11.53-1.88 1.28-3.541 2.25-4.982a15.047 15.047 0 0 1 3.62-3.666c1.41-1.003 3.01-1.755 4.8-2.256 1.81-.533 3.79-.799 5.92-.799 1.53 0 2.76.094 3.66.282.91.188 1.52.36 1.84.517v7.05c-.38-.125-1-.266-1.88-.423-.88-.157-1.82-.235-2.82-.235-2.13 0-3.87.329-5.22.987-1.32.658-2.33 1.567-3.05 2.726-.72 1.128-1.23 2.413-1.51 3.854a26.37 26.37 0 0 0-.37 4.512v4.982h14.57v7.05h-14.57V511h-7.99ZM993.931 619.752c-1.535 0-3.039-.172-4.512-.517a10.825 10.825 0 0 1-3.995-1.833c-1.159-.909-2.084-2.178-2.773-3.807-.689-1.661-1.034-3.791-1.034-6.392v-31.067h-12.173v-7.05h7.802c1.065 0 1.896-.031 2.491-.094.595-.094 1.018-.298 1.269-.611.282-.345.454-.862.517-1.551.063-.721.094-1.708.094-2.961v-11.327h8.037v16.544h15.606v7.05h-15.606V604.195c0 2.663.313 4.747.94 6.251.658 1.504 2.115 2.256 4.371 2.256.909 0 1.77-.078 2.585-.235.815-.157 1.426-.313 1.833-.47v6.956c-.533.188-1.285.36-2.256.517-.94.188-2.005.282-3.196.282Zm57.339-.752V590.471c0-4.794-1.04-8.413-3.11-10.857-2.03-2.444-5.28-3.666-9.72-3.666-2.98 0-5.6.58-7.85 1.739-2.23 1.159-3.97 2.742-5.22 4.747-1.25 2.005-1.88 4.277-1.88 6.815l-5.08-1.551c0-3.572.93-6.815 2.78-9.729 1.88-2.945 4.43-5.28 7.66-7.003 3.26-1.755 6.94-2.632 11.04-2.632 5.99 0 10.7 1.802 14.15 5.405 3.48 3.603 5.22 8.585 5.22 14.946V619h-7.99Zm-35.77 0v-73.461h7.99V619h-7.99Zm60.23-21.761v-7.144h38.59l-1.41 2.35v-1.034c0-2.883-.61-5.515-1.83-7.896-1.19-2.413-2.98-4.34-5.36-5.781-2.38-1.441-5.33-2.162-8.84-2.162-3.54 0-6.66.752-9.35 2.256-2.69 1.504-4.79 3.635-6.3 6.392-1.5 2.726-2.25 5.985-2.25 9.776 0 3.854.72 7.175 2.16 9.964 1.47 2.789 3.55 4.935 6.25 6.439 2.69 1.504 5.89 2.256 9.59 2.256 2.63 0 4.92-.266 6.86-.799 1.94-.564 3.54-1.3 4.79-2.209 1.29-.94 2.26-1.958 2.92-3.055.66-1.097 1.05-2.193 1.17-3.29h7.99c-.15 2.005-.78 3.995-1.88 5.969-1.09 1.974-2.65 3.776-4.65 5.405-2.01 1.598-4.47 2.883-7.38 3.854-2.91.971-6.27 1.457-10.06 1.457-5.01 0-9.43-1.097-13.25-3.29-3.82-2.193-6.83-5.233-9.03-9.118-2.16-3.885-3.24-8.35-3.24-13.395 0-5.107 1.1-9.588 3.29-13.442 2.19-3.885 5.22-6.925 9.07-9.118 3.86-2.193 8.26-3.29 13.21-3.29 5.04 0 9.41 1.097 13.11 3.29 3.7 2.193 6.55 5.201 8.56 9.024 2 3.791 3 8.115 3 12.972 0 .501-.01 1.159-.04 1.974s-.08 1.363-.14 1.645h-45.55Zm105.38 22.701c-4.77 0-9.09-1.034-12.98-3.102-3.88-2.099-6.97-5.092-9.26-8.977-2.25-3.885-3.38-8.507-3.38-13.865 0-5.358 1.13-9.948 3.38-13.771 2.29-3.854 5.38-6.799 9.26-8.836 3.89-2.037 8.21-3.055 12.98-3.055 3.63 0 6.87.564 9.72 1.692 2.86 1.097 5.27 2.569 7.24 4.418 1.98 1.849 3.48 3.885 4.51 6.11 1.07 2.193 1.6 4.387 1.6 6.58V587.463h-7.94c0-.157-.02-.329-.05-.517l-.09-.658c-.25-2.099-1.05-3.932-2.4-5.499-1.35-1.598-3.1-2.851-5.26-3.76-2.16-.909-4.62-1.363-7.38-1.363-3.1 0-5.99.674-8.65 2.021-2.63 1.316-4.76 3.337-6.39 6.063-1.6 2.695-2.4 6.11-2.4 10.246 0 4.105.8 7.536 2.4 10.293 1.6 2.757 3.71 4.841 6.34 6.251 2.67 1.379 5.57 2.068 8.7 2.068 3.38 0 6.17-.533 8.36-1.598 2.2-1.065 3.84-2.475 4.94-4.23 1.13-1.786 1.75-3.697 1.88-5.734h7.94c0 2.256-.5 4.512-1.5 6.768-1 2.225-2.48 4.261-4.42 6.11-1.94 1.817-4.35 3.274-7.24 4.371-2.85 1.097-6.15 1.645-9.91 1.645Zm38.1-22.701v-7.144h38.59l-1.41 2.35v-1.034c0-2.883-.61-5.515-1.83-7.896-1.2-2.413-2.98-4.34-5.36-5.781-2.38-1.441-5.33-2.162-8.84-2.162-3.54 0-6.66.752-9.35 2.256-2.7 1.504-4.8 3.635-6.3 6.392-1.5 2.726-2.26 5.985-2.26 9.776 0 3.854.73 7.175 2.17 9.964 1.47 2.789 3.55 4.935 6.25 6.439 2.69 1.504 5.89 2.256 9.59 2.256 2.63 0 4.91-.266 6.86-.799 1.94-.564 3.54-1.3 4.79-2.209 1.29-.94 2.26-1.958 2.92-3.055.65-1.097 1.05-2.193 1.17-3.29h7.99c-.16 2.005-.78 3.995-1.88 5.969-1.1 1.974-2.65 3.776-4.65 5.405-2.01 1.598-4.47 2.883-7.38 3.854-2.92.971-6.27 1.457-10.06 1.457-5.01 0-9.43-1.097-13.25-3.29-3.83-2.193-6.83-5.233-9.03-9.118-2.16-3.885-3.24-8.35-3.24-13.395 0-5.107 1.1-9.588 3.29-13.442 2.19-3.885 5.22-6.925 9.07-9.118 3.85-2.193 8.26-3.29 13.21-3.29 5.04 0 9.41 1.097 13.11 3.29 3.7 2.193 6.55 5.201 8.55 9.024 2.01 3.791 3.01 8.115 3.01 12.972 0 .501-.01 1.159-.04 1.974-.04.815-.08 1.363-.15 1.645h-45.54ZM1313.12 619V588.873c0-2.601-.44-4.872-1.32-6.815-.88-1.943-2.26-3.447-4.14-4.512-1.88-1.065-4.34-1.598-7.37-1.598-2.67 0-5.14.689-7.43 2.068-2.26 1.347-4.07 3.18-5.45 5.499-1.35 2.287-2.02 4.857-2.02 7.708l-4.56-1.739c0-3.917.95-7.473 2.86-10.669 1.95-3.196 4.52-5.734 7.71-7.614 3.23-1.911 6.74-2.867 10.53-2.867 3.85 0 7.22.736 10.11 2.209 2.88 1.473 5.1 3.588 6.67 6.345 1.6 2.726 2.4 6.016 2.4 9.87V619h-7.99Zm-35.72 0v-49.914h7.99V619h-7.99Zm76.01.752c-1.54 0-3.04-.172-4.51-.517a10.79 10.79 0 0 1-4-1.833c-1.16-.909-2.08-2.178-2.77-3.807-.69-1.661-1.04-3.791-1.04-6.392v-31.067h-12.17v-7.05h7.8c1.07 0 1.9-.031 2.49-.094.6-.094 1.02-.298 1.27-.611.28-.345.46-.862.52-1.551.06-.721.09-1.708.09-2.961v-11.327h8.04v16.544h15.6v7.05h-15.6V604.195c0 2.663.31 4.747.94 6.251.66 1.504 2.12 2.256 4.37 2.256.91 0 1.77-.078 2.59-.235.81-.157 1.42-.313 1.83-.47v6.956c-.53.188-1.29.36-2.26.517-.94.188-2 .282-3.19.282Zm39.99.141c-3.57 0-6.55-.611-8.93-1.833-2.38-1.253-4.28-2.867-5.69-4.841a19.863 19.863 0 0 1-2.96-6.392c-.56-2.319-.84-4.543-.84-6.674v-31.067h8.03V598.226c0 2.538.35 4.888 1.04 7.05.72 2.162 1.96 3.917 3.71 5.264 1.75 1.316 4.17 1.974 7.24 1.974 2.88 0 5.4-.862 7.57-2.585 2.16-1.755 3.85-3.932 5.07-6.533 1.22-2.632 1.83-5.248 1.83-7.849l4.66 1.927c0 2.757-.49 5.468-1.46 8.131a24.142 24.142 0 0 1-4.18 7.191c-1.79 2.162-3.97 3.885-6.54 5.17-2.53 1.285-5.39 1.927-8.55 1.927Zm16.07-.893v-49.914h7.99V619h-7.99Zm21.87 0v-49.914h7.99v15.322l-2.63-.94c.19-1.849.66-3.666 1.41-5.452a16.485 16.485 0 0 1 3.1-4.888c1.35-1.473 3.02-2.632 5.03-3.478 2-.877 4.35-1.316 7.05-1.316 2 0 3.63.172 4.89.517 1.28.313 2.08.564 2.39.752l-2.06 7.849c-.32-.219-.96-.501-1.93-.846-.94-.345-2.29-.517-4.04-.517-2.6 0-4.77.47-6.49 1.41-1.69.94-3.04 2.193-4.04 3.76a15.886 15.886 0 0 0-2.07 5.029 24.488 24.488 0 0 0-.61 5.405V619h-7.99Zm39.32 21.056c-1.25 0-2.39-.078-3.43-.235-1.03-.125-1.67-.251-1.92-.376v-6.956c.4.188 1.08.345 2.02.47s1.88.188 2.82.188c2 0 3.69-.423 5.07-1.269 1.38-.815 2.54-1.943 3.48-3.384.94-1.41 1.71-3.008 2.3-4.794l1.51-4.418-17.2-50.196h8.36l13.82 43.005h-1.13l13.54-43.005h8.22l-18.28 54.191c-1.03 3.039-2.29 5.828-3.76 8.366-1.44 2.538-3.38 4.575-5.83 6.11-2.41 1.535-5.61 2.303-9.59 2.303Zm47.63-19.834c-1.53 0-2.83-.517-3.9-1.551-1.03-1.065-1.55-2.366-1.55-3.901 0-1.504.52-2.789 1.55-3.854 1.07-1.065 2.37-1.598 3.9-1.598 1.51 0 2.79.533 3.86 1.598 1.06 1.065 1.6 2.35 1.6 3.854 0 1.535-.54 2.836-1.6 3.901-1.07 1.034-2.35 1.551-3.86 1.551Zm36.23-61.382c-1.6 0-2.89-.47-3.86-1.41-.94-.94-1.41-2.178-1.41-3.713 0-1.535.52-2.804 1.55-3.807 1.04-1.034 2.51-1.551 4.42-1.551 2.04 0 3.57.689 4.61 2.068 1.06 1.347 1.59 3.071 1.59 5.17 0 2.005-.47 3.807-1.41 5.405a14.364 14.364 0 0 1-3.61 4.042c-1.45 1.097-2.97 1.943-4.56 2.538l-1.04-2.256a11.5 11.5 0 0 0 3.2-1.786c1.03-.783 1.86-1.676 2.49-2.679.66-1.034.99-2.084.99-3.149-.13.219-.46.47-.99.752-.53.251-1.19.376-1.97.376Zm-15.37 0c-1.6 0-2.89-.47-3.86-1.41-.94-.94-1.41-2.178-1.41-3.713 0-1.535.52-2.804 1.55-3.807 1.04-1.034 2.53-1.551 4.47-1.551 2.04 0 3.57.689 4.6 2.068 1.07 1.347 1.6 3.071 1.6 5.17 0 2.005-.47 3.807-1.41 5.405a14.248 14.248 0 0 1-3.62 4.042c-1.47 1.097-3 1.943-4.6 2.538l-1.04-2.256a11.484 11.484 0 0 0 3.25-1.786c1-.783 1.81-1.676 2.44-2.679.66-1.034 1-2.084 1.03-3.149-.12.219-.45.47-.98.752-.54.251-1.21.376-2.02.376Z" fill="#3C4043"/><path d="M944.763 448.443c-1.598 0-2.773.658-3.008 1.128.094-3.196 3.29-6.392 6.721-7.614l-1.034-2.256c-4.747 1.786-9.635 5.969-9.635 11.985 0 4.183 2.162 7.238 6.204 7.238 3.901 0 6.016-2.303 6.016-5.358 0-3.102-2.068-5.123-5.264-5.123Zm15.369 0c-1.598 0-2.773.658-3.008 1.128.094-3.196 3.29-6.392 6.721-7.614l-1.034-2.256c-4.747 1.786-9.635 5.969-9.635 11.985 0 4.183 2.162 7.238 6.204 7.238 3.901 0 6.016-2.303 6.016-5.358 0-3.102-2.068-5.123-5.264-5.123Z" fill="#1A73E8"/><path d="M247.763 448.443c1.598 0 2.867.47 3.807 1.41.971.909 1.457 2.146 1.457 3.713 0 1.535-.517 2.82-1.551 3.854-1.034 1.003-2.522 1.504-4.465 1.504-2.005 0-3.541-.674-4.606-2.021-1.065-1.379-1.598-3.118-1.598-5.217 0-2.005.47-3.791 1.41-5.358a13.554 13.554 0 0 1 3.619-4.042c1.504-1.128 3.039-1.99 4.606-2.585l1.034 2.256a12.259 12.259 0 0 0-3.243 1.786 10.799 10.799 0 0 0-2.491 2.726c-.627 1.003-.956 2.037-.987 3.102.125-.251.454-.501.987-.752.564-.251 1.238-.376 2.021-.376Zm15.369 0c1.598 0 2.867.47 3.807 1.41.971.909 1.457 2.146 1.457 3.713 0 1.535-.517 2.82-1.551 3.854-1.034 1.003-2.522 1.504-4.465 1.504-2.005 0-3.541-.674-4.606-2.021-1.065-1.379-1.598-3.118-1.598-5.217 0-2.005.47-3.791 1.41-5.358a13.554 13.554 0 0 1 3.619-4.042c1.504-1.128 3.039-1.99 4.606-2.585l1.034 2.256a12.259 12.259 0 0 0-3.243 1.786 10.799 10.799 0 0 0-2.491 2.726c-.627 1.003-.956 2.037-.987 3.102.125-.251.454-.501.987-.752.564-.251 1.238-.376 2.021-.376Z" fill="#FF6D7F"/><path d="M286.914 511h-8.037v-69.325h19.458c5.358 0 9.807 1.003 13.348 3.008 3.541 1.974 6.188 4.637 7.943 7.99 1.755 3.353 2.632 7.081 2.632 11.186 0 4.105-.909 7.896-2.726 11.374-1.786 3.478-4.465 6.282-8.037 8.413-3.541 2.099-7.927 3.149-13.16 3.149h-11.421V511Zm0-27.166-3.619-4.089h14.053c3.76 0 6.878-.658 9.353-1.974 2.507-1.347 4.371-3.212 5.593-5.593 1.253-2.381 1.88-5.154 1.88-8.319 0-3.196-.595-5.922-1.786-8.178-1.191-2.256-3.024-3.979-5.499-5.17-2.475-1.191-5.656-1.786-9.541-1.786h-14.053l3.619-4.559v39.668Zm65.019 28.059c-3.572 0-6.548-.611-8.93-1.833-2.381-1.253-4.277-2.867-5.687-4.841a19.823 19.823 0 0 1-2.961-6.392c-.564-2.319-.846-4.543-.846-6.674v-31.067h8.037V490.226c0 2.538.345 4.888 1.034 7.05.721 2.162 1.959 3.917 3.713 5.264 1.755 1.316 4.168 1.974 7.238 1.974 2.883 0 5.405-.862 7.567-2.585 2.162-1.755 3.854-3.932 5.076-6.533 1.222-2.632 1.833-5.248 1.833-7.849l4.653 1.927a23.55 23.55 0 0 1-1.457 8.131 24.002 24.002 0 0 1-4.183 7.191c-1.786 2.162-3.963 3.885-6.533 5.17-2.538 1.285-5.389 1.927-8.554 1.927Zm16.074-.893v-49.914h7.99V511h-7.99Zm30.467-73.461V511h-7.896v-73.461h7.896Zm23.224 0V511h-7.896v-73.461h7.896Zm58.71 74.401c-4.105 0-7.865-.987-11.28-2.961-3.415-2.005-6.141-4.935-8.178-8.789-2.037-3.885-3.055-8.617-3.055-14.194 0-5.483 1.034-10.136 3.102-13.959 2.068-3.823 4.81-6.721 8.225-8.695 3.415-2.005 7.144-3.008 11.186-3.008 3.854 0 7.457.924 10.81 2.773 3.384 1.817 6.11 4.355 8.178 7.614 2.068 3.259 3.102 7.034 3.102 11.327v.564l-5.734.235v-.611c0-2.726-.721-5.186-2.162-7.379-1.41-2.193-3.274-3.932-5.593-5.217a14.895 14.895 0 0 0-7.473-1.974c-4.449 0-8.131 1.504-11.045 4.512-2.914 2.977-4.371 7.583-4.371 13.818 0 6.204 1.457 10.826 4.371 13.865 2.945 3.008 6.627 4.512 11.045 4.512 2.789 0 5.327-.674 7.614-2.021 2.319-1.347 4.167-3.149 5.546-5.405 1.379-2.287 2.068-4.841 2.068-7.661l5.734.141c0 4.261-.987 8.1-2.961 11.515-1.974 3.384-4.637 6.063-7.99 8.037-3.321 1.974-7.034 2.961-11.139 2.961Zm16.356 19.599v-70.453h7.99v70.453h-7.99Zm40.507-19.646c-3.572 0-6.548-.611-8.93-1.833-2.381-1.253-4.277-2.867-5.687-4.841a19.823 19.823 0 0 1-2.961-6.392c-.564-2.319-.846-4.543-.846-6.674v-31.067h8.037V490.226c0 2.538.345 4.888 1.034 7.05.721 2.162 1.959 3.917 3.713 5.264 1.755 1.316 4.168 1.974 7.238 1.974 2.883 0 5.405-.862 7.567-2.585 2.162-1.755 3.854-3.932 5.076-6.533 1.222-2.632 1.833-5.248 1.833-7.849l4.653 1.927a23.55 23.55 0 0 1-1.457 8.131 24.002 24.002 0 0 1-4.183 7.191c-1.786 2.162-3.963 3.885-6.533 5.17-2.538 1.285-5.389 1.927-8.554 1.927Zm16.074-.893v-49.914h7.99V511h-7.99Zm45.507.893c-5.014 0-9.447-1.112-13.301-3.337-3.823-2.256-6.831-5.327-9.024-9.212-2.162-3.917-3.243-8.366-3.243-13.348 0-4.982 1.081-9.4 3.243-13.254 2.193-3.854 5.201-6.878 9.024-9.071 3.854-2.193 8.287-3.29 13.301-3.29 5.013 0 9.431 1.097 13.254 3.29 3.854 2.193 6.862 5.217 9.024 9.071 2.193 3.854 3.29 8.272 3.29 13.254 0 4.982-1.097 9.431-3.29 13.348-2.162 3.885-5.17 6.956-9.024 9.212-3.823 2.225-8.241 3.337-13.254 3.337Zm0-7.332c3.446 0 6.486-.768 9.118-2.303 2.632-1.535 4.684-3.697 6.157-6.486 1.504-2.789 2.256-6.047 2.256-9.776s-.752-6.956-2.256-9.682c-1.473-2.757-3.525-4.872-6.157-6.345-2.632-1.504-5.672-2.256-9.118-2.256-3.416 0-6.455.752-9.118 2.256-2.632 1.473-4.7 3.588-6.204 6.345-1.473 2.726-2.209 5.953-2.209 9.682s.736 6.987 2.209 9.776c1.504 2.789 3.572 4.951 6.204 6.486 2.663 1.535 5.702 2.303 9.118 2.303Zm56.776 7.191c-1.535 0-3.039-.172-4.512-.517a10.833 10.833 0 0 1-3.995-1.833c-1.159-.909-2.083-2.178-2.773-3.807-.689-1.661-1.034-3.791-1.034-6.392v-31.067h-12.173v-7.05h7.802c1.066 0 1.896-.031 2.491-.094.596-.094 1.019-.298 1.269-.611.282-.345.455-.862.517-1.551.063-.721.094-1.708.094-2.961v-11.327h8.037v16.544h15.604v7.05h-15.604V496.195c0 2.663.314 4.747.94 6.251.658 1.504 2.115 2.256 4.371 2.256.909 0 1.771-.078 2.585-.235.815-.157 1.426-.313 1.833-.47v6.956c-.532.188-1.284.36-2.256.517-.94.188-2.005.282-3.196.282Zm22.502-22.513v-7.144h38.587l-1.41 2.35v-1.034c0-2.883-.611-5.515-1.833-7.896-1.191-2.413-2.977-4.34-5.358-5.781-2.382-1.441-5.327-2.162-8.836-2.162-3.541 0-6.659.752-9.353 2.256-2.695 1.504-4.794 3.635-6.298 6.392-1.504 2.726-2.256 5.985-2.256 9.776 0 3.854.72 7.175 2.162 9.964 1.472 2.789 3.556 4.935 6.251 6.439 2.694 1.504 5.89 2.256 9.588 2.256 2.632 0 4.919-.266 6.862-.799 1.942-.564 3.54-1.3 4.794-2.209 1.284-.94 2.256-1.958 2.914-3.055.658-1.097 1.049-2.193 1.175-3.29h7.99c-.157 2.005-.784 3.995-1.88 5.969-1.097 1.974-2.648 3.776-4.653 5.405-2.006 1.598-4.465 2.883-7.379 3.854-2.914.971-6.267 1.457-10.058 1.457-5.014 0-9.432-1.097-13.254-3.29-3.823-2.193-6.831-5.233-9.024-9.118-2.162-3.885-3.243-8.35-3.243-13.395 0-5.107 1.096-9.588 3.29-13.442 2.193-3.885 5.217-6.925 9.071-9.118 3.854-2.193 8.256-3.29 13.207-3.29 5.044 0 9.415 1.097 13.113 3.29 3.697 2.193 6.548 5.201 8.554 9.024 2.005 3.791 3.008 8.115 3.008 12.972 0 .501-.016 1.159-.047 1.974-.032.815-.079 1.363-.141 1.645H678.13Zm105.325 22.654c-5.013 0-9.447-1.112-13.301-3.337-3.823-2.256-6.831-5.327-9.024-9.212-2.162-3.917-3.243-8.366-3.243-13.348 0-4.982 1.081-9.4 3.243-13.254 2.193-3.854 5.201-6.878 9.024-9.071 3.854-2.193 8.288-3.29 13.301-3.29s9.431 1.097 13.254 3.29c3.854 2.193 6.862 5.217 9.024 9.071 2.193 3.854 3.29 8.272 3.29 13.254 0 4.982-1.097 9.431-3.29 13.348-2.162 3.885-5.17 6.956-9.024 9.212-3.823 2.225-8.241 3.337-13.254 3.337Zm0-7.332c3.447 0 6.486-.768 9.118-2.303 2.632-1.535 4.684-3.697 6.157-6.486 1.504-2.789 2.256-6.047 2.256-9.776s-.752-6.956-2.256-9.682c-1.473-2.757-3.525-4.872-6.157-6.345-2.632-1.504-5.671-2.256-9.118-2.256-3.415 0-6.455.752-9.118 2.256-2.632 1.473-4.7 3.588-6.204 6.345-1.473 2.726-2.209 5.953-2.209 9.682s.736 6.987 2.209 9.776c1.504 2.789 3.572 4.951 6.204 6.486 2.663 1.535 5.703 2.303 9.118 2.303ZM827.016 511v-42.864h-10.904v-7.05h10.904v-6.439c0-2.225.251-4.261.752-6.11.533-1.88 1.285-3.541 2.256-4.982a14.92 14.92 0 0 1 3.619-3.666c1.41-1.003 3.008-1.755 4.794-2.256 1.817-.533 3.791-.799 5.922-.799 1.535 0 2.757.094 3.666.282.909.188 1.52.36 1.833.517v7.05c-.376-.125-1.003-.266-1.88-.423a16.008 16.008 0 0 0-2.82-.235c-2.131 0-3.87.329-5.217.987-1.316.658-2.334 1.567-3.055 2.726-.721 1.128-1.222 2.413-1.504 3.854a26.262 26.262 0 0 0-.376 4.512v4.982h14.57v7.05h-14.57V511h-7.99ZM263.931 619.752c-1.535 0-3.039-.172-4.512-.517a10.825 10.825 0 0 1-3.995-1.833c-1.159-.909-2.084-2.178-2.773-3.807-.689-1.661-1.034-3.791-1.034-6.392v-31.067h-12.173v-7.05h7.802c1.065 0 1.896-.031 2.491-.094.595-.094 1.018-.298 1.269-.611.282-.345.454-.862.517-1.551.063-.721.094-1.708.094-2.961v-11.327h8.037v16.544h15.604v7.05h-15.604V604.195c0 2.663.313 4.747.94 6.251.658 1.504 2.115 2.256 4.371 2.256.909 0 1.77-.078 2.585-.235.815-.157 1.426-.313 1.833-.47v6.956c-.533.188-1.285.36-2.256.517-.94.188-2.005.282-3.196.282Zm57.336-.752V590.471c0-4.794-1.034-8.413-3.102-10.857-2.037-2.444-5.28-3.666-9.729-3.666-2.977 0-5.593.58-7.849 1.739-2.225 1.159-3.964 2.742-5.217 4.747-1.254 2.005-1.88 4.277-1.88 6.815l-5.076-1.551c0-3.572.924-6.815 2.773-9.729 1.88-2.945 4.433-5.28 7.661-7.003 3.258-1.755 6.94-2.632 11.045-2.632 5.984 0 10.7 1.802 14.147 5.405 3.478 3.603 5.217 8.585 5.217 14.946V619h-7.99Zm-35.767 0v-73.461h7.99V619h-7.99Zm60.233-21.761v-7.144h38.587l-1.41 2.35v-1.034c0-2.883-.611-5.515-1.833-7.896-1.191-2.413-2.977-4.34-5.358-5.781-2.381-1.441-5.327-2.162-8.836-2.162-3.541 0-6.658.752-9.353 2.256-2.695 1.504-4.794 3.635-6.298 6.392-1.504 2.726-2.256 5.985-2.256 9.776 0 3.854.721 7.175 2.162 9.964 1.473 2.789 3.556 4.935 6.251 6.439 2.695 1.504 5.891 2.256 9.588 2.256 2.632 0 4.919-.266 6.862-.799 1.943-.564 3.541-1.3 4.794-2.209 1.285-.94 2.256-1.958 2.914-3.055.658-1.097 1.05-2.193 1.175-3.29h7.99c-.157 2.005-.783 3.995-1.88 5.969-1.097 1.974-2.648 3.776-4.653 5.405-2.005 1.598-4.465 2.883-7.379 3.854-2.914.971-6.267 1.457-10.058 1.457-5.013 0-9.431-1.097-13.254-3.29-3.823-2.193-6.831-5.233-9.024-9.118-2.162-3.885-3.243-8.35-3.243-13.395 0-5.107 1.097-9.588 3.29-13.442 2.193-3.885 5.217-6.925 9.071-9.118 3.854-2.193 8.256-3.29 13.207-3.29 5.045 0 9.416 1.097 13.113 3.29 3.697 2.193 6.549 5.201 8.554 9.024 2.005 3.791 3.008 8.115 3.008 12.972 0 .501-.016 1.159-.047 1.974s-.078 1.363-.141 1.645h-45.543Zm105.373 22.701c-4.763 0-9.087-1.034-12.972-3.102-3.886-2.099-6.972-5.092-9.259-8.977-2.256-3.885-3.384-8.507-3.384-13.865 0-5.358 1.128-9.948 3.384-13.771 2.287-3.854 5.373-6.799 9.259-8.836 3.885-2.037 8.209-3.055 12.972-3.055 3.634 0 6.877.564 9.729 1.692 2.851 1.097 5.264 2.569 7.238 4.418 1.974 1.849 3.478 3.885 4.512 6.11 1.065 2.193 1.598 4.387 1.598 6.58V587.463h-7.943c0-.157-.016-.329-.047-.517l-.094-.658c-.251-2.099-1.05-3.932-2.397-5.499-1.348-1.598-3.102-2.851-5.264-3.76-2.162-.909-4.622-1.363-7.379-1.363-3.102 0-5.985.674-8.648 2.021-2.632 1.316-4.763 3.337-6.392 6.063-1.598 2.695-2.397 6.11-2.397 10.246 0 4.105.799 7.536 2.397 10.293 1.598 2.757 3.713 4.841 6.345 6.251 2.663 1.379 5.561 2.068 8.695 2.068 3.384 0 6.172-.533 8.366-1.598 2.193-1.065 3.838-2.475 4.935-4.23 1.128-1.786 1.754-3.697 1.88-5.734h7.943c0 2.256-.502 4.512-1.504 6.768-1.003 2.225-2.476 4.261-4.418 6.11-1.943 1.817-4.356 3.274-7.238 4.371-2.852 1.097-6.157 1.645-9.917 1.645Zm38.106-22.701v-7.144h38.587l-1.41 2.35v-1.034c0-2.883-.611-5.515-1.833-7.896-1.191-2.413-2.977-4.34-5.358-5.781-2.382-1.441-5.327-2.162-8.836-2.162-3.541 0-6.659.752-9.353 2.256-2.695 1.504-4.794 3.635-6.298 6.392-1.504 2.726-2.256 5.985-2.256 9.776 0 3.854.72 7.175 2.162 9.964 1.472 2.789 3.556 4.935 6.251 6.439 2.694 1.504 5.89 2.256 9.588 2.256 2.632 0 4.919-.266 6.862-.799 1.942-.564 3.54-1.3 4.794-2.209 1.284-.94 2.256-1.958 2.914-3.055.658-1.097 1.049-2.193 1.175-3.29h7.99c-.157 2.005-.784 3.995-1.88 5.969-1.097 1.974-2.648 3.776-4.653 5.405-2.006 1.598-4.465 2.883-7.379 3.854-2.914.971-6.267 1.457-10.058 1.457-5.014 0-9.432-1.097-13.254-3.29-3.823-2.193-6.831-5.233-9.024-9.118-2.162-3.885-3.243-8.35-3.243-13.395 0-5.107 1.096-9.588 3.29-13.442 2.193-3.885 5.217-6.925 9.071-9.118 3.854-2.193 8.256-3.29 13.207-3.29 5.044 0 9.415 1.097 13.113 3.29 3.697 2.193 6.548 5.201 8.554 9.024 2.005 3.791 3.008 8.115 3.008 12.972 0 .501-.016 1.159-.047 1.974-.032.815-.079 1.363-.141 1.645h-45.543ZM583.116 619V588.873c0-2.601-.439-4.872-1.316-6.815-.877-1.943-2.256-3.447-4.136-4.512-1.88-1.065-4.34-1.598-7.379-1.598-2.663 0-5.139.689-7.426 2.068-2.256 1.347-4.073 3.18-5.452 5.499-1.347 2.287-2.021 4.857-2.021 7.708l-4.559-1.739c0-3.917.956-7.473 2.867-10.669 1.943-3.196 4.512-5.734 7.708-7.614 3.227-1.911 6.737-2.867 10.528-2.867 3.854 0 7.222.736 10.105 2.209s5.107 3.588 6.674 6.345c1.598 2.726 2.397 6.016 2.397 9.87V619h-7.99Zm-35.72 0v-49.914h7.99V619h-7.99Zm76.012.752c-1.536 0-3.04-.172-4.512-.517a10.818 10.818 0 0 1-3.995-1.833c-1.16-.909-2.084-2.178-2.773-3.807-.69-1.661-1.034-3.791-1.034-6.392v-31.067h-12.173v-7.05h7.802c1.065 0 1.895-.031 2.491-.094.595-.094 1.018-.298 1.269-.611.282-.345.454-.862.517-1.551.062-.721.094-1.708.094-2.961v-11.327h8.037v16.544h15.604v7.05h-15.604V604.195c0 2.663.313 4.747.94 6.251.658 1.504 2.115 2.256 4.371 2.256.908 0 1.77-.078 2.585-.235.814-.157 1.425-.313 1.833-.47v6.956c-.533.188-1.285.36-2.256.517-.94.188-2.006.282-3.196.282Zm39.992.141c-3.572 0-6.549-.611-8.93-1.833-2.381-1.253-4.277-2.867-5.687-4.841a19.781 19.781 0 0 1-2.961-6.392c-.564-2.319-.846-4.543-.846-6.674v-31.067h8.037V598.226c0 2.538.345 4.888 1.034 7.05.721 2.162 1.958 3.917 3.713 5.264 1.755 1.316 4.167 1.974 7.238 1.974 2.883 0 5.405-.862 7.567-2.585 2.162-1.755 3.854-3.932 5.076-6.533 1.222-2.632 1.833-5.248 1.833-7.849l4.653 1.927c0 2.757-.486 5.468-1.457 8.131a24.023 24.023 0 0 1-4.183 7.191c-1.786 2.162-3.964 3.885-6.533 5.17-2.538 1.285-5.389 1.927-8.554 1.927Zm16.074-.893v-49.914h7.99V619h-7.99Zm21.865 0v-49.914h7.99v15.322l-2.632-.94a18.919 18.919 0 0 1 1.41-5.452 16.612 16.612 0 0 1 3.102-4.888c1.348-1.473 3.024-2.632 5.029-3.478 2.006-.877 4.356-1.316 7.05-1.316 2.006 0 3.635.172 4.888.517 1.285.313 2.084.564 2.397.752l-2.068 7.849c-.313-.219-.955-.501-1.927-.846-.94-.345-2.287-.517-4.042-.517-2.6 0-4.762.47-6.486 1.41-1.692.94-3.039 2.193-4.042 3.76a15.812 15.812 0 0 0-2.068 5.029 24.67 24.67 0 0 0-.611 5.405V619h-7.99Zm39.325 21.056a22.95 22.95 0 0 1-3.431-.235c-1.034-.125-1.677-.251-1.927-.376v-6.956c.407.188 1.081.345 2.021.47s1.88.188 2.82.188c2.005 0 3.697-.423 5.076-1.269 1.378-.815 2.538-1.943 3.478-3.384.94-1.41 1.707-3.008 2.303-4.794l1.504-4.418-17.202-50.196h8.366l13.818 43.005h-1.128l13.536-43.005h8.225l-18.283 54.191c-1.034 3.039-2.288 5.828-3.76 8.366-1.442 2.538-3.384 4.575-5.828 6.11-2.413 1.535-5.609 2.303-9.588 2.303Zm47.63-19.834c-1.535 0-2.836-.517-3.901-1.551-1.034-1.065-1.551-2.366-1.551-3.901 0-1.504.517-2.789 1.551-3.854 1.065-1.065 2.366-1.598 3.901-1.598 1.504 0 2.789.533 3.854 1.598s1.598 2.35 1.598 3.854c0 1.535-.533 2.836-1.598 3.901-1.065 1.034-2.35 1.551-3.854 1.551Zm36.221-61.382c-1.598 0-2.882-.47-3.854-1.41-.94-.94-1.41-2.178-1.41-3.713 0-1.535.517-2.804 1.551-3.807 1.034-1.034 2.507-1.551 4.418-1.551 2.037 0 3.572.689 4.606 2.068 1.066 1.347 1.598 3.071 1.598 5.17 0 2.005-.47 3.807-1.41 5.405a14.35 14.35 0 0 1-3.619 4.042 17.715 17.715 0 0 1-4.559 2.538l-1.034-2.256a11.536 11.536 0 0 0 3.196-1.786c1.034-.783 1.865-1.676 2.491-2.679.658-1.034.987-2.084.987-3.149-.125.219-.454.47-.987.752-.532.251-1.19.376-1.974.376Zm-15.369 0c-1.598 0-2.882-.47-3.854-1.41-.94-.94-1.41-2.178-1.41-3.713 0-1.535.517-2.804 1.551-3.807 1.034-1.034 2.523-1.551 4.465-1.551 2.037 0 3.572.689 4.606 2.068 1.066 1.347 1.598 3.071 1.598 5.17 0 2.005-.47 3.807-1.41 5.405a14.35 14.35 0 0 1-3.619 4.042c-1.472 1.097-3.008 1.943-4.606 2.538l-1.034-2.256a11.34 11.34 0 0 0 3.243-1.786c1.003-.783 1.818-1.676 2.444-2.679.658-1.034 1.003-2.084 1.034-3.149-.125.219-.454.47-.987.752-.532.251-1.206.376-2.021.376Z" fill="#3C4043"/></svg>