<svg width="1920" height="1080" fill="none" xmlns="http://www.w3.org/2000/svg"><g clip-path="url(#a)"><ellipse cx="1230" cy="543" rx="118" ry="203" fill="#1A73E8"/><ellipse cx="1614" cy="533.5" rx="118" ry="186.5" fill="#1A73E8"/><ellipse cx="256" cy="545.5" rx="118" ry="186.5" fill="#1A73E8"/><ellipse cx="676" cy="546.5" rx="118" ry="186.5" fill="#1A73E8"/><path d="M252.776 749.32c-62.952 0-112.484-17.08-148.596-51.24-36.112-34.16-54.168-85.644-54.168-154.452 0-68.808 17.324-120.048 51.972-153.72 34.648-34.16 85.644-51.24 152.988-51.24 62.952 0 112.484 17.08 148.596 51.24 36.112 33.672 54.168 84.912 54.168 153.72 0 68.808-17.324 120.292-51.972 154.452-34.648 34.16-85.644 51.24-152.988 51.24Zm1.464-51.972c14.64 0 26.352-5.856 35.136-17.568 8.784-11.712 14.884-29.036 18.3-51.972 3.904-22.936 5.856-50.996 5.856-84.18 0-33.672-1.952-61.732-5.856-84.18-3.904-22.936-10.248-40.016-19.032-51.24-8.784-11.224-20.496-16.836-35.136-16.836-14.64 0-26.352 5.612-35.136 16.836-8.296 11.224-14.396 28.304-18.3 51.24-3.416 22.448-5.124 50.508-5.124 84.18 0 33.184 1.952 61.244 5.856 84.18 3.904 22.936 10.004 40.26 18.3 51.972 8.784 11.712 20.496 17.568 35.136 17.568Zm411.859 51.972c-31.72 0-58.804-7.076-81.252-21.228-21.96-14.152-38.796-36.112-50.508-65.88-11.712-30.256-17.568-68.808-17.568-115.656 0-47.336 5.856-86.132 17.568-116.388 11.712-30.256 28.548-52.704 50.508-67.344 21.96-15.128 48.312-22.692 79.056-22.692 26.84 0 48.068 4.636 63.684 13.908 16.104 9.272 29.28 20.984 39.528 35.136h3.66a1801.31 1801.31 0 0 1-1.464-24.888v-91.5c0-12.688-2.684-21.96-8.052-27.816-5.368-6.344-12.444-10.248-21.228-11.712-8.784-1.952-18.544-2.928-29.28-2.928h-5.856V185.68h207.156v451.644c0 15.128 1.952 27.084 5.856 35.868 3.904 8.784 9.76 15.128 17.568 19.032 7.808 3.416 17.568 5.124 29.28 5.124h5.856V742h-161.04l-25.62-50.508h-4.392c-10.736 18.056-25.132 32.208-43.188 42.456-18.056 10.248-41.48 15.372-70.272 15.372Zm45.384-60.756c22.448 0 37.576-11.712 45.384-35.136 8.296-23.912 12.444-60.268 12.444-109.068 0-31.232-1.708-57.584-5.124-79.056-3.416-21.472-9.272-37.82-17.568-49.044-8.296-11.224-19.764-16.836-34.404-16.836-12.688 0-22.936 5.612-30.744 16.836-7.32 11.224-12.688 27.816-16.104 49.776-3.416 21.472-5.124 47.824-5.124 79.056 0 31.72 1.708 58.316 5.124 79.788 3.416 21.472 8.784 37.576 16.104 48.312 7.808 10.248 17.812 15.372 30.012 15.372Zm493.227 60.756c-38.55 0-72.23-6.1-101.02-18.3-28.79-12.2-51.24-32.94-67.34-62.22-16.11-29.768-24.16-70.516-24.16-122.244 0-53.192 8.54-94.672 25.62-124.44 17.08-30.256 40.02-51.728 68.81-64.416 28.79-12.688 61-19.032 96.62-19.032 40.02 0 71.5 3.904 94.43 11.712 22.94 7.808 39.29 17.812 49.05 30.012 9.76 11.712 14.64 23.912 14.64 36.6 0 9.76-2.69 20.496-8.06 32.208-5.36 11.712-16.34 21.716-32.94 30.012-16.59 7.808-41.72 11.712-75.39 11.712 0-18.056-1.22-34.648-3.66-49.776-1.95-15.616-5.61-28.06-10.98-37.332-5.37-9.76-12.69-14.64-21.96-14.64-10.74 0-20.01 4.636-27.82 13.908-7.81 9.272-13.91 25.376-18.3 48.312-4.39 22.448-6.59 53.924-6.59 94.428 0 31.72 2.44 58.316 7.32 79.788 4.88 20.984 12.45 36.844 22.7 47.58 10.24 10.736 23.42 16.104 39.52 16.104 18.55 0 35.14-2.928 49.78-8.784 15.13-5.856 28.06-13.664 38.8-23.424 10.73-10.248 18.78-21.228 24.15-32.94 7.81 3.904 13.18 9.516 16.11 16.836 3.41 6.832 5.12 13.664 5.12 20.496 0 12.688-5.37 25.864-16.1 39.528-10.25 13.664-26.6 25.132-49.05 34.404-22.45 9.272-52.21 13.908-89.3 13.908Zm370.2 0c-44.9 0-76.86-11.956-95.9-35.868-19.03-24.4-28.54-61-28.54-109.8V447.736c0-14.152-.74-24.888-2.2-32.208-1.46-7.808-5.12-13.176-10.98-16.104-5.37-3.416-14.4-5.124-27.08-5.124h-2.93v-44.652h185.93v221.064c0 20.496 1.22 38.796 3.66 54.9 2.44 15.616 6.34 28.06 11.71 37.332 5.85 8.784 13.91 13.176 24.15 13.176 11.72 0 20.99-4.148 27.82-12.444 7.32-8.784 12.44-20.984 15.37-36.6 3.42-16.104 5.13-35.136 5.13-57.096V436.756c0-13.176-1.71-22.692-5.13-28.548-2.93-6.344-7.32-10.248-13.17-11.712-5.86-1.464-12.94-2.196-21.23-2.196h-2.93v-44.652h184.46v303.78c0 13.664 1.47 23.668 4.4 30.012 3.41 6.344 8.29 10.248 14.64 11.712 6.34 1.464 13.66 2.196 21.96 2.196h8.78V742H1705.2l-20.49-46.848h-3.66c-5.37 8.296-11.47 15.86-18.3 22.692-6.84 6.344-14.64 11.956-23.43 16.836-8.78 4.88-18.54 8.54-29.28 10.98-10.25 2.44-21.96 3.66-35.13 3.66Z" fill="#D2E3FC"/></g><defs><clipPath id="a"><path fill="#fff" d="M0 0h1920v1080H0z"/></clipPath></defs></svg>