<svg width="1920" height="1080" fill="none" xmlns="http://www.w3.org/2000/svg"><rect x="1216" y="813" width="218" height="50" rx="25" fill="#D2E3FC"/><rect x="1215" y="813" width="186" height="50" rx="25" fill="#1A73E8"/><rect x="486" y="813" width="218" height="50" rx="25" fill="#D2E3FC"/><rect x="486" y="813" width="70" height="50" rx="25" fill="#1A73E8"/><path d="M307.347 566.264a13.744 13.744 0 0 0-2.433-8.367 20.639 20.639 0 0 0-6.486-5.644 53.988 53.988 0 0 0-9.146-4.086 166.807 166.807 0 0 0-10.508-3.244c-3.633-.994-7.363-2.292-11.19-3.892a45.06 45.06 0 0 1-10.508-5.546 25.468 25.468 0 0 1-7.687-8.854 28.62 28.62 0 0 1-2.919-13.622 24.072 24.072 0 0 1 4.087-13.816 28.085 28.085 0 0 1 11.968-9.73 44.905 44.905 0 0 1 18.778-3.6 55.57 55.57 0 0 1 13.33 1.556 68.512 68.512 0 0 1 10.995 3.6 38.625 38.625 0 0 1 6.811 3.601v16.216H297.65v-19.265a4.637 4.637 0 0 1 3.243.681 8.505 8.505 0 0 1 2.335 2.238 9.71 9.71 0 0 1 1.362 2.53c.26.778.26 1.232 0 1.362a21.343 21.343 0 0 0-5.157-4.67 29.147 29.147 0 0 0-7.589-3.503 35.233 35.233 0 0 0-10.411-1.362 25.003 25.003 0 0 0-17.514 5.546 18.325 18.325 0 0 0-6.032 14.108 16.023 16.023 0 0 0 2.724 9.73 19.043 19.043 0 0 0 7.103 5.838 62.055 62.055 0 0 0 9.73 3.697l10.314 3.244a141.156 141.156 0 0 1 11.481 3.989 52.38 52.38 0 0 1 10.216 5.351 23.87 23.87 0 0 1 7.298 7.784 22.868 22.868 0 0 1 2.724 11.676 28.095 28.095 0 0 1-4.573 15.86 31.175 31.175 0 0 1-12.973 10.897 46.21 46.21 0 0 1-20.044 3.989 64.465 64.465 0 0 1-16.216-1.946 69.74 69.74 0 0 1-13.233-4.767 62.696 62.696 0 0 1-9.438-5.546v-17.709h15.568v21.017c-1.297-.649-2.379-1.135-3.243-1.459a8.018 8.018 0 0 1-1.655-.779.619.619 0 0 1-.194-.779 7.954 7.954 0 0 1 1.167-1.653 19.468 19.468 0 0 0 6.487 5.643 35.299 35.299 0 0 0 9.438 3.6 49.39 49.39 0 0 0 11.384 1.265 33.87 33.87 0 0 0 13.719-2.53 19.777 19.777 0 0 0 8.854-7.297 20.377 20.377 0 0 0 2.822-11.352Zm58.834-123.569v135.44a5.484 5.484 0 0 0 1.068 3.58 5.488 5.488 0 0 0 3.115 2.063 34.826 34.826 0 0 0 10.606 1.362h.389v3.503h-47.936v-3.503h.325a35.676 35.676 0 0 0 10.702-1.362 5.483 5.483 0 0 0 4.282-5.643V455.343a6.293 6.293 0 0 0-1.46-4.475 10.416 10.416 0 0 0-4.378-2.53 52.25 52.25 0 0 0-7.395-1.751l-2.141-.39v-3.502h32.823Zm58.703 45.146v90.293a5.482 5.482 0 0 0 4.183 5.644 34.857 34.857 0 0 0 10.606 1.362h.389v3.503h-47.936v-3.503h.389a35.682 35.682 0 0 0 10.703-1.362 5.48 5.48 0 0 0 4.281-5.644V500.49a6.096 6.096 0 0 0-3.243-5.935 36.793 36.793 0 0 0-10.022-2.822l-2.14-.389v-3.503h32.79Zm-8.952-24.13a12.194 12.194 0 0 1-8.562-3.243 11.162 11.162 0 0 1-3.503-8.66 10.863 10.863 0 0 1 3.503-8.562 12.424 12.424 0 0 1 8.562-3.244 12.064 12.064 0 0 1 8.465 3.244 11.02 11.02 0 0 1 3.405 8.562 11.296 11.296 0 0 1-.71 4.641 11.331 11.331 0 0 1-2.533 3.954 11.872 11.872 0 0 1-8.627 3.243v.065Zm80.953 173.971c-8.04.081-16.056-.9-23.839-2.919a41.094 41.094 0 0 1-17.221-8.757 18.898 18.898 0 0 1-6.487-14.595 15.44 15.44 0 0 1 3.016-9.243 31.884 31.884 0 0 1 8.757-7.881 103.405 103.405 0 0 1 13.525-7.2l-.195 2.529a26.377 26.377 0 0 0-8.66 5.644 21.83 21.83 0 0 0-4.767 7.297 23.613 23.613 0 0 0-1.557 8.66 18.81 18.81 0 0 0 4.184 12.065 27.466 27.466 0 0 0 12.551 8.27 61.96 61.96 0 0 0 20.822 3.016h5.644a56.19 56.19 0 0 0 20.432-3.243 31.847 31.847 0 0 0 13.622-9.438 20.85 20.85 0 0 0 4.865-13.427 12.22 12.22 0 0 0-5.448-11.092 33.44 33.44 0 0 0-17.514-3.503h-52.282l1.557-2.53a37.056 37.056 0 0 1-5.157-3.892 18.576 18.576 0 0 1-4.281-5.643 16.218 16.218 0 0 1-1.655-7.395 18.658 18.658 0 0 1 2.336-9.243 28.178 28.178 0 0 1 6.811-7.881 58.34 58.34 0 0 1 11.092-7.006l2.724 2.141a48.985 48.985 0 0 0-6.908 4.67 18.035 18.035 0 0 0-4.379 5.157 14.138 14.138 0 0 0-1.556 6.908 6.487 6.487 0 0 0 4.378 6.487 34.556 34.556 0 0 0 13.33 1.946h34.249a57.59 57.59 0 0 1 18.682 2.627 22.701 22.701 0 0 1 11.481 8.076 23.192 23.192 0 0 1 3.892 13.816 28.545 28.545 0 0 1-6.908 19.168 43.849 43.849 0 0 1-18.195 12.357 69.746 69.746 0 0 1-24.909 4.281l-6.032-.227Zm2.724-80.369a44.404 44.404 0 0 1-19.946-4.378 33.184 33.184 0 0 1-18.974-31.039 34.643 34.643 0 0 1 5.06-18.778 34.994 34.994 0 0 1 13.914-12.649 45.978 45.978 0 0 1 39.99 0 35.898 35.898 0 0 1 13.913 12.649 34.116 34.116 0 0 1 5.157 18.778 33.637 33.637 0 0 1-5.157 18.682 34.71 34.71 0 0 1-13.913 12.357 44.244 44.244 0 0 1-20.044 4.378Zm0-2.919a18.233 18.233 0 0 0 11.384-3.794 24.81 24.81 0 0 0 7.784-10.995 48.097 48.097 0 0 0 2.821-17.514 50.988 50.988 0 0 0-2.821-18.098 25.948 25.948 0 0 0-7.687-11.286 17.835 17.835 0 0 0-11.481-3.892 17.547 17.547 0 0 0-11.287 3.892 25.937 25.937 0 0 0-7.686 11.286 50.966 50.966 0 0 0-2.822 18.098 48.098 48.098 0 0 0 2.822 17.514 25.17 25.17 0 0 0 7.686 10.995 17.84 17.84 0 0 0 11.287 3.859v-.065Zm57.601-54.293c-4.787-.914-9.631-1.5-14.498-1.751a20.198 20.198 0 0 0-9.243 1.46 14.824 14.824 0 0 0-6.033 5.546l-1.751-1.168a52.244 52.244 0 0 1 6.227-8.757 31.283 31.283 0 0 1 7.2-6.033 27.512 27.512 0 0 1 8.368-3.243 33.95 33.95 0 0 1 9.73-.584v14.53Zm41.062-57.406v140.499c0 .389.681.714 2.043.973 1.362.26 3.113.487 5.254.681 2.162.195 4.4.292 6.714.292v3.503h-46.704v-3.503h.195a45.689 45.689 0 0 0 7.686-.584 12.315 12.315 0 0 0 5.449-2.14 5.085 5.085 0 0 0 2.043-4.281V455.343a6.292 6.292 0 0 0-1.459-4.475 10.413 10.413 0 0 0-4.379-2.53 52.236 52.236 0 0 0-7.394-1.751l-2.141-.39v-3.502h32.693Zm79.59 145.948h-46.509v-3.503c1.816 0 3.827-.065 6.033-.194a39.644 39.644 0 0 0 5.643-.682c1.557-.324 2.335-.681 2.335-1.07v-65.968a50.455 50.455 0 0 0-1.946-15.666 15.24 15.24 0 0 0-5.838-8.27 17.52 17.52 0 0 0-9.73-2.53 26.315 26.315 0 0 0-12.746 3.244 37.24 37.24 0 0 0-10.703 9.048 103.144 103.144 0 0 0-9.729 14.304l-3.244-2.336a96.564 96.564 0 0 1 11.287-15.568 43.056 43.056 0 0 1 12.973-9.924 37.823 37.823 0 0 1 16.736-3.503 34.898 34.898 0 0 1 16.216 3.503 23.737 23.737 0 0 1 10.411 10.411 37.5 37.5 0 0 1 3.6 17.417v60.908a5.486 5.486 0 0 0 1.106 3.607 5.488 5.488 0 0 0 3.175 2.037 35.682 35.682 0 0 0 10.703 1.362h.195l.032 3.373Zm6.809-96.909v-3.244h.584c3.591.1 7.174-.393 10.605-1.459a12.616 12.616 0 0 0 6.487-4.671 17.09 17.09 0 0 0 2.627-8.659l6.487 14.205h32.562v3.892l-59.352-.064Zm32.887 69.471a46.363 46.363 0 0 0 2.043 15.47 15.053 15.053 0 0 0 5.741 7.882 15.345 15.345 0 0 0 8.367 2.335 24.53 24.53 0 0 0 8.66-1.363 41.234 41.234 0 0 1 4.573-1.556v3.243a21.848 21.848 0 0 1-4.378 1.751c-1.816.533-3.67.923-5.546 1.168a47.16 47.16 0 0 1-6.228.389 40.117 40.117 0 0 1-15.567-2.919 22.926 22.926 0 0 1-10.995-9.438 32.692 32.692 0 0 1-3.989-17.222v-73.947l3.502-.778 2.141-23.547h11.676v98.532Zm75.117-118.51v135.44a5.48 5.48 0 0 0 4.184 5.643 34.82 34.82 0 0 0 10.605 1.362h.389v3.503h-47.871v-3.503h.39a35.682 35.682 0 0 0 10.703-1.362 5.48 5.48 0 0 0 4.281-5.643V455.343a6.288 6.288 0 0 0-1.46-4.475 10.416 10.416 0 0 0-4.378-2.53 52.25 52.25 0 0 0-7.395-1.751l-2.141-.39v-3.502h32.693Zm83.286 134.662-3.892 7.589-3.243 14.4-41.644-101.775a8.988 8.988 0 0 0-7.297-5.838c-1.771-.27-3.56-.4-5.352-.389h-.194v-3.503h43.979v3.244h-.389c-2.162 0-4.4.097-6.714.292-2.313.194-4.357.421-6.13.681-1.686.259-2.529.648-2.529 1.167l33.405 84.132Zm-1.167 7.978a186.865 186.865 0 0 1-10.314 23.838 64.873 64.873 0 0 1-10.313 14.79 32.44 32.44 0 0 1-10.801 7.589 31.187 31.187 0 0 1-11.773 2.238 29.009 29.009 0 0 1-8.854-1.168 17.92 17.92 0 0 1-5.351-2.53v-15.178c.389.129 1.47.584 3.243 1.362a39.418 39.418 0 0 0 6.908 2.238 42.397 42.397 0 0 0 10.022 1.07c3.43.069 6.848-.424 10.119-1.459a20.637 20.637 0 0 0 8.173-5.546 57.954 57.954 0 0 0 8.173-11.871c2.854-5.189 6.162-12 9.925-20.433l1.751-3.502 28.411-80.175c0-1.167-.94-2.14-2.821-2.919a29.002 29.002 0 0 0-7.006-1.751 62.547 62.547 0 0 0-8.66-.584h-.518v-3.503H917.8v3.503a13.556 13.556 0 0 0-5.254.973 11.301 11.301 0 0 0-4.087 2.919 15.476 15.476 0 0 0-2.919 5.254l-30.746 84.845Zm188.636-18.681c.08-2.434-.57-4.838-1.85-6.908a16.932 16.932 0 0 0-5.25-4.962 41.847 41.847 0 0 0-7.98-3.795 165.604 165.604 0 0 0-10.03-3.243c-3.63-1.06-7.36-2.357-11.18-3.892a42.952 42.952 0 0 1-10.51-5.643 25.996 25.996 0 0 1-7.69-9.147 30.813 30.813 0 0 1-2.92-14.205 24.082 24.082 0 0 1 4.09-13.816c3-4.297 7.15-7.667 11.97-9.73a44.876 44.876 0 0 1 18.77-3.601c4.75-.047 9.48.443 14.11 1.46 3.68.795 7.27 1.969 10.71 3.503 2.27.965 4.4 2.243 6.32 3.794v17.904h-16.74v-19.266c.62-.052 1.25.055 1.82.31.56.255 1.06.651 1.43 1.15a18.666 18.666 0 0 1 2.63 3.989c.65 1.253 1.2 2.554 1.65 3.892.32 1.038.32 1.362 0 .973a43.866 43.866 0 0 0-4.87-3.243 31.528 31.528 0 0 0-7.1-3.017 34.935 34.935 0 0 0-10.02-1.265 22.692 22.692 0 0 0-15.08 4.282 14.353 14.353 0 0 0-4.8 8.674c-.52 3.371.18 6.815 1.98 9.715a16.21 16.21 0 0 0 5.83 4.962 48.996 48.996 0 0 0 8.47 3.244l9.73 3.016a141.25 141.25 0 0 1 11.48 3.989 49.306 49.306 0 0 1 10.22 5.449 24.134 24.134 0 0 1 7.29 8.076 24.738 24.738 0 0 1 2.73 12.259c.1 5.625-1.5 11.151-4.57 15.86a31.2 31.2 0 0 1-12.98 10.897 46.223 46.223 0 0 1-20.04 3.99c-5.7.074-11.38-.547-16.93-1.849a59.04 59.04 0 0 1-12.97-4.67 57.014 57.014 0 0 1-9.15-5.741v-19.265h17.71v22.703a10.169 10.169 0 0 1-3.24-2.433 9.764 9.764 0 0 1-1.85-3.016 5.297 5.297 0 0 1-.39-2.724c.03-.342.16-.667.36-.941.21-.275.49-.488.8-.616a23.38 23.38 0 0 0 6.33 4.281c2.85 1.412 5.86 2.5 8.95 3.244 3.35.783 6.78 1.174 10.22 1.167 4.06.097 8.12-.529 11.96-1.849a15.966 15.966 0 0 0 7.59-5.448 13.955 13.955 0 0 0 2.99-8.498Zm63.24-122.014v129.213a5.462 5.462 0 0 0 1.03 3.56 5.427 5.427 0 0 0 3.06 2.083c3.15.97 6.43 1.43 9.73 1.362h.39v9.73h-47.87v-9.73h.32c3.3.053 6.58-.407 9.73-1.362a5.507 5.507 0 0 0 3.12-2.063 5.465 5.465 0 0 0 1.06-3.58V463.581a6.949 6.949 0 0 0-1.36-4.573 9.118 9.118 0 0 0-4.08-2.627 35.849 35.849 0 0 0-6.81-1.557l-2.15-.389v-9.73l33.83-.065Zm58.77 45.148v84.066a5.512 5.512 0 0 0 1.02 3.56 5.45 5.45 0 0 0 3.07 2.083c3.15.97 6.43 1.43 9.73 1.362h.39v9.73h-47.94v-9.73h.39c3.29.053 6.58-.407 9.73-1.362a5.45 5.45 0 0 0 3.11-2.063 5.417 5.417 0 0 0 1.07-3.58v-65.19a6.393 6.393 0 0 0-.76-3.48 6.457 6.457 0 0 0-2.48-2.553 28.496 28.496 0 0 0-9.15-2.724l-2.14-.39v-9.729h33.96Zm-9.92-22.184c-1.91.109-3.81-.19-5.59-.878a13.413 13.413 0 0 1-4.73-3.112 13.895 13.895 0 0 1-3.69-9.73 13.599 13.599 0 0 1 3.69-9.729 13.413 13.413 0 0 1 4.73-3.112c1.78-.688 3.68-.987 5.59-.878 1.89-.121 3.78.173 5.55.862 1.76.689 3.35 1.757 4.66 3.128a13.813 13.813 0 0 1 3.6 9.729c.08 3.583-1.21 7.06-3.6 9.73a13.017 13.017 0 0 1-4.66 3.128c-1.77.689-3.66.983-5.55.862Zm80.36 172.025c-7.97.088-15.91-.86-23.64-2.822a40.057 40.057 0 0 1-16.93-8.562 18.676 18.676 0 0 1-4.75-6.452 18.437 18.437 0 0 1-1.57-7.851 16.636 16.636 0 0 1 3.24-9.73 31.122 31.122 0 0 1 8.85-8.173 79.356 79.356 0 0 1 13.53-6.811l4.28 3.243a21.236 21.236 0 0 0-8.27 5.157 18.988 18.988 0 0 0-4.28 6.908 23.336 23.336 0 0 0-1.27 7.59 13.487 13.487 0 0 0 3.41 8.757 23.716 23.716 0 0 0 10.8 6.486 61.622 61.622 0 0 0 19.46 2.53h1.75c6.41.133 12.79-.821 18.88-2.822a28.91 28.91 0 0 0 12.35-7.784 16.704 16.704 0 0 0 4.38-11.384c.07-1.575-.22-3.145-.85-4.594a10.455 10.455 0 0 0-2.75-3.773c-2.4-2.162-7.1-3.244-14.11-3.244h-50.53l1.17-1.751a27.895 27.895 0 0 1-7.49-5.643 18.74 18.74 0 0 1-3.99-6.487 19.937 19.937 0 0 1-1.17-6.486c-.04-3.202.76-6.358 2.34-9.147a25.937 25.937 0 0 1 6.9-7.589 49.315 49.315 0 0 1 11.19-6.227l7.98 1.751c-2.72 1.427-5.12 2.822-7.2 4.184a16.755 16.755 0 0 0-4.77 4.476 10.306 10.306 0 0 0-1.65 5.935c-.09 1.326.21 2.65.86 3.805a6.735 6.735 0 0 0 2.84 2.682 28.72 28.72 0 0 0 12.45 1.946h31.14c6.34-.166 12.67.789 18.68 2.821a23.284 23.284 0 0 1 11.48 8.466 25.153 25.153 0 0 1 3.89 14.594 28.475 28.475 0 0 1-6.91 19.168 43.763 43.763 0 0 1-18.19 12.357 69.755 69.755 0 0 1-24.91 4.281l-6.62.195Zm3.25-80.369c-6.9.11-13.73-1.389-19.95-4.378a33.19 33.19 0 0 1-14.12-12.688 33.13 33.13 0 0 1-4.85-18.351 34.608 34.608 0 0 1 5.06-18.778 34.97 34.97 0 0 1 13.91-12.649 46 46 0 0 1 39.99 0 35.87 35.87 0 0 1 13.91 12.649 34.105 34.105 0 0 1 5.16 18.778 33.601 33.601 0 0 1-5.16 18.681 34.632 34.632 0 0 1-13.91 12.358c-6.23 3-13.07 4.499-19.98 4.378h-.06Zm0-7.2c4 .135 7.93-1.139 11.09-3.6 3.13-2.61 5.45-6.05 6.71-9.925a43.902 43.902 0 0 0 2.24-14.692 45.594 45.594 0 0 0-2.24-14.887 22.766 22.766 0 0 0-6.48-10.216 16.75 16.75 0 0 0-11.19-3.697 16.204 16.204 0 0 0-10.8 3.697 23.3 23.3 0 0 0-6.72 10.216 44.104 44.104 0 0 0-2.46 15.017c-.1 4.997.69 9.972 2.33 14.692a22.69 22.69 0 0 0 6.72 9.924 16.43 16.43 0 0 0 10.86 3.471h-.06Zm57.6-46.12c-4.62-.482-9.27-.677-13.92-.584-3.12.001-6.2.664-9.04 1.946a15.568 15.568 0 0 0-6.04 5.644l-2.53-6.811a52.334 52.334 0 0 1 6.23-8.757 31.22 31.22 0 0 1 7.2-6.033 27.474 27.474 0 0 1 8.37-3.243c3.2-.662 6.47-.859 9.73-.584v18.422Zm41.12-61.3v134.272c0 .389.68.714 2.05.973 1.36.26 3.11.487 5.25.681 2.16.195 4.4.292 6.71.292v9.73h-46.7v-9.73h.2c2.17.019 4.34-.177 6.48-.583a11.165 11.165 0 0 0 4.96-2.141 5.206 5.206 0 0 0 1.49-1.908c.34-.744.5-1.557.46-2.373V463.581a7.005 7.005 0 0 0-1.36-4.573 9.196 9.196 0 0 0-3.89-2.627 31.385 31.385 0 0 0-6.04-1.557l-2.14-.389v-9.73l32.53-.065Zm79.59 145.948h-46.5v-9.73c1.81 0 3.82-.065 6.03-.194 1.89-.092 3.78-.319 5.64-.681 1.56-.325 2.34-.682 2.34-1.071v-59.741c.12-3.855-.54-7.696-1.95-11.287a13.832 13.832 0 0 0-5.84-6.713 19.25 19.25 0 0 0-9.73-2.238c-4.45-.016-8.84 1.1-12.74 3.243a37.338 37.338 0 0 0-10.71 9.049 99.155 99.155 0 0 0-9.73 14.497l-3.24-8.562a97.134 97.134 0 0 1 11.51-15.892 42.157 42.157 0 0 1 13.53-10.022 42.915 42.915 0 0 1 18.1-3.503 34.882 34.882 0 0 1 16.21 3.503 23.724 23.724 0 0 1 10.41 10.411 37.415 37.415 0 0 1 3.6 17.417v54.681c-.13 1.164.11 2.34.7 3.356a5.434 5.434 0 0 0 2.55 2.288 26.647 26.647 0 0 0 9.73 1.362h.19l-.1 9.827Zm6.81-90.681v-9.535h.59c3.43.113 6.86-.382 10.12-1.46a11.621 11.621 0 0 0 5.93-4.67 18.44 18.44 0 0 0 2.43-8.66l8.37 14.206h31.92v10.119h-59.36Zm33.67 59.353c-.17 4.524.49 9.041 1.95 13.33a13.999 13.999 0 0 0 5.35 7.103 14.835 14.835 0 0 0 8.07 2.14c2.95.07 5.88-.392 8.66-1.362a40.661 40.661 0 0 1 4.58-1.557v10.314c-1.4.739-2.87 1.327-4.38 1.751-1.82.533-3.67.923-5.55 1.168-2.06.267-4.14.397-6.23.389a44.167 44.167 0 0 1-16.83-2.919 22.343 22.343 0 0 1-10.99-9.438 33.401 33.401 0 0 1-3.9-17.222V489.01l3.51-.779 2.14-23.546h13.62v94.575Zm75.31-114.62v129.213a5.455 5.455 0 0 0 1.02 3.56 5.45 5.45 0 0 0 3.07 2.083c3.15.97 6.43 1.43 9.73 1.362h.39v9.73h-47.88v-9.73h.39c3.3.053 6.58-.407 9.73-1.362a5.507 5.507 0 0 0 3.12-2.063 5.53 5.53 0 0 0 1.07-3.58V463.581a7.013 7.013 0 0 0-1.37-4.573 9.064 9.064 0 0 0-4.08-2.627 35.849 35.849 0 0 0-6.81-1.557l-2.14-.389v-9.73l33.76-.065Zm82.31 134.663-3.89 7.59-5.64 13.427-41.26-94.575a9.974 9.974 0 0 0-2.92-4.086c-1.1-.88-2.4-1.48-3.79-1.752a21.326 21.326 0 0 0-3.99-.389h-.2v-9.73h43.98v9.73h-.39c-2.16 0-4.4.065-6.71.195-2.31.129-4.36.324-6.13.583-1.69.26-2.53.649-2.53 1.168l33.47 77.839Zm1.17 7.979c-3 8.124-6.65 15.998-10.9 23.546a68.339 68.339 0 0 1-11.09 14.789 36.106 36.106 0 0 1-11.48 7.784 32.206 32.206 0 0 1-12.07 2.335c-2.99.071-5.98-.323-8.85-1.167a17.925 17.925 0 0 1-5.35-2.53v-17.708c.39.129 1.3.519 2.72 1.167 1.83.79 3.72 1.44 5.65 1.946 2.66.69 5.41 1.017 8.17.973a31.87 31.87 0 0 0 10.12-1.556 24.15 24.15 0 0 0 8.95-5.644 47.514 47.514 0 0 0 8.27-11.189 116.968 116.968 0 0 0 7.88-18.195l2.53-5.06 26.47-71.806a3.583 3.583 0 0 0-.49-1.691 3.478 3.478 0 0 0-1.27-1.228 14.226 14.226 0 0 0-4.57-1.849c-2.12-.488-4.3-.717-6.48-.681h-.23v-9.73h32.69v9.73a9.235 9.235 0 0 0-3.99.973 12.22 12.22 0 0 0-3.79 2.919 15.428 15.428 0 0 0-2.92 5.254l-29.97 78.618Z" fill="#3C4043"/></svg>