<svg width="1920" height="1080" fill="none" xmlns="http://www.w3.org/2000/svg"><path d="M987.04 629.2c-4.2 0-7.56-.9-10.08-2.7-2.64-1.68-3.96-3.36-3.96-5.04 0-1.08.36-2.16 1.08-3.24a12.25 12.25 0 0 1 2.7-2.88c1.08-.72 2.16-1.08 3.24-1.08s2.1.36 3.06 1.08c.84.72 1.68 1.56 2.52 2.52.96.96 2.1 1.86 3.42 2.7 1.32.84 3 1.26 5.04 1.26 3.24 0 5.94-1.68 8.1-5.04 2.04-3.24 3.9-7.44 5.58-12.6l25.74-79.02c.6-2.04.78-3.54.54-4.5s-.9-1.44-1.98-1.44c-.96 0-2.46.48-4.5 1.44-2.04.84-4.44 1.92-7.2 3.24-.36.12-.9.12-1.62 0-.6-.24-.9-.6-.9-1.08 0-.48.12-.9.36-1.26s.66-.84 1.26-1.44c2.64-2.4 5.04-4.38 7.2-5.94 2.16-1.68 4.26-3.12 6.3-4.32 2.04-1.2 4.14-2.34 6.3-3.42 2.16-1.2 4.56-2.52 7.2-3.96 1.44-.48 2.82-.06 4.14 1.26 1.44 1.32 1.92 2.58 1.44 3.78-1.2 3.24-2.4 6.54-3.6 9.9-1.08 3.24-2.22 6.6-3.42 10.08l-23.94 72.54c-1.08 3.36-2.94 6.72-5.58 10.08a61.468 61.468 0 0 1-9 9.54c-3.36 2.88-6.72 5.16-10.08 6.84-3.48 1.8-6.6 2.7-9.36 2.7Zm66.6-144.54c-1.8 0-3.3-.72-4.5-2.16-1.2-1.44-1.8-3.06-1.8-4.86 0-2.88.96-5.4 2.88-7.56 1.92-2.28 4.32-3.42 7.2-3.42 1.92 0 3.42.84 4.5 2.52 1.08 1.56 1.62 3.3 1.62 5.22 0 2.64-.96 5.04-2.88 7.2-1.92 2.04-4.26 3.06-7.02 3.06Zm14 94.86c-1.32 0-2.7-.6-4.14-1.8a11.01 11.01 0 0 1-3.06-3.96c-.72-1.56-.9-2.82-.54-3.78l18.9-45.54c.84-2.04 1.38-3.78 1.62-5.22.24-1.44-.12-2.16-1.08-2.16-.6 0-1.62.48-3.06 1.44-1.32.96-2.88 2.16-4.68 3.6-1.68 1.44-3.42 2.94-5.22 4.5-.24.24-.72.3-1.44.18-.6-.12-.9-.36-.9-.72 0-.48.12-1.14.36-1.98.24-.96.84-2.1 1.8-3.42 3-4.08 6.3-7.5 9.9-10.26 3.72-2.76 7.2-4.86 10.44-6.3 3.36-1.56 5.88-2.34 7.56-2.34.6 0 1.26.36 1.98 1.08.84.6 1.5 1.38 1.98 2.34.48.84.48 1.68 0 2.52-3.96 8.16-7.74 16.44-11.34 24.84-3.6 8.4-7.2 16.68-10.8 24.84-1.08 2.4-1.74 4.62-1.98 6.66s.24 3.06 1.44 3.06 3-1.02 5.4-3.06c2.4-2.04 5.1-4.68 8.1-7.92 3.12-3.24 6.36-6.72 9.72-10.44 4.56-5.16 8.94-10.5 13.14-16.02 4.32-5.52 8.04-10.5 11.16-14.94 3.12-4.44 5.16-7.56 6.12-9.36.6-1.2 1.32-1.98 2.16-2.34.84-.36 1.62-.54 2.34-.54.72 0 1.44.36 2.16 1.08.72.72 1.26 1.56 1.62 2.52.48.96.54 1.8.18 2.52l-23.04 52.92c-.96 2.28-1.38 4.02-1.26 5.22.12 1.2.72 1.8 1.8 1.8 1.56 0 3.6-.84 6.12-2.52 2.52-1.68 5.1-3.6 7.74-5.76 2.64-2.28 4.86-4.32 6.66-6.12.12-.12.3-.18.54-.18.36 0 .72.18 1.08.54.36.24.54.6.54 1.08 0 .24-.06.48-.18.72s-.3.54-.54.9c-.12.36-.36.78-.72 1.26-.24.48-.6 1.02-1.08 1.62-.36.48-.84 1.08-1.44 1.8-2.28 2.88-4.92 5.7-7.92 8.46-3 2.64-6.24 4.86-9.72 6.66-3.36 1.68-6.96 2.52-10.8 2.52-1.56 0-3-1.02-4.32-3.06-1.2-2.04-1.44-3.84-.72-5.4 1.68-3.6 3.48-7.44 5.4-11.52 1.92-4.08 3.6-7.86 5.04-11.34 1.56-3.48 2.64-6.06 3.24-7.74.6-1.44.54-2.22-.18-2.34-.72-.12-1.38.18-1.98.9-6.24 6.84-11.76 12.84-16.56 18-4.8 5.04-9 9.24-12.6 12.6-3.48 3.24-6.48 5.7-9 7.38-2.4 1.68-4.38 2.52-5.94 2.52Zm90.39.54c-.6 0-1.14-.3-1.62-.9-.48-.6-.9-1.32-1.26-2.16-.24-.84-.36-1.62-.36-2.34 0-.6.36-2.04 1.08-4.32.84-2.28 1.86-5.1 3.06-8.46l16.56-43.38c.6-1.56.6-2.88 0-3.96s-1.62-1.62-3.06-1.62c-1.8 0-3.72.42-5.76 1.26-1.92.84-4.32 3.18-7.2 7.02-.48.48-1.02.72-1.62.72-.48-.12-.84-.6-1.08-1.44 0-.72.12-1.62.36-2.7.24-1.2.6-2.4 1.08-3.6.6-1.2 1.14-2.1 1.62-2.7 2.04-2.52 4.5-4.62 7.38-6.3 2.88-1.68 6.36-2.58 10.44-2.7 1.68 0 3.3.3 4.86.9 1.68.48 2.88 1.44 3.6 2.88.84 1.44.78 3.42-.18 5.94l-10.26 26.64c-.36.84-.3 1.32.18 1.44.6.12 1.08-.12 1.44-.72 5.16-7.92 10.08-14.64 14.76-20.16 4.8-5.52 9.36-9.72 13.68-12.6 4.44-2.88 8.58-4.32 12.42-4.32 2.28 0 4.32.66 6.12 1.98 1.92 1.32 3.18 3.3 3.78 5.94.72 2.52.42 5.7-.9 9.54l-6.48 18.9c-.36.84-.3 1.32.18 1.44.6.12 1.08-.12 1.44-.72 5.04-8.28 9.96-15.12 14.76-20.52 4.92-5.52 9.66-9.66 14.22-12.42 4.56-2.76 8.76-4.14 12.6-4.14 2.28 0 4.32.72 6.12 2.16 1.8 1.44 2.94 3.6 3.42 6.48.6 2.76.06 6.24-1.62 10.44l-15.48 39.96c-1.8 4.32-1.5 6.48.9 6.48 1.44 0 3.18-.66 5.22-1.98 2.04-1.32 4.08-2.88 6.12-4.68 2.16-1.8 4.02-3.42 5.58-4.86l3.06-3.06.18-.18h.36c.36 0 .66.18.9.54.36.24.54.6.54 1.08 0 .96-.24 1.98-.72 3.06-.36.96-1.2 2.1-2.52 3.42-3.96 4.44-8.4 8.58-13.32 12.42s-10.2 5.76-15.84 5.76c-.96 0-1.98-.42-3.06-1.26-.96-.72-1.74-1.74-2.34-3.06a5.625 5.625 0 0 1 0-3.96l20.88-53.82c.96-2.4.9-4.2-.18-5.4-.96-1.2-2.1-1.86-3.42-1.98-1.92-.12-4.5.9-7.74 3.06-3.24 2.04-6.84 5.52-10.8 10.44-1.8 2.28-4.32 5.7-7.56 10.26-3.12 4.56-6.36 9.48-9.72 14.76-3.24 5.16-6.06 9.96-8.46 14.4-2.04 3.84-3.96 7.02-5.76 9.54-1.8 2.52-3.42 4.38-4.86 5.58-1.44 1.32-2.64 1.98-3.6 1.98-.6 0-1.14-.3-1.62-.9-.48-.48-.9-1.08-1.26-1.8-.24-.72-.36-1.44-.36-2.16 0-.6.36-2.1 1.08-4.5.84-2.52 1.86-5.46 3.06-8.82l16.74-45c1.08-2.76.96-4.62-.36-5.58-1.32-1.08-2.4-1.68-3.24-1.8-1.92-.24-4.5.78-7.74 3.06-3.24 2.16-6.84 5.7-10.8 10.62-1.44 1.68-3.24 4.08-5.4 7.2s-4.5 6.6-7.02 10.44c-2.4 3.72-4.8 7.56-7.2 11.52-2.28 3.84-4.32 7.38-6.12 10.62-3.12 5.76-5.52 10.08-7.2 12.96-1.68 2.76-3.24 4.14-4.68 4.14Zm109.27 48.42c-.6 0-1.2-.12-1.8-.36-.72-.24-1.08-.66-1.08-1.26 0-.96.66-1.8 1.98-2.52 1.2-.6 2.34-.96 3.42-1.08 2.52-.48 4.5-1.14 5.94-1.98 1.44-.84 2.58-2.4 3.42-4.68l34.74-97.02c.6-1.68.96-2.94 1.08-3.78.12-.84-.06-1.38-.54-1.62-.48-.36-1.32-.42-2.52-.18-2.88.48-5.4 1.02-7.56 1.62-2.04.48-4.32 1.32-6.84 2.52-.96.48-1.86.6-2.7.36-.72-.36-1.08-.9-1.08-1.62 0-.96.24-1.74.72-2.34.6-.6 1.26-1.08 1.98-1.44 1.92-.96 4.68-2.28 8.28-3.96 3.6-1.68 7.8-3.12 12.6-4.32.84-.24 1.5-.54 1.98-.9.6-.48 1.02-1.14 1.26-1.98 1.68-5.64 3.24-9.72 4.68-12.24 1.44-2.52 3.48-3.78 6.12-3.78.96 0 1.8.3 2.52.9.72.6.96 1.44.72 2.52l-3.06 10.44c-.36 1.2-.42 2.1-.18 2.7.24.48.6.66 1.08.54 1.56-.24 2.94-.42 4.14-.54 1.32-.12 2.58-.18 3.78-.18 6 0 10.68 1.02 14.04 3.06 3.48 1.92 5.88 4.62 7.2 8.1 1.44 3.36 2.16 7.14 2.16 11.34 0 5.76-1.32 11.82-3.96 18.18-2.64 6.24-6.24 12.18-10.8 17.82-4.44 5.52-9.48 10.02-15.12 13.5-5.52 3.48-11.28 5.22-17.28 5.22-1.08 0-2.28-.36-3.6-1.08-1.32-.72-2.58-1.44-3.78-2.16-1.08-.72-1.98-.9-2.7-.54-.6.24-1.32 1.5-2.16 3.78l-11.88 35.1c-.84 2.52-.6 4.38.72 5.58 1.44 1.32 3.66 2.1 6.66 2.34 1.2.12 2.4.36 3.6.72 1.2.36 1.8 1.02 1.8 1.98 0 .72-.54 1.2-1.62 1.44-1.08.36-2.28.54-3.6.54-1.8 0-3.66-.06-5.58-.18h-5.4c-1.56 0-2.88.06-3.96.18-3 .36-5.88.66-8.64.9-2.88.24-5.94.36-9.18.36Zm52.74-55.08c2.76 0 5.88-1.5 9.36-4.5 3.48-3.12 6.78-7.08 9.9-11.88 3.24-4.8 5.88-9.9 7.92-15.3 2.16-5.4 3.24-10.5 3.24-15.3 0-6.72-1.2-11.28-3.6-13.68-2.4-2.4-5.76-3.66-10.08-3.78h-3.24c-1.08 0-2.28.12-3.6.36l-16.56 48.6c-.72 2.16-1.14 4.2-1.26 6.12 0 1.8.24 3.36.72 4.68.6 1.56 1.44 2.76 2.52 3.6 1.2.72 2.76 1.08 4.68 1.08Zm50.3 6.12c-2.64 0-4.92-.78-6.84-2.34-1.92-1.44-2.88-3.3-2.88-5.58 0-2.76.66-4.8 1.98-6.12 1.2-1.44 2.22-2.16 3.06-2.16.84 0 1.68.36 2.52 1.08.96.6 1.98 1.38 3.06 2.34 1.32.96 2.76 1.92 4.32 2.88 1.68.84 3.84 1.26 6.48 1.26 3.24 0 5.82-1.14 7.74-3.42 1.92-2.4 2.94-4.92 3.06-7.56 0-2.64-.48-5.46-1.44-8.46-.84-3.12-2.1-6.18-3.78-9.18-1.56-2.88-2.88-5.58-3.96-8.1-.96-2.64-1.44-4.86-1.44-6.66 0-3.48.9-6.72 2.7-9.72 1.92-3.12 4.2-5.82 6.84-8.1 2.76-2.28 5.46-4.02 8.1-5.22 2.64-1.32 4.74-1.98 6.3-1.98 1.56 0 3.12.48 4.68 1.44 1.56.84 2.82 1.86 3.78 3.06 1.08 1.08 1.62 2.04 1.62 2.88 0 .72-.36 1.62-1.08 2.7-.72.96-1.56 1.86-2.52 2.7-.96.84-1.8 1.26-2.52 1.26-.6 0-1.2-.3-1.8-.9l-1.98-1.98c-.72-.72-1.62-1.38-2.7-1.98-.96-.6-2.28-.9-3.96-.9-1.92 0-3.6.84-5.04 2.52-1.44 1.56-2.16 3.66-2.16 6.3 0 .96.3 2.46.9 4.5.72 2.04 1.5 4.14 2.34 6.3.96 2.16 1.86 4.08 2.7 5.76 1.32 2.4 2.52 5.46 3.6 9.18 1.2 3.6 1.8 6.78 1.8 9.54 0 3.6-1.08 6.9-3.24 9.9-2.04 3-4.74 5.64-8.1 7.92-3.36 2.16-7.02 3.84-10.98 5.04-3.84 1.2-7.56 1.8-11.16 1.8Zm56.59 0c-.96 0-2.04-.42-3.24-1.26-1.2-.72-2.22-1.56-3.06-2.52-.72-1.08-1.08-2.04-1.08-2.88 0-2.04.24-3.78.72-5.22.6-1.44 1.2-3.06 1.8-4.86l17.1-48.06c.24-.84.12-1.38-.36-1.62-.36-.36-.84-.54-1.44-.54l-7.2-.36c-1.56-.12-2.52-.42-2.88-.9-.24-.6-.36-1.14-.36-1.62 0-.24.3-.66.9-1.26.6-.72 1.32-1.38 2.16-1.98.96-.72 1.98-1.08 3.06-1.08h6.48c1.32 0 2.22-.18 2.7-.54.48-.48 1.02-1.38 1.62-2.7l4.32-8.82c.48-.96 1.38-2.04 2.7-3.24 1.32-1.32 2.64-2.46 3.96-3.42 1.44-.96 2.46-1.44 3.06-1.44.96 0 1.56.66 1.8 1.98.24 1.32.12 2.58-.36 3.78l-4.68 12.06c-.24.84-.18 1.38.18 1.62.48.24 1.2.36 2.16.36 2.4 0 4.86.18 7.38.54 2.52.36 4.56.66 6.12.9 1.92.36 3.06.78 3.42 1.26.48.36.72.84.72 1.44 0 .24-.24.66-.72 1.26-.48.48-1.38.78-2.7.9-2.64.12-5.16.3-7.56.54-2.4.12-4.92.24-7.56.36-1.92.12-3.3.42-4.14.9-.72.48-1.2 1.08-1.44 1.8l-16.02 44.28c-.48 1.44-.72 2.7-.72 3.78 0 1.08.3 1.92.9 2.52.72.6 1.74.9 3.06.9 1.68 0 3.48-.6 5.4-1.8 1.92-1.2 3.78-2.58 5.58-4.14 1.8-1.56 3.3-2.94 4.5-4.14 1.32-1.32 2.46-1.92 3.42-1.8.96.12 1.44.54 1.44 1.26 0 .84-.3 1.8-.9 2.88-.6.96-1.38 1.98-2.34 3.06a69.463 69.463 0 0 1-6.12 5.76c-2.04 1.8-4.2 3.48-6.48 5.04-2.16 1.44-4.26 2.7-6.3 3.78-1.92.96-3.66 1.74-5.22 2.34-1.56.6-2.82.9-3.78.9Zm49.13 0c-1.44 0-2.88-.42-4.32-1.26-1.44-.72-2.64-1.68-3.6-2.88-.84-1.2-1.26-2.46-1.26-3.78 0-4.32 1.44-9.3 4.32-14.94 2.88-5.76 6.9-11.76 12.06-18 5.16-6.36 11.1-12.48 17.82-18.36 6.48-5.64 11.76-9.84 15.84-12.6 4.08-2.88 7.08-4.32 9-4.32s3.6.84 5.04 2.52c1.68 2.16 2.4 3.18 2.16 3.06-.12-.24-.12-.36 0-.36.24 0 .42-.06.54-.18.24-.24.42-.54.54-.9 1.68-2.88 2.7-4.62 3.06-5.22.36-.6.36-.66 0-.18.72-1.2 1.44-1.8 2.16-1.8 1.08 0 2.16.18 3.24.54 1.08.36 1.92.84 2.52 1.44.72.6 1.08 1.2 1.08 1.8 0 .6-.42 2.1-1.26 4.5l-20.16 53.46c-1.56 4.08-.78 6.12 2.34 6.12 2.16 0 4.74-1.02 7.74-3.06 3.12-2.16 5.82-4.74 8.1-7.74.24-.24.48-.42.72-.54.36-.24.66-.36.9-.36.48 0 .78.18.9.54.24.24.36.72.36 1.44 0 .84-.84 2.52-2.52 5.04-1.68 2.4-3.42 4.5-5.22 6.3-3.36 3.12-6.78 5.52-10.26 7.2-3.36 1.68-6.48 2.52-9.36 2.52-1.2 0-2.4-.36-3.6-1.08a11.02 11.02 0 0 1-3.06-2.7c-.72-1.08-1.08-2.16-1.08-3.24 0-1.32.36-2.7 1.08-4.14-.48 1.08-.54 1.08-.18 0 .48-1.08 1.2-2.76 2.16-5.04 1.08-2.28 2.22-4.68 3.42-7.2 1.2-2.52 2.22-4.74 3.06-6.66.6-1.32.84-2.28.72-2.88 0-.72-.36-.66-1.08.18-7.32 8.16-13.62 14.64-18.9 19.44-5.16 4.8-9.72 8.22-13.68 10.26-3.96 2.04-7.74 3.06-11.34 3.06Zm10.08-11.34c2.64 0 6.54-2.16 11.7-6.48 5.28-4.44 11.22-10.56 17.82-18.36 4.56-5.28 8.16-10.14 10.8-14.58 2.64-4.44 3.96-7.74 3.96-9.9 0-.96-.78-2.1-2.34-3.42-.72-.6-1.5-1.08-2.34-1.44-.84-.36-1.56-.54-2.16-.54-2.16 0-5.16 1.08-9 3.24a53.548 53.548 0 0 0-10.26 7.74c-3.96 3.84-7.74 8.16-11.34 12.96-3.6 4.8-6.54 9.42-8.82 13.86-2.16 4.44-3.24 8.04-3.24 10.8 0 1.8.48 3.3 1.44 4.5.96 1.08 2.22 1.62 3.78 1.62Zm77.53 11.88c-.6 0-1.26-.24-1.98-.72-.72-.36-1.32-.9-1.8-1.62-.48-.6-.72-1.26-.72-1.98 0-1.44.36-3.24 1.08-5.4.84-2.28 1.86-5.1 3.06-8.46l16.56-43.2c.6-1.56.84-3 .72-4.32 0-1.32-.6-1.98-1.8-1.98-1.68 0-3.36.24-5.04.72-1.56.36-2.76.78-3.6 1.26-.72.48-1.44.6-2.16.36-.6-.36-.9-.96-.9-1.8 0-.96.42-2.04 1.26-3.24.96-1.2 2.22-2.34 3.78-3.42 1.44-1.08 3.12-1.98 5.04-2.7 2.04-.72 4.14-1.08 6.3-1.08 3.36 0 5.46.84 6.3 2.52.96 1.68 1.08 3.96.36 6.84-.6 2.76-1.62 5.94-3.06 9.54l-8.1 20.34c-.48.84-.36 1.38.36 1.62.84.24 1.44.06 1.8-.54 4.8-8.28 9.6-15.48 14.4-21.6 4.92-6.24 9.48-11.04 13.68-14.4 4.2-3.48 7.68-5.22 10.44-5.22 3.12 0 5.28.9 6.48 2.7 1.32 1.8 1.98 3.9 1.98 6.3 0 2.16-.42 4.38-1.26 6.66-.72 2.28-1.8 4.2-3.24 5.76-1.32 1.44-2.82 2.16-4.5 2.16-.96 0-1.68-.54-2.16-1.62-.48-1.2-.72-2.76-.72-4.68 0-1.8-.24-3.18-.72-4.14-.48-1.08-1.38-1.62-2.7-1.62-1.2 0-2.82.78-4.86 2.34-1.92 1.56-4.38 4.26-7.38 8.1-1.32 1.8-3.06 4.26-5.22 7.38-2.16 3.12-4.5 6.6-7.02 10.44-2.4 3.72-4.8 7.56-7.2 11.52-2.4 3.84-4.5 7.38-6.3 10.62-3.24 5.76-5.58 9.96-7.02 12.6-1.32 2.64-2.7 3.96-4.14 3.96Zm68.92-.54c-.96 0-2.04-.42-3.24-1.26-1.2-.72-2.22-1.56-3.06-2.52-.72-1.08-1.08-2.04-1.08-2.88 0-2.04.24-3.78.72-5.22.6-1.44 1.2-3.06 1.8-4.86l17.1-48.06c.24-.84.12-1.38-.36-1.62-.36-.36-.84-.54-1.44-.54l-7.2-.36c-1.56-.12-2.52-.42-2.88-.9-.24-.6-.36-1.14-.36-1.62 0-.24.3-.66.9-1.26.6-.72 1.32-1.38 2.16-1.98.96-.72 1.98-1.08 3.06-1.08h6.48c1.32 0 2.22-.18 2.7-.54.48-.48 1.02-1.38 1.62-2.7l4.32-8.82c.48-.96 1.38-2.04 2.7-3.24 1.32-1.32 2.64-2.46 3.96-3.42 1.44-.96 2.46-1.44 3.06-1.44.96 0 1.56.66 1.8 1.98.24 1.32.12 2.58-.36 3.78l-4.68 12.06c-.24.84-.18 1.38.18 1.62.48.24 1.2.36 2.16.36 2.4 0 4.86.18 7.38.54 2.52.36 4.56.66 6.12.9 1.92.36 3.06.78 3.42 1.26.48.36.72.84.72 1.44 0 .24-.24.66-.72 1.26-.48.48-1.38.78-2.7.9-2.64.12-5.16.3-7.56.54-2.4.12-4.92.24-7.56.36-1.92.12-3.3.42-4.14.9-.72.48-1.2 1.08-1.44 1.8l-16.02 44.28c-.48 1.44-.72 2.7-.72 3.78 0 1.08.3 1.92.9 2.52.72.6 1.74.9 3.06.9 1.68 0 3.48-.6 5.4-1.8 1.92-1.2 3.78-2.58 5.58-4.14 1.8-1.56 3.3-2.94 4.5-4.14 1.32-1.32 2.46-1.92 3.42-1.8.96.12 1.44.54 1.44 1.26 0 .84-.3 1.8-.9 2.88-.6.96-1.38 1.98-2.34 3.06a69.463 69.463 0 0 1-6.12 5.76c-2.04 1.8-4.2 3.48-6.48 5.04-2.16 1.44-4.26 2.7-6.3 3.78-1.92.96-3.66 1.74-5.22 2.34-1.56.6-2.82.9-3.78.9ZM244.18 628.66c-.6 0-1.38-.18-2.34-.54-.96-.24-1.44-.66-1.44-1.26 0-.72.3-1.38.9-1.98l1.08-1.08c2.16-.6 4.26-1.74 6.3-3.42s3.9-4.32 5.58-7.92c1.32-2.76 2.34-6.24 3.06-10.44.84-4.08 1.44-8.4 1.8-12.96.36-4.56.6-9 .72-13.32s.18-8.04.18-11.16v-37.8c0-3.24-.6-6.06-1.8-8.46-1.2-2.52-3.36-4.08-6.48-4.68-.48-.12-.84-.42-1.08-.9-.24-.48-.36-.96-.36-1.44 0-1.2.42-1.92 1.26-2.16 4.56-1.08 8.4-2.58 11.52-4.5 3.12-1.92 5.52-3.42 7.2-4.5.6-.36 1.08-.66 1.44-.9.48-.24.78-.36.9-.36.84 0 1.26.3 1.26.9-.36 3.72-.66 8.28-.9 13.68-.24 5.28-.36 9.96-.36 14.04v33.12c0 3.72-.12 8.1-.36 13.14-.12 4.92-.54 10.02-1.26 15.3-.72 5.4-1.98 10.5-3.78 15.3-1.44 4.08-3.54 7.98-6.3 11.7-2.76 3.72-5.64 6.72-8.64 9-3 2.4-5.7 3.6-8.1 3.6Zm20.7-144.54c-2.52 0-4.68-.84-6.48-2.52-1.68-1.8-2.52-3.96-2.52-6.48 0-2.64.84-4.8 2.52-6.48 1.8-1.8 3.96-2.7 6.48-2.7 2.64 0 4.8.9 6.48 2.7 1.8 1.68 2.7 3.84 2.7 6.48 0 2.52-.9 4.68-2.7 6.48-1.68 1.68-3.84 2.52-6.48 2.52Zm85.605 96.3c-.84 0-1.26-.48-1.26-1.44 0-1.2.12-2.94.36-5.22.36-2.4.54-4.38.54-5.94v-1.08c-4.68 4.56-9.42 7.86-14.22 9.9-4.68 1.92-9.84 2.88-15.48 2.88-3.84 0-7.32-.84-10.44-2.52-3.12-1.56-5.58-3.9-7.38-7.02-1.8-3.24-2.7-7.2-2.7-11.88v-36.54c0-2.64-.6-4.74-1.8-6.3-1.2-1.56-3.18-2.88-5.94-3.96-.6-.24-1.14-.54-1.62-.9-.48-.36-.72-1.02-.72-1.98 0-1.08.24-1.8.72-2.16a5.6 5.6 0 0 1 1.98-.72c4.08-.24 7.2-.54 9.36-.9 2.28-.48 5.1-1.14 8.46-1.98.36-.12.6-.18.72-.18h.72c1.32 0 1.92.84 1.8 2.52-.36 2.76-.66 5.1-.9 7.02-.12 1.8-.18 4.08-.18 6.84v35.1c0 2.88.72 5.58 2.16 8.1 1.44 2.4 3.3 4.38 5.58 5.94 2.4 1.56 4.86 2.34 7.38 2.34 3.12 0 5.82-.18 8.1-.54 2.4-.36 4.74-1.38 7.02-3.06 1.32-.96 3-2.52 5.04-4.68 2.04-2.16 3.06-5.1 3.06-8.82V520.3c0-2.52-.78-4.38-2.34-5.58a11.449 11.449 0 0 0-5.04-2.7c-1.92-.48-3.48-.72-4.68-.72-1.08 0-1.98-.18-2.7-.54-.72-.48-1.08-1.32-1.08-2.52 0-1.08.36-1.8 1.08-2.16.84-.36 1.74-.54 2.7-.54 3.72-.12 6.78-.24 9.18-.36 2.52-.24 4.74-.54 6.66-.9 2.04-.48 4.14-1.02 6.3-1.62.24-.12.54-.18.9-.18.36-.12.66-.18.9-.18 1.56 0 2.34.66 2.34 1.98 0 .12-.06.36-.18.72 0 .24-.06.54-.18.9s-.3 1.38-.54 3.06c-.12 1.68-.3 3.42-.54 5.22-.12 1.8-.18 3.18-.18 4.14v41.58c0 3.24.3 5.58.9 7.02.72 1.32 1.5 1.98 2.34 1.98.96 0 2.34-.06 4.14-.18 1.92-.24 3.3-.36 4.14-.36.6 0 1.2.12 1.8.36.6.24.9.9.9 1.98 0 .96-.24 1.62-.72 1.98-.48.24-1.08.42-1.8.54-4.68.6-8.7 1.5-12.06 2.7-3.36 1.2-6.36 2.34-9 3.42l-1.62.54c-.72.36-1.38.54-1.98.54Zm36.962-2.88c-.96 0-1.8-.12-2.52-.36s-1.08-.78-1.08-1.62c0-.84.36-1.44 1.08-1.8.84-.36 1.86-.72 3.06-1.08 1.68-.6 3.36-1.26 5.04-1.98 1.8-.84 2.7-2.46 2.7-4.86v-38.7c0-3.24-.36-6.06-1.08-8.46-.72-2.52-2.64-4.02-5.76-4.5-.48-.12-.9-.36-1.26-.72-.24-.36-.36-.9-.36-1.62 0-1.2.48-1.92 1.44-2.16 3.24-.84 5.82-1.68 7.74-2.52 1.92-.96 3.6-1.98 5.04-3.06 1.56-1.2 3.42-2.46 5.58-3.78l.72-.36c.24-.24.54-.36.9-.36.72 0 1.08.42 1.08 1.26 0 .84-.18 2.58-.54 5.22-.24 2.52-.36 4.62-.36 6.3 0 1.2.12 1.92.36 2.16h.36c2.76-2.64 6.36-5.28 10.8-7.92 4.56-2.76 10.32-4.14 17.28-4.14 4.32 0 7.92.96 10.8 2.88 2.88 1.8 5.28 4.98 7.2 9.54h.54c3.84-3.48 8.22-6.42 13.14-8.82 4.92-2.4 10.32-3.6 16.2-3.6 3.96 0 7.26 1.2 9.9 3.6 2.64 2.4 4.62 5.52 5.94 9.36 1.44 3.84 2.16 7.86 2.16 12.06v38.34c0 2.4.84 4.02 2.52 4.86 1.68.72 3.42 1.38 5.22 1.98 1.2.36 2.16.72 2.88 1.08.84.36 1.26.96 1.26 1.8 0 .72-.3 1.2-.9 1.44-.48.36-1.38.54-2.7.54-2.4 0-4.26-.12-5.58-.36-1.32-.12-2.58-.24-3.78-.36-1.08-.12-2.7-.18-4.86-.18-2.04 0-3.72.06-5.04.18-1.32.12-2.7.24-4.14.36-1.44.24-3.36.36-5.76.36-1.08 0-1.98-.18-2.7-.54-.6-.24-.9-.72-.9-1.44 0-.96.36-1.62 1.08-1.98.84-.36 1.86-.66 3.06-.9 1.92-.48 3.66-1.14 5.22-1.98 1.68-.84 2.52-2.46 2.52-4.86v-37.8c0-2.88-.66-5.58-1.98-8.1-1.32-2.64-3.06-4.8-5.22-6.48-2.16-1.68-4.56-2.52-7.2-2.52-3 0-5.82.36-8.46 1.08-2.52.72-4.92 1.98-7.2 3.78-3.36 2.64-5.04 6.96-5.04 12.96v37.08c0 2.4.9 4.02 2.7 4.86 1.8.84 3.6 1.5 5.4 1.98 1.2.24 2.16.6 2.88 1.08.84.36 1.26.96 1.26 1.8 0 .72-.3 1.2-.9 1.44-.6.36-1.5.54-2.7.54-2.4 0-4.32-.12-5.76-.36l-3.96-.36c-1.2-.12-2.88-.18-5.04-.18-2.04 0-3.72.06-5.04.18-1.32.12-2.7.24-4.14.36-1.44.24-3.36.36-5.76.36-.96 0-1.8-.18-2.52-.54-.72-.24-1.08-.72-1.08-1.44 0-.96.42-1.56 1.26-1.8l2.88-1.08c1.8-.6 3.54-1.26 5.22-1.98 1.8-.84 2.7-2.46 2.7-4.86v-37.8c0-2.88-.66-5.58-1.98-8.1-1.32-2.64-3.06-4.8-5.22-6.48-2.16-1.68-4.56-2.52-7.2-2.52-3 0-5.82.36-8.46 1.08-2.52.72-4.92 1.98-7.2 3.78-3.24 2.4-4.86 6.72-4.86 12.96v37.08c0 2.4.84 4.02 2.52 4.86 1.68.72 3.42 1.38 5.22 1.98.96.36 1.86.72 2.7 1.08.96.24 1.44.84 1.44 1.8 0 .72-.36 1.2-1.08 1.44-.6.36-1.44.54-2.52.54-2.4 0-4.32-.12-5.76-.36-1.32-.12-2.58-.24-3.78-.36-1.2-.12-2.88-.18-5.04-.18-2.04 0-3.72.06-5.04.18-1.2.12-2.52.24-3.96.36-1.32.24-3.18.36-5.58.36Zm139.378 50.76c-.6 0-1.38-.12-2.34-.36-.96-.12-1.44-.54-1.44-1.26 0-.96.42-1.68 1.26-2.16l2.88-1.08c1.8-.6 3.54-1.32 5.22-2.16 1.68-.72 2.52-2.28 2.52-4.68v-91.26c0-.96-.3-2.4-.9-4.32-.48-1.92-1.32-3.78-2.52-5.58-1.2-1.8-2.82-2.88-4.86-3.24-.48-.12-.84-.42-1.08-.9-.24-.48-.36-.96-.36-1.44 0-.6.12-1.08.36-1.44.24-.36.54-.6.9-.72 4.56-1.08 8.46-2.22 11.7-3.42 3.24-1.32 6.3-2.58 9.18-3.78h.18c0-.12.06-.18.18-.18.24 0 .48.18.72.54.24.36.36.72.36 1.08 0 1.08-.18 2.82-.54 5.22-.24 2.28-.36 4.14-.36 5.58 0 .96.06 1.5.18 1.62 1.2-1.2 3.36-2.7 6.48-4.5 3.24-1.92 6.9-3.6 10.98-5.04 4.08-1.56 7.98-2.34 11.7-2.34 6.24 0 11.52 1.68 15.84 5.04 4.44 3.24 7.8 7.5 10.08 12.78 2.4 5.16 3.6 10.56 3.6 16.2 0 5.4-1.02 10.68-3.06 15.84-2.04 5.04-4.92 9.6-8.64 13.68a45.415 45.415 0 0 1-12.96 9.9c-4.92 2.4-10.2 3.6-15.84 3.6-1.68 0-3.72-.3-6.12-.9-2.28-.48-4.56-1.14-6.84-1.98-2.16-.84-3.84-1.8-5.04-2.88-.12 0-.24.72-.36 2.16-.12 1.32-.24 2.7-.36 4.14v36.54c0 1.56.6 2.76 1.8 3.6 1.32.96 2.76 1.62 4.32 1.98 1.68.48 3.12.9 4.32 1.26.96.36 1.86.72 2.7 1.08.96.48 1.44 1.2 1.44 2.16 0 .72-.48 1.14-1.44 1.26-.96.24-1.8.36-2.52.36-3.48 0-6.42-.18-8.82-.54-2.28-.24-4.98-.36-8.1-.36-2.04 0-3.72.06-5.04.18-1.2.12-2.46.24-3.78.36-1.32.24-3.18.36-5.58.36Zm42.12-54.36c1.8 0 3.96-.54 6.48-1.62 2.64-1.08 5.22-2.82 7.74-5.22 2.64-2.4 4.8-5.64 6.48-9.72 1.8-4.08 2.7-9.12 2.7-15.12 0-6.96-.9-12.54-2.7-16.74-1.8-4.2-4.02-7.38-6.66-9.54-2.64-2.16-5.34-3.6-8.1-4.32-2.76-.72-5.1-1.08-7.02-1.08-2.88 0-5.88.6-9 1.8-3 1.2-5.58 2.58-7.74 4.14-2.04 1.44-3.06 2.58-3.06 3.42 0 2.64-.06 5.34-.18 8.1 0 2.64-.06 5.22-.18 7.74 0 2.52-.06 4.8-.18 6.84v4.5c0 4.8 1.08 9.24 3.24 13.32 2.28 4.08 5.04 7.38 8.28 9.9 3.36 2.4 6.66 3.6 9.9 3.6Zm69.94 5.58c-3.72 0-7.2-.6-10.44-1.8-3.24-1.08-6-2.64-8.28-4.68-.6-1.32-1.08-3.54-1.44-6.66-.24-3.12-.42-5.7-.54-7.74 0-1.08.78-1.62 2.34-1.62.48 0 .9.12 1.26.36.48.12.78.42.9.9 1.56 5.88 4.02 10.08 7.38 12.6 3.48 2.52 6.96 3.78 10.44 3.78 3.48 0 6.42-1.14 8.82-3.42 2.52-2.4 3.78-5.34 3.78-8.82 0-3.24-1.08-6-3.24-8.28-2.16-2.4-5.94-5.28-11.34-8.64-4.08-2.52-7.38-4.92-9.9-7.2-2.52-2.28-4.38-4.62-5.58-7.02-1.08-2.4-1.62-5.1-1.62-8.1 0-3.84.9-7.32 2.7-10.44 1.8-3.12 4.5-5.58 8.1-7.38 3.6-1.92 8.1-2.88 13.5-2.88 3.6 0 6.6.36 9 1.08 2.4.72 4.2 1.5 5.4 2.34.96 1.32 1.74 3.42 2.34 6.3.72 2.76 1.08 5.4 1.08 7.92 0 .84-.6 1.26-1.8 1.26-.72 0-1.44-.12-2.16-.36-.6-.36-1.02-.78-1.26-1.26-1.56-3.96-3.54-6.96-5.94-9-2.28-2.16-5.16-3.24-8.64-3.24-3 0-5.7.9-8.1 2.7-2.28 1.8-3.42 4.44-3.42 7.92 0 2.76.84 5.22 2.52 7.38 1.8 2.16 5.1 4.62 9.9 7.38 6.96 3.96 12.12 7.68 15.48 11.16 3.48 3.36 5.22 7.86 5.22 13.5 0 6.48-2.46 11.76-7.38 15.84s-11.28 6.12-19.08 6.12Zm66.283 0c-5.88 0-10.5-1.8-13.86-5.4-3.24-3.6-4.86-8.94-4.86-16.02v-41.76c0-.96-.36-1.62-1.08-1.98-.72-.48-2.28-.72-4.68-.72h-1.08c-.6 0-1.14-.36-1.62-1.08-.36-.84-.54-1.68-.54-2.52 0-.24.18-.6.54-1.08.36-.48.6-.78.72-.9 2.4-1.68 4.56-3.36 6.48-5.04 2.04-1.68 3.84-3.3 5.4-4.86 1.68-1.68 3.06-3.18 4.14-4.5l1.44-1.44c.48-.48 1.02-.72 1.62-.72.6 0 1.14.12 1.62.36.6.24.84.78.72 1.62l-.9 8.1c-.12 1.32.18 2.22.9 2.7s1.86.72 3.42.72h20.52c.48 0 .9.42 1.26 1.26.36.72.54 1.62.54 2.7s-.18 2.16-.54 3.24c-.36.96-.78 1.44-1.26 1.44h-17.82c-3 0-4.98.24-5.94.72-.84.48-1.26 1.92-1.26 4.32v35.46c0 4.8 1.02 8.58 3.06 11.34s4.98 4.14 8.82 4.14c3.48 0 6.18-.24 8.1-.72 1.92-.6 3.66-1.44 5.22-2.52.24-.24.48-.36.72-.36.48 0 .78.3.9.9.24.48.36 1.02.36 1.62 0 .6-1.02 1.8-3.06 3.6-1.92 1.8-4.5 3.48-7.74 5.04-3.12 1.56-6.54 2.34-10.26 2.34Zm43.642 0c-2.16 0-4.38-.84-6.66-2.52-2.16-1.68-4.02-3.72-5.58-6.12-1.44-2.4-2.16-4.68-2.16-6.84 0-3.84 1.02-6.84 3.06-9s5.28-4.14 9.72-5.94l18.36-7.56c2.4-.96 3.78-1.8 4.14-2.52.48-.72.78-2.28.9-4.68l.36-11.52c.12-3.12-.78-5.82-2.7-8.1-1.8-2.28-4.44-3.42-7.92-3.42-1.8 0-3.6.3-5.4.9-1.8.6-3.3 1.38-4.5 2.34-.72.48-1.2 1.2-1.44 2.16-.24.96-.36 1.98-.36 3.06v1.62c.12.6.18 1.14.18 1.62 0 .6-.78 1.44-2.34 2.52-1.44.96-3.12 1.86-5.04 2.7-1.8.72-3.3 1.08-4.5 1.08-.6 0-1.08-.12-1.44-.36-.36-.36-.54-.78-.54-1.26 0-1.92.6-3.96 1.8-6.12 1.32-2.28 3.12-4.38 5.4-6.3 2.76-2.52 5.76-4.74 9-6.66s6.42-3.42 9.54-4.5c3.12-1.08 5.88-1.62 8.28-1.62 4.32 0 7.86 1.56 10.62 4.68 2.88 3 4.26 6.78 4.14 11.34l-.9 43.2c-.12 2.52.42 4.56 1.62 6.12 1.32 1.56 2.94 2.34 4.86 2.34 3 0 5.22-.66 6.66-1.98.6-.6 1.08-.9 1.44-.9.6 0 1.08.18 1.44.54.36.36.54.84.54 1.44 0 1.32-.66 2.64-1.98 3.96-1.92 1.92-4.02 3.42-6.3 4.5-2.16 1.2-4.2 1.8-6.12 1.8-5.52 0-9.9-3.12-13.14-9.36h-.54c-3.96 3.24-7.74 5.58-11.34 7.02-3.6 1.56-7.32 2.34-11.16 2.34Zm8.46-8.64c2.4 0 4.44-.36 6.12-1.08 1.68-.84 3.18-1.92 4.5-3.24.6-.6 1.08-1.38 1.44-2.34.48-1.08.78-2.76.9-5.04l.36-8.82c.12-1.32.06-2.28-.18-2.88-.24-.6-.72-.9-1.44-.9-.24 0-.66.06-1.26.18s-1.38.36-2.34.72c-6.36 2.28-10.8 4.68-13.32 7.2-2.4 2.4-3.6 4.62-3.6 6.66 0 3.12.9 5.52 2.7 7.2 1.92 1.56 3.96 2.34 6.12 2.34Zm51.195 6.66c-1.2 0-2.1-.18-2.7-.54-.6-.24-.9-.72-.9-1.44 0-.96.36-1.56 1.08-1.8.72-.36 1.74-.72 3.06-1.08 2.28-.6 3.96-1.44 5.04-2.52 1.2-1.2 1.8-2.64 1.8-4.32v-38.7c0-3.24-.48-6.06-1.44-8.46-.96-2.4-2.94-3.9-5.94-4.5-.48-.12-.9-.42-1.26-.9-.36-.48-.54-.96-.54-1.44 0-1.2.54-1.92 1.62-2.16 3.12-.96 6.36-2.34 9.72-4.14 3.48-1.92 6.18-3.48 8.1-4.68.72-.48 1.26-.78 1.62-.9.48-.24.84-.36 1.08-.36.6 0 .9.42.9 1.26 0 .36-.06 1.26-.18 2.7 0 1.44-.06 3.12-.18 5.04 0 1.92-.06 3.84-.18 5.76 0 .24.12.36.36.36 1.92-2.4 4.02-4.5 6.3-6.3 2.4-1.8 4.8-3.24 7.2-4.32 2.52-1.08 4.92-1.62 7.2-1.62 2.52 0 4.56.54 6.12 1.62 1.68 1.08 2.52 2.46 2.52 4.14 0 1.2-.36 2.52-1.08 3.96-.6 1.44-1.44 2.7-2.52 3.78-1.08 1.08-2.22 1.62-3.42 1.62-.72 0-1.5-.12-2.34-.36-.84-.36-1.74-.78-2.7-1.26l-2.88-1.08c-.96-.36-1.92-.54-2.88-.54-2.88 0-5.7 1.02-8.46 3.06-2.64 2.04-3.96 6.06-3.96 12.06v36.36c0 1.56.84 2.88 2.52 3.96 1.68.96 4.02 1.92 7.02 2.88 1.32.36 2.34.72 3.06 1.08.72.36 1.08.96 1.08 1.8 0 1.32-1.2 1.98-3.6 1.98-3.6 0-6.36-.18-8.28-.54-1.8-.24-4.26-.36-7.38-.36-2.04 0-3.72.06-5.04.18-1.2.12-2.52.24-3.96.36-1.32.24-3.18.36-5.58.36Zm85.317 1.98c-5.88 0-10.5-1.8-13.86-5.4-3.24-3.6-4.86-8.94-4.86-16.02v-41.76c0-.96-.36-1.62-1.08-1.98-.72-.48-2.28-.72-4.68-.72h-1.08c-.6 0-1.14-.36-1.62-1.08-.36-.84-.54-1.68-.54-2.52 0-.24.18-.6.54-1.08.36-.48.6-.78.72-.9 2.4-1.68 4.56-3.36 6.48-5.04 2.04-1.68 3.84-3.3 5.4-4.86 1.68-1.68 3.06-3.18 4.14-4.5l1.44-1.44c.48-.48 1.02-.72 1.62-.72.6 0 1.14.12 1.62.36.6.24.84.78.72 1.62l-.9 8.1c-.12 1.32.18 2.22.9 2.7s1.86.72 3.42.72h20.52c.48 0 .9.42 1.26 1.26.36.72.54 1.62.54 2.7s-.18 2.16-.54 3.24c-.36.96-.78 1.44-1.26 1.44h-17.82c-3 0-4.98.24-5.94.72-.84.48-1.26 1.92-1.26 4.32v35.46c0 4.8 1.02 8.58 3.06 11.34s4.98 4.14 8.82 4.14c3.48 0 6.18-.24 8.1-.72 1.92-.6 3.66-1.44 5.22-2.52.24-.24.48-.36.72-.36.48 0 .78.3.9.9.24.48.36 1.02.36 1.62 0 .6-1.02 1.8-3.06 3.6-1.92 1.8-4.5 3.48-7.74 5.04-3.12 1.56-6.54 2.34-10.26 2.34Z" fill="#3C4043"/><rect x="1216" y="813" width="218" height="50" rx="25" fill="#D2E3FC"/><path d="M1325 813h84c13.81 0 25 11.193 25 25s-11.19 25-25 25h-84v-50Z" fill="#1A73E8"/><rect x="486" y="813" width="218" height="50" rx="25" fill="#D2E3FC"/><path d="M486 838c0-13.807 11.193-25 25-25h84v50h-84c-13.807 0-25-11.193-25-25Z" fill="#1A73E8"/></svg>