<svg width="1920" height="1080" fill="none" xmlns="http://www.w3.org/2000/svg"><rect x="1216" y="813" width="218" height="50" rx="25" fill="#D2E3FC"/><rect x="1215" y="813" width="197" height="50" rx="25" fill="#1A73E8"/><rect x="486" y="813" width="218" height="50" rx="25" fill="#D2E3FC"/><rect x="486" y="813" width="49" height="50" rx="24.5" fill="#1A73E8"/><path d="M1070.82 599.646v-86.884h-14.98c-.72 0-1.29-.214-1.72-.642-.42-.428-.64-.999-.64-1.712v-23.54h43.87c.57 0 1 .143 1.29.428.28.143.49.357.64.642.28.285.43.713.43 1.284V602h-26.54c-.71 0-1.28-.214-1.71-.642-.43-.428-.64-.999-.64-1.712Zm-5.14-167.562h34.88c.71 0 1.29.214 1.71.642.43.428.65.999.65 1.712v27.606h-34.89c-.71 0-1.28-.214-1.71-.642-.43-.428-.64-.999-.64-1.712v-27.606ZM1284.95 602h-28.47c-.42 0-.85-.071-1.28-.214-.29-.285-.57-.571-.86-.856-.14-.285-.21-.713-.21-1.284v-76.184c0-3.852-.71-6.563-2.14-8.132-1.43-1.569-3.64-2.354-6.63-2.354-2.72 0-5.35.785-7.92 2.354-2.57 1.427-5.07 3.638-7.49 6.634-2.43 2.996-4.71 6.777-6.85 11.342l-4.28-29.96h10.91c2.29-4.28 4.71-7.775 7.28-10.486 2.71-2.853 5.85-4.993 9.42-6.42 3.56-1.427 7.56-2.14 11.98-2.14 3.42 0 6.7.642 9.84 1.926 3.28 1.141 6.14 2.996 8.56 5.564 2.57 2.425 4.57 5.493 6 9.202 1.42 3.567 2.14 7.847 2.14 12.84V602Zm-59.28 0h-28.46c-.43 0-.86-.071-1.29-.214-.28-.285-.57-.571-.85-.856-.15-.285-.22-.713-.22-1.284v-76.398c0-2.568-.28-4.637-.85-6.206-.58-1.569-1.43-2.639-2.57-3.21-1.14-.571-2.5-.856-4.07-.856-2.71 0-5.42.785-8.13 2.354-2.71 1.427-5.42 3.709-8.13 6.848-2.57 2.996-5.14 6.848-7.71 11.556l-5.35-30.388h10.49c2.57-3.995 5.35-7.419 8.35-10.272 2.99-2.853 6.27-4.993 9.84-6.42 3.57-1.569 7.28-2.354 11.13-2.354 3.85 0 7.42.571 10.7 1.712 3.42 1.141 6.42 2.853 8.99 5.136 2.56 2.283 4.56 5.207 5.99 8.774 1.42 3.567 2.14 7.775 2.14 12.626V602Zm-59.28 0h-29.53c-.29-.143-.57-.285-.86-.428-.14-.285-.28-.571-.43-.856V486.868h23.33s.36 1.284 1.07 3.852c.86 2.425 1.71 5.279 2.57 8.56 1 3.281 1.85 6.206 2.57 8.774a1302.5 1302.5 0 0 0 1.28 3.852V602Zm243.88-72.974V570.328c0 1.141.07 2.14.21 2.996.29.856.71 1.569 1.28 2.14.43.428 1 .785 1.72 1.07.85.143 1.78.214 2.78.214h6.42v22.898c0 .713-.22 1.284-.64 1.712-.43.428-1 .642-1.72.642h-12.62c-4 0-7.56-.642-10.7-1.926a27.007 27.007 0 0 1-8.35-5.35c-2.42-2.425-4.28-5.279-5.56-8.56-1.29-3.281-1.93-6.991-1.93-11.128V527.528c0-4.137-.71-7.347-2.14-9.63-1.42-2.425-3.78-4.137-7.06-5.136-3.14-.999-7.42-1.498-12.84-1.498-3.99 0-7.92.214-11.77.642-3.71.428-7.42.999-11.13 1.712-3.56.713-7.2 1.712-10.91 2.996h-4.07v-22.898c0-.571.07-.999.22-1.284.14-.285.28-.499.42-.642.86-.856 3.21-1.855 7.07-2.996 3.99-1.141 8.7-2.069 14.12-2.782 5.42-.856 10.77-1.284 16.05-1.284 8.99 0 16.69.856 23.11 2.568 6.42 1.569 11.7 4.137 15.84 7.704 4.14 3.567 7.2 8.203 9.2 13.91 2 5.564 3 12.269 3 20.116Zm-68.48 40.446c0 2.996.78 5.279 2.35 6.848 1.71 1.427 4.28 2.14 7.7 2.14 3.86 0 7.64-.428 11.35-1.284 3.71-.856 7.34-2.283 10.91-4.28 3.71-1.997 7.42-4.565 11.13-7.704v18.404h-6.42a32.54 32.54 0 0 1-7.92 11.128c-3.28 2.996-7.13 5.35-11.56 7.062-4.42 1.569-9.27 2.354-14.55 2.354-6.56 0-12.27-1.284-17.12-3.852-4.71-2.568-8.34-6.135-10.91-10.7-2.57-4.708-3.85-10.129-3.85-16.264v-7.49c0-4.708.78-8.917 2.35-12.626 1.57-3.709 3.78-6.919 6.63-9.63 3-2.711 6.57-4.779 10.7-6.206 4.14-1.569 8.78-2.354 13.91-2.354h40.66c1.29 0 2.22 1.141 2.79 3.424.71 2.283 1.14 4.851 1.28 7.704.14 2.711.21 4.993.21 6.848h-39.59c-1.71 0-3.21.214-4.49.642a8.38 8.38 0 0 0-3 1.926c-.71.856-1.35 1.855-1.92 2.996-.43.999-.64 2.14-.64 3.424v7.49Zm106.96 16.05c0-3.281.57-6.206 1.71-8.774 1.15-2.711 2.93-5.065 5.35-7.062 2.57-1.997 5.78-3.567 9.63-4.708v-6.848l13.49 5.136c-.43 2.14-.79 4.351-1.07 6.634-.15 2.14-.22 4.423-.22 6.848 0 1.712.36 2.925 1.07 3.638.72.571 1.93.856 3.64.856h27.61c8.41 0 15.33 1.427 20.75 4.28 5.43 2.853 9.42 6.848 11.99 11.984 2.71 4.993 4.06 10.771 4.06 17.334v7.918c0 4.851-.78 9.273-2.35 13.268-1.43 3.995-3.71 7.419-6.85 10.272-3.14 2.996-7.06 5.279-11.77 6.848-4.56 1.569-9.98 2.354-16.26 2.354h-43.66c-7.42 0-13.62-.999-18.62-2.996-4.85-1.855-8.56-4.637-11.12-8.346-2.43-3.567-3.64-8.061-3.64-13.482v-3.852c0-4.28.85-8.061 2.57-11.342 1.85-3.281 4.42-5.992 7.7-8.132 3.28-2.14 7.13-3.567 11.56-4.28v-8.132l15.83 9.63c-2.42.713-4.28 1.712-5.56 2.996a16.928 16.928 0 0 0-2.78 4.28c-.57 1.712-.86 3.638-.86 5.778v6.634c0 2.425.36 4.423 1.07 5.992.86 1.569 2.14 2.711 3.85 3.424 1.71.713 4 1.07 6.85 1.07h33.81c2.14 0 3.93-.285 5.35-.856 1.43-.428 2.57-1.07 3.43-1.926 1-.999 1.71-2.354 2.14-4.066.42-1.569.64-3.353.64-5.35v-5.778c0-3.995-.86-6.848-2.57-8.56-1.71-1.712-4.71-2.568-8.99-2.568h-38.52c-3.28 0-6.42-.927-9.41-2.782-2.86-1.712-5.21-4.137-7.07-7.276-1.85-3.139-2.78-6.491-2.78-10.058Zm51.15-77.468 20.11-1.498v5.778c5 1.712 8.64 4.066 10.92 7.062 2.28 2.996 3.42 6.919 3.42 11.77v3.21c0 6.277-1.78 11.627-5.35 16.05-3.42 4.423-8.7 7.918-15.83 10.486-6.99 2.425-15.77 3.638-26.33 3.638-10.55 0-19.54-1.427-26.96-4.28-7.28-2.996-12.77-7.276-16.48-12.84-3.71-5.564-5.56-12.198-5.56-19.902v-4.708c0-7.847 1.85-14.552 5.56-20.116 3.71-5.707 9.2-10.058 16.48-13.054 7.42-3.139 16.41-4.708 26.96-4.708h58.21v21.828c0 .571-.21 1.141-.64 1.712-.43.428-1 .642-1.71.642h-55.86c-6.84 0-12.05 1.213-15.62 3.638-3.56 2.425-5.35 6.206-5.35 11.342v3.638c0 2.14.29 3.923.86 5.35.71 1.427 1.64 2.782 2.78 4.066 1.71 1.712 4 2.996 6.85 3.852 2.85.856 6.35 1.284 10.48 1.284 6.85 0 11.85-1.213 14.98-3.638 3.14-2.568 4.71-6.42 4.71-11.556v-4.494c0-1.997-.21-3.781-.64-5.35a14.118 14.118 0 0 0-2.14-4.708c-.86-1.427-2.14-2.925-3.85-4.494Zm113.92-23.754c9.7 0 18.12 1.997 25.25 5.992 7.28 3.995 12.91 9.559 16.91 16.692 3.99 7.133 5.99 15.479 5.99 25.038v17.762c0 .428-.07.856-.22 1.284-.14.285-.42.499-.85.642-.29.143-.64.214-1.07.214h-72.76l-.64-17.976h47.5v-2.996c0-4.137-.42-7.633-1.28-10.486-.86-2.996-2.21-5.35-4.07-7.062-1.56-1.712-3.56-2.925-5.99-3.638-2.42-.713-5.35-1.07-8.77-1.07-7.13 0-12.48 1.783-16.05 5.35-3.43 3.424-5.14 9.059-5.14 16.906v26.108c0 3.424.43 6.491 1.29 9.202 1 2.568 2.35 4.779 4.06 6.634 2.29 2.283 5.28 3.923 8.99 4.922 3.85.999 8.28 1.498 13.27 1.498 5.13 0 9.7-.214 13.69-.642 4-.571 7.71-1.284 11.13-2.14 3.43-.999 6.78-2.069 10.06-3.21h4.07v21.828c0 .285-.07.571-.22.856a3.18 3.18 0 0 1-.64.856c-1.14 1.141-3.71 2.283-7.7 3.424-3.86 1.141-8.56 2.14-14.13 2.996-5.42.856-10.98 1.284-16.69 1.284-9.27 0-17.48-1.07-24.61-3.21-6.99-2.283-12.84-5.493-17.55-9.63-4.56-4.137-8.06-9.131-10.48-14.98-2.29-5.992-3.43-12.697-3.43-20.116v-24.396c0-7.276 1.14-13.839 3.43-19.688 2.42-5.849 5.85-10.843 10.27-14.98 4.42-4.28 9.7-7.561 15.83-9.844 6.14-2.283 12.99-3.424 20.55-3.424Z" fill="#D2E3FC"/><path d="M1089.85 585.308V512.12h-32.95c-.43 0-.86-.071-1.29-.214-.28-.285-.57-.571-.85-.856a3.853 3.853 0 0 1-.22-1.284v-22.898H1116.39c.57 0 1 .143 1.28.428.29.143.5.357.64.642.29.285.43.713.43 1.284v96.086h-28.89Zm-39.16-8.56h99.3c.71 0 1.21.143 1.49.428.29.143.5.357.65.642.28.285.42.713.42 1.284V602h-99.51c-.42 0-.85-.071-1.28-.214-.28-.285-.57-.571-.86-.856-.14-.285-.21-.713-.21-1.284v-22.898Zm35.1-144.664h34.88c.71 0 1.28.214 1.71.642.43.428.64.999.64 1.712v27.606h-34.88c-.71 0-1.28-.214-1.71-.642-.43-.428-.64-.999-.64-1.712v-27.606ZM1286.65 602H1263.32c-.42 0-.85-.071-1.28-.214-.29-.285-.57-.571-.86-.856-.14-.285-.21-.713-.21-1.284v-79.608c0-2.853-.64-4.708-1.93-5.564-1.14-.999-2.71-1.498-4.7-1.498-1.57 0-3.21.357-4.93 1.07-1.71.571-3.49 1.569-5.35 2.996-1.71 1.427-3.56 3.353-5.56 5.778l-4.28-19.688h10.91c1.72-3.995 3.57-7.347 5.57-10.058 2.14-2.711 4.56-4.851 7.27-6.42 2.86-1.569 6.07-2.354 9.63-2.354 2.86 0 5.42.499 7.71 1.498 2.28.856 4.28 2.211 5.99 4.066s3 4.066 3.85 6.634c1 2.568 1.5 5.493 1.5 8.774V602Zm-45.8 0h-19.9c-.43 0-.85-.071-1.28-.214-.29-.285-.57-.571-.86-.856-.14-.285-.21-.713-.21-1.284v-79.608c0-1.997-.29-3.495-.86-4.494-.57-.999-1.28-1.641-2.14-1.926-.85-.428-2-.642-3.42-.642-1.57 0-3.28.357-5.14 1.07-1.71.571-3.49 1.569-5.35 2.996-1.85 1.427-3.85 3.495-5.99 6.206l-5.35-20.116h9.42c1.71-4.137 3.63-7.561 5.77-10.272 2.14-2.853 4.64-4.993 7.49-6.42 3-1.427 6.28-2.14 9.85-2.14 2.57 0 4.92.499 7.06 1.498 2.28.856 4.21 2.283 5.78 4.28 1.71 1.855 2.99 4.066 3.85 6.634.86 2.425 1.28 5.279 1.28 8.56V602Zm-42.37 0h-24.39c-.29-.143-.58-.285-.86-.428-.14-.285-.29-.571-.43-.856V486.868H1190.99s.36 1.284 1.07 3.852c.86 2.425 1.78 5.279 2.78 8.56 1 3.139 1.86 5.992 2.57 8.56.71 2.568 1.07 3.852 1.07 3.852V602Zm204.5-72.974V570.328c0 1.141.07 2.14.22 2.996.28.856.71 1.569 1.28 2.14.43.428 1 .785 1.71 1.07.86.143 1.79.214 2.78.214h6.42v22.898c0 .713-.21 1.284-.64 1.712-.43.428-1 .642-1.71.642H1400.41c-3.99 0-7.56-.642-10.7-1.926-3.13-1.284-5.92-3.067-8.34-5.35-2.43-2.425-4.28-5.279-5.57-8.56-1.28-3.281-1.92-6.991-1.92-11.128V527.528c0-4.137-.72-7.347-2.14-9.63-1.29-2.425-3.57-4.137-6.85-5.136-3.28-.999-7.63-1.498-13.05-1.498-4 0-7.92.214-11.77.642-3.71.428-7.42.999-11.13 1.712-3.57.713-7.21 1.712-10.92 2.996h-4.06v-22.898c0-.571.07-.999.21-1.284a2.5 2.5 0 0 1 .43-.642c.86-.856 3.21-1.855 7.06-2.996 4-1.141 8.7-2.069 14.13-2.782 5.42-.856 10.77-1.284 16.05-1.284 8.98 0 16.69.856 23.11 2.568 6.42 1.569 11.7 4.137 15.83 7.704 4.14 3.567 7.21 8.203 9.21 13.91 1.99 5.564 2.99 12.269 2.99 20.116Zm-68.48 40.446c0 2.996.79 5.279 2.36 6.848 1.71 1.427 4.28 2.14 7.7 2.14 3.85 0 7.63-.428 11.34-1.284 3.71-.856 7.35-2.283 10.92-4.28 3.71-1.997 7.41-4.565 11.12-7.704v18.404h-6.42a32.38 32.38 0 0 1-7.91 11.128c-3.29 2.996-7.14 5.35-11.56 7.062-4.42 1.569-9.27 2.354-14.55 2.354-6.56 0-12.27-1.284-17.12-3.852-4.71-2.568-8.35-6.135-10.92-10.7-2.56-4.708-3.85-10.129-3.85-16.264v-7.49c0-4.708.79-8.917 2.36-12.626 1.57-3.709 3.78-6.919 6.63-9.63 3-2.711 6.56-4.779 10.7-6.206 4.14-1.569 8.77-2.354 13.91-2.354h40.66c1.28 0 2.21 1.141 2.78 3.424.72 2.283 1.14 4.851 1.29 7.704.14 2.711.21 4.993.21 6.848h-39.59c-1.71 0-3.21.214-4.49.642a8.294 8.294 0 0 0-3 1.926c-.71.856-1.36 1.855-1.93 2.996-.42.999-.64 2.14-.64 3.424v7.49Zm168.98-77.254 7.27-9.63c.57-.856.93-1.569 1.07-2.14.15-.713.22-1.641.22-2.782v-10.058H1542.85c.72 0 1.29.214 1.72.642.42.428.64.999.64 1.712v15.836c0 1.427-.22 2.497-.64 3.21-.43.713-1.64 1.284-3.64 1.712-1.86.285-4.85.785-8.99 1.498l-10.27 1.712v7.062l-18.19-8.774Zm-20.55-7.704c10.56 0 19.48 1.498 26.75 4.494 7.28 2.996 12.77 7.347 16.48 13.054 3.85 5.564 5.78 12.269 5.78 20.116v4.708c0 7.704-1.93 14.409-5.78 20.116-3.71 5.707-9.2 10.058-16.48 13.054-7.27 2.996-16.19 4.494-26.75 4.494-10.55 0-19.47-1.498-26.75-4.494-7.27-2.996-12.84-7.347-16.69-13.054-3.71-5.707-5.56-12.412-5.56-20.116v-4.708c0-7.847 1.85-14.552 5.56-20.116 3.85-5.707 9.42-10.058 16.69-13.054 7.28-2.996 16.2-4.494 26.75-4.494Zm0 22.256c-6.7 0-11.91 1.284-15.62 3.852-3.56 2.568-5.35 6.42-5.35 11.556v4.708c0 2.14.29 4.066.86 5.778.71 1.569 1.71 2.996 2.99 4.28 1.72 1.712 4 3.067 6.85 4.066 3 .856 6.42 1.284 10.27 1.284 6.85 0 12.06-1.284 15.63-3.852 3.56-2.711 5.35-6.563 5.35-11.556v-4.708c0-2.283-.36-4.209-1.07-5.778-.57-1.712-1.57-3.281-3-4.708-1.57-1.569-3.78-2.782-6.63-3.638-2.86-.856-6.28-1.284-10.28-1.284Zm-21.18 50.076 13.48.642c-.57 4.851-1 8.703-1.28 11.556a147.69 147.69 0 0 0-.22 7.704c0 1.712.36 2.925 1.07 3.638.72.571 1.93.856 3.64.856h27.61c8.41 0 15.33 1.427 20.75 4.28 5.43 2.853 9.42 6.848 11.99 11.984 2.71 4.993 4.06 10.771 4.06 17.334v7.918c0 4.851-.71 9.273-2.14 13.268-1.42 3.995-3.71 7.419-6.84 10.272-3 2.996-6.85 5.279-11.56 6.848-4.57 1.569-9.99 2.354-16.26 2.354h-44.09c-5.56 0-10.41-.571-14.55-1.712-4.14-.999-7.63-2.568-10.49-4.708-2.71-1.997-4.78-4.565-6.2-7.704-1.43-3.139-2.14-6.705-2.14-10.7v-3.852c0-4.28.93-8.061 2.78-11.342 1.85-3.281 4.42-5.992 7.7-8.132 3.29-2.14 7.14-3.567 11.56-4.28v-7.918l15.62 9.416c-2.28.713-4.06 1.712-5.35 2.996-1.28 1.284-2.21 2.711-2.78 4.28-.57 1.712-.86 3.638-.86 5.778v6.634c0 2.425.36 4.423 1.07 5.992.86 1.569 2.07 2.711 3.64 3.424 1.71.713 4 1.07 6.85 1.07h34.03c1.28 0 2.49-.071 3.63-.214 1.15-.143 2.14-.499 3-1.07.86-.428 1.57-.856 2.14-1.284 1-.999 1.71-2.354 2.14-4.066.43-1.712.64-3.567.64-5.564v-5.778c0-3.995-.85-6.848-2.57-8.56-1.71-1.712-4.7-2.568-8.98-2.568h-38.74c-3.28 0-6.42-.856-9.41-2.568-2.86-1.712-5.21-4.066-7.07-7.062-1.85-2.996-2.78-6.349-2.78-10.058 0-4.851 1.36-9.059 4.07-12.626 2.85-3.567 7.13-6.277 12.84-8.132v-8.346ZM1615.1 484.3c9.7 0 18.12 1.997 25.25 5.992 7.28 3.995 12.92 9.559 16.91 16.692 4 7.133 5.99 15.479 5.99 25.038v17.762c0 .428-.07.856-.21 1.284-.14.285-.43.499-.86.642-.28.143-.64.214-1.07.214h-72.76l-.64-17.976h47.51v-2.996c0-4.137-.43-7.633-1.29-10.486-.85-2.996-2.21-5.35-4.06-7.062-1.57-1.712-3.57-2.925-5.99-3.638-2.43-.713-5.35-1.07-8.78-1.07-7.13 0-12.48 1.783-16.05 5.35-3.42 3.424-5.13 9.059-5.13 16.906v26.108c0 3.424.42 6.491 1.28 9.202 1 2.568 2.35 4.779 4.07 6.634 2.28 2.283 5.28 3.923 8.98 4.922 3.86.999 8.28 1.498 13.27 1.498 5.14 0 9.7-.214 13.7-.642 3.99-.571 7.7-1.284 11.13-2.14 3.42-.999 6.77-2.069 10.05-3.21h4.07v21.828c0 .285-.07.571-.21.856-.15.285-.36.571-.65.856-1.14 1.141-3.7 2.283-7.7 3.424-3.85 1.141-8.56 2.14-14.12 2.996-5.42.856-10.99 1.284-16.7 1.284-9.27 0-17.47-1.07-24.61-3.21-6.99-2.283-12.84-5.493-17.54-9.63-4.57-4.137-8.06-9.131-10.49-14.98-2.28-5.992-3.42-12.697-3.42-20.116v-24.396c0-7.276 1.14-13.839 3.42-19.688 2.43-5.849 5.85-10.843 10.27-14.98 4.43-4.28 9.7-7.561 15.84-9.844 6.13-2.283 12.98-3.424 20.54-3.424ZM261.815 599.646v-86.884H246.835c-.713 0-1.284-.214-1.712-.642-.428-.428-.642-.999-.642-1.712v-23.54h43.87c.571 0 .999.143 1.284.428.286.143.5.357.642.642.286.285.428.713.428 1.284V602h-26.536c-.713 0-1.284-.214-1.712-.642-.428-.428-.642-.999-.642-1.712Zm-5.136-167.562h34.882c.714 0 1.284.214 1.712.642.428.428.642.999.642 1.712v27.606H259.033c-.713 0-1.284-.214-1.712-.642-.428-.428-.642-.999-.642-1.712v-27.606ZM475.946 602H447.484a4.03 4.03 0 0 1-1.284-.214l-.856-.856c-.143-.285-.214-.713-.214-1.284v-76.184c0-3.852-.714-6.563-2.14-8.132-1.427-1.569-3.638-2.354-6.634-2.354-2.711 0-5.35.785-7.918 2.354-2.568 1.427-5.065 3.638-7.49 6.634-2.426 2.996-4.708 6.777-6.848 11.342l-4.28-29.96h10.914c2.282-4.28 4.708-7.775 7.276-10.486 2.71-2.853 5.849-4.993 9.416-6.42 3.566-1.427 7.561-2.14 11.984-2.14 3.424 0 6.705.642 9.844 1.926 3.281 1.141 6.134 2.996 8.56 5.564 2.568 2.425 4.565 5.493 5.992 9.202 1.426 3.567 2.14 7.847 2.14 12.84V602Zm-59.278 0h-28.462a4.03 4.03 0 0 1-1.284-.214l-.856-.856c-.143-.285-.214-.713-.214-1.284v-76.398c0-2.568-.286-4.637-.856-6.206-.571-1.569-1.427-2.639-2.568-3.21-1.142-.571-2.497-.856-4.066-.856-2.711 0-5.422.785-8.132 2.354-2.711 1.427-5.422 3.709-8.132 6.848-2.568 2.996-5.136 6.848-7.704 11.556l-5.35-30.388h10.486c2.568-3.995 5.35-7.419 8.346-10.272 2.996-2.853 6.277-4.993 9.844-6.42 3.566-1.569 7.276-2.354 11.128-2.354 3.852 0 7.418.571 10.7 1.712 3.424 1.141 6.42 2.853 8.988 5.136 2.568 2.283 4.565 5.207 5.992 8.774 1.426 3.567 2.14 7.775 2.14 12.626V602Zm-59.278 0H327.858l-.856-.428-.428-.856V486.868H349.9l1.07 3.852c.856 2.425 1.712 5.279 2.568 8.56a383.91 383.91 0 0 1 2.568 8.774l1.284 3.852V602Zm243.876-72.974V570.328c0 1.141.071 2.14.214 2.996.285.856.713 1.569 1.284 2.14.428.428.999.785 1.712 1.07.856.143 1.783.214 2.782.214h6.42v22.898c0 .713-.214 1.284-.642 1.712-.428.428-.999.642-1.712.642h-12.626c-3.995 0-7.561-.642-10.7-1.926a26.942 26.942 0 0 1-8.346-5.35c-2.425-2.425-4.28-5.279-5.564-8.56-1.284-3.281-1.926-6.991-1.926-11.128V527.528c0-4.137-.713-7.347-2.14-9.63-1.427-2.425-3.781-4.137-7.062-5.136-3.139-.999-7.419-1.498-12.84-1.498-3.995 0-7.918.214-11.77.642-3.709.428-7.419.999-11.128 1.712-3.567.713-7.205 1.712-10.914 2.996h-4.066v-22.898c0-.571.071-.999.214-1.284.143-.285.285-.499.428-.642.856-.856 3.21-1.855 7.062-2.996 3.995-1.141 8.703-2.069 14.124-2.782a102.787 102.787 0 0 1 16.05-1.284c8.988 0 16.692.856 23.112 2.568 6.42 1.569 11.699 4.137 15.836 7.704 4.137 3.567 7.205 8.203 9.202 13.91 1.997 5.564 2.996 12.269 2.996 20.116Zm-68.48 40.446c0 2.996.785 5.279 2.354 6.848 1.712 1.427 4.28 2.14 7.704 2.14 3.852 0 7.633-.428 11.342-1.284 3.709-.856 7.347-2.283 10.914-4.28 3.709-1.997 7.419-4.565 11.128-7.704v18.404h-6.42a32.415 32.415 0 0 1-7.918 11.128c-3.281 2.996-7.133 5.35-11.556 7.062-4.423 1.569-9.273 2.354-14.552 2.354-6.563 0-12.269-1.284-17.12-3.852-4.708-2.568-8.346-6.135-10.914-10.7-2.568-4.708-3.852-10.129-3.852-16.264v-7.49c0-4.708.785-8.917 2.354-12.626 1.569-3.709 3.781-6.919 6.634-9.63 2.996-2.711 6.563-4.779 10.7-6.206 4.137-1.569 8.774-2.354 13.91-2.354h40.66c1.284 0 2.211 1.141 2.782 3.424.713 2.283 1.141 4.851 1.284 7.704.143 2.711.214 4.993.214 6.848h-39.59c-1.712 0-3.21.214-4.494.642a8.32 8.32 0 0 0-2.996 1.926c-.713.856-1.355 1.855-1.926 2.996-.428.999-.642 2.14-.642 3.424v7.49Zm106.967 16.05c0-3.281.57-6.206 1.712-8.774 1.141-2.711 2.924-5.065 5.35-7.062 2.568-1.997 5.778-3.567 9.63-4.708v-6.848l13.482 5.136a91.823 91.823 0 0 0-1.07 6.634c-.143 2.14-.214 4.423-.214 6.848 0 1.712.356 2.925 1.07 3.638.713.571 1.926.856 3.638.856h27.606c8.417 0 15.336 1.427 20.758 4.28 5.421 2.853 9.416 6.848 11.984 11.984 2.71 4.993 4.066 10.771 4.066 17.334v7.918c0 4.851-.785 9.273-2.354 13.268a25.082 25.082 0 0 1-6.848 10.272c-3.139 2.996-7.062 5.279-11.77 6.848-4.566 1.569-9.987 2.354-16.264 2.354h-43.656c-7.419 0-13.625-.999-18.618-2.996-4.851-1.855-8.56-4.637-11.128-8.346-2.426-3.567-3.638-8.061-3.638-13.482v-3.852c0-4.28.856-8.061 2.568-11.342 1.854-3.281 4.422-5.992 7.704-8.132 3.281-2.14 7.133-3.567 11.556-4.28v-8.132l15.836 9.63c-2.426.713-4.28 1.712-5.564 2.996a16.962 16.962 0 0 0-2.782 4.28c-.571 1.712-.856 3.638-.856 5.778v6.634c0 2.425.356 4.423 1.07 5.992.856 1.569 2.14 2.711 3.852 3.424 1.712.713 3.994 1.07 6.848 1.07h33.812c2.14 0 3.923-.285 5.35-.856 1.426-.428 2.568-1.07 3.424-1.926.998-.999 1.712-2.354 2.14-4.066.428-1.569.642-3.353.642-5.35v-5.778c0-3.995-.856-6.848-2.568-8.56-1.712-1.712-4.708-2.568-8.988-2.568h-38.52c-3.282 0-6.42-.927-9.416-2.782-2.854-1.712-5.208-4.137-7.062-7.276-1.855-3.139-2.782-6.491-2.782-10.058Zm51.146-77.468 20.116-1.498v5.778c4.993 1.712 8.631 4.066 10.914 7.062 2.282 2.996 3.424 6.919 3.424 11.77v3.21c0 6.277-1.784 11.627-5.35 16.05-3.424 4.423-8.703 7.918-15.836 10.486-6.991 2.425-15.765 3.638-26.322 3.638-10.558 0-19.546-1.427-26.964-4.28-7.276-2.996-12.769-7.276-16.478-12.84-3.71-5.564-5.564-12.198-5.564-19.902v-4.708c0-7.847 1.854-14.552 5.564-20.116 3.709-5.707 9.202-10.058 16.478-13.054 7.418-3.139 16.406-4.708 26.964-4.708h58.208v21.828c0 .571-.214 1.141-.642 1.712-.428.428-.999.642-1.712.642h-55.854c-6.848 0-12.056 1.213-15.622 3.638-3.567 2.425-5.35 6.206-5.35 11.342v3.638c0 2.14.285 3.923.856 5.35a18.682 18.682 0 0 0 2.782 4.066c1.712 1.712 3.994 2.996 6.848 3.852 2.853.856 6.348 1.284 10.486 1.284 6.848 0 11.841-1.213 14.98-3.638 3.138-2.568 4.708-6.42 4.708-11.556v-4.494c0-1.997-.214-3.781-.642-5.35a14.118 14.118 0 0 0-2.14-4.708c-.856-1.427-2.14-2.925-3.852-4.494ZM804.818 484.3c9.702 0 18.119 1.997 25.252 5.992 7.276 3.995 12.912 9.559 16.906 16.692 3.995 7.133 5.992 15.479 5.992 25.038v17.762c0 .428-.071.856-.214 1.284-.142.285-.428.499-.856.642-.285.143-.642.214-1.07.214h-72.76l-.642-17.976h47.508v-2.996c0-4.137-.428-7.633-1.284-10.486-.856-2.996-2.211-5.35-4.066-7.062-1.569-1.712-3.566-2.925-5.992-3.638-2.425-.713-5.35-1.07-8.774-1.07-7.133 0-12.483 1.783-16.05 5.35-3.424 3.424-5.136 9.059-5.136 16.906v26.108c0 3.424.428 6.491 1.284 9.202.999 2.568 2.354 4.779 4.066 6.634 2.283 2.283 5.279 3.923 8.988 4.922 3.852.999 8.275 1.498 13.268 1.498 5.136 0 9.702-.214 13.696-.642 3.995-.571 7.704-1.284 11.128-2.14a207.883 207.883 0 0 0 10.058-3.21h4.066v21.828c0 .285-.071.571-.214.856a3.322 3.322 0 0 1-.642.856c-1.141 1.141-3.709 2.283-7.704 3.424-3.852 1.141-8.56 2.14-14.124 2.996-5.421.856-10.985 1.284-16.692 1.284-9.273 0-17.476-1.07-24.61-3.21-6.99-2.283-12.84-5.493-17.548-9.63-4.565-4.137-8.06-9.131-10.486-14.98-2.282-5.992-3.424-12.697-3.424-20.116v-24.396c0-7.276 1.142-13.839 3.424-19.688 2.426-5.849 5.85-10.843 10.272-14.98 4.423-4.28 9.702-7.561 15.836-9.844 6.135-2.283 12.983-3.424 20.544-3.424Z" fill="#3C4043"/></svg>