<svg width="1920" height="1080" fill="none" xmlns="http://www.w3.org/2000/svg"><rect x="1459" y="813" width="218" height="50" rx="25" fill="#D2E3FC"/><rect x="1458" y="813" width="218" height="50" rx="25" fill="#1A73E8"/><rect x="851" y="813" width="218" height="50" rx="25" fill="#D2E3FC"/><rect x="851" y="813" width="122" height="50" rx="25" fill="#1A73E8"/><rect x="244" y="813" width="218" height="50" rx="25" fill="#D2E3FC"/><rect x="244" y="813" width="50" height="50" rx="25" fill="#1A73E8"/><path fill="#FF6D7F" d="M1280 407h590v32h-590z"/><path fill="#FF6D7F" d="M50 431h1820v10H50z"/><path fill="#FF6D7F" d="M50 437h590v47H50z"/><path d="M90 413.146h31.178v100.837c5.899-7.583 13.763-13.482 23.032-17.976s19.662-6.741 30.617-6.741c16.572 0 29.773 5.056 40.166 14.886 10.392 9.831 15.448 26.684 15.448 49.998v111.51h-31.178V553.869c0-13.764-3.089-23.594-8.988-29.493-5.898-5.899-14.606-8.707-26.122-8.707-9.55 0-18.257 2.528-25.56 7.864-7.303 5.337-13.202 12.078-17.415 20.224V665.66H90V413.146ZM341.666 520.162l-60.671 25.56v-31.178l87.355-32.863h5.898v184.54h-32.301V520.162h-.281ZM461.044 564.549c0-24.437 6.741-44.099 20.504-58.986 13.764-14.886 32.583-22.47 56.739-22.47s42.975 7.584 56.738 22.47c13.763 14.887 20.785 34.549 20.785 58.986v24.717c0 24.437-7.022 44.099-20.785 58.986s-32.582 22.47-56.738 22.47-43.256-7.583-56.739-22.47c-13.482-14.887-20.504-34.549-20.504-58.986v-24.717Zm43.818 64.603c7.303 10.111 18.538 14.887 33.706 14.887 15.167 0 26.403-5.056 33.705-14.887 7.303-9.831 10.955-22.752 10.955-37.919v-28.089c0-15.448-3.652-28.088-10.955-37.919-7.302-9.831-18.538-14.887-33.705-14.887-15.168 0-26.403 5.056-33.706 14.887-7.303 9.831-10.955 22.752-10.955 37.919v28.089c0 15.448 3.652 28.088 10.955 37.919ZM698 413.146h31.178v100.837c6.179-7.303 13.763-13.201 23.313-17.695 9.55-4.494 19.662-6.741 30.617-6.741 16.572 0 29.773 5.055 40.166 14.886 10.392 9.831 15.448 26.684 15.448 49.997v111.511h-31.178V554.15c0-13.764-3.089-23.595-9.269-29.493-6.179-5.899-14.887-8.707-26.122-8.707-9.55 0-18.257 2.527-25.56 7.864-7.303 5.337-13.202 12.078-17.415 20.224v121.903H698V413.146ZM949.391 474.374l-60.67 25.279v-31.178l87.354-32.863h5.618v230.324h-32.302V474.374ZM1069.04 515.943c0-24.437 6.75-44.098 20.51-58.985 13.76-14.887 32.58-22.471 56.74-22.471 24.15 0 42.97 7.584 56.73 22.471 13.77 14.887 20.79 34.548 20.79 58.985v73.592c0 24.436-7.02 44.098-20.79 58.985-13.76 14.887-32.58 22.47-56.73 22.47-24.16 0-43.26-7.583-56.74-22.47-13.48-14.887-20.51-34.549-20.51-58.985v-73.592Zm43.54 113.477c7.3 10.112 18.54 14.887 33.71 14.887 15.16 0 26.4-5.056 33.7-14.887 7.31-9.831 10.96-22.752 10.96-37.919v-77.243c0-15.449-3.65-28.088-10.96-37.919-7.3-9.831-18.54-14.887-33.7-14.887-15.17 0-26.41 5.056-33.71 14.887-7.3 9.831-10.95 22.751-10.95 37.919v76.962c0 15.448 3.65 28.088 10.95 37.919v.281ZM1304 413.146h30.62v101.118c6.18-7.584 14.04-13.482 23.31-17.976s19.66-6.741 30.9-6.741c16.29 0 29.49 5.055 39.88 14.886 10.39 9.831 15.45 26.403 15.45 49.717v111.791h-30.62V553.869c0-13.764-3.09-23.594-9.26-29.774-6.18-6.179-14.89-8.988-26.41-8.988-9.83 0-18.26 2.528-25.84 7.865-7.58 5.336-13.2 12.078-17.41 20.504v122.465H1304V413.146ZM1555.94 444.606l-60.67 25.56V439.55l87.35-32.863h5.06v259.255h-31.46V444.606h-.28ZM1675.32 485.613c0-24.156 6.74-43.536 20.5-58.423 13.77-14.887 32.59-22.19 56.74-22.19 24.16 0 42.7 7.303 56.46 22.19 13.76 14.887 20.5 34.267 20.5 58.423v104.77c0 24.155-6.74 43.536-20.5 58.423s-32.58 22.19-56.46 22.19c-23.87 0-42.97-7.303-56.74-22.19-13.76-14.887-20.5-34.268-20.5-58.423v-104.77Zm42.97 144.374c7.31 10.112 18.82 14.887 33.99 14.887 15.17 0 26.69-5.056 33.99-14.887 7.3-9.831 10.95-22.752 10.95-37.919V484.209c0-15.449-3.65-28.088-10.95-37.919-7.3-9.831-18.82-14.887-33.99-14.887-15.17 0-26.68 5.056-33.99 14.887-7.3 9.831-10.95 22.751-10.95 37.919v107.578c0 15.448 3.65 28.088 10.95 37.919v.281Z" fill="#3C4043"/></svg>