<svg width="1920" height="1080" viewBox="0 0 1920 1080" fill="none" xmlns="http://www.w3.org/2000/svg">
<rect x="1216" y="813" width="218" height="50" rx="25" fill="#D2E3FC"/>
<rect x="1215" y="813" width="197" height="50" rx="25" fill="#1A73E8"/>
<rect x="486" y="813" width="218" height="50" rx="25" fill="#D2E3FC"/>
<rect x="486" y="813" width="50" height="50" rx="25" fill="#1A73E8"/>
<path d="M1050.22 630V432H1094.22V457.2C1102.48 446.133 1112.08 438.2 1123.02 433.4C1133.95 428.467 1145.28 426 1157.02 426C1175.15 426 1190.15 429.6 1202.02 436.8C1213.88 444 1222.68 453.267 1228.42 464.6C1234.28 475.933 1237.22 487.6 1237.22 499.6V630H1193.22V513.2C1193.22 499.067 1188.95 487.733 1180.42 479.2C1172.02 470.667 1160.28 466.4 1145.22 466.4C1135.35 466.4 1126.55 468.6 1118.82 473C1111.22 477.4 1105.22 483.533 1100.82 491.4C1096.42 499.133 1094.22 508.2 1094.22 518.6V630H1050.22ZM1296.31 630V432H1340.31V630H1296.31ZM1318.31 396.6C1310.44 396.6 1303.64 394.067 1297.91 389C1292.18 383.933 1289.31 377.267 1289.31 369C1289.31 360.867 1292.18 354.267 1297.91 349.2C1303.64 344 1310.44 341.4 1318.31 341.4C1326.18 341.4 1332.98 344 1338.71 349.2C1344.44 354.267 1347.31 360.867 1347.31 369C1347.31 377.267 1344.44 383.933 1338.71 389C1332.98 394.067 1326.18 396.6 1318.31 396.6ZM1516.59 636C1503.39 636 1491.46 634.067 1480.79 630.2C1470.26 626.333 1461.12 621 1453.39 614.2C1445.66 607.267 1439.39 599.333 1434.59 590.4L1440.99 580.6V630H1401.39V342H1445.19V477.6L1436.19 467.8C1444.99 455 1455.99 444.867 1469.19 437.4C1482.39 429.8 1497.99 426 1515.99 426C1535.72 426 1553.06 430.733 1567.99 440.2C1583.06 449.533 1594.79 462.133 1603.19 478C1611.59 493.867 1615.79 511.533 1615.79 531C1615.79 546.067 1613.32 560 1608.39 572.8C1603.59 585.6 1596.79 596.733 1587.99 606.2C1579.19 615.533 1568.72 622.867 1556.59 628.2C1544.46 633.4 1531.12 636 1516.59 636ZM1508.59 597C1520.72 597 1531.52 594.333 1540.99 589C1550.59 583.533 1558.12 575.867 1563.59 566C1569.06 556.133 1571.79 544.467 1571.79 531C1571.79 517.533 1569.06 505.867 1563.59 496C1558.26 486 1550.79 478.333 1541.19 473C1531.72 467.667 1520.86 465 1508.59 465C1496.32 465 1485.39 467.667 1475.79 473C1466.32 478.333 1458.86 486 1453.39 496C1447.92 505.867 1445.19 517.533 1445.19 531C1445.19 544.467 1447.92 556.133 1453.39 566C1458.86 575.867 1466.32 583.533 1475.79 589C1485.39 594.333 1496.32 597 1508.59 597Z" fill="#D2E3FC"/>
<path d="M321.217 630V432H365.217V457.2C373.484 446.133 383.084 438.2 394.017 433.4C404.951 428.467 416.284 426 428.017 426C446.151 426 461.151 429.6 473.017 436.8C484.884 444 493.684 453.267 499.417 464.6C505.284 475.933 508.217 487.6 508.217 499.6V630H464.217V513.2C464.217 499.067 459.951 487.733 451.417 479.2C443.017 470.667 431.284 466.4 416.217 466.4C406.351 466.4 397.551 468.6 389.817 473C382.217 477.4 376.217 483.533 371.817 491.4C367.417 499.133 365.217 508.2 365.217 518.6V630H321.217ZM567.311 630V432H611.311V630H567.311ZM589.311 396.6C581.444 396.6 574.644 394.067 568.911 389C563.178 383.933 560.311 377.267 560.311 369C560.311 360.867 563.178 354.267 568.911 349.2C574.644 344 581.444 341.4 589.311 341.4C597.178 341.4 603.978 344 609.711 349.2C615.444 354.267 618.311 360.867 618.311 369C618.311 377.267 615.444 383.933 609.711 389C603.978 394.067 597.178 396.6 589.311 396.6ZM787.589 636C774.389 636 762.456 634.067 751.789 630.2C741.256 626.333 732.122 621 724.389 614.2C716.656 607.267 710.389 599.333 705.589 590.4L711.989 580.6V630H672.389V342H716.189V477.6L707.189 467.8C715.989 455 726.989 444.867 740.189 437.4C753.389 429.8 768.989 426 786.989 426C806.722 426 824.056 430.733 838.989 440.2C854.056 449.533 865.789 462.133 874.189 478C882.589 493.867 886.789 511.533 886.789 531C886.789 546.067 884.322 560 879.389 572.8C874.589 585.6 867.789 596.733 858.989 606.2C850.189 615.533 839.722 622.867 827.589 628.2C815.456 633.4 802.122 636 787.589 636ZM779.589 597C791.722 597 802.522 594.333 811.989 589C821.589 583.533 829.122 575.867 834.589 566C840.056 556.133 842.789 544.467 842.789 531C842.789 517.533 840.056 505.867 834.589 496C829.256 486 821.789 478.333 812.189 473C802.722 467.667 791.856 465 779.589 465C767.322 465 756.389 467.667 746.789 473C737.322 478.333 729.856 486 724.389 496C718.922 505.867 716.189 517.533 716.189 531C716.189 544.467 718.922 556.133 724.389 566C729.856 575.867 737.322 583.533 746.789 589C756.389 594.333 767.322 597 779.589 597Z" fill="#3C4043"/>
<path d="M1050.72 630V454L1094.72 422.4V457.2C1102.98 446.133 1112.58 438.2 1123.52 433.4C1134.45 428.467 1145.78 426 1157.52 426C1175.65 426 1190.65 429.6 1202.52 436.8C1214.38 444 1223.18 453.267 1228.92 464.6C1234.78 475.933 1237.72 487.6 1237.72 499.6V630H1193.72V513.2C1193.72 499.067 1189.45 487.733 1180.92 479.2C1172.52 470.667 1160.78 466.4 1145.72 466.4C1135.85 466.4 1127.05 468.6 1119.32 473C1111.72 477.4 1105.72 483.533 1101.32 491.4C1096.92 499.133 1094.72 508.2 1094.72 518.6V630H1050.72ZM1296.81 630V454.2L1340.81 422.4V630H1296.81ZM1318.81 396.6C1310.94 396.6 1304.14 394.067 1298.41 389C1292.68 383.933 1289.81 377.267 1289.81 369C1289.81 360.867 1292.68 354.267 1298.41 349.2C1304.14 344 1310.94 341.4 1318.81 341.4C1326.68 341.4 1333.48 344 1339.21 349.2C1344.94 354.267 1347.81 360.867 1347.81 369C1347.81 377.267 1344.94 383.933 1339.21 389C1333.48 394.067 1326.68 396.6 1318.81 396.6ZM1517.09 636C1503.89 636 1491.96 634.067 1481.29 630.2C1470.76 626.333 1461.62 621 1453.89 614.2C1446.16 607.267 1439.89 599.333 1435.09 590.4L1450.89 578V601.6L1401.89 639.4V354.4L1445.69 334V477.6L1436.69 467.8C1445.49 455 1456.49 444.867 1469.69 437.4C1482.89 429.8 1498.49 426 1516.49 426C1536.22 426 1553.56 430.733 1568.49 440.2C1583.56 449.533 1595.29 462.133 1603.69 478C1612.09 493.867 1616.29 511.533 1616.29 531C1616.29 546.067 1613.82 560 1608.89 572.8C1604.09 585.6 1597.29 596.733 1588.49 606.2C1579.69 615.533 1569.22 622.867 1557.09 628.2C1544.96 633.4 1531.62 636 1517.09 636ZM1509.09 597C1521.22 597 1532.02 594.333 1541.49 589C1551.09 583.533 1558.62 575.867 1564.09 566C1569.56 556.133 1572.29 544.467 1572.29 531C1572.29 517.533 1569.56 505.867 1564.09 496C1558.76 486 1551.29 478.333 1541.69 473C1532.22 467.667 1521.36 465 1509.09 465C1496.82 465 1485.89 467.667 1476.29 473C1466.82 478.333 1459.36 486 1453.89 496C1448.42 505.867 1445.69 517.533 1445.69 531C1445.69 544.467 1448.42 556.133 1453.89 566C1459.36 575.867 1466.82 583.533 1476.29 589C1485.89 594.333 1496.82 597 1509.09 597Z" fill="#3C4043"/>
</svg>
