<svg width="1920" height="1080" fill="none" xmlns="http://www.w3.org/2000/svg"><path d="M323.422 477.299 289.133 574h-14.889l-34.289-96.701h15.19l26.619 79.406 26.619-79.406h15.039Zm56.697 56.396c.1-.702.151-1.704.151-3.007 0-4.913-1.404-8.924-4.211-12.032-2.707-3.208-7.069-4.812-13.084-4.812-9.826 0-15.791 6.617-17.897 19.851h35.041Zm12.783 18.95c-1.103 6.416-4.16 11.88-9.173 16.392-4.913 4.512-11.931 6.768-21.055 6.768-5.314 0-10.026-1.103-14.137-3.309-4.01-2.206-7.169-5.063-9.475-8.572-2.305-3.61-4.01-7.369-5.113-11.279a44.111 44.111 0 0 1-1.654-12.032c0-4.411.551-8.572 1.654-12.482a39.505 39.505 0 0 1 5.113-11.279c2.306-3.51 5.565-6.267 9.776-8.272 4.211-2.105 9.124-3.158 14.738-3.158 5.013 0 9.375.752 13.084 2.256 3.81 1.504 6.718 3.358 8.723 5.564 2.105 2.106 3.76 4.662 4.963 7.67 1.303 2.908 2.105 5.565 2.406 7.971.401 2.306.602 4.712.602 7.219 0 2.306-.151 4.411-.452 6.316h-47.824c0 7.419 1.454 13.385 4.361 17.896 2.908 4.512 7.42 6.768 13.536 6.768 5.514 0 9.574-1.454 12.181-4.361 2.707-2.908 4.362-6.267 4.963-10.076h12.783ZM421.477 574h-12.182v-96.701h12.182V574Zm73.39 0h-16.092l-26.619-35.643V574h-12.181v-96.701h12.181v57.75l25.567-27.973h15.039l-26.77 29.026L494.867 574Zm57.449-14.889c3.51-5.313 5.264-11.479 5.264-18.498 0-7.018-1.754-13.234-5.264-18.648-3.509-5.414-8.522-8.121-15.039-8.121-6.717 0-11.83 2.707-15.339 8.121-3.51 5.314-5.264 11.53-5.264 18.648 0 7.119 1.754 13.335 5.264 18.649 3.509 5.213 8.622 7.82 15.339 7.82 6.517 0 11.53-2.657 15.039-7.971Zm17.897-18.498c0 11.43-3.108 20.153-9.324 26.168-6.216 6.016-14.087 9.024-23.612 9.024-9.725 0-17.645-3.008-23.761-9.024-6.116-6.015-9.174-14.738-9.174-26.168 0-11.53 3.058-20.252 9.174-26.168 6.116-6.015 14.036-9.023 23.761-9.023 9.625 0 17.496 3.008 23.612 9.023 6.216 5.916 9.324 14.638 9.324 26.168ZM687.367 574h-12.181v-43.312c0-5.214-1.254-9.325-3.76-12.333-2.507-3.007-6.266-4.511-11.28-4.511-4.611 0-8.622 1.855-12.031 5.564-3.409 3.61-5.113 7.369-5.113 11.28V574H630.82v-43.312c0-4.512-1.403-8.422-4.211-11.731-2.707-3.409-6.216-5.113-10.527-5.113-4.913 0-9.174 1.855-12.783 5.564-3.509 3.71-5.264 7.47-5.264 11.28V574h-12.181v-66.924h12.181v9.174c5.414-7.219 12.031-10.828 19.852-10.828 6.116 0 10.778.902 13.986 2.707 3.309 1.805 6.266 4.812 8.873 9.023 5.715-7.82 12.934-11.73 21.656-11.73 16.644 0 24.965 8.422 24.965 25.266V574Zm120.012 0h-12.182v-43.312c0-5.214-1.253-9.325-3.759-12.333-2.507-3.007-6.267-4.511-11.28-4.511-4.612 0-8.622 1.855-12.031 5.564-3.409 3.61-5.113 7.369-5.113 11.28V574h-12.182v-43.312c0-4.512-1.404-8.422-4.211-11.731-2.707-3.409-6.216-5.113-10.527-5.113-4.913 0-9.174 1.855-12.783 5.564-3.51 3.71-5.264 7.47-5.264 11.28V574h-12.182v-66.924h12.182v9.174c5.414-7.219 12.031-10.828 19.851-10.828 6.116 0 10.778.902 13.987 2.707 3.308 1.805 6.266 4.812 8.873 9.023 5.715-7.82 12.933-11.73 21.656-11.73 16.643 0 24.965 8.422 24.965 25.266V574Zm63.916-40.305c.1-.702.15-1.704.15-3.007 0-4.913-1.403-8.924-4.211-12.032-2.707-3.208-7.068-4.812-13.084-4.812-9.825 0-15.791 6.617-17.896 19.851h35.041Zm12.783 18.95c-1.103 6.416-4.161 11.88-9.174 16.392-4.912 4.512-11.931 6.768-21.054 6.768-5.314 0-10.026-1.103-14.137-3.309-4.011-2.206-7.169-5.063-9.475-8.572-2.306-3.61-4.01-7.369-5.113-11.279a44.111 44.111 0 0 1-1.654-12.032c0-4.411.551-8.572 1.654-12.482a39.478 39.478 0 0 1 5.113-11.279c2.306-3.51 5.565-6.267 9.776-8.272 4.211-2.105 9.123-3.158 14.738-3.158 5.013 0 9.374.752 13.084 2.256 3.81 1.504 6.717 3.358 8.723 5.564 2.105 2.106 3.759 4.662 4.962 7.67 1.304 2.908 2.106 5.565 2.407 7.971.401 2.306.601 4.712.601 7.219 0 2.306-.15 4.411-.451 6.316h-47.824c0 7.419 1.454 13.385 4.361 17.896 2.908 4.512 7.42 6.768 13.535 6.768 5.515 0 9.575-1.454 12.182-4.361 2.707-2.908 4.361-6.267 4.963-10.076h12.783ZM958.672 574h-11.881v-44.365c0-4.512-1.654-8.322-4.963-11.43-3.208-3.208-7.068-4.812-11.58-4.812-4.812 0-8.973 1.654-12.482 4.962-3.409 3.309-5.114 7.42-5.114 12.333V574h-12.181v-66.924h12.181v8.572c4.813-6.817 11.58-10.226 20.303-10.226 17.145 0 25.717 8.221 25.717 24.664V574Zm109.188 0c-3.51 1.203-6.82 1.805-9.93 1.805-6.22 0-10.63-1.404-13.23-4.211-2.51-2.808-3.76-7.871-3.76-15.19v-40.756h-12.19v-8.572h12.19v-13.385l12.18-4.962v18.347h14.74v8.572h-14.74v40.756c0 4.011.55 6.718 1.65 8.121 1.2 1.404 3.06 2.106 5.57 2.106 2.6 0 5.11-.401 7.52-1.203V574Zm25.41 0h-12.18v-66.924h12.18V574Zm.45-84.369h-13.08v-12.332h13.08v12.332ZM1123.95 574h-12.18v-96.701h12.18V574Zm145.58-84.971h-31.58V574h-13.54v-84.971h-31.58v-11.73h76.7v11.73Zm48.73 28.875c-16.45 0-24.67 6.216-24.67 18.649V574h-12.18v-66.924h12.18v9.174c1.91-3.309 4.46-5.665 7.67-7.068 3.31-1.404 8.98-2.106 17-2.106v10.828Zm57.14 41.207c3.51-5.313 5.27-11.479 5.27-18.498 0-7.018-1.76-13.234-5.27-18.648-3.5-5.414-8.52-8.121-15.03-8.121-6.72 0-11.84 2.707-15.34 8.121-3.51 5.314-5.27 11.53-5.27 18.648 0 7.119 1.76 13.335 5.27 18.649 3.5 5.213 8.62 7.82 15.34 7.82 6.51 0 11.53-2.657 15.03-7.971Zm17.9-18.498c0 11.43-3.11 20.153-9.32 26.168-6.22 6.016-14.09 9.024-23.61 9.024-9.73 0-17.65-3.008-23.77-9.024-6.11-6.015-9.17-14.738-9.17-26.168 0-11.53 3.06-20.252 9.17-26.168 6.12-6.015 14.04-9.023 23.77-9.023 9.62 0 17.49 3.008 23.61 9.023 6.21 5.916 9.32 14.638 9.32 26.168ZM1510.46 574h-12.19v-43.312c0-5.214-1.25-9.325-3.76-12.333-2.5-3.007-6.26-4.511-11.28-4.511-4.61 0-8.62 1.855-12.03 5.564-3.41 3.61-5.11 7.369-5.11 11.28V574h-12.18v-43.312c0-4.512-1.41-8.422-4.21-11.731-2.71-3.409-6.22-5.113-10.53-5.113-4.91 0-9.17 1.855-12.78 5.564-3.51 3.71-5.27 7.47-5.27 11.28V574h-12.18v-66.924h12.18v9.174c5.42-7.219 12.03-10.828 19.85-10.828 6.12 0 10.78.902 13.99 2.707 3.31 1.805 6.27 4.812 8.87 9.023 5.72-7.82 12.94-11.73 21.66-11.73 16.64 0 24.97 8.422 24.97 25.266V574Zm69.93-19.551c0 7.52-2.81 12.984-8.43 16.393-5.61 3.308-12.58 4.963-20.9 4.963-7.32 0-13.23-1.705-17.75-5.114-4.51-3.408-6.76-8.772-6.76-16.091h12.18c.1 8.321 4.76 12.482 13.98 12.482 4.02 0 7.57-1.003 10.68-3.008 3.11-2.105 4.66-5.013 4.66-8.722 0-3.109-1.4-5.414-4.21-6.918-2.7-1.605-6.01-2.707-9.92-3.309-3.91-.702-7.82-1.554-11.73-2.557-3.91-1.002-7.27-3.058-10.08-6.166-2.71-3.108-4.06-7.319-4.06-12.632 0-5.114 1.96-9.425 5.87-12.934 4.01-3.609 10.42-5.414 19.25-5.414 8.02 0 14.23 1.404 18.64 4.211 4.42 2.807 6.62 7.971 6.62 15.49h-12.18c0-7.519-4.46-11.279-13.38-11.279-3.51 0-6.52.952-9.03 2.857-2.4 1.805-3.61 4.161-3.61 7.069 0 3.108 1.36 5.514 4.06 7.218 2.81 1.604 6.17 2.757 10.08 3.459 4.01.702 7.97 1.554 11.88 2.557 3.91 1.003 7.22 2.958 9.93 5.865 2.8 2.807 4.21 6.667 4.21 11.58Z" fill="#3C4043"/><path d="M1672.01 532.574c0 13.655-3.49 24.229-10.47 31.724-6.88 7.495-16.23 11.242-28.03 11.242-7.5 0-14.12-1.694-19.87-5.082l-6.16 8.624-8.93-6.006 6.93-9.548c-3.18-3.696-5.65-8.111-7.39-13.244-1.64-5.236-2.47-11.139-2.47-17.71 0-13.655 3.44-24.178 10.32-31.57 6.88-7.392 16.22-11.088 28.03-11.088 7.49 0 14.22 1.848 20.17 5.544l6.01-8.624 9.09 5.852-6.93 9.702c2.97 3.593 5.33 7.957 7.08 13.09 1.75 5.031 2.62 10.729 2.62 17.094Zm-62.37 0c0 3.901.25 7.546.77 10.934.61 3.285 1.59 6.211 2.92 8.778l33.88-47.124c-3.69-2.567-8.21-3.85-13.55-3.85-8.42 0-14.53 2.772-18.32 8.316-3.8 5.544-5.7 13.193-5.7 22.946Zm48.35 0c0-7.597-1.18-13.911-3.54-18.942l-33.88 47.124c3.49 2.361 7.91 3.542 13.25 3.542 8.31 0 14.42-2.823 18.32-8.47 3.9-5.749 5.85-13.501 5.85-23.254Z" fill="#FF6D7F"/></svg>