<svg width="1920" height="1080" fill="none" xmlns="http://www.w3.org/2000/svg"><path fill="#D2E3FC" d="M451 50v980H242V50zM811 50v980H523V50zM1231 50v980H883V50zM1675 50v980h-372V50z"/><path d="M924.468 407.219V747h-41.03V332h33.759l272.673 346.006V332.519h41.03V747h-37.91L924.468 407.219Z" fill="#3C4043"/><path d="M1344.12 402.55V747h-41.03V332h33.76l297.61 348.6V332.519h41.03V747h-37.92l-293.45-344.45Z" fill="#1A73E8"/><path d="M564.023 419.669V747h-41.031V332h33.76l213.464 334.594V332.519h41.03V747h-37.914L564.023 419.669Z" fill="#3C4043"/><path d="M283.027 449.756V747h-41.031V332h33.76l133.999 306.581V332.519h41.031V747h-37.915L283.027 449.756Z" fill="#1A73E8"/></svg>