<svg width="1920" height="1080" fill="none" xmlns="http://www.w3.org/2000/svg"><path fill="#D2E3FC" d="M50 289h1820v574H50z"/><path d="M318.002 833.266a4 4 0 0 1 4-4h23.677c2.21 0 4 1.79 4 4v24.733a4 4 0 0 1-4 4h-7.677c-11.046 0-20-8.954-20-20v-8.733ZM619.994 833.266a4 4 0 0 1 4-4h24.734a4 4 0 0 1 4 4v24.733a4 4 0 0 1-4 4h-8.734c-11.046 0-20-8.954-20-20v-8.733Z" fill="#1A73E8"/><rect x="318.002" y="681.438" width="31.677" height="31.677" rx="4" fill="#1A73E8"/><rect x="619.994" y="681.438" width="32.733" height="31.677" rx="4" fill="#1A73E8"/><rect x="318.002" y="309.756" width="31.677" height="32.733" rx="4" fill="#1A73E8"/><rect x="471.109" y="309.756" width="32.733" height="32.733" rx="4" fill="#1A73E8"/><rect x="619.994" y="309.756" width="32.733" height="32.733" rx="4" fill="#1A73E8"/><rect x="318.002" y="532.555" width="31.677" height="32.733" rx="4" fill="#1A73E8"/><rect x="619.994" y="532.555" width="32.733" height="32.733" rx="4" fill="#1A73E8"/><rect x="318.002" y="160.871" width="31.677" height="32.733" rx="4" fill="#1A73E8"/><rect x="318.002" y="755.352" width="31.677" height="32.733" rx="4" fill="#1A73E8"/><rect x="619.994" y="755.352" width="32.733" height="32.733" rx="4" fill="#1A73E8"/><rect x="318.002" y="383.67" width="31.677" height="32.733" rx="4" fill="#1A73E8"/><rect x="471.109" y="383.67" width="32.733" height="16.895" rx="4" fill="#1A73E8"/><rect x="471.109" y="288.637" width="32.733" height="15.839" rx="4" fill="#1A73E8"/><rect x="693.908" y="288.637" width="32.733" height="15.839" rx="4" fill="#1A73E8"/><rect x="731.922" y="325.594" width="31.677" height="16.895" rx="4" fill="#1A73E8"/><rect x="619.994" y="383.67" width="32.733" height="32.733" rx="4" fill="#1A73E8"/><rect x="318.002" y="606.469" width="31.677" height="32.733" rx="4" fill="#1A73E8"/><rect x="619.994" y="606.469" width="32.733" height="32.733" rx="4" fill="#1A73E8"/><rect x="318.002" y="235.842" width="31.677" height="31.677" rx="4" fill="#1A73E8"/><rect x="318.002" y="458.641" width="31.677" height="31.677" rx="4" fill="#1A73E8"/><rect x="619.994" y="458.641" width="32.733" height="31.677" rx="4" fill="#1A73E8"/><rect x="318.002" y="86.957" width="31.677" height="32.733" rx="4" fill="#1A73E8"/><rect x="318.002" y="792.309" width="31.677" height="32.733" rx="4" fill="#1A73E8"/><rect x="619.994" y="792.309" width="32.733" height="32.733" rx="4" fill="#1A73E8"/><rect x="318.002" y="644.48" width="31.677" height="31.677" rx="4" fill="#1A73E8"/><rect x="619.994" y="644.48" width="32.733" height="31.677" rx="4" fill="#1A73E8"/><rect x="318.002" y="272.799" width="31.677" height="31.677" rx="4" fill="#1A73E8"/><rect x="619.994" y="272.799" width="32.733" height="31.677" rx="4" fill="#1A73E8"/><rect x="318.002" y="495.598" width="31.677" height="31.677" rx="4" fill="#1A73E8"/><rect x="619.994" y="495.598" width="32.733" height="31.677" rx="4" fill="#1A73E8"/><rect x="318.002" y="123.914" width="31.677" height="32.733" rx="4" fill="#1A73E8"/><rect x="318.002" y="718.395" width="31.677" height="31.677" rx="4" fill="#1A73E8"/><rect x="619.994" y="718.395" width="32.733" height="31.677" rx="4" fill="#1A73E8"/><rect x="318.002" y="346.713" width="31.677" height="32.733" rx="4" fill="#1A73E8"/><rect x="471.109" y="346.713" width="32.733" height="32.733" rx="4" fill="#1A73E8"/><rect x="619.994" y="346.713" width="32.733" height="32.733" rx="4" fill="#1A73E8"/><rect x="318.002" y="569.512" width="31.677" height="32.733" rx="4" fill="#1A73E8"/><rect x="619.994" y="569.512" width="32.733" height="32.733" rx="4" fill="#1A73E8"/><rect x="318.002" y="198.885" width="31.677" height="31.677" rx="4" fill="#1A73E8"/><rect x="318.002" y="421.684" width="31.677" height="31.677" rx="4" fill="#1A73E8"/><rect x="619.994" y="421.684" width="32.733" height="31.677" rx="4" fill="#1A73E8"/><path d="M318.002 70c0-11.046 8.954-20 20-20h7.677a4 4 0 0 1 4 4v23.677a4 4 0 0 1-4 4h-23.677a4 4 0 0 1-4-4V70Z" fill="#1A73E8"/><rect x="354.959" y="829.266" width="32.733" height="32.733" rx="4" fill="#1A73E8"/><rect x="656.951" y="829.266" width="32.733" height="32.733" rx="4" fill="#1A73E8"/><rect x="354.959" y="681.438" width="32.733" height="31.677" rx="4" fill="#1A73E8"/><rect x="656.951" y="681.438" width="32.733" height="31.677" rx="4" fill="#1A73E8"/><rect x="354.959" y="309.756" width="32.733" height="32.733" rx="4" fill="#1A73E8"/><rect x="509.123" y="309.756" width="31.677" height="32.733" rx="4" fill="#1A73E8"/><rect x="656.951" y="309.756" width="32.733" height="32.733" rx="4" fill="#1A73E8"/><rect x="354.959" y="532.555" width="32.733" height="32.733" rx="4" fill="#1A73E8"/><rect x="656.951" y="532.555" width="32.733" height="32.733" rx="4" fill="#1A73E8"/><rect x="354.959" y="160.871" width="32.733" height="32.733" rx="4" fill="#1A73E8"/><rect x="354.959" y="755.352" width="32.733" height="32.733" rx="4" fill="#1A73E8"/><rect x="656.951" y="755.352" width="32.733" height="32.733" rx="4" fill="#1A73E8"/><rect x="354.959" y="383.67" width="32.733" height="32.733" rx="4" fill="#1A73E8"/><rect x="656.951" y="383.67" width="32.733" height="32.733" rx="4" fill="#1A73E8"/><rect x="354.959" y="606.469" width="32.733" height="32.733" rx="4" fill="#1A73E8"/><rect x="656.951" y="606.469" width="32.733" height="32.733" rx="4" fill="#1A73E8"/><rect x="354.959" y="235.842" width="32.733" height="31.677" rx="4" fill="#1A73E8"/><rect x="354.959" y="458.641" width="32.733" height="31.677" rx="4" fill="#1A73E8"/><rect x="656.951" y="458.641" width="32.733" height="31.677" rx="4" fill="#1A73E8"/><rect x="354.959" y="86.957" width="32.733" height="32.733" rx="4" fill="#1A73E8"/><rect x="354.959" y="792.309" width="32.733" height="32.733" rx="4" fill="#1A73E8"/><rect x="656.951" y="792.309" width="32.733" height="32.733" rx="4" fill="#1A73E8"/><rect x="354.959" y="644.48" width="32.733" height="31.677" rx="4" fill="#1A73E8"/><rect x="656.951" y="644.48" width="32.733" height="31.677" rx="4" fill="#1A73E8"/><rect x="354.959" y="272.799" width="32.733" height="31.677" rx="4" fill="#1A73E8"/><rect x="509.123" y="272.799" width="31.677" height="31.677" rx="4" fill="#1A73E8"/><rect x="656.951" y="272.799" width="32.733" height="31.677" rx="4" fill="#1A73E8"/><rect x="354.959" y="495.598" width="32.733" height="31.677" rx="4" fill="#1A73E8"/><rect x="656.951" y="495.598" width="32.733" height="31.677" rx="4" fill="#1A73E8"/><rect x="354.959" y="123.914" width="32.733" height="32.733" rx="4" fill="#1A73E8"/><rect x="354.959" y="718.395" width="32.733" height="31.677" rx="4" fill="#1A73E8"/><rect x="656.951" y="718.395" width="32.733" height="31.677" rx="4" fill="#1A73E8"/><rect x="354.959" y="346.713" width="32.733" height="32.733" rx="4" fill="#1A73E8"/><rect x="509.123" y="346.713" width="31.677" height="32.733" rx="4" fill="#1A73E8"/><rect x="656.951" y="346.713" width="32.733" height="32.733" rx="4" fill="#1A73E8"/><rect x="354.959" y="569.512" width="32.733" height="32.733" rx="4" fill="#1A73E8"/><rect x="656.951" y="569.512" width="32.733" height="32.733" rx="4" fill="#1A73E8"/><rect x="354.959" y="198.885" width="32.733" height="31.677" rx="4" fill="#1A73E8"/><rect x="354.959" y="421.684" width="32.733" height="31.677" rx="4" fill="#1A73E8"/><rect x="656.951" y="421.684" width="32.733" height="31.677" rx="4" fill="#1A73E8"/><rect x="354.959" y="50" width="32.733" height="31.677" rx="4" fill="#1A73E8"/><rect x="391.916" y="829.266" width="32.733" height="32.733" rx="4" fill="#1A73E8"/><rect x="693.908" y="829.266" width="32.733" height="32.733" rx="4" fill="#1A73E8"/><rect x="391.916" y="681.438" width="32.733" height="31.677" rx="4" fill="#1A73E8"/><rect x="693.908" y="681.438" width="32.733" height="31.677" rx="4" fill="#1A73E8"/><rect x="391.916" y="309.756" width="32.733" height="32.733" rx="4" fill="#1A73E8"/><rect x="546.08" y="309.756" width="31.677" height="32.733" rx="4" fill="#1A73E8"/><rect x="693.908" y="309.756" width="32.733" height="32.733" rx="4" fill="#1A73E8"/><rect x="391.916" y="532.555" width="32.733" height="32.733" rx="4" fill="#1A73E8"/><rect x="693.908" y="532.555" width="32.733" height="32.733" rx="4" fill="#1A73E8"/><rect x="391.916" y="160.871" width="32.733" height="32.733" rx="4" fill="#1A73E8"/><rect x="391.916" y="755.352" width="32.733" height="32.733" rx="4" fill="#1A73E8"/><rect x="693.908" y="755.352" width="32.733" height="32.733" rx="4" fill="#1A73E8"/><rect x="391.916" y="383.67" width="32.733" height="32.733" rx="4" fill="#1A73E8"/><rect x="693.908" y="383.67" width="32.733" height="32.733" rx="4" fill="#1A73E8"/><rect x="391.916" y="606.469" width="32.733" height="32.733" rx="4" fill="#1A73E8"/><rect x="693.908" y="606.469" width="32.733" height="32.733" rx="4" fill="#1A73E8"/><rect x="391.916" y="235.842" width="32.733" height="31.677" rx="4" fill="#1A73E8"/><rect x="391.916" y="458.641" width="32.733" height="31.677" rx="4" fill="#1A73E8"/><rect x="693.908" y="458.641" width="32.733" height="31.677" rx="4" fill="#1A73E8"/><rect x="391.916" y="86.957" width="32.733" height="32.733" rx="4" fill="#1A73E8"/><rect x="391.916" y="792.309" width="32.733" height="32.733" rx="4" fill="#1A73E8"/><rect x="693.908" y="792.309" width="32.733" height="32.733" rx="4" fill="#1A73E8"/><rect x="391.916" y="644.48" width="32.733" height="31.677" rx="4" fill="#1A73E8"/><rect x="693.908" y="644.48" width="32.733" height="31.677" rx="4" fill="#1A73E8"/><rect x="391.916" y="272.799" width="32.733" height="31.677" rx="4" fill="#1A73E8"/><rect x="546.08" y="272.799" width="31.677" height="31.677" rx="4" fill="#1A73E8"/><rect x="391.916" y="495.598" width="32.733" height="31.677" rx="4" fill="#1A73E8"/><rect x="693.908" y="495.598" width="32.733" height="31.677" rx="4" fill="#1A73E8"/><rect x="391.916" y="123.914" width="32.733" height="32.733" rx="4" fill="#1A73E8"/><rect x="391.916" y="718.395" width="32.733" height="31.677" rx="4" fill="#1A73E8"/><rect x="693.908" y="718.395" width="32.733" height="31.677" rx="4" fill="#1A73E8"/><rect x="391.916" y="346.713" width="32.733" height="32.733" rx="4" fill="#1A73E8"/><rect x="546.08" y="346.713" width="31.677" height="32.733" rx="4" fill="#1A73E8"/><rect x="693.908" y="346.713" width="32.733" height="32.733" rx="4" fill="#1A73E8"/><rect x="391.916" y="569.512" width="32.733" height="32.733" rx="4" fill="#1A73E8"/><rect x="693.908" y="569.512" width="32.733" height="32.733" rx="4" fill="#1A73E8"/><rect x="391.916" y="198.885" width="32.733" height="31.677" rx="4" fill="#1A73E8"/><rect x="391.916" y="421.684" width="32.733" height="31.677" rx="4" fill="#1A73E8"/><rect x="693.908" y="421.684" width="32.733" height="31.677" rx="4" fill="#1A73E8"/><rect x="391.916" y="50" width="32.733" height="31.677" rx="4" fill="#1A73E8"/><path d="M429.93 833.266a4 4 0 0 1 4-4h23.677a4 4 0 0 1 4 4v8.733c0 11.046-8.954 20-20 20h-7.677a4 4 0 0 1-4-4v-24.733ZM731.922 833.266a4 4 0 0 1 4-4h23.677c2.21 0 4 1.79 4 4v8.733c0 11.046-8.954 20-20 20h-7.677a4 4 0 0 1-4-4v-24.733Z" fill="#1A73E8"/><rect x="429.93" y="681.438" width="31.677" height="31.677" rx="4" fill="#1A73E8"/><rect x="731.922" y="681.438" width="31.677" height="31.677" rx="4" fill="#1A73E8"/><rect x="429.93" y="309.756" width="31.677" height="32.733" rx="4" fill="#1A73E8"/><rect x="583.037" y="309.756" width="31.677" height="32.733" rx="4" fill="#1A73E8"/><rect x="429.93" y="532.555" width="31.677" height="32.733" rx="4" fill="#1A73E8"/><rect x="731.922" y="532.555" width="31.677" height="32.733" rx="4" fill="#1A73E8"/><rect x="429.93" y="160.871" width="31.677" height="32.733" rx="4" fill="#1A73E8"/><rect x="429.93" y="755.352" width="31.677" height="32.733" rx="4" fill="#1A73E8"/><rect x="731.922" y="755.352" width="31.677" height="32.733" rx="4" fill="#1A73E8"/><rect x="429.93" y="383.67" width="31.677" height="32.733" rx="4" fill="#1A73E8"/><rect x="583.037" y="383.67" width="31.677" height="16.895" rx="4" fill="#1A73E8"/><rect x="731.922" y="383.67" width="31.677" height="32.733" rx="4" fill="#1A73E8"/><rect x="429.93" y="606.469" width="31.677" height="32.733" rx="4" fill="#1A73E8"/><rect x="731.922" y="606.469" width="31.677" height="32.733" rx="4" fill="#1A73E8"/><rect x="429.93" y="235.842" width="31.677" height="31.677" rx="4" fill="#1A73E8"/><rect x="429.93" y="458.641" width="31.677" height="31.677" rx="4" fill="#1A73E8"/><rect x="731.922" y="458.641" width="31.677" height="31.677" rx="4" fill="#1A73E8"/><rect x="429.93" y="86.957" width="31.677" height="32.733" rx="4" fill="#1A73E8"/><rect x="429.93" y="792.309" width="31.677" height="32.733" rx="4" fill="#1A73E8"/><rect x="731.922" y="792.309" width="31.677" height="32.733" rx="4" fill="#1A73E8"/><rect x="429.93" y="644.48" width="31.677" height="31.677" rx="4" fill="#1A73E8"/><rect x="731.922" y="644.48" width="31.677" height="31.677" rx="4" fill="#1A73E8"/><rect x="429.93" y="272.799" width="31.677" height="31.677" rx="4" fill="#1A73E8"/><rect x="583.037" y="272.799" width="31.677" height="31.677" rx="4" fill="#1A73E8"/><rect x="429.93" y="495.598" width="31.677" height="31.677" rx="4" fill="#1A73E8"/><rect x="731.922" y="495.598" width="31.677" height="31.677" rx="4" fill="#1A73E8"/><rect x="429.93" y="123.914" width="31.677" height="32.733" rx="4" fill="#1A73E8"/><rect x="429.93" y="718.395" width="31.677" height="31.677" rx="4" fill="#1A73E8"/><rect x="731.922" y="718.395" width="31.677" height="31.677" rx="4" fill="#1A73E8"/><rect x="429.93" y="346.713" width="31.677" height="32.733" rx="4" fill="#1A73E8"/><rect x="583.037" y="346.713" width="31.677" height="32.733" rx="4" fill="#1A73E8"/><rect x="731.922" y="346.713" width="31.677" height="32.733" rx="4" fill="#1A73E8"/><rect x="429.93" y="569.512" width="31.677" height="32.733" rx="4" fill="#1A73E8"/><rect x="731.922" y="569.512" width="31.677" height="32.733" rx="4" fill="#1A73E8"/><rect x="429.93" y="198.885" width="31.677" height="31.677" rx="4" fill="#1A73E8"/><rect x="429.93" y="421.684" width="31.677" height="31.677" rx="4" fill="#1A73E8"/><rect x="731.922" y="421.684" width="31.677" height="31.677" rx="4" fill="#1A73E8"/><path d="M429.93 54a4 4 0 0 1 4-4h7.677c11.046 0 20 8.954 20 20v7.677a4 4 0 0 1-4 4H433.93a4 4 0 0 1-4-4V54ZM1156.4 833.266c0-2.21 1.79-4 4-4h23.68c2.21 0 4 1.79 4 4v24.733a4 4 0 0 1-4 4h-7.68c-11.05 0-20-8.954-20-20v-8.733ZM1458.39 833.266c0-2.21 1.79-4 4-4h24.74c2.21 0 4 1.79 4 4v24.733a4 4 0 0 1-4 4h-8.74c-11.04 0-20-8.954-20-20v-8.733Z" fill="#1A73E8"/><rect x="1156.4" y="681.438" width="31.677" height="31.677" rx="4" fill="#1A73E8"/><rect x="1458.39" y="681.438" width="32.733" height="31.677" rx="4" fill="#1A73E8"/><rect x="1156.4" y="309.756" width="31.677" height="32.733" rx="4" fill="#1A73E8"/><rect x="1309.51" y="309.756" width="32.733" height="32.733" rx="4" fill="#1A73E8"/><rect x="1458.39" y="309.756" width="32.733" height="32.733" rx="4" fill="#1A73E8"/><rect x="1156.4" y="532.555" width="31.677" height="32.733" rx="4" fill="#1A73E8"/><rect x="1458.39" y="532.555" width="32.733" height="32.733" rx="4" fill="#1A73E8"/><rect x="1156.4" y="160.871" width="31.677" height="32.733" rx="4" fill="#FF6D7F"/><rect x="1156.4" y="755.352" width="31.677" height="32.733" rx="4" fill="#1A73E8"/><rect x="1458.39" y="755.352" width="32.733" height="32.733" rx="4" fill="#1A73E8"/><rect x="1156.4" y="383.67" width="31.677" height="32.733" rx="4" fill="#1A73E8"/><rect x="1309.51" y="383.67" width="32.733" height="16.895" rx="4" fill="#1A73E8"/><rect x="1309.51" y="288.637" width="32.733" height="15.839" rx="4" fill="#1A73E8"/><rect x="1532.31" y="288.637" width="32.733" height="15.839" rx="4" fill="#1A73E8"/><rect x="1570.32" y="325.594" width="31.677" height="16.895" rx="4" fill="#1A73E8"/><rect x="1458.39" y="383.67" width="32.733" height="32.733" rx="4" fill="#1A73E8"/><rect x="1156.4" y="606.469" width="31.677" height="32.733" rx="4" fill="#1A73E8"/><rect x="1458.39" y="606.469" width="32.733" height="32.733" rx="4" fill="#1A73E8"/><rect x="1156.4" y="235.842" width="31.677" height="31.677" rx="4" fill="#1A73E8"/><rect x="1156.4" y="458.641" width="31.677" height="31.677" rx="4" fill="#1A73E8"/><rect x="1458.39" y="458.641" width="32.733" height="31.677" rx="4" fill="#1A73E8"/><rect x="1156.4" y="86.957" width="31.677" height="32.733" rx="4" fill="#FF6D7F"/><rect x="1156.4" y="792.309" width="31.677" height="32.733" rx="4" fill="#1A73E8"/><rect x="1458.39" y="792.309" width="32.733" height="32.733" rx="4" fill="#1A73E8"/><rect x="1156.4" y="644.48" width="31.677" height="31.677" rx="4" fill="#1A73E8"/><rect x="1458.39" y="644.48" width="32.733" height="31.677" rx="4" fill="#1A73E8"/><rect x="1156.4" y="272.799" width="31.677" height="31.677" rx="4" fill="#1A73E8"/><rect x="1458.39" y="272.799" width="32.733" height="31.677" rx="4" fill="#1A73E8"/><rect x="1156.4" y="495.598" width="31.677" height="31.677" rx="4" fill="#1A73E8"/><rect x="1458.39" y="495.598" width="32.733" height="31.677" rx="4" fill="#1A73E8"/><rect x="1156.4" y="123.914" width="31.677" height="32.733" rx="4" fill="#FF6D7F"/><rect x="1156.4" y="718.395" width="31.677" height="31.677" rx="4" fill="#1A73E8"/><rect x="1458.39" y="718.395" width="32.733" height="31.677" rx="4" fill="#1A73E8"/><rect x="1156.4" y="346.713" width="31.677" height="32.733" rx="4" fill="#1A73E8"/><rect x="1309.51" y="346.713" width="32.733" height="32.733" rx="4" fill="#1A73E8"/><rect x="1458.39" y="346.713" width="32.733" height="32.733" rx="4" fill="#1A73E8"/><rect x="1156.4" y="569.512" width="31.677" height="32.733" rx="4" fill="#1A73E8"/><rect x="1458.39" y="569.512" width="32.733" height="32.733" rx="4" fill="#1A73E8"/><rect x="1156.4" y="198.885" width="31.677" height="31.677" rx="4" fill="#1A73E8"/><rect x="1156.4" y="421.684" width="31.677" height="31.677" rx="4" fill="#1A73E8"/><rect x="1458.39" y="421.684" width="32.733" height="31.677" rx="4" fill="#1A73E8"/><path d="M1156.4 70c0-11.046 8.95-20 20-20h7.68a4 4 0 0 1 4 4v23.677a4 4 0 0 1-4 4h-23.68a4 4 0 0 1-4-4V70Z" fill="#FF6D7F"/><rect x="1193.36" y="829.266" width="32.733" height="32.733" rx="4" fill="#1A73E8"/><rect x="1495.35" y="829.266" width="32.733" height="32.733" rx="4" fill="#1A73E8"/><rect x="1193.36" y="681.438" width="32.733" height="31.677" rx="4" fill="#1A73E8"/><rect x="1495.35" y="681.438" width="32.733" height="31.677" rx="4" fill="#1A73E8"/><rect x="1193.36" y="309.756" width="32.733" height="32.733" rx="4" fill="#1A73E8"/><rect x="1347.52" y="309.756" width="31.677" height="32.733" rx="4" fill="#1A73E8"/><rect x="1495.35" y="309.756" width="32.733" height="32.733" rx="4" fill="#1A73E8"/><rect x="1193.36" y="532.555" width="32.733" height="32.733" rx="4" fill="#1A73E8"/><rect x="1495.35" y="532.555" width="32.733" height="32.733" rx="4" fill="#1A73E8"/><rect x="1193.36" y="160.871" width="32.733" height="32.733" rx="4" fill="#FF6D7F"/><rect x="1193.36" y="755.352" width="32.733" height="32.733" rx="4" fill="#1A73E8"/><rect x="1495.35" y="755.352" width="32.733" height="32.733" rx="4" fill="#1A73E8"/><rect x="1193.36" y="383.67" width="32.733" height="32.733" rx="4" fill="#1A73E8"/><rect x="1495.35" y="383.67" width="32.733" height="32.733" rx="4" fill="#1A73E8"/><rect x="1193.36" y="606.469" width="32.733" height="32.733" rx="4" fill="#1A73E8"/><rect x="1495.35" y="606.469" width="32.733" height="32.733" rx="4" fill="#1A73E8"/><rect x="1193.36" y="235.842" width="32.733" height="31.677" rx="4" fill="#1A73E8"/><rect x="1193.36" y="458.641" width="32.733" height="31.677" rx="4" fill="#1A73E8"/><rect x="1495.35" y="458.641" width="32.733" height="31.677" rx="4" fill="#1A73E8"/><rect x="1193.36" y="86.957" width="32.733" height="32.733" rx="4" fill="#FF6D7F"/><rect x="1193.36" y="792.309" width="32.733" height="32.733" rx="4" fill="#1A73E8"/><rect x="1495.35" y="792.309" width="32.733" height="32.733" rx="4" fill="#1A73E8"/><rect x="1193.36" y="644.48" width="32.733" height="31.677" rx="4" fill="#1A73E8"/><rect x="1495.35" y="644.48" width="32.733" height="31.677" rx="4" fill="#1A73E8"/><rect x="1193.36" y="272.799" width="32.733" height="31.677" rx="4" fill="#1A73E8"/><rect x="1347.52" y="272.799" width="31.677" height="31.677" rx="4" fill="#1A73E8"/><rect x="1495.35" y="272.799" width="32.733" height="31.677" rx="4" fill="#1A73E8"/><rect x="1193.36" y="495.598" width="32.733" height="31.677" rx="4" fill="#1A73E8"/><rect x="1495.35" y="495.598" width="32.733" height="31.677" rx="4" fill="#1A73E8"/><rect x="1193.36" y="123.914" width="32.733" height="32.733" rx="4" fill="#FF6D7F"/><rect x="1193.36" y="718.395" width="32.733" height="31.677" rx="4" fill="#1A73E8"/><rect x="1495.35" y="718.395" width="32.733" height="31.677" rx="4" fill="#1A73E8"/><rect x="1193.36" y="346.713" width="32.733" height="32.733" rx="4" fill="#1A73E8"/><rect x="1347.52" y="346.713" width="31.677" height="32.733" rx="4" fill="#1A73E8"/><rect x="1495.35" y="346.713" width="32.733" height="32.733" rx="4" fill="#1A73E8"/><rect x="1193.36" y="569.512" width="32.733" height="32.733" rx="4" fill="#1A73E8"/><rect x="1495.35" y="569.512" width="32.733" height="32.733" rx="4" fill="#1A73E8"/><rect x="1193.36" y="198.885" width="32.733" height="31.677" rx="4" fill="#1A73E8"/><rect x="1193.36" y="421.684" width="32.733" height="31.677" rx="4" fill="#1A73E8"/><rect x="1495.35" y="421.684" width="32.733" height="31.677" rx="4" fill="#1A73E8"/><rect x="1193.36" y="50" width="32.733" height="31.677" rx="4" fill="#FF6D7F"/><rect x="1230.31" y="829.266" width="32.733" height="32.733" rx="4" fill="#1A73E8"/><rect x="1532.31" y="829.266" width="32.733" height="32.733" rx="4" fill="#1A73E8"/><rect x="1230.31" y="681.438" width="32.733" height="31.677" rx="4" fill="#1A73E8"/><rect x="1532.31" y="681.438" width="32.733" height="31.677" rx="4" fill="#1A73E8"/><rect x="1230.31" y="309.756" width="32.733" height="32.733" rx="4" fill="#1A73E8"/><rect x="1384.48" y="309.756" width="31.677" height="32.733" rx="4" fill="#1A73E8"/><rect x="1532.31" y="309.756" width="32.733" height="32.733" rx="4" fill="#1A73E8"/><rect x="1230.31" y="532.555" width="32.733" height="32.733" rx="4" fill="#1A73E8"/><rect x="1532.31" y="532.555" width="32.733" height="32.733" rx="4" fill="#1A73E8"/><rect x="1230.31" y="160.871" width="32.733" height="32.733" rx="4" fill="#FF6D7F"/><rect x="1230.31" y="755.352" width="32.733" height="32.733" rx="4" fill="#1A73E8"/><rect x="1532.31" y="755.352" width="32.733" height="32.733" rx="4" fill="#1A73E8"/><rect x="1230.31" y="383.67" width="32.733" height="32.733" rx="4" fill="#1A73E8"/><rect x="1532.31" y="383.67" width="32.733" height="32.733" rx="4" fill="#1A73E8"/><rect x="1230.31" y="606.469" width="32.733" height="32.733" rx="4" fill="#1A73E8"/><rect x="1532.31" y="606.469" width="32.733" height="32.733" rx="4" fill="#1A73E8"/><rect x="1230.31" y="235.842" width="32.733" height="31.677" rx="4" fill="#1A73E8"/><rect x="1230.31" y="458.641" width="32.733" height="31.677" rx="4" fill="#1A73E8"/><rect x="1532.31" y="458.641" width="32.733" height="31.677" rx="4" fill="#1A73E8"/><rect x="1230.31" y="86.957" width="32.733" height="32.733" rx="4" fill="#FF6D7F"/><rect x="1230.31" y="792.309" width="32.733" height="32.733" rx="4" fill="#1A73E8"/><rect x="1532.31" y="792.309" width="32.733" height="32.733" rx="4" fill="#1A73E8"/><rect x="1230.31" y="644.48" width="32.733" height="31.677" rx="4" fill="#1A73E8"/><rect x="1532.31" y="644.48" width="32.733" height="31.677" rx="4" fill="#1A73E8"/><rect x="1230.31" y="272.799" width="32.733" height="31.677" rx="4" fill="#1A73E8"/><rect x="1384.48" y="272.799" width="31.677" height="31.677" rx="4" fill="#1A73E8"/><rect x="1230.31" y="495.598" width="32.733" height="31.677" rx="4" fill="#1A73E8"/><rect x="1532.31" y="495.598" width="32.733" height="31.677" rx="4" fill="#1A73E8"/><rect x="1230.31" y="123.914" width="32.733" height="32.733" rx="4" fill="#FF6D7F"/><rect x="1230.31" y="718.395" width="32.733" height="31.677" rx="4" fill="#1A73E8"/><rect x="1532.31" y="718.395" width="32.733" height="31.677" rx="4" fill="#1A73E8"/><rect x="1230.31" y="346.713" width="32.733" height="32.733" rx="4" fill="#1A73E8"/><rect x="1384.48" y="346.713" width="31.677" height="32.733" rx="4" fill="#1A73E8"/><rect x="1532.31" y="346.713" width="32.733" height="32.733" rx="4" fill="#1A73E8"/><rect x="1230.31" y="569.512" width="32.733" height="32.733" rx="4" fill="#1A73E8"/><rect x="1532.31" y="569.512" width="32.733" height="32.733" rx="4" fill="#1A73E8"/><rect x="1230.31" y="198.885" width="32.733" height="31.677" rx="4" fill="#1A73E8"/><rect x="1230.31" y="421.684" width="32.733" height="31.677" rx="4" fill="#1A73E8"/><rect x="1532.31" y="421.684" width="32.733" height="31.677" rx="4" fill="#1A73E8"/><rect x="1230.31" y="50" width="32.733" height="31.677" rx="4" fill="#FF6D7F"/><path d="M1268.33 833.266c0-2.21 1.79-4 4-4h23.68c2.2 0 4 1.79 4 4v8.733c0 11.046-8.96 20-20 20h-7.68a4 4 0 0 1-4-4v-24.733ZM1570.32 833.266c0-2.21 1.79-4 4-4H1598c2.21 0 4 1.79 4 4v8.733c0 11.046-8.96 20-20 20h-7.68a4 4 0 0 1-4-4v-24.733Z" fill="#1A73E8"/><rect x="1268.33" y="681.438" width="31.677" height="31.677" rx="4" fill="#1A73E8"/><rect x="1570.32" y="681.438" width="31.677" height="31.677" rx="4" fill="#1A73E8"/><rect x="1268.33" y="309.756" width="31.677" height="32.733" rx="4" fill="#1A73E8"/><rect x="1421.44" y="309.756" width="31.677" height="32.733" rx="4" fill="#1A73E8"/><rect x="1268.33" y="532.555" width="31.677" height="32.733" rx="4" fill="#1A73E8"/><rect x="1570.32" y="532.555" width="31.677" height="32.733" rx="4" fill="#1A73E8"/><rect x="1268.33" y="160.871" width="31.677" height="32.733" rx="4" fill="#FF6D7F"/><rect x="1268.33" y="755.352" width="31.677" height="32.733" rx="4" fill="#1A73E8"/><rect x="1570.32" y="755.352" width="31.677" height="32.733" rx="4" fill="#1A73E8"/><rect x="1268.33" y="383.67" width="31.677" height="32.733" rx="4" fill="#1A73E8"/><rect x="1421.44" y="383.67" width="31.677" height="16.895" rx="4" fill="#1A73E8"/><rect x="1570.32" y="383.67" width="31.677" height="32.733" rx="4" fill="#1A73E8"/><rect x="1268.33" y="606.469" width="31.677" height="32.733" rx="4" fill="#1A73E8"/><rect x="1570.32" y="606.469" width="31.677" height="32.733" rx="4" fill="#1A73E8"/><rect x="1268.33" y="235.842" width="31.677" height="31.677" rx="4" fill="#1A73E8"/><rect x="1268.33" y="458.641" width="31.677" height="31.677" rx="4" fill="#1A73E8"/><rect x="1570.32" y="458.641" width="31.677" height="31.677" rx="4" fill="#1A73E8"/><rect x="1268.33" y="86.957" width="31.677" height="32.733" rx="4" fill="#FF6D7F"/><rect x="1268.33" y="792.309" width="31.677" height="32.733" rx="4" fill="#1A73E8"/><rect x="1570.32" y="792.309" width="31.677" height="32.733" rx="4" fill="#1A73E8"/><rect x="1268.33" y="644.48" width="31.677" height="31.677" rx="4" fill="#1A73E8"/><rect x="1570.32" y="644.48" width="31.677" height="31.677" rx="4" fill="#1A73E8"/><rect x="1268.33" y="272.799" width="31.677" height="31.677" rx="4" fill="#1A73E8"/><rect x="1421.44" y="272.799" width="31.677" height="31.677" rx="4" fill="#1A73E8"/><rect x="1268.33" y="495.598" width="31.677" height="31.677" rx="4" fill="#1A73E8"/><rect x="1570.32" y="495.598" width="31.677" height="31.677" rx="4" fill="#1A73E8"/><rect x="1268.33" y="123.914" width="31.677" height="32.733" rx="4" fill="#FF6D7F"/><rect x="1268.33" y="718.395" width="31.677" height="31.677" rx="4" fill="#1A73E8"/><rect x="1570.32" y="718.395" width="31.677" height="31.677" rx="4" fill="#1A73E8"/><rect x="1268.33" y="346.713" width="31.677" height="32.733" rx="4" fill="#1A73E8"/><rect x="1421.44" y="346.713" width="31.677" height="32.733" rx="4" fill="#1A73E8"/><rect x="1570.32" y="346.713" width="31.677" height="32.733" rx="4" fill="#1A73E8"/><rect x="1268.33" y="569.512" width="31.677" height="32.733" rx="4" fill="#1A73E8"/><rect x="1570.32" y="569.512" width="31.677" height="32.733" rx="4" fill="#1A73E8"/><rect x="1268.33" y="198.885" width="31.677" height="31.677" rx="4" fill="#1A73E8"/><rect x="1268.33" y="421.684" width="31.677" height="31.677" rx="4" fill="#1A73E8"/><rect x="1570.32" y="421.684" width="31.677" height="31.677" rx="4" fill="#1A73E8"/><path d="M1268.33 54a4 4 0 0 1 4-4h7.68c11.04 0 20 8.954 20 20v7.677c0 2.21-1.8 4-4 4h-23.68a4 4 0 0 1-4-4V54Z" fill="#FF6D7F"/></svg>