<svg fill="none" xmlns="http://www.w3.org/2000/svg" viewBox="0 0 1920 1080"><mask id="a" style="mask-type:alpha" maskUnits="userSpaceOnUse" x="50" y="50" width="1820" height="980"><path fill="#F3F7FE" d="M50 50h1820v980H50z"/></mask><g mask="url(#a)"><rect x="1685" y="-84" width="72" height="805" rx="10" fill="#3C4043" fill-opacity=".1"/><path d="M1134 525.472c-310.4 34-570 416.5-661 603.498l887.5-7.5c-29.17-53.5-97.3-194.098-136.5-328.498-49-168 28-212.5 79-237s140.5-3 129-40c-9.2-29.6-146.17-29-213.5-25v6.5c8.5 1.333 25.5 5.1 25.5 9.5 0 10-73.33 16.5-110 18.5Z" fill="#E1E5EB" fill-opacity=".4"/><path d="M1732.46 473.942c14.59 65.373 94.84 68.167 133.15 61.393l129.35-59.532-37.46-526.804-966.803-16.447L925.263 90.61c53.367 61.768 130.567 48.797 162.487 34.591 18.19 63.561 100.84 64.897 139.89 57.62 28.36 47.323 117 29.084 157.78 14.049-.77 25.33 42.86 28.622 64.77 27.101-42.29 34.826-5.42 83.993 18.3 104.223-10.97 46.099-4.26 81.788 35.72 104.467 31.99 18.143 87.52 23.027 111.28 23.201 26.53 38.927 89.03 28.274 116.97 18.081Z" fill="#E1E5EB"/><path d="M309 964c24.4 96.8-80.5 154.33-136 171l-212 7.5V-231l972-23 193 166.5c-29.6 118-141 152.5-193 155 18.4 96.8-90.667 154-147.5 170.5-6 82-136.167 117.167-200.5 124.5 18 33.2-37.833 66.833-68 79.5 79.6 18 63.5 108.167 45.5 151C608 647 623 699 585 756c-30.4 45.6-101 89.333-132.5 105.5C443.3 931.1 353 958.833 309 964Z" fill="#E1E5EB"/><path d="M1371.78 847.96c17.2 21.6 107.5 198.67 150.5 284.5l283 19 54.22-49.96c-17.5-31-291.22-284.54-325.22-305.04s-63.5-71.5-76-97.5-8-65-14.5-101.5-32.5-71.5-49-78.5-19.65-29.999-36.5-36.5c-35-13.5-72 16-77 28.5s-19.03 28.325-34 31c-16.78 3-26-8-26-8-24-17.5-42-8-46 8-3.12 12.5-5.47 26.5 0 39.5 12 28.5 35.5 78.5 50 100s74.5 63.5 85.5 78.5 39.5 61 61 88ZM555.5 976.126C538.3 997.726 448 1174.79 405 1260.63l-283 19v-127c17.5-31 237-207.504 271-228.004s63.5-71.5 76-97.5 8-65 14.5-101.5 32.5-71.5 49-78.5 19.648-29.999 36.5-36.5c35-13.5 72 16 77 28.5s20.5 38 34 31 22-13.5 46-31 42-8 46 8-8 34-20 62.5-35.5 78.5-50 100-74.5 63.5-85.5 78.5-39.5 61-61 88Z" fill="#BDD6F8"/><path d="M392 924.127c7.6-2 26.833-19.833 35.5-28.5 2.5-4.5 1.4-10.1 33-4.5 39.5 7 84.5 71.5 88.5 86 3.2 11.6-1.333 17.833-4 19.5 15.368 0 31.906-25.939 39.973-42.226 1.373-2.772 1.851-5.901 1.03-8.883-9.421-34.214-65.46-85.925-93.503-108.391 1-3.833.3-14.1-10.5-24.5-25-20-45.5 2-50.5 9s-51 54-63 62.5-10 21-10 28 24 14.5 33.5 12Z" fill="#fff"/><path d="M162.56 234h-36.816v-5.694l14.586-14.742c2.808-2.808 5.174-5.304 7.098-7.488 1.924-2.184 3.38-4.316 4.368-6.396.988-2.132 1.482-4.446 1.482-6.942 0-3.068-.91-5.382-2.73-6.942-1.82-1.612-4.186-2.418-7.098-2.418-2.704 0-5.096.468-7.176 1.404-2.028.936-4.108 2.236-6.24 3.9l-3.666-4.602a31.244 31.244 0 0 1 4.758-3.354 26.21 26.21 0 0 1 5.694-2.34c2.08-.572 4.29-.858 6.63-.858 3.484 0 6.474.598 8.97 1.794 2.496 1.196 4.42 2.912 5.772 5.148 1.404 2.184 2.106 4.81 2.106 7.878 0 2.184-.338 4.264-1.014 6.24-.676 1.924-1.638 3.822-2.886 5.694-1.248 1.872-2.756 3.77-4.524 5.694a154.116 154.116 0 0 1-5.85 6.006l-11.622 11.466v.312h28.158V234Zm44.637 0h-36.816v-5.694l14.586-14.742c2.808-2.808 5.174-5.304 7.098-7.488 1.924-2.184 3.38-4.316 4.368-6.396.988-2.132 1.482-4.446 1.482-6.942 0-3.068-.91-5.382-2.73-6.942-1.82-1.612-4.186-2.418-7.098-2.418-2.704 0-5.096.468-7.176 1.404-2.028.936-4.108 2.236-6.24 3.9l-3.666-4.602a31.244 31.244 0 0 1 4.758-3.354 26.21 26.21 0 0 1 5.694-2.34c2.08-.572 4.29-.858 6.63-.858 3.484 0 6.474.598 8.97 1.794 2.496 1.196 4.42 2.912 5.772 5.148 1.404 2.184 2.106 4.81 2.106 7.878 0 2.184-.338 4.264-1.014 6.24-.676 1.924-1.638 3.822-2.886 5.694-1.248 1.872-2.756 3.77-4.524 5.694a154.116 154.116 0 0 1-5.85 6.006l-11.622 11.466v.312h28.158V234Zm9.692-4.212c0-1.924.468-3.276 1.404-4.056.936-.78 2.054-1.17 3.354-1.17 1.352 0 2.496.39 3.432 1.17.988.78 1.482 2.132 1.482 4.056 0 1.872-.494 3.224-1.482 4.056-.936.832-2.08 1.248-3.432 1.248-1.3 0-2.418-.416-3.354-1.248-.936-.832-1.404-2.184-1.404-4.056ZM259.835 234h-6.708v-42.744c.052-1.04.104-2.002.156-2.886.052-.936.104-1.898.156-2.886a37.735 37.735 0 0 1-2.262 2.106c-.676.572-1.534 1.3-2.574 2.184l-5.928 4.836-3.588-4.602 15.054-11.7h5.694V234Zm57.506 0h-36.816v-5.694l14.586-14.742c2.808-2.808 5.174-5.304 7.098-7.488 1.924-2.184 3.38-4.316 4.368-6.396.988-2.132 1.482-4.446 1.482-6.942 0-3.068-.91-5.382-2.73-6.942-1.82-1.612-4.186-2.418-7.098-2.418-2.704 0-5.096.468-7.176 1.404-2.028.936-4.108 2.236-6.24 3.9l-3.666-4.602a31.244 31.244 0 0 1 4.758-3.354 26.21 26.21 0 0 1 5.694-2.34c2.08-.572 4.29-.858 6.63-.858 3.484 0 6.474.598 8.97 1.794 2.496 1.196 4.42 2.912 5.772 5.148 1.404 2.184 2.106 4.81 2.106 7.878 0 2.184-.338 4.264-1.014 6.24-.676 1.924-1.638 3.822-2.886 5.694-1.248 1.872-2.756 3.77-4.524 5.694a154.116 154.116 0 0 1-5.85 6.006l-11.622 11.466v.312h28.158V234Zm44.637 0h-36.816v-5.694l14.586-14.742c2.808-2.808 5.174-5.304 7.098-7.488 1.924-2.184 3.38-4.316 4.368-6.396.988-2.132 1.482-4.446 1.482-6.942 0-3.068-.91-5.382-2.73-6.942-1.82-1.612-4.186-2.418-7.098-2.418-2.704 0-5.096.468-7.176 1.404-2.028.936-4.108 2.236-6.24 3.9l-3.666-4.602a31.244 31.244 0 0 1 4.758-3.354 26.21 26.21 0 0 1 5.694-2.34c2.08-.572 4.29-.858 6.63-.858 3.484 0 6.474.598 8.97 1.794 2.496 1.196 4.42 2.912 5.772 5.148 1.404 2.184 2.106 4.81 2.106 7.878 0 2.184-.338 4.264-1.014 6.24-.676 1.924-1.638 3.822-2.886 5.694-1.248 1.872-2.756 3.77-4.524 5.694a154.116 154.116 0 0 1-5.85 6.006l-11.622 11.466v.312h28.158V234ZM144.19 130.08c0 2.4-.45 4.41-1.35 6.03-.9 1.62-2.2 2.84-3.9 3.66-1.68.82-3.71 1.23-6.09 1.23h-6v-21.42h6.63c2.18 0 4.07.4 5.67 1.2 1.6.8 2.84 1.98 3.72 3.54.88 1.54 1.32 3.46 1.32 5.76Zm-3.39.09c0-1.8-.29-3.28-.87-4.44-.58-1.16-1.44-2.02-2.58-2.58-1.12-.56-2.48-.84-4.08-.84h-3.18v15.96h2.61c2.7 0 4.72-.68 6.06-2.04 1.36-1.36 2.04-3.38 2.04-6.06ZM155.452 141h-8.31v-1.86l2.55-.75v-16.17l-2.55-.78v-1.86h8.31v1.86l-2.52.78v16.17l2.52.75V141Zm16.305-5.79c0 1.28-.31 2.37-.93 3.27-.62.9-1.51 1.6-2.67 2.1-1.16.48-2.54.72-4.14.72-.78 0-1.53-.05-2.25-.15-.72-.08-1.39-.2-2.01-.36-.62-.16-1.17-.36-1.65-.6v-3.06c.8.36 1.74.69 2.82.99 1.08.28 2.18.42 3.3.42.96 0 1.76-.13 2.4-.39.64-.26 1.12-.62 1.44-1.08.32-.46.48-1 .48-1.62 0-.66-.17-1.21-.51-1.65-.32-.46-.83-.88-1.53-1.26-.68-.4-1.6-.82-2.76-1.26-.8-.3-1.53-.63-2.19-.99-.64-.38-1.21-.82-1.71-1.32a5.28 5.28 0 0 1-1.11-1.74c-.26-.66-.39-1.43-.39-2.31 0-1.18.29-2.19.87-3.03.6-.84 1.42-1.48 2.46-1.92 1.04-.46 2.25-.69 3.63-.69 1.16 0 2.23.12 3.21.36 1 .22 1.95.53 2.85.93l-1.02 2.67c-.82-.34-1.65-.62-2.49-.84-.84-.22-1.72-.33-2.64-.33-.8 0-1.47.12-2.01.36-.54.24-.95.57-1.23.99-.26.42-.39.91-.39 1.47 0 .66.15 1.21.45 1.65.3.44.78.85 1.44 1.23.66.36 1.53.76 2.61 1.2 1.2.46 2.22.96 3.06 1.5.86.54 1.51 1.19 1.95 1.95.44.74.66 1.67.66 2.79Zm11.395 5.79h-3.24v-18.63h-6.42v-2.79h16.08v2.79h-6.42V141Zm20.944 0-2.28-6.18h-8.28l-2.28 6.18h-3.36l8.13-21.51h3.36l8.1 21.51h-3.39Zm-5.34-15.03c-.06-.22-.17-.55-.33-.99l-.42-1.38c-.14-.48-.25-.87-.33-1.17-.1.4-.22.84-.36 1.32-.12.46-.24.89-.36 1.29-.12.38-.22.69-.3.93l-2.16 6.03h6.42l-2.16-6.03ZM227.955 141h-3.93l-10.83-17.31h-.12c.02.4.04.83.06 1.29.04.46.07.95.09 1.47l.06 1.56c.02.52.03 1.05.03 1.59V141h-2.94v-21.42h3.9l10.8 17.22h.09c-.02-.3-.04-.67-.06-1.11-.02-.46-.04-.95-.06-1.47 0-.52-.01-1.05-.03-1.59-.02-.54-.04-1.05-.06-1.53v-11.52h3V141Zm14.861-18.93c-1.06 0-2.01.19-2.85.57-.84.36-1.56.9-2.16 1.62-.58.72-1.03 1.59-1.35 2.61-.3 1.02-.45 2.17-.45 3.45 0 1.68.25 3.14.75 4.38.5 1.22 1.25 2.16 2.25 2.82 1 .66 2.26.99 3.78.99.92 0 1.8-.08 2.64-.24.86-.18 1.73-.41 2.61-.69v2.79c-.84.32-1.7.55-2.58.69-.88.16-1.9.24-3.06.24-2.18 0-4-.45-5.46-1.35-1.44-.9-2.52-2.18-3.24-3.84-.72-1.66-1.08-3.6-1.08-5.82 0-1.62.22-3.1.66-4.44.46-1.36 1.12-2.53 1.98-3.51.86-.98 1.92-1.73 3.18-2.25 1.28-.54 2.75-.81 4.41-.81 1.08 0 2.14.12 3.18.36 1.04.22 1.98.54 2.82.96l-1.2 2.7c-.7-.32-1.46-.6-2.28-.84a8.2 8.2 0 0 0-2.55-.39ZM264.711 141h-12.06v-21.42h12.06v2.76h-8.82v6.12h8.28v2.73h-8.28v7.02h8.82V141Zm120.469 92-6.48-18.21h-.12c.02.4.05.94.09 1.62.04.68.07 1.41.09 2.19.02.78.03 1.55.03 2.31V233h-2.94v-21.42h4.62l6.15 17.19h.12l6.33-17.19h4.62V233h-3.15v-12.27c0-.7.01-1.42.03-2.16.04-.76.07-1.47.09-2.13.04-.66.07-1.2.09-1.62h-.12L387.97 233h-2.79Z" fill="#3C4043" fill-opacity=".2"/><path d="M527.489 128.364c-.154-1.296-.776-2.302-1.867-3.017-1.091-.716-2.429-1.074-4.014-1.074-1.159 0-2.173.187-3.043.562-.86.375-1.534.891-2.02 1.547a3.708 3.708 0 0 0-.715 2.237c0 .699.166 1.3.498 1.803.341.494.776.908 1.304 1.24a9.33 9.33 0 0 0 1.662.805c.58.205 1.112.371 1.598.499l2.659.716c.682.179 1.44.426 2.276.741.843.316 1.649.746 2.416 1.291a6.586 6.586 0 0 1 1.918 2.072c.502.843.754 1.879.754 3.106 0 1.415-.371 2.693-1.112 3.835-.733 1.142-1.807 2.05-3.222 2.723-1.406.674-3.115 1.01-5.126 1.01-1.875 0-3.499-.302-4.871-.907-1.364-.606-2.438-1.449-3.222-2.532-.775-1.082-1.214-2.339-1.317-3.771h3.273c.085.989.418 1.807.997 2.455.588.639 1.33 1.116 2.225 1.431a9 9 0 0 0 2.915.461c1.21 0 2.296-.196 3.259-.588.964-.401 1.726-.955 2.289-1.662.562-.716.844-1.552.844-2.506 0-.869-.243-1.577-.729-2.122-.486-.546-1.125-.989-1.918-1.33a20.168 20.168 0 0 0-2.569-.895l-3.222-.92c-2.045-.588-3.665-1.428-4.858-2.519-1.193-1.091-1.79-2.518-1.79-4.282 0-1.466.397-2.745 1.189-3.835.801-1.1 1.875-1.952 3.222-2.557 1.355-.614 2.868-.921 4.538-.921 1.688 0 3.188.303 4.5.908 1.313.596 2.353 1.415 3.12 2.454a6.124 6.124 0 0 1 1.227 3.542h-3.068ZM535.718 148v-19.636h2.915v2.966h.205c.358-.972 1.005-1.76 1.943-2.366.937-.605 1.994-.907 3.17-.907.222 0 .499.004.831.013.333.008.584.021.755.038v3.068a9.262 9.262 0 0 0-.704-.115 6.88 6.88 0 0 0-1.137-.089c-.955 0-1.807.2-2.557.6a4.524 4.524 0 0 0-1.764 1.637c-.426.69-.64 1.478-.64 2.365V148h-3.017Zm13.395 0v-19.636h3.017V148h-3.017Zm1.534-22.909c-.588 0-1.095-.2-1.521-.601a1.93 1.93 0 0 1-.627-1.445c0-.562.209-1.044.627-1.444a2.143 2.143 0 0 1 1.521-.601c.588 0 1.091.2 1.509.601.426.4.639.882.639 1.444 0 .563-.213 1.044-.639 1.445a2.101 2.101 0 0 1-1.509.601Zm20.918 7.67-2.71.767a5.04 5.04 0 0 0-.755-1.316c-.323-.435-.767-.793-1.329-1.074-.563-.281-1.283-.422-2.161-.422-1.201 0-2.203.277-3.004.831-.792.545-1.189 1.24-1.189 2.084 0 .75.273 1.342.818 1.777.546.434 1.398.797 2.557 1.086l2.915.716c1.756.426 3.064 1.078 3.925 1.956.861.87 1.291 1.99 1.291 3.362 0 1.125-.324 2.131-.972 3.017-.639.887-1.534 1.586-2.684 2.097-1.151.511-2.489.767-4.015.767-2.002 0-3.66-.435-4.973-1.304-1.312-.869-2.143-2.139-2.492-3.81l2.863-.715c.273 1.056.789 1.849 1.547 2.377.767.529 1.769.793 3.004.793 1.407 0 2.523-.298 3.35-.895.835-.605 1.253-1.329 1.253-2.173 0-.682-.239-1.253-.716-1.713-.478-.469-1.211-.818-2.199-1.049l-3.273-.767c-1.798-.426-3.119-1.086-3.963-1.981-.835-.904-1.253-2.033-1.253-3.388 0-1.108.311-2.088.933-2.94.631-.853 1.488-1.522 2.57-2.007 1.091-.486 2.327-.729 3.707-.729 1.944 0 3.469.426 4.577 1.278 1.117.853 1.909 1.978 2.378 3.375Zm7.917 3.427V148h-3.018v-26.182h3.018v9.614h.255a5.55 5.55 0 0 1 2.071-2.416c.929-.605 2.165-.908 3.708-.908 1.338 0 2.51.268 3.515.805 1.006.529 1.786 1.343 2.34 2.442.562 1.091.843 2.48.843 4.168V148h-3.017v-12.273c0-1.559-.404-2.765-1.214-3.618-.801-.86-1.913-1.291-3.337-1.291-.988 0-1.875.209-2.659.627a4.58 4.58 0 0 0-1.841 1.828c-.443.801-.664 1.772-.664 2.915Zm20.451 12.017a2.215 2.215 0 0 1-1.624-.678 2.218 2.218 0 0 1-.677-1.624c0-.63.226-1.171.677-1.623a2.215 2.215 0 0 1 1.624-.678c.631 0 1.172.226 1.623.678.452.452.678.993.678 1.623 0 .418-.107.802-.32 1.151a2.382 2.382 0 0 1-.831.844c-.34.204-.724.307-1.15.307Zm0-14.574a2.215 2.215 0 0 1-1.624-.678 2.217 2.217 0 0 1-.677-1.623c0-.631.226-1.172.677-1.624a2.215 2.215 0 0 1 1.624-.678c.631 0 1.172.226 1.623.678.452.452.678.993.678 1.624 0 .417-.107.801-.32 1.15-.204.35-.481.631-.831.844-.34.204-.724.307-1.15.307Zm24.806-9v-2.813h19.636v2.813h-8.233V148h-3.17v-23.369h-8.233Zm27.137 11.557V148h-3.017v-26.182h3.017v9.614h.256a5.543 5.543 0 0 1 2.071-2.416c.929-.605 2.165-.908 3.707-.908 1.338 0 2.51.268 3.516.805 1.005.529 1.785 1.343 2.339 2.442.563 1.091.844 2.48.844 4.168V148h-3.017v-12.273c0-1.559-.405-2.765-1.215-3.618-.801-.86-1.913-1.291-3.336-1.291-.989 0-1.875.209-2.659.627a4.574 4.574 0 0 0-1.841 1.828c-.443.801-.665 1.772-.665 2.915ZM670.129 148v-19.636h3.017V148h-3.017Zm1.534-22.909c-.588 0-1.096-.2-1.522-.601a1.933 1.933 0 0 1-.626-1.445c0-.562.209-1.044.626-1.444a2.145 2.145 0 0 1 1.522-.601c.588 0 1.091.2 1.508.601.426.4.639.882.639 1.444 0 .563-.213 1.044-.639 1.445-.417.401-.92.601-1.508.601Zm20.918 7.67-2.711.767a5.008 5.008 0 0 0-.754-1.316c-.324-.435-.767-.793-1.329-1.074-.563-.281-1.283-.422-2.161-.422-1.202 0-2.203.277-3.004.831-.793.545-1.189 1.24-1.189 2.084 0 .75.273 1.342.818 1.777.546.434 1.398.797 2.557 1.086l2.915.716c1.755.426 3.064 1.078 3.924 1.956.861.87 1.292 1.99 1.292 3.362 0 1.125-.324 2.131-.972 3.017-.639.887-1.534 1.586-2.685 2.097-1.15.511-2.488.767-4.014.767-2.003 0-3.66-.435-4.973-1.304-1.312-.869-2.143-2.139-2.493-3.81l2.864-.715c.273 1.056.788 1.849 1.547 2.377.767.529 1.768.793 3.004.793 1.406 0 2.523-.298 3.349-.895.836-.605 1.253-1.329 1.253-2.173 0-.682-.238-1.253-.716-1.713-.477-.469-1.21-.818-2.199-1.049l-3.272-.767c-1.799-.426-3.12-1.086-3.963-1.981-.836-.904-1.253-2.033-1.253-3.388 0-1.108.311-2.088.933-2.94.631-.853 1.487-1.522 2.57-2.007 1.091-.486 2.326-.729 3.707-.729 1.943 0 3.469.426 4.577 1.278 1.116.853 1.909 1.978 2.378 3.375ZM707.605 148v-19.636h2.915v3.068h.256c.409-1.048 1.069-1.862 1.981-2.442.912-.588 2.007-.882 3.286-.882 1.295 0 2.373.294 3.234.882.869.58 1.547 1.394 2.033 2.442h.204a5.717 5.717 0 0 1 2.263-2.416c1.006-.605 2.212-.908 3.618-.908 1.756 0 3.192.55 4.308 1.649 1.117 1.091 1.675 2.791 1.675 5.101V148h-3.017v-13.142c0-1.449-.397-2.484-1.189-3.107-.793-.622-1.726-.933-2.8-.933-1.381 0-2.45.418-3.209 1.253-.758.827-1.137 1.875-1.137 3.145V148h-3.069v-13.449c0-1.116-.362-2.015-1.086-2.697-.725-.691-1.658-1.036-2.8-1.036-.784 0-1.517.209-2.199.627-.673.417-1.219.997-1.636 1.738-.409.733-.614 1.581-.614 2.544V148h-3.017Zm39.522.409c-1.892 0-3.524-.418-4.896-1.253-1.364-.844-2.416-2.02-3.158-3.528-.733-1.517-1.099-3.281-1.099-5.293 0-2.011.366-3.784 1.099-5.318.742-1.543 1.773-2.744 3.094-3.605 1.329-.869 2.881-1.304 4.653-1.304 1.023 0 2.033.17 3.03.511a7.509 7.509 0 0 1 2.723 1.662c.818.759 1.47 1.764 1.956 3.017s.729 2.796.729 4.628v1.279h-15.137v-2.608h12.069c0-1.108-.222-2.097-.665-2.966a5.01 5.01 0 0 0-1.867-2.059c-.801-.502-1.747-.754-2.838-.754-1.201 0-2.241.298-3.119.895a5.89 5.89 0 0 0-2.007 2.301 6.756 6.756 0 0 0-.703 3.043v1.738c0 1.483.255 2.741.767 3.772.52 1.022 1.24 1.802 2.16 2.339.921.529 1.99.793 3.209.793.793 0 1.509-.111 2.148-.333a4.605 4.605 0 0 0 1.675-1.022 4.65 4.65 0 0 0 1.086-1.713l2.915.818a6.456 6.456 0 0 1-1.547 2.608c-.724.741-1.619 1.321-2.685 1.738-1.065.41-2.262.614-3.592.614Zm26.629-15.648-2.71.767a5.036 5.036 0 0 0-.754-1.316c-.324-.435-.767-.793-1.33-1.074-.562-.281-1.282-.422-2.16-.422-1.202 0-2.203.277-3.004.831-.793.545-1.189 1.24-1.189 2.084 0 .75.272 1.342.818 1.777.545.434 1.398.797 2.557 1.086l2.914.716c1.756.426 3.064 1.078 3.925 1.956.861.87 1.291 1.99 1.291 3.362 0 1.125-.324 2.131-.971 3.017-.639.887-1.534 1.586-2.685 2.097-1.15.511-2.489.767-4.014.767-2.003 0-3.661-.435-4.973-1.304-1.313-.869-2.144-2.139-2.493-3.81l2.864-.715c.272 1.056.788 1.849 1.546 2.377.768.529 1.769.793 3.005.793 1.406 0 2.522-.298 3.349-.895.835-.605 1.253-1.329 1.253-2.173 0-.682-.239-1.253-.716-1.713-.477-.469-1.21-.818-2.199-1.049l-3.272-.767c-1.799-.426-3.12-1.086-3.964-1.981-.835-.904-1.252-2.033-1.252-3.388 0-1.108.311-2.088.933-2.94.631-.853 1.487-1.522 2.569-2.007 1.091-.486 2.327-.729 3.708-.729 1.943 0 3.469.426 4.577 1.278 1.116.853 1.909 1.978 2.377 3.375Zm18.809 0-2.71.767a5.04 5.04 0 0 0-.755-1.316c-.323-.435-.767-.793-1.329-1.074-.563-.281-1.283-.422-2.161-.422-1.201 0-2.203.277-3.004.831-.792.545-1.189 1.24-1.189 2.084 0 .75.273 1.342.818 1.777.546.434 1.398.797 2.557 1.086l2.915.716c1.756.426 3.064 1.078 3.925 1.956.861.87 1.291 1.99 1.291 3.362 0 1.125-.324 2.131-.972 3.017-.639.887-1.534 1.586-2.684 2.097-1.151.511-2.489.767-4.015.767-2.002 0-3.66-.435-4.973-1.304-1.312-.869-2.143-2.139-2.492-3.81l2.863-.715c.273 1.056.789 1.849 1.547 2.377.767.529 1.769.793 3.004.793 1.407 0 2.523-.298 3.35-.895.835-.605 1.253-1.329 1.253-2.173 0-.682-.239-1.253-.716-1.713-.478-.469-1.211-.818-2.199-1.049l-3.273-.767c-1.798-.426-3.119-1.086-3.963-1.981-.835-.904-1.253-2.033-1.253-3.388 0-1.108.311-2.088.933-2.94.631-.853 1.488-1.522 2.57-2.007 1.091-.486 2.327-.729 3.707-.729 1.944 0 3.469.426 4.577 1.278 1.117.853 1.909 1.978 2.378 3.375Zm10.678 15.699c-1.244 0-2.374-.234-3.388-.703-1.014-.477-1.819-1.163-2.416-2.058-.597-.904-.895-1.994-.895-3.273 0-1.125.222-2.037.665-2.736a4.694 4.694 0 0 1 1.777-1.662 9.345 9.345 0 0 1 2.454-.894 29.647 29.647 0 0 1 2.723-.486 117.09 117.09 0 0 1 2.902-.345c.75-.086 1.296-.226 1.637-.422.349-.196.524-.537.524-1.023v-.102c0-1.262-.345-2.242-1.036-2.941-.681-.699-1.717-1.048-3.106-1.048-1.441 0-2.57.315-3.388.946-.818.631-1.393 1.304-1.726 2.02l-2.863-1.023c.511-1.193 1.193-2.122 2.045-2.787a7.668 7.668 0 0 1 2.812-1.406 11.672 11.672 0 0 1 3.018-.409c.63 0 1.355.077 2.173.23a6.957 6.957 0 0 1 2.39.908c.776.46 1.419 1.155 1.931 2.084.511.929.767 2.173.767 3.732V148h-3.017v-2.659h-.154c-.204.426-.545.882-1.022 1.368-.478.486-1.112.899-1.905 1.24-.793.341-1.76.511-2.902.511Zm.46-2.71c1.193 0 2.199-.234 3.017-.703.827-.469 1.449-1.074 1.867-1.815a4.631 4.631 0 0 0 .639-2.34v-2.761c-.128.153-.409.294-.844.422-.426.119-.92.225-1.483.319a67.93 67.93 0 0 1-1.623.23c-.52.06-.942.111-1.266.154a11.52 11.52 0 0 0-2.199.498c-.673.222-1.219.558-1.636 1.01-.409.443-.614 1.048-.614 1.816 0 1.048.388 1.84 1.163 2.377.785.529 1.777.793 2.979.793Zm21.973 10.023c-1.458 0-2.71-.188-3.759-.563-1.048-.366-1.922-.852-2.62-1.457-.691-.597-1.241-1.236-1.65-1.918l2.404-1.687c.273.358.618.767 1.035 1.227.418.469.989.874 1.713 1.214.733.35 1.692.525 2.877.525 1.585 0 2.893-.384 3.924-1.151 1.032-.767 1.547-1.969 1.547-3.605v-3.989h-.255c-.222.358-.537.801-.946 1.33-.401.52-.98.984-1.739 1.393-.75.401-1.764.601-3.043.601-1.585 0-3.008-.375-4.269-1.125-1.253-.75-2.246-1.841-2.979-3.273-.725-1.431-1.087-3.17-1.087-5.215 0-2.012.354-3.763 1.061-5.255.708-1.5 1.692-2.659 2.953-3.477 1.262-.827 2.719-1.24 4.373-1.24 1.278 0 2.292.213 3.042.639.759.418 1.338.895 1.739 1.432.409.528.724.963.946 1.304h.307v-3.119h2.914v20.198c0 1.688-.383 3.06-1.15 4.117-.759 1.065-1.781 1.845-3.068 2.339-1.279.503-2.702.755-4.27.755Zm-.102-10.79c1.21 0 2.232-.277 3.068-.831.835-.554 1.47-1.351 1.905-2.391.434-1.039.652-2.284.652-3.733 0-1.414-.214-2.663-.64-3.745-.426-1.083-1.057-1.931-1.892-2.544-.835-.614-1.866-.921-3.093-.921-1.279 0-2.344.324-3.197.972-.843.647-1.478 1.517-1.904 2.608-.418 1.091-.627 2.301-.627 3.63 0 1.364.213 2.57.639 3.618.435 1.04 1.074 1.858 1.918 2.455.852.588 1.909.882 3.171.882Zm22.346 3.426c-1.892 0-3.524-.418-4.896-1.253-1.364-.844-2.416-2.02-3.158-3.528-.733-1.517-1.099-3.281-1.099-5.293 0-2.011.366-3.784 1.099-5.318.742-1.543 1.773-2.744 3.094-3.605 1.329-.869 2.881-1.304 4.653-1.304 1.023 0 2.033.17 3.03.511a7.509 7.509 0 0 1 2.723 1.662c.818.759 1.47 1.764 1.956 3.017s.729 2.796.729 4.628v1.279h-15.137v-2.608h12.069c0-1.108-.222-2.097-.665-2.966a5.01 5.01 0 0 0-1.867-2.059c-.801-.502-1.747-.754-2.838-.754-1.201 0-2.241.298-3.119.895a5.89 5.89 0 0 0-2.007 2.301 6.756 6.756 0 0 0-.703 3.043v1.738c0 1.483.255 2.741.767 3.772.52 1.022 1.24 1.802 2.16 2.339.921.529 1.99.793 3.209.793.793 0 1.509-.111 2.148-.333a4.605 4.605 0 0 0 1.675-1.022 4.65 4.65 0 0 0 1.086-1.713l2.915.818a6.456 6.456 0 0 1-1.547 2.608c-.724.741-1.619 1.321-2.685 1.738-1.065.41-2.262.614-3.592.614Zm22.845-.409v-19.636h3.017V148h-3.017Zm1.534-22.909c-.588 0-1.095-.2-1.521-.601a1.93 1.93 0 0 1-.626-1.445c0-.562.208-1.044.626-1.444a2.143 2.143 0 0 1 1.521-.601c.588 0 1.091.2 1.509.601.426.4.639.882.639 1.444 0 .563-.213 1.044-.639 1.445a2.101 2.101 0 0 1-1.509.601Zm20.918 7.67-2.71.767a5.036 5.036 0 0 0-.754-1.316c-.324-.435-.767-.793-1.33-1.074-.562-.281-1.282-.422-2.16-.422-1.202 0-2.203.277-3.004.831-.793.545-1.189 1.24-1.189 2.084 0 .75.272 1.342.818 1.777.545.434 1.398.797 2.557 1.086l2.914.716c1.756.426 3.064 1.078 3.925 1.956.861.87 1.291 1.99 1.291 3.362 0 1.125-.324 2.131-.971 3.017-.64.887-1.534 1.586-2.685 2.097-1.151.511-2.489.767-4.014.767-2.003 0-3.661-.435-4.973-1.304-1.313-.869-2.144-2.139-2.493-3.81l2.864-.715c.272 1.056.788 1.849 1.546 2.377.767.529 1.769.793 3.005.793 1.406 0 2.522-.298 3.349-.895.835-.605 1.253-1.329 1.253-2.173 0-.682-.239-1.253-.716-1.713-.477-.469-1.21-.818-2.199-1.049l-3.273-.767c-1.798-.426-3.119-1.086-3.963-1.981-.835-.904-1.252-2.033-1.252-3.388 0-1.108.311-2.088.933-2.94.63-.853 1.487-1.522 2.569-2.007 1.091-.486 2.327-.729 3.708-.729 1.943 0 3.469.426 4.576 1.278 1.117.853 1.91 1.978 2.378 3.375Zm22.951 23.012c-1.457 0-2.71-.188-3.759-.563-1.048-.366-1.921-.852-2.62-1.457-.691-.597-1.24-1.236-1.649-1.918l2.403-1.687c.273.358.618.767 1.035 1.227.418.469.989.874 1.714 1.214.733.35 1.691.525 2.876.525 1.585 0 2.893-.384 3.925-1.151 1.031-.767 1.547-1.969 1.547-3.605v-3.989h-.256c-.222.358-.537.801-.946 1.33-.401.52-.98.984-1.739 1.393-.75.401-1.764.601-3.042.601-1.586 0-3.009-.375-4.27-1.125-1.253-.75-2.246-1.841-2.979-3.273-.724-1.431-1.087-3.17-1.087-5.215 0-2.012.354-3.763 1.061-5.255.708-1.5 1.692-2.659 2.954-3.477 1.261-.827 2.718-1.24 4.372-1.24 1.278 0 2.292.213 3.042.639.759.418 1.338.895 1.739 1.432.409.528.724.963.946 1.304h.307v-3.119h2.915v20.198c0 1.688-.384 3.06-1.151 4.117-.758 1.065-1.781 1.845-3.068 2.339-1.279.503-2.702.755-4.27.755Zm-.102-10.79c1.21 0 2.233-.277 3.068-.831.835-.554 1.47-1.351 1.905-2.391.434-1.039.652-2.284.652-3.733 0-1.414-.213-2.663-.64-3.745-.426-1.083-1.056-1.931-1.892-2.544-.835-.614-1.866-.921-3.093-.921-1.279 0-2.344.324-3.196.972-.844.647-1.479 1.517-1.905 2.608-.418 1.091-.627 2.301-.627 3.63 0 1.364.213 2.57.64 3.618.434 1.04 1.073 1.858 1.917 2.455.853.588 1.909.882 3.171.882Zm22.091 3.426c-1.773 0-3.329-.422-4.667-1.266-1.329-.843-2.369-2.024-3.119-3.541-.741-1.517-1.112-3.29-1.112-5.318 0-2.045.371-3.831 1.112-5.356.75-1.526 1.79-2.711 3.119-3.554 1.338-.844 2.894-1.266 4.667-1.266 1.772 0 3.323.422 4.653 1.266 1.338.843 2.378 2.028 3.119 3.554.75 1.525 1.125 3.311 1.125 5.356 0 2.028-.375 3.801-1.125 5.318-.741 1.517-1.781 2.698-3.119 3.541-1.33.844-2.881 1.266-4.653 1.266Zm0-2.71c1.346 0 2.454-.345 3.323-1.036.87-.69 1.513-1.598 1.931-2.723.417-1.125.626-2.343.626-3.656 0-1.312-.209-2.535-.626-3.669-.418-1.133-1.061-2.05-1.931-2.749-.869-.698-1.977-1.048-3.323-1.048-1.347 0-2.455.35-3.324 1.048-.87.699-1.513 1.616-1.931 2.749-.417 1.134-.626 2.357-.626 3.669 0 1.313.209 2.531.626 3.656.418 1.125 1.061 2.033 1.931 2.723.869.691 1.977 1.036 3.324 1.036ZM951.66 148v-19.636h3.017V148h-3.017Zm1.534-22.909c-.588 0-1.095-.2-1.521-.601a1.93 1.93 0 0 1-.627-1.445c0-.562.209-1.044.627-1.444a2.143 2.143 0 0 1 1.521-.601c.588 0 1.091.2 1.508.601.427.4.64.882.64 1.444 0 .563-.213 1.044-.64 1.445-.417.401-.92.601-1.508.601Zm10.026 11.097V148h-3.017v-19.636h2.915v3.068h.255a5.611 5.611 0 0 1 2.097-2.404c.937-.613 2.148-.92 3.63-.92 1.33 0 2.493.273 3.491.818.997.537 1.772 1.355 2.326 2.455.554 1.091.831 2.471.831 4.142V148h-3.017v-12.273c0-1.542-.4-2.744-1.202-3.605-.801-.869-1.9-1.304-3.298-1.304-.963 0-1.824.209-2.582.627-.75.417-1.343 1.027-1.777 1.828-.435.801-.652 1.772-.652 2.915Zm25.968 19.585c-1.458 0-2.711-.188-3.759-.563-1.048-.366-1.922-.852-2.621-1.457-.69-.597-1.24-1.236-1.649-1.918l2.403-1.687c.273.358.618.767 1.036 1.227.418.469.989.874 1.713 1.214.733.35 1.692.525 2.877.525 1.585 0 2.893-.384 3.924-1.151 1.031-.767 1.547-1.969 1.547-3.605v-3.989h-.256c-.221.358-.537.801-.946 1.33-.4.52-.98.984-1.738 1.393-.75.401-1.764.601-3.043.601-1.585 0-3.008-.375-4.27-1.125-1.253-.75-2.245-1.841-2.978-3.273-.725-1.431-1.087-3.17-1.087-5.215 0-2.012.354-3.763 1.061-5.255.707-1.5 1.692-2.659 2.953-3.477 1.261-.827 2.719-1.24 4.372-1.24 1.279 0 2.293.213 3.043.639.758.418 1.338.895 1.739 1.432.409.528.724.963.946 1.304h.306v-3.119h2.915v20.198c0 1.688-.383 3.06-1.15 4.117-.759 1.065-1.782 1.845-3.069 2.339-1.278.503-2.701.755-4.269.755Zm-.103-10.79c1.21 0 2.233-.277 3.068-.831.836-.554 1.471-1.351 1.905-2.391.435-1.039.652-2.284.652-3.733 0-1.414-.213-2.663-.639-3.745-.426-1.083-1.057-1.931-1.892-2.544-.835-.614-1.866-.921-3.094-.921-1.278 0-2.344.324-3.196.972-.844.647-1.478 1.517-1.905 2.608-.417 1.091-.626 2.301-.626 3.63 0 1.364.213 2.57.639 3.618.435 1.04 1.074 1.858 1.918 2.455.852.588 1.909.882 3.17.882Zm32.775-16.619v2.556h-10.17v-2.556h10.17Zm-7.21-4.705h3.02v18.716c0 .852.12 1.491.37 1.918.26.417.58.698.97.843.4.137.83.205 1.27.205.33 0 .6-.017.82-.051l.51-.102.61 2.71c-.2.076-.49.153-.85.23-.37.085-.84.128-1.4.128-.85 0-1.69-.184-2.5-.55a4.936 4.936 0 0 1-2.02-1.675c-.53-.75-.8-1.696-.8-2.838v-19.534Zm19.52 24.75c-1.77 0-3.33-.422-4.67-1.266-1.33-.843-2.37-2.024-3.12-3.541-.74-1.517-1.11-3.29-1.11-5.318 0-2.045.37-3.831 1.11-5.356.75-1.526 1.79-2.711 3.12-3.554 1.34-.844 2.9-1.266 4.67-1.266s3.32.422 4.65 1.266c1.34.843 2.38 2.028 3.12 3.554.75 1.525 1.13 3.311 1.13 5.356 0 2.028-.38 3.801-1.13 5.318-.74 1.517-1.78 2.698-3.12 3.541-1.33.844-2.88 1.266-4.65 1.266Zm0-2.71c1.34 0 2.45-.345 3.32-1.036.87-.69 1.51-1.598 1.93-2.723.42-1.125.63-2.343.63-3.656 0-1.312-.21-2.535-.63-3.669-.42-1.133-1.06-2.05-1.93-2.749-.87-.698-1.98-1.048-3.32-1.048-1.35 0-2.46.35-3.33 1.048-.86.699-1.51 1.616-1.93 2.749a10.713 10.713 0 0 0-.62 3.669c0 1.313.21 2.531.62 3.656.42 1.125 1.07 2.033 1.93 2.723.87.691 1.98 1.036 3.33 1.036Zm29.4 2.761c-1.24 0-2.37-.234-3.38-.703a5.807 5.807 0 0 1-2.42-2.058c-.6-.904-.89-1.994-.89-3.273 0-1.125.22-2.037.66-2.736a4.695 4.695 0 0 1 1.78-1.662 9.37 9.37 0 0 1 2.45-.894c.91-.205 1.81-.367 2.73-.486 1.19-.154 2.16-.269 2.9-.345.75-.086 1.29-.226 1.63-.422.35-.196.53-.537.53-1.023v-.102c0-1.262-.35-2.242-1.04-2.941-.68-.699-1.71-1.048-3.1-1.048-1.44 0-2.57.315-3.39.946-.82.631-1.4 1.304-1.73 2.02l-2.86-1.023c.51-1.193 1.19-2.122 2.04-2.787a7.648 7.648 0 0 1 2.82-1.406 11.59 11.59 0 0 1 3.01-.409c.63 0 1.36.077 2.18.23.82.145 1.62.448 2.39.908s1.42 1.155 1.93 2.084.76 2.173.76 3.732V148h-3.01v-2.659h-.16c-.2.426-.54.882-1.02 1.368-.48.486-1.11.899-1.9 1.24-.8.341-1.76.511-2.91.511Zm.47-2.71c1.19 0 2.19-.234 3.01-.703.83-.469 1.45-1.074 1.87-1.815.42-.742.64-1.522.64-2.34v-2.761c-.13.153-.41.294-.85.422-.42.119-.92.225-1.48.319-.55.085-1.09.162-1.62.23-.52.06-.94.111-1.27.154-.78.102-1.52.268-2.2.498-.67.222-1.22.558-1.63 1.01-.41.443-.62 1.048-.62 1.816 0 1.048.39 1.84 1.17 2.377.78.529 1.77.793 2.98.793Zm14.04 9.614v-27h2.92v3.119h.35c.23-.341.53-.776.92-1.304.41-.537.98-1.014 1.72-1.432.75-.426 1.76-.639 3.04-.639 1.65 0 3.11.413 4.37 1.24 1.26.827 2.25 1.999 2.96 3.516.7 1.517 1.06 3.306 1.06 5.369 0 2.079-.36 3.882-1.06 5.408-.71 1.517-1.69 2.693-2.94 3.528-1.26.827-2.7 1.24-4.34 1.24-1.26 0-2.27-.209-3.03-.626-.76-.426-1.34-.908-1.75-1.445-.41-.545-.72-.997-.95-1.355h-.25v10.381h-3.02Zm2.97-17.182c0 1.483.21 2.791.65 3.925.43 1.125 1.07 2.007 1.9 2.646.84.631 1.86.946 3.07.946 1.26 0 2.32-.333 3.16-.997.85-.674 1.49-1.577 1.92-2.711.43-1.142.65-2.411.65-3.809 0-1.381-.21-2.625-.64-3.733-.42-1.117-1.05-1.999-1.9-2.646-.85-.657-1.91-.985-3.19-.985-1.22 0-2.26.311-3.09.933-.84.614-1.47 1.475-1.89 2.583-.43 1.099-.64 2.382-.64 3.848Zm18.97 17.182v-27h2.91v3.119h.36c.22-.341.53-.776.92-1.304.4-.537.97-1.014 1.72-1.432.75-.426 1.76-.639 3.04-.639 1.65 0 3.11.413 4.37 1.24 1.26.827 2.25 1.999 2.95 3.516.71 1.517 1.06 3.306 1.06 5.369 0 2.079-.35 3.882-1.06 5.408-.7 1.517-1.68 2.693-2.94 3.528-1.25.827-2.69 1.24-4.33 1.24-1.26 0-2.27-.209-3.03-.626-.76-.426-1.34-.908-1.75-1.445-.41-.545-.73-.997-.95-1.355h-.25v10.381h-3.02Zm2.97-17.182c0 1.483.21 2.791.65 3.925.43 1.125 1.07 2.007 1.9 2.646.84.631 1.86.946 3.07.946 1.26 0 2.31-.333 3.16-.997.85-.674 1.49-1.577 1.92-2.711.43-1.142.65-2.411.65-3.809 0-1.381-.22-2.625-.64-3.733-.42-1.117-1.05-1.999-1.91-2.646-.84-.657-1.9-.985-3.18-.985-1.23 0-2.26.311-3.09.933-.84.614-1.47 1.475-1.9 2.583-.42 1.099-.63 2.382-.63 3.848Zm27.2 10.227c-1.89 0-3.52-.418-4.9-1.253-1.36-.844-2.41-2.02-3.15-3.528-.74-1.517-1.1-3.281-1.1-5.293 0-2.011.36-3.784 1.1-5.318.74-1.543 1.77-2.744 3.09-3.605 1.33-.869 2.88-1.304 4.65-1.304 1.03 0 2.04.17 3.03.511 1 .341 1.91.895 2.73 1.662.81.759 1.47 1.764 1.95 3.017.49 1.253.73 2.796.73 4.628v1.279h-15.14v-2.608h12.07c0-1.108-.22-2.097-.66-2.966a5.05 5.05 0 0 0-1.87-2.059c-.8-.502-1.75-.754-2.84-.754-1.2 0-2.24.298-3.12.895a5.873 5.873 0 0 0-2 2.301 6.75 6.75 0 0 0-.71 3.043v1.738c0 1.483.26 2.741.77 3.772.52 1.022 1.24 1.802 2.16 2.339.92.529 1.99.793 3.21.793.79 0 1.51-.111 2.15-.333.65-.23 1.2-.571 1.67-1.022.47-.46.83-1.032 1.09-1.713l2.91.818c-.3.989-.82 1.858-1.54 2.608-.73.741-1.62 1.321-2.69 1.738-1.06.41-2.26.614-3.59.614Zm18.5.051c-1.25 0-2.38-.234-3.39-.703-1.01-.477-1.82-1.163-2.42-2.058-.59-.904-.89-1.994-.89-3.273 0-1.125.22-2.037.66-2.736a4.768 4.768 0 0 1 1.78-1.662 9.31 9.31 0 0 1 2.46-.894c.9-.205 1.81-.367 2.72-.486 1.19-.154 2.16-.269 2.9-.345.75-.086 1.3-.226 1.64-.422.35-.196.52-.537.52-1.023v-.102c0-1.262-.34-2.242-1.03-2.941-.69-.699-1.72-1.048-3.11-1.048-1.44 0-2.57.315-3.39.946-.82.631-1.39 1.304-1.72 2.02l-2.87-1.023c.51-1.193 1.2-2.122 2.05-2.787a7.683 7.683 0 0 1 2.81-1.406c1.02-.273 2.03-.409 3.02-.409.63 0 1.35.077 2.17.23.83.145 1.62.448 2.39.908.78.46 1.42 1.155 1.93 2.084s.77 2.173.77 3.732V148h-3.02v-2.659h-.15c-.21.426-.55.882-1.02 1.368-.48.486-1.12.899-1.91 1.24-.79.341-1.76.511-2.9.511Zm.46-2.71c1.19 0 2.2-.234 3.02-.703.82-.469 1.44-1.074 1.86-1.815.43-.742.64-1.522.64-2.34v-2.761c-.13.153-.41.294-.84.422-.43.119-.92.225-1.49.319-.55.085-1.09.162-1.62.23-.52.06-.94.111-1.26.154-.79.102-1.52.268-2.2.498-.68.222-1.22.558-1.64 1.01-.41.443-.61 1.048-.61 1.816 0 1.048.38 1.84 1.16 2.377.78.529 1.78.793 2.98.793Zm14.04 2.25v-19.636h2.92v2.966h.2c.36-.972 1.01-1.76 1.95-2.366.93-.605 1.99-.907 3.17-.907.22 0 .5.004.83.013.33.008.58.021.75.038v3.068c-.1-.025-.33-.064-.7-.115-.36-.06-.74-.089-1.14-.089-.95 0-1.8.2-2.55.6-.75.392-1.33.938-1.77 1.637-.42.69-.64 1.478-.64 2.365V148h-3.02Zm29.3.46c-1.24 0-2.37-.234-3.38-.703a5.807 5.807 0 0 1-2.42-2.058c-.6-.904-.9-1.994-.9-3.273 0-1.125.23-2.037.67-2.736a4.624 4.624 0 0 1 1.78-1.662 9.37 9.37 0 0 1 2.45-.894c.9-.205 1.81-.367 2.72-.486 1.2-.154 2.16-.269 2.91-.345.75-.086 1.29-.226 1.63-.422.35-.196.53-.537.53-1.023v-.102c0-1.262-.35-2.242-1.04-2.941-.68-.699-1.72-1.048-3.11-1.048-1.44 0-2.57.315-3.38.946-.82.631-1.4 1.304-1.73 2.02l-2.86-1.023c.51-1.193 1.19-2.122 2.04-2.787a7.683 7.683 0 0 1 2.81-1.406c1.03-.273 2.03-.409 3.02-.409.63 0 1.36.077 2.17.23.83.145 1.63.448 2.4.908s1.41 1.155 1.93 2.084c.51.929.76 2.173.76 3.732V148h-3.01v-2.659h-.16c-.2.426-.54.882-1.02 1.368-.48.486-1.11.899-1.91 1.24-.79.341-1.76.511-2.9.511Zm.46-2.71c1.2 0 2.2-.234 3.02-.703.83-.469 1.45-1.074 1.87-1.815.42-.742.64-1.522.64-2.34v-2.761c-.13.153-.41.294-.85.422-.42.119-.92.225-1.48.319-.55.085-1.1.162-1.62.23-.52.06-.95.111-1.27.154-.78.102-1.52.268-2.2.498-.67.222-1.22.558-1.64 1.01-.4.443-.61 1.048-.61 1.816 0 1.048.39 1.84 1.16 2.377.79.529 1.78.793 2.98.793Zm27.96-12.989-2.71.767c-.17-.451-.42-.89-.76-1.316-.32-.435-.76-.793-1.33-1.074-.56-.281-1.28-.422-2.16-.422-1.2 0-2.2.277-3 .831-.79.545-1.19 1.24-1.19 2.084 0 .75.27 1.342.82 1.777.54.434 1.4.797 2.56 1.086l2.91.716c1.76.426 3.06 1.078 3.93 1.956.86.87 1.29 1.99 1.29 3.362 0 1.125-.33 2.131-.97 3.017-.64.887-1.54 1.586-2.69 2.097-1.15.511-2.49.767-4.01.767-2.01 0-3.66-.435-4.98-1.304-1.31-.869-2.14-2.139-2.49-3.81l2.86-.715c.28 1.056.79 1.849 1.55 2.377.77.529 1.77.793 3.01.793 1.4 0 2.52-.298 3.34-.895.84-.605 1.26-1.329 1.26-2.173 0-.682-.24-1.253-.72-1.713-.48-.469-1.21-.818-2.2-1.049l-3.27-.767c-1.8-.426-3.12-1.086-3.96-1.981-.84-.904-1.26-2.033-1.26-3.388 0-1.108.32-2.088.94-2.94.63-.853 1.48-1.522 2.57-2.007 1.09-.486 2.32-.729 3.7-.729 1.95 0 3.47.426 4.58 1.278 1.12.853 1.91 1.978 2.38 3.375Zm23.56-4.397v2.556h-10.17v-2.556h10.17Zm-7.21-4.705h3.02v18.716c0 .852.12 1.491.37 1.918.26.417.58.698.97.843.4.137.82.205 1.27.205.33 0 .6-.017.82-.051l.51-.102.61 2.71c-.2.076-.49.153-.86.23-.36.085-.83.128-1.39.128-.85 0-1.69-.184-2.5-.55a4.936 4.936 0 0 1-2.02-1.675c-.53-.75-.8-1.696-.8-2.838v-19.534ZM1249.01 148v-19.636h3.02V148h-3.02Zm1.54-22.909c-.59 0-1.1-.2-1.53-.601a1.953 1.953 0 0 1-.62-1.445c0-.562.21-1.044.62-1.444.43-.401.94-.601 1.53-.601.58 0 1.09.2 1.5.601.43.4.64.882.64 1.444 0 .563-.21 1.044-.64 1.445a2.08 2.08 0 0 1-1.5.601Zm14.98 23.318c-1.84 0-3.42-.435-4.75-1.304s-2.36-2.067-3.07-3.592c-.72-1.526-1.08-3.269-1.08-5.229 0-1.994.37-3.754 1.1-5.28.74-1.534 1.78-2.731 3.1-3.592 1.33-.869 2.88-1.304 4.65-1.304 1.38 0 2.63.256 3.73.767 1.11.511 2.02 1.227 2.73 2.148.7.92 1.14 1.994 1.31 3.221h-3.01c-.23-.895-.75-1.687-1.54-2.378-.78-.698-1.84-1.048-3.17-1.048-1.17 0-2.21.307-3.09.921-.88.605-1.57 1.461-2.06 2.569-.49 1.1-.73 2.391-.73 3.874 0 1.517.24 2.838.72 3.963s1.16 1.998 2.04 2.621c.89.622 1.93.933 3.12.933.79 0 1.5-.137 2.14-.409a4.366 4.366 0 0 0 1.62-1.176c.44-.512.76-1.125.95-1.841h3.01a7.014 7.014 0 0 1-1.26 3.132c-.67.92-1.55 1.653-2.65 2.199-1.09.537-2.36.805-3.81.805Zm14.95-7.568-.05-3.733h.61l8.59-8.744h3.73l-9.15 9.255h-.26l-3.47 3.222Zm-2.82 7.159v-26.182h3.02V148h-3.02Zm12.48 0-7.67-9.716 2.15-2.096 9.36 11.812h-3.84Zm14.53.409c-1.89 0-3.52-.418-4.9-1.253-1.36-.844-2.41-2.02-3.15-3.528-.74-1.517-1.1-3.281-1.1-5.293 0-2.011.36-3.784 1.1-5.318.74-1.543 1.77-2.744 3.09-3.605 1.33-.869 2.88-1.304 4.65-1.304 1.03 0 2.04.17 3.03.511 1 .341 1.91.895 2.73 1.662.81.759 1.47 1.764 1.95 3.017.49 1.253.73 2.796.73 4.628v1.279h-15.14v-2.608h12.07c0-1.108-.22-2.097-.66-2.966a5.05 5.05 0 0 0-1.87-2.059c-.8-.502-1.75-.754-2.84-.754-1.2 0-2.24.298-3.12.895a5.873 5.873 0 0 0-2 2.301 6.75 6.75 0 0 0-.71 3.043v1.738c0 1.483.26 2.741.77 3.772.52 1.022 1.24 1.802 2.16 2.339.92.529 1.99.793 3.21.793.79 0 1.51-.111 2.15-.333.65-.23 1.2-.571 1.67-1.022.47-.46.83-1.032 1.09-1.713l2.91.818c-.3.989-.82 1.858-1.54 2.608-.73.741-1.62 1.321-2.69 1.738-1.06.41-2.26.614-3.59.614Zm12.72-.409v-19.636h2.92v2.966h.2c.36-.972 1.01-1.76 1.94-2.366.94-.605 2-.907 3.17-.907.22 0 .5.004.83.013.34.008.59.021.76.038v3.068a9.4 9.4 0 0 0-.7-.115c-.36-.06-.74-.089-1.14-.089-.96 0-1.81.2-2.56.6a4.5 4.5 0 0 0-1.76 1.637c-.43.69-.64 1.478-.64 2.365V148h-3.02Zm-818.402-3.322a4.167 4.167 0 0 1-4.166 4.166h-25l-8.334 8.334v-33.334a4.165 4.165 0 0 1 4.167-4.166h29.167a4.168 4.168 0 0 1 4.166 4.166v20.834Z" fill="#FF6D7F"/><path fill="url(#b)" d="M1021 109h318v50h-318z"/><path d="M1716.17 198.006c1.25 0 2.27.161 3.07.483.81.308 1.41.777 1.81 1.407.39.63.58 1.421.58 2.373 0 .798-.14 1.463-.44 1.995a3.7 3.7 0 0 1-1.13 1.281c-.45.308-.92.553-1.43.735l4.12 6.72h-2.21l-3.63-6.195h-2.98V213h-1.89v-14.994h4.13Zm-.1 1.638h-2.14v5.565h2.24c.82 0 1.48-.105 2-.315.52-.224.9-.546 1.13-.966.26-.42.38-.945.38-1.575 0-.658-.13-1.183-.4-1.575-.25-.392-.64-.679-1.17-.861-.54-.182-1.21-.273-2.04-.273ZM1734.51 213l-1.81-4.641h-5.94l-1.79 4.641h-1.91l5.86-15.057h1.7l5.84 15.057h-1.95Zm-4.05-10.857a6.135 6.135 0 0 1-.21-.609c-.1-.294-.2-.595-.3-.903a8.253 8.253 0 0 0-.21-.735c-.07.28-.15.567-.23.861-.07.28-.15.539-.23.777-.07.238-.13.441-.19.609l-1.7 4.536h4.75l-1.68-4.536Zm14.07-2.688c-.8 0-1.52.14-2.16.42-.65.266-1.19.665-1.64 1.197-.45.518-.79 1.155-1.03 1.911-.24.742-.36 1.582-.36 2.52 0 1.232.19 2.303.57 3.213.39.91.96 1.61 1.72 2.1.77.49 1.73.735 2.88.735.66 0 1.28-.056 1.87-.168.58-.112 1.16-.252 1.72-.42v1.638c-.56.21-1.14.364-1.74.462-.59.098-1.3.147-2.13.147-1.52 0-2.8-.315-3.82-.945-1.02-.63-1.79-1.526-2.31-2.688-.5-1.162-.75-2.527-.75-4.095 0-1.134.15-2.17.46-3.108.32-.938.78-1.75 1.38-2.436a6.158 6.158 0 0 1 2.27-1.575c.9-.378 1.93-.567 3.09-.567.77 0 1.51.077 2.23.231.71.154 1.35.371 1.91.651l-.76 1.596c-.46-.21-.98-.399-1.55-.567a6.435 6.435 0 0 0-1.85-.252ZM1759.75 213h-8.38v-14.994h8.38v1.659h-6.49v4.683h6.11v1.638h-6.11v5.355h6.49V213Zm15.36 0-4.93-13.146h-.09c.03.28.05.637.06 1.071.03.434.05.91.07 1.428.01.504.02 1.022.02 1.554V213h-1.74v-14.994h2.79l4.62 12.285h.08l4.71-12.285h2.77V213h-1.87v-9.219c0-.49.01-.973.02-1.449.01-.49.04-.945.06-1.365.03-.434.05-.798.07-1.092h-.09l-5 13.125h-1.55Zm25.52-7.518c0 1.162-.15 2.219-.44 3.171-.3.938-.74 1.75-1.32 2.436a5.641 5.641 0 0 1-2.17 1.575c-.85.364-1.85.546-2.98.546-1.18 0-2.2-.182-3.07-.546a5.992 5.992 0 0 1-2.16-1.575c-.57-.686-1-1.505-1.28-2.457s-.42-2.009-.42-3.171c0-1.54.25-2.884.76-4.032.5-1.148 1.26-2.044 2.29-2.688 1.03-.644 2.33-.966 3.9-.966 1.5 0 2.76.322 3.78.966 1.02.63 1.79 1.526 2.31 2.688.53 1.148.8 2.499.8 4.053Zm-11.84 0c0 1.26.17 2.345.52 3.255.35.91.89 1.61 1.62 2.1.74.49 1.67.735 2.79.735 1.13 0 2.06-.245 2.77-.735.73-.49 1.27-1.19 1.62-2.1.35-.91.52-1.995.52-3.255 0-1.89-.39-3.367-1.17-4.431-.79-1.078-2.02-1.617-3.72-1.617-1.13 0-2.07.245-2.81.735-.73.476-1.27 1.169-1.62 2.079-.35.896-.52 1.974-.52 3.234Zm27.18-.126c0 1.68-.32 3.087-.95 4.221a5.962 5.962 0 0 1-2.67 2.562c-1.16.574-2.57.861-4.22.861h-4.18v-14.994h4.62c1.52 0 2.82.28 3.93.84a5.88 5.88 0 0 1 2.56 2.478c.6 1.078.91 2.422.91 4.032Zm-2 .063c0-1.33-.22-2.422-.67-3.276-.44-.854-1.08-1.484-1.93-1.89-.84-.42-1.87-.63-3.07-.63h-2.46v11.76h2.04c2.03 0 3.55-.497 4.56-1.491 1.02-1.008 1.53-2.499 1.53-4.473Zm13.7 7.581h-8.38v-14.994h8.38v1.659h-6.49v4.683h6.11v1.638h-6.11v5.355h6.49V213Z" fill="#3C4043" fill-opacity=".2"/><rect x="1440" y="160" width="68" height="8" rx="4" fill="#3C4043" fill-opacity=".2"/><path d="M1685.85 123.58c2.8 0 4.84.57 6.12 1.71 1.28 1.12 1.92 2.69 1.92 4.71 0 .9-.15 1.76-.45 2.58-.28.82-.75 1.56-1.41 2.22-.66.64-1.54 1.15-2.64 1.53-1.08.36-2.41.54-3.99.54h-2.31V145h-3.24v-21.42h6Zm-.24 2.73h-2.52v7.83h1.95c1.22 0 2.24-.13 3.06-.39.82-.28 1.43-.71 1.83-1.29.42-.6.63-1.38.63-2.34 0-1.28-.4-2.23-1.2-2.85-.78-.64-2.03-.96-3.75-.96Zm18.61-2.73c1.84 0 3.35.23 4.53.69 1.18.46 2.06 1.15 2.64 2.07.58.9.87 2.04.87 3.42 0 1.1-.21 2.03-.63 2.79-.4.74-.92 1.35-1.56 1.83-.64.46-1.31.83-2.01 1.11l6 9.51h-3.72l-5.16-8.67h-3.72V145h-3.24v-21.42h6Zm-.21 2.76h-2.55v7.29h2.7c1.1 0 2-.14 2.7-.42.72-.28 1.24-.7 1.56-1.26.34-.56.51-1.25.51-2.07 0-.86-.18-1.54-.54-2.04-.34-.52-.88-.9-1.62-1.14-.72-.24-1.64-.36-2.76-.36Zm32.09 7.92c0 1.66-.21 3.17-.63 4.53-.4 1.34-1.02 2.5-1.86 3.48-.82.98-1.86 1.73-3.12 2.25-1.24.52-2.69.78-4.35.78-1.7 0-3.18-.26-4.44-.78-1.24-.54-2.28-1.29-3.12-2.25-.82-.98-1.43-2.15-1.83-3.51-.4-1.36-.6-2.87-.6-4.53 0-2.2.36-4.12 1.08-5.76.72-1.64 1.82-2.92 3.3-3.84 1.5-.92 3.38-1.38 5.64-1.38 2.2 0 4.03.46 5.49 1.38 1.48.9 2.59 2.18 3.33 3.84.74 1.64 1.11 3.57 1.11 5.79Zm-16.53 0c0 1.72.23 3.2.69 4.44.46 1.22 1.18 2.17 2.16 2.85.98.66 2.22.99 3.72.99 1.52 0 2.76-.33 3.72-.99.96-.68 1.67-1.63 2.13-2.85.46-1.24.69-2.72.69-4.44 0-2.58-.52-4.59-1.56-6.03-1.02-1.46-2.67-2.19-4.95-2.19-1.52 0-2.77.33-3.75.99-.98.66-1.7 1.6-2.16 2.82-.46 1.22-.69 2.69-.69 4.41Zm30.13-.78h7.74v10.68c-1.14.38-2.31.66-3.51.84-1.18.2-2.53.3-4.05.3-2.18 0-4.03-.44-5.55-1.32-1.5-.88-2.65-2.14-3.45-3.78-.78-1.64-1.17-3.61-1.17-5.91 0-2.24.44-4.18 1.32-5.82a9.25 9.25 0 0 1 3.78-3.81c1.66-.92 3.67-1.38 6.03-1.38 1.18 0 2.31.12 3.39.36 1.08.22 2.08.53 3 .93l-1.17 2.7c-.74-.34-1.57-.62-2.49-.84-.9-.24-1.85-.36-2.85-.36-1.58 0-2.95.34-4.11 1.02-1.14.66-2.02 1.61-2.64 2.85-.6 1.22-.9 2.68-.9 4.38 0 1.6.25 3.02.75 4.26.5 1.24 1.29 2.21 2.37 2.91 1.08.7 2.49 1.05 4.23 1.05.58 0 1.09-.02 1.53-.06.44-.06.84-.12 1.2-.18.38-.08.74-.15 1.08-.21v-5.82h-4.53v-2.79Zm18.86-9.9c1.84 0 3.35.23 4.53.69 1.18.46 2.06 1.15 2.64 2.07.58.9.87 2.04.87 3.42 0 1.1-.21 2.03-.63 2.79-.4.74-.92 1.35-1.56 1.83-.64.46-1.31.83-2.01 1.11l6 9.51h-3.72l-5.16-8.67h-3.72V145h-3.24v-21.42h6Zm-.21 2.76h-2.55v7.29h2.7c1.1 0 2-.14 2.7-.42.72-.28 1.24-.7 1.56-1.26.34-.56.51-1.25.51-2.07 0-.86-.18-1.54-.54-2.04-.34-.52-.88-.9-1.62-1.14-.72-.24-1.64-.36-2.76-.36ZM1793.6 145h-12.06v-21.42h12.06v2.76h-8.82v6.12h8.28v2.73h-8.28v7.02h8.82V145Zm16.94-5.79c0 1.28-.31 2.37-.93 3.27-.62.9-1.51 1.6-2.67 2.1-1.16.48-2.54.72-4.14.72-.78 0-1.53-.05-2.25-.15-.72-.08-1.39-.2-2.01-.36-.62-.16-1.17-.36-1.65-.6v-3.06c.8.36 1.74.69 2.82.99 1.08.28 2.18.42 3.3.42.96 0 1.76-.13 2.4-.39.64-.26 1.12-.62 1.44-1.08.32-.46.48-1 .48-1.62 0-.66-.17-1.21-.51-1.65-.32-.46-.83-.88-1.53-1.26-.68-.4-1.6-.82-2.76-1.26-.8-.3-1.53-.63-2.19-.99-.64-.38-1.21-.82-1.71-1.32a5.28 5.28 0 0 1-1.11-1.74c-.26-.66-.39-1.43-.39-2.31 0-1.18.29-2.19.87-3.03.6-.84 1.42-1.48 2.46-1.92 1.04-.46 2.25-.69 3.63-.69 1.16 0 2.23.12 3.21.36 1 .22 1.95.53 2.85.93l-1.02 2.67c-.82-.34-1.65-.62-2.49-.84-.84-.22-1.72-.33-2.64-.33-.8 0-1.47.12-2.01.36-.54.24-.95.57-1.23.99-.26.42-.39.91-.39 1.47 0 .66.15 1.21.45 1.65.3.44.78.85 1.44 1.23.66.36 1.53.76 2.61 1.2 1.2.46 2.22.96 3.06 1.5.86.54 1.51 1.19 1.95 1.95.44.74.66 1.67.66 2.79Zm16.49 0c0 1.28-.31 2.37-.93 3.27-.62.9-1.51 1.6-2.67 2.1-1.16.48-2.54.72-4.14.72-.78 0-1.53-.05-2.25-.15-.72-.08-1.39-.2-2.01-.36-.62-.16-1.17-.36-1.65-.6v-3.06c.8.36 1.74.69 2.82.99 1.08.28 2.18.42 3.3.42.96 0 1.76-.13 2.4-.39.64-.26 1.12-.62 1.44-1.08.32-.46.48-1 .48-1.62 0-.66-.17-1.21-.51-1.65-.32-.46-.83-.88-1.53-1.26-.68-.4-1.6-.82-2.76-1.26-.8-.3-1.53-.63-2.19-.99-.64-.38-1.21-.82-1.71-1.32a5.28 5.28 0 0 1-1.11-1.74c-.26-.66-.39-1.43-.39-2.31 0-1.18.29-2.19.87-3.03.6-.84 1.42-1.48 2.46-1.92 1.04-.46 2.25-.69 3.63-.69 1.16 0 2.23.12 3.21.36 1 .22 1.95.53 2.85.93l-1.02 2.67c-.82-.34-1.65-.62-2.49-.84-.84-.22-1.72-.33-2.64-.33-.8 0-1.47.12-2.01.36-.54.24-.95.57-1.23.99-.26.42-.39.91-.39 1.47 0 .66.15 1.21.45 1.65.3.44.78.85 1.44 1.23.66.36 1.53.76 2.61 1.2 1.2.46 2.22.96 3.06 1.5.86.54 1.51 1.19 1.95 1.95.44.74.66 1.67.66 2.79Z" fill="#3C4043" fill-opacity=".2"/><rect x="1440" y="160" width="389" height="8" rx="4" fill="#3C4043" fill-opacity=".2"/><path d="M1470 126.334c0 9.333-12 17.333-12 17.333s-12-8-12-17.333c0-3.183 1.26-6.235 3.51-8.485a12.03 12.03 0 0 1 8.49-3.515c3.18 0 6.23 1.264 8.49 3.515a11.995 11.995 0 0 1 3.51 8.485Z" stroke="#3C4043" stroke-opacity=".2" stroke-width="2" stroke-linecap="round" stroke-linejoin="round"/><path d="M1458 130.334a4 4 0 1 0 0-8 4 4 0 0 0 0 8ZM1690 195l-10 12h9l-1 8 10-12h-9l1-8Z" stroke="#3C4043" stroke-opacity=".2" stroke-width="2" stroke-linecap="round" stroke-linejoin="round"/><path d="M1664.06 950.364h-8.12V963h-6.63v-12.636h-26.67v-5.85l26.21-37.518h7.09v37.206h8.12v6.162Zm-14.75-23.712v-3.666c.06-1.144.11-2.21.16-3.198s.08-1.924.08-2.808c.05-.936.1-1.82.15-2.652h-.31c-.41.988-.93 2.054-1.56 3.198-.62 1.144-1.22 2.106-1.79 2.886l-16.69 23.79h19.96v-17.55Zm57.12 8.424c0 4.524-.34 8.554-1.01 12.09-.68 3.536-1.77 6.552-3.28 9.048-1.46 2.444-3.38 4.316-5.77 5.616-2.34 1.3-5.18 1.95-8.5 1.95-4.16 0-7.62-1.144-10.38-3.432-2.7-2.288-4.73-5.564-6.08-9.828-1.3-4.316-1.95-9.464-1.95-15.444 0-6.032.6-11.18 1.79-15.444 1.25-4.264 3.23-7.514 5.93-9.75 2.7-2.288 6.27-3.432 10.69-3.432 4.16 0 7.61 1.144 10.37 3.432 2.76 2.236 4.81 5.486 6.16 9.75 1.35 4.264 2.03 9.412 2.03 15.444Zm-30.11 0c0 5.096.37 9.334 1.09 12.714.78 3.38 2.01 5.928 3.67 7.644 1.72 1.664 3.98 2.496 6.79 2.496 2.8 0 5.04-.832 6.7-2.496 1.72-1.664 2.97-4.186 3.75-7.566.78-3.432 1.17-7.696 1.17-12.792s-.39-9.308-1.17-12.636c-.78-3.38-2.03-5.902-3.75-7.566-1.66-1.716-3.9-2.574-6.7-2.574-2.81 0-5.07.858-6.79 2.574-1.66 1.664-2.89 4.186-3.67 7.566-.72 3.328-1.09 7.54-1.09 12.636ZM1739.7 963h-3.5l-6.56-9.212-1.96 1.624V963h-3.02v-19.992h3.02v9.66c.49-.579.97-1.148 1.46-1.708s.97-1.12 1.46-1.68l5.4-6.272h3.47l-7.64 8.736L1739.7 963Zm8.25-19.992c2.61 0 4.52.532 5.71 1.596 1.2 1.045 1.8 2.511 1.8 4.396 0 .84-.14 1.643-.42 2.408a5.43 5.43 0 0 1-1.32 2.072c-.62.597-1.44 1.073-2.46 1.428-1.01.336-2.25.504-3.73.504h-2.15V963h-3.03v-19.992h5.6Zm-.22 2.548h-2.35v7.308h1.82c1.13 0 2.09-.121 2.85-.364.77-.261 1.34-.663 1.71-1.204.39-.56.59-1.288.59-2.184 0-1.195-.38-2.081-1.12-2.66-.73-.597-1.9-.896-3.5-.896ZM1775.09 963h-3.02v-9.128h-9.55V963h-3.02v-19.992h3.02v8.288h9.55v-8.288h3.02V963Zm-218.62-87.655-293.03 78.291c-4.52 1.207-3.65 7.864 1.03 7.864h293.03a4 4 0 0 0 4-4v-78.291c0-2.629-2.49-4.543-5.03-3.864Z" fill="#3C4043" fill-opacity=".2"/><path d="m1404.5 916-148.4 39.601c-3.39.905-2.73 5.899.78 5.899h147.62V916ZM225.08 830.914c0 2.196-.162 4.392-.486 6.588a26.63 26.63 0 0 1-1.566 6.156 17.384 17.384 0 0 1-3.132 5.13c-1.332 1.476-3.024 2.646-5.076 3.51-2.052.828-4.536 1.242-7.452 1.242-.72 0-1.566-.054-2.538-.162-.936-.072-1.71-.198-2.322-.378v-4.05c.648.216 1.404.396 2.268.54.864.108 1.692.162 2.484.162 2.52 0 4.59-.414 6.21-1.242 1.656-.828 2.97-1.944 3.942-3.348.972-1.44 1.674-3.096 2.106-4.968.432-1.908.684-3.906.756-5.994h-.324a10.107 10.107 0 0 1-2.052 2.268c-.828.684-1.836 1.224-3.024 1.62-1.152.396-2.52.594-4.104.594-2.196 0-4.14-.45-5.832-1.35-1.656-.936-2.952-2.268-3.888-3.996-.9-1.728-1.35-3.834-1.35-6.318 0-2.7.504-5.022 1.512-6.966 1.044-1.944 2.484-3.438 4.32-4.482 1.836-1.044 3.996-1.566 6.48-1.566 1.836 0 3.546.36 5.13 1.08 1.584.684 2.97 1.728 4.158 3.132 1.188 1.404 2.106 3.168 2.754 5.292.684 2.124 1.026 4.626 1.026 7.506ZM212.012 817.9c-2.232 0-4.068.738-5.508 2.214-1.404 1.476-2.106 3.726-2.106 6.75 0 2.484.594 4.446 1.782 5.886 1.224 1.404 3.096 2.106 5.616 2.106 1.728 0 3.222-.342 4.482-1.026 1.26-.72 2.232-1.62 2.916-2.7.72-1.08 1.08-2.196 1.08-3.348 0-1.152-.18-2.304-.54-3.456a10.282 10.282 0 0 0-1.512-3.24 7.643 7.643 0 0 0-2.592-2.322c-1.044-.576-2.25-.864-3.618-.864Zm35.06 35.1h-4.644v-29.592c.036-.72.072-1.386.108-1.998l.108-1.998a26.124 26.124 0 0 1-1.566 1.458l-1.782 1.512-4.104 3.348-2.484-3.186 10.422-8.1h3.942V853Zm39.813 0h-25.488v-3.942l10.098-10.206c1.944-1.944 3.582-3.672 4.914-5.184 1.332-1.512 2.34-2.988 3.024-4.428.684-1.476 1.026-3.078 1.026-4.806 0-2.124-.63-3.726-1.89-4.806-1.26-1.116-2.898-1.674-4.914-1.674-1.872 0-3.528.324-4.968.972-1.404.648-2.844 1.548-4.32 2.7l-2.538-3.186a21.63 21.63 0 0 1 3.294-2.322 18.145 18.145 0 0 1 3.942-1.62c1.44-.396 2.97-.594 4.59-.594 2.412 0 4.482.414 6.21 1.242 1.728.828 3.06 2.016 3.996 3.564.972 1.512 1.458 3.33 1.458 5.454 0 1.512-.234 2.952-.702 4.32-.468 1.332-1.134 2.646-1.998 3.942-.864 1.296-1.908 2.61-3.132 3.942a106.696 106.696 0 0 1-4.05 4.158l-8.046 7.938v.216h19.494V853ZM213.69 963h-6.708v-42.744c.052-1.04.104-2.002.156-2.886.052-.936.104-1.898.156-2.886a37.735 37.735 0 0 1-2.262 2.106c-.676.572-1.534 1.3-2.574 2.184l-5.928 4.836-3.588-4.602 15.054-11.7h5.694V963Zm60.003-12.636h-8.112V963h-6.63v-12.636h-26.676v-5.85l26.208-37.518h7.098v37.206h8.112v6.162Zm-14.742-23.712v-3.666c.052-1.144.104-2.21.156-3.198.052-.988.078-1.924.078-2.808.052-.936.104-1.82.156-2.652h-.312a35.537 35.537 0 0 1-1.56 3.198c-.624 1.144-1.222 2.106-1.794 2.886l-16.692 23.79h19.968v-17.55Zm38.552-20.124c3.276 0 6.162.52 8.658 1.56 2.496.988 4.446 2.47 5.85 4.446 1.456 1.976 2.184 4.42 2.184 7.332 0 2.236-.494 4.186-1.482 5.85-.936 1.664-2.21 3.146-3.822 4.446a34.03 34.03 0 0 1-5.304 3.354c2.288 1.092 4.368 2.34 6.24 3.744 1.872 1.352 3.354 2.938 4.446 4.758 1.144 1.82 1.716 4.004 1.716 6.552 0 3.12-.754 5.824-2.262 8.112-1.508 2.236-3.64 3.978-6.396 5.226-2.704 1.248-5.902 1.872-9.594 1.872-4.004 0-7.41-.598-10.218-1.794-2.756-1.196-4.862-2.886-6.318-5.07-1.404-2.236-2.106-4.94-2.106-8.112 0-2.548.52-4.758 1.56-6.63a16.532 16.532 0 0 1 4.29-4.836 30.13 30.13 0 0 1 5.694-3.432 31.723 31.723 0 0 1-4.992-3.51 16.655 16.655 0 0 1-3.51-4.602c-.832-1.716-1.248-3.718-1.248-6.006 0-2.86.728-5.252 2.184-7.176 1.456-1.976 3.432-3.484 5.928-4.524s5.33-1.56 8.502-1.56Zm-11.7 42.354c0 2.704.962 4.966 2.886 6.786 1.924 1.768 4.888 2.652 8.892 2.652 2.548 0 4.68-.416 6.396-1.248 1.716-.832 3.016-1.976 3.9-3.432.936-1.456 1.404-3.12 1.404-4.992 0-1.82-.494-3.406-1.482-4.758-.936-1.404-2.288-2.652-4.056-3.744-1.716-1.092-3.77-2.08-6.162-2.964l-1.248-.468c-2.288.988-4.212 2.054-5.772 3.198-1.56 1.144-2.756 2.444-3.588 3.9-.78 1.456-1.17 3.146-1.17 5.07Zm11.622-36.816c-2.86 0-5.226.702-7.098 2.106-1.82 1.352-2.73 3.328-2.73 5.928 0 1.924.442 3.536 1.326 4.836.936 1.3 2.184 2.418 3.744 3.354a59.324 59.324 0 0 0 5.148 2.574c1.82-.78 3.432-1.638 4.836-2.574 1.456-.936 2.6-2.054 3.432-3.354.884-1.352 1.326-2.964 1.326-4.836 0-2.6-.91-4.576-2.73-5.928-1.82-1.404-4.238-2.106-7.254-2.106ZM315 840.38c-.707 0-1.34.127-1.9.38-.56.24-1.04.6-1.44 1.08-.387.48-.687 1.06-.9 1.74-.2.68-.3 1.447-.3 2.3 0 1.12.167 2.093.5 2.92.333.813.833 1.44 1.5 1.88.667.44 1.507.66 2.52.66.613 0 1.2-.053 1.76-.16.573-.12 1.153-.273 1.74-.46v1.86a8.62 8.62 0 0 1-1.72.46c-.587.107-1.267.16-2.04.16-1.453 0-2.667-.3-3.64-.9-.96-.6-1.68-1.453-2.16-2.56-.48-1.107-.72-2.4-.72-3.88 0-1.08.147-2.067.44-2.96.307-.907.747-1.687 1.32-2.34a5.64 5.64 0 0 1 2.12-1.5c.853-.36 1.833-.54 2.94-.54.72 0 1.427.08 2.12.24.693.147 1.32.36 1.88.64l-.8 1.8c-.467-.213-.973-.4-1.52-.56a5.475 5.475 0 0 0-1.7-.26ZM331.256 853l-1.52-4.12h-5.52l-1.52 4.12h-2.24l5.42-14.34h2.24l5.4 14.34h-2.26Zm-3.56-10.02a9.005 9.005 0 0 0-.22-.66l-.28-.92c-.093-.32-.166-.58-.22-.78-.066.267-.146.56-.24.88-.08.307-.16.593-.24.86-.08.253-.146.46-.2.62l-1.44 4.02h4.28l-1.44-4.02Zm8.546 10.02v-14.28h2.16v12.42h6.1V853h-8.26Zm23.732-7.16c0 1.107-.14 2.113-.42 3.02a6.26 6.26 0 0 1-1.24 2.32c-.546.653-1.24 1.153-2.08 1.5-.826.347-1.793.52-2.9.52-1.133 0-2.12-.173-2.96-.52a5.799 5.799 0 0 1-2.08-1.5c-.546-.653-.953-1.433-1.22-2.34-.266-.907-.4-1.913-.4-3.02 0-1.467.24-2.747.72-3.84s1.214-1.947 2.2-2.56c1-.613 2.254-.92 3.76-.92 1.467 0 2.687.307 3.66.92.987.6 1.727 1.453 2.22 2.56.494 1.093.74 2.38.74 3.86Zm-11.02 0c0 1.147.154 2.133.46 2.96.307.813.787 1.447 1.44 1.9.654.44 1.48.66 2.48.66 1.014 0 1.84-.22 2.48-.66.64-.453 1.114-1.087 1.42-1.9.307-.827.46-1.813.46-2.96 0-1.72-.346-3.06-1.04-4.02-.68-.973-1.78-1.46-3.3-1.46-1.013 0-1.846.22-2.5.66-.653.44-1.133 1.067-1.44 1.88-.306.813-.46 1.793-.46 2.94Zm18.923-7.12c1.227 0 2.234.153 3.02.46.787.307 1.374.767 1.76 1.38.387.6.58 1.36.58 2.28 0 .733-.14 1.353-.42 1.86-.266.493-.613.9-1.04 1.22a6.278 6.278 0 0 1-1.34.74l4 6.34h-2.48l-3.44-5.78h-2.48V853h-2.16v-14.28h4Zm-.14 1.84h-1.7v4.86h1.8c.734 0 1.334-.093 1.8-.28.48-.187.827-.467 1.04-.84.227-.373.34-.833.34-1.38 0-.573-.12-1.027-.36-1.36-.226-.347-.586-.6-1.08-.76-.48-.16-1.093-.24-1.84-.24ZM381.734 853h-5.54v-1.24l1.7-.5v-10.78l-1.7-.52v-1.24h5.54v1.24l-1.68.52v10.78l1.68.5V853Zm11.51 0h-8.04v-14.28h8.04v1.84h-5.88v4.08h5.52v1.82h-5.52v4.68h5.88V853Zm12.093-3.86c0 .853-.207 1.58-.62 2.18-.414.6-1.007 1.067-1.78 1.4-.774.32-1.694.48-2.76.48-.52 0-1.02-.033-1.5-.1a9.512 9.512 0 0 1-1.34-.24 5.578 5.578 0 0 1-1.1-.4v-2.04c.533.24 1.16.46 1.88.66.72.187 1.453.28 2.2.28.64 0 1.173-.087 1.6-.26.426-.173.746-.413.96-.72.213-.307.32-.667.32-1.08 0-.44-.114-.807-.34-1.1-.214-.307-.554-.587-1.02-.84-.454-.267-1.067-.547-1.84-.84-.534-.2-1.02-.42-1.46-.66a5.746 5.746 0 0 1-1.14-.88 3.511 3.511 0 0 1-.74-1.16c-.174-.44-.26-.953-.26-1.54 0-.787.193-1.46.58-2.02.4-.56.946-.987 1.64-1.28.693-.307 1.5-.46 2.42-.46.773 0 1.486.08 2.14.24a9.92 9.92 0 0 1 1.9.62l-.68 1.78a12.81 12.81 0 0 0-1.66-.56 6.906 6.906 0 0 0-1.76-.22c-.534 0-.98.08-1.34.24-.36.16-.634.38-.82.66-.174.28-.26.607-.26.98 0 .44.1.807.3 1.1.2.293.52.567.96.82.44.24 1.02.507 1.74.8.8.307 1.48.64 2.04 1 .573.36 1.006.793 1.3 1.3.293.493.44 1.113.44 1.86Zm-63.825 93.868c1.699 0 3.117.159 4.256.476 1.157.317 2.025.849 2.604 1.596.597.728.896 1.699.896 2.912 0 .784-.14 1.484-.42 2.1a4.024 4.024 0 0 1-1.232 1.512c-.523.392-1.176.653-1.96.784v.14a6.534 6.534 0 0 1 2.156.728 3.728 3.728 0 0 1 1.512 1.484c.373.653.56 1.503.56 2.548 0 1.213-.289 2.249-.868 3.108-.56.84-1.372 1.484-2.436 1.932-1.045.448-2.296.672-3.752.672h-7.168v-19.992h5.852Zm.504 8.344c1.568 0 2.641-.252 3.22-.756.597-.504.896-1.251.896-2.24 0-1.008-.355-1.727-1.064-2.156-.709-.429-1.839-.644-3.388-.644h-2.996v5.796h3.332Zm-3.332 2.464v6.664h3.668c1.624 0 2.753-.317 3.388-.952.635-.635.952-1.475.952-2.52 0-.635-.14-1.195-.42-1.68-.28-.485-.756-.859-1.428-1.12-.653-.261-1.549-.392-2.688-.392h-3.472Zm20.951-10.808c2.613 0 4.517.532 5.712 1.596 1.195 1.045 1.792 2.511 1.792 4.396 0 .84-.14 1.643-.42 2.408a5.36 5.36 0 0 1-1.316 2.072c-.616.597-1.437 1.073-2.464 1.428-1.008.336-2.249.504-3.724.504h-2.156V963h-3.024v-19.992h5.6Zm-.224 2.548h-2.352v7.308h1.82c1.139 0 2.091-.121 2.856-.364.765-.261 1.335-.663 1.708-1.204.392-.56.588-1.288.588-2.184 0-1.195-.373-2.081-1.12-2.66-.728-.597-1.895-.896-3.5-.896ZM379.888 963l-6.048-16.996h-.112c.018.373.046.877.084 1.512.037.635.065 1.316.084 2.044.018.728.028 1.447.028 2.156V963h-2.744v-19.992h4.312l5.74 16.044h.112l5.908-16.044h4.312V963h-2.94v-11.452c0-.653.009-1.325.028-2.016.037-.709.065-1.372.084-1.988.037-.616.065-1.12.084-1.512h-.112L382.492 963h-2.604ZM124 875h283v5H124z" fill="#3C4043" fill-opacity=".2"/><path d="M151.786 940.147a7.322 7.322 0 0 0-5.186-2.149 7.331 7.331 0 0 0-5.187 2.149L140 941.56l-1.414-1.413a7.335 7.335 0 0 0-10.373 10.373l1.413 1.414L140 962.307l10.373-10.373 1.413-1.414a7.325 7.325 0 0 0 1.591-7.993 7.33 7.33 0 0 0-1.591-2.38v0Zm-11.787-108.481 9.334 25.333-9.334-5.333-9.333 5.333 9.333-25.333Z" stroke="#3C4043" stroke-opacity=".2" stroke-width="2" stroke-linecap="round" stroke-linejoin="round"/></g><defs><linearGradient id="b" x1="1339" y1="134" x2="1208.44" y2="134" gradientUnits="userSpaceOnUse"><stop offset="0" stop-color="#E1E5EB"/><stop offset="1" stop-color="#E1E5EB" stop-opacity="0"/></linearGradient></defs></svg>
