<svg width="1920" height="1080" fill="none" xmlns="http://www.w3.org/2000/svg"><path d="M225.08 830.914c0 2.196-.162 4.392-.486 6.588a26.63 26.63 0 0 1-1.566 6.156 17.384 17.384 0 0 1-3.132 5.13c-1.332 1.476-3.024 2.646-5.076 3.51-2.052.828-4.536 1.242-7.452 1.242-.72 0-1.566-.054-2.538-.162-.936-.072-1.71-.198-2.322-.378v-4.05c.648.216 1.404.396 2.268.54.864.108 1.692.162 2.484.162 2.52 0 4.59-.414 6.21-1.242 1.656-.828 2.97-1.944 3.942-3.348.972-1.44 1.674-3.096 2.106-4.968.432-1.908.684-3.906.756-5.994h-.324a10.107 10.107 0 0 1-2.052 2.268c-.828.684-1.836 1.224-3.024 1.62-1.152.396-2.52.594-4.104.594-2.196 0-4.14-.45-5.832-1.35-1.656-.936-2.952-2.268-3.888-3.996-.9-1.728-1.35-3.834-1.35-6.318 0-2.7.504-5.022 1.512-6.966 1.044-1.944 2.484-3.438 4.32-4.482 1.836-1.044 3.996-1.566 6.48-1.566 1.836 0 3.546.36 5.13 1.08 1.584.684 2.97 1.728 4.158 3.132 1.188 1.404 2.106 3.168 2.754 5.292.684 2.124 1.026 4.626 1.026 7.506ZM212.012 817.9c-2.232 0-4.068.738-5.508 2.214-1.404 1.476-2.106 3.726-2.106 6.75 0 2.484.594 4.446 1.782 5.886 1.224 1.404 3.096 2.106 5.616 2.106 1.728 0 3.222-.342 4.482-1.026 1.26-.72 2.232-1.62 2.916-2.7.72-1.08 1.08-2.196 1.08-3.348 0-1.152-.18-2.304-.54-3.456a10.282 10.282 0 0 0-1.512-3.24 7.643 7.643 0 0 0-2.592-2.322c-1.044-.576-2.25-.864-3.618-.864Zm35.06 35.1h-4.644V823.408c.036-.72.072-1.386.108-1.998l.108-1.998a26.124 26.124 0 0 1-1.566 1.458l-1.782 1.512-4.104 3.348-2.484-3.186 10.422-8.1h3.942V853Zm39.813 0h-25.488v-3.942l10.098-10.206c1.944-1.944 3.582-3.672 4.914-5.184 1.332-1.512 2.34-2.988 3.024-4.428.684-1.476 1.026-3.078 1.026-4.806 0-2.124-.63-3.726-1.89-4.806-1.26-1.116-2.898-1.674-4.914-1.674-1.872 0-3.528.324-4.968.972-1.404.648-2.844 1.548-4.32 2.7l-2.538-3.186a21.63 21.63 0 0 1 3.294-2.322 18.145 18.145 0 0 1 3.942-1.62c1.44-.396 2.97-.594 4.59-.594 2.412 0 4.482.414 6.21 1.242 1.728.828 3.06 2.016 3.996 3.564.972 1.512 1.458 3.33 1.458 5.454 0 1.512-.234 2.952-.702 4.32-.468 1.332-1.134 2.646-1.998 3.942-.864 1.296-1.908 2.61-3.132 3.942a106.696 106.696 0 0 1-4.05 4.158l-8.046 7.938v.216h19.494V853ZM213.69 963h-6.708v-42.744c.052-1.04.104-2.002.156-2.886.052-.936.104-1.898.156-2.886a37.735 37.735 0 0 1-2.262 2.106c-.676.572-1.534 1.3-2.574 2.184l-5.928 4.836-3.588-4.602 15.054-11.7h5.694V963Zm60.003-12.636h-8.112V963h-6.63v-12.636h-26.676v-5.85l26.208-37.518h7.098v37.206h8.112v6.162Zm-14.742-23.712v-3.666c.052-1.144.104-2.21.156-3.198.052-.988.078-1.924.078-2.808.052-.936.104-1.82.156-2.652h-.312a35.537 35.537 0 0 1-1.56 3.198c-.624 1.144-1.222 2.106-1.794 2.886l-16.692 23.79h19.968v-17.55Zm38.552-20.124c3.276 0 6.162.52 8.658 1.56 2.496.988 4.446 2.47 5.85 4.446 1.456 1.976 2.184 4.42 2.184 7.332 0 2.236-.494 4.186-1.482 5.85-.936 1.664-2.21 3.146-3.822 4.446a34.03 34.03 0 0 1-5.304 3.354c2.288 1.092 4.368 2.34 6.24 3.744 1.872 1.352 3.354 2.938 4.446 4.758 1.144 1.82 1.716 4.004 1.716 6.552 0 3.12-.754 5.824-2.262 8.112-1.508 2.236-3.64 3.978-6.396 5.226-2.704 1.248-5.902 1.872-9.594 1.872-4.004 0-7.41-.598-10.218-1.794-2.756-1.196-4.862-2.886-6.318-5.07-1.404-2.236-2.106-4.94-2.106-8.112 0-2.548.52-4.758 1.56-6.63a16.532 16.532 0 0 1 4.29-4.836 30.13 30.13 0 0 1 5.694-3.432 31.723 31.723 0 0 1-4.992-3.51 16.655 16.655 0 0 1-3.51-4.602c-.832-1.716-1.248-3.718-1.248-6.006 0-2.86.728-5.252 2.184-7.176 1.456-1.976 3.432-3.484 5.928-4.524s5.33-1.56 8.502-1.56Zm-11.7 42.354c0 2.704.962 4.966 2.886 6.786 1.924 1.768 4.888 2.652 8.892 2.652 2.548 0 4.68-.416 6.396-1.248 1.716-.832 3.016-1.976 3.9-3.432.936-1.456 1.404-3.12 1.404-4.992 0-1.82-.494-3.406-1.482-4.758-.936-1.404-2.288-2.652-4.056-3.744-1.716-1.092-3.77-2.08-6.162-2.964l-1.248-.468c-2.288.988-4.212 2.054-5.772 3.198-1.56 1.144-2.756 2.444-3.588 3.9-.78 1.456-1.17 3.146-1.17 5.07Zm11.622-36.816c-2.86 0-5.226.702-7.098 2.106-1.82 1.352-2.73 3.328-2.73 5.928 0 1.924.442 3.536 1.326 4.836.936 1.3 2.184 2.418 3.744 3.354a59.324 59.324 0 0 0 5.148 2.574c1.82-.78 3.432-1.638 4.836-2.574 1.456-.936 2.6-2.054 3.432-3.354.884-1.352 1.326-2.964 1.326-4.836 0-2.6-.91-4.576-2.73-5.928-1.82-1.404-4.238-2.106-7.254-2.106ZM1664.06 950.364h-8.12V963h-6.63v-12.636h-26.67v-5.85l26.21-37.518h7.09v37.206h8.12v6.162Zm-14.75-23.712v-3.666c.06-1.144.11-2.21.16-3.198s.08-1.924.08-2.808c.05-.936.1-1.82.15-2.652h-.31c-.41.988-.93 2.054-1.56 3.198-.62 1.144-1.22 2.106-1.79 2.886l-16.69 23.79h19.96v-17.55Zm57.12 8.424c0 4.524-.34 8.554-1.01 12.09-.68 3.536-1.77 6.552-3.28 9.048-1.46 2.444-3.38 4.316-5.77 5.616-2.34 1.3-5.18 1.95-8.5 1.95-4.16 0-7.62-1.144-10.38-3.432-2.7-2.288-4.73-5.564-6.08-9.828-1.3-4.316-1.95-9.464-1.95-15.444 0-6.032.6-11.18 1.79-15.444 1.25-4.264 3.23-7.514 5.93-9.75 2.7-2.288 6.27-3.432 10.69-3.432 4.16 0 7.61 1.144 10.37 3.432 2.76 2.236 4.81 5.486 6.16 9.75 1.35 4.264 2.03 9.412 2.03 15.444Zm-30.11 0c0 5.096.37 9.334 1.09 12.714.78 3.38 2.01 5.928 3.67 7.644 1.72 1.664 3.98 2.496 6.79 2.496 2.8 0 5.04-.832 6.7-2.496 1.72-1.664 2.97-4.186 3.75-7.566.78-3.432 1.17-7.696 1.17-12.792s-.39-9.308-1.17-12.636c-.78-3.38-2.03-5.902-3.75-7.566-1.66-1.716-3.9-2.574-6.7-2.574-2.81 0-5.07.858-6.79 2.574-1.66 1.664-2.89 4.186-3.67 7.566-.72 3.328-1.09 7.54-1.09 12.636ZM162.56 234h-36.816v-5.694l14.586-14.742c2.808-2.808 5.174-5.304 7.098-7.488 1.924-2.184 3.38-4.316 4.368-6.396.988-2.132 1.482-4.446 1.482-6.942 0-3.068-.91-5.382-2.73-6.942-1.82-1.612-4.186-2.418-7.098-2.418-2.704 0-5.096.468-7.176 1.404-2.028.936-4.108 2.236-6.24 3.9l-3.666-4.602a31.244 31.244 0 0 1 4.758-3.354 26.21 26.21 0 0 1 5.694-2.34c2.08-.572 4.29-.858 6.63-.858 3.484 0 6.474.598 8.97 1.794 2.496 1.196 4.42 2.912 5.772 5.148 1.404 2.184 2.106 4.81 2.106 7.878 0 2.184-.338 4.264-1.014 6.24-.676 1.924-1.638 3.822-2.886 5.694-1.248 1.872-2.756 3.77-4.524 5.694a154.116 154.116 0 0 1-5.85 6.006l-11.622 11.466v.312h28.158V234Zm44.637 0h-36.816v-5.694l14.586-14.742c2.808-2.808 5.174-5.304 7.098-7.488 1.924-2.184 3.38-4.316 4.368-6.396.988-2.132 1.482-4.446 1.482-6.942 0-3.068-.91-5.382-2.73-6.942-1.82-1.612-4.186-2.418-7.098-2.418-2.704 0-5.096.468-7.176 1.404-2.028.936-4.108 2.236-6.24 3.9l-3.666-4.602a31.244 31.244 0 0 1 4.758-3.354 26.21 26.21 0 0 1 5.694-2.34c2.08-.572 4.29-.858 6.63-.858 3.484 0 6.474.598 8.97 1.794 2.496 1.196 4.42 2.912 5.772 5.148 1.404 2.184 2.106 4.81 2.106 7.878 0 2.184-.338 4.264-1.014 6.24-.676 1.924-1.638 3.822-2.886 5.694-1.248 1.872-2.756 3.77-4.524 5.694a154.116 154.116 0 0 1-5.85 6.006l-11.622 11.466v.312h28.158V234Zm9.692-4.212c0-1.924.468-3.276 1.404-4.056.936-.78 2.054-1.17 3.354-1.17 1.352 0 2.496.39 3.432 1.17.988.78 1.482 2.132 1.482 4.056 0 1.872-.494 3.224-1.482 4.056-.936.832-2.08 1.248-3.432 1.248-1.3 0-2.418-.416-3.354-1.248-.936-.832-1.404-2.184-1.404-4.056ZM259.835 234h-6.708v-42.744c.052-1.04.104-2.002.156-2.886.052-.936.104-1.898.156-2.886a37.735 37.735 0 0 1-2.262 2.106c-.676.572-1.534 1.3-2.574 2.184l-5.928 4.836-3.588-4.602 15.054-11.7h5.694V234Zm57.506 0h-36.816v-5.694l14.586-14.742c2.808-2.808 5.174-5.304 7.098-7.488 1.924-2.184 3.38-4.316 4.368-6.396.988-2.132 1.482-4.446 1.482-6.942 0-3.068-.91-5.382-2.73-6.942-1.82-1.612-4.186-2.418-7.098-2.418-2.704 0-5.096.468-7.176 1.404-2.028.936-4.108 2.236-6.24 3.9l-3.666-4.602a31.244 31.244 0 0 1 4.758-3.354 26.21 26.21 0 0 1 5.694-2.34c2.08-.572 4.29-.858 6.63-.858 3.484 0 6.474.598 8.97 1.794 2.496 1.196 4.42 2.912 5.772 5.148 1.404 2.184 2.106 4.81 2.106 7.878 0 2.184-.338 4.264-1.014 6.24-.676 1.924-1.638 3.822-2.886 5.694-1.248 1.872-2.756 3.77-4.524 5.694a154.116 154.116 0 0 1-5.85 6.006l-11.622 11.466v.312h28.158V234Zm44.637 0h-36.816v-5.694l14.586-14.742c2.808-2.808 5.174-5.304 7.098-7.488 1.924-2.184 3.38-4.316 4.368-6.396.988-2.132 1.482-4.446 1.482-6.942 0-3.068-.91-5.382-2.73-6.942-1.82-1.612-4.186-2.418-7.098-2.418-2.704 0-5.096.468-7.176 1.404-2.028.936-4.108 2.236-6.24 3.9l-3.666-4.602a31.244 31.244 0 0 1 4.758-3.354 26.21 26.21 0 0 1 5.694-2.34c2.08-.572 4.29-.858 6.63-.858 3.484 0 6.474.598 8.97 1.794 2.496 1.196 4.42 2.912 5.772 5.148 1.404 2.184 2.106 4.81 2.106 7.878 0 2.184-.338 4.264-1.014 6.24-.676 1.924-1.638 3.822-2.886 5.694-1.248 1.872-2.756 3.77-4.524 5.694a154.116 154.116 0 0 1-5.85 6.006l-11.622 11.466v.312h28.158V234ZM144.19 130.08c0 2.4-.45 4.41-1.35 6.03-.9 1.62-2.2 2.84-3.9 3.66-1.68.82-3.71 1.23-6.09 1.23h-6v-21.42h6.63c2.18 0 4.07.4 5.67 1.2 1.6.8 2.84 1.98 3.72 3.54.88 1.54 1.32 3.46 1.32 5.76Zm-3.39.09c0-1.8-.29-3.28-.87-4.44-.58-1.16-1.44-2.02-2.58-2.58-1.12-.56-2.48-.84-4.08-.84h-3.18v15.96h2.61c2.7 0 4.72-.68 6.06-2.04 1.36-1.36 2.04-3.38 2.04-6.06ZM155.452 141h-8.31v-1.86l2.55-.75v-16.17l-2.55-.78v-1.86h8.31v1.86l-2.52.78v16.17l2.52.75V141Zm16.305-5.79c0 1.28-.31 2.37-.93 3.27-.62.9-1.51 1.6-2.67 2.1-1.16.48-2.54.72-4.14.72-.78 0-1.53-.05-2.25-.15-.72-.08-1.39-.2-2.01-.36-.62-.16-1.17-.36-1.65-.6v-3.06c.8.36 1.74.69 2.82.99 1.08.28 2.18.42 3.3.42.96 0 1.76-.13 2.4-.39.64-.26 1.12-.62 1.44-1.08.32-.46.48-1 .48-1.62 0-.66-.17-1.21-.51-1.65-.32-.46-.83-.88-1.53-1.26-.68-.4-1.6-.82-2.76-1.26-.8-.3-1.53-.63-2.19-.99-.64-.38-1.21-.82-1.71-1.32a5.28 5.28 0 0 1-1.11-1.74c-.26-.66-.39-1.43-.39-2.31 0-1.18.29-2.19.87-3.03.6-.84 1.42-1.48 2.46-1.92 1.04-.46 2.25-.69 3.63-.69 1.16 0 2.23.12 3.21.36 1 .22 1.95.53 2.85.93l-1.02 2.67c-.82-.34-1.65-.62-2.49-.84-.84-.22-1.72-.33-2.64-.33-.8 0-1.47.12-2.01.36-.54.24-.95.57-1.23.99-.26.42-.39.91-.39 1.47 0 .66.15 1.21.45 1.65.3.44.78.85 1.44 1.23.66.36 1.53.76 2.61 1.2 1.2.46 2.22.96 3.06 1.5.86.54 1.51 1.19 1.95 1.95.44.74.66 1.67.66 2.79Zm11.395 5.79h-3.24v-18.63h-6.42v-2.79h16.08v2.79h-6.42V141Zm20.944 0-2.28-6.18h-8.28l-2.28 6.18h-3.36l8.13-21.51h3.36l8.1 21.51h-3.39Zm-5.34-15.03c-.06-.22-.17-.55-.33-.99l-.42-1.38c-.14-.48-.25-.87-.33-1.17-.1.4-.22.84-.36 1.32-.12.46-.24.89-.36 1.29-.12.38-.22.69-.3.93l-2.16 6.03h6.42l-2.16-6.03ZM227.955 141h-3.93l-10.83-17.31h-.12c.02.4.04.83.06 1.29.04.46.07.95.09 1.47l.06 1.56c.02.52.03 1.05.03 1.59V141h-2.94v-21.42h3.9l10.8 17.22h.09c-.02-.3-.04-.67-.06-1.11-.02-.46-.04-.95-.06-1.47 0-.52-.01-1.05-.03-1.59-.02-.54-.04-1.05-.06-1.53v-11.52h3V141Zm14.861-18.93c-1.06 0-2.01.19-2.85.57-.84.36-1.56.9-2.16 1.62-.58.72-1.03 1.59-1.35 2.61-.3 1.02-.45 2.17-.45 3.45 0 1.68.25 3.14.75 4.38.5 1.22 1.25 2.16 2.25 2.82 1 .66 2.26.99 3.78.99.92 0 1.8-.08 2.64-.24.86-.18 1.73-.41 2.61-.69v2.79c-.84.32-1.7.55-2.58.69-.88.16-1.9.24-3.06.24-2.18 0-4-.45-5.46-1.35-1.44-.9-2.52-2.18-3.24-3.84-.72-1.66-1.08-3.6-1.08-5.82 0-1.62.22-3.1.66-4.44.46-1.36 1.12-2.53 1.98-3.51.86-.98 1.92-1.73 3.18-2.25 1.28-.54 2.75-.81 4.41-.81 1.08 0 2.14.12 3.18.36 1.04.22 1.98.54 2.82.96l-1.2 2.7c-.7-.32-1.46-.6-2.28-.84a8.2 8.2 0 0 0-2.55-.39ZM264.711 141h-12.06v-21.42h12.06v2.76h-8.82v6.12h8.28v2.73h-8.28v7.02h8.82V141ZM385.18 233l-6.48-18.21h-.12c.02.4.05.94.09 1.62.04.68.07 1.41.09 2.19.02.78.03 1.55.03 2.31V233h-2.94v-21.42h4.62l6.15 17.19h.12l6.33-17.19h4.62V233h-3.15v-12.27c0-.7.01-1.42.03-2.16.04-.76.07-1.47.09-2.13.04-.66.07-1.2.09-1.62h-.12L387.97 233h-2.79ZM315 840.38c-.707 0-1.34.127-1.9.38-.56.24-1.04.6-1.44 1.08-.387.48-.687 1.06-.9 1.74-.2.68-.3 1.447-.3 2.3 0 1.12.167 2.093.5 2.92.333.813.833 1.44 1.5 1.88.667.44 1.507.66 2.52.66.613 0 1.2-.053 1.76-.16.573-.12 1.153-.273 1.74-.46v1.86a8.62 8.62 0 0 1-1.72.46c-.587.107-1.267.16-2.04.16-1.453 0-2.667-.3-3.64-.9-.96-.6-1.68-1.453-2.16-2.56-.48-1.107-.72-2.4-.72-3.88 0-1.08.147-2.067.44-2.96.307-.907.747-1.687 1.32-2.34a5.64 5.64 0 0 1 2.12-1.5c.853-.36 1.833-.54 2.94-.54.72 0 1.427.08 2.12.24.693.147 1.32.36 1.88.64l-.8 1.8c-.467-.213-.973-.4-1.52-.56a5.475 5.475 0 0 0-1.7-.26ZM331.256 853l-1.52-4.12h-5.52l-1.52 4.12h-2.24l5.42-14.34h2.24l5.4 14.34h-2.26Zm-3.56-10.02a9.005 9.005 0 0 0-.22-.66l-.28-.92c-.093-.32-.166-.58-.22-.78-.066.267-.146.56-.24.88-.08.307-.16.593-.24.86-.08.253-.146.46-.2.62l-1.44 4.02h4.28l-1.44-4.02Zm8.546 10.02v-14.28h2.16v12.42h6.1V853h-8.26Zm23.732-7.16c0 1.107-.14 2.113-.42 3.02a6.26 6.26 0 0 1-1.24 2.32c-.546.653-1.24 1.153-2.08 1.5-.826.347-1.793.52-2.9.52-1.133 0-2.12-.173-2.96-.52a5.799 5.799 0 0 1-2.08-1.5c-.546-.653-.953-1.433-1.22-2.34-.266-.907-.4-1.913-.4-3.02 0-1.467.24-2.747.72-3.84s1.214-1.947 2.2-2.56c1-.613 2.254-.92 3.76-.92 1.467 0 2.687.307 3.66.92.987.6 1.727 1.453 2.22 2.56.494 1.093.74 2.38.74 3.86Zm-11.02 0c0 1.147.154 2.133.46 2.96.307.813.787 1.447 1.44 1.9.654.44 1.48.66 2.48.66 1.014 0 1.84-.22 2.48-.66.64-.453 1.114-1.087 1.42-1.9.307-.827.46-1.813.46-2.96 0-1.72-.346-3.06-1.04-4.02-.68-.973-1.78-1.46-3.3-1.46-1.013 0-1.846.22-2.5.66-.653.44-1.133 1.067-1.44 1.88-.306.813-.46 1.793-.46 2.94Zm18.923-7.12c1.227 0 2.234.153 3.02.46.787.307 1.374.767 1.76 1.38.387.6.58 1.36.58 2.28 0 .733-.14 1.353-.42 1.86-.266.493-.613.9-1.04 1.22a6.278 6.278 0 0 1-1.34.74l4 6.34h-2.48l-3.44-5.78h-2.48V853h-2.16v-14.28h4Zm-.14 1.84h-1.7v4.86h1.8c.734 0 1.334-.093 1.8-.28.48-.187.827-.467 1.04-.84.227-.373.34-.833.34-1.38 0-.573-.12-1.027-.36-1.36-.226-.347-.586-.6-1.08-.76-.48-.16-1.093-.24-1.84-.24ZM381.734 853h-5.54v-1.24l1.7-.5v-10.78l-1.7-.52v-1.24h5.54v1.24l-1.68.52v10.78l1.68.5V853Zm11.51 0h-8.04v-14.28h8.04v1.84h-5.88v4.08h5.52v1.82h-5.52v4.68h5.88V853Zm12.093-3.86c0 .853-.207 1.58-.62 2.18-.414.6-1.007 1.067-1.78 1.4-.774.32-1.694.48-2.76.48-.52 0-1.02-.033-1.5-.1a9.512 9.512 0 0 1-1.34-.24 5.578 5.578 0 0 1-1.1-.4v-2.04c.533.24 1.16.46 1.88.66.72.187 1.453.28 2.2.28.64 0 1.173-.087 1.6-.26.426-.173.746-.413.96-.72.213-.307.32-.667.32-1.08 0-.44-.114-.807-.34-1.1-.214-.307-.554-.587-1.02-.84-.454-.267-1.067-.547-1.84-.84-.534-.2-1.02-.42-1.46-.66a5.746 5.746 0 0 1-1.14-.88 3.511 3.511 0 0 1-.74-1.16c-.174-.44-.26-.953-.26-1.54 0-.787.193-1.46.58-2.02.4-.56.946-.987 1.64-1.28.693-.307 1.5-.46 2.42-.46.773 0 1.486.08 2.14.24a9.92 9.92 0 0 1 1.9.62l-.68 1.78a12.81 12.81 0 0 0-1.66-.56 6.906 6.906 0 0 0-1.76-.22c-.534 0-.98.08-1.34.24-.36.16-.634.38-.82.66-.174.28-.26.607-.26.98 0 .44.1.807.3 1.1.2.293.52.567.96.82.44.24 1.02.507 1.74.8.8.307 1.48.64 2.04 1 .573.36 1.006.793 1.3 1.3.293.493.44 1.113.44 1.86ZM341.512 943.008c1.699 0 3.117.159 4.256.476 1.157.317 2.025.849 2.604 1.596.597.728.896 1.699.896 2.912 0 .784-.14 1.484-.42 2.1a4.024 4.024 0 0 1-1.232 1.512c-.523.392-1.176.653-1.96.784v.14a6.534 6.534 0 0 1 2.156.728 3.728 3.728 0 0 1 1.512 1.484c.373.653.56 1.503.56 2.548 0 1.213-.289 2.249-.868 3.108-.56.84-1.372 1.484-2.436 1.932-1.045.448-2.296.672-3.752.672h-7.168v-19.992h5.852Zm.504 8.344c1.568 0 2.641-.252 3.22-.756.597-.504.896-1.251.896-2.24 0-1.008-.355-1.727-1.064-2.156-.709-.429-1.839-.644-3.388-.644h-2.996v5.796h3.332Zm-3.332 2.464v6.664h3.668c1.624 0 2.753-.317 3.388-.952.635-.635.952-1.475.952-2.52 0-.635-.14-1.195-.42-1.68-.28-.485-.756-.859-1.428-1.12-.653-.261-1.549-.392-2.688-.392h-3.472Zm20.951-10.808c2.613 0 4.517.532 5.712 1.596 1.195 1.045 1.792 2.511 1.792 4.396 0 .84-.14 1.643-.42 2.408a5.36 5.36 0 0 1-1.316 2.072c-.616.597-1.437 1.073-2.464 1.428-1.008.336-2.249.504-3.724.504h-2.156V963h-3.024v-19.992h5.6Zm-.224 2.548h-2.352v7.308h1.82c1.139 0 2.091-.121 2.856-.364.765-.261 1.335-.663 1.708-1.204.392-.56.588-1.288.588-2.184 0-1.195-.373-2.081-1.12-2.66-.728-.597-1.895-.896-3.5-.896ZM379.888 963l-6.048-16.996h-.112c.018.373.046.877.084 1.512.037.635.065 1.316.084 2.044.018.728.028 1.447.028 2.156V963h-2.744v-19.992h4.312l5.74 16.044h.112l5.908-16.044h4.312V963h-2.94v-11.452c0-.653.009-1.325.028-2.016.037-.709.065-1.372.084-1.988.037-.616.065-1.12.084-1.512h-.112L382.492 963h-2.604ZM1739.7 963h-3.5l-6.56-9.212-1.96 1.624V963h-3.02v-19.992h3.02v9.66c.49-.579.97-1.148 1.46-1.708s.97-1.12 1.46-1.68l5.4-6.272h3.47l-7.64 8.736L1739.7 963Zm8.25-19.992c2.61 0 4.52.532 5.71 1.596 1.2 1.045 1.8 2.511 1.8 4.396 0 .84-.14 1.643-.42 2.408a5.43 5.43 0 0 1-1.32 2.072c-.62.597-1.44 1.073-2.46 1.428-1.01.336-2.25.504-3.73.504h-2.15V963h-3.03v-19.992h5.6Zm-.22 2.548h-2.35v7.308h1.82c1.13 0 2.09-.121 2.85-.364.77-.261 1.34-.663 1.71-1.204.39-.56.59-1.288.59-2.184 0-1.195-.38-2.081-1.12-2.66-.73-.597-1.9-.896-3.5-.896ZM1775.09 963h-3.02v-9.128h-9.55V963h-3.02v-19.992h3.02v8.288h9.55v-8.288h3.02V963ZM1660.17 198.006c1.25 0 2.27.161 3.07.483.81.308 1.41.777 1.81 1.407.39.63.58 1.421.58 2.373 0 .798-.14 1.463-.44 1.995a3.7 3.7 0 0 1-1.13 1.281c-.45.308-.92.553-1.43.735l4.12 6.72h-2.21l-3.63-6.195h-2.98V213h-1.89v-14.994h4.13Zm-.1 1.638h-2.14v5.565h2.24c.82 0 1.48-.105 2-.315.52-.224.9-.546 1.13-.966.26-.42.38-.945.38-1.575 0-.658-.13-1.183-.4-1.575-.25-.392-.64-.679-1.17-.861-.54-.182-1.21-.273-2.04-.273ZM1678.51 213l-1.81-4.641h-5.94l-1.79 4.641h-1.91l5.86-15.057h1.7l5.84 15.057h-1.95Zm-4.05-10.857a6.135 6.135 0 0 1-.21-.609c-.1-.294-.2-.595-.3-.903a8.253 8.253 0 0 0-.21-.735c-.07.28-.15.567-.23.861-.07.28-.15.539-.23.777-.07.238-.13.441-.19.609l-1.7 4.536h4.75l-1.68-4.536Zm14.07-2.688c-.8 0-1.52.14-2.16.42-.65.266-1.19.665-1.64 1.197-.45.518-.79 1.155-1.03 1.911-.24.742-.36 1.582-.36 2.52 0 1.232.19 2.303.57 3.213.39.91.96 1.61 1.72 2.1.77.49 1.73.735 2.88.735.66 0 1.28-.056 1.87-.168.58-.112 1.16-.252 1.72-.42v1.638c-.56.21-1.14.364-1.74.462-.59.098-1.3.147-2.13.147-1.52 0-2.8-.315-3.82-.945-1.02-.63-1.79-1.526-2.31-2.688-.5-1.162-.75-2.527-.75-4.095 0-1.134.15-2.17.46-3.108.32-.938.78-1.75 1.38-2.436a6.158 6.158 0 0 1 2.27-1.575c.9-.378 1.93-.567 3.09-.567.77 0 1.51.077 2.23.231.71.154 1.35.371 1.91.651l-.76 1.596c-.46-.21-.98-.399-1.55-.567a6.435 6.435 0 0 0-1.85-.252ZM1703.75 213h-8.38v-14.994h8.38v1.659h-6.49v4.683h6.11v1.638h-6.11v5.355h6.49V213Zm15.36 0-4.93-13.146h-.09c.03.28.05.637.06 1.071.03.434.05.91.07 1.428.01.504.02 1.022.02 1.554V213h-1.74v-14.994h2.79l4.62 12.285h.08l4.71-12.285h2.77V213h-1.87v-9.219c0-.49.01-.973.02-1.449.01-.49.04-.945.06-1.365.03-.434.05-.798.07-1.092h-.09l-5 13.125h-1.55Zm25.52-7.518c0 1.162-.15 2.219-.44 3.171-.3.938-.74 1.75-1.32 2.436a5.641 5.641 0 0 1-2.17 1.575c-.85.364-1.85.546-2.98.546-1.18 0-2.2-.182-3.07-.546a5.992 5.992 0 0 1-2.16-1.575c-.57-.686-1-1.505-1.28-2.457s-.42-2.009-.42-3.171c0-1.54.25-2.884.76-4.032.5-1.148 1.26-2.044 2.29-2.688 1.03-.644 2.33-.966 3.9-.966 1.5 0 2.76.322 3.78.966 1.02.63 1.79 1.526 2.31 2.688.53 1.148.8 2.499.8 4.053Zm-11.84 0c0 1.26.17 2.345.52 3.255.35.91.89 1.61 1.62 2.1.74.49 1.67.735 2.79.735 1.13 0 2.06-.245 2.77-.735.73-.49 1.27-1.19 1.62-2.1.35-.91.52-1.995.52-3.255 0-1.89-.39-3.367-1.17-4.431-.79-1.078-2.02-1.617-3.72-1.617-1.13 0-2.07.245-2.81.735-.73.476-1.27 1.169-1.62 2.079-.35.896-.52 1.974-.52 3.234Zm27.18-.126c0 1.68-.32 3.087-.95 4.221a5.962 5.962 0 0 1-2.67 2.562c-1.16.574-2.57.861-4.22.861h-4.18v-14.994h4.62c1.52 0 2.82.28 3.93.84a5.88 5.88 0 0 1 2.56 2.478c.6 1.078.91 2.422.91 4.032Zm-2 .063c0-1.33-.22-2.422-.67-3.276-.44-.854-1.08-1.484-1.93-1.89-.84-.42-1.87-.63-3.07-.63h-2.46v11.76h2.04c2.03 0 3.55-.497 4.56-1.491 1.02-1.008 1.53-2.499 1.53-4.473Zm13.7 7.581h-8.38v-14.994h8.38v1.659h-6.49v4.683h6.11v1.638h-6.11v5.355h6.49V213Z" fill="#1A73E8"/><path d="m1556.47 875.345-293.03 78.291c-4.52 1.207-3.65 7.864 1.03 7.864h293.03a4 4 0 0 0 4-4v-78.291c0-2.629-2.49-4.543-5.03-3.864Z" fill="#D1B7D4"/><path d="m1404.5 916-148.4 39.601c-3.39.905-2.73 5.899.78 5.899h147.62V916Z" fill="#FF6D7F"/><path d="M151.786 940.147a7.322 7.322 0 0 0-5.186-2.149 7.331 7.331 0 0 0-5.187 2.149L140 941.56l-1.414-1.413a7.335 7.335 0 0 0-10.373 10.373l1.413 1.414L140 962.307l10.373-10.373 1.413-1.414a7.325 7.325 0 0 0 1.591-7.993 7.33 7.33 0 0 0-1.591-2.38v0ZM139.999 831.666l9.334 25.333-9.334-5.333-9.333 5.333 9.333-25.333Z" stroke="#FF6D7F" stroke-width="2" stroke-linecap="round" stroke-linejoin="round"/><path d="M1629.85 123.58c2.8 0 4.84.57 6.12 1.71 1.28 1.12 1.92 2.69 1.92 4.71 0 .9-.15 1.76-.45 2.58-.28.82-.75 1.56-1.41 2.22-.66.64-1.54 1.15-2.64 1.53-1.08.36-2.41.54-3.99.54h-2.31V145h-3.24v-21.42h6Zm-.24 2.73h-2.52v7.83h1.95c1.22 0 2.24-.13 3.06-.39.82-.28 1.43-.71 1.83-1.29.42-.6.63-1.38.63-2.34 0-1.28-.4-2.23-1.2-2.85-.78-.64-2.03-.96-3.75-.96Zm18.61-2.73c1.84 0 3.35.23 4.53.69 1.18.46 2.06 1.15 2.64 2.07.58.9.87 2.04.87 3.42 0 1.1-.21 2.03-.63 2.79-.4.74-.92 1.35-1.56 1.83-.64.46-1.31.83-2.01 1.11l6 9.51h-3.72l-5.16-8.67h-3.72V145h-3.24v-21.42h6Zm-.21 2.76h-2.55v7.29h2.7c1.1 0 2-.14 2.7-.42.72-.28 1.24-.7 1.56-1.26.34-.56.51-1.25.51-2.07 0-.86-.18-1.54-.54-2.04-.34-.52-.88-.9-1.62-1.14-.72-.24-1.64-.36-2.76-.36Zm32.09 7.92c0 1.66-.21 3.17-.63 4.53-.4 1.34-1.02 2.5-1.86 3.48-.82.98-1.86 1.73-3.12 2.25-1.24.52-2.69.78-4.35.78-1.7 0-3.18-.26-4.44-.78-1.24-.54-2.28-1.29-3.12-2.25-.82-.98-1.43-2.15-1.83-3.51-.4-1.36-.6-2.87-.6-4.53 0-2.2.36-4.12 1.08-5.76.72-1.64 1.82-2.92 3.3-3.84 1.5-.92 3.38-1.38 5.64-1.38 2.2 0 4.03.46 5.49 1.38 1.48.9 2.59 2.18 3.33 3.84.74 1.64 1.11 3.57 1.11 5.79Zm-16.53 0c0 1.72.23 3.2.69 4.44.46 1.22 1.18 2.17 2.16 2.85.98.66 2.22.99 3.72.99 1.52 0 2.76-.33 3.72-.99.96-.68 1.67-1.63 2.13-2.85.46-1.24.69-2.72.69-4.44 0-2.58-.52-4.59-1.56-6.03-1.02-1.46-2.67-2.19-4.95-2.19-1.52 0-2.77.33-3.75.99-.98.66-1.7 1.6-2.16 2.82-.46 1.22-.69 2.69-.69 4.41Zm30.13-.78h7.74v10.68c-1.14.38-2.31.66-3.51.84-1.18.2-2.53.3-4.05.3-2.18 0-4.03-.44-5.55-1.32-1.5-.88-2.65-2.14-3.45-3.78-.78-1.64-1.17-3.61-1.17-5.91 0-2.24.44-4.18 1.32-5.82a9.25 9.25 0 0 1 3.78-3.81c1.66-.92 3.67-1.38 6.03-1.38 1.18 0 2.31.12 3.39.36 1.08.22 2.08.53 3 .93l-1.17 2.7c-.74-.34-1.57-.62-2.49-.84-.9-.24-1.85-.36-2.85-.36-1.58 0-2.95.34-4.11 1.02-1.14.66-2.02 1.61-2.64 2.85-.6 1.22-.9 2.68-.9 4.38 0 1.6.25 3.02.75 4.26.5 1.24 1.29 2.21 2.37 2.91 1.08.7 2.49 1.05 4.23 1.05.58 0 1.09-.02 1.53-.06.44-.06.84-.12 1.2-.18.38-.08.74-.15 1.08-.21v-5.82h-4.53v-2.79Zm18.86-9.9c1.84 0 3.35.23 4.53.69 1.18.46 2.06 1.15 2.64 2.07.58.9.87 2.04.87 3.42 0 1.1-.21 2.03-.63 2.79-.4.74-.92 1.35-1.56 1.83-.64.46-1.31.83-2.01 1.11l6 9.51h-3.72l-5.16-8.67h-3.72V145h-3.24v-21.42h6Zm-.21 2.76h-2.55v7.29h2.7c1.1 0 2-.14 2.7-.42.72-.28 1.24-.7 1.56-1.26.34-.56.51-1.25.51-2.07 0-.86-.18-1.54-.54-2.04-.34-.52-.88-.9-1.62-1.14-.72-.24-1.64-.36-2.76-.36ZM1737.6 145h-12.06v-21.42h12.06v2.76h-8.82v6.12h8.28v2.73h-8.28v7.02h8.82V145Zm16.94-5.79c0 1.28-.31 2.37-.93 3.27-.62.9-1.51 1.6-2.67 2.1-1.16.48-2.54.72-4.14.72-.78 0-1.53-.05-2.25-.15-.72-.08-1.39-.2-2.01-.36-.62-.16-1.17-.36-1.65-.6v-3.06c.8.36 1.74.69 2.82.99 1.08.28 2.18.42 3.3.42.96 0 1.76-.13 2.4-.39.64-.26 1.12-.62 1.44-1.08.32-.46.48-1 .48-1.62 0-.66-.17-1.21-.51-1.65-.32-.46-.83-.88-1.53-1.26-.68-.4-1.6-.82-2.76-1.26-.8-.3-1.53-.63-2.19-.99-.64-.38-1.21-.82-1.71-1.32a5.28 5.28 0 0 1-1.11-1.74c-.26-.66-.39-1.43-.39-2.31 0-1.18.29-2.19.87-3.03.6-.84 1.42-1.48 2.46-1.92 1.04-.46 2.25-.69 3.63-.69 1.16 0 2.23.12 3.21.36 1 .22 1.95.53 2.85.93l-1.02 2.67c-.82-.34-1.65-.62-2.49-.84-.84-.22-1.72-.33-2.64-.33-.8 0-1.47.12-2.01.36-.54.24-.95.57-1.23.99-.26.42-.39.91-.39 1.47 0 .66.15 1.21.45 1.65.3.44.78.85 1.44 1.23.66.36 1.53.76 2.61 1.2 1.2.46 2.22.96 3.06 1.5.86.54 1.51 1.19 1.95 1.95.44.74.66 1.67.66 2.79Zm16.49 0c0 1.28-.31 2.37-.93 3.27-.62.9-1.51 1.6-2.67 2.1-1.16.48-2.54.72-4.14.72-.78 0-1.53-.05-2.25-.15-.72-.08-1.39-.2-2.01-.36-.62-.16-1.17-.36-1.65-.6v-3.06c.8.36 1.74.69 2.82.99 1.08.28 2.18.42 3.3.42.96 0 1.76-.13 2.4-.39.64-.26 1.12-.62 1.44-1.08.32-.46.48-1 .48-1.62 0-.66-.17-1.21-.51-1.65-.32-.46-.83-.88-1.53-1.26-.68-.4-1.6-.82-2.76-1.26-.8-.3-1.53-.63-2.19-.99-.64-.38-1.21-.82-1.71-1.32a5.28 5.28 0 0 1-1.11-1.74c-.26-.66-.39-1.43-.39-2.31 0-1.18.29-2.19.87-3.03.6-.84 1.42-1.48 2.46-1.92 1.04-.46 2.25-.69 3.63-.69 1.16 0 2.23.12 3.21.36 1 .22 1.95.53 2.85.93l-1.02 2.67c-.82-.34-1.65-.62-2.49-.84-.84-.22-1.72-.33-2.64-.33-.8 0-1.47.12-2.01.36-.54.24-.95.57-1.23.99-.26.42-.39.91-.39 1.47 0 .66.15 1.21.45 1.65.3.44.78.85 1.44 1.23.66.36 1.53.76 2.61 1.2 1.2.46 2.22.96 3.06 1.5.86.54 1.51 1.19 1.95 1.95.44.74.66 1.67.66 2.79Z" fill="#1A73E8"/><rect x="1384" y="160" width="389" height="8" rx="4" fill="#FF6D7F" fill-opacity=".5"/><path d="M1414 126.334c0 9.333-12 17.333-12 17.333s-12-8-12-17.333c0-3.183 1.26-6.235 3.51-8.485a12.03 12.03 0 0 1 8.49-3.515c3.18 0 6.23 1.264 8.49 3.515a11.995 11.995 0 0 1 3.51 8.485Z" stroke="#FF6D7F" stroke-width="2" stroke-linecap="round" stroke-linejoin="round"/><path d="M1402 130.334a4 4 0 1 0 0-8 4 4 0 0 0 0 8Z" stroke="#FF6D7F" stroke-width="2" stroke-linecap="round" stroke-linejoin="round"/><rect x="1384" y="160" width="68" height="8" rx="4" fill="#FF6D7F"/><path d="m1634 195-10 12h9l-1 8 10-12h-9l1-8Z" stroke="#FF6D7F" stroke-width="2" stroke-linecap="round" stroke-linejoin="round"/><path d="M559.426 389.189c-.083 102.511-.145 206.468-.228 309.25-11.608 2.854-23.205 5.707-34.802 8.561.052-105.654.083-212.482.124-318.064 11.629.054 23.268.145 34.906.253Zm43.558.397-.062 54.651c-40.342 1.445-80.642 3.287-120.922 6.015V389.37c40.3-.38 80.632-.145 120.984.216Zm46.057-14.918c-.176 99.929-.321 201.321-.498 302.063-11.13 2.654-22.261 5.345-33.412 8.018.135-103.613.259-208.039.405-310.749 11.182.217 22.344.433 33.505.668Zm-4.273 188.805c-2.614.488-5.229.993-7.832 1.517.02-15.279.954-29.475 2.832-42.514 1.867-12.986 4.533-24.31 7.997-33.99 3.465-9.59 7.604-17.068 12.448-22.431 4.845-5.31 10.218-8.11 16.11-8.381 5.301-.27 10.135.958 14.512 3.667 4.419 2.673 8.226 7.134 11.39 13.364 3.237 6.177 5.685 14.304 7.407 24.454 1.743 10.096 2.614 22.522 2.583 37.277-.094 42.009-.187 83.855-.291 125.413-11.203 2.6-22.416 5.219-33.62 7.838.094-42.876.177-86.113.26-129.566.01-8.489-.612-14.991-1.867-19.524-1.183-4.677-2.884-7.784-5.146-9.391-2.251-1.716-4.979-2.438-8.236-2.131-3.9.343-7.085 1.95-9.543 4.822-2.438 2.89-4.336 6.791-5.664 11.685-1.266 4.804-2.137 10.403-2.614 16.832-.488 6.466-.716 13.474-.726 21.059ZM766.343 456.97l-.56 192.598c-11.162 2.51-22.345 5.056-33.527 7.603.176-65.921.342-132.221.508-198.539 11.204-.542 22.396-1.12 33.579-1.662Zm-35.435-49.161c.02-8.669 1.763-15.767 5.228-21.257 3.454-5.454 7.946-8.127 13.454-8.001 5.487.072 9.958 2.854 13.392 8.29 3.433 5.418 5.135 12.335 5.114 20.752-.031 8.452-1.774 15.423-5.239 20.932-3.475 5.526-7.946 8.416-13.443 8.597-5.498.162-9.969-2.493-13.392-7.947-3.434-5.509-5.135-12.624-5.114-21.366ZM842.867 582.31c.01-3.088-.592-5.653-1.847-7.676-1.182-2.131-3.309-3.883-6.338-5.309-3.039-1.517-7.292-2.872-12.79-4.046a55.984 55.984 0 0 1-14.772-5.472c-4.543-2.547-8.527-5.888-11.96-10.024-3.423-4.19-6.131-9.373-8.081-15.532-1.909-6.195-2.842-13.455-2.811-21.745.021-8.091.996-15.767 2.946-23.045 2.002-7.387 4.917-13.907 8.703-19.578 3.859-5.761 8.548-10.312 14.056-13.671 5.508-3.45 11.774-5.328 18.796-5.617 9.679-.434 18.019 1.643 25.031 6.231 6.992 4.442 12.365 10.818 16.1 19.216 3.796 8.218 5.684 17.88 5.632 29.041l-33.464 3.305c.01-4.551-.446-8.38-1.359-11.504-.84-3.161-2.261-5.454-4.243-6.972-1.981-1.607-4.616-2.293-7.935-2.04-2.324.18-4.43 1.083-6.369 2.727-1.847 1.589-3.361 3.792-4.492 6.465-1.131 2.71-1.691 5.834-1.701 9.356-.011 2.492.301 4.75.944 6.682.736 1.878 1.815 3.558 3.278 5.111 1.442 1.427 3.298 2.709 5.529 3.811 2.261.957 4.968 1.77 8.132 2.42 7.22 1.391 13.952 3.757 20.228 7.062 6.276 3.233 11.349 8.308 15.218 15.117 3.952 6.79 5.892 16.29 5.84 28.625-.031 7.73-1.162 15.045-3.361 21.98-2.23 6.845-5.394 13.202-9.502 18.982a60.272 60.272 0 0 1-14.844 14.538c-5.768 3.974-12.241 6.773-19.46 8.381-10.26 2.275-18.901 1.065-25.954-3.649-7.054-4.894-12.386-11.865-15.986-20.842-3.558-9.21-5.311-18.945-5.269-29.113a8916.589 8916.589 0 0 1 31.161-5.238c.114 5.653.892 10.186 2.334 13.546 1.504 3.359 3.517 5.635 6.027 6.881 2.51 1.21 5.425 1.517 8.724.885 3.06-.578 5.56-1.752 7.541-3.576 2.054-1.788 3.631-4.01 4.699-6.646 1.059-2.746 1.598-5.762 1.619-9.067Zm131.253-24.183a24726.234 24726.234 0 0 1 20.519-111.722c6.991-.289 13.971-.596 20.971-.885-2.6 17.934-5.2 35.94-7.8 54.037a20543.983 20543.983 0 0 0-20.277 102.8c-5.591 1.12-11.183 2.24-16.763 3.378 1.11-15.912 2.23-31.769 3.35-47.608Zm-7.22-110.53a68258.57 68258.57 0 0 0 11.691 108.959c.363 15.803.737 31.588 1.12 47.373a7330.751 7330.751 0 0 0-20.362 4.135 37345.728 37345.728 0 0 1-24.544-159.041c10.706-.469 21.4-.957 32.095-1.426Zm65.72 98.538c4.36-34.207 8.73-68.142 13.1-101.861 10.69-.416 21.4-.849 32.11-1.283-8.77 48.113-17.54 96.967-26.28 146.688-6.78 1.318-13.57 2.637-20.35 3.991.48-15.875.95-31.714 1.42-47.535ZM1018 445.429c6.45 34.713 12.9 68.937 19.36 102.747.93 14.593 1.85 29.167 2.78 43.724-5.67 1.12-11.32 2.222-16.99 3.36-6.2-31.354-12.41-63.032-18.63-95.107-2.26-17.862-4.529-35.814-6.811-53.875 6.761-.289 13.531-.578 20.291-.849Zm126.94 93.391.48-54.091c.04-3.72-.36-6.899-1.21-9.5-.83-2.619-2.17-4.605-4.01-5.942-1.85-1.408-4.33-2.022-7.45-1.806-2.5.145-4.66.831-6.45 2.023-1.81 1.192-3.18 2.908-4.12 5.165-.96 2.24-1.43 5.003-1.46 8.326l-33.48 2.818c.05-6.466 1.17-12.552 3.41-18.223 2.3-5.744 5.51-10.746 9.65-15.081 4.21-4.28 9.21-7.639 14.99-10.06 5.85-2.492 12.37-3.846 19.51-4.099 8.55-.289 16.16 1.192 22.81 4.424 6.73 3.161 12.04 8.037 15.89 14.611 3.83 6.448 5.7 14.666 5.61 24.689-.17 17.23-.33 34.46-.5 51.707-.08 8.272.27 14.503 1.02 18.657.74 4.082 1.83 7.603 3.26 10.547-.01.669-.02 1.337-.02 1.987-11.18 2.041-22.36 4.1-33.56 6.159-1.54-3.775-2.69-8.507-3.43-14.232-.68-5.797-.99-11.812-.94-18.079Zm4.5-47.571c0 7.242 0 14.466-.01 21.691-4.92.596-9.85 1.192-14.79 1.77-3.1.379-5.75 1.246-7.96 2.564-2.13 1.355-3.86 3.052-5.2 5.147a21.859 21.859 0 0 0-2.83 6.611 34.473 34.473 0 0 0-.86 7.477c-.02 2.51.43 4.677 1.33 6.574.98 1.752 2.3 3.052 3.94 3.865 1.65.83 3.49 1.065 5.55.758 3.7-.578 6.85-1.932 9.45-4.063 2.67-2.186 4.7-4.642 6.12-7.369 1.41-2.709 2.11-5.147 2.13-7.333 2.4 5.22 4.81 10.421 7.22 15.605a151.058 151.058 0 0 1-4.66 10.529c-1.69 3.612-3.8 7.043-6.35 10.33-2.46 3.215-5.5 6.069-9.09 8.543-3.6 2.42-7.92 4.1-13.03 5.075-6.6 1.264-12.69.686-18.2-1.77-5.48-2.456-9.84-6.592-13.09-12.299-3.28-5.852-4.87-12.931-4.8-21.275.06-7.279 1.1-13.907 3.12-19.849 2.09-5.942 5.21-11.125 9.36-15.532 4.12-4.353 9.39-7.874 15.77-10.511 6.38-2.637 13.86-4.371 22.48-5.184l14.4-1.354Zm78.95 51.491c9.65-36.067 19.3-71.34 28.94-106.106l36.01-1.084c-14.93 43.598-29.85 88.479-44.74 135.219-.96 3.179-2.21 6.647-3.78 10.421-1.55 3.865-3.68 7.694-6.36 11.487-2.67 3.811-6.1 7.206-10.29 10.204-4.13 2.998-9.23 5.238-15.32 6.646-3.25.777-5.61 1.12-7.14 1.084-1.44.036-3.69-.018-6.72-.181l.27-28.12c.85-.199 1.58-.343 2.18-.469a206.1 206.1 0 0 0 2.18-.434c3.58-.722 6.42-1.734 8.55-2.962 2.2-1.282 3.87-2.817 5.01-4.641 1.2-1.806 2.14-3.92 2.82-6.322 2.8-8.307 5.61-16.561 8.39-24.742Zm-5.93-104.986a8600.81 8600.81 0 0 0 20.28 81.272c1.08 12.715 2.15 25.411 3.23 38.144l-22.43 4.063a8560.737 8560.737 0 0 1-36.97-122.269c11.97-.398 23.93-.813 35.89-1.21Zm127.37 87.34a2405.518 2405.518 0 0 1 23.79-40.238c8.11-.759 16.22-1.5 24.33-2.258 0 .397-.01.777-.01 1.156a2164.764 2164.764 0 0 0-27.65 38.324c-6.82.994-13.63 1.987-20.46 3.016Zm1.05-75.131c6.82-.326 13.64-.669 20.48-.994a1676.602 1676.602 0 0 0 26.6 33.105c-.01.379-.01.777-.02 1.138-8.11.831-16.22 1.644-24.33 2.456a1876.056 1876.056 0 0 1-22.73-35.705Zm39.96 69.208c7.93-12.968 15.88-25.701 23.81-38.253 8.12-.74 16.22-1.481 24.34-2.239 0 .379-.01.74-.01 1.12a3795.366 3795.366 0 0 0-27.67 36.626c-6.81.903-13.65 1.806-20.47 2.746Zm1.08-71.267c6.82-.38 13.66-.777 20.48-1.192a2354.43 2354.43 0 0 0 26.6 31.443c-.01.379-.01.759-.02 1.12-8.12.813-16.22 1.625-24.34 2.42a2287.498 2287.498 0 0 1-22.72-33.791Z" fill="#3C4043"/></svg>