<svg xmlns="http://www.w3.org/2000/svg" viewBox="0 0 1920 1080"><path fill="#3c4043" d="M960 183 780 863h360L960 183z"/><path fill="none" stroke="#3c4043" stroke-linecap="round" stroke-miterlimit="10" stroke-width="16.47" d="m478.64 112.48 961.72 141.04"/><path fill="none" stroke="#3c4043" stroke-linecap="round" stroke-miterlimit="10" stroke-width="20" d="M243 586.59h461"/><path d="M382.31 226.59h184.13v112.02h-73.56v6.73h69.23v112.02h-69.23v7.21h75.24v112.02H382.3v-350Z" fill="#1a73e8"/><path d="m243 586.59 230.5-474.11L704 586.58" fill="none" stroke="#3c4043" stroke-miterlimit="10" stroke-width="3"/><g><path fill="none" stroke="#3c4043" stroke-linecap="round" stroke-miterlimit="10" stroke-width="20" d="M1215 728.78h461"/><path d="M1508.46 598.78h89.5l-.16.82h-88.68l-9.97 56.62h80.6l-.17.82h-80.6l-10.71 60.91h89.5l-.16.82h-90.33l21.18-120Z" fill="#1a73e8"/><path d="M1379.45 598.78h35.6v19.12h-16.48v29.75h14.59v19.2h-14.59v32.8h17.14v19.12h-36.26v-120Z" fill="#3c4043"/><path d="M1423.88 598.78h60.08v27.44h-30.66v18.63h27.03v26.29h-27.03v20.6h31.73v27.03h-61.15v-120Z" fill="#ff6d7f"/><path d="M1244.48 598.78h124.12v37.09h-78.21v7.75h71.79v31.15h-71.79v8.57h79.86v35.44h-125.77v-120Z" fill="#1a73e8"/><path d="M1606.81 598.78h35.6v19.12h-16.48v29.75h14.59v19.2h-14.59v32.8h17.14v19.12h-36.26v-120ZM1316.52 478.78h43.02l-3.38 19.2h-23.08l-5.27 29.92h20.03l-3.38 18.79h-20.03l-5.77 33.05h23.82l-3.38 19.04h-43.76l21.18-120Z" fill="#ff6d7f"/><path d="M1383.49 478.78h96.59v13.93h-80.03v38.24h72.28v12.94h-72.28v41.29h80.93v13.6h-97.5v-120Z" fill="#1a73e8"/><path d="M1423.98 358.78h22.01v4.86h-17.23v50.44h14.42v4.78h-14.42V474h18.05v4.78h-22.83v-120Z" fill="#ff6d7f"/><path d="M1517.75 478.78h55.8v6.1h-49.29v48.87h41.7v6.1h-41.7v52.83h50.11v6.1h-56.62v-120Z" fill="#3c4043"/><path d="m1215 728.78 230.5-474.1 230.5 474.1" fill="none" stroke="#3c4043" stroke-miterlimit="10" stroke-width="3"/></g></svg>