<svg width="1920" height="1080" viewBox="0 0 1920 1080" fill="none" xmlns="http://www.w3.org/2000/svg">
<path d="M756.832 862.368C756.832 853.536 762.592 849.184 769.888 849.184C777.312 849.184 783.072 853.536 783.072 862.368C783.072 871.072 777.312 875.552 769.888 875.552C762.592 875.552 756.832 871.072 756.832 862.368ZM803.296 862.368C803.296 844.448 788.576 831.392 769.888 831.392C751.328 831.392 736.608 844.448 736.608 862.368C736.608 880.16 751.328 893.344 769.888 893.344C788.576 893.344 803.296 880.16 803.296 862.368ZM773.6 901.792H752.864V942.368H835.424V926.112H773.6V901.792ZM831.84 857.376V824.096H811.104V910.752H831.84V874.144H846.816V857.376H831.84ZM934.998 895.136H955.734V823.84H934.998V832.8H909.27V848.288H934.998V853.28H909.27V868.768H934.998V895.136ZM921.814 872.096C908.886 874.4 896.982 875.168 881.622 875.424V829.472H861.014V891.936H871.254C892.502 891.936 907.862 891.424 924.118 888.352L921.814 872.096ZM914.518 928.544C900.182 928.544 893.398 926.368 893.398 920.608C893.398 914.976 900.182 912.8 914.518 912.8C928.726 912.8 935.51 914.976 935.51 920.608C935.51 926.368 928.726 928.544 914.518 928.544ZM914.518 896.928C888.79 896.928 872.662 905.632 872.662 920.608C872.662 935.712 888.79 944.416 914.518 944.416C940.118 944.416 956.246 935.712 956.246 920.608C956.246 905.632 940.118 896.928 914.518 896.928ZM1006.54 904.096C999.884 904.096 995.148 899.872 995.148 891.552C995.148 883.232 999.884 879.008 1006.54 879.008C1013.32 879.008 1017.93 883.232 1017.93 891.552C1017.93 899.872 1013.32 904.096 1006.54 904.096ZM1006.54 862.368C988.748 862.368 975.436 874.528 975.436 891.552C975.436 908.576 988.748 920.736 1006.54 920.736C1024.33 920.736 1037.64 908.576 1037.64 891.552C1037.64 874.528 1024.33 862.368 1006.54 862.368ZM1016.91 826.272H996.172V840.992H971.724V857.248H1041.23V840.992H1016.91V826.272ZM1083.47 869.664H1067.6V824.096H1046.86V944.032H1067.6V886.56H1083.47V869.664ZM1130.31 834.08H1110.21V852.768C1110.21 872.992 1105.99 894.496 1087.68 905.76L1099.97 921.248C1109.83 915.104 1116.23 905.376 1120.19 893.6C1123.91 904.096 1129.67 912.928 1138.88 918.56L1149.89 902.432C1133.25 891.168 1130.31 871.456 1130.31 851.744V834.08ZM1150.15 863.136H1137.73V879.648H1150.15V939.168H1169.35V825.632H1150.15V863.136ZM1174.59 823.968V944.032H1194.18V823.968H1174.59ZM1252.02 893.984C1255.61 894.624 1259.45 894.88 1263.29 894.88C1267.13 894.88 1270.97 894.624 1274.55 893.984V914.336H1252.02V893.984ZM1263.29 844.96C1278.65 844.96 1288.38 850.848 1288.38 861.984C1288.38 872.992 1278.65 879.008 1263.29 879.008C1247.93 879.008 1238.2 872.992 1238.2 861.984C1238.2 850.848 1247.93 844.96 1263.29 844.96ZM1295.16 914.336V886.432C1303.74 880.672 1308.86 872.224 1308.86 861.984C1308.86 841.888 1289.4 828.96 1263.29 828.96C1237.18 828.96 1217.72 841.888 1217.72 861.984C1217.72 872.224 1222.84 880.672 1231.42 886.432V914.336H1209.02V930.848H1317.69V914.336H1295.16Z" fill="#3C4043"/>
<path d="M798.28 618.064L778.312 617.552C778.44 620.112 778.184 623.568 777.928 626.128C777.8 627.792 777.544 629.456 777.288 631.248H774.216C765.128 631.248 753.864 630.096 749.256 629.456L749.768 647.12C756.168 647.376 766.152 648.016 773.576 648.016H775.624C775.112 652.752 774.728 657.616 774.472 662.48C756.424 671.184 743.368 688.464 743.368 704.976C743.368 719.184 751.944 725.072 761.8 725.072C768.328 725.072 774.856 723.28 780.616 720.72C781.128 722.256 781.512 723.792 782.024 725.072L799.816 719.824C798.792 716.88 797.896 713.808 797 710.736C806.216 703.184 816.2 690.256 822.984 673.488C829.896 676.688 833.48 682.448 833.48 688.976C833.48 699.344 825.8 712.144 800.2 714.96L810.44 731.216C842.824 726.352 852.68 707.92 852.68 689.872C852.68 674.64 842.696 663.248 828.36 658C829.128 655.696 830.024 653.392 830.536 652.112L811.72 647.632C811.592 649.424 811.208 652.24 810.696 654.928H809.928C803.912 654.928 797.768 655.568 792.136 656.72L792.904 647.504C808.776 646.864 825.928 645.2 837.96 643.024L837.832 625.232C823.368 628.816 810.44 630.352 795.336 630.864C795.592 629.072 795.976 627.152 796.36 625.488C796.872 623.312 797.384 621.008 798.28 618.064ZM761.544 700.752C761.544 695.248 766.408 687.184 774.344 681.04C774.728 688.848 775.624 696.4 776.776 703.184C773.064 705.232 769.48 706.256 766.664 706.256C762.824 706.256 761.544 704.336 761.544 700.752ZM791.624 672.976C795.72 671.824 800.328 670.928 805.704 670.672C802.12 678.864 797.64 685.136 792.776 690.384C792.136 685.136 791.752 679.376 791.624 672.976ZM896.84 629.328L873.032 629.072C873.928 633.552 874.184 639.056 874.184 642.896C874.184 650.96 874.312 665.68 875.592 677.84C879.176 712.784 891.72 725.712 906.952 725.712C918.088 725.712 926.28 717.776 935.24 695.12L919.624 675.92C917.704 684.624 913.224 700.624 907.336 700.624C899.912 700.624 897.352 688.848 895.816 672.08C895.048 663.504 895.048 655.184 895.048 646.736C895.048 643.024 895.816 634.704 896.84 629.328ZM959.432 631.76L939.592 638.16C954.568 654.544 960.84 688.208 962.632 707.536L983.24 699.6C982.088 681.168 971.976 646.48 959.432 631.76ZM1112.9 635.344L1100.62 623.952C1097.93 624.72 1089.48 625.232 1085.26 625.232H1018.82C1013.19 625.232 1007.82 624.592 1002.57 623.824V645.2C1009.22 644.56 1013.19 644.176 1018.82 644.176H1082.06C1079.24 649.552 1070.41 659.28 1060.94 665.296L1076.94 678.096C1088.46 669.776 1100.62 653.776 1107.14 643.024C1108.42 640.976 1111.37 637.264 1112.9 635.344ZM1060.17 652.752H1037.64C1038.41 657.36 1038.66 661.072 1038.66 665.552C1038.66 686.416 1035.46 697.296 1021.26 708.048C1015.88 712.144 1011.14 714.32 1006.66 715.856L1024.71 730.576C1060.81 710.48 1060.17 682.832 1060.17 652.752ZM1128.39 670.288L1137.99 689.872C1152.84 685.648 1168.33 679.12 1181.26 672.592V710.096C1181.26 716.24 1180.74 725.2 1180.23 728.656H1204.81C1203.78 725.072 1203.53 716.24 1203.53 710.096V659.664C1215.69 651.6 1228.1 641.616 1237.7 632.272L1220.94 616.272C1212.87 626 1197.26 639.824 1184.33 647.76C1169.99 656.464 1151.69 664.4 1128.39 670.288ZM1287.24 663.376L1284.04 664.016H1254.34V681.552H1276.1C1270.73 694.992 1261.9 706 1250.89 712.656C1255.37 715.472 1262.92 722.64 1265.99 726.608C1281.35 715.984 1293.9 695.632 1299.78 668.624L1287.24 663.376ZM1352.78 648.912C1347.27 655.952 1338.95 664.016 1331.14 670.544C1327.94 664.4 1325.38 657.744 1323.21 650.704V643.024C1325.13 643.92 1326.79 644.816 1328.2 645.712L1338.31 628.432C1327.3 622.8 1305.54 616.016 1291.08 613.072L1281.74 628.304C1290.95 630.608 1302.47 634.448 1312.2 638.288H1272.65V656.08H1302.98V712.912C1302.98 714.96 1302.22 715.6 1299.91 715.728C1297.61 715.728 1289.29 715.728 1283.53 715.344C1286.22 720.336 1289.03 728.656 1289.8 734.032C1300.81 734.032 1309 733.776 1315.14 730.832C1321.29 727.76 1323.21 722.768 1323.21 713.296V692.432C1332.3 707.536 1344.46 719.44 1361.22 727.248C1364.04 722.128 1370.06 714.32 1374.28 710.608C1360.07 705.104 1348.81 696.272 1340.23 685.008C1349.45 678.736 1360.33 670.032 1369.93 661.712L1352.78 648.912ZM1452.74 700.496C1449.42 703.184 1445.58 705.488 1441.22 707.536C1436.23 705.488 1431.88 703.184 1428.17 700.496H1452.74ZM1417.54 660.816V665.424L1406.28 660.432C1405.51 661.968 1404.62 663.504 1403.59 665.04V656.208H1431.24L1428.81 658.768C1430.22 659.408 1431.75 660.048 1433.16 660.816H1417.54ZM1420.87 642.256L1424.46 640.72C1423.69 638.16 1422.02 635.088 1419.98 632.016C1423.3 631.888 1426.63 631.76 1430.09 631.504C1432.01 634.96 1433.93 638.928 1435.08 642.256H1420.87ZM1445.45 642.256L1451.72 639.952C1450.95 637.136 1449.42 633.68 1447.5 630.352C1454.02 629.84 1460.55 629.2 1466.82 628.432C1464.9 633.04 1462.22 638.288 1459.78 642.256H1445.45ZM1478.73 662.864C1476.55 661.072 1474.25 659.28 1472.07 657.744L1459.78 666.576C1461.32 667.728 1462.86 669.136 1464.39 670.544C1460.55 669.52 1456.07 667.984 1453.64 666.448C1453.13 670.288 1452.36 671.056 1449.54 671.056H1439.18C1435.34 671.056 1434.57 670.8 1434.57 667.728V661.584C1439.43 664.144 1444.04 667.216 1446.73 669.648L1455.94 659.536C1454.66 658.512 1453 657.36 1451.21 656.208H1478.73V662.864ZM1467.98 687.568L1465.03 688.08H1440.71C1442.12 686.672 1443.53 685.136 1444.68 683.6H1451.59C1461.19 683.6 1465.42 681.296 1467.21 673.104C1472.33 677.84 1476.94 683.088 1479.37 687.184L1492.55 677.328C1490.89 674.64 1488.2 671.696 1485.26 668.752H1497.16V642.256H1477.96C1480.65 638.672 1483.59 634.576 1486.54 630.352L1476.04 627.152C1481.42 626.384 1486.54 625.488 1491.27 624.464L1478.98 612.304C1457.48 616.656 1421 618.96 1389.13 619.472C1390.66 622.8 1392.33 628.944 1392.71 632.784L1401.42 632.656C1403.46 635.472 1405.51 639.056 1407.05 642.256H1386.06V666.448H1402.57C1399.24 671.056 1394.76 675.152 1389.77 677.968L1402.44 688.208C1409.1 683.728 1413.96 677.712 1417.67 671.312C1418.18 677.2 1419.98 680.528 1424.84 682.192C1415.75 690.64 1401.42 697.424 1386.7 701.392C1390.28 704.208 1396.3 710.352 1399.11 713.552C1403.98 711.76 1408.97 709.584 1413.83 707.152C1416.52 709.584 1419.34 711.888 1422.28 714.064C1410.63 716.88 1397.45 718.544 1383.37 719.312C1386.7 722.896 1391.3 730.32 1392.97 734.544C1410.38 732.752 1426.89 729.552 1441.22 724.176C1455.18 729.68 1471.69 732.88 1490.38 734.288C1492.68 729.424 1497.16 721.744 1501 717.776C1486.66 717.264 1473.35 715.856 1461.7 713.552C1469 708.432 1475.02 702.288 1479.62 694.864L1467.98 687.568Z" fill="#3C4043"/>
<path d="M776.16 409.432C770.784 404.824 759.904 399.192 752.096 395.992L742.368 409.688C750.432 413.528 761.056 419.928 765.792 424.536L776.16 409.432ZM770.528 442.84C764.64 438.616 753.12 433.112 745.056 430.04L735.968 444.248C744.16 447.96 755.552 454.104 760.8 458.584L770.528 442.84ZM762.848 461.272C755.168 476.248 745.696 491.736 739.04 501.208L754.016 513.88C761.696 501.08 769.12 487.256 775.776 473.816L762.848 461.272ZM833.12 418.392C829.792 436.44 824.288 451.416 816.48 463.704C808.288 450.648 802.528 435.16 798.816 418.392H833.12ZM840.928 400.088L837.984 400.856H778.464V418.392H791.776L781.152 420.568C786.528 443.352 793.696 462.936 804.192 478.808C794.976 488.024 783.584 494.808 770.528 499.16C774.24 502.744 778.72 509.912 781.024 514.776C794.464 509.4 805.984 502.36 815.712 493.272C823.904 501.976 833.632 509.016 845.28 514.52C847.968 509.912 853.472 502.616 857.568 499.16C846.048 494.424 836.32 487.512 828.256 478.936C841.056 460.888 849.12 436.568 852.704 403.928L840.928 400.088ZM901.6 414.296C897.12 408.664 887.264 400.216 880.352 394.584L868.448 405.848C875.488 412.12 884.832 421.208 888.928 427.096L901.6 414.296ZM958.304 482.776V495.32H926.304V482.776H958.304ZM908.64 487.256C907.488 483.544 906.464 479.192 905.952 475.864L894.944 483.16V432.344H863.84V450.136H877.664V485.464C877.664 491.48 873.952 496.472 871.008 498.776C874.08 502.36 878.688 510.296 880.224 514.648C882.656 511.704 887.008 508.248 908.64 493.144V515.032H926.304V511.192H958.304V514.648H976.864V466.904H908.64V487.256ZM941.024 436.184H954.72C954.592 438.872 954.336 441.688 954.208 444.504H939.232L941.024 436.184ZM971.744 444.504C972.384 437.08 973.024 428.888 973.152 420.696L960.096 419.928L957.28 420.568H944.224L945.504 413.528H980.704V397.4H904.544V413.528H926.816C926.432 415.832 925.92 418.264 925.536 420.568H908.768V436.184H922.336C921.696 439 921.056 441.816 920.416 444.504H900.064V461.144H984.8V444.504H971.744ZM1088.36 406.104V415.832H1103.72V422.36H1120.74V415.832H1134.31V422.36H1151.59V415.832H1169.64V400.984H1151.59V393.56H1134.31V400.984H1120.74V393.56H1103.72V400.984H1088.36V404.952C1083.24 400.984 1073.51 396.248 1066.34 393.688L1056.1 407.64C1063.65 410.84 1073.51 416.472 1077.99 420.696L1088.36 406.104ZM1081.7 439.384C1076.71 435.416 1066.85 430.68 1059.43 428.248L1049.32 442.328C1056.87 445.4 1066.47 450.776 1070.95 454.872L1081.7 439.384ZM1073 461.784C1066.47 477.144 1058.28 493.016 1052.39 502.872L1069.16 513.88C1075.68 500.952 1082.08 486.744 1087.72 472.92L1073 461.784ZM1108.58 442.072V436.568H1118.82V442.072H1108.58ZM1147.88 442.072H1136.87V436.568H1147.88V442.072ZM1170.79 490.2V475.992H1135.97C1136.23 474.84 1136.36 473.56 1136.48 472.408H1166.05V458.584H1136.87V454.616H1165.03V424.024H1092.45V454.616H1118.82V458.584H1091.68V472.408H1118.31C1118.18 473.56 1117.92 474.84 1117.54 475.992H1087.2V490.2H1108.07C1102.69 494.68 1094.63 498.392 1082.85 501.208C1086.82 504.664 1091.94 511.32 1094.12 515.16C1111.27 509.784 1122.02 502.232 1128.42 493.528C1135.84 503.896 1146.34 511.32 1160.55 515.032C1162.98 510.424 1168.1 503.384 1171.94 499.928C1161.96 498.264 1153.51 494.808 1147.24 490.2H1170.79ZM1221.73 397.272H1184.74V411.096H1221.73V397.272ZM1226.21 415.32H1177.7V429.784H1226.21V415.32ZM1221.48 434.136H1183.97V447.96H1221.48V434.136ZM1183.97 466.136H1221.48V452.312H1183.97V466.136ZM1206.88 485.208V496.088H1198.95V485.208H1206.88ZM1222.63 470.744H1183.46V515.16H1198.95V510.552H1222.63V470.744ZM1273.32 482.392V494.296H1251.43V482.392H1273.32ZM1234.02 515.16H1251.43V510.808H1273.32V514.648H1291.49V465.88H1234.02V515.16ZM1271.27 434.776V444.632H1257.83C1258.47 441.56 1258.98 438.232 1259.62 434.776H1271.27ZM1289.06 444.632V419.16H1262.05L1263.08 412.376H1295.08V396.632H1229.92V412.376H1245.03L1244.13 419.16H1231.97V434.776H1241.7C1241.19 438.232 1240.55 441.56 1239.91 444.632H1224.8V460.76H1299.81V444.632H1289.06Z" fill="#3C4043"/>
<path d="M729.625 259V171.727H753.318V205.818H784.682V171.727H808.375V259H784.682V224.909H753.318V259H729.625ZM851.33 260.193C844.341 260.193 838.318 258.858 833.261 256.188C828.233 253.489 824.355 249.625 821.628 244.597C818.929 239.54 817.58 233.489 817.58 226.443C817.58 219.682 818.943 213.773 821.67 208.716C824.398 203.659 828.247 199.724 833.219 196.912C838.19 194.099 844.057 192.693 850.818 192.693C855.761 192.693 860.236 193.46 864.241 194.994C868.247 196.528 871.67 198.759 874.511 201.685C877.352 204.582 879.54 208.105 881.074 212.253C882.608 216.401 883.375 221.074 883.375 226.273V231.727H824.909V218.773H861.727C861.699 216.898 861.216 215.25 860.278 213.83C859.369 212.381 858.134 211.259 856.571 210.463C855.037 209.639 853.29 209.227 851.33 209.227C849.426 209.227 847.679 209.639 846.088 210.463C844.497 211.259 843.219 212.366 842.253 213.787C841.315 215.207 840.818 216.869 840.761 218.773V232.75C840.761 234.852 841.202 236.727 842.082 238.375C842.963 240.023 844.227 241.315 845.875 242.253C847.523 243.19 849.511 243.659 851.841 243.659C853.46 243.659 854.938 243.432 856.273 242.977C857.636 242.523 858.801 241.869 859.767 241.017C860.733 240.136 861.443 239.085 861.898 237.864H883.375C882.636 242.409 880.889 246.358 878.134 249.71C875.378 253.034 871.727 255.619 867.182 257.466C862.665 259.284 857.381 260.193 851.33 260.193ZM916.496 171.727V259H892.974V171.727H916.496ZM952.004 171.727V259H928.482V171.727H952.004ZM995.523 260.193C988.421 260.193 982.342 258.787 977.285 255.974C972.228 253.134 968.35 249.185 965.651 244.128C962.952 239.043 961.603 233.148 961.603 226.443C961.603 219.739 962.952 213.858 965.651 208.801C968.35 203.716 972.228 199.767 977.285 196.955C982.342 194.114 988.421 192.693 995.523 192.693C1002.63 192.693 1008.71 194.114 1013.76 196.955C1018.82 199.767 1022.7 203.716 1025.4 208.801C1028.09 213.858 1029.44 219.739 1029.44 226.443C1029.44 233.148 1028.09 239.043 1025.4 244.128C1022.7 249.185 1018.82 253.134 1013.76 255.974C1008.71 258.787 1002.63 260.193 995.523 260.193ZM995.694 242.807C997.683 242.807 999.401 242.139 1000.85 240.804C1002.3 239.469 1003.42 237.565 1004.22 235.094C1005.01 232.622 1005.41 229.682 1005.41 226.273C1005.41 222.835 1005.01 219.895 1004.22 217.452C1003.42 214.98 1002.3 213.077 1000.85 211.741C999.401 210.406 997.683 209.739 995.694 209.739C993.592 209.739 991.788 210.406 990.282 211.741C988.776 213.077 987.626 214.98 986.83 217.452C986.035 219.895 985.637 222.835 985.637 226.273C985.637 229.682 986.035 232.622 986.83 235.094C987.626 237.565 988.776 239.469 990.282 240.804C991.788 242.139 993.592 242.807 995.694 242.807ZM1060.17 190.818V171.727H1136.02V190.818H1109.77V259H1086.42V190.818H1060.17ZM1152.1 283.545C1149.4 283.545 1146.83 283.332 1144.38 282.906C1141.94 282.509 1139.8 281.955 1137.95 281.244L1143.06 264.54C1144.99 265.222 1146.76 265.662 1148.35 265.861C1149.97 266.06 1151.34 265.946 1152.48 265.52C1153.64 265.094 1154.48 264.284 1154.99 263.091L1155.51 261.898L1132.49 193.545H1157.04L1167.61 238.886H1168.29L1179.03 193.545H1203.74L1179.88 264.455C1178.69 268.062 1176.95 271.301 1174.68 274.17C1172.44 277.068 1169.48 279.355 1165.82 281.031C1162.15 282.707 1157.58 283.545 1152.1 283.545ZM1210.43 283.545V193.545H1233.79V204.966H1234.3C1235.15 202.75 1236.4 200.719 1238.05 198.872C1239.7 196.997 1241.74 195.506 1244.18 194.398C1246.63 193.261 1249.47 192.693 1252.71 192.693C1257.03 192.693 1261.13 193.844 1265.02 196.145C1268.94 198.446 1272.13 202.068 1274.57 207.011C1277.04 211.955 1278.28 218.375 1278.28 226.273C1278.28 233.83 1277.1 240.094 1274.74 245.065C1272.41 250.037 1269.28 253.744 1265.36 256.188C1261.47 258.631 1257.2 259.852 1252.54 259.852C1249.47 259.852 1246.73 259.355 1244.31 258.361C1241.93 257.338 1239.88 255.96 1238.18 254.227C1236.5 252.466 1235.21 250.477 1234.3 248.261H1233.96V283.545H1210.43ZM1233.45 226.273C1233.45 229.455 1233.86 232.21 1234.68 234.54C1235.53 236.841 1236.73 238.631 1238.26 239.909C1239.82 241.159 1241.68 241.784 1243.84 241.784C1246 241.784 1247.84 241.173 1249.34 239.952C1250.88 238.702 1252.04 236.926 1252.84 234.625C1253.66 232.295 1254.07 229.511 1254.07 226.273C1254.07 223.034 1253.66 220.264 1252.84 217.963C1252.04 215.634 1250.88 213.858 1249.34 212.636C1247.84 211.386 1246 210.761 1243.84 210.761C1241.68 210.761 1239.82 211.386 1238.26 212.636C1236.73 213.858 1235.53 215.634 1234.68 217.963C1233.86 220.264 1233.45 223.034 1233.45 226.273ZM1319.66 260.193C1312.56 260.193 1306.48 258.787 1301.43 255.974C1296.37 253.134 1292.49 249.185 1289.79 244.128C1287.09 239.043 1285.74 233.148 1285.74 226.443C1285.74 219.739 1287.09 213.858 1289.79 208.801C1292.49 203.716 1296.37 199.767 1301.43 196.955C1306.48 194.114 1312.56 192.693 1319.66 192.693C1326.77 192.693 1332.85 194.114 1337.9 196.955C1342.96 199.767 1346.84 203.716 1349.54 208.801C1352.24 213.858 1353.58 219.739 1353.58 226.443C1353.58 233.148 1352.24 239.043 1349.54 244.128C1346.84 249.185 1342.96 253.134 1337.9 255.974C1332.85 258.787 1326.77 260.193 1319.66 260.193ZM1319.83 242.807C1321.82 242.807 1323.54 242.139 1324.99 240.804C1326.44 239.469 1327.56 237.565 1328.36 235.094C1329.15 232.622 1329.55 229.682 1329.55 226.273C1329.55 222.835 1329.15 219.895 1328.36 217.452C1327.56 214.98 1326.44 213.077 1324.99 211.741C1323.54 210.406 1321.82 209.739 1319.83 209.739C1317.73 209.739 1315.93 210.406 1314.42 211.741C1312.92 213.077 1311.77 214.98 1310.97 217.452C1310.18 219.895 1309.78 222.835 1309.78 226.273C1309.78 229.682 1310.18 232.622 1310.97 235.094C1311.77 237.565 1312.92 239.469 1314.42 240.804C1315.93 242.139 1317.73 242.807 1319.83 242.807ZM1394.66 284.909C1388.1 284.909 1382.48 283.972 1377.79 282.097C1373.13 280.25 1369.51 277.693 1366.92 274.426C1364.37 271.188 1362.93 267.466 1362.62 263.261H1385.29C1385.52 264.653 1386.08 265.776 1386.99 266.628C1387.9 267.48 1389.07 268.091 1390.49 268.46C1391.94 268.858 1393.56 269.057 1395.35 269.057C1398.39 269.057 1400.9 268.318 1402.89 266.841C1404.91 265.364 1405.91 262.693 1405.91 258.83V247.75H1405.23C1404.38 249.966 1403.07 251.855 1401.31 253.418C1399.55 254.952 1397.43 256.131 1394.96 256.955C1392.49 257.75 1389.78 258.148 1386.82 258.148C1382.16 258.148 1377.87 257.068 1373.95 254.909C1370.06 252.75 1366.94 249.327 1364.58 244.639C1362.25 239.952 1361.08 233.83 1361.08 226.273C1361.08 218.375 1362.31 211.955 1364.75 207.011C1367.22 202.068 1370.4 198.446 1374.29 196.145C1378.22 193.844 1382.33 192.693 1386.65 192.693C1389.89 192.693 1392.73 193.261 1395.18 194.398C1397.62 195.506 1399.66 196.997 1401.31 198.872C1402.96 200.719 1404.21 202.75 1405.06 204.966H1405.57V193.545H1429.1V258.83C1429.1 264.369 1427.66 269.071 1424.79 272.935C1421.95 276.827 1417.95 279.795 1412.77 281.841C1407.6 283.886 1401.57 284.909 1394.66 284.909ZM1395.52 241.443C1397.68 241.443 1399.52 240.847 1401.06 239.653C1402.62 238.432 1403.81 236.699 1404.64 234.455C1405.49 232.182 1405.91 229.455 1405.91 226.273C1405.91 223.034 1405.49 220.264 1404.64 217.963C1403.81 215.634 1402.62 213.858 1401.06 212.636C1399.52 211.386 1397.68 210.761 1395.52 210.761C1393.36 210.761 1391.51 211.386 1389.98 212.636C1388.47 213.858 1387.31 215.634 1386.48 217.963C1385.69 220.264 1385.29 223.034 1385.29 226.273C1385.29 229.511 1385.69 232.267 1386.48 234.54C1387.31 236.784 1388.47 238.503 1389.98 239.696C1391.51 240.861 1393.36 241.443 1395.52 241.443ZM1441.06 259V193.545H1463.9V205.989H1464.58C1465.78 201.386 1467.66 198.02 1470.25 195.889C1472.86 193.759 1475.92 192.693 1479.41 192.693C1480.43 192.693 1481.44 192.778 1482.44 192.949C1483.46 193.091 1484.44 193.304 1485.38 193.588V213.659C1484.21 213.261 1482.78 212.963 1481.07 212.764C1479.37 212.565 1477.91 212.466 1476.68 212.466C1474.38 212.466 1472.31 212.991 1470.46 214.043C1468.64 215.065 1467.21 216.514 1466.16 218.389C1465.11 220.236 1464.58 222.409 1464.58 224.909V259H1441.06ZM1508.28 260.023C1504.11 260.023 1500.41 259.341 1497.2 257.977C1494.02 256.585 1491.52 254.483 1489.7 251.67C1487.88 248.858 1486.98 245.278 1486.98 240.932C1486.98 237.352 1487.59 234.298 1488.81 231.77C1490.03 229.213 1491.73 227.125 1493.92 225.506C1496.11 223.886 1498.65 222.651 1501.55 221.798C1504.48 220.946 1507.63 220.392 1511.01 220.136C1514.67 219.852 1517.62 219.511 1519.83 219.114C1522.08 218.687 1523.69 218.105 1524.69 217.366C1525.68 216.599 1526.18 215.591 1526.18 214.341V214.17C1526.18 212.466 1525.53 211.159 1524.22 210.25C1522.91 209.341 1521.24 208.886 1519.19 208.886C1516.95 208.886 1515.12 209.384 1513.69 210.378C1512.3 211.344 1511.46 212.835 1511.18 214.852H1489.53C1489.82 210.875 1491.08 207.21 1493.33 203.858C1495.6 200.477 1498.91 197.778 1503.25 195.761C1507.6 193.716 1513.03 192.693 1519.53 192.693C1524.22 192.693 1528.42 193.247 1532.15 194.355C1535.87 195.435 1539.04 196.955 1541.65 198.915C1544.26 200.847 1546.25 203.119 1547.62 205.733C1549.01 208.318 1549.7 211.131 1549.7 214.17V259H1527.71V249.795H1527.2C1525.9 252.239 1524.31 254.213 1522.43 255.719C1520.58 257.224 1518.47 258.318 1516.08 259C1513.72 259.682 1511.12 260.023 1508.28 260.023ZM1515.95 245.193C1517.74 245.193 1519.42 244.824 1520.98 244.085C1522.57 243.347 1523.87 242.281 1524.86 240.889C1525.85 239.497 1526.35 237.807 1526.35 235.818V230.364C1525.73 230.619 1525.06 230.861 1524.35 231.088C1523.67 231.315 1522.93 231.528 1522.13 231.727C1521.37 231.926 1520.54 232.111 1519.66 232.281C1518.81 232.452 1517.91 232.608 1516.98 232.75C1515.16 233.034 1513.67 233.503 1512.5 234.156C1511.37 234.781 1510.51 235.562 1509.94 236.5C1509.4 237.409 1509.13 238.432 1509.13 239.568C1509.13 241.386 1509.77 242.778 1511.05 243.744C1512.33 244.71 1513.96 245.193 1515.95 245.193ZM1560.94 283.545V193.545H1584.29V204.966H1584.81C1585.66 202.75 1586.91 200.719 1588.56 198.872C1590.2 196.997 1592.25 195.506 1594.69 194.398C1597.14 193.261 1599.98 192.693 1603.22 192.693C1607.53 192.693 1611.64 193.844 1615.53 196.145C1619.45 198.446 1622.63 202.068 1625.08 207.011C1627.55 211.955 1628.78 218.375 1628.78 226.273C1628.78 233.83 1627.6 240.094 1625.25 245.065C1622.92 250.037 1619.79 253.744 1615.87 256.188C1611.98 258.631 1607.7 259.852 1603.04 259.852C1599.98 259.852 1597.24 259.355 1594.82 258.361C1592.43 257.338 1590.39 255.96 1588.68 254.227C1587.01 252.466 1585.72 250.477 1584.81 248.261H1584.47V283.545H1560.94ZM1583.95 226.273C1583.95 229.455 1584.37 232.21 1585.19 234.54C1586.04 236.841 1587.24 238.631 1588.77 239.909C1590.33 241.159 1592.19 241.784 1594.35 241.784C1596.51 241.784 1598.34 241.173 1599.85 239.952C1601.38 238.702 1602.55 236.926 1603.34 234.625C1604.17 232.295 1604.58 229.511 1604.58 226.273C1604.58 223.034 1604.17 220.264 1603.34 217.963C1602.55 215.634 1601.38 213.858 1599.85 212.636C1598.34 211.386 1596.51 210.761 1594.35 210.761C1592.19 210.761 1590.33 211.386 1588.77 212.636C1587.24 213.858 1586.04 215.634 1585.19 217.963C1584.37 220.264 1583.95 223.034 1583.95 226.273ZM1662.16 222.182V259H1638.64V171.727H1661.31V205.989H1661.99C1663.47 201.812 1665.92 198.56 1669.36 196.23C1672.8 193.872 1676.93 192.693 1681.76 192.693C1686.39 192.693 1690.41 193.744 1693.82 195.847C1697.26 197.949 1699.92 200.847 1701.79 204.54C1703.69 208.233 1704.63 212.466 1704.6 217.239V259H1681.08V222.182C1681.11 218.943 1680.3 216.401 1678.65 214.554C1677.03 212.707 1674.72 211.784 1671.71 211.784C1669.8 211.784 1668.13 212.21 1666.68 213.062C1665.26 213.886 1664.15 215.08 1663.35 216.642C1662.59 218.176 1662.19 220.023 1662.16 222.182ZM1728.19 283.545C1725.49 283.545 1722.92 283.332 1720.48 282.906C1718.03 282.509 1715.89 281.955 1714.04 281.244L1719.16 264.54C1721.09 265.222 1722.85 265.662 1724.44 265.861C1726.06 266.06 1727.44 265.946 1728.57 265.52C1729.74 265.094 1730.58 264.284 1731.09 263.091L1731.6 261.898L1708.59 193.545H1733.13L1743.7 238.886H1744.38L1755.12 193.545H1779.84L1755.97 264.455C1754.78 268.062 1753.05 271.301 1750.78 274.17C1748.53 277.068 1745.58 279.355 1741.91 281.031C1738.25 282.707 1733.67 283.545 1728.19 283.545Z" fill="#3C4043"/>
<path d="M220.578 236V196H237.844C240.813 196 243.41 196.586 245.637 197.758C247.863 198.93 249.595 200.577 250.832 202.699C252.069 204.822 252.687 207.302 252.687 210.141C252.687 213.005 252.049 215.486 250.773 217.582C249.51 219.678 247.733 221.293 245.441 222.426C243.163 223.559 240.5 224.125 237.453 224.125H227.141V215.687H235.266C236.542 215.687 237.629 215.466 238.527 215.023C239.439 214.568 240.135 213.923 240.617 213.09C241.112 212.257 241.359 211.273 241.359 210.141C241.359 208.995 241.112 208.018 240.617 207.211C240.135 206.391 239.439 205.766 238.527 205.336C237.629 204.893 236.542 204.672 235.266 204.672H231.438V236H220.578ZM256.828 236V206H267.297V211.703H267.609C268.156 209.594 269.022 208.051 270.207 207.074C271.405 206.098 272.805 205.609 274.406 205.609C274.875 205.609 275.337 205.648 275.793 205.727C276.262 205.792 276.711 205.889 277.141 206.02V215.219C276.607 215.036 275.949 214.9 275.168 214.809C274.387 214.717 273.716 214.672 273.156 214.672C272.102 214.672 271.151 214.913 270.305 215.395C269.471 215.863 268.814 216.527 268.332 217.387C267.85 218.233 267.609 219.229 267.609 220.375V236H256.828ZM293.41 236.547C290.155 236.547 287.368 235.902 285.051 234.613C282.733 233.311 280.956 231.501 279.719 229.184C278.482 226.853 277.863 224.151 277.863 221.078C277.863 218.005 278.482 215.31 279.719 212.992C280.956 210.661 282.733 208.852 285.051 207.562C287.368 206.26 290.155 205.609 293.41 205.609C296.665 205.609 299.452 206.26 301.77 207.562C304.087 208.852 305.865 210.661 307.102 212.992C308.339 215.31 308.957 218.005 308.957 221.078C308.957 224.151 308.339 226.853 307.102 229.184C305.865 231.501 304.087 233.311 301.77 234.613C299.452 235.902 296.665 236.547 293.41 236.547ZM293.488 228.578C294.4 228.578 295.188 228.272 295.852 227.66C296.516 227.048 297.03 226.176 297.395 225.043C297.759 223.91 297.941 222.562 297.941 221C297.941 219.424 297.759 218.077 297.395 216.957C297.03 215.824 296.516 214.952 295.852 214.34C295.188 213.728 294.4 213.422 293.488 213.422C292.525 213.422 291.698 213.728 291.008 214.34C290.318 214.952 289.79 215.824 289.426 216.957C289.061 218.077 288.879 219.424 288.879 221C288.879 222.562 289.061 223.91 289.426 225.043C289.79 226.176 290.318 227.048 291.008 227.66C291.698 228.272 292.525 228.578 293.488 228.578ZM313.332 247.25V206H324.035V211.234H324.27C324.66 210.219 325.233 209.288 325.988 208.441C326.743 207.582 327.681 206.898 328.801 206.391C329.921 205.87 331.223 205.609 332.707 205.609C334.686 205.609 336.568 206.137 338.352 207.191C340.148 208.246 341.607 209.906 342.727 212.172C343.859 214.437 344.426 217.38 344.426 221C344.426 224.464 343.885 227.335 342.805 229.613C341.737 231.892 340.305 233.591 338.508 234.711C336.724 235.831 334.764 236.391 332.629 236.391C331.223 236.391 329.966 236.163 328.859 235.707C327.766 235.238 326.828 234.607 326.047 233.813C325.279 233.005 324.686 232.094 324.27 231.078H324.113V247.25H313.332ZM323.879 221C323.879 222.458 324.068 223.721 324.445 224.789C324.836 225.844 325.383 226.664 326.086 227.25C326.802 227.823 327.655 228.109 328.645 228.109C329.634 228.109 330.474 227.829 331.164 227.27C331.867 226.697 332.401 225.883 332.766 224.828C333.143 223.76 333.332 222.484 333.332 221C333.332 219.516 333.143 218.246 332.766 217.191C332.401 216.124 331.867 215.31 331.164 214.75C330.474 214.177 329.634 213.891 328.645 213.891C327.655 213.891 326.802 214.177 326.086 214.75C325.383 215.31 324.836 216.124 324.445 217.191C324.068 218.246 323.879 219.516 323.879 221ZM363.396 236.547C360.14 236.547 357.354 235.902 355.036 234.613C352.718 233.311 350.941 231.501 349.704 229.184C348.467 226.853 347.849 224.151 347.849 221.078C347.849 218.005 348.467 215.31 349.704 212.992C350.941 210.661 352.718 208.852 355.036 207.562C357.354 206.26 360.14 205.609 363.396 205.609C366.651 205.609 369.437 206.26 371.755 207.562C374.073 208.852 375.85 210.661 377.087 212.992C378.324 215.31 378.942 218.005 378.942 221.078C378.942 224.151 378.324 226.853 377.087 229.184C375.85 231.501 374.073 233.311 371.755 234.613C369.437 235.902 366.651 236.547 363.396 236.547ZM363.474 228.578C364.385 228.578 365.173 228.272 365.837 227.66C366.501 227.048 367.015 226.176 367.38 225.043C367.744 223.91 367.927 222.562 367.927 221C367.927 219.424 367.744 218.077 367.38 216.957C367.015 215.824 366.501 214.952 365.837 214.34C365.173 213.728 364.385 213.422 363.474 213.422C362.51 213.422 361.683 213.728 360.993 214.34C360.303 214.952 359.776 215.824 359.411 216.957C359.047 218.077 358.864 219.424 358.864 221C358.864 222.562 359.047 223.91 359.411 225.043C359.776 226.176 360.303 227.048 360.993 227.66C361.683 228.272 362.51 228.578 363.474 228.578ZM383.317 236V206H393.786V211.703H394.099C394.646 209.594 395.511 208.051 396.696 207.074C397.894 206.098 399.294 205.609 400.896 205.609C401.364 205.609 401.826 205.648 402.282 205.727C402.751 205.792 403.2 205.889 403.63 206.02V215.219C403.096 215.036 402.438 214.9 401.657 214.809C400.876 214.717 400.205 214.672 399.646 214.672C398.591 214.672 397.64 214.913 396.794 215.395C395.961 215.863 395.303 216.527 394.821 217.387C394.34 218.233 394.099 219.229 394.099 220.375V236H383.317ZM426.291 206V213.812H406.525V206H426.291ZM410.354 198.812H421.135V226.352C421.135 226.768 421.206 227.12 421.35 227.406C421.493 227.68 421.714 227.888 422.014 228.031C422.313 228.161 422.697 228.227 423.166 228.227C423.492 228.227 423.869 228.187 424.299 228.109C424.742 228.031 425.067 227.966 425.275 227.914L426.838 235.492C426.356 235.635 425.666 235.811 424.768 236.02C423.882 236.228 422.827 236.365 421.604 236.43C419.13 236.56 417.053 236.306 415.373 235.668C413.693 235.017 412.43 233.995 411.584 232.602C410.738 231.208 410.327 229.464 410.354 227.367V198.812ZM430.69 236V206H441.472V236H430.69ZM436.081 202.875C434.623 202.875 433.373 202.393 432.331 201.43C431.289 200.466 430.769 199.307 430.769 197.953C430.769 196.599 431.289 195.44 432.331 194.477C433.373 193.513 434.623 193.031 436.081 193.031C437.552 193.031 438.802 193.513 439.831 194.477C440.873 195.44 441.394 196.599 441.394 197.953C441.394 199.307 440.873 200.466 439.831 201.43C438.802 202.393 437.552 202.875 436.081 202.875ZM461.418 236.547C458.163 236.547 455.376 235.902 453.059 234.613C450.741 233.311 448.964 231.501 447.727 229.184C446.49 226.853 445.871 224.151 445.871 221.078C445.871 218.005 446.49 215.31 447.727 212.992C448.964 210.661 450.741 208.852 453.059 207.562C455.376 206.26 458.163 205.609 461.418 205.609C464.673 205.609 467.46 206.26 469.777 207.562C472.095 208.852 473.872 210.661 475.109 212.992C476.346 215.31 476.965 218.005 476.965 221.078C476.965 224.151 476.346 226.853 475.109 229.184C473.872 231.501 472.095 233.311 469.777 234.613C467.46 235.902 464.673 236.547 461.418 236.547ZM461.496 228.578C462.408 228.578 463.195 228.272 463.859 227.66C464.523 227.048 465.038 226.176 465.402 225.043C465.767 223.91 465.949 222.562 465.949 221C465.949 219.424 465.767 218.077 465.402 216.957C465.038 215.824 464.523 214.952 463.859 214.34C463.195 213.728 462.408 213.422 461.496 213.422C460.533 213.422 459.706 213.728 459.016 214.34C458.326 214.952 457.798 215.824 457.434 216.957C457.069 218.077 456.887 219.424 456.887 221C456.887 222.562 457.069 223.91 457.434 225.043C457.798 226.176 458.326 227.048 459.016 227.66C459.706 228.272 460.533 228.578 461.496 228.578ZM492.121 219.125V236H481.34V206H491.574V211.703H491.887C492.538 209.802 493.684 208.311 495.324 207.23C496.978 206.15 498.905 205.609 501.105 205.609C503.228 205.609 505.07 206.098 506.633 207.074C508.208 208.038 509.426 209.366 510.285 211.059C511.158 212.751 511.587 214.685 511.574 216.859V236H500.793V219.125C500.806 217.641 500.428 216.475 499.66 215.629C498.905 214.783 497.85 214.359 496.496 214.359C495.611 214.359 494.836 214.555 494.172 214.945C493.521 215.323 493.02 215.87 492.668 216.586C492.316 217.289 492.134 218.135 492.121 219.125ZM525.256 236.469C523.342 236.469 521.649 236.156 520.178 235.531C518.719 234.893 517.574 233.93 516.74 232.641C515.907 231.352 515.49 229.711 515.49 227.719C515.49 226.078 515.77 224.678 516.33 223.52C516.89 222.348 517.671 221.391 518.674 220.648C519.676 219.906 520.842 219.34 522.17 218.949C523.511 218.559 524.956 218.305 526.506 218.187C528.186 218.057 529.533 217.901 530.549 217.719C531.577 217.523 532.32 217.257 532.775 216.918C533.231 216.566 533.459 216.104 533.459 215.531V215.453C533.459 214.672 533.16 214.073 532.561 213.656C531.962 213.24 531.193 213.031 530.256 213.031C529.227 213.031 528.387 213.259 527.736 213.715C527.098 214.158 526.714 214.841 526.584 215.766H516.662C516.792 213.943 517.372 212.263 518.4 210.727C519.442 209.177 520.959 207.94 522.951 207.016C524.943 206.078 527.43 205.609 530.412 205.609C532.561 205.609 534.488 205.863 536.193 206.371C537.899 206.866 539.351 207.562 540.549 208.461C541.747 209.346 542.658 210.388 543.283 211.586C543.921 212.771 544.24 214.06 544.24 215.453V236H534.162V231.781H533.928C533.329 232.901 532.6 233.806 531.74 234.496C530.894 235.186 529.924 235.687 528.83 236C527.749 236.313 526.558 236.469 525.256 236.469ZM528.771 229.672C529.592 229.672 530.36 229.503 531.076 229.164C531.805 228.826 532.398 228.337 532.854 227.699C533.309 227.061 533.537 226.286 533.537 225.375V222.875C533.251 222.992 532.945 223.103 532.619 223.207C532.307 223.311 531.968 223.409 531.604 223.5C531.252 223.591 530.874 223.676 530.471 223.754C530.08 223.832 529.67 223.904 529.24 223.969C528.407 224.099 527.723 224.314 527.189 224.613C526.669 224.9 526.278 225.258 526.018 225.688C525.77 226.104 525.646 226.573 525.646 227.094C525.646 227.927 525.939 228.565 526.525 229.008C527.111 229.451 527.86 229.672 528.771 229.672ZM560.173 196V236H549.392V196H560.173Z" fill="#1A73E8"/>
<path d="M220.578 654H234.094L243.391 676.656H243.859L253.156 654H266.672V694H256.047V670.875H255.734L246.828 693.687H240.422L231.516 670.719H231.203V694H220.578V654ZM286.428 694.547C283.173 694.547 280.386 693.902 278.068 692.613C275.751 691.311 273.973 689.501 272.736 687.184C271.499 684.853 270.881 682.151 270.881 679.078C270.881 676.005 271.499 673.31 272.736 670.992C273.973 668.661 275.751 666.852 278.068 665.562C280.386 664.26 283.173 663.609 286.428 663.609C289.683 663.609 292.469 664.26 294.787 665.562C297.105 666.852 298.882 668.661 300.119 670.992C301.356 673.31 301.975 676.005 301.975 679.078C301.975 682.151 301.356 684.853 300.119 687.184C298.882 689.501 297.105 691.311 294.787 692.613C292.469 693.902 289.683 694.547 286.428 694.547ZM286.506 686.578C287.417 686.578 288.205 686.272 288.869 685.66C289.533 685.048 290.048 684.176 290.412 683.043C290.777 681.91 290.959 680.562 290.959 679C290.959 677.424 290.777 676.077 290.412 674.957C290.048 673.824 289.533 672.952 288.869 672.34C288.205 671.728 287.417 671.422 286.506 671.422C285.542 671.422 284.715 671.728 284.025 672.34C283.335 672.952 282.808 673.824 282.443 674.957C282.079 676.077 281.896 677.424 281.896 679C281.896 680.562 282.079 681.91 282.443 683.043C282.808 684.176 283.335 685.048 284.025 685.66C284.715 686.272 285.542 686.578 286.506 686.578ZM317.131 677.125V694H306.35V664H316.584V669.703H316.896C317.548 667.802 318.693 666.311 320.334 665.23C321.988 664.15 323.915 663.609 326.115 663.609C328.238 663.609 330.08 664.098 331.643 665.074C333.218 666.038 334.436 667.366 335.295 669.059C336.167 670.751 336.597 672.685 336.584 674.859V694H325.803V677.125C325.816 675.641 325.438 674.475 324.67 673.629C323.915 672.783 322.86 672.359 321.506 672.359C320.62 672.359 319.846 672.555 319.182 672.945C318.531 673.323 318.029 673.87 317.678 674.586C317.326 675.289 317.144 676.135 317.131 677.125ZM356.359 694.547C353.104 694.547 350.318 693.902 348 692.613C345.682 691.311 343.905 689.501 342.668 687.184C341.431 684.853 340.813 682.151 340.813 679.078C340.813 676.005 341.431 673.31 342.668 670.992C343.905 668.661 345.682 666.852 348 665.562C350.318 664.26 353.104 663.609 356.359 663.609C359.615 663.609 362.401 664.26 364.719 665.562C367.036 666.852 368.814 668.661 370.051 670.992C371.288 673.31 371.906 676.005 371.906 679.078C371.906 682.151 371.288 684.853 370.051 687.184C368.814 689.501 367.036 691.311 364.719 692.613C362.401 693.902 359.615 694.547 356.359 694.547ZM356.438 686.578C357.349 686.578 358.137 686.272 358.801 685.66C359.465 685.048 359.979 684.176 360.344 683.043C360.708 681.91 360.891 680.562 360.891 679C360.891 677.424 360.708 676.077 360.344 674.957C359.979 673.824 359.465 672.952 358.801 672.34C358.137 671.728 357.349 671.422 356.438 671.422C355.474 671.422 354.647 671.728 353.957 672.34C353.267 672.952 352.74 673.824 352.375 674.957C352.01 676.077 351.828 677.424 351.828 679C351.828 680.562 352.01 681.91 352.375 683.043C352.74 684.176 353.267 685.048 353.957 685.66C354.647 686.272 355.474 686.578 356.438 686.578ZM403.703 673.766H393.781C393.729 673.154 393.514 672.626 393.137 672.184C392.759 671.741 392.271 671.402 391.672 671.168C391.086 670.921 390.435 670.797 389.719 670.797C388.794 670.797 388 670.966 387.336 671.305C386.672 671.643 386.346 672.125 386.359 672.75C386.346 673.193 386.535 673.603 386.926 673.98C387.329 674.358 388.104 674.651 389.25 674.859L395.344 675.953C398.417 676.513 400.702 677.457 402.199 678.785C403.71 680.1 404.471 681.865 404.484 684.078C404.471 686.214 403.833 688.069 402.57 689.645C401.32 691.207 399.608 692.418 397.434 693.277C395.272 694.124 392.805 694.547 390.031 694.547C385.448 694.547 381.861 693.609 379.27 691.734C376.691 689.859 375.253 687.385 374.953 684.312H385.656C385.799 685.263 386.268 685.999 387.063 686.52C387.87 687.027 388.885 687.281 390.109 687.281C391.099 687.281 391.913 687.112 392.551 686.773C393.202 686.435 393.534 685.953 393.547 685.328C393.534 684.755 393.247 684.299 392.688 683.961C392.141 683.622 391.281 683.349 390.109 683.141L384.797 682.203C381.737 681.669 379.445 680.654 377.922 679.156C376.398 677.659 375.643 675.732 375.656 673.375C375.643 671.292 376.19 669.527 377.297 668.082C378.417 666.624 380.012 665.517 382.082 664.762C384.165 663.993 386.633 663.609 389.484 663.609C393.82 663.609 397.238 664.508 399.738 666.305C402.251 668.102 403.573 670.589 403.703 673.766ZM408.615 705.25V664H419.318V669.234H419.553C419.943 668.219 420.516 667.288 421.271 666.441C422.027 665.582 422.964 664.898 424.084 664.391C425.204 663.87 426.506 663.609 427.99 663.609C429.969 663.609 431.851 664.137 433.635 665.191C435.432 666.246 436.89 667.906 438.01 670.172C439.143 672.437 439.709 675.38 439.709 679C439.709 682.464 439.169 685.335 438.088 687.613C437.02 689.892 435.588 691.591 433.791 692.711C432.007 693.831 430.048 694.391 427.912 694.391C426.506 694.391 425.249 694.163 424.143 693.707C423.049 693.238 422.111 692.607 421.33 691.813C420.562 691.005 419.969 690.094 419.553 689.078H419.396V705.25H408.615ZM419.162 679C419.162 680.458 419.351 681.721 419.729 682.789C420.119 683.844 420.666 684.664 421.369 685.25C422.085 685.823 422.938 686.109 423.928 686.109C424.917 686.109 425.757 685.829 426.447 685.27C427.15 684.697 427.684 683.883 428.049 682.828C428.426 681.76 428.615 680.484 428.615 679C428.615 677.516 428.426 676.246 428.049 675.191C427.684 674.124 427.15 673.31 426.447 672.75C425.757 672.177 424.917 671.891 423.928 671.891C422.938 671.891 422.085 672.177 421.369 672.75C420.666 673.31 420.119 674.124 419.729 675.191C419.351 676.246 419.162 677.516 419.162 679ZM452.585 694.469C450.671 694.469 448.978 694.156 447.507 693.531C446.049 692.893 444.903 691.93 444.069 690.641C443.236 689.352 442.819 687.711 442.819 685.719C442.819 684.078 443.099 682.678 443.659 681.52C444.219 680.348 445 679.391 446.003 678.648C447.006 677.906 448.171 677.34 449.499 676.949C450.84 676.559 452.285 676.305 453.835 676.187C455.515 676.057 456.862 675.901 457.878 675.719C458.907 675.523 459.649 675.257 460.104 674.918C460.56 674.566 460.788 674.104 460.788 673.531V673.453C460.788 672.672 460.489 672.073 459.89 671.656C459.291 671.24 458.522 671.031 457.585 671.031C456.556 671.031 455.716 671.259 455.065 671.715C454.427 672.158 454.043 672.841 453.913 673.766H443.991C444.121 671.943 444.701 670.263 445.729 668.727C446.771 667.177 448.288 665.94 450.28 665.016C452.272 664.078 454.759 663.609 457.741 663.609C459.89 663.609 461.817 663.863 463.522 664.371C465.228 664.866 466.68 665.562 467.878 666.461C469.076 667.346 469.987 668.388 470.612 669.586C471.25 670.771 471.569 672.06 471.569 673.453V694H461.491V689.781H461.257C460.658 690.901 459.929 691.806 459.069 692.496C458.223 693.186 457.253 693.687 456.159 694C455.078 694.313 453.887 694.469 452.585 694.469ZM456.101 687.672C456.921 687.672 457.689 687.503 458.405 687.164C459.134 686.826 459.727 686.337 460.183 685.699C460.638 685.061 460.866 684.286 460.866 683.375V680.875C460.58 680.992 460.274 681.103 459.948 681.207C459.636 681.311 459.297 681.409 458.933 681.5C458.581 681.591 458.203 681.676 457.8 681.754C457.409 681.832 456.999 681.904 456.569 681.969C455.736 682.099 455.052 682.314 454.519 682.613C453.998 682.9 453.607 683.258 453.347 683.688C453.099 684.104 452.976 684.573 452.976 685.094C452.976 685.927 453.269 686.565 453.854 687.008C454.44 687.451 455.189 687.672 456.101 687.672ZM491.174 694.547C487.919 694.547 485.132 693.902 482.814 692.613C480.497 691.311 478.719 689.501 477.482 687.184C476.245 684.853 475.627 682.151 475.627 679.078C475.627 676.005 476.245 673.31 477.482 670.992C478.719 668.661 480.497 666.852 482.814 665.562C485.132 664.26 487.919 663.609 491.174 663.609C494.117 663.609 496.662 664.143 498.811 665.211C500.972 666.266 502.645 667.763 503.83 669.703C505.015 671.63 505.614 673.896 505.627 676.5H495.627C495.484 674.924 495.028 673.727 494.26 672.906C493.505 672.073 492.528 671.656 491.33 671.656C490.393 671.656 489.572 671.93 488.869 672.477C488.166 673.01 487.619 673.824 487.229 674.918C486.838 675.999 486.643 677.359 486.643 679C486.643 680.641 486.838 682.008 487.229 683.102C487.619 684.182 488.166 684.996 488.869 685.543C489.572 686.077 490.393 686.344 491.33 686.344C492.124 686.344 492.827 686.161 493.439 685.797C494.051 685.419 494.546 684.872 494.924 684.156C495.314 683.427 495.549 682.542 495.627 681.5H505.627C505.588 684.143 504.982 686.448 503.811 688.414C502.639 690.367 500.979 691.878 498.83 692.945C496.695 694.013 494.143 694.547 491.174 694.547ZM524.45 694.547C521.247 694.547 518.487 693.935 516.169 692.711C513.864 691.474 512.087 689.703 510.837 687.398C509.6 685.081 508.981 682.307 508.981 679.078C508.981 675.979 509.606 673.271 510.856 670.953C512.106 668.635 513.871 666.832 516.149 665.543C518.428 664.254 521.117 663.609 524.216 663.609C526.481 663.609 528.532 663.961 530.368 664.664C532.204 665.367 533.773 666.389 535.075 667.73C536.377 669.059 537.38 670.673 538.083 672.574C538.786 674.475 539.138 676.617 539.138 679V681.5H512.341V675.562H529.216C529.203 674.703 528.981 673.948 528.552 673.297C528.135 672.633 527.569 672.118 526.853 671.754C526.149 671.376 525.349 671.187 524.45 671.187C523.578 671.187 522.777 671.376 522.048 671.754C521.319 672.118 520.733 672.626 520.29 673.277C519.86 673.928 519.632 674.69 519.606 675.562V681.969C519.606 682.932 519.808 683.792 520.212 684.547C520.616 685.302 521.195 685.895 521.95 686.324C522.705 686.754 523.617 686.969 524.685 686.969C525.427 686.969 526.104 686.865 526.716 686.656C527.341 686.448 527.875 686.148 528.317 685.758C528.76 685.354 529.086 684.872 529.294 684.312H539.138C538.799 686.396 537.998 688.206 536.735 689.742C535.472 691.266 533.799 692.451 531.716 693.297C529.646 694.13 527.224 694.547 524.45 694.547ZM554.396 694.391C552.261 694.391 550.295 693.831 548.498 692.711C546.714 691.591 545.282 689.892 544.201 687.613C543.133 685.335 542.6 682.464 542.6 679C542.6 675.38 543.16 672.437 544.279 670.172C545.412 667.906 546.87 666.246 548.654 665.191C550.451 664.137 552.339 663.609 554.318 663.609C555.803 663.609 557.105 663.87 558.225 664.391C559.344 664.898 560.282 665.582 561.037 666.441C561.792 667.288 562.365 668.219 562.756 669.234H562.912V654H573.693V694H562.99V689.078H562.756C562.339 690.094 561.74 691.005 560.959 691.813C560.191 692.607 559.253 693.238 558.146 693.707C557.053 694.163 555.803 694.391 554.396 694.391ZM558.381 686.109C559.37 686.109 560.217 685.823 560.92 685.25C561.636 684.664 562.183 683.844 562.561 682.789C562.951 681.721 563.146 680.458 563.146 679C563.146 677.516 562.951 676.246 562.561 675.191C562.183 674.124 561.636 673.31 560.92 672.75C560.217 672.177 559.37 671.891 558.381 671.891C557.391 671.891 556.545 672.177 555.842 672.75C555.152 673.31 554.618 674.124 554.24 675.191C553.876 676.246 553.693 677.516 553.693 679C553.693 680.484 553.876 681.76 554.24 682.828C554.618 683.883 555.152 684.697 555.842 685.27C556.545 685.829 557.391 686.109 558.381 686.109Z" fill="#FF6D7F"/>
<path d="M738.778 361C738.741 360.527 738.563 360.157 738.246 359.892C737.933 359.627 737.457 359.494 736.818 359.494C736.411 359.494 736.077 359.544 735.817 359.643C735.561 359.738 735.372 359.868 735.249 360.034C735.125 360.2 735.062 360.389 735.057 360.602C735.047 360.777 735.078 360.936 735.149 361.078C735.225 361.215 735.343 361.341 735.504 361.455C735.665 361.563 735.871 361.663 736.122 361.753C736.373 361.843 736.671 361.923 737.017 361.994L738.21 362.25C739.015 362.42 739.704 362.645 740.277 362.925C740.85 363.204 741.319 363.533 741.683 363.912C742.048 364.286 742.315 364.707 742.486 365.176C742.661 365.645 742.751 366.156 742.756 366.71C742.751 367.667 742.512 368.476 742.038 369.139C741.565 369.802 740.888 370.306 740.007 370.652C739.131 370.998 738.078 371.17 736.847 371.17C735.582 371.17 734.479 370.983 733.537 370.609C732.599 370.235 731.87 369.66 731.349 368.884C730.833 368.102 730.573 367.103 730.568 365.886H734.318C734.342 366.331 734.453 366.705 734.652 367.009C734.851 367.312 735.13 367.541 735.49 367.697C735.855 367.854 736.288 367.932 736.79 367.932C737.211 367.932 737.564 367.88 737.848 367.776C738.132 367.671 738.348 367.527 738.494 367.342C738.641 367.158 738.717 366.947 738.722 366.71C738.717 366.488 738.643 366.294 738.501 366.128C738.364 365.957 738.137 365.806 737.82 365.673C737.502 365.536 737.074 365.408 736.534 365.29L735.085 364.977C733.797 364.698 732.782 364.232 732.038 363.578C731.3 362.92 730.933 362.023 730.938 360.886C730.933 359.963 731.179 359.156 731.676 358.464C732.178 357.768 732.872 357.226 733.757 356.838C734.647 356.45 735.668 356.256 736.818 356.256C737.992 356.256 739.008 356.452 739.865 356.845C740.722 357.238 741.383 357.792 741.847 358.507C742.315 359.217 742.552 360.048 742.557 361H738.778ZM744.315 371V360.091H748.235V371H744.315ZM746.275 358.955C745.745 358.955 745.29 358.779 744.911 358.429C744.532 358.079 744.343 357.657 744.343 357.165C744.343 356.672 744.532 356.251 744.911 355.901C745.29 355.55 745.745 355.375 746.275 355.375C746.81 355.375 747.264 355.55 747.638 355.901C748.017 356.251 748.207 356.672 748.207 357.165C748.207 357.657 748.017 358.079 747.638 358.429C747.264 358.779 746.81 358.955 746.275 358.955ZM750.233 371V360.091H753.954V362.165H754.068C754.295 361.483 754.683 360.943 755.233 360.545C755.782 360.148 756.435 359.949 757.193 359.949C757.96 359.949 758.62 360.152 759.174 360.56C759.728 360.962 760.062 361.497 760.176 362.165H760.289C760.474 361.497 760.867 360.962 761.468 360.56C762.07 360.152 762.775 359.949 763.585 359.949C764.631 359.949 765.479 360.285 766.127 360.957C766.781 361.63 767.108 362.525 767.108 363.642V371H763.187V364.636C763.187 364.158 763.066 363.784 762.825 363.514C762.583 363.24 762.259 363.102 761.852 363.102C761.449 363.102 761.13 363.24 760.893 363.514C760.661 363.784 760.545 364.158 760.545 364.636V371H756.795V364.636C756.795 364.158 756.674 363.784 756.433 363.514C756.191 363.24 755.867 363.102 755.46 363.102C755.19 363.102 754.958 363.164 754.764 363.287C754.57 363.41 754.418 363.588 754.309 363.82C754.205 364.047 754.153 364.319 754.153 364.636V371H750.233ZM769.041 375.091V360.091H772.933V361.994H773.018C773.161 361.625 773.369 361.286 773.643 360.979C773.918 360.666 774.259 360.418 774.666 360.233C775.073 360.044 775.547 359.949 776.087 359.949C776.806 359.949 777.491 360.141 778.139 360.524C778.793 360.908 779.323 361.511 779.73 362.335C780.142 363.159 780.348 364.229 780.348 365.545C780.348 366.805 780.152 367.849 779.759 368.678C779.37 369.506 778.849 370.124 778.196 370.531C777.547 370.938 776.835 371.142 776.058 371.142C775.547 371.142 775.09 371.059 774.688 370.893C774.29 370.723 773.949 370.493 773.665 370.205C773.385 369.911 773.17 369.58 773.018 369.21H772.962V375.091H769.041ZM772.876 365.545C772.876 366.076 772.945 366.535 773.082 366.923C773.224 367.307 773.423 367.605 773.679 367.818C773.939 368.027 774.25 368.131 774.609 368.131C774.969 368.131 775.275 368.029 775.526 367.825C775.781 367.617 775.975 367.321 776.108 366.938C776.245 366.549 776.314 366.085 776.314 365.545C776.314 365.006 776.245 364.544 776.108 364.161C775.975 363.772 775.781 363.476 775.526 363.273C775.275 363.064 774.969 362.96 774.609 362.96C774.25 362.96 773.939 363.064 773.679 363.273C773.423 363.476 773.224 363.772 773.082 364.161C772.945 364.544 772.876 365.006 772.876 365.545ZM785.911 356.455V371H781.99V356.455H785.911ZM787.908 371V360.091H791.829V371H787.908ZM789.869 358.955C789.338 358.955 788.884 358.779 788.505 358.429C788.126 358.079 787.937 357.657 787.937 357.165C787.937 356.672 788.126 356.251 788.505 355.901C788.884 355.55 789.338 355.375 789.869 355.375C790.404 355.375 790.858 355.55 791.232 355.901C791.611 356.251 791.8 356.672 791.8 357.165C791.8 357.657 791.611 358.079 791.232 358.429C790.858 358.779 790.404 358.955 789.869 358.955ZM800.36 360.091V362.932H793.059V360.091H800.36ZM794.451 371V359.778C794.451 358.879 794.612 358.133 794.934 357.541C795.256 356.949 795.711 356.507 796.298 356.213C796.885 355.92 797.576 355.773 798.372 355.773C798.869 355.773 799.352 355.811 799.821 355.886C800.294 355.962 800.645 356.028 800.872 356.085L800.304 358.898C800.162 358.855 799.996 358.822 799.806 358.798C799.617 358.77 799.451 358.756 799.309 358.756C798.94 358.756 798.691 358.834 798.564 358.99C798.436 359.146 798.372 359.352 798.372 359.608V371H794.451ZM801.873 371V360.091H805.794V371H801.873ZM803.833 358.955C803.303 358.955 802.849 358.779 802.47 358.429C802.091 358.079 801.902 357.657 801.902 357.165C801.902 356.672 802.091 356.251 802.47 355.901C802.849 355.55 803.303 355.375 803.833 355.375C804.368 355.375 804.823 355.55 805.197 355.901C805.576 356.251 805.765 356.672 805.765 357.165C805.765 357.657 805.576 358.079 805.197 358.429C804.823 358.779 804.368 358.955 803.833 358.955ZM813.018 371.199C811.854 371.199 810.85 370.976 810.007 370.531C809.169 370.081 808.523 369.437 808.068 368.599C807.618 367.757 807.393 366.748 807.393 365.574C807.393 364.447 807.621 363.462 808.075 362.619C808.53 361.777 809.171 361.121 810 360.652C810.829 360.183 811.806 359.949 812.933 359.949C813.757 359.949 814.503 360.077 815.17 360.332C815.838 360.588 816.409 360.96 816.882 361.447C817.356 361.93 817.72 362.518 817.976 363.209C818.232 363.9 818.359 364.679 818.359 365.545V366.455H808.615V364.295H814.751C814.747 363.983 814.666 363.708 814.51 363.472C814.358 363.23 814.152 363.043 813.892 362.911C813.636 362.773 813.345 362.705 813.018 362.705C812.701 362.705 812.41 362.773 812.145 362.911C811.88 363.043 811.667 363.228 811.506 363.464C811.349 363.701 811.267 363.978 811.257 364.295V366.625C811.257 366.975 811.33 367.288 811.477 367.562C811.624 367.837 811.835 368.053 812.109 368.209C812.384 368.365 812.715 368.443 813.104 368.443C813.374 368.443 813.62 368.405 813.842 368.33C814.07 368.254 814.264 368.145 814.425 368.003C814.586 367.856 814.704 367.681 814.78 367.477H818.359C818.236 368.235 817.945 368.893 817.486 369.452C817.027 370.006 816.418 370.437 815.661 370.744C814.908 371.047 814.027 371.199 813.018 371.199ZM823.908 371.142C823.132 371.142 822.417 370.938 821.763 370.531C821.114 370.124 820.594 369.506 820.201 368.678C819.812 367.849 819.618 366.805 819.618 365.545C819.618 364.229 819.822 363.159 820.229 362.335C820.641 361.511 821.171 360.908 821.82 360.524C822.473 360.141 823.16 359.949 823.88 359.949C824.419 359.949 824.893 360.044 825.3 360.233C825.707 360.418 826.048 360.666 826.323 360.979C826.597 361.286 826.806 361.625 826.948 361.994H827.005V356.455H830.925V371H827.033V369.21H826.948C826.796 369.58 826.578 369.911 826.294 370.205C826.015 370.493 825.674 370.723 825.272 370.893C824.874 371.059 824.419 371.142 823.908 371.142ZM825.357 368.131C825.717 368.131 826.025 368.027 826.28 367.818C826.541 367.605 826.739 367.307 826.877 366.923C827.019 366.535 827.09 366.076 827.09 365.545C827.09 365.006 827.019 364.544 826.877 364.161C826.739 363.772 826.541 363.476 826.28 363.273C826.025 363.064 825.717 362.96 825.357 362.96C824.997 362.96 824.689 363.064 824.434 363.273C824.183 363.476 823.989 363.772 823.851 364.161C823.719 364.544 823.652 365.006 823.652 365.545C823.652 366.085 823.719 366.549 823.851 366.938C823.989 367.321 824.183 367.617 824.434 367.825C824.689 368.029 824.997 368.131 825.357 368.131Z" fill="#FF6D7F"/>
<path d="M730.938 800V785.455H734.886V791.136H740.114V785.455H744.062V800H740.114V794.318H734.886V800H730.938ZM749.034 800.17C748.338 800.17 747.723 800.057 747.188 799.83C746.657 799.598 746.241 799.247 745.938 798.778C745.634 798.31 745.483 797.713 745.483 796.989C745.483 796.392 745.585 795.883 745.788 795.462C745.992 795.036 746.276 794.688 746.641 794.418C747.005 794.148 747.429 793.942 747.912 793.8C748.4 793.658 748.925 793.565 749.489 793.523C750.099 793.475 750.589 793.419 750.959 793.352C751.333 793.281 751.603 793.184 751.768 793.061C751.934 792.933 752.017 792.765 752.017 792.557V792.528C752.017 792.244 751.908 792.027 751.69 791.875C751.473 791.723 751.193 791.648 750.852 791.648C750.478 791.648 750.173 791.731 749.936 791.896C749.704 792.057 749.564 792.306 749.517 792.642H745.909C745.956 791.979 746.167 791.368 746.541 790.81C746.92 790.246 747.472 789.796 748.196 789.46C748.92 789.119 749.825 788.949 750.909 788.949C751.69 788.949 752.391 789.041 753.011 789.226C753.632 789.406 754.16 789.659 754.595 789.986C755.031 790.308 755.362 790.687 755.589 791.122C755.821 791.553 755.938 792.022 755.938 792.528V800H752.273V798.466H752.188C751.97 798.873 751.705 799.202 751.392 799.453C751.084 799.704 750.732 799.886 750.334 800C749.941 800.114 749.508 800.17 749.034 800.17ZM750.312 797.699C750.611 797.699 750.89 797.637 751.151 797.514C751.416 797.391 751.631 797.214 751.797 796.982C751.963 796.75 752.045 796.468 752.045 796.136V795.227C751.941 795.27 751.83 795.31 751.712 795.348C751.598 795.386 751.475 795.421 751.342 795.455C751.214 795.488 751.077 795.518 750.93 795.547C750.788 795.575 750.639 795.601 750.483 795.625C750.18 795.672 749.931 795.75 749.737 795.859C749.548 795.964 749.406 796.094 749.311 796.25C749.221 796.402 749.176 796.572 749.176 796.761C749.176 797.064 749.283 797.296 749.496 797.457C749.709 797.618 749.981 797.699 750.312 797.699ZM761.731 793.864V800H757.811V789.091H761.532V791.165H761.646C761.883 790.473 762.299 789.931 762.896 789.538C763.497 789.145 764.198 788.949 764.998 788.949C765.77 788.949 766.44 789.126 767.008 789.482C767.581 789.832 768.024 790.315 768.336 790.93C768.654 791.546 768.81 792.249 768.805 793.04V800H764.885V793.864C764.889 793.324 764.752 792.9 764.473 792.592C764.198 792.285 763.815 792.131 763.322 792.131C763 792.131 762.718 792.202 762.477 792.344C762.24 792.481 762.058 792.68 761.93 792.94C761.802 793.196 761.736 793.504 761.731 793.864ZM775.996 804.318C774.902 804.318 773.965 804.162 773.184 803.849C772.407 803.542 771.803 803.116 771.373 802.571C770.946 802.031 770.707 801.411 770.655 800.71H774.434C774.471 800.942 774.566 801.129 774.718 801.271C774.869 801.413 775.063 801.515 775.3 801.577C775.542 801.643 775.811 801.676 776.11 801.676C776.616 801.676 777.035 801.553 777.367 801.307C777.703 801.061 777.871 800.616 777.871 799.972V798.125H777.757C777.615 798.494 777.398 798.809 777.104 799.07C776.81 799.325 776.458 799.522 776.046 799.659C775.634 799.792 775.182 799.858 774.689 799.858C773.913 799.858 773.198 799.678 772.544 799.318C771.896 798.958 771.375 798.388 770.982 797.607C770.594 796.825 770.4 795.805 770.4 794.545C770.4 793.229 770.603 792.159 771.01 791.335C771.422 790.511 771.953 789.908 772.601 789.524C773.255 789.141 773.941 788.949 774.661 788.949C775.201 788.949 775.674 789.044 776.081 789.233C776.489 789.418 776.829 789.666 777.104 789.979C777.379 790.286 777.587 790.625 777.729 790.994H777.814V789.091H781.735V799.972C781.735 800.895 781.496 801.679 781.017 802.322C780.544 802.971 779.876 803.466 779.015 803.807C778.153 804.148 777.147 804.318 775.996 804.318ZM776.138 797.074C776.498 797.074 776.806 796.974 777.061 796.776C777.322 796.572 777.521 796.283 777.658 795.909C777.8 795.53 777.871 795.076 777.871 794.545C777.871 794.006 777.8 793.544 777.658 793.161C777.521 792.772 777.322 792.476 777.061 792.273C776.806 792.064 776.498 791.96 776.138 791.96C775.778 791.96 775.471 792.064 775.215 792.273C774.964 792.476 774.77 792.772 774.632 793.161C774.5 793.544 774.434 794.006 774.434 794.545C774.434 795.085 774.5 795.545 774.632 795.923C774.77 796.297 774.964 796.584 775.215 796.783C775.471 796.977 775.778 797.074 776.138 797.074ZM788.956 800.199C787.791 800.199 786.787 799.976 785.945 799.531C785.107 799.081 784.46 798.437 784.006 797.599C783.556 796.757 783.331 795.748 783.331 794.574C783.331 793.447 783.558 792.462 784.013 791.619C784.467 790.777 785.109 790.121 785.938 789.652C786.766 789.183 787.744 788.949 788.871 788.949C789.695 788.949 790.44 789.077 791.108 789.332C791.776 789.588 792.346 789.96 792.82 790.447C793.293 790.93 793.658 791.518 793.913 792.209C794.169 792.9 794.297 793.679 794.297 794.545V795.455H784.553V793.295H790.689C790.684 792.983 790.604 792.708 790.447 792.472C790.296 792.23 790.09 792.043 789.83 791.911C789.574 791.773 789.283 791.705 788.956 791.705C788.639 791.705 788.348 791.773 788.082 791.911C787.817 792.043 787.604 792.228 787.443 792.464C787.287 792.701 787.204 792.978 787.195 793.295V795.625C787.195 795.975 787.268 796.288 787.415 796.562C787.562 796.837 787.772 797.053 788.047 797.209C788.321 797.365 788.653 797.443 789.041 797.443C789.311 797.443 789.557 797.405 789.78 797.33C790.007 797.254 790.201 797.145 790.362 797.003C790.523 796.856 790.642 796.681 790.717 796.477H794.297C794.174 797.235 793.883 797.893 793.423 798.452C792.964 799.006 792.356 799.437 791.598 799.744C790.845 800.047 789.964 800.199 788.956 800.199ZM802.971 795.227V789.091H806.891V800H803.169V797.926H803.056C802.819 798.622 802.405 799.167 801.813 799.56C801.221 799.948 800.518 800.142 799.703 800.142C798.941 800.142 798.274 799.967 797.701 799.616C797.132 799.266 796.69 798.783 796.373 798.168C796.06 797.552 795.901 796.847 795.897 796.051V789.091H799.817V795.227C799.822 795.767 799.959 796.191 800.229 796.499C800.504 796.806 800.887 796.96 801.38 796.96C801.706 796.96 801.988 796.892 802.225 796.754C802.466 796.612 802.651 796.413 802.779 796.158C802.911 795.897 802.975 795.587 802.971 795.227ZM812.805 785.455V800H808.885V785.455H812.805Z" fill="#FF6D7F"/>
<path d="M730.938 589V574.455H734.886V580.136H740.114V574.455H744.062V589H740.114V583.318H734.886V589H730.938ZM745.994 589V578.091H749.915V589H745.994ZM747.955 576.955C747.424 576.955 746.97 576.779 746.591 576.429C746.212 576.079 746.023 575.657 746.023 575.165C746.023 574.672 746.212 574.251 746.591 573.901C746.97 573.55 747.424 573.375 747.955 573.375C748.49 573.375 748.944 573.55 749.318 573.901C749.697 574.251 749.886 574.672 749.886 575.165C749.886 575.657 749.697 576.079 749.318 576.429C748.944 576.779 748.49 576.955 747.955 576.955ZM751.912 589V578.091H755.719V580.165H755.833C756.032 579.398 756.346 578.837 756.777 578.482C757.213 578.126 757.722 577.949 758.304 577.949C758.475 577.949 758.643 577.963 758.809 577.991C758.979 578.015 759.142 578.051 759.299 578.098V581.443C759.105 581.377 758.865 581.327 758.581 581.294C758.297 581.261 758.053 581.244 757.85 581.244C757.466 581.244 757.121 581.332 756.813 581.507C756.51 581.678 756.271 581.919 756.096 582.232C755.92 582.539 755.833 582.902 755.833 583.318V589H751.912ZM763.116 589.17C762.42 589.17 761.805 589.057 761.27 588.83C760.739 588.598 760.323 588.247 760.02 587.778C759.717 587.31 759.565 586.713 759.565 585.989C759.565 585.392 759.667 584.883 759.87 584.462C760.074 584.036 760.358 583.688 760.723 583.418C761.087 583.148 761.511 582.942 761.994 582.8C762.482 582.658 763.007 582.565 763.571 582.523C764.181 582.475 764.672 582.419 765.041 582.352C765.415 582.281 765.685 582.184 765.85 582.061C766.016 581.933 766.099 581.765 766.099 581.557V581.528C766.099 581.244 765.99 581.027 765.772 580.875C765.555 580.723 765.275 580.648 764.934 580.648C764.56 580.648 764.255 580.731 764.018 580.896C763.786 581.057 763.646 581.306 763.599 581.642H759.991C760.038 580.979 760.249 580.368 760.623 579.81C761.002 579.246 761.554 578.796 762.278 578.46C763.002 578.119 763.907 577.949 764.991 577.949C765.772 577.949 766.473 578.041 767.093 578.226C767.714 578.406 768.242 578.659 768.677 578.986C769.113 579.308 769.444 579.687 769.672 580.122C769.904 580.553 770.02 581.022 770.02 581.528V589H766.355V587.466H766.27C766.052 587.873 765.787 588.202 765.474 588.453C765.166 588.704 764.814 588.886 764.416 589C764.023 589.114 763.59 589.17 763.116 589.17ZM764.395 586.699C764.693 586.699 764.972 586.637 765.233 586.514C765.498 586.391 765.713 586.214 765.879 585.982C766.045 585.75 766.127 585.468 766.127 585.136V584.227C766.023 584.27 765.912 584.31 765.794 584.348C765.68 584.386 765.557 584.421 765.424 584.455C765.297 584.488 765.159 584.518 765.012 584.547C764.87 584.575 764.721 584.601 764.565 584.625C764.262 584.672 764.013 584.75 763.819 584.859C763.63 584.964 763.488 585.094 763.393 585.25C763.303 585.402 763.258 585.572 763.258 585.761C763.258 586.064 763.365 586.296 763.578 586.457C763.791 586.618 764.063 586.699 764.395 586.699ZM777.148 593.318C776.055 593.318 775.117 593.162 774.336 592.849C773.559 592.542 772.956 592.116 772.525 591.571C772.099 591.031 771.86 590.411 771.808 589.71H775.586C775.624 589.942 775.719 590.129 775.87 590.271C776.022 590.413 776.216 590.515 776.452 590.577C776.694 590.643 776.964 590.676 777.262 590.676C777.769 590.676 778.188 590.553 778.519 590.307C778.855 590.061 779.023 589.616 779.023 588.972V587.125H778.91C778.768 587.494 778.55 587.809 778.256 588.07C777.963 588.325 777.61 588.522 777.198 588.659C776.786 588.792 776.334 588.858 775.842 588.858C775.065 588.858 774.35 588.678 773.697 588.318C773.048 587.958 772.527 587.388 772.134 586.607C771.746 585.825 771.552 584.805 771.552 583.545C771.552 582.229 771.755 581.159 772.163 580.335C772.575 579.511 773.105 578.908 773.754 578.524C774.407 578.141 775.094 577.949 775.813 577.949C776.353 577.949 776.826 578.044 777.234 578.233C777.641 578.418 777.982 578.666 778.256 578.979C778.531 579.286 778.739 579.625 778.881 579.994H778.967V578.091H782.887V588.972C782.887 589.895 782.648 590.679 782.17 591.322C781.696 591.971 781.029 592.466 780.167 592.807C779.305 593.148 778.299 593.318 777.148 593.318ZM777.29 586.074C777.65 586.074 777.958 585.974 778.214 585.776C778.474 585.572 778.673 585.283 778.81 584.909C778.952 584.53 779.023 584.076 779.023 583.545C779.023 583.006 778.952 582.544 778.81 582.161C778.673 581.772 778.474 581.476 778.214 581.273C777.958 581.064 777.65 580.96 777.29 580.96C776.931 580.96 776.623 581.064 776.367 581.273C776.116 581.476 775.922 581.772 775.785 582.161C775.652 582.544 775.586 583.006 775.586 583.545C775.586 584.085 775.652 584.545 775.785 584.923C775.922 585.297 776.116 585.584 776.367 585.783C776.623 585.977 776.931 586.074 777.29 586.074ZM787.921 589.17C787.225 589.17 786.609 589.057 786.074 588.83C785.544 588.598 785.127 588.247 784.824 587.778C784.521 587.31 784.37 586.713 784.37 585.989C784.37 585.392 784.471 584.883 784.675 584.462C784.879 584.036 785.163 583.688 785.527 583.418C785.892 583.148 786.316 582.942 786.799 582.8C787.286 582.658 787.812 582.565 788.375 582.523C788.986 582.475 789.476 582.419 789.846 582.352C790.22 582.281 790.489 582.184 790.655 582.061C790.821 581.933 790.904 581.765 790.904 581.557V581.528C790.904 581.244 790.795 581.027 790.577 580.875C790.359 580.723 790.08 580.648 789.739 580.648C789.365 580.648 789.06 580.731 788.823 580.896C788.591 581.057 788.451 581.306 788.404 581.642H784.796C784.843 580.979 785.054 580.368 785.428 579.81C785.807 579.246 786.358 578.796 787.083 578.46C787.807 578.119 788.712 577.949 789.796 577.949C790.577 577.949 791.278 578.041 791.898 578.226C792.518 578.406 793.046 578.659 793.482 578.986C793.917 579.308 794.249 579.687 794.476 580.122C794.708 580.553 794.824 581.022 794.824 581.528V589H791.159V587.466H791.074C790.856 587.873 790.591 588.202 790.279 588.453C789.971 588.704 789.618 588.886 789.221 589C788.828 589.114 788.394 589.17 787.921 589.17ZM789.199 586.699C789.498 586.699 789.777 586.637 790.037 586.514C790.302 586.391 790.518 586.214 790.684 585.982C790.849 585.75 790.932 585.468 790.932 585.136V584.227C790.828 584.27 790.717 584.31 790.598 584.348C790.485 584.386 790.362 584.421 790.229 584.455C790.101 584.488 789.964 584.518 789.817 584.547C789.675 584.575 789.526 584.601 789.37 584.625C789.067 584.672 788.818 584.75 788.624 584.859C788.435 584.964 788.292 585.094 788.198 585.25C788.108 585.402 788.063 585.572 788.063 585.761C788.063 586.064 788.169 586.296 788.382 586.457C788.596 586.618 788.868 586.699 789.199 586.699ZM800.618 582.864V589H796.697V578.091H800.419V580.165H800.533C800.769 579.473 801.186 578.931 801.783 578.538C802.384 578.145 803.085 577.949 803.885 577.949C804.657 577.949 805.327 578.126 805.895 578.482C806.468 578.832 806.911 579.315 807.223 579.93C807.54 580.546 807.696 581.249 807.692 582.04V589H803.771V582.864C803.776 582.324 803.639 581.9 803.359 581.592C803.085 581.285 802.701 581.131 802.209 581.131C801.887 581.131 801.605 581.202 801.364 581.344C801.127 581.481 800.945 581.68 800.817 581.94C800.689 582.196 800.623 582.504 800.618 582.864ZM812.667 589.17C811.971 589.17 811.355 589.057 810.82 588.83C810.29 588.598 809.873 588.247 809.57 587.778C809.267 587.31 809.116 586.713 809.116 585.989C809.116 585.392 809.218 584.883 809.421 584.462C809.625 584.036 809.909 583.688 810.273 583.418C810.638 583.148 811.062 582.942 811.545 582.8C812.032 582.658 812.558 582.565 813.121 582.523C813.732 582.475 814.222 582.419 814.592 582.352C814.966 582.281 815.236 582.184 815.401 582.061C815.567 581.933 815.65 581.765 815.65 581.557V581.528C815.65 581.244 815.541 581.027 815.323 580.875C815.105 580.723 814.826 580.648 814.485 580.648C814.111 580.648 813.806 580.731 813.569 580.896C813.337 581.057 813.197 581.306 813.15 581.642H809.542C809.589 580.979 809.8 580.368 810.174 579.81C810.553 579.246 811.104 578.796 811.829 578.46C812.553 578.119 813.458 577.949 814.542 577.949C815.323 577.949 816.024 578.041 816.644 578.226C817.264 578.406 817.792 578.659 818.228 578.986C818.664 579.308 818.995 579.687 819.222 580.122C819.454 580.553 819.57 581.022 819.57 581.528V589H815.906V587.466H815.82C815.603 587.873 815.337 588.202 815.025 588.453C814.717 588.704 814.364 588.886 813.967 589C813.574 589.114 813.14 589.17 812.667 589.17ZM813.945 586.699C814.244 586.699 814.523 586.637 814.783 586.514C815.049 586.391 815.264 586.214 815.43 585.982C815.595 585.75 815.678 585.468 815.678 585.136V584.227C815.574 584.27 815.463 584.31 815.344 584.348C815.231 584.386 815.108 584.421 814.975 584.455C814.847 584.488 814.71 584.518 814.563 584.547C814.421 584.575 814.272 584.601 814.116 584.625C813.813 584.672 813.564 584.75 813.37 584.859C813.181 584.964 813.039 585.094 812.944 585.25C812.854 585.402 812.809 585.572 812.809 585.761C812.809 586.064 812.915 586.296 813.129 586.457C813.342 586.618 813.614 586.699 813.945 586.699Z" fill="#FF6D7F"/>
<path d="M987.938 589V574.455H991.886V580.335H992.085L996.46 574.455H1001.06L996.148 580.932L1001.18 589H996.46L993.193 583.545L991.886 585.25V589H987.938ZM1005.33 589.17C1004.63 589.17 1004.02 589.057 1003.48 588.83C1002.95 588.598 1002.54 588.247 1002.23 587.778C1001.93 587.31 1001.78 586.713 1001.78 585.989C1001.78 585.392 1001.88 584.883 1002.09 584.462C1002.29 584.036 1002.57 583.688 1002.94 583.418C1003.3 583.148 1003.73 582.942 1004.21 582.8C1004.7 582.658 1005.22 582.565 1005.79 582.523C1006.4 582.475 1006.89 582.419 1007.26 582.352C1007.63 582.281 1007.9 582.184 1008.07 582.061C1008.23 581.933 1008.31 581.765 1008.31 581.557V581.528C1008.31 581.244 1008.21 581.027 1007.99 580.875C1007.77 580.723 1007.49 580.648 1007.15 580.648C1006.78 580.648 1006.47 580.731 1006.23 580.896C1006 581.057 1005.86 581.306 1005.81 581.642H1002.21C1002.25 580.979 1002.46 580.368 1002.84 579.81C1003.22 579.246 1003.77 578.796 1004.49 578.46C1005.22 578.119 1006.12 577.949 1007.21 577.949C1007.99 577.949 1008.69 578.041 1009.31 578.226C1009.93 578.406 1010.46 578.659 1010.89 578.986C1011.33 579.308 1011.66 579.687 1011.89 580.122C1012.12 580.553 1012.23 581.022 1012.23 581.528V589H1008.57V587.466H1008.48C1008.27 587.873 1008 588.202 1007.69 588.453C1007.38 588.704 1007.03 588.886 1006.63 589C1006.24 589.114 1005.8 589.17 1005.33 589.17ZM1006.61 586.699C1006.91 586.699 1007.19 586.637 1007.45 586.514C1007.71 586.391 1007.93 586.214 1008.09 585.982C1008.26 585.75 1008.34 585.468 1008.34 585.136V584.227C1008.24 584.27 1008.13 584.31 1008.01 584.348C1007.89 584.386 1007.77 584.421 1007.64 584.455C1007.51 584.488 1007.37 584.518 1007.23 584.547C1007.09 584.575 1006.94 584.601 1006.78 584.625C1006.48 584.672 1006.23 584.75 1006.03 584.859C1005.84 584.964 1005.7 585.094 1005.61 585.25C1005.52 585.402 1005.47 585.572 1005.47 585.761C1005.47 586.064 1005.58 586.296 1005.79 586.457C1006.01 586.618 1006.28 586.699 1006.61 586.699ZM1020.61 578.091V580.932H1013.43V578.091H1020.61ZM1014.82 575.477H1018.74V585.491C1018.74 585.643 1018.76 585.771 1018.82 585.875C1018.87 585.974 1018.95 586.05 1019.06 586.102C1019.17 586.15 1019.31 586.173 1019.48 586.173C1019.6 586.173 1019.73 586.159 1019.89 586.131C1020.05 586.102 1020.17 586.079 1020.24 586.06L1020.81 588.815C1020.64 588.867 1020.39 588.931 1020.06 589.007C1019.74 589.083 1019.35 589.133 1018.91 589.156C1018.01 589.204 1017.25 589.111 1016.64 588.879C1016.03 588.643 1015.57 588.271 1015.27 587.764C1014.96 587.258 1014.81 586.623 1014.82 585.861V575.477ZM1025.25 589.17C1024.56 589.17 1023.94 589.057 1023.41 588.83C1022.88 588.598 1022.46 588.247 1022.16 587.778C1021.85 587.31 1021.7 586.713 1021.7 585.989C1021.7 585.392 1021.8 584.883 1022.01 584.462C1022.21 584.036 1022.49 583.688 1022.86 583.418C1023.22 583.148 1023.65 582.942 1024.13 582.8C1024.62 582.658 1025.14 582.565 1025.71 582.523C1026.32 582.475 1026.81 582.419 1027.18 582.352C1027.55 582.281 1027.82 582.184 1027.99 582.061C1028.15 581.933 1028.24 581.765 1028.24 581.557V581.528C1028.24 581.244 1028.13 581.027 1027.91 580.875C1027.69 580.723 1027.41 580.648 1027.07 580.648C1026.7 580.648 1026.39 580.731 1026.15 580.896C1025.92 581.057 1025.78 581.306 1025.74 581.642H1022.13C1022.18 580.979 1022.39 580.368 1022.76 579.81C1023.14 579.246 1023.69 578.796 1024.41 578.46C1025.14 578.119 1026.04 577.949 1027.13 577.949C1027.91 577.949 1028.61 578.041 1029.23 578.226C1029.85 578.406 1030.38 578.659 1030.81 578.986C1031.25 579.308 1031.58 579.687 1031.81 580.122C1032.04 580.553 1032.16 581.022 1032.16 581.528V589H1028.49V587.466H1028.41C1028.19 587.873 1027.92 588.202 1027.61 588.453C1027.3 588.704 1026.95 588.886 1026.55 589C1026.16 589.114 1025.73 589.17 1025.25 589.17ZM1026.53 586.699C1026.83 586.699 1027.11 586.637 1027.37 586.514C1027.63 586.391 1027.85 586.214 1028.02 585.982C1028.18 585.75 1028.26 585.468 1028.26 585.136V584.227C1028.16 584.27 1028.05 584.31 1027.93 584.348C1027.82 584.386 1027.69 584.421 1027.56 584.455C1027.43 584.488 1027.3 584.518 1027.15 584.547C1027.01 584.575 1026.86 584.601 1026.7 584.625C1026.4 584.672 1026.15 584.75 1025.96 584.859C1025.77 584.964 1025.62 585.094 1025.53 585.25C1025.44 585.402 1025.39 585.572 1025.39 585.761C1025.39 586.064 1025.5 586.296 1025.71 586.457C1025.93 586.618 1026.2 586.699 1026.53 586.699ZM1037.55 586.415L1037.58 581.756H1038.09L1040.73 578.091H1045.14L1040.71 583.801H1039.6L1037.55 586.415ZM1034.03 589V574.455H1037.95V589H1034.03ZM1040.76 589L1038.26 584.682L1040.82 581.898L1045.25 589H1040.76ZM1049.2 589.17C1048.5 589.17 1047.89 589.057 1047.35 588.83C1046.82 588.598 1046.4 588.247 1046.1 587.778C1045.8 587.31 1045.65 586.713 1045.65 585.989C1045.65 585.392 1045.75 584.883 1045.95 584.462C1046.16 584.036 1046.44 583.688 1046.8 583.418C1047.17 583.148 1047.59 582.942 1048.08 582.8C1048.56 582.658 1049.09 582.565 1049.65 582.523C1050.26 582.475 1050.75 582.419 1051.12 582.352C1051.5 582.281 1051.77 582.184 1051.93 582.061C1052.1 581.933 1052.18 581.765 1052.18 581.557V581.528C1052.18 581.244 1052.07 581.027 1051.85 580.875C1051.64 580.723 1051.36 580.648 1051.02 580.648C1050.64 580.648 1050.34 580.731 1050.1 580.896C1049.87 581.057 1049.73 581.306 1049.68 581.642H1046.07C1046.12 580.979 1046.33 580.368 1046.71 579.81C1047.08 579.246 1047.64 578.796 1048.36 578.46C1049.08 578.119 1049.99 577.949 1051.07 577.949C1051.85 577.949 1052.56 578.041 1053.18 578.226C1053.8 578.406 1054.32 578.659 1054.76 578.986C1055.19 579.308 1055.53 579.687 1055.75 580.122C1055.99 580.553 1056.1 581.022 1056.1 581.528V589H1052.44V587.466H1052.35C1052.13 587.873 1051.87 588.202 1051.56 588.453C1051.25 588.704 1050.9 588.886 1050.5 589C1050.1 589.114 1049.67 589.17 1049.2 589.17ZM1050.48 586.699C1050.77 586.699 1051.05 586.637 1051.31 586.514C1051.58 586.391 1051.8 586.214 1051.96 585.982C1052.13 585.75 1052.21 585.468 1052.21 585.136V584.227C1052.11 584.27 1051.99 584.31 1051.88 584.348C1051.76 584.386 1051.64 584.421 1051.51 584.455C1051.38 584.488 1051.24 584.518 1051.09 584.547C1050.95 584.575 1050.8 584.601 1050.65 584.625C1050.34 584.672 1050.1 584.75 1049.9 584.859C1049.71 584.964 1049.57 585.094 1049.48 585.25C1049.39 585.402 1049.34 585.572 1049.34 585.761C1049.34 586.064 1049.45 586.296 1049.66 586.457C1049.87 586.618 1050.15 586.699 1050.48 586.699ZM1061.9 582.864V589H1057.97V578.091H1061.7V580.165H1061.81C1062.05 579.473 1062.46 578.931 1063.06 578.538C1063.66 578.145 1064.36 577.949 1065.16 577.949C1065.93 577.949 1066.6 578.126 1067.17 578.482C1067.75 578.832 1068.19 579.315 1068.5 579.93C1068.82 580.546 1068.97 581.249 1068.97 582.04V589H1065.05V582.864C1065.05 582.324 1064.92 581.9 1064.64 581.592C1064.36 581.285 1063.98 581.131 1063.49 581.131C1063.16 581.131 1062.88 581.202 1062.64 581.344C1062.4 581.481 1062.22 581.68 1062.09 581.94C1061.97 582.196 1061.9 582.504 1061.9 582.864ZM1073.94 589.17C1073.25 589.17 1072.63 589.057 1072.1 588.83C1071.57 588.598 1071.15 588.247 1070.85 587.778C1070.54 587.31 1070.39 586.713 1070.39 585.989C1070.39 585.392 1070.49 584.883 1070.7 584.462C1070.9 584.036 1071.19 583.688 1071.55 583.418C1071.92 583.148 1072.34 582.942 1072.82 582.8C1073.31 582.658 1073.84 582.565 1074.4 582.523C1075.01 582.475 1075.5 582.419 1075.87 582.352C1076.24 582.281 1076.51 582.184 1076.68 582.061C1076.84 581.933 1076.93 581.765 1076.93 581.557V581.528C1076.93 581.244 1076.82 581.027 1076.6 580.875C1076.38 580.723 1076.1 580.648 1075.76 580.648C1075.39 580.648 1075.08 580.731 1074.85 580.896C1074.61 581.057 1074.47 581.306 1074.43 581.642H1070.82C1070.87 580.979 1071.08 580.368 1071.45 579.81C1071.83 579.246 1072.38 578.796 1073.11 578.46C1073.83 578.119 1074.73 577.949 1075.82 577.949C1076.6 577.949 1077.3 578.041 1077.92 578.226C1078.54 578.406 1079.07 578.659 1079.51 578.986C1079.94 579.308 1080.27 579.687 1080.5 580.122C1080.73 580.553 1080.85 581.022 1080.85 581.528V589H1077.18V587.466H1077.1C1076.88 587.873 1076.61 588.202 1076.3 588.453C1075.99 588.704 1075.64 588.886 1075.24 589C1074.85 589.114 1074.42 589.17 1073.94 589.17ZM1075.22 586.699C1075.52 586.699 1075.8 586.637 1076.06 586.514C1076.33 586.391 1076.54 586.214 1076.71 585.982C1076.87 585.75 1076.96 585.468 1076.96 585.136V584.227C1076.85 584.27 1076.74 584.31 1076.62 584.348C1076.51 584.386 1076.39 584.421 1076.25 584.455C1076.12 584.488 1075.99 584.518 1075.84 584.547C1075.7 584.575 1075.55 584.601 1075.39 584.625C1075.09 584.672 1074.84 584.75 1074.65 584.859C1074.46 584.964 1074.32 585.094 1074.22 585.25C1074.13 585.402 1074.09 585.572 1074.09 585.761C1074.09 586.064 1074.19 586.296 1074.41 586.457C1074.62 586.618 1074.89 586.699 1075.22 586.699Z" fill="#FF6D7F"/>
<path d="M1245.94 589V574.455H1249.89V580.335H1250.09L1254.46 574.455H1259.06L1254.15 580.932L1259.18 589H1254.46L1251.19 583.545L1249.89 585.25V589H1245.94ZM1263.33 589.17C1262.63 589.17 1262.02 589.057 1261.48 588.83C1260.95 588.598 1260.54 588.247 1260.23 587.778C1259.93 587.31 1259.78 586.713 1259.78 585.989C1259.78 585.392 1259.88 584.883 1260.09 584.462C1260.29 584.036 1260.57 583.688 1260.94 583.418C1261.3 583.148 1261.73 582.942 1262.21 582.8C1262.7 582.658 1263.22 582.565 1263.79 582.523C1264.4 582.475 1264.89 582.419 1265.26 582.352C1265.63 582.281 1265.9 582.184 1266.07 582.061C1266.23 581.933 1266.31 581.765 1266.31 581.557V581.528C1266.31 581.244 1266.21 581.027 1265.99 580.875C1265.77 580.723 1265.49 580.648 1265.15 580.648C1264.78 580.648 1264.47 580.731 1264.23 580.896C1264 581.057 1263.86 581.306 1263.81 581.642H1260.21C1260.25 580.979 1260.46 580.368 1260.84 579.81C1261.22 579.246 1261.77 578.796 1262.49 578.46C1263.22 578.119 1264.12 577.949 1265.21 577.949C1265.99 577.949 1266.69 578.041 1267.31 578.226C1267.93 578.406 1268.46 578.659 1268.89 578.986C1269.33 579.308 1269.66 579.687 1269.89 580.122C1270.12 580.553 1270.23 581.022 1270.23 581.528V589H1266.57V587.466H1266.48C1266.27 587.873 1266 588.202 1265.69 588.453C1265.38 588.704 1265.03 588.886 1264.63 589C1264.24 589.114 1263.8 589.17 1263.33 589.17ZM1264.61 586.699C1264.91 586.699 1265.19 586.637 1265.45 586.514C1265.71 586.391 1265.93 586.214 1266.09 585.982C1266.26 585.75 1266.34 585.468 1266.34 585.136V584.227C1266.24 584.27 1266.13 584.31 1266.01 584.348C1265.89 584.386 1265.77 584.421 1265.64 584.455C1265.51 584.488 1265.37 584.518 1265.23 584.547C1265.09 584.575 1264.94 584.601 1264.78 584.625C1264.48 584.672 1264.23 584.75 1264.03 584.859C1263.84 584.964 1263.7 585.094 1263.61 585.25C1263.52 585.402 1263.47 585.572 1263.47 585.761C1263.47 586.064 1263.58 586.296 1263.79 586.457C1264.01 586.618 1264.28 586.699 1264.61 586.699ZM1276.03 582.864V589H1272.11V578.091H1275.83V580.165H1275.94C1276.18 579.473 1276.6 578.931 1277.19 578.538C1277.79 578.145 1278.49 577.949 1279.3 577.949C1280.07 577.949 1280.74 578.126 1281.31 578.482C1281.88 578.832 1282.32 579.315 1282.63 579.93C1282.95 580.546 1283.11 581.249 1283.1 582.04V589H1279.18V582.864C1279.19 582.324 1279.05 581.9 1278.77 581.592C1278.49 581.285 1278.11 581.131 1277.62 581.131C1277.3 581.131 1277.02 581.202 1276.77 581.344C1276.54 581.481 1276.35 581.68 1276.23 581.94C1276.1 582.196 1276.03 582.504 1276.03 582.864ZM1285.04 578.091H1288.96V589.369C1288.96 590.326 1288.76 591.074 1288.35 591.614C1287.96 592.153 1287.4 592.535 1286.68 592.757C1285.96 592.98 1285.12 593.091 1284.16 593.091C1284.01 593.091 1283.88 593.089 1283.77 593.084C1283.64 593.079 1283.51 593.072 1283.36 593.062V590.165C1283.46 590.174 1283.54 590.181 1283.61 590.186C1283.68 590.191 1283.74 590.193 1283.82 590.193C1284.28 590.193 1284.6 590.12 1284.77 589.973C1284.95 589.831 1285.04 589.601 1285.04 589.284V578.091ZM1287 576.955C1286.47 576.955 1286.01 576.779 1285.63 576.429C1285.26 576.079 1285.07 575.657 1285.07 575.165C1285.07 574.672 1285.26 574.251 1285.63 573.901C1286.01 573.55 1286.47 573.375 1287 573.375C1287.53 573.375 1287.99 573.55 1288.36 573.901C1288.74 574.251 1288.93 574.672 1288.93 575.165C1288.93 575.657 1288.74 576.079 1288.36 576.429C1287.99 576.779 1287.53 576.955 1287 576.955ZM1290.96 589V578.091H1294.88V589H1290.96ZM1292.92 576.955C1292.39 576.955 1291.93 576.779 1291.55 576.429C1291.17 576.079 1290.98 575.657 1290.98 575.165C1290.98 574.672 1291.17 574.251 1291.55 573.901C1291.93 573.55 1292.39 573.375 1292.92 573.375C1293.45 573.375 1293.91 573.55 1294.28 573.901C1294.66 574.251 1294.85 574.672 1294.85 575.165C1294.85 575.657 1294.66 576.079 1294.28 576.429C1293.91 576.779 1293.45 576.955 1292.92 576.955Z" fill="#FF6D7F"/>
<path d="M1044.54 359.636V356.455H1057.18V359.636H1052.81V371H1048.91V359.636H1044.54ZM1057.59 371V360.091H1061.4V362.165H1061.51C1061.71 361.398 1062.03 360.837 1062.46 360.482C1062.89 360.126 1063.4 359.949 1063.98 359.949C1064.15 359.949 1064.32 359.963 1064.49 359.991C1064.66 360.015 1064.82 360.051 1064.98 360.098V363.443C1064.78 363.377 1064.55 363.327 1064.26 363.294C1063.98 363.261 1063.73 363.244 1063.53 363.244C1063.15 363.244 1062.8 363.332 1062.49 363.507C1062.19 363.678 1061.95 363.919 1061.78 364.232C1061.6 364.539 1061.51 364.902 1061.51 365.318V371H1057.59ZM1068.8 371.17C1068.1 371.17 1067.48 371.057 1066.95 370.83C1066.42 370.598 1066 370.247 1065.7 369.778C1065.4 369.31 1065.24 368.713 1065.24 367.989C1065.24 367.392 1065.35 366.883 1065.55 366.462C1065.75 366.036 1066.04 365.688 1066.4 365.418C1066.77 365.148 1067.19 364.942 1067.67 364.8C1068.16 364.658 1068.69 364.565 1069.25 364.523C1069.86 364.475 1070.35 364.419 1070.72 364.352C1071.09 364.281 1071.36 364.184 1071.53 364.061C1071.7 363.933 1071.78 363.765 1071.78 363.557V363.528C1071.78 363.244 1071.67 363.027 1071.45 362.875C1071.23 362.723 1070.95 362.648 1070.61 362.648C1070.24 362.648 1069.93 362.731 1069.7 362.896C1069.47 363.057 1069.33 363.306 1069.28 363.642H1065.67C1065.72 362.979 1065.93 362.368 1066.3 361.81C1066.68 361.246 1067.23 360.796 1067.96 360.46C1068.68 360.119 1069.59 359.949 1070.67 359.949C1071.45 359.949 1072.15 360.041 1072.77 360.226C1073.39 360.406 1073.92 360.659 1074.36 360.986C1074.79 361.308 1075.12 361.687 1075.35 362.122C1075.58 362.553 1075.7 363.022 1075.7 363.528V371H1072.03V369.466H1071.95C1071.73 369.873 1071.47 370.202 1071.15 370.453C1070.85 370.704 1070.49 370.886 1070.1 371C1069.7 371.114 1069.27 371.17 1068.8 371.17ZM1070.07 368.699C1070.37 368.699 1070.65 368.637 1070.91 368.514C1071.18 368.391 1071.39 368.214 1071.56 367.982C1071.72 367.75 1071.81 367.468 1071.81 367.136V366.227C1071.7 366.27 1071.59 366.31 1071.47 366.348C1071.36 366.386 1071.24 366.421 1071.1 366.455C1070.98 366.488 1070.84 366.518 1070.69 366.547C1070.55 366.575 1070.4 366.601 1070.24 366.625C1069.94 366.672 1069.69 366.75 1069.5 366.859C1069.31 366.964 1069.17 367.094 1069.07 367.25C1068.98 367.402 1068.94 367.572 1068.94 367.761C1068.94 368.064 1069.04 368.296 1069.26 368.457C1069.47 368.618 1069.74 368.699 1070.07 368.699ZM1081.52 371.142C1080.74 371.142 1080.03 370.938 1079.38 370.531C1078.73 370.124 1078.21 369.506 1077.81 368.678C1077.43 367.849 1077.23 366.805 1077.23 365.545C1077.23 364.229 1077.44 363.159 1077.84 362.335C1078.25 361.511 1078.78 360.908 1079.43 360.524C1080.09 360.141 1080.77 359.949 1081.49 359.949C1082.03 359.949 1082.51 360.044 1082.91 360.233C1083.32 360.418 1083.66 360.666 1083.94 360.979C1084.21 361.286 1084.42 361.625 1084.56 361.994H1084.62V356.455H1088.54V371H1084.65V369.21H1084.56C1084.41 369.58 1084.19 369.911 1083.91 370.205C1083.63 370.493 1083.29 370.723 1082.88 370.893C1082.49 371.059 1082.03 371.142 1081.52 371.142ZM1082.97 368.131C1083.33 368.131 1083.64 368.027 1083.89 367.818C1084.15 367.605 1084.35 367.307 1084.49 366.923C1084.63 366.535 1084.7 366.076 1084.7 365.545C1084.7 365.006 1084.63 364.544 1084.49 364.161C1084.35 363.772 1084.15 363.476 1083.89 363.273C1083.64 363.064 1083.33 362.96 1082.97 362.96C1082.61 362.96 1082.3 363.064 1082.05 363.273C1081.8 363.476 1081.6 363.772 1081.46 364.161C1081.33 364.544 1081.27 365.006 1081.27 365.545C1081.27 366.085 1081.33 366.549 1081.46 366.938C1081.6 367.321 1081.8 367.617 1082.05 367.825C1082.3 368.029 1082.61 368.131 1082.97 368.131ZM1090.46 371V360.091H1094.38V371H1090.46ZM1092.42 358.955C1091.89 358.955 1091.44 358.779 1091.06 358.429C1090.68 358.079 1090.49 357.657 1090.49 357.165C1090.49 356.672 1090.68 356.251 1091.06 355.901C1091.44 355.55 1091.89 355.375 1092.42 355.375C1092.96 355.375 1093.41 355.55 1093.79 355.901C1094.17 356.251 1094.36 356.672 1094.36 357.165C1094.36 357.657 1094.17 358.079 1093.79 358.429C1093.41 358.779 1092.96 358.955 1092.42 358.955ZM1102.89 360.091V362.932H1095.7V360.091H1102.89ZM1097.09 357.477H1101.01V367.491C1101.01 367.643 1101.04 367.771 1101.09 367.875C1101.14 367.974 1101.22 368.05 1101.33 368.102C1101.44 368.15 1101.58 368.173 1101.75 368.173C1101.87 368.173 1102.01 368.159 1102.16 368.131C1102.32 368.102 1102.44 368.079 1102.52 368.06L1103.09 370.815C1102.91 370.867 1102.66 370.931 1102.33 371.007C1102.01 371.083 1101.63 371.133 1101.18 371.156C1100.28 371.204 1099.53 371.111 1098.92 370.879C1098.31 370.643 1097.85 370.271 1097.54 369.764C1097.23 369.258 1097.08 368.623 1097.09 367.861V357.477ZM1104.49 371V360.091H1108.41V371H1104.49ZM1106.45 358.955C1105.92 358.955 1105.46 358.779 1105.08 358.429C1104.7 358.079 1104.51 357.657 1104.51 357.165C1104.51 356.672 1104.7 356.251 1105.08 355.901C1105.46 355.55 1105.92 355.375 1106.45 355.375C1106.98 355.375 1107.44 355.55 1107.81 355.901C1108.19 356.251 1108.38 356.672 1108.38 357.165C1108.38 357.657 1108.19 358.079 1107.81 358.429C1107.44 358.779 1106.98 358.955 1106.45 358.955ZM1115.66 371.199C1114.48 371.199 1113.46 370.964 1112.62 370.496C1111.78 370.022 1111.13 369.364 1110.68 368.521C1110.23 367.674 1110.01 366.691 1110.01 365.574C1110.01 364.456 1110.23 363.476 1110.68 362.634C1111.13 361.786 1111.78 361.128 1112.62 360.659C1113.46 360.186 1114.48 359.949 1115.66 359.949C1116.84 359.949 1117.86 360.186 1118.7 360.659C1119.54 361.128 1120.19 361.786 1120.64 362.634C1121.09 363.476 1121.31 364.456 1121.31 365.574C1121.31 366.691 1121.09 367.674 1120.64 368.521C1120.19 369.364 1119.54 370.022 1118.7 370.496C1117.86 370.964 1116.84 371.199 1115.66 371.199ZM1115.69 368.301C1116.02 368.301 1116.31 368.19 1116.55 367.967C1116.79 367.745 1116.98 367.428 1117.11 367.016C1117.24 366.604 1117.31 366.114 1117.31 365.545C1117.31 364.973 1117.24 364.482 1117.11 364.075C1116.98 363.663 1116.79 363.346 1116.55 363.124C1116.31 362.901 1116.02 362.79 1115.69 362.79C1115.34 362.79 1115.04 362.901 1114.79 363.124C1114.54 363.346 1114.34 363.663 1114.21 364.075C1114.08 364.482 1114.01 364.973 1114.01 365.545C1114.01 366.114 1114.08 366.604 1114.21 367.016C1114.34 367.428 1114.54 367.745 1114.79 367.967C1115.04 368.19 1115.34 368.301 1115.69 368.301ZM1126.82 364.864V371H1122.9V360.091H1126.63V362.165H1126.74C1126.98 361.473 1127.39 360.931 1127.99 360.538C1128.59 360.145 1129.29 359.949 1130.09 359.949C1130.86 359.949 1131.53 360.126 1132.1 360.482C1132.67 360.832 1133.12 361.315 1133.43 361.93C1133.75 362.546 1133.9 363.249 1133.9 364.04V371H1129.98V364.864C1129.98 364.324 1129.85 363.9 1129.57 363.592C1129.29 363.285 1128.91 363.131 1128.42 363.131C1128.09 363.131 1127.81 363.202 1127.57 363.344C1127.33 363.481 1127.15 363.68 1127.02 363.94C1126.9 364.196 1126.83 364.504 1126.82 364.864ZM1138.87 371.17C1138.18 371.17 1137.56 371.057 1137.03 370.83C1136.5 370.598 1136.08 370.247 1135.78 369.778C1135.47 369.31 1135.32 368.713 1135.32 367.989C1135.32 367.392 1135.42 366.883 1135.63 366.462C1135.83 366.036 1136.12 365.688 1136.48 365.418C1136.85 365.148 1137.27 364.942 1137.75 364.8C1138.24 364.658 1138.77 364.565 1139.33 364.523C1139.94 364.475 1140.43 364.419 1140.8 364.352C1141.17 364.281 1141.44 364.184 1141.61 364.061C1141.77 363.933 1141.86 363.765 1141.86 363.557V363.528C1141.86 363.244 1141.75 363.027 1141.53 362.875C1141.31 362.723 1141.03 362.648 1140.69 362.648C1140.32 362.648 1140.01 362.731 1139.78 362.896C1139.54 363.057 1139.4 363.306 1139.36 363.642H1135.75C1135.8 362.979 1136.01 362.368 1136.38 361.81C1136.76 361.246 1137.31 360.796 1138.04 360.46C1138.76 360.119 1139.66 359.949 1140.75 359.949C1141.53 359.949 1142.23 360.041 1142.85 360.226C1143.47 360.406 1144 360.659 1144.44 360.986C1144.87 361.308 1145.2 361.687 1145.43 362.122C1145.66 362.553 1145.78 363.022 1145.78 363.528V371H1142.11V369.466H1142.03C1141.81 369.873 1141.54 370.202 1141.23 370.453C1140.92 370.704 1140.57 370.886 1140.17 371C1139.78 371.114 1139.35 371.17 1138.87 371.17ZM1140.15 368.699C1140.45 368.699 1140.73 368.637 1140.99 368.514C1141.26 368.391 1141.47 368.214 1141.64 367.982C1141.8 367.75 1141.89 367.468 1141.89 367.136V366.227C1141.78 366.27 1141.67 366.31 1141.55 366.348C1141.44 366.386 1141.31 366.421 1141.18 366.455C1141.05 366.488 1140.92 366.518 1140.77 366.547C1140.63 366.575 1140.48 366.601 1140.32 366.625C1140.02 366.672 1139.77 366.75 1139.58 366.859C1139.39 366.964 1139.25 367.094 1139.15 367.25C1139.06 367.402 1139.02 367.572 1139.02 367.761C1139.02 368.064 1139.12 368.296 1139.34 368.457C1139.55 368.618 1139.82 368.699 1140.15 368.699ZM1151.57 356.455V371H1147.65V356.455H1151.57Z" fill="#FF6D7F"/>
<rect x="731.5" y="819.5" width="119" height="129" stroke="#FF6D7F" stroke-width="5"/>
<rect x="850.5" y="819.5" width="119" height="129" stroke="#FF6D7F" stroke-width="5"/>
<rect x="969.5" y="819.5" width="119" height="129" stroke="#FF6D7F" stroke-width="5"/>
<rect x="1088.5" y="819.5" width="119" height="129" stroke="#FF6D7F" stroke-width="5"/>
<rect x="1208.5" y="819.5" width="119" height="129" stroke="#FF6D7F" stroke-width="5"/>
<rect x="731.5" y="609.5" width="129" height="129" stroke="#FF6D7F" stroke-width="5"/>
<rect x="860.5" y="609.5" width="129" height="129" stroke="#FF6D7F" stroke-width="5"/>
<rect x="989.5" y="609.5" width="129" height="129" stroke="#FF6D7F" stroke-width="5"/>
<rect x="1118.5" y="609.5" width="129" height="129" stroke="#FF6D7F" stroke-width="5"/>
<rect x="1247.5" y="609.5" width="129" height="129" stroke="#FF6D7F" stroke-width="5"/>
<rect x="1376.5" y="609.5" width="129" height="129" stroke="#FF6D7F" stroke-width="5"/>
<rect x="731.5" y="390.5" width="129" height="129" stroke="#FF6D7F" stroke-width="5"/>
<rect x="860.5" y="390.5" width="129" height="129" stroke="#FF6D7F" stroke-width="5"/>
<rect x="1046.5" y="390.5" width="129" height="129" stroke="#FF6D7F" stroke-width="5"/>
<rect x="1175.5" y="390.5" width="129" height="129" stroke="#FF6D7F" stroke-width="5"/>
<rect x="729" y="138" width="78" height="20" fill="#1A73E8"/>
<rect x="816" y="138" width="67" height="20" fill="#1A73E8"/>
<rect x="892" y="138" width="23" height="20" fill="#1A73E8"/>
<rect x="927" y="138" width="23" height="20" fill="#1A73E8"/>
<rect x="961" y="138" width="67" height="20" fill="#1A73E8"/>
<rect x="1059" y="138" width="76" height="20" fill="#1A73E8"/>
<rect x="1130" y="138" width="73" height="20" fill="#1A73E8"/>
<rect x="1209" y="138" width="68" height="20" fill="#1A73E8"/>
<rect x="1283" y="138" width="69" height="20" fill="#1A73E8"/>
<rect x="1360" y="138" width="68" height="20" fill="#1A73E8"/>
<rect x="1440" y="138" width="43" height="20" fill="#1A73E8"/>
<rect x="1485" y="138" width="63" height="20" fill="#1A73E8"/>
<rect x="1560" y="138" width="68" height="20" fill="#1A73E8"/>
<rect x="1637" y="138" width="67" height="20" fill="#1A73E8"/>
<rect x="1707" y="138" width="73" height="20" fill="#1A73E8"/>
</svg>
