<svg xmlns="http://www.w3.org/2000/svg" width="1920" height="1080" fill="none"><path fill="#3C4043" d="M756.832 862.368c0-8.832 5.76-13.184 13.056-13.184 7.424 0 13.184 4.352 13.184 13.184 0 8.704-5.76 13.184-13.184 13.184-7.296 0-13.056-4.48-13.056-13.184Zm46.464 0c0-17.92-14.72-30.976-33.408-30.976-18.56 0-33.28 13.056-33.28 30.976 0 17.792 14.72 30.976 33.28 30.976 18.688 0 33.408-13.184 33.408-30.976ZM773.6 901.792h-20.736v40.576h82.56v-16.256H773.6v-24.32Zm58.24-44.416v-33.28h-20.736v86.656h20.736v-36.608h14.976v-16.768H831.84Zm103.158 37.76h20.736V823.84h-20.736v8.96H909.27v15.488h25.728v4.992H909.27v15.488h25.728v26.368Zm-13.184-23.04c-12.928 2.304-24.832 3.072-40.192 3.328v-45.952h-20.608v62.464h10.24c21.248 0 36.608-.512 52.864-3.584l-2.304-16.256Zm-7.296 56.448c-14.336 0-21.12-2.176-21.12-7.936 0-5.632 6.784-7.808 21.12-7.808 14.208 0 20.992 2.176 20.992 7.808 0 5.76-6.784 7.936-20.992 7.936Zm0-31.616c-25.728 0-41.856 8.704-41.856 23.68 0 15.104 16.128 23.808 41.856 23.808 25.6 0 41.728-8.704 41.728-23.808 0-14.976-16.128-23.68-41.728-23.68Zm92.022 7.168c-6.656 0-11.392-4.224-11.392-12.544s4.736-12.544 11.392-12.544c6.78 0 11.39 4.224 11.39 12.544s-4.61 12.544-11.39 12.544Zm0-41.728c-17.792 0-31.104 12.16-31.104 29.184s13.312 29.184 31.104 29.184c17.79 0 31.1-12.16 31.1-29.184s-13.31-29.184-31.1-29.184Zm10.37-36.096h-20.738v14.72h-24.448v16.256h69.506v-16.256h-24.32v-14.72Zm66.56 43.392h-15.87v-45.568h-20.74v119.936h20.74V886.56h15.87v-16.896Zm46.84-35.584h-20.1v18.688c0 20.224-4.22 41.728-22.53 52.992l12.29 15.488c9.86-6.144 16.26-15.872 20.22-27.648 3.72 10.496 9.48 19.328 18.69 24.96l11.01-16.128c-16.64-11.264-19.58-30.976-19.58-50.688V834.08Zm19.84 29.056h-12.42v16.512h12.42v59.52h19.2V825.632h-19.2v37.504Zm24.44-39.168v120.064h19.59V823.968h-19.59Zm77.43 70.016c3.59.64 7.43.896 11.27.896s7.68-.256 11.26-.896v20.352h-22.53v-20.352Zm11.27-49.024c15.36 0 25.09 5.888 25.09 17.024 0 11.008-9.73 17.024-25.09 17.024s-25.09-6.016-25.09-17.024c0-11.136 9.73-17.024 25.09-17.024Zm31.87 69.376v-27.904c8.58-5.76 13.7-14.208 13.7-24.448 0-20.096-19.46-33.024-45.57-33.024s-45.57 12.928-45.57 33.024c0 10.24 5.12 18.688 13.7 24.448v27.904h-22.4v16.512h108.67v-16.512h-22.53ZM798.28 618.064l-19.968-.512c.128 2.56-.128 6.016-.384 8.576-.128 1.664-.384 3.328-.64 5.12h-3.072c-9.088 0-20.352-1.152-24.96-1.792l.512 17.664c6.4.256 16.384.896 23.808.896h2.048c-.512 4.736-.896 9.6-1.152 14.464-18.048 8.704-31.104 25.984-31.104 42.496 0 14.208 8.576 20.096 18.432 20.096 6.528 0 13.056-1.792 18.816-4.352.512 1.536.896 3.072 1.408 4.352l17.792-5.248c-1.024-2.944-1.92-6.016-2.816-9.088 9.216-7.552 19.2-20.48 25.984-37.248 6.912 3.2 10.496 8.96 10.496 15.488 0 10.368-7.68 23.168-33.28 25.984l10.24 16.256c32.384-4.864 42.24-23.296 42.24-41.344 0-15.232-9.984-26.624-24.32-31.872a112.594 112.594 0 0 1 2.176-5.888l-18.816-4.48c-.128 1.792-.512 4.608-1.024 7.296h-.768c-6.016 0-12.16.64-17.792 1.792l.768-9.216c15.872-.64 33.024-2.304 45.056-4.48l-.128-17.792c-14.464 3.584-27.392 5.12-42.496 5.632.256-1.792.64-3.712 1.024-5.376.512-2.176 1.024-4.48 1.92-7.424Zm-36.736 82.688c0-5.504 4.864-13.568 12.8-19.712a188.99 188.99 0 0 0 2.432 22.144c-3.712 2.048-7.296 3.072-10.112 3.072-3.84 0-5.12-1.92-5.12-5.504Zm30.08-27.776c4.096-1.152 8.704-2.048 14.08-2.304-3.584 8.192-8.064 14.464-12.928 19.712-.64-5.248-1.024-11.008-1.152-17.408Zm105.216-43.648-23.808-.256c.896 4.48 1.152 9.984 1.152 13.824 0 8.064.128 22.784 1.408 34.944 3.584 34.944 16.128 47.872 31.36 47.872 11.136 0 19.328-7.936 28.288-30.592l-15.616-19.2c-1.92 8.704-6.4 24.704-12.288 24.704-7.424 0-9.984-11.776-11.52-28.544-.768-8.576-.768-16.896-.768-25.344 0-3.712.768-12.032 1.792-17.408Zm62.592 2.432-19.84 6.4c14.976 16.384 21.248 50.048 23.04 69.376l20.608-7.936c-1.152-18.432-11.264-53.12-23.808-67.84Zm153.468 3.584-12.28-11.392c-2.69.768-11.14 1.28-15.36 1.28h-66.44c-5.63 0-11-.64-16.25-1.408V645.2c6.65-.64 10.62-1.024 16.25-1.024h63.24c-2.82 5.376-11.65 15.104-21.12 21.12l16 12.8c11.52-8.32 23.68-24.32 30.2-35.072 1.28-2.048 4.23-5.76 5.76-7.68Zm-52.73 17.408h-22.53c.77 4.608 1.02 8.32 1.02 12.8 0 20.864-3.2 31.744-17.4 42.496-5.38 4.096-10.12 6.272-14.6 7.808l18.05 14.72c36.1-20.096 35.46-47.744 35.46-77.824Zm68.22 17.536 9.6 19.584c14.85-4.224 30.34-10.752 43.27-17.28v37.504c0 6.144-.52 15.104-1.03 18.56h24.58c-1.03-3.584-1.28-12.416-1.28-18.56v-50.432c12.16-8.064 24.57-18.048 34.17-27.392l-16.76-16c-8.07 9.728-23.68 23.552-36.61 31.488-14.34 8.704-32.64 16.64-55.94 22.528Zm158.85-6.912-3.2.64h-29.7v17.536h21.76c-5.37 13.44-14.2 24.448-25.21 31.104 4.48 2.816 12.03 9.984 15.1 13.952 15.36-10.624 27.91-30.976 33.79-57.984l-12.54-5.248Zm65.54-14.464c-5.51 7.04-13.83 15.104-21.64 21.632-3.2-6.144-5.76-12.8-7.93-19.84v-7.68c1.92.896 3.58 1.792 4.99 2.688l10.11-17.28c-11.01-5.632-32.77-12.416-47.23-15.36l-9.34 15.232c9.21 2.304 20.73 6.144 30.46 9.984h-39.55v17.792h30.33v56.832c0 2.048-.76 2.688-3.07 2.816-2.3 0-10.62 0-16.38-.384 2.69 4.992 5.5 13.312 6.27 18.688 11.01 0 19.2-.256 25.34-3.2 6.15-3.072 8.07-8.064 8.07-17.536v-20.864c9.09 15.104 21.25 27.008 38.01 34.816 2.82-5.12 8.84-12.928 13.06-16.64-14.21-5.504-25.47-14.336-34.05-25.6 9.22-6.272 20.1-14.976 29.7-23.296l-17.15-12.8Zm99.96 51.584c-3.32 2.688-7.16 4.992-11.52 7.04-4.99-2.048-9.34-4.352-13.05-7.04h24.57Zm-35.2-39.68v4.608l-11.26-4.992a42.292 42.292 0 0 1-2.69 4.608v-8.832h27.65l-2.43 2.56c1.41.64 2.94 1.28 4.35 2.048h-15.62Zm3.33-18.56 3.59-1.536c-.77-2.56-2.44-5.632-4.48-8.704 3.32-.128 6.65-.256 10.11-.512 1.92 3.456 3.84 7.424 4.99 10.752h-14.21Zm24.58 0 6.27-2.304c-.77-2.816-2.3-6.272-4.22-9.6 6.52-.512 13.05-1.152 19.32-1.92-1.92 4.608-4.6 9.856-7.04 13.824h-14.33Zm33.28 20.608c-2.18-1.792-4.48-3.584-6.66-5.12l-12.29 8.832c1.54 1.152 3.08 2.56 4.61 3.968-3.84-1.024-8.32-2.56-10.75-4.096-.51 3.84-1.28 4.608-4.1 4.608h-10.36c-3.84 0-4.61-.256-4.61-3.328v-6.144c4.86 2.56 9.47 5.632 12.16 8.064l9.21-10.112c-1.28-1.024-2.94-2.176-4.73-3.328h27.52v6.656Zm-10.75 24.704-2.95.512h-24.32c1.41-1.408 2.82-2.944 3.97-4.48h6.91c9.6 0 13.83-2.304 15.62-10.496 5.12 4.736 9.73 9.984 12.16 14.08l13.18-9.856c-1.66-2.688-4.35-5.632-7.29-8.576h11.9v-26.496h-19.2c2.69-3.584 5.63-7.68 8.58-11.904l-10.5-3.2c5.38-.768 10.5-1.664 15.23-2.688l-12.29-12.16c-21.5 4.352-57.98 6.656-89.85 7.168 1.53 3.328 3.2 9.472 3.58 13.312l8.71-.128c2.04 2.816 4.09 6.4 5.63 9.6h-20.99v24.192h16.51c-3.33 4.608-7.81 8.704-12.8 11.52l12.67 10.24c6.66-4.48 11.52-10.496 15.23-16.896.51 5.888 2.31 9.216 7.17 10.88-9.09 8.448-23.42 15.232-38.14 19.2 3.58 2.816 9.6 8.96 12.41 12.16 4.87-1.792 9.86-3.968 14.72-6.4 2.69 2.432 5.51 4.736 8.45 6.912-11.65 2.816-24.83 4.48-38.91 5.248 3.33 3.584 7.93 11.008 9.6 15.232 17.41-1.792 33.92-4.992 48.25-10.368 13.96 5.504 30.47 8.704 49.16 10.112 2.3-4.864 6.78-12.544 10.62-16.512-14.34-.512-27.65-1.92-39.3-4.224 7.3-5.12 13.32-11.264 17.92-18.688l-11.64-7.296ZM776.16 409.432c-5.376-4.608-16.256-10.24-24.064-13.44l-9.728 13.696c8.064 3.84 18.688 10.24 23.424 14.848l10.368-15.104Zm-5.632 33.408c-5.888-4.224-17.408-9.728-25.472-12.8l-9.088 14.208c8.192 3.712 19.584 9.856 24.832 14.336l9.728-15.744Zm-7.68 18.432c-7.68 14.976-17.152 30.464-23.808 39.936l14.976 12.672c7.68-12.8 15.104-26.624 21.76-40.064l-12.928-12.544Zm70.272-42.88c-3.328 18.048-8.832 33.024-16.64 45.312-8.192-13.056-13.952-28.544-17.664-45.312h34.304Zm7.808-18.304-2.944.768h-59.52v17.536h13.312l-10.624 2.176c5.376 22.784 12.544 42.368 23.04 58.24-9.216 9.216-20.608 16-33.664 20.352 3.712 3.584 8.192 10.752 10.496 15.616 13.44-5.376 24.96-12.416 34.688-21.504 8.192 8.704 17.92 15.744 29.568 21.248 2.688-4.608 8.192-11.904 12.288-15.36-11.52-4.736-21.248-11.648-29.312-20.224 12.8-18.048 20.864-42.368 24.448-75.008l-11.776-3.84Zm60.672 14.208c-4.48-5.632-14.336-14.08-21.248-19.712l-11.904 11.264c7.04 6.272 16.384 15.36 20.48 21.248l12.672-12.8Zm56.704 68.48v12.544h-32v-12.544h32Zm-49.664 4.48c-1.152-3.712-2.176-8.064-2.688-11.392l-11.008 7.296v-50.816H863.84v17.792h13.824v35.328c0 6.016-3.712 11.008-6.656 13.312 3.072 3.584 7.68 11.52 9.216 15.872 2.432-2.944 6.784-6.4 28.416-21.504v21.888h17.664v-3.84h32v3.456h18.56v-47.744H908.64v20.352Zm32.384-51.072h13.696c-.128 2.688-.384 5.504-.512 8.32h-14.976l1.792-8.32Zm30.72 8.32c.64-7.424 1.28-15.616 1.408-23.808l-13.056-.768-2.816.64h-13.056l1.28-7.04h35.2V397.4h-76.16v16.128h22.272c-.384 2.304-.896 4.736-1.28 7.04h-16.768v15.616h13.568c-.64 2.816-1.28 5.632-1.92 8.32h-20.352v16.64H984.8v-16.64h-13.056Zm116.616-38.4v9.728h15.36v6.528h17.02v-6.528h13.57v6.528h17.28v-6.528h18.05v-14.848h-18.05v-7.424h-17.28v7.424h-13.57v-7.424h-17.02v7.424h-15.36v3.968c-5.12-3.968-14.85-8.704-22.02-11.264l-10.24 13.952c7.55 3.2 17.41 8.832 21.89 13.056l10.37-14.592Zm-6.66 33.28c-4.99-3.968-14.85-8.704-22.27-11.136l-10.11 14.08c7.55 3.072 17.15 8.448 21.63 12.544l10.75-15.488Zm-8.7 22.4c-6.53 15.36-14.72 31.232-20.61 41.088l16.77 11.008c6.52-12.928 12.92-27.136 18.56-40.96L1073 461.784Zm35.58-19.712v-5.504h10.24v5.504h-10.24Zm39.3 0h-11.01v-5.504h11.01v5.504Zm22.91 48.128v-14.208h-34.82c.26-1.152.39-2.432.51-3.584h29.57v-13.824h-29.18v-3.968h28.16v-30.592h-72.58v30.592h26.37v3.968h-27.14v13.824h26.63a18.37 18.37 0 0 1-.77 3.584h-30.34V490.2h20.87c-5.38 4.48-13.44 8.192-25.22 11.008 3.97 3.456 9.09 10.112 11.27 13.952 17.15-5.376 27.9-12.928 34.3-21.632 7.42 10.368 17.92 17.792 32.13 21.504 2.43-4.608 7.55-11.648 11.39-15.104-9.98-1.664-18.43-5.12-24.7-9.728h23.55Zm50.94-92.928h-36.99v13.824h36.99v-13.824Zm4.48 18.048h-48.51v14.464h48.51V415.32Zm-4.73 18.816h-37.51v13.824h37.51v-13.824Zm-37.51 32h37.51v-13.824h-37.51v13.824Zm22.91 19.072v10.88h-7.93v-10.88h7.93Zm15.75-14.464h-39.17v44.416h15.49v-4.608h23.68v-39.808Zm50.69 11.648v11.904h-21.89v-11.904h21.89Zm-39.3 32.768h17.41v-4.352h21.89v3.84h18.17V465.88h-57.47v49.28Zm37.25-80.384v9.856h-13.44c.64-3.072 1.15-6.4 1.79-9.856h11.65Zm17.79 9.856V419.16h-27.01l1.03-6.784h32v-15.744h-65.16v15.744h15.11l-.9 6.784h-12.16v15.616h9.73c-.51 3.456-1.15 6.784-1.79 9.856h-15.11v16.128h75.01v-16.128h-10.75ZM729.625 259v-87.273h23.693v34.091h31.364v-34.091h23.693V259h-23.693v-34.091h-31.364V259h-23.693Zm121.705 1.193c-6.989 0-13.012-1.335-18.069-4.005-5.028-2.699-8.906-6.563-11.633-11.591-2.699-5.057-4.048-11.108-4.048-18.154 0-6.761 1.363-12.67 4.09-17.727 2.728-5.057 6.577-8.992 11.549-11.804 4.971-2.813 10.838-4.219 17.599-4.219 4.943 0 9.418.767 13.423 2.301 4.006 1.534 7.429 3.765 10.27 6.691 2.841 2.897 5.029 6.42 6.563 10.568 1.534 4.148 2.301 8.821 2.301 14.02v5.454h-58.466v-12.954h36.818c-.028-1.875-.511-3.523-1.449-4.943-.909-1.449-2.144-2.571-3.707-3.367-1.534-.824-3.281-1.236-5.241-1.236-1.904 0-3.651.412-5.242 1.236-1.591.796-2.869 1.903-3.835 3.324-.938 1.42-1.435 3.082-1.492 4.986v13.977c0 2.102.441 3.977 1.321 5.625.881 1.648 2.145 2.94 3.793 3.878 1.648.937 3.636 1.406 5.966 1.406 1.619 0 3.097-.227 4.432-.682 1.363-.454 2.528-1.108 3.494-1.96a7.98 7.98 0 0 0 2.131-3.153h21.477c-.739 4.545-2.486 8.494-5.241 11.846-2.756 3.324-6.407 5.909-10.952 7.756-4.517 1.818-9.801 2.727-15.852 2.727Zm65.166-88.466V259h-23.522v-87.273h23.522Zm35.508 0V259h-23.522v-87.273h23.522Zm43.519 88.466c-7.102 0-13.181-1.406-18.238-4.219-5.057-2.84-8.935-6.789-11.634-11.846-2.699-5.085-4.048-10.98-4.048-17.685 0-6.704 1.349-12.585 4.048-17.642 2.699-5.085 6.577-9.034 11.634-11.846 5.057-2.841 11.136-4.262 18.238-4.262 7.107 0 13.187 1.421 18.237 4.262 5.06 2.812 8.94 6.761 11.64 11.846 2.69 5.057 4.04 10.938 4.04 17.642 0 6.705-1.35 12.6-4.04 17.685-2.7 5.057-6.58 9.006-11.64 11.846-5.05 2.813-11.13 4.219-18.237 4.219Zm.171-17.386c1.989 0 3.707-.668 5.156-2.003 1.45-1.335 2.57-3.239 3.37-5.71.79-2.472 1.19-5.412 1.19-8.821 0-3.438-.4-6.378-1.19-8.821-.8-2.472-1.92-4.375-3.37-5.711-1.449-1.335-3.167-2.002-5.156-2.002-2.102 0-3.906.667-5.412 2.002-1.506 1.336-2.656 3.239-3.452 5.711-.795 2.443-1.193 5.383-1.193 8.821 0 3.409.398 6.349 1.193 8.821.796 2.471 1.946 4.375 3.452 5.71s3.31 2.003 5.412 2.003Zm64.476-51.989v-19.091h75.85v19.091h-26.25V259h-23.35v-68.182h-26.25Zm91.93 92.727c-2.7 0-5.27-.213-7.72-.639-2.44-.397-4.58-.951-6.43-1.662l5.11-16.704c1.93.682 3.7 1.122 5.29 1.321 1.62.199 2.99.085 4.13-.341 1.16-.426 2-1.236 2.51-2.429l.52-1.193-23.02-68.353h24.55l10.57 45.341h.68l10.74-45.341h24.71l-23.86 70.91c-1.19 3.607-2.93 6.846-5.2 9.715-2.24 2.898-5.2 5.185-8.86 6.861-3.67 1.676-8.24 2.514-13.72 2.514Zm58.33 0v-90h23.36v11.421h.51c.85-2.216 2.1-4.247 3.75-6.094 1.65-1.875 3.69-3.366 6.13-4.474 2.45-1.137 5.29-1.705 8.53-1.705 4.32 0 8.42 1.151 12.31 3.452 3.92 2.301 7.11 5.923 9.55 10.866 2.47 4.944 3.71 11.364 3.71 19.262 0 7.557-1.18 13.821-3.54 18.792-2.33 4.972-5.46 8.679-9.38 11.123-3.89 2.443-8.16 3.664-12.82 3.664-3.07 0-5.81-.497-8.23-1.491-2.38-1.023-4.43-2.401-6.13-4.134a19.06 19.06 0 0 1-3.88-5.966h-.34v35.284h-23.53Zm23.02-57.272c0 3.182.41 5.937 1.23 8.267.85 2.301 2.05 4.091 3.58 5.369 1.56 1.25 3.42 1.875 5.58 1.875s4-.611 5.5-1.832c1.54-1.25 2.7-3.026 3.5-5.327.82-2.33 1.23-5.114 1.23-8.352 0-3.239-.41-6.009-1.23-8.31-.8-2.329-1.96-4.105-3.5-5.327-1.5-1.25-3.34-1.875-5.5-1.875s-4.02.625-5.58 1.875c-1.53 1.222-2.73 2.998-3.58 5.327-.82 2.301-1.23 5.071-1.23 8.31Zm86.21 33.92c-7.1 0-13.18-1.406-18.23-4.219-5.06-2.84-8.94-6.789-11.64-11.846-2.7-5.085-4.05-10.98-4.05-17.685 0-6.704 1.35-12.585 4.05-17.642 2.7-5.085 6.58-9.034 11.64-11.846 5.05-2.841 11.13-4.262 18.23-4.262 7.11 0 13.19 1.421 18.24 4.262 5.06 2.812 8.94 6.761 11.64 11.846 2.7 5.057 4.04 10.938 4.04 17.642 0 6.705-1.34 12.6-4.04 17.685-2.7 5.057-6.58 9.006-11.64 11.846-5.05 2.813-11.13 4.219-18.24 4.219Zm.17-17.386c1.99 0 3.71-.668 5.16-2.003 1.45-1.335 2.57-3.239 3.37-5.71.79-2.472 1.19-5.412 1.19-8.821 0-3.438-.4-6.378-1.19-8.821-.8-2.472-1.92-4.375-3.37-5.711-1.45-1.335-3.17-2.002-5.16-2.002-2.1 0-3.9.667-5.41 2.002-1.5 1.336-2.65 3.239-3.45 5.711-.79 2.443-1.19 5.383-1.19 8.821 0 3.409.4 6.349 1.19 8.821.8 2.471 1.95 4.375 3.45 5.71 1.51 1.335 3.31 2.003 5.41 2.003Zm74.83 42.102c-6.56 0-12.18-.937-16.87-2.812-4.66-1.847-8.28-4.404-10.87-7.671-2.55-3.238-3.99-6.96-4.3-11.165h22.67c.23 1.392.79 2.515 1.7 3.367.91.852 2.08 1.463 3.5 1.832 1.45.398 3.07.597 4.86.597 3.04 0 5.55-.739 7.54-2.216 2.02-1.477 3.02-4.148 3.02-8.011v-11.08h-.68a14.346 14.346 0 0 1-3.92 5.668c-1.76 1.534-3.88 2.713-6.35 3.537-2.47.795-5.18 1.193-8.14 1.193-4.66 0-8.95-1.08-12.87-3.239-3.89-2.159-7.01-5.582-9.37-10.27-2.33-4.687-3.5-10.809-3.5-18.366 0-7.898 1.23-14.318 3.67-19.262 2.47-4.943 5.65-8.565 9.54-10.866 3.93-2.301 8.04-3.452 12.36-3.452 3.24 0 6.08.568 8.53 1.705 2.44 1.108 4.48 2.599 6.13 4.474 1.65 1.847 2.9 3.878 3.75 6.094h.51v-11.421h23.53v65.285c0 5.539-1.44 10.241-4.31 14.105-2.84 3.892-6.84 6.86-12.02 8.906-5.17 2.045-11.2 3.068-18.11 3.068Zm.86-43.466c2.16 0 4-.596 5.54-1.79 1.56-1.221 2.75-2.954 3.58-5.198.85-2.273 1.27-5 1.27-8.182 0-3.239-.42-6.009-1.27-8.31-.83-2.329-2.02-4.105-3.58-5.327-1.54-1.25-3.38-1.875-5.54-1.875s-4.01.625-5.54 1.875c-1.51 1.222-2.67 2.998-3.5 5.327-.79 2.301-1.19 5.071-1.19 8.31 0 3.238.4 5.994 1.19 8.267.83 2.244 1.99 3.963 3.5 5.156 1.53 1.165 3.38 1.747 5.54 1.747ZM1441.06 259v-65.455h22.84v12.444h.68c1.2-4.603 3.08-7.969 5.67-10.1 2.61-2.13 5.67-3.196 9.16-3.196 1.02 0 2.03.085 3.03.256 1.02.142 2 .355 2.94.639v20.071c-1.17-.398-2.6-.696-4.31-.895-1.7-.199-3.16-.298-4.39-.298-2.3 0-4.37.525-6.22 1.577-1.82 1.022-3.25 2.471-4.3 4.346-1.05 1.847-1.58 4.02-1.58 6.52V259h-23.52Zm67.22 1.023c-4.17 0-7.87-.682-11.08-2.046-3.18-1.392-5.68-3.494-7.5-6.307-1.82-2.812-2.72-6.392-2.72-10.738 0-3.58.61-6.634 1.83-9.162 1.22-2.557 2.92-4.645 5.11-6.264 2.19-1.62 4.73-2.855 7.63-3.708 2.93-.852 6.08-1.406 9.46-1.662 3.66-.284 6.61-.625 8.82-1.022 2.25-.427 3.86-1.009 4.86-1.748.99-.767 1.49-1.775 1.49-3.025v-.171c0-1.704-.65-3.011-1.96-3.92-1.31-.909-2.98-1.364-5.03-1.364-2.24 0-4.07.498-5.5 1.492-1.39.966-2.23 2.457-2.51 4.474h-21.65c.29-3.977 1.55-7.642 3.8-10.994 2.27-3.381 5.58-6.08 9.92-8.097 4.35-2.045 9.78-3.068 16.28-3.068 4.69 0 8.89.554 12.62 1.662 3.72 1.08 6.89 2.6 9.5 4.56 2.61 1.932 4.6 4.204 5.97 6.818 1.39 2.585 2.08 5.398 2.08 8.437V259h-21.99v-9.205h-.51c-1.3 2.444-2.89 4.418-4.77 5.924-1.85 1.505-3.96 2.599-6.35 3.281-2.36.682-4.96 1.023-7.8 1.023Zm7.67-14.83c1.79 0 3.47-.369 5.03-1.108 1.59-.738 2.89-1.804 3.88-3.196.99-1.392 1.49-3.082 1.49-5.071v-5.454c-.62.255-1.29.497-2 .724-.68.227-1.42.44-2.22.639-.76.199-1.59.384-2.47.554-.85.171-1.75.327-2.68.469-1.82.284-3.31.753-4.48 1.406-1.13.625-1.99 1.406-2.56 2.344-.54.909-.81 1.932-.81 3.068 0 1.818.64 3.21 1.92 4.176 1.28.966 2.91 1.449 4.9 1.449Zm44.99 38.352v-90h23.35v11.421h.52c.85-2.216 2.1-4.247 3.75-6.094 1.64-1.875 3.69-3.366 6.13-4.474 2.45-1.137 5.29-1.705 8.53-1.705 4.31 0 8.42 1.151 12.31 3.452 3.92 2.301 7.1 5.923 9.55 10.866 2.47 4.944 3.7 11.364 3.7 19.262 0 7.557-1.18 13.821-3.53 18.792-2.33 4.972-5.46 8.679-9.38 11.123-3.89 2.443-8.17 3.664-12.83 3.664-3.06 0-5.8-.497-8.22-1.491-2.39-1.023-4.43-2.401-6.14-4.134a19.208 19.208 0 0 1-3.87-5.966h-.34v35.284h-23.53Zm23.01-57.272c0 3.182.42 5.937 1.24 8.267.85 2.301 2.05 4.091 3.58 5.369 1.56 1.25 3.42 1.875 5.58 1.875s3.99-.611 5.5-1.832c1.53-1.25 2.7-3.026 3.49-5.327.83-2.33 1.24-5.114 1.24-8.352 0-3.239-.41-6.009-1.24-8.31-.79-2.329-1.96-4.105-3.49-5.327-1.51-1.25-3.34-1.875-5.5-1.875s-4.02.625-5.58 1.875c-1.53 1.222-2.73 2.998-3.58 5.327-.82 2.301-1.24 5.071-1.24 8.31Zm78.21-4.091V259h-23.52v-87.273h22.67v34.262h.68c1.48-4.177 3.93-7.429 7.37-9.759 3.44-2.358 7.57-3.537 12.4-3.537 4.63 0 8.65 1.051 12.06 3.154 3.44 2.102 6.1 5 7.97 8.693 1.9 3.693 2.84 7.926 2.81 12.699V259h-23.52v-36.818c.03-3.239-.78-5.781-2.43-7.628-1.62-1.847-3.93-2.77-6.94-2.77-1.91 0-3.58.426-5.03 1.278-1.42.824-2.53 2.018-3.33 3.58-.76 1.534-1.16 3.381-1.19 5.54Zm66.03 61.363c-2.7 0-5.27-.213-7.71-.639-2.45-.397-4.59-.951-6.44-1.662l5.12-16.704c1.93.682 3.69 1.122 5.28 1.321 1.62.199 3 .085 4.13-.341 1.17-.426 2.01-1.236 2.52-2.429l.51-1.193-23.01-68.353h24.54l10.57 45.341h.68l10.74-45.341h24.72l-23.87 70.91c-1.19 3.607-2.92 6.846-5.19 9.715-2.25 2.898-5.2 5.185-8.87 6.861-3.66 1.676-8.24 2.514-13.72 2.514Z"/><path fill="#1A73E8" d="M220.578 236v-40h17.266c2.969 0 5.566.586 7.793 1.758 2.226 1.172 3.958 2.819 5.195 4.941 1.237 2.123 1.855 4.603 1.855 7.442 0 2.864-.638 5.345-1.914 7.441-1.263 2.096-3.04 3.711-5.332 4.844-2.278 1.133-4.941 1.699-7.988 1.699h-10.312v-8.438h8.125c1.276 0 2.363-.221 3.261-.664.912-.455 1.608-1.1 2.09-1.933.495-.833.742-1.817.742-2.949 0-1.146-.247-2.123-.742-2.93-.482-.82-1.178-1.445-2.09-1.875-.898-.443-1.985-.664-3.261-.664h-3.828V236h-10.86Zm36.25 0v-30h10.469v5.703h.312c.547-2.109 1.413-3.652 2.598-4.629 1.198-.976 2.598-1.465 4.199-1.465.469 0 .931.039 1.387.118.469.065.918.162 1.348.293v9.199c-.534-.183-1.192-.319-1.973-.41a17.547 17.547 0 0 0-2.012-.137c-1.054 0-2.005.241-2.851.723a5.08 5.08 0 0 0-1.973 1.992c-.482.846-.723 1.842-.723 2.988V236h-10.781Zm36.582.547c-3.255 0-6.042-.645-8.359-1.934-2.318-1.302-4.095-3.112-5.332-5.429-1.237-2.331-1.856-5.033-1.856-8.106 0-3.073.619-5.768 1.856-8.086 1.237-2.331 3.014-4.14 5.332-5.43 2.317-1.302 5.104-1.953 8.359-1.953s6.042.651 8.36 1.953c2.317 1.29 4.095 3.099 5.332 5.43 1.237 2.318 1.855 5.013 1.855 8.086 0 3.073-.618 5.775-1.855 8.106-1.237 2.317-3.015 4.127-5.332 5.429-2.318 1.289-5.105 1.934-8.36 1.934Zm.078-7.969c.912 0 1.7-.306 2.364-.918.664-.612 1.178-1.484 1.543-2.617.364-1.133.546-2.481.546-4.043 0-1.576-.182-2.923-.546-4.043-.365-1.133-.879-2.005-1.543-2.617a3.37 3.37 0 0 0-2.364-.918c-.963 0-1.79.306-2.48.918-.69.612-1.218 1.484-1.582 2.617-.365 1.12-.547 2.467-.547 4.043 0 1.562.182 2.91.547 4.043.364 1.133.892 2.005 1.582 2.617.69.612 1.517.918 2.48.918Zm19.844 18.672V206h10.703v5.234h.235a9.058 9.058 0 0 1 1.718-2.793c.755-.859 1.693-1.543 2.813-2.05 1.12-.521 2.422-.782 3.906-.782 1.979 0 3.861.528 5.645 1.582 1.796 1.055 3.255 2.715 4.375 4.981 1.132 2.265 1.699 5.208 1.699 8.828 0 3.464-.541 6.335-1.621 8.613-1.068 2.279-2.5 3.978-4.297 5.098-1.784 1.12-3.744 1.68-5.879 1.68-1.406 0-2.663-.228-3.77-.684-1.093-.469-2.031-1.1-2.812-1.894a8.757 8.757 0 0 1-1.777-2.735h-.157v16.172h-10.781ZM323.879 221c0 1.458.189 2.721.566 3.789.391 1.055.938 1.875 1.641 2.461.716.573 1.569.859 2.559.859.989 0 1.829-.28 2.519-.839.703-.573 1.237-1.387 1.602-2.442.377-1.068.566-2.344.566-3.828s-.189-2.754-.566-3.809c-.365-1.067-.899-1.881-1.602-2.441-.69-.573-1.53-.859-2.519-.859-.99 0-1.843.286-2.559.859-.703.56-1.25 1.374-1.641 2.441-.377 1.055-.566 2.325-.566 3.809Zm39.517 15.547c-3.256 0-6.042-.645-8.36-1.934-2.318-1.302-4.095-3.112-5.332-5.429-1.237-2.331-1.855-5.033-1.855-8.106 0-3.073.618-5.768 1.855-8.086 1.237-2.331 3.014-4.14 5.332-5.43 2.318-1.302 5.104-1.953 8.36-1.953 3.255 0 6.041.651 8.359 1.953 2.318 1.29 4.095 3.099 5.332 5.43 1.237 2.318 1.855 5.013 1.855 8.086 0 3.073-.618 5.775-1.855 8.106-1.237 2.317-3.014 4.127-5.332 5.429-2.318 1.289-5.104 1.934-8.359 1.934Zm.078-7.969a3.37 3.37 0 0 0 2.363-.918c.664-.612 1.178-1.484 1.543-2.617.364-1.133.547-2.481.547-4.043 0-1.576-.183-2.923-.547-4.043-.365-1.133-.879-2.005-1.543-2.617a3.37 3.37 0 0 0-2.363-.918c-.964 0-1.791.306-2.481.918-.69.612-1.217 1.484-1.582 2.617-.364 1.12-.547 2.467-.547 4.043 0 1.562.183 2.91.547 4.043.365 1.133.892 2.005 1.582 2.617.69.612 1.517.918 2.481.918ZM383.317 236v-30h10.469v5.703h.313c.547-2.109 1.412-3.652 2.597-4.629 1.198-.976 2.598-1.465 4.2-1.465.468 0 .93.039 1.386.118.469.065.918.162 1.348.293v9.199c-.534-.183-1.192-.319-1.973-.41a17.545 17.545 0 0 0-2.011-.137c-1.055 0-2.006.241-2.852.723a5.087 5.087 0 0 0-1.973 1.992c-.481.846-.722 1.842-.722 2.988V236h-10.782Zm42.974-30v7.812h-19.766V206h19.766Zm-15.937-7.188h10.781v27.54c0 .416.071.768.215 1.054.143.274.364.482.664.625.299.13.683.196 1.152.196.326 0 .703-.04 1.133-.118.443-.078.768-.143.976-.195l1.563 7.578a38.3 38.3 0 0 1-2.07.528c-.886.208-1.941.345-3.164.41-2.474.13-4.551-.124-6.231-.762-1.68-.651-2.943-1.673-3.789-3.066-.846-1.394-1.257-3.138-1.23-5.235v-28.555ZM430.69 236v-30h10.782v30H430.69Zm5.391-33.125c-1.458 0-2.708-.482-3.75-1.445-1.042-.964-1.562-2.123-1.562-3.477 0-1.354.52-2.513 1.562-3.476 1.042-.964 2.292-1.446 3.75-1.446 1.471 0 2.721.482 3.75 1.446 1.042.963 1.563 2.122 1.563 3.476s-.521 2.513-1.563 3.477c-1.029.963-2.279 1.445-3.75 1.445Zm25.337 33.672c-3.255 0-6.042-.645-8.359-1.934-2.318-1.302-4.095-3.112-5.332-5.429-1.237-2.331-1.856-5.033-1.856-8.106 0-3.073.619-5.768 1.856-8.086 1.237-2.331 3.014-4.14 5.332-5.43 2.317-1.302 5.104-1.953 8.359-1.953s6.042.651 8.359 1.953c2.318 1.29 4.095 3.099 5.332 5.43 1.237 2.318 1.856 5.013 1.856 8.086 0 3.073-.619 5.775-1.856 8.106-1.237 2.317-3.014 4.127-5.332 5.429-2.317 1.289-5.104 1.934-8.359 1.934Zm.078-7.969c.912 0 1.699-.306 2.363-.918.664-.612 1.179-1.484 1.543-2.617.365-1.133.547-2.481.547-4.043 0-1.576-.182-2.923-.547-4.043-.364-1.133-.879-2.005-1.543-2.617a3.368 3.368 0 0 0-2.363-.918c-.963 0-1.79.306-2.48.918-.69.612-1.218 1.484-1.582 2.617-.365 1.12-.547 2.467-.547 4.043 0 1.562.182 2.91.547 4.043.364 1.133.892 2.005 1.582 2.617.69.612 1.517.918 2.48.918Zm30.625-9.453V236H481.34v-30h10.234v5.703h.313c.651-1.901 1.797-3.392 3.437-4.473 1.654-1.08 3.581-1.621 5.781-1.621 2.123 0 3.965.489 5.528 1.465 1.575.964 2.793 2.292 3.652 3.985.873 1.692 1.302 3.626 1.289 5.8V236h-10.781v-16.875c.013-1.484-.365-2.65-1.133-3.496-.755-.846-1.81-1.27-3.164-1.27-.885 0-1.66.196-2.324.586-.651.378-1.152.925-1.504 1.641-.352.703-.534 1.549-.547 2.539Zm33.135 17.344c-1.914 0-3.607-.313-5.078-.938-1.459-.638-2.604-1.601-3.438-2.89-.833-1.289-1.25-2.93-1.25-4.922 0-1.641.28-3.041.84-4.199a7.57 7.57 0 0 1 2.344-2.872c1.002-.742 2.168-1.308 3.496-1.699a21.288 21.288 0 0 1 4.336-.762c1.68-.13 3.027-.286 4.043-.468 1.028-.196 1.771-.462 2.226-.801.456-.352.684-.814.684-1.387v-.078c0-.781-.299-1.38-.898-1.797-.599-.416-1.368-.625-2.305-.625-1.029 0-1.869.228-2.52.684-.638.443-1.022 1.126-1.152 2.051h-9.922c.13-1.823.71-3.503 1.738-5.039 1.042-1.55 2.559-2.787 4.551-3.711 1.992-.938 4.479-1.407 7.461-1.407 2.149 0 4.076.254 5.781.762 1.706.495 3.158 1.191 4.356 2.09 1.198.885 2.109 1.927 2.734 3.125a8.029 8.029 0 0 1 .957 3.867V236h-10.078v-4.219h-.234c-.599 1.12-1.328 2.025-2.188 2.715a8.053 8.053 0 0 1-2.91 1.504c-1.081.313-2.272.469-3.574.469Zm3.515-6.797c.821 0 1.589-.169 2.305-.508a4.443 4.443 0 0 0 1.778-1.465c.455-.638.683-1.413.683-2.324v-2.5c-.286.117-.592.228-.918.332a18.837 18.837 0 0 1-2.148.547c-.391.078-.801.15-1.231.215-.833.13-1.517.345-2.051.644-.52.287-.911.645-1.171 1.075a2.694 2.694 0 0 0-.372 1.406c0 .833.293 1.471.879 1.914.586.443 1.335.664 2.246.664ZM560.173 196v40h-10.781v-40h10.781Z"/><path fill="#FF6D7F" d="M220.578 654h13.516l9.297 22.656h.468L253.156 654h13.516v40h-10.625v-23.125h-.313l-8.906 22.812h-6.406l-8.906-22.968h-.313V694h-10.625v-40Zm65.85 40.547c-3.255 0-6.042-.645-8.36-1.934-2.317-1.302-4.095-3.112-5.332-5.429-1.237-2.331-1.855-5.033-1.855-8.106 0-3.073.618-5.768 1.855-8.086 1.237-2.331 3.015-4.14 5.332-5.43 2.318-1.302 5.105-1.953 8.36-1.953 3.255 0 6.041.651 8.359 1.953 2.318 1.29 4.095 3.099 5.332 5.43 1.237 2.318 1.856 5.013 1.856 8.086 0 3.073-.619 5.775-1.856 8.106-1.237 2.317-3.014 4.127-5.332 5.429-2.318 1.289-5.104 1.934-8.359 1.934Zm.078-7.969a3.37 3.37 0 0 0 2.363-.918c.664-.612 1.179-1.484 1.543-2.617.365-1.133.547-2.481.547-4.043 0-1.576-.182-2.923-.547-4.043-.364-1.133-.879-2.005-1.543-2.617a3.37 3.37 0 0 0-2.363-.918c-.964 0-1.791.306-2.481.918-.69.612-1.217 1.484-1.582 2.617-.364 1.12-.547 2.467-.547 4.043 0 1.562.183 2.91.547 4.043.365 1.133.892 2.005 1.582 2.617.69.612 1.517.918 2.481.918Zm30.625-9.453V694H306.35v-30h10.234v5.703h.312c.652-1.901 1.797-3.392 3.438-4.473 1.654-1.08 3.581-1.621 5.781-1.621 2.123 0 3.965.489 5.528 1.465 1.575.964 2.793 2.292 3.652 3.985.872 1.692 1.302 3.626 1.289 5.8V694h-10.781v-16.875c.013-1.484-.365-2.65-1.133-3.496-.755-.846-1.81-1.27-3.164-1.27-.886 0-1.66.196-2.324.586-.651.378-1.153.925-1.504 1.641-.352.703-.534 1.549-.547 2.539Zm39.228 17.422c-3.255 0-6.041-.645-8.359-1.934-2.318-1.302-4.095-3.112-5.332-5.429-1.237-2.331-1.855-5.033-1.855-8.106 0-3.073.618-5.768 1.855-8.086 1.237-2.331 3.014-4.14 5.332-5.43 2.318-1.302 5.104-1.953 8.359-1.953 3.256 0 6.042.651 8.36 1.953 2.317 1.29 4.095 3.099 5.332 5.43 1.237 2.318 1.855 5.013 1.855 8.086 0 3.073-.618 5.775-1.855 8.106-1.237 2.317-3.015 4.127-5.332 5.429-2.318 1.289-5.104 1.934-8.36 1.934Zm.079-7.969a3.37 3.37 0 0 0 2.363-.918c.664-.612 1.178-1.484 1.543-2.617.364-1.133.547-2.481.547-4.043 0-1.576-.183-2.923-.547-4.043-.365-1.133-.879-2.005-1.543-2.617a3.37 3.37 0 0 0-2.363-.918c-.964 0-1.791.306-2.481.918-.69.612-1.217 1.484-1.582 2.617-.365 1.12-.547 2.467-.547 4.043 0 1.562.182 2.91.547 4.043.365 1.133.892 2.005 1.582 2.617.69.612 1.517.918 2.481.918Zm47.265-12.812h-9.922a2.731 2.731 0 0 0-.644-1.582 3.613 3.613 0 0 0-1.465-1.016 4.98 4.98 0 0 0-1.953-.371c-.925 0-1.719.169-2.383.508-.664.338-.99.82-.977 1.445-.013.443.176.853.567 1.23.403.378 1.178.671 2.324.879l6.094 1.094c3.073.56 5.358 1.504 6.855 2.832 1.511 1.315 2.272 3.08 2.285 5.293-.013 2.136-.651 3.991-1.914 5.567-1.25 1.562-2.962 2.773-5.136 3.632-2.162.847-4.629 1.27-7.403 1.27-4.583 0-8.17-.938-10.761-2.813-2.579-1.875-4.017-4.349-4.317-7.422h10.703c.143.951.612 1.687 1.407 2.208.807.507 1.822.761 3.046.761.99 0 1.804-.169 2.442-.508.651-.338.983-.82.996-1.445-.013-.573-.3-1.029-.859-1.367-.547-.339-1.407-.612-2.579-.82l-5.312-.938c-3.06-.534-5.352-1.549-6.875-3.047-1.524-1.497-2.279-3.424-2.266-5.781-.013-2.083.534-3.848 1.641-5.293 1.12-1.458 2.715-2.565 4.785-3.32 2.083-.769 4.551-1.153 7.402-1.153 4.336 0 7.754.899 10.254 2.696 2.513 1.797 3.835 4.284 3.965 7.461Zm4.912 31.484V664h10.703v5.234h.235a9.058 9.058 0 0 1 1.718-2.793c.756-.859 1.693-1.543 2.813-2.05 1.12-.521 2.422-.782 3.906-.782 1.979 0 3.861.528 5.645 1.582 1.797 1.055 3.255 2.715 4.375 4.981 1.133 2.265 1.699 5.208 1.699 8.828 0 3.464-.54 6.335-1.621 8.613-1.068 2.279-2.5 3.978-4.297 5.098-1.784 1.12-3.743 1.68-5.879 1.68-1.406 0-2.663-.228-3.769-.684-1.094-.469-2.032-1.1-2.813-1.894a8.757 8.757 0 0 1-1.777-2.735h-.157v16.172h-10.781ZM419.162 679c0 1.458.189 2.721.567 3.789.39 1.055.937 1.875 1.64 2.461.716.573 1.569.859 2.559.859.989 0 1.829-.28 2.519-.839.703-.573 1.237-1.387 1.602-2.442.377-1.068.566-2.344.566-3.828s-.189-2.754-.566-3.809c-.365-1.067-.899-1.881-1.602-2.441-.69-.573-1.53-.859-2.519-.859-.99 0-1.843.286-2.559.859-.703.56-1.25 1.374-1.64 2.441-.378 1.055-.567 2.325-.567 3.809Zm33.423 15.469c-1.914 0-3.607-.313-5.078-.938-1.458-.638-2.604-1.601-3.438-2.89-.833-1.289-1.25-2.93-1.25-4.922 0-1.641.28-3.041.84-4.199a7.57 7.57 0 0 1 2.344-2.872c1.003-.742 2.168-1.308 3.496-1.699a21.288 21.288 0 0 1 4.336-.762c1.68-.13 3.027-.286 4.043-.468 1.029-.196 1.771-.462 2.226-.801.456-.352.684-.814.684-1.387v-.078c0-.781-.299-1.38-.898-1.797-.599-.416-1.368-.625-2.305-.625-1.029 0-1.869.228-2.52.684-.638.443-1.022 1.126-1.152 2.051h-9.922c.13-1.823.71-3.503 1.738-5.039 1.042-1.55 2.559-2.787 4.551-3.711 1.992-.938 4.479-1.407 7.461-1.407 2.149 0 4.076.254 5.781.762 1.706.495 3.158 1.191 4.356 2.09 1.198.885 2.109 1.927 2.734 3.125a8.029 8.029 0 0 1 .957 3.867V694h-10.078v-4.219h-.234c-.599 1.12-1.328 2.025-2.188 2.715a8.053 8.053 0 0 1-2.91 1.504c-1.081.313-2.272.469-3.574.469Zm3.516-6.797c.82 0 1.588-.169 2.304-.508a4.443 4.443 0 0 0 1.778-1.465c.455-.638.683-1.413.683-2.324v-2.5c-.286.117-.592.228-.918.332a18.837 18.837 0 0 1-2.148.547c-.391.078-.801.15-1.231.215-.833.13-1.517.345-2.05.644-.521.287-.912.645-1.172 1.075a2.693 2.693 0 0 0-.371 1.406c0 .833.293 1.471.878 1.914.586.443 1.335.664 2.247.664Zm35.073 6.875c-3.255 0-6.042-.645-8.36-1.934-2.317-1.302-4.095-3.112-5.332-5.429-1.237-2.331-1.855-5.033-1.855-8.106 0-3.073.618-5.768 1.855-8.086 1.237-2.331 3.015-4.14 5.332-5.43 2.318-1.302 5.105-1.953 8.36-1.953 2.943 0 5.488.534 7.637 1.602 2.161 1.055 3.834 2.552 5.019 4.492 1.185 1.927 1.784 4.193 1.797 6.797h-10c-.143-1.576-.599-2.773-1.367-3.594-.755-.833-1.732-1.25-2.93-1.25-.937 0-1.758.274-2.461.821-.703.533-1.25 1.347-1.64 2.441-.391 1.081-.586 2.441-.586 4.082s.195 3.008.586 4.102c.39 1.08.937 1.894 1.64 2.441.703.534 1.524.801 2.461.801.794 0 1.497-.183 2.109-.547.612-.378 1.107-.925 1.485-1.641.39-.729.625-1.614.703-2.656h10c-.039 2.643-.645 4.948-1.816 6.914-1.172 1.953-2.832 3.464-4.981 4.531-2.135 1.068-4.687 1.602-7.656 1.602Zm33.276 0c-3.203 0-5.963-.612-8.281-1.836-2.305-1.237-4.082-3.008-5.332-5.313-1.237-2.317-1.856-5.091-1.856-8.32 0-3.099.625-5.807 1.875-8.125 1.25-2.318 3.015-4.121 5.293-5.41 2.279-1.289 4.968-1.934 8.067-1.934 2.265 0 4.316.352 6.152 1.055 1.836.703 3.405 1.725 4.707 3.066 1.302 1.329 2.305 2.943 3.008 4.844.703 1.901 1.055 4.043 1.055 6.426v2.5h-26.797v-5.938h16.875c-.013-.859-.235-1.614-.664-2.265a4.229 4.229 0 0 0-1.699-1.543c-.704-.378-1.504-.567-2.403-.567a5.14 5.14 0 0 0-2.402.567 4.537 4.537 0 0 0-1.758 1.523c-.43.651-.658 1.413-.684 2.285v6.407c0 .963.202 1.823.606 2.578a4.39 4.39 0 0 0 1.738 1.777c.755.43 1.667.645 2.735.645.742 0 1.419-.104 2.031-.313a4.567 4.567 0 0 0 1.601-.898c.443-.404.769-.886.977-1.446h9.844c-.339 2.084-1.14 3.894-2.403 5.43-1.263 1.524-2.936 2.709-5.019 3.555-2.07.833-4.492 1.25-7.266 1.25Zm29.946-.156c-2.135 0-4.101-.56-5.898-1.68-1.784-1.12-3.216-2.819-4.297-5.098-1.068-2.278-1.601-5.149-1.601-8.613 0-3.62.56-6.563 1.679-8.828 1.133-2.266 2.591-3.926 4.375-4.981 1.797-1.054 3.685-1.582 5.664-1.582 1.485 0 2.787.261 3.907.782 1.119.507 2.057 1.191 2.812 2.05a9.08 9.08 0 0 1 1.719 2.793h.156V654h10.781v40H562.99v-4.922h-.234a8.61 8.61 0 0 1-1.797 2.735c-.768.794-1.706 1.425-2.813 1.894-1.093.456-2.343.684-3.75.684Zm3.985-8.282c.989 0 1.836-.286 2.539-.859.716-.586 1.263-1.406 1.641-2.461.39-1.068.585-2.331.585-3.789 0-1.484-.195-2.754-.585-3.809-.378-1.067-.925-1.881-1.641-2.441-.703-.573-1.55-.859-2.539-.859-.99 0-1.836.286-2.539.859-.69.56-1.224 1.374-1.602 2.441-.364 1.055-.547 2.325-.547 3.809s.183 2.76.547 3.828c.378 1.055.912 1.869 1.602 2.442.703.559 1.549.839 2.539.839ZM738.778 361c-.037-.473-.215-.843-.532-1.108-.313-.265-.789-.398-1.428-.398-.407 0-.741.05-1.001.149-.256.095-.445.225-.568.391a.962.962 0 0 0-.192.568.929.929 0 0 0 .092.476c.076.137.194.263.355.377.161.108.367.208.618.298s.549.17.895.241l1.193.256c.805.17 1.494.395 2.067.675.573.279 1.042.608 1.406.987.365.374.632.795.803 1.264.175.469.265.98.27 1.534-.005.957-.244 1.766-.718 2.429-.473.663-1.15 1.167-2.031 1.513-.876.346-1.929.518-3.16.518-1.265 0-2.368-.187-3.31-.561-.938-.374-1.667-.949-2.188-1.725-.516-.782-.776-1.781-.781-2.998h3.75c.024.445.135.819.334 1.123.199.303.478.532.838.688.365.157.798.235 1.3.235.421 0 .774-.052 1.058-.156.284-.105.5-.249.646-.434.147-.184.223-.395.228-.632a.9.9 0 0 0-.221-.582c-.137-.171-.364-.322-.681-.455-.318-.137-.746-.265-1.286-.383l-1.449-.313c-1.288-.279-2.303-.745-3.047-1.399-.738-.658-1.105-1.555-1.1-2.692-.005-.923.241-1.73.738-2.422.502-.696 1.196-1.238 2.081-1.626.89-.388 1.911-.582 3.061-.582 1.174 0 2.19.196 3.047.589.857.393 1.518.947 1.982 1.662.468.71.705 1.541.71 2.493h-3.779Zm5.537 10v-10.909h3.92V371h-3.92Zm1.96-12.045c-.53 0-.985-.176-1.364-.526-.379-.35-.568-.772-.568-1.264 0-.493.189-.914.568-1.264a1.937 1.937 0 0 1 1.364-.526c.535 0 .989.175 1.363.526.379.35.569.771.569 1.264 0 .492-.19.914-.569 1.264-.374.35-.828.526-1.363.526ZM750.233 371v-10.909h3.721v2.074h.114c.227-.682.615-1.222 1.165-1.62.549-.397 1.202-.596 1.96-.596.767 0 1.427.203 1.981.611.554.402.888.937 1.002 1.605h.113c.185-.668.578-1.203 1.179-1.605.602-.408 1.307-.611 2.117-.611 1.046 0 1.894.336 2.542 1.008.654.673.981 1.568.981 2.685V371h-3.921v-6.364c0-.478-.121-.852-.362-1.122-.242-.274-.566-.412-.973-.412-.403 0-.722.138-.959.412-.232.27-.348.644-.348 1.122V371h-3.75v-6.364c0-.478-.121-.852-.362-1.122-.242-.274-.566-.412-.973-.412-.27 0-.502.062-.696.185a1.233 1.233 0 0 0-.455.533 1.948 1.948 0 0 0-.156.816V371h-3.92Zm18.808 4.091v-15h3.892v1.903h.085c.143-.369.351-.708.625-1.015a2.982 2.982 0 0 1 1.023-.746c.407-.189.881-.284 1.421-.284.719 0 1.404.192 2.052.575.654.384 1.184.987 1.591 1.811.412.824.618 1.894.618 3.21 0 1.26-.196 2.304-.589 3.133-.389.828-.91 1.446-1.563 1.853a3.944 3.944 0 0 1-2.138.611c-.511 0-.968-.083-1.37-.249-.398-.17-.739-.4-1.023-.688a3.185 3.185 0 0 1-.647-.995h-.056v5.881h-3.921Zm3.835-9.546c0 .531.069.99.206 1.378.142.384.341.682.597.895.26.209.571.313.93.313.36 0 .666-.102.917-.306.255-.208.449-.504.582-.887.137-.389.206-.853.206-1.393 0-.539-.069-1.001-.206-1.384-.133-.389-.327-.685-.582-.888a1.386 1.386 0 0 0-.917-.313c-.359 0-.67.104-.93.313-.256.203-.455.499-.597.888-.137.383-.206.845-.206 1.384Zm13.035-9.09V371h-3.921v-14.545h3.921ZM787.908 371v-10.909h3.921V371h-3.921Zm1.961-12.045a1.94 1.94 0 0 1-1.364-.526c-.379-.35-.568-.772-.568-1.264 0-.493.189-.914.568-1.264a1.936 1.936 0 0 1 1.364-.526c.535 0 .989.175 1.363.526.379.35.568.771.568 1.264 0 .492-.189.914-.568 1.264-.374.35-.828.526-1.363.526Zm10.491 1.136v2.841h-7.301v-2.841h7.301ZM794.451 371v-11.222c0-.899.161-1.645.483-2.237a3.107 3.107 0 0 1 1.364-1.328c.587-.293 1.278-.44 2.074-.44.497 0 .98.038 1.449.113.473.076.824.142 1.051.199l-.568 2.813a3.056 3.056 0 0 0-.498-.1 3.449 3.449 0 0 0-.497-.042c-.369 0-.618.078-.745.234-.128.156-.192.362-.192.618V371h-3.921Zm7.422 0v-10.909h3.921V371h-3.921Zm1.96-12.045a1.94 1.94 0 0 1-1.363-.526c-.379-.35-.568-.772-.568-1.264 0-.493.189-.914.568-1.264a1.935 1.935 0 0 1 1.363-.526c.535 0 .99.175 1.364.526.379.35.568.771.568 1.264 0 .492-.189.914-.568 1.264-.374.35-.829.526-1.364.526Zm9.185 12.244c-1.164 0-2.168-.223-3.011-.668a4.683 4.683 0 0 1-1.939-1.932c-.45-.842-.675-1.851-.675-3.025 0-1.127.228-2.112.682-2.955a4.88 4.88 0 0 1 1.925-1.967c.829-.469 1.806-.703 2.933-.703.824 0 1.57.128 2.237.383a4.694 4.694 0 0 1 1.712 1.115 4.915 4.915 0 0 1 1.094 1.762c.256.691.383 1.47.383 2.336v.91h-9.744v-2.16h6.136a1.496 1.496 0 0 0-.241-.823 1.536 1.536 0 0 0-.618-.561 1.811 1.811 0 0 0-.874-.206 1.86 1.86 0 0 0-.873.206 1.65 1.65 0 0 0-.639.553 1.561 1.561 0 0 0-.249.831v2.33c0 .35.073.663.22.937a1.6 1.6 0 0 0 .632.647c.275.156.606.234.995.234.27 0 .516-.038.738-.113.228-.076.422-.185.583-.327a1.33 1.33 0 0 0 .355-.526h3.579a4.08 4.08 0 0 1-.873 1.975c-.459.554-1.068.985-1.825 1.292-.753.303-1.634.455-2.643.455Zm10.89-.057a3.982 3.982 0 0 1-2.145-.611c-.649-.407-1.169-1.025-1.562-1.853-.389-.829-.583-1.873-.583-3.133 0-1.316.204-2.386.611-3.21.412-.824.942-1.427 1.591-1.811a4.013 4.013 0 0 1 2.06-.575c.539 0 1.013.095 1.42.284.407.185.748.433 1.023.746.274.307.483.646.625 1.015h.057v-5.539h3.92V371h-3.892v-1.79h-.085a3.067 3.067 0 0 1-1.676 1.683 3.518 3.518 0 0 1-1.364.249Zm1.449-3.011c.36 0 .668-.104.923-.313.261-.213.459-.511.597-.895.142-.388.213-.847.213-1.378 0-.539-.071-1.001-.213-1.384-.138-.389-.336-.685-.597-.888a1.41 1.41 0 0 0-.923-.313c-.36 0-.668.104-.923.313-.251.203-.445.499-.583.888-.132.383-.199.845-.199 1.384 0 .54.067 1.004.199 1.393.138.383.332.679.583.887.255.204.563.306.923.306ZM730.938 800v-14.545h3.948v5.681h5.228v-5.681h3.948V800h-3.948v-5.682h-5.228V800h-3.948Zm18.096.17c-.696 0-1.311-.113-1.846-.34a2.773 2.773 0 0 1-1.25-1.052c-.304-.468-.455-1.065-.455-1.789 0-.597.102-1.106.305-1.527.204-.426.488-.774.853-1.044.364-.27.788-.476 1.271-.618a7.67 7.67 0 0 1 1.577-.277c.61-.048 1.1-.104 1.47-.171.374-.071.644-.168.809-.291a.606.606 0 0 0 .249-.504v-.029c0-.284-.109-.501-.327-.653-.217-.152-.497-.227-.838-.227-.374 0-.679.083-.916.248-.232.161-.372.41-.419.746h-3.608a3.71 3.71 0 0 1 .632-1.832c.379-.564.931-1.014 1.655-1.35.724-.341 1.629-.511 2.713-.511.781 0 1.482.092 2.102.277.621.18 1.149.433 1.584.76.436.322.767.701.994 1.136.232.431.349.9.349 1.406V800h-3.665v-1.534h-.085a3.146 3.146 0 0 1-.796.987 2.93 2.93 0 0 1-1.058.547c-.393.114-.826.17-1.3.17Zm1.278-2.471c.299 0 .578-.062.839-.185.265-.123.48-.3.646-.532.166-.232.248-.514.248-.846v-.909a5.417 5.417 0 0 1-.703.228 7.378 7.378 0 0 1-.412.092 10.81 10.81 0 0 1-.447.078 2.223 2.223 0 0 0-.746.234 1.119 1.119 0 0 0-.426.391.983.983 0 0 0-.135.511c0 .303.107.535.32.696.213.161.485.242.816.242Zm11.419-3.835V800h-3.92v-10.909h3.721v2.074h.114a3.088 3.088 0 0 1 1.25-1.627c.601-.393 1.302-.589 2.102-.589.772 0 1.442.177 2.01.533.573.35 1.016.833 1.328 1.448.318.616.474 1.319.469 2.11V800h-3.92v-6.136c.004-.54-.133-.964-.412-1.272-.275-.307-.658-.461-1.151-.461-.322 0-.604.071-.845.213a1.365 1.365 0 0 0-.547.596c-.128.256-.194.564-.199.924Zm14.265 10.454c-1.094 0-2.031-.156-2.812-.469-.777-.307-1.381-.733-1.811-1.278a3.329 3.329 0 0 1-.718-1.861h3.779a.946.946 0 0 0 .284.561c.151.142.345.244.582.306.242.066.511.099.81.099.506 0 .925-.123 1.257-.369.336-.246.504-.691.504-1.335v-1.847h-.114a2.394 2.394 0 0 1-.653.945 3.073 3.073 0 0 1-1.058.589 4.396 4.396 0 0 1-1.357.199c-.776 0-1.491-.18-2.145-.54-.648-.36-1.169-.93-1.562-1.711-.388-.782-.582-1.802-.582-3.062 0-1.316.203-2.386.61-3.21.412-.824.943-1.427 1.591-1.811a4.015 4.015 0 0 1 2.06-.575c.54 0 1.013.095 1.42.284.408.185.748.433 1.023.746.275.307.483.646.625 1.015h.085v-1.903h3.921v10.881c0 .923-.239 1.707-.718 2.35-.473.649-1.141 1.144-2.002 1.485-.862.341-1.868.511-3.019.511Zm.142-7.244c.36 0 .668-.1.923-.298.261-.204.46-.493.597-.867.142-.379.213-.833.213-1.364 0-.539-.071-1.001-.213-1.384-.137-.389-.336-.685-.597-.888a1.41 1.41 0 0 0-.923-.313c-.36 0-.667.104-.923.313-.251.203-.445.499-.583.888-.132.383-.198.845-.198 1.384 0 .54.066 1 .198 1.378.138.374.332.661.583.86.256.194.563.291.923.291Zm12.818 3.125c-1.165 0-2.169-.223-3.011-.668a4.677 4.677 0 0 1-1.939-1.932c-.45-.842-.675-1.851-.675-3.025 0-1.127.227-2.112.682-2.955a4.873 4.873 0 0 1 1.925-1.967c.828-.469 1.806-.703 2.933-.703.824 0 1.569.128 2.237.383a4.702 4.702 0 0 1 1.712 1.115 4.913 4.913 0 0 1 1.093 1.762c.256.691.384 1.47.384 2.336v.91h-9.744v-2.16h6.136a1.497 1.497 0 0 0-.242-.823 1.527 1.527 0 0 0-.617-.561 1.811 1.811 0 0 0-.874-.206c-.317 0-.608.068-.874.206a1.65 1.65 0 0 0-.639.553 1.56 1.56 0 0 0-.248.831v2.33c0 .35.073.663.22.937.147.275.357.491.632.647.274.156.606.234.994.234.27 0 .516-.038.739-.113.227-.076.421-.185.582-.327a1.32 1.32 0 0 0 .355-.526h3.58a4.072 4.072 0 0 1-.874 1.975c-.459.554-1.067.985-1.825 1.292-.753.303-1.634.455-2.642.455Zm14.015-4.972v-6.136h3.92V800h-3.722v-2.074h-.113a3.102 3.102 0 0 1-1.243 1.634c-.592.388-1.295.582-2.11.582-.762 0-1.429-.175-2.002-.526a3.595 3.595 0 0 1-1.328-1.448c-.313-.616-.472-1.321-.476-2.117v-6.96h3.92v6.136c.005.54.142.964.412 1.272.275.307.658.461 1.151.461.326 0 .608-.068.845-.206.241-.142.426-.341.554-.596.132-.261.196-.571.192-.931Zm9.834-9.772V800h-3.92v-14.545h3.92ZM730.938 589v-14.545h3.948v5.681h5.228v-5.681h3.948V589h-3.948v-5.682h-5.228V589h-3.948Zm15.056 0v-10.909h3.921V589h-3.921Zm1.961-12.045a1.94 1.94 0 0 1-1.364-.526c-.379-.35-.568-.772-.568-1.264 0-.493.189-.914.568-1.264a1.936 1.936 0 0 1 1.364-.526c.535 0 .989.175 1.363.526.379.35.568.771.568 1.264 0 .492-.189.914-.568 1.264-.374.35-.828.526-1.363.526ZM751.912 589v-10.909h3.807v2.074h.114c.199-.767.513-1.328.944-1.683a2.341 2.341 0 0 1 1.527-.533c.171 0 .339.014.505.042.17.024.333.06.49.107v3.345a3.527 3.527 0 0 0-.718-.149 6.49 6.49 0 0 0-.731-.05 2.06 2.06 0 0 0-1.037.263 1.852 1.852 0 0 0-.717.725c-.176.307-.263.67-.263 1.086V589h-3.921Zm11.204.17c-.696 0-1.311-.113-1.846-.34a2.773 2.773 0 0 1-1.25-1.052c-.303-.468-.455-1.065-.455-1.789 0-.597.102-1.106.305-1.527.204-.426.488-.774.853-1.044.364-.27.788-.476 1.271-.618a7.67 7.67 0 0 1 1.577-.277 15.41 15.41 0 0 0 1.47-.171c.374-.071.644-.168.809-.291a.606.606 0 0 0 .249-.504v-.029c0-.284-.109-.501-.327-.653-.217-.152-.497-.227-.838-.227-.374 0-.679.083-.916.248-.232.161-.372.41-.419.746h-3.608a3.71 3.71 0 0 1 .632-1.832c.379-.564.931-1.014 1.655-1.35.724-.341 1.629-.511 2.713-.511.781 0 1.482.092 2.102.277.621.18 1.149.433 1.584.76.436.322.767.701.995 1.136.232.431.348.9.348 1.406V589h-3.665v-1.534h-.085a3.146 3.146 0 0 1-.796.987 2.93 2.93 0 0 1-1.058.547c-.393.114-.826.17-1.3.17Zm1.279-2.471c.298 0 .577-.062.838-.185.265-.123.48-.3.646-.532.166-.232.248-.514.248-.846v-.909a5.417 5.417 0 0 1-.703.228 7.183 7.183 0 0 1-.412.092 10.81 10.81 0 0 1-.447.078 2.223 2.223 0 0 0-.746.234 1.119 1.119 0 0 0-.426.391.983.983 0 0 0-.135.511c0 .303.107.535.32.696.213.161.485.242.817.242Zm12.753 6.619c-1.093 0-2.031-.156-2.812-.469-.777-.307-1.38-.733-1.811-1.278a3.335 3.335 0 0 1-.717-1.861h3.778a.957.957 0 0 0 .284.561c.152.142.346.244.582.306.242.066.512.099.81.099.507 0 .926-.123 1.257-.369.336-.246.504-.691.504-1.335v-1.847h-.113c-.142.369-.36.684-.654.945a3.064 3.064 0 0 1-1.058.589 4.394 4.394 0 0 1-1.356.199 4.37 4.37 0 0 1-2.145-.54c-.649-.36-1.17-.93-1.563-1.711-.388-.782-.582-1.802-.582-3.062 0-1.316.203-2.386.611-3.21.412-.824.942-1.427 1.591-1.811a4.012 4.012 0 0 1 2.059-.575c.54 0 1.013.095 1.421.284.407.185.748.433 1.022.746.275.307.483.646.625 1.015h.086v-1.903h3.92v10.881c0 .923-.239 1.707-.717 2.35-.474.649-1.141 1.144-2.003 1.485-.862.341-1.868.511-3.019.511Zm.142-7.244c.36 0 .668-.1.924-.298.26-.204.459-.493.596-.867.142-.379.213-.833.213-1.364 0-.539-.071-1.001-.213-1.384-.137-.389-.336-.685-.596-.888a1.414 1.414 0 0 0-.924-.313c-.359 0-.667.104-.923.313-.251.203-.445.499-.582.888-.133.383-.199.845-.199 1.384 0 .54.066 1 .199 1.378.137.374.331.661.582.86.256.194.564.291.923.291Zm10.631 3.096c-.696 0-1.312-.113-1.847-.34a2.778 2.778 0 0 1-1.25-1.052c-.303-.468-.454-1.065-.454-1.789 0-.597.101-1.106.305-1.527a2.76 2.76 0 0 1 .852-1.044c.365-.27.789-.476 1.272-.618a7.66 7.66 0 0 1 1.576-.277 15.436 15.436 0 0 0 1.471-.171c.374-.071.643-.168.809-.291a.606.606 0 0 0 .249-.504v-.029c0-.284-.109-.501-.327-.653-.218-.152-.497-.227-.838-.227-.374 0-.679.083-.916.248-.232.161-.372.41-.419.746h-3.608a3.71 3.71 0 0 1 .632-1.832c.379-.564.93-1.014 1.655-1.35.724-.341 1.629-.511 2.713-.511.781 0 1.482.092 2.102.277.62.18 1.148.433 1.584.76.435.322.767.701.994 1.136.232.431.348.9.348 1.406V589h-3.665v-1.534h-.085a3.158 3.158 0 0 1-.795.987 2.939 2.939 0 0 1-1.058.547 4.66 4.66 0 0 1-1.3.17Zm1.278-2.471c.299 0 .578-.062.838-.185.265-.123.481-.3.647-.532.165-.232.248-.514.248-.846v-.909a5.223 5.223 0 0 1-.703.228 7.378 7.378 0 0 1-.412.092 10.81 10.81 0 0 1-.447.078 2.223 2.223 0 0 0-.746.234 1.112 1.112 0 0 0-.426.391.983.983 0 0 0-.135.511c0 .303.106.535.319.696.214.161.486.242.817.242Zm11.419-3.835V589h-3.921v-10.909h3.722v2.074h.114a3.083 3.083 0 0 1 1.25-1.627c.601-.393 1.302-.589 2.102-.589.772 0 1.442.177 2.01.533.573.35 1.016.833 1.328 1.448.317.616.473 1.319.469 2.11V589h-3.921v-6.136c.005-.54-.132-.964-.412-1.272-.274-.307-.658-.461-1.15-.461-.322 0-.604.071-.845.213a1.365 1.365 0 0 0-.547.596c-.128.256-.194.564-.199.924Zm12.049 6.306c-.696 0-1.312-.113-1.847-.34a2.778 2.778 0 0 1-1.25-1.052c-.303-.468-.454-1.065-.454-1.789 0-.597.102-1.106.305-1.527a2.76 2.76 0 0 1 .852-1.044c.365-.27.789-.476 1.272-.618a7.66 7.66 0 0 1 1.576-.277 15.436 15.436 0 0 0 1.471-.171c.374-.071.644-.168.809-.291a.606.606 0 0 0 .249-.504v-.029c0-.284-.109-.501-.327-.653-.218-.152-.497-.227-.838-.227-.374 0-.679.083-.916.248-.232.161-.372.41-.419.746h-3.608a3.71 3.71 0 0 1 .632-1.832c.379-.564.93-1.014 1.655-1.35.724-.341 1.629-.511 2.713-.511.781 0 1.482.092 2.102.277.62.18 1.148.433 1.584.76.436.322.767.701.994 1.136.232.431.348.9.348 1.406V589h-3.664v-1.534h-.086a3.144 3.144 0 0 1-.795.987 2.939 2.939 0 0 1-1.058.547 4.66 4.66 0 0 1-1.3.17Zm1.278-2.471c.299 0 .578-.062.838-.185.266-.123.481-.3.647-.532.165-.232.248-.514.248-.846v-.909a5.223 5.223 0 0 1-.703.228 7.378 7.378 0 0 1-.412.092 10.81 10.81 0 0 1-.447.078 2.223 2.223 0 0 0-.746.234 1.119 1.119 0 0 0-.426.391.983.983 0 0 0-.135.511c0 .303.106.535.32.696.213.161.485.242.816.242ZM987.938 589v-14.545h3.948v5.88h.199l4.375-5.88h4.6l-4.912 6.477 5.032 8.068h-4.72l-3.267-5.455-1.307 1.705V589h-3.948Zm17.392.17c-.7 0-1.31-.113-1.85-.34a2.815 2.815 0 0 1-1.25-1.052c-.3-.468-.45-1.065-.45-1.789 0-.597.1-1.106.31-1.527.2-.426.48-.774.85-1.044.36-.27.79-.476 1.27-.618a7.652 7.652 0 0 1 1.58-.277c.61-.048 1.1-.104 1.47-.171.37-.071.64-.168.81-.291a.614.614 0 0 0 .24-.504v-.029c0-.284-.1-.501-.32-.653-.22-.152-.5-.227-.84-.227-.37 0-.68.083-.92.248-.23.161-.37.41-.42.746h-3.6c.04-.663.25-1.274.63-1.832.38-.564.93-1.014 1.65-1.35.73-.341 1.63-.511 2.72-.511.78 0 1.48.092 2.1.277.62.18 1.15.433 1.58.76.44.322.77.701 1 1.136.23.431.34.9.34 1.406V589h-3.66v-1.534h-.09a2.94 2.94 0 0 1-1.85 1.534c-.39.114-.83.17-1.3.17Zm1.28-2.471c.3 0 .58-.062.84-.185s.48-.3.64-.532c.17-.232.25-.514.25-.846v-.909c-.1.043-.21.083-.33.121-.12.038-.24.073-.37.107a9.659 9.659 0 0 1-.86.17c-.3.047-.55.125-.75.234-.19.105-.33.235-.42.391a.987.987 0 0 0-.14.511c0 .303.11.535.32.696.22.161.49.242.82.242Zm14-8.608v2.841h-7.18v-2.841h7.18Zm-5.79-2.614h3.92v10.014c0 .152.02.28.08.384.05.099.13.175.24.227.11.048.25.071.42.071.12 0 .25-.014.41-.042.16-.029.28-.052.35-.071l.57 2.755c-.17.052-.42.116-.75.192-.32.076-.71.126-1.15.149-.9.048-1.66-.045-2.27-.277-.61-.236-1.07-.608-1.37-1.115-.31-.506-.46-1.141-.45-1.903v-10.384Zm10.43 13.693c-.69 0-1.31-.113-1.84-.34a2.762 2.762 0 0 1-1.25-1.052c-.31-.468-.46-1.065-.46-1.789 0-.597.1-1.106.31-1.527.2-.426.48-.774.85-1.044.36-.27.79-.476 1.27-.618a7.652 7.652 0 0 1 1.58-.277c.61-.048 1.1-.104 1.47-.171.37-.071.64-.168.81-.291a.623.623 0 0 0 .25-.504v-.029a.745.745 0 0 0-.33-.653c-.22-.152-.5-.227-.84-.227-.37 0-.68.083-.92.248-.23.161-.37.41-.41.746h-3.61c.05-.663.26-1.274.63-1.832.38-.564.93-1.014 1.65-1.35.73-.341 1.63-.511 2.72-.511.78 0 1.48.092 2.1.277.62.18 1.15.433 1.58.76.44.322.77.701 1 1.136.23.431.35.9.35 1.406V589h-3.67v-1.534h-.08c-.22.407-.49.736-.8.987a2.94 2.94 0 0 1-1.06.547c-.39.114-.82.17-1.3.17Zm1.28-2.471c.3 0 .58-.062.84-.185s.48-.3.65-.532c.16-.232.24-.514.24-.846v-.909a5.257 5.257 0 0 1-.7.228 9.443 9.443 0 0 1-.86.17c-.3.047-.55.125-.74.234a1.09 1.09 0 0 0-.43.391.987.987 0 0 0-.14.511c0 .303.11.535.32.696.22.161.49.242.82.242Zm11.02-.284.03-4.659h.51l2.64-3.665h4.41l-4.43 5.71h-1.11l-2.05 2.614Zm-3.52 2.585v-14.545h3.92V589h-3.92Zm6.73 0-2.5-4.318 2.56-2.784 4.43 7.102h-4.49Zm8.44.17c-.7 0-1.31-.113-1.85-.34a2.762 2.762 0 0 1-1.25-1.052c-.3-.468-.45-1.065-.45-1.789 0-.597.1-1.106.3-1.527.21-.426.49-.774.85-1.044.37-.27.79-.476 1.28-.618a7.554 7.554 0 0 1 1.57-.277c.61-.048 1.1-.104 1.47-.171.38-.071.65-.168.81-.291a.597.597 0 0 0 .25-.504v-.029a.745.745 0 0 0-.33-.653c-.21-.152-.49-.227-.83-.227-.38 0-.68.083-.92.248-.23.161-.37.41-.42.746h-3.61c.05-.663.26-1.274.64-1.832.37-.564.93-1.014 1.65-1.35.72-.341 1.63-.511 2.71-.511.78 0 1.49.092 2.11.277.62.18 1.14.433 1.58.76.43.322.77.701.99 1.136.24.431.35.9.35 1.406V589h-3.66v-1.534h-.09c-.22.407-.48.736-.79.987a2.94 2.94 0 0 1-1.06.547c-.4.114-.83.17-1.3.17Zm1.28-2.471c.29 0 .57-.062.83-.185.27-.123.49-.3.65-.532.17-.232.25-.514.25-.846v-.909c-.1.043-.22.083-.33.121-.12.038-.24.073-.37.107a11.708 11.708 0 0 1-.86.17 2.24 2.24 0 0 0-.75.234c-.19.105-.33.235-.42.391a.987.987 0 0 0-.14.511c0 .303.11.535.32.696.21.161.49.242.82.242Zm11.42-3.835V589h-3.93v-10.909h3.73v2.074h.11c.24-.692.65-1.234 1.25-1.627s1.3-.589 2.1-.589c.77 0 1.44.177 2.01.533.58.35 1.02.833 1.33 1.448.32.616.47 1.319.47 2.11V589h-3.92v-6.136c0-.54-.13-.964-.41-1.272-.28-.307-.66-.461-1.15-.461-.33 0-.61.071-.85.213-.24.137-.42.336-.55.596a2.16 2.16 0 0 0-.19.924Zm12.04 6.306c-.69 0-1.31-.113-1.84-.34a2.762 2.762 0 0 1-1.25-1.052c-.31-.468-.46-1.065-.46-1.789 0-.597.1-1.106.31-1.527.2-.426.49-.774.85-1.044.37-.27.79-.476 1.27-.618a7.772 7.772 0 0 1 1.58-.277c.61-.048 1.1-.104 1.47-.171.37-.071.64-.168.81-.291a.623.623 0 0 0 .25-.504v-.029a.745.745 0 0 0-.33-.653c-.22-.152-.5-.227-.84-.227-.37 0-.68.083-.91.248-.24.161-.38.41-.42.746h-3.61c.05-.663.26-1.274.63-1.832.38-.564.93-1.014 1.66-1.35.72-.341 1.62-.511 2.71-.511.78 0 1.48.092 2.1.277.62.18 1.15.433 1.59.76.43.322.76.701.99 1.136.23.431.35.9.35 1.406V589h-3.67v-1.534h-.08c-.22.407-.49.736-.8.987a2.94 2.94 0 0 1-1.06.547c-.39.114-.82.17-1.3.17Zm1.28-2.471c.3 0 .58-.062.84-.185.27-.123.48-.3.65-.532.16-.232.25-.514.25-.846v-.909c-.11.043-.22.083-.34.121a7.1 7.1 0 0 1-.78.199c-.14.028-.29.054-.45.078-.3.047-.55.125-.74.234-.19.105-.33.235-.43.391a.98.98 0 0 0-.13.511c0 .303.1.535.32.696.21.161.48.242.81.242ZM1245.94 589v-14.545h3.95v5.88h.2l4.37-5.88h4.6l-4.91 6.477 5.03 8.068h-4.72l-3.27-5.455-1.3 1.705V589h-3.95Zm17.39.17c-.7 0-1.31-.113-1.85-.34a2.815 2.815 0 0 1-1.25-1.052c-.3-.468-.45-1.065-.45-1.789 0-.597.1-1.106.31-1.527.2-.426.48-.774.85-1.044.36-.27.79-.476 1.27-.618a7.652 7.652 0 0 1 1.58-.277c.61-.048 1.1-.104 1.47-.171.37-.071.64-.168.81-.291a.614.614 0 0 0 .24-.504v-.029c0-.284-.1-.501-.32-.653-.22-.152-.5-.227-.84-.227-.37 0-.68.083-.92.248-.23.161-.37.41-.42.746h-3.6c.04-.663.25-1.274.63-1.832.38-.564.93-1.014 1.65-1.35.73-.341 1.63-.511 2.72-.511.78 0 1.48.092 2.1.277.62.18 1.15.433 1.58.76.44.322.77.701 1 1.136.23.431.34.9.34 1.406V589h-3.66v-1.534h-.09a2.94 2.94 0 0 1-1.85 1.534c-.39.114-.83.17-1.3.17Zm1.28-2.471c.3 0 .58-.062.84-.185s.48-.3.64-.532c.17-.232.25-.514.25-.846v-.909c-.1.043-.21.083-.33.121-.12.038-.24.073-.37.107a9.659 9.659 0 0 1-.86.17c-.3.047-.55.125-.75.234-.19.105-.33.235-.42.391a.987.987 0 0 0-.14.511c0 .303.11.535.32.696.22.161.49.242.82.242Zm11.42-3.835V589h-3.92v-10.909h3.72v2.074h.11c.24-.692.66-1.234 1.25-1.627.6-.393 1.3-.589 2.11-.589.77 0 1.44.177 2.01.533.57.35 1.01.833 1.32 1.448.32.616.48 1.319.47 2.11V589h-3.92v-6.136c.01-.54-.13-.964-.41-1.272-.28-.307-.66-.461-1.15-.461-.32 0-.6.071-.85.213-.23.137-.42.336-.54.596-.13.256-.2.564-.2.924Zm9.01-4.773h3.92v11.278c0 .957-.2 1.705-.61 2.245-.39.539-.95.921-1.67 1.143-.72.223-1.56.334-2.52.334-.15 0-.28-.002-.39-.007-.13-.005-.26-.012-.41-.022v-2.897l.25.021c.07.005.13.007.21.007.46 0 .78-.073.95-.22.18-.142.27-.372.27-.689v-11.193Zm1.96-1.136c-.53 0-.99-.176-1.37-.526-.37-.35-.56-.772-.56-1.264 0-.493.19-.914.56-1.264.38-.351.84-.526 1.37-.526.53 0 .99.175 1.36.526.38.35.57.771.57 1.264 0 .492-.19.914-.57 1.264-.37.35-.83.526-1.36.526Zm3.96 12.045v-10.909h3.92V589h-3.92Zm1.96-12.045c-.53 0-.99-.176-1.37-.526-.38-.35-.57-.772-.57-1.264 0-.493.19-.914.57-1.264.38-.351.84-.526 1.37-.526.53 0 .99.175 1.36.526.38.35.57.771.57 1.264 0 .492-.19.914-.57 1.264-.37.35-.83.526-1.36.526ZM1044.54 359.636v-3.181h12.64v3.181h-4.37V371h-3.9v-11.364h-4.37ZM1057.59 371v-10.909h3.81v2.074h.11c.2-.767.52-1.328.95-1.683.43-.356.94-.533 1.52-.533.17 0 .34.014.51.042.17.024.33.06.49.107v3.345a3.55 3.55 0 0 0-.72-.149 6.46 6.46 0 0 0-.73-.05c-.38 0-.73.088-1.04.263-.3.171-.54.412-.71.725-.18.307-.27.67-.27 1.086V371h-3.92Zm11.21.17c-.7 0-1.32-.113-1.85-.34a2.762 2.762 0 0 1-1.25-1.052c-.3-.468-.46-1.065-.46-1.789 0-.597.11-1.106.31-1.527.2-.426.49-.774.85-1.044.37-.27.79-.476 1.27-.618a7.772 7.772 0 0 1 1.58-.277c.61-.048 1.1-.104 1.47-.171.37-.071.64-.168.81-.291a.597.597 0 0 0 .25-.504v-.029a.745.745 0 0 0-.33-.653c-.22-.152-.5-.227-.84-.227-.37 0-.68.083-.91.248-.23.161-.37.41-.42.746h-3.61c.05-.663.26-1.274.63-1.832.38-.564.93-1.014 1.66-1.35.72-.341 1.63-.511 2.71-.511.78 0 1.48.092 2.1.277.62.18 1.15.433 1.59.76.43.322.76.701.99 1.136.23.431.35.9.35 1.406V371h-3.67v-1.534h-.08c-.22.407-.48.736-.8.987-.3.251-.66.433-1.05.547-.4.114-.83.17-1.3.17Zm1.27-2.471c.3 0 .58-.062.84-.185.27-.123.48-.3.65-.532.16-.232.25-.514.25-.846v-.909c-.11.043-.22.083-.34.121-.11.038-.23.073-.37.107a9.443 9.443 0 0 1-.86.17c-.3.047-.55.125-.74.234-.19.105-.33.235-.43.391a.98.98 0 0 0-.13.511c0 .303.1.535.32.696.21.161.48.242.81.242Zm11.45 2.443c-.78 0-1.49-.204-2.14-.611-.65-.407-1.17-1.025-1.57-1.853-.38-.829-.58-1.873-.58-3.133 0-1.316.21-2.386.61-3.21.41-.824.94-1.427 1.59-1.811.66-.383 1.34-.575 2.06-.575.54 0 1.02.095 1.42.284.41.185.75.433 1.03.746.27.307.48.646.62 1.015h.06v-5.539h3.92V371h-3.89v-1.79h-.09c-.15.37-.37.701-.65.995-.28.288-.62.518-1.03.688-.39.166-.85.249-1.36.249Zm1.45-3.011c.36 0 .67-.104.92-.313.26-.213.46-.511.6-.895.14-.388.21-.847.21-1.378 0-.539-.07-1.001-.21-1.384-.14-.389-.34-.685-.6-.888a1.392 1.392 0 0 0-.92-.313c-.36 0-.67.104-.92.313-.25.203-.45.499-.59.888-.13.383-.19.845-.19 1.384 0 .54.06 1.004.19 1.393.14.383.34.679.59.887.25.204.56.306.92.306Zm7.49 2.869v-10.909h3.92V371h-3.92Zm1.96-12.045c-.53 0-.98-.176-1.36-.526-.38-.35-.57-.772-.57-1.264 0-.493.19-.914.57-1.264a1.93 1.93 0 0 1 1.36-.526c.54 0 .99.175 1.37.526.38.35.57.771.57 1.264 0 .492-.19.914-.57 1.264-.38.35-.83.526-1.37.526Zm10.47 1.136v2.841h-7.19v-2.841h7.19Zm-5.8-2.614h3.92v10.014c0 .152.03.28.08.384.05.099.13.175.24.227.11.048.25.071.42.071.12 0 .26-.014.41-.042.16-.029.28-.052.36-.071l.57 2.755c-.18.052-.43.116-.76.192-.32.076-.7.126-1.15.149-.9.048-1.65-.045-2.26-.277-.61-.236-1.07-.608-1.38-1.115-.31-.506-.46-1.141-.45-1.903v-10.384Zm7.4 13.523v-10.909h3.92V371h-3.92Zm1.96-12.045c-.53 0-.99-.176-1.37-.526-.38-.35-.57-.772-.57-1.264 0-.493.19-.914.57-1.264.38-.351.84-.526 1.37-.526.53 0 .99.175 1.36.526.38.35.57.771.57 1.264 0 .492-.19.914-.57 1.264-.37.35-.83.526-1.36.526Zm9.21 12.244c-1.18 0-2.2-.235-3.04-.703a4.86 4.86 0 0 1-1.94-1.975c-.45-.847-.67-1.83-.67-2.947 0-1.118.22-2.098.67-2.94a4.8 4.8 0 0 1 1.94-1.975c.84-.473 1.86-.71 3.04-.71s2.2.237 3.04.71a4.8 4.8 0 0 1 1.94 1.975c.45.842.67 1.822.67 2.94 0 1.117-.22 2.1-.67 2.947a4.86 4.86 0 0 1-1.94 1.975c-.84.468-1.86.703-3.04.703Zm.03-2.898c.33 0 .62-.111.86-.334.24-.222.43-.539.56-.951.13-.412.2-.902.2-1.471 0-.572-.07-1.063-.2-1.47-.13-.412-.32-.729-.56-.951a1.225 1.225 0 0 0-.86-.334c-.35 0-.65.111-.9.334-.25.222-.45.539-.58.951-.13.407-.2.898-.2 1.47 0 .569.07 1.059.2 1.471.13.412.33.729.58.951.25.223.55.334.9.334Zm11.13-3.437V371h-3.92v-10.909h3.73v2.074h.11c.24-.692.65-1.234 1.25-1.627s1.3-.589 2.1-.589c.77 0 1.44.177 2.01.533.57.35 1.02.833 1.33 1.448.32.616.47 1.319.47 2.11V371h-3.92v-6.136c0-.54-.13-.964-.41-1.272-.28-.307-.66-.461-1.15-.461-.33 0-.61.071-.85.213-.24.137-.42.336-.55.596-.12.256-.19.564-.2.924Zm12.05 6.306c-.69 0-1.31-.113-1.84-.34a2.762 2.762 0 0 1-1.25-1.052c-.31-.468-.46-1.065-.46-1.789 0-.597.1-1.106.31-1.527.2-.426.49-.774.85-1.044.37-.27.79-.476 1.27-.618a7.772 7.772 0 0 1 1.58-.277c.61-.048 1.1-.104 1.47-.171.37-.071.64-.168.81-.291a.623.623 0 0 0 .25-.504v-.029a.745.745 0 0 0-.33-.653c-.22-.152-.5-.227-.84-.227-.37 0-.68.083-.91.248-.24.161-.38.41-.42.746h-3.61c.05-.663.26-1.274.63-1.832.38-.564.93-1.014 1.66-1.35.72-.341 1.62-.511 2.71-.511.78 0 1.48.092 2.1.277.62.18 1.15.433 1.59.76.43.322.76.701.99 1.136.23.431.35.9.35 1.406V371h-3.67v-1.534h-.08c-.22.407-.49.736-.8.987a2.94 2.94 0 0 1-1.06.547c-.39.114-.82.17-1.3.17Zm1.28-2.471c.3 0 .58-.062.84-.185.27-.123.48-.3.65-.532.16-.232.25-.514.25-.846v-.909c-.11.043-.22.083-.34.121a7.1 7.1 0 0 1-.78.199c-.14.028-.29.054-.45.078-.3.047-.55.125-.74.234-.19.105-.33.235-.43.391a.98.98 0 0 0-.13.511c0 .303.1.535.32.696.21.161.48.242.81.242Zm11.42-12.244V371h-3.92v-14.545h3.92Z"/><path stroke="#FF6D7F" stroke-width="5" d="M731.5 819.5h119v129h-119zM850.5 819.5h119v129h-119zM969.5 819.5h119v129h-119zM1088.5 819.5h119v129h-119zM1208.5 819.5h119v129h-119zM731.5 609.5h129v129h-129zM860.5 609.5h129v129h-129zM989.5 609.5h129v129h-129zM1118.5 609.5h129v129h-129zM1247.5 609.5h129v129h-129zM1376.5 609.5h129v129h-129zM731.5 390.5h129v129h-129zM860.5 390.5h129v129h-129zM1046.5 390.5h129v129h-129zM1175.5 390.5h129v129h-129z"/><path fill="#1A73E8" d="M729 138h78v20h-78zM816 138h67v20h-67zM892 138h23v20h-23zM927 138h23v20h-23zM961 138h67v20h-67zM1059 138h76v20h-76z"/><path fill="#1A73E8" d="M1130 138h73v20h-73zM1209 138h68v20h-68zM1283 138h69v20h-69zM1360 138h68v20h-68zM1440 138h43v20h-43zM1485 138h63v20h-63zM1560 138h68v20h-68zM1637 138h67v20h-67zM1707 138h73v20h-73z"/></svg>