<svg xmlns="http://www.w3.org/2000/svg" width="1920" height="1080" fill="none"><path fill="#3C4043" d="m287.36 768.728 16.512-14.208c-5.632-7.168-18.432-20.352-27.392-27.776l-16.256 13.952c8.832 7.808 19.584 18.816 27.136 28.032ZM408.704 727c-11.776 0-21.376 9.6-21.376 21.376 0 11.776 9.6 21.376 21.376 21.376 11.904 0 21.376-9.6 21.376-21.376 0-11.776-9.472-21.376-21.376-21.376Zm0 32c-5.76 0-10.624-4.736-10.624-10.624 0-5.888 4.864-10.624 10.624-10.624a10.598 10.598 0 0 1 10.624 10.624A10.598 10.598 0 0 1 408.704 759ZM636.8 649.56h-43.52v81.28h18.304V666.2H636.8v-16.64Zm6.4 121.6h43.52v-81.28h-18.304v64.64H643.2v16.64Zm227.84-37.12v-60.16h21.76v-24.32h-48v84.48h26.24Zm-19.84-6.4v-71.68h35.2v11.52h-21.76v60.16H851.2Zm69.76-40.96v60.16H899.2v24.32h48v-84.48h-26.24Zm19.84 6.4v71.68h-35.2v-11.52h21.76v-60.16h13.44Zm139.26 31.872h15.88l3.84-40.448.76-21.248h-25.08l.76 21.248 3.84 40.448Zm7.94 35.584c7.55 0 13.06-5.504 13.06-13.056s-5.51-12.8-13.06-12.8c-7.55 0-13.06 5.248-13.06 12.8 0 7.552 5.38 13.056 13.06 13.056Zm98.56-2.304h13.18l3.08-24.704h19.84l-3.2 24.704h13.31l3.07-24.704h21.76v-14.336h-20.1l2.44-20.736h21.12v-14.464h-19.46l2.56-21.504h-12.93l-2.69 21.504h-19.84l2.56-21.504h-12.92l-2.82 21.504h-21.12v14.464h19.33l-2.43 20.736h-20.36v14.336h18.69l-3.07 24.704Zm17.79-39.04 2.56-20.736h19.71l-2.43 20.736h-19.84Zm104.07 2.432c14.08 0 24.19-11.52 24.19-30.592 0-19.2-10.11-30.336-24.19-30.336-13.96 0-24.2 11.136-24.2 30.336 0 19.072 10.24 30.592 24.2 30.592Zm0-12.672c-4.48 0-8.32-4.608-8.32-17.92 0-13.44 3.84-17.664 8.32-17.664 4.6 0 8.44 4.224 8.44 17.664 0 13.312-3.84 17.92-8.44 17.92Zm71.29 51.072c13.95 0 24.19-11.52 24.19-30.592 0-19.2-10.24-30.336-24.19-30.336-13.95 0-24.32 11.136-24.32 30.336 0 19.072 10.37 30.592 24.32 30.592Zm0-12.672c-4.61 0-8.45-4.608-8.45-17.92 0-13.44 3.84-17.664 8.45-17.664 4.61 0 8.45 4.224 8.45 17.664 0 13.312-3.84 17.92-8.45 17.92Zm-67.84 12.672h12.93l51.71-99.328h-13.05l-51.59 99.328Zm154.5-.128h11.77l1.28-37.248 32.9 17.536 5.89-10.24-31.49-19.584 31.49-19.712-5.89-10.24-32.9 17.536-1.28-37.248h-11.77l-1.28 37.248-32.9-17.536-5.89 10.24 31.49 19.712-31.49 19.584 5.89 10.24 32.9-17.536 1.28 37.248Zm194.43-105.728-4.61-4.608-116.99 116.992 4.61 4.608 116.99-116.992ZM284.807 338.068l-.341 4.773c-.284 4.091-.966 8.011-2.046 11.761-1.051 3.75-2.173 7.074-3.366 9.972a342.05 342.05 0 0 1-2.77 6.733h-14.489a673.069 673.069 0 0 0 1.918-6.904c.852-2.983 1.619-6.363 2.301-10.142a61.248 61.248 0 0 0 1.066-11.42v-4.773h17.727Zm45.255 13.296c-3.295 0-6.122-1.151-8.48-3.452-2.329-2.33-3.48-5.156-3.451-8.48-.029-3.239 1.122-6.009 3.451-8.31 2.358-2.301 5.185-3.452 8.48-3.452 3.126 0 5.881 1.151 8.268 3.452 2.414 2.301 3.636 5.071 3.664 8.31-.028 2.216-.61 4.233-1.747 6.051a12.862 12.862 0 0 1-4.346 4.304 11.328 11.328 0 0 1-5.839 1.577ZM373.081 290v-10.227c0-2.784.568-5.583 1.705-8.395a36.45 36.45 0 0 1 4.303-7.798c1.733-2.387 3.481-4.319 5.242-5.796l9.716 4.943a35.002 35.002 0 0 0-3.452 7.756c-.795 2.699-1.179 5.795-1.15 9.29V290h-16.364Zm56.484 0v-10.227c0-2.784.569-5.583 1.705-8.395a36.41 36.41 0 0 1 4.304-7.798c1.733-2.387 3.48-4.319 5.241-5.796l9.716 4.943a34.952 34.952 0 0 0-3.451 7.756c-.796 2.699-1.179 5.795-1.151 9.29V290h-16.364Zm56.485 0v-10.227c0-2.784.568-5.583 1.704-8.395a36.453 36.453 0 0 1 4.304-7.798c1.733-2.387 3.48-4.319 5.242-5.796l9.716 4.943a34.956 34.956 0 0 0-3.452 7.756c-.796 2.699-1.179 5.795-1.151 9.29V290H486.05Zm21.307 0v-10.227c0-2.784.568-5.583 1.704-8.395a36.41 36.41 0 0 1 4.304-7.798c1.733-2.387 3.48-4.319 5.242-5.796l9.715 4.943a34.998 34.998 0 0 0-3.451 7.756c-.796 2.699-1.179 5.795-1.151 9.29V290h-16.363Zm56.505 0v-10.227c0-2.784.568-5.583 1.705-8.395a36.41 36.41 0 0 1 4.304-7.798c1.733-2.387 3.48-4.319 5.241-5.796l9.716 4.943a35.002 35.002 0 0 0-3.452 7.756c-.795 2.699-1.179 5.795-1.15 9.29V290h-16.364Zm21.307 0v-10.227c0-2.784.568-5.583 1.705-8.395a36.41 36.41 0 0 1 4.304-7.798c1.733-2.387 3.48-4.319 5.241-5.796l9.716 4.943a35.002 35.002 0 0 0-3.452 7.756c-.795 2.699-1.179 5.795-1.15 9.29V290h-16.364Zm82.585-27.273-2.216 60h-19.431l-2.216-60h23.863Zm-11.932 88.637c-3.295 0-6.122-1.151-8.48-3.452-2.329-2.33-3.48-5.156-3.451-8.48-.029-3.239 1.122-6.009 3.451-8.31 2.358-2.301 5.185-3.452 8.48-3.452 3.125 0 5.881 1.151 8.267 3.452 2.415 2.301 3.637 5.071 3.665 8.31-.028 2.216-.611 4.233-1.747 6.051a12.862 12.862 0 0 1-4.346 4.304 11.328 11.328 0 0 1-5.839 1.577Zm68.438-28.637v-2.045c0-4.688.369-8.423 1.108-11.208.739-2.784 1.832-5.014 3.281-6.69 1.449-1.704 3.225-3.239 5.327-4.602a73.553 73.553 0 0 0 4.858-3.452c1.449-1.108 2.585-2.287 3.409-3.537.852-1.25 1.278-2.67 1.278-4.261 0-1.421-.341-2.671-1.022-3.75a6.964 6.964 0 0 0-2.77-2.514c-1.165-.597-2.458-.895-3.878-.895-1.534 0-2.955.355-4.262 1.065a8.566 8.566 0 0 0-3.11 2.94c-.767 1.25-1.151 2.699-1.151 4.347H705.51c.057-6.25 1.477-11.321 4.261-15.213 2.784-3.921 6.478-6.79 11.08-8.608 4.602-1.847 9.659-2.77 15.17-2.77 6.08 0 11.506.895 16.279 2.685 4.772 1.761 8.537 4.432 11.292 8.011 2.756 3.551 4.134 7.997 4.134 13.338 0 3.438-.597 6.463-1.79 9.077a21.575 21.575 0 0 1-4.9 6.861c-2.074 1.96-4.503 3.75-7.287 5.369-2.046 1.193-3.765 2.429-5.157 3.707-1.392 1.25-2.443 2.685-3.153 4.304-.71 1.591-1.065 3.523-1.065 5.796v2.045H724.26Zm10.398 28.637c-3.296 0-6.122-1.151-8.48-3.452-2.33-2.33-3.481-5.156-3.452-8.48-.029-3.239 1.122-6.009 3.452-8.31 2.358-2.301 5.184-3.452 8.48-3.452 3.125 0 5.88 1.151 8.267 3.452 2.414 2.301 3.636 5.071 3.664 8.31-.028 2.216-.61 4.233-1.747 6.051a12.853 12.853 0 0 1-4.346 4.304 11.327 11.327 0 0 1-5.838 1.577ZM836.312 350l14.319-87.273h17.045L853.358 350h-17.046Zm-38.693-19.943 2.898-17.046h70.227l-2.897 17.046h-70.228ZM805.631 350l14.318-87.273h17.045L822.676 350h-17.045Zm-3.069-50.284 2.898-17.046h70.228l-2.898 17.046h-70.228Zm153.474 33.92v-4.602c0-3.693.795-7.102 2.386-10.227 1.619-3.125 3.963-5.639 7.031-7.543 3.068-1.903 6.804-2.855 11.208-2.855 4.517 0 8.309.938 11.377 2.813 3.097 1.875 5.441 4.375 7.032 7.5 1.591 3.125 2.386 6.562 2.386 10.312v4.602c0 3.694-.81 7.103-2.429 10.228-1.591 3.125-3.935 5.639-7.031 7.542-3.097 1.904-6.875 2.855-11.335 2.855-4.461 0-8.225-.951-11.293-2.855-3.068-1.903-5.398-4.417-6.989-7.542-1.562-3.125-2.343-6.534-2.343-10.228Zm14.829-4.602v4.602c0 1.62.398 3.225 1.193 4.816.824 1.562 2.358 2.343 4.603 2.343 2.357 0 3.906-.767 4.644-2.301a10.72 10.72 0 0 0 1.151-4.858v-4.602c0-1.704-.355-3.352-1.065-4.943-.711-1.591-2.287-2.386-4.73-2.386-2.245 0-3.779.795-4.603 2.386-.795 1.591-1.193 3.239-1.193 4.943Zm-60.511-45.341v-4.602c0-3.75.809-7.188 2.429-10.313 1.647-3.125 4.005-5.625 7.074-7.5 3.068-1.875 6.775-2.812 11.122-2.812 4.517 0 8.309.937 11.378 2.812 3.096 1.875 5.44 4.375 7.031 7.5 1.591 3.125 2.386 6.563 2.386 10.313v4.602c0 3.75-.81 7.173-2.429 10.27-1.591 3.097-3.934 5.568-7.031 7.415-3.097 1.846-6.875 2.77-11.335 2.77-4.461 0-8.225-.938-11.293-2.813-3.068-1.875-5.398-4.361-6.989-7.457-1.562-3.097-2.343-6.492-2.343-10.185Zm15-4.602v4.602c0 1.705.397 3.324 1.193 4.858.795 1.534 2.273 2.301 4.432 2.301 2.358 0 3.906-.767 4.645-2.301a10.72 10.72 0 0 0 1.15-4.858v-4.602c0-1.705-.355-3.352-1.065-4.943-.71-1.591-2.287-2.387-4.73-2.387-2.245 0-3.75.824-4.517 2.472-.739 1.619-1.108 3.239-1.108 4.858ZM917.598 350l60-87.273H989.7L929.7 350h-12.102Zm143.142-38.182 1.36-15-12.44 8.693-6.82-11.931 13.64-6.307-13.64-6.307 6.82-11.932 12.44 8.693-1.36-15h13.63l-1.36 15 12.44-8.693 6.82 11.932-13.64 6.307 13.64 6.307-6.82 11.931-12.44-8.693 1.36 15h-13.63Zm116-53.182-28.12 104.489h-19.95l28.13-104.489h19.94Z"/><path fill="#1A73E8" d="M257.641 210v-25.455h6.91v19.887h10.291V210h-17.201Zm25.414.298c-1.218 0-2.295-.199-3.232-.596a4.853 4.853 0 0 1-2.187-1.84c-.531-.82-.796-1.864-.796-3.132 0-1.044.178-1.935.535-2.672a4.805 4.805 0 0 1 1.491-1.827 7.037 7.037 0 0 1 2.225-1.081 13.415 13.415 0 0 1 2.759-.485c1.069-.083 1.927-.183 2.573-.299.655-.124 1.127-.294 1.417-.509.29-.224.435-.518.435-.883v-.049c0-.497-.191-.879-.572-1.144-.381-.265-.87-.397-1.466-.397-.655 0-1.189.145-1.604.435-.406.281-.65.716-.733 1.305h-6.314a6.515 6.515 0 0 1 1.106-3.207c.663-.986 1.628-1.773 2.896-2.362 1.268-.596 2.851-.894 4.748-.894 1.367 0 2.594.161 3.679.484 1.085.315 2.009.758 2.772 1.33.762.564 1.342 1.226 1.74 1.989.406.754.609 1.574.609 2.461V210h-6.414v-2.685h-.149c-.381.713-.845 1.289-1.392 1.728a5.122 5.122 0 0 1-1.852.957 8.16 8.16 0 0 1-2.274.298Zm2.237-4.325c.522 0 1.011-.108 1.467-.323a2.83 2.83 0 0 0 1.131-.932c.29-.406.435-.899.435-1.479v-1.591a8.195 8.195 0 0 1-.584.211 12.094 12.094 0 0 1-1.368.348c-.248.05-.509.095-.783.137-.53.083-.965.219-1.305.41-.331.182-.58.41-.745.684a1.712 1.712 0 0 0-.237.894c0 .531.187.937.56 1.218.373.282.849.423 1.429.423Zm24.507-15.064v4.972h-12.578v-4.972h12.578Zm-10.142-4.574h6.861v17.525c0 .265.045.489.136.671a.896.896 0 0 0 .423.398c.19.083.435.124.733.124.207 0 .448-.025.721-.074.282-.05.489-.091.622-.125l.994 4.823c-.307.091-.746.203-1.318.335-.563.133-1.234.22-2.013.261-1.574.083-2.896-.078-3.965-.484-1.069-.415-1.873-1.065-2.411-1.952-.539-.886-.8-1.997-.783-3.331v-18.171ZM312.598 210v-19.091h6.861V210h-6.861Zm3.431-21.08c-.928 0-1.724-.306-2.387-.919-.662-.613-.994-1.351-.994-2.213 0-.861.332-1.599.994-2.212.663-.613 1.459-.92 2.387-.92.936 0 1.732.307 2.386.92.663.613.995 1.351.995 2.212 0 .862-.332 1.6-.995 2.213-.654.613-1.45.919-2.386.919Zm13.787 10.341V210h-6.861v-19.091h6.513v3.629h.199c.414-1.209 1.143-2.158 2.187-2.846 1.052-.688 2.279-1.031 3.679-1.031 1.351 0 2.523.31 3.517.932a6.192 6.192 0 0 1 2.325 2.535c.555 1.077.828 2.308.82 3.692V210h-6.861v-10.739c.008-.944-.232-1.686-.721-2.224-.48-.539-1.151-.808-2.013-.808-.564 0-1.057.124-1.479.373-.415.24-.734.588-.957 1.044-.224.447-.34.986-.348 1.615Zm22.739 17.898v-26.25h6.811v3.331h.149a5.754 5.754 0 0 1 1.093-1.777 5.216 5.216 0 0 1 1.79-1.305c.713-.332 1.541-.497 2.486-.497 1.26 0 2.457.335 3.592 1.006 1.143.671 2.072 1.728 2.784 3.17.721 1.441 1.081 3.314 1.081 5.618 0 2.204-.343 4.031-1.031 5.481-.68 1.45-1.591 2.531-2.735 3.244a6.903 6.903 0 0 1-3.741 1.069c-.895 0-1.694-.145-2.398-.435a5.557 5.557 0 0 1-1.79-1.206 5.575 5.575 0 0 1-1.131-1.74h-.1v10.291h-6.86Zm6.711-16.704c0 .928.12 1.731.361 2.411.248.671.596 1.193 1.044 1.566.455.364.998.547 1.628.547.63 0 1.164-.178 1.603-.535.448-.364.787-.882 1.019-1.553.241-.68.361-1.492.361-2.436 0-.945-.12-1.753-.361-2.424-.232-.68-.571-1.197-1.019-1.554-.439-.364-.973-.547-1.603-.547s-1.173.183-1.628.547c-.448.357-.796.874-1.044 1.554-.241.671-.361 1.479-.361 2.424Zm28.329 1.193v-10.739h6.861V210h-6.513v-3.629h-.199c-.414 1.218-1.139 2.171-2.175 2.858-1.036.68-2.266 1.02-3.691 1.02-1.334 0-2.503-.307-3.505-.92-.995-.613-1.769-1.458-2.325-2.536-.546-1.077-.824-2.311-.832-3.704v-12.18h6.86v10.739c.009.944.249 1.686.721 2.225.481.538 1.152.807 2.014.807.572 0 1.065-.12 1.479-.36.422-.249.746-.597.969-1.044.232-.456.344-.999.336-1.628Zm17.211-2.387V210h-6.861v-19.091h6.513v3.629h.199c.414-1.209 1.143-2.158 2.187-2.846 1.053-.688 2.279-1.031 3.679-1.031 1.351 0 2.523.31 3.518.932a6.196 6.196 0 0 1 2.324 2.535c.555 1.077.828 2.308.82 3.692V210h-6.861v-10.739c.009-.944-.232-1.686-.72-2.224-.481-.539-1.152-.808-2.014-.808-.563 0-1.056.124-1.479.373a2.39 2.39 0 0 0-.957 1.044c-.224.447-.34.986-.348 1.615Zm24.964 11.087c-2.072 0-3.845-.41-5.32-1.23a8.464 8.464 0 0 1-3.393-3.456c-.787-1.483-1.181-3.202-1.181-5.158 0-1.955.394-3.67 1.181-5.145a8.363 8.363 0 0 1 3.393-3.456c1.475-.828 3.248-1.242 5.32-1.242 1.872 0 3.492.339 4.859 1.019 1.376.671 2.44 1.624 3.195 2.858.754 1.227 1.135 2.668 1.143 4.326h-6.364c-.091-1.003-.381-1.765-.87-2.287-.48-.531-1.102-.796-1.864-.796-.597 0-1.119.174-1.566.522-.448.34-.796.858-1.044 1.554-.249.688-.373 1.554-.373 2.598 0 1.044.124 1.914.373 2.61.248.687.596 1.205 1.044 1.553.447.34.969.51 1.566.51.505 0 .953-.116 1.342-.348.39-.24.705-.588.945-1.044.248-.464.398-1.028.447-1.691h6.364c-.025 1.683-.41 3.149-1.156 4.4-.746 1.243-1.802 2.204-3.169 2.884-1.359.679-2.983 1.019-4.872 1.019Zm23.413-19.439v4.972h-12.579v-4.972h12.579Zm-10.142-4.574h6.86v17.525c0 .265.046.489.137.671a.896.896 0 0 0 .423.398c.19.083.435.124.733.124.207 0 .447-.025.721-.074.282-.05.489-.091.621-.125l.995 4.823c-.307.091-.746.203-1.318.335-.563.133-1.234.22-2.013.261-1.575.083-2.896-.078-3.965-.484-1.069-.415-1.873-1.065-2.411-1.952-.539-.886-.8-1.997-.783-3.331v-18.171Zm25.321 15.313v-10.739h6.86V210h-6.512v-3.629h-.199c-.415 1.218-1.14 2.171-2.175 2.858-1.036.68-2.267 1.02-3.692 1.02-1.334 0-2.502-.307-3.505-.92-.994-.613-1.769-1.458-2.324-2.536-.547-1.077-.824-2.311-.833-3.704v-12.18h6.861v10.739c.008.944.249 1.686.721 2.225.481.538 1.152.807 2.013.807.572 0 1.065-.12 1.479-.36.423-.249.746-.597.97-1.044.232-.456.344-.999.336-1.628Zm15.669 8.65c-1.218 0-2.295-.199-3.231-.596a4.86 4.86 0 0 1-2.188-1.84c-.53-.82-.795-1.864-.795-3.132 0-1.044.178-1.935.534-2.672a4.817 4.817 0 0 1 1.492-1.827 7.026 7.026 0 0 1 2.225-1.081 13.415 13.415 0 0 1 2.759-.485c1.069-.083 1.926-.183 2.573-.299.654-.124 1.126-.294 1.416-.509a1.06 1.06 0 0 0 .436-.883v-.049c0-.497-.191-.879-.572-1.144-.381-.265-.87-.397-1.467-.397-.654 0-1.189.145-1.603.435-.406.281-.651.716-.733 1.305h-6.314a6.495 6.495 0 0 1 1.106-3.207c.663-.986 1.628-1.773 2.896-2.362 1.267-.596 2.85-.894 4.748-.894 1.367 0 2.593.161 3.679.484 1.085.315 2.009.758 2.771 1.33.763.564 1.343 1.226 1.74 1.989.406.754.609 1.574.609 2.461V210h-6.413v-2.685h-.149c-.381.713-.845 1.289-1.392 1.728a5.13 5.13 0 0 1-1.852.957 8.167 8.167 0 0 1-2.275.298Zm2.238-4.325c.522 0 1.01-.108 1.466-.323a2.83 2.83 0 0 0 1.131-.932c.29-.406.435-.899.435-1.479v-1.591a8.021 8.021 0 0 1-.584.211 12.094 12.094 0 0 1-1.367.348c-.249.05-.51.095-.783.137-.53.083-.965.219-1.305.41-.332.182-.58.41-.746.684a1.72 1.72 0 0 0-.236.894c0 .531.186.937.559 1.218.373.282.85.423 1.43.423Zm24.506-15.064v4.972h-12.578v-4.972h12.578Zm-10.142-4.574h6.861v17.525c0 .265.046.489.137.671a.898.898 0 0 0 .422.398c.191.083.435.124.734.124.207 0 .447-.025.721-.074a9.45 9.45 0 0 0 .621-.125l.994 4.823c-.306.091-.745.203-1.317.335-.564.133-1.235.22-2.014.261-1.574.083-2.896-.078-3.964-.484-1.069-.415-1.873-1.065-2.412-1.952-.538-.886-.799-1.997-.783-3.331v-18.171ZM513.575 210v-19.091h6.861V210h-6.861Zm3.43-21.08c-.928 0-1.723-.306-2.386-.919s-.994-1.351-.994-2.213c0-.861.331-1.599.994-2.212.663-.613 1.458-.92 2.386-.92.937 0 1.732.307 2.387.92.663.613.994 1.351.994 2.212 0 .862-.331 1.6-.994 2.213-.655.613-1.45.919-2.387.919Zm16.124 21.428c-2.072 0-3.845-.41-5.32-1.23a8.464 8.464 0 0 1-3.393-3.456c-.787-1.483-1.181-3.202-1.181-5.158 0-1.955.394-3.67 1.181-5.145a8.363 8.363 0 0 1 3.393-3.456c1.475-.828 3.248-1.242 5.32-1.242 2.071 0 3.845.414 5.32 1.242a8.375 8.375 0 0 1 3.393 3.456c.787 1.475 1.18 3.19 1.18 5.145 0 1.956-.393 3.675-1.18 5.158a8.476 8.476 0 0 1-3.393 3.456c-1.475.82-3.249 1.23-5.32 1.23Zm.05-5.071c.58 0 1.081-.195 1.504-.584.422-.39.749-.945.981-1.666.232-.721.348-1.578.348-2.572 0-1.003-.116-1.861-.348-2.573-.232-.721-.559-1.276-.981-1.666a2.147 2.147 0 0 0-1.504-.584 2.3 2.3 0 0 0-1.579.584c-.439.39-.775.945-1.007 1.666-.232.712-.348 1.57-.348 2.573 0 .994.116 1.851.348 2.572.232.721.568 1.276 1.007 1.666a2.3 2.3 0 0 0 1.579.584Zm19.488-6.016V210h-6.861v-19.091h6.513v3.629h.199c.414-1.209 1.144-2.158 2.188-2.846 1.052-.688 2.278-1.031 3.679-1.031 1.35 0 2.523.31 3.517.932a6.19 6.19 0 0 1 2.324 2.535c.555 1.077.829 2.308.821 3.692V210h-6.861v-10.739c.008-.944-.232-1.686-.721-2.224-.481-.539-1.152-.808-2.014-.808-.563 0-1.056.124-1.479.373a2.39 2.39 0 0 0-.957 1.044c-.223.447-.339.986-.348 1.615Z"/><path fill="#FF6D7F" d="M257.641 587v-25.455h17.897v5.569h-10.987v4.375h9.894v5.568h-9.894V587h-6.91Zm31.721-8.352v-10.739h6.861V587h-6.513v-3.629h-.198c-.415 1.218-1.14 2.171-2.175 2.858-1.036.68-2.267 1.02-3.692 1.02-1.334 0-2.502-.307-3.505-.92-.994-.613-1.769-1.458-2.324-2.536-.547-1.077-.824-2.311-.833-3.704v-12.18h6.861v10.739c.008.944.249 1.686.721 2.225.48.538 1.152.807 2.013.807.572 0 1.065-.12 1.479-.36.423-.249.746-.597.97-1.044.232-.456.344-.999.335-1.628Zm17.212-17.103V587h-6.861v-25.455h6.861Zm10.356 0V587h-6.861v-25.455h6.861Zm16.024 12.728v5.17h-11.932v-5.17h11.932ZM340.418 587l-4.773-19.091h6.861l2.187 11.634h.149l2.436-11.634h6.662l2.536 11.534h.149l2.088-11.534h6.861L360.801 587h-7.408l-2.684-10.241h-.199L347.825 587h-7.407Zm27.244 0v-19.091h6.861V587h-6.861Zm3.43-21.08c-.928 0-1.723-.306-2.386-.919s-.994-1.351-.994-2.213c0-.861.331-1.599.994-2.212.663-.613 1.458-.92 2.386-.92.937 0 1.732.307 2.387.92.663.613.994 1.351.994 2.212 0 .862-.331 1.6-.994 2.213-.655.613-1.45.919-2.387.919Zm13.837 21.329a6.968 6.968 0 0 1-3.754-1.069c-1.135-.713-2.046-1.794-2.734-3.244-.679-1.45-1.019-3.277-1.019-5.481 0-2.304.356-4.177 1.069-5.618.721-1.442 1.649-2.499 2.784-3.17 1.143-.671 2.345-1.006 3.604-1.006.945 0 1.773.165 2.486.497a5.207 5.207 0 0 1 1.79 1.305c.48.538.845 1.131 1.093 1.777h.1v-9.695h6.861V587h-6.811v-3.132h-.15a5.379 5.379 0 0 1-2.933 2.946c-.696.29-1.491.435-2.386.435Zm2.535-5.27c.63 0 1.169-.183 1.616-.547.456-.373.804-.895 1.044-1.566.249-.68.373-1.483.373-2.411 0-.945-.124-1.753-.373-2.424-.24-.68-.588-1.197-1.044-1.554-.447-.364-.986-.547-1.616-.547-.629 0-1.168.183-1.615.547-.44.357-.779.874-1.02 1.554-.232.671-.348 1.479-.348 2.424 0 .944.116 1.756.348 2.436.241.671.58 1.189 1.02 1.553.447.357.986.535 1.615.535Zm24.498-14.07v4.972h-12.578v-4.972h12.578Zm-10.142-4.574h6.861v17.525c0 .265.045.489.136.671a.9.9 0 0 0 .423.398c.191.083.435.124.733.124.207 0 .448-.025.721-.074.282-.05.489-.091.622-.125l.994 4.823c-.307.091-.746.203-1.318.335-.563.133-1.234.22-2.013.261-1.574.083-2.896-.078-3.965-.484-1.069-.415-1.873-1.065-2.411-1.952-.539-.886-.8-1.997-.783-3.331v-18.171Zm20.212 12.926V587h-6.86v-25.455h6.612v9.993h.199c.431-1.218 1.147-2.166 2.15-2.846 1.003-.688 2.208-1.031 3.617-1.031 1.35 0 2.523.306 3.517.919a6.186 6.186 0 0 1 2.324 2.536c.556 1.077.829 2.312.821 3.704V587h-6.861v-10.739c.008-.944-.228-1.686-.708-2.224-.473-.539-1.148-.808-2.026-.808-.556 0-1.044.124-1.467.373-.414.24-.737.588-.969 1.044-.224.447-.34.986-.349 1.615Zm22.739 17.898v-26.25h6.811v3.331h.15a5.754 5.754 0 0 1 1.093-1.777 5.207 5.207 0 0 1 1.79-1.305c.713-.332 1.541-.497 2.486-.497 1.259 0 2.457.335 3.592 1.006 1.143.671 2.071 1.728 2.784 3.17.721 1.441 1.081 3.314 1.081 5.618 0 2.204-.344 4.031-1.031 5.481-.68 1.45-1.591 2.531-2.735 3.244a6.903 6.903 0 0 1-3.741 1.069c-.895 0-1.694-.145-2.399-.435a5.553 5.553 0 0 1-1.789-1.206 5.575 5.575 0 0 1-1.131-1.74h-.1v10.291h-6.861Zm6.712-16.704c0 .928.12 1.731.36 2.411.249.671.597 1.193 1.044 1.566.456.364.999.547 1.629.547.629 0 1.164-.178 1.603-.535.447-.364.787-.882 1.019-1.553.24-.68.361-1.492.361-2.436 0-.945-.121-1.753-.361-2.424-.232-.68-.572-1.197-1.019-1.554-.439-.364-.974-.547-1.603-.547-.63 0-1.173.183-1.629.547-.447.357-.795.874-1.044 1.554-.24.671-.36 1.479-.36 2.424Zm28.329 1.193v-10.739h6.86V587h-6.512v-3.629h-.199c-.414 1.218-1.139 2.171-2.175 2.858-1.036.68-2.266 1.02-3.692 1.02-1.334 0-2.502-.307-3.505-.92-.994-.613-1.769-1.458-2.324-2.536-.547-1.077-.824-2.311-.833-3.704v-12.18h6.861v10.739c.009.944.249 1.686.721 2.225.481.538 1.152.807 2.014.807.571 0 1.064-.12 1.479-.36a2.47 2.47 0 0 0 .969-1.044c.232-.456.344-.999.336-1.628Zm17.211-2.387V587h-6.861v-19.091h6.513v3.629h.199c.414-1.209 1.143-2.158 2.187-2.846 1.052-.688 2.279-1.031 3.679-1.031 1.351 0 2.523.31 3.517.932a6.192 6.192 0 0 1 2.325 2.535c.555 1.077.828 2.308.82 3.692V587h-6.861v-10.739c.008-.944-.232-1.686-.721-2.224-.48-.539-1.151-.808-2.013-.808-.564 0-1.057.124-1.479.373-.415.24-.734.588-.957 1.044-.224.447-.34.986-.348 1.615Zm24.963 11.087c-2.071 0-3.844-.41-5.319-1.23a8.464 8.464 0 0 1-3.393-3.456c-.788-1.483-1.181-3.202-1.181-5.158 0-1.955.393-3.67 1.181-5.145a8.363 8.363 0 0 1 3.393-3.456c1.475-.828 3.248-1.242 5.319-1.242 1.873 0 3.493.339 4.86 1.019 1.376.671 2.44 1.624 3.194 2.858.754 1.227 1.135 2.668 1.144 4.326h-6.364c-.091-1.003-.381-1.765-.87-2.287-.48-.531-1.102-.796-1.864-.796-.597 0-1.119.174-1.566.522-.448.34-.796.858-1.044 1.554-.249.688-.373 1.554-.373 2.598 0 1.044.124 1.914.373 2.61.248.687.596 1.205 1.044 1.553.447.34.969.51 1.566.51.505 0 .953-.116 1.342-.348.39-.24.704-.588.945-1.044.248-.464.397-1.028.447-1.691h6.364c-.025 1.683-.41 3.149-1.156 4.4-.746 1.243-1.802 2.204-3.17 2.884-1.358.679-2.982 1.019-4.872 1.019Zm23.413-19.439v4.972h-12.578v-4.972h12.578Zm-10.142-4.574h6.861v17.525c0 .265.046.489.137.671a.898.898 0 0 0 .422.398c.191.083.435.124.734.124.207 0 .447-.025.721-.074a9.45 9.45 0 0 0 .621-.125l.994 4.823c-.306.091-.745.203-1.317.335-.563.133-1.235.22-2.014.261-1.574.083-2.895-.078-3.964-.484-1.069-.415-1.873-1.065-2.412-1.952-.538-.886-.799-1.997-.783-3.331v-18.171Zm25.321 15.313v-10.739h6.861V587h-6.513v-3.629h-.199c-.414 1.218-1.139 2.171-2.175 2.858-1.035.68-2.266 1.02-3.691 1.02-1.334 0-2.502-.307-3.505-.92-.994-.613-1.769-1.458-2.324-2.536-.547-1.077-.825-2.311-.833-3.704v-12.18h6.861v10.739c.008.944.248 1.686.721 2.225.48.538 1.151.807 2.013.807.572 0 1.065-.12 1.479-.36.423-.249.746-.597.97-1.044.232-.456.344-.999.335-1.628Zm15.67 8.65c-1.218 0-2.295-.199-3.231-.596-.928-.406-1.658-1.019-2.188-1.84-.53-.82-.795-1.864-.795-3.132 0-1.044.178-1.935.534-2.672a4.807 4.807 0 0 1 1.492-1.827 7.031 7.031 0 0 1 2.224-1.081 13.437 13.437 0 0 1 2.76-.485c1.068-.083 1.926-.183 2.572-.299.655-.124 1.127-.294 1.417-.509.29-.224.435-.518.435-.883v-.049c0-.497-.19-.879-.571-1.144-.382-.265-.87-.397-1.467-.397-.655 0-1.189.145-1.603.435-.406.281-.651.716-.734 1.305h-6.314a6.506 6.506 0 0 1 1.107-3.207c.662-.986 1.628-1.773 2.896-2.362 1.267-.596 2.85-.894 4.747-.894 1.368 0 2.594.161 3.679.484 1.086.315 2.01.758 2.772 1.33.762.564 1.342 1.226 1.74 1.989.406.754.609 1.574.609 2.461V587h-6.413v-2.685h-.149c-.382.713-.846 1.289-1.392 1.728a5.13 5.13 0 0 1-1.852.957 8.167 8.167 0 0 1-2.275.298Zm2.237-4.325c.522 0 1.011-.108 1.467-.323a2.83 2.83 0 0 0 1.131-.932c.29-.406.435-.899.435-1.479v-1.591a8.021 8.021 0 0 1-.584.211 12.094 12.094 0 0 1-1.367.348c-.249.05-.51.095-.783.137-.531.083-.966.219-1.305.41-.332.182-.58.41-.746.684a1.711 1.711 0 0 0-.236.894c0 .531.186.937.559 1.218.373.282.849.423 1.429.423Zm24.507-15.064v4.972h-12.578v-4.972h12.578Zm-10.142-4.574h6.861v17.525c0 .265.046.489.137.671a.898.898 0 0 0 .422.398c.191.083.435.124.734.124.207 0 .447-.025.72-.074.282-.05.489-.091.622-.125l.994 4.823c-.306.091-.746.203-1.317.335-.564.133-1.235.22-2.014.261-1.574.083-2.896-.078-3.965-.484-1.069-.415-1.872-1.065-2.411-1.952-.538-.886-.799-1.997-.783-3.331v-18.171ZM605.792 587v-19.091h6.861V587h-6.861Zm3.43-21.08c-.928 0-1.723-.306-2.386-.919s-.994-1.351-.994-2.213c0-.861.331-1.599.994-2.212.663-.613 1.458-.92 2.386-.92.937 0 1.732.307 2.387.92.662.613.994 1.351.994 2.212 0 .862-.332 1.6-.994 2.213-.655.613-1.45.919-2.387.919Zm16.124 21.428c-2.072 0-3.845-.41-5.32-1.23a8.464 8.464 0 0 1-3.393-3.456c-.787-1.483-1.181-3.202-1.181-5.158 0-1.955.394-3.67 1.181-5.145a8.363 8.363 0 0 1 3.393-3.456c1.475-.828 3.248-1.242 5.32-1.242 2.071 0 3.844.414 5.319 1.242a8.363 8.363 0 0 1 3.393 3.456c.788 1.475 1.181 3.19 1.181 5.145 0 1.956-.393 3.675-1.181 5.158a8.464 8.464 0 0 1-3.393 3.456c-1.475.82-3.248 1.23-5.319 1.23Zm.049-5.071c.58 0 1.082-.195 1.504-.584.423-.39.75-.945.982-1.666.232-.721.348-1.578.348-2.572 0-1.003-.116-1.861-.348-2.573-.232-.721-.559-1.276-.982-1.666a2.146 2.146 0 0 0-1.504-.584c-.613 0-1.139.195-1.578.584-.439.39-.775.945-1.007 1.666-.232.712-.348 1.57-.348 2.573 0 .994.116 1.851.348 2.572.232.721.568 1.276 1.007 1.666.439.389.965.584 1.578.584Zm19.489-6.016V587h-6.861v-19.091h6.513v3.629h.199c.414-1.209 1.143-2.158 2.187-2.846 1.053-.688 2.279-1.031 3.679-1.031 1.351 0 2.523.31 3.518.932a6.196 6.196 0 0 1 2.324 2.535c.555 1.077.829 2.308.82 3.692V587h-6.86v-10.739c.008-.944-.232-1.686-.721-2.224-.481-.539-1.152-.808-2.014-.808-.563 0-1.056.124-1.479.373a2.39 2.39 0 0 0-.957 1.044c-.224.447-.34.986-.348 1.615Z"/></svg>