<svg xmlns="http://www.w3.org/2000/svg" width="1920" height="1080" fill="none"><path fill="#3C4043" d="M463.699 238.182v-15.909h63.21v15.909h-21.875V295h-19.46v-56.818h-21.875Zm89.293 57.812c-5.918 0-10.985-1.172-15.199-3.515-4.214-2.368-7.445-5.658-9.694-9.872-2.249-4.238-3.374-9.151-3.374-14.738s1.125-10.487 3.374-14.701c2.249-4.238 5.48-7.529 9.694-9.873 4.214-2.367 9.281-3.551 15.199-3.551 5.919 0 10.985 1.184 15.199 3.551 4.214 2.344 7.446 5.635 9.695 9.873 2.249 4.214 3.373 9.114 3.373 14.701s-1.124 10.5-3.373 14.738c-2.249 4.214-5.481 7.504-9.695 9.872-4.214 2.343-9.28 3.515-15.199 3.515Zm.142-14.488c1.657 0 3.09-.557 4.297-1.669 1.207-1.113 2.143-2.699 2.806-4.759.662-2.06.994-4.51.994-7.351 0-2.864-.332-5.315-.994-7.351-.663-2.059-1.599-3.645-2.806-4.758s-2.64-1.669-4.297-1.669c-1.752 0-3.255.556-4.51 1.669-1.254 1.113-2.213 2.699-2.876 4.758-.663 2.036-.994 4.487-.994 7.351 0 2.841.331 5.291.994 7.351.663 2.06 1.622 3.646 2.876 4.759 1.255 1.112 2.758 1.669 4.51 1.669Zm75.462-59.233V295h-19.744v-72.727h19.744Zm42.17 18.182v14.204h-35.938v-14.204h35.938Zm-28.978-13.069h19.603v50.071c0 .758.13 1.397.39 1.918.261.497.663.876 1.208 1.136.544.237 1.243.355 2.095.355.592 0 1.278-.071 2.059-.213a28.32 28.32 0 0 0 1.776-.355l2.841 13.779c-.876.26-2.131.58-3.764.959-1.61.378-3.528.627-5.753.745-4.498.237-8.274-.225-11.328-1.385-3.054-1.183-5.351-3.042-6.889-5.575-1.539-2.533-2.285-5.705-2.238-9.517v-51.918Zm52.175 68.466c-3.48 0-6.557-.568-9.233-1.704-2.651-1.16-4.734-2.912-6.25-5.256-1.515-2.344-2.272-5.327-2.272-8.949 0-2.983.509-5.528 1.527-7.635 1.018-2.13 2.438-3.87 4.261-5.22 1.823-1.349 3.942-2.379 6.357-3.089 2.438-.711 5.066-1.172 7.883-1.385 3.054-.237 5.504-.521 7.351-.853 1.87-.355 3.22-.84 4.048-1.456.829-.639 1.243-1.479 1.243-2.521v-.142c0-1.42-.544-2.509-1.633-3.267s-2.486-1.136-4.191-1.136c-1.87 0-3.397.414-4.581 1.243-1.16.804-1.858 2.047-2.095 3.728h-18.04c.237-3.314 1.291-6.368 3.161-9.162 1.894-2.817 4.652-5.066 8.274-6.747 3.622-1.704 8.144-2.557 13.565-2.557 3.907 0 7.41.462 10.512 1.385 3.101.9 5.741 2.166 7.919 3.8 2.178 1.61 3.835 3.504 4.971 5.682 1.16 2.154 1.74 4.498 1.74 7.031V295h-18.323v-7.67h-.427c-1.089 2.036-2.414 3.681-3.977 4.936-1.539 1.254-3.302 2.166-5.291 2.734-1.965.568-4.131.852-6.499.852Zm6.392-12.358a9.675 9.675 0 0 0 4.191-.923 8.072 8.072 0 0 0 3.231-2.663c.829-1.16 1.243-2.569 1.243-4.226v-4.546c-.521.213-1.077.415-1.669.604-.568.189-1.184.367-1.846.533a34.54 34.54 0 0 1-2.06.461c-.71.142-1.456.273-2.237.391-1.515.237-2.758.627-3.729 1.172-.947.521-1.657 1.172-2.131 1.953-.449.758-.674 1.61-.674 2.557 0 1.515.532 2.675 1.598 3.48 1.065.805 2.426 1.207 4.083 1.207Zm57.094-61.221V295h-19.602v-72.727h19.602ZM767.436 295v-54.545h19.603V295h-19.603Zm9.802-60.227c-2.652 0-4.925-.876-6.819-2.628-1.894-1.752-2.841-3.859-2.841-6.321 0-2.462.947-4.569 2.841-6.321 1.894-1.752 4.167-2.628 6.819-2.628 2.675 0 4.947.876 6.818 2.628 1.894 1.752 2.841 3.859 2.841 6.321 0 2.462-.947 4.569-2.841 6.321-1.871 1.752-4.143 2.628-6.818 2.628Zm46.067 61.221c-5.919 0-10.985-1.172-15.199-3.515-4.214-2.368-7.446-5.658-9.695-9.872-2.249-4.238-3.373-9.151-3.373-14.738s1.124-10.487 3.373-14.701c2.249-4.238 5.481-7.529 9.695-9.873 4.214-2.367 9.28-3.551 15.199-3.551 5.35 0 9.978.971 13.885 2.912 3.93 1.918 6.972 4.64 9.126 8.168 2.154 3.504 3.243 7.623 3.267 12.358h-18.182c-.26-2.865-1.089-5.043-2.486-6.534-1.373-1.515-3.148-2.273-5.326-2.273-1.705 0-3.196.497-4.475 1.491-1.278.971-2.272 2.451-2.983 4.439-.71 1.965-1.065 4.439-1.065 7.422 0 2.983.355 5.469 1.065 7.458.711 1.965 1.705 3.444 2.983 4.439 1.279.97 2.77 1.456 4.475 1.456 1.444 0 2.722-.332 3.835-.995 1.113-.686 2.012-1.681 2.699-2.983.71-1.325 1.136-2.935 1.278-4.829h18.182c-.071 4.806-1.172 8.996-3.302 12.571-2.131 3.551-5.15 6.297-9.056 8.238-3.882 1.942-8.523 2.912-13.92 2.912Zm112.402 0c-5.919 0-10.985-1.172-15.199-3.515-4.214-2.368-7.445-5.658-9.694-9.872-2.249-4.238-3.374-9.151-3.374-14.738s1.125-10.487 3.374-14.701c2.249-4.238 5.48-7.529 9.694-9.873 4.214-2.367 9.28-3.551 15.199-3.551 5.919 0 10.985 1.184 15.199 3.551 4.214 2.344 7.445 5.635 9.694 9.873 2.25 4.214 3.374 9.114 3.374 14.701s-1.124 10.5-3.374 14.738c-2.249 4.214-5.48 7.504-9.694 9.872-4.214 2.343-9.28 3.515-15.199 3.515Zm.142-14.488c1.657 0 3.09-.557 4.297-1.669 1.207-1.113 2.142-2.699 2.805-4.759.663-2.06.995-4.51.995-7.351 0-2.864-.332-5.315-.995-7.351-.663-2.059-1.598-3.645-2.805-4.758s-2.64-1.669-4.297-1.669c-1.752 0-3.255.556-4.51 1.669s-2.213 2.699-2.876 4.758c-.663 2.036-.995 4.487-.995 7.351 0 2.841.332 5.291.995 7.351.663 2.06 1.621 3.646 2.876 4.759 1.255 1.112 2.758 1.669 4.51 1.669ZM971.929 295v-54.545h19.034v10.369h.568c.994-3.835 2.569-6.641 4.723-8.416 2.178-1.776 4.726-2.664 7.636-2.664.85 0 1.69.071 2.52.213.85.119 1.67.296 2.45.533v16.726c-.97-.332-2.17-.58-3.59-.746-1.42-.166-2.64-.248-3.65-.248-1.921 0-3.65.438-5.189 1.314-1.515.852-2.71 2.059-3.586 3.622-.876 1.538-1.314 3.35-1.314 5.433V295h-19.602Zm82.881-30.682V295h-19.6v-54.545h18.61v10.369h.57c1.18-3.457 3.26-6.167 6.25-8.132 3-1.965 6.51-2.948 10.51-2.948 3.86 0 7.21.888 10.05 2.664 2.86 1.752 5.08 4.166 6.64 7.244 1.58 3.078 2.37 6.593 2.34 10.547V295h-19.6v-30.682c.02-2.699-.66-4.818-2.06-6.356-1.37-1.539-3.29-2.309-5.75-2.309-1.61 0-3.02.356-4.23 1.066-1.18.686-2.09 1.681-2.73 2.983-.64 1.278-.97 2.817-1 4.616Zm71.33 31.676c-5.92 0-10.99-1.172-15.2-3.515-4.22-2.368-7.45-5.658-9.7-9.872-2.25-4.238-3.37-9.151-3.37-14.738s1.12-10.487 3.37-14.701c2.25-4.238 5.48-7.529 9.7-9.873 4.21-2.367 9.28-3.551 15.2-3.551s10.98 1.184 15.2 3.551c4.21 2.344 7.44 5.635 9.69 9.873 2.25 4.214 3.37 9.114 3.37 14.701s-1.12 10.5-3.37 14.738c-2.25 4.214-5.48 7.504-9.69 9.872-4.22 2.343-9.28 3.515-15.2 3.515Zm.14-14.488c1.66 0 3.09-.557 4.3-1.669 1.2-1.113 2.14-2.699 2.8-4.759.66-2.06 1-4.51 1-7.351 0-2.864-.34-5.315-1-7.351-.66-2.059-1.6-3.645-2.8-4.758-1.21-1.113-2.64-1.669-4.3-1.669-1.75 0-3.26.556-4.51 1.669-1.26 1.113-2.21 2.699-2.88 4.758-.66 2.036-.99 4.487-.99 7.351 0 2.841.33 5.291.99 7.351.67 2.06 1.62 3.646 2.88 4.759 1.25 1.112 2.76 1.669 4.51 1.669Zm68.61-41.051v14.204h-35.94v-14.204h35.94Zm-28.98-13.069h19.6v50.071c0 .758.13 1.397.39 1.918.26.497.67.876 1.21 1.136.54.237 1.24.355 2.09.355.6 0 1.28-.071 2.06-.213.81-.142 1.4-.26 1.78-.355l2.84 13.779c-.87.26-2.13.58-3.76.959-1.61.378-3.53.627-5.76.745-4.49.237-8.27-.225-11.32-1.385-3.06-1.183-5.35-3.042-6.89-5.575-1.54-2.533-2.29-5.705-2.24-9.517v-51.918Zm89.43 13.069v14.204h-35.94v-14.204h35.94Zm-28.98-13.069h19.6v50.071c0 .758.13 1.397.39 1.918.26.497.66.876 1.21 1.136.54.237 1.24.355 2.09.355.6 0 1.28-.071 2.06-.213.81-.142 1.4-.26 1.78-.355l2.84 13.779c-.88.26-2.13.58-3.76.959-1.61.378-3.53.627-5.76.745-4.49.237-8.27-.225-11.32-1.385-3.06-1.183-5.36-3.042-6.89-5.575-1.54-2.533-2.29-5.705-2.24-9.517v-51.918Zm62.67 68.608c-5.92 0-10.99-1.172-15.2-3.515-4.22-2.368-7.45-5.658-9.7-9.872-2.25-4.238-3.37-9.151-3.37-14.738s1.12-10.487 3.37-14.701c2.25-4.238 5.48-7.529 9.7-9.873 4.21-2.367 9.28-3.551 15.2-3.551s10.98 1.184 15.2 3.551c4.21 2.344 7.44 5.635 9.69 9.873 2.25 4.214 3.37 9.114 3.37 14.701s-1.12 10.5-3.37 14.738c-2.25 4.214-5.48 7.504-9.69 9.872-4.22 2.343-9.28 3.515-15.2 3.515Zm.14-14.488c1.66 0 3.09-.557 4.3-1.669 1.2-1.113 2.14-2.699 2.8-4.759.66-2.06 1-4.51 1-7.351 0-2.864-.34-5.315-1-7.351-.66-2.059-1.6-3.645-2.8-4.758-1.21-1.113-2.64-1.669-4.3-1.669-1.75 0-3.26.556-4.51 1.669-1.26 1.113-2.21 2.699-2.88 4.758-.66 2.036-.99 4.487-.99 7.351 0 2.841.33 5.291.99 7.351.67 2.06 1.62 3.646 2.88 4.759 1.25 1.112 2.76 1.669 4.51 1.669ZM519.1 443.7v-9.5c1.8-2.7 3.5-5.5 5.1-8.3H555V411h-87.8v14.9h37.7c-9 14.6-23.7 29.1-41.2 37.1 3.1 3.3 7.7 9.4 10 13.3 11-5.7 20.9-13.4 29.4-22.2v45.2h16v-49c10 8.4 22.1 19 27.7 26.1l12.5-11.2c-7.2-8.1-22.7-19.8-32.8-27.7l-7.4 6.2Zm90.5.2h9v7h-9v-7Zm32.5 0v7H633v-7h9.1Zm13.9 18.7v-30.4h-23v-5.5h25.3v-13.1H633v-8.3h-14.4v8.3h-21.9c.7-1.7 1.4-3.3 2.1-5l-13.5-4.4c-5.2 13.8-14.2 27.6-23.4 36.3 2.4 3.6 6.2 11.6 7.4 15.1 2.3-2.2 4.5-4.7 6.7-7.5v51.5h13.8v-72.2c1.8-3.2 3.5-6.4 5-9.7v9h23.8v5.5h-22.1v30.4h21.4c-.6 3.2-1.4 6.1-2.8 8.9-2.9-2.5-5.4-5.3-7.4-8.4l-11.8 3.5c3.2 5.4 6.8 10.1 11.1 14.1-4.1 2.8-9.5 5-16.7 6.5 3.1 3 7.4 8.9 9.1 12.1 8.3-2.5 14.6-5.9 19.4-10 8.9 5 19.8 8.2 32.9 9.9 1.8-3.9 5.5-9.8 8.5-12.9-13-1.1-24.1-3.5-32.9-7.4 2.7-4.9 4.2-10.4 5-16.3H656Zm63.7-5.3v-9.9h17.8v9.9h-17.8Zm-31.1 0c.2-3.5.3-6.8.3-9.9H705v9.9h-16.4Zm16.4-32.5v9.1h-16.1v-9.1H705Zm32.5 9.1h-17.8v-9.1h17.8v9.1ZM752 411h-77.5v35.7c0 14.1-.8 32.1-11.7 44 3.2 1.8 9.2 6.7 11.5 9.4 7-7.5 10.8-18.2 12.7-29.1h18v27.1h14.7V471h17.8v12c0 1.7-.7 2.3-2.5 2.3s-8.3.1-13.2-.3c1.9 3.7 4.1 10 4.6 13.9 8.9.1 15.1-.2 19.7-2.5 4.4-2.2 5.9-6 5.9-13.2V411Zm94.186 19.4c2.9-3.6 5.3-7.2 7.5-10.6 3.5 3.1 7.2 7 10.1 10.6h-17.6Zm30.1 30.1v-12.9h-15.8V443h10.2v-9.2l8.2-9.7c-4.7-6.2-14-14.1-21.2-19.6h-12.1c-3.9 9.3-10.8 20.1-21.2 28.2 3 2.2 7.4 7.4 9.3 10.7l3.6-3.3v2.9h9.5v4.6h-17.8v12.9h17.8v24.6c0 1.1-.4 1.4-1.5 1.4-1 0-3.5 0-6-.1 2.7-5.9 5.4-13.6 7-20.6l-12.7-3c-1.5 7.6-4.4 16-7.8 21.4 3.1 1.5 8.5 4.8 11.1 6.8.5-.8 1-1.7 1.4-2.6 1.5 3.5 2.8 8.1 3.2 11.3 6.1 0 10.7-.4 14.4-2.6 3.7-2.1 4.6-5.7 4.6-11.8v-24.8h15.8Zm-15.8 5.7c2.7 6.9 5.5 15.8 6.4 21.4l11.7-4.7c-1.1-5.5-4.2-14.1-7.1-20.7l-11 4Zm61.8 4.6-3-13.5-6 1.3v-53.8h-14.2v17.4c-3.1-3.6-7.4-7.6-10.9-10.6l-9.9 7.6c4.8 4.5 10.7 10.9 13.1 15.2l7.7-6.2v20.2c-3.3-4-9.4-9.1-14.2-12.5l-9.4 8.1c5.1 4.1 11.5 10.2 14.1 14.3l9.5-8.4v11.8l-23.1 5.1 3.1 13.8 20-4.5v23.2h14.2v-26.5l9-2Zm71.8-.1v-21.1c2.7 7.5 5.8 14.7 9.304 21.1h-9.304Zm-23.2 0c3.3-6 6.4-12.7 9-19.7v19.7h-9Zm49.604-35.9V421h-26.404v-15.9h-14.2V421h-23.8v13.8h17.6c-5.2 14.9-13.5 29.7-22.9 38.9v-46.4c2.9-6.1 5.4-12.2 7.5-18.2l-13.7-4.2c-4.4 13.7-12 27.5-20.1 36.3 2.5 3.6 6.4 11.8 7.7 15.3 1.6-1.8 3.2-3.8 4.8-5.9v48.8h13.8v-24.2c3.2 2.6 7.4 7.2 9.6 10.3 2.9-3.2 5.7-6.9 8.2-11v9.1h11.3v15.1h14.2v-15.1h11.904v-8.3c2.2 3.7 4.5 7 6.9 9.9 2.5-3.8 7.4-8.8 10.8-11.3-9.2-9.3-17.7-24.4-23-39.1h19.8Zm23.9-7.7h58.4v13.7h15.1v-27.4h-36.2v-8.8h-15.6v8.8h-36v27.4h14.3v-13.7Zm74 30.9h-36c7.8-5.1 14.7-11.9 20-18.1l-9.3-7.2-3.3.7h-42.2v13.1h30c-2.1 2.1-4.4 4.1-6.8 5.8h-4.7v5.7h-36v13.8h36v11c0 1.4-.6 1.8-2.7 1.8-2.1.1-10.3 0-16-.3 2.4 4 5.3 10.6 6.2 15 8.3 0 15.3-.3 20.8-2.4 5.6-2.2 7.3-6.1 7.3-13.6v-11.5h36.7V458Zm-26.58 191.7c0-22.7-16.1-40.3-41.6-40.3-26.7 0-47.2 20.2-47.2 44 0 17.1 9.4 30.5 21.8 30.5 11.8 0 20.8-13.4 26.7-33.4 2.8-9.3 4.6-18 5.9-26.1 11.5 2.7 17.8 11.9 17.8 24.8 0 13.2-8.5 22.1-21.2 25.2-2.9.7-5.6 1.3-9.8 1.8l9.2 14.4c26-4.4 38.4-19.8 38.4-40.9Zm-73.1 2.1c0-9.5 7.4-23 22.2-27-1.2 7.8-2.9 15.7-5.1 22.5-3.6 11.6-6.6 17.7-10.6 17.7-3.5 0-6.5-4.5-6.5-13.2Zm223.83-36.1c-2.5-4.8-8.3-11.5-13.1-16.2l-11 6.7c4.7 5.1 10.2 12.2 12.3 16.9l11.8-7.4Zm-69-15.5c-5.9 14.7-16.1 29.3-26.5 38.3 2.5 3.6 6.6 11.5 8 15 2.9-2.7 5.8-5.9 8.7-9.3v50.1h15.1v-72.2c3.3-5.7 6.2-11.6 8.6-17.3l-13.9-4.6Zm70.3 38.2-2-13.8-27.8 3.8c-.6-8.4-.9-17.6-1-27.3h-14.8c.3 10.6.7 20.4 1.4 29.3l-18 2.5 2.1 14 17.2-2.4c3.6 30.2 11.4 47.9 28.7 49.7 5.8.4 12-3.9 14.8-24.5-2.6-1.4-9.1-5.3-11.9-8.4-.6 10.7-1.6 15.4-3.6 15.2-6.6-1.1-11.1-14.2-13.5-34.1l28.4-4Zm29.88-25.6c0 1-.1 3.5-.3 6.7-3.8.5-7.4.9-10.1 1.1-4.2.2-6.7.2-9.9.1l1.5 15.4c5.2-.7 12.3-1.6 17.5-2.2-.1 1.8-.3 3.6-.4 5.4-6 8.6-15.4 20.6-21 27.6l9.4 13.3c2.8-3.7 6.8-9.7 10.6-15.3-.2 6.3-.3 11.6-.4 17.6 0 1.6-.1 5.7-.3 8.3h16.6c-.3-2.5-.7-6.8-.8-8.6-.7-9.6-.7-19.4-.7-27 0-2.1 0-4.3.1-6.6 8-7.1 16.6-11.8 26.7-11.8 8.2 0 14.6 5.5 14.6 13.4 0 14.7-11.1 21.4-29 24.2l7.2 14.6c26.5-5.3 38.1-18.2 38.1-38.5 0-16.4-12.1-27.9-28.3-27.9-8.6 0-18.4 2.4-28.1 9.1.1-.3.1-.6.1-1 1.8-2.6 4.1-6.2 5.4-7.9l-3.8-5.1c.8-6 1.6-11.1 2.3-14.2l-17.5-.5c.6 3.4.5 6.6.5 9.8Zm101.83-8.9-16.5-.7c0 2.7-.3 7.3-.8 11.5-1.6 11.6-2.6 22.6-2.6 31.9 0 6.8.7 13.2 1.3 17.1l14.9-1c-.5-4.4-.6-7.5-.6-9.6 0-13.2 9.7-30.7 21.1-30.7 7.1 0 12.2 7 12.2 22.2 0 23.7-14.9 30.2-37.4 33.7l9.2 14.1c27.5-5.1 44.7-19.2 44.7-47.8 0-22.6-11.5-36.4-25.8-36.4-10.4 0-18.2 6.2-23.4 12.5.6-4.8 2.7-13.3 3.7-16.8Zm94.79 9.8.1 15.5c13.4 1.2 30.9 1.1 44 0v-15.6c-11.2 1.2-31 1.7-44.1.1Zm10.3 43.8-13.8-1.2c-1.2 5.2-1.8 9.4-1.8 13.7 0 10.7 8.7 17.2 26.2 17.2 11.8 0 19.7-.7 26.3-1.9l-.3-16.4c-9.1 1.9-16.3 2.7-25.2 2.7-8.2 0-12.4-1.7-12.4-6.1 0-2.6.3-4.8 1-8Zm-23.6-49.9-16.9-1.4c-.1 3.8-.8 8.3-1.2 11.3-1 7.4-3.9 24.1-3.9 39.4 0 13.6 2 26.2 4 32.9l14-.9c-.1-1.6-.1-3.4-.1-4.5 0-.9.3-3.3.6-4.8 1.1-5.6 4.2-16.6 7.2-25.7l-7.3-5.8c-1.3 2.9-2.5 4.9-3.9 7.7-.1-.4-.1-2-.1-2.3 0-9.3 3.7-30.5 4.8-35.7.4-1.8 1.9-7.9 2.8-10.2ZM526.8 795.4v94.4H543v-94.4h-16.2Zm-34.9 6.3c-14.4 0-25.1 13-25.1 34s10.7 34 25.1 34c14.4 0 25.1-13 25.1-34s-10.7-34-25.1-34Zm0 14.7c5.8 0 9.6 6.1 9.6 19.3 0 13.2-3.8 19.3-9.6 19.3s-9.6-6.1-9.6-19.3c0-13.2 3.8-19.3 9.6-19.3Zm125.092 9.6h4.7v18.8h15.3v-49.1h-15.3v17.7h-4.7V797h-15v47.3h15V826Zm-19.1 3.3c-7.8 1.2-14.7 1.6-23.2 1.7v-3.9h20.8v-11.7h-20.8v-3.5h21.7v-12.3h-37.2v43.8h6.8c13.4 0 22.6-.2 33.2-2l-1.3-12.1Zm-9.6 47.7v-3.1h48.7v-26.3h-64.8v12.1h48.8v3h-48.7v26.4h66.9V877h-50.9Zm116.792-41.9c-10.9 1.8-21.1 2.3-35.7 2.4v-6.4h27.5v-30.5h-43.6v12.7h27.6v5.9h-27.5v31.1h8.5c19.5 0 32-.3 45-2.5l-1.8-12.7Zm-42.7 34.6h48.5v19.8h16.2V857h-64.7v12.7Zm48.5-74.1v57.9h16.2v-57.9h-16.2Zm133.73 23.5h18.6v-12.9h-34.5v63.1h6.8c10.9 0 21-.3 32.6-2.3l-1.2-13c-7.9 1.3-15.2 1.9-22.3 2.1v-37Zm47.6-23.5V831h-5.9v-33.9h-15v88.1h15v-41.4h5.9v45.5h15.3v-93.7h-15.3Zm104.792.1h-16.2v68.2h16.2v-68.2Zm-20.5 41.9c-16.1-4.9-20.9-16.6-20.9-27.9v-8.9h-16.5v8.9c0 11.4-5.2 24.1-21.8 29.3l8.2 12.9c10.8-3.4 17.8-10.3 21.9-18.8 4.1 7.8 10.8 14 21 17.2l8.1-12.7Zm-27.1 37.8v-18.1h-16.2v30.8h66v-12.7h-49.8ZM1094.58 856c-3.9 0-5.9-5.7-5.9-19.6 0-13.9 2-19.6 5.9-19.6 4 0 6 5.7 6 19.6 0 13.9-2 19.6-6 19.6Zm25.3-26.9h-5c-1.7-17.4-9.2-27.6-20.3-27.6-12.5 0-20.5 13-20.5 34.9s8 34.9 20.5 34.9c11.5 0 19.1-10.9 20.4-29.3h4.9v43.5h15v-88.7h-15v32.3Zm19.4-33.6v93.8h15.3v-93.8h-15.3Zm52.55 5.9v12.7h27.2c-2.2 11-12.5 20.3-31.8 25.3l6.5 12.9c27.9-7.6 43-25.1 43-50.9h-44.9Zm40 75.9c-10.3 0-16.1-2.3-16.1-7.3 0-5.1 5.8-7.4 16.1-7.4 10.2 0 16 2.3 16 7.4 0 5-5.8 7.3-16 7.3Zm0-27.1c-19.1 0-32.1 7.7-32.1 19.8 0 12 13 19.7 32.1 19.7 19 0 32-7.7 32-19.7 0-12.1-13-19.8-32-19.8Zm31-33.9v-20.7h-16.2v53.3h16.2v-19.5h11.7v-13.1h-11.7Zm26.59 34.9c16.9-2.9 27.7-10.5 33.4-20.5 5.7 9.8 16.7 17.1 33.8 19.9l6.1-12.7c-21-3-29.3-12.8-31.1-23.2h26.3v-12.6h-70.5v12.6h26.3c-1.7 10.5-10 20.7-30.6 23.7l6.3 12.8Zm41.5 15.1v-19.7h-16.2v19.7h-34.4v12.9h85v-12.9h-34.4Z"/><path fill="#1A73E8" d="m876.705 285.057-.284 3.977c-.237 3.409-.805 6.676-1.705 9.801-.876 3.125-1.811 5.895-2.805 8.31a289.137 289.137 0 0 1-2.308 5.611h-12.074c.379-1.326.911-3.244 1.598-5.753.71-2.486 1.349-5.303 1.917-8.452.592-3.125.888-6.297.888-9.517v-3.977h14.773Zm459.195 11.079c-2.74 0-5.1-.958-7.06-2.876-1.95-1.941-2.9-4.297-2.88-7.067-.02-2.699.93-5.007 2.88-6.925 1.96-1.917 4.32-2.876 7.06-2.876 2.61 0 4.9.959 6.89 2.876 2.01 1.918 3.03 4.226 3.06 6.925-.03 1.847-.51 3.528-1.46 5.043a10.686 10.686 0 0 1-3.62 3.586 9.456 9.456 0 0 1-4.87 1.314ZM778.5 452.6c5.3 0 9.1-3.8 9.1-9.7 0-5.4-4.1-8.8-9.1-8.8-.4 0-.7 0-1.1.1 0-6.6 3.4-11.1 10.5-14.4l-3.8-7.8c-11.4 5.6-16.9 14-16.9 25 0 9.9 3.9 15.6 11.3 15.6Zm28 0c5.3 0 9.1-3.8 9.1-9.7 0-5.4-4.1-8.8-9.1-8.8-.4 0-.7 0-1.1.1 0-6.6 3.4-11.1 10.5-14.4l-3.8-7.8c-11.4 5.6-16.9 14-16.9 25 0 9.9 3.9 15.6 11.3 15.6Zm329.69-1.7c11.3-5.5 16.8-14.1 16.8-25.1 0-9.7-3.8-15.4-11.2-15.4-5.3 0-9.2 3.7-9.2 9.6 0 5.4 4.1 8.8 9.2 8.8.4 0 .7 0 1.1-.1 0 6.7-3.5 11.1-10.6 14.5l3.9 7.7Zm28 0c11.3-5.5 16.8-14.1 16.8-25.1 0-9.7-3.8-15.4-11.2-15.4-5.3 0-9.2 3.7-9.2 9.6 0 5.4 4.1 8.8 9.2 8.8.4 0 .7 0 1.1-.1 0 6.7-3.5 11.1-10.6 14.5l3.9 7.7ZM777.328 842.6c5.3 0 9.1-3.8 9.1-9.7 0-5.4-4.1-8.8-9.1-8.8-.4 0-.7 0-1.1.1 0-6.6 3.4-11.1 10.5-14.4l-3.8-7.8c-11.4 5.6-16.9 14-16.9 25 0 9.9 3.9 15.6 11.3 15.6Zm28 0c5.3 0 9.1-3.8 9.1-9.7 0-5.4-4.1-8.8-9.1-8.8-.4 0-.7 0-1.1.1 0-6.6 3.4-11.1 10.5-14.4l-3.8-7.8c-11.4 5.6-16.9 14-16.9 25 0 9.9 3.9 15.6 11.3 15.6ZM1019 840.9c11.3-5.5 16.8-14.1 16.8-25.1 0-9.7-3.8-15.4-11.2-15.4-5.3 0-9.2 3.7-9.2 9.6 0 5.4 4.1 8.8 9.2 8.8.4 0 .7 0 1.1-.1 0 6.7-3.5 11.1-10.6 14.5l3.9 7.7Zm28 0c11.3-5.5 16.8-14.1 16.8-25.1 0-9.7-3.8-15.4-11.2-15.4-5.3 0-9.2 3.7-9.2 9.6 0 5.4 4.1 8.8 9.2 8.8.4 0 .7 0 1.1-.1 0 6.7-3.5 11.1-10.6 14.5l3.9 7.7Z"/><path fill="#FF6D7F" d="M509.965 599.5h-34V663h14.3v-50.5h19.7v-13Zm3.005 45.1 7.5 15.3c11.6-3.3 23.7-8.4 33.8-13.5v29.3c0 4.8-.4 11.8-.8 14.5h19.2c-.8-2.8-1-9.7-1-14.5v-39.4c9.5-6.3 19.2-14.1 26.7-21.4l-13.1-12.5c-6.3 7.6-18.5 18.4-28.6 24.6-11.2 6.8-25.5 13-43.7 17.6Zm139.64-39.2-17.5-5.4c-1.1 3.9-3.5 9.1-5.3 11.9-5.3 8.4-14 21.4-31.7 32.3l13.1 10.1c9.4-6.5 19-16.1 26.3-25.6h25.7c-1.3 5.2-5.1 12.6-9.5 19-5.8-3.8-11.6-7.4-16.2-10.1l-10.8 11.1c4.5 2.9 10.4 7 16.4 11.4-7.7 7.6-18.2 15.1-35.4 20.5l14.1 12.2c14.8-5.7 25.8-13.8 34.4-22.7 4.1 3.3 7.7 6.4 10.3 8.8l11.6-13.8c-2.8-2.2-6.7-5.1-11-8.2 6.9-9.8 11.7-20 14.3-27.4 1.1-3 2.6-6 3.9-8.2l-12.2-7.6c-2.6.8-6.6 1.3-9.9 1.3h-16.6c1.5-2.6 3.8-6.5 6-9.6Zm111.381 1h-18.3c.4 3 .7 6.4.7 10.8v20.7c0 13.8-1.4 20.9-8.1 28-6 6.2-13.8 9.9-24.2 12.2l12.7 13.4c7.3-2.3 17.8-7.4 24.5-14.4 7.6-8 12.3-18 12.3-38.1v-21.8c0-4.4.2-7.8.4-10.8Zm-46.3.9h-17.5c.3 2.5.4 6 .4 7.9v33.9c0 3.1-.4 7.4-.5 9.4h17.6c-.2-2.6-.4-6.8-.4-9.3v-34c0-3.6.2-5.4.4-7.9Zm99.208 17.3-14.4 4.7c2.7 5.6 6.9 17.4 8.3 22.4l14.5-5c-1.5-4.7-6.4-17.7-8.4-22.1Zm37.3 8.2-17.1-5.5c-.9 12.4-5.6 26-12.2 34.3-8.3 10.5-22.9 18.1-33.5 20.8l12.7 13c12-4.6 24.6-13.3 33.9-25.5 6.6-8.6 10.8-18.8 13.4-28.4.7-2.4 1.4-4.8 2.8-8.7Zm-60.5-2.8-14.6 5.2c2.7 4.8 7.5 17.9 9.2 23.3l14.8-5.5c-2-5.8-6.6-17.4-9.4-23Zm121.232-23.2-17.7-5.8c-1.1 3.9-3.5 9.1-5.3 11.9-5.3 8.4-13.4 20.4-31.1 31.3l13.6 10.1c9.2-6.4 18.1-15 25.2-23.9h24.9c-1.3 6.5-6.9 18-13.2 25-8.5 9.5-18.9 18-40.5 24.6l14.4 12.8c18.8-7.7 30.9-16.9 40.6-28.8 9.2-11.3 14.6-24.5 17.3-32.8 1-3 2.6-6 3.9-8.2l-12.3-7.6c-2.6.8-6.6 1.3-9.9 1.3h-16.1c1.5-2.6 3.9-6.7 6.2-9.9Zm34.214 87.7h34V631h-14.3v50.5h-19.7v13Zm179.565-29v-47h17v-19h-37.5v66h20.5Zm-15.5-5v-56h27.5v9h-17v47h-10.5Zm427.93-32v47h-17v19h37.5v-66h-20.5Zm15.5 5v56h-27.5v-9h17v-47h10.5Z"/><path stroke="#1A73E8" stroke-width="8" d="M759 906h306"/><circle cx="1200.5" cy="562.5" r="12.5" fill="#FF6D7F"/><circle cx="1293.5" cy="562.5" r="12.5" fill="#FF6D7F"/><circle cx="1386.5" cy="562.5" r="12.5" fill="#FF6D7F"/><circle cx="1479.5" cy="562.5" r="12.5" fill="#FF6D7F"/></svg>