<svg xmlns="http://www.w3.org/2000/svg" width="1920" height="1080" fill="none"><path fill="#3C4043" d="M1517.52 395.48c0-5.52 3.6-8.24 8.16-8.24 4.64 0 8.24 2.72 8.24 8.24 0 5.44-3.6 8.24-8.24 8.24-4.56 0-8.16-2.8-8.16-8.24Zm29.04 0c0-11.2-9.2-19.36-20.88-19.36-11.6 0-20.8 8.16-20.8 19.36 0 11.12 9.2 19.36 20.8 19.36 11.68 0 20.88-8.24 20.88-19.36ZM1528 420.12h-12.96v25.36h51.6v-10.16H1528v-15.2Zm36.4-27.76v-20.8h-12.96v54.16h12.96v-22.88h9.36v-10.48h-9.36Zm64.47 23.6h12.96V371.4h-12.96v5.6h-16.08v9.68h16.08v3.12h-16.08v9.68h16.08v16.48Zm-8.24-14.4c-8.08 1.44-15.52 1.92-25.12 2.08v-28.72h-12.88v39.04h6.4c13.28 0 22.88-.32 33.04-2.24l-1.44-10.16Zm-4.56 35.28c-8.96 0-13.2-1.36-13.2-4.96 0-3.52 4.24-4.88 13.2-4.88 8.88 0 13.12 1.36 13.12 4.88 0 3.6-4.24 4.96-13.12 4.96Zm0-19.76c-16.08 0-26.16 5.44-26.16 14.8 0 9.44 10.08 14.88 26.16 14.88 16 0 26.08-5.44 26.08-14.88 0-9.36-10.08-14.8-26.08-14.8Zm-45.04 107.12h21.76v-10h-21.76v-10.48h22.48V493.4h-35.44v52.8h6.48c12.32 0 22.72-.24 34-1.84l-1.12-10.24c-9.12 1.36-17.2 1.76-26.4 1.84V524.2Zm53.76-9.12h-10.08v-27.6h-12.96v75.12h12.96v-36.96h10.08v-10.56Zm53.99-27.52v40.4h12.96v-40.4h-12.96Zm-37.84 43.36v30.88h50.8v-30.88h-12.8v5.84h-25.2v-5.84h-12.8Zm12.8 15.6h25.2v5.12h-25.2v-5.12Zm-3.2-56.16c-11.84 0-20.88 7.52-20.88 17.92 0 10.48 9.04 18 20.88 18s20.88-7.52 20.88-18c0-10.4-9.04-17.92-20.88-17.92Zm0 10.56c4.8 0 8.24 2.48 8.24 7.36 0 4.96-3.44 7.44-8.24 7.44-4.8 0-8.24-2.48-8.24-7.44 0-4.88 3.44-7.36 8.24-7.36Zm75.92-8.64c-11.76 0-20.96 8-20.96 18.88 0 10.96 9.2 18.96 20.96 18.96 11.84 0 21.04-8 21.04-18.96 0-10.88-9.2-18.88-21.04-18.88Zm0 10.96c4.72 0 8.4 2.64 8.4 7.92 0 5.36-3.68 8-8.4 8-4.64 0-8.32-2.64-8.32-8 0-5.28 3.68-7.92 8.32-7.92Zm26.56-15.84v75.36h12.96V487.4h-12.96Zm-48.8 60.8c12.8 0 30-.24 46-3.44l-.88-9.2c-15.6 2.16-33.6 2.32-46.56 2.32l1.44 10.32Zm-174.46 61.6h-12.56v11.68c0 12.64-2.64 26.08-14.08 33.12l7.68 9.68c6.16-3.84 10.16-9.92 12.64-17.28 2.32 6.56 5.92 12.08 11.68 15.6l6.88-10.08c-10.4-7.04-12.24-19.36-12.24-31.68V609.8Zm12.4 18.16h-7.76v10.32h7.76v37.2h12v-70.96h-12v23.44Zm15.28-24.48v75.04h12.24v-75.04h-12.24Zm58.15 19.28h-5.28c.4-3.44.56-6.96.56-10.72h-29.28v10.16h16.56c-1.36 14.08-7.2 23.52-21.36 32.08l7.2 9.04c14-8.16 21.2-18.16 24.56-30.4h7.04v8.48h-8.64v10.24h8.64v23.84h12V605h-12v17.76Zm15.68-19.28v74.96h12.24v-74.96h-12.24Zm61.2 56.96v-9.76h22v-10.16h-42.16v-6.32h40.48v-26.24h-53.36v10.16h40.56v6.16h-40.48v26.4h20v9.76h-27.44v10.4h67.92v-10.4h-27.52Z"/><path fill="#1A73E8" d="M1656.31 457.16c11.12-3.36 17.04-11.12 17.04-21.44 0-8.32-3.44-13.28-9.68-13.28-4.96 0-8.88 3.2-8.88 8 0 5.12 4.08 8 8.48 8h.72c.08 4.4-3.6 8.72-10.56 11.12l2.88 7.6ZM1516 525.08c4.24 0 7.28-3.04 7.28-7.76 0-4.32-3.28-7.04-7.28-7.04-.32 0-.56 0-.88.08 0-5.28 2.72-8.88 8.4-11.52l-3.04-6.24c-9.12 4.48-13.52 11.2-13.52 20 0 7.92 3.12 12.48 9.04 12.48Zm22.4 0c4.24 0 7.28-3.04 7.28-7.76 0-4.32-3.28-7.04-7.28-7.04-.32 0-.56 0-.88.08 0-5.28 2.72-8.88 8.4-11.52l-3.04-6.24c-9.12 4.48-13.52 11.2-13.52 20 0 7.92 3.12 12.48 9.04 12.48Zm244.53-1.36c9.04-4.4 13.44-11.28 13.44-20.08 0-7.76-3.04-12.32-8.96-12.32-4.24 0-7.36 2.96-7.36 7.68 0 4.32 3.28 7.04 7.36 7.04.32 0 .56 0 .88-.08 0 5.36-2.8 8.88-8.48 11.6l3.12 6.16Zm22.4 0c9.04-4.4 13.44-11.28 13.44-20.08 0-7.76-3.04-12.32-8.96-12.32-4.24 0-7.36 2.96-7.36 7.68 0 4.32 3.28 7.04 7.36 7.04.32 0 .56 0 .88-.08 0 5.36-2.8 8.88-8.48 11.6l3.12 6.16Zm-68.47 148.4c4.88 0 8.48-3.92 8.48-8.88 0-4.96-3.6-8.8-8.48-8.8-4.96 0-8.48 3.84-8.48 8.8 0 4.96 3.52 8.88 8.48 8.88Z"/><path fill="#3C4043" d="M1081.05 426.2c0-2.96 3.2-4.64 8.32-4.64 2 0 4 .16 5.92.48v1.44c0 5.2-1.36 7.2-6.08 7.2-4.4 0-8.16-.88-8.16-4.48Zm26.72-54.08h-14.56c.56 2.24.8 5.6.96 10.16.08 3.44.16 7.12.16 12.08 0 3.92.24 10.48.56 16.64-1.2-.08-2.48-.16-3.68-.16-15.12 0-22.8 6.96-22.8 16 0 11.76 10.08 15.68 21.76 15.68 14.96 0 18.4-7.36 18.4-14.8v-1.12c6.32 3.36 11.76 7.84 15.92 12l7.44-11.52c-5.36-5.12-13.92-10.56-24.08-13.68-.32-5.2-.64-10.72-.8-15.12 6.4-.16 15.44-.48 21.92-1.04l-.48-11.52c-6.32.64-15.28.96-21.6 1.12 0-1.52 0-3.04.08-4.56.16-3.52.4-7.52.8-10.16Zm74.29 38.96c0 11.52-12.24 17.36-32.32 19.52l6.88 12.16c23.12-3.04 39.2-14.16 39.2-31.2 0-13.12-9.12-20.8-22.48-20.8-9.52 0-18.4 2.16-24.4 3.52-2.72.56-6.56 1.2-9.52 1.44l3.6 13.76c2.48-.96 6.08-2.4 8.32-3.04 3.68-1.12 11.68-3.84 20.24-3.84 7.12 0 10.48 4 10.48 8.48Zm-30.24-39.76-1.84 11.6c9.28 1.6 27.36 3.2 36.96 3.84l1.92-11.92c-8.8 0-27.44-1.52-37.04-3.52Zm60.01 6.4v12.88c6.64.48 13.68.88 22.24.88 7.76 0 18.32-.48 24-.96v-12.96c-6.32.64-16.08 1.12-24.08 1.12-8.64 0-16.16-.32-22.16-.96Zm8.72 34.8-12.72-1.12c-.56 2.88-1.6 6.88-1.6 11.76 0 11.52 9.12 18.08 28.56 18.08 11.12 0 20.4-.96 28.08-2.64l-.08-13.76c-7.68 2-17.84 3.2-28.48 3.2-10.8 0-14.96-3.44-14.96-7.92 0-2.56.56-4.88 1.2-7.6Zm63.52-37.6.56 12.32c2.96-.32 5.84-.64 7.76-.8 3.2-.32 10.72-.72 13.84-.96-4.88 4.4-14.08 12.32-20.32 16.24-4.24.48-9.92 1.2-14.16 1.6l1.12 11.76c7.2-1.28 15.12-2.48 21.76-2.96-2.32 2.88-3.84 7.36-3.84 11.2 0 13.92 12.64 20.16 33.68 19.28l2.56-12.8c-3.04.24-8.24.24-12.56-.16-7.12-.72-11.2-3.04-11.2-8.4 0-6 5.28-10.4 12.32-11.36 4.96-.64 13.2-.56 20.8-.08l-.08-11.44c-8.72 0-21.36.72-31.28 1.68 4.96-3.84 10.72-8.72 16.32-13.04 1.92-1.6 5.44-3.92 7.44-5.2l-7.6-8.96c-1.2.4-3.2.8-6.24 1.12-5.04.56-19.2 1.28-22.56 1.28-2.88 0-5.44-.08-8.32-.32Zm-124.99 166.24v1.92h-31.36v-1.92h31.36Zm-31.36 10.4v-2h31.36v2h-31.36Zm-11.2 9.28h11.2v-2.16h31.36v2.16h11.76v-26.72h-54.32v26.72Zm32-55.52h10.4v2h-10.4v-2Zm0-9.76h10.4v1.92h-10.4v-1.92Zm21.92 18.32v-8.56h8.96v-7.84h-8.96V489h-21.92v-4.72h-11.76V489h-22.08v6.56h22.08v1.92h-30.16v7.84h30.16v2h-22.96v6.56h22.96v1.84h-24.48v6.8h24.48v1.92h-30.24v7.84h72.8v-7.84h-30.8v-1.92h24.64v-6.8h-24.64v-1.84h21.92Zm68.56 23.68v-16.88c2.16 6 4.64 11.76 7.44 16.88H1239Zm-18.56 0c2.64-4.8 5.12-10.16 7.2-15.76v15.76h-7.2Zm39.68-28.72V497.8H1239v-12.72h-11.36v12.72h-19.04v11.04h14.08c-4.16 11.92-10.8 23.76-18.32 31.12v-37.12c2.32-4.88 4.32-9.76 6-14.56l-10.96-3.36c-3.52 10.96-9.6 22-16.08 29.04 2 2.88 5.12 9.44 6.16 12.24 1.28-1.44 2.56-3.04 3.84-4.72v39.04h11.04v-19.36c2.56 2.08 5.92 5.76 7.68 8.24 2.32-2.56 4.56-5.52 6.56-8.8v7.28h9.04v12.08H1239v-12.08h9.52v-6.64c1.76 2.96 3.6 5.6 5.52 7.92 2-3.04 5.92-7.04 8.64-9.04-7.36-7.44-14.16-19.52-18.4-31.28h15.84Zm117.84 15.92c0-18.16-12.88-32.24-33.28-32.24-21.36 0-37.76 16.16-37.76 35.2 0 13.68 7.52 24.4 17.44 24.4 9.44 0 16.64-10.72 21.36-26.72 2.24-7.44 3.68-14.4 4.72-20.88 9.2 2.16 14.24 9.52 14.24 19.84 0 10.56-6.8 17.68-16.96 20.16-2.32.56-4.48 1.04-7.84 1.44l7.36 11.52c20.8-3.52 30.72-15.84 30.72-32.72Zm-58.48 1.68c0-7.6 5.92-18.4 17.76-21.6-.96 6.24-2.32 12.56-4.08 18-2.88 9.28-5.28 14.16-8.48 14.16-2.8 0-5.2-3.6-5.2-10.56ZM1109.08 641v-10.32h8.24V641h-8.24Zm20 13.76v-24.08h11.68v-11.2h-11.68V602.2h-11.76v17.28h-8.24v-18h-11.76v18h-8.64v-16.32h-12v16.32h-11.2v11.2h11.2v45.92h12v-4.64h49.2v-11.2h-49.2v-30.08h8.64v24.08h11.76v-2.96h8.24v2.96h11.76Zm36.56-29.44h11.52v4.16h-11.52v-4.16Zm0-12.64h11.52v4.08h-11.52v-4.08Zm34.88 4.08h-11.6v-4.08h11.6v4.08Zm-11.6 12.72v-4.16h11.6v4.16h-11.6Zm23.76 9.28V603.4h-58.64v35.36h10.72c-5.28 4.16-12.32 7.68-19.68 9.76 2.48 2.32 6 6.72 7.68 9.52 4.56-1.68 8.96-3.84 12.96-6.56v1.44c0 4.72-1.76 10.96-14.72 14.72 2.56 2.24 6.4 6.72 7.92 9.52 16.32-5.6 18.8-16.08 18.8-23.76v-5.84H1171c3.2-2.64 6-5.6 8.48-8.8h7.76c2.4 3.28 5.28 6.32 8.48 9.04h-6.24v28.48h12.16v-24.16c3.68 2.4 7.68 4.24 12 5.68 1.68-3.04 5.2-7.6 7.76-9.92-7.68-1.84-14.72-5.04-20.08-9.12h11.36Zm12.48 5.36 11.84 12.16c1.52-2.32 3.36-5.44 5.28-8.32 3.12-4.32 8.24-11.76 11.12-15.44 2.08-2.64 3.6-2.96 6.08-.24 3.76 4.32 9.68 11.92 14.48 17.76 4.88 5.84 11.44 13.28 16.96 18.56l10.08-11.68c-7.84-7.04-14.08-13.52-19.36-19.28-4.48-4.96-10.96-13.36-16.8-18.88-6.16-5.84-11.92-5.44-18 1.44-5.12 5.84-10.96 13.6-14.4 17.12-2.56 2.72-4.64 4.72-7.28 6.8Z"/><path fill="#FF6D7F" d="m1358.93 443.08 10.32-8.88c-3.52-4.48-11.52-12.72-17.12-17.36l-10.16 8.72c5.52 4.88 12.24 11.76 16.96 17.52Zm-256.76 41.52h-27.2v50.8h11.44V495h15.76v-10.4Zm161.66 76h27.2v-50.8h-11.44v40.4h-15.76v10.4Zm53.36 88.4c-7.36 0-13.36 6-13.36 13.36 0 7.36 6 13.36 13.36 13.36 7.44 0 13.36-6 13.36-13.36 0-7.36-5.92-13.36-13.36-13.36Zm0 20c-3.6 0-6.64-2.96-6.64-6.64 0-3.68 3.04-6.64 6.64-6.64 3.68 0 6.64 2.96 6.64 6.64 0 3.68-2.96 6.64-6.64 6.64Z"/><path fill="#3C4043" d="M550.64 399.8c-.96 4-2.08 7.84-3.12 10.64l9.04 3.04c2.64-5.76 5.36-14.4 7.12-22.4l-7.92-2.08-1.68.4h-18c.56-3.04.96-6.08 1.28-9.28l-10.96-1.36c-1.04 12.24-3.52 23.84-8.96 30.72 2.48 1.44 7.2 4.88 9.12 6.64 3.04-4.32 5.44-9.92 7.2-16.32h16.88Zm-29.84 35.44c-1.84-3.68-4.64-8.16-7.84-12.88 4-9.68 6.8-20.88 8.4-33.52l-7.04-2.4-1.92.4h-23.68V397h20.56c-.96 5.04-2.32 10-4 14.64-3.12-4.24-6.24-8.4-9.04-12.16l-8.08 6.48c3.76 5.28 8.08 11.36 12 17.36-3.68 6.88-8.24 12.72-13.52 16.72 2.56 1.92 6 5.92 7.76 8.64 4.8-4.08 8.96-8.96 12.56-14.64 1.92 3.28 3.6 6.4 4.8 9.04l9.04-7.84ZM544.96 403H534v6.24c0 10.24-1.84 26.56-20.16 37.2 2.64 1.84 6.56 5.68 8.24 8.16 9.44-5.84 15.04-13.12 18.32-20.56 3.68 9.04 8.96 16 17.28 20.56 1.6-3.04 4.96-7.6 7.44-9.84-11.6-5.28-17.36-16.56-20.32-30.56.16-1.68.16-3.2.16-4.72V403Zm85.44-10.4v30.56c0 .88-.32 1.2-1.2 1.2-.72 0-2.88 0-4.88-.08V392.6h6.08Zm-39.6 41.52c6.48-1.6 14.48-3.6 21.76-5.52l-1.28-9.84c-2.88.64-5.76 1.36-8.56 2v-27.68c3.6-1.44 7.52-3.2 11.12-5.2v53.04h10.48v-15.28c1.12 2.56 2.16 6 2.48 8.32 4.56 0 8-.16 10.72-1.76 2.8-1.68 3.52-4.32 3.52-8.8v-40.48h-27.2v3.6l-7.04-7.84c-2.4 2.24-5.92 4.72-9.36 6.64l-5.36-1.36v39.12c-1.52.32-2.96.56-4.24.8l2.96 10.24Zm-3.36-40.72c-2-3.92-6.8-9.28-10.72-13.12l-9.2 5.76c3.84 4.16 8.32 10 10 13.84l9.92-6.48Zm-.64 16.16h-18.24v10.72H576v15.92c-2.88 2.4-6 4.64-8.72 6.48l5.36 11.12c3.76-3.52 6.72-6.4 9.52-9.44 4.72 6.16 10.8 8.32 20.08 8.72 10.56.48 28.48.32 39.28-.24.56-3.2 2.24-8.24 3.44-10.8-12.16 1.04-32.32 1.28-42.72.8-7.6-.32-12.72-2.48-15.44-7.6v-25.68Zm173.12-11.68v15.36h-12.24l7.52-2.96c-.88-3.52-3.2-8.4-5.76-12.4h10.48Zm23.44 0c-1.44 4.32-3.76 9.52-5.84 13.2l6.64 2.16h-11.84v-15.36h11.04Zm18.88 26.48v-11.12H788.4c2.24-3.44 4.96-8.16 7.6-13.04l-8.08-2.32h11.28v-11.12h-26.88v-8.24h-12.4v8.24H733.6v11.12h12.16l-7.44 2.8c2.24 3.84 4.48 8.88 5.36 12.56h-13.84v11.12h23.36c-6.72 7.36-16.24 14-25.84 18 2.64 2.32 6.4 6.88 8.24 9.76 8.96-4.56 17.44-11.52 24.32-19.68v22.08h12.4v-22.08c6.72 8.24 15.04 15.28 24 19.84 1.76-2.96 5.52-7.52 8.16-9.84-9.52-3.92-18.88-10.64-25.44-18.08h23.2Zm32.8 14.48v-6.88h11.92v-10.32h-11.92v-6.8h-11.6v6.8h-12.16v10.32h12.16v8.08c-5.76.56-11.04 1.12-15.44 1.44l1.76 11.6c11.12-1.36 26.24-3.12 40.24-5.04l-.32-10.8-14.64 1.6Zm-8.08-35.52c1.36-3.04 2.72-6.32 4-9.52h10.24l-8.4 4.4c1.12 1.52 2.24 3.2 3.36 4.96l-9.2.16Zm36.4 30.88v-45.76h-11.12v22.8c-1.92-5.04-6.64-12.16-10.8-17.44h8.16v-10.24h-40.72v10.24h9.2c-.72 3.2-1.68 6.56-2.72 9.68l-6.64.08.64 10.72c8.88-.32 20.8-.72 32.32-1.36.56 1.36 1.12 2.56 1.44 3.68l9.12-5.04v22.64h11.12Zm6.72-53.36v60.32c0 1.44-.56 1.84-2 1.92-1.6 0-6.4 0-10.88-.24 1.6 3.28 3.28 8.48 3.68 11.76 7.04 0 12.4-.4 15.92-2.24 3.52-1.84 4.64-4.96 4.64-11.12v-60.4h-11.36ZM552.709 512.68h46.72v10.96h12.08v-21.92h-28.96v-7.04h-12.48v7.04h-28.8v21.92h11.44v-10.96Zm59.2 24.72h-28.8c6.24-4.08 11.76-9.52 16-14.48l-7.44-5.76-2.64.56h-33.76v10.48h24c-1.68 1.68-3.52 3.28-5.44 4.64h-3.76v4.56h-28.8v11.04h28.8v8.8c0 1.12-.48 1.44-2.16 1.44-1.68.08-8.24 0-12.8-.24 1.92 3.2 4.24 8.48 4.96 12 6.64 0 12.24-.24 16.64-1.92 4.48-1.76 5.84-4.88 5.84-10.88v-9.2h29.36V537.4Zm60.56 10.16v-16.88c2.16 6 4.64 11.76 7.44 16.88h-7.44Zm-18.56 0c2.64-4.8 5.12-10.16 7.2-15.76v15.76h-7.2Zm39.68-28.72V507.8h-21.12v-12.72h-11.36v12.72h-19.04v11.04h14.08c-4.16 11.92-10.8 23.76-18.32 31.12v-37.12c2.32-4.88 4.32-9.76 6-14.56l-10.96-3.36c-3.52 10.96-9.6 22-16.08 29.04 2 2.88 5.12 9.44 6.16 12.24 1.28-1.44 2.56-3.04 3.84-4.72v39.04h11.04v-19.36c2.56 2.08 5.92 5.76 7.68 8.24 2.32-2.56 4.56-5.52 6.56-8.8v7.28h9.04v12.08h11.36v-12.08h9.52v-6.64c1.76 2.96 3.6 5.6 5.52 7.92 2-3.04 5.92-7.04 8.64-9.04-7.36-7.44-14.16-19.52-18.4-31.28h15.84Zm73.12-24.32c-4.56 2.8-10.88 6-17.12 8.32l-6.08-2.24v62.72h11.76v-6.08h18.24v-11.2h-18.24v-13.76h18.24v-11.2h-18.24v-8.8c6.96-2.08 14.32-4.72 20.88-7.76l-9.44-10Zm44.88 5.44h-34.48v70.48h11.76v-58.96h10.96v35.04c0 1.04-.4 1.44-1.44 1.44-1.12 0-4.72 0-7.68-.16 1.76 3.12 3.84 8.88 4.32 12.32 5.12 0 9.04-.32 12.4-2.4 3.28-2 4.16-5.68 4.16-10.8v-46.96Zm40 38.8h2.4v13.92c0 .64-.16.8-.64.8-.32 0-1.04 0-1.76-.08v-14.64Zm-18.64-9.44c.08-1.6.08-3.2.08-4.64v-1.28h8.96v5.92h-9.04Zm18.56-20.48v4.32h-18.48v-4.32h18.48Zm11.6 20.48h-11.52v-5.92h10.8v-24.8h-39.6v26.08c0 11.36-.32 27.28-5.28 38 2.32 1.12 6.8 4.48 8.56 6.4 2.72-5.52 4.4-12.64 5.44-20v13.36h8.24v-23.68h2.24v31.76h9.6v-15.84c.96 2.4 1.84 5.44 2.08 7.68 2.8 0 4.96-.16 6.96-1.76 2.08-1.52 2.48-4.08 2.48-7.68v-23.6Zm13.36-27.28h-10.8v47.52h10.8v-47.52Zm4.64-5.92v61.2c0 1.28-.48 1.68-1.76 1.68-1.36 0-5.36 0-9.2-.16 1.44 3.28 3.04 8.4 3.44 11.6 6.32 0 11.12-.4 14.4-2.24 3.2-1.92 4.24-4.96 4.24-10.8v-61.28h-11.12ZM501.76 668.28v-13.76h10.48v13.76h-10.48Zm10.48-23.76h-10.48v-10.8h10.48v10.8Zm28.16-21.68c1.12-3.12 2.16-6.24 3.04-9.36l-11.2-2.64c-2.08 8.32-5.52 16.96-9.52 23.44v-10.64h-11.84c1.28-3.36 2.64-7.36 4-11.28l-12.72-1.76c-.24 3.92-.96 8.96-1.76 13.04h-9.12v60.48h10.48v-5.68h20.96v-38.08c2.4 1.6 5.12 3.68 6.56 4.96 2.32-3.28 4.64-7.36 6.8-11.92h15.2c-.64 26.4-1.6 38.16-3.92 40.64-1.04 1.12-1.92 1.44-3.52 1.44-2.16 0-6.96 0-12.08-.48 2.08 3.2 3.68 8.16 3.84 11.28 4.8.16 9.76.24 12.96-.32 3.52-.64 6-1.6 8.48-5.12 3.36-4.4 4.16-17.36 5.12-52.96.08-1.36.08-5.04.08-5.04H540.4Zm8.08 37.04c-2.4-4.72-7.6-12.32-11.2-17.76l-9.12 5.12c3.6 5.92 8.4 13.76 10.48 18.64l9.84-6Zm63.6-8.88v-10.32h8.24V651h-8.24Zm20 13.76v-24.08h11.68v-11.2h-11.68V612.2h-11.76v17.28h-8.24v-18h-11.76v18h-8.64v-16.32h-12v16.32h-11.2v11.2h11.2v45.92h12v-4.64h49.2v-11.2h-49.2v-30.08h8.64v24.08h11.76v-2.96h8.24v2.96h11.76Zm36.56-29.44h11.52v4.16h-11.52v-4.16Zm0-12.64h11.52v4.08h-11.52v-4.08Zm34.88 4.08h-11.6v-4.08h11.6v4.08Zm-11.6 12.72v-4.16h11.6v4.16h-11.6Zm23.76 9.28V613.4h-58.64v35.36h10.72c-5.28 4.16-12.32 7.68-19.68 9.76 2.48 2.32 6 6.72 7.68 9.52 4.56-1.68 8.96-3.84 12.96-6.56v1.44c0 4.72-1.76 10.96-14.72 14.72 2.56 2.24 6.4 6.72 7.92 9.52 16.32-5.6 18.8-16.08 18.8-23.76v-5.84H674c3.2-2.64 6-5.6 8.48-8.8h7.76c2.4 3.28 5.28 6.32 8.48 9.04h-6.24v28.48h12.16v-24.16c3.68 2.4 7.68 4.24 12 5.68 1.68-3.04 5.2-7.6 7.76-9.92-7.68-1.84-14.72-5.04-20.08-9.12h11.36Z"/><path fill="#1A73E8" d="M500 533.08c4.24 0 7.28-3.04 7.28-7.76 0-4.32-3.28-7.04-7.28-7.04-.32 0-.56 0-.88.08 0-5.28 2.72-8.88 8.4-11.52l-3.04-6.24c-9.12 4.48-13.52 11.2-13.52 20 0 7.92 3.12 12.48 9.04 12.48Zm22.4 0c4.24 0 7.28-3.04 7.28-7.76 0-4.32-3.28-7.04-7.28-7.04-.32 0-.56 0-.88.08 0-5.28 2.72-8.88 8.4-11.52l-3.04-6.24c-9.12 4.48-13.52 11.2-13.52 20 0 7.92 3.12 12.48 9.04 12.48Zm383.749-1.36c9.04-4.4 13.44-11.28 13.44-20.08 0-7.76-3.04-12.32-8.96-12.32-4.24 0-7.36 2.96-7.36 7.68 0 4.32 3.28 7.04 7.36 7.04.32 0 .56 0 .88-.08 0 5.36-2.8 8.88-8.48 11.6l3.12 6.16Zm22.4 0c9.04-4.4 13.44-11.28 13.44-20.08 0-7.76-3.04-12.32-8.96-12.32-4.24 0-7.36 2.96-7.36 7.68 0 4.32 3.28 7.04 7.36 7.04.32 0 .56 0 .88-.08 0 5.36-2.8 8.88-8.48 11.6l3.12 6.16Z"/><path fill="#FF6D7F" d="m715.834 569.08 10.32-8.88c-3.52-4.48-11.52-12.72-17.12-17.36l-10.16 8.72c5.52 4.88 12.24 11.76 16.96 17.52ZM742.221 659c-7.36 0-13.36 6-13.36 13.36 0 7.36 6 13.36 13.36 13.36 7.44 0 13.36-6 13.36-13.36 0-7.36-5.92-13.36-13.36-13.36Zm0 20c-3.6 0-6.64-2.96-6.64-6.64 0-3.68 3.04-6.64 6.64-6.64 3.68 0 6.64 2.96 6.64 6.64 0 3.68-2.96 6.64-6.64 6.64ZM689.468 422.32c-.64 3.44-4.32 6.72-10.48 8.4l2.96 7.68c10.8-2.96 16.96-10.8 16.96-20.08 0-7.36-3.36-12-9.68-12-4.88 0-8.88 3.12-8.88 8 0 5.04 4.16 8 8.56 8h.56Z"/><path fill="#3C4043" d="M115.75 451v-58.182h15.795v22.727h20.91v-22.727h15.795V451h-15.795v-22.727h-20.91V451H115.75Zm81.136.795c-4.659 0-8.674-.89-12.045-2.67-3.352-1.799-5.938-4.375-7.756-7.727-1.799-3.371-2.699-7.406-2.699-12.103 0-4.507.909-8.447 2.728-11.818 1.818-3.371 4.384-5.994 7.698-7.869 3.315-1.875 7.226-2.813 11.733-2.813 3.296 0 6.279.512 8.949 1.535 2.671 1.022 4.953 2.509 6.847 4.46 1.894 1.932 3.352 4.28 4.375 7.045 1.023 2.765 1.534 5.881 1.534 9.347v3.636h-38.977v-8.636h24.545c-.019-1.25-.341-2.349-.966-3.296a6.152 6.152 0 0 0-2.471-2.244c-1.023-.549-2.188-.824-3.495-.824-1.269 0-2.433.275-3.494.824a6.598 6.598 0 0 0-2.557 2.216c-.625.947-.956 2.055-.994 3.324v9.318c0 1.402.293 2.652.881 3.75a6.391 6.391 0 0 0 2.528 2.585c1.098.625 2.424.938 3.977.938 1.08 0 2.065-.152 2.955-.455.909-.303 1.685-.738 2.329-1.307a5.315 5.315 0 0 0 1.421-2.102h14.318c-.492 3.03-1.657 5.663-3.494 7.898-1.837 2.216-4.271 3.939-7.301 5.17-3.012 1.212-6.535 1.818-10.569 1.818Zm43.445-58.977V451h-15.682v-58.182h15.682Zm23.672 0V451h-15.682v-58.182h15.682Zm29.013 58.977c-4.735 0-8.788-.937-12.159-2.812-3.372-1.894-5.957-4.527-7.756-7.898-1.799-3.39-2.699-7.32-2.699-11.79 0-4.469.9-8.39 2.699-11.761 1.799-3.39 4.384-6.023 7.756-7.898 3.371-1.894 7.424-2.841 12.159-2.841 4.734 0 8.788.947 12.159 2.841 3.371 1.875 5.956 4.508 7.755 7.898 1.8 3.371 2.699 7.292 2.699 11.761 0 4.47-.899 8.4-2.699 11.79-1.799 3.371-4.384 6.004-7.755 7.898-3.371 1.875-7.425 2.812-12.159 2.812Zm.113-11.59c1.326 0 2.472-.446 3.438-1.336.966-.89 1.714-2.159 2.244-3.807.53-1.647.796-3.607.796-5.88 0-2.292-.266-4.252-.796-5.881-.53-1.648-1.278-2.917-2.244-3.807-.966-.89-2.112-1.335-3.438-1.335-1.401 0-2.604.445-3.608 1.335-1.003.89-1.771 2.159-2.301 3.807-.53 1.629-.795 3.589-.795 5.881 0 2.273.265 4.233.795 5.88.53 1.648 1.298 2.917 2.301 3.807 1.004.89 2.207 1.336 3.608 1.336Zm-115.191 64.159v11.363h-28.75v-11.363h28.75Zm-23.182-10.455h15.682v40.057c0 .606.104 1.117.312 1.534.208.398.53.701.966.909.436.189.994.284 1.676.284.474 0 1.023-.057 1.648-.17a23.653 23.653 0 0 0 1.42-.284l2.273 11.022c-.701.209-1.705.464-3.011.767-1.288.303-2.822.502-4.603.597-3.598.189-6.619-.18-9.062-1.108-2.443-.947-4.28-2.434-5.512-4.46-1.231-2.027-1.827-4.565-1.789-7.614v-41.534Zm39.126 70.455c-1.799 0-3.513-.142-5.142-.426-1.629-.266-3.059-.635-4.29-1.108l3.409-11.137c1.288.455 2.462.748 3.523.881 1.08.132 1.998.057 2.756-.227.776-.284 1.335-.824 1.676-1.62l.341-.795-15.341-45.568h16.364l7.045 30.227h.455l7.159-30.227h16.477l-15.909 47.272c-.796 2.406-1.951 4.565-3.466 6.478-1.496 1.931-3.466 3.456-5.909 4.574-2.443 1.117-5.493 1.676-9.148 1.676Zm38.892 0v-60h15.568v7.613h.341a13.175 13.175 0 0 1 2.5-4.062c1.099-1.25 2.462-2.245 4.091-2.983 1.629-.758 3.523-1.137 5.682-1.137 2.879 0 5.615.767 8.21 2.302 2.614 1.534 4.735 3.948 6.364 7.244 1.648 3.295 2.471 7.576 2.471 12.841 0 5.038-.786 9.214-2.358 12.528-1.553 3.315-3.636 5.786-6.25 7.415-2.594 1.629-5.445 2.443-8.551 2.443-2.045 0-3.873-.331-5.483-.994-1.591-.682-2.954-1.601-4.091-2.756a12.746 12.746 0 0 1-2.585-3.977h-.227v23.523h-15.682Zm15.341-38.182c0 2.121.275 3.958.824 5.511.568 1.534 1.364 2.727 2.386 3.58 1.042.833 2.282 1.25 3.722 1.25 1.439 0 2.661-.407 3.665-1.222 1.022-.833 1.799-2.017 2.329-3.551.549-1.553.824-3.409.824-5.568s-.275-4.006-.824-5.54c-.53-1.553-1.307-2.737-2.329-3.551-1.004-.833-2.226-1.25-3.665-1.25-1.44 0-2.68.417-3.722 1.25-1.022.814-1.818 1.998-2.386 3.551-.549 1.534-.824 3.381-.824 5.54Zm57.365 22.613c-4.659 0-8.674-.89-12.045-2.67-3.353-1.799-5.938-4.375-7.756-7.727-1.799-3.371-2.699-7.406-2.699-12.103 0-4.507.909-8.447 2.727-11.818 1.819-3.371 4.385-5.994 7.699-7.869 3.315-1.875 7.226-2.813 11.733-2.813 3.296 0 6.279.512 8.949 1.535 2.671 1.022 4.953 2.509 6.847 4.46 1.894 1.932 3.352 4.28 4.375 7.045 1.022 2.765 1.534 5.881 1.534 9.347v3.636h-38.978v-8.636h24.546c-.019-1.25-.341-2.349-.966-3.296a6.148 6.148 0 0 0-2.472-2.244c-1.022-.549-2.187-.824-3.494-.824-1.269 0-2.434.275-3.494.824a6.598 6.598 0 0 0-2.557 2.216c-.625.947-.956 2.055-.994 3.324v9.318c0 1.402.293 2.652.88 3.75a6.387 6.387 0 0 0 2.529 2.585c1.098.625 2.424.938 3.977.938 1.08 0 2.064-.152 2.955-.455.909-.303 1.685-.738 2.329-1.307a5.315 5.315 0 0 0 1.421-2.102h14.318c-.493 3.03-1.657 5.663-3.495 7.898-1.837 2.216-4.27 3.939-7.301 5.17-3.011 1.212-6.534 1.818-10.568 1.818ZM123.705 645l-10.91-43.636h15.682l5 26.591h.341l5.568-26.591h15.228l5.795 26.363h.341l4.773-26.363h15.682L170.295 645h-16.931l-6.137-23.409h-.454L140.636 645h-16.931Zm82.514.795c-4.735 0-8.788-.937-12.159-2.812-3.372-1.894-5.957-4.527-7.756-7.898-1.799-3.39-2.699-7.32-2.699-11.79 0-4.469.9-8.39 2.699-11.761 1.799-3.39 4.384-6.023 7.756-7.898 3.371-1.894 7.424-2.841 12.159-2.841s8.788.947 12.159 2.841c3.371 1.875 5.956 4.508 7.756 7.898 1.799 3.371 2.698 7.292 2.698 11.761 0 4.47-.899 8.4-2.698 11.79-1.8 3.371-4.385 6.004-7.756 7.898-3.371 1.875-7.424 2.812-12.159 2.812Zm.113-11.59c1.326 0 2.472-.446 3.438-1.336.966-.89 1.714-2.159 2.244-3.807.531-1.647.796-3.607.796-5.88 0-2.292-.265-4.252-.796-5.881-.53-1.648-1.278-2.917-2.244-3.807-.966-.89-2.112-1.335-3.438-1.335-1.401 0-2.604.445-3.608 1.335-1.003.89-1.77 2.159-2.301 3.807-.53 1.629-.795 3.589-.795 5.881 0 2.273.265 4.233.795 5.88.531 1.648 1.298 2.917 2.301 3.807 1.004.89 2.207 1.336 3.608 1.336ZM235.196 645v-43.636h15.227v8.295h.455c.795-3.068 2.055-5.312 3.778-6.733 1.743-1.42 3.779-2.131 6.108-2.131.682 0 1.354.057 2.017.171.682.095 1.335.237 1.96.426v13.381c-.776-.265-1.732-.464-2.869-.597-1.136-.132-2.112-.199-2.926-.199-1.534 0-2.917.351-4.148 1.051-1.212.682-2.168 1.648-2.869 2.898-.701 1.231-1.051 2.68-1.051 4.347V645h-15.682Zm50.369-58.182V645h-15.681v-58.182h15.681Zm23.786 58.75c-3.106 0-5.966-.814-8.58-2.443-2.594-1.629-4.678-4.1-6.25-7.415-1.553-3.314-2.329-7.49-2.329-12.528 0-5.265.814-9.546 2.443-12.841 1.648-3.296 3.769-5.71 6.364-7.244 2.613-1.535 5.359-2.302 8.238-2.302 2.159 0 4.053.379 5.682 1.137 1.629.738 2.992 1.733 4.091 2.983a13.175 13.175 0 0 1 2.5 4.062h.227v-22.159h15.682V645h-15.568v-7.159h-.341a12.488 12.488 0 0 1-2.614 3.977c-1.117 1.155-2.481 2.074-4.091 2.756-1.591.663-3.409.994-5.454.994Zm5.795-12.045c1.44 0 2.671-.417 3.693-1.25 1.042-.853 1.838-2.046 2.387-3.58.568-1.553.852-3.39.852-5.511 0-2.159-.284-4.006-.852-5.54-.549-1.553-1.345-2.737-2.387-3.551-1.022-.833-2.253-1.25-3.693-1.25-1.439 0-2.67.417-3.693 1.25-1.004.814-1.78 1.998-2.329 3.551-.531 1.534-.796 3.381-.796 5.54 0 2.159.265 4.015.796 5.568.549 1.534 1.325 2.718 2.329 3.551 1.023.815 2.254 1.222 3.693 1.222Z"/><path fill="#1A73E8" d="m337.22 443.045-.227 3.182a37.654 37.654 0 0 1-1.364 7.841c-.7 2.5-1.449 4.716-2.244 6.648a228.703 228.703 0 0 1-1.847 4.489h-9.659a477.81 477.81 0 0 0 1.279-4.603c.568-1.988 1.079-4.242 1.534-6.761.473-2.5.71-5.038.71-7.614v-3.182h11.818ZM116.773 508v-6.818c0-1.856.379-3.722 1.136-5.597a24.334 24.334 0 0 1 2.869-5.199c1.156-1.591 2.32-2.878 3.495-3.863l6.477 3.295a23.292 23.292 0 0 0-2.301 5.171c-.53 1.799-.786 3.863-.767 6.193V508h-10.909Zm14.204 0v-6.818c0-1.856.379-3.722 1.137-5.597a24.29 24.29 0 0 1 2.869-5.199c1.155-1.591 2.32-2.878 3.494-3.863l6.478 3.295a23.341 23.341 0 0 0-2.302 5.171c-.53 1.799-.786 3.863-.767 6.193V508h-10.909Zm215.22-18.182v6.818c0 1.856-.378 3.712-1.136 5.569a23.904 23.904 0 0 1-2.841 5.142c-1.136 1.572-2.31 2.888-3.523 3.948L332.22 508c.796-1.364 1.506-2.945 2.131-4.744.625-1.8.937-4.006.937-6.62v-6.818h10.909Zm14.091 0v6.818c0 1.856-.378 3.712-1.136 5.569a23.904 23.904 0 0 1-2.841 5.142c-1.136 1.572-2.311 2.888-3.523 3.948L346.311 508c.796-1.364 1.506-2.945 2.131-4.744.625-1.8.937-4.006.937-6.62v-6.818h10.909Zm-6.647 156.091c-2.197 0-4.082-.767-5.654-2.301-1.553-1.553-2.32-3.438-2.301-5.653-.019-2.16.748-4.006 2.301-5.54 1.572-1.534 3.457-2.301 5.654-2.301 2.083 0 3.92.767 5.511 2.301 1.61 1.534 2.424 3.38 2.443 5.54-.019 1.477-.407 2.822-1.165 4.034a8.567 8.567 0 0 1-2.897 2.869 7.55 7.55 0 0 1-3.892 1.051ZM113.641 819v-25.455h6.91v19.887h10.291V819h-17.201Zm25.414.298c-1.218 0-2.295-.199-3.232-.596a4.853 4.853 0 0 1-2.187-1.84c-.531-.82-.796-1.864-.796-3.132 0-1.044.178-1.935.535-2.672a4.805 4.805 0 0 1 1.491-1.827 7.037 7.037 0 0 1 2.225-1.081 13.415 13.415 0 0 1 2.759-.485c1.069-.083 1.927-.183 2.573-.299.655-.124 1.127-.294 1.417-.509.29-.224.435-.518.435-.883v-.049c0-.497-.191-.879-.572-1.144-.381-.265-.87-.397-1.466-.397-.655 0-1.189.145-1.604.435-.406.281-.65.716-.733 1.305h-6.314a6.515 6.515 0 0 1 1.106-3.207c.663-.986 1.628-1.773 2.896-2.362 1.268-.596 2.851-.894 4.748-.894 1.367 0 2.594.161 3.679.484 1.085.315 2.009.758 2.772 1.33.762.564 1.342 1.226 1.74 1.989.406.754.609 1.574.609 2.461V819h-6.414v-2.685h-.149c-.381.713-.845 1.289-1.392 1.728a5.122 5.122 0 0 1-1.852.957 8.16 8.16 0 0 1-2.274.298Zm2.237-4.325c.522 0 1.011-.108 1.467-.323a2.83 2.83 0 0 0 1.131-.932c.29-.406.435-.899.435-1.479v-1.591a8.195 8.195 0 0 1-.584.211 12.094 12.094 0 0 1-1.368.348c-.248.05-.509.095-.783.137-.53.083-.965.219-1.305.41-.331.182-.58.41-.745.684a1.712 1.712 0 0 0-.237.894c0 .531.187.937.56 1.218.373.282.849.423 1.429.423Zm24.507-15.064v4.972h-12.578v-4.972h12.578Zm-10.142-4.574h6.861v17.525c0 .265.045.489.136.671a.896.896 0 0 0 .423.398c.19.083.435.124.733.124.207 0 .448-.025.721-.074.282-.05.489-.091.622-.125l.994 4.823c-.307.091-.746.203-1.318.335-.563.133-1.234.22-2.013.261-1.574.083-2.896-.078-3.965-.484-1.069-.415-1.873-1.065-2.411-1.952-.539-.886-.8-1.997-.783-3.331v-18.171ZM168.598 819v-19.091h6.861V819h-6.861Zm3.431-21.08c-.928 0-1.724-.306-2.387-.919-.662-.613-.994-1.351-.994-2.213 0-.861.332-1.599.994-2.212.663-.613 1.459-.92 2.387-.92.936 0 1.732.307 2.386.92.663.613.995 1.351.995 2.212 0 .862-.332 1.6-.995 2.213-.654.613-1.45.919-2.386.919Zm13.787 10.341V819h-6.861v-19.091h6.513v3.629h.199c.414-1.209 1.143-2.158 2.187-2.846 1.052-.688 2.279-1.031 3.679-1.031 1.351 0 2.523.31 3.517.932a6.192 6.192 0 0 1 2.325 2.535c.555 1.077.828 2.308.82 3.692V819h-6.861v-10.739c.008-.944-.232-1.686-.721-2.224-.48-.539-1.151-.808-2.013-.808-.564 0-1.057.124-1.479.373-.415.24-.734.588-.957 1.044-.224.447-.34.986-.348 1.615ZM486.945 799.114v-5.569h22.123v5.569h-7.656V819h-6.811v-19.886h-7.656ZM509.786 819v-19.091h6.662v3.629h.199c.348-1.342.899-2.324 1.653-2.945.762-.622 1.653-.932 2.672-.932.298 0 .592.024.882.074.299.042.585.104.858.187v5.854a6.146 6.146 0 0 0-1.255-.261 11.286 11.286 0 0 0-1.28-.087c-.672 0-1.276.153-1.815.459-.53.299-.949.721-1.255 1.268-.307.539-.46 1.173-.46 1.902V819h-6.861Zm19.607.298c-1.218 0-2.296-.199-3.232-.596a4.853 4.853 0 0 1-2.187-1.84c-.531-.82-.796-1.864-.796-3.132 0-1.044.178-1.935.535-2.672a4.805 4.805 0 0 1 1.491-1.827 7.037 7.037 0 0 1 2.225-1.081 13.415 13.415 0 0 1 2.759-.485c1.069-.083 1.927-.183 2.573-.299.655-.124 1.127-.294 1.417-.509.29-.224.435-.518.435-.883v-.049c0-.497-.191-.879-.572-1.144-.381-.265-.87-.397-1.467-.397-.654 0-1.189.145-1.603.435-.406.281-.65.716-.733 1.305h-6.314a6.515 6.515 0 0 1 1.106-3.207c.663-.986 1.628-1.773 2.896-2.362 1.268-.596 2.85-.894 4.748-.894 1.367 0 2.593.161 3.679.484 1.085.315 2.009.758 2.772 1.33.762.564 1.342 1.226 1.74 1.989.406.754.609 1.574.609 2.461V819h-6.414v-2.685h-.149c-.381.713-.845 1.289-1.392 1.728a5.13 5.13 0 0 1-1.852.957 8.165 8.165 0 0 1-2.274.298Zm2.237-4.325c.522 0 1.011-.108 1.467-.323a2.83 2.83 0 0 0 1.131-.932c.29-.406.435-.899.435-1.479v-1.591a8.051 8.051 0 0 1-.585.211 12.094 12.094 0 0 1-1.367.348c-.248.05-.509.095-.783.137-.53.083-.965.219-1.305.41-.331.182-.58.41-.746.684a1.72 1.72 0 0 0-.236.894c0 .531.187.937.56 1.218.372.282.849.423 1.429.423Zm20.032 4.276a6.963 6.963 0 0 1-3.753-1.069c-1.135-.713-2.047-1.794-2.735-3.244-.679-1.45-1.019-3.277-1.019-5.481 0-2.304.356-4.177 1.069-5.618.721-1.442 1.649-2.499 2.784-3.17 1.144-.671 2.345-1.006 3.605-1.006.944 0 1.773.165 2.485.497.713.323 1.31.758 1.79 1.305a5.758 5.758 0 0 1 1.094 1.777h.099v-9.695h6.861V819h-6.811v-3.132h-.149a5.374 5.374 0 0 1-2.933 2.946c-.696.29-1.492.435-2.387.435Zm2.536-5.27c.63 0 1.168-.183 1.616-.547.455-.373.803-.895 1.044-1.566.248-.68.372-1.483.372-2.411 0-.945-.124-1.753-.372-2.424-.241-.68-.589-1.197-1.044-1.554-.448-.364-.986-.547-1.616-.547-.63 0-1.169.183-1.616.547-.439.357-.779.874-1.019 1.554-.232.671-.348 1.479-.348 2.424 0 .944.116 1.756.348 2.436.24.671.58 1.189 1.019 1.553.447.357.986.535 1.616.535ZM567.31 819v-19.091h6.861V819h-6.861Zm3.431-21.08c-.928 0-1.724-.306-2.387-.919-.662-.613-.994-1.351-.994-2.213 0-.861.332-1.599.994-2.212.663-.613 1.459-.92 2.387-.92.936 0 1.732.307 2.386.92.663.613.994 1.351.994 2.212 0 .862-.331 1.6-.994 2.213-.654.613-1.45.919-2.386.919Zm18.311 1.989v4.972h-12.578v-4.972h12.578Zm-10.142-4.574h6.861v17.525c0 .265.045.489.136.671a.896.896 0 0 0 .423.398c.19.083.435.124.733.124.207 0 .448-.025.721-.074.282-.05.489-.091.621-.125l.995 4.823c-.307.091-.746.203-1.318.335-.563.133-1.234.22-2.013.261-1.575.083-2.896-.078-3.965-.484-1.069-.415-1.873-1.065-2.411-1.952-.539-.886-.8-1.997-.783-3.331v-18.171ZM591.851 819v-19.091h6.861V819h-6.861Zm3.431-21.08c-.928 0-1.724-.306-2.387-.919-.662-.613-.994-1.351-.994-2.213 0-.861.332-1.599.994-2.212.663-.613 1.459-.92 2.387-.92.936 0 1.732.307 2.386.92.663.613.994 1.351.994 2.212 0 .862-.331 1.6-.994 2.213-.654.613-1.45.919-2.386.919Zm16.123 21.428c-2.071 0-3.844-.41-5.319-1.23a8.464 8.464 0 0 1-3.393-3.456c-.788-1.483-1.181-3.202-1.181-5.158 0-1.955.393-3.67 1.181-5.145a8.363 8.363 0 0 1 3.393-3.456c1.475-.828 3.248-1.242 5.319-1.242 2.072 0 3.845.414 5.32 1.242a8.363 8.363 0 0 1 3.393 3.456c.787 1.475 1.181 3.19 1.181 5.145 0 1.956-.394 3.675-1.181 5.158a8.464 8.464 0 0 1-3.393 3.456c-1.475.82-3.248 1.23-5.32 1.23Zm.05-5.071c.58 0 1.081-.195 1.504-.584.422-.39.75-.945.982-1.666.232-.721.348-1.578.348-2.572 0-1.003-.116-1.861-.348-2.573-.232-.721-.56-1.276-.982-1.666a2.147 2.147 0 0 0-1.504-.584c-.613 0-1.139.195-1.578.584-.44.39-.775.945-1.007 1.666-.232.712-.348 1.57-.348 2.573 0 .994.116 1.851.348 2.572.232.721.567 1.276 1.007 1.666.439.389.965.584 1.578.584Zm19.489-6.016V819h-6.861v-19.091h6.513v3.629h.198c.415-1.209 1.144-2.158 2.188-2.846 1.052-.688 2.279-1.031 3.679-1.031 1.351 0 2.523.31 3.517.932a6.192 6.192 0 0 1 2.325 2.535c.555 1.077.828 2.308.82 3.692V819h-6.861v-10.739c.008-.944-.232-1.686-.721-2.224-.48-.539-1.152-.808-2.013-.808-.564 0-1.057.124-1.479.373-.415.24-.734.588-.957 1.044-.224.447-.34.986-.348 1.615Zm21.085 11.037c-1.218 0-2.295-.199-3.231-.596a4.86 4.86 0 0 1-2.188-1.84c-.53-.82-.795-1.864-.795-3.132 0-1.044.178-1.935.534-2.672a4.817 4.817 0 0 1 1.492-1.827 7.026 7.026 0 0 1 2.225-1.081 13.415 13.415 0 0 1 2.759-.485c1.069-.083 1.926-.183 2.573-.299.654-.124 1.127-.294 1.417-.509.29-.224.435-.518.435-.883v-.049c0-.497-.191-.879-.572-1.144-.381-.265-.87-.397-1.467-.397-.654 0-1.189.145-1.603.435-.406.281-.651.716-.733 1.305h-6.314a6.495 6.495 0 0 1 1.106-3.207c.663-.986 1.628-1.773 2.896-2.362 1.268-.596 2.85-.894 4.748-.894 1.367 0 2.593.161 3.679.484 1.085.315 2.009.758 2.771 1.33.763.564 1.343 1.226 1.74 1.989.406.754.609 1.574.609 2.461V819h-6.413v-2.685h-.149c-.381.713-.845 1.289-1.392 1.728a5.13 5.13 0 0 1-1.852.957 8.167 8.167 0 0 1-2.275.298Zm2.238-4.325c.522 0 1.01-.108 1.466-.323a2.83 2.83 0 0 0 1.131-.932c.29-.406.435-.899.435-1.479v-1.591a8.021 8.021 0 0 1-.584.211 12.094 12.094 0 0 1-1.367.348c-.249.05-.51.095-.783.137-.53.083-.965.219-1.305.41-.332.182-.58.41-.746.684a1.72 1.72 0 0 0-.236.894c0 .531.186.937.559 1.218.373.282.85.423 1.43.423Zm19.982-21.428V819h-6.861v-25.455h6.861Zm34.133 9.546h-7.01a4.754 4.754 0 0 0-.397-1.579 3.566 3.566 0 0 0-.87-1.218 3.628 3.628 0 0 0-1.33-.795c-.522-.191-1.115-.286-1.778-.286-1.16 0-2.142.282-2.945.845-.796.564-1.401 1.372-1.815 2.424-.406 1.052-.609 2.316-.609 3.791 0 1.557.207 2.863.622 3.915.422 1.044 1.031 1.831 1.827 2.361.795.522 1.752.783 2.871.783.638 0 1.209-.078 1.715-.236a4.014 4.014 0 0 0 1.317-.708c.373-.307.676-.676.908-1.106.24-.44.402-.933.484-1.479l7.01.049c-.082 1.077-.385 2.175-.907 3.294-.522 1.11-1.264 2.138-2.225 3.082-.953.937-2.133 1.691-3.542 2.262-1.409.572-3.045.858-4.909.858-2.337 0-4.433-.501-6.29-1.504-1.847-1.002-3.31-2.477-4.387-4.425-1.069-1.947-1.603-4.329-1.603-7.146 0-2.834.547-5.22 1.64-7.159 1.094-1.948 2.569-3.418 4.425-4.413 1.856-1.002 3.928-1.504 6.215-1.504 1.607 0 3.086.22 4.437.659 1.35.439 2.535 1.081 3.554 1.927a9.5 9.5 0 0 1 2.461 3.094c.622 1.227.999 2.631 1.131 4.214Zm10.096 5.17V819h-6.861v-25.455h6.612v9.993h.199c.431-1.218 1.148-2.166 2.15-2.846 1.003-.688 2.209-1.031 3.617-1.031 1.351 0 2.523.306 3.518.919a6.2 6.2 0 0 1 2.324 2.536c.555 1.077.828 2.312.82 3.704V819h-6.861v-10.739c.009-.944-.228-1.686-.708-2.224-.472-.539-1.148-.808-2.026-.808-.555 0-1.044.124-1.467.373-.414.24-.737.588-.969 1.044-.224.447-.34.986-.348 1.615ZM734.244 819v-19.091h6.861V819h-6.861Zm3.43-21.08c-.928 0-1.723-.306-2.386-.919s-.994-1.351-.994-2.213c0-.861.331-1.599.994-2.212.663-.613 1.458-.92 2.386-.92.937 0 1.732.307 2.387.92.663.613.994 1.351.994 2.212 0 .862-.331 1.6-.994 2.213-.655.613-1.45.919-2.387.919Zm13.787 10.341V819H744.6v-19.091h6.513v3.629h.199c.414-1.209 1.144-2.158 2.188-2.846 1.052-.688 2.278-1.031 3.679-1.031 1.35 0 2.523.31 3.517.932a6.19 6.19 0 0 1 2.324 2.535c.555 1.077.829 2.308.82 3.692V819h-6.86v-10.739c.008-.944-.232-1.686-.721-2.224-.481-.539-1.152-.808-2.014-.808-.563 0-1.056.124-1.479.373a2.39 2.39 0 0 0-.957 1.044c-.224.447-.34.986-.348 1.615Zm24.914 11.087c-2.038 0-3.795-.389-5.27-1.168a8.19 8.19 0 0 1-3.393-3.381c-.787-1.475-1.181-3.24-1.181-5.295 0-1.972.398-3.695 1.194-5.17a8.522 8.522 0 0 1 3.368-3.443c1.45-.82 3.161-1.23 5.133-1.23 1.442 0 2.747.223 3.915.671a8.197 8.197 0 0 1 2.995 1.951c.829.845 1.467 1.873 1.915 3.082.447 1.21.671 2.573.671 4.09v1.59h-17.053v-3.778h10.739c-.009-.547-.149-1.027-.423-1.442a2.693 2.693 0 0 0-1.081-.982c-.448-.24-.957-.36-1.529-.36a3.28 3.28 0 0 0-1.529.36 2.885 2.885 0 0 0-1.118.97c-.274.414-.419.899-.435 1.454v4.077c0 .613.128 1.16.385 1.64.257.481.626.858 1.106 1.131.481.274 1.061.411 1.74.411.473 0 .903-.067 1.293-.199a2.91 2.91 0 0 0 1.019-.572c.282-.257.489-.563.621-.92h6.265c-.216 1.326-.725 2.478-1.529 3.455-.804.97-1.869 1.724-3.194 2.263-1.318.53-2.859.795-4.624.795Zm29.597-13.224h-6.314a1.738 1.738 0 0 0-.41-1.007 2.305 2.305 0 0 0-.933-.646 3.155 3.155 0 0 0-1.243-.237c-.588 0-1.093.108-1.516.324-.422.215-.63.522-.621.919-.009.282.112.543.36.783.257.241.75.427 1.479.56l3.878.696c1.955.356 3.41.957 4.363 1.802.961.837 1.445 1.959 1.454 3.368-.009 1.359-.415 2.54-1.218 3.542-.796.995-1.885 1.765-3.269 2.312-1.376.539-2.946.808-4.711.808-2.916 0-5.199-.597-6.848-1.79-1.641-1.193-2.556-2.767-2.747-4.723h6.811c.091.605.39 1.073.895 1.405.514.323 1.16.484 1.939.484.63 0 1.148-.107 1.554-.323.414-.215.625-.522.634-.919-.009-.365-.191-.655-.547-.87-.348-.216-.895-.39-1.641-.523l-3.381-.596c-1.947-.34-3.405-.986-4.375-1.939-.969-.953-1.45-2.179-1.441-3.679-.009-1.326.339-2.449 1.044-3.368.712-.928 1.727-1.633 3.045-2.113 1.325-.489 2.896-.733 4.71-.733 2.76 0 4.935.571 6.526 1.715 1.599 1.143 2.44 2.726 2.523 4.748Zm12.273 13.224c-2.038 0-3.795-.389-5.27-1.168a8.19 8.19 0 0 1-3.393-3.381c-.787-1.475-1.181-3.24-1.181-5.295 0-1.972.398-3.695 1.194-5.17a8.522 8.522 0 0 1 3.368-3.443c1.45-.82 3.161-1.23 5.133-1.23 1.442 0 2.747.223 3.915.671a8.201 8.201 0 0 1 2.996 1.951c.828.845 1.466 1.873 1.914 3.082.447 1.21.671 2.573.671 4.09v1.59h-17.053v-3.778h10.739c-.008-.547-.149-1.027-.423-1.442a2.693 2.693 0 0 0-1.081-.982c-.447-.24-.957-.36-1.529-.36a3.28 3.28 0 0 0-1.529.36 2.892 2.892 0 0 0-1.118.97c-.274.414-.419.899-.435 1.454v4.077c0 .613.128 1.16.385 1.64.257.481.626.858 1.106 1.131.481.274 1.061.411 1.74.411.473 0 .904-.067 1.293-.199a2.91 2.91 0 0 0 1.019-.572c.282-.257.489-.563.622-.92h6.264c-.216 1.326-.725 2.478-1.529 3.455-.804.97-1.868 1.724-3.194 2.263-1.318.53-2.859.795-4.624.795ZM501.362 843.5c-.066-.829-.377-1.475-.932-1.939-.547-.464-1.38-.696-2.498-.696-.713 0-1.297.087-1.753.261-.447.166-.779.394-.994.684-.215.29-.327.621-.336.994-.016.307.038.584.162.833.133.24.34.46.621.658.282.191.643.365 1.082.522.439.158.961.299 1.566.423l2.088.448c1.409.298 2.614.691 3.617 1.18 1.002.489 1.823 1.065 2.461 1.728a6.155 6.155 0 0 1 1.404 2.212c.307.821.464 1.715.472 2.685-.008 1.674-.426 3.091-1.255 4.251-.828 1.16-2.013 2.042-3.555 2.647-1.532.605-3.376.907-5.53.907-2.213 0-4.143-.327-5.792-.982-1.641-.654-2.917-1.661-3.828-3.02-.904-1.367-1.359-3.115-1.368-5.245h6.563c.041.779.236 1.434.584 1.964s.837.932 1.467 1.206c.638.273 1.396.41 2.274.41.738 0 1.355-.091 1.852-.274.497-.182.874-.435 1.131-.758s.389-.692.398-1.106a1.572 1.572 0 0 0-.386-1.019c-.24-.299-.638-.564-1.193-.796-.555-.24-1.305-.464-2.249-.671l-2.536-.547c-2.254-.489-4.031-1.305-5.332-2.448-1.292-1.152-1.935-2.722-1.926-4.711-.009-1.616.422-3.028 1.292-4.238.879-1.218 2.092-2.167 3.642-2.846 1.558-.68 3.343-1.02 5.357-1.02 2.055 0 3.832.344 5.332 1.032 1.5.688 2.656 1.657 3.468 2.908.82 1.243 1.234 2.698 1.242 4.363h-6.612Zm9.689 17.5v-19.091h6.86V861h-6.86Zm3.43-21.08c-.928 0-1.723-.306-2.386-.919s-.995-1.351-.995-2.213c0-.861.332-1.599.995-2.212.663-.613 1.458-.92 2.386-.92.936 0 1.732.307 2.386.92.663.613.995 1.351.995 2.212 0 .862-.332 1.6-.995 2.213-.654.613-1.45.919-2.386.919Zm6.926 21.08v-19.091h6.513v3.629h.199c.397-1.193 1.077-2.137 2.038-2.833.961-.696 2.105-1.044 3.43-1.044 1.343 0 2.499.356 3.468 1.068.97.705 1.554 1.641 1.753 2.809h.198c.324-1.168 1.011-2.104 2.064-2.809 1.052-.712 2.287-1.068 3.704-1.068 1.831 0 3.314.588 4.449 1.764 1.144 1.177 1.715 2.743 1.715 4.699V861h-6.86v-11.136c0-.837-.212-1.492-.634-1.964-.423-.481-.991-.721-1.703-.721-.704 0-1.264.24-1.678.721-.406.472-.609 1.127-.609 1.964V861h-6.563v-11.136c0-.837-.211-1.492-.633-1.964-.423-.481-.991-.721-1.703-.721-.473 0-.879.108-1.218.323-.34.216-.605.526-.796.932-.182.398-.273.874-.273 1.43V861h-6.861Zm32.915 7.159v-26.25h6.811v3.331h.149a5.758 5.758 0 0 1 1.094-1.777 5.207 5.207 0 0 1 1.79-1.305c.712-.332 1.541-.497 2.486-.497 1.259 0 2.456.335 3.592 1.006 1.143.671 2.071 1.728 2.784 3.17.721 1.441 1.081 3.314 1.081 5.618 0 2.204-.344 4.031-1.032 5.481-.679 1.45-1.59 2.531-2.734 3.244a6.903 6.903 0 0 1-3.741 1.069c-.895 0-1.695-.145-2.399-.435a5.568 5.568 0 0 1-1.79-1.206 5.575 5.575 0 0 1-1.131-1.74h-.099v10.291h-6.861Zm6.712-16.704c0 .928.12 1.731.36 2.411.249.671.597 1.193 1.044 1.566.456.364.999.547 1.628.547.63 0 1.165-.178 1.604-.535.447-.364.787-.882 1.019-1.553.24-.68.36-1.492.36-2.436 0-.945-.12-1.753-.36-2.424-.232-.68-.572-1.197-1.019-1.554-.439-.364-.974-.547-1.604-.547-.629 0-1.172.183-1.628.547-.447.357-.795.874-1.044 1.554-.24.671-.36 1.479-.36 2.424Zm22.81-15.91V861h-6.861v-25.455h6.861ZM587.34 861v-19.091h6.86V861h-6.86Zm3.43-21.08c-.928 0-1.723-.306-2.386-.919s-.995-1.351-.995-2.213c0-.861.332-1.599.995-2.212.663-.613 1.458-.92 2.386-.92.936 0 1.732.307 2.386.92.663.613.995 1.351.995 2.212 0 .862-.332 1.6-.995 2.213-.654.613-1.45.919-2.386.919Zm18.361 1.989v4.972h-12.777v-4.972h12.777ZM598.79 861v-19.638c0-1.574.282-2.879.845-3.915a5.43 5.43 0 0 1 2.386-2.324c1.028-.514 2.238-.771 3.63-.771.87 0 1.715.067 2.535.199.829.133 1.442.249 1.84.348l-.995 4.922a5.255 5.255 0 0 0-.87-.174 5.918 5.918 0 0 0-.87-.075c-.646 0-1.081.137-1.305.411-.223.273-.335.633-.335 1.081V861h-6.861Zm12.988 0v-19.091h6.861V861h-6.861Zm3.431-21.08c-.928 0-1.724-.306-2.387-.919s-.994-1.351-.994-2.213c0-.861.331-1.599.994-2.212.663-.613 1.459-.92 2.387-.92.936 0 1.731.307 2.386.92.663.613.994 1.351.994 2.212 0 .862-.331 1.6-.994 2.213-.655.613-1.45.919-2.386.919Zm16.073 21.428c-2.038 0-3.795-.389-5.27-1.168a8.19 8.19 0 0 1-3.393-3.381c-.787-1.475-1.18-3.24-1.18-5.295 0-1.972.397-3.695 1.193-5.17a8.522 8.522 0 0 1 3.368-3.443c1.45-.82 3.161-1.23 5.133-1.23 1.442 0 2.747.223 3.915.671a8.201 8.201 0 0 1 2.996 1.951c.828.845 1.466 1.873 1.914 3.082.447 1.21.671 2.573.671 4.09v1.59h-17.053v-3.778h10.739c-.008-.547-.149-1.027-.423-1.442a2.693 2.693 0 0 0-1.081-.982c-.447-.24-.957-.36-1.529-.36-.555 0-1.064.12-1.528.36a2.895 2.895 0 0 0-1.119.97c-.273.414-.418.899-.435 1.454v4.077c0 .613.128 1.16.385 1.64.257.481.626.858 1.106 1.131.481.274 1.061.411 1.74.411.473 0 .904-.067 1.293-.199a2.9 2.9 0 0 0 1.019-.572c.282-.257.489-.563.622-.92h6.264c-.216 1.326-.725 2.478-1.529 3.455-.804.97-1.868 1.724-3.194 2.263-1.318.53-2.859.795-4.624.795Zm19.057-.099a6.968 6.968 0 0 1-3.754-1.069c-1.135-.713-2.046-1.794-2.734-3.244-.679-1.45-1.019-3.277-1.019-5.481 0-2.304.356-4.177 1.069-5.618.721-1.442 1.649-2.499 2.784-3.17 1.143-.671 2.345-1.006 3.604-1.006.945 0 1.774.165 2.486.497a5.207 5.207 0 0 1 1.79 1.305c.48.538.845 1.131 1.094 1.777h.099v-9.695h6.861V861h-6.811v-3.132h-.149a5.379 5.379 0 0 1-2.934 2.946c-.696.29-1.491.435-2.386.435Zm2.536-5.27c.629 0 1.168-.183 1.615-.547.456-.373.804-.895 1.044-1.566.249-.68.373-1.483.373-2.411 0-.945-.124-1.753-.373-2.424-.24-.68-.588-1.197-1.044-1.554-.447-.364-.986-.547-1.615-.547-.63 0-1.169.183-1.616.547-.439.357-.779.874-1.019 1.554-.232.671-.348 1.479-.348 2.424 0 .944.116 1.756.348 2.436.24.671.58 1.189 1.019 1.553.447.357.986.535 1.616.535Zm43.75-10.888h-7.01a4.78 4.78 0 0 0-.398-1.579 3.566 3.566 0 0 0-.87-1.218 3.628 3.628 0 0 0-1.33-.795c-.522-.191-1.115-.286-1.777-.286-1.16 0-2.142.282-2.946.845-.796.564-1.4 1.372-1.815 2.424-.406 1.052-.609 2.316-.609 3.791 0 1.557.207 2.863.622 3.915.422 1.044 1.031 1.831 1.827 2.361.795.522 1.752.783 2.871.783.638 0 1.21-.078 1.715-.236a4.02 4.02 0 0 0 1.318-.708c.372-.307.675-.676.907-1.106.24-.44.402-.933.485-1.479l7.01.049c-.083 1.077-.386 2.175-.908 3.294-.522 1.11-1.263 2.138-2.225 3.082-.952.937-2.133 1.691-3.542 2.262-1.408.572-3.045.858-4.909.858-2.337 0-4.433-.501-6.289-1.504-1.848-1.002-3.311-2.477-4.388-4.425-1.069-1.947-1.603-4.329-1.603-7.146 0-2.834.547-5.22 1.641-7.159 1.093-1.948 2.568-3.418 4.424-4.413 1.856-1.002 3.928-1.504 6.215-1.504 1.607 0 3.086.22 4.437.659 1.351.439 2.535 1.081 3.555 1.927a9.526 9.526 0 0 1 2.461 3.094c.621 1.227.998 2.631 1.131 4.214Zm10.095 5.17V861h-6.861v-25.455h6.612v9.993h.199c.431-1.218 1.148-2.166 2.15-2.846 1.003-.688 2.209-1.031 3.617-1.031 1.351 0 2.523.306 3.518.919a6.2 6.2 0 0 1 2.324 2.536c.555 1.077.829 2.312.82 3.704V861h-6.861v-10.739c.009-.944-.227-1.686-.708-2.224-.472-.539-1.148-.808-2.026-.808-.555 0-1.044.124-1.467.373-.414.24-.737.588-.969 1.044-.224.447-.34.986-.348 1.615ZM722.486 861v-19.091h6.861V861h-6.861Zm3.431-21.08c-.928 0-1.724-.306-2.387-.919s-.994-1.351-.994-2.213c0-.861.331-1.599.994-2.212.663-.613 1.459-.92 2.387-.92.936 0 1.731.307 2.386.92.663.613.994 1.351.994 2.212 0 .862-.331 1.6-.994 2.213-.655.613-1.45.919-2.386.919Zm13.786 10.341V861h-6.86v-19.091h6.512v3.629h.199c.415-1.209 1.144-2.158 2.188-2.846 1.052-.688 2.278-1.031 3.679-1.031 1.35 0 2.523.31 3.517.932a6.19 6.19 0 0 1 2.324 2.535c.556 1.077.829 2.308.821 3.692V861h-6.861v-10.739c.008-.944-.232-1.686-.721-2.224-.481-.539-1.152-.808-2.014-.808-.563 0-1.056.124-1.479.373a2.39 2.39 0 0 0-.957 1.044c-.223.447-.339.986-.348 1.615Zm24.914 11.087c-2.038 0-3.795-.389-5.27-1.168a8.19 8.19 0 0 1-3.393-3.381c-.787-1.475-1.18-3.24-1.18-5.295 0-1.972.397-3.695 1.193-5.17a8.522 8.522 0 0 1 3.368-3.443c1.45-.82 3.161-1.23 5.133-1.23 1.442 0 2.747.223 3.915.671a8.201 8.201 0 0 1 2.996 1.951c.828.845 1.466 1.873 1.914 3.082.447 1.21.671 2.573.671 4.09v1.59h-17.053v-3.778h10.739c-.008-.547-.149-1.027-.423-1.442a2.693 2.693 0 0 0-1.081-.982c-.447-.24-.957-.36-1.529-.36-.555 0-1.064.12-1.528.36a2.888 2.888 0 0 0-1.119.97c-.274.414-.419.899-.435 1.454v4.077c0 .613.128 1.16.385 1.64.257.481.626.858 1.106 1.131.481.274 1.061.411 1.74.411.473 0 .904-.067 1.293-.199a2.91 2.91 0 0 0 1.019-.572c.282-.257.489-.563.622-.92h6.264c-.216 1.326-.725 2.478-1.529 3.455-.804.97-1.868 1.724-3.194 2.263-1.318.53-2.859.795-4.624.795Zm29.597-13.224H787.9a1.738 1.738 0 0 0-.41-1.007 2.301 2.301 0 0 0-.932-.646 3.158 3.158 0 0 0-1.243-.237c-.589 0-1.094.108-1.517.324-.422.215-.629.522-.621.919-.008.282.112.543.36.783.257.241.75.427 1.479.56l3.878.696c1.956.356 3.41.957 4.363 1.802.961.837 1.446 1.959 1.454 3.368-.008 1.359-.414 2.54-1.218 3.542-.796.995-1.885 1.765-3.269 2.312-1.375.539-2.946.808-4.711.808-2.916 0-5.199-.597-6.848-1.79-1.64-1.193-2.556-2.767-2.747-4.723h6.811c.092.605.39 1.073.895 1.405.514.323 1.16.484 1.939.484.63 0 1.148-.107 1.554-.323.414-.215.625-.522.634-.919-.009-.365-.191-.655-.547-.87-.348-.216-.895-.39-1.641-.523l-3.38-.596c-1.948-.34-3.406-.986-4.375-1.939-.97-.953-1.451-2.179-1.442-3.679-.009-1.326.339-2.449 1.044-3.368.712-.928 1.727-1.633 3.045-2.113 1.326-.489 2.896-.733 4.71-.733 2.76 0 4.935.571 6.526 1.715 1.599 1.143 2.44 2.726 2.523 4.748Zm12.273 13.224c-2.038 0-3.795-.389-5.269-1.168a8.187 8.187 0 0 1-3.394-3.381c-.787-1.475-1.18-3.24-1.18-5.295 0-1.972.397-3.695 1.193-5.17a8.522 8.522 0 0 1 3.368-3.443c1.45-.82 3.161-1.23 5.133-1.23 1.442 0 2.747.223 3.915.671a8.201 8.201 0 0 1 2.996 1.951c.828.845 1.466 1.873 1.914 3.082.447 1.21.671 2.573.671 4.09v1.59h-17.053v-3.778h10.739c-.008-.547-.149-1.027-.423-1.442a2.693 2.693 0 0 0-1.081-.982c-.447-.24-.957-.36-1.529-.36-.555 0-1.064.12-1.528.36a2.895 2.895 0 0 0-1.119.97c-.273.414-.418.899-.435 1.454v4.077c0 .613.128 1.16.385 1.64.257.481.626.858 1.106 1.131.481.274 1.061.411 1.741.411.472 0 .903-.067 1.292-.199a2.9 2.9 0 0 0 1.019-.572c.282-.257.489-.563.622-.92h6.264c-.215 1.326-.725 2.478-1.529 3.455-.804.97-1.868 1.724-3.194 2.263-1.317.53-2.859.795-4.624.795ZM490.446 913.636l.135-2.997-2.528 1.627-.775-1.35 2.685-1.371-2.685-1.37.775-1.35 2.528 1.627-.135-2.997h1.541l-.135 2.997 2.529-1.627.774 1.35-2.685 1.37 2.685 1.371-.774 1.35-2.529-1.627.135 2.997h-1.541Zm12.157-6.292v-1.889h11.257v1.889h-4.538V920h-2.187v-12.656h-4.532Zm15.698 6.179V920h-2.123v-14.545h2.095v5.411h.135a3.13 3.13 0 0 1 1.172-1.399c.525-.345 1.212-.518 2.059-.518.748 0 1.402.154 1.96.462.564.307.999.767 1.307 1.377.313.606.469 1.364.469 2.273V920h-2.124v-6.683c0-.8-.206-1.421-.617-1.861-.412-.445-.985-.668-1.719-.668-.502 0-.952.107-1.35.32a2.306 2.306 0 0 0-.93.937c-.223.408-.334.9-.334 1.478Zm14.61 6.697c-1.075 0-2.001-.229-2.777-.689a4.67 4.67 0 0 1-1.79-1.953c-.417-.843-.625-1.83-.625-2.962 0-1.117.208-2.102.625-2.954.421-.852 1.008-1.518 1.761-1.996.758-.478 1.643-.717 2.656-.717.616 0 1.212.102 1.79.305a4.341 4.341 0 0 1 1.556.959c.459.436.821 1.001 1.086 1.698.265.691.398 1.531.398 2.521v.753h-8.672v-1.591h6.591c0-.559-.114-1.054-.341-1.485a2.571 2.571 0 0 0-.959-1.029c-.407-.251-.885-.377-1.434-.377-.597 0-1.118.147-1.563.44-.44.289-.781.668-1.023 1.137a3.289 3.289 0 0 0-.355 1.513v1.243c0 .729.128 1.349.384 1.86.26.512.622.902 1.086 1.172.464.265 1.007.398 1.627.398.402 0 .769-.057 1.101-.171a2.37 2.37 0 0 0 .859-.525c.242-.232.426-.519.554-.859l2.01.362a3.635 3.635 0 0 1-.867 1.555c-.411.44-.93.784-1.555 1.03-.62.241-1.328.362-2.123.362Zm19.24-4.744v-6.385h2.13V920h-2.088v-1.889h-.113a3.407 3.407 0 0 1-1.208 1.456c-.549.383-1.233.575-2.052.575-.701 0-1.321-.154-1.861-.462-.535-.312-.957-.774-1.264-1.385-.303-.61-.455-1.366-.455-2.265v-6.939h2.124v6.683c0 .744.206 1.335.618 1.776.411.44.947.66 1.605.66.397 0 .793-.099 1.186-.298.397-.199.727-.5.987-.902.265-.403.395-.914.391-1.534Zm13.158-3.722-1.924.341a2.303 2.303 0 0 0-.384-.703 1.895 1.895 0 0 0-.696-.547c-.294-.142-.66-.213-1.101-.213-.601 0-1.103.135-1.505.405-.403.265-.604.608-.604 1.03 0 .364.135.658.405.88.27.223.705.405 1.306.547l1.733.398c1.004.232 1.752.59 2.245 1.072.492.483.738 1.111.738 1.883a2.86 2.86 0 0 1-.568 1.747c-.374.506-.897.904-1.569 1.193-.668.289-1.442.433-2.323.433-1.221 0-2.218-.26-2.99-.781-.772-.526-1.245-1.271-1.42-2.237l2.052-.313c.128.535.391.94.789 1.215.397.27.916.405 1.555.405.696 0 1.252-.145 1.669-.434.417-.293.625-.651.625-1.072 0-.341-.128-.628-.384-.86-.25-.232-.636-.407-1.157-.525l-1.847-.405c-1.018-.232-1.771-.601-2.258-1.108-.483-.507-.725-1.148-.725-1.925 0-.644.18-1.207.54-1.69.36-.483.857-.859 1.491-1.129.635-.275 1.362-.412 2.181-.412 1.179 0 2.107.256 2.784.767.677.507 1.125 1.186 1.342 2.038Zm7.25 8.466c-1.075 0-2.001-.229-2.777-.689a4.676 4.676 0 0 1-1.79-1.953c-.416-.843-.625-1.83-.625-2.962 0-1.117.209-2.102.625-2.954.422-.852 1.009-1.518 1.762-1.996.757-.478 1.643-.717 2.656-.717.615 0 1.212.102 1.79.305a4.337 4.337 0 0 1 1.555.959c.459.436.821 1.001 1.087 1.698.265.691.397 1.531.397 2.521v.753h-8.672v-1.591h6.591c0-.559-.113-1.054-.341-1.485a2.569 2.569 0 0 0-.958-1.029c-.408-.251-.886-.377-1.435-.377-.597 0-1.117.147-1.562.44a2.948 2.948 0 0 0-1.023 1.137 3.276 3.276 0 0 0-.355 1.513v1.243c0 .729.128 1.349.383 1.86.261.512.623.902 1.087 1.172.464.265 1.006.398 1.626.398.403 0 .77-.057 1.101-.171a2.272 2.272 0 0 0 1.413-1.384l2.01.362a3.633 3.633 0 0 1-.866 1.555 4.2 4.2 0 0 1-1.555 1.03c-.621.241-1.329.362-2.124.362Zm16.925 0c-1.023 0-1.916-.234-2.678-.703s-1.354-1.124-1.775-1.967c-.422-.843-.633-1.828-.633-2.955 0-1.131.211-2.121.633-2.969.421-.847 1.013-1.505 1.775-1.974.762-.469 1.655-.703 2.678-.703 1.022 0 1.915.234 2.677.703.763.469 1.354 1.127 1.776 1.974.421.848.632 1.838.632 2.969 0 1.127-.211 2.112-.632 2.955-.422.843-1.013 1.498-1.776 1.967-.762.469-1.655.703-2.677.703Zm.007-1.782c.663 0 1.212-.176 1.647-.526.436-.35.758-.817.966-1.399a5.57 5.57 0 0 0 .32-1.925 5.55 5.55 0 0 0-.32-1.918c-.208-.587-.53-1.058-.966-1.413-.435-.355-.984-.533-1.647-.533-.668 0-1.222.178-1.662.533-.436.355-.76.826-.973 1.413a5.645 5.645 0 0 0-.313 1.918c0 .701.104 1.342.313 1.925.213.582.537 1.049.973 1.399.44.35.994.526 1.662.526Zm12.64-9.347v1.704h-6.165v-1.704h6.165ZM597.657 920v-12.173c0-.682.149-1.248.447-1.698a2.743 2.743 0 0 1 1.186-1.015 3.776 3.776 0 0 1 1.605-.341c.426 0 .791.035 1.094.106.303.067.528.128.675.185l-.497 1.719a9.604 9.604 0 0 0-.384-.1 2.212 2.212 0 0 0-.568-.064c-.516 0-.886.128-1.108.384-.218.256-.327.625-.327 1.108V920h-2.123Zm16.553.22c-1.056 0-1.965-.239-2.727-.717a4.743 4.743 0 0 1-1.747-1.996c-.407-.847-.611-1.818-.611-2.912 0-1.108.208-2.086.625-2.933.417-.852 1.004-1.518 1.761-1.996.758-.478 1.65-.717 2.678-.717.829 0 1.567.154 2.216.462a3.966 3.966 0 0 1 1.569 1.278c.403.549.642 1.191.718 1.925h-2.067a2.476 2.476 0 0 0-.781-1.321c-.403-.37-.942-.554-1.62-.554-.591 0-1.11.156-1.555.468-.44.308-.784.748-1.03 1.321-.246.569-.369 1.241-.369 2.017 0 .796.121 1.482.362 2.06.242.578.582 1.025 1.023 1.342.445.318.968.476 1.569.476.403 0 .767-.073 1.094-.22.332-.151.609-.367.831-.646a2.44 2.44 0 0 0 .476-1.009h2.067a4.025 4.025 0 0 1-.689 1.89 3.971 3.971 0 0 1-1.541 1.306c-.64.318-1.39.476-2.252.476Zm11.348 0c-1.023 0-1.915-.234-2.678-.703-.762-.469-1.354-1.124-1.775-1.967-.422-.843-.632-1.828-.632-2.955 0-1.131.21-2.121.632-2.969.421-.847 1.013-1.505 1.775-1.974.763-.469 1.655-.703 2.678-.703s1.915.234 2.677.703c.763.469 1.355 1.127 1.776 1.974.421.848.632 1.838.632 2.969 0 1.127-.211 2.112-.632 2.955-.421.843-1.013 1.498-1.776 1.967-.762.469-1.654.703-2.677.703Zm.007-1.782c.663 0 1.212-.176 1.648-.526.435-.35.757-.817.966-1.399a5.57 5.57 0 0 0 .319-1.925 5.55 5.55 0 0 0-.319-1.918c-.209-.587-.531-1.058-.966-1.413-.436-.355-.985-.533-1.648-.533-.668 0-1.222.178-1.662.533-.436.355-.76.826-.973 1.413a5.67 5.67 0 0 0-.312 1.918c0 .701.104 1.342.312 1.925.213.582.537 1.049.973 1.399.44.35.994.526 1.662.526Zm7.448 1.562v-10.909h2.039v1.775h.135a2.817 2.817 0 0 1 1.115-1.406c.516-.341 1.134-.511 1.854-.511.729 0 1.34.17 1.832.511.497.341.864.81 1.101 1.406h.113a3.078 3.078 0 0 1 1.243-1.392c.568-.35 1.246-.525 2.032-.525.989 0 1.796.31 2.421.93.63.621.945 1.556.945 2.806V920h-2.124v-7.116c0-.739-.201-1.274-.603-1.606-.403-.331-.883-.497-1.442-.497-.691 0-1.229.213-1.612.639-.384.422-.575.964-.575 1.627V920h-2.117v-7.251c0-.592-.185-1.068-.554-1.428-.369-.36-.85-.54-1.442-.54-.402 0-.774.107-1.115.32a2.35 2.35 0 0 0-.817.873c-.203.374-.305.808-.305 1.3V920h-2.124Zm17.676 0v-10.909h2.039v1.775h.135a2.817 2.817 0 0 1 1.115-1.406c.516-.341 1.134-.511 1.853-.511.729 0 1.34.17 1.833.511.497.341.864.81 1.101 1.406h.113a3.078 3.078 0 0 1 1.243-1.392c.568-.35 1.245-.525 2.031-.525.99 0 1.797.31 2.422.93.63.621.945 1.556.945 2.806V920h-2.124v-7.116c0-.739-.201-1.274-.603-1.606-.403-.331-.884-.497-1.442-.497-.692 0-1.229.213-1.612.639-.384.422-.576.964-.576 1.627V920h-2.116v-7.251c0-.592-.185-1.068-.554-1.428-.369-.36-.85-.54-1.442-.54-.402 0-.774.107-1.115.32a2.35 2.35 0 0 0-.817.873c-.203.374-.305.808-.305 1.3V920h-2.124Zm20.851.241c-.692 0-1.317-.127-1.875-.383a3.152 3.152 0 0 1-1.328-1.129c-.322-.493-.483-1.096-.483-1.811 0-.616.118-1.123.355-1.52.237-.398.556-.713.959-.945a4.988 4.988 0 0 1 1.349-.525 13.158 13.158 0 0 1 1.52-.27l1.591-.185c.407-.052.703-.135.888-.249.184-.113.277-.298.277-.554v-.049c0-.621-.176-1.101-.526-1.442-.346-.341-.862-.511-1.548-.511-.715 0-1.279.158-1.691.475-.407.313-.689.661-.845 1.045l-1.995-.455c.236-.663.582-1.198 1.036-1.605a4.22 4.22 0 0 1 1.584-.895 6.197 6.197 0 0 1 1.882-.284c.436 0 .898.052 1.385.156.493.1.952.284 1.378.554.431.27.784.656 1.058 1.158.275.497.412 1.143.412 1.939V920h-2.074v-1.491h-.085a3.013 3.013 0 0 1-.618.809 3.274 3.274 0 0 1-1.058.661c-.431.175-.947.262-1.548.262Zm.461-1.704c.588 0 1.089-.116 1.506-.348.422-.232.741-.535.959-.909.222-.379.334-.784.334-1.215v-1.406c-.076.076-.223.147-.441.213a6.909 6.909 0 0 1-.731.164l-.803.12-.653.085c-.412.053-.788.14-1.129.263a1.937 1.937 0 0 0-.81.533c-.199.227-.298.53-.298.909 0 .526.194.923.582 1.193.388.265.883.398 1.484.398ZM685.045 920v-10.909h2.123V920h-2.123Zm1.072-12.592a1.35 1.35 0 0 1-.952-.37 1.201 1.201 0 0 1-.39-.895c0-.35.13-.648.39-.894a1.34 1.34 0 0 1 .952-.377c.37 0 .684.126.945.377.265.246.398.544.398.894 0 .346-.133.644-.398.895-.261.247-.575.37-.945.37Zm6.032 6.115V920h-2.124v-10.909h2.039v1.775h.135a3.117 3.117 0 0 1 1.178-1.392c.54-.35 1.22-.525 2.039-.525.743 0 1.394.156 1.953.469.559.307.992.767 1.3 1.377.307.611.461 1.366.461 2.266V920h-2.123v-6.683c0-.791-.206-1.409-.618-1.854-.412-.45-.978-.675-1.698-.675-.492 0-.93.107-1.314.32a2.31 2.31 0 0 0-.902.937c-.217.408-.326.9-.326 1.478Zm20.215-4.432v1.704h-5.959v-1.704h5.959Zm-4.361-2.614h2.123v10.32c0 .412.062.722.185.93a.958.958 0 0 0 .476.419c.199.071.414.107.646.107.171 0 .32-.012.448-.036.128-.023.227-.042.298-.056l.383 1.754a3.697 3.697 0 0 1-.525.142 4.18 4.18 0 0 1-.852.085c-.559.01-1.08-.09-1.563-.298a2.693 2.693 0 0 1-1.172-.966c-.298-.436-.447-.983-.447-1.641v-10.76Zm9.068 7.046V920h-2.124v-14.545h2.095v5.411h.135a3.143 3.143 0 0 1 1.172-1.399c.526-.345 1.212-.518 2.06-.518.748 0 1.401.154 1.96.462.563.307.999.767 1.307 1.377.312.606.469 1.364.469 2.273V920h-2.124v-6.683c0-.8-.206-1.421-.618-1.861-.412-.445-.985-.668-1.719-.668-.502 0-.951.107-1.349.32a2.314 2.314 0 0 0-.931.937c-.222.408-.333.9-.333 1.478Zm14.609 6.697c-1.075 0-2-.229-2.777-.689a4.676 4.676 0 0 1-1.79-1.953c-.416-.843-.625-1.83-.625-2.962 0-1.117.209-2.102.625-2.954.422-.852 1.009-1.518 1.762-1.996.757-.478 1.643-.717 2.656-.717.615 0 1.212.102 1.79.305a4.337 4.337 0 0 1 1.555.959c.459.436.822 1.001 1.087 1.698.265.691.397 1.531.397 2.521v.753h-8.671v-1.591h6.59c0-.559-.113-1.054-.34-1.485a2.578 2.578 0 0 0-.959-1.029c-.407-.251-.886-.377-1.435-.377-.596 0-1.117.147-1.562.44a2.948 2.948 0 0 0-1.023 1.137 3.276 3.276 0 0 0-.355 1.513v1.243c0 .729.128 1.349.383 1.86.261.512.623.902 1.087 1.172.464.265 1.006.398 1.626.398.403 0 .77-.057 1.101-.171.332-.118.618-.293.86-.525.241-.232.426-.519.554-.859l2.009.362a3.622 3.622 0 0 1-.866 1.555 4.2 4.2 0 0 1-1.555 1.03c-.621.241-1.329.362-2.124.362Zm12.33-.22v-10.909h2.038v1.775h.135a2.817 2.817 0 0 1 1.115-1.406c.516-.341 1.134-.511 1.854-.511.729 0 1.34.17 1.832.511.497.341.864.81 1.101 1.406h.114a3.07 3.07 0 0 1 1.242-1.392c.569-.35 1.246-.525 2.032-.525.989 0 1.797.31 2.422.93.629.621.944 1.556.944 2.806V920h-2.123v-7.116c0-.739-.202-1.274-.604-1.606-.403-.331-.883-.497-1.442-.497-.691 0-1.229.213-1.612.639-.384.422-.575.964-.575 1.627V920h-2.117v-7.251c0-.592-.185-1.068-.554-1.428-.369-.36-.85-.54-1.442-.54-.402 0-.774.107-1.115.32a2.339 2.339 0 0 0-.816.873c-.204.374-.306.808-.306 1.3V920h-2.123Zm17.675 0v-10.909h2.124V920h-2.124Zm1.073-12.592c-.37 0-.687-.123-.952-.37a1.202 1.202 0 0 1-.391-.895c0-.35.131-.648.391-.894.265-.251.582-.377.952-.377.369 0 .684.126.944.377.266.246.398.544.398.894 0 .346-.132.644-.398.895a1.32 1.32 0 0 1-.944.37Zm7.992 12.805c-.881 0-1.667-.225-2.358-.675-.687-.454-1.227-1.101-1.62-1.939-.388-.842-.582-1.853-.582-3.032s.196-2.188.589-3.026c.398-.838.943-1.479 1.634-1.925.691-.445 1.475-.667 2.351-.667.677 0 1.221.113 1.633.341.417.222.739.483.966.781.232.298.412.561.54.788h.128v-5.404h2.123V920h-2.073v-1.697h-.178a5.572 5.572 0 0 1-.554.795c-.237.298-.563.559-.98.781-.417.223-.956.334-1.619.334Zm.468-1.811c.611 0 1.127-.161 1.549-.483.426-.327.748-.779.966-1.357.222-.577.333-1.25.333-2.017 0-.757-.108-1.42-.326-1.988-.218-.568-.538-1.011-.959-1.328-.422-.318-.942-.476-1.563-.476-.639 0-1.171.166-1.598.497-.426.331-.748.784-.966 1.357-.213.572-.319 1.219-.319 1.938 0 .73.109 1.385.327 1.968.217.582.539 1.044.965 1.385.431.336.962.504 1.591.504Zm12.051 1.811c-.881 0-1.666-.225-2.358-.675-.686-.454-1.226-1.101-1.619-1.939-.388-.842-.582-1.853-.582-3.032s.196-2.188.589-3.026c.398-.838.942-1.479 1.634-1.925.691-.445 1.474-.667 2.35-.667.677 0 1.222.113 1.634.341.417.222.739.483.966.781.232.298.412.561.54.788h.127v-5.404h2.124V920H786.6v-1.697h-.177a5.655 5.655 0 0 1-.554.795c-.237.298-.564.559-.981.781-.416.223-.956.334-1.619.334Zm.469-1.811c.611 0 1.127-.161 1.548-.483.426-.327.748-.779.966-1.357.223-.577.334-1.25.334-2.017 0-.757-.109-1.42-.327-1.988-.218-.568-.537-1.011-.959-1.328-.421-.318-.942-.476-1.562-.476-.639 0-1.172.166-1.598.497-.426.331-.748.784-.966 1.357-.213.572-.32 1.219-.32 1.938 0 .73.109 1.385.327 1.968.218.582.54 1.044.966 1.385.431.336.961.504 1.591.504Zm10.09-12.947V920h-2.123v-14.545h2.123Zm7.559 14.765c-1.075 0-2-.229-2.777-.689a4.676 4.676 0 0 1-1.79-1.953c-.416-.843-.625-1.83-.625-2.962 0-1.117.209-2.102.625-2.954.422-.852 1.009-1.518 1.762-1.996.757-.478 1.643-.717 2.656-.717.615 0 1.212.102 1.79.305a4.337 4.337 0 0 1 1.555.959c.459.436.822 1.001 1.087 1.698.265.691.397 1.531.397 2.521v.753h-8.671v-1.591h6.591c0-.559-.114-1.054-.341-1.485a2.578 2.578 0 0 0-.959-1.029c-.407-.251-.886-.377-1.435-.377-.596 0-1.117.147-1.562.44a2.948 2.948 0 0 0-1.023 1.137 3.276 3.276 0 0 0-.355 1.513v1.243c0 .729.128 1.349.383 1.86.261.512.623.902 1.087 1.172.464.265 1.006.398 1.626.398.403 0 .77-.057 1.101-.171.332-.118.618-.293.86-.525.241-.232.426-.519.554-.859l2.01.362a3.635 3.635 0 0 1-.867 1.555 4.2 4.2 0 0 1-1.555 1.03c-.621.241-1.328.362-2.124.362Z"/></svg>