<svg width="1920" height="1080" viewBox="0 0 1920 1080" fill="none" xmlns="http://www.w3.org/2000/svg">
<path d="M1517.52 395.48C1517.52 389.96 1521.12 387.24 1525.68 387.24C1530.32 387.24 1533.92 389.96 1533.92 395.48C1533.92 400.92 1530.32 403.72 1525.68 403.72C1521.12 403.72 1517.52 400.92 1517.52 395.48ZM1546.56 395.48C1546.56 384.28 1537.36 376.12 1525.68 376.12C1514.08 376.12 1504.88 384.28 1504.88 395.48C1504.88 406.6 1514.08 414.84 1525.68 414.84C1537.36 414.84 1546.56 406.6 1546.56 395.48ZM1528 420.12H1515.04V445.48H1566.64V435.32H1528V420.12ZM1564.4 392.36V371.56H1551.44V425.72H1564.4V402.84H1573.76V392.36H1564.4ZM1628.87 415.96H1641.83V371.4H1628.87V377H1612.79V386.68H1628.87V389.8H1612.79V399.48H1628.87V415.96ZM1620.63 401.56C1612.55 403 1605.11 403.48 1595.51 403.64V374.92H1582.63V413.96H1589.03C1602.31 413.96 1611.91 413.64 1622.07 411.72L1620.63 401.56ZM1616.07 436.84C1607.11 436.84 1602.87 435.48 1602.87 431.88C1602.87 428.36 1607.11 427 1616.07 427C1624.95 427 1629.19 428.36 1629.19 431.88C1629.19 435.48 1624.95 436.84 1616.07 436.84ZM1616.07 417.08C1599.99 417.08 1589.91 422.52 1589.91 431.88C1589.91 441.32 1599.99 446.76 1616.07 446.76C1632.07 446.76 1642.15 441.32 1642.15 431.88C1642.15 422.52 1632.07 417.08 1616.07 417.08ZM1571.03 524.2H1592.79V514.2H1571.03V503.72H1593.51V493.4H1558.07V546.2H1564.55C1576.87 546.2 1587.27 545.96 1598.55 544.36L1597.43 534.12C1588.31 535.48 1580.23 535.88 1571.03 535.96V524.2ZM1624.79 515.08H1614.71V487.48H1601.75V562.6H1614.71V525.64H1624.79V515.08ZM1678.78 487.56V527.96H1691.74V487.56H1678.78ZM1640.94 530.92V561.8H1691.74V530.92H1678.94V536.76H1653.74V530.92H1640.94ZM1653.74 546.52H1678.94V551.64H1653.74V546.52ZM1650.54 490.36C1638.7 490.36 1629.66 497.88 1629.66 508.28C1629.66 518.76 1638.7 526.28 1650.54 526.28C1662.38 526.28 1671.42 518.76 1671.42 508.28C1671.42 497.88 1662.38 490.36 1650.54 490.36ZM1650.54 500.92C1655.34 500.92 1658.78 503.4 1658.78 508.28C1658.78 513.24 1655.34 515.72 1650.54 515.72C1645.74 515.72 1642.3 513.24 1642.3 508.28C1642.3 503.4 1645.74 500.92 1650.54 500.92ZM1726.46 492.28C1714.7 492.28 1705.5 500.28 1705.5 511.16C1705.5 522.12 1714.7 530.12 1726.46 530.12C1738.3 530.12 1747.5 522.12 1747.5 511.16C1747.5 500.28 1738.3 492.28 1726.46 492.28ZM1726.46 503.24C1731.18 503.24 1734.86 505.88 1734.86 511.16C1734.86 516.52 1731.18 519.16 1726.46 519.16C1721.82 519.16 1718.14 516.52 1718.14 511.16C1718.14 505.88 1721.82 503.24 1726.46 503.24ZM1753.02 487.4V562.76H1765.98V487.4H1753.02ZM1704.22 548.2C1717.02 548.2 1734.22 547.96 1750.22 544.76L1749.34 535.56C1733.74 537.72 1715.74 537.88 1702.78 537.88L1704.22 548.2ZM1529.76 609.8H1517.2V621.48C1517.2 634.12 1514.56 647.56 1503.12 654.6L1510.8 664.28C1516.96 660.44 1520.96 654.36 1523.44 647C1525.76 653.56 1529.36 659.08 1535.12 662.6L1542 652.52C1531.6 645.48 1529.76 633.16 1529.76 620.84V609.8ZM1542.16 627.96H1534.4V638.28H1542.16V675.48H1554.16V604.52H1542.16V627.96ZM1557.44 603.48V678.52H1569.68V603.48H1557.44ZM1615.59 622.76H1610.31C1610.71 619.32 1610.87 615.8 1610.87 612.04H1581.59V622.2H1598.15C1596.79 636.28 1590.95 645.72 1576.79 654.28L1583.99 663.32C1597.99 655.16 1605.19 645.16 1608.55 632.92H1615.59V641.4H1606.95V651.64H1615.59V675.48H1627.59V605H1615.59V622.76ZM1631.27 603.48V678.44H1643.51V603.48H1631.27ZM1692.47 660.44V650.68H1714.47V640.52H1672.31V634.2H1712.79V607.96H1659.43V618.12H1699.99V624.28H1659.51V650.68H1679.51V660.44H1652.07V670.84H1719.99V660.44H1692.47Z" fill="#3C4043"/>
<path d="M1656.31 457.16C1667.43 453.8 1673.35 446.04 1673.35 435.72C1673.35 427.4 1669.91 422.44 1663.67 422.44C1658.71 422.44 1654.79 425.64 1654.79 430.44C1654.79 435.56 1658.87 438.44 1663.27 438.44H1663.99C1664.07 442.84 1660.39 447.16 1653.43 449.56L1656.31 457.16ZM1516 525.08C1520.24 525.08 1523.28 522.04 1523.28 517.32C1523.28 513 1520 510.28 1516 510.28C1515.68 510.28 1515.44 510.28 1515.12 510.36C1515.12 505.08 1517.84 501.48 1523.52 498.84L1520.48 492.6C1511.36 497.08 1506.96 503.8 1506.96 512.6C1506.96 520.52 1510.08 525.08 1516 525.08ZM1538.4 525.08C1542.64 525.08 1545.68 522.04 1545.68 517.32C1545.68 513 1542.4 510.28 1538.4 510.28C1538.08 510.28 1537.84 510.28 1537.52 510.36C1537.52 505.08 1540.24 501.48 1545.92 498.84L1542.88 492.6C1533.76 497.08 1529.36 503.8 1529.36 512.6C1529.36 520.52 1532.48 525.08 1538.4 525.08ZM1782.93 523.72C1791.97 519.32 1796.37 512.44 1796.37 503.64C1796.37 495.88 1793.33 491.32 1787.41 491.32C1783.17 491.32 1780.05 494.28 1780.05 499C1780.05 503.32 1783.33 506.04 1787.41 506.04C1787.73 506.04 1787.97 506.04 1788.29 505.96C1788.29 511.32 1785.49 514.84 1779.81 517.56L1782.93 523.72ZM1805.33 523.72C1814.37 519.32 1818.77 512.44 1818.77 503.64C1818.77 495.88 1815.73 491.32 1809.81 491.32C1805.57 491.32 1802.45 494.28 1802.45 499C1802.45 503.32 1805.73 506.04 1809.81 506.04C1810.13 506.04 1810.37 506.04 1810.69 505.96C1810.69 511.32 1807.89 514.84 1802.21 517.56L1805.33 523.72ZM1736.86 672.12C1741.74 672.12 1745.34 668.2 1745.34 663.24C1745.34 658.28 1741.74 654.44 1736.86 654.44C1731.9 654.44 1728.38 658.28 1728.38 663.24C1728.38 668.2 1731.9 672.12 1736.86 672.12Z" fill="#1A73E8"/>
<path d="M1081.05 426.2C1081.05 423.24 1084.25 421.56 1089.37 421.56C1091.37 421.56 1093.37 421.72 1095.29 422.04V423.48C1095.29 428.68 1093.93 430.68 1089.21 430.68C1084.81 430.68 1081.05 429.8 1081.05 426.2ZM1107.77 372.12H1093.21C1093.77 374.36 1094.01 377.72 1094.17 382.28C1094.25 385.72 1094.33 389.4 1094.33 394.36C1094.33 398.28 1094.57 404.84 1094.89 411C1093.69 410.92 1092.41 410.84 1091.21 410.84C1076.09 410.84 1068.41 417.8 1068.41 426.84C1068.41 438.6 1078.49 442.52 1090.17 442.52C1105.13 442.52 1108.57 435.16 1108.57 427.72V426.6C1114.89 429.96 1120.33 434.44 1124.49 438.6L1131.93 427.08C1126.57 421.96 1118.01 416.52 1107.85 413.4C1107.53 408.2 1107.21 402.68 1107.05 398.28C1113.45 398.12 1122.49 397.8 1128.97 397.24L1128.49 385.72C1122.17 386.36 1113.21 386.68 1106.89 386.84C1106.89 385.32 1106.89 383.8 1106.97 382.28C1107.13 378.76 1107.37 374.76 1107.77 372.12ZM1182.06 411.08C1182.06 422.6 1169.82 428.44 1149.74 430.6L1156.62 442.76C1179.74 439.72 1195.82 428.6 1195.82 411.56C1195.82 398.44 1186.7 390.76 1173.34 390.76C1163.82 390.76 1154.94 392.92 1148.94 394.28C1146.22 394.84 1142.38 395.48 1139.42 395.72L1143.02 409.48C1145.5 408.52 1149.1 407.08 1151.34 406.44C1155.02 405.32 1163.02 402.6 1171.58 402.6C1178.7 402.6 1182.06 406.6 1182.06 411.08ZM1151.82 371.32L1149.98 382.92C1159.26 384.52 1177.34 386.12 1186.94 386.76L1188.86 374.84C1180.06 374.84 1161.42 373.32 1151.82 371.32ZM1211.83 377.72V390.6C1218.47 391.08 1225.51 391.48 1234.07 391.48C1241.83 391.48 1252.39 391 1258.07 390.52V377.56C1251.75 378.2 1241.99 378.68 1233.99 378.68C1225.35 378.68 1217.83 378.36 1211.83 377.72ZM1220.55 412.52L1207.83 411.4C1207.27 414.28 1206.23 418.28 1206.23 423.16C1206.23 434.68 1215.35 441.24 1234.79 441.24C1245.91 441.24 1255.19 440.28 1262.87 438.6L1262.79 424.84C1255.11 426.84 1244.95 428.04 1234.31 428.04C1223.51 428.04 1219.35 424.6 1219.35 420.12C1219.35 417.56 1219.91 415.24 1220.55 412.52ZM1284.07 374.92L1284.63 387.24C1287.59 386.92 1290.47 386.6 1292.39 386.44C1295.59 386.12 1303.11 385.72 1306.23 385.48C1301.35 389.88 1292.15 397.8 1285.91 401.72C1281.67 402.2 1275.99 402.92 1271.75 403.32L1272.87 415.08C1280.07 413.8 1287.99 412.6 1294.63 412.12C1292.31 415 1290.79 419.48 1290.79 423.32C1290.79 437.24 1303.43 443.48 1324.47 442.6L1327.03 429.8C1323.99 430.04 1318.79 430.04 1314.47 429.64C1307.35 428.92 1303.27 426.6 1303.27 421.24C1303.27 415.24 1308.55 410.84 1315.59 409.88C1320.55 409.24 1328.79 409.32 1336.39 409.8L1336.31 398.36C1327.59 398.36 1314.95 399.08 1305.03 400.04C1309.99 396.2 1315.75 391.32 1321.35 387C1323.27 385.4 1326.79 383.08 1328.79 381.8L1321.19 372.84C1319.99 373.24 1317.99 373.64 1314.95 373.96C1309.91 374.52 1295.75 375.24 1292.39 375.24C1289.51 375.24 1286.95 375.16 1284.07 374.92ZM1159.08 541.16V543.08H1127.72V541.16H1159.08ZM1127.72 551.56V549.56H1159.08V551.56H1127.72ZM1116.52 560.84H1127.72V558.68H1159.08V560.84H1170.84V534.12H1116.52V560.84ZM1148.52 505.32H1158.92V507.32H1148.52V505.32ZM1148.52 495.56H1158.92V497.48H1148.52V495.56ZM1170.44 513.88V505.32H1179.4V497.48H1170.44V489H1148.52V484.28H1136.76V489H1114.68V495.56H1136.76V497.48H1106.6V505.32H1136.76V507.32H1113.8V513.88H1136.76V515.72H1112.28V522.52H1136.76V524.44H1106.52V532.28H1179.32V524.44H1148.52V522.52H1173.16V515.72H1148.52V513.88H1170.44ZM1239 537.56V520.68C1241.16 526.68 1243.64 532.44 1246.44 537.56H1239ZM1220.44 537.56C1223.08 532.76 1225.56 527.4 1227.64 521.8V537.56H1220.44ZM1260.12 508.84V497.8H1239V485.08H1227.64V497.8H1208.6V508.84H1222.68C1218.52 520.76 1211.88 532.6 1204.36 539.96V502.84C1206.68 497.96 1208.68 493.08 1210.36 488.28L1199.4 484.92C1195.88 495.88 1189.8 506.92 1183.32 513.96C1185.32 516.84 1188.44 523.4 1189.48 526.2C1190.76 524.76 1192.04 523.16 1193.32 521.48V560.52H1204.36V541.16C1206.92 543.24 1210.28 546.92 1212.04 549.4C1214.36 546.84 1216.6 543.88 1218.6 540.6V547.88H1227.64V559.96H1239V547.88H1248.52V541.24C1250.28 544.2 1252.12 546.84 1254.04 549.16C1256.04 546.12 1259.96 542.12 1262.68 540.12C1255.32 532.68 1248.52 520.6 1244.28 508.84H1260.12ZM1377.96 524.76C1377.96 506.6 1365.08 492.52 1344.68 492.52C1323.32 492.52 1306.92 508.68 1306.92 527.72C1306.92 541.4 1314.44 552.12 1324.36 552.12C1333.8 552.12 1341 541.4 1345.72 525.4C1347.96 517.96 1349.4 511 1350.44 504.52C1359.64 506.68 1364.68 514.04 1364.68 524.36C1364.68 534.92 1357.88 542.04 1347.72 544.52C1345.4 545.08 1343.24 545.56 1339.88 545.96L1347.24 557.48C1368.04 553.96 1377.96 541.64 1377.96 524.76ZM1319.48 526.44C1319.48 518.84 1325.4 508.04 1337.24 504.84C1336.28 511.08 1334.92 517.4 1333.16 522.84C1330.28 532.12 1327.88 537 1324.68 537C1321.88 537 1319.48 533.4 1319.48 526.44ZM1109.08 641V630.68H1117.32V641H1109.08ZM1129.08 654.76V630.68H1140.76V619.48H1129.08V602.2H1117.32V619.48H1109.08V601.48H1097.32V619.48H1088.68V603.16H1076.68V619.48H1065.48V630.68H1076.68V676.6H1088.68V671.96H1137.88V660.76H1088.68V630.68H1097.32V654.76H1109.08V651.8H1117.32V654.76H1129.08ZM1165.64 625.32H1177.16V629.48H1165.64V625.32ZM1165.64 612.68H1177.16V616.76H1165.64V612.68ZM1200.52 616.76H1188.92V612.68H1200.52V616.76ZM1188.92 629.48V625.32H1200.52V629.48H1188.92ZM1212.68 638.76V603.4H1154.04V638.76H1164.76C1159.48 642.92 1152.44 646.44 1145.08 648.52C1147.56 650.84 1151.08 655.24 1152.76 658.04C1157.32 656.36 1161.72 654.2 1165.72 651.48V652.92C1165.72 657.64 1163.96 663.88 1151 667.64C1153.56 669.88 1157.4 674.36 1158.92 677.16C1175.24 671.56 1177.72 661.08 1177.72 653.4V647.56H1171C1174.2 644.92 1177 641.96 1179.48 638.76H1187.24C1189.64 642.04 1192.52 645.08 1195.72 647.8H1189.48V676.28H1201.64V652.12C1205.32 654.52 1209.32 656.36 1213.64 657.8C1215.32 654.76 1218.84 650.2 1221.4 647.88C1213.72 646.04 1206.68 642.84 1201.32 638.76H1212.68ZM1225.16 644.12L1237 656.28C1238.52 653.96 1240.36 650.84 1242.28 647.96C1245.4 643.64 1250.52 636.2 1253.4 632.52C1255.48 629.88 1257 629.56 1259.48 632.28C1263.24 636.6 1269.16 644.2 1273.96 650.04C1278.84 655.88 1285.4 663.32 1290.92 668.6L1301 656.92C1293.16 649.88 1286.92 643.4 1281.64 637.64C1277.16 632.68 1270.68 624.28 1264.84 618.76C1258.68 612.92 1252.92 613.32 1246.84 620.2C1241.72 626.04 1235.88 633.8 1232.44 637.32C1229.88 640.04 1227.8 642.04 1225.16 644.12Z" fill="#3C4043"/>
<path d="M1358.93 443.08L1369.25 434.2C1365.73 429.72 1357.73 421.48 1352.13 416.84L1341.97 425.56C1347.49 430.44 1354.21 437.32 1358.93 443.08ZM1102.17 484.6H1074.97V535.4H1086.41V495H1102.17V484.6ZM1263.83 560.6H1291.03V509.8H1279.59V550.2H1263.83V560.6ZM1317.19 649C1309.83 649 1303.83 655 1303.83 662.36C1303.83 669.72 1309.83 675.72 1317.19 675.72C1324.63 675.72 1330.55 669.72 1330.55 662.36C1330.55 655 1324.63 649 1317.19 649ZM1317.19 669C1313.59 669 1310.55 666.04 1310.55 662.36C1310.55 658.68 1313.59 655.72 1317.19 655.72C1320.87 655.72 1323.83 658.68 1323.83 662.36C1323.83 666.04 1320.87 669 1317.19 669Z" fill="#FF6D7F"/>
<path d="M550.64 399.8C549.68 403.8 548.56 407.64 547.52 410.44L556.56 413.48C559.2 407.72 561.92 399.08 563.68 391.08L555.76 389L554.08 389.4H536.08C536.64 386.36 537.04 383.32 537.36 380.12L526.4 378.76C525.36 391 522.88 402.6 517.44 409.48C519.92 410.92 524.64 414.36 526.56 416.12C529.6 411.8 532 406.2 533.76 399.8H550.64ZM520.8 435.24C518.96 431.56 516.16 427.08 512.96 422.36C516.96 412.68 519.76 401.48 521.36 388.84L514.32 386.44L512.4 386.84H488.72V397H509.28C508.32 402.04 506.96 407 505.28 411.64C502.16 407.4 499.04 403.24 496.24 399.48L488.16 405.96C491.92 411.24 496.24 417.32 500.16 423.32C496.48 430.2 491.92 436.04 486.64 440.04C489.2 441.96 492.64 445.96 494.4 448.68C499.2 444.6 503.36 439.72 506.96 434.04C508.88 437.32 510.56 440.44 511.76 443.08L520.8 435.24ZM544.96 403H534V409.24C534 419.48 532.16 435.8 513.84 446.44C516.48 448.28 520.4 452.12 522.08 454.6C531.52 448.76 537.12 441.48 540.4 434.04C544.08 443.08 549.36 450.04 557.68 454.6C559.28 451.56 562.64 447 565.12 444.76C553.52 439.48 547.76 428.2 544.8 414.2C544.96 412.52 544.96 411 544.96 409.48V403ZM630.4 392.6V423.16C630.4 424.04 630.08 424.36 629.2 424.36C628.48 424.36 626.32 424.36 624.32 424.28V392.6H630.4ZM590.8 434.12C597.28 432.52 605.28 430.52 612.56 428.6L611.28 418.76C608.4 419.4 605.52 420.12 602.72 420.76V393.08C606.32 391.64 610.24 389.88 613.84 387.88V440.92H624.32V425.64C625.44 428.2 626.48 431.64 626.8 433.96C631.36 433.96 634.8 433.8 637.52 432.2C640.32 430.52 641.04 427.88 641.04 423.4V382.92H613.84V386.52L606.8 378.68C604.4 380.92 600.88 383.4 597.44 385.32L592.08 383.96V423.08C590.56 423.4 589.12 423.64 587.84 423.88L590.8 434.12ZM587.44 393.4C585.44 389.48 580.64 384.12 576.72 380.28L567.52 386.04C571.36 390.2 575.84 396.04 577.52 399.88L587.44 393.4ZM586.8 409.56H568.56V420.28H576V436.2C573.12 438.6 570 440.84 567.28 442.68L572.64 453.8C576.4 450.28 579.36 447.4 582.16 444.36C586.88 450.52 592.96 452.68 602.24 453.08C612.8 453.56 630.72 453.4 641.52 452.84C642.08 449.64 643.76 444.6 644.96 442.04C632.8 443.08 612.64 443.32 602.24 442.84C594.64 442.52 589.52 440.36 586.8 435.24V409.56ZM759.92 397.88V413.24H747.68L755.2 410.28C754.32 406.76 752 401.88 749.44 397.88H759.92ZM783.36 397.88C781.92 402.2 779.6 407.4 777.52 411.08L784.16 413.24H772.32V397.88H783.36ZM802.24 424.36V413.24H788.4C790.64 409.8 793.36 405.08 796 400.2L787.92 397.88H799.2V386.76H772.32V378.52H759.92V386.76H733.6V397.88H745.76L738.32 400.68C740.56 404.52 742.8 409.56 743.68 413.24H729.84V424.36H753.2C746.48 431.72 736.96 438.36 727.36 442.36C730 444.68 733.76 449.24 735.6 452.12C744.56 447.56 753.04 440.6 759.92 432.44V454.52H772.32V432.44C779.04 440.68 787.36 447.72 796.32 452.28C798.08 449.32 801.84 444.76 804.48 442.44C794.96 438.52 785.6 431.8 779.04 424.36H802.24ZM835.04 438.84V431.96H846.96V421.64H835.04V414.84H823.44V421.64H811.28V431.96H823.44V440.04C817.68 440.6 812.4 441.16 808 441.48L809.76 453.08C820.88 451.72 836 449.96 850 448.04L849.68 437.24L835.04 438.84ZM826.96 403.32C828.32 400.28 829.68 397 830.96 393.8H841.2L832.8 398.2C833.92 399.72 835.04 401.4 836.16 403.16L826.96 403.32ZM863.36 434.2V388.44H852.24V411.24C850.32 406.2 845.6 399.08 841.44 393.8H849.6V383.56H808.88V393.8H818.08C817.36 397 816.4 400.36 815.36 403.48L808.72 403.56L809.36 414.28C818.24 413.96 830.16 413.56 841.68 412.92C842.24 414.28 842.8 415.48 843.12 416.6L852.24 411.56V434.2H863.36ZM870.08 380.84V441.16C870.08 442.6 869.52 443 868.08 443.08C866.48 443.08 861.68 443.08 857.2 442.84C858.8 446.12 860.48 451.32 860.88 454.6C867.92 454.6 873.28 454.2 876.8 452.36C880.32 450.52 881.44 447.4 881.44 441.24V380.84H870.08ZM552.709 512.68H599.429V523.64H611.509V501.72H582.549V494.68H570.069V501.72H541.269V523.64H552.709V512.68ZM611.909 537.4H583.109C589.349 533.32 594.869 527.88 599.109 522.92L591.669 517.16L589.029 517.72H555.269V528.2H579.269C577.589 529.88 575.749 531.48 573.829 532.84H570.069V537.4H541.269V548.44H570.069V557.24C570.069 558.36 569.589 558.68 567.909 558.68C566.229 558.76 559.669 558.68 555.109 558.44C557.029 561.64 559.349 566.92 560.069 570.44C566.709 570.44 572.309 570.2 576.709 568.52C581.189 566.76 582.549 563.64 582.549 557.64V548.44H611.909V537.4ZM672.469 547.56V530.68C674.629 536.68 677.109 542.44 679.909 547.56H672.469ZM653.909 547.56C656.549 542.76 659.029 537.4 661.109 531.8V547.56H653.909ZM693.589 518.84V507.8H672.469V495.08H661.109V507.8H642.069V518.84H656.149C651.989 530.76 645.349 542.6 637.829 549.96V512.84C640.149 507.96 642.149 503.08 643.829 498.28L632.869 494.92C629.349 505.88 623.269 516.92 616.789 523.96C618.789 526.84 621.909 533.4 622.949 536.2C624.229 534.76 625.509 533.16 626.789 531.48V570.52H637.829V551.16C640.389 553.24 643.749 556.92 645.509 559.4C647.829 556.84 650.069 553.88 652.069 550.6V557.88H661.109V569.96H672.469V557.88H681.989V551.24C683.749 554.2 685.589 556.84 687.509 559.16C689.509 556.12 693.429 552.12 696.149 550.12C688.789 542.68 681.989 530.6 677.749 518.84H693.589ZM766.709 494.52C762.149 497.32 755.829 500.52 749.589 502.84L743.509 500.6V563.32H755.269V557.24H773.509V546.04H755.269V532.28H773.509V521.08H755.269V512.28C762.229 510.2 769.589 507.56 776.149 504.52L766.709 494.52ZM811.589 499.96H777.109V570.44H788.869V511.48H799.829V546.52C799.829 547.56 799.429 547.96 798.389 547.96C797.269 547.96 793.669 547.96 790.709 547.8C792.469 550.92 794.549 556.68 795.029 560.12C800.149 560.12 804.069 559.8 807.429 557.72C810.709 555.72 811.589 552.04 811.589 546.92V499.96ZM851.589 538.76H853.989V552.68C853.989 553.32 853.829 553.48 853.349 553.48C853.029 553.48 852.309 553.48 851.589 553.4V538.76ZM832.949 529.32C833.029 527.72 833.029 526.12 833.029 524.68V523.4H841.989V529.32H832.949ZM851.509 508.84V513.16H833.029V508.84H851.509ZM863.109 529.32H851.589V523.4H862.389V498.6H822.789V524.68C822.789 536.04 822.469 551.96 817.509 562.68C819.829 563.8 824.309 567.16 826.069 569.08C828.789 563.56 830.469 556.44 831.509 549.08V562.44H839.749V538.76H841.989V570.52H851.589V554.68C852.549 557.08 853.429 560.12 853.669 562.36C856.469 562.36 858.629 562.2 860.629 560.6C862.709 559.08 863.109 556.52 863.109 552.92V529.32ZM876.469 502.04H865.669V549.56H876.469V502.04ZM881.109 496.12V557.32C881.109 558.6 880.629 559 879.349 559C877.989 559 873.989 559 870.149 558.84C871.589 562.12 873.189 567.24 873.589 570.44C879.909 570.44 884.709 570.04 887.989 568.2C891.189 566.28 892.229 563.24 892.229 557.4V496.12H881.109ZM501.76 668.28V654.52H512.24V668.28H501.76ZM512.24 644.52H501.76V633.72H512.24V644.52ZM540.4 622.84C541.52 619.72 542.56 616.6 543.44 613.48L532.24 610.84C530.16 619.16 526.72 627.8 522.72 634.28V623.64H510.88C512.16 620.28 513.52 616.28 514.88 612.36L502.16 610.6C501.92 614.52 501.2 619.56 500.4 623.64H491.28V684.12H501.76V678.44H522.72V640.36C525.12 641.96 527.84 644.04 529.28 645.32C531.6 642.04 533.92 637.96 536.08 633.4H551.28C550.64 659.8 549.68 671.56 547.36 674.04C546.32 675.16 545.44 675.48 543.84 675.48C541.68 675.48 536.88 675.48 531.76 675C533.84 678.2 535.44 683.16 535.6 686.28C540.4 686.44 545.36 686.52 548.56 685.96C552.08 685.32 554.56 684.36 557.04 680.84C560.4 676.44 561.2 663.48 562.16 627.88C562.24 626.52 562.24 622.84 562.24 622.84H540.4ZM548.48 659.88C546.08 655.16 540.88 647.56 537.28 642.12L528.16 647.24C531.76 653.16 536.56 661 538.64 665.88L548.48 659.88ZM612.08 651V640.68H620.32V651H612.08ZM632.08 664.76V640.68H643.76V629.48H632.08V612.2H620.32V629.48H612.08V611.48H600.32V629.48H591.68V613.16H579.68V629.48H568.48V640.68H579.68V686.6H591.68V681.96H640.88V670.76H591.68V640.68H600.32V664.76H612.08V661.8H620.32V664.76H632.08ZM668.64 635.32H680.16V639.48H668.64V635.32ZM668.64 622.68H680.16V626.76H668.64V622.68ZM703.52 626.76H691.92V622.68H703.52V626.76ZM691.92 639.48V635.32H703.52V639.48H691.92ZM715.68 648.76V613.4H657.04V648.76H667.76C662.48 652.92 655.44 656.44 648.08 658.52C650.56 660.84 654.08 665.24 655.76 668.04C660.32 666.36 664.72 664.2 668.72 661.48V662.92C668.72 667.64 666.96 673.88 654 677.64C656.56 679.88 660.4 684.36 661.92 687.16C678.24 681.56 680.72 671.08 680.72 663.4V657.56H674C677.2 654.92 680 651.96 682.48 648.76H690.24C692.64 652.04 695.52 655.08 698.72 657.8H692.48V686.28H704.64V662.12C708.32 664.52 712.32 666.36 716.64 667.8C718.32 664.76 721.84 660.2 724.4 657.88C716.72 656.04 709.68 652.84 704.32 648.76H715.68Z" fill="#3C4043"/>
<path d="M500 533.08C504.24 533.08 507.28 530.04 507.28 525.32C507.28 521 504 518.28 500 518.28C499.68 518.28 499.44 518.28 499.12 518.36C499.12 513.08 501.84 509.48 507.52 506.84L504.48 500.6C495.36 505.08 490.96 511.8 490.96 520.6C490.96 528.52 494.08 533.08 500 533.08ZM522.4 533.08C526.64 533.08 529.68 530.04 529.68 525.32C529.68 521 526.4 518.28 522.4 518.28C522.08 518.28 521.84 518.28 521.52 518.36C521.52 513.08 524.24 509.48 529.92 506.84L526.88 500.6C517.76 505.08 513.36 511.8 513.36 520.6C513.36 528.52 516.48 533.08 522.4 533.08ZM906.149 531.72C915.189 527.32 919.589 520.44 919.589 511.64C919.589 503.88 916.549 499.32 910.629 499.32C906.389 499.32 903.269 502.28 903.269 507C903.269 511.32 906.549 514.04 910.629 514.04C910.949 514.04 911.189 514.04 911.509 513.96C911.509 519.32 908.709 522.84 903.029 525.56L906.149 531.72ZM928.549 531.72C937.589 527.32 941.989 520.44 941.989 511.64C941.989 503.88 938.949 499.32 933.029 499.32C928.789 499.32 925.669 502.28 925.669 507C925.669 511.32 928.949 514.04 933.029 514.04C933.349 514.04 933.589 514.04 933.909 513.96C933.909 519.32 931.109 522.84 925.429 525.56L928.549 531.72Z" fill="#1A73E8"/>
<path d="M715.834 569.08L726.154 560.2C722.634 555.72 714.634 547.48 709.034 542.84L698.874 551.56C704.394 556.44 711.114 563.32 715.834 569.08ZM742.221 659C734.861 659 728.861 665 728.861 672.36C728.861 679.72 734.861 685.72 742.221 685.72C749.661 685.72 755.581 679.72 755.581 672.36C755.581 665 749.661 659 742.221 659ZM742.221 679C738.621 679 735.581 676.04 735.581 672.36C735.581 668.68 738.621 665.72 742.221 665.72C745.901 665.72 748.861 668.68 748.861 672.36C748.861 676.04 745.901 679 742.221 679Z" fill="#FF6D7F"/>
<path d="M689.468 422.32C688.828 425.76 685.148 429.04 678.988 430.72L681.948 438.4C692.748 435.44 698.908 427.6 698.908 418.32C698.908 410.96 695.548 406.32 689.228 406.32C684.348 406.32 680.348 409.44 680.348 414.32C680.348 419.36 684.508 422.32 688.908 422.32H689.468Z" fill="#FF6D7F"/>
<path d="M115.75 451V392.818H131.545V415.545H152.455V392.818H168.25V451H152.455V428.273H131.545V451H115.75ZM196.886 451.795C192.227 451.795 188.212 450.905 184.841 449.125C181.489 447.326 178.903 444.75 177.085 441.398C175.286 438.027 174.386 433.992 174.386 429.295C174.386 424.788 175.295 420.848 177.114 417.477C178.932 414.106 181.498 411.483 184.812 409.608C188.127 407.733 192.038 406.795 196.545 406.795C199.841 406.795 202.824 407.307 205.494 408.33C208.165 409.352 210.447 410.839 212.341 412.79C214.235 414.722 215.693 417.07 216.716 419.835C217.739 422.6 218.25 425.716 218.25 429.182V432.818H179.273V424.182H203.818C203.799 422.932 203.477 421.833 202.852 420.886C202.246 419.92 201.422 419.172 200.381 418.642C199.358 418.093 198.193 417.818 196.886 417.818C195.617 417.818 194.453 418.093 193.392 418.642C192.331 419.172 191.479 419.911 190.835 420.858C190.21 421.805 189.879 422.913 189.841 424.182V433.5C189.841 434.902 190.134 436.152 190.722 437.25C191.309 438.348 192.152 439.21 193.25 439.835C194.348 440.46 195.674 440.773 197.227 440.773C198.307 440.773 199.292 440.621 200.182 440.318C201.091 440.015 201.867 439.58 202.511 439.011C203.155 438.424 203.629 437.723 203.932 436.909H218.25C217.758 439.939 216.593 442.572 214.756 444.807C212.919 447.023 210.485 448.746 207.455 449.977C204.443 451.189 200.92 451.795 196.886 451.795ZM240.331 392.818V451H224.649V392.818H240.331ZM264.003 392.818V451H248.321V392.818H264.003ZM293.016 451.795C288.281 451.795 284.228 450.858 280.857 448.983C277.485 447.089 274.9 444.456 273.101 441.085C271.302 437.695 270.402 433.765 270.402 429.295C270.402 424.826 271.302 420.905 273.101 417.534C274.9 414.144 277.485 411.511 280.857 409.636C284.228 407.742 288.281 406.795 293.016 406.795C297.75 406.795 301.804 407.742 305.175 409.636C308.546 411.511 311.131 414.144 312.93 417.534C314.73 420.905 315.629 424.826 315.629 429.295C315.629 433.765 314.73 437.695 312.93 441.085C311.131 444.456 308.546 447.089 305.175 448.983C301.804 450.858 297.75 451.795 293.016 451.795ZM293.129 440.205C294.455 440.205 295.601 439.759 296.567 438.869C297.533 437.979 298.281 436.71 298.811 435.062C299.341 433.415 299.607 431.455 299.607 429.182C299.607 426.89 299.341 424.93 298.811 423.301C298.281 421.653 297.533 420.384 296.567 419.494C295.601 418.604 294.455 418.159 293.129 418.159C291.728 418.159 290.525 418.604 289.521 419.494C288.518 420.384 287.75 421.653 287.22 423.301C286.69 424.93 286.425 426.89 286.425 429.182C286.425 431.455 286.69 433.415 287.22 435.062C287.75 436.71 288.518 437.979 289.521 438.869C290.525 439.759 291.728 440.205 293.129 440.205ZM177.938 504.364V515.727H149.188V504.364H177.938ZM154.756 493.909H170.438V533.966C170.438 534.572 170.542 535.083 170.75 535.5C170.958 535.898 171.28 536.201 171.716 536.409C172.152 536.598 172.71 536.693 173.392 536.693C173.866 536.693 174.415 536.636 175.04 536.523C175.684 536.409 176.157 536.314 176.46 536.239L178.733 547.261C178.032 547.47 177.028 547.725 175.722 548.028C174.434 548.331 172.9 548.53 171.119 548.625C167.521 548.814 164.5 548.445 162.057 547.517C159.614 546.57 157.777 545.083 156.545 543.057C155.314 541.03 154.718 538.492 154.756 535.443V493.909ZM193.882 564.364C192.083 564.364 190.369 564.222 188.74 563.938C187.111 563.672 185.681 563.303 184.45 562.83L187.859 551.693C189.147 552.148 190.321 552.441 191.382 552.574C192.462 552.706 193.38 552.631 194.138 552.347C194.914 552.063 195.473 551.523 195.814 550.727L196.155 549.932L180.814 504.364H197.178L204.223 534.591H204.678L211.837 504.364H228.314L212.405 551.636C211.609 554.042 210.454 556.201 208.939 558.114C207.443 560.045 205.473 561.57 203.03 562.688C200.587 563.805 197.537 564.364 193.882 564.364ZM232.774 564.364V504.364H248.342V511.977H248.683C249.251 510.5 250.085 509.146 251.183 507.915C252.282 506.665 253.645 505.67 255.274 504.932C256.903 504.174 258.797 503.795 260.956 503.795C263.835 503.795 266.571 504.562 269.166 506.097C271.78 507.631 273.901 510.045 275.53 513.341C277.178 516.636 278.001 520.917 278.001 526.182C278.001 531.22 277.215 535.396 275.643 538.71C274.09 542.025 272.007 544.496 269.393 546.125C266.799 547.754 263.948 548.568 260.842 548.568C258.797 548.568 256.969 548.237 255.359 547.574C253.768 546.892 252.405 545.973 251.268 544.818C250.151 543.644 249.289 542.318 248.683 540.841H248.456V564.364H232.774ZM248.115 526.182C248.115 528.303 248.39 530.14 248.939 531.693C249.507 533.227 250.303 534.42 251.325 535.273C252.367 536.106 253.607 536.523 255.047 536.523C256.486 536.523 257.708 536.116 258.712 535.301C259.734 534.468 260.511 533.284 261.041 531.75C261.59 530.197 261.865 528.341 261.865 526.182C261.865 524.023 261.59 522.176 261.041 520.642C260.511 519.089 259.734 517.905 258.712 517.091C257.708 516.258 256.486 515.841 255.047 515.841C253.607 515.841 252.367 516.258 251.325 517.091C250.303 517.905 249.507 519.089 248.939 520.642C248.39 522.176 248.115 524.023 248.115 526.182ZM305.48 548.795C300.821 548.795 296.806 547.905 293.435 546.125C290.082 544.326 287.497 541.75 285.679 538.398C283.88 535.027 282.98 530.992 282.98 526.295C282.98 521.788 283.889 517.848 285.707 514.477C287.526 511.106 290.092 508.483 293.406 506.608C296.721 504.733 300.632 503.795 305.139 503.795C308.435 503.795 311.418 504.307 314.088 505.33C316.759 506.352 319.041 507.839 320.935 509.79C322.829 511.722 324.287 514.07 325.31 516.835C326.332 519.6 326.844 522.716 326.844 526.182V529.818H287.866V521.182H312.412C312.393 519.932 312.071 518.833 311.446 517.886C310.84 516.92 310.016 516.172 308.974 515.642C307.952 515.093 306.787 514.818 305.48 514.818C304.211 514.818 303.046 515.093 301.986 515.642C300.925 516.172 300.073 516.911 299.429 517.858C298.804 518.805 298.473 519.913 298.435 521.182V530.5C298.435 531.902 298.728 533.152 299.315 534.25C299.902 535.348 300.745 536.21 301.844 536.835C302.942 537.46 304.268 537.773 305.821 537.773C306.901 537.773 307.885 537.621 308.776 537.318C309.685 537.015 310.461 536.58 311.105 536.011C311.749 535.424 312.223 534.723 312.526 533.909H326.844C326.351 536.939 325.187 539.572 323.349 541.807C321.512 544.023 319.079 545.746 316.048 546.977C313.037 548.189 309.514 548.795 305.48 548.795ZM123.705 645L112.795 601.364H128.477L133.477 627.955H133.818L139.386 601.364H154.614L160.409 627.727H160.75L165.523 601.364H181.205L170.295 645H153.364L147.227 621.591H146.773L140.636 645H123.705ZM206.219 645.795C201.484 645.795 197.431 644.858 194.06 642.983C190.688 641.089 188.103 638.456 186.304 635.085C184.505 631.695 183.605 627.765 183.605 623.295C183.605 618.826 184.505 614.905 186.304 611.534C188.103 608.144 190.688 605.511 194.06 603.636C197.431 601.742 201.484 600.795 206.219 600.795C210.954 600.795 215.007 601.742 218.378 603.636C221.749 605.511 224.334 608.144 226.134 611.534C227.933 614.905 228.832 618.826 228.832 623.295C228.832 627.765 227.933 631.695 226.134 635.085C224.334 638.456 221.749 641.089 218.378 642.983C215.007 644.858 210.954 645.795 206.219 645.795ZM206.332 634.205C207.658 634.205 208.804 633.759 209.77 632.869C210.736 631.979 211.484 630.71 212.014 629.062C212.545 627.415 212.81 625.455 212.81 623.182C212.81 620.89 212.545 618.93 212.014 617.301C211.484 615.653 210.736 614.384 209.77 613.494C208.804 612.604 207.658 612.159 206.332 612.159C204.931 612.159 203.728 612.604 202.724 613.494C201.721 614.384 200.954 615.653 200.423 617.301C199.893 618.93 199.628 620.89 199.628 623.182C199.628 625.455 199.893 627.415 200.423 629.062C200.954 630.71 201.721 631.979 202.724 632.869C203.728 633.759 204.931 634.205 206.332 634.205ZM235.196 645V601.364H250.423V609.659H250.878C251.673 606.591 252.933 604.347 254.656 602.926C256.399 601.506 258.435 600.795 260.764 600.795C261.446 600.795 262.118 600.852 262.781 600.966C263.463 601.061 264.116 601.203 264.741 601.392V614.773C263.965 614.508 263.009 614.309 261.872 614.176C260.736 614.044 259.76 613.977 258.946 613.977C257.412 613.977 256.029 614.328 254.798 615.028C253.586 615.71 252.63 616.676 251.929 617.926C251.228 619.157 250.878 620.606 250.878 622.273V645H235.196ZM285.565 586.818V645H269.884V586.818H285.565ZM309.351 645.568C306.245 645.568 303.385 644.754 300.771 643.125C298.177 641.496 296.093 639.025 294.521 635.71C292.968 632.396 292.192 628.22 292.192 623.182C292.192 617.917 293.006 613.636 294.635 610.341C296.283 607.045 298.404 604.631 300.999 603.097C303.612 601.562 306.358 600.795 309.237 600.795C311.396 600.795 313.29 601.174 314.919 601.932C316.548 602.67 317.911 603.665 319.01 604.915C320.108 606.146 320.942 607.5 321.51 608.977H321.737V586.818H337.419V645H321.851V637.841H321.51C320.904 639.318 320.033 640.644 318.896 641.818C317.779 642.973 316.415 643.892 314.805 644.574C313.214 645.237 311.396 645.568 309.351 645.568ZM315.146 633.523C316.586 633.523 317.817 633.106 318.839 632.273C319.881 631.42 320.677 630.227 321.226 628.693C321.794 627.14 322.078 625.303 322.078 623.182C322.078 621.023 321.794 619.176 321.226 617.642C320.677 616.089 319.881 614.905 318.839 614.091C317.817 613.258 316.586 612.841 315.146 612.841C313.707 612.841 312.476 613.258 311.453 614.091C310.449 614.905 309.673 616.089 309.124 617.642C308.593 619.176 308.328 621.023 308.328 623.182C308.328 625.341 308.593 627.197 309.124 628.75C309.673 630.284 310.449 631.468 311.453 632.301C312.476 633.116 313.707 633.523 315.146 633.523Z" fill="#3C4043"/>
<path d="M337.22 443.045L336.993 446.227C336.804 448.955 336.349 451.568 335.629 454.068C334.929 456.568 334.18 458.784 333.385 460.716C332.608 462.648 331.993 464.144 331.538 465.205H321.879C322.182 464.144 322.608 462.61 323.158 460.602C323.726 458.614 324.237 456.36 324.692 453.841C325.165 451.341 325.402 448.803 325.402 446.227V443.045H337.22ZM116.773 508V501.182C116.773 499.326 117.152 497.46 117.909 495.585C118.667 493.71 119.623 491.977 120.778 490.386C121.934 488.795 123.098 487.508 124.273 486.523L130.75 489.818C129.765 491.466 128.998 493.189 128.449 494.989C127.919 496.788 127.663 498.852 127.682 501.182V508H116.773ZM130.977 508V501.182C130.977 499.326 131.356 497.46 132.114 495.585C132.871 493.71 133.828 491.977 134.983 490.386C136.138 488.795 137.303 487.508 138.477 486.523L144.955 489.818C143.97 491.466 143.203 493.189 142.653 494.989C142.123 496.788 141.867 498.852 141.886 501.182V508H130.977ZM346.197 489.818V496.636C346.197 498.492 345.819 500.348 345.061 502.205C344.322 504.042 343.375 505.756 342.22 507.347C341.084 508.919 339.91 510.235 338.697 511.295L332.22 508C333.016 506.636 333.726 505.055 334.351 503.256C334.976 501.456 335.288 499.25 335.288 496.636V489.818H346.197ZM360.288 489.818V496.636C360.288 498.492 359.91 500.348 359.152 502.205C358.413 504.042 357.466 505.756 356.311 507.347C355.175 508.919 354 510.235 352.788 511.295L346.311 508C347.107 506.636 347.817 505.055 348.442 503.256C349.067 501.456 349.379 499.25 349.379 496.636V489.818H360.288ZM353.641 645.909C351.444 645.909 349.559 645.142 347.987 643.608C346.434 642.055 345.667 640.17 345.686 637.955C345.667 635.795 346.434 633.949 347.987 632.415C349.559 630.881 351.444 630.114 353.641 630.114C355.724 630.114 357.561 630.881 359.152 632.415C360.762 633.949 361.576 635.795 361.595 637.955C361.576 639.432 361.188 640.777 360.43 641.989C359.692 643.182 358.726 644.138 357.533 644.858C356.339 645.559 355.042 645.909 353.641 645.909Z" fill="#1A73E8"/>
<path d="M113.641 819V793.545H120.551V813.432H130.842V819H113.641ZM139.055 819.298C137.837 819.298 136.76 819.099 135.823 818.702C134.895 818.296 134.166 817.683 133.636 816.862C133.105 816.042 132.84 814.998 132.84 813.73C132.84 812.686 133.018 811.795 133.375 811.058C133.731 810.312 134.228 809.703 134.866 809.231C135.504 808.759 136.246 808.398 137.091 808.15C137.944 807.901 138.864 807.739 139.85 807.665C140.919 807.582 141.777 807.482 142.423 807.366C143.078 807.242 143.55 807.072 143.84 806.857C144.13 806.633 144.275 806.339 144.275 805.974V805.925C144.275 805.428 144.084 805.046 143.703 804.781C143.322 804.516 142.833 804.384 142.237 804.384C141.582 804.384 141.048 804.529 140.633 804.819C140.227 805.1 139.983 805.535 139.9 806.124H133.586C133.669 804.964 134.038 803.895 134.692 802.917C135.355 801.931 136.32 801.144 137.588 800.555C138.856 799.959 140.439 799.661 142.336 799.661C143.703 799.661 144.93 799.822 146.015 800.145C147.1 800.46 148.024 800.903 148.787 801.475C149.549 802.039 150.129 802.701 150.527 803.464C150.933 804.218 151.136 805.038 151.136 805.925V819H144.722V816.315H144.573C144.192 817.028 143.728 817.604 143.181 818.043C142.643 818.482 142.025 818.801 141.329 819C140.642 819.199 139.883 819.298 139.055 819.298ZM141.292 814.973C141.814 814.973 142.303 814.865 142.759 814.65C143.223 814.434 143.6 814.124 143.89 813.718C144.18 813.312 144.325 812.819 144.325 812.239V810.648C144.142 810.722 143.948 810.793 143.741 810.859C143.542 810.925 143.326 810.987 143.094 811.045C142.87 811.103 142.63 811.157 142.373 811.207C142.125 811.257 141.864 811.302 141.59 811.344C141.06 811.427 140.625 811.563 140.285 811.754C139.954 811.936 139.705 812.164 139.54 812.438C139.382 812.703 139.303 813.001 139.303 813.332C139.303 813.863 139.49 814.269 139.863 814.55C140.236 814.832 140.712 814.973 141.292 814.973ZM165.799 799.909V804.881H153.221V799.909H165.799ZM155.657 795.335H162.518V812.86C162.518 813.125 162.563 813.349 162.654 813.531C162.745 813.705 162.886 813.838 163.077 813.929C163.267 814.012 163.512 814.053 163.81 814.053C164.017 814.053 164.258 814.028 164.531 813.979C164.813 813.929 165.02 813.888 165.153 813.854L166.147 818.677C165.84 818.768 165.401 818.88 164.829 819.012C164.266 819.145 163.595 819.232 162.816 819.273C161.242 819.356 159.92 819.195 158.851 818.789C157.782 818.374 156.978 817.724 156.44 816.837C155.901 815.951 155.64 814.84 155.657 813.506V795.335ZM168.598 819V799.909H175.459V819H168.598ZM172.029 797.92C171.101 797.92 170.305 797.614 169.642 797.001C168.98 796.388 168.648 795.65 168.648 794.788C168.648 793.927 168.98 793.189 169.642 792.576C170.305 791.963 171.101 791.656 172.029 791.656C172.965 791.656 173.761 791.963 174.415 792.576C175.078 793.189 175.41 793.927 175.41 794.788C175.41 795.65 175.078 796.388 174.415 797.001C173.761 797.614 172.965 797.92 172.029 797.92ZM185.816 808.261V819H178.955V799.909H185.468V803.538H185.667C186.081 802.329 186.81 801.38 187.854 800.692C188.906 800.004 190.133 799.661 191.533 799.661C192.884 799.661 194.056 799.971 195.05 800.593C196.053 801.206 196.828 802.051 197.375 803.128C197.93 804.205 198.203 805.436 198.195 806.82V819H191.334V808.261C191.342 807.317 191.102 806.575 190.613 806.037C190.133 805.498 189.462 805.229 188.6 805.229C188.036 805.229 187.543 805.353 187.121 805.602C186.706 805.842 186.387 806.19 186.164 806.646C185.94 807.093 185.824 807.632 185.816 808.261Z" fill="#1A73E8"/>
<path d="M486.945 799.114V793.545H509.068V799.114H501.412V819H494.601V799.114H486.945ZM509.786 819V799.909H516.448V803.538H516.647C516.995 802.196 517.546 801.214 518.3 800.593C519.062 799.971 519.953 799.661 520.972 799.661C521.27 799.661 521.564 799.685 521.854 799.735C522.153 799.777 522.439 799.839 522.712 799.922V805.776C522.372 805.66 521.954 805.573 521.457 805.515C520.96 805.457 520.533 805.428 520.177 805.428C519.505 805.428 518.901 805.581 518.362 805.887C517.832 806.186 517.413 806.608 517.107 807.155C516.8 807.694 516.647 808.328 516.647 809.057V819H509.786ZM529.393 819.298C528.175 819.298 527.097 819.099 526.161 818.702C525.233 818.296 524.504 817.683 523.974 816.862C523.443 816.042 523.178 814.998 523.178 813.73C523.178 812.686 523.356 811.795 523.713 811.058C524.069 810.312 524.566 809.703 525.204 809.231C525.842 808.759 526.584 808.398 527.429 808.15C528.282 807.901 529.202 807.739 530.188 807.665C531.257 807.582 532.115 807.482 532.761 807.366C533.416 807.242 533.888 807.072 534.178 806.857C534.468 806.633 534.613 806.339 534.613 805.974V805.925C534.613 805.428 534.422 805.046 534.041 804.781C533.66 804.516 533.171 804.384 532.574 804.384C531.92 804.384 531.385 804.529 530.971 804.819C530.565 805.1 530.321 805.535 530.238 806.124H523.924C524.007 804.964 524.376 803.895 525.03 802.917C525.693 801.931 526.658 801.144 527.926 800.555C529.194 799.959 530.776 799.661 532.674 799.661C534.041 799.661 535.267 799.822 536.353 800.145C537.438 800.46 538.362 800.903 539.125 801.475C539.887 802.039 540.467 802.701 540.865 803.464C541.271 804.218 541.474 805.038 541.474 805.925V819H535.06V816.315H534.911C534.53 817.028 534.066 817.604 533.519 818.043C532.98 818.482 532.363 818.801 531.667 819C530.979 819.199 530.221 819.298 529.393 819.298ZM531.63 814.973C532.152 814.973 532.641 814.865 533.097 814.65C533.561 814.434 533.938 814.124 534.228 813.718C534.518 813.312 534.663 812.819 534.663 812.239V810.648C534.48 810.722 534.286 810.793 534.078 810.859C533.88 810.925 533.664 810.987 533.432 811.045C533.208 811.103 532.968 811.157 532.711 811.207C532.463 811.257 532.202 811.302 531.928 811.344C531.398 811.427 530.963 811.563 530.623 811.754C530.292 811.936 530.043 812.164 529.877 812.438C529.72 812.703 529.641 813.001 529.641 813.332C529.641 813.863 529.828 814.269 530.201 814.55C530.573 814.832 531.05 814.973 531.63 814.973ZM551.662 819.249C550.303 819.249 549.052 818.892 547.909 818.18C546.774 817.467 545.862 816.386 545.174 814.936C544.495 813.486 544.155 811.659 544.155 809.455C544.155 807.151 544.511 805.278 545.224 803.837C545.945 802.395 546.873 801.338 548.008 800.667C549.152 799.996 550.353 799.661 551.613 799.661C552.557 799.661 553.386 799.826 554.098 800.158C554.811 800.481 555.408 800.916 555.888 801.463C556.369 802.001 556.733 802.594 556.982 803.24H557.081V793.545H563.942V819H557.131V815.868H556.982C556.717 816.514 556.336 817.094 555.838 817.608C555.35 818.113 554.753 818.515 554.049 818.814C553.353 819.104 552.557 819.249 551.662 819.249ZM554.198 813.979C554.828 813.979 555.366 813.796 555.814 813.432C556.269 813.059 556.617 812.537 556.858 811.866C557.106 811.186 557.23 810.383 557.23 809.455C557.23 808.51 557.106 807.702 556.858 807.031C556.617 806.351 556.269 805.834 555.814 805.477C555.366 805.113 554.828 804.93 554.198 804.93C553.568 804.93 553.029 805.113 552.582 805.477C552.143 805.834 551.803 806.351 551.563 807.031C551.331 807.702 551.215 808.51 551.215 809.455C551.215 810.399 551.331 811.211 551.563 811.891C551.803 812.562 552.143 813.08 552.582 813.444C553.029 813.801 553.568 813.979 554.198 813.979ZM567.31 819V799.909H574.171V819H567.31ZM570.741 797.92C569.813 797.92 569.017 797.614 568.354 797.001C567.692 796.388 567.36 795.65 567.36 794.788C567.36 793.927 567.692 793.189 568.354 792.576C569.017 791.963 569.813 791.656 570.741 791.656C571.677 791.656 572.473 791.963 573.127 792.576C573.79 793.189 574.121 793.927 574.121 794.788C574.121 795.65 573.79 796.388 573.127 797.001C572.473 797.614 571.677 797.92 570.741 797.92ZM589.052 799.909V804.881H576.474V799.909H589.052ZM578.91 795.335H585.771V812.86C585.771 813.125 585.816 813.349 585.907 813.531C585.998 813.705 586.139 813.838 586.33 813.929C586.52 814.012 586.765 814.053 587.063 814.053C587.27 814.053 587.511 814.028 587.784 813.979C588.066 813.929 588.273 813.888 588.405 813.854L589.4 818.677C589.093 818.768 588.654 818.88 588.082 819.012C587.519 819.145 586.848 819.232 586.069 819.273C584.494 819.356 583.173 819.195 582.104 818.789C581.035 818.374 580.231 817.724 579.693 816.837C579.154 815.951 578.893 814.84 578.91 813.506V795.335ZM591.851 819V799.909H598.712V819H591.851ZM595.282 797.92C594.354 797.92 593.558 797.614 592.895 797.001C592.233 796.388 591.901 795.65 591.901 794.788C591.901 793.927 592.233 793.189 592.895 792.576C593.558 791.963 594.354 791.656 595.282 791.656C596.218 791.656 597.014 791.963 597.668 792.576C598.331 793.189 598.662 793.927 598.662 794.788C598.662 795.65 598.331 796.388 597.668 797.001C597.014 797.614 596.218 797.92 595.282 797.92ZM611.405 819.348C609.334 819.348 607.561 818.938 606.086 818.118C604.611 817.289 603.48 816.137 602.693 814.662C601.905 813.179 601.512 811.46 601.512 809.504C601.512 807.549 601.905 805.834 602.693 804.359C603.48 802.875 604.611 801.724 606.086 800.903C607.561 800.075 609.334 799.661 611.405 799.661C613.477 799.661 615.25 800.075 616.725 800.903C618.2 801.724 619.331 802.875 620.118 804.359C620.905 805.834 621.299 807.549 621.299 809.504C621.299 811.46 620.905 813.179 620.118 814.662C619.331 816.137 618.2 817.289 616.725 818.118C615.25 818.938 613.477 819.348 611.405 819.348ZM611.455 814.277C612.035 814.277 612.536 814.082 612.959 813.693C613.381 813.303 613.709 812.748 613.941 812.027C614.173 811.306 614.289 810.449 614.289 809.455C614.289 808.452 614.173 807.594 613.941 806.882C613.709 806.161 613.381 805.606 612.959 805.216C612.536 804.827 612.035 804.632 611.455 804.632C610.842 804.632 610.316 804.827 609.877 805.216C609.437 805.606 609.102 806.161 608.87 806.882C608.638 807.594 608.522 808.452 608.522 809.455C608.522 810.449 608.638 811.306 608.87 812.027C609.102 812.748 609.437 813.303 609.877 813.693C610.316 814.082 610.842 814.277 611.455 814.277ZM630.944 808.261V819H624.083V799.909H630.596V803.538H630.794C631.209 802.329 631.938 801.38 632.982 800.692C634.034 800.004 635.261 799.661 636.661 799.661C638.012 799.661 639.184 799.971 640.178 800.593C641.181 801.206 641.956 802.051 642.503 803.128C643.058 804.205 643.331 805.436 643.323 806.82V819H636.462V808.261C636.47 807.317 636.23 806.575 635.741 806.037C635.261 805.498 634.589 805.229 633.728 805.229C633.164 805.229 632.671 805.353 632.249 805.602C631.834 805.842 631.515 806.19 631.292 806.646C631.068 807.093 630.952 807.632 630.944 808.261ZM652.029 819.298C650.811 819.298 649.734 819.099 648.798 818.702C647.87 818.296 647.141 817.683 646.61 816.862C646.08 816.042 645.815 814.998 645.815 813.73C645.815 812.686 645.993 811.795 646.349 811.058C646.706 810.312 647.203 809.703 647.841 809.231C648.479 808.759 649.22 808.398 650.066 808.15C650.919 807.901 651.839 807.739 652.825 807.665C653.894 807.582 654.751 807.482 655.398 807.366C656.052 807.242 656.525 807.072 656.815 806.857C657.105 806.633 657.25 806.339 657.25 805.974V805.925C657.25 805.428 657.059 805.046 656.678 804.781C656.297 804.516 655.808 804.384 655.211 804.384C654.557 804.384 654.022 804.529 653.608 804.819C653.202 805.1 652.957 805.535 652.875 806.124H646.561C646.643 804.964 647.012 803.895 647.667 802.917C648.33 801.931 649.295 801.144 650.563 800.555C651.831 799.959 653.413 799.661 655.311 799.661C656.678 799.661 657.904 799.822 658.99 800.145C660.075 800.46 660.999 800.903 661.761 801.475C662.524 802.039 663.104 802.701 663.501 803.464C663.907 804.218 664.11 805.038 664.11 805.925V819H657.697V816.315H657.548C657.167 817.028 656.703 817.604 656.156 818.043C655.617 818.482 655 818.801 654.304 819C653.616 819.199 652.858 819.298 652.029 819.298ZM654.267 814.973C654.789 814.973 655.277 814.865 655.733 814.65C656.197 814.434 656.574 814.124 656.864 813.718C657.154 813.312 657.299 812.819 657.299 812.239V810.648C657.117 810.722 656.922 810.793 656.715 810.859C656.516 810.925 656.301 810.987 656.069 811.045C655.845 811.103 655.605 811.157 655.348 811.207C655.099 811.257 654.838 811.302 654.565 811.344C654.035 811.427 653.6 811.563 653.26 811.754C652.928 811.936 652.68 812.164 652.514 812.438C652.357 812.703 652.278 813.001 652.278 813.332C652.278 813.863 652.464 814.269 652.837 814.55C653.21 814.832 653.687 814.973 654.267 814.973ZM674.249 793.545V819H667.388V793.545H674.249ZM708.382 803.091H701.372C701.323 802.511 701.19 801.985 700.975 801.512C700.768 801.04 700.478 800.634 700.105 800.294C699.74 799.946 699.297 799.681 698.775 799.499C698.253 799.308 697.66 799.213 696.997 799.213C695.837 799.213 694.855 799.495 694.052 800.058C693.256 800.622 692.651 801.43 692.237 802.482C691.831 803.534 691.628 804.798 691.628 806.273C691.628 807.83 691.835 809.136 692.25 810.188C692.672 811.232 693.281 812.019 694.077 812.549C694.872 813.071 695.829 813.332 696.948 813.332C697.586 813.332 698.157 813.254 698.663 813.096C699.168 812.931 699.608 812.694 699.98 812.388C700.353 812.081 700.656 811.712 700.888 811.282C701.128 810.842 701.29 810.349 701.372 809.803L708.382 809.852C708.3 810.929 707.997 812.027 707.475 813.146C706.953 814.256 706.211 815.284 705.25 816.228C704.297 817.165 703.117 817.919 701.708 818.49C700.299 819.062 698.663 819.348 696.799 819.348C694.462 819.348 692.366 818.847 690.509 817.844C688.662 816.842 687.199 815.367 686.122 813.419C685.053 811.472 684.519 809.09 684.519 806.273C684.519 803.439 685.066 801.053 686.159 799.114C687.253 797.166 688.728 795.696 690.584 794.701C692.44 793.699 694.512 793.197 696.799 793.197C698.406 793.197 699.885 793.417 701.236 793.856C702.586 794.295 703.771 794.937 704.79 795.783C705.81 796.62 706.63 797.651 707.251 798.877C707.873 800.104 708.25 801.508 708.382 803.091ZM718.478 808.261V819H711.617V793.545H718.229V803.538H718.428C718.859 802.32 719.576 801.372 720.578 800.692C721.581 800.004 722.787 799.661 724.195 799.661C725.546 799.661 726.718 799.967 727.713 800.58C728.715 801.193 729.49 802.039 730.037 803.116C730.592 804.193 730.865 805.428 730.857 806.82V819H723.996V808.261C724.005 807.317 723.768 806.575 723.288 806.037C722.816 805.498 722.14 805.229 721.262 805.229C720.707 805.229 720.218 805.353 719.795 805.602C719.381 805.842 719.058 806.19 718.826 806.646C718.602 807.093 718.486 807.632 718.478 808.261ZM734.244 819V799.909H741.105V819H734.244ZM737.674 797.92C736.746 797.92 735.951 797.614 735.288 797.001C734.625 796.388 734.294 795.65 734.294 794.788C734.294 793.927 734.625 793.189 735.288 792.576C735.951 791.963 736.746 791.656 737.674 791.656C738.611 791.656 739.406 791.963 740.061 792.576C740.724 793.189 741.055 793.927 741.055 794.788C741.055 795.65 740.724 796.388 740.061 797.001C739.406 797.614 738.611 797.92 737.674 797.92ZM751.461 808.261V819H744.6V799.909H751.113V803.538H751.312C751.726 802.329 752.456 801.38 753.5 800.692C754.552 800.004 755.778 799.661 757.179 799.661C758.529 799.661 759.702 799.971 760.696 800.593C761.699 801.206 762.473 802.051 763.02 803.128C763.575 804.205 763.849 805.436 763.84 806.82V819H756.98V808.261C756.988 807.317 756.748 806.575 756.259 806.037C755.778 805.498 755.107 805.229 754.245 805.229C753.682 805.229 753.189 805.353 752.766 805.602C752.352 805.842 752.033 806.19 751.809 806.646C751.585 807.093 751.469 807.632 751.461 808.261ZM776.375 819.348C774.337 819.348 772.58 818.959 771.105 818.18C769.639 817.393 768.508 816.266 767.712 814.799C766.925 813.324 766.531 811.559 766.531 809.504C766.531 807.532 766.929 805.809 767.725 804.334C768.52 802.859 769.643 801.711 771.093 800.891C772.543 800.071 774.254 799.661 776.226 799.661C777.668 799.661 778.973 799.884 780.141 800.332C781.309 800.779 782.308 801.43 783.136 802.283C783.965 803.128 784.603 804.156 785.051 805.365C785.498 806.575 785.722 807.938 785.722 809.455V811.045H768.669V807.267H779.408C779.399 806.72 779.259 806.24 778.985 805.825C778.72 805.403 778.36 805.075 777.904 804.843C777.456 804.603 776.947 804.483 776.375 804.483C775.82 804.483 775.31 804.603 774.846 804.843C774.382 805.075 774.009 805.399 773.728 805.813C773.454 806.227 773.309 806.712 773.293 807.267V811.344C773.293 811.957 773.421 812.504 773.678 812.984C773.935 813.465 774.304 813.842 774.784 814.115C775.265 814.389 775.845 814.526 776.524 814.526C776.997 814.526 777.427 814.459 777.817 814.327C778.215 814.194 778.554 814.004 778.836 813.755C779.118 813.498 779.325 813.192 779.457 812.835H785.722C785.506 814.161 784.997 815.313 784.193 816.29C783.389 817.26 782.324 818.014 780.999 818.553C779.681 819.083 778.14 819.348 776.375 819.348ZM805.972 806.124H799.658C799.625 805.734 799.488 805.399 799.248 805.117C799.007 804.835 798.696 804.62 798.315 804.471C797.942 804.313 797.528 804.234 797.072 804.234C796.484 804.234 795.979 804.342 795.556 804.558C795.134 804.773 794.926 805.08 794.935 805.477C794.926 805.759 795.047 806.02 795.295 806.26C795.552 806.501 796.045 806.687 796.774 806.82L800.652 807.516C802.607 807.872 804.062 808.473 805.015 809.318C805.976 810.155 806.46 811.277 806.469 812.686C806.46 814.045 806.054 815.226 805.251 816.228C804.455 817.223 803.366 817.993 801.982 818.54C800.606 819.079 799.036 819.348 797.271 819.348C794.355 819.348 792.072 818.751 790.423 817.558C788.782 816.365 787.867 814.791 787.676 812.835H794.487C794.578 813.44 794.877 813.908 795.382 814.24C795.896 814.563 796.542 814.724 797.321 814.724C797.951 814.724 798.469 814.617 798.875 814.401C799.289 814.186 799.5 813.879 799.509 813.482C799.5 813.117 799.318 812.827 798.962 812.612C798.614 812.396 798.067 812.222 797.321 812.089L793.94 811.493C791.993 811.153 790.535 810.507 789.565 809.554C788.596 808.601 788.115 807.375 788.124 805.875C788.115 804.549 788.463 803.426 789.168 802.507C789.88 801.579 790.895 800.874 792.213 800.394C793.538 799.905 795.109 799.661 796.923 799.661C799.683 799.661 801.858 800.232 803.449 801.376C805.048 802.519 805.889 804.102 805.972 806.124ZM818.245 819.348C816.207 819.348 814.45 818.959 812.975 818.18C811.509 817.393 810.378 816.266 809.582 814.799C808.795 813.324 808.401 811.559 808.401 809.504C808.401 807.532 808.799 805.809 809.595 804.334C810.39 802.859 811.513 801.711 812.963 800.891C814.413 800.071 816.124 799.661 818.096 799.661C819.538 799.661 820.843 799.884 822.011 800.332C823.18 800.779 824.178 801.43 825.007 802.283C825.835 803.128 826.473 804.156 826.921 805.365C827.368 806.575 827.592 807.938 827.592 809.455V811.045H810.539V807.267H821.278C821.27 806.72 821.129 806.24 820.855 805.825C820.59 805.403 820.23 805.075 819.774 804.843C819.327 804.603 818.817 804.483 818.245 804.483C817.69 804.483 817.18 804.603 816.716 804.843C816.252 805.075 815.88 805.399 815.598 805.813C815.324 806.227 815.179 806.712 815.163 807.267V811.344C815.163 811.957 815.291 812.504 815.548 812.984C815.805 813.465 816.174 813.842 816.654 814.115C817.135 814.389 817.715 814.526 818.394 814.526C818.867 814.526 819.298 814.459 819.687 814.327C820.085 814.194 820.424 814.004 820.706 813.755C820.988 813.498 821.195 813.192 821.328 812.835H827.592C827.376 814.161 826.867 815.313 826.063 816.29C825.259 817.26 824.195 818.014 822.869 818.553C821.551 819.083 820.01 819.348 818.245 819.348ZM501.362 843.5C501.296 842.671 500.985 842.025 500.43 841.561C499.883 841.097 499.05 840.865 497.932 840.865C497.219 840.865 496.635 840.952 496.179 841.126C495.732 841.292 495.4 841.52 495.185 841.81C494.97 842.1 494.858 842.431 494.849 842.804C494.833 843.111 494.887 843.388 495.011 843.637C495.144 843.877 495.351 844.097 495.632 844.295C495.914 844.486 496.275 844.66 496.714 844.817C497.153 844.975 497.675 845.116 498.28 845.24L500.368 845.688C501.777 845.986 502.982 846.379 503.985 846.868C504.987 847.357 505.808 847.933 506.446 848.596C507.084 849.25 507.552 849.988 507.85 850.808C508.157 851.629 508.314 852.523 508.322 853.493C508.314 855.167 507.896 856.584 507.067 857.744C506.239 858.904 505.054 859.786 503.512 860.391C501.98 860.996 500.136 861.298 497.982 861.298C495.769 861.298 493.839 860.971 492.19 860.316C490.549 859.662 489.273 858.655 488.362 857.296C487.458 855.929 487.003 854.181 486.994 852.051H493.557C493.598 852.83 493.793 853.485 494.141 854.015C494.489 854.545 494.978 854.947 495.608 855.221C496.246 855.494 497.004 855.631 497.882 855.631C498.62 855.631 499.237 855.54 499.734 855.357C500.231 855.175 500.608 854.922 500.865 854.599C501.122 854.276 501.254 853.907 501.263 853.493C501.254 853.103 501.126 852.764 500.877 852.474C500.637 852.175 500.239 851.91 499.684 851.678C499.129 851.438 498.379 851.214 497.435 851.007L494.899 850.46C492.645 849.971 490.868 849.155 489.567 848.012C488.275 846.86 487.632 845.29 487.641 843.301C487.632 841.685 488.063 840.273 488.933 839.063C489.812 837.845 491.025 836.896 492.575 836.217C494.133 835.537 495.918 835.197 497.932 835.197C499.987 835.197 501.764 835.541 503.264 836.229C504.764 836.917 505.92 837.886 506.732 839.137C507.552 840.38 507.966 841.835 507.974 843.5H501.362ZM511.051 861V841.909H517.911V861H511.051ZM514.481 839.92C513.553 839.92 512.758 839.614 512.095 839.001C511.432 838.388 511.1 837.65 511.1 836.788C511.1 835.927 511.432 835.189 512.095 834.576C512.758 833.963 513.553 833.656 514.481 833.656C515.417 833.656 516.213 833.963 516.867 834.576C517.53 835.189 517.862 835.927 517.862 836.788C517.862 837.65 517.53 838.388 516.867 839.001C516.213 839.614 515.417 839.92 514.481 839.92ZM521.407 861V841.909H527.92V845.538H528.119C528.516 844.345 529.196 843.401 530.157 842.705C531.118 842.009 532.262 841.661 533.587 841.661C534.93 841.661 536.086 842.017 537.055 842.729C538.025 843.434 538.609 844.37 538.808 845.538H539.006C539.33 844.37 540.017 843.434 541.07 842.729C542.122 842.017 543.357 841.661 544.774 841.661C546.605 841.661 548.088 842.249 549.223 843.425C550.367 844.602 550.938 846.168 550.938 848.124V861H544.078V849.864C544.078 849.027 543.866 848.372 543.444 847.9C543.021 847.419 542.453 847.179 541.741 847.179C541.037 847.179 540.477 847.419 540.063 847.9C539.657 848.372 539.454 849.027 539.454 849.864V861H532.891V849.864C532.891 849.027 532.68 848.372 532.258 847.9C531.835 847.419 531.267 847.179 530.555 847.179C530.082 847.179 529.676 847.287 529.337 847.502C528.997 847.718 528.732 848.028 528.541 848.434C528.359 848.832 528.268 849.308 528.268 849.864V861H521.407ZM554.322 868.159V841.909H561.133V845.24H561.282C561.531 844.594 561.895 844.001 562.376 843.463C562.857 842.916 563.453 842.481 564.166 842.158C564.878 841.826 565.707 841.661 566.652 841.661C567.911 841.661 569.108 841.996 570.244 842.667C571.387 843.338 572.315 844.395 573.028 845.837C573.749 847.278 574.109 849.151 574.109 851.455C574.109 853.659 573.765 855.486 573.077 856.936C572.398 858.386 571.487 859.467 570.343 860.18C569.208 860.892 567.961 861.249 566.602 861.249C565.707 861.249 564.907 861.104 564.203 860.814C563.507 860.515 562.911 860.113 562.413 859.608C561.924 859.094 561.547 858.514 561.282 857.868H561.183V868.159H554.322ZM561.034 851.455C561.034 852.383 561.154 853.186 561.394 853.866C561.643 854.537 561.991 855.059 562.438 855.432C562.894 855.796 563.437 855.979 564.066 855.979C564.696 855.979 565.231 855.801 565.67 855.444C566.117 855.08 566.457 854.562 566.689 853.891C566.929 853.211 567.049 852.399 567.049 851.455C567.049 850.51 566.929 849.702 566.689 849.031C566.457 848.351 566.117 847.834 565.67 847.477C565.231 847.113 564.696 846.93 564.066 846.93C563.437 846.93 562.894 847.113 562.438 847.477C561.991 847.834 561.643 848.351 561.394 849.031C561.154 849.702 561.034 850.51 561.034 851.455ZM583.844 835.545V861H576.983V835.545H583.844ZM587.34 861V841.909H594.2V861H587.34ZM590.77 839.92C589.842 839.92 589.047 839.614 588.384 839.001C587.721 838.388 587.389 837.65 587.389 836.788C587.389 835.927 587.721 835.189 588.384 834.576C589.047 833.963 589.842 833.656 590.77 833.656C591.706 833.656 592.502 833.963 593.156 834.576C593.819 835.189 594.151 835.927 594.151 836.788C594.151 837.65 593.819 838.388 593.156 839.001C592.502 839.614 591.706 839.92 590.77 839.92ZM609.131 841.909V846.881H596.354V841.909H609.131ZM598.79 861V841.362C598.79 839.788 599.072 838.483 599.635 837.447C600.198 836.411 600.994 835.637 602.021 835.123C603.049 834.609 604.259 834.352 605.651 834.352C606.521 834.352 607.366 834.419 608.186 834.551C609.015 834.684 609.628 834.8 610.026 834.899L609.031 839.821C608.783 839.746 608.493 839.688 608.161 839.647C607.83 839.597 607.54 839.572 607.291 839.572C606.645 839.572 606.21 839.709 605.986 839.983C605.763 840.256 605.651 840.616 605.651 841.064V861H598.79ZM611.778 861V841.909H618.639V861H611.778ZM615.209 839.92C614.281 839.92 613.485 839.614 612.822 839.001C612.159 838.388 611.828 837.65 611.828 836.788C611.828 835.927 612.159 835.189 612.822 834.576C613.485 833.963 614.281 833.656 615.209 833.656C616.145 833.656 616.94 833.963 617.595 834.576C618.258 835.189 618.589 835.927 618.589 836.788C618.589 837.65 618.258 838.388 617.595 839.001C616.94 839.614 616.145 839.92 615.209 839.92ZM631.282 861.348C629.244 861.348 627.487 860.959 626.012 860.18C624.546 859.393 623.415 858.266 622.619 856.799C621.832 855.324 621.439 853.559 621.439 851.504C621.439 849.532 621.836 847.809 622.632 846.334C623.427 844.859 624.55 843.711 626 842.891C627.45 842.071 629.161 841.661 631.133 841.661C632.575 841.661 633.88 841.884 635.048 842.332C636.217 842.779 637.215 843.43 638.044 844.283C638.872 845.128 639.51 846.156 639.958 847.365C640.405 848.575 640.629 849.938 640.629 851.455V853.045H623.576V849.267H634.315C634.307 848.72 634.166 848.24 633.892 847.825C633.627 847.403 633.267 847.075 632.811 846.843C632.364 846.603 631.854 846.483 631.282 846.483C630.727 846.483 630.218 846.603 629.754 846.843C629.29 847.075 628.917 847.399 628.635 847.813C628.362 848.227 628.217 848.712 628.2 849.267V853.344C628.2 853.957 628.328 854.504 628.585 854.984C628.842 855.465 629.211 855.842 629.691 856.115C630.172 856.389 630.752 856.526 631.431 856.526C631.904 856.526 632.335 856.459 632.724 856.327C633.122 856.194 633.462 856.004 633.743 855.755C634.025 855.498 634.232 855.192 634.365 854.835H640.629C640.413 856.161 639.904 857.313 639.1 858.29C638.296 859.26 637.232 860.014 635.906 860.553C634.588 861.083 633.047 861.348 631.282 861.348ZM650.339 861.249C648.98 861.249 647.729 860.892 646.585 860.18C645.45 859.467 644.539 858.386 643.851 856.936C643.172 855.486 642.832 853.659 642.832 851.455C642.832 849.151 643.188 847.278 643.901 845.837C644.622 844.395 645.55 843.338 646.685 842.667C647.828 841.996 649.03 841.661 650.289 841.661C651.234 841.661 652.063 841.826 652.775 842.158C653.488 842.481 654.084 842.916 654.565 843.463C655.045 844.001 655.41 844.594 655.659 845.24H655.758V835.545H662.619V861H655.808V857.868H655.659C655.393 858.514 655.012 859.094 654.515 859.608C654.026 860.113 653.43 860.515 652.725 860.814C652.029 861.104 651.234 861.249 650.339 861.249ZM652.875 855.979C653.504 855.979 654.043 855.796 654.49 855.432C654.946 855.059 655.294 854.537 655.534 853.866C655.783 853.186 655.907 852.383 655.907 851.455C655.907 850.51 655.783 849.702 655.534 849.031C655.294 848.351 654.946 847.834 654.49 847.477C654.043 847.113 653.504 846.93 652.875 846.93C652.245 846.93 651.706 847.113 651.259 847.477C650.82 847.834 650.48 848.351 650.24 849.031C650.008 849.702 649.892 850.51 649.892 851.455C649.892 852.399 650.008 853.211 650.24 853.891C650.48 854.562 650.82 855.08 651.259 855.444C651.706 855.801 652.245 855.979 652.875 855.979ZM696.625 845.091H689.615C689.565 844.511 689.432 843.985 689.217 843.512C689.01 843.04 688.72 842.634 688.347 842.294C687.982 841.946 687.539 841.681 687.017 841.499C686.495 841.308 685.902 841.213 685.24 841.213C684.08 841.213 683.098 841.495 682.294 842.058C681.498 842.622 680.894 843.43 680.479 844.482C680.073 845.534 679.87 846.798 679.87 848.273C679.87 849.83 680.077 851.136 680.492 852.188C680.914 853.232 681.523 854.019 682.319 854.549C683.114 855.071 684.071 855.332 685.19 855.332C685.828 855.332 686.4 855.254 686.905 855.096C687.411 854.931 687.85 854.694 688.223 854.388C688.595 854.081 688.898 853.712 689.13 853.282C689.37 852.842 689.532 852.349 689.615 851.803L696.625 851.852C696.542 852.929 696.239 854.027 695.717 855.146C695.195 856.256 694.454 857.284 693.492 858.228C692.54 859.165 691.359 859.919 689.95 860.49C688.542 861.062 686.905 861.348 685.041 861.348C682.704 861.348 680.608 860.847 678.752 859.844C676.904 858.842 675.441 857.367 674.364 855.419C673.295 853.472 672.761 851.09 672.761 848.273C672.761 845.439 673.308 843.053 674.402 841.114C675.495 839.166 676.97 837.696 678.826 836.701C680.682 835.699 682.754 835.197 685.041 835.197C686.648 835.197 688.127 835.417 689.478 835.856C690.829 836.295 692.013 836.937 693.033 837.783C694.052 838.62 694.872 839.651 695.494 840.877C696.115 842.104 696.492 843.508 696.625 845.091ZM706.72 850.261V861H699.859V835.545H706.471V845.538H706.67C707.101 844.32 707.818 843.372 708.82 842.692C709.823 842.004 711.029 841.661 712.437 841.661C713.788 841.661 714.96 841.967 715.955 842.58C716.957 843.193 717.732 844.039 718.279 845.116C718.834 846.193 719.108 847.428 719.099 848.82V861H712.238V850.261C712.247 849.317 712.011 848.575 711.53 848.037C711.058 847.498 710.382 847.229 709.504 847.229C708.949 847.229 708.46 847.353 708.037 847.602C707.623 847.842 707.3 848.19 707.068 848.646C706.844 849.093 706.728 849.632 706.72 850.261ZM722.486 861V841.909H729.347V861H722.486ZM725.917 839.92C724.989 839.92 724.193 839.614 723.53 839.001C722.867 838.388 722.536 837.65 722.536 836.788C722.536 835.927 722.867 835.189 723.53 834.576C724.193 833.963 724.989 833.656 725.917 833.656C726.853 833.656 727.648 833.963 728.303 834.576C728.966 835.189 729.297 835.927 729.297 836.788C729.297 837.65 728.966 838.388 728.303 839.001C727.648 839.614 726.853 839.92 725.917 839.92ZM739.703 850.261V861H732.843V841.909H739.355V845.538H739.554C739.969 844.329 740.698 843.38 741.742 842.692C742.794 842.004 744.02 841.661 745.421 841.661C746.771 841.661 747.944 841.971 748.938 842.593C749.941 843.206 750.715 844.051 751.262 845.128C751.818 846.205 752.091 847.436 752.083 848.82V861H745.222V850.261C745.23 849.317 744.99 848.575 744.501 848.037C744.02 847.498 743.349 847.229 742.487 847.229C741.924 847.229 741.431 847.353 741.008 847.602C740.594 847.842 740.275 848.19 740.051 848.646C739.828 849.093 739.712 849.632 739.703 850.261ZM764.617 861.348C762.579 861.348 760.822 860.959 759.347 860.18C757.881 859.393 756.75 858.266 755.954 856.799C755.167 855.324 754.774 853.559 754.774 851.504C754.774 849.532 755.171 847.809 755.967 846.334C756.762 844.859 757.885 843.711 759.335 842.891C760.785 842.071 762.496 841.661 764.468 841.661C765.91 841.661 767.215 841.884 768.383 842.332C769.552 842.779 770.55 843.43 771.379 844.283C772.207 845.128 772.845 846.156 773.293 847.365C773.74 848.575 773.964 849.938 773.964 851.455V853.045H756.911V849.267H767.65C767.642 848.72 767.501 848.24 767.227 847.825C766.962 847.403 766.602 847.075 766.146 846.843C765.699 846.603 765.189 846.483 764.617 846.483C764.062 846.483 763.553 846.603 763.089 846.843C762.624 847.075 762.252 847.399 761.97 847.813C761.696 848.227 761.551 848.712 761.535 849.267V853.344C761.535 853.957 761.663 854.504 761.92 854.984C762.177 855.465 762.546 855.842 763.026 856.115C763.507 856.389 764.087 856.526 764.766 856.526C765.239 856.526 765.67 856.459 766.059 856.327C766.457 856.194 766.796 856.004 767.078 855.755C767.36 855.498 767.567 855.192 767.7 854.835H773.964C773.748 856.161 773.239 857.313 772.435 858.29C771.631 859.26 770.567 860.014 769.241 860.553C767.923 861.083 766.382 861.348 764.617 861.348ZM794.214 848.124H787.9C787.867 847.734 787.73 847.399 787.49 847.117C787.249 846.835 786.939 846.62 786.558 846.471C786.185 846.313 785.77 846.234 785.315 846.234C784.726 846.234 784.221 846.342 783.798 846.558C783.376 846.773 783.169 847.08 783.177 847.477C783.169 847.759 783.289 848.02 783.537 848.26C783.794 848.501 784.287 848.687 785.016 848.82L788.894 849.516C790.85 849.872 792.304 850.473 793.257 851.318C794.218 852.155 794.703 853.277 794.711 854.686C794.703 856.045 794.297 857.226 793.493 858.228C792.697 859.223 791.608 859.993 790.224 860.54C788.849 861.079 787.278 861.348 785.513 861.348C782.597 861.348 780.314 860.751 778.665 859.558C777.025 858.365 776.109 856.791 775.918 854.835H782.729C782.821 855.44 783.119 855.908 783.624 856.24C784.138 856.563 784.784 856.724 785.563 856.724C786.193 856.724 786.711 856.617 787.117 856.401C787.531 856.186 787.742 855.879 787.751 855.482C787.742 855.117 787.56 854.827 787.204 854.612C786.856 854.396 786.309 854.222 785.563 854.089L782.183 853.493C780.235 853.153 778.777 852.507 777.808 851.554C776.838 850.601 776.357 849.375 776.366 847.875C776.357 846.549 776.705 845.426 777.41 844.507C778.122 843.579 779.137 842.874 780.455 842.394C781.781 841.905 783.351 841.661 785.165 841.661C787.925 841.661 790.1 842.232 791.691 843.376C793.29 844.519 794.131 846.102 794.214 848.124ZM806.487 861.348C804.449 861.348 802.692 860.959 801.218 860.18C799.751 859.393 798.62 858.266 797.824 856.799C797.037 855.324 796.644 853.559 796.644 851.504C796.644 849.532 797.041 847.809 797.837 846.334C798.632 844.859 799.755 843.711 801.205 842.891C802.655 842.071 804.366 841.661 806.338 841.661C807.78 841.661 809.085 841.884 810.253 842.332C811.422 842.779 812.42 843.43 813.249 844.283C814.077 845.128 814.715 846.156 815.163 847.365C815.61 848.575 815.834 849.938 815.834 851.455V853.045H798.781V849.267H809.52C809.512 848.72 809.371 848.24 809.097 847.825C808.832 847.403 808.472 847.075 808.016 846.843C807.569 846.603 807.059 846.483 806.487 846.483C805.932 846.483 805.423 846.603 804.959 846.843C804.495 847.075 804.122 847.399 803.84 847.813C803.567 848.227 803.422 848.712 803.405 849.267V853.344C803.405 853.957 803.533 854.504 803.79 854.984C804.047 855.465 804.416 855.842 804.896 856.115C805.377 856.389 805.957 856.526 806.637 856.526C807.109 856.526 807.54 856.459 807.929 856.327C808.327 856.194 808.667 856.004 808.948 855.755C809.23 855.498 809.437 855.192 809.57 854.835H815.834C815.619 856.161 815.109 857.313 814.305 858.29C813.501 859.26 812.437 860.014 811.111 860.553C809.794 861.083 808.252 861.348 806.487 861.348Z" fill="#1A73E8"/>
<path d="M490.446 913.636L490.581 910.639L488.053 912.266L487.278 910.916L489.963 909.545L487.278 908.175L488.053 906.825L490.581 908.452L490.446 905.455H491.987L491.852 908.452L494.381 906.825L495.155 908.175L492.47 909.545L495.155 910.916L494.381 912.266L491.852 910.639L491.987 913.636H490.446ZM502.603 907.344V905.455H513.86V907.344H509.322V920H507.135V907.344H502.603ZM518.301 913.523V920H516.178V905.455H518.273V910.866H518.408C518.663 910.279 519.054 909.813 519.58 909.467C520.105 909.122 520.792 908.949 521.639 908.949C522.387 908.949 523.041 909.103 523.599 909.411C524.163 909.718 524.598 910.178 524.906 910.788C525.219 911.394 525.375 912.152 525.375 913.061V920H523.251V913.317C523.251 912.517 523.045 911.896 522.634 911.456C522.222 911.011 521.649 910.788 520.915 910.788C520.413 910.788 519.963 910.895 519.565 911.108C519.172 911.321 518.862 911.634 518.635 912.045C518.412 912.453 518.301 912.945 518.301 913.523ZM532.911 920.22C531.836 920.22 530.91 919.991 530.134 919.531C529.362 919.067 528.765 918.416 528.344 917.578C527.927 916.735 527.719 915.748 527.719 914.616C527.719 913.499 527.927 912.514 528.344 911.662C528.765 910.81 529.352 910.144 530.105 909.666C530.863 909.188 531.748 908.949 532.761 908.949C533.377 908.949 533.973 909.051 534.551 909.254C535.129 909.458 535.647 909.777 536.107 910.213C536.566 910.649 536.928 911.214 537.193 911.911C537.458 912.602 537.591 913.442 537.591 914.432V915.185H528.919V913.594H535.51C535.51 913.035 535.396 912.54 535.169 912.109C534.942 911.674 534.622 911.33 534.21 911.08C533.803 910.829 533.325 910.703 532.776 910.703C532.179 910.703 531.658 910.85 531.213 911.143C530.773 911.432 530.432 911.811 530.19 912.28C529.954 912.744 529.835 913.248 529.835 913.793V915.036C529.835 915.765 529.963 916.385 530.219 916.896C530.479 917.408 530.841 917.798 531.305 918.068C531.769 918.333 532.312 918.466 532.932 918.466C533.334 918.466 533.701 918.409 534.033 918.295C534.364 918.177 534.651 918.002 534.892 917.77C535.134 917.538 535.318 917.251 535.446 916.911L537.456 917.273C537.295 917.865 537.006 918.383 536.589 918.828C536.178 919.268 535.659 919.612 535.034 919.858C534.414 920.099 533.706 920.22 532.911 920.22ZM552.151 915.476V909.091H554.281V920H552.193V918.111H552.08C551.829 918.693 551.426 919.179 550.872 919.567C550.323 919.95 549.639 920.142 548.82 920.142C548.119 920.142 547.499 919.988 546.959 919.68C546.424 919.368 546.002 918.906 545.695 918.295C545.392 917.685 545.24 916.929 545.24 916.03V909.091H547.364V915.774C547.364 916.518 547.57 917.109 547.982 917.55C548.393 917.99 548.929 918.21 549.587 918.21C549.984 918.21 550.38 918.111 550.773 917.912C551.17 917.713 551.5 917.412 551.76 917.01C552.025 916.607 552.155 916.096 552.151 915.476ZM565.309 911.754L563.385 912.095C563.304 911.849 563.176 911.615 563.001 911.392C562.831 911.17 562.599 910.987 562.305 910.845C562.011 910.703 561.645 910.632 561.204 910.632C560.603 910.632 560.101 910.767 559.699 911.037C559.296 911.302 559.095 911.645 559.095 912.067C559.095 912.431 559.23 912.725 559.5 912.947C559.77 913.17 560.205 913.352 560.806 913.494L562.539 913.892C563.543 914.124 564.291 914.482 564.784 914.964C565.276 915.447 565.522 916.075 565.522 916.847C565.522 917.5 565.333 918.082 564.954 918.594C564.58 919.1 564.057 919.498 563.385 919.787C562.717 920.076 561.943 920.22 561.062 920.22C559.841 920.22 558.844 919.96 558.072 919.439C557.3 918.913 556.827 918.168 556.652 917.202L558.704 916.889C558.832 917.424 559.095 917.829 559.493 918.104C559.89 918.374 560.409 918.509 561.048 918.509C561.744 918.509 562.3 918.364 562.717 918.075C563.134 917.782 563.342 917.424 563.342 917.003C563.342 916.662 563.214 916.375 562.958 916.143C562.708 915.911 562.322 915.736 561.801 915.618L559.954 915.213C558.936 914.981 558.183 914.612 557.696 914.105C557.213 913.598 556.971 912.957 556.971 912.18C556.971 911.536 557.151 910.973 557.511 910.49C557.871 910.007 558.368 909.631 559.002 909.361C559.637 909.086 560.364 908.949 561.183 908.949C562.362 908.949 563.29 909.205 563.967 909.716C564.644 910.223 565.092 910.902 565.309 911.754ZM572.559 920.22C571.484 920.22 570.558 919.991 569.782 919.531C569.01 919.067 568.414 918.416 567.992 917.578C567.576 916.735 567.367 915.748 567.367 914.616C567.367 913.499 567.576 912.514 567.992 911.662C568.414 910.81 569.001 910.144 569.754 909.666C570.511 909.188 571.397 908.949 572.41 908.949C573.025 908.949 573.622 909.051 574.2 909.254C574.777 909.458 575.296 909.777 575.755 910.213C576.214 910.649 576.576 911.214 576.842 911.911C577.107 912.602 577.239 913.442 577.239 914.432V915.185H568.567V913.594H575.158C575.158 913.035 575.045 912.54 574.817 912.109C574.59 911.674 574.271 911.33 573.859 911.08C573.451 910.829 572.973 910.703 572.424 910.703C571.827 910.703 571.307 910.85 570.862 911.143C570.421 911.432 570.08 911.811 569.839 912.28C569.602 912.744 569.484 913.248 569.484 913.793V915.036C569.484 915.765 569.612 916.385 569.867 916.896C570.128 917.408 570.49 917.798 570.954 918.068C571.418 918.333 571.96 918.466 572.58 918.466C572.983 918.466 573.35 918.409 573.681 918.295C574.013 918.177 574.299 918.002 574.54 917.77C574.782 917.538 574.967 917.251 575.094 916.911L577.104 917.273C576.943 917.865 576.655 918.383 576.238 918.828C575.826 919.268 575.308 919.612 574.683 919.858C574.062 920.099 573.354 920.22 572.559 920.22ZM589.484 920.22C588.461 920.22 587.568 919.986 586.806 919.517C586.044 919.048 585.452 918.393 585.031 917.55C584.609 916.707 584.398 915.722 584.398 914.595C584.398 913.464 584.609 912.474 585.031 911.626C585.452 910.779 586.044 910.121 586.806 909.652C587.568 909.183 588.461 908.949 589.484 908.949C590.506 908.949 591.399 909.183 592.161 909.652C592.924 910.121 593.515 910.779 593.937 911.626C594.358 912.474 594.569 913.464 594.569 914.595C594.569 915.722 594.358 916.707 593.937 917.55C593.515 918.393 592.924 919.048 592.161 919.517C591.399 919.986 590.506 920.22 589.484 920.22ZM589.491 918.438C590.154 918.438 590.703 918.262 591.138 917.912C591.574 917.562 591.896 917.095 592.104 916.513C592.317 915.93 592.424 915.289 592.424 914.588C592.424 913.892 592.317 913.253 592.104 912.67C591.896 912.083 591.574 911.612 591.138 911.257C590.703 910.902 590.154 910.724 589.491 910.724C588.823 910.724 588.269 910.902 587.829 911.257C587.393 911.612 587.069 912.083 586.856 912.67C586.647 913.253 586.543 913.892 586.543 914.588C586.543 915.289 586.647 915.93 586.856 916.513C587.069 917.095 587.393 917.562 587.829 917.912C588.269 918.262 588.823 918.438 589.491 918.438ZM602.131 909.091V910.795H595.966V909.091H602.131ZM597.657 920V907.827C597.657 907.145 597.806 906.579 598.104 906.129C598.402 905.675 598.798 905.336 599.29 905.114C599.783 904.886 600.318 904.773 600.895 904.773C601.321 904.773 601.686 904.808 601.989 904.879C602.292 904.946 602.517 905.007 602.664 905.064L602.167 906.783C602.067 906.754 601.939 906.721 601.783 906.683C601.627 906.641 601.437 906.619 601.215 906.619C600.699 906.619 600.329 906.747 600.107 907.003C599.889 907.259 599.78 907.628 599.78 908.111V920H597.657ZM614.21 920.22C613.154 920.22 612.245 919.981 611.483 919.503C610.725 919.02 610.143 918.355 609.736 917.507C609.329 916.66 609.125 915.689 609.125 914.595C609.125 913.487 609.333 912.509 609.75 911.662C610.167 910.81 610.754 910.144 611.511 909.666C612.269 909.188 613.161 908.949 614.189 908.949C615.018 908.949 615.756 909.103 616.405 909.411C617.054 909.714 617.577 910.14 617.974 910.689C618.377 911.238 618.616 911.88 618.692 912.614H616.625C616.511 912.102 616.251 911.662 615.844 911.293C615.441 910.923 614.902 910.739 614.224 910.739C613.633 910.739 613.114 910.895 612.669 911.207C612.229 911.515 611.885 911.955 611.639 912.528C611.393 913.097 611.27 913.769 611.27 914.545C611.27 915.341 611.391 916.027 611.632 916.605C611.874 917.183 612.214 917.63 612.655 917.947C613.1 918.265 613.623 918.423 614.224 918.423C614.627 918.423 614.991 918.35 615.318 918.203C615.65 918.052 615.927 917.836 616.149 917.557C616.376 917.277 616.535 916.941 616.625 916.548H618.692C618.616 917.254 618.386 917.884 618.003 918.438C617.619 918.991 617.106 919.427 616.462 919.744C615.822 920.062 615.072 920.22 614.21 920.22ZM625.558 920.22C624.535 920.22 623.643 919.986 622.88 919.517C622.118 919.048 621.526 918.393 621.105 917.55C620.683 916.707 620.473 915.722 620.473 914.595C620.473 913.464 620.683 912.474 621.105 911.626C621.526 910.779 622.118 910.121 622.88 909.652C623.643 909.183 624.535 908.949 625.558 908.949C626.581 908.949 627.473 909.183 628.235 909.652C628.998 910.121 629.59 910.779 630.011 911.626C630.432 912.474 630.643 913.464 630.643 914.595C630.643 915.722 630.432 916.707 630.011 917.55C629.59 918.393 628.998 919.048 628.235 919.517C627.473 919.986 626.581 920.22 625.558 920.22ZM625.565 918.438C626.228 918.438 626.777 918.262 627.213 917.912C627.648 917.562 627.97 917.095 628.179 916.513C628.392 915.93 628.498 915.289 628.498 914.588C628.498 913.892 628.392 913.253 628.179 912.67C627.97 912.083 627.648 911.612 627.213 911.257C626.777 910.902 626.228 910.724 625.565 910.724C624.897 910.724 624.343 910.902 623.903 911.257C623.467 911.612 623.143 912.083 622.93 912.67C622.722 913.253 622.618 913.892 622.618 914.588C622.618 915.289 622.722 915.93 622.93 916.513C623.143 917.095 623.467 917.562 623.903 917.912C624.343 918.262 624.897 918.438 625.565 918.438ZM633.013 920V909.091H635.052V910.866H635.187C635.414 910.265 635.786 909.796 636.302 909.46C636.818 909.119 637.436 908.949 638.156 908.949C638.885 908.949 639.496 909.119 639.988 909.46C640.485 909.801 640.852 910.27 641.089 910.866H641.202C641.463 910.284 641.877 909.82 642.445 909.474C643.013 909.124 643.691 908.949 644.477 908.949C645.466 908.949 646.273 909.259 646.898 909.879C647.528 910.5 647.843 911.435 647.843 912.685V920H645.719V912.884C645.719 912.145 645.518 911.61 645.116 911.278C644.713 910.947 644.233 910.781 643.674 910.781C642.983 910.781 642.445 910.994 642.062 911.42C641.678 911.842 641.487 912.384 641.487 913.047V920H639.37V912.749C639.37 912.157 639.185 911.681 638.816 911.321C638.447 910.961 637.966 910.781 637.374 910.781C636.972 910.781 636.6 910.888 636.259 911.101C635.923 911.309 635.651 911.6 635.442 911.974C635.239 912.348 635.137 912.782 635.137 913.274V920H633.013ZM650.689 920V909.091H652.728V910.866H652.863C653.09 910.265 653.462 909.796 653.978 909.46C654.494 909.119 655.112 908.949 655.831 908.949C656.56 908.949 657.171 909.119 657.664 909.46C658.161 909.801 658.528 910.27 658.765 910.866H658.878C659.139 910.284 659.553 909.82 660.121 909.474C660.689 909.124 661.366 908.949 662.152 908.949C663.142 908.949 663.949 909.259 664.574 909.879C665.204 910.5 665.519 911.435 665.519 912.685V920H663.395V912.884C663.395 912.145 663.194 911.61 662.792 911.278C662.389 910.947 661.908 910.781 661.35 910.781C660.658 910.781 660.121 910.994 659.738 911.42C659.354 911.842 659.162 912.384 659.162 913.047V920H657.046V912.749C657.046 912.157 656.861 911.681 656.492 911.321C656.123 910.961 655.642 910.781 655.05 910.781C654.648 910.781 654.276 910.888 653.935 911.101C653.599 911.309 653.327 911.6 653.118 911.974C652.915 912.348 652.813 912.782 652.813 913.274V920H650.689ZM671.54 920.241C670.848 920.241 670.223 920.114 669.665 919.858C669.106 919.598 668.663 919.221 668.337 918.729C668.015 918.236 667.854 917.633 667.854 916.918C667.854 916.302 667.972 915.795 668.209 915.398C668.446 915 668.765 914.685 669.168 914.453C669.57 914.221 670.02 914.046 670.517 913.928C671.014 913.809 671.521 913.719 672.037 913.658C672.69 913.582 673.221 913.52 673.628 913.473C674.035 913.421 674.331 913.338 674.516 913.224C674.7 913.111 674.793 912.926 674.793 912.67V912.621C674.793 912 674.617 911.52 674.267 911.179C673.921 910.838 673.405 910.668 672.719 910.668C672.004 910.668 671.44 910.826 671.028 911.143C670.621 911.456 670.339 911.804 670.183 912.188L668.188 911.733C668.424 911.07 668.77 910.535 669.224 910.128C669.684 909.716 670.212 909.418 670.808 909.233C671.405 909.044 672.032 908.949 672.69 908.949C673.126 908.949 673.588 909.001 674.075 909.105C674.568 909.205 675.027 909.389 675.453 909.659C675.884 909.929 676.237 910.315 676.511 910.817C676.786 911.314 676.923 911.96 676.923 912.756V920H674.849V918.509H674.764C674.627 918.783 674.421 919.053 674.146 919.318C673.872 919.583 673.519 919.804 673.088 919.979C672.657 920.154 672.141 920.241 671.54 920.241ZM672.001 918.537C672.589 918.537 673.09 918.421 673.507 918.189C673.929 917.957 674.248 917.654 674.466 917.28C674.688 916.901 674.8 916.496 674.8 916.065V914.659C674.724 914.735 674.577 914.806 674.359 914.872C674.146 914.934 673.902 914.988 673.628 915.036C673.353 915.078 673.086 915.118 672.825 915.156C672.565 915.189 672.347 915.218 672.172 915.241C671.76 915.294 671.384 915.381 671.043 915.504C670.706 915.627 670.437 915.805 670.233 916.037C670.034 916.264 669.935 916.567 669.935 916.946C669.935 917.472 670.129 917.869 670.517 918.139C670.905 918.404 671.4 918.537 672.001 918.537ZM685.045 920V909.091H687.168V920H685.045ZM686.117 907.408C685.748 907.408 685.431 907.285 685.165 907.038C684.905 906.787 684.775 906.489 684.775 906.143C684.775 905.793 684.905 905.495 685.165 905.249C685.431 904.998 685.748 904.872 686.117 904.872C686.487 904.872 686.801 904.998 687.062 905.249C687.327 905.495 687.46 905.793 687.46 906.143C687.46 906.489 687.327 906.787 687.062 907.038C686.801 907.285 686.487 907.408 686.117 907.408ZM692.149 913.523V920H690.025V909.091H692.064V910.866H692.199C692.449 910.289 692.842 909.825 693.377 909.474C693.917 909.124 694.597 908.949 695.416 908.949C696.159 908.949 696.81 909.105 697.369 909.418C697.928 909.725 698.361 910.185 698.669 910.795C698.976 911.406 699.13 912.161 699.13 913.061V920H697.007V913.317C697.007 912.526 696.801 911.908 696.389 911.463C695.977 911.013 695.411 910.788 694.691 910.788C694.199 910.788 693.761 910.895 693.377 911.108C692.999 911.321 692.698 911.634 692.475 912.045C692.258 912.453 692.149 912.945 692.149 913.523ZM712.364 909.091V910.795H706.405V909.091H712.364ZM708.003 906.477H710.126V916.797C710.126 917.209 710.188 917.519 710.311 917.727C710.434 917.931 710.593 918.071 710.787 918.146C710.986 918.217 711.201 918.253 711.433 918.253C711.604 918.253 711.753 918.241 711.881 918.217C712.009 918.194 712.108 918.175 712.179 918.161L712.562 919.915C712.439 919.962 712.264 920.009 712.037 920.057C711.81 920.109 711.526 920.137 711.185 920.142C710.626 920.152 710.105 920.052 709.622 919.844C709.139 919.635 708.749 919.313 708.45 918.878C708.152 918.442 708.003 917.895 708.003 917.237V906.477ZM717.071 913.523V920H714.947V905.455H717.042V910.866H717.177C717.433 910.279 717.824 909.813 718.349 909.467C718.875 909.122 719.561 908.949 720.409 908.949C721.157 908.949 721.81 909.103 722.369 909.411C722.932 909.718 723.368 910.178 723.676 910.788C723.988 911.394 724.145 912.152 724.145 913.061V920H722.021V913.317C722.021 912.517 721.815 911.896 721.403 911.456C720.991 911.011 720.418 910.788 719.684 910.788C719.182 910.788 718.733 910.895 718.335 911.108C717.942 911.321 717.632 911.634 717.404 912.045C717.182 912.453 717.071 912.945 717.071 913.523ZM731.68 920.22C730.605 920.22 729.68 919.991 728.903 919.531C728.131 919.067 727.535 918.416 727.113 917.578C726.697 916.735 726.488 915.748 726.488 914.616C726.488 913.499 726.697 912.514 727.113 911.662C727.535 910.81 728.122 910.144 728.875 909.666C729.632 909.188 730.518 908.949 731.531 908.949C732.146 908.949 732.743 909.051 733.321 909.254C733.898 909.458 734.417 909.777 734.876 910.213C735.335 910.649 735.698 911.214 735.963 911.911C736.228 912.602 736.36 913.442 736.36 914.432V915.185H727.689V913.594H734.279C734.279 913.035 734.166 912.54 733.939 912.109C733.711 911.674 733.392 911.33 732.98 911.08C732.573 910.829 732.094 910.703 731.545 910.703C730.949 910.703 730.428 910.85 729.983 911.143C729.542 911.432 729.201 911.811 728.96 912.28C728.723 912.744 728.605 913.248 728.605 913.793V915.036C728.605 915.765 728.733 916.385 728.988 916.896C729.249 917.408 729.611 917.798 730.075 918.068C730.539 918.333 731.081 918.466 731.701 918.466C732.104 918.466 732.471 918.409 732.802 918.295C733.134 918.177 733.42 918.002 733.662 917.77C733.903 917.538 734.088 917.251 734.216 916.911L736.225 917.273C736.065 917.865 735.776 918.383 735.359 918.828C734.947 919.268 734.429 919.612 733.804 919.858C733.183 920.099 732.475 920.22 731.68 920.22ZM744.01 920V909.091H746.048V910.866H746.183C746.41 910.265 746.782 909.796 747.298 909.46C747.814 909.119 748.432 908.949 749.152 908.949C749.881 908.949 750.492 909.119 750.984 909.46C751.481 909.801 751.848 910.27 752.085 910.866H752.199C752.459 910.284 752.873 909.82 753.441 909.474C754.01 909.124 754.687 908.949 755.473 908.949C756.462 908.949 757.27 909.259 757.895 909.879C758.524 910.5 758.839 911.435 758.839 912.685V920H756.716V912.884C756.716 912.145 756.514 911.61 756.112 911.278C755.709 910.947 755.229 910.781 754.67 910.781C753.979 910.781 753.441 910.994 753.058 911.42C752.674 911.842 752.483 912.384 752.483 913.047V920H750.366V912.749C750.366 912.157 750.181 911.681 749.812 911.321C749.443 910.961 748.962 910.781 748.37 910.781C747.968 910.781 747.596 910.888 747.255 911.101C746.919 911.309 746.647 911.6 746.439 911.974C746.235 912.348 746.133 912.782 746.133 913.274V920H744.01ZM761.685 920V909.091H763.809V920H761.685ZM762.758 907.408C762.388 907.408 762.071 907.285 761.806 907.038C761.546 906.787 761.415 906.489 761.415 906.143C761.415 905.793 761.546 905.495 761.806 905.249C762.071 904.998 762.388 904.872 762.758 904.872C763.127 904.872 763.442 904.998 763.702 905.249C763.968 905.495 764.1 905.793 764.1 906.143C764.1 906.489 763.968 906.787 763.702 907.038C763.442 907.285 763.127 907.408 762.758 907.408ZM770.75 920.213C769.869 920.213 769.083 919.988 768.392 919.538C767.705 919.084 767.165 918.437 766.772 917.599C766.384 916.757 766.19 915.746 766.19 914.567C766.19 913.388 766.386 912.379 766.779 911.541C767.177 910.703 767.722 910.062 768.413 909.616C769.104 909.171 769.888 908.949 770.764 908.949C771.441 908.949 771.985 909.062 772.397 909.29C772.814 909.512 773.136 909.773 773.363 910.071C773.595 910.369 773.775 910.632 773.903 910.859H774.031V905.455H776.154V920H774.081V918.303H773.903C773.775 918.535 773.591 918.8 773.349 919.098C773.112 919.396 772.786 919.657 772.369 919.879C771.952 920.102 771.413 920.213 770.75 920.213ZM771.218 918.402C771.829 918.402 772.345 918.241 772.767 917.919C773.193 917.592 773.515 917.14 773.733 916.562C773.955 915.985 774.066 915.312 774.066 914.545C774.066 913.788 773.958 913.125 773.74 912.557C773.522 911.989 773.202 911.546 772.781 911.229C772.359 910.911 771.839 910.753 771.218 910.753C770.579 910.753 770.047 910.919 769.62 911.25C769.194 911.581 768.872 912.034 768.654 912.607C768.441 913.179 768.335 913.826 768.335 914.545C768.335 915.275 768.444 915.93 768.662 916.513C768.879 917.095 769.201 917.557 769.627 917.898C770.058 918.234 770.589 918.402 771.218 918.402ZM783.269 920.213C782.388 920.213 781.603 919.988 780.911 919.538C780.225 919.084 779.685 918.437 779.292 917.599C778.904 916.757 778.71 915.746 778.71 914.567C778.71 913.388 778.906 912.379 779.299 911.541C779.697 910.703 780.241 910.062 780.933 909.616C781.624 909.171 782.407 908.949 783.283 908.949C783.96 908.949 784.505 909.062 784.917 909.29C785.334 909.512 785.656 909.773 785.883 910.071C786.115 910.369 786.295 910.632 786.423 910.859H786.55V905.455H788.674V920H786.6V918.303H786.423C786.295 918.535 786.11 918.8 785.869 919.098C785.632 919.396 785.305 919.657 784.888 919.879C784.472 920.102 783.932 920.213 783.269 920.213ZM783.738 918.402C784.349 918.402 784.865 918.241 785.286 917.919C785.712 917.592 786.034 917.14 786.252 916.562C786.475 915.985 786.586 915.312 786.586 914.545C786.586 913.788 786.477 913.125 786.259 912.557C786.041 911.989 785.722 911.546 785.3 911.229C784.879 910.911 784.358 910.753 783.738 910.753C783.099 910.753 782.566 910.919 782.14 911.25C781.714 911.581 781.392 912.034 781.174 912.607C780.961 913.179 780.854 913.826 780.854 914.545C780.854 915.275 780.963 915.93 781.181 916.513C781.399 917.095 781.721 917.557 782.147 917.898C782.578 918.234 783.108 918.402 783.738 918.402ZM793.828 905.455V920H791.705V905.455H793.828ZM801.387 920.22C800.312 920.22 799.387 919.991 798.61 919.531C797.838 919.067 797.242 918.416 796.82 917.578C796.404 916.735 796.195 915.748 796.195 914.616C796.195 913.499 796.404 912.514 796.82 911.662C797.242 910.81 797.829 910.144 798.582 909.666C799.339 909.188 800.225 908.949 801.238 908.949C801.853 908.949 802.45 909.051 803.028 909.254C803.605 909.458 804.124 909.777 804.583 910.213C805.042 910.649 805.405 911.214 805.67 911.911C805.935 912.602 806.067 913.442 806.067 914.432V915.185H797.396V913.594H803.987C803.987 913.035 803.873 912.54 803.646 912.109C803.418 911.674 803.099 911.33 802.687 911.08C802.28 910.829 801.801 910.703 801.252 910.703C800.656 910.703 800.135 910.85 799.69 911.143C799.249 911.432 798.908 911.811 798.667 912.28C798.43 912.744 798.312 913.248 798.312 913.793V915.036C798.312 915.765 798.44 916.385 798.695 916.896C798.956 917.408 799.318 917.798 799.782 918.068C800.246 918.333 800.788 918.466 801.408 918.466C801.811 918.466 802.178 918.409 802.509 918.295C802.841 918.177 803.127 918.002 803.369 917.77C803.61 917.538 803.795 917.251 803.923 916.911L805.933 917.273C805.772 917.865 805.483 918.383 805.066 918.828C804.654 919.268 804.136 919.612 803.511 919.858C802.89 920.099 802.183 920.22 801.387 920.22Z" fill="#1A73E8"/>
</svg>
