<svg width="1920" height="1080" fill="none" xmlns="http://www.w3.org/2000/svg"><path d="M263.111 413.912c8.225-.212 18.545-3.29 30.961-9.232a159.307 159.307 0 0 0 4.377-2.07c4.776-2.175 8.569-3.634 11.382-4.377 2.812-.743 5.544-1.114 8.197-1.114 6.314 0 14.167.902 23.559 2.706a193.855 193.855 0 0 1 27.618 7.242c7.11 2.441 12.416 4.749 15.918 6.925 3.502 2.122 5.252 4.085 5.252 5.889 0 1.592-1.14 2.839-3.422 3.741-2.281.849-5.651 1.353-10.108 1.512h-.318c-3.661 0-8.649-.61-14.963-1.83-6.314-1.274-10.771-1.91-13.371-1.91-.796 0-1.433.026-1.91.079-.478 0-.929.027-1.353.08 2.44 1.751 4.244 3.422 5.412 5.014 1.167 1.592 1.751 3.183 1.751 4.775 0 1.857-.77 3.555-2.308 5.094-1.486 1.539-3.661 2.759-6.527 3.661 1.168 1.433 1.99 2.706 2.468 3.82.53 1.062.795 2.07.795 3.025 0 1.857-.61 3.422-1.83 4.696-1.167 1.22-2.918 2.096-5.253 2.626.106.902.186 1.672.239 2.308.106.637.159 1.194.159 1.672 0 1.432-.345 2.732-1.035 3.9a6.538 6.538 0 0 1-2.865 2.626c-3.077 1.433-7.349 2.68-12.814 3.741s-10.691 1.592-15.679 1.592c-5.624 0-11.328-1.513-17.112-4.537-5.73-3.024-8.808-4.59-9.232-4.696-1.857-.584-4.855-1.035-8.994-1.353-4.139-.318-7.296-.743-9.471-1.273-2.176-2.759-3.741-5.757-4.696-8.994-.902-3.237-1.353-7.375-1.353-12.416 0-4.563.531-8.702 1.592-12.416a35.28 35.28 0 0 1 4.934-10.506Zm.955-4.616a6.227 6.227 0 0 0-1.273-.478 3.782 3.782 0 0 0-1.035-.159c-3.077 0-5.704 2.68-7.879 8.039-2.122 5.306-3.184 12.071-3.184 20.295v1.035c0 8.967.876 15.361 2.627 19.181 1.751 3.82 4.616 5.73 8.595 5.73h.717c-.743.902-1.565 1.592-2.467 2.07-.903.477-1.831.716-2.786.716-3.449 0-6.155-2.441-8.118-7.322-1.964-4.882-2.945-11.673-2.945-20.375 0-9.339 1.273-17.006 3.82-23.002 2.6-5.995 5.784-8.993 9.551-8.993.955 0 1.804.292 2.547.875.743.531 1.353 1.327 1.83 2.388Zm204.387 15.679c4.776.902 8.145 2.918 10.108 6.049 1.963 3.13 2.945 8.065 2.945 14.804 0 13.371-4.033 24.328-12.098 32.87-8.012 8.49-18.279 12.735-30.801 12.735-4.935 0-9.737-.876-14.406-2.627-4.616-1.804-8.596-4.298-11.938-7.481-3.821-3.502-6.686-7.19-8.596-11.063-1.91-3.927-2.865-7.933-2.865-12.018 0-4.563.981-8.092 2.945-10.586 1.963-2.494 5.067-4.192 9.312-5.094-.796-1.857-1.38-3.422-1.751-4.695-.372-1.274-.558-2.255-.558-2.945 0-2.388 1.247-4.829 3.741-7.322 2.547-2.494 4.935-3.741 7.163-3.741.955 0 1.964.186 3.025.557 1.061.318 2.281.875 3.661 1.671-4.086-11.567-7.057-20.481-8.914-26.742-1.857-6.314-2.786-10.665-2.786-13.053 0-3.289.849-5.889 2.547-7.799 1.698-1.964 4.006-2.945 6.924-2.945 4.988 0 11.302 11.142 18.943 33.428a820.29 820.29 0 0 1 3.024 8.834 2101 2101 0 0 0 2.467-7.004c7.641-22.073 14.22-33.109 19.739-33.109 2.706 0 4.855.928 6.446 2.785 1.645 1.804 2.468 4.245 2.468 7.323 0 2.334-.902 6.606-2.706 12.814-1.751 6.208-4.431 14.326-8.039 24.354Zm-5.73-1.353c3.555-9.657 6.314-17.616 8.277-23.877 2.016-6.314 3.024-10.187 3.024-11.62 0-1.539-.344-2.733-1.034-3.582-.637-.849-1.539-1.273-2.706-1.273-1.486 0-2.998 1.247-4.537 3.741-1.539 2.44-3.237 6.393-5.094 11.859l-7.959 23.001 10.029 1.751Zm-19.579-2.706-8.596-24.832c-2.229-6.314-3.953-10.426-5.173-12.336-1.221-1.964-2.547-2.945-3.98-2.945-1.114 0-2.016.424-2.706 1.273s-1.035 1.99-1.035 3.423c0 2.44.929 6.685 2.786 12.734s4.643 13.981 8.357 23.797c.318-.583.769-.981 1.353-1.194.584-.265 1.379-.398 2.388-.398.318 0 .955.027 1.91.08.955.053 2.52.186 4.696.398Zm8.993 24.116a49.996 49.996 0 0 1-6.526-.717 34.75 34.75 0 0 1-5.81-1.591 52.816 52.816 0 0 1 2.228 5.093 39.731 39.731 0 0 1 1.672 5.015 38.868 38.868 0 0 1 3.979-4.298 33.908 33.908 0 0 1 4.457-3.502Zm-40.67 12.416c.743.902 1.777 2.228 3.104 3.979 3.502 4.829 6.738 7.243 9.71 7.243 1.008 0 1.91-.318 2.706-.955s1.194-1.3 1.194-1.99c0-.796-.531-2.122-1.592-3.979-1.061-1.857-2.52-3.953-4.378-6.288-2.122-2.706-3.899-4.669-5.332-5.89-1.38-1.273-2.494-1.91-3.343-1.91-1.857 0-3.581 1.008-5.173 3.025-1.539 1.963-2.308 4.297-2.308 7.004 0 2.175.53 4.616 1.591 7.322 1.115 2.653 2.707 5.332 4.776 8.038 3.13 4.192 7.004 7.429 11.62 9.71 4.669 2.229 9.816 3.343 15.44 3.343 10.347 0 18.996-3.847 25.947-11.54 7.004-7.747 10.506-17.431 10.506-29.051 0-3.555-.266-6.367-.796-8.436-.531-2.123-1.406-3.661-2.627-4.616-2.175-1.804-6.42-3.423-12.734-4.855-6.261-1.433-12.814-2.149-19.659-2.149-1.91 0-3.263.318-4.059.955-.796.636-1.194 1.724-1.194 3.263 0 3.608 2.016 6.234 6.049 7.879 4.033 1.592 10.559 2.388 19.579 2.388h3.263c.743 0 1.327.292 1.751.875.478.531.796 1.354.955 2.468-.902.849-2.759 1.83-5.571 2.945-2.812 1.061-4.961 2.122-6.447 3.183-3.183 2.335-5.757 5.12-7.72 8.357-1.91 3.184-2.865 6.208-2.865 9.073 0 1.751.398 3.874 1.194 6.368.849 2.44 1.273 3.953 1.273 4.536v.557l-.159.717c-2.335-.16-4.192-1.513-5.571-4.059-1.327-2.6-1.99-6.049-1.99-10.347v-.716c-.425.371-.849.636-1.274.795-.371.16-.795.239-1.273.239-.477 0-.928-.026-1.353-.079a34.227 34.227 0 0 1-1.433-.398c.16.583.266 1.167.319 1.751.106.53.159.955.159 1.273 0 1.963-.769 3.661-2.308 5.094-1.539 1.379-3.369 2.069-5.492 2.069-3.343 0-6.738-1.618-10.187-4.855-3.449-3.29-5.174-6.5-5.174-9.63 0-.584.053-1.088.159-1.512.16-.478.398-.876.717-1.194Zm23.877 1.91c.902 0 1.724-.398 2.467-1.194.743-.849 1.114-1.751 1.114-2.706 0-1.008-.743-3.343-2.228-7.004a67.304 67.304 0 0 0-5.412-10.904c-1.592-2.653-3.157-4.642-4.696-5.969-1.539-1.38-2.998-2.069-4.378-2.069-1.114 0-2.361.716-3.74 2.149-1.327 1.379-1.99 2.679-1.99 3.9 0 1.273.663 3.183 1.99 5.73 1.326 2.547 3.104 5.253 5.332 8.118 2.335 3.131 4.537 5.571 6.606 7.322 2.07 1.751 3.714 2.627 4.935 2.627Zm181.067-74.655c3.502 0 6.102.504 7.799 1.512 1.751.955 2.627 2.414 2.627 4.377 0 .743-.212 1.778-.637 3.104-.424 1.274-1.008 2.68-1.751 4.219l-15.838 31.597c-.955 1.963-1.99 3.608-3.104 4.934-1.061 1.327-2.255 2.415-3.582 3.263l-73.143 44.173-21.25-6.049-13.371-22.206 3.979-22.762 72.506-43.536c1.486-.955 2.998-1.618 4.537-1.99 1.539-.424 3.396-.636 5.571-.636h35.657Zm-1.433 22.683c1.114-2.335 1.91-4.192 2.388-5.572.477-1.432.716-2.626.716-3.581 0-2.6-1.035-4.855-3.104-6.765-2.069-1.91-4.51-2.865-7.322-2.865h-27.379c7.694 4.616 13.557 10.081 17.589 16.395 4.033 6.261 6.42 13.743 7.163 22.444l9.949-20.056ZM585.291 396.8a40.286 40.286 0 0 0-5.014-3.82 51.492 51.492 0 0 0-5.89-3.263l-68.447 40.989 14.326 5.173 65.025-39.079Zm13.212 19.659a43.936 43.936 0 0 0-4.059-8.755c-1.592-2.759-3.555-5.385-5.89-7.879l-65.502 39.476 10.108 16.794 65.343-39.636Zm2.865 17.191c-.053-2.546-.239-4.855-.557-6.924a42.345 42.345 0 0 0-1.194-5.969l-64.547 39.078-2.229 15.202 68.527-41.387Zm-70.516 26.663-12.496-21.012-16.316-5.73-3.422 19.261 11.859 19.897 17.748 5.014 2.627-17.43Zm-8.596 2.308c0 1.433-.398 2.6-1.194 3.502-.796.902-1.831 1.353-3.104 1.353-2.335 0-4.882-1.937-7.641-5.81-2.706-3.873-4.059-7.481-4.059-10.824 0-1.38.372-2.467 1.115-3.263.795-.849 1.83-1.274 3.104-1.274 2.334 0 4.881 1.91 7.64 5.731 2.759 3.767 4.139 7.295 4.139 10.585Zm267.501-28.891c-11.036 1.963-22.285 10.241-33.746 24.832l-.477.637c-4.935 6.208-8.782 10.24-11.541 12.097-2.759 1.804-5.757 2.706-8.993 2.706-4.776 0-8.517-1.193-11.223-3.581-2.706-2.441-5.173-7.004-7.402-13.69 0-.053-.053-.185-.159-.398-3.077-9.179-6.818-13.769-11.222-13.769-2.971 0-5.465 1.592-7.481 4.776-.319.53-.531.875-.637 1.035-2.282 3.661-5.014 6.181-8.198 7.561-3.13 1.326-8.41 1.989-15.838 1.989h-3.582c-11.514 0-19.26-1.698-23.24-5.093-3.926-3.449-5.89-9.763-5.89-18.943 0-9.126 1.99-15.387 5.97-18.783 3.979-3.449 11.699-5.173 23.16-5.173h3.582c7.322 0 12.575.689 15.759 2.069 3.236 1.38 5.995 3.873 8.277 7.481.053.107.186.345.398.717 1.963 3.396 4.643 5.093 8.038 5.093 4.192 0 7.827-4.589 10.904-13.769l.159-.398c2.229-6.685 4.696-11.222 7.402-13.609 2.706-2.441 6.447-3.662 11.223-3.662 3.024 0 5.836.823 8.436 2.468 2.653 1.645 5.81 4.669 9.471 9.073 1.274 1.539 3.025 3.741 5.253 6.606 4.192 5.306 7.216 8.808 9.073 10.506 3.555 3.236 7.137 5.757 10.745 7.561 3.608 1.751 7.535 2.971 11.779 3.661Zm-10.108.398c-1.326-.796-5.067-1.486-11.222-2.069-6.102-.584-13.185-.876-21.25-.876h-2.468c-.848-3.024-2.122-5.332-3.82-6.924-1.698-1.592-3.714-2.388-6.049-2.388-3.183 0-5.73 1.088-7.64 3.263-1.91 2.123-2.866 4.988-2.866 8.596 0 3.661.956 6.632 2.866 8.914 1.963 2.229 4.51 3.343 7.64 3.343 2.282 0 4.245-.77 5.89-2.308 1.698-1.592 3.024-3.927 3.979-7.004h2.468c8.649 0 15.891-.239 21.728-.717 5.889-.477 9.471-1.087 10.744-1.83Zm132.597 18.226h-37.487V490h-38.282v-37.646H798.99v-38.283h37.487v-37.487h38.282v37.487h37.487v38.283Zm-4.855-4.696v-28.891h-37.487v-37.328h-28.732v37.328h-37.486v28.891h37.486v37.487h28.732v-37.487h37.487Zm-6.367-6.526h-37.487v37.487h-15.838v-37.487h-37.646v-15.679h37.646v-37.487h15.838v37.487h37.487v15.679Zm123.996 21.807h-33.741l-16.953 29.528-16.952-29.528h-33.747l16.794-29.209-16.794-29.289h33.747l16.952-29.369 16.953 29.369h33.741l-16.63 29.289 16.63 29.209Zm-10.1-52.608h-20.219l10.269 17.43 9.95-17.43Zm-30.327-5.89-10.267-17.908-10.267 17.908h20.534Zm30.327 52.768-9.95-17.749-10.11 17.749h20.06Zm-13.06-23.479-13.844-23.24h-27.22l-13.849 23.24 13.849 23.32h27.22l13.844-23.32Zm-47.909-23.399h-20.216l10.108 17.43 10.108-17.43Zm30.801 52.608h-20.375l9.949 17.749 10.426-17.749Zm-30.801-5.73-10.267-17.589-10.108 17.589h20.375Zm155.679-24.912c2.65 0 4.99-.451 7-1.353 2.02-.955 4.35-2.891 7.01-5.81 3.02-3.236 5.49-5.279 7.4-6.128 1.91-.902 4.19-1.353 6.84-1.353 4.41 0 8.07 1.512 10.99 4.536 2.97 3.025 4.45 6.819 4.45 11.382 0 4.616-1.48 8.436-4.45 11.461-2.92 3.024-6.58 4.536-10.99 4.536-2.65 0-4.93-.424-6.84-1.273-1.91-.902-4.38-2.971-7.4-6.208-2.66-2.918-4.99-4.829-7.01-5.731-2.01-.955-4.35-1.432-7-1.432h-4.06c-.58 2.6-1.65 4.669-3.18 6.208-1.49 1.486-3.53 2.52-6.13 3.104v4.059c0 4.616 2.25 9.073 6.76 13.371.11.159.19.265.24.318 3.24 2.972 5.33 5.466 6.29 7.482.95 2.016 1.43 4.351 1.43 7.004 0 4.457-1.51 8.171-4.53 11.142-3.03 2.919-6.85 4.378-11.47 4.378-4.61 0-8.43-1.459-11.46-4.378-3.02-2.971-4.53-6.685-4.53-11.142 0-2.706.45-5.041 1.35-7.004.95-1.963 3-4.404 6.13-7.322 2.97-2.76 4.91-5.094 5.81-7.004.95-1.964 1.43-4.245 1.43-6.845v-4.059c-2.65-.584-4.72-1.618-6.21-3.104-1.48-1.539-2.52-3.608-3.1-6.208h-4.06c-2.76 0-5.15.504-7.16 1.512-1.97.955-4.27 2.892-6.93 5.81-2.39 2.812-4.64 4.749-6.76 5.81-2.07 1.008-4.54 1.512-7.4 1.512-4.41 0-8.1-1.512-11.07-4.536-2.92-3.025-4.37-6.845-4.37-11.461 0-4.563 1.45-8.357 4.37-11.382 2.97-3.024 6.66-4.536 11.07-4.536 2.81 0 5.22.504 7.24 1.512 2.01.955 4.32 2.892 6.92 5.81 2.66 2.918 4.96 4.882 6.93 5.89 2.01.955 4.4 1.432 7.16 1.432h4.06c.58-2.6 1.62-4.642 3.1-6.128 1.49-1.539 3.56-2.6 6.21-3.184v-4.059c0-2.706-.48-5.04-1.43-7.004-.96-2.016-2.95-4.351-5.97-7.004-2.92-2.759-4.88-5.12-5.89-7.083-.96-2.016-1.43-4.377-1.43-7.084 0-4.457 1.51-8.144 4.53-11.063 3.03-2.971 6.85-4.457 11.46-4.457 4.62 0 8.44 1.486 11.47 4.457 3.02 2.919 4.53 6.606 4.53 11.063 0 2.707-.48 5.041-1.43 7.004-.9 1.964-2.89 4.351-5.97 7.163-3.13 2.919-5.15 5.333-6.05 7.243-.85 1.91-1.27 4.165-1.27 6.765v4.059c2.6.584 4.64 1.645 6.13 3.184 1.53 1.486 2.6 3.528 3.18 6.128h4.06Zm177.4-12.575-37.88 27.538 14.56 44.73-37.96-27.618-38.04 27.618 14.56-44.73-37.8-27.538h46.72l14.56-44.491 14.49 44.491h46.79Zm133.87-1.592-34.54 30.165 11.07 43.695-37.97-24.355-38.12 24.355 11.06-43.695-34.54-30.165 44.97-2.626 16.47-40.273 16.48 40.273 45.12 2.626Zm-6.04 2.07-44.81 3.422-10.59-42.023-10.42 42.023-45.21-3.422 38.04 25.15-16.79 41.546 34.22-29.209 34.39 29.209-16.8-41.546 37.97-25.15Zm-37.49 18.942c0 4.988-1.75 9.233-5.25 12.734-3.51 3.449-7.72 5.174-12.66 5.174-5.09 0-9.39-1.725-12.89-5.174-3.5-3.448-5.26-7.693-5.26-12.734 0-4.988 1.76-9.206 5.26-12.655 3.5-3.502 7.74-5.253 12.73-5.253 5.04 0 9.31 1.751 12.82 5.253 3.5 3.449 5.25 7.667 5.25 12.655Zm178.2-19.42-37.96 27.538 14.48 44.73-37.96-27.618-37.97 27.618 14.49-44.73-37.81-27.538h46.8l14.49-44.491 14.48 44.491h46.96Zm-8.12 2.627h-40.75l-12.1 17.111 52.85-17.111Zm-53.32 16.793v-55.394l-12.58 38.601 12.58 16.793Zm33.11 46.003-12.74-38.84-20.05-6.367 32.79 45.207Zm-33.43-45.525-53.01-17.271 32.95 23.956 20.06-6.685Zm.32 21.568v-20.613l-33.11 44.57 33.11-23.957Zm180.11-48.311-34.54 20.057-9.16-15.759 34.55-19.897 9.15 15.599Zm-44.33 3.9h-18.07v-39.874h18.07v39.874Zm44.33 37.01-9.15 15.679-34.55-19.898 9.16-15.838 34.54 20.057Zm-63.12-36.612-9.07 15.759-34.54-20.057 9.07-15.599 34.54 19.897ZM1629.91 490h-18.07v-39.954h18.07V490Zm-18.79-40.432-34.54 19.898-9.07-15.679 34.54-20.057 9.07 15.838ZM352.65 660.572l-.159.637-.796.159-.796-.159-37.805-6.845 7.004 38.681-.478.955h-.318a2.78 2.78 0 0 1-.796-.398 2.774 2.774 0 0 1-.557-.557l-21.808-31.677-21.887 31.677c-.106.159-.292.345-.557.557a3.102 3.102 0 0 1-.717.398l-.636-.159-.159-.796 7.003-38.681-38.68 7.004-.955-.477v-.239a2.78 2.78 0 0 1 .398-.796c.212-.265.398-.451.557-.557l31.677-21.887-31.677-21.808a2.774 2.774 0 0 1-.557-.557 3.116 3.116 0 0 1-.398-.716l.159-.558.796-.318 38.68 7.004-6.844-37.805-.159-.796.477-.955h.318c.213.106.398.239.558.398.212.106.451.292.716.557l21.887 31.597 21.808-31.597c.212-.318.398-.531.557-.637.212-.159.477-.265.796-.318l.477.159.319.796-.16.796-6.844 37.805 37.805-6.845.796-.159.955.478v.398c-.053.212-.186.451-.398.716a2.774 2.774 0 0 1-.557.557l-31.597 21.808 31.597 21.887c.265.265.451.504.557.716.159.159.292.345.398.557Zm113.336 2.468-3.263 5.332-16.396-9.71 1.114 17.589-5.412-1.034-.955-19.659-23.16-13.689.318 26.901 16.634 10.745-1.91 5.014-14.565-9.79.159 19.261h-6.287l.159-19.261-14.565 9.79-1.91-5.014 16.634-10.745.318-26.901-23.16 13.689-.955 19.659-5.412 1.034 1.114-17.589-16.396 9.71-3.263-5.332 16.794-9.472-15.839-7.799 3.423-4.06 17.748 8.915 23.32-13.212-23.32-13.212-17.748 8.993-3.423-4.059 15.839-7.8-16.794-9.471 3.263-5.412 16.396 9.79-1.114-17.59 5.412.955.955 19.739 23.16 13.689-.318-26.901-16.634-10.745 1.91-5.094 14.565 9.79-.159-19.181h6.287l-.159 19.181 14.565-9.79 1.91 5.094-16.634 10.745-.318 26.901 23.16-13.689.955-19.739 5.412-.955-1.114 17.59 16.396-9.79 3.263 5.412-16.794 9.471 15.839 7.8-3.423 4.059-17.748-8.993-23.32 13.212 23.32 13.212 17.748-8.915 3.423 4.06-15.839 7.799 16.794 9.472Zm124.16 13.052h-17.908V694H476.89v-95.189h17.907v-17.908h95.349v95.189Zm-22.524 13.371v-86.116h-86.196v86.116h86.196Zm150.743-51.892-58.339 58.419-58.339-58.419 58.339-58.34 58.339 58.34Zm119.703-56.668-3.263 4.536c-2.812.956-5.863 1.672-9.153 2.149-3.236.425-6.765.637-10.585.637h-5.094v67.333c0 19.898-3.183 35.152-9.551 45.764-6.314 10.665-15.414 15.998-27.299 15.998-8.277 0-15.122-2.308-20.534-6.924-5.412-4.564-8.118-10.294-8.118-17.192 0-5.571 1.618-10.134 4.855-13.689 3.236-3.608 7.322-5.412 12.257-5.412 4.297 0 7.693 1.246 10.187 3.74 2.547 2.441 3.82 5.704 3.82 9.79 0 2.759-.663 4.908-1.989 6.447-1.274 1.538-3.317 2.6-6.129 3.183-2.918.531-4.749 1.114-5.492 1.751-.689.637-1.034 1.618-1.034 2.945 0 2.812 1.273 5.147 3.82 7.004 2.6 1.857 5.837 2.786 9.71 2.786 9.179 0 16.21-4.643 21.091-13.929 4.935-9.285 7.402-22.683 7.402-40.193v-4.855c-5.571.743-10.506 1.274-14.803 1.592-4.298.319-8.278.478-11.939.478-13.477 0-24.248-3.343-32.313-10.029-8.012-6.738-12.018-15.705-12.018-26.901 0-11.938 4.483-21.091 13.45-27.458 9.02-6.368 21.94-9.551 38.76-9.551h18.863v-16.475l7.004-1.99v18.465h28.095Zm-35.099 67.89v-60.568h-15.281a325.096 325.096 0 0 0-1.433 16.316c-.265 5.2-.398 10.188-.398 14.963 0 3.661.107 7.561.319 11.7.265 4.138.663 8.569 1.194 13.291a48.073 48.073 0 0 0 7.561 2.865c2.6.743 5.279 1.221 8.038 1.433Zm125.911-29.607a32.839 32.839 0 0 1 4.617-1.194 21.536 21.536 0 0 1 4.536-.478c3.396 0 6.686.69 9.869 2.069a25.707 25.707 0 0 1 8.516 5.651c2.547 2.494 4.457 5.306 5.731 8.437 1.273 3.13 1.91 6.447 1.91 9.949 0 3.555-.637 6.897-1.91 10.028-1.274 3.077-3.184 5.89-5.731 8.436a25.677 25.677 0 0 1-8.516 5.651 25.41 25.41 0 0 1-9.869 1.99c-6.42 0-12.097-1.83-17.032-5.492-4.882-3.714-9.259-9.365-13.132-16.952.106 13.424 3.13 23.611 9.073 30.562 5.996 6.951 15.255 11.037 27.777 12.257l.796 3.9h-77.282l.796-3.9c12.469-1.22 21.701-5.332 27.697-12.336 6.049-7.057 9.1-17.218 9.153-30.483-3.82 7.587-8.198 13.238-13.132 16.952-4.935 3.662-10.612 5.492-17.033 5.492-3.395 0-6.712-.663-9.948-1.99a25.905 25.905 0 0 1-8.437-5.651c-2.494-2.546-4.404-5.359-5.73-8.436-1.274-3.131-1.911-6.473-1.911-10.028 0-3.502.637-6.819 1.911-9.949 1.326-3.131 3.236-5.943 5.73-8.437a25.936 25.936 0 0 1 8.437-5.651c3.236-1.379 6.553-2.069 9.948-2.069 1.539 0 3.051.159 4.537.478 1.486.265 3.024.663 4.616 1.194-1.379-2.282-2.414-4.564-3.104-6.845a27.096 27.096 0 0 1-.955-7.163c0-3.396.663-6.659 1.99-9.79a26.824 26.824 0 0 1 5.651-8.516c2.494-2.441 5.306-4.324 8.436-5.651a25.83 25.83 0 0 1 10.029-1.99c3.448 0 6.765.664 9.948 1.99a25.92 25.92 0 0 1 8.437 5.651 26.84 26.84 0 0 1 5.651 8.516 24.855 24.855 0 0 1 1.989 9.79c0 2.44-.344 4.828-1.034 7.163-.637 2.281-1.645 4.563-3.025 6.845Zm163.88 18.385c0 7.853-1.46 15.308-4.38 22.365-2.92 7.003-7.16 13.318-12.74 18.942-5.57 5.571-11.88 9.816-18.94 12.734-7 2.919-14.43 4.378-22.28 4.378-7.8 0-15.26-1.459-22.37-4.378-7.06-2.971-13.343-7.216-18.861-12.734-5.571-5.624-9.816-11.939-12.734-18.942-2.919-7.057-4.378-14.512-4.378-22.365 0-7.8 1.459-15.228 4.378-22.285 2.918-7.057 7.163-13.371 12.734-18.943 5.518-5.518 11.801-9.736 18.861-12.655 7.11-2.971 14.57-4.457 22.37-4.457 7.85 0 15.28 1.46 22.28 4.378 7.06 2.918 13.37 7.163 18.94 12.734 5.58 5.572 9.82 11.886 12.74 18.943 2.92 7.057 4.38 14.485 4.38 22.285Zm-5.34-.159c0-7.11-1.32-13.876-3.98-20.296-2.65-6.42-6.5-12.151-11.54-17.191-5.04-5.041-10.77-8.861-17.19-11.461-6.37-2.653-13.13-3.98-20.29-3.98-7.17 0-13.96 1.327-20.38 3.98-6.42 2.653-12.12 6.473-17.11 11.461-5.041 5.04-8.888 10.771-11.541 17.191-2.653 6.42-3.979 13.186-3.979 20.296 0 7.163 1.326 13.954 3.979 20.375 2.653 6.42 6.5 12.124 11.541 17.111 4.99 5.041 10.69 8.888 17.11 11.541 6.42 2.653 13.21 3.979 20.38 3.979 7.16 0 13.92-1.3 20.29-3.899 6.42-2.653 12.15-6.527 17.19-11.621 5.04-4.987 8.89-10.691 11.54-17.111 2.66-6.421 3.98-13.212 3.98-20.375Zm-30 37.327h-43.38v-4.855c6.42-.106 10.37-.716 11.86-1.83 1.54-1.168 2.31-3.821 2.31-7.959v-37.169c0-2.759-.43-4.696-1.27-5.81-.8-1.114-2.15-1.671-4.06-1.671h-.56l-9.79.477.08-4.855c5.09-.212 9.76-1.3 14.01-3.263 4.24-2.016 8.04-4.961 11.38-8.834h5.25v61.204c.48 3.078 1.86 5.412 4.14 7.004 2.28 1.539 5.6 2.441 9.95 2.706l.08 4.855Zm187.43-37.168-65.34 34.223 13.21-29.289-89.7 10.586V622.29l89.7 10.426-13.21-29.21 65.34 34.065Zm149.47 0-139.52 41.068 47.28-41.068-47.28-41.069 139.52 41.069Zm-16.95 0-103.07-29.926 35.42 29.926h67.65Zm159.18-.319-44.81 44.173v-15.441h-74.5l-11.7-11.779 11.23-21.489-11.23-24.912h86.2v-14.565l44.81 44.013Zm-10.75-4.377-29.68-29.209v8.516h-83.73l9.23 20.693-10.9 20.693h85.4v8.357l29.68-29.05Zm157.27 63.115c-5.14-1.221-10.13-2.123-14.96-2.706a117.97 117.97 0 0 0-14.17-.876c-4.61 0-9.47.292-14.56.876-5.09.583-10.45 1.485-16.08 2.706 4.62-5.465 9.47-9.763 14.57-12.894 5.09-3.13 10.66-5.253 16.71-6.367l-12.89-9.949c-6.48-4.987-12.18-8.622-17.11-10.904-4.94-2.281-9.56-3.422-13.85-3.422-3.93 0-7.7.929-11.31 2.786-3.6 1.804-7.11 4.563-10.5 8.277l-42.42-32.95c4.19-4.298 8.49-7.482 12.89-9.551 4.46-2.069 9.23-3.104 14.33-3.104 1.8 0 3.68.159 5.65.478 1.96.265 4.06.689 6.29 1.273-1.91-3.396-3.35-6.712-4.3-9.949-.96-3.289-1.43-6.499-1.43-9.63 0-3.449.53-6.871 1.59-10.267 1.11-3.449 2.81-6.977 5.09-10.586l42.42 32.951c-2.17 3.342-3.79 6.499-4.85 9.471-1.01 2.971-1.51 5.889-1.51 8.755 0 5.306 1.8 10.612 5.41 15.918 3.61 5.306 9.12 10.771 16.55 16.395l12.97 9.869c-.1-1.22-.18-2.096-.23-2.626v-1.751c0-4.563.92-9.339 2.78-14.326 1.86-5.041 4.67-10.347 8.44-15.918.16 10.187 1.43 20.136 3.82 29.846 2.44 9.657 5.99 19.048 10.66 28.175Z" fill="#3C4043"/></svg>