<?xml version="1.0" encoding="utf-8"?>
<!-- Generator: Adobe Illustrator 27.1.1, SVG Export Plug-In . SVG Version: 6.00 Build 0)  -->
<svg version="1.1" id="Layer_1" xmlns="http://www.w3.org/2000/svg" xmlns:xlink="http://www.w3.org/1999/xlink" x="0px" y="0px"
	 width="1920px" height="1080px" viewBox="0 0 1920 1080" style="enable-background:new 0 0 1920 1080;" xml:space="preserve">
<style type="text/css">
	.st0{fill:#D2E3FC;}
	.st1{fill:#3C4043;}
	.st2{fill:#FF6D7F;}
</style>
<g>
	<rect x="49.7" y="663" class="st0" width="932" height="10"/>
	<rect x="49.7" y="444" class="st0" width="932" height="10"/>
	<path class="st1" d="M400.3,585c0,11.3-2.7,22.5-8,33.6c-5.2,11.1-12.6,20.4-22.1,28.1c-10.4,8.3-22.6,14.8-36.5,19.5
		c-13.8,4.7-30.5,7-50,7c-21,0-39.8-2-56.6-5.9c-16.7-3.9-33.7-9.7-51-17.4v-48.4h2.7c14.7,12.2,31.7,21.7,51,28.3
		c19.3,6.6,37.4,10,54.3,10c24,0,42.6-4.5,55.9-13.5c13.4-9,20.1-21,20.1-35.9c0-12.9-3.2-22.4-9.6-28.5
		c-6.2-6.1-15.8-10.9-28.7-14.3c-9.8-2.6-20.4-4.8-31.8-6.4c-11.3-1.7-23.4-3.8-36.1-6.4c-25.8-5.5-44.9-14.8-57.4-27.9
		c-12.4-13.3-18.6-30.5-18.6-51.8c0-24.3,10.3-44.3,30.9-59.8c20.6-15.6,46.7-23.4,78.3-23.4c20.4,0,39.2,2,56.2,5.9
		c17.1,3.9,32.2,8.7,45.3,14.5v45.7h-2.7c-11.1-9.4-25.7-17.1-43.8-23.2c-18-6.2-36.4-9.4-55.3-9.4c-20.7,0-37.4,4.3-50,12.9
		c-12.5,8.6-18.8,19.7-18.8,33.2c0,12.1,3.1,21.6,9.4,28.5s17.3,12.2,33,15.8c8.3,1.8,20.2,4,35.5,6.6c15.4,2.6,28.4,5.3,39.1,8
		c21.6,5.7,37.9,14.4,48.8,26C394.8,547.9,400.3,564.2,400.3,585z M498.9,413.3h-41.4v-38.1h41.4V413.3z M496.6,668h-36.7V449.8
		h36.7V668z M727.5,668H551.3v-27.1l127.1-160.4H554v-30.7h170.1V476L596.4,636.9h131.1V668z M962,562.7H801.3
		c0,13.4,2,25.1,6.1,35.2c4,9.9,9.6,18,16.6,24.4c6.8,6.2,14.8,10.9,24,14.1c9.4,3.1,19.7,4.7,30.9,4.7c14.8,0,29.8-2.9,44.7-8.8
		c15.1-6,25.8-11.8,32.2-17.6h2v40c-12.4,5.2-25,9.6-37.9,13.1c-12.9,3.5-26.4,5.3-40.6,5.3c-36.2,0-64.5-9.8-84.8-29.3
		c-20.3-19.7-30.5-47.5-30.5-83.6c0-35.7,9.7-64,29.1-85c19.5-21,45.2-31.4,77-31.4c29.4,0,52.1,8.6,68,25.8
		c16,17.2,24,41.6,24,73.2V562.7z M926.3,534.6c-0.1-19.3-5-34.2-14.6-44.7c-9.5-10.5-24-15.8-43.6-15.8c-19.7,0-35.4,5.8-47.1,17.4
		c-11.6,11.6-18.2,26-19.7,43.2H926.3z"/>
	<path class="st1" d="M1321.1,298.2h2.2v-19.6h-2.2v-2.8h10.2c1.2,0,2.3,0.2,3.2,0.5c0.9,0.3,1.7,0.8,2.3,1.4
		c0.7,0.6,1.1,1.3,1.4,2.1c0.3,0.8,0.5,1.7,0.5,2.6v0.4c0,0.7-0.1,1.3-0.3,1.9c-0.2,0.6-0.5,1.1-0.9,1.5c-0.4,0.5-0.8,0.9-1.4,1.2
		c-0.5,0.3-1,0.6-1.7,0.7v0.4c1.2,0.3,2.2,1,3,1.9c0.8,0.9,1.2,2.1,1.2,3.5v0.4c0,0.9-0.2,1.8-0.5,2.6c-0.3,0.8-0.8,1.5-1.4,2.1
		c-0.6,0.6-1.4,1-2.3,1.4c-0.9,0.3-2,0.5-3.2,0.5h-10.2V298.2z M1326.2,298.2h4.8c1.4,0,2.6-0.3,3.4-1c0.9-0.7,1.3-1.7,1.3-3V294
		c0-1.3-0.4-2.3-1.3-3.1c-0.8-0.8-2-1.2-3.4-1.2h-4.9V298.2z M1326.2,287h4.9c1.4,0,2.6-0.4,3.4-1.1c0.8-0.7,1.3-1.8,1.3-3.1v-0.2
		c0-1.2-0.4-2.2-1.3-2.9c-0.9-0.7-2-1.1-3.4-1.1h-4.8V287z M1357.1,298h-0.4c-0.6,1.2-1.4,2.1-2.4,2.7c-1,0.6-2.1,0.9-3.2,0.9
		c-1.2,0-2.3-0.2-3.3-0.6c-1-0.4-1.9-1-2.7-1.8c-0.7-0.8-1.3-1.8-1.8-2.9c-0.4-1.1-0.7-2.4-0.7-3.9v-0.6c0-1.5,0.2-2.8,0.7-3.9
		c0.4-1.1,1-2.1,1.8-2.8c0.8-0.8,1.7-1.4,2.7-1.8c1-0.4,2.1-0.6,3.2-0.6c1.2,0,2.3,0.3,3.3,0.8c1,0.5,1.8,1.4,2.4,2.5h0.4v-2.8h2.8
		v14.2c0,0.7,0.3,1.1,1,1.1h0.9v2.6h-1.9c-0.8,0-1.5-0.3-2-0.8c-0.5-0.5-0.8-1.2-0.8-2V298z M1351.4,298.8c0.8,0,1.6-0.2,2.3-0.5
		c0.7-0.3,1.3-0.8,1.8-1.3c0.5-0.6,0.9-1.3,1.2-2.1c0.3-0.8,0.4-1.7,0.4-2.7v-0.4c0-1-0.2-1.8-0.4-2.6c-0.3-0.8-0.7-1.5-1.2-2.1
		c-0.5-0.6-1.1-1-1.8-1.3c-0.7-0.3-1.5-0.5-2.3-0.5c-0.8,0-1.6,0.2-2.3,0.5c-0.7,0.3-1.3,0.8-1.8,1.3c-0.5,0.6-0.9,1.2-1.2,2.1
		c-0.3,0.8-0.4,1.7-0.4,2.6v0.6c0,2,0.5,3.6,1.6,4.8C1348.3,298.3,1349.7,298.8,1351.4,298.8z M1369.9,287.8c0,0.9,0.4,1.5,1.1,2
		c0.7,0.5,2.1,0.8,4,0.9c2.1,0.2,3.7,0.7,4.8,1.5c1.1,0.8,1.7,2,1.7,3.6v0.2c0,0.9-0.2,1.6-0.5,2.3c-0.3,0.7-0.8,1.2-1.4,1.7
		c-0.6,0.5-1.3,0.8-2.2,1.1c-0.9,0.3-1.8,0.4-2.8,0.4c-1.4,0-2.6-0.2-3.6-0.5c-1-0.4-1.8-0.9-2.5-1.5c-0.6-0.6-1.1-1.3-1.5-2.1
		c-0.3-0.8-0.5-1.6-0.6-2.4l2.7-0.6c0.1,1.4,0.6,2.5,1.6,3.3c0.9,0.8,2.2,1.2,3.7,1.2c1.3,0,2.4-0.3,3.2-0.8
		c0.8-0.5,1.2-1.3,1.2-2.2c0-1-0.4-1.7-1.2-2.2c-0.8-0.4-2.1-0.7-3.8-0.8c-2.1-0.1-3.7-0.6-4.8-1.4c-1.1-0.8-1.7-2-1.7-3.6v-0.2
		c0-0.8,0.2-1.6,0.5-2.2c0.4-0.6,0.8-1.2,1.4-1.6c0.6-0.4,1.3-0.8,2.1-1s1.6-0.3,2.4-0.3c1.2,0,2.2,0.2,3.1,0.5
		c0.9,0.3,1.6,0.7,2.2,1.3c0.6,0.5,1.1,1.1,1.4,1.8c0.3,0.7,0.6,1.3,0.7,2l-2.7,0.6c-0.1-1.2-0.6-2.1-1.4-2.7c-0.8-0.6-1.8-1-3.1-1
		c-0.5,0-1,0.1-1.5,0.2c-0.4,0.1-0.9,0.3-1.2,0.5c-0.4,0.2-0.7,0.5-0.9,0.8C1370,286.9,1369.9,287.3,1369.9,287.8z M1392.9,290.6
		h0.6l6.8-7.4h3.4v0.2l-7.4,8.2v0.6l8.3,8.6v0.2h-3.5l-7.6-7.8h-0.7v7.8h-2.8v-25.2h2.8V290.6z M1412.4,292.9
		c0.1,1.8,0.6,3.2,1.7,4.3c1,1.1,2.5,1.6,4.3,1.6c0.8,0,1.6-0.1,2.2-0.3c0.6-0.2,1.1-0.5,1.6-0.8c0.4-0.3,0.8-0.7,1.1-1.2
		c0.3-0.5,0.5-0.9,0.7-1.4l2.7,0.7c-0.5,1.7-1.4,3-2.8,4.1c-1.3,1-3.2,1.5-5.5,1.5c-1.3,0-2.4-0.2-3.5-0.6c-1.1-0.5-2-1.1-2.7-1.9
		s-1.4-1.8-1.8-2.9c-0.4-1.1-0.6-2.4-0.6-3.7v-0.9c0-1.2,0.2-2.4,0.6-3.5c0.5-1.1,1.1-2,1.9-2.8c0.8-0.8,1.7-1.4,2.8-1.8
		c1.1-0.5,2.2-0.7,3.5-0.7c1.5,0,2.7,0.3,3.8,0.8c1.1,0.5,1.9,1.2,2.6,2c0.7,0.8,1.2,1.7,1.5,2.6c0.3,0.9,0.5,1.8,0.5,2.6v2.3
		H1412.4z M1418.3,285.3c-0.8,0-1.5,0.1-2.2,0.4c-0.7,0.2-1.3,0.6-1.8,1c-0.5,0.5-0.9,1-1.3,1.6c-0.3,0.6-0.5,1.3-0.6,2h11.5
		c0-0.8-0.2-1.5-0.6-2.1c-0.3-0.6-0.7-1.2-1.3-1.6c-0.5-0.4-1.1-0.8-1.8-1C1419.7,285.4,1419,285.3,1418.3,285.3z M1431.3,283.1h6.5
		v2.4h0.4c0.5-1,1.1-1.7,1.9-2.2c0.8-0.5,1.8-0.7,2.9-0.7c1.8,0,3.2,0.6,4.3,1.8c1.1,1.2,1.7,2.9,1.8,5.1l-2.9,0.4
		c0-1.7-0.4-2.8-1.2-3.6c-0.8-0.7-1.8-1.1-2.9-1.1c-0.7,0-1.4,0.1-1.9,0.4c-0.5,0.3-1,0.7-1.3,1.2s-0.6,1.1-0.8,1.8
		c-0.2,0.7-0.2,1.4-0.2,2.2v7.6h4.5v2.6h-11.4v-2.6h4.1v-12.7h-3.7V283.1z M1465,301h-5.5l-6.2-17.9h3.3l5.5,16.6h0.4l5.5-16.6h3.3
		L1465,301z M1482,277.8c0-0.7,0.2-1.3,0.7-1.8c0.5-0.5,1.1-0.8,1.8-0.8s1.3,0.3,1.8,0.8c0.5,0.5,0.8,1.1,0.8,1.8
		c0,0.7-0.2,1.3-0.8,1.8c-0.5,0.5-1.1,0.7-1.8,0.7s-1.3-0.2-1.8-0.7C1482.2,279.1,1482,278.5,1482,277.8z M1476.9,298.4h6.3v-12.7
		h-5.6v-2.6h8.4v15.3h5.8v2.6h-14.9V298.4z M1498.5,298.4h6.5v-20h-6.3v-2.6h9.1v22.6h6.5v2.6h-15.8V298.4z M1520.5,298.4h6.5v-20
		h-6.3v-2.6h9.1v22.6h6.5v2.6h-15.8V298.4z M1544.6,292.9c0.1,1.8,0.6,3.2,1.7,4.3c1,1.1,2.5,1.6,4.3,1.6c0.8,0,1.6-0.1,2.2-0.3
		c0.6-0.2,1.1-0.5,1.6-0.8c0.5-0.3,0.8-0.7,1.1-1.2c0.3-0.5,0.5-0.9,0.7-1.4l2.7,0.7c-0.5,1.7-1.4,3-2.8,4.1c-1.3,1-3.2,1.5-5.5,1.5
		c-1.3,0-2.5-0.2-3.5-0.6c-1.1-0.5-2-1.1-2.7-1.9s-1.4-1.8-1.8-2.9c-0.4-1.1-0.7-2.4-0.7-3.7v-0.9c0-1.2,0.2-2.4,0.7-3.5
		c0.5-1.1,1.1-2,1.9-2.8c0.8-0.8,1.7-1.4,2.8-1.8c1.1-0.5,2.2-0.7,3.5-0.7c1.5,0,2.7,0.3,3.8,0.8c1.1,0.5,2,1.2,2.6,2
		c0.7,0.8,1.2,1.7,1.5,2.6c0.3,0.9,0.5,1.8,0.5,2.6v2.3H1544.6z M1550.6,285.3c-0.8,0-1.5,0.1-2.2,0.4c-0.7,0.2-1.3,0.6-1.8,1
		c-0.5,0.5-0.9,1-1.3,1.6c-0.3,0.6-0.5,1.3-0.6,2h11.5c0-0.8-0.2-1.5-0.6-2.1c-0.3-0.6-0.7-1.2-1.3-1.6c-0.5-0.4-1.1-0.8-1.8-1
		C1552,285.4,1551.3,285.3,1550.6,285.3z"/>
	<path class="st1" d="M490.1,275.8h3.2l6.6,23.9h0.4l6.6-23.9h3.2L503,301h-5.8L490.1,275.8z M516.3,292.9c0.1,1.8,0.6,3.2,1.7,4.3
		c1,1.1,2.5,1.6,4.3,1.6c0.8,0,1.6-0.1,2.2-0.3c0.6-0.2,1.2-0.5,1.6-0.8c0.5-0.3,0.8-0.7,1.1-1.2c0.3-0.5,0.5-0.9,0.7-1.4l2.7,0.7
		c-0.5,1.7-1.4,3-2.8,4.1c-1.3,1-3.2,1.5-5.5,1.5c-1.3,0-2.4-0.2-3.5-0.6c-1.1-0.5-2-1.1-2.7-1.9s-1.4-1.8-1.8-2.9
		c-0.4-1.1-0.6-2.4-0.6-3.7v-0.9c0-1.2,0.2-2.4,0.6-3.5c0.5-1.1,1.1-2,1.9-2.8c0.8-0.8,1.7-1.4,2.8-1.8c1.1-0.5,2.2-0.7,3.5-0.7
		c1.5,0,2.7,0.3,3.8,0.8c1.1,0.5,2,1.2,2.6,2c0.7,0.8,1.2,1.7,1.5,2.6c0.3,0.9,0.5,1.8,0.5,2.6v2.3H516.3z M522.3,285.3
		c-0.8,0-1.5,0.1-2.2,0.4c-0.7,0.2-1.3,0.6-1.8,1c-0.5,0.5-0.9,1-1.3,1.6c-0.3,0.6-0.5,1.3-0.6,2h11.5c0-0.8-0.2-1.5-0.6-2.1
		c-0.3-0.6-0.7-1.2-1.3-1.6c-0.5-0.4-1.1-0.8-1.8-1C523.7,285.4,523,285.3,522.3,285.3z M535.3,283.1h6.5v2.4h0.4
		c0.5-1,1.1-1.7,1.9-2.2c0.8-0.5,1.8-0.7,2.9-0.7c1.8,0,3.3,0.6,4.4,1.8s1.7,2.9,1.8,5.1l-3,0.4c0-1.7-0.4-2.8-1.2-3.6
		c-0.8-0.7-1.8-1.1-2.9-1.1c-0.7,0-1.4,0.1-1.9,0.4c-0.5,0.3-1,0.7-1.3,1.2s-0.6,1.1-0.8,1.8c-0.2,0.7-0.3,1.4-0.3,2.2v7.6h4.5v2.6
		h-11.4v-2.6h4.1v-12.7h-3.7V283.1z M572.2,298.3h-0.4c-0.3,0.6-0.7,1-1.1,1.4c-0.4,0.4-0.9,0.7-1.4,1c-0.5,0.3-1,0.5-1.6,0.6
		c-0.6,0.1-1.1,0.2-1.7,0.2c-1.2,0-2.3-0.2-3.3-0.6s-1.9-1-2.7-1.8c-0.8-0.8-1.4-1.7-1.8-2.8c-0.4-1.2-0.6-2.5-0.6-3.9v-0.6
		c0-1.4,0.2-2.7,0.7-3.9c0.5-1.2,1.1-2.1,1.8-2.9c0.8-0.8,1.7-1.4,2.7-1.8c1-0.4,2.1-0.6,3.3-0.6c1.2,0,2.4,0.3,3.4,0.8
		c1.1,0.5,1.9,1.4,2.5,2.5h0.4v-10.2h2.8V301h-2.8V298.3z M566.2,298.8c0.8,0,1.6-0.2,2.3-0.5c0.7-0.3,1.3-0.8,1.9-1.3
		c0.6-0.6,1-1.3,1.3-2.1c0.3-0.8,0.5-1.7,0.5-2.7v-0.4c0-1-0.2-1.8-0.5-2.6c-0.3-0.8-0.7-1.5-1.3-2.1c-0.5-0.6-1.2-1-1.9-1.3
		c-0.7-0.3-1.5-0.5-2.3-0.5c-0.8,0-1.6,0.2-2.4,0.5c-0.7,0.3-1.4,0.8-1.9,1.3c-0.5,0.6-0.9,1.3-1.3,2.1c-0.3,0.8-0.4,1.7-0.4,2.6
		v0.6c0,1,0.1,1.9,0.4,2.7c0.3,0.8,0.7,1.5,1.3,2.1c0.6,0.6,1.2,1,1.9,1.3C564.5,298.7,565.3,298.8,566.2,298.8z M593.3,298h-0.4
		c-0.6,1.2-1.4,2.1-2.4,2.7c-1,0.6-2.1,0.9-3.2,0.9c-1.2,0-2.3-0.2-3.3-0.6c-1-0.4-1.9-1-2.7-1.8c-0.7-0.8-1.3-1.8-1.8-2.9
		s-0.6-2.4-0.6-3.9v-0.6c0-1.5,0.2-2.8,0.6-3.9s1-2.1,1.8-2.8c0.8-0.8,1.7-1.4,2.7-1.8c1-0.4,2.1-0.6,3.2-0.6c1.2,0,2.3,0.3,3.3,0.8
		c1,0.5,1.8,1.4,2.4,2.5h0.4v-2.8h2.8v14.2c0,0.7,0.3,1.1,1,1.1h0.9v2.6h-1.9c-0.8,0-1.5-0.3-2-0.8c-0.5-0.5-0.8-1.2-0.8-2V298z
		 M587.6,298.8c0.8,0,1.6-0.2,2.3-0.5c0.7-0.3,1.3-0.8,1.8-1.3c0.5-0.6,0.9-1.3,1.2-2.1c0.3-0.8,0.4-1.7,0.4-2.7v-0.4
		c0-1-0.1-1.8-0.4-2.6c-0.3-0.8-0.7-1.5-1.2-2.1c-0.5-0.6-1.1-1-1.8-1.3c-0.7-0.3-1.5-0.5-2.3-0.5c-0.8,0-1.6,0.2-2.3,0.5
		c-0.7,0.3-1.3,0.8-1.8,1.3c-0.5,0.6-0.9,1.2-1.2,2.1c-0.3,0.8-0.4,1.7-0.4,2.6v0.6c0,2,0.5,3.6,1.6,4.8
		C584.5,298.3,585.9,298.8,587.6,298.8z M605.2,301h-2.8v-17.9h2.8v3h0.4c1.1-2.4,3-3.5,5.8-3.5c2.1,0,3.7,0.6,4.9,1.9
		c1.2,1.3,1.8,3.2,1.8,5.8V301h-2.8v-10.1c0-1.9-0.4-3.3-1.3-4.2c-0.8-0.9-2-1.4-3.4-1.4c-1.7,0-3,0.6-4,1.8c-1,1.2-1.4,2.7-1.4,4.6
		V301z M637.4,298H637c-0.6,1.2-1.4,2.1-2.4,2.7c-1,0.6-2.1,0.9-3.2,0.9c-1.2,0-2.3-0.2-3.3-0.6c-1-0.4-1.9-1-2.7-1.8
		c-0.7-0.8-1.3-1.8-1.8-2.9s-0.6-2.4-0.6-3.9v-0.6c0-1.5,0.2-2.8,0.6-3.9s1-2.1,1.8-2.8c0.8-0.8,1.7-1.4,2.7-1.8
		c1-0.4,2.1-0.6,3.2-0.6c1.2,0,2.3,0.3,3.3,0.8c1,0.5,1.8,1.4,2.4,2.5h0.4v-2.8h2.8v14.2c0,0.7,0.3,1.1,1,1.1h0.9v2.6h-1.9
		c-0.8,0-1.5-0.3-2-0.8c-0.5-0.5-0.8-1.2-0.8-2V298z M631.7,298.8c0.8,0,1.6-0.2,2.3-0.5c0.7-0.3,1.3-0.8,1.8-1.3
		c0.5-0.6,0.9-1.3,1.2-2.1c0.3-0.8,0.4-1.7,0.4-2.7v-0.4c0-1-0.1-1.8-0.4-2.6c-0.3-0.8-0.7-1.5-1.2-2.1c-0.5-0.6-1.1-1-1.8-1.3
		c-0.7-0.3-1.5-0.5-2.3-0.5c-0.8,0-1.6,0.2-2.3,0.5c-0.7,0.3-1.3,0.8-1.8,1.3c-0.5,0.6-0.9,1.2-1.2,2.1c-0.3,0.8-0.4,1.7-0.4,2.6
		v0.6c0,2,0.5,3.6,1.6,4.8C628.6,298.3,630,298.8,631.7,298.8z"/>
	<rect x="1110.7" y="489" class="st0" width="759" height="10"/>
	<rect x="1110.7" y="648" class="st0" width="759" height="10"/>
	<path class="st1" d="M1133.8,650.3v-85.2h9.8c11.1,55.5,37.3,83.2,78.7,83.2c18.6,0,33-5.3,43.2-15.8
		c10.3-10.7,15.4-22.6,15.4-35.7c0-13.3-4.5-24.4-13.5-33.4c-9-8.9-25.4-18.4-49.2-28.5c-21.2-9.1-37.2-17.1-48.1-23.8
		c-10.8-6.9-19.3-15.8-25.4-26.8c-6-10.9-9-22.6-9-35c0-18.9,6.5-34.6,19.5-47.1c13.1-12.6,29.8-18.9,49.8-18.9
		c11.2,0,21.8,1.8,31.6,5.5c9.9,3.6,20.1,11.2,30.5,22.7c6-7.2,9.4-14.9,10.2-23.2h8.6v69.3h-8.6c-4.9-20.2-13.7-36.1-26.4-47.7
		c-12.5-11.6-27-17.4-43.6-17.4c-15.8,0-27.3,4.3-34.8,12.9c-7.3,8.5-10.9,17.8-10.9,27.9c0,12.2,4.6,22.6,13.9,31.1
		c9.1,8.6,25.6,18.2,49.4,28.9c22.8,10.2,39.3,18.4,49.6,24.6c10.4,6.1,18.7,14.6,25,25.6c6.2,10.9,9.4,23.6,9.4,37.9
		c0,22.7-7.6,41.1-22.7,55.3c-15.1,14.2-35.3,21.3-60.5,21.3c-29,0-53.3-11.1-72.7-33.4c-4.3,6.1-7.5,14.7-9.6,25.8H1133.8z
		 M1354.3,405c0-5.6,2-10.4,5.9-14.5c4-4,8.9-6.1,14.5-6.1c5.6,0,10.3,2,14.2,6.1c3.9,4,5.9,8.9,5.9,14.5c0,5.7-1.9,10.6-5.9,14.6
		c-3.9,4-8.7,6.1-14.2,6.1c-5.6,0-10.4-2-14.5-6.1C1356.3,415.6,1354.3,410.7,1354.3,405z M1392,486.6v111.5
		c0,17.1,0.3,27.8,0.8,32.2s2.4,7.8,5.7,10.2c3.3,2.3,9.1,3.5,17.4,3.5h4.1v9h-86.1v-9h6.6c9.2,0,15.2-1.3,18-3.9
		c2.9-2.7,4.5-5.9,4.9-9.6c0.5-3.8,0.8-14.6,0.8-32.4v-48.4c0-18.8-0.9-30.2-2.7-34.4c-1.7-4.2-4-6.8-7-7.8c-2.9-1-7.9-1.6-15.2-1.6
		h-5.3v-9c23.2-2.3,41.1-5.8,53.9-10.4H1392z M1437.9,653v-6.1l106-144.9h-58.2c-7.4,0-12.5,0.5-15.2,1.6c-2.6,0.9-5.8,4-9.6,9.4
		c-3.6,5.2-7.3,13.3-11.1,24.4h-7.2l2.5-44.3h134v7L1473.6,644h43.8c14.2,0,23.7-0.8,28.5-2.3c4.8-1.6,9.6-5.4,14.3-11.5
		c4.7-6.2,9.4-15.6,14.1-28.1h7.8l-4.7,51H1437.9z M1754.5,547.1H1643c-0.5,7.7-0.8,13.4-0.8,17.2c0,28.1,4.4,49.3,13.1,63.5
		c8.8,14.1,22,21.1,39.4,21.1c23.7,0,40.5-10.6,50.4-31.8h9.4c-4.2,13.3-12.4,23.7-24.8,31.2c-12.4,7.4-25.8,11.1-40.4,11.1
		c-13.5,0-26.4-3.4-38.5-10.2c-12-6.9-21.8-16.6-29.5-29.1c-7.7-12.5-11.5-27.7-11.5-45.5c0-25.3,7.4-46.2,22.3-62.9
		c14.8-16.8,33.4-25.2,55.7-25.2c21,0,37.2,6.4,48.6,19.1C1747.8,518.5,1753.8,532.3,1754.5,547.1z M1720.3,539.3
		c0.4-3,0.6-5.7,0.6-8c0-11.5-3.4-20.3-10.2-26.6c-6.6-6.4-14.8-9.6-24.6-9.6c-23.7,0-37.8,14.7-42.4,44.1H1720.3z"/>
	<rect x="49.7" y="746" class="st0" width="1820" height="10"/>
	<rect x="49.7" y="346" class="st0" width="1820" height="10"/>
	<path class="st2" d="M1050.7,351l-8.7,15h17.3L1050.7,351z M1052.2,481V364.5h-3V481H1052.2z"/>
	<path class="st2" d="M1050.7,751l8.7-15h-17.3L1050.7,751z M1049.2,621v116.5h3V621H1049.2z"/>
	<path class="st2" d="M1010.1,493.8h15.5v2.8h-12.5v8.4h12.2v2.8h-12.2V519h-3V493.8z M1048.7,510.3c0,1.5-0.2,2.8-0.8,4
		c-0.5,1.1-1.1,2.1-1.9,2.9c-0.8,0.8-1.8,1.4-2.9,1.8c-1.1,0.4-2.2,0.6-3.4,0.6c-1.2,0-2.3-0.2-3.4-0.6c-1.1-0.4-2-1-2.8-1.8
		c-0.8-0.8-1.5-1.8-2-2.9c-0.5-1.2-0.7-2.5-0.7-4v-0.4c0-1.5,0.2-2.8,0.7-3.9c0.5-1.2,1.2-2.1,2-2.9c0.8-0.8,1.8-1.4,2.9-1.8
		c1.1-0.4,2.2-0.6,3.4-0.6c1.2,0,2.3,0.2,3.4,0.6c1.1,0.4,2,1,2.8,1.8c0.8,0.8,1.5,1.8,2,2.9c0.5,1.1,0.8,2.4,0.8,3.9V510.3z
		 M1039.7,516.8c0.9,0,1.7-0.1,2.4-0.4c0.7-0.3,1.4-0.8,1.9-1.3c0.6-0.6,1-1.3,1.3-2.1c0.3-0.8,0.5-1.7,0.5-2.7v-0.4
		c0-1-0.2-1.8-0.5-2.6c-0.3-0.8-0.7-1.5-1.3-2.1c-0.5-0.6-1.2-1-1.9-1.3c-0.7-0.3-1.5-0.5-2.4-0.5s-1.6,0.2-2.4,0.5
		c-0.8,0.3-1.4,0.8-1.9,1.3c-0.6,0.6-1,1.3-1.3,2.1c-0.3,0.8-0.5,1.7-0.5,2.6v0.4c0,1,0.2,1.9,0.5,2.7c0.3,0.8,0.7,1.5,1.3,2.1
		c0.6,0.6,1.2,1,1.9,1.3C1038,516.7,1038.8,516.8,1039.7,516.8z M1056.7,519h-2.8v-17.9h2.8v3h0.4c1.1-2.4,3-3.5,5.8-3.5
		c2.1,0,3.7,0.6,4.9,1.9c1.2,1.3,1.8,3.2,1.8,5.8V519h-2.8v-10.1c0-1.9-0.4-3.3-1.3-4.2c-0.8-0.9-2-1.4-3.4-1.4
		c-1.7,0-3.1,0.6-4,1.8c-1,1.2-1.4,2.7-1.4,4.6V519z M1075.3,501.1h5.6v-7.3h2.8v7.3h6.9v2.6h-6.9v11.6c0,0.7,0.3,1.1,1,1.1h5.1v2.6
		h-6.1c-0.8,0-1.5-0.3-2-0.8c-0.5-0.5-0.8-1.2-0.8-2v-12.5h-5.6V501.1z M1013.5,541.8c0,0.9,0.4,1.5,1.1,2c0.7,0.5,2.1,0.8,4,0.9
		c2.1,0.2,3.7,0.7,4.8,1.5c1.1,0.8,1.7,2,1.7,3.6v0.2c0,0.9-0.2,1.6-0.5,2.3c-0.3,0.7-0.8,1.2-1.4,1.7c-0.6,0.5-1.3,0.8-2.2,1.1
		c-0.9,0.3-1.8,0.4-2.8,0.4c-1.4,0-2.6-0.2-3.6-0.5c-1-0.4-1.8-0.9-2.5-1.5c-0.6-0.6-1.1-1.3-1.5-2.1c-0.3-0.8-0.5-1.6-0.6-2.4
		l2.7-0.6c0.1,1.4,0.6,2.5,1.6,3.3c0.9,0.8,2.2,1.2,3.7,1.2c1.3,0,2.4-0.3,3.2-0.8c0.8-0.5,1.2-1.3,1.2-2.2c0-1-0.4-1.7-1.2-2.2
		c-0.8-0.4-2.1-0.7-3.9-0.8c-2.1-0.1-3.6-0.6-4.8-1.4c-1.1-0.8-1.7-2-1.7-3.6v-0.2c0-0.8,0.2-1.6,0.5-2.2c0.4-0.6,0.8-1.2,1.4-1.6
		c0.6-0.4,1.3-0.8,2.1-1s1.6-0.3,2.4-0.3c1.2,0,2.2,0.2,3.1,0.5c0.9,0.3,1.6,0.7,2.2,1.3c0.6,0.5,1.1,1.1,1.4,1.8
		c0.3,0.7,0.6,1.3,0.6,2l-2.7,0.6c-0.1-1.2-0.6-2.1-1.4-2.7c-0.8-0.6-1.8-1-3.1-1c-0.5,0-1,0.1-1.5,0.2c-0.5,0.1-0.9,0.3-1.2,0.5
		c-0.4,0.2-0.6,0.5-0.9,0.8C1013.6,540.9,1013.5,541.3,1013.5,541.8z M1037.4,531.8c0-0.7,0.2-1.3,0.7-1.8c0.5-0.5,1.1-0.8,1.8-0.8
		c0.7,0,1.3,0.3,1.8,0.8c0.5,0.5,0.8,1.1,0.8,1.8c0,0.7-0.2,1.3-0.8,1.8c-0.5,0.5-1.1,0.7-1.8,0.7c-0.7,0-1.3-0.2-1.8-0.7
		C1037.6,533.1,1037.4,532.5,1037.4,531.8z M1032.3,552.4h6.3v-12.7h-5.6v-2.6h8.4v15.3h5.8v2.6h-14.9V552.4z M1069.6,552.4v2.6
		H1054v-4.5l12.7-10.4v-0.4h-12.5v-2.6h14.9v4.3l-12.8,10.5v0.4H1069.6z M1078,546.9c0.1,1.8,0.6,3.2,1.7,4.3c1,1.1,2.5,1.6,4.3,1.6
		c0.8,0,1.6-0.1,2.2-0.3c0.6-0.2,1.2-0.5,1.6-0.8c0.5-0.3,0.8-0.7,1.1-1.2c0.3-0.5,0.5-0.9,0.7-1.4l2.7,0.7c-0.5,1.7-1.4,3-2.8,4.1
		c-1.3,1-3.2,1.5-5.5,1.5c-1.3,0-2.4-0.2-3.5-0.6c-1-0.5-2-1.1-2.7-1.9c-0.8-0.8-1.4-1.8-1.8-2.9c-0.4-1.1-0.6-2.4-0.6-3.7v-0.9
		c0-1.2,0.2-2.4,0.6-3.5c0.5-1.1,1.1-2,1.9-2.8c0.8-0.8,1.7-1.4,2.8-1.8c1.1-0.5,2.2-0.7,3.5-0.7c1.5,0,2.7,0.3,3.8,0.8
		c1.1,0.5,2,1.2,2.6,2c0.7,0.8,1.2,1.7,1.5,2.6c0.3,0.9,0.5,1.8,0.5,2.6v2.3H1078z M1083.9,539.3c-0.8,0-1.5,0.1-2.2,0.4
		c-0.7,0.2-1.3,0.6-1.8,1c-0.5,0.5-0.9,1-1.3,1.6c-0.3,0.6-0.5,1.3-0.6,2h11.5c0-0.8-0.2-1.5-0.6-2.1c-0.3-0.6-0.7-1.2-1.3-1.6
		c-0.5-0.4-1.1-0.8-1.8-1C1085.3,539.4,1084.6,539.3,1083.9,539.3z M1004.3,604v2.7h-1.3c-1.7,0-3.3-0.3-4.8-0.9s-2.9-1.5-4.1-2.7
		c-1.2-1.2-2.1-2.6-2.8-4.3c-0.7-1.7-1-3.6-1-5.7v-9.1c0-2.1,0.3-4,1-5.7c0.7-1.7,1.6-3.1,2.8-4.3c1.2-1.2,2.5-2.1,4.1-2.7
		s3.1-0.9,4.8-0.9h1.3v2.7h-1.3c-1.3,0-2.5,0.3-3.7,0.8c-1.2,0.5-2.3,1.2-3.2,2.2c-0.9,1-1.6,2.1-2.2,3.5c-0.6,1.4-0.8,2.9-0.8,4.6
		v8.8c0,1.7,0.3,3.3,0.8,4.7c0.6,1.4,1.3,2.5,2.2,3.5c0.9,1,2,1.7,3.2,2.2c1.2,0.5,2.4,0.8,3.7,0.8H1004.3z M1016.3,598.2v-21.1
		h-0.4l-4.1,9.5h-3v-0.2l4.7-10.6h5.9v22.4h7.1v2.8h-17.3v-2.8H1016.3z M1055.9,592.9c0.1,1.8,0.6,3.2,1.7,4.3
		c1,1.1,2.5,1.6,4.3,1.6c0.8,0,1.6-0.1,2.2-0.3c0.6-0.2,1.2-0.5,1.6-0.8c0.5-0.3,0.8-0.7,1.1-1.2c0.3-0.5,0.5-0.9,0.7-1.4l2.7,0.7
		c-0.5,1.7-1.4,3-2.8,4.1c-1.3,1-3.2,1.5-5.5,1.5c-1.3,0-2.4-0.2-3.5-0.6c-1.1-0.5-2-1.1-2.7-1.9c-0.8-0.8-1.4-1.8-1.8-2.9
		c-0.4-1.1-0.6-2.4-0.6-3.7v-0.9c0-1.2,0.2-2.4,0.6-3.5c0.5-1.1,1.1-2,1.9-2.8c0.8-0.8,1.7-1.4,2.8-1.8c1.1-0.5,2.2-0.7,3.5-0.7
		c1.5,0,2.7,0.3,3.8,0.8c1.1,0.5,2,1.2,2.6,2c0.7,0.8,1.2,1.7,1.5,2.6c0.3,0.9,0.5,1.8,0.5,2.6v2.3H1055.9z M1061.9,585.3
		c-0.8,0-1.5,0.1-2.2,0.4c-0.7,0.2-1.3,0.6-1.8,1c-0.5,0.5-0.9,1-1.3,1.6c-0.3,0.6-0.5,1.3-0.6,2h11.5c-0.1-0.8-0.2-1.5-0.6-2.1
		c-0.3-0.6-0.7-1.2-1.3-1.6c-0.5-0.4-1.1-0.8-1.8-1C1063.3,585.4,1062.6,585.3,1061.9,585.3z M1093.1,601h-2.8v-12.8
		c0-0.8-0.2-1.5-0.6-2.1c-0.4-0.6-1-0.8-1.8-0.8c-0.8,0-1.4,0.3-1.9,0.9c-0.5,0.6-0.7,1.5-0.7,2.7V601h-2.8v-13
		c0-0.8-0.2-1.4-0.6-1.9c-0.4-0.5-1-0.8-1.7-0.8c-0.9,0-1.5,0.3-2,0.9c-0.4,0.6-0.7,1.4-0.7,2.4V601h-2.8v-17.9h2.8v1.9h0.4
		c0.3-0.8,0.8-1.5,1.4-1.8c0.6-0.4,1.3-0.6,2.1-0.6c0.9,0,1.6,0.2,2.1,0.7c0.6,0.5,1,1,1.2,1.8h0.4c0.8-1.6,2.1-2.4,3.9-2.4
		c1.3,0,2.4,0.4,3.1,1.3c0.7,0.8,1.1,1.9,1.1,3.3V601z M1098.5,604c1.3,0,2.5-0.3,3.7-0.8c1.2-0.5,2.3-1.2,3.2-2.2
		c0.9-1,1.6-2.1,2.2-3.5c0.6-1.4,0.8-3,0.8-4.7V584c0-1.7-0.3-3.3-0.8-4.6c-0.6-1.4-1.3-2.6-2.2-3.5c-0.9-1-2-1.7-3.2-2.2
		c-1.2-0.5-2.4-0.8-3.7-0.8h-1.3v-2.7h1.3c1.7,0,3.3,0.3,4.8,0.9c1.5,0.6,2.9,1.5,4.1,2.7c1.2,1.2,2.1,2.6,2.8,4.3
		c0.7,1.7,1,3.6,1,5.7v9.1c0,2.1-0.3,4-1,5.7c-0.7,1.7-1.6,3.1-2.8,4.3c-1.2,1.2-2.5,2.1-4.1,2.7c-1.5,0.6-3.1,0.9-4.8,0.9h-1.3V604
		H1098.5z"/>
	<path class="st2" d="M1819.7,652.5l8.7-15h-17.3L1819.7,652.5z M1818.2,593v46h3v-46H1818.2z"/>
	<path class="st2" d="M1819.7,494l-8.7,15h17.3L1819.7,494z M1821.2,553.5v-46h-3v46H1821.2z"/>
	<path class="st2" d="M1775.2,557.8h5.9v17.6h3.9v2.8h-3.9v4.8h-3v-4.8h-11.7v-4.2L1775.2,557.8z M1769,575v0.4h9.1v-16.3h-0.4
		L1769,575z M1788.8,567.6c0-3.3,0.8-5.8,2.3-7.6c1.6-1.8,3.7-2.7,6.5-2.7c2.8,0,5,0.9,6.5,2.7c1.6,1.8,2.3,4.3,2.3,7.6v5.6
		c0,3.4-0.8,5.9-2.3,7.7c-1.6,1.8-3.7,2.6-6.5,2.6c-2.8,0-4.9-0.9-6.5-2.6c-1.6-1.8-2.3-4.3-2.3-7.7V567.6z M1797.7,580.8
		c2,0,3.4-0.7,4.4-2c1-1.4,1.5-3.3,1.5-5.8v-5.2c0-1.2-0.1-2.2-0.4-3.1c-0.2-1-0.6-1.8-1.1-2.4c-0.5-0.7-1.1-1.2-1.8-1.6
		c-0.7-0.4-1.6-0.6-2.5-0.6c-1,0-1.8,0.2-2.5,0.6c-0.7,0.4-1.3,0.9-1.8,1.6c-0.5,0.7-0.8,1.5-1.1,2.4c-0.2,0.9-0.4,2-0.4,3.1v5.2
		c0,2.5,0.5,4.4,1.4,5.8C1794.3,580.1,1795.7,580.8,1797.7,580.8z M1795.4,570.4c0-0.6,0.2-1.2,0.7-1.6c0.5-0.5,1-0.7,1.6-0.7
		c0.6,0,1.2,0.2,1.6,0.7c0.5,0.5,0.7,1,0.7,1.6c0,0.6-0.2,1.2-0.7,1.6c-0.4,0.5-1,0.7-1.6,0.7c-0.6,0-1.2-0.2-1.6-0.7
		C1795.6,571.6,1795.4,571,1795.4,570.4z M1817.2,581c0-0.7,0.2-1.3,0.7-1.8c0.5-0.5,1.1-0.8,1.8-0.8c0.7,0,1.3,0.3,1.8,0.8
		c0.5,0.5,0.8,1.1,0.8,1.8c0,0.7-0.2,1.3-0.8,1.8c-0.5,0.5-1.1,0.7-1.8,0.7c-0.7,0-1.3-0.2-1.8-0.7
		C1817.4,582.3,1817.2,581.7,1817.2,581z M1832.9,567.6c0-3.3,0.8-5.8,2.3-7.6c1.6-1.8,3.7-2.7,6.5-2.7c2.8,0,4.9,0.9,6.5,2.7
		c1.6,1.8,2.3,4.3,2.3,7.6v5.6c0,3.4-0.8,5.9-2.3,7.7c-1.6,1.8-3.7,2.6-6.5,2.6c-2.8,0-5-0.9-6.5-2.6c-1.6-1.8-2.3-4.3-2.3-7.7
		V567.6z M1841.8,580.8c1.9,0,3.4-0.7,4.3-2c1-1.4,1.5-3.3,1.5-5.8v-5.2c0-1.2-0.1-2.2-0.4-3.1c-0.2-1-0.6-1.8-1.1-2.4
		c-0.5-0.7-1.1-1.2-1.8-1.6c-0.7-0.4-1.6-0.6-2.5-0.6c-1,0-1.8,0.2-2.6,0.6c-0.7,0.4-1.3,0.9-1.8,1.6c-0.5,0.7-0.8,1.5-1.1,2.4
		c-0.2,0.9-0.4,2-0.4,3.1v5.2c0,2.5,0.5,4.4,1.4,5.8C1838.4,580.1,1839.8,580.8,1841.8,580.8z M1839.5,570.4c0-0.6,0.2-1.2,0.7-1.6
		c0.4-0.5,1-0.7,1.6-0.7c0.6,0,1.2,0.2,1.6,0.7c0.4,0.5,0.7,1,0.7,1.6c0,0.6-0.2,1.2-0.7,1.6c-0.5,0.5-1,0.7-1.6,0.7
		c-0.6,0-1.2-0.2-1.6-0.7C1839.7,571.6,1839.5,571,1839.5,570.4z M1865.3,563c0,0.9-0.1,1.6-0.4,2.3c-0.3,0.6-0.7,1.2-1.2,1.7
		c-0.5,0.5-1,0.8-1.7,1c-0.6,0.2-1.3,0.4-2,0.4c-0.7,0-1.4-0.1-2-0.4c-0.6-0.2-1.2-0.6-1.7-1c-0.5-0.5-0.9-1-1.2-1.7
		c-0.3-0.7-0.4-1.4-0.4-2.3s0.1-1.6,0.4-2.3c0.3-0.7,0.7-1.2,1.2-1.7c0.5-0.5,1.1-0.8,1.7-1.1c0.7-0.2,1.3-0.4,2-0.4
		c0.7,0,1.3,0.1,2,0.4c0.7,0.2,1.2,0.6,1.7,1.1c0.5,0.5,0.9,1,1.2,1.7C1865.1,561.4,1865.3,562.1,1865.3,563z M1860,566.4
		c0.9,0,1.7-0.3,2.3-0.9c0.6-0.6,0.9-1.5,0.9-2.5s-0.3-1.9-0.9-2.5c-0.6-0.6-1.3-1-2.3-1c-0.9,0-1.7,0.3-2.3,1
		c-0.6,0.6-0.9,1.5-0.9,2.5c0,1.2,0.3,2,0.9,2.6C1858.3,566.2,1859,566.4,1860,566.4z M1873,577.8c0,0.9-0.1,1.6-0.4,2.3
		c-0.3,0.6-0.7,1.2-1.2,1.7c-0.5,0.5-1,0.8-1.7,1c-0.6,0.2-1.3,0.4-2,0.4c-0.7,0-1.4-0.1-2-0.4c-0.6-0.2-1.2-0.6-1.7-1
		c-0.5-0.5-0.9-1-1.2-1.7c-0.3-0.7-0.4-1.4-0.4-2.3c0-0.9,0.1-1.6,0.4-2.3c0.3-0.7,0.7-1.2,1.2-1.7c0.5-0.5,1.1-0.8,1.7-1.1
		c0.7-0.2,1.3-0.4,2-0.4c0.7,0,1.3,0.1,2,0.4c0.7,0.2,1.2,0.6,1.7,1.1c0.5,0.5,0.9,1,1.2,1.7C1872.9,576.2,1873,577,1873,577.8z
		 M1867.7,581.3c0.9,0,1.7-0.3,2.3-0.9c0.6-0.6,0.9-1.5,0.9-2.5c0-1-0.3-1.9-0.9-2.5c-0.6-0.6-1.3-1-2.3-1c-0.9,0-1.7,0.3-2.3,1
		c-0.6,0.6-0.9,1.5-0.9,2.5c0,1.2,0.3,2,0.9,2.6C1866,581,1866.8,581.3,1867.7,581.3z M1871.9,565.2l0.9,1.7l-17,8.7l-0.9-1.7
		L1871.9,565.2z"/>
	<path class="st2" d="M99.7,667.5l8.7-15H91.1L99.7,667.5z M98.2,578v76h3v-76H98.2z"/>
	<path class="st2" d="M99.7,449l-8.7,15h17.3L99.7,449z M101.2,538.5v-76h-3v76H101.2z"/>
	<path class="st2" d="M47.4,556.1v-13.3h15.8v2.8H50.4v9h0.4c0.2-0.5,0.6-0.9,0.9-1.4c0.4-0.5,0.8-0.9,1.3-1.2
		c0.5-0.3,1.1-0.6,1.8-0.8c0.6-0.2,1.4-0.3,2.2-0.3c1.2,0,2.2,0.2,3.2,0.6c1,0.4,1.8,0.9,2.5,1.6c0.7,0.7,1.2,1.5,1.6,2.5
		c0.4,1,0.6,2.1,0.6,3.3v0.6c0,1.2-0.2,2.3-0.6,3.4c-0.4,1.1-0.9,2-1.7,2.8c-0.7,0.8-1.7,1.5-2.8,1.9c-1.1,0.5-2.4,0.7-3.8,0.7
		c-1.5,0-2.8-0.2-3.9-0.6c-1.1-0.4-2.1-1-2.8-1.8c-0.8-0.8-1.4-1.7-1.8-2.7c-0.4-1.1-0.6-2.2-0.6-3.4v-1h3v0.8c0,2,0.6,3.5,1.7,4.5
		c1.1,1,2.6,1.5,4.4,1.5c1,0,1.8-0.2,2.5-0.5c0.7-0.4,1.4-0.8,1.8-1.4c0.5-0.6,0.9-1.3,1.1-2.1c0.2-0.8,0.4-1.6,0.4-2.4v-0.2
		c0-0.7-0.1-1.4-0.4-2.1c-0.2-0.6-0.6-1.2-1-1.7c-0.4-0.5-1-0.9-1.6-1.1c-0.6-0.3-1.3-0.4-2.1-0.4c-0.5,0-1,0.1-1.4,0.2
		c-0.4,0.1-0.8,0.3-1.1,0.6c-0.3,0.2-0.6,0.5-0.8,0.8c-0.2,0.3-0.3,0.6-0.4,0.8H47.4z M77.3,542.8h5.9v17.6H87v2.8h-3.9v4.8h-3v-4.8
		H68.4v-4.2L77.3,542.8z M71,560v0.4h9.1v-16.3h-0.4L71,560z M97.2,566c0-0.7,0.2-1.3,0.7-1.8c0.5-0.5,1.1-0.8,1.8-0.8
		s1.3,0.3,1.8,0.8c0.5,0.5,0.8,1.1,0.8,1.8c0,0.7-0.3,1.3-0.8,1.8c-0.5,0.5-1.1,0.7-1.8,0.7s-1.3-0.2-1.8-0.7
		C97.5,567.3,97.2,566.7,97.2,566z M113.6,556.1v-13.3h15.8v2.8h-12.8v9h0.4c0.2-0.5,0.6-0.9,0.9-1.4c0.4-0.5,0.8-0.9,1.3-1.2
		c0.5-0.3,1.1-0.6,1.8-0.8c0.6-0.2,1.4-0.3,2.2-0.3c1.2,0,2.2,0.2,3.2,0.6c1,0.4,1.8,0.9,2.5,1.6c0.7,0.7,1.2,1.5,1.6,2.5
		c0.4,1,0.6,2.1,0.6,3.3v0.6c0,1.2-0.2,2.3-0.6,3.4c-0.4,1.1-0.9,2-1.7,2.8c-0.7,0.8-1.7,1.5-2.8,1.9c-1.1,0.5-2.4,0.7-3.8,0.7
		c-1.5,0-2.8-0.2-3.9-0.6c-1.1-0.4-2.1-1-2.8-1.8c-0.8-0.8-1.4-1.7-1.8-2.7c-0.4-1.1-0.6-2.2-0.6-3.4v-1h3v0.8c0,2,0.6,3.5,1.7,4.5
		c1.1,1,2.6,1.5,4.4,1.5c1,0,1.8-0.2,2.5-0.5c0.7-0.4,1.4-0.8,1.8-1.4c0.5-0.6,0.9-1.3,1.1-2.1c0.2-0.8,0.4-1.6,0.4-2.4v-0.2
		c0-0.7-0.1-1.4-0.4-2.1c-0.2-0.6-0.6-1.2-1-1.7c-0.4-0.5-1-0.9-1.6-1.1c-0.6-0.3-1.3-0.4-2.1-0.4c-0.5,0-1,0.1-1.4,0.2
		c-0.4,0.1-0.8,0.3-1.1,0.6c-0.3,0.2-0.6,0.5-0.8,0.8c-0.2,0.3-0.3,0.6-0.4,0.8H113.6z M145.3,548c0,0.9-0.1,1.6-0.4,2.3
		c-0.3,0.6-0.7,1.2-1.2,1.7c-0.5,0.5-1,0.8-1.7,1c-0.6,0.2-1.3,0.4-2,0.4c-0.7,0-1.4-0.1-2-0.4c-0.6-0.2-1.2-0.6-1.7-1
		c-0.5-0.5-0.9-1-1.2-1.7c-0.3-0.7-0.4-1.4-0.4-2.3s0.1-1.6,0.4-2.3c0.3-0.7,0.7-1.2,1.2-1.7c0.5-0.5,1.1-0.8,1.7-1.1
		c0.6-0.2,1.3-0.4,2-0.4c0.7,0,1.4,0.1,2,0.4c0.6,0.2,1.2,0.6,1.7,1.1c0.5,0.5,0.9,1,1.2,1.7C145.1,546.4,145.3,547.1,145.3,548z
		 M140,551.4c0.9,0,1.7-0.3,2.3-0.9c0.6-0.6,0.9-1.5,0.9-2.5s-0.3-1.9-0.9-2.5c-0.6-0.6-1.3-1-2.3-1c-0.9,0-1.7,0.3-2.3,1
		c-0.6,0.6-0.9,1.5-0.9,2.5c0,1.2,0.3,2,0.9,2.6S139,551.4,140,551.4z M153,562.8c0,0.9-0.1,1.6-0.4,2.3c-0.3,0.6-0.7,1.2-1.2,1.7
		c-0.5,0.5-1,0.8-1.7,1c-0.6,0.2-1.3,0.4-2,0.4c-0.7,0-1.4-0.1-2-0.4c-0.6-0.2-1.2-0.6-1.7-1c-0.5-0.5-0.9-1-1.2-1.7
		c-0.3-0.7-0.4-1.4-0.4-2.3c0-0.9,0.1-1.6,0.4-2.3c0.3-0.7,0.7-1.2,1.2-1.7c0.5-0.5,1.1-0.8,1.7-1.1c0.6-0.2,1.3-0.4,2-0.4
		c0.7,0,1.4,0.1,2,0.4c0.6,0.2,1.2,0.6,1.7,1.1c0.5,0.5,0.9,1,1.2,1.7C152.9,561.2,153,562,153,562.8z M147.7,566.3
		c0.9,0,1.7-0.3,2.3-0.9c0.6-0.6,0.9-1.5,0.9-2.5c0-1-0.3-1.9-0.9-2.5c-0.6-0.6-1.3-1-2.3-1c-0.9,0-1.7,0.3-2.3,1
		c-0.6,0.6-0.9,1.5-0.9,2.5c0,1.2,0.3,2,0.9,2.6C146,566,146.8,566.3,147.7,566.3z M151.9,550.2l0.9,1.7l-17,8.7l-0.9-1.7
		L151.9,550.2z"/>
</g>
</svg>
