<svg width="1920" height="1080" fill="none" xmlns="http://www.w3.org/2000/svg"><rect x="1216" y="813" width="218" height="50" rx="25" fill="#D2E3FC"/><path d="M1325 813h84c13.81 0 25 11.193 25 25s-11.19 25-25 25h-84v-50Z" fill="#1A73E8"/><rect x="486" y="813" width="218" height="50" rx="25" fill="#D2E3FC"/><path d="M486 838c0-13.807 11.193-25 25-25h84v50h-84c-13.807 0-25-11.193-25-25Z" fill="#1A73E8"/><path d="M1078.32 550.396c-.02-2.262.39-4.508 1.22-6.612a14.361 14.361 0 0 1 3.7-5.323 20.568 20.568 0 0 1 6.09-3.866v-4.345l9.12 3.438a18.825 18.825 0 0 0-3.18 5.824 20.608 20.608 0 0 0-1.12 6.874c-.11.861-.02 1.734.24 2.559.27.825.72 1.581 1.31 2.214a6.516 6.516 0 0 0 4.46 1.361h25.42c5.43-.185 10.83.936 15.73 3.27a21.79 21.79 0 0 1 9.38 8.951 27.151 27.151 0 0 1 3.08 13.223v4.989c.04 3.409-.61 6.791-1.88 9.953a20.785 20.785 0 0 1-5.75 7.996 27.988 27.988 0 0 1-9.39 5.251 38.162 38.162 0 0 1-12.53 1.886h-32.41a36.103 36.103 0 0 1-14.87-2.674 19.604 19.604 0 0 1-8.93-7.47 20.544 20.544 0 0 1-3-11.171v-2.912c-.08-3.3.62-6.571 2.05-9.548 1.4-2.834 3.46-5.29 6.01-7.16a20.917 20.917 0 0 1 9.29-3.795v-5.49l11.17 7.375c-2.76.291-5.4 1.304-7.64 2.936a12.474 12.474 0 0 0-4.06 5.323 18.26 18.26 0 0 0-1.19 6.54v4.105c-.05 2.036.43 4.049 1.38 5.848a9.21 9.21 0 0 0 4.47 4.034 18.856 18.856 0 0 0 8.06 1.48h29.75c2.2.051 4.39-.33 6.44-1.122a13.467 13.467 0 0 0 4.37-2.84 9.38 9.38 0 0 0 2.38-3.963c.48-1.611.71-3.284.7-4.964v-3.962c.17-3.296-.94-6.531-3.11-9.023-2.05-2.244-5.65-3.341-10.81-3.341h-29.55c-2.84.024-5.65-.657-8.16-1.982a15.272 15.272 0 0 1-5.85-5.37 15.841 15.841 0 0 1-2.39-8.497Zm39.36-65.305 14.44-.693v3.796a16.395 16.395 0 0 1 8.43 6.945 20.48 20.48 0 0 1 2.58 10.24v3.604c.1 4.951-1.41 9.8-4.3 13.82a26.875 26.875 0 0 1-12.55 9.118 55.419 55.419 0 0 1-19.93 3.175 52.535 52.535 0 0 1-20.03-3.437 27.428 27.428 0 0 1-12.72-9.954 26.865 26.865 0 0 1-4.37-15.299v-4.13a28.176 28.176 0 0 1 4.37-15.896 28.624 28.624 0 0 1 12.72-10.312 49.376 49.376 0 0 1 20.03-3.699h46.73v11.695c-.01.476-.19.933-.5 1.289-.17.197-.38.353-.62.456-.24.103-.5.152-.76.141h-44.78a26.528 26.528 0 0 0-15.99 4.296 14.317 14.317 0 0 0-4.49 5.443 14.476 14.476 0 0 0-1.34 6.921v3.772a15.58 15.58 0 0 0 1.03 5.848 14.007 14.007 0 0 0 3.08 4.63 19.9 19.9 0 0 0 7.16 4.129 32.145 32.145 0 0 0 10.48 1.552 25.602 25.602 0 0 0 15.89-4.297 14.453 14.453 0 0 0 4.29-5.425 14.459 14.459 0 0 0 1.3-6.795v-4.106c.03-2.131-.3-4.252-.96-6.277a17.528 17.528 0 0 0-3.08-5.514 23.215 23.215 0 0 0-6.03-5.036h-.08ZM1222.42 473.586h15.13c.32-.007.64.049.93.167.27.104.51.277.7.501.21.375.36.788.43 1.217 1.59 6.182 3.24 12.46 4.89 18.809 1.65 6.349 3.29 12.722 4.89 19.095 1.6 6.373 3.13 12.698 4.56 19.095 1.43 6.397 2.67 12.555 3.7 18.737h3.1a648.42 648.42 0 0 1 3.34-20.623c1.2-6.635 2.46-13.136 3.78-19.501 1.31-6.373 2.65-12.65 3.96-18.832s2.67-12.364 4.03-18.546h14.44c.38-.016.76.041 1.12.167.31.139.56.385.7.692.19.49.19 1.037 0 1.528-1.59 6.206-3.26 12.968-4.99 20.288a2278.98 2278.98 0 0 1-5.42 22.675l-5.66 23.392c-1.89 7.781-3.75 15.339-5.58 22.675h-19.43a1.968 1.968 0 0 1-1.62-.764 8.12 8.12 0 0 1-1.13-2.84c-1.02-3.891-2.05-7.805-3.1-11.696-1.05-3.89-2.08-7.852-3.17-11.934-1.1-4.082-2.18-8.235-3.27-12.698-1.1-4.464-2.15-9.214-3.18-14.178a589.411 589.411 0 0 1-3.08-16.255h-2.93c-.78 4.774-1.58 9.213-2.39 13.319-.81 4.105-1.67 8.083-2.58 11.934a830.58 830.58 0 0 1-2.58 10.837c-.86 3.508-1.79 7.041-2.74 10.645-.96 3.604-1.98 7.352-3.01 11.266-1.02 3.915-2.12 8.02-3.27 12.364h-19.62a1.79 1.79 0 0 1-1.55-.764 13.517 13.517 0 0 1-1.19-3.198c-.91-4.105-2.02-8.831-3.34-14.178-1.33-5.347-2.76-11.075-4.3-17.186-1.59-6.11-3.18-12.38-4.78-18.808-1.55-6.421-3.12-12.794-4.77-19.095-1.65-6.302-3.08-12.388-4.46-18.116h14.61c.38-.019.77.063 1.12.238.26.169.49.378.69.621.22.364.37.77.43 1.193 1.02 4.774 2.22 10.248 3.6 16.422a1571.83 1571.83 0 0 1 4.2 19.238c1.44 6.715 2.84 13.478 4.23 20.289a413.698 413.698 0 0 1 3.44 19.5h3.08c1.02-6.301 2.24-12.746 3.6-19.333 1.36-6.588 2.86-13.2 4.49-19.859 1.62-6.66 3.22-13.2 4.89-19.668 1.67-6.468 3.46-12.889 5.06-18.832ZM1322.26 540.609c-.11 1.626.13 3.257.71 4.781a11.2 11.2 0 0 0 2.63 4.05 14.747 14.747 0 0 0 10.08 3.007c3.74.025 7.47-.489 11.07-1.527a33.592 33.592 0 0 0 10.24-5.251c3.84-2.969 7.29-6.4 10.29-10.216v14.942h-4.92a31.59 31.59 0 0 1-7.16 8.927 29.33 29.33 0 0 1-9.88 5.513 39.383 39.383 0 0 1-12.55 1.886c-4.82.126-9.59-.906-13.92-3.007a22.26 22.26 0 0 1-9.09-8.426 24.34 24.34 0 0 1-3.27-12.961v-5.514c-.06-3.496.58-6.97 1.88-10.215a20.574 20.574 0 0 1 5.42-7.662 25.112 25.112 0 0 1 8.5-4.774 34.08 34.08 0 0 1 11.17-1.719h33.84a2.23 2.23 0 0 1 2.18 1.791c.42 1.429.68 2.903.76 4.391 0 1.719.17 3.39.17 4.989h-34.73c-2.07-.04-4.12.217-6.11.764a9.264 9.264 0 0 0-4.2 2.673 8.282 8.282 0 0 0-2.39 3.509 14.67 14.67 0 0 0-.76 4.917l.04 5.132Zm57.57-35.923v38.667c-.02 1.271.12 2.539.43 3.772.22.892.67 1.714 1.29 2.387.58.576 1.29.989 2.08 1.193.95.259 1.93.379 2.91.358h4.3v11.934c.03.267 0 .537-.09.79-.1.253-.24.481-.44.666-.38.304-.87.456-1.36.43h-6.01c-2.52.017-5.02-.386-7.4-1.193a16.784 16.784 0 0 1-6.02-3.628 15.898 15.898 0 0 1-3.94-5.92 22.528 22.528 0 0 1-1.38-8.33v-41.293c.17-3.685-.5-7.36-1.98-10.741a11.236 11.236 0 0 0-2.76-3.415 11.192 11.192 0 0 0-3.85-2.099 39.482 39.482 0 0 0-12.56-1.623c-3.19-.002-6.37.165-9.54.502-3.05.348-6.06.899-9.03 1.646a79.18 79.18 0 0 0-8.85 2.841h-2.58v-12.388c0-.297.06-.592.19-.859.07-.189.19-.361.33-.502a13.127 13.127 0 0 1 5.26-2.386 85.803 85.803 0 0 1 10.81-2.387c4.45-.75 8.97-1.117 13.48-1.098 5.59-.095 11.16.506 16.59 1.79 4.21.991 8.13 2.962 11.44 5.752a23.537 23.537 0 0 1 6.61 10.145 46.407 46.407 0 0 1 2.07 14.989ZM1414.87 473.586c.77-.056 1.53.092 2.22.43.55.387.92.968 1.05 1.623 2.39 6.754 4.51 13.271 6.69 19.5 2.17 6.23 4.34 12.197 6.44 17.878 2.1 5.681 4.08 10.932 5.85 15.801l4.77 13.152c1.23 3.269 2.29 6.599 3.18 9.977h7.4l-3.11 10.144h-11.5a7.78 7.78 0 0 1-2.58-.358 3.707 3.707 0 0 1-1.91-1.885 51.829 51.829 0 0 1-2.22-4.774c-.81-2.053-2.03-5.251-3.7-9.548-1.67-4.296-3.6-9.38-5.85-15.109l-7.16-18.402c-2.5-6.517-5.01-13.081-7.47-19.668l-6.94-18.642h14.84v-.119Zm70.3 0a2.76 2.76 0 0 1 1.72.668c.28.258.46.603.52.98s0 .764-.19 1.097c-2.75 8.815-5.51 17.496-8.26 26.041-2.75 8.545-5.44 16.994-8.07 25.348-2.62 8.354-5.2 16.597-7.73 24.728-2.53 8.132-5 16.151-7.4 24.06a40.336 40.336 0 0 1-5.92 13.152 21.614 21.614 0 0 1-9.12 7.399 32.645 32.645 0 0 1-12.96 2.387h-15.63c-.5.028-.99-.125-1.39-.43a1.782 1.782 0 0 1-.42-.669c-.09-.252-.13-.52-.1-.787v-12.197h16.33a15.96 15.96 0 0 0 9.54-2.673 15.557 15.557 0 0 0 5.42-8.855c.79-2.626 2.01-6.612 3.61-11.935l5.58-18.641c2.13-7.113 4.39-14.624 6.78-22.532 2.39-7.909 4.77-15.929 7.16-24.06 2.4-8.115 4.69-15.785 6.87-23.01h13.59l.07-.071ZM1515.43 473.585c.3-.011.59.046.86.168.25.14.46.347.6.596.19.354.33.731.43 1.122 2.75 7.956 5.5 15.976 8.26 24.06 2.75 8.083 5.53 16.557 8.33 25.42 2.78 8.832 5.61 18.379 8.49 28.643h2.58c1.83-6.079 3.58-11.983 5.25-17.711a561.927 561.927 0 0 1 5.06-16.589c1.72-5.347 3.44-10.55 5.16-15.705l5.08-15.229c1.65-4.964 3.3-9.929 4.78-14.846h14.44c.39-.026.78.093 1.1.334.28.225.49.522.62.859.08.47.02.956-.19 1.385-2.52 7.319-5.07 14.679-7.64 22.078-2.58 7.4-5.16 14.815-7.74 22.246-2.57 7.447-5.15 14.87-7.73 22.27a4032.55 4032.55 0 0 1-7.83 22.245h-20.62a5.457 5.457 0 0 1-1.89-.334 3.121 3.121 0 0 1-1.45-1.384c-.54-.989-.97-2.028-1.29-3.103-1.96-5.371-3.92-10.885-5.92-16.494a975.733 975.733 0 0 1-5.94-17.09c-1.96-5.776-3.94-11.624-6.02-17.543l-6.18-17.687c-2.05-5.896-4.13-11.934-6.18-17.782h15.46l.12.071ZM1605.99 473.585h67.55c.36-.026.72.057 1.03.239.22.176.42.386.59.621.2.305.29.665.26 1.026v14.942l-9.02 10.741c-2.91 3.508-5.77 6.898-8.59 10.239l-8.16 9.548-7.74 9.094a572.781 572.781 0 0 1-7.4 8.593c-1.93 1.957-3.67 3.628-5.22 4.988-1.55 1.361-3.13 2.697-4.78 3.962v2.578h48.98c.25-.017.51.019.74.108.24.088.46.227.63.405.18.179.32.394.41.631.09.237.12.49.11.742v12.889h-67.55a1.819 1.819 0 0 1-.93-.263 2.074 2.074 0 0 1-.69-.596c-.2-.307-.29-.666-.27-1.027v-15.992c4.94-5.609 9.55-11.003 14.11-16.159 4.56-5.155 8.76-10.072 12.89-14.775 4.13-4.702 8.07-9.213 11.93-13.581 2.07-2.164 4.05-4.169 5.95-6.015a207.32 207.32 0 0 1 5.92-5.49v-2.577h-48.86a1.829 1.829 0 0 1-.93-.263 1.95 1.95 0 0 1-.7-.692 1.799 1.799 0 0 1-.26-.931v-13.056.071Z" fill="#D2E3FC"/><path d="M256.324 550.396a17.415 17.415 0 0 1 1.218-6.612 14.312 14.312 0 0 1 3.699-5.323 20.452 20.452 0 0 1 6.087-3.866v-4.345l9.118 3.438a18.853 18.853 0 0 0-3.175 5.824 20.763 20.763 0 0 0-1.122 6.874 5.918 5.918 0 0 0 1.552 4.773 6.515 6.515 0 0 0 4.463 1.361h25.42a33.924 33.924 0 0 1 15.73 3.27 21.83 21.83 0 0 1 9.38 8.951 27.24 27.24 0 0 1 3.079 13.223v4.989a25.909 25.909 0 0 1-1.885 9.953 20.75 20.75 0 0 1-5.753 7.996 27.943 27.943 0 0 1-9.38 5.251 38.208 38.208 0 0 1-12.531 1.886H269.81a36.112 36.112 0 0 1-14.87-2.674 19.566 19.566 0 0 1-8.927-7.47 20.603 20.603 0 0 1-3.008-11.171v-2.912c-.075-3.3.628-6.571 2.053-9.548a19.726 19.726 0 0 1 6.015-7.16 20.922 20.922 0 0 1 9.285-3.795v-5.49l11.171 7.375a15.803 15.803 0 0 0-7.638 2.936 12.461 12.461 0 0 0-4.058 5.323 18.178 18.178 0 0 0-1.194 6.54v4.105a11.94 11.94 0 0 0 1.385 5.848 9.16 9.16 0 0 0 4.463 4.034 18.875 18.875 0 0 0 8.068 1.48h29.74c2.201.051 4.391-.33 6.445-1.122a13.459 13.459 0 0 0 4.368-2.84 9.365 9.365 0 0 0 2.387-3.963 16.98 16.98 0 0 0 .692-4.964v-3.962a12.747 12.747 0 0 0-3.103-9.023c-2.053-2.244-5.657-3.341-10.812-3.341h-29.55a17.205 17.205 0 0 1-8.163-1.982 15.302 15.302 0 0 1-5.848-5.37 15.804 15.804 0 0 1-2.387-8.497Zm39.36-65.305 14.44-.693v3.796a16.394 16.394 0 0 1 8.426 6.945 20.385 20.385 0 0 1 2.578 10.24v3.604a22.868 22.868 0 0 1-4.296 13.82 26.879 26.879 0 0 1-12.555 9.118 55.397 55.397 0 0 1-19.931 3.175 52.525 52.525 0 0 1-20.026-3.437 27.453 27.453 0 0 1-12.722-9.954 26.902 26.902 0 0 1-4.368-15.299v-4.13a28.213 28.213 0 0 1 4.368-15.896 28.645 28.645 0 0 1 12.722-10.312 49.344 49.344 0 0 1 20.026-3.699h46.735v11.695a2.001 2.001 0 0 1-.501 1.289 1.738 1.738 0 0 1-1.384.597h-44.778a26.54 26.54 0 0 0-15.992 4.296 14.314 14.314 0 0 0-5.824 12.364v3.772a15.557 15.557 0 0 0 1.026 5.848 14.035 14.035 0 0 0 3.079 4.63 19.93 19.93 0 0 0 7.161 4.129 32.17 32.17 0 0 0 10.478 1.552 25.613 25.613 0 0 0 15.897-4.297 14.517 14.517 0 0 0 5.585-12.22v-4.106a19.353 19.353 0 0 0-.955-6.277 17.724 17.724 0 0 0-3.079-5.514 23.206 23.206 0 0 0-6.039-5.036h-.071ZM400.42 473.586h15.133c.318-.007.635.049.931.167.27.104.508.277.692.501.218.375.363.788.429 1.217 1.6 6.182 3.247 12.46 4.893 18.809a2515.663 2515.663 0 0 1 4.894 19.095 764.663 764.663 0 0 1 4.558 19.095c1.433 6.397 2.674 12.555 3.7 18.737h3.103a621.002 621.002 0 0 1 3.342-20.623 743.207 743.207 0 0 1 3.771-19.501c1.313-6.373 2.649-12.65 3.962-18.832 1.313-6.182 2.674-12.364 4.034-18.546h14.441a3.01 3.01 0 0 1 1.121.167c.308.139.554.385.693.692.196.49.196 1.037 0 1.528a1142.448 1142.448 0 0 0-4.989 20.288 2250.208 2250.208 0 0 1-5.418 22.675l-5.657 23.392a4104.189 4104.189 0 0 1-5.585 22.675h-19.43a1.979 1.979 0 0 1-1.623-.764 8.102 8.102 0 0 1-1.121-2.84c-1.027-3.891-2.053-7.805-3.103-11.696-1.051-3.89-2.077-7.852-3.175-11.934a602.922 602.922 0 0 1-3.27-12.698c-1.098-4.464-2.148-9.214-3.174-14.178-1.027-4.965-2.053-10.407-3.079-16.255h-2.936a410.88 410.88 0 0 1-2.387 13.319 339.156 339.156 0 0 1-2.578 11.934 831.12 831.12 0 0 1-2.578 10.837c-.859 3.508-1.79 7.041-2.745 10.645-.955 3.604-1.981 7.352-3.007 11.266-1.027 3.915-2.125 8.02-3.27 12.364h-19.62a1.785 1.785 0 0 1-1.552-.764 13.526 13.526 0 0 1-1.193-3.198 596.687 596.687 0 0 0-3.342-14.178 3471.749 3471.749 0 0 0-4.296-17.186c-1.592-6.11-3.183-12.38-4.774-18.808a1056.437 1056.437 0 0 0-4.774-19.095c-1.647-6.302-3.079-12.388-4.463-18.116h14.607c.389-.019.775.063 1.122.238.263.169.496.378.692.621.223.364.369.77.43 1.193 1.019 4.774 2.22 10.248 3.604 16.422a1807.67 1807.67 0 0 1 4.201 19.238 2150.8 2150.8 0 0 1 4.225 20.289 414.836 414.836 0 0 1 3.437 19.5h3.079c1.026-6.301 2.244-12.746 3.604-19.333a575.987 575.987 0 0 1 4.488-19.859c1.623-6.66 3.222-13.2 4.893-19.668 1.671-6.468 3.461-12.889 5.06-18.832ZM500.263 540.609a11.275 11.275 0 0 0 3.342 8.831 14.726 14.726 0 0 0 10.072 3.007 39.025 39.025 0 0 0 11.075-1.527 33.672 33.672 0 0 0 10.24-5.251 58.888 58.888 0 0 0 10.287-10.216v14.942h-4.916a31.733 31.733 0 0 1-7.161 8.927 29.396 29.396 0 0 1-9.882 5.513 39.35 39.35 0 0 1-12.555 1.886 30.079 30.079 0 0 1-13.915-3.007 22.32 22.32 0 0 1-9.094-8.426 24.44 24.44 0 0 1-3.27-12.961v-5.514a26.266 26.266 0 0 1 1.885-10.215 20.55 20.55 0 0 1 5.419-7.662 25.174 25.174 0 0 1 8.497-4.774 34.116 34.116 0 0 1 11.17-1.719h33.846a2.224 2.224 0 0 1 2.172 1.791c.426 1.429.682 2.903.764 4.391 0 1.719.167 3.39.167 4.989h-34.729a21.473 21.473 0 0 0-6.11.764 9.283 9.283 0 0 0-4.201 2.673 8.276 8.276 0 0 0-2.387 3.509 14.879 14.879 0 0 0-.764 4.917l.048 5.132Zm57.571-35.923v38.667c-.024 1.271.12 2.539.43 3.772a5.394 5.394 0 0 0 1.289 2.387c.573.576 1.29.989 2.077 1.193.948.259 1.929.379 2.912.358h4.296v11.934c.03.267-.001.537-.092.79a1.727 1.727 0 0 1-.433.666c-.387.304-.87.456-1.361.43h-6.015a22.592 22.592 0 0 1-7.399-1.193 16.73 16.73 0 0 1-6.015-3.628 15.739 15.739 0 0 1-3.938-5.92 22.553 22.553 0 0 1-1.385-8.33v-41.293a24.002 24.002 0 0 0-1.981-10.741 11.226 11.226 0 0 0-6.611-5.514 39.473 39.473 0 0 0-12.555-1.623 89.84 89.84 0 0 0-9.548.502c-3.04.348-6.054.899-9.022 1.646a79.129 79.129 0 0 0-8.855 2.841h-2.578v-12.388a1.905 1.905 0 0 1 .191-.859c.074-.189.188-.361.334-.502a13.047 13.047 0 0 1 5.251-2.386 85.756 85.756 0 0 1 10.812-2.387 79.246 79.246 0 0 1 13.486-1.098 67.166 67.166 0 0 1 16.589 1.79 27.484 27.484 0 0 1 11.433 5.752 23.568 23.568 0 0 1 6.612 10.145 46.466 46.466 0 0 1 2.076 14.989ZM592.874 473.586a4.317 4.317 0 0 1 2.219.43c.544.387.92.968 1.051 1.623 2.387 6.754 4.511 13.271 6.683 19.5 2.172 6.23 4.344 12.197 6.444 17.878 2.101 5.681 4.082 10.932 5.848 15.801l4.774 13.152a101.328 101.328 0 0 1 3.175 9.977h7.399l-3.103 10.144h-11.505a7.768 7.768 0 0 1-2.578-.358 3.697 3.697 0 0 1-1.909-1.885 49.088 49.088 0 0 1-2.22-4.774c-.811-2.053-2.029-5.251-3.699-9.548-1.671-4.296-3.605-9.38-5.848-15.109l-7.161-18.402a2144.799 2144.799 0 0 1-7.471-19.668l-6.946-18.642h14.847v-.119Zm70.293 0c.633.018 1.24.254 1.719.668a1.698 1.698 0 0 1 .334 2.077 3047.735 3047.735 0 0 1-8.259 26.041 3682.457 3682.457 0 0 0-8.067 25.348 8929.75 8929.75 0 0 0-7.734 24.728 3782.1 3782.1 0 0 0-7.399 24.06 40.274 40.274 0 0 1-5.92 13.152 21.648 21.648 0 0 1-9.117 7.399 32.673 32.673 0 0 1-12.961 2.387h-15.634a2.077 2.077 0 0 1-1.385-.43 1.806 1.806 0 0 1-.525-1.456v-12.197h16.326c3.386.145 6.73-.792 9.548-2.673a15.585 15.585 0 0 0 5.418-8.855c.788-2.626 2.005-6.612 3.604-11.935l5.586-18.641c2.132-7.113 4.391-14.624 6.778-22.532a3316.775 3316.775 0 0 0 7.161-24.06 4675.28 4675.28 0 0 1 6.874-23.01h13.581l.072-.071ZM693.433 473.585c.295-.011.589.046.859.168.249.14.456.347.597.596.191.354.336.731.429 1.122a5190.249 5190.249 0 0 1 8.259 24.06 1208.548 1208.548 0 0 1 8.33 25.42c2.785 8.832 5.617 18.379 8.497 28.643h2.578c1.83-6.079 3.58-11.983 5.251-17.711a558.931 558.931 0 0 1 5.06-16.589c1.719-5.347 3.437-10.55 5.156-15.705l5.084-15.229c1.647-4.964 3.294-9.929 4.774-14.846h14.44c.395-.026.785.093 1.098.334.281.225.496.522.621.859.089.47.022.956-.191 1.385a5299.68 5299.68 0 0 1-7.638 22.078c-2.578 7.4-5.156 14.815-7.733 22.246-2.578 7.447-5.156 14.87-7.734 22.27a3726.428 3726.428 0 0 1-7.829 22.245h-20.622a5.39 5.39 0 0 1-1.886-.334 3.098 3.098 0 0 1-1.456-1.384 16.694 16.694 0 0 1-1.289-3.103c-1.957-5.371-3.915-10.885-5.92-16.494a1085.656 1085.656 0 0 1-5.943-17.09c-1.957-5.776-3.938-11.624-6.015-17.543l-6.182-17.687c-2.052-5.896-4.129-11.934-6.182-17.782h15.467l.12.071ZM783.991 473.585h67.548a1.77 1.77 0 0 1 1.026.239c.229.176.43.386.597.621.195.305.287.665.263 1.026v14.942l-9.023 10.741c-2.912 3.508-5.776 6.898-8.592 10.239l-8.164 9.548-7.733 9.094a616.571 616.571 0 0 1-7.399 8.593c-1.934 1.957-3.676 3.628-5.228 4.988-1.551 1.361-3.126 2.697-4.773 3.962v2.578h48.978a1.768 1.768 0 0 1 1.886 1.886v12.889h-67.549a1.827 1.827 0 0 1-.93-.263 2.114 2.114 0 0 1-.693-.596 1.768 1.768 0 0 1-.262-1.027v-15.992c4.941-5.609 9.547-11.003 14.106-16.159 4.559-5.155 8.76-10.072 12.889-14.775 4.13-4.702 8.068-9.213 11.935-13.581a238.775 238.775 0 0 1 5.943-6.015 226.42 226.42 0 0 1 5.92-5.49v-2.577h-48.86a1.843 1.843 0 0 1-.931-.263 1.944 1.944 0 0 1-.692-.692 1.83 1.83 0 0 1-.262-.931v-13.056.071ZM1095.49 471.297c3.78-.056 7.55.592 11.09 1.91a28.611 28.611 0 0 1 8.86 5.394 34.424 34.424 0 0 1 6.87 8.688h4.97v18.212a47.958 47.958 0 0 0-13.06-14.321 25.21 25.21 0 0 0-14.32-4.631 19.12 19.12 0 0 0-9.98 2.387 16.707 16.707 0 0 0-6.44 7.4 28.243 28.243 0 0 0-2.39 12.125v18.045c-.06 3.242.43 6.472 1.46 9.547a19.115 19.115 0 0 0 3.87 6.684 17.237 17.237 0 0 0 5.84 3.532c2.43.884 4.99 1.32 7.57 1.289 3.27-.002 6.52-.643 9.55-1.886a30.727 30.727 0 0 0 9.09-6.015 50.422 50.422 0 0 0 8.59-10.836v17.353h-4.77a39.643 39.643 0 0 1-7.16 8.855 28.996 28.996 0 0 1-9.12 5.681 30.26 30.26 0 0 1-11.07 1.981c-4.16.019-8.29-.793-12.13-2.387a25.972 25.972 0 0 1-9.55-6.683 30.413 30.413 0 0 1-6.11-10.574 43.03 43.03 0 0 1-2.14-14.107v-23.009c-.08-4.899.64-9.777 2.14-14.441a30.771 30.771 0 0 1 6.19-10.836 27.755 27.755 0 0 1 9.54-6.874 30.772 30.772 0 0 1 12.61-2.483Zm29.57 1.91h13.91c.36-.03.72.053 1.03.238.23.177.43.386.6.621.2.301.3.664.26 1.026v80.247a53.264 53.264 0 0 1-4.77 23.559 33.683 33.683 0 0 1-14.18 14.941 49.07 49.07 0 0 1-23.87 5.156 89.78 89.78 0 0 1-12.7-.859 55.516 55.516 0 0 1-10.07-2.244 20.744 20.744 0 0 1-5.59-2.578c0-.214-.21-.453-.33-.668a1.522 1.522 0 0 1-.17-.692v-12.555h2.75a56.8 56.8 0 0 0 7.9 3.103c2.75.824 5.57 1.422 8.42 1.79 3.17.424 6.36.631 9.55.621a38.26 38.26 0 0 0 11.94-1.719c3.16-.982 6.04-2.69 8.42-4.989a23.59 23.59 0 0 0 3.94-5.752c1.1-2.324 1.9-4.778 2.39-7.304.59-3.002.88-6.057.86-9.118V534.12c0-6.588-.12-13.199-.2-19.859-.07-6.659 0-13.963 0-21.983v-19.095l-.09.024ZM1172.82 473.207h13.94c.36-.027.72.057 1.03.239.22.183.42.391.59.62.2.306.29.665.27 1.027v75.616c1.01.389 2.08.622 3.17.692 1.31 0 2.6.167 3.87.167a32.14 32.14 0 0 0 9.28-1.289 20.456 20.456 0 0 0 8.24-5.084c3.22-3.277 6-6.969 8.25-10.979l.7 16.708h-4.47a27.019 27.019 0 0 1-15.82 12.817 38.507 38.507 0 0 1-11.51 1.623c-3.64.064-7.29-.337-10.83-1.193a13.83 13.83 0 0 1-6.02-2.769 2.057 2.057 0 0 1-.5-.668 2.975 2.975 0 0 1-.19-1.218v-86.309Zm45.54 0h12.72c.26-.022.51.012.75.099.24.087.46.225.64.405a1.765 1.765 0 0 1 .5 1.382v65.639c-.15 2.895.84 5.733 2.77 7.9a11.2 11.2 0 0 0 8.59 2.936h1.19c4.58.521 9.18-.756 12.84-3.561a17.754 17.754 0 0 0 6.76-11.476 77.81 77.81 0 0 0 1.72-17.615v-9.285c.06-4.553-.32-9.1-1.12-13.581a38.576 38.576 0 0 0-3.54-10.383 52.844 52.844 0 0 0-6.51-9.715v-2.745h13.58c.46-.019.92.037 1.36.167.4.137.75.375 1.03.692a29.452 29.452 0 0 1 5.58 8.163 50.75 50.75 0 0 1 3.96 11.935 72.107 72.107 0 0 1 1.46 15.228v9.548a81.15 81.15 0 0 1-2.22 20.002 40.94 40.94 0 0 1-6.71 14.607 28.592 28.592 0 0 1-11.33 9.023 38.519 38.519 0 0 1-16 3.103h-1.88a31.67 31.67 0 0 1-11.1-1.814 22.24 22.24 0 0 1-8.07-4.992 22.311 22.311 0 0 1-5.25-7.897 25.375 25.375 0 0 1-1.72-9.357v-68.408ZM1330.86 471.298c3.67-.051 7.33.505 10.83 1.647a27.252 27.252 0 0 1 8.76 4.893 34.57 34.57 0 0 1 7.04 8.068h4.99v17.877a43.139 43.139 0 0 0-12.89-13.319 27.07 27.07 0 0 0-14.32-4.033c-3.48-.13-6.93.696-9.98 2.386a16.707 16.707 0 0 0-6.44 7.4 28.243 28.243 0 0 0-2.39 12.125v21.816c-.07 3.243.42 6.474 1.46 9.548a19.216 19.216 0 0 0 3.87 6.611 15.388 15.388 0 0 0 5.84 3.605c2.44.828 5 1.231 7.57 1.193 3.28-.004 6.53-.67 9.55-1.957a29.506 29.506 0 0 0 9.02-6.373 56.298 56.298 0 0 0 8.33-11.075v18.044h-4.46a36.259 36.259 0 0 1-7.05 8.927 28.034 28.034 0 0 1-9.21 5.681 33.172 33.172 0 0 1-23.2-.43 26.647 26.647 0 0 1-9.55-6.611 29.596 29.596 0 0 1-6.11-10.503 42.612 42.612 0 0 1-2.14-14.082v-26.972a44.77 44.77 0 0 1 2.14-14.44 30.377 30.377 0 0 1 6.19-10.837 27.519 27.519 0 0 1 9.54-6.874 30.703 30.703 0 0 1 12.61-2.315Zm29.21 1.909h14.32c.36-.026.72.057 1.03.239.23.176.43.385.6.621.19.305.28.664.26 1.026v68.575a7.822 7.822 0 0 0 1.55 5.323 6.191 6.191 0 0 0 2.2 1.373c.82.297 1.7.414 2.57.345h4.63v11.934c.03.267 0 .538-.09.79-.09.253-.24.481-.43.667-.39.303-.87.455-1.36.429h-4.78c-3.89.104-7.75-.714-11.26-2.387a15.517 15.517 0 0 1-6.85-6.611 20.946 20.946 0 0 1-2.39-10.145v-72.179ZM1463.61 473.208h13.92c.36-.027.72.057 1.03.239.22.176.42.385.59.62.2.306.29.665.26 1.027v80.413a53.05 53.05 0 0 1-4.77 23.869 32.45 32.45 0 0 1-14.18 14.68 50.401 50.401 0 0 1-23.87 4.988c-4.25.014-8.5-.273-12.72-.859a51.116 51.116 0 0 1-10.05-2.387c-2.01-.62-3.9-1.581-5.58-2.84-.1-.208-.21-.407-.34-.597a1.35 1.35 0 0 1-.16-.788v-12.531h2.74a50.25 50.25 0 0 0 11.94 4.201c4.55.905 9.19 1.337 13.84 1.289 4.04.063 8.07-.518 11.93-1.719a20.302 20.302 0 0 0 8.43-5.155 16.766 16.766 0 0 0 3.87-5.49 33.52 33.52 0 0 0 2.22-7.399c.55-3.064.81-6.173.78-9.285v-82.276h.12Zm-55.35 0h14.11c.36-.027.71.057 1.02.239.23.182.43.391.6.62.2.306.29.665.26 1.027v61.008a13.69 13.69 0 0 0 .68 5.277 13.363 13.363 0 0 0 2.67 4.605 11.655 11.655 0 0 0 3.91 2.545c1.47.574 3.03.845 4.61.797 2.53.005 5.05-.373 7.47-1.122 2.6-.807 5.08-1.963 7.37-3.437a47.465 47.465 0 0 0 7.4-5.753 80.28 80.28 0 0 0 7.47-8.067v16.326h-4.46a44.396 44.396 0 0 1-8 9.285 32.002 32.002 0 0 1-9.54 5.752 32.714 32.714 0 0 1-11.6 1.981 27.19 27.19 0 0 1-10.15-1.814 19.364 19.364 0 0 1-7.47-5.251 24.253 24.253 0 0 1-4.63-7.972 29.518 29.518 0 0 1-1.65-10.073v-65.973h-.07ZM1499.7 473.208h27.14c.36-.03.72.053 1.03.238.23.183.44.391.62.621.18.309.27.668.24 1.026v75.449c1.14.362 2.33.586 3.53.669 1.31 0 2.84.191 4.56.191 5.63.136 11.2-1.197 16.16-3.867a26.933 26.933 0 0 0 10.74-11.171 36.039 36.039 0 0 0 3.87-17.114v-9.285c.04-4.488-.34-8.971-1.13-13.39a42.363 42.363 0 0 0-3.53-10.741 50.174 50.174 0 0 0-6.51-9.882v-2.744h13.55c.47-.019.94.037 1.39.167.39.144.74.382 1.02.692a30.173 30.173 0 0 1 5.76 8.497 51.19 51.19 0 0 1 3.86 12.197 77.566 77.566 0 0 1 1.39 15.204v9.285c.11 6.769-1.02 13.5-3.34 19.859a39.974 39.974 0 0 1-9.55 14.68 42.473 42.473 0 0 1-14.85 9.213 54.475 54.475 0 0 1-18.9 3.174 51.897 51.897 0 0 1-15.04-1.814 22.327 22.327 0 0 1-7.83-3.508c-.24-.358-.4-.645-.52-.86a2.688 2.688 0 0 1-.17-1.05v-71.606h-11.51a1.757 1.757 0 0 1-1.37-.513 1.632 1.632 0 0 1-.4-.631 1.71 1.71 0 0 1-.11-.742v-12.197l-.1-.047ZM1612.51 473.207h61.17c.36-.03.72.053 1.03.238.24.196.45.43.62.693.16.29.25.62.24.954v16.589c-3.65 4.01-7.33 8.068-10.98 12.197a912.473 912.473 0 0 1-11.1 12.292 984.084 984.084 0 0 0-11.08 12.293c-3.65 4.129-7.32 8.211-11 12.292l-11 12.197c-3.65 4.058-7.37 8.155-11.17 12.292-.28.293-.59.55-.93.764-.31.172-.63.316-.96.43-.26-.003-.52-.06-.76-.167a1.396 1.396 0 0 1-.7-.692 2.44 2.44 0 0 1-.26-1.027v-14.607l13.85-15.563c4.63-5.203 9.23-10.414 13.82-15.634 4.58-5.219 9.19-10.407 13.84-15.562 4.63-5.156 9.24-10.367 13.82-15.634v-2.745c-1.9.672-3.84 1.191-5.82 1.551-1.96.334-3.94.597-5.95.764-2 .167-4.2.263-6.61.263h-27.93c-.27.023-.55-.012-.81-.102a1.922 1.922 0 0 1-.71-.424 1.743 1.743 0 0 1-.41-.623 1.854 1.854 0 0 1-.12-.737v-12.197l-.09-.095Zm-5.49-6.206h12.36c.51-.013 1.01.175 1.39.525.17.185.3.403.39.641.08.238.12.491.11.743v29.932h-12.37a1.762 1.762 0 0 1-1.38-.504c-.18-.18-.32-.397-.4-.635a1.59 1.59 0 0 1-.1-.747v-29.955Zm26.25 68.933v6.349a80.96 80.96 0 0 0 6.61 5.251 14.906 14.906 0 0 0 5.59 2.387c2.62.38 5.27.548 7.92.501h23.87v12.388c.02.252-.02.505-.11.742-.08.237-.22.452-.4.63a1.773 1.773 0 0 1-1.37.514h-23.25c-4.02.051-8.02-.381-11.94-1.289a29.108 29.108 0 0 1-9.71-4.464 66.613 66.613 0 0 1-9.88-8.855l12.67-14.154Z" fill="#3C4043"/></svg>