<svg xmlns="http://www.w3.org/2000/svg" width="1920" height="1080" fill="none"><g clip-path="url(#a)"><path fill="#FFD215" d="M177.39 416.291 112.975 453.1 48.56 416.291l64.415-36.808 64.415 36.808Zm127.296-50.611c-12.269-7.669-27.606-6.135-44.477 3.067l-18.404 10.736c-10.736 6.134-21.472 15.337-30.674 27.606-9.202 12.27-16.87 26.073-23.005 39.876-6.135 13.803-9.202 27.606-9.202 41.409l-64.415-36.808c0-13.803 3.067-27.606 9.202-41.41 6.135-13.803 13.803-27.606 23.005-39.875 9.202-12.27 19.938-21.472 32.208-27.607l18.404-10.735c16.871-9.203 32.207-10.736 44.477-3.068l62.881 36.809ZM112.975 453.1v397.224L48.56 813.516V416.291l64.415 36.809Zm337.411-171.773c-12.269-7.669-27.606-6.135-44.477 3.067l-18.404 10.736c-10.736 6.135-21.471 15.337-30.674 27.606-9.202 12.27-16.87 26.073-23.005 39.876-6.135 13.803-9.202 27.607-9.202 41.41l-65.949-35.275c0-13.803 3.068-27.606 9.203-41.41 6.134-13.803 13.803-27.606 23.005-39.875 9.202-12.27 19.938-21.472 32.207-27.607l18.405-10.736c16.87-9.202 30.673-10.735 44.476-3.067l64.415 35.275ZM258.675 442.364v323.608l-64.414-36.809V405.555l64.414 36.809Zm147.234-84.353v323.608l-62.881-36.809V321.203l62.881 36.808ZM112.975 453.1l64.415-36.809v73.617c0-13.803 3.068-27.606 9.202-41.409 6.135-13.804 13.803-27.607 23.006-39.876 9.202-12.27 19.938-21.472 30.673-27.607l18.404-10.735c16.871-9.202 32.208-10.736 44.477-3.068 12.27 7.669 18.405 21.472 18.405 39.876 0-13.803 3.067-27.606 9.202-41.409 6.134-13.804 13.803-27.607 23.005-39.876 9.202-12.27 19.938-21.472 30.674-27.607l18.404-10.735c16.871-9.203 32.207-10.736 44.477-3.068 12.269 7.669 18.404 21.472 18.404 39.876v323.608l-64.415 36.808V358.011l-82.819 47.544v323.608l-64.415 36.809V442.364l-82.819 47.544v323.608l-64.414 36.808V453.1h6.134Z"/><path fill="url(#b)" d="M405.899 358.013V681.62l-62.881-36.808V321.204l62.881 36.809Z"/><path fill="url(#c)" d="M258.67 442.366v323.607l-62.881-36.808V405.557l62.881 36.809Z"/><path fill="url(#d)" d="M450.375 281.327c-12.27-7.669-27.607-6.135-44.477 3.067l-18.404 10.736c-10.736 6.135-21.472 15.337-30.674 27.606-9.202 12.27-16.871 26.073-23.005 39.876-6.135 13.803-9.202 27.607-9.202 41.41l-65.949-35.275c0-13.803 3.067-27.606 9.202-41.41 6.135-13.803 13.803-27.606 23.005-39.875 9.203-12.27 19.938-21.472 32.208-27.607l18.404-10.736c16.871-9.202 30.674-10.735 44.477-3.067l64.415 35.275Z"/><path fill="url(#e)" d="M112.975 453.097v398.758L48.56 815.047V416.289l64.415 36.808Z"/><path fill="url(#f)" d="M304.699 365.677c-12.27-7.668-27.607-6.134-44.477 3.068l-18.405 10.736c-10.735 6.134-21.471 15.336-30.673 27.606-9.202 12.269-16.871 26.073-23.006 39.876-6.134 13.803-9.202 27.606-9.202 41.409l-64.415-36.808c0-13.803 3.068-27.607 9.203-41.41 6.134-13.803 13.803-27.606 23.005-39.876 9.202-12.269 19.938-21.471 32.207-27.606l18.405-10.736c16.87-9.202 32.207-10.736 44.476-3.067l62.882 36.808Z"/><path fill="url(#g)" d="m177.39 416.289-64.415 36.809-64.415-36.809 64.415-36.808 64.415 36.808Z"/><path fill="url(#h)" d="m112.982 453.098 64.415-36.808v73.617c0-13.803 3.068-27.607 9.202-41.41 6.135-13.803 13.804-27.606 23.006-39.876 9.202-12.269 19.938-21.471 30.673-27.606l18.405-10.736c16.87-9.202 32.207-10.736 44.477-3.067 12.269 7.668 18.404 21.471 18.404 39.876 0-13.803 3.067-27.607 9.202-41.41 6.135-13.803 13.803-27.606 23.005-39.876 9.202-12.269 19.938-21.471 30.674-27.606l18.404-10.736c16.871-9.202 32.208-10.736 44.477-3.067 12.27 7.668 18.404 21.472 18.404 39.876v323.607l-64.415 36.809V358.01l-82.819 47.544v323.608l-64.415 36.808V442.363l-82.818 47.544v323.607l-64.415 36.809V453.098h6.134Z"/><path fill="#fff" d="M258.678 368.75c-6.135 1.533-12.27 3.067-15.337 4.601-3.068 1.533-6.135 3.067-7.669 4.601-10.735 6.135-21.471 15.337-30.673 27.606-9.202 12.27-16.871 26.073-23.006 41.41-6.134 15.337-7.668 29.14-6.134 42.943 1.533-12.27 4.601-26.073 10.735-39.876 6.135-13.803 13.804-27.606 24.539-39.876 9.203-12.269 19.938-21.471 32.208-27.606 3.067-1.534 4.601-3.067 7.668-4.601 3.068-1.534 6.135-4.601 7.669-9.202Zm147.233-84.353c-6.134 1.534-10.735 3.067-13.803 4.601l-9.202 4.601c-10.736 6.135-21.471 15.337-30.674 27.606-9.202 12.27-16.87 26.073-23.005 41.41-6.135 15.337-7.668 29.14-6.135 42.943 1.534-12.269 4.602-26.072 10.736-39.876 6.135-13.803 15.337-27.606 24.539-39.875 9.202-12.27 19.938-21.472 30.674-27.607 3.067-1.534 4.601-3.067 7.668-4.601 3.068-3.067 6.135-4.601 9.202-9.202ZM177.392 416.294c-18.404 7.668-32.207 13.803-41.409 19.938-9.202 6.135-18.404 10.736-26.073 15.337V637.145c0 38.342 1.534 85.886 3.067 139.565 1.534-53.679 3.068-99.689 3.068-136.498V454.636c7.668-4.601 16.87-9.202 26.073-15.337 9.202-4.601 19.937-12.269 35.274-23.005Z"/><path fill="#FFD215" d="M832.266 339.611c-12.269-7.669-27.606-6.135-44.476 3.067l-127.296 73.617c-10.736 6.135-21.472 15.337-32.208 27.606-10.736 12.27-18.404 26.073-23.005 39.876-6.135 13.803-9.202 27.606-9.202 41.41v279.13c0 19.938 6.135 33.741 18.404 39.876l-64.415-36.808c-12.269-7.669-18.404-21.472-18.404-39.876V488.378c0-13.803 3.067-27.606 9.202-41.409 6.135-13.804 13.803-27.607 23.005-39.876 9.203-12.27 19.938-21.472 32.208-27.607l127.296-73.617c16.87-9.202 32.207-10.735 44.477-3.067l64.414 36.809ZM789.323 526.72l-127.296 73.617-64.415-36.808 127.296-73.617 64.415 36.808Zm-127.296 73.617c0 19.938 6.135 33.741 18.405 39.876l-64.415-36.809c-12.27-7.668-18.405-21.471-18.405-39.875l64.415 36.808Zm127.296-184.042V526.72l-64.415-36.808V379.486l64.415 36.809Zm62.881 243.856L662.027 770.576l-64.415-36.808 191.711-110.426 62.881 36.809Zm-62.881-243.856-127.296 73.617v110.425l127.296-73.617V416.295Zm-127.296 0 127.296-73.617c16.871-9.202 30.674-10.736 44.477-3.067 12.27 7.668 18.404 21.471 18.404 39.875v110.426c0 12.269-3.067 26.072-9.202 41.409-6.134 15.337-13.803 27.607-23.005 41.41-9.202 12.269-19.938 21.471-30.674 27.606l-64.415 36.809c-16.87 9.202-30.673 10.735-44.476 3.067-12.27-7.668-18.405-21.472-18.405-39.876v168.706l190.177-110.426v73.617L662.027 842.66c-16.87 9.202-32.207 10.735-44.477 3.067-12.269-7.668-18.404-21.472-18.404-39.876V526.72c0-13.803 3.068-27.606 9.202-41.409 6.135-13.803 13.804-27.607 23.006-39.876 9.202-12.27 18.404-21.472 30.673-29.14Z"/><path fill="url(#i)" d="M852.217 660.152 662.04 770.578l-64.415-36.809 191.711-110.425 62.881 36.808Z"/><path fill="url(#j)" d="M789.317 416.297v110.426l-64.415-36.809V379.489l64.415 36.808Z"/><path fill="url(#k)" d="M662.04 600.341c0 19.938 6.135 33.741 18.404 39.876l-64.415-36.808c-12.269-7.669-18.404-21.472-18.404-39.876l64.415 36.808Z"/><path fill="url(#l)" d="M789.336 526.718 662.04 600.335l-64.415-36.808 127.296-73.617 64.415 36.808Z"/><path fill="url(#m)" d="M832.266 339.611c-12.269-7.669-27.606-6.135-44.476 3.067l-127.296 73.617c-10.736 6.135-21.472 15.337-32.208 27.606-10.736 12.27-18.404 26.073-23.005 39.876-6.135 13.803-9.202 27.606-9.202 41.41v279.13c0 19.938 6.135 33.741 18.404 39.876l-64.415-36.808c-12.269-7.669-18.404-21.472-18.404-39.876V488.378c0-13.803 3.067-27.606 9.202-41.409 6.135-13.804 13.803-27.607 23.005-39.876 9.203-12.27 19.938-21.472 32.208-27.607l127.296-73.617c16.87-9.202 32.207-10.735 44.477-3.067l64.414 36.809Z"/><path fill="url(#n)" d="M789.329 416.293 662.034 489.91v110.426l127.295-73.617V416.293Zm-127.295 0 127.295-73.617c16.871-9.202 30.674-10.735 44.477-3.067 12.27 7.669 18.405 21.472 18.405 39.876V489.91c0 12.27-3.068 26.073-9.202 41.41-6.135 15.337-13.804 27.606-23.006 41.409-9.202 12.27-19.938 21.472-30.674 27.607l-64.414 36.808c-16.871 9.202-30.674 10.736-44.477 3.068-12.27-7.669-18.404-21.472-18.404-39.876v168.705l190.177-110.425v73.617L662.034 842.658c-16.871 9.202-32.208 10.736-44.477 3.068-12.27-7.669-18.405-21.472-18.405-39.876V526.719c0-13.803 3.068-27.606 9.203-41.41 6.134-13.803 13.803-27.606 23.005-39.876 9.202-12.269 18.404-21.471 30.674-29.14Z"/><path fill="#fff" d="M852.198 660.147c-26.072 12.27-46.01 23.006-59.813 30.674-13.804 7.668-27.607 15.337-39.876 21.472-12.27 6.134-24.539 13.803-38.342 23.005-13.804 7.668-30.674 19.938-53.68 35.275 26.073-12.27 46.011-23.006 59.814-30.674 13.803-7.668 27.607-15.337 39.876-21.472 12.27-6.134 24.539-13.803 38.342-23.005 13.803-9.202 30.674-21.472 53.679-35.275Zm-62.881-317.473c-23.005 10.736-41.409 21.472-56.746 29.14-15.337 7.669-29.14 15.337-41.41 23.006-12.269 7.668-23.005 12.269-33.741 18.404s-21.471 15.337-30.674 27.606c-9.202 12.27-16.87 26.073-23.005 39.876-6.135 13.803-9.202 27.606-9.202 41.41v161.037c0 33.741 1.534 73.617 3.067 121.161 1.534-46.011 3.068-85.887 3.068-118.094V526.717c0-13.804 3.067-27.607 9.202-41.41 6.135-13.803 13.803-27.606 23.005-39.876 9.202-12.269 19.938-21.471 32.208-27.606 15.336-9.202 32.207-19.938 50.611-30.674 18.405-9.202 42.943-24.539 73.617-44.477Zm0 73.617c-1.534 26.073-3.067 47.545-3.067 64.415v44.477c-16.871 9.202-33.741 19.938-52.146 30.674-18.404 10.735-42.943 26.072-72.083 46.01 21.472-12.269 41.41-21.471 56.747-30.673 15.336-9.203 29.14-15.337 41.409-23.006 12.27-6.134 23.005-12.269 33.741-18.404v-46.011c0-16.87-3.067-38.342-4.601-67.482Z"/><path fill="#FFD215" d="M948.825 502.176v73.617l-64.415-36.808v-73.617l64.415 36.808Zm62.885-110.425v73.617l-62.885-36.809v-73.617l62.885 36.809Zm64.41-36.809-64.41 36.809-62.885-36.809 62.885-36.808 64.41 36.808Zm-64.41 184.043v279.13c0 19.938 6.13 33.742 18.4 39.876l-62.881-36.808c-12.269-7.669-18.404-21.472-18.404-39.876V502.176l62.885 36.809Zm0-73.617-62.885 36.808-64.415-36.808 64.415-36.809 62.885 36.809Zm191.71-110.426L1139 391.751c-10.73 6.134-21.47 15.337-30.67 27.606-9.2 12.27-16.87 26.073-23.01 39.876-6.13 13.803-9.2 27.606-9.2 41.409l-64.41-36.808c0-13.803 3.06-27.606 9.2-41.41 6.13-13.803 13.8-27.606 23-39.875 9.21-12.27 19.94-21.472 32.21-27.607l62.88-36.808 64.42 36.808Zm0 352.748-127.3 73.617-64.41-36.809L1139 670.882l64.42 36.808Zm-191.71-168.705-62.885 36.808v-73.617l62.885-36.808v-73.617l64.41-36.809v147.234c0-13.803 3.07-27.606 9.2-41.409 6.14-13.804 13.81-27.607 23.01-39.876 9.2-12.27 19.94-21.472 30.67-27.607l64.42-36.808v73.617l-127.3 73.617v279.131l127.3-73.617v73.617l-127.3 73.617c-16.87 9.202-32.21 10.735-44.48 3.067-12.27-7.668-18.4-21.472-18.4-39.876V538.985h-1.53Z"/><path fill="url(#o)" d="m1203.43 707.69-127.29 73.617-64.42-36.808 127.3-73.617 64.41 36.808Z"/><path fill="url(#p)" d="m1203.43 354.942-64.41 36.809c-10.74 6.134-21.48 15.337-30.68 27.606-9.2 12.27-16.87 26.073-23 39.876-6.14 13.803-9.2 27.606-9.2 41.409l-64.42-36.808c0-13.803 3.07-27.606 9.2-41.41 6.14-13.803 13.81-27.606 23.01-39.875 9.2-12.27 19.94-21.472 32.21-27.607l62.88-36.808 64.41 36.808Z"/><path fill="url(#q)" d="m1011.71 465.37-62.885 36.809-64.415-36.809 64.415-36.808 62.885 36.808Z"/><path fill="url(#r)" d="M1011.69 538.984v279.131c0 19.938 6.14 33.741 18.41 39.876l-62.885-36.809c-12.27-7.668-18.404-21.471-18.404-39.875V502.176l62.879 36.808Z"/><path fill="url(#s)" d="m1076.11 354.942-64.42 36.809-62.879-36.809 62.879-36.808 64.42 36.808Z"/><path fill="url(#t)" d="M1011.69 391.749v73.617l-62.879-36.808v-73.617l62.879 36.808Z"/><path fill="url(#u)" d="M948.825 502.178v73.616l-64.415-36.808v-73.617l64.415 36.809Z"/><path fill="url(#v)" d="m1011.69 538.983-62.879 36.809v-73.617l62.879-36.809v-73.617l64.42-36.808v147.234c0-13.803 3.06-27.607 9.2-41.41 6.13-13.803 13.8-27.606 23-39.876 9.21-12.269 19.94-21.471 30.68-27.606l64.41-36.808v73.616l-127.29 73.617v279.131l127.29-73.617v73.617l-127.29 73.617c-16.87 9.202-32.21 10.736-44.48 3.068-12.27-7.669-18.4-21.472-18.4-39.876V538.983h-1.54Z"/><path fill="#fff" d="M1011.69 612.6c-1.53 24.539-3.07 42.943-3.07 58.28v84.353c0 15.337 1.54 36.809 3.07 64.415 1.54-24.539 3.07-44.477 3.07-59.814v-84.353c0-16.87-1.53-36.808-3.07-62.881Zm191.71 95.089c-18.4 7.668-32.2 15.337-42.94 19.938-9.2 6.134-18.4 10.735-27.61 15.336-7.67 4.602-15.33 9.203-24.54 15.337-9.2 6.135-19.93 12.27-32.2 23.006 16.87-7.669 30.67-13.804 39.87-18.405 9.2-4.601 18.41-9.202 24.54-13.803 7.67-4.601 16.87-10.736 26.07-15.337 9.21-7.668 21.48-15.336 36.81-26.072Zm0-352.748c-18.4 7.668-30.67 13.803-41.41 19.938-9.2 6.135-18.4 10.736-26.07 15.337-10.74 6.134-21.47 15.337-30.67 27.606-9.21 12.27-16.87 26.073-23.01 41.41-6.13 15.336-7.67 29.14-6.13 42.943 1.53-12.27 4.6-26.073 10.73-39.876 6.14-13.803 15.34-27.606 24.54-39.876 9.2-12.269 19.94-21.472 32.21-27.606 7.67-4.601 16.87-9.202 24.54-15.337 9.2-6.135 21.47-15.337 35.27-24.539Zm-127.29 0c-18.41 7.668-32.21 13.803-41.41 19.938-9.21 6.135-18.41 10.736-26.08 15.337v73.617c-7.66 4.601-16.866 9.202-26.068 15.336-9.203 6.135-19.938 13.804-33.741 24.539 18.404-7.668 30.673-15.336 41.409-19.938 9.202-4.601 18.4-9.202 26.07-13.803V396.35c7.67-4.601 16.87-9.202 26.08-15.336 7.66-7.669 18.4-16.871 33.74-26.073Z"/><path fill="#FFD215" d="M1330.73 453.103v73.617l-64.42-36.809v-73.617l64.42 36.809Zm234.65-113.493c-12.27-7.668-27.6-6.135-44.47 3.067L1329.2 453.103l-64.42-36.809 191.71-110.425c16.87-9.202 32.21-10.736 44.48-3.067l64.41 36.808Zm-42.94 180.975-127.3 73.617c-10.73 6.135-21.47 15.337-32.2 27.606-10.74 12.27-18.41 26.073-23.01 39.876-6.13 13.803-9.2 27.606-9.2 41.41v102.757c0 19.937 6.13 33.741 18.4 39.875l-64.41-36.808c-12.27-7.668-18.41-21.472-18.41-39.876V666.285c0-13.803 3.07-27.606 9.21-41.409 6.13-13.804 13.8-27.607 23-39.876 9.2-12.27 19.94-21.472 32.21-27.607l127.3-73.617 64.41 36.809Zm0 176.374-127.3 73.617-64.41-36.809 127.3-73.617 64.41 36.809Zm0-102.757v102.757l-64.41-36.809V557.393l64.41 36.809Zm0 102.757v73.617l-64.41-36.809V660.15l64.41 36.809Zm0-280.665v102.757l-64.41-36.808V379.486l64.41 36.808Zm-127.3 354.282 127.3-73.617V594.202l-127.3 73.617v102.757Zm-64.41-317.473 191.71-110.426c16.87-9.202 30.67-10.735 44.48-3.067 12.27 7.668 18.4 21.472 18.4 39.876v352.748l-62.88 36.808v-73.617c0 12.27-3.07 26.073-9.2 41.41-6.14 15.337-13.8 27.606-23.01 41.409-9.2 12.27-19.93 21.472-32.2 27.607l-62.89 36.808c-16.87 9.202-32.2 10.736-44.47 3.067-12.27-7.668-18.41-21.471-18.41-39.875V703.094c0-13.804 3.07-27.607 9.21-41.41 6.13-13.803 13.8-27.606 23-39.876 9.2-12.269 19.94-21.471 32.21-27.606l127.29-73.617V417.828l-191.71 110.425v-75.15h-1.53Z"/><path fill="url(#w)" d="M1522.43 416.297v104.291l-64.41-36.809v-104.29l64.41 36.808Z"/><path fill="url(#x)" d="M1522.43 696.958v73.617l-64.41-36.808V660.15l64.41 36.808Z"/><path fill="url(#y)" d="M1522.43 594.199v102.757l-64.41-36.808V557.391l64.41 36.808Z"/><path fill="url(#z)" d="m1522.45 696.958-127.29 73.617-64.42-36.808 127.3-73.617 64.41 36.808Z"/><path fill="url(#A)" d="m1522.43 520.585-127.29 73.617c-10.74 6.135-21.48 15.337-32.21 27.606-10.74 12.27-18.41 26.073-23.01 39.876-6.13 13.803-9.2 27.606-9.2 41.41V805.85c0 19.938 6.14 33.742 18.41 39.876l-64.42-36.808c-12.27-7.669-18.4-21.472-18.4-39.876V666.285c0-13.803 3.06-27.606 9.2-41.409 6.13-13.804 13.8-27.607 23-39.876 9.21-12.27 19.94-21.472 32.21-27.607l127.3-73.617 64.41 36.809Z"/><path fill="url(#B)" d="M1565.38 339.61c-12.27-7.668-27.6-6.135-44.47 3.067L1329.2 453.103l-64.42-36.809 191.71-110.425c16.87-9.202 32.21-10.736 44.48-3.067l64.41 36.808Z"/><path fill="url(#C)" d="M1330.72 453.104v73.617l-64.41-36.808v-73.617l64.41 36.808Z"/><path fill="url(#D)" d="m1395.16 770.574 127.29-73.617V594.201l-127.29 73.616v102.757Zm-64.42-317.473 191.71-110.425c16.87-9.202 30.67-10.736 44.48-3.067 12.27 7.668 18.4 21.471 18.4 39.875v352.748l-62.88 36.809v-73.617c0 12.269-3.07 26.072-9.2 41.409-6.14 15.337-13.8 27.607-23.01 41.41-9.2 12.269-19.93 21.471-32.2 27.606l-62.88 36.809c-16.88 9.202-32.21 10.736-44.48 3.067-12.27-7.668-18.41-21.472-18.41-39.876V703.092c0-13.803 3.07-27.606 9.21-41.409 6.13-13.803 13.8-27.607 23-39.876 9.2-12.27 19.94-21.472 32.21-27.606l127.29-73.617V417.827l-191.71 110.425v-75.151h-1.53Z"/><path fill="#fff" d="M1522.43 342.674c-33.74 18.405-61.34 32.208-84.35 46.011-23 12.269-42.94 24.539-61.35 33.741-16.87 9.202-33.74 19.938-49.07 29.14v30.674c0 10.736 1.53 26.072 3.06 46.01 1.54-16.87 3.07-30.673 3.07-41.409v-29.14c16.87-9.202 32.21-18.404 50.61-29.14 16.87-10.736 36.81-21.472 58.28-35.275 21.47-15.337 47.55-30.674 79.75-50.612Zm0 251.525c-1.53 24.539-3.06 44.477-3.06 59.814v41.409c-16.87 9.202-33.74 19.938-52.15 30.674-18.4 10.736-42.94 26.072-72.08 46.01 21.47-12.269 41.41-21.471 56.74-30.673 15.34-9.202 29.14-15.337 41.41-23.006 12.27-6.134 23.01-12.269 33.75-18.404v-41.409c-1.54-16.871-3.07-38.342-4.61-64.415Zm0-177.908c-1.53 24.539-3.06 44.477-3.06 59.814v41.41l-128.83 73.616c-10.74 6.135-21.47 15.337-30.68 27.607-9.2 12.269-16.87 26.072-23 39.876-6.14 13.803-9.2 27.606-9.2 41.409v33.741c0 12.27 1.53 29.14 3.06 50.612 1.54-18.404 3.07-33.741 3.07-46.011v-32.207c0-13.803 3.07-27.606 9.2-41.41 6.14-13.803 13.81-27.606 23.01-39.875 9.2-12.27 19.94-21.472 32.21-27.607l127.29-73.617V482.24c0-16.871-1.53-38.342-3.07-65.949Z"/><path fill="#FFD215" d="M1712.62 262.923v544.458c0 19.938 6.13 33.741 18.4 39.876l-64.41-36.809c-12.27-7.668-18.41-21.471-18.41-39.875V226.114l64.42 36.809Zm159.5 452.437-95.09 55.213-64.41-36.809 95.09-55.212 64.41 36.808Zm-95.09-489.246-64.41 36.809-64.42-36.809 64.42-36.808 64.41 36.808Zm0 544.459 95.09-55.213v73.617l-95.09 55.213c-16.87 9.202-32.2 10.735-44.47 3.067-12.27-7.669-18.41-21.472-18.41-39.876V262.923l64.42-36.809v544.459h-1.54Z"/><path fill="url(#E)" d="m1777.02 226.114-64.41 36.809-62.88-36.809 62.88-36.808 64.41 36.808Z"/><path fill="url(#F)" d="m1872.11 715.359-95.09 55.212-64.42-36.808 96.63-55.213 62.88 36.809Z"/><path fill="url(#G)" d="M1712.62 262.921V807.38c0 19.938 6.13 33.741 18.4 39.876l-64.41-36.809c-12.27-7.668-18.41-21.471-18.41-39.876V226.113l64.42 36.808Z"/><path fill="url(#H)" d="m1777.05 770.571 95.09-55.212v73.616l-95.09 55.213c-16.87 9.202-32.21 10.736-44.48 3.067-12.27-7.668-18.4-21.471-18.4-39.875V262.921l64.41-36.808v544.458h-1.53Z"/><path fill="#fff" d="M1872.12 715.359c-12.27 6.134-23 9.202-29.14 13.803-6.13 4.601-12.27 6.135-18.4 10.736-6.14 3.067-13.8 7.668-19.94 12.269-6.13 4.601-15.34 10.736-27.61 19.938 13.81-6.135 24.54-12.269 33.75-15.337 7.66-4.601 15.33-7.668 21.47-10.736 6.13-3.067 10.73-7.668 18.4-10.735 4.6-7.669 12.27-12.27 21.47-19.938Zm-95.09-489.246c-18.4 7.668-32.2 13.803-41.4 19.938-9.21 6.134-18.41 10.735-26.08 15.337V482.238c0 42.944 0 90.488 1.54 142.633 0 53.679 1.53 113.493 1.53 182.509 1.53-67.482 1.53-127.296 1.53-179.441 0-52.146 1.54-99.69 1.54-141.1V265.989c7.67-4.601 16.87-9.203 26.07-15.337 9.2-6.135 21.47-15.337 35.27-24.539Z"/></g><defs><linearGradient id="b" x1="303.501" x2="444.122" y1="623.546" y2="381.094" gradientUnits="userSpaceOnUse"><stop offset="0" stop-color="#F28F2C"/><stop offset="1" stop-color="#EA5636"/></linearGradient><linearGradient id="c" x1="156.981" x2="297.558" y1="707.618" y2="465.244" gradientUnits="userSpaceOnUse"><stop offset="0" stop-color="#F28F2C"/><stop offset="1" stop-color="#EA5636"/></linearGradient><linearGradient id="d" x1="305.112" x2="378.597" y1="396.27" y2="269.573" gradientUnits="userSpaceOnUse"><stop offset="0" stop-color="#F28F2C"/><stop offset=".135" stop-color="#F49B3B"/><stop offset=".393" stop-color="#F8BA65"/><stop offset=".744" stop-color="#FDE7A7"/><stop offset=".87" stop-color="#FEF7C0"/><stop offset="1" stop-color="#FEF7C0"/></linearGradient><linearGradient id="e" x1="-5.495" x2="167.174" y1="783.003" y2="485.297" gradientUnits="userSpaceOnUse"><stop offset="0" stop-color="#EA5636"/><stop offset="1" stop-color="#F28F2C"/></linearGradient><linearGradient id="f" x1="158.774" x2="232.259" y1="480.697" y2="353.999" gradientUnits="userSpaceOnUse"><stop offset="0" stop-color="#F28F2C"/><stop offset=".135" stop-color="#F49B3B"/><stop offset=".393" stop-color="#F8BA65"/><stop offset=".744" stop-color="#FDE7A7"/><stop offset=".87" stop-color="#FEF7C0"/><stop offset="1" stop-color="#FEF7C0"/></linearGradient><linearGradient id="g" x1="96.744" x2="128.693" y1="444.77" y2="389.684" gradientUnits="userSpaceOnUse"><stop offset="0" stop-color="#FEF7C0"/><stop offset="1" stop-color="#FEF7C0"/></linearGradient><linearGradient id="h" x1="357.339" x2="166.516" y1="692.626" y2="360.594" gradientUnits="userSpaceOnUse"><stop offset="0" stop-color="#FFD316"/><stop offset=".4" stop-color="#FFDB3C"/><stop offset="1" stop-color="#FFEC6F"/></linearGradient><linearGradient id="i" x1="673.267" x2="772.312" y1="785.272" y2="614.505" gradientUnits="userSpaceOnUse"><stop offset="0" stop-color="#F28F2C"/><stop offset=".161" stop-color="#F49A32"/><stop offset=".46" stop-color="#F8B644"/><stop offset=".863" stop-color="#FEDE63"/><stop offset="1" stop-color="#FFEC6F"/></linearGradient><linearGradient id="j" x1="732.35" x2="780.274" y1="495.638" y2="413.009" gradientUnits="userSpaceOnUse"><stop offset="0" stop-color="#F28F2C"/><stop offset="1" stop-color="#EA5636"/></linearGradient><linearGradient id="k" x1="632.254" x2="645.034" y1="614.254" y2="592.22" gradientUnits="userSpaceOnUse"><stop offset="0" stop-color="#F28F2C"/><stop offset="1" stop-color="#EA5636"/></linearGradient><linearGradient id="l" x1="657.565" x2="734.245" y1="606.842" y2="474.635" gradientUnits="userSpaceOnUse"><stop offset="0" stop-color="#F28F2C"/><stop offset=".161" stop-color="#F49A32"/><stop offset=".46" stop-color="#F8B644"/><stop offset=".863" stop-color="#FEDE63"/><stop offset="1" stop-color="#FFEC6F"/></linearGradient><linearGradient id="m" x1="513.998" x2="763.207" y1="759.157" y2="329.485" gradientUnits="userSpaceOnUse"><stop offset="0" stop-color="#EA5636"/><stop offset=".487" stop-color="#F28F2C"/><stop offset=".527" stop-color="#F49B3B"/><stop offset=".603" stop-color="#F8BA65"/><stop offset=".707" stop-color="#FDE7A7"/><stop offset=".744" stop-color="#FEF7C0"/><stop offset="1" stop-color="#FEF7C0"/></linearGradient><linearGradient id="n" x1="796.433" x2="605.61" y1="718.658" y2="386.625" gradientUnits="userSpaceOnUse"><stop offset="0" stop-color="#FFD316"/><stop offset=".4" stop-color="#FFDB3C"/><stop offset="1" stop-color="#FFEC6F"/></linearGradient><linearGradient id="o" x1="1065.65" x2="1139.14" y1="798.187" y2="671.489" gradientUnits="userSpaceOnUse"><stop offset="0" stop-color="#F28F2C"/><stop offset=".161" stop-color="#F49A32"/><stop offset=".46" stop-color="#F8B644"/><stop offset=".863" stop-color="#FEDE63"/><stop offset="1" stop-color="#FFEC6F"/></linearGradient><linearGradient id="p" x1="1052.84" x2="1148.69" y1="488.928" y2="323.67" gradientUnits="userSpaceOnUse"><stop offset="0" stop-color="#F28F2C"/><stop offset=".107" stop-color="#F49A32"/><stop offset=".307" stop-color="#F8B644"/><stop offset=".575" stop-color="#FEDE63"/><stop offset=".667" stop-color="#FFEC6F"/><stop offset=".783" stop-color="#FFEF8B"/><stop offset="1" stop-color="#FEF7C0"/></linearGradient><linearGradient id="q" x1="931.994" x2="986.308" y1="492.462" y2="398.817" gradientUnits="userSpaceOnUse"><stop offset="0" stop-color="#FEF7C0"/><stop offset=".204" stop-color="#FCE2A0"/><stop offset=".749" stop-color="#F6A84C"/><stop offset="1" stop-color="#F28F2C"/></linearGradient><linearGradient id="r" x1="935.157" x2="1056.57" y1="774.049" y2="564.722" gradientUnits="userSpaceOnUse"><stop offset="0" stop-color="#EA5636"/><stop offset=".466" stop-color="#F28F2C"/><stop offset="1" stop-color="#EA5636"/></linearGradient><linearGradient id="s" x1="995.881" x2="1027.83" y1="382.291" y2="327.205" gradientUnits="userSpaceOnUse"><stop offset="0" stop-color="#FEF7C0"/><stop offset="1" stop-color="#FEF7C0"/></linearGradient><linearGradient id="t" x1="963.931" x2="995.881" y1="437.374" y2="382.288" gradientUnits="userSpaceOnUse"><stop offset="0" stop-color="#F28F2C"/><stop offset="1" stop-color="#F28F2C"/></linearGradient><linearGradient id="u" x1="900.322" x2="932.272" y1="547.709" y2="492.623" gradientUnits="userSpaceOnUse"><stop offset="0" stop-color="#F28F2C"/><stop offset="1" stop-color="#F28F2C"/></linearGradient><linearGradient id="v" x1="1178.78" x2="987.957" y1="718.901" y2="386.868" gradientUnits="userSpaceOnUse"><stop offset="0" stop-color="#FFD316"/><stop offset=".4" stop-color="#FFDB3C"/><stop offset="1" stop-color="#FFEC6F"/></linearGradient><linearGradient id="w" x1="1467.18" x2="1511.91" y1="489.205" y2="412.085" gradientUnits="userSpaceOnUse"><stop offset="0" stop-color="#F28F2C"/><stop offset="1" stop-color="#EA5636"/></linearGradient><linearGradient id="x" x1="1473.56" x2="1500.4" y1="743.204" y2="696.932" gradientUnits="userSpaceOnUse"><stop offset="0" stop-color="#F28F2C"/><stop offset="1" stop-color="#EA5636"/></linearGradient><linearGradient id="y" x1="1468.15" x2="1512.81" y1="664.845" y2="586.499" gradientUnits="userSpaceOnUse"><stop offset="0" stop-color="#F28F2C"/><stop offset="1" stop-color="#EA5636"/></linearGradient><linearGradient id="z" x1="1390.79" x2="1467.47" y1="776.162" y2="643.955" gradientUnits="userSpaceOnUse"><stop offset="0" stop-color="#F28F2C"/><stop offset=".161" stop-color="#F49A32"/><stop offset=".46" stop-color="#F8B644"/><stop offset=".863" stop-color="#FEDE63"/><stop offset="1" stop-color="#FFEC6F"/></linearGradient><linearGradient id="A" x1="1285.55" x2="1458.07" y1="781.386" y2="483.921" gradientUnits="userSpaceOnUse"><stop offset="0" stop-color="#EA5636"/><stop offset=".259" stop-color="#F28F2C"/><stop offset=".63" stop-color="#F28F2C"/><stop offset=".69" stop-color="#F49A32"/><stop offset=".8" stop-color="#F8B644"/><stop offset=".949" stop-color="#FEDE63"/><stop offset="1" stop-color="#FFEC6F"/></linearGradient><linearGradient id="B" x1="1361.76" x2="1457.61" y1="472.269" y2="307.011" gradientUnits="userSpaceOnUse"><stop offset="0" stop-color="#FEF7C0"/><stop offset="1" stop-color="#FEF7C0"/></linearGradient><linearGradient id="C" x1="1282.4" x2="1314.35" y1="499.862" y2="444.777" gradientUnits="userSpaceOnUse"><stop offset="0" stop-color="#F28F2C"/><stop offset="1" stop-color="#F28F2C"/></linearGradient><linearGradient id="D" x1="1529.66" x2="1338.84" y1="718.657" y2="386.625" gradientUnits="userSpaceOnUse"><stop offset="0" stop-color="#FFD316"/><stop offset=".4" stop-color="#FFDB3C"/><stop offset="1" stop-color="#FFEC6F"/></linearGradient><linearGradient id="E" x1="1697.15" x2="1729.1" y1="253.368" y2="198.282" gradientUnits="userSpaceOnUse"><stop offset="0" stop-color="#FEF7C0"/><stop offset="1" stop-color="#FEF7C0"/></linearGradient><linearGradient id="F" x1="1752.67" x2="1816.57" y1="793.484" y2="683.312" gradientUnits="userSpaceOnUse"><stop offset="0" stop-color="#F28F2C"/><stop offset=".161" stop-color="#F49A32"/><stop offset=".46" stop-color="#F8B644"/><stop offset=".863" stop-color="#FEDE63"/><stop offset="1" stop-color="#FFEC6F"/></linearGradient><linearGradient id="G" x1="1578.94" x2="1815.37" y1="729.518" y2="321.883" gradientUnits="userSpaceOnUse"><stop offset="0" stop-color="#EA5636"/><stop offset="1" stop-color="#F28F2C"/></linearGradient><linearGradient id="H" x1="1870.61" x2="1679.78" y1="742.717" y2="410.684" gradientUnits="userSpaceOnUse"><stop offset="0" stop-color="#FFD316"/><stop offset=".4" stop-color="#FFDB3C"/><stop offset="1" stop-color="#FFEC6F"/></linearGradient><clipPath id="a"><path fill="#fff" d="M0 0h1920v1080H0z"/></clipPath></defs></svg>