<svg width="1920" height="1080" fill="none" xmlns="http://www.w3.org/2000/svg"><path d="M1031.56 564.212c5.35 0 8.92-.595 10.7-1.784 1.78-1.189 2.68-2.527 2.68-4.014 0-.892-.3-1.784-.9-2.676-.44-.892-1.48-1.635-3.12-2.23-1.49-.743-3.64-1.264-6.47-1.561l-16.27-2.23c-9.67-1.338-17.55-3.419-23.643-6.244-6.095-2.825-10.63-6.541-13.603-11.15-2.825-4.757-4.237-10.704-4.237-17.84 0-6.541 1.338-12.265 4.014-17.171 2.825-5.055 6.839-9.366 12.042-12.934 5.352-3.717 11.897-6.467 19.627-8.251 7.88-1.784 16.8-2.676 26.76-2.676 6.98 0 13.08.372 18.28 1.115 5.36.743 9.82 1.635 13.38 2.676 3.57.892 6.02 1.71 7.36 2.453.6.149.97.372 1.12.669.29.297.44.669.44 1.115.15.297.23.743.23 1.338v34.565h-4.46a155.514 155.514 0 0 0-13.16-3.345c-4.16-1.041-8.55-1.858-13.16-2.453-4.46-.595-9.44-.892-14.94-.892-4.01 0-7.28.223-9.81.669-2.53.446-4.39 1.115-5.58 2.007-1.19.892-1.78 2.007-1.78 3.345 0 1.189.37 2.23 1.12 3.122.74.892 2 1.561 3.79 2.007 1.78.446 4.16.892 7.13 1.338l15.84 2.007c8.77 1.041 16.13 3.122 22.07 6.244 5.95 3.122 10.41 7.21 13.38 12.265 3.12 4.906 4.69 10.63 4.69 17.171 0 9.217-2.16 16.948-6.47 23.192-4.16 6.095-10.48 10.778-18.96 14.049-8.47 3.122-19.1 4.683-31.89 4.683-5.5 0-11-.223-16.5-.669-5.5-.446-10.63-1.041-15.385-1.784-4.757-.595-8.846-1.264-12.265-2.007-3.271-.892-5.501-1.635-6.69-2.23-.446-.446-.743-.818-.892-1.115-.149-.297-.223-.743-.223-1.338V557.522h4.46c4.014 1.338 7.879 2.453 11.596 3.345a95.784 95.784 0 0 0 11.369 2.007c4.02.446 8.33.818 12.94 1.115 4.61.149 9.74.223 15.39.223Zm111.67-87.193c.6 0 1.05.149 1.34.446.3.149.52.372.67.669.3.297.45.743.45 1.338v75.374c0 2.081.52 3.791 1.56 5.129 1.04 1.189 2.6 1.784 4.68 1.784 1.93 0 3.79-.149 5.58-.446a34.76 34.76 0 0 0 5.57-1.784c1.79-.892 3.57-2.007 5.35-3.345 1.94-1.487 3.87-3.196 5.8-5.129v28.99h-9.14a62.618 62.618 0 0 1-8.7 10.927c-3.12 3.271-6.76 5.872-10.93 7.805-4.01 1.784-8.62 2.676-13.82 2.676-4.46 0-8.62-.818-12.49-2.453-3.72-1.487-6.99-3.717-9.81-6.69-2.68-3.122-4.76-6.913-6.25-11.373-1.33-4.609-2-9.886-2-15.833V477.019h42.14Zm68.24 0c.6 0 1.04.149 1.34.446.3.149.52.372.67.669.3.297.45.743.45 1.338V599H1171.78c-.45 0-.89-.074-1.34-.223-.3-.297-.59-.595-.89-.892-.15-.297-.22-.743-.22-1.338V477.019h42.14Zm33.59 119.528V518.943h-13.16c-.59 0-1.19-.223-1.78-.669-.45-.446-.67-1.041-.67-1.784V477.019H1287.21c.59 0 1.04.149 1.33.446.3.149.52.446.67.892.3.297.45.743.45 1.338V599H1247.51c-.59 0-1.19-.223-1.78-.669-.45-.595-.67-1.189-.67-1.784Zm-3.57-175.947h50.18c.74 0 1.33.223 1.78.669.45.446.67 1.041.67 1.784v36.126h-50.18c-.74 0-1.33-.223-1.78-.669-.45-.446-.67-1.041-.67-1.784V420.6Zm66.81 56.419h94.78c.74 0 1.34.223 1.78.669.45.446.67 1.041.67 1.784v39.248h-94.77c-.3 0-.6-.074-.9-.223-.29-.149-.59-.297-.89-.446-.15-.297-.3-.595-.44-.892a1.973 1.973 0 0 1-.23-.892v-39.248Zm97.23 80.057V596.547c0 .595-.22 1.189-.67 1.784-.44.446-1.04.669-1.78.669h-24.31c-8.62 0-16.28-1.041-22.97-3.122-6.54-2.23-12.11-5.426-16.72-9.589-4.46-4.163-7.81-9.44-10.04-15.833-2.23-6.541-3.34-14.123-3.34-22.746V442.9h42.14c.45 0 .82.149 1.12.446.45.149.74.446.89.892.3.297.45.669.45 1.115v99.012c0 2.379.22 4.386.67 6.021.59 1.635 1.48 2.973 2.67 4.014 1.04 1.041 2.38 1.784 4.02 2.23 1.78.297 3.86.446 6.24.446H1405.53Zm75.6-83.848c12.04 0 22.3 2.156 30.77 6.467 8.48 4.311 14.94 10.407 19.4 18.286 4.46 7.731 6.69 16.948 6.69 27.652v20.962c0 .446-.15.892-.44 1.338-.15.297-.37.52-.67.669-.3.149-.75.223-1.34.223h-77.6v-21.408h39.47v-3.345c0-2.825-.3-5.203-.89-7.136-.6-1.933-1.49-3.494-2.68-4.683-1.19-1.338-2.75-2.304-4.68-2.899-1.79-.595-3.94-.892-6.47-.892-4.76 0-8.47 1.338-11.15 4.014-2.53 2.527-3.79 6.244-3.79 11.15v26.983c0 2.527.22 4.832.67 6.913.59 1.933 1.56 3.568 2.9 4.906 1.63 1.635 4.01 2.899 7.13 3.791 3.27.743 7.96 1.041 14.05.892 4.76 0 9.14-.149 13.16-.446 4.16-.446 8.25-1.115 12.26-2.007 4.02-.892 8.11-1.933 12.27-3.122h4.46V593.425c0 .297-.08.595-.22.892-.15.297-.38.595-.67.892-1.34 1.338-4.24 2.602-8.7 3.791-4.46 1.189-9.89 2.081-16.28 2.676-6.24.743-12.79 1.115-19.62 1.115-10.86 0-20.37-1.189-28.55-3.568-8.03-2.23-14.79-5.575-20.29-10.035s-9.66-9.961-12.49-16.502c-2.67-6.541-4.01-14.049-4.01-22.523v-24.307c0-7.731 1.26-14.792 3.79-21.185 2.67-6.393 6.54-11.968 11.59-16.725 5.06-4.757 11.08-8.4 18.07-10.927 7.13-2.527 15.09-3.791 23.86-3.791Zm110.74 1.561c4.46 0 8.55.818 12.27 2.453 3.86 1.487 7.21 3.642 10.03 6.467 2.98 2.825 5.5 6.095 7.58 9.812h7.36v25.199a22.196 22.196 0 0 0-8.25-4.906c-3.12-1.041-6.17-1.561-9.14-1.561-2.68 0-4.83.446-6.47 1.338-1.63.743-2.9 1.933-3.79 3.568-.74 1.635-1.11 3.791-1.11 6.467v26.76c0 1.933.22 3.642.67 5.129.44 1.338 1.11 2.453 2 3.345.89.892 2.01 1.561 3.35 2.007 1.48.446 3.27.669 5.35.669 3.12 0 5.95-.223 8.47-.669 2.68-.595 4.98-1.487 6.92-2.676a26.136 26.136 0 0 0 5.57-4.237v26.314h-10.93c-2.52 4.163-5.35 7.805-8.47 10.927a35.287 35.287 0 0 1-10.7 7.359c-3.87 1.784-8.33 2.676-13.38 2.676-5.06 0-9.67-.892-13.83-2.676-4.16-1.784-7.66-4.311-10.48-7.582-2.83-3.419-5.06-7.508-6.69-12.265-1.49-4.757-2.23-10.109-2.23-16.056v-46.83c0-6.393.74-12.116 2.23-17.171 1.63-5.055 3.94-9.366 6.91-12.934 3.12-3.568 6.92-6.244 11.38-8.028 4.46-1.933 9.58-2.899 15.38-2.899Zm76.49-43.039c.6 0 1.04.149 1.34.446.3.149.52.372.67.669.3.297.44.743.44 1.338V599h-42.14c-.45 0-.89-.074-1.34-.223-.3-.297-.6-.595-.89-.892-.15-.297-.23-.743-.23-1.338V431.75h42.15Z" fill="#D2E3FC"/><path d="M1028.99 561.982c3.12 0 5.94-.074 8.47-.223 2.53-.149 4.83-.297 6.91-.446.6-2.081.67-3.791.23-5.129-.3-1.487-1.34-2.75-3.12-3.791-1.64-1.189-4.32-2.081-8.03-2.676l-16.28-2.899c-9.07-1.635-16.28-3.791-21.633-6.467-5.352-2.825-9.217-6.541-11.596-11.15-2.23-4.609-3.345-10.258-3.345-16.948 0-6.244 1.338-11.819 4.014-16.725 2.676-4.906 6.541-8.994 11.596-12.265 5.204-3.271 11.524-5.724 18.954-7.359 7.43-1.784 15.91-2.676 25.42-2.676 6.4 0 11.67.297 15.84.892 4.16.595 7.5 1.487 10.03 2.676 2.68 1.041 4.76 2.304 6.25 3.791 2.08 1.933 3.64 4.163 4.68 6.69 1.19 2.527 2.01 5.575 2.45 9.143.45 3.419.67 7.731.67 12.934 0 1.784-.15 3.717-.45 5.798a88.123 88.123 0 0 1-.66 6.244h-1.34c-2.68-1.338-5.8-2.527-9.37-3.568-3.42-1.189-7.58-2.156-12.49-2.899-4.75-.743-10.4-1.115-16.94-1.115-4.61 0-8.18.297-10.71.892-2.38.446-4.09 1.115-5.13 2.007-.89.743-1.34 1.71-1.34 2.899 0 1.041.38 1.933 1.12 2.676.89.743 2.3 1.412 4.24 2.007 2.08.446 5.05 1.041 8.92 1.784l15.38 2.453c8.18 1.338 14.65 3.568 19.4 6.69 4.91 2.973 8.48 6.839 10.71 11.596 2.38 4.757 3.57 10.332 3.57 16.725 0 7.879-1.71 14.792-5.13 20.739-3.42 5.947-9.15 10.555-17.17 13.826-8.03 3.122-19.11 4.683-33.23 4.683-7.58 0-14.05-.297-19.4-.892-5.35-.446-9.81-1.189-13.382-2.23-3.568-.892-6.467-1.933-8.697-3.122-2.23-1.338-4.088-2.676-5.575-4.014-2.23-2.379-4.014-5.426-5.352-9.143-1.189-3.865-1.784-8.92-1.784-15.164 0-3.419.149-6.393.446-8.92a45.804 45.804 0 0 1 1.561-7.582h1.338c3.865 1.933 7.433 3.568 10.704 4.906a121.908 121.908 0 0 0 10.481 3.122c3.57.743 7.66 1.338 12.27 1.784 4.75.297 10.25.446 16.5.446Zm88.93-86.97c7.73 0 13.9.892 18.51 2.676 4.76 1.784 8.18 4.832 10.26 9.143 2.23 4.311 3.34 10.258 3.34 17.84 0 3.865-.22 7.731-.67 11.596-.29 3.865-.81 7.954-1.56 12.265-.59 4.163-1.41 8.623-2.45 13.38a659.402 659.402 0 0 1-3.57 14.941c1.19.446 2.38.818 3.57 1.115 1.34.149 2.68.223 4.01.223 2.23 0 4.46-.52 6.69-1.561 2.23-1.189 4.39-3.196 6.47-6.021 2.08-2.973 4.09-6.913 6.02-11.819 1.93-5.055 3.64-11.447 5.13-19.178l-.45 49.283h-2.89c-3.13 6.69-6.84 12.488-11.15 17.394-4.32 4.906-9 8.771-14.05 11.596-4.91 2.676-10.04 4.014-15.39 4.014-3.27 0-6.62-1.189-10.04-3.568-3.27-2.527-6.24-5.798-8.92-9.812-2.67-4.014-4.83-8.4-6.46-13.157-1.64-4.757-2.46-9.44-2.46-14.049v-51.736c0-6.541-.29-12.414-.89-17.617-.44-5.203-1.26-10.481-2.45-15.833 3.12-.297 6.32-.52 9.59-.669a108.4 108.4 0 0 1 9.81-.446Zm69.13.669c6.99 0 12.49.818 16.5 2.453 4.17 1.635 7.06 4.088 8.7 7.359 1.78 3.271 2.68 7.359 2.68 12.265v72.921c0 3.568.14 7.062.44 10.481.3 3.419.67 6.616 1.12 9.589.44 2.973 1.04 5.724 1.78 8.251-1.78.297-3.72.595-5.8.892-1.93.446-3.94.669-6.02.669-1.93.149-3.94.223-6.02.223-5.8 0-10.93-1.115-15.39-3.345-4.31-2.23-7.73-6.095-10.25-11.596-2.38-5.649-3.57-13.306-3.57-22.969v-85.855c1.93-.297 3.79-.52 5.57-.669 1.94-.297 3.72-.446 5.35-.446a59.44 59.44 0 0 1 4.91-.223Zm59.68 97.228v-52.405h-1.34c-.3.297-.6.595-.89.892-.3.297-.67.52-1.12.669-.29.149-.67.297-1.11.446h-1.34c-2.83 0-5.28-2.453-7.36-7.359-1.93-4.906-2.9-11.522-2.9-19.847 0-4.163.15-7.731.45-10.704a70.51 70.51 0 0 1 1.78-8.474c1.04-.149 2.16-.297 3.35-.446 1.19-.149 2.38-.297 3.56-.446 1.19-.149 2.38-.223 3.57-.223 1.19-.149 2.38-.223 3.57-.223h3.12c10.71 0 19.03.818 24.98 2.453 5.95 1.487 10.03 3.642 12.26 6.467 2.38 2.825 3.57 6.17 3.57 10.035V562.651c0 4.757.08 9.217.22 13.38.3 4.014.75 7.954 1.34 11.819.6 3.717 1.41 7.433 2.46 11.15-3.42.595-6.62 1.041-9.59 1.338-2.83.446-6.17.669-10.04.669-10.41 0-17.76-2.23-22.08-6.69-4.31-4.46-6.46-11.596-6.46-21.408Zm-8.92-146.065c1.93-.446 3.94-.818 6.02-1.115 2.08-.446 4.16-.743 6.24-.892 2.23-.297 4.39-.52 6.47-.669 2.23-.149 4.31-.223 6.24-.223 8.77 0 16.06 1.264 21.86 3.791 5.94 2.379 8.92 6.839 8.92 13.38v16.948c-1.94.595-3.94 1.189-6.02 1.784-1.94.446-3.94.892-6.02 1.338-2.09.297-4.17.52-6.25.669-2.08.149-4.01.223-5.8.223-8.92 0-16.42-1.412-22.52-4.237-6.09-2.973-9.14-7.656-9.14-14.049v-16.948Zm68.82 50.175h85.63c6.24 0 10.48 1.858 12.71 5.575 2.38 3.568 3.57 10.184 3.57 19.847 0 1.784-.08 3.791-.22 6.021 0 2.081-.15 4.088-.45 6.021-.15 1.933-.45 3.568-.89 4.906h-61.33c-7.73 0-14.12-.52-19.18-1.561-5.05-1.189-9.06-3.122-12.04-5.798-2.97-2.825-5.05-6.69-6.24-11.596-1.19-4.906-1.79-11.076-1.79-18.509V478.58c0-.595.08-1.115.23-1.561Zm100.12 76.266c.6 2.676.97 5.055 1.12 7.136.3 2.081.45 4.237.45 6.467 0 6.69-.67 12.414-2.01 17.171-1.19 4.757-2.83 8.251-4.91 10.481-1.04 1.189-2.3 2.23-3.79 3.122-1.49.743-3.34 1.412-5.57 2.007-2.23.595-4.84 1.041-7.81 1.338-2.82.297-6.32.446-10.48.446-5.95 0-11.67-1.041-17.17-3.122-5.5-2.081-10.48-5.129-14.94-9.143-4.31-4.014-7.81-8.92-10.48-14.718-2.53-5.798-3.79-12.339-3.79-19.624v-87.639c0-4.014-.08-8.102-.23-12.265 0-4.163-.22-8.251-.67-12.265 2.83-.743 5.8-1.189 8.92-1.338 3.13-.297 6.17-.446 9.15-.446 7.43 0 13.08.595 16.95 1.784 4.01 1.189 6.76 3.271 8.25 6.244 1.48 2.825 2.23 6.764 2.23 11.819v88.531c0 1.784.07 3.419.22 4.906.15 1.487.37 2.973.67 4.46l2.23.446h2.67c3.72 0 7.07-.223 10.04-.669a79.275 79.275 0 0 0 8.92-1.784 62.161 62.161 0 0 0 8.7-3.345h1.33Zm82.74-79.388c9.81 0 18.51 2.156 26.09 6.467 7.73 4.163 13.82 10.035 18.28 17.617 4.46 7.582 6.69 16.428 6.69 26.537v.669c0 6.987-.44 12.116-1.33 15.387-.9 3.271-2.01 5.352-3.35 6.244-1.34.892-2.75 1.338-4.24 1.338h-42.81c-5.35 0-9.89-.669-13.6-2.007-3.57-1.338-6.47-2.973-8.7-4.906l-4.46 1.784.44-14.272h37.25c.29-.743.44-1.561.44-2.453.15-.892.22-1.858.22-2.899 0-2.23-.29-4.46-.89-6.69-.44-2.23-1.19-4.163-2.23-5.798a19.555 19.555 0 0 0-4.23-.892c-1.34-.149-2.98-.223-4.91-.223-6.99 0-12.49 2.453-16.5 7.359-4.02 4.906-6.02 12.191-6.02 21.854v6.467c0 3.271.14 6.393.44 9.366a50.985 50.985 0 0 0 2.01 8.474 52.785 52.785 0 0 0 9.59 2.23c3.42.446 7.21.669 11.37.669 6.1 0 11.6-.223 16.5-.669a89.977 89.977 0 0 0 14.28-2.899c4.75-1.338 9.51-3.196 14.27-5.575h1.34c.59 2.379 1.04 4.609 1.33 6.69.3 2.081.45 4.237.45 6.467 0 5.203-.82 9.663-2.45 13.38-1.64 3.717-4.02 6.913-7.14 9.589-2.38 2.081-5.43 3.791-9.14 5.129-3.57 1.338-7.81 2.304-12.71 2.899-4.91.743-10.63 1.115-17.17 1.115-10.26 0-19.48-1.412-27.66-4.237-8.02-2.973-14.86-7.062-20.51-12.265-5.65-5.203-9.96-11.522-12.94-18.955-2.97-7.433-4.46-15.684-4.46-24.753v-1.784c0-9.515 1.56-18.286 4.69-26.314 3.27-8.177 7.88-15.238 13.82-21.185 5.95-6.095 12.94-10.778 20.96-14.049 8.18-3.271 17.18-4.906 26.99-4.906Zm106.95.446c4.61 0 8.77.818 12.49 2.453a37.447 37.447 0 0 1 10.03 6.467 36.009 36.009 0 0 1 7.36 9.143h4.46v22.969c-1.78-1.487-3.86-2.527-6.24-3.122-2.38-.743-5.06-1.115-8.03-1.115-3.27 0-6.1.892-8.47 2.676-2.38 1.635-4.24 4.683-5.58 9.143-1.34 4.311-2.01 10.407-2.01 18.286v10.704c.15 2.379.38 4.609.67 6.69.9.297 1.71.52 2.46.669h2.45c3.27 0 6.32-.743 9.14-2.23 2.98-1.635 5.73-4.311 8.25-8.028 2.68-3.717 4.98-8.697 6.92-14.941v37.241h-3.79a44.95 44.95 0 0 1-7.36 15.164c-3.42 4.46-7.66 8.102-12.71 10.927-4.91 2.676-10.34 4.014-16.28 4.014-5.06 0-9.74-1.189-14.05-3.568-4.17-2.379-7.88-5.649-11.15-9.812-3.12-4.311-5.58-9.143-7.36-14.495-1.79-5.501-2.68-11.224-2.68-17.171v-2.899c0-15.015 1.04-27.578 3.12-37.687 2.09-10.109 4.98-18.212 8.7-24.307 3.87-6.095 8.33-10.481 13.38-13.157 5.06-2.676 10.48-4.014 16.28-4.014Zm43.71-44.6c6.69 0 12.41 1.189 17.17 3.568 4.91 2.379 8.62 6.467 11.15 12.265 2.53 5.649 3.79 13.529 3.79 23.638v105.033c0 4.46.22 8.623.67 12.488.45 3.865 1.26 7.954 2.45 12.265-1.19.149-2.45.297-3.79.446-1.19.297-2.38.52-3.57.669-1.19.297-2.38.446-3.56.446-1.19.149-2.46.223-3.8.223-7.43 0-13.6-1.412-18.5-4.237-4.91-2.825-8.55-6.839-10.93-12.042-2.38-5.203-3.57-11.299-3.57-18.286V454.496c0-4.014-.3-7.879-.89-11.596a41.121 41.121 0 0 0-2.9-11.15 28.75 28.75 0 0 1 3.79-.669c1.34-.149 2.68-.297 4.01-.446 1.49-.297 2.9-.52 4.24-.669 1.49-.149 2.9-.223 4.24-.223ZM301.555 564.212c5.352 0 8.92-.595 10.704-1.784 1.784-1.189 2.676-2.527 2.676-4.014 0-.892-.297-1.784-.892-2.676-.446-.892-1.487-1.635-3.122-2.23-1.487-.743-3.642-1.264-6.467-1.561l-16.279-2.23c-9.663-1.338-17.543-3.419-23.638-6.244-6.095-2.825-10.63-6.541-13.603-11.15-2.825-4.757-4.237-10.704-4.237-17.84 0-6.541 1.338-12.265 4.014-17.171 2.825-5.055 6.839-9.366 12.042-12.934 5.352-3.717 11.893-6.467 19.624-8.251 7.879-1.784 16.799-2.676 26.76-2.676 6.987 0 13.083.372 18.286 1.115 5.352.743 9.812 1.635 13.38 2.676 3.568.892 6.021 1.71 7.359 2.453.595.149.966.372 1.115.669.297.297.446.669.446 1.115.149.297.223.743.223 1.338v34.565h-4.46a155.357 155.357 0 0 0-13.157-3.345c-4.163-1.041-8.548-1.858-13.157-2.453-4.46-.595-9.44-.892-14.941-.892-4.014 0-7.285.223-9.812.669-2.527.446-4.386 1.115-5.575 2.007-1.189.892-1.784 2.007-1.784 3.345 0 1.189.372 2.23 1.115 3.122.743.892 2.007 1.561 3.791 2.007 1.784.446 4.163.892 7.136 1.338l15.833 2.007c8.771 1.041 16.13 3.122 22.077 6.244 5.947 3.122 10.407 7.21 13.38 12.265 3.122 4.906 4.683 10.63 4.683 17.171 0 9.217-2.156 16.948-6.467 23.192-4.163 6.095-10.481 10.778-18.955 14.049-8.474 3.122-19.104 4.683-31.889 4.683a204.11 204.11 0 0 1-16.502-.669c-5.501-.446-10.63-1.041-15.387-1.784-4.757-.595-8.846-1.264-12.265-2.007-3.271-.892-5.501-1.635-6.69-2.23-.446-.446-.743-.818-.892-1.115-.149-.297-.223-.743-.223-1.338V557.522h4.46c4.014 1.338 7.879 2.453 11.596 3.345a95.707 95.707 0 0 0 11.373 2.007c4.014.446 8.325.818 12.934 1.115 4.609.149 9.738.223 15.387.223Zm111.679-87.193c.595 0 1.041.149 1.338.446.298.149.521.372.669.669.298.297.446.743.446 1.338v75.374c0 2.081.521 3.791 1.561 5.129 1.041 1.189 2.602 1.784 4.683 1.784 1.933 0 3.791-.149 5.575-.446a34.85 34.85 0 0 0 5.575-1.784c1.784-.892 3.568-2.007 5.352-3.345 1.933-1.487 3.866-3.196 5.798-5.129v28.99h-9.143a62.417 62.417 0 0 1-8.697 10.927c-3.122 3.271-6.764 5.872-10.927 7.805-4.014 1.784-8.622 2.676-13.826 2.676-4.46 0-8.622-.818-12.488-2.453-3.716-1.487-6.987-3.717-9.812-6.69-2.676-3.122-4.757-6.913-6.244-11.373-1.338-4.609-2.007-9.886-2.007-15.833V477.019h42.147Zm68.238 0c.595 0 1.041.149 1.338.446.298.149.521.372.669.669.298.297.446.743.446 1.338V599h-42.147a4.2 4.2 0 0 1-1.338-.223l-.892-.892c-.148-.297-.223-.743-.223-1.338V477.019H481.472Zm33.586 119.528V518.943h-13.157c-.594 0-1.189-.223-1.784-.669-.446-.446-.669-1.041-.669-1.784V477.019h57.757c.595 0 1.041.149 1.338.446.298.149.521.446.669.892.298.297.446.743.446 1.338V599h-42.147c-.594 0-1.189-.223-1.784-.669-.446-.595-.669-1.189-.669-1.784ZM511.49 420.6h50.175c.744 0 1.338.223 1.784.669.446.446.669 1.041.669 1.784v36.126h-50.175c-.743 0-1.338-.223-1.784-.669-.446-.446-.669-1.041-.669-1.784V420.6Zm66.813 56.419h94.775c.744 0 1.338.223 1.784.669.446.446.669 1.041.669 1.784v39.248h-94.775c-.297 0-.594-.074-.892-.223l-.892-.446-.446-.892a1.988 1.988 0 0 1-.223-.892v-39.248Zm97.228 80.057V596.547c0 .595-.223 1.189-.669 1.784-.446.446-1.04.669-1.784.669H648.771c-8.622 0-16.279-1.041-22.969-3.122-6.541-2.23-12.116-5.426-16.725-9.589-4.46-4.163-7.805-9.44-10.035-15.833-2.23-6.541-3.345-14.123-3.345-22.746V442.9h42.147c.446 0 .818.149 1.115.446.446.149.744.446.892.892.298.297.446.669.446 1.115v99.012c0 2.379.223 4.386.669 6.021.595 1.635 1.487 2.973 2.676 4.014 1.041 1.041 2.379 1.784 4.014 2.23 1.784.297 3.866.446 6.244.446H675.531Zm75.597-83.848c12.042 0 22.3 2.156 30.774 6.467s14.941 10.407 19.401 18.286c4.46 7.731 6.69 16.948 6.69 27.652v20.962c0 .446-.148.892-.446 1.338-.148.297-.371.52-.669.669-.297.149-.743.223-1.338.223h-77.604v-21.408h39.471v-3.345c0-2.825-.297-5.203-.892-7.136-.594-1.933-1.486-3.494-2.676-4.683-1.189-1.338-2.75-2.304-4.683-2.899-1.784-.595-3.939-.892-6.467-.892-4.757 0-8.474 1.338-11.15 4.014-2.527 2.527-3.791 6.244-3.791 11.15v26.983c0 2.527.223 4.832.669 6.913.595 1.933 1.561 3.568 2.899 4.906 1.636 1.635 4.014 2.899 7.136 3.791 3.271.743 7.954 1.041 14.049.892 4.758 0 9.143-.149 13.157-.446a110.996 110.996 0 0 0 12.265-2.007 212.466 212.466 0 0 0 12.265-3.122h4.46V593.425c0 .297-.074.595-.223.892a3.463 3.463 0 0 1-.669.892c-1.338 1.338-4.237 2.602-8.697 3.791-4.46 1.189-9.886 2.081-16.279 2.676-6.244.743-12.785 1.115-19.624 1.115-10.852 0-20.367-1.189-28.544-3.568-8.028-2.23-14.792-5.575-20.293-10.035-5.5-4.46-9.663-9.961-12.488-16.502-2.676-6.541-4.014-14.049-4.014-22.523v-24.307c0-7.731 1.264-14.792 3.791-21.185 2.676-6.393 6.542-11.968 11.596-16.725 5.055-4.757 11.076-8.4 18.063-10.927 7.136-2.527 15.09-3.791 23.861-3.791Zm110.744 1.561c4.46 0 8.548.818 12.265 2.453 3.865 1.487 7.21 3.642 10.035 6.467 2.973 2.825 5.501 6.095 7.582 9.812h7.359v25.199a22.176 22.176 0 0 0-8.251-4.906c-3.122-1.041-6.17-1.561-9.143-1.561-2.676 0-4.832.446-6.467 1.338-1.635.743-2.899 1.933-3.791 3.568-.743 1.635-1.115 3.791-1.115 6.467v26.76c0 1.933.223 3.642.669 5.129.446 1.338 1.115 2.453 2.007 3.345.892.892 2.007 1.561 3.345 2.007 1.487.446 3.271.669 5.352.669 3.122 0 5.947-.223 8.474-.669 2.676-.595 4.98-1.487 6.913-2.676a26.268 26.268 0 0 0 5.575-4.237v26.314h-10.927c-2.527 4.163-5.352 7.805-8.474 10.927a35.28 35.28 0 0 1-10.704 7.359c-3.865 1.784-8.325 2.676-13.38 2.676-5.055 0-9.663-.892-13.826-2.676-4.163-1.784-7.656-4.311-10.481-7.582-2.825-3.419-5.055-7.508-6.69-12.265-1.487-4.757-2.23-10.109-2.23-16.056v-46.83c0-6.393.743-12.116 2.23-17.171 1.635-5.055 3.94-9.366 6.913-12.934 3.122-3.568 6.913-6.244 11.373-8.028 4.46-1.933 9.589-2.899 15.387-2.899Zm76.489-43.039c.595 0 1.041.149 1.338.446.297.149.52.372.669.669.297.297.446.743.446 1.338V599h-42.147a4.2 4.2 0 0 1-1.338-.223l-.892-.892c-.149-.297-.223-.743-.223-1.338V431.75H938.361Z" fill="#3C4043"/><rect x="1216" y="813" width="218" height="50" rx="25" fill="#D2E3FC"/><rect x="1215" y="813" width="186" height="50" rx="25" fill="#1A73E8"/><rect x="486" y="813" width="218" height="50" rx="25" fill="#D2E3FC"/><rect x="486" y="813" width="70" height="50" rx="25" fill="#1A73E8"/></svg>