<svg width="1920" height="1080" fill="none" xmlns="http://www.w3.org/2000/svg"><g clip-path="url(#a)" fill="#3C4043"><path d="M394.583 610.048v-15.684h156.841v15.684H394.583Zm31.369-31.368c-4.314 0-8.006-1.535-11.077-4.607-3.072-3.071-4.607-6.764-4.607-11.077v-54.894c0-4.313 1.535-8.005 4.607-11.077 3.071-3.071 6.763-4.607 11.077-4.607h23.526c0-6.535 2.287-12.09 6.861-16.664 4.575-4.575 10.13-6.862 16.665-6.862 6.535 0 12.09 2.287 16.664 6.862 4.575 4.574 6.862 10.129 6.862 16.664h23.526c4.313 0 8.005 1.536 11.077 4.607 3.071 3.072 4.607 6.764 4.607 11.077v54.894c0 4.313-1.536 8.006-4.607 11.077-3.072 3.072-6.764 4.607-11.077 4.607h-94.104Zm86.262-15.684h7.842v-54.894h-7.842v54.894Zm-50.973-70.578h23.526c0-3.398-1.111-6.208-3.333-8.43-2.222-2.222-5.032-3.333-8.43-3.333-3.398 0-6.208 1.111-8.43 3.333-2.222 2.222-3.333 5.032-3.333 8.43Zm-27.447 70.578v-54.894h-7.842v54.894h7.842Zm11.763-54.894v54.894h54.894v-54.894h-54.894Zm-11.763 54.894h11.763-11.763Zm78.42 0h-11.763 11.763Zm-78.42 0h-7.842 7.842Zm11.763 0h54.894-54.894Zm66.657 0h7.842-7.842ZM657.077 369.875v-67.863l-13.03 9.953-8.687-11.582 21.717-16.649v-22.44h14.477v11.401l43.433-33.118 79.627 60.806-8.687 11.401-13.03-9.772v67.863h-115.82Zm14.477-14.477h36.194v-28.955h14.478v28.955h36.194v-64.425l-43.433-33.118-43.433 33.118v64.425Zm-14.477-101.343c0-6.033 2.111-11.16 6.334-15.383 4.222-4.222 9.35-6.334 15.382-6.334 2.051 0 3.77-.693 5.158-2.081 1.387-1.387 2.081-3.106 2.081-5.157h14.478c0 6.032-2.112 11.159-6.334 15.382-4.223 4.223-9.351 6.334-15.383 6.334-2.051 0-3.77.694-5.158 2.081-1.387 1.388-2.081 3.107-2.081 5.158h-14.477Zm14.477 101.343H758.42h-86.866ZM450.415 233.496v-15.057h45.17v15.057h-45.17Zm15.057 82.812h15.057v-45.17h-15.057v45.17ZM473 376.535c-9.285 0-18.036-1.788-26.255-5.364-8.218-3.576-15.402-8.438-21.55-14.586-6.148-6.149-11.01-13.332-14.586-21.55-3.576-8.219-5.364-16.97-5.364-26.255s1.788-18.037 5.364-26.256c3.576-8.218 8.438-15.401 14.586-21.549 6.148-6.149 13.332-11.011 21.55-14.587 8.219-3.576 16.97-5.364 26.255-5.364 7.78 0 15.245 1.255 22.397 3.765 7.152 2.509 13.865 6.148 20.138 10.916l10.54-10.54 10.54 10.54-10.54 10.539c4.768 6.274 8.407 12.987 10.916 20.139 2.51 7.152 3.764 14.617 3.764 22.397 0 9.285-1.788 18.036-5.364 26.255-3.576 8.218-8.438 15.401-14.586 21.55-6.148 6.148-13.331 11.01-21.55 14.586-8.218 3.576-16.97 5.364-26.255 5.364Zm0-15.057c14.555 0 26.977-5.144 37.266-15.433 10.288-10.289 15.433-22.711 15.433-37.265 0-14.555-5.145-26.977-15.433-37.266-10.289-10.288-22.711-15.433-37.266-15.433s-26.976 5.145-37.265 15.433c-10.289 10.289-15.433 22.711-15.433 37.266 0 14.554 5.144 26.976 15.433 37.265 10.289 10.289 22.71 15.433 37.265 15.433ZM675.778 610.048c-4.314 0-8.006-1.535-11.077-4.607-3.072-3.071-4.608-6.764-4.608-11.077V492.418h-7.842v-15.684h39.211v-7.842h47.052v7.842h39.21v15.684h-7.842v101.946c0 4.313-1.536 8.006-4.607 11.077-3.072 3.072-6.764 4.607-11.077 4.607h-78.42Zm0-15.684h78.42V492.418h-78.42v101.946Zm15.684-15.684h15.684v-70.578h-15.684v70.578Zm31.368 0h15.684v-70.578H722.83v70.578Zm-47.052-86.262v101.946-101.946Z"/></g><g clip-path="url(#b)" fill="#3C4043"><path d="M1388.08 369.875v-67.863l-13.03 9.953-8.69-11.582 21.72-16.649v-22.44h14.47v11.401l43.44-33.118 79.62 60.806-8.68 11.401-13.03-9.772v67.863h-115.82Zm14.47-14.477h36.2v-28.955h14.48v28.955h36.19v-64.425l-43.43-33.118-43.44 33.118v64.425Zm-14.47-101.343c0-6.033 2.11-11.16 6.33-15.383 4.22-4.222 9.35-6.334 15.38-6.334 2.05 0 3.77-.693 5.16-2.081 1.39-1.387 2.08-3.106 2.08-5.157h14.48c0 6.032-2.11 11.159-6.33 15.382-4.23 4.223-9.35 6.334-15.39 6.334-2.05 0-3.77.694-5.15 2.081-1.39 1.388-2.09 3.107-2.09 5.158h-14.47Zm14.47 101.343h36.2v14.477h14.48v-14.477h36.19v-64.425l-43.43-33.118-43.44 33.118v64.425ZM1125.58 610.048v-15.684h156.84v15.684h-156.84Zm31.37-31.368c-4.31 0-8-1.535-11.08-4.607-3.07-3.071-4.6-6.764-4.6-11.077v-54.894c0-4.313 1.53-8.005 4.6-11.077 3.08-3.071 6.77-4.607 11.08-4.607h23.53c0-6.535 2.28-12.09 6.86-16.664 4.57-4.575 10.13-6.862 16.66-6.862 6.54 0 12.09 2.287 16.67 6.862 4.57 4.574 6.86 10.129 6.86 16.664h23.53c4.31 0 8 1.536 11.07 4.607 3.07 3.072 4.61 6.764 4.61 11.077v54.894c0 4.313-1.54 8.006-4.61 11.077-3.07 3.072-6.76 4.607-11.07 4.607h-94.11Zm86.26-15.684h7.85v-54.894h-7.85v54.894Zm-50.97-70.578h23.53c0-3.398-1.11-6.208-3.34-8.43-2.22-2.222-5.03-3.333-8.43-3.333-3.39 0-6.2 1.111-8.43 3.333-2.22 2.222-3.33 5.032-3.33 8.43Zm-27.45 70.578v-54.894h-7.84v54.894h7.84Zm11.77-54.894v54.894h54.89v-54.894h-54.89Zm-11.77 70.578h11.77v-86.262h-11.77v86.262Zm78.42 0v-86.262h-11.76v86.262h11.76Zm-78.42-15.684h-7.84v-54.894h7.84v54.894Zm11.77-54.894h54.89v54.894h-54.89v-54.894Zm66.65 54.894v-54.894h7.85v54.894h-7.85ZM1406.78 610.048c-4.32 0-8.01-1.535-11.08-4.607-3.07-3.071-4.61-6.764-4.61-11.077V492.418h-7.84v-15.684h39.21v-7.842h47.05v7.842h39.21v15.684h-7.84v101.946c0 4.313-1.54 8.006-4.61 11.077-3.07 3.072-6.76 4.607-11.07 4.607h-78.42Zm0-15.684h78.42V492.418h-78.42v101.946Zm15.68-15.684h15.68v-70.578h-15.68v70.578Zm31.37 0h15.68v-70.578h-15.68v70.578Zm-47.05-86.262h78.42v101.946h-78.42V492.418ZM1181.42 233.496v-15.057h45.17v15.057h-45.17Zm15.06 82.812h15.05v-45.17h-15.05v45.17Zm7.52 60.227c-9.28 0-18.03-1.788-26.25-5.364-8.22-3.576-15.4-8.438-21.55-14.586-6.15-6.149-11.01-13.332-14.59-21.55-3.57-8.219-5.36-16.97-5.36-26.255s1.79-18.037 5.36-26.256c3.58-8.218 8.44-15.401 14.59-21.549 6.15-6.149 13.33-11.011 21.55-14.587 8.22-3.576 16.97-5.364 26.25-5.364 7.78 0 15.25 1.255 22.4 3.765 7.15 2.509 13.87 6.148 20.14 10.916l10.54-10.54 10.54 10.54-10.54 10.539c4.77 6.274 8.41 12.987 10.91 20.139 2.51 7.152 3.77 14.617 3.77 22.397 0 9.285-1.79 18.036-5.37 26.255-3.57 8.218-8.43 15.401-14.58 21.55-6.15 6.148-13.33 11.01-21.55 14.586-8.22 3.576-16.97 5.364-26.26 5.364Zm0-15.057c14.56 0 26.98-5.144 37.27-15.433 10.29-10.289 15.43-22.711 15.43-37.265 0-14.555-5.14-26.977-15.43-37.266-10.29-10.288-22.71-15.433-37.27-15.433-14.55 0-26.97 5.145-37.26 15.433-10.29 10.289-15.43 22.711-15.43 37.266 0 14.554 5.14 26.976 15.43 37.265 10.29 10.289 22.71 15.433 37.26 15.433Zm0 0c-14.55 0-26.97-5.144-37.26-15.433s-15.43-22.711-15.43-37.265c0-14.555 5.14-26.977 15.43-37.266 10.29-10.288 22.71-15.433 37.26-15.433 14.56 0 26.98 5.145 37.27 15.433 10.29 10.289 15.43 22.711 15.43 37.266 0 14.554-5.14 26.976-15.43 37.265-10.29 10.289-22.71 15.433-37.27 15.433Z"/></g><rect x="1216" y="813" width="218" height="50" rx="25" fill="#D2E3FC"/><path d="M1325 813h84c13.81 0 25 11.193 25 25s-11.19 25-25 25h-84v-50Z" fill="#1A73E8"/><rect x="486" y="813" width="218" height="50" rx="25" fill="#D2E3FC"/><path d="M486 838c0-13.807 11.193-25 25-25h84v50h-84c-13.807 0-25-11.193-25-25Z" fill="#1A73E8"/><defs><clipPath id="a"><path fill="#fff" transform="translate(147 116)" d="M0 0h893.991v604.957H0z"/></clipPath><clipPath id="b"><path fill="#fff" transform="translate(878 116)" d="M0 0h893.991v604.957H0z"/></clipPath></defs></svg>