<svg width="1920" height="1080" fill="none" xmlns="http://www.w3.org/2000/svg"><path d="M48.884 409 81.37 308.878h5.994L119.776 409h-3.774l-10.212-31.672H62.87L52.584 409h-3.7Zm14.8-34.484h41.366L84.552 311.32h-.37l-20.498 63.196ZM133.152 409v-87.69h3.33l.148 18.648V409h-3.478Zm48.988 0v-54.834c0-10.459-1.85-18.229-5.55-23.31-3.7-5.131-9.127-7.696-16.28-7.696-6.858 0-12.531 2.417-17.02 7.252-4.49 4.785-6.734 10.533-6.734 17.242l-1.554-3.478c0-6.216 2.417-11.741 7.252-16.576 4.834-4.884 11.149-7.326 18.944-7.326 8.337 0 14.479 2.911 18.426 8.732 3.996 5.772 5.994 14.233 5.994 25.382V409h-3.478Zm38.121 0-24.716-87.69h3.7l24.198 85.692h-1.036l24.05-85.692h3.7L225.589 409h-5.328Zm-24.494 33.818v-2.812c5.92 0 10.977-2.146 15.17-6.438s7.967-12.531 11.322-24.716l3.33.148c-3.552 13.172-7.721 22.101-12.506 26.788-4.736 4.687-10.508 7.03-17.316 7.03ZM262.796 409V292.82h3.478v101.676L266.052 409h-3.256Zm29.674.592c-7.992 0-14.578-2.294-19.758-6.882-5.18-4.637-7.77-9.077-7.77-13.32l1.258-4.44c0 5.18 2.491 10.113 7.474 14.8 4.983 4.637 11.001 6.956 18.056 6.956 7.252 0 12.999-3.083 17.242-9.25 4.292-6.167 6.438-16.995 6.438-32.486 0-15.491-2.146-26.319-6.438-32.486-4.243-6.216-9.99-9.324-17.242-9.324-7.055 0-13.073 2.343-18.056 7.03-4.983 4.687-7.474 9.62-7.474 14.8l-1.258-4.44c0-4.243 2.59-8.658 7.77-13.246 5.18-4.637 11.766-6.956 19.758-6.956 8.485 0 15.022 3.404 19.61 10.212 4.588 6.808 6.882 18.278 6.882 34.41 0 16.083-2.294 27.553-6.882 34.41-4.588 6.808-11.125 10.212-19.61 10.212Zm69.595 0c-9.62 0-16.971-3.404-22.052-10.212-5.032-6.808-7.548-18.253-7.548-34.336s2.516-27.528 7.548-34.336c5.081-6.857 12.432-10.286 22.052-10.286s16.946 3.429 21.978 10.286c5.081 6.808 7.622 18.253 7.622 34.336s-2.541 27.528-7.622 34.336c-5.032 6.808-12.358 10.212-21.978 10.212Zm0-2.812c8.09 0 14.454-3.108 19.092-9.324 4.637-6.216 6.956-17.02 6.956-32.412s-2.319-26.196-6.956-32.412c-4.638-6.265-11.002-9.398-19.092-9.398-8.091 0-14.455 3.133-19.092 9.398-4.638 6.216-6.956 17.02-6.956 32.412s2.318 26.196 6.956 32.412c4.637 6.216 11.001 9.324 19.092 9.324Zm96.009 2.22-.222-15.17V292.82h3.478V409h-3.256Zm-26.122.592c-8.436 0-15.022-3.355-19.758-10.064-4.687-6.759-7.03-18.278-7.03-34.558 0-16.329 2.343-27.849 7.03-34.558 4.736-6.709 11.322-10.064 19.758-10.064 7.992 0 14.529 2.319 19.61 6.956 5.081 4.588 7.622 9.003 7.622 13.246l-1.332 4.44c0-5.18-2.442-10.113-7.326-14.8-4.835-4.687-10.779-7.03-17.834-7.03-7.203 0-12.999 3.059-17.39 9.176-4.391 6.068-6.586 16.946-6.586 32.634 0 15.688 2.195 26.566 6.586 32.634 4.391 6.068 10.187 9.102 17.39 9.102 7.055 0 12.999-2.343 17.834-7.03 4.884-4.687 7.326-9.595 7.326-14.726l1.332 4.44c0 4.243-2.541 8.683-7.622 13.32-5.081 4.588-11.618 6.882-19.61 6.882Zm64.797-.592-24.716-87.69h3.7l24.198 85.692h-1.036l24.05-85.692h3.7L502.077 409h-5.328Zm-24.494 33.818v-2.812c5.92 0 10.977-2.146 15.17-6.438 4.194-4.292 7.968-12.531 11.322-24.716l3.33.148c-3.552 13.172-7.72 22.101-12.506 26.788-4.736 4.687-10.508 7.03-17.316 7.03ZM572.816 409V292.82h3.478V409h-3.478Zm48.988 0v-54.834c0-10.459-1.85-18.229-5.55-23.31-3.7-5.131-9.102-7.696-16.206-7.696-6.858 0-12.531 2.417-17.02 7.252-4.49 4.785-6.734 10.533-6.734 17.242l-1.554-3.478c0-6.216 2.417-11.741 7.252-16.576 4.834-4.884 11.124-7.326 18.87-7.326 8.386 0 14.553 2.911 18.5 8.732 3.946 5.772 5.92 14.233 5.92 25.382V409h-3.478Zm70.263 0-.37-10.508v-44.918c0-9.768-1.875-17.242-5.624-22.422-3.7-5.229-9.719-7.844-18.056-7.844l-.074-2.812c9.916 0 16.921 2.96 21.016 8.88 4.144 5.92 6.216 14.085 6.216 24.494V409h-3.108Zm-26.566.666c-8.831 0-15.269-2.442-19.314-7.326-4.046-4.933-6.068-11.371-6.068-19.314s2.072-13.961 6.216-18.056c4.144-4.144 11.544-6.216 22.2-6.216h23.828v2.664h-23.532c-9.078 0-15.54 1.751-19.388 5.254-3.848 3.503-5.772 8.954-5.772 16.354 0 6.907 1.8 12.629 5.402 17.168 3.601 4.489 9.299 6.734 17.094 6.734 7.35 0 13.443-1.406 18.278-4.218 4.834-2.812 7.252-5.599 7.252-8.362l1.184 2.146c0 2.861-2.516 5.772-7.548 8.732-4.983 2.96-11.594 4.44-19.832 4.44Zm-24.79-60.976c.098-4.588.814-8.633 2.146-12.136 1.332-3.552 3.182-6.512 5.55-8.88 2.417-2.368 5.278-4.144 8.584-5.328 3.305-1.233 6.956-1.85 10.952-1.85l.296 1.406-.222 1.406c-3.454 0-6.636.617-9.546 1.85a21.226 21.226 0 0 0-7.474 5.18c-2.122 2.22-3.774 4.933-4.958 8.14-1.184 3.157-1.801 6.734-1.85 10.73l-3.478-.518Zm97.322 60.902c-8.88 0-15.663-2.072-20.35-6.216-4.637-4.193-7.03-12.037-7.178-23.532l3.404-.592c.05 10.409 2.171 17.612 6.364 21.608 4.243 3.996 10.163 5.994 17.76 5.994 8.634 0 14.702-1.529 18.204-4.588 3.503-3.108 5.254-7.622 5.254-13.542 0-7.055-1.948-12.037-5.846-14.948-3.897-2.96-10.088-5.525-18.574-7.696-8.781-2.368-15.318-4.958-19.61-7.77-4.242-2.861-6.364-8.091-6.364-15.688 0-6.413 2.196-11.692 6.586-15.836 4.44-4.193 11.224-6.29 20.35-6.29 9.176 0 15.886 2.195 20.128 6.586 4.243 4.391 6.438 11.643 6.586 21.756l-3.33.592c-.098-9.077-2.022-15.688-5.772-19.832-3.749-4.193-9.644-6.29-17.686-6.29-7.992 0-13.887 1.875-17.686 5.624-3.749 3.7-5.624 8.313-5.624 13.838 0 6.512 1.998 11.026 5.994 13.542 3.996 2.467 10.04 4.761 18.13 6.882 9.374 2.565 16.108 5.501 20.202 8.806 4.095 3.305 6.142 8.929 6.142 16.872 0 6.956-2.096 12.161-6.29 15.614-4.144 3.404-11.075 5.106-20.794 5.106ZM865.07 409l-.37-10.508v-44.918c0-9.768-1.874-17.242-5.624-22.422-3.7-5.229-9.718-7.844-18.056-7.844l-.074-2.812c9.916 0 16.922 2.96 21.016 8.88 4.144 5.92 6.216 14.085 6.216 24.494V409h-3.108Zm-26.566.666c-8.83 0-15.268-2.442-19.314-7.326-4.045-4.933-6.068-11.371-6.068-19.314s2.072-13.961 6.216-18.056c4.144-4.144 11.544-6.216 22.2-6.216h23.828v2.664h-23.532c-9.077 0-15.54 1.751-19.388 5.254-3.848 3.503-5.772 8.954-5.772 16.354 0 6.907 1.801 12.629 5.402 17.168 3.602 4.489 9.3 6.734 17.094 6.734 7.351 0 13.444-1.406 18.278-4.218 4.835-2.812 7.252-5.599 7.252-8.362l1.184 2.146c0 2.861-2.516 5.772-7.548 8.732-4.982 2.96-11.593 4.44-19.832 4.44Zm-24.79-60.976c.099-4.588.814-8.633 2.146-12.136 1.332-3.552 3.182-6.512 5.55-8.88 2.418-2.368 5.279-4.144 8.584-5.328 3.306-1.233 6.956-1.85 10.952-1.85l.296 1.406-.222 1.406c-3.453 0-6.635.617-9.546 1.85a21.244 21.244 0 0 0-7.474 5.18c-2.121 2.22-3.774 4.933-4.958 8.14-1.184 3.157-1.8 6.734-1.85 10.73l-3.478-.518ZM931.544 409l-16.724-87.838h24.198l10.064 73.778h-.814l15.688-73.778h18.648L965.288 409h-33.744Zm57.054 0-17.39-87.838h18.648l15.684 73.63h-.81l9.92-73.63h24.12L1022.05 409h-33.452Zm99.062.814c-16.08 0-27.16-3.922-33.23-11.766-6.01-7.893-9.02-18.796-9.02-32.708 0-14.356 3.03-25.431 9.1-33.226 6.12-7.844 17.04-11.766 32.78-11.766 16.13 0 27.11 3.971 32.93 11.914 5.82 7.893 8.73 18.796 8.73 32.708 0 2.812-.12 5.254-.37 7.326h-62.53v-14.578h40.48l-.96 2.146c0-8.929-1.61-15.195-4.81-18.796-3.21-3.601-7.7-5.402-13.47-5.402-5.72 0-10.34 1.949-13.84 5.846-3.5 3.848-5.25 11.692-5.25 23.532 0 11.544 1.75 19.314 5.25 23.31 3.5 3.996 8.27 5.994 14.28 5.994l-.07 15.466Zm.07-15.466c2.17 0 4.25-.296 6.22-.888a17.288 17.288 0 0 0 5.33-2.812c1.58-1.283 2.88-2.886 3.92-4.81 1.09-1.973 1.8-4.267 2.15-6.882l21.23 6.512c-.49 3.503-1.53 6.611-3.1 9.324a24.108 24.108 0 0 1-5.92 6.882c-2.37 1.875-5.11 3.429-8.22 4.662-3.11 1.233-6.49 2.121-10.14 2.664-3.65.543-7.49.814-11.54.814l-1.41-6.364 1.48-9.102ZM1142.48 409v-87.838h23.68V409h-23.68Zm0-113.886h23.68v16.946h-23.68v-16.946Zm77.38 148.37c-8.83 0-16.13-1.061-21.9-3.182-5.73-2.072-9.99-5.303-12.8-9.694-2.77-4.391-4.15-10.015-4.15-16.872h23.24c0 3.305.66 6.019 2 8.14 1.33 2.171 3.18 3.749 5.55 4.736 2.36 1.036 5.08 1.554 8.14 1.554 2.26 0 4.46-.37 6.58-1.11 2.12-.691 4.02-1.899 5.7-3.626 1.68-1.727 3.01-4.095 4-7.104.98-2.96 1.48-6.66 1.48-11.1v-67.118l1.25-16.946h22.35v83.546c0 7.301-.94 13.443-2.81 18.426-1.83 4.983-4.54 8.954-8.14 11.914-3.55 3.009-7.89 5.155-13.02 6.438-5.09 1.332-10.91 1.998-17.47 1.998Zm-8.43-33.966c-11.5 0-19.71-3.947-24.65-11.84-4.93-7.943-7.4-18.87-7.4-32.782 0-13.912 2.47-24.79 7.4-32.634 4.94-7.844 13.15-11.766 24.65-11.766 9.91 0 18.52 2.368 25.82 7.104 7.3 4.736 10.95 10.089 10.95 16.058l-10.5 10.286c0-4.884-1.78-8.979-5.33-12.284-3.55-3.305-7.77-4.958-12.66-4.958-5.28 0-9.35 1.875-12.21 5.624-2.86 3.7-4.29 11.248-4.29 22.644 0 11.495 1.43 19.117 4.29 22.866 2.86 3.7 6.93 5.55 12.21 5.55 4.89 0 9.11-1.653 12.66-4.958 3.55-3.305 5.33-7.425 5.33-12.358l10.5 10.36c0 6.019-3.65 11.371-10.95 16.058-7.3 4.687-15.91 7.03-25.82 7.03Zm64.12-.518V292.82h23.6V409h-23.6Zm54.54 0v-47.138c0-9.867-1.16-16.527-3.48-19.98-2.27-3.453-5.77-5.18-10.51-5.18-4.88 0-9 2.047-12.36 6.142-3.35 4.095-5.03 9.423-5.03 15.984l-11.4-5.18c0-7.696 3.48-15.145 10.44-22.348 6.95-7.252 16.08-10.878 27.38-10.878 10.85 0 18.3 3.7 22.35 11.1 4.09 7.351 6.14 17.119 6.14 29.304V409h-23.53Zm76.48 1.11c-7.94 0-14.25-1.579-18.94-4.736-4.69-3.207-7.03-9.003-7.03-17.39v-50.468h-18.87v-16.354h18.87V301.33h23.53v19.832h25.53v16.354h-25.53v45.288c0 4.687.84 7.77 2.52 9.25 1.67 1.431 4.24 2.121 7.69 2.072 3.16 0 6.79-.345 10.88-1.036v15.688c-7.05.888-13.27 1.332-18.65 1.332Zm119.44-1.11-.37-10.508v-44.918c0-9.768-1.87-17.242-5.62-22.422-3.7-5.229-9.72-7.844-18.06-7.844l-.07-2.812c9.91 0 16.92 2.96 21.01 8.88 4.15 5.92 6.22 14.085 6.22 24.494V409h-3.11Zm-26.56.666c-8.83 0-15.27-2.442-19.32-7.326-4.04-4.933-6.07-11.371-6.07-19.314s2.08-13.961 6.22-18.056c4.14-4.144 11.54-6.216 22.2-6.216h23.83v2.664h-23.53c-9.08 0-15.54 1.751-19.39 5.254-3.85 3.503-5.77 8.954-5.77 16.354 0 6.907 1.8 12.629 5.4 17.168 3.6 4.489 9.3 6.734 17.09 6.734 7.35 0 13.45-1.406 18.28-4.218 4.83-2.812 7.25-5.599 7.25-8.362l1.19 2.146c0 2.861-2.52 5.772-7.55 8.732-4.98 2.96-11.6 4.44-19.83 4.44Zm-24.79-60.976c.09-4.588.81-8.633 2.14-12.136 1.33-3.552 3.18-6.512 5.55-8.88 2.42-2.368 5.28-4.144 8.59-5.328 3.3-1.233 6.95-1.85 10.95-1.85l.29 1.406-.22 1.406c-3.45 0-6.63.617-9.54 1.85a21.168 21.168 0 0 0-7.48 5.18c-2.12 2.22-3.77 4.933-4.96 8.14-1.18 3.157-1.8 6.734-1.85 10.73l-3.47-.518Zm66.02 60.31 27.6-43.882-26.49-43.808h4.14l25.16 42.106 25.16-42.106h4.14l-26.56 43.808L1601.36 409h-4.15l-26.19-42.106-26.2 42.106h-4.14Zm75.56 0v-87.838h3.48V409h-3.48Zm0-108.78h3.48v8.362h-3.48v-8.362Zm49.83 109.372c-8.88 0-15.66-2.072-20.35-6.216-4.64-4.193-7.03-12.037-7.18-23.532l3.4-.592c.05 10.409 2.18 17.612 6.37 21.608 4.24 3.996 10.16 5.994 17.76 5.994 8.63 0 14.7-1.529 18.2-4.588 3.51-3.108 5.26-7.622 5.26-13.542 0-7.055-1.95-12.037-5.85-14.948-3.9-2.96-10.09-5.525-18.57-7.696-8.78-2.368-15.32-4.958-19.61-7.77-4.25-2.861-6.37-8.091-6.37-15.688 0-6.413 2.2-11.692 6.59-15.836 4.44-4.193 11.22-6.29 20.35-6.29 9.17 0 15.88 2.195 20.13 6.586 4.24 4.391 6.43 11.643 6.58 21.756l-3.33.592c-.1-9.077-2.02-15.688-5.77-19.832-3.75-4.193-9.64-6.29-17.69-6.29-7.99 0-13.88 1.875-17.68 5.624-3.75 3.7-5.63 8.313-5.63 13.838 0 6.512 2 11.026 6 13.542 3.99 2.467 10.04 4.761 18.13 6.882 9.37 2.565 16.11 5.501 20.2 8.806 4.1 3.305 6.14 8.929 6.14 16.872 0 6.956-2.09 12.161-6.29 15.614-4.14 3.404-11.07 5.106-20.79 5.106ZM102.09 587l-.37-10.508v-44.918c0-9.768-1.875-17.242-5.624-22.422-3.7-5.229-9.719-7.844-18.056-7.844l-.074-2.812c9.916 0 16.921 2.96 21.016 8.88 4.144 5.92 6.216 14.085 6.216 24.494V587h-3.108Zm-26.566.666c-8.83 0-15.269-2.442-19.314-7.326-4.045-4.933-6.068-11.371-6.068-19.314s2.072-13.961 6.216-18.056c4.144-4.144 11.544-6.216 22.2-6.216h23.828v2.664H78.854c-9.077 0-15.54 1.751-19.388 5.254-3.848 3.503-5.772 8.954-5.772 16.354 0 6.907 1.8 12.629 5.402 17.168 3.601 4.489 9.3 6.734 17.094 6.734 7.35 0 13.443-1.406 18.278-4.218 4.835-2.812 7.252-5.599 7.252-8.362l1.184 2.146c0 2.861-2.516 5.772-7.548 8.732-4.983 2.96-11.593 4.44-19.832 4.44Zm-24.79-60.976c.099-4.588.814-8.633 2.146-12.136 1.332-3.552 3.182-6.512 5.55-8.88 2.417-2.368 5.279-4.144 8.584-5.328 3.305-1.233 6.956-1.85 10.952-1.85l.296 1.406-.222 1.406c-3.453 0-6.635.617-9.546 1.85a21.235 21.235 0 0 0-7.474 5.18c-2.121 2.22-3.774 4.933-4.958 8.14-1.184 3.157-1.8 6.734-1.85 10.73l-3.478-.518ZM122.601 587v-87.69h3.33l.148 18.648V587h-3.478Zm48.988 0v-54.834c0-10.459-1.85-18.229-5.55-23.31-3.7-5.131-9.127-7.696-16.28-7.696-6.858 0-12.531 2.417-17.02 7.252-4.49 4.785-6.734 10.533-6.734 17.242l-1.554-3.478c0-6.216 2.417-11.741 7.252-16.576 4.834-4.884 11.149-7.326 18.944-7.326 8.337 0 14.479 2.911 18.426 8.732 3.996 5.772 5.994 14.233 5.994 25.382V587h-3.478ZM242 587l-.222-15.17V470.82h3.478V587H242Zm-26.122.592c-8.436 0-15.022-3.355-19.758-10.064-4.687-6.759-7.03-18.278-7.03-34.558 0-16.329 2.343-27.849 7.03-34.558 4.736-6.709 11.322-10.064 19.758-10.064 7.992 0 14.528 2.319 19.61 6.956 5.081 4.588 7.622 9.003 7.622 13.246l-1.332 4.44c0-5.18-2.442-10.113-7.326-14.8-4.835-4.687-10.78-7.03-17.834-7.03-7.203 0-13 3.059-17.39 9.176-4.391 6.068-6.586 16.946-6.586 32.634 0 15.688 2.195 26.566 6.586 32.634 4.39 6.068 10.187 9.102 17.39 9.102 7.054 0 12.999-2.343 17.834-7.03 4.884-4.687 7.326-9.595 7.326-14.726l1.332 4.44c0 4.243-2.541 8.683-7.622 13.32-5.082 4.588-11.618 6.882-19.61 6.882Zm41.167 11.174 8.658-16.28h4.958l-10.656 16.28h-2.96Zm91.289-11.174c-9.62 0-16.97-3.404-22.052-10.212-5.032-6.808-7.548-18.253-7.548-34.336s2.516-27.528 7.548-34.336c5.082-6.857 12.432-10.286 22.052-10.286s16.946 3.429 21.978 10.286c5.082 6.808 7.622 18.253 7.622 34.336s-2.54 27.528-7.622 34.336c-5.032 6.808-12.358 10.212-21.978 10.212Zm0-2.812c8.091 0 14.455-3.108 19.092-9.324 4.638-6.216 6.956-17.02 6.956-32.412s-2.318-26.196-6.956-32.412c-4.637-6.265-11.001-9.398-19.092-9.398-8.09 0-14.454 3.133-19.092 9.398-4.637 6.216-6.956 17.02-6.956 32.412s2.319 26.196 6.956 32.412c4.638 6.216 11.002 9.324 19.092 9.324ZM403.83 587v-84.878h-16.798v-2.812h16.798v-8.88c0-6.709 2.565-11.717 7.696-15.022 5.13-3.355 13.024-5.032 23.68-5.032h3.182v2.812h-3.33c-9.571 0-16.601 1.381-21.09 4.144-4.49 2.713-6.734 7.129-6.734 13.246v8.732h24.864v2.812h-24.864V587h-3.404Zm105.925.666c-9.669 0-17.02-3.823-22.052-11.47s-7.548-18.673-7.548-33.078c0-15.787 2.516-27.158 7.548-34.114 5.032-7.005 12.383-10.508 22.052-10.508 9.275 0 16.058 3.182 20.35 9.546 4.341 6.315 6.561 13.813 6.66 22.496l-3.33.592c-.049-8.239-2.072-15.244-6.068-21.016-3.947-5.821-9.817-8.732-17.612-8.732-8.14 0-14.529 3.207-19.166 9.62-4.588 6.413-6.882 17.119-6.882 32.116 0 13.616 2.319 23.976 6.956 31.08 4.687 7.055 11.051 10.582 19.092 10.582 7.795 0 13.665-3.231 17.612-9.694 3.996-6.463 6.019-13.098 6.068-19.906l3.33.592c-.099 7.252-2.319 14.381-6.66 21.386-4.292 7.005-11.075 10.508-20.35 10.508Zm71.13-.074c-9.62 0-16.971-3.404-22.052-10.212-5.032-6.808-7.548-18.253-7.548-34.336s2.516-27.528 7.548-34.336c5.081-6.857 12.432-10.286 22.052-10.286s16.946 3.429 21.978 10.286c5.081 6.808 7.622 18.253 7.622 34.336s-2.541 27.528-7.622 34.336c-5.032 6.808-12.358 10.212-21.978 10.212Zm0-2.812c8.091 0 14.455-3.108 19.092-9.324 4.637-6.216 6.956-17.02 6.956-32.412s-2.319-26.196-6.956-32.412c-4.637-6.265-11.001-9.398-19.092-9.398s-14.455 3.133-19.092 9.398c-4.637 6.216-6.956 17.02-6.956 32.412s2.319 26.196 6.956 32.412c4.637 6.216 11.001 9.324 19.092 9.324Zm94.233 2.22-.148-15.022V499.31h3.478V587h-3.33Zm-45.732-87.838v54.76c0 10.508 1.85 18.327 5.55 23.458 3.75 5.081 9.176 7.622 16.28 7.622 6.858 0 12.531-2.393 17.02-7.178 4.49-4.835 6.734-10.631 6.734-17.39l1.554 3.552c0 6.216-2.417 11.766-7.252 16.65-4.834 4.835-11.124 7.252-18.87 7.252-8.386 0-14.553-2.886-18.5-8.658-3.946-5.821-5.92-14.307-5.92-25.456v-54.612h3.404Zm112.429 38.406c0-13.271-1.529-22.619-4.588-28.046-3.009-5.476-7.72-8.214-14.134-8.214-7.202 0-12.802 2.417-16.798 7.252-3.996 4.785-5.994 10.113-5.994 15.984l-1.48-2.516c0-6.364 2.196-11.865 6.586-16.502 4.44-4.687 10.607-7.03 18.5-7.03 7.696 0 13.197 3.059 16.502 9.176 3.306 6.068 4.958 16.033 4.958 29.896h-3.552ZM696.823 587v-87.69h3.404l.074 18.278V587h-3.478Zm90.929.592c-8.88 0-15.663-2.072-20.35-6.216-4.637-4.193-7.03-12.037-7.178-23.532l3.404-.592c.049 10.409 2.171 17.612 6.364 21.608 4.243 3.996 10.163 5.994 17.76 5.994 8.633 0 14.701-1.529 18.204-4.588 3.503-3.108 5.254-7.622 5.254-13.542 0-7.055-1.949-12.037-5.846-14.948-3.897-2.96-10.089-5.525-18.574-7.696-8.781-2.368-15.318-4.958-19.61-7.77-4.243-2.861-6.364-8.091-6.364-15.688 0-6.413 2.195-11.692 6.586-15.836 4.44-4.193 11.223-6.29 20.35-6.29 9.176 0 15.885 2.195 20.128 6.586s6.438 11.643 6.586 21.756l-3.33.592c-.099-9.077-2.023-15.688-5.772-19.832-3.749-4.193-9.645-6.29-17.686-6.29-7.992 0-13.887 1.875-17.686 5.624-3.749 3.7-5.624 8.313-5.624 13.838 0 6.512 1.998 11.026 5.994 13.542 3.996 2.467 10.039 4.761 18.13 6.882 9.373 2.565 16.107 5.501 20.202 8.806 4.095 3.305 6.142 8.929 6.142 16.872 0 6.956-2.097 12.161-6.29 15.614-4.144 3.404-11.075 5.106-20.794 5.106Zm70.122.074c-9.768 0-17.069-3.897-21.904-11.692-4.785-7.844-7.178-18.895-7.178-33.152 0-15.737 2.516-27.059 7.548-33.966 5.081-6.907 12.259-10.36 21.534-10.36 9.571 0 16.749 3.404 21.534 10.212 4.785 6.759 7.178 18.007 7.178 33.744v1.702h-55.204v-2.738h52.392l-.666.888c0-14.948-2.22-25.53-6.66-31.746-4.391-6.216-10.582-9.324-18.574-9.324-7.795 0-14.011 3.157-18.648 9.472-4.637 6.315-6.956 16.995-6.956 32.042 0 13.616 2.195 24.05 6.586 31.302 4.391 7.203 10.73 10.804 19.018 10.804v2.812Zm0-2.812c3.503 0 6.759-.617 9.768-1.85a22.538 22.538 0 0 0 7.844-5.55c2.269-2.467 4.021-5.501 5.254-9.102 1.283-3.601 1.949-7.745 1.998-12.432l3.33.592c-.049 4.144-.543 7.869-1.48 11.174-.937 3.305-2.245 6.216-3.922 8.732-1.628 2.516-3.601 4.613-5.92 6.29-2.269 1.628-4.835 2.861-7.696 3.7-2.861.839-5.92 1.258-9.176 1.258l-.296-1.258.296-1.554Zm40.89 13.912 8.658-16.28h4.958l-10.656 16.28h-2.96ZM965.707 587v-87.838h3.478V587h-3.478Zm0-108.78h3.478v8.362h-3.478v-8.362Zm52.373 109.52c-4.69 0-8.46-1.085-11.32-3.256-2.81-2.171-4.22-6.487-4.22-12.95v-69.412h-19.831v-2.812h19.831v-19.536h3.4v19.536h29.09v2.812h-29.09v68.08c0 5.92 1.11 9.867 3.33 11.84 2.27 1.924 5.53 2.886 9.77 2.886 3.31 0 6.54-.247 9.7-.74V587c-3.46.493-7.01.74-10.66.74Zm79.54-.74-.37-10.508v-44.918c0-9.768-1.87-17.242-5.62-22.422-3.7-5.229-9.72-7.844-18.06-7.844l-.07-2.812c9.91 0 16.92 2.96 21.01 8.88 4.15 5.92 6.22 14.085 6.22 24.494V587h-3.11Zm-26.56.666c-8.84 0-15.27-2.442-19.32-7.326-4.04-4.933-6.07-11.371-6.07-19.314s2.08-13.961 6.22-18.056c4.14-4.144 11.54-6.216 22.2-6.216h23.83v2.664h-23.53c-9.08 0-15.54 1.751-19.39 5.254-3.85 3.503-5.77 8.954-5.77 16.354 0 6.907 1.8 12.629 5.4 17.168 3.6 4.489 9.3 6.734 17.09 6.734 7.35 0 13.44-1.406 18.28-4.218 4.83-2.812 7.25-5.599 7.25-8.362l1.19 2.146c0 2.861-2.52 5.772-7.55 8.732-4.99 2.96-11.6 4.44-19.83 4.44Zm-24.79-60.976c.09-4.588.81-8.633 2.14-12.136 1.33-3.552 3.18-6.512 5.55-8.88 2.42-2.368 5.28-4.144 8.59-5.328 3.3-1.233 6.95-1.85 10.95-1.85l.29 1.406-.22 1.406c-3.45 0-6.63.617-9.54 1.85a21.168 21.168 0 0 0-7.48 5.18c-2.12 2.22-3.77 4.933-4.96 8.14-1.18 3.157-1.8 6.734-1.85 10.73l-3.47-.518Zm73.49 60.31V470.82h3.48V587h-3.48Zm24.59 0v-87.838h3.48V587h-3.48Zm0-108.78h3.48v8.362h-3.48v-8.362Zm50.19 109.446c-9.67 0-17.02-3.823-22.05-11.47-5.03-7.647-7.55-18.673-7.55-33.078 0-15.787 2.52-27.158 7.55-34.114 5.03-7.005 12.38-10.508 22.05-10.508 9.28 0 16.06 3.182 20.35 9.546 4.35 6.315 6.57 13.813 6.66 22.496l-3.33.592c-.05-8.239-2.07-15.244-6.06-21.016-3.95-5.821-9.82-8.732-17.62-8.732-8.14 0-14.52 3.207-19.16 9.62-4.59 6.413-6.88 17.119-6.88 32.116 0 13.616 2.31 23.976 6.95 31.08 4.69 7.055 11.05 10.582 19.09 10.582 7.8 0 13.67-3.231 17.62-9.694 3.99-6.463 6.01-13.098 6.06-19.906l3.33.592c-.09 7.252-2.31 14.381-6.66 21.386-4.29 7.005-11.07 10.508-20.35 10.508Zm69.88-.074c-8.88 0-15.67-2.072-20.35-6.216-4.64-4.193-7.03-12.037-7.18-23.532l3.4-.592c.05 10.409 2.17 17.612 6.37 21.608 4.24 3.996 10.16 5.994 17.76 5.994 8.63 0 14.7-1.529 18.2-4.588 3.5-3.108 5.25-7.622 5.25-13.542 0-7.055-1.94-12.037-5.84-14.948-3.9-2.96-10.09-5.525-18.58-7.696-8.78-2.368-15.31-4.958-19.61-7.77-4.24-2.861-6.36-8.091-6.36-15.688 0-6.413 2.2-11.692 6.59-15.836 4.44-4.193 11.22-6.29 20.35-6.29 9.17 0 15.88 2.195 20.12 6.586 4.25 4.391 6.44 11.643 6.59 21.756l-3.33.592c-.1-9.077-2.02-15.688-5.77-19.832-3.75-4.193-9.65-6.29-17.69-6.29-7.99 0-13.89 1.875-17.68 5.624-3.75 3.7-5.63 8.313-5.63 13.838 0 6.512 2 11.026 6 13.542 3.99 2.467 10.04 4.761 18.13 6.882 9.37 2.565 16.1 5.501 20.2 8.806 4.09 3.305 6.14 8.929 6.14 16.872 0 6.956-2.1 12.161-6.29 15.614-4.14 3.404-11.08 5.106-20.79 5.106Zm38.74 11.174 8.66-16.28h4.96l-10.66 16.28h-2.96ZM52.214 797.56V677.31h3.404l.074 15.614V797.56h-3.478Zm29.674-31.968c-7.992 0-14.578-2.294-19.758-6.882-5.18-4.637-7.77-9.077-7.77-13.32l1.258-4.44c0 5.18 2.491 10.113 7.474 14.8 4.983 4.637 11.001 6.956 18.056 6.956 7.252 0 13-3.083 17.242-9.25 4.292-6.167 6.438-16.995 6.438-32.486 0-15.491-2.146-26.319-6.438-32.486-4.243-6.216-9.99-9.324-17.242-9.324-7.055 0-13.073 2.343-18.056 7.03-4.983 4.687-7.474 9.62-7.474 14.8l-1.258-4.44c0-4.243 2.59-8.658 7.77-13.246 5.18-4.637 11.766-6.956 19.758-6.956 8.485 0 15.022 3.404 19.61 10.212 4.588 6.808 6.882 18.278 6.882 34.41 0 16.083-2.294 27.553-6.882 34.41-4.588 6.808-11.125 10.212-19.61 10.212Zm44.509-.592V648.82h3.478V765h-3.478Zm70.467 0-.148-15.022V677.31h3.478V765h-3.33Zm-45.732-87.838v54.76c0 10.508 1.85 18.327 5.55 23.458 3.75 5.081 9.176 7.622 16.28 7.622 6.858 0 12.531-2.393 17.02-7.178 4.49-4.835 6.734-10.631 6.734-17.39l1.554 3.552c0 6.216-2.417 11.766-7.252 16.65-4.834 4.835-11.124 7.252-18.87 7.252-8.386 0-14.553-2.886-18.5-8.658-3.946-5.821-5.92-14.307-5.92-25.456v-54.612h3.404Zm92.893 88.43c-8.88 0-15.663-2.072-20.35-6.216-4.637-4.193-7.03-12.037-7.178-23.532l3.404-.592c.05 10.409 2.171 17.612 6.364 21.608 4.243 3.996 10.163 5.994 17.76 5.994 8.634 0 14.702-1.529 18.204-4.588 3.503-3.108 5.254-7.622 5.254-13.542 0-7.055-1.948-12.037-5.846-14.948-3.897-2.96-10.088-5.525-18.574-7.696-8.781-2.368-15.318-4.958-19.61-7.77-4.242-2.861-6.364-8.091-6.364-15.688 0-6.413 2.196-11.692 6.586-15.836 4.44-4.193 11.224-6.29 20.35-6.29 9.176 0 15.886 2.195 20.128 6.586 4.243 4.391 6.438 11.643 6.586 21.756l-3.33.592c-.098-9.077-2.022-15.688-5.772-19.832-3.749-4.193-9.644-6.29-17.686-6.29-7.992 0-13.887 1.875-17.686 5.624-3.749 3.7-5.624 8.313-5.624 13.838 0 6.512 1.998 11.026 5.994 13.542 3.996 2.467 10.04 4.761 18.13 6.882 9.374 2.565 16.108 5.501 20.202 8.806 4.095 3.305 6.142 8.929 6.142 16.872 0 6.956-2.096 12.161-6.29 15.614-4.144 3.404-11.075 5.106-20.794 5.106Zm91.074-.592-16.502-87.69h3.7l15.688 85.174h-.074l19.166-85.174h3.034L340.723 765h-5.624Zm43.29 0-19.832-87.69h3.034l19.61 85.174h-.074l15.392-85.174h3.626L384.013 765h-5.624Zm39.256 0v-87.838h3.478V765h-3.478Zm0-108.78h3.478v8.362h-3.478v-8.362ZM492.039 765l-.222-15.17V648.82h3.478V765h-3.256Zm-26.122.592c-8.436 0-15.022-3.355-19.758-10.064-4.687-6.759-7.03-18.278-7.03-34.558 0-16.329 2.343-27.849 7.03-34.558 4.736-6.709 11.322-10.064 19.758-10.064 7.992 0 14.528 2.319 19.61 6.956 5.081 4.588 7.622 9.003 7.622 13.246l-1.332 4.44c0-5.18-2.442-10.113-7.326-14.8-4.835-4.687-10.78-7.03-17.834-7.03-7.203 0-13 3.059-17.39 9.176-4.391 6.068-6.586 16.946-6.586 32.634 0 15.688 2.195 26.566 6.586 32.634 4.39 6.068 10.187 9.102 17.39 9.102 7.054 0 12.999-2.343 17.834-7.03 4.884-4.687 7.326-9.595 7.326-14.726l1.332 4.44c0 4.243-2.541 8.683-7.622 13.32-5.082 4.588-11.618 6.882-19.61 6.882Zm75.355.148c-4.687 0-8.461-1.085-11.322-3.256-2.812-2.171-4.218-6.487-4.218-12.95v-69.412H505.9v-2.812h19.832v-19.536h3.404v19.536h29.082v2.812h-29.082v68.08c0 5.92 1.11 9.867 3.33 11.84 2.269 1.924 5.525 2.886 9.768 2.886 3.305 0 6.537-.247 9.694-.74V765c-3.453.493-7.005.74-10.656.74Zm31.399-.74V648.82h3.478V765h-3.478Zm48.988 0v-54.834c0-10.459-1.85-18.229-5.55-23.31-3.7-5.131-9.102-7.696-16.206-7.696-6.857 0-12.531 2.417-17.02 7.252-4.489 4.785-6.734 10.533-6.734 17.242l-1.554-3.478c0-6.216 2.417-11.741 7.252-16.576 4.835-4.884 11.125-7.326 18.87-7.326 8.387 0 14.553 2.911 18.5 8.732 3.947 5.772 5.92 14.233 5.92 25.382V765h-3.478Zm19.943-14.948-.222-84.952h3.848l-.222 84.952h-3.404Zm-.148 6.512h3.552v8.51h-3.552v-8.51Z" fill="#3C4043"/></svg>