<svg width="1920" height="1080" fill="none" xmlns="http://www.w3.org/2000/svg"><path d="m48.44 409 30.784-100.048H99.87L130.58 409h-13.912l-8.362-28.268H70.788L62.426 409H48.44Zm24.568-37.444h33.152l-16.354-54.464h-.444l-16.354 54.464ZM142.377 409v-87.764h12.58l.74 17.39V409h-13.32Zm51.504 0v-51.06c0-10.163-1.504-17.39-4.514-21.682-3.009-4.292-7.498-6.438-13.468-6.438-5.87 0-10.779 2.22-14.726 6.66-3.946 4.44-5.92 9.99-5.92 16.65l-6.364-4.292c0-6.956 2.936-13.443 8.806-19.462 5.871-6.019 13.567-9.028 23.088-9.028 9.571 0 16.354 3.281 20.35 9.842 4.046 6.561 6.068 15.688 6.068 27.38V409h-13.32Zm45.787 0-24.05-87.764h13.986l21.756 82.14h-2.738l21.534-82.14h13.986L260.24 409h-20.572Zm-21.016 34.114v-9.398c7.498 0 13.591-1.776 18.278-5.328 4.686-3.552 8.337-10.064 10.952-19.536l12.358.148c-3.503 12.777-8.56 21.657-15.17 26.64-6.611 4.983-15.417 7.474-26.418 7.474ZM295.147 409V292.82h13.32v102.49L307.283 409h-12.136Zm39.59.592c-8.93 0-16.527-2.319-22.792-6.956-6.216-4.687-9.324-9.595-9.324-14.726l5.772-7.326c0 5.081 2.146 9.62 6.438 13.616 4.292 3.996 9.447 5.994 15.466 5.994 6.265 0 11.174-2.467 14.726-7.4 3.601-4.983 5.402-14.257 5.402-27.824 0-13.468-1.801-22.693-5.402-27.676-3.552-4.983-8.461-7.474-14.726-7.474-6.019 0-11.174 2.023-15.466 6.068-4.292 3.996-6.438 8.485-6.438 13.468l-5.772-7.252c0-5.131 3.108-10.015 9.324-14.652 6.265-4.687 13.862-7.03 22.792-7.03 9.916 0 17.242 3.675 21.978 11.026 4.785 7.351 7.178 18.525 7.178 33.522 0 14.948-2.393 26.122-7.178 33.522-4.736 7.4-12.062 11.1-21.978 11.1Zm76.234.074c-12.58 0-21.682-3.601-27.306-10.804-5.624-7.203-8.436-18.525-8.436-33.966 0-15.441 2.812-26.739 8.436-33.892 5.624-7.153 14.726-10.73 27.306-10.73 12.629 0 21.731 3.577 27.306 10.73 5.624 7.153 8.436 18.451 8.436 33.892 0 15.441-2.812 26.763-8.436 33.966-5.575 7.203-14.677 10.804-27.306 10.804Zm0-9.324c6.906 0 12.358-2.516 16.354-7.548 4.045-5.032 6.068-14.307 6.068-27.824 0-13.468-2.023-22.718-6.068-27.75-3.996-5.081-9.448-7.622-16.354-7.622-6.858 0-12.309 2.541-16.354 7.622-3.996 5.032-5.994 14.282-5.994 27.75 0 13.517 1.998 22.792 5.994 27.824 4.045 5.032 9.496 7.548 16.354 7.548ZM514.578 409l-.962-14.06V292.82h13.32V409h-12.358Zm-27.01.592c-9.916 0-17.292-3.651-22.126-10.952-4.835-7.351-7.252-18.574-7.252-33.67 0-15.145 2.417-26.344 7.252-33.596 4.834-7.301 12.21-10.952 22.126-10.952 8.929 0 16.477 2.343 22.644 7.03 6.166 4.637 9.25 9.521 9.25 14.652l-5.772 7.252c0-4.983-2.122-9.472-6.364-13.468-4.194-4.045-9.3-6.068-15.318-6.068-6.266 0-11.224 2.467-14.874 7.4-3.651 4.884-5.476 14.134-5.476 27.75 0 13.665 1.825 22.965 5.476 27.898 3.65 4.884 8.608 7.326 14.874 7.326 6.018 0 11.124-1.998 15.318-5.994 4.242-4.045 6.364-8.584 6.364-13.616l5.772 7.326c0 5.131-3.084 10.039-9.25 14.726-6.167 4.637-13.715 6.956-22.644 6.956Zm72.959-.592-24.05-87.764h13.986l21.756 82.14h-2.738l21.534-82.14h13.986L581.099 409h-20.572Zm-21.016 34.114v-9.398c7.499 0 13.591-1.776 18.278-5.328 4.687-3.552 8.337-10.064 10.952-19.536l12.358.148c-3.503 12.777-8.559 21.657-15.17 26.64-6.611 4.983-15.417 7.474-26.418 7.474ZM650.694 409V292.82h13.32V409h-13.32Zm51.726 0v-51.06c0-10.163-1.53-17.39-4.588-21.682-3.01-4.292-7.474-6.438-13.394-6.438s-10.854 2.22-14.8 6.66c-3.898 4.44-5.846 9.99-5.846 16.65l-6.364-4.292c0-6.956 2.935-13.443 8.806-19.462 5.87-6.019 13.542-9.028 23.014-9.028 9.62 0 16.428 3.281 20.424 9.842 3.996 6.561 5.994 15.688 5.994 27.38V409H702.42Zm83.245 0-1.85-11.544v-43.882c0-7.992-1.653-13.961-4.958-17.908-3.305-3.996-8.313-5.994-15.022-5.994l-.518-9.25c12.925 0 21.805 3.231 26.64 9.694 4.835 6.413 7.252 15.392 7.252 26.936V409h-11.544Zm-27.528.814c-9.472 0-16.699-2.195-21.682-6.586-4.933-4.44-7.4-11.199-7.4-20.276 0-8.732 2.516-15.121 7.548-19.166 5.032-4.095 13.394-6.142 25.086-6.142h23.088v8.288h-20.35c-8.041 0-13.69 1.381-16.946 4.144-3.207 2.713-4.81 6.956-4.81 12.728 0 5.525 1.48 9.941 4.44 13.246 3.009 3.305 7.77 4.958 14.282 4.958 6.463 0 11.815-1.233 16.058-3.7 4.243-2.516 6.364-5.205 6.364-8.066l4.736 2.664c0 4.835-2.713 9.028-8.14 12.58-5.427 3.552-12.851 5.328-22.274 5.328Zm-27.898-62.826c.345-4.391 1.357-8.239 3.034-11.544 1.677-3.355 3.947-6.142 6.808-8.362 2.861-2.22 6.241-3.873 10.138-4.958 3.897-1.135 8.263-1.702 13.098-1.702l.74 4.366-.222 4.884c-2.861 0-5.501.469-7.918 1.406-2.417.888-4.539 2.195-6.364 3.922-1.825 1.727-3.281 3.873-4.366 6.438-1.085 2.565-1.702 5.501-1.85 8.806l-13.098-3.256Zm115.112 62.678c-10.212 0-18.254-1.949-24.124-5.846-5.822-3.947-9.25-11.026-10.286-21.238l11.988-3.7c.444 8.091 2.639 13.739 6.586 16.946 3.996 3.157 9.2 4.736 15.614 4.736 7.054 0 12.185-1.184 15.392-3.552 3.206-2.417 4.81-5.895 4.81-10.434 0-5.525-1.875-9.324-5.624-11.396-3.7-2.121-9.67-4.07-17.908-5.846-10.656-2.072-18.377-4.687-23.162-7.844-4.736-3.207-7.104-8.905-7.104-17.094 0-7.647 2.886-13.542 8.658-17.686 5.821-4.144 14.06-6.216 24.716-6.216 10.557 0 18.45 2.023 23.68 6.068 5.229 3.996 8.312 10.631 9.25 19.906l-11.618 3.626c-.494-7.153-2.516-12.358-6.068-15.614-3.503-3.256-8.634-4.884-15.392-4.884-6.66 0-11.668 1.406-15.022 4.218-3.306 2.763-4.958 6.265-4.958 10.508 0 5.18 1.924 8.658 5.772 10.434 3.848 1.776 9.718 3.503 17.612 5.18 10.754 2.121 18.5 4.933 23.236 8.436 4.785 3.503 7.178 9.373 7.178 17.612 0 8.288-2.788 14.307-8.362 18.056-5.575 3.749-13.863 5.624-24.864 5.624ZM982.083 409l-1.85-11.544v-43.882c0-7.992-1.653-13.961-4.958-17.908-3.305-3.996-8.313-5.994-15.022-5.994l-.518-9.25c12.925 0 21.805 3.231 26.64 9.694 4.835 6.413 7.252 15.392 7.252 26.936V409h-11.544Zm-27.528.814c-9.472 0-16.699-2.195-21.682-6.586-4.933-4.44-7.4-11.199-7.4-20.276 0-8.732 2.516-15.121 7.548-19.166 5.032-4.095 13.394-6.142 25.086-6.142h23.088v8.288h-20.35c-8.041 0-13.69 1.381-16.946 4.144-3.207 2.713-4.81 6.956-4.81 12.728 0 5.525 1.48 9.941 4.44 13.246 3.009 3.305 7.77 4.958 14.282 4.958 6.463 0 11.815-1.233 16.058-3.7 4.243-2.516 6.364-5.205 6.364-8.066l4.736 2.664c0 4.835-2.713 9.028-8.14 12.58-5.427 3.552-12.851 5.328-22.274 5.328Zm-27.898-62.826c.345-4.391 1.357-8.239 3.034-11.544 1.677-3.355 3.947-6.142 6.808-8.362 2.861-2.22 6.241-3.873 10.138-4.958 3.897-1.135 8.263-1.702 13.098-1.702l.74 4.366-.222 4.884c-2.861 0-5.501.469-7.918 1.406-2.417.888-4.539 2.195-6.364 3.922-1.825 1.727-3.281 3.873-4.366 6.438-1.085 2.565-1.702 5.501-1.85 8.806l-13.098-3.256ZM1057.07 409l-16.8-87.838h25.68l9.69 72.89h-.89l15.47-72.89h19.76L1092.81 409h-35.74Zm58.01 0-17.24-87.838h19.76l15.39 72.742h-.81l9.47-72.742h25.6L1150.53 409h-35.45Zm101.74.888c-16.53 0-27.88-3.947-34.04-11.84-6.12-7.893-9.18-18.796-9.18-32.708 0-14.257 3.09-25.308 9.25-33.152 6.17-7.893 17.34-11.84 33.52-11.84 16.63 0 27.9 3.996 33.82 11.988 5.92 7.992 8.88 18.87 8.88 32.634 0 2.96-.15 5.55-.44 7.77h-63.05v-15.392h39.59l-.89 2.22c0-8.485-1.58-14.43-4.73-17.834-3.11-3.453-7.48-5.18-13.1-5.18-5.58 0-10.09 1.85-13.54 5.55-3.41 3.7-5.11 11.347-5.11 22.94 0 11.396 1.73 18.993 5.18 22.792 3.45 3.749 8.09 5.624 13.91 5.624l-.07 16.428Zm.07-16.428c2.07 0 4.05-.271 5.92-.814 1.93-.592 3.65-1.48 5.18-2.664 1.58-1.184 2.89-2.689 3.92-4.514 1.04-1.825 1.73-3.971 2.08-6.438l22.57 6.956c-.55 3.453-1.63 6.512-3.26 9.176a23.906 23.906 0 0 1-6.07 6.734c-2.42 1.875-5.2 3.404-8.36 4.588-3.16 1.184-6.61 2.047-10.36 2.59-3.7.543-7.6.814-11.69.814l-1.48-6.808 1.55-9.62Zm55.37 15.54v-87.838h25.09V409h-25.09Zm0-114.182h25.09v17.464h-25.09v-17.464Zm79.29 148.666c-9.03 0-16.48-1.061-22.35-3.182-5.87-2.072-10.24-5.328-13.1-9.768-2.81-4.391-4.22-10.064-4.22-17.02h24.64c0 3.207.65 5.821 1.93 7.844 1.28 2.023 3.06 3.503 5.33 4.44 2.27.987 4.88 1.48 7.84 1.48 2.22 0 4.37-.345 6.44-1.036 2.07-.691 3.92-1.899 5.55-3.626 1.63-1.677 2.91-3.971 3.85-6.882.98-2.911 1.48-6.561 1.48-10.952v-66.748l1.33-16.872h23.75v83.028c0 7.449-.96 13.69-2.88 18.722-1.88 5.081-4.64 9.127-8.29 12.136-3.65 3.009-8.09 5.155-13.32 6.438-5.23 1.332-11.22 1.998-17.98 1.998Zm-8.96-33.966c-11.64 0-19.95-3.996-24.94-11.988-4.93-8.041-7.4-18.919-7.4-32.634s2.47-24.543 7.4-32.486c4.99-7.943 13.3-11.914 24.94-11.914 10.12 0 18.9 2.368 26.35 7.104 7.45 4.736 11.17 10.187 11.17 16.354l-11.17 10.582c0-4.835-1.73-8.855-5.18-12.062-3.46-3.207-7.55-4.81-12.29-4.81-5.13 0-9.07 1.776-11.84 5.328-2.76 3.552-4.14 10.878-4.14 21.978 0 11.199 1.38 18.574 4.14 22.126 2.77 3.552 6.71 5.328 11.84 5.328 4.74 0 8.83-1.603 12.29-4.81 3.45-3.207 5.18-7.252 5.18-12.136l11.17 10.73c0 6.117-3.72 11.544-11.17 16.28-7.45 4.687-16.23 7.03-26.35 7.03Zm65.35-.518V292.82h25.01V409h-25.01Zm54.9 0v-46.62c0-9.768-1.11-16.305-3.33-19.61-2.17-3.355-5.52-5.032-10.06-5.032-4.74 0-8.76 2.023-12.06 6.068-3.26 3.996-4.89 9.275-4.89 15.836l-12.13-5.328c0-7.795 3.55-15.392 10.65-22.792 7.16-7.4 16.51-11.1 28.05-11.1 11.05 0 18.6 3.749 22.64 11.248 4.05 7.449 6.07 17.316 6.07 29.6V409h-24.94Zm78.74 1.11c-8.14 0-14.63-1.603-19.46-4.81-4.84-3.256-7.25-9.176-7.25-17.76v-49.062h-18.8v-17.316h18.8V301.33h25.08v19.832h25.24v17.316h-25.24v43.66c0 4.588.82 7.597 2.44 9.028 1.63 1.381 4.15 2.072 7.55 2.072 3.16 0 6.78-.37 10.88-1.11v16.65c-7.3.888-13.72 1.332-19.24 1.332Zm124.71-1.11-1.85-11.544v-43.882c0-7.992-1.65-13.961-4.95-17.908-3.31-3.996-8.32-5.994-15.03-5.994l-.51-9.25c12.92 0 21.8 3.231 26.64 9.694 4.83 6.413 7.25 15.392 7.25 26.936V409h-11.55Zm-27.52.814c-9.48 0-16.7-2.195-21.69-6.586-4.93-4.44-7.4-11.199-7.4-20.276 0-8.732 2.52-15.121 7.55-19.166 5.03-4.095 13.4-6.142 25.09-6.142h23.09v8.288h-20.35c-8.05 0-13.69 1.381-16.95 4.144-3.21 2.713-4.81 6.956-4.81 12.728 0 5.525 1.48 9.941 4.44 13.246 3.01 3.305 7.77 4.958 14.28 4.958 6.46 0 11.82-1.233 16.06-3.7 4.24-2.516 6.36-5.205 6.36-8.066l4.74 2.664c0 4.835-2.71 9.028-8.14 12.58-5.43 3.552-12.85 5.328-22.27 5.328Zm-27.9-62.826c.34-4.391 1.35-8.239 3.03-11.544 1.68-3.355 3.95-6.142 6.81-8.362 2.86-2.22 6.24-3.873 10.14-4.958 3.9-1.135 8.26-1.702 13.1-1.702l.74 4.366-.23 4.884c-2.86 0-5.5.469-7.91 1.406a18.411 18.411 0 0 0-6.37 3.922c-1.82 1.727-3.28 3.873-4.36 6.438-1.09 2.565-1.71 5.501-1.85 8.806l-13.1-3.256ZM1688.02 409l27.16-43.882-26.2-43.882h15.17l21.02 38.332 20.72-38.332h15.02l-26.27 43.882L1761.65 409h-15.1l-21.9-38.332L1703.04 409h-15.02Zm86.45 0v-87.838h13.32V409h-13.32Zm0-111.296h13.32v12.58h-13.32v-12.58Zm64.39 111.962c-10.21 0-18.25-1.949-24.13-5.846-5.82-3.947-9.25-11.026-10.28-21.238l11.99-3.7c.44 8.091 2.64 13.739 6.58 16.946 4 3.157 9.2 4.736 15.62 4.736 7.05 0 12.18-1.184 15.39-3.552 3.21-2.417 4.81-5.895 4.81-10.434 0-5.525-1.88-9.324-5.63-11.396-3.7-2.121-9.66-4.07-17.9-5.846-10.66-2.072-18.38-4.687-23.17-7.844-4.73-3.207-7.1-8.905-7.1-17.094 0-7.647 2.89-13.542 8.66-17.686 5.82-4.144 14.06-6.216 24.71-6.216 10.56 0 18.46 2.023 23.68 6.068 5.23 3.996 8.32 10.631 9.25 19.906l-11.61 3.626c-.5-7.153-2.52-12.358-6.07-15.614-3.5-3.256-8.63-4.884-15.39-4.884-6.66 0-11.67 1.406-15.03 4.218-3.3 2.763-4.95 6.265-4.95 10.508 0 5.18 1.92 8.658 5.77 10.434 3.85 1.776 9.72 3.503 17.61 5.18 10.76 2.121 18.5 4.933 23.24 8.436 4.78 3.503 7.17 9.373 7.17 17.612 0 8.288-2.78 14.307-8.36 18.056-5.57 3.749-13.86 5.624-24.86 5.624ZM105.79 587l-1.85-11.544v-43.882c0-7.992-1.653-13.961-4.958-17.908-3.305-3.996-8.313-5.994-15.022-5.994l-.518-9.25c12.925 0 21.805 3.231 26.64 9.694 4.835 6.413 7.252 15.392 7.252 26.936V587H105.79Zm-27.528.814c-9.472 0-16.7-2.195-21.682-6.586-4.933-4.44-7.4-11.199-7.4-20.276 0-8.732 2.516-15.121 7.548-19.166 5.032-4.095 13.394-6.142 25.086-6.142h23.088v8.288h-20.35c-8.041 0-13.69 1.381-16.946 4.144-3.207 2.713-4.81 6.956-4.81 12.728 0 5.525 1.48 9.941 4.44 13.246 3.01 3.305 7.77 4.958 14.282 4.958 6.463 0 11.815-1.233 16.058-3.7 4.243-2.516 6.364-5.205 6.364-8.066l4.736 2.664c0 4.835-2.713 9.028-8.14 12.58-5.427 3.552-12.851 5.328-22.274 5.328Zm-27.898-62.826c.345-4.391 1.357-8.239 3.034-11.544 1.677-3.355 3.947-6.142 6.808-8.362 2.861-2.22 6.24-3.873 10.138-4.958 3.897-1.135 8.263-1.702 13.098-1.702l.74 4.366-.222 4.884c-2.861 0-5.5.469-7.918 1.406-2.417.888-4.539 2.195-6.364 3.922-1.825 1.727-3.28 3.873-4.366 6.438-1.085 2.565-1.702 5.501-1.85 8.806l-13.098-3.256ZM132.694 587v-87.764h12.58l.74 17.39V587h-13.32Zm51.504 0v-51.06c0-10.163-1.505-17.39-4.514-21.682-3.01-4.292-7.499-6.438-13.468-6.438-5.871 0-10.78 2.22-14.726 6.66-3.947 4.44-5.92 9.99-5.92 16.65l-6.364-4.292c0-6.956 2.935-13.443 8.806-19.462 5.87-6.019 13.566-9.028 23.088-9.028 9.57 0 16.354 3.281 20.35 9.842 4.045 6.561 6.068 15.688 6.068 27.38V587h-13.32Zm82.364 0-.962-14.06V470.82h13.32V587h-12.358Zm-27.01.592c-9.916 0-17.291-3.651-22.126-10.952-4.835-7.351-7.252-18.574-7.252-33.67 0-15.145 2.417-26.344 7.252-33.596 4.835-7.301 12.21-10.952 22.126-10.952 8.929 0 16.477 2.343 22.644 7.03 6.167 4.637 9.25 9.521 9.25 14.652l-5.772 7.252c0-4.983-2.121-9.472-6.364-13.468-4.193-4.045-9.299-6.068-15.318-6.068-6.265 0-11.223 2.467-14.874 7.4-3.651 4.884-5.476 14.134-5.476 27.75 0 13.665 1.825 22.965 5.476 27.898 3.651 4.884 8.609 7.326 14.874 7.326 6.019 0 11.125-1.998 15.318-5.994 4.243-4.045 6.364-8.584 6.364-13.616l5.772 7.326c0 5.131-3.083 10.039-9.25 14.726-6.167 4.637-13.715 6.956-22.644 6.956Zm50.513 14.948 7.844-23.31h13.32l-13.024 23.31h-8.14Zm106.163-14.874c-12.58 0-21.682-3.601-27.306-10.804-5.624-7.203-8.436-18.525-8.436-33.966 0-15.441 2.812-26.739 8.436-33.892 5.624-7.153 14.726-10.73 27.306-10.73 12.63 0 21.732 3.577 27.306 10.73 5.624 7.153 8.436 18.451 8.436 33.892 0 15.441-2.812 26.763-8.436 33.966-5.574 7.203-14.676 10.804-27.306 10.804Zm0-9.324c6.907 0 12.358-2.516 16.354-7.548 4.046-5.032 6.068-14.307 6.068-27.824 0-13.468-2.022-22.718-6.068-27.75-3.996-5.081-9.447-7.622-16.354-7.622-6.857 0-12.308 2.541-16.354 7.622-3.996 5.032-5.994 14.282-5.994 27.75 0 13.517 1.998 22.792 5.994 27.824 4.046 5.032 9.497 7.548 16.354 7.548ZM456.866 587v-78.366h-16.872v-9.398h16.946l-.074-6.142c0-7.795 3.132-13.542 9.398-17.242 6.314-3.7 16.107-5.55 29.378-5.55h3.404v9.102h-3.034c-9.324 0-15.96 1.061-19.906 3.182-3.947 2.121-5.92 5.649-5.92 10.582l-.074 6.068h23.754v9.398h-23.68V587h-13.32Zm119.569.74c-12.679 0-21.756-3.848-27.232-11.544-5.476-7.745-8.214-18.747-8.214-33.004 0-15.145 2.738-26.393 8.214-33.744 5.476-7.351 14.553-11.026 27.232-11.026 11.741 0 19.98 3.207 24.716 9.62 4.736 6.413 7.326 13.616 7.77 21.608l-12.062 3.626c-.198-7.647-2.023-13.789-5.476-18.426-3.454-4.637-8.436-6.956-14.948-6.956-6.66 0-11.988 2.565-15.984 7.696-3.947 5.131-5.92 14.331-5.92 27.602 0 12.284 1.998 21.213 5.994 26.788 3.996 5.575 9.299 8.362 15.91 8.362 6.512 0 11.494-2.516 14.948-7.548 3.453-5.081 5.278-10.977 5.476-17.686l12.062 3.774c-.444 7.005-3.034 13.912-7.77 20.72-4.736 6.759-12.975 10.138-24.716 10.138Zm80.383-.074c-12.58 0-21.682-3.601-27.306-10.804-5.624-7.203-8.436-18.525-8.436-33.966 0-15.441 2.812-26.739 8.436-33.892 5.624-7.153 14.726-10.73 27.306-10.73 12.63 0 21.732 3.577 27.306 10.73 5.624 7.153 8.436 18.451 8.436 33.892 0 15.441-2.812 26.763-8.436 33.966-5.574 7.203-14.676 10.804-27.306 10.804Zm0-9.324c6.907 0 12.358-2.516 16.354-7.548 4.046-5.032 6.068-14.307 6.068-27.824 0-13.468-2.022-22.718-6.068-27.75-3.996-5.081-9.447-7.622-16.354-7.622-6.857 0-12.308 2.541-16.354 7.622-3.996 5.032-5.994 14.282-5.994 27.75 0 13.517 1.998 22.792 5.994 27.824 4.046 5.032 9.497 7.548 16.354 7.548ZM758.279 587l-.666-15.096v-72.668h13.32V587h-12.654Zm-39.22-87.838v51.06c0 10.163 1.505 17.39 4.514 21.682 3.059 4.292 7.548 6.438 13.468 6.438s10.829-2.22 14.726-6.66c3.947-4.489 5.92-10.039 5.92-16.65l6.364 4.292c0 6.956-2.935 13.443-8.806 19.462-5.87 6.019-13.542 9.028-23.014 9.028-9.62 0-16.428-3.281-20.424-9.842-3.996-6.561-5.994-15.688-5.994-27.38v-51.43h13.246Zm117.131 40.7c0-12.333-1.357-20.745-4.07-25.234-2.664-4.489-6.71-6.734-12.136-6.734-6.068 0-10.829 2.121-14.282 6.364-3.454 4.193-5.18 8.905-5.18 14.134l-5.18-3.848c0-7.301 2.664-13.468 7.992-18.5 5.328-5.081 12.481-7.622 21.46-7.622 9.422 0 15.885 3.305 19.388 9.916 3.552 6.611 5.328 17.119 5.328 31.524h-13.32ZM787.276 587v-87.764h12.654l.666 17.76V587h-13.32Zm110.395.666c-10.212 0-18.253-1.949-24.124-5.846-5.821-3.947-9.25-11.026-10.286-21.238l11.988-3.7c.444 8.091 2.639 13.739 6.586 16.946 3.996 3.157 9.201 4.736 15.614 4.736 7.055 0 12.185-1.184 15.392-3.552 3.207-2.417 4.81-5.895 4.81-10.434 0-5.525-1.875-9.324-5.624-11.396-3.7-2.121-9.669-4.07-17.908-5.846-10.656-2.072-18.377-4.687-23.162-7.844-4.736-3.207-7.104-8.905-7.104-17.094 0-7.647 2.886-13.542 8.658-17.686 5.821-4.144 14.06-6.216 24.716-6.216 10.557 0 18.451 2.023 23.68 6.068 5.229 3.996 8.313 10.631 9.25 19.906l-11.618 3.626c-.493-7.153-2.516-12.358-6.068-15.614-3.503-3.256-8.633-4.884-15.392-4.884-6.66 0-11.667 1.406-15.022 4.218-3.305 2.763-4.958 6.265-4.958 10.508 0 5.18 1.924 8.658 5.772 10.434 3.848 1.776 9.719 3.503 17.612 5.18 10.755 2.121 18.5 4.933 23.236 8.436 4.785 3.503 7.178 9.373 7.178 17.612 0 8.288-2.787 14.307-8.362 18.056-5.575 3.749-13.863 5.624-24.864 5.624Zm80.659.074c-12.876 0-22.028-3.922-27.454-11.766-5.427-7.844-8.14-18.821-8.14-32.93 0-15.047 2.787-26.245 8.362-33.596 5.574-7.351 14.578-11.026 27.01-11.026 12.777 0 21.805 3.675 27.082 11.026 5.33 7.351 7.99 18.426 7.99 33.226 0 1.677-.07 3.182-.22 4.514h-58.754v-8.584h46.544l-.812 1.554c0-11.988-1.924-20.449-5.772-25.382-3.799-4.933-9.152-7.4-16.058-7.4-6.759 0-12.186 2.565-16.28 7.696-4.095 5.081-6.142 14.356-6.142 27.824 0 12.58 1.973 21.707 5.92 27.38 3.946 5.624 9.521 8.436 16.724 8.436v9.028Zm0-9.028c2.861 0 5.525-.469 7.992-1.406a18.884 18.884 0 0 0 6.66-4.218c1.924-1.875 3.453-4.193 4.588-6.956 1.184-2.812 1.874-6.043 2.072-9.694l12.058 3.478c-.24 3.848-.98 7.277-2.22 10.286-1.23 2.96-2.86 5.55-4.88 7.77-2.02 2.22-4.39 4.07-7.104 5.55-2.664 1.431-5.624 2.491-8.88 3.182-3.256.691-6.685 1.036-10.286 1.036l-.888-3.774.888-5.254Zm45.23 23.828 7.85-23.31h13.32l-13.03 23.31h-8.14Zm75.08-15.54v-87.838h13.32V587h-13.32Zm0-111.296h13.32v12.58h-13.32v-12.58Zm65.01 112.258c-6.26 0-11.27-1.332-15.02-3.996-3.75-2.664-5.62-7.721-5.62-15.17v-60.088h-19.32v-9.472h19.32v-19.684h13.32v19.684h27.3v9.472h-27.3v56.906c0 5.328.96 8.855 2.88 10.582 1.98 1.677 4.91 2.491 8.81 2.442 3.21 0 6.61-.296 10.21-.888v9.102c-5.23.74-10.09 1.11-14.58 1.11Zm86.1-.962-1.85-11.544v-43.882c0-7.992-1.65-13.961-4.95-17.908-3.31-3.996-8.32-5.994-15.03-5.994l-.51-9.25c12.92 0 21.8 3.231 26.64 9.694 4.83 6.413 7.25 15.392 7.25 26.936V587h-11.55Zm-27.52.814c-9.48 0-16.7-2.195-21.69-6.586-4.93-4.44-7.4-11.199-7.4-20.276 0-8.732 2.52-15.121 7.55-19.166 5.03-4.095 13.4-6.142 25.09-6.142h23.09v8.288h-20.35c-8.04 0-13.69 1.381-16.95 4.144-3.21 2.713-4.81 6.956-4.81 12.728 0 5.525 1.48 9.941 4.44 13.246 3.01 3.305 7.77 4.958 14.28 4.958 6.47 0 11.82-1.233 16.06-3.7 4.24-2.516 6.36-5.205 6.36-8.066l4.74 2.664c0 4.835-2.71 9.028-8.14 12.58-5.43 3.552-12.85 5.328-22.27 5.328Zm-27.9-62.826c.34-4.391 1.36-8.239 3.03-11.544 1.68-3.355 3.95-6.142 6.81-8.362 2.86-2.22 6.24-3.873 10.14-4.958 3.9-1.135 8.26-1.702 13.1-1.702l.74 4.366-.23 4.884c-2.86 0-5.5.469-7.91 1.406a18.411 18.411 0 0 0-6.37 3.922c-1.82 1.727-3.28 3.873-4.36 6.438-1.09 2.565-1.71 5.501-1.85 8.806l-13.1-3.256ZM1278.36 587V470.82h13.32V587h-13.32Zm32.17 0v-87.838h13.32V587h-13.32Zm0-111.296h13.32v12.58h-13.32v-12.58Zm63.72 112.036c-12.68 0-21.76-3.848-27.23-11.544-5.48-7.745-8.22-18.747-8.22-33.004 0-15.145 2.74-26.393 8.22-33.744 5.47-7.351 14.55-11.026 27.23-11.026 11.74 0 19.98 3.207 24.71 9.62 4.74 6.413 7.33 13.616 7.77 21.608l-12.06 3.626c-.2-7.647-2.02-13.789-5.47-18.426-3.46-4.637-8.44-6.956-14.95-6.956-6.66 0-11.99 2.565-15.99 7.696-3.94 5.131-5.92 14.331-5.92 27.602 0 12.284 2 21.213 6 26.788 3.99 5.575 9.3 8.362 15.91 8.362 6.51 0 11.49-2.516 14.95-7.548 3.45-5.081 5.27-10.977 5.47-17.686l12.06 3.774c-.44 7.005-3.03 13.912-7.77 20.72-4.73 6.759-12.97 10.138-24.71 10.138Zm80.01-.074c-10.21 0-18.25-1.949-24.12-5.846-5.82-3.947-9.25-11.026-10.29-21.238l11.99-3.7c.44 8.091 2.64 13.739 6.58 16.946 4 3.157 9.21 4.736 15.62 4.736 7.05 0 12.18-1.184 15.39-3.552 3.21-2.417 4.81-5.895 4.81-10.434 0-5.525-1.87-9.324-5.62-11.396-3.7-2.121-9.67-4.07-17.91-5.846-10.66-2.072-18.38-4.687-23.16-7.844-4.74-3.207-7.11-8.905-7.11-17.094 0-7.647 2.89-13.542 8.66-17.686 5.82-4.144 14.06-6.216 24.72-6.216 10.55 0 18.45 2.023 23.68 6.068 5.23 3.996 8.31 10.631 9.25 19.906l-11.62 3.626c-.49-7.153-2.52-12.358-6.07-15.614-3.5-3.256-8.63-4.884-15.39-4.884-6.66 0-11.67 1.406-15.02 4.218-3.31 2.763-4.96 6.265-4.96 10.508 0 5.18 1.92 8.658 5.77 10.434 3.85 1.776 9.72 3.503 17.61 5.18 10.76 2.121 18.5 4.933 23.24 8.436 4.78 3.503 7.18 9.373 7.18 17.612 0 8.288-2.79 14.307-8.37 18.056-5.57 3.749-13.86 5.624-24.86 5.624Zm43.36 14.874 7.85-23.31h13.32l-13.03 23.31h-8.14ZM51.178 797.708V677.236h12.654l.666 15.54v104.932h-13.32Zm39.59-32.116c-8.93 0-16.527-2.319-22.792-6.956-6.216-4.687-9.324-9.595-9.324-14.726l5.772-7.326c0 5.081 2.146 9.62 6.438 13.616 4.292 3.996 9.447 5.994 15.466 5.994 6.265 0 11.174-2.467 14.726-7.4 3.601-4.983 5.402-14.257 5.402-27.824 0-13.468-1.801-22.693-5.402-27.676-3.552-4.983-8.46-7.474-14.726-7.474-6.019 0-11.174 2.023-15.466 6.068-4.292 3.996-6.438 8.485-6.438 13.468l-5.772-7.252c0-5.131 3.108-10.015 9.324-14.652 6.265-4.687 13.863-7.03 22.792-7.03 9.916 0 17.242 3.675 21.978 11.026 4.785 7.351 7.178 18.525 7.178 33.522 0 14.948-2.393 26.122-7.178 33.522-4.736 7.4-12.062 11.1-21.978 11.1Zm44.784-.592V648.82h13.32V765h-13.32Zm81.747 0-.666-15.096v-72.668h13.32V765h-12.654Zm-39.22-87.838v51.06c0 10.163 1.504 17.39 4.514 21.682 3.058 4.292 7.548 6.438 13.468 6.438s10.828-2.22 14.726-6.66c3.946-4.489 5.92-10.039 5.92-16.65l6.364 4.292c0 6.956-2.936 13.443-8.806 19.462-5.871 6.019-13.542 9.028-23.014 9.028-9.62 0-16.428-3.281-20.424-9.842-3.996-6.561-5.994-15.688-5.994-27.38v-51.43h13.246Zm100.998 88.504c-10.212 0-18.253-1.949-24.124-5.846-5.821-3.947-9.25-11.026-10.286-21.238l11.988-3.7c.444 8.091 2.64 13.739 6.586 16.946 3.996 3.157 9.201 4.736 15.614 4.736 7.055 0 12.186-1.184 15.392-3.552 3.207-2.417 4.81-5.895 4.81-10.434 0-5.525-1.874-9.324-5.624-11.396-3.7-2.121-9.669-4.07-17.908-5.846-10.656-2.072-18.376-4.687-23.162-7.844-4.736-3.207-7.104-8.905-7.104-17.094 0-7.647 2.886-13.542 8.658-17.686 5.822-4.144 14.06-6.216 24.716-6.216 10.558 0 18.451 2.023 23.68 6.068 5.23 3.996 8.313 10.631 9.25 19.906l-11.618 3.626c-.493-7.153-2.516-12.358-6.068-15.614-3.502-3.256-8.633-4.884-15.392-4.884-6.66 0-11.667 1.406-15.022 4.218-3.305 2.763-4.958 6.265-4.958 10.508 0 5.18 1.924 8.658 5.772 10.434 3.848 1.776 9.719 3.503 17.612 5.18 10.755 2.121 18.5 4.933 23.236 8.436 4.786 3.503 7.178 9.373 7.178 17.612 0 8.288-2.787 14.307-8.362 18.056-5.574 3.749-13.862 5.624-24.864 5.624Zm96.329-.666-16.576-87.764h13.69l12.95 79.624h-.444l17.538-79.624h10.656L394.868 765h-19.462Zm50.024 0-18.574-87.764h10.656l17.686 79.476h-.444l12.654-79.476h13.69L444.744 765H425.43Zm50.863 0v-87.838h13.32V765h-13.32Zm0-111.296h13.32v12.58h-13.32v-12.58ZM561.695 765l-.962-14.06V648.82h13.32V765h-12.358Zm-27.01.592c-9.916 0-17.292-3.651-22.126-10.952-4.835-7.351-7.252-18.574-7.252-33.67 0-15.145 2.417-26.344 7.252-33.596 4.834-7.301 12.21-10.952 22.126-10.952 8.929 0 16.477 2.343 22.644 7.03 6.166 4.637 9.25 9.521 9.25 14.652l-5.772 7.252c0-4.983-2.122-9.472-6.364-13.468-4.194-4.045-9.3-6.068-15.318-6.068-6.266 0-11.224 2.467-14.874 7.4-3.651 4.884-5.476 14.134-5.476 27.75 0 13.665 1.825 22.965 5.476 27.898 3.65 4.884 8.608 7.326 14.874 7.326 6.018 0 11.124-1.998 15.318-5.994 4.242-4.045 6.364-8.584 6.364-13.616l5.772 7.326c0 5.131-3.084 10.039-9.25 14.726-6.167 4.637-13.715 6.956-22.644 6.956Zm89.289.37c-6.265 0-11.273-1.332-15.022-3.996-3.749-2.664-5.624-7.721-5.624-15.17v-60.088h-19.314v-9.472h19.314v-19.684h13.32v19.684h27.306v9.472h-27.306v56.906c0 5.328.962 8.855 2.886 10.582 1.973 1.677 4.909 2.491 8.806 2.442 3.207 0 6.611-.296 10.212-.888v9.102c-5.229.74-10.089 1.11-14.578 1.11Zm32.645-.962V648.82h13.32V765h-13.32Zm51.726 0v-51.06c0-10.163-1.529-17.39-4.588-21.682-3.009-4.292-7.474-6.438-13.394-6.438s-10.853 2.22-14.8 6.66c-3.897 4.44-5.846 9.99-5.846 16.65l-6.364-4.292c0-6.956 2.936-13.443 8.806-19.462 5.871-6.019 13.542-9.028 23.014-9.028 9.62 0 16.428 3.281 20.424 9.842 3.996 6.561 5.994 15.688 5.994 27.38V765h-13.246Zm28.782-22.052-1.11-77.848h15.17l-1.11 77.848h-12.95Zm-.444 9.25h13.246v13.394h-13.246v-13.394Z" fill="#3C4043"/></svg>