<svg width="1920" height="1080" fill="none" xmlns="http://www.w3.org/2000/svg"><path d="m47.108 409 16.946-99.974H69.9L86.772 409h-3.404l-5.254-31.746H55.766L50.512 409h-3.404Zm9.102-34.484h21.534l-10.508-62.974h-.518L56.21 374.516ZM95.356 409v-88.282h3.108l.148 13.024V409h-3.256Zm28.12 0v-58.238c0-9.472-.888-16.551-2.664-21.238-1.776-4.687-4.711-7.03-8.806-7.03-3.799 0-6.981 1.924-9.546 5.772-2.565 3.848-3.848 8.017-3.848 12.506l-1.406-2.886c0-4.489 1.43-8.633 4.292-12.432 2.861-3.799 6.635-5.698 11.322-5.698 5.476 0 9.151 2.738 11.026 8.214 1.924 5.427 2.886 13.172 2.886 23.236V409h-3.256Zm23.664 0-13.468-88.282h3.404L150.1 406.41h-.444l13.468-85.692h3.33L152.616 409h-5.476Zm-13.764 33.892v-2.738c3.848 0 7.005-2.047 9.472-6.142 2.466-4.095 4.686-12.481 6.66-25.16l3.108.148c-2.072 13.567-4.588 22.595-7.548 27.084-2.911 4.539-6.808 6.808-11.692 6.808ZM174.27 409V292.82h3.256v106.93l-.296 9.25h-2.96Zm18.278.518c-4.785 0-8.707-1.801-11.766-5.402-3.009-3.601-4.514-7.178-4.514-10.73l1.258-3.552c0 3.749 1.381 7.523 4.144 11.322 2.812 3.749 6.167 5.624 10.064 5.624 4.193 0 7.301-2.886 9.324-8.658 2.072-5.821 3.108-16.946 3.108-33.374 0-16.527-1.036-27.676-3.108-33.448-2.023-5.821-5.131-8.732-9.324-8.732-3.897 0-7.252 1.899-10.064 5.698-2.763 3.749-4.144 7.499-4.144 11.248l-1.258-3.552c0-3.552 1.505-7.129 4.514-10.73 3.059-3.601 6.981-5.402 11.766-5.402 5.525 0 9.373 3.256 11.544 9.768 2.22 6.512 3.33 18.204 3.33 35.076s-1.11 28.564-3.33 35.076c-2.171 6.512-6.019 9.768-11.544 9.768Zm41.281 0c-6.66 0-11.199-3.231-13.616-9.694-2.368-6.463-3.552-18.155-3.552-35.076 0-16.872 1.184-28.564 3.552-35.076 2.417-6.561 6.956-9.842 13.616-9.842 6.66 0 11.198 3.281 13.616 9.842 2.417 6.512 3.626 18.204 3.626 35.076 0 16.921-1.209 28.613-3.626 35.076-2.418 6.463-6.956 9.694-13.616 9.694Zm0-2.738c4.884 0 8.436-2.886 10.656-8.658 2.22-5.821 3.33-16.946 3.33-33.374s-1.11-27.553-3.33-33.374c-2.22-5.871-5.772-8.806-10.656-8.806-4.835 0-8.362 2.935-10.582 8.806-2.22 5.821-3.33 16.946-3.33 33.374s1.11 27.553 3.33 33.374c2.22 5.772 5.747 8.658 10.582 8.658Zm56.672 2.22-.37-10.212V292.82h3.256V409h-2.886Zm-15.244.518c-5.476 0-9.349-3.231-11.618-9.694-2.22-6.463-3.33-18.179-3.33-35.15s1.11-28.687 3.33-35.15c2.269-6.463 6.142-9.694 11.618-9.694 4.835 0 8.732 1.801 11.692 5.402 2.96 3.601 4.44 7.178 4.44 10.73l-1.184 3.552c0-3.749-1.381-7.499-4.144-11.248-2.763-3.799-6.093-5.698-9.99-5.698-4.144 0-7.277 2.886-9.398 8.658-2.072 5.723-3.108 16.897-3.108 33.522 0 16.527 1.036 27.676 3.108 33.448 2.121 5.723 5.254 8.584 9.398 8.584 3.897 0 7.227-1.899 9.99-5.698 2.763-3.799 4.144-7.548 4.144-11.248l1.184 3.552c0 3.552-1.48 7.129-4.44 10.73-2.96 3.601-6.857 5.402-11.692 5.402Zm39.539-.518-13.468-88.282h3.404l13.024 85.692h-.444l13.468-85.692h3.33L320.272 409h-5.476Zm-13.764 33.892v-2.738c3.848 0 7.005-2.047 9.472-6.142 2.467-4.095 4.687-12.481 6.66-25.16l3.108.148c-2.072 13.567-4.588 22.595-7.548 27.084-2.911 4.539-6.808 6.808-11.692 6.808ZM362.45 409V292.82h3.256V409h-3.256Zm28.12 0v-58.238c0-9.472-.888-16.551-2.664-21.238-1.776-4.687-4.712-7.03-8.806-7.03-3.799 0-6.981 1.924-9.546 5.772-2.566 3.848-3.848 8.017-3.848 12.506l-1.332-2.886c0-4.489 1.406-8.633 4.218-12.432 2.861-3.799 6.66-5.698 11.396-5.698 5.426 0 9.077 2.738 10.952 8.214 1.924 5.427 2.886 13.172 2.886 23.236V409h-3.256Zm42.361 0-.444-7.03v-47.582c0-10.36-.888-18.229-2.664-23.606-1.776-5.427-5.056-8.14-9.842-8.14l-.074-2.738c6.611 0 10.903 3.108 12.876 9.324 1.974 6.167 2.96 14.677 2.96 25.53V409h-2.812Zm-15.022.518c-5.624 0-9.472-2.59-11.544-7.77-2.022-5.18-3.034-11.593-3.034-19.24 0-7.647 1.012-13.567 3.034-17.76 2.072-4.243 6.808-6.364 14.208-6.364h12.728v2.664h-12.358c-5.821 0-9.669 1.776-11.544 5.328-1.825 3.552-2.738 8.905-2.738 16.058 0 6.66.864 12.407 2.59 17.242 1.727 4.785 4.86 7.178 9.398 7.178 4.046 0 7.351-1.036 9.916-3.108 2.615-2.072 3.922-4.218 3.922-6.438l1.036 2.146c0 2.319-1.381 4.588-4.144 6.808-2.713 2.171-6.536 3.256-11.47 3.256Zm-14.208-59.052c0-5.229.346-9.768 1.036-13.616.691-3.848 1.702-7.03 3.034-9.546 1.382-2.516 3.084-4.366 5.106-5.55 2.023-1.233 4.366-1.85 7.03-1.85l.222 1.406-.148 1.332c-2.072 0-3.922.617-5.55 1.85-1.578 1.233-2.935 3.059-4.07 5.476-1.085 2.368-1.924 5.303-2.516 8.806-.592 3.453-.888 7.425-.888 11.914l-3.256-.222Zm58.843 59.052c-5.821 0-9.99-1.973-12.506-5.92s-3.799-12.555-3.848-25.826l3.256-.296c.049 11.988 1.11 19.881 3.182 23.68 2.121 3.799 5.427 5.698 9.916 5.698 4.983 0 8.337-1.406 10.064-4.218 1.727-2.812 2.59-7.153 2.59-13.024 0-7.745-1.036-13.123-3.108-16.132-2.072-3.059-5.673-5.649-10.804-7.77-5.427-2.368-9.299-4.933-11.618-7.696-2.269-2.812-3.404-8.214-3.404-16.206 0-6.315 1.184-11.544 3.552-15.688 2.368-4.144 6.537-6.216 12.506-6.216 6.019 0 10.163 2.269 12.432 6.808 2.319 4.489 3.503 12.58 3.552 24.272l-3.256.296c0-10.409-.962-17.785-2.886-22.126-1.875-4.391-5.155-6.586-9.842-6.586s-7.992 1.85-9.916 5.55c-1.875 3.7-2.812 8.362-2.812 13.986 0 6.907 1.061 11.593 3.182 14.06 2.121 2.467 5.624 4.711 10.508 6.734 5.821 2.565 9.817 5.575 11.988 9.028 2.22 3.404 3.33 9.349 3.33 17.834 0 6.857-1.135 11.865-3.404 15.022-2.22 3.157-6.438 4.736-12.654 4.736Zm75.895-.518-.444-7.03v-47.582c0-10.36-.888-18.229-2.664-23.606-1.776-5.427-5.057-8.14-9.842-8.14l-.074-2.738c6.611 0 10.903 3.108 12.876 9.324 1.973 6.167 2.96 14.677 2.96 25.53V409h-2.812Zm-15.022.518c-5.624 0-9.472-2.59-11.544-7.77-2.023-5.18-3.034-11.593-3.034-19.24 0-7.647 1.011-13.567 3.034-17.76 2.072-4.243 6.808-6.364 14.208-6.364h12.728v2.664h-12.358c-5.821 0-9.669 1.776-11.544 5.328-1.825 3.552-2.738 8.905-2.738 16.058 0 6.66.863 12.407 2.59 17.242 1.727 4.785 4.859 7.178 9.398 7.178 4.045 0 7.351-1.036 9.916-3.108 2.615-2.072 3.922-4.218 3.922-6.438l1.036 2.146c0 2.319-1.381 4.588-4.144 6.808-2.713 2.171-6.537 3.256-11.47 3.256Zm-14.208-59.052c0-5.229.345-9.768 1.036-13.616.691-3.848 1.702-7.03 3.034-9.546 1.381-2.516 3.083-4.366 5.106-5.55 2.023-1.233 4.366-1.85 7.03-1.85l.222 1.406-.148 1.332c-2.072 0-3.922.617-5.55 1.85-1.579 1.233-2.935 3.059-4.07 5.476-1.085 2.368-1.924 5.303-2.516 8.806-.592 3.453-.888 7.425-.888 11.914l-3.256-.222ZM580.879 409l-10.582-88.356h21.534l4.736 74.74h-.222l9.99-74.74h15.614L611.441 409h-30.562Zm44.77 0-10.434-88.356h15.54l9.842 74.666h-.148l4.662-74.666h21.46L655.915 409h-30.266Zm75.737.74c-14.652 0-23.433-4.095-26.344-12.284-2.911-8.189-4.366-18.993-4.366-32.412 0-14.208 1.455-25.283 4.366-33.226 2.96-7.992 11.717-11.988 26.27-11.988 14.751 0 23.507 3.996 26.27 11.988 2.812 7.992 4.218 18.919 4.218 32.782 0 2.516-.074 4.81-.222 6.882h-42.106v-13.32h22.496l-1.11 1.924c0-10.163-.765-16.995-2.294-20.498s-3.947-5.254-7.252-5.254c-3.305 0-5.797 1.825-7.474 5.476-1.677 3.601-2.516 11.865-2.516 24.79 0 12.58.839 20.819 2.516 24.716 1.677 3.897 4.218 5.846 7.622 5.846l-.074 14.578Zm.074-14.578a6.347 6.347 0 0 0 3.404-.962c1.085-.641 2.023-1.628 2.812-2.96.839-1.381 1.505-3.182 1.998-5.402.543-2.22.913-4.884 1.11-7.992l19.832 3.108c-.247 4.391-.814 8.189-1.702 11.396-.888 3.207-2.097 5.945-3.626 8.214a18.59 18.59 0 0 1-5.698 5.402c-2.269 1.332-4.933 2.294-7.992 2.886-3.009.592-6.413.888-10.212.888l-1.184-6.29 1.258-8.288ZM740.029 409v-88.356h20.942V409h-20.942Zm0-113.59h20.942v15.91h-20.942v-15.91Zm58.747 147.852c-7.055 0-12.679-.937-16.872-2.812-4.194-1.825-7.228-4.859-9.102-9.102-1.826-4.243-2.738-9.941-2.738-17.094h20.424c0 3.601.32 6.487.962 8.658.69 2.171 1.652 3.725 2.886 4.662 1.282.987 2.787 1.48 4.514 1.48a7.26 7.26 0 0 0 3.626-.962c1.134-.641 2.121-1.751 2.96-3.33.888-1.529 1.578-3.675 2.072-6.438.493-2.713.74-6.191.74-10.434v-73.038l1.776-14.208h19.166v87.024c0 7.005-.617 12.802-1.85 17.39-1.234 4.637-3.108 8.263-5.624 10.878-2.516 2.664-5.674 4.539-9.472 5.624-3.799 1.135-8.288 1.702-13.468 1.702Zm-8.288-33.818c-9.571 0-15.54-4.119-17.908-12.358-2.319-8.288-3.478-19.092-3.478-32.412 0-13.369 1.159-24.149 3.478-32.338 2.368-8.239 8.337-12.358 17.908-12.358 7.153 0 13.517 2.023 19.092 6.068 5.574 4.045 8.362 9.497 8.362 16.354l-9.694 8.436c0-4.933-.913-8.831-2.738-11.692-1.826-2.861-4.12-4.292-6.882-4.292-3.01 0-5.205 1.751-6.586 5.254-1.382 3.453-2.072 11.667-2.072 24.642 0 13.024.69 21.287 2.072 24.79 1.381 3.453 3.576 5.18 6.586 5.18 2.762 0 5.056-1.431 6.882-4.292 1.825-2.861 2.738-6.808 2.738-11.84l9.694 8.584c0 6.907-2.788 12.358-8.362 16.354-5.575 3.947-11.939 5.92-19.092 5.92Zm46.857-.444V292.82h20.868V409h-20.868Zm37.37 0v-49.506c0-10.064-.568-16.675-1.702-19.832-1.086-3.157-2.985-4.736-5.698-4.736-2.763 0-5.008 1.628-6.734 4.884-1.727 3.207-2.59 7.548-2.59 13.024l-10.138-3.034c0-7.893 2.614-14.825 7.844-20.794 5.229-6.019 12.012-9.028 20.35-9.028 9.077 0 14.578 3.799 16.502 11.396 1.973 7.597 2.96 16.823 2.96 27.676V409h-20.794Zm57.551 1.036c-6.216 0-11.125-1.381-14.726-4.144-3.552-2.812-5.328-8.165-5.328-16.058v-54.242H900.52v-14.948h11.692v-18.87h20.942v18.87h15.688v14.948h-15.688v50.024c0 3.996.518 6.561 1.554 7.696 1.085 1.135 2.763 1.702 5.032 1.702 2.22 0 4.514-.271 6.882-.814v14.578c-5.131.839-9.916 1.258-14.356 1.258ZM1005.85 409l-.44-7.03v-47.582c0-10.36-.89-18.229-2.66-23.606-1.78-5.427-5.062-8.14-9.847-8.14l-.074-2.738c6.611 0 10.901 3.108 12.881 9.324 1.97 6.167 2.96 14.677 2.96 25.53V409h-2.82Zm-15.019.518c-5.624 0-9.472-2.59-11.544-7.77-2.023-5.18-3.034-11.593-3.034-19.24 0-7.647 1.011-13.567 3.034-17.76 2.072-4.243 6.808-6.364 14.208-6.364h12.725v2.664h-12.355c-5.821 0-9.669 1.776-11.544 5.328-1.825 3.552-2.738 8.905-2.738 16.058 0 6.66.863 12.407 2.59 17.242 1.727 4.785 4.859 7.178 9.398 7.178 4.045 0 7.351-1.036 9.919-3.108 2.61-2.072 3.92-4.218 3.92-6.438l1.04 2.146c0 2.319-1.39 4.588-4.15 6.808-2.712 2.171-6.536 3.256-11.469 3.256Zm-14.208-59.052c0-5.229.345-9.768 1.036-13.616.691-3.848 1.702-7.03 3.034-9.546 1.381-2.516 3.083-4.366 5.106-5.55 2.023-1.233 4.366-1.85 7.03-1.85l.222 1.406-.148 1.332c-2.072 0-3.922.617-5.55 1.85-1.579 1.233-2.935 3.059-4.07 5.476-1.085 2.368-1.924 5.303-2.516 8.806-.592 3.453-.888 7.425-.888 11.914l-3.256-.222ZM1016.74 409l15.4-44.178-14.8-44.104h3.55l13.91 42.402 13.91-42.402h3.55l-14.8 44.104L1052.78 409h-3.62l-14.43-42.402L1020.37 409h-3.63Zm46.07 0v-88.356h3.26V409h-3.26Zm0-107.892h3.26v7.918h-3.26v-7.918Zm32.06 108.41c-5.82 0-9.99-1.973-12.51-5.92-2.51-3.947-3.8-12.555-3.85-25.826l3.26-.296c.05 11.988 1.11 19.881 3.18 23.68 2.12 3.799 5.43 5.698 9.92 5.698 4.98 0 8.34-1.406 10.06-4.218 1.73-2.812 2.59-7.153 2.59-13.024 0-7.745-1.03-13.123-3.11-16.132-2.07-3.059-5.67-5.649-10.8-7.77-5.43-2.368-9.3-4.933-11.62-7.696-2.27-2.812-3.4-8.214-3.4-16.206 0-6.315 1.18-11.544 3.55-15.688s6.54-6.216 12.51-6.216c6.01 0 10.16 2.269 12.43 6.808 2.32 4.489 3.5 12.58 3.55 24.272l-3.26.296c0-10.409-.96-17.785-2.88-22.126-1.88-4.391-5.16-6.586-9.84-6.586-4.69 0-8 1.85-9.92 5.55-1.87 3.7-2.81 8.362-2.81 13.986 0 6.907 1.06 11.593 3.18 14.06 2.12 2.467 5.62 4.711 10.51 6.734 5.82 2.565 9.82 5.575 11.99 9.028 2.22 3.404 3.33 9.349 3.33 17.834 0 6.857-1.14 11.865-3.41 15.022-2.22 3.157-6.44 4.736-12.65 4.736ZM77.818 587l-.444-7.03v-47.582c0-10.36-.888-18.229-2.664-23.606-1.776-5.427-5.057-8.14-9.842-8.14l-.074-2.738c6.61 0 10.903 3.108 12.876 9.324 1.973 6.167 2.96 14.677 2.96 25.53V587h-2.812Zm-15.022.518c-5.624 0-9.472-2.59-11.544-7.77-2.023-5.18-3.034-11.593-3.034-19.24 0-7.647 1.011-13.567 3.034-17.76 2.072-4.243 6.808-6.364 14.208-6.364h12.728v2.664H65.83c-5.821 0-9.67 1.776-11.544 5.328-1.825 3.552-2.738 8.905-2.738 16.058 0 6.66.863 12.407 2.59 17.242 1.727 4.785 4.86 7.178 9.398 7.178 4.045 0 7.35-1.036 9.916-3.108 2.615-2.072 3.922-4.218 3.922-6.438l1.036 2.146c0 2.319-1.381 4.588-4.144 6.808-2.713 2.171-6.537 3.256-11.47 3.256Zm-14.208-59.052c0-5.229.345-9.768 1.036-13.616.69-3.848 1.702-7.03 3.034-9.546 1.381-2.516 3.083-4.366 5.106-5.55 2.023-1.233 4.366-1.85 7.03-1.85l.222 1.406-.148 1.332c-2.072 0-3.922.617-5.55 1.85-1.579 1.233-2.935 3.059-4.07 5.476-1.085 2.368-1.924 5.303-2.516 8.806-.592 3.453-.888 7.425-.888 11.914l-3.256-.222ZM91.743 587v-88.282h3.108l.148 13.024V587h-3.256Zm28.12 0v-58.238c0-9.472-.888-16.551-2.664-21.238-1.776-4.687-4.712-7.03-8.806-7.03-3.799 0-6.981 1.924-9.546 5.772-2.566 3.848-3.848 8.017-3.848 12.506l-1.406-2.886c0-4.489 1.43-8.633 4.292-12.432 2.861-3.799 6.635-5.698 11.322-5.698 5.476 0 9.151 2.738 11.026 8.214 1.924 5.427 2.886 13.172 2.886 23.236V587h-3.256Zm42.583 0-.37-10.212V470.82h3.256V587h-2.886Zm-15.244.518c-5.476 0-9.348-3.231-11.618-9.694-2.22-6.463-3.33-18.179-3.33-35.15s1.11-28.687 3.33-35.15c2.27-6.463 6.142-9.694 11.618-9.694 4.835 0 8.732 1.801 11.692 5.402 2.96 3.601 4.44 7.178 4.44 10.73l-1.184 3.552c0-3.749-1.381-7.499-4.144-11.248-2.762-3.799-6.092-5.698-9.99-5.698-4.144 0-7.276 2.886-9.398 8.658-2.072 5.723-3.108 16.897-3.108 33.522 0 16.527 1.036 27.676 3.108 33.448 2.122 5.723 5.254 8.584 9.398 8.584 3.898 0 7.228-1.899 9.99-5.698 2.763-3.799 4.144-7.548 4.144-11.248l1.184 3.552c0 3.552-1.48 7.129-4.44 10.73-2.96 3.601-6.857 5.402-11.692 5.402Zm26.357 10.434 6.66-15.244h4.514l-8.584 15.244h-2.59Zm58.535-10.434c-6.66 0-11.199-3.231-13.616-9.694-2.368-6.463-3.552-18.155-3.552-35.076 0-16.872 1.184-28.564 3.552-35.076 2.417-6.561 6.956-9.842 13.616-9.842 6.66 0 11.199 3.281 13.616 9.842 2.417 6.512 3.626 18.204 3.626 35.076 0 16.921-1.209 28.613-3.626 35.076-2.417 6.463-6.956 9.694-13.616 9.694Zm0-2.738c4.884 0 8.436-2.886 10.656-8.658 2.22-5.821 3.33-16.946 3.33-33.374s-1.11-27.553-3.33-33.374c-2.22-5.871-5.772-8.806-10.656-8.806-4.835 0-8.362 2.935-10.582 8.806-2.22 5.821-3.33 16.946-3.33 33.374s1.11 27.553 3.33 33.374c2.22 5.772 5.747 8.658 10.582 8.658ZM265.04 587v-85.544h-9.916v-2.738h9.99l-.074-12.876c0-4.983 1.554-8.757 4.662-11.322 3.108-2.615 7.795-3.922 14.06-3.922h1.85v2.738h-1.776c-5.278 0-9.2.987-11.766 2.96-2.516 1.924-3.774 5.131-3.774 9.62v12.802h14.356v2.738h-14.356V587h-3.256Zm64.095.518c-6.611 0-11.125-3.947-13.542-11.84-2.368-7.893-3.552-18.845-3.552-32.856 0-16.231 1.184-27.775 3.552-34.632 2.417-6.857 6.931-10.286 13.542-10.286 6.462 0 10.73 3.281 12.802 9.842 2.072 6.561 3.132 14.553 3.182 23.976l-3.182.296c-.05-9.077-1.036-16.576-2.96-22.496-1.875-5.92-5.156-8.88-9.842-8.88-4.835 0-8.362 3.108-10.582 9.324-2.171 6.167-3.256 17.119-3.256 32.856 0 13.468 1.11 23.828 3.33 31.08 2.22 7.252 5.722 10.878 10.508 10.878 4.686 0 7.967-3.453 9.842-10.36 1.924-6.956 2.91-13.887 2.96-20.794l3.182.296c-.05 7.203-1.11 14.603-3.182 22.2-2.072 7.597-6.34 11.396-12.802 11.396Zm43.01 0c-6.66 0-11.199-3.231-13.616-9.694-2.368-6.463-3.552-18.155-3.552-35.076 0-16.872 1.184-28.564 3.552-35.076 2.417-6.561 6.956-9.842 13.616-9.842 6.66 0 11.199 3.281 13.616 9.842 2.417 6.512 3.626 18.204 3.626 35.076 0 16.921-1.209 28.613-3.626 35.076-2.417 6.463-6.956 9.694-13.616 9.694Zm0-2.738c4.884 0 8.436-2.886 10.656-8.658 2.22-5.821 3.33-16.946 3.33-33.374s-1.11-27.553-3.33-33.374c-2.22-5.871-5.772-8.806-10.656-8.806-4.835 0-8.362 2.935-10.582 8.806-2.22 5.821-3.33 16.946-3.33 33.374s1.11 27.553 3.33 33.374c2.22 5.772 5.747 8.658 10.582 8.658Zm55.71 2.22-.148-10.138v-78.144h3.182V587h-3.034Zm-25.086-88.356v58.238c0 9.472.888 16.551 2.664 21.238 1.776 4.687 4.712 7.03 8.806 7.03 3.799 0 6.981-1.924 9.546-5.772 2.615-3.848 3.922-8.017 3.922-12.506l1.332 2.886c0 4.489-1.43 8.633-4.292 12.432-2.812 3.799-6.586 5.698-11.322 5.698-5.476 0-9.176-2.713-11.1-8.14-1.874-5.427-2.812-13.197-2.812-23.31v-57.794h3.256Zm66.021 39.22c0-13.961-.74-23.655-2.22-29.082-1.431-5.427-4.021-8.14-7.77-8.14-3.996 0-7.178 1.924-9.546 5.772-2.319 3.799-3.478 7.671-3.478 11.618l-1.184-2.368c0-4.588 1.307-8.683 3.922-12.284 2.615-3.651 6.29-5.476 11.026-5.476 5.18 0 8.559 3.108 10.138 9.324 1.579 6.167 2.368 16.379 2.368 30.636h-3.256ZM442.52 587v-88.282h3.108l.148 13.098V587h-3.256Zm55.579.518c-5.822 0-9.99-1.973-12.506-5.92s-3.799-12.555-3.848-25.826l3.256-.296c.049 11.988 1.11 19.881 3.182 23.68 2.121 3.799 5.426 5.698 9.916 5.698 4.982 0 8.337-1.406 10.064-4.218 1.726-2.812 2.59-7.153 2.59-13.024 0-7.745-1.036-13.123-3.108-16.132-2.072-3.059-5.674-5.649-10.804-7.77-5.427-2.368-9.3-4.933-11.618-7.696-2.27-2.812-3.404-8.214-3.404-16.206 0-6.315 1.184-11.544 3.552-15.688 2.368-4.144 6.536-6.216 12.506-6.216 6.018 0 10.162 2.269 12.432 6.808 2.318 4.489 3.502 12.58 3.552 24.272l-3.256.296c0-10.409-.962-17.785-2.886-22.126-1.875-4.391-5.156-6.586-9.842-6.586-4.687 0-7.992 1.85-9.916 5.55-1.875 3.7-2.812 8.362-2.812 13.986 0 6.907 1.06 11.593 3.182 14.06 2.121 2.467 5.624 4.711 10.508 6.734 5.821 2.565 9.817 5.575 11.988 9.028 2.22 3.404 3.33 9.349 3.33 17.834 0 6.857-1.135 11.865-3.404 15.022-2.22 3.157-6.438 4.736-12.654 4.736Zm42.495 0c-6.709 0-11.223-4.021-13.542-12.062-2.318-8.041-3.478-18.993-3.478-32.856 0-16.181 1.209-27.676 3.626-34.484 2.418-6.808 6.882-10.212 13.394-10.212 6.611 0 11.051 3.305 13.32 9.916 2.319 6.611 3.478 18.155 3.478 34.632v1.48H526.09v-2.738h28.712l-.666.962c0-15.589-1.06-26.393-3.182-32.412-2.121-6.068-5.574-9.102-10.36-9.102-4.736 0-8.214 3.034-10.434 9.102-2.22 6.068-3.33 16.995-3.33 32.782 0 13.517 1.036 23.951 3.108 31.302 2.122 7.351 5.674 11.026 10.656 11.026v2.664Zm0-2.664c2.023 0 3.848-.617 5.476-1.85 1.678-1.233 3.084-3.083 4.218-5.55 1.184-2.516 2.072-5.673 2.664-9.472.642-3.848.987-8.362 1.036-13.542l3.182.296c-.049 4.588-.32 8.683-.814 12.284-.444 3.552-1.134 6.635-2.072 9.25-.888 2.565-1.998 4.687-3.33 6.364-1.282 1.677-2.812 2.911-4.588 3.7-1.726.789-3.65 1.184-5.772 1.184l-.37-1.184.37-1.48Zm25.078 13.098 6.66-15.244h4.514l-8.584 15.244h-2.59ZM602.599 587l15.614-88.356h3.256L605.855 587h-3.256Zm19.092-107.892h3.182l-1.406 7.918h-3.182l1.406-7.918Zm12.612 108.632c-2.911 0-5.082-.789-6.512-2.368-1.382-1.579-1.628-4.933-.74-10.064l13.024-73.852h-11.174l.518-2.738h11.174l3.256-18.722h3.256l-3.33 18.722h15.984l-.444 2.738h-15.984l-12.802 72.446c-.839 4.687-.814 7.721.074 9.102.937 1.332 2.59 1.998 4.958 1.998 1.874 0 3.823-.247 5.846-.74l-.444 2.738c-2.22.493-4.44.74-6.66.74Zm46.248-.74.74-7.03 8.436-47.582c1.826-10.36 2.319-18.229 1.48-23.606-.789-5.427-3.576-8.14-8.362-8.14l.222-2.738c6.66 0 10.434 3.108 11.322 9.324.938 6.167.444 14.701-1.48 25.604L683.363 587h-2.812Zm-14.948.518c-5.722 0-9.102-2.59-10.138-7.77-.986-5.18-.937-11.593.148-19.24 1.135-7.647 3.158-13.567 6.068-17.76 2.911-4.243 8.042-6.364 15.392-6.364h12.728l-.444 2.664h-12.284c-5.821 0-10.039 1.776-12.654 5.328-2.565 3.552-4.39 8.905-5.476 16.058-.937 6.709-1.036 12.457-.296 17.242.79 4.785 3.454 7.178 7.992 7.178 3.996 0 7.474-1.036 10.434-3.108 3.01-2.072 4.687-4.218 5.032-6.438l.814 2.146c-.444 2.368-2.22 4.637-5.328 6.808-3.058 2.171-7.054 3.256-11.988 3.256Zm-3.996-59.052c.938-5.229 2.072-9.768 3.404-13.616 1.382-3.848 2.96-7.03 4.736-9.546 1.776-2.516 3.774-4.366 5.994-5.55 2.22-1.233 4.662-1.85 7.326-1.85l.148 1.406-.37 1.332c-2.072 0-4.02.617-5.846 1.85-1.825 1.233-3.502 3.059-5.032 5.476-1.529 2.417-2.91 5.377-4.144 8.88-1.184 3.453-2.17 7.4-2.96 11.84l-3.256-.222ZM695.438 587l20.572-116.18h3.256L698.694 587h-3.256Zm17.439 0 15.614-88.356h3.256L716.133 587h-3.256Zm19.092-107.892h3.182l-1.406 7.918h-3.182l1.406-7.918Zm12.964 108.41c-6.414 0-10.04-3.897-10.878-11.692-.839-7.844-.321-18.426 1.554-31.746 2.269-16.724 5.229-28.589 8.88-35.594 3.65-7.055 8.954-10.582 15.91-10.582 6.413 0 10.064 3.281 10.952 9.842.937 6.561.69 14.553-.74 23.976l-3.256.296c1.381-9.077 1.677-16.576.888-22.496-.79-5.92-3.528-8.88-8.214-8.88-5.131 0-9.374 3.182-12.728 9.546-3.355 6.364-6.167 17.661-8.436 33.892-1.826 12.777-2.368 22.767-1.628 29.97.789 7.153 3.478 10.73 8.066 10.73 4.686 0 8.584-3.453 11.692-10.36 3.157-6.956 5.352-13.887 6.586-20.794l3.108.296c-1.283 7.203-3.626 14.603-7.03 22.2-3.355 7.597-8.264 11.396-14.726 11.396Zm41.974 0c-5.871 0-9.719-1.973-11.544-5.92-1.826-3.947-1.604-12.555.666-25.826l3.33-.296c-2.122 12.037-2.467 19.955-1.036 23.754 1.48 3.749 4.44 5.624 8.88 5.624 4.982 0 8.608-1.381 10.878-4.144 2.318-2.763 3.946-7.129 4.884-13.098 1.381-8.584 1.258-14.183-.37-16.798-1.579-2.664-4.662-5.057-9.25-7.178-4.884-2.417-8.264-4.933-10.138-7.548-1.875-2.615-2.146-8.041-.814-16.28 1.036-6.364 3.108-11.593 6.216-15.688 3.157-4.144 7.696-6.216 13.616-6.216 6.018 0 9.768 2.269 11.248 6.808 1.48 4.489 1.282 12.58-.592 24.272l-3.33.296c1.726-10.409 2.047-17.785.962-22.126-1.086-4.391-3.947-6.586-8.584-6.586-4.687 0-8.338 1.85-10.952 5.55-2.615 3.651-4.366 8.313-5.254 13.986-1.184 7.301-.938 12.087.74 14.356 1.726 2.22 4.785 4.366 9.176 6.438 5.229 2.565 8.682 5.377 10.36 8.436 1.677 3.009 1.776 9.151.296 18.426-1.036 6.907-2.985 11.939-5.846 15.096-2.862 3.108-7.376 4.662-13.542 4.662Zm22.145 10.434 9.176-15.244h4.736l-11.248 15.244h-2.664ZM49.106 797.56V676.718h3.108l.148 11.544V797.56h-3.256Zm18.278-32.042c-4.785 0-8.707-1.801-11.766-5.402-3.01-3.601-4.514-7.178-4.514-10.73l1.258-3.552c0 3.749 1.381 7.523 4.144 11.322 2.812 3.749 6.167 5.624 10.064 5.624 4.193 0 7.301-2.886 9.324-8.658 2.072-5.821 3.108-16.946 3.108-33.374 0-16.527-1.036-27.676-3.108-33.448-2.023-5.821-5.13-8.732-9.324-8.732-3.897 0-7.252 1.899-10.064 5.698-2.763 3.749-4.144 7.499-4.144 11.248l-1.258-3.552c0-3.552 1.505-7.129 4.514-10.73 3.059-3.601 6.98-5.402 11.766-5.402 5.525 0 9.373 3.256 11.544 9.768 2.22 6.512 3.33 18.204 3.33 35.076s-1.11 28.564-3.33 35.076c-2.17 6.512-6.019 9.768-11.544 9.768ZM94.012 765V648.82h3.256V765h-3.256Zm43.191 0-.148-10.138v-78.144h3.182V765h-3.034Zm-25.086-88.356v58.238c0 9.472.888 16.551 2.664 21.238 1.776 4.687 4.711 7.03 8.806 7.03 3.799 0 6.981-1.924 9.546-5.772 2.615-3.848 3.922-8.017 3.922-12.506l1.332 2.886c0 4.489-1.431 8.633-4.292 12.432-2.812 3.799-6.586 5.698-11.322 5.698-5.476 0-9.176-2.713-11.1-8.14-1.875-5.427-2.812-13.197-2.812-23.31v-57.794h3.256Zm55.439 88.874c-5.822 0-9.99-1.973-12.506-5.92s-3.799-12.555-3.848-25.826l3.256-.296c.049 11.988 1.11 19.881 3.182 23.68 2.121 3.799 5.426 5.698 9.916 5.698 4.982 0 8.337-1.406 10.064-4.218 1.726-2.812 2.59-7.153 2.59-13.024 0-7.745-1.036-13.123-3.108-16.132-2.072-3.059-5.674-5.649-10.804-7.77-5.427-2.368-9.3-4.933-11.618-7.696-2.27-2.812-3.404-8.214-3.404-16.206 0-6.315 1.184-11.544 3.552-15.688 2.368-4.144 6.536-6.216 12.506-6.216 6.018 0 10.162 2.269 12.432 6.808 2.318 4.489 3.502 12.58 3.552 24.272l-3.256.296c0-10.409-.962-17.785-2.886-22.126-1.875-4.391-5.156-6.586-9.842-6.586-4.687 0-7.992 1.85-9.916 5.55-1.875 3.7-2.812 8.362-2.812 13.986 0 6.907 1.06 11.593 3.182 14.06 2.121 2.467 5.624 4.711 10.508 6.734 5.821 2.565 9.817 5.575 11.988 9.028 2.22 3.404 3.33 9.349 3.33 17.834 0 6.857-1.135 11.865-3.404 15.022-2.22 3.157-6.438 4.736-12.654 4.736Zm84.035-.518-32.264-86.432h4.366l31.228 84.138h-.37l37-84.138h3.7L257.807 765h-6.216Zm79.18 0-38.554-86.432h3.848l38.11 84.138h-.444l30.488-84.138h4.292L337.061 765h-6.29Zm69.59 0v-86.728h3.922V765h-3.922Zm0-110.778h3.922v9.398h-3.922v-9.398ZM540.143 765V648.82h3.996V765h-3.996Zm-50.69.74c-15.096 0-27.75-3.651-37.962-10.952-10.162-7.301-15.244-18.352-15.244-33.152 0-14.849 5.082-25.9 15.244-33.152 10.212-7.301 22.866-10.952 37.962-10.952 15.195 0 27.701 3.429 37.518 10.286 9.818 6.857 14.726 13.221 14.726 19.092l-1.48 6.364c0-8.337-4.81-15.861-14.43-22.57-9.62-6.709-21.484-10.064-35.594-10.064-14.158 0-25.998 3.404-35.52 10.212-9.521 6.759-14.282 17.02-14.282 30.784s4.761 24.05 14.282 30.858c9.522 6.759 21.362 10.138 35.52 10.138 14.11 0 25.974-3.355 35.594-10.064 9.62-6.709 14.43-14.233 14.43-22.57l1.48 6.364c0 5.871-4.908 12.235-14.726 19.092-9.817 6.857-22.323 10.286-37.518 10.286Zm142.106.074c-8.633 0-15.713-1.727-21.238-5.18-5.476-3.503-8.214-10.064-8.214-19.684v-59.274h-39.146v-3.108h39.146v-21.312h3.996v21.312h58.534v3.108h-58.534v58.238c0 8.732 2.319 14.726 6.956 17.982 4.687 3.256 11.199 4.884 19.536 4.884 6.463 0 12.802-.271 19.018-.814V765c-6.561.543-13.246.814-20.054.814Zm60.876-.814V648.82h3.922V765h-3.922Zm95.904 0v-47.064c0-12.827-4.045-22.274-12.136-28.342-8.041-6.068-18.993-9.102-32.856-9.102-13.764 0-25.061 3.503-33.892 10.508-8.781 6.956-13.172 16.379-13.172 28.268l-1.998-4.958c0-10.064 4.662-18.722 13.986-25.974 9.374-7.301 21.337-10.952 35.89-10.952 14.899 0 26.64 3.305 35.224 9.916 8.634 6.561 12.95 16.675 12.95 30.34V765h-3.996Zm26.599-14.8-.074-85.1h3.404l-.074 85.1h-3.256Zm-.074 6.882h3.256v7.992h-3.256v-7.992Z" fill="#3C4043"/></svg>