<svg xmlns="http://www.w3.org/2000/svg" width="1920" height="1080" fill="none"><g clip-path="url(#a)"><path fill="#1A73E8" d="M275.476 294.126c5.005 0 7.722-1.001 8.866-3.432 10.439-20.306 18.018-30.602 28.171-42.757.286-.429.715-.858.715-1.43 0-2.145-5.148-6.578-7.293-6.578-.858 0-1.144.429-1.716 1.144-10.01 12.012-16.731 22.308-26.026 40.469-1.287-3.432-3.003-7.15-5.148-10.296-.715-1.001-1.144-1.287-1.716-1.287-3.003 0-7.865 4.29-7.865 5.72 0 .858.572 1.573 2.002 3.718 2.574 4.004 4.29 7.865 6.292 13.156.429.858 1.287 1.573 3.718 1.573Zm-31.46 12.584c-.143 2.002 0 2.431 1.573 2.431 21.593-.286 40.469-.715 60.489-.715 4.29 0 11.583.143 21.307.143.572 0 .715-.143.715-1.144 0-1.144.143-26.884 1.144-43.186l1.859-38.324c.143-1.43-.143-1.716-1.43-1.716-16.302-.143-29.887-.286-42.328-.286-14.157 0-27.313.143-38.896.715-.572 0-1.144.286-1.144 1.001-.286 3.289.143 11.297.143 20.306 0 3.861 0 9.724-.143 12.298l-3.289 48.477Zm11.297-7.865 2.717-39.182c.143-2.574.286-6.578.286-10.439 0-3.861-.143-8.866-.429-14.3a665.463 665.463 0 0 1 30.173-.715c11.583 0 22.88.143 31.746.286l-1.43 29.887c-.715 14.586-.858 30.602-1.144 33.891H303.79c-17.16 0-34.32.286-48.477.572Zm20.163 167.281c5.005 0 7.722-1.001 8.866-3.432 10.439-20.306 18.018-30.602 28.171-42.757.286-.429.715-.858.715-1.43 0-2.145-5.148-6.578-7.293-6.578-.858 0-1.144.429-1.716 1.144-10.01 12.012-16.731 22.308-26.026 40.469-1.287-3.432-3.003-7.15-5.148-10.296-.715-1.001-1.144-1.287-1.716-1.287-3.003 0-7.865 4.29-7.865 5.72 0 .858.572 1.573 2.002 3.718 2.574 4.004 4.29 7.865 6.292 13.156.429.858 1.287 1.573 3.718 1.573Zm-31.46 12.584c-.143 2.002 0 2.431 1.573 2.431 21.593-.286 40.469-.715 60.489-.715 4.29 0 11.583.143 21.307.143.572 0 .715-.143.715-1.144 0-1.144.143-26.884 1.144-43.186l1.859-38.324c.143-1.43-.143-1.716-1.43-1.716-16.302-.143-29.887-.286-42.328-.286-14.157 0-27.313.143-38.896.715-.572 0-1.144.286-1.144 1.001-.286 3.289.143 11.297.143 20.306 0 3.861 0 9.724-.143 12.298l-3.289 48.477Zm11.297-7.865 2.717-39.182c.143-2.574.286-6.578.286-10.439 0-3.861-.143-8.866-.429-14.3a665.463 665.463 0 0 1 30.173-.715c11.583 0 22.88.143 31.746.286l-1.43 29.887c-.715 14.586-.858 30.602-1.144 33.891H303.79c-17.16 0-34.32.286-48.477.572Zm20.163 167.281c5.005 0 7.722-1.001 8.866-3.432 10.439-20.306 18.018-30.602 28.171-42.757.286-.429.715-.858.715-1.43 0-2.145-5.148-6.578-7.293-6.578-.858 0-1.144.429-1.716 1.144-10.01 12.012-16.731 22.308-26.026 40.469-1.287-3.432-3.003-7.15-5.148-10.296-.715-1.001-1.144-1.287-1.716-1.287-3.003 0-7.865 4.29-7.865 5.72 0 .858.572 1.573 2.002 3.718 2.574 4.004 4.29 7.865 6.292 13.156.429.858 1.287 1.573 3.718 1.573Zm-31.46 12.584c-.143 2.002 0 2.431 1.573 2.431 21.593-.286 40.469-.715 60.489-.715 4.29 0 11.583.143 21.307.143.572 0 .715-.143.715-1.144 0-1.144.143-26.884 1.144-43.186l1.859-38.324c.143-1.43-.143-1.716-1.43-1.716-16.302-.143-29.887-.286-42.328-.286-14.157 0-27.313.143-38.896.715-.572 0-1.144.286-1.144 1.001-.286 3.289.143 11.297.143 20.306 0 3.861 0 9.724-.143 12.298l-3.289 48.477Zm11.297-7.865 2.717-39.182c.143-2.574.286-6.578.286-10.439 0-3.861-.143-8.866-.429-14.3a665.463 665.463 0 0 1 30.173-.715c11.583 0 22.88.143 31.746.286l-1.43 29.887c-.715 14.586-.858 30.602-1.144 33.891H303.79c-17.16 0-34.32.286-48.477.572Zm-9.724 182.296c21.593-.286 40.469-.715 60.489-.715 4.29 0 11.583.143 21.307.143.572 0 .715-.143.715-1.144 0-1.144.143-26.884 1.144-43.186l1.859-38.324c.143-1.43-.143-1.716-1.43-1.716-16.302-.143-29.887-.286-42.328-.286-14.157 0-27.313.143-38.896.715-.572 0-1.144.286-1.144 1.001-.286 3.289.143 11.297.143 20.306 0 3.861 0 9.724-.143 12.298l-3.289 48.477c-.143 2.002 0 2.431 1.573 2.431Zm9.724-10.296 2.717-39.182c.143-2.574.286-6.578.286-10.439 0-3.861-.143-8.866-.429-14.3a665.463 665.463 0 0 1 30.173-.715c11.583 0 22.88.143 31.746.286l-1.43 29.887c-.715 14.586-.858 30.602-1.144 33.891H303.79c-17.16 0-34.32.286-48.477.572Z"/><path fill="#3C4043" d="M379.102 311.665c3.325 0 4.389-.931 4.921-3.192l7.049-31.255c23.94-2.128 46.151-14.231 46.151-35.378 0-13.3-11.305-19.95-27.265-19.95-4.522 0-12.369.266-14.763.399-5.852.133-7.581 1.064-7.98 3.059-.399 2.66-.399 8.778-2.394 19.95-.665 4.123-1.862 9.044-3.059 14.497l-10.906 48.146c-.665 2.793 0 3.724 8.246 3.724Zm14.763-46.55 1.064-4.522c1.33-5.852 2.394-10.906 3.059-15.295.798-3.99 1.33-8.113 1.729-11.97 2.926-.266 5.852-.266 9.177-.266 10.507 0 15.561 3.458 15.561 10.374 0 13.566-15.96 20.083-30.59 21.679Zm44.101 46.55c4.256 0 6.916-.532 7.315-2.66.266-1.862.532-4.522 2.66-14.364 3.857-17.024 14.63-33.117 29.26-33.117 2.527 0 4.389-2.261 5.985-11.039.133-1.729-.532-2.66-2.128-2.66-9.576 0-19.019 6.783-26.201 16.226.133-.399.133-.798.266-1.33.532-3.458.798-8.512.665-12.103 0-1.33-1.064-1.862-3.325-1.862-6.517.133-9.177 1.596-9.443 3.325-.399 2.394.399 5.187-1.596 16.758-1.197 7.049-6.251 27.265-9.177 39.634-.665 2.66.133 3.192 5.719 3.192Zm47.46.133c3.857 0 5.586-.266 6.251-3.059l1.596-6.251c2.261-9.975 5.985-24.206 7.182-30.457 1.064-6.118 2.394-17.556 2.793-20.349.266-2.128-1.33-2.926-4.522-2.926-6.118 0-8.246 1.33-8.379 3.325-.399 4.389-1.729 12.635-2.66 18.62-1.33 6.783-5.054 21.546-7.182 30.59l-1.596 6.517c-.798 3.458.532 3.99 6.517 3.99Zm8.113-80.997c0 3.857 3.192 7.847 7.448 7.847 5.054 0 9.709-4.655 9.709-10.108 0-3.857-3.192-7.847-7.448-7.847-4.921 0-9.709 4.655-9.709 10.108Zm17.677 80.997c3.99 0 6.65-.665 7.049-2.793.266-1.862.399-4.522 2.394-13.566 3.458-14.896 17.29-35.112 26.467-35.112 2.926 0 4.389 2.793 3.192 7.448l-5.453 22.477c-2.261 9.177-3.192 16.625-3.325 18.886 0 2.128 1.33 2.66 4.123 2.66 6.118 0 8.778-.665 9.044-2.793.266-1.995 0-6.517 2.66-17.556l.133-.798c3.458-11.97 16.226-30.324 24.871-30.324 2.926 0 4.256 2.793 3.192 7.448l-5.586 22.477c-2.261 9.177-2.926 16.625-2.793 18.886 0 1.995 1.064 2.66 4.123 2.66 5.852 0 8.379-.665 8.778-2.793.266-1.862-.133-6.384 2.66-17.423l5.453-22.078c3.458-13.699-.798-21.679-10.241-21.679-8.113 0-17.157 7.448-24.472 17.689 1.463-10.773-2.261-17.689-10.773-17.689-8.778 0-18.62 8.512-26.334 19.95.399-1.596.798-3.325 1.064-5.054.665-3.458 1.064-8.512.798-12.103 0-1.197-.931-1.862-2.926-1.862-6.384.133-9.177 1.596-9.443 3.325-.266 2.394.532 5.054-1.463 16.758-1.33 7.049-7.315 31.255-9.31 39.634-.665 2.66.931 3.325 6.118 3.325Zm135.185.266c1.862 0 5.852-.665 8.113-1.995 1.729-.931 1.995-1.862 1.463-4.389-1.463-5.586-2.128-11.172-.931-16.758 1.596-6.517 3.059-13.965 4.522-19.019 1.995-7.448 5.719-13.965 6.118-16.359.399-2.394-5.586-5.187-8.512-5.187-2.128 0-2.793.266-3.724 2.128s-1.995 4.256-3.059 6.916c-2.394-5.985-7.182-9.576-13.699-9.576-19.285 0-32.186 23.142-32.186 43.358 0 13.832 6.783 21.679 16.625 21.679 9.576 0 16.226-4.921 21.014-12.369.399 3.724 1.064 7.049 1.729 9.443.532 1.729 1.33 2.128 2.527 2.128Zm-28.861-21.147c0-10.906 7.049-32.319 20.615-32.319 5.453 0 9.044 4.522 7.98 11.97l-3.857 17.157c-2.793 7.714-9.576 14.231-16.891 14.231-5.187 0-7.847-3.99-7.847-11.039Zm54.734 20.748c4.256 0 6.916-.532 7.315-2.66.266-1.862.532-4.522 2.66-14.364 3.857-17.024 14.63-33.117 29.26-33.117 2.527 0 4.389-2.261 5.985-11.039.133-1.729-.532-2.66-2.128-2.66-9.576 0-19.019 6.783-26.201 16.226.133-.399.133-.798.266-1.33.532-3.458.798-8.512.665-12.103 0-1.33-1.064-1.862-3.325-1.862-6.517.133-9.177 1.596-9.443 3.325-.399 2.394.399 5.187-1.596 16.758-1.197 7.049-6.251 27.265-9.177 39.634-.665 2.66.133 3.192 5.719 3.192Zm56.071 32.585c15.96 0 28.196-8.778 32.851-33.383 3.724-19.285 9.842-43.358 13.832-58.786.798-2.793-.931-3.325-5.985-3.325-3.857 0-6.65.532-7.049 2.793-.266 1.729-.532 4.522-2.793 13.699-3.591 14.63-18.088 34.979-27.664 34.979-3.059 0-4.389-2.793-3.192-7.448l5.453-22.344c2.394-9.31 2.926-16.359 2.793-19.152 0-1.197-1.064-2.527-3.99-2.527-5.719 0-8.512.665-8.911 2.793-.399 2.261.266 6.384-2.527 17.423l-5.453 21.812c-3.591 14.231 1.197 21.812 10.108 21.812 9.177 0 19.152-8.379 26.999-19.684-1.463 5.719-2.793 11.039-3.99 17.689-2.926 15.694-9.576 22.743-18.753 22.743-7.182 0-11.438-3.458-14.896-8.246-.798-1.33-1.33-1.463-2.128-1.463-1.995 0-6.916 5.586-7.182 7.448-.133.532-.266 1.064.665 2.261 4.123 5.453 10.374 10.906 21.812 10.906Zm85.79-31.521c9.177 0 19.551-8.246 27.531-19.817-.399 1.596-.798 3.059-1.064 4.788-.798 3.99-.798 9.31-.798 11.571.266 2.128 1.197 2.527 3.192 2.527 5.719 0 9.177-1.197 9.576-3.325.399-1.995-.399-5.054 1.596-16.758 1.33-7.049 7.182-31.255 9.177-39.634.665-2.66-.665-3.325-6.118-3.325-3.99 0-6.517.665-6.916 2.793-.399 1.862-.399 4.522-2.527 13.566-3.458 14.896-18.088 35.112-27.797 35.112-3.059 0-4.389-2.793-3.192-7.448l5.453-22.344c2.261-9.31 2.926-16.758 2.793-19.152 0-1.995-1.197-2.527-3.99-2.527-5.719 0-8.645.798-8.911 2.793s.133 6.517-2.527 17.423l-5.586 22.078c-3.325 13.832.798 21.679 10.108 21.679Zm69.238.133c12.502 0 23.408-7.581 23.408-20.482 0-17.423-22.743-18.886-22.743-27.398 0-4.256 3.857-6.783 8.911-6.783 4.389 0 7.847 2.394 8.246 5.852.133.931.532 1.197 1.463 1.197 1.463 0 4.522-.798 7.049-1.596 1.197-.266 1.995-.798 1.995-2.394 0-6.517-5.719-13.433-17.955-13.433-11.97 0-21.812 6.916-21.812 18.62 0 15.96 22.344 17.822 22.344 27.531 0 5.852-5.054 8.246-10.374 8.246-6.783 0-9.842-4.522-10.64-8.645-.399-1.33-.798-1.463-1.862-1.463-2.793 0-9.177 2.793-9.177 4.921 0 .399 0 .931.133 1.463 1.995 9.177 10.108 14.364 21.014 14.364Zm51.373 0c9.842 0 17.423-3.99 23.009-10.906.665-.931 1.596-1.729 1.33-3.458-.399-1.596-5.453-5.586-6.517-5.852-1.064-.399-2.128-.399-3.192.931-3.857 5.32-8.645 8.645-13.3 8.645-5.187 0-7.98-4.256-8.113-11.571 19.817-3.458 39.102-12.369 39.102-28.196 0-8.113-5.985-14.63-17.024-14.63-22.078 0-34.979 22.344-34.979 41.363 0 13.433 6.783 23.674 19.684 23.674Zm-5.852-31.122c1.995-10.241 7.847-23.275 19.152-23.275 4.123 0 5.985 2.527 5.985 5.719 0 9.177-13.034 15.029-25.137 17.556Zm57.866 31.122c12.502 0 23.41-7.581 23.41-20.482 0-17.423-22.745-18.886-22.745-27.398 0-4.256 3.857-6.783 8.911-6.783 4.384 0 7.844 2.394 8.244 5.852.13.931.53 1.197 1.46 1.197 1.47 0 4.53-.798 7.05-1.596 1.2-.266 2-.798 2-2.394 0-6.517-5.72-13.433-17.956-13.433-11.97 0-21.812 6.916-21.812 18.62 0 15.96 22.344 17.822 22.344 27.531 0 5.852-5.054 8.246-10.374 8.246-6.783 0-9.842-4.522-10.64-8.645-.399-1.33-.798-1.463-1.862-1.463-2.793 0-9.177 2.793-9.177 4.921 0 .399 0 .931.133 1.463 1.995 9.177 10.108 14.364 21.014 14.364Zm-590.9 172c17.955 0 30.989-9.576 30.989-26.733 0-23.674-31.787-27.797-31.787-41.895 0-7.315 6.783-11.571 14.63-11.571 7.448 0 11.039 4.256 11.571 8.911.266 1.995.931 2.527 3.591 2.128 7.315-1.596 8.512-1.995 8.246-4.389-.665-9.576-9.177-17.955-22.344-17.955-15.827 0-28.462 9.576-28.462 24.472 0 22.078 31.255 24.738 31.255 41.762 0 8.512-7.847 13.699-16.359 13.699-10.108 0-14.63-5.187-16.625-13.167-.266-.931-.798-1.463-1.862-1.463-2.527 0-6.517 1.862-8.246 3.724-1.33.931-1.33 2.66-.798 4.389 2.394 9.443 10.906 18.088 26.201 18.088Zm33.875 31.388c2.793 0 4.788-.266 6.118-.532 2.793-.532 3.857-1.064 3.99-2.527.399-2.261.798-8.911 2.394-17.955.532-2.793 1.729-7.98 3.192-14.763l.798-3.458c2.527 4.921 7.049 7.847 12.901 7.847 19.285 0 32.186-23.142 32.186-43.358 0-13.832-6.783-21.679-16.625-21.679-9.044 0-15.428 4.389-20.216 11.172-.133-2.394-.266-4.788-.532-6.916-.399-3.591-.931-3.724-2.527-3.724-2.527 0-8.246 1.197-9.443 2.261-.665.532-.665 1.33-.665 2.527 0 2.793 1.33 9.842-.798 19.285l-7.714 34.713c-1.463 6.783-2.926 12.236-3.857 17.689-1.197 6.65-1.729 14.497-1.862 17.689-.133 1.064.798 1.729 2.66 1.729Zm19.95-54.131 3.857-17.157c2.793-7.714 9.576-14.231 16.891-14.231 5.187 0 7.847 3.99 7.847 11.039 0 10.906-7.049 32.319-20.615 32.319-5.453 0-9.044-4.522-7.98-11.97Zm67.098 22.743c9.842 0 17.423-3.99 23.009-10.906.665-.931 1.596-1.729 1.33-3.458-.399-1.596-5.453-5.586-6.517-5.852-1.064-.399-2.128-.399-3.192.931-3.857 5.32-8.645 8.645-13.3 8.645-5.187 0-7.98-4.256-8.113-11.571 19.817-3.458 39.102-12.369 39.102-28.196 0-8.113-5.985-14.63-17.024-14.63-22.078 0-34.979 22.344-34.979 41.363 0 13.433 6.783 23.674 19.684 23.674Zm-5.852-31.122c1.995-10.241 7.847-23.275 19.152-23.275 4.123 0 5.985 2.527 5.985 5.719 0 9.177-13.034 15.029-25.137 17.556Zm61.47 31.122c9.443 0 18.354-4.522 23.94-14.098.399-.665.665-1.463.665-2.128 0-1.862-5.32-5.985-7.98-5.985-.931 0-1.463.266-1.995 1.064-3.724 6.384-8.645 10.374-13.832 10.374-6.517 0-8.911-5.985-8.379-13.699.798-10.64 6.517-29.792 18.886-29.792 5.586 0 7.581 4.123 7.448 8.379-.133 1.33.399 2.128 3.458 2.128 5.586 0 7.847-.665 7.98-2.527 1.064-8.778-4.921-18.753-18.088-18.753-21.679 0-31.92 22.477-32.718 40.033-.798 13.433 5.985 25.004 20.615 25.004Zm38.102-1.064c3.857 0 5.586-.266 6.251-3.059l1.596-6.251c2.261-9.975 5.985-24.206 7.182-30.457 1.064-6.118 2.394-17.556 2.793-20.349.266-2.128-1.33-2.926-4.522-2.926-6.118 0-8.246 1.33-8.379 3.325-.399 4.389-1.729 12.635-2.66 18.62-1.33 6.783-5.054 21.546-7.182 30.59l-1.596 6.517c-.798 3.458.532 3.99 6.517 3.99Zm8.113-80.997c0 3.857 3.192 7.847 7.448 7.847 5.054 0 9.709-4.655 9.709-10.108 0-3.857-3.192-7.847-7.448-7.847-4.921 0-9.709 4.655-9.709 10.108Zm22.874 80.997c3.724.133 5.719-.532 6.384-3.458l7.98-33.516c1.729-7.182 2.793-11.704 3.591-15.428l10.64-.399c1.862-.133 2.926-.931 3.99-6.783.399-2.66-.399-3.325-2.261-3.325-2.793 0-6.517.133-10.507.266.399-4.921.266-9.709.798-13.566 1.064-5.985 3.857-8.113 7.315-8.113 1.596 0 3.192.532 6.384 1.064 2.128.399 3.724-.931 4.788-6.251.665-3.059-.266-3.99-1.862-4.522-1.995-.665-5.32-1.064-7.98-1.064-11.97 0-18.886 4.788-21.014 17.822-.665 4.522-.665 10.374-1.197 15.295-2.66.133-5.187.133-7.315.133-2.527 0-3.325 1.33-4.123 5.719-.665 3.325.133 4.389 2.793 4.389 1.463 0 3.857 0 6.517-.133-.798 3.857-1.995 8.379-3.591 15.162l-7.847 32.452c-.931 3.724.798 4.256 6.517 4.256Zm36.033 0c3.857 0 5.586-.266 6.251-3.059l1.596-6.251c2.261-9.975 5.985-24.206 7.182-30.457 1.064-6.118 2.394-17.556 2.793-20.349.266-2.128-1.33-2.926-4.522-2.926-6.118 0-8.246 1.33-8.379 3.325-.399 4.389-1.729 12.635-2.66 18.62-1.33 6.783-5.054 21.546-7.182 30.59l-1.596 6.517c-.798 3.458.532 3.99 6.517 3.99Zm8.113-80.997c0 3.857 3.192 7.847 7.448 7.847 5.054 0 9.709-4.655 9.709-10.108 0-3.857-3.192-7.847-7.448-7.847-4.921 0-9.709 4.655-9.709 10.108Zm34.961 82.061c9.443 0 18.354-4.522 23.94-14.098.399-.665.665-1.463.665-2.128 0-1.862-5.32-5.985-7.98-5.985-.931 0-1.463.266-1.995 1.064-3.724 6.384-8.645 10.374-13.832 10.374-6.517 0-8.911-5.985-8.379-13.699.798-10.64 6.517-29.792 18.886-29.792 5.586 0 7.581 4.123 7.448 8.379-.133 1.33.399 2.128 3.458 2.128 5.586 0 7.847-.665 7.98-2.527 1.064-8.778-4.921-18.753-18.088-18.753-21.679 0-31.92 22.477-32.718 40.033-.798 13.433 5.985 25.004 20.615 25.004Zm63.506-1.197c4.256 0 6.916-.532 7.315-2.66.266-1.862.532-4.522 2.66-14.364 3.857-17.024 14.63-33.117 29.26-33.117 2.527 0 4.389-2.261 5.985-11.039.133-1.729-.532-2.66-2.128-2.66-9.576 0-19.019 6.783-26.201 16.226.133-.399.133-.798.266-1.33.532-3.458.798-8.512.665-12.103 0-1.33-1.064-1.862-3.325-1.862-6.517.133-9.177 1.596-9.443 3.325-.399 2.394.399 5.187-1.596 16.758-1.197 7.049-6.251 27.265-9.177 39.634-.665 2.66.133 3.192 5.719 3.192Zm60.501 1.197c10.906 0 19.418-5.852 23.674-13.433.399-.798.532-1.197.399-1.729.399-2.66-5.586-5.985-7.581-5.985-1.064 0-1.862.532-2.527 1.596-2.793 5.054-7.581 8.778-12.369 8.778-5.453 0-7.98-3.724-7.98-10.773 0-.798 0-1.862.133-2.793h5.719c16.758-.399 33.117-9.576 33.117-25.137 0-9.975-7.581-15.561-17.157-15.561-21.147 0-34.846 21.147-34.846 41.629 0 15.029 8.113 23.408 19.418 23.408Zm-4.522-33.782c2.66-9.975 8.512-20.615 18.088-20.615 3.99 0 6.384 2.394 6.384 6.251 0 9.576-10.507 13.832-19.817 14.364a27.192 27.192 0 0 1-4.655 0Zm70.374 65.17c2.926 0 6.118-.266 8.113-1.064 1.33-.266 2.128-1.33 2.261-2.261.399-2.261 0-8.778 1.729-18.62.665-3.99 1.862-8.645 2.527-11.571l7.847-34.447c1.862-8.113 3.857-13.034 5.985-18.088.931-2.128 1.862-4.123 1.995-5.187.266-2.394-5.985-4.655-9.842-4.655-1.064 0-1.862.266-2.66 2.128a189.434 189.434 0 0 0-2.926 7.182c-2.394-6.118-7.315-9.842-13.832-9.842-19.285 0-32.186 23.142-32.186 43.358 0 13.832 6.783 21.679 16.625 21.679 7.182 0 12.768-2.793 17.157-7.448l-1.064 4.522c-.798 3.591-2.128 8.778-2.926 13.034-1.33 8.379-1.33 16.492-1.064 19.551.133 1.064.665 1.729 2.261 1.729Zm-17.955-53.333c0-10.906 7.049-32.319 20.615-32.319 5.453 0 9.044 4.522 7.98 11.97l-3.857 17.157c-2.793 7.714-9.576 14.231-16.891 14.231-5.187 0-7.847-3.99-7.847-11.039Zm60.869 21.812c9.177 0 19.551-8.246 27.531-19.817-.399 1.596-.798 3.059-1.064 4.788-.798 3.99-.798 9.31-.798 11.571.266 2.128 1.197 2.527 3.192 2.527 5.719 0 9.177-1.197 9.576-3.325.399-1.995-.399-5.054 1.596-16.758 1.33-7.049 7.177-31.255 9.177-39.634.66-2.66-.67-3.325-6.118-3.325-3.99 0-6.517.665-6.916 2.793-.399 1.862-.399 4.522-2.527 13.566-3.458 14.896-18.088 35.112-27.797 35.112-3.059 0-4.389-2.793-3.192-7.448l5.453-22.344c2.261-9.31 2.926-16.758 2.793-19.152 0-1.995-1.197-2.527-3.99-2.527-5.719 0-8.645.798-8.911 2.793s.133 6.517-2.527 17.423l-5.586 22.078c-3.325 13.832.798 21.679 10.108 21.679Zm57.56-.931c3.86 0 5.59-.266 6.25-3.059l1.6-6.251c2.26-9.975 5.98-24.206 7.18-30.457 1.06-6.118 2.39-17.556 2.79-20.349.27-2.128-1.33-2.926-4.52-2.926-6.12 0-8.24 1.33-8.38 3.325-.4 4.389-1.73 12.635-2.66 18.62-1.33 6.783-5.05 21.546-7.18 30.59l-1.6 6.517c-.79 3.458.54 3.99 6.52 3.99Zm8.11-80.997c0 3.857 3.2 7.847 7.45 7.847 5.06 0 9.71-4.655 9.71-10.108 0-3.857-3.19-7.847-7.45-7.847-4.92 0-9.71 4.655-9.71 10.108Zm17.82 80.864c4.25 0 6.91-.532 7.31-2.66.27-1.862.53-4.522 2.66-14.364 3.86-17.024 14.63-33.117 29.26-33.117 2.53 0 4.39-2.261 5.99-11.039.13-1.729-.54-2.66-2.13-2.66-9.58 0-19.02 6.783-26.2 16.226.13-.399.13-.798.26-1.33.53-3.458.8-8.512.67-12.103 0-1.33-1.07-1.862-3.33-1.862-6.51.133-9.17 1.596-9.44 3.325-.4 2.394.4 5.187-1.6 16.758-1.19 7.049-6.25 27.265-9.17 39.634-.67 2.66.13 3.192 5.72 3.192Zm60.76 1.197c7.32 0 15.03-2.527 22.21-8.379.93-.798 1.6-1.596 1.73-2.394.53-1.862-3.32-7.847-5.05-7.847-.67 0-1.07 0-2 .665-4.92 4.522-9.17 7.315-14.63 7.315-5.32 0-9.17-3.458-9.17-11.305 0-1.463.13-3.059.39-4.788 3.06 1.729 6.52 2.261 9.85 2.261 15.82 0 29.52-10.507 29.52-24.472 0-10.108-7.05-16.093-17.55-16.093-21.82 0-35.38 22.876-35.38 42.693 0 13.699 7.45 22.344 20.08 22.344Zm-4.25-35.644c3.19-9.443 9.31-18.753 17.68-18.753 4.93 0 6.65 3.059 6.65 6.517 0 6.916-5.98 14.098-15.82 14.098-2.93 0-5.99-.532-8.51-1.862Zm43.49 34.58c3.99 0 6.65-.665 7.05-2.793.27-1.862.4-4.522 2.39-13.566 3.46-14.896 17.29-35.112 26.47-35.112 2.93 0 4.39 2.793 3.19 7.448l-5.45 22.477c-2.26 9.177-3.19 16.625-3.32 18.886 0 2.128 1.33 2.66 4.12 2.66 6.12 0 8.78-.665 9.04-2.793.27-1.995 0-6.517 2.66-17.556l.14-.798c3.45-11.97 16.22-30.324 24.87-30.324 2.92 0 4.25 2.793 3.19 7.448l-5.59 22.477c-2.26 9.177-2.92 16.625-2.79 18.886 0 1.995 1.06 2.66 4.12 2.66 5.85 0 8.38-.665 8.78-2.793.27-1.862-.13-6.384 2.66-17.423l5.45-22.078c3.46-13.699-.79-21.679-10.24-21.679-8.11 0-17.15 7.448-24.47 17.689 1.46-10.773-2.26-17.689-10.77-17.689-8.78 0-18.62 8.512-26.34 19.95.4-1.596.8-3.325 1.07-5.054.66-3.458 1.06-8.512.8-12.103 0-1.197-.94-1.862-2.93-1.862-6.38.133-9.18 1.596-9.44 3.325-.27 2.394.53 5.054-1.47 16.758-1.33 7.049-7.31 31.255-9.31 39.634-.66 2.66.93 3.325 6.12 3.325Zm113.24 1.064c9.84 0 17.42-3.99 23.01-10.906.67-.931 1.6-1.729 1.33-3.458-.4-1.596-5.45-5.586-6.52-5.852-1.06-.399-2.12-.399-3.19.931-3.86 5.32-8.64 8.645-13.3 8.645-5.19 0-7.98-4.256-8.11-11.571 19.82-3.458 39.1-12.369 39.1-28.196 0-8.113-5.98-14.63-17.02-14.63-22.08 0-34.98 22.344-34.98 41.363 0 13.433 6.78 23.674 19.68 23.674Zm-5.85-31.122c1.99-10.241 7.85-23.275 19.15-23.275 4.12 0 5.99 2.527 5.99 5.719 0 9.177-13.04 15.029-25.14 17.556Zm44.19 30.058c4.12 0 6.51-.665 7.04-2.793.27-1.862.4-4.522 2.4-13.566 3.46-14.896 18.35-35.112 27.8-35.112 3.05 0 4.38 2.793 3.19 7.448l-5.46 22.477c-2.26 9.177-2.92 16.625-2.79 19.019 0 1.995 1.2 2.527 3.99 2.527 5.85 0 8.51-.532 8.91-2.66.27-1.995-.13-6.384 2.53-17.556l5.59-22.078c3.45-13.699-.8-21.679-10.38-21.679-9.04 0-19.28 8.379-27.13 19.684.4-1.463.8-3.059 1.06-4.788.67-3.458.8-8.512.67-12.103 0-1.197-.93-1.862-3.33-1.862-6.51.133-9.17 1.596-9.44 3.325-.27 2.394.53 5.054-1.46 16.758-1.33 7.049-7.32 31.255-9.31 39.634-.67 2.66.8 3.325 6.12 3.325Zm75.9.266c3.46 0 8.11-.798 11.57-1.995 1.6-.665 2.26-1.596 2.53-3.325.93-5.719-.53-7.448-2.26-7.448-1.2 0-3.99 1.33-7.05 1.33-3.06 0-4.39-1.596-3.59-6.251.26-1.862.66-3.724 1.06-5.32l6.12-26.467c.4-1.33.67-2.66.93-3.99 3.99-.266 7.98-.399 11.17-.532 1.87-.133 3.06-.798 3.99-6.783.54-2.66-.4-3.325-2.39-3.325-2.79 0-6.65.133-10.77.399.93-6.384 1.19-11.97 1.19-14.763.14-2.128-1.19-2.793-3.45-2.793-6.52 0-8.92 1.064-9.31 3.325-.14 1.729-.4 8.246-1.33 14.896-2.66 0-5.19.133-7.19.133-2.52 0-3.32 1.33-4.12 5.719-.66 3.458 0 4.389 2.79 4.389 1.33 0 3.59 0 6.25-.133-.26.798-.39 1.596-.66 2.527l-5.72 25.27c-.4 2.261-.93 3.99-1.46 6.517-2.26 12.768 1.73 18.62 11.7 18.62Zm41.16.798c12.5 0 23.41-7.581 23.41-20.482 0-17.423-22.74-18.886-22.74-27.398 0-4.256 3.85-6.783 8.91-6.783 4.39 0 7.85 2.394 8.24 5.852.14.931.54 1.197 1.47 1.197 1.46 0 4.52-.798 7.05-1.596 1.19-.266 1.99-.798 1.99-2.394 0-6.517-5.72-13.433-17.95-13.433-11.97 0-21.82 6.916-21.82 18.62 0 15.96 22.35 17.822 22.35 27.531 0 5.852-5.06 8.246-10.38 8.246-6.78 0-9.84-4.522-10.64-8.645-.39-1.33-.79-1.463-1.86-1.463-2.79 0-9.17 2.793-9.17 4.921 0 .399 0 .931.13 1.463 1.99 9.177 10.11 14.364 21.01 14.364ZM378.836 655.665c11.97 0 26.6-.266 35.511-.931 1.33-.133 2.261-1.596 3.059-6.251.665-4.256.532-5.187-1.995-4.921-10.108.532-19.817.931-29.526.931l9.044-39.9c1.33-5.852 2.394-10.906 3.059-15.295 1.33-7.182 2.261-15.029 2.394-20.482.133-1.995-1.064-2.527-3.724-2.527-7.049 0-9.044.931-9.443 3.059-.399 2.66-.399 8.778-2.394 19.95-.665 4.123-1.862 9.044-3.059 14.497l-10.906 48.146c-.665 2.793 0 3.724 7.98 3.724Zm87.157.399c1.862 0 5.852-.665 8.113-1.995 1.729-.931 1.995-1.862 1.463-4.389-1.463-5.586-2.128-11.172-.931-16.758 1.596-6.517 3.059-13.965 4.522-19.019 1.995-7.448 5.719-13.965 6.118-16.359.399-2.394-5.586-5.187-8.512-5.187-2.128 0-2.793.266-3.724 2.128s-1.995 4.256-3.059 6.916c-2.394-5.985-7.182-9.576-13.699-9.576-19.285 0-32.186 23.142-32.186 43.358 0 13.832 6.783 21.679 16.625 21.679 9.576 0 16.226-4.921 21.014-12.369.399 3.724 1.064 7.049 1.729 9.443.532 1.729 1.33 2.128 2.527 2.128Zm-28.861-21.147c0-10.906 7.049-32.319 20.615-32.319 5.453 0 9.044 4.522 7.98 11.97l-3.857 17.157c-2.793 7.714-9.576 14.231-16.891 14.231-5.187 0-7.847-3.99-7.847-11.039Zm54.602 20.881c4.123 0 6.517-.665 7.049-2.793.266-1.862.399-4.522 2.394-13.566 3.458-14.896 18.354-35.112 27.797-35.112 3.059 0 4.389 2.793 3.192 7.448l-5.453 22.477c-2.261 9.177-2.926 16.625-2.793 19.019 0 1.995 1.197 2.527 3.99 2.527 5.852 0 8.512-.532 8.911-2.66.266-1.995-.133-6.384 2.527-17.556l5.586-22.078c3.458-13.699-.798-21.679-10.374-21.679-9.044 0-19.285 8.379-27.132 19.684.399-1.463.798-3.059 1.064-4.788.665-3.458.798-8.512.665-12.103 0-1.197-.931-1.862-3.325-1.862-6.517.133-9.177 1.596-9.443 3.325-.266 2.394.532 5.054-1.463 16.758-1.33 7.049-7.315 31.255-9.31 39.634-.665 2.66.798 3.325 6.118 3.325Zm73.222 32.452c16.093 0 28.728-8.246 32.319-30.324 1.064-5.985 2.527-15.561 4.389-25.536 1.064-4.788 2.394-12.502 3.99-17.423 2.66-9.044 5.985-15.694 6.517-18.088.266-2.394-5.586-4.522-8.512-4.522-2.261 0-3.059.266-3.857 2.128l-2.926 7.049c-2.261-5.985-7.182-9.709-13.699-9.709-19.285 0-32.186 23.142-32.186 43.358 0 13.832 6.783 21.679 16.625 21.679 7.98 0 13.965-3.458 18.487-8.911-.665 3.591-1.064 6.916-1.463 8.911-2.66 14.896-9.443 20.482-17.955 20.482-7.182 0-11.438-3.458-14.763-8.246-.931-1.33-1.463-1.463-2.261-1.463-1.995 0-6.916 5.586-7.182 7.448-.133.532-.266 1.064.665 2.261 4.123 5.453 10.507 10.906 21.812 10.906Zm-.931-53.333c0-10.906 7.049-32.319 20.615-32.319 5.453 0 9.044 4.522 7.98 11.97l-3.857 17.157c-2.793 7.714-9.576 14.231-16.891 14.231-5.187 0-7.847-3.99-7.847-11.039Zm60.871 21.812c9.177 0 19.551-8.246 27.531-19.817-.399 1.596-.798 3.059-1.064 4.788-.798 3.99-.798 9.31-.798 11.571.266 2.128 1.197 2.527 3.192 2.527 5.719 0 9.177-1.197 9.576-3.325.399-1.995-.399-5.054 1.596-16.758 1.33-7.049 7.182-31.255 9.177-39.634.665-2.66-.665-3.325-6.118-3.325-3.99 0-6.517.665-6.916 2.793-.399 1.862-.399 4.522-2.527 13.566-3.458 14.896-18.088 35.112-27.797 35.112-3.059 0-4.389-2.793-3.192-7.448l5.453-22.344c2.261-9.31 2.926-16.758 2.793-19.152 0-1.995-1.197-2.527-3.99-2.527-5.719 0-8.645.798-8.911 2.793s.133 6.517-2.527 17.423l-5.586 22.078c-3.325 13.832.798 21.679 10.108 21.679Zm64.447.133c9.31 0 19.152-7.98 26.733-19.019l-.798 3.99c-.665 3.591-.798 9.177-.532 11.571.133 1.995.931 2.527 3.192 2.527 5.453 0 9.31-.665 9.576-2.66.399-2.394-.532-5.586 1.596-17.556 1.197-6.916 6.916-31.122 9.177-39.368.798-2.66-.798-3.458-6.517-3.458-3.857 0-6.118.665-6.384 2.793-.266.931-.532 1.995-.798 3.724-3.325-4.522-8.113-7.581-13.566-7.581-18.753 0-33.649 25.27-34.58 45.885-.798 13.034 4.921 19.152 12.901 19.152Zm.133-21.28c1.064-12.502 12.369-32.984 22.61-32.984 3.591 0 7.315 2.394 10.108 7.98-4.256 14.763-18.487 33.782-27.664 33.782-3.192 0-5.586-2.527-5.054-8.778Zm64.979 52.668c16.093 0 28.728-8.246 32.319-30.324 1.064-5.985 2.527-15.561 4.389-25.536 1.064-4.788 2.394-12.502 3.99-17.423 2.66-9.044 5.985-15.694 6.517-18.088.266-2.394-5.586-4.522-8.512-4.522-2.261 0-3.059.266-3.857 2.128l-2.926 7.049c-2.261-5.985-7.182-9.709-13.699-9.709-19.285 0-32.186 23.142-32.186 43.358 0 13.832 6.783 21.679 16.625 21.679 7.98 0 13.965-3.458 18.487-8.911-.665 3.591-1.064 6.916-1.463 8.911-2.66 14.896-9.443 20.482-17.955 20.482-7.182 0-11.438-3.458-14.763-8.246-.931-1.33-1.463-1.463-2.261-1.463-1.995 0-6.916 5.586-7.182 7.448-.133.532-.266 1.064.665 2.261 4.123 5.453 10.507 10.906 21.812 10.906Zm-.931-53.333c0-10.906 7.049-32.319 20.615-32.319 5.453 0 9.044 4.522 7.98 11.97l-3.857 17.157c-2.793 7.714-9.576 14.231-16.891 14.231-5.187 0-7.847-3.99-7.847-11.039Zm68.743 21.945c9.842 0 17.423-3.99 23.009-10.906.665-.931 1.596-1.729 1.33-3.458-.399-1.596-5.453-5.586-6.517-5.852-1.064-.399-2.128-.399-3.192.931-3.857 5.32-8.645 8.645-13.3 8.645-5.187 0-7.98-4.256-8.113-11.571 19.817-3.458 39.102-12.369 39.102-28.196 0-8.113-5.985-14.63-17.024-14.63-22.078 0-34.979 22.344-34.979 41.363 0 13.433 6.783 23.674 19.684 23.674Zm-5.852-31.122c1.995-10.241 7.847-23.275 19.152-23.275 4.123 0 5.985 2.527 5.985 5.719 0 9.177-13.034 15.029-25.137 17.556Zm57.866 31.122c12.502 0 23.408-7.581 23.408-20.482 0-17.423-22.743-18.886-22.743-27.398 0-4.256 3.857-6.783 8.911-6.783 4.389 0 7.847 2.394 8.246 5.852.133.931.532 1.197 1.463 1.197 1.463 0 4.522-.798 7.049-1.596 1.197-.266 1.995-.798 1.995-2.394 0-6.517-5.719-13.433-17.955-13.433-11.97 0-21.812 6.916-21.812 18.62 0 15.96 22.344 17.822 22.344 27.531 0 5.852-5.054 8.246-10.374 8.246-6.783 0-9.842-4.522-10.64-8.645-.399-1.33-.798-1.463-1.862-1.463-2.793 0-9.177 2.793-9.177 4.921 0 .399 0 .931.133 1.463 1.995 9.177 10.108 14.364 21.014 14.364Zm74.024 0c7.049 0 14.63-4.522 20.216-12.369-.133 3.724 0 7.182.266 9.31.399 1.596.665 1.995 2.527 1.995 4.256 0 10.64-.665 10.64-4.788 0-.665-.133-1.463-.266-3.059-.399-8.113-.266-12.901.266-16.093 1.064-5.985 2.66-11.97 4.256-17.955 2.128-8.113 5.586-16.226 5.852-17.955.532-2.926-6.517-3.591-9.31-3.591-1.596 0-2.66.266-3.325 2.128-.399.798-.798 1.729-1.33 3.059-3.857-3.458-8.512-5.719-14.098-5.719-21.28 0-32.186 24.738-32.186 42.693 0 13.965 7.182 22.344 16.492 22.344Zm-3.192-22.876c0-10.906 5.719-31.388 20.881-31.388 3.325 0 6.251.931 9.177 3.724a268.331 268.331 0 0 0-4.522 17.423c-2.394 11.305-10.374 22.211-17.556 22.211-5.32 0-7.98-4.522-7.98-11.97Zm52.904 21.812c4.123 0 6.513-.665 7.053-2.793.26-1.862.4-4.522 2.39-13.566 3.46-14.896 18.35-35.112 27.8-35.112 3.06 0 4.39 2.793 3.19 7.448l-5.45 22.477c-2.26 9.177-2.93 16.625-2.8 19.019 0 1.995 1.2 2.527 3.99 2.527 5.86 0 8.52-.532 8.91-2.66.27-1.995-.13-6.384 2.53-17.556l5.59-22.078c3.46-13.699-.8-21.679-10.38-21.679-9.04 0-19.28 8.379-27.13 19.684.4-1.463.8-3.059 1.07-4.788.66-3.458.79-8.512.66-12.103 0-1.197-.93-1.862-3.32-1.862-6.52.133-9.18 1.596-9.45 3.325-.26 2.394.53 5.054-1.46 16.758-1.331 7.049-7.316 31.255-9.311 39.634-.665 2.66.798 3.325 6.118 3.325Zm102.743.399c1.87 0 5.19-.532 7.59-1.862 1.99-1.064 2.12-1.862 1.59-4.389-1.33-4.921-3.19-11.571-1.59-18.886l7.18-31.92c1.46-6.65 3.19-13.566 4.12-19.019 1.2-7.049 1.33-14.364 1.33-16.359 0-1.995-.8-3.059-4.39-3.059-1.73 0-3.59.133-5.05.399-2.26.399-2.8 1.33-3.06 2.66-.4 2.261-.4 8.645-1.73 16.093-.8 4.788-2.39 11.172-3.86 17.955l-.4 1.862c-2.52-4.921-7.05-7.847-12.9-7.847-19.28 0-32.18 23.142-32.18 43.358 0 13.832 6.78 21.679 16.62 21.679 9.98 0 16.76-5.32 21.55-13.167.66 3.99 1.59 8.113 2.39 10.773.53 1.596 1.33 1.729 2.79 1.729Zm-30.32-21.28c0-10.906 7.05-32.319 20.62-32.319 5.45 0 9.04 4.522 7.98 11.97l-3.86 17.157c-2.79 7.714-9.58 14.231-16.89 14.231-5.19 0-7.85-3.99-7.85-11.039Zm98.77 21.945c9.45 0 18.36-4.522 23.94-14.098.4-.665.67-1.463.67-2.128 0-1.862-5.32-5.985-7.98-5.985-.93 0-1.47.266-2 1.064-3.72 6.384-8.64 10.374-13.83 10.374-6.52 0-8.91-5.985-8.38-13.699.8-10.64 6.52-29.792 18.89-29.792 5.58 0 7.58 4.123 7.45 8.379-.14 1.33.39 2.128 3.45 2.128 5.59 0 7.85-.665 7.98-2.527 1.07-8.778-4.92-18.753-18.08-18.753-21.68 0-31.92 22.477-32.72 40.033-.8 13.433 5.98 25.004 20.61 25.004Zm37.28-1.064c3.99 0 6.39-.665 6.79-2.793.4-1.862.4-4.522 2.66-13.965 3.32-14.231 18.09-34.713 27.79-34.713 3.06 0 4.26 2.793 3.06 7.448l-5.72 23.275c-1.99 8.379-2.66 15.827-2.52 18.221 0 1.995 1.33 2.527 4.52 2.527 5.72 0 7.98-.532 8.38-2.66.4-1.995-.13-6.65 2.53-17.556l5.58-22.078c3.46-13.699-.8-21.679-9.97-21.679-9.31 0-19.42 8.113-27.4 19.418 1.2-4.256 2.26-8.512 3.06-12.236 1.59-6.65 3.06-13.433 4.12-18.886 1.2-7.049 1.6-15.295 1.6-17.556 0-1.33-1.07-1.862-3.06-1.862-2.53 0-4.52.266-5.85.532-2.66.399-3.6 1.197-3.86 2.527-.4 2.261-.53 9.044-2.4 19.684-.66 4.123-1.72 8.246-3.32 15.162l-12.24 53.865c-.53 2.66.93 3.325 6.25 3.325Zm101.27.266c1.87 0 5.86-.665 8.12-1.995 1.73-.931 1.99-1.862 1.46-4.389-1.46-5.586-2.13-11.172-.93-16.758 1.59-6.517 3.06-13.965 4.52-19.019 2-7.448 5.72-13.965 6.12-16.359.4-2.394-5.59-5.187-8.51-5.187-2.13 0-2.8.266-3.73 2.128-.93 1.862-1.99 4.256-3.06 6.916-2.39-5.985-7.18-9.576-13.7-9.576-19.28 0-32.18 23.142-32.18 43.358 0 13.832 6.78 21.679 16.62 21.679 9.58 0 16.23-4.921 21.02-12.369.4 3.724 1.06 7.049 1.73 9.443.53 1.729 1.33 2.128 2.52 2.128Zm-28.86-21.147c0-10.906 7.05-32.319 20.62-32.319 5.45 0 9.04 4.522 7.98 11.97l-3.86 17.157c-2.79 7.714-9.58 14.231-16.89 14.231-5.19 0-7.85-3.99-7.85-11.039Zm54.74 20.748c4.25 0 6.91-.532 7.31-2.66.27-1.862.53-4.522 2.66-14.364 3.86-17.024 14.63-33.117 29.26-33.117 2.53 0 4.39-2.261 5.99-11.039.13-1.729-.53-2.66-2.13-2.66-9.58 0-19.02 6.783-26.2 16.226.13-.399.13-.798.26-1.33.54-3.458.8-8.512.67-12.103 0-1.33-1.06-1.862-3.33-1.862-6.51.133-9.17 1.596-9.44 3.325-.4 2.394.4 5.187-1.59 16.758-1.2 7.049-6.26 27.265-9.18 39.634-.67 2.66.13 3.192 5.72 3.192Zm51.74 1.197c9.31 0 19.16-7.98 26.74-19.019l-.8 3.99c-.67 3.591-.8 9.177-.53 11.571.13 1.995.93 2.527 3.19 2.527 5.45 0 9.31-.665 9.58-2.66.39-2.394-.54-5.586 1.59-17.556 1.2-6.916 6.92-31.122 9.18-39.368.8-2.66-.8-3.458-6.52-3.458-3.86 0-6.12.665-6.38 2.793-.27.931-.53 1.995-.8 3.724-3.33-4.522-8.11-7.581-13.57-7.581-18.75 0-33.65 25.27-34.58 45.885-.79 13.034 4.92 19.152 12.9 19.152Zm.14-21.28c1.06-12.502 12.37-32.984 22.61-32.984 3.59 0 7.31 2.394 10.11 7.98-4.26 14.763-18.49 33.782-27.67 33.782-3.19 0-5.58-2.527-5.05-8.778Zm71.77 21.28c9.45 0 18.36-4.522 23.94-14.098.4-.665.67-1.463.67-2.128 0-1.862-5.32-5.985-7.98-5.985-.93 0-1.47.266-2 1.064-3.72 6.384-8.64 10.374-13.83 10.374-6.52 0-8.91-5.985-8.38-13.699.8-10.64 6.52-29.792 18.89-29.792 5.58 0 7.58 4.123 7.45 8.379-.14 1.33.39 2.128 3.45 2.128 5.59 0 7.85-.665 7.98-2.527 1.07-8.778-4.92-18.753-18.08-18.753-21.68 0-31.92 22.477-32.72 40.033-.8 13.433 5.98 25.004 20.61 25.004Zm50.44-.798c3.46 0 8.12-.798 11.57-1.995 1.6-.665 2.26-1.596 2.53-3.325.93-5.719-.53-7.448-2.26-7.448-1.2 0-3.99 1.33-7.05 1.33-3.06 0-4.39-1.596-3.59-6.251.27-1.862.66-3.724 1.06-5.32l6.12-26.467c.4-1.33.67-2.66.93-3.99 3.99-.266 7.98-.399 11.17-.532 1.87-.133 3.06-.798 3.99-6.783.54-2.66-.39-3.325-2.39-3.325-2.79 0-6.65.133-10.77.399.93-6.384 1.19-11.97 1.19-14.763.14-2.128-1.19-2.793-3.45-2.793-6.52 0-8.91 1.064-9.31 3.325-.14 1.729-.4 8.246-1.33 14.896-2.66 0-5.19.133-7.19.133-2.52 0-3.32 1.33-4.12 5.719-.66 3.458 0 4.389 2.79 4.389 1.33 0 3.6 0 6.26-.133-.27.798-.4 1.596-.67 2.527l-5.72 25.27c-.4 2.261-.93 3.99-1.46 6.517-2.26 12.768 1.73 18.62 11.7 18.62Zm42.14.798c9.84 0 17.42-3.99 23.01-10.906.66-.931 1.6-1.729 1.33-3.458-.4-1.596-5.45-5.586-6.52-5.852-1.06-.399-2.13-.399-3.19.931-3.86 5.32-8.64 8.645-13.3 8.645-5.19 0-7.98-4.256-8.11-11.571 19.81-3.458 39.1-12.369 39.1-28.196 0-8.113-5.99-14.63-17.02-14.63-22.08 0-34.98 22.344-34.98 41.363 0 13.433 6.78 23.674 19.68 23.674Zm-5.85-31.122c1.99-10.241 7.85-23.275 19.15-23.275 4.12 0 5.99 2.527 5.99 5.719 0 9.177-13.04 15.029-25.14 17.556Zm44.32 29.925c4.25 0 6.91-.532 7.31-2.66.27-1.862.53-4.522 2.66-14.364 3.86-17.024 14.63-33.117 29.26-33.117 2.53 0 4.39-2.261 5.99-11.039.13-1.729-.53-2.66-2.13-2.66-9.58 0-19.02 6.783-26.2 16.226.13-.399.13-.798.26-1.33.54-3.458.8-8.512.67-12.103 0-1.33-1.06-1.862-3.33-1.862-6.51.133-9.17 1.596-9.44 3.325-.4 2.394.4 5.187-1.59 16.758-1.2 7.049-6.26 27.265-9.18 39.634-.67 2.66.13 3.192 5.72 3.192Zm58.74 1.197c12.51 0 23.41-7.581 23.41-20.482 0-17.423-22.74-18.886-22.74-27.398 0-4.256 3.86-6.783 8.91-6.783 4.39 0 7.85 2.394 8.25 5.852.13.931.53 1.197 1.46 1.197 1.46 0 4.52-.798 7.05-1.596 1.2-.266 1.99-.798 1.99-2.394 0-6.517-5.72-13.433-17.95-13.433-11.97 0-21.81 6.916-21.81 18.62 0 15.96 22.34 17.822 22.34 27.531 0 5.852-5.05 8.246-10.37 8.246-6.79 0-9.85-4.522-10.64-8.645-.4-1.33-.8-1.463-1.87-1.463-2.79 0-9.17 2.793-9.17 4.921 0 .399 0 .931.13 1.463 2 9.177 10.11 14.364 21.01 14.364ZM429.11 827.665h.399c3.325 0 4.389-.931 4.921-3.192l10.906-47.88c1.33-5.852 2.394-10.906 3.059-15.295 1.33-7.182 2.261-15.029 2.394-20.482.133-1.995-1.064-2.527-3.724-2.527-7.049 0-9.044.931-9.443 3.059-.399 2.66-.399 8.778-2.394 19.95-.665 4.123-1.862 9.044-3.059 14.497l-5.852 25.669c-6.65-18.753-15.561-41.097-25.403-61.18-1.064-1.862-2.128-1.995-4.123-1.995h-.133c-7.049 0-9.044.931-9.443 3.059-.399 2.66-.399 8.778-2.394 19.95-.665 4.123-1.862 9.044-3.059 14.497l-10.906 48.146c-.665 2.793 0 3.724 8.246 3.724 3.325 0 4.389-.931 4.921-3.192l10.906-47.88c1.064-4.788 1.995-9.177 2.66-13.034 9.443 20.482 16.625 41.629 23.408 62.51.399 1.33 2.66 1.596 8.113 1.596Zm32.264 1.064c9.177 0 19.551-8.246 27.531-19.817-.399 1.596-.798 3.059-1.064 4.788-.798 3.99-.798 9.31-.798 11.571.266 2.128 1.197 2.527 3.192 2.527 5.719 0 9.177-1.197 9.576-3.325.399-1.995-.399-5.054 1.596-16.758 1.33-7.049 7.182-31.255 9.177-39.634.665-2.66-.665-3.325-6.118-3.325-3.99 0-6.517.665-6.916 2.793-.399 1.862-.399 4.522-2.527 13.566-3.458 14.896-18.088 35.112-27.797 35.112-3.059 0-4.389-2.793-3.192-7.448l5.453-22.344c2.261-9.31 2.926-16.758 2.793-19.152 0-1.995-1.197-2.527-3.99-2.527-5.719 0-8.645.798-8.911 2.793s.133 6.517-2.527 17.423l-5.586 22.078c-3.325 13.832.798 21.679 10.108 21.679Zm56.466-.931c3.99 0 6.65-.665 7.049-2.793.266-1.862.399-4.522 2.394-13.566 3.458-14.896 17.29-35.112 26.467-35.112 2.926 0 4.389 2.793 3.192 7.448l-5.453 22.477c-2.261 9.177-3.192 16.625-3.325 18.886 0 2.128 1.33 2.66 4.123 2.66 6.118 0 8.778-.665 9.044-2.793.266-1.995 0-6.517 2.66-17.556l.133-.798c3.458-11.97 16.226-30.324 24.871-30.324 2.926 0 4.256 2.793 3.192 7.448l-5.586 22.477c-2.261 9.177-2.926 16.625-2.793 18.886 0 1.995 1.064 2.66 4.123 2.66 5.852 0 8.379-.665 8.778-2.793.266-1.862-.133-6.384 2.66-17.423l5.453-22.078c3.458-13.699-.798-21.679-10.241-21.679-8.113 0-17.157 7.448-24.472 17.689 1.463-10.773-2.261-17.689-10.773-17.689-8.778 0-18.62 8.512-26.334 19.95.399-1.596.798-3.325 1.064-5.054.665-3.458 1.064-8.512.798-12.103 0-1.197-.931-1.862-2.926-1.862-6.384.133-9.177 1.596-9.443 3.325-.266 2.394.532 5.054-1.463 16.758-1.33 7.049-7.315 31.255-9.31 39.634-.665 2.66.931 3.325 6.118 3.325Zm96.748.399c1.33 0 1.995-.532 2.926-2.128 1.463-1.995 3.458-5.054 5.187-8.246 2.128 6.783 7.182 11.039 14.231 11.039 19.285 0 32.186-23.142 32.186-43.358 0-13.832-6.783-21.679-16.625-21.679-7.049 0-12.502 2.66-16.891 7.182 1.596-6.65 2.926-13.3 3.99-18.753 1.33-7.182 1.596-14.497 1.596-17.556 0-1.33-.798-1.995-2.66-1.995-2.793 0-4.522.133-5.985.399-3.059.532-3.857 1.33-4.123 2.793-.266 2.128-.399 8.645-2.128 17.822-.798 4.256-1.995 9.842-3.591 16.891l-7.182 30.989c-1.197 5.852-5.453 12.768-8.379 17.157-1.064 1.596-1.729 2.66-1.729 3.591 0 1.729 5.32 5.852 9.177 5.852Zm12.901-22.078 3.857-17.157c2.793-7.714 9.576-14.231 16.891-14.231 5.187 0 7.847 3.99 7.847 11.039 0 10.906-7.049 32.319-20.615 32.319-5.453 0-9.044-4.522-7.98-11.97Zm67.233 22.743c9.842 0 17.423-3.99 23.009-10.906.665-.931 1.596-1.729 1.33-3.458-.399-1.596-5.453-5.586-6.517-5.852-1.064-.399-2.128-.399-3.192.931-3.857 5.32-8.645 8.645-13.3 8.645-5.187 0-7.98-4.256-8.113-11.571 19.817-3.458 39.102-12.369 39.102-28.196 0-8.113-5.985-14.63-17.024-14.63-22.078 0-34.979 22.344-34.979 41.363 0 13.433 6.783 23.674 19.684 23.674Zm-5.852-31.122c1.995-10.241 7.847-23.275 19.152-23.275 4.123 0 5.985 2.527 5.985 5.719 0 9.177-13.034 15.029-25.137 17.556Zm44.319 29.925c4.256 0 6.916-.532 7.315-2.66.266-1.862.532-4.522 2.66-14.364 3.857-17.024 14.63-33.117 29.26-33.117 2.527 0 4.389-2.261 5.985-11.039.133-1.729-.532-2.66-2.128-2.66-9.576 0-19.019 6.783-26.201 16.226.133-.399.133-.798.266-1.33.532-3.458.798-8.512.665-12.103 0-1.33-1.064-1.862-3.325-1.862-6.517.133-9.177 1.596-9.443 3.325-.399 2.394.399 5.187-1.596 16.758-1.197 7.049-6.251 27.265-9.177 39.634-.665 2.66.133 3.192 5.719 3.192Zm89.768 1.197c21.945 0 32.319-24.339 32.319-40.166 0-13.167-6.916-24.871-21.014-24.871-22.078 0-32.319 24.339-32.319 40.166 0 13.3 6.783 24.871 21.014 24.871Zm-8.113-23.541c0-9.576 6.118-30.723 18.753-30.723 6.251 0 8.778 5.985 8.778 12.768 0 9.576-6.118 30.723-18.753 30.723-6.251 0-8.778-5.985-8.778-12.768Zm53.291 22.477c3.724.133 5.719-.532 6.384-3.458l7.98-33.516c1.729-7.182 2.793-11.704 3.591-15.428l10.64-.399c1.862-.133 2.926-.931 3.99-6.783.399-2.66-.399-3.325-2.261-3.325-2.793 0-6.517.133-10.507.266.399-4.921.266-9.709.798-13.566 1.064-5.985 3.857-8.113 7.315-8.113 1.596 0 3.192.532 6.384 1.064 2.128.399 3.724-.931 4.788-6.251.665-3.059-.266-3.99-1.862-4.522-1.995-.665-5.32-1.064-7.98-1.064-11.97 0-18.886 4.788-21.014 17.822-.665 4.522-.665 10.374-1.197 15.295-2.66.133-5.187.133-7.315.133-2.527 0-3.325 1.33-4.123 5.719-.665 3.325.133 4.389 2.793 4.389 1.463 0 3.857 0 6.517-.133-.798 3.857-1.995 8.379-3.591 15.162l-7.847 32.452c-.931 3.724.798 4.256 6.517 4.256Zm81.935 1.064c17.955 0 30.989-9.576 30.989-26.733 0-23.674-31.787-27.797-31.787-41.895 0-7.315 6.783-11.571 14.63-11.571 7.448 0 11.039 4.256 11.571 8.911.266 1.995.931 2.527 3.591 2.128 7.315-1.596 8.512-1.995 8.246-4.389-.665-9.576-9.177-17.955-22.344-17.955-15.827 0-28.462 9.576-28.462 24.472 0 22.078 31.255 24.738 31.255 41.762 0 8.512-7.847 13.699-16.359 13.699-10.108 0-14.63-5.187-16.625-13.167-.266-.931-.798-1.463-1.862-1.463-2.527 0-6.517 1.862-8.246 3.724-1.33.931-1.33 2.66-.798 4.389 2.394 9.443 10.906 18.088 26.201 18.088Zm53.07-.798c3.46 0 8.11-.798 11.57-1.995 1.59-.665 2.26-1.596 2.53-3.325.93-5.719-.54-7.448-2.27-7.448-1.19 0-3.99 1.33-7.04 1.33-3.06 0-4.39-1.596-3.6-6.251a54.54 54.54 0 0 1 1.07-5.32l6.12-26.467c.4-1.33.66-2.66.93-3.99 3.99-.266 7.98-.399 11.17-.532 1.86-.133 3.06-.798 3.99-6.783.53-2.66-.4-3.325-2.39-3.325-2.8 0-6.65.133-10.78.399.93-6.384 1.2-11.97 1.2-14.763.13-2.128-1.2-2.793-3.46-2.793-6.52 0-8.91 1.064-9.31 3.325-.13 1.729-.4 8.246-1.33 14.896-2.658 0-5.185.133-7.18.133-2.527 0-3.325 1.33-4.123 5.719-.665 3.458 0 4.389 2.793 4.389 1.33 0 3.591 0 6.251-.133-.266.798-.399 1.596-.665 2.527l-5.719 25.27c-.399 2.261-.931 3.99-1.463 6.517-2.261 12.768 1.729 18.62 11.706 18.62Zm37.83 32.186c15.96 0 28.2-8.778 32.85-33.383 3.73-19.285 9.85-43.358 13.84-58.786.79-2.793-.93-3.325-5.99-3.325-3.86 0-6.65.532-7.05 2.793-.26 1.729-.53 4.522-2.79 13.699-3.59 14.63-18.09 34.979-27.66 34.979-3.06 0-4.39-2.793-3.2-7.448l5.46-22.344c2.39-9.31 2.92-16.359 2.79-19.152 0-1.197-1.06-2.527-3.99-2.527-5.72 0-8.51.665-8.91 2.793-.4 2.261.26 6.384-2.53 17.423l-5.45 21.812c-3.59 14.231 1.2 21.812 10.11 21.812 9.17 0 19.15-8.379 27-19.684-1.47 5.719-2.8 11.039-3.99 17.689-2.93 15.694-9.58 22.743-18.76 22.743-7.18 0-11.44-3.458-14.89-8.246-.8-1.33-1.33-1.463-2.13-1.463-2 0-6.92 5.586-7.18 7.448-.14.532-.27 1.064.66 2.261 4.12 5.453 10.38 10.906 21.81 10.906Zm63.67-32.186c2.8 0 7.19-.931 10.91-2.527 1.6-.665 2.79-1.33 2.79-3.591.4-4.655-1.46-7.98-3.06-7.581-1.33.266-4.39 1.995-7.18 1.995-3.19 0-3.99-1.33-3.19-5.852.27-1.729.66-3.458 1.2-6.384l7.44-32.053c1.47-6.65 2.93-13.3 3.86-18.753 1.2-7.049 1.6-16.093 1.6-18.221 0-1.862-2-2.394-3.73-2.394-2.66 0-4.25.133-5.58.399-2.53.532-3.46 1.33-3.46 3.192 0 1.729-.27 8.512-1.86 17.556-.67 4.123-1.86 9.709-3.59 16.625l-7.19 31.122c-.79 3.458-1.19 5.32-1.46 6.783-2.53 12.768 2 19.684 12.5 19.684Zm40.78.798c9.84 0 17.42-3.99 23-10.906.67-.931 1.6-1.729 1.33-3.458-.39-1.596-5.45-5.586-6.51-5.852-1.07-.399-2.13-.399-3.19.931-3.86 5.32-8.65 8.645-13.3 8.645-5.19 0-7.98-4.256-8.12-11.571 19.82-3.458 39.1-12.369 39.1-28.196 0-8.113-5.98-14.63-17.02-14.63-22.08 0-34.98 22.344-34.98 41.363 0 13.433 6.78 23.674 19.69 23.674Zm-5.86-31.122c2-10.241 7.85-23.275 19.16-23.275 4.12 0 5.98 2.527 5.98 5.719 0 9.177-13.03 15.029-25.14 17.556Zm57.87 31.122c12.5 0 23.41-7.581 23.41-20.482 0-17.423-22.75-18.886-22.75-27.398 0-4.256 3.86-6.783 8.92-6.783 4.38 0 7.84 2.394 8.24 5.852.13.931.53 1.197 1.46 1.197 1.47 0 4.53-.798 7.05-1.596 1.2-.266 2-.798 2-2.394 0-6.517-5.72-13.433-17.96-13.433-11.97 0-21.81 6.916-21.81 18.62 0 15.96 22.35 17.822 22.35 27.531 0 5.852-5.06 8.246-10.38 8.246-6.78 0-9.84-4.522-10.64-8.645-.4-1.33-.8-1.463-1.86-1.463-2.79 0-9.18 2.793-9.18 4.921 0 .399 0 .931.14 1.463 1.99 9.177 10.1 14.364 21.01 14.364Z"/></g><defs><clipPath id="a"><path fill="#fff" d="M0 0h1920v1080H0z"/></clipPath></defs></svg>