<svg width="1920" height="1080" viewBox="0 0 1920 1080" fill="none" xmlns="http://www.w3.org/2000/svg">
<g clip-path="url(#clip0_3303_17458)">
<path d="M275.476 294.126C280.481 294.126 283.198 293.125 284.342 290.694C294.781 270.388 302.36 260.092 312.513 247.937C312.799 247.508 313.228 247.079 313.228 246.507C313.228 244.362 308.08 239.929 305.935 239.929C305.077 239.929 304.791 240.358 304.219 241.073C294.209 253.085 287.488 263.381 278.193 281.542C276.906 278.11 275.19 274.392 273.045 271.246C272.33 270.245 271.901 269.959 271.329 269.959C268.326 269.959 263.464 274.249 263.464 275.679C263.464 276.537 264.036 277.252 265.466 279.397C268.04 283.401 269.756 287.262 271.758 292.553C272.187 293.411 273.045 294.126 275.476 294.126ZM244.016 306.71C243.873 308.712 244.016 309.141 245.589 309.141C267.182 308.855 286.058 308.426 306.078 308.426C310.368 308.426 317.661 308.569 327.385 308.569C327.957 308.569 328.1 308.426 328.1 307.425C328.1 306.281 328.243 280.541 329.244 264.239L331.103 225.915C331.246 224.485 330.96 224.199 329.673 224.199C313.371 224.056 299.786 223.913 287.345 223.913C273.188 223.913 260.032 224.056 248.449 224.628C247.877 224.628 247.305 224.914 247.305 225.629C247.019 228.918 247.448 236.926 247.448 245.935C247.448 249.796 247.448 255.659 247.305 258.233L244.016 306.71ZM255.313 298.845L258.03 259.663C258.173 257.089 258.316 253.085 258.316 249.224C258.316 245.363 258.173 240.358 257.887 234.924C267.039 234.495 277.764 234.209 288.06 234.209C299.643 234.209 310.94 234.352 319.806 234.495L318.376 264.382C317.661 278.968 317.518 294.984 317.232 298.273H303.79C286.63 298.273 269.47 298.559 255.313 298.845ZM275.476 466.126C280.481 466.126 283.198 465.125 284.342 462.694C294.781 442.388 302.36 432.092 312.513 419.937C312.799 419.508 313.228 419.079 313.228 418.507C313.228 416.362 308.08 411.929 305.935 411.929C305.077 411.929 304.791 412.358 304.219 413.073C294.209 425.085 287.488 435.381 278.193 453.542C276.906 450.11 275.19 446.392 273.045 443.246C272.33 442.245 271.901 441.959 271.329 441.959C268.326 441.959 263.464 446.249 263.464 447.679C263.464 448.537 264.036 449.252 265.466 451.397C268.04 455.401 269.756 459.262 271.758 464.553C272.187 465.411 273.045 466.126 275.476 466.126ZM244.016 478.71C243.873 480.712 244.016 481.141 245.589 481.141C267.182 480.855 286.058 480.426 306.078 480.426C310.368 480.426 317.661 480.569 327.385 480.569C327.957 480.569 328.1 480.426 328.1 479.425C328.1 478.281 328.243 452.541 329.244 436.239L331.103 397.915C331.246 396.485 330.96 396.199 329.673 396.199C313.371 396.056 299.786 395.913 287.345 395.913C273.188 395.913 260.032 396.056 248.449 396.628C247.877 396.628 247.305 396.914 247.305 397.629C247.019 400.918 247.448 408.926 247.448 417.935C247.448 421.796 247.448 427.659 247.305 430.233L244.016 478.71ZM255.313 470.845L258.03 431.663C258.173 429.089 258.316 425.085 258.316 421.224C258.316 417.363 258.173 412.358 257.887 406.924C267.039 406.495 277.764 406.209 288.06 406.209C299.643 406.209 310.94 406.352 319.806 406.495L318.376 436.382C317.661 450.968 317.518 466.984 317.232 470.273H303.79C286.63 470.273 269.47 470.559 255.313 470.845ZM275.476 638.126C280.481 638.126 283.198 637.125 284.342 634.694C294.781 614.388 302.36 604.092 312.513 591.937C312.799 591.508 313.228 591.079 313.228 590.507C313.228 588.362 308.08 583.929 305.935 583.929C305.077 583.929 304.791 584.358 304.219 585.073C294.209 597.085 287.488 607.381 278.193 625.542C276.906 622.11 275.19 618.392 273.045 615.246C272.33 614.245 271.901 613.959 271.329 613.959C268.326 613.959 263.464 618.249 263.464 619.679C263.464 620.537 264.036 621.252 265.466 623.397C268.04 627.401 269.756 631.262 271.758 636.553C272.187 637.411 273.045 638.126 275.476 638.126ZM244.016 650.71C243.873 652.712 244.016 653.141 245.589 653.141C267.182 652.855 286.058 652.426 306.078 652.426C310.368 652.426 317.661 652.569 327.385 652.569C327.957 652.569 328.1 652.426 328.1 651.425C328.1 650.281 328.243 624.541 329.244 608.239L331.103 569.915C331.246 568.485 330.96 568.199 329.673 568.199C313.371 568.056 299.786 567.913 287.345 567.913C273.188 567.913 260.032 568.056 248.449 568.628C247.877 568.628 247.305 568.914 247.305 569.629C247.019 572.918 247.448 580.926 247.448 589.935C247.448 593.796 247.448 599.659 247.305 602.233L244.016 650.71ZM255.313 642.845L258.03 603.663C258.173 601.089 258.316 597.085 258.316 593.224C258.316 589.363 258.173 584.358 257.887 578.924C267.039 578.495 277.764 578.209 288.06 578.209C299.643 578.209 310.94 578.352 319.806 578.495L318.376 608.382C317.661 622.968 317.518 638.984 317.232 642.273H303.79C286.63 642.273 269.47 642.559 255.313 642.845ZM245.589 825.141C267.182 824.855 286.058 824.426 306.078 824.426C310.368 824.426 317.661 824.569 327.385 824.569C327.957 824.569 328.1 824.426 328.1 823.425C328.1 822.281 328.243 796.541 329.244 780.239L331.103 741.915C331.246 740.485 330.96 740.199 329.673 740.199C313.371 740.056 299.786 739.913 287.345 739.913C273.188 739.913 260.032 740.056 248.449 740.628C247.877 740.628 247.305 740.914 247.305 741.629C247.019 744.918 247.448 752.926 247.448 761.935C247.448 765.796 247.448 771.659 247.305 774.233L244.016 822.71C243.873 824.712 244.016 825.141 245.589 825.141ZM255.313 814.845L258.03 775.663C258.173 773.089 258.316 769.085 258.316 765.224C258.316 761.363 258.173 756.358 257.887 750.924C267.039 750.495 277.764 750.209 288.06 750.209C299.643 750.209 310.94 750.352 319.806 750.495L318.376 780.382C317.661 794.968 317.518 810.984 317.232 814.273H303.79C286.63 814.273 269.47 814.559 255.313 814.845Z" fill="#1A73E8"/>
<path d="M379.102 311.665C382.427 311.665 383.491 310.734 384.023 308.473L391.072 277.218C415.012 275.09 437.223 262.987 437.223 241.84C437.223 228.54 425.918 221.89 409.958 221.89C405.436 221.89 397.589 222.156 395.195 222.289C389.343 222.422 387.614 223.353 387.215 225.348C386.816 228.008 386.816 234.126 384.821 245.298C384.156 249.421 382.959 254.342 381.762 259.795L370.856 307.941C370.191 310.734 370.856 311.665 379.102 311.665ZM393.865 265.115L394.929 260.593C396.259 254.741 397.323 249.687 397.988 245.298C398.786 241.308 399.318 237.185 399.717 233.328C402.643 233.062 405.569 233.062 408.894 233.062C419.401 233.062 424.455 236.52 424.455 243.436C424.455 257.002 408.495 263.519 393.865 265.115ZM437.966 311.665C442.222 311.665 444.882 311.133 445.281 309.005C445.547 307.143 445.813 304.483 447.941 294.641C451.798 277.617 462.571 261.524 477.201 261.524C479.728 261.524 481.59 259.263 483.186 250.485C483.319 248.756 482.654 247.825 481.058 247.825C471.482 247.825 462.039 254.608 454.857 264.051C454.99 263.652 454.99 263.253 455.123 262.721C455.655 259.263 455.921 254.209 455.788 250.618C455.788 249.288 454.724 248.756 452.463 248.756C445.946 248.889 443.286 250.352 443.02 252.081C442.621 254.475 443.419 257.268 441.424 268.839C440.227 275.888 435.173 296.104 432.247 308.473C431.582 311.133 432.38 311.665 437.966 311.665ZM485.426 311.798C489.283 311.798 491.012 311.532 491.677 308.739L493.273 302.488C495.534 292.513 499.258 278.282 500.455 272.031C501.519 265.913 502.849 254.475 503.248 251.682C503.514 249.554 501.918 248.756 498.726 248.756C492.608 248.756 490.48 250.086 490.347 252.081C489.948 256.47 488.618 264.716 487.687 270.701C486.357 277.484 482.633 292.247 480.505 301.291L478.909 307.808C478.111 311.266 479.441 311.798 485.426 311.798ZM493.539 230.801C493.539 234.658 496.731 238.648 500.987 238.648C506.041 238.648 510.696 233.993 510.696 228.54C510.696 224.683 507.504 220.693 503.248 220.693C498.327 220.693 493.539 225.348 493.539 230.801ZM511.216 311.798C515.206 311.798 517.866 311.133 518.265 309.005C518.531 307.143 518.664 304.483 520.659 295.439C524.117 280.543 537.949 260.327 547.126 260.327C550.052 260.327 551.515 263.12 550.318 267.775L544.865 290.252C542.604 299.429 541.673 306.877 541.54 309.138C541.54 311.266 542.87 311.798 545.663 311.798C551.781 311.798 554.441 311.133 554.707 309.005C554.973 307.01 554.707 302.488 557.367 291.449L557.5 290.651C560.958 278.681 573.726 260.327 582.371 260.327C585.297 260.327 586.627 263.12 585.563 267.775L579.977 290.252C577.716 299.429 577.051 306.877 577.184 309.138C577.184 311.133 578.248 311.798 581.307 311.798C587.159 311.798 589.686 311.133 590.085 309.005C590.351 307.143 589.952 302.621 592.745 291.582L598.198 269.504C601.656 255.805 597.4 247.825 587.957 247.825C579.844 247.825 570.8 255.273 563.485 265.514C564.948 254.741 561.224 247.825 552.712 247.825C543.934 247.825 534.092 256.337 526.378 267.775C526.777 266.179 527.176 264.45 527.442 262.721C528.107 259.263 528.506 254.209 528.24 250.618C528.24 249.421 527.309 248.756 525.314 248.756C518.93 248.889 516.137 250.352 515.871 252.081C515.605 254.475 516.403 257.135 514.408 268.839C513.078 275.888 507.093 300.094 505.098 308.473C504.433 311.133 506.029 311.798 511.216 311.798ZM646.401 312.064C648.263 312.064 652.253 311.399 654.514 310.069C656.243 309.138 656.509 308.207 655.977 305.68C654.514 300.094 653.849 294.508 655.046 288.922C656.642 282.405 658.105 274.957 659.568 269.903C661.563 262.455 665.287 255.938 665.686 253.544C666.085 251.15 660.1 248.357 657.174 248.357C655.046 248.357 654.381 248.623 653.45 250.485C652.519 252.347 651.455 254.741 650.391 257.401C647.997 251.416 643.209 247.825 636.692 247.825C617.407 247.825 604.506 270.967 604.506 291.183C604.506 305.015 611.289 312.862 621.131 312.862C630.707 312.862 637.357 307.941 642.145 300.493C642.544 304.217 643.209 307.542 643.874 309.936C644.406 311.665 645.204 312.064 646.401 312.064ZM617.54 290.917C617.54 280.011 624.589 258.598 638.155 258.598C643.608 258.598 647.199 263.12 646.135 270.568L642.278 287.725C639.485 295.439 632.702 301.956 625.387 301.956C620.2 301.956 617.54 297.966 617.54 290.917ZM672.274 311.665C676.53 311.665 679.19 311.133 679.589 309.005C679.855 307.143 680.121 304.483 682.249 294.641C686.106 277.617 696.879 261.524 711.509 261.524C714.036 261.524 715.898 259.263 717.494 250.485C717.627 248.756 716.962 247.825 715.366 247.825C705.79 247.825 696.347 254.608 689.165 264.051C689.298 263.652 689.298 263.253 689.431 262.721C689.963 259.263 690.229 254.209 690.096 250.618C690.096 249.288 689.032 248.756 686.771 248.756C680.254 248.889 677.594 250.352 677.328 252.081C676.929 254.475 677.727 257.268 675.732 268.839C674.535 275.888 669.481 296.104 666.555 308.473C665.89 311.133 666.688 311.665 672.274 311.665ZM728.345 344.25C744.305 344.25 756.541 335.472 761.196 310.867C764.92 291.582 771.038 267.509 775.028 252.081C775.826 249.288 774.097 248.756 769.043 248.756C765.186 248.756 762.393 249.288 761.994 251.549C761.728 253.278 761.462 256.071 759.201 265.248C755.61 279.878 741.113 300.227 731.537 300.227C728.478 300.227 727.148 297.434 728.345 292.779L733.798 270.435C736.192 261.125 736.724 254.076 736.591 251.283C736.591 250.086 735.527 248.756 732.601 248.756C726.882 248.756 724.089 249.421 723.69 251.549C723.291 253.81 723.956 257.933 721.163 268.972L715.71 290.784C712.119 305.015 716.907 312.596 725.818 312.596C734.995 312.596 744.97 304.217 752.817 292.912C751.354 298.631 750.024 303.951 748.827 310.601C745.901 326.295 739.251 333.344 730.074 333.344C722.892 333.344 718.636 329.886 715.178 325.098C714.38 323.768 713.848 323.635 713.05 323.635C711.055 323.635 706.134 329.221 705.868 331.083C705.735 331.615 705.602 332.147 706.533 333.344C710.656 338.797 716.907 344.25 728.345 344.25ZM814.135 312.729C823.312 312.729 833.686 304.483 841.666 292.912C841.267 294.508 840.868 295.971 840.602 297.7C839.804 301.69 839.804 307.01 839.804 309.271C840.07 311.399 841.001 311.798 842.996 311.798C848.715 311.798 852.173 310.601 852.572 308.473C852.971 306.478 852.173 303.419 854.168 291.715C855.498 284.666 861.35 260.46 863.345 252.081C864.01 249.421 862.68 248.756 857.227 248.756C853.237 248.756 850.71 249.421 850.311 251.549C849.912 253.411 849.912 256.071 847.784 265.115C844.326 280.011 829.696 300.227 819.987 300.227C816.928 300.227 815.598 297.434 816.795 292.779L822.248 270.435C824.509 261.125 825.174 253.677 825.041 251.283C825.041 249.288 823.844 248.756 821.051 248.756C815.332 248.756 812.406 249.554 812.14 251.549C811.874 253.544 812.273 258.066 809.613 268.972L804.027 291.05C800.702 304.882 804.825 312.729 814.135 312.729ZM883.373 312.862C895.875 312.862 906.781 305.281 906.781 292.38C906.781 274.957 884.038 273.494 884.038 264.982C884.038 260.726 887.895 258.199 892.949 258.199C897.338 258.199 900.796 260.593 901.195 264.051C901.328 264.982 901.727 265.248 902.658 265.248C904.121 265.248 907.18 264.45 909.707 263.652C910.904 263.386 911.702 262.854 911.702 261.258C911.702 254.741 905.983 247.825 893.747 247.825C881.777 247.825 871.935 254.741 871.935 266.445C871.935 282.405 894.279 284.267 894.279 293.976C894.279 299.828 889.225 302.222 883.905 302.222C877.122 302.222 874.063 297.7 873.265 293.577C872.866 292.247 872.467 292.114 871.403 292.114C868.61 292.114 862.226 294.907 862.226 297.035C862.226 297.434 862.226 297.966 862.359 298.498C864.354 307.675 872.467 312.862 883.373 312.862ZM934.746 312.862C944.588 312.862 952.169 308.872 957.755 301.956C958.42 301.025 959.351 300.227 959.085 298.498C958.686 296.902 953.632 292.912 952.568 292.646C951.504 292.247 950.44 292.247 949.376 293.577C945.519 298.897 940.731 302.222 936.076 302.222C930.889 302.222 928.096 297.966 927.963 290.651C947.78 287.193 967.065 278.282 967.065 262.455C967.065 254.342 961.08 247.825 950.041 247.825C927.963 247.825 915.062 270.169 915.062 289.188C915.062 302.621 921.845 312.862 934.746 312.862ZM928.894 281.74C930.889 271.499 936.741 258.465 948.046 258.465C952.169 258.465 954.031 260.992 954.031 264.184C954.031 273.361 940.997 279.213 928.894 281.74ZM986.76 312.862C999.262 312.862 1010.17 305.281 1010.17 292.38C1010.17 274.957 987.425 273.494 987.425 264.982C987.425 260.726 991.282 258.199 996.336 258.199C1000.72 258.199 1004.18 260.593 1004.58 264.051C1004.71 264.982 1005.11 265.248 1006.04 265.248C1007.51 265.248 1010.57 264.45 1013.09 263.652C1014.29 263.386 1015.09 262.854 1015.09 261.258C1015.09 254.741 1009.37 247.825 997.134 247.825C985.164 247.825 975.322 254.741 975.322 266.445C975.322 282.405 997.666 284.267 997.666 293.976C997.666 299.828 992.612 302.222 987.292 302.222C980.509 302.222 977.45 297.7 976.652 293.577C976.253 292.247 975.854 292.114 974.79 292.114C971.997 292.114 965.613 294.907 965.613 297.035C965.613 297.434 965.613 297.966 965.746 298.498C967.741 307.675 975.854 312.862 986.76 312.862ZM395.86 484.862C413.815 484.862 426.849 475.286 426.849 458.129C426.849 434.455 395.062 430.332 395.062 416.234C395.062 408.919 401.845 404.663 409.692 404.663C417.14 404.663 420.731 408.919 421.263 413.574C421.529 415.569 422.194 416.101 424.854 415.702C432.169 414.106 433.366 413.707 433.1 411.313C432.435 401.737 423.923 393.358 410.756 393.358C394.929 393.358 382.294 402.934 382.294 417.83C382.294 439.908 413.549 442.568 413.549 459.592C413.549 468.104 405.702 473.291 397.19 473.291C387.082 473.291 382.56 468.104 380.565 460.124C380.299 459.193 379.767 458.661 378.703 458.661C376.176 458.661 372.186 460.523 370.457 462.385C369.127 463.316 369.127 465.045 369.659 466.774C372.053 476.217 380.565 484.862 395.86 484.862ZM429.735 516.25C432.528 516.25 434.523 515.984 435.853 515.718C438.646 515.186 439.71 514.654 439.843 513.191C440.242 510.93 440.641 504.28 442.237 495.236C442.769 492.443 443.966 487.256 445.429 480.473L446.227 477.015C448.754 481.936 453.276 484.862 459.128 484.862C478.413 484.862 491.314 461.72 491.314 441.504C491.314 427.672 484.531 419.825 474.689 419.825C465.645 419.825 459.261 424.214 454.473 430.997C454.34 428.603 454.207 426.209 453.941 424.081C453.542 420.49 453.01 420.357 451.414 420.357C448.887 420.357 443.168 421.554 441.971 422.618C441.306 423.15 441.306 423.948 441.306 425.145C441.306 427.938 442.636 434.987 440.508 444.43L432.794 479.143C431.331 485.926 429.868 491.379 428.937 496.832C427.74 503.482 427.208 511.329 427.075 514.521C426.942 515.585 427.873 516.25 429.735 516.25ZM449.685 462.119L453.542 444.962C456.335 437.248 463.118 430.731 470.433 430.731C475.62 430.731 478.28 434.721 478.28 441.77C478.28 452.676 471.231 474.089 457.665 474.089C452.212 474.089 448.621 469.567 449.685 462.119ZM516.783 484.862C526.625 484.862 534.206 480.872 539.792 473.956C540.457 473.025 541.388 472.227 541.122 470.498C540.723 468.902 535.669 464.912 534.605 464.646C533.541 464.247 532.477 464.247 531.413 465.577C527.556 470.897 522.768 474.222 518.113 474.222C512.926 474.222 510.133 469.966 510 462.651C529.817 459.193 549.102 450.282 549.102 434.455C549.102 426.342 543.117 419.825 532.078 419.825C510 419.825 497.099 442.169 497.099 461.188C497.099 474.621 503.882 484.862 516.783 484.862ZM510.931 453.74C512.926 443.499 518.778 430.465 530.083 430.465C534.206 430.465 536.068 432.992 536.068 436.184C536.068 445.361 523.034 451.213 510.931 453.74ZM572.401 484.862C581.844 484.862 590.755 480.34 596.341 470.764C596.74 470.099 597.006 469.301 597.006 468.636C597.006 466.774 591.686 462.651 589.026 462.651C588.095 462.651 587.563 462.917 587.031 463.715C583.307 470.099 578.386 474.089 573.199 474.089C566.682 474.089 564.288 468.104 564.82 460.39C565.618 449.75 571.337 430.598 583.706 430.598C589.292 430.598 591.287 434.721 591.154 438.977C591.021 440.307 591.553 441.105 594.612 441.105C600.198 441.105 602.459 440.44 602.592 438.578C603.656 429.8 597.671 419.825 584.504 419.825C562.825 419.825 552.584 442.302 551.786 459.858C550.988 473.291 557.771 484.862 572.401 484.862ZM610.503 483.798C614.36 483.798 616.089 483.532 616.754 480.739L618.35 474.488C620.611 464.513 624.335 450.282 625.532 444.031C626.596 437.913 627.926 426.475 628.325 423.682C628.591 421.554 626.995 420.756 623.803 420.756C617.685 420.756 615.557 422.086 615.424 424.081C615.025 428.47 613.695 436.716 612.764 442.701C611.434 449.484 607.71 464.247 605.582 473.291L603.986 479.808C603.188 483.266 604.518 483.798 610.503 483.798ZM618.616 402.801C618.616 406.658 621.808 410.648 626.064 410.648C631.118 410.648 635.773 405.993 635.773 400.54C635.773 396.683 632.581 392.693 628.325 392.693C623.404 392.693 618.616 397.348 618.616 402.801ZM641.49 483.798C645.214 483.931 647.209 483.266 647.874 480.34L655.854 446.824C657.583 439.642 658.647 435.12 659.445 431.396L670.085 430.997C671.947 430.864 673.011 430.066 674.075 424.214C674.474 421.554 673.676 420.889 671.814 420.889C669.021 420.889 665.297 421.022 661.307 421.155C661.706 416.234 661.573 411.446 662.105 407.589C663.169 401.604 665.962 399.476 669.42 399.476C671.016 399.476 672.612 400.008 675.804 400.54C677.932 400.939 679.528 399.609 680.592 394.289C681.257 391.23 680.326 390.299 678.73 389.767C676.735 389.102 673.41 388.703 670.75 388.703C658.78 388.703 651.864 393.491 649.736 406.525C649.071 411.047 649.071 416.899 648.539 421.82C645.879 421.953 643.352 421.953 641.224 421.953C638.697 421.953 637.899 423.283 637.101 427.672C636.436 430.997 637.234 432.061 639.894 432.061C641.357 432.061 643.751 432.061 646.411 431.928C645.613 435.785 644.416 440.307 642.82 447.09L634.973 479.542C634.042 483.266 635.771 483.798 641.49 483.798ZM677.523 483.798C681.38 483.798 683.109 483.532 683.774 480.739L685.37 474.488C687.631 464.513 691.355 450.282 692.552 444.031C693.616 437.913 694.946 426.475 695.345 423.682C695.611 421.554 694.015 420.756 690.823 420.756C684.705 420.756 682.577 422.086 682.444 424.081C682.045 428.47 680.715 436.716 679.784 442.701C678.454 449.484 674.73 464.247 672.602 473.291L671.006 479.808C670.208 483.266 671.538 483.798 677.523 483.798ZM685.636 402.801C685.636 406.658 688.828 410.648 693.084 410.648C698.138 410.648 702.793 405.993 702.793 400.54C702.793 396.683 699.601 392.693 695.345 392.693C690.424 392.693 685.636 397.348 685.636 402.801ZM720.597 484.862C730.04 484.862 738.951 480.34 744.537 470.764C744.936 470.099 745.202 469.301 745.202 468.636C745.202 466.774 739.882 462.651 737.222 462.651C736.291 462.651 735.759 462.917 735.227 463.715C731.503 470.099 726.582 474.089 721.395 474.089C714.878 474.089 712.484 468.104 713.016 460.39C713.814 449.75 719.533 430.598 731.902 430.598C737.488 430.598 739.483 434.721 739.35 438.977C739.217 440.307 739.749 441.105 742.808 441.105C748.394 441.105 750.655 440.44 750.788 438.578C751.852 429.8 745.867 419.825 732.7 419.825C711.021 419.825 700.78 442.302 699.982 459.858C699.184 473.291 705.967 484.862 720.597 484.862ZM784.103 483.665C788.359 483.665 791.019 483.133 791.418 481.005C791.684 479.143 791.95 476.483 794.078 466.641C797.935 449.617 808.708 433.524 823.338 433.524C825.865 433.524 827.727 431.263 829.323 422.485C829.456 420.756 828.791 419.825 827.195 419.825C817.619 419.825 808.176 426.608 800.994 436.051C801.127 435.652 801.127 435.253 801.26 434.721C801.792 431.263 802.058 426.209 801.925 422.618C801.925 421.288 800.861 420.756 798.6 420.756C792.083 420.889 789.423 422.352 789.157 424.081C788.758 426.475 789.556 429.268 787.561 440.839C786.364 447.888 781.31 468.104 778.384 480.473C777.719 483.133 778.517 483.665 784.103 483.665ZM844.604 484.862C855.51 484.862 864.022 479.01 868.278 471.429C868.677 470.631 868.81 470.232 868.677 469.7C869.076 467.04 863.091 463.715 861.096 463.715C860.032 463.715 859.234 464.247 858.569 465.311C855.776 470.365 850.988 474.089 846.2 474.089C840.747 474.089 838.22 470.365 838.22 463.316C838.22 462.518 838.22 461.454 838.353 460.523H844.072C860.83 460.124 877.189 450.947 877.189 435.386C877.189 425.411 869.608 419.825 860.032 419.825C838.885 419.825 825.186 440.972 825.186 461.454C825.186 476.483 833.299 484.862 844.604 484.862ZM840.082 451.08C842.742 441.105 848.594 430.465 858.17 430.465C862.16 430.465 864.554 432.859 864.554 436.716C864.554 446.292 854.047 450.548 844.737 451.08C843.141 451.213 841.545 451.213 840.082 451.08ZM910.456 516.25C913.382 516.25 916.574 515.984 918.569 515.186C919.899 514.92 920.697 513.856 920.83 512.925C921.229 510.664 920.83 504.147 922.559 494.305C923.224 490.315 924.421 485.66 925.086 482.734L932.933 448.287C934.795 440.174 936.79 435.253 938.918 430.199C939.849 428.071 940.78 426.076 940.913 425.012C941.179 422.618 934.928 420.357 931.071 420.357C930.007 420.357 929.209 420.623 928.411 422.485C927.613 424.347 926.549 426.874 925.485 429.667C923.091 423.549 918.17 419.825 911.653 419.825C892.368 419.825 879.467 442.967 879.467 463.183C879.467 477.015 886.25 484.862 896.092 484.862C903.274 484.862 908.86 482.069 913.249 477.414L912.185 481.936C911.387 485.527 910.057 490.714 909.259 494.97C907.929 503.349 907.929 511.462 908.195 514.521C908.328 515.585 908.86 516.25 910.456 516.25ZM892.501 462.917C892.501 452.011 899.55 430.598 913.116 430.598C918.569 430.598 922.16 435.12 921.096 442.568L917.239 459.725C914.446 467.439 907.663 473.956 900.348 473.956C895.161 473.956 892.501 469.966 892.501 462.917ZM953.37 484.729C962.547 484.729 972.921 476.483 980.901 464.912C980.502 466.508 980.103 467.971 979.837 469.7C979.039 473.69 979.039 479.01 979.039 481.271C979.305 483.399 980.236 483.798 982.231 483.798C987.95 483.798 991.408 482.601 991.807 480.473C992.206 478.478 991.408 475.419 993.403 463.715C994.733 456.666 1000.58 432.46 1002.58 424.081C1003.24 421.421 1001.91 420.756 996.462 420.756C992.472 420.756 989.945 421.421 989.546 423.549C989.147 425.411 989.147 428.071 987.019 437.115C983.561 452.011 968.931 472.227 959.222 472.227C956.163 472.227 954.833 469.434 956.03 464.779L961.483 442.435C963.744 433.125 964.409 425.677 964.276 423.283C964.276 421.288 963.079 420.756 960.286 420.756C954.567 420.756 951.641 421.554 951.375 423.549C951.109 425.544 951.508 430.066 948.848 440.972L943.262 463.05C939.937 476.882 944.06 484.729 953.37 484.729ZM1010.93 483.798C1014.79 483.798 1016.52 483.532 1017.18 480.739L1018.78 474.488C1021.04 464.513 1024.76 450.282 1025.96 444.031C1027.02 437.913 1028.35 426.475 1028.75 423.682C1029.02 421.554 1027.42 420.756 1024.23 420.756C1018.11 420.756 1015.99 422.086 1015.85 424.081C1015.45 428.47 1014.12 436.716 1013.19 442.701C1011.86 449.484 1008.14 464.247 1006.01 473.291L1004.41 479.808C1003.62 483.266 1004.95 483.798 1010.93 483.798ZM1019.04 402.801C1019.04 406.658 1022.24 410.648 1026.49 410.648C1031.55 410.648 1036.2 405.993 1036.2 400.54C1036.2 396.683 1033.01 392.693 1028.75 392.693C1023.83 392.693 1019.04 397.348 1019.04 402.801ZM1036.86 483.665C1041.11 483.665 1043.77 483.133 1044.17 481.005C1044.44 479.143 1044.7 476.483 1046.83 466.641C1050.69 449.617 1061.46 433.524 1076.09 433.524C1078.62 433.524 1080.48 431.263 1082.08 422.485C1082.21 420.756 1081.54 419.825 1079.95 419.825C1070.37 419.825 1060.93 426.608 1053.75 436.051C1053.88 435.652 1053.88 435.253 1054.01 434.721C1054.54 431.263 1054.81 426.209 1054.68 422.618C1054.68 421.288 1053.61 420.756 1051.35 420.756C1044.84 420.889 1042.18 422.352 1041.91 424.081C1041.51 426.475 1042.31 429.268 1040.31 440.839C1039.12 447.888 1034.06 468.104 1031.14 480.473C1030.47 483.133 1031.27 483.665 1036.86 483.665ZM1097.62 484.862C1104.94 484.862 1112.65 482.335 1119.83 476.483C1120.76 475.685 1121.43 474.887 1121.56 474.089C1122.09 472.227 1118.24 466.242 1116.51 466.242C1115.84 466.242 1115.44 466.242 1114.51 466.907C1109.59 471.429 1105.34 474.222 1099.88 474.222C1094.56 474.222 1090.71 470.764 1090.71 462.917C1090.71 461.454 1090.84 459.858 1091.1 458.129C1094.16 459.858 1097.62 460.39 1100.95 460.39C1116.77 460.39 1130.47 449.883 1130.47 435.918C1130.47 425.81 1123.42 419.825 1112.92 419.825C1091.1 419.825 1077.54 442.701 1077.54 462.518C1077.54 476.217 1084.99 484.862 1097.62 484.862ZM1093.37 449.218C1096.56 439.775 1102.68 430.465 1111.05 430.465C1115.98 430.465 1117.7 433.524 1117.7 436.982C1117.7 443.898 1111.72 451.08 1101.88 451.08C1098.95 451.08 1095.89 450.548 1093.37 449.218ZM1136.86 483.798C1140.85 483.798 1143.51 483.133 1143.91 481.005C1144.18 479.143 1144.31 476.483 1146.3 467.439C1149.76 452.543 1163.59 432.327 1172.77 432.327C1175.7 432.327 1177.16 435.12 1175.96 439.775L1170.51 462.252C1168.25 471.429 1167.32 478.877 1167.19 481.138C1167.19 483.266 1168.52 483.798 1171.31 483.798C1177.43 483.798 1180.09 483.133 1180.35 481.005C1180.62 479.01 1180.35 474.488 1183.01 463.449L1183.15 462.651C1186.6 450.681 1199.37 432.327 1208.02 432.327C1210.94 432.327 1212.27 435.12 1211.21 439.775L1205.62 462.252C1203.36 471.429 1202.7 478.877 1202.83 481.138C1202.83 483.133 1203.89 483.798 1206.95 483.798C1212.8 483.798 1215.33 483.133 1215.73 481.005C1216 479.143 1215.6 474.621 1218.39 463.582L1223.84 441.504C1227.3 427.805 1223.05 419.825 1213.6 419.825C1205.49 419.825 1196.45 427.273 1189.13 437.514C1190.59 426.741 1186.87 419.825 1178.36 419.825C1169.58 419.825 1159.74 428.337 1152.02 439.775C1152.42 438.179 1152.82 436.45 1153.09 434.721C1153.75 431.263 1154.15 426.209 1153.89 422.618C1153.89 421.421 1152.95 420.756 1150.96 420.756C1144.58 420.889 1141.78 422.352 1141.52 424.081C1141.25 426.475 1142.05 429.135 1140.05 440.839C1138.72 447.888 1132.74 472.094 1130.74 480.473C1130.08 483.133 1131.67 483.798 1136.86 483.798ZM1250.1 484.862C1259.94 484.862 1267.52 480.872 1273.11 473.956C1273.78 473.025 1274.71 472.227 1274.44 470.498C1274.04 468.902 1268.99 464.912 1267.92 464.646C1266.86 464.247 1265.8 464.247 1264.73 465.577C1260.87 470.897 1256.09 474.222 1251.43 474.222C1246.24 474.222 1243.45 469.966 1243.32 462.651C1263.14 459.193 1282.42 450.282 1282.42 434.455C1282.42 426.342 1276.44 419.825 1265.4 419.825C1243.32 419.825 1230.42 442.169 1230.42 461.188C1230.42 474.621 1237.2 484.862 1250.1 484.862ZM1244.25 453.74C1246.24 443.499 1252.1 430.465 1263.4 430.465C1267.52 430.465 1269.39 432.992 1269.39 436.184C1269.39 445.361 1256.35 451.213 1244.25 453.74ZM1288.44 483.798C1292.56 483.798 1294.95 483.133 1295.48 481.005C1295.75 479.143 1295.88 476.483 1297.88 467.439C1301.34 452.543 1316.23 432.327 1325.68 432.327C1328.73 432.327 1330.06 435.12 1328.87 439.775L1323.41 462.252C1321.15 471.429 1320.49 478.877 1320.62 481.271C1320.62 483.266 1321.82 483.798 1324.61 483.798C1330.46 483.798 1333.12 483.266 1333.52 481.138C1333.79 479.143 1333.39 474.754 1336.05 463.582L1341.64 441.504C1345.09 427.805 1340.84 419.825 1331.26 419.825C1322.22 419.825 1311.98 428.204 1304.13 439.509C1304.53 438.046 1304.93 436.45 1305.19 434.721C1305.86 431.263 1305.99 426.209 1305.86 422.618C1305.86 421.421 1304.93 420.756 1302.53 420.756C1296.02 420.889 1293.36 422.352 1293.09 424.081C1292.82 426.475 1293.62 429.135 1291.63 440.839C1290.3 447.888 1284.31 472.094 1282.32 480.473C1281.65 483.133 1283.12 483.798 1288.44 483.798ZM1364.34 484.064C1367.8 484.064 1372.45 483.266 1375.91 482.069C1377.51 481.404 1378.17 480.473 1378.44 478.744C1379.37 473.025 1377.91 471.296 1376.18 471.296C1374.98 471.296 1372.19 472.626 1369.13 472.626C1366.07 472.626 1364.74 471.03 1365.54 466.375C1365.8 464.513 1366.2 462.651 1366.6 461.055L1372.72 434.588C1373.12 433.258 1373.39 431.928 1373.65 430.598C1377.64 430.332 1381.63 430.199 1384.82 430.066C1386.69 429.933 1387.88 429.268 1388.81 423.283C1389.35 420.623 1388.41 419.958 1386.42 419.958C1383.63 419.958 1379.77 420.091 1375.65 420.357C1376.58 413.973 1376.84 408.387 1376.84 405.594C1376.98 403.466 1375.65 402.801 1373.39 402.801C1366.87 402.801 1364.47 403.865 1364.08 406.126C1363.94 407.855 1363.68 414.372 1362.75 421.022C1360.09 421.022 1357.56 421.155 1355.56 421.155C1353.04 421.155 1352.24 422.485 1351.44 426.874C1350.78 430.332 1351.44 431.263 1354.23 431.263C1355.56 431.263 1357.82 431.263 1360.48 431.13C1360.22 431.928 1360.09 432.726 1359.82 433.657L1354.1 458.927C1353.7 461.188 1353.17 462.917 1352.64 465.444C1350.38 478.212 1354.37 484.064 1364.34 484.064ZM1405.5 484.862C1418 484.862 1428.91 477.281 1428.91 464.38C1428.91 446.957 1406.17 445.494 1406.17 436.982C1406.17 432.726 1410.02 430.199 1415.08 430.199C1419.47 430.199 1422.93 432.593 1423.32 436.051C1423.46 436.982 1423.86 437.248 1424.79 437.248C1426.25 437.248 1429.31 436.45 1431.84 435.652C1433.03 435.386 1433.83 434.854 1433.83 433.258C1433.83 426.741 1428.11 419.825 1415.88 419.825C1403.91 419.825 1394.06 426.741 1394.06 438.445C1394.06 454.405 1416.41 456.267 1416.41 465.976C1416.41 471.828 1411.35 474.222 1406.03 474.222C1399.25 474.222 1396.19 469.7 1395.39 465.577C1395 464.247 1394.6 464.114 1393.53 464.114C1390.74 464.114 1384.36 466.907 1384.36 469.035C1384.36 469.434 1384.36 469.966 1384.49 470.498C1386.48 479.675 1394.6 484.862 1405.5 484.862ZM378.836 655.665C390.806 655.665 405.436 655.399 414.347 654.734C415.677 654.601 416.608 653.138 417.406 648.483C418.071 644.227 417.938 643.296 415.411 643.562C405.303 644.094 395.594 644.493 385.885 644.493L394.929 604.593C396.259 598.741 397.323 593.687 397.988 589.298C399.318 582.116 400.249 574.269 400.382 568.816C400.515 566.821 399.318 566.289 396.658 566.289C389.609 566.289 387.614 567.22 387.215 569.348C386.816 572.008 386.816 578.126 384.821 589.298C384.156 593.421 382.959 598.342 381.762 603.795L370.856 651.941C370.191 654.734 370.856 655.665 378.836 655.665ZM465.993 656.064C467.855 656.064 471.845 655.399 474.106 654.069C475.835 653.138 476.101 652.207 475.569 649.68C474.106 644.094 473.441 638.508 474.638 632.922C476.234 626.405 477.697 618.957 479.16 613.903C481.155 606.455 484.879 599.938 485.278 597.544C485.677 595.15 479.692 592.357 476.766 592.357C474.638 592.357 473.973 592.623 473.042 594.485C472.111 596.347 471.047 598.741 469.983 601.401C467.589 595.416 462.801 591.825 456.284 591.825C436.999 591.825 424.098 614.967 424.098 635.183C424.098 649.015 430.881 656.862 440.723 656.862C450.299 656.862 456.949 651.941 461.737 644.493C462.136 648.217 462.801 651.542 463.466 653.936C463.998 655.665 464.796 656.064 465.993 656.064ZM437.132 634.917C437.132 624.011 444.181 602.598 457.747 602.598C463.2 602.598 466.791 607.12 465.727 614.568L461.87 631.725C459.077 639.439 452.294 645.956 444.979 645.956C439.792 645.956 437.132 641.966 437.132 634.917ZM491.734 655.798C495.857 655.798 498.251 655.133 498.783 653.005C499.049 651.143 499.182 648.483 501.177 639.439C504.635 624.543 519.531 604.327 528.974 604.327C532.033 604.327 533.363 607.12 532.166 611.775L526.713 634.252C524.452 643.429 523.787 650.877 523.92 653.271C523.92 655.266 525.117 655.798 527.91 655.798C533.762 655.798 536.422 655.266 536.821 653.138C537.087 651.143 536.688 646.754 539.348 635.582L544.934 613.504C548.392 599.805 544.136 591.825 534.56 591.825C525.516 591.825 515.275 600.204 507.428 611.509C507.827 610.046 508.226 608.45 508.492 606.721C509.157 603.263 509.29 598.209 509.157 594.618C509.157 593.421 508.226 592.756 505.832 592.756C499.315 592.889 496.655 594.352 496.389 596.081C496.123 598.475 496.921 601.135 494.926 612.839C493.596 619.888 487.611 644.094 485.616 652.473C484.951 655.133 486.414 655.798 491.734 655.798ZM564.956 688.25C581.049 688.25 593.684 680.004 597.275 657.926C598.339 651.941 599.802 642.365 601.664 632.39C602.728 627.602 604.058 619.888 605.654 614.967C608.314 605.923 611.639 599.273 612.171 596.879C612.437 594.485 606.585 592.357 603.659 592.357C601.398 592.357 600.6 592.623 599.802 594.485L596.876 601.534C594.615 595.549 589.694 591.825 583.177 591.825C563.892 591.825 550.991 614.967 550.991 635.183C550.991 649.015 557.774 656.862 567.616 656.862C575.596 656.862 581.581 653.404 586.103 647.951C585.438 651.542 585.039 654.867 584.64 656.862C581.98 671.758 575.197 677.344 566.685 677.344C559.503 677.344 555.247 673.886 551.922 669.098C550.991 667.768 550.459 667.635 549.661 667.635C547.666 667.635 542.745 673.221 542.479 675.083C542.346 675.615 542.213 676.147 543.144 677.344C547.267 682.797 553.651 688.25 564.956 688.25ZM564.025 634.917C564.025 624.011 571.074 602.598 584.64 602.598C590.093 602.598 593.684 607.12 592.62 614.568L588.763 631.725C585.97 639.439 579.187 645.956 571.872 645.956C566.685 645.956 564.025 641.966 564.025 634.917ZM624.896 656.729C634.073 656.729 644.447 648.483 652.427 636.912C652.028 638.508 651.629 639.971 651.363 641.7C650.565 645.69 650.565 651.01 650.565 653.271C650.831 655.399 651.762 655.798 653.757 655.798C659.476 655.798 662.934 654.601 663.333 652.473C663.732 650.478 662.934 647.419 664.929 635.715C666.259 628.666 672.111 604.46 674.106 596.081C674.771 593.421 673.441 592.756 667.988 592.756C663.998 592.756 661.471 593.421 661.072 595.549C660.673 597.411 660.673 600.071 658.545 609.115C655.087 624.011 640.457 644.227 630.748 644.227C627.689 644.227 626.359 641.434 627.556 636.779L633.009 614.435C635.27 605.125 635.935 597.677 635.802 595.283C635.802 593.288 634.605 592.756 631.812 592.756C626.093 592.756 623.167 593.554 622.901 595.549C622.635 597.544 623.034 602.066 620.374 612.972L614.788 635.05C611.463 648.882 615.586 656.729 624.896 656.729ZM689.343 656.862C698.653 656.862 708.495 648.882 716.076 637.843L715.278 641.833C714.613 645.424 714.48 651.01 714.746 653.404C714.879 655.399 715.677 655.931 717.938 655.931C723.391 655.931 727.248 655.266 727.514 653.271C727.913 650.877 726.982 647.685 729.11 635.715C730.307 628.799 736.026 604.593 738.287 596.347C739.085 593.687 737.489 592.889 731.77 592.889C727.913 592.889 725.652 593.554 725.386 595.682C725.12 596.613 724.854 597.677 724.588 599.406C721.263 594.884 716.475 591.825 711.022 591.825C692.269 591.825 677.373 617.095 676.442 637.71C675.644 650.744 681.363 656.862 689.343 656.862ZM689.476 635.582C690.54 623.08 701.845 602.598 712.086 602.598C715.677 602.598 719.401 604.992 722.194 610.578C717.938 625.341 703.707 644.36 694.53 644.36C691.338 644.36 688.944 641.833 689.476 635.582ZM754.455 688.25C770.548 688.25 783.183 680.004 786.774 657.926C787.838 651.941 789.301 642.365 791.163 632.39C792.227 627.602 793.557 619.888 795.153 614.967C797.813 605.923 801.138 599.273 801.67 596.879C801.936 594.485 796.084 592.357 793.158 592.357C790.897 592.357 790.099 592.623 789.301 594.485L786.375 601.534C784.114 595.549 779.193 591.825 772.676 591.825C753.391 591.825 740.49 614.967 740.49 635.183C740.49 649.015 747.273 656.862 757.115 656.862C765.095 656.862 771.08 653.404 775.602 647.951C774.937 651.542 774.538 654.867 774.139 656.862C771.479 671.758 764.696 677.344 756.184 677.344C749.002 677.344 744.746 673.886 741.421 669.098C740.49 667.768 739.958 667.635 739.16 667.635C737.165 667.635 732.244 673.221 731.978 675.083C731.845 675.615 731.712 676.147 732.643 677.344C736.766 682.797 743.15 688.25 754.455 688.25ZM753.524 634.917C753.524 624.011 760.573 602.598 774.139 602.598C779.592 602.598 783.183 607.12 782.119 614.568L778.262 631.725C775.469 639.439 768.686 645.956 761.371 645.956C756.184 645.956 753.524 641.966 753.524 634.917ZM822.267 656.862C832.109 656.862 839.69 652.872 845.276 645.956C845.941 645.025 846.872 644.227 846.606 642.498C846.207 640.902 841.153 636.912 840.089 636.646C839.025 636.247 837.961 636.247 836.897 637.577C833.04 642.897 828.252 646.222 823.597 646.222C818.41 646.222 815.617 641.966 815.484 634.651C835.301 631.193 854.586 622.282 854.586 606.455C854.586 598.342 848.601 591.825 837.562 591.825C815.484 591.825 802.583 614.169 802.583 633.188C802.583 646.621 809.366 656.862 822.267 656.862ZM816.415 625.74C818.41 615.499 824.262 602.465 835.567 602.465C839.69 602.465 841.552 604.992 841.552 608.184C841.552 617.361 828.518 623.213 816.415 625.74ZM874.281 656.862C886.783 656.862 897.689 649.281 897.689 636.38C897.689 618.957 874.946 617.494 874.946 608.982C874.946 604.726 878.803 602.199 883.857 602.199C888.246 602.199 891.704 604.593 892.103 608.051C892.236 608.982 892.635 609.248 893.566 609.248C895.029 609.248 898.088 608.45 900.615 607.652C901.812 607.386 902.61 606.854 902.61 605.258C902.61 598.741 896.891 591.825 884.655 591.825C872.685 591.825 862.843 598.741 862.843 610.445C862.843 626.405 885.187 628.267 885.187 637.976C885.187 643.828 880.133 646.222 874.813 646.222C868.03 646.222 864.971 641.7 864.173 637.577C863.774 636.247 863.375 636.114 862.311 636.114C859.518 636.114 853.134 638.907 853.134 641.035C853.134 641.434 853.134 641.966 853.267 642.498C855.262 651.675 863.375 656.862 874.281 656.862ZM948.305 656.862C955.354 656.862 962.935 652.34 968.521 644.493C968.388 648.217 968.521 651.675 968.787 653.803C969.186 655.399 969.452 655.798 971.314 655.798C975.57 655.798 981.954 655.133 981.954 651.01C981.954 650.345 981.821 649.547 981.688 647.951C981.289 639.838 981.422 635.05 981.954 631.858C983.018 625.873 984.614 619.888 986.21 613.903C988.338 605.79 991.796 597.677 992.062 595.948C992.594 593.022 985.545 592.357 982.752 592.357C981.156 592.357 980.092 592.623 979.427 594.485C979.028 595.283 978.629 596.214 978.097 597.544C974.24 594.086 969.585 591.825 963.999 591.825C942.719 591.825 931.813 616.563 931.813 634.518C931.813 648.483 938.995 656.862 948.305 656.862ZM945.113 633.986C945.113 623.08 950.832 602.598 965.994 602.598C969.319 602.598 972.245 603.529 975.171 606.322C973.708 611.243 972.112 617.228 970.649 623.745C968.255 635.05 960.275 645.956 953.093 645.956C947.773 645.956 945.113 641.434 945.113 633.986ZM998.017 655.798C1002.14 655.798 1004.53 655.133 1005.07 653.005C1005.33 651.143 1005.47 648.483 1007.46 639.439C1010.92 624.543 1025.81 604.327 1035.26 604.327C1038.32 604.327 1039.65 607.12 1038.45 611.775L1033 634.252C1030.74 643.429 1030.07 650.877 1030.2 653.271C1030.2 655.266 1031.4 655.798 1034.19 655.798C1040.05 655.798 1042.71 655.266 1043.1 653.138C1043.37 651.143 1042.97 646.754 1045.63 635.582L1051.22 613.504C1054.68 599.805 1050.42 591.825 1040.84 591.825C1031.8 591.825 1021.56 600.204 1013.71 611.509C1014.11 610.046 1014.51 608.45 1014.78 606.721C1015.44 603.263 1015.57 598.209 1015.44 594.618C1015.44 593.421 1014.51 592.756 1012.12 592.756C1005.6 592.889 1002.94 594.352 1002.67 596.081C1002.41 598.475 1003.2 601.135 1001.21 612.839C999.879 619.888 993.894 644.094 991.899 652.473C991.234 655.133 992.697 655.798 998.017 655.798ZM1100.76 656.197C1102.63 656.197 1105.95 655.665 1108.35 654.335C1110.34 653.271 1110.47 652.473 1109.94 649.946C1108.61 645.025 1106.75 638.375 1108.35 631.06L1115.53 599.14C1116.99 592.49 1118.72 585.574 1119.65 580.121C1120.85 573.072 1120.98 565.757 1120.98 563.762C1120.98 561.767 1120.18 560.703 1116.59 560.703C1114.86 560.703 1113 560.836 1111.54 561.102C1109.28 561.501 1108.74 562.432 1108.48 563.762C1108.08 566.023 1108.08 572.407 1106.75 579.855C1105.95 584.643 1104.36 591.027 1102.89 597.81L1102.49 599.672C1099.97 594.751 1095.44 591.825 1089.59 591.825C1070.31 591.825 1057.41 614.967 1057.41 635.183C1057.41 649.015 1064.19 656.862 1074.03 656.862C1084.01 656.862 1090.79 651.542 1095.58 643.695C1096.24 647.685 1097.17 651.808 1097.97 654.468C1098.5 656.064 1099.3 656.197 1100.76 656.197ZM1070.44 634.917C1070.44 624.011 1077.49 602.598 1091.06 602.598C1096.51 602.598 1100.1 607.12 1099.04 614.568L1095.18 631.725C1092.39 639.439 1085.6 645.956 1078.29 645.956C1073.1 645.956 1070.44 641.966 1070.44 634.917ZM1169.21 656.862C1178.66 656.862 1187.57 652.34 1193.15 642.764C1193.55 642.099 1193.82 641.301 1193.82 640.636C1193.82 638.774 1188.5 634.651 1185.84 634.651C1184.91 634.651 1184.37 634.917 1183.84 635.715C1180.12 642.099 1175.2 646.089 1170.01 646.089C1163.49 646.089 1161.1 640.104 1161.63 632.39C1162.43 621.75 1168.15 602.598 1180.52 602.598C1186.1 602.598 1188.1 606.721 1187.97 610.977C1187.83 612.307 1188.36 613.105 1191.42 613.105C1197.01 613.105 1199.27 612.44 1199.4 610.578C1200.47 601.8 1194.48 591.825 1181.32 591.825C1159.64 591.825 1149.4 614.302 1148.6 631.858C1147.8 645.291 1154.58 656.862 1169.21 656.862ZM1206.49 655.798C1210.48 655.798 1212.88 655.133 1213.28 653.005C1213.68 651.143 1213.68 648.483 1215.94 639.04C1219.26 624.809 1234.03 604.327 1243.73 604.327C1246.79 604.327 1247.99 607.12 1246.79 611.775L1241.07 635.05C1239.08 643.429 1238.41 650.877 1238.55 653.271C1238.55 655.266 1239.88 655.798 1243.07 655.798C1248.79 655.798 1251.05 655.266 1251.45 653.138C1251.85 651.143 1251.32 646.488 1253.98 635.582L1259.56 613.504C1263.02 599.805 1258.76 591.825 1249.59 591.825C1240.28 591.825 1230.17 599.938 1222.19 611.243C1223.39 606.987 1224.45 602.731 1225.25 599.007C1226.84 592.357 1228.31 585.574 1229.37 580.121C1230.57 573.072 1230.97 564.826 1230.97 562.565C1230.97 561.235 1229.9 560.703 1227.91 560.703C1225.38 560.703 1223.39 560.969 1222.06 561.235C1219.4 561.634 1218.46 562.432 1218.2 563.762C1217.8 566.023 1217.67 572.806 1215.8 583.446C1215.14 587.569 1214.08 591.692 1212.48 598.608L1200.24 652.473C1199.71 655.133 1201.17 655.798 1206.49 655.798ZM1307.76 656.064C1309.63 656.064 1313.62 655.399 1315.88 654.069C1317.61 653.138 1317.87 652.207 1317.34 649.68C1315.88 644.094 1315.21 638.508 1316.41 632.922C1318 626.405 1319.47 618.957 1320.93 613.903C1322.93 606.455 1326.65 599.938 1327.05 597.544C1327.45 595.15 1321.46 592.357 1318.54 592.357C1316.41 592.357 1315.74 592.623 1314.81 594.485C1313.88 596.347 1312.82 598.741 1311.75 601.401C1309.36 595.416 1304.57 591.825 1298.05 591.825C1278.77 591.825 1265.87 614.967 1265.87 635.183C1265.87 649.015 1272.65 656.862 1282.49 656.862C1292.07 656.862 1298.72 651.941 1303.51 644.493C1303.91 648.217 1304.57 651.542 1305.24 653.936C1305.77 655.665 1306.57 656.064 1307.76 656.064ZM1278.9 634.917C1278.9 624.011 1285.95 602.598 1299.52 602.598C1304.97 602.598 1308.56 607.12 1307.5 614.568L1303.64 631.725C1300.85 639.439 1294.06 645.956 1286.75 645.956C1281.56 645.956 1278.9 641.966 1278.9 634.917ZM1333.64 655.665C1337.89 655.665 1340.55 655.133 1340.95 653.005C1341.22 651.143 1341.48 648.483 1343.61 638.641C1347.47 621.617 1358.24 605.524 1372.87 605.524C1375.4 605.524 1377.26 603.263 1378.86 594.485C1378.99 592.756 1378.33 591.825 1376.73 591.825C1367.15 591.825 1357.71 598.608 1350.53 608.051C1350.66 607.652 1350.66 607.253 1350.79 606.721C1351.33 603.263 1351.59 598.209 1351.46 594.618C1351.46 593.288 1350.4 592.756 1348.13 592.756C1341.62 592.889 1338.96 594.352 1338.69 596.081C1338.29 598.475 1339.09 601.268 1337.1 612.839C1335.9 619.888 1330.84 640.104 1327.92 652.473C1327.25 655.133 1328.05 655.665 1333.64 655.665ZM1385.38 656.862C1394.69 656.862 1404.54 648.882 1412.12 637.843L1411.32 641.833C1410.65 645.424 1410.52 651.01 1410.79 653.404C1410.92 655.399 1411.72 655.931 1413.98 655.931C1419.43 655.931 1423.29 655.266 1423.56 653.271C1423.95 650.877 1423.02 647.685 1425.15 635.715C1426.35 628.799 1432.07 604.593 1434.33 596.347C1435.13 593.687 1433.53 592.889 1427.81 592.889C1423.95 592.889 1421.69 593.554 1421.43 595.682C1421.16 596.613 1420.9 597.677 1420.63 599.406C1417.3 594.884 1412.52 591.825 1407.06 591.825C1388.31 591.825 1373.41 617.095 1372.48 637.71C1371.69 650.744 1377.4 656.862 1385.38 656.862ZM1385.52 635.582C1386.58 623.08 1397.89 602.598 1408.13 602.598C1411.72 602.598 1415.44 604.992 1418.24 610.578C1413.98 625.341 1399.75 644.36 1390.57 644.36C1387.38 644.36 1384.99 641.833 1385.52 635.582ZM1457.29 656.862C1466.74 656.862 1475.65 652.34 1481.23 642.764C1481.63 642.099 1481.9 641.301 1481.9 640.636C1481.9 638.774 1476.58 634.651 1473.92 634.651C1472.99 634.651 1472.45 634.917 1471.92 635.715C1468.2 642.099 1463.28 646.089 1458.09 646.089C1451.57 646.089 1449.18 640.104 1449.71 632.39C1450.51 621.75 1456.23 602.598 1468.6 602.598C1474.18 602.598 1476.18 606.721 1476.05 610.977C1475.91 612.307 1476.44 613.105 1479.5 613.105C1485.09 613.105 1487.35 612.44 1487.48 610.578C1488.55 601.8 1482.56 591.825 1469.4 591.825C1447.72 591.825 1437.48 614.302 1436.68 631.858C1435.88 645.291 1442.66 656.862 1457.29 656.862ZM1507.73 656.064C1511.19 656.064 1515.85 655.266 1519.3 654.069C1520.9 653.404 1521.56 652.473 1521.83 650.744C1522.76 645.025 1521.3 643.296 1519.57 643.296C1518.37 643.296 1515.58 644.626 1512.52 644.626C1509.46 644.626 1508.13 643.03 1508.93 638.375C1509.2 636.513 1509.59 634.651 1509.99 633.055L1516.11 606.588C1516.51 605.258 1516.78 603.928 1517.04 602.598C1521.03 602.332 1525.02 602.199 1528.21 602.066C1530.08 601.933 1531.27 601.268 1532.2 595.283C1532.74 592.623 1531.81 591.958 1529.81 591.958C1527.02 591.958 1523.16 592.091 1519.04 592.357C1519.97 585.973 1520.23 580.387 1520.23 577.594C1520.37 575.466 1519.04 574.801 1516.78 574.801C1510.26 574.801 1507.87 575.865 1507.47 578.126C1507.33 579.855 1507.07 586.372 1506.14 593.022C1503.48 593.022 1500.95 593.155 1498.95 593.155C1496.43 593.155 1495.63 594.485 1494.83 598.874C1494.17 602.332 1494.83 603.263 1497.62 603.263C1498.95 603.263 1501.22 603.263 1503.88 603.13C1503.61 603.928 1503.48 604.726 1503.21 605.657L1497.49 630.927C1497.09 633.188 1496.56 634.917 1496.03 637.444C1493.77 650.212 1497.76 656.064 1507.73 656.064ZM1549.87 656.862C1559.71 656.862 1567.29 652.872 1572.88 645.956C1573.54 645.025 1574.48 644.227 1574.21 642.498C1573.81 640.902 1568.76 636.912 1567.69 636.646C1566.63 636.247 1565.56 636.247 1564.5 637.577C1560.64 642.897 1555.86 646.222 1551.2 646.222C1546.01 646.222 1543.22 641.966 1543.09 634.651C1562.9 631.193 1582.19 622.282 1582.19 606.455C1582.19 598.342 1576.2 591.825 1565.17 591.825C1543.09 591.825 1530.19 614.169 1530.19 633.188C1530.19 646.621 1536.97 656.862 1549.87 656.862ZM1544.02 625.74C1546.01 615.499 1551.87 602.465 1563.17 602.465C1567.29 602.465 1569.16 604.992 1569.16 608.184C1569.16 617.361 1556.12 623.213 1544.02 625.74ZM1588.34 655.665C1592.59 655.665 1595.25 655.133 1595.65 653.005C1595.92 651.143 1596.18 648.483 1598.31 638.641C1602.17 621.617 1612.94 605.524 1627.57 605.524C1630.1 605.524 1631.96 603.263 1633.56 594.485C1633.69 592.756 1633.03 591.825 1631.43 591.825C1621.85 591.825 1612.41 598.608 1605.23 608.051C1605.36 607.652 1605.36 607.253 1605.49 606.721C1606.03 603.263 1606.29 598.209 1606.16 594.618C1606.16 593.288 1605.1 592.756 1602.83 592.756C1596.32 592.889 1593.66 594.352 1593.39 596.081C1592.99 598.475 1593.79 601.268 1591.8 612.839C1590.6 619.888 1585.54 640.104 1582.62 652.473C1581.95 655.133 1582.75 655.665 1588.34 655.665ZM1647.08 656.862C1659.59 656.862 1670.49 649.281 1670.49 636.38C1670.49 618.957 1647.75 617.494 1647.75 608.982C1647.75 604.726 1651.61 602.199 1656.66 602.199C1661.05 602.199 1664.51 604.593 1664.91 608.051C1665.04 608.982 1665.44 609.248 1666.37 609.248C1667.83 609.248 1670.89 608.45 1673.42 607.652C1674.62 607.386 1675.41 606.854 1675.41 605.258C1675.41 598.741 1669.69 591.825 1657.46 591.825C1645.49 591.825 1635.65 598.741 1635.65 610.445C1635.65 626.405 1657.99 628.267 1657.99 637.976C1657.99 643.828 1652.94 646.222 1647.62 646.222C1640.83 646.222 1637.77 641.7 1636.98 637.577C1636.58 636.247 1636.18 636.114 1635.11 636.114C1632.32 636.114 1625.94 638.907 1625.94 641.035C1625.94 641.434 1625.94 641.966 1626.07 642.498C1628.07 651.675 1636.18 656.862 1647.08 656.862ZM429.11 827.665H429.509C432.834 827.665 433.898 826.734 434.43 824.473L445.336 776.593C446.666 770.741 447.73 765.687 448.395 761.298C449.725 754.116 450.656 746.269 450.789 740.816C450.922 738.821 449.725 738.289 447.065 738.289C440.016 738.289 438.021 739.22 437.622 741.348C437.223 744.008 437.223 750.126 435.228 761.298C434.563 765.421 433.366 770.342 432.169 775.795L426.317 801.464C419.667 782.711 410.756 760.367 400.914 740.284C399.85 738.422 398.786 738.289 396.791 738.289H396.658C389.609 738.289 387.614 739.22 387.215 741.348C386.816 744.008 386.816 750.126 384.821 761.298C384.156 765.421 382.959 770.342 381.762 775.795L370.856 823.941C370.191 826.734 370.856 827.665 379.102 827.665C382.427 827.665 383.491 826.734 384.023 824.473L394.929 776.593C395.993 771.805 396.924 767.416 397.589 763.559C407.032 784.041 414.214 805.188 420.997 826.069C421.396 827.399 423.657 827.665 429.11 827.665ZM461.374 828.729C470.551 828.729 480.925 820.483 488.905 808.912C488.506 810.508 488.107 811.971 487.841 813.7C487.043 817.69 487.043 823.01 487.043 825.271C487.309 827.399 488.24 827.798 490.235 827.798C495.954 827.798 499.412 826.601 499.811 824.473C500.21 822.478 499.412 819.419 501.407 807.715C502.737 800.666 508.589 776.46 510.584 768.081C511.249 765.421 509.919 764.756 504.466 764.756C500.476 764.756 497.949 765.421 497.55 767.549C497.151 769.411 497.151 772.071 495.023 781.115C491.565 796.011 476.935 816.227 467.226 816.227C464.167 816.227 462.837 813.434 464.034 808.779L469.487 786.435C471.748 777.125 472.413 769.677 472.28 767.283C472.28 765.288 471.083 764.756 468.29 764.756C462.571 764.756 459.645 765.554 459.379 767.549C459.113 769.544 459.512 774.066 456.852 784.972L451.266 807.05C447.941 820.882 452.064 828.729 461.374 828.729ZM517.84 827.798C521.83 827.798 524.49 827.133 524.889 825.005C525.155 823.143 525.288 820.483 527.283 811.439C530.741 796.543 544.573 776.327 553.75 776.327C556.676 776.327 558.139 779.12 556.942 783.775L551.489 806.252C549.228 815.429 548.297 822.877 548.164 825.138C548.164 827.266 549.494 827.798 552.287 827.798C558.405 827.798 561.065 827.133 561.331 825.005C561.597 823.01 561.331 818.488 563.991 807.449L564.124 806.651C567.582 794.681 580.35 776.327 588.995 776.327C591.921 776.327 593.251 779.12 592.187 783.775L586.601 806.252C584.34 815.429 583.675 822.877 583.808 825.138C583.808 827.133 584.872 827.798 587.931 827.798C593.783 827.798 596.31 827.133 596.709 825.005C596.975 823.143 596.576 818.621 599.369 807.582L604.822 785.504C608.28 771.805 604.024 763.825 594.581 763.825C586.468 763.825 577.424 771.273 570.109 781.514C571.572 770.741 567.848 763.825 559.336 763.825C550.558 763.825 540.716 772.337 533.002 783.775C533.401 782.179 533.8 780.45 534.066 778.721C534.731 775.263 535.13 770.209 534.864 766.618C534.864 765.421 533.933 764.756 531.938 764.756C525.554 764.889 522.761 766.352 522.495 768.081C522.229 770.475 523.027 773.135 521.032 784.839C519.702 791.888 513.717 816.094 511.722 824.473C511.057 827.133 512.653 827.798 517.84 827.798ZM614.588 828.197C615.918 828.197 616.583 827.665 617.514 826.069C618.977 824.074 620.972 821.015 622.701 817.823C624.829 824.606 629.883 828.862 636.932 828.862C656.217 828.862 669.118 805.72 669.118 785.504C669.118 771.672 662.335 763.825 652.493 763.825C645.444 763.825 639.991 766.485 635.602 771.007C637.198 764.357 638.528 757.707 639.592 752.254C640.922 745.072 641.188 737.757 641.188 734.698C641.188 733.368 640.39 732.703 638.528 732.703C635.735 732.703 634.006 732.836 632.543 733.102C629.484 733.634 628.686 734.432 628.42 735.895C628.154 738.023 628.021 744.54 626.292 753.717C625.494 757.973 624.297 763.559 622.701 770.608L615.519 801.597C614.322 807.449 610.066 814.365 607.14 818.754C606.076 820.35 605.411 821.414 605.411 822.345C605.411 824.074 610.731 828.197 614.588 828.197ZM627.489 806.119L631.346 788.962C634.139 781.248 640.922 774.731 648.237 774.731C653.424 774.731 656.084 778.721 656.084 785.77C656.084 796.676 649.035 818.089 635.469 818.089C630.016 818.089 626.425 813.567 627.489 806.119ZM694.722 828.862C704.564 828.862 712.145 824.872 717.731 817.956C718.396 817.025 719.327 816.227 719.061 814.498C718.662 812.902 713.608 808.912 712.544 808.646C711.48 808.247 710.416 808.247 709.352 809.577C705.495 814.897 700.707 818.222 696.052 818.222C690.865 818.222 688.072 813.966 687.939 806.651C707.756 803.193 727.041 794.282 727.041 778.455C727.041 770.342 721.056 763.825 710.017 763.825C687.939 763.825 675.038 786.169 675.038 805.188C675.038 818.621 681.821 828.862 694.722 828.862ZM688.87 797.74C690.865 787.499 696.717 774.465 708.022 774.465C712.145 774.465 714.007 776.992 714.007 780.184C714.007 789.361 700.973 795.213 688.87 797.74ZM733.189 827.665C737.445 827.665 740.105 827.133 740.504 825.005C740.77 823.143 741.036 820.483 743.164 810.641C747.021 793.617 757.794 777.524 772.424 777.524C774.951 777.524 776.813 775.263 778.409 766.485C778.542 764.756 777.877 763.825 776.281 763.825C766.705 763.825 757.262 770.608 750.08 780.051C750.213 779.652 750.213 779.253 750.346 778.721C750.878 775.263 751.144 770.209 751.011 766.618C751.011 765.288 749.947 764.756 747.686 764.756C741.169 764.889 738.509 766.352 738.243 768.081C737.844 770.475 738.642 773.268 736.647 784.839C735.45 791.888 730.396 812.104 727.47 824.473C726.805 827.133 727.603 827.665 733.189 827.665ZM822.957 828.862C844.902 828.862 855.276 804.523 855.276 788.696C855.276 775.529 848.36 763.825 834.262 763.825C812.184 763.825 801.943 788.164 801.943 803.991C801.943 817.291 808.726 828.862 822.957 828.862ZM814.844 805.321C814.844 795.745 820.962 774.598 833.597 774.598C839.848 774.598 842.375 780.583 842.375 787.366C842.375 796.942 836.257 818.089 823.622 818.089C817.371 818.089 814.844 812.104 814.844 805.321ZM868.135 827.798C871.859 827.931 873.854 827.266 874.519 824.34L882.499 790.824C884.228 783.642 885.292 779.12 886.09 775.396L896.73 774.997C898.592 774.864 899.656 774.066 900.72 768.214C901.119 765.554 900.321 764.889 898.459 764.889C895.666 764.889 891.942 765.022 887.952 765.155C888.351 760.234 888.218 755.446 888.75 751.589C889.814 745.604 892.607 743.476 896.065 743.476C897.661 743.476 899.257 744.008 902.449 744.54C904.577 744.939 906.173 743.609 907.237 738.289C907.902 735.23 906.971 734.299 905.375 733.767C903.38 733.102 900.055 732.703 897.395 732.703C885.425 732.703 878.509 737.491 876.381 750.525C875.716 755.047 875.716 760.899 875.184 765.82C872.524 765.953 869.997 765.953 867.869 765.953C865.342 765.953 864.544 767.283 863.746 771.672C863.081 774.997 863.879 776.061 866.539 776.061C868.002 776.061 870.396 776.061 873.056 775.928C872.258 779.785 871.061 784.307 869.465 791.09L861.618 823.542C860.687 827.266 862.416 827.798 868.135 827.798ZM950.07 828.862C968.025 828.862 981.059 819.286 981.059 802.129C981.059 778.455 949.272 774.332 949.272 760.234C949.272 752.919 956.055 748.663 963.902 748.663C971.35 748.663 974.941 752.919 975.473 757.574C975.739 759.569 976.404 760.101 979.064 759.702C986.379 758.106 987.576 757.707 987.31 755.313C986.645 745.737 978.133 737.358 964.966 737.358C949.139 737.358 936.504 746.934 936.504 761.83C936.504 783.908 967.759 786.568 967.759 803.592C967.759 812.104 959.912 817.291 951.4 817.291C941.292 817.291 936.77 812.104 934.775 804.124C934.509 803.193 933.977 802.661 932.913 802.661C930.386 802.661 926.396 804.523 924.667 806.385C923.337 807.316 923.337 809.045 923.869 810.774C926.263 820.217 934.775 828.862 950.07 828.862ZM1003.14 828.064C1006.6 828.064 1011.25 827.266 1014.71 826.069C1016.3 825.404 1016.97 824.473 1017.24 822.744C1018.17 817.025 1016.7 815.296 1014.97 815.296C1013.78 815.296 1010.98 816.626 1007.93 816.626C1004.87 816.626 1003.54 815.03 1004.33 810.375C1004.6 808.513 1005 806.651 1005.4 805.055L1011.52 778.588C1011.92 777.258 1012.18 775.928 1012.45 774.598C1016.44 774.332 1020.43 774.199 1023.62 774.066C1025.48 773.933 1026.68 773.268 1027.61 767.283C1028.14 764.623 1027.21 763.958 1025.22 763.958C1022.42 763.958 1018.57 764.091 1014.44 764.357C1015.37 757.973 1015.64 752.387 1015.64 749.594C1015.77 747.466 1014.44 746.801 1012.18 746.801C1005.66 746.801 1003.27 747.865 1002.87 750.126C1002.74 751.855 1002.47 758.372 1001.54 765.022C998.882 765.022 996.355 765.155 994.36 765.155C991.833 765.155 991.035 766.485 990.237 770.874C989.572 774.332 990.237 775.263 993.03 775.263C994.36 775.263 996.621 775.263 999.281 775.13C999.015 775.928 998.882 776.726 998.616 777.657L992.897 802.927C992.498 805.188 991.966 806.917 991.434 809.444C989.173 822.212 993.163 828.064 1003.14 828.064ZM1040.97 860.25C1056.93 860.25 1069.17 851.472 1073.82 826.867C1077.55 807.582 1083.67 783.509 1087.66 768.081C1088.45 765.288 1086.73 764.756 1081.67 764.756C1077.81 764.756 1075.02 765.288 1074.62 767.549C1074.36 769.278 1074.09 772.071 1071.83 781.248C1068.24 795.878 1053.74 816.227 1044.17 816.227C1041.11 816.227 1039.78 813.434 1040.97 808.779L1046.43 786.435C1048.82 777.125 1049.35 770.076 1049.22 767.283C1049.22 766.086 1048.16 764.756 1045.23 764.756C1039.51 764.756 1036.72 765.421 1036.32 767.549C1035.92 769.81 1036.58 773.933 1033.79 784.972L1028.34 806.784C1024.75 821.015 1029.54 828.596 1038.45 828.596C1047.62 828.596 1057.6 820.217 1065.45 808.912C1063.98 814.631 1062.65 819.951 1061.46 826.601C1058.53 842.295 1051.88 849.344 1042.7 849.344C1035.52 849.344 1031.26 845.886 1027.81 841.098C1027.01 839.768 1026.48 839.635 1025.68 839.635C1023.68 839.635 1018.76 845.221 1018.5 847.083C1018.36 847.615 1018.23 848.147 1019.16 849.344C1023.28 854.797 1029.54 860.25 1040.97 860.25ZM1104.64 828.064C1107.44 828.064 1111.83 827.133 1115.55 825.537C1117.15 824.872 1118.34 824.207 1118.34 821.946C1118.74 817.291 1116.88 813.966 1115.28 814.365C1113.95 814.631 1110.89 816.36 1108.1 816.36C1104.91 816.36 1104.11 815.03 1104.91 810.508C1105.18 808.779 1105.57 807.05 1106.11 804.124L1113.55 772.071C1115.02 765.421 1116.48 758.771 1117.41 753.318C1118.61 746.269 1119.01 737.225 1119.01 735.097C1119.01 733.235 1117.01 732.703 1115.28 732.703C1112.62 732.703 1111.03 732.836 1109.7 733.102C1107.17 733.634 1106.24 734.432 1106.24 736.294C1106.24 738.023 1105.97 744.806 1104.38 753.85C1103.71 757.973 1102.52 763.559 1100.79 770.475L1093.6 801.597C1092.81 805.055 1092.41 806.917 1092.14 808.38C1089.61 821.148 1094.14 828.064 1104.64 828.064ZM1145.42 828.862C1155.26 828.862 1162.84 824.872 1168.42 817.956C1169.09 817.025 1170.02 816.227 1169.75 814.498C1169.36 812.902 1164.3 808.912 1163.24 808.646C1162.17 808.247 1161.11 808.247 1160.05 809.577C1156.19 814.897 1151.4 818.222 1146.75 818.222C1141.56 818.222 1138.77 813.966 1138.63 806.651C1158.45 803.193 1177.73 794.282 1177.73 778.455C1177.73 770.342 1171.75 763.825 1160.71 763.825C1138.63 763.825 1125.73 786.169 1125.73 805.188C1125.73 818.621 1132.51 828.862 1145.42 828.862ZM1139.56 797.74C1141.56 787.499 1147.41 774.465 1158.72 774.465C1162.84 774.465 1164.7 776.992 1164.7 780.184C1164.7 789.361 1151.67 795.213 1139.56 797.74ZM1197.43 828.862C1209.93 828.862 1220.84 821.281 1220.84 808.38C1220.84 790.957 1198.09 789.494 1198.09 780.982C1198.09 776.726 1201.95 774.199 1207.01 774.199C1211.39 774.199 1214.85 776.593 1215.25 780.051C1215.38 780.982 1215.78 781.248 1216.71 781.248C1218.18 781.248 1221.24 780.45 1223.76 779.652C1224.96 779.386 1225.76 778.854 1225.76 777.258C1225.76 770.741 1220.04 763.825 1207.8 763.825C1195.83 763.825 1185.99 770.741 1185.99 782.445C1185.99 798.405 1208.34 800.267 1208.34 809.976C1208.34 815.828 1203.28 818.222 1197.96 818.222C1191.18 818.222 1188.12 813.7 1187.32 809.577C1186.92 808.247 1186.52 808.114 1185.46 808.114C1182.67 808.114 1176.28 810.907 1176.28 813.035C1176.28 813.434 1176.28 813.966 1176.42 814.498C1178.41 823.675 1186.52 828.862 1197.43 828.862Z" fill="#3C4043"/>
</g>
<defs>
<clipPath id="clip0_3303_17458">
<rect width="1920" height="1080" fill="white"/>
</clipPath>
</defs>
</svg>
