<svg xmlns="http://www.w3.org/2000/svg" width="1920" height="1080" fill="none"><path fill="#F3F7FE" stroke="#3C4043" stroke-width="8" d="M706.737 862v4H812V495.804c0-87.268-25.496-157.738-69.072-206.443C699.323 240.622 637.891 214 566.737 214c-92.115 0-168.173 49.189-212 130.999V229.153H252V866h104V545.051c0-71.919 19.394-131.288 51.728-172.582 32.287-41.233 77.572-64.602 129.956-64.602 52.467 0 94.559 21.541 123.633 58.91 29.153 37.471 45.42 91.14 45.42 155.545V862Z"/><path stroke="#1A73E8" stroke-width="12" d="M569.865 216.971c175.372 0 240.649 152.573 240.649 267.929"/><path fill="#1A73E8" d="M552.328 200.408h33.126v33.126h-33.126z"/><circle cx="810.514" cy="300.759" r="15.986" stroke="#1A73E8" stroke-width="7"/><path stroke="#3C4043" stroke-width="8" d="M810.514 485.874V320.245"/><circle cx="759.364" cy="216.971" r="15.986" stroke="#1A73E8" stroke-width="7" transform="rotate(90 759.364 216.971)"/><path stroke="#3C4043" stroke-width="8" d="M568.891 216.971h171.475"/><path fill="#1A73E8" d="M793.951 468.336h33.126v33.126h-33.126z"/><path fill="#3C4043" d="M793.951 848h33.126v33.126h-33.126zM689.951 848h33.126v33.126h-33.126zM689.951 488.337h33.126v33.126h-33.126zM520.951 293.337h33.126v33.126h-33.126zM340 517.337h33.126v33.126H340zM340 848h33.126v33.126H340zM234 848h33.126v33.126H234zM234 211.337h33.126v33.126H234zM337.951 211.337h33.126v33.126h-33.126zM337.951 332.337h33.126v33.126h-33.126z"/><path stroke="#1A73E8" stroke-width="15" d="M1157.53 253.253c375.25 0 514.93 326.472 514.93 573.306"/><path fill="#1A73E8" d="M1120 217.812h70.882v70.882H1120z"/><circle cx="1672.46" cy="432.542" r="34.695" stroke="#1A73E8" stroke-width="14"/><path stroke="#3C4043" stroke-width="12" d="M1672.46 828.644V474.236"/><circle cx="1563.01" cy="253.253" r="33.695" stroke="#1A73E8" stroke-width="16" transform="rotate(90 1563.01 253.253)"/><path stroke="#3C4043" stroke-width="12" d="M1155.44 253.253h366.92"/><path fill="#1A73E8" d="M1637.02 791.119h70.882v70.882h-70.882z"/></svg>