<svg width="1920" height="1080" viewBox="0 0 1920 1080" fill="none" xmlns="http://www.w3.org/2000/svg">
<path d="M706.737 862V866H710.737H808H812V862V495.804C812 408.536 786.504 338.066 742.928 289.361C699.323 240.622 637.891 214 566.737 214C474.622 214 398.564 263.189 354.737 344.999V233.153V229.153H350.737H256H252V233.153V862V866H256H352H356V862V545.051C356 473.132 375.394 413.763 407.728 372.469C440.015 331.236 485.3 307.867 537.684 307.867C590.151 307.867 632.243 329.408 661.317 366.777C690.47 404.248 706.737 457.917 706.737 522.322V862Z" fill="#F3F7FE" stroke="#3C4043" stroke-width="8"/>
<path d="M569.865 216.971C745.237 216.971 810.514 369.544 810.514 484.9" stroke="#1A73E8" stroke-width="12"/>
<rect x="552.328" y="200.408" width="33.1258" height="33.1258" fill="#1A73E8"/>
<circle cx="810.514" cy="300.759" r="15.9857" stroke="#1A73E8" stroke-width="7"/>
<path d="M810.514 485.874V320.245" stroke="#3C4043" stroke-width="8"/>
<circle cx="759.364" cy="216.971" r="15.9857" transform="rotate(90 759.364 216.971)" stroke="#1A73E8" stroke-width="7"/>
<path d="M568.891 216.971L740.366 216.971" stroke="#3C4043" stroke-width="8"/>
<rect x="793.951" y="468.336" width="33.1258" height="33.1258" fill="#1A73E8"/>
<rect x="793.951" y="848" width="33.1258" height="33.1258" fill="#3C4043"/>
<rect x="689.951" y="848" width="33.1258" height="33.1258" fill="#3C4043"/>
<rect x="689.951" y="488.337" width="33.1258" height="33.1258" fill="#3C4043"/>
<rect x="520.951" y="293.337" width="33.1258" height="33.1258" fill="#3C4043"/>
<rect x="340" y="517.337" width="33.1258" height="33.1258" fill="#3C4043"/>
<rect x="340" y="848" width="33.1258" height="33.1258" fill="#3C4043"/>
<rect x="234" y="848" width="33.1258" height="33.1258" fill="#3C4043"/>
<rect x="234" y="211.337" width="33.1258" height="33.1258" fill="#3C4043"/>
<rect x="337.951" y="211.337" width="33.1258" height="33.1258" fill="#3C4043"/>
<rect x="337.951" y="332.337" width="33.1258" height="33.1258" fill="#3C4043"/>
<path d="M1157.53 253.253C1532.78 253.253 1672.46 579.725 1672.46 826.559" stroke="#1A73E8" stroke-width="15"/>
<rect x="1120" y="217.812" width="70.8815" height="70.8815" fill="#1A73E8"/>
<circle cx="1672.46" cy="432.542" r="34.695" stroke="#1A73E8" stroke-width="14"/>
<path d="M1672.46 828.644V474.236" stroke="#3C4043" stroke-width="12"/>
<circle cx="1563.01" cy="253.253" r="33.695" transform="rotate(90 1563.01 253.253)" stroke="#1A73E8" stroke-width="16"/>
<path d="M1155.44 253.253L1522.36 253.253" stroke="#3C4043" stroke-width="12"/>
<rect x="1637.02" y="791.119" width="70.8815" height="70.8815" fill="#1A73E8"/>
</svg>
