<svg width="1920" height="1080" fill="none" xmlns="http://www.w3.org/2000/svg"><path fill="#FF6D7F" d="M710 862V218h21.86v644zM1038.32 862V218h27.278v644z"/><path fill="#1A73E8" d="M1390.91 862V218H1426v644z"/><path d="M330.974 710h89.548l58.577-192.562h2.693L540.369 710h89.548l101.668-344.727H627.224l-47.131 212.761H577.4l-55.884-212.761h-82.142l-55.883 212.088h-2.693l-47.131-212.088H229.306L330.974 710Zm480.186 0 19.862-65.983h113.787L964.671 710h100.999L951.878 365.273H823.952L710.165 710H811.16Zm41.071-136.006 34.338-113.787h2.693L923.6 573.994h-71.369Zm290.909-208.721h-105.71L1151.22 710h127.92l113.79-344.727h-105.71l-70.69 243.059h-2.7l-70.69-243.059ZM1426.13 710h247.77v-75.409h-154.18v-59.25h142.06v-75.409h-142.06v-59.25h154.86v-75.409h-248.45V710Z" fill="#3C4043"/></svg>