<svg width="1920" height="1080" viewBox="0 0 1920 1080" fill="none" xmlns="http://www.w3.org/2000/svg">
<path fill-rule="evenodd" clip-rule="evenodd" d="M218 179.452V193.13H309.19H400.38V179.452V165.773H309.19H218V179.452ZM779.287 282.953L778.818 400.132H712.249H645.681L645.205 322.164L644.731 244.197H632.894H621.06V322.753V401.312L632.458 413.927L643.857 426.542L711.573 426.558L779.289 426.577L791.364 413.775L803.439 400.976V283.374V165.773H791.597H779.757L779.287 282.953ZM231.024 257.419L218.044 270.642L218.022 348.609L218 426.577H230.767H243.533V349.065V271.554H310.102H376.67V349.065V426.577H388.525H400.38V348.376V270.173L388.354 257.186L376.329 244.197H310.168H244.006L231.024 257.419ZM432.521 257.693L420.442 271.187L420.502 336.572L420.564 401.955L432.342 414.266L444.12 426.577H523.47H602.822V413.83V401.082L523.942 400.608L445.063 400.132V374.598V349.065L523.942 348.589L602.822 348.115V335.367V322.62H523.486H444.151V297.087V271.554H523.486H602.822V257.875V244.197H523.711H444.598L432.521 257.693ZM621.06 492.233V505H712.249H803.439V492.233V479.467H712.249H621.06V492.233Z" fill="#3C4043"/>
<path d="M218 602.357V588.678V575H309.19H400.38V588.678V602.357H309.19H218Z" fill="#3C4043"/>
<path d="M420.442 810.538V692.768V575H432.296H444.151V692.635V810.27H523.486H602.822V823.037V835.803L523.03 835.785L443.239 835.769L431.84 823.153L420.442 810.538Z" fill="#3C4043"/>
<path d="M821.677 835.803V705.402V575H834.444H847.211V614.212V653.423H913.559H979.907L991.982 666.225L1004.06 679.024V757.415V835.803H992.203H980.348V758.292V680.78H913.779H847.211V758.292V835.803H834.444H821.677Z" fill="#3C4043"/>
<path d="M1625.97 835.803V705.402V575H1637.83H1649.68V614.192V653.385L1728.56 653.859L1807.44 654.335V667.102V679.868L1728.56 680.344L1649.68 680.819V758.312V835.803H1637.83H1625.97Z" fill="#3C4043"/>
<path d="M375.759 809.358L376.235 731.391L376.709 653.423H388.545H400.38L400.301 732.303L400.223 811.182L388.64 823.493L377.057 835.803H297.529H218V823.057V810.308L296.879 809.834L375.759 809.358Z" fill="#3C4043"/>
<path d="M1180.97 810.27V731.847V653.423H1192.82H1204.68V732.002V810.58L1193.47 823.192L1182.26 835.803H1102.28H1022.3V823.037V810.27H1101.63H1180.97Z" fill="#3C4043"/>
<path d="M1425.39 679.868L1437.38 666.646L1449.37 653.423H1528.55H1607.73V667.102V680.78H1528.4H1449.06V706.314V731.847H1528.4H1607.73V744.593V757.342L1528.86 757.816L1449.98 758.292L1449.47 784.281L1448.96 810.27H1528.35H1607.73V823.037V835.803H1528.21H1448.68L1437.09 823.493L1425.51 811.182L1425.45 745.525L1425.39 679.868Z" fill="#3C4043"/>
<path fill-rule="evenodd" clip-rule="evenodd" d="M634.083 666.646L621.103 679.868L621.081 797.048L621.06 914.227H633.826H646.593V875.015V835.803H713.807H781.023L792.23 823.192L803.439 810.58V744.803V679.024L791.364 666.225L779.289 653.423H713.176H647.065L634.083 666.646ZM779.73 810.27V745.525V680.78H713.161H646.593V745.525V810.27H713.161H779.73Z" fill="#3C4043"/>
<path fill-rule="evenodd" clip-rule="evenodd" d="M1224.8 693.091L1224.86 811.182L1236.64 823.493L1248.42 835.803H1315.5H1382.59L1394.86 823.447L1407.12 811.091V745.806V680.521L1394.84 666.972L1382.57 653.423H1315.51H1248.45V614.212V575H1236.59H1224.74L1224.8 693.091ZM1381.58 810.27V745.525V680.78H1315.01H1248.45V745.525V810.27H1315.01H1381.58Z" fill="#3C4043"/>
</svg>
