<svg width="1920" height="1080" fill="none" xmlns="http://www.w3.org/2000/svg"><path d="m425.905 602.751 7.942-17.472 17.472-7.941-17.472-7.942-7.942-17.472-7.942 17.472-17.472 7.942 17.472 7.941 7.942 17.472ZM425.905 640.872l-7.942 17.472-17.472 7.942 17.472 7.942 7.942 17.472 7.942-17.472 17.472-7.942-17.472-7.942-7.942-17.472ZM378.254 605.928l-15.883-34.944-15.884 34.944-34.944 15.884 34.944 15.883 15.884 34.944 15.883-34.944 34.944-15.883-34.944-15.884Zm-9.594 22.174-6.289 13.85-6.29-13.85-13.851-6.29 13.851-6.29 6.29-13.851 6.289 13.851 13.851 6.29-13.851 6.29ZM248.009 640.872h12.707v-50.828c0-6.988-5.719-12.706-12.707-12.706h-50.828v12.706h50.828v50.828Zm-63.535 12.707V551.924h-12.707v25.414h-25.413v12.706h25.413v63.535c0 6.989 5.718 12.707 12.707 12.707h63.535V691.7h12.707v-25.414h25.413v-12.707H184.474ZM425.905 895.01h-88.948c-6.989 0-12.707 5.718-12.707 12.707v88.948c0 6.985 5.718 12.705 12.707 12.705h88.948c6.989 0 12.707-5.72 12.707-12.705v-88.948c0-6.989-5.718-12.707-12.707-12.707Zm0 101.655-44.474-50.828v50.828h-44.474l44.474-50.828v-38.12h44.474v88.948ZM394.138 748.878l-26.812 35.77 7.942 10.611 18.87-25.224 31.767 42.378h-53.75l-25.477-34.118-35.135 46.825h139.776l-57.181-76.242Zm-57.181 63.535 9.657-12.898 9.657 12.898h-19.314ZM400.491 513.801h12.707v-12.707h-12.707v12.707Zm25.414-76.241h12.707v-12.707h-12.707v12.707ZM324.25 412.146v88.948c0 6.989 5.718 12.707 12.707 12.707h25.414v-12.707h-25.414v-88.948h25.414v-12.707h-25.414c-6.989 0-12.707 5.718-12.707 12.707Zm101.655-12.707v12.707h12.707c0-6.989-5.718-12.707-12.707-12.707Zm-50.827 127.069h12.706V386.732h-12.706v139.776Zm50.827-38.12h12.707v-12.707h-12.707v12.707Zm-25.414-76.242h12.707v-12.707h-12.707v12.707Zm25.414 50.828h12.707v-12.707h-12.707v12.707Zm0 50.827c6.989 0 12.707-5.718 12.707-12.707h-12.707v12.707ZM260.716 69.06h-88.949c-6.988 0-12.706 5.719-12.706 12.707v88.949c0 6.988 5.718 12.707 12.706 12.707h88.949c6.988 0 12.707-5.719 12.707-12.707V81.767c0-6.988-5.719-12.706-12.707-12.706Zm0 101.656h-88.949V81.767h88.949v88.949Zm-76.242-57.181h12.707v44.474h-12.707v-44.474Zm25.414-19.06h12.707v63.534h-12.707V94.474Zm25.414 38.12h12.707v25.414h-12.707v-25.414ZM1754.07 240.414v83.675l-7.43-7.434h-94.23v-76.241h101.66Zm0-12.707h-101.66c-6.98 0-12.7 5.718-12.7 12.707v76.241c0 6.989 5.72 12.707 12.7 12.707h88.95l25.42 25.414V240.414c0-6.989-5.72-12.707-12.71-12.707Zm-12.71 63.534h-76.24v12.707h76.24v-12.707Zm0-19.06h-76.24v12.707h76.24v-12.707Zm0-19.06h-76.24v12.707h76.24v-12.707ZM1738.12 80.179l4 8.704 8.71 4.003-8.71 4.002-4 8.705-4-8.705-8.71-4.002 8.71-4.003 4-8.704Zm19.12 57.181c6.99 0 12.71-5.718 12.71-12.707 0-6.989-12.71-25.414-12.71-25.414s-12.7 18.425-12.7 25.414c0 6.989 5.72 12.707 12.7 12.707Zm-57.18-50.192V73.825h12.71c3.62 0 6.99 1.08 9.85 2.86l9.08-9.086c-5.27-4.003-11.75-6.48-18.93-6.48h-34.94v12.707h9.53V87.23c-11.31 2.351-20.33 10.674-23.83 21.538h13.72c3.37-5.654 9.41-9.53 16.46-9.53 10.29 0 18.68 8.196 19 18.425l12.77 4.765V118.3c0-15.376-10.93-28.21-25.42-31.132Zm69.89 81.959v6.354l-50.83 15.883-44.47-12.325v9.149h-38.12V118.3h50.64l39.13 14.613c7.12 2.668 11.88 9.53 11.88 17.154h12.71c10.55 0 19.06 8.513 19.06 19.06Zm-108.01 6.354v-44.474h-12.7v44.474h12.7Zm94.67-9.086c-1.02-2.096-3.24-3.558-5.72-3.558h-33.99c-3.43 0-6.8-.572-10.04-1.652l-15.12-5.019 4-12.071 15.12 5.019c1.97.635 14.62.953 14.62.953a5.652 5.652 0 0 0-3.62-5.273l-36.98-13.787h-10.23v34.816l44.28 12.263 37.68-11.691ZM216.241 424.853v-25.414h-63.534v114.362h127.069v-88.948h-63.535Zm-38.12 76.242h-12.707v-12.707h12.707v12.707Zm0-25.414h-12.707v-12.707h12.707v12.707Zm0-25.414h-12.707V437.56h12.707v12.707Zm0-25.414h-12.707v-12.707h12.707v12.707Zm25.414 76.242h-12.707v-12.707h12.707v12.707Zm0-25.414h-12.707v-12.707h12.707v12.707Zm0-25.414h-12.707V437.56h12.707v12.707Zm0-25.414h-12.707v-12.707h12.707v12.707Zm63.534 76.242h-50.828v-12.707h12.707v-12.707h-12.707v-12.707h12.707v-12.707h-12.707V437.56h50.828v63.535Zm-12.707-50.828h-12.707v12.707h12.707v-12.707Zm0 25.414h-12.707v12.707h12.707v-12.707ZM606.977 272.373l-14.295-25.414h-21.03l-10.737-19.061h-28.591l-10.737 19.061h-21.03l-14.295 25.414 10.737 19.06-10.737 19.06 14.295 25.414h21.03l10.737 19.06h28.591l10.737-19.06h21.03l14.295-25.414-10.737-19.06 10.737-19.06Zm-14.549 0-7.116 12.706h-13.596l-7.116-12.706 7.116-12.707h13.596l7.116 12.707Zm-52.543 31.767-7.116-12.707 7.116-12.707h13.469l7.116 12.707-7.116 12.707h-13.469Zm13.596-63.535 7.116 12.58-7.243 12.834h-13.469l-7.243-12.834 7.116-12.58h13.723Zm-45.491 19.061h13.597l7.116 12.707-7.116 12.706H507.99l-7.179-12.706 7.179-12.707Zm-7.179 50.827 7.116-12.707h13.596l7.116 12.707-7.116 12.707H507.99l-7.179-12.707Zm38.947 31.767-7.116-12.579 7.243-12.834h13.469l7.179 12.834-7.052 12.579h-13.723Zm45.49-19.06h-13.596l-7.116-12.707 7.116-12.707h13.596l7.116 12.707-7.116 12.707ZM1521.87 825.12h-9.53v-57.181h9.53v57.181Zm20.65 0h-9.53v-57.181h9.53v57.181Zm20.65 0h-9.53v-57.181h9.53v57.181Zm6.35-76.241h-12.7v-19.061c0-3.494-2.86-6.353-6.36-6.353h-25.41c-3.49 0-6.35 2.859-6.35 6.353v19.061h-12.71c-6.99 0-12.71 5.718-12.71 12.707v69.887c0 6.989 5.72 12.707 12.71 12.707 0 3.495 2.86 6.354 6.35 6.354 3.5 0 6.36-2.859 6.36-6.354h38.12c0 3.495 2.86 6.354 6.35 6.354 3.5 0 6.35-2.859 6.35-6.354 6.99 0 12.71-5.718 12.71-12.707v-69.887c0-6.989-5.72-12.707-12.71-12.707Zm-41.29-15.884h19.06v15.884h-19.06v-15.884Zm41.29 98.478h-63.53v-69.887h63.53v69.887ZM381.367 62.707c-35.071 0-63.471 28.464-63.471 63.534 0 35.071 28.4 63.535 63.471 63.535 35.135 0 63.598-28.464 63.598-63.535 0-35.07-28.463-63.534-63.598-63.534Zm.064 114.362c-28.082 0-50.828-22.745-50.828-50.828 0-28.082 22.746-50.827 50.828-50.827 28.082 0 50.827 22.745 50.827 50.827 0 28.083-22.745 50.828-50.827 50.828Zm22.237-57.181a9.518 9.518 0 0 0 9.53-9.53 9.518 9.518 0 0 0-9.53-9.53 9.518 9.518 0 0 0-9.53 9.53 9.518 9.518 0 0 0 9.53 9.53Zm-44.474 0a9.518 9.518 0 0 0 9.53-9.53 9.518 9.518 0 0 0-9.53-9.53 9.518 9.518 0 0 0-9.53 9.53 9.518 9.518 0 0 0 9.53 9.53Zm22.237 41.297c14.803 0 27.383-9.276 32.466-22.237h-64.932c5.083 12.961 17.662 22.237 32.466 22.237ZM381.432 353.379c6.989 0 12.707-5.718 12.707-12.707h-25.414c0 6.989 5.718 12.707 12.707 12.707Zm38.12-38.121v-31.767c0-19.505-10.356-35.833-28.59-40.154v-4.32a9.518 9.518 0 0 0-9.53-9.53 9.517 9.517 0 0 0-9.53 9.53v4.32c-18.171 4.321-28.591 20.585-28.591 40.154v31.767l-12.707 12.707v6.354h101.655v-6.354l-12.707-12.707Zm-12.706 6.354h-50.828v-38.121c0-15.756 9.594-28.59 25.414-28.59 15.82 0 25.414 12.834 25.414 28.59v38.121Zm-53.496-82.087-9.086-9.085c-15.248 11.627-25.287 29.543-26.176 49.874h12.707c.953-16.836 9.593-31.576 22.555-40.789Zm78.719 40.789h12.707c-.953-20.331-10.992-38.247-26.177-49.874l-9.022 9.085c12.834 9.213 21.539 23.953 22.492 40.789ZM1537.76 518.566c6.99 0 12.7-5.718 12.7-12.706h-25.41c0 6.988 5.72 12.706 12.71 12.706Zm38.12-38.12v-31.767c0-19.505-10.36-35.834-28.59-40.154v-4.321a9.52 9.52 0 0 0-9.53-9.53 9.513 9.513 0 0 0-9.53 9.53v4.321c-18.17 4.32-28.59 20.585-28.59 40.154v31.767l-12.71 12.707v6.353h101.65v-6.353l-12.7-12.707Zm-12.71 6.353h-50.83v-38.12c0-15.757 9.6-28.591 25.42-28.591 15.82 0 25.41 12.834 25.41 28.591v38.12ZM575.21 520.155c10.547 0 19.06-8.514 19.06-19.061 0-10.546-8.513-19.06-19.06-19.06-8.259 0-15.248 5.337-17.917 12.707h-32.021l12.643-19.442a40.28 40.28 0 0 0 11.055 0l6.481 9.975c2.668-3.367 6.099-6.035 10.165-7.687l-3.812-5.909c15.376-6.989 26.113-22.428 26.113-40.471h-88.948c0 18.043 10.737 33.482 26.176 40.471l-25.096 38.629c-1.906 2.923-1.08 6.862 1.842 8.768 2.923 1.906 6.862 1.08 8.768-1.843l6.354-9.848h40.28c2.669 7.434 9.658 12.771 17.917 12.771Zm0-25.414c3.494 0 6.354 2.859 6.354 6.353 0 3.495-2.86 6.354-6.354 6.354s-6.353-2.859-6.353-6.354c0-3.494 2.859-6.353 6.353-6.353Zm-60.866-50.828h58.198c-4.893 11.183-16.138 19.061-29.099 19.061-12.961 0-24.207-7.878-29.099-19.061ZM526.987 424.853h6.354c.953-7.306 1.461-10.419-5.655-18.806-2.668-3.177-4.32-4.892-2.922-12.961h-6.29c-1.334 7.052.19 13.024 5.654 18.806 1.398 1.525 5.02 4.257 2.859 12.961ZM542.744 424.853h6.353c.953-7.306 1.462-10.419-5.654-18.806-2.669-3.177-4.32-4.956-2.923-12.961h-6.29c-1.334 7.052.191 13.024 5.655 18.806 1.461 1.525 5.083 4.257 2.859 12.961ZM558.755 424.853h6.353c.953-7.306 1.461-10.419-5.654-18.806-2.669-3.177-4.321-4.892-2.923-12.961h-6.29c-1.334 7.052.191 13.024 5.655 18.806 1.397 1.525 5.019 4.257 2.859 12.961ZM546.62 564.631l-69.888 38.121 25.414 13.85v38.121l44.474 24.27 44.474-24.27v-38.121l12.707-6.925v43.902h12.707v-50.827l-69.888-38.121Zm43.331 38.121-43.331 23.634-43.33-23.634 43.33-23.635 43.331 23.635Zm-11.563 44.41-31.768 17.345-31.767-17.345v-23.635l31.767 17.345 31.768-17.345v23.635ZM546.62 723.465c-35.071 0-63.534 28.463-63.534 63.534s28.463 63.535 63.534 63.535 63.535-28.464 63.535-63.535-28.464-63.534-63.535-63.534Zm6.354 13.151c19.505 2.415 35.389 16.011 41.551 34.055l-41.551-24.016v-10.039Zm-31.767 6.417c7.497-4.383 21.157-6.734 19.06-6.48v46.698l-19.06 10.991v-51.209Zm-21.412 63.662c-2.541-6.099-4.002-12.707-4.002-19.696 0-12.834 4.828-24.524 12.707-33.482v48.159l-8.705 5.019Zm6.417 10.991 40.408-23.38 19.061 10.991-44.347 25.605c-5.909-3.368-11.055-7.815-15.122-13.216Zm40.408 20.141c-3.43 0-6.798-.381-10.038-1.017l41.806-24.143 8.64 4.956c-9.276 12.262-23.889 20.204-40.408 20.204Zm6.354-54.513v-21.983l44.474 25.732c0 6.989-1.461 13.596-4.003 19.632l-40.471-23.381ZM603.801 933.13h-40.09l6.036-29.035.19-2.033a9.567 9.567 0 0 0-2.795-6.735l-6.735-6.671-41.805 41.869c-2.351 2.288-3.749 5.464-3.749 8.959v63.536c0 6.99 5.718 12.71 12.707 12.71h57.181a12.62 12.62 0 0 0 11.69-7.76l19.188-44.788c.572-1.461.889-2.986.889-4.638v-12.707c0-6.989-5.718-12.707-12.707-12.707Zm0 25.414-19.06 44.476H527.56v-63.536l27.574-27.574-7.052 33.927h55.719v12.707Zm-127.069-19.06h25.414v76.246h-25.414v-76.246ZM216.242 888.656c-33.864 28.908-50.828 53.877-50.828 74.971 0 31.64 24.143 52.103 50.828 52.103 26.684 0 50.827-20.463 50.827-52.103 0-21.094-16.964-46.063-50.827-74.971Zm0 114.364c-21.284 0-38.121-16.33-38.121-39.393 0-14.867 12.389-34.563 38.121-58.071 25.731 23.508 38.12 43.14 38.12 58.071 0 23.063-16.836 39.393-38.12 39.393Zm-26.494-38.122c2.351 0 4.257 1.651 4.701 3.939 2.605 14.104 14.486 18.933 23.127 18.234 2.732-.127 5.019 2.033 5.019 4.765 0 2.542-2.033 4.638-4.574 4.765-13.533.826-29.353-6.925-32.975-26.176-.508-2.859 1.779-5.527 4.702-5.527ZM165.414 761.585h25.414v-25.414h-25.414v25.414Zm38.121 76.241h25.414v-25.413h-25.414v25.413Zm-38.121 0h25.414v-25.413h-25.414v25.413Zm0-38.12h25.414v-25.414h-25.414v25.414Zm38.121 0h25.414v-25.414h-25.414v25.414Zm38.12-63.535v25.414h25.414v-25.414h-25.414Zm-38.12 25.414h25.414v-25.414h-25.414v25.414Zm38.12 38.121h25.414v-25.414h-25.414v25.414Zm0 38.12h25.414v-25.413h-25.414v25.413ZM1537.76 570.984l-8.96 8.958 35.45 35.516h-77.32v12.707h77.32l-35.45 35.516 8.96 8.958 50.82-50.828-50.82-50.827ZM260.716 259.666h-12.707v12.707h12.707v-12.707ZM260.716 285.08h-12.707v12.706h12.707V285.08ZM260.716 310.493h-12.707V323.2h12.707v-12.707ZM146.354 285.08v63.534h38.12v-31.767h12.707v31.767h38.121V285.08l-44.474-31.768-44.474 31.768Zm76.241 50.827h-12.707V304.14h-38.121v31.767H159.06v-44.474l31.768-22.237 31.767 22.237v44.474Z" fill="#3C4043"/><path d="M203.535 234.252v12.516l12.706 9.086v-8.895h57.181v88.948h-25.413v12.707h38.12V234.252h-82.594ZM1588.58 69.06h-101.65c-7.05 0-12.64 5.655-12.64 12.707l-.07 76.242c0 7.052 5.66 12.707 12.71 12.707h31.77v-12.707h-31.77v-38.121h114.36v-38.12a12.66 12.66 0 0 0-12.71-12.707Zm0 25.414h-101.65V81.767h101.65v12.707Zm-32.21 70.968-17.98-17.98-8.96 8.958 26.94 27.003 44.92-44.919-8.96-8.959-35.96 35.897ZM1372.57 227.898l-50.83 19.061v38.692c0 32.085 21.67 62.01 50.83 69.316 29.16-7.306 50.83-37.231 50.83-69.316v-38.692l-50.83-19.061Zm38.12 57.753c0 25.414-16.2 48.922-38.12 56.101-21.92-7.179-38.12-30.623-38.12-56.101v-30.369l38.12-13.47 38.12 13.47v30.369Zm-58.32-3.176-9.03 8.958 22.5 22.491 35.96-35.96-8.96-8.959-26.94 26.939-13.53-13.469ZM1423.4 405.792h-101.66c-6.99 0-12.7 5.719-12.7 12.707v19.061h12.7v-19.061h101.66v19.061h12.7v-19.061c0-6.988-5.71-12.707-12.7-12.707ZM1423.4 494.741h-101.66V475.68h-12.7v19.061c0 6.988 5.71 12.707 12.7 12.707h101.66c6.99 0 12.7-5.719 12.7-12.707V475.68h-12.7v19.061Z" fill="#3C4043"/><path d="M1390.93 428.347c-2.16-4.32-9.21-4.32-11.37 0l-19.7 39.455-7.05-14.041a6.275 6.275 0 0 0-5.65-3.494h-38.12v12.706h34.18l10.92 21.92c1.15 2.16 3.31 3.494 5.72 3.494 2.42 0 4.58-1.334 5.66-3.494l19.76-39.455 7.05 14.041a6.275 6.275 0 0 0 5.65 3.494h38.12v-12.706h-34.18l-10.99-21.92ZM1416.61 100.828c-14.04-24.27-45.17-32.594-69.44-18.616-8.96 5.21-15.76 12.707-20.08 21.411a96.68 96.68 0 0 1 6.48-40.916h-13.47c-9.78 28.527-7.75 60.866 8.45 88.948 6.99 12.135 18.3 20.268 30.88 23.635 12.58 3.367 26.43 1.97 38.57-5.019 8.96-5.21 15.75-12.707 20.07-21.411.83 13.977-1.33 27.955-6.41 40.916h13.4c9.72-28.527 7.75-60.866-8.45-88.948Zm-24.97 58.451c-18.23 10.484-41.55 4.257-52.09-13.977a52.356 52.356 0 0 1-1.91-3.812c-7.62-17.536-1.08-38.502 15.88-48.286 18.17-10.484 41.55-4.257 52.1 13.977.7 1.271 1.34 2.542 1.91 3.812 7.62 17.536 1.08 38.502-15.89 48.286Zm-19.06-45.744c6.99 0 12.71 5.718 12.71 12.706 0 6.989-5.72 12.707-12.71 12.707-6.99 0-12.7-5.718-12.7-12.707 0-6.988 5.71-12.706 12.7-12.706Zm0-12.707c-14.04 0-25.41 11.372-25.41 25.413 0 14.042 11.37 25.414 25.41 25.414 14.04 0 25.42-11.372 25.42-25.414 0-14.041-11.38-25.413-25.42-25.413ZM1207.38 117.823c-6.99 0-12.71 5.718-12.71 12.707 0 6.989 5.72 12.707 12.71 12.707 6.99 0 12.71-5.718 12.71-12.707 0-6.989-5.72-12.707-12.71-12.707Zm38.12 12.707c0-21.03-17.09-38.12-38.12-38.12-21.03 0-38.12 17.09-38.12 38.12 0 14.105 7.69 26.367 19.06 32.974l6.35-11.055c-7.56-4.447-12.71-12.516-12.71-21.919 0-14.041 11.38-25.414 25.42-25.414 14.04 0 25.41 11.373 25.41 25.414 0 9.403-5.14 17.472-12.7 21.919l6.35 11.055c11.37-6.607 19.06-18.869 19.06-32.974Zm-38.12-63.534c-35.07 0-63.54 28.463-63.54 63.534 0 23.508 12.77 43.966 31.71 54.957l6.35-10.991c-15.12-8.831-25.35-25.16-25.35-43.966 0-28.082 22.75-50.828 50.83-50.828s50.83 22.746 50.83 50.828c0 18.806-10.23 35.135-25.42 43.966l6.36 10.991c18.99-10.991 31.76-31.449 31.76-54.957 0-35.071-28.46-63.534-63.53-63.534ZM1423.4 752.055h-74.34l52.48-21.22-4.32-10.547-80.31 32.72c-4.63 1.779-7.87 6.481-7.87 11.754v76.242c0 6.988 5.65 12.706 12.7 12.706h101.66c7.05 0 12.7-5.718 12.7-12.706v-76.242c0-7.052-5.65-12.707-12.7-12.707Zm0 12.707v19.061h-12.71v-12.707h-12.71v12.707h-76.24v-19.061h101.66Zm-101.66 76.242v-44.475h101.66v44.475h-101.66Z" fill="#3C4043"/><path d="M1347.16 834.523c8.77 0 15.88-7.111 15.88-15.884 0-8.772-7.11-15.883-15.88-15.883-8.78 0-15.89 7.111-15.89 15.883 0 8.773 7.11 15.884 15.89 15.884ZM1366.22 640.872h12.7v12.707h-12.7v-12.707Zm0-50.827h12.7v38.12h-12.7v-38.12Zm6.29-31.768c-35.07 0-63.47 28.464-63.47 63.535s28.4 63.534 63.47 63.534c35.13 0 63.59-28.463 63.59-63.534s-28.46-63.535-63.59-63.535Zm.06 114.362c-28.08 0-50.83-22.745-50.83-50.827 0-28.082 22.75-50.828 50.83-50.828s50.83 22.746 50.83 50.828c0 28.082-22.75 50.827-50.83 50.827ZM1241.28 227.295l29.27 24.429-8.13 9.752-29.29-24.416 8.15-9.765Zm-67.81 0 8.14 9.759-29.27 24.422-8.14-9.758 29.27-24.423Zm33.91 13.914c-31.58 0-57.19 25.604-57.19 57.181 0 31.577 25.61 57.181 57.19 57.181 31.57 0 57.18-25.604 57.18-57.181 0-31.577-25.61-57.181-57.18-57.181Zm0 101.655c-24.53 0-44.48-19.95-44.48-44.474 0-24.524 19.95-44.474 44.48-44.474 24.52 0 44.47 19.95 44.47 44.474 0 24.524-19.95 44.474-44.47 44.474Zm6.35-69.888h-12.71v19.061h-19.06v12.706h19.06v19.061h12.71v-19.061h19.06v-12.706h-19.06v-19.061ZM1258.21 917.247h-19.06V904.54c0-7.052-5.66-12.707-12.71-12.707h-38.12c-7.05 0-12.71 5.655-12.71 12.707v12.707h-19.06c-7.05 0-12.71 5.654-12.71 12.707v69.888a12.67 12.67 0 0 0 12.71 12.708h101.66c7.05 0 12.7-5.66 12.7-12.708v-69.888c0-7.053-5.65-12.707-12.7-12.707Zm-69.89-12.707h38.12v12.707h-38.12V904.54Zm69.89 95.302h-101.66v-12.707h101.66v12.707Zm0-31.768h-101.66v-38.12h19.06v12.707h12.71v-12.707h38.12v12.707h12.71v-12.707h19.06v38.12ZM1207.38 594.047l9.15 21.602 7.62.635 15.69 1.335-17.72 15.375 1.71 7.497 3.56 15.312-13.47-8.133-6.54-4.066-6.55 3.939-13.47 8.133 3.56-15.312 1.72-7.497-17.73-15.376 15.7-1.334 7.62-.635 2.99-7.052 6.16-14.423Zm0-32.593-17.85 42.123-45.69 3.876 34.69 30.052-10.42 44.665 39.27-23.699 39.26 23.699-10.42-44.665 34.69-30.052-45.68-3.876-17.85-42.123ZM1245.5 434.383h-6.35v-12.707c0-17.535-14.24-31.767-31.77-31.767-17.54 0-31.77 14.232-31.77 31.767v12.707h-6.35c-6.99 0-12.71 5.718-12.71 12.707v63.535c0 6.988 5.72 12.707 12.71 12.707h76.24c6.99 0 12.71-5.719 12.71-12.707V447.09c0-6.989-5.72-12.707-12.71-12.707Zm-57.18-12.707c0-10.546 8.51-19.06 19.06-19.06 10.55 0 19.06 8.514 19.06 19.06v12.707h-38.12v-12.707Zm57.18 88.949h-76.24V447.09h76.24v63.535Zm-38.12-19.061c6.99 0 12.71-5.718 12.71-12.707 0-6.988-5.72-12.706-12.71-12.706-6.99 0-12.71 5.718-12.71 12.706 0 6.989 5.72 12.707 12.71 12.707ZM1251.85 761.586h-6.35v-31.768h-76.24v31.768h-6.36c-10.54 0-19.06 8.513-19.06 19.06v38.121h25.42v25.413h76.24v-25.413h25.41v-38.121c0-10.547-8.51-19.06-19.06-19.06Zm-69.89-19.061h50.83v19.061h-50.83v-19.061Zm50.83 88.948h-50.83V806.06h50.83v25.413Zm12.71-25.413v-12.707h-76.24v12.707h-12.71v-25.414c0-3.494 2.86-6.354 6.35-6.354h88.95c3.5 0 6.36 2.86 6.36 6.354v25.414h-12.71Z" fill="#3C4043"/><path d="M1245.5 790.176a6.35 6.35 0 0 0 6.35-6.353 6.35 6.35 0 1 0-12.7 0 6.35 6.35 0 0 0 6.35 6.353ZM1562.1 305.569h-5.02l-1.78-1.716c6.23-7.243 9.97-16.646 9.97-26.875 0-22.809-18.48-41.297-41.29-41.297s-41.3 18.488-41.3 41.297c0 22.809 18.49 41.297 41.3 41.297 10.23 0 19.63-3.748 26.87-9.974l1.72 1.778v5.02l31.76 31.703 9.47-9.466-31.7-31.767Zm-38.12 0c-15.82 0-28.59-12.771-28.59-28.591s12.77-28.59 28.59-28.59 28.59 12.77 28.59 28.59-12.77 28.591-28.59 28.591ZM740.4 563.519c-11.055 0-21.665 5.146-28.59 13.278-6.925-8.132-17.536-13.278-28.591-13.278-19.568 0-34.944 15.375-34.944 34.943 0 24.017 21.602 43.585 54.322 73.319l9.213 8.323 9.212-8.386c32.721-29.671 54.322-49.239 54.322-73.256 0-19.568-15.375-34.943-34.944-34.943Zm-27.955 98.796-.635.635-.636-.635c-30.242-27.384-50.192-45.491-50.192-63.853 0-12.706 9.53-22.237 22.237-22.237 9.785 0 19.315 6.29 22.682 14.995h11.881c3.304-8.705 12.834-14.995 22.618-14.995 12.707 0 22.237 9.531 22.237 22.237 0 18.362-19.949 36.469-50.192 63.853ZM727.693 491.564c0 10.483-8.577 19.06-19.06 19.06-10.483 0-19.06-8.577-19.06-19.06h12.707c0 3.494 2.859 6.353 6.353 6.353 3.495 0 6.354-2.859 6.354-6.353 0-3.494-2.859-6.354-6.354-6.354h-60.358v-12.706h60.358c10.483 0 19.06 8.577 19.06 19.06Zm28.591-66.711c0-12.262-9.975-22.237-22.237-22.237-12.262 0-22.237 9.975-22.237 22.237h12.707a9.517 9.517 0 0 1 9.53-9.53 9.517 9.517 0 0 1 9.53 9.53 9.518 9.518 0 0 1-9.53 9.53h-85.772v12.707h85.772c12.262 0 22.237-9.975 22.237-22.237Zm-3.177 28.59H648.275v12.707h104.832a9.517 9.517 0 0 1 9.53 9.53 9.516 9.516 0 0 1-9.53 9.53v12.707c12.262 0 22.237-9.975 22.237-22.237 0-12.262-9.975-22.237-22.237-22.237ZM711.81 291.433c-6.989 0-12.707-5.718-12.707-12.707 0-6.989 5.718-12.707 12.707-12.707 6.989 0 12.707 5.718 12.707 12.707 0 6.989-5.718 12.707-12.707 12.707Zm38.121-11.436c0-23.063-16.837-39.392-38.121-39.392-21.284 0-38.121 16.329-38.121 39.392 0 14.867 12.39 34.562 38.121 58.07 25.731-23.508 38.121-43.203 38.121-58.07Zm-38.121-52.099c26.684 0 50.828 20.459 50.828 52.099 0 21.093-16.964 46.062-50.828 74.97-33.864-28.908-50.828-53.877-50.828-74.97 0-31.64 24.144-52.099 50.828-52.099ZM756.284 831.473h-88.948v-88.948h44.474v-12.707h-44.474c-7.053 0-12.707 5.718-12.707 12.707v88.948c0 6.989 5.654 12.707 12.707 12.707h88.948c6.989 0 12.707-5.718 12.707-12.707v-44.474h-12.707v44.474Zm-31.767-101.655v12.707h22.809l-62.455 62.455 8.959 8.958 62.454-62.454v22.808h12.707v-44.474h-44.474Z" fill="#3C4043"/><g clip-path="url(#a)"><path d="M758.508 113.788c-4.321-21.919-23.572-38.374-46.698-38.374-18.362 0-34.245 10.42-42.187 25.667-19.124 2.034-34.055 18.171-34.055 37.867 0 21.03 17.091 38.121 38.121 38.121h82.595c17.535 0 31.767-14.232 31.767-31.768 0-16.773-13.025-30.369-29.543-31.513Zm-2.224 50.574h-82.595c-14.041 0-25.414-11.373-25.414-25.414 0-14.041 11.373-25.414 25.414-25.414 14.041 0 25.414 11.373 25.414 25.414h12.707c0-17.535-11.818-32.275-27.955-36.723 6.417-8.513 16.518-14.104 27.955-14.104 19.251 0 34.944 15.692 34.944 34.943v3.177h9.53c10.483 0 19.06 8.577 19.06 19.06 0 10.484-8.577 19.061-19.06 19.061Z" fill="#3C4043"/></g><path d="M762.638 939.483v-12.706h-25.414v-25.414h-12.707v25.414h-25.414v-25.414h-12.707v25.414h-25.414v12.706h25.414v25.414h-25.414v12.707h25.414v25.416h12.707v-25.416h25.414v25.416h12.707v-25.416h25.414v-12.707h-25.414v-25.414h25.414Zm-38.121 25.414h-25.414v-25.414h25.414v25.414ZM1728.65 578.879l17.98 17.98-17.98 17.981-17.98-17.981 17.98-17.98Zm-48.66 3.05v25.414h-25.42v-25.414h25.42Zm63.53 63.534v25.414h-25.41v-25.414h25.41Zm-63.53 0v25.414h-25.42v-25.414h25.42Zm48.66-84.564-35.96 35.897 35.96 35.96 35.96-35.96-35.96-35.897Zm-35.96 8.323h-50.82v50.827h50.82v-50.827Zm63.54 63.534h-50.83v50.828h50.83v-50.828Zm-63.54 0h-50.82v50.828h50.82v-50.828ZM826.172 672.639c-3.495 0-6.486-1.244-8.975-3.732-2.488-2.489-3.732-5.48-3.732-8.975v-76.241c0-3.494 1.244-6.486 3.732-8.974 2.489-2.489 5.48-3.733 8.975-3.733h101.655c3.494 0 6.486 1.244 8.974 3.733 2.489 2.488 3.733 5.48 3.733 8.974v76.241c0 3.495-1.244 6.486-3.733 8.975-2.488 2.488-5.48 3.732-8.974 3.732H826.172Zm50.827-44.474-50.827-31.767v63.534h101.655v-63.534l-50.828 31.767Zm0-12.707 50.828-31.767H826.172l50.827 31.767Zm-50.827-19.06v-12.707 76.241-63.534ZM845.232 450.267h12.707v12.707h-12.707v-12.707ZM934.18 418.5v88.948c0 6.989-5.718 12.707-12.707 12.707h-88.948c-7.052 0-12.707-5.718-12.707-12.707l.064-88.948c0-6.989 5.591-12.707 12.643-12.707h6.354v-12.707h12.707v12.707h50.827v-12.707h12.707v12.707h6.353c6.989 0 12.707 5.718 12.707 12.707Zm-101.655 12.707h88.948V418.5h-88.948v12.707Zm88.948 76.241v-63.535h-88.948v63.535h88.948Zm-25.413-44.474h12.707v-12.707H896.06v12.707Zm-25.414 0h12.707v-12.707h-12.707v12.707ZM921.473 809.236v19.061c0 3.494-2.859 6.353-6.353 6.353h-6.353v-25.414h12.706Zm-76.241 0v25.414h-6.353c-3.495 0-6.354-2.859-6.354-6.353v-19.061h12.707Zm31.767-82.594c-31.576 0-57.181 25.604-57.181 57.181v44.474c0 10.546 8.514 19.06 19.061 19.06h19.06v-50.828h-25.414v-12.706c0-24.588 19.887-44.475 44.474-44.475 24.588 0 44.474 19.887 44.474 44.475v12.706H896.06v50.828h19.06c10.547 0 19.06-8.514 19.06-19.06v-44.474c0-31.577-25.604-57.181-57.181-57.181ZM883.353 259.666h-12.707v25.413h-25.414v12.707h25.414V323.2h12.707v-25.414h25.414v-12.707h-25.414v-25.413Zm-6.354-31.768c-35.007 0-63.534 28.527-63.534 63.535 0 35.007 28.527 63.534 63.534 63.534 35.008 0 63.535-28.527 63.535-63.534 0-35.008-28.527-63.535-63.535-63.535Zm0 114.362c-28.018 0-50.827-22.808-50.827-50.827s22.809-50.828 50.827-50.828c28.019 0 50.828 22.809 50.828 50.828 0 28.019-22.809 50.827-50.828 50.827ZM896.06 888.656c-17.218 0-32.085 9.785-39.519 24.016-8.132 4.257-14.867 10.928-19.06 19.061-14.232 7.433-24.016 22.3-24.016 39.518 0 24.588 19.886 44.479 44.474 44.479 17.218 0 32.085-9.79 39.518-24.021 8.133-4.257 14.867-10.928 19.061-19.06 14.231-7.434 24.016-22.301 24.016-39.519 0-24.587-19.887-44.474-44.474-44.474Zm-38.121 114.364c-17.536 0-31.767-14.233-31.767-31.769a31.675 31.675 0 0 1 6.353-19.06c0 24.588 19.886 44.474 44.474 44.474a31.658 31.658 0 0 1-19.06 6.355Zm19.06-19.062c-17.535 0-31.767-14.232-31.767-31.767a31.673 31.673 0 0 1 6.354-19.061c0 24.525 19.886 44.411 44.474 44.474a31.673 31.673 0 0 1-19.061 6.354Zm29.861-20.966c-3.367 1.207-6.988 1.906-10.8 1.906-17.536 0-31.768-14.232-31.768-31.768 0-3.812.699-7.433 1.906-10.8 3.368-1.208 6.989-1.907 10.801-1.907 17.536 0 31.768 14.232 31.768 31.768 0 3.812-.699 7.433-1.907 10.801Zm14.613-10.801c0-24.525-19.886-44.411-44.474-44.474 5.337-4.003 11.881-6.354 19.061-6.354 17.535 0 31.767 14.232 31.767 31.767a31.673 31.673 0 0 1-6.354 19.061ZM1665.12 793.595c-3.5 0-6.36 2.859-6.36 6.353 0 3.495 2.86 6.354 6.36 6.354 3.49 0 6.35-2.859 6.35-6.354 0-3.494-2.86-6.353-6.35-6.353Zm0 25.414c-3.5 0-6.36 2.859-6.36 6.353 0 3.495 2.86 6.354 6.36 6.354 3.49 0 6.35-2.859 6.35-6.354 0-3.494-2.86-6.353-6.35-6.353Zm0-50.828c-3.5 0-6.36 2.859-6.36 6.354 0 3.494 2.86 6.353 6.36 6.353 3.49 0 6.35-2.859 6.35-6.353 0-3.495-2.86-6.354-6.35-6.354Zm-19.06 3.177a3.148 3.148 0 0 0-3.18 3.177c0 1.779 1.4 3.176 3.18 3.176 1.78 0 3.17-1.397 3.17-3.176 0-1.779-1.39-3.177-3.17-3.177Zm19.06-28.591c-3.5 0-6.36 2.859-6.36 6.354 0 3.494 2.86 6.353 6.36 6.353 3.49 0 6.35-2.859 6.35-6.353 0-3.495-2.86-6.354-6.35-6.354Zm95.3 34.944c1.78 0 3.18-1.397 3.18-3.176 0-1.779-1.4-3.177-3.18-3.177a3.148 3.148 0 0 0-3.18 3.177c0 1.779 1.4 3.176 3.18 3.176Zm-44.47-22.237c3.49 0 6.35-2.859 6.35-6.353 0-3.495-2.86-6.354-6.35-6.354-3.5 0-6.36 2.859-6.36 6.354 0 3.494 2.86 6.353 6.36 6.353Zm0-22.237c1.77 0 3.17-1.398 3.17-3.176 0-1.779-1.4-3.177-3.17-3.177a3.148 3.148 0 0 0-3.18 3.177c0 1.778 1.4 3.176 3.18 3.176Zm-69.89 63.535a3.147 3.147 0 0 0-3.18 3.176c0 1.779 1.4 3.177 3.18 3.177 1.78 0 3.17-1.398 3.17-3.177 0-1.779-1.39-3.176-3.17-3.176Zm44.47 44.474a3.148 3.148 0 0 0-3.18 3.177c0 1.778 1.4 3.176 3.18 3.176 1.78 0 3.18-1.398 3.18-3.176 0-1.779-1.4-3.177-3.18-3.177Zm0-108.009c1.78 0 3.18-1.398 3.18-3.176 0-1.779-1.4-3.177-3.18-3.177a3.148 3.148 0 0 0-3.18 3.177c0 1.778 1.4 3.176 3.18 3.176Zm0 22.237c3.5 0 6.36-2.859 6.36-6.353 0-3.495-2.86-6.354-6.36-6.354-3.49 0-6.35 2.859-6.35 6.354 0 3.494 2.86 6.353 6.35 6.353Zm0 34.944a9.52 9.52 0 0 0-9.53 9.53 9.52 9.52 0 0 0 9.53 9.531c5.28 0 9.53-4.257 9.53-9.531 0-5.273-4.25-9.53-9.53-9.53Zm50.83 3.177c-3.5 0-6.35 2.859-6.35 6.353 0 3.495 2.85 6.354 6.35 6.354 3.49 0 6.35-2.859 6.35-6.354 0-3.494-2.86-6.353-6.35-6.353Zm0 25.414c-3.5 0-6.35 2.859-6.35 6.353 0 3.495 2.85 6.354 6.35 6.354 3.49 0 6.35-2.859 6.35-6.354 0-3.494-2.86-6.353-6.35-6.353Zm0-50.828c-3.5 0-6.35 2.859-6.35 6.354 0 3.494 2.85 6.353 6.35 6.353 3.49 0 6.35-2.859 6.35-6.353 0-3.495-2.86-6.354-6.35-6.354Zm0-25.414c-3.5 0-6.35 2.859-6.35 6.354 0 3.494 2.85 6.353 6.35 6.353 3.49 0 6.35-2.859 6.35-6.353 0-3.495-2.86-6.354-6.35-6.354Zm19.06 54.005a3.147 3.147 0 0 0-3.18 3.176c0 1.779 1.4 3.177 3.18 3.177 1.78 0 3.18-1.398 3.18-3.177 0-1.779-1.4-3.176-3.18-3.176Zm-44.47 22.237c-3.5 0-6.36 2.859-6.36 6.353 0 3.495 2.86 6.354 6.36 6.354 3.49 0 6.35-2.859 6.35-6.354 0-3.494-2.86-6.353-6.35-6.353Zm0 22.237a3.148 3.148 0 0 0-3.18 3.177c0 1.778 1.4 3.176 3.18 3.176 1.77 0 3.17-1.398 3.17-3.176 0-1.779-1.4-3.177-3.17-3.177Zm-25.42-76.242a9.52 9.52 0 0 0-9.53 9.531 9.52 9.52 0 0 0 9.53 9.53c5.28 0 9.53-4.257 9.53-9.53a9.513 9.513 0 0 0-9.53-9.531Zm0 54.005c-3.49 0-6.35 2.859-6.35 6.353 0 3.495 2.86 6.354 6.35 6.354 3.5 0 6.36-2.859 6.36-6.354 0-3.494-2.86-6.353-6.36-6.353Zm25.42-28.591a9.513 9.513 0 0 0-9.53 9.53 9.513 9.513 0 0 0 9.53 9.531 9.52 9.52 0 0 0 9.53-9.531 9.52 9.52 0 0 0-9.53-9.53Zm0-25.414a9.513 9.513 0 0 0-9.53 9.531c0 5.273 4.25 9.53 9.53 9.53a9.52 9.52 0 0 0 9.53-9.53 9.52 9.52 0 0 0-9.53-9.531ZM842.31 81.767c.381 5.655 1.334 11.183 2.859 16.456l-7.625 7.624a94.24 94.24 0 0 1-4.828-24.08h9.594Zm62.645 76.369a80.983 80.983 0 0 0 16.518 2.859v9.467c-8.386-.572-16.455-2.224-24.143-4.766l7.625-7.56Zm-56.546-89.075h-22.237c-3.495 0-6.354 2.859-6.354 6.353 0 59.659 48.35 108.009 108.009 108.009 3.494 0 6.353-2.86 6.353-6.354v-22.173c0-3.495-2.859-6.354-6.353-6.354-7.878 0-15.566-1.271-22.682-3.621-.635-.254-1.334-.318-1.969-.318-1.652 0-3.241.635-4.511 1.843l-13.978 13.977c-17.98-9.212-32.72-23.889-41.869-41.869l13.977-13.978c1.779-1.779 2.288-4.257 1.589-6.48-2.351-7.116-3.622-14.74-3.622-22.682 0-3.494-2.859-6.353-6.353-6.353ZM1096.19 583.691c-16.58 4.448-36.02 6.354-54 6.354-17.98 0-37.42-1.906-54.005-6.354l-3.177 12.707c11.817 3.177 25.412 5.273 38.122 6.353v82.595h12.71v-38.12h12.7v38.12h12.71v-82.595c12.71-1.08 26.3-3.176 38.12-6.353l-3.18-12.707Zm-54 0c6.99 0 12.71-5.718 12.71-12.707 0-6.989-5.72-12.707-12.71-12.707-6.99 0-12.71 5.718-12.71 12.707 0 6.989 5.72 12.707 12.71 12.707ZM1073.96 386.796l-63.54-.064c-6.99 0-12.705 5.719-12.705 12.707v114.362c0 6.989 5.715 12.707 12.705 12.707h63.54c6.98 0 12.7-5.718 12.7-12.707V399.439c0-6.988-5.72-12.643-12.7-12.643Zm0 127.005h-63.54v-6.353h63.54v6.353Zm0-19.06h-63.54V418.5h63.54v76.241Zm0-88.948h-63.54v-6.354h63.54v6.354Zm-6.36 38.438-8.96-8.958-22.49 22.491-8.96-8.958-8.95 8.958 17.91 17.917 31.45-31.45ZM999.938 294.609c7.562 0 9.022 6.354 21.162 6.354 12.38 0 13.27-6.354 21.15-6.354 7.56 0 9.02 6.354 21.16 6.354 12.39 0 13.28-6.354 21.16-6.354 7.56 0 8.89 6.227 21.03 6.354v-12.707c-7.56 0-9.03-6.353-21.16-6.353-12.39 0-13.28 6.353-21.16 6.353-7.56 0-9.02-6.353-21.15-6.353-12.39 0-13.28 6.353-21.16 6.353-7.56 0-9.02-6.353-21.159-6.353-12.389 0-13.278 6.353-21.157 6.353v12.707c12.072 0 13.787-6.354 21.284-6.354Zm84.632 12.707c-12.39 0-13.28 6.354-21.16 6.354-7.56 0-9.02-6.354-21.16-6.354-12.39 0-13.34 6.354-21.22 6.354-7.88 0-8.77-6.354-21.155-6.354-12.389 0-13.342 6.354-21.221 6.354v12.707c12.39 0 13.406-6.354 21.221-6.354 7.875 0 8.765 6.354 21.155 6.354s13.34-6.354 21.22-6.354c7.56 0 9.02 6.354 21.16 6.354 12.32 0 13.28-6.354 21.16-6.354 7.56 0 9.02 6.354 21.15 6.354V313.67c-7.88 0-8.76-6.354-21.15-6.354Zm-84.632-38.12c7.562 0 9.022 6.353 21.162 6.353 12.38 0 13.27-6.353 21.15-6.353 7.56 0 9.02 6.353 21.16 6.353 12.39 0 13.28-6.353 21.16-6.353 7.56 0 8.89 6.226 21.03 6.353v-12.707c-7.56 0-9.03-6.353-21.16-6.353-12.39 0-13.28 6.353-21.16 6.353-7.56 0-9.02-6.353-21.15-6.353-12.39 0-13.28 6.353-21.16 6.353-7.56 0-9.02-6.353-21.159-6.353-12.389 0-13.278 6.353-21.157 6.353v12.707c12.072 0 13.787-6.353 21.284-6.353ZM1042.19 723.465c-35.07 0-63.536 28.463-63.536 63.534s28.466 63.535 63.536 63.535 63.53-28.464 63.53-63.535-28.46-63.534-63.53-63.534Zm-31.32 103.434c2.73-5.718 19.37-11.309 31.32-11.309 11.94 0 28.65 5.591 31.32 11.309-8.64 6.862-19.5 10.928-31.32 10.928s-22.68-4.066-31.32-10.928Zm71.73-9.213c-9.09-11.055-31.14-14.803-40.41-14.803-9.28 0-31.32 3.748-40.41 14.803-6.48-8.513-10.419-19.123-10.419-30.687 0-28.018 22.809-50.827 50.829-50.827s50.83 22.809 50.83 50.827c0 11.564-3.94 22.174-10.42 30.687Zm-40.41-68.807a22.18 22.18 0 0 0-22.24 22.237 22.18 22.18 0 0 0 22.24 22.237c12.32 0 22.24-9.912 22.24-22.237a22.186 22.186 0 0 0-22.24-22.237Zm0 31.767a9.52 9.52 0 0 1-9.53-9.53c0-5.274 4.26-9.53 9.53-9.53s9.53 4.256 9.53 9.53a9.52 9.52 0 0 1-9.53 9.53ZM991.361 917.056l11.179 22.427h90.48v50.828H991.361v-73.255Zm114.359-15.693h-25.41l12.71 25.414h-19.06l-12.71-25.414h-12.71l12.71 25.414h-19.06l-12.71-25.414h-12.71l12.71 25.414h-19.06l-12.705-25.414h-6.354c-6.989 0-12.643 5.718-12.643 12.707l-.064 76.241c0 6.989 5.718 12.709 12.707 12.709h101.659c6.99 0 12.7-5.72 12.7-12.709v-88.948ZM1750.9 923.651l5.97-13.088 13.09-5.972-13.09-5.973-5.97-13.088-5.97 13.088-13.09 5.973 13.09 5.972 5.97 13.088ZM1677.83 923.651l5.98-13.088 13.08-5.972-13.08-5.973-5.98-13.088-5.97 13.088-13.09 5.973 13.09 5.972 5.97 13.088ZM1750.9 958.595l-5.97 13.088-13.09 5.972 13.09 5.972 5.97 13.089 5.97-13.089 13.09-5.972-13.09-5.972-5.97-13.088ZM1736.35 937.12l-17.98-17.98c-1.27-1.207-2.86-1.843-4.51-1.843-1.66 0-3.24.636-4.51 1.843l-70.97 70.968a6.323 6.323 0 0 0 0 8.958l17.98 17.984c1.27 1.27 2.86 1.9 4.51 1.9s3.24-.63 4.51-1.84l70.97-70.968c2.48-2.478 2.48-6.544 0-9.022Zm-22.49-4.447 8.96 8.958-7.44 7.434-8.96-8.959 7.44-7.433Zm-52.99 70.967-8.96-8.958 45.55-45.617 8.96 8.958-45.55 45.617ZM1087.31 116.013l6.74-6.735c4.95-4.956 4.95-13.025 0-17.98l-8.96-8.959c-4.96-4.955-13.02-4.955-17.98 0l-6.74 6.735 26.94 26.939Zm-26.94 9.021-45.74 45.682h-8.96v-8.959l45.68-45.681 9.02 8.958Zm-9.02-27.002-58.385 58.452v26.939h26.935l58.39-58.389-26.94-27.002Zm36.92 63.153c0 13.915-16.14 22.238-31.77 22.238-3.5 0-6.35-2.86-6.35-6.354s2.85-6.353 6.35-6.353c9.78 0 19.06-4.638 19.06-9.531 0-2.986-3.05-5.527-7.82-7.624l9.41-9.403c6.8 4.003 11.12 9.34 11.12 17.027Zm-91.62-26.366c-6.163-3.558-10.039-8.196-10.039-14.931 0-11.436 12.008-16.709 22.619-21.348 6.54-2.922 15.5-6.861 15.5-10.42 0-2.604-4.95-6.353-12.7-6.353-8.01 0-11.44 3.876-11.63 4.067-2.225 2.605-6.228 2.922-8.897.762-2.604-2.16-3.113-6.036-.953-8.768.699-.89 7.243-8.767 21.48-8.767 14.23 0 25.41 8.386 25.41 19.06 0 11.881-12.26 17.281-23.13 22.046-5.97 2.605-14.992 6.544-14.992 9.721 0 1.97 2.732 3.812 6.802 5.464l-9.47 9.467ZM1550.46 888.656h-63.53c-6.99 0-12.71 5.718-12.71 12.707v63.535h12.71v-63.535h63.53v-12.707Zm25.42 25.414h-63.54c-6.99 0-12.7 5.718-12.7 12.707v63.534h12.7v-63.534h63.54V914.07Zm12.7 25.414h-50.82c-6.99 0-12.71 5.718-12.71 12.707v50.829c0 6.99 5.72 12.71 12.71 12.71h50.82c6.99 0 12.71-5.72 12.71-12.71v-50.829c0-6.989-5.72-12.707-12.71-12.707Zm0 63.536h-50.82v-50.829h50.82v50.829Z" fill="#3C4043"/><g clip-path="url(#b)"><path d="M518.189 186.472c-20.776-9.784-35.643-29.988-37.93-53.877h-9.53c3.24 39.137 35.96 69.888 75.923 69.888l4.193-.191-24.206-24.207-8.45 8.387Zm5.654-41.424c-1.207 0-2.35-.191-3.303-.509-1.017-.381-1.843-.826-2.542-1.525a6.289 6.289 0 0 1-1.652-2.35c-.381-.89-.572-1.906-.572-2.986h-8.259c0 2.287.445 4.32 1.334 6.035a14.05 14.05 0 0 0 3.558 4.384 16.044 16.044 0 0 0 5.21 2.605c1.906.635 3.939.953 6.099.953 2.351 0 4.575-.318 6.544-.953 2.033-.635 3.812-1.588 5.274-2.795a12.574 12.574 0 0 0 3.494-4.575c.826-1.842 1.271-3.875 1.271-6.163 0-1.207-.127-2.414-.445-3.558-.318-1.143-.762-2.223-1.461-3.24-.636-1.016-1.525-1.906-2.542-2.732-1.08-.826-2.35-1.461-3.875-1.969a13.364 13.364 0 0 0 3.304-2.097 13.12 13.12 0 0 0 2.35-2.669 11.192 11.192 0 0 0 1.398-2.922c.318-1.017.445-2.033.445-3.05 0-2.287-.381-4.32-1.144-6.099-.762-1.779-1.842-3.24-3.24-4.384-1.271-1.207-2.986-2.097-4.892-2.732-1.97-.572-4.13-.889-6.481-.889-2.287 0-4.384.317-6.353 1.016-1.906.699-3.622 1.652-5.019 2.859a14.272 14.272 0 0 0-3.241 4.257c-.762 1.652-1.143 3.431-1.143 5.4h8.259c0-1.08.191-2.033.572-2.859.381-.826.889-1.588 1.588-2.16.699-.572 1.462-1.08 2.415-1.398a9.315 9.315 0 0 1 3.049-.508c2.542 0 4.448.635 5.655 1.97 1.207 1.27 1.842 3.113 1.842 5.464 0 1.143-.19 2.16-.508 3.113-.318.953-.889 1.715-1.588 2.351-.699.635-1.589 1.143-2.605 1.524-1.017.382-2.287.572-3.685.572h-4.892v6.544h4.892c1.398 0 2.668.127 3.812.445 1.144.318 2.097.826 2.859 1.461.762.699 1.398 1.525 1.842 2.542.445 1.016.636 2.223.636 3.621 0 2.605-.763 4.575-2.224 5.909-1.461 1.461-3.494 2.097-6.036 2.097Zm54.322-37.613a21.168 21.168 0 0 0-7.243-4.892c-2.795-1.144-5.908-1.715-9.339-1.715h-14.994v50.827h14.613c3.494 0 6.734-.572 9.593-1.715 2.859-1.144 5.337-2.732 7.37-4.829 2.033-2.097 3.622-4.638 4.702-7.561 1.08-2.986 1.652-6.289 1.652-9.974v-2.542c0-3.685-.572-6.989-1.652-9.975-1.08-2.986-2.669-5.527-4.702-7.624Zm-2.478 20.077c0 2.668-.317 5.019-.889 7.179-.635 2.097-1.525 3.94-2.732 5.401a11.874 11.874 0 0 1-4.511 3.367c-1.842.763-3.939 1.144-6.29 1.144h-5.782v-36.66h6.163c4.575 0 8.069 1.462 10.42 4.384 2.414 2.923 3.621 7.116 3.621 12.644v2.541ZM546.652 50l-4.193.19 24.207 24.207 8.45-8.45c20.775 9.848 35.642 29.988 37.866 53.877h9.53C619.336 80.751 586.615 50 546.652 50Z" fill="#3C4043"/></g><path d="M1646.06 440.84h-12.71v69.888c0 7.052 5.66 12.707 12.71 12.707h108.01v-12.707h-108.01V440.84Z" fill="#3C4043"/><path d="M1741.36 415.426V402.72c0-6.989-5.72-12.707-12.7-12.707h-25.42c-6.99 0-12.71 5.718-12.71 12.707v12.706h-31.76v69.888c0 6.989 5.72 12.707 12.7 12.707h88.95c6.99 0 12.71-5.718 12.71-12.707v-69.888h-31.77Zm-38.12-12.706h25.42v12.706h-25.42V402.72Zm57.18 82.594h-88.95v-57.181h88.95v57.181ZM1315.39 933.13v38.121h25.41l31.77 31.769V901.363l-31.77 31.767h-25.41Zm44.47-1.08v40.281l-13.78-13.787h-17.98v-12.707h17.98l13.78-13.787Zm41.3 20.14c0-11.245-6.48-20.902-15.88-25.604v51.145c9.4-4.638 15.88-14.295 15.88-25.541Zm-15.88-55.719v13.088c18.36 5.464 31.76 22.491 31.76 42.631 0 20.141-13.4 37.168-31.76 42.632v13.088c25.47-5.78 44.47-28.527 44.47-55.72 0-27.192-19-49.938-44.47-55.719Z" fill="#3C4043"/><defs><clipPath id="a"><path fill="#fff" transform="translate(635.568 50)" d="M0 0h152.483v152.483H0z"/></clipPath><clipPath id="b"><path fill="#fff" transform="translate(470.379 50)" d="M0 0h152.483v152.483H0z"/></clipPath></defs></svg>