<svg width="1920" height="1080" fill="none" xmlns="http://www.w3.org/2000/svg"><path d="M638.238 452.412h7.106l-9.35 27.302c-8.976 25.681-26.803 38.522-53.482 38.522-12.716 0-22.565-2.867-29.546-8.602-6.732-5.984-10.098-14.835-10.098-26.554 0-8.228 1.87-17.952 5.61-29.172l32.164-96.866c2.244-6.483 3.366-11.22 3.366-14.212 0-3.989-1.621-5.984-4.862-5.984-6.483 0-14.337 6.732-23.562 20.196-8.976 13.215-18.575 33.037-28.798 59.466-10.223 26.429-20.196 58.219-29.92 95.37v-.748l-.374 1.87h-66.198l66.572-248.71c-12.467 2.743-27.053 4.114-43.758 4.114-6.981 0-14.586-.374-22.814-1.122l-53.482 202.334c-1.745 7.48-2.618 12.841-2.618 16.082 0 6.732 2.244 11.594 6.732 14.586 4.737 2.743 12.716 4.488 23.936 5.236l-1.496 7.48c-17.453-.748-43.509-1.122-78.166-1.122-33.161 0-57.596.374-73.304 1.122l1.496-7.48c10.721-.499 18.949-1.745 24.684-3.74 5.984-2.244 10.597-5.735 13.838-10.472 3.491-4.987 6.483-12.217 8.976-21.692l56.1-210.188c-12.716-1.496-24.435-2.244-35.156-2.244-19.697 0-33.909 2.119-42.636 6.358 9.724 1.247 17.703 5.111 23.936 11.594 6.233 6.483 9.35 14.711 9.35 24.684 0 10.721-3.491 19.697-10.472 26.928-6.981 6.981-15.583 10.472-25.806 10.472-10.472 0-18.7-3.491-24.684-10.472-5.984-7.231-8.976-15.833-8.976-25.806 0-7.979 2.119-15.708 6.358-23.188 4.239-7.48 11.22-13.589 20.944-18.326 12.217-5.984 28.923-8.976 50.116-8.976 11.22 0 23.687.623 37.4 1.87 13.713.997 26.803 2.244 39.27 3.74 26.928 3.241 46.999 4.862 60.214 4.862 17.453 0 31.416-1.621 41.888-4.862l7.106-26.18c23.936-1.995 47.249-6.732 69.938-14.212l-46.376 173.91c8.477-19.697 16.955-35.031 25.432-46.002 8.477-11.22 17.453-18.949 26.928-23.188 9.475-4.488 20.321-6.732 32.538-6.732 10.721 0 18.949 2.867 24.684 8.602 5.735 5.735 8.602 13.589 8.602 23.562 0 7.231-1.496 15.334-4.488 24.31L606.074 481.21c-1.247 2.992-1.87 5.859-1.87 8.602 0 4.737 2.119 7.106 6.358 7.106 7.231 0 13.838-7.854 19.822-23.562l7.854-20.944Zm183.733-138.754c11.22 0 20.072 3.491 26.554 10.472 6.483 6.732 9.724 15.334 9.724 25.806 0 12.716-3.989 23.687-11.968 32.912-7.978 9.225-18.076 13.838-30.294 13.838-9.225 0-16.206-2.369-20.944-7.106-4.737-4.737-7.106-11.719-7.106-20.944 0-10.971 3.99-20.944 11.968-29.92 7.979-8.976 17.578-14.461 28.798-16.456-2.992-.748-4.737-1.122-5.236-1.122-7.978 0-15.209 1.621-21.692 4.862-6.482 3.241-13.713 11.22-21.692 23.936-7.729 12.716-15.957 32.164-24.684 58.344L728.097 513h-66.198l45.628-162.316c.998-3.74 1.496-6.981 1.496-9.724 0-3.989-1.62-5.984-4.862-5.984-3.989 0-7.604 1.745-10.846 5.236-3.241 3.491-6.482 9.599-9.724 18.326l-8.602 22.814h-7.106l10.472-29.172c9.226-25.681 27.801-38.522 55.726-38.522 11.968 0 20.695 3.241 26.18 9.724 5.486 6.483 8.228 14.835 8.228 25.058 0 3.491-.124 6.109-.374 7.854 7.231-15.708 14.96-26.679 23.188-32.912 8.478-6.483 18.7-9.724 30.668-9.724Zm24.033 140.998c0-21.193 4.862-42.636 14.586-64.328 9.724-21.941 24.31-40.143 43.758-54.604 19.697-14.711 43.633-22.066 71.808-22.066 21.692 0 38.144 5.485 49.364 16.456 11.47 10.971 17.21 26.679 17.21 47.124 0 21.193-4.86 42.761-14.59 64.702-9.72 21.692-24.43 39.893-44.13 54.604-19.448 14.461-43.26 21.692-71.434 21.692-21.692 0-38.273-5.485-49.742-16.456-11.22-10.971-16.83-26.679-16.83-47.124Zm128.282-133.518c-6.982 0-15.833 9.35-26.554 28.05-10.722 18.7-20.072 41.389-28.05 68.068-7.73 26.429-11.594 50.615-11.594 72.556 0 7.729.498 13.215 1.496 16.456 1.246 2.992 3.116 4.488 5.61 4.488 6.732 0 15.334-8.976 25.806-26.928 10.721-18.201 19.946-40.392 27.676-66.572 7.978-26.18 11.968-50.989 11.968-74.426 0-8.727-.624-14.461-1.87-17.204-.998-2.992-2.494-4.488-4.488-4.488Zm287.474 129.404h7.1l-10.47 29.172c-4.74 13.215-11.84 22.939-21.32 29.172-9.47 6.233-20.19 9.35-32.16 9.35-16.46 0-27.55-4.862-33.29-14.586-2.99-5.236-4.48-11.22-4.48-17.952 0-5.984.99-12.591 2.99-19.822l8.6-32.538c-9.48 22.939-18.7 40.517-27.68 52.734-8.72 12.217-17.7 20.695-26.92 25.432-8.98 4.488-19.33 6.732-31.05 6.732-11.22 0-19.94-2.618-26.18-7.854-5.98-5.236-8.97-12.965-8.97-23.188 0-7.48 1.62-15.957 4.86-25.432l36.28-111.078c1.24-4.239 1.87-7.231 1.87-8.976 0-4.488-2.12-6.732-6.36-6.732-7.23 0-13.84 7.854-19.82 23.562l-7.86 20.944h-7.1l9.35-27.302c8.97-25.681 26.8-38.522 53.48-38.522 12.72 0 22.44 2.992 29.17 8.976 6.98 5.735 10.47 14.461 10.47 26.18 0 8.228-1.87 17.952-5.61 29.172l-32.16 96.866c-2 5.735-2.99 10.597-2.99 14.586 0 3.74 1.24 5.61 3.74 5.61 5.98 0 13.59-7.48 22.81-22.44 9.48-15.209 19.2-34.907 29.17-59.092 9.98-24.435 18.83-49.617 26.56-75.548l4.86-19.074c27.18-.499 49.74-2.244 67.69-5.236l-47.12 167.552c-1.5 4.737-2.24 8.353-2.24 10.846 0 3.241 1.87 4.862 5.61 4.862 3.98 0 7.6-1.745 10.84-5.236 3.24-3.491 6.48-9.599 9.73-18.326l8.6-22.814Zm199.78-154.088c8.23 0 14.59 2.369 19.08 7.106 4.49 4.488 6.73 10.347 6.73 17.578 0 6.981-1.87 12.591-5.61 16.83-3.49 3.989-7.73 5.984-12.72 5.984-4.98 0-9.35-1.995-13.09-5.984-3.74-4.239-5.61-9.973-5.61-17.204 0-5.236 1.13-10.971 3.37-17.204-9.97 3.989-17.7 9.849-23.19 17.578 15.21 7.48 22.82 19.323 22.82 35.53 0 10.472-3.12 20.819-9.35 31.042-5.99 10.223-14.72 19.074-26.18 26.554-11.47 7.48-24.69 12.591-39.65 15.334-11.72 4.488-20.44 8.477-26.18 11.968-5.48 3.491-8.23 6.732-8.23 9.724 0 1.995 1 3.615 3 4.862 1.99 1.247 5.36 2.743 10.09 4.488l34.04 12.716c12.71 4.737 22.94 10.597 30.67 17.578 7.97 6.981 11.96 16.331 11.96 28.05 0 13.963-5.98 25.806-17.95 35.53-11.72 9.724-26.68 16.955-44.88 21.692-17.95 4.737-36.03 7.106-54.23 7.106-19.7 0-36.9-2.618-51.61-7.854-14.71-5.236-22.07-12.217-22.07-20.944 0-8.477 7.36-15.085 22.07-19.822 14.71-4.488 30.54-6.732 47.5-6.732 3.99 0 6.98.125 8.97.374l.38 5.61c-14.71 8.228-22.07 16.955-22.07 26.18 0 5.236 2.12 9.35 6.36 12.342 4.24 2.992 10.35 4.488 18.33 4.488 8.22 0 16.83-1.496 25.8-4.488 9.23-2.992 16.83-7.106 22.82-12.342 5.98-5.236 8.97-10.971 8.97-17.204 0-4.737-1.74-8.103-5.23-10.098-3.25-1.995-8.73-4.239-16.46-6.732l-50.86-16.082c-6.99-2.244-12.72-5.485-17.21-9.724-4.49-4.488-6.73-9.849-6.73-16.082 0-9.973 5.98-18.7 17.95-26.18 11.97-7.729 30.42-16.456 55.35-26.18h-4.48c-18.46 0-33.29-3.491-44.51-10.472-11.22-7.231-16.83-17.952-16.83-32.164 0-12.217 3.99-24.061 11.97-35.53 8.23-11.719 19.82-21.193 34.78-28.424 15.21-7.48 32.66-11.22 52.36-11.22 12.22 0 22.31 1.371 30.29 4.114 4.99-6.732 10.85-11.968 17.58-15.708 6.98-3.989 14.21-5.984 21.69-5.984Zm-106.21 107.338c0 8.228.5 13.838 1.49 16.83 1 2.992 2.87 4.488 5.61 4.488 4.99 0 9.6-3.865 13.84-11.594 4.24-7.979 7.61-18.326 10.1-31.042 2.49-12.965 3.74-26.554 3.74-40.766 0-6.483-.5-11.594-1.5-15.334-.99-3.74-3.11-5.61-6.35-5.61-4.24 0-8.48 3.865-12.72 11.594-4.24 7.729-7.73 17.952-10.47 30.668-2.5 12.716-3.74 26.305-3.74 40.766Zm308.66 48.62h7.11l-9.35 27.302c-8.98 25.681-26.81 38.522-53.48 38.522-13.47 0-23.44-3.117-29.92-9.35-6.24-6.483-9.35-15.209-9.35-26.18 0-8.727 1.74-18.326 5.23-28.798l32.17-96.866c1.99-5.735 2.99-10.597 2.99-14.586 0-3.74-1.25-5.61-3.74-5.61-8.23 0-19.45 13.838-33.66 41.514-13.97 27.676-26.93 60.089-38.9 97.24l-10.1 34.782-.37 1.496v-.374l-.37 1.496h-66.2l74.05-249.458c1.25-4.488 1.87-7.979 1.87-10.472 0-4.987-2-8.602-5.98-10.846-3.74-2.244-10.23-3.366-19.45-3.366l2.62-7.854c19.69-.249 37.52-1.621 53.48-4.114a297.073 297.073 0 0 0 46.75-11.22l-48.25 164.934c11.97-25.681 23.69-43.259 35.16-52.734 11.72-9.475 25.3-14.212 40.76-14.212 24.44 0 36.66 10.347 36.66 31.042 0 6.732-1.63 15.209-4.87 25.432l-37.02 111.078c-1.25 4.239-1.87 7.231-1.87 8.976 0 4.488 2.12 6.732 6.36 6.732 7.23 0 13.83-7.854 19.82-23.562l7.85-20.944ZM307.954 649.237h-63.909V634.9h213.111v14.337h-64.152V805h-85.05V649.237ZM469.05 634.9h82.62v76.059h53.703V634.9h82.62V805h-82.62v-77.76H551.67V805h-82.62V634.9Zm232.558 0h79.218V805h-79.218V634.9Zm217.683 154.305c12.15 0 21.789-4.941 28.917-14.823 7.128-9.882 11.745-21.87 13.851-35.964h15.066c-2.268 17.496-8.019 32.4-17.253 44.712-5.184 6.804-11.097 11.907-17.739 15.309-6.48 3.24-13.689 5.346-21.627 6.318-7.776.972-17.982 1.458-30.618 1.458-17.82 0-32.319-1.701-43.497-5.103-11.016-3.564-20.493-9.315-28.431-17.253-15.552-15.552-23.328-36.936-23.328-64.152 0-28.674 6.966-49.977 20.898-63.909 9.072-9.072 19.197-15.066 30.375-17.982 11.178-2.916 25.839-4.374 43.983-4.374 16.686 0 30.213 1.215 40.581 3.645 10.53 2.268 19.116 7.209 25.758 14.823 5.508 6.318 9.801 13.932 12.879 22.842 3.078 8.91 4.86 17.739 5.346 26.487h-13.851c-.648-7.29-2.43-14.742-5.346-22.356-2.754-7.776-7.128-14.418-13.122-19.926-5.994-5.67-13.608-8.505-22.842-8.505-8.748 0-15.795 3.807-21.141 11.421-4.698 5.994-8.262 14.823-10.692 26.487-1.782 8.91-2.673 19.359-2.673 31.347 0 18.954 2.268 34.263 6.804 45.927 5.832 15.714 15.066 23.571 27.702 23.571ZM988.984 634.9h85.296V805h-85.296V634.9Zm85.296 84.807 39.85-84.807h84.81l-42.53 84.807L1210.36 805h-85.78l-50.3-85.293Zm198.01 53.731-1.9.238c-1.51-.238-2.81-1.068-3.92-2.492-1.03-1.503-1.62-3.599-1.78-6.288v-8.306c0-2.452.04-5.3.12-8.543.08-3.243.12-6.684.12-10.323h-15.31c-3.87 0-6.88.04-9.01.119-2.06.079-3.56.198-4.51.356h-.95c-1.19-.079-2.14-.435-2.85-1.068s-1.27-1.345-1.66-2.136a9.337 9.337 0 0 1-.83-2.373 25.11 25.11 0 0 1-.12-2.254c0-1.108.16-2.215.47-3.323.32-1.186.91-1.858 1.78-2.017 1.03-.237 2.61-.435 4.75-.593 2.21-.237 4.79-.435 7.71-.593 2.93-.158 6.17-.277 9.73-.356 3.56-.158 7.28-.277 11.15-.356v-16.018c0-3.955-.07-6.961-.23-9.018-.08-2.136-.2-3.678-.36-4.627v-.949c.16-1.187.52-2.097 1.07-2.729a6.98 6.98 0 0 1 2.14-1.662c.79-.395 1.58-.632 2.37-.711.87-.159 1.62-.238 2.25-.238 1.11 0 2.3.238 3.56.712 1.35.396 2.1 1.028 2.26 1.899.23 1.028.43 2.649.59 4.864.16 2.136.28 4.707.36 7.713.15 2.926.23 6.17.23 9.729.08 3.56.16 7.238.24 11.035h12.7c3.48 0 6.76.079 9.84.237 3.17.158 5.86.435 8.07.831 2.3.395 4 .989 5.1 1.78 1.11.791 1.39 1.779.84 2.966l-1.07 1.898c0 .158.08.673.23 1.543.16.791.24 1.265.24 1.424-.24 1.503-.95 2.57-2.13 3.203-1.19.633-3.13 1.029-5.82 1.187h-8.54c-2.53 0-5.5-.04-8.9-.119-3.32-.079-6.84-.119-10.56-.119v11.628c0 3.402.04 6.566.12 9.493.16 2.926.16 5.458 0 7.593-.08 2.136-.4 3.797-.95 4.984-.47 1.186-1.38 1.779-2.73 1.779h-3.91Zm209.89-127.313c-.39.791-.79 1.423-1.19 1.898-.31.475-.59.831-.83 1.068-.31.316-.59.514-.83.593-.63.158-1.89.396-3.79.712-1.9.237-4.47.435-7.72.593-2.37.158-5.61.514-9.73 1.068-4.11.475-8.81 1.108-14.11 1.899-5.23.711-10.92 1.463-17.09 2.254-6.17.791-12.58 1.463-19.22 2.017-.64 11.074-1.11 22.386-1.43 33.935-.23 11.548-.43 23.176-.59 34.883-.16 11.628-.32 23.256-.47 34.884-.08 11.549-.24 22.9-.48 34.053 0 .396-.16.791-.47 1.187a5.71 5.71 0 0 0-.72.831c-.39 1.582-1.1 2.966-2.13 4.152-1.03 1.108-2.1 1.661-3.2 1.661-3.33 0-5.9-.514-7.72-1.542-1.74-1.028-3.24-2.136-4.51-3.322-.55-.712-1.1-1.741-1.66-3.085a54.556 54.556 0 0 1-1.3-4.628c-.4-1.74-.75-3.559-1.07-5.458a49.014 49.014 0 0 1-.59-5.576c-.16-1.741-.28-3.441-.36-5.102-.08-1.662-.12-3.362-.12-5.102 0-3.797.12-7.515.36-11.154.24-3.638.43-7.04.59-10.204.08-1.977.2-4.786.36-8.424.23-3.639.51-7.792.83-12.459.31-4.667.67-9.65 1.07-14.95.39-5.379.87-10.758 1.42-16.137.63-5.378 1.3-10.599 2.02-15.662.71-5.141 1.5-9.808 2.37-14.001.4-1.265.75-2.491 1.07-3.678.31-1.266.59-2.571.83-3.915-7.28.474-14.4.711-21.36.711-8.94 0-17.44-.514-25.51-1.542-8.07-1.107-14.95-3.006-20.64-5.695-.72-.396-1.11-1.108-1.19-2.136-.16-1.028-.48-2.096-.95-3.204-.63-.87-.87-1.819-.71-2.847.16-1.108.23-2.017.23-2.729-.07-.712.16-1.187.72-1.424.47-.237 1.5-.317 3.08-.237 1.5 0 3.6.079 6.29.237 2.77.158 6.37.237 10.8.237 3.32 0 7.12-.079 11.39-.237 4.27-.158 9.13-.435 14.59-.831 2.69-.237 6.57-.593 11.63-1.068 5.14-.553 10.92-1.067 17.32-1.542 6.49-.554 13.37-1.028 20.65-1.424 7.28-.395 14.47-.593 21.59-.593 2.69 0 5.7.158 9.02.474 3.32.238 6.61.594 9.85 1.068 3.32.475 6.37 1.029 9.14 1.661 2.84.633 5.18 1.266 7 1.899 1.18.475 1.89.91 2.13 1.305.24.316.32.593.24.831 0 .237-.04.435-.12.593-.08.158.12.316.59.475.48.158.99.276 1.55.355.55.08 1.06.238 1.54.475.47.158.87.396 1.19.712.31.316.43.712.35 1.187Zm52.09 79.141c.16 1.107.28 2.373.36 3.796.07 1.345.11 2.769.11 4.272 0 3.797-.15 8.227-.47 13.289-.32 5.063-.71 11.074-1.19 18.035-.15 2.69-.27 6.131-.35 10.323-.08 4.113-.12 8.385-.12 12.814 0 3.797.04 7.476.12 11.035.16 3.56.35 6.684.59 9.374.16 1.186-.12 1.819-.83 1.898-.71.079-1.5 0-2.37-.237-.4-.158-.75-.158-1.07 0-.32.158-.63.356-.95.593-.24.237-.51.396-.83.475-.24.158-.59.039-1.07-.356-.39-.317-1.07-.791-2.02-1.424a141.81 141.81 0 0 1-3.08-2.136 27.817 27.817 0 0 1-2.97-2.373c-.95-.87-1.66-1.661-2.13-2.373-.48-1.107-.79-3.836-.95-8.187-.16-4.351-.24-9.611-.24-15.781v-16.018c.08-3.48.24-6.921.48-10.323.23-3.401.51-6.684.83-9.848.31-3.164.59-6.13.83-8.899.23-2.847.35-5.418.35-7.712 0-3.639-.51-6.368-1.54-8.187-.24-.316-.95-.119-2.14.593-1.18.712-2.72 2.215-4.62 4.509-1.82 2.294-3.92 5.537-6.29 9.729-2.3 4.193-4.75 9.611-7.36 16.256-2.53 6.644-5.14 14.673-7.83 24.086-2.61 9.413-5.1 20.488-7.47 33.223-.24 1.107-.56 1.859-.95 2.254-.32.475-.95.712-1.9.712-.63 0-1.19-.514-1.66-1.542-.4-.949-.91-1.74-1.55-2.373-1.5 0-2.88-.159-4.15-.475-1.18-.395-1.9-1.384-2.13-2.966 0-.554-.16-1.068-.48-1.543-.24-.474-.55-.988-.95-1.542-.31-.633-.63-1.266-.95-1.899-.23-.712-.35-1.542-.35-2.491.23-5.537.43-11.549.59-18.035.16-6.566.32-13.25.47-20.053.24-6.882.44-13.763.6-20.645.16-6.882.35-13.447.59-19.697.24-6.328.44-12.181.59-17.56.24-5.458.52-10.165.84-14.12.94-11.786 1.89-21.041 2.84-27.764.95-6.803 1.55-10.758 1.78-11.866.24-.791.48-1.384.71-1.779.24-.396.44-.673.6-.831.23-.158.39-.277.47-.356.16-.079.28-.277.36-.593.16-.317.43-.475.83-.475.47-.079.99-.079 1.54 0h1.54a2.13 2.13 0 0 0 1.19-.593c.63-.475 1.15-.87 1.54-1.187.48-.316 1.27-.474 2.38-.474 1.34-.158 2.37-.119 3.08.119.71.158 1.15.909 1.31 2.254.23 2.452.31 5.656.23 9.611-.08 3.955-.27 8.305-.59 13.051-.32 4.747-.67 9.77-1.07 15.069-.39 5.221-.83 10.363-1.3 15.425-.4 5.063-.79 9.888-1.19 14.476a543.98 543.98 0 0 0-.71 11.628c-.16 1.819-.28 4.034-.36 6.644v17.561c0 3.164-.04 6.288-.12 9.373 2.46-7.593 5.11-14.198 7.95-19.815 2.85-5.695 5.7-10.441 8.55-14.238 2.84-3.797 5.57-6.684 8.18-8.662 2.69-1.977 5.07-3.124 7.12-3.44.48-.08 1.31.039 2.49.355 1.27.317 2.58.673 3.92 1.068 1.34.396 2.57.831 3.68 1.306 1.11.395 1.74.672 1.9.83.31.396.79.949 1.42 1.661.63.633 1.27 1.503 1.9 2.611.71 1.107 1.34 2.531 1.9 4.271.63 1.74 1.14 3.836 1.54 6.289Zm51.38-75.107c.08 1.582 0 3.362-.24 5.339a33.535 33.535 0 0 1-.95 5.577c-.4 1.819-.99 3.441-1.78 4.864-.71 1.424-1.58 2.413-2.61 2.967-2.61 1.344-4.9 2.017-6.88 2.017-1.58 0-2.97-.356-4.16-1.068a50.37 50.37 0 0 1-3.32-2.61c-1.58-1.266-2.92-2.927-4.03-4.984-1.03-2.056-1.54-4.034-1.54-5.932 0-1.503.23-3.323.71-5.458a54.463 54.463 0 0 1 2.01-6.408c.8-2.056 1.63-3.915 2.5-5.576.95-1.741 1.86-2.927 2.73-3.56 1.34-1.107 2.57-1.701 3.67-1.78 1.19-.158 2.14-.118 2.85.119 1.74.396 3.28.91 4.63 1.542 1.34.554 2.45 1.464 3.32 2.73.95 1.186 1.66 2.768 2.14 4.746.47 1.977.79 4.469.95 7.475Zm-9.73 53.037c.39.396.67 1.701.83 3.916.23 2.215.35 5.102.35 8.661 0 2.373-.04 4.944-.12 7.713-.07 2.768-.19 5.616-.35 8.543-.08 2.927-.2 5.893-.36 8.899-.16 2.926-.27 5.735-.35 8.424-.24 4.43-.4 8.543-.48 12.34v10.797c0 4.588.04 8.781.12 12.577.08 3.797.12 6.961.12 9.493 0 2.768-.12 4.904-.36 6.407-.15 1.424-.55 2.215-1.18 2.373-.71.158-1.31.514-1.78 1.068-.48.474-.91.949-1.31 1.424-.39.474-.87.87-1.42 1.186-.48.396-1.07.514-1.78.356-.4-.079-1.07-.435-2.02-1.068a47.188 47.188 0 0 1-3.08-2.254 28.887 28.887 0 0 1-2.97-3.204c-.95-1.186-1.58-2.412-1.9-3.678-.16-.633-.31-1.898-.47-3.797-.08-1.898-.16-4.192-.24-6.882-.08-2.689-.16-5.656-.24-8.899-.08-3.322-.16-6.644-.23-9.966v-18.748c0-4.034.11-8.147.35-12.339.32-4.193.63-8.108.95-11.747.4-3.639.75-6.803 1.07-9.492.39-2.769.67-4.707.83-5.814.32-1.899.63-3.362.95-4.39.39-1.108.79-1.899 1.18-2.373.48-.475.91-.752 1.31-.831.47-.158.95-.277 1.42-.356.95-.158 2.02-.198 3.21-.118 1.26.079 2.45.197 3.56.355 1.1.159 2.05.396 2.84.712.87.238 1.39.475 1.55.712Zm93.26 96.702c0 .949-.36 2.017-1.07 3.204-.63 1.107-1.58 1.661-2.85 1.661-.71 0-1.26-.198-1.66-.594-.39-.395-.79-.593-1.19-.593-.55 0-1.1.198-1.66.593-.47.396-1.3.594-2.49.594-1.58 0-2.96-.554-4.15-1.661-1.11-1.187-2.02-2.65-2.73-4.391a32.726 32.726 0 0 1-1.66-5.814c-.32-2.135-.48-4.113-.48-5.932 0-3.56.12-7.594.36-12.103.32-4.588.63-9.255.95-14.001.39-4.825.71-9.611.95-14.357.31-4.746.47-9.136.47-13.17 0-5.379-.35-9.571-1.06-12.577-.72-3.006-1.98-4.509-3.8-4.509-1.74.237-3.52 1.74-5.34 4.509-1.82 2.768-3.68 6.328-5.58 10.679-1.9 4.271-3.76 9.136-5.57 14.594a586.974 586.974 0 0 0-5.34 16.611 1004.21 1004.21 0 0 0-4.75 16.493c-1.5 5.3-2.85 10.046-4.03 14.238-1.19 4.192-2.22 7.594-3.09 10.204-.87 2.531-1.46 3.797-1.78 3.797-.63 0-1.11-.158-1.42-.475a8.035 8.035 0 0 1-.95-.83 5.633 5.633 0 0 0-.95-.949c-.4-.238-.99-.356-1.78-.356-.71 0-1.19.079-1.42.237-.24.158-.52.356-.84.593-.31.238-.71.435-1.18.594-.48.158-1.31.237-2.49.237-1.43 0-2.85-.356-4.28-1.068-1.34-.712-2.01-1.819-2.01-3.322 0-.95.16-2.888.47-5.814.32-3.006.67-6.645 1.07-10.916.47-4.351.95-9.176 1.42-14.476.56-5.379 1.03-10.916 1.43-16.611.47-5.696.87-11.391 1.18-17.086.32-5.695.48-11.114.48-16.256 0-2.531-.04-4.864-.12-7a174.64 174.64 0 0 1-.12-6.289c0-.474.24-.711.71-.711.95 0 1.66.197 2.14.593.55.316.95.672 1.19 1.068.23.395.35.791.35 1.186.08.317.16.475.24.475.24 0 .51-.119.83-.356.32-.317.63-.633.95-.949.39-.317.75-.594 1.07-.831.31-.316.59-.475.83-.475h1.18c1.19 0 2.02-.158 2.5-.474.47-.396.79-.791.94-1.187.24-.474.4-.87.48-1.186.08-.396.32-.593.71-.593.24 0 .56.197.95.593.48.316.91.909 1.31 1.78.47.791.87 1.858 1.18 3.203.32 1.345.48 2.966.48 4.865 0 2.531-.12 5.735-.36 9.611-.16 3.876-.39 8.029-.71 12.458-.24 4.351-.48 8.781-.71 13.289-.24 4.43-.4 8.464-.48 12.103.87-3.402 1.9-7.159 3.09-11.272a215.07 215.07 0 0 1 4.27-12.696c1.66-4.271 3.44-8.424 5.34-12.458 1.9-4.114 3.95-7.752 6.17-10.916 2.21-3.164 4.55-5.696 7-7.594 2.45-1.978 5.02-2.966 7.71-2.966 4.27 0 7.75.791 10.44 2.373 2.77 1.582 4.95 3.757 6.53 6.525 1.58 2.769 2.65 6.012 3.2 9.73.63 3.718.95 7.712.95 11.984 0 3.638-.16 7.475-.47 11.509-.32 3.955-.68 7.95-1.07 11.984-.32 3.955-.63 7.871-.95 11.747-.24 3.876-.36 7.514-.36 10.916 0 4.192.24 7.989.72 11.39.47 3.322.71 5.854.71 7.594Z" fill="#3C4043"/><mask id="a" style="mask-type:alpha" maskUnits="userSpaceOnUse" x="203" y="188" width="1444" height="658"><circle cx="397" cy="267" r="79" fill="#F3F7FE"/><circle cx="282" cy="643" r="79" fill="#F3F7FE"/><circle cx="918" cy="498" r="79" fill="#F3F7FE"/><circle cx="918" cy="796" r="50" fill="#F3F7FE"/><circle cx="1597" cy="352" r="50" fill="#F3F7FE"/><circle cx="1478" cy="736" r="50" fill="#F3F7FE"/></mask><g mask="url(#a)"><path d="M638.238 452.412h7.106l-9.35 27.302c-8.976 25.681-26.803 38.522-53.482 38.522-12.716 0-22.565-2.867-29.546-8.602-6.732-5.984-10.098-14.835-10.098-26.554 0-8.228 1.87-17.952 5.61-29.172l32.164-96.866c2.244-6.483 3.366-11.22 3.366-14.212 0-3.989-1.621-5.984-4.862-5.984-6.483 0-14.337 6.732-23.562 20.196-8.976 13.215-18.575 33.037-28.798 59.466-10.223 26.429-20.196 58.219-29.92 95.37v-.748l-.374 1.87h-66.198l66.572-248.71c-12.467 2.743-27.053 4.114-43.758 4.114-6.981 0-14.586-.374-22.814-1.122l-53.482 202.334c-1.745 7.48-2.618 12.841-2.618 16.082 0 6.732 2.244 11.594 6.732 14.586 4.737 2.743 12.716 4.488 23.936 5.236l-1.496 7.48c-17.453-.748-43.509-1.122-78.166-1.122-33.161 0-57.596.374-73.304 1.122l1.496-7.48c10.721-.499 18.949-1.745 24.684-3.74 5.984-2.244 10.597-5.735 13.838-10.472 3.491-4.987 6.483-12.217 8.976-21.692l56.1-210.188c-12.716-1.496-24.435-2.244-35.156-2.244-19.697 0-33.909 2.119-42.636 6.358 9.724 1.247 17.703 5.111 23.936 11.594 6.233 6.483 9.35 14.711 9.35 24.684 0 10.721-3.491 19.697-10.472 26.928-6.981 6.981-15.583 10.472-25.806 10.472-10.472 0-18.7-3.491-24.684-10.472-5.984-7.231-8.976-15.833-8.976-25.806 0-7.979 2.119-15.708 6.358-23.188 4.239-7.48 11.22-13.589 20.944-18.326 12.217-5.984 28.923-8.976 50.116-8.976 11.22 0 23.687.623 37.4 1.87 13.713.997 26.803 2.244 39.27 3.74 26.928 3.241 46.999 4.862 60.214 4.862 17.453 0 31.416-1.621 41.888-4.862l7.106-26.18c23.936-1.995 47.249-6.732 69.938-14.212l-46.376 173.91c8.477-19.697 16.955-35.031 25.432-46.002 8.477-11.22 17.453-18.949 26.928-23.188 9.475-4.488 20.321-6.732 32.538-6.732 10.721 0 18.949 2.867 24.684 8.602 5.735 5.735 8.602 13.589 8.602 23.562 0 7.231-1.496 15.334-4.488 24.31L606.074 481.21c-1.247 2.992-1.87 5.859-1.87 8.602 0 4.737 2.119 7.106 6.358 7.106 7.231 0 13.838-7.854 19.822-23.562l7.854-20.944Zm183.733-138.754c11.22 0 20.072 3.491 26.554 10.472 6.483 6.732 9.724 15.334 9.724 25.806 0 12.716-3.989 23.687-11.968 32.912-7.978 9.225-18.076 13.838-30.294 13.838-9.225 0-16.206-2.369-20.944-7.106-4.737-4.737-7.106-11.719-7.106-20.944 0-10.971 3.99-20.944 11.968-29.92 7.979-8.976 17.578-14.461 28.798-16.456-2.992-.748-4.737-1.122-5.236-1.122-7.978 0-15.209 1.621-21.692 4.862-6.482 3.241-13.713 11.22-21.692 23.936-7.729 12.716-15.957 32.164-24.684 58.344L728.097 513h-66.198l45.628-162.316c.998-3.74 1.496-6.981 1.496-9.724 0-3.989-1.62-5.984-4.862-5.984-3.989 0-7.604 1.745-10.846 5.236-3.241 3.491-6.482 9.599-9.724 18.326l-8.602 22.814h-7.106l10.472-29.172c9.226-25.681 27.801-38.522 55.726-38.522 11.968 0 20.695 3.241 26.18 9.724 5.486 6.483 8.228 14.835 8.228 25.058 0 3.491-.124 6.109-.374 7.854 7.231-15.708 14.96-26.679 23.188-32.912 8.478-6.483 18.7-9.724 30.668-9.724Zm24.033 140.998c0-21.193 4.862-42.636 14.586-64.328 9.724-21.941 24.31-40.143 43.758-54.604 19.697-14.711 43.633-22.066 71.808-22.066 21.692 0 38.144 5.485 49.364 16.456 11.47 10.971 17.21 26.679 17.21 47.124 0 21.193-4.86 42.761-14.59 64.702-9.72 21.692-24.43 39.893-44.13 54.604-19.448 14.461-43.26 21.692-71.434 21.692-21.692 0-38.273-5.485-49.742-16.456-11.22-10.971-16.83-26.679-16.83-47.124Zm128.282-133.518c-6.982 0-15.833 9.35-26.554 28.05-10.722 18.7-20.072 41.389-28.05 68.068-7.73 26.429-11.594 50.615-11.594 72.556 0 7.729.498 13.215 1.496 16.456 1.246 2.992 3.116 4.488 5.61 4.488 6.732 0 15.334-8.976 25.806-26.928 10.721-18.201 19.946-40.392 27.676-66.572 7.978-26.18 11.968-50.989 11.968-74.426 0-8.727-.624-14.461-1.87-17.204-.998-2.992-2.494-4.488-4.488-4.488Zm287.474 129.404h7.1l-10.47 29.172c-4.74 13.215-11.84 22.939-21.32 29.172-9.47 6.233-20.19 9.35-32.16 9.35-16.46 0-27.55-4.862-33.29-14.586-2.99-5.236-4.48-11.22-4.48-17.952 0-5.984.99-12.591 2.99-19.822l8.6-32.538c-9.48 22.939-18.7 40.517-27.68 52.734-8.72 12.217-17.7 20.695-26.92 25.432-8.98 4.488-19.33 6.732-31.05 6.732-11.22 0-19.94-2.618-26.18-7.854-5.98-5.236-8.97-12.965-8.97-23.188 0-7.48 1.62-15.957 4.86-25.432l36.28-111.078c1.24-4.239 1.87-7.231 1.87-8.976 0-4.488-2.12-6.732-6.36-6.732-7.23 0-13.84 7.854-19.82 23.562l-7.86 20.944h-7.1l9.35-27.302c8.97-25.681 26.8-38.522 53.48-38.522 12.72 0 22.44 2.992 29.17 8.976 6.98 5.735 10.47 14.461 10.47 26.18 0 8.228-1.87 17.952-5.61 29.172l-32.16 96.866c-2 5.735-2.99 10.597-2.99 14.586 0 3.74 1.24 5.61 3.74 5.61 5.98 0 13.59-7.48 22.81-22.44 9.48-15.209 19.2-34.907 29.17-59.092 9.98-24.435 18.83-49.617 26.56-75.548l4.86-19.074c27.18-.499 49.74-2.244 67.69-5.236l-47.12 167.552c-1.5 4.737-2.24 8.353-2.24 10.846 0 3.241 1.87 4.862 5.61 4.862 3.98 0 7.6-1.745 10.84-5.236 3.24-3.491 6.48-9.599 9.73-18.326l8.6-22.814Zm199.78-154.088c8.23 0 14.59 2.369 19.08 7.106 4.49 4.488 6.73 10.347 6.73 17.578 0 6.981-1.87 12.591-5.61 16.83-3.49 3.989-7.73 5.984-12.72 5.984-4.98 0-9.35-1.995-13.09-5.984-3.74-4.239-5.61-9.973-5.61-17.204 0-5.236 1.13-10.971 3.37-17.204-9.97 3.989-17.7 9.849-23.19 17.578 15.21 7.48 22.82 19.323 22.82 35.53 0 10.472-3.12 20.819-9.35 31.042-5.99 10.223-14.72 19.074-26.18 26.554-11.47 7.48-24.69 12.591-39.65 15.334-11.72 4.488-20.44 8.477-26.18 11.968-5.48 3.491-8.23 6.732-8.23 9.724 0 1.995 1 3.615 3 4.862 1.99 1.247 5.36 2.743 10.09 4.488l34.04 12.716c12.71 4.737 22.94 10.597 30.67 17.578 7.97 6.981 11.96 16.331 11.96 28.05 0 13.963-5.98 25.806-17.95 35.53-11.72 9.724-26.68 16.955-44.88 21.692-17.95 4.737-36.03 7.106-54.23 7.106-19.7 0-36.9-2.618-51.61-7.854-14.71-5.236-22.07-12.217-22.07-20.944 0-8.477 7.36-15.085 22.07-19.822 14.71-4.488 30.54-6.732 47.5-6.732 3.99 0 6.98.125 8.97.374l.38 5.61c-14.71 8.228-22.07 16.955-22.07 26.18 0 5.236 2.12 9.35 6.36 12.342 4.24 2.992 10.35 4.488 18.33 4.488 8.22 0 16.83-1.496 25.8-4.488 9.23-2.992 16.83-7.106 22.82-12.342 5.98-5.236 8.97-10.971 8.97-17.204 0-4.737-1.74-8.103-5.23-10.098-3.25-1.995-8.73-4.239-16.46-6.732l-50.86-16.082c-6.99-2.244-12.72-5.485-17.21-9.724-4.49-4.488-6.73-9.849-6.73-16.082 0-9.973 5.98-18.7 17.95-26.18 11.97-7.729 30.42-16.456 55.35-26.18h-4.48c-18.46 0-33.29-3.491-44.51-10.472-11.22-7.231-16.83-17.952-16.83-32.164 0-12.217 3.99-24.061 11.97-35.53 8.23-11.719 19.82-21.193 34.78-28.424 15.21-7.48 32.66-11.22 52.36-11.22 12.22 0 22.31 1.371 30.29 4.114 4.99-6.732 10.85-11.968 17.58-15.708 6.98-3.989 14.21-5.984 21.69-5.984Zm-106.21 107.338c0 8.228.5 13.838 1.49 16.83 1 2.992 2.87 4.488 5.61 4.488 4.99 0 9.6-3.865 13.84-11.594 4.24-7.979 7.61-18.326 10.1-31.042 2.49-12.965 3.74-26.554 3.74-40.766 0-6.483-.5-11.594-1.5-15.334-.99-3.74-3.11-5.61-6.35-5.61-4.24 0-8.48 3.865-12.72 11.594-4.24 7.729-7.73 17.952-10.47 30.668-2.5 12.716-3.74 26.305-3.74 40.766Zm308.66 48.62h7.11l-9.35 27.302c-8.98 25.681-26.81 38.522-53.48 38.522-13.47 0-23.44-3.117-29.92-9.35-6.24-6.483-9.35-15.209-9.35-26.18 0-8.727 1.74-18.326 5.23-28.798l32.17-96.866c1.99-5.735 2.99-10.597 2.99-14.586 0-3.74-1.25-5.61-3.74-5.61-8.23 0-19.45 13.838-33.66 41.514-13.97 27.676-26.93 60.089-38.9 97.24l-10.1 34.782-.37 1.496v-.374l-.37 1.496h-66.2l74.05-249.458c1.25-4.488 1.87-7.979 1.87-10.472 0-4.987-2-8.602-5.98-10.846-3.74-2.244-10.23-3.366-19.45-3.366l2.62-7.854c19.69-.249 37.52-1.621 53.48-4.114a297.073 297.073 0 0 0 46.75-11.22l-48.25 164.934c11.97-25.681 23.69-43.259 35.16-52.734 11.72-9.475 25.3-14.212 40.76-14.212 24.44 0 36.66 10.347 36.66 31.042 0 6.732-1.63 15.209-4.87 25.432l-37.02 111.078c-1.25 4.239-1.87 7.231-1.87 8.976 0 4.488 2.12 6.732 6.36 6.732 7.23 0 13.83-7.854 19.82-23.562l7.85-20.944ZM307.954 649.237h-63.909V634.9h213.111v14.337h-64.152V805h-85.05V649.237ZM469.05 634.9h82.62v76.059h53.703V634.9h82.62V805h-82.62v-77.76H551.67V805h-82.62V634.9Zm232.558 0h79.218V805h-79.218V634.9Zm217.683 154.305c12.15 0 21.789-4.941 28.917-14.823 7.128-9.882 11.745-21.87 13.851-35.964h15.066c-2.268 17.496-8.019 32.4-17.253 44.712-5.184 6.804-11.097 11.907-17.739 15.309-6.48 3.24-13.689 5.346-21.627 6.318-7.776.972-17.982 1.458-30.618 1.458-17.82 0-32.319-1.701-43.497-5.103-11.016-3.564-20.493-9.315-28.431-17.253-15.552-15.552-23.328-36.936-23.328-64.152 0-28.674 6.966-49.977 20.898-63.909 9.072-9.072 19.197-15.066 30.375-17.982 11.178-2.916 25.839-4.374 43.983-4.374 16.686 0 30.213 1.215 40.581 3.645 10.53 2.268 19.116 7.209 25.758 14.823 5.508 6.318 9.801 13.932 12.879 22.842 3.078 8.91 4.86 17.739 5.346 26.487h-13.851c-.648-7.29-2.43-14.742-5.346-22.356-2.754-7.776-7.128-14.418-13.122-19.926-5.994-5.67-13.608-8.505-22.842-8.505-8.748 0-15.795 3.807-21.141 11.421-4.698 5.994-8.262 14.823-10.692 26.487-1.782 8.91-2.673 19.359-2.673 31.347 0 18.954 2.268 34.263 6.804 45.927 5.832 15.714 15.066 23.571 27.702 23.571ZM988.984 634.9h85.296V805h-85.296V634.9Zm85.296 84.807 39.85-84.807h84.81l-42.53 84.807L1210.36 805h-85.78l-50.3-85.293Zm198.01 53.731-1.9.238c-1.51-.238-2.81-1.068-3.92-2.492-1.03-1.503-1.62-3.599-1.78-6.288v-8.306c0-2.452.04-5.3.12-8.543.08-3.243.12-6.684.12-10.323h-15.31c-3.87 0-6.88.04-9.01.119-2.06.079-3.56.198-4.51.356h-.95c-1.19-.079-2.14-.435-2.85-1.068s-1.27-1.345-1.66-2.136a9.337 9.337 0 0 1-.83-2.373 25.11 25.11 0 0 1-.12-2.254c0-1.108.16-2.215.47-3.323.32-1.186.91-1.858 1.78-2.017 1.03-.237 2.61-.435 4.75-.593 2.21-.237 4.79-.435 7.71-.593 2.93-.158 6.17-.277 9.73-.356 3.56-.158 7.28-.277 11.15-.356v-16.018c0-3.955-.07-6.961-.23-9.018-.08-2.136-.2-3.678-.36-4.627v-.949c.16-1.187.52-2.097 1.07-2.729a6.98 6.98 0 0 1 2.14-1.662c.79-.395 1.58-.632 2.37-.711.87-.159 1.62-.238 2.25-.238 1.11 0 2.3.238 3.56.712 1.35.396 2.1 1.028 2.26 1.899.23 1.028.43 2.649.59 4.864.16 2.136.28 4.707.36 7.713.15 2.926.23 6.17.23 9.729.08 3.56.16 7.238.24 11.035h12.7c3.48 0 6.76.079 9.84.237 3.17.158 5.86.435 8.07.831 2.3.395 4 .989 5.1 1.78 1.11.791 1.39 1.779.84 2.966l-1.07 1.898c0 .158.08.673.23 1.543.16.791.24 1.265.24 1.424-.24 1.503-.95 2.57-2.13 3.203-1.19.633-3.13 1.029-5.82 1.187h-8.54c-2.53 0-5.5-.04-8.9-.119-3.32-.079-6.84-.119-10.56-.119v11.628c0 3.402.04 6.566.12 9.493.16 2.926.16 5.458 0 7.593-.08 2.136-.4 3.797-.95 4.984-.47 1.186-1.38 1.779-2.73 1.779h-3.91Zm209.89-127.313c-.39.791-.79 1.423-1.19 1.898-.31.475-.59.831-.83 1.068-.31.316-.59.514-.83.593-.63.158-1.89.396-3.79.712-1.9.237-4.47.435-7.72.593-2.37.158-5.61.514-9.73 1.068-4.11.475-8.81 1.108-14.11 1.899-5.23.711-10.92 1.463-17.09 2.254-6.17.791-12.58 1.463-19.22 2.017-.64 11.074-1.11 22.386-1.43 33.935-.23 11.548-.43 23.176-.59 34.883-.16 11.628-.32 23.256-.47 34.884-.08 11.549-.24 22.9-.48 34.053 0 .396-.16.791-.47 1.187a5.71 5.71 0 0 0-.72.831c-.39 1.582-1.1 2.966-2.13 4.152-1.03 1.108-2.1 1.661-3.2 1.661-3.33 0-5.9-.514-7.72-1.542-1.74-1.028-3.24-2.136-4.51-3.322-.55-.712-1.1-1.741-1.66-3.085a54.556 54.556 0 0 1-1.3-4.628c-.4-1.74-.75-3.559-1.07-5.458a49.014 49.014 0 0 1-.59-5.576c-.16-1.741-.28-3.441-.36-5.102-.08-1.662-.12-3.362-.12-5.102 0-3.797.12-7.515.36-11.154.24-3.638.43-7.04.59-10.204.08-1.977.2-4.786.36-8.424.23-3.639.51-7.792.83-12.459.31-4.667.67-9.65 1.07-14.95.39-5.379.87-10.758 1.42-16.137.63-5.378 1.3-10.599 2.02-15.662.71-5.141 1.5-9.808 2.37-14.001.4-1.265.75-2.491 1.07-3.678.31-1.266.59-2.571.83-3.915-7.28.474-14.4.711-21.36.711-8.94 0-17.44-.514-25.51-1.542-8.07-1.107-14.95-3.006-20.64-5.695-.72-.396-1.11-1.108-1.19-2.136-.16-1.028-.48-2.096-.95-3.204-.63-.87-.87-1.819-.71-2.847.16-1.108.23-2.017.23-2.729-.07-.712.16-1.187.72-1.424.47-.237 1.5-.317 3.08-.237 1.5 0 3.6.079 6.29.237 2.77.158 6.37.237 10.8.237 3.32 0 7.12-.079 11.39-.237 4.27-.158 9.13-.435 14.59-.831 2.69-.237 6.57-.593 11.63-1.068 5.14-.553 10.92-1.067 17.32-1.542 6.49-.554 13.37-1.028 20.65-1.424 7.28-.395 14.47-.593 21.59-.593 2.69 0 5.7.158 9.02.474 3.32.238 6.61.594 9.85 1.068 3.32.475 6.37 1.029 9.14 1.661 2.84.633 5.18 1.266 7 1.899 1.18.475 1.89.91 2.13 1.305.24.316.32.593.24.831 0 .237-.04.435-.12.593-.08.158.12.316.59.475.48.158.99.276 1.55.355.55.08 1.06.238 1.54.475.47.158.87.396 1.19.712.31.316.43.712.35 1.187Zm52.09 79.141c.16 1.107.28 2.373.36 3.796.07 1.345.11 2.769.11 4.272 0 3.797-.15 8.227-.47 13.289-.32 5.063-.71 11.074-1.19 18.035-.15 2.69-.27 6.131-.35 10.323-.08 4.113-.12 8.385-.12 12.814 0 3.797.04 7.476.12 11.035.16 3.56.35 6.684.59 9.374.16 1.186-.12 1.819-.83 1.898-.71.079-1.5 0-2.37-.237-.4-.158-.75-.158-1.07 0-.32.158-.63.356-.95.593-.24.237-.51.396-.83.475-.24.158-.59.039-1.07-.356-.39-.317-1.07-.791-2.02-1.424a141.81 141.81 0 0 1-3.08-2.136 27.817 27.817 0 0 1-2.97-2.373c-.95-.87-1.66-1.661-2.13-2.373-.48-1.107-.79-3.836-.95-8.187-.16-4.351-.24-9.611-.24-15.781v-16.018c.08-3.48.24-6.921.48-10.323.23-3.401.51-6.684.83-9.848.31-3.164.59-6.13.83-8.899.23-2.847.35-5.418.35-7.712 0-3.639-.51-6.368-1.54-8.187-.24-.316-.95-.119-2.14.593-1.18.712-2.72 2.215-4.62 4.509-1.82 2.294-3.92 5.537-6.29 9.729-2.3 4.193-4.75 9.611-7.36 16.256-2.53 6.644-5.14 14.673-7.83 24.086-2.61 9.413-5.1 20.488-7.47 33.223-.24 1.107-.56 1.859-.95 2.254-.32.475-.95.712-1.9.712-.63 0-1.19-.514-1.66-1.542-.4-.949-.91-1.74-1.55-2.373-1.5 0-2.88-.159-4.15-.475-1.18-.395-1.9-1.384-2.13-2.966 0-.554-.16-1.068-.48-1.543-.24-.474-.55-.988-.95-1.542-.31-.633-.63-1.266-.95-1.899-.23-.712-.35-1.542-.35-2.491.23-5.537.43-11.549.59-18.035.16-6.566.32-13.25.47-20.053.24-6.882.44-13.763.6-20.645.16-6.882.35-13.447.59-19.697.24-6.328.44-12.181.59-17.56.24-5.458.52-10.165.84-14.12.94-11.786 1.89-21.041 2.84-27.764.95-6.803 1.55-10.758 1.78-11.866.24-.791.48-1.384.71-1.779.24-.396.44-.673.6-.831.23-.158.39-.277.47-.356.16-.079.28-.277.36-.593.16-.317.43-.475.83-.475.47-.079.99-.079 1.54 0h1.54a2.13 2.13 0 0 0 1.19-.593c.63-.475 1.15-.87 1.54-1.187.48-.316 1.27-.474 2.38-.474 1.34-.158 2.37-.119 3.08.119.71.158 1.15.909 1.31 2.254.23 2.452.31 5.656.23 9.611-.08 3.955-.27 8.305-.59 13.051-.32 4.747-.67 9.77-1.07 15.069-.39 5.221-.83 10.363-1.3 15.425-.4 5.063-.79 9.888-1.19 14.476a543.98 543.98 0 0 0-.71 11.628c-.16 1.819-.28 4.034-.36 6.644v17.561c0 3.164-.04 6.288-.12 9.373 2.46-7.593 5.11-14.198 7.95-19.815 2.85-5.695 5.7-10.441 8.55-14.238 2.84-3.797 5.57-6.684 8.18-8.662 2.69-1.977 5.07-3.124 7.12-3.44.48-.08 1.31.039 2.49.355 1.27.317 2.58.673 3.92 1.068 1.34.396 2.57.831 3.68 1.306 1.11.395 1.74.672 1.9.83.31.396.79.949 1.42 1.661.63.633 1.27 1.503 1.9 2.611.71 1.107 1.34 2.531 1.9 4.271.63 1.74 1.14 3.836 1.54 6.289Zm51.38-75.107c.08 1.582 0 3.362-.24 5.339a33.535 33.535 0 0 1-.95 5.577c-.4 1.819-.99 3.441-1.78 4.864-.71 1.424-1.58 2.413-2.61 2.967-2.61 1.344-4.9 2.017-6.88 2.017-1.58 0-2.97-.356-4.16-1.068a50.37 50.37 0 0 1-3.32-2.61c-1.58-1.266-2.92-2.927-4.03-4.984-1.03-2.056-1.54-4.034-1.54-5.932 0-1.503.23-3.323.71-5.458a54.463 54.463 0 0 1 2.01-6.408c.8-2.056 1.63-3.915 2.5-5.576.95-1.741 1.86-2.927 2.73-3.56 1.34-1.107 2.57-1.701 3.67-1.78 1.19-.158 2.14-.118 2.85.119 1.74.396 3.28.91 4.63 1.542 1.34.554 2.45 1.464 3.32 2.73.95 1.186 1.66 2.768 2.14 4.746.47 1.977.79 4.469.95 7.475Zm-9.73 53.037c.39.396.67 1.701.83 3.916.23 2.215.35 5.102.35 8.661 0 2.373-.04 4.944-.12 7.713-.07 2.768-.19 5.616-.35 8.543-.08 2.927-.2 5.893-.36 8.899-.16 2.926-.27 5.735-.35 8.424-.24 4.43-.4 8.543-.48 12.34v10.797c0 4.588.04 8.781.12 12.577.08 3.797.12 6.961.12 9.493 0 2.768-.12 4.904-.36 6.407-.15 1.424-.55 2.215-1.18 2.373-.71.158-1.31.514-1.78 1.068-.48.474-.91.949-1.31 1.424-.39.474-.87.87-1.42 1.186-.48.396-1.07.514-1.78.356-.4-.079-1.07-.435-2.02-1.068a47.188 47.188 0 0 1-3.08-2.254 28.887 28.887 0 0 1-2.97-3.204c-.95-1.186-1.58-2.412-1.9-3.678-.16-.633-.31-1.898-.47-3.797-.08-1.898-.16-4.192-.24-6.882-.08-2.689-.16-5.656-.24-8.899-.08-3.322-.16-6.644-.23-9.966v-18.748c0-4.034.11-8.147.35-12.339.32-4.193.63-8.108.95-11.747.4-3.639.75-6.803 1.07-9.492.39-2.769.67-4.707.83-5.814.32-1.899.63-3.362.95-4.39.39-1.108.79-1.899 1.18-2.373.48-.475.91-.752 1.31-.831.47-.158.95-.277 1.42-.356.95-.158 2.02-.198 3.21-.118 1.26.079 2.45.197 3.56.355 1.1.159 2.05.396 2.84.712.87.238 1.39.475 1.55.712Zm93.26 96.702c0 .949-.36 2.017-1.07 3.204-.63 1.107-1.58 1.661-2.85 1.661-.71 0-1.26-.198-1.66-.594-.39-.395-.79-.593-1.19-.593-.55 0-1.1.198-1.66.593-.47.396-1.3.594-2.49.594-1.58 0-2.96-.554-4.15-1.661-1.11-1.187-2.02-2.65-2.73-4.391a32.726 32.726 0 0 1-1.66-5.814c-.32-2.135-.48-4.113-.48-5.932 0-3.56.12-7.594.36-12.103.32-4.588.63-9.255.95-14.001.39-4.825.71-9.611.95-14.357.31-4.746.47-9.136.47-13.17 0-5.379-.35-9.571-1.06-12.577-.72-3.006-1.98-4.509-3.8-4.509-1.74.237-3.52 1.74-5.34 4.509-1.82 2.768-3.68 6.328-5.58 10.679-1.9 4.271-3.76 9.136-5.57 14.594a586.974 586.974 0 0 0-5.34 16.611 1004.21 1004.21 0 0 0-4.75 16.493c-1.5 5.3-2.85 10.046-4.03 14.238-1.19 4.192-2.22 7.594-3.09 10.204-.87 2.531-1.46 3.797-1.78 3.797-.63 0-1.11-.158-1.42-.475a8.035 8.035 0 0 1-.95-.83 5.633 5.633 0 0 0-.95-.949c-.4-.238-.99-.356-1.78-.356-.71 0-1.19.079-1.42.237-.24.158-.52.356-.84.593-.31.238-.71.435-1.18.594-.48.158-1.31.237-2.49.237-1.43 0-2.85-.356-4.28-1.068-1.34-.712-2.01-1.819-2.01-3.322 0-.95.16-2.888.47-5.814.32-3.006.67-6.645 1.07-10.916.47-4.351.95-9.176 1.42-14.476.56-5.379 1.03-10.916 1.43-16.611.47-5.696.87-11.391 1.18-17.086.32-5.695.48-11.114.48-16.256 0-2.531-.04-4.864-.12-7a174.64 174.64 0 0 1-.12-6.289c0-.474.24-.711.71-.711.95 0 1.66.197 2.14.593.55.316.95.672 1.19 1.068.23.395.35.791.35 1.186.08.317.16.475.24.475.24 0 .51-.119.83-.356.32-.317.63-.633.95-.949.39-.317.75-.594 1.07-.831.31-.316.59-.475.83-.475h1.18c1.19 0 2.02-.158 2.5-.474.47-.396.79-.791.94-1.187.24-.474.4-.87.48-1.186.08-.396.32-.593.71-.593.24 0 .56.197.95.593.48.316.91.909 1.31 1.78.47.791.87 1.858 1.18 3.203.32 1.345.48 2.966.48 4.865 0 2.531-.12 5.735-.36 9.611-.16 3.876-.39 8.029-.71 12.458-.24 4.351-.48 8.781-.71 13.289-.24 4.43-.4 8.464-.48 12.103.87-3.402 1.9-7.159 3.09-11.272a215.07 215.07 0 0 1 4.27-12.696c1.66-4.271 3.44-8.424 5.34-12.458 1.9-4.114 3.95-7.752 6.17-10.916 2.21-3.164 4.55-5.696 7-7.594 2.45-1.978 5.02-2.966 7.71-2.966 4.27 0 7.75.791 10.44 2.373 2.77 1.582 4.95 3.757 6.53 6.525 1.58 2.769 2.65 6.012 3.2 9.73.63 3.718.95 7.712.95 11.984 0 3.638-.16 7.475-.47 11.509-.32 3.955-.68 7.95-1.07 11.984-.32 3.955-.63 7.871-.95 11.747-.24 3.876-.36 7.514-.36 10.916 0 4.192.24 7.989.72 11.39.47 3.322.71 5.854.71 7.594Z" fill="#1A73E8"/></g><circle cx="397" cy="267" r="74" stroke="#1A73E8" stroke-width="10"/><circle cx="282" cy="643" r="74" stroke="#1A73E8" stroke-width="10"/><circle cx="918" cy="498" r="74" stroke="#1A73E8" stroke-width="10"/><circle cx="918" cy="796" r="45" stroke="#1A73E8" stroke-width="10"/><circle cx="1597" cy="352" r="45" stroke="#1A73E8" stroke-width="10"/><circle cx="1478" cy="736" r="45" stroke="#1A73E8" stroke-width="10"/></svg>