<svg width="1920" height="1080" fill="none" xmlns="http://www.w3.org/2000/svg"><path d="M1816.81 936.295c10.77 11.454 11.73 21.921 3.86 29.785-6.78 6.754-18.41 7.343-25.88 1.315-8.93-7.22-8.64-17.66 1.43-31.086-6.13 0-11.7-.027-17.29.014-2.33.013-4.66.191-7.33.301 9.83 12.782 10.29 22.743 1.74 30.25-7.31 6.426-18.7 6.275-25.83-.342-8.56-7.933-7.91-17.824 2.89-30.237-13.51 0-26.03.028-38.56 0-11.24-.027-15.32-4.165-14.69-14.769.49-8.672 3.93-11.809 13.59-11.823 38.19-.055 76.37-.028 114.57-.028 9.75 0 19.51-.109 29.25.042 9.16.137 12.64 4.069 12.54 13.618-.09 8.932-3.71 12.837-12.47 12.933-12.14.137-24.28.041-37.82.041v-.014ZM1464.38 935.195c-20.76 0-40.25.027-59.74 0-10.83-.014-14.67-3.535-14.66-13.291.02-9.92 3.63-13.304 14.56-13.304 47.14-.027 94.29-.041 141.45 0 10.54 0 14.19 3.713 14.01 13.811-.17 9.386-3.88 12.77-14.3 12.784-19.95.041-39.89 0-60.4 0 10.07 13.235 10.34 23.827 1.35 31.102-7.27 5.878-18.42 5.508-25.24-.836-8.55-7.96-7.9-17.949 2.95-30.28l.02.014ZM1212.1 919.8v-24.275h-10.05c-33.8 0-67.58.015-101.38 0-11.44 0-15.56-3.876-15.59-14.389-.03-10.299 4.32-14.907 15.39-14.937 41.94-.153 83.88-.199 125.82.015 15.36.076 20.61 5.539 20.75 20.293.13 14.053.13 28.106 0 42.143-.14 15.395-5.31 20.232-21.5 20.247-31.68.031-63.37 0-95.05 0h-10.26v24.367h11.25c35.61 0 71.22-.076 106.82.046 13.3.046 17.65 4.791 16.57 17.044-.71 7.979-4.86 12.296-13.36 12.296-46.17-.01-92.33.09-138.49-.12-11.61-.05-17.33-5.448-17.66-16.769-.47-16.372-.47-32.79-.01-49.162.33-11.947 6.21-16.738 19.44-16.783 32.29-.092 64.56-.031 96.85-.031h10.49l-.03.015ZM876.501 895.661c-18.826-4.104-37.856 3.918-55.205-5.736v21.055c0 23.413.059 46.84-.029 70.252-.044 10.989-4.666 15.306-15.857 15.32-11.219 0-16.075-4.345-16.134-15.206-.146-25.599-.044-51.198-.058-76.797v-9.967c-12.463 0-24.165.028-35.853 0-10.927-.029-14.628-3.351-14.774-13.134-.146-9.938 3.979-14.056 14.906-14.183 15.725-.171 31.435-.015 47.159-.057 8.85-.028 16.983 1.178 20.962 12.707 2.019-10.904 8.396-12.906 16.749-12.778 16.836.27 33.687-.085 50.524.142 14.993.199 19.645 4.87 19.674 19.267.059 31.036.059 62.087 0 93.124-.029 14.056-11.249 20.86-24.604 15.121-6.538-2.811-7.489-8.149-7.474-14.198.058-25.329.029-50.644.014-75.973v-8.959ZM530.46 949.847h-10.599c-36.425 0-72.849.03-109.273 0-11.679 0-16.168-4.088-16.292-14.48-.123-10.363 4.32-14.541 16.137-14.57 36.425-.09 72.849-.03 109.274-.03h10.166v-25.771h-9.626c-34.064 0-68.113.015-102.177-.015-11.231 0-15.165-3.759-15.165-14.181 0-10.347 3.98-14.555 15.103-14.6 42.056-.15 84.111-.21 126.151.03 14.888.09 20.056 5.57 20.087 20.17.092 32.749.092 65.498 0 98.247-.031 14.54-11 21.613-25.162 16.423-6.465-2.362-8.702-7.199-8.64-13.578.093-12.264.031-24.543.031-37.645h-.015ZM183.833 897.003h-11.25c-35.45 0-70.901.032-106.35-.016-12.109 0-16.217-3.922-16.233-15.115 0-10.999 4.322-15.611 16.067-15.659 44.309-.16 88.618-.24 132.926.048 15.556.096 20.917 5.876 20.967 21.023.082 35.61.082 71.236 0 106.845-.033 12.901-5.378 17.981-18.327 17.871-12.834-.11-17.767-5.11-17.8-18.367-.066-28.548-.016-57.113-.016-85.662v-10.968h.016ZM1748.11 675.916c-9.96-12.955-10.35-22.513-1.9-30.128 7.25-6.532 18.56-6.504 25.82.041 8.5 7.683 8.09 17.105-1.57 29.608h24.06c-1.54-6.478-4.11-13.202-4.35-19.994-.13-3.437 3.29-7.751 6.28-10.38 7.14-6.272 18.14-5.423 25.04 1.136 8.09 7.683 7.59 17.05-2.38 29.69 11.75 0 22.66-.11 33.58.027 11.3.151 15.52 5.108 14.18 16.009-.84 6.847-4.67 10.517-11.73 10.531-48.72.055-97.43.11-146.15-.027-8.2-.028-11.71-4.218-11.9-12.777-.21-9.148 3.08-13.394 11.74-13.626 12.86-.356 25.72-.096 39.27-.096l.01-.014ZM1466.48 675.633c-9.53-14.316-9.32-24.042.14-31.152 7.49-5.631 18.04-4.74 25.02 2.137 7.63 7.507 6.91 17.357-2.64 28.577 2.77.164 5.04.411 7.32.411 17.33.041 34.67-.151 52.01.11 9.3.137 12.95 4.397 12.73 13.59-.21 8.781-3.91 12.863-12.72 12.877-48.21.11-96.44.11-144.66 0-8.83-.014-12.46-4.027-12.63-12.891-.18-9.412 3.26-13.453 12.66-13.576 18.15-.247 36.3-.083 54.46-.096h8.31v.013ZM1205.98 671.591c-7.55 18.512-14.39 34.608-20.64 50.921-2.82 7.37-7.7 11.089-15.59 10.953-7.86-.136-12.6-3.895-15.2-11.414-5.62-16.191-11.97-32.152-18.61-49.754-1.7 3.393-2.82 5.293-3.65 7.301-6.02 14.753-11.95 29.546-17.98 44.299-2.56 6.243-6.5 10.654-14.33 10.206-12.11-.679-17.97-8.944-13.45-19.829 9.52-22.922 19.28-45.75 28.93-68.632 1.09-2.592 2.07-5.239 3.42-8.727-6.84 0-12.68.136-18.52-.027-7.49-.204-10.98-4.139-11.26-12.255-.28-8.116 2.89-12.324 10.15-13.287 1.85-.244 3.75-.285 5.62-.285 43.21-.014 86.4-.054 129.61.013 11.66.014 15.24 2.986 15.5 12.215.3 9.826-3.51 13.585-13.81 13.64-3.95.027-7.87 0-12.82 0 1.32 3.664 2.22 6.311 3.25 8.93 8.78 22.366 17.62 44.705 26.37 67.085 4.17 10.654 2.1 16.11-7.17 19.612-10.07 3.813-16.32.909-20.44-9.799-6.25-16.273-12.33-32.586-19.34-51.166h-.04Zm-53.22-34.377c5.94 16.055 11.47 31.011 17.86 48.275 6.84-17.413 12.78-32.518 18.96-48.275h-36.82ZM806.206 626.272c2.491-12.457-4.937-29.618 16.609-30.102 22.678-.513 15.687 17.396 17.831 30.102 16.881 0 33.323-.088 49.781.029 12.003.088 16.85 5.525 15.566 16.942-.845 7.532-4.559 11.695-12.969 11.563-14.148-.235-28.311-.059-44.194-.059 2.506 3.136 4.031 5.261 5.782 7.21 15.809 17.572 31.678 35.099 47.486 52.686 8.168 9.071 8.576 14.889 1.646 21.059-9.754 8.676-17.394 8.456-26.061-1.172-16.956-18.847-33.745-37.825-50.55-56.789-.936-1.055-1.404-2.491-2.567-4.66-3.473 3.722-5.602 5.906-7.61 8.163-15.899 17.864-31.707 35.817-47.712 53.594-8.621 9.584-21.002 8.617-28.37-1.964-4.439-6.361-1.812-11.636 2.748-16.692 16.035-17.763 32.009-35.569 47.983-53.36 1.888-2.096 3.715-4.265 7.021-8.075h-41.793c-11.686-.029-15.521-3.532-15.506-14.084.03-10.493 4.031-14.288 15.627-14.362 16.201-.102 32.402-.029 49.237-.029h.015ZM479.911 658.761c-2.369 3.189-4.28 5.622-6.037 8.144-15.819 22.593-31.576 45.231-47.441 67.795-7.214 10.25-13.786 11.333-24.347 4.257-9.002-6.023-10.24-13.025-3.53-22.682 18.157-26.183 36.451-52.277 55.892-80.122-14.428 0-27.373.015-40.303 0-12.548-.015-17.53-5.637-15.666-17.609.933-6.038 4.035-10.028 10.76-10.34 4.387-.207 8.788-.326 13.19-.326 40.486-.03 80.957-.059 121.444.03 13.037.029 17.209 3.975 16.796 15.161-.366 9.598-4.034 13.039-14.274 13.084-13.16.059-26.304.015-41.19.015 2.369 3.59 3.959 6.112 5.67 8.545 16.461 23.542 32.982 47.055 49.412 70.613 8.559 12.283 2.996 25.04-12.12 28.052-7.504 1.498-11.279-3.19-14.84-8.307a105157.484 105157.484 0 0 0-47.288-67.899c-1.788-2.551-3.652-5.044-6.098-8.411h-.03ZM134.832 651.511c-2.268 3.217-4.013 5.587-5.656 8.043-16.427 24.481-32.767 49.006-49.253 73.445-7.53 11.161-23.696 10.145-29.09-2.215-1.526-3.528-.872-9.454 1.28-12.728 21.53-32.863 43.51-65.459 65.506-98.026 8.097-11.98 26.211-11.994 34.265-.028 21.501 31.918 42.886 63.921 64.227 95.937 6.353 9.539 4.957 16.326-4.129 22.027-9.769 6.138-15.976 4.685-22.882-5.616-16.267-24.256-32.448-48.569-48.686-72.839-1.628-2.441-3.387-4.825-5.612-7.986l.03-.014ZM1769.45 425.08v-28.674c-6.36 1.64-12.6 4.273-18.94 4.493-3.59.129-8.09-2.995-10.87-5.849-6.26-6.442-5.47-16.525.96-22.877 7.59-7.527 16.61-7.049 29.32 2.569 0-8.495-.08-15.97.01-23.445.13-10.509 4.85-14.795 15.67-14.395 9.04.336 13.1 3.976 13.34 12.807.28 10.148.1 20.321.1 30.469 0 35.684.06 71.356-.04 107.04-.02 11.167-4.66 15.312-15.96 14.795-8.91-.4-12.94-4.209-13.07-13.039-.19-11.891-.05-23.781-.07-35.685v-5.732c-7.47 1.369-14.47 3.512-21.48 3.55-3.25.013-7.22-3.55-9.62-6.468-5.49-6.636-4.17-16.331 2.24-22.27 7.67-7.101 16.48-6.507 28.41 2.698v.013ZM1464.9 399.489c0-16.944-.05-32.454.01-47.976.06-10.999 4.82-15.251 16.06-14.566 9.34.569 13.06 4.86 13.08 15.548.05 40.88.02 81.76.02 122.64 0 4.705.15 9.422-.08 14.114-.45 9.461-5.14 13.312-15.55 13.028-9.57-.259-13.45-3.865-13.5-13.248-.12-20.563-.04-41.125-.04-61.688v-8.479c-14.66 9.228-23.36 9.293-30.48.815-5.79-6.889-5.34-16.66 1.08-23.019 7.38-7.315 17.42-6.734 29.41 2.831h-.01ZM1206.42 371.882v77.686c13.87 0 27.4-.184 40.92.062 10.99.184 15.13 4.235 15.48 14.226.39 11.081-3.95 15.47-15.61 15.501-18.8.046-37.61.076-56.41 0-13.44-.062-19.47-5.848-19.5-18.877-.08-32.658-.06-65.316.05-97.975.05-14.456 5.31-19.843 20.16-20.089 17.88-.291 35.8-.23 53.68 0 10.48.123 14.72 4.635 14.85 14.81.12 9.868-4.43 14.503-14.87 14.641-12.66.169-25.33.031-38.75.031v-.016Zm-53.82-.092c9.55-.184 13.41-4.45 13.52-13.981.11-10.221-3.66-15.163-13.18-15.331-19.1-.353-38.21-.43-57.3.046-12.45.307-17.81 5.693-17.89 17.603-.24 33.824-.24 67.649 0 101.473.08 12.293 6 17.634 18.69 17.726 19.4.138 38.81.107 58.21 0 9.82-.046 14.41-4.543 14.74-13.966.36-10.436-4.62-15.561-16-15.746-13.52-.214-27.06-.046-40.72-.046v-77.716c14 0 26.96.184 39.93-.062ZM774.124 362.845v24.276h10.211c33.948 0 67.895-.047 101.843.031 13.158.031 18.192 6.123 15.994 18.554-1.402 7.886-6.117 10.685-14.146 10.639-34.25-.217-68.517-.093-102.767-.093h-10.832v24.6h10.243c36.082 0 72.18-.046 108.262.031 11.311.016 15.58 4.252 15.676 15.014.095 10.484-4.461 14.968-15.692 14.983-44.955.047-89.926.062-134.881 0-12.824-.015-19.069-5.288-19.197-17.565-.35-34.11-.318-68.235 0-102.361.112-12.045 5.767-17.085 18.496-17.132 43.728-.185 87.473-.154 131.201-.046 10.737.031 14.704 4.36 14.688 14.89-.016 10.251-4.11 14.148-15.277 14.163-34.25.047-68.516.016-102.766.016h-11.072.016ZM429.01 377.849c0 25.202.111 48.978-.079 72.754-.047 6.715 4.58 5.657 8.671 5.672 34.24.031 68.481.015 102.705.015 2.732 0 5.465-.061 8.181.031 11.561.445 15.715 4.338 15.825 14.778.111 10.041-4.674 14.67-15.825 14.701-44.538.077-89.075.107-133.613 0-14.783-.031-20.39-5.442-20.469-19.76-.158-32.621-.142-65.243 0-97.879.063-13.675 5.038-19.239 18.889-19.346 43.922-.353 87.86-.292 131.798-.062 10.881.062 14.909 5.028 14.514 15.82-.348 9.489-4.533 13.245-15.099 13.26-34.84.031-69.681 0-104.521 0H429.01v.016ZM84.644 456.459h11.682c35.694 0 71.404-.077 107.098.046 13.007.046 17.232 4.484 16.522 16.389-.52 8.814-4.445 12.931-13.653 12.962-45.989.137-91.978.168-137.951-.031-12.266-.046-18.036-5.417-18.131-17.246-.3-35.503-.252-71.02-.032-106.538.063-10.421 5.518-14.584 17.217-14.538 11.603.062 16.98 4.239 17.09 14.752.3 27.591.126 55.182.142 82.757v11.416l.016.031ZM1797.83 104.807c11.31-11.937 21.79-13.552 29.99-5.704 7.14 6.827 6.88 18.107-.57 24.63-8.57 7.495-18.73 5.627-28.77-5.918v37.323c5.36-2.422 11.09-6.208 17.35-7.406 3.56-.682 8.72 2.044 11.88 4.681 7.35 6.119 7 17.374.06 23.96-8.05 7.647-18.5 6.057-29.95-5.476 0 13.981.09 26.888-.03 39.796-.09 9.943-4.04 13.69-14.01 13.766-10.44.076-14.39-3.634-14.4-13.993-.05-44.288-.04-88.588 0-132.875 0-10.448 4.03-14.536 13.97-14.586 10.31-.05 14.39 4.138 14.47 14.99.05 8.453 0 16.894 0 26.799l.01.013ZM1491.12 124.565c11.27-11.881 21.47-13.456 29.84-5.203 7.07 6.967 6.65 18.029-.92 24.531-8.55 7.358-18.64 5.405-29.33-6.842v8.076c0 21.495.05 42.989-.03 64.483-.04 12.133-8.45 17.753-20.41 13.847-7.03-2.306-8.03-7.749-8.02-13.935.05-32.367.03-64.722.03-97.09 0-11.83-.11-23.674.04-35.504.13-10.03 4.58-14.099 14.7-13.922 9.55.163 13.6 4.245 13.67 14.148.11 13.28 0 26.572.06 39.852 0 2.306.23 4.624.38 7.547l-.01.012ZM1117.37 117.934h17.74c0-7.45-.18-14.541.05-21.619.31-10.229 4.66-14.154 15.38-14.298 11.33-.143 16.72 3.926 16.78 13.883.2 32.406.25 64.827 0 97.234-.09 11.49-5.46 16.504-17.42 16.733-15.57.301-31.14.287-46.71.029-12.82-.215-18.06-5.43-18.1-17.779-.12-31.59-.1-63.18 0-94.77.03-11.175 4.58-15.33 16.07-15.33 11.41 0 16.05 4.313 16.22 15.258.11 6.562.02 13.138.02 20.659h-.03Zm17.24 64.054v-35.487h-16.62v35.487h16.62Zm70.51-63.968h17.52c0-7.307-.12-14.327.03-21.36.21-10.273 5.06-14.614 16.03-14.643 11.13-.014 16.18 4.227 16.22 14.427.13 32.12.16 64.255-.02 96.375-.05 11.446-5.37 16.776-17.1 17.019-16.14.344-32.28.373-48.4-.028-11.43-.287-16.52-5.373-16.59-16.547-.24-32.393-.21-64.799-.02-97.206.06-10.1 4.74-13.954 15.58-14.054 11.45-.115 16.1 3.71 16.7 13.94.21 3.553.08 7.134.08 10.702v11.346l-.03.029Zm17.19 28.366h-16.5v35.301h16.5v-35.301ZM867.651 109.554c1.561 5.554 4.028 10.456 4.16 15.414.481 18.418.189 36.864.189 56.585 7.444 0 14.304-.071 21.179.014 10.947.141 15.326 4.108 15.428 13.799.102 9.86-4.087 13.7-15.107 13.714-46.766 0-93.531.014-140.297 0-10.831 0-14.45-3.315-14.611-13.162-.161-10.101 3.912-14.153 14.654-14.323 6.948-.113 13.881-.028 21.968-.028 0-18.304-.307-35.872.175-53.397.16-6.035 2.32-12.028 3.678-18.587-5.693 0-13.37.056-21.062-.015-9.196-.085-12.976-3.881-13.195-13.02-.219-9.123 3.372-13.373 12.45-13.827 7.269-.368 14.553-.156 21.836-.156 35.848 0 71.696-.07 107.529.043 12.144.042 16.742 4.944 15.458 15.84-.847 7.182-4.423 11.432-12.567 11.177-7.824-.241-15.662-.057-21.865-.057v-.014Zm-64.355.312c1.299 5.709 3.606 11.461 3.766 17.27.497 17.865.175 35.758.175 53.694h32.754c0-18.063-.35-35.447.19-52.802.19-6.191 2.583-12.311 3.897-18.176h-40.782v.014ZM430.42 125.701h97.585c0-10.057-.181-18.591.05-27.124.297-11.47 5.982-16.554 17.98-16.538 11.915 0 18.03 5.181 18.096 16.554.215 35.995.281 71.989-.017 107.968-.115 13.763-6.527 19.457-20.756 19.473-43.447.08-86.893.08-130.34 0-11.618-.016-18.294-5.373-18.426-16.634-.43-37.823-.364-75.663 0-113.502.099-9.416 6.627-13.843 17.616-13.875 11.37-.032 17.633 4.652 18.08 14.5.462 10.074.099 20.179.099 29.178h.033Zm97.007 29.851h-96.082v38.882h96.082v-38.882ZM135.123 222.527c-21.196 0-42.376.109-63.572-.031-15.753-.11-21.345-5.208-21.427-19.895a10186.39 10186.39 0 0 1 0-100.391c.066-13.501 5.097-18.896 19.282-19.02 43.647-.375 87.293-.375 130.922-.016 14.5.124 19.564 5.768 19.613 19.707.099 33.162.116 66.324 0 99.487-.049 14.608-5.757 20.003-21.262 20.112-21.196.156-42.376.047-63.572.047h.016Zm-48.314-30.902h96.331v-78.376H86.809v78.376Z" fill="#3C4043"/></svg>