<svg width="1920" height="1080" fill="none" xmlns="http://www.w3.org/2000/svg"><path d="M583.825 659.572c-.034 60.181.334 120.373-.312 180.554-.245 22.958-11.618 32.083-36.2 32.194-24.771.123-36.322-8.991-36.467-31.704-.478-77.474-.556-154.948.067-232.411.212-25.818 12.419-37.524 38.392-37.636 97.371-.411 194.754-.356 292.125-.055 19.474.055 27.787 9.058 28.9 28.287 1.502 25.996-7.445 35.666-34.998 35.766-75.594.278-151.187.112-226.792.112h-24.738c.034 9.915.034 17.404.023 24.893ZM1282.83 633.076c-71.79 0-143.58.067-215.37-.045-23.39-.033-31.96-8.446-32-30.58-.04-22.723 8.29-32.082 30.78-32.138 91.65-.234 183.31-.289 274.97.089 26.67.111 38.52 10.984 38.76 37.001.66 73.657.71 147.337-.02 220.994-.25 26.507-13.34 37.88-40.22 37.925-94.23.156-188.45.133-282.66.011-23.53-.033-33.09-9.726-32.89-32.361.21-23.235 9.14-32.36 32.86-32.405 75.62-.156 151.26-.056 226.89-.056h21.45v-53.125h-22.71c-71.79 0-143.57-.267-215.36.189-16.83.111-26.7-5.943-29.64-22.957-4.64-26.842 5.91-39.995 33.51-40.062 71.14-.167 142.3-.067 213.44-.067h21.39v-52.424c-9.17.011-16.18.011-23.18.011Z" fill="#FF6D75"/><path d="M1115.34 283.285v52.302h22.1c71.14-.044 142.29-.144 213.44.022 27.58.067 38.13 13.221 33.5 40.062-2.93 17.015-12.81 23.068-29.63 22.957-71.79-.456-143.58-.189-215.36.378h-22.94v52.303h21.68c75.63.256 151.26.156 226.89.311 23.71.045 32.65 9.17 32.86 32.406.21 22.634-9.36 32.327-32.89 32.36-94.22.111-188.45.145-282.66-.011-26.88-.044-39.96-11.417-40.23-37.925-.72-73.657-.67-147.336-.01-220.994.24-26.017 12.09-36.889 38.76-37.001 91.65-.389 183.32-.333 274.97-.089 22.49.056 30.82 9.415 30.78 32.138-.05 22.123-8.62 30.536-32.01 30.581-71.78.111-143.57.044-215.36.211h-23.89v-.011ZM583.836 444.643h24.738c75.593.011 151.187-.167 226.791.111 27.554.1 36.501 9.771 34.998 35.766-1.112 19.218-9.425 28.221-28.899 28.288-97.372.289-194.754.356-292.125-.056-25.973-.111-38.192-11.829-38.392-37.635-.624-77.463-.535-154.949-.067-232.412.144-22.723 11.695-31.826 36.467-31.704 24.582.123 35.955 9.237 36.2 32.194.634 60.181.278 120.373.311 180.554-.022 7.478-.022 14.956-.022 24.894Z" fill="#3C4043"/></svg>