<svg width="1920" height="1080" viewBox="0 0 1920 1080" fill="none" xmlns="http://www.w3.org/2000/svg">
<rect x="1216" y="813" width="218" height="50" rx="25" fill="#D2E3FC"/>
<rect x="1215" y="813" width="197" height="50" rx="25" fill="#1A73E8"/>
<rect x="486" y="813" width="218" height="50" rx="25" fill="#D2E3FC"/>
<rect x="486" y="813" width="50" height="50" rx="25" fill="#1A73E8"/>
<path d="M286.599 541.76C286.599 505.173 292.572 476.053 304.519 454.4C316.839 432.373 333.265 416.507 353.799 406.8C374.705 396.72 398.225 391.68 424.359 391.68C454.225 391.68 478.679 397.28 497.719 408.48C516.759 419.307 530.759 434.427 539.719 453.84C548.679 473.253 553.159 495.84 553.159 521.6C553.159 529.813 552.785 537.653 552.039 545.12C551.292 552.587 550.359 561.173 549.239 570.88H339.239V554.08L389.639 518.24H481.479C481.479 503.307 479.799 491.173 476.439 481.84C473.079 472.133 467.105 465.04 458.519 460.56C449.932 455.707 437.612 453.28 421.559 453.28C407.372 453.28 395.985 455.707 387.399 460.56C378.812 465.04 372.465 473.253 368.359 485.2C364.625 497.147 362.759 514.32 362.759 536.72C362.759 556.133 364.252 572 367.239 584.32C370.225 596.267 374.892 605.413 381.239 611.76C387.959 618.107 396.732 622.4 407.559 624.64C418.759 626.88 432.199 628 447.879 628C460.945 628 473.825 627.253 486.519 625.76C499.212 623.893 512.465 619.973 526.279 614L537.479 619.6V676.72C527.025 680.827 515.079 684.187 501.639 686.8C488.199 689.413 471.025 690.72 450.119 690.72C428.092 690.72 407.185 688.667 387.399 684.56C367.985 680.453 350.625 673.173 335.319 662.72C320.385 651.893 308.439 636.773 299.479 617.36C290.892 597.573 286.599 572.373 286.599 541.76ZM807.574 684L813.174 639.2V505.36C813.174 487.44 807.387 474.373 795.814 466.16C784.24 457.947 769.307 453.84 751.014 453.84C734.587 453.84 719.84 456.453 706.774 461.68C694.08 466.533 683.254 472.32 674.294 479.04C665.334 485.387 658.427 490.8 653.574 495.28V462.24L726.374 397.84C737.2 395.6 746.534 394.107 754.374 393.36C762.214 392.24 769.68 391.68 776.774 391.68C804.774 391.68 826.8 396.533 842.854 406.24C859.28 415.947 870.854 429.387 877.574 446.56C884.667 463.733 888.214 483.333 888.214 505.36V639.2L893.814 684H807.574ZM618.294 684L623.894 639.2V321.12L618.294 276.32H704.534L698.934 321.12V639.2L704.534 684H618.294Z" fill="#3C4043"/>
<path d="M1016.1 544.56C1016.1 509.093 1022.26 480.533 1034.58 458.88C1046.9 437.227 1063.33 421.547 1083.86 411.84C1104.77 402.133 1128.1 397.28 1153.86 397.28C1183.35 397.28 1207.62 402.88 1226.66 414.08C1245.7 424.907 1259.7 440.027 1268.66 459.44C1277.99 478.48 1282.66 500.507 1282.66 525.52C1282.66 533.36 1282.29 541.573 1281.54 550.16C1280.79 558.747 1279.86 566.587 1278.74 573.68H1068.74V542.88L1119.14 523.84H1210.98C1210.98 508.907 1208.93 496.773 1204.82 487.44C1200.71 477.733 1193.99 470.64 1184.66 466.16C1175.7 461.307 1163.94 458.88 1149.38 458.88C1136.31 458.88 1125.49 461.12 1116.9 465.6C1108.69 470.08 1102.53 478.293 1098.42 490.24C1094.31 502.187 1092.26 519.173 1092.26 541.2C1092.26 560.24 1093.75 575.547 1096.74 587.12C1100.1 598.693 1105.33 607.467 1112.42 613.44C1119.89 619.04 1129.59 622.96 1141.54 625.2C1153.86 627.067 1168.98 628 1186.9 628C1201.09 628 1213.78 627.44 1224.98 626.32C1236.55 624.827 1249.81 622.213 1264.74 618.48L1266.98 619.6V676.72C1256.53 680.827 1244.39 684.187 1230.58 686.8C1216.77 689.413 1199.78 690.72 1179.62 690.72C1157.97 690.72 1137.25 688.667 1117.46 684.56C1097.67 680.453 1080.13 673.173 1064.82 662.72C1049.89 651.893 1037.94 636.96 1028.98 617.92C1020.39 598.88 1016.1 574.427 1016.1 544.56ZM1542.67 684V639.2V510.96C1542.67 493.04 1537.63 479.973 1527.55 471.76C1517.47 463.547 1502.54 459.44 1482.75 459.44C1465.58 459.44 1450.27 462.053 1436.83 467.28C1423.77 472.133 1412.75 477.92 1403.79 484.64C1394.83 490.987 1387.93 496.4 1383.07 500.88V462.24L1455.87 403.44C1466.7 401.2 1476.59 399.707 1485.55 398.96C1494.89 397.84 1503.29 397.28 1510.75 397.28C1537.26 397.28 1558.35 402.133 1574.03 411.84C1589.71 421.547 1600.91 434.987 1607.63 452.16C1614.35 469.333 1617.71 488.933 1617.71 510.96V639.2V684H1542.67ZM1353.39 684V639.2V321.12V276.32H1428.43V321.12V639.2V684H1353.39Z" fill="#3C4043"/>
</svg>
