<svg width="1920" height="1080" viewBox="0 0 1920 1080" fill="none" xmlns="http://www.w3.org/2000/svg">
<rect x="1216" y="813" width="218" height="50" rx="25" fill="#D2E3FC"/>
<rect x="1215" y="813" width="197" height="50" rx="25" fill="#1A73E8"/>
<rect x="486" y="813" width="218" height="50" rx="25" fill="#D2E3FC"/>
<rect x="486" y="813" width="50" height="50" rx="25" fill="#1A73E8"/>
<path d="M1036.62 599C1036.62 593.96 1036.62 588.92 1036.62 583.88C1036.62 578.84 1036.62 573.707 1036.62 568.48C1036.62 557.467 1036.62 546.36 1036.62 535.16C1036.62 523.96 1036.62 512.76 1036.62 501.56C1044.65 501.56 1052.67 501.56 1060.7 501.56C1068.91 501.56 1077.03 501.467 1085.06 501.28H1133.5C1133.5 517.52 1133.5 533.853 1133.5 550.28C1133.5 566.52 1133.5 582.76 1133.5 599H1036.62ZM1036.62 501.28V425.4H1133.5V480.84C1133.5 480.84 1133.41 480.933 1133.22 481.12C1117.17 484.48 1101.02 487.84 1084.78 491.2C1068.73 494.56 1052.67 497.92 1036.62 501.28ZM1267.83 417C1289.48 417 1308.99 419.987 1326.35 425.96C1343.71 431.933 1357.89 440.893 1368.91 452.84C1380.11 464.787 1387.11 479.347 1389.91 496.52L1300.03 512.48C1300.03 505.387 1296.85 500.067 1290.51 496.52C1284.35 492.973 1276.79 491.2 1267.83 491.2C1261.67 491.2 1256.16 492.04 1251.31 493.72C1246.45 495.213 1242.63 497.547 1239.83 500.72C1237.03 503.893 1235.63 507.72 1235.63 512.2C1235.63 516.68 1237.03 520.507 1239.83 523.68C1242.63 526.853 1246.45 529.28 1251.31 530.96C1256.16 532.453 1261.67 533.2 1267.83 533.2C1276.6 533.2 1284.16 531.52 1290.51 528.16C1296.85 524.8 1300.03 519.573 1300.03 512.48L1345.11 518.36L1390.19 524.24C1387.95 541.973 1381.32 557.093 1370.31 569.6C1359.29 582.107 1344.92 591.533 1327.19 597.88C1309.64 604.227 1289.85 607.4 1267.83 607.4C1243.93 607.4 1222.47 603.853 1203.43 596.76C1184.39 589.48 1169.36 578.747 1158.35 564.56C1147.33 550.187 1141.83 532.733 1141.83 512.2C1141.83 485.88 1150.69 464.787 1168.43 448.92C1186.35 432.867 1209.96 422.88 1239.27 418.96C1247.85 417.653 1257.37 417 1267.83 417ZM1523.23 535.72C1533.12 535.72 1540.68 533.947 1545.91 530.4C1551.32 526.853 1554.22 522 1554.59 515.84L1641.11 544.12C1637.94 555.693 1630.38 566.333 1618.43 576.04C1606.67 585.747 1592.2 593.4 1575.03 599C1558.04 604.6 1540.59 607.4 1522.67 607.4C1498.78 607.4 1477.31 603.853 1458.27 596.76C1439.23 589.48 1424.2 578.747 1413.19 564.56C1402.18 550.187 1396.67 532.733 1396.67 512.2C1396.67 491.667 1402.18 474.307 1413.19 460.12C1424.39 445.747 1439.51 435.013 1458.55 427.92C1477.59 420.64 1498.96 417 1522.67 417C1546.94 417 1568.12 420.64 1586.23 427.92C1604.34 435.013 1618.43 445.933 1628.51 460.68C1638.59 475.427 1643.63 493.813 1643.63 515.84H1491.03C1490.84 515.84 1490.75 515.84 1490.75 515.84C1490.75 515.84 1490.75 515.933 1490.75 516.12C1490.94 520.04 1492.24 523.493 1494.67 526.48C1497.28 529.28 1501.02 531.52 1505.87 533.2C1510.72 534.88 1516.51 535.72 1523.23 535.72ZM1522.67 487.84C1513.15 487.84 1505.5 489.613 1499.71 493.16C1493.92 496.52 1491.03 501.187 1491.03 507.16C1491.03 507.347 1491.03 507.533 1491.03 507.72C1491.22 507.72 1491.31 507.72 1491.31 507.72H1553.75C1553.94 507.72 1554.03 507.72 1554.03 507.72C1554.03 507.533 1554.03 507.347 1554.03 507.16C1554.03 501.187 1551.14 496.52 1545.35 493.16C1539.56 489.613 1532 487.84 1522.67 487.84Z" fill="#D2E3FC"/>
<path d="M293.62 599C293.62 593.96 293.62 588.92 293.62 583.88C293.62 578.84 293.62 573.707 293.62 568.48C293.62 557.467 293.62 546.36 293.62 535.16C293.62 523.96 293.62 512.76 293.62 501.56C301.646 501.56 309.673 501.56 317.7 501.56C325.913 501.56 334.033 501.467 342.06 501.28H390.5C390.5 517.52 390.5 533.853 390.5 550.28C390.5 566.52 390.5 582.76 390.5 599H293.62ZM293.62 501.28V425.4H390.5V480.84C390.5 480.84 390.406 480.933 390.22 481.12C374.166 484.48 358.02 487.84 341.78 491.2C325.726 494.56 309.673 497.92 293.62 501.28ZM524.827 417C546.481 417 565.987 419.987 583.347 425.96C600.707 431.933 614.894 440.893 625.907 452.84C637.107 464.787 644.107 479.347 646.907 496.52L557.027 512.48C557.027 505.387 553.854 500.067 547.507 496.52C541.347 492.973 533.787 491.2 524.827 491.2C518.667 491.2 513.161 492.04 508.307 493.72C503.454 495.213 499.627 497.547 496.827 500.72C494.027 503.893 492.627 507.72 492.627 512.2C492.627 516.68 494.027 520.507 496.827 523.68C499.627 526.853 503.454 529.28 508.307 530.96C513.161 532.453 518.667 533.2 524.827 533.2C533.601 533.2 541.161 531.52 547.507 528.16C553.854 524.8 557.027 519.573 557.027 512.48L602.107 518.36L647.187 524.24C644.947 541.973 638.321 557.093 627.307 569.6C616.294 582.107 601.921 591.533 584.187 597.88C566.641 604.227 546.854 607.4 524.827 607.4C500.934 607.4 479.467 603.853 460.427 596.76C441.387 589.48 426.361 578.747 415.347 564.56C404.334 550.187 398.827 532.733 398.827 512.2C398.827 485.88 407.694 464.787 425.427 448.92C443.347 432.867 466.961 422.88 496.267 418.96C504.854 417.653 514.374 417 524.827 417ZM780.231 535.72C790.124 535.72 797.684 533.947 802.911 530.4C808.324 526.853 811.218 522 811.591 515.84L898.111 544.12C894.938 555.693 887.378 566.333 875.431 576.04C863.671 585.747 849.204 593.4 832.031 599C815.044 604.6 797.591 607.4 779.671 607.4C755.778 607.4 734.311 603.853 715.271 596.76C696.231 589.48 681.204 578.747 670.191 564.56C659.178 550.187 653.671 532.733 653.671 512.2C653.671 491.667 659.178 474.307 670.191 460.12C681.391 445.747 696.511 435.013 715.551 427.92C734.591 420.64 755.964 417 779.671 417C803.938 417 825.124 420.64 843.231 427.92C861.338 435.013 875.431 445.933 885.511 460.68C895.591 475.427 900.631 493.813 900.631 515.84H748.031C747.844 515.84 747.751 515.84 747.751 515.84C747.751 515.84 747.751 515.933 747.751 516.12C747.938 520.04 749.244 523.493 751.671 526.48C754.284 529.28 758.018 531.52 762.871 533.2C767.724 534.88 773.511 535.72 780.231 535.72ZM779.671 487.84C770.151 487.84 762.498 489.613 756.711 493.16C750.924 496.52 748.031 501.187 748.031 507.16C748.031 507.347 748.031 507.533 748.031 507.72C748.218 507.72 748.311 507.72 748.311 507.72H810.751C810.938 507.72 811.031 507.72 811.031 507.72C811.031 507.533 811.031 507.347 811.031 507.16C811.031 501.187 808.138 496.52 802.351 493.16C796.564 489.613 789.004 487.84 779.671 487.84Z" fill="#3C4043"/>
<path d="M1044.31 566.8C1044.49 565.307 1044.96 563.253 1045.71 560.64C1046.45 557.84 1047.29 555.04 1048.23 552.24C1051.21 543.467 1053.27 535.907 1054.39 529.56C1055.69 523.027 1055.13 517.8 1052.71 513.88C1053.45 513.88 1054.57 513.88 1056.07 513.88C1057.75 513.88 1059.61 513.88 1061.67 513.88H1070.63C1070.63 528.627 1071.56 540.573 1073.43 549.72C1075.29 558.867 1079.12 564.56 1084.91 566.8H1044.31ZM1045.71 470.76V444.72H1078.19V451.16C1078.19 453.773 1076.97 455.827 1074.55 457.32C1072.12 458.813 1068.11 460.587 1062.51 462.64L1059.99 463.48C1055.88 464.973 1052.99 466.187 1051.31 467.12C1049.81 467.867 1047.95 469.08 1045.71 470.76ZM1223.25 458.16C1239.49 445.28 1255.45 438.747 1271.13 438.56C1287 438.373 1300.44 441.827 1311.45 448.92C1322.65 456.013 1329.37 463.013 1331.61 469.92L1304.45 475.24C1298.66 467.96 1291.29 462.64 1282.33 459.28C1273.56 455.92 1263.48 454.24 1252.09 454.24C1243.32 454.24 1234.45 456.48 1225.49 460.96C1216.72 465.44 1209.44 471.413 1203.65 478.88C1197.86 486.16 1194.97 494 1194.97 502.4C1194.97 515.84 1198.61 527.133 1205.89 536.28C1213.36 545.427 1222.6 552.24 1233.61 556.72C1244.81 561.013 1255.82 563.16 1266.65 563.16C1271.32 563.16 1276.82 562.32 1283.17 560.64C1289.7 558.773 1297.08 555.507 1305.29 550.84L1305.57 551.12L1305.85 551.68C1299.13 555.6 1293.16 558.68 1287.93 560.92C1282.89 562.973 1276.36 564.653 1268.33 565.96C1260.3 567.267 1250.04 567.92 1237.53 567.92C1216.06 567.92 1196.74 563.16 1179.57 553.64C1162.58 543.933 1152.88 533.013 1150.45 520.88C1148.02 508.747 1155.49 499.133 1172.85 492.04C1180.69 488.867 1187.13 485.6 1192.17 482.24C1197.21 478.88 1204.4 473.373 1213.73 465.72C1221.2 459.747 1224.37 457.227 1223.25 458.16ZM1495.28 573.8C1506.29 573.8 1516.19 572.213 1524.96 569.04C1533.73 565.68 1541.67 561.667 1548.76 557L1549.32 558.12C1545.4 560.733 1541.01 563.253 1536.16 565.68C1531.31 568.107 1525.24 570.347 1517.96 572.4C1510.87 574.267 1503.12 575.2 1494.72 575.2C1478.85 575.2 1464.48 571.373 1451.6 563.72C1438.91 555.88 1428.17 546.08 1419.4 534.32C1410.63 522.56 1404 510.333 1399.52 497.64C1395.6 486.627 1397.65 477.48 1405.68 470.2C1413.89 462.92 1425.65 457.6 1440.96 454.24C1456.27 450.88 1472.88 449.2 1490.8 449.2C1512.64 449.2 1530.47 452.747 1544.28 459.84C1558.09 466.747 1568.08 475.053 1574.24 484.76C1580.59 494.28 1583.95 503.333 1584.32 511.92H1472.32C1460.56 511.92 1453 514.253 1449.64 518.92C1446.47 523.4 1444.97 528.44 1445.16 534.04C1445.53 541.507 1448.43 548.32 1453.84 554.48C1459.25 560.453 1465.79 565.213 1473.44 568.76C1481.28 572.12 1488.56 573.8 1495.28 573.8ZM1486.32 450.6C1470.45 450.6 1458.13 453.773 1449.36 460.12C1440.77 466.467 1436.76 475.613 1437.32 487.56C1437.69 494.093 1440.31 499.227 1445.16 502.96C1450.01 506.507 1455.05 508.933 1460.28 510.24C1465.51 511.36 1469.61 511.92 1472.6 511.92H1535.04C1537.09 511.92 1539.24 509.96 1541.48 506.04C1543.72 501.933 1544.75 497.64 1544.56 493.16C1544.19 483.64 1540.17 474.213 1532.52 464.88C1524.87 455.36 1509.47 450.6 1486.32 450.6Z" fill="#3C4043"/>
</svg>
