<svg width="1920" height="1080" fill="none" xmlns="http://www.w3.org/2000/svg"><g clip-path="url(#a)"><path fill="#D2E3FC" d="M50 628h1820v10H50zM50 483h1820v10H50zM50 434h1820v10H50z"/><path fill="#1A73E8" d="M50 419h1820v10H50zM50 696h1820v10H50z"/><path d="M246.28 705.64v-9.152h5.148c4.958 0 8.962-.477 12.012-1.43 3.242-.763 5.625-2.669 7.15-5.72 1.526-3.051 2.288-7.817 2.288-14.3V513.162c0-9.152-1.716-14.777-5.148-16.874-3.432-2.288-9.247-3.432-17.446-3.432h-7.722v-9.152h46.046l2.002 27.456h1.144c3.814-8.771 9.248-16.016 16.302-21.736 7.246-5.72 16.779-8.58 28.6-8.58 19.067 0 33.272 6.292 42.614 18.876 9.534 12.584 14.3 32.318 14.3 59.202 0 27.837-4.957 48.334-14.872 61.49-9.914 12.965-23.833 19.448-41.756 19.448-11.63 0-21.164-2.574-28.6-7.722-7.436-5.339-13.156-12.584-17.16-21.736h-.858c.191 4.004.382 8.961.572 14.872.191 5.911.286 12.203.286 18.876v31.746c0 9.343 1.716 15.063 5.148 17.16 3.623 2.288 9.152 3.432 16.588 3.432h5.72v9.152H246.28Zm88.374-78.936c13.538 0 23.643-5.815 30.316-17.446 6.674-11.631 10.01-28.219 10.01-49.764 0-21.736-3.146-38.038-9.438-48.906-6.101-11.059-16.588-16.588-31.46-16.588-16.016 0-27.17 5.72-33.462 17.16-6.292 11.44-9.438 27.265-9.438 47.476 0 21.355 3.146 38.038 9.438 50.05 6.483 12.012 17.828 18.018 34.034 18.018ZM422.086 637v-9.152h3.432c4.957 0 8.961-.381 12.012-1.144 3.241-.953 5.624-2.955 7.15-6.006 1.525-3.051 2.288-7.817 2.288-14.3v-93.236c0-9.152-1.812-14.777-5.434-16.874-3.432-2.288-9.248-3.432-17.446-3.432h-2.574v-9.152h39.468l3.146 30.03h1.144c2.288-5.72 4.957-11.059 8.008-16.016 3.241-4.957 7.34-8.961 12.298-12.012 4.957-3.051 11.344-4.576 19.162-4.576 8.961 0 15.825 1.907 20.592 5.72 4.766 3.623 7.15 8.485 7.15 14.586 0 4.385-1.335 8.008-4.004 10.868-2.67 2.86-7.055 4.29-13.156 4.29 0-8.008-1.43-13.633-4.29-16.874-2.67-3.432-6.96-5.148-12.87-5.148-5.53 0-10.392 2.002-14.586 6.006-4.004 4.004-7.436 9.247-10.296 15.73-2.67 6.292-4.672 13.156-6.006 20.592-1.335 7.436-2.002 14.681-2.002 21.736v48.62c0 9.343 1.716 15.158 5.148 17.446 3.622 2.097 9.056 3.146 16.302 3.146h8.866V637h-73.502Zm194.024 2.86c-19.258 0-34.416-6.483-45.474-19.448-11.059-13.156-16.588-33.176-16.588-60.06 0-26.693 5.243-46.523 15.73-59.488 10.677-12.965 26.502-19.448 47.476-19.448 19.448 0 34.606 6.387 45.474 19.162 10.868 12.775 16.302 32.699 16.302 59.774 0 26.884-5.339 46.904-16.016 60.06-10.678 12.965-26.312 19.448-46.904 19.448Zm.286-11.44c16.206 0 27.551-5.911 34.034-17.732 6.482-12.012 9.724-28.791 9.724-50.336 0-22.689-3.432-39.563-10.296-50.622-6.674-11.249-17.637-16.874-32.89-16.874-16.016 0-27.456 5.625-34.32 16.874-6.674 11.249-10.01 28.123-10.01 50.622 0 21.927 3.432 38.801 10.296 50.622 6.864 11.631 18.018 17.446 33.462 17.446Zm146.336 77.22c-18.876 0-33.081-3.909-42.614-11.726-9.534-7.627-14.3-18.209-14.3-31.746 0-7.627 1.62-14.109 4.862-19.448 3.432-5.339 7.817-9.629 13.156-12.87 5.338-3.241 10.963-5.339 16.874-6.292-4.004-1.525-7.627-4.004-10.868-7.436-3.051-3.623-4.576-8.389-4.576-14.3 0-5.72 1.62-10.677 4.862-14.872 3.241-4.385 7.15-8.008 11.726-10.868-8.199-3.813-14.3-9.724-18.304-17.732-4.004-8.199-6.006-16.874-6.006-26.026 0-15.253 4.29-27.551 12.87-36.894 8.58-9.343 21.164-14.014 37.752-14.014 6.864 0 13.156 1.049 18.876 3.146 5.72 1.907 10.105 4.29 13.156 7.15 2.478-3.051 6.006-6.387 10.582-10.01 4.576-3.623 9.819-5.434 15.73-5.434 5.338 0 9.247 1.335 11.726 4.004 2.478 2.669 3.718 5.911 3.718 9.724 0 3.623-.954 6.673-2.86 9.152-1.716 2.479-4.481 3.718-8.294 3.718 0-3.623-.668-6.578-2.002-8.866-1.144-2.288-3.337-3.432-6.578-3.432-3.242 0-6.102.763-8.58 2.288-2.288 1.335-4.767 3.146-7.436 5.434 3.05 3.813 5.529 8.58 7.436 14.3 2.097 5.72 3.146 12.489 3.146 20.306 0 14.3-4.1 26.026-12.298 35.178-8.008 8.961-20.116 13.442-36.322 13.442-2.288 0-5.244-.191-8.866-.572-3.432-.381-6.006-.858-7.722-1.43a32.244 32.244 0 0 0-8.866 8.008c-2.479 3.241-3.718 7.341-3.718 12.298 0 4.576 1.811 7.913 5.434 10.01 3.813 1.907 9.533 2.86 17.16 2.86h26.598c15.444 0 26.693 3.718 33.748 11.154 7.245 7.245 10.868 17.16 10.868 29.744 0 15.825-5.816 28.409-17.446 37.752-11.44 9.533-28.982 14.3-52.624 14.3Zm4.576-134.706c10.486 0 18.304-2.955 23.452-8.866 5.148-5.911 7.722-15.73 7.722-29.458 0-13.919-2.574-24.119-7.722-30.602-5.148-6.483-12.966-9.724-23.452-9.724-10.106 0-17.923 3.337-23.452 10.01-5.339 6.483-8.008 16.683-8.008 30.602 0 13.156 2.764 22.785 8.294 28.886 5.529 6.101 13.251 9.152 23.166 9.152Zm-3.718 123.838c19.257 0 32.794-3.432 40.612-10.296 8.008-6.864 12.012-16.207 12.012-28.028 0-10.296-2.67-17.255-8.008-20.878-5.339-3.813-13.061-5.72-23.166-5.72h-27.17c-6.483 0-12.489.953-18.018 2.86-5.339 1.907-9.629 5.148-12.87 9.724-3.242 4.576-4.862 10.868-4.862 18.876 0 6.101 1.239 11.631 3.718 16.588 2.478 5.148 6.673 9.247 12.584 12.298 6.101 3.051 14.49 4.576 25.168 4.576ZM857.509 637v-9.152h3.432c4.958 0 8.962-.381 12.012-1.144 3.242-.953 5.625-2.955 7.15-6.006 1.526-3.051 2.288-7.817 2.288-14.3v-93.236c0-9.152-1.811-14.777-5.434-16.874-3.432-2.288-9.247-3.432-17.446-3.432h-2.574v-9.152h39.468l3.146 30.03h1.144c2.288-5.72 4.958-11.059 8.008-16.016 3.242-4.957 7.341-8.961 12.298-12.012 4.958-3.051 11.345-4.576 19.162-4.576 8.962 0 15.826 1.907 20.592 5.72 4.767 3.623 7.15 8.485 7.15 14.586 0 4.385-1.334 8.008-4.004 10.868-2.669 2.86-7.054 4.29-13.156 4.29 0-8.008-1.43-13.633-4.29-16.874-2.669-3.432-6.959-5.148-12.87-5.148-5.529 0-10.391 2.002-14.586 6.006-4.004 4.004-7.436 9.247-10.296 15.73-2.669 6.292-4.671 13.156-6.006 20.592-1.334 7.436-2.002 14.681-2.002 21.736v48.62c0 9.343 1.716 15.158 5.148 17.446 3.623 2.097 9.057 3.146 16.302 3.146h8.866V637h-73.502Zm194.021 2.86c-19.25 0-34.51-6.769-45.76-20.306-11.055-13.728-16.584-32.985-16.584-57.772 0-26.884 5.148-46.999 15.444-60.346 10.49-13.347 25.26-20.02 44.33-20.02 17.16 0 30.7 6.006 40.61 18.018 9.92 12.012 14.87 29.363 14.87 52.052v8.866h-96.38c.19 22.689 4.29 39.468 12.3 50.336 8.2 10.677 19.45 16.016 33.75 16.016 10.29 0 18.78-2.193 25.45-6.578 6.87-4.385 12.01-9.629 15.45-15.73 1.14.572 2.09 1.525 2.86 2.86.76 1.335 1.14 2.955 1.14 4.862 0 3.432-1.72 7.341-5.15 11.726-3.43 4.385-8.67 8.199-15.73 11.44-7.05 3.051-15.92 4.576-26.6 4.576Zm33.47-90.948c0-16.779-2.96-30.221-8.87-40.326-5.72-10.296-14.97-15.444-27.74-15.444-12.97 0-22.6 4.957-28.89 14.872-6.29 9.724-9.91 23.357-10.87 40.898H1085Zm93.71 90.948c-15.06 0-26.22-2.955-33.46-8.866-7.06-5.911-10.58-13.061-10.58-21.45 0-5.911 1.33-10.01 4-12.298 2.86-2.479 5.72-3.718 8.58-3.718 0 10.296 2.29 18.781 6.86 25.454 4.58 6.673 13.06 10.01 25.46 10.01 10.68 0 18.78-2.765 24.31-8.294 5.72-5.72 8.58-12.679 8.58-20.878 0-4.767-.86-8.771-2.58-12.012-1.71-3.432-4.86-6.673-9.43-9.724-4.58-3.241-11.16-6.864-19.74-10.868-10.48-5.148-18.97-9.915-25.45-14.3-6.29-4.385-10.87-9.152-13.73-14.3-2.86-5.339-4.29-11.821-4.29-19.448 0-11.821 4.29-21.069 12.87-27.742 8.58-6.673 20.02-10.01 34.32-10.01 13.35 0 23.17 2.86 29.46 8.58 6.29 5.529 9.44 11.726 9.44 18.59 0 4.385-1.24 7.913-3.72 10.582-2.29 2.669-5.72 4.004-10.3 4.004 0-10.868-2.29-18.781-6.86-23.738-4.58-4.957-11.35-7.436-20.31-7.436-9.91 0-17.16 2.383-21.73 7.15-4.58 4.576-6.87 10.487-6.87 17.732 0 8.008 2.86 14.395 8.58 19.162 5.91 4.767 14.97 9.915 27.17 15.444 9.92 4.576 17.73 9.057 23.45 13.442 5.72 4.195 9.73 8.866 12.02 14.014 2.47 5.148 3.71 11.154 3.71 18.018 0 13.537-4.57 24.119-13.72 31.746-9.16 7.436-21.17 11.154-36.04 11.154Zm122.89 0c-15.06 0-26.22-2.955-33.46-8.866-7.06-5.911-10.58-13.061-10.58-21.45 0-5.911 1.33-10.01 4-12.298 2.86-2.479 5.72-3.718 8.58-3.718 0 10.296 2.29 18.781 6.86 25.454 4.58 6.673 13.06 10.01 25.46 10.01 10.68 0 18.78-2.765 24.31-8.294 5.72-5.72 8.58-12.679 8.58-20.878 0-4.767-.86-8.771-2.58-12.012-1.71-3.432-4.86-6.673-9.43-9.724-4.58-3.241-11.16-6.864-19.74-10.868-10.48-5.148-18.97-9.915-25.45-14.3-6.29-4.385-10.87-9.152-13.73-14.3-2.86-5.339-4.29-11.821-4.29-19.448 0-11.821 4.29-21.069 12.87-27.742 8.58-6.673 20.02-10.01 34.32-10.01 13.35 0 23.17 2.86 29.46 8.58 6.29 5.529 9.44 11.726 9.44 18.59 0 4.385-1.24 7.913-3.72 10.582-2.29 2.669-5.72 4.004-10.3 4.004 0-10.868-2.29-18.781-6.86-23.738-4.58-4.957-11.35-7.436-20.31-7.436-9.91 0-17.16 2.383-21.73 7.15-4.58 4.576-6.87 10.487-6.87 17.732 0 8.008 2.86 14.395 8.58 19.162 5.91 4.767 14.97 9.915 27.17 15.444 9.92 4.576 17.73 9.057 23.45 13.442 5.72 4.195 9.73 8.866 12.02 14.014 2.47 5.148 3.71 11.154 3.71 18.018 0 13.537-4.57 24.119-13.72 31.746-9.16 7.436-21.17 11.154-36.04 11.154Zm142.62 0c-19.25 0-34.51-6.769-45.76-20.306-11.05-13.728-16.58-32.985-16.58-57.772 0-26.884 5.14-46.999 15.44-60.346 10.49-13.347 25.26-20.02 44.33-20.02 17.16 0 30.7 6.006 40.61 18.018 9.92 12.012 14.87 29.363 14.87 52.052v8.866h-96.38c.19 22.689 4.29 39.468 12.3 50.336 8.2 10.677 19.45 16.016 33.75 16.016 10.29 0 18.78-2.193 25.45-6.578 6.87-4.385 12.01-9.629 15.45-15.73 1.14.572 2.09 1.525 2.86 2.86.76 1.335 1.14 2.955 1.14 4.862 0 3.432-1.72 7.341-5.15 11.726-3.43 4.385-8.67 8.199-15.73 11.44-7.05 3.051-15.92 4.576-26.6 4.576Zm33.47-90.948c0-16.779-2.96-30.221-8.87-40.326-5.72-10.296-14.97-15.444-27.74-15.444-12.97 0-22.6 4.957-28.89 14.872-6.29 9.724-9.91 23.357-10.87 40.898h76.37Zm108.87 90.948c-18.3 0-32.51-6.483-42.61-19.448-9.92-13.156-14.88-33.081-14.88-59.774 0-53.005 18.88-79.508 56.63-79.508 11.63 0 21.26 2.479 28.89 7.436 7.62 4.957 13.44 11.535 17.44 19.734h1.43c-.38-4.957-.66-10.201-.85-15.73-.2-5.529-.29-10.487-.29-14.872V449.67c0-9.533-1.81-15.349-5.43-17.446-3.44-2.288-8.78-3.432-16.02-3.432h-4.58v-9.152h44.33v187.902c0 9.152 1.72 14.872 5.15 17.16 3.62 2.097 9.53 3.146 17.73 3.146h3.15V637h-41.47l-2.29-28.6h-.86c-4.19 9.343-9.82 16.969-16.87 22.88-7.06 5.72-16.59 8.58-28.6 8.58Zm2-13.156c15.83-.191 27.08-5.911 33.75-17.16 6.86-11.249 10.3-27.456 10.3-48.62 0-21.736-3.15-38.229-9.44-49.478-6.29-11.249-17.83-16.874-34.61-16.874-14.49 0-24.88 5.72-31.17 17.16-6.29 11.44-9.44 27.933-9.44 49.478s3.43 37.943 10.3 49.192c7.05 11.059 17.16 16.493 30.31 16.302Z" fill="#3C4043"/><mask id="b" style="mask-type:alpha" maskUnits="userSpaceOnUse" x="244" y="407" width="1413" height="306"><path fill-rule="evenodd" clip-rule="evenodd" d="M1657 407h-52v76h52v-76ZM244 638h77v75h-77v-75Zm460 0h134v75H704v-75Z" fill="#C4C4C4"/></mask><g mask="url(#b)"><path d="M246.28 705.64v-9.152h5.148c4.958 0 8.962-.477 12.012-1.43 3.242-.763 5.625-2.669 7.15-5.72 1.526-3.051 2.288-7.817 2.288-14.3V513.162c0-9.152-1.716-14.777-5.148-16.874-3.432-2.288-9.247-3.432-17.446-3.432h-7.722v-9.152h46.046l2.002 27.456h1.144c3.814-8.771 9.248-16.016 16.302-21.736 7.246-5.72 16.779-8.58 28.6-8.58 19.067 0 33.272 6.292 42.614 18.876 9.534 12.584 14.3 32.318 14.3 59.202 0 27.837-4.957 48.334-14.872 61.49-9.914 12.965-23.833 19.448-41.756 19.448-11.63 0-21.164-2.574-28.6-7.722-7.436-5.339-13.156-12.584-17.16-21.736h-.858c.191 4.004.382 8.961.572 14.872.191 5.911.286 12.203.286 18.876v31.746c0 9.343 1.716 15.063 5.148 17.16 3.623 2.288 9.152 3.432 16.588 3.432h5.72v9.152H246.28Zm88.374-78.936c13.538 0 23.643-5.815 30.316-17.446 6.674-11.631 10.01-28.219 10.01-49.764 0-21.736-3.146-38.038-9.438-48.906-6.101-11.059-16.588-16.588-31.46-16.588-16.016 0-27.17 5.72-33.462 17.16-6.292 11.44-9.438 27.265-9.438 47.476 0 21.355 3.146 38.038 9.438 50.05 6.483 12.012 17.828 18.018 34.034 18.018ZM422.086 637v-9.152h3.432c4.957 0 8.961-.381 12.012-1.144 3.241-.953 5.624-2.955 7.15-6.006 1.525-3.051 2.288-7.817 2.288-14.3v-93.236c0-9.152-1.812-14.777-5.434-16.874-3.432-2.288-9.248-3.432-17.446-3.432h-2.574v-9.152h39.468l3.146 30.03h1.144c2.288-5.72 4.957-11.059 8.008-16.016 3.241-4.957 7.34-8.961 12.298-12.012 4.957-3.051 11.344-4.576 19.162-4.576 8.961 0 15.825 1.907 20.592 5.72 4.766 3.623 7.15 8.485 7.15 14.586 0 4.385-1.335 8.008-4.004 10.868-2.67 2.86-7.055 4.29-13.156 4.29 0-8.008-1.43-13.633-4.29-16.874-2.67-3.432-6.96-5.148-12.87-5.148-5.53 0-10.392 2.002-14.586 6.006-4.004 4.004-7.436 9.247-10.296 15.73-2.67 6.292-4.672 13.156-6.006 20.592-1.335 7.436-2.002 14.681-2.002 21.736v48.62c0 9.343 1.716 15.158 5.148 17.446 3.622 2.097 9.056 3.146 16.302 3.146h8.866V637h-73.502Zm194.024 2.86c-19.258 0-34.416-6.483-45.474-19.448-11.059-13.156-16.588-33.176-16.588-60.06 0-26.693 5.243-46.523 15.73-59.488 10.677-12.965 26.502-19.448 47.476-19.448 19.448 0 34.606 6.387 45.474 19.162 10.868 12.775 16.302 32.699 16.302 59.774 0 26.884-5.339 46.904-16.016 60.06-10.678 12.965-26.312 19.448-46.904 19.448Zm.286-11.44c16.206 0 27.551-5.911 34.034-17.732 6.482-12.012 9.724-28.791 9.724-50.336 0-22.689-3.432-39.563-10.296-50.622-6.674-11.249-17.637-16.874-32.89-16.874-16.016 0-27.456 5.625-34.32 16.874-6.674 11.249-10.01 28.123-10.01 50.622 0 21.927 3.432 38.801 10.296 50.622 6.864 11.631 18.018 17.446 33.462 17.446Zm146.336 77.22c-18.876 0-33.081-3.909-42.614-11.726-9.534-7.627-14.3-18.209-14.3-31.746 0-7.627 1.62-14.109 4.862-19.448 3.432-5.339 7.817-9.629 13.156-12.87 5.338-3.241 10.963-5.339 16.874-6.292-4.004-1.525-7.627-4.004-10.868-7.436-3.051-3.623-4.576-8.389-4.576-14.3 0-5.72 1.62-10.677 4.862-14.872 3.241-4.385 7.15-8.008 11.726-10.868-8.199-3.813-14.3-9.724-18.304-17.732-4.004-8.199-6.006-16.874-6.006-26.026 0-15.253 4.29-27.551 12.87-36.894 8.58-9.343 21.164-14.014 37.752-14.014 6.864 0 13.156 1.049 18.876 3.146 5.72 1.907 10.105 4.29 13.156 7.15 2.478-3.051 6.006-6.387 10.582-10.01 4.576-3.623 9.819-5.434 15.73-5.434 5.338 0 9.247 1.335 11.726 4.004 2.478 2.669 3.718 5.911 3.718 9.724 0 3.623-.954 6.673-2.86 9.152-1.716 2.479-4.481 3.718-8.294 3.718 0-3.623-.668-6.578-2.002-8.866-1.144-2.288-3.337-3.432-6.578-3.432-3.242 0-6.102.763-8.58 2.288-2.288 1.335-4.767 3.146-7.436 5.434 3.05 3.813 5.529 8.58 7.436 14.3 2.097 5.72 3.146 12.489 3.146 20.306 0 14.3-4.1 26.026-12.298 35.178-8.008 8.961-20.116 13.442-36.322 13.442-2.288 0-5.244-.191-8.866-.572-3.432-.381-6.006-.858-7.722-1.43a32.244 32.244 0 0 0-8.866 8.008c-2.479 3.241-3.718 7.341-3.718 12.298 0 4.576 1.811 7.913 5.434 10.01 3.813 1.907 9.533 2.86 17.16 2.86h26.598c15.444 0 26.693 3.718 33.748 11.154 7.245 7.245 10.868 17.16 10.868 29.744 0 15.825-5.816 28.409-17.446 37.752-11.44 9.533-28.982 14.3-52.624 14.3Zm4.576-134.706c10.486 0 18.304-2.955 23.452-8.866 5.148-5.911 7.722-15.73 7.722-29.458 0-13.919-2.574-24.119-7.722-30.602-5.148-6.483-12.966-9.724-23.452-9.724-10.106 0-17.923 3.337-23.452 10.01-5.339 6.483-8.008 16.683-8.008 30.602 0 13.156 2.764 22.785 8.294 28.886 5.529 6.101 13.251 9.152 23.166 9.152Zm-3.718 123.838c19.257 0 32.794-3.432 40.612-10.296 8.008-6.864 12.012-16.207 12.012-28.028 0-10.296-2.67-17.255-8.008-20.878-5.339-3.813-13.061-5.72-23.166-5.72h-27.17c-6.483 0-12.489.953-18.018 2.86-5.339 1.907-9.629 5.148-12.87 9.724-3.242 4.576-4.862 10.868-4.862 18.876 0 6.101 1.239 11.631 3.718 16.588 2.478 5.148 6.673 9.247 12.584 12.298 6.101 3.051 14.49 4.576 25.168 4.576ZM857.509 637v-9.152h3.432c4.958 0 8.962-.381 12.012-1.144 3.242-.953 5.625-2.955 7.15-6.006 1.526-3.051 2.288-7.817 2.288-14.3v-93.236c0-9.152-1.811-14.777-5.434-16.874-3.432-2.288-9.247-3.432-17.446-3.432h-2.574v-9.152h39.468l3.146 30.03h1.144c2.288-5.72 4.958-11.059 8.008-16.016 3.242-4.957 7.341-8.961 12.298-12.012 4.958-3.051 11.345-4.576 19.162-4.576 8.962 0 15.826 1.907 20.592 5.72 4.767 3.623 7.15 8.485 7.15 14.586 0 4.385-1.334 8.008-4.004 10.868-2.669 2.86-7.054 4.29-13.156 4.29 0-8.008-1.43-13.633-4.29-16.874-2.669-3.432-6.959-5.148-12.87-5.148-5.529 0-10.391 2.002-14.586 6.006-4.004 4.004-7.436 9.247-10.296 15.73-2.669 6.292-4.671 13.156-6.006 20.592-1.334 7.436-2.002 14.681-2.002 21.736v48.62c0 9.343 1.716 15.158 5.148 17.446 3.623 2.097 9.057 3.146 16.302 3.146h8.866V637h-73.502Zm194.021 2.86c-19.25 0-34.51-6.769-45.76-20.306-11.055-13.728-16.584-32.985-16.584-57.772 0-26.884 5.148-46.999 15.444-60.346 10.49-13.347 25.26-20.02 44.33-20.02 17.16 0 30.7 6.006 40.61 18.018 9.92 12.012 14.87 29.363 14.87 52.052v8.866h-96.38c.19 22.689 4.29 39.468 12.3 50.336 8.2 10.677 19.45 16.016 33.75 16.016 10.29 0 18.78-2.193 25.45-6.578 6.87-4.385 12.01-9.629 15.45-15.73 1.14.572 2.09 1.525 2.86 2.86.76 1.335 1.14 2.955 1.14 4.862 0 3.432-1.72 7.341-5.15 11.726-3.43 4.385-8.67 8.199-15.73 11.44-7.05 3.051-15.92 4.576-26.6 4.576Zm33.47-90.948c0-16.779-2.96-30.221-8.87-40.326-5.72-10.296-14.97-15.444-27.74-15.444-12.97 0-22.6 4.957-28.89 14.872-6.29 9.724-9.91 23.357-10.87 40.898H1085Zm93.71 90.948c-15.06 0-26.22-2.955-33.46-8.866-7.06-5.911-10.58-13.061-10.58-21.45 0-5.911 1.33-10.01 4-12.298 2.86-2.479 5.72-3.718 8.58-3.718 0 10.296 2.29 18.781 6.86 25.454 4.58 6.673 13.06 10.01 25.46 10.01 10.68 0 18.78-2.765 24.31-8.294 5.72-5.72 8.58-12.679 8.58-20.878 0-4.767-.86-8.771-2.58-12.012-1.71-3.432-4.86-6.673-9.43-9.724-4.58-3.241-11.16-6.864-19.74-10.868-10.48-5.148-18.97-9.915-25.45-14.3-6.29-4.385-10.87-9.152-13.73-14.3-2.86-5.339-4.29-11.821-4.29-19.448 0-11.821 4.29-21.069 12.87-27.742 8.58-6.673 20.02-10.01 34.32-10.01 13.35 0 23.17 2.86 29.46 8.58 6.29 5.529 9.44 11.726 9.44 18.59 0 4.385-1.24 7.913-3.72 10.582-2.29 2.669-5.72 4.004-10.3 4.004 0-10.868-2.29-18.781-6.86-23.738-4.58-4.957-11.35-7.436-20.31-7.436-9.91 0-17.16 2.383-21.73 7.15-4.58 4.576-6.87 10.487-6.87 17.732 0 8.008 2.86 14.395 8.58 19.162 5.91 4.767 14.97 9.915 27.17 15.444 9.92 4.576 17.73 9.057 23.45 13.442 5.72 4.195 9.73 8.866 12.02 14.014 2.47 5.148 3.71 11.154 3.71 18.018 0 13.537-4.57 24.119-13.72 31.746-9.16 7.436-21.17 11.154-36.04 11.154Zm122.89 0c-15.06 0-26.22-2.955-33.46-8.866-7.06-5.911-10.58-13.061-10.58-21.45 0-5.911 1.33-10.01 4-12.298 2.86-2.479 5.72-3.718 8.58-3.718 0 10.296 2.29 18.781 6.86 25.454 4.58 6.673 13.06 10.01 25.46 10.01 10.68 0 18.78-2.765 24.31-8.294 5.72-5.72 8.58-12.679 8.58-20.878 0-4.767-.86-8.771-2.58-12.012-1.71-3.432-4.86-6.673-9.43-9.724-4.58-3.241-11.16-6.864-19.74-10.868-10.48-5.148-18.97-9.915-25.45-14.3-6.29-4.385-10.87-9.152-13.73-14.3-2.86-5.339-4.29-11.821-4.29-19.448 0-11.821 4.29-21.069 12.87-27.742 8.58-6.673 20.02-10.01 34.32-10.01 13.35 0 23.17 2.86 29.46 8.58 6.29 5.529 9.44 11.726 9.44 18.59 0 4.385-1.24 7.913-3.72 10.582-2.29 2.669-5.72 4.004-10.3 4.004 0-10.868-2.29-18.781-6.86-23.738-4.58-4.957-11.35-7.436-20.31-7.436-9.91 0-17.16 2.383-21.73 7.15-4.58 4.576-6.87 10.487-6.87 17.732 0 8.008 2.86 14.395 8.58 19.162 5.91 4.767 14.97 9.915 27.17 15.444 9.92 4.576 17.73 9.057 23.45 13.442 5.72 4.195 9.73 8.866 12.02 14.014 2.47 5.148 3.71 11.154 3.71 18.018 0 13.537-4.57 24.119-13.72 31.746-9.16 7.436-21.17 11.154-36.04 11.154Zm142.62 0c-19.25 0-34.51-6.769-45.76-20.306-11.05-13.728-16.58-32.985-16.58-57.772 0-26.884 5.14-46.999 15.44-60.346 10.49-13.347 25.26-20.02 44.33-20.02 17.16 0 30.7 6.006 40.61 18.018 9.92 12.012 14.87 29.363 14.87 52.052v8.866h-96.38c.19 22.689 4.29 39.468 12.3 50.336 8.2 10.677 19.45 16.016 33.75 16.016 10.29 0 18.78-2.193 25.45-6.578 6.87-4.385 12.01-9.629 15.45-15.73 1.14.572 2.09 1.525 2.86 2.86.76 1.335 1.14 2.955 1.14 4.862 0 3.432-1.72 7.341-5.15 11.726-3.43 4.385-8.67 8.199-15.73 11.44-7.05 3.051-15.92 4.576-26.6 4.576Zm33.47-90.948c0-16.779-2.96-30.221-8.87-40.326-5.72-10.296-14.97-15.444-27.74-15.444-12.97 0-22.6 4.957-28.89 14.872-6.29 9.724-9.91 23.357-10.87 40.898h76.37Zm108.87 90.948c-18.3 0-32.51-6.483-42.61-19.448-9.92-13.156-14.88-33.081-14.88-59.774 0-53.005 18.88-79.508 56.63-79.508 11.63 0 21.26 2.479 28.89 7.436 7.62 4.957 13.44 11.535 17.44 19.734h1.43c-.38-4.957-.66-10.201-.85-15.73-.2-5.529-.29-10.487-.29-14.872V449.67c0-9.533-1.81-15.349-5.43-17.446-3.44-2.288-8.78-3.432-16.02-3.432h-4.58v-9.152h44.33v187.902c0 9.152 1.72 14.872 5.15 17.16 3.62 2.097 9.53 3.146 17.73 3.146h3.15V637h-41.47l-2.29-28.6h-.86c-4.19 9.343-9.82 16.969-16.87 22.88-7.06 5.72-16.59 8.58-28.6 8.58Zm2-13.156c15.83-.191 27.08-5.911 33.75-17.16 6.86-11.249 10.3-27.456 10.3-48.62 0-21.736-3.15-38.229-9.44-49.478-6.29-11.249-17.83-16.874-34.61-16.874-14.49 0-24.88 5.72-31.17 17.16-6.29 11.44-9.44 27.933-9.44 49.478s3.43 37.943 10.3 49.192c7.05 11.059 17.16 16.493 30.31 16.302Z" fill="#FF6D7F"/></g></g><defs><clipPath id="a"><path fill="#fff" d="M0 0h1920v1080H0z"/></clipPath></defs></svg>