<svg width="1920" height="1080" fill="none" xmlns="http://www.w3.org/2000/svg"><g clip-path="url(#a)"><ellipse cx="960" cy="820.5" rx="1273" ry="1286.5" fill="url(#b)" fill-opacity=".67"/><ellipse cx="960" cy="820.5" rx="539" ry="544.5" fill="#D2E3FC"/><ellipse cx="960" cy="820.5" rx="336" ry="339.5" fill="#FF6D7F" fill-opacity=".8"/><ellipse cx="960" cy="828" rx="196" ry="198" fill="#fff" fill-opacity=".7"/><path d="M906.204 588.952c0 1.575-.118 2.978-.353 4.21-.235 1.231-.616 2.281-1.141 3.15a5.205 5.205 0 0 1-2.009 1.955c-.815.453-1.802.679-2.961.679-1.448 0-2.652-.398-3.612-1.195-.941-.796-1.647-1.937-2.118-3.422-.453-1.502-.679-3.295-.679-5.377 0-2.1.208-3.893.624-5.378.435-1.484 1.123-2.616 2.065-3.394.941-.797 2.181-1.195 3.72-1.195 1.449 0 2.653.398 3.612 1.195.96.778 1.675 1.91 2.146 3.394.471 1.485.706 3.278.706 5.378Zm-10.483 0c0 1.774.127 3.25.38 4.427.272 1.177.697 2.064 1.276 2.661.598.58 1.386.869 2.363.869.978 0 1.757-.289 2.336-.869.597-.579 1.032-1.457 1.304-2.634.271-1.195.407-2.68.407-4.454 0-1.774-.136-3.241-.407-4.4-.272-1.177-.707-2.055-1.304-2.634-.579-.598-1.358-.896-2.336-.896-.977 0-1.765.298-2.363.896-.579.579-1.004 1.457-1.276 2.634-.253 1.159-.38 2.626-.38 4.4Zm13.777 8.256c0-.67.162-1.14.488-1.412a1.765 1.765 0 0 1 1.168-.407c.471 0 .869.135 1.195.407.344.272.516.742.516 1.412 0 .652-.172 1.123-.516 1.412-.326.29-.724.435-1.195.435a1.7 1.7 0 0 1-1.168-.435c-.326-.289-.488-.76-.488-1.412Zm12.78-10.429c1.322 0 2.471.227 3.449.679.978.453 1.729 1.105 2.254 1.956.543.832.815 1.855.815 3.069 0 1.339-.29 2.498-.869 3.476-.579.96-1.412 1.702-2.499 2.227-1.068.507-2.362.76-3.883.76-.996 0-1.938-.09-2.825-.271-.869-.181-1.602-.444-2.2-.788v-2.254c.652.398 1.44.715 2.363.951.942.217 1.838.325 2.689.325.959 0 1.792-.144 2.498-.434.725-.308 1.286-.77 1.684-1.385.399-.634.598-1.421.598-2.363 0-1.267-.39-2.236-1.168-2.906-.779-.688-2.01-1.032-3.694-1.032-.507 0-1.086.045-1.738.136-.652.09-1.177.181-1.575.271l-1.195-.76.733-9.153h9.723v2.173h-7.686l-.462 5.622c.308-.054.725-.118 1.25-.19a12.676 12.676 0 0 1 1.738-.109Zm16.215 5.676v-2.118h11.406v2.118h-11.406Zm29.189 6.22h-2.336v-14.883a349.551 349.551 0 0 0 .109-2.01c-.29.29-.552.534-.788.733l-.896.761-2.064 1.684-1.249-1.603 5.241-4.074h1.983v19.392Zm7.856-1.467c0-.67.163-1.14.489-1.412a1.763 1.763 0 0 1 1.168-.407c.471 0 .869.135 1.195.407.344.272.516.742.516 1.412 0 .652-.172 1.123-.516 1.412-.326.29-.724.435-1.195.435-.453 0-.842-.145-1.168-.435-.326-.289-.489-.76-.489-1.412Zm12.781-10.429c1.321 0 2.471.227 3.449.679.978.453 1.729 1.105 2.254 1.956.543.832.815 1.855.815 3.069 0 1.339-.29 2.498-.869 3.476-.58.96-1.413 1.702-2.499 2.227-1.068.507-2.363.76-3.884.76-.996 0-1.937-.09-2.824-.271-.869-.181-1.603-.444-2.2-.788v-2.254c.652.398 1.439.715 2.363.951.941.217 1.838.325 2.688.325.96 0 1.793-.144 2.499-.434.724-.308 1.286-.77 1.684-1.385.398-.634.597-1.421.597-2.363 0-1.267-.389-2.236-1.167-2.906-.779-.688-2.01-1.032-3.694-1.032-.507 0-1.086.045-1.738.136-.652.09-1.177.181-1.575.271l-1.195-.76.733-9.153h9.723v2.173h-7.686l-.462 5.622c.308-.054.724-.118 1.249-.19a12.701 12.701 0 0 1 1.739-.109Zm33.401-2.933c1.65 0 2.88.426 3.7 1.277.81.832 1.22 2.19 1.22 4.073v9.479h-2.36v-9.37c0-1.141-.25-2.001-.74-2.58-.47-.58-1.21-.869-2.22-.869-1.41 0-2.43.407-3.04 1.222-.6.815-.9 2.001-.9 3.558v8.039h-2.36v-9.37c0-.76-.11-1.394-.33-1.901-.22-.525-.54-.914-.98-1.168-.43-.253-.99-.38-1.68-.38-.98 0-1.75.208-2.31.624-.56.399-.97.987-1.22 1.766-.24.778-.35 1.738-.35 2.879v7.55h-2.39v-14.557h1.92l.36 1.982h.13a4.35 4.35 0 0 1 1.12-1.249c.45-.344.95-.598 1.49-.761.54-.162 1.1-.244 1.68-.244 1.13 0 2.06.199 2.8.598.76.398 1.31 1.013 1.66 1.846h.13c.49-.833 1.15-1.448 1.99-1.846a6.221 6.221 0 0 1 2.68-.598Z" fill="#3C4043"/><path d="m-3.5 1011.5 966-304.5 960 307.5v66H-3.5v-69Z" fill="#F3F7FE"/><path d="M917.204 423.392c0 1.576-.118 2.979-.353 4.21-.235 1.231-.616 2.281-1.141 3.15a5.215 5.215 0 0 1-2.009 1.956c-.815.452-1.802.679-2.961.679-1.448 0-2.652-.399-3.612-1.195-.941-.797-1.647-1.938-2.118-3.422-.453-1.503-.679-3.295-.679-5.378 0-2.1.208-3.892.624-5.377.435-1.485 1.123-2.616 2.065-3.395.941-.797 2.181-1.195 3.72-1.195 1.449 0 2.653.398 3.612 1.195.96.779 1.675 1.91 2.146 3.395.471 1.485.706 3.277.706 5.377Zm-10.483 0c0 1.775.127 3.25.38 4.427.272 1.177.697 2.064 1.276 2.662.598.579 1.386.869 2.363.869.978 0 1.757-.29 2.336-.869.597-.58 1.032-1.458 1.304-2.635.271-1.195.407-2.679.407-4.454 0-1.774-.136-3.241-.407-4.399-.272-1.177-.707-2.055-1.304-2.635-.579-.597-1.358-.896-2.336-.896-.977 0-1.765.299-2.363.896-.579.58-1.004 1.458-1.276 2.635-.253 1.158-.38 2.625-.38 4.399Zm13.777 8.257c0-.67.162-1.141.488-1.413a1.77 1.77 0 0 1 1.168-.407c.471 0 .869.136 1.195.407.344.272.516.743.516 1.413 0 .651-.172 1.122-.516 1.412-.326.29-.724.434-1.195.434-.452 0-.842-.144-1.168-.434-.326-.29-.488-.761-.488-1.412Zm12.78-10.429c1.322 0 2.471.226 3.449.679.978.452 1.729 1.104 2.254 1.955.543.833.815 1.856.815 3.069 0 1.34-.29 2.499-.869 3.476-.579.96-1.412 1.702-2.499 2.227-1.068.507-2.362.761-3.883.761-.996 0-1.938-.091-2.825-.272-.869-.181-1.602-.443-2.2-.787v-2.255c.652.399 1.44.716 2.363.951.942.217 1.838.326 2.689.326.959 0 1.792-.145 2.498-.435.725-.307 1.286-.769 1.684-1.385.399-.633.598-1.421.598-2.363 0-1.267-.39-2.236-1.168-2.906-.779-.688-2.01-1.032-3.694-1.032-.507 0-1.086.046-1.738.136-.652.091-1.177.181-1.575.272l-1.195-.761.733-9.152h9.723v2.172h-7.686l-.462 5.622c.308-.054.725-.117 1.25-.19a12.845 12.845 0 0 1 1.738-.108Zm16.215 5.676v-2.119h11.406v2.119h-11.406Zm27.016-5.676c1.322 0 2.472.226 3.45.679.977.452 1.729 1.104 2.254 1.955.543.833.815 1.856.815 3.069 0 1.34-.29 2.499-.87 3.476-.579.96-1.412 1.702-2.498 2.227-1.068.507-2.363.761-3.884.761-.996 0-1.937-.091-2.824-.272-.87-.181-1.603-.443-2.2-.787v-2.255c.652.399 1.439.716 2.363.951.941.217 1.837.326 2.688.326.96 0 1.793-.145 2.499-.435.724-.307 1.285-.769 1.684-1.385.398-.633.597-1.421.597-2.363 0-1.267-.389-2.236-1.168-2.906-.778-.688-2.009-1.032-3.693-1.032-.507 0-1.087.046-1.738.136-.652.091-1.177.181-1.576.272l-1.195-.761.734-9.152h9.723v2.172h-7.686l-.462 5.622c.308-.054.724-.117 1.249-.19a12.856 12.856 0 0 1 1.738-.108Zm33.411-2.934c1.64 0 2.87.426 3.69 1.277.81.833 1.22 2.191 1.22 4.074v9.478h-2.36v-9.37c0-1.14-.25-2-.73-2.58-.48-.579-1.22-.869-2.23-.869-1.41 0-2.43.408-3.04 1.222-.6.815-.9 2.001-.9 3.558v8.039h-2.36v-9.37c0-.76-.11-1.394-.33-1.901-.22-.525-.54-.914-.98-1.168-.43-.253-.99-.38-1.68-.38-.978 0-1.747.208-2.309.625-.561.398-.968.987-1.222 1.765-.235.779-.353 1.738-.353 2.879v7.55h-2.39v-14.557h1.929l.353 1.983h.135a4.38 4.38 0 0 1 1.114-1.25 4.66 4.66 0 0 1 1.494-.76 5.84 5.84 0 0 1 1.679-.245c1.13 0 2.06.2 2.8.598.76.398 1.31 1.014 1.66 1.847h.13c.49-.833 1.15-1.449 1.99-1.847a6.247 6.247 0 0 1 2.69-.598ZM896.175 210.609c1.611 0 2.96.153 4.047.461 1.104.308 1.928.815 2.471 1.521.561.706.842 1.648.842 2.825 0 .76-.145 1.439-.435 2.037a3.719 3.719 0 0 1-1.249 1.466c-.543.38-1.213.643-2.01.788v.136a6.956 6.956 0 0 1 2.2.706c.67.344 1.195.833 1.575 1.466.381.634.571 1.458.571 2.472 0 1.177-.272 2.182-.815 3.014-.543.815-1.322 1.44-2.336 1.874-.996.417-2.191.625-3.585.625h-6.817v-19.391h5.541Zm.489 8.256c1.665 0 2.806-.263 3.422-.788.615-.543.923-1.34.923-2.39 0-1.068-.38-1.828-1.141-2.281-.742-.471-1.937-.706-3.585-.706h-3.204v6.165h3.585Zm-3.585 2.037v7.034h3.911c1.72 0 2.915-.335 3.585-1.005.669-.67 1.004-1.548 1.004-2.634 0-.688-.153-1.286-.461-1.793-.29-.507-.788-.896-1.494-1.168-.688-.289-1.63-.434-2.825-.434h-3.72Zm20.515-5.731c1.25 0 2.318.272 3.205.815.905.543 1.593 1.313 2.064 2.309.489.977.733 2.127.733 3.449v1.439h-9.967c.036 1.648.453 2.906 1.249 3.775.815.851 1.947 1.277 3.395 1.277.924 0 1.738-.082 2.445-.245a14.746 14.746 0 0 0 2.227-.76v2.091a10.71 10.71 0 0 1-2.2.706c-.725.163-1.585.245-2.58.245-1.376 0-2.599-.281-3.667-.842-1.05-.562-1.874-1.394-2.471-2.499-.58-1.123-.869-2.49-.869-4.101 0-1.593.262-2.96.787-4.101.543-1.141 1.295-2.019 2.254-2.634.978-.616 2.11-.924 3.395-.924Zm-.027 1.956c-1.141 0-2.046.371-2.716 1.113-.652.724-1.041 1.738-1.168 3.042h7.415c0-.833-.127-1.557-.38-2.173a3.074 3.074 0 0 0-1.168-1.439c-.507-.362-1.168-.543-1.983-.543Zm6.924-1.684h2.552l3.151 8.283c.181.489.344.96.489 1.413.163.452.308.896.434 1.33.127.417.227.824.299 1.222h.109c.108-.452.28-1.041.516-1.765.235-.742.48-1.485.733-2.227l2.96-8.256h2.58l-6.273 16.567c-.344.905-.752 1.693-1.222 2.363-.453.688-1.014 1.213-1.684 1.575-.652.38-1.449.57-2.39.57a7.06 7.06 0 0 1-1.141-.081 7.71 7.71 0 0 1-.842-.136V234.4c.199.036.435.072.706.108.29.037.589.055.896.055.562 0 1.042-.109 1.44-.326a2.792 2.792 0 0 0 1.059-.896c.29-.381.534-.833.733-1.358l.761-1.929-5.866-14.611Zm28.782 7.251c0 1.213-.163 2.291-.489 3.232-.308.924-.761 1.711-1.358 2.363a5.667 5.667 0 0 1-2.146 1.494c-.833.326-1.765.489-2.797.489-.96 0-1.847-.163-2.662-.489a6.014 6.014 0 0 1-2.118-1.494c-.598-.652-1.068-1.439-1.412-2.363-.326-.941-.489-2.019-.489-3.232 0-1.611.271-2.969.815-4.074.543-1.122 1.321-1.973 2.335-2.553 1.014-.597 2.218-.896 3.612-.896 1.322 0 2.481.299 3.477.896 1.014.58 1.801 1.431 2.363 2.553.579 1.105.869 2.463.869 4.074Zm-11 0c0 1.141.145 2.137.435 2.988.308.833.778 1.475 1.412 1.928.634.453 1.439.679 2.417.679.978 0 1.784-.226 2.417-.679.634-.453 1.096-1.095 1.385-1.928.308-.851.462-1.847.462-2.988 0-1.159-.154-2.145-.462-2.96-.307-.815-.778-1.439-1.412-1.874-.615-.453-1.421-.679-2.417-.679-1.485 0-2.562.489-3.232 1.467-.67.977-1.005 2.326-1.005 4.046Zm21.794-7.523c1.739 0 3.051.426 3.938 1.277.888.833 1.331 2.191 1.331 4.074V230h-2.363v-9.316c0-1.176-.262-2.055-.787-2.634-.525-.579-1.349-.869-2.472-.869-1.611 0-2.725.453-3.34 1.358-.616.905-.924 2.209-.924 3.911V230h-2.39v-14.557h1.929l.353 1.982h.136a4.361 4.361 0 0 1 1.195-1.249 5.212 5.212 0 0 1 1.602-.76 6.585 6.585 0 0 1 1.792-.245Zm14.942 15.101c-1.81 0-3.259-.625-4.345-1.874-1.087-1.268-1.63-3.151-1.63-5.649 0-2.499.543-4.382 1.63-5.649 1.104-1.286 2.562-1.929 4.372-1.929.761 0 1.422.1 1.983.299a4.72 4.72 0 0 1 1.467.76c.416.326.769.688 1.059 1.087h.163c-.018-.236-.055-.58-.109-1.032a15.47 15.47 0 0 1-.054-1.114v-5.812h2.39V230h-1.928l-.354-1.955h-.108c-.29.416-.643.796-1.059 1.14a5.09 5.09 0 0 1-1.494.788c-.561.199-1.222.299-1.983.299Zm.38-1.983c1.539 0 2.617-.416 3.232-1.249.634-.851.951-2.128.951-3.83v-.434c0-1.811-.299-3.196-.896-4.156-.598-.977-1.702-1.466-3.314-1.466-1.285 0-2.254.516-2.906 1.548-.633 1.014-.95 2.381-.95 4.101 0 1.738.317 3.087.95 4.047.652.959 1.63 1.439 2.933 1.439Zm23.384-10.185c1.327 0 2.467.227 3.447.679.98.453 1.73 1.105 2.26 1.956.54.833.81 1.856.81 3.069 0 1.34-.29 2.498-.87 3.476-.58.96-1.41 1.702-2.5 2.227-1.06.507-2.359.761-3.88.761a14.12 14.12 0 0 1-2.825-.272c-.869-.181-1.602-.444-2.199-.788v-2.254c.651.399 1.439.715 2.362.951.942.217 1.838.326 2.689.326.96 0 1.793-.145 2.503-.435.72-.308 1.28-.769 1.68-1.385.4-.634.6-1.421.6-2.363 0-1.267-.39-2.236-1.17-2.906-.78-.688-2.01-1.032-3.694-1.032-.507 0-1.087.045-1.738.136-.652.09-1.177.181-1.576.272l-1.195-.761.734-9.152h9.719v2.172h-7.682l-.462 5.622c.308-.054.724-.118 1.249-.19a12.847 12.847 0 0 1 1.738-.109Zm26.347-2.933c1.65 0 2.88.426 3.7 1.277.81.833 1.22 2.191 1.22 4.074V230h-2.36v-9.37c0-1.14-.25-2.001-.74-2.58-.47-.579-1.21-.869-2.22-.869-1.41 0-2.43.407-3.04 1.222-.6.815-.9 2.001-.9 3.558V230h-2.36v-9.37c0-.76-.11-1.394-.33-1.901-.22-.525-.54-.914-.98-1.168-.43-.253-.99-.38-1.68-.38-.98 0-1.75.208-2.31.625-.56.398-.97.986-1.22 1.765-.24.779-.35 1.738-.35 2.879V230h-2.39v-14.557h1.92l.36 1.982h.13a4.35 4.35 0 0 1 1.12-1.249c.45-.344.95-.597 1.49-.76.54-.163 1.1-.245 1.68-.245 1.13 0 2.06.199 2.8.598.76.398 1.31 1.014 1.66 1.847h.13c.49-.833 1.15-1.449 1.99-1.847a6.221 6.221 0 0 1 2.68-.598ZM807.417 386.055c0 1.628-.341 3.102-1.023 4.422-.66 1.298-1.683 2.332-3.069 3.102-1.386.748-3.135 1.122-5.247 1.122-2.992 0-5.269-.792-6.831-2.376-1.54-1.606-2.31-3.718-2.31-6.336v-15.18h3.564v15.015c0 1.936.473 3.399 1.419 4.389.946.968 2.387 1.452 4.323 1.452 1.32 0 2.398-.242 3.234-.726.836-.484 1.441-1.155 1.815-2.013.396-.88.594-1.925.594-3.135v-14.982h3.531v15.246Zm13.341 8.316h-9.141v-2.046l2.805-.825v-17.787l-2.805-.858v-2.046h9.141v2.046l-2.772.858V391.5l2.772.825v2.046Zm13.679-23.562-8.778 23.562h-3.333l8.778-23.562h3.333Zm19.225 23.562h-9.141v-2.046l2.805-.825v-17.787l-2.805-.858v-2.046h9.141v2.046l-2.772.858V391.5l2.772.825v2.046Zm13.019-18.117c2.068 0 3.652.517 4.752 1.551 1.1 1.034 1.65 2.695 1.65 4.983v11.583h-3.465v-11.088c0-1.386-.297-2.42-.891-3.102-.572-.704-1.496-1.056-2.772-1.056-1.804 0-3.058.539-3.762 1.617-.682 1.078-1.023 2.629-1.023 4.653v8.976h-3.498v-17.787h2.772l.495 2.376h.198a5.319 5.319 0 0 1 1.452-1.518 6.36 6.36 0 0 1 1.914-.891 8.006 8.006 0 0 1 2.178-.297Zm18.179 15.609c.462 0 .935-.044 1.419-.132.484-.088.902-.187 1.254-.297v2.64c-.374.176-.88.319-1.518.429a9.424 9.424 0 0 1-1.914.198c-.968 0-1.859-.165-2.673-.495-.792-.33-1.43-.902-1.914-1.716s-.726-1.947-.726-3.399v-9.834h-2.475v-1.584l2.607-1.32 1.221-3.762h2.145v3.993h5.082v2.673h-5.082v9.768c0 .968.231 1.683.693 2.145.484.462 1.111.693 1.881.693Zm13.227-15.609c1.562 0 2.904.33 4.026.99 1.122.638 1.98 1.562 2.574 2.772.616 1.21.924 2.64.924 4.29v1.914h-11.946c.044 1.826.517 3.223 1.419 4.191.924.968 2.211 1.452 3.861 1.452 1.144 0 2.156-.099 3.036-.297a16.61 16.61 0 0 0 2.772-.957v2.904c-.88.396-1.782.693-2.706.891-.902.198-1.98.297-3.234.297-1.716 0-3.234-.341-4.554-1.023-1.32-.682-2.354-1.694-3.102-3.036-.726-1.364-1.089-3.036-1.089-5.016 0-2.002.33-3.696.99-5.082.682-1.386 1.617-2.442 2.805-3.168 1.21-.748 2.618-1.122 4.224-1.122Zm0 2.706c-1.254 0-2.266.407-3.036 1.221-.748.814-1.188 1.969-1.32 3.465h8.382c0-.924-.143-1.738-.429-2.442-.286-.704-.726-1.254-1.32-1.65-.594-.396-1.353-.594-2.277-.594Zm20.666-2.706c.308 0 .649.022 1.023.066.374.022.682.055.924.099l-.363 3.267a6.631 6.631 0 0 0-.858-.165 7.016 7.016 0 0 0-.924-.066c-.66 0-1.298.132-1.914.396a4.88 4.88 0 0 0-1.617 1.089 5.018 5.018 0 0 0-1.155 1.716c-.264.682-.396 1.463-.396 2.343v9.372h-3.498v-17.787h2.772l.462 3.168h.132a8.654 8.654 0 0 1 1.353-1.749 6.091 6.091 0 0 1 1.815-1.254 5.083 5.083 0 0 1 2.244-.495Zm11.493 0c2.244 0 3.916.495 5.016 1.485 1.1.968 1.65 2.497 1.65 4.587v12.045h-2.475l-.693-2.475h-.132a8.98 8.98 0 0 1-1.584 1.584 5.215 5.215 0 0 1-1.848.924c-.682.198-1.518.297-2.508.297-1.056 0-2.013-.187-2.871-.561a4.564 4.564 0 0 1-1.98-1.782c-.484-.814-.726-1.826-.726-3.036 0-1.804.682-3.179 2.046-4.125 1.386-.946 3.487-1.463 6.303-1.551l3.036-.099v-.99c0-1.32-.297-2.244-.891-2.772-.594-.528-1.43-.792-2.508-.792-.924 0-1.804.132-2.64.396-.836.264-1.628.583-2.376.957l-1.122-2.541c.836-.44 1.793-.803 2.871-1.089 1.1-.308 2.244-.462 3.432-.462Zm.825 9.636c-2.024.088-3.432.429-4.224 1.023-.77.572-1.155 1.386-1.155 2.442 0 .924.275 1.595.825 2.013.572.418 1.287.627 2.145.627 1.386 0 2.53-.385 3.432-1.155.902-.77 1.353-1.925 1.353-3.465v-1.551l-2.376.066Zm18.389 8.811c-1.628 0-3.058-.319-4.29-.957-1.232-.638-2.189-1.628-2.871-2.97-.682-1.364-1.023-3.091-1.023-5.181 0-2.2.363-3.982 1.089-5.346.748-1.364 1.749-2.365 3.003-3.003 1.276-.66 2.728-.99 4.356-.99.99 0 1.914.11 2.772.33.88.198 1.606.429 2.178.693l-1.056 2.838a16.076 16.076 0 0 0-1.98-.627 7.796 7.796 0 0 0-1.947-.264c-1.1 0-2.013.242-2.739.726-.704.462-1.232 1.166-1.584 2.112-.33.924-.495 2.09-.495 3.498 0 1.342.176 2.475.528 3.399.352.924.869 1.628 1.551 2.112.704.462 1.573.693 2.607.693.99 0 1.859-.11 2.607-.33.748-.22 1.452-.506 2.112-.858v3.036a7.466 7.466 0 0 1-2.079.825c-.748.176-1.661.264-2.739.264Zm15.418-2.838c.462 0 .935-.044 1.419-.132.484-.088.902-.187 1.254-.297v2.64c-.374.176-.88.319-1.518.429a9.424 9.424 0 0 1-1.914.198c-.968 0-1.859-.165-2.673-.495-.792-.33-1.43-.902-1.914-1.716s-.726-1.947-.726-3.399v-9.834h-2.475v-1.584l2.607-1.32 1.221-3.762h2.145v3.993h5.082v2.673h-5.082v9.768c0 .968.231 1.683.693 2.145.484.462 1.111.693 1.881.693Zm9.729-15.279v17.787h-3.498v-17.787h3.498Zm-1.716-6.765c.528 0 .99.154 1.386.462.396.308.594.825.594 1.551 0 .704-.198 1.221-.594 1.551a2.193 2.193 0 0 1-1.386.462c-.572 0-1.056-.154-1.452-.462-.374-.33-.561-.847-.561-1.551 0-.726.187-1.243.561-1.551.396-.308.88-.462 1.452-.462Zm22.884 15.642c0 1.474-.198 2.783-.594 3.927-.396 1.144-.957 2.112-1.683 2.904a7.178 7.178 0 0 1-2.64 1.815c-1.034.396-2.2.594-3.498.594-1.188 0-2.288-.198-3.3-.594a7.56 7.56 0 0 1-2.64-1.815c-.726-.792-1.298-1.76-1.716-2.904-.418-1.144-.627-2.464-.627-3.96 0-1.958.33-3.619.99-4.983.682-1.364 1.65-2.398 2.904-3.102 1.276-.726 2.772-1.089 4.488-1.089 1.628 0 3.058.363 4.29 1.089 1.254.704 2.233 1.738 2.937 3.102.726 1.364 1.089 3.036 1.089 5.016Zm-13.101 0c0 1.32.165 2.464.495 3.432.33.946.847 1.672 1.551 2.178s1.606.759 2.706.759c1.1 0 2.002-.253 2.706-.759.704-.506 1.221-1.232 1.551-2.178.33-.968.495-2.112.495-3.432 0-1.364-.176-2.508-.528-3.432-.33-.924-.847-1.628-1.551-2.112-.682-.506-1.584-.759-2.706-.759-1.65 0-2.849.55-3.597 1.65-.748 1.1-1.122 2.651-1.122 4.653Zm26.546-9.207c2.07 0 3.65.517 4.75 1.551 1.1 1.034 1.65 2.695 1.65 4.983v11.583h-3.46v-11.088c0-1.386-.3-2.42-.9-3.102-.57-.704-1.49-1.056-2.77-1.056-1.8 0-3.06.539-3.76 1.617-.68 1.078-1.02 2.629-1.02 4.653v8.976h-3.5v-17.787h2.77l.5 2.376h.19c.4-.616.88-1.122 1.46-1.518a6.36 6.36 0 0 1 1.91-.891c.7-.198 1.43-.297 2.18-.297Zm27.34-5.445c2.03 0 3.69.253 4.99.759 1.3.506 2.26 1.265 2.9 2.277.64.99.96 2.244.96 3.762 0 1.21-.23 2.233-.69 3.069a6.165 6.165 0 0 1-1.72 2.013c-.7.506-1.44.913-2.21 1.221l6.6 10.461h-4.09l-5.68-9.537h-4.09v9.537h-3.57v-23.562h6.6Zm-.23 3.036h-2.8v8.019h2.97c1.21 0 2.2-.154 2.97-.462.79-.308 1.36-.77 1.71-1.386.38-.616.57-1.375.57-2.277 0-.946-.2-1.694-.6-2.244-.37-.572-.97-.99-1.78-1.254-.79-.264-1.8-.396-3.04-.396Zm21.12 2.409c1.56 0 2.9.33 4.02.99 1.12.638 1.98 1.562 2.58 2.772.61 1.21.92 2.64.92 4.29v1.914h-11.95c.05 1.826.52 3.223 1.42 4.191.93.968 2.21 1.452 3.86 1.452 1.15 0 2.16-.099 3.04-.297.9-.22 1.83-.539 2.77-.957v2.904c-.88.396-1.78.693-2.7.891-.91.198-1.98.297-3.24.297-1.71 0-3.23-.341-4.55-1.023-1.32-.682-2.36-1.694-3.1-3.036-.73-1.364-1.09-3.036-1.09-5.016 0-2.002.33-3.696.99-5.082.68-1.386 1.61-2.442 2.8-3.168 1.21-.748 2.62-1.122 4.23-1.122Zm0 2.706c-1.26 0-2.27.407-3.04 1.221-.75.814-1.19 1.969-1.32 3.465h8.38c0-.924-.14-1.738-.43-2.442-.28-.704-.72-1.254-1.32-1.65-.59-.396-1.35-.594-2.27-.594Zm18.02-2.706c1.15 0 2.18.22 3.11.66.92.44 1.7 1.111 2.34 2.013h.16l.4-2.343h2.84v18.018c0 1.672-.3 3.08-.89 4.224-.6 1.144-1.51 2.002-2.74 2.574-1.21.594-2.74.891-4.59.891-1.28 0-2.45-.088-3.53-.264a13.288 13.288 0 0 1-2.97-.825v-3.069c.64.308 1.31.561 2.01.759.71.22 1.45.374 2.25.462.79.11 1.6.165 2.44.165 1.45 0 2.57-.418 3.36-1.254.8-.814 1.19-1.969 1.19-3.465v-.594c0-.286.01-.66.04-1.122.02-.484.04-.836.06-1.056h-.13c-.62.924-1.38 1.606-2.28 2.046-.88.418-1.9.627-3.07.627-2.24 0-4-.803-5.28-2.409-1.25-1.628-1.88-3.883-1.88-6.765 0-1.936.29-3.586.86-4.95.57-1.386 1.39-2.453 2.44-3.201 1.08-.748 2.37-1.122 3.86-1.122Zm.73 2.904c-.92 0-1.71.253-2.34.759-.64.484-1.13 1.199-1.46 2.145-.33.946-.49 2.112-.49 3.498 0 2.068.36 3.641 1.09 4.719.75 1.078 1.84 1.617 3.27 1.617.83 0 1.54-.11 2.11-.33.59-.22 1.08-.561 1.45-1.023.4-.462.68-1.045.86-1.749.2-.726.29-1.595.29-2.607v-.66c0-1.518-.17-2.739-.52-3.663-.33-.946-.85-1.628-1.55-2.046-.71-.44-1.61-.66-2.71-.66Zm17.1-2.574v17.787h-3.5v-17.787h3.5Zm-1.72-6.765c.53 0 .99.154 1.39.462.39.308.59.825.59 1.551 0 .704-.2 1.221-.59 1.551-.4.308-.86.462-1.39.462-.57 0-1.05-.154-1.45-.462-.37-.33-.56-.847-.56-1.551 0-.726.19-1.243.56-1.551.4-.308.88-.462 1.45-.462Zm22.89 15.642c0 1.474-.2 2.783-.6 3.927-.39 1.144-.96 2.112-1.68 2.904a7.244 7.244 0 0 1-2.64 1.815c-1.04.396-2.2.594-3.5.594-1.19 0-2.29-.198-3.3-.594a7.597 7.597 0 0 1-2.64-1.815c-.73-.792-1.3-1.76-1.72-2.904-.41-1.144-.62-2.464-.62-3.96 0-1.958.33-3.619.99-4.983.68-1.364 1.65-2.398 2.9-3.102 1.28-.726 2.77-1.089 4.49-1.089 1.63 0 3.06.363 4.29 1.089 1.25.704 2.23 1.738 2.94 3.102.72 1.364 1.09 3.036 1.09 5.016Zm-13.11 0c0 1.32.17 2.464.5 3.432.33.946.85 1.672 1.55 2.178.7.506 1.61.759 2.71.759 1.1 0 2-.253 2.7-.759.71-.506 1.22-1.232 1.55-2.178.33-.968.5-2.112.5-3.432 0-1.364-.18-2.508-.53-3.432-.33-.924-.85-1.628-1.55-2.112-.68-.506-1.58-.759-2.71-.759-1.65 0-2.85.55-3.59 1.65-.75 1.1-1.13 2.651-1.13 4.653Zm26.55-9.207c2.07 0 3.65.517 4.75 1.551 1.1 1.034 1.65 2.695 1.65 4.983v11.583h-3.46v-11.088c0-1.386-.3-2.42-.89-3.102-.58-.704-1.5-1.056-2.78-1.056-1.8 0-3.05.539-3.76 1.617-.68 1.078-1.02 2.629-1.02 4.653v8.976h-3.5v-17.787h2.77l.5 2.376h.2c.39-.616.88-1.122 1.45-1.518a6.36 6.36 0 0 1 1.91-.891 8.042 8.042 0 0 1 2.18-.297ZM816.401 191h-13.266v-23.562h13.266v3.036h-9.702v6.732h9.108v3.003h-9.108v7.722h9.702V191Zm13.716-18.117c2.068 0 3.652.517 4.752 1.551 1.1 1.034 1.65 2.695 1.65 4.983V191h-3.465v-11.088c0-1.386-.297-2.42-.891-3.102-.572-.704-1.496-1.056-2.772-1.056-1.804 0-3.058.539-3.762 1.617-.682 1.078-1.023 2.629-1.023 4.653V191h-3.498v-17.787h2.772l.495 2.376h.198a5.319 5.319 0 0 1 1.452-1.518 6.36 6.36 0 0 1 1.914-.891 8.006 8.006 0 0 1 2.178-.297ZM845.887 191l-6.732-17.787h3.696l3.696 10.395c.154.44.308.935.462 1.485.176.55.33 1.078.462 1.584s.22.946.264 1.32h.132c.066-.374.165-.814.297-1.32.154-.528.319-1.056.495-1.584.176-.55.33-1.045.462-1.485l3.696-10.395h3.696L849.748 191h-3.861Zm16.875-17.787V191h-3.498v-17.787h3.498Zm-1.716-6.765c.528 0 .99.154 1.386.462.396.308.594.825.594 1.551 0 .704-.198 1.221-.594 1.551a2.193 2.193 0 0 1-1.386.462c-.572 0-1.056-.154-1.452-.462-.374-.33-.561-.847-.561-1.551 0-.726.187-1.243.561-1.551.396-.308.88-.462 1.452-.462Zm15.988 6.435c.308 0 .649.022 1.023.066.374.022.682.055.924.099l-.363 3.267a6.631 6.631 0 0 0-.858-.165 7.016 7.016 0 0 0-.924-.066c-.66 0-1.298.132-1.914.396a4.88 4.88 0 0 0-1.617 1.089 5.018 5.018 0 0 0-1.155 1.716c-.264.682-.396 1.463-.396 2.343V191h-3.498v-17.787h2.772l.462 3.168h.132a8.654 8.654 0 0 1 1.353-1.749 6.091 6.091 0 0 1 1.815-1.254 5.083 5.083 0 0 1 2.244-.495Zm20.271 9.207c0 1.474-.198 2.783-.594 3.927-.396 1.144-.957 2.112-1.683 2.904a7.178 7.178 0 0 1-2.64 1.815c-1.034.396-2.2.594-3.498.594-1.188 0-2.288-.198-3.3-.594a7.56 7.56 0 0 1-2.64-1.815c-.726-.792-1.298-1.76-1.716-2.904-.418-1.144-.627-2.464-.627-3.96 0-1.958.33-3.619.99-4.983.682-1.364 1.65-2.398 2.904-3.102 1.276-.726 2.772-1.089 4.488-1.089 1.628 0 3.058.363 4.29 1.089 1.254.704 2.233 1.738 2.937 3.102.726 1.364 1.089 3.036 1.089 5.016Zm-13.101 0c0 1.32.165 2.464.495 3.432.33.946.847 1.672 1.551 2.178s1.606.759 2.706.759c1.1 0 2.002-.253 2.706-.759.704-.506 1.221-1.232 1.551-2.178.33-.968.495-2.112.495-3.432 0-1.364-.176-2.508-.528-3.432-.33-.924-.847-1.628-1.551-2.112-.682-.506-1.584-.759-2.706-.759-1.65 0-2.849.55-3.597 1.65-.748 1.1-1.122 2.651-1.122 4.653Zm26.544-9.207c2.068 0 3.652.517 4.752 1.551 1.1 1.034 1.65 2.695 1.65 4.983V191h-3.465v-11.088c0-1.386-.297-2.42-.891-3.102-.572-.704-1.496-1.056-2.772-1.056-1.804 0-3.058.539-3.762 1.617-.682 1.078-1.023 2.629-1.023 4.653V191h-3.498v-17.787h2.772l.495 2.376h.198a5.319 5.319 0 0 1 1.452-1.518 6.36 6.36 0 0 1 1.914-.891 8.006 8.006 0 0 1 2.178-.297Zm31.709 0c2.002 0 3.509.517 4.521 1.551 1.012 1.034 1.518 2.695 1.518 4.983V191h-3.498v-11.121c0-1.364-.275-2.387-.825-3.069-.528-.704-1.364-1.056-2.508-1.056-1.584 0-2.717.495-3.399 1.485-.682.968-1.023 2.376-1.023 4.224V191h-3.465v-11.121c0-.902-.132-1.661-.396-2.277-.242-.616-.605-1.078-1.089-1.386-.484-.308-1.111-.462-1.881-.462-1.1 0-1.969.242-2.607.726-.638.484-1.1 1.199-1.386 2.145-.264.924-.396 2.057-.396 3.399V191h-3.498v-17.787h2.772l.495 2.376h.198a5.32 5.32 0 0 1 1.353-1.518 6.066 6.066 0 0 1 1.815-.891 7.082 7.082 0 0 1 2.046-.297c1.342 0 2.475.242 3.399.726.924.462 1.595 1.177 2.013 2.145h.264c.572-.99 1.364-1.716 2.376-2.178a7.62 7.62 0 0 1 3.201-.693Zm18.388 0c1.562 0 2.904.33 4.026.99 1.122.638 1.98 1.562 2.574 2.772.616 1.21.924 2.64.924 4.29v1.914h-11.946c.044 1.826.517 3.223 1.419 4.191.924.968 2.211 1.452 3.861 1.452 1.144 0 2.156-.099 3.036-.297a16.61 16.61 0 0 0 2.772-.957v2.904c-.88.396-1.782.693-2.706.891-.902.198-1.98.297-3.234.297-1.716 0-3.234-.341-4.554-1.023-1.32-.682-2.354-1.694-3.102-3.036-.726-1.364-1.089-3.036-1.089-5.016 0-2.002.33-3.696.99-5.082.682-1.386 1.617-2.442 2.805-3.168 1.21-.748 2.618-1.122 4.224-1.122Zm0 2.706c-1.254 0-2.266.407-3.036 1.221-.748.814-1.188 1.969-1.32 3.465h8.382c0-.924-.143-1.738-.429-2.442-.286-.704-.726-1.254-1.32-1.65-.594-.396-1.353-.594-2.277-.594Zm20.898-2.706c2.068 0 3.652.517 4.752 1.551 1.1 1.034 1.65 2.695 1.65 4.983V191h-3.465v-11.088c0-1.386-.297-2.42-.891-3.102-.572-.704-1.496-1.056-2.772-1.056-1.804 0-3.058.539-3.762 1.617-.682 1.078-1.023 2.629-1.023 4.653V191h-3.498v-17.787h2.772l.495 2.376h.198a5.319 5.319 0 0 1 1.452-1.518 6.36 6.36 0 0 1 1.914-.891 8.006 8.006 0 0 1 2.178-.297Zm18.179 15.609c.458 0 .938-.044 1.418-.132.49-.088.9-.187 1.26-.297v2.64c-.38.176-.88.319-1.52.429a9.468 9.468 0 0 1-1.917.198c-.968 0-1.859-.165-2.673-.495-.792-.33-1.43-.902-1.914-1.716s-.726-1.947-.726-3.399v-9.834h-2.475v-1.584l2.607-1.32 1.221-3.762h2.145v3.993h5.082v2.673h-5.082v9.768c0 .968.231 1.683.693 2.145.484.462 1.111.693 1.881.693Zm21.798-21.054c2.03 0 3.69.253 4.98.759 1.3.506 2.27 1.265 2.91 2.277.64.99.96 2.244.96 3.762 0 1.21-.24 2.233-.7 3.069a6.137 6.137 0 0 1-1.71 2.013c-.71.506-1.44.913-2.21 1.221l6.6 10.461h-4.1l-5.67-9.537h-4.09V191h-3.57v-23.562h6.6Zm-.23 3.036h-2.8v8.019h2.97c1.21 0 2.2-.154 2.97-.462.79-.308 1.36-.77 1.71-1.386.38-.616.56-1.375.56-2.277 0-.946-.2-1.694-.59-2.244-.38-.572-.97-.99-1.78-1.254-.8-.264-1.81-.396-3.04-.396Zm21.11 2.409c1.57 0 2.91.33 4.03.99 1.12.638 1.98 1.562 2.57 2.772.62 1.21.93 2.64.93 4.29v1.914h-11.95c.05 1.826.52 3.223 1.42 4.191.93.968 2.21 1.452 3.86 1.452 1.15 0 2.16-.099 3.04-.297.9-.22 1.82-.539 2.77-.957v2.904c-.88.396-1.78.693-2.71.891-.9.198-1.98.297-3.23.297-1.72 0-3.23-.341-4.55-1.023-1.32-.682-2.36-1.694-3.11-3.036-.72-1.364-1.08-3.036-1.08-5.016 0-2.002.33-3.696.99-5.082.68-1.386 1.61-2.442 2.8-3.168 1.21-.748 2.62-1.122 4.22-1.122Zm0 2.706c-1.25 0-2.26.407-3.03 1.221-.75.814-1.19 1.969-1.32 3.465h8.38c0-.924-.14-1.738-.43-2.442-.28-.704-.72-1.254-1.32-1.65-.59-.396-1.35-.594-2.28-.594Zm18.03-2.706c1.14 0 2.18.22 3.1.66.93.44 1.71 1.111 2.35 2.013h.16l.4-2.343h2.83v18.018c0 1.672-.29 3.08-.89 4.224-.59 1.144-1.5 2.002-2.74 2.574-1.21.594-2.73.891-4.58.891-1.28 0-2.46-.088-3.53-.264a13.288 13.288 0 0 1-2.97-.825v-3.069c.63.308 1.31.561 2.01.759.7.22 1.45.374 2.24.462.8.11 1.61.165 2.45.165 1.45 0 2.57-.418 3.36-1.254.79-.814 1.19-1.969 1.19-3.465v-.594a27.088 27.088 0 0 1 .1-2.178h-.13c-.62.924-1.38 1.606-2.28 2.046-.88.418-1.9.627-3.07.627-2.24 0-4-.803-5.28-2.409-1.25-1.628-1.88-3.883-1.88-6.765 0-1.936.29-3.586.86-4.95.57-1.386 1.38-2.453 2.44-3.201 1.08-.748 2.36-1.122 3.86-1.122Zm.73 2.904c-.93 0-1.71.253-2.35.759-.63.484-1.12 1.199-1.45 2.145-.33.946-.49 2.112-.49 3.498 0 2.068.36 3.641 1.09 4.719.74 1.078 1.83 1.617 3.26 1.617.84 0 1.54-.11 2.11-.33.6-.22 1.08-.561 1.46-1.023.39-.462.68-1.045.85-1.749.2-.726.3-1.595.3-2.607v-.66c0-1.518-.17-2.739-.53-3.663-.33-.946-.84-1.628-1.55-2.046-.7-.44-1.6-.66-2.7-.66Zm17.09-2.574V191h-3.49v-17.787h3.49Zm-1.71-6.765c.53 0 .99.154 1.38.462.4.308.6.825.6 1.551 0 .704-.2 1.221-.6 1.551a2.16 2.16 0 0 1-1.38.462c-.57 0-1.06-.154-1.45-.462-.38-.33-.56-.847-.56-1.551 0-.726.18-1.243.56-1.551.39-.308.88-.462 1.45-.462Zm22.88 15.642c0 1.474-.2 2.783-.59 3.927-.4 1.144-.96 2.112-1.68 2.904a7.244 7.244 0 0 1-2.64 1.815c-1.04.396-2.2.594-3.5.594-1.19 0-2.29-.198-3.3-.594a7.597 7.597 0 0 1-2.64-1.815c-.73-.792-1.3-1.76-1.72-2.904-.42-1.144-.63-2.464-.63-3.96 0-1.958.33-3.619.99-4.983.69-1.364 1.65-2.398 2.91-3.102 1.27-.726 2.77-1.089 4.49-1.089 1.62 0 3.05.363 4.29 1.089 1.25.704 2.23 1.738 2.93 3.102.73 1.364 1.09 3.036 1.09 5.016Zm-13.1 0c0 1.32.17 2.464.5 3.432.33.946.84 1.672 1.55 2.178.7.506 1.6.759 2.7.759s2.01-.253 2.71-.759c.7-.506 1.22-1.232 1.55-2.178.33-.968.5-2.112.5-3.432 0-1.364-.18-2.508-.53-3.432-.33-.924-.85-1.628-1.55-2.112-.69-.506-1.59-.759-2.71-.759-1.65 0-2.85.55-3.6 1.65-.74 1.1-1.12 2.651-1.12 4.653Zm26.55-9.207c2.06 0 3.65.517 4.75 1.551 1.1 1.034 1.65 2.695 1.65 4.983V191H1116v-11.088c0-1.386-.29-2.42-.89-3.102-.57-.704-1.49-1.056-2.77-1.056-1.8 0-3.06.539-3.76 1.617-.68 1.078-1.02 2.629-1.02 4.653V191h-3.5v-17.787h2.77l.49 2.376h.2c.4-.616.88-1.122 1.45-1.518a6.416 6.416 0 0 1 1.92-.891c.7-.198 1.43-.297 2.18-.297ZM886.516 560.711h-3.564v-10.758h-11.253v10.758h-3.564v-23.562h3.564v9.768h11.253v-9.768h3.564v23.562Zm24.587-8.316c0 1.628-.341 3.102-1.023 4.422-.66 1.298-1.683 2.332-3.069 3.102-1.386.748-3.135 1.122-5.247 1.122-2.992 0-5.269-.792-6.831-2.376-1.54-1.606-2.31-3.718-2.31-6.336v-15.18h3.564v15.015c0 1.936.473 3.399 1.419 4.389.946.968 2.387 1.452 4.323 1.452 1.32 0 2.398-.242 3.234-.726.836-.484 1.441-1.155 1.815-2.013.396-.88.594-1.925.594-3.135v-14.982h3.531v15.246Zm25.155-3.696c0 2.64-.495 4.851-1.485 6.633-.99 1.782-2.42 3.124-4.29 4.026-1.848.902-4.081 1.353-6.699 1.353h-6.6v-23.562h7.293c2.398 0 4.477.44 6.237 1.32a9.452 9.452 0 0 1 4.092 3.894c.968 1.694 1.452 3.806 1.452 6.336Zm-3.729.099c0-1.98-.319-3.608-.957-4.884-.638-1.276-1.584-2.222-2.838-2.838-1.232-.616-2.728-.924-4.488-.924h-3.498v17.556h2.871c2.97 0 5.192-.748 6.666-2.244 1.496-1.496 2.244-3.718 2.244-6.666Zm24.029-11.649c2.024 0 3.685.253 4.983.759 1.298.506 2.266 1.265 2.904 2.277.638.99.957 2.244.957 3.762 0 1.21-.231 2.233-.693 3.069a6.107 6.107 0 0 1-1.716 2.013c-.704.506-1.441.913-2.211 1.221l6.6 10.461h-4.092l-5.676-9.537h-4.092v9.537h-3.564v-23.562h6.6Zm-.231 3.036h-2.805v8.019h2.97c1.21 0 2.2-.154 2.97-.462.792-.308 1.364-.77 1.716-1.386.374-.616.561-1.375.561-2.277 0-.946-.198-1.694-.594-2.244-.374-.572-.968-.99-1.782-1.254-.792-.264-1.804-.396-3.036-.396Zm21.114 2.409c1.562 0 2.904.33 4.026.99 1.122.638 1.98 1.562 2.574 2.772.616 1.21.924 2.64.924 4.29v1.914h-11.946c.044 1.826.517 3.223 1.419 4.191.924.968 2.211 1.452 3.861 1.452 1.144 0 2.156-.099 3.036-.297a16.61 16.61 0 0 0 2.772-.957v2.904c-.88.396-1.782.693-2.706.891-.902.198-1.98.297-3.234.297-1.716 0-3.234-.341-4.554-1.023-1.32-.682-2.354-1.694-3.102-3.036-.726-1.364-1.089-3.036-1.089-5.016 0-2.002.33-3.696.99-5.082.682-1.386 1.617-2.442 2.805-3.168 1.21-.748 2.618-1.122 4.224-1.122Zm0 2.706c-1.254 0-2.266.407-3.036 1.221-.748.814-1.188 1.969-1.32 3.465h8.382c0-.924-.143-1.738-.429-2.442-.286-.704-.726-1.254-1.32-1.65-.594-.396-1.353-.594-2.277-.594Zm18.027-2.706c1.144 0 2.178.22 3.102.66.924.44 1.7 1.111 2.34 2.013h.17l.39-2.343h2.84v18.018c0 1.672-.3 3.08-.89 4.224-.59 1.144-1.51 2.002-2.74 2.574-1.208.594-2.737.891-4.585.891-1.276 0-2.453-.088-3.531-.264a13.348 13.348 0 0 1-2.97-.825v-3.069c.638.308 1.309.561 2.013.759.704.22 1.452.374 2.244.462.792.11 1.606.165 2.442.165 1.452 0 2.574-.418 3.366-1.254.791-.814 1.191-1.969 1.191-3.465v-.594c0-.286.01-.66.03-1.122.02-.484.04-.836.07-1.056h-.14c-.61.924-1.371 1.606-2.273 2.046-.88.418-1.903.627-3.069.627-2.244 0-4.004-.803-5.28-2.409-1.254-1.628-1.881-3.883-1.881-6.765 0-1.936.286-3.586.858-4.95.572-1.386 1.386-2.453 2.442-3.201 1.078-.748 2.365-1.122 3.861-1.122Zm.726 2.904c-.924 0-1.705.253-2.343.759-.638.484-1.122 1.199-1.452 2.145-.33.946-.495 2.112-.495 3.498 0 2.068.363 3.641 1.089 4.719.748 1.078 1.837 1.617 3.267 1.617.836 0 1.54-.11 2.112-.33a3.3 3.3 0 0 0 1.452-1.023c.396-.462.686-1.045.856-1.749.2-.726.3-1.595.3-2.607v-.66c0-1.518-.18-2.739-.53-3.663-.33-.946-.846-1.628-1.55-2.046-.704-.44-1.606-.66-2.706-.66Zm17.096-2.574v17.787h-3.5v-17.787h3.5Zm-1.71-6.765c.52 0 .99.154 1.38.462.4.308.6.825.6 1.551 0 .704-.2 1.221-.6 1.551a2.18 2.18 0 0 1-1.38.462c-.58 0-1.06-.154-1.46-.462-.37-.33-.56-.847-.56-1.551 0-.726.19-1.243.56-1.551.4-.308.88-.462 1.46-.462Zm22.88 15.642c0 1.474-.2 2.783-.59 3.927-.4 1.144-.96 2.112-1.69 2.904a7.08 7.08 0 0 1-2.64 1.815c-1.03.396-2.2.594-3.5.594-1.18 0-2.28-.198-3.3-.594a7.597 7.597 0 0 1-2.64-1.815c-.72-.792-1.29-1.76-1.71-2.904-.42-1.144-.63-2.464-.63-3.96 0-1.958.33-3.619.99-4.983.68-1.364 1.65-2.398 2.91-3.102 1.27-.726 2.77-1.089 4.48-1.089 1.63 0 3.06.363 4.29 1.089 1.26.704 2.24 1.738 2.94 3.102.73 1.364 1.09 3.036 1.09 5.016Zm-13.1 0c0 1.32.16 2.464.49 3.432.33.946.85 1.672 1.55 2.178.71.506 1.61.759 2.71.759 1.1 0 2-.253 2.71-.759.7-.506 1.22-1.232 1.55-2.178.33-.968.49-2.112.49-3.432 0-1.364-.17-2.508-.53-3.432-.33-.924-.84-1.628-1.55-2.112-.68-.506-1.58-.759-2.7-.759-1.65 0-2.85.55-3.6 1.65-.75 1.1-1.12 2.651-1.12 4.653Zm26.54-9.207c2.07 0 3.66.517 4.76 1.551 1.1 1.034 1.65 2.695 1.65 4.983v11.583h-3.47v-11.088c0-1.386-.3-2.42-.89-3.102-.57-.704-1.5-1.056-2.77-1.056-1.81 0-3.06.539-3.76 1.617-.69 1.078-1.03 2.629-1.03 4.653v8.976h-3.5v-17.787h2.78l.49 2.376h.2c.4-.616.88-1.122 1.45-1.518a6.304 6.304 0 0 1 1.92-.891 7.97 7.97 0 0 1 2.17-.297Z" fill="#3C4043"/><path d="M1023.38 752.86s-6-2.73-6.55 5.46c-.55 8.18 0 15.28-4.36 14.73-4.36-.55-4.36-13.09-16.37-21.82-12-8.73-19.1-14.19-37.1-13.09v164.77s61.11 3.82 76.93-62.74l2.22-11.71s3.71 4.91 7.3 1.22c3.58-3.69 5.76-12.97-1.33-22.24-7.09-9.28-4.75-4.51-4.75-4.51l-15.99-50.07Z" fill="#F3F7FE"/><path d="M895.416 752.86s6-2.73 6.55 5.46c.55 8.18 0 15.28 4.36 14.73 4.36-.55 4.36-13.09 16.37-21.82 12-8.73 19.1-14.19 37.1-13.09v164.77s-61.11 3.82-76.93-62.74l-2.22-11.71s-3.71 4.91-7.3 1.22c-3.59-3.69-5.76-12.97 1.33-22.24 7.09-9.27 4.75-4.51 4.75-4.51l15.99-50.07Z" fill="#F3F7FE"/><path d="M992.04 713.559s-5.41-5.82-13.72-9.98c-3.33-7.49-9.15-23.29-17.47-23.29h-1.66c-8.32 0-14.14 15.8-17.47 23.29-8.32 4.16-13.72 9.98-13.72 9.98" fill="#fff"/><path d="M992.04 713.559s-5.41-5.82-13.72-9.98c-3.33-7.49-9.15-23.29-17.47-23.29h-1.66c-8.32 0-14.14 15.8-17.47 23.29-8.32 4.16-13.72 9.98-13.72 9.98M860.582 738s-50.18 38.02-79.08 39.54c-28.89 1.52-60.83 25.85-54.75 63.87 6.08 38.02 22.81 54.75 39.54 60.83 16.73 6.08 33.46 0 53.23 13.69 19.77 13.69 33.46 24.33 68.43 21.29 34.98-3.04 73-4.56 73-4.56" stroke="#3C4043" stroke-width="4.285" stroke-miterlimit="10" stroke-linecap="round" stroke-linejoin="round"/><path d="M1059.37 738s50.18 38.02 79.08 39.54c28.9 1.52 60.83 25.85 54.75 63.87-6.08 38.02-22.81 54.75-39.54 60.83-16.73 6.08-33.46 0-53.23 13.69-19.77 13.69-33.46 24.33-68.43 21.29-34.98-3.04-73-4.56-73-4.56" stroke="#3C4043" stroke-width="4.285" stroke-miterlimit="10" stroke-linecap="round" stroke-linejoin="round"/><path d="M954.684 700.75s1.22 14.59-21.89 13.38c-23.11-1.21-35.26 34.05-38.91 43.77-3.65 9.72-14.59 36.48-14.59 44.99-8.51 4.86-12.6 23.25-6.08 26.75 3.61 1.94 6.33-.39 7.3-1.22 0 0 8.51 72.96 74.17 74.17h10.12c65.656-1.22 74.166-74.17 74.166-74.17.96.83 3.68 3.15 7.3 1.22 6.52-3.5 2.43-21.89-6.08-26.75 0-8.51-10.94-35.26-14.59-44.99-3.65-9.73-15.81-44.99-38.906-43.77-23.1 1.22-21.89-13.38-21.89-13.38" stroke="#3C4043" stroke-width="4.285" stroke-miterlimit="10" stroke-linecap="round" stroke-linejoin="round"/><path d="m431 875.063 498.853-160.975M1489 875.063 987.303 714.088M1325.18 465.377 979.34 695.886M590.269 467.377 937 696.5" stroke="#3C4043" stroke-opacity=".5" stroke-width="3" stroke-dasharray="6 6"/></g><defs><radialGradient id="b" cx="0" cy="0" r="1" gradientUnits="userSpaceOnUse" gradientTransform="rotate(-91.169 881.718 -60.304) scale(759.658 751.687)"><stop offset="0" stop-color="#fff"/><stop offset="1" stop-color="#868686" stop-opacity="0"/></radialGradient><clipPath id="a"><path fill="#fff" d="M0 0h1920v1080H0z"/></clipPath></defs></svg>
