<svg width="1920" height="1080" fill="none" xmlns="http://www.w3.org/2000/svg"><path d="M954.822 616.056 990.5 208.261l363.3 209.75-331.86 236.795-67.118-38.75Z" fill="#D2E3FC"/><path d="M962.7 102v868" stroke="#D2E3FC" stroke-width="5" stroke-dasharray="4 2"/><path d="M1047.87 625.897c5.46 10.542.46 39.528-2.72 52.703l-45.644 14.061-64.518-37.25-4.231-52.672 20.91-16.218c2.771-.132 10.388-1.392 18.691-5.374 8.304-3.982 31.222 3.591 41.642 7.875 9.68 7.899 30.41 26.332 35.87 36.875Z" fill="#fff"/><path d="M1047.57 662.178s-3.83-5.365-8.4 1.453c-4.57 6.809-7.64 13.233-11.15 10.577-3.5-2.657 2.77-13.517-3.26-27.082-6.03-13.56-9.45-21.839-25.587-29.886l-82.385 142.695s51.013 33.863 97.992-15.87l7.78-9.031s.76 6.107 5.71 4.707c4.95-1.406 11.47-8.353 9.97-19.926-1.5-11.581-1.86-6.281-1.86-6.281l11.19-51.356Z" fill="#D8D9D9"/><path d="M936.747 598.196s6.561.635 2.942 8.003c-3.613 7.359-7.64 13.233-3.589 14.937 4.051 1.703 10.321-9.157 25.087-10.712 14.757-1.56 23.636-2.739 38.675 7.214l-82.385 142.695s-54.833-27.247-35.254-92.8l3.933-11.251s-5.668 2.397-6.932-2.593c-1.264-4.991 1.496-14.113 12.272-18.596 10.775-4.483 6.368-1.53 6.368-1.53l38.883-35.367Z" fill="#D8D9D9"/><path d="M1040.08 612.472s-1.78-7.745-6.9-15.503c.87-8.151 3.73-24.744-3.48-28.904l-1.44-.83c-7.2-4.16-20.14 6.613-26.77 11.434-9.287-.557-16.874 1.783-16.874 1.783" fill="#fff"/><path d="M1040.08 612.472s-1.78-7.745-6.9-15.503c.87-8.151 3.73-24.744-3.48-28.904l-1.44-.83c-7.2-4.16-20.14 6.613-26.77 11.434-9.287-.557-16.874 1.783-16.874 1.783" stroke="#3C4043" stroke-width="4.285" stroke-miterlimit="10" stroke-linecap="round" stroke-linejoin="round"/><path d="M1014.13 582.701s-6.24 13.245-25.648.642-47.561 11.858-55.582 18.451-30.875 24.297-35.13 31.667c-9.8-.046-22.537 13.835-18.64 20.127 2.156 3.485 5.677 2.827 6.932 2.593 0 0-29.111 67.44 27.148 101.318l8.764 5.06c57.473 31.774 101.316-27.148 101.316-27.148.42 1.199 1.61 4.568 5.71 4.707 7.4.228 13.05-17.743 8.11-26.207 4.26-7.37 8.16-36.006 9.86-46.257 1.71-10.252 8.81-46.868-11.81-57.361-20.61-10.494-12.27-22.532-12.27-22.532" stroke="#3C4043" stroke-width="4.285" stroke-miterlimit="10" stroke-linecap="round" stroke-linejoin="round"/><rect x="747" y="296" width="426" height="14" rx="7" fill="#1A73E8"/><path d="M859 268.72 853.9 283h-1.8l-5.1-14.28h1.88l3.22 9.16c.147.387.273.76.38 1.12.107.36.2.707.28 1.04.093.32.173.64.24.96.067-.32.14-.647.22-.98.093-.333.193-.68.3-1.04l.38-1.14 3.2-9.12h1.9Zm3.452 3.56V283h-1.76v-10.72h1.76Zm-.86-4.02c.267 0 .5.093.7.28.214.173.32.453.32.84 0 .373-.106.653-.32.84a.992.992 0 0 1-.7.28c-.293 0-.54-.093-.74-.28-.2-.187-.3-.467-.3-.84 0-.387.1-.667.3-.84.2-.187.447-.28.74-.28Zm9.256 3.82c.2 0 .414.013.64.04.24.013.447.04.62.08l-.22 1.62a5.828 5.828 0 0 0-1.16-.14c-.413 0-.806.087-1.18.26-.373.173-.706.42-1 .74-.293.307-.526.68-.7 1.12-.16.44-.24.933-.24 1.48V283h-1.76v-10.72h1.44l.2 1.96h.08c.227-.4.5-.76.82-1.08.32-.333.687-.593 1.1-.78.414-.2.867-.3 1.36-.3Zm6.842 9.68c.267 0 .54-.02.82-.06a6.56 6.56 0 0 0 .68-.16v1.34c-.187.093-.453.167-.8.22-.347.067-.68.1-1 .1a4.26 4.26 0 0 1-1.56-.28c-.467-.2-.847-.54-1.14-1.02-.293-.48-.44-1.153-.44-2.02v-6.24h-1.52v-.84l1.54-.7.7-2.28h1.04v2.46h3.1v1.36h-3.1v6.2c0 .653.153 1.14.46 1.46.32.307.727.46 1.22.46Zm12.607-9.48V283h-1.44l-.26-1.42h-.08c-.227.373-.52.68-.88.92s-.754.413-1.18.52c-.427.12-.874.18-1.34.18-.854 0-1.574-.133-2.16-.4a2.81 2.81 0 0 1-1.3-1.28c-.294-.573-.44-1.313-.44-2.22v-7.02h1.78v6.9c0 .853.193 1.493.58 1.92.386.427.986.64 1.8.64.8 0 1.426-.147 1.88-.44.466-.307.793-.747.98-1.32.2-.587.3-1.293.3-2.12v-5.58h1.76Zm7.463-.18c1.307 0 2.273.287 2.9.86.627.573.94 1.487.94 2.74v7.3h-1.28l-.34-1.52h-.08a6.128 6.128 0 0 1-.96.98c-.32.253-.693.44-1.12.56-.413.12-.92.18-1.52.18-.64 0-1.22-.113-1.74-.34a2.675 2.675 0 0 1-1.2-1.04c-.293-.48-.44-1.08-.44-1.8 0-1.067.42-1.887 1.26-2.46.84-.587 2.133-.907 3.88-.96l1.82-.06v-.64c0-.893-.193-1.513-.58-1.86-.387-.347-.933-.52-1.64-.52-.56 0-1.093.087-1.6.26-.507.16-.98.347-1.42.56l-.54-1.32a7.71 7.71 0 0 1 1.66-.64 7.096 7.096 0 0 1 2-.28Zm.52 5.72c-1.333.053-2.26.267-2.78.64-.507.373-.76.9-.76 1.58 0 .6.18 1.04.54 1.32.373.28.847.42 1.42.42.907 0 1.66-.247 2.26-.74.6-.507.9-1.28.9-2.32v-.96l-1.58.06Zm8.391 5.18h-1.76v-15.2h1.76V283Zm12.912-14.28c1.186 0 2.18.113 2.98.34.813.227 1.42.6 1.82 1.12.413.52.62 1.213.62 2.08a3.4 3.4 0 0 1-.32 1.5 2.74 2.74 0 0 1-.92 1.08c-.4.28-.894.473-1.48.58v.1c.6.093 1.14.267 1.62.52.493.253.88.613 1.16 1.08.28.467.42 1.073.42 1.82 0 .867-.2 1.607-.6 2.22-.4.6-.974 1.06-1.72 1.38-.734.307-1.614.46-2.64.46h-5.02v-14.28h4.08Zm.36 6.08c1.226 0 2.066-.193 2.52-.58.453-.4.68-.987.68-1.76 0-.787-.28-1.347-.84-1.68-.547-.347-1.427-.52-2.64-.52h-2.36v4.54h2.64Zm-2.64 1.5v5.18h2.88c1.266 0 2.146-.247 2.64-.74.493-.493.739-1.14.739-1.94 0-.507-.113-.947-.339-1.32-.214-.373-.58-.66-1.1-.86-.507-.213-1.2-.32-2.08-.32h-2.74Zm15.967-4.22c.2 0 .414.013.64.04.24.013.447.04.62.08l-.22 1.62a5.828 5.828 0 0 0-1.16-.14c-.413 0-.806.087-1.18.26-.373.173-.706.42-1 .74-.293.307-.526.68-.7 1.12-.16.44-.24.933-.24 1.48V283h-1.76v-10.72h1.44l.2 1.96h.08c.227-.4.5-.76.82-1.08.32-.333.687-.593 1.1-.78.414-.2.867-.3 1.36-.3Zm12.191 5.54c0 .893-.12 1.687-.36 2.38-.226.68-.56 1.26-1 1.74-.426.48-.953.847-1.58 1.1-.613.24-1.3.36-2.06.36-.706 0-1.36-.12-1.96-.36-.6-.253-1.12-.62-1.56-1.1a5.268 5.268 0 0 1-1.04-1.74c-.24-.693-.36-1.487-.36-2.38 0-1.187.2-2.187.6-3 .4-.827.974-1.453 1.72-1.88.747-.44 1.634-.66 2.66-.66.974 0 1.827.22 2.56.66.747.427 1.327 1.053 1.74 1.88.427.813.64 1.813.64 3Zm-8.1 0c0 .84.107 1.573.32 2.2.227.613.574 1.087 1.04 1.42.467.333 1.06.5 1.78.5s1.314-.167 1.78-.5c.467-.333.807-.807 1.02-1.42.227-.627.34-1.36.34-2.2 0-.853-.113-1.58-.34-2.18-.226-.6-.573-1.06-1.04-1.38-.453-.333-1.046-.5-1.78-.5-1.093 0-1.886.36-2.38 1.08-.493.72-.74 1.713-.74 2.98Zm17.419-.68c-.08-.28-.16-.553-.24-.82l-.22-.78a19.252 19.252 0 0 0-.16-.7 9.138 9.138 0 0 1-.12-.54h-.08a9.138 9.138 0 0 1-.12.54c-.04.213-.093.447-.16.7-.053.253-.12.52-.2.8-.067.267-.147.54-.24.82l-1.92 6.02h-2l-2.94-10.72h1.82l1.48 5.72c.107.387.207.78.3 1.18.093.387.173.76.24 1.12.08.347.133.647.16.9h.08a36.126 36.126 0 0 0 .3-1.36l.2-.8c.08-.267.153-.507.22-.72l1.9-6.04H955l1.84 6.04c.093.307.187.633.28.98.107.347.2.687.28 1.02.08.32.133.607.16.86h.08c.027-.227.073-.507.14-.84l.26-1.12c.107-.413.213-.82.32-1.22l1.5-5.72h1.8l-2.98 10.72h-2.06l-1.84-6.04Zm15.783 3.1c0 .693-.174 1.273-.52 1.74-.347.467-.84.82-1.48 1.06-.64.24-1.4.36-2.28.36-.747 0-1.394-.06-1.94-.18a5.92 5.92 0 0 1-1.42-.5v-1.6c.426.213.94.413 1.54.6.613.173 1.233.26 1.86.26.893 0 1.54-.14 1.94-.42.4-.293.6-.68.6-1.16 0-.267-.074-.507-.22-.72-.147-.213-.414-.427-.8-.64-.374-.213-.914-.453-1.62-.72a15.346 15.346 0 0 1-1.78-.8c-.494-.267-.874-.587-1.14-.96-.267-.373-.4-.853-.4-1.44 0-.907.366-1.607 1.1-2.1.746-.493 1.72-.74 2.92-.74.653 0 1.26.067 1.82.2.573.12 1.106.293 1.6.52l-.6 1.4a6.554 6.554 0 0 0-.94-.34 6.12 6.12 0 0 0-.98-.24 5.173 5.173 0 0 0-1.02-.1c-.72 0-1.274.12-1.66.36-.374.227-.56.54-.56.94 0 .293.086.547.26.76.173.2.46.4.86.6.413.187.96.413 1.64.68.68.253 1.26.513 1.74.78s.846.593 1.1.98c.253.373.38.847.38 1.42Zm6.73-7.96c.92 0 1.707.2 2.36.6a3.85 3.85 0 0 1 1.52 1.7c.36.72.54 1.567.54 2.54v1.06h-7.34c.027 1.213.333 2.14.92 2.78.6.627 1.433.94 2.5.94.68 0 1.28-.06 1.8-.18.533-.133 1.08-.32 1.64-.56v1.54a7.905 7.905 0 0 1-1.62.52c-.533.12-1.167.18-1.9.18-1.013 0-1.913-.207-2.7-.62-.773-.413-1.38-1.027-1.82-1.84-.427-.827-.64-1.833-.64-3.02 0-1.173.193-2.18.58-3.02.4-.84.953-1.487 1.66-1.94.72-.453 1.553-.68 2.5-.68Zm-.02 1.44c-.84 0-1.507.273-2 .82-.48.533-.767 1.28-.86 2.24h5.46c0-.613-.093-1.147-.28-1.6a2.26 2.26 0 0 0-.86-1.06c-.373-.267-.86-.4-1.46-.4Zm12.169-1.44c.2 0 .414.013.64.04.24.013.447.04.62.08l-.22 1.62a5.828 5.828 0 0 0-1.16-.14c-.413 0-.806.087-1.18.26-.373.173-.706.42-1 .74-.293.307-.526.68-.7 1.12-.16.44-.24.933-.24 1.48V283h-1.76v-10.72h1.44l.2 1.96h.08c.227-.4.5-.76.82-1.08.32-.333.687-.593 1.1-.78.414-.2.867-.3 1.36-.3Zm25.098-3.36-3.8 14.28h-1.82l-2.78-9.36c-.08-.28-.16-.567-.24-.86-.08-.293-.15-.573-.22-.84l-.18-.68c-.04-.2-.07-.347-.08-.44-.01.093-.04.24-.08.44-.03.187-.07.413-.14.68-.07.267-.14.553-.22.86-.07.293-.15.593-.24.9l-2.7 9.3h-1.82l-3.781-14.28h1.88l2.221 8.72c.08.307.15.613.22.92.07.293.13.587.18.88.07.28.12.553.16.82.04.267.08.527.12.78l.12-.82c.05-.28.11-.567.18-.86.07-.307.14-.613.22-.92.08-.307.16-.607.24-.9l2.52-8.62h1.86l2.62 8.68c.09.307.18.62.26.94.08.307.15.607.22.9.07.293.12.58.16.86.05.267.1.513.14.74.04-.333.09-.68.16-1.04a33.128 33.128 0 0 1 .54-2.38l2.2-8.7h1.88Zm3.71 3.56V283h-1.76v-10.72h1.76Zm-.86-4.02c.27 0 .5.093.7.28.22.173.32.453.32.84 0 .373-.1.653-.32.84-.2.187-.43.28-.7.28-.29 0-.54-.093-.74-.28-.2-.187-.3-.467-.3-.84 0-.387.1-.667.3-.84.2-.187.45-.28.74-.28Zm9.42 3.82c1.28 0 2.25.313 2.9.94.65.613.98 1.613.98 3V283h-1.74v-6.86c0-.867-.19-1.513-.58-1.94-.39-.427-.99-.64-1.82-.64-1.19 0-2.01.333-2.46 1-.45.667-.68 1.627-.68 2.88V283h-1.76v-10.72h1.42l.26 1.46h.1c.24-.373.53-.68.88-.92.36-.253.75-.44 1.18-.56.43-.12.87-.18 1.32-.18Zm11 11.12c-1.33 0-2.4-.46-3.2-1.38-.8-.933-1.2-2.32-1.2-4.16 0-1.84.4-3.227 1.2-4.16.82-.947 1.89-1.42 3.22-1.42.56 0 1.05.073 1.46.22.42.133.78.32 1.08.56.31.24.57.507.78.8h.12c-.01-.173-.04-.427-.08-.76-.02-.347-.04-.62-.04-.82v-4.28h1.76V283h-1.42l-.26-1.44h-.08a4 4 0 0 1-.78.84c-.3.24-.67.433-1.1.58-.41.147-.9.22-1.46.22Zm.28-1.46c1.14 0 1.93-.307 2.38-.92.47-.627.7-1.567.7-2.82v-.32c0-1.333-.22-2.353-.66-3.06-.44-.72-1.25-1.08-2.44-1.08-.94 0-1.66.38-2.14 1.14-.46.747-.7 1.753-.7 3.02 0 1.28.24 2.273.7 2.98.48.707 1.2 1.06 2.16 1.06Zm17.55-4.12c0 .893-.12 1.687-.36 2.38-.23.68-.56 1.26-1 1.74-.43.48-.96.847-1.58 1.1-.62.24-1.3.36-2.06.36-.71 0-1.36-.12-1.96-.36-.6-.253-1.12-.62-1.56-1.1-.44-.48-.79-1.06-1.04-1.74-.24-.693-.36-1.487-.36-2.38 0-1.187.2-2.187.6-3 .4-.827.97-1.453 1.72-1.88.74-.44 1.63-.66 2.66-.66.97 0 1.82.22 2.56.66.74.427 1.32 1.053 1.74 1.88.42.813.64 1.813.64 3Zm-8.1 0c0 .84.1 1.573.32 2.2.22.613.57 1.087 1.04 1.42.46.333 1.06.5 1.78.5s1.31-.167 1.78-.5c.46-.333.8-.807 1.02-1.42.22-.627.34-1.36.34-2.2 0-.853-.12-1.58-.34-2.18-.23-.6-.58-1.06-1.04-1.38-.46-.333-1.05-.5-1.78-.5-1.1 0-1.89.36-2.38 1.08-.5.72-.74 1.713-.74 2.98Zm17.42-.68c-.08-.28-.16-.553-.24-.82-.08-.28-.16-.54-.22-.78-.06-.253-.11-.487-.16-.7-.06-.213-.1-.393-.12-.54h-.08c-.03.147-.07.327-.12.54-.04.213-.1.447-.16.7-.06.253-.12.52-.2.8-.07.267-.15.54-.24.82l-1.92 6.02h-2l-2.94-10.72h1.82l1.48 5.72c.1.387.2.78.3 1.18.09.387.17.76.24 1.12.08.347.13.647.16.9h.08c.04-.16.08-.36.14-.6.05-.24.1-.493.16-.76s.13-.533.2-.8c.08-.267.15-.507.22-.72l1.9-6.04h1.92l1.84 6.04c.09.307.18.633.28.98.1.347.2.687.28 1.02.08.32.13.607.16.86h.08c.02-.227.07-.507.14-.84.08-.347.16-.72.26-1.12.1-.413.21-.82.32-1.22l1.5-5.72h1.8l-2.98 10.72h-2.06l-1.84-6.04Z" fill="#000"/></svg>