<svg width="1920" height="1080" viewBox="0 0 1920 1080" fill="none" xmlns="http://www.w3.org/2000/svg">
<rect x="1459" y="813" width="218" height="50" rx="25" fill="#D2E3FC"/>
<rect x="1458" y="813" width="200" height="50" rx="25" fill="#1A73E8"/>
<rect x="851" y="813" width="218" height="50" rx="25" fill="#D2E3FC"/>
<rect x="850" y="813" width="122" height="50" rx="25" fill="#1A73E8"/>
<rect x="243" y="813" width="218" height="50" rx="25" fill="#D2E3FC"/>
<rect x="243" y="813" width="50" height="50" rx="25" fill="#1A73E8"/>
<path d="M1452.52 655.5L1477.02 586.5L1548.02 390.5C1549.02 388.833 1550.35 388 1552.02 388H1580.02C1581.69 388 1583.02 388.833 1584.02 390.5L1655.52 586.5L1679.02 655.5L1671.02 658.5L1647.52 589.5C1647.85 589.5 1647.85 589.5 1647.52 589.5L1576.02 393.5C1575.69 392.833 1576.35 393.167 1578.02 394.5C1580.02 395.5 1580.69 396 1580.02 396H1552.02C1551.35 396 1551.85 395.5 1553.52 394.5C1555.52 393.167 1556.35 392.833 1556.02 393.5L1485.02 589.5L1460.52 658.5L1452.52 655.5ZM1651.52 592H1481.02V584H1651.52V592ZM1532.52 350L1555.52 390C1555.52 390.333 1555.52 390.667 1555.52 391C1555.85 391 1556.02 391 1556.02 391L1568.02 449.5C1568.69 451.833 1567.35 453 1564.02 453C1561.02 452.667 1559.69 451.5 1560.02 449.5L1576.02 391C1576.35 390.667 1576.52 390.5 1576.52 390.5C1576.52 390.167 1576.52 390 1576.52 390L1602.52 350L1609.52 354L1583.52 394C1583.19 394.333 1583.19 394.167 1583.52 393.5C1583.85 392.833 1584.02 392.667 1584.02 393L1568.02 451.5C1567.35 453.5 1566.02 454.5 1564.02 454.5C1562.02 454.5 1560.69 453.5 1560.02 451.5L1548.02 393C1548.02 392.667 1548.02 392.833 1548.02 393.5C1548.35 394.167 1548.52 394.333 1548.52 394L1525.52 354L1532.52 350ZM1528.02 560L1483.52 591.5C1482.52 591.833 1482.19 590.833 1482.52 588.5C1483.19 585.833 1483.69 584.833 1484.02 585.5L1508.02 616.5L1502.02 621.5L1478.02 590.5C1477.35 589.5 1477.02 588.5 1477.02 587.5C1477.35 586.167 1477.85 585.167 1478.52 584.5L1523.02 553L1528.02 560ZM1604.52 553L1653.52 584.5C1654.85 585.167 1655.52 586.167 1655.52 587.5C1655.52 588.833 1655.19 589.833 1654.52 590.5L1626.02 621.5L1620.02 616.5L1648.52 585.5C1649.19 584.5 1649.69 585.333 1650.02 588C1650.69 590.667 1650.52 591.833 1649.52 591.5L1600.52 560L1604.52 553ZM1497.52 695L1454.02 660C1453.35 659.333 1454.02 659.167 1456.02 659.5C1458.35 659.5 1459.19 659.833 1458.52 660.5L1399.52 695.5L1395.52 688.5L1454.52 653.5C1455.19 652.833 1455.85 652.667 1456.52 653C1457.52 653 1458.35 653.333 1459.02 654L1502.52 689L1497.52 695ZM1735.52 695.5L1673.02 660.5C1672.35 659.833 1673.02 659.5 1675.02 659.5C1677.35 659.5 1678.19 659.667 1677.52 660L1630.52 695L1625.52 689L1672.52 654C1673.19 653.333 1673.85 653 1674.52 653C1675.52 652.667 1676.35 652.833 1677.02 653.5L1739.52 688.5L1735.52 695.5ZM1505.02 623L1509.02 620C1505.35 633.667 1502.69 644.833 1501.02 653.5C1499.69 661.833 1499.35 668.833 1500.02 674.5C1500.69 680.167 1501.85 685.5 1503.52 690.5C1504.19 691.833 1504.19 693 1503.52 694C1502.85 695.333 1501.69 696 1500.02 696H1397.52C1395.85 696 1394.69 695.167 1394.02 693.5C1393.35 692.167 1393.52 690.833 1394.52 689.5C1398.19 684.5 1401.85 678.5 1405.52 671.5C1409.52 664.5 1414.02 655 1419.02 643C1424.35 630.667 1431.02 614.333 1439.02 594C1447.02 573.667 1457.02 547.667 1469.02 516C1479.69 487.667 1488.52 464 1495.52 445C1502.52 426 1508.19 410.667 1512.52 399C1516.85 387 1519.85 377.5 1521.52 370.5C1523.52 363.167 1524.69 357 1525.02 352C1525.02 350.667 1525.35 349.667 1526.02 349C1527.02 348.333 1528.02 348 1529.02 348H1606.02C1607.02 348 1607.85 348.333 1608.52 349C1609.19 349.667 1609.69 350.5 1610.02 351.5C1611.02 356.167 1612.35 362 1614.02 369C1616.02 375.667 1618.85 384.833 1622.52 396.5C1626.52 407.833 1632.02 423.167 1639.02 442.5C1646.02 461.833 1655.02 486.333 1666.02 516C1678.02 547.667 1688.02 573.667 1696.02 594C1704.02 614.333 1710.52 630.667 1715.52 643C1720.85 655 1725.35 664.5 1729.02 671.5C1733.02 678.5 1736.85 684.5 1740.52 689.5C1741.52 690.833 1741.69 692.167 1741.02 693.5C1740.35 695.167 1739.19 696 1737.52 696H1628.02C1626.69 696 1625.69 695.333 1625.02 694C1624.35 693 1624.19 691.833 1624.52 690.5C1626.52 685.5 1627.69 680.167 1628.02 674.5C1628.69 668.833 1628.35 661.833 1627.02 653.5C1625.69 644.833 1623.02 633.667 1619.02 620L1623.02 623H1505.02ZM1560.02 452H1568.02L1529.52 558L1525.52 552.5H1602.52L1598.52 558L1560.02 452ZM1505.02 615H1623.02C1624.02 615 1624.85 615.333 1625.52 616C1626.19 616.333 1626.69 617 1627.02 618C1631.02 632.667 1633.69 644.667 1635.02 654C1636.35 663 1636.69 670.5 1636.02 676.5C1635.35 682.5 1633.85 688.167 1631.52 693.5L1628.02 688H1737.52L1734.52 694.5C1730.52 689.5 1726.52 683.5 1722.52 676.5C1718.85 669.167 1714.35 659.333 1709.02 647C1703.69 634.667 1697.02 618.333 1689.02 598C1681.02 577.333 1671.02 551 1659.02 519C1647.69 489 1638.35 464.333 1631.02 445C1624.02 425.667 1618.52 410.167 1614.52 398.5C1610.85 386.5 1608.02 377.167 1606.02 370.5C1604.35 363.5 1603.02 357.5 1602.02 352.5L1606.02 356H1529.02L1533.02 352C1532.69 357 1531.52 363.167 1529.52 370.5C1527.85 377.833 1524.85 387.5 1520.52 399.5C1516.19 411.5 1510.35 427.167 1503.02 446.5C1496.02 465.833 1487.02 490 1476.02 519C1464.02 551 1454.02 577.333 1446.02 598C1438.02 618.333 1431.35 634.667 1426.02 647C1420.69 659.333 1416.02 669.167 1412.02 676.5C1408.35 683.5 1404.52 689.5 1400.52 694.5L1397.52 688H1500.02L1496.52 693.5C1494.52 688.167 1493.02 682.5 1492.02 676.5C1491.35 670.5 1491.69 663 1493.02 654C1494.35 644.667 1497.02 632.667 1501.02 618C1501.35 617 1501.85 616.333 1502.52 616C1503.19 615.333 1504.02 615 1505.02 615ZM1568.02 449L1606.52 555C1606.85 556.333 1606.69 557.667 1606.02 559C1605.35 560 1604.19 560.5 1602.52 560.5H1525.52C1524.19 560.5 1523.02 560 1522.02 559C1521.35 557.667 1521.19 556.333 1521.52 555L1560.02 449C1560.69 447.333 1562.02 446.5 1564.02 446.5C1566.02 446.5 1567.35 447.333 1568.02 449Z" fill="#D2E3FC"/>
<path d="M237.52 655.5L262.02 586.5L333.02 390.5C334.02 388.833 335.353 388 337.02 388H365.02C366.686 388 368.02 388.833 369.02 390.5L440.52 586.5L464.02 655.5L456.02 658.5L432.52 589.5C432.853 589.5 432.853 589.5 432.52 589.5L361.02 393.5C360.686 392.833 361.353 393.167 363.02 394.5C365.02 395.5 365.686 396 365.02 396H337.02C336.353 396 336.853 395.5 338.52 394.5C340.52 393.167 341.353 392.833 341.02 393.5L270.02 589.5L245.52 658.5L237.52 655.5ZM436.52 592H266.02V584H436.52V592ZM317.52 350L340.52 390C340.52 390.333 340.52 390.667 340.52 391C340.853 391 341.02 391 341.02 391L353.02 449.5C353.686 451.833 352.353 453 349.02 453C346.02 452.667 344.686 451.5 345.02 449.5L361.02 391C361.353 390.667 361.52 390.5 361.52 390.5C361.52 390.167 361.52 390 361.52 390L387.52 350L394.52 354L368.52 394C368.186 394.333 368.186 394.167 368.52 393.5C368.853 392.833 369.02 392.667 369.02 393L353.02 451.5C352.353 453.5 351.02 454.5 349.02 454.5C347.02 454.5 345.686 453.5 345.02 451.5L333.02 393C333.02 392.667 333.02 392.833 333.02 393.5C333.353 394.167 333.52 394.333 333.52 394L310.52 354L317.52 350ZM313.02 560L268.52 591.5C267.52 591.833 267.186 590.833 267.52 588.5C268.186 585.833 268.686 584.833 269.02 585.5L293.02 616.5L287.02 621.5L263.02 590.5C262.353 589.5 262.02 588.5 262.02 587.5C262.353 586.167 262.853 585.167 263.52 584.5L308.02 553L313.02 560ZM389.52 553L438.52 584.5C439.853 585.167 440.52 586.167 440.52 587.5C440.52 588.833 440.186 589.833 439.52 590.5L411.02 621.5L405.02 616.5L433.52 585.5C434.186 584.5 434.686 585.333 435.02 588C435.686 590.667 435.52 591.833 434.52 591.5L385.52 560L389.52 553ZM282.52 695L239.02 660C238.353 659.333 239.02 659.167 241.02 659.5C243.353 659.5 244.186 659.833 243.52 660.5L184.52 695.5L180.52 688.5L239.52 653.5C240.186 652.833 240.853 652.667 241.52 653C242.52 653 243.353 653.333 244.02 654L287.52 689L282.52 695ZM520.52 695.5L458.02 660.5C457.353 659.833 458.02 659.5 460.02 659.5C462.353 659.5 463.186 659.667 462.52 660L415.52 695L410.52 689L457.52 654C458.186 653.333 458.853 653 459.52 653C460.52 652.667 461.353 652.833 462.02 653.5L524.52 688.5L520.52 695.5ZM290.02 623L294.02 620C290.353 633.667 287.686 644.833 286.02 653.5C284.686 661.833 284.353 668.833 285.02 674.5C285.686 680.167 286.853 685.5 288.52 690.5C289.186 691.833 289.186 693 288.52 694C287.853 695.333 286.686 696 285.02 696H182.52C180.853 696 179.686 695.167 179.02 693.5C178.353 692.167 178.52 690.833 179.52 689.5C183.186 684.5 186.853 678.5 190.52 671.5C194.52 664.5 199.02 655 204.02 643C209.353 630.667 216.02 614.333 224.02 594C232.02 573.667 242.02 547.667 254.02 516C264.686 487.667 273.52 464 280.52 445C287.52 426 293.186 410.667 297.52 399C301.853 387 304.853 377.5 306.52 370.5C308.52 363.167 309.686 357 310.02 352C310.02 350.667 310.353 349.667 311.02 349C312.02 348.333 313.02 348 314.02 348H391.02C392.02 348 392.853 348.333 393.52 349C394.186 349.667 394.686 350.5 395.02 351.5C396.02 356.167 397.353 362 399.02 369C401.02 375.667 403.853 384.833 407.52 396.5C411.52 407.833 417.02 423.167 424.02 442.5C431.02 461.833 440.02 486.333 451.02 516C463.02 547.667 473.02 573.667 481.02 594C489.02 614.333 495.52 630.667 500.52 643C505.853 655 510.353 664.5 514.02 671.5C518.02 678.5 521.853 684.5 525.52 689.5C526.52 690.833 526.686 692.167 526.02 693.5C525.353 695.167 524.186 696 522.52 696H413.02C411.686 696 410.686 695.333 410.02 694C409.353 693 409.186 691.833 409.52 690.5C411.52 685.5 412.686 680.167 413.02 674.5C413.686 668.833 413.353 661.833 412.02 653.5C410.686 644.833 408.02 633.667 404.02 620L408.02 623H290.02ZM345.02 452H353.02L314.52 558L310.52 552.5H387.52L383.52 558L345.02 452ZM290.02 615H408.02C409.02 615 409.853 615.333 410.52 616C411.186 616.333 411.686 617 412.02 618C416.02 632.667 418.686 644.667 420.02 654C421.353 663 421.686 670.5 421.02 676.5C420.353 682.5 418.853 688.167 416.52 693.5L413.02 688H522.52L519.52 694.5C515.52 689.5 511.52 683.5 507.52 676.5C503.853 669.167 499.353 659.333 494.02 647C488.686 634.667 482.02 618.333 474.02 598C466.02 577.333 456.02 551 444.02 519C432.686 489 423.353 464.333 416.02 445C409.02 425.667 403.52 410.167 399.52 398.5C395.853 386.5 393.02 377.167 391.02 370.5C389.353 363.5 388.02 357.5 387.02 352.5L391.02 356H314.02L318.02 352C317.686 357 316.52 363.167 314.52 370.5C312.853 377.833 309.853 387.5 305.52 399.5C301.186 411.5 295.353 427.167 288.02 446.5C281.02 465.833 272.02 490 261.02 519C249.02 551 239.02 577.333 231.02 598C223.02 618.333 216.353 634.667 211.02 647C205.686 659.333 201.02 669.167 197.02 676.5C193.353 683.5 189.52 689.5 185.52 694.5L182.52 688H285.02L281.52 693.5C279.52 688.167 278.02 682.5 277.02 676.5C276.353 670.5 276.686 663 278.02 654C279.353 644.667 282.02 632.667 286.02 618C286.353 617 286.853 616.333 287.52 616C288.186 615.333 289.02 615 290.02 615ZM353.02 449L391.52 555C391.853 556.333 391.686 557.667 391.02 559C390.353 560 389.186 560.5 387.52 560.5H310.52C309.186 560.5 308.02 560 307.02 559C306.353 557.667 306.186 556.333 306.52 555L345.02 449C345.686 447.333 347.02 446.5 349.02 446.5C351.02 446.5 352.353 447.333 353.02 449Z" fill="#D2E3FC"/>
<path d="M222.537 656L242.537 587L300.537 391C301.537 389 302.87 388 304.537 388H327.537C329.87 388 331.204 389 331.537 391L390.037 587L409.537 656L401.537 658L382.037 589C382.37 589 382.37 589 382.037 589L323.537 393C323.204 392.333 324.037 392.667 326.037 394C328.037 395.333 328.537 396 327.537 396H304.537C303.87 396 304.37 395.333 306.037 394C308.037 392.667 308.87 392.333 308.537 393L250.537 589L230.537 658L222.537 656ZM386.037 592H246.537V584H386.037V592ZM311.537 352L308.037 392C308.037 392.667 307.87 392.5 307.537 391.5C307.537 390.167 307.704 389.667 308.037 390L340.037 448.5C341.37 450.833 340.537 452.5 337.537 453.5C334.87 454.167 333.37 453.333 333.037 451L324.037 392.5C324.037 391.833 324.037 391.167 324.037 390.5C324.037 389.833 324.37 389.5 325.037 389.5L368.037 349.5L373.537 354.5L330.537 394.5C329.87 395.167 329.704 394.667 330.037 393C330.704 391.333 331.204 390.833 331.537 391.5L340.537 450C340.87 452.333 340.037 453.833 338.037 454.5C336.037 454.833 334.37 454.167 333.037 452.5L301.537 394C301.204 393.333 301.037 393 301.037 393C301.037 392.667 301.037 392.333 301.037 392L304.537 352H311.537ZM307.037 560L248.537 591.5C247.537 592.167 247.037 591.167 247.037 588.5C247.37 585.5 248.037 584.333 249.037 585L290.537 616L286.037 622L244.537 591C243.204 590.333 242.537 589.333 242.537 588C242.87 586.333 243.704 585.167 245.037 584.5L303.037 553L307.037 560ZM371.037 555L389.537 586.5C389.87 587.167 390.037 587.5 390.037 587.5C390.037 587.167 389.87 587.333 389.537 588L388.037 619H381.537L383.037 588C383.037 587.333 383.037 587.5 383.037 588.5C383.37 589.5 383.37 589.833 383.037 589.5L364.537 558L371.037 555ZM282.037 695.5L224.537 660.5C223.537 659.833 224.204 659.167 226.537 658.5C229.204 657.5 230.37 657.5 230.037 658.5L203.537 693.5L197.037 690.5L223.537 655.5C223.87 654.167 224.537 653.333 225.537 653C226.537 652.667 227.704 652.833 229.037 653.5L286.537 688.5L282.037 695.5ZM476.537 695.5L403.537 660.5C402.537 659.833 403.204 659 405.537 658C407.87 657 408.87 657 408.537 658L392.037 693L385.537 691L402.037 656C402.037 654.667 402.537 653.833 403.537 653.5C404.87 652.833 406.037 652.833 407.037 653.5L480.037 688.5L476.537 695.5ZM288.037 623L292.037 620C289.037 633.667 286.87 644.833 285.537 653.5C284.537 662.167 284.204 669.333 284.537 675C285.204 680.667 286.37 686 288.037 691C288.37 692.333 288.204 693.5 287.537 694.5C286.87 695.5 285.704 696 284.037 696H200.037C198.704 696 197.704 695.333 197.037 694C196.037 692.667 196.037 691.333 197.037 690C200.037 685 203.204 679 206.537 672C209.537 665 213.204 655.5 217.537 643.5C221.87 631.167 227.204 614.833 233.537 594.5C239.87 574.167 247.87 548.167 257.537 516.5C266.537 487.833 273.87 464 279.537 445C285.204 426 289.87 410.667 293.537 399C297.204 387 299.704 377.5 301.037 370.5C302.704 363.167 303.704 357 304.037 352C304.037 350.667 304.37 349.667 305.037 349C306.037 348.333 307.037 348 308.037 348H371.037C372.037 348 372.87 348.333 373.537 349C374.204 349.667 374.704 350.5 375.037 351.5C375.704 356.5 376.704 362.333 378.037 369C379.704 375.667 382.037 384.833 385.037 396.5C388.37 408.167 392.87 423.667 398.537 443C404.204 462.333 411.704 486.833 421.037 516.5C430.704 548.167 438.704 574.167 445.037 594.5C451.704 614.833 457.204 631.167 461.537 643.5C465.87 655.5 469.537 665 472.537 672C475.537 679 478.537 685 481.537 690C482.537 691.333 482.704 692.667 482.037 694C481.37 695.333 480.204 696 478.537 696H388.537C387.204 696 386.204 695.5 385.537 694.5C384.87 693.5 384.704 692.333 385.037 691C386.704 686 387.704 680.667 388.037 675C388.704 669.333 388.37 662.167 387.037 653.5C386.037 644.833 383.87 633.667 380.537 620L384.537 623H288.037ZM332.537 451.5H340.537L309.037 557.5L305.037 552.5H368.037L364.037 557.5L332.537 451.5ZM288.037 615H384.537C385.537 615 386.37 615.333 387.037 616C387.704 616.667 388.204 617.333 388.537 618C391.87 632.333 394.037 644.167 395.037 653.5C396.37 662.5 396.704 670 396.037 676C395.704 682 394.537 687.667 392.537 693L388.537 688H478.537L475.037 694C472.037 689 468.87 683 465.537 676C462.537 668.667 458.704 658.833 454.037 646.5C449.704 634.167 444.204 617.833 437.537 597.5C431.204 576.833 423.037 550.5 413.037 518.5C404.037 488.5 396.537 463.833 390.537 444.5C384.87 425.167 380.37 409.667 377.037 398C374.037 386 371.704 376.667 370.037 370C368.704 363.333 367.704 357.5 367.037 352.5L371.037 356H308.037L312.037 352C311.704 357 310.704 363.167 309.037 370.5C307.704 377.833 305.204 387.5 301.537 399.5C297.87 411.5 293.204 427.167 287.537 446.5C281.87 465.5 274.537 489.5 265.537 518.5C255.87 550.5 247.704 576.833 241.037 597.5C234.37 617.833 228.704 634.167 224.037 646.5C219.704 658.833 216.037 668.667 213.037 676C210.037 683 206.87 689 203.537 694L200.037 688H284.037L280.537 693C278.87 687.667 277.704 682 277.037 676C276.37 670 276.537 662.5 277.537 653.5C278.87 644.167 281.037 632.333 284.037 618C284.37 617.333 284.87 616.667 285.537 616C286.204 615.333 287.037 615 288.037 615ZM340.537 449.5L372.037 555.5C372.37 556.833 372.037 558 371.037 559C370.37 560 369.37 560.5 368.037 560.5H305.037C303.704 560.5 302.537 560 301.537 559C300.87 558 300.704 556.833 301.037 555.5L332.537 449.5C333.204 447.5 334.537 446.5 336.537 446.5C338.87 446.5 340.204 447.5 340.537 449.5Z" fill="#3C4043"/>
<path d="M832.52 655.5L857.02 586.5L928.02 390.5C929.02 388.833 930.353 388 932.02 388H960.02C961.686 388 963.02 388.833 964.02 390.5L1035.52 586.5L1059.02 655.5L1051.02 658.5L1027.52 589.5C1027.85 589.5 1027.85 589.5 1027.52 589.5L956.02 393.5C955.686 392.833 956.353 393.167 958.02 394.5C960.02 395.5 960.686 396 960.02 396H932.02C931.353 396 931.853 395.5 933.52 394.5C935.52 393.167 936.353 392.833 936.02 393.5L865.02 589.5L840.52 658.5L832.52 655.5ZM1031.52 592H861.02V584H1031.52V592ZM912.52 350L935.52 390C935.52 390.333 935.52 390.667 935.52 391C935.853 391 936.02 391 936.02 391L948.02 449.5C948.686 451.833 947.353 453 944.02 453C941.02 452.667 939.686 451.5 940.02 449.5L956.02 391C956.353 390.667 956.52 390.5 956.52 390.5C956.52 390.167 956.52 390 956.52 390L982.52 350L989.52 354L963.52 394C963.186 394.333 963.186 394.167 963.52 393.5C963.853 392.833 964.02 392.667 964.02 393L948.02 451.5C947.353 453.5 946.02 454.5 944.02 454.5C942.02 454.5 940.686 453.5 940.02 451.5L928.02 393C928.02 392.667 928.02 392.833 928.02 393.5C928.353 394.167 928.52 394.333 928.52 394L905.52 354L912.52 350ZM908.02 560L863.52 591.5C862.52 591.833 862.186 590.833 862.52 588.5C863.186 585.833 863.686 584.833 864.02 585.5L888.02 616.5L882.02 621.5L858.02 590.5C857.353 589.5 857.02 588.5 857.02 587.5C857.353 586.167 857.853 585.167 858.52 584.5L903.02 553L908.02 560ZM984.52 553L1033.52 584.5C1034.85 585.167 1035.52 586.167 1035.52 587.5C1035.52 588.833 1035.19 589.833 1034.52 590.5L1006.02 621.5L1000.02 616.5L1028.52 585.5C1029.19 584.5 1029.69 585.333 1030.02 588C1030.69 590.667 1030.52 591.833 1029.52 591.5L980.52 560L984.52 553ZM877.52 695L834.02 660C833.353 659.333 834.02 659.167 836.02 659.5C838.353 659.5 839.186 659.833 838.52 660.5L779.52 695.5L775.52 688.5L834.52 653.5C835.186 652.833 835.853 652.667 836.52 653C837.52 653 838.353 653.333 839.02 654L882.52 689L877.52 695ZM1115.52 695.5L1053.02 660.5C1052.35 659.833 1053.02 659.5 1055.02 659.5C1057.35 659.5 1058.19 659.667 1057.52 660L1010.52 695L1005.52 689L1052.52 654C1053.19 653.333 1053.85 653 1054.52 653C1055.52 652.667 1056.35 652.833 1057.02 653.5L1119.52 688.5L1115.52 695.5ZM885.02 623L889.02 620C885.353 633.667 882.686 644.833 881.02 653.5C879.686 661.833 879.353 668.833 880.02 674.5C880.686 680.167 881.853 685.5 883.52 690.5C884.186 691.833 884.186 693 883.52 694C882.853 695.333 881.686 696 880.02 696H777.52C775.853 696 774.686 695.167 774.02 693.5C773.353 692.167 773.52 690.833 774.52 689.5C778.186 684.5 781.853 678.5 785.52 671.5C789.52 664.5 794.02 655 799.02 643C804.353 630.667 811.02 614.333 819.02 594C827.02 573.667 837.02 547.667 849.02 516C859.686 487.667 868.52 464 875.52 445C882.52 426 888.186 410.667 892.52 399C896.853 387 899.853 377.5 901.52 370.5C903.52 363.167 904.686 357 905.02 352C905.02 350.667 905.353 349.667 906.02 349C907.02 348.333 908.02 348 909.02 348H986.02C987.02 348 987.853 348.333 988.52 349C989.186 349.667 989.686 350.5 990.02 351.5C991.02 356.167 992.353 362 994.02 369C996.02 375.667 998.853 384.833 1002.52 396.5C1006.52 407.833 1012.02 423.167 1019.02 442.5C1026.02 461.833 1035.02 486.333 1046.02 516C1058.02 547.667 1068.02 573.667 1076.02 594C1084.02 614.333 1090.52 630.667 1095.52 643C1100.85 655 1105.35 664.5 1109.02 671.5C1113.02 678.5 1116.85 684.5 1120.52 689.5C1121.52 690.833 1121.69 692.167 1121.02 693.5C1120.35 695.167 1119.19 696 1117.52 696H1008.02C1006.69 696 1005.69 695.333 1005.02 694C1004.35 693 1004.19 691.833 1004.52 690.5C1006.52 685.5 1007.69 680.167 1008.02 674.5C1008.69 668.833 1008.35 661.833 1007.02 653.5C1005.69 644.833 1003.02 633.667 999.02 620L1003.02 623H885.02ZM940.02 452H948.02L909.52 558L905.52 552.5H982.52L978.52 558L940.02 452ZM885.02 615H1003.02C1004.02 615 1004.85 615.333 1005.52 616C1006.19 616.333 1006.69 617 1007.02 618C1011.02 632.667 1013.69 644.667 1015.02 654C1016.35 663 1016.69 670.5 1016.02 676.5C1015.35 682.5 1013.85 688.167 1011.52 693.5L1008.02 688H1117.52L1114.52 694.5C1110.52 689.5 1106.52 683.5 1102.52 676.5C1098.85 669.167 1094.35 659.333 1089.02 647C1083.69 634.667 1077.02 618.333 1069.02 598C1061.02 577.333 1051.02 551 1039.02 519C1027.69 489 1018.35 464.333 1011.02 445C1004.02 425.667 998.52 410.167 994.52 398.5C990.853 386.5 988.02 377.167 986.02 370.5C984.353 363.5 983.02 357.5 982.02 352.5L986.02 356H909.02L913.02 352C912.686 357 911.52 363.167 909.52 370.5C907.853 377.833 904.853 387.5 900.52 399.5C896.186 411.5 890.353 427.167 883.02 446.5C876.02 465.833 867.02 490 856.02 519C844.02 551 834.02 577.333 826.02 598C818.02 618.333 811.353 634.667 806.02 647C800.686 659.333 796.02 669.167 792.02 676.5C788.353 683.5 784.52 689.5 780.52 694.5L777.52 688H880.02L876.52 693.5C874.52 688.167 873.02 682.5 872.02 676.5C871.353 670.5 871.686 663 873.02 654C874.353 644.667 877.02 632.667 881.02 618C881.353 617 881.853 616.333 882.52 616C883.186 615.333 884.02 615 885.02 615ZM948.02 449L986.52 555C986.853 556.333 986.686 557.667 986.02 559C985.353 560 984.186 560.5 982.52 560.5H905.52C904.186 560.5 903.02 560 902.02 559C901.353 557.667 901.186 556.333 901.52 555L940.02 449C940.686 447.333 942.02 446.5 944.02 446.5C946.02 446.5 947.353 447.333 948.02 449Z" fill="#3C4043"/>
<path d="M1508.54 656L1528.54 587L1586.54 391C1587.2 389 1588.54 388 1590.54 388H1613.54C1615.54 388 1616.87 389 1617.54 391L1676.04 587L1695.04 656L1687.04 658L1668.04 589L1609.54 393C1609.2 392.333 1610.04 392.667 1612.04 394C1614.04 395.333 1614.54 396 1613.54 396H1590.54C1589.54 396 1590.04 395.333 1592.04 394C1594.04 392.667 1594.87 392.333 1594.54 393L1536.54 589L1516.54 658L1508.54 656ZM1672.04 592H1532.54V584H1672.04V592ZM1552.54 349.5L1593.54 389.5C1593.87 389.833 1594.2 390.333 1594.54 391C1594.87 391.667 1594.7 392.167 1594.04 392.5L1582.04 451C1581.7 453.333 1580.2 454 1577.54 453C1574.87 452 1574.04 450.5 1575.04 448.5L1610.04 390C1610.7 389.667 1610.87 390.167 1610.54 391.5C1610.54 392.5 1610.37 392.667 1610.04 392L1609.04 352H1616.04L1617.04 392C1617.37 392.333 1617.54 392.667 1617.54 393C1617.54 393 1617.37 393.333 1617.04 394L1581.54 452.5C1580.54 454.167 1579.04 454.667 1577.04 454C1575.04 453.333 1574.2 452 1574.54 450L1587.04 391.5C1587.04 390.833 1587.2 391.333 1587.54 393C1587.87 394.667 1587.87 395.167 1587.54 394.5L1547.04 354.5L1552.54 349.5ZM1550.54 557.5L1536.04 589C1535.7 589.333 1535.54 589.167 1535.54 588.5C1535.87 587.833 1536.04 587.833 1536.04 588.5L1533.54 619.5L1527.04 618.5L1529.04 587.5C1529.04 586.833 1528.87 586.667 1528.54 587C1528.54 587.333 1528.7 587.333 1529.04 587L1543.54 555.5L1550.54 557.5ZM1611.54 553L1673.54 584.5C1675.2 584.833 1676.04 585.833 1676.04 587.5C1676.04 589.167 1675.54 590.333 1674.54 591L1629.04 622L1624.04 616L1669.54 585C1670.87 584 1671.7 585 1672.04 588C1672.37 591 1671.7 592.167 1670.04 591.5L1608.04 560L1611.54 553ZM1522.54 693L1509.04 658C1509.04 656.667 1510.2 656.667 1512.54 658C1514.87 659 1515.37 659.833 1514.04 660.5L1444.04 695.5L1440.54 688.5L1510.54 653.5C1511.87 652.833 1513.04 652.833 1514.04 653.5C1515.37 653.833 1516.04 654.667 1516.04 656L1529.54 691L1522.54 693ZM1717.04 694L1688.04 659C1687.37 658 1688.2 657.833 1690.54 658.5C1693.2 659.167 1694.2 659.833 1693.54 660.5L1633.04 695.5L1628.54 688.5L1689.04 653.5C1690.04 652.833 1691.04 652.667 1692.04 653C1693.04 653.333 1693.87 654 1694.54 655L1723.54 690L1717.04 694ZM1530.04 623L1534.04 620C1531.04 633.667 1528.87 644.833 1527.54 653.5C1526.54 662.167 1526.2 669.333 1526.54 675C1527.2 680.667 1528.37 686 1530.04 691C1530.37 692.333 1530.04 693.5 1529.04 694.5C1528.37 695.5 1527.37 696 1526.04 696H1442.04C1440.7 696 1439.54 695.333 1438.54 694C1437.87 692.667 1438.04 691.333 1439.04 690C1442.04 685 1445.04 679 1448.04 672C1451.37 665 1455.2 655.5 1459.54 643.5C1463.87 631.167 1469.2 614.833 1475.54 594.5C1481.87 574.167 1489.87 548.167 1499.54 516.5C1508.54 487.833 1515.87 464 1521.54 445C1527.2 426 1531.87 410.667 1535.54 399C1539.2 387 1541.7 377.5 1543.04 370.5C1544.7 363.167 1545.54 357 1545.54 352C1545.54 350.667 1545.87 349.667 1546.54 349C1547.54 348.333 1548.54 348 1549.54 348H1612.54C1613.54 348 1614.37 348.333 1615.04 349C1615.7 349.667 1616.2 350.5 1616.54 351.5C1617.54 356.5 1618.7 362.333 1620.04 369C1621.7 375.667 1624.04 384.833 1627.04 396.5C1630.37 408.167 1634.87 423.667 1640.54 443C1646.2 462.333 1653.7 486.833 1663.04 516.5C1672.7 548.167 1680.7 574.167 1687.04 594.5C1693.7 614.833 1699.04 631.167 1703.04 643.5C1707.37 655.5 1711.04 665 1714.04 672C1717.37 679 1720.54 685 1723.54 690C1724.54 691.333 1724.7 692.667 1724.04 694C1723.37 695.333 1722.2 696 1720.54 696H1630.54C1629.2 696 1628.2 695.5 1627.54 694.5C1626.87 693.5 1626.7 692.333 1627.04 691C1628.7 686 1629.7 680.667 1630.04 675C1630.7 669.333 1630.37 662.167 1629.04 653.5C1628.04 644.833 1625.87 633.667 1622.54 620L1626.54 623H1530.04ZM1574.04 451.5H1582.04L1551.04 557.5L1547.04 552.5H1610.04L1606.04 557.5L1574.04 451.5ZM1530.04 615H1626.54C1627.54 615 1628.37 615.333 1629.04 616C1629.7 616.667 1630.2 617.333 1630.54 618C1633.87 632.333 1636.04 644.167 1637.04 653.5C1638.37 662.5 1638.7 670 1638.04 676C1637.37 682 1636.2 687.667 1634.54 693L1630.54 688H1720.54L1717.04 694C1713.7 689 1710.54 683 1707.54 676C1704.54 668.667 1700.7 658.833 1696.04 646.5C1691.7 634.167 1686.2 617.833 1679.54 597.5C1673.2 576.833 1665.04 550.5 1655.04 518.5C1646.04 488.5 1638.54 463.833 1632.54 444.5C1626.87 425.167 1622.37 409.667 1619.04 398C1616.04 386 1613.7 376.667 1612.04 370C1610.7 363.333 1609.54 357.5 1608.54 352.5L1612.54 356H1549.54L1553.54 352C1553.54 357 1552.7 363.167 1551.04 370.5C1549.7 377.833 1547.2 387.5 1543.54 399.5C1539.87 411.5 1535.04 427.167 1529.04 446.5C1523.37 465.5 1516.2 489.5 1507.54 518.5C1497.54 550.5 1489.2 576.833 1482.54 597.5C1476.2 617.833 1470.7 634.167 1466.04 646.5C1461.7 658.833 1458.04 668.667 1455.04 676C1452.04 683 1448.87 689 1445.54 694L1442.04 688H1526.04L1522.04 693C1520.7 687.667 1519.7 682 1519.04 676C1518.37 670 1518.54 662.5 1519.54 653.5C1520.87 644.167 1523.04 632.333 1526.04 618C1526.37 617.333 1526.87 616.667 1527.54 616C1528.2 615.333 1529.04 615 1530.04 615ZM1582.04 449.5L1614.04 555.5C1614.37 556.833 1614.04 558 1613.04 559C1612.37 560 1611.37 560.5 1610.04 560.5H1547.04C1545.7 560.5 1544.54 560 1543.54 559C1542.87 558 1542.7 556.833 1543.04 555.5L1574.04 449.5C1574.7 447.5 1576.04 446.5 1578.04 446.5C1580.37 446.5 1581.7 447.5 1582.04 449.5Z" fill="#3C4043"/>
</svg>
