<svg xmlns="http://www.w3.org/2000/svg" width="1920" height="1080" fill="none"><path fill="#FF6D7F" d="M186.145 288.445c17.138 0 29.791 3.259 37.959 9.776 8.209 6.474 12.314 15.784 12.314 27.929 0 9.437-2.878 17.224-8.633 23.36-5.755 6.094-14.853 9.14-27.295 9.14-1.439 0-2.899-.042-4.38-.127a96.87 96.87 0 0 1-4.633-.38v-10.347c1.565.169 3.046.296 4.443.381 1.439.084 2.814.127 4.126.127 9.437 0 16.102-1.883 19.995-5.65 3.893-3.766 5.84-9.415 5.84-16.948 0-9.056-2.984-15.911-8.95-20.566-5.967-4.655-17.118-6.983-33.452-6.983h-48.687v-9.712h51.353Zm70.966-30.913v57.066h-8.569v-57.066h8.569Zm19.868 25.264 19.678 17.266c4.528-3.978 9.797-7.089 15.806-9.332 6.051-2.242 12.991-3.364 20.82-3.364 6.052 0 11.511.995 16.377 2.984 4.867 1.946 8.993 4.633 12.378 8.061 3.428 3.428 6.052 7.469 7.871 12.124 1.82 4.613 2.73 9.649 2.73 15.108 0 4.781-.699 9.183-2.095 13.203-1.354 3.978-3.407 7.448-6.157 10.41-2.709 2.92-6.094 5.205-10.157 6.855-4.062 1.651-8.759 2.476-14.091 2.476-9.522 0-16.271-2.116-20.249-6.348-3.978-4.274-5.967-9.437-5.967-15.488 0-5.163 1.841-9.522 5.522-13.076 3.682-3.555 8.337-5.332 13.965-5.332v-8.95h9.014v24.184h-8.95v-7.934c-2.878.084-5.184 1.1-6.919 3.046-1.735 1.905-2.603 4.507-2.603 7.808 0 4.02 1.333 7.194 3.999 9.522 2.666 2.285 6.581 3.427 11.743 3.427 7.194 0 12.759-2.2 16.695-6.601 3.978-4.401 5.966-10.051 5.966-16.949 0-9.14-2.941-16.313-8.823-21.518-5.84-5.247-13.012-7.871-21.518-7.871-7.491 0-14.134 1.502-19.932 4.507-5.797 2.962-10.833 7.151-15.107 12.568-4.232 5.374-7.745 11.743-10.537 19.106-2.751 7.364-4.846 15.446-6.285 24.249h-10.029a184.077 184.077 0 0 1 2.793-13.584c1.1-4.528 2.433-8.929 3.999-13.204a101.306 101.306 0 0 1 5.586-12.314c2.158-3.936 4.613-7.554 7.363-10.855l-19.233-16.948 6.347-7.236Zm109.244-25.264h8.569v19.805c3.766-1.777 7.511-2.666 11.235-2.666 4.401 0 8.104 1.164 11.109 3.491 3.004 2.328 4.507 5.671 4.507 10.029v26.407h-8.57v-24.312c0-3.724-.698-6.094-2.094-7.109-1.355-1.016-3.513-1.524-6.475-1.524-3.343 0-6.58.762-9.712 2.285v30.66h-8.569v-57.066Zm119.209 100.23h-1.46V256.644h1.333l81.567 49.194v2.285l-81.44 49.639Zm8.569-83.535v65.634h1.016l54.526-32.881v-.761l-54.844-31.992h-.698Zm10.474 32.753c0-1.904.698-3.639 2.094-5.205 1.397-1.608 3.238-2.412 5.523-2.412 2.243 0 4.062.783 5.459 2.349 1.439 1.566 2.158 3.322 2.158 5.268 0 1.947-.719 3.703-2.158 5.269-1.397 1.566-3.216 2.349-5.459 2.349-2.201 0-4.02-.762-5.459-2.286-1.439-1.523-2.158-3.3-2.158-5.332Zm70.014-.634h4.253c7.363 0 12.78-1.524 16.25-4.571 3.513-3.046 5.269-8.505 5.269-16.377 0-7.744-1.778-12.949-5.332-15.615-3.513-2.666-8.95-3.999-16.314-3.999h-4.062v-8.252h5.205c10.283 0 17.752 2.328 22.407 6.983 4.655 4.655 6.982 11.616 6.982 20.883 0 10.03-2.306 17.414-6.918 22.154-4.571 4.697-12.717 7.046-24.439 7.046h-3.301v-8.252Zm76.68-3.936h2.539v-10.981h10.029v10.981c5.121 0 9.987-1.693 14.6-5.078 4.655-3.428 6.982-7.977 6.982-13.647 0-6.475-2.687-11.172-8.061-14.092-5.375-2.962-12.78-4.444-22.217-4.444-2.158 0-4.274.106-6.348.318a57.689 57.689 0 0 0-5.776.762 47.757 47.757 0 0 0-4.951 1.079c-1.481.423-2.73.888-3.745 1.396l16.948 33.706Zm2.539 21.074v-12.187h-2.539l-16.948 34.341c2.92 1.1 6.39 2.031 10.41 2.793 4.02.719 8.188 1.079 12.505 1.079 8.76 0 15.636-1.545 20.63-4.634 5.035-3.089 7.553-7.66 7.553-13.711 0-6.644-2.306-11.616-6.919-14.917-4.612-3.301-9.5-4.951-14.663-4.951v12.187h-10.029Zm-13.203-12.187H641.97v-8.887h18.535l-18.472-36.88v-3.999c3.089-1.312 5.713-2.243 7.871-2.793a75.745 75.745 0 0 1 7.11-1.396c2.581-.423 5.289-.762 8.125-1.016 2.877-.254 5.84-.381 8.886-.381 13.246 0 23.487 2.497 30.723 7.491 7.236 4.993 10.855 11.256 10.855 18.789 0 6.855-2.095 12.166-6.285 15.932-4.147 3.724-8.336 6.263-12.568 7.617 4.274 1.016 8.485 3.576 12.632 7.681s6.221 9.775 6.221 17.012c0 9.31-3.64 16.334-10.918 21.074-7.279 4.697-16.504 7.046-27.676 7.046-4.063 0-7.554-.148-10.474-.444a97.89 97.89 0 0 1-8.379-1.206 86.293 86.293 0 0 1-7.553-1.778c-2.37-.677-5.227-1.756-8.57-3.237v-3.491l18.472-37.134Zm108.989-.698h-44.053v-8.125l31.485-35.801h-31.485v-9.141h44.053v7.808l-31.929 36.118h31.929v9.141ZM896.892 357c-17.139 0-29.813-3.237-38.023-9.712-8.167-6.517-12.251-15.848-12.251-27.993 0-9.437 2.878-17.202 8.633-23.296 5.755-6.136 14.853-9.204 27.295-9.204 1.439 0 2.899.042 4.38.127 1.481.085 3.025.211 4.634.381v10.346a92.083 92.083 0 0 0-4.507-.38 66.922 66.922 0 0 0-4.063-.127c-9.437 0-16.102 1.883-19.995 5.649-3.893 3.766-5.84 9.416-5.84 16.948 0 9.056 2.984 15.912 8.95 20.567 5.967 4.655 17.118 6.982 33.453 6.982h48.686V357h-51.352Zm67.666-25.264h2.793c7.955 1.185 14.366 1.778 19.233 1.778 5.882 0 10.897-.656 15.046-1.968 4.19-1.354 7.62-3.195 10.28-5.523 2.67-2.369 4.61-5.162 5.84-8.378 1.23-3.217 1.84-6.708 1.84-10.474 0-5.036-.89-9.225-2.66-12.568-1.74-3.344-4.13-5.988-7.18-7.935-3-1.989-6.51-3.385-10.534-4.189-3.978-.805-8.21-1.207-12.695-1.207-7.11 0-13.331.466-18.663 1.397h-3.3v-25.137h10.092v14.79c5.205-.211 8.654-.317 10.347-.317 6.39 0 12.315.571 17.773 1.714 5.5 1.142 10.24 3.068 14.22 5.776 4.02 2.708 7.17 6.327 9.46 10.855 2.28 4.485 3.43 10.071 3.43 16.757 0 5.417-.83 10.326-2.48 14.727-1.65 4.359-4.27 8.104-7.87 11.235-3.6 3.09-8.23 5.48-13.9 7.173-5.674 1.693-12.529 2.539-20.569 2.539-3.301 0-6.771-.169-10.411-.508L974.587 357h-10.029v-25.264Zm31.357-36.943v23.994h-10.029v-23.994h10.029Zm67.225-42.573c4.16 0 7.67-3.38 7.67-7.67 0-4.16-3.51-7.67-7.67-7.67-4.29 0-7.8 3.51-7.8 7.67 0 4.29 3.51 7.67 7.8 7.67Zm39.23 105.542h-1.46V256.644h1.33l81.57 49.194v2.285l-81.44 49.639Zm8.56-83.535v65.634h1.02l54.53-32.881v-.761l-54.85-31.992h-.7Zm10.48 32.753c0-1.904.7-3.639 2.09-5.205 1.4-1.608 3.24-2.412 5.53-2.412 2.24 0 4.06.783 5.45 2.349 1.44 1.566 2.16 3.322 2.16 5.268 0 1.947-.72 3.703-2.16 5.269-1.39 1.566-3.21 2.349-5.45 2.349-2.21 0-4.02-.762-5.46-2.286-1.44-1.523-2.16-3.3-2.16-5.332Zm98.07-51.035c15.95 0 27.53 4.296 34.72 12.886 7.2 8.548 10.79 20.778 10.79 36.69 0 17.561-3.51 30.807-10.53 39.736-7.03 8.887-17.04 13.33-30.03 13.33-2.54 0-5.25-.127-8.12-.381-2.84-.212-5.67-.55-8.51-1.016a88.867 88.867 0 0 1-8.13-1.713c-2.58-.678-4.84-1.46-6.79-2.349v-2.476l17.59-44.37-17.59-43.545v-2.221a83.051 83.051 0 0 1 5.97-1.778 66.888 66.888 0 0 1 6.66-1.46c2.29-.423 4.62-.74 6.99-.952 2.37-.254 4.69-.381 6.98-.381Zm-13.33 90.454c2.28.677 5.08 1.355 8.38 2.032 3.34.634 6.47.952 9.39.952 10.33 0 18.03-3.915 23.11-11.743 5.12-7.829 7.68-18.62 7.68-32.373 0-13.627-2.88-23.719-8.63-30.279-5.72-6.559-14.18-9.839-25.39-9.839-3.73 0-6.84.297-9.34.889-2.49.593-4.42 1.122-5.77 1.587l15.68 37.896-15.11 40.878Zm71.66-88.867h8.57v36.372c0 4.613.91 7.871 2.73 9.776 1.87 1.862 4.47 2.793 7.81 2.793s5.84-.995 7.49-2.984c1.69-1.989 2.54-4.739 2.54-8.252v-6.284h8.57v7.173c0 5.713-1.59 10.22-4.76 13.52-3.13 3.301-7.77 4.952-13.9 4.952-6.35 0-11.11-1.757-14.28-5.269-3.18-3.512-4.77-8.548-4.77-15.107v-36.69Zm115.09 0h16.63c22.85 0 38.68 3.661 47.48 10.982 8.8 7.278 13.2 19.699 13.2 37.26 0 19.763-4.55 33.241-13.65 40.435-9.09 7.194-24.81 10.791-47.16 10.791h-16.5v-9.712h14.91c20.74 0 34.47-2.941 41.2-8.823 6.77-5.925 10.16-16.398 10.16-31.421 0-14.769-3.39-25.094-10.16-30.977-6.73-5.882-20.5-8.823-41.32-8.823h-14.79v-9.712Zm142.12 30.913c17.14 0 29.79 3.259 37.96 9.776 8.21 6.474 12.31 15.784 12.31 27.929 0 9.437-2.87 17.224-8.63 23.36-5.75 6.094-14.85 9.14-27.29 9.14-1.44 0-2.9-.042-4.38-.127a97.459 97.459 0 0 1-4.64-.38v-10.347c1.57.169 3.05.296 4.45.381 1.44.084 2.81.127 4.12.127 9.44 0 16.1-1.883 20-5.65 3.89-3.766 5.84-9.415 5.84-16.948 0-9.056-2.99-15.911-8.95-20.566-5.97-4.655-17.12-6.983-33.45-6.983h-48.69v-9.712h51.35Zm14.6 23.169v23.994h-10.03v-23.994h10.03Zm93.38-9.839c1.65.889 3.25 1.587 4.82 2.095 1.61.508 3.03.762 4.25.762 3.77 0 6.6-1.312 8.51-3.936 1.9-2.666 2.85-6.665 2.85-11.997 0-6.855-1.6-12.505-4.82-16.948-3.17-4.443-8.57-6.665-16.19-6.665-9.52 0-17.39 3.66-23.61 10.981-6.18 7.279-9.27 17.393-9.27 30.342 0 15.065 3.03 25.899 9.08 32.5 6.05 6.559 15.19 9.839 27.42 9.839 3.98 0 8.28-.423 12.89-1.269 4.61-.889 9.41-2.497 14.41-4.825v11.109c-2.12 1.058-5.55 2.137-10.29 3.237-4.74 1.058-10.49 1.587-17.26 1.587-15.45 0-27.06-4.02-34.85-12.061-7.79-8.082-11.68-21.222-11.68-39.419 0-17.096 4.21-29.897 12.63-38.403 8.47-8.506 18.62-12.759 30.47-12.759 9.35 0 16.91 2.73 22.66 8.189 5.8 5.416 8.7 13.372 8.7 23.867 0 9.056-2.22 15.658-6.67 19.805-4.4 4.147-9.01 6.22-13.84 6.22-2.36 0-4.59-.296-6.66-.888-2.07-.635-4.23-1.693-6.47-3.174l2.92-8.189Zm87.02 8.824h-44.05v-8.125l31.48-35.801h-31.48v-9.141h44.05v7.808l-31.93 36.118h31.93v9.141ZM203.53 716.74v5.59c0 16.77-7.8 29.12-26.52 29.12h-15.08v11.05h15.08c25.22 0 38.87-15.73 38.87-40.69v-4.55c0-24.96-13.65-40.69-38.87-40.69h-45.76v11.05h45.76c18.72 0 26.52 12.35 26.52 29.12Zm29.897 26.78h10.66v-48.1h-10.66v48.1Zm76.979-41.6v12.09c-13.39 1.04-19.63 11.31-19.63 24.18 0 17.42 10.53 26.26 28.6 26.26 23.14 0 31.98-14.17 31.98-40.17v-7.15c0-25.87-11.7-42.38-39.13-42.38-13.91 0-24.31 4.81-31.85 14.56l-20.02-14.95v15.21l14.43 9.23c-6.76 14.56-9.75 35.62-9.75 63.7h12.35c0-51.35 8.58-76.83 34.84-76.83 18.85 0 26.78 11.57 26.78 30.55v8.97c0 17.42-4.81 28.34-19.63 28.34-11.18 0-16.77-4.81-16.77-15.34 0-9.62 3.64-13.65 7.8-15.21v14.3h10.66v-35.36h-10.66Zm58.48 41.6h11.44v-15.47c0-6.11 1.43-11.57 9.49-11.57 6.37 0 8.06 3.51 8.06 10.66v16.38h11.44v-17.68c0-10.92-3.9-19.11-16.12-19.11-6.11 0-10.4 1.69-12.87 4.68v-15.99h-11.44v48.1Zm150.323-66.95v85.93h11.57l67.34-36.01v-13.91l-67.34-36.01h-11.57Zm12.35 14.3 55.12 28.6-55.12 28.47v-57.07Zm11.05 28.6c0 3.77 2.99 6.76 6.76 6.76 3.77 0 6.89-2.99 6.89-6.76 0-3.77-3.12-6.89-6.89-6.89-3.77 0-6.76 3.12-6.76 6.89Zm97.998-1.69v3.25c0 10.01-5.59 12.22-11.57 12.22h-17.29v10.27h17.55c13.26 0 22.75-5.59 22.75-22.49v-3.25c0-16.77-9.49-22.36-22.75-22.36h-17.55v10.27h17.29c5.98 0 11.57 2.34 11.57 12.09Zm102.4 21.06c0-9.49-3.51-17.81-13.78-19.63 10.27-1.82 13.78-9.49 13.78-18.98 0-16.9-8.45-23.66-32.76-23.66h-41.99v7.93l13.91 29.12h-13.91v11.05h14.3l-14.3 29.9v7.93h41.99c24.31 0 32.76-6.76 32.76-23.66Zm-39.39-36.92v11.7h-10.01l-11.96-26h28.6c16.12 0 20.41 3.25 20.41 12.61 0 9.1-3.12 12.74-16.38 13.26v-11.57h-10.66Zm0 35.36h10.66V724.8c13.26.65 16.38 4.94 16.38 14.04 0 9.36-4.29 12.61-20.41 12.61h-28.6l12.48-26.78h9.49v12.61Zm93.839-41.86h-36.14v10.14h21.84l-22.62 28.99v8.97h37.31v-10.14h-23.27l22.88-29.12v-8.84Zm116.14 26.91v-5.59c0-16.77 7.8-29.12 26.52-29.12h15.08v-11.05h-15.08c-25.22 0-38.87 15.73-38.87 40.69v4.55c0 24.96 13.65 40.69 38.87 40.69h45.76v-11.05h-45.76c-18.72 0-26.52-12.35-26.52-29.12Zm128.794-47.58c-14.43 0-23.92 6.76-28.6 14.04v-12.22h-12.35v34.84h10.79c1.82-5.46 7.02-25.74 30.16-25.74 19.63 0 26.13 14.17 26.13 31.07v5.59c0 16.9-6.5 31.2-26.13 31.2-23.14 0-28.34-20.41-30.16-25.87h-10.79v34.84h12.35v-11.96c4.55 7.28 14.3 13.91 28.6 13.91 26.39 0 38.48-17.68 38.48-42.64v-4.55c0-24.96-12.09-42.51-38.48-42.51Zm-6.37 29.77v30.16h10.66v-30.16h-10.66Zm63.74-13.52h12.87v-14.3h-12.87V691Zm34.28-14.43v85.93h11.57l67.34-36.01v-13.91l-67.34-36.01h-11.57Zm12.35 14.3 55.12 28.6-55.12 28.47v-57.07Zm11.05 28.6c0 3.77 2.99 6.76 6.76 6.76 3.77 0 6.89-2.99 6.89-6.76 0-3.77-3.12-6.89-6.89-6.89-3.77 0-6.76 3.12-6.76 6.89Zm112.43-42.9h-42.64v7.93l15.73 34.97-15.73 35.1v7.93h42.64c25.22 0 38.87-15.73 38.87-40.69v-4.55c0-24.96-13.65-40.69-38.87-40.69Zm26.52 45.76c0 16.77-7.8 29.12-26.52 29.12h-28.08l14.04-31.98-14.04-31.85h28.08c18.72 0 26.52 12.35 26.52 29.12v5.59Zm62.61-1.95c0 6.5-1.3 13.39-10.53 13.39-9.36 0-10.79-5.59-10.79-12.09v-26.26h-11.44v26.52c0 12.48 4.81 21.97 22.23 21.97 17.29 0 21.97-10.79 21.97-23.27v-4.55H1359v4.29Zm169.66-3.64v5.59c0 16.77-7.8 29.12-26.52 29.12h-30.94v11.05h30.94c25.22 0 38.87-15.73 38.87-40.69v-4.55c0-24.96-13.65-40.69-38.87-40.69h-30.94v11.05h30.94c18.72 0 26.52 12.35 26.52 29.12Zm97.63 0v5.59c0 16.77-7.8 29.12-26.52 29.12h-15.08v11.05h15.08c25.22 0 38.87-15.73 38.87-40.69v-4.55c0-24.96-13.65-40.69-38.87-40.69h-45.76v11.05h45.76c18.72 0 26.52 12.35 26.52 29.12Zm-41.6-12.22v30.16h10.66v-30.16h-10.66Zm85.8 12.22c0-16.9 5.59-31.07 28.99-31.07 17.68 0 22.88 8.19 22.88 19.76 0 12.09-4.68 18.07-14.82 18.07-8.97 0-12.48-4.68-12.48-11.31 0-2.34.39-4.94 1.3-7.28h-10.4c-1.3 1.82-2.08 5.72-2.08 9.62 0 12.09 7.8 19.89 23.66 19.89 18.2 0 27.17-10.53 27.17-28.99s-10.66-30.68-35.23-30.68c-29.9 0-41.34 17.55-41.34 42.51v2.6c0 32.37 18.72 42.64 47.32 42.64h26.26v-11.05h-24.96c-23.01 0-36.27-7.54-36.27-31.72v-2.99Zm118.72-21.32h-36.14v10.14h21.84l-22.62 28.99v8.97h37.31v-10.14h-23.27l22.88-29.12v-8.84Z"/><path fill="#1A73E8" d="M143.04 433.3v30.2h-5.68v-30.2h5.68Zm6.143 30.2v-21.76h5.48v2.88a8.064 8.064 0 0 1 2.72-2.48c1.093-.64 2.44-.96 4.04-.96 2.533 0 4.44.76 5.72 2.28 1.28 1.52 1.92 3.68 1.92 6.48v13.56h-5.48v-12.04c0-1.867-.387-3.227-1.16-4.08-.747-.853-1.774-1.28-3.08-1.28-1.387 0-2.52.427-3.4 1.28-.854.827-1.28 2.24-1.28 4.24v11.88h-5.48Zm35.033-22.32c1.04 0 2.134.107 3.28.32 1.147.213 2.254.6 3.32 1.16v4.8c-1.12-.693-2.213-1.16-3.28-1.4-1.066-.267-2.08-.4-3.04-.4-1.653 0-2.96.453-3.92 1.36-.933.88-1.4 2.267-1.4 4.16v3c0 1.787.467 3.147 1.4 4.08.96.907 2.254 1.36 3.88 1.36.987 0 1.987-.12 3-.36 1.04-.267 2.12-.733 3.24-1.4v4.52c-.826.533-1.813.947-2.96 1.24-1.12.32-2.386.48-3.8.48-3.36 0-5.933-.88-7.72-2.64-1.786-1.787-2.68-4.28-2.68-7.48v-2.64c0-3.093.894-5.56 2.68-7.4 1.787-1.84 4.454-2.76 8-2.76Zm10.141 12.8v-2.64c0-2.293.453-4.187 1.36-5.68.906-1.493 2.133-2.613 3.68-3.36 1.546-.747 3.293-1.12 5.24-1.12 1.92 0 3.666.373 5.24 1.12a8.563 8.563 0 0 1 3.72 3.36c.933 1.493 1.4 3.387 1.4 5.68v2.64c0 2.267-.467 4.147-1.4 5.64a8.563 8.563 0 0 1-3.72 3.36c-1.574.747-3.32 1.12-5.24 1.12-1.947 0-3.694-.373-5.24-1.12-1.547-.747-2.774-1.867-3.68-3.36-.907-1.493-1.36-3.373-1.36-5.64Zm5.6-2.68v2.68c0 1.947.413 3.4 1.24 4.36.826.96 1.973 1.44 3.44 1.44 1.44 0 2.586-.48 3.44-1.44.853-.96 1.28-2.413 1.28-4.36v-2.68c0-1.947-.427-3.387-1.28-4.32-.854-.96-2-1.44-3.44-1.44-1.467 0-2.614.48-3.44 1.44-.827.933-1.24 2.373-1.24 4.32Zm19.695 12.2v-21.76h5.48v3.48a8.789 8.789 0 0 1 2.72-2.88c1.12-.773 2.453-1.16 4-1.16v5.48c-.427-.08-.8-.12-1.12-.12-1.68 0-3.027.64-4.04 1.92-1.014 1.28-1.534 2.96-1.56 5.04v10h-5.48Zm15.859 0v-21.76h5.48v3.48a8.789 8.789 0 0 1 2.72-2.88c1.12-.773 2.453-1.16 4-1.16v5.48c-.427-.08-.8-.12-1.12-.12-1.68 0-3.027.64-4.04 1.92-1.013 1.28-1.533 2.96-1.56 5.04v10h-5.48Zm24.232-22.32c1.946 0 3.653.373 5.12 1.12 1.493.72 2.653 1.813 3.48 3.28.853 1.467 1.28 3.307 1.28 5.52v3.52h-14.12c.133 1.733.706 3 1.72 3.8 1.013.773 2.4 1.16 4.16 1.16 1.333 0 2.586-.093 3.76-.28 1.2-.213 2.533-.707 4-1.48v4.28c-1.334.747-2.667 1.267-4 1.56-1.307.293-2.854.44-4.64.44-3.36 0-5.96-.867-7.8-2.6-1.84-1.733-2.76-4.24-2.76-7.52v-2.64c0-2.16.413-3.987 1.24-5.48.826-1.52 1.973-2.68 3.44-3.48 1.493-.8 3.2-1.2 5.12-1.2Zm0 4.36c-2.747 0-4.16 1.773-4.24 5.32h8.56c-.027-1.84-.4-3.187-1.12-4.04-.694-.853-1.76-1.28-3.2-1.28Zm24.278-4.36c1.04 0 2.133.107 3.28.32 1.147.213 2.253.6 3.32 1.16v4.8c-1.12-.693-2.213-1.16-3.28-1.4a12.53 12.53 0 0 0-3.04-.4c-1.653 0-2.96.453-3.92 1.36-.933.88-1.4 2.267-1.4 4.16v3c0 1.787.467 3.147 1.4 4.08.96.907 2.253 1.36 3.88 1.36.987 0 1.987-.12 3-.36 1.04-.267 2.12-.733 3.24-1.4v4.52c-.827.533-1.813.947-2.96 1.24-1.12.32-2.387.48-3.8.48-3.36 0-5.933-.88-7.72-2.64-1.787-1.787-2.68-4.28-2.68-7.48v-2.64c0-3.093.893-5.56 2.68-7.4 1.787-1.84 4.453-2.76 8-2.76Zm12.658 15.52v-10.68h-3.48v-4.28h3.48v-6.24h5.48v6.24h5.24v4.28h-5.24v9.88c0 1.36.24 2.293.72 2.8.48.507 1.254.76 2.32.76.907 0 1.747-.093 2.52-.28v4.48c-.453.133-1.04.24-1.76.32-.693.08-1.346.12-1.96.12-2.4 0-4.226-.64-5.48-1.92-1.226-1.307-1.84-3.133-1.84-5.48Zm44.936-22.12v5.48c-.88-.72-2-1.28-3.36-1.68a14.34 14.34 0 0 0-4.32-.64c-2.347 0-4.227.72-5.64 2.16-1.387 1.413-2.08 3.587-2.08 6.52v4.24c0 2.053.32 3.707.96 4.96.667 1.227 1.587 2.12 2.76 2.68 1.173.533 2.533.8 4.08.8 1.12 0 2.373-.107 3.76-.32 1.413-.24 2.667-.68 3.76-1.32v5.04c-1.013.533-2.24.933-3.68 1.2-1.44.267-2.88.4-4.32.4-2.56 0-4.827-.507-6.8-1.52-1.973-1.04-3.507-2.573-4.6-4.6-1.093-2.053-1.64-4.587-1.64-7.6v-3.68c0-3.04.547-5.587 1.64-7.64 1.093-2.08 2.627-3.653 4.6-4.72 1.973-1.067 4.253-1.6 6.84-1.6 1.787 0 3.373.187 4.76.56 1.413.347 2.507.773 3.28 1.28Zm22.006 28.92h-5.48v-2.4c-1.254 2-3.347 3-6.28 3-2.294 0-4.067-.573-5.32-1.72-1.227-1.147-1.84-2.707-1.84-4.68 0-1.44.266-2.613.8-3.52.56-.907 1.28-1.6 2.16-2.08a9.17 9.17 0 0 1 2.92-.96c1.066-.187 2.12-.28 3.16-.28h4.4c0-.88-.094-1.68-.28-2.4-.16-.747-.587-1.333-1.28-1.76-.667-.427-1.76-.64-3.28-.64-1.28 0-2.534.173-3.76.52-1.2.347-2.414.973-3.64 1.88v-4.96c1.04-.747 2.24-1.32 3.6-1.72 1.36-.4 2.933-.6 4.72-.6 1.946 0 3.533.24 4.76.72 1.226.453 2.173 1.08 2.84 1.88.693.8 1.16 1.72 1.4 2.76.266 1.04.4 2.147.4 3.32v13.64Zm-5.48-8.32v-.64h-3.72c-.854 0-1.614.067-2.28.2-.667.133-1.187.4-1.56.8-.374.373-.56.987-.56 1.84 0 1.787 1.093 2.68 3.28 2.68.826 0 1.6-.133 2.32-.4a3.754 3.754 0 0 0 1.8-1.48c.48-.72.72-1.72.72-3Zm10.925 8.32v-21.76h5.48v3.48a8.789 8.789 0 0 1 2.72-2.88c1.12-.773 2.453-1.16 4-1.16v5.48c-.427-.08-.8-.12-1.12-.12-1.68 0-3.027.64-4.04 1.92-1.014 1.28-1.534 2.96-1.56 5.04v10h-5.48Zm15.859 0v-21.76h5.48v3.48a8.789 8.789 0 0 1 2.72-2.88c1.12-.773 2.453-1.16 4-1.16v5.48c-.427-.08-.8-.12-1.12-.12-1.68 0-3.027.64-4.04 1.92-1.013 1.28-1.533 2.96-1.56 5.04v10h-5.48Zm15.859 0v-21.76h5.48v21.76h-5.48Zm-.08-25.52v-5.44h5.64v5.44h-5.64Zm20.054 3.2c1.947 0 3.653.373 5.12 1.12 1.493.72 2.653 1.813 3.48 3.28.853 1.467 1.28 3.307 1.28 5.52v3.52h-14.12c.133 1.733.707 3 1.72 3.8 1.013.773 2.4 1.16 4.16 1.16 1.333 0 2.587-.093 3.76-.28 1.2-.213 2.533-.707 4-1.48v4.28c-1.333.747-2.667 1.267-4 1.56-1.307.293-2.853.44-4.64.44-3.36 0-5.96-.867-7.8-2.6-1.84-1.733-2.76-4.24-2.76-7.52v-2.64c0-2.16.413-3.987 1.24-5.48.827-1.52 1.973-2.68 3.44-3.48 1.493-.8 3.2-1.2 5.12-1.2Zm0 4.36c-2.747 0-4.16 1.773-4.24 5.32h8.56c-.027-1.84-.4-3.187-1.12-4.04-.693-.853-1.76-1.28-3.2-1.28Zm14.519 17.96v-21.76h5.48v3.48a8.789 8.789 0 0 1 2.72-2.88c1.12-.773 2.453-1.16 4-1.16v5.48c-.427-.08-.8-.12-1.12-.12-1.68 0-3.027.64-4.04 1.92-1.014 1.28-1.534 2.96-1.56 5.04v10h-5.48Zm23.896-1.8v-5.44a21.29 21.29 0 0 0 4.68 2.16c1.654.507 3.347.76 5.08.76 1.787 0 3.16-.36 4.12-1.08.987-.747 1.48-1.8 1.48-3.16 0-1.387-.386-2.36-1.16-2.92-.773-.56-2.08-.947-3.92-1.16l-3-.4c-2.506-.347-4.413-1.24-5.72-2.68-1.28-1.44-1.92-3.387-1.92-5.84 0-2.107.507-3.827 1.52-5.16 1.014-1.36 2.36-2.36 4.04-3 1.68-.64 3.52-.96 5.52-.96 1.627 0 3.254.173 4.88.52 1.654.347 3.027.893 4.12 1.64v5.44c-1.28-.88-2.68-1.56-4.2-2.04-1.493-.507-3-.76-4.52-.76-3.786 0-5.68 1.36-5.68 4.08 0 1.307.347 2.24 1.04 2.8.694.56 1.88.947 3.56 1.16l2.8.36c2.694.347 4.76 1.24 6.2 2.68 1.44 1.44 2.16 3.413 2.16 5.92 0 2.187-.533 3.973-1.6 5.36-1.066 1.36-2.493 2.36-4.28 3-1.786.64-3.733.96-5.84.96a22.05 22.05 0 0 1-4.84-.52 17.35 17.35 0 0 1-4.52-1.72Zm34.323 10.68h-5.56l2.84-7.88-8.68-22.76h5.8l5.48 16.12 5.4-16.12h5.64l-8 21.76-2.92 8.88ZM507.5 457.7v-24.4h5.48v22.92c0 1.2.134 2.053.4 2.56.267.48.827.72 1.68.72.8 0 1.454-.107 1.96-.32v4.44c-.426.133-.946.24-1.56.32a9.57 9.57 0 0 1-1.72.16c-2.106 0-3.68-.507-4.72-1.52-1.013-1.04-1.52-2.667-1.52-4.88Zm12.774 0v-24.4h5.48v22.92c0 1.2.133 2.053.4 2.56.266.48.826.72 1.68.72.8 0 1.453-.107 1.96-.32v4.44c-.427.133-.947.24-1.56.32-.587.107-1.16.16-1.72.16-2.107 0-3.68-.507-4.72-1.52-1.014-1.04-1.52-2.667-1.52-4.88Zm30.573 5.8h-5.48v-2.4c-1.253 2-3.346 3-6.28 3-2.293 0-4.066-.573-5.32-1.72-1.226-1.147-1.84-2.707-1.84-4.68 0-1.44.267-2.613.8-3.52.56-.907 1.28-1.6 2.16-2.08.907-.48 1.88-.8 2.92-.96 1.067-.187 2.12-.28 3.16-.28h4.4c0-.88-.093-1.68-.28-2.4-.16-.747-.586-1.333-1.28-1.76-.666-.427-1.76-.64-3.28-.64-1.28 0-2.533.173-3.76.52-1.2.347-2.413.973-3.64 1.88v-4.96c1.04-.747 2.24-1.32 3.6-1.72 1.36-.4 2.934-.6 4.72-.6 1.947 0 3.534.24 4.76.72 1.227.453 2.174 1.08 2.84 1.88.694.8 1.16 1.72 1.4 2.76.267 1.04.4 2.147.4 3.32v13.64Zm-5.48-8.32v-.64h-3.72c-.853 0-1.613.067-2.28.2-.666.133-1.186.4-1.56.8-.373.373-.56.987-.56 1.84 0 1.787 1.094 2.68 3.28 2.68.827 0 1.6-.133 2.32-.4a3.744 3.744 0 0 0 1.8-1.48c.48-.72.72-1.72.72-3Zm10.925 8.32v-30.2h5.48v10.92a7.72 7.72 0 0 1 2.52-2.2c1.04-.56 2.28-.84 3.72-.84 2.907 0 5.107.893 6.6 2.68 1.494 1.787 2.24 4.213 2.24 7.28v3c0 3.307-.76 5.8-2.28 7.48-1.493 1.653-3.68 2.48-6.56 2.48-1.466 0-2.706-.307-3.72-.92a8.02 8.02 0 0 1-2.52-2.4v2.72h-5.48Zm5.48-9.16c0 1.52.454 2.813 1.36 3.88.907 1.04 2.067 1.56 3.48 1.56 1.414 0 2.52-.453 3.32-1.36.827-.933 1.24-2.293 1.24-4.08v-3.4c0-1.76-.413-3.093-1.24-4-.826-.933-1.96-1.4-3.4-1.4-1.2 0-2.266.427-3.2 1.28-.906.853-1.426 2.027-1.56 3.52v4Zm19.755 9.16v-21.76h5.48v21.76h-5.48Zm-.08-25.52v-5.44h5.64v5.44h-5.64Zm20.933 3.2c1.04 0 2.134.107 3.28.32 1.147.213 2.254.6 3.32 1.16v4.8c-1.12-.693-2.213-1.16-3.28-1.4-1.066-.267-2.08-.4-3.04-.4-1.653 0-2.96.453-3.92 1.36-.933.88-1.4 2.267-1.4 4.16v3c0 1.787.467 3.147 1.4 4.08.96.907 2.254 1.36 3.88 1.36.987 0 1.987-.12 3-.36 1.04-.267 2.12-.733 3.24-1.4v4.52c-.826.533-1.813.947-2.96 1.24-1.12.32-2.386.48-3.8.48-3.36 0-5.933-.88-7.72-2.64-1.786-1.787-2.68-4.28-2.68-7.48v-2.64c0-3.093.894-5.56 2.68-7.4 1.787-1.84 4.454-2.76 8-2.76Zm10.499 21.16v-4.6c1.2.587 2.48 1.067 3.84 1.44 1.386.373 2.84.56 4.36.56 1.28 0 2.32-.2 3.12-.6.826-.4 1.24-1.027 1.24-1.88s-.307-1.44-.92-1.76c-.614-.347-1.467-.56-2.56-.64l-2.8-.32a11.745 11.745 0 0 1-3.24-.76 5.675 5.675 0 0 1-2.48-2c-.614-.907-.92-2.133-.92-3.68 0-1.627.44-2.947 1.32-3.96.906-1.04 2.053-1.787 3.44-2.24 1.386-.48 2.826-.72 4.32-.72 1.493 0 2.96.147 4.4.44 1.466.267 2.653.68 3.56 1.24v4.84c-1.147-.667-2.427-1.187-3.84-1.56-1.387-.4-2.694-.6-3.92-.6-1.334 0-2.36.213-3.08.64-.72.4-1.08.987-1.08 1.76 0 .827.333 1.373 1 1.64.666.267 1.52.453 2.56.56l2.68.24c2 .187 3.626.76 4.88 1.72 1.253.933 1.88 2.493 1.88 4.68 0 1.333-.294 2.467-.88 3.4a6.335 6.335 0 0 1-2.28 2.24c-.934.56-1.974.96-3.12 1.2a15.13 15.13 0 0 1-3.44.4c-.827 0-1.734-.067-2.72-.2a20.348 20.348 0 0 1-2.88-.52c-.934-.267-1.747-.587-2.44-.96Zm39.657 1.32c-2.853 0-5.04-.827-6.56-2.48-1.493-1.68-2.24-4.173-2.24-7.48v-2.56c0-3.067.747-5.493 2.24-7.28 1.494-1.787 3.68-2.68 6.56-2.68 1.44 0 2.667.28 3.68.84a7.044 7.044 0 0 1 2.56 2.2v-2.48h5.48v20.56c0 3.333-1.026 5.92-3.08 7.76-2.026 1.867-4.893 2.8-8.6 2.8-1.653 0-3.08-.147-4.28-.44a22.598 22.598 0 0 1-3.28-1v-4.72c1.2.56 2.467.96 3.8 1.2 1.36.24 2.627.36 3.8.36 2.32 0 3.92-.56 4.8-1.68.907-1.093 1.36-2.573 1.36-4.44v-1.8a7.998 7.998 0 0 1-2.52 2.4c-.986.613-2.226.92-3.72.92Zm-3.12-9.6c0 1.787.4 3.12 1.2 4 .8.853 1.907 1.28 3.32 1.28 1.44 0 2.6-.52 3.48-1.56.907-1.067 1.36-2.36 1.36-3.88v-3.76c-.16-1.44-.693-2.56-1.6-3.36-.906-.827-1.96-1.24-3.16-1.24-1.413 0-2.533.427-3.36 1.28-.826.827-1.24 2.133-1.24 3.92v3.32Zm20.311 3.64v-24.4h5.48v22.92c0 1.2.133 2.053.4 2.56.267.48.827.72 1.68.72.8 0 1.453-.107 1.96-.32v4.44c-.427.133-.947.24-1.56.32-.587.107-1.16.16-1.72.16-2.107 0-3.68-.507-4.72-1.52-1.013-1.04-1.52-2.667-1.52-4.88Zm21.191 14.68h-5.56l2.84-7.88-8.68-22.76h5.8l5.48 16.12 5.4-16.12h5.64l-8 21.76-2.92 8.88Zm14.124 0v-30.64h5.48v2.48a7.72 7.72 0 0 1 2.52-2.2c1.04-.56 2.28-.84 3.72-.84 2.907 0 5.107.893 6.6 2.68 1.494 1.787 2.24 4.213 2.24 7.28v3c0 3.307-.786 5.8-2.36 7.48-1.573 1.653-3.786 2.48-6.64 2.48-1.413 0-2.613-.267-3.6-.8a7.862 7.862 0 0 1-2.48-2.2v11.28h-5.48Zm5.48-18.04c0 1.52.454 2.813 1.36 3.88.907 1.04 2.067 1.56 3.48 1.56 1.414 0 2.52-.453 3.32-1.36.827-.933 1.24-2.293 1.24-4.08v-3.4c0-1.76-.413-3.093-1.24-4-.826-.933-1.96-1.4-3.4-1.4-1.2 0-2.266.427-3.2 1.28-.906.853-1.426 2.027-1.56 3.52v4Zm19.755 9.16v-30.2h5.48v11.32a8.064 8.064 0 0 1 2.72-2.48c1.093-.64 2.44-.96 4.04-.96 2.533 0 4.44.76 5.72 2.28 1.28 1.52 1.92 3.68 1.92 6.48v13.56h-5.48v-12.04c0-1.867-.387-3.227-1.16-4.08-.747-.853-1.774-1.28-3.08-1.28-1.414 0-2.547.44-3.4 1.32-.854.853-1.28 2.28-1.28 4.28v11.8h-5.48Zm34.047-1.16v-4.6c1.2.587 2.48 1.067 3.84 1.44 1.387.373 2.84.56 4.36.56 1.28 0 2.32-.2 3.12-.6.827-.4 1.24-1.027 1.24-1.88s-.307-1.44-.92-1.76c-.613-.347-1.467-.56-2.56-.64l-2.8-.32a11.745 11.745 0 0 1-3.24-.76 5.68 5.68 0 0 1-2.48-2c-.613-.907-.92-2.133-.92-3.68 0-1.627.44-2.947 1.32-3.96.907-1.04 2.053-1.787 3.44-2.24 1.387-.48 2.827-.72 4.32-.72 1.493 0 2.96.147 4.4.44 1.467.267 2.653.68 3.56 1.24v4.84c-1.147-.667-2.427-1.187-3.84-1.56-1.387-.4-2.693-.6-3.92-.6-1.333 0-2.36.213-3.08.64-.72.4-1.08.987-1.08 1.76 0 .827.333 1.373 1 1.64.667.267 1.52.453 2.56.56l2.68.24c2 .187 3.627.76 4.88 1.72 1.253.933 1.88 2.493 1.88 4.68 0 1.333-.293 2.467-.88 3.4a6.335 6.335 0 0 1-2.28 2.24c-.933.56-1.973.96-3.12 1.2-1.147.267-2.293.4-3.44.4-.827 0-1.733-.067-2.72-.2a20.348 20.348 0 0 1-2.88-.52c-.933-.267-1.747-.587-2.44-.96Zm22.164 1.16v-30.2h5.48v11.32a8.064 8.064 0 0 1 2.72-2.48c1.093-.64 2.44-.96 4.04-.96 2.533 0 4.44.76 5.72 2.28 1.28 1.52 1.92 3.68 1.92 6.48v13.56h-5.48v-12.04c0-1.867-.387-3.227-1.16-4.08-.747-.853-1.774-1.28-3.08-1.28-1.414 0-2.547.44-3.4 1.32-.854.853-1.28 2.28-1.28 4.28v11.8h-5.48Zm42.953 0h-5.48v-2.4c-1.253 2-3.347 3-6.28 3-2.293 0-4.067-.573-5.32-1.72-1.227-1.147-1.84-2.707-1.84-4.68 0-1.44.267-2.613.8-3.52.56-.907 1.28-1.6 2.16-2.08.907-.48 1.88-.8 2.92-.96 1.067-.187 2.12-.28 3.16-.28h4.4c0-.88-.093-1.68-.28-2.4-.16-.747-.587-1.333-1.28-1.76-.667-.427-1.76-.64-3.28-.64-1.28 0-2.533.173-3.76.52-1.2.347-2.413.973-3.64 1.88v-4.96c1.04-.747 2.24-1.32 3.6-1.72 1.36-.4 2.933-.6 4.72-.6 1.947 0 3.533.24 4.76.72 1.227.453 2.173 1.08 2.84 1.88.693.8 1.16 1.72 1.4 2.76.267 1.04.4 2.147.4 3.32v13.64Zm-5.48-8.32v-.64h-3.72c-.853 0-1.613.067-2.28.2-.667.133-1.187.4-1.56.8-.373.373-.56.987-.56 1.84 0 1.787 1.093 2.68 3.28 2.68.827 0 1.6-.133 2.32-.4a3.744 3.744 0 0 0 1.8-1.48c.48-.72.72-1.72.72-3Zm10.925 17.2v-30.64h5.48v2.48a7.72 7.72 0 0 1 2.52-2.2c1.04-.56 2.28-.84 3.72-.84 2.907 0 5.107.893 6.6 2.68 1.493 1.787 2.24 4.213 2.24 7.28v3c0 3.307-.787 5.8-2.36 7.48-1.573 1.653-3.787 2.48-6.64 2.48-1.413 0-2.613-.267-3.6-.8a7.851 7.851 0 0 1-2.48-2.2v11.28h-5.48Zm5.48-18.04c0 1.52.453 2.813 1.36 3.88.907 1.04 2.067 1.56 3.48 1.56 1.413 0 2.52-.453 3.32-1.36.827-.933 1.24-2.293 1.24-4.08v-3.4c0-1.76-.413-3.093-1.24-4-.827-.933-1.96-1.4-3.4-1.4-1.2 0-2.267.427-3.2 1.28-.907.853-1.427 2.027-1.56 3.52v4ZM869 441.18c1.947 0 3.654.373 5.12 1.12 1.494.72 2.654 1.813 3.48 3.28.854 1.467 1.28 3.307 1.28 5.52v3.52h-14.12c.134 1.733.707 3 1.72 3.8 1.014.773 2.4 1.16 4.16 1.16 1.334 0 2.587-.093 3.76-.28 1.2-.213 2.534-.707 4-1.48v4.28c-1.333.747-2.666 1.267-4 1.56-1.306.293-2.853.44-4.64.44-3.36 0-5.96-.867-7.8-2.6-1.84-1.733-2.76-4.24-2.76-7.52v-2.64c0-2.16.414-3.987 1.24-5.48.827-1.52 1.974-2.68 3.44-3.48 1.494-.8 3.2-1.2 5.12-1.2Zm0 4.36c-2.746 0-4.16 1.773-4.24 5.32h8.56c-.026-1.84-.4-3.187-1.12-4.04-.693-.853-1.76-1.28-3.2-1.28Zm13.879 16.8v-4.6c1.2.587 2.48 1.067 3.84 1.44 1.386.373 2.84.56 4.36.56 1.28 0 2.32-.2 3.12-.6.826-.4 1.24-1.027 1.24-1.88s-.307-1.44-.92-1.76c-.614-.347-1.467-.56-2.56-.64l-2.8-.32a11.745 11.745 0 0 1-3.24-.76 5.675 5.675 0 0 1-2.48-2c-.614-.907-.92-2.133-.92-3.68 0-1.627.44-2.947 1.32-3.96.906-1.04 2.053-1.787 3.44-2.24 1.386-.48 2.826-.72 4.32-.72 1.493 0 2.96.147 4.4.44 1.466.267 2.653.68 3.56 1.24v4.84c-1.147-.667-2.427-1.187-3.84-1.56-1.387-.4-2.694-.6-3.92-.6-1.334 0-2.36.213-3.08.64-.72.4-1.08.987-1.08 1.76 0 .827.333 1.373 1 1.64.666.267 1.52.453 2.56.56l2.68.24c2 .187 3.626.76 4.88 1.72 1.253.933 1.88 2.493 1.88 4.68 0 1.333-.294 2.467-.88 3.4a6.335 6.335 0 0 1-2.28 2.24c-.934.56-1.974.96-3.12 1.2a15.13 15.13 0 0 1-3.44.4c-.827 0-1.734-.067-2.72-.2a20.348 20.348 0 0 1-2.88-.52c-.934-.267-1.747-.587-2.44-.96ZM157.24 842.08v5.48c-.88-.72-2-1.28-3.36-1.68a14.34 14.34 0 0 0-4.32-.64c-2.347 0-4.227.72-5.64 2.16-1.387 1.413-2.08 3.587-2.08 6.52v4.24c0 2.053.32 3.707.96 4.96.667 1.227 1.587 2.12 2.76 2.68 1.173.533 2.533.8 4.08.8 1.12 0 2.373-.107 3.76-.32 1.413-.24 2.667-.68 3.76-1.32V870c-1.013.533-2.24.933-3.68 1.2-1.44.267-2.88.4-4.32.4-2.56 0-4.827-.507-6.8-1.52-1.973-1.04-3.507-2.573-4.6-4.6-1.093-2.053-1.64-4.587-1.64-7.6v-3.68c0-3.04.547-5.587 1.64-7.64 1.093-2.08 2.627-3.653 4.6-4.72 1.973-1.067 4.253-1.6 6.84-1.6 1.787 0 3.373.187 4.76.56 1.413.347 2.507.773 3.28 1.28Zm3.171 19.4v-2.64c0-2.293.454-4.187 1.36-5.68.907-1.493 2.134-2.613 3.68-3.36 1.547-.747 3.294-1.12 5.24-1.12 1.92 0 3.667.373 5.24 1.12a8.552 8.552 0 0 1 3.72 3.36c.934 1.493 1.4 3.387 1.4 5.68v2.64c0 2.267-.466 4.147-1.4 5.64a8.552 8.552 0 0 1-3.72 3.36c-1.573.747-3.32 1.12-5.24 1.12-1.946 0-3.693-.373-5.24-1.12-1.546-.747-2.773-1.867-3.68-3.36-.906-1.493-1.36-3.373-1.36-5.64Zm5.6-2.68v2.68c0 1.947.414 3.4 1.24 4.36.827.96 1.974 1.44 3.44 1.44 1.44 0 2.587-.48 3.44-1.44.854-.96 1.28-2.413 1.28-4.36v-2.68c0-1.947-.426-3.387-1.28-4.32-.853-.96-2-1.44-3.44-1.44-1.466 0-2.613.48-3.44 1.44-.826.933-1.24 2.373-1.24 4.32Zm19.695 12.2v-21.76h5.48v3.48a8.8 8.8 0 0 1 2.72-2.88c1.12-.773 2.454-1.16 4-1.16v5.48c-.426-.08-.8-.12-1.12-.12-1.68 0-3.026.64-4.04 1.92-1.013 1.28-1.533 2.96-1.56 5.04v10h-5.48Zm15.86 0v-21.76h5.48v3.48a8.789 8.789 0 0 1 2.72-2.88c1.12-.773 2.453-1.16 4-1.16v5.48c-.427-.08-.8-.12-1.12-.12-1.68 0-3.027.64-4.04 1.92-1.014 1.28-1.534 2.96-1.56 5.04v10h-5.48Zm24.231-22.32c1.947 0 3.654.373 5.12 1.12 1.494.72 2.654 1.813 3.48 3.28.854 1.467 1.28 3.307 1.28 5.52v3.52h-14.12c.134 1.733.707 3 1.72 3.8 1.014.773 2.4 1.16 4.16 1.16 1.334 0 2.587-.093 3.76-.28 1.2-.213 2.534-.707 4-1.48v4.28c-1.333.747-2.666 1.267-4 1.56-1.306.293-2.853.44-4.64.44-3.36 0-5.96-.867-7.8-2.6-1.84-1.733-2.76-4.24-2.76-7.52v-2.64c0-2.16.414-3.987 1.24-5.48.827-1.52 1.974-2.68 3.44-3.48 1.494-.8 3.2-1.2 5.12-1.2Zm0 4.36c-2.746 0-4.16 1.773-4.24 5.32h8.56c-.026-1.84-.4-3.187-1.12-4.04-.693-.853-1.76-1.28-3.2-1.28Zm24.279-4.36c1.04 0 2.133.107 3.28.32 1.146.213 2.253.6 3.32 1.16v4.8c-1.12-.693-2.214-1.16-3.28-1.4a12.53 12.53 0 0 0-3.04-.4c-1.654 0-2.96.453-3.92 1.36-.934.88-1.4 2.267-1.4 4.16v3c0 1.787.466 3.147 1.4 4.08.96.907 2.253 1.36 3.88 1.36.986 0 1.986-.12 3-.36 1.04-.267 2.12-.733 3.24-1.4v4.52c-.827.533-1.814.947-2.96 1.24-1.12.32-2.387.48-3.8.48-3.36 0-5.934-.88-7.72-2.64-1.787-1.787-2.68-4.28-2.68-7.48v-2.64c0-3.093.893-5.56 2.68-7.4 1.786-1.84 4.453-2.76 8-2.76Zm12.658 15.52v-10.68h-3.48v-4.28h3.48V843h5.48v6.24h5.24v4.28h-5.24v9.88c0 1.36.24 2.293.72 2.8.48.507 1.253.76 2.32.76.907 0 1.747-.093 2.52-.28v4.48c-.453.133-1.04.24-1.76.32-.693.08-1.347.12-1.96.12-2.4 0-4.227-.64-5.48-1.92-1.227-1.307-1.84-3.133-1.84-5.48Zm44.936-22.12v5.48c-.88-.72-2-1.28-3.36-1.68a14.34 14.34 0 0 0-4.32-.64c-2.347 0-4.227.72-5.64 2.16-1.387 1.413-2.08 3.587-2.08 6.52v4.24c0 2.053.32 3.707.96 4.96.666 1.227 1.586 2.12 2.76 2.68 1.173.533 2.533.8 4.08.8 1.12 0 2.373-.107 3.76-.32 1.413-.24 2.666-.68 3.76-1.32V870c-1.014.533-2.24.933-3.68 1.2-1.44.267-2.88.4-4.32.4-2.56 0-4.827-.507-6.8-1.52-1.974-1.04-3.507-2.573-4.6-4.6-1.094-2.053-1.64-4.587-1.64-7.6v-3.68c0-3.04.546-5.587 1.64-7.64 1.093-2.08 2.626-3.653 4.6-4.72 1.973-1.067 4.253-1.6 6.84-1.6 1.786 0 3.373.187 4.76.56 1.413.347 2.506.773 3.28 1.28ZM329.675 871h-5.48v-2.4c-1.253 2-3.346 3-6.28 3-2.293 0-4.066-.573-5.32-1.72-1.226-1.147-1.84-2.707-1.84-4.68 0-1.44.267-2.613.8-3.52.56-.907 1.28-1.6 2.16-2.08.907-.48 1.88-.8 2.92-.96 1.067-.187 2.12-.28 3.16-.28h4.4c0-.88-.093-1.68-.28-2.4-.16-.747-.586-1.333-1.28-1.76-.666-.427-1.76-.64-3.28-.64-1.28 0-2.533.173-3.76.52-1.2.347-2.413.973-3.64 1.88V851c1.04-.747 2.24-1.32 3.6-1.72 1.36-.4 2.934-.6 4.72-.6 1.947 0 3.534.24 4.76.72 1.227.453 2.174 1.08 2.84 1.88.694.8 1.16 1.72 1.4 2.76.267 1.04.4 2.147.4 3.32V871Zm-5.48-8.32v-.64h-3.72c-.853 0-1.613.067-2.28.2-.666.133-1.186.4-1.56.8-.373.373-.56.987-.56 1.84 0 1.787 1.094 2.68 3.28 2.68.827 0 1.6-.133 2.32-.4a3.744 3.744 0 0 0 1.8-1.48c.48-.72.72-1.72.72-3ZM335.12 871v-21.76h5.48v3.48a8.8 8.8 0 0 1 2.72-2.88c1.12-.773 2.454-1.16 4-1.16v5.48c-.426-.08-.8-.12-1.12-.12-1.68 0-3.026.64-4.04 1.92-1.013 1.28-1.533 2.96-1.56 5.04v10h-5.48Zm15.86 0v-21.76h5.48v3.48a8.789 8.789 0 0 1 2.72-2.88c1.12-.773 2.453-1.16 4-1.16v5.48c-.427-.08-.8-.12-1.12-.12-1.68 0-3.027.64-4.04 1.92-1.014 1.28-1.534 2.96-1.56 5.04v10h-5.48Zm15.859 0v-21.76h5.48V871h-5.48Zm-.08-25.52v-5.44h5.64v5.44h-5.64Zm20.054 3.2c1.946 0 3.653.373 5.12 1.12 1.493.72 2.653 1.813 3.48 3.28.853 1.467 1.28 3.307 1.28 5.52v3.52h-14.12c.133 1.733.706 3 1.72 3.8 1.013.773 2.4 1.16 4.16 1.16 1.333 0 2.586-.093 3.76-.28 1.2-.213 2.533-.707 4-1.48v4.28c-1.334.747-2.667 1.267-4 1.56-1.307.293-2.854.44-4.64.44-3.36 0-5.96-.867-7.8-2.6-1.84-1.733-2.76-4.24-2.76-7.52v-2.64c0-2.16.413-3.987 1.24-5.48.826-1.52 1.973-2.68 3.44-3.48 1.493-.8 3.2-1.2 5.12-1.2Zm0 4.36c-2.747 0-4.16 1.773-4.24 5.32h8.56c-.027-1.84-.4-3.187-1.12-4.04-.694-.853-1.76-1.28-3.2-1.28ZM401.331 871v-21.76h5.48v3.48a8.8 8.8 0 0 1 2.72-2.88c1.12-.773 2.454-1.16 4-1.16v5.48c-.426-.08-.8-.12-1.12-.12-1.68 0-3.026.64-4.04 1.92-1.013 1.28-1.533 2.96-1.56 5.04v10h-5.48Zm23.897-1.8v-5.44a21.29 21.29 0 0 0 4.68 2.16c1.653.507 3.347.76 5.08.76 1.787 0 3.16-.36 4.12-1.08.987-.747 1.48-1.8 1.48-3.16 0-1.387-.387-2.36-1.16-2.92-.773-.56-2.08-.947-3.92-1.16l-3-.4c-2.507-.347-4.413-1.24-5.72-2.68-1.28-1.44-1.92-3.387-1.92-5.84 0-2.107.507-3.827 1.52-5.16 1.013-1.36 2.36-2.36 4.04-3 1.68-.64 3.52-.96 5.52-.96 1.627 0 3.253.173 4.88.52 1.653.347 3.027.893 4.12 1.64v5.44c-1.28-.88-2.68-1.56-4.2-2.04-1.493-.507-3-.76-4.52-.76-3.787 0-5.68 1.36-5.68 4.08 0 1.307.347 2.24 1.04 2.8.693.56 1.88.947 3.56 1.16l2.8.36c2.693.347 4.76 1.24 6.2 2.68 1.44 1.44 2.16 3.413 2.16 5.92 0 2.187-.533 3.973-1.6 5.36-1.067 1.36-2.493 2.36-4.28 3-1.787.64-3.733.96-5.84.96a22.05 22.05 0 0 1-4.84-.52 17.336 17.336 0 0 1-4.52-1.72Zm34.323 10.68h-5.56l2.84-7.88-8.68-22.76h5.8l5.48 16.12 5.4-16.12h5.64l-8 21.76-2.92 8.88Zm14.004-14.68v-24.4h5.48v22.92c0 1.2.133 2.053.4 2.56.267.48.827.72 1.68.72.8 0 1.453-.107 1.96-.32v4.44c-.427.133-.947.24-1.56.32-.587.107-1.16.16-1.72.16-2.107 0-3.68-.507-4.72-1.52-1.013-1.04-1.52-2.667-1.52-4.88Zm12.773 0v-24.4h5.48v22.92c0 1.2.134 2.053.4 2.56.267.48.827.72 1.68.72.8 0 1.454-.107 1.96-.32v4.44c-.426.133-.946.24-1.56.32a9.57 9.57 0 0 1-1.72.16c-2.106 0-3.68-.507-4.72-1.52-1.013-1.04-1.52-2.667-1.52-4.88Zm30.574 5.8h-5.48v-2.4c-1.253 2-3.347 3-6.28 3-2.293 0-4.067-.573-5.32-1.72-1.227-1.147-1.84-2.707-1.84-4.68 0-1.44.267-2.613.8-3.52.56-.907 1.28-1.6 2.16-2.08.907-.48 1.88-.8 2.92-.96 1.067-.187 2.12-.28 3.16-.28h4.4c0-.88-.093-1.68-.28-2.4-.16-.747-.587-1.333-1.28-1.76-.667-.427-1.76-.64-3.28-.64-1.28 0-2.533.173-3.76.52-1.2.347-2.413.973-3.64 1.88V851c1.04-.747 2.24-1.32 3.6-1.72 1.36-.4 2.933-.6 4.72-.6 1.947 0 3.533.24 4.76.72 1.227.453 2.173 1.08 2.84 1.88.693.8 1.16 1.72 1.4 2.76.267 1.04.4 2.147.4 3.32V871Zm-5.48-8.32v-.64h-3.72c-.853 0-1.613.067-2.28.2-.667.133-1.187.4-1.56.8-.373.373-.56.987-.56 1.84 0 1.787 1.093 2.68 3.28 2.68.827 0 1.6-.133 2.32-.4a3.744 3.744 0 0 0 1.8-1.48c.48-.72.72-1.72.72-3Zm10.925 8.32v-30.2h5.48v10.92a7.72 7.72 0 0 1 2.52-2.2c1.04-.56 2.28-.84 3.72-.84 2.907 0 5.107.893 6.6 2.68 1.493 1.787 2.24 4.213 2.24 7.28v3c0 3.307-.76 5.8-2.28 7.48-1.493 1.653-3.68 2.48-6.56 2.48-1.467 0-2.707-.307-3.72-.92a8.02 8.02 0 0 1-2.52-2.4V871h-5.48Zm5.48-9.16c0 1.52.453 2.813 1.36 3.88.907 1.04 2.067 1.56 3.48 1.56 1.413 0 2.52-.453 3.32-1.36.827-.933 1.24-2.293 1.24-4.08v-3.4c0-1.76-.413-3.093-1.24-4-.827-.933-1.96-1.4-3.4-1.4-1.2 0-2.267.427-3.2 1.28-.907.853-1.427 2.027-1.56 3.52v4Zm19.754 9.16v-21.76h5.48V871h-5.48Zm-.08-25.52v-5.44h5.64v5.44h-5.64Zm20.934 3.2c1.04 0 2.133.107 3.28.32 1.147.213 2.253.6 3.32 1.16v4.8c-1.12-.693-2.213-1.16-3.28-1.4a12.53 12.53 0 0 0-3.04-.4c-1.653 0-2.96.453-3.92 1.36-.933.88-1.4 2.267-1.4 4.16v3c0 1.787.467 3.147 1.4 4.08.96.907 2.253 1.36 3.88 1.36.987 0 1.987-.12 3-.36 1.04-.267 2.12-.733 3.24-1.4v4.52c-.827.533-1.813.947-2.96 1.24-1.12.32-2.387.48-3.8.48-3.36 0-5.933-.88-7.72-2.64-1.787-1.787-2.68-4.28-2.68-7.48v-2.64c0-3.093.893-5.56 2.68-7.4 1.787-1.84 4.453-2.76 8-2.76Zm10.498 21.16v-4.6c1.2.587 2.48 1.067 3.84 1.44 1.387.373 2.84.56 4.36.56 1.28 0 2.32-.2 3.12-.6.827-.4 1.24-1.027 1.24-1.88s-.306-1.44-.92-1.76c-.613-.347-1.466-.56-2.56-.64l-2.8-.32a11.762 11.762 0 0 1-3.24-.76 5.68 5.68 0 0 1-2.48-2c-.613-.907-.92-2.133-.92-3.68 0-1.627.44-2.947 1.32-3.96.907-1.04 2.054-1.787 3.44-2.24 1.387-.48 2.827-.72 4.32-.72 1.494 0 2.96.147 4.4.44 1.467.267 2.654.68 3.56 1.24v4.84c-1.146-.667-2.426-1.187-3.84-1.56-1.386-.4-2.693-.6-3.92-.6-1.333 0-2.36.213-3.08.64-.72.4-1.08.987-1.08 1.76 0 .827.334 1.373 1 1.64.667.267 1.52.453 2.56.56l2.68.24c2 .187 3.627.76 4.88 1.72 1.254.933 1.88 2.493 1.88 4.68 0 1.333-.293 2.467-.88 3.4a6.335 6.335 0 0 1-2.28 2.24c-.933.56-1.973.96-3.12 1.2-1.146.267-2.293.4-3.44.4-.826 0-1.733-.067-2.72-.2a20.4 20.4 0 0 1-2.88-.52c-.933-.267-1.746-.587-2.44-.96Zm39.658 1.32c-2.853 0-5.04-.827-6.56-2.48-1.493-1.68-2.24-4.173-2.24-7.48v-2.56c0-3.067.747-5.493 2.24-7.28 1.493-1.787 3.68-2.68 6.56-2.68 1.44 0 2.667.28 3.68.84a7.052 7.052 0 0 1 2.56 2.2v-2.48h5.48v20.56c0 3.333-1.027 5.92-3.08 7.76-2.027 1.867-4.893 2.8-8.6 2.8-1.653 0-3.08-.147-4.28-.44a22.56 22.56 0 0 1-3.28-1v-4.72c1.2.56 2.467.96 3.8 1.2 1.36.24 2.627.36 3.8.36 2.32 0 3.92-.56 4.8-1.68.907-1.093 1.36-2.573 1.36-4.44v-1.8a8.02 8.02 0 0 1-2.52 2.4c-.987.613-2.227.92-3.72.92Zm-3.12-9.6c0 1.787.4 3.12 1.2 4 .8.853 1.907 1.28 3.32 1.28 1.44 0 2.6-.52 3.48-1.56.907-1.067 1.36-2.36 1.36-3.88v-3.76c-.16-1.44-.693-2.56-1.6-3.36-.907-.827-1.96-1.24-3.16-1.24-1.413 0-2.533.427-3.36 1.28-.827.827-1.24 2.133-1.24 3.92v3.32Zm20.311 3.64v-24.4h5.48v22.92c0 1.2.133 2.053.4 2.56.266.48.826.72 1.68.72.8 0 1.453-.107 1.96-.32v4.44c-.427.133-.947.24-1.56.32-.587.107-1.16.16-1.72.16-2.107 0-3.68-.507-4.72-1.52-1.014-1.04-1.52-2.667-1.52-4.88Zm21.191 14.68h-5.56l2.84-7.88-8.68-22.76h5.8l5.48 16.12 5.4-16.12h5.64l-8 21.76-2.92 8.88Zm14.124 0v-30.64h5.48v2.48a7.72 7.72 0 0 1 2.52-2.2c1.04-.56 2.28-.84 3.72-.84 2.907 0 5.107.893 6.6 2.68 1.493 1.787 2.24 4.213 2.24 7.28v3c0 3.307-.787 5.8-2.36 7.48-1.573 1.653-3.787 2.48-6.64 2.48-1.413 0-2.613-.267-3.6-.8a7.851 7.851 0 0 1-2.48-2.2v11.28h-5.48Zm5.48-18.04c0 1.52.453 2.813 1.36 3.88.907 1.04 2.067 1.56 3.48 1.56 1.413 0 2.52-.453 3.32-1.36.827-.933 1.24-2.293 1.24-4.08v-3.4c0-1.76-.413-3.093-1.24-4-.827-.933-1.96-1.4-3.4-1.4-1.2 0-2.267.427-3.2 1.28-.907.853-1.427 2.027-1.56 3.52v4Zm19.754 9.16v-30.2h5.48v11.32a8.074 8.074 0 0 1 2.72-2.48c1.094-.64 2.44-.96 4.04-.96 2.534 0 4.44.76 5.72 2.28 1.28 1.52 1.92 3.68 1.92 6.48V871h-5.48v-12.04c0-1.867-.386-3.227-1.16-4.08-.746-.853-1.773-1.28-3.08-1.28-1.413 0-2.546.44-3.4 1.32-.853.853-1.28 2.28-1.28 4.28V871h-5.48Zm34.048-1.16v-4.6c1.2.587 2.48 1.067 3.84 1.44 1.386.373 2.84.56 4.36.56 1.28 0 2.32-.2 3.12-.6.826-.4 1.24-1.027 1.24-1.88s-.307-1.44-.92-1.76c-.614-.347-1.467-.56-2.56-.64l-2.8-.32a11.745 11.745 0 0 1-3.24-.76 5.675 5.675 0 0 1-2.48-2c-.614-.907-.92-2.133-.92-3.68 0-1.627.44-2.947 1.32-3.96.906-1.04 2.053-1.787 3.44-2.24 1.386-.48 2.826-.72 4.32-.72 1.493 0 2.96.147 4.4.44 1.466.267 2.653.68 3.56 1.24v4.84c-1.147-.667-2.427-1.187-3.84-1.56-1.387-.4-2.694-.6-3.92-.6-1.334 0-2.36.213-3.08.64-.72.4-1.08.987-1.08 1.76 0 .827.333 1.373 1 1.64.666.267 1.52.453 2.56.56l2.68.24c2 .187 3.626.76 4.88 1.72 1.253.933 1.88 2.493 1.88 4.68 0 1.333-.294 2.467-.88 3.4a6.335 6.335 0 0 1-2.28 2.24c-.934.56-1.974.96-3.12 1.2a15.13 15.13 0 0 1-3.44.4c-.827 0-1.734-.067-2.72-.2a20.348 20.348 0 0 1-2.88-.52c-.934-.267-1.747-.587-2.44-.96Zm22.163 1.16v-30.2h5.48v11.32a8.074 8.074 0 0 1 2.72-2.48c1.094-.64 2.44-.96 4.04-.96 2.534 0 4.44.76 5.72 2.28 1.28 1.52 1.92 3.68 1.92 6.48V871h-5.48v-12.04c0-1.867-.386-3.227-1.16-4.08-.746-.853-1.773-1.28-3.08-1.28-1.413 0-2.546.44-3.4 1.32-.853.853-1.28 2.28-1.28 4.28V871h-5.48Zm42.954 0h-5.48v-2.4c-1.254 2-3.347 3-6.28 3-2.294 0-4.067-.573-5.32-1.72-1.227-1.147-1.84-2.707-1.84-4.68 0-1.44.266-2.613.8-3.52.56-.907 1.28-1.6 2.16-2.08a9.17 9.17 0 0 1 2.92-.96c1.066-.187 2.12-.28 3.16-.28h4.4c0-.88-.094-1.68-.28-2.4-.16-.747-.587-1.333-1.28-1.76-.667-.427-1.76-.64-3.28-.64-1.28 0-2.534.173-3.76.52-1.2.347-2.414.973-3.64 1.88V851c1.04-.747 2.24-1.32 3.6-1.72 1.36-.4 2.933-.6 4.72-.6 1.946 0 3.533.24 4.76.72 1.226.453 2.173 1.08 2.84 1.88.693.8 1.16 1.72 1.4 2.76.266 1.04.4 2.147.4 3.32V871Zm-5.48-8.32v-.64h-3.72c-.854 0-1.614.067-2.28.2-.667.133-1.187.4-1.56.8-.374.373-.56.987-.56 1.84 0 1.787 1.093 2.68 3.28 2.68.826 0 1.6-.133 2.32-.4a3.754 3.754 0 0 0 1.8-1.48c.48-.72.72-1.72.72-3Zm10.925 17.2v-30.64h5.48v2.48a7.7 7.7 0 0 1 2.52-2.2c1.04-.56 2.28-.84 3.72-.84 2.906 0 5.106.893 6.6 2.68 1.493 1.787 2.24 4.213 2.24 7.28v3c0 3.307-.787 5.8-2.36 7.48-1.574 1.653-3.787 2.48-6.64 2.48-1.414 0-2.614-.267-3.6-.8a7.84 7.84 0 0 1-2.48-2.2v11.28h-5.48Zm5.48-18.04c0 1.52.453 2.813 1.36 3.88.906 1.04 2.066 1.56 3.48 1.56 1.413 0 2.52-.453 3.32-1.36.826-.933 1.24-2.293 1.24-4.08v-3.4c0-1.76-.414-3.093-1.24-4-.827-.933-1.96-1.4-3.4-1.4-1.2 0-2.267.427-3.2 1.28-.907.853-1.427 2.027-1.56 3.52v4Zm28.634-13.16c1.947 0 3.653.373 5.12 1.12 1.493.72 2.653 1.813 3.48 3.28.853 1.467 1.28 3.307 1.28 5.52v3.52h-14.12c.133 1.733.707 3 1.72 3.8 1.013.773 2.4 1.16 4.16 1.16 1.333 0 2.587-.093 3.76-.28 1.2-.213 2.533-.707 4-1.48v4.28c-1.333.747-2.667 1.267-4 1.56-1.307.293-2.853.44-4.64.44-3.36 0-5.96-.867-7.8-2.6-1.84-1.733-2.76-4.24-2.76-7.52v-2.64c0-2.16.413-3.987 1.24-5.48.827-1.52 1.973-2.68 3.44-3.48 1.493-.8 3.2-1.2 5.12-1.2Zm0 4.36c-2.747 0-4.16 1.773-4.24 5.32h8.56c-.027-1.84-.4-3.187-1.12-4.04-.693-.853-1.76-1.28-3.2-1.28Zm13.878 16.8v-4.6c1.2.587 2.48 1.067 3.84 1.44 1.387.373 2.84.56 4.36.56 1.28 0 2.32-.2 3.12-.6.827-.4 1.24-1.027 1.24-1.88s-.306-1.44-.92-1.76c-.613-.347-1.466-.56-2.56-.64l-2.8-.32a11.762 11.762 0 0 1-3.24-.76 5.68 5.68 0 0 1-2.48-2c-.613-.907-.92-2.133-.92-3.68 0-1.627.44-2.947 1.32-3.96.907-1.04 2.054-1.787 3.44-2.24 1.387-.48 2.827-.72 4.32-.72 1.494 0 2.96.147 4.4.44 1.467.267 2.654.68 3.56 1.24v4.84c-1.146-.667-2.426-1.187-3.84-1.56-1.386-.4-2.693-.6-3.92-.6-1.333 0-2.36.213-3.08.64-.72.4-1.08.987-1.08 1.76 0 .827.334 1.373 1 1.64.667.267 1.52.453 2.56.56l2.68.24c2 .187 3.627.76 4.88 1.72 1.254.933 1.88 2.493 1.88 4.68 0 1.333-.293 2.467-.88 3.4a6.335 6.335 0 0 1-2.28 2.24c-.933.56-1.973.96-3.12 1.2-1.146.267-2.293.4-3.44.4-.826 0-1.733-.067-2.72-.2a20.4 20.4 0 0 1-2.88-.52c-.933-.267-1.746-.587-2.44-.96Z"/></svg>