<svg width="1920" height="1080" fill="none" xmlns="http://www.w3.org/2000/svg"><g clip-path="url(#a)"><path d="M562.903 49.3h325.032l56.04 736.926v142.902h33.624V786.226L1033.64 49.3h325.03V1030h-168.12V374.332l16.81-224.16h-33.62L1100.89 1030H823.489l-75.654-879.828h-33.624l16.812 224.16V1030h-168.12V49.3Z" fill="#3C4043"/><mask id="b" style="mask-type:alpha" maskUnits="userSpaceOnUse" x="623" y="129" width="677" height="811"><circle cx="739.5" cy="245.5" r="116.5" fill="#F3F7FE"/><circle cx="1183.5" cy="245.5" r="116.5" fill="#F3F7FE"/><circle cx="960.5" cy="823.5" r="116.5" fill="#F3F7FE"/></mask><g mask="url(#b)"><path d="M562.903 49.3h325.032l56.04 736.926v142.902h33.624V786.226L1033.64 49.3h325.03V1030h-168.12V374.332l16.81-224.16h-33.62L1100.89 1030H823.489l-75.654-879.828h-33.624l16.812 224.16V1030h-168.12V49.3Z" fill="#1A73E8"/></g><circle cx="739.5" cy="245.5" r="121.5" stroke="#1A73E8" stroke-width="10"/><circle cx="1183.5" cy="245.5" r="121.5" stroke="#1A73E8" stroke-width="10"/><circle cx="960.5" cy="823.5" r="121.5" stroke="#1A73E8" stroke-width="10"/></g><defs><clipPath id="a"><path fill="#fff" d="M0 0h1920v1080H0z"/></clipPath></defs></svg>