<svg width="1920" height="1080" viewBox="0 0 1920 1080" fill="none" xmlns="http://www.w3.org/2000/svg">
<mask id="mask0_1034:848" style="mask-type:alpha" maskUnits="userSpaceOnUse" x="50" y="50" width="1820" height="980">
<rect x="50" y="50" width="1820" height="980" fill="#C4C4C4"/>
</mask>
<g mask="url(#mask0_1034:848)">
<path d="M493.288 967.088C432.843 967.088 375.579 955.953 321.496 933.684C268.209 911.415 221.284 879.999 180.722 839.437C140.16 798.875 108.347 751.553 85.282 697.47C62.2173 643.387 50.685 584.533 50.685 520.906C50.685 457.279 62.2173 398.425 85.282 344.342C108.347 290.259 140.16 242.937 180.722 202.375C221.284 161.813 268.209 130.397 321.496 108.128C375.579 85.8586 432.843 74.7239 493.288 74.7239C556.119 74.7239 614.974 85.8586 669.852 108.128C725.525 130.397 771.257 161.813 807.047 202.375L735.467 275.148C707.63 241.744 672.636 216.293 630.483 198.796C588.33 180.503 542.996 171.357 494.481 171.357C449.942 171.357 406.994 179.708 365.637 196.41C325.075 212.317 288.887 235.779 257.074 266.797C225.261 297.02 199.81 333.605 180.722 376.553C162.429 419.501 153.283 467.619 153.283 520.906C153.283 574.193 162.429 622.311 180.722 665.259C199.81 708.207 225.261 745.19 257.074 776.208C288.887 806.431 325.075 829.893 365.637 846.595C406.994 862.502 449.942 870.455 494.481 870.455C558.108 870.455 608.611 860.513 645.992 840.63C684.168 819.951 714.788 797.284 737.853 772.629C780.801 727.295 805.456 665.657 811.819 587.714H495.674V493.467H906.066C907.657 503.806 908.85 514.146 909.645 524.485C911.236 534.029 912.031 544.368 912.031 555.503C912.031 602.428 904.475 651.738 889.364 703.435C874.253 754.336 846.814 799.67 807.047 839.437C768.871 880.794 723.537 912.608 671.045 934.877C618.553 956.351 559.301 967.088 493.288 967.088ZM1293.87 967.088C1232.62 967.088 1178.54 952.772 1131.62 924.14C1084.69 895.508 1047.71 856.934 1020.67 808.419C994.423 759.108 981.3 704.23 981.3 643.785C981.3 583.34 994.423 528.859 1020.67 480.344C1047.71 431.033 1084.69 392.062 1131.62 363.43C1178.54 334.798 1232.62 320.482 1293.87 320.482C1355.11 320.482 1409.19 335.196 1456.11 364.623C1503.04 393.255 1539.62 432.226 1565.87 481.537C1592.91 530.052 1606.43 584.135 1606.43 643.785C1606.43 704.23 1592.91 759.108 1565.87 808.419C1539.62 856.934 1503.04 895.508 1456.11 924.14C1409.19 952.772 1355.11 967.088 1293.87 967.088ZM1293.87 875.227C1330.45 875.227 1364.65 866.081 1396.46 847.788C1429.07 829.495 1455.32 803.249 1475.2 769.05C1495.08 734.055 1505.03 692.3 1505.03 643.785C1505.03 595.27 1495.08 553.912 1475.2 519.713C1455.32 484.718 1429.07 458.075 1396.46 439.782C1364.65 421.489 1330.45 412.343 1293.87 412.343C1257.28 412.343 1222.68 421.489 1190.07 439.782C1157.47 458.075 1131.22 484.718 1111.34 519.713C1091.45 553.912 1081.51 595.27 1081.51 643.785C1081.51 692.3 1091.45 734.055 1111.34 769.05C1131.22 803.249 1157.47 829.495 1190.07 847.788C1222.68 866.081 1257.28 875.227 1293.87 875.227ZM2004.54 967.088C1943.3 967.088 1889.22 952.772 1842.29 924.14C1795.37 895.508 1758.38 856.934 1731.34 808.419C1705.1 759.108 1691.97 704.23 1691.97 643.785C1691.97 583.34 1705.1 528.859 1731.34 480.344C1758.38 431.033 1795.37 392.062 1842.29 363.43C1889.22 334.798 1943.3 320.482 2004.54 320.482C2065.78 320.482 2119.86 335.196 2166.79 364.623C2213.71 393.255 2250.3 432.226 2276.54 481.537C2303.58 530.052 2317.11 584.135 2317.11 643.785C2317.11 704.23 2303.58 759.108 2276.54 808.419C2250.3 856.934 2213.71 895.508 2166.79 924.14C2119.86 952.772 2065.78 967.088 2004.54 967.088ZM2004.54 875.227C2041.12 875.227 2075.32 866.081 2107.14 847.788C2139.75 829.495 2165.99 803.249 2185.88 769.05C2205.76 734.055 2215.7 692.3 2215.7 643.785C2215.7 595.27 2205.76 553.912 2185.88 519.713C2165.99 484.718 2139.75 458.075 2107.14 439.782C2075.32 421.489 2041.12 412.343 2004.54 412.343C1967.95 412.343 1933.36 421.489 1900.75 439.782C1868.14 458.075 1841.89 484.718 1822.01 519.713C1802.13 553.912 1792.19 595.27 1792.19 643.785C1792.19 692.3 1802.13 734.055 1822.01 769.05C1841.89 803.249 1868.14 829.495 1900.75 847.788C1933.36 866.081 1967.95 875.227 2004.54 875.227ZM2702.09 1224.78C2650.39 1224.78 2605.85 1216.03 2568.47 1198.53C2531.89 1181.83 2502.06 1160.35 2479 1134.11C2456.73 1107.86 2440.82 1081.22 2431.28 1054.18L2524.33 1014.81C2537.06 1048.21 2558.53 1076.05 2588.76 1098.32C2619.77 1121.38 2657.55 1132.92 2702.09 1132.92C2765.72 1132.92 2814.63 1114.22 2848.83 1076.84C2883.03 1040.26 2900.13 988.96 2900.13 922.947V854.946H2895.36C2876.27 884.373 2848.83 909.426 2813.04 930.105C2777.25 949.988 2735.49 959.93 2687.77 959.93C2635.28 959.93 2587.16 946.409 2543.42 919.368C2500.47 892.327 2466.27 854.946 2440.82 807.226C2415.37 758.711 2402.65 703.037 2402.65 640.206C2402.65 577.375 2415.37 522.099 2440.82 474.379C2466.27 425.864 2500.47 388.085 2543.42 361.044C2587.16 334.003 2635.28 320.482 2687.77 320.482C2735.49 320.482 2777.25 330.821 2813.04 351.5C2848.83 371.383 2876.27 396.436 2895.36 426.659H2900.13V339.57H2996.76V924.14C2996.76 991.743 2983.64 1047.81 2957.39 1092.35C2931.94 1136.89 2896.95 1169.9 2852.41 1191.37C2808.66 1213.64 2758.56 1224.78 2702.09 1224.78ZM2702.09 868.069C2737.88 868.069 2770.89 859.32 2801.11 841.823C2831.33 823.53 2855.19 797.284 2872.69 763.085C2890.98 728.886 2900.13 687.926 2900.13 640.206C2900.13 590.895 2890.98 549.538 2872.69 516.134C2855.19 481.935 2831.33 456.086 2801.11 438.589C2770.89 421.092 2737.88 412.343 2702.09 412.343C2666.3 412.343 2633.29 421.489 2603.07 439.782C2572.85 457.279 2548.59 483.128 2530.3 517.327C2512.01 550.731 2502.86 591.691 2502.86 640.206C2502.86 688.721 2512.01 730.079 2530.3 764.278C2548.59 797.682 2572.85 823.53 2603.07 841.823C2633.29 859.32 2666.3 868.069 2702.09 868.069ZM3146.7 948V93.812H3248.1V948H3146.7ZM3663.33 967.088C3604.48 967.088 3551.98 953.17 3505.86 925.333C3460.52 897.496 3424.73 859.32 3398.49 810.805C3373.03 762.29 3360.31 707.014 3360.31 644.978C3360.31 586.919 3372.24 533.234 3396.1 483.923C3420.75 434.612 3454.95 395.243 3498.7 365.816C3543.24 335.593 3595.33 320.482 3654.98 320.482C3715.43 320.482 3767.12 334.003 3810.07 361.044C3853.81 387.29 3887.22 423.875 3910.28 470.8C3934.14 517.725 3946.07 571.41 3946.07 631.855C3946.07 637.422 3945.67 642.99 3944.88 648.557C3944.88 654.124 3944.48 658.896 3943.69 662.873H3461.71C3464.9 710.593 3476.43 750.36 3496.31 782.173C3516.99 813.191 3542.44 836.653 3572.66 852.56C3602.89 867.671 3634.3 875.227 3666.91 875.227C3711.45 875.227 3748.03 864.888 3776.67 844.209C3806.09 822.735 3829.56 796.489 3847.05 765.471L3932.95 807.226C3909.09 853.355 3874.89 891.531 3830.35 921.754C3785.81 951.977 3730.14 967.088 3663.33 967.088ZM3654.98 412.343C3605.67 412.343 3564.71 427.852 3532.1 458.87C3499.49 489.888 3478.02 530.052 3467.68 579.363H3838.7C3837.91 556.298 3831.15 532.041 3818.42 506.59C3806.49 480.344 3787.4 458.075 3761.16 439.782C3734.91 421.489 3699.52 412.343 3654.98 412.343ZM4564.79 967.088C4523.43 967.088 4482.47 958.339 4441.91 940.842C4401.35 923.345 4365.56 897.496 4334.54 863.297C4303.52 829.098 4280.86 786.547 4266.54 735.646L4363.17 696.277C4376.7 745.588 4401.35 786.945 4437.14 820.349C4472.93 853.753 4516.28 870.455 4567.18 870.455C4598.99 870.455 4628.02 864.888 4654.27 853.753C4681.31 841.823 4702.78 824.723 4718.69 802.454C4735.39 780.185 4743.74 753.143 4743.74 721.33C4743.74 679.177 4727.84 645.773 4696.02 621.118C4665 595.667 4618.87 572.205 4557.63 550.731L4503.95 531.643C4472.14 519.713 4440.32 504.602 4408.51 486.309C4376.7 468.016 4350.45 444.156 4329.77 414.729C4309.09 384.506 4298.75 346.728 4298.75 301.394C4298.75 260.037 4309.89 222.258 4332.16 188.059C4354.43 153.86 4385.05 126.421 4424.02 105.742C4462.99 85.0633 4507.93 74.7239 4558.83 74.7239C4612.11 74.7239 4656.65 84.6656 4692.44 104.549C4729.03 123.637 4757.66 146.702 4778.34 173.743C4799.81 199.989 4814.13 224.247 4821.29 246.516L4727.04 287.078C4722.27 270.376 4713.12 253.276 4699.6 235.779C4686.08 217.486 4667.79 202.375 4644.72 190.445C4622.45 177.72 4594.22 171.357 4560.02 171.357C4532.18 171.357 4505.94 176.924 4481.28 188.059C4457.42 199.194 4437.94 214.703 4422.82 234.586C4408.51 253.674 4401.35 275.943 4401.35 301.394C4401.35 337.184 4415.67 365.418 4444.3 386.097C4472.93 406.776 4511.5 425.466 4560.02 442.168L4616.09 461.256C4641.54 470.005 4667.39 480.742 4693.64 493.467C4720.68 506.192 4745.73 522.497 4768.79 542.38C4791.86 562.263 4810.55 586.919 4824.87 616.346C4839.18 644.978 4846.34 679.575 4846.34 720.137C4846.34 763.88 4837.59 801.659 4820.09 833.472C4803.39 864.49 4781.12 889.941 4753.29 909.824C4725.45 929.707 4694.83 944.023 4661.42 952.772C4628.82 962.316 4596.61 967.088 4564.79 967.088ZM5170.27 967.088C5124.93 967.088 5085.17 958.339 5050.97 940.842C5016.77 923.345 4989.73 899.485 4969.84 869.262C4950.76 838.244 4941.21 803.249 4941.21 764.278C4941.21 719.739 4952.74 682.359 4975.81 652.136C4998.87 621.118 5029.89 598.053 5068.86 582.942C5107.83 567.035 5150.78 559.082 5197.71 559.082C5238.27 559.082 5274.06 563.456 5305.08 572.205C5336.09 580.954 5358.36 589.702 5371.88 598.451V561.468C5371.88 515.339 5355.58 478.753 5322.97 451.712C5290.36 424.671 5250.6 411.15 5203.67 411.15C5170.27 411.15 5138.85 418.706 5109.42 433.817C5080.79 448.133 5058.13 468.414 5041.42 494.66L4965.07 437.396C4988.93 401.606 5021.54 373.372 5062.9 352.693C5105.05 331.219 5151.97 320.482 5203.67 320.482C5286.39 320.482 5351.21 342.354 5398.13 386.097C5445.06 429.84 5468.52 488.695 5468.52 562.661V948H5371.88V860.911H5367.11C5351.21 887.952 5326.15 912.608 5291.95 934.877C5257.75 956.351 5217.19 967.088 5170.27 967.088ZM5179.81 877.613C5214.81 877.613 5246.62 868.864 5275.25 851.367C5304.68 833.87 5328.14 810.407 5345.64 780.98C5363.14 751.553 5371.88 719.342 5371.88 684.347C5353.59 671.622 5330.53 661.282 5302.69 653.329C5275.65 645.376 5245.82 641.399 5213.22 641.399C5155.16 641.399 5112.61 653.329 5085.56 677.189C5058.52 701.049 5045 730.476 5045 765.471C5045 798.875 5057.73 825.916 5083.18 846.595C5108.63 867.274 5140.84 877.613 5179.81 877.613ZM5609.59 948V339.57H5706.22V429.045H5710.99C5726.9 399.618 5752.75 374.167 5788.54 352.693C5825.13 331.219 5864.89 320.482 5907.84 320.482C5982.6 320.482 6038.67 342.354 6076.05 386.097C6114.23 429.045 6133.32 486.309 6133.32 557.889V948H6031.91V573.398C6031.91 514.543 6017.6 473.186 5988.96 449.326C5961.13 424.671 5924.94 412.343 5880.4 412.343C5847 412.343 5817.57 421.887 5792.12 440.975C5766.67 459.268 5746.78 483.128 5732.47 512.555C5718.15 541.982 5710.99 573 5710.99 605.609V948H5609.59ZM6484.85 967.088C6416.45 967.088 6360.78 951.181 6317.83 919.368C6274.88 886.759 6245.06 848.186 6228.36 803.647L6319.02 763.085C6334.93 799.67 6357.6 827.905 6387.02 847.788C6417.25 867.671 6449.86 877.613 6484.85 877.613C6520.64 877.613 6552.45 870.057 6580.29 854.946C6608.92 839.835 6623.24 817.565 6623.24 788.138C6623.24 761.097 6611.31 740.02 6587.45 724.909C6564.38 709.798 6531.78 697.072 6489.62 686.733L6415.66 667.645C6387.02 659.692 6359.98 648.557 6334.53 634.241C6309.08 619.925 6288.4 601.632 6272.5 579.363C6257.39 556.298 6249.83 528.462 6249.83 495.853C6249.83 459.268 6260.57 427.852 6282.04 401.606C6303.51 375.36 6331.75 355.477 6366.74 341.956C6401.74 327.64 6439.12 320.482 6478.89 320.482C6530.58 320.482 6577.51 332.014 6619.66 355.079C6662.61 377.348 6692.83 409.559 6710.33 451.712L6622.05 492.274C6606.93 462.051 6586.65 440.975 6561.2 429.045C6535.75 417.115 6507.92 411.15 6477.69 411.15C6445.88 411.15 6416.85 418.706 6390.6 433.817C6365.15 448.133 6352.43 468.016 6352.43 493.467C6352.43 518.918 6362.37 538.006 6382.25 550.731C6402.93 563.456 6427.98 573.796 6457.41 581.749L6545.69 604.416C6665.79 635.434 6725.84 694.289 6725.84 780.98C6725.84 819.156 6715.1 852.162 6693.63 879.999C6672.15 907.836 6643.12 929.31 6606.54 944.421C6569.95 959.532 6529.39 967.088 6484.85 967.088Z" fill="#D2E3FC"/>
<path d="M296.159 590.96C284.812 590.96 274.637 588.123 265.634 582.45C256.63 576.653 249.539 568.575 244.359 558.215C239.179 547.855 236.589 535.707 236.589 521.77C236.589 507.833 239.302 495.685 244.729 485.325C250.155 474.965 257.617 466.948 267.114 461.275C276.61 455.478 287.402 452.58 299.489 452.58C314.165 452.58 326.622 455.91 336.859 462.57C347.095 469.107 353.447 478.603 355.914 491.06L331.679 497.535C329.459 490.628 325.697 485.387 320.394 481.81C315.09 478.11 308.06 476.26 299.304 476.26C292.397 476.26 286.045 477.987 280.249 481.44C274.575 484.893 270.012 490.012 266.559 496.795C263.229 503.578 261.564 511.903 261.564 521.77C261.564 531.637 263.167 539.962 266.374 546.745C269.704 553.528 274.205 558.647 279.879 562.1C285.552 565.553 291.842 567.28 298.749 567.28C308.615 567.28 316.632 564.567 322.799 559.14C329.089 553.713 332.85 546.622 334.084 537.865H298.934V516.775H358.504V588H335.564V571.72H334.084C330.014 578.133 324.895 582.943 318.729 586.15C312.562 589.357 305.039 590.96 296.159 590.96ZM427.017 590.96C417.027 590.96 408.332 588.802 400.932 584.485C393.656 580.045 387.982 573.94 383.912 566.17C379.966 558.4 377.992 549.458 377.992 539.345C377.992 529.232 379.966 520.29 383.912 512.52C387.982 504.75 393.656 498.707 400.932 494.39C408.332 489.95 417.027 487.73 427.017 487.73C437.131 487.73 445.826 489.95 453.102 494.39C460.379 498.707 465.991 504.75 469.937 512.52C474.007 520.29 476.042 529.232 476.042 539.345C476.042 549.458 474.007 558.4 469.937 566.17C465.991 573.94 460.379 580.045 453.102 584.485C445.826 588.802 437.131 590.96 427.017 590.96ZM427.017 568.39C434.294 568.39 440.214 565.923 444.777 560.99C449.464 556.057 451.807 548.842 451.807 539.345C451.807 529.848 449.464 522.633 444.777 517.7C440.214 512.767 434.294 510.3 427.017 510.3C419.741 510.3 413.759 512.767 409.072 517.7C404.509 522.633 402.227 529.848 402.227 539.345C402.227 548.842 404.509 556.057 409.072 560.99C413.759 565.923 419.741 568.39 427.017 568.39ZM540.655 590.96C530.665 590.96 521.97 588.802 514.57 584.485C507.293 580.045 501.62 573.94 497.55 566.17C493.603 558.4 491.63 549.458 491.63 539.345C491.63 529.232 493.603 520.29 497.55 512.52C501.62 504.75 507.293 498.707 514.57 494.39C521.97 489.95 530.665 487.73 540.655 487.73C550.768 487.73 559.463 489.95 566.74 494.39C574.017 498.707 579.628 504.75 583.575 512.52C587.645 520.29 589.68 529.232 589.68 539.345C589.68 549.458 587.645 558.4 583.575 566.17C579.628 573.94 574.017 580.045 566.74 584.485C559.463 588.802 550.768 590.96 540.655 590.96ZM540.655 568.39C547.932 568.39 553.852 565.923 558.415 560.99C563.102 556.057 565.445 548.842 565.445 539.345C565.445 529.848 563.102 522.633 558.415 517.7C553.852 512.767 547.932 510.3 540.655 510.3C533.378 510.3 527.397 512.767 522.71 517.7C518.147 522.633 515.865 529.848 515.865 539.345C515.865 548.842 518.147 556.057 522.71 560.99C527.397 565.923 533.378 568.39 540.655 568.39ZM648.188 590.96C640.171 590.96 632.894 588.987 626.358 585.04C619.821 581.093 614.641 575.297 610.818 567.65C606.994 559.88 605.083 550.445 605.083 539.345C605.083 528.122 607.056 518.687 611.003 511.04C614.949 503.393 620.191 497.597 626.728 493.65C633.388 489.703 640.603 487.73 648.373 487.73C655.649 487.73 661.693 489.087 666.503 491.8C671.436 494.39 675.074 497.843 677.418 502.16H678.898L677.418 487.73V444.44H701.653V588H678.898V576.715H677.418C674.828 580.538 671.128 583.868 666.318 586.705C661.508 589.542 655.464 590.96 648.188 590.96ZM654.108 568.39C661.138 568.39 666.996 565.985 671.683 561.175C676.493 556.365 678.898 549.088 678.898 539.345C678.898 529.602 676.493 522.325 671.683 517.515C666.996 512.705 661.138 510.3 654.108 510.3C647.078 510.3 641.158 512.705 636.348 517.515C631.661 522.325 629.318 529.602 629.318 539.345C629.318 549.088 631.661 556.365 636.348 561.175C641.158 565.985 647.078 568.39 654.108 568.39ZM780.476 588V511.41H764.011V490.69H780.476V475.705C780.476 464.728 783.682 456.28 790.096 450.36C796.509 444.44 804.587 441.48 814.331 441.48C817.291 441.48 820.127 441.665 822.841 442.035C825.554 442.405 827.712 442.898 829.316 443.515V466.825C827.712 466.085 825.924 465.468 823.951 464.975C822.101 464.358 819.942 464.05 817.476 464.05C813.652 464.05 810.569 465.222 808.226 467.565C805.882 469.908 804.711 473.115 804.711 477.185V490.69H826.911V511.41H804.711V588H780.476ZM884.82 590.96C874.83 590.96 866.135 588.802 858.735 584.485C851.458 580.045 845.785 573.94 841.715 566.17C837.768 558.4 835.795 549.458 835.795 539.345C835.795 529.232 837.768 520.29 841.715 512.52C845.785 504.75 851.458 498.707 858.735 494.39C866.135 489.95 874.83 487.73 884.82 487.73C894.933 487.73 903.628 489.95 910.905 494.39C918.182 498.707 923.793 504.75 927.74 512.52C931.81 520.29 933.845 529.232 933.845 539.345C933.845 549.458 931.81 558.4 927.74 566.17C923.793 573.94 918.182 580.045 910.905 584.485C903.628 588.802 894.933 590.96 884.82 590.96ZM884.82 568.39C892.097 568.39 898.017 565.923 902.58 560.99C907.267 556.057 909.61 548.842 909.61 539.345C909.61 529.848 907.267 522.633 902.58 517.7C898.017 512.767 892.097 510.3 884.82 510.3C877.543 510.3 871.562 512.767 866.875 517.7C862.312 522.633 860.03 529.848 860.03 539.345C860.03 548.842 862.312 556.057 866.875 560.99C871.562 565.923 877.543 568.39 884.82 568.39ZM953.361 588V490.69H976.116V503.27H977.596C979.693 498.83 982.776 495.13 986.846 492.17C990.916 489.21 995.911 487.73 1001.83 487.73C1004.17 487.73 1006.09 487.853 1007.57 488.1C1009.05 488.347 1010.34 488.593 1011.45 488.84V512.89C1009.72 512.15 1007.75 511.533 1005.53 511.04C1003.31 510.547 1000.78 510.3 997.946 510.3C992.026 510.3 987.154 512.52 983.331 516.96C979.508 521.277 977.596 527.258 977.596 534.905V588H953.361ZM1132.02 590.96C1124.75 590.96 1118.76 589.603 1114.08 586.89C1109.39 584.053 1105.69 580.662 1102.98 576.715H1101.5V588H1078.74V444.44H1102.98V487.73L1101.5 502.16H1102.98C1105.2 498.46 1108.77 495.13 1113.71 492.17C1118.76 489.21 1124.87 487.73 1132.02 487.73C1140.29 487.73 1147.62 489.765 1154.04 493.835C1160.57 497.782 1165.75 503.578 1169.58 511.225C1173.4 518.872 1175.31 528.245 1175.31 539.345C1175.31 550.322 1173.4 559.695 1169.58 567.465C1165.75 575.112 1160.57 580.97 1154.04 585.04C1147.62 588.987 1140.29 590.96 1132.02 590.96ZM1126.29 568.39C1133.32 568.39 1139.18 565.923 1143.86 560.99C1148.67 555.933 1151.08 548.718 1151.08 539.345C1151.08 529.972 1148.67 522.818 1143.86 517.885C1139.18 512.828 1133.32 510.3 1126.29 510.3C1119.26 510.3 1113.34 512.828 1108.53 517.885C1103.84 522.818 1101.5 529.972 1101.5 539.345C1101.5 548.718 1103.84 555.933 1108.53 560.99C1113.34 565.923 1119.26 568.39 1126.29 568.39ZM1194.73 588V490.69H1217.48V503.27H1218.96C1221.06 498.83 1224.14 495.13 1228.21 492.17C1232.28 489.21 1237.28 487.73 1243.2 487.73C1245.54 487.73 1247.45 487.853 1248.93 488.1C1250.41 488.347 1251.71 488.593 1252.82 488.84V512.89C1251.09 512.15 1249.12 511.533 1246.9 511.04C1244.68 510.547 1242.15 510.3 1239.31 510.3C1233.39 510.3 1228.52 512.52 1224.7 516.96C1220.87 521.277 1218.96 527.258 1218.96 534.905V588H1194.73ZM1299.67 590.96C1289.31 590.96 1281.11 588.123 1275.06 582.45C1269.02 576.777 1266 569.192 1266 559.695C1266 553.158 1267.66 547.608 1270.99 543.045C1274.32 538.358 1278.83 534.782 1284.5 532.315C1290.3 529.848 1296.71 528.615 1303.74 528.615C1308.3 528.615 1312.68 528.923 1316.87 529.54C1321.19 530.033 1325.57 530.773 1330.01 531.76V523.99C1330.01 518.933 1328.22 514.863 1324.64 511.78C1321.07 508.697 1316.01 507.155 1309.47 507.155C1304.66 507.155 1300.47 508.388 1296.89 510.855C1293.32 513.198 1290.85 516.528 1289.49 520.845L1268.4 516.405C1269.88 509.868 1272.66 504.503 1276.73 500.31C1280.92 496.117 1285.86 492.972 1291.53 490.875C1297.33 488.778 1303.43 487.73 1309.84 487.73C1324.52 487.73 1335.5 491.06 1342.77 497.72C1350.05 504.38 1353.69 514.123 1353.69 526.95V588H1330.01V578.38H1328.53C1325.69 581.833 1321.81 584.793 1316.87 587.26C1311.94 589.727 1306.21 590.96 1299.67 590.96ZM1305.77 572.09C1313.42 572.09 1319.34 569.87 1323.53 565.43C1327.85 560.867 1330.01 555.625 1330.01 549.705C1326.56 548.595 1322.86 547.732 1318.91 547.115C1314.96 546.375 1311.08 546.005 1307.25 546.005C1301.21 546.005 1296.83 547.3 1294.12 549.89C1291.41 552.357 1290.05 555.563 1290.05 559.51C1290.05 563.21 1291.53 566.232 1294.49 568.575C1297.45 570.918 1301.21 572.09 1305.77 572.09ZM1379.73 588V490.69H1402.48V502.53H1403.96C1406.8 497.967 1410.75 494.39 1415.8 491.8C1420.86 489.087 1426.53 487.73 1432.82 487.73C1444.05 487.73 1452.56 491.122 1458.35 497.905C1464.15 504.565 1467.05 513.938 1467.05 526.025V588H1442.81V529.355C1442.81 523.188 1441.27 518.502 1438.19 515.295C1435.23 511.965 1431.03 510.3 1425.61 510.3C1418.95 510.3 1413.64 512.767 1409.7 517.7C1405.87 522.633 1403.96 528.738 1403.96 536.015V588H1379.73ZM1530.37 590.96C1522.35 590.96 1515.08 588.987 1508.54 585.04C1502 581.093 1496.82 575.297 1493 567.65C1489.18 559.88 1487.27 550.445 1487.27 539.345C1487.27 528.122 1489.24 518.687 1493.19 511.04C1497.13 503.393 1502.37 497.597 1508.91 493.65C1515.57 489.703 1522.79 487.73 1530.56 487.73C1537.83 487.73 1543.88 489.087 1548.69 491.8C1553.62 494.39 1557.26 497.843 1559.6 502.16H1561.08L1559.6 487.73V444.44H1583.84V588H1561.08V576.715H1559.6C1557.01 580.538 1553.31 583.868 1548.5 586.705C1543.69 589.542 1537.65 590.96 1530.37 590.96ZM1536.29 568.39C1543.32 568.39 1549.18 565.985 1553.87 561.175C1558.68 556.365 1561.08 549.088 1561.08 539.345C1561.08 529.602 1558.68 522.325 1553.87 517.515C1549.18 512.705 1543.32 510.3 1536.29 510.3C1529.26 510.3 1523.34 512.705 1518.53 517.515C1513.84 522.325 1511.5 529.602 1511.5 539.345C1511.5 549.088 1513.84 556.365 1518.53 561.175C1523.34 565.985 1529.26 568.39 1536.29 568.39ZM1646.15 590.96C1633.57 590.96 1623.65 588.062 1616.37 582.265C1609.22 576.345 1604.84 568.822 1603.23 559.695L1626.36 555.81C1627.35 560.25 1629.57 563.703 1633.02 566.17C1636.47 568.513 1640.85 569.685 1646.15 569.685C1650.72 569.685 1654.66 568.883 1657.99 567.28C1661.45 565.553 1663.17 562.902 1663.17 559.325C1663.17 556.118 1661.57 553.528 1658.36 551.555C1655.16 549.582 1650.72 548.102 1645.04 547.115L1633.94 545.08C1626.05 543.6 1619.51 540.517 1614.33 535.83C1609.15 531.143 1606.56 524.915 1606.56 517.145C1606.56 511.348 1608.23 506.23 1611.56 501.79C1615.01 497.35 1619.58 493.897 1625.25 491.43C1631.05 488.963 1637.52 487.73 1644.67 487.73C1667.61 487.73 1680.81 496.61 1684.26 514.37L1662.99 517.7C1661.63 513.877 1659.41 511.163 1656.33 509.56C1653.25 507.957 1649.55 507.155 1645.23 507.155C1640.67 507.155 1636.97 508.08 1634.13 509.93C1631.42 511.78 1630.06 513.938 1630.06 516.405C1630.06 518.995 1631.17 521.153 1633.39 522.88C1635.61 524.607 1639.19 525.963 1644.12 526.95L1657.62 529.725C1667.12 531.698 1674.46 534.967 1679.64 539.53C1684.82 543.97 1687.41 550.445 1687.41 558.955C1687.41 565.368 1685.56 570.98 1681.86 575.79C1678.16 580.6 1673.16 584.362 1666.87 587.075C1660.71 589.665 1653.8 590.96 1646.15 590.96Z" fill="#3C4043"/>
</g>
</svg>
