<svg width="1920" height="1080" viewBox="0 0 1920 1080" fill="none" xmlns="http://www.w3.org/2000/svg">
<path d="M549 102L549 52L599 52" stroke="#FF6D7F" stroke-width="5" stroke-linecap="round"/>
<path d="M1364 980L1364 1030L1314 1030" stroke="#FF6D7F" stroke-width="5" stroke-linecap="round"/>
<path d="M1314 52L1364 52.0001L1364 102" stroke="#FF6D7F" stroke-width="5" stroke-linecap="round"/>
<path d="M599 1030L549 1030L549 980" stroke="#FF6D7F" stroke-width="5" stroke-linecap="round"/>
<line x1="488.5" y1="747.5" x2="1431.5" y2="747.5" stroke="#FF6D7F" stroke-width="5" stroke-linecap="round" stroke-dasharray="10 10"/>
<line x1="496.5" y1="589.5" x2="1423.5" y2="589.5" stroke="#FF6D7F" stroke-width="21" stroke-linecap="square"/>
<path d="M624.783 463V50.5348H657.886V439.355L652.368 463H624.783ZM682.055 464.576C671.547 464.576 662.264 459.322 654.207 448.813C646.326 438.305 642.385 424.468 642.385 407.304L657.886 391.278C657.886 404.064 658.849 415.273 660.775 424.906C662.877 434.539 665.592 439.355 668.92 439.355C673.123 439.355 675.225 431.386 675.225 415.448C675.225 399.335 675.225 362.467 675.225 304.845C675.225 247.572 675.225 210.88 675.225 194.766C675.225 178.478 673.123 170.334 668.92 170.334C665.592 170.334 662.877 175.238 660.775 185.046C658.849 194.854 657.886 205.888 657.886 218.148L642.385 202.385C642.385 185.221 646.326 171.384 654.207 160.876C662.264 150.367 671.547 145.113 682.055 145.113C699.395 145.113 708.064 157.898 708.064 183.469C708.064 208.865 708.064 249.324 708.064 304.845C708.064 360.19 708.064 400.649 708.064 426.22C708.064 451.791 699.395 464.576 682.055 464.576Z" fill="#3C4043"/>
<path d="M764.561 464.839C736.888 464.839 723.052 450.039 723.052 420.44C723.052 390.84 723.052 352.484 723.052 305.37C723.052 250.024 723.052 209.478 723.052 183.732C723.052 157.811 736.976 144.85 764.824 144.85C792.671 144.85 806.595 157.46 806.595 182.681C806.595 207.902 806.595 248.536 806.595 304.582C806.595 308.61 806.595 312.551 806.595 316.404H752.739V293.285H776.12L773.23 297.751C773.23 247.31 773.23 213.507 773.23 196.343C773.23 179.003 770.428 170.334 764.824 170.334C759.219 170.334 756.417 179.003 756.417 196.343C756.417 213.507 756.417 249.411 756.417 304.056C756.417 352.046 756.417 386.637 756.417 407.829C756.417 428.847 759.131 439.355 764.561 439.355V464.839ZM764.561 439.355C766.663 439.355 768.239 437.692 769.29 434.364C770.516 430.861 771.391 425.344 771.917 417.813C772.442 410.282 772.793 400.561 772.968 388.651C773.143 376.566 773.23 362.029 773.23 345.04H806.595C806.595 363.255 806.333 379.018 805.807 392.329C805.282 405.64 804.231 417.025 802.655 426.482C801.078 435.765 798.802 443.209 795.824 448.813C792.847 454.418 788.731 458.534 783.476 461.161C778.397 463.613 772.092 464.839 764.561 464.839L762.459 453.279L764.561 439.355Z" fill="#3C4043"/>
<path d="M866.22 464.839C847.479 464.839 835.57 457.921 830.49 444.084C825.411 430.248 822.872 398.284 822.872 348.193H857.287C857.287 387.775 857.55 412.909 858.076 423.592C858.601 434.101 861.228 439.355 865.957 439.355C870.861 439.355 873.401 435.415 873.576 427.533C873.751 419.652 873.839 406.866 873.839 389.177C873.839 364.306 872.525 347.58 869.898 338.998C867.271 330.24 860.79 322.797 850.457 316.667C836.971 309.136 828.826 299.853 826.024 288.819C823.222 277.785 821.821 257.205 821.821 227.08C821.821 201.684 824.273 181.718 829.177 167.181C834.081 152.469 845.903 145.113 864.644 145.113C883.384 145.113 895.206 153.169 900.11 169.283C905.189 185.396 907.729 216.046 907.729 261.234H873.313C873.313 226.555 873.05 202.735 872.525 189.775C872.175 176.814 869.548 170.334 864.644 170.334C859.915 170.334 857.287 175.676 856.762 186.359C856.237 197.043 855.974 210.88 855.974 227.869C855.974 250.287 857.287 264.824 859.915 271.48C862.542 277.96 868.847 284.178 878.83 290.132C892.316 297.664 900.548 307.997 903.526 321.133C906.503 334.094 907.992 356.074 907.992 387.075C907.992 415.799 905.627 435.94 900.898 447.5C896.17 459.059 884.61 464.839 866.22 464.839Z" fill="#3C4043"/>
<path d="M922.905 578.595V147.74H952.329L956.007 180.054V578.595H922.905ZM980.177 464.576C969.669 464.576 960.386 459.322 952.329 448.813C944.448 438.305 940.507 424.468 940.507 407.304L956.007 391.278C956.007 404.064 956.971 415.273 958.897 424.906C960.999 434.539 963.714 439.355 967.041 439.355C971.245 439.355 973.347 431.386 973.347 415.448C973.347 399.335 973.347 362.467 973.347 304.845C973.347 247.572 973.347 210.88 973.347 194.766C973.347 178.478 971.245 170.334 967.041 170.334C963.714 170.334 960.999 175.238 958.897 185.046C956.971 194.854 956.007 205.888 956.007 218.148L940.507 202.385C940.507 185.221 944.448 171.384 952.329 160.876C960.386 150.367 969.669 145.113 980.177 145.113C997.517 145.113 1006.19 157.898 1006.19 183.469C1006.19 208.865 1006.19 249.324 1006.19 304.845C1006.19 360.19 1006.19 400.649 1006.19 426.22C1006.19 451.791 997.517 464.576 980.177 464.576Z" fill="#3C4043"/>
<path d="M1062.68 464.839C1035.01 464.839 1021.17 452.842 1021.17 428.847C1021.17 404.677 1021.17 363.43 1021.17 305.107C1021.17 246.609 1021.17 205.275 1021.17 181.105C1021.17 156.76 1035.01 144.587 1062.68 144.587C1090.36 144.587 1104.19 156.76 1104.19 181.105C1104.19 205.275 1104.19 246.609 1104.19 305.107C1104.19 363.43 1104.19 404.677 1104.19 428.847C1104.19 452.842 1090.36 464.839 1062.68 464.839ZM1062.68 439.355C1068.11 439.355 1070.83 431.386 1070.83 415.448C1070.83 399.335 1070.83 362.555 1070.83 305.107C1070.83 247.66 1070.83 210.792 1070.83 194.504C1070.83 178.215 1068.11 170.071 1062.68 170.071C1057.08 170.071 1054.28 178.215 1054.28 194.504C1054.28 210.792 1054.28 247.66 1054.28 305.107C1054.28 362.555 1054.28 399.335 1054.28 415.448C1054.28 431.386 1057.08 439.355 1062.68 439.355Z" fill="#3C4043"/>
<path d="M1118.92 463V50.5348H1152.02V300.904L1148.08 297.751L1175.66 147.74H1209.29L1181.44 266.751L1183.02 255.717L1209.82 463H1175.93L1158.32 283.039L1167.52 282.514L1151.23 347.142L1152.02 325.862V463H1118.92Z" fill="#3C4043"/>
<path d="M1259.21 464.839C1231.53 464.839 1217.7 450.039 1217.7 420.44C1217.7 390.84 1217.7 352.484 1217.7 305.37C1217.7 250.024 1217.7 209.478 1217.7 183.732C1217.7 157.811 1231.62 144.85 1259.47 144.85C1287.32 144.85 1301.24 157.46 1301.24 182.681C1301.24 207.902 1301.24 248.536 1301.24 304.582C1301.24 308.61 1301.24 312.551 1301.24 316.404H1247.38V293.285H1270.77L1267.88 297.751C1267.88 247.31 1267.88 213.507 1267.88 196.343C1267.88 179.003 1265.07 170.334 1259.47 170.334C1253.87 170.334 1251.06 179.003 1251.06 196.343C1251.06 213.507 1251.06 249.411 1251.06 304.056C1251.06 352.046 1251.06 386.637 1251.06 407.829C1251.06 428.847 1253.78 439.355 1259.21 439.355V464.839ZM1259.21 439.355C1261.31 439.355 1262.89 437.692 1263.94 434.364C1265.16 430.861 1266.04 425.344 1266.56 417.813C1267.09 410.282 1267.44 400.561 1267.61 388.651C1267.79 376.566 1267.88 362.029 1267.88 345.04H1301.24C1301.24 363.255 1300.98 379.018 1300.45 392.329C1299.93 405.64 1298.88 417.025 1297.3 426.482C1295.72 435.765 1293.45 443.209 1290.47 448.813C1287.49 454.418 1283.38 458.534 1278.12 461.161C1273.04 463.613 1266.74 464.839 1259.21 464.839L1257.11 453.279L1259.21 439.355Z" fill="#3C4043"/>
<path d="M923.289 1030.92V600.07H952.713L956.391 632.384V1030.92H923.289ZM980.561 916.906C970.053 916.906 960.77 911.652 952.713 901.143C944.832 890.634 940.891 876.798 940.891 859.634L956.391 843.608C956.391 856.393 957.355 867.603 959.281 877.236C961.383 886.869 964.098 891.685 967.425 891.685C971.629 891.685 973.731 883.716 973.731 867.778C973.731 851.665 973.731 814.797 973.731 757.174C973.731 699.902 973.731 663.209 973.731 647.096C973.731 630.807 971.629 622.663 967.425 622.663C964.098 622.663 961.383 627.567 959.281 637.375C957.355 647.183 956.391 658.217 956.391 670.478L940.891 654.715C940.891 637.55 944.832 623.714 952.713 613.205C960.77 602.697 970.053 597.442 980.561 597.442C997.901 597.442 1006.57 610.228 1006.57 635.799C1006.57 661.195 1006.57 701.653 1006.57 757.174C1006.57 812.52 1006.57 852.978 1006.57 878.549C1006.57 904.12 997.901 916.906 980.561 916.906Z" fill="#3C4043"/>
<path d="M1063.07 917.169C1035.39 917.169 1021.56 905.171 1021.56 881.176C1021.56 857.006 1021.56 815.76 1021.56 757.437C1021.56 698.939 1021.56 657.605 1021.56 633.435C1021.56 609.09 1035.39 596.917 1063.07 596.917C1090.74 596.917 1104.58 609.09 1104.58 633.435C1104.58 657.605 1104.58 698.939 1104.58 757.437C1104.58 815.76 1104.58 857.006 1104.58 881.176C1104.58 905.171 1090.74 917.169 1063.07 917.169ZM1063.07 891.685C1068.5 891.685 1071.21 883.716 1071.21 867.778C1071.21 851.665 1071.21 814.884 1071.21 757.437C1071.21 699.989 1071.21 663.122 1071.21 646.833C1071.21 630.545 1068.5 622.4 1063.07 622.4C1057.46 622.4 1054.66 630.545 1054.66 646.833C1054.66 663.122 1054.66 699.989 1054.66 757.437C1054.66 814.884 1054.66 851.665 1054.66 867.778C1054.66 883.716 1057.46 891.685 1063.07 891.685Z" fill="#3C4043"/>
<path d="M1119.3 915.33V502.864H1152.4V753.233L1148.46 750.081L1176.05 600.07H1209.67L1181.83 719.08L1183.4 708.046L1210.2 915.33H1176.31L1158.71 735.369L1167.9 734.843L1151.61 799.471L1152.4 778.191V915.33H1119.3Z" fill="#3C4043"/>
<path d="M1259.59 917.169C1231.92 917.169 1218.08 902.369 1218.08 872.769C1218.08 843.17 1218.08 804.813 1218.08 757.7C1218.08 702.354 1218.08 661.808 1218.08 636.062C1218.08 610.14 1232.01 597.18 1259.85 597.18C1287.7 597.18 1301.63 609.79 1301.63 635.011C1301.63 660.232 1301.63 700.865 1301.63 756.911C1301.63 760.94 1301.63 764.88 1301.63 768.734H1247.77V745.615H1271.15L1268.26 750.081C1268.26 699.639 1268.26 665.836 1268.26 648.672C1268.26 631.333 1265.46 622.663 1259.85 622.663C1254.25 622.663 1251.45 631.333 1251.45 648.672C1251.45 665.836 1251.45 701.741 1251.45 756.386C1251.45 804.376 1251.45 838.967 1251.45 860.159C1251.45 881.176 1254.16 891.685 1259.59 891.685V917.169ZM1259.59 891.685C1261.69 891.685 1263.27 890.021 1264.32 886.693C1265.55 883.191 1266.42 877.674 1266.95 870.142C1267.47 862.611 1267.82 852.891 1268 840.981C1268.17 828.896 1268.26 814.359 1268.26 797.37H1301.63C1301.63 815.585 1301.36 831.348 1300.84 844.659C1300.31 857.97 1299.26 869.354 1297.68 878.812C1296.11 888.095 1293.83 895.538 1290.85 901.143C1287.88 906.747 1283.76 910.863 1278.51 913.491C1273.43 915.943 1267.12 917.169 1259.59 917.169L1257.49 905.609L1259.59 891.685Z" fill="#3C4043"/>
<mask id="path-9-inside-1_3529_16010" fill="white">
<path fill-rule="evenodd" clip-rule="evenodd" d="M547 744.875C547.315 841.69 625.895 920.076 722.784 920.076C819.673 920.076 898.253 841.69 898.568 744.875H547Z"/>
</mask>
<path fill-rule="evenodd" clip-rule="evenodd" d="M547 744.875C547.315 841.69 625.895 920.076 722.784 920.076C819.673 920.076 898.253 841.69 898.568 744.875H547Z" fill="#F3F7FE"/>
<path d="M547 744.875V721.515H523.564L523.64 744.951L547 744.875ZM898.568 744.875L921.928 744.951L922.004 721.515H898.568V744.875ZM722.784 896.716C638.771 896.716 570.633 828.746 570.36 744.799L523.64 744.951C523.997 854.633 613.019 943.436 722.784 943.436V896.716ZM875.208 744.799C874.935 828.746 806.797 896.716 722.784 896.716V943.436C832.549 943.436 921.571 854.633 921.928 744.951L875.208 744.799ZM898.568 721.515H547V768.235H898.568V721.515Z" fill="#3C4043" mask="url(#path-9-inside-1_3529_16010)"/>
<mask id="path-11-inside-2_3529_16010" fill="white">
<path fill-rule="evenodd" clip-rule="evenodd" d="M828.095 769.092C828.681 764.574 828.983 759.967 828.983 755.289C828.983 696.587 781.396 649 722.695 649C663.993 649 616.406 696.587 616.406 755.289C616.406 759.967 616.708 764.574 617.294 769.092H828.095ZM730.686 861.281H714.704C717.342 861.477 720.007 861.577 722.695 861.577C725.383 861.577 728.048 861.477 730.686 861.281Z"/>
</mask>
<path fill-rule="evenodd" clip-rule="evenodd" d="M828.095 769.092C828.681 764.574 828.983 759.967 828.983 755.289C828.983 696.587 781.396 649 722.695 649C663.993 649 616.406 696.587 616.406 755.289C616.406 759.967 616.708 764.574 617.294 769.092H828.095ZM730.686 861.281H714.704C717.342 861.477 720.007 861.577 722.695 861.577C725.383 861.577 728.048 861.477 730.686 861.281Z" fill="#F3F7FE"/>
<path d="M828.095 769.092V792.452H848.622L851.261 772.096L828.095 769.092ZM617.294 769.092L594.128 772.096L596.768 792.452H617.294V769.092ZM730.686 861.281L732.417 884.577L730.686 837.921V861.281ZM714.704 861.281V837.921L712.973 884.577L714.704 861.281ZM805.623 755.289C805.623 758.959 805.386 762.563 804.929 766.088L851.261 772.096C851.976 766.585 852.344 760.974 852.344 755.289H805.623ZM722.695 672.36C768.495 672.36 805.623 709.488 805.623 755.289H852.344C852.344 683.686 794.298 625.64 722.695 625.64V672.36ZM639.766 755.289C639.766 709.488 676.895 672.36 722.695 672.36V625.64C651.092 625.64 593.046 683.686 593.046 755.289H639.766ZM640.461 766.088C640.003 762.563 639.766 758.959 639.766 755.289H593.046C593.046 760.974 593.413 766.585 594.128 772.096L640.461 766.088ZM617.294 792.452H828.095V745.732H617.294V792.452ZM730.686 837.921H714.704V884.641H730.686V837.921ZM722.695 838.217C720.585 838.217 718.498 838.139 716.436 837.985L712.973 884.577C716.186 884.816 719.428 884.937 722.695 884.937V838.217ZM728.954 837.985C726.892 838.139 724.805 838.217 722.695 838.217V884.937C725.961 884.937 729.204 884.816 732.417 884.577L728.954 837.985Z" fill="#3C4043" mask="url(#path-11-inside-2_3529_16010)"/>
<path d="M766.27 757.236C767.354 755.365 768.698 753.382 770.325 751.252C774.257 746.103 778.968 741.14 784.418 735.397C786.748 732.943 789.213 730.346 791.81 727.531C805.833 712.332 821.407 693.033 825.897 665.671C827.812 667.106 829.853 668.959 832.013 671.308C838.607 678.477 844.955 688.854 850.514 700.92C859.304 719.996 865.27 741.381 867.438 757.236H867.414H867.17H866.926H866.682H866.437H866.192H865.946H865.7H865.454H865.208H864.961H864.714H864.466H864.219H863.971H863.722H863.473H863.224H862.975H862.726H862.476H862.225H861.975H861.724H861.473H861.221H860.97H860.718H860.465H860.213H859.96H859.707H859.453H859.2H858.946H858.691H858.437H858.182H857.927H857.671H857.416H857.16H856.904H856.647H856.391H856.134H855.877H855.619H855.362H855.104H854.845H854.587H854.328H854.07H853.81H853.551H853.291H853.032H852.771H852.511H852.251H851.99H851.729H851.468H851.206H850.945H850.683H850.421H850.158H849.896H849.633H849.37H849.107H848.844H848.58H848.317H848.053H847.789H847.524H847.26H846.995H846.73H846.465H846.2H845.935H845.669H845.403H845.138H844.871H844.605H844.339H844.072H843.805H843.538H843.271H843.004H842.737H842.469H842.201H841.933H841.665H841.397H841.129H840.86H840.592H840.323H840.054H839.785H839.516H839.247H838.977H838.708H838.438H838.168H837.898H837.628H837.358H837.088H836.817H836.547H836.276H836.005H835.735H835.464H835.193H834.921H834.65H834.379H834.107H833.836H833.564H833.293H833.021H832.749H832.477H832.205H831.933H831.66H831.388H831.116H830.843H830.571H830.298H830.026H829.753H829.48H829.207H828.934H828.661H828.388H828.115H827.842H827.569H827.296H827.022H826.749H826.476H826.202H825.929H825.656H825.382H825.108H824.835H824.561H824.288H824.014H823.74H823.467H823.193H822.919H822.646H822.372H822.098H821.824H821.551H821.277H821.003H820.729H820.455H820.182H819.908H819.634H819.36H819.087H818.813H818.539H818.265H817.992H817.718H817.444H817.171H816.897H816.624H816.35H816.077H815.803H815.53H815.256H814.983H814.71H814.436H814.163H813.89H813.617H813.344H813.071H812.798H812.525H812.252H811.979H811.706H811.434H811.161H810.888H810.616H810.344H810.071H809.799H809.527H809.255H808.983H808.711H808.439H808.167H807.896H807.624H807.352H807.081H806.81H806.539H806.268H805.997H805.726H805.455H805.184H804.914H804.643H804.373H804.103H803.833H803.563H803.293H803.023H802.753H802.484H802.215H801.945H801.676H801.407H801.139H800.87H800.601H800.333H800.065H799.797H799.529H799.261H798.993H798.726H798.459H798.191H797.924H797.658H797.391H797.124H796.858H796.592H796.326H796.06H795.794H795.529H795.264H794.999H794.734H794.469H794.204H793.94H793.676H793.412H793.148H792.884H792.621H792.358H792.095H791.832H791.57H791.307H791.045H790.783H790.521H790.26H789.999H789.738H789.477H789.216H788.956H788.696H788.436H788.176H787.917H787.657H787.398H787.14H786.881H786.623H786.365H786.107H785.85H785.592H785.335H785.079H784.822H784.566H784.31H784.054H783.799H783.543H783.289H783.034H782.78H782.525H782.272H782.018H781.765H781.512H781.259H781.007H780.755H780.503H780.251H780H779.749H779.498H779.248H778.998H778.748H778.499H778.25H778.001H777.752H777.504H777.256H777.009H776.762H776.515H776.268H776.022H775.776H775.53H775.285H775.04H774.795H774.551H774.307H774.063H773.82H773.577H773.335H773.092H772.851H772.609H772.368H772.127H771.887H771.647H771.407H771.167H770.928H770.69H770.451H770.214H769.976H769.739H769.502H769.266H769.03H768.794H768.559H768.324H768.09H767.855H767.622H767.388H767.156H766.923H766.691H766.459H766.27Z" fill="#F3F7FE" stroke="#3C4043" stroke-width="23.3601"/>
<mask id="path-14-inside-3_3529_16010" fill="white">
<path fill-rule="evenodd" clip-rule="evenodd" d="M597.783 712.796C575.085 718.878 561.615 742.209 567.697 764.907L568.771 768.916H718.63C719.82 762.778 719.67 756.281 717.943 749.835L711.646 726.336C705.564 703.638 682.233 690.167 659.535 696.249L597.783 712.796Z"/>
</mask>
<path fill-rule="evenodd" clip-rule="evenodd" d="M597.783 712.796C575.085 718.878 561.615 742.209 567.697 764.907L568.771 768.916H718.63C719.82 762.778 719.67 756.281 717.943 749.835L711.646 726.336C705.564 703.638 682.233 690.167 659.535 696.249L597.783 712.796Z" fill="#F3F7FE"/>
<path d="M567.697 764.907L545.133 770.953L567.697 764.907ZM597.783 712.796L591.737 690.231L597.783 712.796ZM568.771 768.916L546.207 774.962L550.846 792.276H568.771V768.916ZM718.63 768.916V792.276H737.897L741.564 773.362L718.63 768.916ZM717.943 749.835L740.507 743.789L740.507 743.789L717.943 749.835ZM711.646 726.336L689.082 732.382V732.382L711.646 726.336ZM659.535 696.249L665.581 718.813L659.535 696.249ZM590.261 758.861C587.518 748.624 593.593 738.103 603.829 735.36L591.737 690.231C556.577 699.653 535.711 735.793 545.133 770.953L590.261 758.861ZM591.335 762.87L590.261 758.861L545.133 770.953L546.207 774.962L591.335 762.87ZM568.771 792.276H718.63V745.556H568.771V792.276ZM695.379 755.881C696.169 758.829 696.227 761.736 695.697 764.471L741.564 773.362C743.413 763.82 743.171 753.733 740.507 743.789L695.379 755.881ZM689.082 732.382L695.379 755.881L740.507 743.789L734.21 720.29L689.082 732.382ZM665.581 718.813C675.817 716.071 686.339 722.145 689.082 732.382L734.21 720.29C724.789 685.13 688.649 664.264 653.489 673.685L665.581 718.813ZM603.829 735.36L665.581 718.813L653.489 673.685L591.737 690.231L603.829 735.36Z" fill="#3C4043" mask="url(#path-14-inside-3_3529_16010)"/>
<path d="M1257.35 541.027L1240.17 588.333H1266.72L1291 541.027H1257.35Z" fill="#1A73E8"/>
<path d="M1258 87.0273L1240.82 134.333H1267.37L1291.65 87.0273H1258Z" fill="#1A73E8"/>
</svg>
