<svg width="1920" height="1080" viewBox="0 0 1920 1080" fill="none" xmlns="http://www.w3.org/2000/svg">
<g clip-path="url(#clip0_4029_6809)">
<rect x="1459" y="813" width="218" height="50" rx="25" fill="#D2E3FC"/>
<rect x="1458" y="813" width="200" height="50" rx="25" fill="#1A73E8"/>
<rect x="851" y="813" width="218" height="50" rx="25" fill="#D2E3FC"/>
<rect x="850" y="813" width="122" height="50" rx="25" fill="#1A73E8"/>
<rect x="243" y="813" width="218" height="50" rx="25" fill="#D2E3FC"/>
<rect x="243" y="813" width="50" height="50" rx="25" fill="#1A73E8"/>
<path d="M202.676 354.5H236.426C242.726 354.5 247.976 356.75 252.176 361.25C256.676 365.45 258.926 370.7 258.926 377C258.926 383.3 256.676 388.7 252.176 393.2C247.976 397.4 242.726 399.5 236.426 399.5H202.676C196.376 399.5 190.976 397.4 186.476 393.2C182.276 388.7 180.176 383.3 180.176 377C180.176 370.7 182.276 365.45 186.476 361.25C190.976 356.75 196.376 354.5 202.676 354.5ZM268.838 400.4V353.15H347.588V400.4H268.838ZM308.438 361.25C315.338 361.25 321.788 363.05 327.788 366.65C333.788 370.25 338.588 375.05 342.188 381.05C345.788 387.05 347.588 393.5 347.588 400.4C347.588 407.6 345.788 414.2 342.188 420.2C338.588 426.2 333.788 431 327.788 434.6C321.788 438.2 315.338 440 308.438 440C301.238 440 294.638 438.2 288.638 434.6C282.638 431 277.838 426.2 274.238 420.2C270.638 414.2 268.838 407.6 268.838 400.4C268.838 393.5 270.638 387.05 274.238 381.05C277.838 375.05 282.638 370.25 288.638 366.65C294.638 363.05 301.238 361.25 308.438 361.25ZM308.438 314C315.338 314 321.788 315.8 327.788 319.4C333.788 323 338.588 327.8 342.188 333.8C345.788 339.8 347.588 346.25 347.588 353.15C347.588 360.35 345.788 366.95 342.188 372.95C338.588 378.95 333.788 383.75 327.788 387.35C321.788 390.95 315.338 392.75 308.438 392.75C301.238 392.75 294.638 390.95 288.638 387.35C282.638 383.75 277.838 378.95 274.238 372.95C270.638 366.95 268.838 360.35 268.838 353.15C268.838 346.25 270.638 339.8 274.238 333.8C277.838 327.8 282.638 323 288.638 319.4C294.638 315.8 301.238 314 308.438 314ZM357.5 395.9V357.65H436.25V395.9H357.5ZM397.1 356.75C404 356.75 410.45 358.55 416.45 362.15C422.45 365.75 427.25 370.55 430.85 376.55C434.45 382.55 436.25 389 436.25 395.9C436.25 403.1 434.45 409.7 430.85 415.7C427.25 421.7 422.45 426.5 416.45 430.1C410.45 433.7 404 435.5 397.1 435.5C389.9 435.5 383.3 433.7 377.3 430.1C371.3 426.5 366.5 421.7 362.9 415.7C359.3 409.7 357.5 403.1 357.5 395.9C357.5 389 359.3 382.55 362.9 376.55C366.5 370.55 371.3 365.75 377.3 362.15C383.3 358.55 389.9 356.75 397.1 356.75ZM397.1 318.5C404 318.5 410.45 320.3 416.45 323.9C422.45 327.5 427.25 332.3 430.85 338.3C434.45 344.3 436.25 350.75 436.25 357.65C436.25 364.85 434.45 371.45 430.85 377.45C427.25 383.45 422.45 388.25 416.45 391.85C410.45 395.45 404 397.25 397.1 397.25C389.9 397.25 383.3 395.45 377.3 391.85C371.3 388.25 366.5 383.45 362.9 377.45C359.3 371.45 357.5 364.85 357.5 357.65C357.5 350.75 359.3 344.3 362.9 338.3C366.5 332.3 371.3 327.5 377.3 323.9C383.3 320.3 389.9 318.5 397.1 318.5ZM446.162 422.9V330.65H524.912V422.9H446.162ZM485.762 383.75C492.662 383.75 499.112 385.55 505.112 389.15C511.112 392.75 515.912 397.55 519.512 403.55C523.112 409.55 524.912 416 524.912 422.9C524.912 430.1 523.112 436.7 519.512 442.7C515.912 448.7 511.112 453.5 505.112 457.1C499.112 460.7 492.662 462.5 485.762 462.5C478.562 462.5 471.962 460.7 465.962 457.1C459.962 453.5 455.162 448.7 451.562 442.7C447.962 436.7 446.162 430.1 446.162 422.9C446.162 416 447.962 409.55 451.562 403.55C455.162 397.55 459.962 392.75 465.962 389.15C471.962 385.55 478.562 383.75 485.762 383.75ZM485.762 291.5C492.662 291.5 499.112 293.3 505.112 296.9C511.112 300.5 515.912 305.3 519.512 311.3C523.112 317.3 524.912 323.75 524.912 330.65C524.912 337.85 523.112 344.45 519.512 350.45C515.912 356.45 511.112 361.25 505.112 364.85C499.112 368.45 492.662 370.25 485.762 370.25C478.562 370.25 471.962 368.45 465.962 364.85C459.962 361.25 455.162 356.45 451.562 350.45C447.962 344.45 446.162 337.85 446.162 330.65C446.162 323.75 447.962 317.3 451.562 311.3C455.162 305.3 459.962 300.5 465.962 296.9C471.962 293.3 478.562 291.5 485.762 291.5Z" fill="#D2E3FC"/>
<path d="M1418.68 354.5H1452.43C1458.73 354.5 1463.98 356.75 1468.18 361.25C1472.68 365.45 1474.93 370.7 1474.93 377C1474.93 383.3 1472.68 388.7 1468.18 393.2C1463.98 397.4 1458.73 399.5 1452.43 399.5H1418.68C1412.38 399.5 1406.98 397.4 1402.48 393.2C1398.28 388.7 1396.18 383.3 1396.18 377C1396.18 370.7 1398.28 365.45 1402.48 361.25C1406.98 356.75 1412.38 354.5 1418.68 354.5ZM1484.84 400.4V353.15H1563.59V400.4H1484.84ZM1524.44 361.25C1531.34 361.25 1537.79 363.05 1543.79 366.65C1549.79 370.25 1554.59 375.05 1558.19 381.05C1561.79 387.05 1563.59 393.5 1563.59 400.4C1563.59 407.6 1561.79 414.2 1558.19 420.2C1554.59 426.2 1549.79 431 1543.79 434.6C1537.79 438.2 1531.34 440 1524.44 440C1517.24 440 1510.64 438.2 1504.64 434.6C1498.64 431 1493.84 426.2 1490.24 420.2C1486.64 414.2 1484.84 407.6 1484.84 400.4C1484.84 393.5 1486.64 387.05 1490.24 381.05C1493.84 375.05 1498.64 370.25 1504.64 366.65C1510.64 363.05 1517.24 361.25 1524.44 361.25ZM1524.44 314C1531.34 314 1537.79 315.8 1543.79 319.4C1549.79 323 1554.59 327.8 1558.19 333.8C1561.79 339.8 1563.59 346.25 1563.59 353.15C1563.59 360.35 1561.79 366.95 1558.19 372.95C1554.59 378.95 1549.79 383.75 1543.79 387.35C1537.79 390.95 1531.34 392.75 1524.44 392.75C1517.24 392.75 1510.64 390.95 1504.64 387.35C1498.64 383.75 1493.84 378.95 1490.24 372.95C1486.64 366.95 1484.84 360.35 1484.84 353.15C1484.84 346.25 1486.64 339.8 1490.24 333.8C1493.84 327.8 1498.64 323 1504.64 319.4C1510.64 315.8 1517.24 314 1524.44 314ZM1573.5 395.9V357.65H1652.25V395.9H1573.5ZM1613.1 356.75C1620 356.75 1626.45 358.55 1632.45 362.15C1638.45 365.75 1643.25 370.55 1646.85 376.55C1650.45 382.55 1652.25 389 1652.25 395.9C1652.25 403.1 1650.45 409.7 1646.85 415.7C1643.25 421.7 1638.45 426.5 1632.45 430.1C1626.45 433.7 1620 435.5 1613.1 435.5C1605.9 435.5 1599.3 433.7 1593.3 430.1C1587.3 426.5 1582.5 421.7 1578.9 415.7C1575.3 409.7 1573.5 403.1 1573.5 395.9C1573.5 389 1575.3 382.55 1578.9 376.55C1582.5 370.55 1587.3 365.75 1593.3 362.15C1599.3 358.55 1605.9 356.75 1613.1 356.75ZM1613.1 318.5C1620 318.5 1626.45 320.3 1632.45 323.9C1638.45 327.5 1643.25 332.3 1646.85 338.3C1650.45 344.3 1652.25 350.75 1652.25 357.65C1652.25 364.85 1650.45 371.45 1646.85 377.45C1643.25 383.45 1638.45 388.25 1632.45 391.85C1626.45 395.45 1620 397.25 1613.1 397.25C1605.9 397.25 1599.3 395.45 1593.3 391.85C1587.3 388.25 1582.5 383.45 1578.9 377.45C1575.3 371.45 1573.5 364.85 1573.5 357.65C1573.5 350.75 1575.3 344.3 1578.9 338.3C1582.5 332.3 1587.3 327.5 1593.3 323.9C1599.3 320.3 1605.9 318.5 1613.1 318.5ZM1662.16 422.9V330.65H1740.91V422.9H1662.16ZM1701.76 383.75C1708.66 383.75 1715.11 385.55 1721.11 389.15C1727.11 392.75 1731.91 397.55 1735.51 403.55C1739.11 409.55 1740.91 416 1740.91 422.9C1740.91 430.1 1739.11 436.7 1735.51 442.7C1731.91 448.7 1727.11 453.5 1721.11 457.1C1715.11 460.7 1708.66 462.5 1701.76 462.5C1694.56 462.5 1687.96 460.7 1681.96 457.1C1675.96 453.5 1671.16 448.7 1667.56 442.7C1663.96 436.7 1662.16 430.1 1662.16 422.9C1662.16 416 1663.96 409.55 1667.56 403.55C1671.16 397.55 1675.96 392.75 1681.96 389.15C1687.96 385.55 1694.56 383.75 1701.76 383.75ZM1701.76 291.5C1708.66 291.5 1715.11 293.3 1721.11 296.9C1727.11 300.5 1731.91 305.3 1735.51 311.3C1739.11 317.3 1740.91 323.75 1740.91 330.65C1740.91 337.85 1739.11 344.45 1735.51 350.45C1731.91 356.45 1727.11 361.25 1721.11 364.85C1715.11 368.45 1708.66 370.25 1701.76 370.25C1694.56 370.25 1687.96 368.45 1681.96 364.85C1675.96 361.25 1671.16 356.45 1667.56 350.45C1663.96 344.45 1662.16 337.85 1662.16 330.65C1662.16 323.75 1663.96 317.3 1667.56 311.3C1671.16 305.3 1675.96 300.5 1681.96 296.9C1687.96 293.3 1694.56 291.5 1701.76 291.5Z" fill="#D2E3FC"/>
<path d="M202.676 553H236.426C242.726 553 247.976 555.25 252.176 559.75C256.676 563.95 258.926 569.2 258.926 575.5C258.926 581.8 256.676 587.2 252.176 591.7C247.976 595.9 242.726 598 236.426 598H202.676C196.376 598 190.976 595.9 186.476 591.7C182.276 587.2 180.176 581.8 180.176 575.5C180.176 569.2 182.276 563.95 186.476 559.75C190.976 555.25 196.376 553 202.676 553ZM268.838 558.4V511.15H347.588V558.4H268.838ZM308.438 519.25C315.338 519.25 321.788 521.05 327.788 524.65C333.788 528.25 338.588 533.05 342.188 539.05C345.788 545.05 347.588 551.5 347.588 558.4C347.588 565.6 345.788 572.2 342.188 578.2C338.588 584.2 333.788 589 327.788 592.6C321.788 596.2 315.338 598 308.438 598C301.238 598 294.638 596.2 288.638 592.6C282.638 589 277.838 584.2 274.238 578.2C270.638 572.2 268.838 565.6 268.838 558.4C268.838 551.5 270.638 545.05 274.238 539.05C277.838 533.05 282.638 528.25 288.638 524.65C294.638 521.05 301.238 519.25 308.438 519.25ZM308.438 472C315.338 472 321.788 473.8 327.788 477.4C333.788 481 338.588 485.8 342.188 491.8C345.788 497.8 347.588 504.25 347.588 511.15C347.588 518.35 345.788 524.95 342.188 530.95C338.588 536.95 333.788 541.75 327.788 545.35C321.788 548.95 315.338 550.75 308.438 550.75C301.238 550.75 294.638 548.95 288.638 545.35C282.638 541.75 277.838 536.95 274.238 530.95C270.638 524.95 268.838 518.35 268.838 511.15C268.838 504.25 270.638 497.8 274.238 491.8C277.838 485.8 282.638 481 288.638 477.4C294.638 473.8 301.238 472 308.438 472ZM357.5 558.4V520.15H436.25V558.4H357.5ZM397.1 519.25C404 519.25 410.45 521.05 416.45 524.65C422.45 528.25 427.25 533.05 430.85 539.05C434.45 545.05 436.25 551.5 436.25 558.4C436.25 565.6 434.45 572.2 430.85 578.2C427.25 584.2 422.45 589 416.45 592.6C410.45 596.2 404 598 397.1 598C389.9 598 383.3 596.2 377.3 592.6C371.3 589 366.5 584.2 362.9 578.2C359.3 572.2 357.5 565.6 357.5 558.4C357.5 551.5 359.3 545.05 362.9 539.05C366.5 533.05 371.3 528.25 377.3 524.65C383.3 521.05 389.9 519.25 397.1 519.25ZM397.1 481C404 481 410.45 482.8 416.45 486.4C422.45 490 427.25 494.8 430.85 500.8C434.45 506.8 436.25 513.25 436.25 520.15C436.25 527.35 434.45 533.95 430.85 539.95C427.25 545.95 422.45 550.75 416.45 554.35C410.45 557.95 404 559.75 397.1 559.75C389.9 559.75 383.3 557.95 377.3 554.35C371.3 550.75 366.5 545.95 362.9 539.95C359.3 533.95 357.5 527.35 357.5 520.15C357.5 513.25 359.3 506.8 362.9 500.8C366.5 494.8 371.3 490 377.3 486.4C383.3 482.8 389.9 481 397.1 481ZM446.162 558.4V466.15H524.912V558.4H446.162ZM485.762 519.25C492.662 519.25 499.112 521.05 505.112 524.65C511.112 528.25 515.912 533.05 519.512 539.05C523.112 545.05 524.912 551.5 524.912 558.4C524.912 565.6 523.112 572.2 519.512 578.2C515.912 584.2 511.112 589 505.112 592.6C499.112 596.2 492.662 598 485.762 598C478.562 598 471.962 596.2 465.962 592.6C459.962 589 455.162 584.2 451.562 578.2C447.962 572.2 446.162 565.6 446.162 558.4C446.162 551.5 447.962 545.05 451.562 539.05C455.162 533.05 459.962 528.25 465.962 524.65C471.962 521.05 478.562 519.25 485.762 519.25ZM485.762 427C492.662 427 499.112 428.8 505.112 432.4C511.112 436 515.912 440.8 519.512 446.8C523.112 452.8 524.912 459.25 524.912 466.15C524.912 473.35 523.112 479.95 519.512 485.95C515.912 491.95 511.112 496.75 505.112 500.35C499.112 503.95 492.662 505.75 485.762 505.75C478.562 505.75 471.962 503.95 465.962 500.35C459.962 496.75 455.162 491.95 451.562 485.95C447.962 479.95 446.162 473.35 446.162 466.15C446.162 459.25 447.962 452.8 451.562 446.8C455.162 440.8 459.962 436 465.962 432.4C471.962 428.8 478.562 427 485.762 427Z" fill="#3C4043"/>
<path d="M809.676 350.5H843.426C849.726 350.5 854.976 352.75 859.176 357.25C863.676 361.45 865.926 366.7 865.926 373C865.926 379.3 863.676 384.7 859.176 389.2C854.976 393.4 849.726 395.5 843.426 395.5H809.676C803.376 395.5 797.976 393.4 793.476 389.2C789.276 384.7 787.176 379.3 787.176 373C787.176 366.7 789.276 361.45 793.476 357.25C797.976 352.75 803.376 350.5 809.676 350.5ZM875.838 396.4V349.15H954.588V396.4H875.838ZM915.438 357.25C922.338 357.25 928.788 359.05 934.788 362.65C940.788 366.25 945.588 371.05 949.188 377.05C952.788 383.05 954.588 389.5 954.588 396.4C954.588 403.6 952.788 410.2 949.188 416.2C945.588 422.2 940.788 427 934.788 430.6C928.788 434.2 922.338 436 915.438 436C908.238 436 901.638 434.2 895.638 430.6C889.638 427 884.838 422.2 881.238 416.2C877.638 410.2 875.838 403.6 875.838 396.4C875.838 389.5 877.638 383.05 881.238 377.05C884.838 371.05 889.638 366.25 895.638 362.65C901.638 359.05 908.238 357.25 915.438 357.25ZM915.438 310C922.338 310 928.788 311.8 934.788 315.4C940.788 319 945.588 323.8 949.188 329.8C952.788 335.8 954.588 342.25 954.588 349.15C954.588 356.35 952.788 362.95 949.188 368.95C945.588 374.95 940.788 379.75 934.788 383.35C928.788 386.95 922.338 388.75 915.438 388.75C908.238 388.75 901.638 386.95 895.638 383.35C889.638 379.75 884.838 374.95 881.238 368.95C877.638 362.95 875.838 356.35 875.838 349.15C875.838 342.25 877.638 335.8 881.238 329.8C884.838 323.8 889.638 319 895.638 315.4C901.638 311.8 908.238 310 915.438 310ZM964.5 391.9V353.65H1043.25V391.9H964.5ZM1004.1 352.75C1011 352.75 1017.45 354.55 1023.45 358.15C1029.45 361.75 1034.25 366.55 1037.85 372.55C1041.45 378.55 1043.25 385 1043.25 391.9C1043.25 399.1 1041.45 405.7 1037.85 411.7C1034.25 417.7 1029.45 422.5 1023.45 426.1C1017.45 429.7 1011 431.5 1004.1 431.5C996.9 431.5 990.3 429.7 984.3 426.1C978.3 422.5 973.5 417.7 969.9 411.7C966.3 405.7 964.5 399.1 964.5 391.9C964.5 385 966.3 378.55 969.9 372.55C973.5 366.55 978.3 361.75 984.3 358.15C990.3 354.55 996.9 352.75 1004.1 352.75ZM1004.1 314.5C1011 314.5 1017.45 316.3 1023.45 319.9C1029.45 323.5 1034.25 328.3 1037.85 334.3C1041.45 340.3 1043.25 346.75 1043.25 353.65C1043.25 360.85 1041.45 367.45 1037.85 373.45C1034.25 379.45 1029.45 384.25 1023.45 387.85C1017.45 391.45 1011 393.25 1004.1 393.25C996.9 393.25 990.3 391.45 984.3 387.85C978.3 384.25 973.5 379.45 969.9 373.45C966.3 367.45 964.5 360.85 964.5 353.65C964.5 346.75 966.3 340.3 969.9 334.3C973.5 328.3 978.3 323.5 984.3 319.9C990.3 316.3 996.9 314.5 1004.1 314.5ZM1053.16 418.9V326.65H1131.91V418.9H1053.16ZM1092.76 379.75C1099.66 379.75 1106.11 381.55 1112.11 385.15C1118.11 388.75 1122.91 393.55 1126.51 399.55C1130.11 405.55 1131.91 412 1131.91 418.9C1131.91 426.1 1130.11 432.7 1126.51 438.7C1122.91 444.7 1118.11 449.5 1112.11 453.1C1106.11 456.7 1099.66 458.5 1092.76 458.5C1085.56 458.5 1078.96 456.7 1072.96 453.1C1066.96 449.5 1062.16 444.7 1058.56 438.7C1054.96 432.7 1053.16 426.1 1053.16 418.9C1053.16 412 1054.96 405.55 1058.56 399.55C1062.16 393.55 1066.96 388.75 1072.96 385.15C1078.96 381.55 1085.56 379.75 1092.76 379.75ZM1092.76 287.5C1099.66 287.5 1106.11 289.3 1112.11 292.9C1118.11 296.5 1122.91 301.3 1126.51 307.3C1130.11 313.3 1131.91 319.75 1131.91 326.65C1131.91 333.85 1130.11 340.45 1126.51 346.45C1122.91 352.45 1118.11 357.25 1112.11 360.85C1106.11 364.45 1099.66 366.25 1092.76 366.25C1085.56 366.25 1078.96 364.45 1072.96 360.85C1066.96 357.25 1062.16 352.45 1058.56 346.45C1054.96 340.45 1053.16 333.85 1053.16 326.65C1053.16 319.75 1054.96 313.3 1058.56 307.3C1062.16 301.3 1066.96 296.5 1072.96 292.9C1078.96 289.3 1085.56 287.5 1092.76 287.5Z" fill="#3C4043"/>
<path d="M1418.18 217H1451.93C1458.23 217 1463.48 219.25 1467.68 223.75C1472.18 227.95 1474.43 233.2 1474.43 239.5C1474.43 245.8 1472.18 251.2 1467.68 255.7C1463.48 259.9 1458.23 262 1451.93 262H1418.18C1411.88 262 1406.48 259.9 1401.98 255.7C1397.78 251.2 1395.68 245.8 1395.68 239.5C1395.68 233.2 1397.78 227.95 1401.98 223.75C1406.48 219.25 1411.88 217 1418.18 217ZM1484.34 303.4V256.15H1563.09V303.4H1484.34ZM1523.94 264.25C1530.84 264.25 1537.29 266.05 1543.29 269.65C1549.29 273.25 1554.09 278.05 1557.69 284.05C1561.29 290.05 1563.09 296.5 1563.09 303.4C1563.09 310.6 1561.29 317.2 1557.69 323.2C1554.09 329.2 1549.29 334 1543.29 337.6C1537.29 341.2 1530.84 343 1523.94 343C1516.74 343 1510.14 341.2 1504.14 337.6C1498.14 334 1493.34 329.2 1489.74 323.2C1486.14 317.2 1484.34 310.6 1484.34 303.4C1484.34 296.5 1486.14 290.05 1489.74 284.05C1493.34 278.05 1498.14 273.25 1504.14 269.65C1510.14 266.05 1516.74 264.25 1523.94 264.25ZM1523.94 217C1530.84 217 1537.29 218.8 1543.29 222.4C1549.29 226 1554.09 230.8 1557.69 236.8C1561.29 242.8 1563.09 249.25 1563.09 256.15C1563.09 263.35 1561.29 269.95 1557.69 275.95C1554.09 281.95 1549.29 286.75 1543.29 290.35C1537.29 293.95 1530.84 295.75 1523.94 295.75C1516.74 295.75 1510.14 293.95 1504.14 290.35C1498.14 286.75 1493.34 281.95 1489.74 275.95C1486.14 269.95 1484.34 263.35 1484.34 256.15C1484.34 249.25 1486.14 242.8 1489.74 236.8C1493.34 230.8 1498.14 226 1504.14 222.4C1510.14 218.8 1516.74 217 1523.94 217ZM1573 294.4V256.15H1651.75V294.4H1573ZM1612.6 255.25C1619.5 255.25 1625.95 257.05 1631.95 260.65C1637.95 264.25 1642.75 269.05 1646.35 275.05C1649.95 281.05 1651.75 287.5 1651.75 294.4C1651.75 301.6 1649.95 308.2 1646.35 314.2C1642.75 320.2 1637.95 325 1631.95 328.6C1625.95 332.2 1619.5 334 1612.6 334C1605.4 334 1598.8 332.2 1592.8 328.6C1586.8 325 1582 320.2 1578.4 314.2C1574.8 308.2 1573 301.6 1573 294.4C1573 287.5 1574.8 281.05 1578.4 275.05C1582 269.05 1586.8 264.25 1592.8 260.65C1598.8 257.05 1605.4 255.25 1612.6 255.25ZM1612.6 217C1619.5 217 1625.95 218.8 1631.95 222.4C1637.95 226 1642.75 230.8 1646.35 236.8C1649.95 242.8 1651.75 249.25 1651.75 256.15C1651.75 263.35 1649.95 269.95 1646.35 275.95C1642.75 281.95 1637.95 286.75 1631.95 290.35C1625.95 293.95 1619.5 295.75 1612.6 295.75C1605.4 295.75 1598.8 293.95 1592.8 290.35C1586.8 286.75 1582 281.95 1578.4 275.95C1574.8 269.95 1573 263.35 1573 256.15C1573 249.25 1574.8 242.8 1578.4 236.8C1582 230.8 1586.8 226 1592.8 222.4C1598.8 218.8 1605.4 217 1612.6 217ZM1661.66 348.4V256.15H1740.41V348.4H1661.66ZM1701.26 309.25C1708.16 309.25 1714.61 311.05 1720.61 314.65C1726.61 318.25 1731.41 323.05 1735.01 329.05C1738.61 335.05 1740.41 341.5 1740.41 348.4C1740.41 355.6 1738.61 362.2 1735.01 368.2C1731.41 374.2 1726.61 379 1720.61 382.6C1714.61 386.2 1708.16 388 1701.26 388C1694.06 388 1687.46 386.2 1681.46 382.6C1675.46 379 1670.66 374.2 1667.06 368.2C1663.46 362.2 1661.66 355.6 1661.66 348.4C1661.66 341.5 1663.46 335.05 1667.06 329.05C1670.66 323.05 1675.46 318.25 1681.46 314.65C1687.46 311.05 1694.06 309.25 1701.26 309.25ZM1701.26 217C1708.16 217 1714.61 218.8 1720.61 222.4C1726.61 226 1731.41 230.8 1735.01 236.8C1738.61 242.8 1740.41 249.25 1740.41 256.15C1740.41 263.35 1738.61 269.95 1735.01 275.95C1731.41 281.95 1726.61 286.75 1720.61 290.35C1714.61 293.95 1708.16 295.75 1701.26 295.75C1694.06 295.75 1687.46 293.95 1681.46 290.35C1675.46 286.75 1670.66 281.95 1667.06 275.95C1663.46 269.95 1661.66 263.35 1661.66 256.15C1661.66 249.25 1663.46 242.8 1667.06 236.8C1670.66 230.8 1675.46 226 1681.46 222.4C1687.46 218.8 1694.06 217 1701.26 217Z" fill="#3C4043"/>
</g>
<defs>
<clipPath id="clip0_4029_6809">
<rect width="1920" height="1080" fill="white"/>
</clipPath>
</defs>
</svg>
