<svg width="1920" height="1080" viewBox="0 0 1920 1080" fill="none" xmlns="http://www.w3.org/2000/svg">
<rect x="1216" y="813" width="218" height="50" rx="25" fill="#D2E3FC"/>
<rect x="1215" y="813" width="197" height="50" rx="25" fill="#1A73E8"/>
<rect x="486" y="813" width="218" height="50" rx="25" fill="#D2E3FC"/>
<rect x="486" y="813" width="50" height="50" rx="25" fill="#1A73E8"/>
<path d="M1146.65 625.4C1136.45 625.4 1127.5 623.02 1119.79 618.26C1112.31 613.5 1106.53 606.813 1102.45 598.2C1098.37 589.587 1096.33 579.5 1096.33 567.94C1096.33 557.06 1098.03 546.067 1101.43 534.96C1104.83 523.853 1109.59 513.313 1115.71 503.34C1121.83 493.367 1129.08 484.527 1137.47 476.82C1146.08 469.113 1155.49 463.107 1165.69 458.8C1175.89 454.267 1186.77 452 1198.33 452C1203.54 452 1207.85 453.36 1211.25 456.08C1214.65 458.8 1216.35 462.88 1216.35 468.32C1216.35 471.04 1215.44 473.42 1213.63 475.46C1212.04 477.273 1209.55 478.407 1206.15 478.86C1190.28 480.9 1176.34 486.453 1164.33 495.52C1152.54 504.587 1143.36 515.58 1136.79 528.5C1130.22 541.42 1126.93 554.907 1126.93 568.96C1126.93 575.533 1127.5 581.54 1128.63 586.98C1129.76 592.193 1132.26 598.993 1136.11 607.38L1118.43 583.92C1123.64 589.133 1127.95 592.533 1131.35 594.12C1134.98 595.707 1139.85 596.5 1145.97 596.5C1160.48 596.5 1173.4 587.887 1184.73 570.66C1196.29 553.433 1204.68 528.387 1209.89 495.52C1210.8 491.213 1212.38 487.927 1214.65 485.66C1216.92 483.167 1219.98 481.92 1223.83 481.92C1229.27 481.92 1233.92 484.073 1237.77 488.38C1241.62 492.46 1244 497.9 1244.91 504.7C1246.95 517.847 1249.1 529.633 1251.37 540.06C1253.86 550.26 1257.38 560.007 1261.91 569.3C1266.44 578.367 1272.56 588 1280.27 598.2C1282.31 600.467 1283.44 603.073 1283.67 606.02C1283.9 608.967 1283.44 611.913 1282.31 614.86C1281.4 617.58 1279.82 619.847 1277.55 621.66C1275.51 623.473 1273.02 624.38 1270.07 624.38C1266.9 624.38 1264.29 623.7 1262.25 622.34C1260.21 620.98 1258.28 619.28 1256.47 617.24C1252.16 611.12 1248.08 605.113 1244.23 599.22C1240.38 593.1 1236.86 586.187 1233.69 578.48C1230.52 570.547 1227.8 561.253 1225.53 550.6C1223.26 539.72 1221.68 526.913 1220.77 512.18L1231.99 511.84C1228.82 532.693 1224.28 550.487 1218.39 565.22C1212.5 579.727 1205.58 591.4 1197.65 600.24C1189.72 608.853 1181.33 615.2 1172.49 619.28C1163.88 623.36 1155.26 625.4 1146.65 625.4ZM1381.29 625.4C1368.37 625.4 1357.26 623.587 1347.97 619.96C1338.9 616.333 1331.31 611.12 1325.19 604.32C1319.3 597.52 1314.88 589.587 1311.93 580.52C1309.21 571.453 1307.85 561.48 1307.85 550.6C1307.85 539.04 1309.89 527.48 1313.97 515.92C1318.28 504.133 1324.4 493.48 1332.33 483.96C1340.26 474.213 1349.78 466.393 1360.89 460.5C1372 454.607 1384.46 451.66 1398.29 451.66C1408.94 451.66 1418.24 453.587 1426.17 457.44C1434.1 461.293 1440.22 467.073 1444.53 474.78C1449.06 482.26 1451.33 491.78 1451.33 503.34C1451.33 512.633 1449.18 520.793 1444.87 527.82C1440.56 534.847 1434.56 540.853 1426.85 545.84C1419.37 550.6 1410.53 554.34 1400.33 557.06C1390.13 559.553 1379.14 560.8 1367.35 560.8C1353.75 560.8 1344.23 558.987 1338.79 555.36C1333.35 551.507 1330.63 547.313 1330.63 542.78C1330.63 540.06 1331.31 538.133 1332.67 537C1334.03 535.64 1336.3 534.96 1339.47 534.96C1341.96 534.96 1345.02 535.413 1348.65 536.32C1352.5 537 1357.94 537.34 1364.97 537.34C1376.3 537.34 1386.16 535.98 1394.55 533.26C1403.16 530.313 1409.96 526.233 1414.95 521.02C1419.94 515.807 1422.43 509.8 1422.43 503C1422.43 495.293 1420.5 489.513 1416.65 485.66C1412.8 481.807 1406.45 479.88 1397.61 479.88C1388.77 479.88 1380.61 481.92 1373.13 486C1365.88 490.08 1359.53 495.633 1354.09 502.66C1348.88 509.687 1344.8 517.733 1341.85 526.8C1338.9 535.64 1337.43 544.933 1337.43 554.68C1337.43 562.84 1338.79 570.207 1341.51 576.78C1344.23 583.127 1348.65 588.34 1354.77 592.42C1360.89 596.273 1369.16 598.2 1379.59 598.2C1391.83 598.2 1402.03 596.727 1410.19 593.78C1418.58 590.833 1425.49 587.547 1430.93 583.92C1436.37 580.067 1440.9 576.78 1444.53 574.06C1448.38 571.113 1451.9 569.64 1455.07 569.64C1458.24 569.64 1460.4 570.547 1461.53 572.36C1462.66 574.173 1463.23 577.12 1463.23 581.2C1463.23 585.733 1460.96 590.607 1456.43 595.82C1452.12 600.807 1446.12 605.567 1438.41 610.1C1430.7 614.633 1421.98 618.373 1412.23 621.32C1402.48 624.04 1392.17 625.4 1381.29 625.4ZM1524.69 625.74C1520.83 625.74 1517.66 624.833 1515.17 623.02C1512.67 621.207 1510.75 618.373 1509.39 614.52C1508.25 610.667 1507.69 606.133 1507.69 600.92C1507.69 583.24 1507.69 568.167 1507.69 555.7C1507.69 543.233 1507.57 532.467 1507.35 523.4C1507.35 514.107 1507.35 505.493 1507.35 497.56C1507.35 489.627 1507.35 481.24 1507.35 472.4C1507.35 468.32 1507.91 464.807 1509.05 461.86C1510.18 458.913 1511.99 456.533 1514.49 454.72C1516.98 452.907 1520.15 452 1524.01 452C1528.99 452 1533.07 453.7 1536.25 457.1C1539.65 460.5 1541.46 465.713 1541.69 472.74C1541.69 477.727 1541.57 484.867 1541.35 494.16C1541.12 503.227 1540.78 513.313 1540.33 524.42C1540.1 535.527 1539.87 546.747 1539.65 558.08C1539.42 569.187 1539.19 579.387 1538.97 588.68C1538.74 597.973 1538.63 605.34 1538.63 610.78C1538.63 615.087 1537.49 618.713 1535.23 621.66C1532.96 624.38 1529.45 625.74 1524.69 625.74ZM1527.75 423.1C1519.36 423.1 1512.33 420.607 1506.67 415.62C1501 410.633 1498.17 404.627 1498.17 397.6C1498.17 391.48 1500.32 386.493 1504.63 382.64C1509.16 378.56 1514.83 376.52 1521.63 376.52C1527.29 376.52 1532.17 377.88 1536.25 380.6C1540.55 383.32 1543.73 386.833 1545.77 391.14C1547.81 395.22 1548.83 399.527 1548.83 404.06C1548.83 408.367 1547.13 412.673 1543.73 416.98C1540.55 421.06 1535.23 423.1 1527.75 423.1Z" fill="#D2E3FC"/>
<path d="M50 622H1870" stroke="#FF6D7F" stroke-width="5" stroke-linecap="round"/>
<path d="M50 455H1870" stroke="#FF6D7F" stroke-width="5" stroke-linecap="round"/>
<path d="M416.651 625.4C406.451 625.4 397.497 623.02 389.791 618.26C382.311 613.5 376.531 606.813 372.451 598.2C368.371 589.587 366.331 579.5 366.331 567.94C366.331 557.06 368.031 546.067 371.431 534.96C374.831 523.853 379.591 513.313 385.711 503.34C391.831 493.367 399.084 484.527 407.471 476.82C416.084 469.113 425.491 463.107 435.691 458.8C445.891 454.267 456.771 452 468.331 452C473.544 452 477.851 453.36 481.251 456.08C484.651 458.8 486.351 462.88 486.351 468.32C486.351 471.04 485.444 473.42 483.631 475.46C482.044 477.273 479.551 478.407 476.151 478.86C460.284 480.9 446.344 486.453 434.331 495.52C422.544 504.587 413.364 515.58 406.791 528.5C400.217 541.42 396.931 554.907 396.931 568.96C396.931 575.533 397.497 581.54 398.631 586.98C399.764 592.193 402.257 598.993 406.111 607.38L388.431 583.92C393.644 589.133 397.951 592.533 401.351 594.12C404.977 595.707 409.851 596.5 415.971 596.5C430.477 596.5 443.397 587.887 454.731 570.66C466.291 553.433 474.677 528.387 479.891 495.52C480.797 491.213 482.384 487.927 484.651 485.66C486.917 483.167 489.977 481.92 493.831 481.92C499.271 481.92 503.917 484.073 507.771 488.38C511.624 492.46 514.004 497.9 514.911 504.7C516.951 517.847 519.104 529.633 521.371 540.06C523.864 550.26 527.377 560.007 531.911 569.3C536.444 578.367 542.564 588 550.271 598.2C552.311 600.467 553.444 603.073 553.671 606.02C553.897 608.967 553.444 611.913 552.311 614.86C551.404 617.58 549.817 619.847 547.551 621.66C545.511 623.473 543.017 624.38 540.071 624.38C536.897 624.38 534.291 623.7 532.251 622.34C530.211 620.98 528.284 619.28 526.471 617.24C522.164 611.12 518.084 605.113 514.231 599.22C510.377 593.1 506.864 586.187 503.691 578.48C500.517 570.547 497.797 561.253 495.531 550.6C493.264 539.72 491.677 526.913 490.771 512.18L501.991 511.84C498.817 532.693 494.284 550.487 488.391 565.22C482.497 579.727 475.584 591.4 467.651 600.24C459.717 608.853 451.331 615.2 442.491 619.28C433.877 623.36 425.264 625.4 416.651 625.4ZM651.291 625.4C638.371 625.4 627.264 623.587 617.971 619.96C608.904 616.333 601.311 611.12 595.191 604.32C589.297 597.52 584.877 589.587 581.931 580.52C579.211 571.453 577.851 561.48 577.851 550.6C577.851 539.04 579.891 527.48 583.971 515.92C588.277 504.133 594.397 493.48 602.331 483.96C610.264 474.213 619.784 466.393 630.891 460.5C641.997 454.607 654.464 451.66 668.291 451.66C678.944 451.66 688.237 453.587 696.171 457.44C704.104 461.293 710.224 467.073 714.531 474.78C719.064 482.26 721.331 491.78 721.331 503.34C721.331 512.633 719.177 520.793 714.871 527.82C710.564 534.847 704.557 540.853 696.851 545.84C689.371 550.6 680.531 554.34 670.331 557.06C660.131 559.553 649.137 560.8 637.351 560.8C623.751 560.8 614.231 558.987 608.791 555.36C603.351 551.507 600.631 547.313 600.631 542.78C600.631 540.06 601.311 538.133 602.671 537C604.031 535.64 606.297 534.96 609.471 534.96C611.964 534.96 615.024 535.413 618.651 536.32C622.504 537 627.944 537.34 634.971 537.34C646.304 537.34 656.164 535.98 664.551 533.26C673.164 530.313 679.964 526.233 684.951 521.02C689.937 515.807 692.431 509.8 692.431 503C692.431 495.293 690.504 489.513 686.651 485.66C682.797 481.807 676.451 479.88 667.611 479.88C658.771 479.88 650.611 481.92 643.131 486C635.877 490.08 629.531 495.633 624.091 502.66C618.877 509.687 614.797 517.733 611.851 526.8C608.904 535.64 607.431 544.933 607.431 554.68C607.431 562.84 608.791 570.207 611.511 576.78C614.231 583.127 618.651 588.34 624.771 592.42C630.891 596.273 639.164 598.2 649.591 598.2C661.831 598.2 672.031 596.727 680.191 593.78C688.577 590.833 695.491 587.547 700.931 583.92C706.371 580.067 710.904 576.78 714.531 574.06C718.384 571.113 721.897 569.64 725.071 569.64C728.244 569.64 730.397 570.547 731.531 572.36C732.664 574.173 733.231 577.12 733.231 581.2C733.231 585.733 730.964 590.607 726.431 595.82C722.124 600.807 716.117 605.567 708.411 610.1C700.704 614.633 691.977 618.373 682.231 621.32C672.484 624.04 662.171 625.4 651.291 625.4ZM794.688 625.74C790.835 625.74 787.662 624.833 785.168 623.02C782.675 621.207 780.748 618.373 779.388 614.52C778.255 610.667 777.688 606.133 777.688 600.92C777.688 583.24 777.688 568.167 777.688 555.7C777.688 543.233 777.575 532.467 777.348 523.4C777.348 514.107 777.348 505.493 777.348 497.56C777.348 489.627 777.348 481.24 777.348 472.4C777.348 468.32 777.915 464.807 779.048 461.86C780.182 458.913 781.995 456.533 784.488 454.72C786.982 452.907 790.155 452 794.008 452C798.995 452 803.075 453.7 806.248 457.1C809.648 460.5 811.462 465.713 811.688 472.74C811.688 477.727 811.575 484.867 811.348 494.16C811.122 503.227 810.782 513.313 810.328 524.42C810.102 535.527 809.875 546.747 809.648 558.08C809.422 569.187 809.195 579.387 808.968 588.68C808.742 597.973 808.628 605.34 808.628 610.78C808.628 615.087 807.495 618.713 805.228 621.66C802.962 624.38 799.448 625.74 794.688 625.74ZM797.748 423.1C789.362 423.1 782.335 420.607 776.668 415.62C771.002 410.633 768.168 404.627 768.168 397.6C768.168 391.48 770.322 386.493 774.628 382.64C779.162 378.56 784.828 376.52 791.628 376.52C797.295 376.52 802.168 377.88 806.248 380.6C810.555 383.32 813.728 386.833 815.768 391.14C817.808 395.22 818.828 399.527 818.828 404.06C818.828 408.367 817.128 412.673 813.728 416.98C810.555 421.06 805.228 423.1 797.748 423.1Z" fill="#3C4043"/>
<path d="M1137.5 615.2C1127.3 615.2 1118.46 613.273 1110.98 609.42C1103.5 605.34 1097.72 599.673 1093.64 592.42C1089.79 585.167 1087.86 576.667 1087.86 566.92C1087.86 556.72 1089.56 546.633 1092.96 536.66C1096.36 526.687 1101.24 517.28 1107.58 508.44C1114.16 499.373 1121.75 491.44 1130.36 484.64C1139.2 477.613 1148.95 472.173 1159.6 468.32C1170.26 464.24 1181.36 462.2 1192.92 462.2C1198.36 462.2 1202.78 463.56 1206.18 466.28C1209.58 469 1211.28 473.08 1211.28 478.52C1211.28 481.467 1210.38 483.847 1208.56 485.66C1206.75 487.473 1204.03 488.607 1200.4 489.06C1182.95 491.327 1168.1 496.313 1155.86 504.02C1143.62 511.727 1134.33 521.133 1127.98 532.24C1121.64 543.347 1118.46 555.133 1118.46 567.6C1118.46 573.267 1119.14 578.253 1120.5 582.56C1121.86 586.64 1124.47 591.967 1128.32 598.54L1109.28 573.72C1114.27 578.933 1118.58 582.333 1122.2 583.92C1125.83 585.507 1130.7 586.3 1136.82 586.3C1151.56 586.3 1164.7 578.14 1176.26 561.82C1187.82 545.273 1196.1 521.36 1201.08 490.08C1201.76 485.773 1203.24 482.487 1205.5 480.22C1207.77 477.727 1210.83 476.48 1214.68 476.48C1220.35 476.48 1225 478.633 1228.62 482.94C1232.48 487.02 1234.86 492.46 1235.76 499.26C1238.03 514.22 1240.41 527.593 1242.9 539.38C1245.62 550.94 1249.36 561.933 1254.12 572.36C1259.11 582.56 1265.91 593.327 1274.52 604.66C1276.56 607.153 1277.7 609.873 1277.92 612.82C1278.15 615.767 1277.7 618.713 1276.56 621.66C1275.43 624.38 1273.73 626.647 1271.46 628.46C1269.2 630.273 1266.36 631.18 1262.96 631.18C1260.02 631.18 1257.64 630.5 1255.82 629.14C1254.24 627.78 1252.54 626.08 1250.72 624.04C1245.96 617.693 1241.43 611.12 1237.12 604.32C1232.82 597.293 1228.96 589.473 1225.56 580.86C1222.16 572.02 1219.22 561.593 1216.72 549.58C1214.46 537.567 1212.76 523.287 1211.62 506.74L1223.52 506.4C1220.8 526.573 1216.38 543.687 1210.26 557.74C1204.37 571.567 1197.34 582.673 1189.18 591.06C1181.25 599.447 1172.75 605.567 1163.68 609.42C1154.84 613.273 1146.12 615.2 1137.5 615.2ZM1382.95 639.68C1369.12 639.68 1357.11 637.527 1346.91 633.22C1336.94 628.913 1328.66 622.907 1322.09 615.2C1315.52 607.493 1310.64 598.427 1307.47 588C1304.52 577.573 1303.05 566.013 1303.05 553.32C1303.05 539.72 1305.32 526.12 1309.85 512.52C1314.38 498.92 1320.84 486.453 1329.23 475.12C1337.84 463.56 1348.04 454.38 1359.83 447.58C1371.84 440.78 1385.33 437.38 1400.29 437.38C1412.08 437.38 1422.39 439.647 1431.23 444.18C1440.07 448.487 1446.98 454.947 1451.97 463.56C1456.96 471.947 1459.45 482.6 1459.45 495.52C1459.45 506.627 1457.07 516.487 1452.31 525.1C1447.55 533.713 1440.98 540.967 1432.59 546.86C1424.43 552.753 1414.68 557.287 1403.35 560.46C1392.24 563.407 1380.23 564.88 1367.31 564.88C1352.8 564.88 1342.49 562.953 1336.37 559.1C1330.25 555.02 1327.19 550.487 1327.19 545.5C1327.19 542.327 1327.87 540.06 1329.23 538.7C1330.59 537.113 1332.97 536.32 1336.37 536.32C1339.54 536.32 1343.4 536.887 1347.93 538.02C1352.46 538.927 1358.13 539.38 1364.93 539.38C1378.76 539.38 1390.43 537.567 1399.95 533.94C1409.7 530.313 1417.06 525.213 1422.05 518.64C1427.26 512.067 1429.87 504.36 1429.87 495.52C1429.87 486.227 1427.38 479.2 1422.39 474.44C1417.63 469.453 1410.04 466.96 1399.61 466.96C1389.86 466.96 1380.91 469.453 1372.75 474.44C1364.82 479.2 1357.79 485.773 1351.67 494.16C1345.78 502.547 1341.13 512.067 1337.73 522.72C1334.56 533.373 1332.97 544.48 1332.97 556.04C1332.97 566.24 1334.44 575.533 1337.39 583.92C1340.34 592.307 1345.32 598.993 1352.35 603.98C1359.6 608.74 1369.12 611.12 1380.91 611.12C1394.74 611.12 1406.18 609.533 1415.25 606.36C1424.54 602.96 1432.14 599.107 1438.03 594.8C1443.92 590.493 1448.8 586.64 1452.65 583.24C1456.73 579.84 1460.47 578.14 1463.87 578.14C1466.82 578.14 1468.97 579.047 1470.33 580.86C1471.69 582.447 1472.37 585.167 1472.37 589.02C1472.37 594.46 1469.99 600.127 1465.23 606.02C1460.47 611.687 1453.9 617.013 1445.51 622C1437.35 627.213 1427.83 631.407 1416.95 634.58C1406.3 637.98 1394.96 639.68 1382.95 639.68ZM1532.5 625.74C1528.64 625.74 1525.36 624.72 1522.64 622.68C1520.14 620.867 1518.22 618.147 1516.86 614.52C1515.72 610.667 1515.16 606.133 1515.16 600.92C1515.16 583.92 1515.16 569.527 1515.16 557.74C1515.16 545.727 1515.04 535.413 1514.82 526.8C1514.82 517.96 1514.82 509.687 1514.82 501.98C1514.82 494.273 1514.82 486.113 1514.82 477.5C1514.82 473.42 1515.38 469.907 1516.52 466.96C1517.65 464.013 1519.46 461.633 1521.96 459.82C1524.45 458.007 1527.62 457.1 1531.48 457.1C1536.46 457.1 1540.54 458.913 1543.72 462.54C1547.12 465.94 1548.93 471.04 1549.16 477.84C1549.16 482.827 1549.04 489.74 1548.82 498.58C1548.59 507.42 1548.25 517.167 1547.8 527.82C1547.57 538.473 1547.34 549.24 1547.12 560.12C1546.89 570.773 1546.66 580.633 1546.44 589.7C1546.21 598.767 1546.1 605.907 1546.1 611.12C1546.1 615.2 1544.96 618.713 1542.7 621.66C1540.43 624.38 1537.03 625.74 1532.5 625.74ZM1534.54 423.44C1526.38 423.44 1519.46 421.06 1513.8 416.3C1508.36 411.313 1505.64 405.307 1505.64 398.28C1505.64 392.16 1507.9 387.06 1512.44 382.98C1516.97 378.9 1522.64 376.86 1529.44 376.86C1535.1 376.86 1539.98 378.22 1544.06 380.94C1548.14 383.433 1551.2 386.72 1553.24 390.8C1555.28 394.88 1556.3 399.187 1556.3 403.72C1556.3 408.027 1554.6 412.447 1551.2 416.98C1547.8 421.287 1542.24 423.44 1534.54 423.44Z" fill="#3C4043"/>
</svg>
