<svg xmlns="http://www.w3.org/2000/svg" width="1920" height="1080" fill="none"><path fill="#FF6D7F" d="M619.649 213.2c-.7 3.325-4.025 3.85-12.95 4.2l-20.475.875-.7 22.05c-.35 9.8-2.975 19.075-7.35 19.075-3.325 0-3.5-18.375-3.5-18.375l-.875-85.925c0-4.9-22.4-11.725-21.175-14.525 1.05-2.8 4.375-2.8 7-2.8 2.275 0 12.6 2.275 18.725 4.2 12.425 3.675 8.225 7.525 8.225 13.65l-.175 56 8.225-.525c.525 0 7.175-4.375 9.1-4.375 7.875 0 17.5-.875 15.925 6.475Zm-83.825-53.025c-.175 5.95-28.7 5.6-31.675 4.375-4.375-1.575-16.275-9.1-14-11.2 1.4-1.225 10.325 1.225 16.1 1.4 21.175.875 29.925-2.275 29.575 5.425Zm26.95 20.3c-1.225 5.075-11.9 4.2-19.95 3.5-2.8-.175-14.35.175-22.925.175 4.2 3.325 4.025 6.3 3.5 7.875 4.375.525 26.775 2.975 25.9 28-.525 12.075-12.25 25.725-30.975 26.25-24.325.525-35.875-17.15-35.525-28.35.875-22.225 26.075-25.2 28.525-25.9.875-.875 2.975-1.75 1.05-7.35-7.35.175-16.625 1.225-18.725 1.575-4.2.525-7.35 3.325-12.425 1.05-8.575-4.025-15.925-7.7-15.05-9.45.875-1.575 9.8.7 19.25 1.225 8.925.525 18.725-.175 29.05-.7 9.275-.35 19.075-.875 21.35-1.75 1.925-.175 9.45-3.5 9.8-3.5 15.575.35 18.025 3.15 17.15 7.35Zm40.25 107.275c.35 6.475-12.6 6.65-21.525 6.65h-47.25c-6.825 0-10.85 0-13.3-2.1-2.975-2.625-4.55-5.075-4.55-10.675v-14.7c0-2.1-.35-2.8-3.675-4.725-3.325-1.75-12.95-3.675-12.6-5.6.175-2.45 5.6-4.025 18.725-2.8 14.35 1.225 9.8 6.475 9.8 10.85v16.275c0 4.9.875 5.775 1.4 6.125 1.4 1.225 2.8.525 4.725.525l32.9-.35c2.275 0 9.8-4.375 11.9-4.375 1.75 0 22.925-1.75 23.45 4.9Zm-63-69.475c1.05-15.225-14-19.6-17.85-21-.525 1.575-1.75 3.85-6.475 4.2-4.55.35-20.825 5.95-20.825 18.025 0 8.925 11.725 18.2 22.75 17.85 16.8-.7 22.05-14 22.4-19.075ZM792.899 204.45c.525 7.35-7.875 6.3-19.425 5.775-9.1-.525-33.775-.525-59.15.525-28.175 1.05-44.45 2.45-46.2 2.975-1.225 0-7.175 3.675-9.975 2.8-7.35-2.1-25.9-9.8-21.7-12.95 1.575-1.225 13.65 1.575 27.125 1.925 9.275.175 23.1-.175 40.95-.7 21-.525 34.65-1.575 39.025-1.925 1.05-2.45 1.925-5.775 4.55-17.5 2.8-12.6 3.675-24.15 3.675-27.3-3.85.175-15.575.35-33.25 1.05-15.4.7-28.525 1.4-33.775 1.575-1.925 0-5.95 3.675-9.275 2.1-6.475-2.8-20.125-7.35-17.5-11.025 1.225-1.575 8.4 1.225 24.85 1.225 8.4 0 19.775 0 34.65-.525 17.325-.7 27.3-1.4 30.8-1.575 2.1-.175 4.9-1.925 6.475-2.1 1.75-.35 6.125 1.4 9.625 2.8 8.925 3.5 1.75 7 1.05 8.575-.875 2.625-1.925 12.075-6.475 24.5-3.675 9.975-5.6 14.875-7 17.5l10.5-.875c3.15-.35 8.925-2.625 11.025-2.8 5.775-.525 18.9.525 19.425 5.95Zm-24.85 83.475c0 5.775-9.1 5.6-16.975 5.6-14.175 0-61.95.175-61.95.175-4.025 0-8.75-1.05-11.9-2.975-3.5-2.275-4.55-7-4.725-11.2l-.35-12.25c0-1.75-6.125-3.15-9.275-4.55-3.15-1.4-2.45-5.25 4.55-5.25 10.15 0 16.45 1.75 18.725 1.75 3.15 0 17.5-.35 32.2-.875 14.175-.525 20.65-1.225 23.625-1.4.175-2.1.7-5.25 1.05-10.675.175-4.025.175-6.3.175-8.4-3.325.175-9.975.175-25.725 1.225-15.4 1.05-29.75 1.05-31.325 1.575-1.75.35-4.025 3.5-7.35 2.275-5.425-1.925-18.9-7.35-17.325-10.15.875-1.4 10.5.175 24.15.35 27.825.525 54.95-1.75 55.65-1.925 2.1 0 4.375-1.75 5.6-1.75 1.75-.35 8.05 1.575 9.625 2.275 7 2.975.175 5.95-.525 7.7-.525 1.925-.7 2.8-2.275 7.7-1.4 4.2-2.1 6.65-2.8 9.1 2.275.525 7.175 1.05 8.05 4.2 1.4 4.9-9.275 4.375-11.9 4.375-3.5 0-13.3-.35-27.125-.175-13.125 0-29.75.7-34.825.875v16.45c0 1.4-.7 3.15.35 3.85 1.05.875 2.8.525 3.675.525 5.25.175 18.9.35 27.3.35 8.925.175 14.175-.35 19.95-.525 4.375 0 11.375-3.85 13.3-4.025 9.8-.7 18.375.35 18.375 5.775ZM1006.16 153l-1.23 116.9c-.17 10.15-.87 29.05-7.174 30.275-3.15.525-4.025-11.025-4.025-18.2l-.35-130.025c0-1.925-2.275-1.75-7.525-4.9-4.375-2.625-11.375-4.55-10.675-6.3.7-2.1 5.25-3.85 8.225-3.15 9.1 1.925 14.7 3.675 18.374 4.55 7 1.575 4.38 7.175 4.38 10.85Zm-28.879 11.2-.525 88.9c0 9.275-1.4 32.725-7.35 33.075-3.15.175-3.5-9.975-3.5-16.8l-.7-59.325c-1.05 0-2.275-.175-4.9 0-4.725.525-9.1 1.05-9.975 1.225-2.45.525-4.9 3.15-8.4 1.575-4.2-1.925-12.25-5.075-12.25-7.35 0-1.925 6.475-1.05 18.55-1.4 8.05-.35 13.475-.7 16.975-.7v-39.375c0-1.05-2.1-2.1-5.775-4.55-5.6-3.85-11.2-4.9-10.675-7 .35-2.275 7-3.15 9.275-2.45 4.375 1.225 11.55 2.625 15.75 4.025 5.425 1.75 3.5 6.3 3.5 10.15Zm-38.675 84.875c-4.025 1.225-8.575-8.925-14-19.425-4.725-8.925-7.35-13.825-9.275-16.975-2.1 2.975-9.1 12.075-17.85 20.125-12.95 12.075-23.45 19.075-25.725 17.5-1.925-1.4 9.625-9.8 22.925-26.425 14.875-18.55 22.925-39.725 23.975-43.05.525-.875-1.225-1.925-4.375-4.375-4.725-4.025-9.975-5.6-9.45-7.175.525-1.925 7.7-2.1 10.85-1.225 5.775 1.75 9.275 3.85 13.65 5.775 6.125 2.625 2.8 8.4 1.75 10.325-.7 1.75-3.675 8.75-6.65 14-1.75 3.15-4.2 7.175-5.6 9.1l7.7 8.925c4.375 5.075 9.45 8.4 10.15 9.45 7 10.15 5.6 22.225 1.925 23.45ZM1176.61 154.575 1176.43 272c0 4.025-.52 28.875-8.4 27.825-2.62-.35-2.97-13.825-2.97-22.4l-.18-41.475c-8.05 4.375-21.17 10.15-35 15.05-20.12 7-44.1 12.425-49.7 12.95-4.37.525-11.02-5.6-11.02-14.7l-.18-31.15c0-6.475-15.4-6.65-14.7-10.15.53-2.625 7.18-3.85 12.78-3.325 12.07.875 12.77 2.8 14.17 2.8 0 0 5.43-.175 17.33-1.05 7-.525 14.17-1.4 16.8-1.75.35-2.975 1.05-11.9 1.4-19.075.17-5.075 0-9.8 0-12.25-2.28 0-9.28 0-15.75.525-11.03.875-17.15 1.4-19.43 1.75-1.75.35-4.72 2.975-9.27 1.4-7.18-2.625-14.88-7.525-13.83-9.8.88-2.1 8.75.875 19.95.525 17.33-.7 32.2-1.575 34.48-1.575 1.4 0 4.9-2.1 6.12-1.925 2.45.175 13.65 4.025 13.65 6.475 0 2.1-2.8 2.275-3.15 4.375-.17 1.925-1.75 7.875-2.97 13.825-1.4 6.3-2.63 12.075-3.15 14.35 2.27.35 6.82.35 7.52 3.85.88 4.375-7 4.55-9.97 4.9-2.45.175-10.5.175-19.78.875-10.32.7-16.45 1.4-19.6 1.575v32.55c0 1.4-.17 3.15.7 3.675 1.23.875 2.8.875 5.25.7 2.63-.35 22.4-2.275 45.68-8.925 15.57-4.375 25.55-9.275 31.5-11.725l-.7-75.6c0-6.3-22.58-11.725-20.48-15.575 1.4-2.625 8.75-2.45 16.98-.525 7.87 1.75 14 3.85 15.4 5.25 2.1 2.45.7 6.3.7 10.325ZM1359.48 168.4c-1.57 5.6-15.92 4.55-21.7 4.375-4.9-.175-20.82.525-38.85.875-16.62.175-22.22 1.225-30.27 1.75-1.23 0-7.18 3.675-10.5 2.275-7.35-2.8-19.08-8.575-16.8-11.025.87-.875 3.67-.35 9.45.525 3.32.525 4.55.175 9.1.35 6.65.35 21.87 0 34.82-.175 14.88-.35 24.5-1.575 29.4-1.75 3.15 0 8.4-4.2 11.2-4.375 16.63-.7 25.73 1.925 24.15 7.175Zm-1.4 60.025c-1.57 5.775-13.82 4.55-22.75 4.55-3.67 0-11.2-.525-33.25.525-18.72 1.05-30.27 1.75-35.52 2.275-1.58.35-4.73 4.2-9.28 2.275-12.95-5.6-18.72-8.575-17.32-10.325 1.22-1.75 4.37-1.05 12.42-.175 14.88 1.4 52.85-1.225 57.75-1.4 1.05-3.5 2.98-10.15 4.03-15.4 2.45-11.2 3.5-17.15 4.2-20.475.17-1.75-3.15-3.325-4.55-5.075-2.28-1.925-4.9-2.625-4.2-4.2 1.75-3.5 5.07-2.8 18.72 2.45 9.98 3.675 3.85 9.1 3.15 10.5-1.4 3.5-5.6 13.65-8.22 19.25-1.75 4.025-4.2 8.925-5.78 12.425 2.8 0 12.25-.175 16.63-3.325 1.4-.875 26.25-1.575 23.97 6.125Zm-72.62-25.55c2.45 4.55 2.8 21.35-3.68 22.225-5.95.7-6.47-11.025-9.27-19.95-4.55-14-11.38-20.125-8.75-22.575 2.1-1.925 17.15 12.425 21.7 20.3Zm93.8 64.75c-1.93 7.7-11.73 5.6-23.98 5.6-4.2 0-22.22-.875-46.9 0-25.9.875-49.7 2.975-54.25 4.025-1.92.35-4.02 4.025-9.8 2.45-10.32-2.975-22.4-8.225-21.7-11.375.7-2.625 7.35-1.05 11.9-.7 4.38.175 8.23.35 13.48.35 21.7.175 38.67-.35 55.65-1.225 17.67-.875 37.62-2.275 43.4-2.975 2.97-.35 5.07-3.15 8.75-2.975 6.82.35 25.37-.525 23.45 6.825ZM1588.49 155.8l-.7 116.2c-.18 14.7-3.15 27.825-8.58 27.825-2.62 0-3.5-11.725-3.5-19.6l-.52-125.475c0-6.3-21.35-11.725-20.13-14.35 1.23-2.8 8.4-3.5 16.63-1.4 5.95 1.4 13.3 3.325 15.4 5.425 2.62 2.625 1.4 7.175 1.4 11.375Zm-45.5 21.875-1.05 53.9c-.18 9.275-2.8 21.175-8.75 20.65-2.63-.175-3.15-5.075-3.33-7.35l-42.17 1.225c-.7 2.45-1.93 10.15-8.05 10.325-2.63 0-2.45-9.1-2.45-12.425l-1.23-58.625c-.17-6.125-15.92-7.35-15.05-10.5.53-2.275 5.08-4.375 13.65-3.15 5.6.7 11.9 1.925 13.83 4.025 1.75 1.75.52 7.875.52 9.625V197.8l41.13-.7v-19.95c0-4.725-14.7-7.875-14-11.2.35-1.75 5.42-3.85 12.77-1.925 5.78 1.4 12.43 3.15 13.83 5.075 1.57 2.625.35 5.6.35 8.575Zm-12.78 59.85V204.45l-41.47.875-.53 33.425 42-1.225ZM1767.34 164.725c5.95 2.625-.18 6.65-.53 8.75-1.05 5.25-4.2 25.2-8.4 40.95-7.35 27.475-13.3 34.825-16.27 31.675-1.4-1.225 3.15-9.45 7.87-41.3 2.8-19.25 3.33-29.225 3.33-33.6-3.15.35-12.78.35-29.4 1.225-15.05.7-40.25 1.75-44.1 2.275-2.28.175-7.18 2.975-10.68 1.925-6.82-2.1-18.2-7.35-16.8-10.5.7-1.925 8.58-.35 21.53.175 12.77.525 31.5.35 49.52-.525 16.98-.875 24.15-1.575 27.48-1.575 1.75-.175 3.67-2.45 5.95-2.625 1.75-.35 7.87 1.925 10.5 3.15Zm21.87 105c-.87 6.825-8.05 3.15-28.17 3.5-15.58.175-29.4-.175-48.13.35-24.32.525-42.87 2.8-46.37 3.325-4.73.525-7 4.375-12.08 2.275-7-2.8-21.7-7.525-18.37-12.775 1.05-1.75 7.7 1.225 22.92 1.75 8.05.35 16.28.175 21.18 0l-.53-42.875c0-2.8-12.6-6.125-14.7-7.525-2.1-1.4.53-4.725 4.73-4.375 4.2.175 11.2 1.575 18.2 3.15 6.65 1.4 4.9 4.2 4.55 6.825l-1.58 44.275 24.5-.35.53-47.6c0-3.85-8.23-6.3-10.68-8.05-2.8-1.925-.17-4.9 4.9-4.025 4.73.875 11.73 2.8 15.05 4.025 6.83 2.45 3.5 7.35 3.15 9.625l-2.1 45.5 31.5-1.225c3.15-.175 7.18-2.45 9.98-2.45 13.65-.35 22.4 1.05 21.52 6.65Z"/><path fill="#1A73E8" d="M584.579 578.45c6.84 0 9.5-13.3 9.5-25.27v-29.07c7.03-.19 18.05-.38 26.03-.38 4.18 0 7.41 0 8.74.19 1.52-1.71 2.66-4.37 2.66-6.84 0-3.04-1.9-5.89-7.03-5.89-7.03 0-19 3.04-30.4 7.6v-59.28c0-3.23.38-5.7.95-8.55-4.75-4.94-15.96-9.5-22.61-9.5-5.13 0-6.27.76-6.27 3.61 5.51 3.04 15.39 8.74 15.39 11.78V577.5c.95.57 1.9.95 3.04.95Zm-65.17-110.77c13.3 0 17.48-1.71 17.48-5.89 0-3.8-2.47-4.37-15.01-4.37s-22.61-.19-30.4-4.18c-1.14.38-1.33 1.14-1.33 2.09 0 6.08 14.63 12.35 29.26 12.35Zm-39.9 23.94c2.09-1.52 4.75-2.28 8.55-2.47 11.02-.57 43.89-2.47 62.32-2.47 3.99 0 7.6.19 12.35.57 1.71-1.33 3.04-3.99 3.04-7.22 0-3.23-4.18-4.94-9.31-4.94-3.23 0-6.84.19-9.12.76-1.14 1.33-2.85 2.09-6.27 2.47-9.12.95-43.13 2.28-52.06 2.28-8.17 0-18.62-.76-23.75-1.9-.38.57-.57 1.14-.57 2.09 0 4.75 9.88 11.02 14.82 10.83Zm37.81 62.13c20.52 0 34.2-11.02 34.2-26.22 0-15.58-11.21-25.65-28.69-27.36v-.95c0-4.18-3.42-6.65-7.03-6.65-.95 0-2.09.19-3.04.57.38.95.76 2.09.76 3.42 0 1.52-.38 3.04-1.33 3.61-17.67 1.52-29.07 11.4-29.07 26.79 0 15.58 13.68 26.79 34.2 26.79Zm0-8.74c-12.73 0-21.47-7.6-21.47-18.05 0-11.4 8.17-18.62 21.47-18.62 13.3 0 21.66 7.22 21.66 18.62 0 10.45-8.74 18.05-21.66 18.05Zm14.63 68.02c18.81 0 53.58-.57 66.5-.57 3.61 0 6.65 0 9.12.19 2.28-1.33 3.42-3.8 3.42-7.41 0-3.99-5.89-4.94-12.92-4.94-6.08 0-9.12.38-10.83.57-1.33 1.71-2.47 2.85-6.27 3.04-6.84.38-33.63.95-45.41.95-6.46 0-10.64-1.71-10.64-9.31v-13.68c0-3.61.38-6.46.95-10.07-2.85-3.23-13.3-5.32-19.57-5.32-3.99 0-6.08 1.52-6.08 4.37 5.13 1.52 11.78 3.8 11.78 6.84l.19 19.38c.19 11.02 7.98 15.96 19.76 15.96ZM763.362 506.06c9.5 0 17.29-32.3 19.19-47.31-1.52-1.9-9.88-5.32-13.3-4.94l-3.42 2.09c-17.29.76-53.39 2.47-64.98 2.47-8.17 0-20.71-.57-26.03-1.71-.38.57-.57 1.33-.57 2.09 0 5.7 11.59 10.45 17.1 10.45 1.71-1.52 6.65-2.28 10.45-2.47 12.73-.57 46.55-2.09 65.55-2.66-1.33 13.87-3.61 27.55-7.6 40.85.95.76 2.28 1.14 3.61 1.14Zm-101.08 23.37c1.71-1.52 4.56-2.28 8.36-2.47 37.24-1.9 88.16-3.42 113.81-3.42 12.54 0 19.38.57 24.51 1.14 1.71-1.14 3.42-3.61 3.42-6.84 0-3.99-5.89-6.46-12.92-6.46-3.04 0-6.08.19-7.6.38-1.9 1.52-4.56 2.47-8.36 2.66-26.98 1.33-75.81 3.42-113.81 3.42-8.17 0-18.81-.57-24.13-1.71-.38.76-.76 1.52-.76 2.28 0 5.89 11.97 11.02 17.48 11.02Zm39.71 83.41c5.7 0 61.18-.57 74.67-.57 3.61 0 4.75 0 7.22.19 2.28-1.33 3.42-2.66 3.42-6.08 0-4.56-5.89-5.51-10.83-5.51-6.08 0-10.26.38-11.78.57-1.33 1.71-2.47 2.85-6.27 3.04-4.94.19-44.84.76-51.87.76-4.37 0-6.46-1.52-6.46-6.27v-16.91c25.84-.57 53.39-1.14 75.24-1.33 1.9-.95 3.23-1.71 3.23-4.94 0-2.66-2.66-3.99-7.22-4.37l6.27-26.03c-1.71-1.9-11.02-3.99-13.49-3.61l-3.04 1.71c-11.97.95-49.59 2.09-58.9 2.09-7.41 0-16.34-.57-20.9-1.71-.38.76-.57 1.52-.57 2.09 0 4.18 9.31 10.07 15.2 10.07 1.71-1.33 4.56-2.28 8.36-2.47l58.9-2.09-.57 21.66c-14.44.76-40.66 1.33-65.17 1.71-3.8-1.33-10.45-1.71-13.3-1.71-3.8 0-6.46.76-6.46 3.61 5.32 1.52 9.88 3.04 9.88 6.08v14.44c0 10.45 4.56 15.58 14.44 15.58ZM1008.78 615.5c4.56 0 9.5-5.89 9.5-25.27V459.51c0-3.23.38-5.7.95-8.55-3.99-4.75-15.58-9.5-22.417-9.5-5.13 0-6.46.76-6.46 3.61 5.13 2.47 15.577 8.74 15.577 11.78v157.7c.95.57 1.9.95 2.85.95Zm-31.537-11.78c4.18 0 9.12-5.7 9.12-24.32V469.58c0-3.04.38-5.32.95-8.17-3.8-4.56-13.3-7.22-19.76-7.22-4.94 0-6.08.76-6.08 3.42 5.13 2.47 12.92 6.65 12.92 9.5v39.14c-17.67 1.14-26.03 1.14-35.34.76-2.09 4.75 4.94 10.26 12.16 10.64 2.47-2.66 8.55-3.61 23.18-4.37v89.49c.95.57 1.9.95 2.85.95Zm-107.16-41.04c11.78 0 28.88-19.76 42.75-41.42 10.83 9.12 22.99 23.18 31.16 38.57 3.04.19 7.79-2.85 7.6-8.17-.38-10.64-21.47-28.88-34.96-36.67 7.6-12.54 13.68-25.27 16.91-34.58-1.52-4.75-14.44-10.83-22.61-10.83-2.09 0-3.8 1.71-3.8 3.42 4.18 2.85 12.92 6.84 11.59 9.88-11.21 25.08-36.1 69.35-53.01 76.19 0 2.28 1.9 3.61 4.37 3.61ZM1185.86 615.5c6.84 0 9.69-13.3 9.69-25.27V459.51c0-3.23.38-5.7.95-8.55-4.75-4.94-16.15-9.5-22.8-9.5-5.13 0-6.27.76-6.27 3.61 5.51 3.04 15.39 8.74 15.39 11.78v157.7c.95.57 2.09.95 3.04.95Zm-101.46-42.56c24.89 0 66.5-15.2 77.52-24.7 1.52-1.33 2.28-3.04 2.28-4.37s-.57-2.47-1.71-3.04c-18.62 10.07-48.45 18.43-77.9 20.52v-41.23c15.77-.57 38.19-1.52 57.76-1.9 1.71-.95 2.85-2.85 2.85-5.7s-2.66-4.37-9.69-4.37l6.65-35.91c-2.09-2.66-11.78-4.94-15.01-3.99l-2.09 1.9c-12.73.95-26.79 1.52-34.58 1.52-8.36 0-20.33-.57-25.46-1.71-.57.57-.76 1.33-.76 2.09 0 4.75 11.21 10.45 15.96 10.45 1.9-1.71 4.56-2.47 8.55-2.66 10.26-.57 25.65-1.14 38.57-1.71l-1.14 32.3c-11.97.57-30.97 1.33-44.84 1.33-3.23-1.33-8.36-2.09-12.73-2.09-5.32 0-6.46 2.09-6.46 4.56 5.13 1.52 10.07 3.04 10.07 6.08v38c0 5.89 7.03 14.63 12.16 14.63ZM1269.26 480.22c2.28-1.52 4.94-2.28 9.12-2.47 17.86-.76 54.72-2.66 74.29-2.66 4.37 0 11.21.19 16.34.57 1.9-1.33 3.23-3.61 3.23-6.84 0-3.42-4.56-5.7-11.78-5.7-3.61 0-8.55.19-10.64.76-1.33 1.52-3.23 2.47-7.03 2.85-9.69.95-47.69 2.47-63.46 2.47-8.36 0-19-.57-24.7-1.33-.38.76-.57 1.33-.57 2.28 0 4.56 9.88 10.26 15.2 10.07Zm-3.99 62.51c1.9-1.52 4.75-2.47 9.12-2.47 17.67 0 65.93-2.85 85.5-2.85 6.27 0 10.26.19 15.2.57 1.9-1.33 3.23-3.99 3.23-6.84 0-3.61-4.75-5.13-9.88-5.13-3.42 0-9.31.19-11.78.76-1.14 1.52-2.85 2.28-6.65 2.66-1.9.19-5.13.38-9.31.57 3.61-11.78 9.88-34.96 11.4-39.52-2.09-3.04-13.68-7.03-19.76-7.03-2.85 0-3.61 1.52-3.8 3.23 4.37 2.47 8.55 5.51 8.17 8.17l-5.51 35.53-33.06 1.14c-.38-12.16-2.09-35.91-2.28-40.66-2.66-2.66-11.21-3.61-15.39-3.61-5.13 0-6.65 2.28-5.89 4.37 4.94 1.52 8.55 3.8 9.12 6.84l5.32 33.25c-6.08.19-11.59.19-15.77.19-8.17 0-18.05-.95-23.37-2.28-.38.76-.57 1.71-.57 2.66 0 4.94 10.45 10.45 15.96 10.45Zm-14.06 49.21c1.71-1.52 4.56-2.28 8.36-2.47 37.24-1.9 88.16-3.42 113.81-3.42 12.54 0 19.38.57 24.51 1.14 1.71-1.14 3.42-3.8 3.42-7.03 0-3.99-5.89-6.46-12.92-6.46-3.04 0-6.08.19-7.6.38-1.9 1.52-4.56 2.47-8.36 2.66-26.98 1.33-75.81 3.42-113.81 3.42-8.17 0-18.81-.57-24.13-1.71-.38.76-.76 1.52-.76 2.28 0 5.89 11.97 11.21 17.48 11.21ZM1592.39 615.5c6.84 0 9.69-13.3 9.69-25.27V459.51c0-3.23.38-5.7.95-8.55-4.75-4.94-16.15-9.5-22.8-9.5-5.13 0-6.27.76-6.27 3.61 5.51 3.04 15.39 8.74 15.39 11.78v157.7c.95.57 2.09.95 3.04.95Zm-110.96-52.06c3.23 0 5.89-2.85 7.41-11.21l49.02-.76v9.5c.95.57 1.9.95 2.85.95 4.56 0 9.5-5.89 9.5-25.27V484.4c0-3.42.38-6.65.95-10.07-2.47-3.04-12.54-6.46-19.38-6.46-5.13 0-6.27 1.71-6.27 3.99 5.51 2.28 12.35 5.32 12.35 8.36v20.52l-48.26 1.52V490.1c0-3.42.19-6.65.76-10.07-2.47-2.85-11.02-4.56-17.86-4.56-5.89 0-6.84 1.52-6.65 3.99 4.94 1.52 11.4 3.61 11.4 6.65l1.33 76.38c.95.57 1.9.95 2.85.95Zm8.17-18.81c.19-1.9.19-4.18.19-6.65l-.19-28.31 48.26-1.33v35.34l-48.26.95ZM1761.48 548.62c2.47 0 4.18-1.33 7.03-6.65 6.08-11.02 15.77-46.55 17.86-69.73-1.33-1.9-10.83-5.51-14.06-5.13l-3.61 2.09c-16.72.76-60.8 2.09-72.96 2.09-8.17 0-21.66-.57-26.98-1.71-.38.57-.57 1.33-.57 2.09 0 4.56 9.5 10.45 16.15 10.45 1.71-1.52 6.46-2.28 10.45-2.47 13.11-.57 57.95-2.09 76.57-2.47-1.9 24.51-7.98 53.39-13.49 70.3.95.76 2.28 1.14 3.61 1.14Zm-103.74 42.37c1.71-1.52 4.56-2.28 8.36-2.47 37.24-1.9 88.16-3.42 113.81-3.42 12.54 0 19.38.57 24.51 1.14 1.71-1.14 3.42-3.61 3.42-6.84 0-3.99-5.89-6.46-12.92-6.46-3.04 0-6.08.19-7.6.38-1.9 1.52-4.56 2.47-8.36 2.66-10.64.57-24.51 1.14-39.9 1.71l2.28-41.42c.19-3.42.38-6.65.95-10.07-2.66-3.04-12.16-4.37-19-4.37-5.32 0-6.46 1.52-6.27 3.8 5.13 1.52 11.78 3.61 11.78 7.6l-.19 44.84c-9.31.38-18.81.57-28.5.95l.57-38.95c0-3.42.38-6.65.95-10.07-2.85-3.04-12.35-4.37-19-4.37-5.32 0-6.46 1.52-6.27 3.8 5.13 1.52 11.59 3.61 11.78 7.6l1.52 42.18c-8.55.19-16.72.19-24.51.19-8.17 0-18.81-.57-24.13-1.71-.38.76-.76 1.52-.76 2.28 0 5.89 11.97 11.02 17.48 11.02ZM545.479 797.26c-8.28.54-58.14 1.26-65.7 1.08-4.14 0-11.34-.36-16.2-1.26l-1.26 2.16c-.18.36 0 1.08.54 1.62 3.78 2.88 9.36 6.3 14.4 8.1 3.06-1.08 9.72-2.34 13.14-2.52 6.84-.54 51.66-1.44 58.86-1.44 4.14 0 12.78.18 16.38.72 1.26-.9 3.6-3.6 3.6-6.66 0-.9-.72-1.8-1.98-2.34-3.24-1.08-10.98-1.98-16.2-2.16l-5.58 2.7Zm9.18 45.72c0-17.82-16.56-29.52-37.08-29.52s-37.08 11.7-37.08 29.52 16.56 29.7 37.08 29.7 37.08-11.88 37.08-29.7Zm-12.42 0c0 13.14-11.16 20.7-24.66 20.7-13.32 0-24.48-7.56-24.48-20.7 0-13.32 11.16-21.06 24.48-21.06 13.5 0 24.66 7.74 24.66 21.06Zm-52.92-70.74c-.18.54-.18 1.08.18 1.62 3.06 3.96 7.38 8.1 10.98 10.08 1.08.72 1.8.72 3.42.72 7.92-.72 21.6-.9 30.96-1.08.9 0 1.8-.18 2.34-1.08.9-1.44 1.26-4.86.54-6.66-.36-1.08-1.08-1.62-2.52-1.62-12.6-.18-28.62-.54-44.64-3.42l-1.26 1.44Zm135.9 64.44c1.26 0 2.7-.18 3.42-.9 1.26-.72 2.34-3.06 2.16-6.3 0-1.44-1.08-2.7-2.52-3.06-3.24-.72-10.62-1.08-15.84-.9l-5.76 3.42-12.78.54V777.1l.54-9.36c0-1.8-.54-3.06-2.16-3.6-5.22-2.16-16.38-4.5-22.86-4.68-1.44 0-1.8.36-1.98.9l-1.44 4.32c6.3 2.16 12.06 5.4 15.12 9.18v85.5c0 8.28.36 23.94 1.08 31.14h7.56c2.52-9 4.14-22.86 4.14-35.64v-17.64l31.32-.54Zm-100.08 68.94v-8.28l.36-7.92c0-1.98-.9-3.06-2.7-3.42-4.5-1.08-14.76-1.62-20.7-1.62-1.08 0-1.62.18-1.8 1.08l-.9 3.96c4.86 1.08 9.72 2.88 12.6 5.22V913c0 9.9 4.14 13.86 15.84 14.04l76.32-.54c.9 0 1.62-.18 2.16-.9.9-.72 1.98-3.06 1.98-6.3 0-1.44-.9-2.34-2.34-2.52-3.42-.72-11.52-1.44-16.92-1.26l-5.76 3.06c-10.44.54-42.3.72-53.64.54-3.24 0-4.5-1.26-4.5-4.68v-8.82ZM770.627 782.32l2.52-5.76c.36-1.08.36-1.62-.36-2.34-1.44-1.08-5.76-3.6-7.74-4.32-.9-.54-2.16-.54-3.06 0l-6.12 2.88c-12.06.54-66.06 1.44-75.24 1.44-5.22 0-12.42-.72-18-1.8l-1.08 2.34c-.36.72-.18 1.26.72 1.98 4.14 3.24 9.9 6.48 15.48 8.46 4.14-1.44 11.7-2.88 15.84-3.06 8.28-.54 47.52-1.08 61.92-.9-.54 12.78-2.88 32.22-6.3 45.9-31.86.54-83.34 1.26-91.44 1.08-5.58 0-14.04-.72-19.98-1.98l-1.26 2.7c-.18.54 0 1.08.54 1.44 4.5 3.78 11.16 7.38 17.64 9.36 4.32-1.44 13.5-3.24 18-3.6 9.54-.54 91.98-1.44 104.58-1.44 5.4 0 16.02.36 20.88.9 1.62-.72 3.78-3.42 3.78-6.48 0-1.44-1.08-2.34-2.34-2.88-4.14-1.26-13.68-2.52-20.16-2.7l-6.48 2.88-15.3.54c5.94-13.14 11.16-31.5 12.96-44.64Zm-6.48 111.96c.54-.72 1.44-2.52 1.44-4.5 0-.54-.18-1.08-.9-1.44l-3.24-1.62c1.44-4.86 3.24-15.12 3.6-21.06l2.16-4.14c.36-1.08.36-1.98-.54-2.52-1.26-.9-4.86-2.7-6.84-3.42-.9-.54-1.98-.54-2.88 0l-5.22 2.52c-11.88.36-59.04.9-68.76.9-4.5 0-11.34-.54-16.02-1.44l-1.08 1.8c-.18.72-.18 1.26.54 1.8 3.78 2.88 8.82 5.76 14.22 7.56 4.32-1.26 10.98-2.52 14.4-2.7 7.56-.36 44.28-.9 55.98-.72.18 4.5 0 16.38-.54 21.06l-3.06.9c-7.02.36-45.18.9-57.78.9-4.86-.54-16.38-.9-21.24-.9-1.08 0-1.8.36-1.98.9l-.54 3.42c3.96.72 7.74 2.34 10.08 4.5v19.26c0 8.1 3.24 11.16 13.14 11.34l83.16-.54c.9 0 1.62-.18 2.34-.72.72-.72 1.8-3.06 1.8-6.12 0-1.26-.72-2.16-2.34-2.34-3.24-.9-10.62-1.26-15.48-1.26l-5.4 2.7c-11.16.54-46.8.72-60.84.54-2.16 0-3.06-.9-3.06-3.24v-20.52l74.88-.9ZM1000.25 932.44c2.7-9.72 4.32-25.92 4.32-35.82V776.2l.36-8.82c.18-1.62-.36-2.88-2.16-3.42-4.501-2.16-15.301-4.32-21.421-4.5-1.26 0-1.8.36-2.16 1.08l-1.26 4.14c5.76 1.98 11.16 5.04 14.04 8.64v127.62c0 7.74.36 24.48 1.08 31.5h7.201ZM939.409 827.5c-4.5 0-9.72-.18-13.86-.72l-1.08 1.98c-.18.72 0 1.08.54 1.8 3.42 2.7 7.56 5.04 12.24 7.02 3.24-1.26 7.92-2.34 10.98-2.7 2.34-.36 7.2-.54 11.34-.54v54.72c0 7.56.18 23.4.9 30.6h7.02c2.52-9.36 4.14-25.02 4.14-34.92V787.9l.54-7.92c0-1.62-.72-2.7-1.98-3.42-4.5-1.98-14.22-3.96-19.98-4.14-1.26 0-1.8.36-1.98.9l-1.44 4.32c5.22 1.62 10.08 4.5 12.78 7.74v41.58c-6.66.36-15.66.54-20.16.54Zm-10.8 27.18-19.98-24.3c5.22-10.08 8.82-20.16 10.8-30.06.36-1.08.54-2.52.54-3.96 0-1.62-.72-2.7-2.16-3.42-3.78-2.34-12.96-5.22-19.62-6.3-1.26-.18-1.62.18-1.98.72l-2.16 3.96c4.5 2.34 8.82 5.76 10.62 8.64-4.86 25.2-21.06 55.26-44.28 79.38-.72.72-.72 1.26-.36 1.8l2.16 1.8c.54.54 1.26.36 1.98 0 16.92-13.32 30.42-28.8 39.96-44.64l27.54 36.18c1.08 1.44 2.52 3.06 3.6 3.42 1.8.9 5.04-.18 6.3-1.98.54-1.08.54-2.7-.18-5.04-1.26-3.06-3.96-9-6.12-12.78l-6.66-3.42ZM1166.72 932.44c2.52-10.26 4.32-27.18 4.32-37.62V777.28l.36-9.54c0-1.8-.54-3.06-2.16-3.6-5.22-2.16-16.38-4.5-23.04-4.68-1.44 0-1.8.36-1.98.9l-1.44 4.32c6.48 2.16 12.24 5.4 15.3 9.18v90.18c-24.84 6.84-63.72 11.52-86.76 11.7-2.52 0-3.24-.9-3.24-3.06V837.4l55.44-1.62c.72-.9 1.62-2.88 1.62-4.68 0-.9-.36-1.44-.9-1.8l-3.6-1.8c1.62-7.74 3.78-23.4 3.96-32.22l1.98-4.86c.36-.9.36-1.8-.36-2.34-1.44-1.08-5.22-3.24-7.2-4.14-.9-.54-2.16-.54-3.06 0l-5.04 2.7c-8.82.54-41.94 1.44-48.96 1.26-4.32 0-10.98-.36-15.48-1.44l-1.26 2.34c-.18.54-.18 1.08.54 1.8 3.78 2.7 8.64 5.76 13.86 7.74 4.14-1.26 10.26-2.52 13.5-2.7 5.04-.54 28.98-1.08 37.08-1.08.36 6.48.18 25.74-.54 32.76l-3.06 1.08c-5.4.36-28.26.9-38.52 1.08-4.86-.54-16.38-.72-21.42-.72-1.08 0-1.8.36-1.98.9l-.54 3.6c4.14.9 8.1 2.52 10.62 4.68v31.86c0 3.42.36 6.48.9 8.1 1.8 5.4 5.76 9 11.7 9 1.62 0 3.78 0 5.76-.18 23.94-1.62 59.04-7.38 84.96-15.48v28.08c0 7.92.54 25.56 1.08 33.12h7.56ZM1323.28 782.68c-9.9.54-72.36 1.26-81.18 1.26-4.5 0-12.24-.72-17.82-1.8l-1.08 2.34c-.18.54-.18 1.08.36 1.44 4.14 3.42 10.44 6.84 15.66 8.64 3.42-1.26 10.62-2.7 14.04-2.88 8.82-.54 65.16-1.08 74.16-1.08 4.32 0 14.04.18 17.82.72 1.26-.72 3.24-3.42 3.24-6.66 0-.9-.72-1.8-1.98-2.34-3.42-1.26-11.52-2.16-17.1-2.34l-6.12 2.7Zm17.28 108.36c-12.6.72-104.22 1.98-115.2 1.8-5.58-.18-14.04-.9-19.98-1.98l-1.26 2.52c-.18.72 0 1.26.54 1.62 4.5 3.78 11.16 7.38 17.64 9.54 4.32-1.44 13.5-3.24 18-3.6 9.54-.54 91.98-1.44 104.58-1.44 5.4 0 16.02.36 20.88.9 1.62-.72 3.78-3.42 3.78-6.48 0-1.62-1.08-2.7-2.34-3.06-4.14-1.44-13.68-2.52-20.16-2.7l-6.48 2.88Zm-17.82-40.68-5.58.18 2.52-40.14.72-7.56c0-1.44-.54-2.34-1.98-2.88-4.32-1.26-12.96-2.34-18.54-2.34-1.26 0-1.8.36-1.98.9l-.9 3.78c4.14 1.26 8.1 3.42 10.08 5.76l-.9 42.66-37.26.54-.9-35.1.18-7.56c.18-1.44-.36-2.16-1.62-2.88-4.14-1.62-12.24-3.42-17.82-3.96-1.26-.18-1.62.18-1.8.72l-1.62 3.96c4.32 1.8 8.1 4.5 10.08 7.2l2.34 37.62-14.94.18c-4.5 0-12.24-.72-17.82-1.62l-1.08 2.16c-.18.54-.18 1.08.36 1.62 4.14 3.24 10.44 6.66 15.66 8.46 3.42-1.26 10.62-2.7 14.04-2.88 8.64-.54 63.72-1.08 72.72-1.08 4.14 0 14.04.18 17.64.72 1.44-.72 3.42-3.42 3.42-6.66 0-.9-.9-1.8-1.98-2.16-3.42-1.26-11.7-2.34-17.28-2.52l-5.76 2.88ZM1560.29 932.44c2.7-10.26 4.32-27.18 4.32-37.62V777.28l.54-9.54c0-1.8-.72-3.06-2.16-3.6-5.22-2.16-16.56-4.32-23.04-4.68-1.44 0-1.98.36-2.16.9l-1.26 4.32c6.3 2.16 12.06 5.58 15.3 9.36v125.28c0 7.92.36 25.56 1.08 33.12h7.38Zm-107.28-48.42c1.26-1.44 2.52-3.96 2.88-7.74 13.5-.18 50.22-.72 63.36-.54.9-.9 1.62-2.88 1.62-5.04 0-.9-.54-1.44-1.26-1.8l-4.14-.9c1.08-4.32 1.98-11.52 1.98-16.74l.54-54.36.36-7.56c0-1.44-.54-2.16-1.8-2.7-4.68-1.98-14.22-3.96-20.16-4.32-1.26 0-1.8.18-1.98.9l-1.62 4.32c5.04 1.8 9.54 4.32 12.24 7.2v30.06l-48.42.72V805l.36-7.56c0-1.8-.72-2.52-1.98-3.06-4.68-1.26-14.4-2.16-20.16-2.16-1.26 0-1.8.36-2.16.72l-1.08 4.5c4.5 1.08 9 3.42 11.52 5.76l1.44 70.02c0 3.24.36 7.92 1.44 10.8h7.02Zm3.6-50.58 48.42-.72v35.1l-48.6.54.18-34.92ZM1721.53 870.16c1.08.18 1.98-.36 2.34-1.26 7.38-22.14 13.5-54.18 14.04-75.24l2.7-6.12c.36-.9.36-1.44-.54-2.16-1.62-1.26-5.58-3.78-7.74-4.86-.9-.54-2.16-.54-3.06 0l-6.48 3.06c-14.58.72-75.6 1.62-85.68 1.44-5.04 0-12.06-.54-17.46-1.62l-1.26 2.34c-.36.72-.18 1.26.54 1.8 3.96 3.42 10.08 6.84 15.48 8.82 4.32-1.44 12.78-2.88 17.46-3.06 9.54-.54 54.72-1.26 71.1-1.08 0 20.88-2.16 52.92-5.94 75.06-.18 1.44.18 1.98.9 2.16l3.6.72Zm12.78 20.7c-4.5.18-19.44.54-37.08.9l2.52-49.5.72-7.2c.18-1.08-.18-2.16-1.62-2.7-4.5-2.16-12.96-4.14-18.72-4.86-1.08 0-1.62.36-1.98.9l-1.44 3.96c4.5 1.98 8.46 4.68 10.8 7.74l-1.08 51.84-27 .36-.36-42.3.54-7.2c0-1.44-.54-2.34-1.98-2.7-4.32-1.44-12.96-2.34-18.54-2.52-1.26 0-1.8.36-1.98.9l-.9 4.14c4.14 1.26 8.28 3.42 10.44 5.58l1.8 44.28-29.34.18c-5.58 0-14.04-.72-19.98-1.98l-1.26 2.7c-.18.54 0 1.08.54 1.62 4.5 3.6 11.16 7.38 17.64 9.36 4.32-1.44 13.5-3.06 18-3.42 9.54-.72 91.98-1.62 104.58-1.44 5.4 0 16.02.36 20.88.9 1.62-.9 3.78-3.6 3.78-6.66 0-1.62-1.08-2.52-2.34-3.06-4.14-1.26-13.68-2.34-20.16-2.7l-6.48 2.88ZM70.284 841.182V863h-4.943l-7.884-11.463h-.127V863h-5.924v-21.818h5.029l7.755 11.42h.17v-11.42h5.924Zm10.77 22.116c-1.775 0-3.295-.351-4.559-1.054a7.26 7.26 0 0 1-2.908-2.962c-.675-1.271-1.012-2.745-1.012-4.421 0-1.676.337-3.147 1.012-4.411a7.169 7.169 0 0 1 2.908-2.961c1.264-.711 2.784-1.066 4.56-1.066 1.775 0 3.295.355 4.56 1.066a7.168 7.168 0 0 1 2.908 2.961c.674 1.264 1.012 2.735 1.012 4.411 0 1.676-.338 3.15-1.012 4.421a7.26 7.26 0 0 1-2.909 2.962c-1.264.703-2.784 1.054-4.56 1.054Zm.043-4.346c.498 0 .927-.167 1.29-.501.362-.334.642-.81.841-1.428.199-.617.298-1.353.298-2.205 0-.859-.1-1.594-.298-2.205-.199-.618-.48-1.094-.842-1.428a1.841 1.841 0 0 0-1.289-.5c-.525 0-.976.167-1.353.5-.376.334-.664.81-.863 1.428-.198.611-.298 1.346-.298 2.205 0 .852.1 1.588.298 2.205.2.618.487 1.094.863 1.428.377.334.828.501 1.353.501Zm20.583-12.316v4.262H90.898v-4.262h10.782Zm-8.694-3.92h5.881v15.021c0 .227.04.419.117.575.079.15.2.263.363.341.163.071.373.107.628.107.178 0 .384-.021.618-.064.242-.043.419-.078.533-.107l.852 4.134a20.86 20.86 0 0 1-1.129.288 9.96 9.96 0 0 1-1.726.223c-1.35.071-2.482-.067-3.399-.415-.916-.355-1.605-.913-2.066-1.673-.462-.76-.686-1.711-.671-2.855v-15.575Zm18.801 20.582c-1.775 0-3.295-.351-4.56-1.054a7.262 7.262 0 0 1-2.908-2.962c-.675-1.271-1.012-2.745-1.012-4.421 0-1.676.337-3.147 1.012-4.411a7.17 7.17 0 0 1 2.908-2.961c1.265-.711 2.785-1.066 4.56-1.066 1.776 0 3.296.355 4.56 1.066a7.17 7.17 0 0 1 2.908 2.961c.675 1.264 1.012 2.735 1.012 4.411 0 1.676-.337 3.15-1.012 4.421a7.262 7.262 0 0 1-2.908 2.962c-1.264.703-2.784 1.054-4.56 1.054Zm.043-4.346c.497 0 .927-.167 1.289-.501.362-.334.643-.81.841-1.428.199-.617.299-1.353.299-2.205 0-.859-.1-1.594-.299-2.205-.198-.618-.479-1.094-.841-1.428a1.84 1.84 0 0 0-1.289-.5c-.526 0-.977.167-1.353.5-.377.334-.664.81-.863 1.428-.199.611-.298 1.346-.298 2.205 0 .852.099 1.588.298 2.205.199.618.486 1.094.863 1.428.376.334.827.501 1.353.501ZM140.306 848c-.057-.71-.323-1.264-.799-1.662-.468-.398-1.182-.597-2.141-.597-.611 0-1.112.075-1.502.224-.384.142-.668.338-.852.586a1.447 1.447 0 0 0-.288.852c-.014.263.032.501.138.714.114.206.292.394.533.565a4.2 4.2 0 0 0 .927.447c.376.135.824.256 1.342.362l1.79.384c1.207.256 2.241.593 3.1 1.012.86.419 1.563.913 2.11 1.481a5.282 5.282 0 0 1 1.203 1.896 6.68 6.68 0 0 1 .405 2.301c-.007 1.435-.366 2.649-1.076 3.644-.71.994-1.726 1.751-3.047 2.269-1.314.518-2.894.778-4.74.778-1.897 0-3.552-.281-4.965-.842-1.406-.561-2.5-1.424-3.281-2.589-.774-1.172-1.165-2.67-1.172-4.495h5.625c.035.667.202 1.228.501 1.683.298.454.717.799 1.257 1.033.547.235 1.196.352 1.949.352.632 0 1.162-.078 1.588-.235.426-.156.749-.373.969-.65.22-.276.334-.593.341-.948a1.345 1.345 0 0 0-.33-.873c-.206-.256-.547-.483-1.023-.682-.476-.206-1.119-.398-1.928-.575l-2.173-.469c-1.932-.419-3.456-1.119-4.571-2.099-1.108-.987-1.658-2.333-1.651-4.037-.007-1.385.362-2.596 1.108-3.633.753-1.044 1.793-1.858 3.121-2.44 1.336-.582 2.866-.873 4.592-.873 1.761 0 3.285.294 4.57.884 1.286.589 2.277 1.42 2.973 2.493.703 1.065 1.058 2.311 1.065 3.739h-5.668Zm16.146 15.298c-1.748 0-3.253-.334-4.518-1.001a7.02 7.02 0 0 1-2.908-2.898c-.675-1.264-1.012-2.777-1.012-4.538 0-1.691.341-3.168 1.023-4.432a7.31 7.31 0 0 1 2.887-2.951c1.243-.703 2.709-1.055 4.4-1.055 1.235 0 2.354.192 3.356.576a7.029 7.029 0 0 1 2.567 1.672c.71.725 1.257 1.605 1.641 2.642.383 1.037.575 2.205.575 3.505v1.364h-14.617v-3.239h9.205a2.258 2.258 0 0 0-.362-1.236 2.311 2.311 0 0 0-.927-.841 2.725 2.725 0 0 0-1.31-.309 2.81 2.81 0 0 0-1.311.309 2.48 2.48 0 0 0-.959.831 2.35 2.35 0 0 0-.373 1.246v3.495c0 .525.111.994.331 1.406.22.412.536.735.948.969.412.235.909.352 1.491.352.405 0 .775-.057 1.108-.171a2.49 2.49 0 0 0 .874-.49c.241-.22.419-.483.533-.788h5.369c-.185 1.136-.622 2.123-1.31 2.962-.689.831-1.602 1.477-2.738 1.938-1.13.455-2.451.682-3.963.682Zm10.411-.298v-16.364h5.71v3.111h.17c.299-1.15.771-1.992 1.417-2.525.654-.532 1.417-.799 2.291-.799.255 0 .507.022.756.064.256.036.501.089.735.16v5.018c-.291-.1-.65-.174-1.076-.224a9.62 9.62 0 0 0-1.097-.075 3.09 3.09 0 0 0-1.556.395 2.781 2.781 0 0 0-1.076 1.086c-.262.462-.394 1.005-.394 1.63V863h-5.88Zm13.007 0v-16.364h5.881V863h-5.881Zm2.941-18.068c-.796 0-1.478-.263-2.046-.789-.568-.525-.852-1.157-.852-1.896 0-.738.284-1.371.852-1.896.568-.526 1.25-.789 2.046-.789.802 0 1.484.263 2.045.789.568.525.852 1.158.852 1.896 0 .739-.284 1.371-.852 1.896-.561.526-1.243.789-2.045.789Zm15.737 1.704v4.262h-10.951v-4.262h10.951ZM189.685 863v-16.832c0-1.35.241-2.468.724-3.356a4.652 4.652 0 0 1 2.046-1.992c.88-.441 1.917-.661 3.111-.661.745 0 1.47.057 2.173.171.71.113 1.236.213 1.577.298l-.853 4.219a4.632 4.632 0 0 0-.745-.15 5.197 5.197 0 0 0-.746-.063c-.554 0-.927.117-1.119.351-.192.234-.287.543-.287.927V863h-5.881Zm17.024 0v-21.818h5.923v8.821h.299l6.562-8.821h6.903l-7.372 9.716L226.567 863h-7.074l-4.9-8.182-1.961 2.557V863h-5.923Zm21.445 0v-21.818h9.418c1.619 0 3.036.295 4.251.884 1.214.59 2.159 1.438 2.833 2.546.675 1.108 1.013 2.436 1.013 3.985 0 1.562-.349 2.88-1.045 3.952-.688 1.072-1.658 1.882-2.908 2.429-1.243.547-2.695.82-4.357.82h-5.625v-4.602h4.432c.696 0 1.289-.085 1.779-.256.497-.177.877-.458 1.14-.841.27-.384.405-.885.405-1.502 0-.625-.135-1.133-.405-1.524-.263-.398-.643-.689-1.14-.873-.49-.192-1.083-.288-1.779-.288h-2.088V863h-5.924Zm12.784-10.014L246.393 863h-6.435l-5.326-10.014h6.306ZM50.511 529.182h6.605l4.262 8.863h.17l4.262-8.863h6.605l-8.012 14.957V551h-5.88v-6.861l-8.012-14.957Zm27.643 22.116c-1.775 0-3.295-.351-4.56-1.054a7.26 7.26 0 0 1-2.908-2.962c-.675-1.271-1.012-2.745-1.012-4.421 0-1.676.337-3.147 1.012-4.411a7.168 7.168 0 0 1 2.909-2.961c1.264-.711 2.784-1.066 4.56-1.066 1.775 0 3.295.355 4.559 1.066a7.168 7.168 0 0 1 2.908 2.961c.675 1.264 1.012 2.735 1.012 4.411 0 1.676-.337 3.15-1.012 4.421a7.26 7.26 0 0 1-2.908 2.962c-1.264.703-2.784 1.054-4.56 1.054Zm.043-4.346c.497 0 .927-.167 1.289-.501.362-.334.643-.81.842-1.428.198-.617.298-1.353.298-2.205 0-.859-.1-1.594-.298-2.205-.2-.618-.48-1.094-.842-1.428a1.841 1.841 0 0 0-1.29-.5c-.525 0-.976.167-1.352.5-.376.334-.664.81-.863 1.428-.199.611-.298 1.346-.298 2.205 0 .852.1 1.588.298 2.205.199.618.487 1.094.863 1.428.376.334.827.501 1.353.501Zm18.707 4.346c-1.775 0-3.295-.351-4.56-1.054a7.26 7.26 0 0 1-2.908-2.962c-.675-1.271-1.012-2.745-1.012-4.421 0-1.676.337-3.147 1.012-4.411a7.168 7.168 0 0 1 2.909-2.961c1.264-.711 2.784-1.066 4.56-1.066 1.775 0 3.295.355 4.559 1.066a7.164 7.164 0 0 1 2.908 2.961c.675 1.264 1.012 2.735 1.012 4.411 0 1.676-.337 3.15-1.012 4.421a7.256 7.256 0 0 1-2.908 2.962c-1.264.703-2.784 1.054-4.56 1.054Zm.043-4.346c.497 0 .927-.167 1.289-.501.362-.334.643-.81.842-1.428.198-.617.298-1.353.298-2.205 0-.859-.1-1.594-.298-2.205-.2-.618-.48-1.094-.842-1.428a1.841 1.841 0 0 0-1.29-.5c-.525 0-.976.167-1.352.5-.376.334-.664.81-.863 1.428-.199.611-.298 1.346-.298 2.205 0 .852.1 1.588.298 2.205.199.618.487 1.094.863 1.428.376.334.827.501 1.353.501Zm16.704-5.157V551h-5.88v-16.364h5.582v3.111h.171c.355-1.037.98-1.85 1.875-2.439.902-.59 1.953-.885 3.153-.885 1.158 0 2.163.267 3.015.799a5.313 5.313 0 0 1 1.992 2.174c.476.923.71 1.978.703 3.164V551h-5.88v-9.205c.007-.809-.199-1.445-.618-1.907-.412-.461-.988-.692-1.726-.692-.483 0-.906.107-1.268.32a2.049 2.049 0 0 0-.82.895c-.192.383-.291.845-.299 1.384Zm28.472-1.832h-5.412a1.495 1.495 0 0 0-.352-.863 1.976 1.976 0 0 0-.799-.554 2.71 2.71 0 0 0-1.065-.202c-.504 0-.938.092-1.3.277-.362.184-.54.447-.533.788-.007.242.096.465.309.671.221.206.643.366 1.268.48l3.324.596c1.676.306 2.923.821 3.739 1.545.824.717 1.24 1.68 1.247 2.887-.007 1.165-.355 2.177-1.044 3.036-.682.853-1.616 1.513-2.802 1.982-1.179.461-2.525.692-4.038.692-2.5 0-4.456-.511-5.87-1.534-1.406-1.023-2.191-2.372-2.354-4.048h5.838c.078.518.334.92.767 1.204.44.277.994.415 1.662.415.54 0 .984-.092 1.332-.277.355-.184.536-.447.543-.788-.007-.313-.163-.561-.469-.746-.298-.185-.767-.334-1.406-.447l-2.898-.512c-1.669-.291-2.919-.845-3.75-1.662-.831-.816-1.243-1.867-1.236-3.153-.007-1.136.292-2.099.895-2.887.611-.796 1.481-1.399 2.61-1.811 1.137-.419 2.483-.629 4.038-.629 2.365 0 4.229.49 5.593 1.47 1.371.981 2.092 2.337 2.163 4.07Zm10.52 11.335c-1.747 0-3.253-.334-4.517-1.001a7.015 7.015 0 0 1-2.908-2.898c-.675-1.264-1.013-2.777-1.013-4.538 0-1.691.341-3.168 1.023-4.432a7.31 7.31 0 0 1 2.887-2.951c1.243-.703 2.71-1.055 4.4-1.055 1.236 0 2.354.192 3.356.576a7.029 7.029 0 0 1 2.567 1.672c.711.725 1.257 1.605 1.641 2.642.384 1.037.575 2.205.575 3.505v1.364h-14.616v-3.239h9.204a2.25 2.25 0 0 0-.362-1.236 2.305 2.305 0 0 0-.927-.841 2.723 2.723 0 0 0-1.31-.309c-.476 0-.913.103-1.31.309a2.473 2.473 0 0 0-.959.831c-.235.355-.359.77-.373 1.246v3.495c0 .525.11.994.33 1.406.22.412.536.735.948.969.412.235.909.352 1.492.352.405 0 .774-.057 1.108-.171.341-.113.632-.277.873-.49.242-.22.419-.483.533-.788h5.369c-.184 1.136-.621 2.123-1.31 2.962-.689.831-1.602 1.477-2.738 1.938-1.129.455-2.45.682-3.963.682Zm21.022-7.457v-9.205h5.88V551h-5.582v-3.111h-.17c-.355 1.044-.977 1.861-1.865 2.45-.888.583-1.942.874-3.164.874-1.143 0-2.145-.263-3.004-.788a5.409 5.409 0 0 1-1.992-2.174c-.469-.923-.707-1.981-.714-3.174v-10.441h5.881v9.205c.007.81.213 1.445.618 1.907.411.462.987.692 1.725.692.49 0 .913-.103 1.268-.309.362-.213.639-.511.831-.894.199-.391.295-.856.288-1.396Zm14.752-14.659V551h-5.881v-21.818h5.881ZM197.305 551v-21.818h9.46c1.662 0 3.057.224 4.187.671 1.136.447 1.992 1.08 2.567 1.896.583.817.874 1.779.874 2.887 0 .803-.178 1.534-.533 2.195a4.712 4.712 0 0 1-1.47 1.662c-.632.44-1.371.746-2.216.916v.213a5.48 5.48 0 0 1 2.557.714 4.89 4.89 0 0 1 1.832 1.8c.455.76.682 1.655.682 2.685 0 1.193-.312 2.255-.937 3.185-.618.931-1.499 1.662-2.643 2.195-1.143.533-2.507.799-4.09.799h-10.27Zm5.923-4.73h2.77c.994 0 1.74-.185 2.237-.554.497-.377.746-.93.746-1.662 0-.511-.117-.945-.352-1.3a2.186 2.186 0 0 0-1.001-.809c-.426-.185-.941-.277-1.545-.277h-2.855v4.602Zm0-8.267h2.429c.518 0 .977-.082 1.374-.245.398-.164.707-.398.927-.703.227-.313.341-.693.341-1.14 0-.675-.241-1.19-.724-1.545-.483-.362-1.094-.543-1.833-.543h-2.514v4.176Zm18.761 13.253c-1.044 0-1.968-.171-2.77-.512a4.158 4.158 0 0 1-1.875-1.576c-.455-.704-.682-1.598-.682-2.685 0-.895.153-1.658.458-2.291a4.132 4.132 0 0 1 1.278-1.566 6.056 6.056 0 0 1 1.907-.926 11.58 11.58 0 0 1 2.365-.416c.917-.071 1.652-.156 2.206-.256.561-.106.966-.252 1.214-.436a.91.91 0 0 0 .373-.757v-.042c0-.427-.163-.753-.49-.981-.327-.227-.746-.34-1.257-.34-.561 0-1.019.124-1.374.372-.348.242-.558.615-.629 1.119h-5.412c.071-.994.387-1.91.948-2.749.568-.845 1.396-1.519 2.483-2.024 1.086-.511 2.443-.767 4.069-.767 1.172 0 2.223.139 3.154.416.93.27 1.722.65 2.375 1.14.654.483 1.151 1.051 1.492 1.704.348.647.522 1.35.522 2.11V551h-5.497v-2.301h-.128c-.327.611-.725 1.104-1.193 1.481-.462.376-.991.65-1.588.82a7.013 7.013 0 0 1-1.949.256Zm1.917-3.708c.448 0 .867-.092 1.257-.277a2.42 2.42 0 0 0 .97-.799c.248-.348.373-.77.373-1.267v-1.364a6.893 6.893 0 0 1-.501.181 9.603 9.603 0 0 1-1.172.298c-.213.043-.437.082-.671.118-.455.071-.827.188-1.119.351a1.658 1.658 0 0 0-.639.586 1.472 1.472 0 0 0-.202.767c0 .455.16.803.479 1.044.32.242.728.362 1.225.362Zm21.006-12.912v4.262h-10.781v-4.262h10.781Zm-8.693-3.92h5.881v15.021c0 .227.039.419.117.575.078.15.199.263.362.341.163.071.373.107.629.107.177 0 .383-.021.617-.064.242-.043.419-.078.533-.107l.852 4.134c-.262.078-.639.174-1.129.288a9.953 9.953 0 0 1-1.726.223c-1.349.071-2.482-.067-3.398-.415-.916-.355-1.605-.913-2.067-1.673-.462-.76-.685-1.711-.671-2.855v-15.575Zm15.652 20.54c-1.044 0-1.967-.171-2.769-.512a4.158 4.158 0 0 1-1.875-1.576c-.455-.704-.682-1.598-.682-2.685 0-.895.152-1.658.458-2.291a4.122 4.122 0 0 1 1.278-1.566 6.056 6.056 0 0 1 1.907-.926 11.58 11.58 0 0 1 2.365-.416c.916-.071 1.652-.156 2.206-.256.561-.106.965-.252 1.214-.436a.91.91 0 0 0 .373-.757v-.042c0-.427-.163-.753-.49-.981-.327-.227-.746-.34-1.257-.34-.561 0-1.019.124-1.375.372-.348.242-.557.615-.628 1.119h-5.412c.071-.994.387-1.91.948-2.749.568-.845 1.396-1.519 2.482-2.024 1.087-.511 2.444-.767 4.07-.767 1.172 0 2.223.139 3.153.416.931.27 1.723.65 2.376 1.14.653.483 1.151 1.051 1.492 1.704.348.647.522 1.35.522 2.11V551h-5.498v-2.301h-.127c-.327.611-.725 1.104-1.194 1.481a4.38 4.38 0 0 1-1.587.82 7.016 7.016 0 0 1-1.95.256Zm1.918-3.708c.448 0 .867-.092 1.257-.277a2.42 2.42 0 0 0 .97-.799c.248-.348.372-.77.372-1.267v-1.364a6.863 6.863 0 0 1-.5.181 9.603 9.603 0 0 1-1.172.298c-.213.043-.437.082-.671.118-.455.071-.828.188-1.119.351a1.658 1.658 0 0 0-.639.586 1.472 1.472 0 0 0-.202.767c0 .455.159.803.479 1.044.32.242.728.362 1.225.362Zm17.128-5.753V551h-5.881v-16.364h5.583v3.111h.17c.355-1.037.98-1.85 1.875-2.439.902-.59 1.953-.885 3.154-.885 1.157 0 2.162.267 3.015.799a5.313 5.313 0 0 1 1.992 2.174c.476.923.71 1.978.703 3.164V551h-5.881v-9.205c.007-.809-.199-1.445-.618-1.907-.412-.461-.987-.692-1.726-.692-.483 0-.905.107-1.267.32a2.05 2.05 0 0 0-.821.895c-.191.383-.291.845-.298 1.384Zm21.397 15.682c-1.64 0-3.046-.234-4.218-.703-1.165-.462-2.071-1.101-2.717-1.917a5.006 5.006 0 0 1-1.076-2.792h5.668c.057.348.199.629.426.842.227.213.518.366.873.458a4.61 4.61 0 0 0 1.215.149c.76 0 1.388-.184 1.886-.554.504-.369.756-1.037.756-2.003v-2.769h-.171a3.58 3.58 0 0 1-.98 1.416c-.44.384-.969.679-1.587.885a6.639 6.639 0 0 1-2.035.298 6.555 6.555 0 0 1-3.217-.81c-.973-.54-1.754-1.395-2.344-2.567-.582-1.172-.873-2.703-.873-4.592 0-1.974.305-3.579.916-4.815.618-1.236 1.413-2.141 2.386-2.717.98-.575 2.01-.863 3.09-.863.809 0 1.519.142 2.13.426.611.277 1.122.65 1.534 1.119.412.462.725.969.938 1.523h.128v-2.855h5.88v16.321c0 1.385-.358 2.561-1.076 3.527-.71.973-1.711 1.715-3.004 2.226-1.292.512-2.802.767-4.528.767Zm.214-10.866c.539 0 1.001-.149 1.384-.448.391-.305.689-.738.895-1.299.213-.569.32-1.25.32-2.046 0-.809-.107-1.502-.32-2.077-.206-.583-.504-1.027-.895-1.332-.383-.312-.845-.469-1.384-.469-.54 0-1.002.157-1.385.469-.377.305-.668.749-.874 1.332-.199.575-.298 1.268-.298 2.077 0 .81.099 1.499.298 2.067.206.561.497.991.874 1.289.383.291.845.437 1.385.437Z"/><path fill="#FF6D7F" d="M63.168 228c-.057-.71-.324-1.264-.8-1.662-.468-.398-1.182-.597-2.14-.597-.611 0-1.112.075-1.503.224-.383.142-.668.338-.852.586a1.45 1.45 0 0 0-.288.852 1.4 1.4 0 0 0 .139.714c.113.206.29.394.532.565a4.2 4.2 0 0 0 .927.447c.377.135.824.256 1.343.362l1.79.384c1.207.256 2.24.593 3.1 1.012.859.419 1.562.913 2.109 1.481a5.283 5.283 0 0 1 1.204 1.896c.263.703.397 1.47.404 2.301-.007 1.435-.365 2.649-1.075 3.644-.71.994-1.726 1.751-3.047 2.269-1.314.518-2.894.778-4.741.778-1.896 0-3.551-.281-4.965-.842-1.406-.561-2.5-1.424-3.28-2.589-.775-1.172-1.166-2.67-1.173-4.495h5.625c.036.667.203 1.228.501 1.683.298.454.717.799 1.257 1.033.547.235 1.197.352 1.95.352.632 0 1.16-.078 1.587-.235.426-.156.75-.373.97-.65.22-.276.333-.593.34-.948a1.345 1.345 0 0 0-.33-.873c-.206-.256-.547-.483-1.023-.682-.475-.206-1.118-.398-1.928-.575l-2.173-.469c-1.932-.419-3.455-1.119-4.57-2.099-1.108-.987-1.659-2.333-1.652-4.037-.007-1.385.363-2.596 1.108-3.633.753-1.044 1.793-1.858 3.122-2.44 1.335-.582 2.865-.873 4.591-.873 1.762 0 3.285.294 4.57.884 1.286.589 2.277 1.42 2.973 2.493.703 1.065 1.058 2.311 1.065 3.739h-5.667Zm8.219-6.818h7.372l5.07 12.358h.257l5.07-12.358h7.373V243h-5.796v-12.614h-.17l-4.858 12.444H82.21l-4.858-12.529h-.17V243h-5.796v-21.818ZM117.074 228c-.057-.71-.323-1.264-.799-1.662-.469-.398-1.183-.597-2.141-.597-.611 0-1.112.075-1.503.224-.383.142-.667.338-.852.586-.185.249-.28.533-.288.852-.014.263.032.501.139.714.114.206.291.394.533.565.241.163.55.312.926.447.377.135.824.256 1.343.362l1.79.384c1.207.256 2.24.593 3.1 1.012.859.419 1.562.913 2.109 1.481a5.285 5.285 0 0 1 1.204 1.896 6.68 6.68 0 0 1 .405 2.301c-.007 1.435-.366 2.649-1.076 3.644-.71.994-1.726 1.751-3.047 2.269-1.314.518-2.894.778-4.741.778-1.896 0-3.551-.281-4.964-.842-1.407-.561-2.5-1.424-3.282-2.589-.774-1.172-1.164-2.67-1.171-4.495h5.625c.035.667.202 1.228.5 1.683.299.454.718.799 1.257 1.033.547.235 1.197.352 1.95.352.632 0 1.161-.078 1.587-.235.426-.156.75-.373.97-.65.22-.276.334-.593.341-.948a1.346 1.346 0 0 0-.331-.873c-.206-.256-.546-.483-1.022-.682-.476-.206-1.119-.398-1.929-.575l-2.173-.469c-1.932-.419-3.455-1.119-4.57-2.099-1.108-.987-1.659-2.333-1.652-4.037-.007-1.385.363-2.596 1.108-3.633.753-1.044 1.794-1.858 3.122-2.44 1.335-.582 2.866-.873 4.592-.873 1.761 0 3.284.294 4.57.884 1.285.589 2.276 1.42 2.972 2.493.703 1.065 1.058 2.311 1.065 3.739h-5.667Zm14.185 5.795V243h-5.881v-21.818h5.668v8.565h.17c.37-1.044.984-1.857 1.843-2.439.86-.59 1.893-.885 3.1-.885 1.158 0 2.163.263 3.015.789a5.305 5.305 0 0 1 1.993 2.173c.475.923.71 1.981.703 3.175V243h-5.881v-9.205c.007-.809-.195-1.445-.607-1.907-.405-.461-.984-.692-1.737-.692-.476 0-.895.107-1.257.32a2.114 2.114 0 0 0-.831.895c-.192.383-.291.845-.298 1.384ZM144.773 243v-16.364h5.88V243h-5.88Zm2.94-18.068c-.795 0-1.477-.263-2.045-.789-.569-.525-.853-1.157-.853-1.896 0-.738.284-1.371.853-1.896.568-.526 1.25-.789 2.045-.789.803 0 1.484.263 2.046.789.568.525.852 1.158.852 1.896 0 .739-.284 1.371-.852 1.896-.562.526-1.243.789-2.046.789Zm11.817 8.863V243h-5.88v-16.364h5.582v3.111h.171c.355-1.037.98-1.85 1.875-2.439.902-.59 1.953-.885 3.153-.885 1.158 0 2.163.267 3.015.799a5.313 5.313 0 0 1 1.992 2.174c.476.923.71 1.978.703 3.164V243h-5.881v-9.205c.008-.809-.198-1.445-.617-1.907-.412-.461-.988-.692-1.726-.692-.483 0-.906.107-1.268.32a2.043 2.043 0 0 0-.82.895c-.192.383-.292.845-.299 1.384ZM173.044 243v-16.364h5.583v3.111h.17c.341-1.023.923-1.832 1.747-2.429.824-.596 1.804-.895 2.941-.895 1.15 0 2.141.306 2.972.916.831.604 1.332 1.407 1.502 2.408h.17c.277-1.001.867-1.804 1.769-2.408.902-.61 1.96-.916 3.175-.916 1.569 0 2.841.505 3.814 1.513.98 1.009 1.47 2.351 1.47 4.027V243h-5.881v-9.545c0-.718-.181-1.279-.543-1.684-.363-.412-.849-.618-1.46-.618-.604 0-1.083.206-1.438.618-.348.405-.522.966-.522 1.684V243h-5.625v-9.545c0-.718-.181-1.279-.543-1.684-.363-.412-.849-.618-1.46-.618-.405 0-.753.093-1.044.277a1.854 1.854 0 0 0-.682.799c-.156.341-.234.75-.234 1.226V243h-5.881Zm31.207 6.136c-.675 0-1.318-.053-1.929-.159a8.145 8.145 0 0 1-1.608-.416l1.278-4.176c.483.17.923.28 1.321.33.405.05.75.022 1.034-.085.291-.107.5-.309.628-.607l.128-.299-5.753-17.088h6.137l2.642 11.336h.17l2.685-11.336h6.179l-5.966 17.728a7.869 7.869 0 0 1-1.3 2.429c-.561.724-1.3 1.296-2.216 1.715-.916.419-2.06.628-3.43.628Zm21.927-5.838c-1.747 0-3.253-.334-4.517-1.001a7.015 7.015 0 0 1-2.908-2.898c-.675-1.264-1.012-2.777-1.012-4.538 0-1.691.34-3.168 1.022-4.432a7.31 7.31 0 0 1 2.887-2.951c1.243-.703 2.71-1.055 4.4-1.055 1.236 0 2.355.192 3.356.576a7.041 7.041 0 0 1 2.568 1.672c.71.725 1.257 1.605 1.64 2.642.384 1.037.575 2.205.575 3.505v1.364h-14.616v-3.239h9.205a2.259 2.259 0 0 0-.363-1.236 2.305 2.305 0 0 0-.927-.841 2.723 2.723 0 0 0-1.31-.309c-.476 0-.913.103-1.31.309a2.473 2.473 0 0 0-.959.831c-.234.355-.359.77-.373 1.246v3.495c0 .525.11.994.33 1.406.22.412.537.735.948.969.412.235.91.352 1.492.352.405 0 .774-.057 1.108-.171.341-.113.632-.277.873-.49.242-.22.419-.483.533-.788h5.369c-.184 1.136-.621 2.123-1.31 2.962-.689.831-1.601 1.477-2.738 1.938-1.129.455-2.45.682-3.963.682Zm18.295 0c-1.776 0-3.296-.351-4.56-1.054a7.256 7.256 0 0 1-2.908-2.962c-.675-1.271-1.012-2.745-1.012-4.421 0-1.676.337-3.147 1.012-4.411a7.164 7.164 0 0 1 2.908-2.961c1.264-.711 2.784-1.066 4.56-1.066 1.775 0 3.295.355 4.559 1.066a7.167 7.167 0 0 1 2.909 2.961c.674 1.264 1.012 2.735 1.012 4.411 0 1.676-.338 3.15-1.012 4.421a7.258 7.258 0 0 1-2.909 2.962c-1.264.703-2.784 1.054-4.559 1.054Zm.042-4.346c.497 0 .927-.167 1.289-.501.363-.334.643-.81.842-1.428.199-.617.298-1.353.298-2.205 0-.859-.099-1.594-.298-2.205-.199-.618-.479-1.094-.842-1.428a1.84 1.84 0 0 0-1.289-.5c-.525 0-.976.167-1.353.5-.376.334-.664.81-.863 1.428-.199.611-.298 1.346-.298 2.205 0 .852.099 1.588.298 2.205.199.618.487 1.094.863 1.428.377.334.828.501 1.353.501Zm16.705-5.157V243h-5.881v-16.364h5.583v3.111h.17c.355-1.037.98-1.85 1.875-2.439.902-.59 1.953-.885 3.153-.885 1.158 0 2.163.267 3.015.799a5.3 5.3 0 0 1 1.992 2.174c.476.923.711 1.978.704 3.164V243h-5.881v-9.205c.007-.809-.199-1.445-.618-1.907-.412-.461-.987-.692-1.726-.692-.483 0-.905.107-1.268.32a2.049 2.049 0 0 0-.82.895c-.192.383-.291.845-.298 1.384Zm21.397 15.682c-1.64 0-3.047-.234-4.219-.703-1.164-.462-2.07-1.101-2.716-1.917a5.006 5.006 0 0 1-1.076-2.792h5.667c.057.348.199.629.427.842.227.213.518.366.873.458.362.099.767.149 1.215.149.76 0 1.388-.184 1.885-.554.505-.369.757-1.037.757-2.003v-2.769h-.171a3.59 3.59 0 0 1-.98 1.416c-.44.384-.969.679-1.587.885a6.639 6.639 0 0 1-2.035.298 6.555 6.555 0 0 1-3.217-.81c-.973-.54-1.755-1.395-2.344-2.567-.583-1.172-.874-2.703-.874-4.592 0-1.974.306-3.579.916-4.815.618-1.236 1.414-2.141 2.387-2.717.98-.575 2.01-.863 3.089-.863.81 0 1.52.142 2.131.426.611.277 1.122.65 1.534 1.119.412.462.725.969.938 1.523h.127v-2.855h5.881v16.321c0 1.385-.359 2.561-1.076 3.527-.71.973-1.711 1.715-3.004 2.226-1.293.512-2.802.767-4.528.767Zm.213-10.866c.54 0 1.002-.149 1.385-.448.391-.305.689-.738.895-1.299.213-.569.32-1.25.32-2.046 0-.809-.107-1.502-.32-2.077-.206-.583-.504-1.027-.895-1.332-.383-.312-.845-.469-1.385-.469s-1.001.157-1.385.469c-.376.305-.667.749-.873 1.332-.199.575-.299 1.268-.299 2.077 0 .81.1 1.499.299 2.067.206.561.497.991.873 1.289.384.291.845.437 1.385.437Zm11.884-11.975h5.881v16.918c0 1.435-.302 2.557-.906 3.366-.596.81-1.434 1.382-2.514 1.716-1.079.333-2.34.5-3.782.5a15.045 15.045 0 0 1-1.193-.042v-4.347c.142.014.266.025.373.032.099.007.202.011.309.011.703 0 1.182-.11 1.438-.33.263-.214.394-.558.394-1.034v-16.79Zm2.94-1.704c-.795 0-1.477-.263-2.045-.789-.568-.525-.852-1.157-.852-1.896 0-.738.284-1.371.852-1.896.568-.526 1.25-.789 2.045-.789.803 0 1.485.263 2.046.789.568.525.852 1.158.852 1.896 0 .739-.284 1.371-.852 1.896-.561.526-1.243.789-2.046.789Zm13.821 18.366c-1.776 0-3.296-.351-4.56-1.054a7.256 7.256 0 0 1-2.908-2.962c-.675-1.271-1.013-2.745-1.013-4.421 0-1.676.338-3.147 1.013-4.411a7.164 7.164 0 0 1 2.908-2.961c1.264-.711 2.784-1.066 4.56-1.066 1.775 0 3.295.355 4.559 1.066a7.173 7.173 0 0 1 2.909 2.961c.674 1.264 1.012 2.735 1.012 4.411 0 1.676-.338 3.15-1.012 4.421a7.264 7.264 0 0 1-2.909 2.962c-1.264.703-2.784 1.054-4.559 1.054Zm.042-4.346c.497 0 .927-.167 1.289-.501.363-.334.643-.81.842-1.428.199-.617.298-1.353.298-2.205 0-.859-.099-1.594-.298-2.205-.199-.618-.479-1.094-.842-1.428a1.84 1.84 0 0 0-1.289-.5c-.525 0-.976.167-1.353.5-.376.334-.664.81-.863 1.428-.199.611-.298 1.346-.298 2.205 0 .852.099 1.588.298 2.205.199.618.487 1.094.863 1.428.377.334.828.501 1.353.501Z"/></svg>