<svg xmlns="http://www.w3.org/2000/svg" width="1920" height="1080" fill="none"><path fill="#1A73E8" d="M149.001 152.8v21.4h60.2c-4.8 40.8-27.6 70-70.4 92l14.8 20.2c61.2-31 82.2-78.4 82.2-133.6h-86.8Zm161.6 51.4h-25.8v-70.4h-26.4v184h26.4V226h25.8v-21.8ZM356.585 151.4h-26.4V273h16c26.8 0 56.4-1.6 87-8l-2.6-21.6c-25.8 5-50.8 7-74 7.6v-99.6Zm138 52h-25.8v-69.6h-26.4v184h26.4v-92.6h25.8v-21.8ZM541.97 172.4h59.6V151h-85.8v123.4h15.6c32 0 57.2-1 85-6l-2.6-21.8c-23.8 4-45.6 5.4-71.8 5.8v-80Zm137.6 29.6h-26.8v-68h-26.4v184.6h26.4v-94.8h26.8V202ZM726.154 220.8h58.4v-71.2h-84.6v21h58.6V200h-58.4v76h15.6c32 0 57.4-1.2 85-6.2l-2.4-21.4c-24 4.2-45.8 5.6-72.2 5.8v-33.4Zm137.4-17.4h-26.4v-69.6h-26.4v184.8h26.4v-93.4h26.4v-21.8ZM208.201 510h-36.2v-26.2h36.2V510Zm26-72.8h-26v26.2h-36.2v-26.2h-26v93.6h88.2v-93.6Zm-41 109h-26.4V605h125.4v-21h-99v-37.8Zm92.4-70.2v-52h-26.4v135.6h26.4v-62h24.4V476h-24.4ZM332.985 442.8v21.4h60.2c-4.8 40.8-27.6 70-70.4 92l14.8 20.2c61.2-31 82.2-78.4 82.2-133.6h-86.8Zm161.6 51.4h-25.8v-70.4h-26.4v184h26.4V516h25.8v-21.8ZM567.57 451.6c13 0 21.8 6.6 21.8 17.8 0 11.4-8.8 17.8-21.8 17.8s-22.2-6.4-22.2-17.8c0-11.2 9.2-17.8 22.2-17.8Zm0 55.6c27 0 46.6-15.4 46.6-37.8 0-22.2-19.6-37.8-46.6-37.8-27.2 0-46.8 15.6-46.8 37.8 0 22.4 19.6 37.8 46.8 37.8Zm58.8 4.8c-39.2 5.4-84.2 5.6-118.4 5.6l3 21.4c12.8 0 27.2 0 42.2-.6v64.4h26.4V537c16-1.2 32.2-2.8 48.4-5.8l-1.6-19.2Zm11.8-88v123.8h-37v20h37V608h26.4V424h-26.4ZM755.554 530.2c6.4 1.2 13 1.8 20.2 1.8 7.2 0 14-.6 20.4-1.8v35.2h-40.6v-35.2Zm20.2-76.4c25.6 0 42.8 10.4 42.8 28.8 0 18.2-17.2 28.8-42.8 28.8-25.6 0-42.6-10.6-42.6-28.8 0-18.4 17-28.8 42.6-28.8Zm46.6 111.6v-45c13.8-8.6 22.2-21.8 22.2-37.8 0-30.2-29-49.6-68.8-49.6-39.6 0-68.6 19.4-68.6 49.6-.2 16 8.2 29.2 22.2 37.8v45h-36.8v21.4h166.8v-21.4h-37ZM208.401 728.2h-26.6V755c0 34.2-14 69.4-45 84l15.8 21.4c20.8-10.2 34.6-29.6 42.6-53 7.6 22 20.6 39.8 39.8 49.6l16-20.8c-29.6-14.6-42.6-48-42.6-81.2v-26.8Zm103.2 56.6h-26.8V714h-26.4v184.2h26.4v-91.4h26.8v-22ZM331.185 760.6v56.8h15.8c36.8 0 60.2-.8 85.8-5.6l-2.2-21.2c-23 4.2-43.2 5.4-73.2 5.6v-16h57.6v-55.4h-84V746h58v14.6h-57.8Zm77.8 117.6c-24 0-36.4-4.6-36.4-14.8 0-10.2 12.4-14.8 36.4-14.8s36.4 4.6 36.4 14.8c0 10.2-12.4 14.8-36.4 14.8Zm0-49.8c-38.4 0-62.4 12.8-62.4 35 0 22 24 35 62.4 35s62.4-13 62.4-35c0-22.2-24-35-62.4-35Zm60.6-71.4v-42.8h-26.4v110.4h26.4v-46h24.4V757h-24.4ZM552.77 836.6c-10 0-17.2-8-17.2-21.8s7.2-22 17.2-22 17.2 8.2 17.2 22-7.2 21.8-17.2 21.8Zm0-65.8c-23.6 0-40.4 18.2-40.4 44 0 25.6 16.8 43.8 40.4 43.8 23.6 0 40.4-18.2 40.4-43.8 0-25.8-16.8-44-40.4-44Zm13-51.8h-26v22.8h-31.4v21h88v-21h-30.6V719Zm75.8-5.2V789h-14v-71.6h-24.6v173h24.6v-80.2h14V898h25V713.8h-25ZM755.554 820.2c6.4 1.2 13 1.8 20.2 1.8 7.2 0 14-.6 20.4-1.8v35.2h-40.6v-35.2Zm20.2-76.4c25.6 0 42.8 10.4 42.8 28.8 0 18.2-17.2 28.8-42.8 28.8-25.6 0-42.6-10.6-42.6-28.8 0-18.4 17-28.8 42.6-28.8Zm46.6 111.6v-45c13.8-8.6 22.2-21.8 22.2-37.8 0-30.2-29-49.6-68.8-49.6-39.6 0-68.6 19.4-68.6 49.6-.2 16 8.2 29.2 22.2 37.8v45h-36.8v21.4h166.8v-21.4h-37ZM1225.6 215H1199v90.8h-26.8V128.2h26.8v64.4h26.6V215Zm-163.4-72.8h83.4v30.2c0 15.334-2.33 28.4-7 39.2-4.67 10.667-12.27 20.534-22.8 29.6-10.4 8.934-25.07 18.6-44 29l-15.8-20.4c16.8-8.666 29.6-16.6 38.4-23.8 8.8-7.2 15-14.933 18.6-23.2 3.6-8.266 5.4-18.4 5.4-30.4v-7.6h-56.2v-22.6ZM1403.92 215h-26.6v90.8h-26.8V128.2h26.8v64.4h26.6V215Zm-68 15.4 3.2 21.8c-22.93 4.534-50.2 6.8-81.8 6.8h-18.4V142.4h26.6v94.2c26.93-.4 50.4-2.466 70.4-6.2ZM1582.24 215h-26.6v90.8h-26.8V128.2h26.8v64.4h26.6V215Zm-67.2 19.2 3.2 21.4c-10.8 2-22.6 3.6-35.4 4.8-12.67 1.067-27.87 1.6-45.6 1.6h-18.6V142.4h84v22.4h-57.2v75c27.47-.4 50.67-2.266 69.6-5.6ZM1760.56 215h-26.6v90.8h-26.8V128.2h26.8v64.4h26.6V215Zm-66.8 22 3.2 21.4c-11.33 2-23.2 3.534-35.6 4.6-12.27.934-27.6 1.4-46 1.4h-18.8v-75.6h56.6v-25.6h-57V141h83.6v69.6h-56.6v32c14.8-.133 27.6-.666 38.4-1.6a432.93 432.93 0 0 0 32.2-4ZM1225.8 477.8v22.4h-26.4V561h-26.8V428.2h26.8v49.6h26.4Zm-79.8 54.6h-86.8v-93.2h26v26.6h34.8v-26.6h26v93.2Zm-26-44.8h-34.8v22.8h34.8v-22.8Zm-8.4 99.8h92v22h-102c-11.33 0-17-5.666-17-17v-45h27v40ZM1403.92 515h-26.6v90.8h-26.8V428.2h26.8v64.4h26.6V515Zm-163.4-72.8h83.4v30.2c0 15.334-2.33 28.4-7 39.2-4.67 10.667-12.27 20.534-22.8 29.6-10.4 8.934-25.07 18.6-44 29l-15.8-20.4c16.8-8.666 29.6-16.6 38.4-23.8 8.8-7.2 15-14.933 18.6-23.2 3.6-8.266 5.4-18.4 5.4-30.4v-7.6h-56.2v-22.6ZM1567.84 428.2v177.6h-26.8v-36.6h-36.2v-21.4h36.2V428.2h26.8Zm-146.4 43.8c0-7.733 2.07-14.533 6.2-20.4 4.27-5.866 10.07-10.4 17.4-13.6 7.47-3.2 16-4.8 25.6-4.8 9.6 0 18.07 1.6 25.4 4.8 7.47 3.2 13.27 7.734 17.4 13.6 4.27 5.867 6.4 12.667 6.4 20.4 0 7.734-2.13 14.534-6.4 20.4-4.13 5.734-9.93 10.2-17.4 13.4-7.33 3.2-15.8 4.8-25.4 4.8-9.6 0-18.13-1.6-25.6-4.8-7.33-3.2-13.13-7.666-17.4-13.4-4.13-5.866-6.2-12.666-6.2-20.4Zm27.6 1.4c0 4.934 1.93 8.867 5.8 11.8 4 2.934 9.27 4.4 15.8 4.4 6.53 0 11.73-1.466 15.6-4.4 4-2.933 6-6.866 6-11.8v-3c0-4.933-2-8.866-6-11.8-3.87-2.933-9.07-4.4-15.6-4.4-6.53 0-11.8 1.467-15.8 4.4-3.87 2.934-5.8 6.867-5.8 11.8v3Zm34.6 67.6v63.2h-26.6v-61.8c-19.2.534-33.8.8-43.8.8l-2.2-22.4c22.67 0 44.53-.466 65.6-1.4 21.07-.933 38.27-2.333 51.6-4.2l2.4 21c-12.53 2-28.2 3.6-47 4.8ZM1608.16 482.8c0-9.2 2.4-17.4 7.2-24.6 4.93-7.333 12.27-13.066 22-17.2 9.87-4.266 21.8-6.4 35.8-6.4 14 0 25.87 2.134 35.6 6.4 9.87 4.134 17.2 9.867 22 17.2 4.93 7.2 7.4 15.4 7.4 24.6 0 9.2-2.47 17.467-7.4 24.8-4.8 7.334-12.07 13.134-21.8 17.4-9.73 4.134-21.67 6.2-35.8 6.2-14.13 0-26.07-2.066-35.8-6.2-9.73-4.266-17.07-10.066-22-17.4-4.8-7.333-7.2-15.6-7.2-24.8Zm29 2.6c0 7.334 3 13.267 9 17.8 6.13 4.4 15.13 6.6 27 6.6s20.8-2.2 26.8-6.6c6.13-4.533 9.2-10.466 9.2-17.8v-5c0-7.333-3.07-13.266-9.2-17.8-6-4.533-14.93-6.8-26.8-6.8-11.87 0-20.87 2.267-27 6.8-6 4.534-9 10.467-9 17.8v5Zm118.6 79v22.4h-165.2v-22.4h37.8v-29.2h26.4v29.2h36.8v-29.2h26.4v29.2h37.8ZM1225.6 815H1199v90.8h-26.8V728.2h26.8v64.4h26.6V815Zm-101.2-12.4c2.67 0 4.87 1.134 6.6 3.4l31.8 41.6-20.8 17.6-32.4-44.8c-.4-.8-1-1.2-1.8-1.2-.67 0-1.33.4-2 1.2-3.6 6.934-8.13 14.134-13.6 21.6-5.33 7.467-12.33 16.267-21 26.4l-20.6-17.4c14.93-16.4 25.6-31.2 32-44.4 6.53-13.333 9.8-28 9.8-44V740h27.2v22.4c0 16.667-2.73 32-8.2 46l1.2.6 4.8-3.8c2.13-1.733 4.47-2.6 7-2.6ZM1404.12 770.6V793h-26.6v43.6h-26.8V728.2h26.8v42.4h26.6Zm-66 57c-11.33 2-23.07 3.534-35.2 4.6-12 .934-27.07 1.4-45.2 1.4h-18.6v-60h57.2v-14.8h-57.6v-21.6h83.2v57.6h-57.2v17.4c14.8-.133 27.53-.667 38.2-1.6 10.8-.933 21.47-2.267 32-4l3.2 21Zm40.6 50.8c0 7.6-2.27 14.2-6.8 19.8-4.53 5.734-11.2 10.134-20 13.2-8.67 3.2-19.07 4.8-31.2 4.8-12.13 0-22.6-1.6-31.4-4.8-8.8-3.066-15.47-7.466-20-13.2-4.53-5.6-6.8-12.2-6.8-19.8 0-7.466 2.27-14 6.8-19.6 4.53-5.733 11.2-10.133 20-13.2 8.8-3.2 19.27-4.8 31.4-4.8 12.13 0 22.53 1.6 31.2 4.8 8.8 3.067 15.47 7.467 20 13.2 4.53 5.6 6.8 12.134 6.8 19.6Zm-28-1.2c0-4.666-2.47-8.466-7.4-11.4-4.93-2.933-12.47-4.4-22.6-4.4-10.27 0-17.87 1.467-22.8 4.4-4.93 2.934-7.4 6.734-7.4 11.4v2.8c0 4.534 2.47 8.267 7.4 11.2 5.07 2.934 12.67 4.4 22.8 4.4s17.67-1.466 22.6-4.4c4.93-2.933 7.4-6.666 7.4-11.2v-2.8ZM1569.44 728.2v177.6h-25.4v-88.4h-12.4V901h-25.2V730.8h25.2v64.6h12.4v-67.2h25.4Zm-86.2 35.4h-54.4v-21.8h54.4v21.8Zm-72.8 12.8h89.2v21h-18.8v1.4c8.67 5.467 13 15.4 13 29.8 0 12.4-3.47 22.267-10.4 29.6-6.93 7.2-16.27 10.8-28 10.8s-21.07-3.6-28-10.8c-6.93-7.333-10.4-17.2-10.4-29.6 0-13.867 4.2-23.733 12.6-29.6v-1.6h-19.2v-21Zm58.6 41c0-5.333-1.2-9.466-3.6-12.4-2.4-2.933-5.73-4.4-10-4.4s-7.6 1.467-10 4.4c-2.4 2.934-3.6 7.067-3.6 12.4v13.2c0 5.333 1.2 9.467 3.6 12.4 2.4 2.934 5.73 4.4 10 4.4s7.6-1.466 10-4.4c2.4-2.933 3.6-7.067 3.6-12.4v-13.2ZM1608.16 782.8c0-9.2 2.4-17.4 7.2-24.6 4.93-7.333 12.27-13.066 22-17.2 9.87-4.266 21.8-6.4 35.8-6.4 14 0 25.87 2.134 35.6 6.4 9.87 4.134 17.2 9.867 22 17.2 4.93 7.2 7.4 15.4 7.4 24.6 0 9.2-2.47 17.467-7.4 24.8-4.8 7.333-12.07 13.134-21.8 17.4-9.73 4.134-21.67 6.2-35.8 6.2-14.13 0-26.07-2.066-35.8-6.2-9.73-4.266-17.07-10.067-22-17.4-4.8-7.333-7.2-15.6-7.2-24.8Zm29 2.6c0 7.334 3 13.267 9 17.8 6.13 4.4 15.13 6.6 27 6.6s20.8-2.2 26.8-6.6c6.13-4.533 9.2-10.466 9.2-17.8v-5c0-7.333-3.07-13.267-9.2-17.8-6-4.533-14.93-6.8-26.8-6.8-11.87 0-20.87 2.267-27 6.8-6 4.533-9 10.467-9 17.8v5Zm118.6 79v22.4h-165.2v-22.4h37.8v-29.2h26.4v29.2h36.8v-29.2h26.4v29.2h37.8Z"/><path fill="#FF6D7F" d="M1344.24 1029h-3.49l7.85-21.82h3.8l7.85 21.82h-3.49l-6.17-17.86h-.17l-6.18 17.86Zm.59-8.54h11.33v2.77h-11.33v-2.77Zm30.26-7.82-5.93 16.36h-3.41l-5.94-16.36h3.42l4.14 12.59h.17l4.14-12.59h3.41Zm7.29 16.72c-1.04 0-1.97-.19-2.81-.57a4.72 4.72 0 0 1-1.99-1.7c-.49-.74-.73-1.64-.73-2.71 0-.93.18-1.69.54-2.28.35-.6.83-1.07 1.43-1.42.61-.35 1.28-.61 2.03-.79.74-.18 1.5-.31 2.28-.4.98-.12 1.77-.21 2.38-.28.61-.08 1.06-.2 1.34-.37.27-.17.41-.45.41-.83v-.08c0-.93-.26-1.65-.79-2.16-.52-.51-1.29-.77-2.32-.77-1.07 0-1.92.24-2.54.72-.61.46-1.03.99-1.26 1.56l-3-.68c.36-.99.88-1.8 1.56-2.41.69-.62 1.48-1.06 2.37-1.34.9-.28 1.84-.43 2.83-.43.65 0 1.34.08 2.08.24.73.15 1.42.42 2.06.83.65.4 1.18.98 1.59 1.74.41.74.62 1.71.62 2.9V1029h-3.11v-2.24h-.13c-.21.41-.52.82-.93 1.22-.41.39-.94.73-1.59.99-.64.26-1.42.39-2.32.39Zm.69-2.55c.89 0 1.64-.18 2.26-.53a3.59 3.59 0 0 0 1.94-3.18v-2.11c-.11.11-.33.22-.66.32-.32.09-.68.17-1.1.24-.41.07-.81.13-1.2.18-.39.05-.72.1-.98.13-.62.08-1.18.21-1.69.4-.51.18-.91.45-1.22.8-.3.34-.45.79-.45 1.36 0 .79.3 1.38.88 1.79.58.4 1.32.6 2.22.6Zm11.63 2.19v-16.36h3.19V1029h-3.19Zm1.61-18.89c-.56 0-1.03-.18-1.43-.55-.39-.38-.58-.83-.58-1.34 0-.53.19-.98.58-1.35.4-.37.87-.56 1.43-.56.55 0 1.02.19 1.42.56.39.37.59.82.59 1.35 0 .51-.2.96-.59 1.34-.4.37-.87.55-1.42.55Zm9.05-2.93V1029h-3.19v-21.82h3.19Zm9.04 22.18c-1.03 0-1.97-.19-2.81-.57a4.72 4.72 0 0 1-1.99-1.7c-.48-.74-.73-1.64-.73-2.71 0-.93.18-1.69.54-2.28.35-.6.83-1.07 1.44-1.42.6-.35 1.27-.61 2.02-.79.75-.18 1.51-.31 2.28-.4.98-.12 1.77-.21 2.39-.28.61-.08 1.05-.2 1.33-.37.27-.17.41-.45.41-.83v-.08c0-.93-.26-1.65-.79-2.16-.51-.51-1.29-.77-2.32-.77-1.07 0-1.92.24-2.53.72-.61.46-1.04.99-1.27 1.56l-2.99-.68c.35-.99.87-1.8 1.55-2.41.69-.62 1.48-1.06 2.38-1.34.89-.28 1.83-.43 2.82-.43.65 0 1.35.08 2.08.24.74.15 1.42.42 2.06.83.65.4 1.18.98 1.59 1.74.41.74.62 1.71.62 2.9V1029h-3.11v-2.24h-.13c-.21.41-.51.82-.93 1.22-.41.39-.94.73-1.58.99-.65.26-1.42.39-2.33.39Zm.7-2.55c.88 0 1.63-.18 2.25-.53.64-.34 1.12-.8 1.44-1.36.34-.57.5-1.18.5-1.82v-2.11c-.11.11-.33.22-.66.32-.32.09-.68.17-1.09.24-.42.07-.82.13-1.21.18-.39.05-.72.1-.98.13-.62.08-1.18.21-1.69.4-.51.18-.91.45-1.22.8-.3.34-.44.79-.44 1.36 0 .79.29 1.38.87 1.79.58.4 1.32.6 2.23.6Zm11.88 2.19v-21.82h3.18v8.11h.19c.19-.34.46-.74.8-1.18.35-.45.83-.84 1.45-1.18.62-.34 1.44-.51 2.45-.51 1.32 0 2.5.34 3.54 1 1.04.67 1.85 1.63 2.44 2.89.6 1.26.89 2.77.89 4.54s-.29 3.28-.88 4.55c-.59 1.26-1.4 2.23-2.43 2.91-1.03.67-2.2 1.01-3.53 1.01-.99 0-1.8-.17-2.44-.5-.62-.33-1.11-.73-1.47-1.17-.35-.45-.62-.85-.82-1.2h-.26v2.55h-3.11Zm3.12-8.18c0 1.15.17 2.16.5 3.02.33.87.82 1.55 1.45 2.04.63.48 1.4.72 2.32.72.95 0 1.75-.25 2.39-.75.64-.51 1.12-1.21 1.45-2.08.33-.87.5-1.86.5-2.95 0-1.08-.17-2.05-.49-2.91-.32-.86-.81-1.54-1.45-2.03-.64-.5-1.44-.75-2.4-.75-.92 0-1.7.24-2.34.71-.64.48-1.11 1.14-1.44 2-.33.85-.49 1.84-.49 2.98Zm18.59-13.64V1029h-3.19v-21.82h3.19Zm11.33 22.15c-1.61 0-3-.34-4.16-1.03-1.16-.7-2.05-1.68-2.69-2.93-.62-1.27-.93-2.75-.93-4.45 0-1.67.31-3.15.93-4.43.64-1.28 1.52-2.27 2.65-2.99 1.13-.72 2.46-1.08 3.98-1.08.92 0 1.82.16 2.68.46.87.31 1.65.79 2.34 1.44.69.65 1.23 1.5 1.63 2.55.4 1.03.59 2.29.59 3.78v1.13h-13v-2.39h9.88c0-.84-.17-1.58-.51-2.23-.34-.65-.82-1.16-1.44-1.54-.61-.38-1.32-.57-2.15-.57-.89 0-1.67.22-2.34.67-.66.43-1.17 1-1.54 1.7-.35.7-.53 1.45-.53 2.27v1.86c0 1.1.19 2.03.58 2.79.39.77.93 1.36 1.63 1.76.69.4 1.51.6 2.44.6.6 0 1.15-.09 1.65-.26.49-.17.92-.44 1.29-.79.36-.34.64-.77.83-1.28l3.01.54c-.24.89-.67 1.66-1.3 2.33-.62.66-1.39 1.18-2.33 1.55-.93.36-1.99.54-3.19.54Zm25.39 0c-1.53 0-2.87-.35-4.02-1.05-1.14-.71-2.03-1.69-2.66-2.96-.63-1.26-.95-2.74-.95-4.43 0-1.69.32-3.18.95-4.45.63-1.27 1.52-2.26 2.66-2.96 1.15-.71 2.49-1.06 4.02-1.06 1.54 0 2.87.35 4.02 1.06 1.14.7 2.03 1.69 2.66 2.96.63 1.27.95 2.76.95 4.45 0 1.69-.32 3.17-.95 4.43-.63 1.27-1.52 2.25-2.66 2.96-1.15.7-2.48 1.05-4.02 1.05Zm.01-2.67c1 0 1.82-.27 2.47-.79.66-.53 1.14-1.23 1.45-2.1.32-.87.48-1.84.48-2.89 0-1.04-.16-2-.48-2.87-.31-.89-.79-1.59-1.45-2.12-.65-.54-1.47-.8-2.47-.8-1 0-1.83.26-2.49.8-.65.53-1.14 1.23-1.46 2.12-.31.87-.47 1.83-.47 2.87 0 1.05.16 2.02.47 2.89.32.87.81 1.57 1.46 2.1.66.52 1.49.79 2.49.79Zm14.36-7.38v9.72h-3.19v-16.36h3.06v2.66h.2c.38-.87.97-1.56 1.77-2.09.81-.52 1.83-.79 3.06-.79 1.12 0 2.09.24 2.93.71.84.46 1.49 1.15 1.95 2.06.46.92.69 2.05.69 3.4V1029h-3.18v-10.02c0-1.19-.31-2.12-.93-2.79-.62-.67-1.47-1.01-2.55-1.01-.73 0-1.39.16-1.97.48-.57.32-1.02.79-1.35 1.41-.33.61-.49 1.35-.49 2.21Zm37.7-5.21c-.2-.64-.48-1.22-.83-1.73-.34-.52-.75-.96-1.22-1.32-.48-.37-1.02-.65-1.63-.84-.6-.2-1.27-.29-1.99-.29-1.23 0-2.34.31-3.33.95-.98.63-1.77 1.55-2.34 2.78-.57 1.21-.85 2.7-.85 4.46 0 1.77.28 3.26.86 4.49.57 1.22 1.36 2.14 2.36 2.78 1.01.63 2.15.94 3.42.94 1.19 0 2.22-.24 3.1-.72.89-.48 1.58-1.17 2.06-2.05.49-.88.74-1.93.74-3.13l.85.16h-6.24v-2.71h8.57v2.48c0 1.83-.39 3.42-1.17 4.77a7.968 7.968 0 0 1-3.22 3.11c-1.36.73-2.92 1.1-4.69 1.1-1.97 0-3.7-.46-5.19-1.37-1.49-.9-2.65-2.19-3.48-3.86-.83-1.68-1.24-3.67-1.24-5.97 0-1.74.24-3.3.72-4.69.48-1.38 1.16-2.56 2.04-3.52.88-.98 1.91-1.72 3.1-2.23 1.19-.52 2.49-.78 3.91-.78 1.17 0 2.27.18 3.29.53 1.02.34 1.93.84 2.72 1.48a8.334 8.334 0 0 1 3.06 5.18h-3.38Zm14.35 15.26c-1.54 0-2.88-.35-4.02-1.05-1.14-.71-2.03-1.69-2.66-2.96-.63-1.26-.95-2.74-.95-4.43 0-1.69.32-3.18.95-4.45.63-1.27 1.52-2.26 2.66-2.96 1.14-.71 2.48-1.06 4.02-1.06 1.53 0 2.87.35 4.01 1.06 1.15.7 2.03 1.69 2.67 2.96.63 1.27.94 2.76.94 4.45 0 1.69-.31 3.17-.94 4.43-.64 1.27-1.52 2.25-2.67 2.96-1.14.7-2.48 1.05-4.01 1.05Zm.01-2.67c.99 0 1.82-.27 2.47-.79.65-.53 1.14-1.23 1.45-2.1.32-.87.48-1.84.48-2.89 0-1.04-.16-2-.48-2.87-.31-.89-.8-1.59-1.45-2.12-.65-.54-1.48-.8-2.47-.8-1 0-1.83.26-2.5.8-.65.53-1.14 1.23-1.45 2.12-.32.87-.47 1.83-.47 2.87 0 1.05.15 2.02.47 2.89.31.87.8 1.57 1.45 2.1.67.52 1.5.79 2.5.79Zm18.06 2.67c-1.53 0-2.87-.35-4.01-1.05-1.15-.71-2.03-1.69-2.67-2.96-.63-1.26-.94-2.74-.94-4.43 0-1.69.31-3.18.94-4.45.64-1.27 1.52-2.26 2.67-2.96 1.14-.71 2.48-1.06 4.01-1.06 1.54 0 2.88.35 4.02 1.06 1.14.7 2.03 1.69 2.66 2.96.64 1.27.95 2.76.95 4.45 0 1.69-.31 3.17-.95 4.43-.63 1.27-1.52 2.25-2.66 2.96-1.14.7-2.48 1.05-4.02 1.05Zm.01-2.67c1 0 1.82-.27 2.48-.79.65-.53 1.13-1.23 1.44-2.1.32-.87.48-1.84.48-2.89 0-1.04-.16-2-.48-2.87-.31-.89-.79-1.59-1.44-2.12-.66-.54-1.48-.8-2.48-.8s-1.83.26-2.49.8c-.65.53-1.14 1.23-1.46 2.12-.31.87-.47 1.83-.47 2.87 0 1.05.16 2.02.47 2.89.32.87.81 1.57 1.46 2.1.66.52 1.49.79 2.49.79Zm18.04 8.82c-1.3 0-2.42-.17-3.36-.51-.93-.34-1.69-.8-2.28-1.36-.59-.56-1.03-1.17-1.32-1.84l2.74-1.13c.19.31.45.64.77.99.32.36.76.66 1.32.91s1.28.37 2.16.37c1.21 0 2.2-.29 2.99-.88.79-.59 1.19-1.52 1.19-2.8v-3.21h-.21c-.19.35-.47.73-.83 1.16-.35.42-.84.79-1.47 1.11-.62.31-1.44.46-2.44.46-1.29 0-2.46-.3-3.49-.9-1.03-.61-1.85-1.51-2.45-2.7-.6-1.19-.9-2.66-.9-4.4 0-1.74.3-3.23.89-4.47.59-1.24 1.41-2.19 2.45-2.86 1.03-.66 2.21-1 3.52-1 1.02 0 1.84.17 2.46.51.63.34 1.12.73 1.46 1.18.36.44.63.84.82 1.18h.24v-2.65h3.12v16.72c0 1.41-.33 2.56-.98 3.46-.65.91-1.54 1.57-2.65 2.01-1.11.43-2.36.65-3.75.65Zm-.03-9.37c.91 0 1.69-.21 2.32-.64.64-.43 1.12-1.05 1.45-1.85.33-.81.5-1.78.5-2.91 0-1.1-.17-2.07-.49-2.91-.33-.83-.81-1.49-1.44-1.96-.63-.47-1.41-.71-2.34-.71-.96 0-1.76.25-2.4.75-.64.49-1.12 1.15-1.45 2-.32.84-.48 1.79-.48 2.83 0 1.07.16 2.02.49 2.82.33.81.81 1.45 1.45 1.9.65.46 1.44.68 2.39.68Zm14.87-18.93V1029h-3.19v-21.82h3.19Zm11.34 22.15c-1.62 0-3.01-.34-4.17-1.03-1.16-.7-2.05-1.68-2.68-2.93-.63-1.27-.94-2.75-.94-4.45 0-1.67.31-3.15.94-4.43.63-1.28 1.51-2.27 2.64-2.99 1.13-.72 2.46-1.08 3.98-1.08.93 0 1.82.16 2.69.46.86.31 1.64.79 2.33 1.44.69.65 1.23 1.5 1.63 2.55.4 1.03.6 2.29.6 3.78v1.13h-13.01v-2.39h9.88c0-.84-.17-1.58-.51-2.23a3.93 3.93 0 0 0-1.43-1.54c-.62-.38-1.33-.57-2.16-.57-.89 0-1.67.22-2.34.67-.66.43-1.17 1-1.53 1.7-.36.7-.54 1.45-.54 2.27v1.86c0 1.1.19 2.03.58 2.79.39.77.93 1.36 1.63 1.76.69.4 1.51.6 2.44.6.6 0 1.15-.09 1.65-.26s.93-.44 1.29-.79c.36-.34.64-.77.83-1.28l3.01.54c-.24.89-.67 1.66-1.3 2.33-.61.66-1.39 1.18-2.33 1.55-.93.36-1.99.54-3.18.54Zm18.75-.33v-21.82h13.53v2.84h-10.24v6.64h9.27v2.83h-9.27v9.51h-3.29Zm23.01.33c-1.53 0-2.87-.35-4.02-1.05-1.14-.71-2.03-1.69-2.66-2.96-.63-1.26-.95-2.74-.95-4.43 0-1.69.32-3.18.95-4.45.63-1.27 1.52-2.26 2.66-2.96 1.15-.71 2.49-1.06 4.02-1.06 1.53 0 2.87.35 4.02 1.06 1.14.7 2.03 1.69 2.66 2.96.63 1.27.95 2.76.95 4.45 0 1.69-.32 3.17-.95 4.43-.63 1.27-1.52 2.25-2.66 2.96-1.15.7-2.49 1.05-4.02 1.05Zm.01-2.67c.99 0 1.82-.27 2.47-.79.66-.53 1.14-1.23 1.45-2.1.32-.87.48-1.84.48-2.89 0-1.04-.16-2-.48-2.87-.31-.89-.79-1.59-1.45-2.12-.65-.54-1.48-.8-2.47-.8-1 0-1.83.26-2.49.8-.66.53-1.14 1.23-1.46 2.12-.31.87-.47 1.83-.47 2.87 0 1.05.16 2.02.47 2.89.32.87.8 1.57 1.46 2.1.66.52 1.49.79 2.49.79Zm14.36-7.38v9.72h-3.19v-16.36h3.06v2.66h.2c.38-.87.97-1.56 1.77-2.09.81-.52 1.83-.79 3.06-.79 1.11 0 2.09.24 2.93.71.84.46 1.49 1.15 1.95 2.06.46.92.69 2.05.69 3.4V1029h-3.18v-10.02c0-1.19-.31-2.12-.93-2.79-.62-.67-1.47-1.01-2.55-1.01-.74 0-1.39.16-1.97.48-.57.32-1.02.79-1.35 1.41-.33.61-.49 1.35-.49 2.21Zm22.38-6.64v2.55h-8.94v-2.55h8.94Zm-6.54-3.92h3.19v15.48c0 .61.09 1.08.27 1.39.19.31.42.52.72.63.29.11.62.16.97.16.25 0 .47-.02.67-.05.19-.04.34-.07.44-.09l.58 2.63c-.19.07-.45.14-.79.22-.34.07-.77.12-1.28.12-.84.02-1.62-.13-2.34-.44-.73-.32-1.31-.8-1.76-1.45-.45-.66-.67-1.48-.67-2.46v-16.14Zm22.06 7.91-2.88.51c-.12-.37-.32-.72-.58-1.05-.25-.34-.6-.61-1.04-.82-.44-.22-.99-.32-1.65-.32-.91 0-1.66.2-2.26.61-.61.39-.91.91-.91 1.54 0 .55.2.99.61 1.32.4.33 1.06.61 1.96.82l2.6.6c1.5.35 2.63.88 3.36 1.61.74.72 1.11 1.66 1.11 2.82 0 .98-.28 1.85-.85 2.62-.56.76-1.35 1.36-2.35 1.79-1.01.43-2.17.65-3.49.65-1.83 0-3.32-.39-4.48-1.17-1.16-.79-1.87-1.91-2.13-3.36l3.08-.47c.19.81.58 1.41 1.18 1.83.59.4 1.37.6 2.33.6 1.05 0 1.88-.21 2.5-.65.63-.44.94-.97.94-1.61 0-.51-.19-.94-.57-1.28-.38-.35-.96-.62-1.74-.79l-2.77-.61c-1.53-.35-2.66-.9-3.39-1.66-.72-.76-1.08-1.72-1.08-2.89 0-.97.27-1.81.81-2.53.54-.73 1.28-1.29 2.23-1.7.95-.41 2.04-.62 3.27-.62 1.77 0 3.16.39 4.18 1.15 1.02.76 1.69 1.78 2.01 3.06ZM152.284 1007.18V1029h-4.943l-7.884-11.46h-.127V1029h-5.924v-21.82h5.029l7.755 11.42h.171v-11.42h5.923Zm10.771 22.12c-1.776 0-3.296-.35-4.56-1.06-1.264-.71-2.234-1.69-2.908-2.96-.675-1.27-1.012-2.74-1.012-4.42 0-1.68.337-3.15 1.012-4.41a7.15 7.15 0 0 1 2.908-2.96c1.264-.71 2.784-1.07 4.56-1.07 1.775 0 3.295.36 4.559 1.07a7.153 7.153 0 0 1 2.909 2.96c.674 1.26 1.012 2.73 1.012 4.41 0 1.68-.338 3.15-1.012 4.42a7.211 7.211 0 0 1-2.909 2.96c-1.264.71-2.784 1.06-4.559 1.06Zm.042-4.35c.497 0 .927-.17 1.289-.5.363-.33.643-.81.842-1.43.199-.61.298-1.35.298-2.2 0-.86-.099-1.6-.298-2.21-.199-.61-.479-1.09-.842-1.42a1.82 1.82 0 0 0-1.289-.51c-.525 0-.976.17-1.353.51-.376.33-.664.81-.863 1.42-.198.61-.298 1.35-.298 2.21 0 .85.1 1.59.298 2.2.199.62.487 1.1.863 1.43.377.33.828.5 1.353.5Zm20.583-12.31v4.26h-10.782v-4.26h10.782Zm-8.693-3.92h5.88v15.02c0 .22.039.42.117.57.078.15.199.27.363.34.163.07.372.11.628.11.178 0 .384-.02.618-.06.242-.05.419-.08.533-.11l.852 4.13c-.263.08-.639.18-1.129.29-.483.11-1.059.19-1.726.22-1.35.08-2.482-.06-3.399-.41-.916-.36-1.605-.91-2.066-1.67-.462-.76-.686-1.72-.671-2.86v-15.57Zm18.8 20.58c-1.775 0-3.295-.35-4.56-1.06a7.215 7.215 0 0 1-2.908-2.96c-.675-1.27-1.012-2.74-1.012-4.42 0-1.68.337-3.15 1.012-4.41a7.156 7.156 0 0 1 2.908-2.96c1.265-.71 2.785-1.07 4.56-1.07 1.776 0 3.296.36 4.56 1.07a7.156 7.156 0 0 1 2.908 2.96c.675 1.26 1.012 2.73 1.012 4.41 0 1.68-.337 3.15-1.012 4.42a7.215 7.215 0 0 1-2.908 2.96c-1.264.71-2.784 1.06-4.56 1.06Zm.043-4.35c.497 0 .927-.17 1.289-.5.362-.33.643-.81.841-1.43.199-.61.299-1.35.299-2.2 0-.86-.1-1.6-.299-2.21-.198-.61-.479-1.09-.841-1.42a1.82 1.82 0 0 0-1.289-.51c-.526 0-.977.17-1.353.51-.377.33-.664.81-.863 1.42-.199.61-.298 1.35-.298 2.21 0 .85.099 1.59.298 2.2.199.62.486 1.1.863 1.43.376.33.827.5 1.353.5Zm28.476-10.95c-.057-.71-.323-1.26-.799-1.66-.468-.4-1.182-.6-2.141-.6-.611 0-1.112.08-1.502.23-.384.14-.668.33-.852.58-.185.25-.281.53-.288.85-.014.27.032.5.138.72.114.2.292.39.533.56.242.17.55.31.927.45.376.13.824.25 1.342.36l1.79.39c1.207.25 2.241.59 3.1 1.01.86.42 1.563.91 2.11 1.48.546.56.948 1.19 1.203 1.89.263.71.398 1.47.405 2.31-.007 1.43-.366 2.64-1.076 3.64-.71.99-1.726 1.75-3.047 2.27-1.314.52-2.894.78-4.74.78-1.897 0-3.552-.28-4.965-.85-1.406-.56-2.5-1.42-3.281-2.58-.774-1.18-1.165-2.68-1.172-4.5h5.625c.035.67.202 1.23.501 1.68.298.46.717.8 1.257 1.04.547.23 1.196.35 1.949.35.632 0 1.162-.08 1.588-.24.426-.15.749-.37.969-.65.22-.27.334-.59.341-.94a1.354 1.354 0 0 0-.33-.88c-.206-.25-.547-.48-1.023-.68-.476-.21-1.119-.4-1.928-.58l-2.173-.46c-1.932-.42-3.456-1.12-4.571-2.1-1.108-.99-1.658-2.34-1.651-4.04-.007-1.39.362-2.6 1.108-3.63.753-1.05 1.793-1.86 3.121-2.44 1.336-.59 2.866-.88 4.592-.88 1.761 0 3.285.3 4.57.89 1.286.59 2.277 1.42 2.973 2.49.703 1.07 1.058 2.31 1.065 3.74h-5.668Zm12.864 15.26c-1.044 0-1.967-.17-2.77-.52a4.125 4.125 0 0 1-1.875-1.57c-.454-.71-.681-1.6-.681-2.69 0-.89.152-1.66.458-2.29.305-.64.731-1.16 1.278-1.56a5.875 5.875 0 0 1 1.907-.93c.732-.21 1.52-.35 2.365-.42.916-.07 1.651-.15 2.205-.25.561-.11.966-.25 1.215-.44a.9.9 0 0 0 .373-.75v-.05c0-.42-.164-.75-.49-.98-.327-.22-.746-.34-1.257-.34-.562 0-1.02.13-1.375.37-.348.25-.557.62-.628 1.12h-5.412c.071-.99.387-1.91.948-2.75.568-.84 1.396-1.52 2.482-2.02 1.087-.51 2.443-.77 4.07-.77 1.172 0 2.223.14 3.153.42.931.27 1.722.65 2.376 1.14.653.48 1.15 1.05 1.491 1.7.348.65.522 1.35.522 2.11V1029h-5.497v-2.3h-.128c-.326.61-.724 1.1-1.193 1.48-.461.38-.991.65-1.587.82-.59.17-1.239.26-1.95.26Zm1.918-3.71c.447 0 .866-.09 1.257-.28.398-.18.721-.45.969-.8.249-.35.373-.77.373-1.27v-1.36c-.156.06-.323.13-.5.18a6.48 6.48 0 0 1-.554.16c-.192.05-.398.1-.618.14-.213.04-.437.08-.671.12-.455.07-.828.19-1.119.35-.284.16-.497.35-.639.59a1.44 1.44 0 0 0-.203.76c0 .46.16.8.48 1.05.319.24.728.36 1.225.36Zm17.128-5.75v9.2h-5.881v-16.36h5.583v3.11h.17c.355-1.04.98-1.85 1.875-2.44.902-.59 1.953-.89 3.153-.89 1.158 0 2.163.27 3.015.8.86.53 1.524 1.25 1.993 2.18.475.92.71 1.97.703 3.16V1029h-5.881v-9.2c.007-.81-.199-1.45-.618-1.91-.412-.46-.987-.69-1.726-.69-.483 0-.905.1-1.267.32-.356.2-.629.5-.821.89-.192.38-.291.85-.298 1.39Zm28.471-1.84h-5.412a1.484 1.484 0 0 0-.351-.86 1.91 1.91 0 0 0-.799-.55 2.63 2.63 0 0 0-1.066-.21c-.504 0-.937.1-1.299.28-.363.19-.54.45-.533.79-.007.24.096.46.309.67.22.21.643.37 1.268.48l3.323.6c1.677.3 2.923.82 3.74 1.54.824.72 1.239 1.68 1.246 2.89-.007 1.16-.355 2.17-1.044 3.03-.682.86-1.616 1.52-2.802 1.99-1.179.46-2.524.69-4.037.69-2.5 0-4.457-.51-5.87-1.54-1.407-1.02-2.191-2.37-2.355-4.04h5.838c.079.51.334.92.767 1.2.441.28.995.42 1.662.42.54 0 .984-.1 1.332-.28.355-.19.536-.45.543-.79-.007-.31-.163-.56-.468-.75-.299-.18-.767-.33-1.407-.44l-2.897-.51c-1.669-.3-2.919-.85-3.75-1.67-.831-.81-1.243-1.86-1.236-3.15-.007-1.14.291-2.1.895-2.89.611-.79 1.481-1.4 2.61-1.81 1.136-.42 2.482-.63 4.037-.63 2.366 0 4.23.49 5.594 1.47 1.37.98 2.091 2.34 2.162 4.07Zm8.571 11.04v-21.82h5.923v8.82h.298l6.563-8.82h6.903l-7.372 9.72 7.543 12.1h-7.074l-4.901-8.18-1.96 2.56v5.62h-5.923Zm21.445 0v-21.82h9.418c1.619 0 3.036.3 4.25.89 1.215.59 2.16 1.43 2.834 2.54.675 1.11 1.012 2.44 1.012 3.99 0 1.56-.348 2.88-1.044 3.95-.689 1.07-1.658 1.88-2.908 2.43-1.243.54-2.695.82-4.357.82h-5.625v-4.6h4.431c.697 0 1.29-.09 1.78-.26.497-.18.877-.46 1.14-.84.269-.38.404-.89.404-1.5 0-.63-.135-1.14-.404-1.53a2.275 2.275 0 0 0-1.14-.87c-.49-.19-1.083-.29-1.78-.29h-2.088V1029h-5.923Zm12.784-10.01 5.455 10.01h-6.435l-5.327-10.01h6.307ZM1056.33 1007.18V1029h-5.92v-21.82h5.92Zm2.81 21.82v-21.82h9.46c1.66 0 3.05.23 4.18.67 1.14.45 2 1.08 2.57 1.9.58.82.87 1.78.87 2.89 0 .8-.17 1.53-.53 2.19-.35.66-.84 1.22-1.47 1.66-.63.44-1.37.75-2.21.92v.21c.93.04 1.79.28 2.55.72a4.89 4.89 0 0 1 1.84 1.8c.45.76.68 1.65.68 2.68 0 1.19-.32 2.26-.94 3.19-.62.93-1.5 1.66-2.64 2.19-1.15.53-2.51.8-4.09.8h-10.27Zm5.92-4.73h2.77c.99 0 1.74-.18 2.24-.55.49-.38.74-.93.74-1.67 0-.51-.11-.94-.35-1.3-.23-.35-.57-.62-1-.81-.43-.18-.94-.27-1.54-.27h-2.86v4.6Zm0-8.27h2.43c.52 0 .98-.08 1.37-.24.4-.17.71-.4.93-.71.23-.31.34-.69.34-1.14 0-.67-.24-1.18-.72-1.54-.49-.36-1.1-.54-1.84-.54h-2.51v4.17Zm14.12-8.82h7.37l5.07 12.36h.25l5.08-12.36h7.37V1029h-5.8v-12.61h-.17l-4.86 12.44H1090l-4.86-12.53h-.17v12.7h-5.79v-21.82Zm33.92 21.82v-21.82h9.42c1.62 0 3.04.32 4.25.96 1.21.64 2.16 1.54 2.83 2.7.68 1.15 1.02 2.51 1.02 4.05 0 1.57-.35 2.92-1.05 4.06-.69 1.15-1.66 2.03-2.91 2.65-1.24.61-2.69.92-4.35.92h-5.63v-4.6h4.43c.7 0 1.29-.12 1.78-.36.5-.25.88-.6 1.14-1.06.27-.45.41-.99.41-1.61 0-.62-.14-1.15-.41-1.59-.26-.45-.64-.79-1.14-1.03-.49-.24-1.08-.36-1.78-.36h-2.09V1029h-5.92Zm25.65-21.82V1029h-5.88v-21.82h5.88Zm10.84 22.12c-1.75 0-3.25-.34-4.51-1a7.013 7.013 0 0 1-2.91-2.9c-.68-1.27-1.02-2.78-1.02-4.54 0-1.69.35-3.17 1.03-4.43a7.242 7.242 0 0 1 2.88-2.95c1.25-.71 2.71-1.06 4.4-1.06 1.24 0 2.36.2 3.36.58 1 .38 1.86.94 2.57 1.67.71.73 1.25 1.61 1.64 2.64.38 1.04.57 2.21.57 3.51v1.36h-14.61v-3.24h9.2a2.28 2.28 0 0 0-.36-1.23c-.23-.36-.54-.65-.93-.84-.38-.21-.82-.31-1.31-.31-.47 0-.91.1-1.31.31-.4.19-.72.47-.96.83-.23.35-.36.77-.37 1.24v3.5c0 .52.11.99.33 1.4.22.42.54.74.95.97.41.24.91.35 1.49.35.4 0 .77-.05 1.11-.17.34-.11.63-.27.87-.49.24-.22.42-.48.53-.78h5.37c-.18 1.13-.62 2.12-1.31 2.96-.69.83-1.6 1.47-2.73 1.94-1.13.45-2.46.68-3.97.68Zm15.31-16.66 2.38 5.07 2.52-5.07h5.84l-4.39 8.18 4.6 8.18h-5.8l-2.77-5.2-2.68 5.2h-5.88l4.64-8.18-4.34-8.18h5.88Zm30.48 1.36c-.06-.71-.32-1.26-.8-1.66-.47-.4-1.18-.6-2.14-.6-.61 0-1.11.08-1.5.23-.39.14-.67.33-.85.58-.19.25-.28.53-.29.85-.02.27.03.5.14.72.11.2.29.39.53.56.24.17.55.31.93.45.37.13.82.25 1.34.36l1.79.39c1.21.25 2.24.59 3.1 1.01.86.42 1.56.91 2.11 1.48.54.56.95 1.19 1.2 1.89.26.71.4 1.47.41 2.31-.01 1.43-.37 2.64-1.08 3.64-.71.99-1.73 1.75-3.05 2.27-1.31.52-2.89.78-4.74.78-1.89 0-3.55-.28-4.96-.85-1.41-.56-2.5-1.42-3.28-2.58-.78-1.18-1.17-2.68-1.17-4.5h5.62c.04.67.2 1.23.5 1.68.3.46.72.8 1.26 1.04.54.23 1.19.35 1.95.35.63 0 1.16-.08 1.58-.24.43-.15.75-.37.97-.65.22-.27.34-.59.35-.94-.01-.34-.12-.63-.33-.88-.21-.25-.55-.48-1.03-.68-.47-.21-1.12-.4-1.93-.58l-2.17-.46c-1.93-.42-3.45-1.12-4.57-2.1-1.11-.99-1.66-2.34-1.65-4.04-.01-1.39.36-2.6 1.11-3.63.75-1.05 1.79-1.86 3.12-2.44 1.33-.59 2.86-.88 4.59-.88 1.76 0 3.28.3 4.57.89 1.29.59 2.28 1.42 2.97 2.49.71 1.07 1.06 2.31 1.07 3.74h-5.67Zm12.86 15.26c-1.04 0-1.96-.17-2.77-.52-.79-.34-1.42-.87-1.87-1.57-.45-.71-.68-1.6-.68-2.69 0-.89.15-1.66.46-2.29.3-.64.73-1.16 1.27-1.56.55-.41 1.19-.72 1.91-.93.73-.21 1.52-.35 2.37-.42.91-.07 1.65-.15 2.2-.25.56-.11.97-.25 1.22-.44a.92.92 0 0 0 .37-.75v-.05c0-.42-.16-.75-.49-.98-.33-.22-.75-.34-1.26-.34-.56 0-1.02.13-1.37.37-.35.25-.56.62-.63 1.12h-5.41c.07-.99.38-1.91.95-2.75.56-.84 1.39-1.52 2.48-2.02 1.08-.51 2.44-.77 4.07-.77 1.17 0 2.22.14 3.15.42.93.27 1.72.65 2.38 1.14.65.48 1.15 1.05 1.49 1.7.35.65.52 1.35.52 2.11V1029h-5.5v-2.3h-.13c-.32.61-.72 1.1-1.19 1.48a4.3 4.3 0 0 1-1.59.82c-.59.17-1.24.26-1.95.26Zm1.92-3.71c.45 0 .87-.09 1.26-.28.4-.18.72-.45.97-.8.25-.35.37-.77.37-1.27v-1.36c-.15.06-.32.13-.5.18-.17.06-.35.11-.55.16-.19.05-.4.1-.62.14-.21.04-.44.08-.67.12-.46.07-.83.19-1.12.35-.28.16-.5.35-.64.59-.13.22-.2.48-.2.76 0 .46.16.8.48 1.05.32.24.72.36 1.22.36Zm17.13-5.75v9.2h-5.88v-16.36h5.58v3.11h.17c.36-1.04.98-1.85 1.88-2.44.9-.59 1.95-.89 3.15-.89 1.16 0 2.16.27 3.02.8a5.38 5.38 0 0 1 1.99 2.18c.47.92.71 1.97.7 3.16V1029h-5.88v-9.2c.01-.81-.2-1.45-.62-1.91-.41-.46-.98-.69-1.72-.69-.49 0-.91.1-1.27.32-.36.2-.63.5-.82.89-.19.38-.29.85-.3 1.39Zm28.47-1.84h-5.41c-.03-.33-.15-.62-.35-.86-.21-.24-.47-.43-.8-.55-.32-.14-.68-.21-1.07-.21-.5 0-.93.1-1.3.28-.36.19-.54.45-.53.79-.01.24.1.46.31.67.22.21.64.37 1.27.48l3.32.6c1.68.3 2.92.82 3.74 1.54.82.72 1.24 1.68 1.25 2.89-.01 1.16-.36 2.17-1.05 3.03-.68.86-1.61 1.52-2.8 1.99-1.18.46-2.52.69-4.04.69-2.5 0-4.45-.51-5.87-1.54-1.4-1.02-2.19-2.37-2.35-4.04h5.84c.08.51.33.92.76 1.2.45.28 1 .42 1.67.42.54 0 .98-.1 1.33-.28.35-.19.53-.45.54-.79-.01-.31-.16-.56-.47-.75-.3-.18-.76-.33-1.4-.44l-2.9-.51c-1.67-.3-2.92-.85-3.75-1.67-.83-.81-1.24-1.86-1.24-3.15 0-1.14.29-2.1.9-2.89.61-.79 1.48-1.4 2.61-1.81 1.13-.42 2.48-.63 4.04-.63 2.36 0 4.23.49 5.59 1.47 1.37.98 2.09 2.34 2.16 4.07Zm8.57 11.04v-21.82h5.93v8.82h.29l6.57-8.82h6.9l-7.37 9.72 7.54 12.1h-7.07l-4.9-8.18-1.96 2.56v5.62h-5.93Zm21.45 0v-21.82h9.41c1.62 0 3.04.3 4.26.89 1.21.59 2.15 1.43 2.83 2.54.67 1.11 1.01 2.44 1.01 3.99 0 1.56-.35 2.88-1.04 3.95-.69 1.07-1.66 1.88-2.91 2.43-1.24.54-2.7.82-4.36.82h-5.62v-4.6h4.43c.69 0 1.29-.09 1.78-.26.49-.18.87-.46 1.14-.84.27-.38.4-.89.4-1.5 0-.63-.13-1.14-.4-1.53-.27-.39-.65-.69-1.14-.87-.49-.19-1.09-.29-1.78-.29h-2.09V1029h-5.92Zm12.78-10.01 5.46 10.01h-6.44l-5.33-10.01h6.31Z"/></svg>