<svg xmlns="http://www.w3.org/2000/svg" width="1920" height="1080" fill="none"><path fill="#1A73E8" d="M149.001 170.6V192h60.2c-4.8 40.8-27.6 70-70.4 92l14.8 20.2c61.2-31 82.2-78.4 82.2-133.6h-86.8Zm161.6 51.4h-25.8v-70.4h-26.4v184h26.4v-91.8h25.8V222ZM356.585 169.2h-26.4v121.6h16c26.8 0 56.4-1.6 87-8l-2.6-21.6c-25.8 5-50.8 7-74 7.6v-99.6Zm138 52h-25.8v-69.6h-26.4v184h26.4V243h25.8v-21.8ZM541.97 190.2h59.6v-21.4h-85.8v123.4h15.6c32 0 57.2-1 85-6l-2.6-21.8c-23.8 4-45.6 5.4-71.8 5.8v-80Zm137.6 29.6h-26.8v-68h-26.4v184.6h26.4v-94.8h26.8v-21.8ZM726.154 238.6h58.4v-71.2h-84.6v21h58.6v29.4h-58.4v76h15.6c32 0 57.4-1.2 85-6.2l-2.4-21.4c-24 4.2-45.8 5.6-72.2 5.8v-33.4Zm137.4-17.4h-26.4v-69.6h-26.4v184.8h26.4V243h26.4v-21.8ZM208.201 527.8h-36.2v-26.2h36.2v26.2Zm26-72.8h-26v26.2h-36.2V455h-26v93.6h88.2V455Zm-41 109h-26.4v58.8h125.4v-21h-99V564Zm92.4-70.2v-52h-26.4v135.6h26.4v-62h24.4v-21.6h-24.4ZM332.985 460.6V482h60.2c-4.8 40.8-27.6 70-70.4 92l14.8 20.2c61.2-31 82.2-78.4 82.2-133.6h-86.8Zm161.6 51.4h-25.8v-70.4h-26.4v184h26.4v-91.8h25.8V512ZM567.57 469.4c13 0 21.8 6.6 21.8 17.8 0 11.4-8.8 17.8-21.8 17.8s-22.2-6.4-22.2-17.8c0-11.2 9.2-17.8 22.2-17.8Zm0 55.6c27 0 46.6-15.4 46.6-37.8 0-22.2-19.6-37.8-46.6-37.8-27.2 0-46.8 15.6-46.8 37.8 0 22.4 19.6 37.8 46.8 37.8Zm58.8 4.8c-39.2 5.4-84.2 5.6-118.4 5.6l3 21.4c12.8 0 27.2 0 42.2-.6v64.4h26.4v-65.8c16-1.2 32.2-2.8 48.4-5.8l-1.6-19.2Zm11.8-88v123.8h-37v20h37v40.2h26.4v-184h-26.4ZM755.554 548c6.4 1.2 13 1.8 20.2 1.8 7.2 0 14-.6 20.4-1.8v35.2h-40.6V548Zm20.2-76.4c25.6 0 42.8 10.4 42.8 28.8 0 18.2-17.2 28.8-42.8 28.8-25.6 0-42.6-10.6-42.6-28.8 0-18.4 17-28.8 42.6-28.8Zm46.6 111.6v-45c13.8-8.6 22.2-21.8 22.2-37.8 0-30.2-29-49.6-68.8-49.6-39.6 0-68.6 19.4-68.6 49.6-.2 16 8.2 29.2 22.2 37.8v45h-36.8v21.4h166.8v-21.4h-37ZM208.401 746h-26.6v26.8c0 34.2-14 69.4-45 84l15.8 21.4c20.8-10.2 34.6-29.6 42.6-53 7.6 22 20.6 39.8 39.8 49.6l16-20.8c-29.6-14.6-42.6-48-42.6-81.2V746Zm103.2 56.6h-26.8v-70.8h-26.4V916h26.4v-91.4h26.8v-22ZM331.185 778.4v56.8h15.8c36.8 0 60.2-.8 85.8-5.6l-2.2-21.2c-23 4.2-43.2 5.4-73.2 5.6v-16h57.6v-55.4h-84v21.2h58v14.6h-57.8Zm77.8 117.6c-24 0-36.4-4.6-36.4-14.8 0-10.2 12.4-14.8 36.4-14.8s36.4 4.6 36.4 14.8c0 10.2-12.4 14.8-36.4 14.8Zm0-49.8c-38.4 0-62.4 12.8-62.4 35 0 22 24 35 62.4 35s62.4-13 62.4-35c0-22.2-24-35-62.4-35Zm60.6-71.4V732h-26.4v110.4h26.4v-46h24.4v-21.6h-24.4ZM552.77 854.4c-10 0-17.2-8-17.2-21.8s7.2-22 17.2-22 17.2 8.2 17.2 22-7.2 21.8-17.2 21.8Zm0-65.8c-23.6 0-40.4 18.2-40.4 44 0 25.6 16.8 43.8 40.4 43.8 23.6 0 40.4-18.2 40.4-43.8 0-25.8-16.8-44-40.4-44Zm13-51.8h-26v22.8h-31.4v21h88v-21h-30.6v-22.8Zm75.8-5.2v75.2h-14v-71.6h-24.6v173h24.6V828h14v87.8h25V731.6h-25ZM755.554 838c6.4 1.2 13 1.8 20.2 1.8 7.2 0 14-.6 20.4-1.8v35.2h-40.6V838Zm20.2-76.4c25.6 0 42.8 10.4 42.8 28.8 0 18.2-17.2 28.8-42.8 28.8-25.6 0-42.6-10.6-42.6-28.8 0-18.4 17-28.8 42.6-28.8Zm46.6 111.6v-45c13.8-8.6 22.2-21.8 22.2-37.8 0-30.2-29-49.6-68.8-49.6-39.6 0-68.6 19.4-68.6 49.6-.2 16 8.2 29.2 22.2 37.8v45h-36.8v21.4h166.8v-21.4h-37ZM1225.6 232.8H1199v90.8h-26.8V146h26.8v64.4h26.6v22.4ZM1062.2 160h83.4v30.2c0 15.333-2.33 28.4-7 39.2-4.67 10.667-12.27 20.533-22.8 29.6-10.4 8.933-25.07 18.6-44 29l-15.8-20.4c16.8-8.667 29.6-16.6 38.4-23.8 8.8-7.2 15-14.933 18.6-23.2 3.6-8.267 5.4-18.4 5.4-30.4v-7.6h-56.2V160ZM1403.92 232.8h-26.6v90.8h-26.8V146h26.8v64.4h26.6v22.4Zm-68 15.4 3.2 21.8c-22.93 4.533-50.2 6.8-81.8 6.8h-18.4V160.2h26.6v94.2c26.93-.4 50.4-2.467 70.4-6.2ZM1582.24 232.8h-26.6v90.8h-26.8V146h26.8v64.4h26.6v22.4Zm-67.2 19.2 3.2 21.4c-10.8 2-22.6 3.6-35.4 4.8-12.67 1.067-27.87 1.6-45.6 1.6h-18.6V160.2h84v22.4h-57.2v75c27.47-.4 50.67-2.267 69.6-5.6ZM1760.56 232.8h-26.6v90.8h-26.8V146h26.8v64.4h26.6v22.4Zm-66.8 22 3.2 21.4c-11.33 2-23.2 3.533-35.6 4.6-12.27.933-27.6 1.4-46 1.4h-18.8v-75.6h56.6V181h-57v-22.2h83.6v69.6h-56.6v32c14.8-.133 27.6-.667 38.4-1.6a433.46 433.46 0 0 0 32.2-4ZM1225.8 495.6V518h-26.4v60.8h-26.8V446h26.8v49.6h26.4Zm-79.8 54.6h-86.8V457h26v26.6h34.8V457h26v93.2Zm-26-44.8h-34.8v22.8h34.8v-22.8Zm-8.4 99.8h92v22h-102c-11.33 0-17-5.667-17-17v-45h27v40ZM1403.92 532.8h-26.6v90.8h-26.8V446h26.8v64.4h26.6v22.4Zm-163.4-72.8h83.4v30.2c0 15.333-2.33 28.4-7 39.2-4.67 10.667-12.27 20.533-22.8 29.6-10.4 8.933-25.07 18.6-44 29l-15.8-20.4c16.8-8.667 29.6-16.6 38.4-23.8 8.8-7.2 15-14.933 18.6-23.2 3.6-8.267 5.4-18.4 5.4-30.4v-7.6h-56.2V460ZM1567.84 446v177.6h-26.8V587h-36.2v-21.4h36.2V446h26.8Zm-146.4 43.8c0-7.733 2.07-14.533 6.2-20.4 4.27-5.867 10.07-10.4 17.4-13.6 7.47-3.2 16-4.8 25.6-4.8 9.6 0 18.07 1.6 25.4 4.8 7.47 3.2 13.27 7.733 17.4 13.6 4.27 5.867 6.4 12.667 6.4 20.4 0 7.733-2.13 14.533-6.4 20.4-4.13 5.733-9.93 10.2-17.4 13.4-7.33 3.2-15.8 4.8-25.4 4.8-9.6 0-18.13-1.6-25.6-4.8-7.33-3.2-13.13-7.667-17.4-13.4-4.13-5.867-6.2-12.667-6.2-20.4Zm27.6 1.4c0 4.933 1.93 8.867 5.8 11.8 4 2.933 9.27 4.4 15.8 4.4 6.53 0 11.73-1.467 15.6-4.4 4-2.933 6-6.867 6-11.8v-3c0-4.933-2-8.867-6-11.8-3.87-2.933-9.07-4.4-15.6-4.4-6.53 0-11.8 1.467-15.8 4.4-3.87 2.933-5.8 6.867-5.8 11.8v3Zm34.6 67.6V622h-26.6v-61.8c-19.2.533-33.8.8-43.8.8l-2.2-22.4c22.67 0 44.53-.467 65.6-1.4 21.07-.933 38.27-2.333 51.6-4.2l2.4 21c-12.53 2-28.2 3.6-47 4.8ZM1608.16 500.6c0-9.2 2.4-17.4 7.2-24.6 4.93-7.333 12.27-13.067 22-17.2 9.87-4.267 21.8-6.4 35.8-6.4 14 0 25.87 2.133 35.6 6.4 9.87 4.133 17.2 9.867 22 17.2 4.93 7.2 7.4 15.4 7.4 24.6 0 9.2-2.47 17.467-7.4 24.8-4.8 7.333-12.07 13.133-21.8 17.4-9.73 4.133-21.67 6.2-35.8 6.2-14.13 0-26.07-2.067-35.8-6.2-9.73-4.267-17.07-10.067-22-17.4-4.8-7.333-7.2-15.6-7.2-24.8Zm29 2.6c0 7.333 3 13.267 9 17.8 6.13 4.4 15.13 6.6 27 6.6s20.8-2.2 26.8-6.6c6.13-4.533 9.2-10.467 9.2-17.8v-5c0-7.333-3.07-13.267-9.2-17.8-6-4.533-14.93-6.8-26.8-6.8-11.87 0-20.87 2.267-27 6.8-6 4.533-9 10.467-9 17.8v5Zm118.6 79v22.4h-165.2v-22.4h37.8V553h26.4v29.2h36.8V553h26.4v29.2h37.8ZM1225.6 832.8H1199v90.8h-26.8V746h26.8v64.4h26.6v22.4Zm-101.2-12.4c2.67 0 4.87 1.133 6.6 3.4l31.8 41.6L1142 883l-32.4-44.8c-.4-.8-1-1.2-1.8-1.2-.67 0-1.33.4-2 1.2-3.6 6.933-8.13 14.133-13.6 21.6-5.33 7.467-12.33 16.267-21 26.4l-20.6-17.4c14.93-16.4 25.6-31.2 32-44.4 6.53-13.333 9.8-28 9.8-44v-22.6h27.2v22.4c0 16.667-2.73 32-8.2 46l1.2.6 4.8-3.8c2.13-1.733 4.47-2.6 7-2.6ZM1404.12 788.4v22.4h-26.6v43.6h-26.8V746h26.8v42.4h26.6Zm-66 57c-11.33 2-23.07 3.533-35.2 4.6-12 .933-27.07 1.4-45.2 1.4h-18.6v-60h57.2v-14.8h-57.6V755h83.2v57.6h-57.2V830c14.8-.133 27.53-.667 38.2-1.6 10.8-.933 21.47-2.267 32-4l3.2 21Zm40.6 50.8c0 7.6-2.27 14.2-6.8 19.8-4.53 5.733-11.2 10.133-20 13.2-8.67 3.2-19.07 4.8-31.2 4.8-12.13 0-22.6-1.6-31.4-4.8-8.8-3.067-15.47-7.467-20-13.2-4.53-5.6-6.8-12.2-6.8-19.8 0-7.467 2.27-14 6.8-19.6 4.53-5.733 11.2-10.133 20-13.2 8.8-3.2 19.27-4.8 31.4-4.8 12.13 0 22.53 1.6 31.2 4.8 8.8 3.067 15.47 7.467 20 13.2 4.53 5.6 6.8 12.133 6.8 19.6Zm-28-1.2c0-4.667-2.47-8.467-7.4-11.4s-12.47-4.4-22.6-4.4c-10.27 0-17.87 1.467-22.8 4.4-4.93 2.933-7.4 6.733-7.4 11.4v2.8c0 4.533 2.47 8.267 7.4 11.2 5.07 2.933 12.67 4.4 22.8 4.4s17.67-1.467 22.6-4.4c4.93-2.933 7.4-6.667 7.4-11.2V895ZM1569.44 746v177.6h-25.4v-88.4h-12.4v83.6h-25.2V748.6h25.2v64.6h12.4V746h25.4Zm-86.2 35.4h-54.4v-21.8h54.4v21.8Zm-72.8 12.8h89.2v21h-18.8v1.4c8.67 5.467 13 15.4 13 29.8 0 12.4-3.47 22.267-10.4 29.6-6.93 7.2-16.27 10.8-28 10.8s-21.07-3.6-28-10.8c-6.93-7.333-10.4-17.2-10.4-29.6 0-13.867 4.2-23.733 12.6-29.6v-1.6h-19.2v-21Zm58.6 41c0-5.333-1.2-9.467-3.6-12.4-2.4-2.933-5.73-4.4-10-4.4s-7.6 1.467-10 4.4c-2.4 2.933-3.6 7.067-3.6 12.4v13.2c0 5.333 1.2 9.467 3.6 12.4 2.4 2.933 5.73 4.4 10 4.4s7.6-1.467 10-4.4c2.4-2.933 3.6-7.067 3.6-12.4v-13.2ZM1608.16 800.6c0-9.2 2.4-17.4 7.2-24.6 4.93-7.333 12.27-13.067 22-17.2 9.87-4.267 21.8-6.4 35.8-6.4 14 0 25.87 2.133 35.6 6.4 9.87 4.133 17.2 9.867 22 17.2 4.93 7.2 7.4 15.4 7.4 24.6 0 9.2-2.47 17.467-7.4 24.8-4.8 7.333-12.07 13.133-21.8 17.4-9.73 4.133-21.67 6.2-35.8 6.2-14.13 0-26.07-2.067-35.8-6.2-9.73-4.267-17.07-10.067-22-17.4-4.8-7.333-7.2-15.6-7.2-24.8Zm29 2.6c0 7.333 3 13.267 9 17.8 6.13 4.4 15.13 6.6 27 6.6s20.8-2.2 26.8-6.6c6.13-4.533 9.2-10.467 9.2-17.8v-5c0-7.333-3.07-13.267-9.2-17.8-6-4.533-14.93-6.8-26.8-6.8-11.87 0-20.87 2.267-27 6.8-6 4.533-9 10.467-9 17.8v5Zm118.6 79v22.4h-165.2v-22.4h37.8V853h26.4v29.2h36.8V853h26.4v29.2h37.8Z"/></svg>