<svg width="1920" height="1080" viewBox="0 0 1920 1080" fill="none" xmlns="http://www.w3.org/2000/svg">
<path d="M149.001 152.8V174.2H209.201C204.401 215 181.601 244.2 138.801 266.2L153.601 286.4C214.801 255.4 235.801 208 235.801 152.8H149.001ZM310.601 204.2H284.801V133.8H258.401V317.8H284.801V226H310.601V204.2Z" fill="#1A73E8"/>
<path d="M356.585 151.4H330.185V273H346.185C372.985 273 402.585 271.4 433.185 265L430.585 243.4C404.785 248.4 379.785 250.4 356.585 251V151.4ZM494.585 203.4H468.785V133.8H442.385V317.8H468.785V225.2H494.585V203.4Z" fill="#1A73E8"/>
<path d="M541.97 172.4H601.57V151H515.77V274.4H531.37C563.37 274.4 588.57 273.4 616.37 268.4L613.77 246.6C589.97 250.6 568.17 252 541.97 252.4V172.4ZM679.57 202H652.77V134H626.37V318.6H652.77V223.8H679.57V202Z" fill="#1A73E8"/>
<path d="M726.154 220.8H784.554V149.6H699.954V170.6H758.554V200H700.154V276H715.754C747.754 276 773.154 274.8 800.754 269.8L798.354 248.4C774.354 252.6 752.554 254 726.154 254.2V220.8ZM863.554 203.4H837.154V133.8H810.754V318.6H837.154V225.2H863.554V203.4Z" fill="#1A73E8"/>
<path d="M208.201 510H172.001V483.8H208.201V510ZM234.201 437.2H208.201V463.4H172.001V437.2H146.001V530.8H234.201V437.2ZM193.201 546.2H166.801V605H292.201V584H193.201V546.2ZM285.601 476V424H259.201V559.6H285.601V497.6H310.001V476H285.601Z" fill="#1A73E8"/>
<path d="M332.985 442.8V464.2H393.185C388.385 505 365.585 534.2 322.785 556.2L337.585 576.4C398.785 545.4 419.785 498 419.785 442.8H332.985ZM494.585 494.2H468.785V423.8H442.385V607.8H468.785V516H494.585V494.2Z" fill="#1A73E8"/>
<path d="M567.57 451.6C580.57 451.6 589.37 458.2 589.37 469.4C589.37 480.8 580.57 487.2 567.57 487.2C554.57 487.2 545.37 480.8 545.37 469.4C545.37 458.2 554.57 451.6 567.57 451.6ZM567.57 507.2C594.57 507.2 614.17 491.8 614.17 469.4C614.17 447.2 594.57 431.6 567.57 431.6C540.37 431.6 520.77 447.2 520.77 469.4C520.77 491.8 540.37 507.2 567.57 507.2ZM626.37 512C587.17 517.4 542.17 517.6 507.97 517.6L510.97 539C523.77 539 538.17 539 553.17 538.4V602.8H579.57V537C595.57 535.8 611.77 534.2 627.97 531.2L626.37 512ZM638.17 424V547.8H601.17V567.8H638.17V608H664.57V424H638.17Z" fill="#1A73E8"/>
<path d="M755.554 530.2C761.954 531.4 768.554 532 775.754 532C782.954 532 789.754 531.4 796.154 530.2V565.4H755.554V530.2ZM775.754 453.8C801.354 453.8 818.554 464.2 818.554 482.6C818.554 500.8 801.354 511.4 775.754 511.4C750.154 511.4 733.154 500.8 733.154 482.6C733.154 464.2 750.154 453.8 775.754 453.8ZM822.354 565.4V520.4C836.154 511.8 844.554 498.6 844.554 482.6C844.554 452.4 815.554 433 775.754 433C736.154 433 707.154 452.4 707.154 482.6C706.954 498.6 715.354 511.8 729.354 520.4V565.4H692.554V586.8H859.354V565.4H822.354Z" fill="#1A73E8"/>
<path d="M208.401 728.2H181.801V755C181.801 789.2 167.801 824.4 136.801 839L152.601 860.4C173.401 850.2 187.201 830.8 195.201 807.4C202.801 829.4 215.801 847.2 235.001 857L251.001 836.2C221.401 821.6 208.401 788.2 208.401 755V728.2ZM311.601 784.8H284.801V714H258.401V898.2H284.801V806.8H311.601V784.8Z" fill="#1A73E8"/>
<path d="M331.185 760.6V817.4H346.985C383.785 817.4 407.185 816.6 432.785 811.8L430.585 790.6C407.585 794.8 387.385 796 357.385 796.2V780.2H414.985V724.8H330.985V746H388.985V760.6H331.185ZM408.985 878.2C384.985 878.2 372.585 873.6 372.585 863.4C372.585 853.2 384.985 848.6 408.985 848.6C432.985 848.6 445.385 853.2 445.385 863.4C445.385 873.6 432.985 878.2 408.985 878.2ZM408.985 828.4C370.585 828.4 346.585 841.2 346.585 863.4C346.585 885.4 370.585 898.4 408.985 898.4C447.385 898.4 471.385 885.4 471.385 863.4C471.385 841.2 447.385 828.4 408.985 828.4ZM469.585 757V714.2H443.185V824.6H469.585V778.6H493.985V757H469.585Z" fill="#1A73E8"/>
<path d="M552.77 836.6C542.77 836.6 535.57 828.6 535.57 814.8C535.57 801 542.77 792.8 552.77 792.8C562.77 792.8 569.97 801 569.97 814.8C569.97 828.6 562.77 836.6 552.77 836.6ZM552.77 770.8C529.17 770.8 512.37 789 512.37 814.8C512.37 840.4 529.17 858.6 552.77 858.6C576.37 858.6 593.17 840.4 593.17 814.8C593.17 789 576.37 770.8 552.77 770.8ZM565.77 719H539.77V741.8H508.37V762.8H596.37V741.8H565.77V719ZM641.57 713.8V789H627.57V717.4H602.97V890.4H627.57V810.2H641.57V898H666.57V713.8H641.57Z" fill="#1A73E8"/>
<path d="M755.554 820.2C761.954 821.4 768.554 822 775.754 822C782.954 822 789.754 821.4 796.154 820.2V855.4H755.554V820.2ZM775.754 743.8C801.354 743.8 818.554 754.2 818.554 772.6C818.554 790.8 801.354 801.4 775.754 801.4C750.154 801.4 733.154 790.8 733.154 772.6C733.154 754.2 750.154 743.8 775.754 743.8ZM822.354 855.4V810.4C836.154 801.8 844.554 788.6 844.554 772.6C844.554 742.4 815.554 723 775.754 723C736.154 723 707.154 742.4 707.154 772.6C706.954 788.6 715.354 801.8 729.354 810.4V855.4H692.554V876.8H859.354V855.4H822.354Z" fill="#1A73E8"/>
<path d="M1225.6 215H1199V305.8H1172.2V128.2H1199V192.6H1225.6V215ZM1062.2 142.2H1145.6V172.4C1145.6 187.734 1143.27 200.8 1138.6 211.6C1133.93 222.267 1126.33 232.134 1115.8 241.2C1105.4 250.134 1090.73 259.8 1071.8 270.2L1056 249.8C1072.8 241.134 1085.6 233.2 1094.4 226C1103.2 218.8 1109.4 211.067 1113 202.8C1116.6 194.534 1118.4 184.4 1118.4 172.4V164.8H1062.2V142.2Z" fill="#1A73E8"/>
<path d="M1403.92 215H1377.32V305.8H1350.52V128.2H1377.32V192.6H1403.92V215ZM1335.92 230.4L1339.12 252.2C1316.19 256.734 1288.92 259 1257.32 259H1238.92V142.4H1265.52V236.6C1292.45 236.2 1315.92 234.134 1335.92 230.4Z" fill="#1A73E8"/>
<path d="M1582.24 215H1555.64V305.8H1528.84V128.2H1555.64V192.6H1582.24V215ZM1515.04 234.2L1518.24 255.6C1507.44 257.6 1495.64 259.2 1482.84 260.4C1470.17 261.467 1454.97 262 1437.24 262H1418.64V142.4H1502.64V164.8H1445.44V239.8C1472.91 239.4 1496.11 237.534 1515.04 234.2Z" fill="#1A73E8"/>
<path d="M1760.56 215H1733.96V305.8H1707.16V128.2H1733.96V192.6H1760.56V215ZM1693.76 237L1696.96 258.4C1685.63 260.4 1673.76 261.934 1661.36 263C1649.09 263.934 1633.76 264.4 1615.36 264.4H1596.56V188.8H1653.16V163.2H1596.16V141H1679.76V210.6H1623.16V242.6C1637.96 242.467 1650.76 241.934 1661.56 241C1672.36 240.067 1683.09 238.734 1693.76 237Z" fill="#1A73E8"/>
<path d="M1225.8 477.8V500.2H1199.4V561H1172.6V428.2H1199.4V477.8H1225.8ZM1146 532.4H1059.2V439.2H1085.2V465.8H1120V439.2H1146V532.4ZM1120 487.6H1085.2V510.4H1120V487.6ZM1111.6 587.4H1203.6V609.4H1101.6C1090.27 609.4 1084.6 603.734 1084.6 592.4V547.4H1111.6V587.4Z" fill="#1A73E8"/>
<path d="M1403.92 515H1377.32V605.8H1350.52V428.2H1377.32V492.6H1403.92V515ZM1240.52 442.2H1323.92V472.4C1323.92 487.734 1321.59 500.8 1316.92 511.6C1312.25 522.267 1304.65 532.134 1294.12 541.2C1283.72 550.134 1269.05 559.8 1250.12 570.2L1234.32 549.8C1251.12 541.134 1263.92 533.2 1272.72 526C1281.52 518.8 1287.72 511.067 1291.32 502.8C1294.92 494.534 1296.72 484.4 1296.72 472.4V464.8H1240.52V442.2Z" fill="#1A73E8"/>
<path d="M1567.84 428.2V605.8H1541.04V569.2H1504.84V547.8H1541.04V428.2H1567.84ZM1421.44 472C1421.44 464.267 1423.51 457.467 1427.64 451.6C1431.91 445.734 1437.71 441.2 1445.04 438C1452.51 434.8 1461.04 433.2 1470.64 433.2C1480.24 433.2 1488.71 434.8 1496.04 438C1503.51 441.2 1509.31 445.734 1513.44 451.6C1517.71 457.467 1519.84 464.267 1519.84 472C1519.84 479.734 1517.71 486.534 1513.44 492.4C1509.31 498.134 1503.51 502.6 1496.04 505.8C1488.71 509 1480.24 510.6 1470.64 510.6C1461.04 510.6 1452.51 509 1445.04 505.8C1437.71 502.6 1431.91 498.134 1427.64 492.4C1423.51 486.534 1421.44 479.734 1421.44 472ZM1449.04 473.4C1449.04 478.334 1450.97 482.267 1454.84 485.2C1458.84 488.134 1464.11 489.6 1470.64 489.6C1477.17 489.6 1482.37 488.134 1486.24 485.2C1490.24 482.267 1492.24 478.334 1492.24 473.4V470.4C1492.24 465.467 1490.24 461.534 1486.24 458.6C1482.37 455.667 1477.17 454.2 1470.64 454.2C1464.11 454.2 1458.84 455.667 1454.84 458.6C1450.97 461.534 1449.04 465.467 1449.04 470.4V473.4ZM1483.64 541V604.2H1457.04V542.4C1437.84 542.934 1423.24 543.2 1413.24 543.2L1411.04 520.8C1433.71 520.8 1455.57 520.334 1476.64 519.4C1497.71 518.467 1514.91 517.067 1528.24 515.2L1530.64 536.2C1518.11 538.2 1502.44 539.8 1483.64 541Z" fill="#1A73E8"/>
<path d="M1608.16 482.8C1608.16 473.6 1610.56 465.4 1615.36 458.2C1620.29 450.867 1627.63 445.134 1637.36 441C1647.23 436.734 1659.16 434.6 1673.16 434.6C1687.16 434.6 1699.03 436.734 1708.76 441C1718.63 445.134 1725.96 450.867 1730.76 458.2C1735.69 465.4 1738.16 473.6 1738.16 482.8C1738.16 492 1735.69 500.267 1730.76 507.6C1725.96 514.934 1718.69 520.734 1708.96 525C1699.23 529.134 1687.29 531.2 1673.16 531.2C1659.03 531.2 1647.09 529.134 1637.36 525C1627.63 520.734 1620.29 514.934 1615.36 507.6C1610.56 500.267 1608.16 492 1608.16 482.8ZM1637.16 485.4C1637.16 492.734 1640.16 498.667 1646.16 503.2C1652.29 507.6 1661.29 509.8 1673.16 509.8C1685.03 509.8 1693.96 507.6 1699.96 503.2C1706.09 498.667 1709.16 492.734 1709.16 485.4V480.4C1709.16 473.067 1706.09 467.134 1699.96 462.6C1693.96 458.067 1685.03 455.8 1673.16 455.8C1661.29 455.8 1652.29 458.067 1646.16 462.6C1640.16 467.134 1637.16 473.067 1637.16 480.4V485.4ZM1755.76 564.4V586.8H1590.56V564.4H1628.36V535.2H1654.76V564.4H1691.56V535.2H1717.96V564.4H1755.76Z" fill="#1A73E8"/>
<path d="M1225.6 815H1199V905.8H1172.2V728.2H1199V792.6H1225.6V815ZM1124.4 802.6C1127.07 802.6 1129.27 803.734 1131 806L1162.8 847.6L1142 865.2L1109.6 820.4C1109.2 819.6 1108.6 819.2 1107.8 819.2C1107.13 819.2 1106.47 819.6 1105.8 820.4C1102.2 827.334 1097.67 834.534 1092.2 842C1086.87 849.467 1079.87 858.267 1071.2 868.4L1050.6 851C1065.53 834.6 1076.2 819.8 1082.6 806.6C1089.13 793.267 1092.4 778.6 1092.4 762.6V740H1119.6V762.4C1119.6 779.067 1116.87 794.4 1111.4 808.4L1112.6 809L1117.4 805.2C1119.53 803.467 1121.87 802.6 1124.4 802.6Z" fill="#1A73E8"/>
<path d="M1404.12 770.6V793H1377.52V836.6H1350.72V728.2H1377.52V770.6H1404.12ZM1338.12 827.6C1326.79 829.6 1315.05 831.134 1302.92 832.2C1290.92 833.134 1275.85 833.6 1257.72 833.6H1239.12V773.6H1296.32V758.8H1238.72V737.2H1321.92V794.8H1264.72V812.2C1279.52 812.067 1292.25 811.533 1302.92 810.6C1313.72 809.667 1324.39 808.333 1334.92 806.6L1338.12 827.6ZM1378.72 878.4C1378.72 886 1376.45 892.6 1371.92 898.2C1367.39 903.934 1360.72 908.334 1351.92 911.4C1343.25 914.6 1332.85 916.2 1320.72 916.2C1308.59 916.2 1298.12 914.6 1289.32 911.4C1280.52 908.334 1273.85 903.934 1269.32 898.2C1264.79 892.6 1262.52 886 1262.52 878.4C1262.52 870.934 1264.79 864.4 1269.32 858.8C1273.85 853.067 1280.52 848.667 1289.32 845.6C1298.12 842.4 1308.59 840.8 1320.72 840.8C1332.85 840.8 1343.25 842.4 1351.92 845.6C1360.72 848.667 1367.39 853.067 1371.92 858.8C1376.45 864.4 1378.72 870.934 1378.72 878.4ZM1350.72 877.2C1350.72 872.534 1348.25 868.734 1343.32 865.8C1338.39 862.867 1330.85 861.4 1320.72 861.4C1310.45 861.4 1302.85 862.867 1297.92 865.8C1292.99 868.734 1290.52 872.534 1290.52 877.2V880C1290.52 884.534 1292.99 888.267 1297.92 891.2C1302.99 894.134 1310.59 895.6 1320.72 895.6C1330.85 895.6 1338.39 894.134 1343.32 891.2C1348.25 888.267 1350.72 884.534 1350.72 880V877.2Z" fill="#1A73E8"/>
<path d="M1569.44 728.2V905.8H1544.04V817.4H1531.64V901H1506.44V730.8H1531.64V795.4H1544.04V728.2H1569.44ZM1483.24 763.6H1428.84V741.8H1483.24V763.6ZM1410.44 776.4H1499.64V797.4H1480.84V798.8C1489.51 804.267 1493.84 814.2 1493.84 828.6C1493.84 841 1490.37 850.867 1483.44 858.2C1476.51 865.4 1467.17 869 1455.44 869C1443.71 869 1434.37 865.4 1427.44 858.2C1420.51 850.867 1417.04 841 1417.04 828.6C1417.04 814.733 1421.24 804.867 1429.64 799V797.4H1410.44V776.4ZM1469.04 817.4C1469.04 812.067 1467.84 807.934 1465.44 805C1463.04 802.067 1459.71 800.6 1455.44 800.6C1451.17 800.6 1447.84 802.067 1445.44 805C1443.04 807.934 1441.84 812.067 1441.84 817.4V830.6C1441.84 835.933 1443.04 840.067 1445.44 843C1447.84 845.934 1451.17 847.4 1455.44 847.4C1459.71 847.4 1463.04 845.934 1465.44 843C1467.84 840.067 1469.04 835.933 1469.04 830.6V817.4Z" fill="#1A73E8"/>
<path d="M1608.16 782.8C1608.16 773.6 1610.56 765.4 1615.36 758.2C1620.29 750.867 1627.63 745.134 1637.36 741C1647.23 736.734 1659.16 734.6 1673.16 734.6C1687.16 734.6 1699.03 736.734 1708.76 741C1718.63 745.134 1725.96 750.867 1730.76 758.2C1735.69 765.4 1738.16 773.6 1738.16 782.8C1738.16 792 1735.69 800.267 1730.76 807.6C1725.96 814.933 1718.69 820.734 1708.96 825C1699.23 829.134 1687.29 831.2 1673.16 831.2C1659.03 831.2 1647.09 829.134 1637.36 825C1627.63 820.734 1620.29 814.933 1615.36 807.6C1610.56 800.267 1608.16 792 1608.16 782.8ZM1637.16 785.4C1637.16 792.734 1640.16 798.667 1646.16 803.2C1652.29 807.6 1661.29 809.8 1673.16 809.8C1685.03 809.8 1693.96 807.6 1699.96 803.2C1706.09 798.667 1709.16 792.734 1709.16 785.4V780.4C1709.16 773.067 1706.09 767.133 1699.96 762.6C1693.96 758.067 1685.03 755.8 1673.16 755.8C1661.29 755.8 1652.29 758.067 1646.16 762.6C1640.16 767.133 1637.16 773.067 1637.16 780.4V785.4ZM1755.76 864.4V886.8H1590.56V864.4H1628.36V835.2H1654.76V864.4H1691.56V835.2H1717.96V864.4H1755.76Z" fill="#1A73E8"/>
<path d="M1344.24 1029H1340.75L1348.6 1007.18H1352.4L1360.25 1029H1356.76L1350.59 1011.14H1350.42L1344.24 1029ZM1344.83 1020.46H1356.16V1023.23H1344.83V1020.46ZM1375.09 1012.64L1369.16 1029H1365.75L1359.81 1012.64H1363.23L1367.37 1025.23H1367.54L1371.68 1012.64H1375.09ZM1382.38 1029.36C1381.34 1029.36 1380.41 1029.17 1379.57 1028.79C1378.73 1028.4 1378.07 1027.83 1377.58 1027.09C1377.09 1026.35 1376.85 1025.45 1376.85 1024.38C1376.85 1023.45 1377.03 1022.69 1377.39 1022.1C1377.74 1021.5 1378.22 1021.03 1378.82 1020.68C1379.43 1020.33 1380.1 1020.07 1380.85 1019.89C1381.59 1019.71 1382.35 1019.58 1383.13 1019.49C1384.11 1019.37 1384.9 1019.28 1385.51 1019.21C1386.12 1019.13 1386.57 1019.01 1386.85 1018.84C1387.12 1018.67 1387.26 1018.39 1387.26 1018.01V1017.93C1387.26 1017 1387 1016.28 1386.47 1015.77C1385.95 1015.26 1385.18 1015 1384.15 1015C1383.08 1015 1382.23 1015.24 1381.61 1015.72C1381 1016.18 1380.58 1016.71 1380.35 1017.28L1377.35 1016.6C1377.71 1015.61 1378.23 1014.8 1378.91 1014.19C1379.6 1013.57 1380.39 1013.13 1381.28 1012.85C1382.18 1012.57 1383.12 1012.42 1384.11 1012.42C1384.76 1012.42 1385.45 1012.5 1386.19 1012.66C1386.92 1012.81 1387.61 1013.08 1388.25 1013.49C1388.9 1013.89 1389.43 1014.47 1389.84 1015.23C1390.25 1015.97 1390.46 1016.94 1390.46 1018.13V1029H1387.35V1026.76H1387.22C1387.01 1027.17 1386.7 1027.58 1386.29 1027.98C1385.88 1028.37 1385.35 1028.71 1384.7 1028.97C1384.06 1029.23 1383.28 1029.36 1382.38 1029.36ZM1383.07 1026.81C1383.96 1026.81 1384.71 1026.63 1385.33 1026.28C1385.97 1025.94 1386.44 1025.48 1386.77 1024.92C1387.1 1024.35 1387.27 1023.74 1387.27 1023.1V1020.99C1387.16 1021.1 1386.94 1021.21 1386.61 1021.31C1386.29 1021.4 1385.93 1021.48 1385.51 1021.55C1385.1 1021.62 1384.7 1021.68 1384.31 1021.73C1383.92 1021.78 1383.59 1021.83 1383.33 1021.86C1382.71 1021.94 1382.15 1022.07 1381.64 1022.26C1381.13 1022.44 1380.73 1022.71 1380.42 1023.06C1380.12 1023.4 1379.97 1023.85 1379.97 1024.42C1379.97 1025.21 1380.27 1025.8 1380.85 1026.21C1381.43 1026.61 1382.17 1026.81 1383.07 1026.81ZM1394.7 1029V1012.64H1397.89V1029H1394.7ZM1396.31 1010.11C1395.75 1010.11 1395.28 1009.93 1394.88 1009.56C1394.49 1009.18 1394.3 1008.73 1394.3 1008.22C1394.3 1007.69 1394.49 1007.24 1394.88 1006.87C1395.28 1006.5 1395.75 1006.31 1396.31 1006.31C1396.86 1006.31 1397.33 1006.5 1397.73 1006.87C1398.12 1007.24 1398.32 1007.69 1398.32 1008.22C1398.32 1008.73 1398.12 1009.18 1397.73 1009.56C1397.33 1009.93 1396.86 1010.11 1396.31 1010.11ZM1405.36 1007.18V1029H1402.17V1007.18H1405.36ZM1414.4 1029.36C1413.37 1029.36 1412.43 1029.17 1411.59 1028.79C1410.75 1028.4 1410.09 1027.83 1409.6 1027.09C1409.12 1026.35 1408.87 1025.45 1408.87 1024.38C1408.87 1023.45 1409.05 1022.69 1409.41 1022.1C1409.76 1021.5 1410.24 1021.03 1410.85 1020.68C1411.45 1020.33 1412.12 1020.07 1412.87 1019.89C1413.62 1019.71 1414.38 1019.58 1415.15 1019.49C1416.13 1019.37 1416.92 1019.28 1417.54 1019.21C1418.15 1019.13 1418.59 1019.01 1418.87 1018.84C1419.14 1018.67 1419.28 1018.39 1419.28 1018.01V1017.93C1419.28 1017 1419.02 1016.28 1418.49 1015.77C1417.98 1015.26 1417.2 1015 1416.17 1015C1415.1 1015 1414.25 1015.24 1413.64 1015.72C1413.03 1016.18 1412.6 1016.71 1412.37 1017.28L1409.38 1016.6C1409.73 1015.61 1410.25 1014.8 1410.93 1014.19C1411.62 1013.57 1412.41 1013.13 1413.31 1012.85C1414.2 1012.57 1415.14 1012.42 1416.13 1012.42C1416.78 1012.42 1417.48 1012.5 1418.21 1012.66C1418.95 1012.81 1419.63 1013.08 1420.27 1013.49C1420.92 1013.89 1421.45 1014.47 1421.86 1015.23C1422.27 1015.97 1422.48 1016.94 1422.48 1018.13V1029H1419.37V1026.76H1419.24C1419.03 1027.17 1418.73 1027.58 1418.31 1027.98C1417.9 1028.37 1417.37 1028.71 1416.73 1028.97C1416.08 1029.23 1415.31 1029.36 1414.4 1029.36ZM1415.1 1026.81C1415.98 1026.81 1416.73 1026.63 1417.35 1026.28C1417.99 1025.94 1418.47 1025.48 1418.79 1024.92C1419.13 1024.35 1419.29 1023.74 1419.29 1023.1V1020.99C1419.18 1021.1 1418.96 1021.21 1418.63 1021.31C1418.31 1021.4 1417.95 1021.48 1417.54 1021.55C1417.12 1021.62 1416.72 1021.68 1416.33 1021.73C1415.94 1021.78 1415.61 1021.83 1415.35 1021.86C1414.73 1021.94 1414.17 1022.07 1413.66 1022.26C1413.15 1022.44 1412.75 1022.71 1412.44 1023.06C1412.14 1023.4 1412 1023.85 1412 1024.42C1412 1025.21 1412.29 1025.8 1412.87 1026.21C1413.45 1026.61 1414.19 1026.81 1415.1 1026.81ZM1426.98 1029V1007.18H1430.16V1015.29H1430.35C1430.54 1014.95 1430.81 1014.55 1431.15 1014.11C1431.5 1013.66 1431.98 1013.27 1432.6 1012.93C1433.22 1012.59 1434.04 1012.42 1435.05 1012.42C1436.37 1012.42 1437.55 1012.76 1438.59 1013.42C1439.63 1014.09 1440.44 1015.05 1441.03 1016.31C1441.63 1017.57 1441.92 1019.08 1441.92 1020.85C1441.92 1022.62 1441.63 1024.13 1441.04 1025.4C1440.45 1026.66 1439.64 1027.63 1438.61 1028.31C1437.58 1028.98 1436.41 1029.32 1435.08 1029.32C1434.09 1029.32 1433.28 1029.15 1432.64 1028.82C1432.02 1028.49 1431.53 1028.09 1431.17 1027.65C1430.82 1027.2 1430.55 1026.8 1430.35 1026.45H1430.09V1029H1426.98ZM1430.1 1020.82C1430.1 1021.97 1430.27 1022.98 1430.6 1023.84C1430.93 1024.71 1431.42 1025.39 1432.05 1025.88C1432.68 1026.36 1433.45 1026.6 1434.37 1026.6C1435.32 1026.6 1436.12 1026.35 1436.76 1025.85C1437.4 1025.34 1437.88 1024.64 1438.21 1023.77C1438.54 1022.9 1438.71 1021.91 1438.71 1020.82C1438.71 1019.74 1438.54 1018.77 1438.22 1017.91C1437.9 1017.05 1437.41 1016.37 1436.77 1015.88C1436.13 1015.38 1435.33 1015.13 1434.37 1015.13C1433.45 1015.13 1432.67 1015.37 1432.03 1015.84C1431.39 1016.32 1430.92 1016.98 1430.59 1017.84C1430.26 1018.69 1430.1 1019.68 1430.1 1020.82ZM1448.69 1007.18V1029H1445.5V1007.18H1448.69ZM1460.02 1029.33C1458.41 1029.33 1457.02 1028.99 1455.86 1028.3C1454.7 1027.6 1453.81 1026.62 1453.17 1025.37C1452.55 1024.1 1452.24 1022.62 1452.24 1020.92C1452.24 1019.25 1452.55 1017.77 1453.17 1016.49C1453.81 1015.21 1454.69 1014.22 1455.82 1013.5C1456.95 1012.78 1458.28 1012.42 1459.8 1012.42C1460.72 1012.42 1461.62 1012.58 1462.48 1012.88C1463.35 1013.19 1464.13 1013.67 1464.82 1014.32C1465.51 1014.97 1466.05 1015.82 1466.45 1016.87C1466.85 1017.9 1467.04 1019.16 1467.04 1020.65V1021.78H1454.04V1019.39H1463.92C1463.92 1018.55 1463.75 1017.81 1463.41 1017.16C1463.07 1016.51 1462.59 1016 1461.97 1015.62C1461.36 1015.24 1460.65 1015.05 1459.82 1015.05C1458.93 1015.05 1458.15 1015.27 1457.48 1015.72C1456.82 1016.15 1456.31 1016.72 1455.94 1017.42C1455.59 1018.12 1455.41 1018.87 1455.41 1019.69V1021.55C1455.41 1022.65 1455.6 1023.58 1455.99 1024.34C1456.38 1025.11 1456.92 1025.7 1457.62 1026.1C1458.31 1026.5 1459.13 1026.7 1460.06 1026.7C1460.66 1026.7 1461.21 1026.61 1461.71 1026.44C1462.2 1026.27 1462.63 1026 1463 1025.65C1463.36 1025.31 1463.64 1024.88 1463.83 1024.37L1466.84 1024.91C1466.6 1025.8 1466.17 1026.57 1465.54 1027.24C1464.92 1027.9 1464.15 1028.42 1463.21 1028.79C1462.28 1029.15 1461.22 1029.33 1460.02 1029.33ZM1485.41 1029.33C1483.88 1029.33 1482.54 1028.98 1481.39 1028.28C1480.25 1027.57 1479.36 1026.59 1478.73 1025.32C1478.1 1024.06 1477.78 1022.58 1477.78 1020.89C1477.78 1019.2 1478.1 1017.71 1478.73 1016.44C1479.36 1015.17 1480.25 1014.18 1481.39 1013.48C1482.54 1012.77 1483.88 1012.42 1485.41 1012.42C1486.95 1012.42 1488.28 1012.77 1489.43 1013.48C1490.57 1014.18 1491.46 1015.17 1492.09 1016.44C1492.72 1017.71 1493.04 1019.2 1493.04 1020.89C1493.04 1022.58 1492.72 1024.06 1492.09 1025.32C1491.46 1026.59 1490.57 1027.57 1489.43 1028.28C1488.28 1028.98 1486.95 1029.33 1485.41 1029.33ZM1485.42 1026.66C1486.42 1026.66 1487.24 1026.39 1487.89 1025.87C1488.55 1025.34 1489.03 1024.64 1489.34 1023.77C1489.66 1022.9 1489.82 1021.93 1489.82 1020.88C1489.82 1019.84 1489.66 1018.88 1489.34 1018.01C1489.03 1017.12 1488.55 1016.42 1487.89 1015.89C1487.24 1015.35 1486.42 1015.09 1485.42 1015.09C1484.42 1015.09 1483.59 1015.35 1482.93 1015.89C1482.28 1016.42 1481.79 1017.12 1481.47 1018.01C1481.16 1018.88 1481 1019.84 1481 1020.88C1481 1021.93 1481.16 1022.9 1481.47 1023.77C1481.79 1024.64 1482.28 1025.34 1482.93 1025.87C1483.59 1026.39 1484.42 1026.66 1485.42 1026.66ZM1499.78 1019.28V1029H1496.59V1012.64H1499.65V1015.3H1499.85C1500.23 1014.43 1500.82 1013.74 1501.62 1013.21C1502.43 1012.69 1503.45 1012.42 1504.68 1012.42C1505.8 1012.42 1506.77 1012.66 1507.61 1013.13C1508.45 1013.59 1509.1 1014.28 1509.56 1015.19C1510.02 1016.11 1510.25 1017.24 1510.25 1018.59V1029H1507.07V1018.98C1507.07 1017.79 1506.76 1016.86 1506.14 1016.19C1505.52 1015.52 1504.67 1015.18 1503.59 1015.18C1502.86 1015.18 1502.2 1015.34 1501.62 1015.66C1501.05 1015.98 1500.6 1016.45 1500.27 1017.07C1499.94 1017.68 1499.78 1018.42 1499.78 1019.28ZM1537.48 1014.07C1537.28 1013.43 1537 1012.85 1536.65 1012.34C1536.31 1011.82 1535.9 1011.38 1535.43 1011.02C1534.95 1010.65 1534.41 1010.37 1533.8 1010.18C1533.2 1009.98 1532.53 1009.89 1531.81 1009.89C1530.58 1009.89 1529.47 1010.2 1528.48 1010.84C1527.5 1011.47 1526.71 1012.39 1526.14 1013.62C1525.57 1014.83 1525.29 1016.32 1525.29 1018.08C1525.29 1019.85 1525.57 1021.34 1526.15 1022.57C1526.72 1023.79 1527.51 1024.71 1528.51 1025.35C1529.52 1025.98 1530.66 1026.29 1531.93 1026.29C1533.12 1026.29 1534.15 1026.05 1535.03 1025.57C1535.92 1025.09 1536.61 1024.4 1537.09 1023.52C1537.58 1022.64 1537.83 1021.59 1537.83 1020.39L1538.68 1020.55H1532.44V1017.84H1541.01V1020.32C1541.01 1022.15 1540.62 1023.74 1539.84 1025.09C1539.07 1026.43 1537.99 1027.47 1536.62 1028.2C1535.26 1028.93 1533.7 1029.3 1531.93 1029.3C1529.96 1029.3 1528.23 1028.84 1526.74 1027.93C1525.25 1027.03 1524.09 1025.74 1523.26 1024.07C1522.43 1022.39 1522.02 1020.4 1522.02 1018.1C1522.02 1016.36 1522.26 1014.8 1522.74 1013.41C1523.22 1012.03 1523.9 1010.85 1524.78 1009.89C1525.66 1008.91 1526.69 1008.17 1527.88 1007.66C1529.07 1007.14 1530.37 1006.88 1531.79 1006.88C1532.96 1006.88 1534.06 1007.06 1535.08 1007.41C1536.1 1007.75 1537.01 1008.25 1537.8 1008.89C1538.61 1009.53 1539.27 1010.29 1539.8 1011.17C1540.32 1012.04 1540.68 1013.01 1540.86 1014.07H1537.48ZM1551.83 1029.33C1550.29 1029.33 1548.95 1028.98 1547.81 1028.28C1546.67 1027.57 1545.78 1026.59 1545.15 1025.32C1544.52 1024.06 1544.2 1022.58 1544.2 1020.89C1544.2 1019.2 1544.52 1017.71 1545.15 1016.44C1545.78 1015.17 1546.67 1014.18 1547.81 1013.48C1548.95 1012.77 1550.29 1012.42 1551.83 1012.42C1553.36 1012.42 1554.7 1012.77 1555.84 1013.48C1556.99 1014.18 1557.87 1015.17 1558.51 1016.44C1559.14 1017.71 1559.45 1019.2 1559.45 1020.89C1559.45 1022.58 1559.14 1024.06 1558.51 1025.32C1557.87 1026.59 1556.99 1027.57 1555.84 1028.28C1554.7 1028.98 1553.36 1029.33 1551.83 1029.33ZM1551.84 1026.66C1552.83 1026.66 1553.66 1026.39 1554.31 1025.87C1554.96 1025.34 1555.45 1024.64 1555.76 1023.77C1556.08 1022.9 1556.24 1021.93 1556.24 1020.88C1556.24 1019.84 1556.08 1018.88 1555.76 1018.01C1555.45 1017.12 1554.96 1016.42 1554.31 1015.89C1553.66 1015.35 1552.83 1015.09 1551.84 1015.09C1550.84 1015.09 1550.01 1015.35 1549.34 1015.89C1548.69 1016.42 1548.2 1017.12 1547.89 1018.01C1547.57 1018.88 1547.42 1019.84 1547.42 1020.88C1547.42 1021.93 1547.57 1022.9 1547.89 1023.77C1548.2 1024.64 1548.69 1025.34 1549.34 1025.87C1550.01 1026.39 1550.84 1026.66 1551.84 1026.66ZM1569.9 1029.33C1568.37 1029.33 1567.03 1028.98 1565.89 1028.28C1564.74 1027.57 1563.86 1026.59 1563.22 1025.32C1562.59 1024.06 1562.28 1022.58 1562.28 1020.89C1562.28 1019.2 1562.59 1017.71 1563.22 1016.44C1563.86 1015.17 1564.74 1014.18 1565.89 1013.48C1567.03 1012.77 1568.37 1012.42 1569.9 1012.42C1571.44 1012.42 1572.78 1012.77 1573.92 1013.48C1575.06 1014.18 1575.95 1015.17 1576.58 1016.44C1577.22 1017.71 1577.53 1019.2 1577.53 1020.89C1577.53 1022.58 1577.22 1024.06 1576.58 1025.32C1575.95 1026.59 1575.06 1027.57 1573.92 1028.28C1572.78 1028.98 1571.44 1029.33 1569.9 1029.33ZM1569.91 1026.66C1570.91 1026.66 1571.73 1026.39 1572.39 1025.87C1573.04 1025.34 1573.52 1024.64 1573.83 1023.77C1574.15 1022.9 1574.31 1021.93 1574.31 1020.88C1574.31 1019.84 1574.15 1018.88 1573.83 1018.01C1573.52 1017.12 1573.04 1016.42 1572.39 1015.89C1571.73 1015.35 1570.91 1015.09 1569.91 1015.09C1568.91 1015.09 1568.08 1015.35 1567.42 1015.89C1566.77 1016.42 1566.28 1017.12 1565.96 1018.01C1565.65 1018.88 1565.49 1019.84 1565.49 1020.88C1565.49 1021.93 1565.65 1022.9 1565.96 1023.77C1566.28 1024.64 1566.77 1025.34 1567.42 1025.87C1568.08 1026.39 1568.91 1026.66 1569.91 1026.66ZM1587.95 1035.48C1586.65 1035.48 1585.53 1035.31 1584.59 1034.97C1583.66 1034.63 1582.9 1034.17 1582.31 1033.61C1581.72 1033.05 1581.28 1032.44 1580.99 1031.77L1583.73 1030.64C1583.92 1030.95 1584.18 1031.28 1584.5 1031.63C1584.82 1031.99 1585.26 1032.29 1585.82 1032.54C1586.38 1032.79 1587.1 1032.91 1587.98 1032.91C1589.19 1032.91 1590.18 1032.62 1590.97 1032.03C1591.76 1031.44 1592.16 1030.51 1592.16 1029.23V1026.02H1591.95C1591.76 1026.37 1591.48 1026.75 1591.12 1027.18C1590.77 1027.6 1590.28 1027.97 1589.65 1028.29C1589.03 1028.6 1588.21 1028.75 1587.21 1028.75C1585.92 1028.75 1584.75 1028.45 1583.72 1027.85C1582.69 1027.24 1581.87 1026.34 1581.27 1025.15C1580.67 1023.96 1580.37 1022.49 1580.37 1020.75C1580.37 1019.01 1580.67 1017.52 1581.26 1016.28C1581.85 1015.04 1582.67 1014.09 1583.71 1013.42C1584.74 1012.76 1585.92 1012.42 1587.23 1012.42C1588.25 1012.42 1589.07 1012.59 1589.69 1012.93C1590.32 1013.27 1590.81 1013.66 1591.15 1014.11C1591.51 1014.55 1591.78 1014.95 1591.97 1015.29H1592.21V1012.64H1595.33V1029.36C1595.33 1030.77 1595 1031.92 1594.35 1032.82C1593.7 1033.73 1592.81 1034.39 1591.7 1034.83C1590.59 1035.26 1589.34 1035.48 1587.95 1035.48ZM1587.92 1026.11C1588.83 1026.11 1589.61 1025.9 1590.24 1025.47C1590.88 1025.04 1591.36 1024.42 1591.69 1023.62C1592.02 1022.81 1592.19 1021.84 1592.19 1020.71C1592.19 1019.61 1592.02 1018.64 1591.7 1017.8C1591.37 1016.97 1590.89 1016.31 1590.26 1015.84C1589.63 1015.37 1588.85 1015.13 1587.92 1015.13C1586.96 1015.13 1586.16 1015.38 1585.52 1015.88C1584.88 1016.37 1584.4 1017.03 1584.07 1017.88C1583.75 1018.72 1583.59 1019.67 1583.59 1020.71C1583.59 1021.78 1583.75 1022.73 1584.08 1023.53C1584.41 1024.34 1584.89 1024.98 1585.53 1025.43C1586.18 1025.89 1586.97 1026.11 1587.92 1026.11ZM1602.79 1007.18V1029H1599.6V1007.18H1602.79ZM1614.13 1029.33C1612.51 1029.33 1611.12 1028.99 1609.96 1028.3C1608.8 1027.6 1607.91 1026.62 1607.28 1025.37C1606.65 1024.1 1606.34 1022.62 1606.34 1020.92C1606.34 1019.25 1606.65 1017.77 1607.28 1016.49C1607.91 1015.21 1608.79 1014.22 1609.92 1013.5C1611.05 1012.78 1612.38 1012.42 1613.9 1012.42C1614.83 1012.42 1615.72 1012.58 1616.59 1012.88C1617.45 1013.19 1618.23 1013.67 1618.92 1014.32C1619.61 1014.97 1620.15 1015.82 1620.55 1016.87C1620.95 1017.9 1621.15 1019.16 1621.15 1020.65V1021.78H1608.14V1019.39H1618.02C1618.02 1018.55 1617.85 1017.81 1617.51 1017.16C1617.17 1016.51 1616.69 1016 1616.08 1015.62C1615.46 1015.24 1614.75 1015.05 1613.92 1015.05C1613.03 1015.05 1612.25 1015.27 1611.58 1015.72C1610.92 1016.15 1610.41 1016.72 1610.05 1017.42C1609.69 1018.12 1609.51 1018.87 1609.51 1019.69V1021.55C1609.51 1022.65 1609.7 1023.58 1610.09 1024.34C1610.48 1025.11 1611.02 1025.7 1611.72 1026.1C1612.41 1026.5 1613.23 1026.7 1614.16 1026.7C1614.76 1026.7 1615.31 1026.61 1615.81 1026.44C1616.31 1026.27 1616.74 1026 1617.1 1025.65C1617.46 1025.31 1617.74 1024.88 1617.93 1024.37L1620.94 1024.91C1620.7 1025.8 1620.27 1026.57 1619.64 1027.24C1619.03 1027.9 1618.25 1028.42 1617.31 1028.79C1616.38 1029.15 1615.32 1029.33 1614.13 1029.33ZM1632.88 1029V1007.18H1646.41V1010.02H1636.17V1016.66H1645.44V1019.49H1636.17V1029H1632.88ZM1655.89 1029.33C1654.36 1029.33 1653.02 1028.98 1651.87 1028.28C1650.73 1027.57 1649.84 1026.59 1649.21 1025.32C1648.58 1024.06 1648.26 1022.58 1648.26 1020.89C1648.26 1019.2 1648.58 1017.71 1649.21 1016.44C1649.84 1015.17 1650.73 1014.18 1651.87 1013.48C1653.02 1012.77 1654.36 1012.42 1655.89 1012.42C1657.42 1012.42 1658.76 1012.77 1659.91 1013.48C1661.05 1014.18 1661.94 1015.17 1662.57 1016.44C1663.2 1017.71 1663.52 1019.2 1663.52 1020.89C1663.52 1022.58 1663.2 1024.06 1662.57 1025.32C1661.94 1026.59 1661.05 1027.57 1659.91 1028.28C1658.76 1028.98 1657.42 1029.33 1655.89 1029.33ZM1655.9 1026.66C1656.89 1026.66 1657.72 1026.39 1658.37 1025.87C1659.03 1025.34 1659.51 1024.64 1659.82 1023.77C1660.14 1022.9 1660.3 1021.93 1660.3 1020.88C1660.3 1019.84 1660.14 1018.88 1659.82 1018.01C1659.51 1017.12 1659.03 1016.42 1658.37 1015.89C1657.72 1015.35 1656.89 1015.09 1655.9 1015.09C1654.9 1015.09 1654.07 1015.35 1653.41 1015.89C1652.75 1016.42 1652.27 1017.12 1651.95 1018.01C1651.64 1018.88 1651.48 1019.84 1651.48 1020.88C1651.48 1021.93 1651.64 1022.9 1651.95 1023.77C1652.27 1024.64 1652.75 1025.34 1653.41 1025.87C1654.07 1026.39 1654.9 1026.66 1655.9 1026.66ZM1670.26 1019.28V1029H1667.07V1012.64H1670.13V1015.3H1670.33C1670.71 1014.43 1671.3 1013.74 1672.1 1013.21C1672.91 1012.69 1673.93 1012.42 1675.16 1012.42C1676.27 1012.42 1677.25 1012.66 1678.09 1013.13C1678.93 1013.59 1679.58 1014.28 1680.04 1015.19C1680.5 1016.11 1680.73 1017.24 1680.73 1018.59V1029H1677.55V1018.98C1677.55 1017.79 1677.24 1016.86 1676.62 1016.19C1676 1015.52 1675.15 1015.18 1674.07 1015.18C1673.33 1015.18 1672.68 1015.34 1672.1 1015.66C1671.53 1015.98 1671.08 1016.45 1670.75 1017.07C1670.42 1017.68 1670.26 1018.42 1670.26 1019.28ZM1692.64 1012.64V1015.19H1683.7V1012.64H1692.64ZM1686.1 1008.72H1689.29V1024.2C1689.29 1024.81 1689.38 1025.28 1689.56 1025.59C1689.75 1025.9 1689.98 1026.11 1690.28 1026.22C1690.57 1026.33 1690.9 1026.38 1691.25 1026.38C1691.5 1026.38 1691.72 1026.36 1691.92 1026.33C1692.11 1026.29 1692.26 1026.26 1692.36 1026.24L1692.94 1028.87C1692.75 1028.94 1692.49 1029.01 1692.15 1029.09C1691.81 1029.16 1691.38 1029.21 1690.87 1029.21C1690.03 1029.23 1689.25 1029.08 1688.53 1028.77C1687.8 1028.45 1687.22 1027.97 1686.77 1027.32C1686.32 1026.66 1686.1 1025.84 1686.1 1024.86V1008.72ZM1708.16 1016.63L1705.28 1017.14C1705.16 1016.77 1704.96 1016.42 1704.7 1016.09C1704.45 1015.75 1704.1 1015.48 1703.66 1015.27C1703.22 1015.05 1702.67 1014.95 1702.01 1014.95C1701.1 1014.95 1700.35 1015.15 1699.75 1015.56C1699.14 1015.95 1698.84 1016.47 1698.84 1017.1C1698.84 1017.65 1699.04 1018.09 1699.45 1018.42C1699.85 1018.75 1700.51 1019.03 1701.41 1019.24L1704.01 1019.84C1705.51 1020.19 1706.64 1020.72 1707.37 1021.45C1708.11 1022.17 1708.48 1023.11 1708.48 1024.27C1708.48 1025.25 1708.2 1026.12 1707.63 1026.89C1707.07 1027.65 1706.28 1028.25 1705.28 1028.68C1704.27 1029.11 1703.11 1029.33 1701.79 1029.33C1699.96 1029.33 1698.47 1028.94 1697.31 1028.16C1696.15 1027.37 1695.44 1026.25 1695.18 1024.8L1698.26 1024.33C1698.45 1025.14 1698.84 1025.74 1699.44 1026.16C1700.03 1026.56 1700.81 1026.76 1701.77 1026.76C1702.82 1026.76 1703.65 1026.55 1704.27 1026.11C1704.9 1025.67 1705.21 1025.14 1705.21 1024.5C1705.21 1023.99 1705.02 1023.56 1704.64 1023.22C1704.26 1022.87 1703.68 1022.6 1702.9 1022.43L1700.13 1021.82C1698.6 1021.47 1697.47 1020.92 1696.74 1020.16C1696.02 1019.4 1695.66 1018.44 1695.66 1017.27C1695.66 1016.3 1695.93 1015.46 1696.47 1014.74C1697.01 1014.01 1697.75 1013.45 1698.7 1013.04C1699.65 1012.63 1700.74 1012.42 1701.97 1012.42C1703.74 1012.42 1705.13 1012.81 1706.15 1013.57C1707.17 1014.33 1707.84 1015.35 1708.16 1016.63Z" fill="#FF6D7F"/>
<path d="M152.284 1007.18V1029H147.341L139.457 1017.54H139.33V1029H133.406V1007.18H138.435L146.19 1018.6H146.361V1007.18H152.284ZM163.055 1029.3C161.279 1029.3 159.759 1028.95 158.495 1028.24C157.231 1027.53 156.261 1026.55 155.587 1025.28C154.912 1024.01 154.575 1022.54 154.575 1020.86C154.575 1019.18 154.912 1017.71 155.587 1016.45C156.261 1015.18 157.231 1014.19 158.495 1013.49C159.759 1012.78 161.279 1012.42 163.055 1012.42C164.83 1012.42 166.35 1012.78 167.614 1013.49C168.879 1014.19 169.848 1015.18 170.523 1016.45C171.197 1017.71 171.535 1019.18 171.535 1020.86C171.535 1022.54 171.197 1024.01 170.523 1025.28C169.848 1026.55 168.879 1027.53 167.614 1028.24C166.35 1028.95 164.83 1029.3 163.055 1029.3ZM163.097 1024.95C163.594 1024.95 164.024 1024.78 164.386 1024.45C164.749 1024.12 165.029 1023.64 165.228 1023.02C165.427 1022.41 165.526 1021.67 165.526 1020.82C165.526 1019.96 165.427 1019.22 165.228 1018.61C165.029 1018 164.749 1017.52 164.386 1017.19C164.024 1016.85 163.594 1016.68 163.097 1016.68C162.572 1016.68 162.121 1016.85 161.744 1017.19C161.368 1017.52 161.08 1018 160.881 1018.61C160.683 1019.22 160.583 1019.96 160.583 1020.82C160.583 1021.67 160.683 1022.41 160.881 1023.02C161.08 1023.64 161.368 1024.12 161.744 1024.45C162.121 1024.78 162.572 1024.95 163.097 1024.95ZM183.68 1012.64V1016.9H172.898V1012.64H183.68ZM174.987 1008.72H180.867V1023.74C180.867 1023.96 180.906 1024.16 180.984 1024.31C181.062 1024.46 181.183 1024.58 181.347 1024.65C181.51 1024.72 181.719 1024.76 181.975 1024.76C182.153 1024.76 182.359 1024.74 182.593 1024.7C182.835 1024.65 183.012 1024.62 183.126 1024.59L183.978 1028.72C183.715 1028.8 183.339 1028.9 182.849 1029.01C182.366 1029.12 181.79 1029.2 181.123 1029.23C179.773 1029.31 178.641 1029.17 177.724 1028.82C176.808 1028.46 176.119 1027.91 175.658 1027.15C175.196 1026.39 174.972 1025.43 174.987 1024.29V1008.72ZM193.787 1029.3C192.012 1029.3 190.492 1028.95 189.227 1028.24C187.963 1027.53 186.994 1026.55 186.319 1025.28C185.644 1024.01 185.307 1022.54 185.307 1020.86C185.307 1019.18 185.644 1017.71 186.319 1016.45C186.994 1015.18 187.963 1014.19 189.227 1013.49C190.492 1012.78 192.012 1012.42 193.787 1012.42C195.563 1012.42 197.083 1012.78 198.347 1013.49C199.611 1014.19 200.58 1015.18 201.255 1016.45C201.93 1017.71 202.267 1019.18 202.267 1020.86C202.267 1022.54 201.93 1024.01 201.255 1025.28C200.58 1026.55 199.611 1027.53 198.347 1028.24C197.083 1028.95 195.563 1029.3 193.787 1029.3ZM193.83 1024.95C194.327 1024.95 194.757 1024.78 195.119 1024.45C195.481 1024.12 195.762 1023.64 195.96 1023.02C196.159 1022.41 196.259 1021.67 196.259 1020.82C196.259 1019.96 196.159 1019.22 195.96 1018.61C195.762 1018 195.481 1017.52 195.119 1017.19C194.757 1016.85 194.327 1016.68 193.83 1016.68C193.304 1016.68 192.853 1016.85 192.477 1017.19C192.1 1017.52 191.813 1018 191.614 1018.61C191.415 1019.22 191.316 1019.96 191.316 1020.82C191.316 1021.67 191.415 1022.41 191.614 1023.02C191.813 1023.64 192.1 1024.12 192.477 1024.45C192.853 1024.78 193.304 1024.95 193.83 1024.95ZM222.306 1014C222.249 1013.29 221.983 1012.74 221.507 1012.34C221.039 1011.94 220.325 1011.74 219.366 1011.74C218.755 1011.74 218.254 1011.82 217.864 1011.97C217.48 1012.11 217.196 1012.3 217.012 1012.55C216.827 1012.8 216.731 1013.08 216.724 1013.4C216.71 1013.67 216.756 1013.9 216.862 1014.12C216.976 1014.32 217.154 1014.51 217.395 1014.68C217.637 1014.85 217.945 1014.99 218.322 1015.13C218.698 1015.26 219.146 1015.38 219.664 1015.49L221.454 1015.88C222.661 1016.13 223.695 1016.47 224.554 1016.89C225.414 1017.31 226.117 1017.8 226.664 1018.37C227.21 1018.93 227.612 1019.56 227.867 1020.26C228.13 1020.97 228.265 1021.73 228.272 1022.57C228.265 1024 227.906 1025.21 227.196 1026.21C226.486 1027.2 225.47 1027.96 224.149 1028.48C222.835 1029 221.255 1029.26 219.409 1029.26C217.512 1029.26 215.857 1028.98 214.444 1028.41C213.038 1027.85 211.944 1026.99 211.163 1025.83C210.389 1024.65 209.998 1023.15 209.991 1021.33H215.616C215.651 1022 215.818 1022.56 216.117 1023.01C216.415 1023.47 216.834 1023.81 217.374 1024.05C217.921 1024.28 218.57 1024.4 219.323 1024.4C219.955 1024.4 220.485 1024.32 220.911 1024.16C221.337 1024.01 221.66 1023.79 221.88 1023.51C222.1 1023.24 222.214 1022.92 222.221 1022.57C222.214 1022.23 222.104 1021.94 221.891 1021.69C221.685 1021.44 221.344 1021.21 220.868 1021.01C220.392 1020.8 219.749 1020.61 218.94 1020.43L216.767 1019.97C214.835 1019.55 213.311 1018.85 212.196 1017.87C211.088 1016.88 210.538 1015.53 210.545 1013.83C210.538 1012.44 210.907 1011.23 211.653 1010.2C212.406 1009.15 213.446 1008.34 214.774 1007.76C216.11 1007.17 217.64 1006.88 219.366 1006.88C221.127 1006.88 222.651 1007.18 223.936 1007.77C225.222 1008.36 226.213 1009.19 226.909 1010.26C227.612 1011.33 227.967 1012.57 227.974 1014H222.306ZM235.17 1029.26C234.126 1029.26 233.203 1029.09 232.4 1028.74C231.605 1028.4 230.98 1027.87 230.525 1027.17C230.071 1026.46 229.844 1025.57 229.844 1024.48C229.844 1023.59 229.996 1022.82 230.302 1022.19C230.607 1021.55 231.033 1021.03 231.58 1020.63C232.127 1020.22 232.763 1019.91 233.487 1019.7C234.219 1019.49 235.007 1019.35 235.852 1019.28C236.768 1019.21 237.503 1019.13 238.057 1019.03C238.618 1018.92 239.023 1018.78 239.272 1018.59C239.52 1018.4 239.645 1018.15 239.645 1017.84V1017.79C239.645 1017.37 239.481 1017.04 239.155 1016.81C238.828 1016.59 238.409 1016.47 237.898 1016.47C237.336 1016.47 236.878 1016.6 236.523 1016.84C236.175 1017.09 235.966 1017.46 235.895 1017.96H230.483C230.554 1016.97 230.87 1016.05 231.431 1015.21C231.999 1014.37 232.827 1013.69 233.913 1013.19C235 1012.68 236.356 1012.42 237.983 1012.42C239.155 1012.42 240.206 1012.56 241.136 1012.84C242.067 1013.11 242.858 1013.49 243.512 1013.98C244.165 1014.46 244.662 1015.03 245.003 1015.68C245.351 1016.33 245.525 1017.03 245.525 1017.79V1029H240.028V1026.7H239.9C239.574 1027.31 239.176 1027.8 238.707 1028.18C238.246 1028.56 237.716 1028.83 237.12 1029C236.53 1029.17 235.881 1029.26 235.17 1029.26ZM237.088 1025.55C237.535 1025.55 237.954 1025.46 238.345 1025.27C238.743 1025.09 239.066 1024.82 239.314 1024.47C239.563 1024.12 239.687 1023.7 239.687 1023.2V1021.84C239.531 1021.9 239.364 1021.97 239.187 1022.02C239.016 1022.08 238.831 1022.13 238.633 1022.18C238.441 1022.23 238.235 1022.28 238.015 1022.32C237.802 1022.36 237.578 1022.4 237.344 1022.44C236.889 1022.51 236.516 1022.63 236.225 1022.79C235.941 1022.95 235.728 1023.14 235.586 1023.38C235.451 1023.6 235.383 1023.86 235.383 1024.14C235.383 1024.6 235.543 1024.94 235.863 1025.19C236.182 1025.43 236.591 1025.55 237.088 1025.55ZM254.216 1019.8V1029H248.335V1012.64H253.918V1015.75H254.088C254.443 1014.71 255.068 1013.9 255.963 1013.31C256.865 1012.72 257.916 1012.42 259.116 1012.42C260.274 1012.42 261.279 1012.69 262.131 1013.22C262.991 1013.75 263.655 1014.47 264.124 1015.4C264.599 1016.32 264.834 1017.37 264.827 1018.56V1029H258.946V1019.8C258.953 1018.99 258.747 1018.35 258.328 1017.89C257.916 1017.43 257.341 1017.2 256.602 1017.2C256.119 1017.2 255.697 1017.3 255.335 1017.52C254.979 1017.72 254.706 1018.02 254.514 1018.41C254.322 1018.79 254.223 1019.26 254.216 1019.8ZM282.687 1017.96H277.275C277.247 1017.63 277.13 1017.34 276.924 1017.1C276.718 1016.86 276.451 1016.67 276.125 1016.55C275.805 1016.41 275.45 1016.34 275.059 1016.34C274.555 1016.34 274.122 1016.44 273.76 1016.62C273.397 1016.81 273.22 1017.07 273.227 1017.41C273.22 1017.65 273.323 1017.87 273.536 1018.08C273.756 1018.29 274.179 1018.45 274.804 1018.56L278.127 1019.16C279.804 1019.46 281.05 1019.98 281.867 1020.7C282.691 1021.42 283.106 1022.38 283.113 1023.59C283.106 1024.75 282.758 1025.76 282.069 1026.62C281.387 1027.48 280.453 1028.14 279.267 1028.61C278.088 1029.07 276.743 1029.3 275.23 1029.3C272.73 1029.3 270.773 1028.79 269.36 1027.76C267.953 1026.74 267.169 1025.39 267.005 1023.72H272.843C272.922 1024.23 273.177 1024.64 273.61 1024.92C274.051 1025.2 274.605 1025.34 275.272 1025.34C275.812 1025.34 276.256 1025.24 276.604 1025.06C276.959 1024.87 277.14 1024.61 277.147 1024.27C277.14 1023.96 276.984 1023.71 276.679 1023.52C276.38 1023.34 275.912 1023.19 275.272 1023.08L272.375 1022.57C270.706 1022.27 269.456 1021.72 268.625 1020.9C267.794 1020.09 267.382 1019.04 267.389 1017.75C267.382 1016.61 267.68 1015.65 268.284 1014.86C268.895 1014.07 269.765 1013.46 270.894 1013.05C272.03 1012.63 273.376 1012.42 274.931 1012.42C277.297 1012.42 279.161 1012.91 280.525 1013.89C281.895 1014.87 282.616 1016.23 282.687 1017.96ZM291.258 1029V1007.18H297.181V1016H297.479L304.042 1007.18H310.945L303.573 1016.9L311.116 1029H304.042L299.141 1020.82L297.181 1023.38V1029H291.258ZM312.703 1029V1007.18H322.121C323.74 1007.18 325.157 1007.48 326.371 1008.07C327.586 1008.66 328.531 1009.5 329.205 1010.61C329.88 1011.72 330.217 1013.05 330.217 1014.6C330.217 1016.16 329.869 1017.48 329.173 1018.55C328.484 1019.62 327.515 1020.43 326.265 1020.98C325.022 1021.52 323.57 1021.8 321.908 1021.8H316.283V1017.2H320.714C321.411 1017.2 322.004 1017.11 322.494 1016.94C322.991 1016.76 323.371 1016.48 323.634 1016.1C323.903 1015.72 324.038 1015.21 324.038 1014.6C324.038 1013.97 323.903 1013.46 323.634 1013.07C323.371 1012.68 322.991 1012.38 322.494 1012.2C322.004 1012.01 321.411 1011.91 320.714 1011.91H318.626V1029H312.703ZM325.487 1018.99L330.942 1029H324.507L319.18 1018.99H325.487Z" fill="#FF6D7F"/>
<path d="M1056.33 1007.18V1029H1050.41V1007.18H1056.33ZM1059.14 1029V1007.18H1068.6C1070.26 1007.18 1071.65 1007.41 1072.78 1007.85C1073.92 1008.3 1074.78 1008.93 1075.35 1009.75C1075.93 1010.57 1076.22 1011.53 1076.22 1012.64C1076.22 1013.44 1076.05 1014.17 1075.69 1014.83C1075.34 1015.49 1074.85 1016.05 1074.22 1016.49C1073.59 1016.93 1072.85 1017.24 1072.01 1017.41V1017.62C1072.94 1017.66 1073.8 1017.9 1074.56 1018.34C1075.33 1018.77 1075.94 1019.37 1076.4 1020.14C1076.85 1020.9 1077.08 1021.79 1077.08 1022.82C1077.08 1024.01 1076.76 1025.08 1076.14 1026.01C1075.52 1026.94 1074.64 1027.67 1073.5 1028.2C1072.35 1028.73 1070.99 1029 1069.41 1029H1059.14ZM1065.06 1024.27H1067.83C1068.82 1024.27 1069.57 1024.09 1070.07 1023.72C1070.56 1023.34 1070.81 1022.79 1070.81 1022.05C1070.81 1021.54 1070.7 1021.11 1070.46 1020.75C1070.23 1020.4 1069.89 1020.13 1069.46 1019.94C1069.03 1019.76 1068.52 1019.67 1067.92 1019.67H1065.06V1024.27ZM1065.06 1016H1067.49C1068.01 1016 1068.47 1015.92 1068.86 1015.76C1069.26 1015.59 1069.57 1015.36 1069.79 1015.05C1070.02 1014.74 1070.13 1014.36 1070.13 1013.91C1070.13 1013.24 1069.89 1012.73 1069.41 1012.37C1068.92 1012.01 1068.31 1011.83 1067.57 1011.83H1065.06V1016ZM1079.18 1007.18H1086.55L1091.62 1019.54H1091.87L1096.95 1007.18H1104.32V1029H1098.52V1016.39H1098.35L1093.49 1028.83H1090L1085.14 1016.3H1084.97V1029H1079.18V1007.18ZM1113.1 1029V1007.18H1122.52C1124.14 1007.18 1125.56 1007.5 1126.77 1008.14C1127.98 1008.78 1128.93 1009.68 1129.6 1010.84C1130.28 1011.99 1130.62 1013.35 1130.62 1014.89C1130.62 1016.46 1130.27 1017.81 1129.57 1018.95C1128.88 1020.1 1127.91 1020.98 1126.66 1021.6C1125.42 1022.21 1123.97 1022.52 1122.31 1022.52H1116.68V1017.92H1121.11C1121.81 1017.92 1122.4 1017.8 1122.89 1017.56C1123.39 1017.31 1123.77 1016.96 1124.03 1016.5C1124.3 1016.05 1124.44 1015.51 1124.44 1014.89C1124.44 1014.27 1124.3 1013.74 1124.03 1013.3C1123.77 1012.85 1123.39 1012.51 1122.89 1012.27C1122.4 1012.03 1121.81 1011.91 1121.11 1011.91H1119.02V1029H1113.1ZM1138.75 1007.18V1029H1132.87V1007.18H1138.75ZM1149.59 1029.3C1147.84 1029.3 1146.34 1028.96 1145.08 1028.3C1143.82 1027.62 1142.85 1026.66 1142.17 1025.4C1141.49 1024.13 1141.15 1022.62 1141.15 1020.86C1141.15 1019.17 1141.5 1017.69 1142.18 1016.43C1142.86 1015.16 1143.82 1014.18 1145.06 1013.48C1146.31 1012.77 1147.77 1012.42 1149.46 1012.42C1150.7 1012.42 1151.82 1012.62 1152.82 1013C1153.82 1013.38 1154.68 1013.94 1155.39 1014.67C1156.1 1015.4 1156.64 1016.28 1157.03 1017.31C1157.41 1018.35 1157.6 1019.52 1157.6 1020.82V1022.18H1142.99V1018.94H1152.19C1152.18 1018.47 1152.06 1018.06 1151.83 1017.71C1151.6 1017.35 1151.29 1017.06 1150.9 1016.87C1150.52 1016.66 1150.08 1016.56 1149.59 1016.56C1149.12 1016.56 1148.68 1016.66 1148.28 1016.87C1147.88 1017.06 1147.56 1017.34 1147.32 1017.7C1147.09 1018.05 1146.96 1018.47 1146.95 1018.94V1022.44C1146.95 1022.96 1147.06 1023.43 1147.28 1023.84C1147.5 1024.26 1147.82 1024.58 1148.23 1024.81C1148.64 1025.05 1149.14 1025.16 1149.72 1025.16C1150.12 1025.16 1150.49 1025.11 1150.83 1024.99C1151.17 1024.88 1151.46 1024.72 1151.7 1024.5C1151.94 1024.28 1152.12 1024.02 1152.23 1023.72H1157.6C1157.42 1024.85 1156.98 1025.84 1156.29 1026.68C1155.6 1027.51 1154.69 1028.15 1153.56 1028.62C1152.43 1029.07 1151.1 1029.3 1149.59 1029.3ZM1164.9 1012.64L1167.28 1017.71L1169.8 1012.64H1175.64L1171.25 1020.82L1175.85 1029H1170.05L1167.28 1023.8L1164.6 1029H1158.72L1163.36 1020.82L1159.02 1012.64H1164.9ZM1195.38 1014C1195.32 1013.29 1195.06 1012.74 1194.58 1012.34C1194.11 1011.94 1193.4 1011.74 1192.44 1011.74C1191.83 1011.74 1191.33 1011.82 1190.94 1011.97C1190.55 1012.11 1190.27 1012.3 1190.09 1012.55C1189.9 1012.8 1189.81 1013.08 1189.8 1013.4C1189.78 1013.67 1189.83 1013.9 1189.94 1014.12C1190.05 1014.32 1190.23 1014.51 1190.47 1014.68C1190.71 1014.85 1191.02 1014.99 1191.4 1015.13C1191.77 1015.26 1192.22 1015.38 1192.74 1015.49L1194.53 1015.88C1195.74 1016.13 1196.77 1016.47 1197.63 1016.89C1198.49 1017.31 1199.19 1017.8 1199.74 1018.37C1200.28 1018.93 1200.69 1019.56 1200.94 1020.26C1201.2 1020.97 1201.34 1021.73 1201.35 1022.57C1201.34 1024 1200.98 1025.21 1200.27 1026.21C1199.56 1027.2 1198.54 1027.96 1197.22 1028.48C1195.91 1029 1194.33 1029.26 1192.48 1029.26C1190.59 1029.26 1188.93 1028.98 1187.52 1028.41C1186.11 1027.85 1185.02 1026.99 1184.24 1025.83C1183.46 1024.65 1183.07 1023.15 1183.07 1021.33H1188.69C1188.73 1022 1188.89 1022.56 1189.19 1023.01C1189.49 1023.47 1189.91 1023.81 1190.45 1024.05C1190.99 1024.28 1191.64 1024.4 1192.4 1024.4C1193.03 1024.4 1193.56 1024.32 1193.98 1024.16C1194.41 1024.01 1194.73 1023.79 1194.95 1023.51C1195.17 1023.24 1195.29 1022.92 1195.3 1022.57C1195.29 1022.23 1195.18 1021.94 1194.97 1021.69C1194.76 1021.44 1194.42 1021.21 1193.94 1021.01C1193.47 1020.8 1192.82 1020.61 1192.01 1020.43L1189.84 1019.97C1187.91 1019.55 1186.39 1018.85 1185.27 1017.87C1184.16 1016.88 1183.61 1015.53 1183.62 1013.83C1183.61 1012.44 1183.98 1011.23 1184.73 1010.2C1185.48 1009.15 1186.52 1008.34 1187.85 1007.76C1189.18 1007.17 1190.71 1006.88 1192.44 1006.88C1194.2 1006.88 1195.72 1007.18 1197.01 1007.77C1198.3 1008.36 1199.29 1009.19 1199.98 1010.26C1200.69 1011.33 1201.04 1012.57 1201.05 1014H1195.38ZM1208.24 1029.26C1207.2 1029.26 1206.28 1029.09 1205.47 1028.74C1204.68 1028.4 1204.05 1027.87 1203.6 1027.17C1203.15 1026.46 1202.92 1025.57 1202.92 1024.48C1202.92 1023.59 1203.07 1022.82 1203.38 1022.19C1203.68 1021.55 1204.11 1021.03 1204.65 1020.63C1205.2 1020.22 1205.84 1019.91 1206.56 1019.7C1207.29 1019.49 1208.08 1019.35 1208.93 1019.28C1209.84 1019.21 1210.58 1019.13 1211.13 1019.03C1211.69 1018.92 1212.1 1018.78 1212.35 1018.59C1212.59 1018.4 1212.72 1018.15 1212.72 1017.84V1017.79C1212.72 1017.37 1212.56 1017.04 1212.23 1016.81C1211.9 1016.59 1211.48 1016.47 1210.97 1016.47C1210.41 1016.47 1209.95 1016.6 1209.6 1016.84C1209.25 1017.09 1209.04 1017.46 1208.97 1017.96H1203.56C1203.63 1016.97 1203.94 1016.05 1204.51 1015.21C1205.07 1014.37 1205.9 1013.69 1206.99 1013.19C1208.07 1012.68 1209.43 1012.42 1211.06 1012.42C1212.23 1012.42 1213.28 1012.56 1214.21 1012.84C1215.14 1013.11 1215.93 1013.49 1216.59 1013.98C1217.24 1014.46 1217.74 1015.03 1218.08 1015.68C1218.43 1016.33 1218.6 1017.03 1218.6 1017.79V1029H1213.1V1026.7H1212.97C1212.65 1027.31 1212.25 1027.8 1211.78 1028.18C1211.32 1028.56 1210.79 1028.83 1210.19 1029C1209.6 1029.17 1208.95 1029.26 1208.24 1029.26ZM1210.16 1025.55C1210.61 1025.55 1211.03 1025.46 1211.42 1025.27C1211.82 1025.09 1212.14 1024.82 1212.39 1024.47C1212.64 1024.12 1212.76 1023.7 1212.76 1023.2V1021.84C1212.61 1021.9 1212.44 1021.97 1212.26 1022.02C1212.09 1022.08 1211.91 1022.13 1211.71 1022.18C1211.52 1022.23 1211.31 1022.28 1211.09 1022.32C1210.88 1022.36 1210.65 1022.4 1210.42 1022.44C1209.96 1022.51 1209.59 1022.63 1209.3 1022.79C1209.02 1022.95 1208.8 1023.14 1208.66 1023.38C1208.53 1023.6 1208.46 1023.86 1208.46 1024.14C1208.46 1024.6 1208.62 1024.94 1208.94 1025.19C1209.26 1025.43 1209.66 1025.55 1210.16 1025.55ZM1227.29 1019.8V1029H1221.41V1012.64H1226.99V1015.75H1227.16C1227.52 1014.71 1228.14 1013.9 1229.04 1013.31C1229.94 1012.72 1230.99 1012.42 1232.19 1012.42C1233.35 1012.42 1234.35 1012.69 1235.21 1013.22C1236.06 1013.75 1236.73 1014.47 1237.2 1015.4C1237.67 1016.32 1237.91 1017.37 1237.9 1018.56V1029H1232.02V1019.8C1232.03 1018.99 1231.82 1018.35 1231.4 1017.89C1230.99 1017.43 1230.42 1017.2 1229.68 1017.2C1229.19 1017.2 1228.77 1017.3 1228.41 1017.52C1228.05 1017.72 1227.78 1018.02 1227.59 1018.41C1227.4 1018.79 1227.3 1019.26 1227.29 1019.8ZM1255.76 1017.96H1250.35C1250.32 1017.63 1250.2 1017.34 1250 1017.1C1249.79 1016.86 1249.53 1016.67 1249.2 1016.55C1248.88 1016.41 1248.52 1016.34 1248.13 1016.34C1247.63 1016.34 1247.2 1016.44 1246.83 1016.62C1246.47 1016.81 1246.29 1017.07 1246.3 1017.41C1246.29 1017.65 1246.4 1017.87 1246.61 1018.08C1246.83 1018.29 1247.25 1018.45 1247.88 1018.56L1251.2 1019.16C1252.88 1019.46 1254.12 1019.98 1254.94 1020.7C1255.76 1021.42 1256.18 1022.38 1256.19 1023.59C1256.18 1024.75 1255.83 1025.76 1255.14 1026.62C1254.46 1027.48 1253.53 1028.14 1252.34 1028.61C1251.16 1029.07 1249.82 1029.3 1248.3 1029.3C1245.8 1029.3 1243.85 1028.79 1242.43 1027.76C1241.03 1026.74 1240.24 1025.39 1240.08 1023.72H1245.92C1246 1024.23 1246.25 1024.64 1246.68 1024.92C1247.13 1025.2 1247.68 1025.34 1248.35 1025.34C1248.89 1025.34 1249.33 1025.24 1249.68 1025.06C1250.03 1024.87 1250.21 1024.61 1250.22 1024.27C1250.21 1023.96 1250.06 1023.71 1249.75 1023.52C1249.45 1023.34 1248.99 1023.19 1248.35 1023.08L1245.45 1022.57C1243.78 1022.27 1242.53 1021.72 1241.7 1020.9C1240.87 1020.09 1240.46 1019.04 1240.46 1017.75C1240.46 1016.61 1240.75 1015.65 1241.36 1014.86C1241.97 1014.07 1242.84 1013.46 1243.97 1013.05C1245.1 1012.63 1246.45 1012.42 1248.01 1012.42C1250.37 1012.42 1252.24 1012.91 1253.6 1013.89C1254.97 1014.87 1255.69 1016.23 1255.76 1017.96ZM1264.33 1029V1007.18H1270.26V1016H1270.55L1277.12 1007.18H1284.02L1276.65 1016.9L1284.19 1029H1277.12L1272.22 1020.82L1270.26 1023.38V1029H1264.33ZM1285.78 1029V1007.18H1295.19C1296.81 1007.18 1298.23 1007.48 1299.45 1008.07C1300.66 1008.66 1301.6 1009.5 1302.28 1010.61C1302.95 1011.72 1303.29 1013.05 1303.29 1014.6C1303.29 1016.16 1302.94 1017.48 1302.25 1018.55C1301.56 1019.62 1300.59 1020.43 1299.34 1020.98C1298.1 1021.52 1296.64 1021.8 1294.98 1021.8H1289.36V1017.2H1293.79C1294.48 1017.2 1295.08 1017.11 1295.57 1016.94C1296.06 1016.76 1296.44 1016.48 1296.71 1016.1C1296.98 1015.72 1297.11 1015.21 1297.11 1014.6C1297.11 1013.97 1296.98 1013.46 1296.71 1013.07C1296.44 1012.68 1296.06 1012.38 1295.57 1012.2C1295.08 1012.01 1294.48 1011.91 1293.79 1011.91H1291.7V1029H1285.78ZM1298.56 1018.99L1304.02 1029H1297.58L1292.25 1018.99H1298.56Z" fill="#FF6D7F"/>
</svg>
