<svg xmlns="http://www.w3.org/2000/svg" width="1920" height="1080" fill="none"><mask id="a" width="157" height="243" x="-4" y="413" maskUnits="userSpaceOnUse" style="mask-type:alpha"><path fill="#D9D9D9" d="m93.137 413 59.12 59.12-97.137 97.138L-4 510.138z"/><path fill="#D9D9D9" d="m152.34 596.537-59.12 59.12-97.138-97.137 59.12-59.12z"/></mask><g mask="url(#a)"><circle cx="193.449" cy="538.449" r="143.957" fill="#FF6D7F"/></g><circle cx="194.5" cy="539.5" r="129.5" fill="#fff" stroke="#3C4043" stroke-width="10"/><ellipse cx="293.693" cy="539.5" fill="#1A73E8" rx="35.306" ry="79.019"/><ellipse cx="307.984" cy="539.5" fill="#3C4043" rx="21.016" ry="47.075"/><path fill="#D2E3FC" d="M556 398.348 704 334v444l-148-64.348V398.348Z"/><path fill="#F3F7FE" d="M649.905 425.436v9.954l6.405-1.735v-9.954l-6.405 1.735Zm0 9.653v9.953l6.405-1.735v-9.954l-6.405 1.736Zm0 9.652v9.954l6.405-1.736v-9.954l-6.405 1.736Zm0 9.652v9.954l6.405-1.736v-9.953l-6.405 1.735Zm0 9.652v9.954l6.405-1.735v-9.954l-6.405 1.735Zm0 9.652v9.954l6.405-1.735v-9.954l-6.405 1.735Zm0 9.652v9.954l6.405-1.735v-9.954l-6.405 1.735Zm0 9.653v9.953l6.405-1.735v-9.954l-6.405 1.736Zm0 9.652v9.954l6.405-1.736v-9.954l-6.405 1.736Zm0 9.652v9.954l6.405-1.736v-9.953l-6.405 1.735Zm0 9.652v9.954l6.405-1.735v-9.954l-6.405 1.735Zm0 9.652v9.954l6.405-1.735v-9.954l-6.405 1.735Zm0 9.652v9.954l6.405-1.735v-9.954l-6.405 1.735Zm0 9.653v9.953l6.405-1.735v-9.954l-6.405 1.736Zm0 29.017v9.953l6.405-1.735v-9.954l-6.405 1.736Zm0 9.652v9.953l6.405-1.735v-9.954l-6.405 1.736Zm0 9.652v9.954l6.405-1.736V597.5l-6.405 1.736Zm0 9.652v9.954l6.405-1.736v-9.953l-6.405 1.735Zm0 9.652v9.954l6.405-1.735v-9.954l-6.405 1.735Zm0 9.652v9.954l6.405-1.735v-9.954l-6.405 1.735Zm0 9.653v9.953l6.405-1.735v-9.954l-6.405 1.736Zm-19.304-207.178v9.954l6.405-1.736v-9.954l-6.405 1.736Zm0 9.652v9.954l6.405-1.736v-9.953l-6.405 1.735Zm0 9.652v9.954l6.405-1.736v-9.953l-6.405 1.735Zm0 9.652v9.954l6.405-1.735v-9.954l-6.405 1.735Zm0 9.652v9.954l6.405-1.735v-9.954l-6.405 1.735Zm0 9.653v9.953l6.405-1.735v-9.954l-6.405 1.736Zm0 9.652v9.954l6.405-1.736v-9.954l-6.405 1.736Zm0 9.652v9.954l6.405-1.736v-9.953l-6.405 1.735Zm0 9.652v9.954l6.405-1.735v-9.954l-6.405 1.735Zm0 29.017v9.954l6.405-1.736v-9.953l-6.405 1.735Zm0 9.652v9.954l6.405-1.735v-9.954l-6.405 1.735Zm0 9.652v9.954l6.405-1.735v-9.954l-6.405 1.735Zm0 9.652v9.954l6.405-1.735v-9.954l-6.405 1.735Zm0 9.653v9.953l6.405-1.735v-9.954l-6.405 1.736Zm0 9.652v9.954l6.405-1.736v-9.954l-6.405 1.736Zm0 9.652v9.954l6.405-1.736v-9.953l-6.405 1.735Zm0 9.652v9.954l6.405-1.735v-9.954l-6.405 1.735Zm-19.304-168.569v9.954l6.405-1.736v-9.953l-6.405 1.735Zm0 9.652v9.954l6.405-1.735v-9.954l-6.405 1.735Zm0 9.652v9.954l6.405-1.735v-9.954l-6.405 1.735Zm0 9.653v9.953l6.405-1.735v-9.954l-6.405 1.736Zm0 9.652v9.954l6.405-1.736v-9.954l-6.405 1.736Zm0 9.652v9.954l6.405-1.736v-9.953l-6.405 1.735Zm0 9.652v9.954l6.405-1.736v-9.953l-6.405 1.735Zm0 9.652v9.954l6.405-1.735v-9.954l-6.405 1.735Zm0 9.652v9.954l6.405-1.735v-9.954l-6.405 1.735Zm0 9.653v9.953l6.405-1.735v-9.954l-6.405 1.736Zm0 9.652v9.954l6.405-1.736v-9.954l-6.405 1.736Zm0 9.652v9.954l6.405-1.736v-9.953l-6.405 1.735Zm0 29.017v9.954l6.405-1.736v-9.954l-6.405 1.736Zm0 9.652v9.954l6.405-1.736v-9.953l-6.405 1.735Zm0 29.017v9.954l6.405-1.736v-9.954l-6.405 1.736Zm0 9.652v9.954l6.405-1.736v-9.953l-6.405 1.735Zm0 9.652v9.954l6.405-1.735v-9.954l-6.405 1.735Zm-19.304-187.934v9.954l6.405-1.735v-9.954l-6.405 1.735Zm0 9.652v9.954l6.405-1.735v-9.954l-6.405 1.735Zm0 9.653v9.953l6.405-1.735v-9.954l-6.405 1.736Zm0 9.652v9.954l6.405-1.736v-9.954l-6.405 1.736Zm0 9.652v9.954l6.405-1.736v-9.953l-6.405 1.735Zm0 9.652v9.954l6.405-1.735v-9.954l-6.405 1.735Zm0 9.652v9.954l6.405-1.735v-9.954l-6.405 1.735Zm0 9.653v9.953l6.405-1.735v-9.954l-6.405 1.736Zm0 9.652v9.954l6.405-1.736v-9.954l-6.405 1.736Zm0 9.652v9.954l6.405-1.736v-9.953l-6.405 1.735Zm0 9.652v9.954l6.405-1.736v-9.953l-6.405 1.735Zm0 9.652v9.954l6.405-1.735v-9.954l-6.405 1.735Zm0 9.652v9.954l6.405-1.735v-9.954l-6.405 1.735Zm0 9.653v9.953l6.405-1.735v-9.954l-6.405 1.736Zm0 29.016v9.954l6.405-1.735v-9.954l-6.405 1.735Zm0 9.653v9.953l6.405-1.735v-9.954l-6.405 1.736Zm0 9.652v9.954l6.405-1.736v-9.954l-6.405 1.736Zm0 9.652v9.954l6.405-1.736v-9.953l-6.405 1.735Zm-19.304-178.221v9.953l6.405-1.735v-9.954l-6.405 1.736Zm0 9.652v9.954l6.405-1.736v-9.954l-6.405 1.736Zm0 9.652v9.954l6.405-1.736v-9.953l-6.405 1.735Zm0 29.017v9.954l6.405-1.736v-9.954l-6.405 1.736Zm0 9.652v9.954l6.405-1.736v-9.953l-6.405 1.735Zm0 9.652v9.954l6.405-1.735v-9.954l-6.405 1.735Zm0 9.652v9.954l6.405-1.735V521.9l-6.405 1.735Zm0 9.653v9.953l6.405-1.735v-9.954l-6.405 1.736Zm0 9.652v9.953l6.405-1.735v-9.954l-6.405 1.736Zm0 9.652v9.954l6.405-1.736v-9.954l-6.405 1.736Zm0 9.652v9.954l6.405-1.736v-9.953l-6.405 1.735Zm0 9.652v9.954l6.405-1.735v-9.954l-6.405 1.735Zm0 9.652v9.954l6.405-1.735v-9.954l-6.405 1.735Zm0 9.653v9.953l6.405-1.735v-9.954l-6.405 1.736Zm0 9.652v9.954l6.405-1.736v-9.954l-6.405 1.736Zm0 9.652v9.954l6.405-1.736v-9.953l-6.405 1.735Zm0 9.652v9.954l6.405-1.735v-9.954l-6.405 1.735Z"/><path fill="#D2E3FC" d="M800 398.348 948 334v444l-148-64.348V398.348Z"/><path fill="#F3F7FE" d="M893.905 425.436v9.954l6.405-1.735v-9.954l-6.405 1.735Zm0 9.653v9.953l6.405-1.735v-9.954l-6.405 1.736Zm0 9.652v9.954l6.405-1.736v-9.954l-6.405 1.736Zm0 9.652v9.954l6.405-1.736v-9.953l-6.405 1.735Zm0 9.652v9.954l6.405-1.735v-9.954l-6.405 1.735Zm0 9.652v9.954l6.405-1.735v-9.954l-6.405 1.735Zm0 9.652v9.954l6.405-1.735v-9.954l-6.405 1.735Zm0 9.653v9.953l6.405-1.735v-9.954l-6.405 1.736Zm0 9.652v9.954l6.405-1.736v-9.954l-6.405 1.736Zm0 9.652v9.954l6.405-1.736v-9.953l-6.405 1.735Zm0 9.652v9.954l6.405-1.735v-9.954l-6.405 1.735Zm0 9.652v9.954l6.405-1.735v-9.954l-6.405 1.735Zm0 9.652v9.954l6.405-1.735v-9.954l-6.405 1.735Zm0 9.653v9.953l6.405-1.735v-9.954l-6.405 1.736Zm0 29.017v9.953l6.405-1.735v-9.954l-6.405 1.736Zm0 9.652v9.953l6.405-1.735v-9.954l-6.405 1.736Zm0 9.652v9.954l6.405-1.736V597.5l-6.405 1.736Zm0 9.652v9.954l6.405-1.736v-9.953l-6.405 1.735Zm0 9.652v9.954l6.405-1.735v-9.954l-6.405 1.735Zm0 9.652v9.954l6.405-1.735v-9.954l-6.405 1.735Zm0 9.653v9.953l6.405-1.735v-9.954l-6.405 1.736Zm-19.304-207.178v9.954l6.405-1.736v-9.954l-6.405 1.736Zm0 9.652v9.954l6.405-1.736v-9.953l-6.405 1.735Zm0 9.652v9.954l6.405-1.736v-9.953l-6.405 1.735Zm0 9.652v9.954l6.405-1.735v-9.954l-6.405 1.735Zm0 9.652v9.954l6.405-1.735v-9.954l-6.405 1.735Zm0 9.653v9.953l6.405-1.735v-9.954l-6.405 1.736Zm0 9.652v9.954l6.405-1.736v-9.954l-6.405 1.736Zm0 9.652v9.954l6.405-1.736v-9.953l-6.405 1.735Zm0 9.652v9.954l6.405-1.735v-9.954l-6.405 1.735Zm0 29.017v9.954l6.405-1.736v-9.953l-6.405 1.735Zm0 9.652v9.954l6.405-1.735v-9.954l-6.405 1.735Zm0 9.652v9.954l6.405-1.735v-9.954l-6.405 1.735Zm0 9.652v9.954l6.405-1.735v-9.954l-6.405 1.735Zm0 9.653v9.953l6.405-1.735v-9.954l-6.405 1.736Zm0 9.652v9.954l6.405-1.736v-9.954l-6.405 1.736Zm0 9.652v9.954l6.405-1.736v-9.953l-6.405 1.735Zm0 9.652v9.954l6.405-1.735v-9.954l-6.405 1.735Zm-19.304-168.569v9.954l6.405-1.736v-9.953l-6.405 1.735Zm0 9.652v9.954l6.405-1.735v-9.954l-6.405 1.735Zm0 9.652v9.954l6.405-1.735v-9.954l-6.405 1.735Zm0 9.653v9.953l6.405-1.735v-9.954l-6.405 1.736Zm0 9.652v9.954l6.405-1.736v-9.954l-6.405 1.736Zm0 9.652v9.954l6.405-1.736v-9.953l-6.405 1.735Zm0 9.652v9.954l6.405-1.736v-9.953l-6.405 1.735Zm0 9.652v9.954l6.405-1.735v-9.954l-6.405 1.735Zm0 9.652v9.954l6.405-1.735v-9.954l-6.405 1.735Zm0 9.653v9.953l6.405-1.735v-9.954l-6.405 1.736Zm0 9.652v9.954l6.405-1.736v-9.954l-6.405 1.736Zm0 9.652v9.954l6.405-1.736v-9.953l-6.405 1.735Zm0 29.017v9.954l6.405-1.736v-9.954l-6.405 1.736Zm0 9.652v9.954l6.405-1.736v-9.953l-6.405 1.735Zm0 29.017v9.954l6.405-1.736v-9.954l-6.405 1.736Zm0 9.652v9.954l6.405-1.736v-9.953l-6.405 1.735Zm0 9.652v9.954l6.405-1.735v-9.954l-6.405 1.735Zm-19.304-187.934v9.954l6.405-1.735v-9.954l-6.405 1.735Zm0 9.652v9.954l6.405-1.735v-9.954l-6.405 1.735Zm0 9.653v9.953l6.405-1.735v-9.954l-6.405 1.736Zm0 9.652v9.954l6.405-1.736v-9.954l-6.405 1.736Zm0 9.652v9.954l6.405-1.736v-9.953l-6.405 1.735Zm0 9.652v9.954l6.405-1.735v-9.954l-6.405 1.735Zm0 9.652v9.954l6.405-1.735v-9.954l-6.405 1.735Zm0 9.653v9.953l6.405-1.735v-9.954l-6.405 1.736Zm0 9.652v9.954l6.405-1.736v-9.954l-6.405 1.736Zm0 9.652v9.954l6.405-1.736v-9.953l-6.405 1.735Zm0 9.652v9.954l6.405-1.736v-9.953l-6.405 1.735Zm0 9.652v9.954l6.405-1.735v-9.954l-6.405 1.735Zm0 9.652v9.954l6.405-1.735v-9.954l-6.405 1.735Zm0 9.653v9.953l6.405-1.735v-9.954l-6.405 1.736Zm0 29.016v9.954l6.405-1.735v-9.954l-6.405 1.735Zm0 9.653v9.953l6.405-1.735v-9.954l-6.405 1.736Zm0 9.652v9.954l6.405-1.736v-9.954l-6.405 1.736Zm0 9.652v9.954l6.405-1.736v-9.953l-6.405 1.735Zm-19.304-178.221v9.953l6.405-1.735v-9.954l-6.405 1.736Zm0 9.652v9.954l6.405-1.736v-9.954l-6.405 1.736Zm0 9.652v9.954l6.405-1.736v-9.953l-6.405 1.735Zm0 29.017v9.954l6.405-1.736v-9.954l-6.405 1.736Zm0 9.652v9.954l6.405-1.736v-9.953l-6.405 1.735Zm0 9.652v9.954l6.405-1.735v-9.954l-6.405 1.735Zm0 9.652v9.954l6.405-1.735V521.9l-6.405 1.735Zm0 9.653v9.953l6.405-1.735v-9.954l-6.405 1.736Zm0 9.652v9.953l6.405-1.735v-9.954l-6.405 1.736Zm0 9.652v9.954l6.405-1.736v-9.954l-6.405 1.736Zm0 9.652v9.954l6.405-1.736v-9.953l-6.405 1.735Zm0 9.652v9.954l6.405-1.735v-9.954l-6.405 1.735Zm0 9.652v9.954l6.405-1.735v-9.954l-6.405 1.735Zm0 9.653v9.953l6.405-1.735v-9.954l-6.405 1.736Zm0 9.652v9.954l6.405-1.736v-9.954l-6.405 1.736Zm0 9.652v9.954l6.405-1.736v-9.953l-6.405 1.735Zm0 9.652v9.954l6.405-1.735v-9.954l-6.405 1.735Z"/><path stroke="#1A73E8" stroke-dasharray="14 23" stroke-linecap="round" stroke-width="5" d="m88.761 575.934 565.174-152.695"/><path stroke="#FF6D7F" stroke-dasharray="14 23" stroke-linecap="round" stroke-width="5" d="m84 558 818.5-124"/><path stroke="#1A73E8" stroke-dasharray="14 23" stroke-linecap="round" stroke-width="5" d="m88.761 503.066 565.173 152.696"/><path stroke="#FF6D7F" stroke-dasharray="14 23" stroke-linecap="round" stroke-width="5" d="m84 521 818.5 124"/><mask id="b" width="156" height="127" x="1235" y="476" maskUnits="userSpaceOnUse" style="mask-type:alpha"><path fill="#D9D9D9" d="m1253.33 549.273-17.89-33.269 143.17-39.279 12.22 76.47-137.5-3.922Z"/><path fill="#D9D9D9" d="m1253.35 530.169-17.91 33.256 143.14 39.387 12.27-76.46-137.5 3.817Z"/></mask><g mask="url(#b)"><circle cx="1241.98" cy="540" r="135" fill="#D2E3FC" transform="rotate(-180 1241.98 540)"/></g><mask id="c" width="157" height="243" x="918" y="413" maskUnits="userSpaceOnUse" style="mask-type:alpha"><path fill="#D9D9D9" d="m1015.14 413 59.12 59.12-97.137 97.138-59.12-59.12z"/><path fill="#D9D9D9" d="m1074.34 596.537-59.12 59.12-97.138-97.137 59.12-59.12z"/></mask><g mask="url(#c)"><circle cx="1115.45" cy="538.449" r="143.957" fill="#FF6D7F"/></g><circle cx="1116.5" cy="539.5" r="129.5" fill="#fff" stroke="#3C4043" stroke-width="10"/><ellipse cx="1215.69" cy="539.5" fill="#1A73E8" rx="35.306" ry="79.019"/><ellipse cx="1229.98" cy="539.5" fill="#3C4043" rx="21.016" ry="47.075"/><path fill="#D2E3FC" d="M1478 398.348 1626 334v444l-148-64.348V398.348Z"/><path fill="#F3F7FE" d="M1571.9 425.436v9.954l6.41-1.735v-9.954l-6.41 1.735Zm0 9.653v9.953l6.41-1.735v-9.954l-6.41 1.736Zm0 9.652v9.954l6.41-1.736v-9.954l-6.41 1.736Zm0 9.652v9.954l6.41-1.736v-9.953l-6.41 1.735Zm0 9.652v9.954l6.41-1.735v-9.954l-6.41 1.735Zm0 9.652v9.954l6.41-1.735v-9.954l-6.41 1.735Zm0 9.652v9.954l6.41-1.735v-9.954l-6.41 1.735Zm0 9.653v9.953l6.41-1.735v-9.954l-6.41 1.736Zm0 9.652v9.954l6.41-1.736v-9.954l-6.41 1.736Zm0 9.652v9.954l6.41-1.736v-9.953l-6.41 1.735Zm0 9.652v9.954l6.41-1.735v-9.954l-6.41 1.735Zm0 9.652v9.954l6.41-1.735v-9.954l-6.41 1.735Zm0 9.652v9.954l6.41-1.735v-9.954l-6.41 1.735Zm0 9.653v9.953l6.41-1.735v-9.954l-6.41 1.736Zm0 29.017v9.953l6.41-1.735v-9.954l-6.41 1.736Zm0 9.652v9.953l6.41-1.735v-9.954l-6.41 1.736Zm0 9.652v9.954l6.41-1.736V597.5l-6.41 1.736Zm0 9.652v9.954l6.41-1.736v-9.953l-6.41 1.735Zm0 9.652v9.954l6.41-1.735v-9.954l-6.41 1.735Zm0 9.652v9.954l6.41-1.735v-9.954l-6.41 1.735Zm0 9.653v9.953l6.41-1.735v-9.954l-6.41 1.736Zm-19.3-207.178v9.954l6.41-1.736v-9.954l-6.41 1.736Zm0 9.652v9.954l6.41-1.736v-9.953l-6.41 1.735Zm0 9.652v9.954l6.41-1.736v-9.953l-6.41 1.735Zm0 9.652v9.954l6.41-1.735v-9.954l-6.41 1.735Zm0 9.652v9.954l6.41-1.735v-9.954l-6.41 1.735Zm0 9.653v9.953l6.41-1.735v-9.954l-6.41 1.736Zm0 9.652v9.954l6.41-1.736v-9.954l-6.41 1.736Zm0 9.652v9.954l6.41-1.736v-9.953l-6.41 1.735Zm0 9.652v9.954l6.41-1.735v-9.954l-6.41 1.735Zm0 29.017v9.954l6.41-1.736v-9.953l-6.41 1.735Zm0 9.652v9.954l6.41-1.735v-9.954l-6.41 1.735Zm0 9.652v9.954l6.41-1.735v-9.954l-6.41 1.735Zm0 9.652v9.954l6.41-1.735v-9.954l-6.41 1.735Zm0 9.653v9.953l6.41-1.735v-9.954l-6.41 1.736Zm0 9.652v9.954l6.41-1.736v-9.954l-6.41 1.736Zm0 9.652v9.954l6.41-1.736v-9.953l-6.41 1.735Zm0 9.652v9.954l6.41-1.735v-9.954l-6.41 1.735Zm-19.3-168.569v9.954l6.4-1.736v-9.953l-6.4 1.735Zm0 9.652v9.954l6.4-1.735v-9.954l-6.4 1.735Zm0 9.652v9.954l6.4-1.735v-9.954l-6.4 1.735Zm0 9.653v9.953l6.4-1.735v-9.954l-6.4 1.736Zm0 9.652v9.954l6.4-1.736v-9.954l-6.4 1.736Zm0 9.652v9.954l6.4-1.736v-9.953l-6.4 1.735Zm0 9.652v9.954l6.4-1.736v-9.953l-6.4 1.735Zm0 9.652v9.954l6.4-1.735v-9.954l-6.4 1.735Zm0 9.652v9.954l6.4-1.735v-9.954l-6.4 1.735Zm0 9.653v9.953l6.4-1.735v-9.954l-6.4 1.736Zm0 9.652v9.954l6.4-1.736v-9.954l-6.4 1.736Zm0 9.652v9.954l6.4-1.736v-9.953l-6.4 1.735Zm0 29.017v9.954l6.4-1.736v-9.954l-6.4 1.736Zm0 9.652v9.954l6.4-1.736v-9.953l-6.4 1.735Zm0 29.017v9.954l6.4-1.736v-9.954l-6.4 1.736Zm0 9.652v9.954l6.4-1.736v-9.953l-6.4 1.735Zm0 9.652v9.954l6.4-1.735v-9.954l-6.4 1.735Zm-19.31-187.934v9.954l6.41-1.735v-9.954l-6.41 1.735Zm0 9.652v9.954l6.41-1.735v-9.954l-6.41 1.735Zm0 9.653v9.953l6.41-1.735v-9.954l-6.41 1.736Zm0 9.652v9.954l6.41-1.736v-9.954l-6.41 1.736Zm0 9.652v9.954l6.41-1.736v-9.953l-6.41 1.735Zm0 9.652v9.954l6.41-1.735v-9.954l-6.41 1.735Zm0 9.652v9.954l6.41-1.735v-9.954l-6.41 1.735Zm0 9.653v9.953l6.41-1.735v-9.954l-6.41 1.736Zm0 9.652v9.954l6.41-1.736v-9.954l-6.41 1.736Zm0 9.652v9.954l6.41-1.736v-9.953l-6.41 1.735Zm0 9.652v9.954l6.41-1.736v-9.953l-6.41 1.735Zm0 9.652v9.954l6.41-1.735v-9.954l-6.41 1.735Zm0 9.652v9.954l6.41-1.735v-9.954l-6.41 1.735Zm0 9.653v9.953l6.41-1.735v-9.954l-6.41 1.736Zm0 29.016v9.954l6.41-1.735v-9.954l-6.41 1.735Zm0 9.653v9.953l6.41-1.735v-9.954l-6.41 1.736Zm0 9.652v9.954l6.41-1.736v-9.954l-6.41 1.736Zm0 9.652v9.954l6.41-1.736v-9.953l-6.41 1.735Zm-19.3-178.221v9.953l6.4-1.735v-9.954l-6.4 1.736Zm0 9.652v9.954l6.4-1.736v-9.954l-6.4 1.736Zm0 9.652v9.954l6.4-1.736v-9.953l-6.4 1.735Zm0 29.017v9.954l6.4-1.736v-9.954l-6.4 1.736Zm0 9.652v9.954l6.4-1.736v-9.953l-6.4 1.735Zm0 9.652v9.954l6.4-1.735v-9.954l-6.4 1.735Zm0 9.652v9.954l6.4-1.735V521.9l-6.4 1.735Zm0 9.653v9.953l6.4-1.735v-9.954l-6.4 1.736Zm0 9.652v9.953l6.4-1.735v-9.954l-6.4 1.736Zm0 9.652v9.954l6.4-1.736v-9.954l-6.4 1.736Zm0 9.652v9.954l6.4-1.736v-9.953l-6.4 1.735Zm0 9.652v9.954l6.4-1.735v-9.954l-6.4 1.735Zm0 9.652v9.954l6.4-1.735v-9.954l-6.4 1.735Zm0 9.653v9.953l6.4-1.735v-9.954l-6.4 1.736Zm0 9.652v9.954l6.4-1.736v-9.954l-6.4 1.736Zm0 9.652v9.954l6.4-1.736v-9.953l-6.4 1.735Zm0 9.652v9.954l6.4-1.735v-9.954l-6.4 1.735Z"/><path stroke="#1A73E8" stroke-dasharray="14 23" stroke-linecap="round" stroke-width="5" d="m1010.76 575.934 565.17-152.695M1010.761 503.066l565.173 152.696"/><path fill="#FF6D7F" d="M65.9 243h-3.024v-8.424c0-.624-.144-1.104-.432-1.44-.288-.336-.792-.504-1.512-.504h-7.848V243H50.06v-25.2h9c1.296 0 2.424.192 3.384.576.96.36 1.752.852 2.376 1.476a5.83 5.83 0 0 1 1.44 2.196 6.74 6.74 0 0 1 .504 2.592v1.08c0 .936-.264 1.872-.792 2.808-.504.936-1.296 1.656-2.376 2.16v.432c.72.12 1.284.408 1.692.864.408.456.612 1.104.612 1.944V243Zm-12.816-13.176H58.7c1.704 0 2.964-.36 3.78-1.08.84-.744 1.26-1.824 1.26-3.24v-.648c0-1.272-.42-2.292-1.26-3.06-.816-.792-2.076-1.188-3.78-1.188h-5.616v9.216ZM72.427 217.8h15.264v2.808h-12.24v8.352h12.024v2.808H75.451v8.424h12.456V243h-15.48v-25.2Zm20.819 0h17.712v2.808h-7.344V243h-3.024v-22.392h-7.344V217.8Zm22.907 0h15.984v2.808h-6.48v19.584h6.48V243h-15.984v-2.808h6.48v-19.584h-6.48V217.8Zm34.967 23.904h.432V217.8h3.024V243h-6.048l-7.272-23.904h-.432V243H137.8v-25.2h6.048l7.272 23.904Zm22.511-4.968h-10.8L160.995 243h-3.24l7.632-25.2h5.688l7.632 25.2h-3.24l-1.836-6.264Zm-5.616-17.64-4.356 14.832h9.144l-4.356-14.832h-.432ZM1241.97 217.8h3.24l6.59 23.904h.43l6.59-23.904h3.24l-7.13 25.2h-5.83l-7.13-25.2Zm24.1 0h15.98v2.808h-6.48v19.584h6.48V243h-15.98v-2.808h6.48v-19.584h-6.48V217.8Zm22.4 0h15.26v2.808h-12.24v8.352h12.03v2.808h-12.03v8.424h12.46V243h-15.48v-25.2Zm37.74 25.2h-5.51l-2.34-23.904h-.43L1315.59 243h-5.51l-2.56-25.2h2.74l2.41 23.904h.43l2.27-23.904h5.55l2.26 23.904h.44l2.41-23.904h2.73l-2.55 25.2Zm5.99-25.2h15.98v2.808h-6.48v19.584h6.48V243h-15.98v-2.808h6.48v-19.584h-6.48V217.8Zm34.96 23.904h.43V217.8h3.03V243h-6.05l-7.27-23.904h-.43V243h-3.03v-25.2h6.05l7.27 23.904Zm14.7-10.8h11.23V243h-2.8v-3.024h-.44c-.4 1.056-1.12 1.908-2.16 2.556-1.03.648-2.23.972-3.6.972-2.71 0-4.84-.876-6.4-2.628-1.54-1.752-2.31-4.308-2.31-7.668v-5.616c0-3.264.78-5.796 2.34-7.596 1.56-1.8 3.73-2.7 6.52-2.7 1.44 0 2.71.24 3.81.72a7.458 7.458 0 0 1 2.78 1.944c.74.816 1.3 1.788 1.69 2.916.38 1.104.57 2.292.57 3.564v.432h-3.02v-.432a7.92 7.92 0 0 0-.36-2.376c-.22-.768-.56-1.44-1.04-2.016a4.636 4.636 0 0 0-1.8-1.404c-.72-.36-1.6-.54-2.63-.54-1.95 0-3.41.708-4.39 2.124-.96 1.416-1.44 3.276-1.44 5.58v5.184c0 2.472.48 4.38 1.44 5.724.98 1.32 2.47 1.98 4.46 1.98 1.8 0 3.2-.576 4.21-1.728 1.03-1.152 1.55-2.76 1.55-4.824v-.432h-8.21v-2.808Zm-124.44 53.832h-10.8l-1.84 6.264h-3.24l7.63-25.2h5.69l7.63 25.2h-3.24l-1.83-6.264Zm-5.62-17.64-4.36 14.832h9.15l-4.36-14.832h-.43Zm27.19 22.608h.43V265.8h3.03V291h-6.05l-7.27-23.904h-.44V291h-3.02v-25.2h6.05l7.27 23.904Zm14.7-10.8h11.23V291h-2.81v-3.024h-.43c-.41 1.056-1.13 1.908-2.16 2.556-1.03.648-2.23.972-3.6.972-2.71 0-4.85-.876-6.41-2.628-1.53-1.752-2.3-4.308-2.3-7.668v-5.616c0-3.264.78-5.796 2.34-7.596 1.56-1.8 3.73-2.7 6.52-2.7 1.44 0 2.71.24 3.81.72 1.11.456 2.03 1.104 2.77 1.944.75.816 1.31 1.788 1.7 2.916.38 1.104.57 2.292.57 3.564v.432h-3.02v-.432a7.92 7.92 0 0 0-.36-2.376 5.452 5.452 0 0 0-1.05-2.016c-.45-.6-1.05-1.068-1.8-1.404-.72-.36-1.59-.54-2.62-.54-1.95 0-3.41.708-4.4 2.124-.96 1.416-1.44 3.276-1.44 5.58v5.184c0 2.472.48 4.38 1.44 5.724.99 1.32 2.48 1.98 4.47 1.98 1.8 0 3.2-.576 4.21-1.728 1.03-1.152 1.55-2.76 1.55-4.824v-.432h-8.21v-2.808Zm16.57-13.104h3.02v22.392h13.18V291h-16.2v-25.2Zm22.3 0h15.26v2.808h-12.24v8.352h12.02v2.808h-12.02v8.424h12.46V291h-15.48v-25.2ZM1716.96 536.072c0-.816-.17-1.536-.51-2.16a4.255 4.255 0 0 0-1.29-1.548 6.254 6.254 0 0 0-1.91-.936 7.875 7.875 0 0 0-2.27-.324c-.7 0-1.36.096-1.98.288-.62.168-1.19.42-1.69.756-.48.336-.87.756-1.15 1.26-.29.48-.44 1.044-.44 1.692v.216c0 .696.15 1.296.44 1.8.28.48.7.9 1.26 1.26.57.336 1.28.624 2.12.864.84.216 1.82.408 2.95.576 2.64.408 4.59 1.188 5.83 2.34 1.25 1.128 1.88 2.652 1.88 4.572v.432c0 1.08-.2 2.076-.58 2.988a5.97 5.97 0 0 1-1.66 2.304c-.72.648-1.62 1.152-2.7 1.512-1.08.36-2.32.54-3.74.54-1.61 0-3.04-.228-4.28-.684-1.23-.48-2.26-1.128-3.1-1.944a8.584 8.584 0 0 1-1.87-2.916c-.43-1.128-.65-2.352-.65-3.672v-1.08h3.02v.864c0 2.208.6 3.864 1.8 4.968 1.23 1.104 2.92 1.656 5.08 1.656 1.87 0 3.28-.408 4.21-1.224.96-.84 1.44-1.944 1.44-3.312v-.216c0-1.32-.49-2.328-1.47-3.024-.96-.696-2.54-1.2-4.72-1.512-1.27-.168-2.42-.42-3.46-.756-1-.36-1.87-.816-2.59-1.368a5.847 5.847 0 0 1-1.65-2.052c-.39-.792-.58-1.728-.58-2.808v-.432c0-.984.2-1.884.61-2.7.41-.816.97-1.524 1.69-2.124.75-.6 1.62-1.056 2.63-1.368 1.03-.336 2.16-.504 3.39-.504 1.41 0 2.67.204 3.78.612 1.12.408 2.07.96 2.84 1.656a6.435 6.435 0 0 1 1.73 2.412c.41.912.61 1.872.61 2.88v1.512h-3.02v-1.296Zm8.11-7.272h15.98v2.808h-6.48v19.584h6.48V554h-15.98v-2.808h6.48v-19.584h-6.48V528.8Zm21.79 0h16.85v4.536l-15.12 17.424v.432h15.55V554h-18.15v-4.536l15.12-17.424v-.432h-14.25V528.8Zm22.65 0h15.27v2.808h-12.24v8.352h12.02v2.808h-12.02v8.424h12.45V554h-15.48v-25.2ZM567.16 240.696c1.032 0 1.908-.168 2.628-.504.744-.36 1.344-.828 1.8-1.404a5.77 5.77 0 0 0 1.044-2.016 8.04 8.04 0 0 0 .36-2.412v-.432h3.024v.432c0 1.272-.192 2.472-.576 3.6a8.618 8.618 0 0 1-1.692 2.916c-.744.816-1.668 1.464-2.772 1.944-1.104.456-2.376.684-3.816.684-2.784 0-4.956-.876-6.516-2.628-1.56-1.752-2.34-4.308-2.34-7.668v-5.616c0-3.264.78-5.796 2.34-7.596 1.56-1.8 3.732-2.7 6.516-2.7 1.44 0 2.712.24 3.816.72 1.104.456 2.028 1.104 2.772 1.944.744.816 1.308 1.788 1.692 2.916.384 1.104.576 2.292.576 3.564v.432h-3.024v-.432a8.795 8.795 0 0 0-.396-2.376 5.383 5.383 0 0 0-1.044-2.016 4.636 4.636 0 0 0-1.764-1.404c-.72-.36-1.596-.54-2.628-.54-1.944 0-3.408.708-4.392 2.124-.96 1.416-1.44 3.276-1.44 5.58v5.184c0 2.472.48 4.38 1.44 5.724.984 1.32 2.448 1.98 4.392 1.98Zm14.015-22.896h3.024v22.392h13.176V243h-16.2v-25.2Zm21.071 9.792c0-3.264.78-5.796 2.34-7.596 1.56-1.8 3.732-2.7 6.516-2.7s4.956.9 6.516 2.7c1.56 1.8 2.34 4.332 2.34 7.596v5.616c0 3.36-.78 5.916-2.34 7.668-1.56 1.752-3.732 2.628-6.516 2.628s-4.956-.876-6.516-2.628c-1.56-1.752-2.34-4.308-2.34-7.668v-5.616Zm8.856 13.104c1.944 0 3.396-.66 4.356-1.98.984-1.344 1.476-3.252 1.476-5.724v-5.184c0-2.304-.492-4.164-1.476-5.58-.96-1.416-2.412-2.124-4.356-2.124s-3.408.708-4.392 2.124c-.96 1.416-1.44 3.276-1.44 5.58v5.184c0 2.472.48 4.38 1.44 5.724.984 1.32 2.448 1.98 4.392 1.98Zm27.983-15.624c0-.816-.168-1.536-.504-2.16a4.27 4.27 0 0 0-1.296-1.548 6.154 6.154 0 0 0-1.908-.936 7.85 7.85 0 0 0-2.268-.324c-.696 0-1.356.096-1.98.288a5.694 5.694 0 0 0-1.692.756c-.48.336-.864.756-1.152 1.26-.288.48-.432 1.044-.432 1.692v.216c0 .696.144 1.296.432 1.8.288.48.708.9 1.26 1.26.576.336 1.284.624 2.124.864.84.216 1.824.408 2.952.576 2.64.408 4.584 1.188 5.832 2.34 1.248 1.128 1.872 2.652 1.872 4.572v.432c0 1.08-.192 2.076-.576 2.988a6.023 6.023 0 0 1-1.656 2.304c-.72.648-1.62 1.152-2.7 1.512-1.08.36-2.328.54-3.744.54-1.608 0-3.036-.228-4.284-.684-1.224-.48-2.256-1.128-3.096-1.944a8.68 8.68 0 0 1-1.872-2.916c-.432-1.128-.648-2.352-.648-3.672v-1.08h3.024v.864c0 2.208.6 3.864 1.8 4.968 1.224 1.104 2.916 1.656 5.076 1.656 1.872 0 3.276-.408 4.212-1.224.96-.84 1.44-1.944 1.44-3.312v-.216c0-1.32-.492-2.328-1.476-3.024-.96-.696-2.532-1.2-4.716-1.512-1.272-.168-2.424-.42-3.456-.756-1.008-.36-1.872-.816-2.592-1.368a5.91 5.91 0 0 1-1.656-2.052c-.384-.792-.576-1.728-.576-2.808v-.432c0-.984.204-1.884.612-2.7a6.563 6.563 0 0 1 1.692-2.124c.744-.6 1.62-1.056 2.628-1.368 1.032-.336 2.16-.504 3.384-.504 1.416 0 2.676.204 3.78.612 1.128.408 2.076.96 2.844 1.656a6.386 6.386 0 0 1 1.728 2.412c.408.912.612 1.872.612 2.88v1.512h-3.024v-1.296Zm8.471-7.272h15.264v2.808h-12.24v8.352h12.024v2.808H650.58v8.424h12.456V243h-15.48v-25.2Zm-88.928 48h8.28c3.12 0 5.4.744 6.84 2.232 1.44 1.488 2.16 3.864 2.16 7.128v6.48c0 3.264-.72 5.64-2.16 7.128-1.44 1.488-3.72 2.232-6.84 2.232h-8.28v-2.844h2.16v-19.548h-2.16V265.8Zm7.848 22.392c1.104 0 2.052-.108 2.844-.324.816-.216 1.488-.576 2.016-1.08.528-.528.912-1.224 1.152-2.088.264-.864.396-1.956.396-3.276v-6.048c0-1.32-.132-2.412-.396-3.276-.24-.864-.624-1.548-1.152-2.052-.528-.528-1.2-.9-2.016-1.116-.792-.216-1.74-.324-2.844-.324h-2.664v19.584h2.664Zm14.591-22.392h15.984v2.808h-6.48v19.584h6.48V291h-15.984v-2.808h6.48v-19.584h-6.48V265.8Zm35.975 7.272c0-.816-.168-1.536-.504-2.16a4.27 4.27 0 0 0-1.296-1.548 6.154 6.154 0 0 0-1.908-.936 7.85 7.85 0 0 0-2.268-.324c-.696 0-1.356.096-1.98.288a5.694 5.694 0 0 0-1.692.756c-.48.336-.864.756-1.152 1.26-.288.48-.432 1.044-.432 1.692v.216c0 .696.144 1.296.432 1.8.288.48.708.9 1.26 1.26.576.336 1.284.624 2.124.864.84.216 1.824.408 2.952.576 2.64.408 4.584 1.188 5.832 2.34 1.248 1.128 1.872 2.652 1.872 4.572v.432c0 1.08-.192 2.076-.576 2.988a6.023 6.023 0 0 1-1.656 2.304c-.72.648-1.62 1.152-2.7 1.512-1.08.36-2.328.54-3.744.54-1.608 0-3.036-.228-4.284-.684-1.224-.48-2.256-1.128-3.096-1.944a8.68 8.68 0 0 1-1.872-2.916c-.432-1.128-.648-2.352-.648-3.672v-1.08h3.024v.864c0 2.208.6 3.864 1.8 4.968 1.224 1.104 2.916 1.656 5.076 1.656 1.872 0 3.276-.408 4.212-1.224.96-.84 1.44-1.944 1.44-3.312v-.216c0-1.32-.492-2.328-1.476-3.024-.96-.696-2.532-1.2-4.716-1.512-1.272-.168-2.424-.42-3.456-.756-1.008-.36-1.872-.816-2.592-1.368a5.91 5.91 0 0 1-1.656-2.052c-.384-.792-.576-1.728-.576-2.808v-.432c0-.984.204-1.884.612-2.7a6.563 6.563 0 0 1 1.692-2.124c.744-.6 1.62-1.056 2.628-1.368 1.032-.336 2.16-.504 3.384-.504 1.416 0 2.676.204 3.78.612 1.128.408 2.076.96 2.844 1.656a6.386 6.386 0 0 1 1.728 2.412c.408.912.612 1.872.612 2.88v1.512h-3.024v-1.296Zm7.247-7.272h17.712v2.808h-7.344V291h-3.024v-22.392h-7.344V265.8Zm36.299 18.936h-10.8L647.952 291h-3.24l7.632-25.2h5.688l7.632 25.2h-3.24l-1.836-6.264Zm-5.616-17.64-4.356 14.832h9.144l-4.356-14.832h-.432Zm27.191 22.608h.432V265.8h3.024V291h-6.048l-7.272-23.904h-.432V291h-3.024v-25.2h6.048l7.272 23.904Zm17.255-1.008c1.032 0 1.908-.168 2.628-.504.744-.36 1.344-.828 1.8-1.404a5.77 5.77 0 0 0 1.044-2.016 8.04 8.04 0 0 0 .36-2.412v-.432h3.024v.432c0 1.272-.192 2.472-.576 3.6a8.618 8.618 0 0 1-1.692 2.916c-.744.816-1.668 1.464-2.772 1.944-1.104.456-2.376.684-3.816.684-2.784 0-4.956-.876-6.516-2.628-1.56-1.752-2.34-4.308-2.34-7.668v-5.616c0-3.264.78-5.796 2.34-7.596 1.56-1.8 3.732-2.7 6.516-2.7 1.44 0 2.712.24 3.816.72 1.104.456 2.028 1.104 2.772 1.944.744.816 1.308 1.788 1.692 2.916.384 1.104.576 2.292.576 3.564v.432h-3.024v-.432a8.795 8.795 0 0 0-.396-2.376 5.383 5.383 0 0 0-1.044-2.016 4.636 4.636 0 0 0-1.764-1.404c-.72-.36-1.596-.54-2.628-.54-1.944 0-3.408.708-4.392 2.124-.96 1.416-1.44 3.276-1.44 5.58v5.184c0 2.472.48 4.38 1.44 5.724.984 1.32 2.448 1.98 4.392 1.98Zm14.267-22.896h15.264v2.808h-12.24v8.352h12.024v2.808h-12.024v8.424h12.456V291h-15.48v-25.2ZM803.42 217.8h15.48v2.808h-12.456v8.352h12.24v2.808h-12.24V243h-3.024v-25.2Zm35.039 18.936h-10.8L825.823 243h-3.24l7.632-25.2h5.688l7.632 25.2h-3.24l-1.836-6.264Zm-5.616-17.64-4.356 14.832h9.144l-4.356-14.832h-.432ZM862.986 243h-3.024v-8.424c0-.624-.144-1.104-.432-1.44-.288-.336-.792-.504-1.512-.504h-7.848V243h-3.024v-25.2h9c1.296 0 2.424.192 3.384.576.96.36 1.752.852 2.376 1.476a5.83 5.83 0 0 1 1.44 2.196 6.74 6.74 0 0 1 .504 2.592v1.08c0 .936-.264 1.872-.792 2.808-.504.936-1.296 1.656-2.376 2.16v.432c.72.12 1.284.408 1.692.864.408.456.612 1.104.612 1.944V243Zm-12.816-13.176h5.616c1.704 0 2.964-.36 3.78-1.08.84-.744 1.26-1.824 1.26-3.24v-.648c0-1.272-.42-2.292-1.26-3.06-.816-.792-2.076-1.188-3.78-1.188h-5.616v9.216ZM802.628 265.8h8.28c3.12 0 5.4.744 6.84 2.232 1.44 1.488 2.16 3.864 2.16 7.128v6.48c0 3.264-.72 5.64-2.16 7.128-1.44 1.488-3.72 2.232-6.84 2.232h-8.28v-2.844h2.16v-19.548h-2.16V265.8Zm7.848 22.392c1.104 0 2.052-.108 2.844-.324.816-.216 1.488-.576 2.016-1.08.528-.528.912-1.224 1.152-2.088.264-.864.396-1.956.396-3.276v-6.048c0-1.32-.132-2.412-.396-3.276-.24-.864-.624-1.548-1.152-2.052-.528-.528-1.2-.9-2.016-1.116-.792-.216-1.74-.324-2.844-.324h-2.664v19.584h2.664Zm14.591-22.392h15.984v2.808h-6.48v19.584h6.48V291h-15.984v-2.808h6.48v-19.584h-6.48V265.8Zm35.975 7.272c0-.816-.168-1.536-.504-2.16a4.27 4.27 0 0 0-1.296-1.548 6.154 6.154 0 0 0-1.908-.936 7.85 7.85 0 0 0-2.268-.324c-.696 0-1.356.096-1.98.288a5.694 5.694 0 0 0-1.692.756c-.48.336-.864.756-1.152 1.26-.288.48-.432 1.044-.432 1.692v.216c0 .696.144 1.296.432 1.8.288.48.708.9 1.26 1.26.576.336 1.284.624 2.124.864.84.216 1.824.408 2.952.576 2.64.408 4.584 1.188 5.832 2.34 1.248 1.128 1.872 2.652 1.872 4.572v.432c0 1.08-.192 2.076-.576 2.988a6.023 6.023 0 0 1-1.656 2.304c-.72.648-1.62 1.152-2.7 1.512-1.08.36-2.328.54-3.744.54-1.608 0-3.036-.228-4.284-.684-1.224-.48-2.256-1.128-3.096-1.944a8.68 8.68 0 0 1-1.872-2.916c-.432-1.128-.648-2.352-.648-3.672v-1.08h3.024v.864c0 2.208.6 3.864 1.8 4.968 1.224 1.104 2.916 1.656 5.076 1.656 1.872 0 3.276-.408 4.212-1.224.96-.84 1.44-1.944 1.44-3.312v-.216c0-1.32-.492-2.328-1.476-3.024-.96-.696-2.532-1.2-4.716-1.512-1.272-.168-2.424-.42-3.456-.756-1.008-.36-1.872-.816-2.592-1.368a5.91 5.91 0 0 1-1.656-2.052c-.384-.792-.576-1.728-.576-2.808v-.432c0-.984.204-1.884.612-2.7a6.563 6.563 0 0 1 1.692-2.124c.744-.6 1.62-1.056 2.628-1.368 1.032-.336 2.16-.504 3.384-.504 1.416 0 2.676.204 3.78.612 1.128.408 2.076.96 2.844 1.656a6.386 6.386 0 0 1 1.728 2.412c.408.912.612 1.872.612 2.88v1.512h-3.024v-1.296Zm7.247-7.272h17.712v2.808h-7.344V291h-3.024v-22.392h-7.344V265.8Zm36.299 18.936h-10.8L891.952 291h-3.24l7.632-25.2h5.688l7.632 25.2h-3.24l-1.836-6.264Zm-5.616-17.64-4.356 14.832h9.144l-4.356-14.832h-.432Zm27.191 22.608h.432V265.8h3.024V291h-6.048l-7.272-23.904h-.432V291h-3.024v-25.2h6.048l7.272 23.904Zm17.255-1.008c1.032 0 1.908-.168 2.628-.504.744-.36 1.344-.828 1.8-1.404a5.77 5.77 0 0 0 1.044-2.016 8.04 8.04 0 0 0 .36-2.412v-.432h3.024v.432c0 1.272-.192 2.472-.576 3.6a8.618 8.618 0 0 1-1.692 2.916c-.744.816-1.668 1.464-2.772 1.944-1.104.456-2.376.684-3.816.684-2.784 0-4.956-.876-6.516-2.628-1.56-1.752-2.34-4.308-2.34-7.668v-5.616c0-3.264.78-5.796 2.34-7.596 1.56-1.8 3.732-2.7 6.516-2.7 1.44 0 2.712.24 3.816.72 1.104.456 2.028 1.104 2.772 1.944.744.816 1.308 1.788 1.692 2.916.384 1.104.576 2.292.576 3.564v.432h-3.024v-.432a8.795 8.795 0 0 0-.396-2.376 5.383 5.383 0 0 0-1.044-2.016 4.636 4.636 0 0 0-1.764-1.404c-.72-.36-1.596-.54-2.628-.54-1.944 0-3.408.708-4.392 2.124-.96 1.416-1.44 3.276-1.44 5.58v5.184c0 2.472.48 4.38 1.44 5.724.984 1.32 2.448 1.98 4.392 1.98Zm14.267-22.896h15.264v2.808h-12.24v8.352h12.024v2.808h-12.024v8.424h12.456V291h-15.48v-25.2ZM1236.63 837.8h8.28c3.12 0 5.4.744 6.84 2.232 1.44 1.488 2.16 3.864 2.16 7.128v6.48c0 3.264-.72 5.64-2.16 7.128-1.44 1.488-3.72 2.232-6.84 2.232h-8.28v-2.844h2.16v-19.548h-2.16V837.8Zm7.85 22.392c1.1 0 2.05-.108 2.84-.324.82-.216 1.49-.576 2.02-1.08.52-.528.91-1.224 1.15-2.088.26-.864.39-1.956.39-3.276v-6.048c0-1.32-.13-2.412-.39-3.276-.24-.864-.63-1.548-1.15-2.052-.53-.528-1.2-.9-2.02-1.116-.79-.216-1.74-.324-2.84-.324h-2.67v19.584h2.67Zm14.59-22.392h15.98v2.808h-6.48v19.584h6.48V863h-15.98v-2.808h6.48v-19.584h-6.48V837.8Zm35.97 7.272c0-.816-.17-1.536-.5-2.16a4.281 4.281 0 0 0-1.3-1.548 6.143 6.143 0 0 0-1.91-.936 7.806 7.806 0 0 0-2.26-.324c-.7 0-1.36.096-1.98.288-.63.168-1.19.42-1.7.756-.48.336-.86.756-1.15 1.26-.29.48-.43 1.044-.43 1.692v.216c0 .696.14 1.296.43 1.8.29.48.71.9 1.26 1.26.58.336 1.29.624 2.13.864.84.216 1.82.408 2.95.576 2.64.408 4.58 1.188 5.83 2.34 1.25 1.128 1.87 2.652 1.87 4.572v.432c0 1.08-.19 2.076-.57 2.988a6.076 6.076 0 0 1-1.66 2.304c-.72.648-1.62 1.152-2.7 1.512-1.08.36-2.33.54-3.74.54-1.61 0-3.04-.228-4.29-.684-1.22-.48-2.25-1.128-3.09-1.944a8.764 8.764 0 0 1-1.88-2.916c-.43-1.128-.64-2.352-.64-3.672v-1.08h3.02v.864c0 2.208.6 3.864 1.8 4.968 1.22 1.104 2.92 1.656 5.08 1.656 1.87 0 3.27-.408 4.21-1.224.96-.84 1.44-1.944 1.44-3.312v-.216c0-1.32-.49-2.328-1.48-3.024-.96-.696-2.53-1.2-4.71-1.512-1.28-.168-2.43-.42-3.46-.756-1.01-.36-1.87-.816-2.59-1.368a5.99 5.99 0 0 1-1.66-2.052c-.38-.792-.57-1.728-.57-2.808v-.432c0-.984.2-1.884.61-2.7.41-.816.97-1.524 1.69-2.124.74-.6 1.62-1.056 2.63-1.368 1.03-.336 2.16-.504 3.38-.504 1.42 0 2.68.204 3.78.612 1.13.408 2.08.96 2.85 1.656a6.41 6.41 0 0 1 1.72 2.412c.41.912.62 1.872.62 2.88v1.512h-3.03v-1.296Zm7.25-7.272H1320v2.808h-7.34V863h-3.03v-22.392h-7.34V837.8Zm36.3 18.936h-10.8l-1.84 6.264h-3.24l7.63-25.2h5.69l7.63 25.2h-3.24l-1.83-6.264Zm-5.62-17.64-4.35 14.832h9.14l-4.36-14.832h-.43Zm27.19 22.608h.43V837.8h3.03V863h-6.05l-7.27-23.904h-.43V863h-3.03v-25.2h6.05l7.27 23.904Zm17.26-1.008c1.03 0 1.91-.168 2.63-.504.74-.36 1.34-.828 1.8-1.404.48-.6.82-1.272 1.04-2.016a8.04 8.04 0 0 0 .36-2.412v-.432h3.02v.432c0 1.272-.19 2.472-.57 3.6a8.78 8.78 0 0 1-1.69 2.916c-.75.816-1.67 1.464-2.78 1.944-1.1.456-2.37.684-3.81.684-2.79 0-4.96-.876-6.52-2.628-1.56-1.752-2.34-4.308-2.34-7.668v-5.616c0-3.264.78-5.796 2.34-7.596 1.56-1.8 3.73-2.7 6.52-2.7 1.44 0 2.71.24 3.81.72a7.458 7.458 0 0 1 2.78 1.944c.74.816 1.3 1.788 1.69 2.916.38 1.104.57 2.292.57 3.564v.432h-3.02v-.432a8.646 8.646 0 0 0-.4-2.376 5.29 5.29 0 0 0-1.04-2.016 4.653 4.653 0 0 0-1.76-1.404c-.72-.36-1.6-.54-2.63-.54-1.95 0-3.41.708-4.39 2.124-.96 1.416-1.44 3.276-1.44 5.58v5.184c0 2.472.48 4.38 1.44 5.724.98 1.32 2.44 1.98 4.39 1.98Zm14.26-22.896h15.27v2.808h-12.24v8.352h12.02v2.808h-12.02v8.424h12.45V863h-15.48v-25.2Z"/><path stroke="#FF6D7F" stroke-width="10" d="M1647 422h25v245h-25M1579 744v25h-337v-25"/><path fill="#FF6D7F" d="M1307 525.667c-7.36 0-13.33 5.969-13.33 13.333s5.97 13.333 13.33 13.333 13.33-5.969 13.33-13.333-5.97-13.333-13.33-13.333ZM1304.5 319v220h5V319h-5ZM871 391.667c-7.364 0-13.333 5.969-13.333 13.333s5.969 13.333 13.333 13.333 13.333-5.969 13.333-13.333-5.969-13.333-13.333-13.333ZM868.5 319v86h5v-86h-5ZM628 391.667c-7.364 0-13.333 5.969-13.333 13.333s5.969 13.333 13.333 13.333 13.333-5.969 13.333-13.333-5.969-13.333-13.333-13.333ZM625.5 319v86h5v-86h-5ZM61 391.667c-7.364 0-13.333 5.969-13.333 13.333s5.97 13.333 13.333 13.333c7.364 0 13.333-5.969 13.333-13.333S68.363 391.667 61 391.667ZM58.5 267v138h5V267h-5Z"/></svg>