<svg xmlns="http://www.w3.org/2000/svg" width="1920" height="1080" fill="none"><path fill="#1A73E8" d="M247 858a5 5 0 0 0 0 10v-10Zm1429.54 8.536a5.006 5.006 0 0 0 0-7.072l-31.82-31.819a5.01 5.01 0 0 0-7.08 0 5.005 5.005 0 0 0 0 7.071L1665.93 863l-28.29 28.284a5.005 5.005 0 0 0 0 7.071 5.01 5.01 0 0 0 7.08 0l31.82-31.819ZM247 868h1426v-10H247v10Z"/><mask id="a" width="172" height="172" x="386" y="337" maskUnits="userSpaceOnUse" style="mask-type:alpha"><path fill="#D9D9D9" d="M386 337h171.549v171.549H386z"/></mask><g mask="url(#a)"><path fill="#3C4043" d="M462.661 501.402c-3.931 0-7.296-1.132-10.096-3.396-2.799-2.263-4.676-5.122-5.629-8.577l-6.254-22.695c-6.791-4.169-12.301-10.126-16.53-17.869-4.229-7.744-6.343-16.44-6.343-26.09 0-9.65 2.114-18.376 6.343-26.179 4.229-7.803 9.739-13.789 16.53-17.959l6.254-22.695c.953-3.335 2.83-6.135 5.629-8.398 2.8-2.264 6.165-3.396 10.096-3.396h18.406c3.812 0 7.118 1.132 9.918 3.396 2.8 2.263 4.735 5.063 5.808 8.398l6.075 22.695c6.791 4.17 12.33 10.156 16.619 17.959 4.289 7.803 6.433 16.529 6.433 26.179 0 9.65-2.144 18.346-6.433 26.09-4.289 7.743-9.828 13.7-16.619 17.869l-6.075 22.695c-1.073 3.455-3.008 6.314-5.808 8.577-2.8 2.264-6.106 3.396-9.918 3.396h-18.406Zm9.114-40.922c10.603 0 19.538-3.633 26.805-10.9 7.267-7.267 10.9-16.202 10.9-26.805 0-10.603-3.633-19.537-10.9-26.804-7.267-7.267-16.202-10.901-26.805-10.901-10.603 0-19.537 3.634-26.804 10.901-7.267 7.267-10.901 16.201-10.901 26.804 0 10.603 3.634 19.538 10.901 26.805 7.267 7.267 16.201 10.9 26.804 10.9Zm-13.938-89.17a49.89 49.89 0 0 1 13.938-1.965c4.765 0 9.411.655 13.938 1.965l-3.037-12.866h-21.801l-3.038 12.866Zm3.038 115.796h21.801l3.037-12.866a54.551 54.551 0 0 1-13.938 1.787c-4.765 0-9.411-.596-13.938-1.787l3.038 12.866Zm0 0h-3.038 27.876H460.875Z"/></g><mask id="b" width="172" height="173" x="386" y="570" maskUnits="userSpaceOnUse" style="mask-type:alpha"><path fill="#D9D9D9" d="M386 570.672h171.549v171.549H386z"/></mask><g mask="url(#b)"><path fill="#3C4043" d="M404.586 722.206c-3.097 0-5.48-1.4-7.148-4.199-1.667-2.8-1.667-5.569 0-8.309l67.19-115.975c1.668-2.74 4.051-4.11 7.148-4.11 3.098 0 5.48 1.37 7.148 4.11l67.19 115.975c1.668 2.74 1.668 5.509 0 8.309-1.668 2.799-3.991 4.199-6.969 4.199H404.586Zm67.905-80.771c-1.43 0-2.651.477-3.663 1.43-1.013.953-1.519 2.144-1.519 3.574v28.413c0 1.429.536 2.65 1.608 3.663s2.264 1.519 3.574 1.519c1.43 0 2.621-.506 3.574-1.519.953-1.013 1.43-2.234 1.43-3.663v-28.413c0-1.43-.477-2.621-1.43-3.574-.953-.953-2.144-1.43-3.574-1.43Zm0 57.362c1.668 0 3.038-.566 4.11-1.698 1.072-1.131 1.608-2.472 1.608-4.02 0-1.549-.566-2.889-1.697-4.021-1.132-1.132-2.472-1.698-4.021-1.698s-2.919.566-4.11 1.698c-1.191 1.132-1.787 2.472-1.787 4.021 0 1.668.596 3.038 1.787 4.11 1.191 1.072 2.561 1.608 4.11 1.608Zm-57.183 8.935h112.936l-56.468-97.747-56.468 97.747Z"/></g><mask id="c" width="172" height="172" x="874" y="337" maskUnits="userSpaceOnUse" style="mask-type:alpha"><path fill="#D9D9D9" d="M874 337h171.549v171.549H874z"/></mask><g mask="url(#c)"><path fill="#3C4043" d="M880.969 483.173c-1.906 0-3.425-.595-4.557-1.787-1.131-1.191-1.697-2.62-1.697-4.288 0-1.906.566-3.425 1.697-4.557 1.132-1.132 2.651-1.698 4.557-1.698h6.076v-99.534c0-4.646 1.578-8.547 4.735-11.704s6.999-4.736 11.526-4.736h112.934c4.53 0 8.37 1.579 11.53 4.736s4.73 7.058 4.73 11.704v99.534h6.26c1.79 0 3.24.566 4.38 1.698 1.13 1.132 1.69 2.591 1.69 4.378 0 1.906-.56 3.425-1.69 4.557-1.14 1.132-2.59 1.697-4.38 1.697H880.969Zm67.548-12.33h22.873c1.072 0 1.965-.357 2.68-1.072.715-.715 1.072-1.608 1.072-2.68s-.357-1.936-1.072-2.591c-.715-.656-1.608-.983-2.68-.983h-22.873c-1.073 0-1.966.327-2.681.983-.715.655-1.072 1.519-1.072 2.591 0 1.072.357 1.965 1.072 2.68.715.715 1.608 1.072 2.681 1.072Zm-44.496-19.478h112.939v-80.056H904.021v80.056Z"/></g><mask id="d" width="172" height="173" x="874" y="570" maskUnits="userSpaceOnUse" style="mask-type:alpha"><path fill="#D9D9D9" d="M874.168 570.672h171.549v171.549H874.168z"/></mask><g mask="url(#d)"><path fill="#3C4043" d="M949.041 717.56h21.979c.953 0 1.757-.357 2.413-1.072.655-.715.982-1.489.982-2.323 0-1.072-.327-1.966-.982-2.681-.656-.715-1.46-1.072-2.413-1.072h-21.979c-1.073 0-1.936.357-2.592 1.072-.655.715-.982 1.609-.982 2.681 0 .834.327 1.608.982 2.323.656.715 1.519 1.072 2.592 1.072Zm-26.448 20.907c-4.407 0-8.22-1.608-11.436-4.824-3.217-3.217-4.825-7.029-4.825-11.437V590.685c0-4.408 1.608-8.22 4.825-11.436 3.216-3.217 7.029-4.825 11.436-4.825h74.696c4.411 0 8.221 1.608 11.441 4.825 3.21 3.216 4.82 7.028 4.82 11.436v131.521c0 4.408-1.61 8.22-4.82 11.437-3.22 3.216-7.03 4.824-11.441 4.824h-74.696Zm0-42.708h74.696v-89.348h-74.696v89.348Zm0 10.186v16.261h74.696v-16.261h-74.696Zm0-109.72h74.696v-5.54h-74.696v5.54Z"/></g><mask id="e" width="172" height="172" x="1361" y="337" maskUnits="userSpaceOnUse" style="mask-type:alpha"><path fill="#D9D9D9" d="M1361 337h171.549v171.549H1361z"/></mask><g mask="url(#e)"><path fill="#3C4043" d="M1401.56 501.759c-7.03 0-12.86-2.383-17.51-7.148-4.64-4.766-6.97-10.543-6.97-17.334v-17.691c0-2.383.75-4.378 2.24-5.986 1.48-1.609 3.54-2.413 6.16-2.413h16.44v-95.424c0-2.144.6-3.246 1.79-3.306 1.19-.059 2.44.507 3.75 1.698l6.08 6.076 8.57-8.399c.48-.715 1.37-1.072 2.68-1.072s2.45.357 3.4 1.072l8.22 8.399 8.4-8.399c.47-.715 1.34-1.072 2.59-1.072 1.25 0 2.41.357 3.48 1.072l8.4 8.399 8.22-8.399c.6-.715 1.52-1.072 2.77-1.072s2.36.357 3.31 1.072l8.58 8.399 8.39-8.399c.6-.715 1.46-1.072 2.6-1.072 1.13 0 2.23.357 3.3 1.072l8.4 8.399 5.9-6.076c1.19-1.31 2.47-1.906 3.84-1.787 1.37.119 2.05 1.251 2.05 3.395v121.514c0 6.791-2.38 12.568-7.14 17.334-4.77 4.765-10.55 7.148-17.34 7.148h-90.6Zm90.78-16.441c2.15 0 3.99-.774 5.54-2.323 1.55-1.548 2.32-3.454 2.32-5.718V372.918h-82.02v78.269h57.72c2.38 0 4.35.834 5.9 2.502 1.55 1.668 2.32 3.574 2.32 5.718v17.87c0 2.264.78 4.17 2.32 5.718 1.55 1.549 3.52 2.323 5.9 2.323Zm-59.68-83.451c-1.43 0-2.59-.536-3.49-1.608-.89-1.072-1.34-2.264-1.34-3.574 0-1.311.51-2.472 1.52-3.485 1.01-1.012 2.17-1.519 3.49-1.519h28.94c1.43 0 2.65.507 3.67 1.519 1.01 1.013 1.52 2.234 1.52 3.664 0 1.429-.51 2.62-1.52 3.573-1.02.954-2.24 1.43-3.67 1.43h-29.12Zm0 23.588c-1.43 0-2.59-.536-3.49-1.608-.89-1.072-1.34-2.264-1.34-3.574 0-1.43.51-2.621 1.52-3.574 1.01-.953 2.17-1.43 3.49-1.43h28.94c1.43 0 2.65.507 3.67 1.519 1.01 1.013 1.52 2.174 1.52 3.485 0 1.429-.51 2.65-1.52 3.663-1.02 1.013-2.24 1.519-3.67 1.519h-29.12Zm50.93-23.588c-1.32 0-2.48-.536-3.49-1.608-1.01-1.072-1.52-2.204-1.52-3.395 0-1.311.51-2.502 1.52-3.574 1.01-1.073 2.17-1.609 3.49-1.609 1.42 0 2.65.536 3.66 1.609 1.01 1.072 1.52 2.263 1.52 3.574 0 1.31-.51 2.472-1.52 3.484-1.01 1.013-2.24 1.519-3.66 1.519Zm0 22.695c-1.32 0-2.48-.537-3.49-1.609-1.01-1.072-1.52-2.263-1.52-3.574 0-1.31.51-2.472 1.52-3.484 1.01-1.013 2.17-1.519 3.49-1.519 1.42 0 2.65.506 3.66 1.519 1.01 1.012 1.52 2.174 1.52 3.484 0 1.311-.51 2.502-1.52 3.574s-2.24 1.609-3.66 1.609Zm-82.21 60.756h66.48v-17.691h-74.34v9.65c0 2.264.75 4.17 2.24 5.718 1.48 1.549 3.36 2.323 5.62 2.323Z"/></g><mask id="f" width="172" height="173" x="1361" y="570" maskUnits="userSpaceOnUse" style="mask-type:alpha"><path fill="#D9D9D9" d="M1361.34 570.672h171.549v171.549H1361.34z"/></mask><g mask="url(#f)"><path fill="#3C4043" d="M1461.41 637.861c0-.476.24-.983.72-1.519.47-.536.95-1.042 1.43-1.519a86.322 86.322 0 0 1 10.9-2.859c3.69-.715 7.62-1.072 11.79-1.072 2.62 0 5.21.149 7.78.447 2.56.298 5.09.744 7.59 1.34.71.119 1.34.536 1.88 1.251.53.715.8 1.37.8 1.966 0 1.548-.48 2.68-1.43 3.395-.95.715-2.02.834-3.22.357a77.998 77.998 0 0 0-6.52-1.161c-2.2-.298-4.44-.447-6.7-.447-3.45 0-6.76.328-9.92.983a68.135 68.135 0 0 0-9.2 2.591c-1.67.715-3.07.655-4.2-.179-1.13-.834-1.7-2.025-1.7-3.574Zm0 39.492c0-.595.24-1.191.72-1.787.47-.595.95-1.131 1.43-1.608a76.893 76.893 0 0 1 10.9-2.77c3.69-.655 7.62-.983 11.79-.983 2.62 0 5.21.149 7.78.447 2.56.298 5.09.745 7.59 1.34.71.119 1.34.536 1.88 1.251.53.715.8 1.37.8 1.966 0 1.549-.48 2.68-1.43 3.395-.95.715-2.02.834-3.22.358a77.593 77.593 0 0 0-6.52-1.162c-2.2-.298-4.44-.447-6.7-.447-3.45 0-6.76.298-9.92.894a60.104 60.104 0 0 0-9.2 2.501c-1.67.715-3.07.745-4.2.09-1.13-.655-1.7-1.817-1.7-3.485Zm0-19.835c0-.477.24-.983.72-1.519.47-.536.95-1.042 1.43-1.519a86.322 86.322 0 0 1 10.9-2.859c3.69-.715 7.62-1.072 11.79-1.072 2.62 0 5.21.149 7.78.446 2.56.298 5.09.745 7.59 1.341.71.119 1.34.536 1.88 1.251.53.714.8 1.37.8 1.965 0 1.549-.48 2.681-1.43 3.395-.95.715-2.02.834-3.22.358a77.593 77.593 0 0 0-6.52-1.162 50.1 50.1 0 0 0-6.7-.446c-3.45 0-6.76.327-9.92.982a68.138 68.138 0 0 0-9.2 2.592c-1.67.714-3.07.655-4.2-.179-1.13-.834-1.7-2.025-1.7-3.574Zm-55.75 35.918c6.43 0 12.69.745 18.76 2.234 6.08 1.489 11.98 3.723 17.69 6.701v-76.125c-5.24-3.574-11.02-6.344-17.33-8.309-6.31-1.966-12.69-2.949-19.12-2.949-4.53 0-8.93.566-13.22 1.698a132.1 132.1 0 0 0-13.05 4.199v77.376c3.58-1.549 7.72-2.74 12.42-3.574 4.71-.834 9.32-1.251 13.85-1.251Zm47 8.935c5.95-2.978 11.82-5.212 17.6-6.701 5.78-1.489 11.88-2.234 18.32-2.234 4.52 0 9.2.357 14.02 1.072 4.83.715 8.91 1.668 12.24 2.859v-76.661a44.727 44.727 0 0 0-12.77-4.467 73.423 73.423 0 0 0-13.49-1.251c-6.44 0-12.69.983-18.77 2.949a69.205 69.205 0 0 0-17.15 8.309v76.125Zm-4.65 18.227c-.95 0-1.96-.119-3.04-.358a13.026 13.026 0 0 1-3.03-1.072c-5.48-3.574-11.29-6.314-17.43-8.22a63.16 63.16 0 0 0-18.85-2.859c-3.93 0-7.86.566-11.79 1.698a517.402 517.402 0 0 0-11.62 3.484c-3.81 2.026-7.68 1.966-11.61-.178-3.94-2.145-5.9-5.659-5.9-10.543v-82.201c0-2.859.65-5.569 1.96-8.131 1.31-2.561 3.28-4.497 5.9-5.807a67.814 67.814 0 0 1 15.99-4.825 98.39 98.39 0 0 1 16.71-1.43c7.51 0 14.86 1.043 22.07 3.127 7.21 2.085 13.91 5.332 20.1 9.739 6.2-4.288 12.78-7.505 19.75-9.649 6.97-2.145 14.21-3.217 21.71-3.217 5.6 0 11.14.566 16.62 1.698a108.784 108.784 0 0 1 15.91 4.557c2.62 1.31 4.61 3.246 5.98 5.807 1.37 2.562 2.06 5.331 2.06 8.31v83.987c0 4.408-2 7.565-5.99 9.471-3.99 1.906-7.89 1.668-11.7-.715-3.7-1.31-7.48-2.501-11.35-3.574a43.66 43.66 0 0 0-11.71-1.608c-6.43 0-12.56.983-18.4 2.949-5.84 1.965-11.38 4.675-16.62 8.13-.83.477-1.79.834-2.86 1.072-1.07.239-2.03.358-2.86.358Z"/></g><path fill="#1A73E8" d="M1526.83 940.8h3.03v22.392h13.17V966h-16.2v-25.2Zm21.07 9.792c0-3.264.78-5.796 2.34-7.596 1.56-1.8 3.73-2.7 6.52-2.7 2.78 0 4.95.9 6.51 2.7 1.56 1.8 2.34 4.332 2.34 7.596v5.616c0 3.36-.78 5.916-2.34 7.668-1.56 1.752-3.73 2.628-6.51 2.628-2.79 0-4.96-.876-6.52-2.628-1.56-1.752-2.34-4.308-2.34-7.668v-5.616Zm8.86 13.104c1.94 0 3.39-.66 4.35-1.98.99-1.344 1.48-3.252 1.48-5.724v-5.184c0-2.304-.49-4.164-1.48-5.58-.96-1.416-2.41-2.124-4.35-2.124-1.95 0-3.41.708-4.39 2.124-.96 1.416-1.44 3.276-1.44 5.58v5.184c0 2.472.48 4.38 1.44 5.724.98 1.32 2.44 1.98 4.39 1.98Zm26.97 1.008h.44V940.8h3.02V966h-6.05l-7.27-23.904h-.43V966h-3.03v-25.2h6.05l7.27 23.904Zm14.7-10.8h11.23V966h-2.8v-3.024h-.44c-.4 1.056-1.12 1.908-2.16 2.556-1.03.648-2.23.972-3.6.972-2.71 0-4.84-.876-6.4-2.628-1.54-1.752-2.31-4.308-2.31-7.668v-5.616c0-3.264.78-5.796 2.34-7.596 1.56-1.8 3.73-2.7 6.52-2.7 1.44 0 2.71.24 3.81.72a7.458 7.458 0 0 1 2.78 1.944c.74.816 1.3 1.788 1.69 2.916.38 1.104.57 2.292.57 3.564v.432h-3.02v-.432a7.92 7.92 0 0 0-.36-2.376c-.22-.768-.56-1.44-1.04-2.016a4.636 4.636 0 0 0-1.8-1.404c-.72-.36-1.6-.54-2.63-.54-1.95 0-3.41.708-4.39 2.124-.96 1.416-1.44 3.276-1.44 5.58v5.184c0 2.472.48 4.38 1.44 5.724.98 1.32 2.47 1.98 4.46 1.98 1.8 0 3.2-.576 4.21-1.728 1.03-1.152 1.55-2.76 1.55-4.824v-.432h-8.21v-2.808Zm16.83-13.104h15.26v2.808h-12.24v8.352h12.02v2.808h-12.02v8.424h12.46V966h-15.48v-25.2Zm35.61 7.272c0-.816-.17-1.536-.5-2.16a4.382 4.382 0 0 0-1.3-1.548 6.143 6.143 0 0 0-1.91-.936 7.825 7.825 0 0 0-2.27-.324c-.69 0-1.35.096-1.98.288-.62.168-1.18.42-1.69.756-.48.336-.86.756-1.15 1.26-.29.48-.43 1.044-.43 1.692v.216c0 .696.14 1.296.43 1.8.29.48.71.9 1.26 1.26.58.336 1.28.624 2.12.864.84.216 1.83.408 2.96.576 2.64.408 4.58 1.188 5.83 2.34 1.25 1.128 1.87 2.652 1.87 4.572v.432c0 1.08-.19 2.076-.58 2.988a6.05 6.05 0 0 1-1.65 2.304c-.72.648-1.62 1.152-2.7 1.512-1.08.36-2.33.54-3.75.54-1.6 0-3.03-.228-4.28-.684-1.22-.48-2.26-1.128-3.1-1.944a8.737 8.737 0 0 1-1.87-2.916c-.43-1.128-.65-2.352-.65-3.672v-1.08h3.03v.864c0 2.208.6 3.864 1.8 4.968 1.22 1.104 2.91 1.656 5.07 1.656 1.88 0 3.28-.408 4.22-1.224.96-.84 1.44-1.944 1.44-3.312v-.216c0-1.32-.5-2.328-1.48-3.024-.96-.696-2.53-1.2-4.72-1.512-1.27-.168-2.42-.42-3.45-.756-1.01-.36-1.87-.816-2.59-1.368a5.877 5.877 0 0 1-1.66-2.052c-.38-.792-.58-1.728-.58-2.808v-.432c0-.984.21-1.884.62-2.7.4-.816.97-1.524 1.69-2.124.74-.6 1.62-1.056 2.63-1.368 1.03-.336 2.16-.504 3.38-.504 1.42 0 2.68.204 3.78.612 1.13.408 2.08.96 2.84 1.656a6.327 6.327 0 0 1 1.73 2.412c.41.912.61 1.872.61 2.88v1.512h-3.02v-1.296Zm7.25-7.272h17.71v2.808h-7.34V966h-3.03v-22.392h-7.34V940.8ZM257.956 948.072c0-.816-.168-1.536-.504-2.16a4.27 4.27 0 0 0-1.296-1.548 6.154 6.154 0 0 0-1.908-.936 7.85 7.85 0 0 0-2.268-.324c-.696 0-1.356.096-1.98.288a5.694 5.694 0 0 0-1.692.756c-.48.336-.864.756-1.152 1.26-.288.48-.432 1.044-.432 1.692v.216c0 .696.144 1.296.432 1.8.288.48.708.9 1.26 1.26.576.336 1.284.624 2.124.864.84.216 1.824.408 2.952.576 2.64.408 4.584 1.188 5.832 2.34 1.248 1.128 1.872 2.652 1.872 4.572v.432c0 1.08-.192 2.076-.576 2.988a6.023 6.023 0 0 1-1.656 2.304c-.72.648-1.62 1.152-2.7 1.512-1.08.36-2.328.54-3.744.54-1.608 0-3.036-.228-4.284-.684-1.224-.48-2.256-1.128-3.096-1.944a8.68 8.68 0 0 1-1.872-2.916c-.432-1.128-.648-2.352-.648-3.672v-1.08h3.024v.864c0 2.208.6 3.864 1.8 4.968 1.224 1.104 2.916 1.656 5.076 1.656 1.872 0 3.276-.408 4.212-1.224.96-.84 1.44-1.944 1.44-3.312v-.216c0-1.32-.492-2.328-1.476-3.024-.96-.696-2.532-1.2-4.716-1.512-1.272-.168-2.424-.42-3.456-.756-1.008-.36-1.872-.816-2.592-1.368a5.91 5.91 0 0 1-1.656-2.052c-.384-.792-.576-1.728-.576-2.808v-.432c0-.984.204-1.884.612-2.7a6.563 6.563 0 0 1 1.692-2.124c.744-.6 1.62-1.056 2.628-1.368 1.032-.336 2.16-.504 3.384-.504 1.416 0 2.676.204 3.78.612 1.128.408 2.076.96 2.844 1.656a6.386 6.386 0 0 1 1.728 2.412c.408.912.612 1.872.612 2.88v1.512h-3.024v-1.296Zm7.715-7.272h3.024v11.16h10.728V940.8h3.024V966h-3.024v-11.232h-10.728V966h-3.024v-25.2Zm21.575 9.792c0-3.264.78-5.796 2.34-7.596 1.56-1.8 3.732-2.7 6.516-2.7s4.956.9 6.516 2.7c1.56 1.8 2.34 4.332 2.34 7.596v5.616c0 3.36-.78 5.916-2.34 7.668-1.56 1.752-3.732 2.628-6.516 2.628s-4.956-.876-6.516-2.628c-1.56-1.752-2.34-4.308-2.34-7.668v-5.616Zm8.856 13.104c1.944 0 3.396-.66 4.356-1.98.984-1.344 1.476-3.252 1.476-5.724v-5.184c0-2.304-.492-4.164-1.476-5.58-.96-1.416-2.412-2.124-4.356-2.124s-3.408.708-4.392 2.124c-.96 1.416-1.44 3.276-1.44 5.58v5.184c0 2.472.48 4.38 1.44 5.724.984 1.32 2.448 1.98 4.392 1.98ZM326.029 966h-3.024v-8.424c0-.624-.144-1.104-.432-1.44-.288-.336-.792-.504-1.512-.504h-7.848V966h-3.024v-25.2h9c1.296 0 2.424.192 3.384.576.96.36 1.752.852 2.376 1.476a5.83 5.83 0 0 1 1.44 2.196 6.74 6.74 0 0 1 .504 2.592v1.08c0 .936-.264 1.872-.792 2.808-.504.936-1.296 1.656-2.376 2.16v.432c.72.12 1.284.408 1.692.864.408.456.612 1.104.612 1.944V966Zm-12.816-13.176h5.616c1.704 0 2.964-.36 3.78-1.08.84-.744 1.26-1.824 1.26-3.24v-.648c0-1.272-.42-2.292-1.26-3.06-.816-.792-2.076-1.188-3.78-1.188h-5.616v9.216Zm18.119-12.024h17.712v2.808H341.7V966h-3.024v-22.392h-7.344V940.8Zm23.267 0h15.264v2.808h-12.24v8.352h12.024v2.808h-12.024v8.424h12.456V966h-15.48v-25.2Zm35.615 7.272c0-.816-.168-1.536-.504-2.16a4.27 4.27 0 0 0-1.296-1.548 6.154 6.154 0 0 0-1.908-.936 7.85 7.85 0 0 0-2.268-.324c-.696 0-1.356.096-1.98.288a5.694 5.694 0 0 0-1.692.756c-.48.336-.864.756-1.152 1.26-.288.48-.432 1.044-.432 1.692v.216c0 .696.144 1.296.432 1.8.288.48.708.9 1.26 1.26.576.336 1.284.624 2.124.864.84.216 1.824.408 2.952.576 2.64.408 4.584 1.188 5.832 2.34 1.248 1.128 1.872 2.652 1.872 4.572v.432c0 1.08-.192 2.076-.576 2.988a6.023 6.023 0 0 1-1.656 2.304c-.72.648-1.62 1.152-2.7 1.512-1.08.36-2.328.54-3.744.54-1.608 0-3.036-.228-4.284-.684-1.224-.48-2.256-1.128-3.096-1.944a8.68 8.68 0 0 1-1.872-2.916c-.432-1.128-.648-2.352-.648-3.672v-1.08h3.024v.864c0 2.208.6 3.864 1.8 4.968 1.224 1.104 2.916 1.656 5.076 1.656 1.872 0 3.276-.408 4.212-1.224.96-.84 1.44-1.944 1.44-3.312v-.216c0-1.32-.492-2.328-1.476-3.024-.96-.696-2.532-1.2-4.716-1.512-1.272-.168-2.424-.42-3.456-.756-1.008-.36-1.872-.816-2.592-1.368a5.91 5.91 0 0 1-1.656-2.052c-.384-.792-.576-1.728-.576-2.808v-.432c0-.984.204-1.884.612-2.7a6.563 6.563 0 0 1 1.692-2.124c.744-.6 1.62-1.056 2.628-1.368 1.032-.336 2.16-.504 3.384-.504 1.416 0 2.676.204 3.78.612 1.128.408 2.076.96 2.844 1.656a6.386 6.386 0 0 1 1.728 2.412c.408.912.612 1.872.612 2.88v1.512h-3.024v-1.296Zm7.247-7.272h17.712v2.808h-7.344V966h-3.024v-22.392h-7.344V940.8Z"/><path fill="#FF6D7F" d="M248.604 230.904h11.232V243h-2.808v-3.024h-.432c-.408 1.056-1.128 1.908-2.16 2.556-1.032.648-2.232.972-3.6.972-2.712 0-4.848-.876-6.408-2.628-1.536-1.752-2.304-4.308-2.304-7.668v-5.616c0-3.264.78-5.796 2.34-7.596 1.56-1.8 3.732-2.7 6.516-2.7 1.44 0 2.712.24 3.816.72 1.104.456 2.028 1.104 2.772 1.944.744.816 1.308 1.788 1.692 2.916.384 1.104.576 2.292.576 3.564v.432h-3.024v-.432a7.92 7.92 0 0 0-.36-2.376 5.383 5.383 0 0 0-1.044-2.016c-.456-.6-1.056-1.068-1.8-1.404-.72-.36-1.596-.54-2.628-.54-1.944 0-3.408.708-4.392 2.124-.96 1.416-1.44 3.276-1.44 5.58v5.184c0 2.472.48 4.38 1.44 5.724.984 1.32 2.472 1.98 4.464 1.98 1.8 0 3.204-.576 4.212-1.728 1.032-1.152 1.548-2.76 1.548-4.824v-.432h-8.208v-2.808Zm16.571-13.104h3.024v22.392h13.176V243h-16.2v-25.2Zm35.327 18.936h-10.8L287.866 243h-3.24l7.632-25.2h5.688l7.632 25.2h-3.24l-1.836-6.264Zm-5.616-17.64-4.356 14.832h9.144l-4.356-14.832h-.432Zm27.191 22.608h.432V217.8h3.024V243h-6.048l-7.272-23.904h-.432V243h-3.024v-25.2h6.048l7.272 23.904Zm17.255-1.008c1.032 0 1.908-.168 2.628-.504.744-.36 1.344-.828 1.8-1.404a5.77 5.77 0 0 0 1.044-2.016 8.04 8.04 0 0 0 .36-2.412v-.432h3.024v.432c0 1.272-.192 2.472-.576 3.6a8.618 8.618 0 0 1-1.692 2.916c-.744.816-1.668 1.464-2.772 1.944-1.104.456-2.376.684-3.816.684-2.784 0-4.956-.876-6.516-2.628-1.56-1.752-2.34-4.308-2.34-7.668v-5.616c0-3.264.78-5.796 2.34-7.596 1.56-1.8 3.732-2.7 6.516-2.7 1.44 0 2.712.24 3.816.72 1.104.456 2.028 1.104 2.772 1.944.744.816 1.308 1.788 1.692 2.916.384 1.104.576 2.292.576 3.564v.432h-3.024v-.432a8.795 8.795 0 0 0-.396-2.376 5.383 5.383 0 0 0-1.044-2.016 4.636 4.636 0 0 0-1.764-1.404c-.72-.36-1.596-.54-2.628-.54-1.944 0-3.408.708-4.392 2.124-.96 1.416-1.44 3.276-1.44 5.58v5.184c0 2.472.48 4.38 1.44 5.724.984 1.32 2.448 1.98 4.392 1.98Zm14.267-22.896h15.264v2.808h-12.24v8.352h12.024v2.808h-12.024v8.424h12.456V243h-15.48v-25.2Zm35.075 18.936h-10.8L376.038 243h-3.24l7.632-25.2h5.688l7.632 25.2h-3.24l-1.836-6.264Zm-5.616-17.64-4.356 14.832h9.144l-4.356-14.832h-.432Zm13.295 21.096h2.16v-19.584h-2.16V217.8h10.188c1.2 0 2.256.168 3.168.504.936.336 1.716.792 2.34 1.368a5.272 5.272 0 0 1 1.44 2.088c.336.792.504 1.656.504 2.592v.432c0 .696-.108 1.332-.324 1.908a5.238 5.238 0 0 1-.9 1.548c-.384.456-.84.852-1.368 1.188a6.412 6.412 0 0 1-1.656.72v.432c1.2.336 2.208.984 3.024 1.944.816.936 1.224 2.088 1.224 3.456v.432c0 .936-.168 1.812-.504 2.628a5.633 5.633 0 0 1-1.44 2.088c-.624.576-1.404 1.032-2.34 1.368-.912.336-1.968.504-3.168.504h-10.188v-2.808Zm5.184 0h4.788c1.416 0 2.568-.348 3.456-1.044.888-.72 1.332-1.704 1.332-2.952v-.216c0-1.296-.42-2.316-1.26-3.06-.84-.768-1.98-1.152-3.42-1.152h-4.896v8.424Zm0-11.232h4.896c1.44 0 2.58-.372 3.42-1.116.84-.744 1.26-1.764 1.26-3.06v-.216c0-1.224-.444-2.184-1.332-2.88-.888-.72-2.04-1.08-3.456-1.08h-4.788v8.352Zm17.939-11.16h3.024v22.392h13.176V243h-16.2v-25.2Zm22.295 0h15.264v2.808h-12.24v8.352h12.024v2.808h-12.024v8.424h12.456V243h-15.48v-25.2Zm59.602 25.2h-3.024v-8.424c0-.624-.144-1.104-.432-1.44-.288-.336-.792-.504-1.512-.504h-7.848V243h-3.024v-25.2h9c1.296 0 2.424.192 3.384.576.96.36 1.752.852 2.376 1.476a5.83 5.83 0 0 1 1.44 2.196 6.74 6.74 0 0 1 .504 2.592v1.08c0 .936-.264 1.872-.792 2.808-.504.936-1.296 1.656-2.376 2.16v.432c.72.12 1.284.408 1.692.864.408.456.612 1.104.612 1.944V243Zm-12.816-13.176h5.616c1.704 0 2.964-.36 3.78-1.08.84-.744 1.26-1.824 1.26-3.24v-.648c0-1.272-.42-2.292-1.26-3.06-.816-.792-2.076-1.188-3.78-1.188h-5.616v9.216ZM507.9 217.8h15.264v2.808h-12.24v8.352h12.024v2.808h-12.024v8.424h12.456V243H507.9v-25.2Zm35.075 18.936h-10.8L530.339 243h-3.24l7.632-25.2h5.688l7.632 25.2h-3.24l-1.836-6.264Zm-5.616-17.64-4.356 14.832h9.144l-4.356-14.832h-.432Zm13.871-1.296h8.28c3.12 0 5.4.744 6.84 2.232 1.44 1.488 2.16 3.864 2.16 7.128v6.48c0 3.264-.72 5.64-2.16 7.128-1.44 1.488-3.72 2.232-6.84 2.232h-8.28v-2.844h2.16v-19.548h-2.16V217.8Zm7.848 22.392c1.104 0 2.052-.108 2.844-.324.816-.216 1.488-.576 2.016-1.08.528-.528.912-1.224 1.152-2.088.264-.864.396-1.956.396-3.276v-6.048c0-1.32-.132-2.412-.396-3.276-.24-.864-.624-1.548-1.152-2.052-.528-.528-1.2-.9-2.016-1.116-.792-.216-1.74-.324-2.844-.324h-2.664v19.584h2.664Zm14.591-22.392h15.984v2.808h-6.48v19.584h6.48V243h-15.984v-2.808h6.48v-19.584h-6.48V217.8Zm34.967 23.904h.432V217.8h3.024V243h-6.048l-7.272-23.904h-.432V243h-3.024v-25.2h6.048l7.272 23.904Zm14.698-10.8h11.232V243h-2.808v-3.024h-.432c-.408 1.056-1.128 1.908-2.16 2.556-1.032.648-2.232.972-3.6.972-2.712 0-4.848-.876-6.408-2.628-1.536-1.752-2.304-4.308-2.304-7.668v-5.616c0-3.264.78-5.796 2.34-7.596 1.56-1.8 3.732-2.7 6.516-2.7 1.44 0 2.712.24 3.816.72 1.104.456 2.028 1.104 2.772 1.944.744.816 1.308 1.788 1.692 2.916.384 1.104.576 2.292.576 3.564v.432h-3.024v-.432a7.92 7.92 0 0 0-.36-2.376 5.383 5.383 0 0 0-1.044-2.016c-.456-.6-1.056-1.068-1.8-1.404-.72-.36-1.596-.54-2.628-.54-1.944 0-3.408.708-4.392 2.124-.96 1.416-1.44 3.276-1.44 5.58v5.184c0 2.472.48 4.38 1.44 5.724.984 1.32 2.472 1.98 4.464 1.98 1.8 0 3.204-.576 4.212-1.728 1.032-1.152 1.548-2.76 1.548-4.824v-.432h-8.208v-2.808ZM775.659 217.8h15.984v2.808h-6.48v19.584h6.48V243h-15.984v-2.808h6.48v-19.584h-6.48V217.8Zm34.967 23.904h.432V217.8h3.024V243h-6.048l-7.272-23.904h-.432V243h-3.024v-25.2h6.048l7.272 23.904Zm8.255-23.904h17.712v2.808h-7.344V243h-3.024v-22.392h-7.344V217.8Zm23.267 0h15.264v2.808h-12.24v8.352h12.024v2.808h-12.024v8.424h12.456V243h-15.48v-25.2Zm37.559 25.2h-3.024v-8.424c0-.624-.144-1.104-.432-1.44-.288-.336-.792-.504-1.512-.504h-7.848V243h-3.024v-25.2h9c1.296 0 2.424.192 3.384.576.96.36 1.752.852 2.376 1.476a5.83 5.83 0 0 1 1.44 2.196 6.74 6.74 0 0 1 .504 2.592v1.08c0 .936-.264 1.872-.792 2.808-.504.936-1.296 1.656-2.376 2.16v.432c.72.12 1.284.408 1.692.864.408.456.612 1.104.612 1.944V243Zm-12.816-13.176h5.616c1.704 0 2.964-.36 3.78-1.08.84-.744 1.26-1.824 1.26-3.24v-.648c0-1.272-.42-2.292-1.26-3.06-.816-.792-2.076-1.188-3.78-1.188h-5.616v9.216Zm19.091-12.024h3.024v22.392h13.176V243h-16.2v-25.2Zm24.311 0v16.704c0 2.04.468 3.588 1.404 4.644.96 1.032 2.364 1.548 4.212 1.548 1.848 0 3.24-.516 4.176-1.548.96-1.056 1.44-2.604 1.44-4.644V217.8h3.024v16.704c0 2.928-.768 5.16-2.304 6.696-1.536 1.536-3.648 2.304-6.336 2.304s-4.8-.768-6.336-2.304c-1.536-1.536-2.304-3.768-2.304-6.696V217.8h3.024Zm19.271 0h8.28c3.12 0 5.4.744 6.84 2.232 1.44 1.488 2.16 3.864 2.16 7.128v6.48c0 3.264-.72 5.64-2.16 7.128-1.44 1.488-3.72 2.232-6.84 2.232h-8.28v-2.844h2.16v-19.548h-2.16V217.8Zm7.848 22.392c1.104 0 2.052-.108 2.844-.324.816-.216 1.488-.576 2.016-1.08.528-.528.912-1.224 1.152-2.088.264-.864.396-1.956.396-3.276v-6.048c0-1.32-.132-2.412-.396-3.276-.24-.864-.624-1.548-1.152-2.052-.528-.528-1.2-.9-2.016-1.116-.792-.216-1.74-.324-2.844-.324h-2.664v19.584h2.664Zm14.951-22.392h15.264v2.808h-12.24v8.352h12.024v2.808h-12.024v8.424h12.456V243h-15.48v-25.2Zm59.597 25.2h-3.02v-8.424c0-.624-.14-1.104-.43-1.44-.29-.336-.79-.504-1.51-.504h-7.852V243h-3.024v-25.2h8.996c1.3 0 2.43.192 3.39.576.96.36 1.75.852 2.37 1.476a5.783 5.783 0 0 1 1.44 2.196c.34.816.51 1.68.51 2.592v1.08c0 .936-.27 1.872-.79 2.808-.51.936-1.3 1.656-2.38 2.16v.432c.72.12 1.28.408 1.69.864.41.456.61 1.104.61 1.944V243Zm-12.812-13.176h5.612c1.71 0 2.97-.36 3.78-1.08.84-.744 1.26-1.824 1.26-3.24v-.648c0-1.272-.42-2.292-1.26-3.06-.81-.792-2.07-1.188-3.78-1.188h-5.612v9.216Zm19.342-12.024h15.27v2.808h-12.24v8.352h12.02v2.808h-12.02v8.424h12.45V243h-15.48v-25.2Zm35.08 18.936h-10.8l-1.84 6.264h-3.24l7.63-25.2h5.69l7.63 25.2h-3.24l-1.83-6.264Zm-5.62-17.64-4.36 14.832h9.15l-4.36-14.832h-.43Zm13.87-1.296h8.28c3.12 0 5.4.744 6.84 2.232 1.44 1.488 2.16 3.864 2.16 7.128v6.48c0 3.264-.72 5.64-2.16 7.128-1.44 1.488-3.72 2.232-6.84 2.232h-8.28v-2.844h2.16v-19.548h-2.16V217.8Zm7.85 22.392c1.1 0 2.05-.108 2.84-.324.82-.216 1.49-.576 2.02-1.08.53-.528.91-1.224 1.15-2.088.27-.864.4-1.956.4-3.276v-6.048c0-1.32-.13-2.412-.4-3.276-.24-.864-.62-1.548-1.15-2.052-.53-.528-1.2-.9-2.02-1.116-.79-.216-1.74-.324-2.84-.324h-2.66v19.584h2.66Zm14.59-22.392h15.98v2.808h-6.48v19.584h6.48V243h-15.98v-2.808h6.48v-19.584h-6.48V217.8Zm34.97 23.904h.43V217.8h3.02V243h-6.04l-7.28-23.904h-.43V243h-3.02v-25.2h6.05l7.27 23.904Zm14.7-10.8h11.23V243h-2.81v-3.024h-.43c-.41 1.056-1.13 1.908-2.16 2.556-1.03.648-2.23.972-3.6.972-2.71 0-4.85-.876-6.41-2.628-1.54-1.752-2.3-4.308-2.3-7.668v-5.616c0-3.264.78-5.796 2.34-7.596 1.56-1.8 3.73-2.7 6.51-2.7 1.44 0 2.71.24 3.82.72 1.1.456 2.03 1.104 2.77 1.944a8.177 8.177 0 0 1 1.69 2.916c.39 1.104.58 2.292.58 3.564v.432h-3.03v-.432a7.92 7.92 0 0 0-.36-2.376 5.29 5.29 0 0 0-1.04-2.016 4.636 4.636 0 0 0-1.8-1.404c-.72-.36-1.6-.54-2.63-.54-1.94 0-3.41.708-4.39 2.124-.96 1.416-1.44 3.276-1.44 5.58v5.184c0 2.472.48 4.38 1.44 5.724.98 1.32 2.47 1.98 4.46 1.98 1.8 0 3.21-.576 4.22-1.728 1.03-1.152 1.54-2.76 1.54-4.824v-.432h-8.2v-2.808ZM1306.4 217.8h3.03v22.392h13.17V243h-16.2v-25.2Zm21.07 9.792c0-3.264.78-5.796 2.34-7.596 1.56-1.8 3.73-2.7 6.52-2.7 2.78 0 4.95.9 6.51 2.7 1.56 1.8 2.34 4.332 2.34 7.596v5.616c0 3.36-.78 5.916-2.34 7.668-1.56 1.752-3.73 2.628-6.51 2.628-2.79 0-4.96-.876-6.52-2.628-1.56-1.752-2.34-4.308-2.34-7.668v-5.616Zm8.86 13.104c1.94 0 3.39-.66 4.35-1.98.99-1.344 1.48-3.252 1.48-5.724v-5.184c0-2.304-.49-4.164-1.48-5.58-.96-1.416-2.41-2.124-4.35-2.124-1.95 0-3.41.708-4.39 2.124-.96 1.416-1.44 3.276-1.44 5.58v5.184c0 2.472.48 4.38 1.44 5.724.98 1.32 2.44 1.98 4.39 1.98Zm26.97 1.008h.44V217.8h3.02V243h-6.05l-7.27-23.904h-.43V243h-3.03v-25.2h6.05l7.27 23.904Zm14.7-10.8h11.23V243h-2.8v-3.024h-.44c-.4 1.056-1.12 1.908-2.16 2.556-1.03.648-2.23.972-3.6.972-2.71 0-4.84-.876-6.4-2.628-1.54-1.752-2.31-4.308-2.31-7.668v-5.616c0-3.264.78-5.796 2.34-7.596 1.56-1.8 3.73-2.7 6.52-2.7 1.44 0 2.71.24 3.81.72a7.458 7.458 0 0 1 2.78 1.944c.74.816 1.3 1.788 1.69 2.916.38 1.104.57 2.292.57 3.564v.432h-3.02v-.432a7.92 7.92 0 0 0-.36-2.376c-.22-.768-.56-1.44-1.04-2.016a4.636 4.636 0 0 0-1.8-1.404c-.72-.36-1.6-.54-2.63-.54-1.95 0-3.41.708-4.39 2.124-.96 1.416-1.44 3.276-1.44 5.58v5.184c0 2.472.48 4.38 1.44 5.724.98 1.32 2.47 1.98 4.46 1.98 1.8 0 3.2-.576 4.21-1.728 1.03-1.152 1.55-2.76 1.55-4.824v-.432H1378v-2.808Zm38.9-13.104h15.48v2.808h-12.45v8.352h12.24v2.808h-12.24V243h-3.03v-25.2Zm20.79 9.792c0-3.264.78-5.796 2.34-7.596 1.56-1.8 3.73-2.7 6.51-2.7 2.79 0 4.96.9 6.52 2.7 1.56 1.8 2.34 4.332 2.34 7.596v5.616c0 3.36-.78 5.916-2.34 7.668-1.56 1.752-3.73 2.628-6.52 2.628-2.78 0-4.95-.876-6.51-2.628-1.56-1.752-2.34-4.308-2.34-7.668v-5.616Zm8.85 13.104c1.95 0 3.4-.66 4.36-1.98.98-1.344 1.48-3.252 1.48-5.724v-5.184c0-2.304-.5-4.164-1.48-5.58-.96-1.416-2.41-2.124-4.36-2.124-1.94 0-3.4.708-4.39 2.124-.96 1.416-1.44 3.276-1.44 5.58v5.184c0 2.472.48 4.38 1.44 5.724.99 1.32 2.45 1.98 4.39 1.98Zm29.93 2.304h-3.02v-8.424c0-.624-.15-1.104-.44-1.44-.28-.336-.79-.504-1.51-.504h-7.85V243h-3.02v-25.2h9c1.3 0 2.42.192 3.38.576.96.36 1.76.852 2.38 1.476a5.783 5.783 0 0 1 1.44 2.196c.34.816.5 1.68.5 2.592v1.08c0 .936-.26 1.872-.79 2.808-.5.936-1.29 1.656-2.37 2.16v.432c.72.12 1.28.408 1.69.864.41.456.61 1.104.61 1.944V243Zm-12.82-13.176h5.62c1.7 0 2.96-.36 3.78-1.08.84-.744 1.26-1.824 1.26-3.24v-.648c0-1.272-.42-2.292-1.26-3.06-.82-.792-2.08-1.188-3.78-1.188h-5.62v9.216Zm17.62-12.024h5.76l3.38 23.904h.44l3.38-23.904h5.76V243h-2.81v-23.904h-.43L1493.37 243h-5.48l-3.38-23.904h-.43V243h-2.81v-25.2Zm61.33 25.2h-3.02v-8.424c0-.624-.15-1.104-.44-1.44-.28-.336-.79-.504-1.51-.504h-7.85V243h-3.02v-25.2h9c1.3 0 2.42.192 3.38.576.96.36 1.76.852 2.38 1.476a5.783 5.783 0 0 1 1.44 2.196c.34.816.5 1.68.5 2.592v1.08c0 .936-.26 1.872-.79 2.808-.5.936-1.29 1.656-2.37 2.16v.432c.72.12 1.28.408 1.69.864.41.456.61 1.104.61 1.944V243Zm-12.82-13.176h5.62c1.7 0 2.96-.36 3.78-1.08.84-.744 1.26-1.824 1.26-3.24v-.648c0-1.272-.42-2.292-1.26-3.06-.82-.792-2.08-1.188-3.78-1.188h-5.62v9.216Zm19.35-12.024h15.26v2.808h-12.24v8.352h12.02v2.808h-12.02v8.424h12.46V243h-15.48v-25.2Zm35.07 18.936h-10.8l-1.83 6.264h-3.24l7.63-25.2h5.69l7.63 25.2h-3.24l-1.84-6.264Zm-5.61-17.64-4.36 14.832h9.14l-4.35-14.832h-.43Zm13.87-1.296h8.28c3.12 0 5.4.744 6.84 2.232 1.44 1.488 2.16 3.864 2.16 7.128v6.48c0 3.264-.72 5.64-2.16 7.128-1.44 1.488-3.72 2.232-6.84 2.232h-8.28v-2.844h2.16v-19.548h-2.16V217.8Zm7.84 22.392c1.11 0 2.06-.108 2.85-.324.81-.216 1.49-.576 2.01-1.08.53-.528.92-1.224 1.16-2.088.26-.864.39-1.956.39-3.276v-6.048c0-1.32-.13-2.412-.39-3.276-.24-.864-.63-1.548-1.16-2.052-.52-.528-1.2-.9-2.01-1.116-.79-.216-1.74-.324-2.85-.324h-2.66v19.584h2.66Zm14.6-22.392h15.98v2.808h-6.48v19.584h6.48V243h-15.98v-2.808h6.48v-19.584h-6.48V217.8Zm34.96 23.904h.43V217.8h3.03V243h-6.05l-7.27-23.904h-.43V243h-3.03v-25.2h6.05l7.27 23.904Zm14.7-10.8h11.23V243h-2.8v-3.024h-.44c-.4 1.056-1.12 1.908-2.16 2.556-1.03.648-2.23.972-3.6.972-2.71 0-4.84-.876-6.4-2.628-1.54-1.752-2.31-4.308-2.31-7.668v-5.616c0-3.264.78-5.796 2.34-7.596 1.56-1.8 3.73-2.7 6.52-2.7 1.44 0 2.71.24 3.81.72a7.458 7.458 0 0 1 2.78 1.944c.74.816 1.3 1.788 1.69 2.916.38 1.104.57 2.292.57 3.564v.432h-3.02v-.432a7.92 7.92 0 0 0-.36-2.376c-.22-.768-.56-1.44-1.04-2.016a4.636 4.636 0 0 0-1.8-1.404c-.72-.36-1.6-.54-2.63-.54-1.95 0-3.41.708-4.39 2.124-.96 1.416-1.44 3.276-1.44 5.58v5.184c0 2.472.48 4.38 1.44 5.724.98 1.32 2.47 1.98 4.46 1.98 1.8 0 3.2-.576 4.21-1.728 1.03-1.152 1.55-2.76 1.55-4.824v-.432h-8.21v-2.808Z"/></svg>