<svg xmlns="http://www.w3.org/2000/svg" width="1920" height="1080" fill="none"><path fill="#D2E3FC" d="M236 368h683v97H236zM931 368h361v97H931zM1311 368h375v97h-375zM236 231h583v75H236zM830 231h287v75H830zM1135 231h324v75h-324z"/><path fill="#D2E3FC" d="M1318 231h49v100h-49zM1185 208h43v98h-43zM1069 208h43v98h-43zM649 208h43v98h-43zM438 208h43v98h-43z"/><path fill="#D2E3FC" d="M398 218h43v88h-43zM608 218h43v88h-43zM271 208h79v98h-79z"/><path fill="#FF6D7F" d="M236 766h683v97H236zM931 766h361v97H931zM1311 766h375v97h-375z"/><path fill="#1A73E8" d="M236 629h583v75H236zM830 629h287v75H830zM1135 629h324v75h-324z"/><path fill="#1A73E8" d="M1318 629h49v100h-49zM1185 606h43v98h-43zM1069 606h43v98h-43zM649 606h43v98h-43zM438 606h43v98h-43z"/><path fill="#1A73E8" d="M398 616h43v88h-43zM608 616h43v88h-43zM271 606h79v98h-79z"/><path fill="#3C4043" d="M298.344 287.328c0 1.525.763 2.531 2.288 3.016 1.595.485 3.675.867 6.24 1.144l.52.104V297h-16.64l-1.248-12.168-.416-.104v-56.264c0-1.04-.312-1.803-.936-2.288-.555-.555-1.456-1.005-2.704-1.352-1.179-.347-2.704-.693-4.576-1.04l-1.04-.208v-5.408h18.512v69.16Zm-27.56-47.216c3.051 0 5.755.52 8.112 1.56 2.427 1.04 4.611 2.531 6.552 4.472 2.011 1.941 3.848 4.368 5.512 7.28l-.312 6.864c-1.733-3.12-3.571-5.685-5.512-7.696-1.941-2.08-4.056-3.605-6.344-4.576-2.219-.971-4.715-1.456-7.488-1.456-2.704 0-5.096.52-7.176 1.56-2.08.971-3.813 2.427-5.2 4.368-1.387 1.941-2.427 4.368-3.12 7.28-.693 2.843-1.04 6.101-1.04 9.776 0 3.536.312 6.691.936 9.464.693 2.773 1.664 5.131 2.912 7.072 1.317 1.872 2.981 3.293 4.992 4.264 2.011.971 4.368 1.456 7.072 1.456 2.912 0 5.547-.485 7.904-1.456 2.357-1.04 4.541-2.565 6.552-4.576 2.011-2.08 3.917-4.645 5.72-7.696l.104 6.344c-1.803 2.912-3.709 5.408-5.72 7.488a21.956 21.956 0 0 1-6.864 4.68c-2.496 1.04-5.339 1.56-8.528 1.56-5.269 0-9.741-1.179-13.416-3.536-3.675-2.427-6.517-5.789-8.528-10.088-1.941-4.299-2.912-9.291-2.912-14.976 0-5.755 1.005-10.816 3.016-15.184 2.08-4.437 5.061-7.904 8.944-10.4 3.883-2.565 8.493-3.848 13.832-3.848Zm56.561-10.4c-2.011 0-3.64-.555-4.888-1.664-1.248-1.109-1.872-2.773-1.872-4.992 0-2.149.624-3.779 1.872-4.888 1.248-1.109 2.877-1.664 4.888-1.664 1.941 0 3.536.555 4.784 1.664 1.317 1.109 1.976 2.739 1.976 4.888 0 2.219-.659 3.883-1.976 4.992-1.248 1.109-2.843 1.664-4.784 1.664Zm5.304 11.44v45.552c0 2.149.797 3.571 2.392 4.264 1.594.693 3.744 1.04 6.448 1.04h.312V297h-27.456v-4.992h.312c2.704 0 4.853-.347 6.448-1.04 1.594-.693 2.392-2.115 2.392-4.264v-35.256c0-1.525-.659-2.531-1.976-3.016-1.318-.555-3.363-1.109-6.136-1.664l-1.04-.208v-5.408h18.304Zm52.607 41.184c0-1.664-.416-3.051-1.248-4.16-.762-1.109-1.837-2.011-3.224-2.704-1.386-.693-2.981-1.283-4.784-1.768a102.903 102.903 0 0 0-5.408-1.352 74.459 74.459 0 0 1-6.76-1.768c-2.218-.763-4.229-1.733-6.032-2.912a13.808 13.808 0 0 1-4.368-4.576c-1.04-1.872-1.56-4.264-1.56-7.176 0-3.189.798-5.963 2.392-8.32 1.595-2.357 3.918-4.195 6.968-5.512 3.051-1.317 6.726-1.976 11.024-1.976 3.398 0 6.344.208 8.84.624 2.566.347 4.68.832 6.344 1.456 1.734.555 3.016 1.075 3.848 1.56v13h-9.152V246.04c.694 0 1.283.104 1.768.312.555.139.971.416 1.248.832.347.416.59.936.728 1.56.208.555.278 1.248.208 2.08-.832-1.04-1.941-1.872-3.328-2.496-1.386-.693-2.981-1.213-4.784-1.56-1.733-.347-3.64-.52-5.72-.52-4.09 0-7.106.797-9.048 2.392-1.872 1.525-2.808 3.605-2.808 6.24 0 1.664.382 3.085 1.144 4.264.832 1.109 1.942 2.011 3.328 2.704 1.387.693 2.982 1.283 4.784 1.768 1.872.485 3.814.971 5.824 1.456a78.577 78.577 0 0 1 6.656 1.768c2.219.693 4.195 1.629 5.928 2.808 1.803 1.179 3.224 2.739 4.264 4.68 1.11 1.872 1.664 4.229 1.664 7.072 0 3.189-.832 6.067-2.496 8.632-1.664 2.496-4.125 4.472-7.384 5.928-3.258 1.456-7.28 2.184-12.064 2.184-3.466 0-6.586-.243-9.36-.728-2.704-.485-5.13-1.109-7.28-1.872-2.08-.763-3.882-1.629-5.408-2.6V279.32h9.36v14.352c-1.109-.485-1.976-1.005-2.6-1.56-.554-.555-.936-1.109-1.144-1.664a5.597 5.597 0 0 1-.312-1.768c0-.624.07-1.248.208-1.872 1.11.971 2.462 1.837 4.056 2.6 1.664.763 3.536 1.387 5.616 1.872 2.08.416 4.368.624 6.864.624 2.912 0 5.339-.347 7.28-1.04 1.942-.693 3.398-1.733 4.368-3.12 1.04-1.456 1.56-3.259 1.56-5.408Zm14.841-34.944v-5.72h1.144c2.357 0 4.333-.139 5.928-.416 1.594-.347 2.773-1.005 3.536-1.976.832-.971 1.248-2.427 1.248-4.368l6.76 6.24h19.864v6.24h-38.48Zm20.384 32.656c0 2.912.416 5.2 1.248 6.864.832 1.664 2.045 2.843 3.64 3.536 1.594.693 3.501 1.04 5.72 1.04 1.802 0 3.466-.104 4.992-.312 1.525-.277 2.565-.485 3.12-.624v6.24c-.694.208-1.56.416-2.6.624-1.04.208-2.115.381-3.224.52-1.11.139-2.254.208-3.432.208-3.259 0-6.31-.485-9.152-1.456-2.843-.971-5.166-2.739-6.968-5.304-1.734-2.635-2.6-6.379-2.6-11.232v-37.44l.728-.832v-16.64h8.528v54.808Zm39.809-50.336c-2.011 0-3.64-.555-4.888-1.664-1.248-1.109-1.872-2.773-1.872-4.992 0-2.149.624-3.779 1.872-4.888 1.248-1.109 2.877-1.664 4.888-1.664 1.941 0 3.536.555 4.784 1.664 1.317 1.109 1.976 2.739 1.976 4.888 0 2.219-.659 3.883-1.976 4.992-1.248 1.109-2.843 1.664-4.784 1.664Zm5.304 11.44v45.552c0 2.149.797 3.571 2.392 4.264 1.595.693 3.744 1.04 6.448 1.04h.312V297H447.29v-4.992h.312c2.704 0 4.853-.347 6.448-1.04 1.595-.693 2.392-2.115 2.392-4.264v-35.256c0-1.525-.659-2.531-1.976-3.016-1.317-.555-3.363-1.109-6.136-1.664l-1.04-.208v-5.408h18.304ZM482.126 297v-4.992h.312c1.802 0 3.362-.139 4.68-.416 1.317-.347 2.322-.936 3.016-1.768.693-.901 1.04-2.115 1.04-3.64v-34.736c0-1.04-.312-1.803-.936-2.288-.555-.555-1.422-1.005-2.6-1.352-1.179-.347-2.67-.693-4.472-1.04l-1.04-.208v-5.408h16.64l1.248 11.856.416.52v37.44c0 .208.416.416 1.248.624.832.139 1.837.243 3.016.312a55.56 55.56 0 0 0 3.224.104h.416V297h-26.208Zm63.024 0h-26.208v-4.992h.312c.97 0 2.045-.035 3.224-.104 1.178-.069 2.184-.173 3.016-.312.901-.208 1.352-.416 1.352-.624V256.96c0-2.288-.312-4.16-.936-5.616-.555-1.456-1.491-2.531-2.808-3.224-1.318-.763-3.086-1.144-5.304-1.144-2.288 0-4.542.451-6.76 1.352-2.15.901-4.264 2.253-6.344 4.056-2.011 1.803-4.056 4.125-6.136 6.968v-5.616c2.01-2.981 4.125-5.477 6.344-7.488 2.218-2.011 4.576-3.536 7.072-4.576 2.565-1.04 5.304-1.56 8.216-1.56 3.397 0 6.24.589 8.528 1.768 2.357 1.109 4.16 2.843 5.408 5.2 1.317 2.288 1.976 5.2 1.976 8.736v30.368c0 1.525.346 2.739 1.04 3.64.693.832 1.698 1.421 3.016 1.768 1.317.277 2.877.416 4.68.416h.312V297Zm36.484-5.096c3.05 0 5.65-.52 7.8-1.56 2.218-1.04 4.09-2.357 5.616-3.952a36.042 36.042 0 0 0 4.16-5.2l4.888 4.056c-1.387 2.496-3.19 4.749-5.408 6.76-2.15 1.941-4.68 3.467-7.592 4.576-2.843 1.04-6.067 1.56-9.672 1.56-5.894 0-10.99-1.179-15.288-3.536-4.23-2.427-7.488-5.789-9.776-10.088-2.288-4.368-3.432-9.499-3.432-15.392 0-5.963 1.178-11.093 3.536-15.392 2.357-4.368 5.685-7.731 9.984-10.088 4.368-2.357 9.533-3.536 15.496-3.536 3.605 0 6.794.312 9.568.936 2.773.624 5.096 1.352 6.968 2.184 1.872.763 3.224 1.456 4.056 2.08v15.808h-9.36v-13.416a6.404 6.404 0 0 1 1.976.52c.624.208 1.144.52 1.56.936.416.416.728.867.936 1.352.208.485.312 1.005.312 1.56-1.526-1.595-3.71-2.912-6.552-3.952-2.843-1.109-5.998-1.664-9.464-1.664-4.368 0-7.974.901-10.816 2.704-2.843 1.733-4.958 4.299-6.344 7.696-1.387 3.397-2.08 7.488-2.08 12.272 0 3.675.381 6.933 1.144 9.776.762 2.843 1.906 5.235 3.432 7.176 1.594 1.941 3.57 3.397 5.928 4.368 2.357.971 5.165 1.456 8.424 1.456Zm28.189-44.512v-5.72h1.144c2.358 0 4.334-.139 5.928-.416 1.595-.347 2.774-1.005 3.536-1.976.832-.971 1.248-2.427 1.248-4.368l6.76 6.24h19.864v6.24h-38.48Zm20.384 32.656c0 2.912.416 5.2 1.248 6.864.832 1.664 2.046 2.843 3.64 3.536 1.595.693 3.502 1.04 5.72 1.04 1.803 0 3.467-.104 4.992-.312 1.526-.277 2.566-.485 3.12-.624v6.24a29.18 29.18 0 0 1-2.6.624c-1.04.208-2.114.381-3.224.52a27.583 27.583 0 0 1-3.432.208c-3.258 0-6.309-.485-9.152-1.456-2.842-.971-5.165-2.739-6.968-5.304-1.733-2.635-2.6-6.379-2.6-11.232v-37.44l.728-.832v-16.64h8.528v54.808Zm39.809-50.336c-2.01 0-3.64-.555-4.888-1.664-1.248-1.109-1.872-2.773-1.872-4.992 0-2.149.624-3.779 1.872-4.888 1.248-1.109 2.878-1.664 4.888-1.664 1.942 0 3.536.555 4.784 1.664 1.318 1.109 1.976 2.739 1.976 4.888 0 2.219-.658 3.883-1.976 4.992-1.248 1.109-2.842 1.664-4.784 1.664Zm5.304 11.44v45.552c0 2.149.798 3.571 2.392 4.264 1.595.693 3.744 1.04 6.448 1.04h.312V297h-27.456v-4.992h.312c2.704 0 4.854-.347 6.448-1.04 1.595-.693 2.392-2.115 2.392-4.264v-35.256c0-1.525-.658-2.531-1.976-3.016-1.317-.555-3.362-1.109-6.136-1.664l-1.04-.208v-5.408h18.304Zm61.252 7.8c-.069-.416-.52-.797-1.352-1.144-.832-.416-1.872-.693-3.12-.832a24.026 24.026 0 0 0-3.952-.312h-.52v-5.512h23.712v5.512h-.416c-1.317 0-2.53.139-3.64.416a6.638 6.638 0 0 0-2.808 1.56c-.762.693-1.421 1.768-1.976 3.224l-17.368 45.76h-10.088l-17.368-46.384c-.416-1.248-1.005-2.184-1.768-2.808-.762-.693-1.698-1.144-2.808-1.352-1.04-.277-2.322-.416-3.848-.416h-.416v-5.512h26.208v5.512h-.52c-1.525 0-2.981.035-4.368.104-1.317 0-2.426.069-3.328.208-.832.069-1.248.243-1.248.52l16.536 45.552-1.456-1.04 15.912-43.056Zm28.845 20.696c0 4.021.451 7.453 1.352 10.296.971 2.843 2.323 5.131 4.056 6.864 1.733 1.733 3.709 3.016 5.928 3.848 2.288.832 4.749 1.248 7.384 1.248 2.912 0 5.443-.52 7.592-1.56s3.987-2.357 5.512-3.952a27.826 27.826 0 0 0 4.056-5.096l4.992 4.056c-1.317 2.427-3.051 4.645-5.2 6.656-2.149 1.941-4.68 3.467-7.592 4.576-2.843 1.04-6.032 1.56-9.568 1.56-5.269 0-10.019-1.109-14.248-3.328-4.229-2.219-7.592-5.477-10.088-9.776-2.427-4.299-3.64-9.464-3.64-15.496 0-5.893 1.109-11.024 3.328-15.392 2.288-4.437 5.373-7.869 9.256-10.296 3.952-2.496 8.459-3.744 13.52-3.744 4.091 0 7.627.659 10.608 1.976 2.981 1.317 5.477 3.293 7.488 5.928s3.536 5.928 4.576 9.88c1.04 3.952 1.56 8.563 1.56 13.832h-43.056v-6.032h36.192l-2.704 2.288c-.139-3.952-.52-7.28-1.144-9.984-.555-2.773-1.421-4.992-2.6-6.656-1.109-1.733-2.565-2.981-4.368-3.744-1.803-.763-3.987-1.144-6.552-1.144-2.427 0-4.68.485-6.76 1.456-2.011.901-3.779 2.323-5.304 4.264-1.456 1.941-2.6 4.368-3.432 7.28-.763 2.912-1.144 6.309-1.144 10.192Zm120.425-21.528-2.184.728 14.352 48.776h10.088l13.312-45.76c.416-1.387 1.006-2.427 1.768-3.12a6.61 6.61 0 0 1 2.912-1.56 13.196 13.196 0 0 1 3.744-.52h.416v-5.512h-23.92v5.512h.52c1.526 0 2.912.104 4.16.312 1.248.139 2.254.381 3.016.728.832.347 1.248.763 1.248 1.248l-11.752 42.744 1.248 1.04-14.56-51.584h-9.048l-14.664 50.544 1.456 1.144-12.168-45.344c0-.277.416-.451 1.248-.52.832-.139 1.907-.208 3.224-.208a90.292 90.292 0 0 1 4.472-.104h.52v-5.512h-26v5.512h.416c1.387 0 2.6.139 3.64.416 1.11.208 2.046.624 2.808 1.248.763.624 1.318 1.56 1.664 2.808l13.104 46.488h10.088l14.872-49.504Zm105.019 21.008c0 5.893-1.179 11.024-3.536 15.392-2.288 4.368-5.547 7.731-9.776 10.088-4.16 2.357-9.048 3.536-14.664 3.536-5.686 0-10.643-1.179-14.872-3.536-4.16-2.357-7.419-5.72-9.776-10.088-2.288-4.368-3.432-9.499-3.432-15.392 0-4.437.658-8.424 1.976-11.96 1.317-3.605 3.224-6.656 5.72-9.152 2.496-2.565 5.442-4.507 8.84-5.824 3.466-1.387 7.314-2.08 11.544-2.08 4.229 0 8.042.693 11.44 2.08 3.397 1.317 6.344 3.259 8.84 5.824 2.496 2.496 4.402 5.547 5.72 9.152 1.317 3.536 1.976 7.523 1.976 11.96Zm-46.28 0c0 4.992.693 9.187 2.08 12.584 1.386 3.397 3.432 5.963 6.136 7.696 2.704 1.664 6.066 2.496 10.088 2.496 4.021 0 7.384-.832 10.088-2.496 2.704-1.733 4.714-4.299 6.032-7.696 1.386-3.397 2.08-7.592 2.08-12.584 0-4.853-.694-8.944-2.08-12.272-1.318-3.397-3.328-5.963-6.032-7.696-2.704-1.803-6.067-2.704-10.088-2.704-4.022 0-7.384.901-10.088 2.704-2.704 1.733-4.75 4.299-6.136 7.696-1.387 3.328-2.08 7.419-2.08 12.272Zm94.819-28.704v9.984c-.48-.139-1.07-.243-1.76-.312-.7-.069-1.43-.139-2.19-.208a20.84 20.84 0 0 0-2.08-.104c-1.94 0-3.67.208-5.2.624-1.52.347-2.94.936-4.26 1.768-1.25.763-2.46 1.768-3.64 3.016-1.11 1.248-2.32 2.773-3.64 4.576v-4.784c1.73-3.259 3.5-5.997 5.3-8.216 1.87-2.219 3.92-3.883 6.14-4.992 2.22-1.179 4.71-1.768 7.49-1.768.83 0 1.59.035 2.28.104.77.069 1.29.173 1.56.312ZM1000.2 297v-4.992h.31c2.7 0 4.82-.381 6.34-1.144 1.6-.763 2.39-2.323 2.39-4.68v-34.736c0-1.04-.31-1.803-.93-2.288-.56-.555-1.42-1.005-2.6-1.352-1.18-.347-2.67-.693-4.47-1.04l-1.04-.208v-5.408h16.64l1.24 13.936.42-.416v35.048c0 .624.49 1.109 1.46 1.456s2.11.589 3.43.728c1.32.069 2.46.104 3.43.104h2.29V297h-28.91Zm99.57-9.672c0 1.525.77 2.531 2.29 3.016 1.6.485 3.68.867 6.24 1.144l.52.104V297h-16.64l-1.25-12.168-.41-.104v-56.264c0-1.04-.31-1.803-.94-2.288-.55-.555-1.45-1.005-2.7-1.352-1.18-.347-2.71-.693-4.58-1.04l-1.04-.208v-5.408h18.51v69.16Zm-27.56-47.216c3.05 0 5.76.52 8.12 1.56 2.42 1.04 4.61 2.531 6.55 4.472 2.01 1.941 3.85 4.368 5.51 7.28l-.31 6.864c-1.74-3.12-3.57-5.685-5.51-7.696-1.95-2.08-4.06-3.605-6.35-4.576-2.22-.971-4.71-1.456-7.49-1.456-2.7 0-5.09.52-7.17 1.56-2.08.971-3.82 2.427-5.2 4.368-1.39 1.941-2.43 4.368-3.12 7.28-.7 2.843-1.04 6.101-1.04 9.776 0 3.536.31 6.691.93 9.464.7 2.773 1.67 5.131 2.92 7.072 1.31 1.872 2.98 3.293 4.99 4.264 2.01.971 4.37 1.456 7.07 1.456 2.91 0 5.55-.485 7.9-1.456 2.36-1.04 4.55-2.565 6.56-4.576 2.01-2.08 3.91-4.645 5.72-7.696l.1 6.344c-1.8 2.912-3.71 5.408-5.72 7.488a21.985 21.985 0 0 1-6.86 4.68c-2.5 1.04-5.34 1.56-8.53 1.56-5.27 0-9.74-1.179-13.42-3.536-3.67-2.427-6.52-5.789-8.53-10.088-1.94-4.299-2.91-9.291-2.91-14.976 0-5.755 1.01-10.816 3.02-15.184 2.08-4.437 5.06-7.904 8.94-10.4 3.88-2.565 8.5-3.848 13.83-3.848Zm106.15 42.224c0-1.664-.42-3.051-1.25-4.16-.76-1.109-1.84-2.011-3.22-2.704-1.39-.693-2.99-1.283-4.79-1.768-1.73-.485-3.53-.936-5.41-1.352a75.242 75.242 0 0 1-6.76-1.768c-2.21-.763-4.23-1.733-6.03-2.912a13.834 13.834 0 0 1-4.37-4.576c-1.04-1.872-1.56-4.264-1.56-7.176 0-3.189.8-5.963 2.4-8.32 1.59-2.357 3.91-4.195 6.96-5.512 3.05-1.317 6.73-1.976 11.03-1.976 3.4 0 6.34.208 8.84.624 2.56.347 4.68.832 6.34 1.456 1.74.555 3.02 1.075 3.85 1.56v13h-9.15V246.04c.69 0 1.28.104 1.77.312.55.139.97.416 1.24.832.35.416.59.936.73 1.56.21.555.28 1.248.21 2.08-.83-1.04-1.94-1.872-3.33-2.496-1.38-.693-2.98-1.213-4.78-1.56-1.74-.347-3.64-.52-5.72-.52-4.09 0-7.11.797-9.05 2.392-1.87 1.525-2.81 3.605-2.81 6.24 0 1.664.38 3.085 1.15 4.264.83 1.109 1.94 2.011 3.32 2.704 1.39.693 2.99 1.283 4.79 1.768 1.87.485 3.81.971 5.82 1.456 2.22.485 4.44 1.075 6.66 1.768 2.22.693 4.19 1.629 5.93 2.808 1.8 1.179 3.22 2.739 4.26 4.68 1.11 1.872 1.66 4.229 1.66 7.072 0 3.189-.83 6.067-2.49 8.632-1.67 2.496-4.13 4.472-7.39 5.928-3.25 1.456-7.28 2.184-12.06 2.184-3.47 0-6.59-.243-9.36-.728-2.7-.485-5.13-1.109-7.28-1.872-2.08-.763-3.88-1.629-5.41-2.6V279.32h9.36v14.352c-1.11-.485-1.97-1.005-2.6-1.56-.55-.555-.93-1.109-1.14-1.664a5.536 5.536 0 0 1-.31-1.768c0-.624.07-1.248.2-1.872 1.11.971 2.47 1.837 4.06 2.6 1.66.763 3.54 1.387 5.62 1.872 2.08.416 4.36.624 6.86.624 2.91 0 5.34-.347 7.28-1.04 1.94-.693 3.4-1.733 4.37-3.12 1.04-1.456 1.56-3.259 1.56-5.408Zm36.16-64.168v72.8c0 .208.41.416 1.25.624.83.139 1.83.243 3.01.312 1.18.069 2.26.104 3.23.104h.41V297h-26.31v-4.992h.31c1.8 0 3.36-.139 4.68-.416 1.32-.347 2.32-.936 3.02-1.768.76-.901 1.14-2.115 1.14-3.64v-57.72c0-1.04-.31-1.803-.93-2.288-.56-.555-1.43-1.005-2.6-1.352-1.18-.347-2.71-.693-4.58-1.04l-1.04-.208v-5.408h18.41ZM1259.24 297h-26.31v-4.992h.41c.97 0 2.05-.035 3.23-.104 1.17-.069 2.18-.173 3.01-.312.83-.208 1.25-.416 1.25-.624V256.96c0-2.288-.28-4.16-.83-5.616-.56-1.456-1.49-2.531-2.81-3.224-1.32-.763-3.12-1.144-5.41-1.144s-4.54.451-6.76 1.352c-2.15.901-4.26 2.253-6.34 4.056-2.01 1.803-4.06 4.091-6.14 6.864v-5.512c2.01-2.981 4.13-5.477 6.35-7.488 2.21-2.011 4.57-3.536 7.07-4.576 2.56-1.04 5.3-1.56 8.21-1.56 3.4 0 6.28.589 8.64 1.768 2.35 1.109 4.16 2.843 5.4 5.2 1.25 2.288 1.88 5.2 1.88 8.736v30.368c0 2.357.79 3.917 2.39 4.68 1.59.763 3.74 1.144 6.45 1.144h.31V297Zm45.01-34.008v5.512c-4.23.555-7.87 1.179-10.92 1.872-3.05.693-5.58 1.456-7.59 2.288-2.01.832-3.61 1.768-4.79 2.808-1.17 1.04-2.01 2.219-2.49 3.536-.49 1.317-.73 2.739-.73 4.264 0 1.941.38 3.571 1.14 4.888.84 1.317 1.98 2.323 3.44 3.016 1.45.624 3.15.936 5.09.936 2.22 0 4.27-.52 6.14-1.56s3.67-2.6 5.41-4.68c1.73-2.08 3.43-4.68 5.09-7.8l.11 6.136c-1.39 2.843-3.02 5.304-4.89 7.384-1.8 2.08-3.88 3.709-6.24 4.888-2.29 1.109-4.89 1.664-7.8 1.664-3.33 0-6.28-.555-8.84-1.664-2.57-1.179-4.58-2.877-6.03-5.096-1.46-2.219-2.19-4.888-2.19-8.008 0-2.912.66-5.443 1.98-7.592 1.32-2.149 3.4-4.021 6.24-5.616 2.91-1.595 6.65-2.981 11.23-4.16 4.58-1.179 10.12-2.184 16.64-3.016Zm-.21 34.008-1.25-12.064-.52-.624v-27.144c0-2.635-.34-4.749-1.04-6.344-.69-1.595-1.87-2.739-3.53-3.432-1.6-.693-3.78-1.04-6.55-1.04-4.16 0-7.56.589-10.2 1.768-2.63 1.179-4.61 2.427-5.92 3.744 0-.555.13-1.109.41-1.664.28-.624.66-1.179 1.15-1.664a6.165 6.165 0 0 1 1.66-1.352 8.04 8.04 0 0 1 2.29-.728v12.064h-9.15v-12.688c.97-.763 2.35-1.56 4.16-2.392 1.87-.901 4.16-1.664 6.86-2.288 2.7-.693 5.75-1.04 9.15-1.04 2.78 0 5.38.277 7.8.832 2.43.555 4.54 1.456 6.35 2.704 1.8 1.248 3.22 2.877 4.26 4.888 1.04 2.011 1.56 4.472 1.56 7.384v31.408c0 .971.35 1.733 1.04 2.288.69.555 1.66.971 2.91 1.248 1.25.208 2.78.416 4.58.624l.52.104V297h-16.54Zm51.69 23.192h-28.81V315.2h.31c1.74 0 3.23-.173 4.48-.52 1.31-.277 2.32-.867 3.01-1.768.7-.832 1.04-2.011 1.04-3.536v-57.928c0-1.04-.31-1.803-.93-2.288-.56-.555-1.46-1.005-2.71-1.352-1.18-.347-2.67-.693-4.47-1.04l-1.04-.208v-5.408h16.64l1.25 12.896.52.624v59.488c0 .208.45.381 1.35.52.9.208 1.98.347 3.22.416 1.25.069 2.36.104 3.33.104h2.81v4.992Zm7.59-22.048c-3.05 0-5.79-.52-8.21-1.56-2.36-1.04-4.54-2.531-6.56-4.472-1.94-2.011-3.77-4.437-5.51-7.28l.31-6.76c1.81 3.051 3.68 5.581 5.62 7.592 1.94 2.011 4.06 3.536 6.34 4.576 2.29 1.04 4.79 1.56 7.49 1.56 2.71 0 5.1-.485 7.18-1.456a13.135 13.135 0 0 0 5.09-4.472c1.39-2.011 2.43-4.437 3.12-7.28.7-2.843 1.04-6.101 1.04-9.776 0-3.605-.31-6.76-.93-9.464-.63-2.773-1.6-5.096-2.91-6.968-1.25-1.941-2.88-3.397-4.89-4.368-2.01-.971-4.37-1.456-7.07-1.456-2.85 0-5.45.52-7.8 1.56-2.36.971-4.54 2.496-6.56 4.576-2.01 2.011-3.95 4.541-5.82 7.592l-.21-6.448c1.87-2.912 3.82-5.373 5.83-7.384 2.01-2.08 4.26-3.64 6.76-4.68 2.56-1.109 5.47-1.664 8.73-1.664 5.2 0 9.64 1.213 13.31 3.64 3.68 2.427 6.49 5.789 8.43 10.088 1.94 4.229 2.91 9.221 2.91 14.976 0 5.685-1 10.747-3.02 15.184-2.01 4.368-4.95 7.835-8.84 10.4-3.81 2.496-8.42 3.744-13.83 3.744Zm45.09-28.496c0 4.021.45 7.453 1.35 10.296.97 2.843 2.32 5.131 4.06 6.864 1.73 1.733 3.71 3.016 5.93 3.848 2.28.832 4.74 1.248 7.38 1.248 2.91 0 5.44-.52 7.59-1.56 2.15-1.04 3.99-2.357 5.51-3.952a27.681 27.681 0 0 0 4.06-5.096l4.99 4.056c-1.32 2.427-3.05 4.645-5.2 6.656-2.15 1.941-4.68 3.467-7.59 4.576-2.84 1.04-6.03 1.56-9.57 1.56-5.27 0-10.02-1.109-14.25-3.328s-7.59-5.477-10.08-9.776c-2.43-4.299-3.64-9.464-3.64-15.496 0-5.893 1.1-11.024 3.32-15.392 2.29-4.437 5.38-7.869 9.26-10.296 3.95-2.496 8.46-3.744 13.52-3.744 4.09 0 7.63.659 10.61 1.976 2.98 1.317 5.47 3.293 7.49 5.928 2.01 2.635 3.53 5.928 4.57 9.88 1.04 3.952 1.56 8.563 1.56 13.832h-43.05v-6.032h36.19l-2.71 2.288c-.14-3.952-.52-7.28-1.14-9.984-.56-2.773-1.42-4.992-2.6-6.656-1.11-1.733-2.57-2.981-4.37-3.744-1.8-.763-3.99-1.144-6.55-1.144-2.43 0-4.68.485-6.76 1.456-2.01.901-3.78 2.323-5.3 4.264-1.46 1.941-2.6 4.368-3.44 7.28-.76 2.912-1.14 6.309-1.14 10.192ZM255.912 443.536V388.52c0-1.525-.832-2.531-2.496-3.016-1.664-.485-3.779-.728-6.344-.728h-1.56v-5.616h30.576v5.616h-1.664c-2.565 0-4.68.243-6.344.728-1.664.485-2.496 1.491-2.496 3.016v55.016c0 1.525.832 2.531 2.496 3.016 1.664.485 3.779.728 6.344.728h1.664V453h-30.576v-5.72h1.56c2.565 0 4.68-.243 6.344-.728 1.664-.485 2.496-1.491 2.496-3.016ZM287.155 453v-5.72h1.144c1.733 0 3.259-.104 4.576-.312 1.317-.277 2.357-.693 3.12-1.248.763-.624 1.144-1.421 1.144-2.392V388.52c0-1.04-.381-1.803-1.144-2.288-.763-.555-1.803-.936-3.12-1.144-1.317-.208-2.843-.312-4.576-.312h-1.144v-5.616h23.296l36.504 64.168-1.248.52v-57.72c0-.277-.485-.485-1.456-.624-.901-.208-2.045-.381-3.432-.52a41.682 41.682 0 0 0-4.16-.208h-1.456v-5.616h27.56v5.616h-1.248c-1.664 0-3.189.139-4.576.416-1.317.277-2.357.693-3.12 1.248-.763.555-1.144 1.352-1.144 2.392V453h-10.4l-39.624-69.472 1.456-.416v62.92c0 .208.485.416 1.456.624.971.208 2.149.381 3.536.52 1.456.069 2.808.104 4.056.104h1.456V453h-27.456Zm85.615-68.224v-5.616h31.928c6.101 0 11.578.797 16.432 2.392 4.853 1.595 8.978 3.952 12.376 7.072 3.466 3.051 6.101 6.864 7.904 11.44 1.872 4.576 2.808 9.811 2.808 15.704 0 5.824-.936 11.059-2.808 15.704-1.803 4.576-4.438 8.493-7.904 11.752-3.398 3.189-7.523 5.616-12.376 7.28-4.854 1.664-10.331 2.496-16.432 2.496H372.77v-5.72h1.144c2.565 0 4.68-.243 6.344-.728 1.664-.485 2.496-1.491 2.496-3.016V388.52c0-1.456-.832-2.427-2.496-2.912-1.664-.555-3.779-.832-6.344-.832h-1.144Zm31.928.624h-12.272v61.256h12.272c4.714 0 8.874-.624 12.48-1.872 3.605-1.317 6.621-3.259 9.048-5.824 2.496-2.635 4.368-5.893 5.616-9.776 1.317-3.883 1.976-8.355 1.976-13.416 0-5.131-.659-9.603-1.976-13.416-1.248-3.813-3.12-6.968-5.616-9.464-2.427-2.496-5.443-4.368-9.048-5.616-3.606-1.248-7.766-1.872-12.48-1.872Zm61.042 58.136V388.52c0-1.525-.832-2.531-2.496-3.016-1.664-.485-3.779-.728-6.344-.728h-1.56v-5.616h30.576v5.616h-1.664c-2.565 0-4.68.243-6.344.728-1.664.485-2.496 1.491-2.496 3.016v55.016c0 1.525.832 2.531 2.496 3.016 1.664.485 3.779.728 6.344.728h1.664V453H455.34v-5.72h1.56c2.565 0 4.68-.243 6.344-.728 1.664-.485 2.496-1.491 2.496-3.016Zm62.651 4.888c3.536 0 6.448-.416 8.736-1.248 2.358-.901 4.091-2.323 5.2-4.264 1.179-1.941 1.768-4.507 1.768-7.696 0-2.843-.589-5.165-1.768-6.968-1.178-1.872-2.773-3.363-4.784-4.472-2.01-1.179-4.264-2.149-6.76-2.912a124.308 124.308 0 0 0-7.696-2.08 227.108 227.108 0 0 1-8.84-2.6c-2.773-.971-5.269-2.219-7.488-3.744-2.218-1.595-3.986-3.64-5.304-6.136-1.248-2.565-1.872-5.789-1.872-9.672 0-3.952.902-7.349 2.704-10.192 1.872-2.912 4.507-5.165 7.904-6.76 3.398-1.595 7.384-2.392 11.96-2.392 3.675 0 6.934.555 9.776 1.664 2.912 1.109 5.408 2.981 7.488 5.616 2.08 2.565 3.64 6.136 4.68 10.712l-2.496-2.184 1.248-14.456h6.448v21.216h-6.968c-1.04-3.536-2.496-6.517-4.368-8.944-1.802-2.427-3.986-4.264-6.552-5.512-2.565-1.248-5.512-1.872-8.84-1.872-3.328 0-6.066.485-8.216 1.456-2.08.971-3.605 2.392-4.576 4.264-.97 1.803-1.456 3.987-1.456 6.552 0 2.565.52 4.68 1.56 6.344 1.11 1.595 2.6 2.912 4.472 3.952 1.872.971 4.056 1.837 6.552 2.6 2.496.693 5.166 1.421 8.008 2.184 2.982.763 5.894 1.629 8.736 2.6 2.912.971 5.547 2.253 7.904 3.848a17.054 17.054 0 0 1 5.72 6.24c1.387 2.496 2.08 5.651 2.08 9.464 0 4.923-1.109 9.013-3.328 12.272-2.149 3.189-5.096 5.581-8.84 7.176-3.674 1.525-7.869 2.288-12.584 2.288-4.368 0-8.389-.659-12.064-1.976-3.605-1.387-6.69-3.605-9.256-6.656-2.496-3.12-4.229-7.315-5.2-12.584l3.224 2.912-1.248 17.056h-6.76v-24.44h7.072c1.04 4.229 2.67 7.8 4.888 10.712 2.219 2.912 4.923 5.096 8.112 6.552 3.259 1.387 6.934 2.08 11.024 2.08Zm61.121-4.888v-58.24h-5.928c-3.19 0-5.755.139-7.696.416-1.942.277-3.363.797-4.264 1.56-.902.763-1.422 1.768-1.56 3.016l-1.144 11.648h-6.24V379.16h63.336v22.776h-6.24l-1.144-11.648c-.139-1.248-.694-2.253-1.664-3.016-.902-.763-2.323-1.283-4.264-1.56-1.942-.277-4.472-.416-7.592-.416h-5.928v58.24c0 1.525.866 2.531 2.6 3.016 1.733.485 3.882.728 6.448.728h1.872V453h-31.616v-5.72h1.872c2.565 0 4.714-.243 6.448-.728 1.802-.485 2.704-1.491 2.704-3.016Zm57.314 0V388.52c0-1.525-.832-2.531-2.496-3.016-1.664-.485-3.779-.728-6.344-.728h-1.56v-5.616h30.576v5.616h-1.664c-2.565 0-4.68.243-6.344.728-1.664.485-2.496 1.491-2.496 3.016v55.016c0 1.525.832 2.531 2.496 3.016 1.664.485 3.779.728 6.344.728h1.664V453h-30.576v-5.72h1.56c2.565 0 4.68-.243 6.344-.728 1.664-.485 2.496-1.491 2.496-3.016ZM678.069 453v-5.72h1.144c1.733 0 3.259-.104 4.576-.312 1.317-.277 2.357-.693 3.12-1.248.763-.624 1.144-1.421 1.144-2.392V388.52c0-1.04-.381-1.803-1.144-2.288-.763-.555-1.803-.936-3.12-1.144-1.317-.208-2.843-.312-4.576-.312h-1.144v-5.616h23.296l36.504 64.168-1.248.52v-57.72c0-.277-.485-.485-1.456-.624-.901-.208-2.045-.381-3.432-.52a41.682 41.682 0 0 0-4.16-.208h-1.456v-5.616h27.56v5.616h-1.248c-1.664 0-3.189.139-4.576.416-1.317.277-2.357.693-3.12 1.248-.763.555-1.144 1.352-1.144 2.392V453h-10.4l-39.624-69.472 1.456-.416v62.92c0 .208.485.416 1.456.624.971.208 2.149.381 3.536.52 1.456.069 2.808.104 4.056.104h1.456V453h-27.456Zm120.975-69.16c-3.744 0-7.141.693-10.192 2.08-2.981 1.387-5.581 3.432-7.8 6.136-2.149 2.704-3.813 6.067-4.992 10.088-1.179 4.021-1.768 8.667-1.768 13.936s.555 9.915 1.664 13.936c1.179 3.952 2.877 7.28 5.096 9.984a21.392 21.392 0 0 0 8.112 6.136c3.259 1.387 6.968 2.08 11.128 2.08 4.576 0 8.528-.936 11.856-2.808 3.328-1.872 6.067-4.403 8.216-7.592 2.219-3.259 3.917-6.864 5.096-10.816l6.448 2.6c-1.456 5.061-3.64 9.499-6.552 13.312-2.912 3.744-6.517 6.656-10.816 8.736-4.299 2.08-9.221 3.12-14.768 3.12-5.339 0-10.227-.867-14.664-2.6-4.368-1.733-8.147-4.264-11.336-7.592-3.189-3.397-5.651-7.488-7.384-12.272-1.664-4.784-2.496-10.192-2.496-16.224 0-6.101.867-11.544 2.6-16.328 1.803-4.784 4.299-8.84 7.488-12.168 3.189-3.328 6.899-5.859 11.128-7.592 4.299-1.803 8.909-2.704 13.832-2.704 4.853 0 9.048.832 12.584 2.496 3.536 1.595 6.448 3.952 8.736 7.072 2.288 3.12 3.883 6.968 4.784 11.544l-3.016-2.704 1.456-17.056h6.76v24.752h-7.28c-1.179-4.021-2.843-7.488-4.992-10.4s-4.819-5.165-8.008-6.76c-3.12-1.595-6.76-2.392-10.92-2.392Zm70.78 59.696v-58.24h-5.928c-3.189 0-5.755.139-7.696.416-1.941.277-3.363.797-4.264 1.56-.901.763-1.421 1.768-1.56 3.016l-1.144 11.648h-6.24V379.16h63.336v22.776h-6.24l-1.144-11.648c-.139-1.248-.693-2.253-1.664-3.016-.901-.763-2.323-1.283-4.264-1.56-1.941-.277-4.472-.416-7.592-.416h-5.928v58.24c0 1.525.867 2.531 2.6 3.016 1.733.485 3.883.728 6.448.728h1.872V453H858.8v-5.72h1.872c2.565 0 4.715-.243 6.448-.728 1.803-.485 2.704-1.491 2.704-3.016Zm69.874-64.376h26.728v5.616h-1.768c-1.178 0-2.426.069-3.744.208a33.764 33.764 0 0 0-3.224.312c-.901.139-1.352.347-1.352.624l15.6 61.88h-1.248l17.056-68.64h11.024l17.68 68.328h-1.25l14.87-60.528c0-.416-.45-.797-1.35-1.144-.83-.347-1.87-.589-3.12-.728a22.136 22.136 0 0 0-3.64-.312h-1.56v-5.616h23.71v5.616h-.62c-1.87 0-3.47.347-4.78 1.04-1.25.693-2.08 1.872-2.5 3.536L1020.4 453h-11.23l-17.68-67.704h1.144L975.89 453h-11.336l-17.056-64.584c-.485-1.733-1.317-2.773-2.496-3.12-1.109-.347-2.669-.52-4.68-.52h-.624v-5.616Zm147.212 75.608c-5.34 0-10.23-.867-14.67-2.6-4.44-1.803-8.32-4.368-11.65-7.696-3.25-3.397-5.79-7.488-7.59-12.272-1.8-4.784-2.7-10.157-2.7-16.12 0-6.032.9-11.44 2.7-16.224 1.8-4.784 4.34-8.84 7.59-12.168a32.863 32.863 0 0 1 11.65-7.696c4.44-1.803 9.33-2.704 14.67-2.704 5.33 0 10.22.901 14.66 2.704 4.44 1.733 8.29 4.299 11.54 7.696 3.33 3.328 5.9 7.384 7.7 12.168 1.8 4.784 2.7 10.192 2.7 16.224 0 5.963-.9 11.336-2.7 16.12-1.8 4.784-4.37 8.875-7.7 12.272-3.25 3.328-7.1 5.893-11.54 7.696-4.44 1.733-9.33 2.6-14.66 2.6Zm0-6.448c4.02 0 7.62-.693 10.81-2.08a22.086 22.086 0 0 0 8.32-6.136c2.29-2.704 4.02-6.067 5.2-10.088 1.25-4.091 1.87-8.736 1.87-13.936 0-5.269-.62-9.915-1.87-13.936-1.18-4.021-2.91-7.384-5.2-10.088-2.29-2.773-5.06-4.853-8.32-6.24-3.19-1.387-6.79-2.08-10.81-2.08-4.03 0-7.67.693-10.92 2.08-3.26 1.387-6.04 3.467-8.32 6.24-2.22 2.704-3.96 6.067-5.2 10.088-1.18 4.021-1.77 8.667-1.77 13.936 0 5.2.59 9.845 1.77 13.936 1.24 4.021 2.98 7.384 5.2 10.088a22.009 22.009 0 0 0 8.32 6.136c3.25 1.387 6.89 2.08 10.92 2.08Zm81.58-28.704L1186.8 453h15.6v-5.72h-.94c-1.39 0-2.63-.104-3.74-.312a7.005 7.005 0 0 1-3.02-1.352c-.83-.693-1.66-1.664-2.5-2.912l-14.66-25.376-9.05 2.288Zm-14.25 26.624V385.4h12.8c3.6 0 6.58.589 8.94 1.768 2.36 1.109 4.09 2.773 5.2 4.992 1.18 2.219 1.77 4.923 1.77 8.112s-.59 5.963-1.77 8.32c-1.11 2.288-2.88 4.056-5.3 5.304-2.43 1.248-5.55 1.872-9.36 1.872h-13.84v5.928h16.02c.69 0 1.35-.069 1.98-.208a23.76 23.76 0 0 0 2.08-.52c.69-.208 1.38-.451 2.08-.728 3.81-.901 7.07-2.288 9.77-4.16 2.78-1.941 4.92-4.264 6.45-6.968 1.53-2.773 2.29-5.928 2.29-9.464 0-4.299-1.04-7.973-3.12-11.024-2.08-3.051-5.06-5.373-8.95-6.968-3.88-1.664-8.56-2.496-14.04-2.496h-32.55v5.616h1.15c2.56 0 4.68.243 6.34.728 1.66.485 2.5 1.491 2.5 3.016v55.016c0 1.525-.84 2.531-2.5 3.016-1.66.485-3.78.728-6.34.728h-1.15V453h30.27v-5.72h-5c-1.04-.069-2.01-.139-2.91-.208-.83-.139-1.52-.243-2.08-.312-.48-.139-.73-.312-.73-.52Zm56.73-61.464v-5.616h31.92c6.1 0 11.58.797 16.44 2.392 4.85 1.595 8.97 3.952 12.37 7.072 3.47 3.051 6.1 6.864 7.91 11.44 1.87 4.576 2.8 9.811 2.8 15.704 0 5.824-.93 11.059-2.8 15.704-1.81 4.576-4.44 8.493-7.91 11.752-3.4 3.189-7.52 5.616-12.37 7.28-4.86 1.664-10.34 2.496-16.44 2.496h-31.92v-5.72h1.14c2.56 0 4.68-.243 6.34-.728 1.67-.485 2.5-1.491 2.5-3.016V388.52c0-1.456-.83-2.427-2.5-2.912-1.66-.555-3.78-.832-6.34-.832h-1.14Zm31.92.624h-12.27v61.256h12.27c4.72 0 8.88-.624 12.48-1.872 3.61-1.317 6.62-3.259 9.05-5.824 2.5-2.635 4.37-5.893 5.62-9.776 1.31-3.883 1.97-8.355 1.97-13.416 0-5.131-.66-9.603-1.97-13.416-1.25-3.813-3.12-6.968-5.62-9.464-2.43-2.496-5.44-4.368-9.05-5.616-3.6-1.248-7.76-1.872-12.48-1.872Zm109.17 63.024c3.54 0 6.45-.416 8.74-1.248 2.36-.901 4.09-2.323 5.2-4.264 1.18-1.941 1.77-4.507 1.77-7.696 0-2.843-.59-5.165-1.77-6.968-1.18-1.872-2.77-3.363-4.78-4.472-2.02-1.179-4.27-2.149-6.76-2.912-2.5-.763-5.07-1.456-7.7-2.08-3.05-.832-6-1.699-8.84-2.6-2.77-.971-5.27-2.219-7.49-3.744-2.22-1.595-3.99-3.64-5.3-6.136-1.25-2.565-1.87-5.789-1.87-9.672 0-3.952.9-7.349 2.7-10.192 1.87-2.912 4.51-5.165 7.9-6.76 3.4-1.595 7.39-2.392 11.96-2.392 3.68 0 6.94.555 9.78 1.664 2.91 1.109 5.41 2.981 7.49 5.616 2.08 2.565 3.64 6.136 4.68 10.712l-2.5-2.184 1.25-14.456h6.45v21.216H1366c-1.04-3.536-2.5-6.517-4.37-8.944-1.8-2.427-3.99-4.264-6.55-5.512-2.57-1.248-5.51-1.872-8.84-1.872s-6.07.485-8.22 1.456c-2.08.971-3.6 2.392-4.57 4.264-.97 1.803-1.46 3.987-1.46 6.552 0 2.565.52 4.68 1.56 6.344 1.11 1.595 2.6 2.912 4.47 3.952 1.88.971 4.06 1.837 6.56 2.6 2.49.693 5.16 1.421 8 2.184 2.98.763 5.9 1.629 8.74 2.6 2.91.971 5.55 2.253 7.9 3.848a16.977 16.977 0 0 1 5.72 6.24c1.39 2.496 2.08 5.651 2.08 9.464 0 4.923-1.11 9.013-3.32 12.272-2.15 3.189-5.1 5.581-8.84 7.176-3.68 1.525-7.87 2.288-12.59 2.288-4.37 0-8.39-.659-12.06-1.976-3.61-1.387-6.69-3.605-9.26-6.656-2.49-3.12-4.23-7.315-5.2-12.584l3.23 2.912-1.25 17.056h-6.76v-24.44h7.07c1.04 4.229 2.67 7.8 4.89 10.712 2.22 2.912 4.92 5.096 8.11 6.552 3.26 1.387 6.93 2.08 11.02 2.08Zm52.78-36.608h43.89v6.24h-43.89v-6.24ZM1387.89 453v-5.72h1.14c2.57 0 4.68-.243 6.35-.728 1.66-.485 2.49-1.491 2.49-3.016V388.52c0-1.525-.83-2.531-2.49-3.016-1.67-.485-3.78-.728-6.35-.728h-1.14v-5.616h29.64v5.616h-.94c-.97 0-2.01.035-3.12.104-1.04 0-2.01.069-2.91.208-.9.069-1.63.173-2.18.312-.56.069-.84.208-.84.416v60.528c0 .208.28.381.84.52.55.069 1.28.173 2.18.312.9.069 1.87.104 2.91.104H1417.53V453h-29.64Zm48.15 0v-5.616h.94c.97 0 1.97-.035 3.01-.104 1.11-.069 2.12-.139 3.02-.208.9-.069 1.63-.139 2.18-.208.56-.139.83-.312.83-.52v-60.528c0-.208-.27-.347-.83-.416-.55-.139-1.28-.243-2.18-.312-.9-.139-1.91-.208-3.02-.208a45.438 45.438 0 0 0-3.01-.104h-.94v-5.616h29.64v5.616h-1.14c-2.57 0-4.68.243-6.35.728-1.66.485-2.49 1.491-2.49 3.016v55.016c0 1.525.83 2.531 2.49 3.016 1.67.485 3.78.728 6.35.728h1.14V453h-29.64Zm56.01-30.888h29.74l1.04 6.032h-32.13l1.35-6.032Zm13.62-39.416 1.67 1.976-20.18 60.528c0 .347.42.693 1.25 1.04.83.347 1.94.624 3.33.832 1.38.139 2.87.208 4.47.208h1.35V453h-25.06v-5.72h.62c2.01 0 3.64-.312 4.89-.936 1.31-.693 2.39-2.219 3.22-4.576l21.22-63.232h11.13l21.84 63.96c.76 2.08 1.76 3.397 3.01 3.952 1.32.555 2.95.832 4.89.832h.52V453h-27.46v-5.72h1.46c1.59 0 3.08-.035 4.47-.104 1.39-.069 2.5-.173 3.33-.312.9-.208 1.35-.416 1.35-.624l-21.32-63.544Zm64.88 63.648V385.4h13.21c3.68 0 6.69.624 9.05 1.872 2.43 1.179 4.23 2.912 5.41 5.2 1.18 2.288 1.77 5.165 1.77 8.632 0 3.467-.59 6.413-1.77 8.84-1.18 2.427-2.98 4.299-5.41 5.616-2.43 1.248-5.51 1.872-9.26 1.872h-15.91v6.136h16.02c5.41 0 10.09-.901 14.04-2.704 4.02-1.803 7.1-4.368 9.25-7.696 2.22-3.397 3.33-7.453 3.33-12.168 0-7.072-2.32-12.48-6.97-16.224-4.64-3.744-11.12-5.616-19.44-5.616h-32.97v5.616h1.14c2.57 0 4.68.243 6.35.728 1.66.485 2.49 1.491 2.49 3.016v55.016c0 1.525-.83 2.531-2.49 3.016-1.67.485-3.78.728-6.35.728h-1.14V453h30.99v-5.72h-5.62c-1.04-.069-2.01-.139-2.91-.208-.83-.069-1.52-.139-2.08-.208-.48-.139-.73-.312-.73-.52Zm107.55-16.432V453h-58.24v-5.72h1.14c2.57 0 4.68-.243 6.34-.728 1.67-.485 2.5-1.491 2.5-3.016V388.52c0-1.525-.83-2.531-2.5-3.016-1.66-.485-3.77-.728-6.34-.728h-1.14v-5.616h55.64v20.488h-6.24l-1.15-9.672c-.14-1.248-.66-2.184-1.56-2.808-.9-.693-2.29-1.144-4.16-1.352-1.87-.277-4.3-.416-7.28-.416h-15.7v61.256h17.99c2.22 0 4.13-.035 5.72-.104 1.66-.139 3.02-.381 4.06-.728 1.04-.347 1.8-.832 2.28-1.456.56-.624.87-1.387.94-2.288l1.25-12.168h6.45Zm-41.08-17.68c3.12-.208 6.24-.347 9.36-.416l9.36-.416 9.36-.416v8.216l-9.36-.416-9.36-.416-9.36-.416v-5.72Z"/></svg>