<svg width="1920" height="1080" fill="none" xmlns="http://www.w3.org/2000/svg"><path d="M376.672 263h4.08v-15.192c0-3.888 3.072-6.792 7.632-6.792 4.536 0 6.552 2.52 6.552 7.416V263h4.08v-15.48c0-6.504-3.768-10.392-9.888-10.392-3.456 0-6.408 1.32-8.376 3.408v-15.048h-4.08V263Zm53.726-8.016h-4.08c-.24 2.232-2.64 4.776-8.04 4.776-5.136 0-8.496-2.952-9.096-7.872h21.504c.048-.288.096-1.344.096-1.848 0-7.44-4.872-12.912-12.6-12.912-7.608 0-13.056 5.4-13.056 13.2 0 7.752 5.376 13.176 13.032 13.176 7.752 0 11.904-4.44 12.24-8.52Zm-12.168-14.16c5.088 0 7.896 3.312 8.16 7.416h-17.136c.744-4.608 4.2-7.416 8.976-7.416ZM449.141 263h4.104v-3.192a11.384 11.384 0 0 0 8.352 3.672c6.288 0 11.496-4.68 11.496-13.248 0-8.4-5.304-13.104-11.496-13.104-3.192 0-6.24 1.32-8.352 3.576v-15.216h-4.104V263Zm11.88-22.128c4.536 0 7.872 3 7.872 9.36 0 6.336-3.36 9.384-7.872 9.384-4.104 0-7.776-3.336-7.776-7.488v-3.816c0-4.152 3.696-7.44 7.776-7.44Zm42.736 14.112h-4.08c-.24 2.232-2.64 4.776-8.04 4.776-5.136 0-8.496-2.952-9.096-7.872h21.504c.048-.288.096-1.344.096-1.848 0-7.44-4.872-12.912-12.6-12.912-7.608 0-13.056 5.4-13.056 13.2 0 7.752 5.376 13.176 13.032 13.176 7.752 0 11.904-4.44 12.24-8.52Zm-12.168-14.16c5.088 0 7.896 3.312 8.16 7.416h-17.136c.744-4.608 4.2-7.416 8.976-7.416Zm28.655 22.656c5.88 0 10.824-2.496 10.824-7.464 0-4.92-4.512-6.576-9.816-7.536-4.464-.816-7.32-1.656-7.32-4.248 0-2.568 3.336-3.432 6.36-3.432 3.192 0 6.216 1.296 6.216 4.08v.36h4.08v-.48c0-4.92-4.8-7.632-10.344-7.632-5.784 0-10.344 2.616-10.344 7.272 0 4.8 4.536 6.624 9.72 7.512 4.92.84 7.416 1.68 7.416 4.32 0 2.424-2.88 3.552-6.696 3.552-4.176 0-6.72-1.392-6.72-3.984v-.528h-4.104v.744c0 4.824 4.608 7.464 10.728 7.464Zm26.727-.096c1.224 0 2.232-.216 2.784-.408v-3.552c-.432.168-1.344.36-2.256.36-2.304 0-2.712-1.608-2.712-4.344v-14.328h7.968v-3.6h-7.968v-8.448h-4.104v5.784c0 2.544-.048 2.664-2.232 2.664h-3.984v3.6h6.216v15.864c0 5.328 3.144 6.408 6.288 6.408Zm33.094 0c1.224 0 2.232-.216 2.784-.408v-3.552c-.432.168-1.344.36-2.256.36-2.304 0-2.712-1.608-2.712-4.344v-14.328h7.968v-3.6h-7.968v-8.448h-4.104v5.784c0 2.544-.048 2.664-2.232 2.664h-3.984v3.6h6.216v15.864c0 5.328 3.144 6.408 6.288 6.408Zm11.013-.384h4.08v-15.192c0-3.888 3.072-6.792 7.632-6.792 4.536 0 6.552 2.52 6.552 7.416V263h4.08v-15.48c0-6.504-3.768-10.392-9.888-10.392-3.456 0-6.408 1.32-8.376 3.408v-15.048h-4.08V263Zm31.718-31.344c1.488 0 2.76-.888 2.76-2.376 0-1.44-1.272-2.352-2.76-2.352-1.512 0-2.784.912-2.784 2.352 0 1.464 1.272 2.376 2.784 2.376ZM620.756 263h4.032v-25.488h-4.032V263Zm11.619 0h4.08v-14.184c0-4.344 3.504-7.8 7.608-7.8 4.656 0 6.552 2.616 6.552 6.6V263h4.08v-16.464c0-5.88-3.888-9.408-9.792-9.408-3.384 0-6.456 1.608-8.448 4.128v-3.744h-4.08V263Zm45.71-1.56-9-.72c-2.76-.216-3.456-.984-3.456-2.184 0-.816.624-1.56 1.272-2.04 1.584.672 3.456 1.056 5.592 1.056 6.936 0 10.488-4.392 11.376-10.008l1.584-10.032h-3.84l-.456 3.528c-1.608-2.136-4.776-3.912-8.928-3.912-6.6 0-11.232 4.464-11.232 10.32 0 2.952 1.104 5.52 3.168 7.344-1.176.696-2.64 2.568-2.64 4.512 0 2.496 2.232 4.44 5.472 4.68l9.696.72c2.544.192 4.536.36 4.536 2.448s-2.736 3.384-8.712 3.384c-5.352 0-8.376-.912-8.376-3.48 0-.96.288-1.704.552-2.064l-3.888-.576c-.384.624-.744 1.608-.744 2.88 0 4.056 4.152 6.576 12.264 6.576 8.592 0 12.744-2.856 12.744-6.96 0-3.672-2.88-5.136-6.984-5.472Zm-5.616-7.536c-4.656 0-7.464-2.4-7.464-6.48 0-4.008 3.072-6.648 7.488-6.648 4.608 0 7.44 2.544 7.44 6.576 0 4.2-2.808 6.552-7.464 6.552Zm39.498 9.576c4.464 0 7.824-1.392 9.576-3.504.048.552.144 1.056.288 1.416.288.792.648 1.44.816 1.608h4.104c-.216-.216-.624-.816-.912-1.776-.24-.792-.312-1.896-.312-3.024v-12.72c0-5.448-4.872-8.352-11.088-8.352-6.816 0-11.544 3.288-11.544 8.976h4.032c0-3.672 2.736-5.232 7.488-5.232 4.536 0 7.008 1.44 7.008 4.392v.072c0 1.416-2.424 1.848-8.688 2.472-6.264.624-10.416 3.024-10.416 8.016 0 4.8 3.816 7.656 9.648 7.656Zm.648-3.672c-4.224 0-6.192-1.44-6.192-4.224 0-2.952 2.448-3.96 7.296-4.416 2.856-.264 5.664-.648 7.704-1.272v3.216c0 4.416-3.864 6.696-8.808 6.696ZM732.313 263h4.104v-3.192a11.384 11.384 0 0 0 8.352 3.672c6.288 0 11.496-4.68 11.496-13.248 0-8.4-5.304-13.104-11.496-13.104-3.192 0-6.24 1.32-8.352 3.576v-15.216h-4.104V263Zm11.88-22.128c4.536 0 7.872 3 7.872 9.36 0 6.336-3.36 9.384-7.872 9.384-4.104 0-7.776-3.336-7.776-7.488v-3.816c0-4.152 3.696-7.44 7.776-7.44Zm30.52 22.584c7.68 0 13.056-5.592 13.056-13.224 0-7.632-5.376-13.08-13.056-13.08-7.68 0-13.056 5.448-13.056 13.08s5.376 13.224 13.056 13.224Zm0-3.744c-5.256 0-8.952-3.768-8.952-9.48 0-5.712 3.696-9.336 8.952-9.336s8.952 3.624 8.952 9.336-3.696 9.48-8.952 9.48Zm28.836 3.744c3.528 0 6.36-1.752 8.208-4.248V263h4.08v-25.488h-4.08v13.512c0 3.984-3 8.664-7.392 8.664-4.728 0-6.12-3.408-6.12-7.296v-14.88h-4.104v15.864c0 4.344 2.088 10.08 9.408 10.08Zm29.453-.072c1.224 0 2.232-.216 2.784-.408v-3.552c-.432.168-1.344.36-2.256.36-2.304 0-2.712-1.608-2.712-4.344v-14.328h7.968v-3.6h-7.968v-8.448h-4.104v5.784c0 2.544-.048 2.664-2.232 2.664h-3.984v3.6h6.216v15.864c0 5.328 3.144 6.408 6.288 6.408ZM376.672 323h4.08v-14.16c0-3.6 1.656-7.824 6.528-7.824 4.776 0 5.064 3.792 5.064 6.312V323h4.056v-14.52c0-3.216 1.464-7.464 6.408-7.464 4.968 0 5.16 3.72 5.16 6.216V323h4.08v-17.112c0-5.352-2.88-8.76-8.376-8.76-3.624 0-6.432 1.896-8.04 4.632-1.104-2.856-3.528-4.632-7.512-4.632-3.12 0-5.664 1.44-7.368 3.648v-3.264h-4.08V323Zm54.541.456c7.68 0 13.056-5.592 13.056-13.224 0-7.632-5.376-13.08-13.056-13.08-7.68 0-13.056 5.448-13.056 13.08s5.376 13.224 13.056 13.224Zm0-3.744c-5.256 0-8.952-3.768-8.952-9.48 0-5.712 3.696-9.336 8.952-9.336s8.952 3.624 8.952 9.336-3.696 9.48-8.952 9.48ZM450.641 323h4.08v-14.184c0-4.344 3.504-7.8 7.608-7.8 4.656 0 6.552 2.616 6.552 6.6V323h4.08v-16.464c0-5.88-3.888-9.408-9.792-9.408-3.384 0-6.456 1.608-8.448 4.128v-3.744h-4.08V323Zm29.437 0h3.888v-11.184l3.024-2.616 8.976 13.8h4.392l-10.752-16.104 10.656-9.384h-5.28l-11.016 9.432v-21.456h-3.888V323Zm33.182.48c5.88 0 10.824-2.496 10.824-7.464 0-4.92-4.512-6.576-9.816-7.536-4.464-.816-7.32-1.656-7.32-4.248 0-2.568 3.336-3.432 6.36-3.432 3.192 0 6.216 1.296 6.216 4.08v.36h4.08v-.48c0-4.92-4.8-7.632-10.344-7.632-5.784 0-10.344 2.616-10.344 7.272 0 4.8 4.536 6.624 9.72 7.512 4.92.84 7.416 1.68 7.416 4.32 0 2.424-2.88 3.552-6.696 3.552-4.176 0-6.72-1.392-6.72-3.984v-.528h-4.104v.744c0 4.824 4.608 7.464 10.728 7.464Zm31.442-31.824c1.488 0 2.76-.888 2.76-2.376 0-1.44-1.272-2.352-2.76-2.352-1.512 0-2.784.912-2.784 2.352 0 1.464 1.272 2.376 2.784 2.376ZM542.662 323h4.032v-25.488h-4.032V323Zm21.363.48c5.88 0 10.824-2.496 10.824-7.464 0-4.92-4.512-6.576-9.816-7.536-4.464-.816-7.32-1.656-7.32-4.248 0-2.568 3.336-3.432 6.36-3.432 3.192 0 6.216 1.296 6.216 4.08v.36h4.08v-.48c0-4.92-4.8-7.632-10.344-7.632-5.784 0-10.344 2.616-10.344 7.272 0 4.8 4.536 6.624 9.72 7.512 4.92.84 7.416 1.68 7.416 4.32 0 2.424-2.88 3.552-6.696 3.552-4.176 0-6.72-1.392-6.72-3.984v-.528h-4.104v.744c0 4.824 4.608 7.464 10.728 7.464Zm39.243-.096c1.224 0 2.232-.216 2.784-.408v-3.552c-.432.168-1.344.36-2.256.36-2.304 0-2.712-1.608-2.712-4.344v-14.328h7.968v-3.6h-7.968v-8.448h-4.104v5.784c0 2.544-.048 2.664-2.232 2.664h-3.984v3.6h6.216v15.864c0 5.328 3.144 6.408 6.288 6.408Zm11.013-.384h4.08v-15.192c0-3.888 3.072-6.792 7.632-6.792 4.536 0 6.552 2.52 6.552 7.416V323h4.08v-15.48c0-6.504-3.768-10.392-9.888-10.392-3.456 0-6.408 1.32-8.376 3.408v-15.048h-4.08V323Zm38.342.48c4.464 0 7.824-1.392 9.576-3.504.048.552.144 1.056.288 1.416.288.792.648 1.44.816 1.608h4.104c-.216-.216-.624-.816-.912-1.776-.24-.792-.312-1.896-.312-3.024v-12.72c0-5.448-4.872-8.352-11.088-8.352-6.816 0-11.544 3.288-11.544 8.976h4.032c0-3.672 2.736-5.232 7.488-5.232 4.536 0 7.008 1.44 7.008 4.392v.072c0 1.416-2.424 1.848-8.688 2.472-6.264.624-10.416 3.024-10.416 8.016 0 4.8 3.816 7.656 9.648 7.656Zm.648-3.672c-4.224 0-6.192-1.44-6.192-4.224 0-2.952 2.448-3.96 7.296-4.416 2.856-.264 5.664-.648 7.704-1.272v3.216c0 4.416-3.864 6.696-8.808 6.696Zm29.075 3.576c1.224 0 2.232-.216 2.784-.408v-3.552c-.432.168-1.344.36-2.256.36-2.304 0-2.712-1.608-2.712-4.344v-14.328h7.968v-3.6h-7.968v-8.448h-4.104v5.784c0 2.544-.048 2.664-2.232 2.664h-3.984v3.6h6.216v15.864c0 5.328 3.144 6.408 6.288 6.408Zm33.094 0c1.224 0 2.232-.216 2.784-.408v-3.552c-.432.168-1.344.36-2.256.36-2.304 0-2.712-1.608-2.712-4.344v-14.328h7.968v-3.6h-7.968v-8.448h-4.104v5.784c0 2.544-.048 2.664-2.232 2.664h-3.984v3.6h6.216v15.864c0 5.328 3.144 6.408 6.288 6.408Zm11.013-.384h4.08v-15.192c0-3.888 3.072-6.792 7.632-6.792 4.536 0 6.552 2.52 6.552 7.416V323h4.08v-15.48c0-6.504-3.768-10.392-9.888-10.392-3.456 0-6.408 1.32-8.376 3.408v-15.048h-4.08V323Zm53.726-8.016h-4.08c-.24 2.232-2.64 4.776-8.04 4.776-5.136 0-8.496-2.952-9.096-7.872h21.504c.048-.288.096-1.344.096-1.848 0-7.44-4.872-12.912-12.6-12.912-7.608 0-13.056 5.4-13.056 13.2 0 7.752 5.376 13.176 13.032 13.176 7.752 0 11.904-4.44 12.24-8.52Zm-12.168-14.16c5.088 0 7.896 3.312 8.16 7.416h-17.136c.744-4.608 4.2-7.416 8.976-7.416Zm18.132 32.928c6.096 0 8.208-3.912 9.792-8.568l9.336-27.672h-4.2l-6.624 21.048-6.768-21.048h-4.272l8.784 25.632-.768 2.256c-.936 2.736-2.496 4.824-5.544 4.824-.96 0-2.064-.144-2.472-.336v3.552c.264.12 1.464.312 2.736.312ZM376.672 383h4.08v-14.16c0-3.6 1.656-7.824 6.528-7.824 4.776 0 5.064 3.792 5.064 6.312V383h4.056v-14.52c0-3.216 1.464-7.464 6.408-7.464 4.968 0 5.16 3.72 5.16 6.216V383h4.08v-17.112c0-5.352-2.88-8.76-8.376-8.76-3.624 0-6.432 1.896-8.04 4.632-1.104-2.856-3.528-4.632-7.512-4.632-3.12 0-5.664 1.44-7.368 3.648v-3.264h-4.08V383Zm51.373.48c4.464 0 7.824-1.392 9.576-3.504.048.552.144 1.056.288 1.416.288.792.648 1.44.816 1.608h4.104c-.216-.216-.624-.816-.912-1.776-.24-.792-.312-1.896-.312-3.024v-12.72c0-5.448-4.872-8.352-11.088-8.352-6.816 0-11.544 3.288-11.544 8.976h4.032c0-3.672 2.736-5.232 7.488-5.232 4.536 0 7.008 1.44 7.008 4.392v.072c0 1.416-2.424 1.848-8.688 2.472-6.264.624-10.416 3.024-10.416 8.016 0 4.8 3.816 7.656 9.648 7.656Zm.648-3.672c-4.224 0-6.192-1.44-6.192-4.224 0-2.952 2.448-3.96 7.296-4.416 2.856-.264 5.664-.648 7.704-1.272v3.216c0 4.416-3.864 6.696-8.808 6.696ZM448.391 383h3.888v-11.184l3.024-2.616 8.976 13.8h4.392l-10.752-16.104 10.656-9.384h-5.28l-11.016 9.432v-21.456h-3.888V383Zm47.725-8.016h-4.08c-.24 2.232-2.64 4.776-8.04 4.776-5.136 0-8.496-2.952-9.096-7.872h21.504c.048-.288.096-1.344.096-1.848 0-7.44-4.872-12.912-12.6-12.912-7.608 0-13.056 5.4-13.056 13.2 0 7.752 5.376 13.176 13.032 13.176 7.752 0 11.904-4.44 12.24-8.52Zm-12.168-14.16c5.088 0 7.896 3.312 8.16 7.416h-17.136c.744-4.608 4.2-7.416 8.976-7.416ZM518.004 383h4.08v-21.888h7.44v-3.6h-7.44v-2.544c0-3.192.816-6.168 5.184-6.168 1.032 0 2.016.216 2.4.336v-3.6c-.336-.144-1.248-.408-2.808-.408-5.448 0-8.856 3.384-8.856 9.096v3.288h-5.568v3.6h5.568V383Zm23.853.48c4.464 0 7.824-1.392 9.576-3.504.048.552.144 1.056.288 1.416.288.792.648 1.44.816 1.608h4.104c-.216-.216-.624-.816-.912-1.776-.24-.792-.312-1.896-.312-3.024v-12.72c0-5.448-4.872-8.352-11.088-8.352-6.816 0-11.544 3.288-11.544 8.976h4.032c0-3.672 2.736-5.232 7.488-5.232 4.536 0 7.008 1.44 7.008 4.392v.072c0 1.416-2.424 1.848-8.688 2.472-6.264.624-10.416 3.024-10.416 8.016 0 4.8 3.816 7.656 9.648 7.656Zm.648-3.672c-4.224 0-6.192-1.44-6.192-4.224 0-2.952 2.448-3.96 7.296-4.416 2.856-.264 5.664-.648 7.704-1.272v3.216c0 4.416-3.864 6.696-8.808 6.696ZM562.203 383h4.08v-14.184c0-4.344 3.504-7.8 7.608-7.8 4.656 0 6.552 2.616 6.552 6.6V383h4.08v-16.464c0-5.88-3.888-9.408-9.792-9.408-3.384 0-6.456 1.608-8.448 4.128v-3.744h-4.08V383Zm38.815.384c1.224 0 2.232-.216 2.784-.408v-3.552c-.432.168-1.344.36-2.256.36-2.304 0-2.712-1.608-2.712-4.344v-14.328h7.968v-3.6h-7.968v-8.448h-4.104v5.784c0 2.544-.048 2.664-2.232 2.664h-3.984v3.6h6.216v15.864c0 5.328 3.144 6.408 6.288 6.408Zm19.074.096c4.464 0 7.824-1.392 9.576-3.504.048.552.144 1.056.288 1.416.288.792.648 1.44.816 1.608h4.104c-.216-.216-.624-.816-.912-1.776-.24-.792-.312-1.896-.312-3.024v-12.72c0-5.448-4.872-8.352-11.088-8.352-6.816 0-11.544 3.288-11.544 8.976h4.032c0-3.672 2.736-5.232 7.488-5.232 4.536 0 7.008 1.44 7.008 4.392v.072c0 1.416-2.424 1.848-8.688 2.472-6.264.624-10.416 3.024-10.416 8.016 0 4.8 3.816 7.656 9.648 7.656Zm.648-3.672c-4.224 0-6.192-1.44-6.192-4.224 0-2.952 2.448-3.96 7.296-4.416 2.856-.264 5.664-.648 7.704-1.272v3.216c0 4.416-3.864 6.696-8.808 6.696Zm29.442 3.672c5.88 0 10.824-2.496 10.824-7.464 0-4.92-4.512-6.576-9.816-7.536-4.464-.816-7.32-1.656-7.32-4.248 0-2.568 3.336-3.432 6.36-3.432 3.192 0 6.216 1.296 6.216 4.08v.36h4.08v-.48c0-4.92-4.8-7.632-10.344-7.632-5.784 0-10.344 2.616-10.344 7.272 0 4.8 4.536 6.624 9.72 7.512 4.92.84 7.416 1.68 7.416 4.32 0 2.424-2.88 3.552-6.696 3.552-4.176 0-6.72-1.392-6.72-3.984v-.528h-4.104v.744c0 4.824 4.608 7.464 10.728 7.464Zm26.726-.096c1.224 0 2.232-.216 2.784-.408v-3.552c-.432.168-1.344.36-2.256.36-2.304 0-2.712-1.608-2.712-4.344v-14.328h7.968v-3.6h-7.968v-8.448h-4.104v5.784c0 2.544-.048 2.664-2.232 2.664h-3.984v3.6h6.216v15.864c0 5.328 3.144 6.408 6.288 6.408Zm13.294-31.728c1.488 0 2.76-.888 2.76-2.376 0-1.44-1.272-2.352-2.76-2.352-1.512 0-2.784.912-2.784 2.352 0 1.464 1.272 2.376 2.784 2.376ZM688.162 383h4.032v-25.488h-4.032V383Zm23.715.48c7.656 0 11.784-5.016 11.784-9.648h-4.056c-.192 3.144-2.568 5.904-7.752 5.904-4.8 0-8.904-3.216-8.904-9.504 0-6.312 4.128-9.36 8.904-9.36 4.224 0 7.272 2.232 7.68 5.424.024.216.072.432.072.6h4.056v-.168c0-4.488-4.392-9.6-11.784-9.6-7.32 0-13.08 4.896-13.08 13.104 0 8.232 5.76 13.248 13.08 13.248Zm30.139-.48h4.104v-3.192a11.384 11.384 0 0 0 8.352 3.672c6.288 0 11.496-4.68 11.496-13.248 0-8.4-5.304-13.104-11.496-13.104-3.192 0-6.24 1.32-8.352 3.576v-15.216h-4.104V383Zm11.88-22.128c4.536 0 7.872 3 7.872 9.36 0 6.336-3.36 9.384-7.872 9.384-4.104 0-7.776-3.336-7.776-7.488v-3.816c0-4.152 3.696-7.44 7.776-7.44Zm42.736 14.112h-4.08c-.24 2.232-2.64 4.776-8.04 4.776-5.136 0-8.496-2.952-9.096-7.872h21.504c.048-.288.096-1.344.096-1.848 0-7.44-4.872-12.912-12.6-12.912-7.608 0-13.056 5.4-13.056 13.2 0 7.752 5.376 13.176 13.032 13.176 7.752 0 11.904-4.44 12.24-8.52Zm-12.168-14.16c5.088 0 7.896 3.312 8.16 7.416h-17.136c.744-4.608 4.2-7.416 8.976-7.416Zm43.199 14.16h-4.08c-.24 2.232-2.64 4.776-8.04 4.776-5.136 0-8.496-2.952-9.096-7.872h21.504c.048-.288.096-1.344.096-1.848 0-7.44-4.872-12.912-12.6-12.912-7.608 0-13.056 5.4-13.056 13.2 0 7.752 5.376 13.176 13.032 13.176 7.752 0 11.904-4.44 12.24-8.52Zm-12.168-14.16c5.088 0 7.896 3.312 8.16 7.416h-17.136c.744-4.608 4.2-7.416 8.976-7.416ZM834.406 383h4.08v-13.944c0-3.624 1.416-7.968 6.744-7.968 1.776 0 2.736.48 3.048.696l1.056-4.008c-.312-.192-1.68-.648-3.72-.648-3.504 0-5.808 1.584-7.128 3.72v-3.336h-4.08V383Zm18.199.624a2.77 2.77 0 0 0 2.785-2.784 2.786 2.786 0 0 0-2.785-2.784 2.77 2.77 0 0 0-2.783 2.784 2.756 2.756 0 0 0 2.783 2.784ZM358.478 257.275v-32.1H241.42v32.1h36.915V383h43.121V257.275h37.022Z" fill="#3C4043"/><path d="M376.552 626h4.032v-35.4h-4.032V626Zm27.668-37.512h-4.032V626h4.032v-37.512Zm19.54 37.968c7.68 0 13.056-5.592 13.056-13.224 0-7.632-5.376-13.08-13.056-13.08-7.68 0-13.056 5.448-13.056 13.08s5.376 13.224 13.056 13.224Zm0-3.744c-5.256 0-8.952-3.768-8.952-9.48 0-5.712 3.696-9.336 8.952-9.336s8.952 3.624 8.952 9.336-3.696 9.48-8.952 9.48Zm38.866-22.2h-4.224l-7.008 22.32-7.176-22.32h-4.224L448.73 626h5.352l8.544-25.488Zm27.959 17.472h-4.08c-.24 2.232-2.64 4.776-8.04 4.776-5.136 0-8.496-2.952-9.096-7.872h21.504c.048-.288.096-1.344.096-1.848 0-7.44-4.872-12.912-12.6-12.912-7.608 0-13.056 5.4-13.056 13.2 0 7.752 5.376 13.176 13.032 13.176 7.752 0 11.904-4.44 12.24-8.52Zm-12.168-14.16c5.088 0 7.896 3.312 8.16 7.416h-17.136c.744-4.608 4.2-7.416 8.976-7.416ZM509.328 626h4.08v-14.16c0-3.6 1.656-7.824 6.528-7.824 4.776 0 5.064 3.792 5.064 6.312V626h4.056v-14.52c0-3.216 1.464-7.464 6.408-7.464 4.968 0 5.16 3.72 5.16 6.216V626h4.08v-17.112c0-5.352-2.88-8.76-8.376-8.76-3.624 0-6.432 1.896-8.04 4.632-1.104-2.856-3.528-4.632-7.512-4.632-3.12 0-5.664 1.44-7.368 3.648v-3.264h-4.08V626Zm42.3 10.752c6.096 0 8.208-3.912 9.792-8.568l9.336-27.672h-4.2l-6.624 21.048-6.768-21.048h-4.272l8.784 25.632-.768 2.256c-.936 2.736-2.496 4.824-5.544 4.824-.96 0-2.064-.144-2.472-.336v3.552c.264.12 1.463.312 2.736.312Zm38.88-42.096c1.488 0 2.76-.912 2.76-2.376 0-1.44-1.272-2.352-2.76-2.352-1.512 0-2.784.912-2.784 2.352 0 1.464 1.272 2.376 2.784 2.376Zm-6.864 42.048c7.8 0 8.808-4.176 8.808-8.376v-27.816h-4.08v27.648c0 2.496-.312 5.496-4.728 5.496-.864 0-1.704-.12-2.16-.24v3.12c.432.096 1.272.168 2.16.168Zm28.553-10.248c7.68 0 13.056-5.592 13.056-13.224 0-7.632-5.376-13.08-13.056-13.08-7.68 0-13.056 5.448-13.056 13.08s5.376 13.224 13.056 13.224Zm0-3.744c-5.256 0-8.952-3.768-8.952-9.48 0-5.712 3.696-9.336 8.952-9.336s8.952 3.624 8.952 9.336-3.696 9.48-8.952 9.48ZM631.625 626h4.104v-3.192a11.384 11.384 0 0 0 8.352 3.672c6.288 0 11.496-4.68 11.496-13.248 0-8.4-5.304-13.104-11.496-13.104-3.192 0-6.24 1.32-8.352 3.576v-15.216h-4.104V626Zm11.88-22.128c4.536 0 7.872 3 7.872 9.36 0 6.336-3.36 9.384-7.872 9.384-4.104 0-7.776-3.336-7.776-7.488v-3.816c0-4.152 3.696-7.44 7.776-7.44Zm18.904 28.608c2.496-.984 5.52-4.416 5.52-7.8 0-2.28-1.272-3.576-3.36-3.576-1.968 0-3.312 1.104-3.312 2.832 0 1.728 1.272 2.688 2.88 2.688.552 0 1.152-.144 1.68-.48 0 1.848-2.4 4.464-4.032 5.184l.624 1.152Zm21.239-37.2c.793 0 1.393-.336 1.513-.576-.024 1.632-1.68 3.264-3.408 3.888l.528 1.152c2.424-.912 4.896-3.048 4.896-6.12 0-2.136-1.08-3.696-3.168-3.696-1.968 0-3.048 1.176-3.048 2.736 0 1.584 1.056 2.616 2.687 2.616Zm-7.847 0c.816 0 1.416-.336 1.536-.576-.048 1.632-1.68 3.264-3.432 3.888l.528 1.152c2.424-.912 4.92-3.048 4.92-6.12 0-2.136-1.104-3.696-3.168-3.696-1.992 0-3.072 1.176-3.072 2.736 0 1.584 1.056 2.616 2.688 2.616Zm38.928 31.2c5.88 0 10.823-2.496 10.823-7.464 0-4.92-4.511-6.576-9.815-7.536-4.464-.816-7.32-1.656-7.32-4.248 0-2.568 3.336-3.432 6.36-3.432 3.192 0 6.216 1.296 6.216 4.08v.36h4.08v-.48c0-4.92-4.8-7.632-10.344-7.632-5.784 0-10.344 2.616-10.344 7.272 0 4.8 4.536 6.624 9.72 7.512 4.92.84 7.416 1.68 7.416 4.32 0 2.424-2.88 3.552-6.696 3.552-4.176 0-6.72-1.392-6.72-3.984v-.528h-4.104v.744c0 4.824 4.608 7.464 10.728 7.464Zm26.066 0c4.464 0 7.824-1.392 9.576-3.504.048.552.144 1.056.288 1.416.288.792.648 1.44.816 1.608h4.104c-.216-.216-.624-.816-.912-1.776-.24-.792-.312-1.896-.312-3.024v-12.72c0-5.448-4.872-8.352-11.088-8.352-6.816 0-11.544 3.288-11.544 8.976h4.032c0-3.672 2.736-5.232 7.488-5.232 4.536 0 7.008 1.44 7.008 4.392v.072c0 1.416-2.424 1.848-8.688 2.472-6.264.624-10.416 3.024-10.416 8.016 0 4.8 3.816 7.656 9.648 7.656Zm.648-3.672c-4.224 0-6.192-1.44-6.192-4.224 0-2.952 2.448-3.96 7.296-4.416 2.856-.264 5.664-.648 7.704-1.272v3.216c0 4.416-3.864 6.696-8.808 6.696Zm21.978-28.152c1.488 0 2.76-.888 2.76-2.376 0-1.44-1.272-2.352-2.76-2.352-1.512 0-2.784.912-2.784 2.352 0 1.464 1.272 2.376 2.784 2.376ZM761.381 626h4.032v-25.488h-4.032V626Zm22.131.48c3.336 0 6.288-1.392 8.352-3.672V626h4.104v-37.512h-4.104v15.216c-2.112-2.256-5.16-3.576-8.352-3.576-6.192 0-11.496 4.704-11.496 13.104 0 8.568 5.208 13.248 11.496 13.248Zm.576-3.864c-4.512 0-7.872-3.048-7.872-9.384 0-6.36 3.336-9.36 7.872-9.36 4.08 0 7.776 3.288 7.776 7.44v3.6c0 4.32-3.528 7.704-7.776 7.704Zm-390.616 47.736v-3.6h-13.008V654.2h15.144v-3.6h-19.224V686h4.08v-15.648h13.008Zm14.792 16.128c4.464 0 7.824-1.392 9.576-3.504.048.552.144 1.056.288 1.416.288.792.648 1.44.816 1.608h4.104c-.216-.216-.624-.816-.913-1.776-.239-.792-.311-1.896-.311-3.024v-12.72c0-5.448-4.872-8.352-11.088-8.352-6.816 0-11.544 3.288-11.544 8.976h4.032c0-3.672 2.736-5.232 7.488-5.232 4.536 0 7.008 1.44 7.008 4.392v.072c0 1.416-2.424 1.848-8.688 2.472-6.264.624-10.416 3.024-10.416 8.016 0 4.8 3.816 7.656 9.648 7.656Zm.647-3.672c-4.223 0-6.191-1.44-6.191-4.224 0-2.952 2.448-3.96 7.296-4.416 2.856-.264 5.664-.648 7.704-1.272v3.216c0 4.416-3.864 6.696-8.809 6.696Zm29.075 3.576c1.224 0 2.232-.216 2.784-.408v-3.552c-.432.168-1.344.36-2.256.36-2.304 0-2.712-1.608-2.712-4.344v-14.328h7.968v-3.6h-7.968v-8.448h-4.104v5.784c0 2.544-.048 2.664-2.232 2.664h-3.984v3.6h6.216v15.864c0 5.328 3.144 6.408 6.288 6.408ZM449 686h4.08v-15.192c0-3.888 3.072-6.792 7.632-6.792 4.536 0 6.552 2.52 6.552 7.416V686h4.08v-15.48c0-6.504-3.768-10.392-9.888-10.392-3.456 0-6.408 1.32-8.376 3.408v-15.048H449V686Zm53.726-8.016h-4.08c-.24 2.232-2.64 4.776-8.04 4.776-5.136 0-8.496-2.952-9.096-7.872h21.504c.048-.288.096-1.344.096-1.848 0-7.44-4.872-12.912-12.6-12.912-7.608 0-13.056 5.4-13.056 13.2 0 7.752 5.376 13.176 13.032 13.176 7.752 0 11.904-4.44 12.24-8.52Zm-12.168-14.16c5.088 0 7.896 3.312 8.16 7.416h-17.136c.744-4.608 4.2-7.416 8.976-7.416ZM509.469 686h4.08v-13.944c0-3.624 1.416-7.968 6.744-7.968 1.776 0 2.736.48 3.048.696l1.056-4.008c-.312-.192-1.68-.648-3.72-.648-3.504 0-5.808 1.584-7.128 3.72v-3.336h-4.08V686Zm52.144-31.8v-3.6h-22.632v3.6h9.264V686h4.08v-31.8h9.288Zm25.769 23.784h-4.08c-.24 2.232-2.64 4.776-8.04 4.776-5.136 0-8.496-2.952-9.096-7.872h21.504c.048-.288.096-1.344.096-1.848 0-7.44-4.872-12.912-12.6-12.912-7.608 0-13.056 5.4-13.056 13.2 0 7.752 5.376 13.176 13.032 13.176 7.752 0 11.904-4.44 12.24-8.52Zm-12.168-14.16c5.088 0 7.896 3.312 8.16 7.416h-17.136c.744-4.608 4.2-7.416 8.976-7.416Zm29.423 22.656c3.336 0 6.288-1.392 8.352-3.672V686h4.104v-37.512h-4.104v15.216c-2.112-2.256-5.16-3.576-8.352-3.576-6.192 0-11.496 4.704-11.496 13.104 0 8.568 5.208 13.248 11.496 13.248Zm.576-3.864c-4.512 0-7.872-3.048-7.872-9.384 0-6.36 3.336-9.36 7.872-9.36 4.08 0 7.776 3.288 7.776 7.44v3.6c0 4.32-3.528 7.704-7.776 7.704Zm21.549 4.008a2.77 2.77 0 0 0 2.784-2.784 2.786 2.786 0 0 0-2.784-2.784 2.77 2.77 0 0 0-2.784 2.784 2.756 2.756 0 0 0 2.784 2.784Zm23.656-32.568c-.816 0-1.416.336-1.536.576.048-1.632 1.68-3.264 3.432-3.888l-.528-1.152c-2.424.912-4.92 3.048-4.92 6.12 0 2.136 1.104 3.696 3.168 3.696 1.992 0 3.072-1.176 3.072-2.736 0-1.584-1.056-2.616-2.688-2.616Zm7.848 0c-.816 0-1.416.336-1.536.576.048-1.632 1.68-3.264 3.432-3.888l-.528-1.152c-2.424.912-4.92 3.048-4.92 6.12 0 2.136 1.104 3.696 3.168 3.696 1.992 0 3.072-1.176 3.072-2.736 0-1.584-1.056-2.616-2.688-2.616ZM666.474 686h4.032v-35.4h-4.032V686Zm35.372.48c7.656 0 11.784-5.016 11.784-9.648h-4.056c-.192 3.144-2.568 5.904-7.752 5.904-4.8 0-8.904-3.216-8.904-9.504 0-6.312 4.128-9.36 8.904-9.36 4.224 0 7.272 2.232 7.68 5.424.024.216.072.432.072.6h4.056v-.168c0-4.488-4.392-9.6-11.784-9.6-7.32 0-13.08 4.896-13.08 13.104 0 8.232 5.76 13.248 13.08 13.248Zm30.211-.024c7.68 0 13.056-5.592 13.056-13.224 0-7.632-5.376-13.08-13.056-13.08-7.68 0-13.056 5.448-13.056 13.08s5.376 13.224 13.056 13.224Zm0-3.744c-5.256 0-8.952-3.768-8.952-9.48 0-5.712 3.696-9.336 8.952-9.336s8.952 3.624 8.952 9.336-3.696 9.48-8.952 9.48Zm28.836 3.744c3.528 0 6.36-1.752 8.208-4.248V686h4.08v-25.488h-4.08v13.512c0 3.984-3 8.664-7.392 8.664-4.728 0-6.12-3.408-6.12-7.296v-14.88h-4.104v15.864c0 4.344 2.088 10.08 9.408 10.08Zm23.765-37.968h-4.032V686h4.032v-37.512Zm17.979 37.992c3.336 0 6.288-1.392 8.352-3.672V686h4.104v-37.512h-4.104v15.216c-2.112-2.256-5.16-3.576-8.352-3.576-6.192 0-11.496 4.704-11.496 13.104 0 8.568 5.208 13.248 11.496 13.248Zm.576-3.864c-4.512 0-7.872-3.048-7.872-9.384 0-6.36 3.336-9.36 7.872-9.36 4.08 0 7.776 3.288 7.776 7.44v3.6c0 4.32-3.528 7.704-7.776 7.704ZM376.672 746h4.08v-14.184c0-4.344 3.504-7.8 7.608-7.8 4.656 0 6.552 2.616 6.552 6.6V746h4.08v-16.464c0-5.88-3.888-9.408-9.792-9.408-3.384 0-6.456 1.608-8.448 4.128v-3.744h-4.08V746Zm53.726-8.016h-4.08c-.24 2.232-2.64 4.776-8.04 4.776-5.136 0-8.496-2.952-9.096-7.872h21.504c.048-.288.096-1.344.096-1.848 0-7.44-4.872-12.912-12.6-12.912-7.608 0-13.056 5.4-13.056 13.2 0 7.752 5.376 13.176 13.032 13.176 7.752 0 11.904-4.44 12.24-8.52Zm-12.168-14.16c5.088 0 7.896 3.312 8.16 7.416h-17.136c.744-4.608 4.2-7.416 8.976-7.416Zm38.349-3.312h-4.224l-7.008 22.32-7.176-22.32h-4.224L442.683 746h5.352l8.544-25.488Zm27.959 17.472h-4.08c-.24 2.232-2.64 4.776-8.04 4.776-5.136 0-8.496-2.952-9.096-7.872h21.504c.048-.288.096-1.344.096-1.848 0-7.44-4.872-12.912-12.6-12.912-7.608 0-13.056 5.4-13.056 13.2 0 7.752 5.376 13.176 13.032 13.176 7.752 0 11.904-4.44 12.24-8.52Zm-12.168-14.16c5.088 0 7.896 3.312 8.16 7.416h-17.136c.744-4.608 4.2-7.416 8.976-7.416ZM491.281 746h4.08v-13.944c0-3.624 1.416-7.968 6.744-7.968 1.776 0 2.736.48 3.048.696l1.056-4.008c-.312-.192-1.68-.648-3.72-.648-3.504 0-5.808 1.584-7.128 3.72v-3.336h-4.08V746Zm47.585-1.56-9-.72c-2.76-.216-3.456-.984-3.456-2.184 0-.816.624-1.56 1.272-2.04 1.584.672 3.456 1.056 5.592 1.056 6.936 0 10.488-4.392 11.376-10.008l1.584-10.032h-3.84l-.456 3.528c-1.608-2.136-4.776-3.912-8.928-3.912-6.6 0-11.232 4.464-11.232 10.32 0 2.952 1.104 5.52 3.168 7.344-1.176.696-2.64 2.568-2.64 4.512 0 2.496 2.232 4.44 5.472 4.68l9.696.72c2.544.192 4.536.36 4.536 2.448s-2.736 3.384-8.712 3.384c-5.352 0-8.376-.912-8.376-3.48 0-.96.288-1.704.552-2.064l-3.888-.576c-.384.624-.744 1.608-.744 2.88 0 4.056 4.152 6.576 12.264 6.576 8.592 0 12.744-2.856 12.744-6.96 0-3.672-2.88-5.136-6.984-5.472Zm-5.616-7.536c-4.656 0-7.464-2.4-7.464-6.48 0-4.008 3.072-6.648 7.488-6.648 4.608 0 7.44 2.544 7.44 6.576 0 4.2-2.808 6.552-7.464 6.552Zm29.447 9.552c7.68 0 13.056-5.592 13.056-13.224 0-7.632-5.376-13.08-13.056-13.08-7.68 0-13.056 5.448-13.056 13.08s5.376 13.224 13.056 13.224Zm0-3.744c-5.256 0-8.952-3.768-8.952-9.48 0-5.712 3.696-9.336 8.952-9.336s8.952 3.624 8.952 9.336-3.696 9.48-8.952 9.48ZM594.125 746h4.104v-3.192a11.384 11.384 0 0 0 8.352 3.672c6.288 0 11.496-4.68 11.496-13.248 0-8.4-5.304-13.104-11.496-13.104-3.192 0-6.24 1.32-8.352 3.576v-15.216h-4.104V746Zm11.88-22.128c4.536 0 7.872 3 7.872 9.36 0 6.336-3.36 9.384-7.872 9.384-4.104 0-7.776-3.336-7.776-7.488v-3.816c0-4.152 3.696-7.44 7.776-7.44Zm27.352 22.608c4.464 0 7.824-1.392 9.576-3.504.048.552.144 1.056.288 1.416.288.792.648 1.44.816 1.608h4.104c-.216-.216-.624-.816-.912-1.776-.24-.792-.312-1.896-.312-3.024v-12.72c0-5.448-4.872-8.352-11.088-8.352-6.816 0-11.544 3.288-11.544 8.976h4.032c0-3.672 2.736-5.232 7.488-5.232 4.536 0 7.008 1.44 7.008 4.392v.072c0 1.416-2.424 1.848-8.688 2.472-6.264.624-10.416 3.024-10.416 8.016 0 4.8 3.816 7.656 9.648 7.656Zm.648-3.672c-4.224 0-6.192-1.44-6.192-4.224 0-2.952 2.448-3.96 7.296-4.416 2.856-.264 5.664-.648 7.704-1.272v3.216c0 4.416-3.864 6.696-8.808 6.696Zm31.794 3.672c7.656 0 11.784-5.016 11.784-9.648h-4.056c-.192 3.144-2.568 5.904-7.752 5.904-4.8 0-8.904-3.216-8.904-9.504 0-6.312 4.128-9.36 8.904-9.36 4.224 0 7.272 2.232 7.68 5.424.024.216.072.432.072.6h4.056v-.168c0-4.488-4.392-9.6-11.784-9.6-7.32 0-13.08 4.896-13.08 13.104 0 8.232 5.76 13.248 13.08 13.248Zm18.139-.48h3.888v-11.184l3.024-2.616 8.976 13.8h4.392l-10.752-16.104 10.656-9.384h-5.28l-11.016 9.432v-21.456h-3.888V746Zm27.152.624a2.77 2.77 0 0 0 2.784-2.784 2.786 2.786 0 0 0-2.784-2.784 2.77 2.77 0 0 0-2.784 2.784 2.756 2.756 0 0 0 2.784 2.784Zm18.496-31.344c.792 0 1.392-.336 1.512-.576-.024 1.632-1.68 3.264-3.408 3.888l.528 1.152c2.424-.912 4.896-3.048 4.896-6.12 0-2.136-1.08-3.696-3.168-3.696-1.968 0-3.048 1.176-3.048 2.736 0 1.584 1.056 2.616 2.688 2.616Zm-7.848 0c.816 0 1.416-.336 1.536-.576-.048 1.632-1.68 3.264-3.432 3.888l.528 1.152c2.424-.912 4.92-3.048 4.92-6.12 0-2.136-1.104-3.696-3.168-3.696-1.992 0-3.072 1.176-3.072 2.736 0 1.584 1.056 2.616 2.688 2.616ZM263.783 610.003c-5.885 0-9.63 2.354-10.165 2.996.214-8.56 13.91-18.404 24.289-22.791l-4.922-9.844c-16.264 7.062-36.915 20.972-36.915 43.977 0 16.157 8.667 27.285 24.075 27.285s24.182-8.988 24.182-21.614c0-12.626-8.453-20.009-20.544-20.009Zm56.068 0c-5.885 0-9.63 2.354-10.165 2.996.214-8.56 13.91-18.404 24.289-22.791l-4.922-9.844c-16.264 7.062-36.915 20.972-36.915 43.977 0 16.157 8.667 27.285 24.075 27.285s24.182-8.988 24.182-21.614c0-12.626-8.453-20.009-20.544-20.009Z" fill="#FF6D7F"/><path d="M1114.67 263h4.08v-15.192c0-3.888 3.07-6.792 7.63-6.792 4.54 0 6.56 2.52 6.56 7.416V263h4.08v-15.48c0-6.504-3.77-10.392-9.89-10.392-3.46 0-6.41 1.32-8.38 3.408v-15.048h-4.08V263Zm53.73-8.016h-4.08c-.24 2.232-2.64 4.776-8.04 4.776-5.14 0-8.5-2.952-9.1-7.872h21.51c.04-.288.09-1.344.09-1.848 0-7.44-4.87-12.912-12.6-12.912-7.61 0-13.05 5.4-13.05 13.2 0 7.752 5.37 13.176 13.03 13.176 7.75 0 11.9-4.44 12.24-8.52Zm-12.17-14.16c5.09 0 7.9 3.312 8.16 7.416h-17.14c.75-4.608 4.2-7.416 8.98-7.416ZM1187.14 263h4.1v-3.192a11.402 11.402 0 0 0 8.36 3.672c6.28 0 11.49-4.68 11.49-13.248 0-8.4-5.3-13.104-11.49-13.104-3.2 0-6.24 1.32-8.36 3.576v-15.216h-4.1V263Zm11.88-22.128c4.54 0 7.87 3 7.87 9.36 0 6.336-3.36 9.384-7.87 9.384-4.1 0-7.78-3.336-7.78-7.488v-3.816c0-4.152 3.7-7.44 7.78-7.44Zm42.74 14.112h-4.08c-.24 2.232-2.64 4.776-8.04 4.776-5.14 0-8.5-2.952-9.1-7.872h21.5c.05-.288.1-1.344.1-1.848 0-7.44-4.87-12.912-12.6-12.912-7.61 0-13.06 5.4-13.06 13.2 0 7.752 5.38 13.176 13.04 13.176 7.75 0 11.9-4.44 12.24-8.52Zm-12.17-14.16c5.09 0 7.89 3.312 8.16 7.416h-17.14c.75-4.608 4.2-7.416 8.98-7.416Zm28.65 22.656c5.88 0 10.83-2.496 10.83-7.464 0-4.92-4.51-6.576-9.82-7.536-4.46-.816-7.32-1.656-7.32-4.248 0-2.568 3.34-3.432 6.36-3.432 3.19 0 6.22 1.296 6.22 4.08v.36h4.08v-.48c0-4.92-4.8-7.632-10.35-7.632-5.78 0-10.34 2.616-10.34 7.272 0 4.8 4.54 6.624 9.72 7.512 4.92.84 7.42 1.68 7.42 4.32 0 2.424-2.88 3.552-6.7 3.552-4.18 0-6.72-1.392-6.72-3.984v-.528h-4.1v.744c0 4.824 4.6 7.464 10.72 7.464Zm26.73-.096c1.22 0 2.23-.216 2.78-.408v-3.552c-.43.168-1.34.36-2.25.36-2.31 0-2.71-1.608-2.71-4.344v-14.328h7.96v-3.6h-7.96v-8.448h-4.11v5.784c0 2.544-.05 2.664-2.23 2.664h-3.98v3.6h6.21v15.864c0 5.328 3.15 6.408 6.29 6.408Zm33.09 0c1.23 0 2.24-.216 2.79-.408v-3.552c-.43.168-1.35.36-2.26.36-2.3 0-2.71-1.608-2.71-4.344v-14.328h7.97v-3.6h-7.97v-8.448h-4.1v5.784c0 2.544-.05 2.664-2.24 2.664h-3.98v3.6h6.22v15.864c0 5.328 3.14 6.408 6.28 6.408Zm11.02-.384h4.08v-15.192c0-3.888 3.07-6.792 7.63-6.792 4.54 0 6.55 2.52 6.55 7.416V263h4.08v-15.48c0-6.504-3.77-10.392-9.89-10.392-3.45 0-6.4 1.32-8.37 3.408v-15.048h-4.08V263Zm31.72-31.344c1.48 0 2.76-.888 2.76-2.376 0-1.44-1.28-2.352-2.76-2.352-1.52 0-2.79.912-2.79 2.352 0 1.464 1.27 2.376 2.79 2.376ZM1358.76 263h4.03v-25.488h-4.03V263Zm11.62 0h4.08v-14.184c0-4.344 3.5-7.8 7.6-7.8 4.66 0 6.56 2.616 6.56 6.6V263h4.08v-16.464c0-5.88-3.89-9.408-9.8-9.408-3.38 0-6.45 1.608-8.44 4.128v-3.744h-4.08V263Zm45.7-1.56-9-.72c-2.76-.216-3.45-.984-3.45-2.184 0-.816.62-1.56 1.27-2.04 1.58.672 3.46 1.056 5.59 1.056 6.94 0 10.49-4.392 11.38-10.008l1.58-10.032h-3.84l-.45 3.528c-1.61-2.136-4.78-3.912-8.93-3.912-6.6 0-11.23 4.464-11.23 10.32 0 2.952 1.1 5.52 3.16 7.344-1.17.696-2.64 2.568-2.64 4.512 0 2.496 2.24 4.44 5.48 4.68l9.69.72c2.55.192 4.54.36 4.54 2.448s-2.74 3.384-8.71 3.384c-5.36 0-8.38-.912-8.38-3.48 0-.96.29-1.704.55-2.064l-3.89-.576c-.38.624-.74 1.608-.74 2.88 0 4.056 4.15 6.576 12.26 6.576 8.6 0 12.75-2.856 12.75-6.96 0-3.672-2.88-5.136-6.99-5.472Zm-5.61-7.536c-4.66 0-7.47-2.4-7.47-6.48 0-4.008 3.08-6.648 7.49-6.648 4.61 0 7.44 2.544 7.44 6.576 0 4.2-2.81 6.552-7.46 6.552Zm39.5 9.576c4.46 0 7.82-1.392 9.57-3.504.05.552.15 1.056.29 1.416.29.792.65 1.44.82 1.608h4.1c-.22-.216-.62-.816-.91-1.776-.24-.792-.31-1.896-.31-3.024v-12.72c0-5.448-4.88-8.352-11.09-8.352-6.82 0-11.55 3.288-11.55 8.976h4.04c0-3.672 2.73-5.232 7.48-5.232 4.54 0 7.01 1.44 7.01 4.392v.072c0 1.416-2.42 1.848-8.69 2.472-6.26.624-10.41 3.024-10.41 8.016 0 4.8 3.81 7.656 9.65 7.656Zm.64-3.672c-4.22 0-6.19-1.44-6.19-4.224 0-2.952 2.45-3.96 7.3-4.416 2.85-.264 5.66-.648 7.7-1.272v3.216c0 4.416-3.86 6.696-8.81 6.696Zm19.7 3.192h4.11v-3.192a11.38 11.38 0 0 0 8.35 3.672c6.29 0 11.49-4.68 11.49-13.248 0-8.4-5.3-13.104-11.49-13.104-3.19 0-6.24 1.32-8.35 3.576v-15.216h-4.11V263Zm11.88-22.128c4.54 0 7.87 3 7.87 9.36 0 6.336-3.36 9.384-7.87 9.384-4.1 0-7.77-3.336-7.77-7.488v-3.816c0-4.152 3.69-7.44 7.77-7.44Zm30.52 22.584c7.68 0 13.06-5.592 13.06-13.224 0-7.632-5.38-13.08-13.06-13.08-7.68 0-13.05 5.448-13.05 13.08s5.37 13.224 13.05 13.224Zm0-3.744c-5.25 0-8.95-3.768-8.95-9.48 0-5.712 3.7-9.336 8.95-9.336 5.26 0 8.95 3.624 8.95 9.336s-3.69 9.48-8.95 9.48Zm28.84 3.744c3.53 0 6.36-1.752 8.21-4.248V263h4.08v-25.488h-4.08v13.512c0 3.984-3 8.664-7.4 8.664-4.72 0-6.12-3.408-6.12-7.296v-14.88h-4.1v15.864c0 4.344 2.09 10.08 9.41 10.08Zm29.45-.072c1.23 0 2.23-.216 2.79-.408v-3.552c-.44.168-1.35.36-2.26.36-2.3 0-2.71-1.608-2.71-4.344v-14.328h7.97v-3.6h-7.97v-8.448h-4.11v5.784c0 2.544-.04 2.664-2.23 2.664h-3.98v3.6h6.21v15.864c0 5.328 3.15 6.408 6.29 6.408ZM1114.67 323h4.08v-14.16c0-3.6 1.66-7.824 6.53-7.824 4.78 0 5.06 3.792 5.06 6.312V323h4.06v-14.52c0-3.216 1.46-7.464 6.41-7.464 4.97 0 5.16 3.72 5.16 6.216V323h4.08v-17.112c0-5.352-2.88-8.76-8.38-8.76-3.62 0-6.43 1.896-8.04 4.632-1.1-2.856-3.53-4.632-7.51-4.632-3.12 0-5.66 1.44-7.37 3.648v-3.264h-4.08V323Zm54.54.456c7.68 0 13.06-5.592 13.06-13.224 0-7.632-5.38-13.08-13.06-13.08-7.68 0-13.05 5.448-13.05 13.08s5.37 13.224 13.05 13.224Zm0-3.744c-5.25 0-8.95-3.768-8.95-9.48 0-5.712 3.7-9.336 8.95-9.336 5.26 0 8.95 3.624 8.95 9.336s-3.69 9.48-8.95 9.48Zm19.43 3.288h4.08v-14.184c0-4.344 3.5-7.8 7.61-7.8 4.65 0 6.55 2.616 6.55 6.6V323h4.08v-16.464c0-5.88-3.89-9.408-9.79-9.408-3.39 0-6.46 1.608-8.45 4.128v-3.744h-4.08V323Zm29.44 0h3.89v-11.184l3.02-2.616 8.98 13.8h4.39l-10.75-16.104 10.65-9.384h-5.28l-11.01 9.432v-21.456h-3.89V323Zm33.18.48c5.88 0 10.82-2.496 10.82-7.464 0-4.92-4.51-6.576-9.81-7.536-4.47-.816-7.32-1.656-7.32-4.248 0-2.568 3.33-3.432 6.36-3.432 3.19 0 6.21 1.296 6.21 4.08v.36h4.08v-.48c0-4.92-4.8-7.632-10.34-7.632-5.78 0-10.34 2.616-10.34 7.272 0 4.8 4.53 6.624 9.72 7.512 4.92.84 7.41 1.68 7.41 4.32 0 2.424-2.88 3.552-6.69 3.552-4.18 0-6.72-1.392-6.72-3.984v-.528h-4.11v.744c0 4.824 4.61 7.464 10.73 7.464Zm31.44-31.824c1.49 0 2.76-.888 2.76-2.376 0-1.44-1.27-2.352-2.76-2.352-1.51 0-2.78.912-2.78 2.352 0 1.464 1.27 2.376 2.78 2.376ZM1280.66 323h4.03v-25.488h-4.03V323Zm21.37.48c5.88 0 10.82-2.496 10.82-7.464 0-4.92-4.51-6.576-9.82-7.536-4.46-.816-7.32-1.656-7.32-4.248 0-2.568 3.34-3.432 6.36-3.432 3.2 0 6.22 1.296 6.22 4.08v.36h4.08v-.48c0-4.92-4.8-7.632-10.34-7.632-5.79 0-10.35 2.616-10.35 7.272 0 4.8 4.54 6.624 9.72 7.512 4.92.84 7.42 1.68 7.42 4.32 0 2.424-2.88 3.552-6.7 3.552-4.17 0-6.72-1.392-6.72-3.984v-.528h-4.1v.744c0 4.824 4.61 7.464 10.73 7.464Zm39.24-.096c1.22 0 2.23-.216 2.78-.408v-3.552c-.43.168-1.34.36-2.25.36-2.31 0-2.72-1.608-2.72-4.344v-14.328h7.97v-3.6h-7.97v-8.448h-4.1v5.784c0 2.544-.05 2.664-2.23 2.664h-3.99v3.6h6.22v15.864c0 5.328 3.14 6.408 6.29 6.408Zm11.01-.384h4.08v-15.192c0-3.888 3.07-6.792 7.63-6.792 4.54 0 6.56 2.52 6.56 7.416V323h4.08v-15.48c0-6.504-3.77-10.392-9.89-10.392-3.46 0-6.41 1.32-8.38 3.408v-15.048h-4.08V323Zm38.34.48c4.47 0 7.83-1.392 9.58-3.504.05.552.14 1.056.29 1.416.28.792.64 1.44.81 1.608h4.11c-.22-.216-.63-.816-.92-1.776-.24-.792-.31-1.896-.31-3.024v-12.72c0-5.448-4.87-8.352-11.09-8.352-6.81 0-11.54 3.288-11.54 8.976h4.03c0-3.672 2.74-5.232 7.49-5.232 4.54 0 7.01 1.44 7.01 4.392v.072c0 1.416-2.43 1.848-8.69 2.472-6.26.624-10.42 3.024-10.42 8.016 0 4.8 3.82 7.656 9.65 7.656Zm.65-3.672c-4.22 0-6.19-1.44-6.19-4.224 0-2.952 2.45-3.96 7.29-4.416 2.86-.264 5.67-.648 7.71-1.272v3.216c0 4.416-3.87 6.696-8.81 6.696Zm29.08 3.576c1.22 0 2.23-.216 2.78-.408v-3.552c-.43.168-1.34.36-2.26.36-2.3 0-2.71-1.608-2.71-4.344v-14.328h7.97v-3.6h-7.97v-8.448h-4.1v5.784c0 2.544-.05 2.664-2.23 2.664h-3.99v3.6h6.22v15.864c0 5.328 3.14 6.408 6.29 6.408Zm33.09 0c1.22 0 2.23-.216 2.78-.408v-3.552c-.43.168-1.34.36-2.25.36-2.31 0-2.71-1.608-2.71-4.344v-14.328h7.96v-3.6h-7.96v-8.448h-4.11v5.784c0 2.544-.05 2.664-2.23 2.664h-3.98v3.6h6.21v15.864c0 5.328 3.15 6.408 6.29 6.408Zm11.01-.384h4.08v-15.192c0-3.888 3.08-6.792 7.64-6.792 4.53 0 6.55 2.52 6.55 7.416V323h4.08v-15.48c0-6.504-3.77-10.392-9.89-10.392-3.46 0-6.41 1.32-8.38 3.408v-15.048h-4.08V323Zm53.73-8.016h-4.08c-.24 2.232-2.64 4.776-8.04 4.776-5.14 0-8.5-2.952-9.1-7.872h21.51c.04-.288.09-1.344.09-1.848 0-7.44-4.87-12.912-12.6-12.912-7.61 0-13.05 5.4-13.05 13.2 0 7.752 5.37 13.176 13.03 13.176 7.75 0 11.9-4.44 12.24-8.52Zm-12.17-14.16c5.09 0 7.9 3.312 8.16 7.416h-17.14c.75-4.608 4.2-7.416 8.98-7.416Zm18.13 32.928c6.1 0 8.21-3.912 9.8-8.568l9.33-27.672h-4.2l-6.62 21.048-6.77-21.048h-4.27l8.78 25.632-.77 2.256c-.93 2.736-2.49 4.824-5.54 4.824-.96 0-2.06-.144-2.47-.336v3.552c.26.12 1.46.312 2.73.312ZM1114.67 383h4.08v-14.16c0-3.6 1.66-7.824 6.53-7.824 4.78 0 5.06 3.792 5.06 6.312V383h4.06v-14.52c0-3.216 1.46-7.464 6.41-7.464 4.97 0 5.16 3.72 5.16 6.216V383h4.08v-17.112c0-5.352-2.88-8.76-8.38-8.76-3.62 0-6.43 1.896-8.04 4.632-1.1-2.856-3.53-4.632-7.51-4.632-3.12 0-5.66 1.44-7.37 3.648v-3.264h-4.08V383Zm51.37.48c4.47 0 7.83-1.392 9.58-3.504.05.552.14 1.056.29 1.416.29.792.65 1.44.81 1.608h4.11c-.22-.216-.63-.816-.91-1.776-.24-.792-.32-1.896-.32-3.024v-12.72c0-5.448-4.87-8.352-11.08-8.352-6.82 0-11.55 3.288-11.55 8.976h4.03c0-3.672 2.74-5.232 7.49-5.232 4.54 0 7.01 1.44 7.01 4.392v.072c0 1.416-2.42 1.848-8.69 2.472-6.26.624-10.41 3.024-10.41 8.016 0 4.8 3.81 7.656 9.64 7.656Zm.65-3.672c-4.22 0-6.19-1.44-6.19-4.224 0-2.952 2.45-3.96 7.3-4.416 2.85-.264 5.66-.648 7.7-1.272v3.216c0 4.416-3.86 6.696-8.81 6.696Zm19.7 3.192h3.89v-11.184l3.02-2.616 8.98 13.8h4.39l-10.75-16.104 10.65-9.384h-5.28l-11.01 9.432v-21.456h-3.89V383Zm47.73-8.016h-4.08c-.24 2.232-2.64 4.776-8.04 4.776-5.14 0-8.5-2.952-9.1-7.872h21.5c.05-.288.1-1.344.1-1.848 0-7.44-4.87-12.912-12.6-12.912-7.61 0-13.06 5.4-13.06 13.2 0 7.752 5.38 13.176 13.04 13.176 7.75 0 11.9-4.44 12.24-8.52Zm-12.17-14.16c5.09 0 7.89 3.312 8.16 7.416h-17.14c.75-4.608 4.2-7.416 8.98-7.416ZM1256 383h4.08v-21.888h7.44v-3.6h-7.44v-2.544c0-3.192.82-6.168 5.19-6.168 1.03 0 2.01.216 2.4.336v-3.6c-.34-.144-1.25-.408-2.81-.408-5.45 0-8.86 3.384-8.86 9.096v3.288h-5.56v3.6h5.56V383Zm23.86.48c4.46 0 7.82-1.392 9.57-3.504.05.552.15 1.056.29 1.416.29.792.65 1.44.82 1.608h4.1c-.21-.216-.62-.816-.91-1.776-.24-.792-.31-1.896-.31-3.024v-12.72c0-5.448-4.87-8.352-11.09-8.352-6.82 0-11.54 3.288-11.54 8.976h4.03c0-3.672 2.73-5.232 7.49-5.232 4.53 0 7 1.44 7 4.392v.072c0 1.416-2.42 1.848-8.68 2.472-6.27.624-10.42 3.024-10.42 8.016 0 4.8 3.82 7.656 9.65 7.656Zm.65-3.672c-4.23 0-6.2-1.44-6.2-4.224 0-2.952 2.45-3.96 7.3-4.416 2.86-.264 5.66-.648 7.7-1.272v3.216c0 4.416-3.86 6.696-8.8 6.696ZM1300.2 383h4.08v-14.184c0-4.344 3.51-7.8 7.61-7.8 4.66 0 6.55 2.616 6.55 6.6V383h4.08v-16.464c0-5.88-3.88-9.408-9.79-9.408-3.38 0-6.45 1.608-8.45 4.128v-3.744h-4.08V383Zm38.82.384c1.22 0 2.23-.216 2.78-.408v-3.552c-.43.168-1.34.36-2.25.36-2.31 0-2.72-1.608-2.72-4.344v-14.328h7.97v-3.6h-7.97v-8.448h-4.1v5.784c0 2.544-.05 2.664-2.23 2.664h-3.99v3.6h6.22v15.864c0 5.328 3.14 6.408 6.29 6.408Zm19.07.096c4.47 0 7.83-1.392 9.58-3.504.05.552.14 1.056.29 1.416.28.792.64 1.44.81 1.608h4.11c-.22-.216-.63-.816-.92-1.776-.24-.792-.31-1.896-.31-3.024v-12.72c0-5.448-4.87-8.352-11.09-8.352-6.81 0-11.54 3.288-11.54 8.976h4.03c0-3.672 2.74-5.232 7.49-5.232 4.54 0 7.01 1.44 7.01 4.392v.072c0 1.416-2.43 1.848-8.69 2.472-6.26.624-10.42 3.024-10.42 8.016 0 4.8 3.82 7.656 9.65 7.656Zm.65-3.672c-4.22 0-6.19-1.44-6.19-4.224 0-2.952 2.45-3.96 7.29-4.416 2.86-.264 5.67-.648 7.71-1.272v3.216c0 4.416-3.87 6.696-8.81 6.696Zm29.44 3.672c5.88 0 10.83-2.496 10.83-7.464 0-4.92-4.52-6.576-9.82-7.536-4.46-.816-7.32-1.656-7.32-4.248 0-2.568 3.34-3.432 6.36-3.432 3.19 0 6.22 1.296 6.22 4.08v.36h4.08v-.48c0-4.92-4.8-7.632-10.35-7.632-5.78 0-10.34 2.616-10.34 7.272 0 4.8 4.53 6.624 9.72 7.512 4.92.84 7.41 1.68 7.41 4.32 0 2.424-2.88 3.552-6.69 3.552-4.18 0-6.72-1.392-6.72-3.984v-.528h-4.11v.744c0 4.824 4.61 7.464 10.73 7.464Zm26.73-.096c1.22 0 2.23-.216 2.78-.408v-3.552c-.43.168-1.34.36-2.25.36-2.31 0-2.72-1.608-2.72-4.344v-14.328h7.97v-3.6h-7.97v-8.448h-4.1v5.784c0 2.544-.05 2.664-2.23 2.664h-3.99v3.6h6.22v15.864c0 5.328 3.14 6.408 6.29 6.408Zm13.29-31.728c1.49 0 2.76-.888 2.76-2.376 0-1.44-1.27-2.352-2.76-2.352-1.51 0-2.78.912-2.78 2.352 0 1.464 1.27 2.376 2.78 2.376ZM1426.16 383h4.03v-25.488h-4.03V383Zm23.72.48c7.65 0 11.78-5.016 11.78-9.648h-4.05c-.2 3.144-2.57 5.904-7.76 5.904-4.8 0-8.9-3.216-8.9-9.504 0-6.312 4.13-9.36 8.9-9.36 4.23 0 7.28 2.232 7.68 5.424.03.216.08.432.08.6h4.05v-.168c0-4.488-4.39-9.6-11.78-9.6-7.32 0-13.08 4.896-13.08 13.104 0 8.232 5.76 13.248 13.08 13.248Zm30.14-.48h4.1v-3.192a11.38 11.38 0 0 0 8.35 3.672c6.29 0 11.5-4.68 11.5-13.248 0-8.4-5.31-13.104-11.5-13.104-3.19 0-6.24 1.32-8.35 3.576v-15.216h-4.1V383Zm11.88-22.128c4.53 0 7.87 3 7.87 9.36 0 6.336-3.36 9.384-7.87 9.384-4.11 0-7.78-3.336-7.78-7.488v-3.816c0-4.152 3.7-7.44 7.78-7.44Zm42.73 14.112h-4.08c-.24 2.232-2.64 4.776-8.04 4.776-5.13 0-8.49-2.952-9.09-7.872h21.5c.05-.288.1-1.344.1-1.848 0-7.44-4.88-12.912-12.6-12.912-7.61 0-13.06 5.4-13.06 13.2 0 7.752 5.38 13.176 13.03 13.176 7.75 0 11.91-4.44 12.24-8.52Zm-12.17-14.16c5.09 0 7.9 3.312 8.16 7.416h-17.13c.74-4.608 4.2-7.416 8.97-7.416Zm43.2 14.16h-4.08c-.24 2.232-2.64 4.776-8.04 4.776-5.13 0-8.49-2.952-9.09-7.872h21.5c.05-.288.1-1.344.1-1.848 0-7.44-4.87-12.912-12.6-12.912-7.61 0-13.06 5.4-13.06 13.2 0 7.752 5.38 13.176 13.03 13.176 7.76 0 11.91-4.44 12.24-8.52Zm-12.16-14.16c5.08 0 7.89 3.312 8.16 7.416h-17.14c.74-4.608 4.2-7.416 8.98-7.416ZM1572.41 383h4.08v-13.944c0-3.624 1.41-7.968 6.74-7.968 1.78 0 2.74.48 3.05.696l1.05-4.008c-.31-.192-1.68-.648-3.72-.648-3.5 0-5.8 1.584-7.12 3.72v-3.336h-4.08V383Zm18.2.624c1.53 0 2.78-1.224 2.78-2.784a2.786 2.786 0 0 0-2.78-2.784 2.776 2.776 0 0 0-2.79 2.784 2.76 2.76 0 0 0 2.79 2.784ZM1096.48 257.275v-32.1H979.42v32.1h36.92V383h43.12V257.275h37.02Z" fill="#3C4043"/><path d="M1169.06 588.488h-4.03V626h4.03v-37.512Zm19.54 37.968c7.68 0 13.06-5.592 13.06-13.224 0-7.632-5.38-13.08-13.06-13.08-7.68 0-13.05 5.448-13.05 13.08s5.37 13.224 13.05 13.224Zm0-3.744c-5.25 0-8.95-3.768-8.95-9.48 0-5.712 3.7-9.336 8.95-9.336 5.26 0 8.96 3.624 8.96 9.336s-3.7 9.48-8.96 9.48Zm38.87-22.2h-4.22l-7.01 22.32-7.18-22.32h-4.22l8.73 25.488h5.36l8.54-25.488Zm27.96 17.472h-4.08c-.24 2.232-2.64 4.776-8.04 4.776-5.14 0-8.5-2.952-9.1-7.872h21.51c.04-.288.09-1.344.09-1.848 0-7.44-4.87-12.912-12.6-12.912-7.61 0-13.05 5.4-13.05 13.2 0 7.752 5.37 13.176 13.03 13.176 7.75 0 11.9-4.44 12.24-8.52Zm-12.17-14.16c5.09 0 7.9 3.312 8.16 7.416h-17.14c.75-4.608 4.2-7.416 8.98-7.416ZM1274.17 626h4.08v-14.16c0-3.6 1.66-7.824 6.53-7.824 4.78 0 5.06 3.792 5.06 6.312V626h4.06v-14.52c0-3.216 1.46-7.464 6.41-7.464 4.97 0 5.16 3.72 5.16 6.216V626h4.08v-17.112c0-5.352-2.88-8.76-8.38-8.76-3.62 0-6.43 1.896-8.04 4.632-1.1-2.856-3.53-4.632-7.51-4.632-3.12 0-5.66 1.44-7.37 3.648v-3.264h-4.08V626Zm42.3 10.752c6.1 0 8.21-3.912 9.79-8.568l9.34-27.672h-4.2l-6.62 21.048-6.77-21.048h-4.27l8.78 25.632-.77 2.256c-.93 2.736-2.49 4.824-5.54 4.824-.96 0-2.07-.144-2.47-.336v3.552c.26.12 1.46.312 2.73.312Zm38.88-42.096c1.49 0 2.76-.912 2.76-2.376 0-1.44-1.27-2.352-2.76-2.352-1.51 0-2.78.912-2.78 2.352 0 1.464 1.27 2.376 2.78 2.376Zm-6.86 42.048c7.8 0 8.81-4.176 8.81-8.376v-27.816h-4.08v27.648c0 2.496-.32 5.496-4.73 5.496-.87 0-1.71-.12-2.16-.24v3.12c.43.096 1.27.168 2.16.168Zm28.55-10.248c7.68 0 13.06-5.592 13.06-13.224 0-7.632-5.38-13.08-13.06-13.08-7.68 0-13.06 5.448-13.06 13.08s5.38 13.224 13.06 13.224Zm0-3.744c-5.26 0-8.95-3.768-8.95-9.48 0-5.712 3.69-9.336 8.95-9.336s8.95 3.624 8.95 9.336-3.69 9.48-8.95 9.48Zm19.43 3.288h4.1v-3.192a11.38 11.38 0 0 0 8.35 3.672c6.29 0 11.5-4.68 11.5-13.248 0-8.4-5.3-13.104-11.5-13.104-3.19 0-6.24 1.32-8.35 3.576v-15.216h-4.1V626Zm11.88-22.128c4.53 0 7.87 3 7.87 9.36 0 6.336-3.36 9.384-7.87 9.384-4.11 0-7.78-3.336-7.78-7.488v-3.816c0-4.152 3.7-7.44 7.78-7.44Zm18.9 28.608c2.5-.984 5.52-4.416 5.52-7.8 0-2.28-1.27-3.576-3.36-3.576-1.96 0-3.31 1.104-3.31 2.832 0 1.728 1.27 2.688 2.88 2.688.55 0 1.15-.144 1.68-.48 0 1.848-2.4 4.464-4.03 5.184l.62 1.152Zm21.24-37.2c.79 0 1.39-.336 1.51-.576-.02 1.632-1.68 3.264-3.4 3.888l.52 1.152c2.43-.912 4.9-3.048 4.9-6.12 0-2.136-1.08-3.696-3.17-3.696-1.97 0-3.05 1.176-3.05 2.736 0 1.584 1.06 2.616 2.69 2.616Zm-7.85 0c.82 0 1.42-.336 1.54-.576-.05 1.632-1.68 3.264-3.43 3.888l.53 1.152c2.42-.912 4.92-3.048 4.92-6.12 0-2.136-1.11-3.696-3.17-3.696-1.99 0-3.07 1.176-3.07 2.736 0 1.584 1.05 2.616 2.68 2.616Zm38.93 31.2c5.88 0 10.83-2.496 10.83-7.464 0-4.92-4.52-6.576-9.82-7.536-4.46-.816-7.32-1.656-7.32-4.248 0-2.568 3.34-3.432 6.36-3.432 3.19 0 6.22 1.296 6.22 4.08v.36h4.08v-.48c0-4.92-4.8-7.632-10.35-7.632-5.78 0-10.34 2.616-10.34 7.272 0 4.8 4.53 6.624 9.72 7.512 4.92.84 7.41 1.68 7.41 4.32 0 2.424-2.88 3.552-6.69 3.552-4.18 0-6.72-1.392-6.72-3.984v-.528h-4.11v.744c0 4.824 4.61 7.464 10.73 7.464Zm26.07 0c4.46 0 7.82-1.392 9.57-3.504.05.552.15 1.056.29 1.416.29.792.65 1.44.82 1.608h4.1c-.21-.216-.62-.816-.91-1.776-.24-.792-.31-1.896-.31-3.024v-12.72c0-5.448-4.87-8.352-11.09-8.352-6.82 0-11.54 3.288-11.54 8.976h4.03c0-3.672 2.73-5.232 7.49-5.232 4.53 0 7 1.44 7 4.392v.072c0 1.416-2.42 1.848-8.68 2.472-6.27.624-10.42 3.024-10.42 8.016 0 4.8 3.82 7.656 9.65 7.656Zm.65-3.672c-4.23 0-6.2-1.44-6.2-4.224 0-2.952 2.45-3.96 7.3-4.416 2.86-.264 5.66-.648 7.7-1.272v3.216c0 4.416-3.86 6.696-8.8 6.696Zm21.97-28.152c1.49 0 2.76-.888 2.76-2.376 0-1.44-1.27-2.352-2.76-2.352-1.51 0-2.78.912-2.78 2.352 0 1.464 1.27 2.376 2.78 2.376ZM1526.22 626h4.04v-25.488h-4.04V626Zm22.14.48c3.33 0 6.28-1.392 8.35-3.672V626h4.1v-37.512h-4.1v15.216c-2.11-2.256-5.16-3.576-8.35-3.576-6.2 0-11.5 4.704-11.5 13.104 0 8.568 5.21 13.248 11.5 13.248Zm.57-3.864c-4.51 0-7.87-3.048-7.87-9.384 0-6.36 3.34-9.36 7.87-9.36 4.08 0 7.78 3.288 7.78 7.44v3.6c0 4.32-3.53 7.704-7.78 7.704Zm-367.46 47.736v-3.6h-13.01V654.2h15.15v-3.6h-19.23V686h4.08v-15.648h13.01Zm14.79 16.128c4.47 0 7.83-1.392 9.58-3.504.05.552.14 1.056.29 1.416.29.792.65 1.44.81 1.608h4.11c-.22-.216-.63-.816-.91-1.776-.24-.792-.32-1.896-.32-3.024v-12.72c0-5.448-4.87-8.352-11.08-8.352-6.82 0-11.55 3.288-11.55 8.976h4.03c0-3.672 2.74-5.232 7.49-5.232 4.54 0 7.01 1.44 7.01 4.392v.072c0 1.416-2.42 1.848-8.69 2.472-6.26.624-10.41 3.024-10.41 8.016 0 4.8 3.81 7.656 9.64 7.656Zm.65-3.672c-4.22 0-6.19-1.44-6.19-4.224 0-2.952 2.45-3.96 7.3-4.416 2.85-.264 5.66-.648 7.7-1.272v3.216c0 4.416-3.86 6.696-8.81 6.696Zm29.08 3.576c1.22 0 2.23-.216 2.78-.408v-3.552c-.43.168-1.34.36-2.26.36-2.3 0-2.71-1.608-2.71-4.344v-14.328h7.97v-3.6h-7.97v-8.448h-4.1v5.784c0 2.544-.05 2.664-2.23 2.664h-3.99v3.6h6.22v15.864c0 5.328 3.14 6.408 6.29 6.408ZM1237 686h4.08v-15.192c0-3.888 3.07-6.792 7.63-6.792 4.54 0 6.55 2.52 6.55 7.416V686h4.08v-15.48c0-6.504-3.76-10.392-9.88-10.392-3.46 0-6.41 1.32-8.38 3.408v-15.048H1237V686Zm53.73-8.016h-4.08c-.24 2.232-2.64 4.776-8.04 4.776-5.14 0-8.5-2.952-9.1-7.872h21.5c.05-.288.1-1.344.1-1.848 0-7.44-4.87-12.912-12.6-12.912-7.61 0-13.06 5.4-13.06 13.2 0 7.752 5.38 13.176 13.04 13.176 7.75 0 11.9-4.44 12.24-8.52Zm-12.17-14.16c5.09 0 7.89 3.312 8.16 7.416h-17.14c.75-4.608 4.2-7.416 8.98-7.416ZM1297.47 686h4.08v-13.944c0-3.624 1.41-7.968 6.74-7.968 1.78 0 2.74.48 3.05.696l1.06-4.008c-.32-.192-1.68-.648-3.72-.648-3.51 0-5.81 1.584-7.13 3.72v-3.336h-4.08V686Zm52.14-31.8v-3.6h-22.63v3.6h9.27V686h4.08v-31.8h9.28Zm25.77 23.784h-4.08c-.24 2.232-2.64 4.776-8.04 4.776-5.13 0-8.49-2.952-9.09-7.872h21.5c.05-.288.1-1.344.1-1.848 0-7.44-4.88-12.912-12.6-12.912-7.61 0-13.06 5.4-13.06 13.2 0 7.752 5.38 13.176 13.03 13.176 7.75 0 11.91-4.44 12.24-8.52Zm-12.17-14.16c5.09 0 7.9 3.312 8.16 7.416h-17.13c.74-4.608 4.2-7.416 8.97-7.416Zm29.43 22.656c3.33 0 6.29-1.392 8.35-3.672V686h4.1v-37.512h-4.1v15.216c-2.11-2.256-5.16-3.576-8.35-3.576-6.19 0-11.5 4.704-11.5 13.104 0 8.568 5.21 13.248 11.5 13.248Zm.57-3.864c-4.51 0-7.87-3.048-7.87-9.384 0-6.36 3.34-9.36 7.87-9.36 4.08 0 7.78 3.288 7.78 7.44v3.6c0 4.32-3.53 7.704-7.78 7.704Zm21.55 4.008c1.54 0 2.79-1.224 2.79-2.784a2.789 2.789 0 0 0-2.79-2.784 2.767 2.767 0 0 0-2.78 2.784c0 1.56 1.22 2.784 2.78 2.784Zm23.66-32.568c-.82 0-1.42.336-1.54.576.05-1.632 1.68-3.264 3.43-3.888l-.52-1.152c-2.43.912-4.92 3.048-4.92 6.12 0 2.136 1.1 3.696 3.16 3.696 2 0 3.08-1.176 3.08-2.736 0-1.584-1.06-2.616-2.69-2.616Zm7.85 0c-.82 0-1.42.336-1.54.576.05-1.632 1.68-3.264 3.43-3.888l-.53-1.152c-2.42.912-4.92 3.048-4.92 6.12 0 2.136 1.11 3.696 3.17 3.696 1.99 0 3.07-1.176 3.07-2.736 0-1.584-1.05-2.616-2.68-2.616Zm8.2 31.944h4.04v-35.4h-4.04V686Zm35.38.48c7.65 0 11.78-5.016 11.78-9.648h-4.06c-.19 3.144-2.56 5.904-7.75 5.904-4.8 0-8.9-3.216-8.9-9.504 0-6.312 4.13-9.36 8.9-9.36 4.23 0 7.27 2.232 7.68 5.424.03.216.07.432.07.6h4.06v-.168c0-4.488-4.39-9.6-11.78-9.6-7.32 0-13.08 4.896-13.08 13.104 0 8.232 5.76 13.248 13.08 13.248Zm30.21-.024c7.68 0 13.05-5.592 13.05-13.224 0-7.632-5.37-13.08-13.05-13.08-7.68 0-13.06 5.448-13.06 13.08s5.38 13.224 13.06 13.224Zm0-3.744c-5.26 0-8.96-3.768-8.96-9.48 0-5.712 3.7-9.336 8.96-9.336 5.25 0 8.95 3.624 8.95 9.336s-3.7 9.48-8.95 9.48Zm28.83 3.744c3.53 0 6.36-1.752 8.21-4.248V686h4.08v-25.488h-4.08v13.512c0 3.984-3 8.664-7.39 8.664-4.73 0-6.12-3.408-6.12-7.296v-14.88h-4.11v15.864c0 4.344 2.09 10.08 9.41 10.08Zm23.77-37.968h-4.03V686h4.03v-37.512Zm17.98 37.992c3.33 0 6.29-1.392 8.35-3.672V686h4.1v-37.512h-4.1v15.216c-2.11-2.256-5.16-3.576-8.35-3.576-6.19 0-11.5 4.704-11.5 13.104 0 8.568 5.21 13.248 11.5 13.248Zm.57-3.864c-4.51 0-7.87-3.048-7.87-9.384 0-6.36 3.34-9.36 7.87-9.36 4.08 0 7.78 3.288 7.78 7.44v3.6c0 4.32-3.53 7.704-7.78 7.704ZM1164.67 746h4.08v-14.184c0-4.344 3.51-7.8 7.61-7.8 4.66 0 6.55 2.616 6.55 6.6V746h4.08v-16.464c0-5.88-3.89-9.408-9.79-9.408-3.38 0-6.46 1.608-8.45 4.128v-3.744h-4.08V746Zm53.73-8.016h-4.08c-.24 2.232-2.64 4.776-8.04 4.776-5.14 0-8.5-2.952-9.1-7.872h21.51c.04-.288.09-1.344.09-1.848 0-7.44-4.87-12.912-12.6-12.912-7.61 0-13.05 5.4-13.05 13.2 0 7.752 5.37 13.176 13.03 13.176 7.75 0 11.9-4.44 12.24-8.52Zm-12.17-14.16c5.09 0 7.9 3.312 8.16 7.416h-17.14c.75-4.608 4.2-7.416 8.98-7.416Zm38.35-3.312h-4.22l-7.01 22.32-7.18-22.32h-4.22l8.73 25.488h5.36l8.54-25.488Zm27.96 17.472h-4.08c-.24 2.232-2.64 4.776-8.04 4.776-5.14 0-8.5-2.952-9.1-7.872h21.51c.04-.288.09-1.344.09-1.848 0-7.44-4.87-12.912-12.6-12.912-7.61 0-13.05 5.4-13.05 13.2 0 7.752 5.37 13.176 13.03 13.176 7.75 0 11.9-4.44 12.24-8.52Zm-12.17-14.16c5.09 0 7.9 3.312 8.16 7.416h-17.14c.75-4.608 4.2-7.416 8.98-7.416ZM1279.28 746h4.08v-13.944c0-3.624 1.42-7.968 6.75-7.968 1.77 0 2.73.48 3.04.696l1.06-4.008c-.31-.192-1.68-.648-3.72-.648-3.5 0-5.81 1.584-7.13 3.72v-3.336h-4.08V746Zm47.59-1.56-9-.72c-2.76-.216-3.46-.984-3.46-2.184 0-.816.62-1.56 1.27-2.04 1.59.672 3.46 1.056 5.59 1.056 6.94 0 10.49-4.392 11.38-10.008l1.58-10.032h-3.84l-.45 3.528c-1.61-2.136-4.78-3.912-8.93-3.912-6.6 0-11.23 4.464-11.23 10.32 0 2.952 1.1 5.52 3.17 7.344-1.18.696-2.64 2.568-2.64 4.512 0 2.496 2.23 4.44 5.47 4.68l9.69.72c2.55.192 4.54.36 4.54 2.448s-2.74 3.384-8.71 3.384c-5.35 0-8.38-.912-8.38-3.48 0-.96.29-1.704.55-2.064l-3.88-.576c-.39.624-.75 1.608-.75 2.88 0 4.056 4.15 6.576 12.27 6.576 8.59 0 12.74-2.856 12.74-6.96 0-3.672-2.88-5.136-6.98-5.472Zm-5.62-7.536c-4.66 0-7.46-2.4-7.46-6.48 0-4.008 3.07-6.648 7.48-6.648 4.61 0 7.44 2.544 7.44 6.576 0 4.2-2.8 6.552-7.46 6.552Zm29.45 9.552c7.68 0 13.05-5.592 13.05-13.224 0-7.632-5.37-13.08-13.05-13.08-7.68 0-13.06 5.448-13.06 13.08s5.38 13.224 13.06 13.224Zm0-3.744c-5.26 0-8.95-3.768-8.95-9.48 0-5.712 3.69-9.336 8.95-9.336 5.25 0 8.95 3.624 8.95 9.336s-3.7 9.48-8.95 9.48Zm31.43 3.288h4.1v-3.192a11.38 11.38 0 0 0 8.35 3.672c6.29 0 11.5-4.68 11.5-13.248 0-8.4-5.31-13.104-11.5-13.104-3.19 0-6.24 1.32-8.35 3.576v-15.216h-4.1V746Zm11.88-22.128c4.53 0 7.87 3 7.87 9.36 0 6.336-3.36 9.384-7.87 9.384-4.11 0-7.78-3.336-7.78-7.488v-3.816c0-4.152 3.7-7.44 7.78-7.44Zm27.35 22.608c4.46 0 7.82-1.392 9.57-3.504.05.552.15 1.056.29 1.416.29.792.65 1.44.82 1.608h4.1c-.21-.216-.62-.816-.91-1.776-.24-.792-.31-1.896-.31-3.024v-12.72c0-5.448-4.87-8.352-11.09-8.352-6.82 0-11.54 3.288-11.54 8.976h4.03c0-3.672 2.73-5.232 7.49-5.232 4.53 0 7 1.44 7 4.392v.072c0 1.416-2.42 1.848-8.68 2.472-6.27.624-10.42 3.024-10.42 8.016 0 4.8 3.82 7.656 9.65 7.656Zm.65-3.672c-4.23 0-6.2-1.44-6.2-4.224 0-2.952 2.45-3.96 7.3-4.416 2.86-.264 5.66-.648 7.7-1.272v3.216c0 4.416-3.86 6.696-8.8 6.696Zm31.79 3.672c7.66 0 11.78-5.016 11.78-9.648h-4.05c-.19 3.144-2.57 5.904-7.75 5.904-4.8 0-8.91-3.216-8.91-9.504 0-6.312 4.13-9.36 8.91-9.36 4.22 0 7.27 2.232 7.68 5.424.02.216.07.432.07.6h4.05v-.168c0-4.488-4.39-9.6-11.78-9.6-7.32 0-13.08 4.896-13.08 13.104 0 8.232 5.76 13.248 13.08 13.248Zm18.14-.48h3.89v-11.184l3.02-2.616 8.98 13.8h4.39l-10.75-16.104 10.65-9.384h-5.28l-11.01 9.432v-21.456h-3.89V746Zm27.15.624c1.54 0 2.78-1.224 2.78-2.784a2.78 2.78 0 0 0-2.78-2.784 2.767 2.767 0 0 0-2.78 2.784c0 1.56 1.22 2.784 2.78 2.784Zm18.5-31.344c.79 0 1.39-.336 1.51-.576-.03 1.632-1.68 3.264-3.41 3.888l.53 1.152c2.42-.912 4.89-3.048 4.89-6.12 0-2.136-1.08-3.696-3.16-3.696-1.97 0-3.05 1.176-3.05 2.736 0 1.584 1.05 2.616 2.69 2.616Zm-7.85 0c.81 0 1.41-.336 1.53-.576-.04 1.632-1.68 3.264-3.43 3.888l.53 1.152c2.42-.912 4.92-3.048 4.92-6.12 0-2.136-1.1-3.696-3.17-3.696-1.99 0-3.07 1.176-3.07 2.736 0 1.584 1.06 2.616 2.69 2.616ZM1096.24 746h42.58V588.175h-42.58V746ZM996.783 610.003c-5.885 0-9.63 2.354-10.165 2.996.214-8.56 13.912-18.404 24.292-22.791l-4.92-9.844c-16.269 7.062-36.92 20.972-36.92 43.977 0 16.157 8.667 27.285 24.075 27.285 15.405 0 24.185-8.988 24.185-21.614 0-12.626-8.46-20.009-20.547-20.009Zm56.067 0c-5.88 0-9.63 2.354-10.16 2.996.21-8.56 13.91-18.404 24.29-22.791l-4.93-9.844c-16.26 7.062-36.91 20.972-36.91 43.977 0 16.157 8.67 27.285 24.07 27.285 15.41 0 24.19-8.988 24.19-21.614 0-12.626-8.46-20.009-20.55-20.009Z" fill="#1A73E8"/></svg>