<svg xmlns="http://www.w3.org/2000/svg" width="1920" height="1080" fill="none"><path fill="#3C4043" d="M339.313 383.92c-.427 0-1.28-.213-2.56-.64-4.694-1.493-8-4.48-9.92-8.96-1.92-4.267-2.88-9.6-2.88-16 0-7.467 1.066-15.787 3.2-24.96 2.133-9.173 4.8-18.453 8-27.84s6.506-18.133 9.92-26.24c3.413-8.107 6.4-14.827 8.96-20.16 7.253-15.36 14.506-29.76 21.76-43.2 7.466-13.653 14.186-25.493 20.16-35.52 6.186-10.027 11.093-17.28 14.72-21.76a332.893 332.893 0 0 0-21.76-3.2c-7.467-.853-15.36-1.28-23.68-1.28-16.427 0-31.894 2.24-46.4 6.72-14.294 4.267-26.347 10.133-36.16 17.6-6.187 4.693-10.667 9.173-13.44 13.44-2.774 4.267-4.16 8.107-4.16 11.52 0 4.48 2.026 7.893 6.08 10.24 4.053 2.347 9.386 3.52 16 3.52 14.506 0 28.053-2.027 40.64-6.08 12.586-4.267 24.746-10.027 36.48-17.28 1.066-.64 1.813-.747 2.24-.32.64.427.32 1.173-.96 2.24-7.467 5.547-16.64 10.88-27.52 16-10.88 5.12-22.4 9.173-34.56 12.16-12.16 2.987-24.107 4.053-35.84 3.2-5.12-.427-10.24-2.24-15.36-5.44-4.907-3.413-7.254-7.787-7.04-13.12.426-9.173 3.626-17.067 9.6-23.68 5.973-6.827 13.76-12.587 23.36-17.28 9.6-4.693 20.16-8.427 31.68-11.2 11.733-2.773 23.466-4.693 35.2-5.76 11.946-1.28 22.933-1.92 32.96-1.92 7.253 0 14.186.213 20.8.64a266.2 266.2 0 0 1 19.2 1.92c2.986-2.133 5.973-3.627 8.96-4.48 3.2-1.067 6.08-1.6 8.64-1.6 2.56 0 4.693.533 6.4 1.6 1.706 1.067 2.56 2.453 2.56 4.16 0 1.067-.534 2.667-1.6 4.8 11.946 2.56 22.4 5.12 31.36 7.68 8.96 2.347 18.666 4.48 29.12 6.4 3.413.64 8.32 1.493 14.72 2.56 6.4.853 12.053 1.28 16.96 1.28 6.4 0 9.6-1.173 9.6-3.52 0-2.56-1.174-5.227-3.52-8-2.347-2.773-5.12-5.12-8.32-7.04s-6.187-2.88-8.96-2.88c-.854 0-1.174-.107-.96-.32.213-.427.746-.64 1.6-.64 1.92 0 4.693.533 8.32 1.6 3.84.853 6.506 1.493 8 1.92 5.973 1.92 8.96 5.653 8.96 11.2 0 3.2-1.067 5.973-3.2 8.32a64.616 64.616 0 0 1-3.52 4.48c-1.28 1.28-2.667 2.24-4.16 2.88-5.76 2.133-12.694 3.2-20.8 3.2-8.96 0-18.56-1.067-28.8-3.2a330.491 330.491 0 0 1-29.44-7.68c-9.6-3.2-18.134-6.08-25.6-8.64a287.95 287.95 0 0 0-13.12 16c-4.054 5.12-8.854 12.16-14.4 21.12-9.174 14.72-18.454 30.72-27.84 48a486.65 486.65 0 0 0-24.96 53.44c-7.254 18.133-12.374 36.16-15.36 54.08-.427 2.987-.854 5.76-1.28 8.32a88.436 88.436 0 0 0-.32 7.36c0 4.48.64 7.573 1.92 9.28.426.427.64.747.64.96h-.32Zm79.637-40.32c6.827-17.28 13.76-33.707 20.8-49.28 7.253-15.787 14.187-30.507 20.8-44.16a1686.46 1686.46 0 0 1 7.36-15.36 719.413 719.413 0 0 1 11.2-21.44c4.267-7.68 8.32-14.827 12.16-21.44 3.84-6.613 7.04-11.52 9.6-14.72 5.547-7.253 10.56-11.84 15.04-13.76 4.693-1.92 8.64-2.88 11.84-2.88 1.493 0 2.88.107 4.16.32h3.2c-10.667 14.293-20.907 29.653-30.72 46.08-9.813 16.213-18.987 32.427-27.52 48.64-8.32 16.213-15.787 31.573-22.4 46.08 1.92-2.347 4.907-6.08 8.96-11.2 4.267-5.12 9.173-10.773 14.72-16.96a280.93 280.93 0 0 1 17.28-18.24c6.187-5.76 11.947-10.56 17.28-14.4 2.347-1.707 5.44-3.2 9.28-4.48 4.053-1.493 7.893-2.24 11.52-2.24 2.347 0 4.587.427 6.72 1.28 2.133.64 3.84 2.027 5.12 4.16a155.69 155.69 0 0 1-2.88 4.16 101.12 101.12 0 0 1-3.2 4.48c-4.48 6.613-9.387 13.867-14.72 21.76a378.325 378.325 0 0 0-14.72 24c-4.48 8.107-8 16.213-10.56 24.32a74.24 74.24 0 0 0-1.6 5.44c-.427 1.707-.64 3.2-.64 4.48 0 2.987 1.173 4.48 3.52 4.48 4.053 0 8.427-1.6 13.12-4.8 4.693-3.2 9.173-6.827 13.44-10.88 4.267-4.267 7.573-7.787 9.92-10.56 2.347-2.56 4.373-5.013 6.08-7.36 1.92-2.347 3.84-4.587 5.76-6.72.64-.64 1.173-.96 1.6-.96 1.28 0 1.92.853 1.92 2.56 0 1.28-.427 2.453-1.28 3.52a841.289 841.289 0 0 1-14.08 16.96c-3.2 3.627-7.147 7.68-11.84 12.16a80.266 80.266 0 0 1-15.36 11.52c-5.547 2.987-11.2 4.48-16.96 4.48-4.693 0-7.893-1.067-9.6-3.2-1.707-2.133-2.56-4.907-2.56-8.32 0-3.84 1.067-9.493 3.2-16.96 2.347-7.68 6.827-17.493 13.44-29.44 6.613-12.16 16.427-26.88 29.44-44.16-1.28 0-4.053 1.707-8.32 5.12-4.267 3.2-9.067 7.147-14.4 11.84-5.12 4.48-9.813 8.747-14.08 12.8-4.267 4.053-7.04 6.933-8.32 8.64-14.08 15.36-26.88 32-38.4 49.92l-1.92 5.44c-1.28 3.413-3.2 5.653-5.76 6.72-2.347.853-4.907 1.28-7.68 1.28-2.987 0-5.973.427-8.96 1.28Zm149.703 3.2c-8.107 0-14.507-2.347-19.2-7.04-4.48-4.693-6.72-11.307-6.72-19.84 0-5.76 1.173-12.693 3.52-20.8 5.333-17.28 13.76-33.92 25.28-49.92 5.76-8.107 11.84-15.147 18.24-21.12 6.186-6.187 12.48-11.093 18.88-14.72 6.613-3.627 12.8-5.44 18.56-5.44 6.186 0 11.2 1.707 15.04 5.12 3.84 3.2 5.76 7.36 5.76 12.48 0 4.907-2.24 10.24-6.72 16-8.96 11.307-18.667 20.053-29.12 26.24-10.24 6.187-22.187 10.773-35.84 13.76h-1.28c-3.627 7.04-6.827 14.08-9.6 21.12-2.56 7.04-4.374 13.653-5.44 19.84l-.64 3.2v2.88c0 7.893 3.52 11.84 10.56 11.84 2.346 0 5.333-.533 8.96-1.6 3.413-1.067 7.146-2.667 11.2-4.8 4.266-2.347 8.32-4.8 12.16-7.36 3.84-2.56 6.613-4.587 8.32-6.08a196.336 196.336 0 0 0 6.72-6.4l7.68-7.68a1903.6 1903.6 0 0 0 6.08-6.72 156.56 156.56 0 0 0 5.44-7.04c.64-.64 1.173-.96 1.6-.96 1.28 0 1.92.96 1.92 2.88 0 1.067-.427 2.027-1.28 2.88l-11.52 14.08a346.119 346.119 0 0 1-11.84 13.12c-5.12 5.333-11.734 10.347-19.84 15.04-7.894 4.693-16.854 7.04-26.88 7.04Zm8-68.48c5.973-1.92 12.8-5.333 20.48-10.24 7.893-4.907 15.466-10.667 22.72-17.28 7.466-6.827 13.333-13.76 17.6-20.8 1.493-2.773 2.24-5.12 2.24-7.04 0-2.773-1.387-4.16-4.16-4.16-2.347 0-5.12.96-8.32 2.88-5.974 2.987-12.054 7.573-18.24 13.76-6.187 6.187-12.054 13.013-17.6 20.48-5.547 7.467-10.454 14.933-14.72 22.4ZM696.876 666c-8.667 0-16.667-3.167-24-9.5-4.333-3.667-7.5-8.667-9.5-15-1.667-6-2.5-12.667-2.5-20 0-10.667 1.333-22.167 4-34.5 3-12 6.333-23.667 10-35 3.667-11 6.667-20.167 9-27.5 4.333-14 9.5-29.167 15.5-45.5 6.333-16.333 13.167-34 20.5-53a1092.09 1092.09 0 0 0-30-2.5c-9.333-1-18.833-1.833-28.5-2.5-17.667 25-36.667 48.333-57 70-20.333 21.333-42.833 39.833-67.5 55.5-24.333 16-51 28.333-80 37-28.667 9-59.833 13.5-93.5 13.5-23 0-43.5-3.667-61.5-11-17.667-7.333-31.834-16.833-42.5-28.5-13-14.667-19.5-30.167-19.5-46.5 0-12.333 3.666-24.167 11-35.5 4.666-7.667 10.5-14.333 17.5-20 7-6 14.833-11.333 23.5-16 23.333-12.333 49.333-21.5 78-27.5s58.5-10 89.5-12c8.667-.667 17.333-1 26-1h26.5c22.667 0 45 .667 67 2 22 1 43.167 2.5 63.5 4.5 20.333-26.667 39-53.5 56-80.5 17.333-27.333 33.167-53.167 47.5-77.5l38.5-73.5c1-2 1.833-3 2.5-3s1 .667 1 2c.333 1 .333 2 0 3-17 39-35 78.5-54 118.5-19 39.667-40.333 77.667-64 114l54.5 5.5c5-13 10.5-28 16.5-45a864.833 864.833 0 0 0 17.5-52c5.667-18 10.167-35 13.5-51 3.333-16.333 4.667-30.5 4-42.5l8-6c3-2.333 5.833-3.5 8.5-3.5 8 0 13.333 4.333 16 13 3 8.333 4.5 17.167 4.5 26.5 0 8-1.5 17.833-4.5 29.5-3 11.333-6.833 23.333-11.5 36a448.442 448.442 0 0 1-14.5 37c-5.667 13-11.5 25.5-17.5 37.5-5.667 12-9.5 20.167-11.5 24.5a295.771 295.771 0 0 1 29 5.5c10 2.333 18.333 5.833 25 10.5 6.667 4.667 10 11.167 10 19.5 0 2.667-.5 5.833-1.5 9.5-1 3.333-2.167 5-3.5 5-.667 0-1-.833-1-2.5s.167-3 .5-4c.333-1.333.167-3-.5-5-3.333-4.333-9.167-8.167-17.5-11.5s-17-6-26-8-16.333-3.167-22-3.5c-1.667 3.667-4.333 9.833-8 18.5a3426.596 3426.596 0 0 0-12.5 30c-4.667 11-9.5 22.333-14.5 34-4.667 11.667-8.833 22.5-12.5 32.5-3.667 9.667-6.333 17.5-8 23.5-1 4.333-2.667 10.5-5 18.5s-4.5 16.167-6.5 24.5c-2 8.667-3 16.333-3 23 0 8.333 2.167 13 6.5 14 7 1.333 13.833-.5 20.5-5.5 7-5 14-11 21-18s14.167-13 21.5-18c1-.667 1.667-.833 2-.5.667.333.167 1.167-1.5 2.5-1.333 1-3.333 3.667-6 8a568.214 568.214 0 0 0-8 14.5l-6 12c-3.333 6.333-7.667 11-13 14-5 3.333-10.333 5-16 5Zm-333.5-82c26.667 0 52.167-4.333 76.5-13 24.667-8.667 48.167-20.5 70.5-35.5s43.5-32.333 63.5-52c20.333-20 39.5-41.167 57.5-63.5-22-1-43.333-1.5-64-1.5-50.333 0-97.834 3.5-142.5 10.5-44.667 6.667-85.834 17.833-123.5 33.5-17.667 7-30.334 14.833-38 23.5-7.334 8.667-11 17.333-11 26 0 10.667 3.666 20.5 11 29.5 7.666 8.667 17.333 16.167 29 22.5 11.666 6.333 23.833 11.167 36.5 14.5 12.666 3.667 24.166 5.5 34.5 5.5Zm551.265-30.5c-6.666 0-11.5-2.167-14.5-6.5s-4.5-10.167-4.5-17.5c0-8.667 1.667-19 5-31 3.667-12.333 8-24.833 13-37.5-4.666 7.333-10.166 15.333-16.5 24-6.333 8.667-13 17-20 25-7 7.667-14 14-21 19-6.666 4.667-12.833 7-18.5 7-9.333 0-15.833-3.167-19.5-9.5-3.333-6.333-5-13.667-5-22 0-5.333.334-10.5 1-15.5 1-5.333 2.167-10 3.5-14 6.334-17.333 14.167-35.333 23.5-54a547.717 547.717 0 0 1 32-54c11.667-17.333 23.334-32.333 35-45 8-8 14-12 18-12 2 0 3 1.167 3 3.5s-1.166 5.667-3.5 10c-2 4.333-5.333 9.333-10 15-3.666 4.333-8.666 12.333-15 24-6.333 11.333-13.166 24.333-20.5 39a1275.611 1275.611 0 0 0-21 43c-6.333 14.333-11.666 26.833-16 37.5-2.666 6.333-4.666 12-6 17-1 5-1.5 9.167-1.5 12.5 0 8 2.667 12 8 12 7 0 16-6.5 27-19.5 2.667-3.333 6.5-8.333 11.5-15s10.334-14 16-22c6-8.333 11.667-16.333 17-24l13-19.5 11.5-21c1.667-3.667 5-6.5 10-8.5 5.334-2 10.167-3 14.5-3 3 0 4.5 1.5 4.5 4.5 0 3.667-.833 7.5-2.5 11.5-1.333 3.667-3.333 7.667-6 12-4.666 8-9.5 17.5-14.5 28.5-4.666 11-8.833 21.667-12.5 32-3.333 10-5.5 18.167-6.5 24.5-1.333 5.667-2 11.333-2 17 0 2.333.334 4.833 1 7.5.334 4.333 2 6.5 5 6.5 1.334 0 3-.5 5-1.5 7.334-3.667 14.667-8.833 22-15.5 7.334-7 14.334-14.333 21-22 3.334-3.667 6.5-7.167 9.5-10.5s5.834-6.833 8.5-10.5c1-1 1.834-1.5 2.5-1.5 1.999 0 2.999 1.333 2.999 4 0 2-.67 3.667-2 5L978.141 509c-7.333 8.333-15 16.5-23 24.5-14.333 13.333-27.833 20-40.5 20Zm96.339 0c-7.33 0-13.499-2.167-18.499-6.5-5-4.333-7.5-11.667-7.5-22 0-2.667.167-5.333.5-8 .334-2.667.834-5.5 1.5-8.5 3.667-16.667 9.834-35 18.499-55 9-20 18.33-38.667 28-56-3.33.333-6.33 1-9 2s-5.33 1.5-8 1.5c-1.33 0-3.67-.333-7-1-3.33-1-5-2.667-5-5 0-2.667 3-4.333 9-5 6-.667 11.83-1 17.5-1h7c4.67-7.667 9-14.667 13-21 4-6.667 7.67-12.333 11-17 7.67-11 15.17-18.667 22.5-23 7.33-4.333 13.83-6.833 19.5-7.5 5.67-1 9.67-1.5 12-1.5-10 11.333-19.17 23-27.5 35-8 11.667-15.83 24-23.5 37 8 .333 15.67.333 23 0 7.33-.667 12.67-2.167 16-4.5 1.67-1.333 3.17-2 4.5-2 2 0 2.5 1.833 1.5 5.5-.67 3.333-2.5 6.833-5.5 10.5-2.67 3.333-6.17 5.167-10.5 5.5-4.33.333-9.33-.5-15-2.5s-11.5-3.667-17.5-5c-6 10.667-11.83 21.833-17.5 33.5a4575.383 4575.383 0 0 0-18 37.5c-5.33 11.667-9.17 21.667-11.5 30-2.33 8.333-3.5 15.333-3.5 21 0 6 1.17 10.333 3.5 13 2.67 2.667 5.83 4 9.5 4 4 0 8.67-1.333 14-4 7.33-3.667 14.67-9 22-16s14.33-14.167 21-21.5c3.33-3.667 6.5-7.167 9.5-10.5s5.83-6.833 8.5-10.5c1-1 1.83-1.5 2.5-1.5 2 0 3 1.333 3 4 0 2-.67 3.667-2 5-7 8.667-14.33 17.5-22 26.5-9 10.333-19 20.333-30 30-11 9.667-24.17 14.5-39.5 14.5Zm177.54 0c-11.33 0-17-7-17-21 0-6.667 1.17-14.333 3.5-23 2.33-9 5.5-18.667 9.5-29-7 11-14.83 22-23.5 33-8.33 11-17 20.167-26 27.5-8.67 7-17.17 10.5-25.5 10.5-9.33 0-15.67-3-19-9-3-6.333-4.5-13.167-4.5-20.5 0-6.333.67-12.333 2-18 1.33-6 2.67-10.333 4-13 5-12.667 11.17-26.667 18.5-42 7.67-15.333 14.5-28.667 20.5-40 3.33-5.667 8.67-10.5 16-14.5 7.67-4 13.83-6 18.5-6 5 0 7.5 1.667 7.5 5 0 2.667-1.67 6.667-5 12-3 4.333-7.17 11.167-12.5 20.5-5.33 9-11.17 19.167-17.5 30.5a3442.5 3442.5 0 0 0-17.5 33.5c-7.33 14-11 26.167-11 36.5 0 8.333 2.5 12.5 7.5 12.5 2.67 0 6.17-1.5 10.5-4.5s9.5-7.833 15.5-14.5c2.67-2.667 6.67-8 12-16 5.67-8 12-17 19-27 7-10.333 13.83-20.333 20.5-30 6.67-10 12.17-18.167 16.5-24.5 8-15.333 16.5-25.667 25.5-31 9-5.333 19.67-8 32-8-3.33 1.667-7.33 6-12 13s-9.5 14.167-14.5 21.5c-3.33 5-7 11.5-11 19.5s-8 16.5-12 25.5c-4 8.667-7.5 16.833-10.5 24.5-2.67 7.667-4.5 13.667-5.5 18-1.67 7.333-2.5 13.167-2.5 17.5 0 8 2 12 6 12 1.33 0 3-.5 5-1.5 7.33-3.667 14.67-9 22-16s14.33-14.167 21-21.5c3.33-3.667 6.5-7.167 9.5-10.5s5.83-6.833 8.5-10.5c1-1 1.83-1.5 2.5-1.5 2 0 3 1.333 3 4 0 2-.67 3.667-2 5-7 8.667-14.33 17.5-22 26.5-7.33 8.333-15 16.5-23 24.5-6.67 6.333-14 11.333-22 15-8 3.333-14.83 5-20.5 5Zm48.34 1.5c14.33-26.667 26.17-52.333 35.5-77 9.67-25 20.67-50.167 33-75.5 3.67-6.667 8.33-11.167 14-13.5 5.67-2.667 11.17-4 16.5-4 4.33 0 8.17.5 11.5 1.5-1 2.333-3.67 7-8 14-4 6.667-8.33 14.333-13 23-3.33 6-8.33 15.333-15 28-6.67 12.333-12.83 25.167-18.5 38.5 3-4.333 7.5-10.333 13.5-18 6.33-8 13.33-16.5 21-25.5 8-9 16.17-17.5 24.5-25.5 8.33-8 16.5-14.5 24.5-19.5 8-5.333 15.17-8 21.5-8 6.67 0 11.17 1.833 13.5 5.5 2.67 3.333 4 7.333 4 12 0 6-2.33 12.833-7 20.5-4.33 7.333-8.83 15.667-13.5 25-2.67 5-6 11-10 18-3.67 6.667-7.33 13.333-11 20-3.33 6.333-6 11.667-8 16 3.33-6.333 8.33-14.333 15-24 6.67-10 14.33-20.167 23-30.5 9-10.667 18.17-20.667 27.5-30 9.33-9.667 18.33-17.333 27-23 9-6 16.83-9 23.5-9 6.67 0 11.17 1.667 13.5 5 2.67 3.333 4 7.333 4 12 0 6.333-2.17 13.833-6.5 22.5-4 8.667-9.17 17.5-15.5 26.5-6 9-12 17.667-18 26-5.67 8.333-10.17 15.667-13.5 22-4.67 9.333-7 16.5-7 21.5 0 5.333 2.17 8 6.5 8 3.67 0 7.67-1.333 12-4 7.67-3.667 15.17-8.833 22.5-15.5 7.33-7 14.17-14.333 20.5-22 3.33-4 6.83-8 10.5-12 4-4.333 6.67-7.333 8-9 .67-1 1.5-1.5 2.5-1.5 2 0 3 1.333 3 4 0 1.667-.83 3.333-2.5 5-3.33 4.333-6.83 8.833-10.5 13.5-3.67 4.333-7.5 8.667-11.5 13-3.33 4.333-7 8.667-11 13-3.67 4-7.67 7.833-12 11.5-14.33 13.333-27.67 20-40 20-7 0-12-2-15-6-3-4.333-4.5-9.667-4.5-16 0-8.667 2.17-18.667 6.5-30 4.67-11.667 10.17-22.667 16.5-33 .67-1 2.83-4.167 6.5-9.5s7.67-11.5 12-18.5 8.17-13.667 11.5-20 5-10.833 5-13.5c0-2.333-1.5-3-4.5-2-2.67 1-7.33 4.333-14 10-8 7-17 15.833-27 26.5s-20.17 22.5-30.5 35.5c-10 12.667-19 26.167-27 40.5-1.67 3.333-4 6.667-7 10s-7 5-12 5h-1.5c-2 0-4.33-.667-7-2-2.33-1.333-3.5-4.333-3.5-9 0-8.333 2.67-18.167 8-29.5 5.33-11.333 11.5-22.833 18.5-34.5 7-12 13-22.833 18-32.5 1.67-3.667 3-7 4-10 1.33-3 2-5.333 2-7 0-2.667-1.5-3.5-4.5-2.5-2.67.667-7.33 3.833-14 9.5-8 6.667-17.17 15.5-27.5 26.5-10 11-20.17 22.833-30.5 35.5-10.33 12.667-19.83 25.167-28.5 37.5-8.67 12-15.33 22.5-20 31.5-1.33 3-3.17 4.833-5.5 5.5-2 .333-5.33.667-10 1h-8c-2 .333-4.17 1.167-6.5 2.5Zm271.12-2c-5 0-8.67-1.333-11-4-2.34-3-3.5-6.5-3.5-10.5s.66-7.5 2-10.5c9.66-22.667 17.66-41.5 24-56.5 6.33-15 11.83-27.833 16.5-38.5 5-10.667 9.83-20.833 14.5-30.5 3.66-6.667 8.33-11.167 14-13.5 5.66-2.667 11.16-4 16.5-4 4.33 0 8.16.5 11.5 1.5-1 2.333-3.67 7-8 14-4 6.667-8.34 14.333-13 23-3.34 6-8.34 15.333-15 28-6.67 12.333-12.84 25.167-18.5 38.5 3-3.667 7.83-9.5 14.5-17.5 6.66-8.333 14.33-17.333 23-27 9-10 18.16-19.5 27.5-28.5 9.66-9.333 18.66-17 27-23 3.66-2.667 8.5-5 14.5-7 6.33-2.333 12.33-3.5 18-3.5 3.66 0 7.16.667 10.5 2 3.33 1 6 3.167 8 6.5-1.34 2-2.84 4.167-4.5 6.5-1.34 2-3 4.333-5 7-10.67 15.333-22.34 32.667-35 52-12.34 19.333-21.67 38.5-28 57.5-.67 3-1.34 5.833-2 8.5-.67 2.667-1 5-1 7 0 4.667 1.83 7 5.5 7 6.33 0 13.16-2.5 20.5-7.5 7.33-5 14.33-10.667 21-17 6.66-6.667 11.83-12.167 15.5-16.5 3.66-4 6.83-7.833 9.5-11.5 3-3.667 6-7.167 9-10.5 1-1 1.83-1.5 2.5-1.5 2 0 3 1.333 3 4 0 2-.67 3.833-2 5.5a462.121 462.121 0 0 0-11 13.5c-3.67 4.333-7.34 8.667-11 13-5 5.667-11.17 12-18.5 19-7.34 7-15.34 13-24 18-8.67 4.667-17.5 7-26.5 7-7.34 0-12.5-1.833-15.5-5.5-2.67-3.667-4-8.333-4-14 0-6.333 1.83-15.333 5.5-27 3.66-12 10.66-27.333 21-46 10.33-18.667 25.5-41 45.5-67-2 0-6.34 2.667-13 8-6.67 5-14 11.167-22 18.5-8 7-15.34 13.667-22 20-6.67 6.333-11 10.833-13 13.5-17 18.667-32.5 37.667-46.5 57-5.34 7.667-9.84 15.167-13.5 22.5-3.34 7.333-6.17 13.833-8.5 19.5-1.34.333-3 .5-5 .5Zm-707.921 49.5c-3.666 0-6.666-1.167-9-3.5-2.333-2.667-3.5-5.667-3.5-9 0-5 1.667-9.167 5-12.5 3.667-3.667 7.667-5.5 12-5.5 4.334 0 7.667 1.5 10 4.5 2.667 2.667 3.667 6.167 3 10.5-1 4.333-3.166 8-6.5 11-3 3-6.666 4.5-11 4.5Zm-68.5 197.5c-7.333 0-13.666-2.333-19-7-5.333-5-8-13.333-8-25 0-5 .5-10.5 1.5-16.5 3-15.667 7.834-30.667 14.5-45 7-14.333 13.667-26.667 20-37 6.667-10.667 11-17.667 13-21 1.667-3.333 6-6.5 13-9.5 7-3.333 12.834-5 17.5-5 4 0 6 1.333 6 4 0 2.333-.833 4.5-2.5 6.5-5 8-10.833 17.167-17.5 27.5-6.333 10-12.5 20.667-18.5 32-6 11.333-11 22.5-15 33.5s-6 21.167-6 30.5c0 5 .834 9 2.5 12 2 3 5.5 4.5 10.5 4.5 5.334 0 11.5-2.5 18.5-7.5a197.75 197.75 0 0 0 20-17.5c6.667-6.667 11.5-11.833 14.5-15.5 3.334-3.667 6.5-7.167 9.5-10.5a88.113 88.113 0 0 0 9-10.5c1-1 1.834-1.5 2.5-1.5 2 0 3 1.5 3 4.5 0 1.667-.666 3.167-2 4.5a480.862 480.862 0 0 0-11 13.5 401.412 401.412 0 0 1-11.5 13c-5.333 6.333-11.333 12.833-18 19.5-6.666 6.667-13.833 12.333-21.5 17-7.666 4.333-16 6.5-25 6.5Zm-3.937 148c-10.333 0-17.833-2.833-22.5-8.5-5-5.667-7.5-12.167-7.5-19.5 0-9.667 3.333-19.167 10-28.5 6.667-9 14.833-17.5 24.5-25.5 9.333-8 17.833-14.667 25.5-20 13-9.333 26.667-17.833 41-25.5 14.667-7.333 30-14.5 46-21.5 6.667-15 12.833-31.167 18.5-48.5s10.333-34 14-50c4-16 6.5-29.5 7.5-40.5-12.333 12-26.167 26.5-41.5 43.5-15 16.667-30.667 34.667-47 54-2 2.333-3.5 3.5-4.5 3.5s-1.5-.833-1.5-2.5c0-4 2-8.5 6-13.5l36-43c11.667-13.667 24.667-27.667 39-42l7-7c2-2 3.833-4 5.5-6 1-5.667 2.5-11.667 4.5-18s4.833-11.667 8.5-16c4-4.333 9.167-6.5 15.5-6.5 6.667 0 11.167 1.833 13.5 5.5s3 7.333 2 11c-2.667 1-7.5 4.5-14.5 10.5-6.667 5.667-13 11.5-19 17.5.333 2.333.5 5 .5 8v9.5c0 8.333-.333 17.667-1 28-.333 10.333-1.333 21.833-3 34.5-1.667 11.333-3.333 21-5 29-1.333 7.667-3.833 15.833-7.5 24.5 8.667-5.667 17.5-12.167 26.5-19.5 9.333-7.333 16.833-14.333 22.5-21 3.333-3.667 6.5-7.167 9.5-10.5s5.833-6.833 8.5-10.5c1-1 1.833-1.5 2.5-1.5 2 0 3 1.5 3 4.5 0 1.667-.667 3.167-2 4.5l-22 26.5c-7 8-15.333 15.667-25 23s-19.833 13.667-30.5 19c-8 17-17.167 34.5-27.5 52.5-10.333 18.333-22 36-35 53-9.333 11.333-21.333 21.333-36 30-15 9-30 13.5-45 13.5Zm-.5-11.5c7 0 14.833-2.667 23.5-8s17.167-12.167 25.5-20.5c8-8.333 15-16.833 21-25.5l21-32a235.57 235.57 0 0 0 12-19.5 575.184 575.184 0 0 0 10.5-20c-15.667 7.333-32.667 16.167-51 26.5-18.333 10.667-34.667 22.833-49 36.5-3 3-6.833 7-11.5 12s-8.833 10.333-12.5 16c-3.667 6-5.5 12-5.5 18 0 6.667 1.5 11 4.5 13 3 2.333 6.833 3.5 11.5 3.5Zm167.871-57c-12.333.667-22.167-1.667-29.5-7-7.333-5-11-11.167-11-18.5 0-4.667 1.833-9.667 5.5-15 3.333-5 8.667-9.667 16-14 14-8.333 29.833-14.333 47.5-18s35.5-8.167 53.5-13.5l9.5-20c3.667-8.667 7.5-20 11.5-34 4.337-14 7.997-28.167 10.997-42.5 3.34-14.667 5.34-27 6-37a1113.82 1113.82 0 0 0-27.497 28.5c-8.667 9.333-18 19.667-28 31-9.667 11-20.667 23.667-33 38-2 2.333-3.5 3.5-4.5 3.5s-1.5-.833-1.5-2.5c0-4 2-8.5 6-13.5l36-43c11.667-13.667 24.667-27.667 38.997-42l12.5-13c1-5.667 2.5-11.667 4.5-18s4.84-11.667 8.5-16c4-4.333 9.17-6.5 15.5-6.5 6.67 0 11.17 1.833 13.5 5.5 2.34 3.667 3 7.333 2 11-2.66 1-7.33 4.5-14 10.5a1060.858 1060.858 0 0 0-19.5 17c.34 3 .5 6.333.5 10v11c0 8-.33 17-1 27-.33 9.667-1.33 20.5-3 32.5-1.33 8.667-3 17.167-5 25.5-1.66 8-3.66 15.833-6 23.5a217.262 217.262 0 0 0 24-14.5c7.67-5.667 15.34-12.5 23-20.5 2.67-3 5.34-6 8-9 2.67-3 5.34-6.167 8-9.5.67-.667 1.34-1 2-1 1 0 1.84.833 2.5 2.5 1 1.667 1 3.167 0 4.5-3 4.333-6.33 8.5-10 12.5-3.33 4-6.83 7.833-10.5 11.5-7 7-14.83 13.5-23.5 19.5-8.66 5.667-17.83 11-27.5 16-9.664 24.667-23.497 44.833-41.497 60.5-18 16-41.167 25-69.5 27Zm-11-11.5c3.667 0 7.667-.5 12-1.5 11.667-2.667 23.833-8.667 36.5-18 12.667-9 25-23.167 37-42.5a269.877 269.877 0 0 1-22 6c-7 2-14.333 3.833-22 5.5-14.667 3.667-28.833 9.333-42.5 17-11 6.333-16.5 13.5-16.5 21.5s5.833 12 17.5 12Zm280.367-66.5c-11.33 0-17-7-17-21 0-6.667 1.17-14.333 3.5-23 2.34-9 5.5-18.667 9.5-29-7 11-14.83 22-23.5 33-8.33 11-17 20.167-26 27.5-8.66 7-17.16 10.5-25.5 10.5-9.33 0-15.66-3-19-9-3-6.333-4.5-13.167-4.5-20.5 0-6.333.67-12.333 2-18 1.34-6 2.67-10.333 4-13 5-12.667 11.17-26.667 18.5-42 7.67-15.333 14.5-28.667 20.5-40 3.34-5.667 8.67-10.5 16-14.5 7.67-4 13.84-6 18.5-6 5 0 7.5 1.667 7.5 5 0 2.667-1.66 6.667-5 12-3 4.333-7.16 11.167-12.5 20.5-5.33 9-11.16 19.167-17.5 30.5a3442.5 3442.5 0 0 0-17.5 33.5c-7.33 14-11 26.167-11 36.5 0 8.333 2.5 12.5 7.5 12.5 2.67 0 6.17-1.5 10.5-4.5 4.34-3 9.5-7.833 15.5-14.5 2.67-2.667 6.67-8 12-16 5.67-8 12-17 19-27 7-10.333 13.84-20.333 20.5-30 6.67-10 12.17-18.167 16.5-24.5 8-15.333 16.5-25.667 25.5-31 9-5.333 19.67-8 32-8-3.33 1.667-7.33 6-12 13-4.66 7-9.5 14.167-14.5 21.5-3.33 5-7 11.5-11 19.5s-8 16.5-12 25.5c-4 8.667-7.5 16.833-10.5 24.5-2.66 7.667-4.5 13.667-5.5 18-1.66 7.333-2.5 13.167-2.5 17.5 0 8 2 12 6 12 1.34 0 3-.5 5-1.5 7.34-3.667 14.67-9 22-16 7.34-7 14.34-14.167 21-21.5 3.34-3.667 6.5-7.167 9.5-10.5s5.84-6.833 8.5-10.5c1-1 1.84-1.5 2.5-1.5 2 0 3 1.333 3 4 0 2-.66 3.667-2 5-7 8.667-14.33 17.5-22 26.5-7.33 8.333-15 16.5-23 24.5-6.66 6.333-14 11.333-22 15-8 3.333-14.83 5-20.5 5ZM1265.7 872c-13 0-23-5.333-30-16-7-10.333-10.5-25.167-10.5-44.5 0-3.333.17-6.667.5-10 0-3.333.17-6.833.5-10.5 2-16.333 7-34.167 15-53.5 8.34-19.333 21-40 38-62 11.34-14.667 23.67-25.667 37-33 13.34-7.333 26.17-11 38.5-11 8.67 0 16.34 1.667 23 5 8 4.333 12 12.167 12 23.5 0 8.333-3 17.667-9 28-6 10-16.16 19.667-30.5 29-19 12-34.83 20-47.5 24-12.66 4-22.83 6.167-30.5 6.5-2.33 3.667-4.83 9.5-7.5 17.5-2.66 7.667-5 15.833-7 24.5-2 8.333-3.33 15.833-4 22.5 0 1.333-.16 2.667-.5 4v5c0 10 1.67 18.5 5 25.5 3.67 7.333 10 11 19 11 8 0 17-3 27-9 10-5.667 19.84-12.667 29.5-21 10-8 18.67-15.833 26-23.5 7.67-7.333 13-12.833 16-16.5l37-43 20-23c1-1 1.84-1.5 2.5-1.5 2 0 3 1.333 3 4 0 1-.83 2.667-2.5 5-3.33 4.667-7.16 9.5-11.5 14.5-4 5-7.83 9.667-11.5 14-4.66 5.333-10.5 12.167-17.5 20.5-6.66 8.333-13.83 17-21.5 26-7.33 9-14.5 17-21.5 24-12.33 12-25.83 22.333-40.5 31-14.66 8.667-30 13-46 13Zm11-132.5c4.67-.333 10.5-2.167 17.5-5.5s14.17-7.333 21.5-12c7.67-5 14.84-9.833 21.5-14.5 6.67-4.667 12-8.667 16-12 7.67-6 13.34-12.667 17-20 3.67-7.333 5.5-13.667 5.5-19 0-3.667-1-6.833-3-9.5-1.66-2.667-4.33-4-8-4-7 0-14.66 3.5-23 10.5-8 6.667-16.16 15.333-24.5 26-8 10.333-15.66 21-23 32-7 10.667-12.83 20-17.5 28Z"/></svg>