<svg xmlns="http://www.w3.org/2000/svg" width="1920" height="1080" fill="none"><path fill="#FF6D7F" d="M466.5 490c-9 0-21.5-2-37.5-6-10-2.667-19.833-5.333-29.5-8-9.333-2.333-17.833-3.833-25.5-4.5-7 3-17.333 5.5-31 7.5-13.333 2-26.833 3-40.5 3-14.333 0-27.167-1.5-38.5-4.5-11-2.667-16.5-7.5-16.5-14.5 0-3 1.5-5.667 4.5-8 2.667-2.667 8.833-4 18.5-4 17.667 0 34.167 1.333 49.5 4 15.667 2.333 31.833 4.333 48.5 6 9.667-9 19.833-21.333 30.5-37 11-16 21.667-33 32-51 10.667-18 19.833-34.667 27.5-50 13-24.333 28-50.5 45-78.5s38.5-56.667 64.5-86a1050.887 1050.887 0 0 0-56.5-9.5c-18.667-2.667-37.833-4-57.5-4-13.667 0-27.833 1-42.5 3-8 1-17.333 2.833-28 5.5-10.333 2.333-21 5.333-32 9s-21 7.667-30 12c-14 6.667-26.667 15.333-38 26-11 10.667-16.5 22.5-16.5 35.5 0 8.667 4 16 12 22s21 9 39 9c18.667 0 37.167-4 55.5-12 18.667-8 36.5-17.833 53.5-29.5 17-12 32.167-23.667 45.5-35 2.333-1.333 4.167-2 5.5-2 .667 0 1 .333 1 1 0 1-1.5 3.5-4.5 7.5-8.333 10-18.833 20-31.5 30-12.667 9.667-26.667 18.667-42 27-15 8-30.667 14.5-47 19.5-16.333 4.667-32.5 7-48.5 7-21.333 0-36.833-4.667-46.5-14-9.667-9.667-14.5-20.833-14.5-33.5 0-15.667 4.667-29.333 14-41 9.333-12 21.333-22 36-30 14.667-8 30.333-14.333 47-19 16.667-5 32.333-8.333 47-10 7-.667 14-1.167 21-1.5 7.333-.667 14.5-1 21.5-1 23.667 0 47.333 1.833 71 5.5s47.833 8.167 72.5 13.5c2-3.333 4.667-7.167 8-11.5a68.324 68.324 0 0 1 12.5-11.5c5-3.333 10.333-5 16-5 6.667 0 10 2.5 10 7.5 0 3-1.167 4.5-3.5 4.5-1.333 0-2.667-.667-4-2-5.333-.667-10.5 1.667-15.5 7-5 5-9.167 9.667-12.5 14 8 2.333 19.167 4.5 33.5 6.5 14.333 1.667 27.833 2.5 40.5 2.5 13.667 0 26.667-2 39-6 12.333-4 20.167-10.667 23.5-20 2.333-6.667 4.5-10 6.5-10 1.333 0 2 2.5 2 7.5 0 9.333-4.833 18.333-14.5 27-9.333 8.667-21.667 13.5-37 14.5l-10 1h-9c-11 0-20.667-.667-29-2-8.333-1.667-16.5-3.5-24.5-5.5-8-2.333-17.167-4.333-27.5-6-7.667 11-15.667 24-24 39s-16.833 30.833-25.5 47.5c-8.333 16.667-16.667 33-25 49-8 15.667-15.833 29.833-23.5 42.5-14.333 24.667-29.167 47.667-44.5 69-15 21.333-33.167 39.667-54.5 55 8 1.333 16.667 2.333 26 3 9.333 1 19 1.5 29 1.5 14.667 0 29-1.5 43-4.5 14.333-3.333 26.667-9.5 37-18.5 8.333-7 16.167-14.333 23.5-22 7.333-7.667 13.333-14 18-19 1-1 2-1.5 3-1.5 1.333 0 2.333.667 3 2 1 1.333.667 3-1 5-2.667 4-7.333 9.667-14 17-6.333 7-13.333 14.167-21 21.5-9 9.333-16.667 17-23 23-6 6-11.833 10.5-17.5 13.5-5.667 3.333-12.833 5-21.5 5Zm167.859 42c-9.666 0-16.333-2.667-20-8-3.666-5-5.5-12.333-5.5-22 0-10.667 2.834-22.833 8.5-36.5 5.667-13.333 12.334-26.5 20-39.5 7.667-13.333 14.667-25 21-35 1.334-2 3.667-5.667 7-11 3.334-5.667 7.167-11.833 11.5-18.5 4.334-7 8.334-13.667 12-20 3.667-6.333 6.334-11.333 8-15 4.667-9.333 7-16.167 7-20.5 0-2.667-1-4-3-4-5 0-15.333 6.833-31 20.5-6 5.667-13.666 13.167-23 22.5-9 9-18.333 19.167-28 30.5a551.665 551.665 0 0 0-27.5 35c-8.333 12-15 23.5-20 34.5-2 4.333-4.333 7.5-7 9.5-2.333 1.667-4.666 2.5-7 2.5-5.666 0-8.5-3.167-8.5-9.5 0-2.333.5-4.667 1.5-7 3.667-9.333 8.5-21.5 14.5-36.5a6276.106 6276.106 0 0 1 20.5-49c7.334-17.333 14.5-34 21.5-50 7.334-16 13.5-29.5 18.5-40.5-7 2-13.333 3.667-19 5-5.666 1.333-10.666 2-15 2-2.666 0-4.5-.167-5.5-.5-3.666-1-5.5-2-5.5-3s2.167-1.667 6.5-2c5 0 11.167-.833 18.5-2.5 7.334-2 15.334-4.5 24-7.5 2.667-5.667 5.5-11.833 8.5-18.5l10.5-21c15-30.333 33.5-59.833 55.5-88.5a242.995 242.995 0 0 1 36-38c13-11 26.834-19.833 41.5-26.5 14.667-7 30.167-10.5 46.5-10.5 8.667 0 15.5 2.833 20.5 8.5 5 5.333 7.5 13 7.5 23 0 9-3 18.833-9 29.5-6 10.333-14.166 20.833-24.5 31.5-10 10.667-21.833 21.167-35.5 31.5a341.768 341.768 0 0 1-21 15.5c-7 4.667-14.166 9.333-21.5 14-30.333 19-59.833 34.5-88.5 46.5a1633.052 1633.052 0 0 0-32.5 69c-10.333 23-19.666 45-28 66 2.334-3.333 6.5-8.5 12.5-15.5s12.667-14.5 20-22.5c7.334-8 14-15 20-21 7-6.667 14.667-13.333 23-20 8.334-6.667 16.667-12.167 25-16.5 8.334-4.667 15.5-7 21.5-7 6.667 0 11.334 1.333 14 4 3 2.667 4.5 6.333 4.5 11 0 7-2.333 15.167-7 24.5-4.333 9.333-8.833 18-13.5 26-2.333 4.333-6.5 11-12.5 20s-12.166 18.333-18.5 28c-6 9.667-10.833 17.5-14.5 23.5-4.666 7.333-9.833 15.833-15.5 25.5-5.666 9.333-10.666 18.167-15 26.5-4 8.333-6.333 14.833-7 19.5-.333 2-.666 3.667-1 5v5c0 8 3 12 9 12 3 0 6-.667 9-2 3.667-1 8.5-4.167 14.5-9.5 6-5 12.334-11 19-18 6.667-6.667 13-13.333 19-20 6-6.333 10.5-11.333 13.5-15l37-43a81.938 81.938 0 0 0 5-5.5c2-2 3.834-4 5.5-6 1.667-2 3.167-4 4.5-6a82.48 82.48 0 0 1 5-5.5c1-1 2-1.5 3-1.5 2 0 3 1.167 3 3.5 0 1.333-.833 3.167-2.5 5.5a390.367 390.367 0 0 1-12 14.5c-4 5-7.833 9.667-11.5 14-2.666 3.333-6.833 8.5-12.5 15.5-5.333 7-11.166 14.5-17.5 22.5a1994.417 1994.417 0 0 1-18 21.5c-6.666 7.333-14.166 15-22.5 23-8.333 8-16.666 14.667-25 20-8.333 5.333-15.833 8-22.5 8Zm27.5-290c13-6 26.5-13 40.5-21 28.334-16 54.5-33.5 78.5-52.5a722.29 722.29 0 0 0 16.5-14c5.334-5 10.167-10 14.5-15 9.334-10 16.5-19.667 21.5-29 5-9.667 7.5-19 7.5-28 0-3-.666-6-2-9-1.333-3-5.333-4.5-12-4.5-10.333 0-20.833 2.833-31.5 8.5-10.666 5.333-21.166 12.333-31.5 21-10 8.667-19.333 18-28 28-8.666 10-16.166 19.333-22.5 28-8 11-16.5 24-25.5 39-8.666 15-17.333 31.167-26 48.5Zm140.243 229.5c-12.334 0-22.167-3.5-29.5-10.5-7.334-7.333-11-17.5-11-30.5 0-10 1.833-20.5 5.5-31.5 4-11 7.833-19.667 11.5-26 7.666-14 16.833-26.833 27.5-38.5 11-11.667 22.166-21 33.5-28 11.666-7.333 22.333-11 32-11 9 0 16.666 2.5 23 7.5 6.666 5 10 11.667 10 20 0 3.333-.834 7.167-2.5 11.5-1.667 4.333-4.334 8.833-8 13.5-13.334 17-28.167 30.333-44.5 40-16 9.333-34.334 16.333-55 21a187.385 187.385 0 0 0-3.5 13c-1 4-1.834 7.833-2.5 11.5a8838.3 8838.3 0 0 0-1 5v4.5c0 6.667 1.5 11.5 4.5 14.5 3.333 2.667 7.333 4 12 4 7.333 0 15.166-1.833 23.5-5.5 8.333-4 16.166-8.5 23.5-13.5 7.333-5 12.833-9 16.5-12a306.082 306.082 0 0 0 10.5-10l12-12c3.333-3.667 6.5-7.167 9.5-10.5 3-3.667 5.833-7.333 8.5-11 1-1 1.833-1.5 2.5-1.5 2 0 3 1.5 3 4.5 0 1.667-.667 3.167-2 4.5l-18 22c-6 7-12.167 13.833-18.5 20.5-7.334 7.667-17.5 15.333-30.5 23-12.667 7.667-26.834 11.5-42.5 11.5Zm-4.5-69c8.666-3.667 18.666-9 30-16 11.666-7 22.833-15.333 33.5-25 11-10 20-20.667 27-32 2.333-3.667 3.5-7 3.5-10 0-4.667-2.667-7-8-7-3.667 0-8.167 1.333-13.5 4-16.667 9-31 21.167-43 36.5-12 15.333-21.834 31.833-29.5 49.5ZM258 748.5c-7.667-1.667-12.833-4.833-15.5-9.5-2.333-5-3.5-10.333-3.5-16 0-7.333 2.333-14.833 7-22.5 4.667-8 8.833-14 12.5-18-7.333-.333-13-2.5-17-6.5-4-4.333-6-8-6-11 0-2.333 1-3.5 3-3.5 1.667 0 3.167.5 4.5 1.5 6.667 3 14.833 4.5 24.5 4.5 4-6 10.5-14.833 19.5-26.5 9.333-12 20-25.333 32-40 12.333-15 25.167-30 38.5-45 13.667-15 27-28.833 40-41.5 13.333-13 25.5-23.333 36.5-31 11.333-8 20.5-12 27.5-12 6.667 0 12.5 2 17.5 6 5.333 4 9.5 8 12.5 12l5 6c-6.333 9-13.5 22.333-21.5 40-8 17.333-15.667 36.667-23 58-7 21.333-13 42.167-18 62.5 5 0 9.5 2.167 13.5 6.5 4.333 4.333 6.5 8.833 6.5 13.5l-7.5-3.5c-5-2.333-10.333-3.167-16-2.5-1 3.667-2.333 9.333-4 17a898.36 898.36 0 0 0-4 24c-1.333 8.333-2 16-2 23v6.5l1 5c-7.333 1.667-12.667-1.167-16-8.5-3-7.333-4.5-16.167-4.5-26.5 0-15 2.167-28.667 6.5-41-32.333 1.333-58.167 4-77.5 8-19 4-32.333 7.5-40 10.5-6.667 9.333-13 19.833-19 31.5-6 11.333-10.333 21-13 29Zm46-82.5c11-2 23.5-3.833 37.5-5.5 14.333-2 27.833-3.667 40.5-5 12.667-1.333 22.5-1.833 29.5-1.5 1.333-4.667 3.667-12.667 7-24 3.333-11.667 7.5-25.167 12.5-40.5 5.333-15.333 11.667-31.5 19-48.5s15.667-33.333 25-49c-1-1.667-2.667-2.5-5-2.5-5 0-12 3.5-21 10.5-8.667 6.667-18.667 15.5-30 26.5-11 11-22.5 23.167-34.5 36.5a1807.666 1807.666 0 0 0-34 40c-10.667 13.333-20.167 25.5-28.5 36.5-8 11-14 19.833-18 26.5Zm333.598 79.5c-7 0-12-2.167-15-6.5-2.667-4.667-4-10.667-4-18 0-8.667 1.666-19 5-31 3.333-12 7.5-24.333 12.5-37-4.667 7.333-10.167 15.333-16.5 24-6.334 8.667-13 17-20 25-6.667 7.667-13.5 14-20.5 19-6.667 4.667-13 7-19 7-8.667 0-15-3-19-9-4-6.333-6-14.333-6-24 0-10 1.666-21 5-33 3.666-12.333 8.666-24.5 15-36.5 2-3.667 5.166-9.333 9.5-17 4.666-8 9.833-16.5 15.5-25.5a5213.56 5213.56 0 0 1 16.5-27c5.666-9 10.333-16.667 14-23 3.666-6.333 5.833-10.167 6.5-11.5 2-4 3-7.333 3-10 0-6-2.667-9-8-9-4 0-8.167 2.167-12.5 6.5-6.334 6-14.5 15.667-24.5 29-9.667 13.333-20.834 30.333-33.5 51-3 4.333-7.5 11.167-13.5 20.5s-12.834 19.667-20.5 31c-7.667 11.333-15.5 22.5-23.5 33.5-8 10.667-15.667 19.833-23 27.5-2.334 2.667-4.167 4-5.5 4-1.667 0-1.667-2.167 0-6.5 1.333-4.667 3.166-8.167 5.5-10.5 9.333-10.333 18.166-21.667 26.5-34 8.666-12.333 17-24.667 25-37 4.333-6.667 9.333-14.5 15-23.5l17-27c5.666-9.333 10.666-17.167 15-23.5 11.666-17.333 21.666-30.333 30-39 8.333-8.667 18.666-13 31-13 7.666 0 13.333 2.5 17 7.5 4 5 6 11.167 6 18.5 0 4.333-.667 9-2 14-1.334 4.667-3.5 9.333-6.5 14-5.334 8-11.667 17.833-19 29.5-7 11.667-15.334 26-25 43-3.334 6-7.5 14.167-12.5 24.5a284.758 284.758 0 0 0-13 31.5c-3.667 10.333-5.5 19.167-5.5 26.5 0 9 3.333 13.5 10 13.5 6 0 13.666-6 23-18 2.666-3.333 6.5-8.333 11.5-15l16.5-22c6-8.333 11.666-16.333 17-24l13-19.5 11-21c2-3.667 4.833-6.667 8.5-9 3.666-2.667 7.666-4 12-4 5 0 7.5 2.833 7.5 8.5 0 3-.667 6.333-2 10-1.334 3.667-3 7.333-5 11-4.667 8-9.5 17.5-14.5 28.5-4.667 11-8.834 21.667-12.5 32-3.334 10-5.5 18.167-6.5 24.5-.667 3.333-1.167 6.5-1.5 9.5a64.31 64.31 0 0 0-.5 8c0 9.333 1.833 14 5.5 14 .666 0 1.333-.167 2-.5 1-.667 2-1.167 3-1.5 7.333-3.667 14.666-8.833 22-15.5a327.39 327.39 0 0 0 21-22l10-10.5a61.131 61.131 0 0 0 4.5-5c1.333-2 2.666-3.833 4-5.5 1-1 1.833-1.5 2.5-1.5 2 0 3 1.333 3 4 0 2-.667 3.667-2 5a480.862 480.862 0 0 1-11 13.5 402.618 402.618 0 0 1-11.5 13c-3.334 4.333-7 8.667-11 13-3.667 4-7.667 7.833-12 11.5-14.334 13.333-27.667 20-40 20Zm80.234 86.5c-6.333 0-11.833-2.667-16.5-8s-7-13.667-7-25c0-6.333.667-12.833 2-19.5.667-3.333 2-9.833 4-19.5s4.333-19.5 7-29.5c3-12.667 7.167-26.833 12.5-42.5 5.333-15.667 11.833-32.333 19.5-50 5.667-14 11.5-27.167 17.5-39.5 6-12.333 12-24.333 18-36h-69c-3.667 0-5.5-.833-5.5-2.5 0-3.667 3.667-5.5 11-5.5h68c8.333-15 17-29.167 26-42.5 9-13.333 19-25.833 30-37.5 5.667-6.667 10.833-11.333 15.5-14 5-2.667 10-4.5 15-5.5 5.333-1.333 11.167-2.667 17.5-4-15.333 18.667-28.833 36.333-40.5 53a717.5 717.5 0 0 0-32 50.5h74c4 0 6 1 6 3 0 1-1 2.167-3 3.5-1.667 1-4.333 1.5-8 1.5h-73.5c-8 14-15.667 28.833-23 44.5-7.333 15.333-15.167 32.167-23.5 50.5-7 15.333-13.333 31.833-19 49.5-5.667 17.333-10.167 33.167-13.5 47.5-3 14.667-4.5 25.333-4.5 32 0 15.333 4.167 23 12.5 23 4 0 9-2 15-6 13-8 24.667-16.333 35-25a443.919 443.919 0 0 0 29.5-26c5-5 10.833-11.167 17.5-18.5 7-7.333 14-14.833 21-22.5s13.167-14.5 18.5-20.5l8.5-9.5c1-1 1.833-1.5 2.5-1.5 2 0 3 1.333 3 4 0 1.667-.667 3.333-2 5a26.297 26.297 0 0 1-2.5 4c-1 1-2 2.167-3 3.5a37.586 37.586 0 0 0-3.5 4c-1 1-2 2.167-3 3.5-14.333 17.667-30.167 35.5-47.5 53.5s-35.167 34.5-53.5 49.5a310.456 310.456 0 0 1-24 17c-8.333 5.333-18 8-29 8Zm261.41-86.5c-11.333 0-17-7-17-21 0-6.667 1.167-14.333 3.5-23 2.334-9 5.5-18.667 9.5-29-7 11-14.833 22-23.5 33-8.333 11-17 20.167-26 27.5-8.666 7-17.166 10.5-25.5 10.5-9.333 0-15.666-3-19-9-3-6.333-4.5-13.167-4.5-20.5 0-6.333.667-12.333 2-18 1.334-6 2.667-10.333 4-13 5-12.667 11.167-26.667 18.5-42 7.667-15.333 14.5-28.667 20.5-40 3.334-5.667 8.667-10.5 16-14.5 7.667-4 13.834-6 18.5-6 5 0 7.5 1.667 7.5 5 0 2.667-1.666 6.667-5 12-3 4.333-7.166 11.167-12.5 20.5-5.333 9-11.166 19.167-17.5 30.5-6 11.333-11.833 22.5-17.5 33.5-7.333 14-11 26.167-11 36.5 0 8.333 2.5 12.5 7.5 12.5 2.667 0 6.167-1.5 10.5-4.5 4.334-3 9.5-7.833 15.5-14.5 2.667-2.667 6.667-8 12-16 5.667-8 12-17 19-27 7-10.333 13.834-20.333 20.5-30 6.667-10 12.167-18.167 16.498-24.5 8-15.333 16.5-25.667 25.5-31 9-5.333 19.67-8 32-8-3.33 1.667-7.33 6-12 13-4.66 7-9.5 14.167-14.5 21.5-3.33 5-7 11.5-11 19.5s-8 16.5-12 25.5c-4 8.667-7.5 16.833-10.498 24.5-2.666 7.667-4.5 13.667-5.5 18-1.666 7.333-2.5 13.167-2.5 17.5 0 8 2 12 6 12 1.334 0 2.998-.5 4.998-1.5 7.34-3.667 14.67-9 22-16 7.34-7 14.34-14.167 21-21.5 3.34-3.667 6.5-7.167 9.5-10.5s5.84-6.833 8.5-10.5c1-1 1.84-1.5 2.5-1.5 2 0 3 1.333 3 4 0 2-.66 3.667-2 5-7 8.667-14.33 17.5-22 26.5-7.33 8.333-15 16.5-23 24.5-6.66 6.333-14 11.333-21.998 15-8 3.333-14.833 5-20.5 5ZM1199.58 832c-7 0-12.83-3.333-17.5-10-4.33-6.333-6.5-14-6.5-23 0-2.333.17-4.667.5-7a51.445 51.445 0 0 0 1.5-7c1.67-6.667 4.17-14.833 7.5-24.5 3.67-9.333 7.84-19.333 12.5-30 4.67-10.667 9.5-20.833 14.5-30.5 5-9.667 9.67-18 14-25 1.67-2.667 4.67-7.5 9-14.5 4.34-7 8.84-14.5 13.5-22.5 4.67-8 8.5-14.833 11.5-20.5 3.67-6.667 6.5-12.5 8.5-17.5 2.34-5.333 3.5-9.167 3.5-11.5 0-5-5.33-3.167-16 5.5-8.66 7.667-19 18.167-31 31.5-11.66 13.333-23.33 27.5-35 42.5-11.33 14.667-21.33 28.5-30 41.5-1.66 3-4.16 6-7.5 9-3 3-7.16 4.5-12.5 4.5-2 0-4.33-.5-7-1.5-2.66-1.333-4-4.5-4-9.5 0-7.667 2.34-16.5 7-26.5 5-10.333 10.84-21.167 17.5-32.5 6.67-11.333 12.67-22.667 18-34 2.67-5.667 4.67-10.333 6-14 1.34-3.667 2-6.5 2-8.5 0-2.333-.83-3.5-2.5-3.5-3.33 0-10.33 4.5-21 13.5-20.66 17.667-38.83 37-54.5 58-15.33 20.667-27.66 40.167-37 58.5-3 5-7 7.5-12 7.5-2.66 0-5-1.167-7-3.5-1.66-2.333-2.16-5.667-1.5-10 7-13.333 12.5-24.833 16.5-34.5 4-9.667 7.5-18.833 10.5-27.5 3-8.667 6.34-17.667 10-27 3.67-9.667 8.67-20.833 15-33.5 2.67-5.333 7.5-10.167 14.5-14.5 7.34-4.333 13.5-6.5 18.5-6.5s7.5 1.833 7.5 5.5c0 3.333-1.5 7.167-4.5 11.5-6.66 11-14.5 24.833-23.5 41.5-8.66 16.667-17 33.333-25 50 6-9 12.84-19.167 20.5-30.5 8-11.667 16.34-22.667 25-33 8.34-10 17.5-19.167 27.5-27.5 10.34-8.667 20.34-13 30-13 9.34 0 15.67 2.333 19 7 3.34 4.333 5 9.667 5 16 0 8.333-2.66 16.167-8 23.5-2.66 4-5.33 8.167-8 12.5-2.66 4-5.33 8.167-8 12.5-2.33 3.667-6 9.333-11 17-4.66 7.667-9.16 15-13.5 22-4.33 6.667-7 11.167-8 13.5-.66 1.667-.66 2.667 0 3 .67.333 1.67-.5 3-2.5 1.67-2.667 3.67-5.667 6-9 2.34-3.667 5-7.667 8-12 6-8.667 12.84-18 20.5-28 7.67-10 15.67-20 24-30 6.67-8 14.17-16 22.5-24 8.67-8.333 17-15.167 25-20.5s14.84-7.5 20.5-6.5c5.67 1 9.5 3 11.5 6s3 6.667 3 11-2 10.833-6 19.5-9.33 18.833-16 30.5l-11 20c-4.66 9-9.83 19.167-15.5 30.5-5.33 11-10.83 22.5-16.5 34.5-6 12.333-11.5 24.333-16.5 36-5 11.333-9.16 21.833-12.5 31.5-3.33 10-5.33 18.167-6 24.5v1.5c0 2.333 1.34 3.667 4 4h.5c2.67 0 6.17-1.333 10.5-4 3.67-2 9.34-6.833 17-14.5 7.67-7.667 16-16.333 25-26 9.34-9.667 17.84-18.833 25.5-27.5 8-8.333 13.67-14.5 17-18.5l23.5-27.5c3.34-3.667 6-6.833 8-9.5 2.34-2.667 4.17-4.667 5.5-6l20-23c1-1 1.84-1.5 2.5-1.5 2 0 3 1.333 3 4 0 1.667-.66 3.333-2 5-3.66 4.667-7.66 9.5-12 14.5-4 5-7.83 9.667-11.5 14-.33.333-3.16 3.667-8.5 10-5 6.333-11.33 14.167-19 23.5a1622.771 1622.771 0 0 1-22.5 28c-7.66 9.667-14.33 18-20 25-5.66 7-9 11.167-10 12.5-6.66 7.667-14.83 14.833-24.5 21.5-9.33 6.667-19.5 10-30.5 10Zm247.73-87.5c-5.67 0-9.67-2.167-12-6.5s-3.5-9.5-3.5-15.5c0-10.667 2.83-22.833 8.5-36.5 6-13.667 12.83-27.667 20.5-42 7.67-14.333 14.33-27.833 20-40.5 6-13 9-24 9-33 0-4.333-.83-7.833-2.5-10.5-1.33-2.667-3.5-4-6.5-4-4 0-8.83 2.167-14.5 6.5-6.33 4.333-13.5 11.5-21.5 21.5l-9 11.5-9.5 11.5c-9.33 12.333-19 25.333-29 39-10 13.333-19 25.833-27 37.5-7.67 11.333-13.33 20.5-17 27.5-3 5.333-6.5 8-10.5 8-2.33 0-4.5-1.167-6.5-3.5s-3-5.333-3-9c0-2.333.5-5 1.5-8 11.67-22.333 22.67-46.167 33-71.5 10.67-25.333 21.17-48.333 31.5-69 3-5.667 8-10.5 15-14.5 7-4.333 13.17-6.5 18.5-6.5 5 0 7.5 1.833 7.5 5.5 0 2-1.5 5.833-4.5 11.5-3.67 5.667-8.17 13-13.5 22s-10.83 18.5-16.5 28.5-11 19.5-16 28.5c-4.67 9-8.17 16.333-10.5 22 3.67-5 8.83-12.5 15.5-22.5s15.5-21.667 26.5-35l16-19c11-12.667 20.83-21.333 29.5-26 9-4.667 17.33-7 25-7 6 0 11.17 1.5 15.5 4.5s6.5 8.167 6.5 15.5c0 8.667-1.83 17.333-5.5 26-3.67 8.333-6.67 15-9 20-2.33 5.333-5.67 12.667-10 22s-8.67 19.333-13 30c-4.33 10.667-8 20.667-11 30-3 9.333-4.5 16.5-4.5 21.5 0 4.333 1.33 6.5 4 6.5 3.33 0 7.67-1.667 13-5a187.991 187.991 0 0 0 16.5-12c5.67-4.333 10-7.833 13-10.5a380.92 380.92 0 0 0 16.5-16.5c5.33-5.667 10.83-11.833 16.5-18.5 1.67-2 3-3 4-3s1.5 1 1.5 3c0 2.333-1 5.5-3 9.5-2 3.333-5.33 7.833-10 13.5a296.52 296.52 0 0 1-13.5 15.5c-7 7.667-14.83 15-23.5 22-8.33 7-17.67 13.333-28 19-2.67 1.333-5.17 2.5-7.5 3.5-2 .667-3.67 1.167-5 1.5-1.33.333-2.67.5-4 .5-1.33.333-2.67.5-4 .5Zm-1105.81 82c-3.667 0-6.667-1.167-9-3.5-2.333-2.667-3.5-5.667-3.5-9 0-5 1.667-9.167 5-12.5 3.667-3.667 7.667-5.5 12-5.5s7.667 1.5 10 4.5c2.667 2.667 3.667 6.167 3 10.5-1 4.333-3.167 8-6.5 11-3 3-6.667 4.5-11 4.5ZM273 1024c-7.333 0-13.667-2.33-19-7-5.333-5-8-13.33-8-25 0-5 .5-10.5 1.5-16.5 3-15.667 7.833-30.667 14.5-45 7-14.333 13.667-26.667 20-37 6.667-10.667 11-17.667 13-21 1.667-3.333 6-6.5 13-9.5 7-3.333 12.833-5 17.5-5 4 0 6 1.333 6 4 0 2.333-.833 4.5-2.5 6.5-5 8-10.833 17.167-17.5 27.5-6.333 10-12.5 20.667-18.5 32-6 11.333-11 22.5-15 33.5s-6 21.167-6 30.5c0 5 .833 9 2.5 12 2 3 5.5 4.5 10.5 4.5 5.333 0 11.5-2.5 18.5-7.5a197.75 197.75 0 0 0 20-17.5c6.667-6.667 11.5-11.833 14.5-15.5 3.333-3.667 6.5-7.167 9.5-10.5a88.298 88.298 0 0 0 9-10.5c1-1 1.833-1.5 2.5-1.5 2 0 3 1.5 3 4.5 0 1.667-.667 3.167-2 4.5a479.096 479.096 0 0 0-11 13.5 402.618 402.618 0 0 1-11.5 13c-5.333 6.333-11.333 12.833-18 19.5-6.667 6.67-13.833 12.33-21.5 17-7.667 4.33-16 6.5-25 6.5Zm129.063 7c-13.334 0-25.5-3.33-36.5-10s-19.834-16.67-26.5-30c0-.333-.167-.667-.5-1v-1c0-2 .833-3.5 2.5-4.5 1.666-1.333 2.833-.833 3.5 1.5 4.666 9.333 11.333 16.83 20 22.5 8.666 5.33 19 8 31 8 5.666 0 10.5-1.83 14.5-5.5 4.333-3.67 6.5-8.33 6.5-14 0-7.667-2.5-14.667-7.5-21-4.667-6.667-10.167-13-16.5-19-6-6.333-11.5-12.667-16.5-19-4.667-6.667-7-13.833-7-21.5 0-14 4.333-25.833 13-35.5 9-9.667 19.833-17 32.5-22 13-5 25.5-7.5 37.5-7.5 10 0 17.5 3.333 22.5 10 5.333 6.333 8 13.667 8 22s-2.5 15.833-7.5 22.5c-5.334 6.667-10 11.5-14 14.5-3.667 3-6.5 4.5-8.5 4.5-2.334 0-3.5-1.5-3.5-4.5 0-1 .166-2.333.5-4 .333-1.667 1-3.333 2-5 .666-2 1.833-5.167 3.5-9.5a160.55 160.55 0 0 0 4.5-13.5c1.333-4.667 1.833-8.5 1.5-11.5-3-2.333-6.5-3.5-10.5-3.5-6.667 0-14.5 2.333-23.5 7-9 4.333-16.834 10-23.501 17-6.666 6.667-9.999 13.5-9.999 20.5 0 7.333 2.166 14.667 6.499 22 4.667 7.333 10.167 14.333 16.501 21a832.608 832.608 0 0 1 17.5 18c6.333 6.667 9.5 14 9.5 22s-3.5 15-10.5 21-17.334 9-31 9Zm130.359 4.5c-12.667 0-26-5.17-40-15.5-6-4.33-11.167-10.33-15.5-18-2.333-4-3.5-8.333-3.5-13 0-5.333 1.833-8 5.5-8 1.667 0 3.667 1.5 6 4.5 2.667 2.667 5 6.167 7 10.5 3 6.67 6.167 12.5 9.5 17.5 3.333 4.67 8.667 7 16 7 6.667 0 12.167-3.83 16.5-11.5s7.667-17.5 10-29.5c2.667-12 4.5-24.667 5.5-38 1.333-13.333 2.167-25.5 2.5-36.5.333-11.333.667-20 1-26-15.667 19-30.5 37-44.5 54a4958.192 4958.192 0 0 1-39 47c-1.333 1.667-2.5 2.5-3.5 2.5s-1.5-1-1.5-3c0-3.667.833-6.667 2.5-9 6.667-8 14-16.833 22-26.5l24-30c8.333-10 15.667-18.833 22-26.5 6.667-8 11.5-14 14.5-18 0-10 2.333-17.833 7-23.5 4.667-6 10.333-10.333 17-13s13-4 19-4c5.667 0 9.833.667 12.5 2 2.333 1 3.5 2.167 3.5 3.5 0 1-1.667 2-5 3-8 2-13.667 6.333-17 13-3.333 6.333-5.5 14.167-6.5 23.5-.667 9-1 18.667-1 29 0 15.333-.667 31.5-2 48.5s-3.5 31.333-6.5 43c-.667 2.333-1.667 4.833-3 7.5-1 2.67-2 5.33-3 8a410.206 410.206 0 0 0 27.5-21.5c9-8 16-14.667 21-20 3.667-3.667 6.833-7.167 9.5-10.5l9-11c.667-1 1.5-1.5 2.5-1.5 2 0 3 1.333 3 4 0 1.667-.833 3.333-2.5 5-7 8.333-14.167 17.167-21.5 26.5-7 9.333-14.833 17.5-23.5 24.5-3.667 3-8.333 6.83-14 11.5s-11.333 8.5-17 11.5c-9.333 4.67-18 7-26 7Zm257.031-10c-7 0-12-2.17-15-6.5-2.667-4.67-4-10.67-4-18 0-8.667 1.667-19 5-31s7.5-24.333 12.5-37c-4.667 7.333-10.167 15.333-16.5 24s-13 17-20 25c-6.667 7.667-13.5 14-20.5 19-6.667 4.67-13 7-19 7-8.667 0-15-3-19-9-4-6.333-6-14.333-6-24 0-10 1.667-21 5-33 3.667-12.333 8.667-24.5 15-36.5 2-3.667 5.167-9.333 9.5-17 4.667-8 9.833-16.5 15.5-25.5a5356.392 5356.392 0 0 1 16.5-27c5.667-9 10.333-16.667 14-23 3.667-6.333 5.833-10.167 6.5-11.5 2-4 3-7.333 3-10 0-6-2.667-9-8-9-4 0-8.167 2.167-12.5 6.5-6.333 6-14.5 15.667-24.5 29-9.667 13.333-20.833 30.333-33.5 51-3 4.333-7.5 11.167-13.5 20.5s-12.833 19.667-20.5 31c-7.667 11.333-15.5 22.5-23.5 33.5-8 10.667-15.667 19.833-23 27.5-2.333 2.667-4.167 4-5.5 4-1.667 0-1.667-2.167 0-6.5 1.333-4.667 3.167-8.167 5.5-10.5 9.333-10.333 18.167-21.667 26.5-34 8.667-12.333 17-24.667 25-37 4.333-6.667 9.333-14.5 15-23.5l17-27c5.667-9.333 10.667-17.167 15-23.5 11.667-17.333 21.667-30.333 30-39 8.333-8.667 18.667-13 31-13 7.667 0 13.333 2.5 17 7.5 4 5 6 11.167 6 18.5 0 4.333-.667 9-2 14-1.333 4.667-3.5 9.333-6.5 14-5.333 8-11.667 17.833-19 29.5-7 11.667-15.333 26-25 43-3.333 6-7.5 14.167-12.5 24.5a284.952 284.952 0 0 0-13 31.5c-3.667 10.333-5.5 19.167-5.5 26.5 0 9 3.333 13.5 10 13.5 6 0 13.667-6 23-18 2.667-3.333 6.5-8.333 11.5-15l16.5-22c6-8.333 11.667-16.333 17-24l13-19.5 11-21c2-3.667 4.833-6.667 8.5-9 3.667-2.667 7.667-4 12-4 5 0 7.5 2.833 7.5 8.5 0 3-.667 6.333-2 10s-3 7.333-5 11c-4.667 8-9.5 17.5-14.5 28.5-4.667 11-8.833 21.667-12.5 32-3.333 10-5.5 18.167-6.5 24.5-.667 3.333-1.167 6.5-1.5 9.5a64.502 64.502 0 0 0-.5 8c0 9.33 1.833 14 5.5 14 .667 0 1.333-.17 2-.5 1-.67 2-1.17 3-1.5 7.333-3.67 14.667-8.833 22-15.5a327.39 327.39 0 0 0 21-22l10-10.5a60.765 60.765 0 0 0 4.5-5 78.68 78.68 0 0 1 4-5.5c1-1 1.833-1.5 2.5-1.5 2 0 3 1.333 3 4 0 2-.667 3.667-2 5a479.096 479.096 0 0 1-11 13.5 402.618 402.618 0 0 1-11.5 13c-3.333 4.333-7 8.667-11 13-3.667 4-7.667 7.83-12 11.5-14.333 13.33-27.667 20-40 20Zm113.235 6c-12.334 0-22.167-3.5-29.5-10.5-7.334-7.33-11-17.5-11-30.5 0-10 1.833-20.5 5.5-31.5 4-11 7.833-19.667 11.5-26 7.666-14 16.833-26.833 27.5-38.5 11-11.667 22.166-21 33.5-28 11.666-7.333 22.333-11 32-11 9 0 16.666 2.5 23 7.5 6.662 5 10.002 11.667 10.002 20 0 3.333-.84 7.167-2.5 11.5-1.67 4.333-4.336 8.833-8.002 13.5-13.334 17-28.167 30.333-44.5 40-16 9.333-34.334 16.333-55 21a187.385 187.385 0 0 0-3.5 13c-1 4-1.834 7.833-2.5 11.5a8838.3 8838.3 0 0 0-1 5v4.5c0 6.67 1.5 11.5 4.5 14.5 3.333 2.67 7.333 4 12 4 7.333 0 15.166-1.83 23.5-5.5 8.333-4 16.166-8.5 23.5-13.5 7.333-5 12.833-9 16.5-12a306.082 306.082 0 0 0 10.5-10l12-12c3.333-3.667 6.5-7.167 9.502-10.5 3-3.667 5.83-7.333 8.5-11 1-1 1.83-1.5 2.5-1.5 2 0 3 1.5 3 4.5 0 1.667-.67 3.167-2 4.5-6 7.333-12 14.667-18.002 22-6 7-12.167 13.833-18.5 20.5-7.334 7.67-17.5 15.33-30.5 23-12.667 7.67-26.834 11.5-42.5 11.5Zm-4.5-69c8.666-3.667 18.666-9 30-16 11.666-7 22.833-15.333 33.5-25 11-10 20-20.667 27-32 2.333-3.667 3.5-7 3.5-10 0-4.667-2.667-7-8-7-3.667 0-8.167 1.333-13.5 4-16.667 9-31 21.167-43 36.5-12 15.333-21.834 31.833-29.5 49.5Z"/></svg>