<svg width="1920" height="1080" fill="none" xmlns="http://www.w3.org/2000/svg"><g clip-path="url(#a)"><path fill="#D2E3FC" d="M50 695h1820v10H50zM50 424h1820v10H50zM50 222h1820v10H50zM50 250h1820v10H50zM50 908h1820v10H50z"/><path d="M847.606 926.588c-61.372 0-119.767-6.641-175.185-19.923-55.418-13.282-107.401-30.228-155.949-50.838-48.09-20.152-92.516-40.762-133.278-61.83-40.304-21.068-76.715-40.533-109.233-58.395-32.06-17.862-60.227-30.686-84.501-38.472-19.694-6.412-38.243-15.572-55.647-27.48-16.946-12.366-31.831-27.251-44.655-44.655-12.824-17.862-22.9-38.243-30.228-61.143-6.87-22.9-10.305-48.319-10.305-76.257 0-31.144 5.038-60.914 15.114-89.31 10.076-28.854 24.96-54.502 44.655-76.944 19.694-22.442 44.197-40.304 73.509-53.586 29.312-13.282 62.975-19.923 100.989-19.923 30.228 0 59.082 5.496 86.562 16.488 27.48 10.534 51.754 25.877 72.822 46.029 21.068 19.694 37.785 43.51 50.151 71.448 12.366 27.48 18.549 58.166 18.549 92.058 0 34.808-6.183 67.555-18.549 98.241-11.908 30.686-29.999 57.479-54.273 80.379-24.274 22.9-54.731 40.075-91.371 51.525-3.664 1.374-5.496 3.435-5.496 6.183 0 1.832 1.145 4.122 3.435 6.87s4.809 4.58 7.557 5.496c31.602 11.45 63.662 24.732 96.18 39.846a3332.544 3332.544 0 0 0 100.302 45.342 2124.181 2124.181 0 0 0 105.798 42.594c35.724 13.282 71.906 24.045 108.546 32.289 37.098 8.244 74.425 12.366 111.981 12.366 32.976 0 62.059-2.061 87.249-6.183 25.648-4.122 48.545-10.534 68.695-19.236 20.61-8.244 39.16-19.007 55.65-32.289 16.49-13.282 32.29-29.083 47.4-47.403 5.04-5.954 10.31-8.702 15.81-8.244 5.95.916 10.76 3.435 14.42 7.557 4.12 4.58 6.41 9.618 6.87 15.114.92 5.496-1.37 10.076-6.87 13.74-27.94 20.152-57.25 38.472-87.93 54.96-30.23 16.488-63.89 29.541-100.992 39.159-37.098 9.618-79.692 14.427-127.782 14.427Zm-560.592-240.45c52.67 0 92.058-16.259 118.164-48.777 26.564-32.518 39.846-75.799 39.846-129.843 0-42.594-6.412-81.295-19.236-116.103-12.824-34.808-32.06-62.517-57.708-83.127-25.648-21.068-57.708-31.602-96.18-31.602-51.754 0-90.913 16.03-117.477 48.09-26.564 32.06-39.846 74.883-39.846 128.469 0 42.594 6.412 81.524 19.236 116.79 12.824 35.266 32.06 63.433 57.708 84.501 25.648 21.068 57.479 31.602 95.493 31.602Zm499.239 30.915c-3.206 0-4.809-1.832-4.809-5.496 0-4.58.458-11.221 1.374-19.923 1.374-9.16 2.061-16.717 2.061-22.671v-4.122c-17.862 17.404-35.953 29.999-54.273 37.785-17.862 7.328-37.556 10.992-59.082 10.992-14.656 0-27.938-3.206-39.846-9.618-11.908-5.954-21.297-14.885-28.167-26.793-6.87-12.366-10.305-27.48-10.305-45.342V492.404c0-10.076-2.29-18.091-6.87-24.045-4.58-5.954-12.137-10.992-22.671-15.114-2.29-.916-4.351-2.061-6.183-3.435-1.832-1.374-2.748-3.893-2.748-7.557 0-4.122.916-6.87 2.748-8.244 2.29-1.374 4.809-2.29 7.557-2.748 15.572-.916 27.48-2.061 35.724-3.435 8.702-1.832 19.465-4.351 32.289-7.557 1.374-.458 2.29-.687 2.748-.687h2.748c5.038 0 7.328 3.206 6.87 9.618a5177.937 5177.937 0 0 0-3.435 26.793c-.458 6.87-.687 15.572-.687 26.106v133.965c0 10.992 2.748 21.297 8.244 30.915 5.496 9.16 12.595 16.717 21.297 22.671 9.16 5.954 18.549 8.931 28.167 8.931 11.908 0 22.213-.687 30.915-2.061 9.16-1.374 18.091-5.267 26.793-11.679 5.038-3.664 11.45-9.618 19.236-17.862 7.786-8.244 11.679-19.465 11.679-33.663V487.595c0-9.618-2.977-16.717-8.931-21.297-5.496-5.038-11.908-8.473-19.236-10.305-7.328-1.832-13.282-2.748-17.862-2.748-4.122 0-7.557-.687-10.305-2.061-2.748-1.832-4.122-5.038-4.122-9.618 0-4.122 1.374-6.87 4.122-8.244 3.206-1.374 6.641-2.061 10.305-2.061 14.198-.458 25.877-.916 35.037-1.374 9.618-.916 18.091-2.061 25.419-3.435a623.43 623.43 0 0 0 24.045-6.183c.916-.458 2.061-.687 3.435-.687 1.374-.458 2.519-.687 3.435-.687 5.954 0 8.931 2.519 8.931 7.557 0 .458-.229 1.374-.687 2.748 0 .916-.229 2.061-.687 3.435-.458 1.374-1.145 5.267-2.061 11.679a327.363 327.363 0 0 1-2.061 19.923c-.458 6.87-.687 12.137-.687 15.801v158.697c0 12.366 1.145 21.297 3.435 26.793 2.748 5.038 5.725 7.557 8.931 7.557 3.664 0 8.931-.229 15.801-.687 7.328-.916 12.595-1.374 15.801-1.374 2.29 0 4.58.458 6.87 1.374 2.29.916 3.435 3.435 3.435 7.557 0 3.664-.916 6.183-2.748 7.557-1.832.916-4.122 1.603-6.87 2.061-17.862 2.29-33.205 5.725-46.029 10.305-12.824 4.58-24.274 8.931-34.35 13.053l-6.183 2.061c-2.748 1.374-5.267 2.061-7.557 2.061Zm-17.175-362.049c-8.702 0-16.717-3.435-24.045-10.305-6.87-7.328-10.305-15.343-10.305-24.045 0-8.702 3.435-16.488 10.305-23.358 7.328-7.328 15.343-10.992 24.045-10.992 8.702 0 16.488 3.664 23.358 10.992 7.328 6.87 10.992 14.656 10.992 23.358s-3.664 16.717-10.992 24.045c-6.87 6.87-14.656 10.305-23.358 10.305Zm-121.599 0c-8.702 0-16.717-3.435-24.045-10.305-6.87-7.328-10.305-15.343-10.305-24.045 0-8.702 3.435-16.488 10.305-23.358 7.328-7.328 15.343-10.992 24.045-10.992 8.702 0 16.488 3.664 23.358 10.992 7.328 6.87 10.992 14.656 10.992 23.358s-3.664 16.717-10.992 24.045c-6.87 6.87-14.656 10.305-23.358 10.305Zm403.501 358.614c-25.64 0-48.77-5.954-69.382-17.862-20.61-11.908-37.098-28.167-49.464-48.777-11.908-21.068-17.862-44.884-17.862-71.448 0-19.236 3.664-38.014 10.992-56.334 7.786-18.32 18.549-35.037 32.289-50.151 13.74-15.114 29.77-27.022 48.087-35.724 18.32-9.16 38.02-13.74 59.08-13.74 26.57 0 50.38 6.412 71.45 19.236 21.53 12.824 38.47 29.77 50.84 50.838 12.82 20.61 19.24 43.281 19.24 68.013 0 26.564-5.96 51.754-17.87 75.57-11.45 23.816-28.62 43.281-51.52 58.395-22.9 14.656-51.53 21.984-85.88 21.984Zm14.43-20.61c15.57 0 29.54-2.977 41.91-8.931 12.36-5.954 21.98-15.572 28.85-28.854 5.5-10.534 9.16-23.358 10.99-38.472 1.84-15.114 2.75-29.312 2.75-42.594 0-21.984-4.12-43.052-12.36-63.204-7.79-20.61-19.01-37.327-33.67-50.151-14.19-13.282-31.14-19.923-50.83-19.923-12.37 0-23.59 2.061-33.67 6.183-9.62 3.664-18.55 10.763-26.79 21.297-9.16 11.45-15.114 25.419-17.862 41.907-2.748 16.488-4.122 32.976-4.122 49.464 0 22.442 4.122 43.968 12.366 64.578 8.244 20.152 19.468 36.64 33.658 49.464 14.2 12.824 30.46 19.236 48.78 19.236Zm188.32 13.053c-2.29 0-5.27-.458-8.93-1.374-3.21-.458-4.81-2.061-4.81-4.809 0-3.664 1.6-6.183 4.81-7.557 3.66-1.832 7.33-3.435 10.99-4.809 6.87-2.29 13.51-5.267 19.92-8.931 6.42-4.122 9.62-11.221 9.62-21.297V463.55h-15.8c-5.95 0-12.59-.458-19.92-1.374-1.83-.458-3.67-1.832-5.5-4.122-1.37-2.29-2.06-5.038-2.06-8.244 0-3.206 2.52-5.496 7.56-6.87 8.24-2.29 14.65-4.58 19.23-6.87 5.04-2.748 10.54-5.496 16.49-8.244 0-41.22 5.73-75.341 17.18-102.363 11.45-27.022 25.87-48.319 43.28-63.891 17.86-15.572 36.18-26.564 54.96-32.976 18.78-6.412 35.72-9.618 50.84-9.618 13.74 0 27.48 1.374 41.22 4.122 13.74 2.748 25.19 7.328 34.35 13.74s13.74 15.343 13.74 26.793c0 12.824-3.67 21.984-11 27.48-6.87 5.496-14.65 8.244-23.35 8.244-5.96 0-10.77-2.061-14.43-6.183-3.66-4.58-7.79-9.618-12.37-15.114-5.49-7.328-12.59-14.427-21.29-21.297-8.71-6.87-21.07-10.305-37.1-10.305-14.66 0-28.86 4.58-42.6 13.74-13.28 8.702-24.27 22.671-32.97 41.907-8.25 19.236-12.37 44.426-12.37 75.57v37.785c0 5.496 1.61 8.931 4.81 10.305 3.67 1.374 7.79 2.519 12.37 3.435a995.482 995.482 0 0 0 39.84 3.435c14.2.916 27.71 1.374 40.54 1.374 12.36 0 23.13-.458 32.29-1.374 9.16-.916 15.34-2.061 18.54-3.435 6.42-3.664 12.6-7.328 18.55-10.992a396.281 396.281 0 0 1 17.87-11.679c1.83-.916 3.66-1.145 5.49-.687 1.83.458 2.75 1.603 2.75 3.435-.46 7.786-1.6 19.923-3.44 36.411-1.37 16.488-2.06 39.617-2.06 69.387v142.209c0 10.076 3.21 17.175 9.62 21.297a110.436 110.436 0 0 0 19.92 8.931 70.878 70.878 0 0 1 10.31 4.809c3.66 1.374 5.5 3.893 5.5 7.557 0 2.748-1.84 4.351-5.5 4.809-3.21.916-5.95 1.374-8.24 1.374-9.16 0-16.49-.458-21.99-1.374-5.04-.458-9.85-.916-14.43-1.374-4.58-.458-10.99-.687-19.23-.687-7.79 0-14.2.229-19.24.687-4.58.458-9.62.916-15.11 1.374-5.04.916-12.14 1.374-21.3 1.374-2.29 0-5.27-.458-8.93-1.374-3.21-.458-4.81-2.061-4.81-4.809 0-3.664 1.6-6.183 4.81-7.557 3.66-1.832 7.33-3.435 10.99-4.809 6.87-2.29 13.51-5.267 19.93-8.931 6.41-4.122 9.61-11.221 9.61-21.297V512.327c0-12.824-2.52-23.816-7.55-32.976-5.04-9.16-13.51-14.885-25.42-17.175-.92-.458-5.04-.687-12.37-.687h-46.03c-7.33 0-14.2.229-20.61.687-13.28.458-21.29 1.832-24.04 4.122-2.29 2.29-3.44 5.496-3.44 9.618v181.368c0 10.076 3.21 17.175 9.62 21.297a110.436 110.436 0 0 0 19.92 8.931 70.878 70.878 0 0 1 10.31 4.809c3.66 1.374 5.49 3.893 5.49 7.557 0 2.748-1.83 4.351-5.49 4.809-3.21.916-5.96 1.374-8.25 1.374-9.16 0-16.48-.458-21.98-1.374-5.04-.458-9.85-.916-14.43-1.374-4.58-.458-10.99-.687-19.23-.687-7.79 0-14.2.229-19.24.687-4.58.458-9.62.916-15.11 1.374-5.04.916-12.14 1.374-21.3 1.374Zm352.83 0c-2.29 0-5.27-.687-8.93-2.061-3.21-1.374-4.81-3.435-4.81-6.183 0-3.664 1.83-6.183 5.49-7.557 3.67-1.832 7.33-2.977 11-3.435 11.9-2.29 22.44-5.954 31.6-10.992 9.16-5.038 13.74-13.74 13.74-26.106V462.176c0-14.198-2.98-25.19-8.93-32.976-5.96-7.786-16.26-12.824-30.92-15.114-4.12-.916-8.01-2.519-11.68-4.809-3.2-2.29-4.81-5.038-4.81-8.244 0-2.748 1.61-4.809 4.81-6.183 3.67-1.374 6.64-2.061 8.93-2.061 9.16 0 16.95.229 23.36.687a274.15 274.15 0 0 1 19.24 2.061c6.41.458 13.51.687 21.3.687h45.34c15.57-.458 30.45-.687 44.65-.687 14.2-.458 27.25-.687 39.16-.687 11.91-.458 21.76-.687 29.54-.687 1.38 0 2.98.229 4.81.687 2.29.458 3.44 1.603 3.44 3.435.91 17.404 2.29 31.144 4.12 41.22s2.75 17.404 2.75 21.984c0 1.374-.69 3.206-2.06 5.496-.92 2.29-2.07 3.435-3.44 3.435-1.83 0-4.12-.916-6.87-2.748-2.29-2.29-4.35-5.496-6.18-9.618-4.58-11.45-9.62-21.068-15.12-28.854-5.49-7.786-14.19-11.679-26.1-11.679h-66.64c-2.75 0-6.41.916-10.99 2.748-4.13 1.832-6.19 5.038-6.19 9.618v91.371c0 2.29.69 5.725 2.06 10.305 1.84 4.122 3.67 6.183 5.5 6.183H1768c7.33 0 12.6-2.29 15.8-6.87 3.67-5.038 6.87-11.679 9.62-19.923.92-2.29 2.29-4.809 4.12-7.557 1.84-2.748 3.9-4.122 6.19-4.122 2.75 0 4.81 1.145 6.18 3.435 1.83 2.29 2.52 4.58 2.06 6.87-.46 5.496-.91 11.908-1.37 19.236-.46 7.328-.69 13.511-.69 18.549 0 5.954.23 12.137.69 18.549.91 6.412 1.6 12.824 2.06 19.236.46 1.832 0 4.351-1.38 7.557-1.37 2.748-3.2 4.122-5.49 4.122-4.12 0-7.1-2.29-8.93-6.87-1.38-5.038-2.52-8.244-3.44-9.618-1.83-7.328-5.04-12.137-9.62-14.427-4.58-2.748-8.7-4.351-12.36-4.809-6.87-.916-14.89-1.374-24.05-1.374h-24.04c-6.41 0-10.99.458-13.74 1.374-2.29.916-3.44 4.58-3.44 10.992v78.318c0 12.366 1.15 20.152 3.44 23.358 2.75 3.206 9.16 4.809 19.23 4.809h68.7c14.2 0 26.11-4.122 35.73-12.366 9.62-8.244 16.72-17.404 21.3-27.48.91-1.374 1.83-3.435 2.74-6.183 1.38-2.748 3.67-4.122 6.87-4.122 3.21 0 5.04 1.374 5.5 4.122.92 2.29 1.37 4.58 1.37 6.87-.91 9.16-2.52 19.236-4.81 30.228-2.29 10.534-4.58 19.694-6.87 27.48-.45 1.832-2.06 3.664-4.8 5.496-2.29 1.832-4.58 2.748-6.87 2.748-16.95 0-33.44-.229-49.47-.687-15.57-.458-30.68-.687-45.34-.687-14.2-.458-27.94-.916-41.22-1.374-13.28-.458-25.88-.687-37.79-.687-8.24 0-15.8.458-22.67 1.374l-20.61 1.374c-6.87.916-14.88 1.374-24.04 1.374Z" fill="#3C4043"/><mask id="b" style="mask-type:alpha" maskUnits="userSpaceOnUse" x="590" y="244" width="302" height="478"><path fill="#C4C4C4" d="M590 244h247v154H590zM779 692.082s41-19.631 65-25.582c24-5.951 48-10.5 48-10.5v66H779v-29.918Z"/></mask><g mask="url(#b)"><path d="M847.606 926.588c-61.372 0-119.767-6.641-175.185-19.923-55.418-13.282-107.401-30.228-155.949-50.838-48.09-20.152-92.516-40.762-133.278-61.83-40.304-21.068-76.715-40.533-109.233-58.395-32.06-17.862-60.227-30.686-84.501-38.472-19.694-6.412-38.243-15.572-55.647-27.48-16.946-12.366-31.831-27.251-44.655-44.655-12.824-17.862-22.9-38.243-30.228-61.143-6.87-22.9-10.305-48.319-10.305-76.257 0-31.144 5.038-60.914 15.114-89.31 10.076-28.854 24.96-54.502 44.655-76.944 19.694-22.442 44.197-40.304 73.509-53.586 29.312-13.282 62.975-19.923 100.989-19.923 30.228 0 59.082 5.496 86.562 16.488 27.48 10.534 51.754 25.877 72.822 46.029 21.068 19.694 37.785 43.51 50.151 71.448 12.366 27.48 18.549 58.166 18.549 92.058 0 34.808-6.183 67.555-18.549 98.241-11.908 30.686-29.999 57.479-54.273 80.379-24.274 22.9-54.731 40.075-91.371 51.525-3.664 1.374-5.496 3.435-5.496 6.183 0 1.832 1.145 4.122 3.435 6.87s4.809 4.58 7.557 5.496c31.602 11.45 63.662 24.732 96.18 39.846a3332.544 3332.544 0 0 0 100.302 45.342 2124.181 2124.181 0 0 0 105.798 42.594c35.724 13.282 71.906 24.045 108.546 32.289 37.098 8.244 74.425 12.366 111.981 12.366 32.976 0 62.059-2.061 87.249-6.183 25.648-4.122 48.545-10.534 68.695-19.236 20.61-8.244 39.16-19.007 55.65-32.289 16.49-13.282 32.29-29.083 47.4-47.403 5.04-5.954 10.31-8.702 15.81-8.244 5.95.916 10.76 3.435 14.42 7.557 4.12 4.58 6.41 9.618 6.87 15.114.92 5.496-1.37 10.076-6.87 13.74-27.94 20.152-57.25 38.472-87.93 54.96-30.23 16.488-63.89 29.541-100.992 39.159-37.098 9.618-79.692 14.427-127.782 14.427Zm-560.592-240.45c52.67 0 92.058-16.259 118.164-48.777 26.564-32.518 39.846-75.799 39.846-129.843 0-42.594-6.412-81.295-19.236-116.103-12.824-34.808-32.06-62.517-57.708-83.127-25.648-21.068-57.708-31.602-96.18-31.602-51.754 0-90.913 16.03-117.477 48.09-26.564 32.06-39.846 74.883-39.846 128.469 0 42.594 6.412 81.524 19.236 116.79 12.824 35.266 32.06 63.433 57.708 84.501 25.648 21.068 57.479 31.602 95.493 31.602Zm499.239 30.915c-3.206 0-4.809-1.832-4.809-5.496 0-4.58.458-11.221 1.374-19.923 1.374-9.16 2.061-16.717 2.061-22.671v-4.122c-17.862 17.404-35.953 29.999-54.273 37.785-17.862 7.328-37.556 10.992-59.082 10.992-14.656 0-27.938-3.206-39.846-9.618-11.908-5.954-21.297-14.885-28.167-26.793-6.87-12.366-10.305-27.48-10.305-45.342V492.404c0-10.076-2.29-18.091-6.87-24.045-4.58-5.954-12.137-10.992-22.671-15.114-2.29-.916-4.351-2.061-6.183-3.435-1.832-1.374-2.748-3.893-2.748-7.557 0-4.122.916-6.87 2.748-8.244 2.29-1.374 4.809-2.29 7.557-2.748 15.572-.916 27.48-2.061 35.724-3.435 8.702-1.832 19.465-4.351 32.289-7.557 1.374-.458 2.29-.687 2.748-.687h2.748c5.038 0 7.328 3.206 6.87 9.618a5177.937 5177.937 0 0 0-3.435 26.793c-.458 6.87-.687 15.572-.687 26.106v133.965c0 10.992 2.748 21.297 8.244 30.915 5.496 9.16 12.595 16.717 21.297 22.671 9.16 5.954 18.549 8.931 28.167 8.931 11.908 0 22.213-.687 30.915-2.061 9.16-1.374 18.091-5.267 26.793-11.679 5.038-3.664 11.45-9.618 19.236-17.862 7.786-8.244 11.679-19.465 11.679-33.663V487.595c0-9.618-2.977-16.717-8.931-21.297-5.496-5.038-11.908-8.473-19.236-10.305-7.328-1.832-13.282-2.748-17.862-2.748-4.122 0-7.557-.687-10.305-2.061-2.748-1.832-4.122-5.038-4.122-9.618 0-4.122 1.374-6.87 4.122-8.244 3.206-1.374 6.641-2.061 10.305-2.061 14.198-.458 25.877-.916 35.037-1.374 9.618-.916 18.091-2.061 25.419-3.435a623.43 623.43 0 0 0 24.045-6.183c.916-.458 2.061-.687 3.435-.687 1.374-.458 2.519-.687 3.435-.687 5.954 0 8.931 2.519 8.931 7.557 0 .458-.229 1.374-.687 2.748 0 .916-.229 2.061-.687 3.435-.458 1.374-1.145 5.267-2.061 11.679a327.363 327.363 0 0 1-2.061 19.923c-.458 6.87-.687 12.137-.687 15.801v158.697c0 12.366 1.145 21.297 3.435 26.793 2.748 5.038 5.725 7.557 8.931 7.557 3.664 0 8.931-.229 15.801-.687 7.328-.916 12.595-1.374 15.801-1.374 2.29 0 4.58.458 6.87 1.374 2.29.916 3.435 3.435 3.435 7.557 0 3.664-.916 6.183-2.748 7.557-1.832.916-4.122 1.603-6.87 2.061-17.862 2.29-33.205 5.725-46.029 10.305-12.824 4.58-24.274 8.931-34.35 13.053l-6.183 2.061c-2.748 1.374-5.267 2.061-7.557 2.061Zm-17.175-362.049c-8.702 0-16.717-3.435-24.045-10.305-6.87-7.328-10.305-15.343-10.305-24.045 0-8.702 3.435-16.488 10.305-23.358 7.328-7.328 15.343-10.992 24.045-10.992 8.702 0 16.488 3.664 23.358 10.992 7.328 6.87 10.992 14.656 10.992 23.358s-3.664 16.717-10.992 24.045c-6.87 6.87-14.656 10.305-23.358 10.305Zm-121.599 0c-8.702 0-16.717-3.435-24.045-10.305-6.87-7.328-10.305-15.343-10.305-24.045 0-8.702 3.435-16.488 10.305-23.358 7.328-7.328 15.343-10.992 24.045-10.992 8.702 0 16.488 3.664 23.358 10.992 7.328 6.87 10.992 14.656 10.992 23.358s-3.664 16.717-10.992 24.045c-6.87 6.87-14.656 10.305-23.358 10.305Zm403.501 358.614c-25.64 0-48.77-5.954-69.382-17.862-20.61-11.908-37.098-28.167-49.464-48.777-11.908-21.068-17.862-44.884-17.862-71.448 0-19.236 3.664-38.014 10.992-56.334 7.786-18.32 18.549-35.037 32.289-50.151 13.74-15.114 29.77-27.022 48.087-35.724 18.32-9.16 38.02-13.74 59.08-13.74 26.57 0 50.38 6.412 71.45 19.236 21.53 12.824 38.47 29.77 50.84 50.838 12.82 20.61 19.24 43.281 19.24 68.013 0 26.564-5.96 51.754-17.87 75.57-11.45 23.816-28.62 43.281-51.52 58.395-22.9 14.656-51.53 21.984-85.88 21.984Zm14.43-20.61c15.57 0 29.54-2.977 41.91-8.931 12.36-5.954 21.98-15.572 28.85-28.854 5.5-10.534 9.16-23.358 10.99-38.472 1.84-15.114 2.75-29.312 2.75-42.594 0-21.984-4.12-43.052-12.36-63.204-7.79-20.61-19.01-37.327-33.67-50.151-14.19-13.282-31.14-19.923-50.83-19.923-12.37 0-23.59 2.061-33.67 6.183-9.62 3.664-18.55 10.763-26.79 21.297-9.16 11.45-15.114 25.419-17.862 41.907-2.748 16.488-4.122 32.976-4.122 49.464 0 22.442 4.122 43.968 12.366 64.578 8.244 20.152 19.468 36.64 33.658 49.464 14.2 12.824 30.46 19.236 48.78 19.236Zm188.32 13.053c-2.29 0-5.27-.458-8.93-1.374-3.21-.458-4.81-2.061-4.81-4.809 0-3.664 1.6-6.183 4.81-7.557 3.66-1.832 7.33-3.435 10.99-4.809 6.87-2.29 13.51-5.267 19.92-8.931 6.42-4.122 9.62-11.221 9.62-21.297V463.55h-15.8c-5.95 0-12.59-.458-19.92-1.374-1.83-.458-3.67-1.832-5.5-4.122-1.37-2.29-2.06-5.038-2.06-8.244 0-3.206 2.52-5.496 7.56-6.87 8.24-2.29 14.65-4.58 19.23-6.87 5.04-2.748 10.54-5.496 16.49-8.244 0-41.22 5.73-75.341 17.18-102.363 11.45-27.022 25.87-48.319 43.28-63.891 17.86-15.572 36.18-26.564 54.96-32.976 18.78-6.412 35.72-9.618 50.84-9.618 13.74 0 27.48 1.374 41.22 4.122 13.74 2.748 25.19 7.328 34.35 13.74s13.74 15.343 13.74 26.793c0 12.824-3.67 21.984-11 27.48-6.87 5.496-14.65 8.244-23.35 8.244-5.96 0-10.77-2.061-14.43-6.183-3.66-4.58-7.79-9.618-12.37-15.114-5.49-7.328-12.59-14.427-21.29-21.297-8.71-6.87-21.07-10.305-37.1-10.305-14.66 0-28.86 4.58-42.6 13.74-13.28 8.702-24.27 22.671-32.97 41.907-8.25 19.236-12.37 44.426-12.37 75.57v37.785c0 5.496 1.61 8.931 4.81 10.305 3.67 1.374 7.79 2.519 12.37 3.435a995.482 995.482 0 0 0 39.84 3.435c14.2.916 27.71 1.374 40.54 1.374 12.36 0 23.13-.458 32.29-1.374 9.16-.916 15.34-2.061 18.54-3.435 6.42-3.664 12.6-7.328 18.55-10.992a396.281 396.281 0 0 1 17.87-11.679c1.83-.916 3.66-1.145 5.49-.687 1.83.458 2.75 1.603 2.75 3.435-.46 7.786-1.6 19.923-3.44 36.411-1.37 16.488-2.06 39.617-2.06 69.387v142.209c0 10.076 3.21 17.175 9.62 21.297a110.436 110.436 0 0 0 19.92 8.931 70.878 70.878 0 0 1 10.31 4.809c3.66 1.374 5.5 3.893 5.5 7.557 0 2.748-1.84 4.351-5.5 4.809-3.21.916-5.95 1.374-8.24 1.374-9.16 0-16.49-.458-21.99-1.374-5.04-.458-9.85-.916-14.43-1.374-4.58-.458-10.99-.687-19.23-.687-7.79 0-14.2.229-19.24.687-4.58.458-9.62.916-15.11 1.374-5.04.916-12.14 1.374-21.3 1.374-2.29 0-5.27-.458-8.93-1.374-3.21-.458-4.81-2.061-4.81-4.809 0-3.664 1.6-6.183 4.81-7.557 3.66-1.832 7.33-3.435 10.99-4.809 6.87-2.29 13.51-5.267 19.93-8.931 6.41-4.122 9.61-11.221 9.61-21.297V512.327c0-12.824-2.52-23.816-7.55-32.976-5.04-9.16-13.51-14.885-25.42-17.175-.92-.458-5.04-.687-12.37-.687h-46.03c-7.33 0-14.2.229-20.61.687-13.28.458-21.29 1.832-24.04 4.122-2.29 2.29-3.44 5.496-3.44 9.618v181.368c0 10.076 3.21 17.175 9.62 21.297a110.436 110.436 0 0 0 19.92 8.931 70.878 70.878 0 0 1 10.31 4.809c3.66 1.374 5.49 3.893 5.49 7.557 0 2.748-1.83 4.351-5.49 4.809-3.21.916-5.96 1.374-8.25 1.374-9.16 0-16.48-.458-21.98-1.374-5.04-.458-9.85-.916-14.43-1.374-4.58-.458-10.99-.687-19.23-.687-7.79 0-14.2.229-19.24.687-4.58.458-9.62.916-15.11 1.374-5.04.916-12.14 1.374-21.3 1.374Zm352.83 0c-2.29 0-5.27-.687-8.93-2.061-3.21-1.374-4.81-3.435-4.81-6.183 0-3.664 1.83-6.183 5.49-7.557 3.67-1.832 7.33-2.977 11-3.435 11.9-2.29 22.44-5.954 31.6-10.992 9.16-5.038 13.74-13.74 13.74-26.106V462.176c0-14.198-2.98-25.19-8.93-32.976-5.96-7.786-16.26-12.824-30.92-15.114-4.12-.916-8.01-2.519-11.68-4.809-3.2-2.29-4.81-5.038-4.81-8.244 0-2.748 1.61-4.809 4.81-6.183 3.67-1.374 6.64-2.061 8.93-2.061 9.16 0 16.95.229 23.36.687a274.15 274.15 0 0 1 19.24 2.061c6.41.458 13.51.687 21.3.687h45.34c15.57-.458 30.45-.687 44.65-.687 14.2-.458 27.25-.687 39.16-.687 11.91-.458 21.76-.687 29.54-.687 1.38 0 2.98.229 4.81.687 2.29.458 3.44 1.603 3.44 3.435.91 17.404 2.29 31.144 4.12 41.22s2.75 17.404 2.75 21.984c0 1.374-.69 3.206-2.06 5.496-.92 2.29-2.07 3.435-3.44 3.435-1.83 0-4.12-.916-6.87-2.748-2.29-2.29-4.35-5.496-6.18-9.618-4.58-11.45-9.62-21.068-15.12-28.854-5.49-7.786-14.19-11.679-26.1-11.679h-66.64c-2.75 0-6.41.916-10.99 2.748-4.13 1.832-6.19 5.038-6.19 9.618v91.371c0 2.29.69 5.725 2.06 10.305 1.84 4.122 3.67 6.183 5.5 6.183H1768c7.33 0 12.6-2.29 15.8-6.87 3.67-5.038 6.87-11.679 9.62-19.923.92-2.29 2.29-4.809 4.12-7.557 1.84-2.748 3.9-4.122 6.19-4.122 2.75 0 4.81 1.145 6.18 3.435 1.83 2.29 2.52 4.58 2.06 6.87-.46 5.496-.91 11.908-1.37 19.236-.46 7.328-.69 13.511-.69 18.549 0 5.954.23 12.137.69 18.549.91 6.412 1.6 12.824 2.06 19.236.46 1.832 0 4.351-1.38 7.557-1.37 2.748-3.2 4.122-5.49 4.122-4.12 0-7.1-2.29-8.93-6.87-1.38-5.038-2.52-8.244-3.44-9.618-1.83-7.328-5.04-12.137-9.62-14.427-4.58-2.748-8.7-4.351-12.36-4.809-6.87-.916-14.89-1.374-24.05-1.374h-24.04c-6.41 0-10.99.458-13.74 1.374-2.29.916-3.44 4.58-3.44 10.992v78.318c0 12.366 1.15 20.152 3.44 23.358 2.75 3.206 9.16 4.809 19.23 4.809h68.7c14.2 0 26.11-4.122 35.73-12.366 9.62-8.244 16.72-17.404 21.3-27.48.91-1.374 1.83-3.435 2.74-6.183 1.38-2.748 3.67-4.122 6.87-4.122 3.21 0 5.04 1.374 5.5 4.122.92 2.29 1.37 4.58 1.37 6.87-.91 9.16-2.52 19.236-4.81 30.228-2.29 10.534-4.58 19.694-6.87 27.48-.45 1.832-2.06 3.664-4.8 5.496-2.29 1.832-4.58 2.748-6.87 2.748-16.95 0-33.44-.229-49.47-.687-15.57-.458-30.68-.687-45.34-.687-14.2-.458-27.94-.916-41.22-1.374-13.28-.458-25.88-.687-37.79-.687-8.24 0-15.8.458-22.67 1.374l-20.61 1.374c-6.87.916-14.88 1.374-24.04 1.374Z" fill="#1A73E8"/></g><path d="M601.435 372.8h8.28c3.12 0 5.4.744 6.84 2.232 1.44 1.488 2.16 3.864 2.16 7.128v6.48c0 3.264-.72 5.64-2.16 7.128-1.44 1.488-3.72 2.232-6.84 2.232h-8.28v-2.844h2.16v-19.548h-2.16V372.8Zm7.848 22.392c1.104 0 2.052-.108 2.844-.324.816-.216 1.488-.576 2.016-1.08.528-.528.912-1.224 1.152-2.088.264-.864.396-1.956.396-3.276v-6.048c0-1.32-.132-2.412-.396-3.276-.24-.864-.624-1.548-1.152-2.052-.528-.528-1.2-.9-2.016-1.116-.792-.216-1.74-.324-2.844-.324h-2.664v19.584h2.664Zm14.591-22.392h15.984v2.808h-6.48v19.584h6.48V398h-15.984v-2.808h6.48v-19.584h-6.48V372.8Zm35.435 18.936h-10.8L646.673 398h-3.24l7.632-25.2h5.688l7.632 25.2h-3.24l-1.836-6.264Zm-5.616-17.64-4.356 14.832h9.144l-4.356-14.832h-.432Zm22.403 21.6c1.032 0 1.908-.168 2.628-.504.744-.36 1.344-.828 1.8-1.404a5.77 5.77 0 0 0 1.044-2.016 8.04 8.04 0 0 0 .36-2.412v-.432h3.024v.432c0 1.272-.192 2.472-.576 3.6a8.618 8.618 0 0 1-1.692 2.916c-.744.816-1.668 1.464-2.772 1.944-1.104.456-2.376.684-3.816.684-2.784 0-4.956-.876-6.516-2.628-1.56-1.752-2.34-4.308-2.34-7.668v-5.616c0-3.264.78-5.796 2.34-7.596 1.56-1.8 3.732-2.7 6.516-2.7 1.44 0 2.712.24 3.816.72 1.104.456 2.028 1.104 2.772 1.944.744.816 1.308 1.788 1.692 2.916.384 1.104.576 2.292.576 3.564v.432h-3.024v-.432a8.795 8.795 0 0 0-.396-2.376 5.383 5.383 0 0 0-1.044-2.016 4.636 4.636 0 0 0-1.764-1.404c-.72-.36-1.596-.54-2.628-.54-1.944 0-3.408.708-4.392 2.124-.96 1.416-1.44 3.276-1.44 5.58v5.184c0 2.472.48 4.38 1.44 5.724.984 1.32 2.448 1.98 4.392 1.98ZM705.879 398h-3.024v-8.424c0-.624-.144-1.104-.432-1.44-.288-.336-.792-.504-1.512-.504h-7.848V398h-3.024v-25.2h9c1.296 0 2.424.192 3.384.576.96.36 1.752.852 2.376 1.476a5.83 5.83 0 0 1 1.44 2.196 6.74 6.74 0 0 1 .504 2.592v1.08c0 .936-.264 1.872-.792 2.808-.504.936-1.296 1.656-2.376 2.16v.432c.72.12 1.284.408 1.692.864.408.456.612 1.104.612 1.944V398Zm-12.816-13.176h5.616c1.704 0 2.964-.36 3.78-1.08.84-.744 1.26-1.824 1.26-3.24v-.648c0-1.272-.42-2.292-1.26-3.06-.816-.792-2.076-1.188-3.78-1.188h-5.616v9.216Zm18.982-12.024h15.984v2.808h-6.48v19.584h6.48V398h-15.984v-2.808h6.48v-19.584h-6.48V372.8Zm21.179 0h17.712v2.808h-7.344V398h-3.024v-22.392h-7.344V372.8Zm22.907 0h15.984v2.808h-6.48v19.584h6.48V398h-15.984v-2.808h6.48v-19.584h-6.48V372.8Zm30.179 22.896c1.032 0 1.908-.168 2.628-.504.744-.36 1.344-.828 1.8-1.404a5.77 5.77 0 0 0 1.044-2.016 8.04 8.04 0 0 0 .36-2.412v-.432h3.024v.432c0 1.272-.192 2.472-.576 3.6a8.618 8.618 0 0 1-1.692 2.916c-.744.816-1.668 1.464-2.772 1.944-1.104.456-2.376.684-3.816.684-2.784 0-4.956-.876-6.516-2.628-1.56-1.752-2.34-4.308-2.34-7.668v-5.616c0-3.264.78-5.796 2.34-7.596 1.56-1.8 3.732-2.7 6.516-2.7 1.44 0 2.712.24 3.816.72 1.104.456 2.028 1.104 2.772 1.944.744.816 1.308 1.788 1.692 2.916.384 1.104.576 2.292.576 3.564v.432h-3.024v-.432a8.795 8.795 0 0 0-.396-2.376 5.383 5.383 0 0 0-1.044-2.016 4.636 4.636 0 0 0-1.764-1.404c-.72-.36-1.596-.54-2.628-.54-1.944 0-3.408.708-4.392 2.124-.96 1.416-1.44 3.276-1.44 5.58v5.184c0 2.472.48 4.38 1.44 5.724.984 1.32 2.448 1.98 4.392 1.98ZM799.956 746.072c0-.816-.168-1.536-.504-2.16a4.27 4.27 0 0 0-1.296-1.548 6.154 6.154 0 0 0-1.908-.936 7.85 7.85 0 0 0-2.268-.324c-.696 0-1.356.096-1.98.288a5.694 5.694 0 0 0-1.692.756c-.48.336-.864.756-1.152 1.26-.288.48-.432 1.044-.432 1.692v.216c0 .696.144 1.296.432 1.8.288.48.708.9 1.26 1.26.576.336 1.284.624 2.124.864.84.216 1.824.408 2.952.576 2.64.408 4.584 1.188 5.832 2.34 1.248 1.128 1.872 2.652 1.872 4.572v.432c0 1.08-.192 2.076-.576 2.988a6.023 6.023 0 0 1-1.656 2.304c-.72.648-1.62 1.152-2.7 1.512-1.08.36-2.328.54-3.744.54-1.608 0-3.036-.228-4.284-.684-1.224-.48-2.256-1.128-3.096-1.944a8.68 8.68 0 0 1-1.872-2.916c-.432-1.128-.648-2.352-.648-3.672v-1.08h3.024v.864c0 2.208.6 3.864 1.8 4.968 1.224 1.104 2.916 1.656 5.076 1.656 1.872 0 3.276-.408 4.212-1.224.96-.84 1.44-1.944 1.44-3.312v-.216c0-1.32-.492-2.328-1.476-3.024-.96-.696-2.532-1.2-4.716-1.512-1.272-.168-2.424-.42-3.456-.756-1.008-.36-1.872-.816-2.592-1.368a5.91 5.91 0 0 1-1.656-2.052c-.384-.792-.576-1.728-.576-2.808v-.432c0-.984.204-1.884.612-2.7a6.563 6.563 0 0 1 1.692-2.124c.744-.6 1.62-1.056 2.628-1.368 1.032-.336 2.16-.504 3.384-.504 1.416 0 2.676.204 3.78.612 1.128.408 2.076.96 2.844 1.656a6.386 6.386 0 0 1 1.728 2.412c.408.912.612 1.872.612 2.88v1.512h-3.024v-1.296Zm8.471-7.272h15.264v2.808h-12.24v8.352h12.024v2.808h-12.024v8.424h12.456V764h-15.48v-25.2Zm37.559 25.2h-3.024v-8.424c0-.624-.144-1.104-.432-1.44-.288-.336-.792-.504-1.512-.504h-7.848V764h-3.024v-25.2h9c1.296 0 2.424.192 3.384.576.96.36 1.752.852 2.376 1.476a5.83 5.83 0 0 1 1.44 2.196 6.74 6.74 0 0 1 .504 2.592v1.08c0 .936-.264 1.872-.792 2.808-.504.936-1.296 1.656-2.376 2.16v.432c.72.12 1.284.408 1.692.864.408.456.612 1.104.612 1.944V764Zm-12.816-13.176h5.616c1.704 0 2.964-.36 3.78-1.08.84-.744 1.26-1.824 1.26-3.24v-.648c0-1.272-.42-2.292-1.26-3.06-.816-.792-2.076-1.188-3.78-1.188h-5.616v9.216Zm18.983-12.024h15.984v2.808h-6.48v19.584h6.48V764h-15.984v-2.808h6.48v-19.584h-6.48V738.8Zm22.439 0h15.48v2.808h-12.456v8.352h12.24v2.808h-12.24V764h-3.024v-25.2ZM964.939 372.8h3.024v22.392h13.176V398h-16.2v-25.2Zm21.071 9.792c0-3.264.78-5.796 2.34-7.596 1.56-1.8 3.732-2.7 6.516-2.7s4.956.9 6.514 2.7c1.56 1.8 2.34 4.332 2.34 7.596v5.616c0 3.36-.78 5.916-2.34 7.668-1.558 1.752-3.73 2.628-6.514 2.628-2.784 0-4.956-.876-6.516-2.628-1.56-1.752-2.34-4.308-2.34-7.668v-5.616Zm8.856 13.104c1.944 0 3.396-.66 4.356-1.98.988-1.344 1.478-3.252 1.478-5.724v-5.184c0-2.304-.49-4.164-1.478-5.58-.96-1.416-2.412-2.124-4.356-2.124s-3.408.708-4.392 2.124c-.96 1.416-1.44 3.276-1.44 5.58v5.184c0 2.472.48 4.38 1.44 5.724.984 1.32 2.448 1.98 4.392 1.98ZM1024.97 398h-5.51l-2.34-23.904h-.43L1014.35 398h-5.51l-2.55-25.2h2.73l2.42 23.904h.43l2.27-23.904h5.54l2.27 23.904h.43l2.41-23.904h2.74l-2.56 25.2Zm6.35-25.2h15.26v2.808h-12.24v8.352h12.03v2.808h-12.03v8.424h12.46V398h-15.48v-25.2Zm37.56 25.2h-3.03v-8.424c0-.624-.14-1.104-.43-1.44-.29-.336-.79-.504-1.51-.504h-7.85V398h-3.02v-25.2h9c1.29 0 2.42.192 3.38.576.96.36 1.75.852 2.38 1.476a5.783 5.783 0 0 1 1.44 2.196c.33.816.5 1.68.5 2.592v1.08c0 .936-.26 1.872-.79 2.808-.5.936-1.3 1.656-2.38 2.16v.432c.72.12 1.29.408 1.7.864.4.456.61 1.104.61 1.944V398Zm-12.82-13.176h5.62c1.7 0 2.96-.36 3.78-1.08.84-.744 1.26-1.824 1.26-3.24v-.648c0-1.272-.42-2.292-1.26-3.06-.82-.792-2.08-1.188-3.78-1.188h-5.62v9.216Zm27.12 10.872c1.03 0 1.91-.168 2.63-.504.74-.36 1.34-.828 1.8-1.404.48-.6.83-1.272 1.04-2.016a8.04 8.04 0 0 0 .36-2.412v-.432h3.03v.432c0 1.272-.19 2.472-.58 3.6a8.613 8.613 0 0 1-1.69 2.916c-.74.816-1.67 1.464-2.77 1.944-1.11.456-2.38.684-3.82.684-2.78 0-4.95-.876-6.51-2.628-1.56-1.752-2.34-4.308-2.34-7.668v-5.616c0-3.264.78-5.796 2.34-7.596 1.56-1.8 3.73-2.7 6.51-2.7 1.44 0 2.71.24 3.82.72 1.1.456 2.03 1.104 2.77 1.944a8.177 8.177 0 0 1 1.69 2.916c.39 1.104.58 2.292.58 3.564v.432h-3.03v-.432a8.636 8.636 0 0 0-.39-2.376 5.452 5.452 0 0 0-1.05-2.016 4.578 4.578 0 0 0-1.76-1.404c-.72-.36-1.6-.54-2.63-.54-1.94 0-3.41.708-4.39 2.124-.96 1.416-1.44 3.276-1.44 5.58v5.184c0 2.472.48 4.38 1.44 5.724.98 1.32 2.45 1.98 4.39 1.98Zm27.3-3.96h-10.8l-1.84 6.264h-3.24l7.64-25.2h5.68l7.64 25.2h-3.24l-1.84-6.264Zm-5.62-17.64-4.35 14.832h9.14l-4.35-14.832h-.44Zm28.2 5.976c0-.816-.16-1.536-.5-2.16a4.185 4.185 0 0 0-1.3-1.548 6.088 6.088 0 0 0-1.9-.936 7.875 7.875 0 0 0-2.27-.324c-.7 0-1.36.096-1.98.288-.63.168-1.19.42-1.69.756-.48.336-.87.756-1.16 1.26-.28.48-.43 1.044-.43 1.692v.216c0 .696.15 1.296.43 1.8.29.48.71.9 1.26 1.26.58.336 1.29.624 2.13.864.84.216 1.82.408 2.95.576 2.64.408 4.58 1.188 5.83 2.34 1.25 1.128 1.87 2.652 1.87 4.572v.432c0 1.08-.19 2.076-.57 2.988a5.97 5.97 0 0 1-1.66 2.304c-.72.648-1.62 1.152-2.7 1.512-1.08.36-2.33.54-3.74.54-1.61 0-3.04-.228-4.29-.684-1.22-.48-2.25-1.128-3.09-1.944a8.584 8.584 0 0 1-1.87-2.916c-.44-1.128-.65-2.352-.65-3.672v-1.08h3.02v.864c0 2.208.6 3.864 1.8 4.968 1.23 1.104 2.92 1.656 5.08 1.656 1.87 0 3.27-.408 4.21-1.224.96-.84 1.44-1.944 1.44-3.312v-.216c0-1.32-.49-2.328-1.48-3.024-.96-.696-2.53-1.2-4.71-1.512-1.27-.168-2.43-.42-3.46-.756-1.01-.36-1.87-.816-2.59-1.368a5.99 5.99 0 0 1-1.66-2.052c-.38-.792-.57-1.728-.57-2.808v-.432c0-.984.2-1.884.61-2.7.41-.816.97-1.524 1.69-2.124.75-.6 1.62-1.056 2.63-1.368 1.03-.336 2.16-.504 3.38-.504 1.42 0 2.68.204 3.78.612 1.13.408 2.08.96 2.85 1.656a6.435 6.435 0 0 1 1.73 2.412c.4.912.61 1.872.61 2.88v1.512h-3.03v-1.296Zm8.47-7.272h15.27v2.808h-12.24v8.352h12.02v2.808h-12.02v8.424h12.45V398h-15.48v-25.2ZM177.707 195.8v16.704c0 2.04.468 3.588 1.404 4.644.96 1.032 2.364 1.548 4.212 1.548 1.848 0 3.24-.516 4.176-1.548.96-1.056 1.44-2.604 1.44-4.644V195.8h3.024v16.704c0 2.928-.768 5.16-2.304 6.696-1.536 1.536-3.648 2.304-6.336 2.304s-4.8-.768-6.336-2.304c-1.536-1.536-2.304-3.768-2.304-6.696V195.8h3.024Zm22.727 14.832V221h-3.024v-25.2h9c1.296 0 2.424.192 3.384.576.96.36 1.752.852 2.376 1.476a5.83 5.83 0 0 1 1.44 2.196 6.74 6.74 0 0 1 .504 2.592v1.08c0 .912-.168 1.788-.504 2.628a6.158 6.158 0 0 1-1.44 2.232c-.648.624-1.452 1.128-2.412 1.512-.96.36-2.076.54-3.348.54h-5.976Zm0-2.808h5.616c3.36 0 5.04-1.44 5.04-4.32v-.648c0-1.272-.42-2.292-1.26-3.06-.816-.792-2.076-1.188-3.78-1.188h-5.616v9.216Zm22.043 2.808V221h-3.024v-25.2h9c1.296 0 2.424.192 3.384.576.96.36 1.752.852 2.376 1.476a5.83 5.83 0 0 1 1.44 2.196 6.74 6.74 0 0 1 .504 2.592v1.08c0 .912-.168 1.788-.504 2.628a6.158 6.158 0 0 1-1.44 2.232c-.648.624-1.452 1.128-2.412 1.512-.96.36-2.076.54-3.348.54h-5.976Zm0-2.808h5.616c3.36 0 5.04-1.44 5.04-4.32v-.648c0-1.272-.42-2.292-1.26-3.06-.816-.792-2.076-1.188-3.78-1.188h-5.616v9.216ZM241.82 195.8h15.264v2.808h-12.24v8.352h12.024v2.808h-12.024v8.424H257.3V221h-15.48v-25.2Zm37.559 25.2h-3.024v-8.424c0-.624-.144-1.104-.432-1.44-.288-.336-.792-.504-1.512-.504h-7.848V221h-3.024v-25.2h9c1.296 0 2.424.192 3.384.576.96.36 1.752.852 2.376 1.476a5.83 5.83 0 0 1 1.44 2.196 6.74 6.74 0 0 1 .504 2.592v1.08c0 .936-.264 1.872-.792 2.808-.504.936-1.296 1.656-2.376 2.16v.432c.72.12 1.284.408 1.692.864.408.456.612 1.104.612 1.944V221Zm-12.816-13.176h5.616c1.704 0 2.964-.36 3.78-1.08.84-.744 1.26-1.824 1.26-3.24v-.648c0-1.272-.42-2.292-1.26-3.06-.816-.792-2.076-1.188-3.78-1.188h-5.616v9.216Zm27.118 10.872c1.032 0 1.908-.168 2.628-.504.744-.36 1.344-.828 1.8-1.404a5.77 5.77 0 0 0 1.044-2.016 8.04 8.04 0 0 0 .36-2.412v-.432h3.024v.432c0 1.272-.192 2.472-.576 3.6a8.618 8.618 0 0 1-1.692 2.916c-.744.816-1.668 1.464-2.772 1.944-1.104.456-2.376.684-3.816.684-2.784 0-4.956-.876-6.516-2.628-1.56-1.752-2.34-4.308-2.34-7.668v-5.616c0-3.264.78-5.796 2.34-7.596 1.56-1.8 3.732-2.7 6.516-2.7 1.44 0 2.712.24 3.816.72 1.104.456 2.028 1.104 2.772 1.944.744.816 1.308 1.788 1.692 2.916.384 1.104.576 2.292.576 3.564v.432h-3.024v-.432a8.795 8.795 0 0 0-.396-2.376 5.383 5.383 0 0 0-1.044-2.016 4.636 4.636 0 0 0-1.764-1.404c-.72-.36-1.596-.54-2.628-.54-1.944 0-3.408.708-4.392 2.124-.96 1.416-1.44 3.276-1.44 5.58v5.184c0 2.472.48 4.38 1.44 5.724.984 1.32 2.448 1.98 4.392 1.98Zm27.299-3.96h-10.8L308.344 221h-3.24l7.632-25.2h5.688l7.632 25.2h-3.24l-1.836-6.264Zm-5.616-17.64-4.356 14.832h9.144l-4.356-14.832h-.432Zm28.199 5.976c0-.816-.168-1.536-.504-2.16a4.27 4.27 0 0 0-1.296-1.548 6.154 6.154 0 0 0-1.908-.936 7.85 7.85 0 0 0-2.268-.324c-.696 0-1.356.096-1.98.288a5.694 5.694 0 0 0-1.692.756c-.48.336-.864.756-1.152 1.26-.288.48-.432 1.044-.432 1.692v.216c0 .696.144 1.296.432 1.8.288.48.708.9 1.26 1.26.576.336 1.284.624 2.124.864.84.216 1.824.408 2.952.576 2.64.408 4.584 1.188 5.832 2.34 1.248 1.128 1.872 2.652 1.872 4.572v.432c0 1.08-.192 2.076-.576 2.988a6.023 6.023 0 0 1-1.656 2.304c-.72.648-1.62 1.152-2.7 1.512-1.08.36-2.328.54-3.744.54-1.608 0-3.036-.228-4.284-.684-1.224-.48-2.256-1.128-3.096-1.944a8.68 8.68 0 0 1-1.872-2.916c-.432-1.128-.648-2.352-.648-3.672v-1.08h3.024v.864c0 2.208.6 3.864 1.8 4.968 1.224 1.104 2.916 1.656 5.076 1.656 1.872 0 3.276-.408 4.212-1.224.96-.84 1.44-1.944 1.44-3.312v-.216c0-1.32-.492-2.328-1.476-3.024-.96-.696-2.532-1.2-4.716-1.512-1.272-.168-2.424-.42-3.456-.756-1.008-.36-1.872-.816-2.592-1.368a5.91 5.91 0 0 1-1.656-2.052c-.384-.792-.576-1.728-.576-2.808v-.432c0-.984.204-1.884.612-2.7a6.563 6.563 0 0 1 1.692-2.124c.744-.6 1.62-1.056 2.628-1.368 1.032-.336 2.16-.504 3.384-.504 1.416 0 2.676.204 3.78.612 1.128.408 2.076.96 2.844 1.656a6.386 6.386 0 0 1 1.728 2.412c.408.912.612 1.872.612 2.88v1.512h-3.024v-1.296Zm8.471-7.272h15.264v2.808h-12.24v8.352h12.024v2.808h-12.024v8.424h12.456V221h-15.48v-25.2ZM1647.26 353.072c0-.816-.17-1.536-.5-2.16a4.281 4.281 0 0 0-1.3-1.548 6.143 6.143 0 0 0-1.91-.936 7.806 7.806 0 0 0-2.26-.324c-.7 0-1.36.096-1.98.288-.63.168-1.19.42-1.7.756-.48.336-.86.756-1.15 1.26-.29.48-.43 1.044-.43 1.692v.216c0 .696.14 1.296.43 1.8.29.48.71.9 1.26 1.26.58.336 1.29.624 2.13.864.84.216 1.82.408 2.95.576 2.64.408 4.58 1.188 5.83 2.34 1.25 1.128 1.87 2.652 1.87 4.572v.432c0 1.08-.19 2.076-.57 2.988a6.076 6.076 0 0 1-1.66 2.304c-.72.648-1.62 1.152-2.7 1.512-1.08.36-2.33.54-3.74.54-1.61 0-3.04-.228-4.29-.684-1.22-.48-2.25-1.128-3.09-1.944a8.764 8.764 0 0 1-1.88-2.916c-.43-1.128-.64-2.352-.64-3.672v-1.08h3.02v.864c0 2.208.6 3.864 1.8 4.968 1.22 1.104 2.92 1.656 5.08 1.656 1.87 0 3.27-.408 4.21-1.224.96-.84 1.44-1.944 1.44-3.312v-.216c0-1.32-.49-2.328-1.48-3.024-.96-.696-2.53-1.2-4.71-1.512-1.28-.168-2.43-.42-3.46-.756-1.01-.36-1.87-.816-2.59-1.368a5.99 5.99 0 0 1-1.66-2.052c-.38-.792-.57-1.728-.57-2.808v-.432c0-.984.2-1.884.61-2.7.41-.816.97-1.524 1.69-2.124.74-.6 1.62-1.056 2.63-1.368 1.03-.336 2.16-.504 3.38-.504 1.42 0 2.68.204 3.78.612 1.13.408 2.08.96 2.85 1.656a6.41 6.41 0 0 1 1.72 2.412c.41.912.62 1.872.62 2.88v1.512h-3.03v-1.296Zm6.75-7.272h5.76l3.38 23.904h.43l3.39-23.904h5.76V371h-2.81v-23.904h-.43L1666.1 371h-5.47l-3.38-23.904h-.44V371h-2.8v-25.2Zm36.8 18.936h-10.8l-1.84 6.264h-3.24l7.63-25.2h5.69l7.63 25.2h-3.24l-1.83-6.264Zm-5.62-17.64-4.35 14.832h9.14l-4.36-14.832h-.43Zm14.38-1.296h3.02v22.392h13.18V371h-16.2v-25.2Zm22.04 0h3.02v22.392h13.18V371h-16.2v-25.2Zm52.11 22.896c1.04 0 1.91-.168 2.63-.504.75-.36 1.35-.828 1.8-1.404.48-.6.83-1.272 1.05-2.016a8.04 8.04 0 0 0 .36-2.412v-.432h3.02v.432c0 1.272-.19 2.472-.58 3.6a8.452 8.452 0 0 1-1.69 2.916c-.74.816-1.67 1.464-2.77 1.944-1.1.456-2.38.684-3.82.684-2.78 0-4.95-.876-6.51-2.628-1.56-1.752-2.34-4.308-2.34-7.668v-5.616c0-3.264.78-5.796 2.34-7.596 1.56-1.8 3.73-2.7 6.51-2.7 1.44 0 2.72.24 3.82.72 1.1.456 2.03 1.104 2.77 1.944.75.816 1.31 1.788 1.69 2.916.39 1.104.58 2.292.58 3.564v.432h-3.02v-.432a9.038 9.038 0 0 0-.4-2.376c-.22-.768-.56-1.44-1.04-2.016a4.686 4.686 0 0 0-1.77-1.404c-.72-.36-1.59-.54-2.63-.54-1.94 0-3.4.708-4.39 2.124-.96 1.416-1.44 3.276-1.44 5.58v5.184c0 2.472.48 4.38 1.44 5.724.99 1.32 2.45 1.98 4.39 1.98Zm27.3-3.96h-10.8l-1.83 6.264h-3.24l7.63-25.2h5.69l7.63 25.2h-3.24l-1.84-6.264Zm-5.61-17.64-4.36 14.832h9.15l-4.36-14.832h-.43Zm17.32 13.536V371h-3.02v-25.2h9c1.3 0 2.42.192 3.38.576.96.36 1.76.852 2.38 1.476a5.783 5.783 0 0 1 1.44 2.196c.34.816.5 1.68.5 2.592v1.08a6.93 6.93 0 0 1-.5 2.628c-.31.84-.79 1.584-1.44 2.232-.65.624-1.45 1.128-2.41 1.512-.96.36-2.08.54-3.35.54h-5.98Zm0-2.808h5.62c3.36 0 5.04-1.44 5.04-4.32v-.648c0-1.272-.42-2.292-1.26-3.06-.82-.792-2.08-1.188-3.78-1.188h-5.62v9.216ZM1319.46 738.8h3.02v22.392h13.18V764h-16.2v-25.2Zm21.94 0h15.98v2.808h-6.48v19.584h6.48V764h-15.98v-2.808h6.48v-19.584h-6.48V738.8Zm27.62 13.104h11.23V764h-2.81v-3.024h-.43c-.41 1.056-1.13 1.908-2.16 2.556-1.03.648-2.23.972-3.6.972-2.71 0-4.85-.876-6.41-2.628-1.53-1.752-2.3-4.308-2.3-7.668v-5.616c0-3.264.78-5.796 2.34-7.596 1.56-1.8 3.73-2.7 6.51-2.7 1.44 0 2.72.24 3.82.72 1.1.456 2.03 1.104 2.77 1.944.75.816 1.31 1.788 1.69 2.916.39 1.104.58 2.292.58 3.564v.432h-3.02v-.432a7.92 7.92 0 0 0-.36-2.376 5.452 5.452 0 0 0-1.05-2.016c-.45-.6-1.05-1.068-1.8-1.404-.72-.36-1.59-.54-2.63-.54-1.94 0-3.4.708-4.39 2.124-.96 1.416-1.44 3.276-1.44 5.58v5.184c0 2.472.48 4.38 1.44 5.724.99 1.32 2.47 1.98 4.47 1.98 1.8 0 3.2-.576 4.21-1.728 1.03-1.152 1.55-2.76 1.55-4.824v-.432h-8.21v-2.808Zm29.85 5.832h-10.8l-1.83 6.264H1383l7.63-25.2h5.69l7.63 25.2h-3.24l-1.84-6.264Zm-5.61-17.64-4.36 14.832h9.15l-4.36-14.832h-.43Zm13.4-1.296h17.71v2.808h-7.34V764H1414v-22.392h-7.34V738.8Zm25.28 0v16.704c0 2.04.47 3.588 1.41 4.644.96 1.032 2.36 1.548 4.21 1.548s3.24-.516 4.17-1.548c.96-1.056 1.44-2.604 1.44-4.644V738.8h3.03v16.704c0 2.928-.77 5.16-2.31 6.696-1.53 1.536-3.64 2.304-6.33 2.304s-4.8-.768-6.34-2.304c-1.53-1.536-2.3-3.768-2.3-6.696V738.8h3.02Zm35.55 25.2h-3.03v-8.424c0-.624-.14-1.104-.43-1.44-.29-.336-.79-.504-1.51-.504h-7.85V764h-3.02v-25.2h9c1.29 0 2.42.192 3.38.576.96.36 1.75.852 2.38 1.476a6.027 6.027 0 0 1 1.44 2.196c.33.816.5 1.68.5 2.592v1.08c0 .936-.26 1.872-.79 2.808-.51.936-1.3 1.656-2.38 2.16v.432c.72.12 1.29.408 1.69.864.41.456.62 1.104.62 1.944V764Zm-12.82-13.176h5.62c1.7 0 2.96-.36 3.78-1.08.84-.744 1.26-1.824 1.26-3.24v-.648c0-1.272-.42-2.292-1.26-3.06-.82-.792-2.08-1.188-3.78-1.188h-5.62v9.216Zm19.34-12.024h15.27v2.808h-12.24v8.352h12.02v2.808h-12.02v8.424h12.45V764h-15.48v-25.2Z" fill="#FF6D7F"/></g><defs><clipPath id="a"><path fill="#fff" d="M0 0h1920v1080H0z"/></clipPath></defs></svg>