<svg width="1920" height="1080" fill="none" xmlns="http://www.w3.org/2000/svg"><g clip-path="url(#a)"><path fill="#D2E3FC" d="M50 767h1820v10H50zM50 348h1820v10H50zM50 205h1820v10H50zM50 162h1820v10H50zM50 944h1820v10H50z"/><ellipse cx="293.923" cy="559.325" rx="124.268" ry="216.118" fill="#D2E3FC"/><path d="M260.609 785.016c-42.217 0-79.091-6.68-110.62-20.04-31.53-13.36-56.113-36.072-73.748-68.136-17.635-32.598-26.453-77.221-26.453-133.867 0-58.25 9.353-103.674 28.056-136.272 18.705-33.133 43.821-56.647 75.351-70.541 31.53-13.894 66.8-20.842 105.811-20.842 43.821 0 78.29 4.276 103.406 12.826 25.117 8.55 43.02 19.506 53.708 32.866 10.688 12.825 16.032 26.185 16.032 40.08 0 10.688-2.94 22.444-8.818 35.27-5.878 12.826-17.902 23.781-36.072 32.866-18.17 8.55-45.691 12.825-82.565 12.825 0-19.773-1.336-37.942-4.008-54.509-2.137-17.1-6.145-30.728-12.024-40.881-5.878-10.688-13.894-16.032-24.048-16.032-11.757 0-21.91 5.077-30.46 15.23-8.551 10.154-15.231 27.789-20.04 52.906-4.81 24.582-7.215 59.051-7.215 103.406 0 34.736 2.672 63.861 8.016 87.375 5.344 22.979 13.627 40.347 24.85 52.104 11.222 11.756 25.651 17.635 43.286 17.635 20.307 0 38.477-3.207 54.509-9.619 16.566-6.413 30.728-14.964 42.485-25.652 11.756-11.222 20.574-23.246 26.452-36.072 8.551 4.276 14.429 10.421 17.636 18.437 3.74 7.482 5.611 14.963 5.611 22.445 0 13.894-5.879 28.323-17.635 43.286-11.223 14.964-29.125 27.522-53.708 37.676-24.582 10.153-57.18 15.23-97.795 15.23Zm214.616 116.232c28.323 0 52.104-2.939 71.343-8.818 19.772-5.344 36.072-13.36 48.897-24.048 13.36-10.153 24.048-22.177 32.064-36.072 8.551-13.894 16.032-29.124 22.445-45.691L508.892 431.51c-3.74-10.688-7.748-18.436-12.024-23.246-4.275-4.81-9.352-8.016-15.23-9.619-5.344-1.603-12.024-2.405-20.04-2.405h-4.008v-48.898h258.917v48.898h-4.008c-17.101 0-29.125 2.138-36.072 6.413-6.947 4.275-10.421 10.955-10.421 20.04 0 5.344.802 10.955 2.405 16.833a224.03 224.03 0 0 0 5.611 17.636l42.485 125.851a363.62 363.62 0 0 1 7.214 22.445 433.957 433.957 0 0 1 5.611 21.643c1.604 6.947 2.672 13.627 3.207 20.04 1.068 5.878 1.87 11.222 2.405 16.032 1.603-11.757 3.206-21.911 4.809-30.461 2.138-8.55 4.275-15.765 6.413-21.643l48.096-145.09c1.603-4.275 3.473-11.222 5.611-20.841 2.138-9.62 3.207-17.101 3.207-22.445 0-10.154-3.474-16.834-10.421-20.04-6.948-3.741-18.17-5.879-33.667-6.413h-4.008v-48.898h177.153v48.898h-3.206c-9.62.534-18.17 2.939-25.652 7.214-7.481 3.741-14.161 9.62-20.04 17.636-5.344 8.016-10.42 18.169-15.23 30.46L746.967 774.595c-13.36 35.271-26.185 64.395-38.476 87.375-12.292 23.513-26.987 41.95-44.088 55.31-17.101 13.36-39.279 22.712-66.533 28.056-26.72 5.878-61.456 8.818-104.208 8.818h-18.437v-52.906ZM997.762 431.51c-3.741-9.619-8.016-16.833-12.826-21.643-4.275-5.344-10.153-8.817-17.635-10.421-7.482-2.137-17.368-3.206-29.659-3.206v-48.898h275.748v48.898h-28.05c-11.76 0-20.04 1.87-24.85 5.611-4.81 3.741-7.22 9.352-7.22 16.834 0 5.878.8 11.757 2.41 17.635 1.6 5.344 3.2 10.421 4.81 15.23l51.3 151.503c3.74 9.619 6.68 18.704 8.82 27.254a567.222 567.222 0 0 1 7.21 23.247c2.14 7.481 3.74 15.497 4.81 24.048 1.6-6.948 2.94-13.36 4.01-19.239 1.6-6.413 3.2-12.558 4.81-18.437 1.6-5.878 3.2-11.222 4.81-16.032l51.3-165.129c2.67-7.482 4.54-14.162 5.61-20.04 1.6-6.413 2.41-13.36 2.41-20.842 0-5.344-2.41-10.153-7.22-14.429-4.81-4.809-13.36-7.214-25.65-7.214h-16.83v-48.898h179.56v48.898h-20.85c-6.41 0-12.29 1.603-17.63 4.81-4.81 3.206-9.62 8.817-14.43 16.833-4.28 8.016-8.82 19.239-13.63 33.667L1260.69 777h-137.88L997.762 431.51ZM1444.23 777v-48.898h23.25c4.81 0 11.22-1.068 19.24-3.206 8.01-2.138 15.23-6.68 21.64-13.627 6.41-6.947 9.62-17.368 9.62-31.263V413.875h-70.54v-66.533h70.54v-21.643c0-51.302 13.36-91.382 40.08-120.24 26.72-29.392 72.95-44.088 138.68-44.088 39.54 0 69.47 3.207 89.78 9.619 20.3 6.413 33.93 14.162 40.88 23.247 6.95 9.085 10.42 18.169 10.42 27.254 0 10.688-2.67 20.842-8.02 30.461-5.34 9.619-15.49 17.368-30.46 23.246-14.96 5.879-36.87 8.818-65.73 8.818 0-7.482-.8-16.566-2.4-27.254-1.07-11.223-3.48-21.109-7.22-29.66-3.74-9.084-9.35-13.627-16.83-13.627-10.15 0-18.44 6.413-24.85 19.239-5.88 12.291-8.82 36.606-8.82 72.945v41.683h109.02v66.533h-109.02v266.131c0 13.895 2.94 24.316 8.82 31.263 5.88 6.947 12.82 11.489 20.84 13.627s14.96 3.206 20.84 3.206h43.29V777h-323.05Z" fill="#3C4043"/><mask id="b" style="mask-type:alpha" maskUnits="userSpaceOnUse" x="474" y="138" width="1397" height="763"><path d="m694.723 900.203 57.869-126.468s-16.235-117.853-27.058-164.754c-.983-2.947-88.39-263.965-88.39-263.965H474.796l219.927 555.187Z" fill="#5BB974"/><ellipse cx="1233.62" cy="663.097" rx="91.396" ry="90.795" fill="#C4C4C4"/><circle cx="1779.14" cy="230.526" r="91.85" fill="#C4C4C4"/><path fill="#C4C4C4" d="M1518.43 155.579h155.212V782.32H1518.43z"/></mask><g mask="url(#b)"><path d="M260.609 785.017c-42.217 0-79.091-6.68-110.621-20.04-31.529-13.36-56.112-36.072-73.747-68.136-17.635-32.598-26.453-77.221-26.453-133.867 0-58.25 9.353-103.674 28.056-136.272 18.705-33.133 43.821-56.647 75.351-70.541 31.529-13.894 66.8-20.842 105.811-20.842 43.821 0 78.29 4.276 103.406 12.826 25.117 8.55 43.02 19.506 53.708 32.866 10.688 12.825 16.032 26.185 16.032 40.08 0 10.688-2.94 22.444-8.818 35.27-5.878 12.826-17.902 23.781-36.072 32.866-18.17 8.55-45.691 12.825-82.565 12.825 0-19.773-1.336-37.942-4.008-54.509-2.137-17.1-6.145-30.728-12.024-40.881-5.878-10.688-13.894-16.032-24.048-16.032-11.757 0-21.91 5.077-30.461 15.23-8.55 10.154-15.23 27.789-20.04 52.906-4.809 24.582-7.214 59.051-7.214 103.406 0 34.736 2.672 63.861 8.016 87.375 5.344 22.979 13.627 40.347 24.85 52.104 11.222 11.756 25.651 17.635 43.286 17.635 20.307 0 38.477-3.207 54.509-9.619 16.566-6.413 30.728-14.964 42.485-25.652 11.756-11.222 20.574-23.246 26.452-36.072 8.551 4.276 14.429 10.421 17.636 18.437 3.74 7.482 5.611 14.963 5.611 22.445 0 13.894-5.879 28.323-17.635 43.286-11.223 14.964-29.125 27.522-53.708 37.676-24.582 10.153-57.18 15.23-97.795 15.23Zm214.616 116.232c28.323 0 52.104-2.939 71.342-8.818 19.773-5.344 36.072-13.36 48.898-24.048 13.36-10.153 24.048-22.177 32.064-36.072 8.55-13.894 16.032-29.124 22.445-45.691L508.892 431.511c-3.741-10.688-7.749-18.436-12.024-23.246-4.275-4.81-9.352-8.016-15.23-9.619-5.344-1.603-12.024-2.405-20.04-2.405h-4.008v-48.898h258.917v48.898h-4.008c-17.101 0-29.125 2.138-36.072 6.413-6.948 4.275-10.421 10.955-10.421 20.04 0 5.344.801 10.955 2.405 16.833a224.03 224.03 0 0 0 5.611 17.636l42.485 125.851a364.3 364.3 0 0 1 7.214 22.445 433.957 433.957 0 0 1 5.611 21.643c1.603 6.947 2.672 13.627 3.207 20.04 1.068 5.878 1.87 11.222 2.404 16.032 1.604-11.757 3.207-21.911 4.81-30.461 2.138-8.55 4.275-15.765 6.413-21.643l48.096-145.09c1.603-4.275 3.473-11.222 5.611-20.841 2.138-9.62 3.206-17.101 3.206-22.445 0-10.154-3.473-16.834-10.42-20.04-6.948-3.741-18.17-5.879-33.668-6.413h-4.008v-48.898h177.154v48.898h-3.206c-9.62.534-18.17 2.939-25.652 7.214-7.481 3.741-14.161 9.62-20.04 17.636-5.344 8.016-10.42 18.169-15.23 30.46L746.967 774.596c-13.36 35.271-26.185 64.395-38.476 87.375-12.292 23.513-26.988 41.95-44.088 55.31-17.101 13.36-39.279 22.712-66.533 28.056-26.72 5.878-61.456 8.818-104.208 8.818h-18.437v-52.906Zm522.537-469.738c-3.741-9.619-8.016-16.833-12.826-21.643-4.275-5.344-10.153-8.817-17.635-10.421-7.482-2.137-17.368-3.206-29.659-3.206v-48.898h275.748v48.898h-28.05c-11.76 0-20.04 1.87-24.85 5.611-4.81 3.741-7.22 9.352-7.22 16.834 0 5.878.8 11.757 2.41 17.635 1.6 5.344 3.2 10.421 4.81 15.23l51.3 151.503c3.74 9.619 6.68 18.704 8.82 27.254a567.222 567.222 0 0 1 7.21 23.247c2.14 7.481 3.74 15.497 4.81 24.048 1.6-6.948 2.94-13.36 4.01-19.239 1.6-6.413 3.2-12.558 4.81-18.437 1.6-5.878 3.2-11.222 4.81-16.032l51.3-165.129c2.67-7.482 4.54-14.162 5.61-20.04 1.6-6.413 2.41-13.36 2.41-20.842 0-5.344-2.41-10.153-7.22-14.429-4.81-4.809-13.36-7.214-25.65-7.214h-16.83v-48.898h179.56v48.898h-20.85c-6.41 0-12.29 1.603-17.63 4.81-4.81 3.206-9.62 8.817-14.43 16.833-4.28 8.016-8.82 19.239-13.63 33.667l-108.21 325.45h-137.88l-125.048-345.49Zm446.468 345.49v-48.898h23.25c4.81 0 11.22-1.068 19.24-3.206 8.01-2.138 15.23-6.68 21.64-13.627 6.41-6.947 9.62-17.368 9.62-31.263V413.876h-70.54v-66.533h70.54V325.7c0-51.302 13.36-91.382 40.08-120.24 26.72-29.392 72.95-44.088 138.68-44.088 39.54 0 69.47 3.207 89.78 9.619 20.3 6.413 33.93 14.162 40.88 23.247 6.95 9.085 10.42 18.169 10.42 27.254 0 10.688-2.67 20.842-8.02 30.461-5.34 9.619-15.49 17.368-30.46 23.246-14.96 5.879-36.87 8.818-65.73 8.818 0-7.482-.8-16.566-2.4-27.254-1.07-11.223-3.48-21.109-7.22-29.66-3.74-9.084-9.35-13.627-16.83-13.627-10.15 0-18.44 6.413-24.85 19.239-5.88 12.291-8.82 36.606-8.82 72.945v41.683h109.02v66.533h-109.02v266.131c0 13.895 2.94 24.316 8.82 31.263 5.88 6.947 12.82 11.489 20.84 13.627s14.96 3.206 20.84 3.206h43.29v48.898h-323.05Z" fill="#1A73E8"/></g><circle cx="1233.02" cy="661.894" r="84.782" stroke="#1A73E8" stroke-width="12.026"/><circle cx="1778.39" cy="229.568" r="85.383" stroke="#1A73E8" stroke-width="12.026"/><path d="M771.628 809.8h8.28c3.12 0 5.4.744 6.84 2.232 1.44 1.488 2.16 3.864 2.16 7.128v6.48c0 3.264-.72 5.64-2.16 7.128-1.44 1.488-3.72 2.232-6.84 2.232h-8.28v-2.844h2.16v-19.548h-2.16V809.8Zm7.848 22.392c1.104 0 2.052-.108 2.844-.324.816-.216 1.488-.576 2.016-1.08.528-.528.912-1.224 1.152-2.088.264-.864.396-1.956.396-3.276v-6.048c0-1.32-.132-2.412-.396-3.276-.24-.864-.624-1.548-1.152-2.052-.528-.528-1.2-.9-2.016-1.116-.792-.216-1.74-.324-2.844-.324h-2.664v19.584h2.664Zm14.591-22.392h15.984v2.808h-6.48v19.584h6.48V835h-15.984v-2.808h6.48v-19.584h-6.48V809.8Zm35.435 18.936h-10.8L816.866 835h-3.24l7.632-25.2h5.688l7.632 25.2h-3.24l-1.836-6.264Zm-5.616-17.64-4.356 14.832h9.144l-4.356-14.832h-.432Zm19.847 11.808h11.232V835h-2.808v-3.024h-.432c-.408 1.056-1.128 1.908-2.16 2.556-1.032.648-2.232.972-3.6.972-2.712 0-4.848-.876-6.408-2.628-1.536-1.752-2.304-4.308-2.304-7.668v-5.616c0-3.264.78-5.796 2.34-7.596 1.56-1.8 3.732-2.7 6.516-2.7 1.44 0 2.712.24 3.816.72 1.104.456 2.028 1.104 2.772 1.944.744.816 1.308 1.788 1.692 2.916.384 1.104.576 2.292.576 3.564v.432h-3.024v-.432a7.92 7.92 0 0 0-.36-2.376 5.383 5.383 0 0 0-1.044-2.016c-.456-.6-1.056-1.068-1.8-1.404-.72-.36-1.596-.54-2.628-.54-1.944 0-3.408.708-4.392 2.124-.96 1.416-1.44 3.276-1.44 5.58v5.184c0 2.472.48 4.38 1.44 5.724.984 1.32 2.472 1.98 4.464 1.98 1.8 0 3.204-.576 4.212-1.728 1.032-1.152 1.548-2.76 1.548-4.824v-.432h-8.208v-2.808Zm15.599-3.312c0-3.264.78-5.796 2.34-7.596 1.56-1.8 3.732-2.7 6.516-2.7s4.956.9 6.516 2.7c1.56 1.8 2.34 4.332 2.34 7.596v5.616c0 3.36-.78 5.916-2.34 7.668-1.56 1.752-3.732 2.628-6.516 2.628s-4.956-.876-6.516-2.628c-1.56-1.752-2.34-4.308-2.34-7.668v-5.616Zm8.856 13.104c1.944 0 3.396-.66 4.356-1.98.984-1.344 1.476-3.252 1.476-5.724v-5.184c0-2.304-.492-4.164-1.476-5.58-.96-1.416-2.412-2.124-4.356-2.124s-3.408.708-4.392 2.124c-.96 1.416-1.44 3.276-1.44 5.58v5.184c0 2.472.48 4.38 1.44 5.724.984 1.32 2.448 1.98 4.392 1.98Zm26.975 1.008h.432V809.8h3.024V835h-6.048l-7.272-23.904h-.432V835h-3.024v-25.2h6.048l7.272 23.904Zm22.511-4.968h-10.8L905.038 835h-3.24l7.632-25.2h5.688l7.632 25.2h-3.24l-1.836-6.264Zm-5.616-17.64-4.356 14.832h9.144l-4.356-14.832h-.432Zm14.375-1.296h3.024v22.392h13.176V835h-16.2v-25.2Zm-140.477 55.272c0-.816-.168-1.536-.504-2.16a4.27 4.27 0 0 0-1.296-1.548 6.154 6.154 0 0 0-1.908-.936 7.85 7.85 0 0 0-2.268-.324c-.696 0-1.356.096-1.98.288a5.694 5.694 0 0 0-1.692.756c-.48.336-.864.756-1.152 1.26-.288.48-.432 1.044-.432 1.692v.216c0 .696.144 1.296.432 1.8.288.48.708.9 1.26 1.26.576.336 1.284.624 2.124.864.84.216 1.824.408 2.952.576 2.64.408 4.584 1.188 5.832 2.34 1.248 1.128 1.872 2.652 1.872 4.572v.432c0 1.08-.192 2.076-.576 2.988a6.023 6.023 0 0 1-1.656 2.304c-.72.648-1.62 1.152-2.7 1.512-1.08.36-2.328.54-3.744.54-1.608 0-3.036-.228-4.284-.684-1.224-.48-2.256-1.128-3.096-1.944a8.68 8.68 0 0 1-1.872-2.916c-.432-1.128-.648-2.352-.648-3.672v-1.08h3.024v.864c0 2.208.6 3.864 1.8 4.968 1.224 1.104 2.916 1.656 5.076 1.656 1.872 0 3.276-.408 4.212-1.224.96-.84 1.44-1.944 1.44-3.312v-.216c0-1.32-.492-2.328-1.476-3.024-.96-.696-2.532-1.2-4.716-1.512-1.272-.168-2.424-.42-3.456-.756-1.008-.36-1.872-.816-2.592-1.368a5.91 5.91 0 0 1-1.656-2.052c-.384-.792-.576-1.728-.576-2.808v-.432c0-.984.204-1.884.612-2.7a6.563 6.563 0 0 1 1.692-2.124c.744-.6 1.62-1.056 2.628-1.368 1.032-.336 2.16-.504 3.384-.504 1.416 0 2.676.204 3.78.612 1.128.408 2.076.96 2.844 1.656a6.386 6.386 0 0 1 1.728 2.412c.408.912.612 1.872.612 2.88v1.512h-3.024v-1.296Zm7.247-7.272h17.712v2.808h-7.344V883h-3.024v-22.392h-7.344V857.8Zm38.783 25.2h-3.024v-8.424c0-.624-.144-1.104-.432-1.44-.288-.336-.792-.504-1.512-.504h-7.848V883h-3.024v-25.2h9c1.296 0 2.424.192 3.384.576.96.36 1.752.852 2.376 1.476a5.83 5.83 0 0 1 1.44 2.196 6.74 6.74 0 0 1 .504 2.592v1.08c0 .936-.264 1.872-.792 2.808-.504.936-1.296 1.656-2.376 2.16v.432c.72.12 1.284.408 1.692.864.408.456.612 1.104.612 1.944V883Zm-12.816-13.176h5.616c1.704 0 2.964-.36 3.78-1.08.84-.744 1.26-1.824 1.26-3.24v-.648c0-1.272-.42-2.292-1.26-3.06-.816-.792-2.076-1.188-3.78-1.188h-5.616v9.216Zm18.119-2.232c0-3.264.78-5.796 2.34-7.596 1.56-1.8 3.732-2.7 6.516-2.7s4.956.9 6.516 2.7c1.56 1.8 2.34 4.332 2.34 7.596v5.616c0 3.36-.78 5.916-2.34 7.668-1.56 1.752-3.732 2.628-6.516 2.628s-4.956-.876-6.516-2.628c-1.56-1.752-2.34-4.308-2.34-7.668v-5.616Zm8.856 13.104c1.944 0 3.396-.66 4.356-1.98.984-1.344 1.476-3.252 1.476-5.724v-5.184c0-2.304-.492-4.164-1.476-5.58-.96-1.416-2.412-2.124-4.356-2.124s-3.408.708-4.392 2.124c-.96 1.416-1.44 3.276-1.44 5.58v5.184c0 2.472.48 4.38 1.44 5.724.984 1.32 2.448 1.98 4.392 1.98ZM863.4 883h-3.024v-25.2h3.024v11.16h.828l9.684-11.16h3.744v.216l-10.44 12.168v.432l10.872 12.168V883h-3.816l-10.044-11.232h-.828V883Zm19.199-25.2h15.264v2.808h-12.24v8.352h12.024v2.808h-12.024v8.424h12.456V883h-15.48v-25.2ZM1111.35 809.8h15.99v2.808h-6.48v19.584h6.48V835h-15.99v-2.808h6.48v-19.584h-6.48V809.8Zm34.97 23.904h.43V809.8h3.03V835h-6.05l-7.27-23.904h-.44V835H1133v-25.2h6.05l7.27 23.904Zm12.32 1.296h-3.02v-25.2h3.02v11.16h.83l9.68-11.16h3.75v.216l-10.44 12.168v.432l10.87 12.168V835h-3.82l-10.04-11.232h-.83V835Zm40.02-25.2h17.71v2.808h-7.34V835H1206v-22.392h-7.34V809.8Zm38.78 25.2h-3.02v-8.424c0-.624-.15-1.104-.43-1.44-.29-.336-.8-.504-1.52-.504h-7.84V835h-3.03v-25.2h9c1.3 0 2.43.192 3.39.576.96.36 1.75.852 2.37 1.476a5.783 5.783 0 0 1 1.44 2.196c.34.816.51 1.68.51 2.592v1.08c0 .936-.27 1.872-.8 2.808-.5.936-1.29 1.656-2.37 2.16v.432c.72.12 1.28.408 1.69.864.41.456.61 1.104.61 1.944V835Zm-12.81-13.176h5.61c1.71 0 2.97-.36 3.78-1.08.84-.744 1.26-1.824 1.26-3.24v-.648c0-1.272-.42-2.292-1.26-3.06-.81-.792-2.07-1.188-3.78-1.188h-5.61v9.216Zm32.37 6.912h-10.8l-1.83 6.264h-3.24l7.63-25.2h5.69l7.63 25.2h-3.24l-1.84-6.264Zm-5.61-17.64-4.36 14.832h9.14l-4.35-14.832h-.43Zm17.32 13.536V835h-3.02v-25.2h9c1.29 0 2.42.192 3.38.576.96.36 1.75.852 2.38 1.476a5.783 5.783 0 0 1 1.44 2.196c.33.816.5 1.68.5 2.592v1.08c0 .912-.17 1.788-.5 2.628-.31.84-.79 1.584-1.44 2.232-.65.624-1.45 1.128-2.41 1.512-.96.36-2.08.54-3.35.54h-5.98Zm0-2.808h5.62c3.36 0 5.04-1.44 5.04-4.32v-.648c0-1.272-.42-2.292-1.26-3.06-.82-.792-2.08-1.188-3.78-1.188h-5.62v9.216ZM254.16 583.696c1.032 0 1.908-.168 2.628-.504.744-.36 1.344-.828 1.8-1.404a5.77 5.77 0 0 0 1.044-2.016 8.04 8.04 0 0 0 .36-2.412v-.432h3.024v.432c0 1.272-.192 2.472-.576 3.6a8.618 8.618 0 0 1-1.692 2.916c-.744.816-1.668 1.464-2.772 1.944-1.104.456-2.376.684-3.816.684-2.784 0-4.956-.876-6.516-2.628-1.56-1.752-2.34-4.308-2.34-7.668v-5.616c0-3.264.78-5.796 2.34-7.596 1.56-1.8 3.732-2.7 6.516-2.7 1.44 0 2.712.24 3.816.72 1.104.456 2.028 1.104 2.772 1.944.744.816 1.308 1.788 1.692 2.916.384 1.104.576 2.292.576 3.564v.432h-3.024v-.432a8.795 8.795 0 0 0-.396-2.376 5.383 5.383 0 0 0-1.044-2.016 4.636 4.636 0 0 0-1.764-1.404c-.72-.36-1.596-.54-2.628-.54-1.944 0-3.408.708-4.392 2.124-.96 1.416-1.44 3.276-1.44 5.58v5.184c0 2.472.48 4.38 1.44 5.724.984 1.32 2.448 1.98 4.392 1.98Zm13.043-13.104c0-3.264.78-5.796 2.34-7.596 1.56-1.8 3.732-2.7 6.516-2.7s4.956.9 6.516 2.7c1.56 1.8 2.34 4.332 2.34 7.596v5.616c0 3.36-.78 5.916-2.34 7.668-1.56 1.752-3.732 2.628-6.516 2.628s-4.956-.876-6.516-2.628c-1.56-1.752-2.34-4.308-2.34-7.668v-5.616Zm8.856 13.104c1.944 0 3.396-.66 4.356-1.98.984-1.344 1.476-3.252 1.476-5.724v-5.184c0-2.304-.492-4.164-1.476-5.58-.96-1.416-2.412-2.124-4.356-2.124s-3.408.708-4.392 2.124c-.96 1.416-1.44 3.276-1.44 5.58v5.184c0 2.472.48 4.38 1.44 5.724.984 1.32 2.448 1.98 4.392 1.98Zm16.427-22.896v16.704c0 2.04.468 3.588 1.404 4.644.96 1.032 2.364 1.548 4.212 1.548 1.848 0 3.24-.516 4.176-1.548.96-1.056 1.44-2.604 1.44-4.644V560.8h3.024v16.704c0 2.928-.768 5.16-2.304 6.696-1.536 1.536-3.648 2.304-6.336 2.304s-4.8-.768-6.336-2.304c-1.536-1.536-2.304-3.768-2.304-6.696V560.8h3.024Zm32.591 23.904h.432V560.8h3.024V586h-6.048l-7.272-23.904h-.432V586h-3.024v-25.2h6.048l7.272 23.904Zm8.255-23.904h17.712v2.808H343.7V586h-3.024v-22.392h-7.344V560.8Zm23.267 0h15.264v2.808h-12.24v8.352h12.024v2.808h-12.024v8.424h12.456V586h-15.48v-25.2Zm37.559 25.2h-3.024v-8.424c0-.624-.144-1.104-.432-1.44-.288-.336-.792-.504-1.512-.504h-7.848V586h-3.024v-25.2h9c1.296 0 2.424.192 3.384.576.96.36 1.752.852 2.376 1.476a5.83 5.83 0 0 1 1.44 2.196 6.74 6.74 0 0 1 .504 2.592v1.08c0 .936-.264 1.872-.792 2.808-.504.936-1.296 1.656-2.376 2.16v.432c.72.12 1.284.408 1.692.864.408.456.612 1.104.612 1.944V586Zm-12.816-13.176h5.616c1.704 0 2.964-.36 3.78-1.08.84-.744 1.26-1.824 1.26-3.24v-.648c0-1.272-.42-2.292-1.26-3.06-.816-.792-2.076-1.188-3.78-1.188h-5.616v9.216ZM1570.87 817.072c0-.816-.17-1.536-.5-2.16a4.382 4.382 0 0 0-1.3-1.548 6.143 6.143 0 0 0-1.91-.936 7.825 7.825 0 0 0-2.27-.324c-.69 0-1.35.096-1.98.288-.62.168-1.18.42-1.69.756-.48.336-.86.756-1.15 1.26-.29.48-.43 1.044-.43 1.692v.216c0 .696.14 1.296.43 1.8.29.48.71.9 1.26 1.26.58.336 1.28.624 2.12.864.84.216 1.83.408 2.96.576 2.64.408 4.58 1.188 5.83 2.34 1.25 1.128 1.87 2.652 1.87 4.572v.432c0 1.08-.19 2.076-.58 2.988a6.05 6.05 0 0 1-1.65 2.304c-.72.648-1.62 1.152-2.7 1.512-1.08.36-2.33.54-3.75.54-1.6 0-3.03-.228-4.28-.684-1.22-.48-2.26-1.128-3.1-1.944a8.737 8.737 0 0 1-1.87-2.916c-.43-1.128-.65-2.352-.65-3.672v-1.08h3.03v.864c0 2.208.6 3.864 1.8 4.968 1.22 1.104 2.91 1.656 5.07 1.656 1.88 0 3.28-.408 4.22-1.224.96-.84 1.44-1.944 1.44-3.312v-.216c0-1.32-.5-2.328-1.48-3.024-.96-.696-2.53-1.2-4.72-1.512-1.27-.168-2.42-.42-3.45-.756-1.01-.36-1.87-.816-2.59-1.368a5.877 5.877 0 0 1-1.66-2.052c-.38-.792-.58-1.728-.58-2.808v-.432c0-.984.21-1.884.62-2.7.4-.816.97-1.524 1.69-2.124.74-.6 1.62-1.056 2.63-1.368 1.03-.336 2.16-.504 3.38-.504 1.42 0 2.68.204 3.78.612 1.13.408 2.08.96 2.84 1.656a6.327 6.327 0 0 1 1.73 2.412c.41.912.61 1.872.61 2.88v1.512h-3.02v-1.296Zm7.25-7.272h17.71v2.808h-7.34V835h-3.03v-22.392h-7.34V809.8Zm23.26 0h15.27v2.808h-12.24v8.352h12.02v2.808h-12.02v8.424h12.45V835h-15.48v-25.2Zm20.32 0h5.76l3.38 23.904h.43l3.39-23.904h5.76V835h-2.81v-23.904h-.43L1633.79 835h-5.47l-3.38-23.904h-.43V835h-2.81v-25.2ZM1696.82 93.8h17.71v2.808h-7.35V119h-3.02V96.608h-7.34V93.8Zm23.26 0h15.27v2.808h-12.24v8.352h12.02v2.808h-12.02v8.424h12.45V119h-15.48V93.8Zm37.56 25.2h-3.02v-8.424c0-.624-.15-1.104-.43-1.44-.29-.336-.8-.504-1.52-.504h-7.84V119h-3.03V93.8h9c1.3 0 2.43.192 3.39.576.96.36 1.75.852 2.37 1.476a5.783 5.783 0 0 1 1.44 2.196c.34.816.51 1.68.51 2.592v1.08c0 .936-.27 1.872-.8 2.808-.5.936-1.29 1.656-2.37 2.16v.432c.72.12 1.28.408 1.69.864.41.456.61 1.104.61 1.944V119Zm-12.81-13.176h5.61c1.71 0 2.97-.36 3.78-1.08.84-.744 1.26-1.824 1.26-3.24v-.648c0-1.272-.42-2.292-1.26-3.06-.81-.792-2.07-1.188-3.78-1.188h-5.61v9.216Zm17.61-12.024h5.76l3.39 23.904h.43l3.38-23.904h5.76V119h-2.81V95.096h-.43L1774.54 119h-5.47l-3.39-23.904h-.43V119h-2.81V93.8Zm23.41 0h15.99v2.808h-6.48v19.584h6.48V119h-15.99v-2.808h6.48V96.608h-6.48V93.8Zm34.97 23.904h.43V93.8h3.03V119h-6.05l-7.27-23.904h-.44V119h-3.02V93.8h6.05l7.27 23.904Zm22.51-4.968h-10.8l-1.84 6.264h-3.24l7.64-25.2h5.68l7.64 25.2h-3.24l-1.84-6.264Zm-5.62-17.64-4.35 14.832h9.14l-4.35-14.832h-.44Zm14.38-1.296h3.02v22.392h13.18V119h-16.2V93.8Z" fill="#FF6D7F"/></g><defs><clipPath id="a"><path fill="#fff" d="M0 0h1920v1080H0z"/></clipPath></defs></svg>