<svg width="1920" height="1080" fill="none" xmlns="http://www.w3.org/2000/svg"><path d="M389.487 378.812V375.5H356.8v3.312h14.531L371.3 421h3.656v-42.188h14.531ZM432.138 421v-45.5h-3.532v20.406H407.2V375.5h-3.5V421h3.5v-21.812h21.406V421h3.532Zm41.493-21.812v-3.282h-20.093v-17.094h23V375.5h-26.719V421h26.875v-3.312h-23.156v-18.5h20.093Zm69.613-23.688h-4.813V421h3.656v-20.156l-.25-19.563 9.313 26.031h2.437l10.094-26.5-.25 20.032V421h3.656v-45.5h-4.906l-9.781 25.656-9.156-25.656Zm64.9 23.688v-3.282H588.05v-17.094h23V375.5h-26.719V421h26.875v-3.312H588.05v-18.5h20.094ZM628.45 421h10.969c1.979-.042 3.823-.323 5.531-.844 1.708-.521 3.25-1.25 4.625-2.187a17.127 17.127 0 0 0 3.594-3.25 19.319 19.319 0 0 0 2.656-4.157 22.964 22.964 0 0 0 1.594-4.781c.375-1.708.562-3.479.562-5.312v-4.438a26.867 26.867 0 0 0-.593-5.406 21.43 21.43 0 0 0-1.657-4.844 16.97 16.97 0 0 0-2.937-4.406 16.455 16.455 0 0 0-4.125-3.344 17.52 17.52 0 0 0-4.281-1.812c-1.542-.459-3.198-.698-4.969-.719H628.45V421Zm3.75-42.281h7.219a15.37 15.37 0 0 1 3.75.5c1.166.291 2.229.708 3.187 1.25a12.25 12.25 0 0 1 3.719 3.062 16.567 16.567 0 0 1 2.531 4.157c.521 1.25.917 2.572 1.188 3.968.291 1.396.448 2.823.469 4.282v4.531a23.704 23.704 0 0 1-.438 4.25 19 19 0 0 1-1.125 3.875 15.847 15.847 0 0 1-2.094 3.718 14 14 0 0 1-2.968 2.907c-1.084.791-2.313 1.416-3.688 1.875-1.375.437-2.885.666-4.531.687H632.2v-39.062Zm41.556-3.219v3.375h11.063v38.781h-11.063V421H700.1v-3.344h-11.406v-38.781H700.1V375.5h-26.344Zm72.275 0h-3.593l-.063 30.812a15.463 15.463 0 0 1-.781 4.5c-.459 1.438-1.136 2.709-2.032 3.813a9.908 9.908 0 0 1-3.312 2.687c-1.292.667-2.781 1-4.469 1-1.687 0-3.187-.333-4.5-1a9.766 9.766 0 0 1-3.281-2.656 11.686 11.686 0 0 1-2.094-3.812 15.09 15.09 0 0 1-.75-4.532l-.062-30.812h-3.563l-.031 30.812c.021 2.084.365 4.053 1.031 5.907.688 1.854 1.646 3.469 2.875 4.843a13.186 13.186 0 0 0 4.469 3.344c1.75.813 3.719 1.219 5.906 1.219 2.167 0 4.125-.406 5.875-1.219a14.107 14.107 0 0 0 4.5-3.344c1.229-1.395 2.188-3.01 2.875-4.843.688-1.854 1.031-3.823 1.031-5.907l-.031-30.812Zm21.4 0h-4.812V421h3.656v-20.156l-.25-19.563 9.313 26.031h2.437l10.094-26.5-.25 20.032V421h3.656v-45.5h-4.906l-9.781 25.656-9.157-25.656Zm85.675 0v3.375h11.063v38.781h-11.063V421h26.344v-3.344h-11.406v-38.781h11.406V375.5h-26.344Zm69.744 34.281c0 1.5-.313 2.792-.938 3.875a8.027 8.027 0 0 1-2.468 2.625c-1 .688-2.146 1.198-3.438 1.531-1.291.334-2.604.5-3.937.5-1.604 0-3.104-.208-4.5-.624a11.21 11.21 0 0 1-3.657-1.938 10.237 10.237 0 0 1-2.625-3.094c-.687-1.25-1.125-2.698-1.312-4.344h-3.781c.083 1.959.51 3.719 1.281 5.282a12.513 12.513 0 0 0 3.156 4c1.479 1.333 3.219 2.344 5.219 3.031 2.021.667 4.094 1 6.219 1 1.791 0 3.562-.25 5.312-.75 1.75-.5 3.323-1.24 4.719-2.219a11.577 11.577 0 0 0 3.344-3.687c.854-1.5 1.281-3.25 1.281-5.25s-.427-3.74-1.281-5.219a12.127 12.127 0 0 0-3.25-3.781 20.591 20.591 0 0 0-4.594-2.688 53.689 53.689 0 0 0-5-1.843 68.257 68.257 0 0 1-3.813-1.25 17.566 17.566 0 0 1-3.625-1.876 9.708 9.708 0 0 1-2.718-2.656c-.688-1.041-1.042-2.323-1.063-3.844 0-1.416.302-2.645.906-3.687a8.615 8.615 0 0 1 2.438-2.625 10.86 10.86 0 0 1 3.344-1.531c1.25-.354 2.51-.531 3.781-.531 1.521 0 2.906.239 4.156.718 1.271.479 2.365 1.156 3.281 2.032a9.87 9.87 0 0 1 2.25 3.156c.563 1.208.928 2.552 1.094 4.031h3.813c-.063-2-.5-3.813-1.313-5.437-.791-1.646-1.844-3.042-3.156-4.188-1.333-1.146-2.875-2.031-4.625-2.656-1.729-.646-3.563-.969-5.5-.969-1.729 0-3.448.26-5.156.781-1.709.5-3.24 1.24-4.594 2.219-1.354 1-2.458 2.24-3.313 3.719-.833 1.458-1.25 3.135-1.25 5.031.021 2.063.48 3.802 1.375 5.219a13.164 13.164 0 0 0 3.469 3.656c1.292.938 2.74 1.74 4.344 2.406a56.294 56.294 0 0 0 4.687 1.719c1.271.396 2.584.854 3.938 1.375a18.937 18.937 0 0 1 3.719 1.906 9.817 9.817 0 0 1 2.718 2.844c.73 1.104 1.084 2.448 1.063 4.031ZM47.523 428.875h-3.609V463h2.742v-15.117l-.187-14.672 6.984 19.523h1.828l7.57-19.875-.187 15.024V463h2.742v-34.125h-3.68l-7.335 19.242-6.868-19.242Zm51.98 19.313v-4.5a23.133 23.133 0 0 0-.328-3.54 20.567 20.567 0 0 0-.867-3.539 17.582 17.582 0 0 0-1.524-3.187c-.609-1-1.336-1.875-2.18-2.625a9.695 9.695 0 0 0-2.906-1.735c-1.093-.437-2.32-.656-3.68-.656-1.359 0-2.585.219-3.679.656a9.695 9.695 0 0 0-2.906 1.735 11.934 11.934 0 0 0-2.18 2.648c-.61.985-1.11 2.047-1.5 3.188a20.029 20.029 0 0 0-.914 3.515 25.19 25.19 0 0 0-.305 3.54v4.5a23.24 23.24 0 0 0 .328 3.562c.204 1.203.508 2.367.915 3.492.39 1.141.89 2.211 1.5 3.211.625.985 1.359 1.852 2.203 2.602a9.837 9.837 0 0 0 2.906 1.781c1.094.422 2.32.633 3.68.633 1.343 0 2.562-.211 3.656-.633a9.837 9.837 0 0 0 2.906-1.781c.844-.75 1.57-1.617 2.18-2.602.61-1 1.11-2.062 1.5-3.187.39-1.141.68-2.313.867-3.516a23.24 23.24 0 0 0 .328-3.562Zm-2.766-4.547v4.547a26.081 26.081 0 0 1-.21 2.835c-.11.969-.305 1.922-.586 2.86-.282.953-.641 1.851-1.079 2.695a8.954 8.954 0 0 1-1.617 2.227 7.057 7.057 0 0 1-2.25 1.547c-.86.375-1.836.562-2.93.562-1.109 0-2.093-.187-2.953-.562a7.133 7.133 0 0 1-2.226-1.547 9.117 9.117 0 0 1-1.664-2.227 16.174 16.174 0 0 1-1.078-2.695 17.93 17.93 0 0 1-.61-2.86 26.107 26.107 0 0 1-.21-2.835v-4.547a25.28 25.28 0 0 1 .21-2.789c.125-.969.328-1.93.61-2.883.281-.938.64-1.828 1.078-2.672a9.042 9.042 0 0 1 1.64-2.25 7.547 7.547 0 0 1 2.227-1.5c.86-.391 1.836-.586 2.93-.586 1.093 0 2.07.187 2.93.562.859.375 1.609.883 2.25 1.524a8.81 8.81 0 0 1 1.617 2.25c.453.844.82 1.726 1.101 2.648.281.953.485 1.914.61 2.883.125.969.195 1.906.21 2.813Zm26.504 5.086L130.717 463h2.93l.023-.305-7.804-14.625a13.547 13.547 0 0 0 2.695-1.476 10 10 0 0 0 2.133-1.992 9.031 9.031 0 0 0 1.383-2.555c.343-.938.515-1.985.515-3.141 0-1.594-.289-3.008-.867-4.242a8.926 8.926 0 0 0-2.32-3.117c-1-.859-2.164-1.508-3.493-1.945a13.924 13.924 0 0 0-4.242-.727h-9.633V463h2.766v-14.273h8.438Zm-8.438-2.415v-15.023h6.867c1.141.016 2.203.195 3.188.539 1 .344 1.859.836 2.578 1.477a6.773 6.773 0 0 1 1.711 2.39c.422.938.633 2 .633 3.188 0 1.094-.196 2.094-.586 3a6.764 6.764 0 0 1-1.571 2.297 7.608 7.608 0 0 1-2.414 1.547c-.906.375-1.89.57-2.953.585h-7.453Zm48.652.329v-2.461h-15.071v-12.821h17.25v-2.484h-20.039V463h20.157v-2.484h-17.368v-13.875h15.071Zm71.404-15.282v-2.484h-24.515v2.484h10.898L221.219 463h2.742v-31.641h10.898ZM266.847 463v-34.125h-2.649v15.305h-16.054v-15.305h-2.625V463h2.625v-16.359h16.054V463h2.649Zm29.737-9.516 3.024 9.516h2.812l-10.992-34.125h-2.555L277.788 463h2.812l3.047-9.516h12.937Zm-12.164-2.531 5.719-17.859 5.672 17.859H284.42ZM334.08 463v-34.125h-2.813v28.664l-15.656-28.664h-2.789V463h2.789v-28.734L331.291 463h2.789Zm50.17-2.484v-31.641h-2.812V463h20.179v-2.484H384.25Zm30.183-31.641v2.531h8.297v29.086h-8.297V463h19.758v-2.508h-8.555v-29.086h8.555v-2.531h-19.758Zm41.034 17.25L467.819 463h3.422l-13.899-19.008 12.961-15.117h-3.515l-11.532 13.406-4.195 4.758v-18.164h-2.813V463h2.813v-12.258l4.406-4.617Zm44.269.516v-2.461h-15.07v-12.821h17.25v-2.484h-20.039V463h20.156v-2.484h-17.367v-13.875h15.07Zm19.027 13.875v-31.641h-2.813V463h20.18v-2.484h-17.367Zm39.721-13.078-9.023-18.563h-3.258l10.945 21.281.047 12.844h2.625l.024-12.844 10.968-21.281h-3.21l-9.118 18.563Zm279.378 69.374V513.5h-32.687v3.312h14.531L819.675 559h3.656v-42.188h14.531ZM880.513 559v-45.5h-3.532v20.406h-21.406V513.5h-3.5V559h3.5v-21.812h21.406V559h3.532Zm41.493-21.812v-3.282h-20.094v-17.094h23V513.5h-26.718V559h26.875v-3.312h-23.157v-18.5h20.094ZM632.919 801.5h-4.813V847h3.657v-20.156l-.25-19.563 9.312 26.031h2.438l10.093-26.5-.25 20.032V847h3.657v-45.5h-4.907l-9.781 25.656-9.156-25.656Zm109.737 23.688v-3.282h-20.094v-17.094h23V801.5h-26.718V847h26.875v-3.312h-23.157v-18.5h20.094Zm135.357 10.593c0 1.5-.313 2.792-.938 3.875a8.03 8.03 0 0 1-2.469 2.625c-1 .688-2.146 1.198-3.437 1.531-1.292.334-2.604.5-3.938.5-1.604 0-3.104-.208-4.5-.624a11.205 11.205 0 0 1-3.656-1.938 10.237 10.237 0 0 1-2.625-3.094c-.687-1.25-1.125-2.698-1.312-4.344h-3.782c.084 1.959.511 3.719 1.282 5.282a12.485 12.485 0 0 0 3.156 4c1.479 1.333 3.219 2.344 5.219 3.031 2.02.667 4.093 1 6.218 1 1.792 0 3.563-.25 5.313-.75 1.75-.5 3.323-1.24 4.719-2.219a11.574 11.574 0 0 0 3.343-3.687c.854-1.5 1.282-3.25 1.282-5.25s-.428-3.74-1.282-5.219a12.1 12.1 0 0 0-3.25-3.781 20.607 20.607 0 0 0-4.593-2.688 53.794 53.794 0 0 0-5-1.843 67.722 67.722 0 0 1-3.813-1.25 17.54 17.54 0 0 1-3.625-1.876 9.725 9.725 0 0 1-2.719-2.656c-.687-1.041-1.041-2.323-1.062-3.844 0-1.416.302-2.645.906-3.687a8.615 8.615 0 0 1 2.438-2.625c1-.688 2.114-1.198 3.343-1.531a13.82 13.82 0 0 1 3.782-.531c1.52 0 2.906.239 4.156.718 1.271.479 2.364 1.156 3.281 2.032a9.87 9.87 0 0 1 2.25 3.156c.563 1.208.927 2.552 1.094 4.031h3.812c-.062-2-.5-3.813-1.312-5.437-.792-1.646-1.844-3.042-3.156-4.188-1.334-1.146-2.875-2.031-4.625-2.656-1.73-.646-3.563-.969-5.5-.969-1.73 0-3.448.26-5.157.781-1.708.5-3.239 1.24-4.593 2.219-1.355 1-2.459 2.24-3.313 3.719-.833 1.458-1.25 3.135-1.25 5.031.021 2.063.479 3.802 1.375 5.219a13.15 13.15 0 0 0 3.469 3.656 21.135 21.135 0 0 0 4.344 2.406 56.164 56.164 0 0 0 4.687 1.719c1.271.396 2.583.854 3.938 1.375a18.929 18.929 0 0 1 3.718 1.906 9.82 9.82 0 0 1 2.719 2.844c.729 1.104 1.083 2.448 1.063 4.031Zm179.347 0c0 1.5-.31 2.792-.94 3.875a7.961 7.961 0 0 1-2.46 2.625c-1 .688-2.15 1.198-3.44 1.531-1.29.334-2.61.5-3.94.5-1.6 0-3.1-.208-4.5-.624a11.347 11.347 0 0 1-3.66-1.938c-1.06-.833-1.93-1.865-2.62-3.094-.69-1.25-1.13-2.698-1.31-4.344h-3.78c.08 1.959.51 3.719 1.28 5.282a12.522 12.522 0 0 0 3.15 4c1.48 1.333 3.22 2.344 5.22 3.031 2.02.667 4.1 1 6.22 1 1.79 0 3.56-.25 5.31-.75 1.75-.5 3.33-1.24 4.72-2.219a11.607 11.607 0 0 0 3.35-3.687c.85-1.5 1.28-3.25 1.28-5.25s-.43-3.74-1.28-5.219c-.84-1.5-1.92-2.76-3.25-3.781a20.655 20.655 0 0 0-4.6-2.688 52.659 52.659 0 0 0-5-1.843 66.611 66.611 0 0 1-3.81-1.25c-1.31-.5-2.52-1.126-3.63-1.876-1.1-.729-2.01-1.614-2.71-2.656-.69-1.041-1.05-2.323-1.07-3.844 0-1.416.31-2.645.91-3.687a8.56 8.56 0 0 1 2.44-2.625c1-.688 2.11-1.198 3.34-1.531 1.25-.354 2.51-.531 3.78-.531 1.52 0 2.91.239 4.16.718 1.27.479 2.36 1.156 3.28 2.032a9.81 9.81 0 0 1 2.25 3.156c.56 1.208.93 2.552 1.09 4.031h3.82c-.07-2-.5-3.813-1.32-5.437-.79-1.646-1.84-3.042-3.15-4.188-1.34-1.146-2.88-2.031-4.63-2.656-1.73-.646-3.56-.969-5.5-.969-1.73 0-3.45.26-5.15.781-1.71.5-3.24 1.24-4.6 2.219-1.35 1-2.46 2.24-3.31 3.719-.83 1.458-1.25 3.135-1.25 5.031.02 2.063.48 3.802 1.37 5.219.9 1.416 2.06 2.635 3.47 3.656 1.3.938 2.74 1.74 4.35 2.406 1.6.667 3.16 1.24 4.68 1.719 1.28.396 2.59.854 3.94 1.375 1.36.521 2.6 1.156 3.72 1.906a9.772 9.772 0 0 1 2.72 2.844c.73 1.104 1.08 2.448 1.06 4.031Zm221.5-1.469 4.03 12.688h3.75l-14.65-45.5h-3.41L1253.8 847h3.75l4.06-12.688h17.25Zm-16.22-3.374 7.63-23.813 7.56 23.813h-15.19Zm291.31 10.624-.06-16.218h-14.35v3.312h10.78l-.03 11.719a8.043 8.043 0 0 1-2.15 1.969c-.82.5-1.7.906-2.66 1.218-.94.292-1.92.5-2.94.626-1 .104-1.97.145-2.9.124-1.48-.02-2.83-.27-4.03-.75-1.19-.5-2.24-1.177-3.16-2.031a12.546 12.546 0 0 1-2.41-2.906 19.362 19.362 0 0 1-1.65-3.594c-.44-1.25-.76-2.541-.97-3.875a29.531 29.531 0 0 1-.35-3.906v-6.406c0-1.229.1-2.49.29-3.782.2-1.312.52-2.583.93-3.812.4-1.229.91-2.396 1.53-3.5a11.545 11.545 0 0 1 2.29-2.875 10.15 10.15 0 0 1 3.06-1.969c1.17-.479 2.48-.718 3.94-.718 1.6 0 3.02.25 4.25.75a9.83 9.83 0 0 1 3.25 2.093c.91.896 1.66 1.969 2.25 3.219.6 1.25 1.05 2.604 1.34 4.062h3.69c-.23-2-.75-3.822-1.57-5.468-.79-1.646-1.82-3.063-3.09-4.25-1.29-1.188-2.8-2.104-4.53-2.75-1.71-.646-3.57-.969-5.59-.969-1.82 0-3.46.281-4.94.844a13.513 13.513 0 0 0-3.94 2.219 14.632 14.632 0 0 0-3.06 3.374 21.244 21.244 0 0 0-2.13 4.157 26.203 26.203 0 0 0-1.28 4.625 32.609 32.609 0 0 0-.44 4.812v6.344c.03 1.646.18 3.281.47 4.906.32 1.625.78 3.188 1.41 4.688a20.241 20.241 0 0 0 2.22 4.25 15.762 15.762 0 0 0 3.15 3.375 14.52 14.52 0 0 0 4.04 2.281c1.52.562 3.19.854 5.03.875 1.56 0 3.08-.156 4.56-.469 1.5-.291 2.92-.771 4.25-1.437 1.02-.459 2-1.031 2.94-1.719.93-.688 1.79-1.5 2.56-2.438Zm309.64-16.374v-3.282h-20.09v-17.094h23V801.5h-26.72V847h26.88v-3.312h-23.16v-18.5h20.09Z" fill="#3C4043"/></svg>