<svg width="1920" height="1080" fill="none" xmlns="http://www.w3.org/2000/svg"><path d="M293.788 471.344v-147.42h-3.024l-28.98 66.276h-20.916v-1.512L273.88 314.6h41.076v156.744h49.896V491h-120.96v-19.656h49.896Zm223.601 0V491H397.941v-30.24c0-8.064 1.344-15.036 4.032-20.916 2.688-6.048 6.468-11.172 11.34-15.372 5.04-4.368 11.088-7.98 18.144-10.836 7.056-2.856 15.036-5.292 23.94-7.308 14.952-3.36 25.704-8.148 32.256-14.364 6.72-6.216 10.08-13.86 10.08-22.932v-1.512c0-4.536-.756-8.988-2.268-13.356-1.512-4.368-3.864-8.316-7.056-11.844-3.192-3.528-7.308-6.3-12.348-8.316-4.872-2.184-10.752-3.276-17.64-3.276-12.936 0-23.016 3.948-30.24 11.844-7.056 7.896-10.584 18.396-10.584 31.5v11.088h-21.168v-12.6c0-8.064 1.344-15.792 4.032-23.184 2.688-7.392 6.636-13.944 11.844-19.656 5.208-5.712 11.676-10.248 19.404-13.608 7.728-3.36 16.632-5.04 26.712-5.04 10.248 0 19.152 1.596 26.712 4.788 7.56 3.024 13.86 7.14 18.9 12.348 5.04 5.04 8.736 10.836 11.088 17.388 2.52 6.384 3.78 12.936 3.78 19.656v4.536c0 13.44-4.2 24.948-12.6 34.524-8.4 9.408-21.84 16.128-40.32 20.16-16.128 3.528-27.972 8.232-35.532 14.112-7.56 5.712-11.34 14.112-11.34 25.2v7.56h98.28Zm-223.601 290v-147.42h-3.024l-28.98 66.276h-20.916v-1.512L273.88 604.6h41.076v156.744h49.896V781h-120.96v-19.656h49.896Zm200.669-105.336c0-10.92-3.36-19.656-10.08-26.208-6.72-6.72-16.044-10.08-27.972-10.08-5.712 0-11.004 1.008-15.876 3.024-4.704 2.016-8.82 4.956-12.348 8.82-3.36 3.696-6.048 8.148-8.064 13.356-1.848 5.208-2.772 10.92-2.772 17.136v26.208h3.024c4.032-7.392 9.744-13.188 17.136-17.388 7.56-4.2 15.96-6.3 25.2-6.3 8.064 0 15.54 1.344 22.428 4.032 6.888 2.52 12.768 6.3 17.64 11.34 5.04 5.04 8.904 11.172 11.592 18.396 2.856 7.056 4.284 15.12 4.284 24.192v3.024c0 8.736-1.596 16.716-4.788 23.94-3.024 7.224-7.308 13.44-12.852 18.648-5.376 5.208-11.844 9.24-19.404 12.096-7.392 2.856-15.456 4.284-24.192 4.284s-16.884-1.428-24.444-4.284c-7.392-2.856-13.86-6.804-19.404-11.844-5.376-5.208-9.66-11.34-12.852-18.396-3.024-7.224-4.536-15.12-4.536-23.688v-64.26c0-9.24 1.596-17.64 4.788-25.2 3.192-7.56 7.56-13.944 13.104-19.152 5.544-5.376 11.928-9.492 19.152-12.348 7.392-2.856 15.288-4.284 23.688-4.284 8.4 0 16.212 1.26 23.436 3.78 7.224 2.52 13.44 6.216 18.648 11.088 5.208 4.704 9.24 10.5 12.096 17.388 3.024 6.72 4.536 14.28 4.536 22.68h-21.168ZM457.413 765.88c6.048 0 11.508-.924 16.38-2.772 5.04-2.016 9.324-4.788 12.852-8.316 3.528-3.528 6.216-7.728 8.064-12.6 1.848-4.872 2.772-10.248 2.772-16.128v-3.024c0-5.88-1.008-11.256-3.024-16.128s-4.788-9.072-8.316-12.6c-3.528-3.528-7.812-6.216-12.852-8.064-4.872-2.016-10.164-3.024-15.876-3.024s-11.004 1.008-15.876 3.024-9.156 4.788-12.852 8.316c-3.528 3.528-6.3 7.644-8.316 12.348-2.016 4.704-3.024 9.744-3.024 15.12v4.788c0 5.544.924 10.752 2.772 15.624 1.848 4.704 4.536 8.82 8.064 12.348 3.528 3.528 7.728 6.3 12.6 8.316 5.04 1.848 10.584 2.772 16.632 2.772Z" fill="#D2E3FC"/><path d="M571.646 541.4H551.99V366.008h19.656v19.656h3.024c4.368-7.56 10.416-13.272 18.144-17.136 7.728-4.032 16.128-6.048 25.2-6.048 7.728 0 15.036 1.428 21.924 4.284s12.936 6.972 18.144 12.348c5.376 5.376 9.576 12.012 12.6 19.908 3.192 7.896 4.788 16.884 4.788 26.964v5.04c0 10.248-1.512 19.32-4.536 27.216-3.024 7.896-7.224 14.532-12.6 19.908-5.208 5.376-11.34 9.492-18.396 12.348-7.056 2.688-14.532 4.032-22.428 4.032-4.032 0-8.148-.504-12.348-1.512a51.2 51.2 0 0 1-12.096-4.032 62.336 62.336 0 0 1-10.332-7.056c-3.192-2.856-5.88-6.216-8.064-10.08h-3.024V541.4Zm41.832-65.52c6.048 0 11.592-1.008 16.632-3.024 5.04-2.184 9.408-5.208 13.104-9.072 3.864-3.864 6.804-8.568 8.82-14.112 2.184-5.544 3.276-11.76 3.276-18.648v-5.04c0-6.72-1.092-12.768-3.276-18.144-2.016-5.544-4.956-10.248-8.82-14.112-3.696-4.032-8.148-7.14-13.356-9.324-5.04-2.184-10.5-3.276-16.38-3.276-5.88 0-11.34 1.176-16.38 3.528-5.04 2.184-9.492 5.292-13.356 9.324-3.696 4.032-6.636 8.904-8.82 14.616-2.184 5.544-3.276 11.676-3.276 18.396v3.024c0 6.888 1.092 13.188 3.276 18.9 2.184 5.544 5.124 10.332 8.82 14.364 3.864 4.032 8.316 7.14 13.356 9.324 5.04 2.184 10.5 3.276 16.38 3.276Zm93.064-109.872h39.312V314.6h19.656v51.408h48.384v18.144H765.51v81.144c0 5.04 2.268 7.56 6.804 7.56h35.532V491h-42.588c-5.712 0-10.416-1.848-14.112-5.544-3.528-3.696-5.292-8.4-5.292-14.112v-87.192h-39.312v-18.144ZM571.646 831.4H551.99V656.008h19.656v19.656h3.024c4.368-7.56 10.416-13.272 18.144-17.136 7.728-4.032 16.128-6.048 25.2-6.048 7.728 0 15.036 1.428 21.924 4.284s12.936 6.972 18.144 12.348c5.376 5.376 9.576 12.012 12.6 19.908 3.192 7.896 4.788 16.884 4.788 26.964v5.04c0 10.248-1.512 19.32-4.536 27.216-3.024 7.896-7.224 14.532-12.6 19.908-5.208 5.376-11.34 9.492-18.396 12.348-7.056 2.688-14.532 4.032-22.428 4.032-4.032 0-8.148-.504-12.348-1.512a51.2 51.2 0 0 1-12.096-4.032 62.336 62.336 0 0 1-10.332-7.056c-3.192-2.856-5.88-6.216-8.064-10.08h-3.024V831.4Zm41.832-65.52c6.048 0 11.592-1.008 16.632-3.024 5.04-2.184 9.408-5.208 13.104-9.072 3.864-3.864 6.804-8.568 8.82-14.112 2.184-5.544 3.276-11.76 3.276-18.648v-5.04c0-6.72-1.092-12.768-3.276-18.144-2.016-5.544-4.956-10.248-8.82-14.112-3.696-4.032-8.148-7.14-13.356-9.324-5.04-2.184-10.5-3.276-16.38-3.276-5.88 0-11.34 1.176-16.38 3.528-5.04 2.184-9.492 5.292-13.356 9.324-3.696 4.032-6.636 8.904-8.82 14.616-2.184 5.544-3.276 11.676-3.276 18.396v3.024c0 6.888 1.092 13.188 3.276 18.9 2.184 5.544 5.124 10.332 8.82 14.364 3.864 4.032 8.316 7.14 13.356 9.324 5.04 2.184 10.5 3.276 16.38 3.276Zm186.304-109.872h22.428l-36.792 59.472v3.024L825.234 781h-22.932l-34.02-54.936h-4.536L729.726 781h-22.932l39.816-62.496v-3.024l-36.792-59.472h22.428l31.5 51.912h4.536l31.5-51.912Z" fill="#1A73E8"/><path d="M1022.79 471.344v-147.42h-3.03L990.784 390.2h-20.916v-1.512l33.012-74.088h41.08v156.744h49.89V491H972.892v-19.656h49.898Zm69.3 290V781H972.64v-30.24c0-8.064 1.344-15.036 4.032-20.916 2.688-6.048 6.468-11.172 11.34-15.372 5.04-4.368 11.088-7.98 18.148-10.836 7.05-2.856 15.03-5.292 23.94-7.308 14.95-3.36 25.7-8.148 32.25-14.364 6.72-6.216 10.08-13.86 10.08-22.932v-1.512c0-4.536-.75-8.988-2.27-13.356-1.51-4.368-3.86-8.316-7.05-11.844-3.19-3.528-7.31-6.3-12.35-8.316-4.87-2.184-10.75-3.276-17.64-3.276-12.94 0-23.02 3.948-30.24 11.844-7.056 7.896-10.584 18.396-10.584 31.5v11.088h-21.168v-12.6c0-8.064 1.344-15.792 4.032-23.184 2.688-7.392 6.636-13.944 11.844-19.656 5.208-5.712 11.676-10.248 19.406-13.608 7.73-3.36 16.63-5.04 26.71-5.04 10.25 0 19.15 1.596 26.71 4.788 7.56 3.024 13.86 7.14 18.9 12.348 5.04 5.04 8.74 10.836 11.09 17.388 2.52 6.384 3.78 12.936 3.78 19.656v4.536c0 13.44-4.2 24.948-12.6 34.524-8.4 9.408-21.84 16.128-40.32 20.16-16.13 3.528-27.97 8.232-35.53 14.112-7.562 5.712-11.342 14.112-11.342 25.2v7.56h98.282Zm76.68 5.544c0-4.872 1.68-8.988 5.04-12.348 3.53-3.528 7.73-5.292 12.6-5.292 4.87 0 8.99 1.764 12.35 5.292 3.53 3.36 5.29 7.476 5.29 12.348 0 4.872-1.76 9.072-5.29 12.6-3.36 3.36-7.48 5.04-12.35 5.04-4.87 0-9.07-1.68-12.6-5.04-3.36-3.528-5.04-7.728-5.04-12.6Zm114.49-69.048V604.6h110.37v19.656h-89.71v63h3.03c1.68-3.36 3.86-6.552 6.55-9.576a44.07 44.07 0 0 1 9.32-8.316c3.7-2.352 7.81-4.2 12.35-5.544 4.54-1.512 9.58-2.268 15.12-2.268 8.06 0 15.46 1.344 22.18 4.032 6.88 2.688 12.76 6.468 17.64 11.34 4.87 4.872 8.65 10.752 11.34 17.64 2.85 6.888 4.28 14.532 4.28 22.932v4.536c0 8.4-1.34 16.38-4.03 23.94a61.432 61.432 0 0 1-11.85 19.908c-5.2 5.712-11.67 10.248-19.4 13.608-7.73 3.36-16.63 5.04-26.71 5.04-10.25 0-19.32-1.512-27.22-4.536-7.89-3.024-14.53-7.224-19.91-12.6-5.37-5.376-9.49-11.676-12.34-18.9-2.69-7.392-4.04-15.372-4.04-23.94v-7.056h21.17v5.544c0 13.944 3.87 24.444 11.59 31.5 7.9 6.888 18.15 10.332 30.75 10.332 6.72 0 12.6-1.176 17.64-3.528 5.21-2.52 9.49-5.796 12.85-9.828 3.53-4.2 6.13-8.988 7.81-14.364a58.764 58.764 0 0 0 2.52-17.136v-1.512c0-5.208-.92-10.08-2.77-14.616-1.68-4.536-4.12-8.484-7.31-11.844-3.02-3.36-6.8-5.964-11.34-7.812-4.37-2.016-9.15-3.024-14.36-3.024-3.53 0-6.81.504-9.83 1.512-2.86 1.008-5.38 2.352-7.56 4.032-2.18 1.512-4.03 3.276-5.54 5.292-1.35 2.016-2.27 3.948-2.78 5.796h-39.81Z" fill="#D2E3FC"/><path d="M1145.59 434.552c.5 12.432 4.37 22.428 11.59 29.988 7.22 7.56 17.3 11.34 30.24 11.34 5.88 0 11-.672 15.37-2.016 4.37-1.344 8.07-3.192 11.09-5.544 3.19-2.352 5.71-5.04 7.56-8.064a46.15 46.15 0 0 0 4.79-10.08l18.65 5.04c-3.53 11.592-10.08 21.084-19.66 28.476-9.41 7.224-22.18 10.836-38.3 10.836-8.91 0-17.14-1.512-24.7-4.536-7.39-3.192-13.78-7.644-19.15-13.356-5.38-5.712-9.58-12.516-12.6-20.412-3.03-7.896-4.54-16.632-4.54-26.208v-6.048c0-8.736 1.51-16.884 4.54-24.444 3.19-7.56 7.56-14.028 13.1-19.404 5.55-5.544 12.01-9.828 19.41-12.852 7.56-3.192 15.7-4.788 24.44-4.788 10.25 0 19.07 1.932 26.46 5.796 7.56 3.696 13.69 8.316 18.4 13.86 4.87 5.544 8.4 11.592 10.58 18.144 2.35 6.552 3.53 12.6 3.53 18.144v16.128h-100.8Zm41.83-53.424c-5.54 0-10.75.924-15.62 2.772-4.71 1.68-8.91 4.116-12.6 7.308-3.53 3.192-6.47 6.972-8.82 11.34-2.19 4.2-3.62 8.82-4.29 13.86h80.64c-.33-5.376-1.68-10.248-4.03-14.616-2.18-4.368-5.12-8.064-8.82-11.088-3.53-3.024-7.64-5.376-12.35-7.056a40.284 40.284 0 0 0-14.11-2.52ZM1405.73 491h-19.66v-89.712c0-5.88-1.34-10.668-4.03-14.364-2.69-3.864-6.97-5.796-12.85-5.796-5.54 0-10.08 2.1-13.61 6.3-3.36 4.032-5.04 10.332-5.04 18.9V491h-19.65v-90.72c0-5.544-1.52-10.08-4.54-13.608-3.02-3.696-7.06-5.544-12.1-5.544-6.04 0-10.75 2.184-14.11 6.552-3.19 4.368-4.79 10.08-4.79 17.136V491h-19.65V366.008h19.65v13.608h3.03c2.18-5.88 5.37-10.164 9.57-12.852 4.2-2.856 9.16-4.284 14.87-4.284 6.05 0 11.01 1.596 14.87 4.788 4.03 3.192 6.8 7.308 8.32 12.348h3.02c5.71-11.424 14.78-17.136 27.22-17.136 9.4 0 16.63 3.024 21.67 9.072 5.21 5.88 7.81 13.608 7.81 23.184V491Zm27.04 165.008h45.36v16.632h3.02c3.2-6.888 7.73-11.928 13.61-15.12 5.88-3.36 12.6-5.04 20.16-5.04 12.6 0 22.77 4.116 30.49 12.348 7.73 8.232 11.85 20.244 12.35 36.036l-20.66 3.024c0-11.592-2.77-19.908-8.32-24.948-5.54-5.208-12.35-7.812-20.41-7.812-5.21 0-9.74 1.008-13.61 3.024-3.69 2.016-6.8 4.788-9.32 8.316-2.52 3.528-4.37 7.644-5.55 12.348-1.17 4.704-1.76 9.744-1.76 15.12v52.92h31.75V781h-80.13v-18.144h28.72v-88.704h-25.7v-18.144Zm175.72 68.544c.51 12.432 4.37 22.428 11.59 29.988 7.23 7.56 17.31 11.34 30.24 11.34 5.88 0 11.01-.672 15.38-2.016 4.36-1.344 8.06-3.192 11.08-5.544 3.2-2.352 5.72-5.04 7.56-8.064a45.696 45.696 0 0 0 4.79-10.08l18.65 5.04c-3.53 11.592-10.08 21.084-19.66 28.476-9.4 7.224-22.17 10.836-38.3 10.836-8.9 0-17.14-1.512-24.7-4.536-7.39-3.192-13.77-7.644-19.15-13.356-5.37-5.712-9.57-12.516-12.6-20.412-3.02-7.896-4.53-16.632-4.53-26.208v-6.048c0-8.736 1.51-16.884 4.53-24.444 3.19-7.56 7.56-14.028 13.11-19.404 5.54-5.544 12.01-9.828 19.4-12.852 7.56-3.192 15.71-4.788 24.44-4.788 10.25 0 19.07 1.932 26.46 5.796 7.56 3.696 13.7 8.316 18.4 13.86 4.87 5.544 8.4 11.592 10.58 18.144 2.36 6.552 3.53 12.6 3.53 18.144v16.128h-100.8Zm41.83-53.424c-5.54 0-10.75.924-15.62 2.772-4.7 1.68-8.9 4.116-12.6 7.308-3.53 3.192-6.47 6.972-8.82 11.34-2.18 4.2-3.61 8.82-4.28 13.86h80.64c-.34-5.376-1.68-10.248-4.04-14.616-2.18-4.368-5.12-8.064-8.82-11.088-3.52-3.024-7.64-5.376-12.34-7.056a40.34 40.34 0 0 0-14.12-2.52ZM1868.63 781h-19.65v-89.712c0-5.88-1.35-10.668-4.04-14.364-2.68-3.864-6.97-5.796-12.85-5.796-5.54 0-10.08 2.1-13.61 6.3-3.36 4.032-5.04 10.332-5.04 18.9V781h-19.65v-90.72c0-5.544-1.51-10.08-4.54-13.608-3.02-3.696-7.05-5.544-12.09-5.544-6.05 0-10.76 2.184-14.12 6.552-3.19 4.368-4.78 10.08-4.78 17.136V781h-19.66V656.008h19.66v13.608h3.02c2.18-5.88 5.38-10.164 9.58-12.852 4.2-2.856 9.15-4.284 14.86-4.284 6.05 0 11.01 1.596 14.87 4.788 4.03 3.192 6.81 7.308 8.32 12.348h3.02c5.71-11.424 14.79-17.136 27.22-17.136 9.41 0 16.63 3.024 21.67 9.072 5.21 5.88 7.81 13.608 7.81 23.184V781Z" fill="#1A73E8"/></svg>