<svg xmlns="http://www.w3.org/2000/svg" width="1920" height="1080" fill="none"><path fill="#1A73E8" d="M1047.51 239.195h73.93v205.09l64.31 1.762 63.89-26.762V228.269h-202.13v10.926Z"/><path fill="#3C4043" d="M270.935 443.5c38.76 0 72.165 8.245 100.215 24.735 28.22 16.49 49.81 39.185 64.77 68.085 15.13 28.73 22.695 61.54 22.695 98.43 0 27.71-4.505 53.21-13.515 76.5-9.01 23.29-21.845 43.52-38.505 60.69-16.49 17.17-36.295 30.515-59.415 40.035-22.95 9.35-48.365 14.025-76.245 14.025H119.72v-4.845h45.9v-372.81h-45.9V443.5h151.215ZM226.82 821.155h44.115c21.76 0 40.12-5.1 55.08-15.3 14.96-10.37 26.945-24.31 35.955-41.82 9.01-17.68 15.47-37.655 19.38-59.925 4.08-22.27 6.12-45.39 6.12-69.36s-2.295-47.09-6.885-69.36c-4.42-22.27-11.305-42.16-20.655-59.67-9.35-17.68-21.42-31.62-36.21-41.82-14.62-10.37-32.215-15.555-52.785-15.555H226.82v372.81Zm333.5-310.59c-9.86 0-18.275-3.485-25.245-10.455-6.97-6.97-10.455-15.47-10.455-25.5s3.485-18.445 10.455-25.245c6.97-6.97 15.385-10.455 25.245-10.455 10.03 0 18.53 3.485 25.5 10.455 6.97 6.8 10.455 15.215 10.455 25.245 0 10.03-3.485 18.53-10.455 25.5-6.8 6.97-15.3 10.455-25.5 10.455Zm28.05 80.835v229.755h32.64V826H499.375v-4.845h32.64v-224.91h-32.64V591.4h88.995Zm178.353 239.445c-18.36 0-35.7-4.845-52.02-14.535-16.32-9.69-29.58-23.63-39.78-41.82-10.2-18.19-15.3-40.035-15.3-65.535s5.1-47.345 15.3-65.535c10.2-18.36 23.46-32.385 39.78-42.075 16.32-9.86 33.66-14.79 52.02-14.79 21.93 0 39.695 7.905 53.295 23.715 13.77 15.64 22.695 37.485 26.775 65.535v-227.46h-32.64V443.5h89.25v377.655h32.385V826h-88.995v-84.15c-4.08 28.22-12.92 50.15-26.52 65.79-13.6 15.47-31.45 23.205-53.55 23.205Zm11.475-8.925c12.07 0 23.29-4.25 33.66-12.75 10.37-8.67 18.785-21.335 25.245-37.995 6.46-16.83 9.69-37.57 9.69-62.22 0-24.82-3.23-45.645-9.69-62.475-6.46-16.83-14.875-29.495-25.245-37.995-10.37-8.67-21.59-13.005-33.66-13.005-12.24 0-22.355 4.59-30.345 13.77-7.82 9.18-13.685 22.27-17.595 39.27-3.91 16.83-5.865 36.975-5.865 60.435 0 23.29 1.955 43.435 5.865 60.435 3.91 16.83 9.775 29.835 17.595 39.015 7.99 9.01 18.105 13.515 30.345 13.515Zm315.302 9.18c-24.65 0-45.99-5.61-64.01-16.83-17.85-11.22-31.703-26.095-41.563-44.625-9.69-18.53-14.535-38.845-14.535-60.945s4.845-42.415 14.535-60.945c9.86-18.53 23.713-33.405 41.563-44.625 18.02-11.22 39.36-16.83 64.01-16.83 24.65 0 45.9 5.61 63.75 16.83 18.02 11.22 31.87 26.095 41.56 44.625 9.69 18.53 14.54 38.845 14.54 60.945s-4.85 42.415-14.54 60.945-23.54 33.405-41.56 44.625c-17.85 11.22-39.1 16.83-63.75 16.83Zm0-4.845c11.9 0 21.59-3.57 29.07-10.71 7.65-7.14 13.51-16.49 17.59-28.05 4.08-11.73 6.89-24.48 8.42-38.25 1.53-13.77 2.29-27.285 2.29-40.545 0-13.43-.76-26.945-2.29-40.545-1.53-13.77-4.34-26.435-8.42-37.995-4.08-11.73-9.94-21.165-17.59-28.305-7.48-7.14-17.17-10.71-29.07-10.71-12.07 0-21.93 3.57-29.58 10.71-7.48 7.14-13.26 16.575-17.34 28.305-4.08 11.56-6.89 24.225-8.42 37.995a407.252 407.252 0 0 0-2.04 40.545c0 13.26.68 26.775 2.04 40.545 1.53 13.77 4.34 26.52 8.42 38.25 4.08 11.56 9.86 20.91 17.34 28.05 7.65 7.14 17.51 10.71 29.58 10.71ZM1339.11 591.4v229.755h29.33V826h-118.07v-4.845h32.9v-224.91h-32.9V591.4h88.74Zm155.55 71.91v157.845h32.64V826h-118.06v-4.845h29.32v-153c0-14.28-.59-26.69-1.78-37.23-1.19-10.71-3.83-18.955-7.91-24.735-3.91-5.95-10.11-8.925-18.61-8.925-14.28 0-26.1 3.825-35.45 11.475-9.18 7.48-16.4 17.17-21.67 29.07-5.27 11.73-8.93 24.225-10.97 37.485-2.04 13.09-3.06 25.33-3.06 36.72l-3.57 1.53c0-11.9 1.02-25.16 3.06-39.78 2.21-14.62 6.29-28.56 12.24-41.82 5.95-13.26 14.71-24.14 26.27-32.64 11.73-8.67 27.03-13.005 45.9-13.005 19.55 0 34.42 3.315 44.62 9.945 10.37 6.63 17.43 15.81 21.17 27.54 3.91 11.56 5.86 24.735 5.86 39.525Zm190.27 167.79c-22.78 0-43.26-4.76-61.45-14.28-18.02-9.69-32.39-23.63-43.1-41.82-10.54-18.36-15.81-40.46-15.81-66.3 0-25.84 5.1-47.855 15.3-66.045 10.2-18.36 24.23-32.3 42.08-41.82 17.85-9.69 38.16-14.535 60.94-14.535 25.16 0 45.56 5.015 61.2 15.045 15.64 10.03 27.12 23.205 34.43 39.525 7.31 16.15 10.96 33.49 10.96 52.02h-190.74v-4.845h127.76c0-9.86-.51-20.4-1.53-31.62-.85-11.22-2.72-21.76-5.61-31.62s-7.23-17.935-13.01-24.225c-5.78-6.29-13.6-9.435-23.46-9.435-10.88 0-19.89 3.23-27.03 9.69-6.97 6.46-12.49 15.215-16.57 26.265s-6.97 23.46-8.67 37.23c-1.53 13.6-2.3 27.71-2.3 42.33 0 15.3.85 30.09 2.55 44.37 1.87 14.11 5.1 26.69 9.69 37.74 4.76 11.05 11.22 19.89 19.38 26.52 8.33 6.46 18.96 9.69 31.88 9.69 24.31 0 44.45-6.63 60.43-19.89 15.98-13.43 27.12-30.005 33.41-49.725h5.35c-6.63 21.42-18.7 39.44-36.21 54.06-17.34 14.45-40.63 21.675-69.87 21.675Z"/><circle cx="1154.65" cy="282.298" r="163.649" stroke="#FF6D7F" stroke-width="10"/><circle cx="865.069" cy="457.905" r="66.595" stroke="#FF6D7F" stroke-width="7"/></svg>