<svg xmlns="http://www.w3.org/2000/svg" width="1920" height="1080" fill="none"><path fill="#3C4043" fill-rule="evenodd" d="M143.647 305.469c-8.148 1.427-21.982 6.235-28.32 9.843-32.332 18.4-51.884 55.491-48.77 92.52 1.222 14.54 2.717 19.806 9.38 33.051 4.709 9.36 7.811 13.495 16.653 22.198 10.757 10.587 17.011 14.5 31.642 19.799 6.483 2.348 6.781 2.907 8.969 16.887 1.696 10.835 3.361 14.098 10.807 21.191 7.032 6.696 17.051 10.651 31.458 12.416 13.751 1.684 33.787-.077 38.995-3.427l3.609-2.321-12.943-.717c-22.489-1.247-31.931-8.283-34.473-25.69-1.964-13.444-.901-15.453 10.47-19.787 27.118-10.338 46.747-30.142 55.794-56.29 3.126-9.033 5.585-30.367 4.525-39.244-4.335-36.307-29.1-67.159-61.651-76.806-10.572-3.135-28.614-4.942-36.145-3.623Zm23.01 4.928c8.792 2.303 21.461 13.773 26.479 23.973 8.948 18.192 13.387 38.89 13.002 60.623-.324 18.25-4.928 45.963-8.142 49.012-.705.669-1.282 1.934-1.282 2.81 0 3.411-8.064 17.54-13.123 22.994-12.097 13.039-33.355 17.252-48.836 9.68-10.594-5.181-20.918-18.639-26.665-34.758-4.103-11.505-6.21-33.701-5.377-56.649 1.164-32.153 6.694-51.851 18.375-65.457 11.957-13.928 25.353-17.522 45.569-12.228Zm508.954 56.533c-13.277 2.32-21.414 7.92-27.394 18.853-4.439 8.117-4.229 21.586.474 30.15 4 7.288 12.131 13.696 22.653 17.855 14.398 5.69 25.653 11.931 29.368 16.284 10.314 12.084 1.61 32.191-15.046 34.755-5.205.802-16.911-1.279-20.024-3.558-7.812-5.722-14.439-13.631-16.995-20.282-1.543-4.014-2.805-8.577-2.805-10.139 0-1.564-.282-2.574-.628-2.246-.345.327-.88 7.19-1.188 15.249-.307 8.058-.962 16.172-1.453 18.029-.526 1.985-.365 3.377.389 3.377.706 0 1.551-.967 1.878-2.149.326-1.181 2.136-2.93 4.019-3.884 3.161-1.602 4.2-1.398 13.471 2.639 13.406 5.838 18.733 6.449 29.283 3.357 11.618-3.405 18.628-8.78 23.789-18.24 3.468-6.356 4.216-9.119 4.216-15.567 0-17.552-9.72-28.004-33.652-36.187-18.794-6.427-27.048-14.486-27.136-26.498-.103-14.158 13.566-23.038 29.28-19.023 8.767 2.238 16.714 11.506 19.848 23.139 2.375 8.817 3.846 5.916 3.788-7.464-.03-6.976.335-14.16.813-15.965 1.006-3.8-1.384-4.607-2.628-.888-1.233 3.69-4.914 4.071-13.334 1.379-8.626-2.757-16.14-3.823-20.986-2.976Zm102.899.004c-19.049 2.684-35.268 14.092-43.382 30.515-5.911 11.964-7.105 17.42-6.988 31.931.23 28.56 11.565 46.282 34.902 54.567 12.282 4.36 28.945 2.311 38.125-4.686 2.76-2.107 5.248-3.828 5.529-3.828 1.031 0-.663 71.878-1.719 72.944-.601.607-4.763 1.436-9.249 1.842-16.393 1.487-7.419 2.595 23.444 2.892 24.361.235 31.726-.046 32.142-1.23.389-1.104-1.463-1.535-6.603-1.535-3.928 0-8.717-.569-10.642-1.263l-3.501-1.264.834-64.131c.458-35.273 1.193-75.325 1.632-89.002.694-21.616.545-24.868-1.142-24.868-1.067 0-2.665.829-3.551 1.842-2.471 2.824-12.145 2.252-23.201-1.372-9.763-3.202-19.241-4.394-26.63-3.354Zm-348.712 2.378c-19.356 4.938-34.594 19.691-40.983 39.683-6.784 21.223-.431 44.577 16.447 60.454 32.729 30.793 85.487 11.062 93.226-34.866 3.208-19.038-2.523-36.944-16.037-50.108-14.745-14.364-34.024-19.916-52.653-15.163Zm25.132 2.821c6.428 3.509 12.85 12.796 15.612 22.575 3.453 12.227 3.499 46.734.078 58.532-6.31 21.754-16.921 31.23-32.488 29.016-7.382-1.051-15.023-7.106-19.357-15.343-1.623-3.081-4.278-11.045-5.9-17.695-2.479-10.165-2.837-14.274-2.246-25.79 1.581-30.788 10.079-49.795 23.878-53.399 6.153-1.608 15.365-.658 20.423 2.104Zm-200.864-.538c.247.711 3.778 1.578 7.849 1.927 4.516.385 7.881 1.343 8.634 2.456.695 1.025.959 7.727.606 15.331-1.752 37.673-2 69.102-.594 75.317 2.739 12.099 13.227 19.776 28.404 20.789 13.427.897 30.119-5.976 33.964-13.983 2.486-5.177 4.249-2.619 3.775 5.481-.243 4.164.092 7.572.746 7.572.652 0 5.419-1.402 10.591-3.116 5.196-1.723 13.984-3.454 19.64-3.868 5.631-.411 10.237-1.179 10.237-1.705 0-.527-3.348-1.343-7.442-1.812-4.094-.47-8.249-1.469-9.234-2.218-1.49-1.133-1.65-7.6-.955-38.226.461-20.275.942-42.665 1.069-49.757l.233-12.895-19.199-.995c-13.13-.679-19.63-.582-20.568.307-.966.918.547 1.302 5.112 1.302 10.851 0 11.493 1.031 11.594 18.632.108 18.711-1.761 69.399-2.698 73.198-1.066 4.315-9.34 12.258-14.433 13.854-8.274 2.59-19.09-.523-24.125-6.945-4.983-6.358-5.61-25.724-2.755-85.23.341-7.092.17-13.518-.379-14.279-1.342-1.861-40.71-2.978-40.072-1.137Zm255.113-.651c-1.798 1.719.33 2.558 6.492 2.558 9.693 0 11.609 1.975 10.635 10.967-1.8 16.633-2.442 75.706-.899 82.724 2.994 13.616 15.78 21.347 33.501 20.254 11.277-.696 22.557-5.743 27.253-12.192 1.859-2.554 3.814-4.662 4.349-4.688.534-.026.971 3.837.971 8.582v8.627l3.559-1.719c6.017-2.908 18.379-5.85 27.693-6.59 10.124-.806 12.011-2.806 2.647-2.806-8.914 0-11.064-1.922-11.161-9.975-.155-13.082 2.05-88.932 2.645-90.932.335-1.125.146-2.317-.42-2.649-2.09-1.225-41.79-2.29-41.79-1.121 0 .642 3.616 1.527 8.033 1.965 4.419.438 8.539 1.276 9.156 1.862 1.311 1.244 1.219 36.694-.173 67.984-.958 21.485-1.023 21.852-4.787 26.89-9.756 13.059-27.966 12.975-36.103-.168-2.493-4.026-2.655-6.176-2.588-34.383.039-16.548.293-37.417.566-46.376.278-9.188-.034-16.788-.719-17.434-1.175-1.11-37.782-2.411-38.86-1.38Zm291.567 2.414c8.608 5.917 8.696 6.494 7.754 50.915-.461 21.721-1.44 41.519-2.178 43.998-2.569 8.623-15.434 15.74-25.285 13.986-15.643-2.784-25.996-21.28-27.413-48.973-2.07-40.444 10.468-63.35 34.722-63.439 5.961-.022 8.164.601 12.4 3.513Zm61.212 7.149c-4.955 3.24-6.351 5.51-6.395 10.401-.053 5.848 4.964 11.696 10.947 12.76 5.787 1.031 11.675-2.3 14.049-7.944 4.777-11.366-8.226-22.002-18.601-15.217Zm-.119 70.982c-4.245 2.189-8.073 9.535-6.892 13.23 1.518 4.754 5.891 8.258 10.306 8.258 4.111 0 8.389-3.077 8.389-6.033 0-.847.729-1.313 1.618-1.034 5.102 1.597 6.568 16.049 2.302 22.688-3.604 5.61-12.829 11.698-16.425 10.842-3.286-.782-5.498 1.431-2.516 2.517 5.873 2.138 19.714-6.476 25.326-15.761 7.176-11.872 4.521-28.341-5.503-34.14-4.851-2.807-11.801-3.044-16.605-.567ZM522.244 589.262c-5.501 2.714-8.632 3.279-21.033 3.799-8.013.335-14.57 1.085-14.57 1.666 0 .582.729 1.102 1.618 1.156 15.356.926 15.881 1.036 18.26 3.816 2.275 2.657 2.383 4.659 1.664 31.086-.422 15.535-.781 30.607-.799 33.493l-.034 5.249-6.491-4.869c-7.805-5.853-14.691-7.178-27.944-5.378-25.329 3.442-42.083 19.819-46.62 45.569-3.947 22.398 1.818 42.844 15.859 56.244 10.497 10.017 17.662 13.123 31.773 13.769 13.021.596 20.423-1.267 28.176-7.093 2.735-2.056 5.326-3.737 5.757-3.737.431 0 .784 2.269.784 5.044 0 4.3.334 4.92 2.265 4.213 10.436-3.825 19.094-5.86 26.518-6.231 10.374-.518 11.636-2.203 2.025-2.702-3.719-.193-7.317-.878-7.998-1.524-.768-.728-1.12-34.418-.927-89.022.17-48.318-.171-87.824-.756-87.792-.586.03-3.973 1.491-7.527 3.244Zm-409.082 58.693c-6.658 8.282-21.252 16.602-29.12 16.602-7.347 0-3.486 3.029 4.697 3.684l7.665.614v46.668c0 52.215-.296 50.461 9.372 55.483 6.869 3.568 12.105 4.227 22.479 2.832 10.842-1.459 17.466-4.458 22.957-10.391 5.292-5.72 5.707-9.912.524-5.311-11.622 10.316-27.414 9.408-31.273-1.799-1.887-5.476-1.568-86.629.344-87.75.765-.449 7.625-1.124 15.246-1.501 13.898-.689 16.324-1.284 14.797-3.628-.532-.817-5.992-1-15.462-.518l-14.639.744-.834-4.782c-.457-2.631-.838-7.133-.846-10.003-.008-2.87-.567-5.219-1.243-5.219-.675 0-2.775 1.924-4.664 4.275Zm238.87 7.859c-8.871 1.848-23.298 11.122-23.298 14.978 0 .624-.582 1.134-1.294 1.134-.72 0-1.295-3.276-1.295-7.369 0-4.052-.51-7.368-1.133-7.368s-4.555 1.444-8.737 3.209c-6.355 2.683-22.607 6.413-28.636 6.572-.889.024-1.617.596-1.617 1.271 0 .676 3.132 1.229 6.96 1.229 4.897 0 7.487.601 8.737 2.032 1.445 1.653 1.703 9.719 1.39 43.29-.397 42.55-.801 50.243-2.73 52.073-.62.588-3.811 1.108-7.095 1.154-3.282.047-5.968.551-5.968 1.119 0 .569 12.377.979 27.504.911 15.8-.07 26.127-.54 24.269-1.105-1.78-.54-5.095-1.038-7.366-1.105-2.272-.068-4.584-.813-5.139-1.658-1.418-2.161-.624-84.117.867-89.343 3.414-11.961 20.563-19.339 31.791-13.673 13.205 6.661 12.683 4.252 12.383 57.188-.173 30.64-.716 45.883-1.671 46.975-.857.98-4.236 1.616-8.589 1.616-3.946 0-6.877.284-6.512.631 1.116 1.059 54.256 1.395 54.938.348.35-.538-1.907-.979-5.016-.979-10.816 0-10.226 2.811-10.466-49.797l-.212-46.607-3.193-4.299c-4.682-6.301-5.827-7.218-12.548-10.038-6.6-2.77-19.06-3.902-26.324-2.389Zm-147.678 1.355c-7.966 1.326-13.256 4.074-20.901 10.858-9.346 8.295-11.611 13.517-9.53 21.966 1.094 4.445 7.501 8.95 12.723 8.95 4.212 0 10.068-5.226 10.068-8.985 0-3.841-4.661-9.436-7.861-9.436-6.935 0 1.423-15.173 10.497-19.056 6.503-2.782 18.42-2.047 21.976 1.356 4.087 3.91 6.451 15.577 6.451 31.829v14.842l-11.325 2.231c-19.364 3.818-31.707 11.199-38.485 23.014-10.035 17.494.384 37.912 19.329 37.879 8.625-.016 18.75-5.429 24.408-13.053l4.132-5.564 1.592 5.198c2.049 6.696 4.517 9.189 11.251 11.366 9.278 2.999 24.402-.732 32.782-8.088 4.69-4.117 3.37-4.747-3.106-1.48-7.699 3.884-11.448 3.833-15.401-.214-3.575-3.659-3.616-4.148-2.94-34.207.6-26.729.334-46.199-.686-50.056-1.357-5.124-8.829-11.623-17.915-15.579-9.148-3.982-18.203-5.245-27.059-3.771Zm402.391.005c-12.951 3.705-28.074 16.331-34.582 28.875-16.068 30.967-4.705 68.159 25.142 82.288 7.072 3.349 8.924 3.677 20.729 3.677 11.986 0 13.603-.298 21.446-3.959 4.666-2.177 10.628-5.934 13.248-8.348 6.176-5.693 14.179-17.587 13.298-19.766-1.159-2.864-3.107-1.894-4.008 1.995-.47 2.033-3.708 6.658-7.195 10.278-27.476 28.525-64.637 1.986-64.637-46.16 0-11.623.097-12.027 2.913-12.115 1.601-.052 17.764-.015 35.917.081 18.153.095 34.025-.199 35.27-.653 2.841-1.037 2.866-3.977.092-10.671-4.661-11.243-15.547-20.051-30.09-24.346-8.303-2.452-21.162-3.001-27.543-1.176Zm145.485 1.434c-9.041 1.364-16.982 4.896-22.037 9.802l-4.103 3.982v-5.554c0-3.056-.358-5.895-.794-6.309-.437-.414-2.912.037-5.501 1.003-6.378 2.38-22.42 5.459-29.06 5.578-5.865.105-5.414.522 1.799 1.661 2.545.4 5.934 1.884 7.53 3.295l2.901 2.565-.888 45.622c-.489 25.091-1.431 46.263-2.094 47.049-.662.786-4.087 1.805-7.61 2.265-12.846 1.676-5.82 2.693 20.126 2.912 17.497.147 26.534-.208 26.534-1.042 0-.695-2.6-1.265-5.779-1.265-4.475 0-6.095-.56-7.18-2.483-.951-1.687-1.277-16.627-1.016-46.579.37-42.521.482-44.22 3.092-47.561 6.966-8.914 18.411-11.609 27.264-6.417 8.852 5.19 8.858 5.227 8.858 55.057 0 35.442-.356 45.074-1.71 46.36-.955.906-4.529 1.623-8.089 1.623-3.509 0-6.38.553-6.38 1.228 0 .769 7.919 1.228 21.166 1.228 11.642 0 24.826.363 29.298.807 6.669.661 8.022.495 7.529-.921-.41-1.179-3.136-1.844-8.579-2.094-7.415-.339-8.038-.594-8.838-3.62-.474-1.791-.477-22.82-.006-46.732.831-42.202.941-43.59 3.718-47.344 4.059-5.491 5.979-6.657 13.422-8.158 7.663-1.545 12.187-.377 17.635 4.552 6.018 5.448 6.548 11.203 5.344 58.071l-1.088 42.369-6.472.381c-3.559.209-7.024.9-7.701 1.535-.768.721 7.555 1.154 22.165 1.154 12.867 0 25.215.345 27.44.768 3.16.599 4.044.345 4.044-1.167 0-1.493-1.697-2.019-7.442-2.302l-7.442-.369v-94.727l-3.641-4.542c-13.495-16.836-46.816-16.588-57.408.426-2.532 4.065-4.314 4.74-4.314 1.634 0-3.163-9.823-11.255-15.211-12.531-8.556-2.025-12.467-2.268-19.482-1.21Zm-124.767 1.534c8.074 3.987 12.65 11.789 13.395 22.836l.454 6.755-24.269.334c-28.02.385-26.749 1.114-21.1-12.078 3.406-7.955 8.087-13.991 13.507-17.414 4.097-2.592 13.198-2.809 18.013-.433Zm-134.758 2.038c4.571 1.638 10.363 6.779 13.057 11.588 1.763 3.149 2.075 9.612 2.148 44.449l.087 40.765-4.53 4.475c-6.842 6.758-13.514 9.6-20.43 8.7-12.195-1.586-20.661-9.76-27.175-26.239-2.717-6.872-3.373-11.022-3.835-24.255-1.087-31.191 7.985-53.205 24.521-59.502 4.095-1.559 11.781-1.551 16.157.019Zm-265.876 68.545c-.33 19.245-1.349 22.572-8.443 27.59-7.228 5.111-18.627 1.396-22.466-7.322-6.2-14.078 3.916-31.534 21.382-36.899 9.956-3.058 9.866-3.216 9.527 16.631ZM1140.57 292.5c-16.44 4.591-27.37 10.315-45.43 23.797-22.52 16.813-35.06 32.057-48.79 59.292-9.91 19.668-14.43 36.431-14.26 52.845.25 24.371 8.85 40.59 28.02 52.845l10.8 6.91-.55 11.278c-.96 19.695 10.84 35.78 30.46 41.494 11.09 3.234 45.12 5.097 46.69 2.558.83-1.354-1.9-1.747-7.65-1.098-10.59 1.194-23.76-4.581-29.12-12.771-3.56-5.433-4.87-29.241-1.85-33.568.84-1.204 6.21-3.899 11.92-5.993 17.44-6.379 41.04-19.408 51.59-28.474 5.51-4.726 15.15-15.041 21.44-22.922 44.15-55.334 41.85-122.909-4.89-143.584-12.29-5.439-34.05-6.612-48.38-2.609Zm35.56 5.651c3.88 2.583 9.24 8.9 11.91 14.036 4.39 8.46 4.75 11.298 3.84 30.133-.82 16.919-2.55 25.467-9.29 45.879-9.91 29.967-16.27 43.109-29.75 61.396-25.58 34.708-47.99 46.942-69 37.652-11.64-5.153-15.1-10.28-18.05-26.819-5.62-31.464 9.2-81.573 36.64-123.926 10.52-16.231 21.45-27.476 35.95-36.983 11.97-7.853 27.16-8.404 37.75-1.368Zm241.55 78.76c-19.68 3.499-43.76 24.107-55.11 47.165-5.87 11.916-6.79 15.965-6.79 29.594 0 13.844.72 16.884 5.86 24.659 11.19 16.909 32.72 21.13 53.55 10.502 20.58-10.496 40.13-36.159 45.6-59.861 7.3-31.609-13.92-57.247-43.11-52.059Zm259.35 1.422c-8.91 4.038-15.35 10.399-20.18 19.932-4.8 9.461-5.55 14.094-7.01 43.379-1.38 27.823-2.29 33.851-5.98 39.816-9.54 15.447-30.69 16.443-43.25 2.036-5.27-6.049-6.76-9.636-6.76-16.302 0-9.874 4.69-17.79 10.53-17.79 3.25 0 3.94 1.264 3.52 6.466-.34 4.194.69 7.257 2.93 8.717 7.17 4.655 13.88-8.448 7.56-14.767-1.37-1.373-6.01-2.496-10.31-2.496-24.42 0-21.8 38.222 3.26 47.751 9.69 3.683 26.45 2.597 34.5-2.233 20.17-12.108 25.7-23.65 24.83-51.756-1.35-42.977-1.06-47.333 3.51-53.475 9.03-12.137 31.96-6.98 31.96 7.188 0 4.304-.56 4.978-2.5 3.038-1.37-1.372-4.24-2.495-6.38-2.495-2.84 0-3.71 1.258-3.22 4.678.52 3.656 2.01 4.679 6.85 4.679 12.78 0 11.81-18.333-1.33-25.129-5.92-3.06-17.15-3.676-22.53-1.237Zm78.39 1.175c-28.69 10.667-52.65 41.64-55.02 71.12-1.78 22.199 9.94 39.368 28.57 41.869 12.24 1.641 22.21-1.021 30.23-8.063 3.98-3.494 7.24-5.876 7.24-5.298 0 .58-2.97 9.799-6.61 20.489-3.63 10.69-11.44 33.938-17.37 51.664l-10.77 32.229-9.14 2.433c-8.15 2.169-6.1 2.41 18.94 2.235 15.43-.108 24.09-.555 19.23-.991-4.86-.439-8.84-1.504-8.84-2.369 0-.863 3.79-12.74 8.42-26.39 4.63-13.651 19.51-58.038 33.06-98.636 13.56-40.598 25.24-75.273 25.96-77.055 1.09-2.674-.49-3.237-9.07-3.237-9.7 0-10.48.389-11.67 5.837-1.45 6.601-4.26 7.631-5.99 2.195-2.8-8.841-23.16-13.239-37.17-8.032Zm-498.03 3.916c-.74 1.952-1.4 4.386-1.31 5.512.01.193.05.348.11.455.43.73-4.92 16.622-11.88 35.317-18.03 48.414-18.47 60.948-2.39 67.666 14 5.852 33.61-2.058 43.37-17.495 3.07-4.861 5.9-8.841 6.29-8.841.38 0 .12 4.227-.59 9.394-2.06 15.019 7.58 22.122 24.03 17.695 9.04-2.437 24.35-15.127 30.02-24.893 2.74-4.718.36-3.017-8.42 6.009-13.87 14.268-21.75 16.562-25.86 7.529-2.38-5.219 4.25-28.145 23.94-82.791l7.3-20.274h-10.1c-9.85 0-10.17.198-12.6 7.798-8.55 26.762-24.41 67.571-29.7 76.414-12.75 21.311-23.43 28.58-35.35 24.049-8.78-3.339-7.34-13.255 8.99-61.848 7.99-23.813 14.54-43.953 14.55-44.755.01-.805-4.31-1.273-9.59-1.04-6.63.291-9.04.756-10.36 3.135-.17.292-.31.612-.45.964Zm177.82-1.591c13.52 9.473 9.25 46.408-9.77 84.344-10.01 19.98-24.61 29.389-38.49 24.806-8.23-2.715-10.35-5.753-12.31-17.667-3.33-20.257 14.69-68.902 31.91-86.119 6.93-6.936 9.92-8.49 16.34-8.49 4.32 0 9.86 1.406 12.32 3.126Zm66.22-.526c-.16.522-.37 1.322-.6 2.265-.33 1.31-.68 2.896-.99 4.406-.08.382-.16.759-.23 1.126-.56 2.859-3.96 12.684-7.57 21.833-22.15 56.186-23.74 71.074-8.43 78.992 8.8 4.548 17.9 3.872 28.87-2.146 6.58-3.604 18.17-16.168 22.49-23.146 1.41-2.285 2.05-3.971 1.47-4.548-.09-.09-.35.066-.73.409-1.85 1.657-6.59 7.674-9.08 11.264-13.24 19.105-34.66 19.928-34.66 1.333 0-3.372 6.55-25.465 14.55-49.096 8.01-23.629 14.56-43.487 14.56-44.127 0-2.474-18.87-1.098-19.65 1.435Zm60.63 6.237c-1.78 4.86-7.1 19.598-11.82 32.749-4.72 13.152-10.07 27.154-11.9 31.115-.93 2.019-1.87 5.36-2.63 9.09a99.461 99.461 0 0 0-.74 4.139 79.683 79.683 0 0 0-.77 6.88c-.72 11.272-.24 13.455 3.82 17.229 2.79 2.599 7.42 4.323 11.62 4.323 10.88 0 28.55-10.372 35.25-20.689 2.71-4.184 1.65-3.693-5.05 2.322-13.03 11.711-16.48 13.065-22.75 8.956-4.6-3.017-5.12-4.489-4.03-11.332.99-6.19 24.17-72.593 31.41-89.98 1.32-3.181.21-3.639-8.82-3.639-10.27 0-10.36.061-13.59 8.837Zm225.51-.501c5.63 5.635 6.11 7.116 4.8 14.869-.8 4.737-4.67 18.061-8.59 29.612-3.93 11.548-8.26 24.273-9.62 28.276-1.36 4.003-7.21 12.191-13.01 18.194-9.28 9.608-11.54 10.916-18.9 10.916-16.16 0-24.13-17.272-20.07-43.519 7.17-46.3 44.3-79.434 65.39-58.348Zm-295.38 8.977c-2.42 3.923-8.68 11.076-13.91 15.892-5.22 4.818-8.95 9.311-8.27 9.987.68.675 4.58-1.982 8.67-5.906 6.11-5.857 16.42-19.998 21.16-28.015 1.84-3.116 2.83-5.307 2.41-5.727-.13-.136-.67.391-1.42 1.321-2.33 2.851-6.81 9.489-8.64 12.448Zm-243.51 1.436c-1.43 3.45-7.7 10.936-13.94 16.635-6.23 5.699-10.15 10.361-8.71 10.361 1.45 0 6.9-4.5 12.13-9.999 6.57-6.921 14.23-18.356 17.92-25.517 1.94-3.772 2.77-6.359 1.76-6.476a.714.714 0 0 0-.08-.004c-1.07 0-7.65 11.551-9.08 15Zm583.83 11.595c-2.72 5.955.41 14.047 7.01 18.171 5.73 3.578 14.25-3.452 14.25-11.759 0-8.641-3.19-11.804-11.9-11.804-5.42 0-7.44 1.164-9.36 5.392Zm-25.71 60.091c-4.19 6.403-2.48 14.815 3.41 16.683 5.37 1.707 10.89-2.712 9.59-7.685-1.63-6.232 2.07-4.273 4.92 2.603 2.23 5.389 2.12 7.483-.71 13.413-4.11 8.627-10.56 13.042-22.47 15.381-7.21 1.416-7.81 1.813-2.87 1.905 10.56.193 24.41-6.382 29.57-14.04 9.72-14.43 3.49-33.443-10.96-33.443-5.25 0-7.96 1.339-10.48 5.183Zm-276.6 122.174c-5.17 6.577-10.04 11.993-10.82 12.041-3.12.185-15.66 12.391-12.73 12.391 1.7 0 8.62-5.147 15.38-11.437 6.75-6.289 12.49-11.436 12.75-11.436.26 0-6.4 20.352-14.79 45.225-38.86 115.141-42.89 131.767-34.52 142.097 8.22 10.151 31.42 4.585 45.21-10.852 10.75-12.035 11.36-16.613.74-5.589-16.48 17.111-29.29 18.762-30.76 3.963-.69-6.971 4.9-26.128 28.87-98.949 12-36.486 28.98-88.772 28.98-89.273 0-.075-4.26-.137-9.46-.137-9.04 0-9.88.53-18.85 11.956Zm-451.48 65.019c-4.55 14.774-4.71 14.969-13.48 17.078l-8.88 2.135 8.04.25c6.64.206 7.84.881 6.91 3.888-.62 2-6.84 20.481-13.83 41.066-16.02 47.223-17.05 51.623-13.35 56.911 7.56 10.785 27.81 9.783 41.28-2.042 8.44-7.405 16.35-19.494 15.14-23.12-.49-1.48-2.31-.168-4.33 3.121-1.91 3.123-4.93 8.053-6.7 10.958-4.26 6.984-15.61 12.297-22.55 10.554-7.58-1.902-7.14-9.797 1.97-35.589 4.05-11.436 10.22-29.682 13.73-40.546 7.33-22.704 8.39-24.401 15.94-25.557l5.57-.85-5.72-.312c-6.82-.372-6.84-.522-1.58-17.281 2.27-7.249 4.14-13.726 4.15-14.393.02-.668-3.96-1.214-8.84-1.214h-8.87l-4.6 14.943Zm114.87 16.568c-15.72 4.265-29.17 12.711-44.43 27.892-18.07 17.974-25.91 33.645-26.11 52.186-.13 11.085.74 14.774 4.83 20.508 11.3 15.838 36.78 17.161 55.97 2.907 3.79-2.817 6.36-5.653 5.71-6.306-.65-.651-3.29.757-5.86 3.131-2.56 2.373-8.06 5.232-12.2 6.352-21.76 5.887-32.8-10.032-25.83-37.242 10.35-40.396 48.81-78.265 67.49-66.44 2.48 1.57 2.4 2.392-.52 5.311-2.63 2.63-2.94 4.408-1.3 7.464 4.43 8.278 11.43 2.627 10.57-8.531-.27-3.46-10.59-10.411-15.12-10.188-1.54.074-7.48 1.405-13.2 2.956Zm431.45-1.748c-18.51 6.036-35.45 17.381-50.26 33.678-26.77 29.455-29.36 66.157-5.53 78.479 15.45 7.987 42.92 1.121 58.71-14.674 11.22-11.211 7.32-11.785-4.56-.671-31.76 29.705-60.76 7.221-44.81-34.739l3.95-10.397 12.41-1.199c37.44-3.614 64.71-23.987 55.84-41.721-3.75-7.509-16.39-11.807-25.75-8.756Zm-523.72 3.281c-4.18 1.339-6.2.98-2.86 1.03 2.29.033 15.91-.514 18.2-1.498 5.29-2.277-8.23-1.809-15.34.468Zm202.96 7.282c-2.56 4.832-9.68 13.956-15.83 20.273-6.15 6.314-10.32 11.484-9.27 11.484 2.14 0 16.3-14.431 23.23-23.673 4.55-6.059 6.31-4.286 2.37 2.389-1.17 1.986-9.09 24.012-17.61 48.947l-15.48 45.335 9.72-.63 9.71-.633 13-36.387c7.15-20.014 14.44-38.877 16.22-41.919 1.77-3.042 2.73-6.812 2.13-8.377-.6-1.566.7-8.056 2.89-14.422l3.98-11.576-10.21.2c-9.81.191-10.39.54-14.85 8.989Zm40.46-6.344c-6.6 3.249-21.19 18.875-21.19 22.685 0 1.006 4.25-3.034 9.45-8.975 11.63-13.299 22.13-16.613 28.34-8.947 2.08 2.579 3.79 6.552 3.79 8.831s-5.73 21.54-12.73 42.802c-7.01 21.261-12.74 40.975-12.74 43.807 0 11.106 15.18 14.012 31.31 5.995 9.08-4.512 25.48-22.209 25.23-27.218-.07-1.327-1.24-.63-2.6 1.547-12.45 19.907-34.71 30.859-34.71 17.079 0-2.479 5.62-20.837 12.48-40.792 6.86-19.955 12.48-38.951 12.48-42.214 0-3.782-2.21-8.132-6.08-12.008-5.06-5.059-7.76-6.069-16.12-6.029-5.52.024-13.13 1.571-16.91 3.437Zm116.44 4.312c-27.13 13.988-50.01 42.046-53.49 65.585-3.55 24.058 16.29 45.668 38.39 41.811 11.27-1.969 24.56-10.515 30.65-19.704 7.46-11.278 5.05-12.351-2.78-1.237-11.42 16.196-27.71 19.76-38.38 8.392-4.46-4.753-4.94-7.109-4.92-24.323.01-17.433.62-20.301 7.09-33.575 12.35-25.342 35.1-44.478 50.32-42.326 3.96.559 4.95 1.95 4.95 6.937 0 4.851.92 6.237 4.16 6.237 6.12 0 6.58-8.148.69-12.274-7.98-5.595-19.99-4.129-36.68 4.477Zm-236.39 8.317c-3.1 7.719-8.82 22.825-12.72 33.568-3.89 10.742-9.96 25.189-13.47 32.105-3.51 6.913-5.02 11.436-3.35 10.049 2.61-2.162 2.89-1.227 2.01 6.598-.88 7.834-.34 9.6 3.83 12.523 9.07 6.348 26.69 3.007 39.37-7.464 5.15-4.255 15.15-18.252 13.92-19.481-.62-.622-2.85 1.807-4.97 5.395-3.56 6.055-19.86 18.716-24.08 18.716-4.44 0-9.91-4.632-9.91-8.394 0-4.818 7.69-27.025 23.54-68.02l11.46-29.63h-20l-5.63 14.035Zm410.63-10.943c8.91 10.742-19.15 38.209-43 42.079-3.78.615-6.88.415-6.88-.441 0-4.34 15.71-26.53 24.81-35.041 10.99-10.284 20.03-12.662 25.07-6.597Zm72.24-1.576c-7.45.779-13.53 6.312-13.32 11.475.02.548.11 1.092.28 1.625l.12.342c.65 1.689-2.94 14.219-7.98 27.844-7.61 20.577-15.51 44.121-22.99 68.536-1.22 3.974-.65 4.179 8.57 3.119l9.88-1.135 5.87-17.674c11.55-34.777 22.99-65.583 26.21-70.615 1.45-2.277 1.99-3.619 1.56-3.806-.07-.031-.16-.031-.28.002-.16.042-.36.137-.61.288-3.39 2.089-3.28-.354.52-11.121 3.6-10.194 3.65-10.515 1.56-10.047-.86.194-5.08.718-9.39 1.167Zm26.55 1.58c-3.43 1.516-8.58 5.371-11.44 8.567l-7.19 9.566-1.28 1.7 1.56-1.702 8.63-9.371c9.21-7.477 19.37-7.643 23.25-.382 3.62 6.766-.32 24.365-15.7 70.138l-11.01 32.749h10.29c6.42 0 10.6-.977 11.1-2.599 11.92-38.639 21.67-67.575 26.13-77.526 9.22-20.548 22.99-31.4 33.04-26.023 6.73 3.602 5.54 13.087-6.09 48.419-15.23 46.312-15.34 46.799-11.53 52.606 4.01 6.117 15.04 8.442 24.78 5.225 9.18-3.029 24.53-16.464 30.4-26.604 3.97-6.864 3.32-6.455-5.39 3.383-14.4 16.268-27.85 20.766-30.6 10.236-.62-2.358 3.07-16.53 8.22-31.566 13.72-40.109 16.2-51.857 12.44-59.12-3.31-6.401-11.08-10.792-19.08-10.792-8.46 0-24.46 9.409-30.55 17.961-3.86 5.431-5.67 6.793-5.67 4.263 0-6.453-6.08-15.797-12.41-19.07-7.29-3.765-13.48-3.782-21.9-.058Zm-48.03 19.2c-3.28 4.319-9.73 11.351-14.32 15.626-4.59 4.273-7.37 7.783-6.18 7.798 3.03.036 24.64-23.752 28.94-31.104.64-1.088.9-1.816.66-2.053-.12-.129-.46.04-.94.428-1.78 1.441-5.57 5.901-8.16 9.305Z" clip-rule="evenodd"/><path fill="#3C4043" d="M1257.39 383.424c-.74 1.952-1.4 4.386-1.31 5.512 1.94-3.772 2.77-6.359 1.76-6.476-.17.292-.31.612-.45.964ZM1500.83 383.572c-.33 1.31-.68 2.896-.99 4.406 1.84-3.116 2.83-5.307 2.41-5.727-.13-.136-.67.391-1.42 1.321ZM1534.97 464.637c1.41-2.285 2.05-3.971 1.47-4.548-.09-.09-.35.066-.73.409a99.461 99.461 0 0 0-.74 4.139ZM1694.34 686.959c.02.548.11 1.092.28 1.625.64-1.088.9-1.816.66-2.053-.12-.129-.46.04-.94.428ZM1715.86 695.195c-.07-.031-.16-.031-.28.002l-1.28 1.7 1.56-1.702ZM1098.46 675.466l.15-.024 5.57-.85-2.86-.156c-4.18 1.339-6.2.98-2.86 1.03Z"/></svg>