<svg width="1920" height="1080" fill="none" xmlns="http://www.w3.org/2000/svg"><mask id="a" style="mask-type:alpha" maskUnits="userSpaceOnUse" x="50" y="50" width="1820" height="980"><path fill="#C4C4C4" d="M50 50h1820v980H50z"/></mask><g mask="url(#a)"><rect x="978" y="223" width="695" height="948" rx="95" stroke="#3C4043" stroke-width="10"/><rect x="1013" y="329" width="623" height="868" rx="20" fill="#1A73E8"/><path d="m1081.74 568.624-5.98-.324 4.57-4.464h3.03l2.12 17.676-4.07.432-7.2-10.8 3.42 3.852c-1.25-.888-2.69-1.56-4.32-2.016-1.61-.48-3.35-.72-5.22-.72-2.97 0-5.11.408-6.41 1.224-1.29.792-1.94 2.004-1.94 3.636 0 1.152.36 2.1 1.08 2.844.72.744 1.69 1.356 2.92 1.836 1.24.48 2.65.924 4.21 1.332 1.58.384 3.24.804 4.97 1.26 1.7.456 3.42 1.032 5.14 1.728a18.5 18.5 0 0 1 4.79 2.772c1.44 1.128 2.59 2.592 3.46 4.392.89 1.776 1.33 3.984 1.33 6.624 0 3.816-.97 6.996-2.92 9.54-1.92 2.544-4.63 4.452-8.13 5.724-3.48 1.272-7.59 1.908-12.31 1.908-2.98 0-5.67-.132-8.07-.396-2.4-.264-4.88-.804-7.45-1.62l-2.48-14.868h3.6l11.26 14.724-10.47-7.128c2.06.984 3.95 1.668 5.65 2.052 1.73.384 3.64.576 5.72.576 2.86 0 5.1-.24 6.74-.72 1.65-.48 2.83-1.176 3.52-2.088.7-.912 1.05-2.028 1.05-3.348 0-1.416-.43-2.556-1.3-3.42-.86-.864-2-1.548-3.42-2.052a35.907 35.907 0 0 0-4.68-1.296c-1.68-.36-3.35-.756-5-1.188a37.941 37.941 0 0 1-4.79-1.692 15.16 15.16 0 0 1-4.14-2.664c-1.2-1.104-2.16-2.508-2.88-4.212-.7-1.704-1.04-3.804-1.04-6.3 0-3.288.87-6.096 2.62-8.424 1.78-2.328 4.29-4.116 7.53-5.364 3.26-1.248 7.13-1.872 11.59-1.872 2.57 0 4.93.216 7.09.648 2.19.408 4.45 1.14 6.81 2.196Zm28.74 12.852c3.46 0 6.34.636 8.64 1.908 2.33 1.272 4.12 3.192 5.37 5.76 1.25 2.568 2 5.784 2.27 9.648h-25.24v-4.176l17.42-.72-4.96 2.376c0-2.4-.17-4.296-.51-5.688-.31-1.416-.8-2.412-1.47-2.988-.65-.6-1.48-.9-2.49-.9-.91 0-1.7.252-2.37.756-.65.48-1.16 1.404-1.52 2.772-.36 1.368-.54 3.372-.54 6.012 0 2.712.39 4.92 1.16 6.624.79 1.68 1.96 2.928 3.52 3.744 1.59.792 3.54 1.188 5.87 1.188 1.27 0 2.45-.06 3.53-.18a19.202 19.202 0 0 0 6.26-1.8l.98 3.168c-1.85 1.632-3.65 3.06-5.4 4.284-1.76 1.2-3.51 2.136-5.26 2.808a15.036 15.036 0 0 1-5.44 1.008c-3.79 0-7.03-.72-9.72-2.16-2.68-1.44-4.75-3.456-6.19-6.048-1.41-2.592-2.12-5.604-2.12-9.036 0-3.48.68-6.6 2.05-9.36 1.39-2.784 3.44-4.98 6.16-6.588 2.71-1.608 6.04-2.412 10-2.412Zm41.88 0c3.03 0 5.44.288 7.24.864 1.8.576 3.11 1.368 3.92 2.376.82.984 1.23 2.1 1.23 3.348 0 1.104-.28 2.064-.83 2.88a5.75 5.75 0 0 1-2.13 1.908c-.84.432-1.7.648-2.59.648-.74 0-1.5-.24-2.27-.72-.76-.48-1.52-1.068-2.26-1.764-.75-.72-1.48-1.44-2.2-2.16-.7-.72-1.37-1.32-2.02-1.8-.62-.48-1.2-.72-1.72-.72-1.01 0-1.91.276-2.7.828-.77.528-1.38 1.44-1.84 2.736-.43 1.272-.65 3.036-.65 5.292 0 3.048.37 5.484 1.12 7.308.77 1.8 1.91 3.108 3.42 3.924 1.53.792 3.44 1.188 5.72 1.188 1.87 0 3.55-.144 5.04-.432 1.51-.312 3.06-.852 4.65-1.62l1 3.348c-2.13 1.992-4.12 3.588-5.97 4.788-1.85 1.176-3.59 2.028-5.22 2.556-1.61.552-3.19.828-4.75.828-3.72 0-6.92-.708-9.58-2.124-2.66-1.416-4.7-3.396-6.12-5.94-1.42-2.568-2.12-5.544-2.12-8.928 0-2.616.46-5.052 1.4-7.308a17.28 17.28 0 0 1 4.18-5.94c1.84-1.704 4.11-3.024 6.8-3.96 2.69-.936 5.77-1.404 9.25-1.404Zm34.96 29.628c1.06 0 1.93-.312 2.63-.936.72-.624 1.25-1.68 1.58-3.168.36-1.512.54-3.576.54-6.192 0-3.048-.16-5.556-.5-7.524-.34-1.968-.88-3.432-1.62-4.392-.72-.96-1.68-1.44-2.88-1.44-1.03 0-1.91.312-2.63.936-.69.624-1.22 1.68-1.58 3.168-.36 1.488-.54 3.552-.54 6.192 0 3.024.17 5.532.5 7.524.34 1.968.88 3.432 1.62 4.392.75.96 1.71 1.44 2.88 1.44Zm-.61 5.976c-3.94 0-7.3-.708-10.08-2.124-2.76-1.416-4.87-3.42-6.34-6.012-1.46-2.616-2.19-5.688-2.19-9.216 0-3.696.8-6.912 2.41-9.648 1.61-2.736 3.88-4.848 6.8-6.336 2.93-1.512 6.39-2.268 10.37-2.268 3.96 0 7.32.708 10.08 2.124 2.76 1.416 4.87 3.42 6.34 6.012 1.46 2.592 2.19 5.664 2.19 9.216 0 3.672-.8 6.876-2.41 9.612-1.58 2.736-3.84 4.86-6.77 6.372-2.92 1.512-6.39 2.268-10.4 2.268Zm41.93-27.504v22.68l2.6 1.296V616h-20.67v-2.448l4-1.692v-19.404a10.715 10.715 0 0 0-1.98-2.088 34.32 34.32 0 0 0-2.77-2.124v-2.304l13.75-4.464h2.05l3.02 8.1Zm6.12 23.976 2.6-1.296v-17.244c0-.888-.15-1.608-.44-2.16-.26-.552-.7-.948-1.33-1.188-.6-.264-1.41-.396-2.45-.396-1.1 0-2.16.108-3.16.324-.99.192-1.92.492-2.81.9l-1.26-2.448c2.04-1.944 3.77-3.492 5.18-4.644 1.42-1.152 2.64-2.004 3.67-2.556 1.06-.576 2.04-.948 2.96-1.116.91-.168 1.88-.252 2.91-.252 3.65 0 6.36.996 8.14 2.988 1.77 1.968 2.66 4.896 2.66 8.784v18.612l4.07 1.692V616h-20.74v-2.448Zm48.02-20.016c0-2.016-.34-3.588-1.04-4.716-.67-1.128-1.72-1.692-3.13-1.692-1.23 0-2.28.348-3.17 1.044-.89.696-1.57 1.872-2.05 3.528-.48 1.632-.72 3.888-.72 6.768 0 2.616.25 4.74.75 6.372.51 1.608 1.24 2.784 2.2 3.528.98.744 2.21 1.116 3.67 1.116.72 0 1.57-.072 2.56-.216a12.34 12.34 0 0 0 2.81-.828v3.276a116.256 116.256 0 0 1-4.22 2.736c-1.17.696-2.2 1.236-3.09 1.62-.89.384-1.69.648-2.41.792-.72.144-1.43.216-2.13.216-3.12 0-5.73-.672-7.85-2.016-2.11-1.368-3.7-3.276-4.78-5.724-1.06-2.448-1.59-5.292-1.59-8.532 0-3.168.55-5.952 1.66-8.352 1.1-2.4 2.6-4.416 4.5-6.048a19.233 19.233 0 0 1 6.44-3.672c2.4-.84 4.91-1.26 7.53-1.26 1.51 0 2.92.108 4.24.324 1.35.192 2.69.516 4.04.972 1.36.432 2.88 1.032 4.53 1.8h-8.75v-10.008c-.36-.408-.84-.804-1.44-1.188a15.69 15.69 0 0 0-1.98-1.188c-.74-.408-1.53-.804-2.37-1.188v-2.952l18.29-4.284h2.37l-.79 9.432v34.596c.26.288.59.6.97.936.41.312.84.636 1.3.972.48.336.96.66 1.44.972.48.288.96.552 1.44.792v2.088l-15.41 3.528h-1.69l-2.13-6.696v-16.848Zm54.42 10.944c0 1.392.47 2.436 1.4 3.132.96.696 2.47 1.044 4.54 1.044 1.01 0 2.11-.096 3.31-.288a32.93 32.93 0 0 0 3.92-.9v3.564c-2.35 1.44-4.42 2.604-6.22 3.492-1.78.888-3.38 1.536-4.79 1.944-1.42.408-2.75.612-4 .612-2.49 0-4.65-.384-6.48-1.152-1.82-.768-3.23-1.956-4.21-3.564-.98-1.632-1.48-3.708-1.48-6.228v-15.444l-5.86-4.86v-2.52c.62-.36 1.42-.828 2.41-1.404 1.01-.576 2.11-1.212 3.31-1.908 1.22-.696 2.47-1.404 3.74-2.124 1.28-.744 2.5-1.452 3.68-2.124 1.17-.696 2.23-1.308 3.16-1.836h3.57v30.564Zm-5.8-15.3.07-6.624h17.57l-.54 6.624h-17.1Zm49.85-7.38c1.9 0 3.24.54 4.04 1.62.81 1.056 1.22 2.328 1.22 3.816 0 2.016-.53 3.564-1.58 4.644-1.06 1.08-2.12 1.62-3.17 1.62-1.42 0-2.62-.072-3.6-.216-.96-.144-1.89-.288-2.77-.432-.87-.144-1.86-.216-2.99-.216-.63 0-1.18.048-1.66.144-.45.096-.9.264-1.33.504-.41.216-.86.528-1.37.936l-.97-2.304c1.58-1.968 3.01-3.6 4.28-4.896 1.28-1.296 2.45-2.316 3.53-3.06 1.11-.768 2.16-1.32 3.17-1.656 1.03-.336 2.1-.504 3.2-.504Zm-10.44 7.776v22.032l4.72 1.944V616h-22.79v-2.448l4-1.692v-19.404c-.39-.528-.82-1.02-1.3-1.476-.48-.48-1.01-.948-1.58-1.404-.55-.456-1.18-.9-1.87-1.332v-2.304l14.47-4.464h2.01l2.34 8.1Zm38.28 5.652v4.212c-1.68.288-3.03.612-4.06.972-1.04.36-1.83.756-2.38 1.188-.53.432-.89.924-1.08 1.476a5.73 5.73 0 0 0-.29 1.872c0 1.464.24 2.496.72 3.096.48.576 1.29.864 2.41.864.68 0 1.26-.144 1.77-.432.53-.312.92-.72 1.19-1.224.28-.528.43-1.116.43-1.764v-14.004c0-1.536-.4-2.712-1.19-3.528-.77-.84-2.02-1.26-3.74-1.26-.89 0-1.68.048-2.38.144-.67.072-1.25.168-1.73.288l1.3-2.952c-.22 1.464-.43 2.676-.65 3.636-.22.936-.43 1.704-.65 2.304-.21.6-.47 1.128-.75 1.584-.39.696-1.01 1.224-1.88 1.584-.84.336-1.9.504-3.2.504-1.42 0-2.48-.24-3.2-.72-.72-.504-1.08-1.2-1.08-2.088 0-1.104.51-2.22 1.54-3.348 1.04-1.128 2.46-2.148 4.29-3.06 1.85-.936 3.96-1.68 6.33-2.232 2.4-.576 4.97-.864 7.71-.864 3.43 0 6.12.492 8.06 1.476 1.95.984 3.3 2.364 4.07 4.14.79 1.752 1.19 3.804 1.19 6.156v15.192c0 .576.08 1.044.25 1.404.17.36.41.624.72.792.31.144.71.216 1.19.216.38 0 .8-.048 1.26-.144.45-.096.97-.288 1.54-.576v3.456a24.172 24.172 0 0 1-4.78 2.484c-1.71.672-3.39 1.008-5.04 1.008-1.97 0-3.58-.36-4.83-1.08-1.22-.696-2.13-1.716-2.73-3.06-.6-1.368-.95-3.024-1.05-4.968l.47-.216c-.62 2.28-1.43 4.104-2.41 5.472-.98 1.368-2.16 2.352-3.53 2.952-1.37.6-2.96.9-4.79.9-3.09 0-5.55-.744-7.38-2.232-1.82-1.512-2.73-3.84-2.73-6.984 0-1.464.27-2.784.83-3.96.57-1.2 1.62-2.304 3.13-3.312 1.51-1.008 3.65-1.944 6.41-2.808 2.76-.888 6.33-1.74 10.72-2.556Zm30.75-18.468c-2.5 0-4.43-.6-5.8-1.8-1.34-1.2-2.02-2.796-2.02-4.788 0-1.944.68-3.492 2.02-4.644 1.37-1.176 3.3-1.764 5.8-1.764 2.52 0 4.45.588 5.79 1.764 1.37 1.152 2.05 2.7 2.05 4.644 0 1.992-.68 3.588-2.05 4.788-1.34 1.2-3.27 1.8-5.79 1.8Zm7.77 4.716-.68 10.008v20.376l3.99 1.692V616h-22.06v-2.448l3.99-1.692v-19.872a10.05 10.05 0 0 0-1.26-1.404c-.48-.48-1.02-.96-1.62-1.44-.6-.48-1.22-.948-1.87-1.404v-2.268l16.38-3.996h3.13Zm24.05 30.384 3.99 1.692V616h-22.06v-2.448l3.99-1.692v-36.684a9.26 9.26 0 0 0-1.4-1.332c-.53-.456-1.17-.912-1.91-1.368a31.93 31.93 0 0 0-2.48-1.476v-2.952l18.28-4.284h2.42l-.83 9.432v38.664Zm25.61-30.384c3.46 0 6.34.636 8.64 1.908 2.33 1.272 4.12 3.192 5.37 5.76 1.24 2.568 2 5.784 2.26 9.648h-25.23v-4.176l17.42-.72-4.97 2.376c0-2.4-.16-4.296-.5-5.688-.31-1.416-.8-2.412-1.48-2.988-.64-.6-1.47-.9-2.48-.9-.91 0-1.7.252-2.38.756-.64.48-1.15 1.404-1.51 2.772-.36 1.368-.54 3.372-.54 6.012 0 2.712.39 4.92 1.15 6.624.8 1.68 1.97 2.928 3.53 3.744 1.59.792 3.54 1.188 5.87 1.188 1.27 0 2.45-.06 3.53-.18a19.202 19.202 0 0 0 6.26-1.8l.97 3.168c-1.84 1.632-3.64 3.06-5.4 4.284-1.75 1.2-3.5 2.136-5.25 2.808a15.075 15.075 0 0 1-5.44 1.008c-3.79 0-7.03-.72-9.72-2.16-2.69-1.44-4.75-3.456-6.19-6.048-1.42-2.592-2.12-5.604-2.12-9.036 0-3.48.68-6.6 2.05-9.36 1.39-2.784 3.44-4.98 6.15-6.588 2.72-1.608 6.05-2.412 10.01-2.412Zm48.94.324c1.89 0 3.24.54 4.03 1.62.82 1.056 1.22 2.328 1.22 3.816 0 2.016-.52 3.564-1.58 4.644s-2.11 1.62-3.17 1.62c-1.41 0-2.61-.072-3.6-.216-.96-.144-1.88-.288-2.77-.432-.86-.144-1.86-.216-2.99-.216-.62 0-1.17.048-1.65.144-.46.096-.9.264-1.34.504-.4.216-.86.528-1.36.936l-.98-2.304c1.59-1.968 3.02-3.6 4.29-4.896 1.27-1.296 2.45-2.316 3.53-3.06 1.1-.768 2.16-1.32 3.16-1.656a10.33 10.33 0 0 1 3.21-.504Zm-10.44 7.776v22.032l4.71 1.944V616h-22.78v-2.448l3.99-1.692v-19.404c-.38-.528-.81-1.02-1.29-1.476-.48-.48-1.01-.948-1.59-1.404-.55-.456-1.17-.9-1.87-1.332v-2.304l14.47-4.464h2.02l2.34 8.1ZM1073.71 671.8c1.89 0 3.24.54 4.03 1.62.82 1.056 1.22 2.328 1.22 3.816 0 2.016-.52 3.564-1.58 4.644s-2.11 1.62-3.17 1.62c-1.41 0-2.61-.072-3.6-.216-.96-.144-1.88-.288-2.77-.432-.86-.144-1.86-.216-2.99-.216-.62 0-1.17.048-1.65.144-.46.096-.9.264-1.34.504-.4.216-.86.528-1.36.936l-.98-2.304c1.59-1.968 3.02-3.6 4.29-4.896 1.27-1.296 2.45-2.316 3.53-3.06 1.1-.768 2.16-1.32 3.16-1.656a10.33 10.33 0 0 1 3.21-.504Zm-10.44 7.776v22.032l4.71 1.944V706h-22.78v-2.448l3.99-1.692v-19.404c-.38-.528-.81-1.02-1.29-1.476-.48-.48-1.01-.948-1.59-1.404-.55-.456-1.17-.9-1.87-1.332v-2.304l14.47-4.464h2.02l2.34 8.1Zm35.54-8.1c3.46 0 6.34.636 8.64 1.908 2.33 1.272 4.12 3.192 5.37 5.76 1.24 2.568 2 5.784 2.26 9.648h-25.23v-4.176l17.42-.72-4.97 2.376c0-2.4-.16-4.296-.5-5.688-.31-1.416-.8-2.412-1.48-2.988-.64-.6-1.47-.9-2.48-.9-.91 0-1.7.252-2.38.756-.64.48-1.15 1.404-1.51 2.772-.36 1.368-.54 3.372-.54 6.012 0 2.712.39 4.92 1.15 6.624.8 1.68 1.97 2.928 3.53 3.744 1.59.792 3.54 1.188 5.87 1.188 1.27 0 2.45-.06 3.53-.18a19.202 19.202 0 0 0 6.26-1.8l.97 3.168c-1.84 1.632-3.64 3.06-5.4 4.284-1.75 1.2-3.5 2.136-5.25 2.808a15.075 15.075 0 0 1-5.44 1.008c-3.79 0-7.03-.72-9.72-2.16-2.69-1.44-4.75-3.456-6.19-6.048-1.42-2.592-2.12-5.604-2.12-9.036 0-3.48.68-6.6 2.05-9.36 1.39-2.784 3.44-4.98 6.15-6.588 2.72-1.608 6.05-2.412 10.01-2.412Zm37.6 30.384 3.99 1.692V706h-22.06v-2.448l3.99-1.692v-36.684a9.26 9.26 0 0 0-1.4-1.332c-.53-.456-1.17-.912-1.91-1.368a31.93 31.93 0 0 0-2.48-1.476v-2.952l18.28-4.284h2.42l-.83 9.432v38.664Zm25.61-30.384c3.46 0 6.34.636 8.64 1.908 2.33 1.272 4.12 3.192 5.37 5.76 1.24 2.568 2 5.784 2.26 9.648h-25.23v-4.176l17.42-.72-4.97 2.376c0-2.4-.16-4.296-.5-5.688-.31-1.416-.8-2.412-1.48-2.988-.64-.6-1.47-.9-2.48-.9-.91 0-1.7.252-2.38.756-.64.48-1.15 1.404-1.51 2.772-.36 1.368-.54 3.372-.54 6.012 0 2.712.39 4.92 1.15 6.624.8 1.68 1.97 2.928 3.53 3.744 1.59.792 3.54 1.188 5.87 1.188 1.27 0 2.45-.06 3.53-.18a19.202 19.202 0 0 0 6.26-1.8l.97 3.168c-1.84 1.632-3.64 3.06-5.4 4.284-1.75 1.2-3.5 2.136-5.25 2.808a15.075 15.075 0 0 1-5.44 1.008c-3.79 0-7.03-.72-9.72-2.16-2.69-1.44-4.75-3.456-6.19-6.048-1.42-2.592-2.12-5.604-2.12-9.036 0-3.48.68-6.6 2.05-9.36 1.39-2.784 3.44-4.98 6.15-6.588 2.72-1.608 6.05-2.412 10.01-2.412Zm41.2 13.752v4.212c-1.68.288-3.04.612-4.07.972-1.03.36-1.82.756-2.38 1.188-.52.432-.88.924-1.08 1.476-.19.552-.28 1.176-.28 1.872 0 1.464.24 2.496.72 3.096.48.576 1.28.864 2.41.864.67 0 1.26-.144 1.76-.432.53-.312.93-.72 1.19-1.224.29-.528.43-1.116.43-1.764v-14.004c0-1.536-.39-2.712-1.19-3.528-.76-.84-2.01-1.26-3.74-1.26-.89 0-1.68.048-2.38.144-.67.072-1.24.168-1.72.288l1.29-2.952a45.706 45.706 0 0 1-.65 3.636c-.21.936-.43 1.704-.64 2.304-.22.6-.47 1.128-.76 1.584-.38.696-1.01 1.224-1.87 1.584-.84.336-1.91.504-3.21.504-1.41 0-2.48-.24-3.2-.72-.72-.504-1.08-1.2-1.08-2.088 0-1.104.52-2.22 1.55-3.348 1.03-1.128 2.46-2.148 4.28-3.06 1.85-.936 3.96-1.68 6.34-2.232 2.4-.576 4.97-.864 7.7-.864 3.43 0 6.12.492 8.07 1.476 1.94.984 3.3 2.364 4.06 4.14.8 1.752 1.19 3.804 1.19 6.156v15.192c0 .576.09 1.044.25 1.404.17.36.41.624.72.792.32.144.71.216 1.19.216.39 0 .81-.048 1.26-.144.46-.096.97-.288 1.55-.576v3.456a24.256 24.256 0 0 1-4.79 2.484c-1.7.672-3.38 1.008-5.04 1.008-1.97 0-3.57-.36-4.82-1.08-1.23-.696-2.14-1.716-2.74-3.06-.6-1.368-.95-3.024-1.04-4.968l.47-.216c-.63 2.28-1.43 4.104-2.42 5.472-.98 1.368-2.16 2.352-3.52 2.952-1.37.6-2.97.9-4.79.9-3.1 0-5.56-.744-7.38-2.232-1.83-1.512-2.74-3.84-2.74-6.984 0-1.464.28-2.784.83-3.96.58-1.2 1.62-2.304 3.13-3.312 1.51-1.008 3.65-1.944 6.41-2.808 2.76-.888 6.34-1.74 10.73-2.556Zm36.32-13.752c2.35 0 4.37.132 6.05.396 1.68.24 3.36.636 5.04 1.188l.5 9.18h-3.71l-5.11-8.568 3.89 3.672a16.519 16.519 0 0 0-3.28-1.008c-1.1-.24-2.07-.36-2.91-.36-1.9 0-3.29.264-4.18.792-.89.504-1.33 1.272-1.33 2.304 0 .672.17 1.272.5 1.8.36.504 1.13.996 2.31 1.476 1.2.48 3.07 1.02 5.61 1.62 1.9.432 3.51.984 4.83 1.656 1.34.648 2.43 1.428 3.27 2.34a8.07 8.07 0 0 1 1.84 3.096c.41 1.176.61 2.484.61 3.924 0 2.64-.68 4.86-2.05 6.66-1.34 1.776-3.29 3.132-5.83 4.068-2.52.912-5.57 1.368-9.15 1.368-2.25 0-4.44-.144-6.55-.432-2.11-.288-3.92-.684-5.43-1.188l-1.08-10.08h3.31l5.87 9.54-5.69-3.6c.77.24 1.59.432 2.48.576a53.5 53.5 0 0 0 2.74.36c.91.072 1.77.108 2.59.108 2.3 0 4.02-.312 5.15-.936 1.13-.648 1.69-1.632 1.69-2.952 0-.6-.12-1.116-.36-1.548-.24-.456-.68-.864-1.33-1.224-.63-.36-1.53-.72-2.7-1.08-1.15-.384-2.64-.792-4.47-1.224-2.44-.6-4.34-1.392-5.68-2.376-1.35-1.008-2.28-2.184-2.81-3.528-.51-1.368-.76-2.844-.76-4.428 0-2.544.69-4.68 2.05-6.408 1.4-1.728 3.3-3.024 5.73-3.888 2.45-.864 5.23-1.296 8.35-1.296Zm36.25 0c3.45 0 6.33.636 8.64 1.908 2.33 1.272 4.11 3.192 5.36 5.76 1.25 2.568 2.01 5.784 2.27 9.648h-25.24v-4.176l17.43-.72-4.97 2.376c0-2.4-.17-4.296-.5-5.688-.32-1.416-.81-2.412-1.48-2.988-.65-.6-1.48-.9-2.48-.9-.92 0-1.71.252-2.38.756-.65.48-1.15 1.404-1.51 2.772-.36 1.368-.54 3.372-.54 6.012 0 2.712.38 4.92 1.15 6.624.79 1.68 1.97 2.928 3.53 3.744 1.58.792 3.54 1.188 5.87 1.188 1.27 0 2.44-.06 3.52-.18a19.166 19.166 0 0 0 6.27-1.8l.97 3.168c-1.85 1.632-3.65 3.06-5.4 4.284-1.75 1.2-3.5 2.136-5.26 2.808a15.022 15.022 0 0 1-5.43 1.008c-3.79 0-7.03-.72-9.72-2.16-2.69-1.44-4.75-3.456-6.19-6.048-1.42-2.592-2.13-5.604-2.13-9.036 0-3.48.69-6.6 2.05-9.36 1.4-2.784 3.45-4.98 6.16-6.588 2.71-1.608 6.05-2.412 10.01-2.412Zm44.54 12.06c0-2.016-.35-3.588-1.04-4.716-.67-1.128-1.72-1.692-3.13-1.692-1.23 0-2.28.348-3.17 1.044-.89.696-1.57 1.872-2.05 3.528-.48 1.632-.72 3.888-.72 6.768 0 2.616.25 4.74.75 6.372.51 1.608 1.24 2.784 2.2 3.528.98.744 2.21 1.116 3.67 1.116.72 0 1.57-.072 2.56-.216.98-.168 1.92-.444 2.8-.828v3.276a108.64 108.64 0 0 1-4.21 2.736c-1.17.696-2.21 1.236-3.09 1.62-.89.384-1.7.648-2.42.792-.72.144-1.42.216-2.12.216-3.12 0-5.74-.672-7.85-2.016-2.11-1.368-3.71-3.276-4.79-5.724-1.05-2.448-1.58-5.292-1.58-8.532 0-3.168.55-5.952 1.66-8.352 1.1-2.4 2.6-4.416 4.5-6.048a19.233 19.233 0 0 1 6.44-3.672c2.4-.84 4.91-1.26 7.52-1.26 1.52 0 2.93.108 4.25.324 1.35.192 2.69.516 4.03.972 1.37.432 2.88 1.032 4.54 1.8h-8.75v-10.008c-.36-.408-.84-.804-1.44-1.188a15.69 15.69 0 0 0-1.98-1.188c-.74-.408-1.53-.804-2.37-1.188v-2.952l18.28-4.284h2.38l-.79 9.432v34.596c.26.288.59.6.97.936.41.312.84.636 1.3.972.48.336.96.66 1.44.972.48.288.96.552 1.44.792v2.088l-15.41 3.528h-1.69l-2.13-6.696v-16.848Zm46.09-4.356-3.96 1.296-6.84-2.988v-2.268l7.45-3.6 6.98.936h17.14l-.54 6.624h-20.23Zm10.11 22.464 4.79 1.908V706h-22.86v-2.448l4-1.692v-27.576c0-3.504.51-6.54 1.55-9.108 1.05-2.568 2.56-4.692 4.53-6.372 1.97-1.68 4.35-2.94 7.13-3.78 2.81-.84 5.95-1.26 9.43-1.26 2.23 0 4.09.156 5.58.468 1.49.288 2.67.696 3.53 1.224.86.528 1.48 1.152 1.84 1.872.38.72.57 1.512.57 2.376 0 1.44-.5 2.652-1.51 3.636s-2.28 1.476-3.82 1.476c-.79 0-1.53-.276-2.23-.828a46.823 46.823 0 0 1-2.12-1.944 13.271 13.271 0 0 0-2.45-1.98c-.91-.576-1.98-.864-3.2-.864-1.06 0-1.95.216-2.67.648-.69.408-1.22 1.032-1.58 1.872-.34.84-.51 1.908-.51 3.204v36.72Zm31.22-.54c1.06 0 1.93-.312 2.63-.936.72-.624 1.25-1.68 1.58-3.168.36-1.512.54-3.576.54-6.192 0-3.048-.16-5.556-.5-7.524-.34-1.968-.88-3.432-1.62-4.392-.72-.96-1.68-1.44-2.88-1.44-1.03 0-1.91.312-2.63.936-.69.624-1.22 1.68-1.58 3.168-.36 1.488-.54 3.552-.54 6.192 0 3.024.17 5.532.5 7.524.34 1.968.88 3.432 1.62 4.392.75.96 1.71 1.44 2.88 1.44Zm-.61 5.976c-3.94 0-7.3-.708-10.08-2.124-2.76-1.416-4.87-3.42-6.34-6.012-1.46-2.616-2.19-5.688-2.19-9.216 0-3.696.8-6.912 2.41-9.648 1.61-2.736 3.88-4.848 6.8-6.336 2.93-1.512 6.39-2.268 10.37-2.268 3.96 0 7.32.708 10.08 2.124 2.76 1.416 4.87 3.42 6.34 6.012 1.46 2.592 2.19 5.664 2.19 9.216 0 3.672-.8 6.876-2.41 9.612-1.58 2.736-3.84 4.86-6.77 6.372-2.92 1.512-6.39 2.268-10.4 2.268Zm52.37-35.28c1.9 0 3.24.54 4.03 1.62.82 1.056 1.23 2.328 1.23 3.816 0 2.016-.53 3.564-1.59 4.644-1.05 1.08-2.11 1.62-3.16 1.62-1.42 0-2.62-.072-3.6-.216-.96-.144-1.89-.288-2.78-.432-.86-.144-1.86-.216-2.98-.216-.63 0-1.18.048-1.66.144-.46.096-.9.264-1.33.504-.41.216-.87.528-1.37.936l-.97-2.304c1.58-1.968 3.01-3.6 4.28-4.896 1.27-1.296 2.45-2.316 3.53-3.06 1.1-.768 2.16-1.32 3.17-1.656 1.03-.336 2.1-.504 3.2-.504Zm-10.44 7.776v22.032l4.72 1.944V706H1431v-2.448l4-1.692v-19.404c-.39-.528-.82-1.02-1.3-1.476-.48-.48-1.01-.948-1.58-1.404-.56-.456-1.18-.9-1.88-1.332v-2.304l14.48-4.464h2.01l2.34 8.1Zm-385.8 90v22.68l2.59 1.296V796h-20.66v-2.448l3.99-1.692v-19.404a10.715 10.715 0 0 0-1.98-2.088c-.74-.648-1.67-1.356-2.77-2.124v-2.304l13.75-4.464h2.05l3.03 8.1Zm6.12 23.976 2.59-1.296v-17.244c0-.888-.14-1.608-.43-2.16-.27-.552-.71-.948-1.33-1.188-.6-.264-1.42-.396-2.45-.396-1.11 0-2.16.108-3.17.324-.98.192-1.92.492-2.81.9l-1.26-2.448c2.04-1.944 3.77-3.492 5.19-4.644 1.41-1.152 2.64-2.004 3.67-2.556 1.05-.576 2.04-.948 2.95-1.116.91-.168 1.88-.252 2.92-.252 3.64 0 6.36.996 8.13 2.988 1.78 1.968 2.67 4.896 2.67 8.784v18.612l4.06 1.692V796h-20.73v-2.448Zm42.01-32.076c3.45 0 6.33.636 8.64 1.908 2.33 1.272 4.11 3.192 5.36 5.76 1.25 2.568 2.01 5.784 2.27 9.648h-25.24v-4.176l17.43-.72-4.97 2.376c0-2.4-.17-4.296-.5-5.688-.32-1.416-.81-2.412-1.48-2.988-.65-.6-1.48-.9-2.48-.9-.92 0-1.71.252-2.38.756-.65.48-1.15 1.404-1.51 2.772-.36 1.368-.54 3.372-.54 6.012 0 2.712.38 4.92 1.15 6.624.79 1.68 1.97 2.928 3.53 3.744 1.58.792 3.54 1.188 5.87 1.188 1.27 0 2.44-.06 3.52-.18a19.166 19.166 0 0 0 6.27-1.8l.97 3.168c-1.85 1.632-3.65 3.06-5.4 4.284-1.75 1.2-3.5 2.136-5.26 2.808a15.022 15.022 0 0 1-5.43 1.008c-3.79 0-7.03-.72-9.72-2.16-2.69-1.44-4.75-3.456-6.19-6.048-1.42-2.592-2.13-5.604-2.13-9.036 0-3.48.69-6.6 2.05-9.36 1.4-2.784 3.45-4.98 6.16-6.588 2.71-1.608 6.05-2.412 10.01-2.412Zm69.65 4.86-3.13-1.188v-2.592h13.11v2.592l-3.17 1.224-8.14 29.628h-11.66l-9.25-23.976 3.09-1.296-9.14 25.272h-11.7l-8.53-29.16-4.14-1.764v-2.52h21.78v2.592l-3.42 1.152 5.65 22.14-2.67-.216 8.82-25.668h11.09l9.54 26.388-2.95-.072 4.82-22.536Zm59.17 2.844H1217l-3.96 1.296-6.84-2.988v-2.268l7.46-3.6 6.98.936h17.64l11.45-.72h3.13l-.68 9.648v20.376l3.99 1.692V796h-22.07v-2.448l4-1.692v-24.552l2.12 1.872Zm-13.1 22.68 4 1.692V796h-22.07v-2.448l3.99-1.692v-27.576c0-3.504.53-6.54 1.59-9.108 1.05-2.568 2.59-4.692 4.61-6.372 2.04-1.68 4.5-2.94 7.38-3.78 2.88-.84 6.13-1.26 9.75-1.26 3.58 0 6.35.3 8.32.9 1.99.6 3.38 1.404 4.17 2.412.82.984 1.23 2.076 1.23 3.276 0 .984-.25 1.92-.76 2.808-.5.864-1.2 1.56-2.09 2.088-.88.504-1.93.756-3.13.756-1.01 0-1.87-.336-2.59-1.008a26.607 26.607 0 0 1-2.16-2.376c-.72-.888-1.57-1.68-2.56-2.376-.98-.696-2.23-1.044-3.74-1.044-1.39 0-2.52.216-3.38.648-.87.408-1.52 1.068-1.95 1.98-.41.888-.61 2.052-.61 3.492v36.54Zm49.77 0 4 1.692V796h-22.07v-2.448l4-1.692v-36.684a9.86 9.86 0 0 0-1.41-1.332 14.34 14.34 0 0 0-1.91-1.368c-.72-.48-1.54-.972-2.48-1.476v-2.952l18.29-4.284h2.41l-.83 9.432v38.664Zm25.58-22.284v22.68l2.27 1.296V796h-20.34v-2.448l4-1.692v-19.404a11.347 11.347 0 0 0-1.98-2.088 32.942 32.942 0 0 0-2.78-2.124v-2.304l13.76-4.464h2.05l3.02 8.1Zm21.82 3.204v19.476l2.3 1.296V796h-18.65v-2.448l2.31-1.296v-17.784c0-.84-.13-1.5-.4-1.98-.24-.504-.65-.864-1.22-1.08-.55-.24-1.3-.36-2.23-.36-1.01 0-1.97.096-2.88.288-.92.168-1.78.432-2.6.792l-1.18-2.412c1.96-1.896 3.62-3.384 4.96-4.464 1.37-1.104 2.56-1.92 3.57-2.448 1.03-.552 1.98-.912 2.84-1.08.89-.168 1.83-.252 2.81-.252 2.35 0 4.28.42 5.8 1.26 1.53.84 2.67 2.1 3.42 3.78.76 1.68 1.15 3.768 1.15 6.264Zm21.85 0v19.08l4.03 1.692V796h-20.37v-2.448l2.3-1.296v-17.784c0-.84-.13-1.5-.4-1.98-.24-.504-.64-.864-1.22-1.08-.55-.24-1.31-.36-2.27-.36-1.01 0-1.97.096-2.88.288-.91.168-1.77.432-2.59.792l-1.19-2.412c1.97-1.872 3.64-3.36 5.01-4.464 1.36-1.104 2.55-1.92 3.56-2.448 1.01-.552 1.94-.912 2.81-1.08.89-.168 1.82-.252 2.81-.252 3.52 0 6.14.96 7.84 2.88 1.71 1.896 2.56 4.704 2.56 8.424Zm33.51-16.02c-2.5 0-4.43-.6-5.8-1.8-1.34-1.2-2.01-2.796-2.01-4.788 0-1.944.67-3.492 2.01-4.644 1.37-1.176 3.3-1.764 5.8-1.764 2.52 0 4.45.588 5.79 1.764 1.37 1.152 2.06 2.7 2.06 4.644 0 1.992-.69 3.588-2.06 4.788-1.34 1.2-3.27 1.8-5.79 1.8Zm7.77 4.716-.68 10.008v20.376l4 1.692V796h-22.07v-2.448l3.99-1.692v-19.872a10.05 10.05 0 0 0-1.26-1.404c-.48-.48-1.02-.96-1.62-1.44-.6-.48-1.22-.948-1.87-1.404v-2.268l16.38-3.996h3.13Zm24.95 8.1v22.68l2.59 1.296V796h-20.66v-2.448l3.99-1.692v-19.404a10.715 10.715 0 0 0-1.98-2.088c-.74-.648-1.66-1.356-2.77-2.124v-2.304l13.75-4.464h2.06l3.02 8.1Zm6.12 23.976 2.59-1.296v-17.244c0-.888-.14-1.608-.43-2.16-.26-.552-.71-.948-1.33-1.188-.6-.264-1.42-.396-2.45-.396-1.1 0-2.16.108-3.17.324-.98.192-1.92.492-2.81.9l-1.26-2.448c2.04-1.944 3.77-3.492 5.19-4.644 1.41-1.152 2.64-2.004 3.67-2.556 1.06-.576 2.04-.948 2.95-1.116.91-.168 1.89-.252 2.92-.252 3.65 0 6.36.996 8.13 2.988 1.78 1.968 2.67 4.896 2.67 8.784v18.612l4.07 1.692V796h-20.74v-2.448Zm-323.15 62.784-3.13-1.188v-2.592h13.11v2.592l-3.17 1.224-8.14 29.628h-11.66l-9.25-23.976 3.09-1.296-9.14 25.272h-11.7l-8.53-29.16-4.14-1.764v-2.52h21.78v2.592l-3.42 1.152 5.65 22.14-2.67-.216 8.82-25.668h11.09l9.54 26.388-2.95-.072 4.82-22.536Zm30.46 24.768c1.06 0 1.93-.312 2.63-.936.72-.624 1.25-1.68 1.58-3.168.36-1.512.54-3.576.54-6.192 0-3.048-.17-5.556-.5-7.524-.34-1.968-.88-3.432-1.62-4.392-.72-.96-1.68-1.44-2.88-1.44-1.03 0-1.91.312-2.63.936-.7.624-1.22 1.68-1.58 3.168-.36 1.488-.54 3.552-.54 6.192 0 3.024.16 5.532.5 7.524.34 1.968.88 3.432 1.62 4.392.74.96 1.7 1.44 2.88 1.44Zm-.61 5.976c-3.94 0-7.3-.708-10.08-2.124-2.76-1.416-4.87-3.42-6.34-6.012-1.46-2.616-2.19-5.688-2.19-9.216 0-3.696.8-6.912 2.41-9.648 1.61-2.736 3.87-4.848 6.8-6.336 2.93-1.512 6.39-2.268 10.37-2.268 3.96 0 7.32.708 10.08 2.124 2.76 1.416 4.87 3.42 6.34 6.012 1.46 2.592 2.19 5.664 2.19 9.216 0 3.672-.8 6.876-2.41 9.612-1.58 2.736-3.84 4.86-6.77 6.372-2.93 1.512-6.39 2.268-10.4 2.268Zm52.37-35.28c1.9 0 3.24.54 4.03 1.62.82 1.056 1.23 2.328 1.23 3.816 0 2.016-.53 3.564-1.59 4.644-1.05 1.08-2.11 1.62-3.17 1.62-1.41 0-2.61-.072-3.6-.216-.96-.144-1.88-.288-2.77-.432-.86-.144-1.86-.216-2.99-.216-.62 0-1.17.048-1.65.144-.46.096-.9.264-1.33.504-.41.216-.87.528-1.37.936l-.97-2.304c1.58-1.968 3.01-3.6 4.28-4.896 1.27-1.296 2.45-2.316 3.53-3.06 1.1-.768 2.16-1.32 3.17-1.656 1.03-.336 2.1-.504 3.2-.504Zm-10.44 7.776v22.032l4.72 1.944V886h-22.79v-2.448l3.99-1.692v-19.404c-.38-.528-.81-1.02-1.29-1.476-.48-.48-1.01-.948-1.59-1.404-.55-.456-1.17-.9-1.87-1.332v-2.304l14.47-4.464h2.02l2.34 8.1Zm35.52 22.284 4 1.692V886h-22.07v-2.448l4-1.692v-36.684a9.86 9.86 0 0 0-1.41-1.332 14.34 14.34 0 0 0-1.91-1.368c-.72-.48-1.54-.972-2.48-1.476v-2.952l18.29-4.284h2.41l-.83 9.432v38.664Zm31.63-18.324c0-2.016-.35-3.588-1.04-4.716-.68-1.128-1.72-1.692-3.14-1.692-1.22 0-2.28.348-3.16 1.044-.89.696-1.58 1.872-2.06 3.528-.48 1.632-.72 3.888-.72 6.768 0 2.616.26 4.74.76 6.372.5 1.608 1.24 2.784 2.2 3.528.98.744 2.2 1.116 3.67 1.116.72 0 1.57-.072 2.55-.216.99-.168 1.92-.444 2.81-.828v3.276a108.64 108.64 0 0 1-4.21 2.736c-1.18.696-2.21 1.236-3.1 1.62-.88.384-1.69.648-2.41.792-.72.144-1.43.216-2.12.216-3.12 0-5.74-.672-7.85-2.016-2.11-1.368-3.71-3.276-4.79-5.724-1.05-2.448-1.58-5.292-1.58-8.532 0-3.168.55-5.952 1.65-8.352 1.11-2.4 2.61-4.416 4.5-6.048a19.376 19.376 0 0 1 6.45-3.672c2.4-.84 4.91-1.26 7.52-1.26 1.51 0 2.93.108 4.25.324 1.34.192 2.69.516 4.03.972 1.37.432 2.88 1.032 4.54 1.8h-8.75v-10.008c-.36-.408-.84-.804-1.44-1.188-.58-.408-1.24-.804-1.98-1.188-.74-.408-1.54-.804-2.38-1.188v-2.952l18.29-4.284h2.38l-.79 9.432v34.596c.26.288.58.6.97.936.41.312.84.636 1.29.972.48.336.96.66 1.44.972.48.288.96.552 1.44.792v2.088l-15.4 3.528h-1.7l-2.12-6.696v-16.848Zm22.09-8.028c2.5-1.152 4.14-2.232 4.93-3.24.8-1.032 1.19-2.016 1.19-2.952 0-.792-.3-1.476-.9-2.052-.6-.6-1.29-1.128-2.09-1.584-.76-.456-1.45-.876-2.05-1.26-.6-.408-.9-.84-.9-1.296 0-1.968.69-3.66 2.05-5.076 1.37-1.416 3.2-2.124 5.48-2.124 2.37 0 4.23.684 5.58 2.052 1.36 1.368 2.05 3.24 2.05 5.616 0 2.28-.42 4.344-1.26 6.192-.82 1.848-2.21 3.552-4.18 5.112-1.94 1.56-4.62 3.036-8.03 4.428l-1.87-3.816Zm32.61-4.032c2.35 0 4.37.132 6.05.396 1.68.24 3.36.636 5.04 1.188l.5 9.18h-3.71l-5.11-8.568 3.89 3.672a16.519 16.519 0 0 0-3.28-1.008c-1.1-.24-2.07-.36-2.91-.36-1.9 0-3.29.264-4.18.792-.89.504-1.33 1.272-1.33 2.304 0 .672.17 1.272.5 1.8.36.504 1.13.996 2.31 1.476 1.2.48 3.07 1.02 5.61 1.62 1.9.432 3.51.984 4.83 1.656 1.34.648 2.43 1.428 3.27 2.34a8.07 8.07 0 0 1 1.84 3.096c.41 1.176.61 2.484.61 3.924 0 2.64-.68 4.86-2.05 6.66-1.34 1.776-3.29 3.132-5.83 4.068-2.52.912-5.57 1.368-9.15 1.368-2.25 0-4.44-.144-6.55-.432-2.11-.288-3.92-.684-5.43-1.188l-1.08-10.08h3.31l5.87 9.54-5.69-3.6c.77.24 1.59.432 2.48.576a53.5 53.5 0 0 0 2.74.36c.91.072 1.77.108 2.59.108 2.3 0 4.02-.312 5.15-.936 1.13-.648 1.69-1.632 1.69-2.952 0-.6-.12-1.116-.36-1.548-.24-.456-.68-.864-1.33-1.224-.63-.36-1.53-.72-2.7-1.08-1.15-.384-2.64-.792-4.47-1.224-2.44-.6-4.34-1.392-5.68-2.376-1.35-1.008-2.28-2.184-2.81-3.528-.51-1.368-.76-2.844-.76-4.428 0-2.544.69-4.68 2.05-6.408 1.4-1.728 3.3-3.024 5.73-3.888 2.45-.864 5.23-1.296 8.35-1.296Zm43.87 29.988h2.7l-6.59 5.256-5.58-.576 1.52-8.424v-32.544a9.86 9.86 0 0 0-1.41-1.332 14.34 14.34 0 0 0-1.91-1.368c-.72-.48-1.54-.972-2.48-1.476v-2.952l18.29-4.284h2.37l-.79 9.432v31.068c0 1.512.16 2.784.47 3.816.31 1.008.8 1.776 1.48 2.304.67.504 1.52.756 2.55.756 1.15 0 2.15-.348 2.99-1.044.84-.696 1.49-1.884 1.94-3.564.46-1.704.69-4.044.69-7.02 0-2.448-.25-4.44-.76-5.976-.48-1.536-1.22-2.664-2.23-3.384-.98-.72-2.2-1.08-3.64-1.08-.5 0-1.06.036-1.69.108-.62.072-1.26.18-1.91.324-.64.144-1.26.36-1.83.648l-1.91-2.664a85.118 85.118 0 0 1 4.32-2.736c1.3-.768 2.48-1.392 3.56-1.872 1.08-.48 2.1-.828 3.06-1.044.99-.24 1.95-.36 2.88-.36 3.12 0 5.74.672 7.85 2.016 2.11 1.344 3.7 3.24 4.75 5.688 1.06 2.448 1.59 5.304 1.59 8.568 0 3.336-.52 6.228-1.55 8.676-1.01 2.424-2.39 4.428-4.14 6.012-1.73 1.584-3.66 2.76-5.8 3.528a19.843 19.843 0 0 1-6.58 1.116c-1.66 0-3.2-.168-4.61-.504a12.018 12.018 0 0 1-3.96-1.692c-1.25-.816-2.46-1.956-3.64-3.42Zm45.61-34.704c-2.49 0-4.43-.6-5.79-1.8-1.35-1.2-2.02-2.796-2.02-4.788 0-1.944.67-3.492 2.02-4.644 1.36-1.176 3.3-1.764 5.79-1.764 2.52 0 4.45.588 5.8 1.764 1.37 1.152 2.05 2.7 2.05 4.644 0 1.992-.68 3.588-2.05 4.788-1.35 1.2-3.28 1.8-5.8 1.8Zm7.78 4.716-.69 10.008v20.376l4 1.692V886h-22.07v-2.448l4-1.692v-19.872c-.34-.456-.76-.924-1.26-1.404-.48-.48-1.02-.96-1.62-1.44-.6-.48-1.23-.948-1.87-1.404v-2.268l16.38-3.996h3.13Zm23.65 52.812c-3.34 0-6.15-.168-8.43-.504-2.28-.336-4.11-.828-5.5-1.476-1.37-.648-2.37-1.416-2.99-2.304-.6-.864-.9-1.824-.9-2.88 0-.936.2-1.776.61-2.52.41-.72 1.16-1.368 2.27-1.944 1.1-.576 2.66-1.092 4.68-1.548 2.01-.456 4.63-.876 7.85-1.26h4.03l.03.612c-2.52.264-4.44.6-5.76 1.008-1.29.432-2.18.936-2.66 1.512-.46.576-.68 1.26-.68 2.052 0 .936.32 1.74.97 2.412.65.696 1.68 1.224 3.09 1.584 1.44.384 3.3.576 5.58.576 2.33 0 4.25-.18 5.76-.54 1.52-.36 2.63-.864 3.35-1.512.72-.648 1.08-1.356 1.08-2.124 0-.576-.17-1.068-.5-1.476-.31-.408-.95-.756-1.91-1.044-.96-.288-2.36-.528-4.21-.72-1.85-.192-4.29-.384-7.31-.576-3.02-.168-5.5-.516-7.42-1.044-1.89-.504-3.36-1.164-4.39-1.98-1.03-.816-1.74-1.728-2.12-2.736a8.656 8.656 0 0 1-.54-3.312c.07-2.424 1.02-4.344 2.84-5.76 1.83-1.416 4.67-2.292 8.53-2.628l1.08 1.584c-1.48.096-2.48.324-2.98.684-.48.36-.72.84-.72 1.44 0 .48.13.876.39 1.188.29.312.84.576 1.66.792.84.192 2.09.348 3.74.468 1.68.12 3.91.228 6.7.324 3.09.12 5.7.396 7.81.828 2.11.408 3.8 1.02 5.08 1.836 1.27.792 2.19 1.8 2.77 3.024.57 1.248.86 2.724.86 4.428.03 2.712-.79 5.076-2.45 7.092-1.63 2.04-4.06 3.624-7.3 4.752-3.22 1.128-7.22 1.692-11.99 1.692Zm.03-28.008c-3.62 0-6.67-.492-9.14-1.476-2.45-1.008-4.31-2.436-5.58-4.284-1.25-1.872-1.87-4.08-1.87-6.624 0-2.688.69-4.956 2.09-6.804 1.39-1.848 3.33-3.24 5.83-4.176 2.52-.96 5.43-1.44 8.75-1.44 2.83 0 5.28.36 7.34 1.08 2.09.72 3.82 1.692 5.18 2.916 1.37 1.2 2.39 2.532 3.06 3.996.68 1.464 1.01 2.928 1.01 4.392 0 2.664-.69 4.932-2.09 6.804-1.36 1.848-3.3 3.252-5.79 4.212-2.5.936-5.43 1.404-8.79 1.404Zm.29-4.824c1.06 0 1.87-.492 2.45-1.476.6-.984.9-2.868.9-5.652 0-3.192-.34-5.364-1.01-6.516-.67-1.176-1.59-1.764-2.77-1.764-1.06 0-1.87.492-2.45 1.476-.57.984-.86 2.88-.86 5.688 0 3.168.32 5.34.97 6.516.67 1.152 1.6 1.728 2.77 1.728Zm5.4-16.596-.57-2.7c1.96.192 3.73.276 5.29.252 1.56-.048 2.95-.144 4.17-.288 1.25-.144 2.34-.288 3.28-.432.96-.144 1.81-.216 2.56-.216.84 0 1.44.216 1.8.648.38.432.57 1.224.57 2.376 0 1.824-.29 3.048-.86 3.672-.58.624-1.24.936-1.98.936-.7 0-1.42-.24-2.16-.72-.72-.48-1.6-1.02-2.63-1.62-1.01-.6-2.27-1.104-3.78-1.512-1.51-.408-3.41-.54-5.69-.396Zm35.83 49.428c-3.33 0-6.14-.168-8.42-.504-2.28-.336-4.12-.828-5.51-1.476-1.37-.648-2.36-1.416-2.99-2.304-.6-.864-.9-1.824-.9-2.88 0-.936.21-1.776.61-2.52.41-.72 1.17-1.368 2.27-1.944 1.11-.576 2.67-1.092 4.68-1.548 2.02-.456 4.63-.876 7.85-1.26h4.03l.04.612c-2.52.264-4.44.6-5.76 1.008-1.3.432-2.19.936-2.67 1.512-.45.576-.68 1.26-.68 2.052 0 .936.32 1.74.97 2.412.65.696 1.68 1.224 3.1 1.584 1.44.384 3.3.576 5.58.576 2.33 0 4.25-.18 5.76-.54 1.51-.36 2.63-.864 3.35-1.512.72-.648 1.08-1.356 1.08-2.124 0-.576-.17-1.068-.51-1.476-.31-.408-.95-.756-1.91-1.044-.96-.288-2.36-.528-4.21-.72-1.85-.192-4.28-.384-7.31-.576-3.02-.168-5.49-.516-7.41-1.044-1.9-.504-3.36-1.164-4.39-1.98-1.04-.816-1.74-1.728-2.13-2.736a9.057 9.057 0 0 1-.54-3.312c.07-2.424 1.02-4.344 2.85-5.76 1.82-1.416 4.66-2.292 8.53-2.628l1.08 1.584c-1.49.096-2.49.324-2.99.684-.48.36-.72.84-.72 1.44 0 .48.13.876.4 1.188.28.312.84.576 1.65.792.84.192 2.09.348 3.75.468 1.68.12 3.91.228 6.69.324 3.1.12 5.7.396 7.81.828 2.12.408 3.81 1.02 5.08 1.836 1.27.792 2.2 1.8 2.77 3.024.58 1.248.87 2.724.87 4.428.02 2.712-.8 5.076-2.45 7.092-1.63 2.04-4.07 3.624-7.31 4.752-3.22 1.128-7.21 1.692-11.99 1.692Zm.04-28.008c-3.63 0-6.67-.492-9.15-1.476-2.44-1.008-4.3-2.436-5.58-4.284-1.24-1.872-1.87-4.08-1.87-6.624 0-2.688.7-4.956 2.09-6.804 1.39-1.848 3.34-3.24 5.83-4.176 2.52-.96 5.44-1.44 8.75-1.44 2.83 0 5.28.36 7.34 1.08 2.09.72 3.82 1.692 5.19 2.916 1.37 1.2 2.39 2.532 3.06 3.996.67 1.464 1.01 2.928 1.01 4.392 0 2.664-.7 4.932-2.09 6.804-1.37 1.848-3.3 3.252-5.8 4.212-2.49.936-5.42 1.404-8.78 1.404Zm.29-4.824c1.05 0 1.87-.492 2.44-1.476.6-.984.9-2.868.9-5.652 0-3.192-.33-5.364-1-6.516-.68-1.176-1.6-1.764-2.78-1.764-1.05 0-1.87.492-2.44 1.476-.58.984-.87 2.88-.87 5.688 0 3.168.33 5.34.97 6.516.68 1.152 1.6 1.728 2.78 1.728Zm5.4-16.596-.58-2.7c1.97.192 3.73.276 5.29.252 1.56-.048 2.95-.144 4.18-.288 1.25-.144 2.34-.288 3.27-.432.96-.144 1.82-.216 2.56-.216.84 0 1.44.216 1.8.648.38.432.58 1.224.58 2.376 0 1.824-.29 3.048-.87 3.672-.57.624-1.23.936-1.98.936-.69 0-1.41-.24-2.16-.72-.72-.48-1.59-1.02-2.63-1.62-1-.6-2.26-1.104-3.78-1.512-1.51-.408-3.4-.54-5.68-.396Zm36.25-3.384c3.45 0 6.33.636 8.64 1.908 2.32 1.272 4.11 3.192 5.36 5.76 1.25 2.568 2 5.784 2.27 9.648h-25.24v-4.176l17.43-.72-4.97 2.376c0-2.4-.17-4.296-.51-5.688-.31-1.416-.8-2.412-1.47-2.988-.65-.6-1.48-.9-2.49-.9-.91 0-1.7.252-2.37.756-.65.48-1.15 1.404-1.51 2.772-.36 1.368-.54 3.372-.54 6.012 0 2.712.38 4.92 1.15 6.624.79 1.68 1.97 2.928 3.53 3.744 1.58.792 3.54 1.188 5.86 1.188 1.28 0 2.45-.06 3.53-.18 1.08-.12 2.13-.324 3.13-.612a19.3 19.3 0 0 0 3.14-1.188l.97 3.168c-1.85 1.632-3.65 3.06-5.4 4.284-1.75 1.2-3.51 2.136-5.26 2.808a15.022 15.022 0 0 1-5.43 1.008c-3.8 0-7.04-.72-9.72-2.16-2.69-1.44-4.76-3.456-6.2-6.048-1.41-2.592-2.12-5.604-2.12-9.036 0-3.48.68-6.6 2.05-9.36 1.39-2.784 3.45-4.98 6.16-6.588 2.71-1.608 6.05-2.412 10.01-2.412Zm36.94 0c2.35 0 4.37.132 6.05.396 1.68.24 3.36.636 5.04 1.188l.5 9.18h-3.7l-5.12-8.568 3.89 3.672a16.633 16.633 0 0 0-3.27-1.008c-1.11-.24-2.08-.36-2.92-.36-1.9 0-3.29.264-4.18.792-.88.504-1.33 1.272-1.33 2.304 0 .672.17 1.272.51 1.8.36.504 1.12.996 2.3 1.476 1.2.48 3.07 1.02 5.62 1.62 1.89.432 3.5.984 4.82 1.656 1.34.648 2.44 1.428 3.28 2.34.84.888 1.45 1.92 1.83 3.096.41 1.176.61 2.484.61 3.924 0 2.64-.68 4.86-2.05 6.66-1.34 1.776-3.29 3.132-5.83 4.068-2.52.912-5.57 1.368-9.14 1.368-2.26 0-4.44-.144-6.56-.432-2.11-.288-3.92-.684-5.43-1.188l-1.08-10.08h3.31l5.87 9.54-5.69-3.6c.77.24 1.6.432 2.48.576.92.144 1.83.264 2.74.36.91.072 1.78.108 2.59.108 2.31 0 4.02-.312 5.15-.936 1.13-.648 1.69-1.632 1.69-2.952 0-.6-.12-1.116-.36-1.548-.24-.456-.68-.864-1.33-1.224-.62-.36-1.52-.72-2.7-1.08-1.15-.384-2.64-.792-4.46-1.224-2.45-.6-4.35-1.392-5.69-2.376-1.35-1.008-2.28-2.184-2.81-3.528-.5-1.368-.76-2.844-.76-4.428 0-2.544.69-4.68 2.06-6.408 1.39-1.728 3.3-3.024 5.72-3.888 2.45-.864 5.23-1.296 8.35-1.296Zm35.85 23.004c0 1.392.47 2.436 1.41 3.132.96.696 2.47 1.044 4.53 1.044 1.01 0 2.12-.096 3.32-.288 1.2-.192 2.5-.492 3.92-.9v3.564c-2.35 1.44-4.43 2.604-6.23 3.492-1.77.888-3.37 1.536-4.79 1.944-1.41.408-2.74.612-3.99.612-2.5 0-4.66-.384-6.48-1.152-1.83-.768-3.23-1.956-4.21-3.564-.99-1.632-1.48-3.708-1.48-6.228v-15.444l-5.87-4.86v-2.52a245 245 0 0 0 2.41-1.404c1.01-.576 2.12-1.212 3.32-1.908 1.22-.696 2.47-1.404 3.74-2.124 1.27-.744 2.5-1.452 3.67-2.124 1.18-.696 2.23-1.308 3.17-1.836h3.56v30.564Zm-5.79-15.3.07-6.624h17.57l-.54 6.624h-17.1Zm-498.69 82.296c2.35 0 4.37.132 6.05.396 1.68.24 3.36.636 5.04 1.188l.5 9.18h-3.71l-5.11-8.568 3.89 3.672a16.519 16.519 0 0 0-3.28-1.008c-1.1-.24-2.07-.36-2.91-.36-1.9 0-3.29.264-4.18.792-.89.504-1.33 1.272-1.33 2.304 0 .672.17 1.272.5 1.8.36.504 1.13.996 2.31 1.476 1.2.48 3.07 1.02 5.61 1.62 1.9.432 3.51.984 4.83 1.656 1.34.648 2.43 1.428 3.27 2.34a8.07 8.07 0 0 1 1.84 3.096c.41 1.176.61 2.484.61 3.924 0 2.64-.68 4.86-2.05 6.66-1.34 1.776-3.29 3.132-5.83 4.068-2.52.912-5.57 1.368-9.15 1.368-2.25 0-4.44-.144-6.55-.432-2.11-.288-3.92-.684-5.43-1.188l-1.08-10.08h3.31l5.87 9.54-5.69-3.6c.77.24 1.59.432 2.48.576a53.5 53.5 0 0 0 2.74.36c.91.072 1.77.108 2.59.108 2.3 0 4.02-.312 5.15-.936 1.13-.648 1.69-1.632 1.69-2.952 0-.6-.12-1.116-.36-1.548-.24-.456-.68-.864-1.33-1.224-.63-.36-1.53-.72-2.7-1.08-1.15-.384-2.64-.792-4.47-1.224-2.44-.6-4.34-1.392-5.68-2.376-1.35-1.008-2.28-2.184-2.81-3.528-.51-1.368-.76-2.844-.76-4.428 0-2.544.69-4.68 2.05-6.408 1.4-1.728 3.3-3.024 5.73-3.888 2.45-.864 5.23-1.296 8.35-1.296Zm39.6 0c3.02 0 5.43.288 7.23.864 1.8.576 3.11 1.368 3.93 2.376.81.984 1.22 2.1 1.22 3.348 0 1.104-.28 2.064-.83 2.88a5.798 5.798 0 0 1-2.12 1.908 5.62 5.62 0 0 1-2.59.648c-.75 0-1.5-.24-2.27-.72s-1.53-1.068-2.27-1.764c-.74-.72-1.48-1.44-2.2-2.16-.69-.72-1.36-1.32-2.01-1.8-.63-.48-1.2-.72-1.73-.72-1.01 0-1.91.276-2.7.828-.77.528-1.38 1.44-1.84 2.736-.43 1.272-.64 3.036-.64 5.292 0 3.048.37 5.484 1.11 7.308.77 1.8 1.91 3.108 3.42 3.924 1.54.792 3.45 1.188 5.73 1.188 1.87 0 3.55-.144 5.04-.432 1.51-.312 3.06-.852 4.64-1.62l1.01 3.348c-2.14 1.992-4.13 3.588-5.98 4.788-1.85 1.176-3.59 2.028-5.22 2.556-1.61.552-3.19.828-4.75.828-3.72 0-6.91-.708-9.58-2.124-2.66-1.416-4.7-3.396-6.12-5.94-1.41-2.568-2.12-5.544-2.12-8.928 0-2.616.47-5.052 1.4-7.308.96-2.256 2.36-4.236 4.18-5.94 1.85-1.704 4.12-3.024 6.8-3.96 2.69-.936 5.78-1.404 9.26-1.404Zm26.82-4.716c-2.5 0-4.43-.6-5.8-1.8-1.34-1.2-2.01-2.796-2.01-4.788 0-1.944.67-3.492 2.01-4.644 1.37-1.176 3.3-1.764 5.8-1.764 2.52 0 4.45.588 5.8 1.764 1.36 1.152 2.05 2.7 2.05 4.644 0 1.992-.69 3.588-2.05 4.788-1.35 1.2-3.28 1.8-5.8 1.8Zm7.78 4.716-.69 10.008v20.376l4 1.692V976h-22.07v-2.448l4-1.692v-19.872c-.34-.456-.76-.924-1.26-1.404-.48-.48-1.02-.96-1.62-1.44-.6-.48-1.23-.948-1.88-1.404v-2.268l16.38-3.996h3.14Zm7.61 13.356h20.45v8.388h-20.45v-8.388Zm56.83-5.652h-23.22l-3.96 1.296-6.84-2.988v-2.268l7.45-3.6 6.98.936h17.64l11.45-.72h3.13l-.68 9.648v20.376l3.99 1.692V976h-22.06v-2.448l3.99-1.692v-24.552l2.13 1.872Zm-13.11 22.68 4 1.692V976h-22.07v-2.448l4-1.692v-27.576c0-3.504.52-6.54 1.58-9.108 1.06-2.568 2.59-4.692 4.61-6.372 2.04-1.68 4.5-2.94 7.38-3.78 2.88-.84 6.13-1.26 9.75-1.26 3.58 0 6.35.3 8.32.9 1.99.6 3.38 1.404 4.18 2.412.81.984 1.22 2.076 1.22 3.276 0 .984-.25 1.92-.76 2.808-.5.864-1.2 1.56-2.08 2.088-.89.504-1.94.756-3.14.756-1 0-1.87-.336-2.59-1.008a26.607 26.607 0 0 1-2.16-2.376c-.72-.888-1.57-1.68-2.55-2.376-.99-.696-2.24-1.044-3.75-1.044-1.39 0-2.52.216-3.38.648-.87.408-1.51 1.068-1.95 1.98-.4.888-.61 2.052-.61 3.492v36.54Zm64.45-30.384c2.36 0 4.37.132 6.05.396 1.68.24 3.36.636 5.04 1.188l.51 9.18h-3.71l-5.11-8.568 3.88 3.672a16.633 16.633 0 0 0-3.27-1.008c-1.11-.24-2.08-.36-2.92-.36-1.89 0-3.29.264-4.17.792-.89.504-1.34 1.272-1.34 2.304 0 .672.17 1.272.51 1.8.36.504 1.13.996 2.3 1.476 1.2.48 3.07 1.02 5.62 1.62 1.89.432 3.5.984 4.82 1.656 1.35.648 2.44 1.428 3.28 2.34.84.888 1.45 1.92 1.83 3.096.41 1.176.62 2.484.62 3.924 0 2.64-.69 4.86-2.06 6.66-1.34 1.776-3.28 3.132-5.83 4.068-2.52.912-5.57 1.368-9.14 1.368-2.26 0-4.44-.144-6.55-.432-2.12-.288-3.93-.684-5.44-1.188l-1.08-10.08h3.31l5.87 9.54-5.69-3.6c.77.24 1.6.432 2.49.576.91.144 1.82.264 2.73.36.91.072 1.78.108 2.59.108 2.31 0 4.02-.312 5.15-.936 1.13-.648 1.69-1.632 1.69-2.952 0-.6-.12-1.116-.36-1.548-.24-.456-.68-.864-1.33-1.224-.62-.36-1.52-.72-2.7-1.08-1.15-.384-2.64-.792-4.46-1.224-2.45-.6-4.35-1.392-5.69-2.376-1.34-1.008-2.28-2.184-2.81-3.528-.5-1.368-.75-2.844-.75-4.428 0-2.544.68-4.68 2.05-6.408 1.39-1.728 3.3-3.024 5.72-3.888 2.45-.864 5.23-1.296 8.35-1.296Zm36.25 0c3.46 0 6.34.636 8.64 1.908 2.33 1.272 4.12 3.192 5.37 5.76 1.24 2.568 2 5.784 2.26 9.648h-25.23v-4.176l17.42-.72-4.97 2.376c0-2.4-.16-4.296-.5-5.688-.31-1.416-.8-2.412-1.48-2.988-.64-.6-1.47-.9-2.48-.9-.91 0-1.7.252-2.38.756-.64.48-1.15 1.404-1.51 2.772-.36 1.368-.54 3.372-.54 6.012 0 2.712.39 4.92 1.15 6.624.8 1.68 1.97 2.928 3.53 3.744 1.59.792 3.54 1.188 5.87 1.188 1.27 0 2.45-.06 3.53-.18a19.202 19.202 0 0 0 6.26-1.8l.97 3.168c-1.84 1.632-3.64 3.06-5.4 4.284-1.75 1.2-3.5 2.136-5.25 2.808a15.075 15.075 0 0 1-5.44 1.008c-3.79 0-7.03-.72-9.72-2.16-2.69-1.44-4.75-3.456-6.19-6.048-1.42-2.592-2.12-5.604-2.12-9.036 0-3.48.68-6.6 2.05-9.36 1.39-2.784 3.44-4.98 6.15-6.588 2.72-1.608 6.05-2.412 10.01-2.412Zm48.94.324c1.89 0 3.24.54 4.03 1.62.82 1.056 1.22 2.328 1.22 3.816 0 2.016-.52 3.564-1.58 4.644s-2.11 1.62-3.17 1.62c-1.41 0-2.61-.072-3.6-.216-.96-.144-1.88-.288-2.77-.432-.86-.144-1.86-.216-2.99-.216-.62 0-1.17.048-1.65.144-.46.096-.9.264-1.34.504-.4.216-.86.528-1.36.936l-.98-2.304c1.59-1.968 3.02-3.6 4.29-4.896 1.27-1.296 2.45-2.316 3.53-3.06 1.1-.768 2.16-1.32 3.16-1.656a10.33 10.33 0 0 1 3.21-.504Zm-10.44 7.776v22.032l4.71 1.944V976h-22.78v-2.448l3.99-1.692v-19.404c-.38-.528-.81-1.02-1.29-1.476-.48-.48-1.01-.948-1.59-1.404-.55-.456-1.17-.9-1.87-1.332v-2.304l14.47-4.464h2.02l2.34 8.1Zm29.43-12.816c-2.49 0-4.43-.6-5.79-1.8-1.35-1.2-2.02-2.796-2.02-4.788 0-1.944.67-3.492 2.02-4.644 1.36-1.176 3.3-1.764 5.79-1.764 2.52 0 4.45.588 5.8 1.764 1.37 1.152 2.05 2.7 2.05 4.644 0 1.992-.68 3.588-2.05 4.788-1.35 1.2-3.28 1.8-5.8 1.8Zm7.78 4.716-.69 10.008v20.376l4 1.692V976h-22.07v-2.448l4-1.692v-19.872c-.34-.456-.76-.924-1.26-1.404-.48-.48-1.02-.96-1.62-1.44-.6-.48-1.23-.948-1.87-1.404v-2.268l16.38-3.996h3.13Zm24.98 0c3.46 0 6.34.636 8.64 1.908 2.33 1.272 4.12 3.192 5.36 5.76 1.25 2.568 2.01 5.784 2.27 9.648h-25.23v-4.176l17.42-.72-4.97 2.376c0-2.4-.17-4.296-.5-5.688-.31-1.416-.81-2.412-1.48-2.988-.65-.6-1.47-.9-2.48-.9-.91 0-1.71.252-2.38.756-.65.48-1.15 1.404-1.51 2.772-.36 1.368-.54 3.372-.54 6.012 0 2.712.38 4.92 1.15 6.624.79 1.68 1.97 2.928 3.53 3.744 1.58.792 3.54 1.188 5.87 1.188 1.27 0 2.45-.06 3.53-.18 1.08-.12 2.12-.324 3.13-.612 1.03-.288 2.07-.684 3.13-1.188l.97 3.168c-1.85 1.632-3.65 3.06-5.4 4.284-1.75 1.2-3.5 2.136-5.25 2.808a15.115 15.115 0 0 1-5.44 1.008c-3.79 0-7.03-.72-9.72-2.16-2.69-1.44-4.75-3.456-6.19-6.048-1.42-2.592-2.13-5.604-2.13-9.036 0-3.48.69-6.6 2.06-9.36 1.39-2.784 3.44-4.98 6.15-6.588 2.71-1.608 6.05-2.412 10.01-2.412Zm36.95 0c2.35 0 4.37.132 6.05.396 1.68.24 3.36.636 5.04 1.188l.5 9.18h-3.71l-5.11-8.568 3.89 3.672a16.519 16.519 0 0 0-3.28-1.008c-1.1-.24-2.07-.36-2.91-.36-1.9 0-3.29.264-4.18.792-.89.504-1.33 1.272-1.33 2.304 0 .672.17 1.272.5 1.8.36.504 1.13.996 2.31 1.476 1.2.48 3.07 1.02 5.61 1.62 1.9.432 3.51.984 4.83 1.656 1.34.648 2.43 1.428 3.27 2.34.84.888 1.45 1.92 1.84 3.096.41 1.176.61 2.484.61 3.924 0 2.64-.68 4.86-2.05 6.66-1.35 1.776-3.29 3.132-5.83 4.068-2.52.912-5.57 1.368-9.15 1.368-2.25 0-4.44-.144-6.55-.432-2.11-.288-3.92-.684-5.44-1.188l-1.08-10.08h3.32l5.86 9.54-5.68-3.6c.76.24 1.59.432 2.48.576.91.144 1.82.264 2.74.36.91.072 1.77.108 2.59.108 2.3 0 4.02-.312 5.15-.936 1.12-.648 1.69-1.632 1.69-2.952 0-.6-.12-1.116-.36-1.548-.24-.456-.69-.864-1.33-1.224-.63-.36-1.53-.72-2.7-1.08-1.16-.384-2.64-.792-4.47-1.224-2.45-.6-4.34-1.392-5.69-2.376-1.34-1.008-2.28-2.184-2.8-3.528-.51-1.368-.76-2.844-.76-4.428 0-2.544.68-4.68 2.05-6.408 1.39-1.728 3.3-3.024 5.73-3.888 2.44-.864 5.23-1.296 8.35-1.296ZM1050.16 505v-24.876h12.02l-.5 3.42h-6.95v7.596h6.05v3.42h-6.05V505h-4.57Zm24.49-24.876V505h-4.57v-24.876h4.57Zm14.3 0v21.096h8.02l-.5 3.78h-12.1v-24.876h4.58ZM1124.77 505h-4.35l-.43-10.512c-.15-3.84-.22-6.576-.22-8.208l.04-1.872-3.42 17.856h-4.32l-3.57-17.892c.03.72.04 1.824.04 3.312 0 2.52-.05 4.836-.15 6.948L1108 505h-4.29l1.59-24.876h5.76l3.24 17.532 3.02-17.532h5.87l1.58 24.876Zm37.02 0h-5.83l-6.3-20.376c.19 1.728.34 3.324.43 4.788.12 1.44.18 3.156.18 5.148V505h-4.03v-24.876h5.8l6.3 20.376c-.15-.864-.29-2.088-.43-3.672a63.844 63.844 0 0 1-.18-4.824v-11.88h4.06V505Zm22.06-24.876-.46 3.42h-7.31v7.128h6.37v3.384h-6.37v7.488h7.77V505h-12.34v-24.876h12.34Zm31.24 0L1211.6 505h-6.02l-2.66-20.016-2.77 20.016h-5.91l-3.42-24.876h4.43l2.31 21.204 2.98-21.204h4.86l2.92 21.204 2.52-21.204h4.25Zm14.02-.504c1.44 0 2.71.252 3.81.756 1.11.504 2.13 1.26 3.06 2.268l-2.12 2.448c-.75-.672-1.48-1.176-2.2-1.512a5.046 5.046 0 0 0-2.23-.504c-.91 0-1.63.288-2.16.864-.53.552-.79 1.284-.79 2.196 0 .912.27 1.656.83 2.232.55.576 1.63 1.176 3.24 1.8 2.06.84 3.57 1.824 4.53 2.952.99 1.128 1.48 2.724 1.48 4.788 0 1.416-.33 2.712-.97 3.888-.65 1.152-1.59 2.064-2.81 2.736-1.2.672-2.61 1.008-4.21 1.008-1.66 0-3.1-.288-4.32-.864-1.23-.6-2.34-1.44-3.35-2.52l2.3-2.52c.87.768 1.69 1.356 2.49 1.764a5.55 5.55 0 0 0 2.59.612c1.1 0 1.95-.336 2.55-1.008.63-.696.94-1.632.94-2.808 0-1.032-.28-1.872-.83-2.52-.53-.672-1.52-1.284-2.99-1.836-2.2-.888-3.8-1.908-4.78-3.06-.96-1.152-1.44-2.592-1.44-4.32 0-1.32.31-2.496.93-3.528.65-1.032 1.54-1.836 2.67-2.412 1.12-.6 2.38-.9 3.78-.9Z" fill="#fff"/><rect x="248" y="223" width="695" height="948" rx="95" stroke="#3C4043" stroke-width="10"/><rect x="283" y="329" width="623" height="868" rx="20" fill="#FF6D7F"/><path d="m351.82 568.238.387 15.891h-1.441c-.68-3.984-2.356-7.184-5.028-9.598-2.648-2.437-5.519-3.656-8.613-3.656-2.391 0-4.289.645-5.695 1.934-1.383 1.265-2.075 2.73-2.075 4.394 0 1.055.247 1.992.739 2.813.679 1.101 1.769 2.191 3.269 3.269 1.102.774 3.645 2.145 7.629 4.113 5.578 2.743 9.34 5.332 11.285 7.77 1.922 2.437 2.883 5.227 2.883 8.367 0 3.985-1.558 7.418-4.676 10.301-3.093 2.859-7.031 4.289-11.812 4.289-1.5 0-2.918-.152-4.254-.457-1.336-.305-3.012-.879-5.027-1.723-1.125-.468-2.051-.703-2.778-.703-.609 0-1.254.235-1.933.703-.68.469-1.231 1.184-1.653 2.145h-1.3v-18h1.3c1.032 5.062 3.012 8.93 5.942 11.601 2.953 2.649 6.129 3.973 9.527 3.973 2.625 0 4.711-.715 6.258-2.144 1.57-1.43 2.355-3.094 2.355-4.993 0-1.125-.304-2.215-.914-3.269-.586-1.055-1.488-2.051-2.707-2.988-1.218-.961-3.375-2.204-6.468-3.727-4.336-2.133-7.454-3.949-9.352-5.449-1.898-1.5-3.363-3.176-4.395-5.028-1.007-1.851-1.511-3.89-1.511-6.117 0-3.797 1.394-7.031 4.183-9.703 2.789-2.672 6.305-4.008 10.547-4.008 1.547 0 3.047.188 4.5.563 1.102.281 2.438.808 4.008 1.582 1.594.75 2.707 1.125 3.34 1.125.609 0 1.09-.188 1.441-.563.352-.375.68-1.277.985-2.707h1.054Zm36.528 31.149h-18.036c.211 4.359 1.372 7.804 3.481 10.336 1.617 1.945 3.562 2.918 5.836 2.918a6.708 6.708 0 0 0 3.832-1.161c1.148-.796 2.379-2.214 3.691-4.253l1.196.773c-1.782 3.633-3.75 6.211-5.907 7.734-2.156 1.5-4.652 2.25-7.488 2.25-4.875 0-8.566-1.875-11.074-5.625-2.016-3.023-3.024-6.773-3.024-11.25 0-5.484 1.477-9.843 4.43-13.078 2.977-3.258 6.457-4.886 10.442-4.886 3.328 0 6.211 1.371 8.648 4.113 2.461 2.719 3.785 6.762 3.973 12.129Zm-8.649-2.356c0-3.773-.211-6.363-.633-7.769-.398-1.407-1.031-2.473-1.898-3.2-.492-.421-1.148-.632-1.969-.632-1.219 0-2.215.597-2.988 1.793-1.383 2.086-2.074 4.945-2.074 8.578v1.23h9.562Zm39.621 11.496 1.09.844c-1.547 2.906-3.48 5.074-5.801 6.504-2.297 1.406-4.746 2.109-7.347 2.109-4.383 0-7.887-1.652-10.512-4.957-2.625-3.304-3.938-7.277-3.938-11.918 0-4.476 1.196-8.414 3.586-11.812 2.883-4.102 6.856-6.152 11.918-6.152 3.399 0 6.094.855 8.086 2.566 2.016 1.711 3.024 3.621 3.024 5.73 0 1.336-.41 2.403-1.231 3.2-.797.797-1.851 1.195-3.164 1.195-1.383 0-2.531-.457-3.445-1.371-.891-.914-1.441-2.543-1.652-4.887-.141-1.476-.481-2.508-1.02-3.094-.539-.586-1.172-.879-1.898-.879-1.125 0-2.086.598-2.883 1.793-1.219 1.805-1.828 4.571-1.828 8.297 0 3.094.492 6.059 1.476 8.895.985 2.812 2.332 4.91 4.043 6.293 1.289 1.008 2.813 1.512 4.571 1.512a6.96 6.96 0 0 0 3.269-.809c1.031-.539 2.25-1.559 3.656-3.059Zm20.672-25.382c2.86 0 5.52.738 7.981 2.214 2.461 1.477 4.324 3.575 5.589 6.293 1.29 2.719 1.934 5.696 1.934 8.93 0 4.664-1.184 8.566-3.551 11.707-2.859 3.797-6.808 5.695-11.847 5.695-4.946 0-8.754-1.734-11.426-5.203-2.672-3.469-4.008-7.488-4.008-12.058 0-4.711 1.359-8.813 4.078-12.305 2.742-3.516 6.492-5.273 11.25-5.273Zm.141 2.496c-1.195 0-2.227.457-3.094 1.371-.844.89-1.406 2.672-1.687 5.343-.258 2.649-.387 6.34-.387 11.075 0 2.508.164 4.851.492 7.031.258 1.664.809 2.93 1.652 3.797.844.867 1.805 1.301 2.883 1.301 1.055 0 1.934-.293 2.637-.879.914-.797 1.523-1.91 1.828-3.34.469-2.227.703-6.727.703-13.5 0-3.985-.222-6.715-.668-8.192-.445-1.5-1.101-2.589-1.969-3.269-.609-.492-1.406-.738-2.39-.738Zm33.785-1.512v4.254c1.687-1.828 3.305-3.153 4.852-3.973a10.254 10.254 0 0 1 4.992-1.265c2.133 0 3.902.597 5.308 1.793a8.408 8.408 0 0 1 2.813 4.394c.375 1.336.562 3.902.562 7.699v12.797c0 2.531.223 4.113.668 4.746.469.61 1.43.996 2.883 1.16V617h-16.629v-1.266c1.242-.164 2.133-.679 2.672-1.546.375-.586.563-2.04.563-4.36v-14.625c0-2.695-.106-4.394-.317-5.098-.211-.703-.574-1.242-1.09-1.617a2.561 2.561 0 0 0-1.652-.597c-2.016 0-3.891 1.441-5.625 4.324v17.613c0 2.461.223 4.02.668 4.676.469.656 1.324 1.066 2.566 1.23V617h-16.629v-1.266c1.383-.14 2.368-.586 2.954-1.336.398-.515.597-2.039.597-4.57v-18.562c0-2.485-.234-4.032-.703-4.641-.445-.609-1.394-1.008-2.848-1.195v-1.301h13.395Zm58.605-14.801v37.828c0 2.555.071 4.067.211 4.535.188.774.539 1.348 1.055 1.723.539.375 1.465.609 2.777.703v1.16l-13.886 2.707v-5.203c-1.664 2.016-3.153 3.387-4.465 4.114-1.289.726-2.754 1.089-4.395 1.089-4.195 0-7.511-1.875-9.949-5.625-1.969-3.047-2.953-6.785-2.953-11.214 0-3.54.609-6.704 1.828-9.493 1.219-2.812 2.883-4.933 4.992-6.363 2.133-1.43 4.418-2.144 6.856-2.144 1.57 0 2.965.304 4.183.914 1.219.609 2.52 1.675 3.903 3.199v-9.914c0-2.508-.106-4.02-.317-4.535-.281-.68-.703-1.184-1.265-1.512-.563-.328-1.618-.492-3.164-.492v-1.477h14.589Zm-9.843 22.289c-1.735-3.328-3.856-4.992-6.364-4.992-.867 0-1.582.234-2.144.703-.867.727-1.582 2.004-2.145 3.832-.539 1.828-.808 4.629-.808 8.402 0 4.149.304 7.219.914 9.211.609 1.993 1.441 3.434 2.496 4.325.539.445 1.277.668 2.215.668 2.062 0 4.008-1.618 5.836-4.852v-17.297Zm49.008-19.512v12.024h7.804v3.48h-7.804v20.286c0 1.898.082 3.128.246 3.691.187.539.504.984.949 1.336.445.328.855.492 1.23.492 1.524 0 2.965-1.16 4.325-3.48l1.054.773c-1.898 4.5-4.98 6.75-9.246 6.75-2.086 0-3.855-.574-5.308-1.723-1.43-1.172-2.344-2.472-2.743-3.902-.234-.797-.351-2.953-.351-6.469v-17.754h-4.289v-1.23c2.953-2.086 5.461-4.277 7.523-6.574a39.614 39.614 0 0 0 5.449-7.7h1.161Zm24.574 12.024v7.453c2.179-3.398 4.09-5.648 5.73-6.75 1.641-1.125 3.223-1.687 4.746-1.687 1.313 0 2.356.41 3.129 1.23.797.797 1.195 1.934 1.195 3.41 0 1.57-.386 2.789-1.16 3.656-.75.868-1.664 1.301-2.742 1.301-1.242 0-2.32-.398-3.234-1.195-.914-.797-1.453-1.242-1.617-1.336a1.54 1.54 0 0 0-.809-.211c-.68 0-1.324.258-1.934.773-.961.797-1.687 1.934-2.179 3.411-.75 2.273-1.125 4.781-1.125 7.523v7.559l.035 1.968c0 1.336.082 2.192.246 2.567.281.633.691 1.101 1.23 1.406.563.281 1.5.457 2.813.527V617h-17.754v-1.266c1.43-.117 2.391-.504 2.883-1.16.515-.679.773-2.449.773-5.308V591.09c0-1.875-.093-3.07-.281-3.586-.234-.656-.574-1.137-1.019-1.442-.446-.304-1.231-.515-2.356-.632v-1.301h13.43Zm36.492 28.019c-4.008 3.54-7.606 5.309-10.793 5.309-1.875 0-3.434-.609-4.676-1.828-1.242-1.242-1.863-2.789-1.863-4.641 0-2.508 1.078-4.758 3.234-6.75 2.156-2.015 6.856-4.687 14.098-8.015v-3.305c0-2.484-.141-4.043-.422-4.676-.258-.656-.762-1.219-1.512-1.687-.75-.493-1.593-.739-2.531-.739-1.523 0-2.777.34-3.762 1.02-.609.422-.914.914-.914 1.476 0 .493.328 1.102.985 1.829.89 1.007 1.336 1.98 1.336 2.918 0 1.148-.434 2.132-1.301 2.953-.844.797-1.957 1.195-3.34 1.195-1.477 0-2.719-.445-3.727-1.336-.984-.891-1.476-1.933-1.476-3.129 0-1.687.668-3.293 2.004-4.816 1.336-1.547 3.199-2.731 5.59-3.551 2.39-.82 4.875-1.23 7.453-1.23 3.117 0 5.578.667 7.383 2.003 1.828 1.313 3.011 2.743 3.55 4.29.328.984.492 3.246.492 6.785v12.761c0 1.5.059 2.45.176 2.848.117.375.293.656.528.844.234.187.504.281.808.281.61 0 1.231-.434 1.864-1.301l1.054.844c-1.172 1.734-2.39 3-3.656 3.797-1.242.773-2.66 1.16-4.254 1.16-1.875 0-3.34-.434-4.394-1.301-1.055-.89-1.7-2.226-1.934-4.008Zm0-2.566v-11.004c-2.836 1.664-4.945 3.445-6.328 5.344-.914 1.266-1.371 2.543-1.371 3.832 0 1.078.386 2.027 1.16 2.848.586.632 1.406.949 2.461.949 1.172 0 2.531-.656 4.078-1.969Zm25.769-41.379c1.524 0 2.813.539 3.868 1.617 1.054 1.055 1.582 2.332 1.582 3.832s-.539 2.778-1.618 3.832c-1.054 1.055-2.332 1.582-3.832 1.582s-2.777-.527-3.832-1.582c-1.054-1.054-1.582-2.332-1.582-3.832s.528-2.777 1.582-3.832c1.055-1.078 2.332-1.617 3.832-1.617Zm4.922 15.926v26.051c0 2.32.27 3.808.809 4.465.539.632 1.594.996 3.164 1.089V617h-17.754v-1.266c1.453-.046 2.531-.468 3.234-1.265.469-.539.704-1.969.704-4.289v-19.196c0-2.32-.27-3.796-.809-4.429-.539-.657-1.582-1.032-3.129-1.125v-1.301h13.781Zm20.075-14.801v40.852c0 2.32.269 3.808.808 4.465.539.632 1.594.996 3.164 1.089V617h-17.754v-1.266c1.453-.046 2.532-.468 3.235-1.265.468-.539.703-1.969.703-4.289v-34.032c0-2.296-.27-3.761-.809-4.394-.539-.656-1.582-1.031-3.129-1.125v-1.301h13.782Zm35.015 30.059H700.5c.211 4.359 1.371 7.804 3.48 10.336 1.618 1.945 3.563 2.918 5.836 2.918a6.703 6.703 0 0 0 3.832-1.161c1.149-.796 2.379-2.214 3.692-4.253l1.195.773c-1.781 3.633-3.75 6.211-5.906 7.734-2.156 1.5-4.652 2.25-7.488 2.25-4.875 0-8.567-1.875-11.075-5.625-2.015-3.023-3.023-6.773-3.023-11.25 0-5.484 1.477-9.843 4.43-13.078 2.976-3.258 6.457-4.886 10.441-4.886 3.328 0 6.211 1.371 8.648 4.113 2.461 2.719 3.786 6.762 3.973 12.129Zm-8.648-2.356c0-3.773-.211-6.363-.633-7.769-.399-1.407-1.031-2.473-1.899-3.2-.492-.421-1.148-.632-1.968-.632-1.219 0-2.215.597-2.989 1.793-1.382 2.086-2.074 4.945-2.074 8.578v1.23h9.563Zm26.437-12.902v7.453c2.18-3.398 4.09-5.648 5.731-6.75 1.64-1.125 3.222-1.687 4.746-1.687 1.312 0 2.355.41 3.129 1.23.797.797 1.195 1.934 1.195 3.41 0 1.57-.387 2.789-1.16 3.656-.75.868-1.664 1.301-2.742 1.301-1.243 0-2.321-.398-3.235-1.195-.914-.797-1.453-1.242-1.617-1.336a1.537 1.537 0 0 0-.809-.211c-.679 0-1.324.258-1.933.773-.961.797-1.688 1.934-2.18 3.411-.75 2.273-1.125 4.781-1.125 7.523v7.559l.035 1.968c0 1.336.082 2.192.246 2.567.282.633.692 1.101 1.231 1.406.562.281 1.5.457 2.812.527V617h-17.753v-1.266c1.429-.117 2.39-.504 2.882-1.16.516-.679.774-2.449.774-5.308V591.09c0-1.875-.094-3.07-.281-3.586-.235-.656-.575-1.137-1.02-1.442-.445-.304-1.23-.515-2.355-.632v-1.301h13.429Zm-402.258 90v7.453c2.18-3.398 4.09-5.648 5.731-6.75 1.641-1.125 3.223-1.687 4.746-1.687 1.312 0 2.355.41 3.129 1.23.797.797 1.195 1.934 1.195 3.41 0 1.57-.387 2.789-1.16 3.656-.75.868-1.664 1.301-2.742 1.301-1.242 0-2.32-.398-3.235-1.195-.914-.797-1.453-1.242-1.617-1.336a1.536 1.536 0 0 0-.808-.211c-.68 0-1.325.258-1.934.773-.961.797-1.687 1.934-2.18 3.411-.75 2.273-1.125 4.781-1.125 7.523v7.559l.036 1.968c0 1.336.082 2.192.246 2.567.281.633.691 1.101 1.23 1.406.563.281 1.5.457 2.813.527V707h-17.754v-1.266c1.429-.117 2.39-.504 2.883-1.16.515-.679.773-2.449.773-5.308V681.09c0-1.875-.094-3.07-.281-3.586-.235-.656-.574-1.137-1.02-1.442-.445-.304-1.23-.515-2.355-.632v-1.301h13.429Zm44.86 15.258h-18.035c.211 4.359 1.371 7.804 3.48 10.336 1.617 1.945 3.563 2.918 5.836 2.918a6.705 6.705 0 0 0 3.832-1.161c1.149-.796 2.379-2.214 3.691-4.253l1.196.773c-1.781 3.633-3.75 6.211-5.906 7.734-2.157 1.5-4.653 2.25-7.489 2.25-4.875 0-8.566-1.875-11.074-5.625-2.016-3.023-3.023-6.773-3.023-11.25 0-5.484 1.476-9.843 4.429-13.078 2.977-3.258 6.457-4.886 10.442-4.886 3.328 0 6.211 1.371 8.648 4.113 2.461 2.719 3.785 6.762 3.973 12.129Zm-8.649-2.356c0-3.773-.211-6.363-.632-7.769-.399-1.407-1.032-2.473-1.899-3.2-.492-.421-1.148-.632-1.969-.632-1.218 0-2.215.597-2.988 1.793-1.383 2.086-2.074 4.945-2.074 8.578v1.23h9.562Zm25.664-27.703v40.852c0 2.32.27 3.808.809 4.465.539.632 1.594.996 3.164 1.089V707H382.16v-1.266c1.453-.046 2.531-.468 3.235-1.265.468-.539.703-1.969.703-4.289v-34.032c0-2.296-.27-3.761-.809-4.394-.539-.656-1.582-1.031-3.129-1.125v-1.301h13.781Zm35.016 30.059h-18.035c.211 4.359 1.371 7.804 3.48 10.336 1.618 1.945 3.563 2.918 5.836 2.918a6.703 6.703 0 0 0 3.832-1.161c1.149-.796 2.379-2.214 3.692-4.253l1.195.773c-1.781 3.633-3.75 6.211-5.906 7.734-2.156 1.5-4.653 2.25-7.489 2.25-4.874 0-8.566-1.875-11.074-5.625-2.015-3.023-3.023-6.773-3.023-11.25 0-5.484 1.476-9.843 4.43-13.078 2.976-3.258 6.457-4.886 10.441-4.886 3.328 0 6.211 1.371 8.648 4.113 2.461 2.719 3.786 6.762 3.973 12.129Zm-8.648-2.356c0-3.773-.211-6.363-.633-7.769-.399-1.407-1.031-2.473-1.899-3.2-.492-.421-1.148-.632-1.968-.632-1.219 0-2.215.597-2.989 1.793-1.382 2.086-2.074 4.945-2.074 8.578v1.23h9.563Zm30.937 15.117c-4.008 3.54-7.605 5.309-10.793 5.309-1.875 0-3.433-.609-4.676-1.828-1.242-1.242-1.863-2.789-1.863-4.641 0-2.508 1.078-4.758 3.234-6.75 2.157-2.015 6.856-4.687 14.098-8.015v-3.305c0-2.484-.141-4.043-.422-4.676-.258-.656-.762-1.219-1.512-1.687-.75-.493-1.593-.739-2.531-.739-1.523 0-2.777.34-3.761 1.02-.61.422-.915.914-.915 1.476 0 .493.329 1.102.985 1.829.89 1.007 1.336 1.98 1.336 2.918 0 1.148-.434 2.132-1.301 2.953-.844.797-1.957 1.195-3.34 1.195-1.476 0-2.719-.445-3.726-1.336-.985-.891-1.477-1.933-1.477-3.129 0-1.687.668-3.293 2.004-4.816 1.336-1.547 3.199-2.731 5.59-3.551 2.39-.82 4.875-1.23 7.453-1.23 3.117 0 5.578.667 7.383 2.003 1.828 1.313 3.011 2.743 3.55 4.29.329.984.493 3.246.493 6.785v12.761c0 1.5.058 2.45.175 2.848.118.375.293.656.528.844.234.187.504.281.808.281.61 0 1.231-.434 1.864-1.301l1.054.844c-1.172 1.734-2.39 3-3.656 3.797-1.242.773-2.66 1.16-4.254 1.16-1.875 0-3.34-.434-4.394-1.301-1.055-.89-1.7-2.226-1.934-4.008Zm0-2.566v-11.004c-2.836 1.664-4.945 3.445-6.328 5.344-.914 1.266-1.371 2.543-1.371 3.832 0 1.078.387 2.027 1.16 2.848.586.632 1.406.949 2.461.949 1.172 0 2.531-.656 4.078-1.969Zm38.637-26.367.527 11.215h-1.195c-1.43-3.328-2.918-5.602-4.465-6.821-1.523-1.218-3.047-1.828-4.57-1.828-.961 0-1.782.328-2.461.985-.68.632-1.02 1.371-1.02 2.214 0 .633.235 1.243.703 1.829.75.961 2.848 2.613 6.293 4.957 3.446 2.32 5.707 4.3 6.785 5.941 1.102 1.617 1.653 3.434 1.653 5.449 0 1.828-.457 3.621-1.371 5.379-.914 1.758-2.203 3.106-3.867 4.043-1.665.938-3.504 1.406-5.52 1.406-1.57 0-3.668-.492-6.293-1.476-.703-.258-1.184-.387-1.441-.387-.774 0-1.418.586-1.934 1.758h-1.16l-.563-11.813h1.196c1.054 3.094 2.496 5.414 4.324 6.961 1.851 1.547 3.598 2.321 5.238 2.321 1.125 0 2.039-.34 2.742-1.02.727-.703 1.09-1.547 1.09-2.531 0-1.125-.351-2.098-1.054-2.918-.704-.82-2.274-2.063-4.711-3.727-3.586-2.484-5.907-4.382-6.961-5.695-1.547-1.922-2.321-4.043-2.321-6.363 0-2.532.868-4.817 2.602-6.856 1.758-2.062 4.289-3.093 7.594-3.093 1.781 0 3.504.433 5.168 1.3.632.352 1.148.528 1.547.528.421 0 .761-.082 1.019-.246.258-.188.668-.692 1.231-1.512h1.195Zm35.121 16.172h-18.035c.211 4.359 1.371 7.804 3.48 10.336 1.617 1.945 3.563 2.918 5.836 2.918a6.705 6.705 0 0 0 3.832-1.161c1.149-.796 2.379-2.214 3.692-4.253l1.195.773c-1.781 3.633-3.75 6.211-5.906 7.734-2.157 1.5-4.653 2.25-7.489 2.25-4.875 0-8.566-1.875-11.074-5.625-2.015-3.023-3.023-6.773-3.023-11.25 0-5.484 1.476-9.843 4.429-13.078 2.977-3.258 6.457-4.886 10.442-4.886 3.328 0 6.211 1.371 8.648 4.113 2.461 2.719 3.785 6.762 3.973 12.129Zm-8.649-2.356c0-3.773-.21-6.363-.632-7.769-.399-1.407-1.032-2.473-1.899-3.2-.492-.421-1.148-.632-1.969-.632-1.218 0-2.214.597-2.988 1.793-1.383 2.086-2.074 4.945-2.074 8.578v1.23h9.562Zm44.754-27.703v37.828c0 2.555.071 4.067.211 4.535.188.774.539 1.348 1.055 1.723.539.375 1.465.609 2.777.703v1.16l-13.886 2.707v-5.203c-1.664 2.016-3.153 3.387-4.465 4.114-1.289.726-2.754 1.089-4.395 1.089-4.195 0-7.511-1.875-9.949-5.625-1.969-3.047-2.953-6.785-2.953-11.214 0-3.54.609-6.704 1.828-9.493 1.219-2.812 2.883-4.933 4.992-6.363 2.133-1.43 4.418-2.144 6.856-2.144 1.57 0 2.965.304 4.183.914 1.219.609 2.52 1.675 3.903 3.199v-9.914c0-2.508-.106-4.02-.317-4.535-.281-.68-.703-1.184-1.265-1.512-.563-.328-1.618-.492-3.164-.492v-1.477h14.589Zm-9.843 22.289c-1.735-3.328-3.856-4.992-6.364-4.992-.867 0-1.582.234-2.144.703-.867.727-1.582 2.004-2.145 3.832-.539 1.828-.808 4.629-.808 8.402 0 4.149.304 7.219.914 9.211.609 1.993 1.441 3.434 2.496 4.325.539.445 1.277.668 2.215.668 2.062 0 4.008-1.618 5.836-4.852v-17.297Zm50.379-4.043v22.817c0 2.203.234 3.586.703 4.148.75.867 2.132 1.266 4.148 1.195V707h-19.371v-1.266c1.477-.023 2.52-.187 3.129-.492.633-.328 1.066-.773 1.301-1.336.234-.562.351-1.734.351-3.515v-22.817h-4.781v-3.445h4.781v-2.426l-.035-1.652c0-3.375 1.231-6.188 3.691-8.438 2.485-2.25 5.836-3.375 10.055-3.375 2.883 0 5.016.539 6.399 1.617 1.406 1.079 2.109 2.274 2.109 3.586 0 1.055-.434 1.969-1.301 2.743-.867.773-2.015 1.16-3.445 1.16-1.219 0-2.191-.317-2.918-.949-.703-.633-1.055-1.336-1.055-2.11 0-.211.071-.644.211-1.301.094-.398.141-.773.141-1.125 0-.492-.141-.855-.422-1.089a1.93 1.93 0 0 0-1.371-.528c-.68 0-1.254.281-1.723.844-.445.562-.668 1.465-.668 2.707l.071 6.152v4.184h4.851v3.445h-4.851Zm25.066-4.429c2.859 0 5.519.738 7.98 2.214 2.461 1.477 4.325 3.575 5.59 6.293 1.289 2.719 1.934 5.696 1.934 8.93 0 4.664-1.184 8.566-3.551 11.707-2.859 3.797-6.809 5.695-11.848 5.695-4.945 0-8.754-1.734-11.425-5.203-2.672-3.469-4.008-7.488-4.008-12.058 0-4.711 1.359-8.813 4.078-12.305 2.742-3.516 6.492-5.273 11.25-5.273Zm.141 2.496c-1.196 0-2.227.457-3.094 1.371-.844.89-1.406 2.672-1.688 5.343-.258 2.649-.386 6.34-.386 11.075 0 2.508.164 4.851.492 7.031.258 1.664.808 2.93 1.652 3.797.844.867 1.805 1.301 2.883 1.301 1.055 0 1.934-.293 2.637-.879.914-.797 1.523-1.91 1.828-3.34.469-2.227.703-6.727.703-13.5 0-3.985-.223-6.715-.668-8.192-.445-1.5-1.102-2.589-1.969-3.269-.609-.492-1.406-.738-2.39-.738Zm33.996-1.512v7.453c2.179-3.398 4.09-5.648 5.73-6.75 1.641-1.125 3.223-1.687 4.746-1.687 1.313 0 2.356.41 3.129 1.23.797.797 1.195 1.934 1.195 3.41 0 1.57-.386 2.789-1.16 3.656-.75.868-1.664 1.301-2.742 1.301-1.242 0-2.32-.398-3.234-1.195-.914-.797-1.453-1.242-1.617-1.336a1.54 1.54 0 0 0-.809-.211c-.68 0-1.324.258-1.934.773-.961.797-1.687 1.934-2.179 3.411-.75 2.273-1.125 4.781-1.125 7.523v7.559l.035 1.968c0 1.336.082 2.192.246 2.567.281.633.691 1.101 1.23 1.406.563.281 1.5.457 2.813.527V707h-17.754v-1.266c1.43-.117 2.391-.504 2.883-1.16.515-.679.773-2.449.773-5.308V681.09c0-1.875-.094-3.07-.281-3.586-.234-.656-.574-1.137-1.02-1.442-.445-.304-1.23-.515-2.355-.632v-1.301h13.43Zm48.445 0v4.254c1.687-1.828 3.305-3.153 4.852-3.973a10.254 10.254 0 0 1 4.992-1.265c2.133 0 3.902.597 5.308 1.793a8.408 8.408 0 0 1 2.813 4.394c.375 1.336.562 3.902.562 7.699v12.797c0 2.531.223 4.113.668 4.746.469.61 1.43.996 2.883 1.16V707h-16.629v-1.266c1.242-.164 2.133-.679 2.672-1.546.375-.586.563-2.04.563-4.36v-14.625c0-2.695-.106-4.394-.317-5.098-.211-.703-.574-1.242-1.09-1.617a2.561 2.561 0 0 0-1.652-.597c-2.016 0-3.891 1.441-5.625 4.324v17.613c0 2.461.223 4.02.668 4.676.469.656 1.324 1.066 2.566 1.23V707h-16.629v-1.266c1.383-.14 2.368-.586 2.954-1.336.398-.515.597-2.039.597-4.57v-18.562c0-2.485-.234-4.032-.703-4.641-.445-.609-1.394-1.008-2.848-1.195v-1.301h13.395Zm54.492 15.258H747.75c.211 4.359 1.371 7.804 3.48 10.336 1.618 1.945 3.563 2.918 5.836 2.918a6.703 6.703 0 0 0 3.832-1.161c1.149-.796 2.379-2.214 3.692-4.253l1.195.773c-1.781 3.633-3.75 6.211-5.906 7.734-2.156 1.5-4.652 2.25-7.488 2.25-4.875 0-8.567-1.875-11.075-5.625-2.015-3.023-3.023-6.773-3.023-11.25 0-5.484 1.477-9.843 4.43-13.078 2.976-3.258 6.457-4.886 10.441-4.886 3.328 0 6.211 1.371 8.648 4.113 2.461 2.719 3.786 6.762 3.973 12.129Zm-8.648-2.356c0-3.773-.211-6.363-.633-7.769-.399-1.407-1.031-2.473-1.899-3.2-.492-.421-1.148-.632-1.968-.632-1.219 0-2.215.597-2.989 1.793-1.382 2.086-2.074 4.945-2.074 8.578v1.23h9.563Zm45.386 20.953-9-24.117-8.824 24.117h-1.828l-8.754-23.836c-1.312-3.632-2.426-6-3.34-7.101-.586-.75-1.476-1.289-2.672-1.617v-1.301h16.594v1.301c-1.125 0-1.898.164-2.32.492-.422.328-.633.703-.633 1.125 0 .398.375 1.594 1.125 3.586l4.817 12.832 4.64-12.832-.351-.844c-.704-1.758-1.325-2.871-1.864-3.34-.515-.492-1.324-.832-2.425-1.019v-1.301h16.839v1.301c-1.312.07-2.144.258-2.496.562-.351.281-.527.692-.527 1.231 0 .515.34 1.652 1.019 3.41l4.641 12.832 4.219-11.813c.609-1.687.914-2.836.914-3.445 0-.914-.223-1.582-.668-2.004-.445-.422-1.313-.68-2.602-.773v-1.301h9.739v1.301c-1.078.14-1.934.527-2.567 1.16-.633.609-1.453 2.367-2.461 5.273l-9.211 26.121h-2.004Zm-467.683 59.59v22.817c0 2.203.234 3.586.703 4.148.75.867 2.133 1.266 4.148 1.195V797H320.32v-1.266c1.477-.023 2.52-.187 3.129-.492.633-.328 1.067-.773 1.301-1.336.234-.562.352-1.734.352-3.515v-22.817h-4.782v-3.445h4.782v-2.426l-.036-1.652c0-3.375 1.231-6.188 3.692-8.438 2.484-2.25 5.836-3.375 10.054-3.375 2.883 0 5.016.539 6.399 1.617 1.406 1.079 2.109 2.274 2.109 3.586 0 1.055-.433 1.969-1.3 2.743-.868.773-2.016 1.16-3.446 1.16-1.219 0-2.191-.317-2.918-.949-.703-.633-1.054-1.336-1.054-2.11 0-.211.07-.644.21-1.301.094-.398.141-.773.141-1.125 0-.492-.141-.855-.422-1.089a1.93 1.93 0 0 0-1.371-.528c-.68 0-1.254.281-1.722.844-.446.562-.668 1.465-.668 2.707l.07 6.152v4.184h4.851v3.445h-4.851Zm17.472-19.371c1.524 0 2.813.539 3.868 1.617 1.054 1.055 1.582 2.332 1.582 3.832s-.539 2.778-1.617 3.832c-1.055 1.055-2.333 1.582-3.833 1.582s-2.777-.527-3.832-1.582c-1.054-1.054-1.582-2.332-1.582-3.832s.528-2.777 1.582-3.832c1.055-1.078 2.332-1.617 3.832-1.617Zm4.922 15.926v26.051c0 2.32.27 3.808.809 4.465.539.632 1.594.996 3.164 1.089V797h-17.754v-1.266c1.453-.046 2.531-.468 3.235-1.265.468-.539.703-1.969.703-4.289v-19.196c0-2.32-.27-3.796-.809-4.429-.539-.657-1.582-1.032-3.129-1.125v-1.301h13.781Zm20.075-14.801v40.852c0 2.32.269 3.808.808 4.465.539.632 1.594.996 3.164 1.089V797h-17.754v-1.266c1.453-.046 2.532-.468 3.235-1.265.468-.539.703-1.969.703-4.289v-34.032c0-2.296-.27-3.761-.809-4.394-.539-.656-1.582-1.031-3.129-1.125v-1.301h13.782Zm20.812 14.801v4.324c1.805-1.969 3.469-3.34 4.992-4.113 1.547-.797 3.235-1.195 5.063-1.195 2.109 0 3.879.492 5.308 1.476 1.43.984 2.532 2.484 3.305 4.5 1.875-2.109 3.668-3.633 5.379-4.57 1.734-.938 3.539-1.406 5.414-1.406 2.273 0 4.078.527 5.414 1.582a7.884 7.884 0 0 1 2.813 3.972c.539 1.594.808 4.149.808 7.664v13.465c0 2.531.223 4.102.668 4.711.469.609 1.43 1.008 2.883 1.195V797h-16.98v-1.266c1.335-.117 2.32-.632 2.953-1.546.421-.633.632-2.086.632-4.36v-14.133c0-2.929-.117-4.793-.351-5.59-.234-.796-.61-1.382-1.125-1.757-.492-.399-1.078-.598-1.758-.598-1.008 0-2.027.375-3.059 1.125-1.031.727-2.074 1.828-3.128 3.305v17.648c0 2.367.199 3.856.597 4.465.539.867 1.571 1.348 3.094 1.441V797h-17.016v-1.266c.914-.046 1.629-.269 2.145-.668.539-.421.89-.914 1.055-1.476.187-.586.281-1.84.281-3.762v-14.133c0-2.976-.117-4.84-.352-5.59-.234-.75-.633-1.335-1.195-1.757-.539-.422-1.125-.633-1.758-.633-.937 0-1.793.246-2.566.738-1.102.727-2.274 1.969-3.516 3.727v17.648c0 2.32.223 3.856.668 4.606.469.726 1.43 1.16 2.883 1.3V797h-16.945v-1.266c1.382-.14 2.367-.586 2.953-1.336.398-.515.597-2.039.597-4.57v-18.562c0-2.485-.234-4.032-.703-4.641-.445-.609-1.394-1.008-2.847-1.195v-1.301h13.394Zm72.246-15.926c1.524 0 2.813.539 3.867 1.617 1.055 1.055 1.582 2.332 1.582 3.832s-.539 2.778-1.617 3.832c-1.054 1.055-2.332 1.582-3.832 1.582s-2.777-.527-3.832-1.582c-1.055-1.054-1.582-2.332-1.582-3.832s.527-2.777 1.582-3.832c1.055-1.078 2.332-1.617 3.832-1.617Zm4.922 15.926v26.051c0 2.32.27 3.808.809 4.465.539.632 1.593.996 3.164 1.089V797h-17.754v-1.266c1.453-.046 2.531-.468 3.234-1.265.469-.539.703-1.969.703-4.289v-19.196c0-2.32-.269-3.796-.808-4.429-.539-.657-1.582-1.032-3.129-1.125v-1.301h13.781Zm20.637 0v4.254c1.687-1.828 3.304-3.153 4.851-3.973a10.26 10.26 0 0 1 4.993-1.265c2.132 0 3.902.597 5.308 1.793a8.414 8.414 0 0 1 2.813 4.394c.375 1.336.562 3.902.562 7.699v12.797c0 2.531.223 4.113.668 4.746.469.61 1.43.996 2.883 1.16V797h-16.629v-1.266c1.242-.164 2.133-.679 2.672-1.546.375-.586.562-2.04.562-4.36v-14.625c0-2.695-.105-4.394-.316-5.098-.211-.703-.574-1.242-1.09-1.617a2.561 2.561 0 0 0-1.652-.597c-2.016 0-3.891 1.441-5.625 4.324v17.613c0 2.461.222 4.02.668 4.676.468.656 1.324 1.066 2.566 1.23V797h-16.629v-1.266c1.383-.14 2.367-.586 2.953-1.336.399-.515.598-2.039.598-4.57v-18.562c0-2.485-.234-4.032-.703-4.641-.445-.609-1.395-1.008-2.848-1.195v-1.301h13.395Zm77.238 33.855-9-24.117-8.824 24.117h-1.828l-8.754-23.836c-1.313-3.632-2.426-6-3.34-7.101-.586-.75-1.477-1.289-2.672-1.617v-1.301h16.594v1.301c-1.125 0-1.899.164-2.32.492-.422.328-.633.703-.633 1.125 0 .398.375 1.594 1.125 3.586l4.816 12.832 4.641-12.832-.352-.844c-.703-1.758-1.324-2.871-1.863-3.34-.516-.492-1.324-.832-2.426-1.019v-1.301h16.84v1.301c-1.313.07-2.145.258-2.496.562-.352.281-.527.692-.527 1.231 0 .515.339 1.652 1.019 3.41l4.641 12.832 4.218-11.813c.61-1.687.915-2.836.915-3.445 0-.914-.223-1.582-.668-2.004-.446-.422-1.313-.68-2.602-.773v-1.301h9.738v1.301c-1.078.14-1.933.527-2.566 1.16-.633.609-1.453 2.367-2.461 5.273l-9.211 26.121h-2.004Zm34.945-34.839c2.86 0 5.52.738 7.981 2.214 2.461 1.477 4.324 3.575 5.59 6.293 1.289 2.719 1.933 5.696 1.933 8.93 0 4.664-1.183 8.566-3.551 11.707-2.859 3.797-6.808 5.695-11.847 5.695-4.945 0-8.754-1.734-11.426-5.203-2.672-3.469-4.008-7.488-4.008-12.058 0-4.711 1.36-8.813 4.078-12.305 2.743-3.516 6.493-5.273 11.25-5.273Zm.141 2.496c-1.195 0-2.227.457-3.094 1.371-.844.89-1.406 2.672-1.687 5.343-.258 2.649-.387 6.34-.387 11.075 0 2.508.164 4.851.492 7.031.258 1.664.809 2.93 1.653 3.797.843.867 1.804 1.301 2.882 1.301 1.055 0 1.934-.293 2.637-.879.914-.797 1.524-1.91 1.828-3.34.469-2.227.703-6.727.703-13.5 0-3.985-.222-6.715-.668-8.192-.445-1.5-1.101-2.589-1.968-3.269-.61-.492-1.407-.738-2.391-.738Zm33.996-1.512v7.453c2.18-3.398 4.09-5.648 5.731-6.75 1.64-1.125 3.222-1.687 4.746-1.687 1.312 0 2.355.41 3.129 1.23.796.797 1.195 1.934 1.195 3.41 0 1.57-.387 2.789-1.16 3.656-.75.868-1.664 1.301-2.742 1.301-1.243 0-2.321-.398-3.235-1.195-.914-.797-1.453-1.242-1.617-1.336a1.537 1.537 0 0 0-.809-.211c-.679 0-1.324.258-1.933.773-.961.797-1.688 1.934-2.18 3.411-.75 2.273-1.125 4.781-1.125 7.523v7.559l.035 1.968c0 1.336.082 2.192.246 2.567.282.633.692 1.101 1.231 1.406.562.281 1.5.457 2.812.527V797h-17.754v-1.266c1.43-.117 2.391-.504 2.883-1.16.516-.679.774-2.449.774-5.308V771.09c0-1.875-.094-3.07-.282-3.586-.234-.656-.574-1.137-1.019-1.442-.445-.304-1.231-.515-2.356-.632v-1.301h13.43Zm31.219-14.801v40.852c0 2.32.269 3.808.808 4.465.539.632 1.594.996 3.165 1.089V797h-17.754v-1.266c1.453-.046 2.531-.468 3.234-1.265.469-.539.703-1.969.703-4.289v-34.032c0-2.296-.269-3.761-.809-4.394-.539-.656-1.582-1.031-3.128-1.125v-1.301h13.781Zm39.129 0v37.828c0 2.555.07 4.067.211 4.535.187.774.539 1.348 1.054 1.723.539.375 1.465.609 2.778.703v1.16l-13.887 2.707v-5.203c-1.664 2.016-3.152 3.387-4.465 4.114-1.289.726-2.754 1.089-4.394 1.089-4.196 0-7.512-1.875-9.95-5.625-1.968-3.047-2.953-6.785-2.953-11.214 0-3.54.61-6.704 1.828-9.493 1.219-2.812 2.883-4.933 4.993-6.363 2.132-1.43 4.418-2.144 6.855-2.144 1.57 0 2.965.304 4.184.914 1.218.609 2.519 1.675 3.902 3.199v-9.914c0-2.508-.105-4.02-.316-4.535-.282-.68-.704-1.184-1.266-1.512-.563-.328-1.617-.492-3.164-.492v-1.477h14.59Zm-9.844 22.289c-1.734-3.328-3.855-4.992-6.363-4.992-.867 0-1.582.234-2.145.703-.867.727-1.582 2.004-2.144 3.832-.539 1.828-.809 4.629-.809 8.402 0 4.149.305 7.219.914 9.211.609 1.993 1.442 3.434 2.496 4.325.539.445 1.278.668 2.215.668 2.063 0 4.008-1.618 5.836-4.852v-17.297Zm22.148.035v-1.547c2.719-1.171 4.688-2.683 5.907-4.535 1.242-1.875 1.863-3.797 1.863-5.765 0-.375-.082-.668-.246-.879-.164-.188-.328-.281-.492-.281-.141 0-.352.082-.633.246-.68.398-1.524.597-2.531.597-1.383 0-2.59-.539-3.621-1.617-1.008-1.078-1.512-2.344-1.512-3.797 0-1.547.586-2.906 1.758-4.078 1.171-1.172 2.589-1.758 4.254-1.758 2.015 0 3.738.785 5.167 2.356 1.43 1.547 2.145 3.679 2.145 6.398 0 3.352-1.019 6.328-3.059 8.93-2.015 2.601-5.015 4.512-9 5.73Zm37.899-8.437.527 11.215h-1.195c-1.43-3.328-2.918-5.602-4.465-6.821-1.523-1.218-3.047-1.828-4.57-1.828-.961 0-1.782.328-2.461.985-.68.632-1.02 1.371-1.02 2.214 0 .633.235 1.243.703 1.829.75.961 2.848 2.613 6.293 4.957 3.446 2.32 5.707 4.3 6.786 5.941 1.101 1.617 1.652 3.434 1.652 5.449 0 1.828-.457 3.621-1.371 5.379-.914 1.758-2.203 3.106-3.867 4.043-1.664.938-3.504 1.406-5.52 1.406-1.57 0-3.668-.492-6.293-1.476-.703-.258-1.184-.387-1.441-.387-.774 0-1.418.586-1.934 1.758h-1.16l-.563-11.813h1.196c1.054 3.094 2.496 5.414 4.324 6.961 1.852 1.547 3.598 2.321 5.238 2.321 1.125 0 2.039-.34 2.742-1.02.727-.703 1.09-1.547 1.09-2.531 0-1.125-.351-2.098-1.054-2.918-.704-.82-2.274-2.063-4.711-3.727-3.586-2.484-5.907-4.382-6.961-5.695-1.547-1.922-2.321-4.043-2.321-6.363 0-2.532.868-4.817 2.602-6.856 1.758-2.062 4.289-3.093 7.594-3.093 1.781 0 3.504.433 5.168 1.3.633.352 1.148.528 1.547.528.421 0 .761-.082 1.019-.246.258-.188.668-.692 1.231-1.512h1.195Zm-429.645 76.113v18.106c2.766-2.86 5.789-4.289 9.071-4.289 2.25 0 4.371.667 6.363 2.003 1.992 1.313 3.551 3.188 4.676 5.625 1.125 2.438 1.687 5.25 1.687 8.438 0 3.586-.715 6.844-2.144 9.773-1.43 2.93-3.34 5.168-5.731 6.715-2.39 1.524-5.121 2.285-8.191 2.285-1.781 0-3.363-.281-4.746-.843-1.383-.563-2.742-1.477-4.078-2.743l-5.45 3.551h-1.195v-41.801c0-1.898-.082-3.07-.246-3.515-.234-.656-.609-1.137-1.125-1.442-.492-.328-1.336-.515-2.531-.562v-1.301h13.64Zm0 21.234v14.626c0 2.976.071 4.874.211 5.695.235 1.383.797 2.508 1.688 3.375.89.844 2.027 1.265 3.41 1.265 1.195 0 2.215-.339 3.059-1.019.867-.68 1.582-2.027 2.144-4.043.586-2.016.879-5.649.879-10.899 0-5.039-.633-8.496-1.898-10.371-.915-1.359-2.145-2.039-3.692-2.039-2.015 0-3.949 1.137-5.801 3.41Zm35.262-22.359c1.524 0 2.813.539 3.867 1.617 1.055 1.055 1.582 2.332 1.582 3.832s-.539 2.778-1.617 3.832c-1.055 1.055-2.332 1.582-3.832 1.582s-2.777-.527-3.832-1.582c-1.055-1.054-1.582-2.332-1.582-3.832s.527-2.777 1.582-3.832c1.055-1.078 2.332-1.617 3.832-1.617Zm4.922 15.926v26.051c0 2.32.269 3.808.809 4.465.539.632 1.593.996 3.164 1.089V887h-17.754v-1.266c1.453-.046 2.531-.468 3.234-1.265.469-.539.703-1.969.703-4.289v-19.196c0-2.32-.269-3.796-.808-4.429-.539-.657-1.582-1.032-3.129-1.125v-1.301h13.781Zm28.301.387h11.074v3.867h-6.293c1.148 1.148 1.945 2.191 2.391 3.129a9.681 9.681 0 0 1 .843 3.972c0 2.344-.656 4.383-1.968 6.118-1.289 1.71-3.059 3.058-5.309 4.043-2.227.96-4.207 1.441-5.941 1.441-.141 0-1.547-.059-4.219-.176-1.055 0-1.945.352-2.672 1.055-.703.68-1.055 1.5-1.055 2.461 0 .844.317 1.535.95 2.074.656.539 1.71.809 3.164.809l6.082-.071c4.921 0 8.308.539 10.16 1.617 2.648 1.5 3.972 3.809 3.972 6.926 0 1.992-.609 3.797-1.828 5.414-1.218 1.641-2.824 2.848-4.816 3.621-3.024 1.149-6.504 1.723-10.442 1.723-2.953 0-5.648-.293-8.085-.879-2.438-.562-4.184-1.359-5.239-2.39-1.054-1.008-1.582-2.075-1.582-3.2 0-1.078.399-2.05 1.196-2.918.82-.843 2.332-1.558 4.535-2.144-3.047-1.5-4.571-3.586-4.571-6.258 0-1.617.621-3.188 1.864-4.711 1.242-1.523 3.211-2.848 5.906-3.973-3.141-1.148-5.414-2.66-6.82-4.535-1.407-1.875-2.11-4.043-2.11-6.504 0-3.211 1.313-5.988 3.938-8.332 2.625-2.367 6-3.55 10.125-3.55 2.179 0 4.429.457 6.75 1.371Zm-6.082.808c-1.36 0-2.508.692-3.446 2.074-.937 1.36-1.406 4.196-1.406 8.508 0 3.492.457 5.895 1.371 7.207.938 1.289 2.039 1.934 3.305 1.934 1.406 0 2.578-.645 3.516-1.934.937-1.289 1.406-3.797 1.406-7.523 0-4.195-.528-7.055-1.582-8.578-.75-1.125-1.805-1.688-3.164-1.688Zm-2.075 36.528c-2.39 0-3.972.199-4.746.597-1.336.727-2.004 1.711-2.004 2.953 0 1.196.692 2.274 2.075 3.235 1.383.984 3.984 1.476 7.804 1.476 3.258 0 5.813-.433 7.664-1.301 1.875-.867 2.813-2.085 2.813-3.656 0-.586-.176-1.078-.527-1.476-.633-.703-1.594-1.184-2.883-1.442-1.266-.258-4.664-.386-10.196-.386Zm44.157-37.336h11.074v3.867h-6.293c1.148 1.148 1.945 2.191 2.391 3.129a9.681 9.681 0 0 1 .843 3.972c0 2.344-.656 4.383-1.968 6.118-1.289 1.71-3.059 3.058-5.309 4.043-2.227.96-4.207 1.441-5.941 1.441-.141 0-1.547-.059-4.219-.176-1.055 0-1.945.352-2.672 1.055-.703.68-1.055 1.5-1.055 2.461 0 .844.317 1.535.95 2.074.656.539 1.71.809 3.164.809l6.082-.071c4.921 0 8.308.539 10.16 1.617 2.648 1.5 3.972 3.809 3.972 6.926 0 1.992-.609 3.797-1.828 5.414-1.218 1.641-2.824 2.848-4.816 3.621-3.024 1.149-6.504 1.723-10.442 1.723-2.953 0-5.648-.293-8.085-.879-2.438-.562-4.184-1.359-5.239-2.39-1.054-1.008-1.582-2.075-1.582-3.2 0-1.078.399-2.05 1.196-2.918.82-.843 2.332-1.558 4.535-2.144-3.047-1.5-4.571-3.586-4.571-6.258 0-1.617.621-3.188 1.864-4.711 1.242-1.523 3.211-2.848 5.906-3.973-3.141-1.148-5.414-2.66-6.82-4.535-1.407-1.875-2.11-4.043-2.11-6.504 0-3.211 1.313-5.988 3.938-8.332 2.625-2.367 6-3.55 10.125-3.55 2.179 0 4.429.457 6.75 1.371Zm-6.082.808c-1.36 0-2.508.692-3.446 2.074-.937 1.36-1.406 4.196-1.406 8.508 0 3.492.457 5.895 1.371 7.207.938 1.289 2.039 1.934 3.305 1.934 1.406 0 2.578-.645 3.516-1.934.937-1.289 1.406-3.797 1.406-7.523 0-4.195-.528-7.055-1.582-8.578-.75-1.125-1.805-1.688-3.164-1.688Zm-2.075 36.528c-2.39 0-3.972.199-4.746.597-1.336.727-2.004 1.711-2.004 2.953 0 1.196.692 2.274 2.075 3.235 1.383.984 3.984 1.476 7.804 1.476 3.258 0 5.813-.433 7.664-1.301 1.875-.867 2.813-2.085 2.813-3.656 0-.586-.176-1.078-.527-1.476-.633-.703-1.594-1.184-2.883-1.442-1.266-.258-4.664-.386-10.196-.386Zm50.907-22.465h-18.035c.21 4.359 1.371 7.804 3.48 10.336 1.617 1.945 3.563 2.918 5.836 2.918a6.705 6.705 0 0 0 3.832-1.161c1.148-.796 2.379-2.214 3.691-4.253l1.196.773c-1.782 3.633-3.75 6.211-5.907 7.734-2.156 1.5-4.652 2.25-7.488 2.25-4.875 0-8.566-1.875-11.074-5.625-2.016-3.023-3.023-6.773-3.023-11.25 0-5.484 1.476-9.843 4.429-13.078 2.977-3.258 6.457-4.886 10.442-4.886 3.328 0 6.211 1.371 8.648 4.113 2.461 2.719 3.785 6.762 3.973 12.129Zm-8.649-2.356c0-3.773-.211-6.363-.633-7.769-.398-1.407-1.031-2.473-1.898-3.2-.492-.421-1.148-.632-1.969-.632-1.218 0-2.215.597-2.988 1.793-1.383 2.086-2.074 4.945-2.074 8.578v1.23h9.562Zm33.574-13.816.528 11.215h-1.195c-1.43-3.328-2.918-5.602-4.465-6.821-1.524-1.218-3.047-1.828-4.571-1.828-.961 0-1.781.328-2.461.985-.679.632-1.019 1.371-1.019 2.214 0 .633.234 1.243.703 1.829.75.961 2.848 2.613 6.293 4.957 3.445 2.32 5.707 4.3 6.785 5.941 1.102 1.617 1.652 3.434 1.652 5.449 0 1.828-.457 3.621-1.371 5.379-.914 1.758-2.203 3.106-3.867 4.043-1.664.938-3.504 1.406-5.519 1.406-1.571 0-3.668-.492-6.293-1.476-.703-.258-1.184-.387-1.442-.387-.773 0-1.418.586-1.933 1.758h-1.16l-.563-11.813h1.195c1.055 3.094 2.496 5.414 4.325 6.961 1.851 1.547 3.597 2.321 5.238 2.321 1.125 0 2.039-.34 2.742-1.02.727-.703 1.09-1.547 1.09-2.531 0-1.125-.352-2.098-1.055-2.918-.703-.82-2.273-2.063-4.711-3.727-3.586-2.484-5.906-4.382-6.961-5.695-1.547-1.922-2.32-4.043-2.32-6.363 0-2.532.867-4.817 2.602-6.856 1.757-2.062 4.289-3.093 7.593-3.093 1.782 0 3.504.433 5.168 1.3.633.352 1.149.528 1.547.528.422 0 .762-.082 1.02-.246.258-.188.668-.692 1.23-1.512h1.195Zm20.321-11.11v12.024h7.805v3.48h-7.805v20.286c0 1.898.082 3.128.246 3.691.187.539.504.984.949 1.336.445.328.856.492 1.231.492 1.523 0 2.964-1.16 4.324-3.48l1.055.773c-1.899 4.5-4.981 6.75-9.247 6.75-2.086 0-3.855-.574-5.308-1.723-1.43-1.172-2.344-2.472-2.742-3.902-.235-.797-.352-2.953-.352-6.469v-17.754H511.5v-1.23c2.953-2.086 5.461-4.277 7.523-6.574a39.618 39.618 0 0 0 5.45-7.7h1.16Zm49.711 11.11.527 11.215h-1.195c-1.43-3.328-2.918-5.602-4.465-6.821-1.523-1.218-3.047-1.828-4.57-1.828-.961 0-1.782.328-2.461.985-.68.632-1.02 1.371-1.02 2.214 0 .633.235 1.243.703 1.829.75.961 2.848 2.613 6.293 4.957 3.446 2.32 5.707 4.3 6.785 5.941 1.102 1.617 1.653 3.434 1.653 5.449 0 1.828-.457 3.621-1.371 5.379-.914 1.758-2.203 3.106-3.868 4.043-1.664.938-3.503 1.406-5.519 1.406-1.57 0-3.668-.492-6.293-1.476-.703-.258-1.184-.387-1.441-.387-.774 0-1.418.586-1.934 1.758h-1.16l-.563-11.813h1.196c1.054 3.094 2.496 5.414 4.324 6.961 1.851 1.547 3.597 2.321 5.238 2.321 1.125 0 2.039-.34 2.742-1.02.727-.703 1.09-1.547 1.09-2.531 0-1.125-.351-2.098-1.055-2.918-.703-.82-2.273-2.063-4.71-3.727-3.586-2.484-5.907-4.382-6.961-5.695-1.547-1.922-2.321-4.043-2.321-6.363 0-2.532.867-4.817 2.602-6.856 1.758-2.062 4.289-3.093 7.594-3.093 1.781 0 3.504.433 5.168 1.3.632.352 1.148.528 1.546.528.422 0 .762-.082 1.02-.246.258-.188.668-.692 1.23-1.512h1.196Zm34.101 25.312 1.09.844c-1.547 2.906-3.48 5.074-5.801 6.504-2.296 1.406-4.746 2.109-7.347 2.109-4.383 0-7.887-1.652-10.512-4.957-2.625-3.304-3.937-7.277-3.937-11.918 0-4.476 1.195-8.414 3.585-11.812 2.883-4.102 6.856-6.152 11.918-6.152 3.399 0 6.094.855 8.086 2.566 2.016 1.711 3.024 3.621 3.024 5.73 0 1.336-.41 2.403-1.231 3.2-.797.797-1.851 1.195-3.164 1.195-1.383 0-2.531-.457-3.445-1.371-.891-.914-1.441-2.543-1.652-4.887-.141-1.476-.481-2.508-1.02-3.094-.539-.586-1.172-.879-1.898-.879-1.125 0-2.086.598-2.883 1.793-1.219 1.805-1.828 4.571-1.828 8.297 0 3.094.492 6.059 1.476 8.895.985 2.812 2.332 4.91 4.043 6.293 1.289 1.008 2.813 1.512 4.571 1.512a6.96 6.96 0 0 0 3.269-.809c1.031-.539 2.25-1.559 3.656-3.059Zm13.078-40.324c1.524 0 2.813.539 3.868 1.617 1.054 1.055 1.582 2.332 1.582 3.832s-.539 2.778-1.618 3.832c-1.054 1.055-2.332 1.582-3.832 1.582s-2.777-.527-3.832-1.582c-1.054-1.054-1.582-2.332-1.582-3.832s.528-2.777 1.582-3.832c1.055-1.078 2.332-1.617 3.832-1.617Zm4.922 15.926v26.051c0 2.32.27 3.808.809 4.465.539.632 1.594.996 3.164 1.089V887h-17.754v-1.266c1.453-.046 2.531-.468 3.234-1.265.469-.539.704-1.969.704-4.289v-19.196c0-2.32-.27-3.796-.809-4.429-.539-.657-1.582-1.032-3.129-1.125v-1.301h13.781Zm27.035 19.969h-20.496v-7.278h20.496v7.278Zm18.563-16.524v22.817c0 2.203.234 3.586.703 4.148.75.867 2.133 1.266 4.149 1.195V887h-19.372v-1.266c1.477-.023 2.52-.187 3.129-.492.633-.328 1.067-.773 1.301-1.336.235-.562.352-1.734.352-3.515v-22.817h-4.782v-3.445h4.782v-2.426l-.035-1.652c0-3.375 1.23-6.188 3.691-8.438 2.484-2.25 5.836-3.375 10.055-3.375 2.882 0 5.015.539 6.398 1.617 1.406 1.079 2.109 2.274 2.109 3.586 0 1.055-.433 1.969-1.3 2.743-.868.773-2.016 1.16-3.446 1.16-1.218 0-2.191-.317-2.918-.949-.703-.633-1.054-1.336-1.054-2.11 0-.211.07-.644.211-1.301.093-.398.14-.773.14-1.125 0-.492-.14-.855-.422-1.089a1.93 1.93 0 0 0-1.371-.528c-.679 0-1.254.281-1.722.844-.446.562-.668 1.465-.668 2.707l.07 6.152v4.184h4.852v3.445h-4.852Zm17.473-19.371c1.523 0 2.812.539 3.867 1.617 1.055 1.055 1.582 2.332 1.582 3.832s-.539 2.778-1.617 3.832c-1.055 1.055-2.332 1.582-3.832 1.582s-2.778-.527-3.832-1.582c-1.055-1.054-1.582-2.332-1.582-3.832s.527-2.777 1.582-3.832c1.054-1.078 2.332-1.617 3.832-1.617Zm4.922 15.926v26.051c0 2.32.269 3.808.808 4.465.539.632 1.594.996 3.164 1.089V887h-17.754v-1.266c1.453-.046 2.532-.468 3.235-1.265.468-.539.703-1.969.703-4.289v-19.196c0-2.32-.27-3.796-.809-4.429-.539-.657-1.582-1.032-3.129-1.125v-1.301h13.782Zm-354.235 89.086.527 11.215h-1.195c-1.43-3.328-2.918-5.602-4.465-6.821-1.523-1.218-3.047-1.828-4.57-1.828-.961 0-1.781.328-2.461.985-.68.632-1.019 1.371-1.019 2.214 0 .633.234 1.243.703 1.829.75.961 2.847 2.613 6.293 4.957 3.445 2.32 5.707 4.3 6.785 5.941 1.101 1.617 1.652 3.434 1.652 5.449 0 1.828-.457 3.621-1.371 5.379-.914 1.758-2.203 3.106-3.867 4.043-1.664.938-3.504 1.406-5.52 1.406-1.57 0-3.668-.492-6.293-1.476-.703-.258-1.183-.387-1.441-.387-.773 0-1.418.586-1.934 1.758h-1.16l-.562-11.813h1.195c1.055 3.094 2.496 5.414 4.324 6.961 1.852 1.547 3.598 2.321 5.238 2.321 1.126 0 2.04-.34 2.743-1.02.726-.703 1.09-1.547 1.09-2.531 0-1.125-.352-2.098-1.055-2.918-.703-.82-2.274-2.063-4.711-3.727-3.586-2.484-5.906-4.382-6.961-5.695-1.547-1.922-2.32-4.043-2.32-6.363 0-2.532.867-4.817 2.601-6.856 1.758-2.062 4.289-3.093 7.594-3.093 1.781 0 3.504.433 5.168 1.3.633.352 1.148.528 1.547.528.422 0 .762-.082 1.019-.246.258-.188.668-.692 1.231-1.512h1.195Zm35.121 16.172h-18.035c.211 4.359 1.371 7.804 3.481 10.336 1.617 1.945 3.562 2.918 5.835 2.918a6.709 6.709 0 0 0 3.833-1.161c1.148-.796 2.378-2.214 3.691-4.253l1.195.773c-1.781 3.633-3.75 6.211-5.906 7.734-2.156 1.5-4.652 2.25-7.488 2.25-4.875 0-8.567-1.875-11.075-5.625-2.015-3.023-3.023-6.773-3.023-11.25 0-5.484 1.477-9.843 4.43-13.078 2.976-3.258 6.457-4.886 10.441-4.886 3.328 0 6.211 1.371 8.649 4.113 2.46 2.719 3.785 6.762 3.972 12.129Zm-8.648-2.356c0-3.773-.211-6.363-.633-7.769-.398-1.407-1.031-2.473-1.898-3.2-.493-.421-1.149-.632-1.969-.632-1.219 0-2.215.597-2.988 1.793-1.383 2.086-2.075 4.945-2.075 8.578v1.23h9.563Zm26.437-12.902v7.453c2.18-3.398 4.09-5.648 5.731-6.75 1.64-1.125 3.222-1.687 4.746-1.687 1.312 0 2.355.41 3.129 1.23.797.797 1.195 1.934 1.195 3.41 0 1.57-.387 2.789-1.16 3.656-.75.868-1.664 1.301-2.742 1.301-1.242 0-2.321-.398-3.235-1.195-.914-.797-1.453-1.242-1.617-1.336a1.536 1.536 0 0 0-.808-.211c-.68 0-1.325.258-1.934.773-.961.797-1.688 1.934-2.18 3.411-.75 2.273-1.125 4.781-1.125 7.523v7.559l.035 1.968c0 1.336.082 2.192.247 2.567.281.633.691 1.101 1.23 1.406.563.281 1.5.457 2.813.527V977h-17.754v-1.266c1.429-.117 2.39-.504 2.882-1.16.516-.679.774-2.449.774-5.308V951.09c0-1.875-.094-3.07-.281-3.586-.235-.656-.575-1.137-1.02-1.442-.445-.304-1.23-.515-2.355-.632v-1.301h13.429Zm26.262-15.926c1.523 0 2.813.539 3.867 1.617 1.055 1.055 1.582 2.332 1.582 3.832s-.539 2.778-1.617 3.832c-1.055 1.055-2.332 1.582-3.832 1.582s-2.777-.527-3.832-1.582c-1.055-1.054-1.582-2.332-1.582-3.832s.527-2.777 1.582-3.832c1.055-1.078 2.332-1.617 3.832-1.617Zm4.922 15.926v26.051c0 2.32.269 3.808.808 4.465.54.632 1.594.996 3.165 1.089V977h-17.754v-1.266c1.453-.046 2.531-.468 3.234-1.265.469-.539.703-1.969.703-4.289v-19.196c0-2.32-.269-3.796-.808-4.429-.54-.657-1.583-1.032-3.129-1.125v-1.301h13.781Zm35.051 15.258h-18.036c.211 4.359 1.372 7.804 3.481 10.336 1.617 1.945 3.562 2.918 5.836 2.918a6.708 6.708 0 0 0 3.832-1.161c1.148-.796 2.379-2.214 3.691-4.253l1.196.773c-1.782 3.633-3.75 6.211-5.907 7.734-2.156 1.5-4.652 2.25-7.488 2.25-4.875 0-8.566-1.875-11.074-5.625-2.016-3.023-3.024-6.773-3.024-11.25 0-5.484 1.477-9.843 4.43-13.078 2.977-3.258 6.457-4.886 10.442-4.886 3.328 0 6.211 1.371 8.648 4.113 2.461 2.719 3.785 6.762 3.973 12.129Zm-8.649-2.356c0-3.773-.211-6.363-.633-7.769-.398-1.407-1.031-2.473-1.898-3.2-.492-.421-1.148-.632-1.969-.632-1.219 0-2.215.597-2.988 1.793-1.383 2.086-2.074 4.945-2.074 8.578v1.23h9.562Zm33.574-13.816.528 11.215h-1.196c-1.429-3.328-2.917-5.602-4.464-6.821-1.524-1.218-3.047-1.828-4.571-1.828-.961 0-1.781.328-2.461.985-.679.632-1.019 1.371-1.019 2.214 0 .633.234 1.243.703 1.829.75.961 2.848 2.613 6.293 4.957 3.445 2.32 5.707 4.3 6.785 5.941 1.102 1.617 1.652 3.434 1.652 5.449 0 1.828-.457 3.621-1.371 5.379-.914 1.758-2.203 3.106-3.867 4.043-1.664.938-3.504 1.406-5.519 1.406-1.571 0-3.668-.492-6.293-1.476-.703-.258-1.184-.387-1.442-.387-.773 0-1.418.586-1.933 1.758h-1.16l-.563-11.813h1.195c1.055 3.094 2.496 5.414 4.325 6.961 1.851 1.547 3.597 2.321 5.238 2.321 1.125 0 2.039-.34 2.742-1.02.727-.703 1.09-1.547 1.09-2.531 0-1.125-.352-2.098-1.055-2.918-.703-.82-2.273-2.063-4.711-3.727-3.586-2.484-5.906-4.382-6.961-5.695-1.547-1.922-2.32-4.043-2.32-6.363 0-2.532.867-4.817 2.602-6.856 1.757-2.062 4.289-3.093 7.593-3.093 1.782 0 3.504.433 5.168 1.3.633.352 1.149.528 1.547.528.422 0 .762-.082 1.02-.246.257-.188.668-.692 1.23-1.512h1.195ZM320.654 505v-25.77h17.666v4.36h-12.463v6.099h10.758v4.36h-10.758V505h-5.203Zm27.215 0v-25.77h5.203V505h-5.203Zm15.718 0v-25.559h5.203v21.217h12.938V505h-18.141Zm27.197 0v-25.77h7.787l4.676 17.579 4.623-17.579h7.805V505h-4.834v-20.285L405.725 505h-5.009l-5.098-20.285V505h-4.834Zm50.931 0v-25.77h5.062l10.547 17.209V479.23h4.834V505h-5.22l-10.389-16.805V505h-4.834Zm31.363 0v-25.77h19.107v4.36h-13.904v5.713h12.937v4.342h-12.937v7.013h14.396V505h-19.599Zm33.068 0-6.153-25.77h5.327l3.884 17.702 4.711-17.702h6.188l4.517 18 3.955-18h5.239L527.556 505h-5.52l-5.132-19.266L511.788 505h-5.642Zm34.421-8.385 5.063-.492c.304 1.699.92 2.947 1.845 3.744.938.797 2.198 1.195 3.78 1.195 1.675 0 2.935-.351 3.779-1.054.855-.715 1.283-1.547 1.283-2.496 0-.61-.181-1.125-.545-1.547-.351-.434-.972-.809-1.863-1.125-.609-.211-1.998-.586-4.166-1.125-2.789-.692-4.746-1.541-5.871-2.549-1.582-1.418-2.373-3.146-2.373-5.186 0-1.312.369-2.537 1.107-3.673.75-1.149 1.823-2.022 3.217-2.619 1.406-.598 3.1-.897 5.08-.897 3.234 0 5.666.709 7.295 2.127 1.641 1.418 2.502 3.311 2.584 5.678l-5.203.228c-.223-1.324-.703-2.273-1.442-2.847-.726-.586-1.822-.879-3.287-.879-1.511 0-2.695.31-3.55.931-.551.399-.827.932-.827 1.6 0 .609.258 1.131.774 1.564.656.551 2.25 1.125 4.781 1.723 2.531.598 4.401 1.219 5.608 1.863 1.218.633 2.168 1.506 2.847 2.619.692 1.102 1.037 2.467 1.037 4.096 0 1.477-.41 2.86-1.23 4.149-.82 1.289-1.981 2.25-3.481 2.882-1.5.621-3.369.932-5.607.932-3.258 0-5.76-.75-7.506-2.25-1.746-1.512-2.789-3.709-3.129-6.592Z" fill="#fff"/></g></svg>