<svg width="1920" height="1080" fill="none" xmlns="http://www.w3.org/2000/svg"><path d="M325.1 722.025v-70.65h-23.25V722.4c0 15.6-5.475 22.725-18.225 22.725-12.75 0-18.15-7.125-18.15-22.725v-71.025H242.15v70.65c0 28.05 15.75 41.775 41.475 41.775s41.475-13.725 41.475-41.775Zm55.917 41.775c24.15 0 40.65-11.175 40.65-31.125 0-19.35-12.9-27.15-32.775-33.975-14.55-4.95-25.2-9.15-25.2-18.225 0-8.325 6.3-12.225 17.325-12.225 11.4 0 16.575 5.4 16.575 15.075v3.45h23.25v-4.5c0-21.525-16.65-32.55-40.125-32.55-22.5 0-39.45 11.25-39.45 30.75 0 19.35 14.475 28.8 31.2 34.05 15.15 4.65 26.55 9.9 26.55 18.825 0 8.325-6.375 11.775-17.925 11.775-11.475 0-17.25-5.625-17.25-15.975v-3.975h-23.325v4.425c0 22.65 16.575 34.2 40.5 34.2Z" fill="#3C4043"/><path d="M453 713a5 5 0 0 0 0 10v-10Zm63.536 8.536a5.002 5.002 0 0 0 0-7.072l-31.82-31.819a5 5 0 0 0-7.071 0 5 5 0 0 0 0 7.071L505.929 718l-28.284 28.284a5 5 0 0 0 0 7.071 5 5 0 0 0 7.071 0l31.82-31.819ZM453 723h60v-10h-60v10Z" fill="#FF6D7F"/><path d="M618.1 730.35V673.5h-22.125v57.3c0 9.75-4.2 14.85-15.675 14.85-11.025 0-15.6-4.65-15.6-14.85v-57.3h-22.05v56.85c0 22.125 14.325 33.15 37.65 33.15s37.8-11.025 37.8-33.15Zm50.77 33.15c21.9 0 37.125-9.075 37.125-25.5 0-15.975-12.225-22.125-29.775-27.3-12.975-3.9-22.275-6.825-22.275-12.975 0-5.475 6.075-7.95 14.25-7.95 9.975 0 14.925 3.75 14.925 9.825v2.25h22.05v-3.3c0-16.275-15.375-26.475-36.525-26.475-20.475 0-36.075 9.6-36.075 25.725 0 15.9 13.5 23.7 27.975 27.9 13.575 3.975 23.85 7.35 23.85 12.975 0 5.25-6.075 7.05-14.475 7.05-10.2 0-15.9-3.825-15.9-10.425v-2.85h-21.975v3.225c0 17.925 15.15 27.825 36.825 27.825Z" fill="#1A73E8"/><path d="M1256.76 397.54c0 5.16.96 8.76 2.88 10.8 1.92 1.92 5.28 2.88 10.08 2.88V415c-12.96-.48-21.24-.72-24.84-.72-3.96 0-12.6.18-25.92.54l-5.04.18v-3.78c5.64 0 9.84-1.08 12.6-3.24 2.88-2.16 4.32-6 4.32-11.52v-43.92c0-5.76-.54-9.96-1.62-12.6-.96-2.76-2.64-4.56-5.04-5.4-2.4-.96-6.06-1.44-10.98-1.44v-3.96c10.44-.24 19.02-1.02 25.74-2.34 6.72-1.44 12.66-3.72 17.82-6.84v77.58Zm29.85 19.98h-5.94l48.96-132.48h5.94l-48.96 132.48Zm100.73-98.1c9.24 0 16.56 2.04 21.96 6.12 5.4 3.96 8.1 9.54 8.1 16.74 0 4.92-1.44 9.48-4.32 13.68a51.61 51.61 0 0 1-9.9 11.16c-3.84 3.24-9.12 7.26-15.84 12.06-8.64 6-14.7 10.8-18.18 14.4h38.88c3.24 0 5.64-.24 7.2-.72 1.68-.48 2.82-1.26 3.42-2.34.6-1.08 1.08-2.76 1.44-5.04h3.78c0 14.16.24 24.3.72 30.42-2.64-.6-11.58-.9-26.82-.9h-52.38v-3.42c1.56-1.68 4.62-4.56 9.18-8.64 6.96-6.36 12.72-12 17.28-16.92 4.68-5.04 8.7-10.8 12.06-17.28 3.48-6.6 5.22-13.44 5.22-20.52 0-6.36-1.44-10.98-4.32-13.86-2.76-3-6.9-4.5-12.42-4.5-5.04 0-9.54 1.2-13.5 3.6-3.84 2.28-7.38 5.7-10.62 10.26l-3.06-1.8c8.88-15 22.92-22.5 42.12-22.5Z" fill="#3C4043"/><path d="M1466 362a5.001 5.001 0 0 0 0 10v-10Zm63.54 8.536a5.006 5.006 0 0 0 0-7.072l-31.82-31.819a5.01 5.01 0 0 0-7.08 0 5.005 5.005 0 0 0 0 7.071L1518.93 367l-28.29 28.284a5.005 5.005 0 0 0 0 7.071 5.01 5.01 0 0 0 7.08 0l31.82-31.819ZM1466 372h60v-10h-60v10Z" fill="#FF6D7F"/><path d="M1595.54 323.74c0 3.36.9 5.7 2.7 7.02 1.8 1.2 4.92 1.8 9.36 1.8v3.78c-5.28-.24-12.18-.36-20.7-.36s-15.66.12-21.42.36v-3.78c4.44 0 7.74-.6 9.9-1.8 2.28-1.32 3.42-3.66 3.42-7.02v-23.22c0-3.48-.42-6-1.26-7.56-.84-1.68-2.28-2.76-4.32-3.24-1.92-.6-4.92-.9-9-.9v-3.78c7.44-.12 13.5-.6 18.18-1.44s9.06-2.22 13.14-4.14v44.28Zm74.56-54.72L1564.8 424.9l-3.42-2.34 105.3-155.88 3.42 2.34Zm-17.18 88.74c6 0 10.8 1.14 14.4 3.42 3.72 2.28 5.58 5.58 5.58 9.9s-1.56 8.1-4.68 11.34c-3.12 3.12-7.92 6.84-14.4 11.16-5.4 3.48-8.94 5.94-10.62 7.38h24.3c2.64 0 4.44-.42 5.4-1.26 1.08-.96 2.1-2.58 3.06-4.86l3.06.54c-1.68 8.16-2.58 14.82-2.7 19.98-1.44-.36-3.72-.54-6.84-.54h-43.92v-3.6c2.28-1.92 4.74-3.84 7.38-5.76 7.32-5.64 13.02-10.74 17.1-15.3 4.08-4.68 6.12-9.96 6.12-15.84 0-3-.96-5.28-2.88-6.84-1.92-1.68-4.62-2.52-8.1-2.52-6.72 0-11.94 2.88-15.66 8.64l-2.7-1.44c2.4-4.2 5.7-7.62 9.9-10.26 4.32-2.76 9.72-4.14 16.2-4.14Z" fill="#1A73E8"/><path d="m974.16 647.52 25.28-3.84 2.88-25.6c1.49-12.8 5.44-24.32 11.84-34.56 6.4-10.24 14.4-18.24 24-24 9.81-5.973 20.37-8.96 31.68-8.96 5.55 0 11.31.427 17.28 1.28 5.97.853 10.99 2.027 15.04 3.52l1.28 3.52-9.92 20.16-6.08.96c-11.95-7.04-22.51-10.56-31.68-10.56-16.85 0-26.77 12.16-29.76 36.48l-4.8 38.4 46.4-.32 1.28.96-2.56 12.8-43.52-.32-3.2 1.92L1002.96 812c-1.92 16.853-7.253 29.973-16 39.36s-19.947 14.08-33.6 14.08c-6.613 0-12.693-1.387-18.24-4.16-5.547-2.773-9.067-6.293-10.56-10.56.853-3.627 2.453-8.32 4.8-14.08 2.347-5.547 4.373-9.813 6.08-12.8h4.48c-.213 7.893 1.813 14.293 6.08 19.2 4.053 4.907 9.493 7.36 16.32 7.36 5.547 0 10.56-2.453 15.04-7.36 4.48-4.693 7.147-10.667 8-17.92 1.067-8.533 2.027-20.907 2.88-37.12l.96-18.24 8.96-108.8-2.24-1.6-22.08-.96-.96-1.6 1.28-9.28Zm112.59 121.28c1.49 0 3.73-1.067 6.72-3.2 3.2-2.347 9.38-7.573 18.56-15.68l3.84.32 4.16 7.68c-22.62 22.613-37.55 33.92-44.8 33.92-3.42 0-5.87-.96-7.36-2.88-1.5-1.707-2.24-4.48-2.24-8.32 4.69-27.733 8.53-52.053 11.52-72.96 3.2-21.12 4.8-33.387 4.8-36.8 0-4.907-1.07-8.32-3.2-10.24-1.92-2.133-5.34-3.2-10.24-3.2h-13.12l2.24-12.16c14.5 0 31.78-.64 51.84-1.92l2.88 3.84c-5.34 17.28-10.56 37.333-15.68 60.16-4.91 22.827-8.54 42.88-10.88 60.16l.96 1.28Zm11.84-165.76c-4.27 0-7.58-1.387-9.92-4.16-2.35-2.773-3.52-6.187-3.52-10.24 0-5.547 2.02-10.347 6.08-14.4 4.05-4.267 8.96-6.4 14.72-6.4 4.48 0 7.89 1.387 10.24 4.16 2.34 2.773 3.52 6.187 3.52 10.24 0 5.547-2.14 10.453-6.4 14.72-4.06 4.053-8.96 6.08-14.72 6.08Zm48.21 140.8c0 10.88 2.56 19.2 7.68 24.96 5.34 5.547 13.02 8.32 23.04 8.32 6.19 0 11.42-2.027 15.68-6.08 4.48-4.053 6.72-8.853 6.72-14.4 0-4.907-1.7-9.6-5.12-14.08-3.41-4.48-8.42-9.493-15.04-15.04a4161.081 4161.081 0 0 1-16.32-14.4c-3.62-3.627-6.82-7.893-9.6-12.8-2.77-5.12-4.16-10.453-4.16-16 0-7.893 2.24-15.253 6.72-22.08 4.7-6.827 10.88-12.267 18.56-16.32 7.68-4.267 15.9-6.4 24.64-6.4 7.26 0 13.76 1.173 19.52 3.52 5.98 2.133 10.46 5.227 13.44 9.28-1.49 4.48-5.12 12.8-10.88 24.96h-4.48c-2.34-7.04-5.97-12.48-10.88-16.32-4.9-4.053-10.56-6.08-16.96-6.08-5.12 0-9.49 1.707-13.12 5.12-3.41 3.2-5.12 7.253-5.12 12.16 0 5.973 3.2 12.373 9.6 19.2 4.06 4.053 8.32 8 12.8 11.84 8.96 7.68 15.79 14.613 20.48 20.8 4.7 5.973 7.04 12.693 7.04 20.16 0 8.107-2.56 15.893-7.68 23.36-4.9 7.253-11.41 13.12-19.52 17.6-8.1 4.48-16.64 6.72-25.6 6.72-9.81 0-18.13-1.6-24.96-4.8-6.61-3.2-10.77-7.573-12.48-13.12 1.28-4.907 3.1-10.347 5.44-16.32 2.35-6.187 4.38-10.773 6.08-13.76h4.48Zm175.64 10.88c-9.81 10.88-19.09 19.84-27.84 26.88-8.75 6.827-15.57 10.24-20.48 10.24-5.76 0-10.35-1.6-13.76-4.8-3.41-3.2-5.12-7.573-5.12-13.12l.32-3.52 17.6-109.76-1.6-1.28-22.08-.96-.96-1.6 1.28-9.28 25.6-4.16 5.12-38.4 28.8-11.2 1.92 3.84c-.85 2.56-2.67 8.427-5.44 17.6-2.56 8.96-5.01 18.667-7.36 29.12l39.04-.32 1.28.96-2.56 12.8-37.76-.32-3.52 1.92-19.52 98.24-.32 2.88c0 5.547 2.56 8.32 7.68 8.32 2.99 0 6.83-1.6 11.52-4.8 4.91-3.413 11.63-9.173 20.16-17.28l4.16.32 3.84 7.68Z" fill="#3C4043"/><path d="M1394 692a5.001 5.001 0 0 0 0 10v-10Zm63.54 8.536a5.006 5.006 0 0 0 0-7.072l-31.82-31.819a5.01 5.01 0 0 0-7.08 0 5.005 5.005 0 0 0 0 7.071L1446.93 697l-28.29 28.284a5.005 5.005 0 0 0 0 7.071 5.01 5.01 0 0 0 7.08 0l31.82-31.819ZM1394 702h60v-10h-60v10Z" fill="#FF6D7F"/><path d="M1618.8 768.8c1.49 0 3.73-1.067 6.72-3.2 3.2-2.347 9.39-7.573 18.56-15.68l3.84.32 4.16 7.68c-17.92 17.92-31.04 28.8-39.36 32.64-1.92.853-3.73 1.28-5.44 1.28-3.41 0-5.87-.96-7.36-2.88-1.49-1.707-2.24-4.48-2.24-8.32 1.71-10.453 4.8-30.187 9.28-59.2 4.69-29.013 7.04-45.867 7.04-50.56 0-4.907-1.07-8.32-3.2-10.24-1.92-2.133-5.33-3.2-10.24-3.2h-45.76l-3.2 1.92-14.08 129.28c-1.92 17.707-4.59 32-8 42.88-3.2 10.88-8.32 19.2-15.36 24.96-7.04 5.973-16.64 8.96-28.8 8.96-6.61 0-12.69-1.387-18.24-4.16-5.55-2.773-9.07-6.293-10.56-10.56.85-3.627 2.45-8.32 4.8-14.08 2.35-5.547 4.37-9.813 6.08-12.8h4.48c-.21 7.893 1.81 14.293 6.08 19.2 4.05 4.907 9.49 7.36 16.32 7.36 5.55 0 10.56-2.453 15.04-7.36 4.48-4.693 7.15-10.667 8-17.92 1.28-11.093 2.35-26.133 3.2-45.12l9.6-119.04-2.24-1.6-22.08-.96-.96-1.6 1.28-9.28 25.28-3.84 1.92-16.96c1.92-17.707 6.72-32.213 14.4-43.52 7.89-11.52 17.07-19.84 27.52-24.96 10.67-5.12 21.65-7.68 32.96-7.68 6.61 0 13.55.747 20.8 2.24 7.47 1.493 13.44 3.413 17.92 5.76l1.28 3.52-9.92 20.16-6.08.96c-14.29-9.173-26.99-13.76-38.08-13.76-11.95 0-20.69 3.733-26.24 11.2-5.55 7.253-9.28 18.88-11.2 34.88l-3.52 28.8h32.64c10.88 0 22.83-.107 35.84-.32 13.23-.213 19.84-.427 19.84-.64l2.88 3.84c-.85 3.2-2.99 10.773-6.4 22.72-3.2 11.733-6.72 26.56-10.56 44.48a771.347 771.347 0 0 0-9.6 53.12l.96 1.28Zm190.24-11.2-.32 2.88c0 5.547 2.56 8.32 7.68 8.32 2.98 0 6.82-1.6 11.52-4.8 4.9-3.413 11.62-9.173 20.16-17.28l4.16.32 3.84 7.68c-9.82 10.88-19.1 19.84-27.84 26.88-8.75 6.827-15.58 10.24-20.48 10.24-5.76 0-10.35-1.6-13.76-4.8-3.42-3.2-5.12-7.573-5.12-13.12l.32-3.52 17.6-109.76-1.6-1.28-22.08-.96-.96-1.6 1.28-9.28 25.6-3.84h.32l3.2-21.44c1.28-8.107 1.92-15.147 1.92-21.12 0-12.16-2.56-21.013-7.68-26.56-4.91-5.547-12.59-8.32-23.04-8.32-12.59 0-22.3 3.413-29.12 10.24-6.62 6.827-9.92 15.787-9.92 26.88 0 7.467 1.6 15.36 4.8 23.68 3.2 8.107 8 16.107 14.4 24l.96 1.28c-1.5 4.48-5.12 12.8-10.88 24.96h-4.48c-2.35-7.04-5.98-12.48-10.88-16.32-4.91-4.053-10.56-6.08-16.96-6.08-5.12 0-9.5 1.707-13.12 5.12-3.42 3.2-5.12 7.253-5.12 12.16 0 5.973 3.2 12.373 9.6 19.2 4.05 4.053 8.32 8 12.8 11.84 8.96 7.68 15.78 14.613 20.48 20.8 4.69 5.973 7.04 12.693 7.04 20.16 0 8.107-2.56 15.893-7.68 23.36-4.91 7.253-11.42 13.12-19.52 17.6-8.11 4.48-16.64 6.72-25.6 6.72-9.82 0-18.14-1.6-24.96-4.8-6.62-3.2-10.78-7.573-12.48-13.12 1.28-4.907 3.09-10.347 5.44-16.32 2.34-6.187 4.37-10.773 6.08-13.76h4.48c0 10.88 2.56 19.2 7.68 24.96 5.33 5.547 13.01 8.32 23.04 8.32 6.18 0 11.41-2.027 15.68-6.08 4.48-4.053 6.72-8.853 6.72-14.4 0-4.907-1.71-9.6-5.12-14.08-3.42-4.48-8.43-9.493-15.04-15.04a4161.081 4161.081 0 0 1-16.32-14.4c-3.63-3.627-6.83-7.893-9.6-12.8-2.78-5.12-4.17-10.453-4.17-16 0-7.893 2.25-15.253 6.73-22.08 4.69-6.827 10.88-12.267 18.56-16.32 7.68-4.267 15.89-6.4 24.64-6.4 2.13 0 5.12.213 8.96.64-10.03-14.933-15.04-29.013-15.04-42.24 0-13.867 5.33-25.173 16-33.92 10.66-8.747 25.6-13.12 44.8-13.12 16.21 0 28.8 4.693 37.76 14.08 8.96 9.173 13.44 21.867 13.44 38.08 0 5.973-.64 12.373-1.92 19.2l-4.16 21.44h39.36l1.28 1.28-2.56 12.8-37.76-.32-3.52 1.92-19.52 98.24Z" fill="#1A73E8"/><path d="M106.74 435.04c-8.12 0-15.68-1.12-22.68-3.36-7-2.24-13.16-5.6-18.48-10.08s-9.52-10.22-12.6-17.22c-3.08-7-4.62-15.26-4.62-24.78 0-22.4 10.36-39.34 31.08-50.82 21-11.76 54.04-20.16 99.12-25.2 0-7.56-.56-15.12-1.68-22.68-1.12-7.84-3.5-14.7-7.14-20.58-3.64-6.16-8.54-11.06-14.7-14.7-6.16-3.92-14.28-5.88-24.36-5.88-13.44 0-25.76 2.66-36.96 7.98s-20.3 10.5-27.3 15.54l-8.4-13.86c3.64-2.52 7.98-5.32 13.02-8.4 5.32-3.08 11.2-5.88 17.64-8.4 6.44-2.52 13.44-4.62 21-6.3 7.56-1.96 15.4-2.94 23.52-2.94 11.76 0 21.7 2.1 29.82 6.3 8.12 3.92 14.7 9.38 19.74 16.38 5.04 7 8.68 15.26 10.92 24.78 2.24 9.24 3.36 19.32 3.36 30.24V430h-15.96l-1.68-26.04h-1.26c-10.36 8.12-21.56 15.4-33.6 21.84-11.76 6.16-24.36 9.24-37.8 9.24Zm3.36-15.96c11.76 0 22.96-2.8 33.6-8.4 10.64-5.6 22.26-13.72 34.86-24.36v-68.46c-20.72 2.52-38.22 5.6-52.5 9.24-14.28 3.64-25.76 7.98-34.44 13.02-8.68 5.04-14.98 10.78-18.9 17.22-3.64 6.44-5.46 13.58-5.46 21.42 0 7.28 1.12 13.44 3.36 18.48 2.24 5.04 5.32 9.24 9.24 12.6 3.92 3.08 8.4 5.46 13.44 7.14 5.32 1.4 10.92 2.1 16.8 2.1Zm224.789 107.94c-25.48 0-45.64-5.04-60.48-15.12-14.84-10.08-22.26-23.66-22.26-40.74 0-8.96 2.66-17.64 7.98-26.04 5.32-8.4 12.6-15.96 21.84-22.68v-1.68c-5.04-3.08-9.24-7.28-12.6-12.6-3.36-5.32-5.04-11.9-5.04-19.74 0-8.96 2.52-16.52 7.56-22.68 5.04-6.44 9.8-11.2 14.28-14.28v-1.68c-6.44-5.6-12.32-13.16-17.64-22.68-5.04-9.52-7.56-20.44-7.56-32.76 0-10.36 1.82-19.88 5.46-28.56 3.64-8.68 8.68-16.1 15.12-22.26 6.44-6.44 14-11.34 22.68-14.7 8.68-3.64 17.92-5.46 27.72-5.46 5.6 0 10.64.56 15.12 1.68 4.48.84 8.26 1.96 11.34 3.36h68.46v15.54h-47.04c6.44 5.6 11.76 12.88 15.96 21.84 4.2 8.68 6.3 18.34 6.3 28.98 0 10.36-1.82 19.88-5.46 28.56-3.64 8.68-8.68 16.24-15.12 22.68-6.16 6.16-13.58 11.06-22.26 14.7-8.4 3.36-17.5 5.04-27.3 5.04-5.6 0-11.48-.7-17.64-2.1-5.88-1.4-11.2-3.5-15.96-6.3-4.48 3.64-8.4 7.7-11.76 12.18-3.08 4.48-4.62 10.08-4.62 16.8 0 7.28 2.66 13.58 7.98 18.9 5.32 5.04 15.54 7.56 30.66 7.56h43.26c22.68 0 39.34 3.78 49.98 11.34 10.92 7.28 16.38 18.9 16.38 34.86 0 8.68-2.24 17.08-6.72 25.2-4.48 8.4-10.92 15.68-19.32 21.84-8.12 6.44-18.06 11.48-29.82 15.12-11.76 3.92-24.92 5.88-39.48 5.88Zm-2.94-175.98c7 0 13.58-1.26 19.74-3.78 6.44-2.8 12.04-6.72 16.8-11.76 4.76-5.04 8.54-11.06 11.34-18.06 2.8-7 4.2-14.7 4.2-23.1 0-8.4-1.4-16.1-4.2-23.1-2.8-7-6.58-12.88-11.34-17.64-4.48-4.76-9.94-8.4-16.38-10.92-6.44-2.8-13.16-4.2-20.16-4.2-7.28 0-14.14 1.4-20.58 4.2-6.16 2.52-11.62 6.16-16.38 10.92s-8.54 10.64-11.34 17.64c-2.8 6.72-4.2 14.42-4.2 23.1 0 8.4 1.4 16.1 4.2 23.1 2.8 7 6.58 13.02 11.34 18.06 5.04 5.04 10.64 8.96 16.8 11.76 6.44 2.52 13.16 3.78 20.16 3.78Zm5.04 160.86c11.2 0 21.42-1.54 30.66-4.62 9.24-2.8 17.08-6.58 23.52-11.34 6.44-4.76 11.34-10.22 14.7-16.38 3.64-5.88 5.46-12.04 5.46-18.48 0-11.2-4.06-19.18-12.18-23.94-7.84-4.48-19.32-6.72-34.44-6.72h-43.26c-2.24 0-5.74-.14-10.5-.42-4.48-.56-9.38-1.54-14.7-2.94-9.24 6.44-15.96 13.3-20.16 20.58-4.2 7.28-6.3 14.56-6.3 21.84 0 12.6 5.74 22.82 17.22 30.66 11.76 7.84 28.42 11.76 49.98 11.76Z" fill="#3C4043"/><path d="M449 328a5 5 0 0 0 0 10v-10Zm63.536 8.536a5.002 5.002 0 0 0 0-7.072l-31.82-31.819a5 5 0 0 0-7.071 0 5 5 0 0 0 0 7.071L501.929 333l-28.284 28.284a5 5 0 0 0 0 7.071 5 5 0 0 0 7.071 0l31.82-31.819ZM449 338h60v-10h-60v10Z" fill="#FF6D7F"/><path d="M634.42 435.04c-25.48 0-45.78-8.96-60.9-26.88-15.12-18.2-22.68-44.38-22.68-78.54 0-16.24 2.38-30.94 7.14-44.1 5.04-13.16 11.62-24.36 19.74-33.6 8.12-9.24 17.64-16.24 28.56-21 10.92-5.04 22.4-7.56 34.44-7.56s22.54 2.1 31.5 6.3c9.24 4.2 18.62 10.22 28.14 18.06h.84l1.26-19.32h16.38V430h-15.96l-1.68-26.04h-1.26c-8.12 8.12-17.78 15.4-28.98 21.84-10.92 6.16-23.1 9.24-36.54 9.24Zm2.52-16.38c11.2 0 21.84-2.8 31.92-8.4 10.36-5.88 20.86-14.14 31.5-24.78v-119.7c-10.64-9.52-20.72-16.24-30.24-20.16-9.24-3.92-18.76-5.88-28.56-5.88-10.08 0-19.46 2.38-28.14 7.14-8.68 4.48-16.24 10.78-22.68 18.9-6.16 7.84-11.06 17.36-14.7 28.56-3.64 10.92-5.46 22.68-5.46 35.28 0 13.44 1.4 25.62 4.2 36.54 3.08 10.92 7.42 20.3 13.02 28.14 5.6 7.56 12.46 13.58 20.58 18.06 8.4 4.2 17.92 6.3 28.56 6.3Zm228.877 107.52c-13.44 0-26.18-1.96-38.22-5.88-11.76-3.92-22.54-9.24-32.34-15.96l8.4-14.7c10.08 7.28 20.3 12.6 30.66 15.96 10.36 3.36 20.86 5.04 31.5 5.04 21 0 36.68-5.88 47.04-17.64 10.64-11.76 15.96-27.86 15.96-48.3l.42-45.78c-8.12 8.12-17.92 15.4-29.4 21.84-11.2 6.16-23.52 9.24-36.96 9.24-25.48 0-45.78-8.82-60.9-26.46-14.84-17.92-22.26-43.54-22.26-76.86 0-15.96 2.38-30.24 7.14-42.84 4.76-12.88 11.2-23.8 19.32-32.76 8.4-8.96 17.92-15.82 28.56-20.58 10.92-4.76 22.4-7.14 34.44-7.14s22.54 2.1 31.5 6.3c9.24 4.2 18.34 9.94 27.3 17.22h1.26l1.68-18.48h16.38v219.24c0 24.08-7 43.12-21 57.12-14 14.28-34.16 21.42-60.48 21.42Zm0-112.56c11.2 0 21.84-2.8 31.92-8.4 10.08-5.88 20.44-14.14 31.08-24.78V265.78c-10.64-9.52-20.72-16.24-30.24-20.16-9.24-3.92-18.76-5.88-28.56-5.88-10.08 0-19.46 2.24-28.14 6.72-8.4 4.48-15.82 10.64-22.26 18.48-6.44 7.56-11.48 16.66-15.12 27.3-3.64 10.64-5.46 22.12-5.46 34.44 0 26.04 5.74 47.04 17.22 63 11.48 15.96 28 23.94 49.56 23.94Z" fill="#1A73E8"/></svg>