<svg width="1920" height="1080" fill="none" xmlns="http://www.w3.org/2000/svg"><path d="M297.728 616h-8.64v-31.968h-35.136V616h-8.64v-68.544h8.64v28.992h35.136v-28.992h8.64V616Zm37.46-52.416c4.416 0 8.192.96 11.328 2.88 3.2 1.92 5.632 4.64 7.296 8.16 1.728 3.456 2.592 7.52 2.592 12.192v5.088h-35.232c.128 5.824 1.6 10.272 4.416 13.344 2.88 3.008 6.88 4.512 12 4.512 3.264 0 6.144-.288 8.64-.864 2.56-.64 5.184-1.536 7.872-2.688v7.392c-2.624 1.152-5.216 1.984-7.776 2.496-2.56.576-5.6.864-9.12.864-4.864 0-9.184-.992-12.96-2.976-3.712-1.984-6.624-4.928-8.736-8.832-2.048-3.968-3.072-8.8-3.072-14.496 0-5.632.928-10.464 2.784-14.496 1.92-4.032 4.576-7.136 7.968-9.312 3.456-2.176 7.456-3.264 12-3.264Zm-.096 6.912c-4.032 0-7.232 1.312-9.6 3.936-2.304 2.56-3.68 6.144-4.128 10.752h26.208c0-2.944-.448-5.504-1.344-7.68-.896-2.176-2.272-3.872-4.128-5.088-1.792-1.28-4.128-1.92-7.008-1.92Zm42.86-9.696c0 2.176-.064 4.224-.192 6.144-.064 1.856-.16 3.328-.288 4.416h.48c1.472-2.176 3.488-4 6.048-5.472 2.56-1.472 5.856-2.208 9.888-2.208 6.4 0 11.52 2.24 15.36 6.72 3.904 4.416 5.856 11.04 5.856 19.872 0 5.888-.896 10.816-2.688 14.784-1.728 3.968-4.192 6.944-7.392 8.928-3.2 1.984-6.912 2.976-11.136 2.976-4.032 0-7.328-.736-9.888-2.208-2.56-1.472-4.576-3.232-6.048-5.28h-.672L375.552 616h-6.048v-72.96h8.448v17.76Zm14.496 9.888c-3.648 0-6.528.704-8.64 2.112-2.112 1.344-3.616 3.456-4.512 6.336-.896 2.816-1.344 6.432-1.344 10.848v.384c0 6.336 1.024 11.2 3.072 14.592 2.112 3.328 5.984 4.992 11.616 4.992 4.608 0 8.032-1.696 10.272-5.088 2.304-3.392 3.456-8.288 3.456-14.688 0-6.464-1.152-11.328-3.456-14.592-2.24-3.264-5.728-4.896-10.464-4.896Zm60.118-7.104c.96 0 1.984.064 3.072.192 1.152.064 2.144.192 2.976.384l-1.056 7.776a27.757 27.757 0 0 0-2.784-.48 21.07 21.07 0 0 0-2.784-.192c-1.984 0-3.872.416-5.664 1.248-1.792.832-3.392 2.016-4.8 3.552-1.408 1.472-2.528 3.264-3.36 5.376-.768 2.112-1.152 4.48-1.152 7.104V616h-8.448v-51.456h6.912l.96 9.408h.384a24.086 24.086 0 0 1 3.936-5.184 16.913 16.913 0 0 1 5.28-3.744c1.984-.96 4.16-1.44 6.528-1.44Zm33.654 0c4.416 0 8.192.96 11.328 2.88 3.2 1.92 5.632 4.64 7.296 8.16 1.728 3.456 2.592 7.52 2.592 12.192v5.088h-35.232c.128 5.824 1.6 10.272 4.416 13.344 2.88 3.008 6.88 4.512 12 4.512 3.264 0 6.144-.288 8.64-.864 2.56-.64 5.184-1.536 7.872-2.688v7.392c-2.624 1.152-5.216 1.984-7.776 2.496-2.56.576-5.6.864-9.12.864-4.864 0-9.184-.992-12.96-2.976-3.712-1.984-6.624-4.928-8.736-8.832-2.048-3.968-3.072-8.8-3.072-14.496 0-5.632.928-10.464 2.784-14.496 1.92-4.032 4.576-7.136 7.968-9.312 3.456-2.176 7.456-3.264 12-3.264Zm-.096 6.912c-4.032 0-7.232 1.312-9.6 3.936-2.304 2.56-3.68 6.144-4.128 10.752h26.208c0-2.944-.448-5.504-1.344-7.68-.896-2.176-2.272-3.872-4.128-5.088-1.792-1.28-4.128-1.92-7.008-1.92Zm65.752 16.416a311.82 311.82 0 0 0-1.152-3.936 531.485 531.485 0 0 1-1.056-3.744 92.412 92.412 0 0 0-.768-3.36 41.938 41.938 0 0 1-.576-2.592h-.384c-.128.704-.32 1.568-.576 2.592a48.2 48.2 0 0 1-.768 3.36 56.043 56.043 0 0 1-.96 3.84 53.464 53.464 0 0 1-1.152 3.936l-9.216 28.896h-9.6l-14.112-51.456h8.736l7.104 27.456c.512 1.856.992 3.744 1.44 5.664.448 1.856.832 3.648 1.152 5.376.384 1.664.64 3.104.768 4.32h.384c.192-.768.416-1.728.672-2.88.256-1.152.512-2.368.768-3.648l.96-3.84c.384-1.28.736-2.432 1.056-3.456l9.12-28.992h9.216l8.832 28.992c.448 1.472.896 3.04 1.344 4.704a80.69 80.69 0 0 1 1.344 4.896c.384 1.536.64 2.912.768 4.128h.384c.128-1.088.352-2.432.672-4.032.384-1.664.8-3.456 1.248-5.376a752.369 752.369 0 0 1 1.536-5.856l7.2-27.456h8.64l-14.304 51.456h-9.888l-8.832-28.992Zm75.638-22.368V616h-8.448v-51.456h8.448Zm-4.128-19.296c1.28 0 2.4.448 3.36 1.344 1.024.832 1.536 2.176 1.536 4.032 0 1.792-.512 3.136-1.536 4.032-.96.896-2.08 1.344-3.36 1.344-1.408 0-2.592-.448-3.552-1.344-.96-.896-1.44-2.24-1.44-4.032 0-1.856.48-3.2 1.44-4.032.96-.896 2.144-1.344 3.552-1.344Zm53.934 56.544c0 3.328-.832 6.112-2.496 8.352-1.664 2.24-4.032 3.936-7.104 5.088-3.072 1.152-6.72 1.728-10.944 1.728-3.584 0-6.688-.288-9.312-.864-2.56-.576-4.832-1.376-6.816-2.4v-7.68c2.048 1.024 4.512 1.984 7.392 2.88a32.681 32.681 0 0 0 8.928 1.248c4.288 0 7.392-.672 9.312-2.016 1.92-1.408 2.88-3.264 2.88-5.568 0-1.28-.352-2.432-1.056-3.456-.704-1.024-1.984-2.048-3.84-3.072-1.792-1.024-4.384-2.176-7.776-3.456-3.328-1.28-6.176-2.56-8.544-3.84-2.368-1.28-4.192-2.816-5.472-4.608-1.28-1.792-1.92-4.096-1.92-6.912 0-4.352 1.76-7.712 5.28-10.08 3.584-2.368 8.256-3.552 14.016-3.552 3.136 0 6.048.32 8.736.96 2.752.576 5.312 1.408 7.68 2.496l-2.88 6.72a31.249 31.249 0 0 0-4.512-1.632 29.678 29.678 0 0 0-4.704-1.152c-1.6-.32-3.232-.48-4.896-.48-3.456 0-6.112.576-7.968 1.728-1.792 1.088-2.688 2.592-2.688 4.512 0 1.408.416 2.624 1.248 3.648.832.96 2.208 1.92 4.128 2.88 1.984.896 4.608 1.984 7.872 3.264 3.264 1.216 6.048 2.464 8.352 3.744 2.304 1.28 4.064 2.848 5.28 4.704 1.216 1.792 1.824 4.064 1.824 6.816Zm70.875 0c0 3.328-.832 6.112-2.496 8.352-1.664 2.24-4.032 3.936-7.104 5.088-3.072 1.152-6.72 1.728-10.944 1.728-3.584 0-6.688-.288-9.312-.864-2.56-.576-4.832-1.376-6.816-2.4v-7.68c2.048 1.024 4.512 1.984 7.392 2.88a32.681 32.681 0 0 0 8.928 1.248c4.288 0 7.392-.672 9.312-2.016 1.92-1.408 2.88-3.264 2.88-5.568 0-1.28-.352-2.432-1.056-3.456-.704-1.024-1.984-2.048-3.84-3.072-1.792-1.024-4.384-2.176-7.776-3.456-3.328-1.28-6.176-2.56-8.544-3.84-2.368-1.28-4.192-2.816-5.472-4.608-1.28-1.792-1.92-4.096-1.92-6.912 0-4.352 1.76-7.712 5.28-10.08 3.584-2.368 8.256-3.552 14.016-3.552 3.136 0 6.048.32 8.736.96 2.752.576 5.312 1.408 7.68 2.496l-2.88 6.72a31.249 31.249 0 0 0-4.512-1.632 29.678 29.678 0 0 0-4.704-1.152c-1.6-.32-3.232-.48-4.896-.48-3.456 0-6.112.576-7.968 1.728-1.792 1.088-2.688 2.592-2.688 4.512 0 1.408.416 2.624 1.248 3.648.832.96 2.208 1.92 4.128 2.88 1.984.896 4.608 1.984 7.872 3.264 3.264 1.216 6.048 2.464 8.352 3.744 2.304 1.28 4.064 2.848 5.28 4.704 1.216 1.792 1.824 4.064 1.824 6.816Zm32.306-38.208c4.416 0 8.192.96 11.328 2.88 3.2 1.92 5.632 4.64 7.296 8.16 1.728 3.456 2.592 7.52 2.592 12.192v5.088h-35.232c.128 5.824 1.6 10.272 4.416 13.344 2.88 3.008 6.88 4.512 12 4.512 3.264 0 6.144-.288 8.64-.864 2.56-.64 5.184-1.536 7.872-2.688v7.392c-2.624 1.152-5.216 1.984-7.776 2.496-2.56.576-5.6.864-9.12.864-4.864 0-9.184-.992-12.96-2.976-3.712-1.984-6.624-4.928-8.736-8.832-2.048-3.968-3.072-8.8-3.072-14.496 0-5.632.928-10.464 2.784-14.496 1.92-4.032 4.576-7.136 7.968-9.312 3.456-2.176 7.456-3.264 12-3.264Zm-.096 6.912c-4.032 0-7.232 1.312-9.6 3.936-2.304 2.56-3.68 6.144-4.128 10.752h26.208c0-2.944-.448-5.504-1.344-7.68-.896-2.176-2.272-3.872-4.128-5.088-1.792-1.28-4.128-1.92-7.008-1.92ZM832 610.048c1.28 0 2.592-.096 3.936-.288 1.344-.256 2.432-.512 3.264-.768v6.432c-.896.448-2.176.8-3.84 1.056-1.664.32-3.264.48-4.8.48-2.688 0-5.184-.448-7.488-1.344-2.24-.96-4.064-2.592-5.472-4.896-1.408-2.304-2.112-5.536-2.112-9.696v-29.952h-7.296v-4.032l7.392-3.36 3.36-10.944h4.992v11.808h14.88v6.528h-14.88v29.76c0 3.136.736 5.472 2.208 7.008 1.536 1.472 3.488 2.208 5.856 2.208Zm-563.84 73.536c.96 0 1.984.064 3.072.192 1.152.064 2.144.192 2.976.384l-1.056 7.776a27.757 27.757 0 0 0-2.784-.48 21.07 21.07 0 0 0-2.784-.192c-1.984 0-3.872.416-5.664 1.248-1.792.832-3.392 2.016-4.8 3.552-1.408 1.472-2.528 3.264-3.36 5.376-.768 2.112-1.152 4.48-1.152 7.104V736h-8.448v-51.456h6.912l.96 9.408h.384a24.086 24.086 0 0 1 3.936-5.184 16.913 16.913 0 0 1 5.28-3.744c1.984-.96 4.16-1.44 6.528-1.44Zm24.104.96V736h-8.448v-51.456h8.448Zm-4.128-19.296c1.28 0 2.4.448 3.36 1.344 1.024.832 1.536 2.176 1.536 4.032 0 1.792-.512 3.136-1.536 4.032-.96.896-2.08 1.344-3.36 1.344-1.408 0-2.592-.448-3.552-1.344-.96-.896-1.44-2.24-1.44-4.032 0-1.856.48-3.2 1.44-4.032.96-.896 2.144-1.344 3.552-1.344Zm38.67 18.336c3.392 0 6.432.64 9.12 1.92 2.752 1.28 5.088 3.232 7.008 5.856h.48l1.152-6.816h6.72v52.32c0 4.864-.832 8.928-2.496 12.192-1.664 3.328-4.192 5.824-7.584 7.488-3.392 1.664-7.712 2.496-12.96 2.496-3.712 0-7.136-.288-10.272-.864-3.072-.512-5.824-1.312-8.256-2.4V748c1.664.832 3.488 1.536 5.472 2.112 1.984.64 4.128 1.12 6.432 1.44 2.304.32 4.672.48 7.104.48 4.416 0 7.872-1.312 10.368-3.936 2.56-2.56 3.84-6.08 3.84-10.56v-2.016c0-.768.032-1.856.096-3.264.064-1.472.128-2.496.192-3.072h-.384c-1.792 2.624-4.032 4.576-6.72 5.856-2.624 1.28-5.696 1.92-9.216 1.92-6.656 0-11.872-2.336-15.648-7.008-3.712-4.672-5.568-11.2-5.568-19.584 0-5.504.832-10.24 2.496-14.208 1.728-4.032 4.16-7.136 7.296-9.312 3.136-2.176 6.912-3.264 11.328-3.264Zm1.152 7.104c-2.88 0-5.344.768-7.392 2.304-1.984 1.536-3.52 3.776-4.608 6.72-1.024 2.944-1.536 6.528-1.536 10.752 0 6.336 1.152 11.2 3.456 14.592 2.368 3.328 5.792 4.992 10.272 4.992 2.624 0 4.864-.32 6.72-.96 1.856-.704 3.392-1.76 4.608-3.168 1.216-1.472 2.112-3.328 2.688-5.568.576-2.24.864-4.896.864-7.968v-2.016c0-4.672-.544-8.448-1.632-11.328-1.024-2.88-2.656-4.992-4.896-6.336-2.24-1.344-5.088-2.016-8.544-2.016Zm48.119-6.24c0 1.216-.064 2.464-.192 3.744a47.021 47.021 0 0 1-.288 3.456h.576c1.088-1.792 2.464-3.264 4.128-4.416 1.664-1.152 3.52-2.016 5.568-2.592 2.048-.64 4.16-.96 6.336-.96 4.16 0 7.616.672 10.368 2.016 2.816 1.28 4.928 3.296 6.336 6.048 1.408 2.752 2.112 6.336 2.112 10.752V736h-8.352v-32.928c0-4.16-.928-7.264-2.784-9.312-1.856-2.048-4.768-3.072-8.736-3.072-3.84 0-6.848.736-9.024 2.208-2.176 1.408-3.744 3.52-4.704 6.336-.896 2.752-1.344 6.144-1.344 10.176V736h-8.448v-72.96h8.448v21.408Zm68.079 45.6c1.281 0 2.593-.096 3.937-.288 1.344-.256 2.432-.512 3.264-.768v6.432c-.896.448-2.176.8-3.84 1.056-1.664.32-3.264.48-4.8.48-2.688 0-5.184-.448-7.488-1.344-2.24-.96-4.064-2.592-5.472-4.896-1.408-2.304-2.112-5.536-2.112-9.696v-29.952h-7.296v-4.032l7.392-3.36 3.36-10.944h4.992v11.808h14.88v6.528h-14.88v29.76c0 3.136.736 5.472 2.208 7.008 1.536 1.472 3.488 2.208 5.855 2.208Zm59.625 0c1.281 0 2.593-.096 3.937-.288 1.344-.256 2.432-.512 3.264-.768v6.432c-.896.448-2.176.8-3.84 1.056-1.664.32-3.264.48-4.8.48-2.688 0-5.184-.448-7.488-1.344-2.24-.96-4.064-2.592-5.472-4.896-1.408-2.304-2.112-5.536-2.112-9.696v-29.952h-7.296v-4.032l7.392-3.36 3.36-10.944h4.992v11.808h14.88v6.528h-14.88v29.76c0 3.136.736 5.472 2.208 7.008 1.536 1.472 3.488 2.208 5.855 2.208Zm62.24-19.872c0 4.288-.576 8.096-1.728 11.424-1.088 3.264-2.688 6.048-4.8 8.352-2.048 2.304-4.576 4.064-7.584 5.28-2.944 1.152-6.24 1.728-9.888 1.728-3.392 0-6.528-.576-9.408-1.728a21.262 21.262 0 0 1-7.488-5.28c-2.112-2.304-3.776-5.088-4.992-8.352-1.152-3.328-1.728-7.136-1.728-11.424 0-5.696.96-10.496 2.88-14.4 1.92-3.968 4.672-6.976 8.256-9.024 3.584-2.112 7.84-3.168 12.768-3.168 4.672 0 8.768 1.056 12.288 3.168 3.584 2.048 6.368 5.056 8.352 9.024 2.048 3.904 3.072 8.704 3.072 14.4Zm-38.88 0c0 4.032.512 7.552 1.536 10.56 1.088 2.944 2.752 5.216 4.992 6.816 2.24 1.6 5.088 2.4 8.544 2.4 3.456 0 6.304-.8 8.544-2.4 2.24-1.6 3.872-3.872 4.896-6.816 1.088-3.008 1.632-6.528 1.632-10.56 0-4.096-.544-7.584-1.632-10.464-1.088-2.88-2.752-5.088-4.992-6.624-2.176-1.6-5.024-2.4-8.544-2.4-5.248 0-9.056 1.728-11.424 5.184-2.368 3.456-3.552 8.224-3.552 14.304ZM612.796 736h-8.448v-72.96h8.448V736Zm36.174-52.416c4.416 0 8.192.96 11.328 2.88 3.2 1.92 5.632 4.64 7.296 8.16 1.728 3.456 2.592 7.52 2.592 12.192v5.088h-35.232c.128 5.824 1.6 10.272 4.416 13.344 2.88 3.008 6.88 4.512 12 4.512 3.264 0 6.144-.288 8.64-.864 2.56-.64 5.184-1.536 7.872-2.688v7.392c-2.624 1.152-5.216 1.984-7.776 2.496-2.56.576-5.6.864-9.12.864-4.864 0-9.184-.992-12.96-2.976-3.712-1.984-6.624-4.928-8.736-8.832-2.048-3.968-3.072-8.8-3.072-14.496 0-5.632.928-10.464 2.784-14.496 1.92-4.032 4.576-7.136 7.968-9.312 3.456-2.176 7.456-3.264 12-3.264Zm-.096 6.912c-4.032 0-7.232 1.312-9.6 3.936-2.304 2.56-3.68 6.144-4.128 10.752h26.208c0-2.944-.448-5.504-1.344-7.68-.896-2.176-2.272-3.872-4.128-5.088-1.792-1.28-4.128-1.92-7.008-1.92Zm58.123.576h-12.96V736h-8.448v-44.928h-9.024v-3.936l9.024-2.88v-2.976c0-4.416.64-8 1.92-10.752 1.344-2.752 3.264-4.768 5.76-6.048 2.496-1.28 5.504-1.92 9.024-1.92 2.048 0 3.904.192 5.568.576 1.728.32 3.2.704 4.416 1.152l-2.208 6.624a53.852 53.852 0 0 0-3.552-.96 17.76 17.76 0 0 0-4.128-.48c-2.816 0-4.928.96-6.336 2.88-1.344 1.856-2.016 4.8-2.016 8.832v3.36h12.96v6.528Zm26.472 38.976c1.28 0 2.592-.096 3.936-.288 1.344-.256 2.432-.512 3.264-.768v6.432c-.896.448-2.176.8-3.84 1.056-1.664.32-3.264.48-4.8.48-2.688 0-5.184-.448-7.488-1.344-2.24-.96-4.064-2.592-5.472-4.896-1.408-2.304-2.112-5.536-2.112-9.696v-29.952h-7.296v-4.032l7.392-3.36 3.36-10.944h4.992v11.808h14.88v6.528h-14.88v29.76c0 3.136.736 5.472 2.208 7.008 1.536 1.472 3.488 2.208 5.856 2.208ZM1095.14 616v-38.592c0-3.712-.9-6.464-2.69-8.256-1.73-1.856-4.39-2.784-7.97-2.784h-28.7l1.05-7.296h28.32c6.21 0 10.88 1.536 14.02 4.608 3.2 3.008 4.8 7.488 4.8 13.44V616h-8.83Zm-37.83 0v-32.352l8.83-.672V616h-8.83Zm57.21 3.456v-7.392l19.4-4.32c2.81-.704 5.34-1.632 7.58-2.784 2.3-1.216 4.26-3.008 5.86-5.376 1.66-2.368 3-5.6 4.03-9.696 1.02-4.096 1.69-9.408 2.01-15.936l.96-14.88h8.84l-.87 14.88c-.25 5.312-.8 10.016-1.63 14.112-.77 4.032-1.86 7.552-3.26 10.56-1.41 3.008-3.2 5.568-5.38 7.68-2.11 2.112-4.67 3.872-7.68 5.28-2.94 1.408-6.4 2.56-10.37 3.456l-19.49 4.416Zm15.17-7.488-12.57-52.32 8.54-1.152 9.89 40.896c.32 1.28.41 2.656.29 4.128-.13 1.408-.45 2.848-.96 4.32a21.397 21.397 0 0 1-1.83 4.128h-3.36Zm73.52 4.032v-38.592c0-3.712-.9-6.464-2.69-8.256-1.73-1.856-4.39-2.784-7.97-2.784h-17.95l.96-7.296h17.66c6.21 0 10.88 1.536 14.02 4.608 3.2 3.008 4.8 7.488 4.8 13.44v32.544a9.424 9.424 0 0 1-1.44 3.264 30.965 30.965 0 0 1-2.21 3.072h-5.18Zm-31.49 0v-7.296h47.42l-1.05 7.296h-46.37Zm81.33 0v-38.592c0-3.712-.89-6.464-2.69-8.256-1.72-1.856-4.35-2.784-7.87-2.784h-19.77l1.05-7.296h19.3c6.21 0 10.88 1.536 14.01 4.608 3.2 3.008 4.8 7.488 4.8 13.44V616h-8.83Zm26.58-25.152v-31.776h8.84v31.776h-8.84Zm-8.73-24.48 1.05-7.296h12.68v7.296h-13.73ZM1344.07 616v-38.592c0-3.712-.89-6.464-2.68-8.256-1.73-1.856-4.39-2.784-7.97-2.784h-24.87v-7.296h25.54c6.21 0 10.88 1.536 14.02 4.608 3.2 3.008 4.8 7.488 4.8 13.44V616h-8.84Zm-46.46 0 1.06-7.296h3.45c1.47 0 2.66-.288 3.55-.864.96-.64 1.67-1.568 2.12-2.784.51-1.216.76-2.784.76-4.704v-39.36h8.84v39.84c0 4.928-1.19 8.704-3.56 11.328-2.36 2.56-5.79 3.84-10.27 3.84h-5.95Zm1.92-49.632 1.06-7.296h12.19v7.296h-13.25ZM1391.6 616l6.63-34.08-7.87-22.848h8.83l4.7 15.168h.29c.7-2.112 1.54-4.128 2.5-6.048s2.2-3.616 3.74-5.088c1.54-1.536 3.42-2.752 5.66-3.648 2.24-.896 4.87-1.344 7.88-1.344 4.28 0 8.03 1.024 11.23 3.072 3.2 1.984 5.69 4.992 7.49 9.024 1.85 3.968 2.78 9.024 2.78 15.168v1.344c0 5.888-.96 11.04-2.88 15.456-1.86 4.352-4.61 7.744-8.26 10.176-3.58 2.432-8 3.648-13.24 3.648h-9.6l.96-7.296h8.25c5.12 0 9.06-2.016 11.81-6.048s4.13-9.344 4.13-15.936v-1.344c0-4.608-.64-8.352-1.92-11.232-1.22-2.944-2.88-5.12-4.99-6.528-2.12-1.408-4.55-2.112-7.3-2.112-2.69 0-4.96.48-6.82 1.44-1.85.96-3.36 2.272-4.51 3.936a21.296 21.296 0 0 0-2.78 5.376 36.706 36.706 0 0 0-1.44 5.952L1400.72 616h-9.12Zm70 0v-56.928h8.83V616h-8.83Zm-8.73-49.632 1.05-7.296h13.44v7.296h-14.49Zm51.05 50.112-3.65-12.768h-.67c-1.15 1.984-2.37 3.744-3.65 5.28a23.011 23.011 0 0 1-4.03 3.84 17.654 17.654 0 0 1-4.61 2.4c-1.66.512-3.52.768-5.57.768h-1.44v-7.488h1.25c1.98 0 3.87-.352 5.66-1.056 1.86-.768 3.56-1.76 5.09-2.976 1.6-1.216 2.95-2.464 4.03-3.744 1.16-1.344 2.02-2.624 2.6-3.84v-23.52c0-2.496-.58-4.288-1.73-5.376s-3.04-1.632-5.67-1.632h-5.95l.96-7.296h7.2c3.14 0 5.73.512 7.78 1.536s3.58 2.528 4.61 4.512c1.08 1.984 1.63 4.448 1.63 7.392v28.032l4.03 14.208-7.87 1.728Zm13.73-50.112v-7.296h45.41l-.96 7.296h-44.45ZM1544.91 616v-42.624c0-.768.1-1.6.29-2.496.19-.96.48-1.856.86-2.688.45-.832 1.06-1.44 1.83-1.824h6.91c-.45.448-.74 1.152-.86 2.112-.13.96-.2 2.016-.2 3.168V616h-8.83Zm55.3 0v-38.592c0-3.712-.9-6.464-2.69-8.256-1.73-1.856-4.35-2.784-7.87-2.784h-19.78l1.06-7.296h19.29c6.21 0 10.88 1.536 14.02 4.608 3.2 3.008 4.8 7.488 4.8 13.44V616h-8.83Zm65.9 0v-38.592c0-3.712-.9-6.464-2.69-8.256-1.73-1.856-4.39-2.784-7.97-2.784h-24.86v-7.296h25.53c6.21 0 10.88 1.536 14.02 4.608 3.2 3.008 4.8 7.488 4.8 13.44V616h-8.83Zm-46.47 0 1.06-7.296h3.45c1.48 0 2.66-.288 3.56-.864.96-.64 1.66-1.568 2.11-2.784.51-1.216.77-2.784.77-4.704v-39.36h8.83v39.84c0 4.928-1.19 8.704-3.55 11.328-2.37 2.56-5.8 3.84-10.28 3.84h-5.95Zm1.92-49.632 1.06-7.296h12.19v7.296h-13.25ZM1153.76 736l6.62-34.08-7.87-22.848h8.83l4.71 15.168h.29c.7-2.112 1.53-4.128 2.49-6.048.96-1.92 2.21-3.616 3.75-5.088 1.53-1.536 3.42-2.752 5.66-3.648 2.24-.896 4.86-1.344 7.87-1.344 4.29 0 8.03 1.024 11.23 3.072 3.2 1.984 5.7 4.992 7.49 9.024 1.86 3.968 2.79 9.024 2.79 15.168v1.344c0 5.888-.96 11.04-2.88 15.456-1.86 4.352-4.61 7.744-8.26 10.176-3.58 2.432-8 3.648-13.25 3.648h-9.6l.96-7.296h8.26c5.12 0 9.05-2.016 11.81-6.048 2.75-4.032 4.12-9.344 4.12-15.936v-1.344c0-4.608-.64-8.352-1.92-11.232-1.21-2.944-2.88-5.12-4.99-6.528-2.11-1.408-4.54-2.112-7.29-2.112-2.69 0-4.96.48-6.82 1.44-1.86.96-3.36 2.272-4.51 3.936-1.15 1.6-2.08 3.392-2.79 5.376a36.706 36.706 0 0 0-1.44 5.952L1162.88 736h-9.12Zm69.34-25.152v-31.776h8.83v31.776h-8.83Zm-8.73-24.48 1.05-7.296h12.67v7.296h-13.72ZM1244.79 736l6.63-34.08-7.88-22.848h8.84l4.7 15.168h.29c.7-2.112 1.53-4.128 2.49-6.048.96-1.92 2.21-3.616 3.75-5.088 1.53-1.536 3.42-2.752 5.66-3.648 2.24-.896 4.87-1.344 7.87-1.344 4.29 0 8.04 1.024 11.24 3.072 3.2 1.984 5.69 4.992 7.48 9.024 1.86 3.968 2.79 9.024 2.79 15.168v1.344c0 5.888-.96 11.04-2.88 15.456-1.86 4.352-4.61 7.744-8.26 10.176-3.58 2.432-8 3.648-13.25 3.648h-9.6l.96-7.296h8.26c5.12 0 9.06-2.016 11.81-6.048s4.13-9.344 4.13-15.936v-1.344c0-4.608-.64-8.352-1.92-11.232-1.22-2.944-2.88-5.12-5-6.528-2.11-1.408-4.54-2.112-7.29-2.112-2.69 0-4.96.48-6.82 1.44-1.85.96-3.36 2.272-4.51 3.936a21.296 21.296 0 0 0-2.78 5.376 36.706 36.706 0 0 0-1.44 5.952L1253.91 736h-9.12Zm69.34-25.152v-31.776h8.84v31.776h-8.84Zm-8.73-24.48 1.05-7.296h12.68v7.296h-13.73Zm37.62 67.968v-75.264h8.83v74.784l-8.83.48Zm-8.73-67.968 1.05-7.296h13.44v7.296h-14.49Zm65.34-7.296h34.65l-.96 5.568-17.18 51.36h-9.12l16.8-49.632h-33.02v-22.272l8.83-1.056v16.032Zm72.52 57.216c-6.01 0-11.13-1.28-15.36-3.84-4.16-2.56-7.36-6.304-9.6-11.232-2.24-4.992-3.36-11.104-3.36-18.336v-23.808h8.83v23.808c0 5.824.74 10.72 2.21 14.688 1.54 3.904 3.75 6.848 6.63 8.832 2.88 1.92 6.4 2.88 10.56 2.88h.96c4.28 0 7.9-.96 10.84-2.88 2.95-1.984 5.16-4.928 6.63-8.832 1.53-3.904 2.3-8.768 2.3-14.592v-23.904h8.74v23.808c0 7.232-1.12 13.344-3.36 18.336-2.18 4.928-5.38 8.672-9.6 11.232-4.23 2.56-9.35 3.84-15.36 3.84h-1.06Zm-21.79-22.368-.67-6.144c4.29.192 7.81-.384 10.56-1.728 2.75-1.408 4.77-3.552 6.05-6.432 1.34-2.88 2.01-6.368 2.01-10.464v-10.08h8.83v9.504c0 4.032-.54 7.648-1.63 10.848-1.09 3.136-2.75 5.824-4.99 8.064-2.18 2.176-4.96 3.808-8.35 4.896-3.33 1.088-7.27 1.6-11.81 1.536Zm63.21 22.08 6.63-34.08-7.88-22.848h8.84l4.7 15.168h.29c.7-2.112 1.53-4.128 2.49-6.048.96-1.92 2.21-3.616 3.75-5.088 1.53-1.536 3.42-2.752 5.66-3.648 2.24-.896 4.87-1.344 7.87-1.344 4.29 0 8.04 1.024 11.24 3.072 3.2 1.984 5.69 4.992 7.48 9.024 1.86 3.968 2.79 9.024 2.79 15.168v1.344c0 5.888-.96 11.04-2.88 15.456-1.86 4.352-4.61 7.744-8.26 10.176-3.58 2.432-8 3.648-13.25 3.648h-9.6l.96-7.296h8.26c5.12 0 9.06-2.016 11.81-6.048s4.13-9.344 4.13-15.936v-1.344c0-4.608-.64-8.352-1.92-11.232-1.22-2.944-2.88-5.12-5-6.528-2.11-1.408-4.54-2.112-7.29-2.112-2.69 0-4.96.48-6.82 1.44-1.85.96-3.36 2.272-4.51 3.936a21.296 21.296 0 0 0-2.78 5.376 36.706 36.706 0 0 0-1.44 5.952L1522.69 736h-9.12Zm104.75 0c-2.81-4.8-5.69-9.44-8.64-13.92-2.94-4.48-5.88-8.704-8.83-12.672a226.467 226.467 0 0 0-8.54-11.232c-1.6-1.984-3.17-3.904-4.71-5.76a790.06 790.06 0 0 0-4.32-5.376 112.126 112.126 0 0 0-3.64-4.512 145.5 145.5 0 0 0-2.88-3.456h10.65a112.19 112.19 0 0 1 3.84 4.704c1.35 1.728 2.82 3.616 4.42 5.664a822.48 822.48 0 0 1 5.28 6.624c2.75 3.776 5.69 7.84 8.83 12.192 3.14 4.352 6.3 8.864 9.5 13.536 3.2 4.672 6.24 9.408 9.12 14.208h-10.08Zm-43.68 0 2.31-15.936c.51-3.712 1.31-7.104 2.4-10.176 1.15-3.136 2.81-5.856 4.99-8.16 2.18-2.368 5.09-4.288 8.74-5.76l2.88 5.76c-2.31 1.088-4.13 2.56-5.48 4.416-1.34 1.792-2.36 3.904-3.07 6.336-.7 2.368-1.28 4.992-1.73 7.872l-2.3 15.648h-8.74Zm35.33-23.616-2.88-5.76c2.43-1.152 4.42-2.624 5.95-4.416 1.54-1.792 2.69-3.872 3.46-6.24.83-2.368 1.38-4.992 1.63-7.872l.87-9.024h8.83l-.87 9.312c-.32 3.712-1.12 7.104-2.4 10.176a23.388 23.388 0 0 1-5.56 8.064c-2.37 2.304-5.38 4.224-9.03 5.76Zm33.97-33.312h34.66l-.96 5.568-17.19 51.36h-9.12l16.8-49.632h-33.02v-22.272l8.83-1.056v16.032Z" fill="#3C4043"/><path d="M246.384 333.8h15.264v2.808h-12.24v8.352h12.024v2.808h-12.024v8.424h12.456V359h-15.48v-25.2Zm34.607 23.904h.432V333.8h3.024V359h-6.048l-7.272-23.904h-.432V359h-3.024v-25.2h6.048l7.272 23.904Zm14.699-10.8h11.232V359h-2.808v-3.024h-.432c-.408 1.056-1.128 1.908-2.16 2.556-1.032.648-2.232.972-3.6.972-2.712 0-4.848-.876-6.408-2.628-1.536-1.752-2.304-4.308-2.304-7.668v-5.616c0-3.264.78-5.796 2.34-7.596 1.56-1.8 3.732-2.7 6.516-2.7 1.44 0 2.712.24 3.816.72 1.104.456 2.028 1.104 2.772 1.944.744.816 1.308 1.788 1.692 2.916.384 1.104.576 2.292.576 3.564v.432h-3.024v-.432a7.92 7.92 0 0 0-.36-2.376 5.383 5.383 0 0 0-1.044-2.016c-.456-.6-1.056-1.068-1.8-1.404-.72-.36-1.596-.54-2.628-.54-1.944 0-3.408.708-4.392 2.124-.96 1.416-1.44 3.276-1.44 5.58v5.184c0 2.472.48 4.38 1.44 5.724.984 1.32 2.472 1.98 4.464 1.98 1.8 0 3.204-.576 4.212-1.728 1.032-1.152 1.548-2.76 1.548-4.824v-.432h-8.208v-2.808Zm16.571-13.104h3.024v22.392h13.176V359h-16.2v-25.2Zm21.935 0h15.984v2.808h-6.48v19.584h6.48V359h-15.984v-2.808h6.48v-19.584h-6.48V333.8Zm35.975 7.272c0-.816-.168-1.536-.504-2.16a4.27 4.27 0 0 0-1.296-1.548 6.154 6.154 0 0 0-1.908-.936 7.85 7.85 0 0 0-2.268-.324c-.696 0-1.356.096-1.98.288a5.694 5.694 0 0 0-1.692.756c-.48.336-.864.756-1.152 1.26-.288.48-.432 1.044-.432 1.692v.216c0 .696.144 1.296.432 1.8.288.48.708.9 1.26 1.26.576.336 1.284.624 2.124.864.84.216 1.824.408 2.952.576 2.64.408 4.584 1.188 5.832 2.34 1.248 1.128 1.872 2.652 1.872 4.572v.432c0 1.08-.192 2.076-.576 2.988a6.023 6.023 0 0 1-1.656 2.304c-.72.648-1.62 1.152-2.7 1.512-1.08.36-2.328.54-3.744.54-1.608 0-3.036-.228-4.284-.684-1.224-.48-2.256-1.128-3.096-1.944a8.68 8.68 0 0 1-1.872-2.916c-.432-1.128-.648-2.352-.648-3.672v-1.08h3.024v.864c0 2.208.6 3.864 1.8 4.968 1.224 1.104 2.916 1.656 5.076 1.656 1.872 0 3.276-.408 4.212-1.224.96-.84 1.44-1.944 1.44-3.312v-.216c0-1.32-.492-2.328-1.476-3.024-.96-.696-2.532-1.2-4.716-1.512-1.272-.168-2.424-.42-3.456-.756-1.008-.36-1.872-.816-2.592-1.368a5.91 5.91 0 0 1-1.656-2.052c-.384-.792-.576-1.728-.576-2.808v-.432c0-.984.204-1.884.612-2.7a6.563 6.563 0 0 1 1.692-2.124c.744-.6 1.62-1.056 2.628-1.368 1.032-.336 2.16-.504 3.384-.504 1.416 0 2.676.204 3.78.612 1.128.408 2.076.96 2.844 1.656a6.386 6.386 0 0 1 1.728 2.412c.408.912.612 1.872.612 2.88v1.512h-3.024v-1.296Zm7.715-7.272h3.024v11.16h10.728V333.8h3.024V359h-3.024v-11.232H380.91V359h-3.024v-25.2ZM1551.63 333.8h3.02v11.16h10.73V333.8h3.02V359h-3.02v-11.232h-10.73V359h-3.02v-25.2Zm22.8 0h15.26v2.808h-12.24v8.352h12.02v2.808h-12.02v8.424h12.46V359h-15.48v-25.2Zm20.71 22.392h2.16v-19.584h-2.16V333.8h10.19c1.2 0 2.25.168 3.16.504.94.336 1.72.792 2.34 1.368a5.231 5.231 0 0 1 1.44 2.088c.34.792.51 1.656.51 2.592v.432c0 .696-.11 1.332-.33 1.908a4.99 4.99 0 0 1-.9 1.548 5.99 5.99 0 0 1-1.36 1.188 6.53 6.53 0 0 1-1.66.72v.432c1.2.336 2.21.984 3.02 1.944.82.936 1.23 2.088 1.23 3.456v.432c0 .936-.17 1.812-.51 2.628a5.587 5.587 0 0 1-1.44 2.088c-.62.576-1.4 1.032-2.34 1.368-.91.336-1.96.504-3.16.504h-10.19v-2.808Zm5.18 0h4.79c1.42 0 2.57-.348 3.46-1.044.88-.72 1.33-1.704 1.33-2.952v-.216c0-1.296-.42-2.316-1.26-3.06-.84-.768-1.98-1.152-3.42-1.152h-4.9v8.424Zm0-11.232h4.9c1.44 0 2.58-.372 3.42-1.116.84-.744 1.26-1.764 1.26-3.06v-.216c0-1.224-.45-2.184-1.33-2.88-.89-.72-2.04-1.08-3.46-1.08h-4.79v8.352Zm33.71 14.04H1631v-8.424c0-.624-.14-1.104-.43-1.44-.29-.336-.79-.504-1.51-.504h-7.85V359h-3.02v-25.2h9c1.29 0 2.42.192 3.38.576.96.36 1.75.852 2.38 1.476a5.783 5.783 0 0 1 1.44 2.196c.33.816.5 1.68.5 2.592v1.08c0 .936-.26 1.872-.79 2.808-.5.936-1.3 1.656-2.38 2.16v.432c.72.12 1.29.408 1.7.864.4.456.61 1.104.61 1.944V359Zm-12.82-13.176h5.62c1.7 0 2.96-.36 3.78-1.08.84-.744 1.26-1.824 1.26-3.24v-.648c0-1.272-.42-2.292-1.26-3.06-.82-.792-2.08-1.188-3.78-1.188h-5.62v9.216Zm19.35-12.024h15.26v2.808h-12.24v8.352h12.02v2.808h-12.02v8.424h12.46V359h-15.48v-25.2Zm37.73 25.2h-5.5l-2.34-23.904h-.44L1667.67 359h-5.5l-2.56-25.2h2.74l2.41 23.904h.43l2.27-23.904h5.54l2.27 23.904h.43l2.41-23.904h2.74l-2.56 25.2Z" fill="#FF6D7F"/></svg>