<svg width="1920" height="1080" fill="none" xmlns="http://www.w3.org/2000/svg"><path d="M276.016 580.096h-17.568v-64.944h17.568v8.928h-6.408v47.088h6.408v8.928ZM332.192 568h-18.216l-18.792-36.216h-.288c.096.816.168 1.776.216 2.88a74.14 74.14 0 0 1 .216 3.456l.144 3.528c.048 1.152.072 2.208.072 3.168V568h-12.312v-51.408h18.144l18.72 35.712h.216a89.4 89.4 0 0 0-.216-2.808l-.144-3.312c-.048-1.152-.096-2.28-.144-3.384v-26.208h12.384V568Zm28.222-40.536c3.888 0 7.224.672 10.008 2.016 2.832 1.344 4.992 3.36 6.48 6.048 1.536 2.688 2.304 6.072 2.304 10.152v6.12h-24.552c.096 2.064.864 3.768 2.304 5.112 1.488 1.344 3.624 2.016 6.408 2.016 2.496 0 4.776-.24 6.84-.72s4.2-1.248 6.408-2.304v9.864c-1.92 1.008-4.032 1.752-6.336 2.232-2.256.48-5.112.72-8.568.72-4.032 0-7.632-.696-10.8-2.088-3.12-1.44-5.592-3.672-7.416-6.696-1.824-3.024-2.736-6.888-2.736-11.592 0-4.8.816-8.736 2.448-11.808 1.68-3.072 3.984-5.352 6.912-6.84 2.976-1.488 6.408-2.232 10.296-2.232Zm.504 9.36c-1.632 0-3 .504-4.104 1.512-1.056 1.008-1.68 2.616-1.872 4.824h11.808c0-1.2-.24-2.256-.72-3.168a5.35 5.35 0 0 0-1.944-2.304c-.864-.576-1.92-.864-3.168-.864Zm44.004-9.36c3.888 0 7.224.672 10.008 2.016 2.832 1.344 4.992 3.36 6.48 6.048 1.536 2.688 2.304 6.072 2.304 10.152v6.12h-24.552c.096 2.064.864 3.768 2.304 5.112 1.488 1.344 3.624 2.016 6.408 2.016 2.496 0 4.776-.24 6.84-.72s4.2-1.248 6.408-2.304v9.864c-1.92 1.008-4.032 1.752-6.336 2.232-2.256.48-5.112.72-8.568.72-4.032 0-7.632-.696-10.8-2.088-3.12-1.44-5.592-3.672-7.416-6.696-1.824-3.024-2.736-6.888-2.736-11.592 0-4.8.816-8.736 2.448-11.808 1.68-3.072 3.984-5.352 6.912-6.84 2.976-1.488 6.408-2.232 10.296-2.232Zm.504 9.36c-1.632 0-3 .504-4.104 1.512-1.056 1.008-1.68 2.616-1.872 4.824h11.808c0-1.2-.24-2.256-.72-3.168a5.35 5.35 0 0 0-1.944-2.304c-.864-.576-1.92-.864-3.168-.864Zm38.46 31.896c-4.08 0-7.464-1.752-10.152-5.256-2.64-3.504-3.96-8.616-3.96-15.336 0-6.816 1.344-11.952 4.032-15.408 2.736-3.504 6.264-5.256 10.584-5.256 1.776 0 3.312.264 4.608.792a9.788 9.788 0 0 1 3.384 2.088c.96.864 1.776 1.848 2.448 2.952h.288c-.192-1.008-.36-2.4-.504-4.176a96.087 96.087 0 0 1-.144-5.184V513.28h13.824V568h-10.368l-2.952-5.04h-.504a12.253 12.253 0 0 1-2.376 2.88c-.96.864-2.112 1.56-3.456 2.088-1.344.528-2.928.792-4.752.792Zm5.616-10.872c2.208 0 3.768-.696 4.68-2.088.912-1.392 1.392-3.528 1.44-6.408v-1.08c0-3.12-.456-5.52-1.368-7.2-.864-1.68-2.496-2.52-4.896-2.52-1.632 0-3 .792-4.104 2.376-1.056 1.584-1.584 4.056-1.584 7.416 0 3.312.528 5.736 1.584 7.272 1.104 1.488 2.52 2.232 4.248 2.232ZM519.943 568h-13.896v-40.032h-12.528v-11.376h38.952v11.376h-12.528V568Zm32.819-46.944c0 2.928-.072 5.4-.216 7.416a258.122 258.122 0 0 1-.36 4.608h.648c.864-1.392 1.824-2.496 2.88-3.312a10.333 10.333 0 0 1 3.672-1.728c1.344-.384 2.808-.576 4.392-.576 2.64 0 5.016.504 7.128 1.512s3.792 2.592 5.04 4.752c1.296 2.112 1.944 4.896 1.944 8.352V568h-13.824v-21.744c0-2.64-.384-4.632-1.152-5.976-.768-1.344-1.968-2.016-3.6-2.016-1.632 0-2.928.48-3.888 1.44s-1.656 2.352-2.088 4.176c-.384 1.776-.576 3.984-.576 6.624V568H539.01v-54.72h13.752v7.776Zm53.922 6.408c5.04 0 8.976 1.248 11.808 3.744 2.832 2.496 4.248 6.048 4.248 10.656V568h-9.504l-2.664-5.256h-.288c-1.104 1.392-2.256 2.544-3.456 3.456-1.152.864-2.496 1.488-4.032 1.872-1.536.432-3.408.648-5.616.648-2.304 0-4.368-.456-6.192-1.368-1.824-.96-3.264-2.376-4.32-4.248-1.056-1.92-1.584-4.344-1.584-7.272 0-4.272 1.464-7.44 4.392-9.504 2.976-2.064 7.272-3.216 12.888-3.456l6.624-.216v-.576c0-1.776-.432-3.024-1.296-3.744-.864-.768-2.04-1.152-3.528-1.152-1.584 0-3.336.288-5.256.864a42.654 42.654 0 0 0-5.832 2.088l-3.96-9.072c2.304-1.2 4.896-2.088 7.776-2.664 2.928-.624 6.192-.936 9.792-.936Zm-.792 22.896c-2.496.096-4.272.552-5.328 1.368-1.008.768-1.512 1.872-1.512 3.312 0 1.344.36 2.352 1.08 3.024.72.624 1.68.936 2.88.936 1.68 0 3.096-.528 4.248-1.584 1.2-1.056 1.8-2.424 1.8-4.104v-3.096l-3.168.144Zm40.036-22.176V568h-13.752v-39.816h13.752Zm-6.84-16.056c1.968 0 3.672.408 5.112 1.224 1.488.816 2.232 2.448 2.232 4.896 0 2.352-.744 3.96-2.232 4.824-1.44.816-3.144 1.224-5.112 1.224-2.016 0-3.744-.408-5.184-1.224-1.392-.864-2.088-2.472-2.088-4.824 0-2.448.696-4.08 2.088-4.896 1.44-.816 3.168-1.224 5.184-1.224Zm54.141 3.816c3.264 0 6.048.48 8.352 1.44 2.352.96 4.152 2.352 5.4 4.176 1.296 1.824 1.944 4.032 1.944 6.624 0 2.976-.864 5.544-2.592 7.704-1.728 2.16-3.96 4.08-6.696 5.76l6.984 6.624a24.369 24.369 0 0 0 2.16-4.176 24.805 24.805 0 0 0 1.512-4.968h14.256a46.318 46.318 0 0 1-3.456 10.08c-1.536 3.216-3.192 5.88-4.968 7.992l11.232 10.8h-17.784l-3.456-3.6c-.96.624-1.92 1.2-2.88 1.728-.912.528-1.944.984-3.096 1.368-1.152.384-2.496.672-4.032.864-1.488.24-3.312.36-5.472.36-3.984 0-7.368-.672-10.152-2.016-2.784-1.344-4.896-3.144-6.336-5.4-1.44-2.304-2.16-4.824-2.16-7.56 0-2.064.36-3.96 1.08-5.688a15.465 15.465 0 0 1 3.24-4.68c1.44-1.44 3.192-2.688 5.256-3.744a26.863 26.863 0 0 1-2.52-3.384c-.672-1.2-1.2-2.448-1.584-3.744-.336-1.344-.504-2.784-.504-4.32 0-2.4.6-4.512 1.8-6.336 1.248-1.824 3.072-3.264 5.472-4.32 2.448-1.056 5.448-1.584 9-1.584Zm-4.176 31.248a6.78 6.78 0 0 0-1.656 1.656 5.716 5.716 0 0 0-.936 1.872 6.822 6.822 0 0 0-.288 2.016c0 1.488.528 2.712 1.584 3.672 1.056.912 2.448 1.368 4.176 1.368 1.344 0 2.52-.168 3.528-.504 1.008-.384 1.776-.792 2.304-1.224l-8.712-8.856Zm3.96-22.248c-.96 0-1.824.288-2.592.864-.72.576-1.08 1.512-1.08 2.808 0 1.056.312 2.04.936 2.952a15.377 15.377 0 0 0 2.16 2.52c1.344-.768 2.352-1.68 3.024-2.736.72-1.056 1.08-2.112 1.08-3.168 0-1.152-.336-1.968-1.008-2.448-.672-.528-1.512-.792-2.52-.792Zm101.851 16.272c0 5.952-1.128 10.92-3.384 14.904-2.208 3.984-5.328 6.96-9.36 8.928-4.032 1.968-8.784 2.952-14.256 2.952h-16.632v-51.408h17.784c5.52 0 10.2.96 14.04 2.88 3.84 1.872 6.768 4.632 8.784 8.28 2.016 3.648 3.024 8.136 3.024 13.464Zm-14.4.504c0-3.12-.432-5.712-1.296-7.776-.816-2.064-2.064-3.6-3.744-4.608-1.632-1.008-3.72-1.512-6.264-1.512h-4.032v28.8h3.096c4.224 0 7.32-1.224 9.288-3.672 1.968-2.448 2.952-6.192 2.952-11.232Zm40.779-14.256c3.888 0 7.224.672 10.008 2.016 2.832 1.344 4.992 3.36 6.48 6.048 1.536 2.688 2.304 6.072 2.304 10.152v6.12h-24.552c.096 2.064.864 3.768 2.304 5.112 1.488 1.344 3.624 2.016 6.408 2.016 2.496 0 4.776-.24 6.84-.72s4.2-1.248 6.408-2.304v9.864c-1.92 1.008-4.032 1.752-6.336 2.232-2.256.48-5.112.72-8.568.72-4.032 0-7.632-.696-10.8-2.088-3.12-1.44-5.592-3.672-7.416-6.696-1.824-3.024-2.736-6.888-2.736-11.592 0-4.8.816-8.736 2.448-11.808 1.68-3.072 3.984-5.352 6.912-6.84 2.976-1.488 6.408-2.232 10.296-2.232Zm.504 9.36c-1.632 0-3 .504-4.104 1.512-1.056 1.008-1.68 2.616-1.872 4.824h11.808c0-1.2-.24-2.256-.72-3.168a5.35 5.35 0 0 0-1.944-2.304c-.864-.576-1.92-.864-3.168-.864ZM856.856 568l-15.192-39.816h14.328l6.768 23.544c.048.144.12.456.216.936.096.432.192.936.288 1.512.096.528.144 1.056.144 1.584h.216c0-.528.024-1.032.072-1.512.096-.528.192-1.008.288-1.44.144-.432.24-.768.288-1.008l7.056-23.616h14.328L870.464 568h-13.608Zm53.016-40.536c5.04 0 8.976 1.248 11.808 3.744 2.832 2.496 4.248 6.048 4.248 10.656V568h-9.504l-2.664-5.256h-.288c-1.104 1.392-2.256 2.544-3.456 3.456-1.152.864-2.496 1.488-4.032 1.872-1.536.432-3.408.648-5.616.648-2.304 0-4.368-.456-6.192-1.368-1.824-.96-3.264-2.376-4.32-4.248-1.056-1.92-1.584-4.344-1.584-7.272 0-4.272 1.464-7.44 4.392-9.504 2.976-2.064 7.272-3.216 12.888-3.456l6.624-.216v-.576c0-1.776-.432-3.024-1.296-3.744-.864-.768-2.04-1.152-3.528-1.152-1.584 0-3.336.288-5.256.864a42.654 42.654 0 0 0-5.832 2.088l-3.96-9.072c2.304-1.2 4.896-2.088 7.776-2.664 2.928-.624 6.192-.936 9.792-.936Zm-.792 22.896c-2.496.096-4.272.552-5.328 1.368-1.008.768-1.512 1.872-1.512 3.312 0 1.344.36 2.352 1.08 3.024.72.624 1.68.936 2.88.936 1.68 0 3.096-.528 4.248-1.584 1.2-1.056 1.8-2.424 1.8-4.104v-3.096l-3.168.144Zm51.123-22.896c4.128 0 7.488 1.152 10.08 3.456 2.592 2.304 3.888 6.024 3.888 11.16V568h-13.752v-21.744c0-2.64-.384-4.632-1.152-5.976-.768-1.344-1.992-2.016-3.672-2.016-2.592 0-4.344 1.056-5.256 3.168-.864 2.112-1.296 5.16-1.296 9.144V568h-13.752v-39.816h10.368l1.872 5.256h.504a13.59 13.59 0 0 1 3.024-3.168 13.413 13.413 0 0 1 4.032-2.088c1.536-.48 3.24-.72 5.112-.72Zm42.767 0c5.04 0 8.97 1.248 11.8 3.744 2.84 2.496 4.25 6.048 4.25 10.656V568h-9.5l-2.67-5.256h-.28c-1.11 1.392-2.26 2.544-3.46 3.456-1.15.864-2.5 1.488-4.033 1.872-1.536.432-3.408.648-5.616.648-2.304 0-4.368-.456-6.192-1.368-1.824-.96-3.264-2.376-4.32-4.248-1.056-1.92-1.584-4.344-1.584-7.272 0-4.272 1.464-7.44 4.392-9.504 2.976-2.064 7.272-3.216 12.888-3.456l6.625-.216v-.576c0-1.776-.43-3.024-1.3-3.744-.86-.768-2.04-1.152-3.52-1.152-1.589 0-3.341.288-5.261.864a42.654 42.654 0 0 0-5.832 2.088l-3.96-9.072c2.304-1.2 4.896-2.088 7.776-2.664 2.928-.624 6.192-.936 9.797-.936Zm-.8 22.896c-2.493.096-4.269.552-5.325 1.368-1.008.768-1.512 1.872-1.512 3.312 0 1.344.36 2.352 1.08 3.024.72.624 1.68.936 2.88.936 1.677 0 3.097-.528 4.247-1.584 1.2-1.056 1.8-2.424 1.8-4.104v-3.096l-3.17.144Zm38.96-22.896c2.78 0 5.01.552 6.69 1.656 1.73 1.056 3.12 2.376 4.18 3.96h.29l1.01-4.896h11.88v39.888c0 3.744-.77 6.888-2.31 9.432-1.53 2.544-3.89 4.464-7.05 5.76-3.12 1.344-7.08 2.016-11.88 2.016-3.22 0-6.05-.168-8.5-.504-2.45-.336-4.8-.936-7.06-1.8v-11.448c1.64.672 3.17 1.224 4.61 1.656 1.44.48 2.98.816 4.61 1.008 1.63.24 3.48.36 5.54.36 2.79 0 4.85-.504 6.2-1.512 1.39-1.008 2.08-2.472 2.08-4.392v-.72c0-.624.03-1.368.08-2.232.09-.864.21-1.776.36-2.736h-.44c-.91 1.584-2.2 2.952-3.88 4.104-1.68 1.104-3.89 1.656-6.63 1.656-4.22 0-7.65-1.752-10.29-5.256-2.64-3.504-3.96-8.616-3.96-15.336 0-4.512.6-8.28 1.8-11.304 1.24-3.072 2.95-5.4 5.11-6.984 2.21-1.584 4.73-2.376 7.56-2.376Zm5.18 10.656c-1.25 0-2.3.384-3.17 1.152-.86.768-1.51 1.92-1.94 3.456-.38 1.488-.58 3.36-.58 5.616 0 3.456.48 5.952 1.44 7.488.96 1.488 2.45 2.232 4.47 2.232 1.1 0 2.04-.168 2.81-.504a4.56 4.56 0 0 0 1.8-1.584c.48-.72.81-1.608 1-2.664.24-1.056.36-2.304.36-3.744v-1.656c0-2.064-.19-3.816-.57-5.256-.34-1.488-.96-2.616-1.87-3.384-.87-.768-2.12-1.152-3.75-1.152Zm47.78-10.656c5.04 0 8.98 1.248 11.81 3.744 2.83 2.496 4.25 6.048 4.25 10.656V568h-9.51l-2.66-5.256h-.29c-1.1 1.392-2.26 2.544-3.46 3.456-1.15.864-2.49 1.488-4.03 1.872-1.53.432-3.41.648-5.61.648-2.31 0-4.37-.456-6.2-1.368-1.82-.96-3.26-2.376-4.32-4.248-1.05-1.92-1.58-4.344-1.58-7.272 0-4.272 1.46-7.44 4.39-9.504 2.98-2.064 7.27-3.216 12.89-3.456l6.62-.216v-.576c0-1.776-.43-3.024-1.29-3.744-.87-.768-2.04-1.152-3.53-1.152-1.58 0-3.34.288-5.26.864a42.726 42.726 0 0 0-5.83 2.088l-3.96-9.072c2.31-1.2 4.9-2.088 7.78-2.664 2.93-.624 6.19-.936 9.79-.936Zm-.79 22.896c-2.5.096-4.27.552-5.33 1.368-1.01.768-1.51 1.872-1.51 3.312 0 1.344.36 2.352 1.08 3.024.72.624 1.68.936 2.88.936 1.68 0 3.09-.528 4.25-1.584 1.2-1.056 1.8-2.424 1.8-4.104v-3.096l-3.17.144Zm50.26-22.896c.77 0 1.56.048 2.37.144.82.096 1.42.192 1.8.288l-1.22 12.96c-.48-.096-1.08-.192-1.8-.288-.67-.096-1.63-.144-2.88-.144-.86 0-1.8.096-2.81.288-.96.144-1.89.48-2.81 1.008-.86.528-1.58 1.32-2.16 2.376-.52 1.056-.79 2.496-.79 4.32V568h-13.75v-39.816h10.22l2.16 6.336h.65a14.045 14.045 0 0 1 2.81-3.528 13.314 13.314 0 0 1 3.82-2.592c1.44-.624 2.9-.936 4.39-.936Zm23.52.72V568h-13.75v-39.816h13.75Zm-6.84-16.056c1.97 0 3.68.408 5.12 1.224 1.48.816 2.23 2.448 2.23 4.896 0 2.352-.75 3.96-2.23 4.824-1.44.816-3.15 1.224-5.12 1.224-2.01 0-3.74-.408-5.18-1.224-1.39-.864-2.09-2.472-2.09-4.824 0-2.448.7-4.08 2.09-4.896 1.44-.816 3.17-1.224 5.18-1.224Zm54.65 45.72c1.25 0 2.38-.12 3.38-.36 1.06-.288 2.14-.624 3.24-1.008v10.008a34.087 34.087 0 0 1-4.75 1.584c-1.68.432-3.81.648-6.41.648-2.59 0-4.87-.408-6.84-1.224-1.92-.816-3.43-2.208-4.53-4.176-1.11-2.016-1.66-4.824-1.66-8.424V538.48h-4.82v-5.616l6.12-4.32 3.53-8.352h9v7.992h9.79v10.296h-9.79v15.48c0 1.296.31 2.28.93 2.952.67.624 1.61.936 2.81.936Zm37.65-30.384c.77 0 1.56.048 2.38.144.81.096 1.41.192 1.8.288l-1.23 12.96c-.48-.096-1.08-.192-1.8-.288-.67-.096-1.63-.144-2.88-.144-.86 0-1.8.096-2.8.288-.96.144-1.9.48-2.81 1.008-.87.528-1.59 1.32-2.16 2.376-.53 1.056-.79 2.496-.79 4.32V568h-13.76v-39.816h10.23l2.16 6.336h.65a14.003 14.003 0 0 1 2.8-3.528 13.593 13.593 0 0 1 3.82-2.592c1.44-.624 2.9-.936 4.39-.936Zm27.74 0c5.04 0 8.97 1.248 11.81 3.744 2.83 2.496 4.24 6.048 4.24 10.656V568h-9.5l-2.66-5.256h-.29c-1.11 1.392-2.26 2.544-3.46 3.456-1.15.864-2.49 1.488-4.03 1.872-1.54.432-3.41.648-5.62.648-2.3 0-4.36-.456-6.19-1.368-1.82-.96-3.26-2.376-4.32-4.248-1.05-1.92-1.58-4.344-1.58-7.272 0-4.272 1.46-7.44 4.39-9.504 2.98-2.064 7.27-3.216 12.89-3.456l6.62-.216v-.576c0-1.776-.43-3.024-1.29-3.744-.87-.768-2.04-1.152-3.53-1.152-1.59 0-3.34.288-5.26.864a42.726 42.726 0 0 0-5.83 2.088l-3.96-9.072c2.3-1.2 4.9-2.088 7.78-2.664 2.92-.624 6.19-.936 9.79-.936Zm-.79 22.896c-2.5.096-4.28.552-5.33 1.368-1.01.768-1.51 1.872-1.51 3.312 0 1.344.36 2.352 1.08 3.024.72.624 1.68.936 2.88.936 1.68 0 3.09-.528 4.24-1.584 1.2-1.056 1.8-2.424 1.8-4.104v-3.096l-3.16.144Zm51.12-22.896c4.13 0 7.49 1.152 10.08 3.456 2.59 2.304 3.89 6.024 3.89 11.16V568h-13.75v-21.744c0-2.64-.39-4.632-1.16-5.976-.76-1.344-1.99-2.016-3.67-2.016-2.59 0-4.34 1.056-5.25 3.168-.87 2.112-1.3 5.16-1.3 9.144V568h-13.75v-39.816h10.37l1.87 5.256h.5c.87-1.248 1.87-2.304 3.03-3.168 1.2-.912 2.54-1.608 4.03-2.088 1.53-.48 3.24-.72 5.11-.72Zm52.91 28.296c0 2.496-.57 4.728-1.72 6.696-1.11 1.968-2.91 3.504-5.4 4.608-2.45 1.104-5.69 1.656-9.72 1.656-2.84 0-5.38-.168-7.64-.504-2.2-.288-4.46-.864-6.76-1.728v-11.016a36.06 36.06 0 0 0 7.7 2.52c2.59.48 4.63.72 6.12.72 1.54 0 2.66-.168 3.38-.504.72-.336 1.08-.84 1.08-1.512 0-.576-.24-1.08-.72-1.512-.48-.432-1.34-.912-2.59-1.44-1.2-.528-2.93-1.248-5.18-2.16-2.21-.912-4.06-1.896-5.55-2.952-1.44-1.104-2.52-2.4-3.24-3.888-.72-1.536-1.08-3.384-1.08-5.544 0-3.888 1.49-6.816 4.47-8.784 3.02-1.968 7.01-2.952 11.95-2.952 2.64 0 5.11.288 7.42.864 2.3.576 4.7 1.416 7.2 2.52l-3.75 8.856a29.073 29.073 0 0 0-4.03-1.584 34.688 34.688 0 0 0-3.82-1.008c-1.15-.24-2.13-.36-2.95-.36-1.05 0-1.89.144-2.52.432-.57.288-.86.696-.86 1.224 0 .48.19.912.57 1.296.44.384 1.23.816 2.38 1.296 1.15.48 2.83 1.176 5.04 2.088 2.3.912 4.2 1.92 5.69 3.024 1.53 1.056 2.66 2.352 3.38 3.888.77 1.488 1.15 3.408 1.15 5.76Zm21.36 12.24h-13.75v-54.72h13.75V568Zm28.96-40.536c5.04 0 8.98 1.248 11.81 3.744 2.83 2.496 4.25 6.048 4.25 10.656V568h-9.51l-2.66-5.256h-.29c-1.1 1.392-2.26 2.544-3.46 3.456-1.15.864-2.49 1.488-4.03 1.872-1.53.432-3.41.648-5.61.648-2.31 0-4.37-.456-6.2-1.368-1.82-.96-3.26-2.376-4.32-4.248-1.05-1.92-1.58-4.344-1.58-7.272 0-4.272 1.46-7.44 4.39-9.504 2.98-2.064 7.27-3.216 12.89-3.456l6.62-.216v-.576c0-1.776-.43-3.024-1.29-3.744-.87-.768-2.04-1.152-3.53-1.152-1.58 0-3.34.288-5.26.864a42.726 42.726 0 0 0-5.83 2.088l-3.96-9.072c2.31-1.2 4.9-2.088 7.78-2.664 2.93-.624 6.19-.936 9.79-.936Zm-.79 22.896c-2.5.096-4.27.552-5.33 1.368-1.01.768-1.51 1.872-1.51 3.312 0 1.344.36 2.352 1.08 3.024.72.624 1.68.936 2.88.936 1.68 0 3.09-.528 4.25-1.584 1.2-1.056 1.8-2.424 1.8-4.104v-3.096l-3.17.144Zm45.72 7.488c1.25 0 2.38-.12 3.39-.36a51.97 51.97 0 0 0 3.24-1.008v10.008a34.675 34.675 0 0 1-4.76 1.584c-1.68.432-3.81.648-6.4.648-2.6 0-4.88-.408-6.84-1.224-1.92-.816-3.44-2.208-4.54-4.176-1.1-2.016-1.66-4.824-1.66-8.424V538.48h-4.82v-5.616l6.12-4.32 3.53-8.352h9v7.992h9.79v10.296h-9.79v15.48c0 1.296.31 2.28.93 2.952.68.624 1.61.936 2.81.936Zm27.43-29.664V568h-13.75v-39.816h13.75Zm-6.84-16.056c1.97 0 3.67.408 5.11 1.224 1.49.816 2.24 2.448 2.24 4.896 0 2.352-.75 3.96-2.24 4.824-1.44.816-3.14 1.224-5.11 1.224-2.01 0-3.74-.408-5.18-1.224-1.39-.864-2.09-2.472-2.09-4.824 0-2.448.7-4.08 2.09-4.896 1.44-.816 3.17-1.224 5.18-1.224Zm54.45 35.856c0 3.312-.46 6.264-1.37 8.856-.91 2.592-2.23 4.776-3.96 6.552-1.73 1.728-3.82 3.048-6.26 3.96-2.45.912-5.24 1.368-8.36 1.368-2.88 0-5.54-.456-7.99-1.368-2.4-.912-4.49-2.232-6.26-3.96-1.73-1.776-3.1-3.96-4.11-6.552-.96-2.592-1.44-5.544-1.44-8.856 0-4.416.8-8.136 2.38-11.16 1.63-3.072 3.94-5.4 6.91-6.984 2.98-1.584 6.55-2.376 10.73-2.376 3.84 0 7.22.792 10.15 2.376 2.98 1.584 5.31 3.912 6.99 6.984 1.72 3.024 2.59 6.744 2.59 11.16Zm-25.78 0c0 2.256.19 4.176.58 5.76.38 1.584 1.01 2.784 1.87 3.6.91.768 2.09 1.152 3.53 1.152s2.57-.384 3.38-1.152c.87-.816 1.49-2.016 1.87-3.6.39-1.584.58-3.504.58-5.76s-.19-4.152-.58-5.688c-.38-1.536-1-2.688-1.87-3.456-.86-.768-2.01-1.152-3.45-1.152-2.07 0-3.58.864-4.54 2.592-.91 1.728-1.37 4.296-1.37 7.704Zm58.52-20.52c4.12 0 7.48 1.152 10.08 3.456 2.59 2.304 3.88 6.024 3.88 11.16V568h-13.75v-21.744c0-2.64-.38-4.632-1.15-5.976-.77-1.344-1.99-2.016-3.67-2.016-2.59 0-4.35 1.056-5.26 3.168-.86 2.112-1.29 5.16-1.29 9.144V568h-13.76v-39.816H1572l1.87 5.256h.51a13.497 13.497 0 0 1 7.05-5.256c1.54-.48 3.24-.72 5.12-.72Zm52.91 28.296c0 2.496-.57 4.728-1.73 6.696-1.1 1.968-2.9 3.504-5.4 4.608-2.44 1.104-5.68 1.656-9.72 1.656-2.83 0-5.37-.168-7.63-.504-2.21-.288-4.46-.864-6.77-1.728v-11.016c2.55 1.152 5.12 1.992 7.71 2.52 2.59.48 4.63.72 6.12.72 1.53 0 2.66-.168 3.38-.504.72-.336 1.08-.84 1.08-1.512 0-.576-.24-1.08-.72-1.512-.48-.432-1.34-.912-2.59-1.44-1.2-.528-2.93-1.248-5.18-2.16-2.21-.912-4.06-1.896-5.55-2.952-1.44-1.104-2.52-2.4-3.24-3.888-.72-1.536-1.08-3.384-1.08-5.544 0-3.888 1.49-6.816 4.47-8.784 3.02-1.968 7-2.952 11.95-2.952 2.64 0 5.11.288 7.41.864 2.31.576 4.71 1.416 7.2 2.52l-3.74 8.856a29.574 29.574 0 0 0-4.03-1.584 35.283 35.283 0 0 0-3.82-1.008c-1.15-.24-2.13-.36-2.95-.36-1.06 0-1.9.144-2.52.432-.58.288-.86.696-.86 1.224 0 .48.19.912.57 1.296.43.384 1.23.816 2.38 1.296 1.15.48 2.83 1.176 5.04 2.088 2.3.912 4.2 1.92 5.69 3.024 1.53 1.056 2.66 2.352 3.38 3.888.77 1.488 1.15 3.408 1.15 5.76Zm4.51 15.408h6.41V524.08h-6.41v-8.928h17.57v64.944h-17.57v-8.928Z" fill="#FF6D7F"/></svg>