<svg width="1920" height="1080" fill="none" xmlns="http://www.w3.org/2000/svg"><path d="M958.316 758.576c-19.35-7.855-28.332-20.811-25.407-37.384 2.781-15.762 15.567-26.702 31.164-26.682 14.792.021 28.157 11.087 30.741 25.446 3.142 17.518-5.489 30.537-25.118 38.62h118.144c13.49 0 20.45 6.048 21.25 19.565.33 5.538-.54 11.305-1.83 16.739-1.41 5.974-5.93 9.517-11.94 10.629-3.33.613-6.79.852-10.19.852-83.13.042-166.268.042-249.393.031-17.851 0-24.084-6.109-24.064-24.095.011-4.208.652-8.613 2.026-12.572 2.161-6.244 6.76-10.182 13.613-10.785a82.364 82.364 0 0 1 7.163-.332c39.517-.021 79.033-.011 118.538-.011 1.768-.021 3.535-.021 5.303-.021ZM1392.91 806.608c14.38 18.36 14.43 35.903.69 48.192-12.44 11.13-31.13 10.902-43.03-.517-13.21-12.692-12.96-30.535 1.45-47.675h-106.45c-18.68 0-25.66-7.437-24.4-26.314.24-3.528.87-7.169 2.12-10.447 2.28-5.969 6.68-9.941 13.33-10.437 5.13-.383 10.29-.383 15.43-.383 81.92-.021 163.84-.021 245.75-.01 14.41 0 20.82 5.699 21.9 19.963.3 4.044.1 8.234-.6 12.237-1.59 9.206-6.86 13.891-16.25 15.019-2.38.279-4.8.372-7.19.372-32.12.021-64.24.021-96.35.021-1.87-.021-3.76-.021-6.4-.021ZM550.431 757.789h127.885c13.788 0 20.982 6.276 21.46 20.239.218 6.424-.737 13.353-3.084 19.271-2.958 7.497-10.485 8.856-17.794 8.919-13.237.105-26.474.031-39.701.031-70.816 0-141.632-.221-212.447.148-19.861.105-26.89-6.855-25.603-29.348.634-11.025 6.614-19.439 20.889-19.355 42.795.264 85.589.095 128.395.095ZM1318.44 332.72V247.224c0-1.133.04-2.267-.01-3.39-.93-21.954 13.3-27.135 29.97-25.578 15.2 1.42 21.35 8.646 21.35 23.84.03 83.673.04 167.356 0 251.029-.01 14.908-6.72 22.304-21.78 23.448-10.46.795-21.04.085-26.59-10.68-2.16-4.207-2.8-9.579-2.83-14.431-.22-40.867-.12-81.734-.12-122.612v-5.742c-8.53 11.199-19.03 17.334-33.38 15.617-8.54-1.027-15.26-5.191-20.53-11.676-11.18-13.774-7.82-34.838 7.03-45.222 15.1-10.553 35.57-5.636 46.89 10.893ZM953.49 342.107c3.54-18.295 17.745-30.584 34.08-29.1 16.79 1.536 29.23 14.555 29.45 30.859.22 16.314-12.18 30.107-28.496 31.717-13.484 1.335-31.218-6.462-35.034-29.153v5.837c0 46.983-.032 93.966.031 140.959.011 7.734-1.208 14.778-8.236 19.471-8.798 5.869-27.529 5.371-35.967-.985-4.156-3.135-5.831-7.585-6.392-12.522-.255-2.235-.191-4.512-.191-6.769-.011-82.832.318-165.664-.233-248.485-.138-21.007 12.285-26.569 28.271-25.881 2.862.128 5.767.731 8.533 1.537 9.095 2.616 13.643 8.008 13.95 17.416.371 11.451.212 22.924.223 34.387.032 23.571.011 47.141.011 70.712ZM577.357 368.02c0 41.346.138 82.692-.17 124.038-.043 5.404-1.316 11.36-3.874 16.054-4.181 7.692-12.533 8.296-20.397 8.657-2.886.137-5.826-.117-8.691-.551-10.687-1.643-16.566-7.81-17.819-18.533a50.238 50.238 0 0 1-.339-5.796c-.022-83.18-.022-166.349 0-249.528 0-8.339 1.57-15.958 9.572-20.8 8.288-5.023 25.491-4.737 33.429.89 4.139 2.935 6.867 6.824 7.578 11.899.424 3.031.668 6.103.668 9.155.053 41.495.043 83 .043 124.515Z" fill="#3C4043"/></svg>