<svg width="1920" height="1080" fill="none" xmlns="http://www.w3.org/2000/svg"><path d="M1649.42 704.786h-32.72V557.869h80.46v25.515h-47.74v37.861h44.44v25.515h-44.44v58.026Zm129.57 0h-33.33V583.795h-35.6v-25.926h104.53v25.926h-35.6v120.991ZM1680.7 493.258c0 8.643-1.93 16.187-5.77 22.635-3.84 6.447-9.67 11.454-17.49 15.021-7.68 3.429-17.42 5.144-29.21 5.144-5.49 0-10.57-.343-15.23-1.029-4.67-.686-9.06-1.646-13.17-2.881a115.97 115.97 0 0 1-12.35-4.938v-29.013c7 3.018 14.13 5.83 21.4 8.436 7.41 2.469 14.41 3.704 20.99 3.704 4.25 0 7.68-.686 10.29-2.058 2.61-1.372 4.53-3.223 5.76-5.555 1.24-2.332 1.85-5.007 1.85-8.025 0-3.704-1.03-6.859-3.08-9.466-1.92-2.606-4.8-5.007-8.65-7.201-3.84-2.332-8.57-4.664-14.19-6.996a111.21 111.21 0 0 1-12.14-6.173 49.056 49.056 0 0 1-10.7-8.437c-3.16-3.429-5.7-7.545-7.62-12.346-1.78-4.801-2.67-10.562-2.67-17.284 0-8.779 2.06-16.256 6.17-22.429 4.12-6.31 9.88-11.111 17.29-14.403 7.4-3.292 16.05-4.939 25.92-4.939 8.1 0 15.57.892 22.43 2.675 7 1.784 13.65 4.321 19.96 7.614l-10.49 24.28c-6.04-2.743-11.8-4.87-17.29-6.379-5.35-1.509-10.56-2.263-15.64-2.263-3.43 0-6.31.617-8.64 1.852-2.33 1.234-4.11 2.949-5.35 5.144-1.1 2.195-1.65 4.801-1.65 7.819 0 3.43.9 6.379 2.68 8.848 1.92 2.332 4.87 4.664 8.85 6.996 3.98 2.195 9.05 4.87 15.22 8.025 6.86 3.429 12.69 7.065 17.49 10.906 4.94 3.703 8.65 8.162 11.12 13.374 2.6 5.213 3.91 11.66 3.91 19.342Zm150.47-32.922c0 11.386-1.3 21.742-3.91 31.07-2.6 9.191-6.58 17.148-11.93 23.869-5.35 6.722-12.28 11.866-20.78 15.433-8.37 3.566-18.32 5.35-29.84 5.35-11.39 0-21.26-1.784-29.63-5.35-8.37-3.704-15.3-8.848-20.78-15.433-5.35-6.721-9.4-14.746-12.14-24.074-2.61-9.328-3.91-19.685-3.91-31.071 0-15.227 2.33-28.464 6.99-39.713 4.8-11.248 12.14-19.959 22.02-26.132 9.88-6.31 22.43-9.465 37.65-9.465 15.37 0 27.92 3.155 37.66 9.465 9.74 6.173 16.94 14.952 21.61 26.338 4.66 11.248 6.99 24.486 6.99 39.713Zm-97.94 0c0 10.288 1.03 19.136 3.08 26.544 2.2 7.407 5.63 13.1 10.29 17.078 4.67 3.978 10.7 5.967 18.11 5.967 7.54 0 13.58-1.989 18.11-5.967 4.66-3.978 8.02-9.671 10.08-17.078 2.19-7.408 3.29-16.256 3.29-26.544 0-15.501-2.47-27.641-7.41-36.421-4.8-8.779-12.75-13.169-23.87-13.169-7.54 0-13.64 1.989-18.31 5.967-4.66 3.979-8.09 9.671-10.29 17.079-2.05 7.408-3.08 16.255-3.08 26.544Z" fill="#3C4043"/><path fill="#D9D9D9" fill-opacity=".01" stroke="#3C4043" stroke-width="6.173" stroke-linejoin="bevel" stroke-dasharray="12.35 12.35" d="M1553.12 348.355h313.793v381.696H1553.12z"/><path d="M1301.67 598.816h-67.28V581.12l17.08-8.23v-95.064l-17.08-8.231v-17.696h67.28v17.696l-16.87 8.231v95.064l16.87 8.23v17.696Zm108.17-40.742c0 8.643-1.92 16.187-5.76 22.635-3.84 6.447-9.67 11.454-17.49 15.021-7.68 3.429-17.42 5.144-29.22 5.144-5.49 0-10.56-.343-15.23-1.029-4.66-.686-9.05-1.646-13.17-2.881a115.821 115.821 0 0 1-12.34-4.938v-29.013c6.99 3.018 14.13 5.83 21.4 8.436 7.41 2.469 14.4 3.704 20.99 3.704 4.25 0 7.68-.686 10.28-2.058 2.61-1.371 4.53-3.223 5.77-5.555 1.23-2.332 1.85-5.007 1.85-8.025 0-3.704-1.03-6.859-3.09-9.465-1.92-2.607-4.8-5.007-8.64-7.202-3.84-2.332-8.57-4.664-14.2-6.996a113.046 113.046 0 0 1-12.14-6.173 49.265 49.265 0 0 1-10.7-8.437c-3.15-3.429-5.69-7.544-7.61-12.346-1.79-4.801-2.68-10.562-2.68-17.284 0-8.779 2.06-16.255 6.18-22.428 4.11-6.311 9.87-11.112 17.28-14.404 7.41-3.292 16.05-4.938 25.93-4.938 8.09 0 15.57.891 22.42 2.675 7 1.783 13.65 4.321 19.96 7.613l-10.49 24.28c-6.04-2.743-11.8-4.87-17.28-6.378-5.35-1.509-10.57-2.264-15.64-2.264-3.43 0-6.31.617-8.64 1.852-2.34 1.235-4.12 2.949-5.35 5.144-1.1 2.195-1.65 4.801-1.65 7.819 0 3.43.89 6.379 2.67 8.848 1.92 2.332 4.87 4.664 8.85 6.996 3.98 2.195 9.06 4.87 15.23 8.025 6.86 3.43 12.69 7.065 17.49 10.906 4.94 3.703 8.64 8.162 11.11 13.374 2.61 5.213 3.91 11.661 3.91 19.342Z" fill="#3C4043"/><path fill="#D9D9D9" fill-opacity=".01" stroke="#3C4043" stroke-width="6.173" stroke-linejoin="bevel" stroke-dasharray="12.35 12.35" d="M1165.25 345.268h313.793v381.696H1165.25z"/><path d="M873.475 449.842c17.696 0 30.728 4.115 39.096 12.346 8.505 8.093 12.757 19.273 12.757 33.539 0 6.448-.891 12.621-2.675 18.519-1.783 5.762-4.732 10.975-8.848 15.639-4.115 4.526-9.602 8.093-16.461 10.699-6.722 2.607-15.021 3.91-24.898 3.91h-11.522v52.265h-33.335V449.842h45.886Zm-1.029 25.515h-11.522v43.622h8.436c4.39 0 8.299-.754 11.729-2.263 3.429-1.509 6.104-3.91 8.025-7.202 1.92-3.292 2.88-7.545 2.88-12.758 0-7.27-1.646-12.62-4.938-16.049-3.155-3.567-8.025-5.35-14.61-5.35Zm123.208 34.98 26.336-60.495h35.8l-45.68 89.714v57.203h-33.123v-56.175l-45.68-90.742h36.214l26.133 60.495ZM599.007 552.725c17.696 0 30.727 4.115 39.095 12.346 8.505 8.093 12.758 19.273 12.758 33.54 0 6.447-.892 12.62-2.675 18.518-1.784 5.762-4.733 10.975-8.848 15.639-4.116 4.527-9.603 8.093-16.461 10.699-6.722 2.607-15.021 3.91-24.898 3.91h-11.523v52.265h-33.334V552.725h45.886Zm-1.029 25.515h-11.523v43.622h8.436c4.39 0 8.3-.754 11.729-2.263 3.429-1.509 6.104-3.91 8.025-7.202 1.92-3.292 2.881-7.545 2.881-12.758 0-7.27-1.647-12.62-4.939-16.049-3.155-3.567-8.025-5.35-14.609-5.35ZM525.731 387.083c17.696 0 30.727 4.115 39.095 12.346 8.505 8.094 12.758 19.273 12.758 33.54 0 6.447-.892 12.62-2.675 18.519-1.784 5.761-4.733 10.974-8.848 15.638-4.116 4.527-9.603 8.094-16.461 10.7-6.722 2.606-15.021 3.909-24.898 3.909h-11.523V534h-33.334V387.083h45.886Zm-1.029 25.515h-11.523v43.622h8.436c4.39 0 8.3-.754 11.729-2.263 3.429-1.509 6.104-3.91 8.025-7.202 1.92-3.292 2.881-7.545 2.881-12.757 0-7.271-1.647-12.621-4.939-16.05-3.155-3.567-8.025-5.35-14.609-5.35Zm191.933 69.549c0 10.151-2.195 19.342-6.585 27.573-4.252 8.093-10.699 14.54-19.342 19.342-8.642 4.664-19.479 6.996-32.511 6.996-18.656 0-32.922-4.939-42.799-14.815-9.74-10.014-14.609-23.183-14.609-39.508v-94.652h33.334v89.92c0 12.071 2.057 20.576 6.173 25.515 4.252 4.938 10.425 7.407 18.519 7.407 5.761 0 10.425-1.166 13.992-3.498 3.566-2.332 6.173-5.967 7.819-10.905 1.783-4.939 2.675-11.18 2.675-18.725v-89.714h33.334v95.064Z" fill="#3C4043"/><path fill="#D9D9D9" fill-opacity=".01" stroke="#3C4043" stroke-width="6.173" stroke-linejoin="bevel" stroke-dasharray="12.35 12.35" d="M777.383 345.268h313.793v381.696H777.383zM440.955 345.268h313.793v381.696H440.955z"/><path d="M257.362 705.814h-80.66V558.898h80.66v25.515h-47.326v32.305h44.034v25.515h-44.034v37.861h47.326v25.72ZM156.175 534h-33.334V413.01H87.243v-25.927h104.53v25.927h-35.598V534Zm171.98 0h-33.54v-63.376h-48.972V534h-33.334V387.083h33.334v57.615h48.972v-57.615h33.54V534Z" fill="#3C4043"/><path fill="#D9D9D9" fill-opacity=".01" stroke="#3C4043" stroke-width="6.173" stroke-linejoin="bevel" stroke-dasharray="12.35 12.35" d="M53.087 345.268H366.88v381.696H53.087z"/></svg>