<svg xmlns="http://www.w3.org/2000/svg" width="1920" height="1080" fill="none"><g clip-path="url(#a)"><path fill="#3C4043" d="M312.166 272.527c5.426-5.845 11.361-9.942 18.259-13.169 7.824-3.663 14.852-8.99 22.602-12.846 5.833-2.895 12.259-4.597 18.416-6.853 3.695-1.35 7.269-3.172 11.324-3.117 1.917.028 3.982.814 5.704.324 2.009-.573 3.509-.592 5.676-.352 5.667.639 11.574-.101 17.287-.943 6.157-.906 12.166-2.784 18.305-3.829 8.426-1.433 16.87-2.552 25.463-2.839 8.518-.287 16.991-1.628 25.481-2.525 10.398-1.1 20.787-2.265 31.194-3.283 4.176-.407 8.463-.027 12.556-.795 8.666-1.618 17.509-.527 26.194-2.405 5.843-1.267 12-1.239 18.028-1.405 3.139-.084 6.314-.638 9.518 1.045 1.407.74 3.954-1.055 5.991-1.073 17.722-.102 35.527-1.147 53.147.203 24.658 1.887 49.315-.231 73.889 1.24 18.444 1.1 36.935-.019 55.259 1.47 15.379 1.249 30.74-.287 45.962 1.286 6.926.712 14.139-.324 20.87 2.349.574.231 1.315 0 1.982.037 9.565.434 19.166.453 28.675 1.433a873.672 873.672 0 0 0 35.435 2.904c5.547.342 11.167.703 16.75.943 12.658.537 25.426.121 37.963 1.628 8.518 1.027 17.074-.129 25.361 1.276 7.852 1.332 15.676.259 23.393 1.203 22.17 2.7 44.4.601 66.59 1.183 12.17.315 24.37-.111 36.54.111 11.12.204 22.3.25 33.33 1.443 10.92 1.184 21.87 1.831 32.78 2.775 9.28.804 18.65 1.849 27.85 4.661 6.02 1.84 12.53 2.95 18.82 4.393 2.79.638 5.54 1.59 8.2 2.635 8.97 3.524 18.29 6.28 26.29 11.921 2.57 1.813 5.41 3.311 7.69 5.429 4.99 4.643 9.78 9.516 14.51 14.446 2.51 2.626 4.75 5.53 7.07 8.342 9.96 12.115 17.34 25.608 23.22 40.174 3.67 9.091 9.46 17.303 13.84 26.135 5.27 10.626 11.25 20.975 14.16 32.637 1.66 6.622 3.47 13.197 4.91 19.865 1.54 7.149 2.89 14.354 3.97 21.586.76 5.077 1.69 10.312 1.24 15.361-1.14 12.827-.66 25.941-5.22 38.288-1.91 5.169-4.81 9.997-6.5 15.222-2.99 9.193-8.9 16.767-13.83 24.767-3.77 6.113-10.19 9.6-18.26 10.127-11.39.74-20.19-4.68-29.05-10.238-1.74-1.091-3.16-1.859-5.21-1.97-2.72-.157-5.39-.86-8.09-1.23-1.09-.148-2.69-.499-3.25.056-2.3 2.302-5.03 1.137-7.5 1.156-3.4.027-6.76-.232-10.21-.093-11.72.463-23.59 1.23-35.18-.092-14.05-1.6-28.08.138-42-1.184-26.62-2.525-53.32.416-79.85-1.452-25.55-1.794-51.11.416-76.54-1.369-15.148-1.063-30.315.315-45.296-1.267-17.361-1.831-34.778-1.406-52.065-2.756-20.472-1.6-40.935-1.581-61.259-.61-18.462.878-36.953-.537-55.268 1.202-13.611 1.295-27.184-.083-40.657 1.267-8.046.805-16.175.102-24.018 1.378-7.648 1.239-15.222.305-22.731 1.212-3.722.453-7.278-.472-10.871-.111-17.509 1.757-35.073 1.313-52.619 1.183-2.426-.018-4.139 3.015-7.232.805-1.463-1.045-4.805.971-7.028.453-2.25-.518-4.175.259-6.25.194-2.657-.083-5.314-.018-7.972-.018-2.657 0-5.333-.222-7.972.037-17.287 1.683-34.666.564-51.935 1.591-8.24.49-16.638-.139-24.675 1.267-9.63 1.683-19.185.333-28.722 1.146-8.722.749-17.556.546-26.157 2.59-.417.102-.88 0-1.325.018-12.888.444-25.768.86-38.657 1.332-11.333.416-22.786.046-33.972 1.582-8.972 1.239-17.972-.213-26.694 1.285-8.74 1.498-17.407 1.202-26.064.943-8.732-.259-17.482-.832-26.176-2.339-4.944-.86-10.176-.343-15.259-.111-10.741.48-18.241-5.096-24.296-13.013-2.463-3.227-4-7.167-5.935-10.792-4.547-8.518-9.519-16.841-13.51-25.609-4.231-9.294-7.851-18.903-11.064-28.595-1.38-4.153-.852-8.906-1.528-13.327-1.157-7.574-1.324-15.241-2.306-22.843-.74-5.78-1.342-11.939.778-18.08 1.408-4.06.796-8.86 1.306-13.336 1.25-10.867 3.972-21.336 7.102-31.675 2.24-7.39 5.481-14.603 9.231-21.373 5.889-10.626 12.546-20.725 20.463-30.14 7.139-8.49 14.37-16.804 22.324-24.508 2.129-2.062 4.611-3.782 7.268-5.983m514.107 65.394c-.222 2.062-.537 4.125-.621 6.196-.046.99.343 1.998.528 2.997.25-.907.685-1.813.732-2.729.111-2.154.037-4.309.703-6.473.037-.407.065-.823.102-1.23-.25.407-.509.823-1.426 1.23m-350.256-57.746c1.019 2.562-4.555 3.024-1.833 5.706.25.25 3.49-2.516 5.324-3.903.352-.259.639-.601.935-.934.704-.777 1.389-1.554 2.083-2.34-1.25-.175-2.518-.573-3.75-.462-.953.092-1.852.814-2.768.592-4.417-3.061-7.685-2.728-10.398 1.11-.704.998-1.278 2.099-1.861 3.172-.389.712-.695 1.47-1.037 2.201.953.268 2.055.98 2.842.721 1.519-.508 2.889-1.507 4.278-2.377 2.102-1.322 2.87-4.624 6.185-3.505m771.652 236.995c.95 0 2.03.278 2.85-.046 6.79-2.673 14.09-2.09 20.68-.925 8.75 1.535 17.1.684 25.52-.509 3.76-.527 7.66-1.729 10.6-4.883 3.06-3.292 5.05-7.075 7.14-10.996 3.13-5.882 6.75-11.347 7.16-18.357.11-1.878 2.01-4.541 3.73-5.226 2.29-.915 4.64.666 5.65 3.33.08.185.3.333.46.471.47.398.94.777 1.41 1.175.19-.592.46-1.165.53-1.767.47-3.569.45-7.278 1.44-10.709 2.83-9.951 1.54-20.115.88-29.992-.58-8.712-2-17.562-3.67-26.246-.98-5.078-2.36-10.081-3.58-15.112-1.64-6.797-3.61-13.447-6.95-19.699-3.87-7.223-7.17-14.741-10.93-22.02-3.76-7.306-8.02-14.371-11.65-21.742-2.71-5.494-4.56-11.394-7.15-16.952-4.95-10.617-12.7-19.348-20.28-28.069-4.67-5.391-10.22-10.126-15.85-14.566-7.15-5.641-14.74-10.469-23.58-13.604-11.69-4.143-23.57-7.445-35.57-10.339-7.53-1.822-15.22-3.228-22.92-3.958-9.97-.935-20-1.009-30.01-1.443-.45-.019-.91.092-1.33-.019-8.8-2.275-17.77-2.802-26.81-2.663-6.21.092-12.45-.426-18.59.148-5.89.545-11.68-2.913-17.53-.148-.36.166-1.01.203-1.3 0-2.92-2.183-6.28-1.267-9.43-1.239-6.11.037-12.22.591-18.33.591-5.93 0-11.87-.277-17.79-.702-3.21-.232-6.32 1.054-9.56.111-2.48-.722-3.29.444-3.26 3.107.12 13.188.14 26.32-2.42 39.425-1.76 8.98-2.09 18.256-2.79 27.412-.64 8.434-1.27 16.887-1.26 25.34 0 6.048-.02 12.171-.44 18.126-.3 4.199-.84 8.481-1 12.754-.1 2.293.88 3.634 3.25 3.912 3.58.416 7.15 1.063 10.75 1.285 8.88.555 17.79.925 26.69 1.36.87.046 1.78-.074 2.61.129 5.16 1.258 7.7.629 9.8-3.801 5.4-11.394 11.77-22.205 18.54-32.831 4.87-7.63 8.86-15.805 13.48-23.611 3.16-5.364 6.82-10.441 10.03-15.786.75-1.249 2.09-2.451.71-4.717-2.11-3.431-1.49-5.53 2.17-6.853 3.72-1.341 6.8-3.126 9.6-5.872.96-.935 3.72-1.351 4.73-.657 4.02 2.747 5.18.12 6.52-2.812 1.49-3.236 2.31-5.974-.42-9.442-3.07-3.884-1.23-6.908 3.82-7.953 1.4-.287 2.79-.759 4.1-1.323 3.55-1.517 7.68-.065 7.73 3.505.08 6.761 4.32 11.533 6.68 17.211 1.55 3.727 3.82 4.596 7.45 4.615 3.59.018 7.23.555 10.73 1.369 1.25.286 2.55 1.923 3.03 3.237.28.739-.82 2.395-1.73 3.088-4.03 3.117-4.09 3.737-1.81 7.815 3.6 6.455 8.19 12.716 10.07 19.68 2.86 10.599 10.06 18.848 13.64 28.92.33.943 1.49 1.572 2.16 2.423 3.27 4.171 6.98 8.092 9.65 12.614 5.22 8.841 9.82 18.053 14.73 27.079 2.95 5.429 5.89 10.857 9.02 16.175 3.48 5.882 7.84 11.348 10.61 17.535 3 6.705 7.14 12.596 11.07 18.626 5.71 8.758 10.02 18.468 17.71 25.922 1.86 1.795.76 6.178-1.41 6.53-2.37.388-5.04.61-7.23-.121-1.22-.397-1.72-2.904-2.57-4.448-.4-.721-.79-1.48-1.33-2.099-2.88-3.311-3.79-9.082-10.29-8-.82.139-2.87-1.739-2.85-2.645.13-5.614-4.57-8.777-6.51-13.299-.72-1.674-3.73-3.977-4.84-3.579-4.53 1.618-6.25-.647-7.95-4.069-4.47-8.999-9.14-17.831-11.89-27.634-1.64-5.836-5.01-11.181-7.49-16.795-4.47-10.099-8.61-20.355-13.4-30.297-3.03-6.298-6.82-12.272-10.58-18.191-4.15-6.52-9.04-12.578-12.88-19.264-3.5-6.095-9.54-9.683-13.53-15.417-2.7-3.903-8.63-5.512-12.54-9.017-.51-.462-1.66-.259-2.51-.305-6.4-.324-10.98 2.645-14.33 7.889-4.36 6.825-8.78 13.613-13.08 20.484-1.86 2.969-3.87 5.928-5.12 9.165-3.63 9.397-9.16 17.6-15.05 25.655-3.17 4.328-5.73 9.119-8.49 13.734-.39.638-.42 1.498-.62 2.247.82.166 1.74.647 2.44.425 1.91-.601 3.67-2.589 5.7-.268 1.13-1.119 3.59-.259 3.75-3.024.15-2.423.66-5.114 1.91-7.121 3.63-5.836 8.37-10.571 14.71-13.715 2.09-1.036 3.4-1.656 5.08.157 2.46 2.645 4.69 2.016 7.9.629 5.07-2.183 10.65-3.875 16.11-4.19 3.83-.222 7.9 1.97 11.71 3.487 3.99 1.591 7.84 3.551 11.65 5.549 4.27 2.238 4.79 3.829 2.56 8.046-1.54 2.922-3.16 5.946-5.34 8.379-4.41 4.892-8.45 11.162-14.07 13.715-11.07 5.031-23.05 8.61-35.61 6.917-6.56-.878-12.72-3.107-15.38-10.191-1.09-2.923-2.88-4.596-6.26-4.393-1.15.065-2.35-.99-3.52-.999-2.5-.018-6.05-.638-7.3.712-2.88 3.117-4.9 7.14-6.8 11.024-3.79 7.713-7.28 15.574-10.87 23.389-.39.86-.6 1.822-.88 2.728.91-.203 1.82-.545 2.74-.573 1.19-.037 2.39.166 3.6.268-.45.916-.67 2.053-1.36 2.7a359.082 359.082 0 0 1-11.67 10.321c-.72.611-1.97 1.027-2.9.898-3.95-.518-6.52.887-7.99 4.679-1.11 2.858-2.48 5.632-4 8.296-1.44 2.534-3.04 5.04-4.98 7.186-.72.804-2.92 1.183-3.92.693-4.5-2.229-5.6-6.584-3-10.829.99-1.61 2-3.256 3.32-4.588 1.89-1.914 3.09-3.505.84-6.094-.48-.555.6-2.654 1.19-3.94 2.69-5.965 8.46-10.561 7.98-17.969-.04-.509.59-1.064.93-1.582 4.99-7.676 9.98-15.342 14.98-23.009 3.53-5.438 2.84-7.168-3.61-8.499-1.49-.305-3.09-.046-4.64-.046-2.88 0-5.79.277-8.63-.056-8.62-1.017-17.21-2.275-25.82-3.366-.33-.047-1.09.693-1.12 1.1-.51 8.222-1.29 16.444-1.28 24.674 0 8.444.88 16.888 1.21 25.341.24 6.159-.13 12.226 2.41 18.265 1.01 2.386 2.12 7.065-1.3 9.072-3.66 2.146-6.21-1.165-8.59-3.551-4.866-4.846-9.514-9.933-14.653-14.455-2.907-2.552-5.148-6.696-9.741-6.483-3.37.157-5.138-1.396-6.675-4.014-.852-1.452-2.01-2.802-3.25-3.958-2.815-2.617-6.028-4.846-8.621-7.648-6.314-6.825-12.148-14.104-18.592-20.79-6.861-7.131-13.5-14.372-18.796-22.779-.593-.943-2.01-1.757-3.13-1.895-4.889-.62-9.805-1.212-14.731-1.36-18.426-.555-36.852-.934-55.278-1.369-1.537-.037-3.546.537-4.518-.212-2.88-2.238-5.954-.694-8.889-1.064-2.824-.351-4.018 1.415-3.694 4.023 1.314 10.7-1.917 21.336-.324 32.138.389 2.654.842 5.798.416 8.832-.49 3.468-.277 7.075-.055 10.598.157 2.488.537 5.05 1.342 7.399 1.148 3.311.556 6.52-2.148 7.241-1.639.444-3.611.379-5.222-.12-.63-.194-.778-2.22-.972-3.431-.408-2.507-1.556-5.3-.871-7.491 2.01-6.419 1.25-12.596-.166-18.867-.139-.601-.371-1.174-.556-1.757-.259.712-.722 1.415-.731 2.127-.074 3.542.037 7.084-.056 10.617-.092 3.478-2.796 5.984-6.157 5.716-3.454-.287-3.148-2.914-3.13-5.327.019-3.32-.139-6.65.037-9.961.343-6.677.037-13.548 1.547-19.976 1.324-5.632 2.833-11.061 2.444-16.887-.019-.324.472-.666.694-1.027 1.732-2.839-.657-3.588-2.398-3.828-5.102-.685-10.25-1.119-15.388-1.369-4.417-.213-8.889.296-13.287-.12-8.741-.823-16.528 0-20.704 9.211-.083.185-.306.314-.463.471-11.111 11.542-24.398 20.041-38.324 27.773-8.638 4.79-16.509 3.301-24.027-1.822-11.158-7.602-19.278-17.988-25.796-29.668-3.408-6.113-6.232-7.186-13.176-5.392-2.111.546-4.463.157-6.704.129-.759-.009-1.537-.416-2.268-.332-6.102.739-12.176 1.766-18.296 2.275-4.399.37-8.871-.185-13.278.129-5.972.435-7.009 2.035-6.056 7.935.176 1.082.028 2.21.028 3.311 0 2.654-.407 5.392.121 7.944.49 2.405.018 5.161-.491 6.77-1.056 3.338 1.333 6.131.315 8.952-2.871 7.917-.584 16.037-1.121 24.045-.074 1.055 1.806 3.117 2.954 3.247 9.574 1.128 19.176 2.404 28.796 2.672 15.278.426 30.565.111 45.851.111 1.547 0 3.269-.444 4.621.074 6.148 2.368 11.926 1.563 17.796-1.054 1.611-.721 4.694-.925 5.583.028 3.602 3.902 8.028 3.542 12.556 3.653 4.148.102 5.796 2.071 5.314 5.771-.425 3.301-3.759 5.586-7.101 4.781-1.186-.287-2.278-1.193-3.445-1.249-10-.536-20.009-1.091-30.018-1.304-4.278-.092-8.546-1.96-12.88-.138-.601.249-1.555-.407-2.361-.574-1.231-.259-2.722-1.017-3.657-.601-5.481 2.451-11.204.712-16.768 1.221-5.352.49-10.732.721-16.056 1.396-3.491.444-6.889 1.573-10.361 2.211-3.731.684-7.537.989-11.25 1.766-3.009.629-6.333 1.101-8.787 2.747-3.99 2.682-7.435 5.789-12.574 2.617-.472-.287-1.787.786-2.713 1.23-4.953 2.386-9.944 1.239-14.824-.102-1.509-.416-3.444-1.886-3.759-3.209-.259-1.109 1.334-2.978 2.547-3.986.74-.61 2.842-.758 3.416-.194 1.722 1.702 2.509.296 3.833-.425 5.732-3.098 7.028-5.938 4.269-11.496-1.593-3.2-2.046-5.401 1.759-7.269 1.185-.583 2.158-2.497 2.398-3.94.695-4.198 1.047-8.462 1.408-12.716.509-6.011.898-12.023 1.352-18.034.046-.638.111-1.276.203-1.905.815-5.642 1.898-11.255 2.361-16.915.343-4.18-.472-4.883-4.916-4.735-6.695.231-13.621-.13-19.991 1.507-8.5 2.183-17.222-.434-25.583 2.312-2.194.722-4.935-.314-7.241.232-3.546.841-1.685 4.494-2.713 6.76-6.879 15.158-15.759 28.993-26.972 41.256-7.537 8.24-16.87 14.4-25.87 20.901-12.296 8.888-26.074 15.029-40.314 19.727-13.204 4.356-26.824 7.713-41.055 6.88-5.519-.323-11.26.86-16.574-.24-12.13-2.516-24.306-5.281-36-9.295-14-4.809-26.768-11.837-32.185-27.236-.509-1.452-2.213-3.014-4.074-.739-.528.647-1.241 1.322-2 1.544-.759.222-1.944.167-2.444-.296-.482-.453-.667-1.72-.389-2.386.685-1.702 1.676-3.292 2.602-4.892 2.342-4.032 2.62-7.547-.908-11.45-1.972-2.173-2.861-5.558-1.102-8.887.648-1.23.797-2.932.621-4.356-1.278-10.358 2.648-19.652 7.222-28.207 5.139-9.618 9.139-19.736 13.759-29.539 4.778-10.145 11.055-18.894 18.537-26.764 8.796-9.248 18.879-17.008 29.898-23.787 12.12-7.463 24.935-12.577 38.592-16.008 2.222-.555 4.556-1.443 6.75-1.24 5.204.491 10.296-1.461 15.555-.222 2.121.5 4.028-.795 5.408-2.959 1.824-2.858 4.157-5.401 6.37-8 2.731-3.218 5.37-4.078 8.204-2.848 4.268 1.859 5.129 6.15 2.416 10.894-.639 1.119-.527 2.673-.759 4.033 1.482.046 3.046.397 4.435.046.926-.231 1.519-1.554 2.389-2.229 3.019-2.312 6.093-4.532 9.13-6.816 1.426-1.073 2.629-2.146 4.296-.092 1.268 1.562 2.805 2.774 1.704 5.049-.806 1.655-1.584 3.329-2.362 4.994-.425.906-.842 1.822-1.259 2.738 1.25.194 2.537.675 3.732.499.935-.139 1.833-.98 2.592-1.683 1.778-1.656 3.241-3.783 5.259-5.022 1.408-.869 3.519-.583 5.324-.814-.231 1.859 3.278 3.237.519 5.558-.954.805-1.093 2.59-1.537 3.959-.343 1.054-1.12 2.423-.741 3.172.871 1.738 2.871 2.432 4.352 1.11 1.778-1.582 2.926-.879 3.704.545 2.639 4.874 7.342 7.242 11.537 10.349 2.574 1.905 4.027 3.283 7.713 1.739 4.49-1.878 6.925.379 6.601 4.818-.148 2.053-1.62 4.319-1.064 6.02.611 1.878 3.074 3.071 4.314 4.856 1.028 1.47 1.482 3.357 2.102 5.086.352.971.389 2.063.806 2.987 5.305 11.801 9.509 23.731 5.935 36.993-.556 2.063-.121 4.412-.019 6.613.01.277.834.749 1.269.74 7.963-.139 15.852-2.544 23.889-.666 1.259.296 2.759.379 3.962-.019 7.01-2.302 14.389-1.294 21.547-2.395 3.157-.49 4.018-.934 3.842-4.097-.611-11.31-1.009-22.64-1.352-33.969-.074-2.386.834-4.818.648-7.176-.5-6.585-1.712-13.133-1.916-19.717a89.62 89.62 0 0 0-2.732-19.486c-.824-3.237-1.12-6.604-1.898-9.85-.565-2.358.806-3.819 2.222-4.985.686-.573 2.38-.24 3.491.093 1.296.379 2.472 1.202 3.695 1.831-.297-1.304-.584-2.617-.899-3.912a304.269 304.269 0 0 0-1.055-4.208c-.528-2.044 1.12-6.03 2.713-5.762 1.778.296 4.037 1.591 4.824 3.108 1.111 2.127 1.379 4.846 1.435 7.334.167 7.519.065 15.047.065 22.565 0 7.519.407 15.075-.121 22.566-.5 7.195 1.926 14.279.176 21.493-1.185 4.864-.046 10.006.361 14.779.445 5.123.713 10.274.843 15.416.056 2.09.713 2.747 2.648 2.46 3.139-.453 6.269-1.156 9.417-1.285 13.102-.555 26.213-.934 39.324-1.369.444-.018.916.093 1.324-.018 2.231-.611 3.648-.916 2.407-4.292-4.083-11.162-5.954-22.824-5.88-34.754.028-4.643-.166-9.304.056-13.937.194-4.107.898-8.194 1.268-12.291.926-10.247 1.843-20.504 2.63-30.769.222-2.913 1.759-3.709 4.324-3.524 2.454.167 5.926-.962 6.25 2.802.667 7.63 3.157 14.983 2.88 22.797-.195 5.549-.084 11.376 1.398 16.647 2.379 8.49 2.963 17.257 4.713 25.821 1.879 9.202 5.333 17.858 7.268 26.968.482 2.275 2.102 3.422 5.121 3.357a914.326 914.326 0 0 1 41.203 0c3.241.074 5.037-1.415 6.537-3.477 1.287-1.776 2.046-4.014 2.741-6.141 3.814-11.616 5.638-23.602 6.694-35.744.37-4.236.805-8.472 1.481-12.661 1.38-8.509 3.519-16.795 1.324-25.673-2.111-8.518.584-9.979 7.093-9.424 5.037.425 6.861 3.116 5.176 8.212-.648 1.952-1.574 3.903-1.732 5.901-.611 7.546-.805 15.13-1.453 22.676-.361 4.171-1.435 8.277-1.963 12.439-1.047 8.277-5.5 15.648-6.065 24.092-.278 4.097-1.435 8.194-2.602 12.17-1.889 6.437-1.972 6.234 4.046 8.268 2.843.962 5.139.87 6.797-1.637 3.092-4.67 6.629-9.192 8.805-14.27 3.296-7.703 5.732-15.786 8.241-23.795.991-3.173.083-7.704 2.018-9.656 3.88-3.93.13-9.118 3.371-12.679-2.778-6.751-.593-13.817-1.371-20.688-.305-2.682-1.102-5.299-1.583-7.963-.417-2.284-1.519-4.911-.769-6.77.584-1.451 3.482-2.432 5.463-2.682 1.065-.129 3.491 1.869 3.389 2.664-.629 4.994 3.63 9.914.185 14.853.389 9.054-1.138 17.913-2.666 26.782-.926 5.364-1.121 11.006-2.982 16.037-4.333 11.68-9.444 23.083-14.314 34.56-1.917 4.514-1.315 5.642 3.463 5.818.444.018.888-.019 1.333 0 10 .545 20.046-.999 30.046 1.193 4.824 1.054 4.824.425 5.093-4.467.268-4.92.638-9.84 1.333-14.714 1.676-11.755 2.676-23.546 2.62-35.421-.055-10.238.38-20.475-1.25-30.658-.565-3.523.158-7.084-2.055-10.496-.982-1.517-.565-4.708.398-6.511 1.379-2.599 3.657-.768 5.49.176 1.463.749 3.139 1.276 4.325 2.339 2.351 2.146 4.981 3.468 8.092 2.914 6.352-1.129 10.713 1.202 14.685 6.242 4.972 6.298 12.417 9.988 17.778 16.268 8.296 9.71 15.694 20.078 22.768 30.556 9.259 13.724 19.305 26.607 31.037 38.232 1.481 1.47 2.278 3.671 3.852 4.975 2.583 2.137 3.824 6.086 8.111 6.021 9.694-.139 19.231 1.397 28.824 2.516 7.731.897 15.601-.481 23.388 1.322 3.556.823 4.704-.564 4.667-4.273-.158-15.629 1.37-31.148 2.481-46.712 1.343-18.783 1.102-37.678 1.537-56.525.028-1.323-.12-2.673.047-3.977.129-.999.907-1.933.916-2.913.047-3.616 4.16-1.341 5.06-3.616 1.1 1.535 2.64 2.94 3.16 4.651.56 1.822.61 4.097.04 5.91-2.03 6.4-.94 12.929-1.24 19.394-.02.443.12.924-.02 1.322-3.03 8.721-.97 17.868-2.31 26.838-1.77 11.792-1.22 23.926-1.65 35.911-.03.666.19 1.406-.04 1.979-2.981 7.658-.47 15.602-1.26 23.361-.04.38.54.814.83 1.23.31-.314.73-.573.91-.952.36-.731.78-1.508.84-2.294.5-5.789.98-11.579 1.35-17.368.34-5.355.32-10.682 1.07-16.083 1.12-8.101.23-16.415 1.46-24.655 1.15-7.676-.13-15.51 1.23-23.371 1.26-7.38.26-15.083 1.4-22.667.89-5.836.21-11.921.17-17.895-.03-5.882-.06-5.817-5.83-5.965-15.994-.407-31.984-.87-47.966-1.314-.666-.018-1.426.213-1.981-.037-6.482-2.848-13.481-1.1-20.241-2.312-10.009-1.785-20.37-.286-30.666-1.313-12.852-1.276-25.852-1.443-38.75-2.913-6.426-.731-12.907-.398-19.416-1.101-9.787-1.054-19.63-2.099-29.454-2.774-16.388-1.119-32.851-1.073-49.286-1.508-1.769-.046-3.834.583-5.269-.111-4.852-2.376-9.879-.786-14.796-1.128-1.768-.12-4.343 1.767-5.287 1.054-2.731-2.053-5.537-1.063-8.231-1.082-24.593-.111-49.185-.018-73.768-.129-2.463-.009-4.88.453-7.565-.999-2.093-1.128-5.472.083-8.268.287-3.213.24-6.75 1.461-9.556.518-3.037-1.027-5.898-1.036-8.842-1.036-16.445.018-32.889-.462-49.306 1.23-4.25.435-8.527-.444-12.861-.037-4.611.435-9.296.092-13.944.102-1.546 0-3.204-.352-4.63.064a67.033 67.033 0 0 1-16.861 2.636c-8.907.25-17.805.759-26.694 1.313-4.037.25-8.277.185-12.027 1.452-5.787 1.952-11.76 1.129-17.593 2.322-6.074 1.239-12.574.453-18.639 1.729-3.87.814-7.666.647-11.444 1.175-7.898 1.1-15.759 2.506-23.611 3.939-6.565 1.203-13.176 2.294-19.602 4.042-8.518 2.321-16.944 5.012-25.277 7.953-6.556 2.312-12.972 5.068-19.296 7.945-7.278 3.31-14.583 6.64-21.519 10.589-7.046 4.013-13.398 9.248-20.49 13.16-11.991 6.622-20.389 16.684-28.287 27.402-5.194 7.048-10.518 13.863-14.296 21.965-2.88 6.178-5.704 12.032-5.528 18.968.065 2.654.13 5.318-.074 7.963-.055.684-1.102 1.285-1.694 1.923-.297-.619-.686-1.211-.861-1.859-.5-1.794-.889-3.616-1.352-5.419-.158-.592-.398-1.165-.602-1.739-.472.435-1.176.777-1.37 1.314-.76 2.127-1.473 4.282-1.991 6.473-1.722 7.325-3.028 14.742-4.435 22.131-1.843 9.637-3.287 19.237-3.473 29.003-.083 4.457.825 8.924 1.232 13.391.472 5.124.12 10.497 1.592 15.297 1.065 3.459.204 6.89 1.288 10.062a190.453 190.453 0 0 0 17.74 37.807c3.639 5.955 7.269 12.041 9.824 18.496 4.898 12.383 13.056 18.561 26.213 18.57 6.648 0 13.398-.749 19.916.167 10.917 1.526 21.806 2.608 32.815 2.478 6.268-.074 12.463-.212 18.75-1.109 8.777-1.249 17.74-.195 26.703-1.258 11.213-1.332 22.63-.379 34-1.387 14.805-1.323 29.74-1.101 44.62-1.536.667-.018 1.417.204 1.981-.037 8.25-3.375 17.25.629 25.5-2.626 5.176 2.053 10.241.814 15.537.213 8.38-.962 16.88-.491 25.37-1.314 14.796-1.442 29.722.528 44.648-1.35 12.315-1.544 24.833-.296 37.333-1.221 21.222-1.572 42.592-1.1 63.888-1.683 8.463-.231 16.871.213 25.408-.999 10.287-1.452 20.842-.351 31.333-1.387 15.453-1.535 31.036-.037 46.638-1.221 20.398-1.544 40.963-.175 61.472-1.405 12.139-.731 24.472-1.397 36.685.934 2.944.564 6.24-1.008 9.389-1.11 4.712-.157 9.379.435 14.092 1.045 8.583 1.11 17.333.74 26.018 1.249 22.361 1.322 44.805 1.174 67.224 1.627 2.85.056 5.69.204 8.54.204 2.55 0 5.11-.315 7.63-.148 2.28.148 4.79-1.027 6.86 1.183.41.435 2-.323 3.04-.351 7.46-.24 14.91-.527 22.37-.592 2.07-.018 4.12.934 6.2.999 26.83.832 53.66-.758 80.54 1.119 23.44 1.637 47.03 1.174 70.55 1.554 8.64.138 17.28.018 27.25.018M837.569 330.615c-.315 1.637-.676 3.274-.926 4.92-1.12 7.232-2.342 14.483-1.648 21.835.102 1.082 1.269 2.063 1.944 3.089 3.408-3.699 6.695.573 10.223.278 9.018-.74 18.129-.25 27.212-.25 2.436 0 4.991-.472 7.287.092 7.084 1.73 14.222 2.608 21.5 2.571 3.759-.018 7.528-.064 11.287.037.88.028 1.741.583 2.611.897-.129-1.193.13-2.645-.454-3.551-2.731-4.208-5.518-8.407-8.611-12.365-7.148-9.146-11.953-20.022-20.851-27.911a37.037 37.037 0 0 1-6.954-8.37c-5.055-8.351-11.287-15.648-18.481-22.177-1.065-.962-2.352-1.748-3.667-2.34-3.87-1.738-8.166-2.987-7.426-8.711.065-.5-1.157-1.175-1.787-1.767-.203.796-.528 1.591-.592 2.405-.176 2.164.055 4.393-.399 6.492-1.527 7.084-3.611 14.057-4.851 21.178-1.315 7.584-2.898 15.056-5.408 23.657m-409.431 71.683c-1.093 1.535-2.028 3.228-3.315 4.578-3.306 3.431-6.445 6.761-6.121 12.134.084 1.378-1.324 2.978-2.314 4.272-6.047 7.908-12.222 15.713-18.232 23.648-.953 1.258-2.12 3.32-1.685 4.402.435 1.092 2.732 1.48 4.259 2.063 1.343.518 2.732 1.211 4.111 1.22 2.084.019 4.889.259 6.112-.915 3.018-2.904 5.37-6.511 7.879-9.914 4.972-6.77 9.852-13.604 14.796-20.393 4.824-6.631 9.482-13.391 14.593-19.8 6.676-8.37 13.666-16.49 20.629-24.628 2.13-2.479 4.806-4.495 6.898-7.01 8.065-9.665 15.861-19.56 24.019-29.151 5.074-5.965 10.675-11.477 15.833-17.368.926-1.054 1.704-3.459 1.148-4.374-2.315-3.755-5.194-7.158-7.824-10.719-1.556-2.108-2.667-1.785-4.694-.12-6.306 5.151-10.26 12.328-16.139 17.868-4.621 4.365-8.278 9.756-12.324 14.723-1.324 1.627-2.454 3.431-3.778 5.059a5138.528 5138.528 0 0 1-17.824 21.798c-2.444 2.977-4.991 5.872-7.379 8.887-2.611 3.311-5.056 6.761-7.648 10.09-3.399 4.356-6.871 8.656-10.982 13.641m8.639-40.498c-4.222 4.661-8.556 9.23-12.639 14.011-3.296 3.866-6.324 7.963-9.407 12.004-4.102 5.364-8.454 10.571-12.111 16.222-3.472 5.354-7.62 10.293-10.056 16.369-1.213 3.024-3.601 5.586-5.518 8.314-3.259 4.624-6.657 9.156-9.769 13.882-.666 1.008-.787 3.699-.425 3.847 3.222 1.332 6.12 3.302 10.046 3.181 3.453-.101 3.139-3.051 4.676-4.457 2.24-2.035 3.527-5.087 5.296-7.658 4.037-5.854 8.074-11.699 12.203-17.488 3.537-4.966 7.102-9.905 10.797-14.751 3.99-5.235 8.527-10.09 12.175-15.537 8.047-12.032 17.695-22.769 26.769-33.969 5-6.168 10.37-12.041 15.435-18.154 7.889-9.526 15.565-19.218 23.518-28.688 3.5-4.171 3.556-6.492-1.028-9.257-2-1.203-4.037-2.368-6.481.545-5.593 6.668-11.815 12.818-17.704 19.246-3.796 4.143-7.416 8.443-11.212 12.577-2.075 2.257-5.334 3.94-6.334 6.548-1.731 4.522-5.305 7.158-8.157 10.562-3.269 3.893-6.287 7.99-10.074 12.66m29.24-70.369c-1.768 0-4.453.73-5.148-.13-2.352-2.941-3.861.194-5.62.435-1.046.139-1.944 1.692-2.833 2.673-7.834 8.693-15.722 17.331-23.454 26.117a268.282 268.282 0 0 0-12.111 14.769c-4.694 6.178-8.787 12.836-13.713 18.82-10.083 12.245-19.305 25.1-28.536 37.964-7.408 10.321-15.454 20.235-21.102 31.721-.583 1.193-1.259 3.163-.704 3.949 1.5 2.146 3.62 3.848 5.5 5.716 1.12-1.942 2.213-3.894 3.37-5.817a77.261 77.261 0 0 1 2.732-4.181c5.889-8.462 12.435-16.563 17.991-25.118 9.722-14.963 21.925-27.865 32.407-42.162 8.129-11.089 17.953-20.929 27.036-31.315 3.269-3.736 6.667-7.371 9.834-11.19 5.944-7.195 11.074-15.13 19.092-20.392.454-.296.685-.916 1.028-1.388-.602-.157-1.195-.388-1.796-.444-.88-.074-1.769-.018-3.982-.018m-63.138 88.293c-6.898 6.159-11.204 14.279-16.463 21.677-1.417 1.998.426 1.119.917 1.637.472.5.629 1.961.231 2.479-2.046 2.737-4.407 5.234-6.481 7.953a1541.199 1541.199 0 0 0-15.945 21.244c-1.62 2.201-1.472 4.522.76 6.27 1.648 1.295 5.018.49 6.287-1.434 4.944-7.444 9.601-15.093 14.787-22.362 8.666-12.161 17.592-24.128 26.555-36.068 1.842-2.451 4.546-4.236 6.472-6.631 4.361-5.429 8.333-11.181 12.759-16.563 3.843-4.689 8.176-8.971 12.13-13.568 7.268-8.452 14.37-17.044 21.62-25.506 3.657-4.273 7.518-8.37 11.231-12.596a176.98 176.98 0 0 0 6.556-7.889c1.518-1.942 2.176-3.329-1.176-4.68-3.111-1.248-5.157-1.211-7.352 1.258-7.778 8.731-15.787 17.267-23.398 26.136-8.546 9.969-18.009 19.06-26.129 29.501-7.435 9.563-15.074 19.043-23.37 29.151m571.597 30.537c.157.158.287.352.481.454.111.055.435-.028.445-.065.148-2.155.027-4.365.518-6.437.241-.999 1.611-2.377 2.491-2.395.889-.019 2.213 1.276 2.611 2.284.454 1.147.222 2.617.083 3.931-.657 6.27 2.074 11.024 6.37 15.296 2.732 2.719 5.037 5.845 7.556 8.777.426.49.935.915 1.398 1.369.213-.574.658-1.166.611-1.721-.379-4.245-.972-8.462-1.268-12.716-.537-7.768-.917-15.537-1.352-23.315-.028-.444.13-.934-.028-1.313-2.454-6.058-1.796-12.217-.278-18.265.63-2.516-.713-3.265-2.333-3.653-2.852-.685-5.796-1.166-8.731-1.36-8.658-.555-17.334-.851-25.991-1.396-5.555-.352-11.092-.953-16.639-1.471-.62-.055-1.231-.296-1.842-.444.166.592.166 1.332.528 1.758 5.12 6.076 10.157 12.226 15.499 18.098 4.158 4.578 8.871 8.647 13.037 13.216 2.371 2.608 4.13 5.771 6.824 9.35m-480.542 13.937c6.093-6.529 12.426-12.864 18.222-19.643 6.898-8.074 10.935-17.895 15.435-27.375.426-.897-.296-2.358-.546-3.542-.519-2.478-1.907-5.762.852-7.019 5.25-2.386 5.305-6.52 5.315-11.089 0-1.165.842-2.312 1.027-3.514.102-.685-.342-1.443-.537-2.174-.583.185-1.379.185-1.731.583-2.102 2.414-3.898 5.124-6.176 7.334-2.972 2.876-4.37 6.492-6.019 10.127-2.87 6.335-5.953 12.605-9.462 18.598-3.75 6.39-8.186 12.328-13.473 17.655-6.453 6.492-12.259 13.632-18.907 19.911-4.555 4.301-10.24 7.38-15.074 11.412-3.861 3.219-7.259 6.992-10.685 10.701-.463.499.176 2.006.315 3.042.907-.314 1.88-.508 2.722-.952 1.639-.86 3.111-2.137 4.833-2.747 12.556-4.513 23.26-11.967 33.898-21.289m17.945-69.704c5.824-5.142 11.62-10.294 9.296-19.338-.333-1.314-.75-2.599-1.13-3.894-1.463.731-3.25 1.156-4.333 2.266-2.843 2.913-5.38 6.132-8.037 9.23-7.667 8.971-15.231 18.034-23.009 26.903-5.306 6.048-11.5 11.412-16.222 17.867-4.861 6.641-12.537 11.662-13.315 20.957-.065.777-.435 1.646-.926 2.247-4.648 5.605-9.426 11.107-14.027 16.739a779.633 779.633 0 0 0-15.417 19.477c-.593.777-.176 2.34-.231 3.533 1.064-.444 2.462-.592 3.157-1.369 6.185-6.899 12.333-13.826 18.324-20.891 8.99-10.599 17.574-21.558 26.824-31.925 9.037-10.118 18.722-19.653 28.046-29.521 3.555-3.764 6.898-7.74 11-12.281m-130.268 5.308c-.315.315-.676.592-.935.944-6.741 9.368-13.518 18.709-20.129 28.17-.825 1.183-1.565 3.468-.991 4.393 1.583 2.506.379 3.782-1.065 5.604-4.055 5.123-7.694 10.58-11.861 15.602-2.278 2.737.241 3.486 1.407 4.624 2.797 2.747 1.852-1.286 2.149-1.674 5.842-7.676 11.333-15.62 17.073-23.38 6.908-9.331 14.037-18.505 20.973-27.809 8.546-11.477 16.907-23.102 25.527-34.514 2.982-3.949 6.583-7.436 9.796-11.218a2630.344 2630.344 0 0 0 20.639-24.628c.972-1.184 1.5-2.729 2.231-4.116-1.666.546-3.444.888-4.972 1.702-1.12.601-1.944 1.785-2.852 2.746-6.268 6.687-12.592 13.327-18.768 20.097a1941.37 1941.37 0 0 0-23 25.636c-4.963 5.632-9.722 11.44-15.24 17.84m-8.639-12.615c2.879-3.893 5.759-7.796 8.639-11.69 7.046-9.516 11.601-20.965 21.787-28.077.49-.342.444-1.461.648-2.211-.76-.018-1.704-.351-2.241-.018-5.111 3.209-10.593 6.011-15.13 9.914-10.629 9.137-18.296 20.855-26.314 32.193-5.306 7.51-10.509 15.093-15.546 22.778-2.593 3.959-4.815 8.167-6.991 12.375-.389.749.185 2.053.491 3.052.037.129 1.129 0 1.722-.111.926-.167 1.824-.426 2.741-.648l-.834 2.738c-.907 2.941-4.157 5.123-2.842 8.767.185.518.639.934.963 1.406.555-.453 1.305-.814 1.62-1.397.38-.703.157-1.748.583-2.395 4.334-6.631 8.778-13.179 13.111-19.81 5.686-8.702 11.287-17.451 17.593-26.847m116.98 86.304c-7.898 6.529-17.009 11.033-26.148 15.435-4.416 2.127-9.074 3.737-13.574 5.706-1.194.528-2.185 1.526-3.268 2.303 1.481.148 3.12.759 4.426.342 3.305-1.045 6.528-2.404 9.666-3.902 8.5-4.07 17.158-7.889 25.343-12.532 6.935-3.93 13.407-8.601 19.611-13.789 8.037-6.714 18.898-16.804 24.463-25.599 4.537-7.167 8.879-14.455 13.268-21.715 1.352-2.247 2.565-4.578 3.843-6.871-2.593-.157-5.223-.074-7.769-.518-4.778-.832-7.454 1.665-8.833 5.614-3.287 9.424-8.213 17.877-13.648 26.237-7.269 11.181-16.333 20.448-27.38 29.271m-126.943-55.101c5.167-7.371 10.065-14.955 15.574-22.057 5.278-6.798 11.231-13.059 16.824-19.616 7.37-8.619 14.435-17.516 22.092-25.867 4.834-5.272 10.519-9.766 15.787-14.649.509-.472.741-1.23 1.102-1.859-.63-.093-1.324-.407-1.87-.231-5.482 1.711-10.954 3.468-16.389 5.327-.556.194-.806 1.174-1.287 1.729-6.361 7.325-12.731 14.64-19.111 21.955-1.139 1.304-2.463 2.479-3.454 3.885-3.602 5.123-7.074 10.348-10.639 15.5-4.407 6.362-8.953 12.642-13.296 19.06-7.833 11.56-15.685 23.121-23.25 34.857-1.851 2.876-4.129 5.965-3.324 9.867.149.703.686 1.314 1.047 1.97.527-.49 1.277-.878 1.537-1.479 1.065-2.433 1.555-5.226 3.027-7.353 4.806-6.917 9.945-13.604 15.621-21.039m350.265-.666c1.695 1.248 3.278 2.691 5.102 3.69 2.102 1.147 4.176 1.923 6.778.37 5.565-3.348 10.463-7.399 14.852-12.143 1.768-1.915 3.703-3.69 5.518-5.558.537-.555 1.435-1.406 1.296-1.822-.24-.722-1.092-1.554-1.833-1.711-1.269-.278-2.639-.12-3.963-.074-11.75.434-23.5.869-35.259 1.332-2.398.092-3.407 1.757-2.028 3.68 2.824 3.949 5.898 7.732 9.528 12.245m-27.916-39.832c-.223-1.008-.436-2.025-.667-3.033-3.269-14.381-5.769-28.873-6.667-43.624a6.233 6.233 0 0 0-.62-2.386c-.278-.555-.898-.944-1.37-1.397-.223.574-.639 1.156-.621 1.72.593 16.37-1.648 32.859 1.417 49.108 1.055 5.586 3.352 10.95 5.25 16.351.583 1.683 8 2.784 8.916 1.434.13-.195-.638-.87-.74-1.369-1.158-5.447-4.463-10.33-4.889-16.804m-232.628 91.613c-3.12 3.56-6.278 7.102-9.342 10.709-.648.759-.982 1.785-1.417 2.71-.13.268-.204.842-.102.888.352.185.963.425 1.176.259 3.019-2.368 6.463-4.393 8.861-7.279 6.213-7.463 11.676-15.564 17.963-22.954 8.139-9.562 16.815-18.672 25.231-27.994 7.824-8.675 15.648-17.34 23.389-26.099.639-.73.565-2.09.824-3.153-.907.388-1.991.582-2.704 1.202-9.759 8.462-17.305 19.014-26.546 28.013-7.722 7.519-14.62 15.898-21.62 24.11-5.222 6.122-10.037 12.596-15.704 19.579m83.083-65.718c-.185 3.283 2.352 1.942 3.685 1.896 1.815-.065 3.584-1.027 5.408-1.184 4.314-.361 5.388-1.184 5.49-5.595.148-5.938.547-11.949-.12-17.822-.546-4.827-2.426-9.507-3.898-14.205-.259-.832-1.38-1.406-2.093-2.099-.463.906-.981 1.794-1.379 2.728-.232.555-.584 1.332-.371 1.757 2.139 4.254-.657 7.436-2.703 10.367-1.954 2.803-2.713 5.54-2.75 8.832-.047 4.68.916 9.489-1.278 15.315m-168.823-49.126c-4.055 4.495-8.157 8.952-12.157 13.502a68.918 68.918 0 0 0-5.074 6.511c-.574.842-.546 2.081-.796 3.144.907-.416 2.027-.619 2.694-1.276 5.028-4.901 9.88-9.988 14.972-14.815 2.935-2.775 6.213-5.179 9.361-7.723 3.63-2.922 7.528-5.549 10.861-8.767 4.028-3.903 7.426-8.462 11.482-12.328.842-.805 2.555-.841 1.49-2.303-.398-.545-2.453-.397-3.416.093-1.667.851-3.102 2.182-4.565 3.385-8.056 6.649-17.213 11.967-24.87 20.568m126.943 81.652c-9.222 10.09-18.454 20.171-27.611 30.325-.518.573-.342 1.776-.491 2.691.76-.185 1.713-.138 2.232-.601 5.028-4.467 10.129-8.869 14.907-13.585 3.676-3.635 6.926-7.704 10.361-11.579 8.056-9.1 14.593-19.246 20.5-29.816.352-.639.306-1.489.444-2.248-.629.352-1.435.564-1.842 1.082-5.972 7.667-11.898 15.371-18.5 23.74m338.969-115.51c.223 7.611.463 15.223.658 22.834.065 2.636-.037 5.281.065 7.916.018.389.768 1.018 1.203 1.036.454.019 1.287-.518 1.343-.906.537-3.542 1.157-7.093 1.342-10.663.38-7.565 2.149-14.853 3.963-22.14 1.38-5.54-.351-7.334-6.25-7.473-3.018-.074-3.148 1.239-3.009 3.459.111 1.757.019 3.523.685 5.946m266.525 44.475c3.45-5.651 6.96-11.255 10.28-16.989.9-1.563 1.19-3.486 1.62-5.281.05-.212-.83-.767-1.33-.924-.29-.093-.9.194-1.08.48-4.1 6.696-8.16 13.42-12.23 20.143-4.7 7.787-9.43 15.546-14.07 23.37-3.05 5.133-5.98 10.349-8.92 15.547-.38.675-.51 1.498-.75 2.256.79-.407 1.73-.647 2.32-1.248 5.94-6.049 9.32-13.752 13.56-20.901 3.18-5.346 6.62-10.534 10.6-16.453m208.04 194.509c-.32.314-.6.86-.95.897-6.47.767-12.53 4.069-19.28 3.098-.64-.093-1.46-.25-1.95.037-.88.499-1.57 1.322-2.34 2.016.84.638 1.66 1.785 2.52 1.831 3.96.194 7.98.416 11.91.019 8.15-.833 14.5-5.475 19.77-11.209 2.83-3.071 4.27-7.427 6.19-11.274.77-1.563 1.18-3.311 1.77-4.975-1.24 1.239-2.64 2.339-3.65 3.736-3.98 5.475-6.34 12.226-13.99 15.824M688.681 369.115c3.936 6.234 10.102 10.035 15.787 14.354.63.481 1.778.277 2.695.388-.222-.749-.204-1.794-.704-2.21-3.685-3.052-6.102-7.01-8.389-11.098-1.305-2.331-3.129-4.467-3.981-6.936-1.509-4.412-4.676-2.211-6.778-1.637-3.815 1.045 1.167 2.83.111 4.439-.083.129.815.906 1.259 2.719m-248.572-82.337c3.213-2.765 6.426-5.53 9.63-8.305.333-.287.62-.62.935-.925-.518-.24-1.018-.647-1.546-.703-6.704-.638-13.046-.471-17.287 6.132-1.278 1.988-3.361 3.45-5.055 5.17-.426.434-.788.925-1.186 1.396.806.185 1.667.657 2.398.509 3.834-.786 7.63-1.72 12.111-3.274Zm-38.546 10.626-.935.934c.908.352 2.278 1.277 2.648.971 4.88-3.939 11.584-5.243 15.352-10.866 1.537-2.294 3.926-4.005 5.88-6.039.315-.324.361-.916.528-1.378-.778-.259-1.667-.897-2.315-.703-3.111.925-6.232 1.923-9.213 3.19-1.871.796-5.074 2.238-5 3.191.37 5.142-3.796 6.982-6.963 10.691m-57.824-41.82c-2.092 1.331-4.185 2.663-6.287 3.976-3.851 2.414-7.731 4.782-11.537 7.251-.509.333-.666 1.202-.99 1.831.75-.166 1.574-.194 2.25-.527 9.342-4.596 18.592-9.396 28.027-13.808 7.195-3.366 14.611-6.242 21.926-9.359.537-.231.991-.675 1.481-1.017-.62-.453-1.305-1.36-1.861-1.286-1.824.241-3.694.62-5.37 1.341-8.796 3.801-17.537 7.723-27.62 11.598m82.416 207.123c4.491-.888 8.981-1.739 13.453-2.692.667-.138 1.223-.776 1.834-1.174-.75-.481-1.454-1.091-2.269-1.397-.574-.222-1.361-.203-1.963-.018-6.555 1.998-13.379 1.961-20.101 2.543-2.945.259-5.973-.582-8.963-.592-2.824 0-5.648.389-8.463.703-.658.074-1.278.537-1.917.823.63.601 1.176 1.508 1.926 1.73 1.019.296 2.185.074 3.287.074h23.176m-88.398-32.526c.778.545 1.936 1.748 2.287 1.544 3.713-2.145 4.843-6.871 3.102-10.83-1.481-3.366-5.046-5.724-4.777-9.96.027-.388-.871-.841-1.343-1.267-.204.583-.259 1.276-.63 1.711-.861 1.027-.129 2.146-.222 2.858-.555 4.078 4.065 4.864 4.667 8.175.203 1.091.657 1.776-.371 2.312-.435.231-1.398 0-1.814-.36-1.639-1.471-3.093-3.145-4.75-4.606-.547-.481-1.473-.527-2.232-.768.25.62.796 1.304.695 1.859-.76 4.199 4.277 5.179 5.388 9.322m21.935 12.615c-.444 0-.935-.139-1.314.018-4.491 1.85-4.38 1.85-4.723-2.441-.148-1.822-.657-3.662-1.333-5.364-.648-1.646-1.333-4.18-3.916-2.109-1.769 1.415-4.158 3.08-2.047 5.836 3.963 5.161 9.204 8.629 15.361 10.626 1.093.352 2.491-.24 3.741-.397-.491-1.064-.75-2.35-1.519-3.126-.981-.999-2.379-1.6-4.259-3.043m151.545-140.73c-1.213 2.358-1.129 4.42.991 6.344 3.157 2.876 5.75 6.141 6.657 10.506.13.629 1.232 1.545 1.797 1.489 1.713-.157 3.953-7.528 2.537-8.906-3.399-3.302-7.093-6.307-11.991-9.433m-158.184 42.486c1.25-1.692 2.602-3.32 3.704-5.105.444-.721.315-1.794.444-2.7-.907.36-2.166.462-2.676 1.128-3.694 4.837-7.546 9.609-10.74 14.769-2.454 3.968-4.074 8.453-5.963 12.754-.176.407.222 1.405.629 1.618.408.213 1.445 0 1.704-.379.676-.999 1.083-2.183 1.611-3.292 2.991-6.363 6.13-12.652 11.296-18.793m378.182 41.821c1.5-.222 3.25-.019 4.445-.74 5.148-3.08 10.129-6.474 11.426-12.911.268-1.322-.13-3.93-.723-4.087-2.713-.722-1.518 1.692-1.907 2.922-.176.564-.759 1.045-1.241 1.47-3.407 2.988-6.898 5.882-10.213 8.971-1.055.99-1.657 2.46-1.805 4.375m35.222-21.909c.157-.158.453-.324.444-.463-.491-5.04-5.944 0-7.194-3.523-.63.379-1.639.619-1.824 1.146a250.548 250.548 0 0 0-4 12.125c-.213.712.241 1.618.389 2.432.907-.305 2.092-.351 2.666-.971 3.037-3.283 5.926-6.714 9.528-10.756m364.23 13.281c-2.49.888-5.08 1.59-7.44 2.765-.73.37-.82 2.025-1.21 3.089.72.203 1.55.74 2.16.564 5.48-1.618 10.94-3.302 16.36-5.142.96-.324 1.65-1.461 2.47-2.22-.86-.564-1.8-1.71-2.58-1.609-3.07.416-6.07 1.23-9.76 2.553m-604.154-48.452c-2.065-2.201.287-3.477 1.093-5.058.342-.666.842-1.258 1.268-1.878-1.037-.092-2.565-.666-3.028-.194-1.777 1.803-5.277 3.218-2.398 6.807.454.564.176 1.664.426 2.45.815 2.627 1.713 5.216 2.584 7.824 1.629-2.275 3.314-4.503 4.861-6.825 1.139-1.701.889-3.56-.936-4.346-.666-.287-2.12 1.202-3.87 1.22m1.333-27.883c-2.518-2.432-4.898-5.05-7.648-7.167-.648-.5-2.231-2.396-4.129.046-1.917 2.469-.222 3.838.648 5.105 1 1.452 3.241 2.007 4.407 3.394 2.88 3.431 2.75 3.524 5.121.231.25-.351.611-.629 1.592-1.6m95.046 137.419c5.527-.443 11.046-.887 16.574-1.322.222-.018.583.074.639-.018.287-.518.62-1.073.694-1.637.037-.306-.38-.916-.657-.953-.862-.129-1.75-.102-2.63-.037-5.528.425-11.046.869-16.574 1.323-1.157.092-3.056-.565-2.556 1.599.13.565 2.065.713 4.51 1.055M383.61 454.772c-3.185-1.331-6.296-2.885-9.583-3.856-1.074-.315-2.611.897-3.926 1.415.907.814 1.741 1.72 2.731 2.404.648.444 1.491.666 2.278.824 3.472.656 6.944 1.304 10.435 1.784.38.056.917-1.008 1.38-1.544-.667-.342-1.334-.684-3.324-1.027m336.978-63.063c-2.981-.222-5.963-.481-8.953-.629-.547-.028-1.111.416-1.667.638.463.462.88.999 1.407 1.387 4.213 3.071 9.084 1.591 13.695 1.924-.084-.583 0-1.554-.269-1.674-1.12-.472-2.352-.675-4.213-1.646ZM485.961 283.495c-.954 2.164-1.833 4.255 2.037 3.996 1.305-.084 2.639.074 3.935-.065.472-.046.898-.638 1.343-.98-1.713-1.665.722-4.07-.51-5.142-.879-.759-3.129-.074-4.731.194-.528.083-.935.869-2.065 1.997m-40.546 163.971c-4.102-2.219-6.287 1.979-9.453 2.904-.547.157-.797 1.36-1.186 2.072.899.333 1.787.952 2.686.952 3.481 0 5.759-2.275 7.953-5.928Zm58.49-151.356c-1.944-1.054-3.861-2.164-5.842-3.126-.463-.222-1.63-.046-1.667.102-.139.703-.24 1.618.093 2.182 1.778 2.988 5.204 2.988 8.009 4.097.463.185 1.269-.481 1.917-.758l-2.5-2.497m28.583 19.255c-.13 1.637-.269 3.274-.398 4.911.935-1.11 1.833-2.248 2.833-3.302.231-.25.954-.056 1.167-.305 1.101-1.313 4.527-1.896 2.509-4.31-2.556-3.052-3.278 1.212-4.963 1.887-.185.074-.315.305-1.139 1.119m622.774-9.961c1.04.666 2.09 1.332 3.13 1.989-.38-.888-.75-1.785-1.15-2.664-.76-1.664-1.35-3.449-2.38-4.929-.78-1.119-2.11-1.85-3.2-2.756.04 1.628-.25 3.376.24 4.855.37 1.119 1.76 1.905 3.35 3.496m-648.69-17.257.917-.916c-.898-.804-2.046-2.423-2.657-2.238-1.334.398-2.76 1.517-3.436 2.729-.351.638.815 2.108 1.306 3.199 1.065-.702 2.139-1.405 3.87-2.774m610.14 86.304c.56-.702 1.81-1.017.41-2.367-1.78-1.73-2.14.24-2.8.851-1.63 1.535-4.67 3.477-2.44 5.623 2.02 1.932 3.13-1.832 4.82-4.107m-790.934 15.917.473 3.125c.287-.638.657-1.248.842-1.905.917-3.163 1.833-6.325 2.62-9.525.112-.453-.416-1.073-.657-1.61-.472.472-1.194.861-1.361 1.425-.731 2.358-1.296 4.772-1.917 8.499m824.824-21.909c-1.48.305-5.23-.823-2.4 2.515 1.07 1.267.52 5.207 3.77 3.727.5-.231-.43-3.634-1.38-6.242m56.49 15.269c.89 1.803 1.72 3.634 2.69 5.391.41.731 1.14 1.277 1.72 1.915.29-1.119 1.18-2.655.75-3.283-1.2-1.758-2.95-3.145-5.16-4.014m-669.944-58.43c.435-.897.861-1.795 1.296-2.692-1.185-.12-2.361-.24-3.546-.37.231 1.443-2.482 2.192-.769 4.125 1.306 1.471 1.658.148 3.019-1.063m-202.712 75.012c0 2.21 0 4.43.065 6.64 0 .009 1.204.009 1.204 0 .055-2.21.065-4.421-1.269-6.64m192.082-92.279v2.608c.759-.296 1.593-.481 2.25-.925.704-.481 1.278-1.174 1.861-1.822.38-.425.685-.915 1.028-1.378-.806-.157-1.648-.554-2.398-.416-.741.139-1.389.823-2.732 1.924m-74.443-25.229c-.612.61-1.371 1.137-1.778 1.859-.25.444-.158 1.405.176 1.738.333.333 1.389.444 1.722.167.954-.796 1.704-1.85 2.528-2.793-.667-.546-1.334-1.082-2.658-.962m734.428 59.087c-.45-.897-.84-1.84-1.39-2.673-.32-.49-.9-.814-1.36-1.211-.19.573-.72 1.368-.52 1.683 1.06 1.618 2.31 3.107 3.49 4.642.15-.591.3-1.183-.22-2.432m-328.329-61.075c-.028 1.304-.047 2.608-.074 3.912.574-.083 1.379.037 1.694-.296.861-.934.361-2.83-1.62-3.616M678.052 359.83c.148.148.278.333.463.435.111.065.417.018.426-.019.166-.998.703-2.201.333-2.959-.352-.721-1.657-.971-2.546-1.434.444.879.889 1.767 1.333 3.968m425.379 10.626c.15.148.28.333.46.435.11.065.42.018.43-.019.16-.998.43-2.016.39-3.015-.02-.638-.5-1.267-.77-1.895-.31.305-.57.665-.91.887-1.7 1.101-.06 1.573.41 3.598m-217.344-57.755.926.925c.351-.454.713-.907 1.064-1.36-.953-.74-1.916-1.48-2.87-2.219-.241.351-.694.739-.648 1.063.046.342.555.62 1.528 1.6m-8.639-11.283c.741.583 1.491 1.165 2.231 1.748-.296-1.026-.546-2.071-.944-3.043-.065-.157-.843-.027-1.287 1.295Zm354.923 126.137c0-.629.24-1.434-.06-1.831-.47-.62-1.31-.972-1.99-1.434.19.592.36 1.184.56 1.766.26.722.55 1.443 1.49 1.499M526.516 346.55c-.426.906-.842 1.812-1.268 2.719.314.092.814.342.907.24.907-1.026 2.824-1.831.361-2.959Zm87.064 25.895c-1.796 1.794.111 2.599 1.028 3.625.093.102.593-.157.907-.24-.426-.907-.842-1.813-1.926-3.385m63.139-93.601-.361-1.693-1.991 1.988c.565.121 1.13.241 2.352-.305m388.152 115.511c.15.148.29.342.46.443.12.065.43 0 .43-.027.16-1.018.33-2.026.39-3.052 0-.13-.56-.296-.86-.444-.14.583-.29 1.174-.43 3.089M826.93 270.862c0 .417-.092.86.019 1.249.185.675.5 1.313.759 1.96.185-.545.546-1.109.509-1.646-.055-.749-.398-1.489-1.287-1.563Zm111.657 106.216c-.121-.564-.232-1.119-.352-1.683-.287.074-.824.203-.824.231.139.712.324 1.415 1.176 1.452ZM611.58 322.643l1.334-.666c-.445-.222-.889-.444-1.334.666Zm591.53 42.486c-.44.222-.89.444-1.33.666.44.222.89.444 1.33-.666Zm45.2 87.627c.12.564.23 1.119.35 1.683.29-.073.82-.203.82-.231-.14-.712-.32-1.415-1.17-1.452m-917.866-40.488-.667-1.332c-.222.444-.444.888.667 1.332Zm434.681-94.267c.185-.703.371-1.406.51-2.118 0-.019-.538-.148-.825-.232-.12.565-.231 1.12.315 2.34m427.365 33.858c-.44.222-.89.444-1.33.666.44.222.89.444 1.33-.666Zm-132.27 36.512c.18-.268.36-.527.53-.795-.4.046-.79.092-.53.795Zm-231.956-92.279c.268.176.527.352.796.527-.046-.397-.093-.795-.796-.527Zm-60.481-3.32-.528.795c.398-.046.796-.092.528-.795Zm397.457 17.257c.18-.268.35-.527.53-.795-.4.046-.8.092-.53.795Z"/></g><g fill="#3C4043" clip-path="url(#b)"><path d="M1372.68 793.281c6.52 0 12.17.235 17.79-.069 5.99-.319 12.04-2.009 17.91-1.455 5.26.485 10.31-.138 15.45-.346 5.1-.208 10.17-1.413 15.28-1.579 3-.097 6.06 1.468 9.08 1.44 3.6-.041 7.18-1.412 10.78-1.482 10.67-.221 21.35.097 32-.152 5.71-.139 11.56 1.385 17.13-1.579 1.2-.637 3.28.512 4.97.582 4.18.152 8.37.277 12.55.207 6.36-.11 12.85-1.316 18.99-.318 5.46.886 10.38 2.05 15.7-.388 1.72-.79 4.07-.208 6.13-.208 15.41 0 30.83-.166 46.24.083 5.98.097 11.95 1.081 17.93 1.704s12.21-1.551 17.97 1.718c.68.388 1.76.124 2.63.041 1.98-.194 4.94.222 5.7-.872 1.38-1.981-.69-3.934-1.84-6.012-8.37-15.168-17.4-30.128-24.19-46.016-7.86-18.395-14.99-37.192-19.94-56.71-1.27-5-3.68-9.724-5.68-14.53-3.08-7.328-5.83-14.836-9.53-21.845-4.77-9.045-10.3-17.716-15.65-26.443-1.6-2.59-3.98-6.995-5.57-6.815-4.19.471-2.14 5.25-3.1 8.089-5.41 15.861-10.56 31.818-15.79 47.734-4.64 14.087-9.4 28.147-13.89 42.29-2.07 6.579-3.78 13.298-5.34 20.03-1.95 8.422-3.53 16.913-5.41 25.349-.67 3.005-5.77 5.887-8.46 4.972-3.39-1.163-4.94-3.546-3.94-7.092 5.28-18.561 9.95-37.345 16.27-55.56 3.33-9.544 6.62-19.198 10.03-28.729 4.79-13.436 9.02-27.163 12.83-40.973 1.17-4.239 2.39-8.492 3.98-12.592 1.94-5 3.12-9.544-2.78-12.785-.3-.166 0-1.607.14-2.424.71-4.142 1.41-8.298 2.22-12.425.87-4.475 9.98-9.655 14.71-8.478 4.82 1.192 8.86 8.131 6.41 13.104-2.91 5.887-.79 10.181 2.21 14.697 10.43 15.68 17.54 32.926 24.93 50.172 8.78 20.473 14.34 42.068 23.42 62.375 1.57 3.49 2.33 7.341 3.85 10.86 9.36 21.65 20.14 42.511 34.57 61.308.85 1.122 1.86 2.258 3.04 3.006 2.74 1.745 2.99 4.529 2.27 6.967-.43 1.469-2.49 2.798-4.12 3.477-3.24 1.358-6.12 1.801-10.18.443-8.65-2.922-17.92-4.238-27.03-5.582-7.39-1.094-14.94-1.011-22.36-1.925-31.71-3.92-63.55-.665-95.3-1.704-3.95-.125-7.93.277-11.86.305-20.09.166-40.16 1.482-60.24 2.355-8.28.36-16.57.706-24.85.831-8.89.138-17.79-.139-26.67.11-3.33.097-6.87-1.357-10.1 1.524-.98.873-3.8-.249-5.77-.568-1.65-.263-3.35-1.205-4.88-.956-12.85 2.106-25.79 1.441-38.71 1.787-6.28.167-12.81-1.745-18.82 1.69-5.73-3.324-11.45.582-17.21.083-5-.429-10.23-.858-15.06.139-4.47.928-8.57-1.067-12.8-.208-13.31 2.701-26.77 1.399-40.17 1.829-5.69.18-11.77 2.645-16.95 1.288-5.34-1.399-9.73 1.108-14.65.637-5.04-.471-10.25 1.025-15.38 1.15-2.97.069-5.94-1.289-8.92-1.302-22.23-.125-44.46-.111-66.69 0-2.15 0-4.39.789-6.39 1.648-3.71 1.621-7.37.235-10.88-.277-2.27-.333-2.77-3.2-2.68-5.846.23-6.205 4.88-9.405 10.95-8.186 8.31 1.648 16.77 3.408 25.18 3.518 32.31.402 64.65.97 96.91-.194 14.87-.54 29.91.097 44.57-1.786 15.27-1.967 30.39-.762 45.56-1.358 20.19-.79 40.42-1.233 61.51-1.828l-.01.055Z"/><path d="M1479.4 729.201c3.49-14.073 3.88-27.925 8.79-40.835 1.28-3.352 1.44-7.161 1.86-10.791.7-6.261.92-12.591 1.88-18.824 1.59-10.417-.76-20.515-1.29-30.738-.36-7.092-1.44-13.935-2.52-20.833-1.08-6.87-2.71-13.658-4.36-20.418-1.24-5.097.32-9.544 4.17-10.638 3.39-.969 10.39 3.893 11.02 7.73.14.872.22 1.828 0 2.659-4.14 14.891 4.23 29.255 1.81 44.049 2.98 6.053 1.99 12.564 1.62 18.825-.4 6.704-2.21 13.298-3.14 19.974-.86 6.22-1.25 12.509-2.06 18.728-1.33 10.167-3.42 20.155-3.96 30.53-.43 8.02-3.31 16.04-3.13 24.351.03 1.482-.21 3.006.04 4.447.96 5.485 0 7.41-5.48 9.433-3.74 1.385-5.26-1.053-7.46-3.809-7.34-9.212-15.41-17.828-22.98-26.859-11.42-13.603-22.96-27.122-33.87-41.14-8.63-11.068-16.1-23.05-24.63-34.201-5.78-7.563-12.5-14.433-18.88-21.553-.69-.762-1.91-1.053-2.89-1.552-.42.942-1.14 1.857-1.22 2.826-.68 7.757-.97 15.542-1.91 23.271-.77 6.372-1.66 12.869-3.58 18.964-6.79 21.539-11.08 43.772-19.22 64.951-3.17 8.228-8.55 14.822-12.53 22.385-1.03 1.967-2.29 3.878-3.76 5.54-4.65 5.209-11.6 4.115-16.03-1.592-8.58-11.068-14.53-23.521-19.82-36.292-2.94-7.079-5.44-14.586-6.59-22.122-2.17-14.212-5.08-28.549-3.52-42.941.86-7.798.45-15.832 3.15-23.52 1.1-3.172.3-7.051.15-10.611-.2-4.682 1.4-8.81 3.64-12.73.55-.969 1.72-2.244 2.59-2.244 5.46 0 9.49 7.924 6.78 12.786-1.05 1.897-1.81 4.03-2.27 6.164-1.88 9.031-4.64 18.035-5.07 27.149-.37 7.951-2.56 16.346 1.43 24.186.36.706.14 1.759.03 2.645-1.71 13.991 4.14 26.749 7.62 39.617 2.37 8.727 8.89 16.608 14.58 24.075 4.69 6.15 7.49 5.582 11.52-1.413 3.96-6.899 7.94-13.935 10.6-21.374 5.72-16.04 11.81-32.122 15.38-48.703 2.3-10.611 5.3-21.194 6.59-32.192.91-7.826.65-15.583 1.33-23.327.48-5.471-1.04-9.987-5.04-13.976-3.53-3.532-2.63-7.065 2.17-11.553 3.07-2.881 6.34-2.77 9.72.485 2.06 1.981 2.99 4.488 4.15 7.162 2.94 6.801 7.12 13.242 11.67 19.157 12.89 16.747 24.4 34.505 37.25 51.21 12.24 15.916 23.79 32.552 38.63 46.39 4.2 3.907 7.49 8.782 11.42 12.993 3.3 3.546 3.67 3.394 5.57-1.44.4-1.025.07-2.355.07-4.433l-.02-.028ZM1159.23 757.681c-4.59 4.114-8.8 1.566-11.54-.498-1.98-1.482-4.45-5.042-1.55-8.935 1.16-1.551.62-4.488.62-6.787.04-17.481-.21-34.962.08-52.43.35-21.387 1.14-42.76 1.72-64.148.11-4.252 3.42-8.436.15-12.84-.3-.402 1.34-2.245 2.08-3.422.83.54 1.74.997 2.49 1.635 2.73 2.327 4.48 4.779 4.32 8.934-.43 10.652.94 21.457-.36 31.956-3.25 26.416-.73 52.859-1.41 79.275-.13 4.903 1.69 9.862 2.6 14.794 5.54-.222 11.07-.388 16.6-.721 1.63-.097 3.42-1.329 4.84-.969 14.76 3.781 29.83 2.022 44.56 1.177 9.23-.526 19.06-.291 28.22-4.363 2.99-1.33 8.09 1.066 11.78 2.715 2.44 1.08 5.01 3.892 2.65 7.078-1.78 2.383-3.62 4.876-7.89 3.602-13.35-3.948-26.82-4.419-40.66-1.76-4.11.79-8.91-.36-13.58.167-12.36 1.371-24.59 3.504-36.86 5.457-2.6.416-5.31.056-8.87.056l.01.027ZM1571.9 750.561c-20.44-3.047-21.57-17.079-18.52-30.349.48-2.106 2.17-4.017 2.36-6.095.76-8.463 6.51-10.901 13.42-13.921 4.69-2.05 6.9.9 9.82 1.773 3.3.983 5.8 4.419 8.81 6.58 4.8 3.463 6.96 8.269 5.31 13.713-1.85 6.081-.43 12.536-4.66 18.603-4.21 6.039-8.76 9.115-16.53 9.696m6.23-12.452c-.44-1.039-.93-2.992-1.33-2.979-4.69.222-9.37.735-14.05 1.219-.5.056-.95.499-1.43.776.78.831 1.54 2.369 2.32 2.369 4.54.027 9.06-.305 14.49-1.399m-3.56-14.24c0-2.369 0-4.751-.08-7.12 0-.014-1.61-.014-1.61 0-.08 2.369-.08 4.737 1.69 7.12Z"/><path d="M1399.81 719.852c1.7 2.3 2.99 4.114 4.19 5.998 1.5 2.341 1.01 4.336-1.12 6.067-3.25 2.66-5.22 7.342-10.79 6.317-.93-.166-2.14 1.731-3.35 2.438-8 4.709-17.63-.485-17.85-9.6-.3-13.159 7.58-18.644 20.68-14.336 2.61.858 5.19 1.773 8.23 3.102l.01.014Z"/></g><g fill="#3C4043" clip-path="url(#c)"><path d="M631.075 630.147c.518-5.931 1.407-11.37 1.77-16.749.492-7.41 2.746-14.293 4.18-21.418.198-.986-.371-2.145-.665-3.2-.898-3.259-.173-6.416.915-9.425.708-1.954 6.166-2.948 8.792-1.963 4.058 1.522 8.005 3.952 12.582 1.609.311-.164 1.028.034 1.313.32 2.849 2.784 5.716 5.551 8.445 8.448a281.592 281.592 0 0 1 8.861 9.866c5.483 6.407 10.872 12.884 16.321 19.317.648.761 1.408 1.436 2.116 2.136.345.337.708.657 1.062.977.156-.441.415-.873.441-1.314.354-7.385 1.019-14.787.924-22.162-.095-6.875 1.347-13.507 2.133-20.243.345-2.957 4.283-5.214 7.366-4.565.95.198 2.211.51 2.91.086 4.5-2.758 7.522.095 10.717 2.542 3.118 2.378 4.56 5.249 4.111 9.382-.812 7.437-1.667 14.942-1.46 22.396.087 2.966-1.139 5.612-.716 8.569.423 2.948-.372 6.096.19 9.001 1.191 6.192 1.537 12.486 3.333 18.643 1.477 5.067 2.72 10.333 3.524 15.608.44 2.879-.156 5.767-2.246 8.059-.717.787-1.269 1.842-2.806.735-2.108-1.522-2.013.397-1.883 1.66.216 2.049.794 4.064.924 6.113.138 2.093-3.955 7.48-5.941 7.696-1.14.121-2.539-.354-3.541-1.003-2.53-1.626-4.914-3.493-7.349-5.275-.268-.19-.484-.622-.734-.631-5.285-.181-7.064-4.41-8.938-8.145-2.263-4.514-5.052-8.388-8.8-11.864-7.349-6.822-14.145-14.224-21.382-21.167-3.722-3.572-7.911-6.667-11.883-9.988-.38-.32-.717-.709-1.071-1.063-.164.596-.458 1.193-.484 1.798-.362 7.886-.103 15.867-1.191 23.65-.993 7.099-.536 14.129-.829 21.185-.147 3.605-2.151 6.225-4.551 8.664-.639.648-.985 1.582-1.468 2.386.803-.121 1.735-.57 2.374-.311 5.57 2.283 11.667-.718 17.212 1.79.829.38 1.986-.035 2.979.069 4.534.458 9.206-1.107 13.618.986 2.229-1.712 4.465-.035 6.685.035 7.884.25 15.889-.122 23.601 1.201 6.434 1.107 12.911-.147 19.301 1.609 3.42.934 7.47.821 10.924-.061 2.401-.614 5.268-2.931 6.166-5.197 1.892-4.773 6.14-7.375 8.843-11.362 4.5-6.623 10.009-12.546 14.707-19.04 6.831-9.451 13.299-19.179 19.975-28.743 1.2-1.72 2.703-3.216 3.981-4.885 3.61-4.687 7.219-9.365 10.743-14.121 1.209-1.625 2.219-3.406 3.195-5.188 2.927-5.361 8.325-9.2 9.612-15.59.146-.735.526-1.565 1.062-2.041 2.547-2.274 5.527-3.943 7.617-6.909.837-1.184 3.886-1.081 5.898-.994.699.035 1.502 1.721 1.934 2.784.527 1.289.605 2.759 1.114 4.056.164.423 1.408.942 1.589.778 2.297-2.049 3.852.112 5.51.994.984.528 1.736 1.557 2.504 2.439 2.824 3.26 6.486 3.528 10.182 2.412 1.606-.484 2.798-.908 3.782.562 1.33 1.98 3.239 2.058 5.251 1.885 2.85-.25 5.898.822 6.52 3.13.855 3.157 3.35 6.909-.078 10.117-1.382 1.297-1.002 2.041-.345 3.649 3.134 7.713 7.513 14.674 11.926 21.67 3.558 5.637 6.425 11.708 9.646 17.562 3.748 6.813 7.617 13.567 11.304 20.406 1.909 3.537 3.411 7.298 5.346 10.826 4.931 9.01 9.594 18.202 15.138 26.823 4.741 7.376 7.721 15.677 12.867 22.811 3.498 4.842 6.676 9.918 9.888 14.959 1.84 2.888 3.437 5.932 5.199 8.88 2.643 4.427 5.432 8.777 7.988 13.256 2.453 4.306 5.052 8.56 6.106 13.532.164.796 1.045 1.514 1.744 2.102 1.969 1.66 3.506 3.441 3.239 6.286-.156 1.66-.018 3.346-.026 5.015-.026 4.367-3.057 7.575-7.401 7.756-.536.018-1.477-.311-1.563-.657-.734-2.871-3.023-5.015-3.204-8.266-.173-3.044-1.434-6.044-2.332-9.028-.198-.665-.907-1.176-1.382-1.764-.768.805-1.493 1.263-.69 2.845.993 1.937.915 4.159-.32 6.46-.725 1.34-.406 3.182-2.565 3.406-2.124.217-4.093-.121-5.604-1.789-.596-.658-1.088-1.401-1.624-2.11l-2.124 2.127c-1.399 1.401-2.626 3.061-4.24 4.124-1.805 1.202-2.902 2.508-3.075 4.722-.293 3.657-1.157 4.643-4.853 5.3-2.427.433-3.808-.986-4.568-3.225-.294-.865-.864-1.669-1.425-2.404-.13-.164-.924-.095-1.123.13-.63.7-.959 1.85-1.71 2.231-1.641.838-3.471 1.781-5.199 1.729-.803-.026-1.727-2.179-2.279-3.493-1.382-3.303-2.375-6.866-6.65-7.61-1.615-3.925-5.838-5.819-7.34-10.004-2.548-7.091-7.108-13.143-11.054-19.508-1.14-1.833-1.978-3.856-2.867-5.828-.449-.985-.398-2.473-1.114-3-2.539-1.877-2.911-4.842-4.215-7.333-6.209-11.82-12.331-23.684-18.808-35.348-3.55-6.399-6.374-13.066-9.223-19.767-2.056-4.834-4.672-9.434-7.03-14.147-2.789-5.577-6.218-10.852-8.99-16.368-3.739-7.437-8.61-14.397-10.907-22.56-.259-.925-1.226-1.643-1.856-2.456-.527.683-1.106 1.332-1.563 2.049-2.263 3.572-4.422 7.221-6.762 10.74-4.189 6.304-8.472 12.555-12.747 18.807-4.464 6.52-8.998 12.988-13.446 19.525-1.407 2.075-.785 2.957 1.866 3.095 4.05.225 8.109-.536 12.159.874 1.857.64 4.663.821 5.656-1.721 1.425-3.649 4.862-4.306 7.729-5.491 5.087-2.11 10.234-2.559 15.597.104 3.54 1.755 5.449 3.943 6.701 7.696 1.382 4.133 1.235 8.283.518 12.114-.881 4.739-5.423 7.523-9.689 8.241-4.862.83-10.216 1.167-15.052-.83-3.273-1.349-6.684-2.966-7.997-6.702-.587-1.677-1.442-2.231-3.161-2.309-4.214-.198-8.42-.57-12.617-.977-2.21-.216-4.438-.501-6.597-1.011-3.999-.96-6.477 1.478-8.248 4.185-3.134 4.799-6.779 9.217-9.888 13.973-4.853 7.428-9.732 14.873-13.774 22.854-4.568 9.01-8.912 18.176-14.655 26.563-1.83 2.672-2.962 5.82-4.706 8.561-1.27 1.997-.285 2.698 1.243 2.092 3.351-1.314 6.512.121 9.733.208 2.245.06 4.56 1.012 6.667 1.954 2.167.969 3.627 5.621 2.694 7.601-1.148 2.43-4.128 3.649-6.908 2.879-.907-.251-2.082-.761-2.764-.415-1.848.943-3.394.32-5.25.13-3.688-.381-7.514.389-11.253.856-.673.086-1.416.882-1.831 1.548-2.651 4.228-7.245 3.458-11.157 4.315-.795.172-2.159-.71-2.772-1.488-2.677-3.441-2.66-3.649-6.65-2.386-5.164 1.634-9.542.415-13.463-3.061-.397-.355-.855-.83-.958-1.315-.674-3.234-3.101-5.171-5.191-7.401-1.148-1.22-1.373-8.172-.241-9.408 5.397-5.889 9.059-12.953 13.489-19.499 5.699-8.396 11.9-16.455 17.617-24.834 3.704-5.422 6.874-11.207 10.414-16.741 1.961-3.069 4.241-5.931 6.253-8.966.483-.735.501-1.79.725-2.69-.768-.164-1.537-.337-2.306-.484-.164-.034-.336 0-.5 0-9.888-.337-19.802-.311-29.647-1.107-9.577-.769-19.163-1.357-28.731-2.11-7.401-.579-14.811-1.383-22.22-2.057-4.56-.416-9.292.233-13.593-.926-6.071-1.634-12.358.51-18.282-1.781-.794-.303-1.891.242-2.85.259-1.476.035-2.953-.017-4.421-.077-.639-.026-1.468-.459-1.866-.191-2.461 1.626-4.827.26-7.219-.06-2.064-.277-2.375.588-2.824 2.594-1.339 5.889-.423 11.812-.933 17.674-.449 5.232-1.425 10.42-2.21 15.625-.139.917-.544 1.79-.726 2.707-1.027 5.266-2.012 10.54-3.022 15.815-.026.147-.052.337-.147.441-3.688 3.658-4.361 9.001-7.202 13.04-1.814 2.568-4.534 4.859-7.349 6.277-5.381 2.724-9.405 7.082-14.224 10.446-1.632 1.141-3.575 1.833-5.38 2.715-.138.069-.371-.061-.492.017-5.311 3.442-11.382 3.39-17.358 4.237-2.66.381-5.466 1.297-8.161 2.015-2.297.622-4.456.519-6.666.752-2.384.251-4.802-.458-7.16.908-.932.536-2.867.389-3.773-.259-4.422-3.139-9.387-3.615-14.552-3.701-1.537-.026-3.065-.605-4.594-.96-1.373-.311-2.737-.977-4.093-.943-6.071.13-11.227-2.438-16.572-4.825-2.643-1.184-4.707-3.821-8.161-3.45-.959.104-2.384-1.072-3.066-2.04-4.154-5.906-10.328-9.443-15.752-13.87-.932-.761-1.796-1.894-2.141-3.026-1.805-5.889-6.848-9.91-9.059-15.323-2.375-5.836-6.537-11.639-5.89-17.959.449-4.436-.354-8.647-.976-12.582-.854-5.439.734-11.085-1.649-16.291 1.641-1.392-.285-2.758-.06-4.193.259-1.635.38-3.416 0-4.998-1.443-6.114.613-12.158.155-18.263-.225-3 .794-6.07.829-9.113.026-2.37-.812-4.73-.889-7.117a64.345 64.345 0 0 1 1.925-17.743c.233-.943.035-1.998.035-3.001 0-7.531.06-15.054-.026-22.586-.043-4.055.121-8.024 1.857-11.785.259-.554.112-1.289.172-1.937.329-3.373.139-6.926 1.201-10.057.604-1.764-.251-3.372-.622-3.441-3.187-.597-2.573-2.94-2.582-4.998-.043-7.912-.691-7.73 7.098-7.16 4.56.338 9.241.312 13.749 1.764 1.813.588 4.076.467 5.958-.017 1.71-.441 2.626 1.859 4.897.424 1.667-1.055 4.879.432 7.418.657.933.086 2.28.147 2.789-.398 3.498-3.709 7.712-1.357 11.59-1.539 1.761-.078 3.264.709 3.817 2.637.604 2.093 1.502 4.142 1.761 6.278.337 2.776-1.546 5.508-4.922 5.923-2.712.329-3.299 2.283-3.817 3.701-.907 2.49-.777 5.352-1.226 8.033-1.365 8.189-.924 16.438-1.002 24.678-.026 2.421-1.822 4.471-.38 7.385.941 1.911-.32 4.911-.605 7.427-.449 3.961-.328 7.912-.06 11.89.104 1.53-.51 3.104-.777 4.669-.078.476-.268 1.003-.139 1.427 1.451 4.912-.664 9.555-.932 14.319-.38 6.84-.104 13.714-.078 20.571 0 .45.233.9.354 1.349.207-.493.501-.977.613-1.487.372-1.695.493-3.467 1.063-5.084.82-2.326 1.459-4.998 3.048-6.719 5.648-6.113 11.736-11.803 17.505-17.813 3.048-3.173 6.554-5.447 10.44-7.505 10.985-5.811 23.498-5.093 31.037 6.779 3.498 5.517 5.691 11.665 3.126 18.453-.578 1.53 1.227 4.15 2.98 4.427 1.304.207 2.677.138 3.998-.018.38-.043 1.054-1.037.95-1.21-2.332-3.848-.155-7.35.708-10.973.199-.856.052-1.807-.052-2.707-.146-1.262-.561-2.507-.569-3.761-.061-7.021.043-14.051-.078-21.073-.035-2.04-.933-4.081-.89-6.104.069-3.217.294-6.485 1.002-9.607 1.071-4.704 1.926-9.399 1.943-14.241.035-7.904.622-15.729 2.954-23.356.328-1.072-.087-2.343.077-3.493.199-1.384.397-2.862 1.019-4.082 1.166-2.291 4.517-2.689 5.544-.475 1.624 3.502 4.552 3.597 7.47 3.718 4.672.19 9.353-.017 14.034.078 2.478.052 3.678-.493 4.153-3.416.518-3.182 1.961-6.312 5-8.361 4.698-3.174 10.294-1.548 11.806 3.917.958 3.476 2.504 5.603 6.304 5.923.984.086 2.167 1.124 2.737 2.049 1.814 2.958 1.278 7.739-.829 10.316-1.027 1.254-2.228 1.807-3.86 1.617-2.245-.259-3.04.796-3.342 3.096-1.209 9.217-.76 18.461-.967 27.696-.13 5.776-.605 11.552-.976 17.32-.294 4.548-1.529 9.243-.751 13.593.794 4.453.656 8.802.682 13.177.017 3.355-.302 6.823-1.226 10.014-.45 1.547-1.304 2.827.25 3.752 1.39.822 3.385 1.756 4.681 1.332 2.15-.709 3.929-1.297 5.855.259.207.165.639.061.958.078 8.049.337 16.097.675 24.146.986.449.017.907-.216 1.356-.337-.259-.355-.484-.735-.778-1.064-2.357-2.706-4.594-5.534-7.124-8.059-1.96-1.954-3.031-4.289-2.893-6.814.259-4.876-1.028-9.805.777-14.699.57-1.539-.855-3.693-.794-5.552.129-4.392.604-8.768.941-13.653m-128.829 92.358c1.529.337 3.049.795 4.595.985 7.858.96 14.361-1.521 19.301-7.834.31-.389.716-.7 1.053-1.072 1.814-1.971 3.886-3.07 6.719-3.26 1.684-.112 3.428-1.392 4.87-2.499 1.063-.813 1.486-2.481 2.548-3.294 3.048-2.309 3.903-5.223 2.452-8.587-1.122-2.611-.906-4.755.864-6.891.907-1.098 1.658-2.318 2.496-3.468.198-.268.466-.475.699-.717-.431-.173-.846-.441-1.286-.485-.829-.077-1.667 0-2.505-.026-2.288-.095-3.938-.017-4.395 3.157-.354 2.464-2.401 4.643-3.463 7.047-3.61 8.18-10.881 11.431-18.662 13.852-6.227 1.937-12.695 2.067-19.198 2.145-5.043.06-9.447-.995-13.333-4.237-.51-.424-1.356-.45-2.038-.657.164.691.112 1.582.535 2.032 2.047 2.205 4.188 4.323 6.356 6.407.872.839 2.271 1.306 2.789 2.283 1.866 3.528 5.225 4.271 9.595 5.119m204.02 38.651c-2.876 2.439-4.249 5.863-6.036 9.028-.924 1.634-2.03 3.165-2.954 4.799-.19.337.087.934.147 1.409.484-.224 1.028-.38 1.442-.7a6.48 6.48 0 0 0 1.373-1.418c1.313-1.954 2.306-4.203 3.904-5.871 6.623-6.961 10.276-15.79 15.147-23.84 1.442-2.387 2.72-4.885 3.99-7.376.172-.337-.139-.916-.216-1.383-.354.19-.847.294-1.045.588-1.226 1.824-2.392 3.675-3.558 5.542-3.904 6.235-7.79 12.487-12.185 19.222m173.441-42.162c.57.104 1.14.199 1.71.303.259-3.035 1.459-5.699 3.1-8.232.155-.242-.466-1.436-.898-1.548-7.617-2.058-7.66-2.136-5.942-9.771.311-1.384.208-2.421-1.925-2.404-5.087.043-6.089 1.384-3.783 5.854 2.548 4.946 5.164 9.866 7.746 15.798m3.507-73.784c-2.177-3.753-4.318-7.514-6.555-11.233-.25-.415-.959-.544-1.459-.812-.173.588-.605 1.253-.467 1.764.562 2.075 1.287 4.107 1.961 6.156 1.001 3.07 1.934 6.174 3.057 9.201.25.674 1.278 1.642 1.735 1.539 1.313-.294 2.721-.865 3.671-1.764.31-.294-.709-1.954-1.089-3.001-.155-.432-.241-.899-.854-1.85m-439.579 75.842c1.295 1.972 2.582 3.943 3.903 5.897.294.433.7.796 1.054 1.185.233-.804.699-1.634.622-2.413-.043-.51-.916-.908-1.33-1.435-2.246-2.828-3.653-5.906-3.299-9.685.216-2.265 1.321-3.856 2.772-5.404.147-.156-.345-.899-.544-1.375-1.805 2.041-2.599-1.063-4.137-.856-.518.069-1.165-.821-1.761-1.271.043.908.077 1.807.121 2.715.017.355.034.718.121 1.064.82 3.528 1.649 7.047 2.469 11.569m420.572-34.631c1.286-1.625 2.599-3.234 3.834-4.894.155-.207-.095-1.072-.199-1.081-5.293-.397-6.882-3.847-7.185-8.482-.043-.709-.44-1.695-.993-2.006-.725-.415-1.753-.303-2.651-.415.13.683.147 1.418.414 2.049 2.064 4.79 4.18 9.563 6.78 14.838m-13.533-33.628c-2.875-2.257-3.411-5.404-2.919-8.707.147-1.012 1.037-2.084-.345-2.491-1.114-.337-2.643-.337-3.601.199-.708.398-1.157 1.946-1.045 2.906.112.977 1.114 1.824 1.606 2.793 1.468 2.879 3.049 5.715 4.232 8.707.535 1.358.898 1.098 1.347.268.432-.795.509-1.781.734-3.683m-268.184 11.543c-3.291 2.957-6.615 5.871-9.828 8.898-.76.718-1.295 1.798-1.641 2.81-.207.588-.25 1.937 1.132.701.561-.502 1.52-.58 2.02-1.116 3.455-3.735 7.056-7.298 11.141-10.376.898-.683 1.753-3.139 1.399-3.476-1.503-1.427-2.021.735-2.997 1.349-.276.173-.475.467-1.218 1.202m6.019-36.136c-1.39 1.064-2.884 2.023-4.162 3.208-3.497 3.234-6.909 6.554-10.354 9.84-.259.251-.544.467-.821.701.294.103.596.311.873.285.621-.061 1.381-.052 1.813-.406 4.197-3.442 8.178-7.16 12.919-9.91.7-.406 1.261-1.098 1.771-1.755.803-1.038.759-1.072-2.021-1.963m-73.689 134.019c-.234-.234-.527-.441-.7-.709-1.338-2.127-1.373-2.153-2.409-.182-1.08 2.041-2.081 4.116-5.009 3.407-.147-.035-.397-.017-.458.069a84.197 84.197 0 0 0-1.451 2.395c.752.182 1.52.571 2.246.502 2.426-.234 4.827-.709 7.254-.925.786-.069 1.606.363 2.418.57-.397-.804-.812-1.608-1.183-2.421-.259-.562-.475-1.141-.708-2.706m-36.089-10.039c-3.489 3.519-3.506 3.528-1.987 6.303.251.467.7.822 1.054 1.228.311-.449.648-.882.933-1.357 1.027-1.73 1.969-3.52 3.074-5.197.881-1.323 1.978-2.499 2.936-3.779.613-.813 1.14-1.677 1.71-2.525-1.131.337-2.401.467-3.359 1.081-.7.45-.847 1.669-1.486 2.3-.639.64-1.563.977-2.867 1.946m432.1-42.163c1.287-.501 2.669-.856 3.826-1.565.596-.363.803-1.366 1.183-2.075-.639-.294-1.261-.787-1.917-.83-2.479-.182-4.102 1.47-5.717 2.992-1.183 1.106-2.228 2.36-3.342 3.545 1.485-.519 2.971-1.055 4.473-1.539.303-.095.657-.018 1.494-.519M588.466 588.988c-1.684.32-3.688-.856-5.035 1.038-1.183 1.66-2.401 3.303-3.437 5.049-.242.398.095 1.246.363 1.782.086.164 1.019.173 1.261-.069 2.478-2.396 4.905-4.851 6.839-7.8M932.334 734.55c-1.157.39-.06-3.389-1.623-1.167-1.71 2.439-3.748 3.995-6.287 5.223-.605.294-.959 1.089-1.425 1.651.622.104 1.347.467 1.839.268a110.673 110.673 0 0 0 7.954-3.553c.267-.13.034-1.254-.467-2.422m-41.106-53.204c2.228-1.003 4.387-2.318 6.719-2.897 1.425-.354 2.15-.648 1.77-2.041-.535-1.98-1.865-1.158-2.953-.579a125.168 125.168 0 0 0-6.814 3.883c-.181.112.173 1.072 1.278 1.642m-394.508 78.8c-.423-.502-1.201-1.461-1.227-1.444-2.288 1.755-4.533 3.562-6.701 5.465-.13.112.406.977.63 1.496 1.019-.675 2.911 1.34 3.446-1.462.259-1.349 2.185-2.386 3.852-4.064m419.569-34.631c2.245-.908 4.525-1.746 6.702-2.801.414-.199.716-1.453.483-1.92-.293-.579-.639-1.314-2.064-.596-3.886 1.962-4.24 1.919-5.121 5.317Zm-48.118-103.4c.164-.259.535-.588.475-.769a339.454 339.454 0 0 0-3.239-8.993c-.069-.173-.717-.355-.812-.251-.371.381-.915.9-.889 1.323.224 3.234 1.658 5.932 4.465 8.682m-417.549-40.649c.233.441.466.873.699 1.314 1.615-1.617 3.265-3.217 4.81-4.903.165-.173-.129-1.124-.449-1.332-2.685-1.729-4.24-.492-5.052 4.921m438.12 78.297c.431 1.704-.657 2.69-1.684 3.753-.268.268-.19.865-.277 1.315.467-.156.924-.338 1.391-.467 4.24-1.237 4.49-1.782 2.565-5.785-.182-.372-.536-.666-.812-.995-.225.562-.458 1.125-1.183 2.188m50.13 91.355c1.814-1.133 2.798-3.571 1.633-4.315-2.047-1.306-1.132 1.799-2.436 1.833-.423.018-.993.234-1.217.554-.691.968-1.244 2.04-1.848 3.069 1.122-.207 2.253-.423 3.877-1.132M568.414 588.988c-3.982.199-5.579 1.582-5.493 4.842.009.398.302.865.596 1.15.156.156.769.121.915-.043 1.52-1.79 2.997-3.623 3.982-5.949Zm-103.267 78.298c1.148-.813 2.375-1.548 3.376-2.516.182-.173-.457-1.349-.889-1.937-.112-.147-1.123.034-1.304.328-.812 1.323-1.468 2.741-1.174 4.125m421.572 61.739.778 1.505c.656-.744 1.304-1.488 1.96-2.231-.725-.597-1.39-1.557-2.193-1.704-1.71-.32-2.09.528-.536 2.43M601.998 596.519c.112.113.216.26.354.338.087.043.328 0 .328-.026.121-1.591.363-3.191.259-4.773-.043-.658-.829-1.271-1.269-1.903-.225.614-.691 1.271-.613 1.842.164 1.193.613 2.343.95 4.522M439.594 675.82c.898.441 1.804.874 2.703 1.315-.234-.796-.432-1.6-.709-2.378a25.842 25.842 0 0 0-1.01-2.499c-.138-.285-.466-.493-.708-.726-.095.285-.259.57-.268.856-.034.812-.008 1.625-.008 3.441m124.303-65.258c-.665.856-1.459 1.651-1.952 2.602-.216.424.182 1.168.303 1.773.345-.251.716-.467 1.027-.752.596-.554 1.097-1.219 1.736-1.704 1.779-1.349-.319-1.643-1.114-1.919m342.875 80.304c-.103-.441-.129-1.211-.337-1.271-.811-.225-3.894 2.11-3.601 2.239.821.355 1.779.45 2.695.502.405.026.829-.303 1.243-1.47m-317.313-12.547c-.164.268-.501.545-.475.787.13 1.401.337 2.793.518 4.185.233-1.236.423-2.482.708-3.709.242-1.055.294-1.047-.76-1.263m-120.806-27.61c1.002-.838 1.633-1.703.251-2.767-.259-.198-.475-.467-.708-.7-.182.891-.441 1.781-.51 2.689-.034.415.302.856.967.787m-30.078 46.175 1.364 1.366c.216-.623.7-1.314.57-1.851-.164-.683-.829-1.253-1.278-1.867-.216.449-.44.899-.656 2.352m30.579-67.758c-.233.234-.578.433-.682.718a21.8 21.8 0 0 0-.786 2.663c-.026.13.371.355.57.536.466-.968.941-1.937 1.39-2.914.061-.138.009-.328-.492-.994m-3.506 53.706c-.112-.112-.207-.251-.337-.329-.086-.051-.311-.017-.311-.008-.043.865-.112 1.729-.043 2.585.009.104.803.147 1.235.216-.017-.657-.026-1.314-.544-2.464m244.626-51.198c1.917-1.107-.553-2.058-.121-3.122.026-.06-.216-.225-.337-.346-.181.727-.483 1.453-.509 2.188-.018.588.293 1.193.967 1.288m-121.808 78.8c.164-1.047.363-2.093.475-3.148.026-.242-.259-.519-.397-.778-.19.346-.518.674-.553 1.038-.086.787-.026 1.599.475 2.896m-130.832 27.61c-1.356-1.358-1.96.086-2.737.778-.078.069.112.45.181.683.682-.32 1.373-.64 2.556-1.461m399.517-99.881c.501-.38 1.002-.769 1.503-1.15l-.855-.856c-.38.502-.769 1.003-.648 2.006Zm-288.236 22.586c.095.424.181.848.276 1.28l1.503-1.505c-.423-.095-.847-.181-1.779.234m32.583-46.676-.985-.986c-.147.519-.293 1.038-.449 1.556.639-.026 1.287-.052 1.425-.579m-2.004-15.054c.165-.718.38-1.427.475-2.162.035-.234-.25-.51-.388-.77-.199.338-.484.649-.561 1.012-.095.45-.026.943.474 1.911m331.347 181.196.984-.985c-.518-.147-1.036-.294-1.554-.45.026.64.052 1.288.578 1.427M470.665 612.577c-.337.164-.665.337-1.002.501.337.165.665.338 1.002-.501Zm97.248 51.198c-.337.165-.665.338-1.002.502.337.164.665.337 1.002-.502Zm33.083-41.159c-.526-.138-1.062-.285-1.597-.389-.018 0-.113.406-.173.622.423.087.846.173 1.77-.233Zm-4.007 21.081c-.526-.138-1.062-.285-1.597-.389-.018 0-.113.406-.173.623.423.086.846.173 1.77-.234Zm-1.001-34.129c-.199-.13-.398-.268-.605-.398.035.303.069.605.605.398Zm353.903 152.583c-.199-.129-.398-.268-.605-.397.035.302.069.605.605.397ZM594.977 586.48c-.198-.129-.397-.268-.604-.397.034.302.069.605.604.397Zm114.295 38.151c.198.129.397.268.604.397-.034-.302-.069-.605-.604-.397ZM397.477 741.572c-.976 2.801-2.228 4.79-5.061 5.067-.155.017-.457.804-.328 1.037 3.739 7.013-1.77 11.094-5.043 15.824-.941 1.349-2.358 2.361-3.498 3.58-1.727 1.85-1.666 2.119.933 3.096.872.328 2.064.069 2.755.562 1.218.882 2.867 2.032 3.066 3.268.302 1.954-.087 4.237-.907 6.053-.415.925-2.41 1.548-3.705 1.574-2.686.06-3.48 1.314-3.256 3.735.354 3.874.838 7.748.959 11.63.112 3.598-2.219 5.508-5.622 4.73-.889-.199-1.926-1.15-2.28-2.014-1.312-3.174-1.951-6.572-4.637-9.158-1.477-1.426-.363-3.7 1.839-3.726 2.358-.026 1.701-1.479 1.719-2.655.017-1.747.483-3.787-1.935-4.419-.786-.207-1.666-.069-2.495-.026-2.228.113-4.586-.553-6.598.995-1.891-2.075-3.791-.052-5.683-.069-2.564-.026-5.129.121-7.694.086-2.841-.043-5.691-.138-8.515.017-7.15.398-14.353.312-21.399 1.946-1.114.259-2.332.043-3.498.035-6.762-.044-13.446.311-19.836 2.922-1.002.407-2.306.095-3.472.087-7.418-.078-14.629 1.279-21.822 2.94-3.273.761-6.719.864-10.096 1.046-3.938.207-4.931 1.167-5.25 5.301-.225 2.879 0 5.845-1.943 8.404-1.313 1.73-2.971 1.963-4.05.208-1.261-2.049-2.375-4.107-2.039-6.701.32-2.465-.19-4.687-1.908-6.754-1.028-1.236-1.304-3.104-1.839-4.721-.717-2.179 1.433-2.715 2.435-3.787 1.002-1.064 1.39-2.05 1.373-3.485-.078-7.359-.078-14.717 0-22.076.017-1.66-.311-2.827-1.926-3.519a6.268 6.268 0 0 1-1.943-1.34c-1.926-1.937-1.615-3.701.786-5.136.734-.441 2.012-1.133 1.952-1.548-.432-2.983.259-5.275 1.822-8.042 1.356-2.412.095-6.208.319-9.373.553-7.757.924-15.565 2.082-23.243 1.01-6.745 1.64-13.455 2.029-20.251.354-6.148 2.003-12.21 2.815-18.34.423-3.191.242-6.39.89-9.65.976-4.92.691-10.074 1.217-15.107.38-3.614 1.633-7.177 1.676-10.774.034-3.043-.285-6.649-1.9-9.018-3.057-4.488-1.244-8.276.881-11.682 2.478-3.978 3.1-7.67 1.865-12.097-.829-2.958-1.71-5.517-3.722-8.094-1.477-1.894-.613-5.629-.648-8.543 0-.121 1.477-.415 2.237-.363 2.461.173 3.601-.753 3.618-3.364.018-2.412 1.935-4.764 3.74-4.635 2.176.156 3.963 1.773 4.084 3.71.139 2.248 1.028 2.447 2.695 2.248 4.931-.588 9.87-1.729 14.793-1.626 4.067.087 8.048-.89 12.124-.458 1.477.156 3.144-.389 4.552-1.003.854-.372 1.96-1.47 1.986-2.274.112-3.9 2.711-7.099 2.979-10.8.173-2.421 2.081-2.447 3.144-2.741 1.286-.346 1.511 1.461 2.098 2.628 1.952 3.883-1.364 7.532-.112 11.267-2.332 2.586-.51 5.266.259 7.601 1.01 3.052 1.468 5.534-1.166 7.955-.7.64-1.01 1.98-1.054 3.027-.405 9.892-.561 19.801-1.114 29.685-.224 3.925-1.269 7.816-1.925 11.716-.052.329.008.666-.009 1.003-.328 5.716-.864 11.431-.941 17.147-.087 6.165-.277 12.279-2.047 18.236-.095.312 0 .666-.017 1.004-.328 7.721-.199 15.503-1.132 23.156-.984 8.076.26 16.317-1.226 24.125-1.019 5.344 1.08 9.122 2.505 13.403.475 1.435 2.115 2.542 4.343 2.672 3.299.19 5.933-.805 8.524-2.586a32.506 32.506 0 0 1 4.456-2.551c4.076-1.945 5.147-1.634 7.599 1.946 1.667 2.438 4.871 4.073 7.375 2.914 1.719-.796 2.729-1.167 4.301.052.63.484 1.96.19 2.945.06 6.114-.787 12.271-1.245 18.385-2.006 4.577-.571 9.163-1.202 13.688-2.084.924-.181 2.142-1.47 2.314-2.412.363-1.937-.077-4.021.19-5.993.13-.916 1.037-2.239 1.805-2.403.855-.182 2.453.475 2.824 1.227.76 1.496 1.123 3.278 1.244 4.972.138 1.955.103 3.736 2.755 3.701.311 0 .742-.026.924.147.829.796 2.064 1.548 2.305 2.534.924 3.727 6.287 5.11 5.096 10.359m-130.833 13.048c-.164.337-.336.666-1.001 1.003-.121.121-.259.216-.346.355-3.065 4.738-6.114 9.477-9.171 14.215 1.071 2.724-1.839 5.448-.009 8.189.251.372.32.865.475 1.297.182-.406.337-.822.544-1.202.51-.96.968-1.963 1.607-2.828.345-.458 1.045-.648 1.58-.951.268.493.63.96.786 1.488.129.458.112 1.011.017 1.487-.406 2.006.726 2.274 2.271 2.032 4.223-.657 8.455-1.28 12.66-2.032 1.391-.251 3.291 1.133 4.128-1.142-1.485-.276-2.962-.691-4.464-.786-.89-.052-1.805.484-2.721.588-.889.103-1.839.173-2.694-.035-1.796-.432-3.636-.882-5.311-1.652-1.926-.882-3.748-2.049-3.869-4.591-.138-2.949.579-5.586 2.142-8.137 1.2-1.954 3.48-3.502 3.376-6.303.164-.338.337-.666 1.002-1.004.026-.311.052-.622.069-.933-.19.311-.38.622-1.079.933m-.501-32.624c.121-.45.129-.969.371-1.349 6.831-10.887 13.697-21.756 20.519-32.651.449-.709.604-1.6.898-2.413-.803.32-1.701.511-2.401.995a8.672 8.672 0 0 0-2.133 2.11c-2.884 4.142-5.76 8.292-8.515 12.529-4.784 7.367-9.387 14.864-14.24 22.179-1.468 2.214-1.589 4.488-1.503 6.909.018.415.354.822.553 1.228.475-.285 1.149-.467 1.399-.89 1.563-2.69 3.04-5.422 5.043-8.647m50.131 28.111c.475-.476 1.028-.882 1.399-1.427.846-1.236 1.796-2.473 2.288-3.856.173-.502-5.034-.251-6.278.907-2.755 2.569-5.397 5.266-8.005 7.999-.881.925-.726 1.703.777 1.911 4.344.596 7.012-.822 9.819-5.534m-26.063 1.003c0-.337-.138-.77.026-.986.57-.752 1.235-1.435 1.865-2.144-1.114-.13-2.236-.407-3.333-.329-.717.052-1.606.45-2.047.994a170.527 170.527 0 0 0-6.338 8.397c-.147.207.656 1.547.898 1.513 1.537-.216 3.48-.208 4.447-1.15 1.65-1.591 2.686-3.831 4.491-6.304m-20.553-58.721c.475-.804.889-1.652 1.425-2.413 1.623-2.343 3.316-4.634 4.913-6.995.208-.303 0-.882-.017-1.34-.354.155-.708.311-1.062.458-.57.242-1.391.311-1.667.735-2.306 3.537-4.49 7.151-6.77 10.705-.855 1.332-1.607 3.191-2.867 3.718-3.101 1.297-2.427 3.718-2.444 6.01 0 .354.371.709.57 1.063.233-.233.526-.441.699-.717 2.254-3.572 4.482-7.16 7.228-11.241m24.06 16.057c-2.125 3.13-4.266 6.252-6.339 9.408-.199.302.017.882.034 1.34.355-.156.804-.233 1.045-.493 1.296-1.427 2.582-1.989 4.197-.38.182.181 1.486-.26 1.503-.476.268-3.13.406-6.26-.432-9.399m57.644 43.667c1.166-1.167 2.392-2.291 3.472-3.537.328-.38.25-1.098.354-1.669-.562.018-1.339-.19-1.658.104-1.598 1.436-3.135 2.94-4.543 4.566-.354.406-.129 1.323-.164 2.006.682-.32 1.365-.64 2.548-1.461m-20.553 20.579c2.167 0 4.335.069 6.502-.034.95-.044 1.892-.433 2.833-.657-.985-.441-1.995-1.289-2.954-1.237-2.331.13-5.043-1.167-6.381 1.928Zm-13.032 1.003c.812-.856 2.366-1.859.216-2.689-1.269-.493-2.876-.467-4.231-.19-.631.13-1.011 1.435-1.503 2.214.691.224 1.364.544 2.072.639.795.113 1.624.026 3.438.026m13.031-23.087c-.164.432-.285.891-.51 1.288-.423.744-1.485 1.54 0 2.128.432.173 1.192-.329 1.728-.649.414-.251.837-.623 1.053-1.055.605-1.193 3.066-1.487 1.857-3.372-.182-.277-2.358.735-4.119 1.651m-33.62-81.774c1.503-1.098 1.227-2.161-.164-3.043-.086-.052-.872 1.029-1.364 1.547-.57.606-1.339 1.09-1.719 1.799-.431.796-.526 1.773-.768 2.681.699-.355 1.442-.64 2.081-1.081.535-.372.959-.926 1.926-1.894m-31.581 7.531c-1.33 1.393-3.221 2.525-2.47 4.929.086.268.863.631.933.554 1.528-1.496 3.428-2.863 1.537-5.491m36.089 98.376c2.392.112 1.727-2.274 1.278-2.508-.967-.501-2.358-.199-3.575-.216.431.908.863 1.816 2.297 2.724Zm-3.506-125.986c1.226-.942 1.459-2.101.578-3.363-.129-.191-1.088-.139-1.252.095-.518.709-1.036 1.539-1.14 2.378-.052.406.846.925 1.814.89Zm87.221 95.367c0 .502-2.038.934-.121 1.462.924.25 1.986.095 2.979.017.363-.026.7-.372 1.054-.571-.233-.233-.432-.588-.717-.683-.881-.294-1.796-.493-3.195-.216m-94.242 30.117c-1.339 0-2.677 0-4.007.052-.009 0-.009.908 0 .908 1.338.043 2.668.043 4.007-.951m3.506-80.814c1.926.285 1.563-1.133 1.442-2.136-.043-.337-.829-.588-1.278-.874-.225.839-.441 1.669-.156 3.01m74.19 78.297 2.254-.25c-.388-.554-.665-1.392-1.191-1.617-1.149-.493-1.719.121-1.063 1.867m-11.528-.501-1.71 1.297c.751.052 1.502.112 2.254.164-.018-.657-.026-1.314-.544-1.461m19.05-28.111c0 .311-.069.648.017.942.139.51.372.995.57 1.488.139-.415.415-.839.389-1.246-.043-.57-.302-1.124-.967-1.184h-.009ZM453.618 823.89c2.366.338 4.223.865 6.106.96 3.169.165 6.347-.06 9.516.061 6.883.268 13.843.095 20.605 1.167 4.759.752 9.448.484 14.146.83 8.083.606 16.226.874 24.197 2.179 3.929.649 7.79.389 11.641.865 3.593.441 7.125 1.401 10.709 1.911 1.796.259 3.67-.043 5.509.06 6.529.372 12.988 1.202 19.336 2.906 2.288.614 4.801.467 7.038 1.202 1.347.441 3.117 1.738 3.359 2.922.397 1.955.415 4.791-.734 6.01-1.045 1.115-4.301 1.427-5.795.614-8.109-4.41-17.142-4.834-25.855-6.572-5.164-1.029-10.562-.977-15.665-2.196-4.75-1.133-9.457-.467-14.146-.934-3.437-.346-6.822-1.245-10.242-1.842-.803-.138-1.641-.086-2.47-.103-16.071-.338-32.133-.64-48.205-1.029-2.72-.07-5.371.026-8.16-.77-2.729-.778-5.933.104-8.93.311-1.269.087-2.608.675-3.791.433-7.271-1.522-14.499-1.583-21.745.034-2.824-2.871-6.019.545-9.387-.648-3.333-1.176-7.738-.113-11.46.821-2.642.666-5.242.545-7.824.744-7.141.57-14.283.89-21.408 1.945-3.903.58-8.048-.726-12.09-.778-3.791-.052-7.168-.994-10.285-3.07-.648-.432-1.624-.674-1.934-1.271-.631-1.219-.907-2.628-1.33-3.96 1.165-.268 2.331-.744 3.506-.761 5.846-.078 11.693.078 17.539-.06 10.95-.251 21.892-.597 32.833-1.012 2.936-.112 5.847-.787 8.783-.934 3.333-.164 6.684-.043 10.026-.043h36.59l.017.008ZM618.035 833.929c-.354-1.193-.648-1.928-1.08-2.559-.38-.537-.924-.96-1.399-1.436-.509.605-1.278 1.133-1.494 1.833-1.744 5.638-3.989 11.233-4.767 17.018-.336 2.507-.276 5.43-.233 8.162.043 2.274-1.364 3.45-2.988 3.995-2.314.778-2.919-1.401-3.618-2.974-1.727-3.926-.484-7.921-.061-11.864.821-7.67 3.394-14.916 5.553-22.266.406-1.383.156-3 .035-4.496-.216-2.672.518-4.964 1.977-7.229 1.978-3.078 5.095-3.087 7.073.19 2.66 4.419 5.674 8.664 7.884 13.299 1.244 2.603 3.032 4.479 4.811 6.537 1.718 1.998 3.583 3.355 6.381 2.802 2.816-.554 5.182-2.127 6.667-4.341 3.213-4.79 6.218-9.754 8.809-14.907.898-1.79 1.805-1.877 3.264-1.851 1.753.035 3.489-.372 4.37 2.076.915 2.542 2.064 4.937 1.934 7.73-.362 8.059-.742 16.109-.984 24.168-.138 4.419.656 8.604 4.093 11.846.423.407.95 1.168.838 1.609-.786 3-1.321 6.174-2.72 8.889-1.477 2.845-6.063 2.136-7.211-.986-1.745-4.764-3.049-9.633-3.092-14.795-.017-1.703-.889-3.407-.881-5.102.017-1.867.821-3.735.855-5.611.035-1.419-.812-2.837-.855-4.272-.034-1.02.734-2.041.881-3.104.104-.744-.25-1.539-.397-2.318-.803.433-2.297.856-2.306 1.306-.026 2.084-1.321 3.234-2.591 4.496-1.64 1.626-3.445 3.131-4.862 4.929-3.126 3.986-7.547 2.534-11.071 1.963-2.608-.424-4.922-3.467-7.098-5.603-2.082-2.032-3.817-4.41-5.709-7.143l-.008.009ZM863.662 879.101c-6.381-.303-9.335-4.428-7.651-9.918 2.902-9.434 7.962-17.58 14.076-25.284 4.776-6.01 9.56-12.123 12.609-19.309.423-.994.898-2.049.915-3.087.009-.475-1.019-.977-1.58-1.461-1.702 2.032-4.75-.32-6.65 2.361-1.192 1.686-4.016 2.153-6.019 3.329-2.029 1.193-4.171 2.343-5.846 3.943-1.443 1.375-2.859 1.314-4.491 1.124.579-1.816-1.451-2.888-.855-5.188 1.701-6.546 6.788-10.005 11.9-12.201 4.24-1.816 8.783-4.298 14.051-3.684 4.507.528 7.09 2.957 7.668 7.558 1.062 8.37-2.392 15.296-6.805 21.764-4.758 6.969-10.104 13.532-15.13 20.32-1.399 1.894-2.66 3.9-3.869 5.915-.241.398-.155 1.426.139 1.625.673.45 1.614.865 2.366.761 7.461-1.02 14.888-2.213 22.349-3.216 2.643-.355 5.354-.199 8.014-.45 1.71-.164 3.498-.38 5.078-1.02 4.059-1.643 8.1.57 7.677 4.877-.242 2.455-2.021 4.807-3.376 7.047-.156.259-1.84.501-3.032.449-3.644-.173-7.513-1.426-11.122.666-.752.433-1.969.043-2.971.069-6.727.165-13.265 1.617-19.862 2.698-2.194.363-4.716.709-7.6.312h.017ZM944.623 872.823c-4.776 1.401-8.446 4.669-13.204 5.335-2.28.32-4.439 1.677-6.702 1.833-2.288.156-4.464-5.283-3.454-7.877 1.062-2.75 3.187-4.125 5.838-5.085 4.361-1.573 8.705-3.199 12.953-5.032 2.557-1.107 4.983-2.551 7.349-4.038 2.911-1.833 2.6-4.626.147-7.03-4.145-4.064-9.49-3.909-14.534-4.929-.803-.164-1.666-.035-2.504-.017-2.919.043-5.942-.121-7.643-2.828-2.401-3.822-.604-7.393 1.771-10.385 1.554-1.963 3.903-3.303 5.967-4.833 1.77-1.315 3.661-2.473 5.458-3.762 1.563-1.115-.32-2.04-.553-2.032-3.29.234-6.831-1.651-9.871 1.289-.682.657-1.744 1.66-3.54.631-1.719-.986-2.41-1.851-2.306-3.667.06-1.167.147-2.36-.017-3.51-.372-2.542.967-3.978 2.996-5.024 4.474-2.3 9.266-2.888 13.982-1.427 2.038.631 4.361-.406 6.278 1.911 4.698 5.69 5.06 10.333 1.407 17.51-.069.139-.259.225-.345.363-.976 1.514-2.979 3.269-2.694 4.497.535 2.3 3.445 2.585 5.492 3.173 5.199 1.496 9.059 4.237 11.045 9.486 1.442 3.813 1.468 7.428 0 11.241-2.228 5.793-5.794 10.195-11.641 12.59-.57.233-.958.916-1.684 1.634l.009-.017ZM709.272 872.07c-6.607 3.217-12.988 2.94-18.999.372-4.819-2.058-7.686-6.468-9.033-11.578-.881-3.338-1.701-6.753-1.943-10.186-.19-2.663.078-5.569.993-8.059 2.608-7.065 4.828-14.414 11.089-19.456 1.684-1.357 3.324-2.403 5.561-2.308 2.928.121 3.705 1.124 2.902 3.925-.873 3.053-.864 2.906 2.331 3.148 3.662.277 7.436.398 10.916 1.427 4.447 1.314 7.358 4.954 10.233 8.491 5.182 6.364 2.721 16.17-.129 22.032-2.971 6.114-8.394 8.76-13.93 12.184m-15.536-33.127c-3.955.969-6.226 3.113-5.57 7.558.13.847-.44 1.79-.665 2.698-1.597 6.563 2.686 12.65 9.621 13.67 8.376 1.237 15.259-2.663 20.665-8.966 1.295-1.514 2.461-3.675 1.157-5.699-2.608-4.055-6.364-6.615-10.924-8.353-4.439-1.686-8.826-1.124-14.292-.916l.008.008ZM752.131 836.688c3.55-4.229 6.874-8.18 10.147-12.184 2.729-3.338 5.398-6.719 8.075-10.091 1.191-1.504 2.314-3.069 3.549-4.531 1.33-1.574 2.694-1.478 4.128.009 1.494 1.565 2.418 3.268 2.444 5.517.069 5.655-.76 11.137-2.522 16.498-.19.588-.475 1.193-.483 1.79-.052 2.507-.139 5.015.008 7.514.138 2.24-.198 4.462-.216 6.684-.043 5.093 1.529 9.685 2.928 14.389.984 3.303-1.105 8.119-4.093 9.615-1.823.908-4.897-1.297-5.726-3.554-2.254-6.105-2.159-12.408-1.926-18.729.207-5.707.674-11.414.942-17.121.043-.856-.432-1.729-.665-2.594-.553.614-1.287 1.15-1.615 1.868-1.969 4.28-5.303 7.531-8.161 11.145-.89 1.125-1.598 2.404-2.582 3.416-.985 1.012-2.125 1.92-3.351 2.611-2.686 1.514-5.112 1.444-6.157.026-.907-1.228-.691-6.191.44-7.419 1.468-1.599 3.049-3.087 4.836-4.868v.009ZM798.497 859.023c6.839-.588 13.307 1.202 19.568-.986 2.738 3.571 6.451-2.179 9.327.925.155.165 1.313-.622 2.012-.933 4.482-2.015 8.221.415 8.152 5.438-.026 1.704.536 3.425-.872 5.154-1.969 2.404-4.395 2.992-7.012 2.378-3.247-.752-6.304-2.655-9.767-.925-5.078-2.076-10.389-.796-15.579-.917-4.016-.095-8.049.726-12.073.873-3.299.122-4.672-1.392-4.776-4.643a41.643 41.643 0 0 1 0-2.499c.095-3.493.398-3.796 4.025-3.848 2.167-.034 4.326 0 6.995 0v-.017Z"/><path d="M314.513 642.443c.285.052.319.355.354.649-.199-.13-.397-.268-.354-.649Z"/></g><defs><clipPath id="a"><path fill="#fff" d="M243 218h1101v318H243z"/></clipPath><clipPath id="b"><path fill="#fff" d="M1677 576v234h-589V576z"/></clipPath><clipPath id="c"><path fill="#fff" d="M243 559h730v321H243z"/></clipPath></defs></svg>