<svg xmlns="http://www.w3.org/2000/svg" width="1920" height="1080" fill="none"><g fill="#3C4043" clip-path="url(#a)"><path d="M625.914 684.681c-.369-1.514-.901-2.439-1.082-3.435-.462-2.611-.775-5.238-1.136-7.865-.196-1.404-.266-4.015-.541-4.038-2.695-.197-5.462-.157-8.126.298-.612.101-1.591 2.611-1.207 3.113 1.818 2.383.737 4.956.964 7.41.462 5.026.901 10.053 1.097 15.095.165 4.164-.431 4.846-3.166 4.987-2.429.126-3.393-1.239-3.433-5.301-.062-6.296-.015-12.593-.015-18.89 0-6.924-.024-7.308-6.724-6.854-22.601 1.545-45.217.847-67.834 1.09-3.918.04-7.844.636-11.747 1.13-.533.07-1.387 1.097-1.348 1.615.212 2.635.862 5.246 1.003 7.881.462 8.727.823 17.463 1.082 26.206.031 1.09 1.222 3.349-1.583 3.09-1.67-.157-3.793 1.215-4.06-2.494-.478-6.649-1.951-13.189.063-19.862.478-1.592-.267-3.537-.384-5.325-.188-2.854-1.183-6.054-.235-8.469 1.019-2.603.689-2.729-1.607-2.721-10.916.024-21.927-.855-32.733.267-9.898 1.027-19.796-.267-29.521 1.043-9.145 1.231-18.22.603-27.326.894-5.415.172-6.395.909-6.912 6.383-.141 1.466.345 3.097-.133 4.399-.392 1.058-1.826 2.415-2.759 2.384-.917-.032-2.382-1.545-2.555-2.58-.384-2.345-.172-4.799-.109-7.199.07-2.65-1.395-3.85-3.723-3.293-3.495.839-6.92 2.015-10.266 3.34-1.081.432-1.881 1.702-2.664 2.698-1.803 2.305-3.699 2.211-5.729-.102-1.45-1.663-2.547-2.784-5.713-1.866-5.078 1.474-10.705 1.097-16.112 1.387-7.985.432-15.979.722-23.964 1.169-.972.055-1.889.878-2.876 1.027-1.779.267-4.632-.337-5.165.549-.901 1.506-.392 3.882-.415 5.897-.031 3.144-.063 6.297.008 9.441.047 2.172-.055 4.062-2.947 4.18-2.359.094-4.608-1.623-4.819-4.023-.126-1.459-.165-2.972.094-4.399.517-2.901 1.332-5.748 1.857-8.649.078-.44-.643-1.255-1.176-1.498-.493-.22-1.614-.118-1.794.212-.572 1.027-1.152 2.227-1.176 3.371-.109 5.921-.086 11.849-.031 17.777.016 1.992-.298 3.733-2.688 3.827-2.414.094-3.009-1.513-2.884-3.615.384-6.14.517-12.311 1.254-18.412.219-1.819 1.05-2.494-1.528-2.454-5.368.094-10.548 1.27-15.799 1.952-4.921.643-9.725 1.678-14.552 2.604-6.826 1.301-13.589 2.893-20.368 4.446-.47.11-.987.8-1.16 1.325-.815 2.447-1.575 4.917-2.217 7.41-.22.871.344 2.165-.11 2.706-.995 1.176-2.414 1.991-3.652 2.956-.603-1.2-1.63-2.36-1.74-3.607-.258-2.941-.156-5.921-.039-8.877.031-.815 1.701-1.686 0-2.399-.901-.385-2.625-.808-2.892-.44-3.205 4.494-7.053-.07-10.446.855-.266.071-.917-.313-.917-.321 1.474-4.368-5.015-3.655-4.459-6.187.862-3.929 2.343-8.312 5.016-11.112 4.145-4.344 4.318-9.214 3.393-14.076-.995-5.23-1.348-10.217.078-15.33.141-.51.149-1.058.181-1.592.376-7.253 1.034-14.507 1.065-21.76.118-30.551-.407-61.118.282-91.661.259-11.503 0-23.093 1.137-34.518.744-7.489-.047-14.97.995-22.325.823-5.803.901-11.543.964-17.338.016-1.294.133-2.611-.024-3.882-.297-2.431-1.536 1.075-2.006-.266-.172-.494-.29-1.098-.157-1.584 2.109-7.92.651-15.997 1.082-23.988.008-.188.031-.376 0-.557-.447-2.281 1.317-3.63 2.743-4.25.776-.337 2.539 1.38 3.738 2.321.447.353.556 1.13.815 1.71.157-.674.29-1.357.486-2.023.862-3.004-.447-6.258 1.089-9.191.149-.29.039-.729.016-1.097-.094-1.977.823-2.996 2.805-3.184 2.351-.228 1.238 1.6 1.701 2.556.454.949 1.802 2.462 2.084 2.329 1.27-.619 1.38-1.474.494-3.027-.807-1.403-.329-3.544-.415-5.355-.094-1.969.823-3.27 2.797-3.067 2.218.228 4.624 2.933 3.754 4.29-2.414 3.779-.117 7.238.141 10.813.204 2.823.87 5.615 1.035 8.43.188 3.137-.04 6.297.054 9.441.33 10.775.087 21.62 1.333 32.292.768 6.571.196 13.088.94 19.557 1.552 13.362 1.646 26.795 2.437 40.18.455 7.638-.125 15.354.956 22.874 1.795 12.453-.196 24.976 1.16 37.319 1.332 12.107.431 24.159.956 36.228.196 4.485.854 8.947 1.019 13.432.071 1.874-.423 3.851-.737 5.701-.556 3.302.666 6.932 1.372 10.382.109.534 1.551 1.294 2.171 1.138 7.374-1.875 14.873-2.11 22.412-2.204 2.994-.039 6.035-.47 8.95-1.168 1.011-.243 1.896-1.726 2.46-2.831.377-.737.071-1.819.071-2.745 0-4.258-.071-8.516.023-12.774.095-4.218.486-8.429.494-12.64 0-3.874-.878-7.818-.407-11.614 1.097-8.876-.51-17.667-.188-26.504.352-9.614.078-19.259.078-28.889V439.897c0-9.441-.125-18.89.047-28.331.102-5.411.611-10.814 1.136-16.201.094-.949 1.176-1.804 1.795-2.705.65.925 1.936 1.27 1.089 3.136-.838 1.851-1.175 4.391-.635 6.321 2.085 7.418 1.568 15.055.721 22.317-1.136 9.723-.517 19.353-.775 29.014-.251 9.441.611 18.953-.259 28.308-.729 7.763 1.842 15.55-.635 23.195 2.508 3.607-1.316 7.018-.321 10.649.642 2.36 1.089 4.862 1.121 7.301.431 41.325.783 82.65 1.152 123.983 0 .737.07 1.49-.016 2.219-.173 1.529.125 2.321 1.998 2.298 1.81-.024 2.892-.259 2.469-2.376-.071-.353-.024-.737-.008-1.106.368-9.104.047-18.31 1.316-27.288 1.137-8.054-.07-16.107 1.082-23.988 1.011-6.924-.016-13.911 1.121-20.647 1.418-8.414.391-16.773.963-25.124.236-3.411.055-6.799.055-10.194 0-4.29.502-8.603 1.058-12.869.619-4.712-.783-9.331-.172-14.099.603-4.736.133-9.613.133-14.428v-15.001c0-4.815.11-9.63-.039-14.444-.086-2.823.682-5.701-.956-8.501-.596-1.019.055-2.807.235-4.234.196-1.569 1.042-3.262.666-4.658-1.959-7.403.024-15.009-1.215-22.309-.987-5.811-.627-11.661-1.786-17.495-1.129-5.701-.283-11.802-.173-17.73.008-.47 1.027-1.176 1.669-1.317 1.779-.385 3.331.204 3.754 2.117.274 1.231.031 2.58.055 3.874.039 1.78.611 3.317 1.27 5.018 1.112 2.87 1.026 6.383.768 9.567-.361 4.548-1.811 9.034-1.952 13.574-.305 10.178-.211 20.372-.047 30.551.079 4.916.572 9.833 1.105 14.726.337 3.051-.807 5.968-.172 9.112.603 3.027-.251 6.328.243 9.402.47 2.925-1.489 5.458-.306 8.618.972 2.596.321 5.858.149 8.814-.102 1.717-.737 3.396-1.011 5.113-.149.902-.282 1.921-.008 2.752 1.74 5.278 1.724 10.508-.015 15.77-.165.502-.212 1.199 0 1.646 3.369 6.83-2.414 14.084.995 20.89-2.289 8.462.156 17.181-1.191 25.588-1.317 8.225.062 16.475-1.098 24.544-1.825 12.648-.352 25.273-.987 37.89-.086 1.741-.556 3.459-.878 5.184-.321 1.733 1.301 3.654 2.594 2.799 2.633-1.748 5.345-.792 7.97-.855 6.081-.141 11.99-1.38 17.977-2.132 5.831-.738 11.826-.267 17.743-.055 1.01.031 1.943 1.442 2.962 2.14 1.144.785 2.265 1.741 3.55 2.133 1.575.479 2.382.071 2.625-2.148 1.513-13.723.807-27.477 1.042-41.216.055-3.379-.854-6.892 1.043-10.115.243-.416.172-1.137.007-1.639-1.794-5.442.51-10.853.11-16.319-.407-5.528-.086-11.103-.086-16.663 0-.188.078-.431-.008-.549-1.027-1.372 1.857-2.4.094-4.18-1.74-1.764-3.566-1.419-5.517-1.584-3.55-.298-7.163-.423-10.619-1.207-1.825-.416-3.612-1.835-4.96-3.239-.839-.87-.815-2.564-1.176-3.889 1.505.039 3.315-.431 4.428.243 1.27.776 2.32 1.325 3.856 1.537 2.884.408 5.658 1.756 8.542 2.054 6.457.667 6.324.494 6.528-5.983.125-3.928-1.098-8.014 1.058-11.762-1.897-3.215.619-6.36.109-9.653-.501-3.254-.611-6.744-.008-9.967 1.419-7.614.157-15.354 1.184-22.866 1.473-10.798 1.653-21.604 2.265-32.425.407-7.073 0-14.272 1.152-21.172 1.034-6.234.517-12.327.799-18.475.18-3.96-1.473-5.317-5.611-5.403-4.867-.102-9.741.416-14.545-1.059-2.594-.792-5.078-1.411-5.838-4.454-.455-1.811-1.474-2.611-3.417-2.297-1.082.18-2.233.149-3.323 0-.94-.133-1.834-.573-2.75-.878.815-.808 1.583-2.251 2.452-2.322 7.053-.548 14.114-1.003 21.183-1.137 3.166-.062 6.348.714 9.537 1.028 2.594.258 3.534-1.082 3.503-3.6-.063-4.869-.204-9.715.94-14.569.455-1.929 1.231-1.718 2.5-1.843 1.732-.173 2.257.51 2.101 2.164-.424 4.29-.768 8.579-1.113 12.876-.071.918-.173 1.882.023 2.768.353 1.623 1.513 2.619 3.143 2.125.603-.188 1.081-1.474 1.214-2.329.204-1.262.102-2.587.04-3.881-.087-1.788.29-3.168 2.288-3.709 2.68-.722 2.86-3.459 1.99-4.799-1.308-2.008-.838-3.859-.901-5.764-.431-11.943-.29-23.933-1.356-35.82-.485-5.419-.736-10.806-.893-16.225-.023-.925-.251-1.952.063-2.752.36-.902 1.222-1.608 1.865-2.4.603.698 1.434 1.302 1.763 2.11.447 1.113.674 2.376.713 3.583.102 2.776-.219 5.584.102 8.32.298 2.51-.141 4.948-.078 7.418.384 16.695.744 33.398 1.128 50.093.016.517.188 1.027.282 1.544.525-.352 1.372-.596 1.521-1.066.979-3.137 2.954-2.368 4.937-1.317.627.329 1.113 1.497 1.583 1.458 4.858-.447 7.735 1.882 10.524 5.717 1.058 1.45 5.345 1.591 7.657.823 3.268-1.098 6.41-.847 9.6-.87 8.824-.071 17.577-.887 26.292-2.22.987-.149 2.061.353 3.103.494 1.583.22 3.37.941 4.725.471 5.18-1.788 10.454-.706 15.674-.996 3.612-.204 3.988-.455 4.02-4.172.055-7.222-.227-14.46.18-21.658.11-2-3.025-3.827-.227-5.779-2.21-3.404-.894-6.76.015-10.179.322-1.207.016-2.58.055-3.874.361-11.699.729-23.399 1.129-35.091.015-.486.329-.964.509-1.45.392.376.964.674 1.137 1.137.313.799.525 1.693.532 2.548.04 6.109.831 12.358-.164 18.302-1.583 9.52-.784 18.985-.831 28.458-.055 10.954.674 21.917.972 32.872.039 1.544.204 2.532 2.037 2.211.181-.032.369 0 .557 0 20.571.368 41.15.69 61.721 1.153 4.295.094 8.573.713 12.868 1.066 1.536.125 1.512.031.854-1.6-1.113-2.76-2.155-4.132-5.525-4.046-11.096.275-22.303-.831-33.282.353-11.935 1.286-23.784.267-35.657.823-.768.04-1.559-.392-2.343-.603.76-.393 1.489-.949 2.296-1.138 1.207-.282 2.477-.266 3.707-.454 4.083-.628 8.401 1.388 12.311-1.106 3.213 2.4 6.411-.157 9.632-.102 14.615.235 29.238.102 43.861.102 1.293 0 2.602-.11 3.879.039.941.102 1.85.533 2.767.824-.455-1.028-.776-2.133-1.395-3.051-.792-1.184-2.006-2.109-2.704-3.34-.815-1.435-2.515-3.458-.266-4.58 1.622-.808 4.71-1.098 5.799-.117 4.349 3.889 8.174 8.367 12.17 12.64.486.518.784 1.247 1.332 1.647.808.58 1.764.949 2.657 1.404-.219-.894-.18-2.008-.713-2.635-.933-1.106-1.654-1.882-.243-3.176.4-.361.266-1.357.298-2.062.384-10.03.689-20.067 1.152-30.096.164-3.561-.298-7.685 1.324-10.508 2.147-3.725 4.302-7.536 6.74-11.127.18-.267 1.112-.345 1.418-.126.329.243.604 1.231.439 1.38-2.038 1.827-.98 4.18-1.019 6.25-.141 7.402-.196 14.821-.015 22.223.195 7.81.673 15.621 1.089 23.431.149 2.737 1.998 5.434 4.498 5.254 2.68-.189 3.754 1.215 4.224 2.948.619 2.243 1.787 3.003 3.84 2.768 3.401-.384 7.1-.51 10.125.251 8.017 2.031 16.292-.862 24.129 1.968.329.118.736 0 1.105.016 13.173.369 26.347.659 39.512 1.176 2.649.102 3.903-.611 4.06-3.277.101-1.765.799-3.584.509-5.254-.173-1.004-1.591-2.118-2.696-2.549-1.128-.439-2.555-.094-3.848-.094-26.464 0-52.928.016-79.393-.039-1.293 0-3.714-.675-3.699-.847.283-2.925 2.61-1.231 3.833-1.239 21.652-.141 43.305-.259 64.957.047 3.934.055 7.978.024 11.975.808 2.453.478 5.219-.557 7.836-.981.478-.078 1.137-.36 1.317-.737.517-1.074.831-2.242 1.223-3.379 1.05.431 2.061 1.011 3.15 1.262 1.089.251 2.374-.11 3.354.306.917.392 1.465 1.584 2.343 2.172.988.651 2.132 1.357 3.26 1.451 5.76.494 11.528 1.043 17.303 1.09 4.287.039 8.652-1.341 12.853-.894 10.579 1.121 21.174.674 31.754 1.09 4.521.18 9.121.015 13.62.988 1.724.368 1.951-.541 2.123-2.125 1.395-13.158 1.043-26.356 1.003-39.545-.007-2.627-.587-5.27-1.081-7.873-1.426-7.544-3.127-15.041-4.357-22.616-.745-4.603-.823-9.308-1.16-13.973-.031-.486.259-1.42.392-1.42.635 0 1.371.11 1.881.463 2.821 1.96 2.719 5.301 3.15 8.093 1.081 7.049 1.473 14.201 2.398 21.274.353 2.705.713 5.912 2.327 7.834 2.218 2.627 2.022 5.269 2.046 8.116.031 4.446 0 8.892.008 13.33.023 6.995.87 13.888 2.163 20.757.368 1.968-.149 4.093.133 6.093.164 1.208-.126 2.752 2.813 1.929 2.939-.831 6.826-1.553 10.039.753.486.353 1.583.313 2.163 0 2.163-1.153 4.004-.706 6.371-.149 4.498 1.058 9.318.643 13.91 1.411 3.111.526 5.689-2.023 9.216-.36 2.719 1.286 6.551.125 9.866.305 2.085.11 4.271-.76 6.301.957.635.541 2.359-.298 3.597-.361 3.957-.196 7.923-.454 11.888-.431 2.092.016 4.177.573 6.269.902 2.806.439 4.781-.282 5.854-3.27.447-1.231 1.928-2.925 2.978-2.956 3.268-.102 2.774-2.071 3.143-4.235 1.222-7.065 1.348-14.248 2.343-21.29 1.426-10.131 1.269-20.49 4.177-30.425.784-2.69.987-5.591 1.105-8.414.07-1.725.964-1.89 2.061-1.561.564.165 1.309 1.137 1.277 1.71-.258 4.666-.509 9.347-1.097 13.981-.501 3.984-1.465 7.905-2.163 11.865-1.716 9.653-3.001 19.337-3.558 29.163-.219 3.881-.854 7.826-.893 11.77 0 .737-.212 1.568.047 2.203.392.933 1.121 1.718 1.708 2.572.894-.729 2.148-1.27 2.618-2.211 1.81-3.638 4.749-4.47 7.609-1.89.823.745 1.497 1.678 2.383 2.321.924.659 2.703 1.71 2.938 1.467 1.434-1.49-.478-2.094-1.183-2.949-2.594-3.129-3.182-6.398-1.277-8.759 1.12-1.388 2.476-2.76 3.103.479.11.58.987 1.011 1.512 1.513.173-.855.69-1.811.463-2.541-1.293-4.242-1.912-8.547-2.242-12.978-.423-5.645-1.41-11.244-2.139-16.859-.392-2.995-.854-5.983-1.089-8.986-.455-5.764-.792-11.543-1.113-17.315-.063-1.066-.157-2.329.337-3.168.556-.964 1.748-1.552 2.664-2.305.471.917 1.239 1.788 1.372 2.752.501 3.717.901 7.458 1.136 11.198.455 7.246.133 14.617 1.348 21.721.839 4.917.603 9.724.886 14.578.054.925-.165 1.897.047 2.768.368 1.49.979 2.917 1.489 4.376.227-1.483.626-2.957.658-4.439.094-4.07.172-8.155-.008-12.217-.188-4.117-.713-8.21-1.066-12.319-.352-4.109.118-8.171-.893-12.374-1.011-4.203.023-8.853-.306-13.276-.227-3.058-1.301-6.054.071-9.088.211-.463.086-1.185.407-1.475.627-.564 1.458-.909 2.202-1.348.243.603.682 1.199.706 1.811.415 8.916.376 17.879 1.23 26.748 1.301 13.55.972 27.1.972 40.658 0 1.898-.894 3.796-.902 5.686 0 1.874.549 3.756 1.004 5.598.07.291.916.62 1.332.534.337-.063.76-.698.791-1.114.102-1.286.039-2.588.039-3.889 0-19.816-.062-39.632.047-59.44.024-4.289.635-8.586 1.105-12.868.087-.784.659-1.709 1.294-2.172.36-.266 1.872.22 1.896.447.165 1.835.423 3.78-.008 5.521-.368 1.49 1.803 2.485.243 4.226-.737.824-.141 2.847-.141 4.329 0 10.555.909 21.211-.259 31.633-1.128 10.092-.235 20.106-.901 30.119-.172 2.627.384 3.647 3.229 3.325 3.503-.392 7.147.581 10.368-1.858 1.512-1.145 2.656-.675 3.448 1.466 1.277 3.474.141 5.819-3.433 5.881-2.037.04-4.075-.078-6.104.032-1.912.11-4.945 2.995-5.235 4.791-.4 2.462.58 3.811 3.017 4.062.729.078 1.481.008 2.218.008h59.402c5.3 0 5.3-.032 5.31-5.654.01-7.959-.03-15.926.05-23.886.01-.893.36-2.281.98-2.587 1.95-.973 2.39.823 2.8 2.117.37 1.161.57 2.415.58 3.638.08 4.447.14 8.893 0 13.331-.11 3.403.99 6.76.16 10.218-.18.745 1.04 2.407 1.93 2.697 1.28.416 3.36.494 4.15-.266.78-.745.76-2.847.39-4.149-2.06-7.198-.59-14.53-1.03-21.783-.05-.926-.28-1.977.05-2.745.51-1.153 1.43-2.941 2.24-2.972 1.5-.071 2.13 1.364 2.18 3.09.26 7.629.67 15.251 1.09 22.874.08 1.38.58 2.728.77 4.116.27 1.843 1.44 2.533 2.97 1.922 4.77-1.906 9.7-.863 14.55-1.036 7.34-.266 14.62-.917 21.86-2.187 2.34-.408 4.83-.275 7.2.039.94.125 2.13 1.27 2.47 2.211.25.706-.43 2.117-1.13 2.737-2.35 2.101-5.43 2.054-8.17 1.521-6.45-1.254-13.21-1.027-20.22-.047-5.09.714-10.34.126-15.52.141-3.66.016-3.77.039-3.67 3.851.31 11.699.13 23.454 1.33 35.067.6 5.811.31 11.59.91 17.338 1.21 11.707 1.76 23.438 2.45 35.177.26 4.635.14 9.41.95 13.982 1.17 6.524.15 13.166 1.25 19.518.88 5.112.59 10.1.83 15.142.47 9.653.7 19.321 1.17 28.982.28 5.827 3.66 10.492 6.85 14.899 8.69 11.959 15.32 25.046 21.98 38.142.16.298.11.768.33.964 4.49 4.219 2.58 8.861.71 13.363-.44 1.042-1.98 2.423-2.88 2.328-2.88-.282-6.05 2.157-8.73-.862-.33-.377-2.06-.196-2.47.29-1.93 2.274-4.15 3.435-7.17 3.003-.22-.031-.87 1.051-.83 1.577.12 1.756.54 3.481.7 5.238.2 2.172.24 4.352.35 6.524.11 1.866.07 4.242-2.17 4.179-1.82-.047-3.21-1.78-3.46-4.163-.29-2.737-1.75-5.419-1.7-8.109.08-5.253-2.74-9.77-2.92-15.048-.15-4.642-.86-9.512-4.05-13.817-4.94-6.673-8.82-14.122-13.5-21.015-7.98-11.77-15.16-24.019-22.187-36.362-.948-1.67-2.311-3.097-3.291-4.752-6.606-11.142-13.158-22.325-19.733-33.483-1.927-3.278-3.847-6.564-5.838-9.802-3.26-5.325-6.739-10.516-9.827-15.934-5.11-8.971-9.812-18.177-15.086-27.046-1.144-1.913-.407-4.964-3.307-5.826-.211 2.305-.595 4.603-.611 6.908-.07 9.63-.321 19.267.024 28.889 1.371 38.729.971 77.467 1.105 116.204.007 2.808.415 5.693 1.128 8.414.909 3.474 3.699 5.137 7.633 5.144 8.887.008 17.844.761 26.629-.172 14.302-1.521 28.591-.455 42.861-.98 2.82-.102 5.61-.777 8.42-1.051 2.31-.22 3.24 1.051 3.24 3.293 0 2.212-.86 3.568-3.2 3.325-2.45-.251-4.87-1.027-7.32-1.035-23.312-.078-46.634-.055-69.948-.039-4.867 0-5.713 1.2-5.141 6.109.196 1.693-.282 3.52-.737 5.214-1.191 4.517-.345 6.062 4.099 6.407 2.171.172 3.675.839 3.299 3.183-.204 1.294-1.042 2.533-1.787 3.678-.956 1.474-2.029 1.192-3.111 0-.063-.07-1.622.784-1.606 1.153.149 2.658.572 5.301.83 7.959.141 1.451.071 2.917.212 4.368.274 2.823-.141 5.583.854 8.508.737 2.156-.384 5.215-1.363 7.591-.479 1.16-2.751 2.564-3.786 2.282-1.387-.377-2.985-2.102-3.377-3.553-1.089-4.046-1.826-8.218-2.288-12.389-.596-5.38-1.145-10.806-1.019-16.193.062-2.682-2.116-2.039-3.057-3.082-.579-.643-2.468-.031-3.753-.141-3.37-.282-6.881.839-10.125-1.035-.439-.259-1.325.251-1.999.4.196.635.275 1.341.612 1.882 2.296 3.67 2.202 7.01-.533 9.041-.572.423-2.061.423-2.578-.016-2.634-2.242-3.308-5.371-3.104-8.649.126-2.094-.384-2.737-2.656-2.784-10.956-.211-21.974-.039-32.828-1.239-8.589-.949-17.201.04-25.626-1.137-5.83-.807-11.559-.69-17.334-.847-5.588-.156-6.372.636-7.077 6.156-.141 1.09.212 2.305-.149 3.278-.376 1.027-1.175 2.094-2.084 2.674-.925.596-3.018.384-3.182.941-.447 1.537-.745 3.615-.039 4.893 1.771 3.176.619 6.422.979 9.606.243 2.149-.548 3.685-2.985 3.489-1.967-.156-2.61-1.466-2.579-3.395.086-5.183.063-10.367 0-15.558-.015-1.419-.109-2.885-.478-4.242-.776-2.847-.87-2.87-3.996-2.313-2.046.36-3.644-.306-3.88-2.353-.595-5.183-4.631-5.089-8.165-5.371-3.864-.306-7.774.07-11.653-.102-5.282-.235-10.549-.855-15.83-1.035-5.549-.189-11.23.69-16.622-.236-6.191-1.058-12.303-.768-18.447-.87-2.453-.039-4.922-.463-7.39.925-1.113.62-3.072-.368-4.655-.486-2.892-.219-5.815-.572-8.675-.337-.855.071-2.218 1.913-2.226 2.948-.024 4.117-.572 8.595 4.326 10.892.595.283 1.042 1.482 1.066 2.267.101 4.438.203 8.9-.079 13.322-.063.934-1.63 2.329-2.68 2.51-1.434.251-3.55 1.16-4.153-1.749-.768-3.701-2.414-7.245-2.939-10.962-.752-5.348-.917-10.79-1.168-16.193-.109-2.345-1.175-3.2-3.385-3.192-9.992.032-19.991-.086-29.983.063-3.55.055-7.265 1.521-10.595.831-3.425-.706-6.826-1.262-10.117-.776-8.354 1.231-16.724 1.011-25.093.956-1.975-.015-1.991.918-1.928 2.345.29 6.963 1.442 13.864 1.959 20.765.423 5.606 2.108 10.617 3.542 15.84.423 1.552.392 3.403-.047 4.948-.305 1.09-1.614 2.58-2.531 2.627-.933.039-2.633-1.357-2.79-2.329-.658-4.062-.901-8.187-1.222-12.296-.408-5.246-.753-10.492-1.121-16.295m112.15-118.337c.345.023.69.055 1.027.078-.345-.212-.69-.423-1.027-1.192l-1.826-1.513c-.133.29-.407.807-.376.831.713.447 1.458.831 2.202 1.788m-158.237 61.666c-1.63.894-3.26 1.78-4.89 2.674.203.22.525.667.587.627a128.826 128.826 0 0 0 4.843-2.775c.079-.048.008-.346.565-.526.556-.368 1.112-.737 2.217-1.113 1.348-.737 2.876-1.271 4.005-2.259 4.294-3.772 9.333-6.861 11.747-12.413.196-.455.204-.988.298-1.49-.517.18-1.176.22-1.536.573-2.508 2.423-4.906 4.963-7.437 7.371-2.437 2.313-3.981 5.661-7.617 6.634-.141.039-.016 1.035-.572 1.591-.557.369-1.113.738-2.218 1.114m58.297-170.555c0 .353-.079.722.015 1.043.173.596.353 1.231.737 1.686.125.149 1.262-.219 1.269-.384.032-.596-.078-1.318-.415-1.78-.368-.502-1.058-.761-1.606-1.678 0-.549.18-1.192-.032-1.631-.572-1.169-1.293-2.267-2.022-3.341-.07-.102-.807.031-.932.235-1.168 1.953 1.019 2.314 1.677 3.411.392.651.87 1.255 1.309 2.439m178.22-40.557c4.553 1.537 9.279 1.067 13.95 1.098 5.728.039 11.457-.086 17.178.032 15.179.313 30.359.674 45.53 1.137 2.626.078 5.227.76 7.861 1.019.478.047 1.159-.517 1.481-.988.141-.204-.29-1.098-.666-1.286-.91-.455-1.92-.925-2.908-.972-7.978-.361-15.963-.534-23.933-.886-18.988-.824-38.039-.275-57.066-.22-.666 0-1.325.69-2.539 1.066-.024.345-.055.691-.079 1.028.212-.345.423-.69 1.191-1.028m-300.37 70.559c.251 6.705.486 13.409.87 20.106 1.066 18.506.885 37.083 1.395 55.62.282 10.218-.329 20.404.846 30.669 1.348 11.77 1.035 23.736 1.309 35.617.157 6.728.031 6.728 6.998 6.32.368-.024.737 0 1.113 0 8.565.063 16.457-2.431 24.129-6.077 15.038-7.136 27.028-17.597 36.064-31.61 4.412-6.838 8.346-13.856 11.332-21.423 2.735-6.932 6.747-13.511 5.916-21.447-.047-.486.22-1.004.361-1.505 1.026-3.639.47-4.713-3.111-4.556-5.251.227-10.462-.589-15.744-.149-5.149.423-10.352.125-15.532.078-2.116-.024-4.483.721-5.972-1.647 1.991-.557 3.966-1.16 5.972-1.647.697-.164 1.473-.023 2.217-.023 4.992 0 10-.157 14.984.047 4.107.165 7.892-1.545 12.28-.768 4.326.76 4.443-.298 4.538-5.294.203-10.594.133-21.156.862-31.774.94-13.636.203-27.383.25-41.09.008-3.199.079-6.657-.501-9.512-.706-3.497-1.34-7.308-.369-10.123 2.046-5.92-.501-11.331-.297-16.946.015-.447-.369-.972-.69-1.364-4.036-4.815-8.056-9.645-12.209-14.358-.588-.667-1.889-.988-2.861-1.004-12.248-.219-24.513.447-36.738-1.066-4.193-.518-8.503-.087-12.758-.087-4.255 0-8.887.181-13.322-.054-3.966-.204-7.876 1.121-11.865.094-1.787-.463-3.048-.079-2.86 2.47.54 7.426.76 14.875 1.183 22.309.408 7.254-.219 14.468.87 21.792 1.332 8.963.972 18.177 1.34 28.386m-78.837-43.332c-.203 7.63-.352 15.244-.901 22.882-1.277 17.933 1.027 35.993-1.238 53.965-.274 2.173.987 4.502.948 6.744-.055 3.403.102 6.791.086 10.186-.023 3.702 0 7.403 0 11.104 0 1.114-.133 2.243.063 3.325.086.471 1.199 1.192 1.207 1.184 3.127-3.199 6.285.894 9.608-.086 3.205-.949 6.755-.831 10.164-.941 4.247-.141 8.51-.032 12.766-.032 1.112 0 2.319.291 3.315-.047 6.794-2.329 13.784-.431 20.649-1.019.337-.031.721.557 1.089.855-.407.439-.775 1.223-1.23 1.27-4.091.463-8.189.988-12.303 1.121-6.889.228-13.762-.031-20.65 1.051-5.682.894-11.528.737-17.272 1.318-1.058.109-2.774 1.497-2.813 2.376-.149 2.932-1.583 4.948-3.401 7.002-.729.824-1.176 2.251-1.121 3.364.196 3.741.682 7.473 1.042 11.206.376 3.921.541 7.873 1.207 11.739.306 1.78 1.614 3.379 2.437 5.081 1.481 3.058 3.919 5.458 5.752 8.202 5.447 8.156 12.194 14.562 20.689 19.495 8.934 5.191 18.479 8.312 28.486 10.319.831.165 1.677.29 2.508.431-.658-.619-1.238-1.388-2.006-1.827-1.332-.752-2.798-1.27-4.185-1.944-2.163-1.043-4.639-1.741-6.387-3.27-5.634-4.917-11.191-9.959-16.41-15.315-2.931-3.003-5.25-6.642-7.586-10.163-.681-1.035-2.398-2.501-.109-4.077 2.069-1.427 2.641.462 3.463 1.333 4.655 4.877 9.287 9.786 13.746 14.844 5.627 6.367 12.601 10.931 20.195 14.272 4.482 1.968 8.926 4.634 14.184 4.65 2.712.008 4.248-.824 3.95-3.725-.314-3.003-.909-5.983-1.066-8.987-.572-11.315-.306-22.638-.846-33.985-1.058-22.388.07-44.862-1.356-67.281-.337-5.348.361-10.774-.172-16.091-.486-4.917-.235-9.825-.815-14.758-1.011-8.657-.855-17.447-1.309-26.175-.392-7.434.313-14.836-.854-22.349-1.168-7.465-.126-15.204-1.199-22.85-.792-5.599-.204-5.677-6.23-4.964-.369.047-.737 0-1.113 0l-56.706 1.106c-1.473.031-3.017-.235-4.404.125-1.027.267-2.438 1.169-2.657 2.039-.666 2.737-1.089 5.583-1.168 8.399-.164 5.92-.047 11.848-.047 18.882m379.764 110.002v77.726c0 1.294-.133 2.611.031 3.882.259 2.015 3.103 4.399 5.995 4.265 1.364-.062 3.307-1.638 3.856-2.987 2.829-6.971 5.211-14.123 7.907-21.149 3.244-8.461 6.551-16.899 10-25.281 3.189-7.748 7.013-15.252 9.842-23.117 5.157-14.358 11.489-28.183 17.899-41.992.651-1.404 1.591-2.674 2.187-4.093 3.557-8.516 7.045-17.064 10.579-25.595a3123.424 3123.424 0 0 1 8.323-19.871c2.931-6.924 5.869-13.856 8.894-20.741 2.375-5.419 2.43-11.253 3.307-16.946.086-.541.243-1.294-.023-1.639-2.649-3.372-2.32-7.59-3.245-11.425-.462-1.905-1.379-2.666-3.291-2.737-9.098-.313-18.189-.666-27.279-1.097-9.459-.455-18.894.305-28.424-.855-9.294-1.129-18.831-.228-28.267-.259-1.951 0-1.661.486-.634 1.662.368.424.094 1.412.125 2.141.408 9.841.392 19.683.831 29.532 1.097 24.607-.337 49.284 1.301 73.922.564 8.477.086 17.017.086 26.646m-146.02-46.108c-1.05-1.42-1.991-2.925-3.158-4.235-3.746-4.211-7.743-8.21-11.324-12.546-5.768-6.987-11.434-14.076-16.841-21.345-2.343-3.153-3.95-6.854-5.862-10.32-.243-.439-.329-.972-.486-1.466-.212.596-.658 1.215-.596 1.78.29 2.635-.015 5.199.8 7.951.838 2.823-.721 6.274-.8 9.457-.266 11.331.126 22.647-1.003 33.986-.799 8.069-.156 16.271-.156 24.418 0 1.294.54 3.184-.102 3.78-1.999 1.843.423 3.129.305 4.76-.203 2.964 2.673.996 4.099 1.545.799.306 1.646.604 2.492.674 3.879.329 7.805 1.561 11.575-.666 1.426-.839 3.542-2.353 4.467-1.875 2.75 1.443 6.457.847 8.424 3.764.549.816 1.175 2.259.823 2.855-.525.894-1.818 1.529-2.908 1.858-1.018.306-2.382.439-3.275 0-3.472-1.694-7.116-.776-10.674-1.051-2.461-.188-4.843.063-7.382-.909-2.194-.839-5.556-.808-7.374.4-1.113.737-.941 4.642-.196 6.712 1.755 4.885.447 9.779.737 14.64.078 1.357-.635 3.082-3.19 2.102-3.205-1.231-3.362-.941-3.354 2.619.008 9.112.274 18.2.917 27.32.776 10.869.18 21.831.18 32.755 0 1.113-.274 2.321.086 3.301.322.862 1.928 2.141 1.983 2.094 2.382-2.063 4.686.886 6.928.078 3.354-1.208 6.817-1.082 10.281-1.09 8.691 0 17.398.204 26.081-.063 8.91-.274 17.898 1.2 26.746-1.003.98-.244 2.155.031 3.174.305 5.258 1.451 5.869 1.145 5.752-4.109-.267-11.88-.643-23.76-1.16-35.632-.07-1.568.298-3.223-.016-4.611-1.559-6.916-.862-13.903-.987-20.851-.133-7.214-.086-14.436 0-21.658.031-2.447-.157-4.493-2.21-6.36-2.374-2.148-4.553-4.657-6.293-7.355-7.413-11.519-17.186-21.055-26.503-31.994m78.288 62.78c7.844 8.218 15.681 16.452 23.549 24.654 2.155 2.251 4.373 4.431 6.622 6.587.329.314 1.089.525 1.442.353.337-.165.705-1.059.548-1.333-1.457-2.517.141-4.964.055-7.434-.055-1.662.651-3.787-.125-4.917-2.955-4.305 1.16-8.931-.995-13.134 2.068-2.784 1.042-5.983 1.057-8.979.094-22.207.016-44.415.102-66.614.008-2.439 1.442-5.05.933-7.285-2.053-8.908-.408-17.863-.972-26.771-.494-7.795.549-15.59-.948-23.447-1.207-6.351-.995-12.978-1.254-19.494-.196-4.909-.078-4.956-4.906-4.972-10.172-.023-20.344.079-30.516-.062-3.181-.04-6.347-.973-9.529-.981-2.986-.007-5.971.855-8.973.957-1.99.071-2.852.282-2.813 2.651.078 5.716 1.559 11.103 3.025 16.538.251.925-.032 1.991-.063 2.995-1.128-.314-2.719-.274-3.299-1.027-1.246-1.592-2.022-3.568-2.908-5.427-1.951-4.101-2.351-8.461-2.311-12.954.007-1.255-.996-2.517-1.536-3.772-.572 1.208-1.176 2.408-1.693 3.639-.133.313 0 .729-.024 1.098-.501 10.021.251 20.019-.854 30.104-1.097 9.974-.509 20.152-1.246 30.245-.58 7.912-.07 15.902-.157 23.862-.015 1.552-.681 3.081-.791 4.642-.313 4.595-1.332 9.221 2.563 13.174 8.62 8.751 17.005 17.745 25.547 26.575 4.608 4.76 9.357 9.386 14.043 14.076 5.337 5.34 10.627 10.742 16.042 16.004 2.445 2.376 5.196 4.439 7.742 6.713 1.803 1.607 2.947 3.646 2.555 6.108-.149.933-.925 1.953-1.716 2.502-.329.227-1.622-.541-2.171-1.129-3.197-3.459-6.238-7.058-9.459-10.493a3120.688 3120.688 0 0 0-21.566-22.709 8328.338 8328.338 0 0 0-30.61-31.719c-.893-.918-2.069-1.553-3.119-2.313.329 1.49.502 3.042 1.034 4.462.298.792 1.2 1.356 1.834 2.015 11.771 12.146 23.534 24.293 35.861 36.996m129.367-17.22c-1.669 4.125-2.86 8.524-5.094 12.312-4.733 8.014-7.468 16.93-11.935 25.085-3.668 6.689-5.611 14.311-8.495 21.447-4.106 10.17-7.218 20.568-8.44 31.523-.157 1.388-1.497 3.591-2.547 3.748-3.973.612-4.412 4.831-7.272 6.422-.165.095-.204.863-.04 1.012.22.196.721.141 1.082.094 1.411-.157 2.813-.486 4.216-.51 4.812-.062 9.623.055 14.427-.039 17.421-.337 34.842-.815 52.271-1.011 2.907-.032 3.628-.761 3.526-3.6-.768-22.05 1.144-44.14-1.081-66.191-.933-9.237-.188-18.545-.925-27.876-.987-12.618-.392-25.345-2.414-37.946-.854-5.324-.815-10.79-1.207-16.185-.039-.502-.274-.996-.415-1.49-.525.439-1.34.784-1.52 1.333-.588 1.804-.635 3.835-1.434 5.513-5.831 12.217-11.802 24.364-17.719 36.534-1.497 3.082-2.962 6.179-5 9.817m98.272-63.893c1.113 1.576 2.421 3.051 3.299 4.744 4.577 8.822 8.659 17.934 13.644 26.521 8.818 15.173 18.008 30.127 25.258 46.155.14.314.34.596.52.894.2-.274.58-.564.55-.815-.14-1.592-.24-3.2-.59-4.745-.42-1.842-1.44-3.607-1.53-5.442-.28-5.402-.64-10.805-.98-16.2-1.1-17.017.09-34.072-1.07-51.159-1.38-20.498-.98-41.113-1.35-61.682-.07-3.889-.49-4.36-4.37-4.368-19.597-.031-39.196-.015-58.788-.015-.924 0-2.045-.322-2.719.086-.697.431-1.559.666-1.097 2.611 2.069 8.798 6.716 16.499 9.796 24.85 2.359 6.383 6.246 12.202 9.435 18.287 3.346 6.383 6.669 12.774 10 20.278m-331.459-73.891h-7.217c-.925 0-1.913-.196-2.759.062-.627.196-1.066.981-1.591 1.506.58.22 1.168.431 1.748.659 3.808 1.458 4.569 3.317 2.805 6.987-.446.933-1.011 1.803-1.559 2.681-1.536 2.463-1.136 9.206.588 11.253 5.775 6.846 11.441 13.801 17.295 20.584 7.899 9.159 15.846 18.295 23.941 27.281 8.785 9.74 17.766 19.306 26.66 28.944.369.4.784.76 1.176 1.137.18-.479.556-.988.501-1.443-.964-8.493 3.017-16.734 1.168-25.282-.807-3.732.462-7.48.117-11.299-.321-3.553.784-7.207.925-10.822.463-11.692.776-23.383 1.144-35.075.047-1.474-.556-3.419.165-4.329 1.794-2.258.627-4.611.925-6.877.313-2.392-1.246-2.854-3.174-3.975-2.821-1.632-4.882.862-6.951.133-4.162-1.474-8.401-.384-12.555-.714-14.027-1.129-28.204.682-43.36-1.396m269.275 224.999c0 2.965.11 5.929-.031 8.885-.134 2.776.948 3.983 3.777 3.921 4.992-.102 9.999-.235 14.976.07 2.092.126 2.453-.972 2.86-2.289.361-1.169.619-2.423.596-3.631-.118-6.893.227-13.762-.925-20.671-.807-4.861-.157-9.966-.157-14.969v-14.993c0-4.995-.407-10.038.118-14.978.509-4.752-1.991-9.394-.118-14.083-2.186-2.102-.188-4.188-.102-6.305.094-2.235-.909-4.493-.964-6.752a8746.47 8746.47 0 0 1-1.136-57.29c-.11-6.666-.023-13.323-.016-19.988 0-2.745-.172-5.482-1.144-8.046-1.747-4.642-3.667-9.214-5.532-13.809-.149-.369-.478-.667-.729-.996-.133.502-.18 1.043-.408 1.498-4.788 9.865-9.6 19.714-14.403 29.571-1.129 2.305-3.033 4.579-3.182 6.955-.431 6.822-.58 13.723-.039 20.529.642 8.093 2.429 16.091 3.134 24.176.776 8.884.322 17.816.941 26.763 1.238 17.738.995 35.586 1.363 53.386 0 .188-.031.376 0 .557.322 1.529.902 3.058.917 4.595.039 2.478-.274 4.964-.478 7.449-.07.871-.729 2.141-.368 2.518 2.006 2.101.627 4.579 1.034 7.935M712.43 614.122c.369 7.622.901 15.244 1.019 22.866.039 2.627.478 3.403 3.276 3.317 16.864-.517 33.729-.831 50.601-1.168 4.435-.087 8.879 0 13.322-.032.51 0 1.019-.211 1.528-.321-.25-.392-.439-.839-.752-1.169-5.877-6.273-11.794-12.507-17.64-18.796-3.456-3.725-6.842-7.512-10.211-11.315-8.386-9.473-16.794-18.938-25.093-28.481-2.195-2.525-4.036-5.348-6.05-8.03-3.613-4.799-7.21-9.606-10.885-14.358-.369-.47-1.223-.564-1.85-.839-.125.627-.431 1.278-.345 1.866.173 1.192.8 2.345.831 3.521.423 15.95.752 31.9 1.191 47.85.04 1.333.698 2.658 1.066 5.097m-441.947-9.998c.368 6.877.682 13.762 1.144 20.639.141 2.086.737 4.132 1.066 6.203.353 2.219 1.363 4.665.791 6.634-1.583 5.449-.133 10.923-.838 16.31-.306 2.337 2.069 2.564 2.594 2.564 1.763 0 3.785-.439 5.195-1.427.863-.604 1.058-2.525 1.105-3.874.134-4.25.047-8.516.047-12.766s.063-8.516-.015-12.774c-.086-4.375-.58-8.759-.4-13.119.165-3.92-.298-7.747-.486-11.605-.815-17.22.596-34.503-1.261-51.731-.431-4.023.258-8.171-.157-12.202-.392-3.795-.361-7.638-.705-11.425-.212-2.313-.855-4.854-.408-7.395.439-2.517.243-5.175.055-7.755-.188-2.635-.893-5.238-1.035-7.873-.462-8.539-.799-17.087-1.136-25.634-.392-9.841-.737-19.683-1.136-29.524-.024-.502-.282-.988-.431-1.482-.525.455-1.34.816-1.505 1.372-.298 1.02-.251 2.149-.258 3.231-.063 9.175-.337 18.326-.964 27.501-.831 12.209-.706 24.497-1.019 36.738-.76 29.406-.243 58.851-.243 89.386m763.969-42.219c-.37-1.514-.99-3.011-1.06-4.541-.45-8.17.44-16.341-1-24.552-1.06-6.006.08-12.24-1.09-18.427-.96-5.074-.38-10.383-1.09-15.636-.97-7.152.06-14.468-1.16-21.753-1.03-6.211-.14-12.594-1.02-18.985-1.25-8.978-.97-18.169-1.33-27.273-.05-1.105.03-2.219-.01-3.332-.12-3.208-.73-3.811-3.79-3.851-3.15-.031-3.82.565-3.97 3.655-.05.925-.01 1.85 0 2.776.02 13.801-.14 27.602 1.04 41.38.44 5.144.07 10.358.07 15.542 0 5.183.55 10.076-.15 14.969-.71 4.972 2.52 9.716.29 14.594 2.45 10.703-.08 21.682 1.94 32.479 1.18 6.36.77 13.002 1.33 19.495.16 1.819.94 3.701 1.86 5.301 2.95 5.089 6.08 10.076 9.2 15.071.36.58 1.1.91 1.67 1.365.09-.636.38-1.326.22-1.89-1.05-3.741-2.01-7.473-1.94-11.418.09-4.626.02-9.253.02-14.993M414.936 433.012c-.368-1.144-1.019-2.274-1.058-3.426-.141-3.694 0-7.403-.078-11.104-.024-1.27-2.939-3.145-4.318-2.596-.62.243-.988 1.522-1.176 2.4-.47 2.227-.98 4.485-1.105 6.752-.321 5.959.18 11.895-1.003 17.886-.964 4.893-.282 10.006-1.042 15.087-.988 6.572-.47 13.347-1.144 20.067-1.058 10.508-.925 21.141-1.293 31.719-.016.369.117.792-.016 1.106-2.79 6.509.548 13.676-2.202 20.184 1.457 2.282-.4 4.525-.079 6.862.353 2.54.04 5.167.094 7.763.055 2.548-.752 6.077.573 7.363 1.363 1.318 4.85.486 7.405.494 2.665 0 3.926-1.184 4.216-3.952.408-3.976.862-7.951 1.097-11.943.439-7.426.204-14.844.894-22.317 1.23-13.276 1.175-26.685 1.277-40.039.055-7.434-.784-14.86-.995-22.302-.18-6.289-.039-12.578-.039-19.98m-16.653 178.89v36.628c0 1.851.11 3.71-.031 5.544-.134 1.655.893 2.18 1.943 1.647 3.103-1.552 6.355-.902 9.553-1.043 3.699-.157 4.028-.392 4.059-4.117.055-7.582-.047-15.173.055-22.756.031-2.039 1.183-4.219.745-6.085-1.168-5.003-1.293-9.818.25-14.758.4-1.278.212-2.995-.305-4.258-2.492-6.038-2.053-12.515-2.806-18.773-.956-7.92-.87-15.957-1.269-23.94-.032-.667-.173-1.498-.588-1.945-.596-.635-9.655 1.498-10.047 2.329-.29.612-.431 1.349-.431 2.031-.062 9.112-.023 18.193-.979 27.305-.729 6.955-.149 14.044-.149 22.183m410.859 25.556c0 3.239 2.523.926 3.652 1.671.266-.769.658-1.522.76-2.314.133-1.098.047-2.219.031-3.325-.517-40.548 1.051-81.121-1.026-121.662-.541-10.516.047-21.094-.11-31.633-.266-18.169-.682-36.33-1.128-54.491-.047-1.89-.666-3.772-1.121-5.631-.039-.149-1.128-.29-1.207-.141-.415.737-.909 1.569-.917 2.368-.133 9.293-.58 18.577-.917 27.862-.509 13.879.862 27.814.808 41.717-.102 25.015-.667 50.022-1.035 75.036-.016.926.282 1.976-.047 2.753-1.646 3.811-1.505 7.473-.055 11.354.502 1.341.032 3.239-.454 4.729-1.113 3.419-1.199 7.002.964 9.621 1.645 1.992 1.786 3.796 1.833 5.968.079 4.023-.579 8.281.525 12.013 2.367 7.983 2.469 15.707-.532 24.129m-94.385 6.665c-2.28 2.149-.737 4.878-1.066 7.316-.305 2.267.996 3.443 3.237 3.215 4.098-.407 8.299 1.004 12.35-.995 1.192-.589 3.229-.628 4.334.015 2.782 1.616 5.658.933 8.479.965 8.511.11 17.014.039 25.524.039 1.293 0 2.696-.322 3.872.055 8.612 2.76 17.695-.565 26.291 2.148.29.095.674-.117 1.019-.18-.157-.392-.211-.902-.493-1.16-3.535-3.27-6.293-7.489-11.215-9.089-.877-.282-2.076-.949-2.288-1.686-.698-2.392-2.398-2.329-4.279-2.321-6.473.031-12.946-.071-19.419.063-1.889.039-4.271 1.584-5.541.87-2.539-1.427-4.991-.894-7.413-.847-4.294.094-8.565.871-12.86.988-6.653.181-13.314.047-20.532.604m143.802 18.334c-2.249.368-4.764 1.568-6.692.949-4.686-1.522-9.349-.73-14.004-.902-2.814-.102-6.113-1.137-7.688 2.705-.157.392-1.285.337-1.912.596-.839.345-1.638.784-2.461 1.184.784.565 1.497 1.325 2.367 1.655.964.361 2.077.4 3.127.47 7.045.463 14.074.079 21.19.832 8.675.917 17.531.854 26.308 1.34 5.712.314 11.457-.062 17.178.102 4.106.118 8.204-.58 12.334.949 2.869 1.059 4.71-1.286 4.115-4.454-.384-2.062-.972-4.117-1.066-6.195-.22-4.728-.126-4.893-5.11-4.736-6.01.196-12.013.855-18.024 1.027-6.457.188-12.93.039-19.396.039-3.887 0-7.306 1.483-10.258 4.447m-429.73-35.554c-1.959-2.329-4.043-4.556-5.822-7.011-1.403-1.936-2.39-4.171-3.636-6.226-.298-.486-.878-.807-1.325-1.207-.29.556-.83 1.113-.838 1.67-.047 12.366 0 24.732-.063 37.098-.008 2.596 1.128 3.561 3.636 3.482 3.135-.102 6.356-.463 9.388.086 3.621.667 5.76-2.391 8.942-2.666 6.019-.509 12.006-1.38 18.024-1.819 1.842-.133 3.738.729 5.627.996.643.094 1.356-.243 2.03-.384-.588-.596-1.066-1.506-1.779-1.749-13.017-4.446-23.878-12.217-34.184-22.27Zm220.978 26.669c6.52-.463 13.04.894 19.568.016.729-.094 1.685-.314 2.179.039 2.484 1.757 5.242.996 7.883 1.027 7.194.094 14.396.032 21.598.032 7.202 0 7.335 0 7.194-7.654-.039-2.054-1.011-2.509-2.32-2.823-1.716-.408-3.785-1.105-5.227-.509-3.73 1.536-7.484.909-11.222.948-20.03.189-40.076-.533-60.083 1.153-.698.055-1.983.149-1.999.314-.172 1.968-.454 4.015-.047 5.897.157.713 1.999 1.466 3.096 1.49 6.089.141 12.178.07 19.38.07m140.965-247.834c-.768-.368-1.536-1.05-2.311-1.066-13.754-.227-27.515.345-41.26-1.051-6.215-.627-12.539-.11-18.816-.11-6.277 0-5.964 0-5.909 6.046.047 5.027.047 5.05 5.329 5.058 10.336.016 20.673-.071 31.002.055 2.805.031 5.799 1.498 8.354.87 3.957-.964 7.836-.87 11.762-.901 2.884-.024 4.42-1.53 4.569-4.227.118-2.117.564-3.474 2.994-3.599 2.625-.141 4.827 1.466 4.623 3.45-.345 3.372 1.959 3.231 3.684 3.897 2.774 1.067 3.064.808 3.189-2.023.188-4.266-2.218-6.399-7.217-6.399m211.535 165.003c-1.85-2.752-3.802-5.434-5.534-8.257-3.064-5.003-5.885-10.155-9.004-15.134-4.608-7.363-9.404-14.601-14.083-21.925-3.996-6.258-6.794-13.143-11.182-19.283-6.615-9.261-11.967-19.423-18.025-29.092-.736-1.176.047-4.164-2.813-3.137-.274.094.078 3.278.823 4.658 3.769 6.963 7.758 13.817 11.7 20.694 4.545 7.928 9.177 15.801 13.675 23.752 4.655 8.234 8.926 16.703 13.831 24.78 5.862 9.653 12.782 18.686 18.228 28.551 8.304 15.017 18.084 29.085 26.814 43.819 1.93 3.27 3.87 6.54 5.89 9.763.31.509 1.02.768 1.54 1.145-.04-.636.13-1.373-.14-1.882-2.56-4.862-5.21-9.685-7.8-14.531-5.76-10.751-11.45-21.541-17.29-32.237-1.99-3.646-4.41-7.057-6.63-11.692m-378.652 46.666c0-6.469-.141-12.947.079-19.416.078-2.298-1.176-4.54-.157-6.885.141-.314-.776-1.09-1.207-1.654-.392.509-.768 1.027-1.183 1.521-.235.282-.784.588-.737.776.745 3.215-.36 6.383-.196 9.598.204 3.858.047 3.741-3.785 2.314-1.34-.502-3.785-2.549-3.973 1.38-.079 1.529-.995 3.019-1.011 4.532-.102 9.245-.047 18.491-.047 27.736 0 .737-.024 1.482 0 2.219.094 2.862 2.1 3.246 4.185 2.815 2.719-.557 7.405 2.235 7.805-2.352.635-7.277-.149-14.688.219-22.592m127.142 48.336c6.873-.408 13.832.972 20.642-1.059 1.175-.353 3.001-.549 3.769.094 3.66 3.066 7.899 1.874 11.943 2.055 3.856.172 7.719.047 11.575.235 2.656.133 5.29.713 7.938.855 1.677.086 1.732-.981.839-2.086-2.955-3.662-6.583-5.756-11.528-5.701-12.39.149-24.787-.094-37.177.086-13.902.204-27.804.682-41.706 1.121-.808.024-2.32 1.012-2.265 1.185.329 1.129.768 2.501 1.646 3.105.76.517 2.147.11 3.26.11h31.072m151.576-253.872c-2.563-2.855-6.465-2.486-9.404-2.533-12.139-.196-24.246-.768-36.362-1.372-6.144-.306-12.241.039-18.447-.847-7.437-1.059-15.141-.267-22.727-.22-.634 0-1.786.369-1.81.628-.141 1.827-.282 3.74.149 5.481.11.439 2.296.541 3.519.502 9.286-.322 18.565-.816 27.851-1.02 2.61-.055 5.423 1.459 7.837.91 9.09-2.078 18.236-.345 27.326-.965.737-.047 1.536-.188 2.21.024 6.575 2.078 13.22 1.16 19.858-.58M589.826 631.35c-5.54 3.858-10.329 8.932-17.225 10.618-.407.101-.682.744-1.011 1.137.486.156.988.478 1.466.446 4.898-.329 9.788-.878 14.693-1.042 5.533-.189 11.081-.11 16.622-.016 2.79.047 4.028-1.106 3.785-3.874-.251-2.854-.69-5.709-.69-8.563 0-2.94.478-5.873.659-8.814.039-.659-.282-1.349-.439-2.023-.76.337-1.724.478-2.249 1.035-4.303 4.548-9.577 7.685-15.603 11.104m-136.585 28.888c-10.344 0-20.689-.008-31.033.016-1.246 0-2.523.086-3.722.392-.463.118-.737.98-1.09 1.506 2.978-.353 2.532 4.226 6.176 3.787 8.095-.98 16.261.18 24.489-1.019 8.009-1.169 16.277-.565 24.458-1.169 14.02-1.035 28.126-.901 42.193-1.348.807-.024 1.583-.8 2.374-1.224-.901-.313-1.818-.941-2.703-.902-11.293.549-22.57-.517-33.933.785-8.55.98-17.468 1.309-27.217-.832m462.487 1.671c0 1.654-.023 3.309 0 4.963.063 4.031 1.489 5.529 5.408 5.576 4.043.055 8.087-.063 12.131.039 2.531.063 3.659-.941 3.581-3.521a154.98 154.98 0 0 1 .008-9.927c.055-1.624-.353-2.212-2.085-2.18-5.14.109-10.305.274-15.43-.04-3.315-.203-4.177 1.036-3.613 5.082m-212.09-137.777c.65.651 1.387 1.247 1.935 1.984.4.533.549 1.247.807 1.874.196-.643.447-1.27.572-1.921.439-2.204-.556-3.686-2.1-5.262-3.942-4.015-7.672-8.249-11.418-12.452-9.043-10.124-18.048-20.287-27.083-30.41-6.395-7.167-12.876-14.256-19.192-21.486-3.041-3.482-5.721-7.261-8.691-10.806-1.026-1.223-3.26-3.223-3.526-3.019-2.524 1.929-3.801-.094-5.439-1.231-.227-.157-.893.337-1.364.525 1.701 1.624 3.143 3.953 5.165 4.698 2.986 1.097 3.981.941 4.655 1.78 4.694 5.834 9.341 11.707 14.145 17.447 3.134 3.756 6.63 7.207 9.756 10.963 6.748 8.092 13.143 16.483 20.094 24.387 6.77 7.693 14.059 14.931 21.676 22.921M537.618 668.009c5.768-.368 11.528-1.011 17.296-1.058 17.201-.141 34.395-.016 51.596-.118 1.262 0 2.516-.996 3.778-1.537-1.231-.949-2.375-2.062-3.723-2.776-.721-.384-1.834-.188-2.735-.047-3.166.502-6.583-1.27-9.545 1.059-3.213-1.906-6.363-.384-9.615-.086-4.953.454-9.976.031-14.968.133-14.827.321-29.654.721-44.481 1.098-.721.015-1.614-.165-2.124.188-.682.47-1.066 1.364-1.575 2.078.682.353 1.387 1.059 2.038 1.004 3.369-.298 6.864 1.011 10.148-.957.541-.321 1.857.643 3.918 1.012m433.633-171.653c-3.66-6.626-7.296-13.252-10.979-19.863-1.09-1.96-2.297-3.858-3.456-5.779-.267-.439-.565-.855-.847-1.286-.086.517-.392 1.121-.227 1.545 1.042 2.713 1.991 5.481 3.331 8.045 5.47 10.508 10.893 21.047 16.692 31.367 3.315 5.897 7.648 11.221 10.963 17.118 7.374 13.119 15.304 25.893 23.404 38.565.45.706 1.16 1.247 1.75 1.858.05-1.003.2-2.015.1-3.003-.07-.651-.38-1.349-.77-1.882-7.38-10.069-12.737-21.329-18.959-32.088-6.591-11.402-13.965-22.341-21.002-34.597M684.218 662.465c-17.797.479-35.633-1.121-53.383 1.137-.924.118-2.562.604-2.562.949-.04 2.282 1.841.863 2.837 1.239.164.063.368.008.548.008h72.724c.925 0 1.998.29 2.735-.078.846-.424 1.944-1.443 1.928-2.188-.016-.737-1.144-1.772-2.006-2.102-.972-.368-2.195-.141-3.3-.078-6.136.353-12.28.729-19.528 1.106m102.714-161.671c.369 11.316.682 22.631 1.137 33.947.219 5.402.713 10.79 1.081 16.193.016.18-.078.423.016.548.533.714 1.097 1.396 1.653 2.094.188-.659.557-1.333.533-1.984-.321-6.94-.948-13.879-1.034-20.819-.165-14.429-.047-28.857-.047-43.286 0-1.294.266-2.658-.047-3.874-1.865-7.363-2.273-14.844-2.234-22.395.008-1.694-.666-3.396-1.065-5.089-.118-.494-.361-.957-.541-1.435-.188.478-.502.941-.541 1.427-.4 5.238-.18 10.609.329 15.691.549 5.434.463 10.821.729 16.224.188 3.874.039 7.771.039 12.766m-529.678 52.217c-1.129-1.544 1.52-2.744.204-4.759-.753-1.153.752-3.615.87-5.513.485-7.983-.063-15.942.924-23.988 1.285-10.468.831-21.133 1.411-31.703.18-3.239-.87-6.203-.384-9.677 1.269-8.97 1.05-18.153 1.387-27.249.023-.667-.29-1.349-.447-2.023-.58.807-1.591 1.576-1.685 2.438-.517 5.011-.885 10.045-1.167 15.072-.596 10.57.736 21.149-.964 31.758-1.176 7.301-.572 14.845-.995 22.286-.902 15.864-.283 31.806-.243 47.716 0 .526.454 1.051.697 1.577.125-.502.361-1.004.368-1.506.032-4.438.016-8.885.016-14.436m308.144 97.22c5.212.345 10.4.125 15.674.87 8.236 1.169 16.747-.541 25.053 1.31.596.133 1.881-.259 1.905-.494.172-1.835.352-3.741-.047-5.497-.102-.447-2.249-.651-3.441-.604-8.361.306-16.715.823-25.077 1.043-8.369.219-16.77-.424-25.069 1.184-.651.125-1.183.855-1.763 1.302.556.29 1.105.823 1.669.839 3.33.078 6.661.039 11.104.039m-87.723-242.204c-4.843.353-9.686-.549-14.568.934-2.296.697-5.18-.879-7.751-.722-3.62.22-7.217.972-10.877.902-1.293-.024-2.625-.18-3.871.063-.784.149-1.45.925-2.171 1.427.705.243 1.395.627 2.116.706 2.147.219 4.31.431 6.473.431 2.163 0 4.318-.298 6.473-.4 12.601-.635 25.203.729 37.851-.823 4.647-.573 9.702-.91 14.576-.306.909.11 1.865.125 2.759-.047.282-.055.525-.839.595-1.31.039-.251-.329-.792-.541-.808-1.105-.086-2.217-.039-3.322-.039h-27.734m-26.096 229.445c1.52.785 2.993 1.718 4.584 2.322 4.467 1.701 8.95 3.403 13.518 4.814 1.184.369 2.696-.321 4.06-.517-1.129-.392-2.273-.769-3.393-1.176-9.781-3.568-17.218-10.947-25.987-16.178-3.503-2.086-6.269-5.41-9.435-8.092-.431-.369-1.238-.29-1.865-.416.023.635-.22 1.529.11 1.859 5.767 5.802 9.999 13.252 18.408 17.392m44.974 31.665c1.325-.369 2.633-1.028 3.966-1.059 5.344-.125 10.689-.023 16.033-.086.557 0 1.105-.549 1.662-.839-.58-.447-1.113-1.153-1.756-1.286-1.065-.212-2.202-.063-3.307-.055-11.284.063-22.561-.228-33.823 1.035-4.615.517-9.357-.345-13.91 1.184-.486.165-.987.282-1.481.423.557.228 1.105.659 1.662.659 9.952.039 19.905.031 30.962.031m378.651-138.89-3.503 7.951c-4.671 10.602-9.381 21.181-13.973 31.814-.917 2.117-2.602 4.156-1.544 6.759 1.301-1.944 2.908-3.756 3.848-5.857 3.871-8.712 7.5-17.534 11.308-26.278 1.434-3.277 3.166-6.43 4.687-9.668 1.269-2.713 1.183-3.451-.823-4.713M589.826 410.233c-7.413-.338-14.795.015-22.264-.894-10.446-1.279-21.065.329-31.644-1.153-6.693-.941-13.628-.173-20.462-.173-.736 0-1.489-.07-2.21.04-.235.031-.587.549-.556.799.063.479.298 1.271.58 1.326.893.172 1.834.039 2.758.07 18.111.628 36.245-1.113 54.363.988 6.56.761 13.276.134 19.913.11.69 0 1.387-.204 2.077-.314-.11-.258-.165-.674-.345-.745-.321-.125-.729-.031-2.202-.031M408.823 661.344c-3.095-.298-6.488 1.082-9.09-2.125-.549-.674-2.986-.557-2.594 1.937.141.894.11 1.843 0 2.744-.259 2.18.313 3.247 2.845 3.059 3.275-.236 6.59 0 9.882-.071 3.408-.07 3.902-.643 3.965-3.607.078-3.591-2.625-1.255-5.016-1.937m380.32-55.001c-.368-8.547-.76-17.095-1.097-25.65-.086-2.219.133-4.454-.055-6.665-.188-2.266-.681-4.517-1.081-6.76-.086-.501-.337-.972-.51-1.45-.195.455-.517.894-.564 1.356-.086.918-.039 1.851-.023 2.776.172 11.52-.69 23.07 1.144 34.527.243 1.505.925 2.94 1.403 4.407.258-.479.525-.957.783-2.549m-252.622 52.782c-3.887 0-7.773-.11-11.653.071-1.105.055-2.163.972-3.236 1.497.956.22 1.912.636 2.868.62 10.094-.149 20.203.517 30.273-.996 3.44-.518 7.022-.055 10.532-.118.533-.007 1.058-.447 1.591-.69-.501-.133-1.003-.368-1.504-.376-9.255-.024-18.503-.016-28.863-.016m85.506-6.665c.368 0 1.05.023 1.058 0 .18-2.094.462-4.211.235-6.266-.031-.274-2.641-.305-4.059-.384-1.098-.063-2.203-.023-3.3-.008-3.659.047-3.581.102-3.416 3.56.117 2.376 1.269 3.161 3.416 3.114 1.654-.04 3.3 0 6.066 0M952.38 481.905c1.176 2.282 2.296 4.595 3.542 6.838.322.58 1.011.948 1.536 1.411.157-.855.651-1.835.4-2.548-.501-1.435-1.379-2.753-2.155-4.086a3726.015 3726.015 0 0 0-12.233-20.96c-.29-.494-.878-.808-1.324-1.208-.29.737-.98 1.6-.8 2.196.384 1.286 1.176 2.47 1.881 3.638 2.845 4.729 5.721 9.441 9.145 14.719m-3.887-32.778c.925 1.639 1.576 3.552 2.845 4.862 1.732 1.78 1.066 5.183 4.161 5.912-.666-2.423-.956-5.042-2.084-7.238-3.119-6.092-6.575-12.013-9.945-17.972-.274-.487-.925-.745-1.403-1.114-.243.572-.846 1.31-.674 1.694 1.051 2.329 2.297 4.571 3.433 6.861 1.066 2.133 2.077 4.29 3.667 6.995M600.366 587.461c-1.943 3.426-3.887 6.845-5.814 10.272-.212.369-.345.776-.518 1.168.502.024 1.066.204 1.474.024.47-.204.901-.674 1.167-1.137 3.002-5.183 6.042-10.351 8.895-15.621.791-1.466 1.042-3.246 1.411-4.916.094-.424-.306-.949-.479-1.427-.564.258-1.441.368-1.653.807-1.567 3.2-3.009 6.47-4.49 10.83m409.741-15.558c-.39-.392-.74-.831-1.18-1.161-.62-.462-1.3-.839-1.95-1.254.26.76.41 1.591.8 2.274 3.35 5.826 6.68 11.66 10.14 17.424 1.14 1.905 2.62 3.615 3.94 5.418 1.77-2.987-1.75-4.634-1.84-7.183-.02-.407-.83-.729-1.1-1.184-2.77-4.579-5.5-9.182-8.8-14.326m-532.442 86.108c4.867-.368 9.741-.729 14.6-1.129.494-.039.964-.321 1.45-.486-.431-.204-.855-.549-1.301-.588-5.541-.408-11.081-.871-16.63-1.067-1.669-.055-3.377.628-5.046 1.067-.737.196-1.411.619-2.116.933.885.321 2.045 1.176 2.617.878 1.959-1.019 3.644-1.286 6.426.384m-46.636-49.998c1.952 2.322 3.887 4.658 5.87 6.948.243.282.76.322 1.152.478 0-.502.204-1.113-.016-1.482-2.86-4.885-6.818-9.284-6.637-15.51.015-.494-.988-1.435-1.489-1.42-.541.024-1.411.871-1.505 1.459-.494 3.231.039 6.289 2.625 9.527Zm184.89-236.11c-.133-.133-.243-.298-.4-.377-.094-.047-.344-.007-.376.063-.493 1.09-1.363 2.18-1.387 3.286a408.62 408.62 0 0 0 .008 18.326c.024.87 1.058 1.709 1.622 2.564.541-1.067 1.834-2.525 1.505-3.145-1.716-3.325-.776-6.783-.948-10.155-.165-3.136-.04-6.289-.04-10.546m193.213 27.774c0-1.466.062-2.932-.032-4.391-.031-.525-.454-1.027-.705-1.537-.392.392-1.105.769-1.113 1.169-.18 5.998-.337 12.005-.258 18.004 0 .596 1.567 1.176 2.406 1.756.274-.752.822-1.521.768-2.25-.275-3.882-.698-7.755-1.066-12.751M1031.2 606.359c-.65-1.388-1.19-2.839-2-4.133-.29-.478-1.19-.588-1.81-.87.16.666.23 1.364.49 1.984 1.07 2.501 2.09 5.034 3.34 7.449 1.35 2.588 2.93 5.05 4.42 7.56.37.643.79 1.262 1.19 1.897.34-.682.92-1.356.96-2.062.05-.816-.2-1.757-.63-2.47-1.74-2.972-3.6-5.874-5.97-9.363M388.84 408.013c-2.241-.368-4.475-.776-6.724-1.082-.462-.062-.98.259-1.473.4.439.518.799 1.404 1.324 1.506 4.616.917 9.24 1.803 13.902 2.415 1.011.133 2.234-.761 3.253-1.364.517-.306.799-1.004 1.191-1.53-.502-.117-1.003-.337-1.513-.337-2.946-.031-5.893-.015-9.952-.015m519.122 29.445c.125.87.259 1.741.384 2.611.525-.408 1.356-.729 1.513-1.247.595-1.984 1.778-4.273 1.253-6.006-.909-3.027-1.3-5.693.118-8.579.188-.384-.431-1.176-.674-1.78-.611.306-1.512.455-1.779.941a6.806 6.806 0 0 0-.784 2.98c-.094 3.324-.031 6.649-.031 11.08ZM620.373 569.676c-.352 2.242-1.371 4.658-.846 6.665.423 1.608 1.207 2.627.07 4.313-.423.62.463 2.141.823 3.231.016.047.949-.008 1.027-.196 2.108-5.042 1.034-10.273.815-15.448-.627.11-1.262.219-1.889 1.443m-7.217 28.331c1.207-2.932 2.155-5.951 1.598-9.151-.125-.706-1.089-1.262-1.669-1.89-.517.518-1.403.981-1.489 1.561-.509 3.474-.854 6.971-1.183 10.461-.031.352.415.744.643 1.121l2.1-2.102m6.661 64.443c-.886.227-2.194.933-2.586.596-1.912-1.679-2.469.329-3.503 1.05.846.933 1.677 2.643 2.539 2.659 2.586.031 5.18-.581 7.766-1.004.157-.024.392-.863.298-.933-1.105-.831-2.257-1.584-4.514-2.361m141.02-71.115c.188-.29.596-.761.525-.855-3.275-4.383-6.128-9.174-11.12-11.966-.235-.133-.517-.157-.784-.235.079.635-.086 1.497.267 1.858 3.471 3.592 7.029 7.105 11.112 11.198m-307.588 31.108c-.752-.361-1.504-.714-2.257-1.075-.086.259-.321.675-.235.753 3.292 3.145 6.066 6.979 10.862 8.108.705.165 1.395.432 2.084.651.478-1.545-.799-1.364-1.606-1.945-2.72-1.968-5.18-4.297-8.848-6.485m590.181-9.441c1.05 2.329 3.66 3.835 3.59 6.83-.01.337 1.41 1.161 1.81.98 1.08-.478 1.19-1.074.25-2.321-1.86-2.431-3.15-5.293-4.8-7.896-.33-.518-1.25-.659-1.9-.973.35.761.7 1.514 1.05 3.388m-624.607-13.887c-2.194 3.426 1.646 5.693 1.724 8.704.008.439.76.862 1.168 1.294.337-.502.924-.996.956-1.522.203-3.152-1.771-5.457-3.848-8.484m227.082-127.222c1.058 1.293 2.053 3.591 3.19 3.662 1.927.125 2.264 1.058 2.836 2.321.212.462.737.784 1.129 1.168.212-.596.541-1.176.603-1.78.204-1.992-.439-3.27-2.664-3.78-1.591-.36-3.025-1.411-5.086-1.591m-31.088-45.56c1.113 2.109 2.194 4.234 3.354 6.312.212.385.698.612 1.058.91.384-.463 1.128-.98 1.074-1.38-.196-1.341-.314-2.949-1.129-3.882-1.144-1.301-2.876-2.078-4.357-1.968m102.158-16.663c0-.73.141-1.498-.031-2.18-.408-1.639-.964-3.247-1.458-4.862-.243 1.607-.603 3.199-.705 4.815-.125 1.999-.063 4.015 0 6.014.016.361.431.714.666 1.067.259-.259.651-.471.753-.785.313-.972.525-1.976.775-4.077m84.393 32.221c.368 3.144.729 6.297 1.121 9.441.039.322.243.628.368.941.243-.149.698-.298.698-.447.039-4.03.054-8.069-.024-12.099 0-.212-1.128-.69-1.254-.565-.415.424-.619 1.059-.909 2.729m-12.774-1.67c.188-2.368.565-4.744.463-7.105-.039-.925-1.144-1.803-1.763-2.705-.126.87-.337 1.733-.353 2.603-.047 2.933-.016 5.874.031 8.806 0 .024.698.04 1.066.063 0-.368 0-.737.556-1.654m1.113 195.561c-.258.259-.493.549-.776.769-2.327 1.811.643 2.995.533 4.532.267-.823.439-1.694.847-2.439.196-.353.885-.658 1.301-.611 1.818.227 2.382-.73 1.951-2.212-.619-2.125-2.046-1.184-3.848-.055m-188.212-18.333c3.651-.157 6.096-1.686 6.637-4.242.102-.479-.133-1.036-.211-1.553-.392.18-.862.274-1.16.557-1.591 1.537-3.143 3.113-5.266 5.238M500.434 406.343c2.539-.188 5.086-.345 7.617-.58.399-.039.768-.424 1.144-.651-.494-.149-.987-.408-1.481-.416-2.955-.039-5.909-.055-8.863.016-.533.016-1.058.447-1.583.69.869.133 1.739.259 3.166.941m409.746 4.446c-.259.259-.768.557-.737.769.369 2.486 2.32 2.007 3.958 1.968.415-.008.815-.463 1.222-.714-.932-.862-1.833-1.756-2.813-2.556-.219-.18-.713-.023-1.63.525m-299.814 11.112 1.567 1.568c.22-.4.557-.776.635-1.207.353-1.898.721-3.811.87-5.732.039-.494-.721-1.043-1.113-1.569-.282.431-.69.816-.823 1.286-.431 1.498-.76 3.019-1.136 5.638M301.117 663.571c.133-.133.297-.243.376-.4.047-.094-.016-.368-.055-.368-2.437-.259-4.984-1.349-7.084.894-.149.156-.079.509-.118.768 2.108-.118 4.216-.227 6.881-.894Zm266.5-30.002c-.259.259-.478.604-.791.769-.604.321-1.254.541-1.889.799.588.22 1.222.706 1.748.604a25.982 25.982 0 0 0 4.451-1.286c.893-.345 1.669-1.011 2.492-1.537-1.129.087-2.265.149-3.393.275-.51.055-1.004.251-2.618.376m474.703-7.222c.37.957.88 1.882 1.07 2.87.2 1.012-.24 2.541 1.51 2.008.45-.142.88-2 .54-2.714-.5-1.074-1.68-1.827-3.12-2.164M909.624 418.011l-.377 1.851c1.105-.118 2.304-.008 3.276-.439.494-.22.557-1.396.823-2.133-.87.243-1.74.486-3.715.721m-285.379-7.778c-1.708 2.274.706 3.693 1.137 5.528.172-1.561.384-3.113.493-4.674.024-.266-.344-.572-1.637-.854m179.89 87.778c-.557 0-1.035-2.258-1.615-.133-.282 1.027-.109 2.204-.015 3.301.031.4.415.777.634 1.169.259-.259.651-.478.761-.792.321-.98.54-1.992.242-3.545m-185.994-86.108c.125.125.243.29.392.376.094.047.352 0 .368-.047.141-.494.353-1.004.329-1.505-.078-1.961-.235-3.921-.36-5.882a144.15 144.15 0 0 0-.729 7.05m177.116 231.672c.956-.345 2.774.933 2.656-1.247-.016-.36-1.551-.721-2.429-.941-.463-.117-1.003.079-1.513.142.243.501.486.995 1.278 2.054M622.583 495.243c0 .189-.07.416.016.541.219.322.501.604.768.902.094-1.607.196-3.215.29-4.822-.392.047-1.082.015-1.121.164-.251.863-.345 1.765.055 3.215m122.698 79.444c.745.368 1.489.729 2.234 1.097-.275-.635-.486-1.317-.854-1.897a3.579 3.579 0 0 0-1.137-1.137c-.588-.361-1.261-.573-1.896-.855.368.745.729 1.49 1.653 2.792Zm-493.59 106.104c-.776-.337-1.544-.674-2.32-1.011-.29.752-.588 1.505-.878 2.258.878-.227 1.764-.463 3.198-1.247m352.006-264.45c.313-2.133-1.246-1.733-2.367-1.592-.376.047-.65.926-.964 1.42.925.243 1.85.486 3.331.18m19.991 8.892c.737-.392 1.481-.784 2.218-1.176-.51-.855-1.019-1.717-1.528-2.572-.235.878-.463 1.757-.698 3.748M268.359 654.122c0-.894.063-1.804-.031-2.69-.039-.376-.423-.713-.658-1.066-.384.384-1.129 1.051-1.09 1.098.894 1.121-.344 3.27 1.772 2.658m658.489-231.108-1.403-1.67c0 .455-.133.957.016 1.357.29.792.658 1.584 1.167 2.242.173.228.87.04 1.325.047-.188-.47-.369-.941-1.113-1.968m-253.735 73.892c.126-.126.282-.236.369-.385.054-.094.023-.345-.024-.36-1.097-.385-2.186-.933-3.315-1.028-.595-.047-1.262.698-1.896 1.09.533.228 1.05.565 1.606.659.698.118 1.426.031 3.26.031m104.376 113.335c.776.737 1.529 1.521 2.359 2.196.204.164.721.062 1.019-.071.157-.07.251-.682.212-.706-1.38-.658-1.677-3.646-3.597-1.419m-168.23-182.78c-.603-.878-1.199-1.756-1.802-2.642-.141.29-.392.58-.4.87-.023 1.153-.423 2.635 2.202 1.764m175.447 18.891c.259.259.596.478.76.792.314.596.533 1.247.792 1.882.219-.573.556-1.129.635-1.725.094-.706-.04-1.443-.071-2.165-.517.22-1.042.439-2.116 1.216m-155.455 6.665c-.126-.125-.228-.274-.376-.361-.094-.054-.345-.015-.345-.007-.047.956-.126 1.921-.047 2.862.008.117.893.157 1.371.235-.016-.721-.031-1.451-.603-2.729m-4.444 5.552-.282-2.501c-.619.431-1.536.737-1.787 1.325-.548 1.278.134 1.905 2.069 1.176Zm282.049 3.333c-.423-.557-.847-1.114-1.278-1.671a424.1 424.1 0 0 1-.948.949c.557.424 1.113.847 2.218.722M755.25 603.575c0-.737 0-1.482-.063-2.219 0-.032-.987-.032-.987 0-.063.737-.055 1.474 1.05 2.219Zm-147.658-190.01-1.669 1.278.948.949c.423-.557.846-1.113.721-2.219m315.918 1.67-1.865-1.466c.251.855.455 1.733.791 2.548.055.134.706.024 1.074-1.082Zm-5.548 1.114c-.627-.11-1.254-.228-1.881-.337.423.651.854 1.301 1.277 1.952.384-.353.776-.706.612-1.615m-298.702 6.665c-.446-.557-.87-1.129-1.371-1.639-.055-.055-.541.322-.823.494.729.753 1.466 1.498 2.194 1.137m-1.112 45.56c.125.126.235.29.391.369.094.047.361 0 .361-.032.133-1.035.305-2.078.321-3.121 0-.298-.47-.604-.721-.909-.117.494-.266.988-.337 1.49-.055.352-.008.721-.008 2.195m314.25-38.886c-.737.149-1.482.306-2.218.455.204.76.399 1.513.603 2.274.353-.722.705-1.451 1.622-2.729M430.484 564.124c-.259-.855-.51-1.71-.768-2.564-.447.517-1.332 1.129-1.246 1.537.125.603.94 1.058 2.014 1.027Zm480.809-113.335c-.423-.556-.847-1.113-1.278-1.67l-.948.949c.557.423 1.113.847 2.218.721M267.247 596.345c0-.345.07-.721-.016-1.043-.157-.564-.415-1.098-.635-1.647-.157.463-.454.926-.423 1.373.047.627.337 1.247 1.074 1.309m639.046-179.439c.47-.102.94-.204 1.411-.298l-1.67-1.67c-.101.47-.203.941.251 1.968m22.209 0 1.521-1.811c-.283-.134-.761-.447-.823-.385-.463.502-.847 1.082-.698 2.196M514.32 655.792c-.125.126-.282.235-.368.384-.055.095 0 .353.023.361.847.133 1.701.275 2.555.33.11 0 .251-.463.376-.714-.486-.118-.979-.243-2.578-.361m-251.525-222.78c0-.345.071-.721-.015-1.043-.157-.564-.416-1.097-.635-1.646-.157.462-.455.925-.423 1.372.047.627.337 1.247 1.073 1.31m348.119-.557c-.188.792-.423 1.584-.525 2.392-.031.258.282.564.431.854.22-.368.533-.721.619-1.121.11-.502.024-1.043-.532-2.117m197.099 187.226c-.369.188-.737.368-1.113.556.368.189.737.369 1.113-.556ZM625.35 451.346c-.188-.368-.369-.737-.557-1.113-.188.368-.368.737.557 1.113Zm148.237 169.449c-.587-.149-1.175-.313-1.771-.423-.015 0-.125.447-.188.69.47.094.933.196 1.959-.259m-54.409-68.888c-.094-.471-.196-.934-.29-1.404-.243.063-.69.172-.69.188.118.596.274 1.184.98 1.216Zm-29.983-28.889c-.094-.47-.196-.933-.29-1.404-.243.063-.69.173-.69.189.118.596.274 1.184.98 1.215Zm250.396-97.22c-.149.588-.314 1.176-.423 1.772 0 .016.446.126.689.188.094-.47.196-.933-.258-1.96m-328.128-15.001c-.094-.471-.196-.933-.29-1.404-.243.063-.69.173-.69.189.118.596.275 1.184.98 1.215m444.169 246.673c-.1-.47-.2-.933-.29-1.403-.25.062-.69.172-.69.188.11.596.27 1.184.98 1.215ZM794.684 494.146c-.094-.471-.196-.934-.29-1.404-.243.063-.69.172-.69.188.118.596.274 1.184.98 1.216m63.853 90.554c-.149.588-.314 1.177-.424 1.773 0 .015.447.125.69.188.094-.471.196-.933-.259-1.961m-64.401-94.444c.149-.219.298-.447.447-.666-.337.039-.667.07-.447.666Zm8.33-.557c.22.149.447.298.666.447-.039-.337-.07-.666-.666-.447Zm135.472 32.221c-.219-.149-.446-.298-.666-.447.039.338.071.667.666.447ZM623.14 479.145c.149-.22.297-.447.446-.667-.337.039-.666.071-.446.667Zm-79.393 166.116c-.22-.149-.447-.298-.666-.447.039.337.07.667.666.447Zm56.627-237.804c.22.149.447.298.666.447-.039-.338-.07-.667-.666-.447Zm207.091 253.895c.149-.22.298-.447.447-.667-.337.04-.666.071-.447.667Zm-3.887-157.224c-.219-.149-.446-.298-.666-.447.039.337.071.666.666.447Zm-1.113 2.219c.22.149.447.298.667.447-.04-.337-.071-.667-.667-.447ZM459.346 668.574c.22.149.447.298.666.447-.039-.337-.07-.667-.666-.447ZM295.56 680.242c.149-.219.298-.447.447-.666-.337.039-.666.07-.447.666Zm-34.418-236.675c-.149.22-.298.447-.447.667.337-.039.666-.071.447-.667Zm3.887 63.894c.219.149.447.298.666.447-.039-.338-.071-.667-.666-.447Zm345.893-80.557c-.149.219-.297.447-.446.666.337-.039.666-.07.446-.666Zm293.71 39.443c-.22-.149-.447-.298-.666-.447.039.337.07.667.666.447Zm64.401 41.114c.22.149.447.298.666.447-.039-.338-.07-.667-.666-.447Zm-50.523-79.444c-.149.22-.297.447-.446.667.337-.039.666-.071.446-.667ZM454.08 808.296c-4.185 1.576-8.041 3.05-12.014 4.093-2.28.604-2.711 1.867-2.735 3.882-.023 1.992.282 3.356 2.579 4.031 4.466 1.317 8.33-.361 12.123-2.126.995-.462 1.771-2.274 1.888-3.536.157-1.678.682-2.902 2.242-3.199.666-.126 2.108.682 2.218 1.254 1.308 6.634-.823 9.379-7.445 12.131-3.088 1.286-6.254 1.898-9.381 2.815-3.299.973-9.075-1.89-10.532-5.567-1.16-2.917-1.63-3.192-4.107-.988-5.454 4.854-11.284 9.276-17.005 13.817-1.897 1.505-4.083 1.372-5.964.133-1.677-1.098-1.544-3.827.423-5.599 5.619-5.074 11.434-9.943 17.084-14.985 2.116-1.89 5.133-3.929 4.6-6.838-.564-3.105-3.322-4.721-6.919-5.309-4.24-.69-4.146-1.192-5.094 2.831-.157.659-.282 1.49-.737 1.898-3.981 3.591-7.045 8.155-12.358 10.335-5.376 2.211-10.298 5.552-15.705 7.661-6.222 2.423-12.797 2.925-19.364.902-2.461-.761-4.428.525-6.403 1.694-2.076 1.239-4.247 2.352-6.206 3.756-2.688 1.913-5.149 1.168-7.061-.832-1.928-2.023-1.309-4.642-.361-7.065.251-.635.525-1.262.784-1.897.157-.385.282-.785.423-1.177-.501.016-1.089-.141-1.489.071-1.073.565-2.045 1.317-3.095 1.929-3.879 2.25-7.798 4.43-11.645 6.728-3.041 1.811-6.426 1.411-9.498.878-2.195-.384-3.903-2.015-4.052-5.34-.392-8.978 2.664-16.287 8.816-22.529 2.704-2.744 5.266-5.677 8.237-8.108 1.951-1.592 4.427-3.05 6.833-3.395 1.56-.22 3.597 1.474 5.055 2.728.493.424.407 1.914-1.513 2.612-3.189 1.16-5.877 3.607-8.91 5.293-7.656 4.258-10.595 11.809-13.612 19.282-.784 1.937 1.896 3.976 4.098 3.654 5.713-.831 9.976-4.571 14.827-7.12.917-.478 1.787-1.05 2.688-1.56 5.086-2.909 7.884-6.673 7.171-13.158-.423-3.827 1.089-7.928 2.069-11.818.713-2.838 3.009-4.164 5.086-3.513 2.774.879 3.785 4.109 1.724 6.752-1.63 2.086-1.905 4.399-2.657 6.72-.635 1.945-.024 2.188 1.074 3.09 1.449 1.192 3.322 2.133 1.653 4.815-2.163 3.481-3.73 7.324-5.587 11.001-.392.769-1.09 1.435-1.286 2.235-.133.557.275 1.317.612 1.874.07.118 1.144-.094 1.387-.423 1.865-2.541 5.517-3.341 5.909-7.512.282-3.004 5.031-3.639 7.601-1.443 2.61 2.235 3.205 2.109 4.412-.91 1.356-3.395 4.906-6.806 8.997-8.555 1.528-.651 1.41-1.388.227-2.227-.705-.494-1.591-.776-2.202-1.357-2.187-2.086-2.179-3.332.251-5.301 1.183-.956 2.64-1.623 4.059-2.219 6.496-2.713 13.369-2.486 20.164-2.141 2.688.134 5.329 1.326 7.962 2.133 4.592 1.412 9.599 1.514 13.714 4.423 1.708 1.208 3.558 2.211 5.203 3.482 1.372 1.066 1.975 1.874 2.806-.683 1.418-4.359 4.874-7.418 8.134-10.515 2.163-2.055 3.856-3.788 7.664-2.549 2.931.957 6.669-.313 10-.886 4.624-.792 7.037 1.553 8.503 5.474.776 2.086 1.465 4.211 2.241 6.297.212.572.619 1.074.933 1.599.595-.353 1.347-.58 1.755-1.082 2.539-3.184 4.608-6.861 7.57-9.567 4.843-4.415 10.172-8.32 15.462-12.201 1.418-1.043 3.354-.965 4.874.666 1.332 1.427 2.038 2.478.956 4.658-1.457 2.941-3.236 5.458-5.603 7.669-6.144 5.748-11.112 12.366-14.521 20.09-1.293 2.933-.901 5.239 1.05 6.109.776.345 1.755.322 2.633.322 5.172-.016 10.164-.604 15.313-1.757 6.105-1.372 12.241-2.329 18.04-4.838.909-.392 2.39-.353 3.205.141 1.074.651 2.837 1.851.791 3.348-2.1 1.537-4.216 3.631-6.59 4.094-10.658 2.086-20.924 6.563-32.091 5.661-2.257-.18-4.624-.431-6.669-1.294-3.072-1.301-4.569-6.132-3.19-9.778 1.09-2.878 2.555-5.607 3.817-8.414.133-.298-.008-.722-.024-1.082-.392.055-.932-.039-1.152.18-3.072 3.058-5.047 6.65-5.501 11.049-.118 1.153-.517 2.47-1.238 3.34-2.093 2.51-3.958 2.353-5.306-.58-.775-1.694-.948-3.717-1.159-5.622-.494-4.462.76-9.002-1.074-13.456-1.763-4.282-2.422-4.847-6.998-3.49-2.14.635-4.287 1.263-6.395 2-.423.149-.69.752-1.034 1.145.486.156.995.494 1.465.447 2.861-.267 5.196.666 7.249 2.673 1.63 1.6 1.802 3.043.063 4.596-1.45 1.293-2.461 3.379-5.251 3.034m-63.571 9.167c2.148-1.043 4.42-1.89 6.426-3.16 4.553-2.878 9.036-5.866 13.393-9.026.8-.58 1.434-2.368 1.121-3.23-.306-.847-1.92-1.741-2.939-1.71-2.805.086-5.595.902-8.393.933-2.312.024-3.056.596-3.017 2.996.078 4.054-.157 3.921-4.326 4.924-2.288.557-4.522 1.569-6.598 2.713-.996.549-2.414 2.29-2.171 2.769.643 1.317 1.951 2.43 3.229 3.27.642.423 1.794.07 3.275-.479ZM334.986 748.017c8.166.369 15.854.196 23.346 1.31 4.702.698 9.388.29 13.973.996 14.239 2.196 28.541.415 42.795.996 1.403.055 3.307.211 4.138-.565 2.962-2.784 6.003-.753 8.879-.384 2.186.274 3.628 2.054 3.511 4.697-.133 2.917-1.983 3.035-4.154 2.964-12.413-.384-24.826-.698-37.239-1.137-7.061-.251-14.2-.165-21.128-1.294-4.333-.705-8.644-.329-12.868-.988-10.36-1.623-20.767-.745-31.15-1.074-2.625-.086-5.235-.737-7.86-1.027-.337-.04-.745.525-1.121.815.392.455.737 1.247 1.191 1.31 3.346.47 6.708.815 10.062 1.16 2.908.298 3.833 1.663 2.767 4.29-.58 1.427-1.16 2.878-1.967 4.171-1.936 3.082-3.198 3.262-5.745.565-1.622-1.717-3.299-2.447-5.705-2.439-2.609.016-5.281-.455-7.828-1.105-3.01-.769-3.519-3.945-4.828-6.203-.298-.51 1.207-2.541 2.289-3.286 3.126-2.156 6.402-4.093 9.709-5.967 4.475-2.541 8.965-5.089 13.605-7.316 1.089-.526 3.126-.22 4.137.517 1.701 1.239.431 3.105-.384 4.313-.729 1.082-2.21 1.655-3.346 2.47-.596.431-1.168.894-1.748 1.349.745.29 1.466.753 2.234.831 1.277.141 2.586.039 4.435.039v-.008ZM447.137 738.012c1.136.368 1.724 1.058 2.311 1.066 6.685.047 9.835 4.101 12.61 9.653 1.434 2.862-.087 5.003-.761 6.36-1.449 2.886-4.451 4.893-8.15 5.183-3.691.282-4.984-2.878-6.763-4.901-1.881-2.141-.102-4.76 3.691-6.257.549-.22 1.011-.675 1.513-1.02-.635-.392-1.246-1.066-1.912-1.129-1.646-.165-3.362.18-4.961-.118-1.873-.345-4.287-.251-4.255-3.34.031-3.051 1.152-4.839 3.926-5.458.705-.157 1.473-.024 2.766-.024l-.015-.015Z"/></g><g clip-path="url(#b)"><path fill="#1A73E8" d="M1597.28 624.791c-2.05 6.43-4.83 11.86-4.38 18.32.75 10.79 0 21.79 1.87 32.35 1.26 7.12.48 13.65-.5 20.39-.19 1.33-2.1 3.32-3.3 3.38-1.76.09-3.8 1.41-5.66-1.95-2.64-4.75-3.42-9.74-2.08-14.04 1.92-6.18.38-12.16 1.08-18.17.05-.46-.64-1.01-.99-1.52-.61.49-1.58.87-1.76 1.49-.83 2.78-1.79 5.6-2.04 8.47-.53 6.18-3.76 11.4-5.76 17.02-3.34 9.38-9.66 17.14-15.21 25.25-3.9 5.69-8.2 11.32-13.23 15.99-6 5.57-12.83 10.3-19.57 14.99-7.79 5.42-17.12 7.3-25.99 9.94-8.14 2.43-16.88 2.15-25.27 3.34-6.78.97-13.64.86-20.45 2.23-7.36 1.48-15.24.33-22.9.33-8.42-5.74-17.87-2.08-26.81-2.74-8.23-.61-16.01-2.54-23.78-5.07-9.08-2.95-17.88-6.36-26.54-10.48-7.05-3.35-13.35-7.93-20.43-11.25-3.09-1.45-6.34-2.06-9.4-3.34-5.48-2.29-10.89-4.24-14.99-8.95-6.11-7.03-13.59-12.74-18.47-21.04-1.87-3.19-4.66-6.76-9.57-7.75-3.2-.65-5.77-4.52-5.26-8.07 1.23-8.65-2.37-16.18-4.58-24.03-2.03-7.21-4.04-14.43-4.13-21.95-.17-13.87-.1-27.75-.02-41.63.03-4.87-.82-9.68-.12-14.61.87-6.21.93-12.52 1.57-18.77.62-6.02-1.71-12.26 1.4-18.07-3.02-8.27-.92-16.83-1.37-25.25-.37-6.91 1.21-13.63 4.9-19.45 1.91-3.02 2.25-5.91 2.23-9.16-.03-6.94.31-13.89-.08-20.81-.64-11.35-1.63-22.69-2.48-34.01-.73-9.72-1.08-19.63.82-29.58 1.49-7.85.41-16.21.25-24.35-.06-3.21.06-6.08 2.99-8.15.66-.46 1.29-1.49 1.31-2.27.11-5.5.27-11.02-.11-16.5-.08-1.19-2.13-2.84-3.55-3.21-3.29-.87-6.78-.94-10.13-1.6-3.42-.63-4.19-2.77-3.62-5.28.52-2.27 1.72-1.81 3.02-1.82 3.83-.03 7.66.08 11.48-.04 3.17-.1 6.59 1 9.15-2.39.61-.81 4.02-.9 4.52-.19 4.16 5.99 10.36 4.48 15.63 3.82 6.87-.86 14.05-.92 20.47-4.13.79-.39 1.85-1.38 1.83-2.06-.09-2.74-.65-5.47-.86-8.21-.25-3.28-.83-6.66-.26-9.82.27-1.51.48-4.53 3.99-4.39 3.23.12 4.43 2.15 5.81 4.29.22.34-.04.95.04 1.41.59 3.2-3.24 6.61 1.41 9.87 2.6 1.83 3.52 6.04 5.27 9.13.26.46.98.65 1.49.97.14-.66.5-1.35.39-1.97-.38-2.21-1.09-4.37-1.35-6.59-.33-2.72-.09-5.26 3.6-5.52 2.61-.18 6.61 2.03 6.24 4.3-.95 5.9 2.49 11.64.23 17.52-.48 1.25-.07 2.84-.07 4.28 0 14.36.09 28.71-.05 43.07-.05 4.84.03 9.61-1.07 14.55-1 4.5.13 9.7 1.25 14.38 1.49 6.27 2.5 12.57 2.67 18.94.28 11 .2 22.01.01 33.01-.06 3.64-1.15 7.25-1.32 10.89-.36 7.64.64 15.09 2.63 22.54 1.07 4.02 0 8.57.24 12.87.25 4.6.19 9.4 1.56 13.71 1.91 6.02 1.6 12.21 2.52 18.27.85 5.61-.2 11.49.27 17.19.8 9.85 1.17 19.67 3.73 29.47 1.52 5.83 2.28 11.96 5.07 17.34 8.12 15.65 21.57 25.22 37.9 30.44 5.21 1.66 11.4.32 17.14.24 3.47-.05 6.25 1.17 7.22 4.57.41 1.44-.61 3.25-.76 4.91-.07.81-.77 2.37 1.61 1.24 8.39-3.98 17.15-7.19 25.4-11.41 4.41-2.25 7.84-6.35 12.13-8.91 10.12-6.05 15.63-15.72 21.13-25.51 2.08-3.7 4.41-7.26 6.55-10.93 3.51-6.02 4.77-12.64 4.9-19.5.1-5.5-.08-11.01.08-16.51.06-2 .88-3.97 1.05-5.98.06-.76-.62-2.18-1.18-2.31-4.62-1.05-5.43-.16-5.7 4.69-.43 7.7-1.62 15.06-5.5 22.14-3.5 6.38-5.88 13.31-9.86 19.61-6.32 9.97-13.62 18.25-24.07 24.32-5.42 3.15-10.47 7.05-16.54 8.67-4.08 1.09-8.26 2.36-12.88 1.06-3.33-.94-7.14-.36-10.71-.13-3.73.24-6.85-.81-9.3-3.57-2.26-2.55-4.02-2.91-7.05-.52-5.49 4.33-6.49 3.43-10.44-2.34-3.45-5.05-6.01-10.4-8.55-15.87-1.78-3.83-4.9-7.08-6.43-10.98-3.87-9.89-7.76-19.84-10.5-30.07-1.65-6.19-1.5-12.94-1.52-19.45-.01-3.53.78-7.29 2.16-10.53 2.18-5.1 2.16-9.65.91-15.16-1.53-6.75.95-13.89 5.87-18.81 8.6-8.59 17.55-17.01 27.28-24.26 5.92-4.41 13.35-6.96 21.06-7.94 3.26-.41 6.38-2.53 9.59-2.62 5.05-.14 10.27.23 15.15 1.46 3.67.92 7.94 1.4 10.87 3.03 5.23 2.92 10.09 6.72 15.33 9.85.76.45.78 2.57.72 3.89-.14 3.34 1.31 4.85 4.63 4.58.24-.02.48-.01.72 0 8.33.31 8.74.9 6.57 8.99-.2.74.17 1.62.28 2.44.82-.3 1.94-.37 2.4-.95 4.45-5.61 9.47-9.55 17.22-6.79.24.09 1.21-.81 1.18-1.19-.32-3.65-.63-7.34-1.02-10.93-.96-8.93-.15-18.05 0-27.09.09-5.48 2.12-10.75-.1-16.52-1.37-3.54-.02-8.05-.32-12.1-.28-3.88 1.37-7.97-1.27-11.68-.43-.6.42-2.11.68-3.2.21-.87.84-1.87.6-2.58-3.08-8.97.98-17.83.26-26.84-.84-10.63-.76-21.42 2.56-31.84.12-.36-1.37-1.79-2.01-1.74-1.74.15-3.42 1.14-5.16 1.27-5.3.41-7.8-3.3-5.52-7.96.49-1 .98-1.99 1.53-2.96 1.33-2.32 2.32-5 4.14-6.85 3.14-3.22 3.91 3.83 7.03 2.03 7.84 3.93 15.25.26 22.48-1.84 4.2-1.22 8.15-2.59 12.59-2.55 2.19.02 4.37-1.05 6.59-1.32 8.69-1.04 17.38-2.06 26.09-2.84 2.97-.26 4.03-1.48 4.21-4.34.2-3.17.63-6.38 1.48-9.43.45-1.65 1.86-3.1 3.08-4.42.37-.4 1.89-.36 2.33.06 2.52 2.43 5.02 4.36 3.36 9.07-1.64 4.66-1.25 10.04-1.67 15.11-.17 1.97.1 3.06 2.73 2.05 3.11-1.19 6.5-1.63 9.77-2.42 2.96-.71 4.45 1.54 5.74 3.33 1.58 2.19-.1 3.95-1.81 5.34-2.14 1.73-4.13 3.82-6.56 4.96-2.17 1.02-5.69 2.95-5.67-2.42 0-.38-1.68-1.27-1.97-1.06-.8.56-1.87 1.66-1.78 2.42 1.17 9.76 2.34 19.53 3.96 29.23.49 2.96 2.21 5.77 3.59 8.53 3.87 7.74 5.75 15.87 4.88 24.52-.29 2.93-1.01 5.82-1.39 8.74-1.17 8.92 2.13 17.21 4.49 25.43 3.42 11.92 3.31 23.58 1.43 35.63-.61 3.92-.67 8.14.82 12.45 1.97 5.71 1.77 12.14 3.41 18 2.8 10.03 3.16 20.17 2.72 30.42-.1 2.29.75 2.79 2.84 2.68 10.8-.55 21.89.32 32.34-1.85 9.67-2.01 20.45-1.28 28.83-8.21 1.21-1 2.95-1.48 3.88-2.64 5.02-6.25 9.85-12.65 14.79-18.97.73-.94 1.53-2.05 2.55-2.5 9.31-4.12 18.22-8.01 29.29-4.98 8.49 2.32 13.98 7.42 19.61 13.12 1.63 1.65 3.1 3.03 5.91 3.2 3.96.23 5.33 3.34 3.99 7.29-.89 2.62-1.74 5.28-.4 7.95 2.16 4.31.67 7.92-2.52 10.67-7.49 6.44-14.65 13.29-23.18 18.47-3.82 2.32-7.05 5.63-11.69 6.47-.41.08-.76.59-1.16.63-4.82.52-9.66.87-14.47 1.48-9.71 1.24-19.91-6.85-23.13-15.65-1.21-3.31-2.11-7.73-4.63-9.33-3.18-2.01-7.85-1.67-11.89-2.31-.7-.11-1.62-.3-2.12.03-4.02 2.69-8.51 2.21-12.99 2.23-4.7.02-9.39.49-14.09.57-6.46.11-12.92.15-19.38-.02-3.47-.09-4.76.99-5.35 4.69-2.03 12.7-4.67 25.31-7.03 37.96-1.49 8.01-2.86 16.04-4.37 24.04-.11.58-.91 1.03-1.39 2.26m-83.27-19.38c-.48 1.71-1.49 3.48-1.35 5.13.75 8.36-4.58 14.94-6.41 22.54-1.07 4.44-3.17 8.79-5.53 12.74-3.88 6.49-8.87 12.33-15.15 16.48-5.16 3.41-9.49 8.49-16.21 9.32-2.45.3-4.85.99-7.27 1.49-8.31 1.72-14.74 8.4-23.91 8.3-6.85-.07-13.61 2.21-20.67.88-11.98-2.27-23.48-5.25-31.57-15.4-.58-.72-1.37-1.27-2.08-1.89-3.47-3.07-8.18-5.51-10.12-9.35-2.54-5.02-6.55-8.33-9.91-12.39-2.75-3.33-5.88-6.62-7.61-10.48-3.26-7.31-5.42-15.01-4.56-23.28.2-1.88-1.03-3.88-1.3-5.86-.59-4.33-.96-8.69-1.48-13.04-.43-3.64-.28-7.52-1.57-10.84-2.45-6.33-1.33-11.93 1.5-17.69.96-1.96 1.49-4.36 1.44-6.54-.31-11.53-.88-23.05-1.36-34.58 0-.24.05-.49 0-.72-2.21-9.29-2.05-18.82-2.77-28.25-.37-4.91-.35-10.02.59-14.82.9-4.56-.54-8.89.33-13.61 1.49-8.1.59-16.68.33-25.04-.12-3.84-1.2-7.63-1.69-11.47-.74-5.79-2-11.62-1.86-17.4.25-9.98 1.55-19.93 2.1-29.91.14-2.64-2.16-6.16-1.1-7.86 3.16-5.06-.43-9.41-.29-14.04.01-.49-.63-1.42-1.02-1.44-5.35-.35-6.44-3.71-6.18-8.26.03-.59-.89-1.23-1.37-1.85-.48.62-1.41 1.28-1.36 1.85.34 3.88 1.39 7.76 1.28 11.61-.68 22.77.97 45.53-1.06 68.34-1.42 15.95-.81 32.16 1.18 48.19.1.84.87 1.6.99 2.44.22 1.58.88 3.68.15 4.72-2.35 3.36-1.51 7.08-.99 10.29 1.42 8.91 2.78 17.79 2.69 26.83 0 .96-.24 1.99.04 2.86 1.93 5.92 2.82 12.01 2.76 18.2-.02 1.72-1.07 3.41-1.33 5.15-.54 3.7-3.26 3.68-5.81 3.29-2.54-.38-2.92-2.51-2.87-4.81.09-5.02 1.16-10.39-.22-15-2.33-7.73-.15-15.62-2.37-23.36-1.63-5.67-.54-11.95-1.36-18.04-1.27-9.47-.5-19.18-1.54-28.82-.99-9.22-.23-18.64-.2-27.97 0-1.64.12-3.28.25-4.92.55-7.41 1.38-14.8 1.61-22.22.2-6.62-1.35-13.46-.17-19.84 1.86-10.07 1.52-19.84-.33-29.71-.14-.74-1.23-1.59-2.05-1.87-5.48-1.88-11.18-2.29-16.85-1.41-5.16.8-11.76-1-13.45 7.06-.45 2.14-3.22 1.98-4.29-.13-.49-.97-.35-2.23-.64-3.32-.18-.7-.61-1.33-.93-1.99-.64.69-1.74 1.33-1.84 2.09-.62 5.05-1.54 10.14-1.41 15.19.3 11.53-1.31 23.1 1.22 34.61 1.04 4.72-.14 9.69.01 14.58.7 22.29 1.08 44.58 1.52 66.88.12 5.98-1.02 12.2.3 17.88 1.37 5.88-1.6 11.22-.33 16.83.36 1.58-.15 3.39.32 4.91 2.59 8.37 1.26 16.98.74 25.33-.2 3.23-1.62 7.15-.77 10.13 1.61 5.62.85 11.15 1.17 16.7.07 1.19-.31 2.51.06 3.57 2.99 8.5 2.71 17.51 4.22 26.23.67 3.84.46 7.77 1.02 11.67.58 4.1.79 8.69.6 13.11-.19 4.56 1.24 9.17 1.19 13.75-.08 8.58 2.2 16.66 4.43 24.77 3.01 10.96 8.52 20.29 16.95 28.22 8.91 8.39 19.55 13.73 30.1 19.34 2.11 1.12 5.33.56 7.01 1.99 7.21 6.11 16.24 6.33 24.71 7.96 6.86 1.32 13.62 2.62 20.2 5.03 3.35 1.22 7 1.63 10.53 2.31 8.79 1.69 16.23-4.41 24.75-4.35 12.57-6.82 26.94-5.12 40.31-8.28 6.39-1.51 12.63-2.69 18.43-5.9 8.94-4.95 18.15-9.42 26.94-14.61 3.57-2.11 7.72-4.05 9.29-8.66.56-1.65 1.86-3.09 3-4.49 1.35-1.67 3.14-3.6 5.29-2.32 1.23.73 1.84 3.02 2.14 4.72.67 3.67-.77 6.72-3.39 9.33-5.21 5.2-11 9.34-17.87 12.31-7.52 3.25-14.53 7.66-21.79 11.52-4.11 2.19-8.08 4.97-12.47 6.24-4.58 1.32-9.6 1.16-14.43 1.62-5.3.5-10.68.58-15.89 1.55-5 .93-9.85 2.71-14.72 4.26-.58.19-.87 1.27-1.3 1.95.57.29 1.17.87 1.71.81 3.88-.39 7.78-.73 11.61-1.43 7.09-1.3 14.17-2.66 21.18-4.32 6.93-1.64 13.85-3.46 20.64-5.62 11.5-3.67 21.79-9.95 32.13-15.95 8.8-5.11 16.1-11.44 19.31-22.14 2.38-7.95 6.14-15.73 11.17-22.61.96-1.32 2.01-2.7 3.34-3.58.79-.53 2.29-.42 3.27-.05.44.16.65 1.7.49 2.53-.25 1.28-.82 2.52-1.39 3.72-1.34 2.8-2.8 5.54-4.09 8.36-.23.51.09 1.28.15 1.92.51-.26 1.11-.42 1.51-.8 5.43-5.19 8.27-11.86 9.49-19 1.08-6.27 2.62-12.45 3.37-18.84.85-7.25 2.74-14.4 2.52-21.82-.06-1.91-.5-4 .08-5.71 2.02-5.94 2.84-12 2.79-18.22 0-1.19-.23-2.45.08-3.56 1.63-5.73 3.03-11.51 2.74-17.5-.3-6.27-1.27-12.53-1.26-18.79 0-3.45-1.63-3.35-3.86-3.14-4.59.43-9.17 1.19-13.76 1.38-14.63.6-29.27 1-43.91 1.48-.24 0-.55-.1-.71.02-1.33 1-3.35 1.8-3.78 3.11-.72 2.23-.17 4.43 2.72 5.55 5.71 2.2 6.75 4.94 4.3 10.09-3.22 6.75-6.71 13.39-5.84 21.32.18 1.64-.86 3.42-1.34 6.57m0-107.67c-.39 7.82.9 15.57.19 23.47-.83 9.25-.21 18.64-.18 27.96 0 1.63.2 3.26.31 4.89 1.42-.35 2.83-.83 4.27-1.01 1.41-.17 2.9-.24 4.29 0 5.6.94 11.17-2.43 16.75-.03 4.11-2.58 8.68-1.21 13.04-1.38 5.49-.22 11.01.17 16.49-.14 3.1-.18 7.17-.26 8.95-2.15 1.82-1.91 1.93-6 1.8-9.1-.36-8.89 1.57-17.91-1.29-26.69-.28-.86-.45-2.27.03-2.8 2.82-3.16 1.95-7.22 1.11-10.15-1.68-5.86-.82-11.63-1.16-17.42-.63-10.8.31-21.57-1.13-32.45-1.24-9.33-2.05-18.8-2.99-28.2-1.02-10.25-.28-20.63-1.45-30.98-.96-8.5-.11-17.2-.24-25.81-.06-3.82-.43-7.55 4.44-8.86.48-.13.77-.96 1.16-1.47-.64-.18-1.36-.62-1.92-.48-3.45.87-6.82 2.15-10.31 2.76-4.74.83-9.57 1.18-14.36 1.74-3.42.4-6.97 1.57-10.24 1.04-6.83-1.1-13.69-2.6-20.16-4.94-2.82-1.02-3.68.32-4.42 1.61-.96 1.68-1.31 3.82-1.5 5.8-.24 2.61.81 5.69-.25 7.79-1.96 3.93-.8 7.82-1.26 11.69-.45 3.87-1.25 7.73-1.36 11.6-.15 5.57-1.17 11.12-.2 16.77.35 2.05-.98 4.34-1.25 6.56-.23 1.88-.82 4.47.12 5.6 2.06 2.46 1.01 4.98 1.23 7.44.68 7.68-.6 15.36 1.22 23.14 1.26 5.41.28 11.38.03 17.09-.15 3.42-1.07 6.82-1.12 10.24-.03 2.27 1.09 4.53 1.28 6.83.24 2.85.06 5.73.06 10.04m73.22-70.35c.48 5.54 1.09 11.07 1.41 16.62.58 10.07.6 20.2 1.64 30.22.47 4.49 2.29 8.79-.18 13.17 3.7 7.64.92 15.94 2.48 23.98 2.07 10.73 1.36 22 1.82 33.03.06 1.43-.09 2.88.06 4.3.05.51.62 1.21 1.11 1.39 5.25 1.84 11.2-1.09 11.69-6.08.71-7.2.12-14.55-2.38-21.22-3.87-10.36-4.09-21.25-6.13-31.86-.27-1.38-.25-2.9 0-4.29 2-11.24 3.15-22.37-1.33-33.42-1.16-2.87-1.13-6.24-1.57-9.39-.56-4.08-.42-8.39-1.75-12.2-1.22-3.51-.68-6.35-.13-9.8 1.48-9.41.24-18.74-3.95-27.46-.39-.8-1.63-1.19-2.47-1.77-.59.95-1.38 1.84-1.72 2.87-1.12 3.39 2.84 6.84-.04 10.27 3.04 6.55.7 13.49 1.44 21.64m-73.94 309.38c-4.95 1.91-9.9 3.79-14.83 5.75-13.14 5.22-26.87 7.61-40.9 8.66-1.04.08-2.03.84-3.03 1.3-.69.32-1.36.67-2.04 1.01.65.17 1.31.54 1.94.48 4.11-.42 8.22-.89 12.32-1.41 7.26-.93 14.49-2.2 21.77-2.79 9.38-.75 17.96-3.55 25.95-8.41 3.43-2.08 6.9-4.1 10.39-6.08 4.42-2.5 8.34-5.53 12.08-9.04 9.21-8.62 16.42-18.71 23.24-29.17.32-.49.61-1.01.91-1.52-.82.07-2.02-.2-2.39.24-5.39 6.34-10.67 12.77-15.96 19.19-1.32 1.6-2.37 3.49-3.91 4.8-7.59 6.43-16.49 10.91-25.52 16.99m-115.57-72.5c1.15.67 2.25 1.49 3.47 2 7.26 3.01 14.08 7.78 22.63 5.9 5.89 3.64 11.4-.47 17.08-.89 5.47-.41 9.9-3.72 14.79-5.76 7.16-2.99 14.27-5.87 21.06-9.73 5.71-3.24 9.63-7.54 11.9-13.54.18-.49.26-1.01.39-1.52-.65.07-1.48-.1-1.91.24-3.07 2.46-5.97 5.13-9.08 7.53-5.52 4.28-10.72 9.04-17.36 11.67-3.9 1.55-7.75 3.2-11.62 4.81-3.46 1.44-6.81 3.58-10.42 4.17-8.82 1.43-17.2-1.42-25.54-3.86-5.11-1.49-10.13-3.35-15.31-4.48-2.08-.45-1.83 1.4-.08 3.45m206.73-107.67c-3.28-2.8-6.01 1.34-9.14.79-.21-.04-.81 1-.88 1.57-.54 4.81-1.91 9.76-1.18 14.39.61 3.88.42 7.22-.05 11.05-1.18 9.5-1.25 19.14-1.61 28.72-.07 1.91.53 3.84.82 5.76.67-1.87 1.39-3.73 1.96-5.62.2-.66-.03-1.43.04-2.14.48-4.8.72-9.65 1.57-14.39 1.14-6.38 3.6-12.64 3.94-19.03.36-6.97 3.16-13.1 4.54-21.11m-107.67-17.23c0 .96-.4 2.41.06 2.79 3.65 2.96 4.9 6.09 1.55 10.11-.15.18 1.11 2.12 1.52 2.05 1.47-.25 4.06 1.63 4.1-2 .04-3.55.58-7.09.81-10.64.24-3.74.28-7.49.6-11.22.48-5.74 1.11-11.47 1.69-17.21.06-.63.16-1.25.23-1.88-.63.22-1.42.26-1.85.68-3.73 3.64-7.42 7.32-11.05 11.06-.41.42-.18 1.42-.57 1.88-.98 1.14-2 1.26.52 2.36 5.95 2.62 6.09 4.47 2.4 12.01m-212.5 91.91c.48 4.81.91 9.62 1.45 14.42.41 3.62.82 7.26 1.5 10.83.19 1 1.34 1.81 2.04 2.71.25-.83.78-1.68.7-2.48-.38-4.1-1.17-8.18-1.34-12.28-.6-14.42-1.01-28.84-1.48-43.26-.04-1.19.25-2.46-.08-3.55-.31-1.03-1.23-1.87-1.88-2.79-.31.93-.87 1.86-.88 2.79-.06 10.73-.04 21.45-.04 33.61m162.95-19.38c1.79-1.44 3.57-2.88 5.37-4.3 5.03-3.97 10.09-7.9 15.1-11.9.63-.51 1.02-1.33 1.52-2-.98.2-2.12.15-2.93.64a2713.76 2713.76 0 0 0-26.24 16.15c-2.86 1.78-5.68 3.62-8.4 5.61-.56.41-.57 1.57-.83 2.39.63.2 1.26.55 1.9.58 5.7.26 10.23-2.06 14.5-7.15m127.78-265.62c-1.23-.48-2.48-1.42-3.68-1.36-6.7.32-13.42.65-20.08 1.44-4.17.5-8.26 1.79-12.36 2.82-.71.18-1.29.86-1.93 1.31.58.51 1.19 1.48 1.75 1.45 9.29-.44 18.58-.95 27.85-1.58 2.46-.17 4.92-.66 7.3-1.3.75-.2 1.24-1.35 1.14-2.79m-108.39 233.29c2.4-1.67 4.91-3.22 7.15-5.09.82-.68 1-2.13 1.47-3.23-1.03.14-2.28-.04-3.07.48-5.08 3.31-10.12 6.7-15.06 10.21-7.01 4.97-13.95 10.04-20.87 15.14-1.33.98-2.51 2.23-3.49 3.55-.39.53-.08 1.58-.09 2.39.65-.01 1.48.23 1.91-.08 3.87-2.79 7.62-5.73 11.49-8.52 6.59-4.75 13.23-9.43 20.57-14.85m-11.49-64.6c-3.43 2.63-6.91 5.21-10.29 7.91-5.92 4.72-11.79 9.5-17.63 14.32-.79.65-1.28 1.66-1.92 2.5 1.17-.34 2.54-.41 3.49-1.08 3.89-2.76 7.32-6.39 11.53-8.43 9.58-4.64 16.26-13.05 25.17-18.48.62-.38.76-1.55 1.13-2.35-1.05-.28-2.46-1.14-3.09-.74-2.69 1.68-5.14 3.73-8.4 6.36m-4.31 22.97c-5.14 3.7-10.33 7.34-15.4 11.14-2.95 2.21-5.73 4.65-8.5 7.09-.41.36-.34 1.25-.49 1.9.51-.04 1.11.08 1.5-.16 3.65-2.14 7.4-4.14 10.85-6.58 5.75-4.07 11.42-8.29 16.9-12.71 4.71-3.8 9.14-7.95 13.6-12.04.77-.71 1.1-1.91 1.63-2.88-1.29.3-3.12.15-3.79.96-4.38 5.25-10.27 8.54-16.31 13.28m-16.51 48.09c-.34.34-.64.72-1.02 1-.71.54-1.46 1.02-2.19 1.53.92.73 1.52 2.55 3.1.56.63-.79 1.98-.95 2.88-1.58 7.98-5.54 15.95-11.11 23.89-16.7 3.52-2.48 7-5.03 10.45-7.62.31-.23.23-.98.32-1.48-.46-.04-.96-.19-1.38-.08-.85.22-1.78.42-2.48.9-8.56 5.88-17.08 11.82-25.62 17.74-2.41 1.67-4.82 3.35-7.95 5.74m-14.36-7.18c-1.18 1.18-2.55 2.24-3.48 3.59-.64.92-.69 2.26-1 3.42.98-.39 2.11-.6 2.93-1.2 8.43-6.2 16.79-12.5 25.23-18.7 1.61-1.18 3.5-1.96 5.14-3.09.43-.29.42-1.22.61-1.86-.79-.2-1.63-.64-2.37-.5-.58.11-.96 1.04-1.55 1.42-8.26 5.42-16.53 10.82-25.52 16.93m-25.12 161.51c-9.92-4.38-21.3-2.97-31.11-7.84-.41-.21-1.51.21-1.77.65-.25.43-.03 1.65.33 1.83 2.37 1.18 4.74 2.46 7.27 3.16 8.02 2.2 16.16 3.75 25.28 2.21m-2.15-220.37c.67-1.15 1.18-2.43 2.03-3.41 3.96-4.55 8.03-9.01 12.02-13.54.32-.37.36-.99.53-1.49-.44-.07-.91-.27-1.33-.19-.86.17-1.94.24-2.49.78-5.89 5.77-12.36 11.13-15.04 19.35-.53 1.63-.31 3.5-.43 5.27 1-1.2 2.08-2.36 2.98-3.63.49-.7.69-1.6 1.74-3.13m22.25 227.55c-3.26.72-6.53 1.41-9.78 2.17-.57.13-1.07.52-1.6.8.5.5.93 1.28 1.53 1.45 1.3.37 2.7.65 4.03.56 5.74-.39 11.47-.89 17.2-1.43.54-.05 1.03-.64 1.55-.97-.47-.62-.83-1.39-1.43-1.84-3.3-2.48-7.16-1.14-11.5-.74Zm-61.73-18.66c-2.61-1.18-5.25-2.31-7.83-3.54-3.78-1.81-7.51-3.75-11.33-5.48-.6-.27-1.58.28-2.38.46.18.64.16 1.53.58 1.87 1.03.83 2.2 1.56 3.43 2.04 5.96 2.32 11.91 4.64 17.95 6.75 2.02.7 4.26.78 6.39 1.14-.09-.34-.12-.72-.29-1-1.44-2.35-3.79-1.31-6.52-2.23m340.99-160.12c3.44.72 6.25 3.81 10.11 2.81.8-.21 1.72-1.08 1.99-1.86.22-.64-.27-2.15-.75-2.3-3.56-1.12-7.17-2.13-10.82-2.89-1.24-.26-2.65.32-3.99.52.91 1 1.83 2 3.46 3.72Zm-418.49 46.66c0-4.03.03-8.06-.04-12.09 0-.45-.57-.9-.88-1.35-.34.34-.89.63-.97 1.01-.39 1.99-1.56 4.47-.8 5.91 1.68 3.16 1.15 6.29 1.23 9.46.1 3.79-.09 7.59.09 11.38.06 1.29-1.3 3.83 1.69 3.43.55-.07 1.51-3.09.99-4.04-2.2-4-.93-8.2-1.3-13.71m150.74-20.1c.46-1.46.92-2.91 1.37-4.37-1.01.57-2.02 1.13-3.02 1.72-1.92 1.12-4.01 2.02-5.69 3.42-2.89 2.39-5.65 4.97-8.15 7.75-.53.59.32 2.42.54 3.68.68-.65 1.68-1.18 1.98-1.97 2.19-5.67 7.11-7.72 12.97-10.23m-5.74 15.79c-1.61.66-3.31 1.16-4.79 2.04-.56.33-1.02 2.09-.81 2.25 1.75 1.33 3.58 2.69 5.6 3.43.58.21 2.83-1.77 2.69-2.37-.47-2.04 2.42-5.38-2.7-5.36m320.87-75.37c1.58-3.16-.73-5.07-2.62-6.67-.72-.61-3.07-.08-4.11.7-.83.62-.81 2.39-1.17 3.64 2.96-.32 3.51 5.02 7.9 2.33m-340.97 48.09c.48 1.46 1.08 2.9 1.4 4.4.33 1.55.2 3.23.65 4.73.3 1 1.27 1.79 1.94 2.68.59-.94 1.5-1.82 1.7-2.84 1.06-5.23-3.41-8.23-5.19-12.33-.17.64-.33 1.29-.5 3.37m.72-17.95c-.24 1.07-.74 2.17-.64 3.21.08.88.86 1.69 1.33 2.53.49-.59.98-1.18 1.46-1.77.57-.7 1.32-1.32 1.68-2.12.86-1.89 1.53-3.86 2.27-5.8-3.09-1.08-3.57 2.19-6.11 3.94m-118.43-118.42c0-1.66.11-3.32-.04-4.97-.08-.92-.59-1.8-.91-2.69-.64.92-1.86 1.87-1.81 2.75.13 2.19 1.09 4.33 1.27 6.52.35 4.41.4 8.85.58 13.27.3-4.48.61-8.96.91-14.88m133.51 106.24c-.92 1.47-2.81 4.08-2.61 4.25 2.75 2.36 3.06-1.5 4.77-2.12.2-.07.35-.31.5-.49 1.8-2.16 3.6-4.33 5.4-6.5-2.45 1.38-4.9 2.76-8.06 4.86Zm27.28-50.25c-.61-.72-1.23-1.44-1.84-2.15-2.22 2.6-4.5 5.15-6.59 7.85-.26.33.4 1.53.87 2.14.12.16 1.38-.22 1.75-.66 1.77-2.1 3.41-4.3 5.81-7.18m-50.25 109.11c1.44 0 2.87-.02 4.31-.02-.5-.97-.88-2.02-1.52-2.88-.69-.93-1.56-1.78-2.48-2.48-.67-.51-1.56-.73-2.36-1.08-.27 1.04-.94 2.18-.72 3.09.25.99 1.33 1.78 2.76 3.37m28.71 18.66c-.67-1.15-1.25-3.2-2.04-3.28-2.14-.24-6.07-.1-6.28.7-.97 3.64 3.43.53 4.37 2.75.23.54 2.11.39 3.96-.16m49.53-45.22c1.01-1.01 2.06-1.98 2.98-3.06.15-.17-.27-.82-.43-1.25-2.34 1.11-5.37 1.29-6.09 4.52-.04.17.74.77 1.08.73.37-.04.68-.61 2.45-.94m-75.37-32.3c.39-2.07-.25-3.71-2.01-4.89-.29 1.46-.61 2.91-.84 4.38-.11.7-.17 1.47.03 2.13.17.57.72 1.03 1.1 1.54.34-.81.67-1.63 1.73-3.16m-11.49 33.02c-.65-1.12-1.29-2.25-1.94-3.37-.31.19-.9.38-.89.57.01 2.23-.65 4.7 1.88 6.16.32-.64.63-1.28.95-3.36Zm322.3-28c.97-1.26 1.48-2.47-.73-2.85-1.96-.33-3.4.41-4.02 2.41 1.1.15 2.21.29 4.75.44Zm-425.65-167.26c2.28-2.33-.59-4.2-.58-6.32-.33.24-.65.5-1 .71-2.63 1.59 1.34 2.92.2 4.55-.21.3.42 1.17 1.37 1.05m4.31 196.68c-.15-.63-.31-1.27-.46-1.9-.32.39-.98 1.06-.92 1.14.56.68-1.5 3.08 1.38.76m136.39-96.19c-.95.49-1.89.98-2.84 1.47.95-.01 1.89-.02 2.84-1.47Zm-137.82 86.15c.13.61.25 1.21.38 1.82.31-.08.89-.22.89-.25-.15-.77-.35-1.53-1.27-1.57Zm202.43-34.46c.29.19.57.38.86.57-.05-.43-.1-.86-.86-.57Zm-17.23 57.43c.29.19.57.38.86.57-.05-.43-.1-.86-.86-.57Zm-165.1 96.19c.29.19.57.38.86.57-.05-.43-.1-.86-.86-.57Z"/></g><defs><clipPath id="a"><path fill="#fff" d="M243 316h837v520H243z"/></clipPath><clipPath id="b"><path fill="#fff" d="M1261 316h496.67v447.03H1261z"/></clipPath></defs></svg>