<svg width="1920" height="1080" viewBox="0 0 1920 1080" fill="none" xmlns="http://www.w3.org/2000/svg">
<g clip-path="url(#clip0_3303_16480)">
<path d="M521.436 524.726C512.031 525.5 503.336 526.422 494.629 527.093C489.862 527.465 485.019 527.05 480.287 527.645C471.835 528.695 463.261 528.022 454.856 529.967C451.158 530.824 447.2 530.671 443.351 530.665C434.561 530.649 425.74 529.919 416.985 530.426C406.246 531.047 395.56 529.166 384.972 529.787C374.867 530.382 364.566 528.737 354.612 531.648C354.397 531.713 354.143 531.615 353.913 531.609C341.35 531.212 328.775 531.145 316.246 530.268C310.978 529.904 305.815 527.893 300.639 526.483C292.956 524.388 285.538 521.63 279.308 516.488C273.533 511.719 267.278 507.367 264.182 500.106C264.096 499.9 263.897 499.736 263.727 499.573C253.297 489.651 250.11 475.577 243.197 463.632C240.359 458.725 238.48 453.272 236.154 448.069C233.586 442.298 232.889 436.276 232.374 429.955C230.742 409.915 232.836 390.062 233.723 370.126C234.202 359.283 237.588 349.313 240.908 339.278C246.433 322.569 254.639 307.108 264.235 292.415C269.067 285.021 274.513 278.02 279.747 270.884C280.433 269.959 281.491 269.3 282.395 268.541C283.269 267.789 284.161 267.069 285.054 266.329C283.796 265.971 282.514 265.231 281.276 265.306C275.686 265.681 270.12 266.59 264.533 266.654C262.345 266.684 259.98 265.237 258.034 263.95C257.238 263.424 256.708 260.801 257.179 260.362C258.688 258.983 261.452 256.849 262.437 257.388C267.624 260.222 272.642 256.8 277.839 257.601C283.196 258.412 288.921 256.793 294.484 256.215C295.362 256.126 296.48 256.203 297.046 255.701C302.786 250.665 310.346 251.368 317.014 249.303C317.854 249.04 319.086 249.065 319.797 249.505C325.033 252.794 330.012 249.78 335.178 249.436C341.029 249.048 346.773 248.603 352.55 247.549C358.032 246.545 363.674 246.424 369.225 245.735C373.39 245.221 377.526 244.414 381.678 243.789C385.629 243.2 389.588 242.622 393.557 242.184C395.375 241.989 397.24 242.269 399.075 242.125C404.438 241.684 409.784 241.061 415.144 240.66C419.658 240.32 424.201 240.293 428.718 239.914C437.429 239.183 446.112 238.139 454.824 237.529C463.205 236.945 471.617 236.915 479.997 236.332C488.71 235.721 497.387 234.607 506.101 233.977C511.34 233.597 516.61 233.781 521.867 233.573C525.928 233.412 529.979 233.101 534.021 232.769C535.776 232.62 537.54 231.9 539.265 232.019C546.789 232.519 554.173 231.847 561.632 230.809C567.26 230.025 573.067 230.547 578.789 230.431C589.068 230.219 599.413 230.644 609.594 229.533C619.482 228.453 629.394 228.336 639.236 227.342C649.35 226.327 659.472 225.925 669.585 225.21C680.645 224.431 691.629 223.306 702.766 223.154C713.983 223.007 725.234 222.943 736.409 222.532C745.765 222.187 755.006 223.948 764.191 223.18C775.483 222.226 786.835 223.613 798.111 221.586C803.227 220.666 808.611 221.379 813.854 221.08C819.902 220.726 825.925 220.02 831.961 219.565C833.362 219.462 834.787 219.73 836.203 219.828C843.975 220.366 851.754 220.933 859.528 221.441C867.97 221.984 876.221 223.567 884.313 225.991C884.755 226.122 885.251 226.056 885.718 226.108C895.861 227.28 905.992 228.492 916.139 229.614C931.945 231.369 946.617 235.621 958.91 246.585C967.851 254.56 976.106 262.759 980.586 274.215C981.958 277.708 985.249 280.422 986.825 283.878C994.382 300.419 1002.19 316.887 1008.76 333.83C1011.4 340.628 1016.03 342.773 1021.73 343.307C1038.18 344.856 1054.71 345.547 1071.18 347.046C1074.01 347.302 1076.26 344.05 1079.62 346.758C1081.27 348.085 1085.14 347.039 1087.9 346.508C1090.21 346.057 1092.43 344.907 1094.58 343.853C1097.5 342.431 1101.75 342.815 1103.08 345.383C1104.34 347.805 1105.83 350.765 1102.84 353.264C1102.25 353.755 1101.57 354.55 1100.95 354.538C1091.13 354.35 1081.44 356.567 1071.53 355.501C1060.26 354.291 1048.93 353.698 1037.61 353.116C1032.85 352.867 1028.05 353.377 1023.26 353.457C1021.62 353.484 1019.32 353.886 1018.44 353.004C1015.45 349.98 1016.03 353.147 1016.22 354.263C1016.73 357.276 1017.45 360.282 1018.4 363.185C1021.04 371.296 1021.71 379.653 1022.58 388.073C1023.09 392.949 1022.82 397.662 1022.76 402.449C1022.56 418.333 1015.38 431.589 1006.72 444.162C1004.28 447.702 1000.94 450.739 997.583 453.484C990.826 459.011 984.765 464.907 981.13 473.116C978.197 479.73 973.552 485.002 966.354 487.482C965.533 487.766 964.919 488.675 964.204 489.298C965.265 489.611 966.39 490.301 967.392 490.159C971.977 489.524 976.576 488.83 981.097 487.799C984.132 487.107 986.644 485.576 986.083 481.658C985.921 480.514 985.83 479.075 986.373 478.18C987.208 476.834 988.63 474.968 989.803 474.969C991.006 474.972 992.906 476.767 993.254 478.114C994.263 481.943 994.719 485.934 995.248 489.88C995.633 492.713 991.759 496.846 987.921 497.262C981.436 497.977 974.905 498.207 968.406 498.84C956.246 500.014 944.093 499.485 931.924 499.486C925.98 499.486 919.947 498.888 914.044 499.452C905.114 500.309 896.104 499.996 887.201 501.616C883.242 502.335 879.187 501.102 874.931 502.061C869.911 503.198 864.415 502.076 859.227 502.74C851.47 503.727 843.58 503.312 835.92 505.228C834.614 505.559 833.104 505.074 831.696 504.996C821.029 504.43 810.496 505.415 799.918 506.909C791.871 508.047 783.617 507.667 775.477 508.257C767.669 508.83 759.9 509.847 752.094 510.54C747.596 510.941 743.069 511.169 738.548 511.318C733.062 511.5 727.539 511.218 722.083 511.693C711.575 512.61 701.073 512.566 690.541 512.66C684.824 512.716 679.058 512.167 673.365 512.595C664.407 513.269 655.419 512.638 646.479 514.646C638.69 516.393 630.565 516.773 622.576 517.494C612.711 518.386 602.819 518.945 592.949 519.766C584.238 520.487 575.552 521.431 566.84 522.182C563.008 522.518 559.155 522.713 555.309 522.808C549.346 522.947 543.333 522.491 537.433 523.156C532.341 523.726 527.055 522.619 521.434 524.756M273.65 308.042C268.449 317.887 263.064 327.628 258.105 337.59C252.564 348.724 247.732 360.339 246.643 372.753C245.235 388.774 245.111 404.924 244.59 421.017C244.478 424.367 244.494 427.906 245.397 431.086C248.718 442.783 254.374 453.188 263.555 461.461C270.293 467.53 276.942 473.713 283.701 479.764C290.809 486.129 298.74 491.609 307.292 495.498C318.876 500.77 331.181 504.467 343.418 508.11C349.213 509.833 355.462 510.656 360.979 512.622C369.421 515.641 378.062 516.8 386.663 518.086C397.716 519.742 408.774 517.83 419.827 516.419C428.13 515.359 436.595 515.443 444.991 515.212C455.737 514.902 466.483 514.612 477.237 514.634C484.844 514.649 492.369 515.71 500.092 514.921C510.055 513.906 520.212 514.748 530.165 513.732C534.315 513.307 538.353 513.617 542.422 513.336C551.134 512.736 559.825 511.723 568.528 510.961C572.35 510.624 576.209 510.63 580.026 510.222C587.328 509.434 594.605 508.283 601.917 507.626C606.91 507.179 612.156 508.143 616.926 507C625.366 504.977 633.925 505.869 642.371 504.759C647.095 504.143 651.959 504.69 656.706 504.176C666.209 503.149 675.675 501.799 685.156 500.51C691.399 499.668 697.961 499.861 703.901 498.618C718.609 495.535 733.496 496.965 748.203 495.055C756.274 494.009 764.496 494.557 772.667 493.949C783.832 493.107 795.094 493.324 806.312 493.298C815.335 493.28 824.367 493.564 833.388 493.716C833.858 493.729 834.349 493.873 834.796 493.794C842.193 492.491 849.642 491.903 857.147 492.512C858.324 492.603 859.636 493.055 860.663 492.695C867.07 490.492 873.701 492.444 880.228 491.421C887.554 490.274 895.089 490.464 902.503 489.793C909.826 489.127 917.12 488.168 924.413 487.208C931.009 486.341 937.585 485.322 944.151 484.293C944.861 484.181 946.034 483.591 946.077 483.123C946.66 477.299 951.579 474.141 954.228 469.603C960.322 459.178 965.789 448.389 969.075 436.819C971.963 426.643 974.947 416.405 975.707 405.702C976.537 393.981 975.649 382.312 975.545 370.627C975.453 359.925 974.766 349.413 973.2 338.87C971.019 324.154 967.234 310.03 959.162 297.313C956.043 292.406 953.323 287.236 950.046 282.439C943.374 272.675 936.619 262.936 925.054 258.117C920.63 256.278 916.273 254.212 912.026 251.984C904.645 248.126 896.758 245.335 888.58 244.88C869.909 243.82 851.341 240.682 832.522 242.188C825.89 242.722 819.184 242.138 812.524 242.349C805.069 242.595 797.621 243.183 790.175 243.591C789.239 243.646 788.27 243.299 787.349 243.435C778.802 244.689 770.306 246.367 761.726 247.227C751.178 248.292 740.569 248.772 729.974 249.353C721.351 249.829 712.722 250.095 704.089 250.42C694.994 250.763 685.892 251.056 676.798 251.38C667.935 251.7 659.073 251.999 650.214 252.399C646.856 252.548 643.511 252.938 640.159 253.288C632.375 254.093 624.61 255.05 616.817 255.704C612.058 256.096 607.167 255.508 602.482 256.287C592.403 257.965 582.2 257.511 572.111 258.016C560.946 258.567 549.691 258.25 538.462 258.727C528.75 259.138 519.003 258.465 509.265 258.252C508.083 258.231 506.7 257.654 505.768 258.091C500.973 260.316 496.163 258.259 491.379 258.439C486.595 258.62 481.799 258.98 477.03 258.811C470.19 258.568 463.364 257.555 456.527 257.554C449.08 257.55 441.636 258.509 434.175 258.695C426.575 258.881 418.879 257.978 411.372 258.833C406.734 259.364 402.056 258.309 397.731 259.243C387.636 261.432 377.443 260.246 367.346 261.162C362.121 261.633 356.666 260.654 351.628 261.759C345.318 263.137 339.026 262.071 332.751 262.95C327.123 263.734 321.311 263.122 315.598 263.408C313.938 263.494 312.252 264.4 310.694 265.184C308.898 266.083 307.067 267.049 305.554 268.347C299.106 273.896 292.388 279.145 287.642 286.455C283.21 293.296 278.394 299.89 273.642 308.011M376.236 251.903C375.521 252.525 374.807 253.147 374.092 253.77C374.821 254.101 375.551 254.702 376.283 254.703C382.246 254.724 388.206 254.635 394.167 254.536C394.558 254.533 394.919 253.956 395.323 253.904C401.99 253.162 408.673 251.9 415.303 252.128C417.194 252.188 419.225 251.657 421.23 252.086C423.75 252.621 426.63 253.292 428.945 252.58C439.432 249.355 450.174 252.313 460.771 250.84C467.288 249.938 474.06 251.017 480.753 250.919C493.144 250.743 505.539 250.667 517.937 250.542C528.69 250.434 539.419 250.674 550.183 249.834C558.538 249.179 566.957 249.621 575.358 248.748C583.93 247.857 592.607 247.474 601.222 247.689C611.678 247.961 621.951 246.686 632.284 245.546C642.355 244.428 652.504 244.067 662.612 243.282C671.794 242.564 681.017 240.656 690.111 241.204C702.12 241.924 713.966 239.495 725.901 240.561C726.588 240.618 727.289 240.637 727.966 240.553C732.845 240.008 737.707 239.282 742.594 238.918C750.031 238.35 757.549 238.488 764.926 237.475C774.318 236.179 783.648 234.769 793.165 235.287C794.583 235.365 796.015 235.674 797.407 235.55C808.776 234.502 820.125 232.73 831.503 232.424C844.127 232.084 856.781 233.039 869.421 233.472C872.252 233.567 875.076 233.893 877.905 234.008C878.414 234.033 878.948 233.559 879.476 233.315C879.1 233.098 878.744 232.743 878.338 232.675C873.623 231.848 868.922 230.54 864.174 230.352C851.858 229.872 839.642 227.353 827.19 228.989C821.09 229.79 814.81 229.145 808.616 229.278C805.002 229.359 801.4 229.692 797.796 229.924C787.133 230.6 776.466 231.787 765.797 231.841C752.531 231.907 739.363 229.252 725.994 230.513C718.921 231.187 711.728 230.539 704.587 230.597C699.803 230.637 694.906 230.279 690.256 231.14C682.295 232.614 674.212 232.517 666.22 233.297C658.621 234.035 650.844 233.578 643.19 234.823C640.098 235.321 636.928 235.493 633.793 235.607C628.537 235.805 623.141 235.121 618.06 236.123C608.447 238.004 598.714 236.85 589.086 238.079C582.755 238.885 576.235 238.233 569.803 238.33C565.257 238.397 560.53 237.91 556.197 238.963C550.141 240.429 544.066 239.568 538.033 240.274C532.839 240.887 527.387 239.848 522.305 240.86C509.591 243.39 496.678 242.116 483.93 243.671C476.773 244.539 469.5 244.477 462.298 245.132C451.394 246.122 440.522 247.516 429.61 248.466C421.946 249.129 414.239 249.258 406.565 249.78C396.916 250.436 387.276 251.263 376.225 251.922M979.75 325.6C980.418 330.438 980.843 335.318 981.806 340.096C983.533 348.746 984.579 357.399 984.108 366.237C983.959 369.114 984.57 372.033 984.861 374.93C985.127 377.595 986.22 380.487 985.526 382.855C984.689 385.674 985.653 388.256 985.238 390.934C984.732 394.187 984.532 397.511 984.555 400.81C984.561 403.477 985.664 406.23 985.247 408.777C984.264 414.733 982.833 420.649 981.256 426.484C979.291 433.746 977.158 440.966 974.79 448.1C973.283 452.646 972.501 457.574 969.016 461.303C968.756 461.585 969.116 462.613 969.419 463.165C969.562 463.415 970.431 463.606 970.663 463.431C974.049 460.859 978.409 458.835 980.448 455.427C982.863 451.384 983.364 446.166 984.515 441.414C986.145 434.651 987.371 427.789 989.217 421.09C990.529 416.329 992.449 411.761 992.636 406.732C992.741 403.902 992.194 400.657 993.376 398.343C995.647 393.919 994.783 389.298 995.555 384.811C996.325 380.333 997.486 375.873 997.797 371.364C998.109 366.854 997.085 362.233 997.536 357.743C998.302 350.138 996.335 343.065 994.101 336.085C991.053 326.532 987.491 317.154 984.094 307.717C982.907 304.437 980.631 301.263 980.458 297.963C980.15 292.418 977.19 287.964 975.713 282.94C973.224 274.428 966.812 268.732 960.126 263.509C956.341 260.551 951.67 258.654 948.099 255.5C940.033 248.357 929.887 245.049 920.691 240.033C917.474 238.277 913.238 238.365 909.454 237.713C908.939 237.627 908.314 238.105 907.748 238.326C908.212 238.86 908.569 239.636 909.163 239.888C912.582 241.337 915.98 242.925 919.525 243.992C930.021 247.174 939.073 253.102 945.89 261.221C953.243 269.979 959.081 280.066 965.121 289.856C970.196 298.075 974.985 306.516 976.971 316.216C977.533 318.961 978.878 321.55 979.769 325.621M1010.6 362.555C1009.8 359.603 1009.1 356.628 1008.14 353.735C1007.92 353.088 1006.74 352.766 1006 352.294C1005.59 352.987 1005.02 353.639 1004.81 354.387C1004.57 355.273 1004.43 356.305 1004.62 357.18C1007.08 367.915 1003.6 378.481 1003.79 389.139C1000.88 392.737 1002.29 397.145 1001.53 401.142C1000.78 405.139 1000.1 409.162 999.259 413.144C998.3 417.749 997.29 422.35 996.142 426.912C994.734 432.498 994.516 438.407 991.58 443.607C991.352 444.002 992.284 445.169 992.839 445.839C993.006 446.041 993.962 445.987 994.149 445.739C998.835 439.578 1004.48 433.863 1007.78 427.015C1010.47 421.427 1013.29 415.557 1014.04 408.873C1014.74 402.646 1014.53 396.457 1014.93 390.27C1015.23 385.87 1014.39 381.361 1013.76 376.938C1013.11 372.372 1012.1 367.862 1010.59 362.565M315.171 518.988C324.364 520.134 333.76 519.21 342.797 522.17C344.905 522.857 347.61 521.721 350.029 521.377C350.444 521.316 350.826 521.011 351.221 520.818C350.899 520.545 350.627 520.125 350.253 520.019C343.41 518.093 336.582 516.087 329.696 514.338C317.491 511.239 305.721 507.057 294.906 500.526C282.907 493.281 273.089 483.35 262.743 474.085C261.506 472.977 259.933 472.247 258.522 471.337C258.958 473.152 259.312 474.99 259.861 476.763C260.059 477.378 260.791 477.819 261.203 478.379C263.512 481.516 266.553 484.362 267.925 487.865C270.711 494.984 276.746 499.321 281.639 504.38C285.895 508.784 291.33 512.528 298.113 513.729C303.461 514.67 308.554 517.117 315.17 518.998M960.726 477.69C960.236 478.117 959.745 478.544 959.244 478.981L961.395 479.761C961.418 478.851 961.451 477.941 960.716 477.689L960.726 477.69Z" fill="#3C4043"/>
<path d="M1116.27 451.865C1118 455.914 1119.39 459.589 1120.81 463.256C1121.05 463.873 1121.42 464.45 1121.73 465.043C1122.26 464.579 1123.12 464.207 1123.28 463.637C1126.66 451.621 1134.37 441.86 1140.04 431.025C1142.97 425.424 1145.39 419.546 1148.42 414.002C1150.72 409.771 1153.52 405.795 1156.34 401.87C1157.66 400.016 1161.76 401.542 1163.18 404.487C1165.41 409.132 1167.25 413.91 1166.46 419.269C1166.2 421.135 1166 423.046 1166.14 424.91C1166.19 425.676 1167.06 426.668 1167.81 426.99C1168.23 427.17 1169.27 426.34 1169.83 425.767C1172.06 423.485 1174.24 421.17 1176.34 418.779C1177.51 417.446 1178.79 416.092 1179.47 414.505C1180.56 411.994 1182.63 409.37 1184.77 410.46C1187.19 411.69 1191.27 412.875 1190.67 417.084C1190.14 420.866 1189.11 424.574 1188.32 428.318C1187.71 431.183 1186.95 434.037 1186.58 436.929C1186.32 439.055 1187.53 438.949 1189.19 438.262C1191.19 437.428 1193.34 436.624 1195.47 436.48C1200.13 436.161 1202.59 433.665 1204.14 429.472C1206.2 423.94 1208.63 418.556 1210.9 413.109C1212.74 408.655 1215.52 408.176 1219.02 411.084C1221.99 413.545 1221.88 417.076 1223.15 420.111C1223.74 421.504 1223.75 423.129 1224.06 424.634C1225.63 431.98 1225.62 431.939 1233.02 429.273C1237.13 427.793 1241.29 426.456 1245.43 425.099C1249.33 423.825 1252.07 421.238 1253.13 417.372C1253.9 414.568 1255.45 412.851 1258.07 412.4C1259.87 412.084 1263.09 416.587 1262.99 419.216C1262.91 421.245 1262.33 423.26 1262.02 425.283C1261.87 426.245 1261.62 427.251 1261.78 428.174C1261.87 428.721 1262.64 429.146 1263.11 429.629C1263.35 429.254 1263.77 428.903 1263.79 428.513C1264.06 422.999 1266.95 418.427 1269.14 413.617C1271.55 408.29 1274.45 403.058 1279.3 399.724C1288.42 393.469 1300.61 396.456 1303.89 406.727C1305.21 410.837 1306.36 415.428 1304.64 420.201C1303.22 424.122 1303.82 428.744 1300.57 432.118C1300.51 432.175 1301.51 433.747 1301.97 433.729C1304.4 433.606 1307.27 433.895 1309.14 432.711C1311.14 431.436 1312.37 428.774 1313.59 426.533C1314.43 425.017 1314.64 423.167 1315.2 421.482C1315.85 419.482 1316.93 416.991 1319.26 418.284C1321.26 419.395 1324.86 420.215 1323.78 424.1C1323.71 424.326 1323.74 424.569 1323.73 424.808C1323.49 427.037 1323.27 429.267 1323.04 431.486C1326.02 431.532 1329.05 431.932 1331.98 431.553C1337.89 430.789 1343.74 429.63 1349.61 428.572C1351.76 428.179 1353.88 427.564 1356.02 427.141C1356.98 426.956 1358.13 426.665 1358.93 427.021C1364.14 429.316 1364.42 431.04 1359.72 434.373C1357.66 435.844 1354.97 436.812 1352.44 437.218C1343.23 438.686 1333.97 439.8 1324.73 441.076C1321.39 441.537 1321.64 442.305 1322.07 445.864C1322.55 449.816 1325.26 451.988 1327.79 453.326C1330.34 454.675 1333.98 454.024 1337.14 454.183C1339.53 454.308 1343.53 453.542 1344.01 454.548C1345.54 457.671 1343.14 460.101 1340.49 461.912C1336.9 464.361 1332.17 464.374 1328.87 463.715C1320.72 462.089 1314.13 459.238 1312.25 447.42C1311.89 445.18 1310.81 445.456 1309.46 446.426C1308.7 446.975 1307.84 447.527 1307.35 448.294C1301.44 457.338 1291.53 460.262 1282.51 464.51C1280.02 465.681 1277.64 465.286 1275.86 462.778C1274.35 460.638 1272.36 459.398 1274.05 455.695C1277.04 449.136 1281.42 443.725 1285.47 437.961C1289.99 431.508 1295.52 425.454 1295.95 416.853C1296.13 413.247 1295.8 409.827 1292.75 407.711C1290.24 405.973 1282.91 407.562 1280.72 410.478C1277.72 414.491 1274.81 418.76 1272.86 423.346C1270.45 429.014 1268.59 435.02 1267.36 441.05C1266.09 447.297 1266.43 453.695 1268.76 459.841C1270.92 465.553 1273.14 471.26 1274.94 477.088C1275.52 478.962 1275.56 481.682 1274.58 483.208C1272.4 486.606 1270.35 486.263 1267.32 483.518C1259.54 476.474 1256.91 466.93 1254.87 457.317C1253.35 450.165 1250.89 443.008 1252.02 435.488C1252.43 432.73 1250.57 432.762 1249.07 433.079C1246.74 433.569 1244.53 434.61 1242.26 435.364C1237.7 436.864 1233.19 438.597 1228.53 439.688C1226.08 440.27 1225.6 441.53 1225.9 443.446C1227.74 454.96 1232.01 465.389 1240.41 473.728C1241.51 474.827 1243.68 475.067 1245.41 475.307C1247.47 475.59 1249.68 475.372 1249.61 478.384C1249.54 480.775 1249.38 483.159 1249.26 485.547C1247.02 485.111 1245.4 486.914 1242.37 485.822C1232.97 482.436 1228.07 475.471 1224.02 467.283C1220.92 460.984 1218.18 454.59 1216.96 447.549C1216.12 442.679 1210.92 441.438 1207.36 445.061C1206.01 446.441 1204.6 448.208 1204.21 450.016C1203.06 455.379 1202.39 460.846 1201.57 466.272C1201.42 467.204 1201.72 468.317 1201.3 469.06C1200.4 470.642 1199.44 472.761 1197.99 473.322C1196.32 473.969 1192.67 470.068 1192.97 468.093C1193.92 461.804 1192.09 455.012 1196.23 449.263C1196.4 449.025 1195.98 447.913 1195.66 447.831C1189.29 446.158 1184.08 449.747 1183.83 456.295C1183.64 461.063 1183.62 465.923 1184.34 470.624C1184.89 474.291 1186.05 478.16 1191.01 478.864C1191.91 478.986 1192.49 481.232 1193.23 482.495C1191.57 483.263 1192.19 486.513 1188.86 485.772C1183.89 484.656 1179.62 483.59 1177.33 478.028C1175.28 473.065 1174.12 468.384 1174.69 462.981C1175.65 454.065 1176.01 445.089 1176.65 436.141C1176.72 435.004 1176.9 433.854 1177.17 432.74C1177.3 432.217 1177.74 431.767 1178.04 431.286C1177.41 431.172 1176.48 430.727 1176.19 430.988C1171.3 435.381 1165.57 438.633 1165.67 447.06C1165.79 456.2 1165.37 465.032 1170.53 473.158C1171.64 474.909 1172.17 477.401 1171.99 479.463C1171.88 480.669 1169.96 482.471 1168.65 482.691C1164.01 483.473 1161.16 480.89 1159.62 476.112C1156.93 467.787 1156.08 459.358 1157.15 450.702C1157.32 449.39 1157.83 447.591 1155.47 447.879C1154.61 447.99 1153.43 448.6 1153.1 449.309C1152.64 450.32 1152.68 451.636 1152.79 452.796C1153.07 455.722 1151.73 456.532 1149.09 455.908C1148.86 455.852 1148.62 455.846 1148.38 455.859C1145.55 455.984 1142.21 455.132 1141.67 452.739C1141.09 450.223 1140.64 446.763 1143.73 444.431C1147.27 441.759 1150.47 438.642 1153.83 435.737C1156.42 433.5 1157.6 430.665 1157.23 427.281C1157.14 426.463 1156.26 425.73 1156.14 424.901C1155.89 423.109 1155.9 421.285 1155.8 419.485C1154.53 421.01 1152.87 422.349 1152.04 424.086C1146.61 435.308 1138.5 445.022 1133.91 456.743C1131.86 461.994 1128.38 466.676 1126.23 471.9C1125.12 474.59 1125.19 477.902 1125.32 480.918C1125.48 484.909 1126.64 488.878 1126.59 492.854C1126.53 497.05 1125.83 501.292 1124.82 505.372C1124.44 506.91 1122.28 507.933 1121.17 509.38C1118.95 512.264 1115.73 512.663 1113 511.471C1109.79 510.077 1108.29 506.776 1108.08 503.172C1107.72 497.113 1109.43 491.157 1112.31 486.304C1117.35 477.831 1114.87 470.122 1111.93 462.28C1109.14 454.881 1106.59 447.547 1105.07 439.684C1103.91 433.699 1105.33 428.174 1105.17 422.45C1104.81 409.263 1112.3 400.73 1122.85 394.552C1126.45 392.436 1127.2 390.563 1126.18 386.663C1124.34 379.61 1123.72 372.33 1124.77 365.065C1125.46 360.321 1123.99 356.6 1120.77 353.251C1118.88 351.286 1116.9 349.505 1117.4 346.061C1118.09 341.237 1118.36 340.344 1123.32 339.103C1127.08 338.16 1129.57 336.949 1130.04 332.139C1130.71 324.989 1132.78 317.965 1134.11 310.87C1134.58 308.366 1135.72 307.272 1138.3 307.401C1141.01 307.548 1142.69 308.365 1142.66 311.481C1142.61 317.952 1141.14 324.126 1139.22 330.248C1138.83 331.465 1138.75 332.772 1138.54 334.04C1139.7 333.72 1140.92 333.523 1142.02 333.058C1143.64 332.388 1145.12 331.237 1146.79 330.812C1151.34 329.663 1153.36 326.755 1153.24 322.236C1153.13 318.279 1154.6 315.073 1157.79 312.848C1158.56 312.31 1160.34 312.282 1161.11 312.807C1165.22 315.567 1165.76 319.854 1164.38 324.009C1162.35 330.133 1161.43 336.254 1161.71 342.689C1161.85 346.207 1161.31 349.758 1161.03 353.287C1160.7 357.705 1161.06 361.99 1164.44 365.231C1166.39 367.1 1166.19 369.602 1165.3 371.004C1164.06 372.963 1162.14 374.805 1158.91 374.352C1156.53 374.016 1155.29 373.36 1154.77 371.038C1153.95 367.413 1152.52 363.866 1152.15 360.212C1151.63 355.003 1151.75 349.709 1151.75 344.456C1151.75 340.587 1151.26 340.132 1147.48 341.675C1144.23 343.004 1140.8 344.151 1137.96 346.119C1135.11 348.087 1134.43 351.559 1133.88 354.999C1132.57 363.268 1133.54 371.325 1135.47 379.347C1135.73 380.407 1136.18 381.451 1136.27 382.519C1136.42 384.344 1136.35 386.183 1136.37 388.019C1137.81 387.728 1139.26 387.177 1140.7 387.206C1146.1 387.329 1151.39 391.283 1152.39 395.743C1153.38 400.131 1150.41 406.742 1145.96 409.251C1144.85 409.866 1142.84 409.847 1141.73 409.239C1139.88 408.22 1139.86 406.324 1140.93 404.443C1141.87 402.764 1142.67 401.005 1143.53 399.28C1141.42 399.415 1139.22 399.193 1137.24 399.757C1127.19 402.621 1118.13 407.237 1114.86 418.027C1112.39 426.166 1111.95 434.706 1113.98 443.167C1114.64 445.939 1115.27 448.709 1116.25 451.864M1287.09 451.244C1286.91 451.402 1286.69 451.527 1286.57 451.72C1286.5 451.835 1286.59 452.192 1286.6 452.193C1288.05 452.103 1289.66 452.334 1290.92 451.8C1293.54 450.678 1296 449.174 1298.49 447.762C1299.29 447.316 1300.22 446.769 1300.59 446.023C1300.89 445.422 1300.41 443.745 1300.38 443.743C1297.5 443.995 1294.24 441.705 1291.79 444.572C1290.24 446.38 1289.14 448.569 1287.09 451.244M1210.88 433.907C1212.07 434.962 1213.31 435.539 1213.69 433.349C1213.84 432.468 1213.18 431.45 1212.88 430.487C1212.24 431.155 1211.62 431.823 1210.88 433.897L1210.88 433.907Z" fill="#3C4043"/>
<path d="M1394.45 593.597C1388.94 596.384 1383.43 595.873 1378.23 596.655C1372.25 597.555 1366.16 597.736 1360.14 598.352C1355.67 598.805 1355.26 599.428 1355.33 604.345C1355.35 605.288 1355.26 606.234 1355.14 607.168C1354.66 610.945 1356.27 614.334 1359.15 615.966C1360.79 616.901 1363.94 615.284 1366.38 614.661C1367.63 614.347 1368.79 613.424 1370.04 613.3C1371.03 613.198 1372.09 613.894 1373.12 614.225C1371.75 615.524 1375.18 616.202 1373.29 618.287C1370.94 620.891 1364.45 625.364 1360.47 625.339C1354.81 625.309 1350.59 623.614 1348.17 617.743C1346.14 612.811 1345.83 607.758 1345.66 602.744C1345.47 597.579 1341.94 600.612 1340.07 599.841C1337.42 598.757 1336.86 600.522 1336.98 602.755C1337.02 603.46 1336.7 604.219 1336.87 604.863C1340.16 616.788 1332.58 623.641 1324.54 629.581C1319.6 633.22 1313.57 635.278 1306.89 634.476C1298.49 633.464 1292.63 628.839 1290.31 620.539C1288.8 615.183 1288.25 614.673 1283.6 617.229C1275.04 621.949 1265.61 623.944 1256.46 626.91C1254.39 627.579 1251.34 628.089 1250.92 632.02C1250.61 635.006 1246.93 635.804 1245.29 633.365C1242.62 629.402 1239.2 631.04 1236.03 631.271C1232.06 631.548 1228.14 632.761 1224.18 632.848C1219.2 632.955 1218.4 632.088 1218.94 627.173C1219.27 624.228 1217.9 623.092 1216.11 621.203C1212.16 617.031 1208.88 612.223 1205.39 607.612C1203.91 605.655 1203.01 602.495 1201.13 601.784C1198.2 600.67 1194.66 601.117 1191.38 601.05C1190.83 601.042 1190.3 602.028 1189.7 602.127C1182.95 603.214 1182.94 603.193 1184.61 609.714C1185.96 614.98 1184.19 620.01 1180.38 622.563C1171.86 628.259 1162.03 630.917 1152.64 634.568C1148.81 636.058 1144.48 636.249 1140.4 637.14C1139.71 637.293 1139.14 637.995 1138.51 638.443C1139.11 638.935 1139.69 639.848 1140.3 639.87C1144.34 640.019 1142.09 642.87 1142.3 644.519C1142.58 646.684 1142.11 648.966 1139.83 649.761C1137.89 650.439 1136.55 648.963 1135.09 647.609C1132.83 645.508 1134.38 640.182 1129.37 640.658C1126.08 640.962 1122.84 641.801 1119.56 642.255C1116.03 642.743 1112.32 643.83 1108.98 643.187C1106.74 642.752 1104.29 640.067 1103.24 637.789C1102.18 635.47 1103.44 632.67 1106.16 631.415C1107.86 630.64 1109.76 628.847 1110.66 632.719C1111.19 634.99 1113.2 635.871 1116.18 634.814C1119.46 633.648 1123.29 634.143 1126.68 633.174C1128.68 632.601 1131.22 631.884 1130.85 628.16C1130.24 621.783 1132.84 615.317 1130.66 608.861C1130.38 608.04 1130.72 606.991 1130.82 606.055C1131.24 601.574 1130.9 601.009 1126.64 599.231C1124.67 598.403 1123.59 594.63 1124.83 592.581C1125.18 592.003 1125.8 591.374 1126.42 591.207C1133.8 589.131 1132.21 582.886 1132.78 577.653C1133.07 575.007 1131.87 574.663 1130 576.128C1127.81 577.85 1125.87 579.912 1123.63 581.551C1122.11 582.659 1119.61 584.471 1118.68 583.946C1116.26 582.586 1114.59 579.884 1115.89 576.846C1116.64 575.064 1117.92 573.238 1119.46 572.111C1122.51 569.886 1125.75 567.715 1129.22 566.29C1133.2 564.651 1136.46 563.142 1135.7 557.907C1135.57 556.946 1136.9 555.134 1137.89 554.851C1138.72 554.607 1140.68 555.786 1141.01 556.731C1143.18 562.925 1147.04 560.696 1151.72 560.198C1158.31 559.501 1165.82 558.957 1170.5 565.986C1172.06 568.34 1172.07 573.513 1170.22 575.58C1166.51 579.744 1162.33 583.354 1157.16 585.633C1156.36 585.979 1155.44 586.086 1154.7 586.516C1154.24 586.775 1154.02 587.431 1153.69 587.91C1154.1 588.068 1154.5 588.367 1154.92 588.375C1159.97 588.414 1164.67 589.761 1169.27 591.853C1170.12 592.243 1172.62 591.073 1172.99 590.116C1175.62 583.11 1177.9 575.981 1180.26 568.867C1181.37 565.515 1182.48 562.154 1183.44 558.761C1184.43 555.272 1186.28 555.881 1188.37 557.599C1189.09 558.19 1189.56 559.065 1190.26 559.704C1192.7 561.948 1194.72 561.847 1196.53 559.195C1198.25 556.669 1199.67 553.919 1201.4 551.403C1202.16 550.283 1203.26 548.865 1204.42 548.645C1206.23 548.289 1208.62 548.213 1210.04 549.134C1212.36 550.647 1211.72 553.289 1210.31 555.247C1207.33 559.401 1204.65 564.017 1200.85 567.273C1195.58 571.79 1198.01 576.318 1199.54 580.905C1200.14 582.721 1201.58 584.023 1202.02 586.319C1202.89 590.93 1207.8 593.124 1213.07 592.446C1215.96 592.074 1218.86 591.773 1221.77 591.633C1226.55 591.402 1231.34 591.233 1236.12 591.242C1237.32 591.245 1238.51 592.009 1239.72 592.423C1239.05 593.8 1238.64 595.406 1237.65 596.48C1236.83 597.366 1235.35 597.975 1234.11 598.08C1230.05 598.441 1225.96 598.469 1221.89 598.739C1219.22 598.915 1216.56 599.282 1213.9 599.59C1211.33 599.883 1209.24 602.666 1210.7 604.371C1214.45 608.75 1218.28 613.264 1222.89 616.61C1225.24 618.316 1229.52 619.575 1232.09 614.931C1233.21 612.913 1236.17 613.899 1236.6 616.285C1236.82 617.413 1236.28 618.669 1236.46 619.804C1236.7 621.284 1234.62 623.836 1238.16 623.991C1240.95 624.113 1243.32 622.263 1243.51 619.659C1244.17 610.714 1246.1 601.585 1244.97 592.866C1244.01 585.462 1247.2 579.077 1246.89 572.079C1246.7 567.786 1246.2 566.699 1242.52 567.577C1240.64 568.029 1238.49 570.236 1237.35 567.55C1236.49 565.547 1237.25 562.903 1239.73 561.581C1239.94 561.475 1240.07 561.223 1240.28 561.127C1244.84 558.957 1249.07 556.874 1250.57 551.093C1251.3 548.327 1256.32 549.385 1256.47 552.714C1256.68 557.289 1259.35 556.943 1262.41 557.575C1273.46 559.873 1284.65 562.03 1293.64 569.638C1295.26 571.012 1296.34 573.002 1297.79 574.595C1298.65 575.557 1299.74 576.324 1300.73 577.185C1301.17 576.263 1301.55 575.306 1302.05 574.429C1310.92 558.684 1322.16 545.357 1338.79 537.124C1346.44 533.342 1354.5 531.494 1362.77 530.502C1365.45 530.186 1368.51 531.48 1371.09 532.681C1372.09 533.141 1372.27 535.379 1372.81 536.8C1371.67 537.162 1370.55 537.816 1369.39 537.856C1354.43 538.316 1341.44 543.602 1329.34 552.419C1318.93 560.009 1312.31 570.187 1305.59 580.728C1303.07 584.684 1304.6 588.167 1303.78 591.78C1303.75 591.928 1305.53 592.943 1306.12 592.703C1319.48 587.231 1332.78 581.646 1346.08 576.04C1347.1 575.609 1348.05 574.882 1348.87 574.117C1349.37 573.651 1349.58 572.863 1349.91 572.215C1349.23 572.117 1348.46 571.764 1347.88 571.964C1344.58 573.109 1341.03 573.916 1338.14 575.741C1335.07 577.684 1333.2 576.823 1331.96 574.222C1330.71 571.579 1332.69 567.616 1335.15 566.774C1344.1 563.734 1353.32 561.113 1362.63 560.384C1375.54 559.382 1388.06 556.739 1400.7 554.405C1406.86 553.267 1413.22 553.276 1419.47 552.716C1428.18 551.924 1436.86 550.55 1445.57 550.42C1454.04 550.294 1462.54 551.422 1471 552.058C1471.59 552.098 1472.24 552.584 1472.68 553.036C1474 554.36 1476.46 556.004 1476.25 557.091C1475.81 559.347 1473.31 559.424 1471.08 559.16C1468.04 558.809 1464.96 558.657 1461.9 558.495C1452.16 557.972 1442.55 558.752 1432.93 560.573C1428.78 561.358 1424.36 560.722 1420.02 561.013C1409.74 561.716 1399.63 563.422 1389.45 564.493C1380.99 565.372 1372.86 567.356 1364.59 568.788C1361.44 569.333 1359.61 569.668 1361.41 573.972C1362.4 576.336 1360.41 580.007 1359.62 583.05C1359.24 584.517 1358.4 585.873 1357.96 587.326C1357.44 589.104 1358.27 590.134 1360.09 589.778C1368.66 588.116 1377.75 591.079 1386.05 586.952C1386.83 586.565 1387.79 585.98 1388.5 586.149C1395.95 587.937 1402.43 582.852 1409.67 583.212C1410.39 583.252 1411.19 582.274 1411.89 581.691C1414.34 579.646 1416.58 580.663 1417.52 582.973C1418.42 585.18 1418.12 587.405 1414.84 588.601C1408.4 590.943 1402.17 593.77 1394.42 593.605M1289.9 575.012C1280.64 569.902 1271.02 565.999 1260.22 565.824C1255.58 565.754 1254.69 566.203 1254 570.676C1252.99 577.242 1251.88 583.811 1251.25 590.414C1250.4 599.306 1249.92 608.244 1249.36 617.167C1249.14 620.74 1249.87 621.522 1253.09 620.252C1263.83 616.012 1274.54 611.671 1285.07 606.925C1287.65 605.761 1290.09 603.263 1291.52 600.755C1293.33 597.573 1293.58 593.51 1295.36 590.295C1297.9 585.68 1296.54 582.288 1293.36 578.94C1292.38 577.921 1291.5 576.817 1289.91 574.993M1323.39 604.292C1315.98 604.722 1308.51 604.727 1301.2 605.815C1298.44 606.226 1295.54 608.511 1295.07 612.398C1293.71 623.792 1303.41 627.719 1312.56 625.555C1319.04 624.019 1324.41 620.12 1328.98 615.284C1329.84 614.391 1330.33 613.012 1330.64 611.78C1331.85 606.892 1328.27 605.651 1323.38 604.301M1136.98 629.767C1144.33 628.481 1151.1 625.41 1157.97 622.657C1158.62 622.391 1159.26 621.694 1159.56 621.043C1161.86 616.12 1164.08 611.151 1166.29 606.192C1166.67 605.336 1166.97 604.444 1167.31 603.566C1166.38 603.462 1165.44 603.166 1164.55 603.295C1158.88 604.126 1153.24 605.119 1147.55 605.839C1146.86 605.931 1145.57 604.86 1145.29 604.069C1144.93 603.051 1145.14 601.723 1145.42 600.609C1146.08 597.898 1144.72 597.524 1142.45 597.427C1138.84 597.278 1138.32 599.427 1138.15 602.262C1137.59 611.185 1136.93 620.091 1136.98 629.767M1139.54 582.361C1139.3 584.98 1140.32 585.11 1142.35 583.938C1145.77 581.969 1149.38 580.304 1152.76 578.262C1156.02 576.293 1159.12 574.051 1162.24 571.841C1162.71 571.512 1163.22 570.375 1163.05 570.183C1162.54 569.616 1161.71 568.967 1161.02 568.99C1157.67 569.099 1154.3 569.237 1150.99 569.71C1148.21 570.099 1145.17 570.44 1142.87 571.825C1141.66 572.554 1141.87 575.515 1141.28 577.419C1140.89 578.645 1140.2 579.78 1139.55 582.361M1194.58 587.589C1192.52 583.751 1190.03 583.709 1187.09 587.462C1185.85 589.04 1184.5 590.53 1183.31 592.143C1182.97 592.61 1182.74 593.547 1182.99 593.964C1183.25 594.403 1184.49 594.86 1184.68 594.663C1187.17 592.249 1190.07 594.304 1192.69 593.803C1194.16 593.524 1195.53 592.737 1196.95 592.173C1196.13 591.114 1195.32 590.055 1194.59 587.59M1177.38 610.547C1177.43 609.849 1177.7 609.056 1177.47 608.469C1177.07 607.459 1176.35 606.567 1175.76 605.634C1174.95 606.309 1173.81 606.832 1173.39 607.705C1172.08 610.421 1170.99 613.263 1169.96 616.099C1169.79 616.558 1170.18 617.587 1170.58 617.796C1171.04 618.028 1172.04 617.837 1172.42 617.452C1174.12 615.694 1175.68 613.798 1177.39 610.538M1344.28 590.119C1345.82 588.772 1347.46 587.512 1348.87 586.026C1349.32 585.546 1349.19 584.494 1349.32 583.701C1348.52 583.746 1347.61 583.553 1346.93 583.867C1344.37 585.063 1341.87 586.384 1339.39 587.746C1337.95 588.538 1336.61 589.508 1335.22 590.395C1337.13 590.386 1339.03 590.398 1340.93 590.339C1341.58 590.323 1342.22 590.127 1344.28 590.109M1325.31 597.318C1326.05 596.898 1326.76 596.205 1327.54 596.099C1329.97 595.766 1328.49 594.48 1327.85 594.266C1326.94 593.962 1325.78 594.293 1324.75 594.452C1322.61 594.776 1323.04 595.948 1325.31 597.318M1186.54 570.684C1186.01 571.148 1185.29 571.51 1185 572.091C1184.65 572.779 1184.65 573.651 1184.51 574.443C1185.19 574.059 1186.01 573.805 1186.54 573.26C1186.95 572.838 1187 572.059 1186.55 570.675L1186.54 570.684Z" fill="#3C4043"/>
<path d="M1244.35 340.343C1244.42 352.898 1229.26 367.166 1215.56 363.783C1212.94 363.141 1210.46 361.095 1208.43 359.161C1206.69 357.507 1205.83 357.377 1203.88 358.846C1199.75 361.979 1195.51 365.134 1190.88 367.41C1187.63 369.01 1183.7 369.64 1180.02 369.877C1172.45 370.376 1167.04 366.404 1165.04 358.867C1163.64 353.598 1163.42 348.331 1165.67 342.913C1167.69 338.021 1168.81 332.705 1169.92 327.49C1171.87 318.382 1178.99 314.414 1186.56 312.441C1195.47 310.12 1199.84 310.743 1208 317.873C1210.28 319.865 1211.23 319.459 1213.1 317.874C1213.91 317.199 1214.25 314.827 1216.74 316.673C1218.71 318.142 1220.62 318.946 1220.08 321.775C1219.34 325.553 1219.42 329.769 1217.69 333.007C1215.17 337.714 1215.56 342.613 1215.7 347.264C1215.91 353.995 1219.21 356.067 1226.13 353.027C1234.39 349.388 1237.69 342.289 1240.47 334.632C1241.67 331.307 1241.88 327.262 1247.07 327.61C1247.41 327.634 1248.1 325.857 1248.23 324.864C1248.95 319.41 1248.74 313.933 1250.6 308.519C1251.73 305.249 1252.67 303.97 1256.15 304.131C1260.21 304.321 1264.3 303.632 1268.38 303.683C1283.67 303.858 1289.34 309.874 1293.67 324.166C1295.53 330.309 1294.04 336.491 1292.98 342.883C1291.36 352.735 1285.65 358.845 1278.52 364.277C1272.33 368.991 1265.13 371.932 1257.61 373.827C1255.89 374.26 1254.23 374.085 1253.08 371.259C1249.92 363.522 1247.61 355.825 1248.07 347.356C1248.27 343.771 1247.72 340.145 1247.44 336.537C1247.4 335.993 1246.99 335.473 1246.75 334.946C1246.51 335.561 1246.32 336.199 1246.02 336.78C1245.53 337.748 1244.96 338.691 1244.36 340.344M1279.34 317.191C1272.94 312.689 1266.87 312.63 1261.07 317.251C1259.93 318.155 1259.13 319.663 1258.52 321.044C1254.42 330.244 1256.97 339.933 1256.54 349.405C1256.51 349.834 1256.55 350.609 1256.73 350.662C1262.12 352.307 1261.42 357.672 1263.4 361.397C1264.14 362.802 1264.86 363.122 1266.42 361.786C1270.06 358.66 1274.19 356.108 1277.83 352.982C1288.33 343.995 1289.21 328.589 1279.34 317.181M1173.68 356.037C1176.53 361.867 1176.57 362.02 1183.35 360.223C1198.57 356.204 1207.09 348.242 1206.52 334.069C1206.27 327.947 1202.42 323.271 1196.36 322.812C1193.78 322.613 1191.19 322.304 1188.61 322.306C1183.76 322.302 1180.64 325.053 1179.74 329.672C1179.49 330.938 1178.82 332.125 1178.38 333.357C1176.53 338.502 1174.46 343.591 1172.96 348.84C1172.47 350.55 1173.46 352.684 1173.68 356.037V356.037Z" fill="#3C4043"/>
<path d="M1354.3 357.536C1351.19 352.489 1349.92 348.241 1351.9 342.274C1356.78 327.495 1364.65 314.497 1375.06 303.488C1380.58 297.636 1388.22 292.961 1397.09 291.61C1403.52 290.631 1409.4 292.681 1411.08 297.709C1411.51 299.012 1411.59 300.762 1411.09 302C1410.07 304.545 1408.67 302.103 1407.46 301.89C1395.33 299.707 1386.2 305.382 1378.38 313.572C1371.96 320.295 1367.34 328.426 1362.72 336.426C1360.88 339.607 1359.99 343.384 1359.1 347.001C1358.87 347.928 1359.5 350.006 1361.95 348.993C1367.2 346.79 1372.2 344.79 1374.15 338.449C1375.5 334.092 1376.48 334.851 1382.21 335.458C1387.6 336.031 1393.11 337.805 1398.74 335.669C1400.75 334.905 1403.41 336.091 1405.7 335.829C1415.33 334.73 1425.28 335.208 1434.12 330.045C1435.08 329.49 1437.59 329.594 1437.75 330.005C1438.48 331.98 1439.66 334.889 1438.79 336.121C1437.35 338.147 1434.63 339.743 1432.14 340.443C1422.34 343.184 1412.4 345.103 1402.15 345.757C1396.12 346.143 1390.2 347.869 1384.04 347.212C1381.53 346.949 1379.6 347.988 1378.3 350.484C1377.61 351.81 1375.87 352.592 1374.61 353.617C1368.68 358.4 1361.93 359.326 1354.34 357.538L1354.3 357.536Z" fill="#3C4043"/>
<path d="M1320.11 312.912C1319.59 320.444 1318.78 327.265 1318.77 334.09C1318.77 337.749 1319.84 341.492 1320.95 345.037C1321.82 347.804 1324.68 347.299 1326.96 347.457C1326.93 345.751 1328.58 344.942 1328.36 342.572C1327.89 337.437 1327.83 332.311 1326.18 327.356C1325.22 324.462 1324.16 321.602 1323.15 318.716C1322.37 316.436 1322.45 314.527 1324.26 312.457C1326.33 310.084 1328.62 309.02 1330.74 310.861C1332.5 312.386 1333.83 314.402 1335.49 316.05C1337.91 318.443 1340.24 321.03 1343.03 322.917C1345.63 324.681 1346.71 327.01 1345.79 329.503C1344.84 332.104 1341.98 331.715 1339.66 331.284C1335.86 330.57 1335.97 330.548 1336.44 334.019C1337.01 338.228 1337.62 342.49 1337.56 346.726C1337.48 351.933 1332.06 357.973 1327.34 358.861C1324 359.492 1316.3 355.11 1314.69 351.159C1312.86 346.693 1310.84 342.253 1311.22 337.107C1311.36 335.031 1310.27 332.871 1309.73 330.749C1308.86 332.683 1307.89 334.581 1307.12 336.553C1306.41 338.398 1305.68 340.293 1305.36 342.225C1305.15 343.473 1305.37 345.002 1305.94 346.114C1306.67 347.498 1309.04 349.436 1308.85 349.674C1306.73 352.374 1308.22 356.406 1304.96 358.817C1302.53 360.614 1299.85 362.583 1297.63 360.715C1295.44 358.88 1293.11 355.201 1293.5 352.732C1294.45 346.453 1296.67 340.331 1298.8 334.284C1300.9 328.314 1303.2 322.369 1306 316.698C1307.54 313.577 1310.21 310.975 1312.5 308.256C1315.54 304.648 1317.31 304.78 1319.81 308.872C1320.34 309.73 1320.05 311.074 1320.1 312.901L1320.11 312.912Z" fill="#3C4043"/>
<path d="M1452.77 617.867C1444.97 619.342 1437.55 620.443 1430.14 621.655C1427.99 622.007 1425.84 622.52 1423.78 623.24C1422.06 623.842 1420.52 624.809 1419.42 622.387C1418.35 620.058 1417.04 617.662 1420.03 615.894C1422.09 614.673 1424.3 613.322 1426.6 612.96C1437.16 611.254 1447.71 609.598 1458.47 609.279C1467.86 608.996 1477.21 607.607 1486.61 606.965C1496.8 606.276 1506.92 604.479 1517.11 603.59C1523.02 603.076 1529.01 603.57 1534.94 603.249C1538.16 603.071 1539.98 605.061 1540.85 607.226C1541.43 608.639 1540.52 611.683 1539.27 612.54C1537.78 613.569 1535.66 616.55 1533 613.359C1532.36 612.593 1530.32 612.813 1528.95 612.878C1518.57 613.383 1508.06 615.224 1497.87 614.118C1489.99 613.272 1482.63 615.37 1474.95 615.059C1467.73 614.771 1460.42 616.631 1452.78 617.887L1452.77 617.867Z" fill="#3C4043"/>
<path d="M1079.69 590.662C1076.8 595.836 1074.29 600.663 1071.79 605.512C1065.6 617.535 1059.4 629.545 1053.29 641.603C1052.8 642.572 1052.95 643.875 1052.85 645.031C1052.71 646.675 1053.04 648.512 1052.41 649.932C1051.61 651.711 1050.06 653.148 1048.84 654.727C1047.31 653.429 1044.69 653.067 1044.73 650.424C1044.79 647.571 1044.45 644.48 1045.41 641.9C1049.08 632.07 1054.68 623.075 1059.67 613.967C1065.43 603.459 1070.87 592.699 1077.13 582.466C1083.75 571.647 1089.9 560.555 1096.45 549.711C1100.78 542.562 1105.95 535.913 1110.79 529.08C1111.31 528.345 1112.12 527.599 1112.94 527.345C1113.77 527.092 1115.02 527.138 1115.64 527.632C1116.15 528.048 1116.3 529.341 1116.11 530.13C1115.79 531.371 1115.2 532.603 1114.49 533.687C1108.21 543.226 1101.57 552.55 1095.62 562.304C1090.06 571.422 1085.22 580.981 1079.68 590.671L1079.69 590.662Z" fill="#3C4043"/>
<path d="M1343.92 399.782C1349.86 398.519 1355.29 399.736 1360.61 398.249C1364 397.291 1367.92 397.261 1371.43 397.864C1378.29 399.03 1385.08 395.109 1392.14 398.594C1395.65 400.33 1400.49 399.232 1404.68 399.802C1407.04 400.125 1409.41 400.981 1411.56 402.042C1413.96 403.23 1413.42 405.799 1412.78 407.64C1412.55 408.325 1410.05 408.643 1408.68 408.458C1404.88 407.936 1401.07 406.188 1397.39 406.505C1388.09 407.316 1378.83 405.443 1369.7 406.085C1359.44 406.809 1349.29 409.265 1339.17 411.342C1335.38 412.122 1331.4 412.338 1328.02 415.302C1326.26 416.845 1323.57 415.215 1321.49 413.177C1318.66 410.385 1321.67 408.528 1322.51 407.424C1325.95 402.93 1331.14 401.324 1336.65 400.703C1338.84 400.453 1341.02 400.073 1343.91 399.801L1343.92 399.782Z" fill="#3C4043"/>
<path d="M1473.58 414.428C1468.91 421.814 1464.17 428.423 1459.76 435.235C1458.82 436.693 1458.37 437.985 1456.41 437.379C1454.36 436.736 1453.42 435.308 1453.84 433.182C1454.05 432.114 1454.22 430.822 1454.91 430.098C1459.72 425.007 1461.59 418.351 1464.45 412.253C1466.02 408.894 1466.53 405.01 1467.31 401.315C1467.5 400.406 1467.14 398.757 1466.52 398.454C1465.71 398.047 1464.33 398.432 1463.33 398.834C1462.51 399.168 1461.95 400.112 1461.16 400.599C1460.24 401.167 1458.46 402.086 1458.32 401.906C1457.44 400.712 1456.34 399.264 1456.34 397.9C1456.29 391.732 1465.31 385.259 1471.09 387.322C1474.36 388.49 1476.27 391.82 1476.14 394.678C1475.86 401.044 1476.74 407.69 1473.56 414.417L1473.58 414.428Z" fill="#3C4043"/>
<path d="M1421.48 485.033C1420.35 480.304 1423.33 478.064 1426.45 476.646C1428.5 475.715 1430.88 476.832 1432.34 479.138C1433.79 481.423 1433.53 488.092 1431.68 490.089C1428.79 493.227 1425.27 492.883 1423 489.108C1422.35 488.02 1422.19 486.646 1421.47 485.032L1421.48 485.033Z" fill="#3C4043"/>
<path d="M692.043 404.075C686.745 398.496 681.537 393.515 676.862 388.06C666.5 375.977 656.374 363.679 646.216 351.419C639.221 342.977 632.365 334.414 625.328 326.008C623.754 324.125 621.573 322.771 619.797 321.045C618.444 319.739 617.296 318.226 616.052 316.796C615.682 318.806 615.303 320.814 614.934 322.814C614.186 326.822 613.417 330.838 612.688 334.858C611.996 338.639 612.455 342.439 610.715 346.289C608.904 350.303 608.9 355.145 608.139 359.633C606.006 372.206 602.829 384.526 598.395 396.468C596.659 401.14 593.741 405.359 591.603 409.892C589.83 413.649 588.474 417.595 586.818 421.399C579.345 438.585 565.58 448.479 548.324 454.052C544.141 455.407 539.869 456.886 535.18 456.121C526.685 454.742 519.147 451.564 512.219 446.364C505.033 440.976 501.189 433.653 498.229 425.57C494.021 414.092 488.772 402.884 485.848 391.094C483.118 380.119 480.258 368.855 481.847 357.177C482.605 351.576 482.47 345.853 483.129 340.225C484.647 327.259 486.266 314.28 492.271 302.386C493.454 300.052 492.245 295.939 495.765 295.49C501.267 294.778 503.257 291.648 504.237 286.754C504.561 285.112 510.149 284.316 511.84 285.665C513.817 287.235 514.198 288.976 512.495 291.565C508.341 297.863 507.441 305.219 506.172 312.569C501.889 337.392 501.475 362.524 499.926 387.546C498.961 403.247 501.573 418.524 511.479 431.979C516.079 438.231 520.8 443.449 528.707 442.612C534.674 441.982 540.59 440.216 546.16 437.073C560.556 428.926 572.301 417.96 583.051 405.562C586.907 401.117 586.949 395.727 588.79 390.843C591.824 382.773 593.793 374.298 596.181 365.993C596.432 365.119 596.498 364.171 596.541 363.252C596.939 356.192 599.435 349.518 600.57 342.67C602.222 332.701 602.238 322.457 602.869 312.317C602.925 311.509 602.599 310.424 602.036 309.873C596.282 304.213 597.886 296.826 597.455 290.01C597.261 286.869 600.116 284.721 603.248 284.647C612.495 284.434 615.858 287.694 615.281 296.766C615.064 300.199 615.953 302.997 618.197 305.478C618.989 306.354 619.759 307.249 620.529 308.145C634.613 324.816 648.729 341.459 662.748 358.195C669.331 366.058 675.541 374.246 682.263 381.988C688.363 389.015 694.932 395.644 701.309 402.43C701.701 402.848 702.254 403.107 702.733 403.431C702.908 402.791 703.213 402.151 703.257 401.502C704.319 386.43 705.193 371.334 706.464 356.276C707.285 346.579 707.982 336.784 710.089 327.327C711.412 321.394 711.393 315.428 712.568 309.596C714.138 301.815 716.548 294.223 716.991 286.215C717.138 283.509 720.596 281.051 722.786 281.554C725.036 282.07 727.347 286.771 726.642 289.438C726.017 291.801 725.024 294.138 724.798 296.538C724.219 302.883 723.396 309.121 720.647 314.966C720.365 315.568 720.52 316.36 720.471 317.068C719.382 331.808 714.871 346.031 714.462 360.928C714.057 375.786 712.69 390.627 711.445 405.446C710.983 410.968 712.057 415.152 717.51 417.614C719.085 418.324 720.331 419.874 721.574 421.182C725.078 424.863 725.466 424.769 727.588 419.583C729.251 415.538 730.904 411.493 732.693 407.507C738.51 394.557 744.365 381.64 750.241 368.714C754.944 358.384 759.949 348.185 764.351 337.724C769.028 326.63 774.195 315.821 780.208 305.4C780.641 304.649 780.969 303.829 781.382 303.066C784.694 296.92 784.63 296.975 780.73 292.205C779.168 290.293 778.137 287.946 776.565 286.043C774.678 283.758 775.076 282.201 777.054 280.123C779.216 277.856 780.969 278.599 782.802 280.059C784.238 281.191 785.464 282.589 786.735 283.929C789.761 287.136 789.683 287.1 792.437 283.081C793.819 281.061 795.434 279.168 797.093 277.358C798.187 276.171 799.546 275.222 800.781 274.165C801.867 275.864 803.461 277.448 803.865 279.3C804.207 280.867 803.39 282.835 802.677 284.45C801.526 287.037 800.624 290.212 798.579 291.815C794.086 295.334 796.21 298.237 798.193 301.742C802.114 308.679 806.096 315.61 809.457 322.809C814.644 333.913 819.735 345.101 824.157 356.533C831.89 376.474 842.271 394.944 853.782 412.87C857.81 419.133 860.613 426.143 866.01 431.588C868.343 433.945 867.042 440.009 864.335 441.897C861.681 443.749 856.852 442.412 855.541 438.894C848.551 420.097 836.454 403.974 828.004 385.989C820.472 369.961 814.286 353.305 807.024 337.135C802.516 327.091 797.035 317.48 792.156 307.59C790.89 305.016 789.673 306.095 788.723 307.372C787.154 309.469 785.794 311.741 784.591 314.073C780.69 321.632 776.663 329.142 773.131 336.877C768.689 346.614 764.8 356.61 760.455 366.393C754.247 380.359 747.67 394.158 741.627 408.194C739.442 413.276 737.334 418.393 736.91 424.237C736.631 428.127 733.827 431.853 732.103 435.623C731.867 436.138 731.19 436.933 730.894 436.873C726.603 435.874 722.315 434.816 718.08 433.581C717.294 433.356 716.745 432.316 716.089 431.649C715.792 432.471 715.274 433.287 715.227 434.115C715.064 437.342 714.921 440.129 710.31 439.85C704.25 439.491 703.713 438.993 703.864 432.889C703.99 427.876 703.888 422.827 703.411 417.842C703.237 416.005 701.989 414.045 700.696 412.602C698.119 409.718 695.169 407.148 692.054 404.066M493.441 354.47C493.991 349.717 493.986 344.995 495.597 340.255C496.705 336.984 495.193 332.91 495.476 329.241C495.79 324.992 496.791 320.801 497.484 316.579C497.52 316.351 497.599 316.076 497.523 315.88C497.308 315.364 497.031 314.874 496.775 314.375C496.567 314.761 496.342 315.127 496.154 315.525C495.591 316.699 494.761 317.834 494.535 319.081C492.884 328.019 490.816 336.917 489.951 345.939C489.093 354.881 489.398 363.944 489.408 372.946C489.411 375.803 489.993 378.69 490.539 381.515C490.671 382.215 491.718 382.739 492.348 383.344C492.571 382.728 492.963 382.123 492.997 381.494C493.526 372.96 494.757 364.445 493.471 354.472M565.279 435.427C564.117 435.999 562.893 436.455 561.821 437.173C561.212 437.572 560.875 438.381 560.411 439C561.205 438.975 562.17 439.222 562.756 438.862C563.918 438.15 564.883 437.104 565.269 435.437L565.279 435.427Z" fill="#3C4043"/>
<path d="M381.984 348.549C376.092 337.216 376.803 325.487 381.462 315.214C387.779 301.266 397.094 288.609 412.919 284.009C421.072 281.636 429.094 278.11 438.097 278.813C447.609 279.551 455.84 288.379 457.782 297.696C459.749 307.084 456.103 314.59 452.434 322.426C448.034 331.835 441.335 339.28 433.337 345.794C429.619 348.825 426.64 352.759 423.014 355.916C416.049 361.99 408.288 363.9 399.358 360.115C392.95 357.397 386.281 355.272 381.974 348.549M451.306 306.119C450.969 304.171 450.942 302.094 450.214 300.3C449.154 297.66 447.651 295.181 446.197 292.725C445.963 292.338 444.998 292.381 444.367 292.227C444.413 292.732 444.334 293.288 444.524 293.732C446.907 299.279 448.64 304.942 448.146 311.083C448.12 311.462 448.492 311.869 448.676 312.262C448.973 311.731 449.369 311.218 449.539 310.648C449.928 309.372 450.209 308.068 451.296 306.118M420.336 322.442C422.01 321.425 423.711 320.46 425.32 319.368C425.635 319.16 425.841 318.352 425.686 317.99C425.427 317.391 424.479 316.453 424.437 316.481C422.091 318.233 419.818 320.081 417.536 321.918C418.22 322.316 418.905 322.704 420.336 322.442V322.442Z" fill="#3C4043"/>
<path d="M433.985 459.379C427.726 460.009 421.834 460.715 415.973 460.53C406.21 460.226 396.628 461.238 387.037 462.8C383.032 463.455 378.891 463.189 374.822 463.469C368.316 463.911 361.806 464.414 355.309 465.007C354.704 465.065 353.689 465.978 353.683 466.498C353.666 470.366 353.718 474.249 354.023 478.099C354.238 480.801 354.079 483.095 351.511 484.722C348.607 486.566 346.217 485.749 343.265 484.372C340.323 482.996 339.373 481.367 340.029 478.555C340.582 476.198 341.306 473.852 342.194 471.598C344.129 466.65 343.66 465.755 338.455 465.215C337.987 465.163 337.517 465.15 337.038 465.117C331.461 464.601 329.524 461.44 331.658 456.095C331.877 455.538 332.977 454.993 333.658 455C336.491 455.055 339.327 455.211 342.129 455.566C344.077 455.81 344.611 455.045 344.572 453.289C344.415 444.968 347.223 436.692 344.915 428.323C344.618 427.25 345.026 425.985 345.107 424.808C345.58 417.974 345.843 411.126 346.584 404.321C347.253 398.122 346.74 391.912 347.593 385.666C348.549 378.655 346.885 371.253 348.086 364.319C349.993 353.264 349.526 341.895 351.964 331.128C353.942 322.383 352.109 312.794 357.547 304.75C358.462 303.4 358.144 301.042 358.002 299.178C357.677 294.885 361.358 292.543 362.76 289.082C363.619 286.946 365.634 287.957 366.44 289.637C366.983 290.777 367.195 292.356 366.9 293.578C364.392 303.89 361.949 314.156 360.306 324.718C355.743 354.043 355.46 383.654 353.353 413.128C352.833 420.35 352.491 427.914 353.139 435.206C353.589 440.3 353.477 445.254 353.3 450.283C353.163 454.153 354.12 455.382 358.117 455.127C366.605 454.581 375.074 453.593 383.548 452.805C386.907 452.496 390.262 452.117 393.627 452.009C399.353 451.823 405.105 452.141 410.8 451.682C422.02 450.774 433.192 450.403 444.462 451.082C449.972 451.413 455.574 449.836 461.151 449.64C465.12 449.503 468.006 452.409 467.972 455.514C467.95 457.728 464.312 460.173 461.484 461.06C458.523 461.988 456.113 460.458 453.435 460.333C447.07 460.043 440.712 459.504 433.974 459.389L433.985 459.379Z" fill="#3C4043"/>
<path d="M875.593 296.737C873.732 301.901 868.845 305.031 868.495 310.52C868.44 311.318 867.04 312.294 866.057 312.728C858.407 316.098 850.398 318.261 842.105 319.191C838.589 319.589 831.27 312.498 830.365 308.486C829.188 303.322 829.903 298.34 832.906 294.207C837.159 288.367 842.146 282.927 849.885 281.899C854.357 281.306 858.934 281.362 863.472 281.395C865.907 281.413 868.448 281.047 870.359 283.705C872.984 287.355 876.531 290.417 876.722 295.342C876.738 295.684 876.232 296.049 875.593 296.737M866.08 295.729C865.873 295.243 865.676 294.758 865.469 294.263C865.198 294.715 864.936 295.168 866.08 295.729Z" fill="#3C4043"/>
<path d="M866.64 487.865C867.685 488.128 868.356 488.716 869.027 489.303C868.6 489.675 868.163 490.055 867.736 490.427C867.247 489.681 866.757 488.936 866.64 487.865V487.865Z" fill="#3C4043"/>
<path d="M535.333 410.993C535.854 411.43 536.003 412.182 536.1 412.951C536.098 412.971 535.52 413.071 535.205 413.13C535.127 412.523 535.038 411.925 535.334 410.983L535.333 410.993Z" fill="#3C4043"/>
</g>
<g clip-path="url(#clip1_3303_16480)">
<path d="M602.883 819.231C585.766 819.352 569.931 821.83 553.826 821.277C535.99 820.675 518.031 821.098 500.252 822.595C481.966 824.137 463.739 823.396 445.512 824.052C435.332 824.423 425.498 823.012 415.506 822.819C399.312 822.5 382.978 821.178 366.923 822.643C346.314 824.527 326.136 822.254 305.759 820.803C298.944 820.323 293.882 817.039 289.199 813.534C273.719 801.963 266.322 785.211 260.991 767.165C256.503 751.932 257.063 736.071 254.282 720.658C250.943 702.023 253.468 683.64 255.654 665.238C257.399 650.62 265.262 639.282 275.945 629.389C291.314 615.147 310.424 608.644 329.654 602.381C345.205 597.326 361.111 593.866 377.511 592.827C383.946 592.424 390.326 591.301 396.757 590.947C407.643 590.341 418.555 590.273 429.445 589.635C442.391 588.885 455.309 587.468 468.268 586.915C477.102 586.534 485.982 586.969 494.84 587.305C508.626 587.843 522.425 589.195 536.196 589.099C550.275 589.003 564.334 587.38 578.428 586.831C586.899 586.51 595.385 586.985 603.862 587.086C620.442 587.283 637.074 588.231 653.597 587.415C666.417 586.782 679.132 586.382 691.994 586.76C705.649 587.156 719.36 584.977 733.071 584.518C742.678 584.201 752.297 584.859 761.926 585.112C767.605 585.28 773.258 585.218 778.861 585.8C784.769 586.413 790.716 587.274 796.449 588.794C810.442 592.503 825.239 593.146 838.444 599.905C842.219 601.839 846.334 603.158 850.366 604.486C866.513 609.797 877.41 622.061 888.492 633.791C896.314 642.068 903.264 651.244 910.155 660.365C915.59 667.567 920.47 675.116 923.383 683.938C925.495 690.324 929.961 695.915 932.191 702.264C936.02 713.21 940.465 724.316 941.8 735.684C943.24 748.069 941.894 760.879 940.754 773.418C940.409 777.212 937.375 781.424 934.424 784.217C923.258 794.709 911.003 802.394 894.377 801.544C884.144 801.017 873.705 802.935 864.845 809.496C863.051 810.835 858.27 811.556 858.015 811.043C855.059 804.975 848.603 807.145 844.444 804.684C839.858 801.969 835.157 799.89 832.177 793.577C828.389 785.524 821.024 778.463 813.71 772.949C806.217 767.287 802.32 759.499 798.653 751.994C784.987 724.044 771.559 695.988 756.591 668.697C756.237 668.044 755.458 667.574 755.203 666.898C754.084 663.926 753.082 660.917 752.046 657.921C749.738 660.927 747.219 663.781 745.185 666.961C731.297 688.66 717.273 710.262 703.811 732.232C694.06 748.161 684.993 764.372 677.33 781.605C672.8 791.78 670.484 802.525 665.92 812.567C664.025 816.751 662.379 819.161 658.018 818.026C639.862 813.318 621.991 818.05 602.863 819.261M801.874 729.562C804.732 735.327 806.518 742.036 810.628 746.682C821.614 759.036 826.492 778.317 847.079 780.244C852.651 786.599 859.092 787.544 866.428 783.47C866.98 783.154 868.081 783.495 868.778 783.811C879.131 788.505 889.817 784.357 900.312 784.862C903.267 785.007 906.389 783.221 909.347 782.084C917.814 778.841 927.646 767.757 925.88 761.326C923.759 753.625 926.262 746.55 926.116 739.2C926.058 736.013 925.283 732.85 924.866 729.674C922.941 714.61 914.937 701.674 909.289 688.089C900.626 667.279 884.486 651.274 868.912 635.296C864.191 630.441 859.087 625.205 853.091 622.473C828.254 611.147 801.999 604.105 774.983 600.489C765.124 599.173 755.018 599.762 745.016 599.503C735.403 599.251 725.721 598.262 716.17 598.974C701.04 600.13 686.022 600.355 670.954 598.726C669.14 598.538 667.283 598.604 665.439 598.705C657.132 599.157 648.831 600.031 640.535 600.063C629.773 600.097 618.914 598.402 608.302 599.491C601.544 600.185 595.083 599.27 588.506 599.48C574.422 599.933 560.322 602.104 546.289 601.604C530.057 601.022 513.849 601.465 497.68 601.052C482.58 600.669 467.555 600.342 452.464 601.274C441.587 601.946 430.639 601.734 419.787 602.636C405.53 603.817 391.365 605.997 377.119 607.228C361.76 608.554 346.733 610.434 333.005 618.405C329.188 620.621 324.196 620.719 319.818 622.098C315.775 623.366 311.451 624.378 307.986 626.647C299.574 632.183 291.54 638.294 283.464 644.336C280.544 646.516 278.973 649.615 277.08 652.842C271.382 662.555 268.28 672.732 267.518 683.671C266.847 693.257 266.344 702.941 266.909 712.509C267.447 721.701 269.928 730.786 270.645 739.98C271.683 753.264 275.819 765.475 280.169 777.967C283.193 786.671 287.623 794.173 291.905 802.002C293.609 805.132 295.385 805.219 298.643 803.999C301.868 802.793 305.714 802.478 309.179 802.87C313.044 803.304 316.719 805.73 320.571 805.984C341.554 807.384 362.236 812.306 383.544 810.575C393.805 809.742 404.029 812.702 414.688 811.634C429.233 810.175 444.088 810.419 458.699 811.449C478.546 812.844 498.247 810.963 517.989 810.871C535.523 810.793 552.977 810.544 570.445 809.063C590.861 807.321 611.401 806.419 631.671 803.591C641.616 802.205 651.55 799.05 656.933 787.844C664.077 772.959 672.433 758.589 681.085 744.493C690.516 729.148 700.97 714.428 710.782 699.317C715.188 692.52 719.151 685.451 723.223 678.426C730.501 665.842 740.367 654.599 741.493 638.91C741.747 635.367 745.834 631.328 749.166 628.932C754.306 625.214 762.978 630.626 763.524 639.121C764.544 654.772 773.164 667.238 779.039 680.829C785.947 696.817 793.534 712.517 801.853 729.608L801.874 729.562Z" fill="#3C4043"/>
<path d="M761.371 732.221C768.169 748.018 765.978 761.146 755.229 769.491C746.404 776.347 732.12 777.477 723.863 771.978C715.245 766.215 709.404 752.757 712.202 742.694C713.472 738.12 716.124 733.365 719.471 730.045C728.893 720.719 740.689 718.39 753.087 722.452C756.46 723.565 758.714 728.116 761.371 732.221V732.221Z" fill="#3C4043"/>
<path d="M586.51 755.461C584.548 750.908 582.506 747.45 580.374 744.065C572.946 732.308 565.69 720.455 557.913 708.921C555.524 705.363 551.741 702.73 548.546 699.737C545.424 696.833 544.915 698.452 543.629 701.775C538.193 715.993 537.978 730.722 539.522 745.389C540.195 751.723 543.379 757.636 542.016 764.504C540.969 769.751 538.6 771.306 533.584 770.704C527.061 769.913 526.24 768.757 525.899 762.506C524.615 738.616 525.508 714.855 528.685 691.136C528.991 688.814 528.546 685.75 527.205 683.972C523.897 679.572 525.034 675.195 527.251 671.498C529.981 666.929 533.468 662.569 537.491 659.141C539.61 657.333 544.383 656.222 546.45 657.41C549.115 658.936 552.329 663.619 551.706 666.021C549.262 675.649 554.149 681.723 559.819 688.072C571.682 701.344 579.95 717.051 588.883 732.291C593.638 740.412 598.323 748.59 603.147 756.669C603.797 757.759 605.087 758.46 606.083 759.343C606.416 758.323 606.908 757.335 607.066 756.28C608.358 747.895 607.537 739.08 611.979 731.314C609.41 711.98 614.611 693.144 615.621 674.036C615.645 673.649 615.766 673.272 615.74 672.896C615.069 667.634 614.382 662.37 613.696 657.106C609.629 660.481 605.631 663.976 601.437 667.176C600.098 668.189 598.204 668.463 596.567 669.072C596.587 666.997 595.928 664.592 596.75 662.924C599.384 657.567 602.606 652.482 605.547 647.286C607.099 644.526 609.404 641.861 609.921 638.912C610.912 633.125 614.003 630.233 619.536 630.239C622.828 630.256 628.124 638.011 628.187 641.945C628.288 648.154 628.747 654.368 628.477 660.555C627.806 676.242 626.86 691.917 625.946 707.595C624.894 725.547 623.92 743.523 622.545 761.458C622.243 765.305 620.675 769.15 619.131 772.771C615.177 782.097 608.625 783.931 601.385 777.387C597.81 774.159 595.212 769.8 592.363 765.821C590.221 762.856 588.376 759.679 586.51 755.461V755.461Z" fill="#3C4043"/>
<path d="M451.423 744.307C456.168 752.524 458.365 762.002 468.861 763.903C478.273 765.626 483.401 762.183 485.58 752.608C487.373 744.713 487.726 736.312 490.64 728.874C495.163 717.351 494.722 705.346 496.142 693.55C496.623 689.543 495.805 684.444 493.551 681.305C490.872 677.571 491.199 674.262 491.909 670.701C493.196 664.246 500.722 658.033 504.795 659.592C510.181 661.644 514.015 671.292 512.133 677.376C511.372 679.861 511.301 682.58 511.029 685.197C509.478 699.981 508.741 714.899 506.186 729.498C503.666 743.922 500.127 758.321 491.814 770.862C484.752 781.52 473.595 784.111 462.104 778.033C450.828 772.075 444.698 762.189 439.685 750.926C434.643 739.628 433.12 727.883 431.633 715.786C430.518 706.68 431.871 698.025 432.435 689.158C432.591 686.87 438.784 669.112 439.167 667.61C440.194 663.66 442.585 661.879 446.451 662.784C450.649 663.771 451.118 667.066 450.417 670.693C448.821 679.03 446.747 687.285 445.617 695.671C443.414 712.043 444.663 728.141 451.41 744.273L451.423 744.307Z" fill="#3C4043"/>
<path d="M321.62 676.794C322.398 671.65 323.241 666.966 325.08 662.695C326.598 659.169 329.35 660.168 331.854 662.311C336.788 666.523 341.398 670.572 339.365 678.279C337.406 685.735 335.45 693.321 334.77 700.959C333.453 715.832 332.32 730.806 332.624 745.702C332.739 751.621 330.676 760.088 339.624 763.143C340.879 763.565 342.16 764.201 343.425 764.203C348.161 764.224 352.9 764.067 357.626 763.876C368.15 763.476 378.665 763.01 389.18 762.544C390.24 762.492 391.626 762.587 392.274 761.972C394.919 759.472 398.035 757.589 401.34 759.36C405.059 761.369 409.198 763.859 411.245 767.269C412.808 769.881 412.82 776.017 411.012 777.484C407.805 780.088 402.056 782.315 398.473 781.196C389.136 778.28 380.283 777.588 370.478 778.566C362.64 779.342 354.552 777.691 346.925 781.134C344.354 782.295 341.52 783.024 339.144 784.497C336.041 786.398 333.591 790.622 329.377 788.384C325.347 786.245 320.924 783.676 318.458 780.077C316.441 777.158 315.051 773.509 317.172 768.244C320.297 760.487 320.13 751.318 320.879 742.697C321.218 738.806 319.961 734.813 320.077 730.882C320.631 713.041 321.412 695.207 321.607 676.76L321.62 676.794Z" fill="#3C4043"/>
</g>
<g clip-path="url(#clip2_3303_16480)">
<path d="M1650.85 645.523C1651.77 645.911 1652.66 645.901 1653.2 646.321C1657.26 649.475 1661.35 652.606 1665.23 655.973C1667.07 657.571 1668.57 659.6 1670.07 661.56C1674.95 667.941 1679.2 674.615 1682.19 682.194C1683.55 685.656 1684.91 689.102 1685.9 692.671C1686.87 696.165 1687.56 699.744 1688.34 703.291C1689.42 708.191 1690.52 713.086 1691.52 718.002C1691.73 719.03 1691.55 720.133 1691.55 721.203C1691.55 724.543 1691 728.01 1691.71 731.19C1692.41 734.338 1691.61 737.225 1691.43 740.176C1691.17 744.58 1690.2 748.959 1689.37 753.315C1688.31 758.871 1687.12 764.399 1685.92 769.923C1685.47 771.989 1684.86 774.024 1684.27 776.053C1684.14 776.517 1683.55 776.932 1683.57 777.348C1683.84 782.551 1680.63 786.631 1678.73 790.988C1675.89 797.475 1672.2 803.665 1667.81 809.305C1664.61 813.406 1661 817.172 1657.66 821.161C1656.14 822.983 1654.08 824.251 1652.53 825.811C1649.81 828.549 1646.5 830.04 1643.5 832.144C1641.38 833.63 1639.48 835.452 1637.58 837.22C1636.14 838.557 1634.73 839.691 1632.61 839.83C1631.58 839.899 1630.47 840.538 1629.6 841.199C1626.06 843.899 1622.85 843.217 1620.1 839.51C1619 838.03 1618.35 836.725 1618.54 834.908C1618.71 833.284 1617.87 832.522 1616.21 832.533C1611.27 832.56 1606.27 832.091 1601.4 832.714C1598.55 833.082 1595.72 833.135 1592.89 833.358C1586.56 833.854 1580.2 834.179 1573.92 835.031C1569.86 835.58 1565.78 836.07 1561.76 836.698C1557.96 837.289 1554.13 836.757 1550.47 837.476C1546.53 838.248 1542.58 837.582 1538.77 838.264C1534.57 839.015 1530.38 838.52 1526.26 839.036C1520.6 839.739 1514.9 840.016 1509.29 840.746C1504.69 841.343 1500.12 841.817 1495.51 842.301C1489.85 842.898 1484.23 843.681 1478.52 843.83C1474.18 843.947 1469.75 844.027 1465.51 844.725C1460.09 845.614 1454.62 844.474 1449.41 845.545C1444.52 846.546 1439.52 845.098 1434.79 846.951C1434.33 847.132 1433.73 846.983 1433.2 846.972C1427.75 846.909 1422.38 847.564 1417 848.506C1413.31 849.151 1409.49 849.241 1405.72 849.348C1400.67 849.492 1395.72 850.44 1390.74 850.85C1385.65 851.265 1380.49 850.594 1375.36 850.392C1374.99 850.376 1374.47 850.12 1374.3 850.28C1372.66 851.766 1370.73 850.866 1368.96 850.946C1360.65 851.308 1352.3 851.116 1344.04 851.883C1331.4 853.055 1318.76 852.256 1306.13 852.618C1303.16 852.703 1300.19 853.039 1297.25 853.46C1296.55 853.561 1295.82 854.36 1295.36 855.02C1294.23 856.666 1293.29 858.44 1292.2 860.118C1290.18 863.207 1285.89 864.128 1283.83 861.337C1281.17 857.726 1277.37 857.588 1273.75 856.613C1273.25 856.48 1272.67 856.581 1272.25 856.357C1267.63 853.934 1263.15 851.233 1258.42 849.082C1254.68 847.383 1251.95 844.565 1249.03 841.939C1245.96 839.164 1243.13 836.128 1240.23 833.177C1239.79 832.741 1239.5 832.155 1239.19 831.611C1238.01 829.561 1236.86 827.5 1235.67 825.454C1235.23 824.698 1234.48 824.027 1234.3 823.223C1233.48 819.611 1231.16 816.762 1229.62 813.523C1228.14 810.413 1227.2 807.047 1226.04 803.787C1223.38 796.336 1220.74 788.879 1218.1 781.417C1217.3 779.137 1216.74 776.847 1216.68 774.37C1216.54 768.197 1215.89 762.024 1216.01 755.861C1216.11 750.53 1216.45 745.177 1218.19 739.968C1219.22 736.884 1219.18 733.454 1219.99 730.274C1220.8 727.046 1222.21 723.968 1223.11 720.756C1225.48 712.261 1228.61 704.042 1232.83 696.33C1235.66 691.169 1239.21 686.407 1242.36 681.422C1246.29 675.206 1251.04 669.656 1256.6 664.915C1260.69 661.427 1265.59 659.131 1270.85 657.768C1274.61 656.793 1278.18 657.459 1281.73 658.923C1282.99 659.44 1284.55 659.392 1285.96 659.323C1287.46 659.243 1288.94 658.668 1290.44 658.593C1296.87 658.258 1303.38 658.508 1309.73 657.602C1314.34 656.947 1318.9 657.347 1323.45 656.915C1326.59 656.617 1329.69 655.887 1332.82 655.36C1333.08 655.318 1333.35 655.365 1333.62 655.355C1338.45 655.088 1343.35 655.211 1348.1 654.455C1353.76 653.56 1359.46 654.417 1365 653.592C1369.62 652.905 1374.23 653.592 1378.71 652.851C1384.1 651.962 1389.52 652.718 1394.82 651.999C1398.21 651.536 1401.6 651.754 1404.93 651.291C1412.43 650.242 1420 650.226 1427.51 649.539C1433.58 648.979 1439.65 649.661 1445.63 648.846C1453.02 647.839 1460.44 648.809 1467.74 647.973C1472.08 647.477 1476.43 647.957 1480.65 647.248C1487.1 646.162 1493.58 647.142 1499.97 646.465C1514.29 644.947 1528.65 646.465 1542.95 645.613C1549 645.256 1555.03 645.166 1561.07 644.878C1566.34 644.628 1571.6 643.973 1576.85 643.301C1582.01 642.641 1587.14 641.725 1592.3 640.937C1592.69 640.878 1593.1 640.926 1593.5 640.931C1600.35 640.942 1607.09 640.09 1613.76 638.54C1614.26 638.423 1614.82 638.502 1615.36 638.529C1618.86 638.694 1622.31 638.646 1625.52 636.931C1628.42 635.392 1631.22 635.893 1633.72 637.751C1636.28 639.653 1639.24 640.553 1642.13 641.682C1645 642.806 1647.8 644.116 1650.84 645.544M1284.5 838.956C1285.46 838.69 1286.42 838.221 1287.38 838.189C1290.72 838.094 1294.07 837.982 1297.4 838.2C1300.54 838.413 1303.65 836.512 1306.77 838.152C1318.6 837.715 1330.45 838.914 1342.27 837.422C1347.72 836.735 1353.27 836.682 1358.77 836.576C1371.9 836.325 1385.04 837.082 1398.14 835.755C1398.67 835.702 1399.26 835.883 1399.74 835.729C1405.03 834.046 1410.61 834.418 1416.01 833.444C1419.83 832.757 1423.8 833.034 1427.71 832.725C1434.97 832.144 1442.24 831.803 1449.5 830.994C1453.77 830.514 1458.09 831.143 1462.41 830.243C1465.67 829.561 1469.13 829.795 1472.5 829.508C1478.95 828.954 1485.42 828.394 1491.88 827.856C1497.16 827.42 1502.4 826.903 1507.67 826.296C1512.52 825.737 1517.38 824.991 1522.23 824.666C1528.71 824.235 1535.16 823.787 1541.62 822.999C1546.94 822.344 1552.35 822.381 1557.72 822.12C1558.26 822.093 1558.8 822.184 1559.33 822.104C1564.48 821.321 1569.6 820.128 1574.78 819.808C1580.73 819.441 1586.64 818.892 1592.56 818.179C1597.76 817.555 1603.02 817.492 1608.26 817.326C1612.27 817.199 1616.28 817.305 1620.3 817.3C1621.49 817.3 1622.76 817.518 1623.85 817.177C1627.88 815.92 1631.76 815.686 1635.6 817.816C1636.15 818.115 1637.23 818.093 1637.72 817.737C1641.54 814.93 1645.86 812.804 1648.99 809.028C1651.9 805.502 1655.2 802.306 1658.24 798.866C1659.84 797.049 1661.28 795.079 1662.68 793.092C1665.4 789.209 1667.57 785.055 1669.43 780.655C1671.16 776.559 1673.44 772.708 1674.44 768.298C1675.25 764.772 1676.32 761.31 1677.11 757.784C1677.84 754.455 1677.93 750.929 1679.06 747.755C1680.97 742.391 1680.99 736.788 1681.86 731.302C1682.18 729.235 1681.23 726.998 1681.18 724.836C1681.06 719.131 1680.76 713.518 1679.76 707.824C1678.82 702.46 1677.43 697.283 1675.78 692.175C1674.73 688.91 1673.07 685.778 1671.28 682.828C1667.49 676.575 1663.55 670.439 1657.26 666.183C1655.27 664.83 1652.5 663.999 1651.33 662.396C1649.25 659.552 1646.3 658.865 1643.61 657.613C1640.54 656.186 1637.39 654.172 1633.63 656.058C1632.87 656.436 1631.56 656.047 1630.64 655.696C1628.32 654.822 1626 654.401 1623.5 654.497C1620.03 654.63 1616.55 654.614 1613.08 654.497C1611.45 654.444 1609.74 653.528 1608.22 653.815C1603.12 654.785 1598.01 655.365 1592.82 655.333C1592.02 655.333 1591.12 655.094 1590.43 655.371C1585.06 657.549 1579.28 656.601 1573.75 657.634C1569.81 658.369 1565.72 657.826 1561.65 658.375C1555.16 659.248 1548.53 659.211 1541.95 659.307C1532.46 659.44 1522.97 659.28 1513.48 659.376C1510.51 659.408 1507.55 659.989 1504.59 660.09C1503.24 660.132 1501.54 658.971 1500.57 659.472C1498.49 660.553 1496.46 660.005 1494.42 660.111C1491.76 660.25 1488.92 659.589 1486.43 660.266C1481.46 661.613 1476.4 660.75 1471.4 661.608C1465.75 662.577 1459.91 661.672 1454.09 662.359C1447.47 663.136 1440.69 662.497 1433.99 663.312C1429.85 663.813 1425.66 663.584 1421.48 663.951C1414.1 664.596 1406.69 665.081 1399.29 665.64C1391.41 666.236 1383.48 665.741 1375.56 666.481C1367.29 667.254 1358.97 666.231 1350.62 667.179C1344.46 667.882 1338.2 667.813 1332.04 668.921C1329 669.469 1325.68 668.953 1322.8 669.895C1317.71 671.563 1312.44 671.323 1307.3 672.021C1300.55 672.937 1293.63 672.708 1286.8 672.985C1284.12 673.091 1281.42 672.537 1278.93 674.402C1278.07 675.046 1275.96 675.099 1275.11 674.476C1273.05 672.958 1271.82 674.391 1270.33 675.168C1269.23 675.744 1268.17 676.404 1267.07 676.985C1263.66 678.774 1260.53 680.926 1257.8 683.659C1253.51 687.952 1250.12 692.926 1246.74 697.922C1242.95 703.504 1239.61 709.294 1237.05 715.563C1235.18 720.149 1233.74 724.889 1232.17 729.56C1231.58 731.291 1230.82 733.06 1230.44 734.865C1228.99 741.907 1227.1 748.932 1226.55 756.058C1225.9 764.431 1225.74 772.953 1228.77 781.118C1229.76 783.792 1230.34 786.61 1231.23 789.321C1231.58 790.365 1232.37 791.254 1232.78 792.282C1233.57 794.226 1234.16 796.256 1234.97 798.194C1235.77 800.133 1237.05 801.928 1237.56 803.926C1239.09 809.982 1242.58 815.041 1245.84 820.123C1248.07 823.606 1251.15 826.679 1254.29 829.433C1258.44 833.066 1262.47 837.14 1268.58 837.502C1270 837.588 1271.34 838.61 1272.78 838.914C1274.77 839.335 1277.1 840.203 1278.78 839.558C1280.53 838.882 1282.12 839.249 1284.54 838.951L1284.5 838.956Z" fill="#3C4043"/>
<path d="M1528.14 774.211C1526.53 778.2 1523.85 779.298 1519.16 776.853C1518.5 776.507 1517.9 775.958 1517.2 775.782C1516.85 775.692 1516.09 776.134 1515.94 776.507C1513.81 781.79 1510.94 782.722 1504.74 782.206C1500.19 781.828 1498.17 778.685 1496.77 775.851C1493.14 768.517 1488.15 762.371 1482.73 756.411C1479.97 753.375 1477.54 750.03 1475.01 746.797C1473.75 745.193 1472.84 743.201 1471.3 741.96C1467.16 738.61 1464.74 733.87 1461.21 730.035C1457.27 725.779 1454.17 720.682 1449.93 716.81C1447.79 714.86 1446.77 712.33 1444.74 710.504C1444.39 710.189 1443.86 710.067 1443.42 709.859C1443.25 710.44 1442.77 711.185 1442.97 711.579C1444.06 713.689 1444.09 715.675 1442.96 717.779C1442.69 718.301 1442.9 719.095 1442.93 719.761C1443.2 729.225 1441.9 738.488 1439.79 747.707C1438.31 754.163 1437.13 760.666 1434.94 766.957C1431.83 775.862 1426.36 782.962 1418.62 788.128C1414.79 790.685 1410.31 790.861 1405.93 788.768C1401.97 786.877 1398.99 784.059 1396.08 780.736C1392.16 776.24 1389.86 771.015 1387.65 765.732C1385.05 759.542 1382.89 753.194 1381.86 746.456C1381.17 741.998 1380.83 737.524 1380.21 733.092C1378.94 723.963 1379.96 714.85 1379.6 705.747C1379.55 704.533 1380 703.27 1380.37 702.077C1381.48 698.599 1381.05 694.86 1382.67 691.398C1384.29 687.952 1385.26 687.105 1388.86 688.208C1394.06 689.795 1394.76 690.812 1394.81 696.41C1394.84 699.254 1394.32 701.918 1393.34 704.623C1392.58 706.738 1392.88 709.215 1392.35 711.441C1390.84 717.715 1391.41 724.091 1391.74 730.349C1392.09 736.842 1392.68 743.356 1393.73 749.849C1394.56 754.951 1396.52 759.457 1398.29 764.07C1399.57 767.393 1401.99 770.328 1404.14 773.252C1406.26 776.123 1409.97 776.453 1413.52 773.481C1420.02 768.038 1423.05 760.762 1425.22 753.028C1426.94 746.871 1428.57 740.666 1429.32 734.269C1429.67 731.265 1431.15 728.165 1430.68 725.348C1430.18 722.333 1429.99 719.366 1430.17 716.432C1430.47 711.563 1430.6 706.669 1431.6 701.838C1431.92 700.33 1431.38 698.525 1430.84 696.996C1429.85 694.147 1428.25 691.451 1430.05 688.33C1430.34 687.83 1430.35 686.855 1430.05 686.376C1428.65 684.144 1429.99 682.578 1431.57 681.704C1432.69 681.087 1434.58 681.129 1435.81 681.63C1438.33 682.653 1440.75 684.027 1442.98 685.571C1444.16 686.392 1445.07 687.521 1445.51 689.316C1446.07 691.627 1447.91 693.646 1449.27 695.744C1453.21 701.827 1456.73 708.144 1461.94 713.39C1466.11 717.587 1469.77 722.333 1473.28 727.116C1475 729.465 1477.07 731.372 1478.98 733.486C1480.27 734.924 1481.37 736.544 1482.69 737.944C1484.87 740.256 1487.4 742.285 1489.36 744.767C1491.03 746.887 1492.07 749.508 1493.5 751.841C1493.78 752.288 1494.68 752.789 1495.08 752.65C1496.3 752.224 1495.37 751.542 1495.08 750.957C1495.02 750.85 1495.08 750.69 1495.07 750.562C1493.99 738.935 1493.89 727.255 1494.47 715.633C1494.7 710.94 1494.74 706.221 1495.09 701.523C1495.55 695.324 1495.89 689.103 1496.78 682.961C1497.25 679.707 1498.66 676.554 1499.89 673.454C1500.38 672.197 1501.34 670.951 1502.42 670.13C1504.71 668.367 1506.2 668.751 1508.14 671.212C1509 672.314 1509.77 673.502 1510.7 674.546C1512.21 676.229 1512.49 677.912 1512.01 680.224C1511.12 684.474 1510.81 688.842 1510.31 693.167C1509.74 698.152 1509.25 703.148 1508.69 708.133C1508.47 710.163 1507.94 712.192 1507.96 714.216C1507.98 716.133 1508.09 718.237 1507.74 719.931C1506.35 726.653 1507.02 733.396 1507.24 740.07C1507.49 747.692 1508.41 755.345 1510.36 762.781C1510.82 764.544 1511.89 766.147 1512.75 767.793C1512.82 767.921 1513.63 767.889 1513.68 767.761C1513.96 767.079 1514.39 766.291 1514.27 765.625C1513.79 762.903 1515.14 760.682 1515.96 758.285C1517.37 754.184 1518.7 750.051 1519.91 745.891C1521.33 740.991 1522.51 736.022 1523.96 731.132C1525.94 724.48 1527.94 717.827 1530.19 711.265C1533.05 702.972 1536.14 694.759 1539.21 686.541C1539.64 685.39 1540.61 684.458 1541.2 683.356C1542.44 680.985 1543.4 678.557 1543.22 675.76C1543.01 672.74 1544.23 670.274 1546.59 668.346C1548.1 667.116 1549.79 666.999 1551.52 668.053C1555.59 670.541 1557.71 674.61 1560.01 678.503C1562.73 683.105 1565.42 687.739 1567.87 692.49C1569.73 696.107 1571.2 699.926 1572.88 703.638C1574.35 706.903 1575.09 710.53 1577.53 713.342C1577.93 713.795 1578.29 714.408 1578.37 714.983C1579.06 720.416 1581.88 725.018 1584.09 729.859C1588.26 738.956 1592.39 748.07 1596.54 757.172C1599.87 764.48 1603.05 771.862 1606.63 779.042C1608.19 782.163 1609.95 785.322 1613.48 787.015C1615.85 788.16 1616.25 791.111 1616.76 793.188C1617.34 795.553 1617.62 798.334 1615.56 801.023C1613.97 803.111 1611.91 803.782 1610.06 804.288C1607.71 804.928 1605.07 804.603 1602.52 803.404C1599.99 802.211 1597.29 801.082 1594.09 801.95C1591.66 802.611 1589.02 801.439 1586.35 801.982C1582.71 802.722 1578.93 803.351 1575.26 803.127C1572.88 802.983 1570.71 803.564 1568.45 803.617C1564.19 803.718 1560.04 804.374 1555.86 805.189C1552.44 805.854 1548.89 805.929 1545.38 806.035C1542.04 806.142 1538.8 806.712 1535.6 807.617C1535.11 807.756 1534.55 807.628 1534.02 807.676C1528.36 808.203 1522.69 808.688 1517.04 809.29C1512.85 809.737 1508.63 810.137 1504.49 810.925C1498.04 812.155 1491.54 812.704 1485.03 813.327C1478.66 813.934 1472.28 814.637 1465.99 815.777C1461.4 816.608 1456.84 817.039 1452.21 817.423C1446.95 817.854 1441.71 818.52 1436.43 818.978C1417.97 820.576 1399.49 819.197 1381.02 819.724C1375.87 819.868 1370.64 819.751 1365.61 820.672C1361.91 821.343 1358.31 821.045 1354.68 821.306C1350.78 821.588 1346.89 822.025 1342.99 822.051C1339.89 822.073 1336.78 821.668 1333.7 821.279C1331.05 820.949 1328.4 822.286 1325.71 820.874C1323.29 819.596 1320.45 820.587 1317.73 819.953C1315.16 819.356 1312.11 820.826 1309.28 821.434C1308.68 821.561 1307.94 822.233 1307.58 822.051C1305.15 820.784 1302.56 819.649 1300.51 817.902C1298.16 815.905 1298.32 813.279 1299.16 810.216C1299.73 808.129 1300.07 806.334 1301.74 804.821C1303.09 803.601 1304.23 803.207 1305.91 804.139C1307.98 805.295 1310.31 805.348 1312.65 805.279C1316.78 805.157 1320.91 805.167 1324.82 806.856C1325.04 806.951 1325.35 806.861 1325.61 806.872C1334.86 807.138 1344.13 807.921 1353.34 807.473C1358.57 807.218 1363.87 807.484 1369.05 806.786C1380.17 805.29 1391.31 805.998 1402.4 806.302C1407.88 806.451 1413.41 806.829 1418.92 806.818C1424.55 806.808 1430.2 806.446 1435.82 806.041C1441.36 805.641 1446.94 805.359 1452.38 804.368C1457.79 803.388 1463.31 803.532 1468.67 802.158C1471.77 801.364 1475.12 801.625 1478.34 801.231C1481.35 800.864 1484.34 800.24 1487.35 799.766C1489.49 799.431 1491.63 799.127 1493.79 798.856C1498.24 798.302 1502.71 797.876 1507.16 797.226C1513.81 796.246 1520.43 795.042 1527.09 794.073C1530.16 793.625 1533.27 793.37 1536.37 793.274C1539.98 793.167 1543.46 792.666 1546.96 791.713C1549.41 791.042 1552.06 791.09 1554.62 790.834C1560.01 790.296 1565.46 790.057 1570.78 789.14C1575.76 788.283 1580.71 787.649 1585.77 787.537C1588.63 787.473 1591.47 786.483 1594.33 786.041C1596.36 785.726 1595.93 784.714 1595.34 783.436C1594.22 780.965 1593.21 778.44 1592.09 775.969C1587.3 765.391 1582.51 754.813 1577.68 744.256C1575.88 740.325 1573.84 736.496 1572.1 732.538C1568.81 725.082 1565.7 717.55 1562.44 710.083C1560.1 704.741 1557.51 699.521 1554.42 694.567C1553.72 693.449 1553.49 693.475 1552.84 694.738C1549.9 700.469 1546.82 706.152 1545.6 712.586C1545.51 713.065 1545.3 713.529 1545.08 713.971C1544.05 716.085 1542.72 718.099 1542.02 720.315C1538.88 730.248 1535.44 740.128 1533.07 750.253C1531.55 756.746 1529.06 763.17 1529.5 770.083C1529.58 771.356 1528.76 772.688 1528.16 774.195L1528.14 774.211Z" fill="#1A73E8"/>
<path d="M1320.19 795.66C1317.46 793.498 1313.68 793.727 1311.73 790.872C1311.6 790.686 1310.83 790.68 1310.58 790.872C1307.64 793.194 1305.13 790.579 1302.89 789.674C1300.86 788.853 1299.03 786.377 1298.15 784.209C1297.42 782.393 1298.12 779.959 1298.36 777.823C1298.54 776.209 1299.05 774.632 1299.32 773.024C1299.87 769.769 1300.4 766.51 1300.86 763.245C1301.01 762.201 1300.95 761.125 1300.93 760.065C1300.89 756.454 1301.15 752.949 1302.46 749.476C1303.2 747.495 1303.12 745.194 1303.34 743.026C1303.9 737.375 1304.14 731.665 1305.08 726.083C1305.49 723.713 1304.54 721.364 1305.63 718.989C1306.1 717.966 1305.2 716.331 1304.95 714.968C1304.07 710.03 1304.63 705.173 1305.72 700.331C1305.88 699.612 1305.77 698.733 1305.51 698.035C1304.35 694.967 1304.79 691.942 1305.79 688.997C1306.6 686.6 1309.87 685.844 1311.81 687.479C1314.93 690.083 1316.96 693.151 1317.94 697.322C1318.93 701.572 1320.68 705.503 1319.5 710.083C1319.02 711.932 1318.81 714.227 1320.15 716.155C1320.4 716.517 1320.26 717.215 1320.17 717.732C1318.72 725.476 1322.17 733.05 1320.98 740.779C1322.35 743.639 1321.3 746.749 1321.85 749.652C1322.73 754.345 1322.5 759.048 1322.62 763.756C1322.65 764.72 1323.26 765.658 1323.36 766.632C1323.52 768.198 1322.98 770.819 1323.66 771.16C1325.16 771.916 1327.23 771.655 1329.07 771.58C1334.17 771.383 1339.27 770.835 1344.37 770.861C1351.07 770.893 1357.78 771.325 1364.48 771.612C1366.34 771.692 1368.1 771.511 1369.45 770.052C1370.75 768.63 1372.32 769.002 1373.78 769.498C1377.91 770.893 1380.67 773.897 1382.68 777.61C1383.2 778.568 1383.45 779.756 1383.51 780.853C1383.76 785.2 1381.37 787.682 1377 787.607C1375.62 787.586 1374.24 787.213 1372.86 786.979C1369.49 786.403 1365.96 784.907 1362.81 785.482C1359.36 786.11 1356.28 784.832 1353 785.168C1351.55 785.317 1350.03 784.555 1348.52 784.481C1347.12 784.406 1345.69 784.662 1344.27 784.821C1343.39 784.917 1342.52 785.168 1341.64 785.232C1337.61 785.525 1333.56 785.636 1329.56 786.116C1327.94 786.307 1326.24 786.702 1325.7 789.056C1325.05 791.884 1323.57 794.457 1320.18 795.666L1320.19 795.66Z" fill="#1A73E8"/>
<path d="M1420.46 750.759C1419.5 754.924 1417.66 758.264 1415.7 761.598C1412.85 766.45 1407.62 767.116 1403.22 763.809C1399.64 761.119 1398.5 757.225 1396.72 753.678C1395.87 751.968 1395.59 749.438 1397.57 747.489C1398.88 746.189 1398.85 744.272 1398.83 742.429C1398.78 738.274 1401.29 736.783 1405.29 738.392C1407.12 739.127 1409 740.155 1410.89 740.251C1415.54 740.49 1417.28 744.453 1420.11 746.967C1420.73 747.526 1420.37 749.204 1420.46 750.765L1420.46 750.759Z" fill="#1A73E8"/>
<path d="M1554.6 740.938C1558.9 743.005 1560.33 746.851 1561.55 750.68C1562.18 752.667 1561.12 754.664 1560.26 756.502C1559.17 758.851 1558 761.173 1556.8 763.474C1555.06 766.781 1551.44 768.454 1548 767.602C1547.87 767.57 1547.67 767.655 1547.61 767.591C1545.05 765.056 1542.26 762.702 1540.08 759.873C1539.13 758.643 1539.38 756.454 1539.18 754.686C1538.57 749.695 1540.35 745.626 1544.02 742.281C1546.8 739.761 1550.91 739.122 1554.61 740.933L1554.6 740.938Z" fill="#1A73E8"/>
</g>
<defs>
<clipPath id="clip0_3303_16480">
<rect width="1320.65" height="419.28" fill="white" transform="translate(246.916 179) rotate(3.95456)"/>
</clipPath>
<clipPath id="clip1_3303_16480">
<rect width="692.786" height="282.622" fill="white" transform="translate(269.218 532.885) rotate(5.92767)"/>
</clipPath>
<clipPath id="clip2_3303_16480">
<rect width="476" height="227" fill="white" transform="translate(1216 636)"/>
</clipPath>
</defs>
</svg>
