<svg xmlns="http://www.w3.org/2000/svg" width="1920" height="1080" fill="none"><g fill="#3C4043" clip-path="url(#a)"><path d="M521.436 524.726c-9.405.774-18.1 1.696-26.807 2.367-4.767.372-9.61-.043-14.342.552-8.452 1.05-17.026.377-25.431 2.322-3.698.857-7.656.704-11.505.698-8.79-.016-17.611-.746-26.366-.239-10.739.621-21.425-1.26-32.013-.639-10.105.595-20.406-1.05-30.36 1.861-.215.065-.469-.033-.699-.039-12.563-.397-25.138-.464-37.667-1.341-5.268-.364-10.431-2.375-15.607-3.785-7.683-2.095-15.101-4.853-21.331-9.995-5.775-4.769-12.03-9.121-15.126-16.382-.086-.206-.285-.37-.455-.533-10.43-9.922-13.617-23.996-20.53-35.941-2.838-4.907-4.717-10.36-7.043-15.563-2.568-5.771-3.265-11.793-3.78-18.114-1.632-20.04.462-39.893 1.349-59.829.479-10.843 3.865-20.813 7.185-30.848 5.525-16.709 13.731-32.17 23.327-46.863 4.832-7.394 10.278-14.395 15.512-21.531.686-.925 1.744-1.584 2.648-2.343.874-.752 1.766-1.472 2.659-2.212-1.258-.358-2.54-1.098-3.778-1.023-5.59.375-11.156 1.284-16.743 1.348-2.188.03-4.553-1.417-6.499-2.704-.796-.526-1.326-3.149-.855-3.588 1.509-1.379 4.273-3.513 5.258-2.974 5.187 2.834 10.205-.588 15.402.213 5.357.811 11.082-.808 16.645-1.386.878-.089 1.996-.012 2.562-.514 5.74-5.036 13.3-4.333 19.968-6.398.84-.263 2.072-.238 2.783.202 5.236 3.289 10.215.275 15.381-.069 5.851-.388 11.595-.833 17.372-1.887 5.482-1.004 11.124-1.125 16.675-1.814 4.165-.514 8.301-1.321 12.453-1.946 3.951-.589 7.91-1.167 11.879-1.605 1.818-.195 3.683.085 5.518-.059 5.363-.441 10.709-1.064 16.069-1.465 4.514-.34 9.057-.367 13.574-.746 8.711-.731 17.394-1.775 26.106-2.385 8.381-.584 16.793-.614 25.173-1.197 8.713-.611 17.39-1.725 26.104-2.355 5.239-.38 10.509-.196 15.766-.404 4.061-.161 8.112-.472 12.154-.804 1.755-.149 3.519-.869 5.244-.75 7.524.5 14.908-.172 22.367-1.21 5.628-.784 11.435-.262 17.157-.378 10.279-.212 20.624.213 30.805-.898 9.888-1.08 19.8-1.197 29.642-2.191 10.114-1.015 20.236-1.417 30.349-2.132 11.06-.779 22.044-1.904 33.181-2.056 11.217-.147 22.468-.211 33.643-.622 9.356-.345 18.597 1.416 27.782.648 11.292-.954 22.644.433 33.92-1.594 5.116-.92 10.5-.207 15.743-.506 6.048-.354 12.071-1.06 18.107-1.515 1.401-.103 2.826.165 4.242.263 7.772.538 15.551 1.105 23.325 1.613 8.442.543 16.693 2.126 24.785 4.55.442.131.938.065 1.405.117 10.143 1.172 20.274 2.384 30.421 3.506 15.806 1.755 30.478 6.007 42.771 16.971 8.941 7.975 17.196 16.174 21.676 27.63 1.372 3.493 4.663 6.207 6.239 9.663 7.557 16.541 15.365 33.009 21.935 49.952 2.64 6.798 7.27 8.943 12.97 9.477 16.45 1.549 32.98 2.24 49.45 3.739 2.83.256 5.08-2.996 8.44-.288 1.65 1.327 5.52.281 8.28-.25 2.31-.451 4.53-1.601 6.68-2.655 2.92-1.422 7.17-1.038 8.5 1.53 1.26 2.422 2.75 5.382-.24 7.881-.59.491-1.27 1.286-1.89 1.274-9.82-.188-19.51 2.029-29.42.963-11.27-1.21-22.6-1.803-33.92-2.385-4.76-.249-9.56.261-14.35.341-1.64.027-3.94.429-4.82-.453-2.99-3.024-2.41.143-2.22 1.259a62.083 62.083 0 0 0 2.18 8.922c2.64 8.111 3.31 16.468 4.18 24.888.51 4.876.24 9.589.18 14.376-.2 15.884-7.38 29.14-16.04 41.713-2.44 3.54-5.78 6.577-9.137 9.322-6.757 5.527-12.818 11.423-16.453 19.632-2.933 6.614-7.578 11.886-14.776 14.366-.821.284-1.435 1.193-2.15 1.816 1.061.313 2.186 1.003 3.188.861 4.585-.635 9.184-1.329 13.705-2.36 3.035-.692 5.547-2.223 4.986-6.141-.162-1.144-.253-2.583.29-3.478.835-1.346 2.257-3.212 3.43-3.211 1.203.003 3.103 1.798 3.451 3.145 1.009 3.829 1.465 7.82 1.994 11.766.385 2.833-3.489 6.966-7.327 7.382-6.485.715-13.016.945-19.515 1.578-12.16 1.174-24.313.645-36.482.646-5.944 0-11.977-.598-17.88-.034-8.93.857-17.94.544-26.843 2.164-3.959.719-8.014-.514-12.27.445-5.02 1.137-10.516.015-15.704.679-7.757.987-15.647.572-23.307 2.488-1.306.331-2.816-.154-4.224-.232-10.667-.566-21.2.419-31.778 1.913-8.047 1.138-16.301.758-24.441 1.348-7.808.573-15.577 1.59-23.383 2.283-4.498.401-9.025.629-13.546.778-5.486.182-11.009-.1-16.465.375-10.508.917-21.01.873-31.542.967-5.717.056-11.483-.493-17.176-.065-8.958.674-17.946.043-26.886 2.051-7.789 1.747-15.914 2.127-23.903 2.848-9.865.892-19.757 1.451-29.627 2.272-8.711.721-17.397 1.665-26.109 2.416-3.832.336-7.685.531-11.531.626-5.963.139-11.976-.317-17.876.348-5.092.57-10.378-.537-15.999 1.6M273.65 308.042c-5.201 9.845-10.586 19.586-15.545 29.548-5.541 11.134-10.373 22.749-11.462 35.163-1.408 16.021-1.532 32.171-2.053 48.264-.112 3.35-.096 6.889.807 10.069 3.321 11.697 8.977 22.102 18.158 30.375 6.738 6.069 13.387 12.252 20.146 18.303 7.108 6.365 15.039 11.845 23.591 15.734 11.584 5.272 23.889 8.969 36.126 12.612 5.795 1.723 12.044 2.546 17.561 4.512 8.442 3.019 17.083 4.178 25.684 5.464 11.053 1.656 22.111-.256 33.164-1.667 8.303-1.06 16.768-.976 25.164-1.207 10.746-.31 21.492-.6 32.246-.578 7.607.015 15.132 1.076 22.855.287 9.963-1.015 20.12-.173 30.073-1.189 4.15-.425 8.188-.115 12.257-.396 8.712-.6 17.403-1.613 26.106-2.375 3.822-.337 7.681-.331 11.498-.739 7.302-.788 14.579-1.939 21.891-2.596 4.993-.447 10.239.517 15.009-.626 8.44-2.023 16.999-1.131 25.445-2.241 4.724-.616 9.588-.069 14.335-.583 9.503-1.027 18.969-2.377 28.45-3.666 6.243-.842 12.805-.649 18.745-1.892 14.708-3.083 29.595-1.653 44.302-3.563 8.071-1.046 16.293-.498 24.464-1.106 11.165-.842 22.427-.625 33.645-.651 9.023-.018 18.055.266 27.076.418.47.013.961.157 1.408.078 7.397-1.303 14.846-1.891 22.351-1.282 1.177.091 2.489.543 3.516.183 6.407-2.203 13.038-.251 19.565-1.274 7.326-1.147 14.861-.957 22.275-1.628 7.323-.666 14.617-1.625 21.91-2.585 6.596-.867 13.172-1.886 19.738-2.915.71-.112 1.883-.702 1.926-1.17.583-5.824 5.502-8.982 8.151-13.52 6.094-10.425 11.561-21.214 14.847-32.784 2.888-10.176 5.872-20.414 6.632-31.117.83-11.721-.058-23.39-.162-35.075-.092-10.702-.779-21.214-2.345-31.757-2.181-14.716-5.966-28.84-14.038-41.557-3.119-4.907-5.839-10.077-9.116-14.874-6.672-9.764-13.427-19.503-24.992-24.322a161.811 161.811 0 0 1-13.028-6.133c-7.381-3.858-15.268-6.649-23.446-7.104-18.671-1.06-37.239-4.198-56.058-2.692-6.632.534-13.338-.05-19.998.161-7.455.246-14.903.834-22.349 1.242-.936.055-1.905-.292-2.826-.156-8.547 1.254-17.043 2.932-25.623 3.792-10.548 1.065-21.157 1.545-31.752 2.126-8.623.476-17.252.742-25.885 1.067-9.095.343-18.197.636-27.291.96-8.863.32-17.725.619-26.584 1.019-3.358.149-6.703.539-10.055.889-7.784.805-15.549 1.762-23.342 2.416-4.759.392-9.65-.196-14.335.583-10.079 1.678-20.282 1.224-30.371 1.729-11.165.551-22.42.234-33.649.711-9.712.411-19.459-.262-29.197-.475-1.182-.021-2.565-.598-3.497-.161-4.795 2.225-9.605.168-14.389.348-4.784.181-9.58.541-14.349.372-6.84-.243-13.666-1.256-20.503-1.257-7.447-.004-14.891.955-22.352 1.141-7.6.186-15.296-.717-22.803.138-4.638.531-9.316-.524-13.641.41-10.095 2.189-20.288 1.003-30.385 1.919-5.225.471-10.68-.508-15.718.597-6.31 1.378-12.602.312-18.877 1.191-5.628.784-11.44.172-17.153.458-1.66.086-3.346.992-4.904 1.776-1.796.899-3.627 1.865-5.14 3.163-6.448 5.549-13.166 10.798-17.912 18.108-4.432 6.841-9.248 13.435-14 21.556m102.594-56.108-2.144 1.867c.729.331 1.459.932 2.191.933 5.963.021 11.923-.068 17.884-.167.391-.003.752-.58 1.156-.632 6.667-.742 13.35-2.004 19.98-1.776 1.891.06 3.922-.471 5.927-.042 2.52.535 5.4 1.206 7.715.494 10.487-3.225 21.229-.267 31.826-1.74 6.517-.902 13.289.177 19.982.079 12.391-.176 24.786-.252 37.184-.377 10.753-.108 21.482.132 32.246-.708 8.355-.655 16.774-.213 25.175-1.086 8.572-.891 17.249-1.274 25.864-1.059 10.456.272 20.729-1.003 31.062-2.143 10.071-1.118 20.22-1.479 30.328-2.264 9.182-.718 18.405-2.626 27.499-2.078 12.009.72 23.855-1.709 35.79-.643.687.057 1.388.076 2.065-.008 4.879-.545 9.741-1.271 14.628-1.635 7.437-.568 14.955-.43 22.332-1.443 9.392-1.296 18.722-2.706 28.239-2.188 1.418.078 2.85.387 4.242.263 11.369-1.048 22.718-2.82 34.096-3.126 12.624-.34 25.278.615 37.918 1.048 2.831.095 5.655.421 8.484.536.509.025 1.043-.449 1.571-.693-.376-.217-.732-.572-1.138-.64-4.715-.827-9.416-2.135-14.164-2.323-12.316-.48-24.532-2.999-36.984-1.363-6.1.801-12.38.156-18.574.289-3.614.081-7.216.414-10.82.646-10.663.676-21.33 1.863-31.999 1.917-13.266.066-26.434-2.589-39.803-1.328-7.073.674-14.266.026-21.407.084-4.784.04-9.681-.318-14.331.543-7.961 1.474-16.044 1.377-24.036 2.157-7.599.738-15.376.281-23.03 1.526-3.092.498-6.262.67-9.397.784-5.256.198-10.652-.486-15.733.516-9.613 1.881-19.346.727-28.974 1.956-6.331.806-12.851.154-19.283.251-4.546.067-9.273-.42-13.606.633-6.056 1.466-12.131.605-18.164 1.311-5.194.613-10.646-.426-15.728.586-12.714 2.53-25.627 1.256-38.375 2.811-7.157.868-14.43.806-21.632 1.461-10.904.99-21.776 2.384-32.688 3.334-7.664.663-15.371.792-23.045 1.314-9.649.656-19.289 1.483-30.34 2.142M979.75 325.6c.668 4.838 1.093 9.718 2.056 14.496 1.727 8.65 2.773 17.303 2.302 26.141-.149 2.877.462 5.796.753 8.693.266 2.665 1.359 5.557.665 7.925-.837 2.819.127 5.401-.288 8.079-.506 3.253-.706 6.577-.683 9.876.006 2.667 1.109 5.42.692 7.967-.983 5.956-2.414 11.872-3.991 17.707-1.965 7.262-4.098 14.482-6.466 21.616-1.507 4.546-2.289 9.474-5.774 13.203-.26.282.1 1.31.403 1.862.143.25 1.012.441 1.244.266 3.386-2.572 7.746-4.596 9.785-8.004 2.415-4.043 2.916-9.261 4.067-14.013 1.63-6.763 2.856-13.625 4.702-20.324 1.312-4.761 3.232-9.329 3.419-14.358.105-2.83-.442-6.075.74-8.389 2.271-4.424 1.407-9.045 2.179-13.532.77-4.478 1.931-8.938 2.242-13.447.312-4.51-.712-9.131-.261-13.621.766-7.605-1.201-14.678-3.435-21.658-3.048-9.553-6.61-18.931-10.007-28.368-1.187-3.28-3.463-6.454-3.636-9.754-.308-5.545-3.268-9.999-4.745-15.023-2.489-8.512-8.901-14.208-15.587-19.431-3.785-2.958-8.456-4.855-12.027-8.009-8.066-7.143-18.212-10.451-27.408-15.467-3.217-1.756-7.453-1.668-11.237-2.32-.515-.086-1.14.392-1.706.613.464.534.821 1.31 1.415 1.562 3.419 1.449 6.817 3.037 10.362 4.104 10.496 3.182 19.548 9.11 26.365 17.229 7.353 8.758 13.191 18.845 19.231 28.635 5.075 8.219 9.864 16.66 11.85 26.36.562 2.745 1.907 5.334 2.798 9.405m30.831 36.934c-.8-2.952-1.5-5.927-2.46-8.82-.22-.647-1.4-.969-2.14-1.441-.41.693-.98 1.345-1.19 2.093-.24.886-.38 1.918-.19 2.793 2.46 10.735-1.02 21.301-.83 31.959-2.91 3.598-1.5 8.006-2.26 12.003-.75 3.997-1.43 8.02-2.271 12.002-.959 4.605-1.969 9.206-3.117 13.768-1.408 5.586-1.626 11.495-4.562 16.695-.228.395.704 1.562 1.259 2.232.167.202 1.123.148 1.31-.1 4.686-6.161 10.331-11.876 13.631-18.724 2.69-5.588 5.51-11.458 6.26-18.142.7-6.227.49-12.416.89-18.603.3-4.4-.54-8.909-1.17-13.332-.65-4.566-1.66-9.076-3.17-14.373M315.171 518.988c9.193 1.146 18.589.222 27.626 3.182 2.108.687 4.813-.449 7.232-.793.415-.061.797-.366 1.192-.559-.322-.273-.594-.693-.968-.799-6.843-1.926-13.671-3.932-20.557-5.681-12.205-3.099-23.975-7.281-34.79-13.812-11.999-7.245-21.817-17.176-32.163-26.441-1.237-1.108-2.81-1.838-4.221-2.748.436 1.815.79 3.653 1.339 5.426.198.615.93 1.056 1.342 1.616 2.309 3.137 5.35 5.983 6.722 9.486 2.786 7.119 8.821 11.456 13.714 16.515 4.256 4.404 9.691 8.148 16.474 9.349 5.348.941 10.441 3.388 17.057 5.269m645.556-41.308-1.482 1.291 2.151.78c.023-.91.056-1.82-.679-2.072l.01.001ZM1116.27 451.865c1.73 4.049 3.12 7.724 4.54 11.391.24.617.61 1.194.92 1.787.53-.464 1.39-.836 1.55-1.406 3.38-12.016 11.09-21.777 16.76-32.612 2.93-5.601 5.35-11.479 8.38-17.023 2.3-4.231 5.1-8.207 7.92-12.132 1.32-1.854 5.42-.328 6.84 2.617 2.23 4.645 4.07 9.423 3.28 14.782-.26 1.866-.46 3.777-.32 5.641.05.766.92 1.758 1.67 2.08.42.18 1.46-.65 2.02-1.223 2.23-2.282 4.41-4.597 6.51-6.988 1.17-1.333 2.45-2.687 3.13-4.274 1.09-2.511 3.16-5.135 5.3-4.045 2.42 1.23 6.5 2.415 5.9 6.624-.53 3.782-1.56 7.49-2.35 11.234-.61 2.865-1.37 5.719-1.74 8.611-.26 2.126.95 2.02 2.61 1.333 2-.834 4.15-1.638 6.28-1.782 4.66-.319 7.12-2.815 8.67-7.008 2.06-5.532 4.49-10.916 6.76-16.363 1.84-4.454 4.62-4.933 8.12-2.025 2.97 2.461 2.86 5.992 4.13 9.027.59 1.393.6 3.018.91 4.523 1.57 7.346 1.56 7.305 8.96 4.639 4.11-1.48 8.27-2.817 12.41-4.174 3.9-1.274 6.64-3.861 7.7-7.727.77-2.804 2.32-4.521 4.94-4.972 1.8-.316 5.02 4.187 4.92 6.816-.08 2.029-.66 4.044-.97 6.067-.15.962-.4 1.968-.24 2.891.09.547.86.972 1.33 1.455.24-.375.66-.726.68-1.116.27-5.514 3.16-10.086 5.35-14.896 2.41-5.327 5.31-10.559 10.16-13.893 9.12-6.255 21.31-3.268 24.59 7.003 1.32 4.11 2.47 8.701.75 13.474-1.42 3.921-.82 8.543-4.07 11.917-.06.057.94 1.629 1.4 1.611 2.43-.123 5.3.166 7.17-1.018 2-1.275 3.23-3.937 4.45-6.178.84-1.516 1.05-3.366 1.61-5.051.65-2 1.73-4.491 4.06-3.198 2 1.111 5.6 1.931 4.52 5.816-.07.226-.04.469-.05.708-.24 2.229-.46 4.459-.69 6.678 2.98.046 6.01.446 8.94.067 5.91-.764 11.76-1.923 17.63-2.981 2.15-.393 4.27-1.008 6.41-1.431.96-.185 2.11-.476 2.91-.12 5.21 2.295 5.49 4.019.79 7.352-2.06 1.471-4.75 2.439-7.28 2.845-9.21 1.468-18.47 2.582-27.71 3.858-3.34.461-3.09 1.229-2.66 4.788.48 3.952 3.19 6.124 5.72 7.462 2.55 1.349 6.19.698 9.35.857 2.39.125 6.39-.641 6.87.365 1.53 3.123-.87 5.553-3.52 7.364-3.59 2.449-8.32 2.462-11.62 1.803-8.15-1.626-14.74-4.477-16.62-16.295-.36-2.24-1.44-1.964-2.79-.994-.76.549-1.62 1.101-2.11 1.868-5.91 9.044-15.82 11.968-24.84 16.216-2.49 1.171-4.87.776-6.65-1.732-1.51-2.14-3.5-3.38-1.81-7.083 2.99-6.559 7.37-11.97 11.42-17.734 4.52-6.453 10.05-12.507 10.48-21.108.18-3.606-.15-7.026-3.2-9.142-2.51-1.738-9.84-.149-12.03 2.767-3 4.013-5.91 8.282-7.86 12.868a93.048 93.048 0 0 0-5.5 17.704c-1.27 6.247-.93 12.645 1.4 18.791 2.16 5.712 4.38 11.419 6.18 17.247.58 1.874.62 4.594-.36 6.12-2.18 3.398-4.23 3.055-7.26.31-7.78-7.044-10.41-16.588-12.45-26.201-1.52-7.152-3.98-14.309-2.85-21.829.41-2.758-1.45-2.726-2.95-2.409-2.33.49-4.54 1.531-6.81 2.285-4.56 1.5-9.07 3.233-13.73 4.324-2.45.582-2.93 1.842-2.63 3.758 1.84 11.514 6.11 21.943 14.51 30.282 1.1 1.099 3.27 1.339 5 1.579 2.06.283 4.27.065 4.2 3.077-.07 2.391-.23 4.775-.35 7.163-2.24-.436-3.86 1.367-6.89.275-9.4-3.386-14.3-10.351-18.35-18.539-3.1-6.299-5.84-12.693-7.06-19.734-.84-4.87-6.04-6.111-9.6-2.488-1.35 1.38-2.76 3.147-3.15 4.955-1.15 5.363-1.82 10.83-2.64 16.256-.15.932.15 2.045-.27 2.788-.9 1.582-1.86 3.701-3.31 4.262-1.67.647-5.32-3.254-5.02-5.229.95-6.289-.88-13.081 3.26-18.83.17-.238-.25-1.35-.57-1.432-6.37-1.673-11.58 1.916-11.83 8.464-.19 4.768-.21 9.628.51 14.329.55 3.667 1.71 7.536 6.67 8.24.9.122 1.48 2.368 2.22 3.631-1.66.768-1.04 4.018-4.37 3.277-4.97-1.116-9.24-2.182-11.53-7.744-2.05-4.963-3.21-9.644-2.64-15.047.96-8.916 1.32-17.892 1.96-26.84.07-1.137.25-2.287.52-3.401.13-.523.57-.973.87-1.454-.63-.114-1.56-.559-1.85-.298-4.89 4.393-10.62 7.645-10.52 16.072.12 9.14-.3 17.972 4.86 26.098 1.11 1.751 1.64 4.243 1.46 6.305-.11 1.206-2.03 3.008-3.34 3.228-4.64.782-7.49-1.801-9.03-6.579-2.69-8.325-3.54-16.754-2.47-25.41.17-1.312.68-3.111-1.68-2.823-.86.111-2.04.721-2.37 1.43-.46 1.011-.42 2.327-.31 3.487.28 2.926-1.06 3.736-3.7 3.112a2.441 2.441 0 0 0-.71-.049c-2.83.125-6.17-.727-6.71-3.12-.58-2.516-1.03-5.976 2.06-8.308 3.54-2.672 6.74-5.789 10.1-8.694 2.59-2.237 3.77-5.072 3.4-8.456-.09-.818-.97-1.551-1.09-2.38-.25-1.792-.24-3.616-.34-5.416-1.27 1.525-2.93 2.864-3.76 4.601-5.43 11.222-13.54 20.936-18.13 32.657-2.05 5.251-5.53 9.933-7.68 15.157-1.11 2.69-1.04 6.002-.91 9.018.16 3.991 1.32 7.96 1.27 11.936-.06 4.196-.76 8.438-1.77 12.518-.38 1.538-2.54 2.561-3.65 4.008-2.22 2.884-5.44 3.283-8.17 2.091-3.21-1.394-4.71-4.695-4.92-8.299-.36-6.059 1.35-12.015 4.23-16.868 5.04-8.473 2.56-16.182-.38-24.024-2.79-7.399-5.34-14.733-6.86-22.596-1.16-5.985.26-11.51.1-17.234-.36-13.187 7.13-21.72 17.68-27.898 3.6-2.116 4.35-3.989 3.33-7.889-1.84-7.053-2.46-14.333-1.41-21.598.69-4.744-.78-8.465-4-11.814-1.89-1.965-3.87-3.746-3.37-7.19.69-4.824.96-5.717 5.92-6.958 3.76-.943 6.25-2.154 6.72-6.964.67-7.15 2.74-14.174 4.07-21.269.47-2.504 1.61-3.598 4.19-3.469 2.71.147 4.39.964 4.36 4.08-.05 6.471-1.52 12.645-3.44 18.767-.39 1.217-.47 2.524-.68 3.792 1.16-.32 2.38-.517 3.48-.982 1.62-.67 3.1-1.821 4.77-2.246 4.55-1.149 6.57-4.057 6.45-8.576-.11-3.957 1.36-7.163 4.55-9.388.77-.538 2.55-.566 3.32-.041 4.11 2.76 4.65 7.047 3.27 11.202-2.03 6.124-2.95 12.245-2.67 18.68.14 3.518-.4 7.069-.68 10.598-.33 4.418.03 8.703 3.41 11.944 1.95 1.869 1.75 4.371.86 5.773-1.24 1.959-3.16 3.801-6.39 3.348-2.38-.336-3.62-.992-4.14-3.314-.82-3.625-2.25-7.172-2.62-10.826-.52-5.209-.4-10.503-.4-15.756 0-3.869-.49-4.324-4.27-2.781-3.25 1.329-6.68 2.476-9.52 4.444-2.85 1.968-3.53 5.44-4.08 8.88-1.31 8.269-.34 16.326 1.59 24.348.26 1.06.71 2.104.8 3.172.15 1.825.08 3.664.1 5.5 1.44-.291 2.89-.842 4.33-.813 5.4.123 10.69 4.077 11.69 8.537.99 4.388-1.98 10.999-6.43 13.508-1.11.615-3.12.596-4.23-.012-1.85-1.019-1.87-2.915-.8-4.796.94-1.679 1.74-3.438 2.6-5.163-2.11.135-4.31-.087-6.29.477-10.05 2.864-19.11 7.48-22.38 18.27-2.47 8.139-2.91 16.679-.88 25.14.66 2.772 1.29 5.542 2.27 8.697m170.84-.62c-.18.158-.4.283-.52.476-.07.115.02.472.03.473 1.45-.09 3.06.141 4.32-.393 2.62-1.122 5.08-2.626 7.57-4.038.8-.446 1.73-.993 2.1-1.739.3-.601-.18-2.278-.21-2.28-2.88.252-6.14-2.038-8.59.829-1.55 1.808-2.65 3.997-4.7 6.672m-76.21-17.337c1.19 1.055 2.43 1.632 2.81-.558.15-.881-.51-1.899-.81-2.862-.64.668-1.26 1.336-2 3.41v.01ZM1394.45 593.597c-5.51 2.787-11.02 2.276-16.22 3.058-5.98.9-12.07 1.081-18.09 1.697-4.47.453-4.88 1.076-4.81 5.993.02.943-.07 1.889-.19 2.823-.48 3.777 1.13 7.166 4.01 8.798 1.64.935 4.79-.682 7.23-1.305 1.25-.314 2.41-1.237 3.66-1.361.99-.102 2.05.594 3.08.925-1.37 1.299 2.06 1.977.17 4.062-2.35 2.604-8.84 7.077-12.82 7.052-5.66-.03-9.88-1.725-12.3-7.596-2.03-4.932-2.34-9.985-2.51-14.999-.19-5.165-3.72-2.132-5.59-2.903-2.65-1.084-3.21.681-3.09 2.914.04.705-.28 1.464-.11 2.108 3.29 11.925-4.29 18.778-12.33 24.718-4.94 3.639-10.97 5.697-17.65 4.895-8.4-1.012-14.26-5.637-16.58-13.937-1.51-5.356-2.06-5.866-6.71-3.31-8.56 4.72-17.99 6.715-27.14 9.681-2.07.669-5.12 1.179-5.54 5.11-.31 2.986-3.99 3.784-5.63 1.345-2.67-3.963-6.09-2.325-9.26-2.094-3.97.277-7.89 1.49-11.85 1.577-4.98.107-5.78-.76-5.24-5.675.33-2.945-1.04-4.081-2.83-5.97-3.95-4.172-7.23-8.98-10.72-13.591-1.48-1.957-2.38-5.117-4.26-5.828-2.93-1.114-6.47-.667-9.75-.734-.55-.008-1.08.978-1.68 1.077-6.75 1.087-6.76 1.066-5.09 7.587 1.35 5.266-.42 10.296-4.23 12.849-8.52 5.696-18.35 8.354-27.74 12.005-3.83 1.49-8.16 1.681-12.24 2.572-.69.153-1.26.855-1.89 1.303.6.492 1.18 1.405 1.79 1.427 4.04.149 1.79 3 2 4.649.28 2.165-.19 4.447-2.47 5.242-1.94.678-3.28-.798-4.74-2.152-2.26-2.101-.71-7.427-5.72-6.951-3.29.304-6.53 1.143-9.81 1.597-3.53.488-7.24 1.575-10.58.932-2.24-.435-4.69-3.12-5.74-5.398-1.06-2.319.2-5.119 2.92-6.374 1.7-.775 3.6-2.568 4.5 1.304.53 2.271 2.54 3.152 5.52 2.095 3.28-1.166 7.11-.671 10.5-1.64 2-.573 4.54-1.29 4.17-5.014-.61-6.377 1.99-12.843-.19-19.299-.28-.821.06-1.87.16-2.806.42-4.481.08-5.046-4.18-6.824-1.97-.828-3.05-4.601-1.81-6.65.35-.578.97-1.207 1.59-1.374 7.38-2.076 5.79-8.321 6.36-13.554.29-2.646-.91-2.99-2.78-1.525-2.19 1.722-4.13 3.784-6.37 5.423-1.52 1.108-4.02 2.92-4.95 2.395-2.42-1.36-4.09-4.062-2.79-7.1.75-1.782 2.03-3.608 3.57-4.735 3.05-2.225 6.29-4.396 9.76-5.821 3.98-1.639 7.24-3.148 6.48-8.383-.13-.961 1.2-2.773 2.19-3.056.83-.244 2.79.935 3.12 1.88 2.17 6.194 6.03 3.965 10.71 3.467 6.59-.697 14.1-1.241 18.78 5.788 1.56 2.354 1.57 7.527-.28 9.594-3.71 4.164-7.89 7.774-13.06 10.053-.8.346-1.72.453-2.46.883-.46.259-.68.915-1.01 1.394.41.158.81.457 1.23.465 5.05.039 9.75 1.386 14.35 3.478.85.39 3.35-.78 3.72-1.737 2.63-7.006 4.91-14.135 7.27-21.249 1.11-3.352 2.22-6.713 3.18-10.106.99-3.489 2.84-2.88 4.93-1.162.72.591 1.19 1.466 1.89 2.105 2.44 2.244 4.46 2.143 6.27-.509 1.72-2.526 3.14-5.276 4.87-7.792.76-1.12 1.86-2.538 3.02-2.758 1.81-.356 4.2-.432 5.62.489 2.32 1.513 1.68 4.155.27 6.113-2.98 4.154-5.66 8.77-9.46 12.026-5.27 4.517-2.84 9.045-1.31 13.632.6 1.816 2.04 3.118 2.48 5.414.87 4.611 5.78 6.805 11.05 6.127 2.89-.372 5.79-.673 8.7-.813 4.78-.231 9.57-.4 14.35-.391 1.2.003 2.39.767 3.6 1.181-.67 1.377-1.08 2.983-2.07 4.057-.82.886-2.3 1.495-3.54 1.6-4.06.361-8.15.389-12.22.659-2.67.176-5.33.543-7.99.851-2.57.293-4.66 3.076-3.2 4.781 3.75 4.379 7.58 8.893 12.19 12.239 2.35 1.706 6.63 2.965 9.2-1.679 1.12-2.018 4.08-1.032 4.51 1.354.22 1.128-.32 2.384-.14 3.519.24 1.48-1.84 4.032 1.7 4.187 2.79.122 5.16-1.728 5.35-4.332.66-8.945 2.59-18.074 1.46-26.793-.96-7.404 2.23-13.789 1.92-20.787-.19-4.293-.69-5.38-4.37-4.502-1.88.452-4.03 2.659-5.17-.027-.86-2.003-.1-4.647 2.38-5.969.21-.106.34-.358.55-.454 4.56-2.17 8.79-4.253 10.29-10.034.73-2.766 5.75-1.708 5.9 1.621.21 4.575 2.88 4.229 5.94 4.861 11.05 2.298 22.24 4.455 31.23 12.063 1.62 1.374 2.7 3.364 4.15 4.957.86.962 1.95 1.729 2.94 2.59.44-.922.82-1.879 1.32-2.756 8.87-15.745 20.11-29.072 36.74-37.305 7.65-3.782 15.71-5.63 23.98-6.622 2.68-.316 5.74.978 8.32 2.179 1 .46 1.18 2.698 1.72 4.119-1.14.362-2.26 1.016-3.42 1.056-14.96.46-27.95 5.746-40.05 14.563-10.41 7.59-17.03 17.768-23.75 28.309-2.52 3.956-.99 7.439-1.81 11.052-.03.148 1.75 1.163 2.34.923 13.36-5.472 26.66-11.057 39.96-16.663 1.02-.431 1.97-1.158 2.79-1.923.5-.466.71-1.254 1.04-1.902-.68-.098-1.45-.451-2.03-.251-3.3 1.145-6.85 1.952-9.74 3.777-3.07 1.943-4.94 1.082-6.18-1.519-1.25-2.643.73-6.606 3.19-7.448 8.95-3.04 18.17-5.661 27.48-6.39 12.91-1.002 25.43-3.645 38.07-5.979 6.16-1.138 12.52-1.129 18.77-1.689 8.71-.792 17.39-2.166 26.1-2.296 8.47-.126 16.97 1.002 25.43 1.638.59.04 1.24.526 1.68.978 1.32 1.324 3.78 2.968 3.57 4.055-.44 2.256-2.94 2.333-5.17 2.069-3.04-.351-6.12-.503-9.18-.665-9.74-.523-19.35.257-28.97 2.078-4.15.785-8.57.149-12.91.44-10.28.703-20.39 2.409-30.57 3.48-8.46.879-16.59 2.863-24.86 4.295-3.15.545-4.98.88-3.18 5.184.99 2.364-1 6.035-1.79 9.078-.38 1.467-1.22 2.823-1.66 4.276-.52 1.778.31 2.808 2.13 2.452 8.57-1.662 17.66 1.301 25.96-2.826.78-.387 1.74-.972 2.45-.803 7.45 1.788 13.93-3.297 21.17-2.937.72.04 1.52-.938 2.22-1.521 2.45-2.045 4.69-1.028 5.63 1.282.9 2.207.6 4.432-2.68 5.628-6.44 2.342-12.67 5.169-20.42 5.004m-104.52-18.593c-9.26-5.11-18.88-9.013-29.68-9.188-4.64-.07-5.53.379-6.22 4.852-1.01 6.566-2.12 13.135-2.75 19.738-.85 8.892-1.33 17.83-1.89 26.753-.22 3.573.51 4.355 3.73 3.085 10.74-4.24 21.45-8.581 31.98-13.327 2.58-1.164 5.02-3.662 6.45-6.17 1.81-3.182 2.06-7.245 3.84-10.46 2.54-4.615 1.18-8.007-2-11.355-.98-1.019-1.86-2.123-3.45-3.947m33.48 29.299c-7.41.43-14.88.435-22.19 1.523-2.76.411-5.66 2.696-6.13 6.583-1.36 11.394 8.34 15.321 17.49 13.157 6.48-1.536 11.85-5.435 16.42-10.271.86-.893 1.35-2.272 1.66-3.504 1.21-4.888-2.37-6.129-7.26-7.479m-186.4 25.466c7.35-1.286 14.12-4.357 20.99-7.11.65-.266 1.29-.963 1.59-1.614 2.3-4.923 4.52-9.892 6.73-14.851.38-.856.68-1.748 1.02-2.626-.93-.104-1.87-.4-2.76-.271-5.67.831-11.31 1.824-17 2.544-.69.092-1.98-.979-2.26-1.77-.36-1.018-.15-2.346.13-3.46.66-2.711-.7-3.085-2.97-3.182-3.61-.149-4.13 2-4.3 4.835-.56 8.923-1.22 17.829-1.17 27.505m2.56-47.406c-.24 2.619.78 2.749 2.81 1.577 3.42-1.969 7.03-3.634 10.41-5.676 3.26-1.969 6.36-4.211 9.48-6.421.47-.329.98-1.466.81-1.658-.51-.567-1.34-1.216-2.03-1.193-3.35.109-6.72.247-10.03.72-2.78.389-5.82.73-8.12 2.115-1.21.729-1 3.69-1.59 5.594-.39 1.226-1.08 2.361-1.73 4.942m55.03 5.228c-2.06-3.838-4.55-3.88-7.49-.127-1.24 1.578-2.59 3.068-3.78 4.681-.34.467-.57 1.404-.32 1.821.26.439 1.5.896 1.69.699 2.49-2.414 5.39-.359 8.01-.86 1.47-.279 2.84-1.066 4.26-1.63-.82-1.059-1.63-2.118-2.36-4.583m-17.21 22.957c.05-.698.32-1.491.09-2.078-.4-1.01-1.12-1.902-1.71-2.835-.81.675-1.95 1.198-2.37 2.071-1.31 2.716-2.4 5.558-3.43 8.394-.17.459.22 1.488.62 1.697.46.232 1.46.041 1.84-.344 1.7-1.758 3.26-3.654 4.97-6.914m166.89-20.419c1.54-1.347 3.18-2.607 4.59-4.093.45-.48.32-1.532.45-2.325-.8.045-1.71-.148-2.39.166-2.56 1.196-5.06 2.517-7.54 3.879-1.44.792-2.78 1.762-4.17 2.649 1.91-.009 3.81.003 5.71-.056.65-.016 1.29-.212 3.35-.23m-18.97 7.209c.74-.42 1.45-1.113 2.23-1.219 2.43-.333.95-1.619.31-1.833-.91-.304-2.07.027-3.1.186-2.14.324-1.71 1.496.56 2.866m-138.77-26.634c-.53.464-1.25.826-1.54 1.407-.35.688-.35 1.56-.49 2.352.68-.384 1.5-.638 2.03-1.183.41-.422.46-1.201.01-2.585l-.01.009Z"/><path d="M1244.35 340.343c.07 12.555-15.09 26.823-28.79 23.44-2.62-.642-5.1-2.688-7.13-4.622-1.74-1.654-2.6-1.784-4.55-.315-4.13 3.133-8.37 6.288-13 8.564-3.25 1.6-7.18 2.23-10.86 2.467-7.57.499-12.98-3.473-14.98-11.01-1.4-5.269-1.62-10.536.63-15.954 2.02-4.892 3.14-10.208 4.25-15.423 1.95-9.108 9.07-13.076 16.64-15.049 8.91-2.321 13.28-1.698 21.44 5.432 2.28 1.992 3.23 1.586 5.1.001.81-.675 1.15-3.047 3.64-1.201 1.97 1.469 3.88 2.273 3.34 5.102-.74 3.778-.66 7.994-2.39 11.232-2.52 4.707-2.13 9.606-1.99 14.257.21 6.731 3.51 8.803 10.43 5.763 8.26-3.639 11.56-10.738 14.34-18.395 1.2-3.325 1.41-7.37 6.6-7.022.34.024 1.03-1.753 1.16-2.746.72-5.454.51-10.931 2.37-16.345 1.13-3.27 2.07-4.549 5.55-4.388 4.06.19 8.15-.499 12.23-.448 15.29.175 20.96 6.191 25.29 20.483 1.86 6.143.37 12.325-.69 18.717-1.62 9.852-7.33 15.962-14.46 21.394-6.19 4.714-13.39 7.655-20.91 9.55-1.72.433-3.38.258-4.53-2.568-3.16-7.737-5.47-15.434-5.01-23.903.2-3.585-.35-7.211-.63-10.819-.04-.544-.45-1.064-.69-1.591-.24.615-.43 1.253-.73 1.834-.49.968-1.06 1.911-1.66 3.564m34.98-23.153c-6.4-4.502-12.47-4.561-18.27.06-1.14.904-1.94 2.412-2.55 3.793-4.1 9.2-1.55 18.889-1.98 28.361-.03.429.01 1.204.19 1.257 5.39 1.645 4.69 7.01 6.67 10.735.74 1.405 1.46 1.725 3.02.389 3.64-3.126 7.77-5.678 11.41-8.804 10.5-8.987 11.38-24.393 1.51-35.801m-105.66 38.856c2.85 5.83 2.89 5.983 9.67 4.186 15.22-4.019 23.74-11.981 23.17-26.154-.25-6.122-4.1-10.798-10.16-11.257-2.58-.199-5.17-.508-7.75-.506-4.85-.004-7.97 2.747-8.87 7.366-.25 1.266-.92 2.453-1.36 3.685-1.85 5.145-3.92 10.234-5.42 15.483-.49 1.71.5 3.844.72 7.197ZM1354.3 357.536c-3.11-5.047-4.38-9.295-2.4-15.262 4.88-14.779 12.75-27.777 23.16-38.786 5.52-5.852 13.16-10.527 22.03-11.878 6.43-.979 12.31 1.071 13.99 6.099.43 1.303.51 3.053.01 4.291-1.02 2.545-2.42.103-3.63-.11-12.13-2.183-21.26 3.492-29.08 11.682-6.42 6.723-11.04 14.854-15.66 22.854-1.84 3.181-2.73 6.958-3.62 10.575-.23.927.4 3.005 2.85 1.992 5.25-2.203 10.25-4.203 12.2-10.544 1.35-4.357 2.33-3.598 8.06-2.991 5.39.573 10.9 2.347 16.53.211 2.01-.764 4.67.422 6.96.16 9.63-1.099 19.58-.621 28.42-5.784.96-.555 3.47-.451 3.63-.04.73 1.975 1.91 4.884 1.04 6.116-1.44 2.026-4.16 3.622-6.65 4.322-9.8 2.741-19.74 4.66-29.99 5.314-6.03.386-11.95 2.112-18.11 1.455-2.51-.263-4.44.776-5.74 3.272-.69 1.326-2.43 2.108-3.69 3.133-5.93 4.783-12.68 5.709-20.27 3.921l-.04-.002ZM1320.11 312.912c-.52 7.532-1.33 14.353-1.34 21.178 0 3.659 1.07 7.402 2.18 10.947.87 2.767 3.73 2.262 6.01 2.42-.03-1.706 1.62-2.515 1.4-4.885-.47-5.135-.53-10.261-2.18-15.216-.96-2.894-2.02-5.754-3.03-8.64-.78-2.28-.7-4.189 1.11-6.259 2.07-2.373 4.36-3.437 6.48-1.596 1.76 1.525 3.09 3.541 4.75 5.189 2.42 2.393 4.75 4.98 7.54 6.867 2.6 1.764 3.68 4.093 2.76 6.586-.95 2.601-3.81 2.212-6.13 1.781-3.8-.714-3.69-.736-3.22 2.735.57 4.209 1.18 8.471 1.12 12.707-.08 5.207-5.5 11.247-10.22 12.135-3.34.631-11.04-3.751-12.65-7.702-1.83-4.466-3.85-8.906-3.47-14.052.14-2.076-.95-4.236-1.49-6.358-.87 1.934-1.84 3.832-2.61 5.804-.71 1.845-1.44 3.74-1.76 5.672-.21 1.248.01 2.777.58 3.889.73 1.384 3.1 3.322 2.91 3.56-2.12 2.7-.63 6.732-3.89 9.143-2.43 1.797-5.11 3.766-7.33 1.898-2.19-1.835-4.52-5.514-4.13-7.983.95-6.279 3.17-12.401 5.3-18.448 2.1-5.97 4.4-11.915 7.2-17.586 1.54-3.121 4.21-5.723 6.5-8.442 3.04-3.608 4.81-3.476 7.31.616.53.858.24 2.202.29 4.029l.01.011ZM1452.77 617.867c-7.8 1.475-15.22 2.576-22.63 3.788-2.15.352-4.3.865-6.36 1.585-1.72.602-3.26 1.569-4.36-.853-1.07-2.329-2.38-4.725.61-6.493 2.06-1.221 4.27-2.572 6.57-2.934 10.56-1.706 21.11-3.362 31.87-3.681 9.39-.283 18.74-1.672 28.14-2.314 10.19-.689 20.31-2.486 30.5-3.375 5.91-.514 11.9-.02 17.83-.341 3.22-.178 5.04 1.812 5.91 3.977.58 1.413-.33 4.457-1.58 5.314-1.49 1.029-3.61 4.01-6.27.819-.64-.766-2.68-.546-4.05-.481-10.38.505-20.89 2.346-31.08 1.24-7.88-.846-15.24 1.252-22.92.941-7.22-.288-14.53 1.572-22.17 2.828l-.01-.02ZM1079.69 590.662c-2.89 5.174-5.4 10.001-7.9 14.85-6.19 12.023-12.39 24.033-18.5 36.091-.49.969-.34 2.272-.44 3.428-.14 1.644.19 3.481-.44 4.901-.8 1.779-2.35 3.216-3.57 4.795-1.53-1.298-4.15-1.66-4.11-4.303.06-2.853-.28-5.944.68-8.524 3.67-9.83 9.27-18.825 14.26-27.933 5.76-10.508 11.2-21.268 17.46-31.501 6.62-10.819 12.77-21.911 19.32-32.755 4.33-7.149 9.5-13.798 14.34-20.631.52-.735 1.33-1.481 2.15-1.735.83-.253 2.08-.207 2.7.287.51.416.66 1.709.47 2.498-.32 1.241-.91 2.473-1.62 3.557-6.28 9.539-12.92 18.863-18.87 28.617-5.56 9.118-10.4 18.677-15.94 28.367l.01-.009ZM1343.92 399.782c5.94-1.263 11.37-.046 16.69-1.533 3.39-.958 7.31-.988 10.82-.385 6.86 1.166 13.65-2.755 20.71.73 3.51 1.736 8.35.638 12.54 1.208 2.36.323 4.73 1.179 6.88 2.24 2.4 1.188 1.86 3.757 1.22 5.598-.23.685-2.73 1.003-4.1.818-3.8-.522-7.61-2.27-11.29-1.953-9.3.811-18.56-1.062-27.69-.42-10.26.724-20.41 3.18-30.53 5.257-3.79.78-7.77.996-11.15 3.96-1.76 1.543-4.45-.087-6.53-2.125-2.83-2.792.18-4.649 1.02-5.753 3.44-4.494 8.63-6.1 14.14-6.721 2.19-.25 4.37-.63 7.26-.902l.01-.019ZM1473.58 414.428c-4.67 7.386-9.41 13.995-13.82 20.807-.94 1.458-1.39 2.75-3.35 2.144-2.05-.643-2.99-2.071-2.57-4.197.21-1.068.38-2.36 1.07-3.084 4.81-5.091 6.68-11.747 9.54-17.845 1.57-3.359 2.08-7.243 2.86-10.938.19-.909-.17-2.558-.79-2.861-.81-.407-2.19-.022-3.19.38-.82.334-1.38 1.278-2.17 1.765-.92.568-2.7 1.487-2.84 1.307-.88-1.194-1.98-2.642-1.98-4.006-.05-6.168 8.97-12.641 14.75-10.578 3.27 1.168 5.18 4.498 5.05 7.356-.28 6.366.6 13.012-2.58 19.739l.02.011ZM1421.48 485.033c-1.13-4.729 1.85-6.969 4.97-8.387 2.05-.931 4.43.186 5.89 2.492 1.45 2.285 1.19 8.954-.66 10.951-2.89 3.138-6.41 2.794-8.68-.981-.65-1.088-.81-2.462-1.53-4.076l.01.001ZM692.043 404.075c-5.298-5.579-10.506-10.56-15.181-16.015-10.362-12.083-20.488-24.381-30.646-36.641-6.995-8.442-13.851-17.005-20.888-25.411-1.574-1.883-3.755-3.237-5.531-4.963-1.353-1.306-2.501-2.819-3.745-4.249-.37 2.01-.749 4.018-1.118 6.018-.748 4.008-1.517 8.024-2.246 12.044-.692 3.781-.233 7.581-1.973 11.431-1.811 4.014-1.815 8.856-2.576 13.344-2.133 12.573-5.31 24.893-9.744 36.835-1.736 4.672-4.654 8.891-6.792 13.424-1.773 3.757-3.129 7.703-4.785 11.507-7.473 17.186-21.238 27.08-38.494 32.653-4.183 1.355-8.455 2.834-13.144 2.069-8.495-1.379-16.033-4.557-22.961-9.757-7.186-5.388-11.03-12.711-13.99-20.794-4.208-11.478-9.457-22.686-12.381-34.476-2.73-10.975-5.59-22.239-4.001-33.917.758-5.601.623-11.324 1.282-16.952 1.518-12.966 3.137-25.945 9.142-37.839 1.183-2.334-.026-6.447 3.494-6.896 5.502-.712 7.492-3.842 8.472-8.736.324-1.642 5.912-2.438 7.603-1.089 1.977 1.57 2.358 3.311.655 5.9-4.154 6.298-5.054 13.654-6.323 21.004-4.283 24.823-4.697 49.955-6.246 74.977-.965 15.701 1.647 30.978 11.553 44.433 4.6 6.252 9.321 11.47 17.228 10.633 5.967-.63 11.883-2.396 17.453-5.539 14.396-8.147 26.141-19.113 36.891-31.511 3.856-4.445 3.898-9.835 5.739-14.719 3.034-8.07 5.003-16.545 7.391-24.85.251-.874.317-1.822.36-2.741.398-7.06 2.894-13.734 4.029-20.582 1.652-9.969 1.668-20.213 2.299-30.353.056-.808-.27-1.893-.833-2.444-5.754-5.66-4.15-13.047-4.581-19.863-.194-3.141 2.661-5.289 5.793-5.363 9.247-.213 12.61 3.047 12.033 12.119-.217 3.433.672 6.231 2.916 8.712.792.876 1.562 1.771 2.332 2.667 14.084 16.671 28.2 33.314 42.219 50.05 6.583 7.863 12.793 16.051 19.515 23.793 6.1 7.027 12.669 13.656 19.046 20.442.392.418.945.677 1.424 1.001.175-.64.48-1.28.524-1.929 1.062-15.072 1.936-30.168 3.207-45.226.821-9.697 1.518-19.492 3.625-28.949 1.323-5.933 1.304-11.899 2.479-17.731 1.57-7.781 3.98-15.373 4.423-23.381.147-2.706 3.605-5.164 5.795-4.661 2.25.516 4.561 5.217 3.856 7.884-.625 2.363-1.618 4.7-1.844 7.1-.579 6.345-1.402 12.583-4.151 18.428-.282.602-.127 1.394-.176 2.102-1.089 14.74-5.6 28.963-6.009 43.86-.405 14.858-1.772 29.699-3.017 44.518-.462 5.522.612 9.706 6.065 12.168 1.575.71 2.821 2.26 4.064 3.568 3.504 3.681 3.892 3.587 6.014-1.599 1.663-4.045 3.316-8.09 5.105-12.076a9494.128 9494.128 0 0 1 17.548-38.793c4.703-10.33 9.708-20.529 14.11-30.99 4.677-11.094 9.844-21.903 15.857-32.324.433-.751.761-1.571 1.174-2.334 3.312-6.146 3.248-6.091-.652-10.861-1.562-1.912-2.593-4.259-4.165-6.162-1.887-2.285-1.489-3.842.489-5.92 2.162-2.267 3.915-1.524 5.748-.064 1.436 1.132 2.662 2.53 3.933 3.87 3.026 3.207 2.948 3.171 5.702-.848 1.382-2.02 2.997-3.913 4.656-5.723 1.094-1.187 2.453-2.136 3.688-3.193 1.086 1.699 2.68 3.283 3.084 5.135.342 1.567-.475 3.535-1.188 5.15-1.151 2.587-2.053 5.762-4.098 7.365-4.493 3.519-2.369 6.422-.386 9.927 3.921 6.937 7.903 13.868 11.264 21.067 5.187 11.104 10.278 22.292 14.7 33.724 7.733 19.941 18.114 38.411 29.625 56.337 4.028 6.263 6.831 13.273 12.228 18.718 2.333 2.357 1.032 8.421-1.675 10.309-2.654 1.852-7.483.515-8.794-3.003-6.99-18.797-19.087-34.92-27.537-52.905-7.532-16.028-13.718-32.684-20.98-48.854-4.508-10.044-9.989-19.655-14.868-29.545-1.266-2.574-2.483-1.495-3.433-.218-1.569 2.097-2.929 4.369-4.132 6.701-3.901 7.559-7.928 15.069-11.46 22.804-4.442 9.737-8.331 19.733-12.676 29.516-6.208 13.966-12.785 27.765-18.828 41.801-2.185 5.082-4.293 10.199-4.717 16.043-.279 3.89-3.083 7.616-4.807 11.386-.236.515-.913 1.31-1.209 1.25-4.291-.999-8.579-2.057-12.814-3.292-.786-.225-1.335-1.265-1.991-1.932-.297.822-.815 1.638-.862 2.466-.163 3.227-.306 6.014-4.917 5.735-6.06-.359-6.597-.857-6.446-6.961.126-5.013.024-10.062-.453-15.047-.174-1.837-1.422-3.797-2.715-5.24-2.577-2.884-5.527-5.454-8.642-8.536M493.441 354.47c.55-4.753.545-9.475 2.156-14.215 1.108-3.271-.404-7.345-.121-11.014.314-4.249 1.315-8.44 2.008-12.662.036-.228.115-.503.039-.699-.215-.516-.492-1.006-.748-1.505-.208.386-.433.752-.621 1.15-.563 1.174-1.393 2.309-1.619 3.556-1.651 8.938-3.719 17.836-4.584 26.858-.858 8.942-.553 18.005-.543 27.007.003 2.857.585 5.744 1.131 8.569.132.7 1.179 1.224 1.809 1.829.223-.616.615-1.221.649-1.85.529-8.534 1.76-17.049.474-27.022m71.808 80.955c-1.162.572-2.386 1.028-3.458 1.746-.609.399-.946 1.208-1.41 1.827.794-.025 1.759.222 2.345-.138 1.162-.712 2.127-1.758 2.513-3.425l.01-.01ZM381.984 348.549c-5.892-11.333-5.181-23.062-.522-33.335 6.317-13.948 15.632-26.605 31.457-31.205 8.153-2.373 16.175-5.899 25.178-5.196 9.512.738 17.743 9.566 19.685 18.883 1.967 9.388-1.679 16.894-5.348 24.73-4.4 9.409-11.099 16.854-19.097 23.368-3.718 3.031-6.697 6.965-10.323 10.122-6.965 6.074-14.726 7.984-23.656 4.199-6.408-2.718-13.077-4.843-17.384-11.566m69.332-42.43c-.337-1.948-.364-4.025-1.092-5.819-1.06-2.64-2.563-5.119-4.017-7.575-.234-.387-1.199-.344-1.83-.498.046.505-.033 1.061.157 1.505 2.383 5.547 4.116 11.21 3.622 17.351-.026.379.346.786.53 1.179.297-.531.693-1.044.863-1.614.389-1.276.67-2.58 1.757-4.53m-30.96 16.324c1.674-1.017 3.375-1.982 4.984-3.074.315-.208.521-1.016.366-1.378-.259-.599-1.207-1.537-1.249-1.509-2.346 1.752-4.619 3.6-6.901 5.437.684.398 1.369.786 2.8.524Z"/><path d="M433.985 459.379c-6.259.63-12.151 1.336-18.012 1.151-9.763-.304-19.345.708-28.936 2.27-4.005.655-8.146.389-12.215.669a844.43 844.43 0 0 0-19.513 1.538c-.605.058-1.62.971-1.626 1.491-.017 3.868.035 7.751.34 11.601.215 2.702.056 4.996-2.512 6.623-2.904 1.844-5.294 1.027-8.246-.35-2.942-1.376-3.892-3.005-3.236-5.817a50.556 50.556 0 0 1 2.165-6.957c1.935-4.948 1.466-5.843-3.739-6.383-.468-.052-.938-.065-1.417-.098-5.577-.516-7.514-3.677-5.38-9.022.219-.557 1.319-1.102 2-1.095 2.833.055 5.669.211 8.471.566 1.948.244 2.482-.521 2.443-2.277-.157-8.321 2.651-16.597.343-24.966-.297-1.073.111-2.338.192-3.515.473-6.834.736-13.682 1.477-20.487.669-6.199.156-12.409 1.009-18.655.956-7.011-.708-14.413.493-21.347 1.907-11.055 1.44-22.424 3.878-33.191 1.978-8.745.145-18.334 5.583-26.378.915-1.35.597-3.708.455-5.572-.325-4.293 3.356-6.635 4.758-10.096.859-2.136 2.874-1.125 3.68.555.543 1.14.755 2.719.46 3.941-2.508 10.312-4.951 20.578-6.594 31.14-4.563 29.325-4.846 58.936-6.953 88.41-.52 7.222-.862 14.786-.214 22.078.45 5.094.338 10.048.161 15.077-.137 3.87.82 5.099 4.817 4.844 8.488-.546 16.957-1.534 25.431-2.322 3.359-.309 6.714-.688 10.079-.796 5.726-.186 11.478.132 17.173-.327 11.22-.908 22.392-1.279 33.662-.6 5.51.331 11.112-1.246 16.689-1.442 3.969-.137 6.855 2.769 6.821 5.874-.022 2.214-3.66 4.659-6.488 5.546-2.961.928-5.371-.602-8.049-.727-6.365-.29-12.723-.829-19.461-.944l.011-.01ZM875.593 296.737c-1.861 5.164-6.748 8.294-7.098 13.783-.055.798-1.455 1.774-2.438 2.208a81.78 81.78 0 0 1-23.952 6.463c-3.516.398-10.835-6.693-11.74-10.705-1.177-5.164-.462-10.146 2.541-14.279 4.253-5.84 9.24-11.28 16.979-12.308 4.472-.593 9.049-.537 13.587-.504 2.435.018 4.976-.348 6.887 2.31 2.625 3.65 6.172 6.712 6.363 11.637.016.342-.49.707-1.129 1.395m-9.513-1.008c-.207-.486-.404-.971-.611-1.466-.271.452-.533.905.611 1.466ZM866.64 487.865c1.045.263 1.716.851 2.387 1.438l-1.291 1.124c-.489-.746-.979-1.491-1.096-2.562ZM535.333 410.993c.521.437.67 1.189.767 1.958-.002.02-.58.12-.895.179-.078-.607-.167-1.205.129-2.147l-.001.01Z"/></g><g fill="#3C4043" clip-path="url(#b)"><path d="M602.883 819.231c-17.117.121-32.952 2.599-49.057 2.046-17.836-.602-35.795-.179-53.574 1.318-18.286 1.542-36.513.801-54.74 1.457-10.18.371-20.014-1.04-30.006-1.233-16.194-.319-32.528-1.641-48.583-.176-20.609 1.884-40.787-.389-61.164-1.84-6.815-.48-11.877-3.764-16.56-7.269-15.48-11.571-22.877-28.323-28.208-46.369-4.488-15.233-3.928-31.094-6.709-46.507-3.339-18.635-.814-37.018 1.372-55.42 1.745-14.618 9.608-25.956 20.291-35.849 15.369-14.242 34.479-20.745 53.709-27.008 15.551-5.055 31.457-8.515 47.857-9.554 6.435-.403 12.815-1.526 19.246-1.88 10.886-.606 21.798-.674 32.688-1.312 12.946-.75 25.864-2.167 38.823-2.72 8.834-.381 17.714.054 26.572.39 13.786.538 27.585 1.89 41.356 1.794 14.079-.096 28.138-1.719 42.232-2.268 8.471-.321 16.957.154 25.434.255 16.58.197 33.212 1.145 49.735.329 12.82-.633 25.535-1.033 38.397-.655 13.655.396 27.366-1.783 41.077-2.242 9.607-.317 19.226.341 28.855.594 5.679.168 11.332.106 16.935.688 5.908.613 11.855 1.474 17.588 2.994 13.993 3.709 28.79 4.352 41.995 11.111 3.775 1.934 7.89 3.253 11.922 4.581 16.147 5.311 27.044 17.575 38.126 29.305 7.822 8.277 14.772 17.453 21.663 26.574 5.435 7.202 10.315 14.751 13.228 23.573 2.112 6.386 6.578 11.977 8.808 18.326 3.829 10.946 8.274 22.052 9.609 33.42 1.44 12.385.094 25.195-1.046 37.734-.345 3.794-3.379 8.006-6.33 10.799-11.166 10.492-23.421 18.177-40.047 17.327-10.233-.527-20.672 1.391-29.532 7.952-1.794 1.339-6.575 2.06-6.83 1.547-2.956-6.068-9.412-3.898-13.571-6.359-4.586-2.715-9.287-4.794-12.267-11.107-3.788-8.053-11.153-15.114-18.467-20.628-7.493-5.662-11.39-13.45-15.057-20.955-13.666-27.95-27.094-56.006-42.062-83.297-.354-.653-1.133-1.123-1.388-1.799-1.119-2.972-2.121-5.981-3.157-8.977-2.308 3.006-4.827 5.86-6.861 9.04-13.888 21.699-27.912 43.301-41.374 65.271-9.751 15.929-18.818 32.14-26.481 49.373-4.53 10.175-6.846 20.92-11.41 30.962-1.895 4.184-3.541 6.594-7.902 5.459-18.156-4.708-36.027.024-55.155 1.235m199.011-89.699c2.858 5.765 4.644 12.474 8.754 17.12 10.986 12.354 15.864 31.635 36.451 33.562 5.572 6.355 12.013 7.3 19.349 3.226.552-.316 1.653.025 2.35.341 10.353 4.694 21.039.546 31.534 1.051 2.955.145 6.077-1.641 9.035-2.778 8.467-3.243 18.299-14.327 16.533-20.758-2.121-7.701.382-14.776.236-22.126-.058-3.187-.833-6.35-1.25-9.526-1.925-15.064-9.929-28-15.577-41.585-8.663-20.81-24.803-36.815-40.377-52.793-4.721-4.855-9.825-10.091-15.821-12.823-24.837-11.326-51.092-18.368-78.108-21.984-9.859-1.316-19.965-.727-29.967-.986-9.613-.252-19.295-1.241-28.846-.529-15.13 1.156-30.148 1.381-45.216-.248-1.814-.188-3.671-.122-5.515-.021-8.307.452-16.608 1.326-24.904 1.358-10.762.034-21.621-1.661-32.233-.572-6.758.694-13.219-.221-19.796-.011-14.084.453-28.184 2.624-42.217 2.124-16.232-.582-32.44-.139-48.609-.552-15.1-.383-30.125-.71-45.216.222-10.877.672-21.825.46-32.677 1.362-14.257 1.181-28.422 3.361-42.668 4.592-15.359 1.326-30.386 3.206-44.114 11.177-3.817 2.216-8.809 2.314-13.187 3.693-4.043 1.268-8.367 2.28-11.832 4.549-8.412 5.536-16.446 11.647-24.522 17.689-2.92 2.18-4.491 5.279-6.384 8.506-5.698 9.713-8.8 19.89-9.562 30.829-.671 9.586-1.174 19.27-.609 28.838.538 9.192 3.019 18.277 3.736 27.471 1.038 13.284 5.174 25.495 9.524 37.987 3.024 8.704 7.454 16.206 11.736 24.035 1.704 3.13 3.48 3.217 6.738 1.997 3.225-1.206 7.071-1.521 10.536-1.129 3.865.434 7.54 2.86 11.392 3.114 20.983 1.4 41.665 6.322 62.973 4.591 10.261-.833 20.485 2.127 31.144 1.059 14.545-1.459 29.4-1.215 44.011-.185 19.847 1.395 39.548-.486 59.29-.578 17.534-.078 34.988-.327 52.456-1.808 20.416-1.742 40.956-2.644 61.226-5.472 9.945-1.386 19.879-4.541 25.262-15.747 7.144-14.885 15.5-29.255 24.152-43.351 9.431-15.345 19.885-30.065 29.697-45.176 4.406-6.797 8.369-13.866 12.441-20.891 7.278-12.584 17.144-23.827 18.27-39.516.254-3.543 4.341-7.582 7.673-9.978 5.14-3.718 13.812 1.694 14.358 10.189 1.02 15.651 9.64 28.117 15.515 41.708 6.908 15.988 14.495 31.688 22.814 48.779l.021-.046Z"/><path d="M761.371 732.221c6.798 15.797 4.607 28.925-6.142 37.27-8.825 6.856-23.109 7.986-31.366 2.487-8.618-5.763-14.459-19.221-11.661-29.284 1.27-4.574 3.922-9.329 7.269-12.649 9.422-9.326 21.218-11.655 33.616-7.593 3.373 1.113 5.627 5.664 8.284 9.769ZM586.51 755.461c-1.962-4.553-4.004-8.011-6.136-11.396-7.428-11.757-14.684-23.61-22.461-35.144-2.389-3.558-6.172-6.191-9.367-9.184-3.122-2.904-3.631-1.285-4.917 2.038-5.436 14.218-5.651 28.947-4.107 43.614.673 6.334 3.857 12.247 2.494 19.115-1.047 5.247-3.416 6.802-8.432 6.2-6.523-.791-7.344-1.947-7.685-8.198-1.284-23.89-.391-47.651 2.786-71.37.306-2.322-.139-5.386-1.48-7.164-3.308-4.4-2.171-8.777.046-12.474 2.73-4.569 6.217-8.929 10.24-12.357 2.119-1.808 6.892-2.919 8.959-1.731 2.665 1.526 5.879 6.209 5.256 8.611-2.444 9.628 2.443 15.702 8.113 22.051 11.863 13.272 20.131 28.979 29.064 44.219 4.755 8.121 9.44 16.299 14.264 24.378.65 1.09 1.94 1.791 2.936 2.674.333-1.02.825-2.008.983-3.063 1.292-8.385.471-17.2 4.913-24.966-2.569-19.334 2.632-38.17 3.642-57.278.024-.387.145-.764.119-1.14-.671-5.262-1.358-10.526-2.044-15.79-4.067 3.375-8.065 6.87-12.259 10.07-1.339 1.013-3.233 1.287-4.87 1.896.02-2.075-.639-4.48.183-6.148 2.634-5.357 5.856-10.442 8.797-15.638 1.552-2.76 3.857-5.425 4.374-8.374.991-5.787 4.082-8.679 9.615-8.673 3.292.017 8.588 7.772 8.651 11.706.101 6.209.56 12.423.29 18.61-.671 15.687-1.617 31.362-2.531 47.04-1.052 17.952-2.026 35.928-3.401 53.863-.302 3.847-1.87 7.692-3.414 11.313-3.954 9.326-10.506 11.16-17.746 4.616-3.575-3.228-6.173-7.587-9.022-11.566-2.142-2.965-3.987-6.142-5.853-10.36ZM451.423 744.307c4.745 8.217 6.942 17.695 17.438 19.596 9.412 1.723 14.54-1.72 16.719-11.295 1.793-7.895 2.146-16.296 5.06-23.734 4.523-11.523 4.082-23.528 5.502-35.324.481-4.007-.337-9.106-2.591-12.245-2.679-3.734-2.352-7.043-1.642-10.604 1.287-6.455 8.813-12.668 12.886-11.109 5.386 2.052 9.22 11.7 7.338 17.784-.761 2.485-.832 5.204-1.104 7.821-1.551 14.784-2.288 29.702-4.843 44.301-2.52 14.424-6.059 28.823-14.372 41.364-7.062 10.658-18.219 13.249-29.71 7.171-11.276-5.958-17.406-15.844-22.419-27.107-5.042-11.298-6.565-23.043-8.052-35.14-1.115-9.106.238-17.761.802-26.628.156-2.288 6.349-20.046 6.732-21.548 1.027-3.95 3.418-5.731 7.284-4.826 4.198.987 4.667 4.282 3.966 7.909-1.596 8.337-3.67 16.592-4.8 24.978-2.203 16.372-.954 32.47 5.793 48.602l.013.034ZM321.62 676.794c.778-5.144 1.621-9.828 3.46-14.099 1.518-3.526 4.27-2.527 6.774-.384 4.934 4.212 9.544 8.261 7.511 15.968-1.959 7.456-3.915 15.042-4.595 22.68-1.317 14.873-2.45 29.847-2.146 44.743.115 5.919-1.948 14.386 7 17.441 1.255.422 2.536 1.058 3.801 1.06 4.736.021 9.475-.136 14.201-.327 10.524-.4 21.039-.866 31.554-1.332 1.06-.052 2.446.043 3.094-.572 2.645-2.5 5.761-4.383 9.066-2.612 3.719 2.009 7.858 4.499 9.905 7.909 1.563 2.612 1.575 8.748-.233 10.215-3.207 2.604-8.956 4.831-12.539 3.712-9.337-2.916-18.19-3.608-27.995-2.63-7.838.776-15.926-.875-23.553 2.568-2.571 1.161-5.405 1.89-7.781 3.363-3.103 1.901-5.553 6.125-9.767 3.887-4.03-2.139-8.453-4.708-10.919-8.307-2.017-2.919-3.407-6.568-1.286-11.833 3.125-7.757 2.958-16.926 3.707-25.547.339-3.891-.918-7.884-.802-11.815.554-17.841 1.335-35.675 1.53-54.122l.013.034Z"/></g><g clip-path="url(#c)"><path fill="#3C4043" d="M1650.85 645.523c.92.388 1.81.378 2.35.798 4.06 3.154 8.15 6.285 12.03 9.652 1.84 1.598 3.34 3.627 4.84 5.587 4.88 6.381 9.13 13.055 12.12 20.634 1.36 3.462 2.72 6.908 3.71 10.477.97 3.494 1.66 7.073 2.44 10.62 1.08 4.9 2.18 9.795 3.18 14.711.21 1.028.03 2.131.03 3.201 0 3.34-.55 6.807.16 9.987.7 3.148-.1 6.035-.28 8.986-.26 4.404-1.23 8.783-2.06 13.139-1.06 5.556-2.25 11.084-3.45 16.608-.45 2.066-1.06 4.101-1.65 6.13-.13.464-.72.879-.7 1.295.27 5.203-2.94 9.283-4.84 13.64a86.21 86.21 0 0 1-10.92 18.317c-3.2 4.101-6.81 7.867-10.15 11.856-1.52 1.822-3.58 3.09-5.13 4.65-2.72 2.738-6.03 4.229-9.03 6.333-2.12 1.486-4.02 3.308-5.92 5.076-1.44 1.337-2.85 2.471-4.97 2.61-1.03.069-2.14.708-3.01 1.369-3.54 2.7-6.75 2.018-9.5-1.689-1.1-1.48-1.75-2.785-1.56-4.602.17-1.624-.67-2.386-2.33-2.375-4.94.027-9.94-.442-14.81.181-2.85.368-5.68.421-8.51.644-6.33.496-12.69.821-18.97 1.673-4.06.549-8.14 1.039-12.16 1.667-3.8.591-7.63.059-11.29.778-3.94.772-7.89.106-11.7.788-4.2.751-8.39.256-12.51.772-5.66.703-11.36.98-16.97 1.71-4.6.597-9.17 1.071-13.78 1.555-5.66.597-11.28 1.38-16.99 1.529-4.34.117-8.77.197-13.01.895-5.42.889-10.89-.251-16.1.82-4.89 1.001-9.89-.447-14.62 1.406-.46.181-1.06.032-1.59.021-5.45-.063-10.82.592-16.2 1.534-3.69.645-7.51.735-11.28.842-5.05.144-10 1.092-14.98 1.502-5.09.415-10.25-.256-15.38-.458-.37-.016-.89-.272-1.06-.112-1.64 1.486-3.57.586-5.34.666-8.31.362-16.66.17-24.92.937-12.64 1.172-25.28.373-37.91.735-2.97.085-5.94.421-8.88.842-.7.101-1.43.9-1.89 1.56-1.13 1.646-2.07 3.42-3.16 5.098-2.02 3.089-6.31 4.01-8.37 1.219-2.66-3.611-6.46-3.749-10.08-4.724-.5-.133-1.08-.032-1.5-.256-4.62-2.423-9.1-5.124-13.83-7.275-3.74-1.699-6.47-4.517-9.39-7.143-3.07-2.775-5.9-5.811-8.8-8.762-.44-.436-.73-1.022-1.04-1.566-1.18-2.05-2.33-4.111-3.52-6.157-.44-.756-1.19-1.427-1.37-2.231-.82-3.612-3.14-6.461-4.68-9.7-1.48-3.11-2.42-6.476-3.58-9.736-2.66-7.451-5.3-14.908-7.94-22.37-.8-2.28-1.36-4.57-1.42-7.047-.14-6.173-.79-12.346-.67-18.509.1-5.331.44-10.684 2.18-15.893 1.03-3.084.99-6.514 1.8-9.694.81-3.228 2.22-6.306 3.12-9.518 2.37-8.495 5.5-16.714 9.72-24.426 2.83-5.161 6.38-9.923 9.53-14.908 3.93-6.216 8.68-11.766 14.24-16.507 4.09-3.488 8.99-5.784 14.25-7.147 3.76-.975 7.33-.309 10.88 1.155 1.26.517 2.82.469 4.23.4 1.5-.08 2.98-.655 4.48-.73 6.43-.335 12.94-.085 19.29-.991 4.61-.655 9.17-.255 13.72-.687 3.14-.298 6.24-1.028 9.37-1.555.26-.042.53.005.8-.005 4.83-.267 9.73-.144 14.48-.9 5.66-.895 11.36-.038 16.9-.863 4.62-.687 9.23 0 13.71-.741 5.39-.889 10.81-.133 16.11-.852 3.39-.463 6.78-.245 10.11-.708 7.5-1.049 15.07-1.065 22.58-1.752 6.07-.56 12.14.122 18.12-.693 7.39-1.007 14.81-.037 22.11-.873 4.34-.496 8.69-.016 12.91-.725 6.45-1.086 12.93-.106 19.32-.783 14.32-1.518 28.68 0 42.98-.852 6.05-.357 12.08-.447 18.12-.735 5.27-.25 10.53-.905 15.78-1.577 5.16-.66 10.29-1.576 15.45-2.364.39-.059.8-.011 1.2-.006 6.85.011 13.59-.841 20.26-2.391.5-.117 1.06-.038 1.6-.011 3.5.165 6.95.117 10.16-1.598 2.9-1.539 5.7-1.038 8.2.82 2.56 1.902 5.52 2.802 8.41 3.931 2.87 1.124 5.67 2.434 8.71 3.862M1284.5 838.956c.96-.266 1.92-.735 2.88-.767 3.34-.095 6.69-.207 10.02.011 3.14.213 6.25-1.688 9.37-.048 11.83-.437 23.68.762 35.5-.73 5.45-.687 11-.74 16.5-.846 13.13-.251 26.27.506 39.37-.821.53-.053 1.12.128 1.6-.026 5.29-1.683 10.87-1.311 16.27-2.285 3.82-.687 7.79-.41 11.7-.719 7.26-.581 14.53-.922 21.79-1.731 4.27-.48 8.59.149 12.91-.751 3.26-.682 6.72-.448 10.09-.735 6.45-.554 12.92-1.114 19.38-1.652 5.28-.436 10.52-.953 15.79-1.56 4.85-.559 9.71-1.305 14.56-1.63 6.48-.431 12.93-.879 19.39-1.667 5.32-.655 10.73-.618 16.1-.879.54-.027 1.08.064 1.61-.016 5.15-.783 10.27-1.976 15.45-2.296 5.95-.367 11.86-.916 17.78-1.629 5.2-.624 10.46-.687 15.7-.853 4.01-.127 8.02-.021 12.04-.026 1.19 0 2.46.218 3.55-.123 4.03-1.257 7.91-1.491 11.75.639.55.299 1.63.277 2.12-.079 3.82-2.807 8.14-4.933 11.27-8.709 2.91-3.526 6.21-6.722 9.25-10.162 1.6-1.817 3.04-3.787 4.44-5.774 2.72-3.883 4.89-8.037 6.75-12.437 1.73-4.096 4.01-7.947 5.01-12.357.81-3.526 1.88-6.988 2.67-10.514.73-3.329.82-6.855 1.95-10.029 1.91-5.364 1.93-10.967 2.8-16.453.32-2.067-.63-4.304-.68-6.466-.12-5.705-.42-11.318-1.42-17.012-.94-5.364-2.33-10.541-3.98-15.649-1.05-3.265-2.71-6.397-4.5-9.347-3.79-6.253-7.73-12.389-14.02-16.645-1.99-1.353-4.76-2.184-5.93-3.787-2.08-2.844-5.03-3.531-7.72-4.783-3.07-1.427-6.22-3.441-9.98-1.555-.76.378-2.07-.011-2.99-.362-2.32-.874-4.64-1.295-7.14-1.199-3.47.133-6.95.117-10.42 0-1.63-.053-3.34-.969-4.86-.682-5.1.97-10.21 1.55-15.4 1.518-.8 0-1.7-.239-2.39.038-5.37 2.178-11.15 1.23-16.68 2.263-3.94.735-8.03.192-12.1.741-6.49.873-13.12.836-19.7.932-9.49.133-18.98-.027-28.47.069-2.97.032-5.93.613-8.89.714-1.35.042-3.05-1.119-4.02-.618-2.08 1.081-4.11.533-6.15.639-2.66.139-5.5-.522-7.99.155-4.97 1.347-10.03.484-15.03 1.342-5.65.969-11.49.064-17.31.751-6.62.777-13.4.138-20.1.953-4.14.501-8.33.272-12.51.639-7.38.645-14.79 1.13-22.19 1.689-7.88.596-15.81.101-23.73.841-8.27.773-16.59-.25-24.94.698-6.16.703-12.42.634-18.58 1.742-3.04.548-6.36.032-9.24.974-5.09 1.668-10.36 1.428-15.5 2.126-6.75.916-13.67.687-20.5.964-2.68.106-5.38-.448-7.87 1.417-.86.644-2.97.697-3.82.074-2.06-1.518-3.29-.085-4.78.692-1.1.576-2.16 1.236-3.26 1.817-3.41 1.789-6.54 3.941-9.27 6.674-4.29 4.293-7.68 9.267-11.06 14.263-3.79 5.582-7.13 11.372-9.69 17.641-1.87 4.586-3.31 9.326-4.88 13.997-.59 1.731-1.35 3.5-1.73 5.305-1.45 7.042-3.34 14.067-3.89 21.193-.65 8.373-.81 16.895 2.22 25.06.99 2.674 1.57 5.492 2.46 8.203.35 1.044 1.14 1.933 1.55 2.961.79 1.944 1.38 3.974 2.19 5.912.8 1.939 2.08 3.734 2.59 5.732 1.53 6.056 5.02 11.115 8.28 16.197 2.23 3.483 5.31 6.556 8.45 9.31 4.15 3.633 8.18 7.707 14.29 8.069 1.42.086 2.76 1.108 4.2 1.412 1.99.421 4.32 1.289 6 .644 1.75-.676 3.34-.309 5.76-.607l-.04.005Z"/><path fill="#1A73E8" d="M1528.14 774.211c-1.61 3.989-4.29 5.087-8.98 2.642-.66-.346-1.26-.895-1.96-1.071-.35-.09-1.11.352-1.26.725-2.13 5.283-5 6.215-11.2 5.699-4.55-.378-6.57-3.521-7.97-6.355-3.63-7.334-8.62-13.48-14.04-19.44-2.76-3.036-5.19-6.381-7.72-9.614-1.26-1.604-2.17-3.596-3.71-4.837-4.14-3.35-6.56-8.09-10.09-11.925-3.94-4.256-7.04-9.353-11.28-13.225-2.14-1.95-3.16-4.48-5.19-6.306-.35-.315-.88-.437-1.32-.645-.17.581-.65 1.326-.45 1.72 1.09 2.11 1.12 4.096-.01 6.2-.27.522-.06 1.316-.03 1.982.27 9.464-1.03 18.727-3.14 27.946-1.48 6.456-2.66 12.959-4.85 19.25-3.11 8.905-8.58 16.005-16.32 21.171-3.83 2.557-8.31 2.733-12.69.64-3.96-1.891-6.94-4.709-9.85-8.032-3.92-4.496-6.22-9.721-8.43-15.004-2.6-6.19-4.76-12.538-5.79-19.276-.69-4.458-1.03-8.932-1.65-13.364-1.27-9.129-.25-18.242-.61-27.345-.05-1.214.4-2.477.77-3.67 1.11-3.478.68-7.217 2.3-10.679 1.62-3.446 2.59-4.293 6.19-3.19 5.2 1.587 5.9 2.604 5.95 8.202.03 2.844-.49 5.508-1.47 8.213-.76 2.115-.46 4.592-.99 6.818-1.51 6.274-.94 12.65-.61 18.908.35 6.493.94 13.007 1.99 19.5.83 5.102 2.79 9.608 4.56 14.221 1.28 3.323 3.7 6.258 5.85 9.182 2.12 2.871 5.83 3.201 9.38.229 6.5-5.443 9.53-12.719 11.7-20.453 1.72-6.157 3.35-12.362 4.1-18.759.35-3.004 1.83-6.104 1.36-8.921-.5-3.015-.69-5.982-.51-8.916.3-4.869.43-9.763 1.43-14.594.32-1.508-.22-3.313-.76-4.842-.99-2.849-2.59-5.545-.79-8.666.29-.5.3-1.475 0-1.954-1.4-2.232-.06-3.798 1.52-4.672 1.12-.617 3.01-.575 4.24-.074 2.52 1.023 4.94 2.397 7.17 3.941 1.18.821 2.09 1.95 2.53 3.745.56 2.311 2.4 4.33 3.76 6.428 3.94 6.083 7.46 12.4 12.67 17.646 4.17 4.197 7.83 8.943 11.34 13.726 1.72 2.349 3.79 4.256 5.7 6.37 1.29 1.438 2.39 3.058 3.71 4.458 2.18 2.312 4.71 4.341 6.67 6.823 1.67 2.12 2.71 4.741 4.14 7.074.28.447 1.18.948 1.58.809 1.22-.426.29-1.108 0-1.693-.06-.107 0-.267-.01-.395-1.08-11.627-1.18-23.307-.6-34.929.23-4.693.27-9.412.62-14.11.46-6.199.8-12.42 1.69-18.562.47-3.254 1.88-6.407 3.11-9.507.49-1.257 1.45-2.503 2.53-3.324 2.29-1.763 3.78-1.379 5.72 1.082.86 1.102 1.63 2.29 2.56 3.334 1.51 1.683 1.79 3.366 1.31 5.678-.89 4.25-1.2 8.618-1.7 12.943-.57 4.985-1.06 9.981-1.62 14.966-.22 2.03-.75 4.059-.73 6.083.02 1.917.13 4.021-.22 5.715-1.39 6.722-.72 13.465-.5 20.139.25 7.622 1.17 15.275 3.12 22.711.46 1.763 1.53 3.366 2.39 5.012.07.128.88.096.93-.032.28-.682.71-1.47.59-2.136-.48-2.722.87-4.943 1.69-7.34a270.6 270.6 0 0 0 3.95-12.394c1.42-4.9 2.6-9.869 4.05-14.759 1.98-6.652 3.98-13.305 6.23-19.867 2.86-8.293 5.95-16.506 9.02-24.724.43-1.151 1.4-2.083 1.99-3.185 1.24-2.371 2.2-4.799 2.02-7.596-.21-3.02 1.01-5.486 3.37-7.414 1.51-1.23 3.2-1.347 4.93-.293 4.07 2.488 6.19 6.557 8.49 10.45 2.72 4.602 5.41 9.236 7.86 13.987 1.86 3.617 3.33 7.436 5.01 11.148 1.47 3.265 2.21 6.892 4.65 9.704.4.453.76 1.066.84 1.641.69 5.433 3.51 10.035 5.72 14.876 4.17 9.097 8.3 18.211 12.45 27.313 3.33 7.308 6.51 14.69 10.09 21.87 1.56 3.121 3.32 6.28 6.85 7.973 2.37 1.145 2.77 4.096 3.28 6.173.58 2.365.86 5.146-1.2 7.835-1.59 2.088-3.65 2.759-5.5 3.265-2.35.64-4.99.315-7.54-.884-2.53-1.193-5.23-2.322-8.43-1.454-2.43.661-5.07-.511-7.74.032-3.64.74-7.42 1.369-11.09 1.145-2.38-.144-4.55.437-6.81.49-4.26.101-8.41.757-12.59 1.572-3.42.665-6.97.74-10.48.846-3.34.107-6.58.677-9.78 1.582-.49.139-1.05.011-1.58.059-5.66.527-11.33 1.012-16.98 1.614-4.19.447-8.41.847-12.55 1.635-6.45 1.23-12.95 1.779-19.46 2.402-6.37.607-12.75 1.31-19.04 2.45-4.59.831-9.15 1.262-13.78 1.646-5.26.431-10.5 1.097-15.78 1.555-18.46 1.598-36.94.219-55.41.746-5.15.144-10.38.027-15.41.948-3.7.671-7.3.373-10.93.634-3.9.282-7.79.719-11.69.745-3.1.022-6.21-.383-9.29-.772-2.65-.33-5.3 1.007-7.99-.405-2.42-1.278-5.26-.287-7.98-.921-2.57-.597-5.62.873-8.45 1.481-.6.127-1.34.799-1.7.617-2.43-1.267-5.02-2.402-7.07-4.149-2.35-1.997-2.19-4.623-1.35-7.686.57-2.087.91-3.882 2.58-5.395 1.35-1.22 2.49-1.614 4.17-.682 2.07 1.156 4.4 1.209 6.74 1.14 4.13-.122 8.26-.112 12.17 1.577.22.095.53.005.79.016 9.25.266 18.52 1.049 27.73.601 5.23-.255 10.53.011 15.71-.687 11.12-1.496 22.26-.788 33.35-.484 5.48.149 11.01.527 16.52.516 5.63-.01 11.28-.372 16.9-.777 5.54-.4 11.12-.682 16.56-1.673 5.41-.98 10.93-.836 16.29-2.21 3.1-.794 6.45-.533 9.67-.927 3.01-.367 6-.991 9.01-1.465 2.14-.335 4.28-.639 6.44-.91 4.45-.554 8.92-.98 13.37-1.63 6.65-.98 13.27-2.184 19.93-3.153 3.07-.448 6.18-.703 9.28-.799 3.61-.107 7.09-.608 10.59-1.561 2.45-.671 5.1-.623 7.66-.879 5.39-.538 10.84-.777 16.16-1.694 4.98-.857 9.93-1.491 14.99-1.603 2.86-.064 5.7-1.054 8.56-1.496 2.03-.315 1.6-1.327 1.01-2.605-1.12-2.471-2.13-4.996-3.25-7.467a8967.118 8967.118 0 0 0-14.41-31.713c-1.8-3.931-3.84-7.76-5.58-11.718-3.29-7.456-6.4-14.988-9.66-22.455-2.34-5.342-4.93-10.562-8.02-15.516-.7-1.118-.93-1.092-1.58.171-2.94 5.731-6.02 11.414-7.24 17.848-.09.479-.3.943-.52 1.385-1.03 2.114-2.36 4.128-3.06 6.344-3.14 9.933-6.58 19.813-8.95 29.938-1.52 6.493-4.01 12.917-3.57 19.83.08 1.273-.74 2.605-1.34 4.112l-.02.016Z"/><path fill="#1A73E8" d="M1320.19 795.66c-2.73-2.162-6.51-1.933-8.46-4.788-.13-.186-.9-.192-1.15 0-2.94 2.322-5.45-.293-7.69-1.198-2.03-.821-3.86-3.297-4.74-5.465-.73-1.816-.03-4.25.21-6.386.18-1.614.69-3.191.96-4.799.55-3.255 1.08-6.514 1.54-9.779.15-1.044.09-2.12.07-3.18-.04-3.611.22-7.116 1.53-10.589.74-1.981.66-4.282.88-6.45.56-5.651.8-11.361 1.74-16.943.41-2.37-.54-4.719.55-7.094.47-1.023-.43-2.658-.68-4.021-.88-4.938-.32-9.795.77-14.637.16-.719.05-1.598-.21-2.296-1.16-3.068-.72-6.093.28-9.038.81-2.397 4.08-3.153 6.02-1.518 3.12 2.604 5.15 5.672 6.13 9.843.99 4.25 2.74 8.181 1.56 12.761-.48 1.849-.69 4.144.65 6.072.25.362.11 1.06.02 1.577-1.45 7.744 2 15.318.81 23.047 1.37 2.86.32 5.97.87 8.873.88 4.693.65 9.396.77 14.104.03.964.64 1.902.74 2.876.16 1.566-.38 4.187.3 4.528 1.5.756 3.57.495 5.41.42 5.1-.197 10.2-.745 15.3-.719 6.7.032 13.41.464 20.11.751 1.86.08 3.62-.101 4.97-1.56 1.3-1.422 2.87-1.05 4.33-.554 4.13 1.395 6.89 4.399 8.9 8.112.52.958.77 2.146.83 3.243.25 4.347-2.14 6.829-6.51 6.754-1.38-.021-2.76-.394-4.14-.628-3.37-.576-6.9-2.072-10.05-1.497-3.45.628-6.53-.65-9.81-.314-1.45.149-2.97-.613-4.48-.687-1.4-.075-2.83.181-4.25.34-.88.096-1.75.347-2.63.411-4.03.293-8.08.404-12.08.884-1.62.191-3.32.586-3.86 2.94-.65 2.828-2.13 5.401-5.52 6.61l.01-.006ZM1420.46 750.759c-.96 4.165-2.8 7.505-4.76 10.839-2.85 4.852-8.08 5.518-12.48 2.211-3.58-2.69-4.72-6.584-6.5-10.131-.85-1.71-1.13-4.24.85-6.189 1.31-1.3 1.28-3.217 1.26-5.06-.05-4.155 2.46-5.646 6.46-4.037 1.83.735 3.71 1.763 5.6 1.859 4.65.239 6.39 4.202 9.22 6.716.62.559.26 2.237.35 3.798v-.006ZM1554.6 740.938c4.3 2.067 5.73 5.913 6.95 9.742.63 1.987-.43 3.984-1.29 5.822a168.482 168.482 0 0 1-3.46 6.972c-1.74 3.307-5.36 4.98-8.8 4.128-.13-.032-.33.053-.39-.011-2.56-2.535-5.35-4.889-7.53-7.718-.95-1.23-.7-3.419-.9-5.187-.61-4.991 1.17-9.06 4.84-12.405 2.78-2.52 6.89-3.159 10.59-1.348l-.01.005Z"/></g><defs><clipPath id="a"><path fill="#fff" d="m246.916 179 1317.506 91.079-28.916 418.282L218 597.28z"/></clipPath><clipPath id="b"><path fill="#fff" d="M269.218 532.885 958.3 604.431l-29.187 281.11-689.082-71.545z"/></clipPath><clipPath id="c"><path fill="#fff" d="M1216 636h476v227h-476z"/></clipPath></defs></svg>