<svg xmlns="http://www.w3.org/2000/svg" width="1920" height="1080" fill="none"><path fill="#3C4043" d="M1019.06 436.539c-2.09-1.475-3.98-1.149-5.35.27-1.27 1.319-2.6 1.514-4.19 1.382-5.82-.484-11.143-1.639-14.4-7.453-1.111-1.984-3.546-3.303-5.517-4.728a2919.752 2919.752 0 0 0-22.972-16.388c-3.521-2.493-7.162-4.816-10.639-7.372-3.646-2.681-7.167-5.538-10.726-8.344-5.222-4.132-10.425-8.295-15.647-12.426-3.791-3.001-7.626-5.946-11.399-8.966-4.977-3.981-9.923-8-14.856-12.037-.847-.697-1.525-1.595-2.354-2.317-5.887-5.155-11.824-10.259-17.687-15.452-2.887-2.556-5.63-5.274-8.492-7.868-.383-.345-1.054-.376-1.594-.558-.138.414-.351.828-.389 1.249-.063.785-.025 1.576-.019 2.361.082 5.802-1.349 11.478-1.707 17.185-.502 8.018-3.578 15.396-4.607 23.119-.734 5.538-3.509 10.599-3.157 16.269.025.389-.314.803-.477 1.211-3.534 8.684-7.626 17.142-12.817 24.909-6.276 9.387-15.17 15.848-26.204 18.353-4.94 1.118-10.243-.063-15.415-1.218-11.524-2.575-20.725-8.765-28.978-16.809-.729-.709-1.72-1.142-2.599-1.689-5.078-3.158-9.308-7.101-13.068-11.848-2.535-3.202-5.04-6.386-7.167-9.852-3.992-6.492-6.785-13.556-9.421-20.663-1.776-4.791-3.107-9.739-4.62-14.63-.132-.427-.119-.904-.15-1.356-.32-4.44-.226-8.954-1.08-13.286-.653-3.335-.615-6.348-.025-9.67.458-2.568-.722-5.381-.747-8.087-.1-11.817-.207-23.634.044-35.444.094-4.32 1.142-8.621 1.833-12.922.113-.691.577-1.331.922-1.972 1.249-2.323 3.208-2.844 5.066-1.124 2.115 1.959 4.406 3.824 5.341 6.75.106.345.521.59.797.879.358-.364 1.01-.728 1.017-1.099.031-1.682.753-2.624 2.448-2.668 1.179-.032 2.159-.352 2.454 1.701.47 3.297 2.021 6.436 2.604 9.733.327 1.846-.401 3.874-.615 5.826a30.605 30.605 0 0 0-.213 3.215c-.025 4.408.1 8.828-.05 13.23-.094 2.712-.572 5.412-.91 8.118-.333 2.7.841 5.582-.942 8.119 1.456 5.211-.941 10.473.684 15.917 1.111 3.723 1.004 7.98 2.14 11.905 1.588 5.469 3.208 10.931 5.543 16.136 2.862 6.373 5.648 12.797 8.736 19.057 1.432 2.901 3.377 5.582 5.342 8.169.866 1.142 2.247 2.316 3.59 2.605 6.747 1.482 13.268 3.768 19.909 5.482 5.793 1.494 11.655-1.068 16.902-4.395 9.993-6.323 15.164-15.924 18.328-26.767 1.65-5.658 3.295-11.34 3.985-17.299.716-6.159 2.643-12.162 3.59-18.309.948-6.147 1.318-12.388 1.965-18.579.282-2.706.559-5.419.954-8.112.584-3.975-1.324-6.719-4.117-9.186-1.984-1.752-3.766-3.724-5.643-5.601-2.561-2.562-5.166-5.08-7.657-7.711-.678-.722-1.193-1.72-1.469-2.681-.904-3.139 1.425-4.451 3.521-5.852.327-.219 9.936-9.01 9.973-9.311.132-.955.628-2.317.182-2.819-1.581-1.809-1.311-4.452-2.523-6.028-1.839-2.386-.031-4.144.32-5.915.484-2.417 3.038-2.951 5.656-1.739 1.456.672 2.793 1.614 4.249 2.298 1.443.678 2.95 1.576 4.469 1.677 2.322.156 4.142 1.023 5.504 2.712 2.542 3.165 4.896 6.467 7.356 9.695.741.973 1.506 1.933 2.366 2.794 5.436 5.475 10.965 10.868 16.338 16.4 4.544 4.684 8.869 9.582 13.4 14.278 3.86 4 7.683 8.018 12.177 11.39 3.571 2.675 6.64 6.009 10.023 8.941 6.471 5.614 13.055 11.101 19.507 16.74 3.967 3.466 7.865 7.013 11.631 10.699 6.866 6.718 13.607 13.569 20.398 20.362 6.44 6.442 12.923 12.841 19.294 19.346 2.36 2.411 4.441 5.098 6.731 7.578.44.471 1.27.565 1.92.829.12-.578.44-1.199.34-1.733-1.16-5.833-1.71-11.704-1.92-17.65-.18-4.81-.44-9.663-1.82-14.347-.09-.289 0-.628-.02-.942-.31-6.329-.5-12.664-.96-18.981-1.315-18.127-.75-36.286-1.06-54.432-.04-2.43.23-4.841.13-7.252-.29-6.385-.586-12.765-.962-19.144-.113-1.953-2.247-3.893.019-5.833-.703-4.879 3.433-5.073 6.283-5.946 1.59-.49 2.14-.597 2.32-2.405.31-3.234.82-6.549 1.98-9.55.65-1.702 2.53-3.579 4.23-4.063 1.68-.477 3.63-2.354 5.85-.288 1.19 1.105 3.28 1.174 4.79 2.009 3.12 1.727 5.01 4.269 4.79 8.087-.37 6.48-.17 13.035-1.06 19.439-1.74 12.477-.95 24.984-.56 37.423.19 6.147-.15 12.425.8 18.497.87 5.576.19 11.151.9 16.633 1.77 13.725.34 27.482.86 41.208.04.741.22 1.482.34 2.223.51-.49 1.1-.929 1.53-1.482 5.62-7.095 9.53-15.163 13.14-23.383 4.56-10.397 8.76-20.946 13.45-31.287 2.76-6.11 6.63-11.748 9.17-17.939 3.38-8.257 7.65-16.055 11.53-24.048 2.31-4.734 5.1-9.224 7.48-13.92 1.18-2.323 1.79-4.935 2.92-7.29 1.07-2.248 2.53-4.307 3.72-6.492 2.97-5.407 4.28-11.491 6.78-17.035 1.96-4.339 1.98-9.192 4.4-13.311 1.87-3.158 5.68-3.573 8.05-.779 1.1 1.3 2.23 2.499 4.34 2.154 1.05-.17 2.64.195 3.3.929 2.46 2.763 5.58 2.549 8.82 2.863 5.09.484 9.89 1.79 12.64 7.001 1.05 1.984 3.3 3.309 4.55 5.231 3.6 5.563 6.92 11.308 10.45 16.921 8.42 13.374 16.92 26.698 25.34 40.072 8.49 13.487 17.2 26.848 25.3 40.568 6.53 11.051 13.13 22.039 20.24 32.706 3.39 5.086 7.05 9.996 10.57 15.001 3.09 4.389 6.15 8.796 9.25 13.179 1.46 2.078 2.89 4.194 4.47 6.178 3.91 4.904 7.2 10.235 10.79 15.352 2.38 3.403 5.82 6.084 8.87 9.01 1.07 1.03 2.73 1.589 3.5 2.769.95 1.438 2.68 2.813 1 5.206-.9 1.281-.84 2.794 2.04 3.635 6.07 1.777 8.53 7.428 9.82 13.041 1.04 4.54.73 9.287-.75 13.933-2.29 7.233-9.52 7.428-14.16 3.604-2.09-1.72-3.54-3.83-3.79-6.454-.23-2.399-1.56-2.644-3.46-2.644-6.88 0-13.69.672-20.48 1.834-4.22.715-8.55.897-12.83.973-6.73.113-13.38.753-20.01 1.865-1.2.201-2.57-.861-3.85-.823-7.43.214-14.94.025-22.26 1.111-4.18.622-8.28.371-12.39.735-2.25.201-4.53-.452-6.76.829-.72.414-2.22-.785-3.34-.741-2.54.107-5.28 1.268-7.56.634-2.64-.735-4.88-1.048-7.41-.038-.92.365-2.19.383-3.13.063-3.44-1.155-6.78-1.23-10.21.057-.97.364-2.17.125-3.26.132-4.88.006-9.87-.635-14.61.163-5.88.992-11.92-.176-17.68 1.695-.71.232-1.57 0-2.36.038-5.85.308-11.72.508-17.55.973-6.05.484-12.12.986-18.11 1.921-7.28 1.137-14.62 1.244-21.88 2.041-6.37.703-12.77-.132-18.98.879-7.78 1.268-15.54.101-23.249.873-9.804.986-19.614 1.519-29.449 2.003-5.273.257-10.614.176-15.83.873-7.594 1.01-15.264.056-22.746 1.048-5.598.741-11.103.415-16.645.71-7.111.383-14.266.282-21.333 1.036-17.499 1.858-35.023.383-52.528.86-14.041.383-28.119.138-42.109 1.174-6.98.521-13.928.634-20.882.684-14.116.107-28.188 1.105-42.285 1.595-6.615.233-13.268.572-19.927.452-8.047-.15-16.137.258-24.165.917-6.728.553-13.387 1.877-20.097 2.731-3.628.465-7.35.358-10.927 1.036-6.195 1.181-12.534 1.231-18.698 2.7-2.925.704-6.094.383-9.026 1.074-6.671 1.582-13.607 1.432-20.235 3.548-2.46.784-5.134 1.136-7.701 1.946-2.781.873-5.436-.377-7.287-2.706-3.107-3.899-3.232-9.136-.534-13.349 1.149-1.79 2.461-2.656 4.783-2.857 4.117-.364 8.172-1.463 12.252-2.26.728-.145 1.443-.39 2.171-.446 8.398-.653 16.815-1.099 25.194-1.959 6.408-.659 12.754-1.928 19.15-2.744 3.941-.502 7.927-.622 11.887-.998 2.241-.214 4.463-.66 6.697-.917 2.241-.258 4.632.603 6.71-.936.201-.15.615-.012.929-.018 8.059-.314 16.111-.71 24.177-.923 14.411-.384 28.878 0 43.213-1.175 11.405-.935 22.809.283 34.094-.885 12.967-1.337 25.941.182 38.82-.936 15.685-1.362 31.357-.332 47.023-.835 3.503-.113 6.955.12 10.526-.69 2.624-.597 5.73-.176 8.611-.251 10.476-.264 21.001-.101 31.401-1.124 5.731-.565 11.48 0 17.091-.867 6.352-.979 12.76-.05 18.968-1.004 5.435-.836 10.795-.358 16.168-.785 6.571-.521 13.13-1.256 19.696-1.846 1.249-.113 2.516.019 3.778-.019 10.414-.308 20.864-.333 31.254-1.105 3.47-.258 6.98-.559 10.48-.816 6.83-.503 13.69-.98 20.47-1.922 6.49-.904 12.98-1.607 19.53-1.902 4.8-.214 9.55-1.338 14.35-1.765 5.52-.496 11.07-.659 16.61-.992 4.91-.295 9.82-.559 14.72-.96 4.93-.409 9.89.885 14.82-.691 1.35-.433 3.14.678 4.72.659 3.07-.025 6.13-.496 9.2-.502 2.81-.006 5.63.584 8.44.508 6.65-.175 13.38.007 19.89-1.086 5.29-.885 10.55 0 15.69-.86 7.28-1.206 14.56-.458 21.82-.904 5.43-.333 10.81-1.281 16.23-1.79 2.06-.194 2.07-.634 2.1-2.831.08-6.003-4.99-9.017-6.98-13.739-.2-.496-2.44-.847-2.93-.395-2.75 2.518-5.23-.942-7.8-.101-.82-2.618-3.36-3.962-4.38-6.699-3.58-9.588-8.72-18.454-13.51-27.495-4.15-7.824-9.08-15.126-13.57-22.711-3.39-5.733-7.22-11.22-10.99-16.714-3.8-5.538-7.77-10.963-11.67-16.439-4.67-6.567-9.49-13.041-13.98-19.734-3.78-5.626-7.32-11.421-10.7-17.298-5.69-9.908-11.18-19.936-16.73-29.925-1.13-2.041-2.05-4.201-3.22-6.223-.91-1.557-1.08-1.526-1.86.032-2.22 4.432-4.73 8.759-6.49 13.374-2.85 7.497-6.41 14.686-9.45 22.076-3.78 9.18-8.01 18.133-12.48 26.962-6.99 13.826-14.48 27.394-21.64 41.139-3.03 5.814-5.76 11.785-8.6 17.7-.38.785-.94 1.702-.82 2.468.87 5.381-2.56 8.526-5.87 11.772-.77.754-1.89 1.394-2.21 2.305-.81 2.285-2.23 2.913-4.52 2.781-3.8-.226-6.85-2.442-8.29-6.084-.47-1.212-1.36-2.329-2.27-3.29-.69-.728-1.77-1.074-2.57-1.72-1.49-1.219-2.9-2.531-4.35-3.805-.07 2.021-.09 4.043-.22 6.052-.21 3.209.83 6.355.13 9.638-.3 1.413.47 3.215 1.16 4.641 2.77 5.72.99 12.677-4.2 15.879-1.29.797-5.81.464-6.99-.572-.84-.734-1.59-1.563-2.61-2.586m95.75-191.625c.3.025.59.043.88.069-.29-.182-.58-.365-.88-1.018a7.25 7.25 0 0 1-.94-1.89c0-.784.03-1.569-.02-2.354-.03-.59-.2-1.168-.3-1.752-.22.119-.56.188-.65.371-.32.621-.93 1.419-.75 1.902.31.86 1.11 1.545 1.72 2.775.31.471.62.948.94 1.89m-240.466 60.974c-.339-.314-.64-.803-1.036-.904-.584-.144-1.23-.006-1.851.013.276.552.414 1.262.847 1.639 2.63 2.31 5.341 4.539 7.996 6.818.735.635 1.35 1.407 2.084 2.041.389.339.916.528 1.381.785-.113-.44-.119-.954-.364-1.3-.954-1.35-1.839-2.788-3.013-3.924-1.745-1.689-3.703-3.146-6.05-5.174m248.982-59.072c-.11-.106-.2-.238-.33-.313-.07-.044-.3 0-.31.018-.12 1.369 1.86 4.075 3.36 4.534.23.069.54-.132.81-.207-.8-.967-1.6-1.941-2.41-2.908-.2-.232-.43-.433-1.12-1.124m-253.225 37.812c-.754-.754-1.507-1.513-2.291-2.242-.019-.012-.534.459-.521.471.602.766 1.23 1.513 1.876 2.236.07.075.302.012.929-.465m17.951 34.973c.22.094.439.22.665.258.069.012.277-.308.264-.321-.533-.54-1.042-1.13-1.663-1.563-.27-.188-.766-.05-1.161-.057.47.402.947.804 1.889 1.683m36.378 33.555c-.401.087-.803.169-1.199.257l1.419 1.419c.088-.402.169-.804-.213-1.676m292.902 112.479c.13-.188.25-.376.38-.565-.28.032-.57.063-.38.565Zm-105.34-198.965-.57-.376c.03.282.07.565.57.376Z"/><path fill="#1A73E8" d="M1060.92 689.185c2.18-10.285 5.89-19.549 8.49-29.145 1.82-6.679 3.27-13.605 6.04-20.168 1.76-4.164 2.79-8.931 4.11-13.435 1.97-6.756 3.88-13.536 5.84-20.3 2.7-9.364 5.17-18.798 8.24-28.046 2.07-6.261 3.05-12.715 4.54-19.077.85-3.583 3.04-5.541 6.74-6.206 2.46-.441 5.09-1.053 7.15-2.361 4.14-2.631 8.8-3.413 13.37-4.241 2.59-.464 5.77-.154 8.06 1.03 2.31 1.199 4.43.928 6.6.897 2.37-.031 4.99-1.517 7.02-.866 2.31.743 3.94.495 6.14-.039 1.95-.472 4.32.495 6.45 1.014 2.1.503 4.11 1.462 6.22 1.811 4.4.719 6.69 3.304 8.54 7.267 3.58 7.669 6.93 15.369 9.43 23.48 2.66 8.629 7.43 16.345 11.53 24.331 7.4 14.434 15.13 28.689 22.81 42.975 3.67 6.842 7.69 13.497 11.27 20.385 4.55 8.776 8.7 17.761 13.22 26.545 2.53 4.914 5.55 9.534 9.41 13.605 2.25 2.361 4.2 4.86 4.77 8.544.38 2.422 2.64 5.193 4.84 6.571 7.08 4.45 10.69 10.85 12.47 18.72.38 1.687 1.6 3.235 2.64 4.713 2.12 3.026 4.37 5.959 6.56 8.939.98 1.339 1.9 2.709 2.89 4.04 1.85 2.492 3.4 4.93 4.4 8.103 1.35 4.302 3.34 9.163 9.04 9.991 3.03.441 4.8 2.252 5.85 4.96l1.17 3.011c.77 2.004 2.68 4.442 2.11 5.936-1.4 3.653-.71 8.219-4.65 10.943-1.79 1.238-2.82 3.552-4.49 5.038-2.15 1.896-4.59 3.374-7.68 3.366-7.71-.007-15.4-.317-22.97 2.16-3.04.998-6.61-.217-9.59 2.321-1.02.867-3.52.604-5.09.085-5.18-1.725-10.24-1.656-15.38.062-.52.178-1.16.016-1.74.024-19.64.386-39.28.727-58.93 1.207-3.73.093-7.44.704-11.16 1.13-3.53.41-7.23-1.061-10.63 1.091-.7.441-1.9.031-2.87.07-8.77.379-17.66 0-26.28 1.377-8.64 1.385-17.2.379-25.76.975-3.34.232-6.67.689-9.99 1.153-3.14.441-6.53-1.207-9.42 1.146-3.56-2.902-7.07.456-10.7.139-5.97-.526-12.03-.279-18.04-.108-10.33.278-20.74.054-30.94 1.377-6.89.898-13.76.039-20.49 1.053-8.398 1.269-16.81.472-25.146 1.261-2.918.279-5.603-.518-8.374-.201-13.792 1.563-27.653.573-41.445 1.316-10.162.549-20.278 1.934-30.494 2.259-7.848.248-15.797.836-23.466 2.407-6.703 1.37-13.313.496-19.938.999-3.73.286-7.445.743-11.168 1.153-3.529.387-7.004-.287-10.657.944-3.405 1.153-7.353.41-11.13 1.192-5.51 1.13-11.292.928-16.949 1.362-9.775.75-19.635 1.014-29.287 2.538-5.146.813-10.301.101-15.247 1.084-6.462 1.284-13.041.069-19.31 1.238-7.089 1.316-14.124.186-21.098 1.021-19.232 2.322-38.527.318-57.768 1.192-5.108.232-10.177 1.556-15.247 2.485-3.227.588-6.385 1.648-9.628 2.012-3.73.41-7.368-1.246-9.202-4.11-2.709-4.225-6.099-8.188-7.538-13.141-.867-2.971-1.393-6.044-1.92-9.101-.332-1.942.604-3.405 1.618-5.162 2.639-4.597 6.076-8.01 10.665-10.579 1.285-.72 2.144-2.523 2.794-4.009 1.734-3.97 4.187-5.27 8.599-5.17 3.126.07 6.284-.65 9.419-1.091 2.368-.333 4.721-.843 7.089-1.137 7.616-.96 15.371-.565 22.925-2.299 1.478-.34 3.095-.046 4.651-.046 5.24 0 10.487.077 15.727-.016 20.03-.356 40.083-.356 60.082-1.315 10.549-.511 21.083-1.688 31.639-2.446 4.481-.325 9.094-.147 13.498-.983 6.633-1.254 13.42-.147 19.883-1.284 7.484-1.316 14.906-.14 22.267-1.007 19.039-2.252 38.148-.247 57.172-1.323 3.939-.224 8.002-.341 11.98-.712 3.654-.34 7.492-.132 11.246-.263 7.801-.279 15.642-.372 23.389-1.246 6.671-.751 13.374-1.47 19.976-2.484 4.961-.759 10.03.232 14.651-1.084 6.656-1.888 13.606.55 20.062-2.128.33-.139.76 0 1.16-.015 11.29-.387 22.59-.759 33.88-1.169 9.94-.364 19.95-.147 29.78-1.385 6.1-.774 12.16-.333 18.18-1.006 12.66-1.424 25.34-1.904 38.05-2.446 8.6-.364 17.25-1.424 25.81-2.422 5.51-.643 11.03-.116 16.42-.991 7.41-1.199 14.91-.34 22.21-1.316 4.35-.58 8.74-.147 12.93-1.021 8.77-1.834 17.56-.805 26.33-.967 3.04-.055 1.67-1.192 1.08-2.361-1.05-2.089-2.02-4.249-3.3-6.191-.8-1.231-1.95-2.43-3.22-3.134-4.42-2.461-8.29-4.69-8.83-10.874-.55-6.245-4.95-11.214-8.73-16.097-1.83-2.36-3.47-4.373-4.37-7.569-1.27-4.535-3.07-9.116-5.72-13.35-3.2-5.131-4.98-11.136-7.82-16.523-4.38-8.304-9.24-16.36-13.73-24.61-3.43-6.322-6.52-12.839-9.93-19.177-5.14-9.535-10.71-18.845-15.54-28.526-3.67-7.368-6.46-15.176-9.73-22.753-.37-.89-1.25-1.563-1.89-2.337-.52.952-1.19 1.849-1.53 2.856-1.23 3.567-2.3 7.205-3.54 10.765-1.37 3.892-3.27 7.739-4.36 11.554-2.01 7.05-5.71 13.203-8.38 19.858-4.48 11.152-8.56 22.467-12.89 33.688-2.45 6.362-5.22 12.6-7.55 19-3.44 9.457-6.66 18.991-9.88 28.518-.68 1.997.62 3.808 2.75 4.024 1.54.155 3.23.418 4.64-.03 6.76-2.16 13.67-.798 20.51-1.014 3.12-.101 6.3.557 9.39 1.168.87.171 1.53 1.417 2.29 2.167-.65.48-1.24 1.254-1.95 1.386-7.74 1.377-13.15 7.321-20.27 10.145-8.87 3.529-17.84 3.878-27 3.545-1.18-.047-1.95-.666-3.01.464-2.9 3.088-6 5.99-8.95 9.032-5.14 5.309-13.23 4.303-16.85-2.268-1.03-1.865-2.09-3.947-2.27-6.013-.63-7.197-1.97-14.588-.92-21.592.88-5.843 1.74-12.127 5.37-17.521 2.57-3.816 4-8.397 5.94-13.219m104.87 104.269.69.464c-.04-.348-.08-.696-.69-.464Z"/><path fill="#1A73E8" d="M867.52 686.855c0-7.182.062-13.783-.039-20.384-.031-1.997.542-3.994-.975-6.037-.836-1.122-.712-3.645-.046-5.084 2.647-5.72.139-10.765-1.54-15.958-.279-.852-.906-1.726-.836-2.539.557-6.431-.658-12.839.836-19.386.936-4.094-.774-8.807-1.394-13.226-.278-1.981-.982-3.916-1.176-5.905-.457-4.636-4.055-7.979-4.767-12.653-.473-3.088-.929-5.898.681-8.521 1.486-2.415 1.408-5.541 2.763-7.546 2.337-3.467 5.456-6.74 10.169-7.445 2.16-.325 4.365-.665 6.416-1.377 7.531-2.631 13.529.72 19.419 4.69 1.2 6.5 7.554 7.367 11.625 10.757 2.113 1.757 3.87 4.063 5.34 6.408.464.735.255 2.724.426 3.552.727 3.444 2.128 6.919 4.04 9.898 3.676 5.727 7.84 11.152 11.865 16.655 5.456 7.46 10.912 14.921 16.485 22.288 5.27 6.973 10.719 13.807 16.036 20.741 4.845 6.323 9.613 12.707 14.427 19.061.232.31.51.596.82.821 7.438 5.541 11.462 14.092 18.041 20.384.418.403.929.759 1.215 1.246.673 1.146 1.625 3.436 1.788 3.382 2.621-.952 1.141-3.243 1.101-4.852-.08-3.336 1.16-6.88-1.055-10.007 2.395-4.798-2.113-10.13 1.165-14.859-2.38-10.053-.21-20.307-1.312-30.368-.751-6.864-1.641-13.706-2.337-20.586-.828-8.188-2.988-16.236-4.203-24.401-.627-4.21-2.616-8.049-3.359-11.926-.704-3.691-1.664-7.205-2.647-10.827-1.849-6.818 2.183-13.079 9.017-14.425 1.857-.364 4.233 0 5.881.905 2.72 1.502 5.22.418 6.67-.983 6.23-6.028 13.36-4.256 20.51-3.134.18.031.35.101.51.178 1.92.983 8.21 12.522 7.26 14.34-2.05 3.909-1.51 8.095-.84 11.779 1.79 9.96 1.2 19.944.72 29.827-.36 7.406-1.39 14.859-.81 22.234 1.65 21.251.69 42.526 1.14 63.785.11 5.162 1.53 10.285 1.9 15.455.2 2.871-.72 5.812-.78 8.722-.16 8.234 1.13 16.275 3.39 24.2.47 1.617-.08 3.49.11 5.216.25 2.182-.08 4.272.88 6.609 1.13 2.771.85 6.834-2 8.761-2.58 1.741-5.83 3.08-9.36 1.578-7.37-3.134-15.42-3.946-22.91-6.585-3.02-1.061-6.73-2.632-8.192-5.108-3.05-5.162-7.74-7.29-12.794-8.598-3.328-.867-5.278-2.361-7.198-5.077-8.196-11.609-16.771-22.946-24.991-34.532-2.925-4.125-5.077-8.799-7.878-13.017-4.675-7.027-10.093-13.613-14.249-20.926-3.103-5.456-7.987-9.063-11.617-13.83-6.006-7.894-11.509-16.175-17.197-24.301-.41-.58-.534-1.423-1.037-1.872-.488-.434-1.285-.503-1.951-.736-.17.511-.557 1.053-.48 1.525.411 2.755-.719 5.526.929 8.366.929 1.594.31 4.171.178 6.292-.333 5.51 1.324 11.121-.077 16.484-2.276 8.737.789 18.086-3.359 26.553-.31.626 0 1.532-.047 2.306-.379 7.019-.325 14.108-1.284 21.05-.999 7.197-2.841 14.294-4.652 21.352-.379 1.463-2.02 2.956-3.459 3.73-5.225 2.802-7.361 7.964-10.503 12.468-3.405 4.876-6.818 10.007-12.391 12.824-3.97 2.004-7.832 5.076-12.747 2.174-.72-.425-1.912-.1-2.879-.054-7.345.348-14.272-1.261-20.998-4.164-1.478-.634-3.343-.464-5.03-.479-3.235-.031-5.967-1.107-8.777-2.779-3.676-2.19-7.855-3.513-11.702-5.448-1.95-.975-4.497-2.066-5.294-3.792-2.368-5.108-7.407-6.315-11.454-8.977-1.378-.906-3.537-1.618-3.924-2.864-1.208-3.877-3.978-6.408-6.796-8.807-3.421-2.918-2.546-7.151-3.784-10.695-1.44-4.11-1.695-8.622-2.492-12.955-.364-1.982-.883-3.94-1.138-5.929-.372-2.948.58-5.966-1.068-8.899-.604-1.076.139-2.926.294-4.419.24-2.423 1.145-4.984.635-7.229-1.572-6.934-1.695-13.729.054-20.624.363-1.417.015-3.049-.178-4.551-.085-.673-.828-1.277-.89-1.942-.449-5.464-.79-10.936-1.208-16.407-.348-4.504-.394-9.078-1.308-13.466-.495-2.376-1.432-4.171-.046-6.741.735-1.37-.89-3.838-.913-5.82-.124-9.124-.202-18.248-.008-27.373.17-8.009 5.34-11.09 11.485-7.909 1.254.65 3.057.449 4.095 1.285 1.756 1.416 3.351 1.23 5.224.642 5.564-1.741 10.332-.882 13.869 4.241 1.486 2.144 3.692 3.885 4.783 6.184 1.409 2.956 1.803 5.99.317 9.55-1.377 3.312-1.161 7.344-1.331 11.082a147.46 147.46 0 0 0 0 12.808c.101 2.376.735 4.729 1.107 7.089.402 2.554 1.083 5.108 1.114 7.669.078 7.917.821 15.718 2.284 23.512.936 4.976.975 10.138 1.246 15.222.464 8.567.735 17.15 1.222 25.725.132 2.376.496 4.806 1.2 7.066.643 2.074 2.663 2.778 4.52 3.861 3.823 2.222 7.136 5.333 10.657 8.08 2.949 2.306 6.006 4.264 10.008 4.009.874-.054 1.865.17 2.662.557 1.54.743 3.158 2.608 4.442 2.368 3.321-.619 6.997-.673 9.768-2.995 2.02-1.687 3.885-3.606 5.611-5.603 4.148-4.798 5.983-10.246 6.068-16.786.062-4.775 2.113-9.519 3.281-14.859l.008.031ZM743.146 768.115c-1.602-.101-2.91.147-4.226.279-4.11.418-8.32.356-12.306 1.277-5.658 1.307-11.602 0-17.128 2.182-.843.333-1.927 0-2.894.054-6.246.372-12.585.232-18.707 1.3-6.563 1.146-13.676.488-19.503 4.891-.921.697-2.462.627-3.731.782-6.029.735-12.236-1.439-18.165 1.13-.356.155-1.013-.286-1.486-.534-5.479-2.894-10.788-6.137-14.558-11.152-3.088-4.117-1.973-9.047-1.377-13.652.82-6.384 2.492-12.684 2.979-19.084.527-6.95-.503-14.031.264-20.934 1.246-11.299.812-22.591 1.075-33.882.093-4.179 1.595-8.497.914-12.491-1.03-6.083-.333-12.266-1.927-18.334-.79-3.025.812-6.609.874-9.944.039-2.353-.704-4.721-1.083-7.081-.782-4.915-1.634-9.829-2.307-14.759-.48-3.513-.224-7.035-.882-10.633-.681-3.73.627-8.064 1.912-11.841 1.369-4.047 3.916-7.685 5.549-11.663.727-1.764 1.586-1.873 3.204-2.105 3.963-.565 7.523.674 10.58 2.632 2.616 1.679 4.264 2.035 6.23-.534.65-.844 1.656-1.556 2.655-1.974 4.481-1.865 5.619-1.524 8.56 2.244 1.377 1.757 2.956 3.398 4.055 5.317 1.061 1.842 2.369 4.032 2.229 5.967-.224 3.026 1.448 5.742.38 9.016-.976 2.979-.573 6.578-.14 9.821 1.494 11.268.302 22.644 1.293 33.858 1.176 13.265 1.54 26.545 2.476 39.787.496 7.011.093 14.17 1.788 21.236 1.393 5.804 1.076 12.041 1.316 18.101.07 1.873.224 2.709 2.469 2.647 6.981-.178 14.086.727 20.928-.279 7.484-1.106 15.603-.077 22.344-5.053.758-.557 2.972.41 4.264 1.122 3.274 1.811 6.463 3.66 10.418 2.987.735-.124 1.509-.085 2.213-.278 6.385-1.734 10.077-.682 13.421 4.767 1.95 3.173 4.411 6.292 4.403 10.393 0 2.508.232 4.969-2.291 6.64-2.267 1.502-1.137 3.901-1.168 5.882-.085 5.549-2.802 9.395-6.943 12.816-3.088 2.554-5.146-.348-7.971-.913v-.008Z"/><path fill="#3C4043" d="M632.125 427.497c.157-2.103 2.048-3.678.044-5.404-.314-.27-.239-1.293-.013-1.826 1.722-4.029.861-8.253.867-12.37.076-38.403.038-76.806.069-115.21 0-1.619-.634-3.433 1.094-4.738 2.519-1.908 4.172-1.607 6.496 1.136.547.64 1.477.96 2.225 1.425.188-.691.396-1.381.559-2.078.503-2.159.854-4.355 1.502-6.464 1.175-3.822 4.963-5.071 8.325-2.918 2.783 1.776 4.354 4.23 4.36 7.562.019 7.714.107 15.427-.037 23.134-.076 4.023-.729 8.027-.855 12.05-.088 2.786.402 5.592.402 8.385 0 2.924-.446 5.849-.408 8.773.044 3.189-.057 6.32.716 9.571.785 3.314.05 6.986.094 10.507.208 17.943.126 35.886.051 53.829-.007 1.908.873 4.017-.836 5.805-.308.321.276 1.406.308 2.147.088 1.908.151 3.816.113 5.724-.019.878-.421 1.744-.459 2.623-.169 4.01-.144 4.13 3.795 3.998 6.334-.214 12.755-.057 18.963-1.092 4.813-.804 9.544-.408 14.288-.791 6.679-.54 13.345-1.224 20.018-1.883.565-.056 1.351-.188 1.621-.577 2.72-3.916 6.145-2.329 9.487-1.274.547.169 1.05.935 1.502.872 5.278-.665 9.117 2.561 13.339 4.764 3.814 1.989 3.525 3.15 2.803 6.288-1.376 5.981-4.047 7.224-10.217 5.504-.804-.226-2.073-.533-2.494-.138-2.514 2.385-4.738.327-7.207.05-4.254-.476-8.621 0-12.943.132-.566.019-1.125.408-1.697.446-5.699.345-11.397.797-17.096.916-5.8.119-11.486.929-17.191 1.87-3.914.647-7.923.929-11.888.917-2.324-.007-4.134.684-5.039 2.542-1.935 3.991-4.806 5.704-9.242 5.152-1.766-.219-3.418-.144-5.159 1.293-2.343 1.927-7.665.402-9.092-2.768-1.055-2.347-2.387-2.353-4.272-2.366-3.204-.019-6.283.49-8.884-2.711-2.212-2.718-3.795-6.295-2.866-9.427 1.175-3.947 4.801-2.811 7.352-3.841.948-.382 2.193.044 3.28-.081 3.034-.345 4.165-1.644 4.216-4.707.025-1.419 0-2.837 0-4.726l.006-.025ZM775.012 362.611c.31-5.189.217-9.985 1.079-14.599.564-3.028 2.275-5.951 3.918-8.642 1.401-2.304 3.323-4.327 5.226-6.263 2.133-2.16 4.538-3.827 7.911-3.478 1.01.106 2.25-.587 3.174-1.224 6.156-4.258 12.721-4.289 19.212-1.386 2.381 1.068 4.142 3.591 6.119 5.52 2.84 2.772 6.256 5.145 7.44 9.191a57.21 57.21 0 0 1 1.866 9.067c.508 4.071.676 8.18.98 12.276.514 6.881-2.158 12.869-6.02 18.102-3.664 4.951-9.145 7.461-15.369 7.724-4.185.175-8.394-.106-12.579.087-2.66.125-4.966-.599-7.142-1.942-4.302-2.654-8.816-5.114-11.203-9.928-2.2-4.446-4.761-8.792-4.618-14.499l.006-.006Z"/><path fill="#1A73E8" d="M863.728 668.507c.294 2.817.139 5.348.325 7.855.472 6.455-2.376 10.928-7.229 15.068-3.32 2.833-7.082 4.589-10.65 6.811-3.219 1.996-6.578 2.027-9.852-.055-1.881-1.191-3.761-2.081-6.153-2.066-11.733.07-13.962-4.117-17.112-13.373-1.161-3.413-2.175-7.298-.58-11.833 3.536-10.045 9.744-16.67 17.553-18.999.356-.109.843.123 1.153-.031 7.399-3.831 14.844-1.339 21.33 1.509 5.689 2.499 9.466 8.257 11.223 15.114h-.008ZM1152.1 696.468c-5.07 2.345-9.76 4.612-14.63 6.408-8.15 3.01-18.86-2.879-20.55-11.353-1-5.039-2.51-10.123-.18-15.362.72-1.618 0-3.839.16-5.766.1-1.246.53-2.477.89-3.692 1.73-5.781 7.9-5.231 11.68-8.118 4.51-3.444 8.9-2.283 13.07.913.85.658 1.86 1.595 2.79 1.587 8.42-.062 11.17 7.05 14.27 12.421 3.6 6.222 3.52 12.638-2.68 18.156-1.59 1.416-3.02 3.003-4.82 4.806Z"/><path fill="#3C4043" d="M1103.9 370.643c-.31-3.16-.85-5.844-.9-8.541-.11-6.314 2.77-9.549 8.71-12.327 3.21-1.502 6.06-3.104 9.74-2.716 4.12.425 7.95.895 10.02 5.319 2.29 4.893 5.79 9.305 5.52 15.118-.31 6.714-3.19 11.758-9.55 14.436-4.27 1.79-8.7.851-13.11.576-4.21-.263-7.01-2.366-8.73-5.989-.8-1.689-1.15-3.598-1.7-5.876ZM583.022 230.917c-2.524.619-2.113-1.022-1.966-2.19.046-.395.967-.681 1.486-1.014.255.967.51 1.942.48 3.204Z"/></svg>