<svg xmlns="http://www.w3.org/2000/svg" width="1920" height="1080" fill="none"><path fill="#3C4043" d="M693.857 343.312c-2.084 4.429-3.895 8.353-5.352 12.4-2.261 6.254-1.54 8.052 4.317 10.151 8.431 3.024 16.453.504 23.658-3.502 4.427-2.453 2.52-7.535 1.39-11.636-1.172-4.251.231-8.571 4.44-9.388 5.843-1.131 8.281-5.478 10.242-9.661 1.88-3.992 4.318-6.567 7.9-8.883 6.932-4.47 9.343-4.688 15.05.885 3.296 3.216 2.506 7.535.913 11.119-1.662 3.706-4.236 7.058-6.702 10.341-4.195 5.6-8.648 11.01-12.911 16.555-.423.545-.246 1.553-.355 2.344.831-.341 1.676-.641 2.479-1.036 8.921-4.496 17.271-10.055 27.227-12.549 2.247-.558 3.705-4.905 5.203-7.671 4.631-8.57 9.166-17.195 13.62-25.861 2.765-5.368 4.086-6.091 8.376-2.548 2.479 2.057 4.223 5.137 5.911 7.985 3.378 5.681 3.106 5.354 8.963 2.97 9.656-3.924 16.848-9.974 20.947-19.825 2.084-5.001 4.086-5.137 8.159-1.567 1.961 1.717 3.541 3.679 6.633 3.079 7.477-1.43 12.626 1.227 14.927 8.789.218.722 1.499 1.117 2.289 1.676.381-.668 1.171-1.404 1.076-1.99-.627-3.951 2.247-3.788 4.276-3.106 1.757.586 3.269 2.384 4.44 3.965.559.749-.027 2.275.123 3.42.204 1.539.64 3.052.981 4.578.831-1.404 1.566-2.875 2.519-4.21 1.785-2.494 3.514-5.055 5.571-7.304 1.866-2.03 3.582-5.245 6.974-4.019 3.228 1.172 6.251 3.297 6.633 7.194.735 7.331 1.13 14.688 1.838 22.019.259 2.725 1.267 5.395 1.444 8.121.259 3.883 1.103 6.458 5.898 6.512 1.974.014 2.887 1.554 1.757 4.647-.927 2.534-1.894 4.578-3.705 6.349-4.331 4.265-8.622 3.761-10.556-1.935-2.642-7.766-6.905-15.315-5.366-24.035.708-4.019-4.359-7.753-.545-11.922.055-.055-.681-1.213-1.062-1.226-1.09-.028-2.847-.109-3.187.49-6.184 10.832-17.529 19.525-14.465 34.254.613 2.957.531 6.282 1.907 8.816 2.193 4.02-1.117 5.082-2.806 7.14-1.444-1.404-3.105-2.644-4.29-4.238-2.738-3.679-3.623-7.957-3.569-12.521.123-9.579-.694-19.24 3.46-28.341.218-.491-.382-1.84-.913-2.071-.572-.259-1.825.081-2.247.599-1.771 2.126-3.078 4.715-5.053 6.595-4.113 3.91-8.608 7.398-12.803 11.227-2.479 2.276-4.74 3.938-2.206 8.611 2.192 4.061 1.784 9.416 5.175 13.626 2.751 3.42-.94 5.886-3.296 7.616-2.833 2.085-3.786-.79-4.835-2.779-.381-.722-.776-1.431-1.171-2.139-1.934-3.407-3.16-8.434-6.034-9.715-2.561-1.145-7.028 1.717-10.556 3.079-1.239.477-3.228 2.058-3.064 2.589 1.798 6.009-4.005 11.854-.259 17.917.654 1.05.054 2.862.191 4.306 0 .109 1.416.327 2.015.095 9.398-3.624 19.232-1.458 28.821-2.302 14.383-1.267 27.444 4.033 39.852 9.483 7.001 3.079 13.198 9.429 18.864 15.833 11.564 13.039 17.992 28.64 25.865 43.669 7.382 14.103 10.283 29.595 15.595 44.31 1.58 4.36 1.226 9.402 1.92 14.102 1.512 10.206 3.405 20.275-1.621 30.29-1.784 3.556-1.225 8.216-2.696 12.004-4.958 12.821-12.422 23.885-22.542 33.491-8.635 8.203-18.019 14.334-29.133 18.612-8.023 3.093-15.05 8.707-23.032 11.991-8.226 3.392-16.998 5.491-25.619 7.834-3.719 1.009-7.696 1.077-11.496 1.867-5.747 1.185-7.573 4.333-6.156 9.865.613 2.398.885 4.878 1.566 7.235.232.817 1.212 1.417 1.853 2.112.531-.804 1.539-1.649 1.498-2.425-.191-4.115.422-7.903 3.677-10.751 1.621-1.417 3.051-1.54 3.419 1.172.218 1.649-.055 3.829.885 4.837 5.394 5.777 1.24 11.636.191 17.263-.667 3.57-2.956 6.023-7.845 5.914-4.849-.109-6.061-3.652-6.783-6.227-1.934-6.881-2.997-14.048-3.855-21.16-.681-5.709-1.539-6.2-7.327-5.178-5.04.886-10.338 1.131-15.432.681-7.722-.681-15.377-2.248-23.059-3.365-7.967-1.158-14.791-4.865-21.874-8.53-7.463-3.869-15.159-7.208-22.146-12.004-6.156-4.237-12.817-7.684-16.548-14.756-1.785-3.379-5.026-4.006-8.894-2.78-7.233 2.303-14.56 4.374-21.956 6.091-1.348.313-3.582-1.158-4.726-2.412-3.146-3.474-2.07-7.126.054-10.832 1.934-3.379 4.372-1.485 6.933-1.431 5.107.096 10.269-.327 15.309-1.144 1.253-.205 2.983-1.812 1.648-4.728-5.421-11.909-7.151-24.553-6.415-37.634.395-6.99 1.702-13.611 4.317-20.124 1.512-3.761 1.935-7.944 3.228-11.8 3.705-11.05 8.036-21.882 10.202-33.437.776-4.128 3.391-7.889 5.08-11.868 3.378-7.93 5.843-16.405 10.215-23.735 8.091-13.557 20.444-22.605 34.568-29.554 13.334-6.567 26.6-13.135 40.847-17.631 2.506-.79 8.254-2.425 3.65-7.685 3.896-6.172 1.172-12.944 1.621-19.416.599-8.693-4.072-15.751-8.731-22.577-1.416-2.071-2.737-2.603-6.156-1.281-8.049 3.093-13.484 7.835-16.943 15.587-2.316 5.165-7.41 7.385-12.899 5.26-2.26-.872-3.01-.722-5.012.313-5.979 3.08-12.285 5.519-18.469 8.189-2.029.872-4.249 1.281-3.568 4.592.272 1.335-.872 3.066-1.635 4.483-2.206 4.046-6.224 4.251-8.716.504-.6-.913-1.213-1.826-1.744-2.78-3.623-6.445-3.568-6.308-10.732-4.292-5.816 1.635-11.414 4.578-17.788 3.556-2.084-.34-2.997.327-3.092 2.753-.109 2.698-.981 5.382-1.675 8.025-.409 1.553-1.158 3.011-1.717 4.537-1.402 3.87-3.854 6.418-8.253 5.628-4.413-.791-5.462-4.783-5.598-8.148-.368-8.789-.531-17.604 1.866-26.284 3.718-13.462 8.689-26.297 17.243-37.51 3.596-4.715 7.246-9.47 13.715-10.274 4.727-.586 6.47.872 7.273 5.6 1.417 8.257-4.426 17.659-12.435 19.893-.531.15-1.539-.082-1.77-.463-.409-.668-.749-1.785-.45-2.398.831-1.717 2.152-3.189 2.956-4.905.49-1.05.354-2.371.504-3.584-1.199.532-2.915.722-3.487 1.649-2.288 3.651-4.236 7.535-6.742 11.759m41.569 122.996c-9.752 10.001-15.759 22.4-21.779 34.731-1.28 2.63-1.852 5.9-1.757 8.843.477 14.92-1.825 29.976 1.689 44.76 1.88 7.916 2.887 15.887 8.213 22.959 2.56 3.406 4.481 4.632 7.954 4.196 9.67-1.199 19.3-2.684 28.956-3.937 2.37-.314 5.489.735 7.069-.436 3.324-2.467 5.407 1.335 7.709.79 9.916-2.385 19.913-3.229 30.06-3.475 3.187-.081 7.137-.613 9.248-2.548 1.485-1.362.477-5.463.518-8.352.04-3.502.054-7.003 0-10.505-.028-1.989-.218-3.979-.341-5.982-1.73.409-3.446 1.077-5.189 1.172-3.487.191-7.001.232-10.488 0-4.494-.272-12.489-8.107-11.89-11.827.517-3.175 1.825-6.227 2.738-9.347 2.737-9.347 10.937-12.522 18.727-15.288 4.005-1.417 4.917-3.147 4.713-6.622-.586-9.96-1.144-19.934-1.784-29.894-.055-.763-.545-1.512-.845-2.262-.286.75-.449 1.595-.899 2.249-5.244 7.753-10.596 15.424-15.772 23.217-6.02 9.061-12.925 17.482-16.439 28.205-1.145 3.488 2.342 7.044-2.438 10.887-6.484 5.218-8.717 14.102-10.965 22.332-.449 1.648-2.642 3.665-4.317 3.978-5.503 1.009-7.505-2.793-4.903-8.842 2.233-5.205 4.712-10.301 6.701-15.602.735-1.934.367-4.292.517-6.458-1.239 1.512-2.656 2.902-3.664 4.551-1.688 2.766-3.078 5.723-4.699 8.543-.817 1.431-1.593 3.052-2.833 4.019-1.212.941-3.418 1.99-4.412 1.472-1.444-.722-2.942-2.752-3.079-4.346-.435-4.824-1.103-9.947 4.264-13.081 1.116-.654 1.852-2.085 2.587-3.256 5.353-8.571 10.392-17.346 16.072-25.698 8.404-12.331 17.407-24.267 25.837-36.571 4.155-6.076 9.589-11.322 11.904-18.68 1.444-4.605 4.495-8.775 5.503-13.421.967-4.456.327-9.293.177-13.952-.15-4.619-2.125-6.568-6.374-5.492-6.007 1.527-12.245 2.984-17.652 5.846-9.466 5-18.7 10.341-26.94 17.563-8.282 7.249-17.38 13.394-21.616 25.507m141.759-22.755c-8.595-9.388-19.014-16.214-30.932-20.261-9.615-3.256-19.49-6.09-29.869-6.036-1.961 0-3.2.096-3.146 2.712.177 7.575 0 15.151.164 22.727.013.886 1.539 2.561 2.165 2.466 5.979-.831 6.824 3.829 8.186 7.603 3.173 8.829 8.472 16.024 15.077 22.673 5.925 5.954 11.142 12.712 16.086 19.525 3.977 5.491 6.878 11.745 10.637 17.413 11.754 17.672 26.764 32.511 41.923 47.172 5.162 5 4.903 7.289-.64 12.099-5.176 4.496-11.468 4.714-17.216 4.564-4.236-.122-8.172-.558-12.585.123-9.235 1.444-18.714 1.363-28.071 2.057-2.166.164-4.263 1.022-6.429 1.322-5.816.79-11.972 2.902-17.379 1.703-4.726-1.049-4.767.423-4.822 3.488-.109 7.862 0 15.738-.054 23.613-.027 3.202 1.43 4.892 4.576 4.824 2.52-.055 5.08-.286 7.559-.736 4.304-.79 8.595-1.69 12.844-2.752 6.579-1.649 13.075-3.679 19.695-5.178 13.116-2.984 24.543-9.906 36.161-16.051 9.534-5.041 13.906-15.397 14.792-25.425.858-9.878-.899-20.234-3.038-30.044-2.928-13.544-4.399-27.278-6.919-40.835-1.185-6.336-3.268-12.604-5.72-18.585-4.781-11.65-13.035-20.834-23.032-30.167m-22.745 77.038c-5.571-6.731-10.924-13.666-16.767-20.152-5.271-5.845-11.086-11.186-16.63-16.773-1.634-1.649-3.173-3.393-4.753-5.082-.409 2.384-.858 4.769-1.212 7.167-.123.858.108 1.771-.041 2.616-1.063 6.227 4.358 12.317.218 18.817-.709 1.117.803 5.354 2.043 5.736 7.545 2.33 5.924 9.933 8.934 14.77 2.779 4.469 1.294 11.663-3.091 13.298-5.026 1.881-4.781 5.055-4.549 8.693.394 5.9 1.579 11.773 1.566 17.659 0 6.05-.477 5.954 5.325 5 3.147-.517 6.742.164 9.453-1.131 6.905-3.31 14.314-.763 21.479-2.997 8.39-2.63 17.597-2.657 26.436-3.856 1.308-.177 2.588-.6 3.882-.913-.831-1.403-1.308-3.393-2.533-4.142-10.229-6.213-15.691-16.064-20.962-26.229-2.138-4.129-5.271-7.739-8.826-12.467m77.88-27.142a2922.269 2922.269 0 0 1-3.5-9.906c-7.382-21.01-19.164-39.391-36.829-52.717-15.745-11.881-32.348-23.408-52.601-26.651-7.6-1.213-15.499-.777-23.263-.708-.953 0-1.88 2.466-2.819 3.787 1.198.436 2.383 1.213 3.595 1.24 9.208.191 17.965 2.712 26.764 5.028 12.639 3.311 23.685 10.178 33.424 18.176 13.252 10.874 24.421 24.09 31.626 40.032 1.212 2.684.844 6.063 2.015 8.775 3.8 8.747 4.427 18.094 5.816 27.305.79 5.232 1.035 10.573 2.166 15.724 2.778 12.712 5.802 28.64 3.173 43.574-.231 1.281.395 2.711.627 4.074.94-.94 2.274-1.717 2.751-2.848 7.45-17.345 14.969-34.908 11.959-54.27-.967-6.213.79-13.693-4.904-20.602m-164.517 94.547c-2.792.286-5.584.859-8.377.818-7.041-.082-13.77 1.526-20.389 3.597-1.525.477-2.847 1.553-4.263 2.357.885 1.036 1.607 2.289 2.683 3.052 12.817 9.197 26.954 15.574 42.686 17.114 9.82.954 19.803.136 29.705.204 3.528.027 5.271-1.444 5.23-5.096-.081-7.576-.122-15.165.014-22.741.068-4.114-1.812-5.79-5.748-5.45-6.469.572-13.075.518-19.34 1.921-7.069 1.581-14.016 3.434-22.201 4.211m115.512-182.09c-8.703-5.819-18.959-7.781-28.67-10.846-6.293-1.99-13.321-1.717-20.035-2.167-1.09-.068-2.275 1.39-3.419 2.139 1.035.423 2.029 1.022 3.105 1.213 3.814.668 7.641 1.39 11.496 1.744 10.61 1.008 19.626 6.104 28.507 11.268 11.372 6.636 22.391 13.857 31.19 23.94.436.504 1.988.041 3.01.027-.109-.817.081-1.934-.382-2.425-7.64-8.052-15.349-16.037-23.072-24.008-.136-.15-.559-.013-1.73-.899m-146.144 42.893c10.706-10.301 21.711-19.88 35.154-26.979 9.534-5.027 18.973-9.224 29.378-11.568 1.567-.354 3.106-.994 4.509-1.771.776-.422 1.239-1.417 1.838-2.153-.912-.436-1.947-1.39-2.696-1.212-6.606 1.607-13.498 2.643-19.641 5.341-11.155 4.891-22.773 9.347-32.102 17.454-7.382 6.404-14.084 13.612-20.703 20.82-2.152 2.343-3.064 5.818-4.535 8.774 2.642-2.602 5.284-5.205 8.812-8.693m90.138-112.927c.504-1.853-2.111-3.298-.259-5.736.749-.982-.667-4.688-4.413-2.249-4.277 2.794-9.112 4.701-13.593 7.195-.572.327-.912 2.043-.613 2.82 1.485 3.761 3.024 7.521 4.958 11.05.817 1.485 3.609 3.597 3.923 3.366 2.942-2.262 5.924-4.687 8.104-7.658 1.334-1.826 1.307-4.66 1.893-8.788m8.744-5.246c0 .872.122 1.771-.027 2.616-.218 1.145-.654 2.235-.995 3.352 1.376-.109 3.324.341 4.018-.395 3.283-3.488 6.429-7.126 9.153-11.064 1.022-1.485 1.171-3.924.953-5.832-.504-4.401-4.426-4.319-6.946-3.324-2.438.967-4.699 3.556-5.952 5.995-.953 1.839-.19 4.564-.19 8.652m-101.511 12.249c-3.133 2.794-1.676 6.145-1.117 9.388 1.539-2.084 3.105-4.142 4.617-6.24.94-1.322 1.798-2.712 2.683-4.074 2.234-3.393 4.549-6.745 6.62-10.233.558-.94.367-2.343.517-3.529-1.185.477-2.724.627-3.5 1.485-3.392 3.706-6.565 7.617-9.82 13.203m-49.006 31.516c-.735-.286-1.838-1.049-2.152-.804-2.206 1.717-4.29 9.197-2.969 11.2.354.532 2.547.532 3.351 0 3.241-2.207 1.253-5.723 1.77-10.396Zm101.511-38.519c1.621-1.622 3.392-3.12 4.74-4.933.341-.463-.613-2.738-1.117-2.779-1.157-.123-3.486.722-3.459.981.286 2.82-4.713 4.306-1.88 7.589.123.136.545.014 1.716-.858m22.746 131.308.531 4.033c.586-.94 1.171-1.88 1.771-2.82.98-1.581 2.097-3.093 2.887-4.756.259-.558-.231-2.125-.517-2.166-.94-.109-2.248-.068-2.82.518-.871.885-1.253 2.275-1.838 5.191m1.743 68.277c-.164-.736-.313-1.485-.477-2.221l-2.628 2.63c.735.163 1.484.313 3.105-.395v-.014ZM317.574 490.385c9.466-4.66 18.019-9.837 27.908-12.317 8.594-2.167 17.025-4.619 26-4.851 4.127-.109 8.173.532 12.558-1.267 3.337-1.362 8.131 1.39 12.231 1.254 15.554-.518 30.101 3.719 44.701 8.325 14.697 4.632 29.638 8.625 43.081 16.35 22.528 12.931 39.716 30.099 47.766 55.973 5.393 17.318 5.979 34.773 4.603 52.131-1.512 19.062-6.088 38.015-12.285 56.069-5.04 14.675-8.989 29.949-18.197 43.302-4.113 5.968-7.341 13.284-12.435 18.19-9.071 8.747-17.597 18.448-29.092 24.416-7.451 3.856-14.656 8.23-22.297 11.65-10.569 4.714-21.124 10.328-32.279 12.644-11.155 2.303-22.855 4.143-34.677.695-7.927-2.316-16.685-1.744-24.68-3.91-11.482-3.107-22.691-7.481-32.348-14.702-7.218-5.396-14.274-11.132-20.757-17.372-4.154-4.006-7.314-9.102-10.596-13.926-4.999-7.357-11.645-13.148-17.761-19.443-1.416-1.458-3.963-2.766-4.14-4.36-.777-7.031-5.775-5.273-9.929-5.287-12.831-.041-25.661-.014-38.491-.014-1.743 0-3.582.314-5.216-.109-1.24-.313-2.82-1.362-3.188-2.452-.313-.913.613-2.616 1.471-3.502 3.283-3.406 7.641-4.537 12.122-4.374 9.78.341 19.532 1.295 29.325 1.622 8.24.272 8.226.054 4.481-7.385-5.666-11.282-9.194-23.204-11.006-35.712-.667-4.565-4.154-9.824-2.764-13.353 2.478-6.282-4.005-12.372.953-18.136.872-1.008.136-3.392.123-5.15-.137-14.375 4.916-27.51 10.664-40.195 6.47-14.28 15.01-27.374 27.091-37.811 3.405-2.929 6.837-5.736 6.333-11.513-.232-2.616 2.506-6.363 4.958-8.175 8.145-6.023 15.636-13.135 25.783-17.291m86.201 118.623c.545.041 1.076.082 1.621.122-.545-.34-1.076-.667-1.621-1.88.831-5.082-3.895-7.657-5.516-11.718-2.601-6.499-6.919-12.303-10.623-18.34-.286-.463-1.512-.354-2.302-.504.081.614 0 1.336.286 1.84 3.677 6.649 7.259 13.353 11.168 19.879 2.043 3.42 4.658 6.5 7.001 10.601m106.755-64.775c-.831-1.99-1.608-4.006-2.479-5.982-6.184-14.007-14.737-26.283-27.785-34.636-7.723-4.946-15.486-9.633-24.993-11.581-8.336-1.717-16.699-3.298-25.075-4.851-4.604-.858-9.343 1.676-13.307-.164-5.693-2.616-11.359-1.444-16.902-1.226-6.252.232-12.449 3.025-18.674 3.066-9.098.054-17.91.954-26.532 3.72-11.563 3.719-23.848 5.341-34.309 12.222-4.086 2.684-8.362 5.109-12.612 7.548-16.235 9.361-29.692 22.087-40.247 37.211-9.93 14.239-15.527 30.903-19.45 47.839-1.512 6.54-2.697 13.734-1.512 20.166 1.212 6.567 1.008 12.985 1.362 19.47.068 1.158-.34 2.48.082 3.475 5.067 12.208 6.374 25.793 13.852 37.156 2.519 3.829 2.737 10.465 9.997 6.036 12.53 5.151 24.993-.585 37.442-.872 11.345-.258 22.84-3.624 34.418-2.793 10.923.777 21.765-2.943 32.688-.177 1.648.422 3.963.763 5.148-.068 5.544-3.842 12.504.599 17.884-3.379 11.359 1.839 22.405-2.126 33.682-1.772 2.343.069 1.812-.572.817-2.275-3.296-5.586-6.02-11.513-9.261-17.141-6.116-10.614-12.313-21.174-18.687-31.638-5.83-9.579-13.062-18.476-17.597-28.6-4.89-10.927-12.054-20.56-16.481-31.665-.613-1.526-1.757-3.025-4.358-.709-7.028 6.309-12.367 13.789-17.843 21.379-11.713 16.241-20.975 33.927-31.231 51.013-4.835 8.053-7.886 17.182-12.843 25.262-.913 1.498-2.275 3.106-3.814 3.774-3.459 1.499-7.232 2.234-10.705 3.692-1.499.627-2.629 2.235-3.814-.122-.79-1.567-2.275-3.407-1.961-4.796.694-3.107 2.002-6.186 3.595-8.966 4.863-8.516 9.684-17.073 15.078-25.248 6.837-10.369 13.743-20.751 21.465-30.453 12.204-15.328 23.4-31.175 31.517-49.106 1.607-3.542 4.454-6.172-.041-9.919-1.702-1.417-2.206-5.096-2.084-7.671.123-2.494 1.281-6.499 2.861-7.004 2.656-.831 3.473 2.112 4.14 4.946.994 4.238 2.452 4.143 5.367.573 1.471-1.799 3.037-3.761 4.998-4.824 1.362-.749 3.773-.667 5.189.068 1.253.655 2.793 3.107 2.425 4.102-2.057 5.532.953 9.551 3.446 13.761 4.426 7.508 9.302 14.784 13.266 22.51 3.309 6.444 5.802 13.339 8.322 20.165 4.263 11.514 11.454 21.474 16.998 32.306 8.907 17.386 21.247 32.728 32.552 48.656 1.157 1.649 2.928 4.211 4.276 4.143 6.538-.368 7.314 5.504 10.215 8.856 2.52 2.916 1.526 8.353-1.307 8.748-6.974.981-14.465 3.038-20.975 1.458-6.987-1.676-13.893-1.881-20.335-.886-8.267 1.267-16.589 2.057-24.87 2.984-10.188 1.144-20.553.804-30.727 2.085-5.68.708-11.509.695-16.998 1.894-7.096 1.553-14.083 3.106-21.384 3.242-2.71.055-5.38 1.145-8.104 1.445-6.715.749-13.525 2.112-20.158 1.553-2.356-.191-4.331.913-6.456.409-1.866-.45-3.01 2.016-5.747.34-2.547-1.553-6.797-.395-10.297-.313-2.561.068-2.956 1.472-1.444 3.27 3.637 4.36 7.164 8.857 11.169 12.849 4.426 4.401 9.806 7.903 13.96 12.522 10.066 11.186 23.386 17.549 35.917 25.057 4.086 2.452 8.962 3.788 13.647 5 9.561 2.48 18.673 7.126 28.984 6.077 6.17-.626 12.367-1.008 18.509-1.812 5.19-.668 10.447-1.362 15.459-2.793 12.163-3.475 23.536-8.816 33.029-17.304 6.905-6.186 12.762-13.571 19.872-19.471 7.164-5.941 10.569-14.266 15.84-21.392 10.174-13.748 15.105-29.949 20.158-45.863 3.146-9.92 3.732-20.643 5.516-30.998 1.117-6.527 2.561-12.999 3.432-19.566.886-6.718 2.52-13.721 1.444-20.207-.994-5.968-.872-11.827-1.43-17.713-.79-8.311-.858-16.813-5.189-26.133m-34.132 189.965c4.944-4.946 10.269-9.592 14.737-14.933 4.017-4.824 7.123-10.424 10.623-15.669-3.378-8.843 5.462-11.091 8.744-16.351.259-.422-.109-1.185.055-1.717 4.277-13.393 10.487-26.106 12.857-40.195 2.098-12.385 6.892-24.471 7.709-36.87.886-13.625 1.035-27.428-.953-41.299-1.921-13.312-7.941-24.226-14.533-35.181-2.152-3.583-5.257-6.594-7.981-9.823-.45-.532-1.212-.804-1.825-1.2.054.995-.191 2.14.204 2.971 2.588 5.355 5.571 10.519 7.941 15.955 3.214 7.344 4.385 15.138 5.734 23.095 2.261 13.299 1.321 26.461 1.021 39.582-.245 10.682-3.514 21.256-4.862 31.965-1.567 12.577-4.481 24.826-8.213 36.871-7.723 24.839-21.425 46.176-38.872 65.252-1.743 1.907-3.187 4.101-4.781 6.172 2.397-1.131 4.944-2.03 7.164-3.461 1.676-1.076 2.929-2.82 5.244-5.136M311.894 503.071c10.883-3.938 20.322-11.173 32.158-13.094 7.995-1.295 15.635-4.756 23.617-5.982 8.948-1.376 18.115-1.294 27.186-1.948 5.924-.436 11.835-.736 17.76 0 1.716.204 3.487.081 5.23 0 .504-.028.981-.409 1.471-.641-.476-.613-.858-1.362-1.457-1.812-.627-.477-1.43-.94-2.193-.981-10.814-.64-21.629-1.431-32.443-1.676-4.399-.095-8.839 1.621-13.239 1.526-10.487-.245-19.94 3.856-29.542 6.84-8.403 2.63-16.385 6.813-24.285 10.846-9.506 4.85-17.924 11.35-25.197 19.198-.585.627-.436 1.935-.626 2.93.817-.464 1.702-.845 2.465-1.39 6.088-4.306 12.149-8.625 19.082-13.816m139.143 174.214c.558-1.199 1.131-2.384 1.594-3.611.027-.068-1.172-.831-1.308-.708-1.321 1.213-2.547 2.534-3.786 3.829.871.449 1.743.913 3.5.49m-45.505-63.031c1.158 0 2.302.027 3.46.041-1.158-.6-2.302-1.199-3.46-.041Z"/><path fill="#3C4043" d="M696.486 291.659c1.308-2.998 2.86-5.532 2.901-8.107.055-3.434 2.193-3.284 3.909-2.712 1.948.654 4.549 1.717 2.629 4.946-.668 1.117-.967 2.575-1.063 3.911-.068 1.035.45 2.112.709 3.174.994-.354 2.233-.436 2.942-1.09 2.587-2.357 5.216-4.714 7.423-7.412 4.807-5.872 4.181-13.462-2.479-16.5-7.028-3.216-14.805-4.974-22.964-3.611-5.067.845-10.365 1.063-15.472.545-4.822-.49-7.546-10.192-3.937-14.116a145.579 145.579 0 0 1 14.438-13.666c6.02-4.96 11.236-10.969 18.537-14.293 2.887-1.322 2.152-4.279 2.547-6.799 1.008-6.227 2.356-12.413 3.704-18.585.164-.723 1.09-1.404 1.826-1.826.667-.382 1.552-.354 2.342-.518-.082.613-.177 1.24-.245 1.853-.817 6.377-1.539 12.753-2.506 19.103-.3 1.935-3.46 5.423 2.084 2.452 2.097-1.117 4.671-1.566 7.069-1.812.953-.095 2.043 1.227 3.078 1.894-.695.9-1.212 2.289-2.125 2.616-11.046 4.129-11.468 4.919-8.499 16.542.204.817.095 1.703.191 2.548.844 7.044 2.833 8.665 9.166 7.207 4.508-1.035 8.921-2.425 13.43-3.447 4.93-1.117 6.81-3.106 7.177-7.685.477-5.886.886-11.813 1.894-17.631.286-1.676 2.288-3.57 3.977-4.36 2.914-1.376 3.091 1.908 3.486 3.311.736 2.602.94 5.464.79 8.202-.218 4.183-1.021 8.339-1.321 12.522-.054.654 1.362 2.126 1.771 2.003 6.251-1.73 12.503-3.57 18.659-5.627 1.757-.586 3.269-1.976 4.863-3.025 4.481-2.97 5.843-2.521 7.886 2.575.504 1.254.94 2.684 1.839 3.584 5.897 5.913 7.273 10.832 3.268 17.944-3.895 6.936-8.744 13.326-13.279 19.88-.981 1.417-2.752 2.33-3.569 3.801-.599 1.077-.258 2.685-.34 4.061 1.117-.355 2.302-.6 3.35-1.09 3.678-1.703 7.464-3.23 10.91-5.314 2.588-1.581 4.835-3.488 4.931-7.344.163-5.927 1.634-7.849 7.6-7.971 6.633-.15 13.429.695 19.926 2.166 4.277.968 6.81 1.921 9.316-3.161 2.942-5.968 7.096-6.336 12.299-1.58 7.055 6.458 13.62 13.448 20.376 20.247 2.833 2.848 6.074 7.181 9.97 4.224 2.765-2.098 3.105-6.363 1.294-11.227-3.61-9.702 1.13-16.664 11.304-20.084 3.732-1.254 4.795-.464 4.018 3.161-.218 1.022-.626 2.411-1.403 2.861-8.322 4.796-5.938 11.977-4.494 19.035.408 2.016.79 4.128.599 6.145-.232 2.412-.708 4.96-1.743 7.126-2.888 6.05-3.324 5.627-10.052 4.169-6.047-1.308-10.665-4.673-14.778-8.625-5.543-5.341-10.378-11.404-15.595-17.086-.463-.504-1.525-.627-2.302-.627-.313 0-.831.777-.912 1.254-.64 3.543-1.199 7.099-1.785 10.641-.898 5.546-3.65 9.674-8.975 11.882-2.983 1.24-5.939 2.575-8.962 3.692-6.211 2.276-12.912-1.185-16.167-8.257-2.888-6.267-4.005-6.581-10.787-3.556-5.912 2.63-11.877 5.123-17.843 7.603-2.383.995-6.251 1.213-6.919 2.82-.858 2.072.613 5.274 1.444 7.862 1.471 4.633 3.296 9.143 4.808 13.748 1.13 3.461-1.635 7.617-5.298 7.658-1.008 0-2.929-1.962-2.888-2.984.15-4.347-2.193-3.829-4.944-3.039-5.652 1.622-8.622.614-10.883-4.605-2.138-4.946-5.025-10.192-5.012-15.288.028-8.856-3.95-17.29-.776-26.706 1.893-5.627-.667-12.78-1.417-19.239-.04-.395-2.015-1.131-2.683-.817-6.946 3.215-14.641 3.052-21.846 5.041-1.24.341-2.221 1.649-3.324 2.521.804.831 1.458 1.948 2.425 2.425 8.09 4.074 12.408 10.138 11.672 19.621-.245 3.107-1.035 5.259-3.228 7.494-4.753 4.878-9.725 9.197-16.208 11.663-8.54 3.257-11.291 3.584-11.768-8.352m64.315-43.329c-.75-.872-1.539-2.534-2.234-2.507-5.979.313-8.199 2.834-8.254 8.993-.054 6.39 1.607 13.353-.395 19.034-2.983 8.462.776 16.01.695 23.954-.041 4.197 3.119 8.448 4.985 12.603.34.777 1.403 1.227 2.138 1.826.436-.613 1.28-1.24 1.24-1.812-.3-4.197-.695-8.38-1.199-12.563-.695-5.79-1.852-11.554-2.111-17.372-.15-3.502 1.117-7.044 1.593-10.601.94-6.894 1.771-13.788 3.514-21.569m-64.75-12.249c-3.459 2.875-7.137 5.518-10.31 8.693-3.16 3.161-5.884 6.799-8.594 10.369-.368.491.422 2.698.653 2.698 3.106-.041 6.279 0 9.276-.654 2.397-.518 3.5-2.058 4.004-5.137.804-4.919 3.65-5.641 8.526-3.651.994.408 1.948.967 2.983 1.199 1.757.395 4.413 1.43 5.148.681 1.362-1.404 2.234-3.897 2.18-5.914-.096-3.542-.886-7.112-1.676-10.6-.408-1.799-1.43-3.461-2.179-5.191-1.226.981-2.424 2.002-3.705 2.915-1.784 1.281-3.623 2.48-6.306 4.579m74.38 21.882c-1.43 3.761-3.092 7.453-4.168 11.309-.49 1.771.15 3.87.286 5.818 1.022-1.349 2.016-2.725 3.078-4.047 2.438-3.052 5.053-5.981 7.328-9.156 2.37-3.311 4.59-6.772 6.497-10.355.504-.94.027-3.216-.79-3.802-.831-.599-3.16-.422-3.882.341-2.697 2.807-5.012 5.995-8.349 9.906m39.376 18.38c0 .872.177 1.785-.028 2.589-1.089 4.156 1.471 7.399 4.386 8.203 1.553.436 5.353-1.962 6.783-5.791 1.539-4.142 1.321-5.9-2.683-7.712-4.999-2.262-5.707-2.426-8.458 2.711ZM398.518 826.974c-5.012.586-9.125 1.417-13.266 1.676-3.146.191-5.053.817-6.156 4.333-1.021 3.283-3.255 6.308-5.448 9.047-.899 1.117-3.323 1.908-4.658 1.499-.994-.3-1.852-2.753-1.839-4.224.027-1.812 1.321-3.57 1.512-5.409.109-1.077-.872-2.276-1.362-3.407-.681.654-1.73 1.213-1.961 1.99-.763 2.616-1.308 5.314-1.798 8.011-.654 3.543-.872 7.181-1.852 10.628-1.145 4.033-5.517 5.668-8.527 2.957-3.337-2.998-6.456-6.499-8.785-10.315-4.767-7.793-9.956-10.137-19-7.466-2.492.736-4.903 1.73-7.355 2.602 2.152 1.976 4.318 3.924 6.443 5.927 1.484 1.404 3.378 2.644 4.195 4.388.79 1.689 1.185 4.264.449 5.831-1.103 2.317-3.609 2.657-5.788.845-2.983-2.466-6.089-4.837-8.717-7.644-1.607-1.73-2.111-4.469-3.678-6.254-1.157-1.322-3.173-2.003-4.917-2.725-6.197-2.562-12.435-.041-18.646.177-1.457.055-3.731 2.453-4.058 4.074-1.253 6.391-5.911 10.955-8.363 16.691-1.512 3.557-4.794 3.625-7.682.736-.844-.845-1.362-3.147-.817-4.06 2.397-4.02 4.862-8.121 8.036-11.5 2.669-2.834-.422-4.156-1.171-4.197a56.77 56.77 0 0 0-11.074.532c-4.889.708-9.697 2.016-14.587 2.697-2.302.327-5.298 1.268-4.998-3.42.34-5.3.858-6.662 5.134-6.989 8.213-.627 16.413-1.458 24.639-1.663 4.59-.109 7.137-1.703 8.949-6.022 3.8-9.047 9.207-17.427 8.894-27.919-.069-2.098 2.642-4.905 4.78-6.172 1.035-.613 3.964 1.308 5.612 2.63 2.451 1.962 4.413 4.51 6.783 6.595 3.514 3.12 2.247 7.33 1.593 10.573-1.158 5.682 1.294 10.26 3.133 14.906 1.008 2.562 3.568 4.892 7.709 2.848 2.601-1.281 6.17-1.363 9.139-.927 5.08.75 5.421-2.057 4.685-5.504-.667-3.148-1.907-6.2-3.132-9.184-2.724-6.636-5.53-13.135-11.006-18.244-3.323-3.093-.939-8.993 3.746-10.015.885-.191 2.261.572 3.037 1.294 6.089 5.641 8.322 13.394 10.856 20.847a188.496 188.496 0 0 0 14.559 32.456c.477.831 1.608 1.308 2.425 1.948.204-.79.463-1.58.586-2.384 1.77-11.514 3.282-23.082 5.393-34.541.667-3.61 2.602-7.153 4.713-10.205.722-1.035 4.045-1.117 5.706-.463 2.234.885 1.839 2.561.355 4.769-3.746 5.586-1.839 12.154-2.03 18.326-.013.64 1.934 2.057 2.697 1.894 2.792-.627 4.958-1.88 6.687-4.796 6.661-11.2 12.504-23.055 22.719-31.734.885-.749 1.525-2.071 2.506-2.371 2.07-.64 4.29-.79 6.456-1.144.109 2.166 1.185 5.477.191 6.308-7.6 6.363-4.25 11.745-.164 18.531 9.221 15.315 4.917 12.331 22.215 10.532 3.228-.34 6.537-.681 9.724-.299 1.934.231 3.719 1.853 5.571 2.847-1.798 1.336-3.419 3.339-5.434 3.884-4.005 1.062-8.241 1.239-12.354 1.934-1.307.218-2.86.613-3.677 1.499-.681.736-.709 2.344-.532 3.502.109.695 1.076 1.349 1.771 1.853 2.997 2.18 3.541 5.191 2.261 8.311-.654 1.595-9.234.259-9.806-2.057-2.915-11.922-12.122-9.579-21.248-9.633m-8.744-13.135c-.545 1.785-1.13 3.57-1.553 5.382-.013.082 1.839.954 2.139.681 3.527-3.106 7.736-1.103 11.577-1.676 1.661-.245 3.337-.381 5.012-.572-.817-1.608-1.539-3.284-2.479-4.823-1.13-1.881-2.329-3.747-3.705-5.451-3.554-4.414-4.086-4.278-7.531.9-.94 1.417-2.302 2.548-3.474 5.573m-89.252 7.003c-5.802-2.589-3.487 5.3-7.26 5.736-.654.082-1.008 2.875-1.498 4.415.531.163 1.09.545 1.593.477 1.907-.259 3.841-1.104 5.666-.899 3.937.436 3.446-2.126 3.174-4.333-.163-1.267-1.09-2.426-1.675-5.396ZM659.303 825.23c5.339 1.171 9.752 2.806 14.288 3.365 4.276.518 4.426 1.472 3.514 5.641-1.063 4.878-4.195 5.205-6.947 4.237-7.967-2.806-15.785-5.6-24.312-6.785-10.256-1.417-20.307-4.238-30.454-6.458-8.009-1.745-15.99-3.625-24.04-5.205-4.358-.859-8.826-1.186-13.239-1.813-2.369-.327-2.955.75-2.86 2.943.15 3.775-.041 7.576.068 11.35.082 2.671-.967 4.524-3.595 4.919-2.588.382-5.503.382-6.742-2.48-1.499-3.447-2.929-7.044-3.623-10.709-3.051-16.473-2.493-32.497 6.892-47.199.422-.654.231-2.084.694-2.261 9.275-3.666 15.609-13.53 27.118-12.645 6.115.463 10.106 4.033 10.746 10.396.872 8.612-4.277 13.53-10.692 17.686-4.576 2.971-9.248 5.818-13.824 8.789-1.403.912-2.888 1.839-3.923 3.106-2.056 2.521-3.146 4.851 1.567 5.982 5.788 1.39 11.386 3.57 17.188 4.823 10.692 2.289 21.575 3.093 32.13 6.758 7.982 2.78 16.984 2.603 25.511 3.87 1.266.191 2.438 1.117 4.521 1.69m-84.008-39.392c0 .586.149 1.213-.028 1.744-.844 2.63-1.77 5.219-2.656 7.835 2.03-1.403 4.032-2.834 6.075-4.183.667-.436 1.539-.572 2.179-1.022 4.944-3.542 9.834-7.167 14.792-10.696 2.138-1.526 2.819-3.502 2.315-5.981-2.629.667-3.419-3.27-7.341-1.758-6.919 2.657-10.855 7.494-15.35 14.089l.014-.028ZM916.138 296.919c-1.226-.641-2.302-.586-2.765-1.09-4.781-5.273-10.351-9.375-16.453-13.067-9.807-5.913-9.412-14.13.776-19.444 4.331-2.261 5.639-4.986 7.11-9.837 3.105-10.233 6.415-20.997 14.573-28.886 3.092-2.998 5.217-2.371 6.484 1.594.286.899-.096 2.207-.572 3.134-2.452 4.823-5.04 9.579-7.573 14.361-1.253 2.398-2.765 4.701-3.623 7.235-.668 2.003-.518 4.292-.722 6.459 1.444-1.063 2.738-2.494 4.358-3.12 4.781-1.854 9.589-3.747 14.533-5.001 12.994-3.27 26.26-4.469 39.635-3.515 7.654.545 12.68 5.532 11.141 10.723-.45 1.54-1.062 3.188-2.084 4.346-1.144 1.281-2.247 3.952-4.767 1.622-1.539-1.431-3.146-2.78-.722-4.946.341-.3-.545-2.889-.926-2.902-6.497-.259-13.212-1.676-19.354-1.363-9.875.504-19.572 4.374-29.338 6.84-1.58.395-3.364.572-4.617 1.458-3.405 2.398-9.289 1.662-9.916 7.657-.681 6.568.177 13.04 6.197 16.514 4.005 2.317 4.699 5.192 4.155 8.707-.341 2.221-1.444 5.396-5.544 2.507m-15.309-25.82c0 1.39-.136 2.807.068 4.156.068.477 1.267 1.294 1.485 1.171 2.847-1.635 2.588-3.719-1.553-5.327ZM512.723 816.906c-4.168 9.129-8.798 17.468-9.806 27.155-.15 1.404-2.18 2.617-3.324 3.911-.858-1.308-2.206-2.507-2.506-3.924-1.144-5.287-1.28-10.574 2.057-15.302 2.452-3.488 3.473-6.771-.858-9.687-2.711-1.84-2.016-3.665.204-5.45 1.131-.913 1.989-2.807 3.119-2.943 9.984-1.186 11.237-10.615 15.813-16.732 3.024-4.047 4.645-9.116 7.205-13.544.967-1.662 2.697-3.734 4.331-3.992 2.997-.477 3.705 1.975 4.522 4.768 1.362 4.66 2.983 8.898-.081 13.517-.668 1.008-.123 2.848-.096 4.306.082 3.338 2.425 5.082 4.617 2.997 3.8-3.624 9.044-3.747 13.103-6.499 1.471-.995 3.473-2.289 4.358.368.382 1.117-.395 3.161-1.334 4.087-1.744 1.704-3.923 2.998-6.048 4.251-2.084 1.227-4.494 1.935-6.469 3.284-3.269 2.262-8.104 3.42-6.524 9.374 1.525 5.737 2.983 11.323 9.37 13.612.518.191 1.431-.231 1.689.068 1.785 1.908 5.653 2.766 4.345 6.377-1.376 3.802-6.415 5.001-10.106 3.257-6.796-3.216-9.452-9.511-12.217-15.779-.109-.245.054-.599-.028-.858-3.895-12.099-5.461-9.483-15.309-6.595m10.066-20.574c-1.172 2.957-2.425 5.886-3.419 8.897-.163.504.913 2.044 1.171 1.976 2.588-.572 5.966-8.911 4.781-11.732-.082-.204-1.076-.027-2.533.845v.014Z"/><path fill="#3C4043" d="M440.523 788.456c-5.83 0-10.787.204-15.731-.109-1.744-.109-3.405-1.526-5.108-2.344 1.594-2.098 2.888-4.578 4.89-6.145 1.089-.845 3.378-.15 5.121-.15 11.945 0 23.89.055 35.834-.027 5.762-.041 6.007-.586 6.565-6.377.286-2.956 1.158-5.899 2.071-8.747.286-.899 1.566-1.485 2.383-2.207.831 1.117 2.166 2.139 2.37 3.365.381 2.262.082 4.646.123 6.976.109 6.554 2.737 8.489 9.37 7.031 2.956-.654 5.911-1.24 8.894-1.744 2.792-.463 5.762.136 6.061 3.161.313 3.202-2.506 3.72-5.393 3.897-5.026.313-10.052.845-14.983 1.826-1.498.299-3.5 2.166-3.786 3.61-.776 3.911-1.253 8.026-.94 11.991.64 7.889 1.117 15.519-.463 23.545-1.198 6.09.518 12.835 1.389 19.225.191 1.39 2.588 2.344 3.392 3.815.858 1.567 1.021 3.516 1.484 5.3-2.369-.177-5.461.491-6.919-.749-2.124-1.812-3.554-4.864-4.385-7.657-1.24-4.211-2.261-8.625-2.357-12.985-.299-12.522-.068-25.058-.136-37.593 0-2.235.368-5.287-.858-6.499-1.512-1.486-5.039-2.616-6.81-1.853-7.014 3.065-14.178.531-22.051 1.458l-.027-.014ZM988.325 345.492c-9.507 4.674-18.905 6.323-28.412 5.042-6.388-.858-12.544-3.938-17.461-8.257-4.549-3.992-4.195-10.246-2.847-15.179 3.555-12.998 12.504-21.896 24.285-28.15 2.465-1.308 4.236-1.049 6.007.94 2.655 2.957-.545 4.033-1.894 5.423-4.808 5.028-10.011 9.661-14.587 14.893-1.852 2.125-2.86 5.259-3.514 8.107-1.144 5.041.381 7.48 5.407 10.178 5.353 2.875 12.694 4.469 18.101 3.434 8.05-1.554 15.977-4.224 24.094-4.933 6.876-.599 12.336-4.224 18.536-6.158 1.77-.559 3.28-2.63 4.95-2.657 2.32-.041 4.68 1.185 7.02 1.866-1.43 1.24-2.69 2.793-4.33 3.666-10.87 5.722-22.03 10.641-35.342 11.799l-.013-.014ZM561.728 433.472c2.384-4.251 4.182-8.284 9.63-7.426 3.337.518 4.304 2.521 2.479 5.75-1.621 2.861-3.732 5.45-5.544 8.216-7.15 10.941-11.495 23.218-16.63 35.113-.64 1.485-.899 3.27-.831 4.878.246 5.136-3.895 6.336-7.205 8.202-.49.273-1.907-.3-2.383-.885-4.413-5.437-9.221-10.642-12.898-16.542-4.291-6.853-7.587-14.334-11.223-21.582-.532-1.063-.532-2.385-.777-3.584 1.376 0 3.242-.586 4.032.082 3.296 2.861 6.66 5.804 9.275 9.252 3.283 4.332 5.911 9.183 8.731 13.857 1.144 1.907 2.083 3.937 3.119 5.913 1.348-2.071 2.996-4.006 3.99-6.227 3.637-8.121 6.974-16.364 10.597-24.498 1.539-3.461 3.459-6.731 5.652-10.533l-.014.014ZM933.64 355.562c-2.86 2.63-4.645 5.682-8.99 4.251-6.115-2.03-7.45-7.63-7.777-12.276-.544-7.807 0-15.942 1.676-23.599 1.716-7.794 5.162-15.234 8.253-22.673.79-1.908 3.446-4.714 4.631-4.428 2.82.654 2.983 3.842 2.574 6.472-.245 1.553-1.157 2.997-1.661 4.523-2.711 8.366-5.884 16.583-5.394 25.698.191 3.543-1.13 7.153-1.157 10.737-.014 1.567 1.103 3.747 2.383 4.551 1.253.79 3.419.408 5.108.122 4.78-.776 3.282 2.003 2.465 4.265-.273.749-1.117 1.281-2.138 2.344l.027.013ZM350.834 652.338c-10.787-4.783-11.441-6.704-8.444-17.25 1.348-4.769 1.253-9.947 1.893-14.92.531-4.129.749-8.352 1.839-12.317 1.525-5.546 7.082-7.058 11.318-2.984 2.493 2.398 4.971 2.97 8.254 3.447 10.433 1.526 20.539 4.414 27.622 13.08 3.5 4.279 4.358 8.584 1.961 14.484-5.04 12.372-13.893 17.304-26.628 17.972-5.924.313-11.699 1.553-17.801-1.485m32.811-26.706c-2.016-1.431-4.059-2.807-6.02-4.292-2.288-1.717-3.541-1.662-3.623 1.635-.15 5.886-1.948 11.595-.164 17.699 1.376 4.756.64 5.028 5.244 2.439 1.43-.803 2.561-2.166 4.032-2.847 2.533-1.199 4.944-1.853 5.08-5.655.123-3.597-.994-6.05-4.536-8.979h-.013ZM324.575 556.904c-.491-.081-.559-.613-.613-1.144.354.231.694.463.613 1.144ZM343.834 654.081c-.082.49-.613.558-1.145.613.232-.354.464-.695 1.145-.613Z"/><g fill="#1A73E8" clip-path="url(#a)"><path d="M1491.17 776.25c4.21.39 7.8-.84 11.63-2.86 9.43-4.97 19.45-8.82 28.88-13.8 9.51-5.02 18.51-11 27.89-16.29 10.63-6 19.47-14.25 28.28-22.46 9.14-8.51 18.26-17.16 26.45-26.56 9.2-10.55 17.13-22.11 24.21-34.29 6.35-10.93 11.27-22.45 15.68-34.16 3.12-8.27 4.9-17.06 7.05-25.68 1.26-5.04 2.07-10.19 3.05-15.3 1.03-5.35 2.67-10.68 2.9-16.07.8-19.35 1.72-38.73 1.37-58.07-.17-9.58-2.99-19.11-2.83-28.86.02-1.29-1.1-2.55-1.41-3.9-2.06-9.19-3.76-18.47-6.13-27.58-2.29-8.78-4.75-17.57-8-26.03-7.5-19.54-17.51-37.69-30.07-54.58-8.47-11.39-18.06-21.63-28.54-30.9-8.66-7.66-18.09-14.64-28.37-20.3-6.17-3.4-11.75-7.89-17.97-11.18-6.13-3.24-12.65-5.78-19.14-8.27-6.5-2.49-13.1-4.84-19.81-6.65-6.38-1.72-12.97-3.76-19.45-3.68-9.37.11-17.7-3.86-26.67-4.96-1.35-.17-2.62-1.16-3.96-1.27-7.06-.61-14.14-1-21.19-1.62-.89-.08-1.7-1.04-2.55-1.59.95-.45 2.04-1.46 2.83-1.27 7.27 1.8 14.88 2.06 22.13 2.47 11.42.64 21.96 5.36 33.48 5.23 6.7-.07 13.4 2.58 20.15 3.76 4.96.87 10.04 1.09 14.97 2.07 6.2 1.23 12.32 2.91 18.45 4.49.87.22 1.69 1.5 2.38 1.38 6.41-1.1 11.29 3.17 16.95 4.65 5.44 1.42 10.2 4.64 15.24 6.82 15.42 6.67 27.24 17.62 37.98 29.76 6.19 6.99 10.51 15.63 15.66 23.53 7.55 11.6 12.5 24.4 16.93 37.39 2.7 7.94 4.77 16.09 7.17 24.13 3.99 13.4 8.39 26.69 11.89 40.21 1.85 7.14 1.81 14.75 3.24 22.03 2.07 10.55 2.84 21.14 3.06 31.88.19 8.95 2.09 17.87 2.22 26.82.16 10.91.76 21.88-2.19 32.71-1.24 4.56-.75 9.58-1.38 14.42-1.29 9.93-4.26 19.37-6.74 28.92-3.94 15.15-11.14 29.03-18.56 42.71-5.31 9.79-11.61 18.95-18.52 27.73a303.455 303.455 0 0 1-30.43 33.26c-7.73 7.28-14.79 15.38-24.53 20.34-2.3 1.17-3.69 4.02-5.89 5.53-3.25 2.24-5.96 5.8-10.76 4.99-.92-.16-2.36.69-3.05 1.51-5.95 7.06-12.47 11.44-21.38 15.37-3.4 1.5-6.36 3.99-9.75 5.55-6.94 3.2-13.87 6.58-21.1 8.98-14.58 4.85-29.28 9.37-44.08 13.48-6.39 1.77-13.23 1.87-19.76 3.26-8.77 1.87-17.69 2.54-26.46 5.03-10.36 2.95-20.89 5.76-31.75 7.27-7.13.99-14.62 1.42-21.52 4.16-.43.17-.99 0-1.5.02-15.1.5-30.26 2.05-45.26 1.11-9.09-.57-18.26-.03-27.23-1.25-19.65-2.69-39.44-5-58.25-11.91-20.42-7.5-40.59-15.75-57.77-29.35-8.76-6.93-16.17-15.6-23.94-23.73-3.59-3.76-7.59-5.78-12.76-5.65-2.66.07-5.59.74-7.32-2.28-1.98-3.45-5.92-7.13-4.23-10.83 3.79-8.33-2.22-12.58-6.18-17.43-4.43-5.41-9.78-10.06-14.78-15-10.86-10.72-19.69-22.84-27.69-35.9-8.58-14-12.96-29.36-17.61-44.66-1.8-5.92-1.51-12.56-1.66-18.88-.39-16.59-.35-33.17 4.44-49.31.2-.69-.24-1.77.15-2.18 5-5.28 4.78-12.5 5.56-18.7 1.64-13.02 6.28-25.05 9.9-37.4 5.77-19.66 14.06-38.37 23.69-56.4 4.87-9.11 11.43-17.3 16.6-26.27 7.3-12.67 17.93-22.63 26.87-33.94 4.48-5.67 10.84-9.85 16.39-14.67 1.26-1.1 2.88-1.84 3.96-3.07 3.25-3.69 7.34-6.09 11.51-8.57 6.29-3.74 12.26-8.02 18.31-12.16 11.34-7.77 22.26-16.24 34.06-23.25 15.17-9.02 30.42-17.9 47.24-24 10.93-3.96 21.82-8.01 32.98-11.14 6.83-1.92 14.04-2.56 21.1-3.61 12.56-1.87 25.23-2.4 37.86-3.39 5.8-.45 11.67-1.33 17.46-1.02 11.4.61 22.86 1.25 34.09 3.14 6.32 1.06 12.9 1.63 18.99 4.96 4.35 2.39 10.12 2.03 15.07 3.53 8.44 2.55 16.97 5.05 25.05 8.55 15.8 6.84 31.5 14.04 45.94 23.48 7.83 5.12 14.97 11.36 22.14 17.43 6.4 5.42 12.27 11.45 18.61 16.94 12.07 10.46 20.73 23.74 28.97 37 7.92 12.75 14.7 26.37 18.93 41.03 3.74 12.93 7.66 25.67 8.98 39.29.91 9.39 1.36 18.72.93 28-.4 8.5-2.82 16.88-3.95 25.37-1.7 12.9-7.07 24.67-11.04 36.85-2.14 6.57-5.65 12.71-8.74 18.94-1.86 3.76-4.38 7.21-6.12 11.02-5.75 12.62-14.37 23.29-22.43 34.4-5.85 8.06-12.33 15.52-18.83 22.99-1.83 2.1-.76 3.6.76 4.11 6.41 2.17 7.2 8.48 9.81 13.23 2.11 3.84-.56 7.86-2.58 11.25-1.57 2.64-.99 4.87.14 7.07 6.97 13.56 2.48 23.58-11.19 26.31-5.99 1.2-11.02 3.86-15.59 7.87-3.98 3.49-8.82 5.38-14.16 5.71-2 .12-4.01-.04-6.02.03-7.56.26-12.24-3.62-14.77-10.39-1.31-3.51-4.36-4.04-7.34-4.65-6.91-1.42-12.9 1.62-18.08 5.27-11.76 8.29-23.86 16.11-36.64 22.53-13.44 6.75-26.32 14.77-41.04 19.03-8.18 2.37-15.7 6.91-23.75 9.82-6.14 2.22-12.64 3.4-18.99 5.05-3.85 1-7.65 2.26-11.56 2.95-6.82 1.21-13.72 2.02-20.56 3.12-.96.15-1.82.95-2.72 1.44.9.51 1.73 1.23 2.69 1.48 8.88 2.34 17.52 5.54 26.84 6.18 4.4.3 8.7 1.95 13.06 2.87 5.09 1.08 10.17 2.62 15.31 2.91 14.58.83 29.18 1.33 43.78 1.52 6.31.08 12.67-.61 18.93-1.47 13.83-1.9 26.42-7.38 38.63-13.9 10.27-5.47 20.86-10.37 30.86-16.29 6.75-4 12.7-9.35 19.04-14.06 6.52-4.83 13.07-9.61 19.63-14.39.36-.26.97-.23 1.27-.53 3.54-3.49 7.38-6.75 10.51-10.58 10.45-12.82 23.45-23.45 32.07-37.86 2.69-4.5 6.3-8.44 9.51-12.63.3-.4.64-.91 1.07-1.04 11.57-3.46 13.73-15.15 19.79-23.26 3.61-4.84 4.83-11.47 7.11-17.3.59-1.51.81-3.27 1.74-4.52.77-1.03 2.33-1.48 3.54-2.18-.25 1.19-.35 2.45-.79 3.57-2.57 6.71-4.56 13.75-7.98 20-5.86 10.69-12.69 20.84-18.99 31.29-6.66 11.06-15.58 20.27-23.73 30.15-6.66 8.07-13.95 15.41-21.56 22.37-11.27 10.3-22.69 20.74-35.41 29.03-8.61 5.61-17.49 11.66-27.66 14.79-.65.2-1.09 1.04-2.01 1.95-.41.84-.45 1.31-.49 1.77.29-.47.58-.93.86-1.4m147.51-384.61c.14.64.27 1.28.41 1.92.33-.1.66-.2.98-.3-.46-.79-.93-1.58-1.4-3.12-.5-.75-1-1.51-1.51-3.01-.35-1.36-.53-2.8-1.09-4.06-5.84-13.12-12.76-25.64-21.81-36.82-9.05-11.18-18.07-22.49-31.38-29.15-1.05-.53-1.99-1.35-2.85-2.18-2.99-2.86-5.45-6.69-10.6-5.38-.49.12-1.25-.57-1.8-.99-6.36-4.87-13.53-7.48-21.51-8.04-1.08-.08-2.06-1.03-3.15-1.43-5.44-2-10.88-4-16.37-5.85-.62-.21-1.56.54-2.35.84.49.66.84 1.69 1.48 1.93 4.35 1.62 8.84 2.86 13.13 4.61 11.72 4.78 22.56 11.3 32.96 18.38 8.16 5.55 15.82 11.83 23.42 18.23 9.07 7.63 16.82 16.17 23.81 25.53 6.18 8.27 12.08 16.75 18.1 25.89.5.75 1 1.51 1.51 3.01M1347.4 282.47c4.86-.35 9.73-.75 14.6-.98.69-.03 1.42.74 2.13 1.15-.42.45-.8 1.22-1.28 1.28-1.7.23-3.49-.02-5.15.35-8.01 1.83-15.89 4.32-23.98 5.61-12.12 1.93-23.78 5.53-35.54 8.77-17.72 4.88-34.76 11.6-51.39 19.47-2.4 1.13-4.57 2.2-6.72 3.81-6.77 5.07-13.65 9.99-21.55 13.33-2.57 1.09-4.73 3.15-7 4.88-.67.51-1.06 1.39-1.58 2.1 1.03-.22 2.13-.29 3.09-.69 6.43-2.72 12.84-5.38 18.75-9.29 9.21-6.08 20.19-8.33 30.42-11.84 25.18-8.65 50.58-16.72 76.92-21.58 13.76-2.53 27.42-5.52 41.29-7.55 4.34-.63 8.79-.42 12.92-1.43 9.8-2.4 19.65-3.11 29.65-2.82 1.15.03 2.3.47 3.45.73-1.21.71-2.35 1.79-3.65 2.04-1.92.38-3.97.1-5.95.23-7.07.47-14.45-.14-21.13 1.73-12.63 3.53-25.74 3.87-38.37 7.16-6.67 1.73-13.83 1.56-20.49 3.32-17.59 4.65-35.06 9.75-52.51 14.91-17.38 5.14-34.33 11.56-50.56 19.63-10.02 4.98-19.45 11.14-29.36 16.35-10.58 5.56-20.05 12.01-27.82 21.54-10.71 13.13-18.99 27.6-27.19 42.24-8.02 14.32-13.17 29.76-17.6 45.36-2.3 8.11-5.25 16.3-5.03 25.08.1 4.04-.23 8.34-1.54 12.12-2.69 7.75-.77 15.84-2.59 23.7-1.03 4.45 1.15 9.55 1.15 14.36-.01 13.72 1.1 27.29 2.78 40.93 1.44 11.64 3.41 23.24 6.67 34.24 6.87 23.2 16.35 45.51 29.78 65.89 2.78 4.22 5.72 7.6 11.87 5.99 3.35-.88 7.14-.53 10.49 1.7 1.45.97 3.68 1.16 5.52 1.08 7.83-.35 15.64-.99 23.46-1.43 10.07-.56 20.15-1.02 30.23-1.52.25-.01.53.08.75-.01 8.33-3.48 17.29-.45 25.92-2.72 7.05-1.85 14.82-.76 22.12-1.9 10.59-1.66 21.16-2.96 31.89-2.89 1 0 2.06.2 3-.03 11.26-2.74 22.96-1.61 34.31-4.25 7.53-1.75 15.59-1.15 23.4-1.78 4.79-.39 9.7-.6 14.31-1.82 5.6-1.47 11.1-2.91 16.94-2.68 1.75.07 3.56.27 5.26-.03 7.92-1.41 15.78-3.23 23.74-4.39 6.25-.91 12.62-1.11 18.93-1.58 2.15-.16 2.5-1 1.42-2.81-2.38-4.02-4.75-8.05-6.99-12.15-5.7-10.43-11.1-21.02-17.02-31.32-9.21-16.03-18.76-31.87-28.15-47.8-6.41-10.89-12.66-21.87-19.19-32.68-7.53-12.46-15.18-24.85-23.02-37.12-4.85-7.58-10.23-14.82-15.22-22.31-1.82-2.73-3.32-1.5-4.23.31-3.35 6.62-6.15 13.54-9.7 20.05-10.24 18.79-18.01 38.69-26.62 58.22-1.5 3.41-4.32 6.23-5.83 9.63-4.43 9.95-8.47 20.07-12.74 30.09-2.27 5.33-4.89 10.54-7.28 15.78-2.34 5.12-2.1 11.08-5.92 15.66-2.4 2.88-4.71 6.29-1.33 10.33.49.58-.25 2.27-.55 3.42-.75 2.94-1.43 5.92-2.43 8.78-.44 1.26-1.38 2.96-2.44 3.27-3.52 1.02-6.49 2.8-10.95 2-7.76-1.4-15.99.08-23.39 2.98-3.04 1.19-6.23 1.81-8.44.92-4.72-1.89-8.89-5.17-13.27-7.91-.14-.09-.08-.45-.16-.67-2.21-6.18-2.23-12.75-1.15-18.88.55-3.14 4.29-6.75 7.45-8.06 2.56-1.06 2.75-1.87 2.76-3.93 0-4.33-.67-8.77 1.96-12.73 1.69-2.54 3.23-5.18 4.8-7.79 3.74-6.23 7.71-12.33 11.08-18.75 1.81-3.45 2.23-7.61 3.91-11.16 2.49-5.26 5.78-10.14 8.29-15.39 5-10.46 9.99-20.94 14.44-31.65 6.49-15.63 12.99-31.28 18.49-47.26 2.96-8.62 6.67-16.81 10.25-25.12 2.7-6.27 6.33-12.39 5.08-19.73-.17-.97-.2-2.04 0-3 1.26-5.85 7.1-11.68 11.07-9.83 6.54 3.05 13.08.97 19.3.77 5.97-.18 12.13-1.05 18.2-.9 3.68.09 5.83-1.47 6.19-4.6.6-5.32 4.43-6.97 8.47-8.24 3.27-1.03 7.54-2.87 10.01-1.63 6.61 3.32 15.26 4.64 17.45 13.86.3 1.25 1.86 2.41 3.11 3.18 8.1 4.97 7.64 14.05 9.66 21.56 1.04 3.86 1.79 7.93 3.74 11.28 5.08 8.75 11.25 16.87 16.11 25.72 9.39 17.14 18.07 34.66 27.24 51.91 4.61 8.66 9.66 17.08 14.52 25.6 4.17 7.31 8.6 14.48 12.47 21.93 5.46 10.51 10.23 21.38 15.8 31.82 7.35 13.8 15.22 27.31 22.8 40.99 3.05 5.51 5.6 6.19 9.81 1.83 5.83-6.03 11.43-12.28 17.05-18.51 3.27-3.62 7.24-6.94 9.44-11.15 7.42-14.26 20.05-24.8 27.27-39.11 4.71-9.33 9.54-18.62 13.68-28.2 2.47-5.74 4.24-11.91 5.36-18.07 1.31-7.21 6.22-14.1 2.41-21.97-.45-.92.86-2.59 1.07-3.96.8-5.13 6.42-10.17.35-15.48-.25-.22-.21-1.06 0-1.45 1.72-3.37-.11-6.72-.16-10.05-.13-9.08-.7-18.16-1.46-27.22-.29-3.47-1.26-6.96-2.44-10.25-3.75-10.48-7.13-21.16-11.82-31.22-5.23-11.21-10.27-22.66-18.44-32.27-4.54-5.34-8.89-10.86-13.32-16.3-2.14-2.62-4.16-5.35-6.42-7.86-2.14-2.39-4.52-4.58-6.8-6.85-1.06-1.06-2.04-2.23-3.22-3.14-3.79-2.91-7.64-5.74-11.5-8.56-8.47-6.2-16.66-12.84-25.51-18.42-8.85-5.59-18.26-10.31-27.61-15.05-9.95-5.04-20.29-9.22-31.08-12.16-5.87-1.6-11.83-2.91-17.67-4.59-2.2-.63-4.11-2.45-6.31-2.86-6.81-1.26-13.72-2.99-20.56-2.86-7.38.13-14.68-2.8-22.13-.37-1.26.41-3.05-.91-4.63-1.31-2.28-.58-5.06-2.13-6.79-1.36-4.84 2.15-9.7.86-14.52 1.28-1.68.15-10.89 2.24-13.36 3.03-.04.47-.07.93-.11 1.4.29-.47.58-.93 1.62-1.4m-246.14 387.59c1.51 3.64 3.15 7.23 4.49 10.93 4.14 11.38 9.61 21.99 17.9 30.95.55.59 1.67.64 2.53.95.1-.86.43-1.77.25-2.56-1.71-7.44 4.51-13.77 12.11-12.48 2.44.41 5.01.17 7.51 0 .66-.05 1.72-.91 1.81-1.51.77-5.44 3.57-8.59 9.24-9.06.39-.03 1.19-2.03.88-2.5-4.69-7.04-9.2-14.11-13.32-21.56-6.82-12.32-11.98-25.2-16.17-38.48-2.82-8.93-3.99-18.38-6.71-27.34-3.68-12.12-4.86-24.64-6.77-37.02-1.23-7.93-.78-16.13-1.35-24.2-.84-11.99.57-24.15 1.21-36.22.19-3.56.4-7.32 1.68-10.58 2.9-7.39 1.48-16.16 7.28-22.57.12-.14-.01-.49.02-.74 1.23-9.87 4.26-19.15 9.05-27.86.56-1.01 1.22-2.05 1.44-3.15 1.58-7.86 5.26-14.96 8.86-21.9 3.58-6.89 8.54-13.08 13.17-19.38 2.73-3.72 6.03-7.03 8.94-10.63.44-.55.19-1.67.25-2.53-.68-.04-1.58-.37-2-.06-2.49 1.84-5 3.68-7.25 5.79-3.84 3.59-8.08 6.97-11.1 11.18-5.75 8.02-10.55 16.72-16.13 24.87-11.7 17.08-19.3 36.07-26.24 55.36-3.31 9.19-6.17 18.56-8.73 27.98-1.61 5.93-2.46 12.09-3.33 18.19-.75 5.27-.2 10.89-1.81 15.84-1.52 4.69-.79 9.19-1.26 13.75-.48 4.56-1.43 9.12-1.41 13.67.05 8.58.57 17.18 1.01 25.74.72 13.85 2.76 27.38 4.74 41.03 1.74 11.97 5.57 23.23 9.21 36.12m297.32 74.52c8.8-4.78 17.6-9.55 26.38-14.35 11.45-6.25 22.89-12.51 34.31-18.8.48-.27.76-.91 1.13-1.38-.71-.36-1.48-1.12-2.12-1.02-4.44.71-8.82 1.86-13.27 2.36-6.53.74-13.28.33-19.61 1.82-4.4 1.03-9.25-.24-12.85 1.5-9.42 4.54-19.55 1.52-29.12 4.06-6.02 1.6-12.56 1.17-18.87 1.72-5.06.44-10.13.85-15.16 1.53-6.37.86-12.68 2.61-19.06 2.84-11.94.42-23.74 1.78-35.61 2.89-9.88.92-19.72 1.86-29.57 3.1-7.73.97-15.61-.02-23.44 1.52-6.41 1.26-13.09 1.12-19.64 1.72-.67.06-1.27.97-1.9 1.49.41.49.73 1.18 1.25 1.43 13.44 6.44 25.28 15.8 39.33 21.2 8.85 3.4 17.33 7.76 26.06 11.5 1.48.64 3.37.41 5.07.44 10.47.19 20.74-1.46 31.1-2.81 13.64-1.78 26.77-5.49 39.77-9.43 11.7-3.55 22.88-8.83 35.8-13.34m-186.67 30.11c-6.27-3.01-12.56-6-18.81-9.05-1.88-.92-3.59-2.25-5.54-2.95-9.87-3.56-19.76-7.01-28.3-13.43-1.4-1.05-3.49-1.27-5.31-1.61-.87-.16-1.85.29-2.78.47.38 1.03.5 2.3 1.18 3.06 10.42 11.7 22.75 21.23 35.97 29.35 10.25 6.29 21.41 11.13 32.3 16.33 5.21 2.49 10.58 5 16.16 6.3 14.7 3.41 29.49 6.54 44.37 9.01 8.17 1.36 16.6 1.41 24.92 1.6 11.02.25 22.05.06 33.08.06 1.5 0 3.12.36 4.49-.06 8.2-2.54 16.78-1.42 25.1-2.87 5.23-.91 10.61-1.02 15.9-1.64.93-.11 1.76-.99 2.64-1.51-.92-.48-1.83-1.36-2.76-1.38-14.84-.37-29.77 1.13-44.47-1.67-6.59-1.26-13.29-1.54-19.88-2.51-6.38-.94-12.66-2.29-19-3.37-9.63-1.64-19.54-2.16-28.9-4.73-19.91-5.49-39.89-10.96-60.37-19.39m-127.18-250.67c.8-4.02-.11-7.97 1.2-12.27 3.26-10.7 8.25-20.67 11.36-31.49 6.97-24.22 18.66-46.53 31.62-68.12 1.35-2.25 3.19-4.19 4.7-6.35.14-.2-.7-1.43-.81-1.39-1.31.45-3.09.7-3.76 1.68-5.24 7.7-12.71 13.66-16.69 22.41-3.18 6.98-7.72 13.34-10.98 20.29-6.79 14.48-13.2 29.14-19.59 43.8-1.39 3.18-2.15 6.65-3 10.03-.18.73.48 1.67.75 2.52.23-.66.36-1.37.7-1.96 3.47-6.09 7.14-12.08 10.35-18.3.74-1.45.73-2.87 2.63-1.87.27.14-.13 2.05-.57 2.96-4.38 8.98-8.84 17.91-13.26 26.86-1.75 3.54-4.69 7.02-4.91 10.66-.39 6.55-3.1 12.45-3.68 19.02-.84 9.61-1.67 19.27-2.45 28.9-.41 4.98 1.32 10.11 1.25 15.16-.16 10.27.81 20.37 3.13 30.35 1.75 7.53 3.52 15.07 5.57 22.53 2.33 8.52 5.61 16.72 9.55 24.63 2.18 4.37 4.5 8.69 6.98 12.9.41.7 1.98.72 3.01 1.06-.35-.73-.82-1.43-1.03-2.2-2.72-10.01-10.83-18.63-7.83-30.14.03-.12-.4-.32-.5-.53-4.08-8.91-5.94-18.34-6.78-28.05-.39-4.54-1.1-9.05-1.75-13.56-.87-6.15-1.93-12.27-2.64-18.44-.14-1.22 1.12-2.54 1.37-3.89.63-3.28 2.25-7.03 1.25-9.8-1.33-3.7-1.21-7.2-1.12-10.77.09-3.56 1.53-7.15 1.29-10.66-.6-8.64 1.39-16.64 4.64-25.98m110.65 234.09c2.3.5 4.62.94 6.9 1.52 7.71 1.95 15.36 4.24 23.14 5.84 7.01 1.44 14.15 2.55 21.28 3.05 5.54.39 10.9 1.12 16.18 2.82.71.23 1.66-.31 2.51-.49-.42-.73-.66-1.85-1.28-2.13-3.58-1.64-7.3-2.96-10.88-4.6-14.52-6.66-28.36-14.54-41.14-24.1-4.41-3.3-9.06-3.58-13.78-2.74-8.42 1.5-16.54 4.59-25.29 4.33-1.37-.04-2.85.37-4.1.94-.69.32-2.32 1 .12 2.12 8.64 3.99 17.08 8.42 26.35 13.44m168.6 42.15c8.32.5 16.64 1.05 24.97 1.44.94.04 1.92-.82 2.88-1.26-.84-.56-1.7-1.65-2.51-1.61-11.03.52-21.74-2.19-32.63-3.12-4.07-.35-8.62.04-12.08-1.67-11.55-5.72-24.99-4.28-36.43-10.24-2.41-1.26-6.33-.21-8.18-1.81-3.45-2.98-7.09-2.82-10.96-2.82-4.27 0-8.54.18-12.79-.04-6.57-.34-13.16-.74-19.69-1.53-5.4-.66-10.71-2-16.08-2.89-1.11-.18-2.34.33-3.52.52.92.53 1.78 1.24 2.76 1.57 7.06 2.34 14.01 5.74 21.27 6.64 13 1.62 25.02 7.13 38.23 8.05 8.91.62 17.69 3.62 26.75 4.26 5.07.36 10.33.25 15.14 1.65 7.06 2.05 14.37 1.12 22.89 2.84m-103.9-492.23c1.39-.89 2.67-2.08 4.18-2.61 13.14-4.58 25.69-10.74 39.31-14.13 4.67-1.16 10.13-.37 13.97-4.33 4.35 3.44 8.73.09 13.03-.16 3.64-.21 7.21-1.82 10.79-2.87.69-.2 1.31-.69 1.96-1.04-.69-.15-1.38-.42-2.07-.43-8.98-.12-17.75 1.46-26.6 2.85-12.84 2.01-24.76 6.74-36.82 11.09-8.49 3.06-16.88 6.49-25.09 10.22-5.08 2.31-9.77 5.49-14.59 8.35-.52.31-.79 1.03-1.18 1.57.68.18 1.51.71 2.01.48 6.56-2.93 13.07-5.97 21.1-8.98m-180.65 355.26c-6.12-13.87-11.42-27.86-14.8-42.84-2.36-10.48-1.45-21.07-3.94-31.36-.78-3.23-.62-6.69-.89-10.05-.73 3.46-1.48 6.91-2.18 10.37-.1.48-.22 1.16.02 1.48 2.54 3.39.83 7.42 1.12 10.97.65 7.95 1.52 15.8 3.37 23.54 4.4 18.32 11.01 35.67 22.56 50.81.42.55.77 1.15 1.16 1.73.12-.7.56-1.56.3-2.08-1.91-3.98-3.96-7.89-6.72-12.57m128.71-322.91c2.57-2.26 5.17-4.48 7.69-6.8.59-.54.9-1.39 1.34-2.1-.9.21-1.92.2-2.67.65-12.32 7.44-24.13 15.58-34.41 25.76-.53.53-1.32.98-1.53 1.61-.24.76.01 1.69.06 2.54.68-.07 1.57.12 2-.25 3.92-3.3 7.61-6.88 11.67-10 4.88-3.75 10.05-7.13 15.85-11.42m-59.46 45.91c5.32-5.32 10.64-10.63 15.94-15.97.45-.45.76-1.05 1.13-1.59-.93-.17-1.88-.52-2.79-.45-.63.04-1.31.55-1.8 1.03-7.29 7.25-14.57 14.51-21.79 21.82-.4.41-.28 1.32-.4 2 .53-.08 1.2 0 1.57-.28 2.49-1.9 4.92-3.87 8.13-6.57m362.06 393.69c.85-.35 1.85-.54 2.51-1.11.41-.35.34-1.29.38-1.97 0-.08-.72-.37-1-.27-6.27 2.35-12.52 4.73-18.77 7.13-.42.16-.78.5-1.17.75.9.25 1.9.89 2.67.68 4.91-1.38 9.76-2.95 15.38-5.2m-343.99-404.21c-.15.85-.3 1.7-.46 2.55l2.64-1.73c-.48-.53-.96-1.05-2.19-.82m370.34 389.9-.6.9c.45-.05.9-.1.6-.9Z"/><path d="M1647.73 515.811c0-4.52.06-8.28-.01-12.04-.16-9.21-1.14-18.32-2.96-27.36-.66-3.27.45-6.57-1.29-10.03-1.19-2.37.11-5.97-4.15-6.49-.28-.03-.46-1.24-.62-1.92-2.02-8.7-3.89-17.43-6.07-26.09-1.82-7.24-3.96-14.41-5.99-21.6-.51-1.79-.76-3.8-1.76-5.27-5.7-8.35-8.43-18.17-13.4-26.81-4.59-7.97-10.17-15.37-15.24-23.07-.55-.84-.53-2.04-.78-3.07 1.03.32 2.29.36 3.05 1.01 1.5 1.26 2.99 2.69 4 4.34 8.34 13.53 17.39 26.69 23.64 41.38 5.55 13.04 10.99 26.15 14.07 40.09 1.31 5.93 3.11 11.75 4.61 17.65 1.04 4.1 2.21 8.2 2.81 12.37.79 5.52.53 11.23 1.68 16.65 2.71 12.81 1.24 25.71 1.2 38.53-.02 7.69.48 15.69-2.79 23.11-.19.42.03 1-.03 1.49-.27 2.06-.57 4.12-.86 6.18-2.98-1.81-2.01-4.77-2.13-7.39-.06-1.25-.54-3 .08-3.68 3.15-3.44 2.81-7.16 2.39-11.45-.52-5.18.3-10.49.53-16.5l.02-.03ZM1633.8 605.759c.38-.85.23-1.69.4-1.76 2.94-1.22 1.43 1.5 1.36 1.97-.16 1.11-1.03 3.06-1.45 3.02-2.24-.23-1.69-1.58-.31-3.23ZM1638.69 592.589c-2.72-1.93-.76-2.89.3-4.01.15-.16.66.02 1 .05-.18 1.32-.37 2.64-1.3 3.97v-.01ZM1346.65 547.42c8.87-4.62 16.74-3.64 23.69 2.05 5.18 4.24 10.11 9.02 14.14 14.32 2.08 2.73 2.2 7.1 2.76 10.8.95 6.19-.58 11.59-5.81 15.63-3.27 2.52-6.27 5.38-9.52 7.92-3.58 2.79-7.89 2.06-11.96 1.89-3.07-.13-6.14-1.48-9.15-1.31-4.68.27-8.72-1.58-11.75-4.27-4.5-4-8.41-8.84-11.88-13.8-5.26-7.51-4.59-21.05 1.55-26.76 3.55-3.3 6.07-9.06 12.53-7.95 1.59.27 3.1.97 5.4 1.47v.01ZM1376.38 281.34c.21.55.03.87-.14.87-2.3-.1-4.6-.24-6.9-.37 2.22-.29 4.44-.58 7.03-.5h.01Z"/></g><defs><clipPath id="a"><path fill="#fff" d="M1053 275h624.34v546.31H1053z"/></clipPath></defs></svg>