<svg width="1920" height="1080" viewBox="0 0 1920 1080" fill="none" xmlns="http://www.w3.org/2000/svg">
<path d="M693.857 343.312C691.773 347.741 689.962 351.665 688.505 355.712C686.244 361.966 686.965 363.764 692.822 365.863C701.253 368.887 709.275 366.367 716.48 362.361C720.907 359.908 719 354.826 717.87 350.725C716.698 346.474 718.101 342.154 722.31 341.337C728.153 340.206 730.591 335.859 732.552 331.676C734.432 327.684 736.87 325.109 740.452 322.793C747.384 318.323 749.795 318.105 755.502 323.678C758.798 326.894 758.008 331.213 756.415 334.797C754.753 338.503 752.179 341.855 749.713 345.138C745.518 350.738 741.065 356.148 736.802 361.693C736.379 362.238 736.556 363.246 736.447 364.037C737.278 363.696 738.123 363.396 738.926 363.001C747.847 358.505 756.197 352.946 766.153 350.452C768.4 349.894 769.858 345.547 771.356 342.781C775.987 334.211 780.522 325.586 784.976 316.92C787.741 311.552 789.062 310.829 793.352 314.372C795.831 316.429 797.575 319.509 799.263 322.357C802.641 328.038 802.369 327.711 808.226 325.327C817.882 321.403 825.074 315.353 829.173 305.502C831.257 300.501 833.259 300.365 837.332 303.935C839.293 305.652 840.873 307.614 843.965 307.014C851.442 305.584 856.591 308.241 858.892 315.803C859.11 316.525 860.391 316.92 861.181 317.479C861.562 316.811 862.352 316.075 862.257 315.489C861.63 311.538 864.504 311.701 866.533 312.383C868.29 312.969 869.802 314.767 870.973 316.348C871.532 317.097 870.946 318.623 871.096 319.768C871.3 321.307 871.736 322.82 872.077 324.346C872.908 322.942 873.643 321.471 874.596 320.136C876.381 317.642 878.11 315.081 880.167 312.832C882.033 310.802 883.749 307.587 887.141 308.813C890.369 309.985 893.392 312.11 893.774 316.007C894.509 323.338 894.904 330.695 895.612 338.026C895.871 340.751 896.879 343.421 897.056 346.147C897.315 350.03 898.159 352.605 902.954 352.659C904.928 352.673 905.841 354.213 904.711 357.306C903.784 359.84 902.817 361.884 901.006 363.655C896.675 367.92 892.384 367.416 890.45 361.72C887.808 353.954 883.545 346.405 885.084 337.685C885.792 333.666 880.725 329.932 884.539 325.763C884.594 325.708 883.858 324.55 883.477 324.537C882.387 324.509 880.63 324.428 880.29 325.027C874.106 335.859 862.761 344.552 865.825 359.281C866.438 362.238 866.356 365.563 867.732 368.097C869.925 372.117 866.615 373.179 864.926 375.237C863.482 373.833 861.821 372.593 860.636 370.999C857.898 367.32 857.013 363.042 857.067 358.478C857.19 348.899 856.373 339.238 860.527 330.137C860.745 329.646 860.145 328.297 859.614 328.066C859.042 327.807 857.789 328.147 857.367 328.665C855.596 330.791 854.289 333.38 852.314 335.26C848.201 339.17 843.706 342.658 839.511 346.487C837.032 348.763 834.771 350.425 837.305 355.098C839.497 359.159 839.089 364.514 842.48 368.724C845.231 372.144 841.54 374.61 839.184 376.34C836.351 378.425 835.398 375.55 834.349 373.561C833.968 372.839 833.573 372.13 833.178 371.422C831.244 368.015 830.018 362.988 827.144 361.707C824.583 360.562 820.116 363.424 816.588 364.786C815.349 365.263 813.36 366.844 813.524 367.375C815.322 373.384 809.519 379.229 813.265 385.292C813.919 386.342 813.319 388.154 813.456 389.598C813.456 389.707 814.872 389.925 815.471 389.693C824.869 386.069 834.703 388.235 844.292 387.391C858.675 386.124 871.736 391.424 884.144 396.874C891.145 399.953 897.342 406.303 903.008 412.707C914.572 425.746 921 441.347 928.873 456.376C936.255 470.479 939.156 485.971 944.468 500.686C946.048 505.046 945.694 510.088 946.388 514.788C947.9 524.994 949.793 535.063 944.767 545.078C942.983 548.634 943.542 553.294 942.071 557.082C937.113 569.903 929.649 580.967 919.529 590.573C910.894 598.776 901.51 604.907 890.396 609.185C882.373 612.278 875.346 617.892 867.364 621.176C859.138 624.568 850.366 626.667 841.745 629.01C838.026 630.019 834.049 630.087 830.249 630.877C824.502 632.062 822.676 635.21 824.093 640.742C824.706 643.14 824.978 645.62 825.659 647.977C825.891 648.794 826.871 649.394 827.512 650.089C828.043 649.285 829.051 648.44 829.01 647.664C828.819 643.549 829.432 639.761 832.687 636.913C834.308 635.496 835.738 635.373 836.106 638.085C836.324 639.734 836.051 641.914 836.991 642.922C842.385 648.699 838.231 654.558 837.182 660.185C836.515 663.755 834.226 666.208 829.337 666.099C824.488 665.99 823.276 662.447 822.554 659.872C820.62 652.991 819.557 645.824 818.699 638.712C818.018 633.003 817.16 632.512 811.372 633.534C806.332 634.42 801.034 634.665 795.94 634.215C788.218 633.534 780.563 631.967 772.881 630.85C764.914 629.692 758.09 625.985 751.007 622.32C743.544 618.451 735.848 615.112 728.861 610.316C722.705 606.079 716.044 602.632 712.313 595.56C710.528 592.181 707.287 591.554 703.419 592.78C696.186 595.083 688.859 597.154 681.463 598.871C680.115 599.184 677.881 597.713 676.737 596.459C673.591 592.985 674.667 589.333 676.791 585.627C678.725 582.248 681.163 584.142 683.724 584.196C688.831 584.292 693.993 583.869 699.033 583.052C700.286 582.847 702.016 581.24 700.681 578.324C695.26 566.415 693.53 553.771 694.266 540.69C694.661 533.7 695.968 527.079 698.583 520.566C700.095 516.805 700.518 512.622 701.811 508.766C705.516 497.716 709.847 486.884 712.013 475.329C712.789 471.201 715.404 467.44 717.093 463.461C720.471 455.531 722.936 447.056 727.308 439.726C735.399 426.169 747.752 417.121 761.876 410.172C775.21 403.605 788.476 397.037 802.723 392.541C805.229 391.751 810.977 390.116 806.373 384.856C810.269 378.684 807.545 371.912 807.994 365.44C808.593 356.747 803.922 349.689 799.263 342.863C797.847 340.792 796.526 340.26 793.107 341.582C785.058 344.675 779.623 349.417 776.164 357.169C773.848 362.334 768.754 364.554 763.265 362.429C761.005 361.557 760.255 361.707 758.253 362.742C752.274 365.822 745.968 368.261 739.784 370.931C737.755 371.803 735.535 372.212 736.216 375.523C736.488 376.858 735.344 378.589 734.581 380.006C732.375 384.052 728.357 384.257 725.865 380.51C725.265 379.597 724.652 378.684 724.121 377.73C720.498 371.285 720.553 371.422 713.389 373.438C707.573 375.073 701.975 378.016 695.601 376.994C693.517 376.654 692.604 377.321 692.509 379.747C692.4 382.445 691.528 385.129 690.834 387.772C690.425 389.325 689.676 390.783 689.117 392.309C687.715 396.179 685.263 398.727 680.864 397.937C676.451 397.146 675.402 393.154 675.266 389.789C674.898 381 674.735 372.185 677.132 363.505C680.85 350.043 685.821 337.208 694.375 325.995C697.971 321.28 701.621 316.525 708.09 315.721C712.817 315.135 714.56 316.593 715.363 321.321C716.78 329.578 710.937 338.98 702.928 341.214C702.397 341.364 701.389 341.132 701.158 340.751C700.749 340.083 700.409 338.966 700.708 338.353C701.539 336.636 702.86 335.164 703.664 333.448C704.154 332.398 704.018 331.077 704.168 329.864C702.969 330.396 701.253 330.586 700.681 331.513C698.393 335.164 696.445 339.048 693.939 343.272M735.508 466.268C725.756 476.269 719.749 488.668 713.729 500.999C712.449 503.629 711.877 506.899 711.972 509.842C712.449 524.762 710.147 539.818 713.661 554.602C715.541 562.518 716.548 570.489 721.874 577.561C724.434 580.967 726.355 582.193 729.828 581.757C739.498 580.558 749.128 579.073 758.784 577.82C761.154 577.506 764.273 578.555 765.853 577.384C769.177 574.917 771.26 578.719 773.562 578.174C783.478 575.789 793.475 574.945 803.622 574.699C806.809 574.618 810.759 574.086 812.87 572.151C814.355 570.789 813.347 566.688 813.388 563.799C813.428 560.297 813.442 556.796 813.388 553.294C813.36 551.305 813.17 549.315 813.047 547.312C811.317 547.721 809.601 548.389 807.858 548.484C804.371 548.675 800.857 548.716 797.37 548.484C792.876 548.212 784.881 540.377 785.48 536.657C785.997 533.482 787.305 530.43 788.218 527.31C790.955 517.963 799.155 514.788 806.945 512.022C810.95 510.605 811.862 508.875 811.658 505.4C811.072 495.44 810.514 485.466 809.874 475.506C809.819 474.743 809.329 473.994 809.029 473.244C808.743 473.994 808.58 474.839 808.13 475.493C802.886 483.246 797.534 490.917 792.358 498.71C786.338 507.771 779.433 516.192 775.919 526.915C774.774 530.403 778.261 533.959 773.481 537.802C766.997 543.02 764.764 551.904 762.516 560.134C762.067 561.782 759.874 563.799 758.199 564.112C752.696 565.121 750.694 561.319 753.296 555.27C755.529 550.065 758.008 544.969 759.997 539.668C760.732 537.734 760.364 535.376 760.514 533.21C759.275 534.722 757.858 536.112 756.85 537.761C755.162 540.527 753.772 543.484 752.151 546.304C751.334 547.735 750.558 549.356 749.318 550.323C748.106 551.264 745.9 552.313 744.906 551.795C743.462 551.073 741.964 549.043 741.827 547.449C741.392 542.625 740.724 537.502 746.091 534.368C747.207 533.714 747.943 532.283 748.678 531.112C754.031 522.541 759.07 513.766 764.75 505.414C773.154 493.083 782.157 481.147 790.587 468.843C794.742 462.767 800.176 457.521 802.491 450.163C803.935 445.558 806.986 441.388 807.994 436.742C808.961 432.286 808.321 427.449 808.171 422.79C808.021 418.171 806.046 416.222 801.797 417.298C795.79 418.825 789.552 420.282 784.145 423.144C774.679 428.144 765.445 433.485 757.205 440.707C748.923 447.956 739.825 454.101 735.589 466.214M877.348 443.459C868.753 434.071 858.334 427.245 846.416 423.198C836.801 419.942 826.926 417.108 816.547 417.162C814.586 417.162 813.347 417.258 813.401 419.874C813.578 427.449 813.401 435.025 813.565 442.601C813.578 443.487 815.104 445.162 815.73 445.067C821.709 444.236 822.554 448.896 823.916 452.67C827.089 461.499 832.388 468.694 838.993 475.343C844.918 481.297 850.135 488.055 855.079 494.868C859.056 500.359 861.957 506.613 865.716 512.281C877.47 529.953 892.48 544.792 907.639 559.453C912.801 564.453 912.542 566.742 906.999 571.552C901.823 576.048 895.531 576.266 889.783 576.116C885.547 575.994 881.611 575.558 877.198 576.239C867.963 577.683 858.484 577.602 849.127 578.296C846.961 578.46 844.864 579.318 842.698 579.618C836.882 580.408 830.726 582.52 825.319 581.321C820.593 580.272 820.552 581.744 820.497 584.809C820.388 592.671 820.497 600.547 820.443 608.422C820.416 611.624 821.873 613.314 825.019 613.246C827.539 613.191 830.099 612.96 832.578 612.51C836.882 611.72 841.173 610.82 845.422 609.758C852.001 608.109 858.497 606.079 865.117 604.58C878.233 601.596 889.66 594.674 901.278 588.529C910.812 583.488 915.184 573.132 916.07 563.104C916.928 553.226 915.171 542.87 913.032 533.06C910.104 519.516 908.633 505.782 906.113 492.225C904.928 485.889 902.845 479.621 900.393 473.64C895.612 461.99 887.358 452.806 877.361 443.473M854.616 520.511C849.045 513.78 843.692 506.845 837.849 500.359C832.578 494.514 826.763 489.173 821.219 483.586C819.585 481.937 818.046 480.193 816.466 478.504C816.057 480.888 815.608 483.273 815.254 485.671C815.131 486.529 815.362 487.442 815.213 488.287C814.15 494.514 819.571 500.604 815.431 507.104C814.722 508.221 816.234 512.458 817.474 512.84C825.019 515.17 823.398 522.773 826.408 527.61C829.187 532.079 827.702 539.273 823.317 540.908C818.291 542.789 818.536 545.963 818.768 549.601C819.162 555.501 820.347 561.374 820.334 567.26C820.334 573.31 819.857 573.214 825.659 572.26C828.806 571.743 832.401 572.424 835.112 571.129C842.017 567.819 849.426 570.366 856.591 568.132C864.981 565.502 874.188 565.475 883.027 564.276C884.335 564.099 885.615 563.676 886.909 563.363C886.078 561.96 885.601 559.97 884.376 559.221C874.147 553.008 868.685 543.157 863.414 532.992C861.276 528.863 858.143 525.253 854.588 520.525M932.468 493.383C931.297 490.086 930.126 486.775 928.968 483.477C921.586 462.467 909.804 444.086 892.139 430.76C876.394 418.879 859.791 407.352 839.538 404.109C831.938 402.896 824.039 403.332 816.275 403.401C815.322 403.401 814.395 405.867 813.456 407.188C814.654 407.624 815.839 408.401 817.051 408.428C826.259 408.619 835.016 411.14 843.815 413.456C856.454 416.767 867.5 423.634 877.239 431.632C890.491 442.506 901.66 455.722 908.865 471.664C910.077 474.348 909.709 477.727 910.88 480.439C914.68 489.186 915.307 498.533 916.696 507.744C917.486 512.976 917.731 518.317 918.862 523.468C921.64 536.18 924.664 552.108 922.035 567.042C921.804 568.323 922.43 569.753 922.662 571.116C923.602 570.176 924.936 569.399 925.413 568.268C932.863 550.923 940.382 533.36 937.372 513.998C936.405 507.785 938.162 500.305 932.468 493.396M767.951 587.943C765.159 588.229 762.367 588.802 759.574 588.761C752.533 588.679 745.804 590.287 739.185 592.358C737.66 592.835 736.338 593.911 734.922 594.715C735.807 595.751 736.529 597.004 737.605 597.767C750.422 606.964 764.559 613.341 780.291 614.881C790.111 615.835 800.094 615.017 809.996 615.085C813.524 615.112 815.267 613.641 815.226 609.989C815.145 602.413 815.104 594.824 815.24 587.248C815.308 583.134 813.428 581.458 809.492 581.798C803.023 582.37 796.417 582.316 790.152 583.719C783.083 585.3 776.136 587.153 767.951 587.93M883.463 405.84C874.76 400.021 864.504 398.059 854.793 394.994C848.5 393.004 841.472 393.277 834.758 392.827C833.668 392.759 832.483 394.217 831.339 394.966C832.374 395.389 833.368 395.988 834.444 396.179C838.258 396.847 842.085 397.569 845.94 397.923C856.55 398.931 865.566 404.027 874.447 409.191C885.819 415.827 896.838 423.048 905.637 433.131C906.073 433.635 907.625 433.172 908.647 433.158C908.538 432.341 908.728 431.224 908.265 430.733C900.625 422.681 892.916 414.696 885.193 406.725C885.057 406.575 884.634 406.712 883.463 405.826M737.319 448.719C748.025 438.418 759.03 428.839 772.473 421.74C782.007 416.713 791.446 412.516 801.851 410.172C803.418 409.818 804.957 409.178 806.36 408.401C807.136 407.979 807.599 406.984 808.198 406.248C807.286 405.812 806.251 404.858 805.502 405.036C798.896 406.643 792.004 407.679 785.861 410.377C774.706 415.268 763.088 419.724 753.759 427.831C746.377 434.235 739.675 441.443 733.056 448.651C730.904 450.994 729.992 454.469 728.521 457.425C731.163 454.823 733.805 452.22 737.333 448.732M827.471 335.805C827.975 333.952 825.36 332.507 827.212 330.069C827.961 329.087 826.545 325.381 822.799 327.82C818.522 330.614 813.687 332.521 809.206 335.015C808.634 335.342 808.294 337.058 808.593 337.835C810.078 341.596 811.617 345.356 813.551 348.885C814.368 350.37 817.16 352.482 817.474 352.251C820.416 349.989 823.398 347.564 825.578 344.593C826.912 342.767 826.885 339.933 827.471 335.805M836.215 330.559C836.215 331.431 836.337 332.33 836.188 333.175C835.97 334.32 835.534 335.41 835.193 336.527C836.569 336.418 838.517 336.868 839.211 336.132C842.494 332.644 845.64 329.006 848.364 325.068C849.386 323.583 849.535 321.144 849.317 319.236C848.813 314.835 844.891 314.917 842.371 315.912C839.933 316.879 837.672 319.468 836.419 321.907C835.466 323.746 836.229 326.471 836.229 330.559M734.718 342.808C731.585 345.602 733.042 348.953 733.601 352.196C735.14 350.112 736.706 348.054 738.218 345.956C739.158 344.634 740.016 343.244 740.901 341.882C743.135 338.489 745.45 335.137 747.521 331.649C748.079 330.709 747.888 329.306 748.038 328.12C746.853 328.597 745.314 328.747 744.538 329.605C741.146 333.311 737.973 337.222 734.718 342.808M685.712 374.324C684.977 374.038 683.874 373.275 683.56 373.52C681.354 375.237 679.27 382.717 680.591 384.72C680.945 385.252 683.138 385.252 683.942 384.72C687.183 382.513 685.195 378.997 685.712 374.324ZM787.223 335.805C788.844 334.183 790.615 332.685 791.963 330.872C792.304 330.409 791.35 328.134 790.846 328.093C789.689 327.97 787.36 328.815 787.387 329.074C787.673 331.894 782.674 333.38 785.507 336.663C785.63 336.799 786.052 336.677 787.223 335.805M809.969 467.113C810.146 468.462 810.323 469.797 810.5 471.146C811.086 470.206 811.671 469.266 812.271 468.326C813.251 466.745 814.368 465.233 815.158 463.57C815.417 463.012 814.927 461.445 814.641 461.404C813.701 461.295 812.393 461.336 811.821 461.922C810.95 462.807 810.568 464.197 809.983 467.113M811.726 535.39C811.562 534.654 811.413 533.905 811.249 533.169C810.378 534.041 809.506 534.913 808.621 535.799C809.356 535.962 810.105 536.112 811.726 535.404V535.39Z" fill="#3C4043"/>
<path d="M317.574 490.385C327.04 485.725 335.593 480.548 345.482 478.068C354.076 475.901 362.507 473.449 371.482 473.217C375.609 473.108 379.655 473.749 384.04 471.95C387.377 470.588 392.171 473.34 396.271 473.204C411.825 472.686 426.372 476.923 440.972 481.529C455.669 486.161 470.61 490.154 484.053 497.879C506.581 510.81 523.769 527.978 531.819 553.852C537.212 571.17 537.798 588.625 536.422 605.983C534.91 625.045 530.334 643.998 524.137 662.052C519.097 676.727 515.148 692.001 505.94 705.354C501.827 711.322 498.599 718.638 493.505 723.544C484.434 732.291 475.908 741.992 464.413 747.96C456.962 751.816 449.757 756.19 442.116 759.61C431.547 764.324 420.992 769.938 409.837 772.254C398.682 774.557 386.982 776.397 375.16 772.949C367.233 770.633 358.475 771.205 350.48 769.039C338.998 765.932 327.789 761.558 318.132 754.337C310.914 748.941 303.858 743.205 297.375 736.965C293.221 732.959 290.061 727.863 286.779 723.039C281.78 715.682 275.134 709.891 269.018 703.596C267.602 702.138 265.055 700.83 264.878 699.236C264.101 692.205 259.103 693.963 254.949 693.949C242.118 693.908 229.288 693.935 216.458 693.935C214.715 693.935 212.876 694.249 211.242 693.826C210.002 693.513 208.422 692.464 208.054 691.374C207.741 690.461 208.667 688.758 209.525 687.872C212.808 684.466 217.166 683.335 221.647 683.498C231.427 683.839 241.179 684.793 250.972 685.12C259.212 685.392 259.198 685.174 255.453 677.735C249.787 666.453 246.259 654.531 244.447 642.023C243.78 637.458 240.293 632.199 241.683 628.67C244.161 622.388 237.678 616.298 242.636 610.534C243.508 609.526 242.772 607.142 242.759 605.384C242.622 591.009 247.675 577.874 253.423 565.189C259.893 550.909 268.433 537.815 280.514 527.378C283.919 524.449 287.351 521.642 286.847 515.865C286.615 513.249 289.353 509.502 291.805 507.69C299.95 501.667 307.441 494.555 317.588 490.399M403.789 609.022C404.334 609.063 404.865 609.104 405.41 609.144C404.865 608.804 404.334 608.477 403.789 607.264C404.62 602.182 399.894 599.607 398.273 595.546C395.672 589.047 391.354 583.243 387.65 577.206C387.364 576.743 386.138 576.852 385.348 576.702C385.429 577.316 385.348 578.038 385.634 578.542C389.311 585.191 392.893 591.895 396.802 598.421C398.845 601.841 401.46 604.921 403.803 609.022M510.558 544.247C509.727 542.257 508.95 540.241 508.079 538.265C501.895 524.258 493.342 511.982 480.294 503.629C472.571 498.683 464.808 493.996 455.301 492.048C446.965 490.331 438.602 488.75 430.226 487.197C425.622 486.339 420.883 488.873 416.919 487.033C411.226 484.417 405.56 485.589 400.017 485.807C393.765 486.039 387.568 488.832 381.343 488.873C372.245 488.927 363.433 489.827 354.811 492.593C343.248 496.312 330.963 497.934 320.502 504.815C316.416 507.499 312.14 509.924 307.89 512.363C291.655 521.724 278.198 534.45 267.643 549.574C257.713 563.813 252.116 580.477 248.193 597.413C246.681 603.953 245.496 611.147 246.681 617.579C247.893 624.146 247.689 630.564 248.043 637.049C248.111 638.207 247.703 639.529 248.125 640.524C253.192 652.732 254.499 666.317 261.977 677.68C264.496 681.509 264.714 688.145 271.974 683.716C284.504 688.867 296.967 683.131 309.416 682.844C320.761 682.586 332.256 679.22 343.834 680.051C354.757 680.828 365.599 677.108 376.522 679.874C378.17 680.296 380.485 680.637 381.67 679.806C387.214 675.964 394.174 680.405 399.554 676.427C410.913 678.266 421.959 674.301 433.236 674.655C435.579 674.724 435.048 674.083 434.053 672.38C430.757 666.794 428.033 660.867 424.792 655.239C418.676 644.625 412.479 634.065 406.105 623.601C400.275 614.022 393.043 605.125 388.508 595.001C383.618 584.074 376.454 574.441 372.027 563.336C371.414 561.81 370.27 560.311 367.669 562.627C360.641 568.936 355.302 576.416 349.826 584.006C338.113 600.247 328.851 617.933 318.595 635.019C313.76 643.072 310.709 652.201 305.752 660.281C304.839 661.779 303.477 663.387 301.938 664.055C298.479 665.554 294.706 666.289 291.233 667.747C289.734 668.374 288.604 669.982 287.419 667.625C286.629 666.058 285.144 664.218 285.458 662.829C286.152 659.722 287.46 656.643 289.053 653.863C293.916 645.347 298.737 636.79 304.131 628.615C310.968 618.246 317.874 607.864 325.596 598.162C337.8 582.834 348.996 566.987 357.113 549.056C358.72 545.514 361.567 542.884 357.072 539.137C355.37 537.72 354.866 534.041 354.988 531.466C355.111 528.972 356.269 524.967 357.849 524.462C360.505 523.631 361.322 526.574 361.989 529.408C362.983 533.646 364.441 533.551 367.356 529.981C368.827 528.182 370.393 526.22 372.354 525.157C373.716 524.408 376.127 524.49 377.543 525.225C378.796 525.88 380.336 528.332 379.968 529.327C377.911 534.859 380.921 538.878 383.414 543.088C387.84 550.596 392.716 557.872 396.68 565.598C399.989 572.042 402.482 578.937 405.002 585.763C409.265 597.277 416.456 607.237 422 618.069C430.907 635.455 443.247 650.797 454.552 666.725C455.709 668.374 457.48 670.936 458.828 670.868C465.366 670.5 466.142 676.372 469.043 679.724C471.563 682.64 470.569 688.077 467.736 688.472C460.762 689.453 453.271 691.51 446.761 689.93C439.774 688.254 432.868 688.049 426.426 689.044C418.159 690.311 409.837 691.101 401.556 692.028C391.368 693.172 381.003 692.832 370.829 694.113C365.149 694.821 359.32 694.808 353.831 696.007C346.735 697.56 339.748 699.113 332.447 699.249C329.737 699.304 327.067 700.394 324.343 700.694C317.628 701.443 310.818 702.806 304.185 702.247C301.829 702.056 299.854 703.16 297.729 702.656C295.863 702.206 294.719 704.672 291.982 702.996C289.435 701.443 285.185 702.601 281.685 702.683C279.124 702.751 278.729 704.155 280.241 705.953C283.878 710.313 287.405 714.81 291.41 718.802C295.836 723.203 301.216 726.705 305.37 731.324C315.436 742.51 328.756 748.873 341.287 756.381C345.373 758.833 350.249 760.169 354.934 761.381C364.495 763.861 373.607 768.507 383.918 767.458C390.088 766.832 396.285 766.45 402.427 765.646C407.617 764.978 412.874 764.284 417.886 762.853C430.049 759.378 441.422 754.037 450.915 745.549C457.82 739.363 463.677 731.978 470.787 726.078C477.951 720.137 481.356 711.812 486.627 704.686C496.801 690.938 501.732 674.737 506.785 658.823C509.931 648.903 510.517 638.18 512.301 627.825C513.418 621.298 514.862 614.826 515.733 608.259C516.619 601.541 518.253 594.538 517.177 588.052C516.183 582.084 516.305 576.225 515.747 570.339C514.957 562.028 514.889 553.526 510.558 544.206M476.426 734.171C481.37 729.225 486.695 724.579 491.163 719.238C495.18 714.414 498.286 708.814 501.786 703.569C498.408 694.726 507.248 692.478 510.53 687.218C510.789 686.796 510.421 686.033 510.585 685.501C514.862 672.108 521.072 659.395 523.442 645.306C525.54 632.921 530.334 620.835 531.151 608.436C532.037 594.811 532.186 581.008 530.198 567.137C528.277 553.825 522.257 542.911 515.665 531.956C513.513 528.373 510.408 525.362 507.684 522.133C507.234 521.601 506.472 521.329 505.859 520.933C505.913 521.928 505.668 523.073 506.063 523.904C508.651 529.259 511.634 534.423 514.004 539.859C517.218 547.203 518.389 554.997 519.738 562.954C521.999 576.253 521.059 589.415 520.759 602.536C520.514 613.218 517.245 623.792 515.897 634.501C514.33 647.078 511.416 659.327 507.684 671.372C499.961 696.211 486.259 717.548 468.812 736.624C467.069 738.531 465.625 740.725 464.031 742.796C466.428 741.665 468.975 740.766 471.195 739.335C472.871 738.259 474.124 736.515 476.439 734.199M311.894 503.071C322.777 499.133 332.216 491.898 344.052 489.977C352.047 488.682 359.687 485.221 367.669 483.995C376.617 482.619 385.784 482.701 394.855 482.047C400.779 481.611 406.69 481.311 412.615 482.047C414.331 482.251 416.102 482.128 417.845 482.047C418.349 482.019 418.826 481.638 419.316 481.406C418.84 480.793 418.458 480.044 417.859 479.594C417.232 479.117 416.429 478.654 415.666 478.613C404.852 477.973 394.037 477.182 383.223 476.937C378.824 476.842 374.384 478.558 369.984 478.463C359.497 478.218 350.044 482.319 340.442 485.303C332.039 487.933 324.057 492.116 316.157 496.149C306.651 500.999 298.233 507.499 290.96 515.347C290.375 515.974 290.524 517.282 290.334 518.277C291.151 517.813 292.036 517.432 292.799 516.887C298.887 512.581 304.948 508.262 311.881 503.071M451.024 677.285C451.582 676.086 452.155 674.901 452.618 673.674C452.645 673.606 451.446 672.843 451.31 672.966C449.989 674.179 448.763 675.5 447.524 676.795C448.395 677.244 449.267 677.708 451.024 677.285M405.519 614.254C406.677 614.254 407.821 614.281 408.979 614.295C407.821 613.695 406.677 613.096 405.519 614.254Z" fill="#3C4043"/>
<path d="M696.486 291.659C697.794 288.661 699.346 286.127 699.387 283.552C699.442 280.118 701.58 280.268 703.296 280.84C705.244 281.494 707.845 282.557 705.925 285.786C705.257 286.903 704.958 288.361 704.862 289.697C704.794 290.732 705.312 291.809 705.571 292.871C706.565 292.517 707.804 292.435 708.513 291.781C711.1 289.424 713.729 287.067 715.936 284.369C720.743 278.497 720.117 270.907 713.457 267.869C706.429 264.653 698.652 262.895 690.493 264.258C685.426 265.103 680.128 265.321 675.021 264.803C670.199 264.313 667.475 254.611 671.084 250.687C675.565 245.823 680.414 241.231 685.522 237.021C691.542 232.061 696.758 226.052 704.059 222.728C706.946 221.406 706.211 218.449 706.606 215.929C707.614 209.702 708.962 203.516 710.31 197.344C710.474 196.621 711.4 195.94 712.136 195.518C712.803 195.136 713.688 195.164 714.478 195C714.396 195.613 714.301 196.24 714.233 196.853C713.416 203.23 712.694 209.606 711.727 215.956C711.427 217.891 708.267 221.379 713.811 218.408C715.908 217.291 718.482 216.842 720.88 216.596C721.833 216.501 722.923 217.823 723.958 218.49C723.263 219.39 722.746 220.779 721.833 221.106C710.787 225.235 710.365 226.025 713.334 237.648C713.538 238.465 713.429 239.351 713.525 240.196C714.369 247.24 716.358 248.861 722.691 247.403C727.199 246.368 731.612 244.978 736.121 243.956C741.051 242.839 742.931 240.85 743.298 236.271C743.775 230.385 744.184 224.458 745.192 218.64C745.478 216.964 747.48 215.07 749.169 214.28C752.083 212.904 752.26 216.188 752.655 217.591C753.391 220.193 753.595 223.055 753.445 225.793C753.227 229.976 752.424 234.132 752.124 238.315C752.07 238.969 753.486 240.441 753.895 240.318C760.146 238.588 766.398 236.748 772.554 234.691C774.311 234.105 775.823 232.715 777.417 231.666C781.898 228.696 783.26 229.145 785.303 234.241C785.807 235.495 786.243 236.925 787.142 237.825C793.039 243.738 794.415 248.657 790.41 255.769C786.515 262.705 781.666 269.095 777.131 275.649C776.15 277.066 774.379 277.979 773.562 279.45C772.963 280.527 773.304 282.135 773.222 283.511C774.339 283.156 775.524 282.911 776.572 282.421C780.25 280.718 784.036 279.191 787.482 277.107C790.07 275.526 792.317 273.619 792.413 269.763C792.576 263.836 794.047 261.914 800.013 261.792C806.646 261.642 813.442 262.487 819.939 263.958C824.216 264.926 826.749 265.879 829.255 260.797C832.197 254.829 836.351 254.461 841.554 259.217C848.609 265.675 855.174 272.665 861.93 279.464C864.763 282.312 868.004 286.645 871.9 283.688C874.665 281.59 875.005 277.325 873.194 272.461C869.584 262.759 874.324 255.797 884.498 252.377C888.23 251.123 889.293 251.913 888.516 255.538C888.298 256.56 887.89 257.949 887.113 258.399C878.791 263.195 881.175 270.376 882.619 277.434C883.027 279.45 883.409 281.562 883.218 283.579C882.986 285.991 882.51 288.539 881.475 290.705C878.587 296.755 878.151 296.332 871.423 294.874C865.376 293.566 860.758 290.201 856.645 286.249C851.102 280.908 846.267 274.845 841.05 269.163C840.587 268.659 839.525 268.536 838.748 268.536C838.435 268.536 837.917 269.313 837.836 269.79C837.196 273.333 836.637 276.889 836.051 280.431C835.153 285.977 832.401 290.105 827.076 292.313C824.093 293.553 821.137 294.888 818.114 296.005C811.903 298.281 805.202 294.82 801.947 287.748C799.059 281.481 797.942 281.167 791.16 284.192C785.248 286.822 779.283 289.315 773.317 291.795C770.934 292.79 767.066 293.008 766.398 294.615C765.54 296.687 767.011 299.889 767.842 302.477C769.313 307.11 771.138 311.62 772.65 316.225C773.78 319.686 771.015 323.842 767.352 323.883C766.344 323.883 764.423 321.921 764.464 320.899C764.614 316.552 762.271 317.07 759.52 317.86C753.868 319.482 750.898 318.474 748.637 313.255C746.499 308.309 743.612 303.063 743.625 297.967C743.653 289.111 739.675 280.677 742.849 271.261C744.742 265.634 742.182 258.481 741.432 252.022C741.392 251.627 739.417 250.891 738.749 251.205C731.803 254.42 724.108 254.257 716.903 256.246C715.663 256.587 714.682 257.895 713.579 258.767C714.383 259.598 715.037 260.715 716.004 261.192C724.094 265.266 728.412 271.33 727.676 280.813C727.431 283.92 726.641 286.072 724.448 288.307C719.695 293.185 714.723 297.504 708.24 299.97C699.7 303.227 696.949 303.554 696.472 291.618M760.787 248.289C760.037 247.417 759.248 245.755 758.553 245.782C752.574 246.095 750.354 248.616 750.299 254.775C750.245 261.165 751.906 268.128 749.904 273.809C746.921 282.271 750.68 289.819 750.599 297.763C750.558 301.96 753.718 306.211 755.584 310.366C755.924 311.143 756.987 311.593 757.722 312.192C758.158 311.579 759.002 310.952 758.962 310.38C758.662 306.183 758.267 302 757.763 297.817C757.068 292.027 755.911 286.263 755.652 280.445C755.502 276.943 756.769 273.401 757.245 269.844C758.185 262.95 759.016 256.056 760.759 248.275M696.009 236.026C692.55 238.901 688.872 241.544 685.699 244.719C682.539 247.88 679.815 251.518 677.105 255.088C676.737 255.579 677.527 257.786 677.758 257.786C680.864 257.745 684.037 257.786 687.034 257.132C689.431 256.614 690.534 255.074 691.038 251.995C691.842 247.076 694.688 246.354 699.564 248.344C700.558 248.752 701.512 249.311 702.547 249.543C704.304 249.938 706.96 250.973 707.695 250.224C709.057 248.82 709.929 246.327 709.875 244.31C709.779 240.768 708.989 237.198 708.199 233.71C707.791 231.911 706.769 230.249 706.02 228.519C704.794 229.5 703.596 230.521 702.315 231.434C700.531 232.715 698.692 233.914 696.009 236.013M770.389 257.895C768.959 261.656 767.297 265.348 766.221 269.204C765.731 270.975 766.371 273.074 766.507 275.022C767.529 273.673 768.523 272.297 769.585 270.975C772.023 267.923 774.638 264.994 776.913 261.819C779.283 258.508 781.503 255.047 783.41 251.464C783.914 250.524 783.437 248.248 782.62 247.662C781.789 247.063 779.46 247.24 778.738 248.003C776.041 250.81 773.726 253.998 770.389 257.909M809.765 276.289C809.765 277.161 809.942 278.074 809.737 278.878C808.648 283.034 811.208 286.277 814.123 287.081C815.676 287.517 819.476 285.119 820.906 281.29C822.445 277.148 822.227 275.39 818.223 273.578C813.224 271.316 812.516 271.152 809.765 276.289V276.289Z" fill="#3C4043"/>
<path d="M398.518 826.974C393.506 827.56 389.393 828.391 385.252 828.65C382.106 828.841 380.199 829.467 379.096 832.983C378.075 836.266 375.841 839.291 373.648 842.03C372.749 843.147 370.325 843.938 368.99 843.529C367.996 843.229 367.138 840.776 367.151 839.305C367.178 837.493 368.472 835.735 368.663 833.896C368.772 832.819 367.791 831.62 367.301 830.489C366.62 831.143 365.571 831.702 365.34 832.479C364.577 835.095 364.032 837.793 363.542 840.49C362.888 844.033 362.67 847.671 361.69 851.118C360.545 855.151 356.173 856.786 353.163 854.075C349.826 851.077 346.707 847.576 344.378 843.76C339.611 835.967 334.422 833.623 325.378 836.294C322.886 837.03 320.475 838.024 318.023 838.896C320.175 840.872 322.341 842.82 324.466 844.823C325.95 846.227 327.844 847.467 328.661 849.211C329.451 850.9 329.846 853.475 329.11 855.042C328.007 857.359 325.501 857.699 323.322 855.887C320.339 853.421 317.233 851.05 314.605 848.243C312.998 846.513 312.494 843.774 310.927 841.989C309.77 840.667 307.754 839.986 306.01 839.264C299.813 836.702 293.575 839.223 287.364 839.441C285.907 839.496 283.633 841.894 283.306 843.515C282.053 849.906 277.395 854.47 274.943 860.206C273.431 863.763 270.149 863.831 267.261 860.942C266.417 860.097 265.899 857.795 266.444 856.882C268.841 852.862 271.306 848.761 274.48 845.382C277.149 842.548 274.058 841.226 273.309 841.185C269.631 840.994 265.886 841.185 262.235 841.717C257.346 842.425 252.538 843.733 247.648 844.414C245.346 844.741 242.35 845.682 242.65 840.994C242.99 835.694 243.508 834.332 247.784 834.005C255.997 833.378 264.197 832.547 272.423 832.342C277.013 832.233 279.56 830.639 281.372 826.32C285.172 817.273 290.579 808.893 290.266 798.401C290.197 796.303 292.908 793.496 295.046 792.229C296.081 791.616 299.01 793.537 300.658 794.859C303.109 796.821 305.071 799.369 307.441 801.454C310.955 804.574 309.688 808.784 309.034 812.027C307.876 817.709 310.328 822.287 312.167 826.933C313.175 829.495 315.735 831.825 319.876 829.781C322.477 828.5 326.046 828.418 329.015 828.854C334.095 829.604 334.436 826.797 333.7 823.35C333.033 820.202 331.793 817.15 330.568 814.166C327.844 807.53 325.038 801.031 319.562 795.922C316.239 792.829 318.623 786.929 323.308 785.907C324.193 785.716 325.569 786.479 326.345 787.201C332.434 792.842 334.667 800.595 337.201 808.048C341.041 819.357 345.89 830.149 351.76 840.504C352.237 841.335 353.368 841.812 354.185 842.452C354.389 841.662 354.648 840.872 354.771 840.068C356.541 828.554 358.053 816.986 360.164 805.527C360.831 801.917 362.766 798.374 364.877 795.322C365.599 794.287 368.922 794.205 370.583 794.859C372.817 795.744 372.422 797.42 370.938 799.628C367.192 805.214 369.099 811.782 368.908 817.954C368.895 818.594 370.842 820.011 371.605 819.848C374.397 819.221 376.563 817.968 378.292 815.052C384.953 803.852 390.796 791.997 401.011 783.318C401.896 782.569 402.536 781.247 403.517 780.947C405.587 780.307 407.807 780.157 409.973 779.803C410.082 781.969 411.158 785.28 410.164 786.111C402.564 792.474 405.914 797.856 410 804.642C419.221 819.957 414.917 816.973 432.215 815.174C435.443 814.834 438.752 814.493 441.939 814.875C443.873 815.106 445.658 816.728 447.51 817.722C445.712 819.058 444.091 821.061 442.076 821.606C438.071 822.668 433.835 822.845 429.722 823.54C428.415 823.758 426.862 824.153 426.045 825.039C425.364 825.775 425.336 827.383 425.513 828.541C425.622 829.236 426.589 829.89 427.284 830.394C430.281 832.574 430.825 835.585 429.545 838.705C428.891 840.3 420.311 838.964 419.739 836.648C416.824 824.726 407.617 827.069 398.491 827.015M389.747 813.88C389.202 815.665 388.617 817.45 388.194 819.262C388.181 819.344 390.033 820.216 390.333 819.943C393.86 816.837 398.069 818.84 401.91 818.267C403.571 818.022 405.247 817.886 406.922 817.695C406.105 816.087 405.383 814.411 404.443 812.872C403.313 810.991 402.114 809.125 400.738 807.421C397.184 803.007 396.652 803.143 393.207 808.321C392.267 809.738 390.905 810.869 389.733 813.894M300.481 820.897C294.679 818.308 296.994 826.197 293.221 826.633C292.567 826.715 292.213 829.508 291.723 831.048C292.254 831.211 292.813 831.593 293.316 831.525C295.223 831.266 297.157 830.421 298.982 830.626C302.919 831.062 302.428 828.5 302.156 826.293C301.993 825.026 301.066 823.867 300.481 820.897Z" fill="#3C4043"/>
<path d="M659.303 825.23C664.642 826.401 669.055 828.036 673.591 828.595C677.867 829.113 678.017 830.067 677.105 834.236C676.042 839.114 672.91 839.441 670.158 838.473C662.191 835.667 654.373 832.873 645.846 831.688C635.59 830.271 625.539 827.45 615.392 825.23C607.383 823.485 599.402 821.605 591.352 820.025C586.994 819.166 582.526 818.839 578.113 818.212C575.744 817.885 575.158 818.962 575.253 821.155C575.403 824.93 575.212 828.731 575.321 832.505C575.403 835.176 574.354 837.029 571.726 837.424C569.138 837.806 566.223 837.806 564.984 834.944C563.485 831.497 562.055 827.9 561.361 824.235C558.31 807.762 558.868 791.738 568.253 777.036C568.675 776.382 568.484 774.952 568.947 774.775C578.222 771.109 584.556 761.245 596.065 762.13C602.18 762.593 606.171 766.163 606.811 772.526C607.683 781.138 602.534 786.056 596.119 790.212C591.543 793.183 586.871 796.03 582.295 799.001C580.892 799.913 579.407 800.84 578.372 802.107C576.316 804.628 575.226 806.958 579.939 808.089C585.727 809.479 591.325 811.659 597.127 812.912C607.819 815.201 618.702 816.005 629.257 819.67C637.239 822.45 646.241 822.273 654.768 823.54C656.034 823.731 657.206 824.657 659.289 825.23M575.281 785.838C575.281 786.424 575.43 787.051 575.253 787.582C574.409 790.212 573.483 792.801 572.597 795.417C574.627 794.014 576.629 792.583 578.672 791.234C579.339 790.798 580.211 790.662 580.851 790.212C585.795 786.67 590.685 783.045 595.643 779.516C597.781 777.99 598.462 776.014 597.958 773.535C595.329 774.202 594.539 770.265 590.617 771.777C583.698 774.434 579.762 779.271 575.267 785.866L575.281 785.838Z" fill="#3C4043"/>
<path d="M916.138 296.919C914.912 296.278 913.836 296.333 913.373 295.829C908.592 290.556 903.022 286.454 896.92 282.762C887.113 276.849 887.508 268.632 897.696 263.318C902.027 261.057 903.335 258.332 904.806 253.481C907.911 243.248 911.221 232.484 919.379 224.595C922.471 221.597 924.596 222.224 925.863 226.189C926.149 227.088 925.767 228.396 925.291 229.323C922.839 234.146 920.251 238.902 917.718 243.684C916.465 246.082 914.953 248.385 914.095 250.919C913.427 252.922 913.577 255.211 913.373 257.378C914.817 256.315 916.111 254.884 917.731 254.258C922.512 252.404 927.32 250.511 932.264 249.257C945.258 245.987 958.524 244.788 971.899 245.742C979.553 246.287 984.579 251.274 983.04 256.465C982.59 258.005 981.978 259.653 980.956 260.811C979.812 262.092 978.709 264.763 976.189 262.433C974.65 261.002 973.043 259.653 975.467 257.487C975.808 257.187 974.922 254.598 974.541 254.585C968.044 254.326 961.329 252.909 955.187 253.222C945.312 253.726 935.615 257.596 925.849 260.062C924.269 260.457 922.485 260.634 921.232 261.52C917.827 263.918 911.943 263.182 911.316 269.177C910.635 275.745 911.493 282.217 917.513 285.691C921.518 288.008 922.212 290.883 921.668 294.398C921.327 296.619 920.224 299.794 916.124 296.905M900.815 271.085C900.815 272.475 900.679 273.892 900.883 275.241C900.951 275.718 902.15 276.535 902.368 276.412C905.215 274.777 904.956 272.693 900.815 271.085Z" fill="#3C4043"/>
<path d="M512.723 816.906C508.555 826.035 503.925 834.374 502.917 844.061C502.767 845.465 500.737 846.678 499.593 847.972C498.735 846.664 497.387 845.465 497.087 844.048C495.943 838.761 495.807 833.474 499.144 828.746C501.596 825.258 502.617 821.975 498.286 819.059C495.575 817.219 496.27 815.394 498.49 813.609C499.621 812.696 500.479 810.802 501.609 810.666C511.593 809.48 512.846 800.051 517.422 793.934C520.446 789.887 522.067 784.818 524.627 780.39C525.594 778.728 527.324 776.656 528.958 776.398C531.955 775.921 532.663 778.373 533.48 781.166C534.842 785.826 536.463 790.064 533.399 794.683C532.731 795.691 533.276 797.531 533.303 798.989C533.385 802.327 535.728 804.071 537.92 801.986C541.72 798.362 546.964 798.239 551.023 795.487C552.494 794.492 554.496 793.198 555.381 795.855C555.763 796.972 554.986 799.016 554.047 799.942C552.303 801.646 550.124 802.94 547.999 804.193C545.915 805.42 543.505 806.128 541.53 807.477C538.261 809.739 533.426 810.897 535.006 816.851C536.531 822.588 537.989 828.174 544.376 830.463C544.894 830.654 545.807 830.232 546.065 830.531C547.85 832.439 551.718 833.297 550.41 836.908C549.034 840.71 543.995 841.909 540.304 840.165C533.508 836.949 530.852 830.654 528.087 824.386C527.978 824.141 528.141 823.787 528.059 823.528C524.164 811.429 522.598 814.045 512.75 816.933M522.816 796.359C521.644 799.316 520.391 802.245 519.397 805.256C519.234 805.76 520.31 807.3 520.568 807.232C523.156 806.66 526.534 798.321 525.349 795.5C525.267 795.296 524.273 795.473 522.816 796.345V796.359Z" fill="#3C4043"/>
<path d="M440.523 788.456C434.693 788.456 429.736 788.66 424.792 788.347C423.048 788.238 421.387 786.821 419.684 786.003C421.278 783.905 422.572 781.425 424.574 779.858C425.663 779.013 427.952 779.708 429.695 779.708C441.64 779.708 453.585 779.763 465.529 779.681C471.291 779.64 471.536 779.095 472.094 773.304C472.38 770.348 473.252 767.405 474.165 764.557C474.451 763.658 475.731 763.072 476.548 762.35C477.379 763.467 478.714 764.489 478.918 765.715C479.299 767.977 479 770.361 479.041 772.691C479.15 779.245 481.778 781.18 488.411 779.722C491.367 779.068 494.322 778.482 497.305 777.978C500.097 777.515 503.067 778.114 503.366 781.139C503.679 784.341 500.86 784.859 497.973 785.036C492.947 785.349 487.921 785.881 482.99 786.862C481.492 787.161 479.49 789.028 479.204 790.472C478.428 794.383 477.951 798.498 478.264 802.463C478.904 810.352 479.381 817.982 477.801 826.008C476.603 832.098 478.319 838.843 479.19 845.233C479.381 846.623 481.778 847.577 482.582 849.048C483.44 850.615 483.603 852.564 484.066 854.348C481.697 854.171 478.605 854.839 477.147 853.599C475.023 851.787 473.593 848.735 472.762 845.942C471.522 841.731 470.501 837.317 470.405 832.957C470.106 820.435 470.337 807.899 470.269 795.364C470.269 793.129 470.637 790.077 469.411 788.865C467.899 787.379 464.372 786.249 462.601 787.012C455.587 790.077 448.423 787.543 440.55 788.47L440.523 788.456Z" fill="#3C4043"/>
<path d="M988.325 345.492C978.818 350.166 969.42 351.815 959.913 350.534C953.525 349.676 947.369 346.596 942.452 342.277C937.903 338.285 938.257 332.031 939.605 327.098C943.16 314.1 952.109 305.202 963.89 298.948C966.355 297.64 968.126 297.899 969.897 299.888C972.552 302.845 969.352 303.921 968.003 305.311C963.195 310.339 957.992 314.972 953.416 320.204C951.564 322.329 950.556 325.463 949.902 328.311C948.758 333.352 950.283 335.791 955.309 338.489C960.662 341.364 968.003 342.958 973.41 341.923C981.46 340.369 989.387 337.699 997.504 336.99C1004.38 336.391 1009.84 332.766 1016.04 330.832C1017.81 330.273 1019.32 328.202 1020.99 328.175C1023.31 328.134 1025.67 329.36 1028.01 330.041C1026.58 331.281 1025.32 332.834 1023.68 333.707C1012.81 339.429 1001.65 344.348 988.338 345.506L988.325 345.492Z" fill="#3C4043"/>
<path d="M561.728 433.472C564.112 429.221 565.91 425.188 571.358 426.046C574.695 426.564 575.662 428.567 573.837 431.796C572.216 434.657 570.105 437.246 568.293 440.012C561.143 450.953 556.798 463.23 551.663 475.125C551.023 476.61 550.764 478.395 550.832 480.003C551.078 485.139 546.937 486.339 543.627 488.205C543.137 488.478 541.72 487.905 541.244 487.32C536.831 481.883 532.023 476.678 528.346 470.778C524.055 463.925 520.759 456.444 517.123 449.196C516.591 448.133 516.591 446.811 516.346 445.612C517.722 445.612 519.588 445.026 520.378 445.694C523.674 448.555 527.038 451.498 529.653 454.946C532.936 459.278 535.564 464.129 538.384 468.803C539.528 470.71 540.467 472.74 541.503 474.716C542.851 472.645 544.499 470.71 545.493 468.489C549.13 460.368 552.467 452.125 556.09 443.991C557.629 440.53 559.549 437.26 561.742 433.458L561.728 433.472Z" fill="#3C4043"/>
<path d="M933.64 355.562C930.78 358.192 928.995 361.244 924.65 359.813C918.535 357.783 917.2 352.183 916.873 347.537C916.329 339.73 916.873 331.595 918.549 323.938C920.265 316.144 923.711 308.704 926.802 301.265C927.592 299.357 930.248 296.551 931.433 296.837C934.253 297.491 934.416 300.679 934.007 303.309C933.762 304.862 932.85 306.306 932.346 307.832C929.635 316.198 926.462 324.415 926.952 333.53C927.143 337.073 925.822 340.683 925.795 344.267C925.781 345.834 926.898 348.014 928.178 348.818C929.431 349.608 931.597 349.226 933.286 348.94C938.066 348.164 936.568 350.943 935.751 353.205C935.478 353.954 934.634 354.486 933.613 355.549L933.64 355.562Z" fill="#3C4043"/>
<path d="M350.834 652.338C340.047 647.555 339.393 645.634 342.39 635.088C343.738 630.319 343.643 625.141 344.283 620.168C344.814 616.039 345.032 611.816 346.122 607.851C347.647 602.305 353.204 600.793 357.44 604.867C359.933 607.265 362.411 607.837 365.694 608.314C376.127 609.84 386.233 612.728 393.316 621.394C396.816 625.673 397.674 629.978 395.277 635.878C390.237 648.25 381.384 653.182 368.649 653.85C362.725 654.163 356.95 655.403 350.848 652.365M383.659 625.659C381.643 624.228 379.6 622.852 377.639 621.367C375.351 619.65 374.098 619.705 374.016 623.002C373.866 628.888 372.068 634.597 373.852 640.701C375.228 645.457 374.492 645.729 379.096 643.14C380.526 642.337 381.657 640.974 383.128 640.293C385.661 639.094 388.072 638.44 388.208 634.638C388.331 631.041 387.214 628.588 383.672 625.659H383.659Z" fill="#3C4043"/>
<path d="M324.575 556.904C324.084 556.823 324.016 556.291 323.962 555.76C324.316 555.991 324.656 556.223 324.575 556.904Z" fill="#3C4043"/>
<path d="M343.834 654.081C343.752 654.571 343.221 654.639 342.689 654.694C342.921 654.34 343.153 653.999 343.834 654.081Z" fill="#3C4043"/>
<g clip-path="url(#clip0_3303_16555)">
<path d="M1491.17 776.25C1495.38 776.64 1498.97 775.41 1502.8 773.39C1512.23 768.42 1522.25 764.57 1531.68 759.59C1541.19 754.57 1550.19 748.59 1559.57 743.3C1570.2 737.3 1579.04 729.05 1587.85 720.84C1596.99 712.33 1606.11 703.68 1614.3 694.28C1623.5 683.73 1631.43 672.17 1638.51 659.99C1644.86 649.06 1649.78 637.54 1654.19 625.83C1657.31 617.56 1659.09 608.77 1661.24 600.15C1662.5 595.11 1663.31 589.96 1664.29 584.85C1665.32 579.5 1666.96 574.17 1667.19 568.78C1667.99 549.43 1668.91 530.05 1668.56 510.71C1668.39 501.13 1665.57 491.6 1665.73 481.85C1665.75 480.56 1664.63 479.3 1664.32 477.95C1662.26 468.76 1660.56 459.48 1658.19 450.37C1655.9 441.59 1653.44 432.8 1650.19 424.34C1642.69 404.8 1632.68 386.65 1620.12 369.76C1611.65 358.37 1602.06 348.13 1591.58 338.86C1582.92 331.2 1573.49 324.22 1563.21 318.56C1557.04 315.16 1551.46 310.67 1545.24 307.38C1539.11 304.14 1532.59 301.6 1526.1 299.11C1519.6 296.62 1513 294.27 1506.29 292.46C1499.91 290.74 1493.32 288.7 1486.84 288.78C1477.47 288.89 1469.14 284.92 1460.17 283.82C1458.82 283.65 1457.55 282.66 1456.21 282.55C1449.15 281.94 1442.07 281.55 1435.02 280.93C1434.13 280.85 1433.32 279.89 1432.47 279.34C1433.42 278.89 1434.51 277.88 1435.3 278.07C1442.57 279.87 1450.18 280.13 1457.43 280.54C1468.85 281.18 1479.39 285.9 1490.91 285.77C1497.61 285.7 1504.31 288.35 1511.06 289.53C1516.02 290.4 1521.1 290.62 1526.03 291.6C1532.23 292.83 1538.35 294.51 1544.48 296.09C1545.35 296.31 1546.17 297.59 1546.86 297.47C1553.27 296.37 1558.15 300.64 1563.81 302.12C1569.25 303.54 1574.01 306.76 1579.05 308.94C1594.47 315.61 1606.29 326.56 1617.03 338.7C1623.22 345.69 1627.54 354.33 1632.69 362.23C1640.24 373.83 1645.19 386.63 1649.62 399.62C1652.32 407.56 1654.39 415.71 1656.79 423.75C1660.78 437.15 1665.18 450.44 1668.68 463.96C1670.53 471.1 1670.49 478.71 1671.92 485.99C1673.99 496.54 1674.76 507.13 1674.98 517.87C1675.17 526.82 1677.07 535.74 1677.2 544.69C1677.36 555.6 1677.96 566.57 1675.01 577.4C1673.77 581.96 1674.26 586.98 1673.63 591.82C1672.34 601.75 1669.37 611.19 1666.89 620.74C1662.95 635.89 1655.75 649.77 1648.33 663.45C1643.02 673.24 1636.72 682.4 1629.81 691.18C1620.48 703.03 1610.34 714.12 1599.38 724.44C1591.65 731.72 1584.59 739.82 1574.85 744.78C1572.55 745.95 1571.16 748.8 1568.96 750.31C1565.71 752.55 1563 756.11 1558.2 755.3C1557.28 755.14 1555.84 755.99 1555.15 756.81C1549.2 763.87 1542.68 768.25 1533.77 772.18C1530.37 773.68 1527.41 776.17 1524.02 777.73C1517.08 780.93 1510.15 784.31 1502.92 786.71C1488.34 791.56 1473.64 796.08 1458.84 800.19C1452.45 801.96 1445.61 802.06 1439.08 803.45C1430.31 805.32 1421.39 805.99 1412.62 808.48C1402.26 811.43 1391.73 814.24 1380.87 815.75C1373.74 816.74 1366.25 817.17 1359.35 819.91C1358.92 820.08 1358.36 819.91 1357.85 819.93C1342.75 820.43 1327.59 821.98 1312.59 821.04C1303.5 820.47 1294.33 821.01 1285.36 819.79C1265.71 817.1 1245.92 814.79 1227.11 807.88C1206.69 800.38 1186.52 792.13 1169.34 778.53C1160.58 771.6 1153.17 762.93 1145.4 754.8C1141.81 751.04 1137.81 749.02 1132.64 749.15C1129.98 749.22 1127.05 749.89 1125.32 746.87C1123.34 743.42 1119.4 739.74 1121.09 736.04C1124.88 727.71 1118.87 723.46 1114.91 718.61C1110.48 713.2 1105.13 708.55 1100.13 703.61C1089.27 692.89 1080.44 680.77 1072.44 667.71C1063.86 653.71 1059.48 638.35 1054.83 623.05C1053.03 617.13 1053.32 610.49 1053.17 604.17C1052.78 587.58 1052.82 571 1057.61 554.86C1057.81 554.17 1057.37 553.09 1057.76 552.68C1062.76 547.4 1062.54 540.18 1063.32 533.98C1064.96 520.96 1069.6 508.93 1073.22 496.58C1078.99 476.92 1087.28 458.21 1096.91 440.18C1101.78 431.07 1108.34 422.88 1113.51 413.91C1120.81 401.24 1131.44 391.28 1140.38 379.97C1144.86 374.3 1151.22 370.12 1156.77 365.3C1158.03 364.2 1159.65 363.46 1160.73 362.23C1163.98 358.54 1168.07 356.14 1172.24 353.66C1178.53 349.92 1184.5 345.64 1190.55 341.5C1201.89 333.73 1212.81 325.26 1224.61 318.25C1239.78 309.23 1255.03 300.35 1271.85 294.25C1282.78 290.29 1293.67 286.24 1304.83 283.11C1311.66 281.19 1318.87 280.55 1325.93 279.5C1338.49 277.63 1351.16 277.1 1363.79 276.11C1369.59 275.66 1375.46 274.78 1381.25 275.09C1392.65 275.7 1404.11 276.34 1415.34 278.23C1421.66 279.29 1428.24 279.86 1434.33 283.19C1438.68 285.58 1444.45 285.22 1449.4 286.72C1457.84 289.27 1466.37 291.77 1474.45 295.27C1490.25 302.11 1505.95 309.31 1520.39 318.75C1528.22 323.87 1535.36 330.11 1542.53 336.18C1548.93 341.6 1554.8 347.63 1561.14 353.12C1573.21 363.58 1581.87 376.86 1590.11 390.12C1598.03 402.87 1604.81 416.49 1609.04 431.15C1612.78 444.08 1616.7 456.82 1618.02 470.44C1618.93 479.83 1619.38 489.16 1618.95 498.44C1618.55 506.94 1616.13 515.32 1615 523.81C1613.3 536.71 1607.93 548.48 1603.96 560.66C1601.82 567.23 1598.31 573.37 1595.22 579.6C1593.36 583.36 1590.84 586.81 1589.1 590.62C1583.35 603.24 1574.73 613.91 1566.67 625.02C1560.82 633.08 1554.34 640.54 1547.84 648.01C1546.01 650.11 1547.08 651.61 1548.6 652.12C1555.01 654.29 1555.8 660.6 1558.41 665.35C1560.52 669.19 1557.85 673.21 1555.83 676.6C1554.26 679.24 1554.84 681.47 1555.97 683.67C1562.94 697.23 1558.45 707.25 1544.78 709.98C1538.79 711.18 1533.76 713.84 1529.19 717.85C1525.21 721.34 1520.37 723.23 1515.03 723.56C1513.03 723.68 1511.02 723.52 1509.01 723.59C1501.45 723.85 1496.77 719.97 1494.24 713.2C1492.93 709.69 1489.88 709.16 1486.9 708.55C1479.99 707.13 1474 710.17 1468.82 713.82C1457.06 722.11 1444.96 729.93 1432.18 736.35C1418.74 743.1 1405.86 751.12 1391.14 755.38C1382.96 757.75 1375.44 762.29 1367.39 765.2C1361.25 767.42 1354.75 768.6 1348.4 770.25C1344.55 771.25 1340.75 772.51 1336.84 773.2C1330.02 774.41 1323.12 775.22 1316.28 776.32C1315.32 776.47 1314.46 777.27 1313.56 777.76C1314.46 778.27 1315.29 778.99 1316.25 779.24C1325.13 781.58 1333.77 784.78 1343.09 785.42C1347.49 785.72 1351.79 787.37 1356.15 788.29C1361.24 789.37 1366.32 790.91 1371.46 791.2C1386.04 792.03 1400.64 792.53 1415.24 792.72C1421.55 792.8 1427.91 792.11 1434.17 791.25C1448 789.35 1460.59 783.87 1472.8 777.35C1483.07 771.88 1493.66 766.98 1503.66 761.06C1510.41 757.06 1516.36 751.71 1522.7 747C1529.22 742.17 1535.77 737.39 1542.33 732.61C1542.69 732.35 1543.3 732.38 1543.6 732.08C1547.14 728.59 1550.98 725.33 1554.11 721.5C1564.56 708.68 1577.56 698.05 1586.18 683.64C1588.87 679.14 1592.48 675.2 1595.69 671.01C1595.99 670.61 1596.33 670.1 1596.76 669.97C1608.33 666.51 1610.49 654.82 1616.55 646.71C1620.16 641.87 1621.38 635.24 1623.66 629.41C1624.25 627.9 1624.47 626.14 1625.4 624.89C1626.17 623.86 1627.73 623.41 1628.94 622.71C1628.69 623.9 1628.59 625.16 1628.15 626.28C1625.58 632.99 1623.59 640.03 1620.17 646.28C1614.31 656.97 1607.48 667.12 1601.18 677.57C1594.52 688.63 1585.6 697.84 1577.45 707.72C1570.79 715.79 1563.5 723.13 1555.89 730.09C1544.62 740.39 1533.2 750.83 1520.48 759.12C1511.87 764.73 1502.99 770.78 1492.82 773.91C1492.17 774.11 1491.73 774.95 1490.81 775.86C1490.4 776.7 1490.36 777.17 1490.32 777.63C1490.61 777.16 1490.9 776.7 1491.18 776.23M1638.69 391.62C1638.83 392.26 1638.96 392.9 1639.1 393.54C1639.43 393.44 1639.76 393.34 1640.08 393.24C1639.62 392.45 1639.15 391.66 1638.68 390.12C1638.18 389.37 1637.68 388.61 1637.17 387.11C1636.82 385.75 1636.64 384.31 1636.08 383.05C1630.24 369.93 1623.32 357.41 1614.27 346.23C1605.22 335.05 1596.2 323.74 1582.89 317.08C1581.84 316.55 1580.9 315.73 1580.04 314.9C1577.05 312.04 1574.59 308.21 1569.44 309.52C1568.95 309.64 1568.19 308.95 1567.64 308.53C1561.28 303.66 1554.11 301.05 1546.13 300.49C1545.05 300.41 1544.07 299.46 1542.98 299.06C1537.54 297.06 1532.1 295.06 1526.61 293.21C1525.99 293 1525.05 293.75 1524.26 294.05C1524.75 294.71 1525.1 295.74 1525.74 295.98C1530.09 297.6 1534.58 298.84 1538.87 300.59C1550.59 305.37 1561.43 311.89 1571.83 318.97C1579.99 324.52 1587.65 330.8 1595.25 337.2C1604.32 344.83 1612.07 353.37 1619.06 362.73C1625.24 371 1631.14 379.48 1637.16 388.62C1637.66 389.37 1638.16 390.13 1638.67 391.63M1347.4 282.47C1352.26 282.12 1357.13 281.72 1362 281.49C1362.69 281.46 1363.42 282.23 1364.13 282.64C1363.71 283.09 1363.33 283.86 1362.85 283.92C1361.15 284.15 1359.36 283.9 1357.7 284.27C1349.69 286.1 1341.81 288.59 1333.72 289.88C1321.6 291.81 1309.94 295.41 1298.18 298.65C1280.46 303.53 1263.42 310.25 1246.79 318.12C1244.39 319.25 1242.22 320.32 1240.07 321.93C1233.3 327 1226.42 331.92 1218.52 335.26C1215.95 336.35 1213.79 338.41 1211.52 340.14C1210.85 340.65 1210.46 341.53 1209.94 342.24C1210.97 342.02 1212.07 341.95 1213.03 341.55C1219.46 338.83 1225.87 336.17 1231.78 332.26C1240.99 326.18 1251.97 323.93 1262.2 320.42C1287.38 311.77 1312.78 303.7 1339.12 298.84C1352.88 296.31 1366.54 293.32 1380.41 291.29C1384.75 290.66 1389.2 290.87 1393.33 289.86C1403.13 287.46 1412.98 286.75 1422.98 287.04C1424.13 287.07 1425.28 287.51 1426.43 287.77C1425.22 288.48 1424.08 289.56 1422.78 289.81C1420.86 290.19 1418.81 289.91 1416.83 290.04C1409.76 290.51 1402.38 289.9 1395.7 291.77C1383.07 295.3 1369.96 295.64 1357.33 298.93C1350.66 300.66 1343.5 300.49 1336.84 302.25C1319.25 306.9 1301.78 312 1284.33 317.16C1266.95 322.3 1250 328.72 1233.77 336.79C1223.75 341.77 1214.32 347.93 1204.41 353.14C1193.83 358.7 1184.36 365.15 1176.59 374.68C1165.88 387.81 1157.6 402.28 1149.4 416.92C1141.38 431.24 1136.23 446.68 1131.8 462.28C1129.5 470.39 1126.55 478.58 1126.77 487.36C1126.87 491.4 1126.54 495.7 1125.23 499.48C1122.54 507.23 1124.46 515.32 1122.64 523.18C1121.61 527.63 1123.79 532.73 1123.79 537.54C1123.78 551.26 1124.89 564.83 1126.57 578.47C1128.01 590.11 1129.98 601.71 1133.24 612.71C1140.11 635.91 1149.59 658.22 1163.02 678.6C1165.8 682.82 1168.74 686.2 1174.89 684.59C1178.24 683.71 1182.03 684.06 1185.38 686.29C1186.83 687.26 1189.06 687.45 1190.9 687.37C1198.73 687.02 1206.54 686.38 1214.36 685.94C1224.43 685.38 1234.51 684.92 1244.59 684.42C1244.84 684.41 1245.12 684.5 1245.34 684.41C1253.67 680.93 1262.63 683.96 1271.26 681.69C1278.31 679.84 1286.08 680.93 1293.38 679.79C1303.97 678.13 1314.54 676.83 1325.27 676.9C1326.27 676.9 1327.33 677.1 1328.27 676.87C1339.53 674.13 1351.23 675.26 1362.58 672.62C1370.11 670.87 1378.17 671.47 1385.98 670.84C1390.77 670.45 1395.68 670.24 1400.29 669.02C1405.89 667.55 1411.39 666.11 1417.23 666.34C1418.98 666.41 1420.79 666.61 1422.49 666.31C1430.41 664.9 1438.27 663.08 1446.23 661.92C1452.48 661.01 1458.85 660.81 1465.16 660.34C1467.31 660.18 1467.66 659.34 1466.58 657.53C1464.2 653.51 1461.83 649.48 1459.59 645.38C1453.89 634.95 1448.49 624.36 1442.57 614.06C1433.36 598.03 1423.81 582.19 1414.42 566.26C1408.01 555.37 1401.76 544.39 1395.23 533.58C1387.7 521.12 1380.05 508.73 1372.21 496.46C1367.36 488.88 1361.98 481.64 1356.99 474.15C1355.17 471.42 1353.67 472.65 1352.76 474.46C1349.41 481.08 1346.61 488 1343.06 494.51C1332.82 513.3 1325.05 533.2 1316.44 552.73C1314.94 556.14 1312.12 558.96 1310.61 562.36C1306.18 572.31 1302.14 582.43 1297.87 592.45C1295.6 597.78 1292.98 602.99 1290.59 608.23C1288.25 613.35 1288.49 619.31 1284.67 623.89C1282.27 626.77 1279.96 630.18 1283.34 634.22C1283.83 634.8 1283.09 636.49 1282.79 637.64C1282.04 640.58 1281.36 643.56 1280.36 646.42C1279.92 647.68 1278.98 649.38 1277.92 649.69C1274.4 650.71 1271.43 652.49 1266.97 651.69C1259.21 650.29 1250.98 651.77 1243.58 654.67C1240.54 655.86 1237.35 656.48 1235.14 655.59C1230.42 653.7 1226.25 650.42 1221.87 647.68C1221.73 647.59 1221.79 647.23 1221.71 647.01C1219.5 640.83 1219.48 634.26 1220.56 628.13C1221.11 624.99 1224.85 621.38 1228.01 620.07C1230.57 619.01 1230.76 618.2 1230.77 616.14C1230.77 611.81 1230.1 607.37 1232.73 603.41C1234.42 600.87 1235.96 598.23 1237.53 595.62C1241.27 589.39 1245.24 583.29 1248.61 576.87C1250.42 573.42 1250.84 569.26 1252.52 565.71C1255.01 560.45 1258.3 555.57 1260.81 550.32C1265.81 539.86 1270.8 529.38 1275.25 518.67C1281.74 503.04 1288.24 487.39 1293.74 471.41C1296.7 462.79 1300.41 454.6 1303.99 446.29C1306.69 440.02 1310.32 433.9 1309.07 426.56C1308.9 425.59 1308.87 424.52 1309.07 423.56C1310.33 417.71 1316.17 411.88 1320.14 413.73C1326.68 416.78 1333.22 414.7 1339.44 414.5C1345.41 414.32 1351.57 413.45 1357.64 413.6C1361.32 413.69 1363.47 412.13 1363.83 409C1364.43 403.68 1368.26 402.03 1372.3 400.76C1375.57 399.73 1379.84 397.89 1382.31 399.13C1388.92 402.45 1397.57 403.77 1399.76 412.99C1400.06 414.24 1401.62 415.4 1402.87 416.17C1410.97 421.14 1410.51 430.22 1412.53 437.73C1413.57 441.59 1414.32 445.66 1416.27 449.01C1421.35 457.76 1427.52 465.88 1432.38 474.73C1441.77 491.87 1450.45 509.39 1459.62 526.64C1464.23 535.3 1469.28 543.72 1474.14 552.24C1478.31 559.55 1482.74 566.72 1486.61 574.17C1492.07 584.68 1496.84 595.55 1502.41 605.99C1509.76 619.79 1517.63 633.3 1525.21 646.98C1528.26 652.49 1530.81 653.17 1535.02 648.81C1540.85 642.78 1546.45 636.53 1552.07 630.3C1555.34 626.68 1559.31 623.36 1561.51 619.15C1568.93 604.89 1581.56 594.35 1588.78 580.04C1593.49 570.71 1598.32 561.42 1602.46 551.84C1604.93 546.1 1606.7 539.93 1607.82 533.77C1609.13 526.56 1614.04 519.67 1610.23 511.8C1609.78 510.88 1611.09 509.21 1611.3 507.84C1612.1 502.71 1617.72 497.67 1611.65 492.36C1611.4 492.14 1611.44 491.3 1611.65 490.91C1613.37 487.54 1611.54 484.19 1611.49 480.86C1611.36 471.78 1610.79 462.7 1610.03 453.64C1609.74 450.17 1608.77 446.68 1607.59 443.39C1603.84 432.91 1600.46 422.23 1595.77 412.17C1590.54 400.96 1585.5 389.51 1577.33 379.9C1572.79 374.56 1568.44 369.04 1564.01 363.6C1561.87 360.98 1559.85 358.25 1557.59 355.74C1555.45 353.35 1553.07 351.16 1550.79 348.89C1549.73 347.83 1548.75 346.66 1547.57 345.75C1543.78 342.84 1539.93 340.01 1536.07 337.19C1527.6 330.99 1519.41 324.35 1510.56 318.77C1501.71 313.18 1492.3 308.46 1482.95 303.72C1473 298.68 1462.66 294.5 1451.87 291.56C1446 289.96 1440.04 288.65 1434.2 286.97C1432 286.34 1430.09 284.52 1427.89 284.11C1421.08 282.85 1414.17 281.12 1407.33 281.25C1399.95 281.38 1392.65 278.45 1385.2 280.88C1383.94 281.29 1382.15 279.97 1380.57 279.57C1378.29 278.99 1375.51 277.44 1373.78 278.21C1368.94 280.36 1364.08 279.07 1359.26 279.49C1357.58 279.64 1348.37 281.73 1345.9 282.52C1345.86 282.99 1345.83 283.45 1345.79 283.92C1346.08 283.45 1346.37 282.99 1347.41 282.52M1101.27 670.11C1102.78 673.75 1104.42 677.34 1105.76 681.04C1109.9 692.42 1115.37 703.03 1123.66 711.99C1124.21 712.58 1125.33 712.63 1126.19 712.94C1126.29 712.08 1126.62 711.17 1126.44 710.38C1124.73 702.94 1130.95 696.61 1138.55 697.9C1140.99 698.31 1143.56 698.07 1146.06 697.9C1146.72 697.85 1147.78 696.99 1147.87 696.39C1148.64 690.95 1151.44 687.8 1157.11 687.33C1157.5 687.3 1158.3 685.3 1157.99 684.83C1153.3 677.79 1148.79 670.72 1144.67 663.27C1137.85 650.95 1132.69 638.07 1128.5 624.79C1125.68 615.86 1124.51 606.41 1121.79 597.45C1118.11 585.33 1116.93 572.81 1115.02 560.43C1113.79 552.5 1114.24 544.3 1113.67 536.23C1112.83 524.24 1114.24 512.08 1114.88 500.01C1115.07 496.45 1115.28 492.69 1116.56 489.43C1119.46 482.04 1118.04 473.27 1123.84 466.86C1123.96 466.72 1123.83 466.37 1123.86 466.12C1125.09 456.25 1128.12 446.97 1132.91 438.26C1133.47 437.25 1134.13 436.21 1134.35 435.11C1135.93 427.25 1139.61 420.15 1143.21 413.21C1146.79 406.32 1151.75 400.13 1156.38 393.83C1159.11 390.11 1162.41 386.8 1165.32 383.2C1165.76 382.65 1165.51 381.53 1165.57 380.67C1164.89 380.63 1163.99 380.3 1163.57 380.61C1161.08 382.45 1158.57 384.29 1156.32 386.4C1152.48 389.99 1148.24 393.37 1145.22 397.58C1139.47 405.6 1134.67 414.3 1129.09 422.45C1117.39 439.53 1109.79 458.52 1102.85 477.81C1099.54 487 1096.68 496.37 1094.12 505.79C1092.51 511.72 1091.66 517.88 1090.79 523.98C1090.04 529.25 1090.59 534.87 1088.98 539.82C1087.46 544.51 1088.19 549.01 1087.72 553.57C1087.24 558.13 1086.29 562.69 1086.31 567.24C1086.36 575.82 1086.88 584.42 1087.32 592.98C1088.04 606.83 1090.08 620.36 1092.06 634.01C1093.8 645.98 1097.63 657.24 1101.27 670.13M1398.59 744.65C1407.39 739.87 1416.19 735.1 1424.97 730.3C1436.42 724.05 1447.86 717.79 1459.28 711.5C1459.76 711.23 1460.04 710.59 1460.41 710.12C1459.7 709.76 1458.93 709 1458.29 709.1C1453.85 709.81 1449.47 710.96 1445.02 711.46C1438.49 712.2 1431.74 711.79 1425.41 713.28C1421.01 714.31 1416.16 713.04 1412.56 714.78C1403.14 719.32 1393.01 716.3 1383.44 718.84C1377.42 720.44 1370.88 720.01 1364.57 720.56C1359.51 721 1354.44 721.41 1349.41 722.09C1343.04 722.95 1336.73 724.7 1330.35 724.93C1318.41 725.35 1306.61 726.71 1294.74 727.82C1284.86 728.74 1275.02 729.68 1265.17 730.92C1257.44 731.89 1249.56 730.9 1241.73 732.44C1235.32 733.7 1228.64 733.56 1222.09 734.16C1221.42 734.22 1220.82 735.13 1220.19 735.65C1220.6 736.14 1220.92 736.83 1221.44 737.08C1234.88 743.52 1246.72 752.88 1260.77 758.28C1269.62 761.68 1278.1 766.04 1286.83 769.78C1288.31 770.42 1290.2 770.19 1291.9 770.22C1302.37 770.41 1312.64 768.76 1323 767.41C1336.64 765.63 1349.77 761.92 1362.77 757.98C1374.47 754.43 1385.65 749.15 1398.57 744.64M1211.9 774.75C1205.63 771.74 1199.34 768.75 1193.09 765.7C1191.21 764.78 1189.5 763.45 1187.55 762.75C1177.68 759.19 1167.79 755.74 1159.25 749.32C1157.85 748.27 1155.76 748.05 1153.94 747.71C1153.07 747.55 1152.09 748 1151.16 748.18C1151.54 749.21 1151.66 750.48 1152.34 751.24C1162.76 762.94 1175.09 772.47 1188.31 780.59C1198.56 786.88 1209.72 791.72 1220.61 796.92C1225.82 799.41 1231.19 801.92 1236.77 803.22C1251.47 806.63 1266.26 809.76 1281.14 812.23C1289.31 813.59 1297.74 813.64 1306.06 813.83C1317.08 814.08 1328.11 813.89 1339.14 813.89C1340.64 813.89 1342.26 814.25 1343.63 813.83C1351.83 811.29 1360.41 812.41 1368.73 810.96C1373.96 810.05 1379.34 809.94 1384.63 809.32C1385.56 809.21 1386.39 808.33 1387.27 807.81C1386.35 807.33 1385.44 806.45 1384.51 806.43C1369.67 806.06 1354.74 807.56 1340.04 804.76C1333.45 803.5 1326.75 803.22 1320.16 802.25C1313.78 801.31 1307.5 799.96 1301.16 798.88C1291.53 797.24 1281.62 796.72 1272.26 794.15C1252.35 788.66 1232.37 783.19 1211.89 774.76M1084.71 524.09C1085.51 520.07 1084.6 516.12 1085.91 511.82C1089.17 501.12 1094.16 491.15 1097.27 480.33C1104.24 456.11 1115.93 433.8 1128.89 412.21C1130.24 409.96 1132.08 408.02 1133.59 405.86C1133.73 405.66 1132.89 404.43 1132.78 404.47C1131.47 404.92 1129.69 405.17 1129.02 406.15C1123.78 413.85 1116.31 419.81 1112.33 428.56C1109.15 435.54 1104.61 441.9 1101.35 448.85C1094.56 463.33 1088.15 477.99 1081.76 492.65C1080.37 495.83 1079.61 499.3 1078.76 502.68C1078.58 503.41 1079.24 504.35 1079.51 505.2C1079.74 504.54 1079.87 503.83 1080.21 503.24C1083.68 497.15 1087.35 491.16 1090.56 484.94C1091.3 483.49 1091.29 482.07 1093.19 483.07C1093.46 483.21 1093.06 485.12 1092.62 486.03C1088.24 495.01 1083.78 503.94 1079.36 512.89C1077.61 516.43 1074.67 519.91 1074.45 523.55C1074.06 530.1 1071.35 536 1070.77 542.57C1069.93 552.18 1069.1 561.84 1068.32 571.47C1067.91 576.45 1069.64 581.58 1069.57 586.63C1069.41 596.9 1070.38 607 1072.7 616.98C1074.45 624.51 1076.22 632.05 1078.27 639.51C1080.6 648.03 1083.88 656.23 1087.82 664.14C1090 668.51 1092.32 672.83 1094.8 677.04C1095.21 677.74 1096.78 677.76 1097.81 678.1C1097.46 677.37 1096.99 676.67 1096.78 675.9C1094.06 665.89 1085.95 657.27 1088.95 645.76C1088.98 645.64 1088.55 645.44 1088.45 645.23C1084.37 636.32 1082.51 626.89 1081.67 617.18C1081.28 612.64 1080.57 608.13 1079.92 603.62C1079.05 597.47 1077.99 591.35 1077.28 585.18C1077.14 583.96 1078.4 582.64 1078.65 581.29C1079.28 578.01 1080.9 574.26 1079.9 571.49C1078.57 567.79 1078.69 564.29 1078.78 560.72C1078.87 557.16 1080.31 553.57 1080.07 550.06C1079.47 541.42 1081.46 533.42 1084.71 524.08M1195.36 758.17C1197.66 758.67 1199.98 759.11 1202.26 759.69C1209.97 761.64 1217.62 763.93 1225.4 765.53C1232.41 766.97 1239.55 768.08 1246.68 768.58C1252.22 768.97 1257.58 769.7 1262.86 771.4C1263.57 771.63 1264.52 771.09 1265.37 770.91C1264.95 770.18 1264.71 769.06 1264.09 768.78C1260.51 767.14 1256.79 765.82 1253.21 764.18C1238.69 757.52 1224.85 749.64 1212.07 740.08C1207.66 736.78 1203.01 736.5 1198.29 737.34C1189.87 738.84 1181.75 741.93 1173 741.67C1171.63 741.63 1170.15 742.04 1168.9 742.61C1168.21 742.93 1166.58 743.61 1169.02 744.73C1177.66 748.72 1186.1 753.15 1195.37 758.17M1363.97 800.32C1372.29 800.82 1380.61 801.37 1388.94 801.76C1389.88 801.8 1390.86 800.94 1391.82 800.5C1390.98 799.94 1390.12 798.85 1389.31 798.89C1378.28 799.41 1367.57 796.7 1356.68 795.77C1352.61 795.42 1348.06 795.81 1344.6 794.1C1333.05 788.38 1319.61 789.82 1308.17 783.86C1305.76 782.6 1301.84 783.65 1299.99 782.05C1296.54 779.07 1292.9 779.23 1289.03 779.23C1284.76 779.23 1280.49 779.41 1276.24 779.19C1269.67 778.85 1263.08 778.45 1256.55 777.66C1251.15 777 1245.84 775.66 1240.47 774.77C1239.36 774.59 1238.13 775.1 1236.95 775.29C1237.87 775.82 1238.73 776.53 1239.71 776.86C1246.77 779.2 1253.72 782.6 1260.98 783.5C1273.98 785.12 1286 790.63 1299.21 791.55C1308.12 792.17 1316.9 795.17 1325.96 795.81C1331.03 796.17 1336.29 796.06 1341.1 797.46C1348.16 799.51 1355.47 798.58 1363.99 800.3M1260.09 308.07C1261.48 307.18 1262.76 305.99 1264.27 305.46C1277.41 300.88 1289.96 294.72 1303.58 291.33C1308.25 290.17 1313.71 290.96 1317.55 287C1321.9 290.44 1326.28 287.09 1330.58 286.84C1334.22 286.63 1337.79 285.02 1341.37 283.97C1342.06 283.77 1342.68 283.28 1343.33 282.93C1342.64 282.78 1341.95 282.51 1341.26 282.5C1332.28 282.38 1323.51 283.96 1314.66 285.35C1301.82 287.36 1289.9 292.09 1277.84 296.44C1269.35 299.5 1260.96 302.93 1252.75 306.66C1247.67 308.97 1242.98 312.15 1238.16 315.01C1237.64 315.32 1237.37 316.04 1236.98 316.58C1237.66 316.76 1238.49 317.29 1238.99 317.06C1245.55 314.13 1252.06 311.09 1260.09 308.08M1079.44 663.34C1073.32 649.47 1068.02 635.48 1064.64 620.5C1062.28 610.02 1063.19 599.43 1060.7 589.14C1059.92 585.91 1060.08 582.45 1059.81 579.09C1059.08 582.55 1058.33 586 1057.63 589.46C1057.53 589.94 1057.41 590.62 1057.65 590.94C1060.19 594.33 1058.48 598.36 1058.77 601.91C1059.42 609.86 1060.29 617.71 1062.14 625.45C1066.54 643.77 1073.15 661.12 1084.7 676.26C1085.12 676.81 1085.47 677.41 1085.86 677.99C1085.98 677.29 1086.42 676.43 1086.16 675.91C1084.25 671.93 1082.2 668.02 1079.44 663.34M1208.15 340.43C1210.72 338.17 1213.32 335.95 1215.84 333.63C1216.43 333.09 1216.74 332.24 1217.18 331.53C1216.28 331.74 1215.26 331.73 1214.51 332.18C1202.19 339.62 1190.38 347.76 1180.1 357.94C1179.57 358.47 1178.78 358.92 1178.57 359.55C1178.33 360.31 1178.58 361.24 1178.63 362.09C1179.31 362.02 1180.2 362.21 1180.63 361.84C1184.55 358.54 1188.24 354.96 1192.3 351.84C1197.18 348.09 1202.35 344.71 1208.15 340.42M1148.69 386.33C1154.01 381.01 1159.33 375.7 1164.63 370.36C1165.08 369.91 1165.39 369.31 1165.76 368.77C1164.83 368.6 1163.88 368.25 1162.97 368.32C1162.34 368.36 1161.66 368.87 1161.17 369.35C1153.88 376.6 1146.6 383.86 1139.38 391.17C1138.98 391.58 1139.1 392.49 1138.98 393.17C1139.51 393.09 1140.18 393.17 1140.55 392.89C1143.04 390.99 1145.47 389.02 1148.68 386.32M1510.74 780.01C1511.59 779.66 1512.59 779.47 1513.25 778.9C1513.66 778.55 1513.59 777.61 1513.63 776.93C1513.63 776.85 1512.91 776.56 1512.63 776.66C1506.36 779.01 1500.11 781.39 1493.86 783.79C1493.44 783.95 1493.08 784.29 1492.69 784.54C1493.59 784.79 1494.59 785.43 1495.36 785.22C1500.27 783.84 1505.12 782.27 1510.74 780.02M1166.75 375.81C1166.6 376.66 1166.45 377.51 1166.29 378.36L1168.93 376.63C1168.45 376.1 1167.97 375.58 1166.74 375.81M1537.08 765.71C1536.88 766.01 1536.68 766.31 1536.48 766.61C1536.93 766.56 1537.38 766.51 1537.08 765.71Z" fill="#1A73E8"/>
<path d="M1647.73 515.811C1647.73 511.291 1647.79 507.531 1647.72 503.771C1647.56 494.561 1646.58 485.451 1644.76 476.411C1644.1 473.141 1645.21 469.841 1643.47 466.381C1642.28 464.011 1643.58 460.411 1639.32 459.891C1639.04 459.861 1638.86 458.651 1638.7 457.971C1636.68 449.271 1634.81 440.541 1632.63 431.881C1630.81 424.641 1628.67 417.471 1626.64 410.281C1626.13 408.491 1625.88 406.481 1624.88 405.011C1619.18 396.661 1616.45 386.841 1611.48 378.201C1606.89 370.231 1601.31 362.831 1596.24 355.131C1595.69 354.291 1595.71 353.091 1595.46 352.061C1596.49 352.381 1597.75 352.421 1598.51 353.071C1600.01 354.331 1601.5 355.761 1602.51 357.411C1610.85 370.941 1619.9 384.101 1626.15 398.791C1631.7 411.831 1637.14 424.941 1640.22 438.881C1641.53 444.811 1643.33 450.631 1644.83 456.531C1645.87 460.631 1647.04 464.731 1647.64 468.901C1648.43 474.421 1648.17 480.131 1649.32 485.551C1652.03 498.361 1650.56 511.261 1650.52 524.081C1650.5 531.771 1651 539.771 1647.73 547.191C1647.54 547.611 1647.76 548.191 1647.7 548.681C1647.43 550.741 1647.13 552.801 1646.84 554.861C1643.86 553.051 1644.83 550.091 1644.71 547.471C1644.65 546.221 1644.17 544.471 1644.79 543.791C1647.94 540.351 1647.6 536.631 1647.18 532.341C1646.66 527.161 1647.48 521.851 1647.71 515.841L1647.73 515.811Z" fill="#1A73E8"/>
<path d="M1633.8 605.759C1634.18 604.909 1634.03 604.069 1634.2 603.999C1637.14 602.779 1635.63 605.499 1635.56 605.969C1635.4 607.079 1634.53 609.029 1634.11 608.989C1631.87 608.759 1632.42 607.409 1633.8 605.759Z" fill="#1A73E8"/>
<path d="M1638.69 592.589C1635.97 590.659 1637.93 589.699 1638.99 588.579C1639.14 588.419 1639.65 588.599 1639.99 588.629C1639.81 589.949 1639.62 591.269 1638.69 592.599V592.589Z" fill="#1A73E8"/>
<path d="M1346.65 547.42C1355.52 542.8 1363.39 543.78 1370.34 549.47C1375.52 553.71 1380.45 558.49 1384.48 563.79C1386.56 566.52 1386.68 570.89 1387.24 574.59C1388.19 580.78 1386.66 586.18 1381.43 590.22C1378.16 592.74 1375.16 595.6 1371.91 598.14C1368.33 600.93 1364.02 600.2 1359.95 600.03C1356.88 599.9 1353.81 598.55 1350.8 598.72C1346.12 598.99 1342.08 597.14 1339.05 594.45C1334.55 590.45 1330.64 585.61 1327.17 580.65C1321.91 573.14 1322.58 559.6 1328.72 553.89C1332.27 550.59 1334.79 544.83 1341.25 545.94C1342.84 546.21 1344.35 546.91 1346.65 547.41V547.42Z" fill="#1A73E8"/>
<path d="M1376.38 281.34C1376.59 281.89 1376.41 282.21 1376.24 282.21C1373.94 282.11 1371.64 281.97 1369.34 281.84C1371.56 281.55 1373.78 281.26 1376.37 281.34H1376.38Z" fill="#1A73E8"/>
</g>
<defs>
<clipPath id="clip0_3303_16555">
<rect width="624.34" height="546.31" fill="white" transform="translate(1053 275)"/>
</clipPath>
</defs>
</svg>
