<svg xmlns="http://www.w3.org/2000/svg" width="1920" height="1080" fill="none"><path fill="#1A73E8" d="M1053.93 754.664v-3.24h13.93v3.24h-13.93Zm4.03-18.792h5.48l7.77 25.128h-3.92l-5.08-16.632-1.51-5.508-1.51 5.544-5.15 16.596h-3.85l7.77-25.128ZM1075.69 761v-2.664l9.11-10.476 3.49-3.744-5.18.036h-6.92V741.2h16.46v2.592l-9.15 10.512-3.53 3.78 5.19-.036h7.49V761h-16.96Zm32.05.432c-2.04 0-3.8-.408-5.29-1.224a8.425 8.425 0 0 1-3.42-3.564c-.79-1.56-1.19-3.42-1.19-5.58s.4-4.008 1.19-5.544c.82-1.536 1.97-2.712 3.46-3.528 1.51-.816 3.31-1.224 5.4-1.224 3.19 0 5.57.888 7.13 2.664 1.56 1.752 2.24 4.164 2.05 7.236h-16.35l.04-2.736 12.6.036c-.1-1.272-.65-2.292-1.66-3.06-1-.768-2.28-1.152-3.81-1.152-2.07 0-3.65.648-4.75 1.944-1.11 1.296-1.66 3.132-1.66 5.508 0 1.416.24 2.676.72 3.78.5 1.08 1.22 1.92 2.16 2.52.94.6 2.06.9 3.38.9 1.56 0 2.86-.372 3.89-1.116 1.06-.744 1.71-1.752 1.95-3.024h3.63c-.31 2.232-1.31 3.984-2.99 5.256-1.68 1.272-3.84 1.908-6.48 1.908Zm28.6-11.736v-2.376c0-1.032-.31-1.86-.93-2.484-.63-.648-1.53-.972-2.7-.972-1.49 0-2.82.564-4 1.692-1.18 1.104-2.11 2.796-2.81 5.076l-.5-3.672c.53-1.368 1.16-2.508 1.91-3.42.76-.912 1.64-1.596 2.62-2.052 1.01-.48 2.12-.72 3.32-.72 1.99 0 3.61.576 4.86 1.728 1.24 1.128 1.87 2.736 1.87 4.824v2.376h-3.64ZM1122.95 761v-19.8h3.42l.22 4.5V761h-3.64Zm31.62.432c-2.04 0-3.8-.408-5.29-1.224a8.425 8.425 0 0 1-3.42-3.564c-.79-1.56-1.19-3.42-1.19-5.58s.4-4.008 1.19-5.544c.82-1.536 1.97-2.712 3.46-3.528 1.51-.816 3.31-1.224 5.4-1.224 3.19 0 5.56.888 7.12 2.664 1.56 1.752 2.25 4.164 2.06 7.236h-16.35l.04-2.736 12.6.036c-.1-1.272-.65-2.292-1.66-3.06-1.01-.768-2.28-1.152-3.81-1.152-2.07 0-3.65.648-4.76 1.944-1.1 1.296-1.65 3.132-1.65 5.508 0 1.416.24 2.676.72 3.78.5 1.08 1.22 1.92 2.16 2.52.93.6 2.06.9 3.38.9 1.56 0 2.86-.372 3.89-1.116 1.06-.744 1.7-1.752 1.94-3.024h3.64c-.31 2.232-1.31 3.984-2.99 5.256-1.68 1.272-3.84 1.908-6.48 1.908Zm24.82-.432c-1.22 0-2.27-.24-3.13-.72-.87-.504-1.51-1.212-1.95-2.124-.43-.912-.64-1.98-.64-3.204v-17.496l3.63-1.98v19.476c0 .576.09 1.104.25 1.584.17.48.5.852.98 1.116.5.264 1.23.396 2.19.396h5.94V761h-7.27Zm-10.4-16.848V741.2h14.5v2.952h-14.5ZM1213.83 761l1.88-25.128h5l3.2 14.868.76 4.896.79-4.896 3.13-14.868h4.94l1.9 25.128h-3.78l-.82-15.732-.15-5.544-1.08 5.544-3.42 15.732h-3.24l-3.38-15.732-1.01-5.616-.22 5.616-.79 15.732h-3.71Zm34.15.432c-2.04 0-3.81-.42-5.3-1.26-1.46-.84-2.59-2.028-3.38-3.564-.79-1.56-1.19-3.396-1.19-5.508 0-2.16.4-3.996 1.19-5.508.79-1.536 1.92-2.724 3.38-3.564 1.49-.84 3.27-1.26 5.33-1.26 3.07 0 5.49.924 7.24 2.772 1.75 1.824 2.63 4.344 2.63 7.56 0 2.112-.4 3.948-1.19 5.508a8.425 8.425 0 0 1-3.42 3.564c-1.47.84-3.23 1.26-5.29 1.26Zm.03-3.024c1.92 0 3.43-.648 4.54-1.944 1.13-1.32 1.69-3.108 1.69-5.364 0-2.28-.56-4.068-1.69-5.364-1.11-1.296-2.62-1.944-4.54-1.944-1.94 0-3.47.648-4.57 1.944-1.1 1.296-1.66 3.084-1.66 5.364 0 2.256.56 4.044 1.66 5.364 1.1 1.296 2.63 1.944 4.57 1.944Zm28.74 2.592v-12.492c0-1.392-.39-2.508-1.18-3.348-.8-.864-1.83-1.296-3.1-1.296-1.46 0-2.77.54-3.92 1.62-1.13 1.056-2.03 2.712-2.7 4.968l-.58-4.068c.74-1.872 1.81-3.276 3.2-4.212 1.42-.936 2.96-1.404 4.61-1.404 1.49 0 2.77.324 3.85.972 1.11.624 1.96 1.5 2.56 2.628.6 1.128.9 2.46.9 3.996V761h-3.64Zm-14.11 0v-19.8h3.46l.18 4.464V761h-3.64Zm32.16.432c-2.04 0-3.8-.42-5.29-1.26-1.46-.84-2.59-2.028-3.38-3.564-.79-1.56-1.19-3.396-1.19-5.508 0-2.16.4-3.996 1.19-5.508.79-1.536 1.92-2.724 3.38-3.564 1.49-.84 3.27-1.26 5.33-1.26 3.07 0 5.48.924 7.24 2.772 1.75 1.824 2.62 4.344 2.62 7.56 0 2.112-.39 3.948-1.18 5.508-.8 1.536-1.94 2.724-3.42 3.564-1.47.84-3.23 1.26-5.3 1.26Zm.04-3.024c1.92 0 3.43-.648 4.54-1.944 1.12-1.32 1.69-3.108 1.69-5.364 0-2.28-.57-4.068-1.69-5.364-1.11-1.296-2.62-1.944-4.54-1.944-1.94 0-3.47.648-4.57 1.944-1.11 1.296-1.66 3.084-1.66 5.364 0 2.256.55 4.044 1.66 5.364 1.1 1.296 2.63 1.944 4.57 1.944Zm40.92-7.92v-3.24h6.38c1.05 0 1.98-.168 2.77-.504.81-.36 1.45-.864 1.91-1.512.48-.648.72-1.392.72-2.232 0-.816-.21-1.512-.62-2.088-.4-.576-.96-1.02-1.65-1.332-.7-.312-1.48-.468-2.34-.468h-7.17v-3.24h7.17c1.65 0 3.13.288 4.43.864 1.29.552 2.31 1.356 3.06 2.412.74 1.056 1.11 2.34 1.11 3.852 0 .96-.23 1.884-.68 2.772-.43.888-1.07 1.692-1.91 2.412-.82.696-1.81 1.26-2.99 1.692-1.17.408-2.51.612-3.99.612h-6.2ZM1333.03 761v-25.128h3.81V761h-3.81Zm14.43 0a12.11 12.11 0 0 0-.93-3.348 13.606 13.606 0 0 0-1.87-3.168c-.8-1.008-1.78-1.944-2.96-2.808-1.15-.864-2.49-1.644-4.03-2.34l4.25-.936c1.58.792 2.94 1.68 4.07 2.664 1.15.96 2.1 1.98 2.84 3.06.77 1.08 1.35 2.196 1.73 3.348a14.9 14.9 0 0 1 .79 3.528h-3.89Zm17.84.432c-2.04 0-3.81-.408-5.29-1.224a8.425 8.425 0 0 1-3.42-3.564c-.8-1.56-1.19-3.42-1.19-5.58s.39-4.008 1.19-5.544c.81-1.536 1.96-2.712 3.45-3.528 1.51-.816 3.31-1.224 5.4-1.224 3.19 0 5.57.888 7.13 2.664 1.56 1.752 2.24 4.164 2.05 7.236h-16.34l.03-2.736 12.6.036c-.09-1.272-.64-2.292-1.65-3.06-1.01-.768-2.28-1.152-3.82-1.152-2.06 0-3.65.648-4.75 1.944-1.1 1.296-1.66 3.132-1.66 5.508 0 1.416.24 2.676.72 3.78.51 1.08 1.23 1.92 2.16 2.52.94.6 2.07.9 3.39.9 1.56 0 2.85-.372 3.89-1.116 1.05-.744 1.7-1.752 1.94-3.024h3.64c-.32 2.232-1.31 3.984-2.99 5.256-1.68 1.272-3.84 1.908-6.48 1.908Zm28.7-17.388.11-2.844h3.42v17.64c0 2.928-.79 5.16-2.37 6.696-1.56 1.536-3.93 2.304-7.1 2.304-1.75 0-3.27-.24-4.57-.72-1.27-.48-2.28-1.2-3.02-2.16-.72-.936-1.13-2.112-1.23-3.528h3.78c.12 1.08.6 1.908 1.44 2.484.87.6 2.13.9 3.78.9 1.88 0 3.28-.48 4.22-1.44.96-.96 1.44-2.328 1.44-4.104v-2.628a7.126 7.126 0 0 1-2.7 2.376c-1.11.576-2.34.864-3.71.864-1.71 0-3.22-.408-4.54-1.224-1.29-.816-2.31-1.944-3.06-3.384-.74-1.464-1.11-3.108-1.11-4.932 0-1.968.38-3.66 1.15-5.076.77-1.44 1.82-2.544 3.17-3.312 1.34-.792 2.86-1.188 4.57-1.188 1.37 0 2.6.3 3.71.9 1.1.6 1.98 1.392 2.62 2.376Zm-5.72 12.996c1.3 0 2.45-.372 3.46-1.116 1.03-.768 1.75-1.8 2.16-3.096v-5.004c-.41-1.296-1.13-2.316-2.16-3.06-1.01-.768-2.16-1.152-3.46-1.152-1.18 0-2.21.288-3.1.864-.86.576-1.54 1.368-2.05 2.376-.48.984-.72 2.136-.72 3.456 0 1.296.24 2.46.72 3.492.51 1.008 1.19 1.8 2.05 2.376.89.576 1.92.864 3.1.864Zm18.12-15.84v12.492c0 1.392.4 2.52 1.19 3.384.79.84 1.82 1.26 3.1 1.26 1.46 0 2.76-.528 3.88-1.584 1.16-1.08 2.07-2.748 2.74-5.004l.58 4.068c-.75 1.872-1.83 3.276-3.24 4.212-1.4.936-2.92 1.404-4.58 1.404-1.48 0-2.78-.312-3.88-.936a6.733 6.733 0 0 1-2.52-2.664c-.6-1.128-.9-2.46-.9-3.996V741.2h3.63Zm14.11 0V761h-3.45l-.18-4.464V741.2h3.63Zm13.02 19.8v-26.46h3.63V761h-3.63Zm-7.31 0v-2.952h18.29V761h-18.29Zm2.63-23.508v-2.952h6.48v2.952h-6.48ZM1463.92 761l-.14-4.5v-8.46c0-1.416-.47-2.52-1.4-3.312-.92-.816-2.18-1.224-3.78-1.224-1.56 0-2.84.36-3.82 1.08-.98.696-1.52 1.668-1.62 2.916h-3.56c.12-1.416.57-2.616 1.36-3.6.8-1.008 1.85-1.776 3.17-2.304 1.32-.552 2.85-.828 4.57-.828 1.78 0 3.32.3 4.61.9 1.3.576 2.29 1.416 2.99 2.52.72 1.104 1.08 2.448 1.08 4.032V761h-3.46Zm-7.16.432c-1.3 0-2.44-.228-3.42-.684-.98-.48-1.75-1.152-2.3-2.016-.56-.888-.83-1.92-.83-3.096 0-2.04.78-3.624 2.34-4.752 1.58-1.128 3.79-1.692 6.62-1.692h5.08v2.7h-5.22c-1.63 0-2.92.312-3.85.936-.92.624-1.37 1.5-1.37 2.628 0 .936.32 1.668.97 2.196.67.528 1.57.792 2.7.792 1.44 0 2.71-.384 3.82-1.152 1.12-.792 2.04-1.872 2.73-3.24l.4 2.664c-.63 1.512-1.59 2.676-2.88 3.492-1.3.816-2.89 1.224-4.79 1.224Zm30.79-11.736v-2.376c0-1.032-.31-1.86-.93-2.484-.63-.648-1.53-.972-2.7-.972-1.49 0-2.82.564-4 1.692-1.17 1.104-2.11 2.796-2.81 5.076l-.5-3.672c.53-1.368 1.16-2.508 1.91-3.42.77-.912 1.64-1.596 2.63-2.052 1-.48 2.11-.72 3.31-.72 1.99 0 3.61.576 4.86 1.728 1.25 1.128 1.87 2.736 1.87 4.824v2.376h-3.64ZM1474.16 761v-19.8h3.42l.22 4.5V761h-3.64Zm29.18-13.284v-4.464h4.46v4.464h-4.46Zm0 13.284v-4.464h4.46V761h-4.46Zm-442.1 42.432c-1.75 0-3.3-.3-4.64-.9-1.32-.624-2.34-1.488-3.06-2.592-.72-1.128-1.1-2.472-1.12-4.032h3.42c0 1.464.49 2.616 1.48 3.456.98.84 2.28 1.26 3.88 1.26 1.37 0 2.46-.252 3.28-.756.84-.528 1.26-1.236 1.26-2.124 0-.696-.24-1.248-.72-1.656-.46-.432-1.07-.768-1.84-1.008-.76-.24-1.62-.444-2.55-.612-.91-.192-1.84-.408-2.77-.648-.92-.264-1.76-.588-2.52-.972a5.345 5.345 0 0 1-1.88-1.62c-.48-.672-.72-1.548-.72-2.628 0-1.128.33-2.124.98-2.988.64-.888 1.56-1.584 2.73-2.088 1.2-.504 2.62-.756 4.25-.756 2.47 0 4.45.576 5.94 1.728 1.51 1.128 2.33 2.688 2.45 4.68h-3.42c-.07-1.152-.55-2.04-1.44-2.664-.87-.648-2.04-.972-3.53-.972-1.39 0-2.46.276-3.2.828-.72.552-1.08 1.248-1.08 2.088 0 .648.24 1.164.72 1.548.48.36 1.1.648 1.87.864.77.192 1.61.372 2.52.54.93.144 1.86.336 2.77.576.94.24 1.79.576 2.56 1.008.76.408 1.38.972 1.83 1.692.48.72.72 1.656.72 2.808 0 1.848-.74 3.3-2.23 4.356s-3.47 1.584-5.94 1.584Zm23.09 0c-2.04 0-3.8-.408-5.29-1.224a8.425 8.425 0 0 1-3.42-3.564c-.79-1.56-1.19-3.42-1.19-5.58s.4-4.008 1.19-5.544a8.445 8.445 0 0 1 3.45-3.528c1.52-.816 3.32-1.224 5.4-1.224 3.2 0 5.57.888 7.13 2.664 1.56 1.752 2.25 4.164 2.05 7.236h-16.34l.04-2.736 12.6.036c-.1-1.272-.65-2.292-1.66-3.06-1.01-.768-2.28-1.152-3.82-1.152-2.06 0-3.64.648-4.75 1.944-1.1 1.296-1.65 3.132-1.65 5.508 0 1.416.24 2.676.72 3.78.5 1.08 1.22 1.92 2.16 2.52.93.6 2.06.9 3.38.9 1.56 0 2.86-.372 3.89-1.116 1.05-.744 1.7-1.752 1.94-3.024h3.64c-.31 2.232-1.31 3.984-2.99 5.256-1.68 1.272-3.84 1.908-6.48 1.908Zm23.77 0c-2.04 0-3.81-.42-5.32-1.26-1.49-.864-2.64-2.064-3.46-3.6-.82-1.56-1.22-3.384-1.22-5.472 0-2.136.42-3.972 1.26-5.508.84-1.56 2.01-2.748 3.52-3.564 1.52-.84 3.28-1.26 5.3-1.26 1.6 0 3.04.3 4.32.9 1.29.576 2.34 1.404 3.13 2.484.81 1.08 1.28 2.364 1.4 3.852h-3.63c-.2-1.344-.77-2.376-1.73-3.096-.94-.744-2.1-1.116-3.49-1.116-1.3 0-2.43.3-3.39.9-.96.576-1.7 1.404-2.23 2.484s-.79 2.388-.79 3.924c0 2.28.57 4.068 1.73 5.364 1.17 1.296 2.71 1.944 4.6 1.944.87 0 1.67-.168 2.42-.504a5.296 5.296 0 0 0 1.9-1.44c.53-.648.89-1.392 1.08-2.232h3.68c-.24 1.488-.8 2.772-1.66 3.852-.84 1.056-1.91 1.884-3.2 2.484-1.28.576-2.68.864-4.22.864Zm22.81 0c-2.04 0-3.81-.42-5.3-1.26-1.46-.84-2.59-2.028-3.38-3.564-.79-1.56-1.19-3.396-1.19-5.508 0-2.16.4-3.996 1.19-5.508.79-1.536 1.92-2.724 3.38-3.564 1.49-.84 3.27-1.26 5.33-1.26 3.07 0 5.49.924 7.24 2.772 1.75 1.824 2.63 4.344 2.63 7.56 0 2.112-.4 3.948-1.19 5.508a8.425 8.425 0 0 1-3.42 3.564c-1.47.84-3.23 1.26-5.29 1.26Zm.03-3.024c1.92 0 3.43-.648 4.54-1.944 1.13-1.32 1.69-3.108 1.69-5.364 0-2.28-.56-4.068-1.69-5.364-1.11-1.296-2.62-1.944-4.54-1.944-1.94 0-3.47.648-4.57 1.944-1.1 1.296-1.66 3.084-1.66 5.364 0 2.256.56 4.044 1.66 5.364 1.1 1.296 2.63 1.944 4.57 1.944Zm28.74 2.592v-12.492c0-1.392-.39-2.508-1.18-3.348-.8-.864-1.83-1.296-3.1-1.296-1.46 0-2.77.54-3.92 1.62-1.13 1.056-2.03 2.712-2.7 4.968l-.58-4.068c.74-1.872 1.81-3.276 3.2-4.212 1.42-.936 2.96-1.404 4.61-1.404 1.49 0 2.77.324 3.85.972 1.11.624 1.96 1.5 2.56 2.628.6 1.128.9 2.46.9 3.996V803h-3.64Zm-14.11 0v-19.8h3.46l.18 4.464V803h-3.64Zm31.16-20.232c1.36 0 2.61.276 3.74.828 1.13.528 2.04 1.272 2.74 2.232v-9.288h3.6V803h-3.42l-.11-2.772c-.7.96-1.62 1.74-2.77 2.34-1.13.576-2.39.864-3.78.864-1.76 0-3.3-.444-4.65-1.332-1.34-.888-2.4-2.112-3.17-3.672-.74-1.56-1.11-3.336-1.11-5.328 0-2.016.37-3.804 1.11-5.364.77-1.56 1.83-2.772 3.17-3.636 1.35-.888 2.89-1.332 4.65-1.332Zm.79 17.604c1.29 0 2.45-.36 3.45-1.08 1.01-.744 1.76-1.74 2.24-2.988v-6.444c-.48-1.272-1.23-2.256-2.24-2.952-1-.72-2.16-1.08-3.45-1.08-1.2 0-2.26.312-3.17.936-.91.6-1.63 1.452-2.16 2.556-.5 1.08-.76 2.34-.76 3.78 0 1.416.26 2.676.76 3.78.53 1.08 1.25 1.932 2.16 2.556.91.624 1.97.936 3.17.936Zm28.85 2.628-.15-4.5v-8.46c0-1.416-.46-2.52-1.4-3.312-.91-.816-2.17-1.224-3.78-1.224-1.56 0-2.83.36-3.82 1.08-.98.696-1.52 1.668-1.62 2.916h-3.56c.12-1.416.58-2.616 1.37-3.6.79-1.008 1.85-1.776 3.17-2.304 1.32-.552 2.84-.828 4.57-.828 1.77 0 3.31.3 4.61.9 1.29.576 2.29 1.416 2.98 2.52.72 1.104 1.08 2.448 1.08 4.032V803h-3.45Zm-7.17.432c-1.29 0-2.43-.228-3.42-.684-.98-.48-1.75-1.152-2.3-2.016-.55-.888-.83-1.92-.83-3.096 0-2.04.78-3.624 2.34-4.752 1.59-1.128 3.79-1.692 6.63-1.692h5.07v2.7h-5.22c-1.63 0-2.91.312-3.85.936-.91.624-1.37 1.5-1.37 2.628 0 .936.33 1.668.97 2.196.68.528 1.58.792 2.7.792 1.44 0 2.72-.384 3.82-1.152 1.13-.792 2.04-1.872 2.74-3.24l.39 2.664c-.62 1.512-1.58 2.676-2.88 3.492-1.29.816-2.89 1.224-4.79 1.224Zm30.8-11.736v-2.376c0-1.032-.31-1.86-.94-2.484-.62-.648-1.52-.972-2.7-.972-1.49 0-2.82.564-3.99 1.692-1.18 1.104-2.12 2.796-2.81 5.076l-.51-3.672c.53-1.368 1.17-2.508 1.91-3.42.77-.912 1.65-1.596 2.63-2.052 1.01-.48 2.11-.72 3.31-.72 1.99 0 3.61.576 4.86 1.728 1.25 1.128 1.87 2.736 1.87 4.824v2.376H1230ZM1216.61 803v-19.8h3.42l.21 4.5V803h-3.63Zm29.57-10.008 1.87 4.932 1.87-4.968 4.14-9.756h3.78l-9.18 21.636c-.55 1.272-1.15 2.268-1.8 2.988-.62.744-1.33 1.26-2.12 1.548-.8.312-1.72.468-2.78.468h-3.52v-2.952h3.27c.63 0 1.15-.144 1.59-.432.45-.264.86-.672 1.22-1.224.36-.528.72-1.224 1.08-2.088l.54-1.296-7.88-18.648h3.78l4.14 9.792Zm46.1 10.008v-22.032c0-1.224.23-2.292.69-3.204a5.143 5.143 0 0 1 2.01-2.16c.92-.528 2.03-.792 3.35-.792h5.91v2.952h-4.83c-.65 0-1.25.084-1.8.252-.53.168-.95.48-1.26.936-.29.432-.43 1.068-.43 1.908V803h-3.64Zm-4.68-16.848V783.2h14.55v2.952h-14.55ZM1285.98 803v-2.952h17.86V803h-17.86Zm32.24.432c-2.04 0-3.81-.42-5.29-1.26-1.47-.84-2.6-2.028-3.39-3.564-.79-1.56-1.19-3.396-1.19-5.508 0-2.16.4-3.996 1.19-5.508.79-1.536 1.92-2.724 3.39-3.564 1.48-.84 3.26-1.26 5.32-1.26 3.08 0 5.49.924 7.24 2.772 1.75 1.824 2.63 4.344 2.63 7.56 0 2.112-.4 3.948-1.19 5.508a8.425 8.425 0 0 1-3.42 3.564c-1.46.84-3.23 1.26-5.29 1.26Zm.03-3.024c1.92 0 3.44-.648 4.54-1.944 1.13-1.32 1.69-3.108 1.69-5.364 0-2.28-.56-4.068-1.69-5.364-1.1-1.296-2.62-1.944-4.54-1.944-1.94 0-3.46.648-4.57 1.944-1.1 1.296-1.65 3.084-1.65 5.364 0 2.256.55 4.044 1.65 5.364 1.11 1.296 2.63 1.944 4.57 1.944ZM1347 803v-12.492c0-1.392-.4-2.508-1.19-3.348-.79-.864-1.83-1.296-3.1-1.296-1.46 0-2.77.54-3.92 1.62-1.13 1.056-2.03 2.712-2.7 4.968l-.58-4.068c.75-1.872 1.81-3.276 3.21-4.212 1.41-.936 2.95-1.404 4.6-1.404 1.49 0 2.78.324 3.86.972a6.43 6.43 0 0 1 2.55 2.628c.6 1.128.9 2.46.9 3.996V803H1347Zm-14.12 0v-19.8h3.46l.18 4.464V803h-3.64Zm33.82 0c-1.22 0-2.27-.24-3.13-.72a4.765 4.765 0 0 1-1.94-2.124c-.44-.912-.65-1.98-.65-3.204v-17.496l3.63-1.98v19.476c0 .576.09 1.104.26 1.584.16.48.49.852.97 1.116.5.264 1.23.396 2.19.396h5.94V803h-7.27Zm-10.4-16.848V783.2h14.51v2.952h-14.51ZM258.792 761v-25.128h3.816V761h-3.816Zm-6.3-25.128h16.38v3.24h-16.38v-3.24Zm0 21.888h16.38V761h-16.38v-3.24Zm36.95 3.24v-12.492c0-1.392-.396-2.508-1.188-3.348-.792-.864-1.824-1.296-3.096-1.296-1.464 0-2.772.54-3.924 1.62-1.128 1.056-2.028 2.712-2.7 4.968l-.576-4.068c.744-1.872 1.812-3.276 3.204-4.212 1.416-.936 2.952-1.404 4.608-1.404 1.488 0 2.772.324 3.852.972a6.42 6.42 0 0 1 2.556 2.628c.6 1.128.9 2.46.9 3.996V761h-3.636Zm-14.112 0v-19.8h3.456l.18 4.464V761h-3.636Zm33.818 0c-1.224 0-2.268-.24-3.132-.72a4.763 4.763 0 0 1-1.944-2.124c-.432-.912-.648-1.98-.648-3.204v-17.496l3.636-1.98v19.476c0 .576.084 1.104.252 1.584.168.48.492.852.972 1.116.504.264 1.236.396 2.196.396h5.94V761h-7.272Zm-10.404-16.848V741.2h14.508v2.952h-14.508Zm32.414 17.28c-2.04 0-3.804-.408-5.292-1.224a8.449 8.449 0 0 1-3.42-3.564c-.792-1.56-1.188-3.42-1.188-5.58s.396-4.008 1.188-5.544c.816-1.536 1.968-2.712 3.456-3.528 1.512-.816 3.312-1.224 5.4-1.224 3.192 0 5.568.888 7.128 2.664 1.56 1.752 2.244 4.164 2.052 7.236h-16.344l.036-2.736 12.6.036c-.096-1.272-.648-2.292-1.656-3.06-1.008-.768-2.28-1.152-3.816-1.152-2.064 0-3.648.648-4.752 1.944-1.104 1.296-1.656 3.132-1.656 5.508 0 1.416.24 2.676.72 3.78.504 1.08 1.224 1.92 2.16 2.52.936.6 2.064.9 3.384.9 1.56 0 2.856-.372 3.888-1.116 1.056-.744 1.704-1.752 1.944-3.024h3.636c-.312 2.232-1.308 3.984-2.988 5.256-1.68 1.272-3.84 1.908-6.48 1.908Zm28.598-11.736v-2.376c0-1.032-.312-1.86-.936-2.484-.624-.648-1.524-.972-2.7-.972-1.488 0-2.82.564-3.996 1.692-1.176 1.104-2.112 2.796-2.808 5.076l-.504-3.672c.528-1.368 1.164-2.508 1.908-3.42.768-.912 1.644-1.596 2.628-2.052 1.008-.48 2.112-.72 3.312-.72 1.992 0 3.612.576 4.86 1.728 1.248 1.128 1.872 2.736 1.872 4.824v2.376h-3.636ZM346.364 761v-19.8h3.42l.216 4.5V761h-3.636Zm52.912 0v-21.888h-8.1v-3.24h20.016v3.24h-8.1V761h-3.816Zm23.702 0v-19.8h3.636V761h-3.636Zm-7.308 0v-2.952h17.748V761H415.67Zm2.628-16.848V741.2h6.48v2.952h-6.48Zm4.428-6.336v-3.924h4.068v3.924h-4.068Zm30.795 6.228.108-2.844h3.42v17.64c0 2.928-.792 5.16-2.376 6.696-1.56 1.536-3.924 2.304-7.092 2.304-1.752 0-3.276-.24-4.572-.72-1.272-.48-2.28-1.2-3.024-2.16-.72-.936-1.128-2.112-1.224-3.528h3.78c.12 1.08.6 1.908 1.44 2.484.864.6 2.124.9 3.78.9 1.872 0 3.276-.48 4.212-1.44.96-.96 1.44-2.328 1.44-4.104v-2.628c-.672 1.008-1.572 1.8-2.7 2.376-1.104.576-2.34.864-3.708.864-1.704 0-3.216-.408-4.536-1.224-1.296-.816-2.316-1.944-3.06-3.384-.744-1.464-1.116-3.108-1.116-4.932 0-1.968.384-3.66 1.152-5.076.768-1.44 1.824-2.544 3.168-3.312 1.344-.792 2.868-1.188 4.572-1.188 1.368 0 2.604.3 3.708.9 1.104.6 1.98 1.392 2.628 2.376Zm-5.724 12.996c1.296 0 2.448-.372 3.456-1.116 1.032-.768 1.752-1.8 2.16-3.096v-5.004c-.408-1.296-1.128-2.316-2.16-3.06-1.008-.768-2.16-1.152-3.456-1.152-1.176 0-2.208.288-3.096.864-.864.576-1.548 1.368-2.052 2.376-.48.984-.72 2.136-.72 3.456 0 1.296.24 2.46.72 3.492.504 1.008 1.188 1.8 2.052 2.376.888.576 1.92.864 3.096.864Zm28.958 3.96v-12.456c0-1.416-.396-2.544-1.188-3.384-.792-.864-1.824-1.296-3.096-1.296-1.464 0-2.772.54-3.924 1.62-1.128 1.056-2.028 2.712-2.7 4.968l-.576-4.032c.744-1.896 1.812-3.312 3.204-4.248 1.416-.936 2.952-1.404 4.608-1.404 1.488 0 2.772.324 3.852.972a6.367 6.367 0 0 1 2.556 2.664c.6 1.128.9 2.46.9 3.996V761h-3.636Zm-14.112 0v-26.496h3.636V761h-3.636Zm33.818 0c-1.224 0-2.268-.24-3.132-.72a4.763 4.763 0 0 1-1.944-2.124c-.432-.912-.648-1.98-.648-3.204v-17.496l3.636-1.98v19.476c0 .576.084 1.104.252 1.584.168.48.492.852.972 1.116.504.264 1.236.396 2.196.396h5.94V761h-7.272Zm-10.404-16.848V741.2h14.508v2.952h-14.508Zm60.58 3.672c.912.264 1.716.66 2.412 1.188a5.45 5.45 0 0 1 1.692 2.052c.432.816.648 1.776.648 2.88 0 1.416-.36 2.652-1.08 3.708-.696 1.056-1.692 1.884-2.988 2.484-1.296.576-2.832.864-4.608.864h-9.72v-25.128h9.36c2.64 0 4.704.576 6.192 1.728 1.488 1.152 2.232 2.664 2.232 4.536 0 .888-.168 1.716-.504 2.484a5.247 5.247 0 0 1-1.404 1.98 5.937 5.937 0 0 1-2.232 1.224Zm-4.464-8.712h-5.364v7.416h5.364c1.416 0 2.532-.348 3.348-1.044.84-.696 1.26-1.62 1.26-2.772 0-1.128-.42-2.004-1.26-2.628-.84-.648-1.956-.972-3.348-.972Zm-5.364 18.648h5.832c1.464 0 2.616-.36 3.456-1.08.864-.72 1.296-1.692 1.296-2.916 0-1.272-.456-2.256-1.368-2.952-.888-.696-2.136-1.044-3.744-1.044h-5.472v7.992Zm26.474 3.24v-26.46h3.636V761h-3.636Zm-7.308 0v-2.952h18.288V761h-18.288Zm2.628-23.508v-2.952h6.48v2.952h-6.48ZM593.681 761l-.144-4.5v-8.46c0-1.416-.468-2.52-1.404-3.312-.912-.816-2.172-1.224-3.78-1.224-1.56 0-2.832.36-3.816 1.08-.984.696-1.524 1.668-1.62 2.916h-3.564c.12-1.416.576-2.616 1.368-3.6.792-1.008 1.848-1.776 3.168-2.304 1.32-.552 2.844-.828 4.572-.828 1.776 0 3.312.3 4.608.9 1.296.576 2.292 1.416 2.988 2.52.72 1.104 1.08 2.448 1.08 4.032V761h-3.456Zm-7.164.432c-1.296 0-2.436-.228-3.42-.684-.984-.48-1.752-1.152-2.304-2.016-.552-.888-.828-1.92-.828-3.096 0-2.04.78-3.624 2.34-4.752 1.584-1.128 3.792-1.692 6.624-1.692h5.076v2.7h-5.22c-1.632 0-2.916.312-3.852.936-.912.624-1.368 1.5-1.368 2.628 0 .936.324 1.668.972 2.196.672.528 1.572.792 2.7.792 1.44 0 2.712-.384 3.816-1.152 1.128-.792 2.04-1.872 2.736-3.24l.396 2.664c-.624 1.512-1.584 2.676-2.88 3.492-1.296.816-2.892 1.224-4.788 1.224Zm25.97 0c-2.04 0-3.816-.42-5.328-1.26a8.915 8.915 0 0 1-3.456-3.6c-.816-1.56-1.224-3.384-1.224-5.472 0-2.136.42-3.972 1.26-5.508.84-1.56 2.016-2.748 3.528-3.564 1.512-.84 3.276-1.26 5.292-1.26 1.608 0 3.048.3 4.32.9 1.296.576 2.34 1.404 3.132 2.484.816 1.08 1.284 2.364 1.404 3.852h-3.636c-.192-1.344-.768-2.376-1.728-3.096-.936-.744-2.1-1.116-3.492-1.116-1.296 0-2.424.3-3.384.9-.96.576-1.704 1.404-2.232 2.484-.528 1.08-.792 2.388-.792 3.924 0 2.28.576 4.068 1.728 5.364 1.176 1.296 2.712 1.944 4.608 1.944.864 0 1.668-.168 2.412-.504a5.358 5.358 0 0 0 1.908-1.44 5.38 5.38 0 0 0 1.08-2.232h3.672c-.24 1.488-.792 2.772-1.656 3.852-.84 1.056-1.908 1.884-3.204 2.484-1.272.576-2.676.864-4.212.864Zm13.586-.432v-26.46h3.636v9.9l-.18 5.436 3.816-3.852 5.4-4.824h4.824l-13.86 12.6v7.2h-3.636Zm13.644 0-6.948-12.132 3.204-1.584L643.965 761h-4.248Zm16.79-13.284v-4.464h4.464v4.464h-4.464Zm0 13.284v-4.464h4.464V761h-4.464Zm-394.655 21.768c1.776 0 3.324.444 4.644 1.332 1.344.864 2.4 2.076 3.168 3.636.768 1.56 1.152 3.348 1.152 5.364 0 1.992-.384 3.768-1.152 5.328-.768 1.56-1.824 2.784-3.168 3.672-1.32.888-2.868 1.332-4.644 1.332-1.344 0-2.58-.276-3.708-.828a7.633 7.633 0 0 1-2.736-2.268v9.072h-3.636V783.2h3.456l.108 2.7a7.554 7.554 0 0 1 2.772-2.268c1.128-.576 2.376-.864 3.744-.864Zm-.792 17.604c1.224 0 2.292-.312 3.204-.936.912-.624 1.62-1.476 2.124-2.556.504-1.104.756-2.364.756-3.78 0-1.44-.252-2.7-.756-3.78-.504-1.104-1.212-1.956-2.124-2.556-.912-.624-1.98-.936-3.204-.936-1.248 0-2.388.36-3.42 1.08-1.008.696-1.752 1.656-2.232 2.88v6.552c.48 1.248 1.224 2.232 2.232 2.952a5.845 5.845 0 0 0 3.42 1.08Zm28.454-8.676v-2.376c0-1.032-.312-1.86-.936-2.484-.624-.648-1.524-.972-2.7-.972-1.488 0-2.82.564-3.996 1.692-1.176 1.104-2.112 2.796-2.808 5.076l-.504-3.672c.528-1.368 1.164-2.508 1.908-3.42.768-.912 1.644-1.596 2.628-2.052 1.008-.48 2.112-.72 3.312-.72 1.992 0 3.612.576 4.86 1.728 1.248 1.128 1.872 2.736 1.872 4.824v2.376h-3.636ZM276.122 803v-19.8h3.42l.216 4.5V803h-3.636Zm29.786 0v-19.8h3.636V803h-3.636Zm-7.308 0v-2.952h17.748V803H298.6Zm2.628-16.848V783.2h6.48v2.952h-6.48Zm4.428-6.336v-3.924h4.068v3.924h-4.068ZM337.494 803v-14.472c0-.864-.156-1.536-.468-2.016-.288-.48-.744-.72-1.368-.72-.864 0-1.644.552-2.34 1.656-.672 1.104-1.14 2.844-1.404 5.22l-.324-3.06c.072-2.16.576-3.84 1.512-5.04.96-1.2 2.136-1.8 3.528-1.8 1.296 0 2.316.48 3.06 1.44.768.936 1.152 2.28 1.152 4.032V803h-3.348Zm-16.452 0v-19.8h3.204l.144 3.852V803h-3.348Zm8.244 0v-14.472c0-.912-.168-1.596-.504-2.052-.312-.456-.792-.684-1.44-.684-.912 0-1.692.576-2.34 1.728-.648 1.152-1.104 2.868-1.368 5.148l-.072-3.168c.048-1.416.3-2.628.756-3.636s1.044-1.776 1.764-2.304c.72-.528 1.488-.792 2.304-.792 1.344 0 2.376.492 3.096 1.476.744.96 1.116 2.28 1.116 3.96V803h-3.312Zm30.254 0-.144-4.5v-8.46c0-1.416-.468-2.52-1.404-3.312-.912-.816-2.172-1.224-3.78-1.224-1.56 0-2.832.36-3.816 1.08-.984.696-1.524 1.668-1.62 2.916h-3.564c.12-1.416.576-2.616 1.368-3.6.792-1.008 1.848-1.776 3.168-2.304 1.32-.552 2.844-.828 4.572-.828 1.776 0 3.312.3 4.608.9 1.296.576 2.292 1.416 2.988 2.52.72 1.104 1.08 2.448 1.08 4.032V803h-3.456Zm-7.164.432c-1.296 0-2.436-.228-3.42-.684-.984-.48-1.752-1.152-2.304-2.016-.552-.888-.828-1.92-.828-3.096 0-2.04.78-3.624 2.34-4.752 1.584-1.128 3.792-1.692 6.624-1.692h5.076v2.7h-5.22c-1.632 0-2.916.312-3.852.936-.912.624-1.368 1.5-1.368 2.628 0 .936.324 1.668.972 2.196.672.528 1.572.792 2.7.792 1.44 0 2.712-.384 3.816-1.152 1.128-.792 2.04-1.872 2.736-3.24l.396 2.664c-.624 1.512-1.584 2.676-2.88 3.492-1.296.816-2.892 1.224-4.788 1.224Zm30.794-11.736v-2.376c0-1.032-.312-1.86-.936-2.484-.624-.648-1.524-.972-2.7-.972-1.488 0-2.82.564-3.996 1.692-1.176 1.104-2.112 2.796-2.808 5.076l-.504-3.672c.528-1.368 1.164-2.508 1.908-3.42.768-.912 1.644-1.596 2.628-2.052 1.008-.48 2.112-.72 3.312-.72 1.992 0 3.612.576 4.86 1.728 1.248 1.128 1.872 2.736 1.872 4.824v2.376h-3.636ZM369.778 803v-19.8h3.42l.216 4.5V803h-3.636Zm29.57-10.008 1.872 4.932 1.872-4.968 4.14-9.756h3.78l-9.18 21.636c-.552 1.272-1.152 2.268-1.8 2.988-.624.744-1.332 1.26-2.124 1.548-.792.312-1.716.468-2.772.468h-3.528v-2.952h3.276c.624 0 1.152-.144 1.584-.432.456-.264.864-.672 1.224-1.224.36-.528.72-1.224 1.08-2.088l.54-1.296-7.884-18.648h3.78l4.14 9.792ZM445.457 803v-22.032c0-1.224.228-2.292.684-3.204a5.144 5.144 0 0 1 2.016-2.16c.912-.528 2.028-.792 3.348-.792h5.904v2.952h-4.824c-.648 0-1.248.084-1.8.252-.528.168-.948.48-1.26.936-.288.432-.432 1.068-.432 1.908V803h-3.636Zm-4.68-16.848V783.2h14.543v2.952h-14.543ZM439.157 803v-2.952h17.856V803h-17.856Zm32.234.432c-2.04 0-3.804-.42-5.292-1.26-1.464-.84-2.592-2.028-3.384-3.564-.792-1.56-1.188-3.396-1.188-5.508 0-2.16.396-3.996 1.188-5.508.792-1.536 1.92-2.724 3.384-3.564 1.488-.84 3.264-1.26 5.328-1.26 3.072 0 5.484.924 7.236 2.772 1.752 1.824 2.628 4.344 2.628 7.56 0 2.112-.396 3.948-1.188 5.508a8.449 8.449 0 0 1-3.42 3.564c-1.464.84-3.228 1.26-5.292 1.26Zm.036-3.024c1.92 0 3.432-.648 4.536-1.944 1.128-1.32 1.692-3.108 1.692-5.364 0-2.28-.564-4.068-1.692-5.364-1.104-1.296-2.616-1.944-4.536-1.944-1.944 0-3.468.648-4.572 1.944-1.104 1.296-1.656 3.084-1.656 5.364 0 2.256.552 4.044 1.656 5.364 1.104 1.296 2.628 1.944 4.572 1.944ZM500.169 803v-12.492c0-1.392-.396-2.508-1.188-3.348-.792-.864-1.824-1.296-3.096-1.296-1.464 0-2.772.54-3.924 1.62-1.128 1.056-2.028 2.712-2.7 4.968l-.576-4.068c.744-1.872 1.812-3.276 3.204-4.212 1.416-.936 2.952-1.404 4.608-1.404 1.488 0 2.772.324 3.852.972a6.42 6.42 0 0 1 2.556 2.628c.6 1.128.9 2.46.9 3.996V803h-3.636Zm-14.112 0v-19.8h3.456l.18 4.464V803h-3.636Zm33.818 0c-1.224 0-2.268-.24-3.132-.72a4.763 4.763 0 0 1-1.944-2.124c-.432-.912-.648-1.98-.648-3.204v-17.496l3.636-1.98v19.476c0 .576.084 1.104.252 1.584.168.48.492.852.972 1.116.504.264 1.236.396 2.196.396h5.94V803h-7.272Zm-10.404-16.848V783.2h14.508v2.952h-14.508Z"/><path stroke="#1A73E8" stroke-width="10" d="M249 694h734M1045 694h632"/><g fill="#3C4043" clip-path="url(#a)"><path d="m1044.83 527.082 6.44-86.598h17.25l11.04 51.242 2.61 16.874 2.74-16.874 10.79-51.242h16.99l6.59 86.598h-13.03l-2.86-54.209-.49-19.101-3.73 19.101-11.79 54.209h-11.17l-11.67-54.209-3.47-19.348-.74 19.348-2.74 54.209h-12.78.02ZM1134.27 440.484h56.44v11.172h-56.44v-11.172Zm0 75.426h56.44v11.172h-56.44V515.91Zm21.71 11.172v-86.598h13.15v86.598h-13.15ZM1244.43 528.566c-6.71 0-12.53-1.278-17.49-3.848-4.96-2.569-8.81-6.238-11.55-11.048-2.73-4.795-4.09-10.622-4.09-17.492h13.03c0 6.788 1.77 12.009 5.33 15.692s8.43 5.524 14.63 5.524c5.29 0 9.55-1.223 12.78-3.655 3.23-2.432 4.84-5.854 4.84-10.237 0-2.982-.9-5.373-2.67-7.201-1.78-1.814-4.13-3.311-7.08-4.466-2.94-1.154-6.14-2.185-9.61-3.105a212.9 212.9 0 0 1-10.49-3.037c-3.52-1.113-6.75-2.542-9.67-4.274-2.94-1.731-5.29-4.053-7.08-6.953-1.77-2.899-2.66-6.582-2.66-11.048 0-4.713 1.26-8.904 3.77-12.587 2.53-3.682 6.04-6.568 10.54-8.684 4.51-2.103 9.83-3.161 15.94-3.161 6.12 0 11.3 1.1 16.01 3.284 4.71 2.185 8.49 5.291 11.35 9.303 2.86 4.013 4.32 8.836 4.4 14.456h-13.15c-.08-3.311-.98-6.142-2.67-8.492-1.69-2.363-3.93-4.177-6.7-5.455-2.78-1.278-5.86-1.924-9.25-1.924-4.88 0-8.85 1.154-11.91 3.477-3.07 2.322-4.59 5.455-4.59 9.426 0 2.817.89 5.043 2.66 6.692 1.77 1.663 4.14 2.996 7.08 4.026 2.94 1.031 6.15 1.993 9.67 2.858 3.52.866 7.01 1.856 10.49 2.982a42.002 42.002 0 0 1 9.62 4.466c2.94 1.855 5.29 4.342 7.07 7.448 1.77 3.106 2.67 7.049 2.67 11.845 0 5.125-1.36 9.578-4.1 13.343-2.73 3.765-6.44 6.678-11.17 8.739-4.71 2.061-10.04 3.106-16.01 3.106h.06ZM1325.06 528.566c-6.7 0-12.53-1.278-17.49-3.848-4.96-2.569-8.81-6.238-11.54-11.048-2.74-4.795-4.1-10.622-4.1-17.492h13.03c0 6.788 1.77 12.009 5.33 15.692s8.44 5.524 14.63 5.524c5.29 0 9.55-1.223 12.78-3.655 3.23-2.432 4.84-5.854 4.84-10.237 0-2.982-.89-5.373-2.67-7.201-1.78-1.814-4.13-3.311-7.07-4.466-2.94-1.154-6.14-2.185-9.62-3.105a212.9 212.9 0 0 1-10.49-3.037c-3.51-1.113-6.74-2.542-9.67-4.274-2.94-1.731-5.29-4.053-7.08-6.953-1.77-2.899-2.66-6.582-2.66-11.048 0-4.713 1.26-8.904 3.78-12.587 2.53-3.682 6.03-6.568 10.54-8.684 4.5-2.103 9.82-3.161 15.94-3.161 6.11 0 11.29 1.1 16 3.284 4.72 2.185 8.5 5.291 11.35 9.303 2.86 4.013 4.32 8.836 4.4 14.456h-13.15c-.08-3.311-.97-6.142-2.66-8.492-1.69-2.363-3.93-4.177-6.71-5.455-2.78-1.278-5.85-1.924-9.25-1.924-4.88 0-8.85 1.154-11.91 3.477-3.07 2.322-4.59 5.455-4.59 9.426 0 2.817.89 5.043 2.67 6.692 1.77 1.663 4.13 2.996 7.07 4.026 2.94 1.031 6.16 1.993 9.68 2.858 3.51.866 7 1.856 10.48 2.982a41.807 41.807 0 0 1 9.62 4.466c2.94 1.855 5.29 4.342 7.08 7.448 1.77 3.106 2.66 7.049 2.66 11.845 0 5.125-1.36 9.578-4.09 13.343-2.74 3.765-6.45 6.678-11.18 8.739-4.71 2.061-10.04 3.106-16 3.106h.05ZM1376.18 440.484h56.45v11.172h-56.45v-11.172Zm0 75.426h56.45v11.172h-56.45V515.91Zm21.71 11.172v-86.598h13.15v86.598h-13.15ZM1485.21 528.566c-7.36 0-13.77-1.842-19.22-5.524-5.46-3.683-9.7-8.863-12.71-15.569-3.02-6.706-4.54-14.593-4.54-23.69 0-9.097 1.52-17.122 4.54-23.814 3.02-6.706 7.25-11.872 12.71-15.514 5.45-3.641 11.87-5.455 19.22-5.455s13.77 1.828 19.23 5.455c5.45 3.642 9.7 8.808 12.71 15.514 3.02 6.692 4.53 14.635 4.53 23.814s-1.51 16.998-4.53 23.69c-3.03 6.706-7.26 11.886-12.71 15.569-5.46 3.682-11.88 5.524-19.23 5.524Zm0-11.172c4.55 0 8.52-1.36 11.92-4.095 3.39-2.734 6.03-6.609 7.94-11.666 1.89-5.043 2.86-10.993 2.86-17.864s-.95-12.917-2.86-17.932c-1.91-5.002-4.55-8.877-7.94-11.598-3.4-2.734-7.37-4.095-11.92-4.095s-8.42 1.361-11.84 4.095c-3.44 2.735-6.1 6.623-8 11.666-1.91 5.043-2.86 11.007-2.86 17.864 0 6.857.95 12.821 2.86 17.864 1.9 5.043 4.56 8.932 8 11.666 3.43 2.735 7.38 4.095 11.84 4.095ZM1533.72 527.082v-86.598h16.38l36.1 69.476-.99-26.795v-42.681h12.65v86.598h-16.25l-36.35-68.734 1.11 25.93v42.804h-12.65ZM1081.91 640.228c-7.03 0-13.02-1.841-17.98-5.524-4.96-3.683-8.77-8.891-11.42-15.638-2.65-6.733-3.97-14.62-3.97-23.635 0-9.014 1.32-17.121 3.97-23.813 2.65-6.706 6.44-11.873 11.42-15.514 4.96-3.642 10.95-5.456 17.98-5.456 7.04 0 13.13 1.828 18.06 5.456 4.92 3.641 8.7 8.794 11.35 15.445 2.65 6.664 3.97 14.621 3.97 23.882 0 9.262-1.32 16.998-3.97 23.69-2.65 6.706-6.43 11.886-11.35 15.569-4.92 3.683-10.94 5.524-18.06 5.524v.014Zm0-11.172c6.53 0 11.46-2.954 14.76-8.877 3.31-5.908 4.96-14.167 4.96-24.748 0-10.581-1.65-19.045-4.96-24.871-3.31-5.827-8.23-8.74-14.76-8.74-6.52 0-11.33 2.913-14.63 8.74-3.31 5.826-4.96 14.126-4.96 24.871 0 10.746 1.65 18.84 4.96 24.748 3.31 5.909 8.19 8.877 14.63 8.877ZM1161.56 638.73v-53.467l.62-17.616-14.02 11.419-15.51 12.408V575.96l32.49-23.814h9.55v86.598h-13.15l.02-.014Zm-28.91 0v-11.171h61.28v11.171h-61.28ZM1220.35 605.984v-11.048h126.42v11.048h-126.42ZM1373.69 638.73v-9.427c11.42-8.519 20.6-15.939 27.54-22.274 6.94-6.335 11.99-11.955 15.13-16.874 3.14-4.92 4.71-9.413 4.71-13.467 0-4.466-1.39-8.066-4.15-10.787-2.78-2.734-6.64-4.095-11.6-4.095-5.21 0-9.51 1.594-12.9 4.782-3.39 3.188-5.21 7.668-5.46 13.467h-13.27c.41-6.198 2.01-11.515 4.78-15.94 2.78-4.425 6.49-7.778 11.17-10.045 4.68-2.267 9.99-3.408 15.94-3.408 5.95 0 11.12 1.058 15.52 3.161 4.38 2.102 7.75 5.084 10.11 8.931 2.36 3.848 3.53 8.286 3.53 13.343 0 5.456-1.39 10.815-4.15 16.064-2.77 5.249-7.2 10.745-13.27 16.503-6.08 5.744-14.13 12.051-24.13 18.922H1435v11.171h-61.28l-.03-.027ZM1485.09 640.228c-7.04 0-13.03-1.841-17.99-5.524-4.96-3.683-8.76-8.891-11.42-15.638-2.65-6.733-3.97-14.62-3.97-23.635 0-9.014 1.32-17.121 3.97-23.813 2.66-6.706 6.45-11.873 11.42-15.514 4.96-3.642 10.95-5.456 17.99-5.456 7.03 0 13.12 1.828 18.06 5.456 4.91 3.641 8.69 8.794 11.35 15.445 2.65 6.664 3.97 14.621 3.97 23.882 0 9.262-1.32 16.998-3.97 23.69-2.66 6.706-6.44 11.886-11.35 15.569-4.92 3.683-10.94 5.524-18.06 5.524v.014Zm0-11.172c6.53 0 11.46-2.954 14.76-8.877 3.31-5.908 4.96-14.167 4.96-24.748 0-10.581-1.65-19.045-4.96-24.871-3.31-5.827-8.23-8.74-14.76-8.74-6.53 0-11.34 2.913-14.63 8.74-3.32 5.826-4.97 14.126-4.97 24.871 0 10.746 1.65 18.84 4.97 24.748 3.31 5.909 8.18 8.877 14.63 8.877ZM1566.48 640.228c-5.71 0-10.97-1.154-15.76-3.477-4.8-2.308-8.62-5.661-11.48-10.044-2.86-4.384-4.27-9.757-4.27-16.133h13.15c.08 3.642.91 6.843 2.49 9.619 1.56 2.776 3.73 4.906 6.51 6.39s5.89 2.226 9.37 2.226c5.29 0 9.55-1.36 12.78-4.095 3.23-2.734 4.84-6.239 4.84-10.54 0-3.394-.94-6.183-2.79-8.368-1.86-2.185-4.34-3.82-7.45-4.906-3.11-1.071-6.55-1.607-10.36-1.607h-4.59v-10.911h4.96c3.39 0 6.31-.646 8.74-1.924 2.43-1.278 4.31-2.995 5.65-5.153 1.32-2.143 1.98-4.466 1.98-6.953 0-3.806-1.31-6.843-3.91-9.124-2.61-2.267-5.97-3.408-10.11-3.408-5.04 0-9.14 1.47-12.28 4.397-3.15 2.941-4.84 7.173-5.09 12.711h-13.15c.25-6.197 1.8-11.419 4.66-15.638 2.86-4.218 6.55-7.379 11.1-9.495 4.55-2.102 9.51-3.16 14.88-3.16 5.38 0 10.36.934 14.46 2.789 4.09 1.855 7.3 4.466 9.62 7.819 2.31 3.353 3.47 7.297 3.47 11.845 0 3.064-.65 5.95-1.97 8.685a21.168 21.168 0 0 1-5.4 7.008c-2.29 1.951-4.91 3.325-7.88 4.149 3.73.578 7.01 1.842 9.87 3.779 2.86 1.952 5.11 4.425 6.76 7.448 1.65 3.023 2.49 6.39 2.49 10.114 0 5.043-1.28 9.536-3.85 13.466-2.57 3.93-6.19 6.994-10.86 9.179-4.67 2.185-10.19 3.284-16.56 3.284l-.02.028ZM1646 640.105c-5.79 0-10.84-1.031-15.13-3.106-4.3-2.061-7.71-5.002-10.24-8.808-2.53-3.807-3.9-8.231-4.15-13.274h13.15c.41 4.218 2.06 7.612 4.96 10.168 2.9 2.57 6.74 3.848 11.54 3.848 3.73 0 6.96-.825 9.68-2.487 2.73-1.649 4.84-4.013 6.32-7.077 1.48-3.064 2.23-6.61 2.23-10.663 0-5.291-1.57-9.578-4.72-12.835-3.14-3.27-7.28-4.905-12.41-4.905-3.56 0-6.91.893-10.04 2.665-3.15 1.787-5.66 4.082-7.57 6.885h-12.16l7.32-48.383h48.88v11.171h-38.22l-3.97 25.065c2.39-2.652 5.29-4.755 8.69-6.321 3.39-1.567 6.87-2.35 10.41-2.35 5.38 0 10.13 1.223 14.27 3.655 4.13 2.446 7.36 5.785 9.67 10.045 2.31 4.26 3.48 9.289 3.48 15.074 0 6.445-1.32 12.051-3.97 16.806-2.66 4.754-6.38 8.409-11.18 10.979-4.79 2.556-10.41 3.848-16.87 3.848h.03ZM249 639.582V439.633h54.208v156.211h80.784v43.752H249v-.014ZM517.912 439.633h54.209V567.66c0 15.212-3.628 28.376-10.87 39.52-7.241 11.144-17.355 19.733-30.326 25.765-12.972 6.033-28.046 9.056-45.222 9.056-17.176 0-32.223-3.023-45.153-9.056-12.93-6.032-22.989-14.621-30.189-25.765-7.2-11.144-10.8-24.308-10.8-39.52V439.633h54.208v123.465c0 6.266 1.388 11.79 4.164 16.572 2.775 4.782 6.554 8.547 11.336 11.268 4.782 2.735 10.264 4.095 16.434 4.095 6.17 0 11.804-1.36 16.641-4.095 4.836-2.734 8.629-6.486 11.405-11.268 2.775-4.782 4.163-10.306 4.163-16.572V439.633ZM764.289 439.633v199.949h-45.084L647.009 534.64h-1.346v104.942h-54.209V439.633h46.156L708.459 544.3h1.608V439.633h54.222ZM835.413 639.582h-58.51l66.026-199.949h74.078l66.026 199.949h-58.51l-43.751-144.929h-1.608l-43.751 144.929Zm-10.732-78.902h110.038v40.523H824.681V560.68Z"/></g><defs><clipPath id="a"><path fill="#fff" d="M249 439h1429v203H249z"/></clipPath></defs></svg>