<svg xmlns="http://www.w3.org/2000/svg" width="1920" height="1080" fill="none"><g clip-path="url(#a)"><path fill="#3C4043" d="M247 646.9V422.932h60.713v174.967h90.464V646.9H247Z"/><path fill="#D2E3FC" d="M548.149 422.932h60.713v143.403c0 17.04-4.055 31.793-12.171 44.27-8.117 12.478-19.441 22.099-33.961 28.863-14.526 6.764-31.407 10.146-50.643 10.146-19.237 0-36.093-3.382-50.57-10.146-14.477-6.764-25.751-16.385-33.812-28.863-8.066-12.477-12.097-27.23-12.097-44.27V422.932h60.713v138.289c0 7.018 1.552 13.207 4.661 18.562 3.103 5.361 7.337 9.571 12.697 12.626 5.359 3.06 11.497 4.581 18.408 4.581 6.91 0 13.222-1.527 18.636-4.581 5.409-3.055 9.668-7.265 12.771-12.626 3.103-5.361 4.661-11.55 4.661-18.562V422.932h-.006Z"/><path fill="#3C4043" d="M824.052 422.932V646.9h-50.489l-80.845-117.546h-1.502V646.9h-60.714V422.932h51.695l79.344 117.249h1.805V422.932h60.713-.007Z"/><path fill="#D2E3FC" d="M903.699 646.9h-65.522l73.935-223.968h82.953L1069 646.9h-65.52l-48.989-162.342h-1.805L903.699 646.9Z"/><path stroke="#FF6D7F" stroke-miterlimit="10" d="M415.608 397v262M475.987 397v262M548.476 397v262M608.861 397v262"/></g><g clip-path="url(#b)"><path fill="#D2E3FC" d="M248.648 909.854V685.031h60.797v175.636h90.598v49.187H248.648ZM548.243 685.031h60.803v143.951c0 17.105-4.061 31.914-12.189 44.439-8.128 12.525-19.469 22.183-34.01 28.973-14.548 6.79-31.454 10.185-50.719 10.185s-36.147-3.395-50.645-10.185c-14.498-6.79-25.789-16.448-33.862-28.973-8.078-12.525-12.115-27.334-12.115-44.439V685.031h60.804v138.818c0 7.044 1.553 13.257 4.667 18.632 3.108 5.381 7.348 9.608 12.715 12.674 5.368 3.072 11.515 4.599 18.436 4.599 6.921 0 13.241-1.533 18.664-4.599 5.417-3.066 9.682-7.293 12.79-12.674 3.107-5.381 4.667-11.594 4.667-18.632V685.031h-.006Z"/><path fill="#3C4043" d="M824.55 685.031v224.823h-50.564L693.021 791.86h-1.504v117.994h-60.804V685.031h51.772l79.461 117.697h1.808V685.031h60.803-.007Z"/><path fill="#D2E3FC" d="M904.315 909.854h-65.619l74.044-224.823h83.077l74.043 224.823h-65.62l-49.057-162.961h-1.808l-49.06 162.961Z"/><path fill="#1A73E8" d="M1177.58 685.031h-60.8v224.823h60.8V685.031Z"/><path stroke="#1A73E8" stroke-miterlimit="10" stroke-width="2" d="M512.27 912.554c53.445 0 96.77-43.438 96.77-97.022s-43.325-97.022-96.77-97.022c-53.444 0-96.77 43.438-96.77 97.022s43.326 97.022 96.77 97.022Z"/><path stroke="#1A73E8" stroke-miterlimit="10" stroke-width="2" d="M512.27 851.866c20.049 0 36.301-16.295 36.301-36.396s-16.252-36.396-36.301-36.396c-20.048 0-36.301 16.295-36.301 36.396s16.253 36.396 36.301 36.396Z"/><path stroke="#FF6D7F" stroke-miterlimit="10" d="M415.5 659v263M475.976 659v263M643.429 912.553H381.112M702.777 909.854H238M702.777 851.988H238M632.874 818.672H391.673M548.571 659v263M609.041 659v263M1116.78 659v263M1177.58 659v263"/><path fill="#1A73E8" d="M899.499 909.853h-60.797l74.292-225.257h60.797l-74.292 225.257ZM1251.71 909.853h-60.81l74.3-225.257h60.8l-74.29 225.257Z"/></g><g fill="#3C4043" clip-path="url(#c)"><path d="M247 381.291V157h60.71v175.22h90.466v49.071H247ZM548.152 157h60.709v143.604c0 17.061-4.059 31.838-12.171 44.333-8.112 12.494-19.44 22.126-33.964 28.901C548.201 380.613 531.318 384 512.081 384c-19.237 0-36.089-3.387-50.565-10.162-14.481-6.775-25.747-16.407-33.81-28.901-8.063-12.495-12.098-27.266-12.098-44.333V157h60.71v138.489c0 7.028 1.552 13.223 4.657 18.591 3.104 5.368 7.336 9.582 12.701 12.642 5.359 3.061 11.494 4.591 18.411 4.591 6.917 0 13.225-1.53 18.633-4.591 5.408-3.06 9.665-7.274 12.775-12.642 3.105-5.368 4.657-11.563 4.657-18.591V157ZM824.055 157v224.291h-50.491l-80.845-117.714h-1.503v117.714h-60.71V157h51.692l79.343 117.412h1.805V157h60.709ZM903.699 381.291h-65.52L912.114 157h82.952L1069 381.291h-65.52L954.492 218.72h-1.805l-48.988 162.571Zm-12.023-88.511H1014.9v45.462H891.676V292.78Z"/></g><g clip-path="url(#d)"><path fill="#D2E3FC" d="M1476.25 685h60.12v142.343c0 16.914-4.02 31.558-12.05 43.943-8.04 12.385-19.25 21.935-33.63 28.649-14.39 6.714-31.1 10.071-50.15 10.071-19.05 0-35.74-3.357-50.08-10.071-14.33-6.714-25.5-16.264-33.48-28.649-7.99-12.391-11.98-27.035-11.98-43.943V685h60.12v137.267c0 6.966 1.54 13.109 4.62 18.424 3.07 5.321 7.26 9.501 12.57 12.533 5.31 3.038 11.38 4.547 18.23 4.547 6.84 0 13.09-1.515 18.45-4.547 5.36-3.032 9.58-7.212 12.65-12.533 3.07-5.321 4.61-11.464 4.61-18.424V685Z"/><path fill="#1A73E8" d="M1685.01 685.006v129.049c0 19.738-16.01 35.793-35.69 35.793-19.69 0-35.7-16.055-35.7-35.793V685.006h-59.99v129.049c0 52.984 42.84 95.939 95.69 95.939 52.84 0 95.68-42.955 95.68-95.939V685.006h-59.99Z"/></g><path fill="#1A73E8" d="M1225.79 186v-25.128h3.82V186h-3.82Zm-6.3-25.128h16.38v3.24h-16.38v-3.24Zm0 21.888h16.38V186h-16.38v-3.24Zm36.95 3.24v-12.492c0-1.392-.39-2.508-1.19-3.348-.79-.864-1.82-1.296-3.09-1.296-1.47 0-2.77.54-3.93 1.62-1.12 1.056-2.02 2.712-2.7 4.968l-.57-4.068c.74-1.872 1.81-3.276 3.2-4.212 1.42-.936 2.95-1.404 4.61-1.404 1.49 0 2.77.324 3.85.972 1.11.624 1.96 1.5 2.56 2.628.6 1.128.9 2.46.9 3.996V186h-3.64Zm-14.11 0v-19.8h3.46l.18 4.464V186h-3.64Zm33.82 0c-1.23 0-2.27-.24-3.13-.72a4.731 4.731 0 0 1-1.95-2.124c-.43-.912-.65-1.98-.65-3.204v-17.496l3.64-1.98v19.476c0 .576.08 1.104.25 1.584.17.48.49.852.97 1.116.51.264 1.24.396 2.2.396h5.94V186h-7.27Zm-10.41-16.848V166.2h14.51v2.952h-14.51Zm32.42 17.28c-2.04 0-3.81-.408-5.29-1.224a8.425 8.425 0 0 1-3.42-3.564c-.8-1.56-1.19-3.42-1.19-5.58s.39-4.008 1.19-5.544c.81-1.536 1.96-2.712 3.45-3.528 1.51-.816 3.31-1.224 5.4-1.224 3.19 0 5.57.888 7.13 2.664 1.56 1.752 2.24 4.164 2.05 7.236h-16.34l.03-2.736 12.6.036c-.09-1.272-.64-2.292-1.65-3.06-1.01-.768-2.28-1.152-3.82-1.152-2.06 0-3.65.648-4.75 1.944-1.1 1.296-1.66 3.132-1.66 5.508 0 1.416.24 2.676.72 3.78.51 1.08 1.23 1.92 2.16 2.52.94.6 2.07.9 3.39.9 1.56 0 2.85-.372 3.89-1.116 1.05-.744 1.7-1.752 1.94-3.024h3.64c-.32 2.232-1.31 3.984-2.99 5.256-1.68 1.272-3.84 1.908-6.48 1.908Zm28.6-11.736v-2.376c0-1.032-.32-1.86-.94-2.484-.62-.648-1.52-.972-2.7-.972-1.49 0-2.82.564-4 1.692-1.17 1.104-2.11 2.796-2.8 5.076l-.51-3.672c.53-1.368 1.17-2.508 1.91-3.42.77-.912 1.64-1.596 2.63-2.052 1.01-.48 2.11-.72 3.31-.72 1.99 0 3.61.576 4.86 1.728 1.25 1.128 1.87 2.736 1.87 4.824v2.376h-3.63ZM1313.36 186v-19.8h3.42l.22 4.5V186h-3.64Zm52.92 0v-21.888h-8.1v-3.24h20.01v3.24h-8.1V186h-3.81Zm23.7 0v-19.8h3.63V186h-3.63Zm-7.31 0v-2.952h17.75V186h-17.75Zm2.63-16.848V166.2h6.48v2.952h-6.48Zm4.43-6.336v-3.924h4.06v3.924h-4.06Zm30.79 6.228.11-2.844h3.42v17.64c0 2.928-.79 5.16-2.38 6.696-1.56 1.536-3.92 2.304-7.09 2.304-1.75 0-3.28-.24-4.57-.72-1.27-.48-2.28-1.2-3.03-2.16-.72-.936-1.12-2.112-1.22-3.528h3.78c.12 1.08.6 1.908 1.44 2.484.86.6 2.12.9 3.78.9 1.87 0 3.28-.48 4.21-1.44.96-.96 1.44-2.328 1.44-4.104v-2.628c-.67 1.008-1.57 1.8-2.7 2.376-1.1.576-2.34.864-3.71.864-1.7 0-3.21-.408-4.53-1.224-1.3-.816-2.32-1.944-3.06-3.384-.75-1.464-1.12-3.108-1.12-4.932 0-1.968.39-3.66 1.15-5.076.77-1.44 1.83-2.544 3.17-3.312 1.35-.792 2.87-1.188 4.57-1.188 1.37 0 2.61.3 3.71.9 1.11.6 1.98 1.392 2.63 2.376Zm-5.72 12.996c1.29 0 2.44-.372 3.45-1.116 1.03-.768 1.75-1.8 2.16-3.096v-5.004c-.41-1.296-1.13-2.316-2.16-3.06-1.01-.768-2.16-1.152-3.45-1.152-1.18 0-2.21.288-3.1.864-.86.576-1.55 1.368-2.05 2.376-.48.984-.72 2.136-.72 3.456 0 1.296.24 2.46.72 3.492.5 1.008 1.19 1.8 2.05 2.376.89.576 1.92.864 3.1.864Zm28.95 3.96v-12.456c0-1.416-.39-2.544-1.18-3.384-.8-.864-1.83-1.296-3.1-1.296-1.46 0-2.77.54-3.92 1.62-1.13 1.056-2.03 2.712-2.7 4.968l-.58-4.032c.74-1.896 1.81-3.312 3.2-4.248 1.42-.936 2.96-1.404 4.61-1.404 1.49 0 2.77.324 3.85.972 1.11.624 1.96 1.512 2.56 2.664.6 1.128.9 2.46.9 3.996V186h-3.64Zm-14.11 0v-26.496h3.64V186h-3.64Zm33.82 0c-1.22 0-2.27-.24-3.13-.72-.87-.504-1.51-1.212-1.95-2.124-.43-.912-.64-1.98-.64-3.204v-17.496l3.63-1.98v19.476c0 .576.09 1.104.25 1.584.17.48.5.852.98 1.116.5.264 1.23.396 2.19.396h5.94V186h-7.27Zm-10.4-16.848V166.2h14.5v2.952h-14.5Zm60.58 3.672c.91.264 1.71.66 2.41 1.188a5.464 5.464 0 0 1 1.69 2.052c.43.816.65 1.776.65 2.88 0 1.416-.36 2.652-1.08 3.708-.7 1.056-1.69 1.884-2.99 2.484-1.3.576-2.83.864-4.61.864h-9.72v-25.128h9.36c2.64 0 4.71.576 6.19 1.728 1.49 1.152 2.24 2.664 2.24 4.536 0 .888-.17 1.716-.51 2.484a5.259 5.259 0 0 1-1.4 1.98c-.63.552-1.37.96-2.23 1.224Zm-4.47-8.712h-5.36v7.416h5.36c1.42 0 2.53-.348 3.35-1.044.84-.696 1.26-1.62 1.26-2.772 0-1.128-.42-2.004-1.26-2.628-.84-.648-1.96-.972-3.35-.972Zm-5.36 18.648h5.83c1.46 0 2.62-.36 3.46-1.08.86-.72 1.29-1.692 1.29-2.916 0-1.272-.45-2.256-1.37-2.952-.88-.696-2.13-1.044-3.74-1.044h-5.47v7.992Zm26.47 3.24v-26.46h3.64V186h-3.64Zm-7.31 0v-2.952h18.29V186h-18.29Zm2.63-23.508v-2.952h6.48v2.952h-6.48ZM1560.68 186l-.14-4.5v-8.46c0-1.416-.47-2.52-1.41-3.312-.91-.816-2.17-1.224-3.78-1.224-1.56 0-2.83.36-3.81 1.08-.99.696-1.53 1.668-1.62 2.916h-3.57c.12-1.416.58-2.616 1.37-3.6.79-1.008 1.85-1.776 3.17-2.304 1.32-.552 2.84-.828 4.57-.828 1.78 0 3.31.3 4.61.9 1.29.576 2.29 1.416 2.99 2.52.72 1.104 1.08 2.448 1.08 4.032V186h-3.46Zm-7.16.432c-1.3 0-2.44-.228-3.42-.684-.99-.48-1.76-1.152-2.31-2.016-.55-.888-.83-1.92-.83-3.096 0-2.04.78-3.624 2.34-4.752 1.59-1.128 3.8-1.692 6.63-1.692h5.07v2.7h-5.22c-1.63 0-2.91.312-3.85.936-.91.624-1.37 1.5-1.37 2.628 0 .936.33 1.668.98 2.196.67.528 1.57.792 2.7.792 1.44 0 2.71-.384 3.81-1.152 1.13-.792 2.04-1.872 2.74-3.24l.39 2.664c-.62 1.512-1.58 2.676-2.88 3.492-1.29.816-2.89 1.224-4.78 1.224Zm25.97 0c-2.04 0-3.82-.42-5.33-1.26-1.49-.864-2.64-2.064-3.46-3.6-.81-1.56-1.22-3.384-1.22-5.472 0-2.136.42-3.972 1.26-5.508.84-1.56 2.01-2.748 3.53-3.564 1.51-.84 3.27-1.26 5.29-1.26 1.61 0 3.05.3 4.32.9 1.29.576 2.34 1.404 3.13 2.484.82 1.08 1.28 2.364 1.4 3.852h-3.63c-.19-1.344-.77-2.376-1.73-3.096-.94-.744-2.1-1.116-3.49-1.116-1.3 0-2.43.3-3.39.9-.96.576-1.7 1.404-2.23 2.484s-.79 2.388-.79 3.924c0 2.28.58 4.068 1.73 5.364 1.17 1.296 2.71 1.944 4.61 1.944.86 0 1.66-.168 2.41-.504a5.418 5.418 0 0 0 1.91-1.44c.52-.648.88-1.392 1.08-2.232h3.67c-.24 1.488-.79 2.772-1.66 3.852-.84 1.056-1.91 1.884-3.2 2.484-1.27.576-2.68.864-4.21.864Zm13.58-.432v-26.46h3.64v9.9l-.18 5.436 3.82-3.852 5.4-4.824h4.82l-13.86 12.6v7.2h-3.64Zm13.65 0-6.95-12.132 3.2-1.584 7.99 13.716h-4.24ZM1221.8 439.488v-3.24h6.37c1.05 0 1.98-.168 2.77-.504.82-.36 1.45-.864 1.91-1.512.48-.648.72-1.392.72-2.232 0-.816-.21-1.512-.61-2.088-.41-.576-.96-1.02-1.66-1.332-.7-.312-1.48-.468-2.34-.468h-7.16v-3.24h7.16c1.66 0 3.13.288 4.43.864 1.29.552 2.31 1.356 3.06 2.412.74 1.056 1.11 2.34 1.11 3.852 0 .96-.22 1.884-.68 2.772-.43.888-1.07 1.692-1.91 2.412-.81.696-1.81 1.26-2.99 1.692-1.17.408-2.5.612-3.99.612h-6.19ZM1219.06 450v-25.128h3.82V450h-3.82Zm14.44 0a12.492 12.492 0 0 0-.94-3.348 13.606 13.606 0 0 0-1.87-3.168c-.79-1.008-1.78-1.944-2.95-2.808-1.16-.864-2.5-1.644-4.04-2.34l4.25-.936c1.59.792 2.94 1.68 4.07 2.664 1.15.96 2.1 1.98 2.84 3.06.77 1.08 1.35 2.196 1.73 3.348a14.9 14.9 0 0 1 .79 3.528h-3.88Zm17.83.432c-2.04 0-3.8-.408-5.29-1.224a8.425 8.425 0 0 1-3.42-3.564c-.79-1.56-1.19-3.42-1.19-5.58s.4-4.008 1.19-5.544a8.445 8.445 0 0 1 3.45-3.528c1.52-.816 3.32-1.224 5.4-1.224 3.2 0 5.57.888 7.13 2.664 1.56 1.752 2.25 4.164 2.05 7.236h-16.34l.04-2.736 12.6.036c-.1-1.272-.65-2.292-1.66-3.06-1.01-.768-2.28-1.152-3.82-1.152-2.06 0-3.64.648-4.75 1.944-1.1 1.296-1.65 3.132-1.65 5.508 0 1.416.24 2.676.72 3.78.5 1.08 1.22 1.92 2.16 2.52.93.6 2.06.9 3.38.9 1.56 0 2.86-.372 3.89-1.116 1.05-.744 1.7-1.752 1.94-3.024h3.64c-.31 2.232-1.31 3.984-2.99 5.256-1.68 1.272-3.84 1.908-6.48 1.908Zm22.15-20.664c1.37 0 2.62.276 3.75.828 1.13.528 2.04 1.272 2.73 2.232v-9.288h3.6V450h-3.42l-.1-2.772c-.7.96-1.62 1.74-2.78 2.34-1.12.576-2.38.864-3.78.864-1.75 0-3.3-.444-4.64-1.332-1.34-.888-2.4-2.112-3.17-3.672-.74-1.56-1.11-3.336-1.11-5.328 0-2.016.37-3.804 1.11-5.364.77-1.56 1.83-2.772 3.17-3.636 1.34-.888 2.89-1.332 4.64-1.332Zm.8 17.604c1.29 0 2.44-.36 3.45-1.08 1.01-.744 1.75-1.74 2.23-2.988v-6.444c-.48-1.272-1.22-2.256-2.23-2.952-1.01-.72-2.16-1.08-3.45-1.08-1.2 0-2.26.312-3.17.936-.91.6-1.63 1.452-2.16 2.556-.51 1.08-.76 2.34-.76 3.78 0 1.416.25 2.676.76 3.78.53 1.08 1.25 1.932 2.16 2.556.91.624 1.97.936 3.17.936Zm29.06-8.676v-2.376c0-1.032-.31-1.86-.93-2.484-.63-.648-1.53-.972-2.7-.972-1.49 0-2.82.564-4 1.692-1.18 1.104-2.11 2.796-2.81 5.076l-.5-3.672c.53-1.368 1.16-2.508 1.91-3.42.76-.912 1.64-1.596 2.62-2.052 1.01-.48 2.12-.72 3.32-.72 1.99 0 3.61.576 4.86 1.728 1.24 1.128 1.87 2.736 1.87 4.824v2.376h-3.64ZM1289.95 450v-19.8h3.42l.22 4.5V450h-3.64Zm36.59 0-.14-4.5v-8.46c0-1.416-.47-2.52-1.41-3.312-.91-.816-2.17-1.224-3.78-1.224-1.56 0-2.83.36-3.81 1.08-.99.696-1.53 1.668-1.62 2.916h-3.57c.12-1.416.58-2.616 1.37-3.6.79-1.008 1.85-1.776 3.17-2.304 1.32-.552 2.84-.828 4.57-.828 1.78 0 3.31.3 4.61.9 1.29.576 2.29 1.416 2.99 2.52.72 1.104 1.08 2.448 1.08 4.032V450h-3.46Zm-7.16.432c-1.3 0-2.44-.228-3.42-.684-.99-.48-1.76-1.152-2.31-2.016-.55-.888-.83-1.92-.83-3.096 0-2.04.78-3.624 2.34-4.752 1.59-1.128 3.8-1.692 6.63-1.692h5.07v2.7h-5.22c-1.63 0-2.91.312-3.85.936-.91.624-1.37 1.5-1.37 2.628 0 .936.33 1.668.98 2.196.67.528 1.57.792 2.7.792 1.44 0 2.71-.384 3.81-1.152 1.13-.792 2.04-1.872 2.74-3.24l.39 2.664c-.62 1.512-1.58 2.676-2.88 3.492-1.29.816-2.89 1.224-4.78 1.224Zm17.72-.432-3.27-19.872h3.38l1.73 11.232.72 4.824 1.01-4.824 2.52-11.232h3.27l2.63 11.232 1.01 4.86.68-4.86 1.73-11.232h3.28L1352.51 450h-4.28l-2.6-10.872-.82-5.364-.83 5.364-2.59 10.872h-4.29Zm29.46 0v-19.8h3.64V450h-3.64Zm-7.3 0v-2.952H1377V450h-17.74Zm2.62-16.848V430.2h6.48v2.952h-6.48Zm4.43-6.336v-3.924h4.07v3.924h-4.07ZM1396.93 450v-12.492c0-1.392-.4-2.508-1.19-3.348-.79-.864-1.83-1.296-3.1-1.296-1.46 0-2.77.54-3.92 1.62-1.13 1.056-2.03 2.712-2.7 4.968l-.58-4.068c.75-1.872 1.81-3.276 3.21-4.212 1.41-.936 2.95-1.404 4.6-1.404 1.49 0 2.78.324 3.86.972a6.43 6.43 0 0 1 2.55 2.628c.6 1.128.9 2.46.9 3.996V450h-3.63Zm-14.12 0v-19.8h3.46l.18 4.464V450h-3.64Zm37.71-16.956.11-2.844h3.42v17.64c0 2.928-.79 5.16-2.38 6.696-1.56 1.536-3.92 2.304-7.09 2.304-1.75 0-3.28-.24-4.57-.72-1.27-.48-2.28-1.2-3.03-2.16-.72-.936-1.12-2.112-1.22-3.528h3.78c.12 1.08.6 1.908 1.44 2.484.86.6 2.12.9 3.78.9 1.87 0 3.28-.48 4.21-1.44.96-.96 1.44-2.328 1.44-4.104v-2.628c-.67 1.008-1.57 1.8-2.7 2.376-1.1.576-2.34.864-3.71.864-1.7 0-3.21-.408-4.53-1.224-1.3-.816-2.32-1.944-3.06-3.384-.75-1.464-1.12-3.108-1.12-4.932 0-1.968.39-3.66 1.15-5.076.77-1.44 1.83-2.544 3.17-3.312 1.35-.792 2.87-1.188 4.57-1.188 1.37 0 2.61.3 3.71.9 1.11.6 1.98 1.392 2.63 2.376Zm-5.72 12.996c1.29 0 2.44-.372 3.45-1.116 1.03-.768 1.75-1.8 2.16-3.096v-5.004c-.41-1.296-1.13-2.316-2.16-3.06-1.01-.768-2.16-1.152-3.45-1.152-1.18 0-2.21.288-3.1.864-.86.576-1.55 1.368-2.05 2.376-.48.984-.72 2.136-.72 3.456 0 1.296.24 2.46.72 3.492.5 1.008 1.19 1.8 2.05 2.376.89.576 1.92.864 3.1.864Zm48.66 3.96c-1.22 0-2.27-.24-3.13-.72-.87-.504-1.51-1.212-1.95-2.124-.43-.912-.64-1.98-.64-3.204v-17.496l3.63-1.98v19.476c0 .576.09 1.104.25 1.584.17.48.5.852.98 1.116.5.264 1.23.396 2.19.396h5.94V450h-7.27Zm-10.4-16.848V430.2h14.5v2.952h-14.5ZM1490.58 450v-12.456c0-1.416-.39-2.544-1.19-3.384-.79-.864-1.82-1.296-3.09-1.296-1.47 0-2.77.54-3.93 1.62-1.12 1.056-2.02 2.712-2.7 4.968l-.57-4.032c.74-1.896 1.81-3.312 3.2-4.248 1.42-.936 2.95-1.404 4.61-1.404 1.49 0 2.77.324 3.85.972 1.11.624 1.96 1.512 2.56 2.664.6 1.128.9 2.46.9 3.996V450h-3.64Zm-14.11 0v-26.496h3.64V450h-3.64Zm32.41.432c-2.04 0-3.8-.408-5.29-1.224a8.425 8.425 0 0 1-3.42-3.564c-.79-1.56-1.19-3.42-1.19-5.58s.4-4.008 1.19-5.544c.82-1.536 1.97-2.712 3.46-3.528 1.51-.816 3.31-1.224 5.4-1.224 3.19 0 5.57.888 7.13 2.664 1.56 1.752 2.24 4.164 2.05 7.236h-16.35l.04-2.736 12.6.036c-.1-1.272-.65-2.292-1.66-3.06-1-.768-2.28-1.152-3.81-1.152-2.07 0-3.65.648-4.75 1.944-1.11 1.296-1.66 3.132-1.66 5.508 0 1.416.24 2.676.72 3.78.5 1.08 1.22 1.92 2.16 2.52.94.6 2.06.9 3.38.9 1.56 0 2.86-.372 3.89-1.116 1.06-.744 1.71-1.752 1.95-3.024h3.63c-.31 2.232-1.31 3.984-2.99 5.256-1.68 1.272-3.84 1.908-6.48 1.908Zm38.88-.432v-25.128h3.81v21.888h13.18V450h-16.99Zm28.88 0v-4.428h4.47V450l-2.49 6.372h-3.24l1.19-2.124 2.59-4.284-2.52.036Zm49.14.432c-1.97 0-3.69-.384-5.15-1.152-1.47-.792-2.61-1.884-3.42-3.276-.82-1.416-1.23-3.06-1.23-4.932v-16.2h3.86v16.2c0 1.224.24 2.292.72 3.204.5.912 1.2 1.62 2.08 2.124.89.504 1.94.756 3.14.756 1.2 0 2.23-.252 3.09-.756a5.13 5.13 0 0 0 2.05-2.124c.51-.912.76-1.98.76-3.204v-16.2h3.85v16.2c0 1.872-.41 3.516-1.22 4.932-.82 1.392-1.96 2.484-3.42 3.276-1.44.768-3.15 1.152-5.11 1.152ZM1232.88 492l-.14-4.5v-8.46c0-1.416-.47-2.52-1.4-3.312-.92-.816-2.18-1.224-3.78-1.224-1.56 0-2.84.36-3.82 1.08-.98.696-1.52 1.668-1.62 2.916h-3.56c.12-1.416.57-2.616 1.36-3.6.8-1.008 1.85-1.776 3.17-2.304 1.32-.552 2.85-.828 4.57-.828 1.78 0 3.32.3 4.61.9 1.3.576 2.29 1.416 2.99 2.52.72 1.104 1.08 2.448 1.08 4.032V492h-3.46Zm-7.16.432c-1.3 0-2.44-.228-3.42-.684-.98-.48-1.75-1.152-2.3-2.016-.56-.888-.83-1.92-.83-3.096 0-2.04.78-3.624 2.34-4.752 1.58-1.128 3.79-1.692 6.62-1.692h5.08v2.7h-5.22c-1.63 0-2.92.312-3.85.936-.92.624-1.37 1.5-1.37 2.628 0 .936.32 1.668.97 2.196.67.528 1.57.792 2.7.792 1.44 0 2.71-.384 3.82-1.152 1.12-.792 2.04-1.872 2.73-3.24l.4 2.664c-.63 1.512-1.59 2.676-2.88 3.492-1.3.816-2.89 1.224-4.79 1.224Zm30.72-.432v-12.492c0-1.392-.39-2.508-1.19-3.348-.79-.864-1.82-1.296-3.09-1.296-1.47 0-2.77.54-3.93 1.62-1.12 1.056-2.02 2.712-2.7 4.968l-.57-4.068c.74-1.872 1.81-3.276 3.2-4.212 1.42-.936 2.95-1.404 4.61-1.404 1.49 0 2.77.324 3.85.972 1.11.624 1.96 1.5 2.56 2.628.6 1.128.9 2.46.9 3.996V492h-3.64Zm-14.11 0v-19.8h3.46l.18 4.464V492h-3.64Zm31.15-20.232c1.37 0 2.62.276 3.75.828 1.13.528 2.04 1.272 2.73 2.232v-9.288h3.6V492h-3.42l-.1-2.772c-.7.96-1.62 1.74-2.78 2.34-1.12.576-2.38.864-3.78.864-1.75 0-3.3-.444-4.64-1.332-1.34-.888-2.4-2.112-3.17-3.672-.74-1.56-1.11-3.336-1.11-5.328 0-2.016.37-3.804 1.11-5.364.77-1.56 1.83-2.772 3.17-3.636 1.34-.888 2.89-1.332 4.64-1.332Zm.8 17.604c1.29 0 2.44-.36 3.45-1.08 1.01-.744 1.75-1.74 2.23-2.988v-6.444c-.48-1.272-1.22-2.256-2.23-2.952-1.01-.72-2.16-1.08-3.45-1.08-1.2 0-2.26.312-3.17.936-.91.6-1.63 1.452-2.16 2.556-.51 1.08-.76 2.34-.76 3.78 0 1.416.25 2.676.76 3.78.53 1.08 1.25 1.932 2.16 2.556.91.624 1.97.936 3.17.936Zm40.31-3.708v-3.24h13.93v3.24h-13.93Zm4.03-18.792h5.47l7.78 25.128h-3.93l-5.07-16.632-1.51-5.508-1.52 5.544L1314.7 492h-3.86l7.78-25.128Zm50.1 25.56c-1.75 0-3.3-.3-4.64-.9-1.32-.624-2.34-1.488-3.06-2.592-.72-1.128-1.09-2.472-1.12-4.032h3.42c0 1.464.5 2.616 1.48 3.456.98.84 2.28 1.26 3.89 1.26 1.37 0 2.46-.252 3.27-.756.84-.528 1.26-1.236 1.26-2.124 0-.696-.24-1.248-.72-1.656-.45-.432-1.06-.768-1.83-1.008s-1.62-.444-2.56-.612c-.91-.192-1.83-.408-2.77-.648a15 15 0 0 1-2.52-.972 5.312 5.312 0 0 1-1.87-1.62c-.48-.672-.72-1.548-.72-2.628 0-1.128.32-2.124.97-2.988.65-.888 1.56-1.584 2.74-2.088 1.2-.504 2.61-.756 4.24-.756 2.48 0 4.46.576 5.94 1.728 1.52 1.128 2.33 2.688 2.45 4.68h-3.42c-.07-1.152-.55-2.04-1.44-2.664-.86-.648-2.04-.972-3.53-.972-1.39 0-2.46.276-3.2.828-.72.552-1.08 1.248-1.08 2.088 0 .648.24 1.164.72 1.548.48.36 1.1.648 1.87.864.77.192 1.61.372 2.52.54.94.144 1.86.336 2.77.576.94.24 1.79.576 2.56 1.008.77.408 1.38.972 1.84 1.692.48.72.72 1.656.72 2.808 0 1.848-.75 3.3-2.24 4.356-1.48 1.056-3.46 1.584-5.94 1.584Zm28.21-.432v-12.456c0-1.416-.4-2.544-1.19-3.384-.79-.864-1.83-1.296-3.1-1.296-1.46 0-2.77.54-3.92 1.62-1.13 1.056-2.03 2.712-2.7 4.968l-.58-4.032c.75-1.896 1.81-3.312 3.21-4.248 1.41-.936 2.95-1.404 4.6-1.404 1.49 0 2.78.324 3.86.972 1.1.624 1.95 1.512 2.55 2.664.6 1.128.9 2.46.9 3.996V492h-3.63Zm-14.12 0v-26.496h3.64V492h-3.64Zm37.39 0-.15-4.5v-8.46c0-1.416-.47-2.52-1.4-3.312-.91-.816-2.17-1.224-3.78-1.224-1.56 0-2.83.36-3.82 1.08-.98.696-1.52 1.668-1.62 2.916h-3.56c.12-1.416.57-2.616 1.37-3.6.79-1.008 1.84-1.776 3.16-2.304 1.32-.552 2.85-.828 4.58-.828 1.77 0 3.31.3 4.6.9 1.3.576 2.3 1.416 2.99 2.52.72 1.104 1.08 2.448 1.08 4.032V492h-3.45Zm-7.17.432c-1.29 0-2.43-.228-3.42-.684-.98-.48-1.75-1.152-2.3-2.016-.55-.888-.83-1.92-.83-3.096 0-2.04.78-3.624 2.34-4.752 1.58-1.128 3.79-1.692 6.62-1.692h5.08v2.7h-5.22c-1.63 0-2.92.312-3.85.936-.91.624-1.37 1.5-1.37 2.628 0 .936.32 1.668.97 2.196.67.528 1.57.792 2.7.792 1.44 0 2.71-.384 3.82-1.152 1.13-.792 2.04-1.872 2.73-3.24l.4 2.664c-.62 1.512-1.58 2.676-2.88 3.492-1.3.816-2.89 1.224-4.79 1.224Zm26.55-20.664c1.77 0 3.32.444 4.64 1.332 1.35.864 2.4 2.076 3.17 3.636s1.15 3.348 1.15 5.364c0 1.992-.38 3.768-1.15 5.328-.77 1.56-1.82 2.784-3.17 3.672-1.32.888-2.87 1.332-4.64 1.332-1.35 0-2.58-.276-3.71-.828a7.68 7.68 0 0 1-2.74-2.268v9.072h-3.63V472.2h3.45l.11 2.7c.72-.96 1.65-1.716 2.77-2.268 1.13-.576 2.38-.864 3.75-.864Zm-.79 17.604c1.22 0 2.29-.312 3.2-.936.91-.624 1.62-1.476 2.12-2.556.51-1.104.76-2.364.76-3.78 0-1.44-.25-2.7-.76-3.78-.5-1.104-1.21-1.956-2.12-2.556-.91-.624-1.98-.936-3.2-.936-1.25 0-2.39.36-3.42 1.08-1.01.696-1.76 1.656-2.24 2.88v6.552c.48 1.248 1.23 2.232 2.24 2.952 1.03.72 2.17 1.08 3.42 1.08Zm23.27 3.06c-2.04 0-3.81-.408-5.3-1.224-1.48-.84-2.62-2.028-3.42-3.564-.79-1.56-1.18-3.42-1.18-5.58s.39-4.008 1.18-5.544c.82-1.536 1.97-2.712 3.46-3.528 1.51-.816 3.31-1.224 5.4-1.224 3.19 0 5.57.888 7.13 2.664 1.56 1.752 2.24 4.164 2.05 7.236h-16.34l.03-2.736 12.6.036c-.09-1.272-.65-2.292-1.65-3.06-1.01-.768-2.28-1.152-3.82-1.152-2.06 0-3.65.648-4.75 1.944-1.11 1.296-1.66 3.132-1.66 5.508 0 1.416.24 2.676.72 3.78.51 1.08 1.23 1.92 2.16 2.52.94.6 2.07.9 3.39.9 1.56 0 2.85-.372 3.88-1.116 1.06-.744 1.71-1.752 1.95-3.024h3.63c-.31 2.232-1.3 3.984-2.98 5.256-1.68 1.272-3.84 1.908-6.48 1.908Zm23.73 0c-1.75 0-3.3-.3-4.64-.9-1.32-.624-2.34-1.488-3.06-2.592-.72-1.128-1.09-2.472-1.12-4.032h3.42c0 1.464.5 2.616 1.48 3.456.98.84 2.28 1.26 3.89 1.26 1.37 0 2.46-.252 3.27-.756.84-.528 1.26-1.236 1.26-2.124 0-.696-.24-1.248-.72-1.656-.45-.432-1.06-.768-1.83-1.008s-1.62-.444-2.56-.612c-.91-.192-1.83-.408-2.77-.648a15 15 0 0 1-2.52-.972 5.312 5.312 0 0 1-1.87-1.62c-.48-.672-.72-1.548-.72-2.628 0-1.128.32-2.124.97-2.988.65-.888 1.56-1.584 2.74-2.088 1.2-.504 2.61-.756 4.24-.756 2.48 0 4.46.576 5.94 1.728 1.52 1.128 2.33 2.688 2.45 4.68h-3.42c-.07-1.152-.55-2.04-1.44-2.664-.86-.648-2.04-.972-3.53-.972-1.39 0-2.46.276-3.2.828-.72.552-1.08 1.248-1.08 2.088 0 .648.24 1.164.72 1.548.48.36 1.1.648 1.87.864.77.192 1.61.372 2.52.54.94.144 1.86.336 2.77.576.94.24 1.79.576 2.56 1.008.77.408 1.38.972 1.84 1.692.48.72.72 1.656.72 2.808 0 1.848-.75 3.3-2.24 4.356-1.48 1.056-3.46 1.584-5.94 1.584Z"/><path stroke="#1A73E8" stroke-width="2" d="M243 144h1438M243 408h1438"/><defs><clipPath id="a"><path fill="#fff" d="M247 397h822v262H247z"/></clipPath><clipPath id="b"><path fill="#fff" d="M238 659h1088v263H238z"/></clipPath><clipPath id="c"><path fill="#fff" d="M247 157h822v227H247z"/></clipPath><clipPath id="d"><path fill="#fff" d="M1345 685h400v225h-400z"/></clipPath></defs></svg>