<svg xmlns="http://www.w3.org/2000/svg" width="1920" height="1080" fill="none"><g clip-path="url(#a)"><path fill="#1A73E8" d="M409.696 523.605V220.137h82.221v225.429h122.524v78.039H409.696Z"/><path fill="#D2E3FC" d="M817.569 220.137h82.23v194.306c0 23.089-5.492 43.078-16.485 59.984-10.992 16.907-26.329 29.943-45.995 39.108-19.674 9.165-42.538 13.748-68.592 13.748-26.053 0-48.884-4.583-68.491-13.748s-34.877-22.201-45.794-39.108c-10.926-16.906-16.384-36.895-16.384-59.984V220.137h82.229v187.377c0 9.509 2.101 17.895 6.313 25.15 4.202 7.264 9.937 12.969 17.196 17.108 7.258 4.147 15.571 6.208 24.931 6.208 9.36 0 17.908-2.07 25.242-6.208 7.325-4.139 13.094-9.844 17.296-17.108 4.203-7.263 6.313-15.649 6.313-25.15V220.137h-.009Z"/><path fill="#3C4043" d="M1191.24 220.137v303.468h-68.38l-109.5-159.27h-2.03v159.27h-82.229V220.137h70.015l107.464 158.868h2.44V220.137h82.23-.01Z"/><path fill="#D2E3FC" d="M1299.12 523.605h-88.75l100.14-303.468h112.35L1523 523.605h-88.74l-66.35-219.967h-2.45l-66.34 219.967Z"/><path stroke="#FF6D7F" stroke-miterlimit="10" d="M638.049 185v355M719.835 185v355M946.297 527.25H591.543M1026.56 523.605H398M1026.56 445.498H398M818.013 185v355M899.791 185v355"/><path fill="#1A73E8" d="M1292.6 523.606h-82.22l100.47-304.055h82.23L1292.6 523.606Z"/><path fill="#1A73E8" d="M1440.78 523.606H1523l-100.47-304.055h-82.22l100.47 304.055Z"/><path fill="#1A73E8" d="M1400.37 304.015v-82.286h-50.9v82.286h50.9ZM817.745 220.145v176.159c0 26.943-21.901 48.859-48.825 48.859-26.924 0-48.825-21.916-48.825-48.859V220.145h-82.046v176.159c0 72.325 58.596 130.962 130.871 130.962s130.871-58.637 130.871-130.962V220.145h-82.046Z"/><path stroke="#FF6D7F" stroke-miterlimit="10" stroke-width="3" d="M1108.47 401.65c12.41 0 22.47-10.068 22.47-22.486 0-12.419-10.06-22.486-22.47-22.486-12.41 0-22.47 10.067-22.47 22.486 0 12.418 10.06 22.486 22.47 22.486ZM1366.69 330.698c12.41 0 22.47-10.067 22.47-22.485 0-12.419-10.06-22.486-22.47-22.486-12.41 0-22.47 10.067-22.47 22.486 0 12.418 10.06 22.485 22.47 22.485Z"/></g><g fill="#1A73E8" clip-path="url(#b)"><path d="M408 860.293V553h83.378v228.27h124.236v79.023H408ZM1192.61 553v307.293h-69.34l-111.03-161.277h-2.06v161.277h-83.378V553h70.993l108.965 160.87h2.48V553h83.38-.01ZM1295.38 860.293h-83.37L1313.63 553H1397l-101.62 307.293Z"/><path d="M1445.62 860.293H1529L1427.38 553H1344l101.62 307.293Z"/><path d="M1396.31 636.324V553h-51.61v83.324h51.61ZM813.882 553.008v178.379c0 27.283-22.207 49.475-49.507 49.475-27.301 0-49.508-22.192-49.508-49.475V553.008h-83.192v178.379c0 73.237 59.414 132.612 132.7 132.612 73.285 0 132.699-59.375 132.699-132.612V553.008h-83.192Z"/></g><defs><clipPath id="a"><path fill="#fff" d="M398 185h1125v355H398z"/></clipPath><clipPath id="b"><path fill="#fff" d="M408 553h1121v311H408z"/></clipPath></defs></svg>