<svg xmlns="http://www.w3.org/2000/svg" width="1920" height="1080" fill="none"><g clip-path="url(#a)"><path fill="#1A73E8" d="M245 701.929v-63.685h850.37l25.32 63.685H245ZM245 611.868V377h63.691v174.47h94.9v60.398H245ZM844.343 377v234.868h-52.965l-84.811-123.266h-1.576v123.266H641.3V377h54.23l83.235 122.955h1.894V377h63.691-.007ZM922.851 611.868H859.16L936.786 377h63.684l-77.619 234.868Z"/><path fill="#1A73E8" d="M1037.61 611.868h63.69L1023.68 377h-63.692l77.622 234.868Z"/><path fill="#1A73E8" d="M1067.15 701.767h63.69l-77.62-234.874h-63.696l77.626 234.874ZM999.945 440.685V377h-39.419v63.685h39.419ZM555.044 377.006v136.338c0 20.852-16.964 37.814-37.818 37.814s-37.818-16.962-37.818-37.814V377.006H415.86v136.338c0 55.976 45.385 101.357 101.366 101.357s101.366-45.381 101.366-101.357V377.006h-63.548Z"/><path fill="#1A73E8" d="M517.233 542.042c17.662 0 31.981-14.318 31.981-31.979 0-17.662-14.319-31.979-31.981-31.979-17.663 0-31.982 14.317-31.982 31.979 0 17.661 14.319 31.979 31.982 31.979Z"/><path fill="#fff" d="M551.354 525.697c8.634 0 15.634-6.999 15.634-15.633 0-8.633-7-15.632-15.634-15.632-8.635 0-15.634 6.999-15.634 15.632 0 8.634 6.999 15.633 15.634 15.633Z"/><path fill="#1A73E8" d="m1378.8 703 20.54-63.686h241.2L1665.85 703H1378.8Z"/><path fill="#1A73E8" d="m1174 703 20.54-63.686h241.2L1461.05 703H1174ZM1468.01 612.945h-63.68l77.61-234.875h63.7l-77.63 234.875Z"/><path fill="#1A73E8" d="M1582.78 612.945h63.68l-77.62-234.875h-63.69l77.63 234.875Z"/><path fill="#1A73E8" d="M1612.32 702.839H1676l-77.62-234.868h-63.69l77.63 234.868ZM1525.61 605.299c17.66 0 31.98-14.317 31.98-31.978 0-17.662-14.32-31.979-31.98-31.979s-31.98 14.317-31.98 31.979c0 17.661 14.32 31.978 31.98 31.978Z"/><path fill="#fff" d="M1561.27 588.953c8.63 0 15.63-6.999 15.63-15.633 0-8.633-7-15.632-15.63-15.632s-15.63 6.999-15.63 15.632c0 8.634 7 15.633 15.63 15.633Z"/></g><path fill="#FF6D7F" d="M537.988 863v-25.128h18.036v3.24h-14.22v7.236h9.792v3.24h-9.792v8.172h14.364V863h-18.18Zm37.31 0-.144-4.5v-8.46c0-1.416-.468-2.52-1.404-3.312-.912-.816-2.172-1.224-3.78-1.224-1.56 0-2.832.36-3.816 1.08-.984.696-1.524 1.668-1.62 2.916h-3.564c.12-1.416.576-2.616 1.368-3.6.792-1.008 1.848-1.776 3.168-2.304 1.32-.552 2.844-.828 4.572-.828 1.776 0 3.312.3 4.608.9 1.296.576 2.292 1.416 2.988 2.52.72 1.104 1.08 2.448 1.08 4.032V863h-3.456Zm-7.164.432c-1.296 0-2.436-.228-3.42-.684-.984-.48-1.752-1.152-2.304-2.016-.552-.888-.828-1.92-.828-3.096 0-2.04.78-3.624 2.34-4.752 1.584-1.128 3.792-1.692 6.624-1.692h5.076v2.7h-5.22c-1.632 0-2.916.312-3.852.936-.912.624-1.368 1.5-1.368 2.628 0 .936.324 1.668.972 2.196.672.528 1.572.792 2.7.792 1.44 0 2.712-.384 3.816-1.152 1.128-.792 2.04-1.872 2.736-3.24l.396 2.664c-.624 1.512-1.584 2.676-2.88 3.492-1.296.816-2.892 1.224-4.788 1.224Zm30.794-11.736v-2.376c0-1.032-.312-1.86-.936-2.484-.624-.648-1.524-.972-2.7-.972-1.488 0-2.82.564-3.996 1.692-1.176 1.104-2.112 2.796-2.808 5.076l-.504-3.672c.528-1.368 1.164-2.508 1.908-3.42.768-.912 1.644-1.596 2.628-2.052 1.008-.48 2.112-.72 3.312-.72 1.992 0 3.612.576 4.86 1.728 1.248 1.128 1.872 2.736 1.872 4.824v2.376h-3.636ZM585.536 863v-19.8h3.42l.216 4.5V863h-3.636Zm33.026 0c-1.224 0-2.268-.24-3.132-.72a4.763 4.763 0 0 1-1.944-2.124c-.432-.912-.648-1.98-.648-3.204v-17.496l3.636-1.98v19.476c0 .576.084 1.104.252 1.584.168.48.492.852.972 1.116.504.264 1.236.396 2.196.396h5.94V863h-7.272Zm-10.404-16.848V843.2h14.508v2.952h-14.508ZM645.684 863v-12.456c0-1.416-.396-2.544-1.188-3.384-.792-.864-1.824-1.296-3.096-1.296-1.464 0-2.772.54-3.924 1.62-1.128 1.056-2.028 2.712-2.7 4.968l-.576-4.032c.744-1.896 1.812-3.312 3.204-4.248 1.416-.936 2.952-1.404 4.608-1.404 1.488 0 2.772.324 3.852.972a6.367 6.367 0 0 1 2.556 2.664c.6 1.128.9 2.46.9 3.996V863h-3.636Zm-14.112 0v-26.496h3.636V863h-3.636Zm53.128.432c-1.608 0-3.012-.3-4.212-.9-1.176-.6-2.088-1.428-2.736-2.484-.648-1.08-.972-2.304-.972-3.672 0-1.056.18-2.016.54-2.88.384-.864.948-1.656 1.692-2.376s1.692-1.368 2.844-1.944c-.816-1.008-1.44-1.932-1.872-2.772-.408-.864-.612-1.824-.612-2.88 0-1.248.288-2.328.864-3.24a5.63 5.63 0 0 1 2.34-2.088c1.008-.504 2.136-.756 3.384-.756 1.272 0 2.376.24 3.312.72.96.48 1.704 1.152 2.232 2.016.528.84.792 1.836.792 2.988a6.1 6.1 0 0 1-.54 2.484c-.36.792-.936 1.536-1.728 2.232-.792.672-1.812 1.308-3.06 1.908l4.824 5.688c.408-.696.768-1.464 1.08-2.304.336-.84.624-1.656.864-2.448h3.636a30.459 30.459 0 0 1-1.368 3.924 18.892 18.892 0 0 1-1.872 3.528L698.2 863h-4.644l-1.944-2.304c-.888.84-1.92 1.512-3.096 2.016-1.176.48-2.448.72-3.816.72Zm.144-3.204c.936 0 1.788-.18 2.556-.54a7.642 7.642 0 0 0 2.088-1.476l-5.724-6.732c-.624.36-1.2.756-1.728 1.188a5.05 5.05 0 0 0-1.26 1.512c-.312.552-.468 1.2-.468 1.944 0 1.176.408 2.16 1.224 2.952.816.768 1.92 1.152 3.312 1.152Zm.216-12.672c1.368-.672 2.34-1.332 2.916-1.98.576-.648.864-1.38.864-2.196 0-.888-.264-1.584-.792-2.088-.504-.504-1.212-.756-2.124-.756-.864 0-1.584.276-2.16.828-.576.552-.864 1.26-.864 2.124 0 .744.204 1.44.612 2.088.432.624.948 1.284 1.548 1.98ZM723.249 863l1.872-25.128h5.004l3.204 14.868.756 4.896.792-4.896 3.132-14.868h4.932L744.849 863h-3.78l-.828-15.732-.144-5.544-1.08 5.544-3.42 15.732h-3.24l-3.384-15.732-1.008-5.616-.216 5.616-.792 15.732h-3.708Zm34.142.432c-2.04 0-3.804-.42-5.292-1.26-1.464-.84-2.592-2.028-3.384-3.564-.792-1.56-1.188-3.396-1.188-5.508 0-2.16.396-3.996 1.188-5.508.792-1.536 1.92-2.724 3.384-3.564 1.488-.84 3.264-1.26 5.328-1.26 3.072 0 5.484.924 7.236 2.772 1.752 1.824 2.628 4.344 2.628 7.56 0 2.112-.396 3.948-1.188 5.508a8.449 8.449 0 0 1-3.42 3.564c-1.464.84-3.228 1.26-5.292 1.26Zm.036-3.024c1.92 0 3.432-.648 4.536-1.944 1.128-1.32 1.692-3.108 1.692-5.364 0-2.28-.564-4.068-1.692-5.364-1.104-1.296-2.616-1.944-4.536-1.944-1.944 0-3.468.648-4.572 1.944-1.104 1.296-1.656 3.084-1.656 5.364 0 2.256.552 4.044 1.656 5.364 1.104 1.296 2.628 1.944 4.572 1.944Zm23.378 3.024c-2.04 0-3.804-.42-5.292-1.26-1.464-.84-2.592-2.028-3.384-3.564-.792-1.56-1.188-3.396-1.188-5.508 0-2.16.396-3.996 1.188-5.508.792-1.536 1.92-2.724 3.384-3.564 1.488-.84 3.264-1.26 5.328-1.26 3.072 0 5.484.924 7.236 2.772 1.752 1.824 2.628 4.344 2.628 7.56 0 2.112-.396 3.948-1.188 5.508a8.449 8.449 0 0 1-3.42 3.564c-1.464.84-3.228 1.26-5.292 1.26Zm.036-3.024c1.92 0 3.432-.648 4.536-1.944 1.128-1.32 1.692-3.108 1.692-5.364 0-2.28-.564-4.068-1.692-5.364-1.104-1.296-2.616-1.944-4.536-1.944-1.944 0-3.468.648-4.572 1.944-1.104 1.296-1.656 3.084-1.656 5.364 0 2.256.552 4.044 1.656 5.364 1.104 1.296 2.628 1.944 4.572 1.944ZM809.583 863v-12.492c0-1.392-.396-2.508-1.188-3.348-.792-.864-1.824-1.296-3.096-1.296-1.464 0-2.772.54-3.924 1.62-1.128 1.056-2.028 2.712-2.7 4.968l-.576-4.068c.744-1.872 1.812-3.276 3.204-4.212 1.416-.936 2.952-1.404 4.608-1.404 1.488 0 2.772.324 3.852.972a6.42 6.42 0 0 1 2.556 2.628c.6 1.128.9 2.46.9 3.996V863h-3.636Zm-14.112 0v-19.8h3.456l.18 4.464V863h-3.636Zm53.992 0v-19.8h3.636V863h-3.636Zm-7.308 0v-2.952h17.748V863h-17.748Zm2.628-16.848V843.2h6.48v2.952h-6.48Zm4.428-6.336v-3.924h4.068v3.924h-4.068Zm25.862 23.616c-2.04 0-3.816-.42-5.328-1.26a8.915 8.915 0 0 1-3.456-3.6c-.816-1.56-1.224-3.384-1.224-5.472 0-2.136.42-3.972 1.26-5.508.84-1.56 2.016-2.748 3.528-3.564 1.512-.84 3.276-1.26 5.292-1.26 1.608 0 3.048.3 4.32.9 1.296.576 2.34 1.404 3.132 2.484.816 1.08 1.284 2.364 1.404 3.852h-3.636c-.192-1.344-.768-2.376-1.728-3.096-.936-.744-2.1-1.116-3.492-1.116-1.296 0-2.424.3-3.384.9-.96.576-1.704 1.404-2.232 2.484-.528 1.08-.792 2.388-.792 3.924 0 2.28.576 4.068 1.728 5.364 1.176 1.296 2.712 1.944 4.608 1.944.864 0 1.668-.168 2.412-.504a5.358 5.358 0 0 0 1.908-1.44 5.38 5.38 0 0 0 1.08-2.232h3.672c-.24 1.488-.792 2.772-1.656 3.852-.84 1.056-1.908 1.884-3.204 2.484-1.272.576-2.676.864-4.212.864Zm22.802 0c-2.04 0-3.804-.42-5.292-1.26-1.464-.84-2.592-2.028-3.384-3.564-.792-1.56-1.188-3.396-1.188-5.508 0-2.16.396-3.996 1.188-5.508.792-1.536 1.92-2.724 3.384-3.564 1.488-.84 3.264-1.26 5.328-1.26 3.072 0 5.484.924 7.236 2.772 1.752 1.824 2.628 4.344 2.628 7.56 0 2.112-.396 3.948-1.188 5.508a8.449 8.449 0 0 1-3.42 3.564c-1.464.84-3.228 1.26-5.292 1.26Zm.036-3.024c1.92 0 3.432-.648 4.536-1.944 1.128-1.32 1.692-3.108 1.692-5.364 0-2.28-.564-4.068-1.692-5.364-1.104-1.296-2.616-1.944-4.536-1.944-1.944 0-3.468.648-4.572 1.944-1.104 1.296-1.656 3.084-1.656 5.364 0 2.256.552 4.044 1.656 5.364 1.104 1.296 2.628 1.944 4.572 1.944ZM926.653 863v-12.492c0-1.392-.396-2.508-1.188-3.348-.792-.864-1.824-1.296-3.096-1.296-1.464 0-2.772.54-3.924 1.62-1.128 1.056-2.028 2.712-2.7 4.968l-.576-4.068c.744-1.872 1.812-3.276 3.204-4.212 1.416-.936 2.952-1.404 4.608-1.404 1.488 0 2.772.324 3.852.972a6.42 6.42 0 0 1 2.556 2.628c.6 1.128.9 2.46.9 3.996V863h-3.636Zm-14.112 0v-19.8h3.456l.18 4.464V863h-3.636ZM1024.79 863v-25.128h3.82V863h-3.82Zm-6.3-25.128h16.38v3.24h-16.38v-3.24Zm0 21.888h16.38V863h-16.38v-3.24Zm32.2 3.672c-2.04 0-3.82-.42-5.33-1.26a8.849 8.849 0 0 1-3.45-3.6c-.82-1.56-1.23-3.384-1.23-5.472 0-2.136.42-3.972 1.26-5.508.84-1.56 2.02-2.748 3.53-3.564 1.51-.84 3.28-1.26 5.29-1.26 1.61 0 3.05.3 4.32.9 1.3.576 2.34 1.404 3.13 2.484.82 1.08 1.29 2.364 1.41 3.852h-3.64c-.19-1.344-.77-2.376-1.73-3.096-.93-.744-2.1-1.116-3.49-1.116-1.29 0-2.42.3-3.38.9-.96.576-1.71 1.404-2.23 2.484-.53 1.08-.8 2.388-.8 3.924 0 2.28.58 4.068 1.73 5.364 1.18 1.296 2.71 1.944 4.61 1.944.86 0 1.67-.168 2.41-.504a5.33 5.33 0 0 0 1.91-1.44c.53-.648.89-1.392 1.08-2.232h3.67c-.24 1.488-.79 2.772-1.65 3.852-.84 1.056-1.91 1.884-3.21 2.484-1.27.576-2.67.864-4.21.864Zm22.8 0c-2.04 0-3.8-.42-5.29-1.26-1.46-.84-2.59-2.028-3.38-3.564-.8-1.56-1.19-3.396-1.19-5.508 0-2.16.39-3.996 1.19-5.508.79-1.536 1.92-2.724 3.38-3.564 1.49-.84 3.26-1.26 5.33-1.26 3.07 0 5.48.924 7.23 2.772 1.76 1.824 2.63 4.344 2.63 7.56 0 2.112-.39 3.948-1.19 5.508a8.425 8.425 0 0 1-3.42 3.564c-1.46.84-3.22 1.26-5.29 1.26Zm.04-3.024c1.92 0 3.43-.648 4.53-1.944 1.13-1.32 1.7-3.108 1.7-5.364 0-2.28-.57-4.068-1.7-5.364-1.1-1.296-2.61-1.944-4.53-1.944-1.95 0-3.47.648-4.57 1.944-1.11 1.296-1.66 3.084-1.66 5.364 0 2.256.55 4.044 1.66 5.364 1.1 1.296 2.62 1.944 4.57 1.944Zm28.74 2.592v-12.492c0-1.392-.4-2.508-1.19-3.348-.79-.864-1.82-1.296-3.09-1.296-1.47 0-2.78.54-3.93 1.62-1.13 1.056-2.03 2.712-2.7 4.968l-.57-4.068c.74-1.872 1.81-3.276 3.2-4.212 1.42-.936 2.95-1.404 4.61-1.404 1.49 0 2.77.324 3.85.972 1.1.624 1.96 1.5 2.56 2.628.6 1.128.9 2.46.9 3.996V863h-3.64Zm-14.11 0v-19.8h3.45l.18 4.464V863h-3.63Zm61.01-11.304v-2.376c0-1.032-.31-1.86-.94-2.484-.62-.648-1.52-.972-2.7-.972-1.48 0-2.82.564-3.99 1.692-1.18 1.104-2.11 2.796-2.81 5.076l-.5-3.672c.52-1.368 1.16-2.508 1.9-3.42.77-.912 1.65-1.596 2.63-2.052 1.01-.48 2.11-.72 3.31-.72 2 0 3.62.576 4.86 1.728 1.25 1.128 1.88 2.736 1.88 4.824v2.376h-3.64ZM1135.78 863v-19.8h3.42l.21 4.5V863h-3.63Zm31.62.432c-2.04 0-3.8-.408-5.29-1.224a8.425 8.425 0 0 1-3.42-3.564c-.79-1.56-1.19-3.42-1.19-5.58s.4-4.008 1.19-5.544a8.445 8.445 0 0 1 3.45-3.528c1.52-.816 3.32-1.224 5.4-1.224 3.2 0 5.57.888 7.13 2.664 1.56 1.752 2.25 4.164 2.05 7.236h-16.34l.04-2.736 12.6.036c-.1-1.272-.65-2.292-1.66-3.06-1.01-.768-2.28-1.152-3.82-1.152-2.06 0-3.64.648-4.75 1.944-1.1 1.296-1.65 3.132-1.65 5.508 0 1.416.24 2.676.72 3.78.5 1.08 1.22 1.92 2.16 2.52.93.6 2.06.9 3.38.9 1.56 0 2.86-.372 3.89-1.116 1.05-.744 1.7-1.752 1.94-3.024h3.64c-.31 2.232-1.31 3.984-2.99 5.256-1.68 1.272-3.84 1.908-6.48 1.908Zm24.35-20.664c1.78 0 3.32.444 4.64 1.332 1.35.864 2.4 2.076 3.17 3.636s1.15 3.348 1.15 5.364c0 1.992-.38 3.768-1.15 5.328-.77 1.56-1.82 2.784-3.17 3.672-1.32.888-2.86 1.332-4.64 1.332-1.34 0-2.58-.276-3.71-.828a7.647 7.647 0 0 1-2.73-2.268v9.072h-3.64V843.2h3.46l.1 2.7c.72-.96 1.65-1.716 2.78-2.268 1.12-.576 2.37-.864 3.74-.864Zm-.79 17.604c1.22 0 2.29-.312 3.2-.936.91-.624 1.62-1.476 2.13-2.556.5-1.104.75-2.364.75-3.78 0-1.44-.25-2.7-.75-3.78-.51-1.104-1.22-1.956-2.13-2.556-.91-.624-1.98-.936-3.2-.936-1.25 0-2.39.36-3.42 1.08-1.01.696-1.75 1.656-2.23 2.88v6.552c.48 1.248 1.22 2.232 2.23 2.952 1.03.72 2.17 1.08 3.42 1.08Zm21.25 2.628v-26.46h3.64V863h-3.64Zm-7.31 0v-2.952h18.29V863h-18.29Zm2.63-23.508v-2.952h6.48v2.952h-6.48ZM1242.61 863l-.14-4.5v-8.46c0-1.416-.47-2.52-1.41-3.312-.91-.816-2.17-1.224-3.78-1.224-1.56 0-2.83.36-3.81 1.08-.99.696-1.53 1.668-1.62 2.916h-3.57c.12-1.416.58-2.616 1.37-3.6.79-1.008 1.85-1.776 3.17-2.304 1.32-.552 2.84-.828 4.57-.828 1.78 0 3.31.3 4.61.9 1.29.576 2.29 1.416 2.99 2.52.72 1.104 1.08 2.448 1.08 4.032V863h-3.46Zm-7.16.432c-1.3 0-2.44-.228-3.42-.684-.99-.48-1.76-1.152-2.31-2.016-.55-.888-.83-1.92-.83-3.096 0-2.04.78-3.624 2.34-4.752 1.59-1.128 3.8-1.692 6.63-1.692h5.07v2.7h-5.22c-1.63 0-2.91.312-3.85.936-.91.624-1.37 1.5-1.37 2.628 0 .936.33 1.668.98 2.196.67.528 1.57.792 2.7.792 1.44 0 2.71-.384 3.81-1.152 1.13-.792 2.04-1.872 2.74-3.24l.39 2.664c-.62 1.512-1.58 2.676-2.88 3.492-1.29.816-2.89 1.224-4.78 1.224Zm25.97 0c-2.04 0-3.82-.42-5.33-1.26-1.49-.864-2.64-2.064-3.46-3.6-.81-1.56-1.22-3.384-1.22-5.472 0-2.136.42-3.972 1.26-5.508.84-1.56 2.01-2.748 3.53-3.564 1.51-.84 3.27-1.26 5.29-1.26 1.61 0 3.05.3 4.32.9 1.29.576 2.34 1.404 3.13 2.484.82 1.08 1.28 2.364 1.4 3.852h-3.63c-.19-1.344-.77-2.376-1.73-3.096-.94-.744-2.1-1.116-3.49-1.116-1.3 0-2.43.3-3.39.9-.96.576-1.7 1.404-2.23 2.484s-.79 2.388-.79 3.924c0 2.28.58 4.068 1.73 5.364 1.17 1.296 2.71 1.944 4.61 1.944.86 0 1.66-.168 2.41-.504a5.418 5.418 0 0 0 1.91-1.44c.52-.648.88-1.392 1.08-2.232h3.67c-.24 1.488-.79 2.772-1.66 3.852-.84 1.056-1.91 1.884-3.2 2.484-1.27.576-2.68.864-4.21.864Zm23.05 0c-2.04 0-3.8-.408-5.29-1.224a8.425 8.425 0 0 1-3.42-3.564c-.79-1.56-1.19-3.42-1.19-5.58s.4-4.008 1.19-5.544a8.445 8.445 0 0 1 3.45-3.528c1.52-.816 3.32-1.224 5.4-1.224 3.2 0 5.57.888 7.13 2.664 1.56 1.752 2.25 4.164 2.05 7.236h-16.34l.04-2.736 12.6.036c-.1-1.272-.65-2.292-1.66-3.06-1.01-.768-2.28-1.152-3.82-1.152-2.06 0-3.64.648-4.75 1.944-1.1 1.296-1.65 3.132-1.65 5.508 0 1.416.24 2.676.72 3.78.5 1.08 1.22 1.92 2.16 2.52.93.6 2.06.9 3.38.9 1.56 0 2.86-.372 3.89-1.116 1.05-.744 1.7-1.752 1.94-3.024h3.64c-.31 2.232-1.31 3.984-2.99 5.256-1.68 1.272-3.84 1.908-6.48 1.908Zm23.74 0c-1.75 0-3.3-.3-4.65-.9-1.32-.624-2.34-1.488-3.06-2.592-.72-1.128-1.09-2.472-1.11-4.032h3.42c0 1.464.49 2.616 1.47 3.456.99.84 2.28 1.26 3.89 1.26 1.37 0 2.46-.252 3.28-.756.84-.528 1.26-1.236 1.26-2.124 0-.696-.24-1.248-.72-1.656-.46-.432-1.07-.768-1.84-1.008a21.34 21.34 0 0 0-2.55-.612c-.92-.192-1.84-.408-2.78-.648a15 15 0 0 1-2.52-.972 5.4 5.4 0 0 1-1.87-1.62c-.48-.672-.72-1.548-.72-2.628 0-1.128.33-2.124.97-2.988.65-.888 1.56-1.584 2.74-2.088 1.2-.504 2.62-.756 4.25-.756 2.47 0 4.45.576 5.94 1.728 1.51 1.128 2.33 2.688 2.45 4.68h-3.42c-.08-1.152-.56-2.04-1.44-2.664-.87-.648-2.04-.972-3.53-.972-1.39 0-2.46.276-3.21.828-.72.552-1.08 1.248-1.08 2.088 0 .648.24 1.164.72 1.548.48.36 1.11.648 1.88.864.76.192 1.6.372 2.52.54.93.144 1.86.336 2.77.576.93.24 1.79.576 2.55 1.008.77.408 1.38.972 1.84 1.692.48.72.72 1.656.72 2.808 0 1.848-.74 3.3-2.23 4.356s-3.47 1.584-5.94 1.584Zm47.91-.432c-1.23 0-2.27-.24-3.14-.72a4.765 4.765 0 0 1-1.94-2.124c-.43-.912-.65-1.98-.65-3.204v-17.496l3.64-1.98v19.476c0 .576.08 1.104.25 1.584.17.48.49.852.97 1.116.51.264 1.24.396 2.2.396h5.94V863h-7.27Zm-10.41-16.848V843.2h14.51v2.952h-14.51ZM1383.24 863v-12.456c0-1.416-.4-2.544-1.19-3.384-.79-.864-1.82-1.296-3.1-1.296-1.46 0-2.77.54-3.92 1.62-1.13 1.056-2.03 2.712-2.7 4.968l-.58-4.032c.75-1.896 1.82-3.312 3.21-4.248 1.41-.936 2.95-1.404 4.61-1.404 1.48 0 2.77.324 3.85.972 1.1.624 1.95 1.512 2.55 2.664.6 1.128.9 2.46.9 3.996V863h-3.63Zm-14.11 0v-26.496h3.63V863h-3.63Zm32.41.432c-2.04 0-3.8-.408-5.29-1.224a8.425 8.425 0 0 1-3.42-3.564c-.79-1.56-1.19-3.42-1.19-5.58s.4-4.008 1.19-5.544c.82-1.536 1.97-2.712 3.46-3.528 1.51-.816 3.31-1.224 5.4-1.224 3.19 0 5.56.888 7.12 2.664 1.56 1.752 2.25 4.164 2.06 7.236h-16.35l.04-2.736 12.6.036c-.1-1.272-.65-2.292-1.66-3.06-1.01-.768-2.28-1.152-3.81-1.152-2.07 0-3.65.648-4.76 1.944-1.1 1.296-1.65 3.132-1.65 5.508 0 1.416.24 2.676.72 3.78.5 1.08 1.22 1.92 2.16 2.52.93.6 2.06.9 3.38.9 1.56 0 2.86-.372 3.89-1.116 1.06-.744 1.7-1.752 1.94-3.024h3.64c-.31 2.232-1.31 3.984-2.99 5.256-1.68 1.272-3.84 1.908-6.48 1.908Zm47.8-20.664c1.78 0 3.33.444 4.65 1.332 1.34.864 2.4 2.076 3.16 3.636.77 1.56 1.16 3.348 1.16 5.364 0 1.992-.39 3.768-1.16 5.328-.76 1.56-1.82 2.784-3.16 3.672-1.32.888-2.87 1.332-4.65 1.332-1.37 0-2.63-.288-3.78-.864-1.13-.6-2.04-1.38-2.73-2.34l-.11 2.772h-3.46v-26.46h3.64v9.288c.69-.96 1.61-1.704 2.73-2.232 1.13-.552 2.37-.828 3.71-.828Zm-.79 17.604c1.22 0 2.29-.312 3.2-.936.92-.624 1.62-1.476 2.13-2.556.5-1.104.75-2.364.75-3.78 0-1.44-.25-2.7-.75-3.78-.51-1.104-1.21-1.956-2.13-2.556-.91-.624-1.98-.936-3.2-.936-1.27 0-2.41.36-3.42 1.08-1.01.696-1.75 1.68-2.23 2.952v6.444c.48 1.248 1.22 2.244 2.23 2.988 1.01.72 2.15 1.08 3.42 1.08Zm28.2 2.628-.14-4.5v-8.46c0-1.416-.47-2.52-1.41-3.312-.91-.816-2.17-1.224-3.78-1.224-1.56 0-2.83.36-3.81 1.08-.99.696-1.53 1.668-1.62 2.916h-3.57c.12-1.416.58-2.616 1.37-3.6.79-1.008 1.85-1.776 3.17-2.304 1.32-.552 2.84-.828 4.57-.828 1.78 0 3.31.3 4.61.9 1.3.576 2.29 1.416 2.99 2.52.72 1.104 1.08 2.448 1.08 4.032V863h-3.46Zm-7.16.432c-1.3 0-2.44-.228-3.42-.684-.99-.48-1.75-1.152-2.31-2.016-.55-.888-.82-1.92-.82-3.096 0-2.04.78-3.624 2.34-4.752 1.58-1.128 3.79-1.692 6.62-1.692h5.08v2.7h-5.22c-1.64 0-2.92.312-3.86.936-.91.624-1.36 1.5-1.36 2.628 0 .936.32 1.668.97 2.196.67.528 1.57.792 2.7.792 1.44 0 2.71-.384 3.81-1.152 1.13-.792 2.04-1.872 2.74-3.24l.4 2.664c-.63 1.512-1.59 2.676-2.88 3.492-1.3.816-2.9 1.224-4.79 1.224Zm30.79-11.736v-2.376c0-1.032-.31-1.86-.93-2.484-.63-.648-1.53-.972-2.7-.972-1.49 0-2.82.564-4 1.692-1.18 1.104-2.11 2.796-2.81 5.076l-.5-3.672c.53-1.368 1.16-2.508 1.91-3.42.76-.912 1.64-1.596 2.62-2.052 1.01-.48 2.12-.72 3.32-.72 1.99 0 3.61.576 4.86 1.728 1.24 1.128 1.87 2.736 1.87 4.824v2.376h-3.64ZM1486.99 863v-19.8h3.42l.22 4.5V863h-3.64Z"/><path stroke="#FF6D7F" stroke-width="2" d="M518 510v353M1523 584v279"/><defs><clipPath id="a"><path fill="#fff" d="M245 377h1431v326H245z"/></clipPath></defs></svg>