<svg width="1920" height="1080" viewBox="0 0 1920 1080" fill="none" xmlns="http://www.w3.org/2000/svg">
<g clip-path="url(#clip0_3303_15570)">
<path d="M245 701.929V638.244H1095.37L1120.69 701.929H245Z" fill="#1A73E8"/>
<path d="M245 611.868V377H308.691V551.47H403.591V611.868H245Z" fill="#1A73E8"/>
<path d="M844.343 377V611.868H791.378L706.567 488.602H704.991V611.868H641.3V377H695.53L778.765 499.955H780.659V377H844.35H844.343Z" fill="#1A73E8"/>
<path d="M922.851 611.868H859.16L936.786 377H1000.47L922.851 611.868Z" fill="#1A73E8"/>
<path d="M1037.61 611.868H1101.3L1023.68 377H959.988L1037.61 611.868Z" fill="#1A73E8"/>
<path d="M1067.15 701.767H1130.84L1053.22 466.893H989.524L1067.15 701.767Z" fill="#1A73E8"/>
<path d="M999.945 440.685V377H960.526V440.685H999.945Z" fill="#1A73E8"/>
<path d="M555.044 377.006V513.344C555.044 534.196 538.08 551.158 517.226 551.158C496.372 551.158 479.408 534.196 479.408 513.344V377.006H415.86V513.344C415.86 569.32 461.245 614.701 517.226 614.701C573.207 614.701 618.592 569.32 618.592 513.344V377.006H555.044Z" fill="#1A73E8"/>
<path d="M517.233 542.042C534.895 542.042 549.214 527.724 549.214 510.063C549.214 492.401 534.895 478.084 517.233 478.084C499.57 478.084 485.251 492.401 485.251 510.063C485.251 527.724 499.57 542.042 517.233 542.042Z" fill="#1A73E8"/>
<path d="M551.354 525.697C559.988 525.697 566.988 518.698 566.988 510.064C566.988 501.431 559.988 494.432 551.354 494.432C542.719 494.432 535.72 501.431 535.72 510.064C535.72 518.698 542.719 525.697 551.354 525.697Z" fill="white"/>
<path d="M1378.8 703L1399.34 639.314H1640.54L1665.85 703H1378.8Z" fill="#1A73E8"/>
<path d="M1174 703L1194.54 639.314H1435.74L1461.05 703H1174Z" fill="#1A73E8"/>
<path d="M1468.01 612.945H1404.33L1481.94 378.07H1545.64L1468.01 612.945Z" fill="#1A73E8"/>
<path d="M1582.78 612.945H1646.46L1568.84 378.07H1505.15L1582.78 612.945Z" fill="#1A73E8"/>
<path d="M1612.32 702.839H1676L1598.38 467.971H1534.69L1612.32 702.839Z" fill="#1A73E8"/>
<path d="M1525.61 605.299C1543.27 605.299 1557.59 590.982 1557.59 573.321C1557.59 555.659 1543.27 541.342 1525.61 541.342C1507.95 541.342 1493.63 555.659 1493.63 573.321C1493.63 590.982 1507.95 605.299 1525.61 605.299Z" fill="#1A73E8"/>
<path d="M1561.27 588.953C1569.9 588.953 1576.9 581.954 1576.9 573.32C1576.9 564.687 1569.9 557.688 1561.27 557.688C1552.64 557.688 1545.64 564.687 1545.64 573.32C1545.64 581.954 1552.64 588.953 1561.27 588.953Z" fill="white"/>
</g>
<path d="M537.988 863V837.872H556.024V841.112H541.804V848.348H551.596V851.588H541.804V859.76H556.168V863H537.988ZM575.298 863L575.154 858.5V850.04C575.154 848.624 574.686 847.52 573.75 846.728C572.838 845.912 571.578 845.504 569.97 845.504C568.41 845.504 567.138 845.864 566.154 846.584C565.17 847.28 564.63 848.252 564.534 849.5H560.97C561.09 848.084 561.546 846.884 562.338 845.9C563.13 844.892 564.186 844.124 565.506 843.596C566.826 843.044 568.35 842.768 570.078 842.768C571.854 842.768 573.39 843.068 574.686 843.668C575.982 844.244 576.978 845.084 577.674 846.188C578.394 847.292 578.754 848.636 578.754 850.22V863H575.298ZM568.134 863.432C566.838 863.432 565.698 863.204 564.714 862.748C563.73 862.268 562.962 861.596 562.41 860.732C561.858 859.844 561.582 858.812 561.582 857.636C561.582 855.596 562.362 854.012 563.922 852.884C565.506 851.756 567.714 851.192 570.546 851.192H575.622V853.892H570.402C568.77 853.892 567.486 854.204 566.55 854.828C565.638 855.452 565.182 856.328 565.182 857.456C565.182 858.392 565.506 859.124 566.154 859.652C566.826 860.18 567.726 860.444 568.854 860.444C570.294 860.444 571.566 860.06 572.67 859.292C573.798 858.5 574.71 857.42 575.406 856.052L575.802 858.716C575.178 860.228 574.218 861.392 572.922 862.208C571.626 863.024 570.03 863.432 568.134 863.432ZM598.928 851.696V849.32C598.928 848.288 598.616 847.46 597.992 846.836C597.368 846.188 596.468 845.864 595.292 845.864C593.804 845.864 592.472 846.428 591.296 847.556C590.12 848.66 589.184 850.352 588.488 852.632L587.984 848.96C588.512 847.592 589.148 846.452 589.892 845.54C590.66 844.628 591.536 843.944 592.52 843.488C593.528 843.008 594.632 842.768 595.832 842.768C597.824 842.768 599.444 843.344 600.692 844.496C601.94 845.624 602.564 847.232 602.564 849.32V851.696H598.928ZM585.536 863V843.2H588.956L589.172 847.7V863H585.536ZM618.562 863C617.338 863 616.294 862.76 615.43 862.28C614.566 861.776 613.918 861.068 613.486 860.156C613.054 859.244 612.838 858.176 612.838 856.952V839.456L616.474 837.476V856.952C616.474 857.528 616.558 858.056 616.726 858.536C616.894 859.016 617.218 859.388 617.698 859.652C618.202 859.916 618.934 860.048 619.894 860.048H625.834V863H618.562ZM608.158 846.152V843.2H622.666V846.152H608.158ZM645.684 863V850.544C645.684 849.128 645.288 848 644.496 847.16C643.704 846.296 642.672 845.864 641.4 845.864C639.936 845.864 638.628 846.404 637.476 847.484C636.348 848.54 635.448 850.196 634.776 852.452L634.2 848.42C634.944 846.524 636.012 845.108 637.404 844.172C638.82 843.236 640.356 842.768 642.012 842.768C643.5 842.768 644.784 843.092 645.864 843.74C646.968 844.364 647.82 845.252 648.42 846.404C649.02 847.532 649.32 848.864 649.32 850.4V863H645.684ZM631.572 863V836.504H635.208V863H631.572ZM684.7 863.432C683.092 863.432 681.688 863.132 680.488 862.532C679.312 861.932 678.4 861.104 677.752 860.048C677.104 858.968 676.78 857.744 676.78 856.376C676.78 855.32 676.96 854.36 677.32 853.496C677.704 852.632 678.268 851.84 679.012 851.12C679.756 850.4 680.704 849.752 681.856 849.176C681.04 848.168 680.416 847.244 679.984 846.404C679.576 845.54 679.372 844.58 679.372 843.524C679.372 842.276 679.66 841.196 680.236 840.284C680.812 839.372 681.592 838.676 682.576 838.196C683.584 837.692 684.712 837.44 685.96 837.44C687.232 837.44 688.336 837.68 689.272 838.16C690.232 838.64 690.976 839.312 691.504 840.176C692.032 841.016 692.296 842.012 692.296 843.164C692.296 844.004 692.116 844.832 691.756 845.648C691.396 846.44 690.82 847.184 690.028 847.88C689.236 848.552 688.216 849.188 686.968 849.788L691.792 855.476C692.2 854.78 692.56 854.012 692.872 853.172C693.208 852.332 693.496 851.516 693.736 850.724H697.372C697.012 852.044 696.556 853.352 696.004 854.648C695.476 855.944 694.852 857.12 694.132 858.176L698.2 863H693.556L691.612 860.696C690.724 861.536 689.692 862.208 688.516 862.712C687.34 863.192 686.068 863.432 684.7 863.432ZM684.844 860.228C685.78 860.228 686.632 860.048 687.4 859.688C688.192 859.304 688.888 858.812 689.488 858.212L683.764 851.48C683.14 851.84 682.564 852.236 682.036 852.668C681.508 853.1 681.088 853.604 680.776 854.18C680.464 854.732 680.308 855.38 680.308 856.124C680.308 857.3 680.716 858.284 681.532 859.076C682.348 859.844 683.452 860.228 684.844 860.228ZM685.06 847.556C686.428 846.884 687.4 846.224 687.976 845.576C688.552 844.928 688.84 844.196 688.84 843.38C688.84 842.492 688.576 841.796 688.048 841.292C687.544 840.788 686.836 840.536 685.924 840.536C685.06 840.536 684.34 840.812 683.764 841.364C683.188 841.916 682.9 842.624 682.9 843.488C682.9 844.232 683.104 844.928 683.512 845.576C683.944 846.2 684.46 846.86 685.06 847.556ZM723.249 863L725.121 837.872H730.125L733.329 852.74L734.085 857.636L734.877 852.74L738.009 837.872H742.941L744.849 863H741.069L740.241 847.268L740.097 841.724L739.017 847.268L735.597 863H732.357L728.973 847.268L727.965 841.652L727.749 847.268L726.957 863H723.249ZM757.391 863.432C755.351 863.432 753.587 863.012 752.099 862.172C750.635 861.332 749.507 860.144 748.715 858.608C747.923 857.048 747.527 855.212 747.527 853.1C747.527 850.94 747.923 849.104 748.715 847.592C749.507 846.056 750.635 844.868 752.099 844.028C753.587 843.188 755.363 842.768 757.427 842.768C760.499 842.768 762.911 843.692 764.663 845.54C766.415 847.364 767.291 849.884 767.291 853.1C767.291 855.212 766.895 857.048 766.103 858.608C765.311 860.144 764.171 861.332 762.683 862.172C761.219 863.012 759.455 863.432 757.391 863.432ZM757.427 860.408C759.347 860.408 760.859 859.76 761.963 858.464C763.091 857.144 763.655 855.356 763.655 853.1C763.655 850.82 763.091 849.032 761.963 847.736C760.859 846.44 759.347 845.792 757.427 845.792C755.483 845.792 753.959 846.44 752.855 847.736C751.751 849.032 751.199 850.82 751.199 853.1C751.199 855.356 751.751 857.144 752.855 858.464C753.959 859.76 755.483 860.408 757.427 860.408ZM780.805 863.432C778.765 863.432 777.001 863.012 775.513 862.172C774.049 861.332 772.921 860.144 772.129 858.608C771.337 857.048 770.941 855.212 770.941 853.1C770.941 850.94 771.337 849.104 772.129 847.592C772.921 846.056 774.049 844.868 775.513 844.028C777.001 843.188 778.777 842.768 780.841 842.768C783.913 842.768 786.325 843.692 788.077 845.54C789.829 847.364 790.705 849.884 790.705 853.1C790.705 855.212 790.309 857.048 789.517 858.608C788.725 860.144 787.585 861.332 786.097 862.172C784.633 863.012 782.869 863.432 780.805 863.432ZM780.841 860.408C782.761 860.408 784.273 859.76 785.377 858.464C786.505 857.144 787.069 855.356 787.069 853.1C787.069 850.82 786.505 849.032 785.377 847.736C784.273 846.44 782.761 845.792 780.841 845.792C778.897 845.792 777.373 846.44 776.269 847.736C775.165 849.032 774.613 850.82 774.613 853.1C774.613 855.356 775.165 857.144 776.269 858.464C777.373 859.76 778.897 860.408 780.841 860.408ZM809.583 863V850.508C809.583 849.116 809.187 848 808.395 847.16C807.603 846.296 806.571 845.864 805.299 845.864C803.835 845.864 802.527 846.404 801.375 847.484C800.247 848.54 799.347 850.196 798.675 852.452L798.099 848.384C798.843 846.512 799.911 845.108 801.303 844.172C802.719 843.236 804.255 842.768 805.911 842.768C807.399 842.768 808.683 843.092 809.763 843.74C810.867 844.364 811.719 845.24 812.319 846.368C812.919 847.496 813.219 848.828 813.219 850.364V863H809.583ZM795.471 863V843.2H798.927L799.107 847.664V863H795.471ZM849.463 863V843.2H853.099V863H849.463ZM842.155 863V860.048H859.903V863H842.155ZM844.783 846.152V843.2H851.263V846.152H844.783ZM849.211 839.816V835.892H853.279V839.816H849.211ZM875.073 863.432C873.033 863.432 871.257 863.012 869.745 862.172C868.257 861.308 867.105 860.108 866.289 858.572C865.473 857.012 865.065 855.188 865.065 853.1C865.065 850.964 865.485 849.128 866.325 847.592C867.165 846.032 868.341 844.844 869.853 844.028C871.365 843.188 873.129 842.768 875.145 842.768C876.753 842.768 878.193 843.068 879.465 843.668C880.761 844.244 881.805 845.072 882.597 846.152C883.413 847.232 883.881 848.516 884.001 850.004H880.365C880.173 848.66 879.597 847.628 878.637 846.908C877.701 846.164 876.537 845.792 875.145 845.792C873.849 845.792 872.721 846.092 871.761 846.692C870.801 847.268 870.057 848.096 869.529 849.176C869.001 850.256 868.737 851.564 868.737 853.1C868.737 855.38 869.313 857.168 870.465 858.464C871.641 859.76 873.177 860.408 875.073 860.408C875.937 860.408 876.741 860.24 877.485 859.904C878.229 859.568 878.865 859.088 879.393 858.464C879.921 857.816 880.281 857.072 880.473 856.232H884.145C883.905 857.72 883.353 859.004 882.489 860.084C881.649 861.14 880.581 861.968 879.285 862.568C878.013 863.144 876.609 863.432 875.073 863.432ZM897.875 863.432C895.835 863.432 894.071 863.012 892.583 862.172C891.119 861.332 889.991 860.144 889.199 858.608C888.407 857.048 888.011 855.212 888.011 853.1C888.011 850.94 888.407 849.104 889.199 847.592C889.991 846.056 891.119 844.868 892.583 844.028C894.071 843.188 895.847 842.768 897.911 842.768C900.983 842.768 903.395 843.692 905.147 845.54C906.899 847.364 907.775 849.884 907.775 853.1C907.775 855.212 907.379 857.048 906.587 858.608C905.795 860.144 904.655 861.332 903.167 862.172C901.703 863.012 899.939 863.432 897.875 863.432ZM897.911 860.408C899.831 860.408 901.343 859.76 902.447 858.464C903.575 857.144 904.139 855.356 904.139 853.1C904.139 850.82 903.575 849.032 902.447 847.736C901.343 846.44 899.831 845.792 897.911 845.792C895.967 845.792 894.443 846.44 893.339 847.736C892.235 849.032 891.683 850.82 891.683 853.1C891.683 855.356 892.235 857.144 893.339 858.464C894.443 859.76 895.967 860.408 897.911 860.408ZM926.653 863V850.508C926.653 849.116 926.257 848 925.465 847.16C924.673 846.296 923.641 845.864 922.369 845.864C920.905 845.864 919.597 846.404 918.445 847.484C917.317 848.54 916.417 850.196 915.745 852.452L915.169 848.384C915.913 846.512 916.981 845.108 918.373 844.172C919.789 843.236 921.325 842.768 922.981 842.768C924.469 842.768 925.753 843.092 926.833 843.74C927.937 844.364 928.789 845.24 929.389 846.368C929.989 847.496 930.289 848.828 930.289 850.364V863H926.653ZM912.541 863V843.2H915.997L916.177 847.664V863H912.541Z" fill="#FF6D7F"/>
<path d="M1024.79 863V837.872H1028.61V863H1024.79ZM1018.49 837.872H1034.87V841.112H1018.49V837.872ZM1018.49 859.76H1034.87V863H1018.49V859.76ZM1050.69 863.432C1048.65 863.432 1046.87 863.012 1045.36 862.172C1043.87 861.308 1042.72 860.108 1041.91 858.572C1041.09 857.012 1040.68 855.188 1040.68 853.1C1040.68 850.964 1041.1 849.128 1041.94 847.592C1042.78 846.032 1043.96 844.844 1045.47 844.028C1046.98 843.188 1048.75 842.768 1050.76 842.768C1052.37 842.768 1053.81 843.068 1055.08 843.668C1056.38 844.244 1057.42 845.072 1058.21 846.152C1059.03 847.232 1059.5 848.516 1059.62 850.004H1055.98C1055.79 848.66 1055.21 847.628 1054.25 846.908C1053.32 846.164 1052.15 845.792 1050.76 845.792C1049.47 845.792 1048.34 846.092 1047.38 846.692C1046.42 847.268 1045.67 848.096 1045.15 849.176C1044.62 850.256 1044.35 851.564 1044.35 853.1C1044.35 855.38 1044.93 857.168 1046.08 858.464C1047.26 859.76 1048.79 860.408 1050.69 860.408C1051.55 860.408 1052.36 860.24 1053.1 859.904C1053.85 859.568 1054.48 859.088 1055.01 858.464C1055.54 857.816 1055.9 857.072 1056.09 856.232H1059.76C1059.52 857.72 1058.97 859.004 1058.11 860.084C1057.27 861.14 1056.2 861.968 1054.9 862.568C1053.63 863.144 1052.23 863.432 1050.69 863.432ZM1073.49 863.432C1071.45 863.432 1069.69 863.012 1068.2 862.172C1066.74 861.332 1065.61 860.144 1064.82 858.608C1064.02 857.048 1063.63 855.212 1063.63 853.1C1063.63 850.94 1064.02 849.104 1064.82 847.592C1065.61 846.056 1066.74 844.868 1068.2 844.028C1069.69 843.188 1071.46 842.768 1073.53 842.768C1076.6 842.768 1079.01 843.692 1080.76 845.54C1082.52 847.364 1083.39 849.884 1083.39 853.1C1083.39 855.212 1083 857.048 1082.2 858.608C1081.41 860.144 1080.27 861.332 1078.78 862.172C1077.32 863.012 1075.56 863.432 1073.49 863.432ZM1073.53 860.408C1075.45 860.408 1076.96 859.76 1078.06 858.464C1079.19 857.144 1079.76 855.356 1079.76 853.1C1079.76 850.82 1079.19 849.032 1078.06 847.736C1076.96 846.44 1075.45 845.792 1073.53 845.792C1071.58 845.792 1070.06 846.44 1068.96 847.736C1067.85 849.032 1067.3 850.82 1067.3 853.1C1067.3 855.356 1067.85 857.144 1068.96 858.464C1070.06 859.76 1071.58 860.408 1073.53 860.408ZM1102.27 863V850.508C1102.27 849.116 1101.87 848 1101.08 847.16C1100.29 846.296 1099.26 845.864 1097.99 845.864C1096.52 845.864 1095.21 846.404 1094.06 847.484C1092.93 848.54 1092.03 850.196 1091.36 852.452L1090.79 848.384C1091.53 846.512 1092.6 845.108 1093.99 844.172C1095.41 843.236 1096.94 842.768 1098.6 842.768C1100.09 842.768 1101.37 843.092 1102.45 843.74C1103.55 844.364 1104.41 845.24 1105.01 846.368C1105.61 847.496 1105.91 848.828 1105.91 850.364V863H1102.27ZM1088.16 863V843.2H1091.61L1091.79 847.664V863H1088.16ZM1149.17 851.696V849.32C1149.17 848.288 1148.86 847.46 1148.23 846.836C1147.61 846.188 1146.71 845.864 1145.53 845.864C1144.05 845.864 1142.71 846.428 1141.54 847.556C1140.36 848.66 1139.43 850.352 1138.73 852.632L1138.23 848.96C1138.75 847.592 1139.39 846.452 1140.13 845.54C1140.9 844.628 1141.78 843.944 1142.76 843.488C1143.77 843.008 1144.87 842.768 1146.07 842.768C1148.07 842.768 1149.69 843.344 1150.93 844.496C1152.18 845.624 1152.81 847.232 1152.81 849.32V851.696H1149.17ZM1135.78 863V843.2H1139.2L1139.41 847.7V863H1135.78ZM1167.4 863.432C1165.36 863.432 1163.6 863.024 1162.11 862.208C1160.62 861.368 1159.48 860.18 1158.69 858.644C1157.9 857.084 1157.5 855.224 1157.5 853.064C1157.5 850.904 1157.9 849.056 1158.69 847.52C1159.5 845.984 1160.66 844.808 1162.14 843.992C1163.66 843.176 1165.46 842.768 1167.54 842.768C1170.74 842.768 1173.11 843.656 1174.67 845.432C1176.23 847.184 1176.92 849.596 1176.72 852.668H1160.38L1160.42 849.932L1173.02 849.968C1172.92 848.696 1172.37 847.676 1171.36 846.908C1170.35 846.14 1169.08 845.756 1167.54 845.756C1165.48 845.756 1163.9 846.404 1162.79 847.7C1161.69 848.996 1161.14 850.832 1161.14 853.208C1161.14 854.624 1161.38 855.884 1161.86 856.988C1162.36 858.068 1163.08 858.908 1164.02 859.508C1164.95 860.108 1166.08 860.408 1167.4 860.408C1168.96 860.408 1170.26 860.036 1171.29 859.292C1172.34 858.548 1172.99 857.54 1173.23 856.268H1176.87C1176.56 858.5 1175.56 860.252 1173.88 861.524C1172.2 862.796 1170.04 863.432 1167.4 863.432ZM1191.75 842.768C1193.53 842.768 1195.07 843.212 1196.39 844.1C1197.74 844.964 1198.79 846.176 1199.56 847.736C1200.33 849.296 1200.71 851.084 1200.71 853.1C1200.71 855.092 1200.33 856.868 1199.56 858.428C1198.79 859.988 1197.74 861.212 1196.39 862.1C1195.07 862.988 1193.53 863.432 1191.75 863.432C1190.41 863.432 1189.17 863.156 1188.04 862.604C1186.94 862.052 1186.03 861.296 1185.31 860.336V869.408H1181.67V843.2H1185.13L1185.23 845.9C1185.95 844.94 1186.88 844.184 1188.01 843.632C1189.13 843.056 1190.38 842.768 1191.75 842.768ZM1190.96 860.372C1192.18 860.372 1193.25 860.06 1194.16 859.436C1195.07 858.812 1195.78 857.96 1196.29 856.88C1196.79 855.776 1197.04 854.516 1197.04 853.1C1197.04 851.66 1196.79 850.4 1196.29 849.32C1195.78 848.216 1195.07 847.364 1194.16 846.764C1193.25 846.14 1192.18 845.828 1190.96 845.828C1189.71 845.828 1188.57 846.188 1187.54 846.908C1186.53 847.604 1185.79 848.564 1185.31 849.788V856.34C1185.79 857.588 1186.53 858.572 1187.54 859.292C1188.57 860.012 1189.71 860.372 1190.96 860.372ZM1212.21 863V836.54H1215.85V863H1212.21ZM1204.9 863V860.048H1223.19V863H1204.9ZM1207.53 839.492V836.54H1214.01V839.492H1207.53ZM1242.61 863L1242.47 858.5V850.04C1242.47 848.624 1242 847.52 1241.06 846.728C1240.15 845.912 1238.89 845.504 1237.28 845.504C1235.72 845.504 1234.45 845.864 1233.47 846.584C1232.48 847.28 1231.94 848.252 1231.85 849.5H1228.28C1228.4 848.084 1228.86 846.884 1229.65 845.9C1230.44 844.892 1231.5 844.124 1232.82 843.596C1234.14 843.044 1235.66 842.768 1237.39 842.768C1239.17 842.768 1240.7 843.068 1242 843.668C1243.29 844.244 1244.29 845.084 1244.99 846.188C1245.71 847.292 1246.07 848.636 1246.07 850.22V863H1242.61ZM1235.45 863.432C1234.15 863.432 1233.01 863.204 1232.03 862.748C1231.04 862.268 1230.27 861.596 1229.72 860.732C1229.17 859.844 1228.89 858.812 1228.89 857.636C1228.89 855.596 1229.67 854.012 1231.23 852.884C1232.82 851.756 1235.03 851.192 1237.86 851.192H1242.93V853.892H1237.71C1236.08 853.892 1234.8 854.204 1233.86 854.828C1232.95 855.452 1232.49 856.328 1232.49 857.456C1232.49 858.392 1232.82 859.124 1233.47 859.652C1234.14 860.18 1235.04 860.444 1236.17 860.444C1237.61 860.444 1238.88 860.06 1239.98 859.292C1241.11 858.5 1242.02 857.42 1242.72 856.052L1243.11 858.716C1242.49 860.228 1241.53 861.392 1240.23 862.208C1238.94 863.024 1237.34 863.432 1235.45 863.432ZM1261.42 863.432C1259.38 863.432 1257.6 863.012 1256.09 862.172C1254.6 861.308 1253.45 860.108 1252.63 858.572C1251.82 857.012 1251.41 855.188 1251.41 853.1C1251.41 850.964 1251.83 849.128 1252.67 847.592C1253.51 846.032 1254.68 844.844 1256.2 844.028C1257.71 843.188 1259.47 842.768 1261.49 842.768C1263.1 842.768 1264.54 843.068 1265.81 843.668C1267.1 844.244 1268.15 845.072 1268.94 846.152C1269.76 847.232 1270.22 848.516 1270.34 850.004H1266.71C1266.52 848.66 1265.94 847.628 1264.98 846.908C1264.04 846.164 1262.88 845.792 1261.49 845.792C1260.19 845.792 1259.06 846.092 1258.1 846.692C1257.14 847.268 1256.4 848.096 1255.87 849.176C1255.34 850.256 1255.08 851.564 1255.08 853.1C1255.08 855.38 1255.66 857.168 1256.81 858.464C1257.98 859.76 1259.52 860.408 1261.42 860.408C1262.28 860.408 1263.08 860.24 1263.83 859.904C1264.57 859.568 1265.21 859.088 1265.74 858.464C1266.26 857.816 1266.62 857.072 1266.82 856.232H1270.49C1270.25 857.72 1269.7 859.004 1268.83 860.084C1267.99 861.14 1266.92 861.968 1265.63 862.568C1264.36 863.144 1262.95 863.432 1261.42 863.432ZM1284.47 863.432C1282.43 863.432 1280.67 863.024 1279.18 862.208C1277.69 861.368 1276.55 860.18 1275.76 858.644C1274.97 857.084 1274.57 855.224 1274.57 853.064C1274.57 850.904 1274.97 849.056 1275.76 847.52C1276.57 845.984 1277.73 844.808 1279.21 843.992C1280.73 843.176 1282.53 842.768 1284.61 842.768C1287.81 842.768 1290.18 843.656 1291.74 845.432C1293.3 847.184 1293.99 849.596 1293.79 852.668H1277.45L1277.49 849.932L1290.09 849.968C1289.99 848.696 1289.44 847.676 1288.43 846.908C1287.42 846.14 1286.15 845.756 1284.61 845.756C1282.55 845.756 1280.97 846.404 1279.86 847.7C1278.76 848.996 1278.21 850.832 1278.21 853.208C1278.21 854.624 1278.45 855.884 1278.93 856.988C1279.43 858.068 1280.15 858.908 1281.09 859.508C1282.02 860.108 1283.15 860.408 1284.47 860.408C1286.03 860.408 1287.33 860.036 1288.36 859.292C1289.41 858.548 1290.06 857.54 1290.3 856.268H1293.94C1293.63 858.5 1292.63 860.252 1290.95 861.524C1289.27 862.796 1287.11 863.432 1284.47 863.432ZM1308.21 863.432C1306.46 863.432 1304.91 863.132 1303.56 862.532C1302.24 861.908 1301.22 861.044 1300.5 859.94C1299.78 858.812 1299.41 857.468 1299.39 855.908H1302.81C1302.81 857.372 1303.3 858.524 1304.28 859.364C1305.27 860.204 1306.56 860.624 1308.17 860.624C1309.54 860.624 1310.63 860.372 1311.45 859.868C1312.29 859.34 1312.71 858.632 1312.71 857.744C1312.71 857.048 1312.47 856.496 1311.99 856.088C1311.53 855.656 1310.92 855.32 1310.15 855.08C1309.38 854.84 1308.53 854.636 1307.6 854.468C1306.68 854.276 1305.76 854.06 1304.82 853.82C1303.91 853.556 1303.07 853.232 1302.3 852.848C1301.54 852.44 1300.91 851.9 1300.43 851.228C1299.95 850.556 1299.71 849.68 1299.71 848.6C1299.71 847.472 1300.04 846.476 1300.68 845.612C1301.33 844.724 1302.24 844.028 1303.42 843.524C1304.62 843.02 1306.04 842.768 1307.67 842.768C1310.14 842.768 1312.12 843.344 1313.61 844.496C1315.12 845.624 1315.94 847.184 1316.06 849.176H1312.64C1312.56 848.024 1312.08 847.136 1311.2 846.512C1310.33 845.864 1309.16 845.54 1307.67 845.54C1306.28 845.54 1305.21 845.816 1304.46 846.368C1303.74 846.92 1303.38 847.616 1303.38 848.456C1303.38 849.104 1303.62 849.62 1304.1 850.004C1304.58 850.364 1305.21 850.652 1305.98 850.868C1306.74 851.06 1307.58 851.24 1308.5 851.408C1309.43 851.552 1310.36 851.744 1311.27 851.984C1312.2 852.224 1313.06 852.56 1313.82 852.992C1314.59 853.4 1315.2 853.964 1315.66 854.684C1316.14 855.404 1316.38 856.34 1316.38 857.492C1316.38 859.34 1315.64 860.792 1314.15 861.848C1312.66 862.904 1310.68 863.432 1308.21 863.432ZM1356.12 863C1354.89 863 1353.85 862.76 1352.98 862.28C1352.12 861.776 1351.47 861.068 1351.04 860.156C1350.61 859.244 1350.39 858.176 1350.39 856.952V839.456L1354.03 837.476V856.952C1354.03 857.528 1354.11 858.056 1354.28 858.536C1354.45 859.016 1354.77 859.388 1355.25 859.652C1355.76 859.916 1356.49 860.048 1357.45 860.048H1363.39V863H1356.12ZM1345.71 846.152V843.2H1360.22V846.152H1345.71ZM1383.24 863V850.544C1383.24 849.128 1382.84 848 1382.05 847.16C1381.26 846.296 1380.23 845.864 1378.95 845.864C1377.49 845.864 1376.18 846.404 1375.03 847.484C1373.9 848.54 1373 850.196 1372.33 852.452L1371.75 848.42C1372.5 846.524 1373.57 845.108 1374.96 844.172C1376.37 843.236 1377.91 842.768 1379.57 842.768C1381.05 842.768 1382.34 843.092 1383.42 843.74C1384.52 844.364 1385.37 845.252 1385.97 846.404C1386.57 847.532 1386.87 848.864 1386.87 850.4V863H1383.24ZM1369.13 863V836.504H1372.76V863H1369.13ZM1401.54 863.432C1399.5 863.432 1397.74 863.024 1396.25 862.208C1394.76 861.368 1393.62 860.18 1392.83 858.644C1392.04 857.084 1391.64 855.224 1391.64 853.064C1391.64 850.904 1392.04 849.056 1392.83 847.52C1393.65 845.984 1394.8 844.808 1396.29 843.992C1397.8 843.176 1399.6 842.768 1401.69 842.768C1404.88 842.768 1407.25 843.656 1408.81 845.432C1410.37 847.184 1411.06 849.596 1410.87 852.668H1394.52L1394.56 849.932L1407.16 849.968C1407.06 848.696 1406.51 847.676 1405.5 846.908C1404.49 846.14 1403.22 845.756 1401.69 845.756C1399.62 845.756 1398.04 846.404 1396.93 847.7C1395.83 848.996 1395.28 850.832 1395.28 853.208C1395.28 854.624 1395.52 855.884 1396 856.988C1396.5 858.068 1397.22 858.908 1398.16 859.508C1399.09 860.108 1400.22 860.408 1401.54 860.408C1403.1 860.408 1404.4 860.036 1405.43 859.292C1406.49 858.548 1407.13 857.54 1407.37 856.268H1411.01C1410.7 858.5 1409.7 860.252 1408.02 861.524C1406.34 862.796 1404.18 863.432 1401.54 863.432ZM1449.34 842.768C1451.12 842.768 1452.67 843.212 1453.99 844.1C1455.33 844.964 1456.39 846.176 1457.15 847.736C1457.92 849.296 1458.31 851.084 1458.31 853.1C1458.31 855.092 1457.92 856.868 1457.15 858.428C1456.39 859.988 1455.33 861.212 1453.99 862.1C1452.67 862.988 1451.12 863.432 1449.34 863.432C1447.97 863.432 1446.71 863.144 1445.56 862.568C1444.43 861.968 1443.52 861.188 1442.83 860.228L1442.72 863H1439.26V836.54H1442.9V845.828C1443.59 844.868 1444.51 844.124 1445.63 843.596C1446.76 843.044 1448 842.768 1449.34 842.768ZM1448.55 860.372C1449.77 860.372 1450.84 860.06 1451.75 859.436C1452.67 858.812 1453.37 857.96 1453.88 856.88C1454.38 855.776 1454.63 854.516 1454.63 853.1C1454.63 851.66 1454.38 850.4 1453.88 849.32C1453.37 848.216 1452.67 847.364 1451.75 846.764C1450.84 846.14 1449.77 845.828 1448.55 845.828C1447.28 845.828 1446.14 846.188 1445.13 846.908C1444.12 847.604 1443.38 848.588 1442.9 849.86V856.304C1443.38 857.552 1444.12 858.548 1445.13 859.292C1446.14 860.012 1447.28 860.372 1448.55 860.372ZM1476.75 863L1476.61 858.5V850.04C1476.61 848.624 1476.14 847.52 1475.2 846.728C1474.29 845.912 1473.03 845.504 1471.42 845.504C1469.86 845.504 1468.59 845.864 1467.61 846.584C1466.62 847.28 1466.08 848.252 1465.99 849.5H1462.42C1462.54 848.084 1463 846.884 1463.79 845.9C1464.58 844.892 1465.64 844.124 1466.96 843.596C1468.28 843.044 1469.8 842.768 1471.53 842.768C1473.31 842.768 1474.84 843.068 1476.14 843.668C1477.44 844.244 1478.43 845.084 1479.13 846.188C1479.85 847.292 1480.21 848.636 1480.21 850.22V863H1476.75ZM1469.59 863.432C1468.29 863.432 1467.15 863.204 1466.17 862.748C1465.18 862.268 1464.42 861.596 1463.86 860.732C1463.31 859.844 1463.04 858.812 1463.04 857.636C1463.04 855.596 1463.82 854.012 1465.38 852.884C1466.96 851.756 1469.17 851.192 1472 851.192H1477.08V853.892H1471.86C1470.22 853.892 1468.94 854.204 1468 854.828C1467.09 855.452 1466.64 856.328 1466.64 857.456C1466.64 858.392 1466.96 859.124 1467.61 859.652C1468.28 860.18 1469.18 860.444 1470.31 860.444C1471.75 860.444 1473.02 860.06 1474.12 859.292C1475.25 858.5 1476.16 857.42 1476.86 856.052L1477.26 858.716C1476.63 860.228 1475.67 861.392 1474.38 862.208C1473.08 863.024 1471.48 863.432 1469.59 863.432ZM1500.38 851.696V849.32C1500.38 848.288 1500.07 847.46 1499.45 846.836C1498.82 846.188 1497.92 845.864 1496.75 845.864C1495.26 845.864 1493.93 846.428 1492.75 847.556C1491.57 848.66 1490.64 850.352 1489.94 852.632L1489.44 848.96C1489.97 847.592 1490.6 846.452 1491.35 845.54C1492.11 844.628 1492.99 843.944 1493.97 843.488C1494.98 843.008 1496.09 842.768 1497.29 842.768C1499.28 842.768 1500.9 843.344 1502.15 844.496C1503.39 845.624 1504.02 847.232 1504.02 849.32V851.696H1500.38ZM1486.99 863V843.2H1490.41L1490.63 847.7V863H1486.99Z" fill="#FF6D7F"/>
<line x1="518" y1="510" x2="518" y2="863" stroke="#FF6D7F" stroke-width="2"/>
<line x1="1523" y1="584" x2="1523" y2="863" stroke="#FF6D7F" stroke-width="2"/>
<defs>
<clipPath id="clip0_3303_15570">
<rect width="1431" height="326" fill="white" transform="translate(245 377)"/>
</clipPath>
</defs>
</svg>
