<svg xmlns="http://www.w3.org/2000/svg" width="1920" height="1080" fill="none"><g clip-path="url(#a)"><path fill="#1A73E8" d="M1585.61 803V699.592H240V803h1345.61ZM240 659.364V278h103.5v283.293h154.217v98.071H240ZM1213.96 278v381.364h-86.08L990.064 459.212h-2.561v200.152h-103.5V278h88.126l135.261 199.647h3.08V278h103.5-.01ZM1341.53 659.364h-103.5L1364.18 278h103.49l-126.14 381.364Z"/><path fill="#1A73E8" d="M1528.03 659.364h103.5L1505.38 278h-103.5l126.15 381.364Z"/><path fill="#1A73E8" d="M1575.5 802.979H1679l-126.15-381.364h-103.5l126.15 381.364ZM1466.82 381.408V278h-64.06v103.408h64.06ZM743.833 278.01v221.377c0 33.858-27.567 61.4-61.455 61.4-33.889 0-61.456-27.542-61.456-61.4V278.01H517.654v221.377c0 90.89 73.753 164.577 164.724 164.577 90.97 0 164.723-73.687 164.723-164.577V278.01H743.833ZM1435.44 630.768c28.71 0 51.98-23.247 51.98-51.925 0-28.677-23.27-51.925-51.98-51.925-28.7 0-51.97 23.248-51.97 51.925 0 28.678 23.27 51.925 51.97 51.925Z"/><path fill="#F3F7FE" d="M1492.21 604.111c14.03 0 25.41-11.365 25.41-25.384s-11.38-25.383-25.41-25.383-25.41 11.364-25.41 25.383c0 14.019 11.38 25.384 25.41 25.384Z"/></g><defs><clipPath id="a"><path fill="#fff" d="M240 278h1439v525H240z"/></clipPath></defs></svg>