<svg xmlns="http://www.w3.org/2000/svg" width="1920" height="1080" fill="none"><g fill="#1A73E8" clip-path="url(#a)"><path d="m1000.26 474.995-16.679-50.386H349v50.392h656.18v-.006h-4.92ZM474.676 357.209h-75.204V219.145H349v185.859h125.676v-47.795ZM713.515 307.459h1.248l67.209 97.545h41.977V219.145h-50.472v97.293h-1.5l-65.96-97.293h-42.974v185.859h50.472v-97.545ZM916.013 220.417l-.422-1.272h-18.386L835.69 405.004h50.472l44.835-135.468h-14.984v-49.119ZM1027.56 405.004h.02l-61.517-185.859h-18.391l-.421 1.272v49.119h-14.98l6.485 19.595h50.457l38.347 115.873ZM916.013 219.145h-.421l.421 1.272v-1.272Z"/><path d="M947.672 219.145h-.421v1.272l.421-1.272ZM938.757 289.131h-.016l21.254 64.209h.015l-21.253-64.209ZM1005.18 474.995h45.55l-23.17-69.992h-50.454l-9.794-29.59-.01.01 16.279 49.186h21.599v50.386Z"/><path d="M1005.18 474.995v-50.386h-21.599l16.679 50.386h4.92ZM972.03 365.705c0 3.936-1.845 7.445-4.718 9.708l9.794 29.591h50.454l-38.347-115.873h-50.456l21.253 64.209c6.67.195 12.02 5.654 12.02 12.36v.005ZM930.997 269.535h1.274l-.637-1.924-.637 1.924Z"/><path d="M916.013 220.417v49.119h14.984l.637-1.924-15.621-47.195ZM947.25 220.417l-15.616 47.195.637 1.924h14.979v-49.119Z"/><path d="m931.634 267.612 15.616-47.195v-1.272h-31.237v1.272l15.621 47.195ZM564.731 407.241c44.361 0 80.327-35.912 80.327-80.208V219.149h-50.359v107.884c0 16.501-13.443 29.924-29.968 29.924-16.526 0-29.969-13.423-29.969-29.924V219.149h-50.359v107.884c0 44.296 35.966 80.208 80.328 80.208ZM947.251 365.706c0-5.044 3.021-9.374 7.353-11.304-4.167-8.271-12.744-13.951-22.651-13.951-13.998 0-25.344 11.329-25.344 25.306s11.346 25.306 25.344 25.306c9.943 0 18.545-5.721 22.698-14.038-4.358-1.919-7.4-6.265-7.4-11.324v.005ZM1061.78 299.46l5.97-80.079h15.97l10.23 47.384 2.41 15.604 2.53-15.604 10-47.384h15.74l6.09 80.079h-12.07l-2.64-50.135-.46-17.671-3.45 17.671-10.91 50.135h-10.34l-10.8-50.135-3.22-17.897-.69 17.897-2.53 50.135h-11.83ZM1144.62 219.381h52.28v10.323h-52.28v-10.323Zm0 69.755h52.28v10.324h-52.28v-10.324Zm20.1 10.324v-80.079h12.18v80.079h-12.18ZM1246.65 300.835c-6.2 0-11.61-1.186-16.2-3.556-4.6-2.371-8.16-5.772-10.69-10.211-2.53-4.433-3.79-9.826-3.79-16.178h12.07c0 6.275 1.65 11.109 4.94 14.511 3.29 3.407 7.81 5.105 13.56 5.105 4.9 0 8.84-1.129 11.83-3.386 2.99-2.253 4.48-5.409 4.48-9.467 0-2.755-.82-4.972-2.47-6.655-1.65-1.683-3.83-3.058-6.55-4.13-2.72-1.073-5.69-2.027-8.91-2.869a198.77 198.77 0 0 1-9.71-2.811c-3.25-1.032-6.24-2.35-8.96-3.956a18.809 18.809 0 0 1-6.55-6.424c-1.65-2.679-2.47-6.081-2.47-10.211 0-4.361 1.17-8.24 3.5-11.647 2.34-3.402 5.6-6.08 9.77-8.03 4.18-1.95 9.1-2.925 14.77-2.925 5.66 0 10.45 1.016 14.82 3.043 4.37 2.027 7.87 4.895 10.51 8.604 2.65 3.71 4.01 8.164 4.08 13.367h-12.17c-.08-3.058-.9-5.68-2.48-7.861-1.57-2.181-3.63-3.864-6.2-5.049-2.57-1.185-5.42-1.78-8.56-1.78-4.52 0-8.19 1.072-11.03 3.212-2.83 2.144-4.25 5.048-4.25 8.717 0 2.602.83 4.664 2.48 6.198 1.65 1.529 3.82 2.771 6.55 3.731 2.72.954 5.7 1.836 8.96 2.637 3.26.805 6.49 1.719 9.71 2.755 3.22 1.032 6.19 2.412 8.91 4.131 2.71 1.719 4.9 4.017 6.54 6.885 1.65 2.869 2.47 6.522 2.47 10.955 0 4.746-1.26 8.851-3.79 12.335-2.53 3.484-5.97 6.178-10.34 8.091-4.36 1.909-9.3 2.869-14.82 2.869h-.01ZM1321.33 300.835c-6.2 0-11.6-1.186-16.2-3.556-4.6-2.371-8.16-5.772-10.69-10.211-2.53-4.433-3.79-9.826-3.79-16.178h12.07c0 6.275 1.64 11.109 4.93 14.511 3.3 3.407 7.82 5.105 13.57 5.105 4.9 0 8.84-1.129 11.83-3.386 2.98-2.253 4.48-5.409 4.48-9.467 0-2.755-.82-4.972-2.47-6.655-1.65-1.683-3.83-3.058-6.55-4.13-2.72-1.073-5.69-2.027-8.91-2.869a198.77 198.77 0 0 1-9.71-2.811c-3.25-1.032-6.24-2.35-8.96-3.956a18.809 18.809 0 0 1-6.55-6.424c-1.65-2.679-2.47-6.081-2.47-10.211 0-4.361 1.17-8.24 3.5-11.647 2.34-3.402 5.59-6.08 9.77-8.03 4.18-1.95 9.1-2.925 14.77-2.925 5.66 0 10.45 1.016 14.82 3.043 4.37 2.027 7.87 4.895 10.51 8.604 2.65 3.71 4.01 8.164 4.08 13.367h-12.17c-.08-3.058-.9-5.68-2.48-7.861-1.57-2.181-3.63-3.864-6.2-5.049-2.57-1.185-5.42-1.78-8.56-1.78-4.53 0-8.2 1.072-11.03 3.212-2.84 2.144-4.25 5.048-4.25 8.717 0 2.602.82 4.664 2.47 6.198 1.64 1.529 3.83 2.771 6.55 3.731 2.72.954 5.7 1.836 8.96 2.637 3.25.805 6.49 1.719 9.71 2.755 3.21 1.032 6.18 2.412 8.9 4.131 2.72 1.719 4.9 4.017 6.55 6.885 1.65 2.869 2.47 6.522 2.47 10.955 0 4.746-1.26 8.851-3.79 12.335-2.53 3.484-5.97 6.178-10.34 8.091-4.36 1.909-9.3 2.869-14.82 2.869ZM1368.67 219.381h52.28v10.323h-52.28v-10.323Zm0 69.755h52.28v10.324h-52.28v-10.324Zm20.11 10.324v-80.079h12.18v80.079h-12.18ZM1469.67 300.834c-6.82 0-12.75-1.703-17.81-5.105-5.06-3.402-8.98-8.204-11.78-14.397-2.8-6.199-4.19-13.5-4.19-21.915s1.4-15.834 4.19-22.027c2.8-6.198 6.72-10.975 11.78-14.341 5.06-3.366 10.99-5.049 17.81-5.049 6.82 0 12.75 1.683 17.81 5.049 5.06 3.366 8.98 8.143 11.78 14.341 2.79 6.198 4.19 13.541 4.19 22.027 0 8.487-1.4 15.716-4.19 21.915-2.8 6.193-6.72 10.995-11.78 14.397-5.06 3.407-11 5.105-17.81 5.105Zm0-10.323c4.21 0 7.89-1.262 11.03-3.787 3.14-2.524 5.59-6.116 7.35-10.785 1.76-4.664 2.64-10.17 2.64-16.522 0-6.352-.88-11.95-2.64-16.578-1.76-4.628-4.21-8.204-7.35-10.729-3.14-2.524-6.82-3.786-11.03-3.786-4.21 0-7.8 1.262-10.98 3.786-3.18 2.525-5.64 6.121-7.41 10.785-1.76 4.665-2.64 10.175-2.64 16.522 0 6.347.88 11.858 2.64 16.522 1.77 4.669 4.23 8.261 7.41 10.785 3.18 2.525 6.84 3.787 10.98 3.787ZM1514.6 299.46v-80.079h15.17l33.43 64.25-.92-24.783v-39.467h11.73v80.079h-15.06l-33.66-63.557 1.03 23.977v39.58h-11.72ZM1096.13 404.095c-6.51 0-12.06-1.703-16.66-5.105-4.59-3.402-8.12-8.22-10.57-14.454-2.45-6.234-3.68-13.52-3.68-21.858 0-8.338 1.23-15.834 3.68-22.027 2.45-6.199 5.98-10.975 10.57-14.341 4.6-3.366 10.15-5.049 16.66-5.049s12.16 1.683 16.72 5.049c4.56 3.366 8.06 8.127 10.51 14.284 2.45 6.157 3.68 13.52 3.68 22.084s-1.23 15.716-3.68 21.914c-2.45 6.193-5.95 10.996-10.51 14.398-4.56 3.407-10.13 5.105-16.72 5.105Zm0-10.323c6.05 0 10.61-2.735 13.68-8.205 3.06-5.469 4.59-13.099 4.59-22.889s-1.54-17.61-4.59-23.002c-3.07-5.393-7.63-8.092-13.68-8.092s-10.5 2.699-13.55 8.092c-3.07 5.392-4.6 13.063-4.6 23.002 0 9.939 1.53 17.42 4.6 22.889 3.06 5.47 7.58 8.205 13.55 8.205ZM1169.9 402.715v-49.447l.57-16.291-12.98 10.554-14.37 11.473v-14.341l30.11-22.027h8.85v80.079h-12.18Zm-26.78 0v-10.324h56.77v10.324h-56.77ZM1203.95 370.862v-10.211h74.71v10.211h-74.71ZM1290.1 402.716v-8.718c10.57-7.876 19.07-14.741 25.5-20.59 6.44-5.855 11.11-11.053 14.02-15.604 2.91-4.551 4.37-8.702 4.37-12.447 0-4.131-1.29-7.456-3.85-9.98-2.57-2.525-6.15-3.787-10.74-3.787-4.83 0-8.81 1.473-11.96 4.418-3.14 2.945-4.82 7.096-5.05 12.448h-12.3c.38-5.737 1.86-10.652 4.42-14.742 2.57-4.089 6.02-7.188 10.34-9.292 4.33-2.104 9.25-3.155 14.77-3.155 5.51 0 10.3.974 14.36 2.924 4.06 1.95 7.18 4.705 9.36 8.261 2.19 3.556 3.28 7.671 3.28 12.335 0 5.049-1.29 10-3.85 14.859-2.57 4.859-6.67 9.944-12.3 15.26-5.63 5.315-13.08 11.149-22.34 17.496h38.72v10.324h-56.77l.02-.01ZM1394.3 404.095c-6.51 0-12.06-1.703-16.66-5.105-4.59-3.402-8.12-8.22-10.57-14.454-2.45-6.234-3.67-13.52-3.67-21.858 0-8.338 1.22-15.834 3.67-22.027 2.45-6.199 5.98-10.975 10.57-14.341 4.6-3.366 10.15-5.049 16.66-5.049s12.16 1.683 16.72 5.049c4.56 3.366 8.06 8.127 10.51 14.284 2.45 6.157 3.68 13.52 3.68 22.084s-1.23 15.716-3.68 21.914c-2.45 6.193-5.95 10.996-10.51 14.398-4.56 3.407-10.13 5.105-16.72 5.105Zm0-10.323c6.05 0 10.61-2.735 13.68-8.205 3.06-5.469 4.59-13.099 4.59-22.889s-1.53-17.61-4.59-23.002c-3.07-5.393-7.62-8.092-13.68-8.092-6.05 0-10.49 2.699-13.55 8.092-3.07 5.392-4.6 13.063-4.6 23.002 0 9.939 1.53 17.42 4.6 22.889 3.06 5.47 7.58 8.205 13.55 8.205ZM1469.68 404.095c-5.29 0-10.15-1.072-14.6-3.212-4.44-2.139-7.98-5.239-10.62-9.292-2.65-4.054-3.97-9.025-3.97-14.916h12.18c.08 3.366.84 6.332 2.3 8.892 1.45 2.566 3.46 4.531 6.03 5.911 2.57 1.375 5.46 2.063 8.68 2.063 4.9 0 8.84-1.263 11.83-3.787s4.48-5.772 4.48-9.754c0-3.135-.86-5.716-2.58-7.743-1.73-2.026-4.03-3.54-6.9-4.53-2.87-.99-6.07-1.488-9.59-1.488h-4.25v-10.098h4.59c3.14 0 5.84-.59 8.1-1.78 2.26-1.186 4-2.771 5.22-4.762 1.23-1.991 1.84-4.13 1.84-6.424 0-3.515-1.2-6.326-3.61-8.435-2.41-2.104-5.54-3.156-9.37-3.156-4.67 0-8.46 1.36-11.37 4.074-2.92 2.715-4.48 6.635-4.71 11.76h-12.18c.23-5.736 1.66-10.554 4.31-14.454 2.64-3.899 6.07-6.829 10.28-8.779 4.21-1.949 8.81-2.924 13.79-2.924 4.98 0 9.59.862 13.38 2.581 3.8 1.718 6.76 4.13 8.91 7.229 2.14 3.099 3.22 6.753 3.22 10.955 0 2.832-.62 5.505-1.84 8.03a19.912 19.912 0 0 1-5 6.48c-2.11 1.801-4.54 3.079-7.3 3.843 3.45.539 6.49 1.704 9.13 3.5a19.634 19.634 0 0 1 6.26 6.885c1.54 2.792 2.3 5.911 2.3 9.349 0 4.664-1.19 8.815-3.56 12.448-2.37 3.632-5.73 6.465-10.06 8.491-4.32 2.027-9.44 3.043-15.33 3.043h.01ZM1542.81 403.977c-5.36 0-10.03-.959-14.01-2.868-3.99-1.909-7.15-4.628-9.49-8.148-2.33-3.515-3.61-7.609-3.84-12.273h12.17c.38 3.899 1.92 7.039 4.6 9.405 2.68 2.37 6.24 3.555 10.68 3.555 3.45 0 6.44-.764 8.96-2.293 2.53-1.529 4.48-3.71 5.86-6.542 1.38-2.827 2.07-6.116 2.07-9.867 0-4.895-1.45-8.851-4.37-11.873-2.91-3.022-6.74-4.531-11.49-4.531-3.29 0-6.39.821-9.3 2.468-2.92 1.647-5.25 3.772-7.01 6.368h-11.26l6.78-44.742h45.27v10.323h-35.39l-3.67 23.177c2.22-2.448 4.9-4.397 8.04-5.849 3.14-1.453 6.35-2.181 9.65-2.181 4.98 0 9.38 1.129 13.21 3.386 3.83 2.258 6.82 5.357 8.96 9.293 2.14 3.94 3.22 8.589 3.22 13.94 0 5.968-1.23 11.15-3.68 15.547s-5.9 7.784-10.34 10.154c-4.44 2.371-9.65 3.556-15.63 3.556l.01-.005Z"/></g><g clip-path="url(#b)"><path fill="#1A73E8" d="M1002.31 793.368v-50.496H346v50.496h656.31ZM346 723.228V537h50.481v138.338h75.218v47.89H346ZM821.039 537v186.228h-41.98l-67.221-97.739h-1.249v97.739h-50.482V537h42.983l65.972 97.492h1.501V537h50.481-.005ZM883.263 723.228h-50.481L894.308 537h50.477l-61.522 186.228Z"/><path fill="#1A73E8" d="M974.224 723.228h50.486L963.179 537h-50.481l61.526 186.228Z"/><path fill="#1A73E8" d="M997.379 793.358h50.481L986.334 607.13h-50.481l61.526 186.228ZM944.368 587.496V537h-31.244v50.496h31.244ZM591.74 537.005v108.103c0 16.534-13.445 29.983-29.974 29.983s-29.974-13.449-29.974-29.983V537.005h-50.368v108.103c0 44.383 35.972 80.366 80.342 80.366s80.343-35.983 80.343-80.366V537.005H591.74ZM929.068 709.264c14 0 25.349-11.352 25.349-25.356 0-14.004-11.349-25.356-25.349-25.356-13.999 0-25.348 11.352-25.348 25.356 0 14.004 11.349 25.356 25.348 25.356Z"/><path fill="#fff" d="M956.755 696.247c6.844 0 12.391-5.55 12.391-12.396 0-6.845-5.547-12.395-12.391-12.395s-12.392 5.55-12.392 12.395c0 6.846 5.548 12.396 12.392 12.396Z"/><path fill="#1A73E8" d="m346 862.136 3.747-50.29h10.012l6.409 29.757 1.511 9.799 1.583-9.799 6.265-29.757h9.868l3.819 50.29h-7.566l-1.655-31.484-.287-11.095-2.159 11.095-6.841 31.484h-6.481l-6.769-31.484-2.015-11.239-.431 11.239-1.583 31.484H346ZM397.936 811.841h32.775v6.483h-32.775v-6.483Zm0 43.807h32.775v6.483h-32.775v-6.483Zm12.607 6.483v-50.29h7.637v50.29h-7.637ZM461.898 863.001c-3.89 0-7.277-.746-10.155-2.237-2.879-1.491-5.114-3.624-6.697-6.411-1.583-2.786-2.38-6.174-2.38-10.159h7.566c0 3.938 1.033 6.977 3.099 9.115 2.066 2.139 4.898 3.209 8.501 3.209 3.073 0 5.545-.71 7.421-2.129 1.871-1.414 2.812-3.398 2.812-5.943 0-1.727-.52-3.121-1.547-4.18-1.034-1.059-2.401-1.923-4.107-2.596-1.706-.674-3.567-1.27-5.582-1.799a126.456 126.456 0 0 1-6.085-1.764c-2.04-.648-3.916-1.475-5.618-2.483a11.788 11.788 0 0 1-4.106-4.036c-1.033-1.681-1.547-3.82-1.547-6.411 0-2.74.73-5.177 2.2-7.316 1.464-2.138 3.505-3.82 6.121-5.043 2.616-1.224 5.7-1.836 9.256-1.836 3.557 0 6.553.638 9.293 1.908 2.739 1.275 4.934 3.074 6.589 5.403 1.655 2.329 2.508 5.126 2.554 8.396h-7.637c-.047-1.923-.566-3.568-1.547-4.936-.987-1.367-2.282-2.426-3.891-3.172-1.609-.745-3.397-1.116-5.366-1.116-2.832 0-5.139.674-6.913 2.021-1.778 1.347-2.667 3.172-2.667 5.475 0 1.635.514 2.931 1.547 3.892 1.033.961 2.4 1.743 4.107 2.339a60.155 60.155 0 0 0 5.617 1.656 91.436 91.436 0 0 1 6.085 1.727 24.128 24.128 0 0 1 5.582 2.596c1.701 1.08 3.074 2.525 4.107 4.324 1.033 1.8 1.547 4.098 1.547 6.879 0 2.977-.792 5.558-2.38 7.748-1.583 2.185-3.747 3.881-6.481 5.079s-5.833 1.8-9.292 1.8h-.006ZM508.715 863.001c-3.891 0-7.273-.746-10.156-2.237-2.884-1.486-5.114-3.624-6.697-6.411-1.583-2.786-2.375-6.174-2.375-10.159h7.566c0 3.938 1.033 6.977 3.099 9.115 2.066 2.139 4.898 3.209 8.501 3.209 3.073 0 5.546-.71 7.416-2.129 1.871-1.414 2.807-3.398 2.807-5.943 0-1.727-.514-3.121-1.547-4.18-1.033-1.059-2.401-1.923-4.107-2.596-1.706-.674-3.567-1.27-5.582-1.799a126.456 126.456 0 0 1-6.085-1.764c-2.04-.648-3.916-1.475-5.617-2.483a11.783 11.783 0 0 1-4.107-4.036c-1.033-1.681-1.547-3.82-1.547-6.411 0-2.74.73-5.177 2.195-7.316 1.464-2.138 3.505-3.82 6.121-5.043 2.616-1.224 5.7-1.836 9.256-1.836 3.557 0 6.553.638 9.293 1.908 2.739 1.275 4.934 3.074 6.589 5.403 1.655 2.329 2.508 5.126 2.559 8.396h-7.637c-.047-1.923-.566-3.568-1.547-4.936-.987-1.367-2.282-2.426-3.891-3.172-1.609-.745-3.397-1.116-5.366-1.116-2.832 0-5.139.674-6.913 2.021-1.778 1.347-2.667 3.172-2.667 5.475 0 1.635.514 2.931 1.547 3.892 1.033.961 2.4 1.743 4.107 2.339a60.608 60.608 0 0 0 5.617 1.656 91.436 91.436 0 0 1 6.085 1.727 24.032 24.032 0 0 1 5.582 2.596c1.706 1.08 3.074 2.525 4.107 4.324 1.033 1.8 1.547 4.098 1.547 6.879 0 2.977-.792 5.558-2.375 7.748-1.583 2.185-3.747 3.881-6.481 5.079-2.739 1.198-5.833 1.8-9.292 1.8h-.005ZM538.391 811.841h32.775v6.483h-32.775v-6.483Zm0 43.807h32.775v6.483h-32.775v-6.483Zm12.607 6.483v-50.29h7.638v50.29h-7.638ZM601.706 863c-4.276 0-7.998-1.069-11.164-3.208-3.171-2.139-5.633-5.151-7.385-9.043-1.753-3.892-2.632-8.478-2.632-13.763s.874-9.943 2.632-13.835c1.752-3.892 4.214-6.894 7.385-9.007 3.172-2.113 6.888-3.172 11.164-3.172s7.997 1.059 11.163 3.172c3.171 2.113 5.628 5.115 7.386 9.007 1.752 3.892 2.626 8.503 2.626 13.835 0 5.331-.879 9.871-2.626 13.763-1.753 3.892-4.215 6.904-7.386 9.043-3.171 2.139-6.892 3.208-11.163 3.208Zm0-6.483c2.641 0 4.944-.792 6.912-2.38 1.969-1.584 3.506-3.841 4.611-6.771 1.105-2.931 1.655-6.385 1.655-10.375s-.55-7.506-1.655-10.411c-1.105-2.905-2.642-5.151-4.611-6.735-1.968-1.583-4.276-2.38-6.912-2.38-2.637 0-4.888.792-6.882 2.38-1.994 1.584-3.541 3.846-4.646 6.771-1.105 2.931-1.655 6.391-1.655 10.375s.55 7.444 1.655 10.375c1.105 2.93 2.652 5.187 4.646 6.771 1.994 1.583 4.286 2.38 6.882 2.38ZM629.871 862.136v-50.29h9.508l20.96 40.347-.576-15.562v-24.785h7.35v50.29h-9.437l-21.103-39.915.648 15.058v24.857h-7.35ZM714.402 863c-4.08 0-7.565-1.069-10.443-3.208-2.884-2.139-5.088-5.162-6.625-9.079-1.537-3.913-2.303-8.488-2.303-13.727 0-5.239.766-9.943 2.303-13.835 1.537-3.892 3.747-6.894 6.625-9.007 2.883-2.113 6.363-3.172 10.443-3.172 4.081 0 7.622 1.059 10.48 3.172 2.858 2.113 5.052 5.105 6.589 8.971 1.537 3.866 2.303 8.493 2.303 13.871 0 5.377-.771 9.871-2.303 13.763-1.537 3.892-3.736 6.904-6.589 9.043-2.858 2.139-6.352 3.208-10.48 3.208Zm0-6.483c3.793 0 6.651-1.717 8.573-5.151 1.917-3.435 2.884-8.226 2.884-14.375 0-6.149-.961-11.059-2.884-14.447-1.922-3.388-4.78-5.079-8.573-5.079s-6.578 1.691-8.5 5.079c-1.923 3.388-2.884 8.206-2.884 14.447s.961 10.94 2.884 14.375c1.917 3.434 4.754 5.151 8.5 5.151ZM760.643 862.137v-31.053l.36-10.231-8.141 6.627-9.005 7.203v-9.007l18.873-13.835h5.546v50.29h-7.638l.005.006Zm-16.78 0v-6.483h35.581v6.483h-35.581ZM781.988 842.132v-6.411h84.835v6.411h-84.835ZM873.987 862.137v-5.475c6.625-4.946 11.954-9.26 15.989-12.936 4.034-3.676 6.964-6.94 8.789-9.799 1.824-2.858 2.739-5.465 2.739-7.819 0-2.591-.807-4.684-2.416-6.267-1.608-1.584-3.854-2.381-6.732-2.381-3.028 0-5.526.926-7.494 2.776-1.969 1.851-3.027 4.458-3.171 7.82h-7.71c.242-3.604 1.162-6.688 2.776-9.259 1.609-2.571 3.767-4.514 6.481-5.835 2.714-1.321 5.797-1.98 9.256-1.98 3.459 0 6.461.612 9.005 1.836 2.544 1.223 4.502 2.956 5.869 5.187 1.367 2.237 2.056 4.818 2.056 7.748 0 3.172-.807 6.282-2.415 9.331-1.609 3.049-4.179 6.247-7.705 9.583-3.531 3.342-8.203 7.002-14.01 10.987h24.274v6.483h-35.581ZM939.317 863c-4.081 0-7.566-1.069-10.444-3.208-2.884-2.139-5.088-5.162-6.625-9.079-1.537-3.913-2.303-8.488-2.303-13.727 0-5.239.766-9.943 2.303-13.835 1.537-3.892 3.747-6.894 6.625-9.007 2.883-2.113 6.363-3.172 10.444-3.172 4.08 0 7.622 1.059 10.479 3.172 2.858 2.113 5.052 5.105 6.589 8.971 1.537 3.866 2.303 8.493 2.303 13.871 0 5.377-.766 9.871-2.303 13.763-1.537 3.892-3.736 6.904-6.589 9.043-2.857 2.139-6.352 3.208-10.479 3.208Zm0-6.483c3.793 0 6.65-1.717 8.572-5.151 1.923-3.435 2.884-8.226 2.884-14.375 0-6.149-.961-11.059-2.884-14.447-1.922-3.388-4.779-5.079-8.572-5.079-3.794 0-6.579 1.691-8.501 5.079-1.923 3.388-2.884 8.206-2.884 14.447s.961 10.94 2.884 14.375c1.922 3.434 4.754 5.151 8.501 5.151ZM986.565 863c-3.315 0-6.363-.673-9.149-2.02-2.786-1.342-5.006-3.291-6.661-5.835-1.655-2.545-2.487-5.666-2.487-9.368h7.637c.046 2.113.529 3.975 1.439 5.584a9.39 9.39 0 0 0 3.783 3.712c1.609.863 3.423 1.295 5.438 1.295 3.073 0 5.545-.792 7.421-2.375 1.871-1.583 2.806-3.625 2.806-6.123 0-1.969-.539-3.589-1.619-4.864-1.079-1.269-2.523-2.221-4.322-2.848-1.799-.622-3.808-.936-6.013-.936h-2.668v-6.339h2.884c1.968 0 3.659-.37 5.077-1.115 1.419-.746 2.509-1.738 3.28-2.992a7.603 7.603 0 0 0 1.151-4.036c0-2.211-.756-3.974-2.272-5.296-1.511-1.321-3.469-1.979-5.869-1.979-2.93 0-5.304.854-7.134 2.56-1.825 1.707-2.811 4.17-2.955 7.388h-7.638c.144-3.604 1.043-6.627 2.704-9.079 1.655-2.452 3.803-4.288 6.445-5.511 2.641-1.224 5.52-1.836 8.645-1.836 3.124 0 6.013.54 8.392 1.62 2.375 1.079 4.236 2.596 5.58 4.539 1.34 1.944 2.02 4.242 2.02 6.879 0 1.779-.39 3.46-1.15 5.044a12.517 12.517 0 0 1-3.14 4.072c-1.321 1.131-2.847 1.933-4.574 2.416 2.159.339 4.071 1.069 5.726 2.195a12.343 12.343 0 0 1 3.928 4.324c.96 1.753 1.44 3.712 1.44 5.871 0 2.93-.75 5.537-2.23 7.82-1.49 2.282-3.596 4.061-6.304 5.331-2.714 1.27-5.921 1.907-9.617 1.907l.006-.005ZM1032.42 862.928c-3.37 0-6.3-.602-8.79-1.8-2.5-1.197-4.48-2.904-5.94-5.115-1.47-2.206-2.28-4.781-2.42-7.707h7.64c.24 2.453 1.19 4.422 2.88 5.908 1.68 1.491 3.91 2.236 6.7 2.236 2.16 0 4.03-.478 5.61-1.439 1.59-.962 2.82-2.329 3.68-4.108.86-1.774 1.29-3.841 1.29-6.195 0-3.075-.91-5.558-2.73-7.455-1.83-1.897-4.23-2.848-7.21-2.848-2.06 0-4 .519-5.83 1.547-1.82 1.034-3.29 2.365-4.39 4h-7.06l4.25-28.101h28.38v6.483h-22.19l-2.3 14.554c1.39-1.537 3.07-2.761 5.04-3.676 1.97-.91 3.98-1.367 6.05-1.367 3.12 0 5.88.709 8.28 2.123 2.4 1.419 4.27 3.362 5.62 5.835 1.34 2.473 2.02 5.393 2.02 8.756 0 3.747-.77 7.002-2.31 9.763-1.53 2.76-3.69 4.889-6.48 6.375-2.78 1.491-6.05 2.236-9.79 2.236v-.005Z"/></g><defs><clipPath id="a"><path fill="#fff" d="M349 218h1225v257H349z"/></clipPath><clipPath id="b"><path fill="#fff" d="M346 537h705v326H346z"/></clipPath></defs></svg>