<svg width="1920" height="1109" viewBox="0 0 1920 1109" fill="none" xmlns="http://www.w3.org/2000/svg">
<g clip-path="url(#clip0_3303_15804)">
<path d="M285.155 569.553L306.625 504.682H532.858V569.553H285.155Z" fill="#1A73E8"/>
<path d="M379.941 479.452H315.102L394.128 240.205H458.974L379.941 479.452Z" fill="#1A73E8"/>
<path d="M496.791 479.452H561.63L482.597 240.205H417.758L496.791 479.452Z" fill="#1A73E8"/>
<path d="M526.533 569.54H591.372L512.346 330.299H447.5L526.533 569.54Z" fill="#1A73E8"/>
<path d="M458.433 305.082V240.211H418.299V305.082H458.433Z" fill="#1A73E8"/>
<path d="M438.785 461.507C456.768 461.507 471.346 446.923 471.346 428.933C471.346 410.942 456.768 396.358 438.785 396.358C420.802 396.358 406.224 410.942 406.224 428.933C406.224 446.923 420.802 461.507 438.785 461.507Z" fill="#1A73E8"/>
<path d="M474.35 444.791C483.141 444.791 490.268 437.662 490.268 428.867C490.268 420.073 483.141 412.943 474.35 412.943C465.559 412.943 458.433 420.073 458.433 428.867C458.433 437.662 465.559 444.791 474.35 444.791Z" fill="white"/>
<path d="M241.489 701.725V594.175H270.637V674.071H314.072V701.732H241.489V701.725Z" fill="#1A73E8"/>
<path d="M517.337 594.169V701.719H493.094L454.274 645.269H453.554V701.719H424.406V594.169H449.23L487.331 650.474H488.195V594.169H517.344H517.337Z" fill="#1A73E8"/>
<path d="M553.272 701.726H524.117L559.65 594.169H588.798L553.272 701.726Z" fill="#1A73E8"/>
<path d="M605.798 701.726H634.946L599.42 594.169H570.266L605.798 701.726Z" fill="#1A73E8"/>
<path d="M588.554 623.329V594.169H570.51V623.329H588.554Z" fill="#1A73E8"/>
<path d="M384.199 594.175V656.609C384.199 666.159 376.435 673.926 366.889 673.926C357.342 673.926 349.578 666.159 349.578 656.609V594.175H320.489V656.609C320.489 682.241 341.259 703.02 366.882 703.02C392.505 703.02 413.275 682.241 413.275 656.609V594.175H384.186H384.199Z" fill="#1A73E8"/>
<path d="M394.129 240.205L232.153 729.796" stroke="#FF6D7F" stroke-width="2" stroke-miterlimit="10"/>
<path d="M482.597 240.205L644.149 729.796" stroke="#FF6D7F" stroke-width="2" stroke-miterlimit="10"/>
<path d="M634.65 479.746H218.336" stroke="#FF6D7F" stroke-width="2" stroke-miterlimit="10"/>
<path d="M634.65 504.581H218.336" stroke="#FF6D7F" stroke-width="2" stroke-miterlimit="10"/>
<path d="M634.65 569.532H218.336" stroke="#FF6D7F" stroke-width="2" stroke-miterlimit="10"/>
<path d="M634.65 594.366H218.336" stroke="#FF6D7F" stroke-width="2" stroke-miterlimit="10"/>
</g>
<g clip-path="url(#clip1_3303_15804)">
<path d="M1054.77 574.76H1113.37L1083.56 484.823H1083.58L1004.44 246H915.858L836.715 484.823H901.65L959.326 310.758H960.966L969.309 335.937H969.289L996.633 418.443L1006.03 446.813L1026.98 510.015H828.226L806.733 574.773H1054.77V574.76V574.76ZM996.653 418.443C1005.23 418.694 1012.12 425.709 1012.12 434.326C1012.12 439.383 1009.74 443.893 1006.05 446.8L996.653 418.443Z" fill="#1A73E8"/>
<path d="M989.704 419.802C984.343 409.174 973.309 401.875 960.562 401.875C942.554 401.875 927.956 416.433 927.956 434.392C927.956 452.352 942.554 466.91 960.562 466.91C973.355 466.91 984.422 459.558 989.764 448.871C984.158 446.405 980.244 440.821 980.244 434.32C980.244 427.819 984.131 422.274 989.704 419.795V419.802Z" fill="#1A73E8"/>
<path d="M792.188 599.346H763V706.708H835.69V679.103H792.188V599.346Z" fill="#1A73E8"/>
<path d="M1010.04 655.552H1009.17L971.021 599.346H946.163V706.708H975.358V650.363H976.079L1014.95 706.708H1039.23V599.346H1010.04V655.552Z" fill="#1A73E8"/>
<path d="M1127.81 706.708H1157L1121.43 599.346H1110.79H1110.54H1092.48H1092.23H1081.6L1046.02 706.708H1075.21L1101.14 628.454H1101.88L1127.81 706.708Z" fill="#1A73E8"/>
<path d="M905.907 661.671C905.907 671.204 898.133 678.958 888.573 678.958C879.013 678.958 871.238 671.204 871.238 661.671V599.346H842.109V661.671C842.109 687.258 862.908 708 888.566 708C914.224 708 935.023 687.258 935.023 661.671V599.346H905.894V661.671H905.907Z" fill="#1A73E8"/>
</g>
<g clip-path="url(#clip2_3303_15804)">
<path d="M1253 795.559L1257.59 733.994H1269.88L1277.75 770.421L1279.6 782.416L1281.55 770.421L1289.24 733.994H1301.35L1306.03 795.559H1296.75L1294.72 757.014L1294.37 743.429L1291.72 757.014L1283.33 795.559H1275.37L1267.06 757.014L1264.59 743.258L1264.06 757.014L1262.12 795.559H1253V795.559Z" fill="#1A73E8"/>
<path d="M1316.73 733.994H1356.94V741.931H1316.73V733.994ZM1316.73 787.622H1356.94V795.559H1316.73V787.622ZM1332.19 795.559V733.994H1341.56V795.559H1332.19V795.559Z" fill="#1A73E8"/>
<path d="M1395.21 796.621C1390.43 796.621 1386.28 795.71 1382.74 793.883C1379.21 792.062 1376.47 789.442 1374.53 786.031C1372.58 782.62 1371.61 778.477 1371.61 773.594H1380.89C1380.89 778.417 1382.16 782.138 1384.69 784.751C1387.23 787.371 1390.7 788.677 1395.12 788.677C1398.89 788.677 1401.93 787.813 1404.22 786.071C1406.52 784.336 1407.67 781.914 1407.67 778.793C1407.67 776.675 1407.03 774.973 1405.77 773.68C1404.5 772.387 1402.82 771.331 1400.73 770.506C1398.64 769.682 1396.36 768.949 1393.88 768.303C1391.41 767.656 1388.92 766.937 1386.41 766.139C1383.91 765.347 1381.61 764.331 1379.52 763.097C1377.43 761.863 1375.75 760.214 1374.48 758.155C1373.21 756.097 1372.58 753.477 1372.58 750.304C1372.58 746.952 1373.48 743.97 1375.28 741.35C1377.08 738.738 1379.58 736.672 1382.79 735.175C1386 733.677 1389.79 732.925 1394.15 732.925C1398.51 732.925 1402.19 733.703 1405.55 735.26C1408.91 736.818 1411.61 739.028 1413.64 741.878C1415.67 744.728 1416.72 748.153 1416.77 752.151H1407.4C1407.34 749.802 1406.71 747.783 1405.51 746.107C1404.3 744.432 1402.71 743.138 1400.73 742.228C1398.76 741.317 1396.56 740.862 1394.15 740.862C1390.67 740.862 1387.84 741.687 1385.67 743.33C1383.49 744.979 1382.39 747.209 1382.39 750.033C1382.39 752.032 1383.03 753.622 1384.29 754.797C1385.56 755.971 1387.24 756.928 1389.33 757.66C1391.42 758.393 1393.72 759.072 1396.22 759.686C1398.73 760.306 1401.22 761.012 1403.7 761.804C1406.17 762.596 1408.46 763.658 1410.54 764.977C1412.63 766.304 1414.31 768.065 1415.58 770.269C1416.85 772.473 1417.48 775.283 1417.48 778.694C1417.48 782.343 1416.51 785.503 1414.56 788.176C1412.62 790.854 1409.97 792.926 1406.61 794.397C1403.25 795.869 1399.45 796.601 1395.21 796.601L1395.21 796.621Z" fill="#1A73E8"/>
<path d="M1452.65 796.621C1447.88 796.621 1443.73 795.71 1440.19 793.883C1436.65 792.062 1433.91 789.442 1431.97 786.031C1430.03 782.62 1429.06 778.477 1429.06 773.594H1438.34C1438.34 778.417 1439.61 782.138 1442.14 784.751C1444.67 787.371 1448.15 788.677 1452.57 788.677C1456.34 788.677 1459.37 787.813 1461.68 786.071C1463.98 784.336 1465.12 781.914 1465.12 778.793C1465.12 776.675 1464.49 774.973 1463.22 773.68C1461.95 772.387 1460.27 771.331 1458.18 770.506C1456.1 769.682 1453.81 768.949 1451.34 768.303C1448.86 767.656 1446.37 766.937 1443.86 766.139C1441.36 765.347 1439.06 764.331 1436.97 763.097C1434.88 761.863 1433.19 760.214 1431.93 758.155C1430.66 756.097 1430.03 753.477 1430.03 750.304C1430.03 746.952 1430.93 743.97 1432.73 741.35C1434.53 738.738 1437.03 736.672 1440.24 735.175C1443.45 733.677 1447.24 732.925 1451.6 732.925C1455.96 732.925 1459.65 733.703 1463 735.26C1466.36 736.818 1469.06 739.028 1471.09 741.878C1473.13 744.728 1474.17 748.153 1474.23 752.151H1464.86C1464.8 749.802 1464.17 747.783 1462.96 746.107C1461.75 744.432 1460.16 743.138 1458.19 742.228C1456.21 741.317 1454.02 740.862 1451.61 740.862C1448.13 740.862 1445.3 741.687 1443.12 743.33C1440.94 744.979 1439.85 747.209 1439.85 750.033C1439.85 752.032 1440.49 753.622 1441.75 754.797C1443.02 755.971 1444.69 756.928 1446.79 757.66C1448.88 758.393 1451.18 759.072 1453.68 759.686C1456.19 760.306 1458.67 761.012 1461.15 761.804C1463.63 762.596 1465.91 763.658 1468 764.977C1470.09 766.304 1471.77 768.065 1473.04 770.269C1474.31 772.473 1474.94 775.283 1474.94 778.694C1474.94 782.343 1473.97 785.503 1472.02 788.176C1470.08 790.854 1467.43 792.926 1464.07 794.397C1460.71 795.869 1456.91 796.601 1452.66 796.601L1452.65 796.621Z" fill="#1A73E8"/>
<path d="M1489.07 733.994H1529.28V741.931H1489.07V733.994ZM1489.07 787.622H1529.28V795.559H1489.07V787.622ZM1504.53 795.559V733.994H1513.9V795.559H1504.53V795.559Z" fill="#1A73E8"/>
<path d="M1566.75 796.621C1561.51 796.621 1556.94 795.315 1553.06 792.696C1549.17 790.083 1546.15 786.388 1544 781.624C1541.84 776.861 1540.77 771.246 1540.77 764.78C1540.77 758.314 1541.84 752.607 1544 747.843C1546.15 743.079 1549.17 739.404 1553.06 736.818C1556.94 734.232 1561.51 732.938 1566.75 732.938C1572 732.938 1576.56 734.232 1580.45 736.818C1584.34 739.404 1587.36 743.079 1589.51 747.843C1591.66 752.607 1592.74 758.255 1592.74 764.78C1592.74 771.305 1591.66 776.867 1589.51 781.624C1587.35 786.388 1584.34 790.076 1580.45 792.696C1576.56 795.315 1572 796.621 1566.75 796.621V796.621ZM1566.75 788.684C1569.99 788.684 1572.82 787.714 1575.24 785.774C1577.65 783.835 1579.53 781.07 1580.89 777.481C1582.25 773.898 1582.92 769.662 1582.92 764.78C1582.92 759.897 1582.25 755.596 1580.89 752.033C1579.54 748.477 1577.66 745.725 1575.24 743.785C1572.82 741.846 1569.99 740.876 1566.75 740.876C1563.51 740.876 1560.76 741.846 1558.31 743.785C1555.86 745.725 1553.97 748.49 1552.61 752.079C1551.26 755.668 1550.58 759.897 1550.58 764.78C1550.58 769.662 1551.25 773.898 1552.61 777.481C1553.97 781.07 1555.86 783.835 1558.31 785.774C1560.76 787.714 1563.57 788.684 1566.75 788.684Z" fill="#1A73E8"/>
<path d="M1601.31 795.559V733.994H1612.98L1638.7 783.386L1637.99 764.331V733.987H1647.01V795.552H1635.43L1609.53 746.688L1610.33 765.123V795.552H1601.31V795.559Z" fill="#1A73E8"/>
<path d="M1279.43 876C1274.41 876 1270.14 874.694 1266.61 872.075C1263.08 869.462 1260.37 865.754 1258.48 860.964C1256.6 856.174 1255.65 850.572 1255.65 844.159C1255.65 837.746 1256.6 831.986 1258.48 827.222C1260.37 822.458 1263.08 818.783 1266.61 816.197C1270.15 813.611 1274.42 812.317 1279.43 812.317C1284.43 812.317 1288.78 813.611 1292.28 816.197C1295.79 818.783 1298.49 822.445 1300.37 827.176C1302.25 831.913 1303.2 837.568 1303.2 844.152C1303.2 850.737 1302.25 856.24 1300.37 860.997C1298.49 865.76 1295.79 869.449 1292.28 872.068C1288.78 874.687 1284.49 875.994 1279.43 875.994V876ZM1279.43 868.063C1284.08 868.063 1287.58 865.958 1289.94 861.755C1292.3 857.553 1293.48 851.687 1293.48 844.159C1293.48 836.631 1292.3 830.62 1289.94 826.476C1287.58 822.333 1284.08 820.255 1279.43 820.255C1274.77 820.255 1271.35 822.326 1269 826.476C1266.64 830.62 1265.46 836.518 1265.46 844.159C1265.46 851.799 1266.64 857.553 1269 861.755C1271.35 865.958 1274.83 868.063 1279.43 868.063Z" fill="#1A73E8"/>
<path d="M1336.17 874.945V836.928L1336.61 824.405L1326.62 832.52L1315.58 841.342V830.317L1338.73 813.38H1345.54V874.945H1336.17ZM1315.58 874.945V867.008H1359.24V874.945H1315.58Z" fill="#1A73E8"/>
<path d="M1362.36 850.453V842.602H1419.83V850.453H1362.36Z" fill="#1A73E8"/>
<path d="M1428.62 874.945V868.241C1436.75 862.184 1443.29 856.906 1448.24 852.406C1453.19 847.906 1456.78 843.908 1459.02 840.411C1461.27 836.914 1462.38 833.721 1462.38 830.838C1462.38 827.664 1461.4 825.104 1459.42 823.164C1457.44 821.225 1454.69 820.255 1451.16 820.255C1447.45 820.255 1444.38 821.389 1441.97 823.653C1439.55 825.916 1438.26 829.109 1438.08 833.226H1428.63C1428.92 828.819 1430.05 825.038 1432.03 821.891C1434.01 818.744 1436.66 816.362 1439.98 814.745C1443.31 813.129 1447.1 812.317 1451.34 812.317C1455.59 812.317 1459.27 813.07 1462.39 814.567C1465.51 816.065 1467.92 818.183 1469.59 820.914C1471.27 823.653 1472.11 826.813 1472.11 830.396C1472.11 834.275 1471.12 838.082 1469.15 841.817C1467.17 845.551 1464.02 849.464 1459.69 853.548C1455.36 857.638 1449.63 862.118 1442.5 867.001H1472.29V874.938H1428.63L1428.62 874.945Z" fill="#1A73E8"/>
<path d="M1508.78 876C1503.77 876 1499.5 874.694 1495.97 872.075C1492.43 869.462 1489.72 865.754 1487.84 860.964C1485.95 856.174 1485.01 850.572 1485.01 844.159C1485.01 837.746 1485.94 831.986 1487.84 827.222C1489.72 822.458 1492.43 818.783 1495.97 816.197C1499.5 813.611 1503.78 812.317 1508.78 812.317C1513.78 812.317 1518.13 813.611 1521.64 816.197C1525.14 818.783 1527.84 822.445 1529.72 827.176C1531.61 831.913 1532.55 837.568 1532.55 844.152C1532.55 850.737 1531.61 856.24 1529.72 860.997C1527.84 865.76 1525.14 869.449 1521.64 872.068C1518.13 874.687 1513.84 875.994 1508.78 875.994V876ZM1508.78 868.063C1513.43 868.063 1516.94 865.958 1519.3 861.755C1521.65 857.553 1522.84 851.687 1522.84 844.159C1522.84 836.631 1521.66 830.62 1519.3 826.476C1516.94 822.333 1513.43 820.255 1508.78 820.255C1504.13 820.255 1500.71 822.326 1498.35 826.476C1495.99 830.62 1494.82 836.518 1494.82 844.159C1494.82 851.799 1495.99 857.553 1498.35 861.755C1500.71 865.958 1504.18 868.063 1508.78 868.063Z" fill="#1A73E8"/>
<path d="M1566.75 876C1562.69 876 1558.95 875.175 1555.53 873.532C1552.11 871.89 1549.39 869.508 1547.35 866.387C1545.31 863.273 1544.3 859.453 1544.3 854.92H1553.67C1553.73 857.506 1554.32 859.789 1555.43 861.755C1556.55 863.728 1558.1 865.239 1560.08 866.301C1562.05 867.357 1564.27 867.885 1566.75 867.885C1570.52 867.885 1573.55 866.915 1575.85 864.975C1578.15 863.035 1579.29 860.535 1579.29 857.48C1579.29 855.072 1578.63 853.086 1577.3 851.528C1575.98 849.971 1574.21 848.81 1572 848.045C1569.79 847.279 1567.34 846.897 1564.62 846.897H1561.35V839.131H1564.89C1567.3 839.131 1569.38 838.676 1571.12 837.765C1572.86 836.855 1574.2 835.634 1575.14 834.103C1576.08 832.573 1576.55 830.93 1576.55 829.162C1576.55 826.456 1575.63 824.299 1573.77 822.676C1571.91 821.059 1569.51 820.248 1566.57 820.248C1562.97 820.248 1560.06 821.29 1557.82 823.382C1555.57 825.467 1554.37 828.482 1554.19 832.421H1544.82C1545 828.014 1546.11 824.306 1548.14 821.31C1550.17 818.308 1552.8 816.058 1556.05 814.56C1559.29 813.063 1562.83 812.311 1566.65 812.311C1570.48 812.311 1574.03 812.97 1576.95 814.297C1579.86 815.623 1582.14 817.47 1583.8 819.852C1585.44 822.234 1586.27 825.044 1586.27 828.277C1586.27 830.455 1585.8 832.513 1584.85 834.453C1583.91 836.393 1582.63 838.056 1581.01 839.434C1579.39 840.82 1577.52 841.803 1575.4 842.39C1578.05 842.806 1580.39 843.697 1582.43 845.082C1584.46 846.468 1586.06 848.229 1587.25 850.374C1588.42 852.518 1589.01 854.92 1589.01 857.565C1589.01 861.155 1588.1 864.342 1586.28 867.132C1584.45 869.93 1581.87 872.101 1578.54 873.658C1575.21 875.215 1571.28 875.993 1566.74 875.993L1566.75 876Z" fill="#1A73E8"/>
<path d="M1623.01 875.915C1618.89 875.915 1615.29 875.176 1612.23 873.711C1609.16 872.24 1606.74 870.155 1604.94 867.45C1603.14 864.745 1602.16 861.597 1601.98 858.015H1611.35C1611.64 861.017 1612.82 863.425 1614.88 865.246C1616.95 867.074 1619.68 867.984 1623.1 867.984C1625.75 867.984 1628.05 867.397 1630 866.222C1631.94 865.048 1633.44 863.372 1634.5 861.195C1635.56 859.018 1636.1 856.491 1636.1 853.607C1636.1 849.846 1634.98 846.805 1632.74 844.476C1630.5 842.153 1627.56 840.992 1623.9 840.992C1621.37 840.992 1618.98 841.625 1616.74 842.886C1614.5 844.152 1612.7 845.782 1611.35 847.781H1602.69L1607.91 813.38H1642.73V821.317H1615.5L1612.67 839.131C1614.38 837.251 1616.44 835.753 1618.86 834.632C1621.28 833.517 1623.75 832.956 1626.29 832.956C1630.11 832.956 1633.51 833.827 1636.45 835.555C1639.4 837.291 1641.69 839.672 1643.34 842.701C1644.99 845.729 1645.82 849.305 1645.82 853.416C1645.82 858.001 1644.87 861.987 1642.99 865.365C1641.1 868.749 1638.45 871.349 1635.03 873.17C1631.62 874.991 1627.61 875.908 1623.01 875.908V875.915Z" fill="#1A73E8"/>
<path d="M1538.44 574.997L1516.98 510.206H1318.23L1296.73 575.011H1544.77V574.997H1538.44Z" fill="#1A73E8"/>
<path d="M1430.05 247.636L1429.51 246H1405.86L1326.71 484.996H1391.64L1449.33 310.805H1430.05V247.636Z" fill="#1A73E8"/>
<path d="M1573.57 484.996H1573.58L1494.44 246H1470.79L1470.24 247.636V310.805H1450.97L1459.32 336.002H1524.23L1573.57 484.996Z" fill="#1A73E8"/>
<path d="M1430.05 246H1429.51L1430.05 247.636V246Z" fill="#1A73E8"/>
<path d="M1470.79 246H1470.24V247.636L1470.79 246Z" fill="#1A73E8"/>
<path d="M1459.32 336.002H1459.3L1486.64 418.568C1486.64 418.568 1486.65 418.568 1486.66 418.568L1459.32 336.002V336.002Z" fill="#1A73E8"/>
<path d="M1544.77 574.997H1603.37L1573.56 484.995H1508.65L1496.05 446.945C1496.05 446.945 1496.04 446.952 1496.03 446.959L1516.98 510.206H1544.77V574.997V574.997Z" fill="#1A73E8"/>
<path d="M1544.77 574.997V510.206H1516.99L1538.44 574.997H1544.77Z" fill="#1A73E8"/>
<path d="M1502.12 434.462C1502.12 439.523 1499.75 444.036 1496.05 446.945L1508.65 484.995H1573.57L1524.23 335.995H1459.32L1486.66 418.561C1495.24 418.812 1502.12 425.832 1502.12 434.456V434.462Z" fill="#1A73E8"/>
<path d="M1449.33 310.804H1450.97L1450.15 308.323L1449.33 310.804Z" fill="#1A73E8"/>
<path d="M1430.05 247.637V310.805H1449.33L1450.15 308.324L1430.05 247.637Z" fill="#1A73E8"/>
<path d="M1470.24 247.637L1450.15 308.324L1450.97 310.805H1470.24V247.637Z" fill="#1A73E8"/>
<path d="M1450.15 308.324L1470.24 247.636V246H1430.05V247.636L1450.15 308.324Z" fill="#1A73E8"/>
<path d="M1470.24 434.462C1470.24 427.976 1474.13 422.408 1479.7 419.927C1474.34 409.291 1463.31 401.987 1450.56 401.987C1432.55 401.987 1417.96 416.555 1417.96 434.528C1417.96 452.501 1432.55 467.069 1450.56 467.069C1463.36 467.069 1474.42 459.712 1479.76 449.017C1474.16 446.549 1470.24 440.961 1470.24 434.456V434.462Z" fill="#1A73E8"/>
<path d="M1253 707.041V599.601H1282.19V679.415H1325.69V707.047H1253V707.041Z" fill="#1A73E8"/>
<path d="M1529.23 599.601V707.041H1504.95L1466.08 650.648H1465.36V707.041H1436.17V599.601H1461.03L1499.18 655.848H1500.05V599.601H1529.23H1529.23Z" fill="#1A73E8"/>
<path d="M1565.21 707.041H1536.02L1571.6 599.601H1600.79L1565.21 707.041Z" fill="#1A73E8"/>
<path d="M1617.81 707.041H1647L1611.43 599.601H1582.23L1617.81 707.041Z" fill="#1A73E8"/>
<path d="M1600.54 628.73V599.601H1582.47V628.73H1600.54Z" fill="#1A73E8"/>
<path d="M1395.91 599.607V661.977C1395.91 671.518 1388.13 679.277 1378.57 679.277C1369.01 679.277 1361.24 671.518 1361.24 661.977V599.607H1332.11V661.977C1332.11 687.584 1352.91 708.341 1378.57 708.341C1404.22 708.341 1425.02 687.584 1425.02 661.977V599.607H1395.89H1395.91Z" fill="#1A73E8"/>
</g>
<defs>
<clipPath id="clip0_3303_15804">
<rect width="571" height="490" fill="white" transform="translate(162 240)"/>
</clipPath>
<clipPath id="clip1_3303_15804">
<rect width="394" height="462" fill="white" transform="translate(763 246)"/>
</clipPath>
<clipPath id="clip2_3303_15804">
<rect width="394" height="630" fill="white" transform="translate(1253 246)"/>
</clipPath>
</defs>
</svg>
