<svg xmlns="http://www.w3.org/2000/svg" width="1920" height="1080" fill="none"><g clip-path="url(#a)"><path fill="#1A73E8" d="M918.141 482v-52H243v52h675.141ZM243 409.771V218h51.93v142.456h77.376v49.315H243ZM731.671 218v191.771h-43.185l-69.15-100.647h-1.285v100.647h-51.93V218h44.216l67.865 100.394h1.544V218h51.93-.005ZM795.681 409.771h-51.93L807.043 218h51.924l-63.286 191.771Z"/><path fill="#1A73E8" d="M889.252 409.771h51.93L877.89 218h-51.93l63.292 191.771Z"/><path fill="#1A73E8" d="M913.07 481.99H965l-63.292-191.771h-51.93L913.07 481.99ZM858.539 270v-52h-32.14v52h32.14ZM495.792 218.006v111.321c0 17.026-13.831 30.875-30.835 30.875-17.003 0-30.834-13.849-30.834-30.875V218.006H382.31v111.321c0 45.705 37.004 82.759 82.647 82.759 45.644 0 82.648-37.054 82.648-82.759V218.006h-51.813ZM842.8 395.392c14.401 0 26.076-11.69 26.076-26.111 0-14.421-11.675-26.111-26.076-26.111-14.402 0-26.076 11.69-26.076 26.111 0 14.421 11.674 26.111 26.076 26.111Z"/><path fill="#F3F7FE" d="M871.281 381.988c7.04 0 12.748-5.715 12.748-12.765 0-7.049-5.708-12.764-12.748-12.764-7.04 0-12.747 5.715-12.747 12.764 0 7.05 5.707 12.765 12.747 12.765Z"/></g><g clip-path="url(#b)"><path fill="#1A73E8" d="M643.222 661v-30.727H243V661h400.222ZM243 618.319V505h30.784v84.179h45.869v29.14H243ZM532.682 505v113.319h-25.6l-40.992-59.473h-.761v59.473h-30.784V505h26.211l40.23 59.324h.915V505h30.784-.003ZM570.628 618.319h-30.784L577.363 505h30.781l-37.516 113.319Z"/><path fill="#1A73E8" d="M626.096 618.319h30.784L619.361 505h-30.784l37.519 113.319Z"/><path fill="#1A73E8" d="M640.216 660.993H671l-37.519-113.319h-30.784l37.519 113.319ZM607.891 535.727V505h-19.053v30.727h19.053ZM392.854 505.004v65.78c0 10.061-8.199 18.245-18.279 18.245-10.079 0-18.278-8.184-18.278-18.245v-65.78h-30.715v65.78c0 27.008 21.936 48.903 48.993 48.903 27.058 0 48.994-21.895 48.994-48.903v-65.78h-30.715ZM598.559 609.823c8.537 0 15.458-6.908 15.458-15.429s-6.921-15.429-15.458-15.429c-8.537 0-15.457 6.908-15.457 15.429s6.92 15.429 15.457 15.429Z"/><path fill="#F3F7FE" d="M615.443 601.901c4.174 0 7.557-3.376 7.557-7.542s-3.383-7.543-7.557-7.543c-4.173 0-7.556 3.377-7.556 7.543s3.383 7.542 7.556 7.542Z"/></g><g clip-path="url(#c)"><path fill="#1A73E8" d="M480.515 776v-18.121H243V776h237.515ZM243 750.829V684h18.269v49.644h27.221v17.185H243ZM414.914 684v66.829h-15.192l-24.327-35.074h-.452v35.074h-18.269V684h15.555l23.875 34.986h.543V684h18.269-.002ZM437.433 750.829h-18.269L441.43 684h18.267l-22.264 66.829Z"/><path fill="#1A73E8" d="M470.352 750.829h18.269L466.355 684h-18.269l22.266 66.829Z"/><path fill="#1A73E8" d="M478.731 775.995H497l-22.266-66.829h-18.269l22.266 66.829ZM459.547 702.121V684H448.24v18.121h11.307ZM331.932 684.002v38.794c0 5.933-4.866 10.759-10.848 10.759-5.981 0-10.847-4.826-10.847-10.759v-38.794h-18.228v38.794c0 15.927 13.018 28.84 29.075 28.84 16.058 0 29.076-12.913 29.076-28.84v-38.794h-18.228ZM454.009 745.818c5.067 0 9.174-4.074 9.174-9.1 0-5.025-4.107-9.099-9.174-9.099-5.066 0-9.173 4.074-9.173 9.099 0 5.026 4.107 9.1 9.173 9.1Z"/><path fill="#F3F7FE" d="M464.029 741.146c2.477 0 4.485-1.991 4.485-4.448 0-2.456-2.008-4.448-4.485-4.448-2.476 0-4.484 1.992-4.484 4.448 0 2.457 2.008 4.448 4.484 4.448Z"/></g><g clip-path="url(#d)"><path fill="#1A73E8" d="M403.837 860.999v-12.212H243v12.212h160.837ZM243 844.037V799h12.371v33.456h18.433v11.581H243ZM359.415 799v45.037h-10.288L332.654 820.4h-.306v23.637h-12.371V799h10.533l16.167 23.577h.368V799h12.371-.001ZM374.664 844.037h-12.371L377.371 799h12.37l-15.077 45.037Z"/><path fill="#1A73E8" d="M396.955 844.037h12.371L394.248 799h-12.371l15.078 45.037Z"/><path fill="#1A73E8" d="M402.629 860.998H415l-15.078-45.037h-12.371l15.078 45.037ZM389.638 811.212V799h-7.657v12.212h7.657ZM303.222 799.002v26.143c0 3.999-3.295 7.252-7.346 7.252-4.05 0-7.345-3.253-7.345-7.252v-26.143h-12.343v26.143c0 10.734 8.815 19.436 19.688 19.436 10.874 0 19.689-8.702 19.689-19.436v-26.143h-12.343ZM385.889 840.661c3.431 0 6.212-2.746 6.212-6.132 0-3.387-2.781-6.133-6.212-6.133-3.431 0-6.212 2.746-6.212 6.133 0 3.386 2.781 6.132 6.212 6.132Z"/><path fill="#F3F7FE" d="M392.673 837.513c1.678 0 3.037-1.342 3.037-2.998 0-1.655-1.359-2.997-3.037-2.997-1.677 0-3.036 1.342-3.036 2.997 0 1.656 1.359 2.998 3.036 2.998Z"/></g><g fill="#1A73E8" clip-path="url(#e)"><path d="M1624.91 481.989 1607.7 430h-159.46L1431 482h198.99v-.011h-5.08ZM1537.96 219.313l-.44-1.313h-18.98l-63.49 191.771h52.1L1553.42 270h-15.46v-50.687ZM1653.09 409.771h.02L1589.61 218h-18.97l-.44 1.313V270h-15.46l6.69 20.218h52.08l39.58 119.553Z"/><path d="M1537.96 218h-.44l.44 1.313V218ZM1570.64 218h-.44v1.313l.44-1.313ZM1561.43 290.219h-.01l21.93 66.251h.02l-21.94-66.251ZM1629.99 481.99H1677l-23.91-72.218h-52.08l-10.11-30.532s0 .006-.01.011l16.81 50.75h22.29v51.989Z"/><path d="M1629.99 481.989V430h-22.29l17.21 51.989h5.08ZM1595.77 369.223c0 4.061-1.9 7.682-4.87 10.017l10.11 30.532h52.08l-39.58-119.559h-52.08l21.94 66.251c6.88.202 12.4 5.835 12.4 12.754v.005ZM1553.42 270h1.32l-.66-1.99-.66 1.99ZM1537.96 219.312v50.687h15.46l.66-1.991-16.12-48.696ZM1570.2 219.312l-16.12 48.696.66 1.991h15.46v-50.687Z"/><path d="m1554.08 268.009 16.12-48.696V218h-32.24v1.313l16.12 48.696ZM1570.2 369.224c0-5.204 3.12-9.672 7.59-11.663-4.3-8.534-13.15-14.395-23.38-14.395-14.44 0-26.15 11.69-26.15 26.111 0 14.421 11.71 26.111 26.15 26.111 10.27 0 19.15-5.903 23.43-14.485-4.5-1.98-7.64-6.464-7.64-11.684v.005Z"/></g><g fill="#1A73E8" clip-path="url(#f)"><path d="m1560.29 660.994-10.14-30.721h-93.99L1446 661h117.29v-.006h-3ZM1509.04 505.776l-.25-.776h-11.19l-37.42 113.319h30.7l27.28-82.592h-9.12v-29.951ZM1576.91 618.319h.01L1539.49 505h-11.18l-.26.776v29.951h-9.12l3.95 11.947h30.7l23.33 70.645Z"/><path d="M1509.04 505h-.25l.25.776V505ZM1528.31 505h-.26v.776l.26-.776ZM1522.88 547.674h-.01l12.93 39.148h.01l-12.93-39.148ZM1563.29 660.993H1591l-14.09-42.674h-30.7l-5.96-18.042v.007l9.9 29.988h13.14v30.721Z"/><path d="M1563.29 660.994v-30.721h-13.14l10.14 30.721h3ZM1543.12 594.36a7.52 7.52 0 0 1-2.87 5.919l5.96 18.041h30.7l-23.33-70.648h-30.7l12.93 39.148a7.536 7.536 0 0 1 7.31 7.537v.003ZM1518.16 535.727h.77l-.38-1.176-.39 1.176ZM1509.04 505.775v29.952h9.12l.39-1.177-9.51-28.775ZM1528.05 505.775l-9.5 28.775.38 1.177h9.12v-29.952Z"/><path d="m1518.55 534.551 9.5-28.775V505h-19.01v.776l9.51 28.775ZM1528.05 594.359a7.549 7.549 0 0 1 4.47-6.892c-2.53-5.043-7.75-8.506-13.78-8.506-8.51 0-15.41 6.907-15.41 15.429s6.9 15.429 15.41 15.429c6.05 0 11.29-3.488 13.81-8.559a7.544 7.544 0 0 1-4.5-6.904v.003Z"/></g><g fill="#1A73E8" clip-path="url(#g)"><path d="m1514.79 775.996-6.02-18.117h-55.74L1447 776h69.57v-.004h-1.78ZM1484.39 684.458l-.15-.458h-6.64l-22.19 66.829h18.21l16.18-48.708h-5.41v-17.663ZM1524.64 750.829h.01L1502.45 684h-6.63l-.16.458v17.663h-5.4l2.34 7.046h18.2l13.84 41.662Z"/><path d="M1484.39 684h-.15l.15.458V684ZM1495.82 684h-.16v.458l.16-.458ZM1492.6 709.166h-.01l7.67 23.088h.01l-7.67-23.088ZM1516.57 775.996H1533l-8.36-25.167h-18.2l-3.54-10.64v.004l5.87 17.686h7.8v18.117Z"/><path d="M1516.57 775.996v-18.117h-7.8l6.02 18.117h1.78ZM1504.6 736.698c0 1.415-.66 2.677-1.7 3.491l3.54 10.639h18.2l-13.84-41.664h-18.2l7.67 23.088c2.4.07 4.33 2.033 4.33 4.444v.002ZM1489.8 702.121h.46l-.23-.693-.23.693Z"/><path d="M1484.39 684.457v17.664h5.41l.23-.694-5.64-16.97Z"/><path d="m1495.66 684.457-5.63 16.97.23.694h5.4v-17.664Z"/><path d="m1490.03 701.427 5.63-16.969V684h-11.27v.458l5.64 16.969ZM1495.66 736.7a4.44 4.44 0 0 1 2.66-4.064 9.16 9.16 0 0 0-8.18-5.017c-5.05 0-9.14 4.074-9.14 9.099 0 5.026 4.09 9.1 9.14 9.1a9.14 9.14 0 0 0 8.19-5.048 4.452 4.452 0 0 1-2.67-4.072v.002Z"/></g><g fill="#1A73E8" clip-path="url(#h)"><path d="m1490.93 860.997-3.99-12.21H1450l-4 12.212h46.11v-.002h-1.18ZM1470.78 799.308l-.1-.308h-4.4l-14.71 45.037h12.07l10.73-32.825h-3.59v-11.904ZM1497.46 844.037 1482.75 799h-4.39l-.11.308v11.904h-3.58l1.55 4.748h12.07l9.17 28.077Z"/><path d="M1470.78 799h-.1l.1.308V799ZM1478.35 799h-.1v.308l.1-.308ZM1476.22 815.961l5.08 15.559-5.08-15.559ZM1492.11 860.998H1503l-5.54-16.961h-12.07l-2.34-7.17v.003l3.89 11.918h5.17v12.21Z"/><path d="M1492.11 860.997v-12.21h-5.17l3.99 12.21h1.18ZM1484.18 834.514c0 .954-.44 1.805-1.13 2.353l2.34 7.17h12.07l-9.17-28.078h-12.07l5.08 15.559c1.6.047 2.88 1.37 2.88 2.995v.001ZM1474.37 811.212h.3l-.15-.468-.15.468Z"/><path d="M1470.78 799.309v11.903h3.59l.15-.467-3.74-11.436ZM1478.25 799.309l-3.73 11.436.15.467h3.58v-11.903ZM1474.52 810.745l3.73-11.437V799h-7.47v.308l3.74 11.437ZM1478.25 834.514c0-1.222.73-2.271 1.76-2.739-.99-2.004-3.04-3.38-5.41-3.38-3.35 0-6.06 2.745-6.06 6.132 0 3.386 2.71 6.132 6.06 6.132 2.37 0 4.43-1.387 5.42-3.402a3.003 3.003 0 0 1-1.77-2.744v.001Z"/></g><defs><clipPath id="a"><path fill="#fff" d="M243 218h722v264H243z"/></clipPath><clipPath id="b"><path fill="#fff" d="M243 505h428v156H243z"/></clipPath><clipPath id="c"><path fill="#fff" d="M243 684h254v92H243z"/></clipPath><clipPath id="d"><path fill="#fff" d="M243 799h172v62H243z"/></clipPath><clipPath id="e"><path fill="#fff" d="M1431 218h246v264h-246z"/></clipPath><clipPath id="f"><path fill="#fff" d="M1446 505h145v156h-145z"/></clipPath><clipPath id="g"><path fill="#fff" d="M1447 684h86v92h-86z"/></clipPath><clipPath id="h"><path fill="#fff" d="M1446 799h57v62h-57z"/></clipPath></defs></svg>