<svg width="1920" height="1080" viewBox="0 0 1920 1080" fill="none" xmlns="http://www.w3.org/2000/svg">
<g clip-path="url(#clip0_3303_15908)">
<path d="M918.141 482V430L243 430V482L918.141 482Z" fill="#1A73E8"/>
<path d="M243 409.771V218H294.93V360.456H372.306V409.771H243Z" fill="#1A73E8"/>
<path d="M731.671 218V409.771H688.486L619.336 309.124H618.051V409.771H566.121V218H610.337L678.202 318.394H679.746V218H731.676H731.671Z" fill="#1A73E8"/>
<path d="M795.681 409.771H743.751L807.043 218H858.967L795.681 409.771Z" fill="#1A73E8"/>
<path d="M889.252 409.771H941.182L877.89 218H825.96L889.252 409.771Z" fill="#1A73E8"/>
<path d="M913.07 481.99H965L901.708 290.219H849.778L913.07 481.99Z" fill="#1A73E8"/>
<path d="M858.539 270V218H826.399V270H858.539Z" fill="#1A73E8"/>
<path d="M495.792 218.006V329.327C495.792 346.353 481.961 360.202 464.957 360.202C447.954 360.202 434.123 346.353 434.123 329.327V218.006H382.31V329.327C382.31 375.032 419.314 412.086 464.957 412.086C510.601 412.086 547.605 375.032 547.605 329.327V218.006H495.792Z" fill="#1A73E8"/>
<path d="M842.8 395.392C857.201 395.392 868.876 383.702 868.876 369.281C868.876 354.86 857.201 343.17 842.8 343.17C828.398 343.17 816.724 354.86 816.724 369.281C816.724 383.702 828.398 395.392 842.8 395.392Z" fill="#1A73E8"/>
<path d="M871.281 381.988C878.321 381.988 884.029 376.273 884.029 369.223C884.029 362.174 878.321 356.459 871.281 356.459C864.241 356.459 858.534 362.174 858.534 369.223C858.534 376.273 864.241 381.988 871.281 381.988Z" fill="#F3F7FE"/>
</g>
<g clip-path="url(#clip1_3303_15908)">
<path d="M643.222 661V630.273H243V661H643.222Z" fill="#1A73E8"/>
<path d="M243 618.319V505H273.784V589.179H319.653V618.319H243Z" fill="#1A73E8"/>
<path d="M532.682 505V618.319H507.082L466.09 558.846H465.329V618.319H434.545V505H460.756L500.986 564.324H501.901V505H532.685H532.682Z" fill="#1A73E8"/>
<path d="M570.628 618.319H539.844L577.363 505H608.144L570.628 618.319Z" fill="#1A73E8"/>
<path d="M626.096 618.319H656.88L619.361 505H588.577L626.096 618.319Z" fill="#1A73E8"/>
<path d="M640.216 660.993H671L633.481 547.674H602.697L640.216 660.993Z" fill="#1A73E8"/>
<path d="M607.891 535.727V505H588.838V535.727H607.891Z" fill="#1A73E8"/>
<path d="M392.854 505.004V570.784C392.854 580.845 384.655 589.029 374.575 589.029C364.496 589.029 356.297 580.845 356.297 570.784V505.004H325.582V570.784C325.582 597.792 347.518 619.687 374.575 619.687C401.633 619.687 423.569 597.792 423.569 570.784V505.004H392.854Z" fill="#1A73E8"/>
<path d="M598.559 609.823C607.096 609.823 614.017 602.915 614.017 594.394C614.017 585.873 607.096 578.965 598.559 578.965C590.022 578.965 583.102 585.873 583.102 594.394C583.102 602.915 590.022 609.823 598.559 609.823Z" fill="#1A73E8"/>
<path d="M615.443 601.901C619.617 601.901 623 598.525 623 594.359C623 590.193 619.617 586.816 615.443 586.816C611.27 586.816 607.887 590.193 607.887 594.359C607.887 598.525 611.27 601.901 615.443 601.901Z" fill="#F3F7FE"/>
</g>
<g clip-path="url(#clip2_3303_15908)">
<path d="M480.515 776V757.879H243V776H480.515Z" fill="#1A73E8"/>
<path d="M243 750.829V684H261.269V733.644H288.49V750.829H243Z" fill="#1A73E8"/>
<path d="M414.914 684V750.829H399.722L375.395 715.755H374.943V750.829H356.674V684H372.229L396.104 718.986H396.647V684H414.916H414.914Z" fill="#1A73E8"/>
<path d="M437.433 750.829H419.164L441.43 684H459.697L437.433 750.829Z" fill="#1A73E8"/>
<path d="M470.352 750.829H488.621L466.355 684H448.086L470.352 750.829Z" fill="#1A73E8"/>
<path d="M478.731 775.995H497L474.734 709.166H456.465L478.731 775.995Z" fill="#1A73E8"/>
<path d="M459.547 702.121V684H448.24V702.121H459.547Z" fill="#1A73E8"/>
<path d="M331.932 684.002V722.796C331.932 728.729 327.066 733.555 321.084 733.555C315.103 733.555 310.237 728.729 310.237 722.796V684.002H292.009V722.796C292.009 738.723 305.027 751.636 321.084 751.636C337.142 751.636 350.16 738.723 350.16 722.796V684.002H331.932Z" fill="#1A73E8"/>
<path d="M454.009 745.818C459.076 745.818 463.183 741.744 463.183 736.718C463.183 731.693 459.076 727.619 454.009 727.619C448.943 727.619 444.836 731.693 444.836 736.718C444.836 741.744 448.943 745.818 454.009 745.818Z" fill="#1A73E8"/>
<path d="M464.029 741.146C466.506 741.146 468.514 739.155 468.514 736.698C468.514 734.242 466.506 732.25 464.029 732.25C461.553 732.25 459.545 734.242 459.545 736.698C459.545 739.155 461.553 741.146 464.029 741.146Z" fill="#F3F7FE"/>
</g>
<g clip-path="url(#clip3_3303_15908)">
<path d="M403.837 860.999V848.787H243V860.999H403.837Z" fill="#1A73E8"/>
<path d="M243 844.037V799H255.371V832.456H273.804V844.037H243Z" fill="#1A73E8"/>
<path d="M359.415 799V844.037H349.127L332.654 820.4H332.348V844.037H319.977V799H330.51L346.677 822.577H347.045V799H359.416H359.415Z" fill="#1A73E8"/>
<path d="M374.664 844.037H362.293L377.371 799H389.741L374.664 844.037Z" fill="#1A73E8"/>
<path d="M396.955 844.037H409.326L394.248 799H381.877L396.955 844.037Z" fill="#1A73E8"/>
<path d="M402.629 860.998H415L399.922 815.961H387.551L402.629 860.998Z" fill="#1A73E8"/>
<path d="M389.638 811.212V799H381.981V811.212H389.638Z" fill="#1A73E8"/>
<path d="M303.222 799.002V825.145C303.222 829.144 299.927 832.397 295.876 832.397C291.826 832.397 288.531 829.144 288.531 825.145V799.002H276.188V825.145C276.188 835.879 285.003 844.581 295.876 844.581C306.75 844.581 315.565 835.879 315.565 825.145V799.002H303.222Z" fill="#1A73E8"/>
<path d="M385.889 840.661C389.32 840.661 392.101 837.915 392.101 834.529C392.101 831.142 389.32 828.396 385.889 828.396C382.458 828.396 379.677 831.142 379.677 834.529C379.677 837.915 382.458 840.661 385.889 840.661Z" fill="#1A73E8"/>
<path d="M392.673 837.513C394.351 837.513 395.71 836.171 395.71 834.515C395.71 832.86 394.351 831.518 392.673 831.518C390.996 831.518 389.637 832.86 389.637 834.515C389.637 836.171 390.996 837.513 392.673 837.513Z" fill="#F3F7FE"/>
</g>
<g clip-path="url(#clip4_3303_15908)">
<path d="M1624.91 481.989L1607.7 430H1448.24L1431 482H1629.99V481.989H1624.91Z" fill="#1A73E8"/>
<path d="M1537.96 219.313L1537.52 218H1518.54L1455.05 409.771H1507.15L1553.42 270H1537.96V219.313Z" fill="#1A73E8"/>
<path d="M1653.09 409.771H1653.11L1589.61 218H1570.64L1570.2 219.313V270H1554.74L1561.43 290.218H1613.51L1653.09 409.771Z" fill="#1A73E8"/>
<path d="M1537.96 218H1537.52L1537.96 219.313V218Z" fill="#1A73E8"/>
<path d="M1570.64 218H1570.2V219.313L1570.64 218Z" fill="#1A73E8"/>
<path d="M1561.43 290.219H1561.42L1583.35 356.47C1583.35 356.47 1583.36 356.47 1583.37 356.47L1561.43 290.219V290.219Z" fill="#1A73E8"/>
<path d="M1629.99 481.99H1677L1653.09 409.772H1601.01L1590.9 379.24C1590.9 379.24 1590.9 379.246 1590.89 379.251L1607.7 430.001H1629.99V481.99V481.99Z" fill="#1A73E8"/>
<path d="M1629.99 481.989V430H1607.7L1624.91 481.989H1629.99Z" fill="#1A73E8"/>
<path d="M1595.77 369.223C1595.77 373.284 1593.87 376.905 1590.9 379.24L1601.01 409.772H1653.09L1613.51 290.213H1561.43L1583.37 356.464C1590.25 356.666 1595.77 362.299 1595.77 369.218V369.223Z" fill="#1A73E8"/>
<path d="M1553.42 270H1554.74L1554.08 268.01L1553.42 270Z" fill="#1A73E8"/>
<path d="M1537.96 219.312V269.999H1553.42L1554.08 268.008L1537.96 219.312Z" fill="#1A73E8"/>
<path d="M1570.2 219.312L1554.08 268.008L1554.74 269.999H1570.2V219.312Z" fill="#1A73E8"/>
<path d="M1554.08 268.009L1570.2 219.313V218H1537.96V219.313L1554.08 268.009Z" fill="#1A73E8"/>
<path d="M1570.2 369.224C1570.2 364.02 1573.32 359.552 1577.79 357.561C1573.49 349.027 1564.64 343.166 1554.41 343.166C1539.97 343.166 1528.26 354.856 1528.26 369.277C1528.26 383.698 1539.97 395.388 1554.41 395.388C1564.68 395.388 1573.56 389.485 1577.84 380.903C1573.34 378.923 1570.2 374.439 1570.2 369.219V369.224Z" fill="#1A73E8"/>
</g>
<g clip-path="url(#clip5_3303_15908)">
<path d="M1560.29 660.994L1550.15 630.273H1456.16L1446 661H1563.29V660.994H1560.29Z" fill="#1A73E8"/>
<path d="M1509.04 505.776L1508.79 505H1497.6L1460.18 618.319H1490.88L1518.16 535.727H1509.04V505.776Z" fill="#1A73E8"/>
<path d="M1576.91 618.319H1576.92L1539.49 505H1528.31L1528.05 505.776V535.727H1518.93L1522.88 547.674H1553.58L1576.91 618.319Z" fill="#1A73E8"/>
<path d="M1509.04 505H1508.79L1509.04 505.776V505Z" fill="#1A73E8"/>
<path d="M1528.31 505H1528.05V505.776L1528.31 505Z" fill="#1A73E8"/>
<path d="M1522.88 547.674H1522.87L1535.8 586.822C1535.8 586.822 1535.81 586.822 1535.81 586.822L1522.88 547.674V547.674Z" fill="#1A73E8"/>
<path d="M1563.29 660.993H1591L1576.91 618.319H1546.21L1540.25 600.277C1540.25 600.277 1540.25 600.28 1540.25 600.284L1550.15 630.272H1563.29V660.993V660.993Z" fill="#1A73E8"/>
<path d="M1563.29 660.994V630.273H1550.15L1560.29 660.994H1563.29Z" fill="#1A73E8"/>
<path d="M1543.12 594.36C1543.12 596.759 1542 598.899 1540.25 600.279L1546.21 618.32H1576.91L1553.58 547.672H1522.88L1535.81 586.82C1539.87 586.939 1543.12 590.268 1543.12 594.357V594.36Z" fill="#1A73E8"/>
<path d="M1518.16 535.727H1518.93L1518.55 534.551L1518.16 535.727Z" fill="#1A73E8"/>
<path d="M1509.04 505.775V535.727H1518.16L1518.55 534.55L1509.04 505.775Z" fill="#1A73E8"/>
<path d="M1528.05 505.775L1518.55 534.55L1518.93 535.727H1528.05V505.775Z" fill="#1A73E8"/>
<path d="M1518.55 534.551L1528.05 505.776V505H1509.04V505.776L1518.55 534.551Z" fill="#1A73E8"/>
<path d="M1528.05 594.359C1528.05 591.284 1529.89 588.643 1532.52 587.467C1529.99 582.424 1524.77 578.961 1518.74 578.961C1510.23 578.961 1503.33 585.868 1503.33 594.39C1503.33 602.912 1510.23 609.819 1518.74 609.819C1524.79 609.819 1530.03 606.331 1532.55 601.26C1529.9 600.09 1528.05 597.44 1528.05 594.356V594.359Z" fill="#1A73E8"/>
</g>
<g clip-path="url(#clip6_3303_15908)">
<path d="M1514.79 775.996L1508.77 757.879H1453.03L1447 776H1516.57V775.996H1514.79Z" fill="#1A73E8"/>
<path d="M1484.39 684.458L1484.24 684H1477.6L1455.41 750.829H1473.62L1489.8 702.121H1484.39V684.458Z" fill="#1A73E8"/>
<path d="M1524.64 750.829H1524.65L1502.45 684H1495.82L1495.66 684.458V702.121H1490.26L1492.6 709.167H1510.8L1524.64 750.829Z" fill="#1A73E8"/>
<path d="M1484.39 684H1484.24L1484.39 684.458V684Z" fill="#1A73E8"/>
<path d="M1495.82 684H1495.66V684.458L1495.82 684Z" fill="#1A73E8"/>
<path d="M1492.6 709.166H1492.59L1500.26 732.254C1500.26 732.254 1500.26 732.254 1500.27 732.254L1492.6 709.166V709.166Z" fill="#1A73E8"/>
<path d="M1516.57 775.996H1533L1524.64 750.829H1506.44L1502.9 740.189C1502.9 740.189 1502.9 740.191 1502.9 740.193L1508.77 757.879H1516.57V775.996V775.996Z" fill="#1A73E8"/>
<path d="M1516.57 775.996V757.879H1508.77L1514.79 775.996H1516.57Z" fill="#1A73E8"/>
<path d="M1504.6 736.698C1504.6 738.113 1503.94 739.375 1502.9 740.189L1506.44 750.828H1524.64L1510.8 709.164H1492.6L1500.27 732.252C1502.67 732.322 1504.6 734.285 1504.6 736.696V736.698Z" fill="#1A73E8"/>
<path d="M1489.8 702.121H1490.26L1490.03 701.428L1489.8 702.121Z" fill="#1A73E8"/>
<path d="M1484.39 684.457V702.121H1489.8L1490.03 701.427L1484.39 684.457Z" fill="#1A73E8"/>
<path d="M1495.66 684.457L1490.03 701.427L1490.26 702.121H1495.66V684.457Z" fill="#1A73E8"/>
<path d="M1490.03 701.427L1495.66 684.458V684H1484.39V684.458L1490.03 701.427Z" fill="#1A73E8"/>
<path d="M1495.66 736.7C1495.66 734.886 1496.75 733.329 1498.32 732.636C1496.81 729.661 1493.72 727.619 1490.14 727.619C1485.09 727.619 1481 731.693 1481 736.718C1481 741.744 1485.09 745.818 1490.14 745.818C1493.73 745.818 1496.84 743.761 1498.33 740.77C1496.76 740.08 1495.66 738.517 1495.66 736.698V736.7Z" fill="#1A73E8"/>
</g>
<g clip-path="url(#clip7_3303_15908)">
<path d="M1490.93 860.997L1486.94 848.787H1450L1446 860.999H1492.11V860.997H1490.93Z" fill="#1A73E8"/>
<path d="M1470.78 799.308L1470.68 799H1466.28L1451.57 844.037H1463.64L1474.37 811.212H1470.78V799.308Z" fill="#1A73E8"/>
<path d="M1497.46 844.037H1497.46L1482.75 799H1478.36L1478.25 799.308V811.212H1474.67L1476.22 815.96H1488.29L1497.46 844.037Z" fill="#1A73E8"/>
<path d="M1470.78 799H1470.68L1470.78 799.308V799Z" fill="#1A73E8"/>
<path d="M1478.35 799H1478.25V799.308L1478.35 799Z" fill="#1A73E8"/>
<path d="M1476.22 815.961H1476.22L1481.3 831.52C1481.3 831.52 1481.3 831.52 1481.3 831.52L1476.22 815.961V815.961Z" fill="#1A73E8"/>
<path d="M1492.11 860.998H1503L1497.46 844.037H1485.39L1483.05 836.867C1483.05 836.867 1483.05 836.868 1483.05 836.87L1486.94 848.788H1492.11V860.998V860.998Z" fill="#1A73E8"/>
<path d="M1492.11 860.997V848.787H1486.94L1490.93 860.997H1492.11Z" fill="#1A73E8"/>
<path d="M1484.18 834.514C1484.18 835.468 1483.74 836.319 1483.05 836.867L1485.39 844.037H1497.46L1488.29 815.959H1476.22L1481.3 831.518C1482.9 831.565 1484.18 832.888 1484.18 834.513V834.514Z" fill="#1A73E8"/>
<path d="M1474.37 811.212H1474.67L1474.52 810.744L1474.37 811.212Z" fill="#1A73E8"/>
<path d="M1470.78 799.309V811.212H1474.37L1474.52 810.745L1470.78 799.309Z" fill="#1A73E8"/>
<path d="M1478.25 799.309L1474.52 810.745L1474.67 811.212H1478.25V799.309Z" fill="#1A73E8"/>
<path d="M1474.52 810.745L1478.25 799.308V799H1470.78V799.308L1474.52 810.745Z" fill="#1A73E8"/>
<path d="M1478.25 834.514C1478.25 833.292 1478.98 832.243 1480.01 831.775C1479.02 829.771 1476.97 828.395 1474.6 828.395C1471.25 828.395 1468.54 831.14 1468.54 834.527C1468.54 837.913 1471.25 840.659 1474.6 840.659C1476.97 840.659 1479.03 839.272 1480.02 837.257C1478.98 836.792 1478.25 835.739 1478.25 834.513V834.514Z" fill="#1A73E8"/>
</g>
<defs>
<clipPath id="clip0_3303_15908">
<rect width="722" height="264" fill="white" transform="translate(243 218)"/>
</clipPath>
<clipPath id="clip1_3303_15908">
<rect width="428" height="156" fill="white" transform="translate(243 505)"/>
</clipPath>
<clipPath id="clip2_3303_15908">
<rect width="254" height="92" fill="white" transform="translate(243 684)"/>
</clipPath>
<clipPath id="clip3_3303_15908">
<rect width="172" height="62" fill="white" transform="translate(243 799)"/>
</clipPath>
<clipPath id="clip4_3303_15908">
<rect width="246" height="264" fill="white" transform="translate(1431 218)"/>
</clipPath>
<clipPath id="clip5_3303_15908">
<rect width="145" height="156" fill="white" transform="translate(1446 505)"/>
</clipPath>
<clipPath id="clip6_3303_15908">
<rect width="86" height="92" fill="white" transform="translate(1447 684)"/>
</clipPath>
<clipPath id="clip7_3303_15908">
<rect width="57" height="62" fill="white" transform="translate(1446 799)"/>
</clipPath>
</defs>
</svg>
