<svg xmlns="http://www.w3.org/2000/svg" width="1920" height="1080" fill="none"><g clip-path="url(#a)"><path fill="#D2E3FC" d="M567.5 862C746.716 862 892 717.836 892 540S746.716 218 567.5 218 243 362.164 243 540s145.284 322 324.5 322Z"/><path fill="#1A73E8" d="m389.481 714.95 24.96-74.813H677.48v74.813H389.481ZM499.69 611.036h-75.391l91.884-275.915h75.391L499.69 611.036Z"/><path fill="#1A73E8" d="M635.539 611.036h75.398l-91.891-275.915h-75.391l91.884 275.915Z"/><path fill="#1A73E8" d="M670.121 714.938h75.392l-91.885-275.915h-75.391l91.884 275.915ZM590.949 409.941v-74.814h-46.663v74.814h46.663ZM568.101 590.347c20.911 0 37.863-16.82 37.863-37.568 0-20.748-16.952-37.568-37.863-37.568-20.911 0-37.863 16.82-37.863 37.568 0 20.748 16.952 37.568 37.863 37.568Z"/><path fill="#D2E3FC" d="M609.454 571.066c10.219 0 18.504-8.223 18.504-18.366 0-10.143-8.285-18.366-18.504-18.366-10.22 0-18.505 8.223-18.505 18.366 0 10.143 8.285 18.366 18.505 18.366Z"/></g><g clip-path="url(#b)"><path fill="#D2E3FC" d="M1677 218h-644v644h644V218Z"/><path fill="#1A73E8" d="m1177.99 714.95 24.98-74.813h263.28v74.813h-288.26ZM1288.29 611.036h-75.45l91.97-275.915h75.46l-91.98 275.915Z"/><path fill="#1A73E8" d="M1424.27 611.036h75.46l-91.97-275.915h-75.46l91.97 275.915Z"/><path fill="#1A73E8" d="M1458.88 714.938h75.46l-91.97-275.915h-75.46l91.97 275.915ZM1379.63 409.935v-74.814h-46.7v74.814h46.7ZM1356.77 590.347c20.92 0 37.89-16.82 37.89-37.568 0-20.748-16.97-37.568-37.89-37.568-20.93 0-37.9 16.82-37.9 37.568 0 20.748 16.97 37.568 37.9 37.568Z"/><path fill="#D2E3FC" d="M1398.16 571.066c10.22 0 18.52-8.223 18.52-18.366 0-10.143-8.3-18.366-18.52-18.366-10.23 0-18.53 8.223-18.53 18.366 0 10.143 8.3 18.366 18.53 18.366Z"/></g><defs><clipPath id="a"><path fill="#fff" d="M243 218h649v644H243z"/></clipPath><clipPath id="b"><path fill="#fff" d="M1033 218h644v644h-644z"/></clipPath></defs></svg>