<svg width="1920" height="1080" fill="none" xmlns="http://www.w3.org/2000/svg"><g clip-path="url(#a)"><path d="M452.601 372.128c-19.659 0-38.154-2.845-55.485-8.536l22.505-31.816a173.157 173.157 0 0 0 22.892 5.432 143.756 143.756 0 0 0 23.668 1.94c4.656 0 9.312-.129 13.968-.388 4.914-.517 9.7-1.293 14.356-2.328l-17.46 5.044c-.776.517-.259 0 1.552-1.552 1.81-1.811 2.715-3.751 2.715-5.82 0-3.363-2.845-6.337-8.535-8.924-5.432-2.587-12.287-5.303-20.564-8.148-8.278-3.104-16.684-6.725-25.22-10.864-8.278-4.397-15.132-9.7-20.564-15.908-5.432-6.467-8.148-14.485-8.148-24.056 0-14.227 6.854-25.349 20.564-33.368 13.709-8.277 32.074-12.416 55.096-12.416 8.794 0 17.46.517 25.996 1.552 8.536 1.035 16.684 2.716 24.444 5.044l-15.132 34.144c-7.76-2.587-16.167-4.527-25.221-5.82-8.794-1.552-18.106-2.328-27.935-2.328-3.363 0-6.984.129-10.864.388-3.622.259-7.631.517-12.028.776l20.952-5.044c-2.846 2.069-4.786 3.751-5.82 5.044-.776 1.293-1.164 2.457-1.164 3.492 0 3.104 2.716 5.949 8.148 8.536 5.69 2.587 12.674 5.432 20.952 8.536 8.277 2.845 16.554 6.467 24.832 10.864 8.277 4.139 15.132 9.441 20.564 15.908 5.69 6.208 8.536 13.968 8.536 23.28 0 14.485-7.243 25.996-21.728 34.532-14.486 8.536-33.11 12.804-55.872 12.804Zm-9.312-7.372-46.173-1.164.777-48.5h22.116l23.28 49.664Zm57.812-89.24-22.892-49.664 46.172 1.164-.776 48.5h-22.504Zm151.444 91.568c-6.984 0-13.839-2.069-20.564-6.208-6.467-4.397-10.735-11.252-12.804-20.564l3.88-62.468c-5.691-2.845-12.416-5.173-20.176-6.984-7.76-1.811-16.426-2.716-25.996-2.716-2.328 0-4.527.129-6.596.388-2.07 0-4.268.129-6.596.388l29.488-13.968-6.596 40.352c-11.64 0-20.694-1.423-27.16-4.268-6.467-3.104-9.7-7.889-9.7-14.356s2.845-12.287 8.536-17.46c5.949-5.432 13.58-9.7 22.892-12.804 9.57-3.363 19.788-5.044 30.652-5.044 23.28 0 41.774 7.76 55.484 23.28v68.288l19.4-3.492c1.034 10.864-1.94 19.917-8.924 27.16-6.726 6.984-15.132 10.476-25.22 10.476Zm-51.216.776c-16.296-.259-29.1-3.492-38.412-9.7-9.312-6.467-13.968-15.132-13.968-25.996 0-5.691 1.94-10.605 5.82-14.744 3.88-4.139 11.51-8.407 22.892-12.804 11.64-4.656 28.712-10.476 51.216-17.46v22.504l-44.232 3.104 14.744-6.208c-.776 2.587-1.294 5.044-1.552 7.372a46.993 46.993 0 0 0-.388 5.82c0 5.432 1.034 9.312 3.104 11.64 2.069 2.328 5.432 3.492 10.088 3.492 2.845 0 5.561-.259 8.148-.776a75.055 75.055 0 0 0 8.148-1.94v1.94c-3.622 6.467-7.502 12.416-11.64 17.848-4.139 5.173-8.795 10.476-13.968 15.908Zm78.746 39.188 2.716-32.98 57.036 3.492c6.208-6.725 10.734-13.063 13.58-19.012a114.884 114.884 0 0 0 6.984-18.624l27.936-93.508h34.92l-35.308 102.432c-6.984 21.211-16.814 37.248-29.488 48.112-12.675 10.605-27.548 15.908-44.62 15.908a88.94 88.94 0 0 1-16.684-1.552c-5.432-1.035-11.123-2.457-17.072-4.268Zm49.276-42.68-42.292-117.952h55.484l30.652 109.804-43.844 8.148Zm-2.328-86.136c-7.76-1.293-15.391-3.363-22.892-6.208a139.736 139.736 0 0 1-21.728-10.476V243.7h75.272v17.848l-30.652 16.684Zm80.704 0c-7.243-1.552-14.486-3.621-21.728-6.208a111.189 111.189 0 0 1-19.788-10.476V243.7h60.528v17.848l-19.012 16.684Zm76.211 86.524v-15.908a63.648 63.648 0 0 0 4.268-3.88c1.552-1.552 3.363-2.975 5.432-4.268l3.104-57.424-15.908-24.832c9.312-5.173 18.883-9.312 28.712-12.416 10.088-3.104 20.176-5.044 30.264-5.82l4.656 38.412v63.244l9.7 5.044v17.848h-70.228Zm77.6 0v-15.908c1.552-1.811 2.975-3.233 4.268-4.268 1.294-1.035 3.104-2.328 5.432-3.88l2.716-53.932 47.726-22.504v77.6l10.47 5.044v17.848h-70.612Zm-19.788-79.152-1.164-5.044c3.622-7.243 7.502-14.097 11.64-20.564a165.084 165.084 0 0 1 14.356-18.236c1.811-.517 3.751-.776 5.82-.776h5.432c18.883 0 33.496 7.76 43.846 23.28l-47.726 22.504c-2.328-1.035-5.044-1.811-8.148-2.328-3.104-.776-6.078-1.164-8.924-1.164-2.328 0-4.785.129-7.372.388-2.586.259-5.173.905-7.76 1.94Zm167.94 82.256c-20.44 0-36.22-5.303-47.34-15.908-10.86-10.864-16.29-26.384-16.29-46.56 0-20.435 5.82-36.343 17.46-47.724 11.64-11.64 28.06-17.46 49.27-17.46 20.95 0 37.12 5.303 48.5 15.908 11.38 10.347 17.07 25.22 17.07 44.62 0 21.728-6.08 38.412-18.23 50.052-11.9 11.381-28.71 17.072-50.44 17.072Zm2.71-28.712c5.44 0 9.19-2.328 11.26-6.984 2.32-4.656 3.49-13.839 3.49-27.548 0-12.675-1.3-21.34-3.88-25.996-2.33-4.915-6.73-7.372-13.19-7.372-3.63 0-8.15.647-13.58 1.94-5.18 1.293-12.81 3.233-22.9 5.82l30.27-19.4a140.906 140.906 0 0 0-5.43 20.564c-1.3 6.725-1.94 14.873-1.94 24.444 0 13.451 1.29 22.633 3.88 27.548 2.58 4.656 6.59 6.984 12.02 6.984Zm193.89-126.876v32.592h33.76l-2.33 25.608h-31.43v61.304l34.15-1.164c-2.59 12.157-8.41 21.34-17.46 27.548-9.05 6.208-18.75 9.312-29.1 9.312-7.76 0-15.13-1.552-22.12-4.656-6.98-3.363-12.54-8.536-16.68-15.52l3.49-76.824h-19.4v-8.536c8.54-10.088 18.5-19.529 29.88-28.324 11.64-8.795 24.05-15.908 37.24-21.34Zm106.9 155.588c-20.43 0-36.21-5.303-47.33-15.908-10.87-10.864-16.3-26.384-16.3-46.56 0-20.435 5.82-36.343 17.46-47.724 11.64-11.64 28.06-17.46 49.28-17.46 20.95 0 37.11 5.303 48.5 15.908 11.38 10.347 17.07 25.22 17.07 44.62 0 21.728-6.08 38.412-18.24 50.052-11.9 11.381-28.71 17.072-50.44 17.072Zm2.72-28.712c5.43 0 9.18-2.328 11.25-6.984 2.33-4.656 3.49-13.839 3.49-27.548 0-12.675-1.29-21.34-3.88-25.996-2.33-4.915-6.72-7.372-13.19-7.372-3.62 0-8.15.647-13.58 1.94-5.17 1.293-12.8 3.233-22.89 5.82l30.26-19.4a140.906 140.906 0 0 0-5.43 20.564c-1.29 6.725-1.94 14.873-1.94 24.444 0 13.451 1.29 22.633 3.88 27.548 2.59 4.656 6.6 6.984 12.03 6.984ZM536.506 520.034v72.324h74.907l-5.166 56.826h-69.741v136.038l75.768-2.583c-5.74 26.978-18.655 47.355-38.745 61.131-20.09 13.776-41.615 20.664-64.575 20.664-17.22 0-33.579-3.444-49.077-10.332-15.498-7.462-27.839-18.942-37.023-34.44l7.749-170.478h-43.05v-18.942c18.942-22.386 41.041-43.337 66.297-62.853 25.83-19.516 53.382-35.301 82.656-47.355Zm416.959 129.15v-19.803c6.888-9.184 14.637-16.933 23.247-23.247 9.184-6.314 16.646-10.906 22.386-13.776 4.592-25.256 15.212-48.503 31.862-69.741 16.64-21.238 37.31-38.171 61.99-50.799s49.94-18.942 75.77-18.942h10.33v92.988c-9.19-1.148-18.94-2.009-29.28-2.583-9.75-1.148-20.37-1.722-31.85-1.722h-23.25c0 8.036.57 16.359 1.72 24.969 1.15 8.036 2.87 16.646 5.17 25.83h73.18l-5.16 56.826H953.465Zm152.395-31.857v190.281l47.36 11.193v39.606H960.353v-35.301c5.166-3.444 9.184-6.027 12.054-7.749l20.664-10.332 5.166-187.698h107.623Zm382.86 171.339 43.05-7.749c.58 26.404-6.31 46.781-20.66 61.131-14.35 14.35-31.57 21.525-51.66 21.525-18.37 0-36.16-6.888-53.38-20.664-17.22-14.35-26.69-35.588-28.41-63.714l4.3-101.598-34.44-55.104c44.77-25.256 91.84-38.745 141.2-40.467v206.64Zm-158.42 74.046-13.78 1.722h-12.91c-43.05 0-75.77-18.655-98.15-55.965l88.68-56.826c17.79 12.628 36.45 18.942 55.96 18.942 5.74 0 11.48-.287 17.22-.861a188.691 188.691 0 0 0 17.22-4.305l3.45 11.193c-8.04 16.072-16.94 31.283-26.69 45.633a302.864 302.864 0 0 1-31 40.467Zm-124.84-54.243 6.02-130.872-35.3-55.104c24.11-12.054 47.93-21.525 71.46-28.413 23.54-7.462 47.07-11.48 70.61-12.054v220.416l-112.79 6.027Z" fill="#3C4043"/><path stroke="#3C4043" stroke-width="20" d="M670 471h232v382H670z"/></g><defs><clipPath id="a"><path fill="#fff" d="M0 0h1920v1080H0z"/></clipPath></defs></svg>