<svg width="1920" height="1080" viewBox="0 0 1920 1080" fill="none" xmlns="http://www.w3.org/2000/svg">
<path d="M1775.2 431.2L1736.8 395.6C1728.4 398 1702 399.6 1688.8 399.6H1481.2C1463.6 399.6 1446.8 397.6 1430.4 395.2V462C1451.2 460 1463.6 458.8 1481.2 458.8H1678.8C1670 475.6 1642.4 506 1612.8 524.8L1662.8 564.8C1698.8 538.8 1736.8 488.8 1757.2 455.2C1761.2 448.8 1770.4 437.2 1775.2 431.2ZM1610.4 485.6H1540C1542.4 500 1543.2 511.6 1543.2 525.6C1543.2 590.8 1533.2 624.8 1488.8 658.4C1472 671.2 1457.2 678 1443.2 682.8L1499.6 728.8C1612.4 666 1610.4 579.6 1610.4 485.6Z" fill="#FF6D7F"/>
<path d="M349.2 525.2V586.4H328V525.2H349.2ZM399.6 634.8V476.8H279.2V656.8H328V634.8H399.6ZM190.8 428.8H212C206.8 454.4 199.6 485.6 193.6 508C213.2 534 216.8 559.2 216.8 576.8C216.8 588 214.8 595.6 210.8 598.8C208 600.8 204.4 601.6 200.8 601.6C198 602 194.4 601.6 190.8 601.6V428.8ZM504.4 384H272V395.2L236 375.2L228 377.2H140.4V740.4H190.8V610C196 623.2 198.8 639.6 198.8 650.8C208.4 650.8 217.6 650.8 224.4 649.6C233.6 648 241.6 645.2 248.4 640C262 629.6 267.6 612 267.6 583.6C267.6 560.8 263.6 532.8 242 502C251.6 473.6 262.8 436.4 272 403.6V437.6H423.2V678.4C423.2 686.4 420 688.8 410.8 688.8C401.6 689.2 368 689.2 341.2 688C348 702 356 724.8 358 739.6C400.8 740 431.2 739.2 451.2 731.2C471.2 723.6 478 710 478 679.2V437.6H504.4V384Z" fill="#1A73E8"/>
<path d="M995.2 525.2V586.4H974V525.2H995.2ZM1045.6 634.8V476.8H925.2V656.8H974V634.8H1045.6Z" fill="#D2E3FC"/>
<path d="M874 377.2L882 375.2L909.5 390.478L918 395.2V403.6C908.8 436.4 897.6 473.6 888 502C909.6 532.8 913.6 560.8 913.6 583.6C913.6 612 908 629.6 894.4 640C887.6 645.2 879.6 648 870.4 649.6C863.601 650.8 854.4 650.8 844.8 650.8C844.8 639.6 842 623.2 836.8 610V740.4H786.4V377.2H874Z" fill="#D2E3FC"/>
<path d="M858 428.8H836.8V601.6C840.4 601.6 844 602 846.8 601.6C850.4 601.6 854 600.8 856.8 598.8C860.8 595.6 862.8 588 862.8 576.8C862.8 559.2 859.2 534 839.6 508C845.6 485.6 852.8 454.4 858 428.8Z" fill="#D2E3FC"/>
<path d="M919 384H1150.4V437.6H1124V679.2C1124 710 1117.2 723.6 1097.2 731.2C1077.2 739.2 1046.8 740 1004 739.6C1002 724.8 994 702 987.2 688C1014 689.2 1047.6 689.2 1056.8 688.8C1066 688.8 1069.2 686.4 1069.2 678.4V437.6H919V408.5V384Z" fill="#1A73E8"/>
<path d="M246.62 272V232H257.479V248.172H258.026L270.057 232H282.713L269.198 249.812L283.026 272H270.057L261.073 257L257.479 261.688V272H246.62ZM294.452 272.469C292.538 272.469 290.845 272.156 289.374 271.531C287.915 270.893 286.769 269.93 285.936 268.641C285.103 267.352 284.686 265.711 284.686 263.719C284.686 262.078 284.966 260.678 285.526 259.52C286.086 258.348 286.867 257.391 287.87 256.648C288.872 255.906 290.038 255.34 291.366 254.949C292.707 254.559 294.152 254.305 295.702 254.187C297.381 254.057 298.729 253.901 299.745 253.719C300.773 253.523 301.515 253.257 301.971 252.918C302.427 252.566 302.655 252.104 302.655 251.531V251.453C302.655 250.672 302.355 250.073 301.756 249.656C301.157 249.24 300.389 249.031 299.452 249.031C298.423 249.031 297.583 249.259 296.932 249.715C296.294 250.158 295.91 250.841 295.78 251.766H285.858C285.988 249.943 286.568 248.263 287.596 246.727C288.638 245.177 290.155 243.94 292.147 243.016C294.139 242.078 296.626 241.609 299.608 241.609C301.756 241.609 303.683 241.863 305.389 242.371C307.095 242.866 308.547 243.562 309.745 244.461C310.943 245.346 311.854 246.388 312.479 247.586C313.117 248.771 313.436 250.06 313.436 251.453V272H303.358V267.781H303.124C302.525 268.901 301.795 269.806 300.936 270.496C300.09 271.186 299.12 271.687 298.026 272C296.945 272.313 295.754 272.469 294.452 272.469ZM297.967 265.672C298.788 265.672 299.556 265.503 300.272 265.164C301.001 264.826 301.594 264.337 302.049 263.699C302.505 263.061 302.733 262.286 302.733 261.375V258.875C302.446 258.992 302.14 259.103 301.815 259.207C301.502 259.311 301.164 259.409 300.799 259.5C300.448 259.591 300.07 259.676 299.667 259.754C299.276 259.832 298.866 259.904 298.436 259.969C297.603 260.099 296.919 260.314 296.385 260.613C295.864 260.9 295.474 261.258 295.213 261.688C294.966 262.104 294.842 262.573 294.842 263.094C294.842 263.927 295.135 264.565 295.721 265.008C296.307 265.451 297.056 265.672 297.967 265.672ZM329.369 255.125V272H318.587V242H328.822V247.703H329.134C329.785 245.802 330.931 244.311 332.572 243.23C334.225 242.15 336.153 241.609 338.353 241.609C340.475 241.609 342.318 242.098 343.88 243.074C345.456 244.038 346.673 245.366 347.533 247.059C348.405 248.751 348.835 250.685 348.822 252.859V272H338.041V255.125C338.054 253.641 337.676 252.475 336.908 251.629C336.153 250.783 335.098 250.359 333.744 250.359C332.858 250.359 332.083 250.555 331.419 250.945C330.768 251.323 330.267 251.87 329.916 252.586C329.564 253.289 329.382 254.135 329.369 255.125ZM354.144 242H364.925V273.016C364.925 275.646 364.372 277.703 363.265 279.188C362.171 280.672 360.635 281.72 358.656 282.332C356.677 282.944 354.365 283.25 351.722 283.25C351.332 283.25 350.973 283.243 350.648 283.23C350.309 283.217 349.938 283.198 349.535 283.172V275.203C349.795 275.229 350.023 275.249 350.218 275.262C350.401 275.275 350.589 275.281 350.785 275.281C352.074 275.281 352.953 275.079 353.421 274.676C353.903 274.285 354.144 273.654 354.144 272.781V242ZM359.535 238.875C358.076 238.875 356.826 238.393 355.785 237.43C354.743 236.466 354.222 235.307 354.222 233.953C354.222 232.599 354.743 231.44 355.785 230.477C356.826 229.513 358.076 229.031 359.535 229.031C361.006 229.031 362.256 229.513 363.285 230.477C364.326 231.44 364.847 232.599 364.847 233.953C364.847 235.307 364.326 236.466 363.285 237.43C362.256 238.393 361.006 238.875 359.535 238.875ZM370.418 272V242H381.2V272H370.418ZM375.809 238.875C374.351 238.875 373.101 238.393 372.059 237.43C371.017 236.466 370.497 235.307 370.497 233.953C370.497 232.599 371.017 231.44 372.059 230.477C373.101 229.513 374.351 229.031 375.809 229.031C377.28 229.031 378.53 229.513 379.559 230.477C380.601 231.44 381.122 232.599 381.122 233.953C381.122 235.307 380.601 236.466 379.559 237.43C378.53 238.393 377.28 238.875 375.809 238.875Z" fill="#1A73E8"/>
<path d="M1459.83 272V232H1470.69V248.172H1471.24L1483.27 232H1495.92L1482.41 249.812L1496.24 272H1483.27L1474.28 257L1470.69 261.688V272H1459.83ZM1507.66 272.469C1505.75 272.469 1504.05 272.156 1502.58 271.531C1501.12 270.893 1499.98 269.93 1499.15 268.641C1498.31 267.352 1497.9 265.711 1497.9 263.719C1497.9 262.078 1498.18 260.678 1498.74 259.52C1499.3 258.348 1500.08 257.391 1501.08 256.648C1502.08 255.906 1503.25 255.34 1504.58 254.949C1505.92 254.559 1507.36 254.305 1508.91 254.187C1510.59 254.057 1511.94 253.901 1512.95 253.719C1513.98 253.523 1514.72 253.257 1515.18 252.918C1515.64 252.566 1515.86 252.104 1515.86 251.531V251.453C1515.86 250.672 1515.56 250.073 1514.97 249.656C1514.37 249.24 1513.6 249.031 1512.66 249.031C1511.63 249.031 1510.79 249.259 1510.14 249.715C1509.5 250.158 1509.12 250.841 1508.99 251.766H1499.07C1499.2 249.943 1499.78 248.263 1500.81 246.727C1501.85 245.177 1503.36 243.94 1505.36 243.016C1507.35 242.078 1509.84 241.609 1512.82 241.609C1514.97 241.609 1516.89 241.863 1518.6 242.371C1520.3 242.866 1521.76 243.562 1522.95 244.461C1524.15 245.346 1525.06 246.388 1525.69 247.586C1526.33 248.771 1526.65 250.06 1526.65 251.453V272H1516.57V267.781H1516.33C1515.73 268.901 1515 269.806 1514.15 270.496C1513.3 271.186 1512.33 271.687 1511.24 272C1510.15 272.313 1508.96 272.469 1507.66 272.469ZM1511.18 265.672C1512 265.672 1512.77 265.503 1513.48 265.164C1514.21 264.826 1514.8 264.337 1515.26 263.699C1515.71 263.061 1515.94 262.286 1515.94 261.375V258.875C1515.66 258.992 1515.35 259.103 1515.02 259.207C1514.71 259.311 1514.37 259.409 1514.01 259.5C1513.66 259.591 1513.28 259.676 1512.88 259.754C1512.49 259.832 1512.08 259.904 1511.65 259.969C1510.81 260.099 1510.13 260.314 1509.59 260.613C1509.07 260.9 1508.68 261.258 1508.42 261.688C1508.18 262.104 1508.05 262.573 1508.05 263.094C1508.05 263.927 1508.34 264.565 1508.93 265.008C1509.52 265.451 1510.27 265.672 1511.18 265.672ZM1549.69 242V249.812H1529.92V242H1549.69ZM1533.75 234.812H1544.53V262.352C1544.53 262.768 1544.6 263.12 1544.75 263.406C1544.89 263.68 1545.11 263.888 1545.41 264.031C1545.71 264.161 1546.09 264.227 1546.56 264.227C1546.89 264.227 1547.27 264.187 1547.7 264.109C1548.14 264.031 1548.46 263.966 1548.67 263.914L1550.23 271.492C1549.75 271.635 1549.06 271.811 1548.16 272.02C1547.28 272.228 1546.22 272.365 1545 272.43C1542.53 272.56 1540.45 272.306 1538.77 271.668C1537.09 271.017 1535.83 269.995 1534.98 268.602C1534.13 267.208 1533.72 265.464 1533.75 263.367V234.812ZM1562.45 272.469C1560.53 272.469 1558.84 272.156 1557.37 271.531C1555.91 270.893 1554.76 269.93 1553.93 268.641C1553.1 267.352 1552.68 265.711 1552.68 263.719C1552.68 262.078 1552.96 260.678 1553.52 259.52C1554.08 258.348 1554.86 257.391 1555.86 256.648C1556.87 255.906 1558.03 255.34 1559.36 254.949C1560.7 254.559 1562.15 254.305 1563.7 254.187C1565.38 254.057 1566.72 253.901 1567.74 253.719C1568.77 253.523 1569.51 253.257 1569.97 252.918C1570.42 252.566 1570.65 252.104 1570.65 251.531V251.453C1570.65 250.672 1570.35 250.073 1569.75 249.656C1569.15 249.24 1568.38 249.031 1567.45 249.031C1566.42 249.031 1565.58 249.259 1564.93 249.715C1564.29 250.158 1563.9 250.841 1563.77 251.766H1553.85C1553.98 249.943 1554.56 248.263 1555.59 246.727C1556.63 245.177 1558.15 243.94 1560.14 243.016C1562.13 242.078 1564.62 241.609 1567.6 241.609C1569.75 241.609 1571.68 241.863 1573.38 242.371C1575.09 242.866 1576.54 243.562 1577.74 244.461C1578.94 245.346 1579.85 246.388 1580.47 247.586C1581.11 248.771 1581.43 250.06 1581.43 251.453V272H1571.35V267.781H1571.12C1570.52 268.901 1569.79 269.806 1568.93 270.496C1568.08 271.186 1567.11 271.687 1566.02 272C1564.94 272.313 1563.75 272.469 1562.45 272.469ZM1565.96 265.672C1566.78 265.672 1567.55 265.503 1568.27 265.164C1569 264.826 1569.59 264.337 1570.04 263.699C1570.5 263.061 1570.73 262.286 1570.73 261.375V258.875C1570.44 258.992 1570.14 259.103 1569.81 259.207C1569.5 259.311 1569.16 259.409 1568.79 259.5C1568.44 259.591 1568.06 259.676 1567.66 259.754C1567.27 259.832 1566.86 259.904 1566.43 259.969C1565.6 260.099 1564.91 260.314 1564.38 260.613C1563.86 260.9 1563.47 261.258 1563.21 261.688C1562.96 262.104 1562.84 262.573 1562.84 263.094C1562.84 263.927 1563.13 264.565 1563.72 265.008C1564.3 265.451 1565.05 265.672 1565.96 265.672ZM1596.27 264.891L1596.35 252.078H1597.75L1605.02 242H1617.13L1604.94 257.703H1601.89L1596.27 264.891ZM1586.58 272V232H1597.36V272H1586.58ZM1605.1 272L1598.22 260.125L1605.25 252.469L1617.44 272H1605.1ZM1628.3 272.469C1626.38 272.469 1624.69 272.156 1623.22 271.531C1621.76 270.893 1620.61 269.93 1619.78 268.641C1618.95 267.352 1618.53 265.711 1618.53 263.719C1618.53 262.078 1618.81 260.678 1619.37 259.52C1619.93 258.348 1620.71 257.391 1621.71 256.648C1622.72 255.906 1623.88 255.34 1625.21 254.949C1626.55 254.559 1628 254.305 1629.55 254.187C1631.23 254.057 1632.57 253.901 1633.59 253.719C1634.62 253.523 1635.36 253.257 1635.82 252.918C1636.27 252.566 1636.5 252.104 1636.5 251.531V251.453C1636.5 250.672 1636.2 250.073 1635.6 249.656C1635 249.24 1634.23 249.031 1633.3 249.031C1632.27 249.031 1631.43 249.259 1630.78 249.715C1630.14 250.158 1629.75 250.841 1629.62 251.766H1619.7C1619.83 249.943 1620.41 248.263 1621.44 246.727C1622.48 245.177 1624 243.94 1625.99 243.016C1627.98 242.078 1630.47 241.609 1633.45 241.609C1635.6 241.609 1637.53 241.863 1639.23 242.371C1640.94 242.866 1642.39 243.562 1643.59 244.461C1644.79 245.346 1645.7 246.388 1646.32 247.586C1646.96 248.771 1647.28 250.06 1647.28 251.453V272H1637.2V267.781H1636.97C1636.37 268.901 1635.64 269.806 1634.78 270.496C1633.93 271.186 1632.96 271.687 1631.87 272C1630.79 272.313 1629.6 272.469 1628.3 272.469ZM1631.81 265.672C1632.63 265.672 1633.4 265.503 1634.12 265.164C1634.85 264.826 1635.44 264.337 1635.89 263.699C1636.35 263.061 1636.58 262.286 1636.58 261.375V258.875C1636.29 258.992 1635.98 259.103 1635.66 259.207C1635.35 259.311 1635.01 259.409 1634.64 259.5C1634.29 259.591 1633.91 259.676 1633.51 259.754C1633.12 259.832 1632.71 259.904 1632.28 259.969C1631.45 260.099 1630.76 260.314 1630.23 260.613C1629.71 260.9 1629.32 261.258 1629.06 261.688C1628.81 262.104 1628.69 262.573 1628.69 263.094C1628.69 263.927 1628.98 264.565 1629.57 265.008C1630.15 265.451 1630.9 265.672 1631.81 265.672ZM1663.21 255.125V272H1652.43V242H1662.67V247.703H1662.98C1663.63 245.802 1664.78 244.311 1666.42 243.23C1668.07 242.15 1670 241.609 1672.2 241.609C1674.32 241.609 1676.16 242.098 1677.72 243.074C1679.3 244.038 1680.52 245.366 1681.38 247.059C1682.25 248.751 1682.68 250.685 1682.67 252.859V272H1671.88V255.125C1671.9 253.641 1671.52 252.475 1670.75 251.629C1670 250.783 1668.94 250.359 1667.59 250.359C1666.7 250.359 1665.93 250.555 1665.26 250.945C1664.61 251.323 1664.11 251.87 1663.76 252.586C1663.41 253.289 1663.23 254.135 1663.21 255.125ZM1696.35 272.469C1694.43 272.469 1692.74 272.156 1691.27 271.531C1689.81 270.893 1688.67 269.93 1687.83 268.641C1687 267.352 1686.58 265.711 1686.58 263.719C1686.58 262.078 1686.86 260.678 1687.42 259.52C1687.98 258.348 1688.76 257.391 1689.77 256.648C1690.77 255.906 1691.93 255.34 1693.26 254.949C1694.6 254.559 1696.05 254.305 1697.6 254.187C1699.28 254.057 1700.63 253.901 1701.64 253.719C1702.67 253.523 1703.41 253.257 1703.87 252.918C1704.32 252.566 1704.55 252.104 1704.55 251.531V251.453C1704.55 250.672 1704.25 250.073 1703.65 249.656C1703.05 249.24 1702.29 249.031 1701.35 249.031C1700.32 249.031 1699.48 249.259 1698.83 249.715C1698.19 250.158 1697.81 250.841 1697.68 251.766H1687.75C1687.88 249.943 1688.46 248.263 1689.49 246.727C1690.53 245.177 1692.05 243.94 1694.04 243.016C1696.04 242.078 1698.52 241.609 1701.5 241.609C1703.65 241.609 1705.58 241.863 1707.29 242.371C1708.99 242.866 1710.44 243.562 1711.64 244.461C1712.84 245.346 1713.75 246.388 1714.38 247.586C1715.01 248.771 1715.33 250.06 1715.33 251.453V272H1705.25V267.781H1705.02C1704.42 268.901 1703.69 269.806 1702.83 270.496C1701.99 271.186 1701.02 271.687 1699.92 272C1698.84 272.313 1697.65 272.469 1696.35 272.469ZM1699.86 265.672C1700.68 265.672 1701.45 265.503 1702.17 265.164C1702.9 264.826 1703.49 264.337 1703.95 263.699C1704.4 263.061 1704.63 262.286 1704.63 261.375V258.875C1704.34 258.992 1704.04 259.103 1703.71 259.207C1703.4 259.311 1703.06 259.409 1702.7 259.5C1702.34 259.591 1701.97 259.676 1701.56 259.754C1701.17 259.832 1700.76 259.904 1700.33 259.969C1699.5 260.099 1698.82 260.314 1698.28 260.613C1697.76 260.9 1697.37 261.258 1697.11 261.688C1696.86 262.104 1696.74 262.573 1696.74 263.094C1696.74 263.927 1697.03 264.565 1697.62 265.008C1698.2 265.451 1698.95 265.672 1699.86 265.672Z" fill="#FF6D7F"/>
<path d="M717.536 543.536C719.488 541.583 719.488 538.417 717.536 536.464L685.716 504.645C683.763 502.692 680.597 502.692 678.645 504.645C676.692 506.597 676.692 509.763 678.645 511.716L706.929 540L678.645 568.284C676.692 570.237 676.692 573.403 678.645 575.355C680.597 577.308 683.763 577.308 685.716 575.355L717.536 543.536ZM560 545H714V535H560V545Z" fill="#D2E3FC"/>
<path d="M1391.54 543.536C1393.49 541.583 1393.49 538.417 1391.54 536.464L1359.72 504.645C1357.76 502.692 1354.6 502.692 1352.64 504.645C1350.69 506.597 1350.69 509.763 1352.64 511.716L1380.93 540L1352.64 568.284C1350.69 570.237 1350.69 573.403 1352.64 575.355C1354.6 577.308 1357.76 577.308 1359.72 575.355L1391.54 543.536ZM1234 545H1388V535H1234V545Z" fill="#D2E3FC"/>
</svg>
