<svg width="1920" height="1080" viewBox="0 0 1920 1080" fill="none" xmlns="http://www.w3.org/2000/svg">
<path d="M755.624 154.152V174.76C766.248 175.528 777.512 176.168 791.208 176.168C803.624 176.168 820.52 175.4 829.608 174.632V153.896C819.496 154.92 803.88 155.688 791.08 155.688C777.256 155.688 765.224 155.176 755.624 154.152ZM769.576 209.832L749.224 208.04C748.328 212.648 746.664 219.048 746.664 226.856C746.664 245.288 761.256 255.784 792.36 255.784C810.152 255.784 825 254.248 837.288 251.56L837.16 229.544C824.872 232.744 808.616 234.664 791.592 234.664C774.312 234.664 767.656 229.16 767.656 221.992C767.656 217.896 768.552 214.184 769.576 209.832ZM933.032 153.896L911.016 145.064C908.328 151.336 905.512 156.2 903.848 159.784C897.064 171.944 871.848 224.04 862.376 249.512L884.392 256.936C886.44 249.896 890.28 236.072 893.352 228.648C897.704 218.152 903.592 210.088 911.4 210.088C915.368 210.088 917.416 212.392 917.8 216.232C918.184 220.456 918.184 231.208 918.696 237.736C919.336 247.976 927.144 256.424 941.608 256.424C961.96 256.424 974.376 241.704 981.032 218.92L964.136 205.224C960.296 222.376 954.28 234.92 944.936 234.92C941.48 234.92 938.408 233.384 937.896 229.16C937.128 224.296 937.512 213.8 937.256 209.192C936.616 198.184 931.112 191.784 920.872 191.784C916.776 191.784 912.68 192.296 908.712 193.448C914.856 182.696 922.28 169.128 928.936 159.784C930.344 157.864 931.624 155.688 933.032 153.896ZM1041.7 157.736L1041.83 177.576C1058.98 179.112 1081.38 178.984 1098.15 177.576V157.608C1083.82 159.144 1058.47 159.784 1041.7 157.736ZM1054.89 213.8L1037.22 212.264C1035.69 218.92 1034.92 224.296 1034.92 229.8C1034.92 243.496 1046.06 251.816 1068.46 251.816C1083.56 251.816 1093.67 250.92 1102.12 249.384L1101.74 228.392C1090.09 230.824 1080.87 231.848 1069.48 231.848C1058.98 231.848 1053.61 229.672 1053.61 224.04C1053.61 220.712 1053.99 217.896 1054.89 213.8ZM1024.68 149.928L1003.05 148.136C1002.92 153 1002.02 158.76 1001.51 162.6C1000.23 172.072 996.52 193.448 996.52 213.032C996.52 230.44 999.08 246.568 1001.64 255.144L1019.56 253.992C1019.43 251.944 1019.43 249.64 1019.43 248.232C1019.43 247.08 1019.82 244.008 1020.2 242.088C1021.61 234.92 1025.58 220.84 1029.42 209.192L1020.07 201.768C1018.41 205.48 1016.87 208.04 1015.08 211.624C1014.95 211.112 1014.95 209.064 1014.95 208.68C1014.95 196.776 1019.69 169.64 1021.1 162.984C1021.61 160.68 1023.53 152.872 1024.68 149.928ZM1173.03 145.96L1151.14 145.064C1151.4 149.672 1151.27 153.128 1150.5 159.272C1150.38 160.296 1150.25 161.448 1149.99 162.728C1142.44 162.472 1133.48 161.448 1125.67 160.168V179.368C1131.69 180.008 1138.73 180.264 1146.41 180.52C1143.08 194.344 1137.96 210.6 1132.07 222.12L1150.38 228.52C1151.53 226.344 1152.42 224.808 1153.7 223.144C1160.87 213.672 1173.29 208.296 1187.75 208.296C1198.89 208.296 1204.78 214.184 1204.78 220.712C1204.78 238.376 1176.74 240.808 1149.48 236.072L1154.98 256.168C1197.86 260.776 1225.9 250.024 1225.9 220.2C1225.9 202.92 1211.05 191.656 1190.18 191.656C1179.82 191.656 1170.73 193.448 1160.74 197.928C1162.28 192.424 1163.82 186.28 1165.22 180.136C1182.76 179.24 1203.24 176.68 1215.53 174.76L1215.14 156.328C1199.78 159.528 1183.27 161.448 1169.19 162.216L1169.58 160.296C1170.73 155.688 1171.5 151.08 1173.03 145.96ZM1303.59 231.592C1303.59 227.496 1307.56 225.192 1313.58 225.192C1316.52 225.192 1319.34 225.576 1322.15 226.344V227.24C1322.15 234.28 1319.72 237.608 1313.58 237.608C1308.07 237.608 1303.59 236.072 1303.59 231.592ZM1341.35 147.88H1319.21C1319.72 150.568 1320.23 154.792 1320.23 156.712C1320.36 159.016 1320.36 163.752 1320.49 169.768C1318.06 169.896 1315.75 169.896 1313.32 169.896C1305.51 169.896 1297.83 169.512 1290.41 168.744L1290.54 187.176C1298.09 187.688 1305.77 187.944 1313.45 187.944C1315.75 187.944 1318.18 187.944 1320.62 187.816C1320.74 195.88 1321.13 203.688 1321.51 210.472C1319.46 210.344 1317.29 210.216 1315.11 210.216C1297.19 210.216 1285.42 219.432 1285.42 233.768C1285.42 248.232 1297.32 255.912 1315.37 255.912C1332.14 255.912 1340.07 248.488 1341.74 236.456C1346.09 239.784 1350.7 243.624 1355.43 248.104L1365.93 231.848C1360.17 226.472 1352.23 219.816 1341.35 215.336C1340.97 207.656 1340.33 198.568 1340.07 186.792C1346.73 186.408 1353 185.64 1358.76 184.872V165.544C1353 166.824 1346.73 167.72 1340.2 168.488C1340.33 163.112 1340.46 158.888 1340.58 156.456C1340.71 153.64 1340.97 150.312 1341.35 147.88ZM1279.27 149.544L1257.9 147.752C1257.77 152.488 1257 158.376 1256.49 162.216C1255.08 171.688 1251.5 195.752 1251.5 215.336C1251.5 232.744 1254.06 247.72 1256.74 256.424L1274.28 255.144C1274.15 253.096 1274.15 250.792 1274.15 249.384C1274.15 248.104 1274.54 245.16 1274.92 243.368C1276.46 235.944 1280.3 223.016 1284.14 211.496L1274.79 203.944C1273.13 207.784 1271.46 210.216 1269.93 213.928C1269.8 213.416 1269.8 211.368 1269.8 210.984C1269.8 199.08 1274.28 169.256 1275.82 162.6C1276.33 160.296 1278.12 152.36 1279.27 149.544ZM1377.19 159.272L1379.11 180.392C1394.47 176.936 1417 174.376 1428.01 173.224C1421.1 179.496 1411.75 193.064 1411.75 210.6C1411.75 237.864 1436.2 253.352 1464.74 255.528L1472.04 234.024C1449.9 232.744 1432.23 225.32 1432.23 206.504C1432.23 191.272 1444.14 176.296 1457.96 173.224C1465 171.816 1475.88 171.816 1482.54 171.688L1482.41 151.72C1473.06 152.104 1457.96 153 1445.16 154.024C1421.74 156.072 1402.41 157.608 1390.38 158.632C1387.94 158.888 1382.31 159.144 1377.19 159.272ZM1464.36 182.44L1453.22 187.048C1457.32 192.936 1459.5 197.16 1462.95 204.584L1474.34 199.592C1472.04 194.856 1467.56 187.176 1464.36 182.44ZM1478.82 176.296L1467.82 181.288C1472.04 187.048 1474.47 191.016 1478.18 198.312L1489.45 192.936C1486.89 188.328 1482.15 180.904 1478.82 176.296ZM1582.5 144.808H1560.1C1560.49 146.728 1561 151.464 1561.51 157.608C1561.51 157.992 1561.51 158.504 1561.64 159.016C1545.13 159.272 1522.47 159.784 1507.62 159.656L1508.14 178.216C1523.75 177.448 1542.7 176.68 1561.9 176.424C1562.02 178.6 1562.02 180.776 1562.02 182.952C1561 182.824 1559.98 182.824 1558.82 182.824C1543.98 182.824 1531.56 192.296 1531.56 207.784C1531.56 224.296 1544.87 232.36 1554.22 232.36C1554.98 232.36 1555.75 232.36 1556.52 232.232C1548.97 238.12 1538.34 241.192 1527.21 243.496L1543.72 260.008C1575.72 251.304 1586.34 229.032 1586.34 212.648C1586.34 205.736 1584.68 199.336 1581.35 194.344C1581.35 188.968 1581.35 182.44 1581.22 176.296C1597.35 176.424 1609.38 176.68 1616.94 177.064L1617.19 158.76C1610.54 158.632 1593.38 158.888 1581.48 158.888V157.48C1581.61 155.176 1582.12 147.24 1582.5 144.808ZM1550.12 207.4C1550.12 201.512 1554.34 199.08 1558.31 199.08C1561.26 199.08 1563.69 200.232 1565.35 202.536C1566.76 212.264 1562.41 215.208 1558.31 215.208C1554.22 215.208 1550.12 212.008 1550.12 207.4ZM1698.73 230.568C1698.73 227.112 1702.7 225.448 1707.3 225.448C1710.76 225.448 1714.22 226.344 1717.8 227.752C1715.37 233.128 1712.04 236.2 1707.3 236.2C1702.7 236.2 1698.73 234.92 1698.73 230.568ZM1658.41 156.584C1658.41 157.864 1658.28 161.064 1658.02 165.16C1653.16 165.8 1648.55 166.312 1645.1 166.568C1639.72 166.824 1636.52 166.824 1632.42 166.696L1634.34 186.408C1641 185.512 1650.09 184.36 1656.74 183.592C1656.62 185.896 1656.36 188.2 1656.23 190.504C1648.55 201.512 1636.52 216.872 1629.35 225.832L1641.38 242.856C1644.97 238.12 1650.09 230.44 1654.95 223.272C1654.7 231.336 1654.57 238.12 1654.44 245.8C1654.44 247.848 1654.31 253.096 1654.06 256.424H1675.3C1674.92 253.224 1674.41 247.72 1674.28 245.416C1673.38 233.128 1673.38 220.584 1673.38 210.856C1673.38 207.656 1673.51 204.2 1673.64 200.616C1683.37 189.608 1695.78 178.728 1707.05 178.728C1716.39 178.728 1721.9 187.432 1721.9 199.72C1721.9 203.944 1721.77 208.04 1721.38 211.752C1717.29 210.6 1713.19 210.088 1708.97 210.088C1692.07 210.088 1681.83 219.304 1681.83 231.336C1681.83 246.696 1693.1 253.608 1708.58 253.608C1721.13 253.608 1729.19 248.232 1734.06 239.144C1737 241.832 1739.82 244.904 1742.38 248.104L1752.36 232.104C1748.26 227.624 1744.04 223.784 1739.69 220.584C1740.58 214.568 1740.97 207.784 1740.97 200.616C1740.97 176.04 1729.32 161.064 1710.5 161.064C1698.86 161.064 1686.95 168.36 1677.35 176.296C1679.14 173.608 1680.94 170.92 1682.09 169.384L1677.22 162.856C1678.25 155.176 1679.27 148.648 1680.17 144.68L1657.77 144.04C1658.54 148.392 1658.41 152.488 1658.41 156.584Z" fill="#1A73E8"/>
<path d="M765.232 317V293.727H767.357V306.261H767.561L778.925 293.727H781.72L771.777 304.489L781.675 317H779.084L770.459 305.966L767.357 309.443V317H765.232ZM804.811 305.364C804.811 307.788 804.379 309.898 803.516 311.693C802.652 313.481 801.463 314.867 799.947 315.852C798.44 316.83 796.705 317.318 794.743 317.318C792.781 317.318 791.042 316.83 789.527 315.852C788.019 314.867 786.834 313.481 785.97 311.693C785.114 309.898 784.686 307.788 784.686 305.364C784.686 302.939 785.114 300.833 785.97 299.045C786.834 297.25 788.023 295.864 789.538 294.886C791.054 293.902 792.788 293.409 794.743 293.409C796.705 293.409 798.44 293.902 799.947 294.886C801.463 295.864 802.652 297.25 803.516 299.045C804.379 300.833 804.811 302.939 804.811 305.364ZM802.743 305.364C802.743 303.28 802.394 301.496 801.697 300.011C801 298.519 800.05 297.379 798.845 296.591C797.641 295.803 796.273 295.409 794.743 295.409C793.22 295.409 791.857 295.803 790.652 296.591C789.447 297.379 788.493 298.515 787.788 300C787.091 301.485 786.743 303.273 786.743 305.364C786.743 307.447 787.091 309.231 787.788 310.716C788.485 312.201 789.436 313.341 790.641 314.136C791.845 314.924 793.213 315.318 794.743 315.318C796.273 315.318 797.641 314.924 798.845 314.136C800.057 313.348 801.012 312.212 801.709 310.727C802.406 309.235 802.75 307.447 802.743 305.364Z" fill="#1A73E8"/>
<path d="M765.232 636V612.727H767.357V625.261H767.561L778.925 612.727H781.72L771.777 623.489L781.675 636H779.084L770.459 624.966L767.357 628.443V636H765.232ZM804.811 624.364C804.811 626.788 804.379 628.898 803.516 630.693C802.652 632.481 801.463 633.867 799.947 634.852C798.44 635.83 796.705 636.318 794.743 636.318C792.781 636.318 791.042 635.83 789.527 634.852C788.019 633.867 786.834 632.481 785.97 630.693C785.114 628.898 784.686 626.788 784.686 624.364C784.686 621.939 785.114 619.833 785.97 618.045C786.834 616.25 788.023 614.864 789.538 613.886C791.054 612.902 792.788 612.409 794.743 612.409C796.705 612.409 798.44 612.902 799.947 613.886C801.463 614.864 802.652 616.25 803.516 618.045C804.379 619.833 804.811 621.939 804.811 624.364ZM802.743 624.364C802.743 622.28 802.394 620.496 801.697 619.011C801 617.519 800.05 616.379 798.845 615.591C797.641 614.803 796.273 614.409 794.743 614.409C793.22 614.409 791.857 614.803 790.652 615.591C789.447 616.379 788.493 617.515 787.788 619C787.091 620.485 786.743 622.273 786.743 624.364C786.743 626.447 787.091 628.231 787.788 629.716C788.485 631.201 789.436 632.341 790.641 633.136C791.845 633.924 793.213 634.318 794.743 634.318C796.273 634.318 797.641 633.924 798.845 633.136C800.057 632.348 801.012 631.212 801.709 629.727C802.406 628.235 802.75 626.447 802.743 624.364Z" fill="#1A73E8"/>
<path d="M773.435 962V938.727H786.935V940.636H775.56V949.398H786.219V951.307H775.56V960.091H787.162V962H773.435ZM794.56 938.727V962H792.435V938.727H794.56Z" fill="#1A73E8"/>
<path d="M928.56 293.727V317H926.491L912.741 297.511H912.56V317H910.435V293.727H912.491L926.287 313.239H926.469V293.727H928.56Z" fill="#1A73E8"/>
<path d="M928.56 612.727V636H926.491L912.741 616.511H912.56V636H910.435V612.727H912.491L926.287 632.239H926.469V612.727H928.56Z" fill="#1A73E8"/>
<path d="M908.469 962H906.241L914.707 938.727H916.98L925.446 962H923.219L915.923 941.489H915.764L908.469 962ZM910.071 953.08H921.616V954.989H910.071V953.08ZM931.56 938.727V962H929.435V938.727H931.56Z" fill="#1A73E8"/>
<path d="M1058.4 293.727V317H1056.34L1042.59 297.511H1042.4V317H1040.28V293.727H1042.34L1056.13 313.239H1056.31V293.727H1058.4ZM1066.72 293.727V317H1064.59V293.727H1066.72Z" fill="#1A73E8"/>
<path d="M1058.4 612.727V636H1056.34L1042.59 616.511H1042.4V636H1040.28V612.727H1042.34L1056.13 632.239H1056.31V612.727H1058.4ZM1066.72 612.727V636H1064.59V612.727H1066.72Z" fill="#1A73E8"/>
<path d="M1011.58 962V938.727H1013.7V951.261H1013.9L1025.27 938.727H1028.06L1018.12 949.489L1028.02 962H1025.43L1016.8 950.966L1013.7 954.443V962H1011.58ZM1051.15 950.364C1051.15 952.788 1050.72 954.898 1049.86 956.693C1049 958.481 1047.81 959.867 1046.29 960.852C1044.78 961.83 1043.05 962.318 1041.09 962.318C1039.12 962.318 1037.39 961.83 1035.87 960.852C1034.36 959.867 1033.18 958.481 1032.31 956.693C1031.46 954.898 1031.03 952.788 1031.03 950.364C1031.03 947.939 1031.46 945.833 1032.31 944.045C1033.18 942.25 1034.37 940.864 1035.88 939.886C1037.4 938.902 1039.13 938.409 1041.09 938.409C1043.05 938.409 1044.78 938.902 1046.29 939.886C1047.81 940.864 1049 942.25 1049.86 944.045C1050.72 945.833 1051.15 947.939 1051.15 950.364ZM1049.09 950.364C1049.09 948.28 1048.74 946.496 1048.04 945.011C1047.34 943.519 1046.39 942.379 1045.19 941.591C1043.98 940.803 1042.62 940.409 1041.09 940.409C1039.56 940.409 1038.2 940.803 1037 941.591C1035.79 942.379 1034.84 943.515 1034.13 945C1033.44 946.485 1033.09 948.273 1033.09 950.364C1033.09 952.447 1033.44 954.231 1034.13 955.716C1034.83 957.201 1035.78 958.341 1036.98 959.136C1038.19 959.924 1039.56 960.318 1041.09 960.318C1042.62 960.318 1043.98 959.924 1045.19 959.136C1046.4 958.348 1047.36 957.212 1048.05 955.727C1048.75 954.235 1049.09 952.447 1049.09 950.364ZM1056.29 962V938.727H1058.42V951.261H1058.62L1069.99 938.727H1072.78L1062.84 949.489L1072.74 962H1070.15L1061.52 950.966L1058.42 954.443V962H1056.29ZM1092.31 938.727H1094.43V954.136C1094.43 955.72 1094.06 957.136 1093.32 958.386C1092.57 959.629 1091.54 960.61 1090.21 961.33C1088.9 962.042 1087.36 962.398 1085.61 962.398C1083.87 962.398 1082.34 962.038 1081.01 961.318C1079.68 960.598 1078.65 959.617 1077.91 958.375C1077.17 957.133 1076.79 955.72 1076.79 954.136V938.727H1078.92V953.989C1078.92 955.223 1079.2 956.326 1079.75 957.295C1080.3 958.258 1081.08 959.015 1082.08 959.568C1083.09 960.121 1084.26 960.398 1085.61 960.398C1086.96 960.398 1088.14 960.121 1089.15 959.568C1090.15 959.015 1090.93 958.258 1091.48 957.295C1092.03 956.326 1092.31 955.223 1092.31 953.989V938.727Z" fill="#1A73E8"/>
<path d="M1170.74 301H1168.6C1168.44 300.205 1168.16 299.47 1167.74 298.795C1167.33 298.114 1166.82 297.519 1166.19 297.011C1165.57 296.504 1164.87 296.11 1164.08 295.83C1163.29 295.549 1162.44 295.409 1161.52 295.409C1160.05 295.409 1158.71 295.792 1157.5 296.557C1156.3 297.322 1155.33 298.447 1154.6 299.932C1153.88 301.409 1153.52 303.22 1153.52 305.364C1153.52 307.523 1153.88 309.341 1154.6 310.818C1155.33 312.295 1156.3 313.417 1157.5 314.182C1158.71 314.939 1160.05 315.318 1161.52 315.318C1162.44 315.318 1163.29 315.178 1164.08 314.898C1164.87 314.617 1165.57 314.227 1166.19 313.727C1166.82 313.22 1167.33 312.625 1167.74 311.943C1168.16 311.261 1168.44 310.523 1168.6 309.727H1170.74C1170.55 310.795 1170.19 311.792 1169.67 312.716C1169.16 313.633 1168.5 314.436 1167.69 315.125C1166.9 315.814 1165.98 316.352 1164.94 316.739C1163.91 317.125 1162.77 317.318 1161.52 317.318C1159.57 317.318 1157.83 316.83 1156.32 315.852C1154.8 314.867 1153.62 313.481 1152.75 311.693C1151.9 309.905 1151.47 307.795 1151.47 305.364C1151.47 302.932 1151.9 300.822 1152.75 299.034C1153.62 297.246 1154.8 295.864 1156.32 294.886C1157.83 293.902 1159.57 293.409 1161.52 293.409C1162.77 293.409 1163.91 293.602 1164.94 293.989C1165.98 294.367 1166.9 294.905 1167.69 295.602C1168.5 296.292 1169.16 297.095 1169.67 298.011C1170.19 298.928 1170.55 299.924 1170.74 301ZM1175.73 317V293.727H1177.86V304.398H1191.06V293.727H1193.19V317H1191.06V306.307H1177.86V317H1175.73ZM1201.48 293.727V317H1199.36V293.727H1201.48Z" fill="#1A73E8"/>
<path d="M1170.74 620H1168.6C1168.44 619.205 1168.16 618.47 1167.74 617.795C1167.33 617.114 1166.82 616.519 1166.19 616.011C1165.57 615.504 1164.87 615.11 1164.08 614.83C1163.29 614.549 1162.44 614.409 1161.52 614.409C1160.05 614.409 1158.71 614.792 1157.5 615.557C1156.3 616.322 1155.33 617.447 1154.6 618.932C1153.88 620.409 1153.52 622.22 1153.52 624.364C1153.52 626.523 1153.88 628.341 1154.6 629.818C1155.33 631.295 1156.3 632.417 1157.5 633.182C1158.71 633.939 1160.05 634.318 1161.52 634.318C1162.44 634.318 1163.29 634.178 1164.08 633.898C1164.87 633.617 1165.57 633.227 1166.19 632.727C1166.82 632.22 1167.33 631.625 1167.74 630.943C1168.16 630.261 1168.44 629.523 1168.6 628.727H1170.74C1170.55 629.795 1170.19 630.792 1169.67 631.716C1169.16 632.633 1168.5 633.436 1167.69 634.125C1166.9 634.814 1165.98 635.352 1164.94 635.739C1163.91 636.125 1162.77 636.318 1161.52 636.318C1159.57 636.318 1157.83 635.83 1156.32 634.852C1154.8 633.867 1153.62 632.481 1152.75 630.693C1151.9 628.905 1151.47 626.795 1151.47 624.364C1151.47 621.932 1151.9 619.822 1152.75 618.034C1153.62 616.246 1154.8 614.864 1156.32 613.886C1157.83 612.902 1159.57 612.409 1161.52 612.409C1162.77 612.409 1163.91 612.602 1164.94 612.989C1165.98 613.367 1166.9 613.905 1167.69 614.602C1168.5 615.292 1169.16 616.095 1169.67 617.011C1170.19 617.928 1170.55 618.924 1170.74 620ZM1175.73 636V612.727H1177.86V623.398H1191.06V612.727H1193.19V636H1191.06V625.307H1177.86V636H1175.73ZM1201.48 612.727V636H1199.36V612.727H1201.48Z" fill="#1A73E8"/>
<path d="M1172.22 946C1172.01 945.227 1171.7 944.504 1171.29 943.83C1170.88 943.148 1170.38 942.553 1169.77 942.045C1169.17 941.53 1168.48 941.129 1167.69 940.841C1166.91 940.553 1166.04 940.409 1165.08 940.409C1163.56 940.409 1162.21 940.803 1161.01 941.591C1159.81 942.379 1158.86 943.515 1158.17 945C1157.48 946.485 1157.13 948.273 1157.13 950.364C1157.13 952.447 1157.48 954.231 1158.18 955.716C1158.88 957.201 1159.83 958.341 1161.04 959.136C1162.26 959.924 1163.66 960.318 1165.22 960.318C1166.66 960.318 1167.92 960 1169.02 959.364C1170.12 958.727 1170.97 957.818 1171.59 956.636C1172.21 955.455 1172.51 954.049 1172.5 952.42L1173.18 952.636H1165.72V950.727H1174.57V952.636C1174.57 954.621 1174.16 956.337 1173.36 957.784C1172.56 959.231 1171.46 960.348 1170.05 961.136C1168.65 961.924 1167.04 962.318 1165.22 962.318C1163.19 962.318 1161.42 961.83 1159.89 960.852C1158.37 959.867 1157.19 958.481 1156.34 956.693C1155.5 954.898 1155.08 952.788 1155.08 950.364C1155.08 948.538 1155.32 946.89 1155.8 945.42C1156.29 943.951 1156.97 942.693 1157.86 941.648C1158.75 940.602 1159.81 939.803 1161.03 939.25C1162.25 938.689 1163.6 938.409 1165.08 938.409C1166.35 938.409 1167.51 938.61 1168.57 939.011C1169.63 939.413 1170.56 939.966 1171.36 940.67C1172.17 941.367 1172.83 942.174 1173.35 943.091C1173.87 944 1174.22 944.97 1174.41 946H1172.22ZM1198.92 950.364C1198.92 952.788 1198.49 954.898 1197.62 956.693C1196.76 958.481 1195.57 959.867 1194.06 960.852C1192.55 961.83 1190.81 962.318 1188.85 962.318C1186.89 962.318 1185.15 961.83 1183.64 960.852C1182.13 959.867 1180.94 958.481 1180.08 956.693C1179.22 954.898 1178.8 952.788 1178.8 950.364C1178.8 947.939 1179.22 945.833 1180.08 944.045C1180.94 942.25 1182.13 940.864 1183.65 939.886C1185.16 938.902 1186.9 938.409 1188.85 938.409C1190.81 938.409 1192.55 938.902 1194.06 939.886C1195.57 940.864 1196.76 942.25 1197.62 944.045C1198.49 945.833 1198.92 947.939 1198.92 950.364ZM1196.85 950.364C1196.85 948.28 1196.5 946.496 1195.81 945.011C1195.11 943.519 1194.16 942.379 1192.95 941.591C1191.75 940.803 1190.38 940.409 1188.85 940.409C1187.33 940.409 1185.97 940.803 1184.76 941.591C1183.56 942.379 1182.6 943.515 1181.9 945C1181.2 946.485 1180.85 948.273 1180.85 950.364C1180.85 952.447 1181.2 954.231 1181.9 955.716C1182.59 957.201 1183.55 958.341 1184.75 959.136C1185.95 959.924 1187.32 960.318 1188.85 960.318C1190.38 960.318 1191.75 959.924 1192.95 959.136C1194.17 958.348 1195.12 957.212 1195.82 955.727C1196.52 954.235 1196.86 952.447 1196.85 950.364Z" fill="#1A73E8"/>
<path d="M1293.28 317V293.727H1295.4V304.398H1308.61V293.727H1310.73V317H1308.61V306.307H1295.4V317H1293.28ZM1316.94 317H1314.71L1323.18 293.727H1325.45L1333.91 317H1331.69L1324.39 296.489H1324.23L1316.94 317ZM1318.54 308.08H1330.09V309.989H1318.54V308.08Z" fill="#1A73E8"/>
<path d="M1293.28 636V612.727H1295.4V623.398H1308.61V612.727H1310.73V636H1308.61V625.307H1295.4V636H1293.28ZM1316.94 636H1314.71L1323.18 612.727H1325.45L1333.91 636H1331.69L1324.39 615.489H1324.23L1316.94 636ZM1318.54 627.08H1330.09V628.989H1318.54V627.08Z" fill="#1A73E8"/>
<path d="M1301.18 962V938.727H1303.31V951.261H1303.51L1314.88 938.727H1317.67L1307.73 949.489L1317.63 962H1315.04L1306.41 950.966L1303.31 954.443V962H1301.18ZM1323.81 938.727V962H1321.68V938.727H1323.81Z" fill="#1A73E8"/>
<path d="M1424.92 317H1418.11V293.727H1425.33C1427.55 293.727 1429.45 294.189 1431.03 295.114C1432.61 296.038 1433.82 297.364 1434.66 299.091C1435.5 300.818 1435.92 302.89 1435.92 305.307C1435.92 307.746 1435.49 309.841 1434.63 311.591C1433.77 313.333 1432.52 314.67 1430.88 315.602C1429.24 316.534 1427.26 317 1424.92 317ZM1420.23 315.091H1424.8C1426.8 315.091 1428.47 314.697 1429.82 313.909C1431.17 313.121 1432.18 311.996 1432.86 310.534C1433.53 309.072 1433.87 307.33 1433.87 305.307C1433.86 303.299 1433.53 301.572 1432.87 300.125C1432.22 298.678 1431.25 297.568 1429.96 296.795C1428.68 296.023 1427.1 295.636 1425.21 295.636H1420.23V315.091ZM1441.08 317V293.727H1454.58V295.636H1443.2V304.398H1453.86V306.307H1443.2V315.091H1454.8V317H1441.08Z" fill="#1A73E8"/>
<path d="M1424.92 636H1418.11V612.727H1425.33C1427.55 612.727 1429.45 613.189 1431.03 614.114C1432.61 615.038 1433.82 616.364 1434.66 618.091C1435.5 619.818 1435.92 621.89 1435.92 624.307C1435.92 626.746 1435.49 628.841 1434.63 630.591C1433.77 632.333 1432.52 633.67 1430.88 634.602C1429.24 635.534 1427.26 636 1424.92 636ZM1420.23 634.091H1424.8C1426.8 634.091 1428.47 633.697 1429.82 632.909C1431.17 632.121 1432.18 630.996 1432.86 629.534C1433.53 628.072 1433.87 626.33 1433.87 624.307C1433.86 622.299 1433.53 620.572 1432.87 619.125C1432.22 617.678 1431.25 616.568 1429.96 615.795C1428.68 615.023 1427.1 614.636 1425.21 614.636H1420.23V634.091ZM1441.08 636V612.727H1454.58V614.636H1443.2V623.398H1453.86V625.307H1443.2V634.091H1454.8V636H1441.08Z" fill="#1A73E8"/>
<path d="M1405.33 962V938.727H1407.45V951.261H1407.65L1419.02 938.727H1421.81L1411.87 949.489L1421.77 962H1419.18L1410.55 950.966L1407.45 954.443V962H1405.33ZM1444.9 950.364C1444.9 952.788 1444.47 954.898 1443.61 956.693C1442.75 958.481 1441.56 959.867 1440.04 960.852C1438.53 961.83 1436.8 962.318 1434.84 962.318C1432.87 962.318 1431.14 961.83 1429.62 960.852C1428.11 959.867 1426.93 958.481 1426.06 956.693C1425.21 954.898 1424.78 952.788 1424.78 950.364C1424.78 947.939 1425.21 945.833 1426.06 944.045C1426.93 942.25 1428.12 940.864 1429.63 939.886C1431.15 938.902 1432.88 938.409 1434.84 938.409C1436.8 938.409 1438.53 938.902 1440.04 939.886C1441.56 940.864 1442.75 942.25 1443.61 944.045C1444.47 945.833 1444.9 947.939 1444.9 950.364ZM1442.84 950.364C1442.84 948.28 1442.49 946.496 1441.79 945.011C1441.09 943.519 1440.14 942.379 1438.94 941.591C1437.73 940.803 1436.37 940.409 1434.84 940.409C1433.31 940.409 1431.95 940.803 1430.75 941.591C1429.54 942.379 1428.59 943.515 1427.88 945C1427.19 946.485 1426.84 948.273 1426.84 950.364C1426.84 952.447 1427.19 954.231 1427.88 955.716C1428.58 957.201 1429.53 958.341 1430.73 959.136C1431.94 959.924 1433.31 960.318 1434.84 960.318C1436.37 960.318 1437.73 959.924 1438.94 959.136C1440.15 958.348 1441.11 957.212 1441.8 955.727C1442.5 954.235 1442.84 952.447 1442.84 950.364ZM1465.56 938.727H1467.68V954.136C1467.68 955.72 1467.31 957.136 1466.57 958.386C1465.82 959.629 1464.79 960.61 1463.46 961.33C1462.15 962.042 1460.61 962.398 1458.86 962.398C1457.12 962.398 1455.59 962.038 1454.26 961.318C1452.93 960.598 1451.9 959.617 1451.16 958.375C1450.42 957.133 1450.04 955.72 1450.04 954.136V938.727H1452.17V953.989C1452.17 955.223 1452.45 956.326 1453 957.295C1453.55 958.258 1454.33 959.015 1455.33 959.568C1456.34 960.121 1457.51 960.398 1458.86 960.398C1460.21 960.398 1461.39 960.121 1462.4 959.568C1463.4 959.015 1464.18 958.258 1464.73 957.295C1465.28 956.326 1465.56 955.223 1465.56 953.989V938.727Z" fill="#1A73E8"/>
<path d="M1557.76 299.545C1557.63 298.25 1557.06 297.22 1556.04 296.455C1555.03 295.689 1553.75 295.307 1552.21 295.307C1551.13 295.307 1550.18 295.492 1549.35 295.864C1548.53 296.235 1547.89 296.75 1547.42 297.409C1546.96 298.061 1546.72 298.803 1546.72 299.636C1546.72 300.25 1546.86 300.788 1547.12 301.25C1547.39 301.712 1547.74 302.11 1548.19 302.443C1548.64 302.769 1549.14 303.049 1549.69 303.284C1550.24 303.519 1550.8 303.716 1551.36 303.875L1553.82 304.58C1554.56 304.784 1555.3 305.045 1556.04 305.364C1556.79 305.682 1557.46 306.083 1558.08 306.568C1558.7 307.045 1559.19 307.633 1559.57 308.33C1559.94 309.019 1560.13 309.848 1560.13 310.818C1560.13 312.061 1559.81 313.178 1559.17 314.17C1558.52 315.163 1557.6 315.951 1556.39 316.534C1555.19 317.11 1553.75 317.398 1552.07 317.398C1550.48 317.398 1549.11 317.136 1547.94 316.614C1546.77 316.083 1545.86 315.352 1545.19 314.42C1544.52 313.489 1544.15 312.409 1544.07 311.182H1546.25C1546.32 312.098 1546.63 312.875 1547.16 313.511C1547.69 314.148 1548.38 314.633 1549.22 314.966C1550.07 315.292 1551.02 315.455 1552.07 315.455C1553.22 315.455 1554.25 315.261 1555.16 314.875C1556.07 314.481 1556.78 313.936 1557.29 313.239C1557.82 312.534 1558.08 311.716 1558.08 310.784C1558.08 309.996 1557.87 309.337 1557.46 308.807C1557.05 308.269 1556.48 307.818 1555.75 307.455C1555.02 307.091 1554.18 306.769 1553.21 306.489L1550.43 305.67C1548.6 305.125 1547.19 304.371 1546.18 303.409C1545.17 302.447 1544.67 301.22 1544.67 299.727C1544.67 298.477 1545 297.379 1545.67 296.432C1546.34 295.477 1547.25 294.735 1548.39 294.205C1549.55 293.667 1550.84 293.398 1552.27 293.398C1553.72 293.398 1555 293.663 1556.11 294.193C1557.22 294.723 1558.11 295.455 1558.76 296.386C1559.42 297.311 1559.77 298.364 1559.82 299.545H1557.76ZM1580.76 293.727H1582.88V309.136C1582.88 310.72 1582.51 312.136 1581.77 313.386C1581.03 314.629 1579.99 315.61 1578.67 316.33C1577.35 317.042 1575.82 317.398 1574.07 317.398C1572.32 317.398 1570.79 317.038 1569.46 316.318C1568.14 315.598 1567.1 314.617 1566.36 313.375C1565.62 312.133 1565.25 310.72 1565.25 309.136V293.727H1567.37V308.989C1567.37 310.223 1567.65 311.326 1568.2 312.295C1568.75 313.258 1569.53 314.015 1570.53 314.568C1571.54 315.121 1572.72 315.398 1574.07 315.398C1575.41 315.398 1576.59 315.121 1577.6 314.568C1578.61 314.015 1579.38 313.258 1579.93 312.295C1580.48 311.326 1580.76 310.223 1580.76 308.989V293.727Z" fill="#1A73E8"/>
<path d="M1557.76 618.545C1557.63 617.25 1557.06 616.22 1556.04 615.455C1555.03 614.689 1553.75 614.307 1552.21 614.307C1551.13 614.307 1550.18 614.492 1549.35 614.864C1548.53 615.235 1547.89 615.75 1547.42 616.409C1546.96 617.061 1546.72 617.803 1546.72 618.636C1546.72 619.25 1546.86 619.788 1547.12 620.25C1547.39 620.712 1547.74 621.11 1548.19 621.443C1548.64 621.769 1549.14 622.049 1549.69 622.284C1550.24 622.519 1550.8 622.716 1551.36 622.875L1553.82 623.58C1554.56 623.784 1555.3 624.045 1556.04 624.364C1556.79 624.682 1557.46 625.083 1558.08 625.568C1558.7 626.045 1559.19 626.633 1559.57 627.33C1559.94 628.019 1560.13 628.848 1560.13 629.818C1560.13 631.061 1559.81 632.178 1559.17 633.17C1558.52 634.163 1557.6 634.951 1556.39 635.534C1555.19 636.11 1553.75 636.398 1552.07 636.398C1550.48 636.398 1549.11 636.136 1547.94 635.614C1546.77 635.083 1545.86 634.352 1545.19 633.42C1544.52 632.489 1544.15 631.409 1544.07 630.182H1546.25C1546.32 631.098 1546.63 631.875 1547.16 632.511C1547.69 633.148 1548.38 633.633 1549.22 633.966C1550.07 634.292 1551.02 634.455 1552.07 634.455C1553.22 634.455 1554.25 634.261 1555.16 633.875C1556.07 633.481 1556.78 632.936 1557.29 632.239C1557.82 631.534 1558.08 630.716 1558.08 629.784C1558.08 628.996 1557.87 628.337 1557.46 627.807C1557.05 627.269 1556.48 626.818 1555.75 626.455C1555.02 626.091 1554.18 625.769 1553.21 625.489L1550.43 624.67C1548.6 624.125 1547.19 623.371 1546.18 622.409C1545.17 621.447 1544.67 620.22 1544.67 618.727C1544.67 617.477 1545 616.379 1545.67 615.432C1546.34 614.477 1547.25 613.735 1548.39 613.205C1549.55 612.667 1550.84 612.398 1552.27 612.398C1553.72 612.398 1555 612.663 1556.11 613.193C1557.22 613.723 1558.11 614.455 1558.76 615.386C1559.42 616.311 1559.77 617.364 1559.82 618.545H1557.76ZM1580.76 612.727H1582.88V628.136C1582.88 629.72 1582.51 631.136 1581.77 632.386C1581.03 633.629 1579.99 634.61 1578.67 635.33C1577.35 636.042 1575.82 636.398 1574.07 636.398C1572.32 636.398 1570.79 636.038 1569.46 635.318C1568.14 634.598 1567.1 633.617 1566.36 632.375C1565.62 631.133 1565.25 629.72 1565.25 628.136V612.727H1567.37V627.989C1567.37 629.223 1567.65 630.326 1568.2 631.295C1568.75 632.258 1569.53 633.015 1570.53 633.568C1571.54 634.121 1572.72 634.398 1574.07 634.398C1575.41 634.398 1576.59 634.121 1577.6 633.568C1578.61 633.015 1579.38 632.258 1579.93 631.295C1580.48 630.326 1580.76 629.223 1580.76 627.989V612.727Z" fill="#1A73E8"/>
<path d="M1543.18 962V938.727H1545.31V951.261H1545.51L1556.88 938.727H1559.67L1549.73 949.489L1559.63 962H1557.04L1548.41 950.966L1545.31 954.443V962H1543.18ZM1563.68 962V938.727H1577.18V940.636H1565.81V949.398H1576.47V951.307H1565.81V960.091H1577.41V962H1563.68ZM1584.81 938.727V962H1582.68V938.727H1584.81Z" fill="#1A73E8"/>
<path d="M1692.56 293.727V317H1690.49L1676.74 297.511H1676.56V317H1674.43V293.727H1676.49L1690.29 313.239H1690.47V293.727H1692.56ZM1698.75 317V293.727H1712.25V295.636H1700.87V304.398H1711.53V306.307H1700.87V315.091H1712.47V317H1698.75Z" fill="#1A73E8"/>
<path d="M1692.56 612.727V636H1690.49L1676.74 616.511H1676.56V636H1674.43V612.727H1676.49L1690.29 632.239H1690.47V612.727H1692.56ZM1698.75 636V612.727H1712.25V614.636H1700.87V623.398H1711.53V625.307H1700.87V634.091H1712.47V636H1698.75Z" fill="#1A73E8"/>
<path d="M1652.61 962L1646.23 938.727H1648.39L1653.66 958.739H1653.84L1659.12 938.727H1661.57L1666.84 958.739H1667.03L1672.3 938.727H1674.47L1668.09 962H1665.82L1660.42 942.261H1660.28L1654.88 962H1652.61ZM1678.34 962H1676.12L1684.58 938.727H1686.86L1695.32 962H1693.09L1685.8 941.489H1685.64L1678.34 962ZM1679.95 953.08H1691.49V954.989H1679.95V953.08ZM1699.31 962V938.727H1701.43V951.261H1701.64L1713 938.727H1715.8L1705.86 949.489L1715.75 962H1713.16L1704.54 950.966L1701.43 954.443V962H1699.31ZM1735.32 938.727H1737.45V954.136C1737.45 955.72 1737.07 957.136 1736.33 958.386C1735.59 959.629 1734.56 960.61 1733.23 961.33C1731.91 962.042 1730.38 962.398 1728.63 962.398C1726.89 962.398 1725.35 962.038 1724.03 961.318C1722.7 960.598 1721.67 959.617 1720.92 958.375C1720.18 957.133 1719.81 955.72 1719.81 954.136V938.727H1721.93V953.989C1721.93 955.223 1722.21 956.326 1722.76 957.295C1723.32 958.258 1724.09 959.015 1725.09 959.568C1726.1 960.121 1727.28 960.398 1728.63 960.398C1729.98 960.398 1731.15 960.121 1732.16 959.568C1733.17 959.015 1733.95 958.258 1734.49 957.295C1735.04 956.326 1735.32 955.223 1735.32 953.989V938.727Z" fill="#1A73E8"/>
<path d="M747.944 472.328V493.832C751.912 493.576 759.08 493.32 764.84 493.32H820.264V541.96H763.304C757.288 541.96 751.4 541.576 746.408 541.192V563.336C751.016 562.824 759.08 562.44 763.944 562.44H820.136C820.136 564.488 820.008 566.664 820.008 568.84H842.536C842.152 563.848 841.896 556.552 841.896 552.2V485.768C841.896 481.544 842.152 475.912 842.28 472.84C840.36 472.968 834.216 473.224 830.12 473.224H764.84C760.232 473.224 753.064 472.84 747.944 472.328ZM888.872 465.672L874.152 481.416C883.368 487.944 899.496 502.024 906.28 509.448L922.152 493.192C914.472 485 897.704 471.688 888.872 465.672ZM869.928 550.664L883.112 571.144C899.24 568.584 915.88 561.928 928.936 554.248C950.312 541.704 968.488 523.912 978.728 505.736L966.696 483.848C958.12 501.896 940.84 521.736 917.8 535.048C905.256 542.344 888.744 548.104 869.928 550.664ZM1006.12 476.04V498.568C1010.73 498.312 1017.51 498.056 1022.63 498.056H1074.47C1079.08 498.056 1085.74 498.44 1089.58 498.568V476.04C1085.86 476.552 1079.85 476.936 1074.47 476.936H1022.5C1018.02 476.936 1011.11 476.68 1006.12 476.04ZM995.496 538.248V561.928C1000.62 561.416 1007.78 561.032 1013.03 561.032H1084.71C1088.68 561.032 1095.21 561.416 1100.2 561.928V538.248C1095.46 538.76 1089.32 539.144 1084.71 539.144H1013.03C1007.78 539.144 1000.87 538.632 995.496 538.248ZM1131.56 471.432L1136.42 489.224C1144.49 489.096 1157.03 488.584 1168.94 487.688V502.92H1134.38C1130.28 502.92 1126.06 502.536 1122.22 502.152V521.992C1125.67 521.736 1130.66 521.48 1134.5 521.48H1168.04C1164.97 538.504 1155.11 551.688 1136.17 560.264L1156.01 573.576C1177.13 560.648 1186.34 541.832 1188.78 521.48H1220.39C1224.1 521.48 1228.58 521.736 1232.42 521.992V502.152C1229.48 502.408 1222.7 502.92 1220.01 502.92H1189.42V485.128C1196.2 484.104 1202.73 482.824 1208.74 481.288C1211.05 480.776 1214.89 479.752 1220.14 478.472L1207.46 461.448C1200.94 464.648 1189.16 467.336 1175.59 469.384C1161.38 471.56 1141.42 471.56 1131.56 471.432ZM1265.58 521.864C1261.1 533.512 1253.42 547.464 1245.48 557.832L1267.37 567.048C1273.77 557.832 1281.7 542.472 1286.18 529.672C1290.15 518.408 1294.89 501.64 1296.68 492.04C1297.19 489.096 1298.98 481.416 1300.14 477.32L1277.48 472.584C1275.94 489.736 1271.34 507.016 1265.58 521.864ZM1328.81 520.456C1333.8 534.408 1337.77 549.896 1341.48 566.28L1364.65 558.728C1361.06 545.416 1354.28 524.552 1350.06 513.544C1345.58 501.896 1336.49 481.032 1330.98 470.792L1310.25 477.448C1315.62 487.304 1324.07 506.888 1328.81 520.456ZM1377.32 499.72V519.944C1380.9 519.688 1386.54 519.432 1390.25 519.432H1423.66C1422.89 529.416 1420.46 538.248 1415.46 545.672C1410.34 552.84 1401.38 560.136 1392.81 563.336L1410.98 576.392C1422.63 570.504 1432.62 560.136 1436.97 551.048C1441.32 542.344 1444.52 532.232 1445.42 519.432H1474.09C1477.93 519.432 1483.3 519.56 1486.76 519.816V499.72C1483.18 500.36 1476.78 500.616 1474.09 500.616H1390.25C1386.28 500.616 1381.29 500.232 1377.32 499.72ZM1470.38 458.76L1458.34 463.624C1458.98 464.648 1459.75 465.8 1460.39 466.952C1456.17 467.464 1451.56 467.72 1447.34 467.72H1406.76C1402.41 467.72 1396.26 467.336 1391.91 466.696V486.536C1396.14 486.28 1402.28 486.024 1406.76 486.024H1447.34C1452.2 486.024 1457.45 486.28 1462.18 486.536V469.896C1464.36 473.864 1466.54 478.088 1468.2 481.416L1480.36 476.296C1478.06 471.816 1473.58 463.496 1470.38 458.76ZM1486.12 452.616L1474.09 457.48C1477.54 462.344 1481.64 469.896 1484.2 475.144L1496.23 470.024C1494.06 465.672 1489.45 457.48 1486.12 452.616ZM1606.18 477.576L1593.51 468.232C1590.57 469.256 1584.55 470.152 1578.15 470.152H1535.4C1531.69 470.152 1523.5 469.768 1519.02 469.128V491.144C1522.6 490.888 1529.64 490.12 1535.4 490.12H1575.21C1572.52 498.312 1565.61 509.576 1557.29 519.048C1545.9 531.72 1525.67 547.464 1504.94 555.016L1521.06 571.784C1537.83 563.72 1554.6 550.792 1568.04 536.84C1579.56 547.976 1590.44 560.264 1598.63 571.912L1616.42 556.424C1609.38 547.72 1594.02 531.464 1581.61 520.712C1589.93 509.192 1596.71 496.392 1600.94 486.92C1602.34 483.72 1605.03 479.24 1606.18 477.576ZM1700.65 459.272H1678.63C1679.14 462.6 1679.4 467.08 1679.4 471.432V477.064H1658.92C1654.44 477.064 1647.27 476.936 1642.02 476.168V496.264C1646.12 495.88 1654.57 495.624 1659.3 495.624H1701.8C1698.34 500.488 1691.69 506.504 1682.73 512.264C1671.98 519.176 1655.34 528.264 1630.38 533.512L1642.28 551.816C1654.44 548.104 1667.75 542.984 1679.27 537.224V555.784C1679.27 561.16 1678.76 569.864 1678.25 573.32H1700.39C1700.01 569.352 1699.5 561.16 1699.5 555.784V524.552C1709.48 516.872 1718.7 507.784 1725.35 500.36C1728.42 496.904 1733.03 491.912 1736.74 488.072L1723.94 475.656C1720.49 476.552 1716.39 477.064 1711.91 477.064H1699.75V471.432C1699.75 467.208 1700.26 462.472 1700.65 459.272ZM1736.36 552.84L1749.29 535.688C1736.74 527.112 1730.22 523.528 1718.57 517.256L1705.9 532.104C1716.39 538.248 1725.22 543.752 1736.36 552.84Z" fill="#1A73E8"/>
<path d="M768.04 826.376L764.84 827.016H735.144V844.552H756.904C751.528 857.992 742.696 869 731.688 875.656C736.168 878.472 743.72 885.64 746.792 889.608C762.152 878.984 774.696 858.632 780.584 831.624L768.04 826.376ZM833.576 811.912C828.072 818.952 819.752 827.016 811.944 833.544C808.744 827.4 806.184 820.744 804.008 813.704V806.024C805.928 806.92 807.592 807.816 809 808.712L819.112 791.432C808.104 785.8 786.344 779.016 771.88 776.072L762.536 791.304C771.752 793.608 783.272 797.448 793 801.288H753.448V819.08H783.784V875.912C783.784 877.96 783.016 878.6 780.712 878.728C778.408 878.728 770.088 878.728 764.328 878.344C767.016 883.336 769.832 891.656 770.6 897.032C781.608 897.032 789.8 896.776 795.944 893.832C802.088 890.76 804.008 885.768 804.008 876.296V855.432C813.096 870.536 825.256 882.44 842.024 890.248C844.84 885.128 850.856 877.32 855.08 873.608C840.872 868.104 829.608 859.272 821.032 848.008C830.248 841.736 841.128 833.032 850.728 824.712L833.576 811.912ZM932.264 863.496C928.936 866.184 925.096 868.488 920.744 870.536C915.752 868.488 911.4 866.184 907.688 863.496H932.264ZM897.064 823.816V828.424L885.8 823.432C885.032 824.968 884.136 826.504 883.112 828.04V819.208H910.76L908.328 821.768C909.736 822.408 911.272 823.048 912.68 823.816H897.064ZM900.392 805.256L903.976 803.72C903.208 801.16 901.544 798.088 899.496 795.016C902.824 794.888 906.152 794.76 909.608 794.504C911.528 797.96 913.448 801.928 914.6 805.256H900.392ZM924.968 805.256L931.24 802.952C930.472 800.136 928.936 796.68 927.016 793.352C933.544 792.84 940.072 792.2 946.344 791.432C944.424 796.04 941.736 801.288 939.304 805.256H924.968ZM958.248 825.864C956.072 824.072 953.768 822.28 951.592 820.744L939.304 829.576C940.84 830.728 942.376 832.136 943.912 833.544C940.072 832.52 935.592 830.984 933.16 829.448C932.648 833.288 931.88 834.056 929.064 834.056H918.696C914.856 834.056 914.088 833.8 914.088 830.728V824.584C918.952 827.144 923.56 830.216 926.248 832.648L935.464 822.536C934.184 821.512 932.52 820.36 930.728 819.208H958.248V825.864ZM947.496 850.568L944.552 851.08H920.232C921.64 849.672 923.048 848.136 924.2 846.6H931.112C940.712 846.6 944.936 844.296 946.728 836.104C951.848 840.84 956.456 846.088 958.888 850.184L972.072 840.328C970.408 837.64 967.72 834.696 964.776 831.752H976.68V805.256H957.48C960.168 801.672 963.112 797.576 966.056 793.352L955.56 790.152C960.936 789.384 966.056 788.488 970.792 787.464L958.504 775.304C937 779.656 900.52 781.96 868.648 782.472C870.184 785.8 871.848 791.944 872.232 795.784L880.936 795.656C882.984 798.472 885.032 802.056 886.568 805.256H865.576V829.448H882.088C878.76 834.056 874.28 838.152 869.288 840.968L881.96 851.208C888.616 846.728 893.48 840.712 897.192 834.312C897.704 840.2 899.496 843.528 904.36 845.192C895.272 853.64 880.936 860.424 866.216 864.392C869.8 867.208 875.816 873.352 878.632 876.552C883.496 874.76 888.488 872.584 893.352 870.152C896.04 872.584 898.856 874.888 901.8 877.064C890.152 879.88 876.968 881.544 862.888 882.312C866.216 885.896 870.824 893.32 872.488 897.544C889.896 895.752 906.408 892.552 920.744 887.176C934.696 892.68 951.208 895.88 969.896 897.288C972.2 892.424 976.68 884.744 980.52 880.776C966.184 880.264 952.872 878.856 941.224 876.552C948.52 871.432 954.536 865.288 959.144 857.864L947.496 850.568ZM1056.81 842.12H1064.87L1058.73 845.32C1060.78 847.88 1063.08 850.952 1065 853.768H1056.81V842.12ZM1074.47 853.768L1079.59 850.952C1078.18 848.52 1075.5 845.192 1072.94 842.12H1076.39V826.632H1056.81V817.928H1078.95V801.8H1017.26V817.928H1039.66V826.632H1020.46V842.12H1039.66V853.768H1016.1V868.744H1080.74V853.768H1074.47ZM1013.03 873.48V797.192H1083.43V873.48H1013.03ZM994.088 780.168V896.904H1013.03V890.632H1083.43V896.904H1103.4V780.168H994.088ZM1160.23 779.272H1123.24V793.096H1160.23V779.272ZM1164.71 797.32H1116.2V811.784H1164.71V797.32ZM1159.98 816.136H1122.47V829.96H1159.98V816.136ZM1122.47 848.136H1159.98V834.312H1122.47V848.136ZM1145.38 867.208V878.088H1137.45V867.208H1145.38ZM1161.13 852.744H1121.96V897.16H1137.45V892.552H1161.13V852.744ZM1211.82 864.392V876.296H1189.93V864.392H1211.82ZM1172.52 897.16H1189.93V892.808H1211.82V896.648H1229.99V847.88H1172.52V897.16ZM1209.77 816.776V826.632H1196.33C1196.97 823.56 1197.48 820.232 1198.12 816.776H1209.77ZM1227.56 826.632V801.16H1200.55L1201.58 794.376H1233.58V778.632H1168.42V794.376H1183.53L1182.63 801.16H1170.47V816.776H1180.2C1179.69 820.232 1179.05 823.56 1178.41 826.632H1163.3V842.76H1238.31V826.632H1227.56ZM1282.47 855.688V845.192L1289.26 844.68C1290.15 847.112 1290.79 849.288 1291.3 851.208L1303.98 845.192V871.816C1301.8 865.416 1298.47 857.48 1295.4 850.952L1282.47 855.688ZM1329.06 879.24C1323.43 879.24 1322.66 878.6 1322.66 872.712V838.152H1340.2V845.576H1358.89V782.6H1301.42V800.136H1340.2V820.872H1303.98V838.152C1301.03 831.112 1296.55 822.664 1292.46 815.88L1278.76 822.024C1280.04 824.456 1281.45 827.016 1282.73 829.704L1271.59 830.216C1280.04 820.488 1289.13 808.712 1296.68 798.344L1280.94 790.664C1277.61 797.064 1273.13 804.36 1268.26 811.528C1267.37 810.376 1266.34 809.224 1265.19 808.072C1270.18 801.032 1275.82 791.304 1281.19 782.6L1264.3 775.688C1261.99 782.472 1258.15 790.92 1254.31 797.96L1251.88 796.04L1243.56 808.968C1248.68 813.448 1254.57 819.464 1258.54 824.84C1256.87 827.016 1255.21 829.064 1253.54 831.112L1243.82 831.496L1245.61 847.496C1251.37 847.112 1258.02 846.728 1264.94 846.344V854.92L1248.94 852.104C1247.91 862.728 1245.74 874.376 1241.9 881.672C1245.99 883.208 1253.42 886.664 1256.74 888.968C1260.33 881.416 1263.4 869.768 1264.94 858.12V897.16H1282.47V860.424C1285.42 867.592 1288.49 875.912 1289.77 881.544L1303.98 875.784C1304.62 891.912 1310.38 896.648 1326.5 896.648H1345.06C1360.68 896.648 1365.67 889.608 1367.72 866.568C1362.73 865.288 1354.66 862.216 1350.57 859.144C1349.8 876.168 1348.9 879.24 1343.53 879.24H1329.06ZM1489.32 782.6H1426.98V800.264H1489.32V782.6ZM1400.62 775.56C1394.6 784.392 1382.31 796.04 1371.69 802.696C1374.89 806.408 1379.62 813.832 1381.93 818.056C1394.6 809.352 1408.81 795.656 1418.54 782.984L1400.62 775.56ZM1405.35 803.72C1397.16 818.184 1383.21 833.032 1370.28 841.992C1373.99 845.832 1380.26 854.28 1382.82 858.248C1385.51 856.072 1388.2 853.512 1391.02 850.952V897.16H1409.7V829.96C1414.7 823.56 1419.3 816.904 1423.02 810.504L1405.35 803.72ZM1492.52 818.184H1421.61V835.848H1456.68V875.784C1456.68 877.576 1455.91 878.088 1453.61 878.088C1451.3 878.088 1442.86 878.088 1436.58 877.704C1439.02 883.08 1441.45 891.272 1442.09 896.776C1452.97 896.776 1461.54 896.52 1467.69 893.704C1474.09 890.888 1475.75 885.768 1475.75 876.296V835.848H1492.52V818.184ZM1583.91 882.184V886.536H1537.58V882.184H1583.91ZM1521.83 870.92H1600.81V863.112H1521.83V870.92ZM1600.81 852.744H1521.83V860.552H1600.81V852.744ZM1502.25 850.056H1619.88V840.456H1502.25V850.056ZM1525.93 830.472V838.28H1596.33V830.472H1525.93ZM1529 818.184H1521.83V814.856H1529V818.184ZM1520.04 897.16H1537.58V895.24H1583.91V897.16H1602.34V873.48H1520.04V897.16ZM1594.92 795.912C1593.64 798.984 1591.98 801.544 1589.93 803.976C1587.24 801.544 1584.94 798.856 1583.02 795.912H1594.92ZM1540.78 807.048H1517.35L1519.66 804.36H1545C1544.49 812.68 1543.72 816.264 1542.95 817.544C1542.31 818.312 1541.67 818.568 1540.78 818.696V807.048ZM1619.75 795.912V784.136H1586.73C1587.5 782.344 1588.39 780.424 1589.03 778.504L1574.7 775.176C1571.88 783.112 1566.89 790.664 1560.62 796.296V795.528H1525.16L1525.8 794.248L1520.42 793.352H1530.02V790.152H1537.96V793.352H1553.32V790.152H1564.84V779.912H1553.32V776.072H1537.96V779.912H1530.02V776.072H1514.92V779.912H1503.14V790.152H1514.92V792.456L1512.74 792.072C1510.18 796.936 1505.7 802.056 1499.18 805.896C1501.99 807.688 1506.34 812.04 1508.26 814.984C1509.03 814.472 1509.8 813.96 1510.44 813.32V826.12H1537.58C1537.83 827.4 1537.96 828.552 1538.09 829.704C1542.31 829.832 1546.28 829.704 1548.71 829.32C1551.4 829.064 1553.96 828.04 1556.01 825.608C1558.31 822.664 1559.46 816.008 1560.23 801.8C1563.3 803.976 1566.63 806.664 1568.42 808.456C1570.09 807.176 1571.62 805.64 1573.29 803.976C1575.08 806.792 1577 809.48 1579.3 811.912C1573.8 814.6 1567.14 816.648 1559.72 818.056C1562.41 820.744 1566.63 826.76 1568.04 829.832C1576.36 827.656 1583.66 824.84 1589.8 821C1596.71 825.608 1604.78 829.064 1614.12 831.24C1616.17 827.272 1620.26 821.512 1623.46 818.44C1615.14 817.032 1607.59 814.728 1601.32 811.656C1605.16 807.304 1608.23 802.056 1610.41 795.912H1619.75ZM1720.1 806.152C1718.44 811.016 1716.14 815.752 1713.32 819.976C1711.53 815.368 1709.99 810.12 1708.71 804.616H1745.58V788.744H1733.42L1736.87 785.16C1733.03 781.704 1725.48 777.48 1719.59 775.048L1709.1 785.672C1710.89 786.568 1712.81 787.592 1714.73 788.744H1705.77C1705.26 784.392 1704.87 779.912 1704.74 775.56H1686.31C1686.57 780.04 1686.82 784.392 1687.34 788.744H1632.55V804.616H1689.9C1692.2 816.136 1695.66 826.632 1700.14 835.336C1696.42 838.536 1692.33 841.224 1688.1 843.528C1691.82 846.472 1698.34 853.128 1701.03 856.584C1704.1 854.536 1707.18 852.36 1710.12 849.8C1715.5 855.176 1721.64 858.376 1728.42 858.376C1740.33 858.376 1745.83 854.536 1748.52 835.592C1743.91 834.056 1737.9 830.6 1734.18 827.016C1733.42 837 1732.26 840.712 1729.45 840.712C1727.14 840.712 1724.84 839.304 1722.54 836.744C1728.68 828.936 1733.67 820.104 1737.38 810.376L1720.1 806.152ZM1654.57 820.36H1666.22V825.864H1654.57V820.36ZM1683.62 837.768V808.584H1638.18V837.768H1683.62ZM1677.74 860.424C1685.29 865.032 1694.5 872.072 1698.47 877.192L1710.38 865.928C1705.9 860.808 1696.42 854.28 1688.87 850.184L1687.72 851.208V839.56C1667.62 840.968 1645.99 842.376 1631.27 843.016L1632.3 858.504C1646.5 857.608 1665.58 856.2 1684.01 854.664L1677.74 860.424ZM1645.74 894.856C1650.73 887.048 1654.57 875.656 1657.26 865.928L1640.62 859.528C1638.31 868.872 1633.96 878.856 1629.1 885.64L1645.74 894.856ZM1685.03 879.752C1678.63 879.752 1677.48 879.368 1677.48 875.656V862.728H1659.05V875.912C1659.05 890.504 1663.66 895.24 1682.98 895.24H1703.85C1717.8 895.24 1722.92 891.528 1724.97 876.552C1720.1 875.656 1712.42 873.096 1708.84 870.536C1708.07 878.472 1707.18 879.752 1702.18 879.752H1685.03ZM1719.85 864.648C1724.84 873.992 1729.83 886.28 1731.37 893.96L1750.06 888.072C1748.01 880.008 1742.38 868.36 1737.13 859.528L1719.85 864.648Z" fill="#1A73E8"/>
<path d="M220.578 214V174H231.438V189.625H245.812V174H256.672V214H245.812V198.375H231.438V214H220.578ZM261.984 214V184H272.766V214H261.984ZM267.375 180.875C265.917 180.875 264.667 180.393 263.625 179.43C262.583 178.466 262.063 177.307 262.063 175.953C262.063 174.599 262.583 173.44 263.625 172.477C264.667 171.513 265.917 171.031 267.375 171.031C268.846 171.031 270.096 171.513 271.125 172.477C272.167 173.44 272.688 174.599 272.688 175.953C272.688 177.307 272.167 178.466 271.125 179.43C270.096 180.393 268.846 180.875 267.375 180.875ZM278.259 214V184H288.728V189.703H289.04C289.587 187.594 290.453 186.051 291.638 185.074C292.836 184.098 294.235 183.609 295.837 183.609C296.306 183.609 296.768 183.648 297.224 183.727C297.692 183.792 298.142 183.889 298.571 184.02V193.219C298.037 193.036 297.38 192.9 296.599 192.809C295.817 192.717 295.147 192.672 294.587 192.672C293.532 192.672 292.582 192.913 291.735 193.395C290.902 193.863 290.244 194.527 289.763 195.387C289.281 196.233 289.04 197.229 289.04 198.375V214H278.259ZM309.069 214.469C307.155 214.469 305.463 214.156 303.991 213.531C302.533 212.893 301.387 211.93 300.554 210.641C299.72 209.352 299.304 207.711 299.304 205.719C299.304 204.078 299.584 202.678 300.144 201.52C300.703 200.348 301.485 199.391 302.487 198.648C303.49 197.906 304.655 197.34 305.983 196.949C307.325 196.559 308.77 196.305 310.319 196.187C311.999 196.057 313.347 195.901 314.362 195.719C315.391 195.523 316.133 195.257 316.589 194.918C317.045 194.566 317.272 194.104 317.272 193.531V193.453C317.272 192.672 316.973 192.073 316.374 191.656C315.775 191.24 315.007 191.031 314.069 191.031C313.041 191.031 312.201 191.259 311.55 191.715C310.912 192.158 310.528 192.841 310.397 193.766H300.476C300.606 191.943 301.185 190.263 302.214 188.727C303.256 187.177 304.772 185.94 306.765 185.016C308.757 184.078 311.244 183.609 314.226 183.609C316.374 183.609 318.301 183.863 320.007 184.371C321.713 184.866 323.164 185.562 324.362 186.461C325.56 187.346 326.472 188.388 327.097 189.586C327.735 190.771 328.054 192.06 328.054 193.453V214H317.976V209.781H317.741C317.142 210.901 316.413 211.806 315.554 212.496C314.707 213.186 313.737 213.687 312.644 214C311.563 214.313 310.371 214.469 309.069 214.469ZM312.585 207.672C313.405 207.672 314.174 207.503 314.89 207.164C315.619 206.826 316.211 206.337 316.667 205.699C317.123 205.061 317.351 204.286 317.351 203.375V200.875C317.064 200.992 316.758 201.103 316.433 201.207C316.12 201.311 315.782 201.409 315.417 201.5C315.065 201.591 314.688 201.676 314.284 201.754C313.894 201.832 313.483 201.904 313.054 201.969C312.22 202.099 311.537 202.314 311.003 202.613C310.482 202.9 310.091 203.258 309.831 203.688C309.584 204.104 309.46 204.573 309.46 205.094C309.46 205.927 309.753 206.565 310.339 207.008C310.925 207.451 311.674 207.672 312.585 207.672ZM347.658 225.875C344.65 225.875 342.072 225.445 339.924 224.586C337.788 223.74 336.128 222.568 334.943 221.07C333.771 219.586 333.114 217.88 332.971 215.953H343.361C343.465 216.591 343.726 217.105 344.143 217.496C344.559 217.887 345.093 218.167 345.744 218.336C346.408 218.518 347.15 218.609 347.971 218.609C349.364 218.609 350.516 218.271 351.428 217.594C352.352 216.917 352.814 215.693 352.814 213.922V208.844H352.502C352.111 209.859 351.512 210.725 350.705 211.441C349.898 212.145 348.928 212.685 347.795 213.062C346.662 213.427 345.419 213.609 344.064 213.609C341.929 213.609 339.963 213.115 338.166 212.125C336.382 211.135 334.95 209.566 333.869 207.418C332.801 205.27 332.268 202.464 332.268 199C332.268 195.38 332.827 192.437 333.947 190.172C335.08 187.906 336.538 186.246 338.322 185.191C340.119 184.137 342.007 183.609 343.986 183.609C345.471 183.609 346.773 183.87 347.893 184.391C349.012 184.898 349.95 185.582 350.705 186.441C351.46 187.288 352.033 188.219 352.424 189.234H352.658V184H363.439V213.922C363.439 216.461 362.782 218.616 361.467 220.387C360.165 222.171 358.329 223.531 355.959 224.469C353.589 225.406 350.822 225.875 347.658 225.875ZM348.049 205.953C349.038 205.953 349.885 205.68 350.588 205.133C351.304 204.573 351.851 203.779 352.229 202.75C352.619 201.708 352.814 200.458 352.814 199C352.814 197.516 352.619 196.246 352.229 195.191C351.851 194.124 351.304 193.31 350.588 192.75C349.885 192.177 349.038 191.891 348.049 191.891C347.059 191.891 346.213 192.177 345.51 192.75C344.82 193.31 344.286 194.124 343.908 195.191C343.544 196.246 343.361 197.516 343.361 199C343.361 200.484 343.544 201.747 343.908 202.789C344.286 203.818 344.82 204.605 345.51 205.152C346.213 205.686 347.059 205.953 348.049 205.953ZM377.282 214.469C375.368 214.469 373.675 214.156 372.204 213.531C370.746 212.893 369.6 211.93 368.767 210.641C367.933 209.352 367.517 207.711 367.517 205.719C367.517 204.078 367.797 202.678 368.356 201.52C368.916 200.348 369.698 199.391 370.7 198.648C371.703 197.906 372.868 197.34 374.196 196.949C375.537 196.559 376.983 196.305 378.532 196.187C380.212 196.057 381.56 195.901 382.575 195.719C383.604 195.523 384.346 195.257 384.802 194.918C385.257 194.566 385.485 194.104 385.485 193.531V193.453C385.485 192.672 385.186 192.073 384.587 191.656C383.988 191.24 383.22 191.031 382.282 191.031C381.254 191.031 380.414 191.259 379.763 191.715C379.125 192.158 378.741 192.841 378.61 193.766H368.688C368.819 191.943 369.398 190.263 370.427 188.727C371.468 187.177 372.985 185.94 374.978 185.016C376.97 184.078 379.457 183.609 382.438 183.609C384.587 183.609 386.514 183.863 388.22 184.371C389.925 184.866 391.377 185.562 392.575 186.461C393.773 187.346 394.685 188.388 395.31 189.586C395.948 190.771 396.267 192.06 396.267 193.453V214H386.188V209.781H385.954C385.355 210.901 384.626 211.806 383.767 212.496C382.92 213.186 381.95 213.687 380.856 214C379.776 214.313 378.584 214.469 377.282 214.469ZM380.798 207.672C381.618 207.672 382.386 207.503 383.103 207.164C383.832 206.826 384.424 206.337 384.88 205.699C385.336 205.061 385.563 204.286 385.563 203.375V200.875C385.277 200.992 384.971 201.103 384.646 201.207C384.333 201.311 383.994 201.409 383.63 201.5C383.278 201.591 382.901 201.676 382.497 201.754C382.106 201.832 381.696 201.904 381.267 201.969C380.433 202.099 379.75 202.314 379.216 202.613C378.695 202.9 378.304 203.258 378.044 203.688C377.797 204.104 377.673 204.573 377.673 205.094C377.673 205.927 377.966 206.565 378.552 207.008C379.138 207.451 379.886 207.672 380.798 207.672ZM412.199 197.125V214H401.418V184H411.652V189.703H411.965C412.616 187.802 413.762 186.311 415.402 185.23C417.056 184.15 418.983 183.609 421.184 183.609C423.306 183.609 425.148 184.098 426.711 185.074C428.286 186.038 429.504 187.366 430.363 189.059C431.236 190.751 431.665 192.685 431.652 194.859V214H420.871V197.125C420.884 195.641 420.507 194.475 419.738 193.629C418.983 192.783 417.928 192.359 416.574 192.359C415.689 192.359 414.914 192.555 414.25 192.945C413.599 193.323 413.098 193.87 412.746 194.586C412.395 195.289 412.212 196.135 412.199 197.125ZM445.334 214.469C443.42 214.469 441.727 214.156 440.256 213.531C438.798 212.893 437.652 211.93 436.818 210.641C435.985 209.352 435.568 207.711 435.568 205.719C435.568 204.078 435.848 202.678 436.408 201.52C436.968 200.348 437.749 199.391 438.752 198.648C439.755 197.906 440.92 197.34 442.248 196.949C443.589 196.559 445.035 196.305 446.584 196.187C448.264 196.057 449.611 195.901 450.627 195.719C451.656 195.523 452.398 195.257 452.854 194.918C453.309 194.566 453.537 194.104 453.537 193.531V193.453C453.537 192.672 453.238 192.073 452.639 191.656C452.04 191.24 451.271 191.031 450.334 191.031C449.305 191.031 448.465 191.259 447.814 191.715C447.176 192.158 446.792 192.841 446.662 193.766H436.74C436.87 191.943 437.45 190.263 438.479 188.727C439.52 187.177 441.037 185.94 443.029 185.016C445.021 184.078 447.508 183.609 450.49 183.609C452.639 183.609 454.566 183.863 456.271 184.371C457.977 184.866 459.429 185.562 460.627 186.461C461.825 187.346 462.736 188.388 463.361 189.586C463.999 190.771 464.318 192.06 464.318 193.453V214H454.24V209.781H454.006C453.407 210.901 452.678 211.806 451.818 212.496C450.972 213.186 450.002 213.687 448.908 214C447.827 214.313 446.636 214.469 445.334 214.469ZM448.85 207.672C449.67 207.672 450.438 207.503 451.154 207.164C451.883 206.826 452.476 206.337 452.932 205.699C453.387 205.061 453.615 204.286 453.615 203.375V200.875C453.329 200.992 453.023 201.103 452.697 201.207C452.385 201.311 452.046 201.409 451.682 201.5C451.33 201.591 450.952 201.676 450.549 201.754C450.158 201.832 449.748 201.904 449.318 201.969C448.485 202.099 447.801 202.314 447.268 202.613C446.747 202.9 446.356 203.258 446.096 203.688C445.848 204.104 445.725 204.573 445.725 205.094C445.725 205.927 446.018 206.565 446.604 207.008C447.189 207.451 447.938 207.672 448.85 207.672Z" fill="#FF6D7F"/>
<path d="M220.578 530V490H231.438V506.172H231.984L244.016 490H256.672L243.156 507.812L256.984 530H244.016L235.031 515L231.438 519.688V530H220.578ZM268.41 530.469C266.496 530.469 264.803 530.156 263.332 529.531C261.874 528.893 260.728 527.93 259.895 526.641C259.061 525.352 258.645 523.711 258.645 521.719C258.645 520.078 258.924 518.678 259.484 517.52C260.044 516.348 260.826 515.391 261.828 514.648C262.831 513.906 263.996 513.34 265.324 512.949C266.665 512.559 268.111 512.305 269.66 512.187C271.34 512.057 272.688 511.901 273.703 511.719C274.732 511.523 275.474 511.257 275.93 510.918C276.385 510.566 276.613 510.104 276.613 509.531V509.453C276.613 508.672 276.314 508.073 275.715 507.656C275.116 507.24 274.348 507.031 273.41 507.031C272.382 507.031 271.542 507.259 270.891 507.715C270.253 508.158 269.868 508.841 269.738 509.766H259.816C259.947 507.943 260.526 506.263 261.555 504.727C262.596 503.177 264.113 501.94 266.105 501.016C268.098 500.078 270.585 499.609 273.566 499.609C275.715 499.609 277.642 499.863 279.348 500.371C281.053 500.866 282.505 501.562 283.703 502.461C284.901 503.346 285.813 504.388 286.438 505.586C287.076 506.771 287.395 508.06 287.395 509.453V530H277.316V525.781H277.082C276.483 526.901 275.754 527.806 274.895 528.496C274.048 529.186 273.078 529.687 271.984 530C270.904 530.313 269.712 530.469 268.41 530.469ZM271.926 523.672C272.746 523.672 273.514 523.503 274.23 523.164C274.96 522.826 275.552 522.337 276.008 521.699C276.464 521.061 276.691 520.286 276.691 519.375V516.875C276.405 516.992 276.099 517.103 275.773 517.207C275.461 517.311 275.122 517.409 274.758 517.5C274.406 517.591 274.029 517.676 273.625 517.754C273.234 517.832 272.824 517.904 272.395 517.969C271.561 518.099 270.878 518.314 270.344 518.613C269.823 518.9 269.432 519.258 269.172 519.688C268.924 520.104 268.801 520.573 268.801 521.094C268.801 521.927 269.094 522.565 269.68 523.008C270.266 523.451 271.014 523.672 271.926 523.672ZM310.437 500V507.812H290.671V500H310.437ZM294.499 492.812H305.28V520.352C305.28 520.768 305.352 521.12 305.495 521.406C305.638 521.68 305.86 521.888 306.159 522.031C306.459 522.161 306.843 522.227 307.312 522.227C307.637 522.227 308.015 522.187 308.444 522.109C308.887 522.031 309.213 521.966 309.421 521.914L310.983 529.492C310.502 529.635 309.812 529.811 308.913 530.02C308.028 530.228 306.973 530.365 305.749 530.43C303.275 530.56 301.198 530.306 299.519 529.668C297.839 529.017 296.576 527.995 295.729 526.602C294.883 525.208 294.473 523.464 294.499 521.367V492.812ZM323.195 530.469C321.281 530.469 319.589 530.156 318.117 529.531C316.659 528.893 315.513 527.93 314.68 526.641C313.846 525.352 313.43 523.711 313.43 521.719C313.43 520.078 313.71 518.678 314.27 517.52C314.829 516.348 315.611 515.391 316.613 514.648C317.616 513.906 318.781 513.34 320.109 512.949C321.451 512.559 322.896 512.305 324.445 512.187C326.125 512.057 327.473 511.901 328.488 511.719C329.517 511.523 330.259 511.257 330.715 510.918C331.171 510.566 331.398 510.104 331.398 509.531V509.453C331.398 508.672 331.099 508.073 330.5 507.656C329.901 507.24 329.133 507.031 328.195 507.031C327.167 507.031 326.327 507.259 325.676 507.715C325.038 508.158 324.654 508.841 324.523 509.766H314.602C314.732 507.943 315.311 506.263 316.34 504.727C317.382 503.177 318.898 501.94 320.891 501.016C322.883 500.078 325.37 499.609 328.352 499.609C330.5 499.609 332.427 499.863 334.133 500.371C335.839 500.866 337.29 501.562 338.488 502.461C339.686 503.346 340.598 504.388 341.223 505.586C341.861 506.771 342.18 508.06 342.18 509.453V530H332.102V525.781H331.867C331.268 526.901 330.539 527.806 329.68 528.496C328.833 529.186 327.863 529.687 326.77 530C325.689 530.313 324.497 530.469 323.195 530.469ZM326.711 523.672C327.531 523.672 328.299 523.503 329.016 523.164C329.745 522.826 330.337 522.337 330.793 521.699C331.249 521.061 331.477 520.286 331.477 519.375V516.875C331.19 516.992 330.884 517.103 330.559 517.207C330.246 517.311 329.908 517.409 329.543 517.5C329.191 517.591 328.814 517.676 328.41 517.754C328.02 517.832 327.609 517.904 327.18 517.969C326.346 518.099 325.663 518.314 325.129 518.613C324.608 518.9 324.217 519.258 323.957 519.688C323.71 520.104 323.586 520.573 323.586 521.094C323.586 521.927 323.879 522.565 324.465 523.008C325.051 523.451 325.799 523.672 326.711 523.672ZM357.019 522.891L357.097 510.078H358.503L365.769 500H377.878L365.69 515.703H362.644L357.019 522.891ZM347.331 530V490H358.112V530H347.331ZM365.847 530L358.972 518.125L366.003 510.469L378.19 530H365.847ZM389.045 530.469C387.131 530.469 385.438 530.156 383.967 529.531C382.508 528.893 381.363 527.93 380.529 526.641C379.696 525.352 379.279 523.711 379.279 521.719C379.279 520.078 379.559 518.678 380.119 517.52C380.679 516.348 381.46 515.391 382.463 514.648C383.465 513.906 384.631 513.34 385.959 512.949C387.3 512.559 388.745 512.305 390.295 512.187C391.975 512.057 393.322 511.901 394.338 511.719C395.367 511.523 396.109 511.257 396.564 510.918C397.02 510.566 397.248 510.104 397.248 509.531V509.453C397.248 508.672 396.949 508.073 396.35 507.656C395.751 507.24 394.982 507.031 394.045 507.031C393.016 507.031 392.176 507.259 391.525 507.715C390.887 508.158 390.503 508.841 390.373 509.766H380.451C380.581 507.943 381.161 506.263 382.189 504.727C383.231 503.177 384.748 501.94 386.74 501.016C388.732 500.078 391.219 499.609 394.201 499.609C396.35 499.609 398.277 499.863 399.982 500.371C401.688 500.866 403.14 501.562 404.338 502.461C405.536 503.346 406.447 504.388 407.072 505.586C407.71 506.771 408.029 508.06 408.029 509.453V530H397.951V525.781H397.717C397.118 526.901 396.389 527.806 395.529 528.496C394.683 529.186 393.713 529.687 392.619 530C391.538 530.313 390.347 530.469 389.045 530.469ZM392.561 523.672C393.381 523.672 394.149 523.503 394.865 523.164C395.594 522.826 396.187 522.337 396.643 521.699C397.098 521.061 397.326 520.286 397.326 519.375V516.875C397.04 516.992 396.734 517.103 396.408 517.207C396.096 517.311 395.757 517.409 395.393 517.5C395.041 517.591 394.663 517.676 394.26 517.754C393.869 517.832 393.459 517.904 393.029 517.969C392.196 518.099 391.512 518.314 390.979 518.613C390.458 518.9 390.067 519.258 389.807 519.688C389.559 520.104 389.436 520.573 389.436 521.094C389.436 521.927 389.729 522.565 390.314 523.008C390.9 523.451 391.649 523.672 392.561 523.672ZM423.962 513.125V530H413.181V500H423.415V505.703H423.728C424.379 503.802 425.524 502.311 427.165 501.23C428.819 500.15 430.746 499.609 432.946 499.609C435.069 499.609 436.911 500.098 438.474 501.074C440.049 502.038 441.267 503.366 442.126 505.059C442.998 506.751 443.428 508.685 443.415 510.859V530H432.634V513.125C432.647 511.641 432.269 510.475 431.501 509.629C430.746 508.783 429.691 508.359 428.337 508.359C427.451 508.359 426.677 508.555 426.013 508.945C425.362 509.323 424.86 509.87 424.509 510.586C424.157 511.289 423.975 512.135 423.962 513.125ZM457.097 530.469C455.183 530.469 453.49 530.156 452.019 529.531C450.56 528.893 449.414 527.93 448.581 526.641C447.748 525.352 447.331 523.711 447.331 521.719C447.331 520.078 447.611 518.678 448.171 517.52C448.731 516.348 449.512 515.391 450.515 514.648C451.517 513.906 452.683 513.34 454.011 512.949C455.352 512.559 456.797 512.305 458.347 512.187C460.026 512.057 461.374 511.901 462.39 511.719C463.418 511.523 464.16 511.257 464.616 510.918C465.072 510.566 465.3 510.104 465.3 509.531V509.453C465.3 508.672 465 508.073 464.401 507.656C463.802 507.24 463.034 507.031 462.097 507.031C461.068 507.031 460.228 507.259 459.577 507.715C458.939 508.158 458.555 508.841 458.425 509.766H448.503C448.633 507.943 449.213 506.263 450.241 504.727C451.283 503.177 452.8 501.94 454.792 501.016C456.784 500.078 459.271 499.609 462.253 499.609C464.401 499.609 466.328 499.863 468.034 500.371C469.74 500.866 471.192 501.562 472.39 502.461C473.588 503.346 474.499 504.388 475.124 505.586C475.762 506.771 476.081 508.06 476.081 509.453V530H466.003V525.781H465.769C465.17 526.901 464.44 527.806 463.581 528.496C462.735 529.186 461.765 529.687 460.671 530C459.59 530.313 458.399 530.469 457.097 530.469ZM460.612 523.672C461.433 523.672 462.201 523.503 462.917 523.164C463.646 522.826 464.239 522.337 464.694 521.699C465.15 521.061 465.378 520.286 465.378 519.375V516.875C465.091 516.992 464.785 517.103 464.46 517.207C464.147 517.311 463.809 517.409 463.444 517.5C463.093 517.591 462.715 517.676 462.312 517.754C461.921 517.832 461.511 517.904 461.081 517.969C460.248 518.099 459.564 518.314 459.03 518.613C458.509 518.9 458.119 519.258 457.858 519.688C457.611 520.104 457.487 520.573 457.487 521.094C457.487 521.927 457.78 522.565 458.366 523.008C458.952 523.451 459.701 523.672 460.612 523.672Z" fill="#FF6D7F"/>
<path d="M220.578 850V810H231.438V826.172H231.984L244.016 810H256.672L243.156 827.812L256.984 850H244.016L235.031 835L231.438 839.688V850H220.578ZM268.41 850.469C266.496 850.469 264.803 850.156 263.332 849.531C261.874 848.893 260.728 847.93 259.895 846.641C259.061 845.352 258.645 843.711 258.645 841.719C258.645 840.078 258.924 838.678 259.484 837.52C260.044 836.348 260.826 835.391 261.828 834.648C262.831 833.906 263.996 833.34 265.324 832.949C266.665 832.559 268.111 832.305 269.66 832.187C271.34 832.057 272.688 831.901 273.703 831.719C274.732 831.523 275.474 831.257 275.93 830.918C276.385 830.566 276.613 830.104 276.613 829.531V829.453C276.613 828.672 276.314 828.073 275.715 827.656C275.116 827.24 274.348 827.031 273.41 827.031C272.382 827.031 271.542 827.259 270.891 827.715C270.253 828.158 269.868 828.841 269.738 829.766H259.816C259.947 827.943 260.526 826.263 261.555 824.727C262.596 823.177 264.113 821.94 266.105 821.016C268.098 820.078 270.585 819.609 273.566 819.609C275.715 819.609 277.642 819.863 279.348 820.371C281.053 820.866 282.505 821.562 283.703 822.461C284.901 823.346 285.813 824.388 286.438 825.586C287.076 826.771 287.395 828.06 287.395 829.453V850H277.316V845.781H277.082C276.483 846.901 275.754 847.806 274.895 848.496C274.048 849.186 273.078 849.687 271.984 850C270.904 850.313 269.712 850.469 268.41 850.469ZM271.926 843.672C272.746 843.672 273.514 843.503 274.23 843.164C274.96 842.826 275.552 842.337 276.008 841.699C276.464 841.061 276.691 840.286 276.691 839.375V836.875C276.405 836.992 276.099 837.103 275.773 837.207C275.461 837.311 275.122 837.409 274.758 837.5C274.406 837.591 274.029 837.676 273.625 837.754C273.234 837.832 272.824 837.904 272.395 837.969C271.561 838.099 270.878 838.314 270.344 838.613C269.823 838.9 269.432 839.258 269.172 839.688C268.924 840.104 268.801 840.573 268.801 841.094C268.801 841.927 269.094 842.565 269.68 843.008C270.266 843.451 271.014 843.672 271.926 843.672ZM303.327 833.125V850H292.546V820H302.78V825.703H303.093C303.744 823.802 304.89 822.311 306.53 821.23C308.184 820.15 310.111 819.609 312.312 819.609C314.434 819.609 316.276 820.098 317.839 821.074C319.414 822.038 320.632 823.366 321.491 825.059C322.364 826.751 322.793 828.685 322.78 830.859V850H311.999V833.125C312.012 831.641 311.634 830.475 310.866 829.629C310.111 828.783 309.056 828.359 307.702 828.359C306.817 828.359 306.042 828.555 305.378 828.945C304.727 829.323 304.226 829.87 303.874 830.586C303.522 831.289 303.34 832.135 303.327 833.125ZM328.103 820H338.884V851.016C338.884 853.646 338.33 855.703 337.224 857.188C336.13 858.672 334.593 859.72 332.614 860.332C330.635 860.944 328.324 861.25 325.681 861.25C325.29 861.25 324.932 861.243 324.606 861.23C324.268 861.217 323.897 861.198 323.493 861.172V853.203C323.754 853.229 323.981 853.249 324.177 853.262C324.359 853.275 324.548 853.281 324.743 853.281C326.032 853.281 326.911 853.079 327.38 852.676C327.862 852.285 328.103 851.654 328.103 850.781V820ZM333.493 816.875C332.035 816.875 330.785 816.393 329.743 815.43C328.701 814.466 328.181 813.307 328.181 811.953C328.181 810.599 328.701 809.44 329.743 808.477C330.785 807.513 332.035 807.031 333.493 807.031C334.965 807.031 336.215 807.513 337.243 808.477C338.285 809.44 338.806 810.599 338.806 811.953C338.806 813.307 338.285 814.466 337.243 815.43C336.215 816.393 334.965 816.875 333.493 816.875ZM344.377 850V820H355.158V850H344.377ZM349.768 816.875C348.309 816.875 347.059 816.393 346.018 815.43C344.976 814.466 344.455 813.307 344.455 811.953C344.455 810.599 344.976 809.44 346.018 808.477C347.059 807.513 348.309 807.031 349.768 807.031C351.239 807.031 352.489 807.513 353.518 808.477C354.559 809.44 355.08 810.599 355.08 811.953C355.08 813.307 354.559 814.466 353.518 815.43C352.489 816.393 351.239 816.875 349.768 816.875Z" fill="#FF6D7F"/>
</svg>
