<svg width="1920" height="1080" fill="none" xmlns="http://www.w3.org/2000/svg"><rect x="248" y="223" width="1424" height="635" rx="45" stroke="#1A73E8" stroke-width="10"/><path fill="#D2E3FC" d="M444 682h197v96H444z"/><path d="M486.672 742.952v-24.384h-.864l-3.168 11.52h-6.048v-.576l4.032-14.112h12.384v27.552h8.352V749h-24.192v-6.048h9.504Zm32.175-10.752c0-1.088.4-2.032 1.2-2.832.8-.8 1.744-1.2 2.832-1.2 1.088 0 2.032.4 2.832 1.2.8.8 1.2 1.744 1.2 2.832 0 1.088-.4 2.032-1.2 2.832-.8.8-1.744 1.2-2.832 1.2-1.088 0-2.032-.4-2.832-1.2-.8-.8-1.2-1.744-1.2-2.832Zm-8.352-3.744c0-4.352 1.088-7.728 3.264-10.128 2.208-2.4 5.248-3.6 9.12-3.6 3.872 0 6.896 1.2 9.072 3.6 2.208 2.4 3.312 5.776 3.312 10.128v7.488c0 4.48-1.104 7.888-3.312 10.224-2.176 2.336-5.2 3.504-9.072 3.504-3.872 0-6.912-1.168-9.12-3.504-2.176-2.336-3.264-5.744-3.264-10.224v-7.488Zm12.384 15.456c1.152 0 2.112-.176 2.88-.528a5.014 5.014 0 0 0 1.872-1.584c.48-.672.816-1.472 1.008-2.4.192-.928.288-1.952.288-3.072v-8.256c0-1.056-.112-2.048-.336-2.976-.224-.928-.576-1.728-1.056-2.4a5.014 5.014 0 0 0-1.872-1.584c-.768-.416-1.696-.624-2.784-.624-1.088 0-2.016.208-2.784.624a5.014 5.014 0 0 0-1.872 1.584c-.48.672-.832 1.472-1.056 2.4-.224.928-.336 1.92-.336 2.976v8.256c0 1.12.096 2.144.288 3.072.192.928.528 1.728 1.008 2.4.48.672 1.104 1.2 1.872 1.584.768.352 1.728.528 2.88.528Zm31.214-9.984h1.152l6.336-8.736h6.624v.288l-7.68 10.896v.864l8.448 11.472V749h-6.912l-6.816-9.312h-1.152V749h-6.048v-33.6h6.048v18.528ZM585.356 749h-6.048v-33.6h6.048v13.248h.864c.64-1.312 1.568-2.32 2.784-3.024 1.216-.736 2.768-1.104 4.656-1.104 1.408 0 2.736.272 3.984.816a9.094 9.094 0 0 1 3.312 2.4c.96 1.024 1.712 2.288 2.256 3.792.576 1.504.864 3.216.864 5.136v.864c0 1.952-.272 3.68-.816 5.184-.544 1.504-1.28 2.784-2.208 3.84a9.353 9.353 0 0 1-3.312 2.352c-1.248.512-2.608.768-4.08.768-1.088 0-2.032-.112-2.832-.336a7.942 7.942 0 0 1-2.112-.912 7.343 7.343 0 0 1-1.488-1.296c-.384-.512-.72-1.04-1.008-1.584h-.864V749Zm6.336-5.088c1.888 0 3.408-.576 4.56-1.728 1.184-1.184 1.776-2.784 1.776-4.8v-.576c0-2.016-.592-3.6-1.776-4.752-1.152-1.184-2.672-1.776-4.56-1.776-1.888 0-3.424.608-4.608 1.824-1.152 1.184-1.728 2.752-1.728 4.704v.576c0 1.952.576 3.536 1.728 4.752 1.184 1.184 2.72 1.776 4.608 1.776Z" fill="#1A73E8"/><path d="M369.479 685.852c5.244 0 9.272.38 12.084 1.14 2.812.76 5.51 1.9 8.094 3.42 1.368.836 2.546 2.052 3.534 3.648 1.064 1.596 1.596 3.268 1.596 5.016 0 6.46-4.332 9.69-12.996 9.69-4.256 0-7.486-.798-9.69-2.394-2.204-1.672-3.306-4.028-3.306-7.068 0-2.432.874-4.484 2.622-6.156 1.748-1.748 4.218-3.002 7.41-3.762-.608-.304-1.558-.57-2.85-.798a16.872 16.872 0 0 0-3.876-.456c-6.08 0-10.602 2.736-13.566 8.208-1.14 1.976-1.938 4.408-2.394 7.296-.456 2.812-.684 6.916-.684 12.312h10.374c7.068 0 12.578-.076 16.53-.228a137.35 137.35 0 0 0 11.514-1.14v49.818c0 3.116.532 5.282 1.596 6.498 1.14 1.14 3.116 1.71 5.928 1.71V775c-8.816-.304-14.554-.456-17.214-.456-2.66 0-8.398.152-17.214.456v-2.394c2.356 0 3.99-.57 4.902-1.71.988-1.216 1.482-3.382 1.482-6.498V728.26c0-3.496-.57-6.042-1.71-7.638-1.064-1.596-3.002-2.394-5.814-2.394h-10.374v46.17c0 3.116.684 5.282 2.052 6.498 1.444 1.14 3.648 1.71 6.612 1.71V775l-3.078-.114c-7.98-.228-13.072-.342-15.276-.342-2.584 0-7.866.114-15.846.342-.608.076-1.444.114-2.508.114v-2.394c2.812 0 4.75-.57 5.814-1.71 1.14-1.216 1.71-3.382 1.71-6.498v-46.17h-7.98v-2.28h7.98c0-8.816 3.192-16.226 9.576-22.23 2.812-2.66 6.46-4.636 10.944-5.928 4.484-1.292 9.158-1.938 14.022-1.938Z" fill="#3C4043"/><path fill="#D2E3FC" d="M444 560h298v96H444z"/><path d="M486.672 620.952v-24.384h-.864l-3.168 11.52h-6.048v-.576l4.032-14.112h12.384v27.552h8.352V627h-24.192v-6.048h9.504Zm41.247-18.048c0-1.12-.416-2.08-1.248-2.88-.8-.832-2.064-1.248-3.792-1.248-1.728 0-3.104.512-4.128 1.536-.992.992-1.488 2.304-1.488 3.936v4.32h.864c.544-1.12 1.424-2.016 2.64-2.688 1.216-.704 2.592-1.056 4.128-1.056 1.376 0 2.672.256 3.888.768a8.885 8.885 0 0 1 3.168 2.112c.896.896 1.6 2 2.112 3.312.512 1.312.768 2.8.768 4.464v.576c0 1.696-.288 3.264-.864 4.704a10.07 10.07 0 0 1-2.4 3.648c-1.024 1.024-2.272 1.824-3.744 2.4-1.472.576-3.12.864-4.944.864-1.664 0-3.232-.272-4.704-.816-1.44-.544-2.704-1.296-3.792-2.256a11.602 11.602 0 0 1-2.544-3.504c-.608-1.376-.912-2.88-.912-4.512v-12.24c0-1.76.32-3.36.96-4.8.64-1.44 1.504-2.656 2.592-3.648a11.408 11.408 0 0 1 3.744-2.352c1.44-.544 2.96-.816 4.56-.816 1.6 0 3.088.24 4.464.72 1.408.448 2.624 1.12 3.648 2.016a8.708 8.708 0 0 1 2.448 3.216c.608 1.248.912 2.656.912 4.224h-6.336Zm-5.04 18.72c1.632 0 2.976-.48 4.032-1.44 1.056-.992 1.584-2.304 1.584-3.936 0-1.632-.528-2.928-1.584-3.888-1.056-.992-2.4-1.488-4.032-1.488-1.632 0-2.976.496-4.032 1.488-1.056.96-1.584 2.256-1.584 3.888 0 1.632.528 2.944 1.584 3.936 1.056.96 2.4 1.44 4.032 1.44Zm31.214-9.696h1.152l6.336-8.736h6.624v.288l-7.68 10.896v.864l8.448 11.472V627h-6.912l-6.816-9.312h-1.152V627h-6.048v-33.6h6.048v18.528ZM585.356 627h-6.048v-33.6h6.048v13.248h.864c.64-1.312 1.568-2.32 2.784-3.024 1.216-.736 2.768-1.104 4.656-1.104 1.408 0 2.736.272 3.984.816a9.094 9.094 0 0 1 3.312 2.4c.96 1.024 1.712 2.288 2.256 3.792.576 1.504.864 3.216.864 5.136v.864c0 1.952-.272 3.68-.816 5.184-.544 1.504-1.28 2.784-2.208 3.84a9.353 9.353 0 0 1-3.312 2.352c-1.248.512-2.608.768-4.08.768-1.088 0-2.032-.112-2.832-.336a7.942 7.942 0 0 1-2.112-.912 7.343 7.343 0 0 1-1.488-1.296c-.384-.512-.72-1.04-1.008-1.584h-.864V627Zm6.336-5.088c1.888 0 3.408-.576 4.56-1.728 1.184-1.184 1.776-2.784 1.776-4.8v-.576c0-2.016-.592-3.6-1.776-4.752-1.152-1.184-2.672-1.776-4.56-1.776-1.888 0-3.424.608-4.608 1.824-1.152 1.184-1.728 2.752-1.728 4.704v.576c0 1.952.576 3.536 1.728 4.752 1.184 1.184 2.72 1.776 4.608 1.776Z" fill="#1A73E8"/><path d="M369.479 563.852c5.244 0 9.272.38 12.084 1.14 2.812.76 5.51 1.9 8.094 3.42 1.368.836 2.546 2.052 3.534 3.648 1.064 1.596 1.596 3.268 1.596 5.016 0 6.46-4.332 9.69-12.996 9.69-4.256 0-7.486-.798-9.69-2.394-2.204-1.672-3.306-4.028-3.306-7.068 0-2.432.874-4.484 2.622-6.156 1.748-1.748 4.218-3.002 7.41-3.762-.608-.304-1.558-.57-2.85-.798a16.872 16.872 0 0 0-3.876-.456c-6.08 0-10.602 2.736-13.566 8.208-1.14 1.976-1.938 4.408-2.394 7.296-.456 2.812-.684 6.916-.684 12.312h10.374c7.068 0 12.578-.076 16.53-.228a137.35 137.35 0 0 0 11.514-1.14v49.818c0 3.116.532 5.282 1.596 6.498 1.14 1.14 3.116 1.71 5.928 1.71V653c-8.816-.304-14.554-.456-17.214-.456-2.66 0-8.398.152-17.214.456v-2.394c2.356 0 3.99-.57 4.902-1.71.988-1.216 1.482-3.382 1.482-6.498V606.26c0-3.496-.57-6.042-1.71-7.638-1.064-1.596-3.002-2.394-5.814-2.394h-10.374v46.17c0 3.116.684 5.282 2.052 6.498 1.444 1.14 3.648 1.71 6.612 1.71V653l-3.078-.114c-7.98-.228-13.072-.342-15.276-.342-2.584 0-7.866.114-15.846.342-.608.076-1.444.114-2.508.114v-2.394c2.812 0 4.75-.57 5.814-1.71 1.14-1.216 1.71-3.382 1.71-6.498v-46.17h-7.98v-2.28h7.98c0-8.816 3.192-16.226 9.576-22.23 2.812-2.66 6.46-4.636 10.944-5.928 4.484-1.292 9.158-1.938 14.022-1.938Z" fill="#3C4043"/><path fill="#D2E3FC" d="M444 434h728v96H444z"/><path d="M486.136 466.4h12v21.216h4.896v6.048h-4.896V500H491.8v-6.336h-14.976v-8.736l9.312-18.528Zm-3.84 20.352v.864h9.504v-18.048h-.864l-8.64 17.184Zm30.063-1.728V466.4h22.464v6.048h-16.128v9.12h.864c.448-1.248 1.28-2.32 2.496-3.216 1.248-.928 2.912-1.392 4.992-1.392 1.568 0 2.976.272 4.224.816 1.248.544 2.304 1.296 3.168 2.256.864.96 1.52 2.112 1.968 3.456.48 1.344.72 2.816.72 4.416v.288c0 1.696-.288 3.296-.864 4.8a11.373 11.373 0 0 1-2.448 3.984c-1.056 1.12-2.368 2.016-3.936 2.688-1.568.672-3.376 1.008-5.424 1.008-2.048 0-3.856-.272-5.424-.816-1.568-.576-2.896-1.36-3.984-2.352a10.732 10.732 0 0 1-2.448-3.6c-.544-1.408-.816-2.928-.816-4.56v-1.152h6.336v.576c0 1.696.512 3.104 1.536 4.224 1.056 1.088 2.592 1.632 4.608 1.632 2.016 0 3.6-.544 4.752-1.632 1.184-1.088 1.776-2.592 1.776-4.512 0-1.824-.432-3.184-1.296-4.08-.864-.928-2-1.392-3.408-1.392-.928 0-1.68.208-2.256.624-.576.384-.944.848-1.104 1.392h-10.368Zm42.734-.096h1.152l6.336-8.736h6.624v.288l-7.68 10.896v.864l8.448 11.472V500h-6.912l-6.816-9.312h-1.152V500h-6.048v-33.6h6.048v18.528ZM586.356 500h-6.048v-33.6h6.048v13.248h.864c.64-1.312 1.568-2.32 2.784-3.024 1.216-.736 2.768-1.104 4.656-1.104 1.408 0 2.736.272 3.984.816a9.094 9.094 0 0 1 3.312 2.4c.96 1.024 1.712 2.288 2.256 3.792.576 1.504.864 3.216.864 5.136v.864c0 1.952-.272 3.68-.816 5.184-.544 1.504-1.28 2.784-2.208 3.84a9.353 9.353 0 0 1-3.312 2.352c-1.248.512-2.608.768-4.08.768-1.088 0-2.032-.112-2.832-.336a7.942 7.942 0 0 1-2.112-.912 7.343 7.343 0 0 1-1.488-1.296c-.384-.512-.72-1.04-1.008-1.584h-.864V500Zm6.336-5.088c1.888 0 3.408-.576 4.56-1.728 1.184-1.184 1.776-2.784 1.776-4.8v-.576c0-2.016-.592-3.6-1.776-4.752-1.152-1.184-2.672-1.776-4.56-1.776-1.888 0-3.424.608-4.608 1.824-1.152 1.184-1.728 2.752-1.728 4.704v.576c0 1.952.576 3.536 1.728 4.752 1.184 1.184 2.72 1.776 4.608 1.776Z" fill="#1A73E8"/><path d="M403.333 444.667v74.666h-74.666v-74.666h74.666Zm0-10.667h-74.666C322.8 434 318 438.8 318 444.667v74.666C318 525.2 322.8 530 328.667 530h74.666C409.2 530 414 525.2 414 519.333v-74.666C414 438.8 409.2 434 403.333 434Zm-25.92 47.253-16 20.64L350 488.08l-16 20.587h64l-20.587-27.414Z" fill="#3C4043"/><path fill="#D2E3FC" d="M444 308h1137v96H444z"/><path d="M494.728 349.904c0-1.12-.416-2.08-1.248-2.88-.8-.832-2.064-1.248-3.792-1.248-1.728 0-3.104.512-4.128 1.536-.992.992-1.488 2.304-1.488 3.936v4.32h.864c.544-1.12 1.424-2.016 2.64-2.688 1.216-.704 2.592-1.056 4.128-1.056 1.376 0 2.672.256 3.888.768a8.885 8.885 0 0 1 3.168 2.112c.896.896 1.6 2 2.112 3.312.512 1.312.768 2.8.768 4.464v.576c0 1.696-.288 3.264-.864 4.704a10.07 10.07 0 0 1-2.4 3.648c-1.024 1.024-2.272 1.824-3.744 2.4-1.472.576-3.12.864-4.944.864-1.664 0-3.232-.272-4.704-.816-1.44-.544-2.704-1.296-3.792-2.256a11.602 11.602 0 0 1-2.544-3.504c-.608-1.376-.912-2.88-.912-4.512v-12.24c0-1.76.32-3.36.96-4.8.64-1.44 1.504-2.656 2.592-3.648a11.408 11.408 0 0 1 3.744-2.352c1.44-.544 2.96-.816 4.56-.816 1.6 0 3.088.24 4.464.72 1.408.448 2.624 1.12 3.648 2.016a8.708 8.708 0 0 1 2.448 3.216c.608 1.248.912 2.656.912 4.224h-6.336Zm-5.04 18.72c1.632 0 2.976-.48 4.032-1.44 1.056-.992 1.584-2.304 1.584-3.936 0-1.632-.528-2.928-1.584-3.888-1.056-.992-2.4-1.488-4.032-1.488-1.632 0-2.976.496-4.032 1.488-1.056.96-1.584 2.256-1.584 3.888 0 1.632.528 2.944 1.584 3.936 1.056.96 2.4 1.44 4.032 1.44Zm39.231-18.72c0-1.12-.416-2.08-1.248-2.88-.8-.832-2.064-1.248-3.792-1.248-1.728 0-3.104.512-4.128 1.536-.992.992-1.488 2.304-1.488 3.936v4.32h.864c.544-1.12 1.424-2.016 2.64-2.688 1.216-.704 2.592-1.056 4.128-1.056 1.376 0 2.672.256 3.888.768a8.885 8.885 0 0 1 3.168 2.112c.896.896 1.6 2 2.112 3.312.512 1.312.768 2.8.768 4.464v.576c0 1.696-.288 3.264-.864 4.704a10.07 10.07 0 0 1-2.4 3.648c-1.024 1.024-2.272 1.824-3.744 2.4-1.472.576-3.12.864-4.944.864-1.664 0-3.232-.272-4.704-.816-1.44-.544-2.704-1.296-3.792-2.256a11.602 11.602 0 0 1-2.544-3.504c-.608-1.376-.912-2.88-.912-4.512v-12.24c0-1.76.32-3.36.96-4.8.64-1.44 1.504-2.656 2.592-3.648a11.408 11.408 0 0 1 3.744-2.352c1.44-.544 2.96-.816 4.56-.816 1.6 0 3.088.24 4.464.72 1.408.448 2.624 1.12 3.648 2.016a8.708 8.708 0 0 1 2.448 3.216c.608 1.248.912 2.656.912 4.224h-6.336Zm-5.04 18.72c1.632 0 2.976-.48 4.032-1.44 1.056-.992 1.584-2.304 1.584-3.936 0-1.632-.528-2.928-1.584-3.888-1.056-.992-2.4-1.488-4.032-1.488-1.632 0-2.976.496-4.032 1.488-1.056.96-1.584 2.256-1.584 3.888 0 1.632.528 2.944 1.584 3.936 1.056.96 2.4 1.44 4.032 1.44Zm31.214-9.696h1.152l6.336-8.736h6.624v.288l-7.68 10.896v.864l8.448 11.472V374h-6.912l-6.816-9.312h-1.152V374h-6.048v-33.6h6.048v18.528ZM586.356 374h-6.048v-33.6h6.048v13.248h.864c.64-1.312 1.568-2.32 2.784-3.024 1.216-.736 2.768-1.104 4.656-1.104 1.408 0 2.736.272 3.984.816a9.094 9.094 0 0 1 3.312 2.4c.96 1.024 1.712 2.288 2.256 3.792.576 1.504.864 3.216.864 5.136v.864c0 1.952-.272 3.68-.816 5.184-.544 1.504-1.28 2.784-2.208 3.84a9.353 9.353 0 0 1-3.312 2.352c-1.248.512-2.608.768-4.08.768-1.088 0-2.032-.112-2.832-.336a7.942 7.942 0 0 1-2.112-.912 7.343 7.343 0 0 1-1.488-1.296c-.384-.512-.72-1.04-1.008-1.584h-.864V374Zm6.336-5.088c1.888 0 3.408-.576 4.56-1.728 1.184-1.184 1.776-2.784 1.776-4.8v-.576c0-2.016-.592-3.6-1.776-4.752-1.152-1.184-2.672-1.776-4.56-1.776-1.888 0-3.424.608-4.608 1.824-1.152 1.184-1.728 2.752-1.728 4.704v.576c0 1.952.576 3.536 1.728 4.752 1.184 1.184 2.72 1.776 4.608 1.776Z" fill="#1A73E8"/><path d="M403.333 318.667v74.666h-74.666v-74.666h74.666Zm0-10.667h-74.666C322.8 308 318 312.8 318 318.667v74.666C318 399.2 322.8 404 328.667 404h74.666C409.2 404 414 399.2 414 393.333v-74.666C414 312.8 409.2 308 403.333 308Zm-25.92 47.253-16 20.64L350 362.08l-16 20.587h64l-20.587-27.414Z" fill="#3C4043"/></svg>