<svg width="1920" height="1080" fill="none" xmlns="http://www.w3.org/2000/svg"><path fill="#D2E3FC" d="M365 50v980h-45V50zM747 50v980h-77V50zM1154 50v980h-127V50zM1581 50v980h-166V50z"/><path d="M1154.36 298.647v116.2h105.78v88.583h-105.78v137.043c0 33.349 9.9 51.065 47.94 51.586 38.56.522 51.07-14.59 51.07-14.59l11.46 76.598s-35.43 27.618-98.48 27.618c-57.32 0-139.13-12.506-139.13-113.074v-164.66h-59.923v-89.104h59.923v-79.203l127.14-36.997Z" fill="#3C4043"/><path d="M1580.59 295v123.495h91.19v110.468h-91.19v113.073c0 16.154 6.26 35.955 44.82 35.955 32.3 0 42.73-10.943 42.73-10.943l8.85 93.794s-40.12 25.011-107.86 25.011c-57.32 0-153.72-12.506-153.72-113.073V528.963h-55.23V418.495h55.23v-76.598L1580.59 295ZM365.453 298.647v116.2H504.58v43.25H365.453V682.68c0 38.039 27.617 59.924 74.514 59.924 38.559 0 71.908-26.054 71.908-26.054l12.506 38.039s-39.602 27.617-84.936 27.617c-43.77 0-119.847-18.759-119.847-100.568V458.097H243v-43.25h76.598V311.674l45.855-13.027Z" fill="#1A73E8"/><path d="M747.395 303.858v105.778h122.453v59.924H747.395v196.967c0 31.785 30.222 46.896 61.487 46.896 38.559 0 59.402-23.448 59.402-23.448l16.675 55.755s-30.744 31.265-95.357 31.265c-43.77 0-119.326-18.759-119.326-100.568V470.081h-69.303v-60.445h69.303l-.521-83.893 77.64-21.885Z" fill="#3C4043"/></svg>