<svg xmlns="http://www.w3.org/2000/svg" width="1920" height="1080" fill="none"><path fill="#1A73E8" d="M755.624 154.152v20.608c10.624.768 21.888 1.408 35.584 1.408 12.416 0 29.312-.768 38.4-1.536v-20.736c-10.112 1.024-25.728 1.792-38.528 1.792-13.824 0-25.856-.512-35.456-1.536Zm13.952 55.68-20.352-1.792c-.896 4.608-2.56 11.008-2.56 18.816 0 18.432 14.592 28.928 45.696 28.928 17.792 0 32.64-1.536 44.928-4.224l-.128-22.016c-12.288 3.2-28.544 5.12-45.568 5.12-17.28 0-23.936-5.504-23.936-12.672 0-4.096.896-7.808 1.92-12.16Zm163.456-55.936-22.016-8.832c-2.688 6.272-5.504 11.136-7.168 14.72-6.784 12.16-32 64.256-41.472 89.728l22.016 7.424c2.048-7.04 5.888-20.864 8.96-28.288 4.352-10.496 10.24-18.56 18.048-18.56 3.968 0 6.016 2.304 6.4 6.144.384 4.224.384 14.976.896 21.504.64 10.24 8.448 18.688 22.912 18.688 20.352 0 32.768-14.72 39.424-37.504l-16.896-13.696c-3.84 17.152-9.856 29.696-19.2 29.696-3.456 0-6.528-1.536-7.04-5.76-.768-4.864-.384-15.36-.64-19.968-.64-11.008-6.144-17.408-16.384-17.408-4.096 0-8.192.512-12.16 1.664 6.144-10.752 13.568-24.32 20.224-33.664 1.408-1.92 2.688-4.096 4.096-5.888Zm108.668 3.84.13 19.84c17.15 1.536 39.55 1.408 56.32 0v-19.968c-14.33 1.536-39.68 2.176-56.45.128Zm13.19 56.064-17.67-1.536c-1.53 6.656-2.3 12.032-2.3 17.536 0 13.696 11.14 22.016 33.54 22.016 15.1 0 25.21-.896 33.66-2.432l-.38-20.992c-11.65 2.432-20.87 3.456-32.26 3.456-10.5 0-15.87-2.176-15.87-7.808 0-3.328.38-6.144 1.28-10.24Zm-30.21-63.872-21.63-1.792c-.13 4.864-1.03 10.624-1.54 14.464-1.28 9.472-4.99 30.848-4.99 50.432 0 17.408 2.56 33.536 5.12 42.112l17.92-1.152c-.13-2.048-.13-4.352-.13-5.76 0-1.152.39-4.224.77-6.144 1.41-7.168 5.38-21.248 9.22-32.896l-9.35-7.424c-1.66 3.712-3.2 6.272-4.99 9.856-.13-.512-.13-2.56-.13-2.944 0-11.904 4.74-39.04 6.15-45.696.51-2.304 2.43-10.112 3.58-13.056Zm148.35-3.968-21.89-.896c.26 4.608.13 8.064-.64 14.208-.12 1.024-.25 2.176-.51 3.456-7.55-.256-16.51-1.28-24.32-2.56v19.2c6.02.64 13.06.896 20.74 1.152-3.33 13.824-8.45 30.08-14.34 41.6l18.31 6.4c1.15-2.176 2.04-3.712 3.32-5.376 7.17-9.472 19.59-14.848 34.05-14.848 11.14 0 17.03 5.888 17.03 12.416 0 17.664-28.04 20.096-55.3 15.36l5.5 20.096c42.88 4.608 70.92-6.144 70.92-35.968 0-17.28-14.85-28.544-35.72-28.544-10.36 0-19.45 1.792-29.44 6.272 1.54-5.504 3.08-11.648 4.48-17.792 17.54-.896 38.02-3.456 50.31-5.376l-.39-18.432c-15.36 3.2-31.87 5.12-45.95 5.888l.39-1.92c1.15-4.608 1.92-9.216 3.45-14.336Zm130.56 85.632c0-4.096 3.97-6.4 9.99-6.4 2.94 0 5.76.384 8.57 1.152v.896c0 7.04-2.43 10.368-8.57 10.368-5.51 0-9.99-1.536-9.99-6.016Zm37.76-83.712h-22.14c.51 2.688 1.02 6.912 1.02 8.832.13 2.304.13 7.04.26 13.056-2.43.128-4.74.128-7.17.128-7.81 0-15.49-.384-22.91-1.152l.13 18.432c7.55.512 15.23.768 22.91.768 2.3 0 4.73 0 7.17-.128.12 8.064.51 15.872.89 22.656-2.05-.128-4.22-.256-6.4-.256-17.92 0-29.69 9.216-29.69 23.552 0 14.464 11.9 22.144 29.95 22.144 16.77 0 24.7-7.424 26.37-19.456 4.35 3.328 8.96 7.168 13.69 11.648l10.5-16.256c-5.76-5.376-13.7-12.032-24.58-16.512-.38-7.68-1.02-16.768-1.28-28.544 6.66-.384 12.93-1.152 18.69-1.92v-19.328c-5.76 1.28-12.03 2.176-18.56 2.944.13-5.376.26-9.6.38-12.032.13-2.816.39-6.144.77-8.576Zm-62.08 1.664-21.37-1.792c-.13 4.736-.9 10.624-1.41 14.464-1.41 9.472-4.99 33.536-4.99 53.12 0 17.408 2.56 32.384 5.24 41.088l17.54-1.28c-.13-2.048-.13-4.352-.13-5.76 0-1.28.39-4.224.77-6.016 1.54-7.424 5.38-20.352 9.22-31.872l-9.35-7.552c-1.66 3.84-3.33 6.272-4.86 9.984-.13-.512-.13-2.56-.13-2.944 0-11.904 4.48-41.728 6.02-48.384.51-2.304 2.3-10.24 3.45-13.056Zm97.92 9.728 1.92 21.12c15.36-3.456 37.89-6.016 48.9-7.168-6.91 6.272-16.26 19.84-16.26 37.376 0 27.264 24.45 42.752 52.99 44.928l7.3-21.504c-22.14-1.28-39.81-8.704-39.81-27.52 0-15.232 11.91-30.208 25.73-33.28 7.04-1.408 17.92-1.408 24.58-1.536l-.13-19.968c-9.35.384-24.45 1.28-37.25 2.304-23.42 2.048-42.75 3.584-54.78 4.608-2.44.256-8.07.512-13.19.64Zm87.17 23.168-11.14 4.608c4.1 5.888 6.28 10.112 9.73 17.536l11.39-4.992c-2.3-4.736-6.78-12.416-9.98-17.152Zm14.46-6.144-11 4.992c4.22 5.76 6.65 9.728 10.36 17.024l11.27-5.376c-2.56-4.608-7.3-12.032-10.63-16.64Zm103.68-31.488h-22.4c.39 1.92.9 6.656 1.41 12.8 0 .384 0 .896.13 1.408-16.51.256-39.17.768-54.02.64l.52 18.56c15.61-.768 34.56-1.536 53.76-1.792.12 2.176.12 4.352.12 6.528-1.02-.128-2.04-.128-3.2-.128-14.84 0-27.26 9.472-27.26 24.96 0 16.512 13.31 24.576 22.66 24.576.76 0 1.53 0 2.3-.128-7.55 5.888-18.18 8.96-29.31 11.264l16.51 16.512c32-8.704 42.62-30.976 42.62-47.36 0-6.912-1.66-13.312-4.99-18.304 0-5.376 0-11.904-.13-18.048 16.13.128 28.16.384 35.72.768l.25-18.304c-6.65-.128-23.81.128-35.71.128v-1.408c.13-2.304.64-10.24 1.02-12.672Zm-32.38 62.592c0-5.888 4.22-8.32 8.19-8.32 2.95 0 5.38 1.152 7.04 3.456 1.41 9.728-2.94 12.672-7.04 12.672-4.09 0-8.19-3.2-8.19-7.808Zm148.61 23.168c0-3.456 3.97-5.12 8.57-5.12 3.46 0 6.92.896 10.5 2.304-2.43 5.376-5.76 8.448-10.5 8.448-4.6 0-8.57-1.28-8.57-5.632Zm-40.32-73.984c0 1.28-.13 4.48-.39 8.576-4.86.64-9.47 1.152-12.92 1.408-5.38.256-8.58.256-12.68.128l1.92 19.712c6.66-.896 15.75-2.048 22.4-2.816-.12 2.304-.38 4.608-.51 6.912-7.68 11.008-19.71 26.368-26.88 35.328l12.03 17.024c3.59-4.736 8.71-12.416 13.57-19.584-.25 8.064-.38 14.848-.51 22.528 0 2.048-.13 7.296-.38 10.624h21.24c-.38-3.2-.89-8.704-1.02-11.008-.9-12.288-.9-24.832-.9-34.56 0-3.2.13-6.656.26-10.24 9.73-11.008 22.14-21.888 33.41-21.888 9.34 0 14.85 8.704 14.85 20.992 0 4.224-.13 8.32-.52 12.032-4.09-1.152-8.19-1.664-12.41-1.664-16.9 0-27.14 9.216-27.14 21.248 0 15.36 11.27 22.272 26.75 22.272 12.55 0 20.61-5.376 25.48-14.464 2.94 2.688 5.76 5.76 8.32 8.96l9.98-16c-4.1-4.48-8.32-8.32-12.67-11.52.89-6.016 1.28-12.8 1.28-19.968 0-24.576-11.65-39.552-30.47-39.552-11.64 0-23.55 7.296-33.15 15.232 1.79-2.688 3.59-5.376 4.74-6.912l-4.87-6.528c1.03-7.68 2.05-14.208 2.95-18.176l-22.4-.64c.77 4.352.64 8.448.64 12.544ZM765.232 317v-23.273h2.125v12.534h.204l11.364-12.534h2.795l-9.943 10.762L781.675 317h-2.591l-8.625-11.034-3.102 3.477V317h-2.125Zm39.579-11.636c0 2.424-.432 4.534-1.295 6.329-.864 1.788-2.053 3.174-3.569 4.159-1.507.978-3.242 1.466-5.204 1.466-1.962 0-3.701-.488-5.216-1.466-1.508-.985-2.693-2.371-3.557-4.159-.856-1.795-1.284-3.905-1.284-6.329 0-2.425.428-4.531 1.284-6.319.864-1.795 2.053-3.181 3.568-4.159 1.516-.984 3.25-1.477 5.205-1.477 1.962 0 3.697.493 5.204 1.477 1.516.978 2.705 2.364 3.569 4.159.863 1.788 1.295 3.894 1.295 6.319Zm-2.068 0c0-2.084-.349-3.868-1.046-5.353-.697-1.492-1.647-2.632-2.852-3.42-1.204-.788-2.572-1.182-4.102-1.182-1.523 0-2.886.394-4.091 1.182-1.205.788-2.159 1.924-2.864 3.409-.697 1.485-1.045 3.273-1.045 5.364 0 2.083.348 3.867 1.045 5.352.697 1.485 1.648 2.625 2.853 3.42 1.204.788 2.572 1.182 4.102 1.182 1.53 0 2.898-.394 4.102-1.182 1.212-.788 2.167-1.924 2.864-3.409.697-1.492 1.041-3.28 1.034-5.363ZM765.232 636v-23.273h2.125v12.534h.204l11.364-12.534h2.795l-9.943 10.762L781.675 636h-2.591l-8.625-11.034-3.102 3.477V636h-2.125Zm39.579-11.636c0 2.424-.432 4.534-1.295 6.329-.864 1.788-2.053 3.174-3.569 4.159-1.507.978-3.242 1.466-5.204 1.466-1.962 0-3.701-.488-5.216-1.466-1.508-.985-2.693-2.371-3.557-4.159-.856-1.795-1.284-3.905-1.284-6.329 0-2.425.428-4.531 1.284-6.319.864-1.795 2.053-3.181 3.568-4.159 1.516-.984 3.25-1.477 5.205-1.477 1.962 0 3.697.493 5.204 1.477 1.516.978 2.705 2.364 3.569 4.159.863 1.788 1.295 3.894 1.295 6.319Zm-2.068 0c0-2.084-.349-3.868-1.046-5.353-.697-1.492-1.647-2.632-2.852-3.42-1.204-.788-2.572-1.182-4.102-1.182-1.523 0-2.886.394-4.091 1.182-1.205.788-2.159 1.924-2.864 3.409-.697 1.485-1.045 3.273-1.045 5.364 0 2.083.348 3.867 1.045 5.352.697 1.485 1.648 2.625 2.853 3.42 1.204.788 2.572 1.182 4.102 1.182 1.53 0 2.898-.394 4.102-1.182 1.212-.788 2.167-1.924 2.864-3.409.697-1.492 1.041-3.28 1.034-5.363ZM773.435 962v-23.273h13.5v1.909H775.56v8.762h10.659v1.909H775.56v8.784h11.602V962h-13.727Zm21.125-23.273V962h-2.125v-23.273h2.125ZM928.56 293.727V317h-2.069l-13.75-19.489h-.181V317h-2.125v-23.273h2.056l13.796 19.512h.182v-19.512h2.091ZM928.56 612.727V636h-2.069l-13.75-19.489h-.181V636h-2.125v-23.273h2.056l13.796 19.512h.182v-19.512h2.091ZM908.469 962h-2.228l8.466-23.273h2.273L925.446 962h-2.227l-7.296-20.511h-.159L908.469 962Zm1.602-8.92h11.545v1.909h-11.545v-1.909Zm21.489-14.353V962h-2.125v-23.273h2.125ZM1058.4 293.727V317h-2.06l-13.75-19.489h-.19V317h-2.12v-23.273h2.06l13.79 19.512h.18v-19.512h2.09Zm8.32 0V317h-2.13v-23.273h2.13ZM1058.4 612.727V636h-2.06l-13.75-19.489h-.19V636h-2.12v-23.273h2.06l13.79 19.512h.18v-19.512h2.09Zm8.32 0V636h-2.13v-23.273h2.13ZM1011.58 962v-23.273h2.12v12.534h.2l11.37-12.534h2.79l-9.94 10.762 9.9 12.511h-2.59l-8.63-11.034-3.1 3.477V962h-2.12Zm39.57-11.636c0 2.424-.43 4.534-1.29 6.329-.86 1.788-2.05 3.174-3.57 4.159-1.51.978-3.24 1.466-5.2 1.466-1.97 0-3.7-.488-5.22-1.466-1.51-.985-2.69-2.371-3.56-4.159-.85-1.795-1.28-3.905-1.28-6.329 0-2.425.43-4.531 1.28-6.319.87-1.795 2.06-3.181 3.57-4.159 1.52-.984 3.25-1.477 5.21-1.477s3.69.493 5.2 1.477c1.52.978 2.71 2.364 3.57 4.159.86 1.788 1.29 3.894 1.29 6.319Zm-2.06 0c0-2.084-.35-3.868-1.05-5.353-.7-1.492-1.65-2.632-2.85-3.42-1.21-.788-2.57-1.182-4.1-1.182-1.53 0-2.89.394-4.09 1.182-1.21.788-2.16 1.924-2.87 3.409-.69 1.485-1.04 3.273-1.04 5.364 0 2.083.35 3.867 1.04 5.352.7 1.485 1.65 2.625 2.85 3.42 1.21.788 2.58 1.182 4.11 1.182 1.53 0 2.89-.394 4.1-1.182 1.21-.788 2.17-1.924 2.86-3.409.7-1.492 1.04-3.28 1.04-5.363Zm7.2 11.636v-23.273h2.13v12.534h.2l11.37-12.534h2.79l-9.94 10.762 9.9 12.511h-2.59l-8.63-11.034-3.1 3.477V962h-2.13Zm36.02-23.273h2.12v15.409c0 1.584-.37 3-1.11 4.25-.75 1.243-1.78 2.224-3.11 2.944-1.31.712-2.85 1.068-4.6 1.068-1.74 0-3.27-.36-4.6-1.08-1.33-.72-2.36-1.701-3.1-2.943-.74-1.242-1.12-2.655-1.12-4.239v-15.409h2.13v15.262c0 1.234.28 2.337.83 3.306.55.963 1.33 1.72 2.33 2.273 1.01.553 2.18.83 3.53.83 1.35 0 2.53-.277 3.54-.83 1-.553 1.78-1.31 2.33-2.273.55-.969.83-2.072.83-3.306v-15.262ZM1170.74 301h-2.14a6.586 6.586 0 0 0-.86-2.205 6.712 6.712 0 0 0-1.55-1.784 6.985 6.985 0 0 0-2.11-1.181 7.571 7.571 0 0 0-2.56-.421c-1.47 0-2.81.383-4.02 1.148-1.2.765-2.17 1.89-2.9 3.375-.72 1.477-1.08 3.288-1.08 5.432 0 2.159.36 3.977 1.08 5.454.73 1.477 1.7 2.599 2.9 3.364 1.21.757 2.55 1.136 4.02 1.136.92 0 1.77-.14 2.56-.42a7.135 7.135 0 0 0 2.11-1.171 6.681 6.681 0 0 0 1.55-1.784c.42-.682.7-1.42.86-2.216h2.14a9.42 9.42 0 0 1-1.07 2.989 8.679 8.679 0 0 1-1.98 2.409 8.828 8.828 0 0 1-2.75 1.614c-1.03.386-2.17.579-3.42.579-1.95 0-3.69-.488-5.2-1.466-1.52-.985-2.7-2.371-3.57-4.159-.85-1.788-1.28-3.898-1.28-6.329 0-2.432.43-4.542 1.28-6.33.87-1.788 2.05-3.17 3.57-4.148 1.51-.984 3.25-1.477 5.2-1.477 1.25 0 2.39.193 3.42.58a8.51 8.51 0 0 1 2.75 1.613c.81.69 1.47 1.493 1.98 2.409a9.29 9.29 0 0 1 1.07 2.989Zm4.99 16v-23.273h2.13v10.671h13.2v-10.671h2.13V317h-2.13v-10.693h-13.2V317h-2.13Zm25.75-23.273V317h-2.12v-23.273h2.12ZM1170.74 620h-2.14a6.586 6.586 0 0 0-.86-2.205 6.712 6.712 0 0 0-1.55-1.784 6.985 6.985 0 0 0-2.11-1.181 7.571 7.571 0 0 0-2.56-.421c-1.47 0-2.81.383-4.02 1.148-1.2.765-2.17 1.89-2.9 3.375-.72 1.477-1.08 3.288-1.08 5.432 0 2.159.36 3.977 1.08 5.454.73 1.477 1.7 2.599 2.9 3.364 1.21.757 2.55 1.136 4.02 1.136.92 0 1.77-.14 2.56-.42a7.135 7.135 0 0 0 2.11-1.171 6.681 6.681 0 0 0 1.55-1.784c.42-.682.7-1.42.86-2.216h2.14a9.42 9.42 0 0 1-1.07 2.989 8.679 8.679 0 0 1-1.98 2.409 8.828 8.828 0 0 1-2.75 1.614c-1.03.386-2.17.579-3.42.579-1.95 0-3.69-.488-5.2-1.466-1.52-.985-2.7-2.371-3.57-4.159-.85-1.788-1.28-3.898-1.28-6.329 0-2.432.43-4.542 1.28-6.33.87-1.788 2.05-3.17 3.57-4.148 1.51-.984 3.25-1.477 5.2-1.477 1.25 0 2.39.193 3.42.58a8.51 8.51 0 0 1 2.75 1.613c.81.69 1.47 1.493 1.98 2.409a9.29 9.29 0 0 1 1.07 2.989Zm4.99 16v-23.273h2.13v10.671h13.2v-10.671h2.13V636h-2.13v-10.693h-13.2V636h-2.13Zm25.75-23.273V636h-2.12v-23.273h2.12ZM1172.22 946a8.38 8.38 0 0 0-.93-2.17 6.962 6.962 0 0 0-1.52-1.785 6.655 6.655 0 0 0-2.08-1.204c-.78-.288-1.65-.432-2.61-.432-1.52 0-2.87.394-4.07 1.182-1.2.788-2.15 1.924-2.84 3.409-.69 1.485-1.04 3.273-1.04 5.364 0 2.083.35 3.867 1.05 5.352.7 1.485 1.65 2.625 2.86 3.42 1.22.788 2.62 1.182 4.18 1.182 1.44 0 2.7-.318 3.8-.954 1.1-.637 1.95-1.546 2.57-2.728.62-1.181.92-2.587.91-4.216l.68.216h-7.46v-1.909h8.85v1.909c0 1.985-.41 3.701-1.21 5.148-.8 1.447-1.9 2.564-3.31 3.352-1.4.788-3.01 1.182-4.83 1.182-2.03 0-3.8-.488-5.33-1.466-1.52-.985-2.7-2.371-3.55-4.159-.84-1.795-1.26-3.905-1.26-6.329 0-1.826.24-3.474.72-4.944.49-1.469 1.17-2.727 2.06-3.772a9.003 9.003 0 0 1 3.17-2.398c1.22-.561 2.57-.841 4.05-.841 1.27 0 2.43.201 3.49.602a9.02 9.02 0 0 1 2.79 1.659 9.069 9.069 0 0 1 1.99 2.421c.52.909.87 1.879 1.06 2.909h-2.19Zm26.7 4.364c0 2.424-.43 4.534-1.3 6.329-.86 1.788-2.05 3.174-3.56 4.159-1.51.978-3.25 1.466-5.21 1.466s-3.7-.488-5.21-1.466c-1.51-.985-2.7-2.371-3.56-4.159-.86-1.795-1.28-3.905-1.28-6.329 0-2.425.42-4.531 1.28-6.319.86-1.795 2.05-3.181 3.57-4.159 1.51-.984 3.25-1.477 5.2-1.477 1.96 0 3.7.493 5.21 1.477 1.51.978 2.7 2.364 3.56 4.159.87 1.788 1.3 3.894 1.3 6.319Zm-2.07 0c0-2.084-.35-3.868-1.04-5.353-.7-1.492-1.65-2.632-2.86-3.42-1.2-.788-2.57-1.182-4.1-1.182-1.52 0-2.88.394-4.09 1.182-1.2.788-2.16 1.924-2.86 3.409-.7 1.485-1.05 3.273-1.05 5.364 0 2.083.35 3.867 1.05 5.352.69 1.485 1.65 2.625 2.85 3.42 1.2.788 2.57 1.182 4.1 1.182 1.53 0 2.9-.394 4.1-1.182 1.22-.788 2.17-1.924 2.87-3.409.7-1.492 1.04-3.28 1.03-5.363ZM1293.28 317v-23.273h2.12v10.671h13.21v-10.671h2.12V317h-2.12v-10.693h-13.21V317h-2.12Zm23.66 0h-2.23l8.47-23.273h2.27l8.46 23.273h-2.22l-7.3-20.511h-.16L1316.94 317Zm1.6-8.92h11.55v1.909h-11.55v-1.909ZM1293.28 636v-23.273h2.12v10.671h13.21v-10.671h2.12V636h-2.12v-10.693h-13.21V636h-2.12Zm23.66 0h-2.23l8.47-23.273h2.27l8.46 23.273h-2.22l-7.3-20.511h-.16L1316.94 636Zm1.6-8.92h11.55v1.909h-11.55v-1.909ZM1301.18 962v-23.273h2.13v12.534h.2l11.37-12.534h2.79l-9.94 10.762 9.9 12.511h-2.59l-8.63-11.034-3.1 3.477V962h-2.13Zm22.63-23.273V962h-2.13v-23.273h2.13ZM1424.92 317h-6.81v-23.273h7.22c2.22 0 4.12.462 5.7 1.387 1.58.924 2.79 2.25 3.63 3.977.84 1.727 1.26 3.799 1.26 6.216 0 2.439-.43 4.534-1.29 6.284-.86 1.742-2.11 3.079-3.75 4.011-1.64.932-3.62 1.398-5.96 1.398Zm-4.69-1.909h4.57c2 0 3.67-.394 5.02-1.182 1.35-.788 2.36-1.913 3.04-3.375.67-1.462 1.01-3.204 1.01-5.227-.01-2.008-.34-3.735-1-5.182-.65-1.447-1.62-2.557-2.91-3.33-1.28-.772-2.86-1.159-4.75-1.159h-4.98v19.455Zm20.85 1.909v-23.273h13.5v1.909h-11.38v8.762h10.66v1.909h-10.66v8.784h11.6V317h-13.72ZM1424.92 636h-6.81v-23.273h7.22c2.22 0 4.12.462 5.7 1.387 1.58.924 2.79 2.25 3.63 3.977.84 1.727 1.26 3.799 1.26 6.216 0 2.439-.43 4.534-1.29 6.284-.86 1.742-2.11 3.079-3.75 4.011-1.64.932-3.62 1.398-5.96 1.398Zm-4.69-1.909h4.57c2 0 3.67-.394 5.02-1.182 1.35-.788 2.36-1.913 3.04-3.375.67-1.462 1.01-3.204 1.01-5.227-.01-2.008-.34-3.735-1-5.182-.65-1.447-1.62-2.557-2.91-3.33-1.28-.772-2.86-1.159-4.75-1.159h-4.98v19.455Zm20.85 1.909v-23.273h13.5v1.909h-11.38v8.762h10.66v1.909h-10.66v8.784h11.6V636h-13.72ZM1405.33 962v-23.273h2.12v12.534h.2l11.37-12.534h2.79l-9.94 10.762 9.9 12.511h-2.59l-8.63-11.034-3.1 3.477V962h-2.12Zm39.57-11.636c0 2.424-.43 4.534-1.29 6.329-.86 1.788-2.05 3.174-3.57 4.159-1.51.978-3.24 1.466-5.2 1.466-1.97 0-3.7-.488-5.22-1.466-1.51-.985-2.69-2.371-3.56-4.159-.85-1.795-1.28-3.905-1.28-6.329 0-2.425.43-4.531 1.28-6.319.87-1.795 2.06-3.181 3.57-4.159 1.52-.984 3.25-1.477 5.21-1.477s3.69.493 5.2 1.477c1.52.978 2.71 2.364 3.57 4.159.86 1.788 1.29 3.894 1.29 6.319Zm-2.06 0c0-2.084-.35-3.868-1.05-5.353-.7-1.492-1.65-2.632-2.85-3.42-1.21-.788-2.57-1.182-4.1-1.182-1.53 0-2.89.394-4.09 1.182-1.21.788-2.16 1.924-2.87 3.409-.69 1.485-1.04 3.273-1.04 5.364 0 2.083.35 3.867 1.04 5.352.7 1.485 1.65 2.625 2.85 3.42 1.21.788 2.58 1.182 4.11 1.182 1.53 0 2.89-.394 4.1-1.182 1.21-.788 2.17-1.924 2.86-3.409.7-1.492 1.04-3.28 1.04-5.363Zm22.72-11.637h2.12v15.409c0 1.584-.37 3-1.11 4.25-.75 1.243-1.78 2.224-3.11 2.944-1.31.712-2.85 1.068-4.6 1.068-1.74 0-3.27-.36-4.6-1.08-1.33-.72-2.36-1.701-3.1-2.943-.74-1.242-1.12-2.655-1.12-4.239v-15.409h2.13v15.262c0 1.234.28 2.337.83 3.306.55.963 1.33 1.72 2.33 2.273 1.01.553 2.18.83 3.53.83 1.35 0 2.53-.277 3.54-.83 1-.553 1.78-1.31 2.33-2.273.55-.969.83-2.072.83-3.306v-15.262ZM1557.76 299.545c-.13-1.295-.7-2.325-1.72-3.09-1.01-.766-2.29-1.148-3.83-1.148-1.08 0-2.03.185-2.86.557-.82.371-1.46.886-1.93 1.545-.46.652-.7 1.394-.7 2.227 0 .614.14 1.152.4 1.614.27.462.62.86 1.07 1.193.45.326.95.606 1.5.841s1.11.432 1.67.591l2.46.705c.74.204 1.48.465 2.22.784a8.95 8.95 0 0 1 2.04 1.204 5.517 5.517 0 0 1 1.49 1.762c.37.689.56 1.518.56 2.488 0 1.243-.32 2.36-.96 3.352-.65.993-1.57 1.781-2.78 2.364-1.2.576-2.64.864-4.32.864-1.59 0-2.96-.262-4.13-.784-1.17-.531-2.08-1.262-2.75-2.194-.67-.931-1.04-2.011-1.12-3.238h2.18c.07.916.38 1.693.91 2.329.53.637 1.22 1.122 2.06 1.455.85.326 1.8.489 2.85.489 1.15 0 2.18-.194 3.09-.58.91-.394 1.62-.939 2.13-1.636.53-.705.79-1.523.79-2.455 0-.788-.21-1.447-.62-1.977-.41-.538-.98-.989-1.71-1.352-.73-.364-1.57-.686-2.54-.966l-2.78-.819c-1.83-.545-3.24-1.299-4.25-2.261-1.01-.962-1.51-2.189-1.51-3.682 0-1.25.33-2.348 1-3.295.67-.955 1.58-1.697 2.72-2.227 1.16-.538 2.45-.807 3.88-.807 1.45 0 2.73.265 3.84.795 1.11.53 2 1.262 2.65 2.193.66.925 1.01 1.978 1.06 3.159h-2.06Zm23-5.818h2.12v15.409c0 1.584-.37 3-1.11 4.25-.74 1.243-1.78 2.224-3.1 2.944-1.32.712-2.85 1.068-4.6 1.068-1.75 0-3.28-.36-4.61-1.08-1.32-.72-2.36-1.701-3.1-2.943-.74-1.242-1.11-2.655-1.11-4.239v-15.409h2.12v15.262c0 1.234.28 2.337.83 3.306.55.963 1.33 1.72 2.33 2.273 1.01.553 2.19.83 3.54.83 1.34 0 2.52-.277 3.53-.83a5.86 5.86 0 0 0 2.33-2.273c.55-.969.83-2.072.83-3.306v-15.262ZM1557.76 618.545c-.13-1.295-.7-2.325-1.72-3.09-1.01-.766-2.29-1.148-3.83-1.148-1.08 0-2.03.185-2.86.557-.82.371-1.46.886-1.93 1.545-.46.652-.7 1.394-.7 2.227 0 .614.14 1.152.4 1.614.27.462.62.86 1.07 1.193.45.326.95.606 1.5.841s1.11.432 1.67.591l2.46.705c.74.204 1.48.465 2.22.784a8.95 8.95 0 0 1 2.04 1.204 5.517 5.517 0 0 1 1.49 1.762c.37.689.56 1.518.56 2.488 0 1.243-.32 2.36-.96 3.352-.65.993-1.57 1.781-2.78 2.364-1.2.576-2.64.864-4.32.864-1.59 0-2.96-.262-4.13-.784-1.17-.531-2.08-1.262-2.75-2.194-.67-.931-1.04-2.011-1.12-3.238h2.18c.07.916.38 1.693.91 2.329.53.637 1.22 1.122 2.06 1.455.85.326 1.8.489 2.85.489 1.15 0 2.18-.194 3.09-.58.91-.394 1.62-.939 2.13-1.636.53-.705.79-1.523.79-2.455 0-.788-.21-1.447-.62-1.977-.41-.538-.98-.989-1.71-1.352-.73-.364-1.57-.686-2.54-.966l-2.78-.819c-1.83-.545-3.24-1.299-4.25-2.261-1.01-.962-1.51-2.189-1.51-3.682 0-1.25.33-2.348 1-3.295.67-.955 1.58-1.697 2.72-2.227 1.16-.538 2.45-.807 3.88-.807 1.45 0 2.73.265 3.84.795 1.11.53 2 1.262 2.65 2.193.66.925 1.01 1.978 1.06 3.159h-2.06Zm23-5.818h2.12v15.409c0 1.584-.37 3-1.11 4.25-.74 1.243-1.78 2.224-3.1 2.944-1.32.712-2.85 1.068-4.6 1.068-1.75 0-3.28-.36-4.61-1.08-1.32-.72-2.36-1.701-3.1-2.943-.74-1.242-1.11-2.655-1.11-4.239v-15.409h2.12v15.262c0 1.234.28 2.337.83 3.306.55.963 1.33 1.72 2.33 2.273 1.01.553 2.19.83 3.54.83 1.34 0 2.52-.277 3.53-.83a5.86 5.86 0 0 0 2.33-2.273c.55-.969.83-2.072.83-3.306v-15.262ZM1543.18 962v-23.273h2.13v12.534h.2l11.37-12.534h2.79l-9.94 10.762 9.9 12.511h-2.59l-8.63-11.034-3.1 3.477V962h-2.13Zm20.5 0v-23.273h13.5v1.909h-11.37v8.762h10.66v1.909h-10.66v8.784h11.6V962h-13.73Zm21.13-23.273V962h-2.13v-23.273h2.13ZM1692.56 293.727V317h-2.07l-13.75-19.489h-.18V317h-2.13v-23.273h2.06l13.8 19.512h.18v-19.512h2.09Zm6.19 23.273v-23.273h13.5v1.909h-11.38v8.762h10.66v1.909h-10.66v8.784h11.6V317h-13.72ZM1692.56 612.727V636h-2.07l-13.75-19.489h-.18V636h-2.13v-23.273h2.06l13.8 19.512h.18v-19.512h2.09Zm6.19 23.273v-23.273h13.5v1.909h-11.38v8.762h10.66v1.909h-10.66v8.784h11.6V636h-13.72ZM1652.61 962l-6.38-23.273h2.16l5.27 20.012h.18l5.28-20.012h2.45l5.27 20.012h.19l5.27-20.012h2.17L1668.09 962h-2.27l-5.4-19.739h-.14l-5.4 19.739h-2.27Zm25.73 0h-2.22l8.46-23.273h2.28l8.46 23.273h-2.23l-7.29-20.511h-.16l-7.3 20.511Zm1.61-8.92h11.54v1.909h-11.54v-1.909Zm19.36 8.92v-23.273h2.12v12.534h.21l11.36-12.534h2.8l-9.94 10.762 9.89 12.511h-2.59l-8.62-11.034-3.11 3.477V962h-2.12Zm36.01-23.273h2.13v15.409c0 1.584-.38 3-1.12 4.25-.74 1.243-1.77 2.224-3.1 2.944-1.32.712-2.85 1.068-4.6 1.068-1.74 0-3.28-.36-4.6-1.08-1.33-.72-2.36-1.701-3.11-2.943-.74-1.242-1.11-2.655-1.11-4.239v-15.409h2.12v15.262c0 1.234.28 2.337.83 3.306.56.963 1.33 1.72 2.33 2.273 1.01.553 2.19.83 3.54.83s2.52-.277 3.53-.83c1.01-.553 1.79-1.31 2.33-2.273.55-.969.83-2.072.83-3.306v-15.262ZM747.944 472.328v21.504c3.968-.256 11.136-.512 16.896-.512h55.424v48.64h-56.96c-6.016 0-11.904-.384-16.896-.768v22.144c4.608-.512 12.672-.896 17.536-.896h56.192c0 2.048-.128 4.224-.128 6.4h22.528c-.384-4.992-.64-12.288-.64-16.64v-66.432c0-4.224.256-9.856.384-12.928-1.92.128-8.064.384-12.16.384h-65.28c-4.608 0-11.776-.384-16.896-.896Zm140.928-6.656-14.72 15.744c9.216 6.528 25.344 20.608 32.128 28.032l15.872-16.256c-7.68-8.192-24.448-21.504-33.28-27.52Zm-18.944 84.992 13.184 20.48c16.128-2.56 32.768-9.216 45.824-16.896 21.376-12.544 39.552-30.336 49.792-48.512l-12.032-21.888c-8.576 18.048-25.856 37.888-48.896 51.2-12.544 7.296-29.056 13.056-47.872 15.616Zm136.192-74.624v22.528c4.61-.256 11.39-.512 16.51-.512h51.84c4.61 0 11.27.384 15.11.512V476.04c-3.72.512-9.73.896-15.11.896h-51.97c-4.48 0-11.39-.256-16.38-.896Zm-10.624 62.208v23.68c5.124-.512 12.284-.896 17.534-.896h71.68c3.97 0 10.5.384 15.49.896v-23.68c-4.74.512-10.88.896-15.49.896h-71.68c-5.25 0-12.16-.512-17.534-.896Zm136.064-66.816 4.86 17.792c8.07-.128 20.61-.64 32.52-1.536v15.232h-34.56c-4.1 0-8.32-.384-12.16-.768v19.84c3.45-.256 8.44-.512 12.28-.512h33.54c-3.07 17.024-12.93 30.208-31.87 38.784l19.84 13.312c21.12-12.928 30.33-31.744 32.77-52.096h31.61c3.71 0 8.19.256 12.03.512v-19.84c-2.94.256-9.72.768-12.41.768h-30.59v-17.792c6.78-1.024 13.31-2.304 19.32-3.84 2.31-.512 6.15-1.536 11.4-2.816l-12.68-17.024c-6.52 3.2-18.3 5.888-31.87 7.936-14.21 2.176-34.17 2.176-44.03 2.048Zm134.02 50.432c-4.48 11.648-12.16 25.6-20.1 35.968l21.89 9.216c6.4-9.216 14.33-24.576 18.81-37.376 3.97-11.264 8.71-28.032 10.5-37.632.51-2.944 2.3-10.624 3.46-14.72l-22.66-4.736c-1.54 17.152-6.14 34.432-11.9 49.28Zm63.23-1.408c4.99 13.952 8.96 29.44 12.67 45.824l23.17-7.552c-3.59-13.312-10.37-34.176-14.59-45.184-4.48-11.648-13.57-32.512-19.08-42.752l-20.73 6.656c5.37 9.856 13.82 29.44 18.56 43.008Zm48.51-20.736v20.224c3.58-.256 9.22-.512 12.93-.512h33.41c-.77 9.984-3.2 18.816-8.2 26.24-5.12 7.168-14.08 14.464-22.65 17.664l18.17 13.056c11.65-5.888 21.64-16.256 25.99-25.344 4.35-8.704 7.55-18.816 8.45-31.616h28.67c3.84 0 9.21.128 12.67.384V499.72c-3.58.64-9.98.896-12.67.896h-83.84c-3.97 0-8.96-.384-12.93-.896Zm93.06-40.96-12.04 4.864c.64 1.024 1.41 2.176 2.05 3.328-4.22.512-8.83.768-13.05.768h-40.58c-4.35 0-10.5-.384-14.85-1.024v19.84c4.23-.256 10.37-.512 14.85-.512h40.58c4.86 0 10.11.256 14.84.512v-16.64c2.18 3.968 4.36 8.192 6.02 11.52l12.16-5.12c-2.3-4.48-6.78-12.8-9.98-17.536Zm15.74-6.144-12.03 4.864c3.45 4.864 7.55 12.416 10.11 17.664l12.03-5.12c-2.17-4.352-6.78-12.544-10.11-17.408Zm120.06 24.96-12.67-9.344c-2.94 1.024-8.96 1.92-15.36 1.92h-42.75c-3.71 0-11.9-.384-16.38-1.024v22.016c3.58-.256 10.62-1.024 16.38-1.024h39.81c-2.69 8.192-9.6 19.456-17.92 28.928-11.39 12.672-31.62 28.416-52.35 35.968l16.12 16.768c16.77-8.064 33.54-20.992 46.98-34.944 11.52 11.136 22.4 23.424 30.59 35.072l17.79-15.488c-7.04-8.704-22.4-24.96-34.81-35.712 8.32-11.52 15.1-24.32 19.33-33.792 1.4-3.2 4.09-7.68 5.24-9.344Zm94.47-18.304h-22.02c.51 3.328.77 7.808.77 12.16v5.632h-20.48c-4.48 0-11.65-.128-16.9-.896v20.096c4.1-.384 12.55-.64 17.28-.64h42.5c-3.46 4.864-10.11 10.88-19.07 16.64-10.75 6.912-27.39 16-52.35 21.248l11.9 18.304c12.16-3.712 25.47-8.832 36.99-14.592v18.56c0 5.376-.51 14.08-1.02 17.536h22.14c-.38-3.968-.89-12.16-.89-17.536v-31.232c9.98-7.68 19.2-16.768 25.85-24.192 3.07-3.456 7.68-8.448 11.39-12.288l-12.8-12.416c-3.45.896-7.55 1.408-12.03 1.408h-12.16v-5.632c0-4.224.51-8.96.9-12.16Zm35.71 93.568 12.93-17.152c-12.55-8.576-19.07-12.16-30.72-18.432l-12.67 14.848c10.49 6.144 19.32 11.648 30.46 20.736ZM768.04 826.376l-3.2.64h-29.696v17.536h21.76c-5.376 13.44-14.208 24.448-25.216 31.104 4.48 2.816 12.032 9.984 15.104 13.952 15.36-10.624 27.904-30.976 33.792-57.984l-12.544-5.248Zm65.536-14.464c-5.504 7.04-13.824 15.104-21.632 21.632-3.2-6.144-5.76-12.8-7.936-19.84v-7.68c1.92.896 3.584 1.792 4.992 2.688l10.112-17.28c-11.008-5.632-32.768-12.416-47.232-15.36l-9.344 15.232c9.216 2.304 20.736 6.144 30.464 9.984h-39.552v17.792h30.336v56.832c0 2.048-.768 2.688-3.072 2.816-2.304 0-10.624 0-16.384-.384 2.688 4.992 5.504 13.312 6.272 18.688 11.008 0 19.2-.256 25.344-3.2 6.144-3.072 8.064-8.064 8.064-17.536v-20.864c9.088 15.104 21.248 27.008 38.016 34.816 2.816-5.12 8.832-12.928 13.056-16.64-14.208-5.504-25.472-14.336-34.048-25.6 9.216-6.272 20.096-14.976 29.696-23.296l-17.152-12.8Zm98.688 51.584c-3.328 2.688-7.168 4.992-11.52 7.04-4.992-2.048-9.344-4.352-13.056-7.04h24.576Zm-35.2-39.68v4.608l-11.264-4.992a42.927 42.927 0 0 1-2.688 4.608v-8.832h27.648l-2.432 2.56c1.408.64 2.944 1.28 4.352 2.048h-15.616Zm3.328-18.56 3.584-1.536c-.768-2.56-2.432-5.632-4.48-8.704 3.328-.128 6.656-.256 10.112-.512 1.92 3.456 3.84 7.424 4.992 10.752h-14.208Zm24.576 0 6.272-2.304c-.768-2.816-2.304-6.272-4.224-9.6a449.05 449.05 0 0 0 19.328-1.92c-1.92 4.608-4.608 9.856-7.04 13.824h-14.336Zm33.28 20.608c-2.176-1.792-4.48-3.584-6.656-5.12l-12.288 8.832c1.536 1.152 3.072 2.56 4.608 3.968-3.84-1.024-8.32-2.56-10.752-4.096-.512 3.84-1.28 4.608-4.096 4.608h-10.368c-3.84 0-4.608-.256-4.608-3.328v-6.144c4.864 2.56 9.472 5.632 12.16 8.064l9.216-10.112c-1.28-1.024-2.944-2.176-4.736-3.328h27.52v6.656Zm-10.752 24.704-2.944.512h-24.32c1.408-1.408 2.816-2.944 3.968-4.48h6.912c9.6 0 13.824-2.304 15.616-10.496 5.12 4.736 9.728 9.984 12.16 14.08l13.184-9.856c-1.664-2.688-4.352-5.632-7.296-8.576h11.904v-26.496h-19.2c2.688-3.584 5.632-7.68 8.576-11.904l-10.496-3.2c5.376-.768 10.496-1.664 15.232-2.688l-12.288-12.16c-21.504 4.352-57.984 6.656-89.856 7.168 1.536 3.328 3.2 9.472 3.584 13.312l8.704-.128c2.048 2.816 4.096 6.4 5.632 9.6h-20.992v24.192h16.512c-3.328 4.608-7.808 8.704-12.8 11.52l12.672 10.24c6.656-4.48 11.52-10.496 15.232-16.896.512 5.888 2.304 9.216 7.168 10.88-9.088 8.448-23.424 15.232-38.144 19.2 3.584 2.816 9.6 8.96 12.416 12.16 4.864-1.792 9.856-3.968 14.72-6.4a110.312 110.312 0 0 0 8.448 6.912c-11.648 2.816-24.832 4.48-38.912 5.248 3.328 3.584 7.936 11.008 9.6 15.232 17.408-1.792 33.92-4.992 48.256-10.368 13.952 5.504 30.464 8.704 49.152 10.112 2.304-4.864 6.784-12.544 10.624-16.512-14.336-.512-27.648-1.92-39.296-4.224 7.296-5.12 13.312-11.264 17.92-18.688l-11.648-7.296Zm109.314-8.448h8.06l-6.14 3.2c2.05 2.56 4.35 5.632 6.27 8.448h-8.19V842.12Zm17.66 11.648 5.12-2.816c-1.41-2.432-4.09-5.76-6.65-8.832h3.45v-15.488h-19.58v-8.704h22.14V801.8h-61.69v16.128h22.4v8.704h-19.2v15.488h19.2v11.648h-23.56v14.976h64.64v-14.976h-6.27Zm-61.44 19.712v-76.288h70.4v76.288h-70.4Zm-18.942-93.312v116.736h18.942v-6.272h70.4v6.272h19.97V780.168H994.088Zm166.142-.896h-36.99v13.824h36.99v-13.824Zm4.48 18.048h-48.51v14.464h48.51V797.32Zm-4.73 18.816h-37.51v13.824h37.51v-13.824Zm-37.51 32h37.51v-13.824h-37.51v13.824Zm22.91 19.072v10.88h-7.93v-10.88h7.93Zm15.75-14.464h-39.17v44.416h15.49v-4.608h23.68v-39.808Zm50.69 11.648v11.904h-21.89v-11.904h21.89Zm-39.3 32.768h17.41v-4.352h21.89v3.84h18.17V847.88h-57.47v49.28Zm37.25-80.384v9.856h-13.44c.64-3.072 1.15-6.4 1.79-9.856h11.65Zm17.79 9.856V801.16h-27.01l1.03-6.784h32v-15.744h-65.16v15.744h15.11l-.9 6.784h-12.16v15.616h9.73c-.51 3.456-1.15 6.784-1.79 9.856h-15.11v16.128h75.01v-16.128h-10.75Zm54.91 29.056v-10.496l6.79-.512a73.97 73.97 0 0 1 2.04 6.528l12.68-6.016v26.624c-2.18-6.4-5.51-14.336-8.58-20.864l-12.93 4.736Zm46.59 23.552c-5.63 0-6.4-.64-6.4-6.528v-34.56h17.54v7.424h18.69V782.6h-57.47v17.536h38.78v20.736h-36.22v17.28c-2.95-7.04-7.43-15.488-11.52-22.272l-13.7 6.144c1.28 2.432 2.69 4.992 3.97 7.68l-11.14.512c8.45-9.728 17.54-21.504 25.09-31.872l-15.74-7.68c-3.33 6.4-7.81 13.696-12.68 20.864a36.652 36.652 0 0 0-3.07-3.456c4.99-7.04 10.63-16.768 16-25.472l-16.89-6.912c-2.31 6.784-6.15 15.232-9.99 22.272l-2.43-1.92-8.32 12.928c5.12 4.48 11.01 10.496 14.98 15.872-1.67 2.176-3.33 4.224-5 6.272l-9.72.384 1.79 16c5.76-.384 12.41-.768 19.33-1.152v8.576l-16-2.816c-1.03 10.624-3.2 22.272-7.04 29.568 4.09 1.536 11.52 4.992 14.84 7.296 3.59-7.552 6.66-19.2 8.2-30.848v39.04h17.53v-36.736c2.95 7.168 6.02 15.488 7.3 21.12l14.21-5.76c.64 16.128 6.4 20.864 22.52 20.864h18.56c15.62 0 20.61-7.04 22.66-30.08-4.99-1.28-13.06-4.352-17.15-7.424-.77 17.024-1.67 20.096-7.04 20.096h-14.47Zm160.26-96.64h-62.34v17.664h62.34V782.6Zm-88.7-7.04c-6.02 8.832-18.31 20.48-28.93 27.136 3.2 3.712 7.93 11.136 10.24 15.36 12.67-8.704 26.88-22.4 36.61-35.072l-17.92-7.424Zm4.73 28.16c-8.19 14.464-22.14 29.312-35.07 38.272 3.71 3.84 9.98 12.288 12.54 16.256 2.69-2.176 5.38-4.736 8.2-7.296v46.208h18.68v-67.2c5-6.4 9.6-13.056 13.32-19.456l-17.67-6.784Zm87.17 14.464h-70.91v17.664h35.07v39.936c0 1.792-.77 2.304-3.07 2.304-2.31 0-10.75 0-17.03-.384 2.44 5.376 4.87 13.568 5.51 19.072 10.88 0 19.45-.256 25.6-3.072 6.4-2.816 8.06-7.936 8.06-17.408v-40.448h16.77v-17.664Zm91.39 64v4.352h-46.33v-4.352h46.33Zm-62.08-11.264h78.98v-7.808h-78.98v7.808Zm78.98-18.176h-78.98v7.808h78.98v-7.808Zm-98.56-2.688h117.63v-9.6h-117.63v9.6Zm23.68-19.584v7.808h70.4v-7.808h-70.4Zm3.07-12.288h-7.17v-3.328h7.17v3.328Zm-8.96 78.976h17.54v-1.92h46.33v1.92h18.43v-23.68h-82.3v23.68Zm74.88-101.248c-1.28 3.072-2.94 5.632-4.99 8.064a41.126 41.126 0 0 1-6.91-8.064h11.9Zm-54.14 11.136h-23.43l2.31-2.688H1545c-.51 8.32-1.28 11.904-2.05 13.184-.64.768-1.28 1.024-2.17 1.152v-11.648Zm78.97-11.136v-11.776h-33.02c.77-1.792 1.66-3.712 2.3-5.632l-14.33-3.328c-2.82 7.936-7.81 15.488-14.08 21.12v-.768h-35.46l.64-1.28-5.38-.896h9.6v-3.2h7.94v3.2h15.36v-3.2h11.52v-10.24h-11.52v-3.84h-15.36v3.84h-7.94v-3.84h-15.1v3.84h-11.78v10.24h11.78v2.304l-2.18-.384c-2.56 4.864-7.04 9.984-13.56 13.824 2.81 1.792 7.16 6.144 9.08 9.088.77-.512 1.54-1.024 2.18-1.664v12.8h27.14c.25 1.28.38 2.432.51 3.584 4.22.128 8.19 0 10.62-.384 2.69-.256 5.25-1.28 7.3-3.712 2.3-2.944 3.45-9.6 4.22-23.808 3.07 2.176 6.4 4.864 8.19 6.656 1.67-1.28 3.2-2.816 4.87-4.48 1.79 2.816 3.71 5.504 6.01 7.936-5.5 2.688-12.16 4.736-19.58 6.144 2.69 2.688 6.91 8.704 8.32 11.776 8.32-2.176 15.62-4.992 21.76-8.832 6.91 4.608 14.98 8.064 24.32 10.24 2.05-3.968 6.14-9.728 9.34-12.8-8.32-1.408-15.87-3.712-22.14-6.784 3.84-4.352 6.91-9.6 9.09-15.744h9.34Zm100.35 10.24c-1.66 4.864-3.96 9.6-6.78 13.824-1.79-4.608-3.33-9.856-4.61-15.36h36.87v-15.872h-12.16l3.45-3.584c-3.84-3.456-11.39-7.68-17.28-10.112l-10.49 10.624c1.79.896 3.71 1.92 5.63 3.072h-8.96c-.51-4.352-.9-8.832-1.03-13.184h-18.43c.26 4.48.51 8.832 1.03 13.184h-54.79v15.872h57.35c2.3 11.52 5.76 22.016 10.24 30.72-3.72 3.2-7.81 5.888-12.04 8.192 3.72 2.944 10.24 9.6 12.93 13.056 3.07-2.048 6.15-4.224 9.09-6.784 5.38 5.376 11.52 8.576 18.3 8.576 11.91 0 17.41-3.84 20.1-22.784-4.61-1.536-10.62-4.992-14.34-8.576-.76 9.984-1.92 13.696-4.73 13.696-2.31 0-4.61-1.408-6.91-3.968 6.14-7.808 11.13-16.64 14.84-26.368l-17.28-4.224Zm-65.53 14.208h11.65v5.504h-11.65v-5.504Zm29.05 17.408v-29.184h-45.44v29.184h45.44Zm-5.88 22.656c7.55 4.608 16.76 11.648 20.73 16.768l11.91-11.264c-4.48-5.12-13.96-11.648-21.51-15.744l-1.15 1.024V839.56c-20.1 1.408-41.73 2.816-56.45 3.456l1.03 15.488c14.2-.896 33.28-2.304 51.71-3.84l-6.27 5.76Zm-32 34.432c4.99-7.808 8.83-19.2 11.52-28.928l-16.64-6.4c-2.31 9.344-6.66 19.328-11.52 26.112l16.64 9.216Zm39.29-15.104c-6.4 0-7.55-.384-7.55-4.096v-12.928h-18.43v13.184c0 14.592 4.61 19.328 23.93 19.328h20.87c13.95 0 19.07-3.712 21.12-18.688-4.87-.896-12.55-3.456-16.13-6.016-.77 7.936-1.66 9.216-6.66 9.216h-17.15Zm34.82-15.104c4.99 9.344 9.98 21.632 11.52 29.312l18.69-5.888c-2.05-8.064-7.68-19.712-12.93-28.544l-17.28 5.12Z"/><path fill="#FF6D7F" d="M220.578 214v-40h10.86v15.625h14.374V174h10.86v40h-10.86v-15.625h-14.374V214h-10.86Zm41.406 0v-30h10.782v30h-10.782Zm5.391-33.125c-1.458 0-2.708-.482-3.75-1.445-1.042-.964-1.562-2.123-1.562-3.477 0-1.354.52-2.513 1.562-3.476 1.042-.964 2.292-1.446 3.75-1.446 1.471 0 2.721.482 3.75 1.446 1.042.963 1.563 2.122 1.563 3.476s-.521 2.513-1.563 3.477c-1.029.963-2.279 1.445-3.75 1.445ZM278.259 214v-30h10.469v5.703h.312c.547-2.109 1.413-3.652 2.598-4.629 1.198-.976 2.597-1.465 4.199-1.465.469 0 .931.039 1.387.118.468.065.918.162 1.347.293v9.199c-.534-.183-1.191-.319-1.972-.41a17.561 17.561 0 0 0-2.012-.137c-1.055 0-2.005.241-2.852.723a5.078 5.078 0 0 0-1.972 1.992c-.482.846-.723 1.842-.723 2.988V214h-10.781Zm30.81.469c-1.914 0-3.606-.313-5.078-.938-1.458-.638-2.604-1.601-3.437-2.89-.834-1.289-1.25-2.93-1.25-4.922 0-1.641.28-3.041.84-4.199a7.567 7.567 0 0 1 2.343-2.872c1.003-.742 2.168-1.308 3.496-1.699a21.313 21.313 0 0 1 4.336-.762c1.68-.13 3.028-.286 4.043-.468 1.029-.196 1.771-.462 2.227-.801.456-.352.683-.814.683-1.387v-.078c0-.781-.299-1.38-.898-1.797-.599-.416-1.367-.625-2.305-.625-1.028 0-1.868.228-2.519.684-.638.443-1.022 1.126-1.153 2.051h-9.921c.13-1.823.709-3.503 1.738-5.039 1.042-1.55 2.558-2.787 4.551-3.711 1.992-.938 4.479-1.407 7.461-1.407 2.148 0 4.075.254 5.781.762 1.706.495 3.157 1.191 4.355 2.09 1.198.885 2.11 1.927 2.735 3.125a8.029 8.029 0 0 1 .957 3.867V214h-10.078v-4.219h-.235c-.599 1.12-1.328 2.025-2.187 2.715a8.07 8.07 0 0 1-2.91 1.504c-1.081.313-2.273.469-3.575.469Zm3.516-6.797a5.32 5.32 0 0 0 2.305-.508 4.44 4.44 0 0 0 1.777-1.465c.456-.638.684-1.413.684-2.324v-2.5c-.287.117-.593.228-.918.332a18.665 18.665 0 0 1-2.149.547c-.39.078-.801.15-1.23.215-.834.13-1.517.345-2.051.644-.521.287-.912.645-1.172 1.075a2.702 2.702 0 0 0-.371 1.406c0 .833.293 1.471.879 1.914.586.443 1.335.664 2.246.664Zm35.073 18.203c-3.008 0-5.586-.43-7.734-1.289-2.136-.846-3.796-2.018-4.981-3.516-1.172-1.484-1.829-3.19-1.972-5.117h10.39c.104.638.365 1.152.782 1.543.416.391.95.671 1.601.84.664.182 1.406.273 2.227.273 1.393 0 2.545-.338 3.457-1.015.924-.677 1.386-1.901 1.386-3.672v-5.078h-.312a6.586 6.586 0 0 1-1.797 2.597c-.807.704-1.777 1.244-2.91 1.621-1.133.365-2.376.547-3.731.547-2.135 0-4.101-.494-5.898-1.484-1.784-.99-3.216-2.559-4.297-4.707-1.068-2.148-1.601-4.954-1.601-8.418 0-3.62.559-6.563 1.679-8.828 1.133-2.266 2.591-3.926 4.375-4.981 1.797-1.054 3.685-1.582 5.664-1.582 1.485 0 2.787.261 3.907.782 1.119.507 2.057 1.191 2.812 2.05a9.08 9.08 0 0 1 1.719 2.793h.234V184h10.781v29.922c0 2.539-.657 4.694-1.972 6.465-1.302 1.784-3.138 3.144-5.508 4.082-2.37.937-5.137 1.406-8.301 1.406Zm.391-19.922c.989 0 1.836-.273 2.539-.82.716-.56 1.263-1.354 1.641-2.383.39-1.042.585-2.292.585-3.75 0-1.484-.195-2.754-.585-3.809-.378-1.067-.925-1.881-1.641-2.441-.703-.573-1.55-.859-2.539-.859-.99 0-1.836.286-2.539.859-.69.56-1.224 1.374-1.602 2.441-.364 1.055-.547 2.325-.547 3.809s.183 2.747.547 3.789c.378 1.029.912 1.816 1.602 2.363.703.534 1.549.801 2.539.801Zm29.233 8.516c-1.914 0-3.607-.313-5.078-.938-1.458-.638-2.604-1.601-3.437-2.89-.834-1.289-1.25-2.93-1.25-4.922 0-1.641.28-3.041.839-4.199a7.579 7.579 0 0 1 2.344-2.872c1.003-.742 2.168-1.308 3.496-1.699a21.3 21.3 0 0 1 4.336-.762c1.68-.13 3.028-.286 4.043-.468 1.029-.196 1.771-.462 2.227-.801a1.67 1.67 0 0 0 .683-1.387v-.078c0-.781-.299-1.38-.898-1.797-.599-.416-1.367-.625-2.305-.625-1.028 0-1.868.228-2.519.684-.638.443-1.022 1.126-1.153 2.051h-9.922c.131-1.823.71-3.503 1.739-5.039 1.041-1.55 2.558-2.787 4.551-3.711 1.992-.938 4.479-1.407 7.46-1.407 2.149 0 4.076.254 5.782.762 1.705.495 3.157 1.191 4.355 2.09 1.198.885 2.11 1.927 2.735 3.125a8.029 8.029 0 0 1 .957 3.867V214h-10.079v-4.219h-.234c-.599 1.12-1.328 2.025-2.187 2.715a8.066 8.066 0 0 1-2.911 1.504c-1.08.313-2.272.469-3.574.469Zm3.516-6.797c.82 0 1.588-.169 2.305-.508a4.44 4.44 0 0 0 1.777-1.465c.456-.638.683-1.413.683-2.324v-2.5a12.43 12.43 0 0 1-.917.332 18.665 18.665 0 0 1-2.149.547c-.391.078-.801.15-1.23.215-.834.13-1.517.345-2.051.644-.521.287-.912.645-1.172 1.075a2.702 2.702 0 0 0-.371 1.406c0 .833.293 1.471.879 1.914.586.443 1.334.664 2.246.664Zm31.401-10.547V214h-10.781v-30h10.234v5.703h.313c.651-1.901 1.797-3.392 3.437-4.473 1.654-1.08 3.581-1.621 5.782-1.621 2.122 0 3.964.489 5.527 1.465 1.575.964 2.793 2.292 3.652 3.985.873 1.692 1.302 3.626 1.289 5.8V214h-10.781v-16.875c.013-1.484-.364-2.65-1.133-3.496-.755-.846-1.81-1.27-3.164-1.27-.885 0-1.66.196-2.324.586-.651.378-1.152.925-1.504 1.641-.351.703-.534 1.549-.547 2.539Zm33.135 17.344c-1.914 0-3.607-.313-5.078-.938-1.458-.638-2.604-1.601-3.438-2.89-.833-1.289-1.25-2.93-1.25-4.922 0-1.641.28-3.041.84-4.199a7.57 7.57 0 0 1 2.344-2.872c1.003-.742 2.168-1.308 3.496-1.699a21.3 21.3 0 0 1 4.336-.762c1.68-.13 3.027-.286 4.043-.468 1.029-.196 1.771-.462 2.227-.801a1.67 1.67 0 0 0 .683-1.387v-.078c0-.781-.299-1.38-.898-1.797-.599-.416-1.368-.625-2.305-.625-1.029 0-1.869.228-2.52.684-.638.443-1.022 1.126-1.152 2.051h-9.922c.13-1.823.71-3.503 1.739-5.039 1.041-1.55 2.558-2.787 4.55-3.711 1.992-.938 4.479-1.407 7.461-1.407 2.149 0 4.076.254 5.781.762 1.706.495 3.158 1.191 4.356 2.09 1.198.885 2.109 1.927 2.734 3.125a8.029 8.029 0 0 1 .957 3.867V214H454.24v-4.219h-.234c-.599 1.12-1.328 2.025-2.188 2.715a8.053 8.053 0 0 1-2.91 1.504c-1.081.313-2.272.469-3.574.469Zm3.516-6.797c.82 0 1.588-.169 2.304-.508a4.443 4.443 0 0 0 1.778-1.465c.455-.638.683-1.413.683-2.324v-2.5c-.286.117-.592.228-.918.332a18.837 18.837 0 0 1-2.148.547c-.391.078-.801.15-1.231.215-.833.13-1.517.345-2.05.644-.521.287-.912.645-1.172 1.075a2.693 2.693 0 0 0-.371 1.406c0 .833.293 1.471.879 1.914.585.443 1.334.664 2.246.664ZM220.578 530v-40h10.86v16.172h.546L244.016 490h12.656l-13.516 17.812L256.984 530h-12.968l-8.985-15-3.593 4.688V530h-10.86Zm47.832.469c-1.914 0-3.607-.313-5.078-.938-1.458-.638-2.604-1.601-3.437-2.89-.834-1.289-1.25-2.93-1.25-4.922 0-1.641.279-3.041.839-4.199a7.579 7.579 0 0 1 2.344-2.872c1.003-.742 2.168-1.308 3.496-1.699a21.3 21.3 0 0 1 4.336-.762c1.68-.13 3.028-.286 4.043-.468 1.029-.196 1.771-.462 2.227-.801a1.67 1.67 0 0 0 .683-1.387v-.078c0-.781-.299-1.38-.898-1.797-.599-.416-1.367-.625-2.305-.625-1.028 0-1.868.228-2.519.684-.638.443-1.023 1.126-1.153 2.051h-9.922c.131-1.823.71-3.503 1.739-5.039 1.041-1.55 2.558-2.787 4.55-3.711 1.993-.938 4.48-1.407 7.461-1.407 2.149 0 4.076.254 5.782.762 1.705.495 3.157 1.191 4.355 2.09 1.198.885 2.11 1.927 2.735 3.125a8.029 8.029 0 0 1 .957 3.867V530h-10.079v-4.219h-.234c-.599 1.12-1.328 2.025-2.187 2.715a8.066 8.066 0 0 1-2.911 1.504c-1.08.313-2.272.469-3.574.469Zm3.516-6.797c.82 0 1.588-.169 2.304-.508a4.436 4.436 0 0 0 1.778-1.465c.456-.638.683-1.413.683-2.324v-2.5c-.286.117-.592.228-.918.332a18.665 18.665 0 0 1-2.148.547c-.391.078-.801.15-1.23.215-.834.13-1.517.345-2.051.644-.521.287-.912.645-1.172 1.075a2.693 2.693 0 0 0-.371 1.406c0 .833.293 1.471.879 1.914.586.443 1.334.664 2.246.664ZM310.437 500v7.812h-19.766V500h19.766Zm-15.938-7.188h10.781v27.54c0 .416.072.768.215 1.054.143.274.365.482.664.625.3.13.684.196 1.153.196.325 0 .703-.04 1.132-.118.443-.078.769-.143.977-.195l1.562 7.578c-.481.143-1.171.319-2.07.528-.885.208-1.94.345-3.164.41-2.474.13-4.551-.124-6.23-.762-1.68-.651-2.943-1.673-3.79-3.066-.846-1.394-1.256-3.138-1.23-5.235v-28.555Zm28.696 37.657c-1.914 0-3.606-.313-5.078-.938-1.458-.638-2.604-1.601-3.437-2.89-.834-1.289-1.25-2.93-1.25-4.922 0-1.641.28-3.041.84-4.199a7.567 7.567 0 0 1 2.343-2.872c1.003-.742 2.168-1.308 3.496-1.699a21.313 21.313 0 0 1 4.336-.762c1.68-.13 3.028-.286 4.043-.468 1.029-.196 1.771-.462 2.227-.801.456-.352.683-.814.683-1.387v-.078c0-.781-.299-1.38-.898-1.797-.599-.416-1.367-.625-2.305-.625-1.028 0-1.868.228-2.519.684-.638.443-1.022 1.126-1.153 2.051h-9.921c.13-1.823.709-3.503 1.738-5.039 1.042-1.55 2.558-2.787 4.551-3.711 1.992-.938 4.479-1.407 7.461-1.407 2.148 0 4.075.254 5.781.762 1.706.495 3.157 1.191 4.355 2.09 1.198.885 2.11 1.927 2.735 3.125a8.029 8.029 0 0 1 .957 3.867V530h-10.078v-4.219h-.235c-.599 1.12-1.328 2.025-2.187 2.715a8.07 8.07 0 0 1-2.91 1.504c-1.081.313-2.273.469-3.575.469Zm3.516-6.797c.82 0 1.588-.169 2.305-.508a4.44 4.44 0 0 0 1.777-1.465c.456-.638.684-1.413.684-2.324v-2.5c-.287.117-.593.228-.918.332a18.665 18.665 0 0 1-2.149.547c-.39.078-.801.15-1.23.215-.834.13-1.517.345-2.051.644-.521.287-.912.645-1.172 1.075a2.702 2.702 0 0 0-.371 1.406c0 .833.293 1.471.879 1.914.586.443 1.334.664 2.246.664Zm30.308-.781.078-12.813h1.406L365.769 500h12.109l-12.188 15.703h-3.046l-5.625 7.188ZM347.331 530v-40h10.781v40h-10.781Zm18.516 0-6.875-11.875 7.031-7.656L378.19 530h-12.343Zm23.198.469c-1.914 0-3.607-.313-5.078-.938-1.459-.638-2.604-1.601-3.438-2.89-.833-1.289-1.25-2.93-1.25-4.922 0-1.641.28-3.041.84-4.199a7.57 7.57 0 0 1 2.344-2.872c1.002-.742 2.168-1.308 3.496-1.699a21.288 21.288 0 0 1 4.336-.762c1.68-.13 3.027-.286 4.043-.468 1.029-.196 1.771-.462 2.226-.801.456-.352.684-.814.684-1.387v-.078c0-.781-.299-1.38-.898-1.797-.599-.416-1.368-.625-2.305-.625-1.029 0-1.869.228-2.52.684-.638.443-1.022 1.126-1.152 2.051h-9.922c.13-1.823.71-3.503 1.738-5.039 1.042-1.55 2.559-2.787 4.551-3.711 1.992-.938 4.479-1.407 7.461-1.407 2.149 0 4.076.254 5.781.762 1.706.495 3.158 1.191 4.356 2.09 1.198.885 2.109 1.927 2.734 3.125a8.029 8.029 0 0 1 .957 3.867V530h-10.078v-4.219h-.234c-.599 1.12-1.328 2.025-2.188 2.715a8.053 8.053 0 0 1-2.91 1.504c-1.081.313-2.272.469-3.574.469Zm3.516-6.797c.82 0 1.588-.169 2.304-.508a4.443 4.443 0 0 0 1.778-1.465c.455-.638.683-1.413.683-2.324v-2.5c-.286.117-.592.228-.918.332a18.837 18.837 0 0 1-2.148.547c-.391.078-.801.15-1.231.215-.833.13-1.517.345-2.05.644-.521.287-.912.645-1.172 1.075a2.693 2.693 0 0 0-.371 1.406c0 .833.293 1.471.878 1.914.586.443 1.335.664 2.247.664Zm31.401-10.547V530h-10.781v-30h10.234v5.703h.313c.651-1.901 1.796-3.392 3.437-4.473 1.654-1.08 3.581-1.621 5.781-1.621 2.123 0 3.965.489 5.528 1.465 1.575.964 2.793 2.292 3.652 3.985.872 1.692 1.302 3.626 1.289 5.8V530h-10.781v-16.875c.013-1.484-.365-2.65-1.133-3.496-.755-.846-1.81-1.27-3.164-1.27-.886 0-1.66.196-2.324.586-.651.378-1.153.925-1.504 1.641-.352.703-.534 1.549-.547 2.539Zm33.135 17.344c-1.914 0-3.607-.313-5.078-.938-1.459-.638-2.605-1.601-3.438-2.89-.833-1.289-1.25-2.93-1.25-4.922 0-1.641.28-3.041.84-4.199a7.57 7.57 0 0 1 2.344-2.872c1.002-.742 2.168-1.308 3.496-1.699a21.288 21.288 0 0 1 4.336-.762c1.679-.13 3.027-.286 4.043-.468 1.028-.196 1.77-.462 2.226-.801.456-.352.684-.814.684-1.387v-.078c0-.781-.3-1.38-.899-1.797-.599-.416-1.367-.625-2.304-.625-1.029 0-1.869.228-2.52.684-.638.443-1.022 1.126-1.152 2.051h-9.922c.13-1.823.71-3.503 1.738-5.039 1.042-1.55 2.559-2.787 4.551-3.711 1.992-.938 4.479-1.407 7.461-1.407 2.148 0 4.075.254 5.781.762 1.706.495 3.158 1.191 4.356 2.09 1.198.885 2.109 1.927 2.734 3.125a8.029 8.029 0 0 1 .957 3.867V530h-10.078v-4.219h-.234c-.599 1.12-1.329 2.025-2.188 2.715a8.053 8.053 0 0 1-2.91 1.504c-1.081.313-2.272.469-3.574.469Zm3.515-6.797c.821 0 1.589-.169 2.305-.508a4.433 4.433 0 0 0 1.777-1.465c.456-.638.684-1.413.684-2.324v-2.5c-.287.117-.593.228-.918.332a18.626 18.626 0 0 1-2.148.547c-.391.078-.801.15-1.231.215-.833.13-1.517.345-2.051.644-.521.287-.911.645-1.172 1.075a2.702 2.702 0 0 0-.371 1.406c0 .833.293 1.471.879 1.914.586.443 1.335.664 2.246.664ZM220.578 850v-40h10.86v16.172h.546L244.016 810h12.656l-13.516 17.812L256.984 850h-12.968l-8.985-15-3.593 4.688V850h-10.86Zm47.832.469c-1.914 0-3.607-.313-5.078-.938-1.458-.638-2.604-1.601-3.437-2.89-.834-1.289-1.25-2.93-1.25-4.922 0-1.641.279-3.041.839-4.199a7.579 7.579 0 0 1 2.344-2.872c1.003-.742 2.168-1.308 3.496-1.699a21.3 21.3 0 0 1 4.336-.762c1.68-.13 3.028-.286 4.043-.468 1.029-.196 1.771-.462 2.227-.801a1.67 1.67 0 0 0 .683-1.387v-.078c0-.781-.299-1.38-.898-1.797-.599-.416-1.367-.625-2.305-.625-1.028 0-1.868.228-2.519.684-.638.443-1.023 1.126-1.153 2.051h-9.922c.131-1.823.71-3.503 1.739-5.039 1.041-1.55 2.558-2.787 4.55-3.711 1.993-.938 4.48-1.407 7.461-1.407 2.149 0 4.076.254 5.782.762 1.705.495 3.157 1.191 4.355 2.09 1.198.885 2.11 1.927 2.735 3.125a8.029 8.029 0 0 1 .957 3.867V850h-10.079v-4.219h-.234c-.599 1.12-1.328 2.025-2.187 2.715a8.066 8.066 0 0 1-2.911 1.504c-1.08.313-2.272.469-3.574.469Zm3.516-6.797c.82 0 1.588-.169 2.304-.508a4.436 4.436 0 0 0 1.778-1.465c.456-.638.683-1.413.683-2.324v-2.5c-.286.117-.592.228-.918.332a18.665 18.665 0 0 1-2.148.547c-.391.078-.801.15-1.23.215-.834.13-1.517.345-2.051.644-.521.287-.912.645-1.172 1.075a2.693 2.693 0 0 0-.371 1.406c0 .833.293 1.471.879 1.914.586.443 1.334.664 2.246.664Zm31.401-10.547V850h-10.781v-30h10.234v5.703h.313c.651-1.901 1.797-3.392 3.437-4.473 1.654-1.08 3.581-1.621 5.782-1.621 2.122 0 3.964.489 5.527 1.465 1.575.964 2.793 2.292 3.652 3.985.873 1.692 1.302 3.626 1.289 5.8V850h-10.781v-16.875c.013-1.484-.365-2.65-1.133-3.496-.755-.846-1.81-1.27-3.164-1.27-.885 0-1.66.196-2.324.586-.651.378-1.152.925-1.504 1.641-.352.703-.534 1.549-.547 2.539ZM328.103 820h10.781v31.016c0 2.63-.554 4.687-1.66 6.172-1.094 1.484-2.631 2.532-4.61 3.144-1.979.612-4.29.918-6.933.918-.391 0-.749-.007-1.075-.02a43.28 43.28 0 0 1-1.113-.058v-7.969c.261.026.488.046.684.059.182.013.371.019.566.019 1.289 0 2.168-.202 2.637-.605.482-.391.723-1.022.723-1.895V820Zm5.39-3.125c-1.458 0-2.708-.482-3.75-1.445-1.042-.964-1.562-2.123-1.562-3.477 0-1.354.52-2.513 1.562-3.476 1.042-.964 2.292-1.446 3.75-1.446 1.472 0 2.722.482 3.75 1.446 1.042.963 1.563 2.122 1.563 3.476s-.521 2.513-1.563 3.477c-1.028.963-2.278 1.445-3.75 1.445ZM344.377 850v-30h10.781v30h-10.781Zm5.391-33.125c-1.459 0-2.709-.482-3.75-1.445-1.042-.964-1.563-2.123-1.563-3.477 0-1.354.521-2.513 1.563-3.476 1.041-.964 2.291-1.446 3.75-1.446 1.471 0 2.721.482 3.75 1.446 1.041.963 1.562 2.122 1.562 3.476s-.521 2.513-1.562 3.477c-1.029.963-2.279 1.445-3.75 1.445Z"/></svg>