<svg xmlns="http://www.w3.org/2000/svg" width="1920" height="1080" fill="none"><path fill="#FF6D7F" d="m1592 377.2-62.4-1.6c.4 8-.4 18.8-1.2 26.8-.4 5.2-1.2 10.4-2 16h-9.6c-28.4 0-63.6-3.6-78-5.6l1.6 55.2c20 .8 51.2 2.8 74.4 2.8h6.4c-1.6 14.8-2.8 30-3.6 45.2-56.4 27.2-97.2 81.2-97.2 132.8 0 44.4 26.8 62.8 57.6 62.8 20.4 0 40.8-5.6 58.8-13.6 1.6 4.8 2.8 9.6 4.4 13.6l55.6-16.4c-3.2-9.2-6-18.8-8.8-28.4 28.8-23.6 60-64 81.2-116.4 21.6 10 32.8 28 32.8 48.4 0 32.4-24 72.4-104 81.2l32 50.8c101.2-15.2 132-72.8 132-129.2 0-47.6-31.2-83.2-76-99.6 2.4-7.2 5.2-14.4 6.8-18.4l-58.8-14c-.4 5.6-1.6 14.4-3.2 22.8h-2.4c-18.8 0-38 2-55.6 5.6l2.4-28.8c49.6-2 103.2-7.2 140.8-14l-.4-55.6c-45.2 11.2-85.6 16-132.8 17.6.8-5.6 2-11.6 3.2-16.8 1.6-6.8 3.2-14 6-23.2Zm-114.8 258.4c0-17.2 15.2-42.4 40-61.6 1.2 24.4 4 48 7.6 69.2-11.6 6.4-22.8 9.6-31.6 9.6-12 0-16-6-16-17.2Zm94-86.8c12.8-3.6 27.2-6.4 44-7.2-11.2 25.6-25.2 45.2-40.4 61.6-2-16.4-3.2-34.4-3.6-54.4Z"/><path fill="#1A73E8" d="M200.8 445.6h224.8v46H488V392H344v-32.4h-62.4V392h-140v99.6h59.2v-46Zm162 116c-7.2 25.6-18.8 46-34.4 62.8-23.6-8.4-46.4-16-67.6-22.4 6.8-12.8 14-26.4 21.2-40.4h80.8Zm130.8 0v-54.8H308.8c7.2-14.8 14.4-29.6 20.8-43.6L268 450.4c-7.6 18-16.8 36.8-26 56.4H135.2v54.8H214c-16 30.4-32.4 59.2-46 81.6l61.6 16.4 6-10.4c11.6 3.6 23.2 8 34.8 12.4-33.6 13.6-76 21.2-126.8 25.2 10.8 12.8 27.2 39.2 32.4 53.2 66-9.2 120-24 161.6-50.8 37.6 16.8 71.6 34 94 49.2l47.6-47.2c-24-14.4-57.2-30-93.2-44.8 18.8-22.8 33.6-50.8 44.4-84.8h63.2Z"/><path fill="#D2E3FC" d="M846.8 445.6h224.8v46h62.4V392H990v-32.4h-62.4V392h-140v99.6h59.2v-46Zm162 116c-7.2 25.6-18.8 46-34.4 62.8-23.6-8.4-46.4-16-67.6-22.4 6.8-12.8 14-26.4 21.2-40.4h80.8Zm130.8 0v-54.8H954.8c7.2-14.8 14.4-29.6 20.8-43.6L914 450.4c-7.6 18-16.8 36.8-26 56.4H781.2v54.8H860c-16 30.4-32.4 59.2-46 81.6l61.6 16.4 6-10.4c11.6 3.6 23.2 8 34.8 12.4-33.6 13.6-76 21.2-126.8 25.2 10.8 12.8 27.2 39.2 32.4 53.2 66-9.2 120-24 161.6-50.8 37.6 16.8 71.6 34 94 49.2l47.6-47.2c-24-14.4-57.2-30-93.2-44.8 18.8-22.8 33.6-50.8 44.4-84.8h63.2Z"/><path fill="#1A73E8" d="M246.62 272v-40h10.859v16.172h.547L270.057 232h12.656l-13.515 17.812L283.026 272h-12.969l-8.984-15-3.594 4.688V272H246.62Zm47.832.469c-1.914 0-3.607-.313-5.078-.938-1.459-.638-2.605-1.601-3.438-2.89-.833-1.289-1.25-2.93-1.25-4.922 0-1.641.28-3.041.84-4.199a7.57 7.57 0 0 1 2.344-2.872c1.002-.742 2.168-1.308 3.496-1.699a21.288 21.288 0 0 1 4.336-.762c1.679-.13 3.027-.286 4.043-.468 1.028-.196 1.77-.462 2.226-.801.456-.352.684-.814.684-1.387v-.078c0-.781-.3-1.38-.899-1.797-.599-.416-1.367-.625-2.304-.625-1.029 0-1.869.228-2.52.684-.638.443-1.022 1.126-1.152 2.051h-9.922c.13-1.823.71-3.503 1.738-5.039 1.042-1.55 2.559-2.787 4.551-3.711 1.992-.938 4.479-1.407 7.461-1.407 2.148 0 4.075.254 5.781.762 1.706.495 3.158 1.191 4.356 2.09 1.198.885 2.109 1.927 2.734 3.125a8.029 8.029 0 0 1 .957 3.867V272h-10.078v-4.219h-.234c-.599 1.12-1.329 2.025-2.188 2.715a8.053 8.053 0 0 1-2.91 1.504c-1.081.313-2.272.469-3.574.469Zm3.515-6.797c.821 0 1.589-.169 2.305-.508a4.433 4.433 0 0 0 1.777-1.465c.456-.638.684-1.413.684-2.324v-2.5c-.287.117-.593.228-.918.332a18.626 18.626 0 0 1-2.148.547c-.391.078-.801.15-1.231.215-.833.13-1.517.345-2.051.644-.521.287-.911.645-1.172 1.075a2.702 2.702 0 0 0-.371 1.406c0 .833.293 1.471.879 1.914.586.443 1.335.664 2.246.664Zm31.402-10.547V272h-10.782v-30h10.235v5.703h.312c.651-1.901 1.797-3.392 3.438-4.473 1.653-1.08 3.581-1.621 5.781-1.621 2.122 0 3.965.489 5.527 1.465 1.576.964 2.793 2.292 3.653 3.985.872 1.692 1.302 3.626 1.289 5.8V272h-10.781v-16.875c.013-1.484-.365-2.65-1.133-3.496-.755-.846-1.81-1.27-3.164-1.27-.886 0-1.661.196-2.325.586-.651.378-1.152.925-1.503 1.641-.352.703-.534 1.549-.547 2.539ZM354.144 242h10.781v31.016c0 2.63-.553 4.687-1.66 6.172-1.094 1.484-2.63 2.532-4.609 3.144-1.979.612-4.291.918-6.934.918-.39 0-.749-.007-1.074-.02-.339-.013-.71-.032-1.113-.058v-7.969c.26.026.488.046.683.059.183.013.371.019.567.019 1.289 0 2.168-.202 2.636-.605.482-.391.723-1.022.723-1.895V242Zm5.391-3.125c-1.459 0-2.709-.482-3.75-1.445-1.042-.964-1.563-2.123-1.563-3.477 0-1.354.521-2.513 1.563-3.476 1.041-.964 2.291-1.446 3.75-1.446 1.471 0 2.721.482 3.75 1.446 1.041.963 1.562 2.122 1.562 3.476s-.521 2.513-1.562 3.477c-1.029.963-2.279 1.445-3.75 1.445ZM370.418 272v-30H381.2v30h-10.782Zm5.391-33.125c-1.458 0-2.708-.482-3.75-1.445-1.042-.964-1.562-2.123-1.562-3.477 0-1.354.52-2.513 1.562-3.476 1.042-.964 2.292-1.446 3.75-1.446 1.471 0 2.721.482 3.75 1.446 1.042.963 1.563 2.122 1.563 3.476s-.521 2.513-1.563 3.477c-1.029.963-2.279 1.445-3.75 1.445ZM892.275 247h-11.016c-.078-.911-.286-1.738-.625-2.48a5.59 5.59 0 0 0-1.367-1.915c-.573-.546-1.269-.963-2.09-1.25-.82-.299-1.751-.449-2.793-.449-1.823 0-3.366.443-4.629 1.328-1.25.886-2.2 2.155-2.851 3.809-.638 1.654-.957 3.639-.957 5.957 0 2.448.325 4.499.976 6.152.664 1.641 1.621 2.878 2.871 3.711 1.25.821 2.754 1.231 4.512 1.231 1.003 0 1.901-.124 2.695-.371a6.329 6.329 0 0 0 2.071-1.114 5.763 5.763 0 0 0 1.426-1.738c.377-.69.631-1.465.761-2.324l11.016.078c-.13 1.693-.606 3.418-1.426 5.176-.82 1.745-1.986 3.359-3.496 4.844-1.497 1.471-3.353 2.656-5.566 3.554-2.214.899-4.786 1.348-7.715 1.348-3.672 0-6.966-.788-9.883-2.363-2.904-1.576-5.202-3.894-6.895-6.954-1.679-3.059-2.519-6.803-2.519-11.23 0-4.453.859-8.203 2.578-11.25 1.719-3.06 4.036-5.371 6.953-6.934 2.917-1.575 6.172-2.363 9.766-2.363 2.526 0 4.85.345 6.972 1.035 2.123.69 3.985 1.699 5.586 3.028 1.602 1.315 2.891 2.936 3.868 4.863.976 1.927 1.569 4.134 1.777 6.621Zm24.536 11.875V242h10.781v30h-10.234v-5.703h-.313c-.651 1.914-1.79 3.411-3.418 4.492-1.627 1.068-3.561 1.602-5.8 1.602-2.097 0-3.933-.482-5.508-1.446-1.563-.963-2.78-2.291-3.652-3.984-.86-1.693-1.296-3.633-1.309-5.82V242h10.781v16.875c.013 1.484.391 2.65 1.133 3.496.755.846 1.81 1.27 3.164 1.27.898 0 1.673-.189 2.324-.567a3.866 3.866 0 0 0 1.524-1.64c.364-.717.54-1.569.527-2.559ZM933.076 272v-30h10.468v5.703h.313c.547-2.109 1.413-3.652 2.598-4.629 1.198-.976 2.597-1.465 4.199-1.465.469 0 .931.039 1.387.118a8.74 8.74 0 0 1 1.347.293v9.199c-.534-.183-1.191-.319-1.972-.41a17.561 17.561 0 0 0-2.012-.137c-1.055 0-2.005.241-2.852.723a5.078 5.078 0 0 0-1.972 1.992c-.482.846-.723 1.842-.723 2.988V272h-10.781Zm51.269-20.234h-9.922a2.731 2.731 0 0 0-.644-1.582 3.613 3.613 0 0 0-1.465-1.016 4.98 4.98 0 0 0-1.953-.371c-.925 0-1.719.169-2.383.508-.664.338-.99.82-.977 1.445-.013.443.176.853.567 1.23.404.378 1.178.671 2.324.879l6.094 1.094c3.073.56 5.358 1.504 6.855 2.832 1.511 1.315 2.272 3.08 2.285 5.293-.013 2.136-.651 3.991-1.914 5.567-1.25 1.562-2.962 2.773-5.136 3.632-2.162.847-4.629 1.27-7.403 1.27-4.583 0-8.17-.938-10.761-2.813-2.579-1.875-4.017-4.349-4.317-7.422h10.703c.144.951.612 1.687 1.407 2.208.807.507 1.823.761 3.046.761.99 0 1.804-.169 2.442-.508.651-.338.983-.82.996-1.445-.013-.573-.3-1.029-.859-1.367-.547-.339-1.407-.612-2.579-.82l-5.312-.938c-3.06-.534-5.352-1.549-6.875-3.047-1.523-1.497-2.279-3.424-2.266-5.781-.013-2.083.534-3.848 1.641-5.293 1.12-1.458 2.715-2.565 4.785-3.32 2.083-.769 4.551-1.153 7.402-1.153 4.336 0 7.754.899 10.254 2.696 2.513 1.797 3.835 4.284 3.965 7.461ZM989.257 272v-30h10.783v30h-10.783Zm5.391-33.125c-1.458 0-2.708-.482-3.75-1.445-1.042-.964-1.563-2.123-1.563-3.477 0-1.354.521-2.513 1.563-3.476 1.042-.964 2.292-1.446 3.75-1.446 1.471 0 2.721.482 3.75 1.446 1.042.963 1.562 2.122 1.562 3.476s-.52 2.513-1.562 3.477c-1.029.963-2.279 1.445-3.75 1.445ZM1035.77 242l-10.08 30h-12.5l-10.08-30h11.33l4.84 19.844h.31l4.85-19.844h11.33Zm16.52 30.547c-3.2 0-5.96-.612-8.28-1.836a12.886 12.886 0 0 1-5.33-5.313c-1.24-2.317-1.85-5.091-1.85-8.32 0-3.099.62-5.807 1.87-8.125a13.445 13.445 0 0 1 5.29-5.41c2.28-1.289 4.97-1.934 8.07-1.934 2.27 0 4.32.352 6.15 1.055 1.84.703 3.41 1.725 4.71 3.066 1.3 1.329 2.3 2.943 3.01 4.844.7 1.901 1.05 4.043 1.05 6.426v2.5h-26.79v-5.938h16.87c-.01-.859-.23-1.614-.66-2.265a4.291 4.291 0 0 0-1.7-1.543c-.71-.378-1.51-.567-2.41-.567-.87 0-1.67.189-2.4.567-.73.364-1.31.872-1.76 1.523-.43.651-.65 1.413-.68 2.285v6.407c0 .963.2 1.823.61 2.578.4.755.98 1.348 1.73 1.777.76.43 1.67.645 2.74.645.74 0 1.42-.104 2.03-.313a4.501 4.501 0 0 0 1.6-.898c.44-.404.77-.886.98-1.446h9.84c-.34 2.084-1.14 3.894-2.4 5.43-1.26 1.524-2.94 2.709-5.02 3.555-2.07.833-4.49 1.25-7.27 1.25Z"/><path fill="#FF6D7F" d="M1465.71 272v-40h10.86v15.625h14.37V232h10.86v40h-10.86v-15.625h-14.37V272h-10.86Zm41.41 0v-30h10.78v30h-10.78Zm5.39-33.125c-1.46 0-2.71-.482-3.75-1.445-1.04-.964-1.57-2.123-1.57-3.477 0-1.354.53-2.513 1.57-3.476 1.04-.964 2.29-1.446 3.75-1.446 1.47 0 2.72.482 3.75 1.446 1.04.963 1.56 2.122 1.56 3.476s-.52 2.513-1.56 3.477c-1.03.963-2.28 1.445-3.75 1.445ZM1523.39 272v-30h10.47v5.703h.31c.55-2.109 1.42-3.652 2.6-4.629 1.2-.976 2.6-1.465 4.2-1.465.47 0 .93.039 1.39.118.46.065.91.162 1.34.293v9.199c-.53-.183-1.19-.319-1.97-.41a17.5 17.5 0 0 0-2.01-.137c-1.06 0-2.01.241-2.85.723a5.021 5.021 0 0 0-1.97 1.992c-.49.846-.73 1.842-.73 2.988V272h-10.78Zm30.81.469c-1.91 0-3.61-.313-5.08-.938-1.45-.638-2.6-1.601-3.43-2.89-.84-1.289-1.25-2.93-1.25-4.922 0-1.641.28-3.041.84-4.199.56-1.172 1.34-2.129 2.34-2.872 1-.742 2.17-1.308 3.5-1.699 1.34-.39 2.78-.644 4.33-.762 1.68-.13 3.03-.286 4.04-.468 1.03-.196 1.78-.462 2.23-.801.46-.352.68-.814.68-1.387v-.078c0-.781-.29-1.38-.89-1.797-.6-.416-1.37-.625-2.31-.625-1.03 0-1.87.228-2.52.684-.64.443-1.02 1.126-1.15 2.051h-9.92c.13-1.823.71-3.503 1.74-5.039 1.04-1.55 2.55-2.787 4.55-3.711 1.99-.938 4.48-1.407 7.46-1.407 2.15 0 4.07.254 5.78.762 1.7.495 3.16 1.191 4.35 2.09 1.2.885 2.11 1.927 2.74 3.125.64 1.185.96 2.474.96 3.867V272h-10.08v-4.219h-.24c-.6 1.12-1.32 2.025-2.18 2.715a8.118 8.118 0 0 1-2.91 1.504c-1.08.313-2.28.469-3.58.469Zm3.52-6.797c.82 0 1.59-.169 2.3-.508a4.469 4.469 0 0 0 1.78-1.465c.46-.638.68-1.413.68-2.324v-2.5c-.28.117-.59.228-.92.332-.31.104-.65.202-1.01.293-.35.091-.73.176-1.13.254-.39.078-.8.15-1.23.215-.84.13-1.52.345-2.05.644-.53.287-.92.645-1.18 1.075a2.77 2.77 0 0 0-.37 1.406c0 .833.3 1.471.88 1.914.59.443 1.34.664 2.25.664Zm35.07 18.203c-3.01 0-5.59-.43-7.73-1.289-2.14-.846-3.8-2.018-4.98-3.516-1.18-1.484-1.83-3.19-1.98-5.117h10.39c.11.638.37 1.152.78 1.543.42.391.96.671 1.61.84.66.182 1.4.273 2.22.273 1.4 0 2.55-.338 3.46-1.015.92-.677 1.39-1.901 1.39-3.672v-5.078h-.32a6.632 6.632 0 0 1-1.79 2.597c-.81.704-1.78 1.244-2.91 1.621-1.14.365-2.38.547-3.73.547-2.14 0-4.1-.494-5.9-1.484-1.79-.99-3.22-2.559-4.3-4.707-1.07-2.148-1.6-4.954-1.6-8.418 0-3.62.56-6.563 1.68-8.828 1.13-2.266 2.59-3.926 4.37-4.981 1.8-1.054 3.69-1.582 5.67-1.582 1.48 0 2.79.261 3.9.782 1.12.507 2.06 1.191 2.82 2.05a9.161 9.161 0 0 1 1.72 2.793h.23V242h10.78v29.922c0 2.539-.66 4.694-1.97 6.465-1.3 1.784-3.14 3.144-5.51 4.082-2.37.937-5.14 1.406-8.3 1.406Zm.39-19.922c.99 0 1.84-.273 2.54-.82.72-.56 1.26-1.354 1.64-2.383.39-1.042.59-2.292.59-3.75 0-1.484-.2-2.754-.59-3.809-.38-1.067-.92-1.881-1.64-2.441-.7-.573-1.55-.859-2.54-.859s-1.83.286-2.54.859c-.69.56-1.22 1.374-1.6 2.441-.36 1.055-.55 2.325-.55 3.809s.19 2.747.55 3.789c.38 1.029.91 1.816 1.6 2.363.71.534 1.55.801 2.54.801Zm29.23 8.516c-1.91 0-3.6-.313-5.07-.938-1.46-.638-2.61-1.601-3.44-2.89-.83-1.289-1.25-2.93-1.25-4.922 0-1.641.28-3.041.84-4.199.56-1.172 1.34-2.129 2.34-2.872 1.01-.742 2.17-1.308 3.5-1.699a21.34 21.34 0 0 1 4.33-.762c1.68-.13 3.03-.286 4.05-.468 1.03-.196 1.77-.462 2.22-.801.46-.352.69-.814.69-1.387v-.078c0-.781-.3-1.38-.9-1.797-.6-.416-1.37-.625-2.31-.625-1.02 0-1.86.228-2.51.684-.64.443-1.03 1.126-1.16 2.051h-9.92c.13-1.823.71-3.503 1.74-5.039 1.04-1.55 2.56-2.787 4.55-3.711 1.99-.938 4.48-1.407 7.46-1.407 2.15 0 4.08.254 5.78.762 1.71.495 3.16 1.191 4.36 2.09 1.2.885 2.11 1.927 2.73 3.125.64 1.185.96 2.474.96 3.867V272h-10.08v-4.219h-.23c-.6 1.12-1.33 2.025-2.19 2.715a8.118 8.118 0 0 1-2.91 1.504c-1.08.313-2.27.469-3.58.469Zm3.52-6.797c.82 0 1.59-.169 2.3-.508a4.402 4.402 0 0 0 1.78-1.465c.46-.638.69-1.413.69-2.324v-2.5c-.29.117-.6.228-.92.332-.31.104-.65.202-1.02.293-.35.091-.73.176-1.13.254-.39.078-.8.15-1.23.215-.83.13-1.52.345-2.05.644-.52.287-.91.645-1.17 1.075-.25.416-.37.885-.37 1.406 0 .833.29 1.471.87 1.914.59.443 1.34.664 2.25.664Zm31.4-10.547V272h-10.78v-30h10.23v5.703h.32c.65-1.901 1.79-3.392 3.43-4.473 1.66-1.08 3.59-1.621 5.79-1.621 2.12 0 3.96.489 5.52 1.465 1.58.964 2.8 2.292 3.66 3.985.87 1.692 1.3 3.626 1.28 5.8V272H1666v-16.875c.02-1.484-.36-2.65-1.13-3.496-.75-.846-1.81-1.27-3.16-1.27-.89 0-1.66.196-2.33.586-.65.378-1.15.925-1.5 1.641-.35.703-.54 1.549-.55 2.539Zm33.14 17.344c-1.92 0-3.61-.313-5.08-.938-1.46-.638-2.61-1.601-3.44-2.89-.83-1.289-1.25-2.93-1.25-4.922 0-1.641.28-3.041.84-4.199.56-1.172 1.34-2.129 2.34-2.872 1.01-.742 2.17-1.308 3.5-1.699 1.34-.39 2.79-.644 4.34-.762 1.68-.13 3.02-.286 4.04-.468 1.03-.196 1.77-.462 2.23-.801.45-.352.68-.814.68-1.387v-.078c0-.781-.3-1.38-.9-1.797-.6-.416-1.37-.625-2.3-.625-1.03 0-1.87.228-2.52.684-.64.443-1.03 1.126-1.16 2.051h-9.92c.13-1.823.71-3.503 1.74-5.039 1.04-1.55 2.56-2.787 4.55-3.711 1.99-.938 4.48-1.407 7.46-1.407 2.15 0 4.08.254 5.78.762 1.71.495 3.16 1.191 4.36 2.09 1.2.885 2.11 1.927 2.73 3.125.64 1.185.96 2.474.96 3.867V272h-10.08v-4.219h-.23c-.6 1.12-1.33 2.025-2.19 2.715a8.118 8.118 0 0 1-2.91 1.504c-1.08.313-2.27.469-3.57.469Zm3.51-6.797c.82 0 1.59-.169 2.31-.508a4.372 4.372 0 0 0 1.77-1.465c.46-.638.69-1.413.69-2.324v-2.5c-.29.117-.59.228-.92.332-.31.104-.65.202-1.02.293-.35.091-.73.176-1.13.254-.39.078-.8.15-1.23.215-.83.13-1.52.345-2.05.644-.52.287-.91.645-1.17 1.075-.25.416-.37.885-.37 1.406 0 .833.29 1.471.88 1.914.58.443 1.33.664 2.24.664Z"/><path stroke="#1A73E8" stroke-linecap="round" stroke-width="14" d="M770.628 468.891c42.851-1.937 147.962-11.952 225.593-36.52 97.039-30.71 120.259-35.69 142.659-20.75 22.39 14.94 18.24 57.27-9.13 66.4-27.37 9.13-66.46 9.142-113.62-9.13-51.426-19.92-87.919-73.87-151.782-79.68-63.862-5.81-45.817 109.9-41.469 129.48 11.611 52.29 31.517 100.429 90.403 137.779 58.886 37.35 113.298 19.92 126.068 8.3 16.69-15.188 14.93-38.18 0-53.119m-35.66-92.96c12.44 42.33 6.07 85.185-29.033 124.499-34.835 39.01-81.28 55.61-139.337 63.08-58.057 7.47-77.133-33.2-64.692-63.08 12.457-29.919 41.469-63.079 142.654-82.169 101.188-19.09 169.408-.805 204.028 17.43 47.28 24.9 49.72 78.019 34.01 103.749-21.57 35.313-68.01 49.8-101.19 49.8"/><path fill="#D2E3FC" d="M717.536 543.536a5.002 5.002 0 0 0 0-7.072l-31.82-31.819a5 5 0 0 0-7.071 0 5 5 0 0 0 0 7.071L706.929 540l-28.284 28.284a5 5 0 0 0 0 7.071 5 5 0 0 0 7.071 0l31.82-31.819ZM560 545h154v-10H560v10ZM1391.54 543.536a5.006 5.006 0 0 0 0-7.072l-31.82-31.819a5.01 5.01 0 0 0-7.08 0 5.005 5.005 0 0 0 0 7.071L1380.93 540l-28.29 28.284a5.005 5.005 0 0 0 0 7.071 5.01 5.01 0 0 0 7.08 0l31.82-31.819ZM1234 545h154v-10h-154v10Z"/></svg>