<svg xmlns="http://www.w3.org/2000/svg" width="1920" height="1080" fill="none"><path fill="#FF6D7F" d="m1775.2 431.2-38.4-35.6c-8.4 2.4-34.8 4-48 4h-207.6c-17.6 0-34.4-2-50.8-4.4V462c20.8-2 33.2-3.2 50.8-3.2h197.6c-8.8 16.8-36.4 47.2-66 66l50 40c36-26 74-76 94.4-109.6 4-6.4 13.2-18 18-24Zm-164.8 54.4H1540c2.4 14.4 3.2 26 3.2 40 0 65.2-10 99.2-54.4 132.8-16.8 12.8-31.6 19.6-45.6 24.4l56.4 46c112.8-62.8 110.8-149.2 110.8-243.2Z"/><path fill="#1A73E8" d="M349.2 525.2v61.2H328v-61.2h21.2Zm50.4 109.6v-158H279.2v180H328v-22h71.6Zm-208.8-206H212c-5.2 25.6-12.4 56.8-18.4 79.2 19.6 26 23.2 51.2 23.2 68.8 0 11.2-2 18.8-6 22-2.8 2-6.4 2.8-10 2.8-2.8.4-6.4 0-10 0V428.8ZM504.4 384H272v11.2l-36-20-8 2h-87.6v363.2h50.4V610c5.2 13.2 8 29.6 8 40.8 9.6 0 18.8 0 25.6-1.2 9.2-1.6 17.2-4.4 24-9.6 13.6-10.4 19.2-28 19.2-56.4 0-22.8-4-50.8-25.6-81.6 9.6-28.4 20.8-65.6 30-98.4v34h151.2v240.8c0 8-3.2 10.4-12.4 10.4-9.2.4-42.8.4-69.6-.8 6.8 14 14.8 36.8 16.8 51.6 42.8.4 73.2-.4 93.2-8.4 20-7.6 26.8-21.2 26.8-52V437.6h26.4V384Z"/><path fill="#D2E3FC" d="M995.2 525.2v61.2H974v-61.2h21.2Zm50.4 109.6v-158H925.2v180H974v-22h71.6ZM874 377.2l8-2 27.5 15.278 8.5 4.722v8.4c-9.2 32.8-20.4 70-30 98.4 21.6 30.8 25.6 58.8 25.6 81.6 0 28.4-5.6 46-19.2 56.4-6.8 5.2-14.8 8-24 9.6-6.799 1.2-16 1.2-25.6 1.2 0-11.2-2.8-27.6-8-40.8v130.4h-50.4V377.2H874Z"/><path fill="#D2E3FC" d="M858 428.8h-21.2v172.8c3.6 0 7.2.4 10 0 3.6 0 7.2-.8 10-2.8 4-3.2 6-10.8 6-22 0-17.6-3.6-42.8-23.2-68.8 6-22.4 13.2-53.6 18.4-79.2Z"/><path fill="#1A73E8" d="M919 384h231.4v53.6H1124v241.6c0 30.8-6.8 44.4-26.8 52-20 8-50.4 8.8-93.2 8.4-2-14.8-10-37.6-16.8-51.6 26.8 1.2 60.4 1.2 69.6.8 9.2 0 12.4-2.4 12.4-10.4V437.6H919V384ZM246.62 272v-40h10.859v16.172h.547L270.057 232h12.656l-13.515 17.812L283.026 272h-12.969l-8.984-15-3.594 4.688V272H246.62Zm47.832.469c-1.914 0-3.607-.313-5.078-.938-1.459-.638-2.605-1.601-3.438-2.89-.833-1.289-1.25-2.93-1.25-4.922 0-1.641.28-3.041.84-4.199a7.57 7.57 0 0 1 2.344-2.872c1.002-.742 2.168-1.308 3.496-1.699a21.288 21.288 0 0 1 4.336-.762c1.679-.13 3.027-.286 4.043-.468 1.028-.196 1.77-.462 2.226-.801.456-.352.684-.814.684-1.387v-.078c0-.781-.3-1.38-.899-1.797-.599-.416-1.367-.625-2.304-.625-1.029 0-1.869.228-2.52.684-.638.443-1.022 1.126-1.152 2.051h-9.922c.13-1.823.71-3.503 1.738-5.039 1.042-1.55 2.559-2.787 4.551-3.711 1.992-.938 4.479-1.407 7.461-1.407 2.148 0 4.075.254 5.781.762 1.706.495 3.158 1.191 4.356 2.09 1.198.885 2.109 1.927 2.734 3.125a8.029 8.029 0 0 1 .957 3.867V272h-10.078v-4.219h-.234c-.599 1.12-1.329 2.025-2.188 2.715a8.053 8.053 0 0 1-2.91 1.504c-1.081.313-2.272.469-3.574.469Zm3.515-6.797c.821 0 1.589-.169 2.305-.508a4.433 4.433 0 0 0 1.777-1.465c.456-.638.684-1.413.684-2.324v-2.5c-.287.117-.593.228-.918.332a18.626 18.626 0 0 1-2.148.547c-.391.078-.801.15-1.231.215-.833.13-1.517.345-2.051.644-.521.287-.911.645-1.172 1.075a2.702 2.702 0 0 0-.371 1.406c0 .833.293 1.471.879 1.914.586.443 1.335.664 2.246.664Zm31.402-10.547V272h-10.782v-30h10.235v5.703h.312c.651-1.901 1.797-3.392 3.438-4.473 1.653-1.08 3.581-1.621 5.781-1.621 2.122 0 3.965.489 5.527 1.465 1.576.964 2.793 2.292 3.653 3.985.872 1.692 1.302 3.626 1.289 5.8V272h-10.781v-16.875c.013-1.484-.365-2.65-1.133-3.496-.755-.846-1.81-1.27-3.164-1.27-.886 0-1.661.196-2.325.586-.651.378-1.152.925-1.503 1.641-.352.703-.534 1.549-.547 2.539ZM354.144 242h10.781v31.016c0 2.63-.553 4.687-1.66 6.172-1.094 1.484-2.63 2.532-4.609 3.144-1.979.612-4.291.918-6.934.918-.39 0-.749-.007-1.074-.02-.339-.013-.71-.032-1.113-.058v-7.969c.26.026.488.046.683.059.183.013.371.019.567.019 1.289 0 2.168-.202 2.636-.605.482-.391.723-1.022.723-1.895V242Zm5.391-3.125c-1.459 0-2.709-.482-3.75-1.445-1.042-.964-1.563-2.123-1.563-3.477 0-1.354.521-2.513 1.563-3.476 1.041-.964 2.291-1.446 3.75-1.446 1.471 0 2.721.482 3.75 1.446 1.041.963 1.562 2.122 1.562 3.476s-.521 2.513-1.562 3.477c-1.029.963-2.279 1.445-3.75 1.445ZM370.418 272v-30H381.2v30h-10.782Zm5.391-33.125c-1.458 0-2.708-.482-3.75-1.445-1.042-.964-1.562-2.123-1.562-3.477 0-1.354.52-2.513 1.562-3.476 1.042-.964 2.292-1.446 3.75-1.446 1.471 0 2.721.482 3.75 1.446 1.042.963 1.563 2.122 1.563 3.476s-.521 2.513-1.563 3.477c-1.029.963-2.279 1.445-3.75 1.445Z"/><path fill="#FF6D7F" d="M1459.83 272v-40h10.86v16.172h.55L1483.27 232h12.65l-13.51 17.812L1496.24 272h-12.97l-8.99-15-3.59 4.688V272h-10.86Zm47.83.469c-1.91 0-3.61-.313-5.08-.938-1.46-.638-2.6-1.601-3.43-2.89-.84-1.289-1.25-2.93-1.25-4.922 0-1.641.28-3.041.84-4.199.56-1.172 1.34-2.129 2.34-2.872 1-.742 2.17-1.308 3.5-1.699 1.34-.39 2.78-.644 4.33-.762 1.68-.13 3.03-.286 4.04-.468 1.03-.196 1.77-.462 2.23-.801.46-.352.68-.814.68-1.387v-.078c0-.781-.3-1.38-.89-1.797-.6-.416-1.37-.625-2.31-.625-1.03 0-1.87.228-2.52.684-.64.443-1.02 1.126-1.15 2.051h-9.92c.13-1.823.71-3.503 1.74-5.039 1.04-1.55 2.55-2.787 4.55-3.711 1.99-.938 4.48-1.407 7.46-1.407 2.15 0 4.07.254 5.78.762 1.7.495 3.16 1.191 4.35 2.09 1.2.885 2.11 1.927 2.74 3.125.64 1.185.96 2.474.96 3.867V272h-10.08v-4.219h-.24c-.6 1.12-1.33 2.025-2.18 2.715a8.118 8.118 0 0 1-2.91 1.504c-1.09.313-2.28.469-3.58.469Zm3.52-6.797c.82 0 1.59-.169 2.3-.508a4.469 4.469 0 0 0 1.78-1.465c.45-.638.68-1.413.68-2.324v-2.5c-.28.117-.59.228-.92.332-.31.104-.65.202-1.01.293-.35.091-.73.176-1.13.254-.39.078-.8.15-1.23.215-.84.13-1.52.345-2.06.644-.52.287-.91.645-1.17 1.075a2.77 2.77 0 0 0-.37 1.406c0 .833.29 1.471.88 1.914.59.443 1.34.664 2.25.664ZM1549.69 242v7.812h-19.77V242h19.77Zm-15.94-7.188h10.78v27.54c0 .416.07.768.22 1.054.14.274.36.482.66.625.3.13.68.196 1.15.196.33 0 .71-.04 1.14-.118.44-.078.76-.143.97-.195l1.56 7.578c-.48.143-1.17.319-2.07.528-.88.208-1.94.345-3.16.41-2.47.13-4.55-.124-6.23-.762-1.68-.651-2.94-1.673-3.79-3.066-.85-1.394-1.26-3.138-1.23-5.235v-28.555Zm28.7 37.657c-1.92 0-3.61-.313-5.08-.938-1.46-.638-2.61-1.601-3.44-2.89-.83-1.289-1.25-2.93-1.25-4.922 0-1.641.28-3.041.84-4.199.56-1.172 1.34-2.129 2.34-2.872 1.01-.742 2.17-1.308 3.5-1.699 1.34-.39 2.79-.644 4.34-.762 1.68-.13 3.02-.286 4.04-.468 1.03-.196 1.77-.462 2.23-.801.45-.352.68-.814.68-1.387v-.078c0-.781-.3-1.38-.9-1.797-.6-.416-1.37-.625-2.3-.625-1.03 0-1.87.228-2.52.684-.64.443-1.03 1.126-1.16 2.051h-9.92c.13-1.823.71-3.503 1.74-5.039 1.04-1.55 2.56-2.787 4.55-3.711 1.99-.938 4.48-1.407 7.46-1.407 2.15 0 4.08.254 5.78.762 1.71.495 3.16 1.191 4.36 2.09 1.2.885 2.11 1.927 2.73 3.125.64 1.185.96 2.474.96 3.867V272h-10.08v-4.219h-.23c-.6 1.12-1.33 2.025-2.19 2.715a8.118 8.118 0 0 1-2.91 1.504c-1.08.313-2.27.469-3.57.469Zm3.51-6.797c.82 0 1.59-.169 2.31-.508a4.372 4.372 0 0 0 1.77-1.465c.46-.638.69-1.413.69-2.324v-2.5c-.29.117-.59.228-.92.332-.31.104-.65.202-1.02.293-.35.091-.73.176-1.13.254-.39.078-.8.15-1.23.215-.83.13-1.52.345-2.05.644-.52.287-.91.645-1.17 1.075-.25.416-.37.885-.37 1.406 0 .833.29 1.471.88 1.914.58.443 1.33.664 2.24.664Zm30.31-.781.08-12.813h1.4l7.27-10.078h12.11l-12.19 15.703h-3.05l-5.62 7.188Zm-9.69 7.109v-40h10.78v40h-10.78Zm18.52 0-6.88-11.875 7.03-7.656L1617.44 272h-12.34Zm23.2.469c-1.92 0-3.61-.313-5.08-.938-1.46-.638-2.61-1.601-3.44-2.89-.83-1.289-1.25-2.93-1.25-4.922 0-1.641.28-3.041.84-4.199.56-1.172 1.34-2.129 2.34-2.872 1.01-.742 2.17-1.308 3.5-1.699 1.34-.39 2.79-.644 4.34-.762 1.68-.13 3.02-.286 4.04-.468 1.03-.196 1.77-.462 2.23-.801.45-.352.68-.814.68-1.387v-.078c0-.781-.3-1.38-.9-1.797-.6-.416-1.37-.625-2.3-.625-1.03 0-1.87.228-2.52.684-.64.443-1.03 1.126-1.16 2.051h-9.92c.13-1.823.71-3.503 1.74-5.039 1.04-1.55 2.56-2.787 4.55-3.711 1.99-.938 4.48-1.407 7.46-1.407 2.15 0 4.08.254 5.78.762 1.71.495 3.16 1.191 4.36 2.09 1.2.885 2.11 1.927 2.73 3.125.64 1.185.96 2.474.96 3.867V272h-10.08v-4.219h-.23c-.6 1.12-1.33 2.025-2.19 2.715a8.118 8.118 0 0 1-2.91 1.504c-1.08.313-2.27.469-3.57.469Zm3.51-6.797c.82 0 1.59-.169 2.31-.508a4.372 4.372 0 0 0 1.77-1.465c.46-.638.69-1.413.69-2.324v-2.5c-.29.117-.6.228-.92.332-.31.104-.65.202-1.02.293-.35.091-.73.176-1.13.254-.39.078-.8.15-1.23.215-.83.13-1.52.345-2.05.644-.52.287-.91.645-1.17 1.075-.25.416-.37.885-.37 1.406 0 .833.29 1.471.88 1.914.58.443 1.33.664 2.24.664Zm31.4-10.547V272h-10.78v-30h10.24v5.703h.31c.65-1.901 1.8-3.392 3.44-4.473 1.65-1.08 3.58-1.621 5.78-1.621 2.12 0 3.96.489 5.52 1.465 1.58.964 2.8 2.292 3.66 3.985.87 1.692 1.3 3.626 1.29 5.8V272h-10.79v-16.875c.02-1.484-.36-2.65-1.13-3.496-.75-.846-1.81-1.27-3.16-1.27-.89 0-1.66.196-2.33.586-.65.378-1.15.925-1.5 1.641-.35.703-.53 1.549-.55 2.539Zm33.14 17.344c-1.92 0-3.61-.313-5.08-.938-1.46-.638-2.6-1.601-3.44-2.89-.83-1.289-1.25-2.93-1.25-4.922 0-1.641.28-3.041.84-4.199.56-1.172 1.34-2.129 2.35-2.872 1-.742 2.16-1.308 3.49-1.699 1.34-.39 2.79-.644 4.34-.762 1.68-.13 3.03-.286 4.04-.468 1.03-.196 1.77-.462 2.23-.801.45-.352.68-.814.68-1.387v-.078c0-.781-.3-1.38-.9-1.797-.6-.416-1.36-.625-2.3-.625-1.03 0-1.87.228-2.52.684-.64.443-1.02 1.126-1.15 2.051h-9.93c.13-1.823.71-3.503 1.74-5.039 1.04-1.55 2.56-2.787 4.55-3.711 2-.938 4.48-1.407 7.46-1.407 2.15 0 4.08.254 5.79.762 1.7.495 3.15 1.191 4.35 2.09 1.2.885 2.11 1.927 2.74 3.125.63 1.185.95 2.474.95 3.867V272h-10.08v-4.219h-.23c-.6 1.12-1.33 2.025-2.19 2.715a7.957 7.957 0 0 1-2.91 1.504c-1.08.313-2.27.469-3.57.469Zm3.51-6.797c.82 0 1.59-.169 2.31-.508a4.469 4.469 0 0 0 1.78-1.465c.45-.638.68-1.413.68-2.324v-2.5c-.29.117-.59.228-.92.332-.31.104-.65.202-1.01.293a26.38 26.38 0 0 1-2.37.469c-.83.13-1.51.345-2.05.644-.52.287-.91.645-1.17 1.075-.25.416-.37.885-.37 1.406 0 .833.29 1.471.88 1.914.58.443 1.33.664 2.24.664Z"/><path fill="#D2E3FC" d="M717.536 543.536a5.002 5.002 0 0 0 0-7.072l-31.82-31.819a5 5 0 0 0-7.071 0 5 5 0 0 0 0 7.071L706.929 540l-28.284 28.284a5 5 0 0 0 0 7.071 5 5 0 0 0 7.071 0l31.82-31.819ZM560 545h154v-10H560v10ZM1391.54 543.536a5.006 5.006 0 0 0 0-7.072l-31.82-31.819a5.01 5.01 0 0 0-7.08 0 5.005 5.005 0 0 0 0 7.071L1380.93 540l-28.29 28.284a5.005 5.005 0 0 0 0 7.071 5.01 5.01 0 0 0 7.08 0l31.82-31.819ZM1234 545h154v-10h-154v10Z"/></svg>