<svg xmlns="http://www.w3.org/2000/svg" width="1920" height="1080" fill="none"><path stroke="#D2E3FC" stroke-width="5" d="M310.5 651.606h213.555v213.555H310.5zM527.465 651.606H741.02v213.555H527.465zM744.428 651.606h213.555v213.555H744.428zM961.393 651.606h213.555v213.555H961.393zM1178.36 651.606h213.555v213.555H1178.36zM1395.32 651.606h213.555v213.555H1395.32zM310.5 253.5h213.555v213.555H310.5zM527.465 253.5H741.02v213.555H527.465zM744.428 253.5h213.555v213.555H744.428zM961.393 253.5h213.555v213.555H961.393zM1178.36 253.5h213.555v213.555H1178.36zM1395.32 253.5h213.555v213.555H1395.32z"/><path fill="#FF6D7F" d="m377.109 740.34-5.379 1.075h-49.92v29.45h36.579c-9.037 22.571-23.884 41.058-42.389 52.236 7.531 4.729 20.226 16.767 25.391 23.431 25.82-17.842 46.907-52.021 56.805-97.378l-21.087-8.814Zm110.169-24.29c-9.252 11.822-23.238 25.365-36.364 36.328-5.379-10.318-9.683-21.496-13.341-33.319v-12.898c3.228 1.505 6.025 3.01 8.392 4.514l16.999-29.02c-18.505-9.458-55.085-20.851-79.399-25.795l-15.708 25.58c15.492 3.87 34.858 10.319 51.211 16.768H352.58v29.879h50.996v95.444c0 3.44-1.291 4.514-5.164 4.729-3.874 0-17.86 0-27.543-.645 4.519 8.384 9.253 22.357 10.544 31.385 18.505 0 32.276-.43 42.604-5.374 10.329-5.159 13.556-13.543 13.556-29.45v-35.039c15.278 25.366 35.719 45.357 63.907 58.47 4.734-8.599 14.847-21.711 21.948-27.945-23.885-9.244-42.82-24.076-57.237-42.993 15.493-10.533 33.783-25.151 49.921-39.123l-28.834-21.496ZM698.149 770.435c-3.443 2.795-7.101 5.804-10.759 8.169-3.228-2.365-6.025-5.159-8.392-8.169h19.151Zm-63.692-29.665h51.857v9.244h-51.857v-9.244Zm82.197 25.796v-46.217h-110.6v50.086h29.264c-11.835 10.318-28.618 18.702-45.832 24.076 5.379 5.374 14.201 17.627 17.859 23.431 13.126-5.374 26.036-12.468 37.656-21.496v26.44h29.694v-23.001c11.404 9.673 25.605 16.552 43.465 20.637 3.658-7.524 11.189-18.272 17.214-23.861-10.329-1.505-19.581-3.655-27.542-6.879 7.315-3.869 15.492-8.599 23.669-13.973l-14.847-9.243Zm14.416-73.947h-55.945V686.6h43.465v-21.497h-43.465V655h-30.339v10.103h-41.529V686.6h41.529v6.019h-52.288v21.711H731.07v-21.711Zm-139.648 1.504c-6.885-10.103-21.732-24.076-33.567-33.534l-23.884 17.627c11.619 10.533 25.821 25.366 31.631 35.684l25.82-19.777Zm-5.164 44.068h-52.287v28.805h22.378v42.133c-8.392 6.233-17.214 12.252-25.175 16.982l14.416 31.169c10.974-9.243 19.366-16.767 27.543-24.72 12.695 16.337 28.833 21.926 53.148 23.001 27.542 1.289 73.374.859 101.562-.645 1.506-8.814 6.24-23.216 9.682-30.31-32.06 2.794-83.917 3.439-110.814 2.15-20.226-.86-33.352-6.449-40.453-19.777v-68.788ZM841.135 667.898l-32.706 10.748c6.885 14.402 18.72 44.712 23.023 59.115l32.922-11.608c-4.519-14.833-17.644-47.292-23.239-58.255Zm99.626 19.132-38.947-10.964c-3.443 33.105-16.783 71.368-32.491 91.145-22.163 27.73-56.591 46.432-85.209 54.385l29.264 29.45c30.77-12.038 61.97-33.534 84.778-63.629 17.644-23.431 30.34-59.545 36.149-81.041 1.507-5.589 3.658-12.898 6.456-19.346Zm-159.444-5.59-33.352 11.608c6.67 12.683 20.441 47.507 25.175 61.695l33.567-12.253c-4.949-14.832-18.29-46.432-25.39-61.05ZM1119.74 679.936l-40.88-10.533c-5.81 30.954-19.59 69.003-40.67 93.938-19.15 22.572-47.556 43.638-81.984 55.461l29.694 30.525c34.64-13.758 64.12-41.273 81.98-63.199 17-20.852 31.63-53.741 41.1-79.322 2.8-7.739 6.24-18.057 10.76-26.87ZM1129.45 771.94l31.84 32.674c4.09-6.234 9.04-14.617 14.2-22.356 8.4-11.608 22.17-31.599 29.91-41.488 5.6-7.093 9.69-7.953 16.36-.645 10.11 11.608 26.03 32.03 38.94 47.722 13.13 15.693 30.77 35.684 45.62 49.872l27.11-31.385c-21.09-18.917-37.87-36.329-52.07-51.806-12.05-13.328-29.48-35.899-45.19-50.731-16.57-15.693-32.06-14.618-48.41 3.869-13.77 15.692-29.48 36.544-38.73 46.002-6.89 7.309-12.48 12.683-19.58 18.272ZM1404.02 666.608l-41.96-.43c2.15 9.673 3.23 21.496 3.23 33.104 0 16.123-1.94 73.733-1.94 100.818 0 37.619 23.46 54.601 61.11 54.601 50.14 0 82.2-29.665 95.54-50.302l-23.67-29.02c-15.71 24.076-38.3 43.638-71.65 43.638-14.63 0-26.47-6.449-26.47-27.085 0-23.646 1.51-70.078 2.58-92.65.43-9.458 1.73-22.571 3.23-32.674Z"/><path fill="#1A73E8" d="m377.108 342.34-5.379 1.075H321.81v29.45h36.578c-9.037 22.571-23.884 41.058-42.388 52.236 7.531 4.729 20.226 16.767 25.39 23.431 25.82-17.842 46.907-52.021 56.804-97.378l-21.086-8.814Zm110.166-24.29c-9.252 11.822-23.238 25.365-36.363 36.328-5.38-10.318-9.683-21.496-13.341-33.319v-12.898c3.228 1.505 6.025 3.01 8.392 4.514l16.998-29.02c-18.504-9.458-55.083-20.851-79.397-25.795l-15.707 25.58c15.492 3.87 34.857 10.319 51.21 16.768h-66.487v29.879h50.995v95.444c0 3.44-1.291 4.514-5.164 4.729-3.874 0-17.859 0-27.542-.645 4.518 8.384 9.252 22.357 10.543 31.385 18.505 0 32.275-.43 42.604-5.374 10.328-5.159 13.555-13.543 13.555-29.45v-35.039c15.277 25.366 35.718 45.357 63.905 58.47 4.734-8.599 14.847-21.711 21.947-27.945-23.883-9.244-42.818-24.076-57.234-42.993 15.492-10.533 33.781-25.151 49.919-39.123l-28.833-21.496ZM698.139 372.435c-3.443 2.795-7.1 5.804-10.758 8.169-3.228-2.365-6.025-5.159-8.392-8.169h19.15Zm-63.69-29.665h51.856v9.244h-51.856v-9.244Zm82.195 25.796v-46.217H606.047v50.086h29.263c-11.834 10.318-28.617 18.702-45.831 24.076 5.379 5.374 14.201 17.627 17.859 23.431 13.125-5.374 26.035-12.468 37.655-21.496v26.44h29.693v-23.001c11.404 9.673 25.605 16.552 43.464 20.637 3.658-7.524 11.189-18.272 17.213-23.861-10.328-1.505-19.58-3.655-27.541-6.879 7.315-3.869 15.492-8.599 23.668-13.973l-14.846-9.243Zm14.416-73.947h-55.944V288.6h43.464v-21.497h-43.464V257h-30.339v10.103H603.25V288.6h41.527v6.019h-52.286v21.711H731.06v-21.711Zm-139.644 1.504c-6.886-10.103-21.732-24.076-33.567-33.534l-23.883 17.627c11.619 10.533 25.82 25.366 31.629 35.684l25.821-19.777Zm-5.164 44.068h-52.286v28.805h22.377v42.133c-8.391 6.233-17.213 12.252-25.175 16.982l14.417 31.169c10.973-9.243 19.365-16.767 27.541-24.72 12.695 16.337 28.833 21.926 53.147 23.001 27.541 1.289 73.372.859 101.559-.645 1.507-8.814 6.24-23.216 9.683-30.31-32.06 2.794-83.916 3.439-110.812 2.15-20.226-.86-33.351-6.449-40.451-19.777v-68.788ZM845.745 269.898l-32.706 10.748c6.886 14.402 18.72 44.712 23.023 59.115l32.921-11.608c-4.519-14.833-17.644-47.292-23.238-58.255Zm99.623 19.132-38.946-10.964c-3.442 33.105-16.783 71.368-32.49 91.145-22.163 27.73-56.59 46.432-85.207 54.385l29.263 29.45c30.769-12.038 61.969-33.534 84.776-63.629 17.644-23.431 30.339-59.545 36.149-81.041 1.506-5.589 3.658-12.898 6.455-19.346Zm-159.44-5.59-33.351 11.608c6.67 12.683 20.441 47.507 25.175 61.695l33.566-12.253c-4.949-14.832-18.29-46.432-25.39-61.05ZM1140.31 281.936l-40.88-10.533c-5.81 30.954-19.58 69.003-40.67 93.938-19.15 22.572-47.55 43.638-81.978 55.461l29.698 30.525c34.64-13.758 64.12-41.273 81.97-63.199 17-20.852 31.63-53.741 41.1-79.322 2.8-7.739 6.24-18.057 10.76-26.87ZM1177.96 373.94l31.85 32.674c4.09-6.234 9.04-14.617 14.2-22.356 8.39-11.608 22.16-31.599 29.91-41.488 5.59-7.093 9.68-7.953 16.35-.645 10.11 11.608 26.04 32.03 38.95 47.722 13.12 15.693 30.77 35.684 45.61 49.872l27.11-31.385c-21.08-18.917-37.87-36.329-52.07-51.806-12.05-13.328-29.47-35.899-45.18-50.731-16.57-15.693-32.06-14.618-48.41 3.869-13.78 15.692-29.48 36.544-38.73 46.002-6.89 7.309-12.48 12.683-19.59 18.272ZM1471.02 268.608l-41.95-.43c2.15 9.673 3.22 21.496 3.22 33.104 0 16.123-1.93 73.733-1.93 100.818 0 37.619 23.45 54.601 61.11 54.601 50.13 0 82.19-29.665 95.53-50.302l-23.67-29.02c-15.71 24.076-38.3 43.638-71.65 43.638-14.63 0-26.47-6.449-26.47-27.085 0-23.646 1.51-70.078 2.59-92.65.43-9.458 1.72-22.571 3.22-32.674ZM314.406 216v-21.818h15.341v4.773h-9.417v3.75h8.48v4.772h-8.48V216h-5.924Zm27.19-7.159v-9.205h5.881V216h-5.582v-3.111h-.171c-.355 1.044-.976 1.861-1.864 2.45-.888.583-1.943.874-3.164.874-1.144 0-2.145-.263-3.004-.788a5.404 5.404 0 0 1-1.993-2.174c-.468-.923-.706-1.981-.713-3.174v-10.441h5.88v9.205c.007.81.213 1.445.618 1.907.412.462.987.692 1.726.692.49 0 .913-.103 1.268-.309.362-.213.639-.511.831-.894.199-.391.295-.856.287-1.396Zm14.753-14.659V216h-5.881v-21.818h5.881Zm8.877 0V216h-5.881v-21.818h5.881Zm13.735 10.909v4.432h-10.228v-4.432h10.228ZM385.358 216l-4.091-16.364h5.881l1.875 9.972h.128l2.088-9.972h5.71l2.173 9.887h.128l1.79-9.887h5.88L402.83 216h-6.35l-2.301-8.778h-.17L391.707 216h-6.349Zm23.352 0v-16.364h5.881V216h-5.881Zm2.941-18.068c-.796 0-1.478-.263-2.046-.789-.568-.525-.852-1.157-.852-1.896 0-.738.284-1.371.852-1.896.568-.526 1.25-.789 2.046-.789.802 0 1.484.263 2.045.789.568.525.852 1.158.852 1.896 0 .739-.284 1.371-.852 1.896-.561.526-1.243.789-2.045.789Zm11.859 18.281a5.965 5.965 0 0 1-3.217-.916c-.973-.611-1.754-1.538-2.344-2.781-.582-1.243-.873-2.809-.873-4.698 0-1.974.305-3.579.916-4.815.618-1.236 1.413-2.141 2.386-2.717.98-.575 2.01-.863 3.09-.863.81 0 1.52.142 2.131.426.61.277 1.122.65 1.534 1.119.412.462.724.969.937 1.523h.085v-8.309h5.881V216h-5.838v-2.685h-.128a4.694 4.694 0 0 1-.98 1.492c-.419.433-.93.778-1.534 1.033-.597.249-1.278.373-2.046.373Zm2.174-4.517c.54 0 1.001-.156 1.385-.469.39-.319.689-.767.895-1.342.213-.582.319-1.271.319-2.067 0-.809-.106-1.502-.319-2.077-.206-.583-.505-1.027-.895-1.332-.384-.312-.845-.469-1.385-.469s-1.002.157-1.385.469c-.377.305-.668.749-.874 1.332-.199.575-.298 1.268-.298 2.077 0 .81.099 1.506.298 2.088.206.576.497 1.019.874 1.332.383.305.845.458 1.385.458Zm20.998-12.06v4.262H435.9v-4.262h10.782Zm-8.694-3.92h5.881v15.021c0 .227.039.419.117.575.078.15.199.263.363.341.163.071.372.107.628.107.178 0 .384-.021.618-.064.241-.043.419-.078.533-.107l.852 4.134a20.86 20.86 0 0 1-1.129.288 9.966 9.966 0 0 1-1.726.223c-1.35.071-2.482-.067-3.399-.415-.916-.355-1.605-.913-2.066-1.673-.462-.76-.686-1.711-.672-2.855v-15.575Zm17.326 11.079V216h-5.881v-21.818h5.667v8.565h.171c.369-1.044.984-1.857 1.843-2.439.859-.59 1.893-.885 3.1-.885 1.158 0 2.163.263 3.015.789a5.31 5.31 0 0 1 1.992 2.173c.476.923.71 1.981.703 3.175V216h-5.88v-9.205c.007-.809-.196-1.445-.608-1.907-.404-.461-.983-.692-1.736-.692-.476 0-.895.107-1.257.32a2.114 2.114 0 0 0-.831.895c-.192.383-.291.845-.298 1.384ZM475.102 201v-2.557c0-.696.142-1.395.426-2.099a9.147 9.147 0 0 1 1.076-1.949c.434-.597.87-1.08 1.311-1.449l2.429 1.236a8.711 8.711 0 0 0-.863 1.939c-.199.674-.295 1.449-.288 2.322V201h-4.091Zm5.327 0v-2.557c0-.696.142-1.395.426-2.099a9.104 9.104 0 0 1 1.076-1.949c.433-.597.87-1.08 1.31-1.449l2.429 1.236a8.707 8.707 0 0 0-.862 1.939c-.199.674-.295 1.449-.288 2.322V201h-4.091Zm7.766 15v-21.818h9.461c1.661 0 3.057.224 4.186.671 1.137.447 1.993 1.08 2.568 1.896.582.817.873 1.779.873 2.887 0 .803-.177 1.534-.532 2.195a4.712 4.712 0 0 1-1.47 1.662c-.633.44-1.371.746-2.216.916v.213a5.48 5.48 0 0 1 2.556.714 4.9 4.9 0 0 1 1.833 1.8c.454.76.682 1.655.682 2.685 0 1.193-.313 2.255-.938 3.185-.618.931-1.498 1.662-2.642 2.195-1.143.533-2.507.799-4.091.799h-10.27Zm5.924-4.73h2.769c.995 0 1.741-.185 2.238-.554.497-.377.745-.93.745-1.662 0-.511-.117-.945-.351-1.3a2.184 2.184 0 0 0-1.002-.809c-.426-.185-.941-.277-1.544-.277h-2.855v4.602Zm0-8.267h2.429c.518 0 .976-.082 1.374-.245.398-.164.707-.398.927-.703.227-.313.341-.693.341-1.14 0-.675-.242-1.19-.725-1.545-.483-.362-1.094-.543-1.832-.543h-2.514v4.176Zm22.042 13.295c-1.748 0-3.253-.334-4.518-1.001a7.02 7.02 0 0 1-2.908-2.898c-.675-1.264-1.012-2.777-1.012-4.538 0-1.691.341-3.168 1.023-4.432a7.31 7.31 0 0 1 2.887-2.951c1.243-.703 2.709-1.055 4.4-1.055 1.235 0 2.354.192 3.355.576a7.024 7.024 0 0 1 2.568 1.672c.71.725 1.257 1.605 1.641 2.642.383 1.037.575 2.205.575 3.505v1.364h-14.617v-3.239h9.205a2.258 2.258 0 0 0-.362-1.236 2.311 2.311 0 0 0-.927-.841 2.725 2.725 0 0 0-1.31-.309 2.81 2.81 0 0 0-1.311.309 2.48 2.48 0 0 0-.959.831 2.35 2.35 0 0 0-.373 1.246v3.495c0 .525.111.994.331 1.406.22.412.536.735.948.969.412.235.909.352 1.491.352.405 0 .775-.057 1.108-.171a2.49 2.49 0 0 0 .874-.49c.241-.22.419-.483.533-.788h5.369c-.185 1.136-.622 2.123-1.31 2.962-.689.831-1.602 1.477-2.738 1.938-1.13.455-2.451.682-3.963.682Zm20.169-16.662v4.262h-10.781v-4.262h10.781Zm-8.693-3.92h5.881v15.021c0 .227.039.419.117.575.078.15.199.263.362.341.163.071.373.107.629.107.177 0 .383-.021.617-.064.242-.043.419-.078.533-.107l.852 4.134c-.262.078-.639.174-1.129.288a9.953 9.953 0 0 1-1.726.223c-1.349.071-2.482-.067-3.398-.415-.916-.355-1.605-.913-2.067-1.673-.462-.76-.685-1.711-.671-2.855v-15.575Zm15.652 20.54c-1.044 0-1.967-.171-2.769-.512a4.158 4.158 0 0 1-1.875-1.576c-.455-.704-.682-1.598-.682-2.685 0-.895.152-1.658.458-2.291a4.122 4.122 0 0 1 1.278-1.566 6.056 6.056 0 0 1 1.907-.926 11.58 11.58 0 0 1 2.365-.416c.916-.071 1.652-.156 2.205-.256.562-.106.966-.252 1.215-.436a.91.91 0 0 0 .373-.757v-.042c0-.427-.164-.753-.49-.981-.327-.227-.746-.34-1.257-.34-.561 0-1.019.124-1.375.372-.348.242-.557.615-.628 1.119h-5.412c.071-.994.387-1.91.948-2.749.568-.845 1.396-1.519 2.482-2.024 1.087-.511 2.443-.767 4.07-.767 1.172 0 2.223.139 3.153.416.931.27 1.723.65 2.376 1.14.653.483 1.151 1.051 1.492 1.704.348.647.522 1.35.522 2.11V216h-5.498v-2.301h-.127c-.327.611-.725 1.104-1.194 1.481a4.38 4.38 0 0 1-1.587.82 7.016 7.016 0 0 1-1.95.256Zm1.918-3.708c.447 0 .867-.092 1.257-.277a2.42 2.42 0 0 0 .97-.799c.248-.348.372-.77.372-1.267v-1.364a6.863 6.863 0 0 1-.5.181 9.603 9.603 0 0 1-1.172.298c-.213.043-.437.082-.671.118-.455.071-.828.188-1.119.351a1.658 1.658 0 0 0-.639.586 1.473 1.473 0 0 0-.203.767c0 .455.16.803.48 1.044.319.242.728.362 1.225.362Zm19.131 9.929c-1.641 0-3.047-.234-4.219-.703-1.165-.462-2.07-1.101-2.716-1.917a4.998 4.998 0 0 1-1.076-2.792h5.667c.057.348.199.629.426.842.228.213.519.366.874.458.362.099.767.149 1.214.149.76 0 1.389-.184 1.886-.554.504-.369.756-1.037.756-2.003v-2.769h-.17a3.59 3.59 0 0 1-.98 1.416 4.6 4.6 0 0 1-1.588.885 6.632 6.632 0 0 1-2.034.298 6.559 6.559 0 0 1-3.218-.81c-.973-.54-1.754-1.395-2.343-2.567-.583-1.172-.874-2.703-.874-4.592 0-1.974.305-3.579.916-4.815.618-1.236 1.414-2.141 2.387-2.717.98-.575 2.01-.863 3.089-.863.81 0 1.52.142 2.131.426.611.277 1.122.65 1.534 1.119.412.462.724.969.937 1.523h.128v-2.855h5.881v16.321c0 1.385-.359 2.561-1.076 3.527-.71.973-1.712 1.715-3.004 2.226-1.293.512-2.802.767-4.528.767Zm.213-10.866c.54 0 1.001-.149 1.385-.448.391-.305.689-.738.895-1.299.213-.569.319-1.25.319-2.046 0-.809-.106-1.502-.319-2.077-.206-.583-.504-1.027-.895-1.332-.384-.312-.845-.469-1.385-.469s-1.001.157-1.385.469c-.376.305-.668.749-.874 1.332-.198.575-.298 1.268-.298 2.077 0 .81.1 1.499.298 2.067.206.561.498.991.874 1.289.384.291.845.437 1.385.437Zm21.997-2.77v-9.205h5.88V216h-5.582v-3.111h-.171c-.355 1.044-.976 1.861-1.864 2.45-.888.583-1.942.874-3.164.874-1.143 0-2.145-.263-3.004-.788a5.395 5.395 0 0 1-1.992-2.174c-.469-.923-.707-1.981-.714-3.174v-10.441h5.88v9.205c.008.81.214 1.445.618 1.907.412.462.988.692 1.726.692.49 0 .913-.103 1.268-.309.362-.213.639-.511.831-.894.199-.391.295-.856.288-1.396Zm8.871 7.159v-16.364h5.583v3.111h.17c.341-1.023.923-1.832 1.747-2.429.824-.596 1.804-.895 2.941-.895 1.15 0 2.141.306 2.972.916.831.604 1.332 1.407 1.502 2.408h.17c.277-1.001.867-1.804 1.769-2.408.902-.61 1.96-.916 3.175-.916 1.569 0 2.841.505 3.814 1.513.98 1.009 1.47 2.351 1.47 4.027V216h-5.881v-9.545c0-.718-.181-1.279-.543-1.684-.363-.412-.849-.618-1.46-.618-.604 0-1.083.206-1.438.618-.348.405-.522.966-.522 1.684V216h-5.625v-9.545c0-.718-.181-1.279-.543-1.684-.363-.412-.849-.618-1.46-.618-.405 0-.753.093-1.044.277a1.854 1.854 0 0 0-.682.799c-.156.341-.234.75-.234 1.226V216h-5.881Zm28.213 0v-16.364h5.881V216h-5.881Zm2.94-18.068c-.795 0-1.477-.263-2.045-.789-.568-.525-.852-1.157-.852-1.896 0-.738.284-1.371.852-1.896.568-.526 1.25-.789 2.045-.789.803 0 1.485.263 2.046.789.568.525.852 1.158.852 1.896 0 .739-.284 1.371-.852 1.896-.561.526-1.243.789-2.046.789Zm10.795-3.75v2.557a5.49 5.49 0 0 1-.426 2.088 8.967 8.967 0 0 1-1.065 1.928 8.921 8.921 0 0 1-1.321 1.481L632.126 201a10.17 10.17 0 0 0 .799-1.779c.234-.675.351-1.502.351-2.482v-2.557h4.091Zm5.284 0v2.557a5.49 5.49 0 0 1-.426 2.088 8.967 8.967 0 0 1-1.065 1.928 8.921 8.921 0 0 1-1.321 1.481L637.41 201a10.17 10.17 0 0 0 .799-1.779c.234-.675.351-1.502.351-2.482v-2.557h4.091Z"/><path fill="#FF6D7F" d="M314.406 614v-21.818h9.418c1.619 0 3.036.319 4.251.959a6.951 6.951 0 0 1 2.833 2.695c.675 1.158 1.012 2.511 1.012 4.059 0 1.562-.348 2.915-1.044 4.059-.688 1.143-1.658 2.024-2.908 2.642-1.243.618-2.695.927-4.357.927h-5.625v-4.603h4.432c.696 0 1.289-.12 1.779-.362.497-.248.877-.6 1.14-1.054.27-.455.404-.991.404-1.609 0-.625-.134-1.158-.404-1.598a2.543 2.543 0 0 0-1.14-1.023c-.49-.241-1.083-.362-1.779-.362h-2.088V614h-5.924Zm19.773 0v-16.364h5.71v3.111h.171c.298-1.15.77-1.992 1.417-2.525.653-.532 1.416-.799 2.29-.799.256 0 .508.022.756.064.256.036.501.089.736.16v5.018c-.292-.1-.65-.174-1.076-.224a9.635 9.635 0 0 0-1.098-.075c-.575 0-1.094.132-1.555.395a2.775 2.775 0 0 0-1.076 1.086c-.263.462-.394 1.005-.394 1.63V614h-5.881Zm19.954.298c-1.776 0-3.296-.351-4.56-1.054a7.256 7.256 0 0 1-2.908-2.962c-.675-1.271-1.012-2.745-1.012-4.421 0-1.676.337-3.147 1.012-4.411a7.164 7.164 0 0 1 2.908-2.961c1.264-.711 2.784-1.066 4.56-1.066 1.775 0 3.295.355 4.559 1.066a7.167 7.167 0 0 1 2.909 2.961c.675 1.264 1.012 2.735 1.012 4.411 0 1.676-.337 3.15-1.012 4.421a7.258 7.258 0 0 1-2.909 2.962c-1.264.703-2.784 1.054-4.559 1.054Zm.042-4.346c.498 0 .927-.167 1.289-.501.363-.334.643-.81.842-1.428.199-.617.298-1.353.298-2.205 0-.859-.099-1.594-.298-2.205-.199-.618-.479-1.094-.842-1.428a1.84 1.84 0 0 0-1.289-.5c-.525 0-.976.167-1.353.5-.376.334-.664.81-.862 1.428-.199.611-.299 1.346-.299 2.205 0 .852.1 1.588.299 2.205.198.618.486 1.094.862 1.428.377.334.828.501 1.353.501Zm10.824 10.184v-22.5h5.838v2.855h.128a4.94 4.94 0 0 1 .938-1.523 4.461 4.461 0 0 1 1.534-1.119c.611-.284 1.321-.426 2.13-.426 1.08 0 2.106.288 3.079.863.98.576 1.776 1.481 2.387 2.717.618 1.236.927 2.841.927 4.815 0 1.889-.295 3.455-.885 4.698-.582 1.243-1.363 2.17-2.343 2.781a5.912 5.912 0 0 1-3.207.916c-.767 0-1.453-.124-2.056-.373a4.733 4.733 0 0 1-1.534-1.033 4.785 4.785 0 0 1-.97-1.492h-.085v8.821h-5.881Zm5.753-14.318c0 .796.103 1.485.309 2.067.213.575.511 1.023.895 1.342.391.313.856.469 1.396.469.539 0 .997-.153 1.374-.458.383-.313.675-.756.873-1.332.206-.582.309-1.278.309-2.088 0-.809-.103-1.502-.309-2.077-.198-.583-.49-1.027-.873-1.332-.377-.312-.835-.469-1.374-.469-.54 0-1.005.157-1.396.469-.384.305-.682.749-.895 1.332-.206.575-.309 1.268-.309 2.077Zm21.555 8.48c-1.776 0-3.296-.351-4.56-1.054a7.256 7.256 0 0 1-2.908-2.962c-.675-1.271-1.012-2.745-1.012-4.421 0-1.676.337-3.147 1.012-4.411a7.164 7.164 0 0 1 2.908-2.961c1.264-.711 2.784-1.066 4.56-1.066 1.775 0 3.295.355 4.559 1.066a7.167 7.167 0 0 1 2.909 2.961c.674 1.264 1.012 2.735 1.012 4.411 0 1.676-.338 3.15-1.012 4.421a7.258 7.258 0 0 1-2.909 2.962c-1.264.703-2.784 1.054-4.559 1.054Zm.042-4.346c.497 0 .927-.167 1.289-.501.363-.334.643-.81.842-1.428.199-.617.298-1.353.298-2.205 0-.859-.099-1.594-.298-2.205-.199-.618-.479-1.094-.842-1.428a1.84 1.84 0 0 0-1.289-.5c-.525 0-.976.167-1.353.5-.376.334-.664.81-.863 1.428-.199.611-.298 1.346-.298 2.205 0 .852.099 1.588.298 2.205.199.618.487 1.094.863 1.428.377.334.828.501 1.353.501ZM403.173 614v-16.364h5.71v3.111h.171c.298-1.15.77-1.992 1.417-2.525.653-.532 1.417-.799 2.29-.799.256 0 .508.022.757.064.255.036.5.089.735.16v5.018c-.292-.1-.65-.174-1.076-.224a9.62 9.62 0 0 0-1.098-.075c-.575 0-1.093.132-1.555.395a2.775 2.775 0 0 0-1.076 1.086c-.263.462-.394 1.005-.394 1.63V614h-5.881Zm23.44-16.364v4.262h-10.781v-4.262h10.781Zm-8.693-3.92h5.881v15.021c0 .227.039.419.117.575.078.15.199.263.362.341.164.071.373.107.629.107.177 0 .383-.021.618-.064a8.26 8.26 0 0 0 .532-.107l.853 4.134c-.263.078-.64.174-1.13.288a9.953 9.953 0 0 1-1.726.223c-1.349.071-2.482-.067-3.398-.415-.916-.355-1.605-.913-2.067-1.673-.461-.76-.685-1.711-.671-2.855v-15.575ZM429.013 614v-16.364h5.881V614h-5.881Zm2.94-18.068c-.795 0-1.477-.263-2.045-.789-.568-.525-.852-1.157-.852-1.896 0-.738.284-1.371.852-1.896.568-.526 1.25-.789 2.045-.789.803 0 1.485.263 2.046.789.568.525.852 1.158.852 1.896 0 .739-.284 1.371-.852 1.896-.561.526-1.243.789-2.046.789Zm13.82 18.366c-1.775 0-3.295-.351-4.559-1.054a7.264 7.264 0 0 1-2.909-2.962c-.674-1.271-1.012-2.745-1.012-4.421 0-1.676.338-3.147 1.012-4.411a7.173 7.173 0 0 1 2.909-2.961c1.264-.711 2.784-1.066 4.559-1.066 1.776 0 3.296.355 4.56 1.066a7.164 7.164 0 0 1 2.908 2.961c.675 1.264 1.013 2.735 1.013 4.411 0 1.676-.338 3.15-1.013 4.421a7.256 7.256 0 0 1-2.908 2.962c-1.264.703-2.784 1.054-4.56 1.054Zm.043-4.346c.497 0 .927-.167 1.289-.501.362-.334.643-.81.842-1.428.199-.617.298-1.353.298-2.205 0-.859-.099-1.594-.298-2.205-.199-.618-.48-1.094-.842-1.428a1.84 1.84 0 0 0-1.289-.5c-.526 0-.977.167-1.353.5-.376.334-.664.81-.863 1.428-.199.611-.298 1.346-.298 2.205 0 .852.099 1.588.298 2.205.199.618.487 1.094.863 1.428.376.334.827.501 1.353.501Zm16.705-5.157V614h-5.881v-16.364h5.582v3.111h.171c.355-1.037.98-1.85 1.875-2.439.902-.59 1.953-.885 3.153-.885 1.158 0 2.163.267 3.015.799a5.306 5.306 0 0 1 1.992 2.174c.476.923.71 1.978.703 3.164V614h-5.88v-9.205c.007-.809-.199-1.445-.618-1.907-.412-.461-.987-.692-1.726-.692-.483 0-.906.107-1.268.32a2.049 2.049 0 0 0-.82.895c-.192.383-.291.845-.298 1.384Zm18.073 9.461c-1.044 0-1.967-.171-2.77-.512a4.168 4.168 0 0 1-1.875-1.576c-.454-.704-.682-1.598-.682-2.685 0-.895.153-1.658.458-2.291a4.134 4.134 0 0 1 1.279-1.566 6.045 6.045 0 0 1 1.907-.926c.731-.213 1.52-.352 2.365-.416.916-.071 1.651-.156 2.205-.256.561-.106.966-.252 1.215-.436a.912.912 0 0 0 .373-.757v-.042c0-.427-.164-.753-.491-.981-.326-.227-.745-.34-1.257-.34-.561 0-1.019.124-1.374.372-.348.242-.557.615-.628 1.119h-5.412c.071-.994.387-1.91.948-2.749.568-.845 1.395-1.519 2.482-2.024 1.087-.511 2.443-.767 4.07-.767 1.171 0 2.223.139 3.153.416.93.27 1.722.65 2.376 1.14.653.483 1.15 1.051 1.491 1.704.348.647.522 1.35.522 2.11V614h-5.497v-2.301h-.128c-.326.611-.724 1.104-1.193 1.481-.462.376-.991.65-1.587.82-.59.17-1.24.256-1.95.256Zm1.918-3.708c.447 0 .866-.092 1.257-.277a2.41 2.41 0 0 0 .969-.799c.249-.348.373-.77.373-1.267v-1.364a6.726 6.726 0 0 1-.501.181 9.419 9.419 0 0 1-1.171.298c-.214.043-.437.082-.672.118-.454.071-.827.188-1.118.351a1.658 1.658 0 0 0-.639.586 1.473 1.473 0 0 0-.203.767c0 .455.16.803.48 1.044.319.242.728.362 1.225.362Zm17.128-18.366V614h-5.881v-21.818h5.881ZM508.613 614v-16.364h5.582v3.111h.17c.341-1.023.924-1.832 1.748-2.429.823-.596 1.804-.895 2.94-.895 1.15 0 2.141.306 2.972.916.831.604 1.332 1.407 1.502 2.408h.171c.277-1.001.866-1.804 1.768-2.408.902-.61 1.96-.916 3.175-.916 1.57 0 2.841.505 3.814 1.513.98 1.009 1.47 2.351 1.47 4.027V614h-5.881v-9.545c0-.718-.181-1.279-.543-1.684-.362-.412-.849-.618-1.459-.618-.604 0-1.084.206-1.439.618-.348.405-.522.966-.522 1.684V614h-5.625v-9.545c0-.718-.181-1.279-.543-1.684-.362-.412-.849-.618-1.46-.618-.404 0-.752.093-1.044.277a1.845 1.845 0 0 0-.681.799c-.157.341-.235.75-.235 1.226V614h-5.88Zm36.053.298c-1.747 0-3.252-.334-4.517-1.001a7.02 7.02 0 0 1-2.908-2.898c-.675-1.264-1.012-2.777-1.012-4.538 0-1.691.341-3.168 1.023-4.432a7.303 7.303 0 0 1 2.887-2.951c1.243-.703 2.709-1.055 4.4-1.055 1.235 0 2.354.192 3.355.576a7.024 7.024 0 0 1 2.568 1.672c.71.725 1.257 1.605 1.64 2.642.384 1.037.576 2.205.576 3.505v1.364h-14.617v-3.239h9.205a2.258 2.258 0 0 0-.362-1.236 2.318 2.318 0 0 0-.927-.841 2.73 2.73 0 0 0-1.311-.309c-.475 0-.912.103-1.31.309a2.48 2.48 0 0 0-.959.831 2.35 2.35 0 0 0-.373 1.246v3.495c0 .525.11.994.331 1.406.22.412.536.735.948.969.412.235.909.352 1.491.352.405 0 .774-.057 1.108-.171a2.49 2.49 0 0 0 .874-.49 1.99 1.99 0 0 0 .532-.788h5.37c-.185 1.136-.622 2.123-1.311 2.962-.689.831-1.601 1.477-2.738 1.938-1.129.455-2.45.682-3.963.682Zm20.17-16.662v4.262h-10.781v-4.262h10.781Zm-8.693-3.92h5.88v15.021c0 .227.039.419.118.575a.76.76 0 0 0 .362.341c.163.071.373.107.628.107.178 0 .384-.021.618-.064.242-.043.419-.078.533-.107l.852 4.134a20.86 20.86 0 0 1-1.129.288 9.953 9.953 0 0 1-1.726.223c-1.349.071-2.482-.067-3.398-.415-.917-.355-1.605-.913-2.067-1.673-.462-.76-.685-1.711-.671-2.855v-15.575ZM567.236 614v-16.364h5.71v3.111h.17c.299-1.15.771-1.992 1.417-2.525.654-.532 1.417-.799 2.291-.799.255 0 .507.022.756.064.256.036.501.089.735.16v5.018c-.291-.1-.65-.174-1.076-.224a9.62 9.62 0 0 0-1.097-.075 3.09 3.09 0 0 0-1.556.395 2.781 2.781 0 0 0-1.076 1.086c-.262.462-.394 1.005-.394 1.63V614h-5.88Zm13.007 0v-16.364h5.881V614h-5.881Zm2.941-18.068c-.796 0-1.478-.263-2.046-.789-.568-.525-.852-1.157-.852-1.896 0-.738.284-1.371.852-1.896.568-.526 1.25-.789 2.046-.789.802 0 1.484.263 2.045.789.568.525.852 1.158.852 1.896 0 .739-.284 1.371-.852 1.896-.561.526-1.243.789-2.045.789Zm13.82 18.366c-1.776 0-3.296-.351-4.56-1.054a7.262 7.262 0 0 1-2.908-2.962c-.675-1.271-1.012-2.745-1.012-4.421 0-1.676.337-3.147 1.012-4.411a7.17 7.17 0 0 1 2.908-2.961c1.264-.711 2.784-1.066 4.56-1.066 1.605 0 2.994.291 4.165.874 1.179.575 2.092 1.392 2.738 2.45.647 1.051.973 2.287.98 3.708h-5.454c-.078-.86-.327-1.513-.746-1.961-.412-.454-.944-.682-1.598-.682-.511 0-.959.15-1.342.448-.384.291-.682.735-.895 1.332-.213.589-.32 1.331-.32 2.226s.107 1.641.32 2.237c.213.59.511 1.034.895 1.332.383.291.831.437 1.342.437.433 0 .817-.1 1.151-.298a2.26 2.26 0 0 0 .809-.895c.213-.398.341-.881.384-1.449h5.454c-.021 1.442-.351 2.699-.99 3.771-.64 1.065-1.545 1.889-2.717 2.472-1.165.582-2.557.873-4.176.873Zm25.267-11.335h-5.412a1.487 1.487 0 0 0-.351-.863 1.983 1.983 0 0 0-.799-.554 2.715 2.715 0 0 0-1.066-.202c-.504 0-.937.092-1.299.277-.363.184-.54.447-.533.788-.007.242.096.465.309.671.22.206.643.366 1.268.48l3.323.596c1.677.306 2.923.821 3.74 1.545.824.717 1.239 1.68 1.246 2.887-.007 1.165-.355 2.177-1.044 3.036-.682.853-1.616 1.513-2.802 1.982-1.179.461-2.524.692-4.037.692-2.5 0-4.457-.511-5.87-1.534-1.407-1.023-2.191-2.372-2.355-4.048h5.838c.079.518.334.92.767 1.204.441.277.995.415 1.662.415.54 0 .984-.092 1.332-.277.355-.184.536-.447.543-.788-.007-.313-.163-.561-.468-.746-.299-.185-.767-.334-1.407-.447l-2.897-.512c-1.669-.291-2.919-.845-3.75-1.662-.831-.816-1.243-1.867-1.236-3.153-.007-1.136.291-2.099.895-2.887.611-.796 1.481-1.399 2.61-1.811 1.136-.419 2.482-.629 4.037-.629 2.366 0 4.23.49 5.593 1.47 1.371.981 2.092 2.337 2.163 4.07Zm9.721 2.599c0-2.62.355-5.031 1.066-7.233.717-2.202 1.853-4.251 3.409-6.147h5.753c-.583.703-1.126 1.559-1.63 2.567a22.088 22.088 0 0 0-1.3 3.292 28.126 28.126 0 0 0-.852 3.718 23.878 23.878 0 0 0-.309 3.803c0 1.677.177 3.367.532 5.072a25.18 25.18 0 0 0 1.46 4.719c.618 1.456 1.317 2.653 2.099 3.59h-5.753c-1.556-1.896-2.692-3.945-3.409-6.147-.711-2.202-1.066-4.613-1.066-7.234Zm12.148 14.574v-22.5h5.838v2.855h.128a4.936 4.936 0 0 1 .937-1.523 4.471 4.471 0 0 1 1.534-1.119c.611-.284 1.321-.426 2.131-.426 1.08 0 2.106.288 3.079.863.98.576 1.776 1.481 2.386 2.717.618 1.236.927 2.841.927 4.815 0 1.889-.295 3.455-.884 4.698-.582 1.243-1.364 2.17-2.344 2.781a5.912 5.912 0 0 1-3.207.916c-.767 0-1.452-.124-2.056-.373a4.744 4.744 0 0 1-1.534-1.033 4.782 4.782 0 0 1-.969-1.492h-.085v8.821h-5.881Zm5.753-14.318c0 .796.103 1.485.309 2.067.213.575.511 1.023.895 1.342.39.313.855.469 1.395.469s.998-.153 1.374-.458c.384-.313.675-.756.874-1.332.206-.582.309-1.278.309-2.088 0-.809-.103-1.502-.309-2.077-.199-.583-.49-1.027-.874-1.332-.376-.312-.834-.469-1.374-.469-.54 0-1.005.157-1.395.469-.384.305-.682.749-.895 1.332-.206.575-.309 1.268-.309 2.077Zm18.23 8.438c-1.044 0-1.967-.171-2.769-.512a4.158 4.158 0 0 1-1.875-1.576c-.455-.704-.682-1.598-.682-2.685 0-.895.152-1.658.458-2.291a4.122 4.122 0 0 1 1.278-1.566 6.056 6.056 0 0 1 1.907-.926 11.58 11.58 0 0 1 2.365-.416c.916-.071 1.651-.156 2.205-.256.562-.106.966-.252 1.215-.436a.91.91 0 0 0 .373-.757v-.042c0-.427-.164-.753-.49-.981-.327-.227-.746-.34-1.257-.34-.561 0-1.02.124-1.375.372-.348.242-.557.615-.628 1.119h-5.412c.071-.994.387-1.91.948-2.749.568-.845 1.396-1.519 2.482-2.024 1.087-.511 2.443-.767 4.07-.767 1.172 0 2.223.139 3.153.416.931.27 1.723.65 2.376 1.14.653.483 1.151 1.051 1.491 1.704.349.647.523 1.35.523 2.11V614h-5.498v-2.301h-.127c-.327.611-.725 1.104-1.194 1.481a4.38 4.38 0 0 1-1.587.82 7.02 7.02 0 0 1-1.95.256Zm1.918-3.708c.447 0 .866-.092 1.257-.277a2.42 2.42 0 0 0 .97-.799c.248-.348.372-.77.372-1.267v-1.364a6.863 6.863 0 0 1-.5.181 9.603 9.603 0 0 1-1.172.298c-.213.043-.437.082-.671.118-.455.071-.828.188-1.119.351a1.658 1.658 0 0 0-.639.586 1.473 1.473 0 0 0-.203.767c0 .455.16.803.48 1.044.319.242.728.362 1.225.362Zm17.128-18.366V614h-5.881v-21.818h5.881Zm12.755 5.454v4.262h-10.781v-4.262h10.781Zm-8.693-3.92h5.88v15.021c0 .227.039.419.118.575a.76.76 0 0 0 .362.341c.163.071.373.107.628.107.178 0 .384-.021.618-.064.242-.043.419-.078.533-.107l.852 4.134a20.86 20.86 0 0 1-1.129.288 9.953 9.953 0 0 1-1.726.223c-1.349.071-2.482-.067-3.398-.415-.917-.355-1.606-.913-2.067-1.673-.462-.76-.686-1.711-.671-2.855v-15.575Zm20.254 11.846c0 2.621-.358 5.032-1.076 7.234-.71 2.202-1.843 4.251-3.398 6.147h-5.753c.59-.703 1.133-1.559 1.63-2.567a21.348 21.348 0 0 0 1.289-3.292c.37-1.193.657-2.429.863-3.708.206-1.285.309-2.556.309-3.814 0-1.676-.177-3.362-.533-5.06a25.062 25.062 0 0 0-1.459-4.73c-.618-1.456-1.318-2.653-2.099-3.59h5.753c1.555 1.896 2.688 3.945 3.398 6.147.718 2.202 1.076 4.613 1.076 7.233Zm31.079-2.471c0 2.429-.472 4.478-1.417 6.147-.944 1.662-2.219 2.923-3.824 3.782-1.605.852-3.395 1.278-5.37 1.278-1.988 0-3.785-.429-5.39-1.289-1.598-.866-2.87-2.13-3.814-3.792-.938-1.669-1.406-3.711-1.406-6.126 0-2.429.468-4.475 1.406-6.136.944-1.669 2.216-2.93 3.814-3.782 1.605-.86 3.402-1.289 5.39-1.289 1.975 0 3.765.429 5.37 1.289 1.605.852 2.88 2.113 3.824 3.782.945 1.661 1.417 3.707 1.417 6.136Zm-6.094 0c0-1.307-.174-2.408-.522-3.303-.341-.902-.848-1.583-1.523-2.045-.668-.469-1.492-.703-2.472-.703s-1.807.234-2.482.703c-.668.462-1.175 1.143-1.523 2.045-.341.895-.512 1.996-.512 3.303s.171 2.411.512 3.313c.348.895.855 1.577 1.523 2.046.675.461 1.502.692 2.482.692.98 0 1.804-.231 2.472-.692.675-.469 1.182-1.151 1.523-2.046.348-.902.522-2.006.522-3.313Zm27.713-10.909V614h-4.944l-7.883-11.463h-.128V614h-5.923v-21.818h5.028l7.756 11.42h.17v-11.42h5.924Z"/></svg>