<svg width="1920" height="1080" viewBox="0 0 1920 1080" fill="none" xmlns="http://www.w3.org/2000/svg">
<g clip-path="url(#clip0_3529_16009)">
<path d="M244.451 382.209C244.451 402.717 250.717 418.505 263.25 429.572C275.783 440.64 293.361 446.174 315.984 446.174C338.934 446.174 357.895 441.372 372.869 431.77C387.843 422.167 397.609 410.285 402.166 396.125C402.492 404.914 403.631 413.622 405.584 422.248C407.537 430.712 409.734 437.629 412.176 443H422.186V441.291C419.419 435.106 417.059 426.968 415.105 416.877C413.152 406.786 412.176 395.962 412.176 384.406V283.82C412.176 259.406 405.665 241.828 392.645 231.086C379.786 220.344 360.825 214.973 335.76 214.973C310.206 214.973 290.268 220.588 275.945 231.818C261.622 243.049 254.461 256.558 254.461 272.346V284.553H264.959V273.566C264.959 259.569 271.062 247.932 283.27 238.654C295.639 229.214 313.217 224.494 336.004 224.494C358.465 224.494 375.066 229.377 385.809 239.143C396.551 248.745 401.922 264.289 401.922 285.773V313.361H333.562C304.754 313.361 282.7 319.546 267.4 331.916C252.101 344.123 244.451 360.887 244.451 382.209ZM254.705 381.965C254.705 363.41 261.297 348.843 274.48 338.264C287.827 327.684 307.602 322.395 333.807 322.395H401.922V371.955C401.922 390.184 393.702 405.565 377.264 418.098C360.988 430.467 341.049 436.652 317.449 436.652C297.43 436.652 281.967 431.932 271.062 422.492C260.158 413.052 254.705 399.543 254.705 381.965Z" fill="#3C4043"/>
<path d="M213.789 798.791C213.789 820.764 222.171 837.772 238.936 849.816C255.7 861.861 279.87 867.883 311.445 867.883C343.184 867.883 369.469 861.942 390.303 850.061C411.136 838.016 424.076 823.368 429.121 806.115C429.609 821.577 430.586 833.622 432.051 842.248C433.516 850.712 435.469 857.629 437.91 863H448.164V861.291C445.397 855.432 443.281 847.375 441.816 837.121C440.352 826.867 439.619 815.962 439.619 804.406V706.75C439.619 680.057 431.562 661.177 415.449 650.109C399.336 639.042 373.05 633.508 336.592 633.508C303.226 633.508 277.51 639.367 259.443 651.086C241.54 662.642 232.588 678.023 232.588 697.229V708.459H242.842V698.449C242.842 680.871 250.654 667.281 266.279 657.678C282.067 647.912 305.342 643.029 336.104 643.029C370.12 643.029 394.128 647.831 408.125 657.434C422.285 667.036 429.365 683.231 429.365 706.018V733.605L310.713 733.117C278.812 733.117 254.642 738.814 238.203 750.207C221.927 761.6 213.789 777.795 213.789 798.791ZM224.043 798.791C224.043 780.399 231.449 766.402 246.26 756.799C261.071 747.033 283.451 742.232 313.398 742.395L429.365 742.639V779.992C429.365 803.267 417.891 822.31 394.941 837.121C372.155 851.77 344.404 859.094 311.689 859.094C282.718 859.094 260.827 853.885 246.016 843.469C231.367 832.889 224.043 817.997 224.043 798.791Z" fill="#3C4043"/>
<path d="M1412.77 377.791C1412.77 399.926 1419.6 416.691 1433.27 428.084C1447.11 439.477 1466.23 445.174 1490.65 445.174C1511.15 445.174 1528.16 441.674 1541.67 434.676C1555.18 427.514 1564.7 419.539 1570.24 410.75C1570.89 416.772 1571.95 422.469 1573.41 427.84C1574.88 433.211 1576.91 437.931 1579.51 442H1662.28V438.582C1658.86 432.397 1656.34 425.154 1654.71 416.854C1653.24 408.553 1652.51 399.764 1652.51 390.486V293.807C1652.51 265.324 1643.56 244.734 1625.66 232.039C1607.92 219.344 1580.73 212.996 1544.11 212.996C1508.14 212.996 1479.9 219.507 1459.4 232.527C1438.89 245.548 1428.63 262.719 1428.63 284.041V290.145L1504.56 290.633V285.506C1504.56 276.88 1507.41 270.369 1513.11 265.975C1518.97 261.417 1527.19 259.139 1537.77 259.139C1548.67 259.139 1556.56 261.824 1561.45 267.195C1566.49 272.404 1569.02 280.053 1569.02 290.145V304.549H1511.15C1481.21 304.549 1457.28 311.222 1439.38 324.568C1421.64 337.915 1412.77 355.656 1412.77 377.791ZM1495.77 371.932C1495.77 362.003 1499.27 355.086 1506.27 351.18C1513.27 347.273 1524.18 345.32 1538.99 345.32H1569.02V362.166C1569.02 371.769 1564.54 380.477 1555.59 388.289C1546.8 395.939 1537.03 399.764 1526.29 399.764C1516.36 399.764 1508.79 397.485 1503.59 392.928C1498.38 388.208 1495.77 381.209 1495.77 371.932Z" fill="#3C4043"/>
<path d="M1385.5 794.641C1385.5 816.776 1393.88 834.273 1410.64 847.131C1427.41 859.826 1452.15 866.174 1484.86 866.174C1515.46 866.174 1540.28 862.186 1559.33 854.211C1578.53 846.236 1591.96 837.04 1599.61 826.623C1600.26 836.063 1601.24 843.469 1602.54 848.84C1603.84 854.211 1605.79 858.931 1608.4 863H1692.87V859.582C1689.62 853.723 1687.17 846.561 1685.55 838.098C1684.08 829.634 1683.35 820.764 1683.35 811.486V717.736C1683.35 686.975 1672.77 664.758 1651.61 651.086C1630.62 637.251 1596.19 630.334 1548.34 630.334C1504.07 630.334 1469.89 637.74 1445.8 652.551C1421.88 667.199 1409.91 685.184 1409.91 706.506V714.074L1485.6 714.562V707.971C1485.6 698.856 1489.91 691.776 1498.54 686.73C1507.32 681.522 1521.57 678.918 1541.26 678.918C1563.4 678.918 1578.53 681.522 1586.67 686.73C1594.97 691.939 1599.12 699.263 1599.12 708.703V728.723L1489.99 727.502C1454.18 727.176 1427.82 732.792 1410.89 744.348C1393.96 755.741 1385.5 772.505 1385.5 794.641ZM1468.51 788.781C1468.51 779.178 1472.25 773.075 1479.74 770.471C1487.39 767.867 1500.41 766.646 1518.8 766.809L1599.12 767.541V773.889C1599.12 789.188 1590.66 800.988 1573.73 809.289C1556.8 817.59 1538.17 821.74 1517.82 821.74C1500.24 821.74 1487.63 818.811 1479.98 812.951C1472.33 806.929 1468.51 798.872 1468.51 788.781Z" fill="#1A73E8"/>
<line x1="454.5" y1="336.5" x2="1373.5" y2="336.5" stroke="#FF6D7F" stroke-width="5" stroke-linecap="round" stroke-dasharray="10 10"/>
<line x1="490" y1="765" x2="1335" y2="765" stroke="#FF6D7F" stroke-width="20" stroke-linecap="round" stroke-dasharray="35 35"/>
<line x1="339.5" y1="477.5" x2="339.5" y2="599.5" stroke="#FF6D7F" stroke-width="5" stroke-linecap="round" stroke-dasharray="10 10"/>
<line x1="1554" y1="485" x2="1554" y2="592" stroke="#FF6D7F" stroke-width="20" stroke-linecap="round" stroke-dasharray="35 35"/>
</g>
<defs>
<clipPath id="clip0_3529_16009">
<rect width="1920" height="1080" fill="white"/>
</clipPath>
</defs>
</svg>
