<svg xmlns="http://www.w3.org/2000/svg" width="1920" height="1080" fill="none"><g clip-path="url(#a)"><path fill="#FF6D7F" d="M214.2 303.8c43.6 0 60.2-22.2 60.2-65.2v-69.8h-19v68.8c0 31.4-6.8 49.4-41.2 49.4-34.4 0-41.2-18-41.2-49.4v-68.8h-19v69.8c0 43 16.6 65.2 60.2 65.2Zm175.552 0c30.8 0 50.4-19.4 50.4-51.8v-83.2h-136.8v17h36V252c0 32.4 19.6 51.8 50.4 51.8Zm-31.4-50.8v-67.2h62.8V253c0 21-10.6 34-31.4 34-20.8 0-31.4-13-31.4-34Zm341.851-49.4h-39.6c-37.6 0-53.4 19.4-53.4 55.8V301h19v-42.6c0-24.8 7.8-37.8 37.4-37.8h55.6v-51.8h-19v34.8Zm65.545-.4c0-15 8.6-18.6 17.8-18.6h26.6v-15.8h-27c-20.4 0-35 8.6-35 34.4v5c0 26 14.6 34.6 35 34.6h27V227h-26.6c-9.2 0-17.8-3.4-17.8-18.8v-5Zm151.738-37.4c-30.8 0-50.4 19.4-50.4 51.8V284h-36v17h55v-84.4c0-21 10.6-34 31.4-34 20.8 0 31.4 13 31.4 34V301h19v-83.4c0-32.4-19.6-51.8-50.4-51.8Zm165.824 138c30.8 0 50.4-19.4 50.4-51.8v-83.2H996.906v17h36.004V252c0 32.4 19.6 51.8 50.4 51.8Zm-31.4-50.8v-67.2h62.8V253c0 21-10.6 34-31.4 34-20.8 0-31.4-13-31.4-34Zm250.85 48h27.8l86.6-80v-15.4h-91.8v-36.8h-19v53.6h83.2l-86.8 78.6Zm143.43-37c0 26.2 12.8 40 39.4 40 26.8 0 40-14.4 40-39 0-21.4-10.8-37.4-34-37.4-13.4 0-21.4 4.6-26.4 10v-5.2c0-31.6 6.8-49.6 41.2-49.6 34.4 0 41.2 18 41.2 49.4V301h19v-69.8c0-43-16.6-65.2-60.2-65.2s-60.2 22.2-60.2 65.4V264Zm19-1.4v-2c0-8.6 7.6-17 21.8-17 14.2 0 20.2 8.6 20.2 21.4 0 14-5.8 22.2-21.6 22.2-15 0-20.4-8.6-20.4-24.6Zm126.35-93.8v16.8l54 115.4h21.4l51.4-115.4v-16.8h-126.8Zm21 17.6h83.8l-40.6 96-43.2-96ZM152.8 601h46.4c37 0 62.6-20.2 62.6-65.6V517c0-45.4-25.6-67-62.6-67h-46.4v151Zm46.4-133.4c24.2 0 42.6 13.4 42.6 48v21.2c0 34.6-16.4 46.6-42.6 46.6h-26.8V467.6h26.8Zm100.444 3.2h18.8V451h-18.8v19.8Zm42.8 0h18.8V451h-18.8v19.8Zm-12.2 20.4c-26.4 0-45.6 19.4-45.6 49.8v13.2c0 32.4 21.2 49.8 49.6 49.8 16.8 0 27.4-2.6 39.2-9.4V578c-13.8 8.4-23.8 9.6-37.4 9.6-18.8 0-32.4-11.6-32.8-32h72.8V539c0-32.4-19.4-47.8-45.8-47.8Zm0 16.4c17.2 0 27.2 10 27.2 30.4v1.8h-54.2c0-20.2 9.8-32.2 27-32.2Zm72.095 93.4h18.6v-62.6c0-22.2 14-29.8 29-29.8 13 0 25.2 8.2 25.2 28.6V601h18.6v-65.2c0-28-12.2-44.6-39.2-44.6-15 0-26.2 6.2-33.6 16.2V494h-18.6v107Zm162.67-109.8c-26.4 0-45.6 19.4-45.6 49.8v13.2c0 32.4 21.2 49.8 49.6 49.8 16.8 0 27.4-2.6 39.2-9.4V578c-13.8 8.4-23.8 9.6-37.4 9.6-18.8 0-32.4-11.6-32.8-32h72.8V539c0-32.4-19.4-47.8-45.8-47.8Zm0 16.4c17.2 0 27.2 10 27.2 30.4v1.8h-54.2c0-20.2 9.8-32.2 27-32.2Zm117.914 84c14.6 8 28.2 11.6 45.6 11.6 31.4 0 55.6-15.8 55.6-45.2 0-28.2-18.2-38.6-43.2-41.6l-10-1.2c-22.6-2.8-29-7.6-29-24.4 0-17.6 11.4-26.2 32.4-26.2 15.8 0 29.2 5.8 42.2 14.8v-20.2c-11-7.4-23.8-11.6-42.8-11.6-28.6 0-51.6 15.6-51.6 42.8 0 25.2 15.8 39 39.6 41.8l10 1.2c24 2.8 32.4 8.4 32.4 26 0 16.2-13 27-34 27-18 0-33.2-6-47.2-15v20.2ZM808.175 494v65.2c0 28 13.4 44.6 40.4 44.6 14.4 0 24.6-5.8 31.4-15.2v12.2c-7.4 5-13.6 12.4-13.6 22.6 0 14.8 10.8 23.2 27.8 23.2 3 0 6-.4 9-1v-15.2c-1.8.2-3.8.4-5.8.4-8.8 0-13.6-5.2-13.6-12.4 0-8.2 6.2-14.4 14.8-17.4V494h-18.6v62.6c0 19.2-13 29.8-28 29.8-13 0-25.2-6.2-25.2-26.6V494h-18.6Zm129.894 78c0 21 5 32 26.6 32 4.8 0 9.6-1.2 12.2-2.4v-16c-2.2 1-5.6 1.8-10 1.8-8.2 0-10.2-4.6-10.2-16.6V526l18.4-11.6v-16.6l-18.4 11.4V450h-18.6v70.8l-17 10.6v17l17-10.8V572Zm61.517-101.2h20.004V451h-20.004v19.8Zm.804 130.2h18.6V494h-18.6v107Zm50.19 0h18.6v-62.6c0-22.2 14-29.8 29-29.8 13 0 25.2 8.2 25.2 28.6V601h18.6v-65.2c0-28-12.2-44.6-39.2-44.6-15 0-26.2 6.2-33.6 16.2V494h-18.6v107Zm132.07-130.2h18.8V451h-18.8v19.8Zm42.8 0h18.8V451h-18.8v19.8Zm-12.2 20.4c-26.4 0-45.6 19.4-45.6 49.8v13.2c0 32.4 21.2 49.8 49.6 49.8 16.8 0 27.4-2.6 39.2-9.4V578c-13.8 8.4-23.8 9.6-37.4 9.6-18.8 0-32.4-11.6-32.8-32h72.8V539c0-32.4-19.4-47.8-45.8-47.8Zm0 16.4c17.2 0 27.2 10 27.2 30.4v1.8h-54.2c0-20.2 9.8-32.2 27-32.2Zm221.27-57.6h-20.8l-38 74-35.8-74h-23l48.4 93.8V601h19.6v-56.6l49.6-94.4Zm81.59 151v-66c0-17.8 0-43.8-43.6-43.8-17.8 0-28.4 4.4-36.8 11.2v18.2c10.6-9.6 22-13 34.4-13 27.4 0 27.4 16.6 27.4 28.4v3.6h-22c-12.6 0-45.8 0-45.8 33.4 0 19.6 11.4 31 34.8 31 15 0 26-4.8 33-14.8V601h18.6Zm-18.6-39.8c0 20.6-16.2 27-30.2 27-12.6 0-19-5.2-19-16.4 0-16.4 14-16.4 26.2-16.4h23v5.8Zm56.19 4.8c0 23.2 9.6 38 34.2 38 6.4 0 11.8-1 15.2-2v-16.2c-3 1-9.8 1.6-13.8 1.6-13.2 0-17-6.6-17-22.6v-55h28V494h-28v-33h-18.6v33h-19v15.8h19V566Zm70.71 35h18.6V494h-18.6v107Zm83.19-124.4h15.6L1743 446h-17.8l-17.6 30.6Zm7.6 14.6c-26.4 0-45.6 19.4-45.6 49.8v13.2c0 32.4 21.2 49.8 49.6 49.8 16.8 0 27.4-2.6 39.2-9.4V578c-13.8 8.4-23.8 9.6-37.4 9.6-18.8 0-32.4-11.6-32.8-32h72.8V539c0-32.4-19.4-47.8-45.8-47.8Zm0 16.4c17.2 0 27.2 10 27.2 30.4v1.8h-54.2c0-20.2 9.8-32.2 27-32.2ZM152.8 901h46.4c37 0 62.6-20.2 62.6-65.6V817c0-45.4-25.6-67-62.6-67h-46.4v151Zm46.4-133.4c24.2 0 42.6 13.4 42.6 48v21.2c0 34.6-16.4 46.6-42.6 46.6h-26.8V767.6h26.8Zm100.444 3.2h18.8V751h-18.8v19.8Zm42.8 0h18.8V751h-18.8v19.8Zm-12.2 20.4c-26.4 0-45.6 19.4-45.6 49.8v13.2c0 32.4 21.2 49.8 49.6 49.8 16.8 0 27.4-2.6 39.2-9.4V878c-13.8 8.4-23.8 9.6-37.4 9.6-18.8 0-32.4-11.6-32.8-32h72.8V839c0-32.4-19.4-47.8-45.8-47.8Zm0 16.4c17.2 0 27.2 10 27.2 30.4v1.8h-54.2c0-20.2 9.8-32.2 27-32.2Zm72.095 93.4h18.6v-62.6c0-22.2 14-29.8 29-29.8 13 0 25.2 8.2 25.2 28.6V901h18.6v-65.2c0-28-12.2-44.6-39.2-44.6-15 0-26.2 6.2-33.6 16.2V794h-18.6v107Zm162.67-109.8c-26.4 0-45.6 19.4-45.6 49.8v13.2c0 32.4 21.2 49.8 49.6 49.8 16.8 0 27.4-2.6 39.2-9.4V878c-13.8 8.4-23.8 9.6-37.4 9.6-18.8 0-32.4-11.6-32.8-32h72.8V839c0-32.4-19.4-47.8-45.8-47.8Zm0 16.4c17.2 0 27.2 10 27.2 30.4v1.8h-54.2c0-20.2 9.8-32.2 27-32.2Zm117.914 84c14.6 8 28.2 11.6 45.6 11.6 31.4 0 55.6-15.8 55.6-45.2 0-28.2-18.2-38.6-43.2-41.6l-10-1.2c-22.6-2.8-29-7.6-29-24.4 0-17.6 11.4-26.2 32.4-26.2 15.8 0 29.2 5.8 42.2 14.8v-20.2c-11-7.4-23.8-11.6-42.8-11.6-28.6 0-51.6 15.6-51.6 42.8 0 25.2 15.8 39 39.6 41.8l10 1.2c24 2.8 32.4 8.4 32.4 26 0 16.2-13 27-34 27-18 0-33.2-6-47.2-15v20.2ZM808.175 794v65.2c0 28 13.4 44.6 40.4 44.6 14.4 0 24.6-5.8 31.4-15.2v12.2c-7.4 5-13.6 12.4-13.6 22.6 0 14.8 10.8 23.2 27.8 23.2 3 0 6-.4 9-1v-15.2c-1.8.2-3.8.4-5.8.4-8.8 0-13.6-5.2-13.6-12.4 0-8.2 6.2-14.4 14.8-17.4V794h-18.6v62.6c0 19.2-13 29.8-28 29.8-13 0-25.2-6.2-25.2-26.6V794h-18.6Zm129.894 78c0 21 5 32 26.6 32 4.8 0 9.6-1.2 12.2-2.4v-16c-2.2 1-5.6 1.8-10 1.8-8.2 0-10.2-4.6-10.2-16.6V826l18.4-11.6v-16.6l-18.4 11.4V750h-18.6v70.8l-17 10.6v17l17-10.8V872Zm61.517-101.2h20.004V751h-20.004v19.8Zm.804 130.2h18.6V794h-18.6v107Zm50.19 0h18.6v-62.6c0-22.2 14-29.8 29-29.8 13 0 25.2 8.2 25.2 28.6V901h18.6v-65.2c0-28-12.2-44.6-39.2-44.6-15 0-26.2 6.2-33.6 16.2V794h-18.6v107Zm132.07-130.2h18.8V751h-18.8v19.8Zm42.8 0h18.8V751h-18.8v19.8Zm-12.2 20.4c-26.4 0-45.6 19.4-45.6 49.8v13.2c0 32.4 21.2 49.8 49.6 49.8 16.8 0 27.4-2.6 39.2-9.4V878c-13.8 8.4-23.8 9.6-37.4 9.6-18.8 0-32.4-11.6-32.8-32h72.8V839c0-32.4-19.4-47.8-45.8-47.8Zm0 16.4c17.2 0 27.2 10 27.2 30.4v1.8h-54.2c0-20.2 9.8-32.2 27-32.2Zm221.27-57.6h-20.8l-38 74-35.8-74h-23l48.4 93.8V901h19.6v-56.6l49.6-94.4Zm81.59 151v-66c0-17.8 0-43.8-43.6-43.8-17.8 0-28.4 4.4-36.8 11.2v18.2c10.6-9.6 22-13 34.4-13 27.4 0 27.4 16.6 27.4 28.4v3.6h-22c-12.6 0-45.8 0-45.8 33.4 0 19.6 11.4 31 34.8 31 15 0 26-4.8 33-14.8V901h18.6Zm-18.6-39.8c0 20.6-16.2 27-30.2 27-12.6 0-19-5.2-19-16.4 0-16.4 14-16.4 26.2-16.4h23v5.8Zm56.19 4.8c0 23.2 9.6 38 34.2 38 6.4 0 11.8-1 15.2-2v-16.2c-3 1-9.8 1.6-13.8 1.6-13.2 0-17-6.6-17-22.6v-55h28V794h-28v-33h-18.6v33h-19v15.8h19V866Zm70.71 35h18.6V794h-18.6v107Zm83.19-124.4h15.6L1743 746h-17.8l-17.6 30.6Zm7.6 14.6c-26.4 0-45.6 19.4-45.6 49.8v13.2c0 32.4 21.2 49.8 49.6 49.8 16.8 0 27.4-2.6 39.2-9.4V878c-13.8 8.4-23.8 9.6-37.4 9.6-18.8 0-32.4-11.6-32.8-32h72.8V839c0-32.4-19.4-47.8-45.8-47.8Zm0 16.4c17.2 0 27.2 10 27.2 30.4v1.8h-54.2c0-20.2 9.8-32.2 27-32.2Z"/><path fill="#1A73E8" d="M1202 438.6h15.6l19.8-30.6h-17.8l-17.6 30.6ZM1202 770.6h15.6l19.8-30.6h-17.8l-17.6 30.6Z"/></g><defs><clipPath id="a"><path fill="#fff" d="M0 0h1920v1080H0z"/></clipPath></defs></svg>