<svg xmlns="http://www.w3.org/2000/svg" width="1920" height="1080" fill="none"><g clip-path="url(#a)"><mask id="b" width="1815" height="124" x="110" y="472" maskUnits="userSpaceOnUse" style="mask-type:luminance"><path fill="#fff" d="M110 596h1814.66V472.461H110V596Z"/></mask><g mask="url(#b)"><path stroke="#3C4043" stroke-width="1.05" d="M110 593.369h1686.97M110 490.576h1686.97"/><path fill="#FF6D7F" d="M1474.79 542.83a105.212 105.212 0 0 0 13.06-19.078 40.433 40.433 0 0 0 4.77-18.766c0-10.321-3.13-18.165-9.38-23.534-6.26-5.369-15.07-8.054-26.43-8.054-7.3 0-13.55.834-18.77 2.502a42.651 42.651 0 0 0-14.38 7.975v15.795c6.15-4.586 11.47-7.766 15.95-9.54a41.409 41.409 0 0 1 15.32-2.658c6.99 0 12.44 1.694 16.35 5.082 3.91 3.388 5.86 8.315 5.86 14.781 0 3.65-1.1 7.742-3.29 12.276a69.341 69.341 0 0 1-8.75 13.524l-41.91 50.666v9.852h71.31l.15-13.761h-50.82l30.96-37.062Zm38.76 13.605c0 12.615 2.97 22.363 8.91 29.243 5.94 6.88 15.01 10.32 27.21 10.321 12.09 0 21.19-3.597 27.29-10.79 6.1-7.194 9.15-16.785 9.15-28.774V513.9c0-12.718-3.03-22.647-9.07-29.786-6.05-7.14-15.17-10.712-27.37-10.716-12.09 0-21.14 3.571-27.13 10.712-5.99 7.142-8.99 17.071-8.99 29.787v42.538Zm15.32-43.63c0-8.757 1.7-15.195 5.08-19.313 3.39-4.118 8.63-6.177 15.73-6.176 7.19 0 12.51 2.058 15.95 6.176 3.44 4.118 5.16 10.556 5.16 19.313v44.725c0 7.819-1.65 13.865-4.93 18.139-3.28 4.275-8.68 6.412-16.19 6.412-7.4 0-12.72-2.137-15.95-6.412-3.23-4.274-4.84-10.32-4.85-18.139v-44.725Zm134.3 19.235a28.811 28.811 0 0 0 9.93-11.024 32.28 32.28 0 0 0 3.52-15.088 33.014 33.014 0 0 0-4.22-16.654 29.94 29.94 0 0 0-11.96-11.651 36.464 36.464 0 0 0-17.75-4.219 36.49 36.49 0 0 0-17.75 4.219 29.94 29.94 0 0 0-11.96 11.651 33.116 33.116 0 0 0-4.22 16.654 32.564 32.564 0 0 0 3.44 15.012 28.851 28.851 0 0 0 9.7 10.947c-5 2.804-9.12 6.946-11.89 11.96a34.472 34.472 0 0 0-4.22 17.123 35.184 35.184 0 0 0 4.61 17.983 32.544 32.544 0 0 0 12.98 12.511 42.08 42.08 0 0 0 38 0 32.621 32.621 0 0 0 12.98-12.511 35.286 35.286 0 0 0 4.61-17.983 34.425 34.425 0 0 0-4.14-16.889 31.88 31.88 0 0 0-11.66-12.041ZM1643 486.69c5.84 0 10.58 1.903 14.23 5.709a19.411 19.411 0 0 1 5.48 13.996 19.397 19.397 0 0 1-5.48 13.994c-3.65 3.806-8.39 5.709-14.23 5.709-5.94 0-10.71-1.903-14.31-5.709a19.601 19.601 0 0 1-5.39-13.995 19.603 19.603 0 0 1 5.39-13.996c3.6-3.806 8.37-5.708 14.31-5.708Zm-.31 95.39c-6.47 0-11.65-2.059-15.56-6.177a21.226 21.226 0 0 1-4.45-7.039 21.113 21.113 0 0 1-1.41-8.208 21.12 21.12 0 0 1 1.41-8.208 21.408 21.408 0 0 1 4.45-7.039c3.91-4.117 9.1-6.176 15.56-6.177 6.46 0 11.68 2.059 15.64 6.177a21.189 21.189 0 0 1 5.94 15.248c.07 2.809-.42 5.604-1.44 8.222a21.06 21.06 0 0 1-4.51 7.025c-3.96 4.12-9.17 6.179-15.63 6.177m50.33-72.091a36.952 36.952 0 0 0 4.77 18.691 34.042 34.042 0 0 0 13.37 13.132 39.882 39.882 0 0 0 19.7 4.77 53.29 53.29 0 0 0 8.76-.782l-23.14 47.852h16.57l27.52-57.704a113.11 113.11 0 0 0 5.71-12.666 37.265 37.265 0 0 0 2.42-13.293 37.033 37.033 0 0 0-4.76-18.686 34.163 34.163 0 0 0-13.38-13.136 39.904 39.904 0 0 0-19.7-4.77 39.93 39.93 0 0 0-19.7 4.77 34.059 34.059 0 0 0-13.37 13.136 37.04 37.04 0 0 0-4.77 18.686Zm15.79 0a22.515 22.515 0 0 1 6.1-16.029c4.07-4.325 9.49-6.488 16.26-6.489 6.88 0 12.36 2.163 16.42 6.489a22.515 22.515 0 0 1 6.1 16.029c0 6.466-2.03 11.835-6.1 16.107-4.06 4.273-9.54 6.41-16.42 6.412-6.77 0-12.2-2.137-16.26-6.412-4.06-4.274-6.1-9.643-6.1-16.107"/><path fill="#1A73E8" d="M1049.6 507.802a33.444 33.444 0 0 0-15.16 3.284 30.97 30.97 0 0 0-11.11 9.383v-44.88h-14.54v118.065h14.54v-48.949c-.11-4.377.98-8.7 3.13-12.511a20.691 20.691 0 0 1 8.37-8.05 23.77 23.77 0 0 1 11.18-2.737 19.247 19.247 0 0 1 14.07 5.551c3.75 3.702 5.63 9.306 5.63 16.812v49.884h14.54v-50.979c0-11.259-2.52-19.886-7.58-25.881-5.06-5.995-12.75-8.992-23.07-8.992Zm68.94 2.19H1104v83.662h14.54v-83.662Zm.47-34.403h-15.48v17.044h15.48v-17.044Zm62.21 73.028 28.31-38.625h-16.42l-22.83 33.306h-12.67v-67.709h-14.54v118.065h14.54v-38.312h11.88l25.65 38.312h16.74l-30.66-45.037Zm96.93-76.156h-12.83l-12.04 15.484-11.57-15.484h-13.29l18.92 23.923h11.89l18.92-23.923Zm-55.98 116.971a50.836 50.836 0 0 0 13.6 4.614 74.897 74.897 0 0 0 15.48 1.798c5.7.004 11.36-.976 16.73-2.896a32.117 32.117 0 0 0 13.45-8.833c3.55-3.961 5.32-8.861 5.32-14.699 0-8.027-2.22-13.891-6.65-17.593-4.43-3.701-10.5-5.864-18.21-6.49l-9.39-.782c-5.31-.415-9.56-1.38-12.74-2.895-3.18-1.516-4.77-4.305-4.77-8.367 0-4.169 1.67-7.296 5.01-9.383 3.33-2.087 8.13-3.129 14.38-3.127 4.81.075 9.59.758 14.23 2.033 5.08 1.3 9.97 3.245 14.55 5.786v-14.54c-7.82-4.274-17.94-6.411-30.35-6.412a41.167 41.167 0 0 0-15.71 2.97 27.639 27.639 0 0 0-11.65 8.605 20.999 20.999 0 0 0-4.38 13.292c0 15.224 8.55 23.356 25.65 24.395l8.29.625c11.67.523 17.51 4.798 17.51 12.825.1 1.977-.37 3.941-1.36 5.658a10.318 10.318 0 0 1-4.19 4.038c-3.7 2.083-8.73 3.125-15.09 3.125-4.98.018-9.93-.694-14.7-2.114a98.806 98.806 0 0 1-15.02-6.02l.01 14.387Zm98.33-79.44h-14.54v83.662h14.54v-83.662Zm.47-34.403h-15.48v17.044h15.48v-17.044Zm62.21 73.028 28.31-38.625h-16.42l-22.83 33.306h-12.67v-67.709h-14.54v118.065h14.54v-38.312h11.88l25.65 38.312h16.74l-30.66-45.037Z"/><path fill="#FF6D7F" d="M580.445 560.505c7.609-7.296 13.265-13.03 16.967-17.202a44.638 44.638 0 0 0 8.054-12.275 36.75 36.75 0 0 0 2.502-14.149c0-9.487-3.128-16.654-9.383-21.501-6.255-4.847-15.064-7.271-26.428-7.272-14.179 0-25.542 3.492-34.089 10.477v15.008a65.812 65.812 0 0 1 16.419-9.382 45.449 45.449 0 0 1 15.794-2.814c7.088 0 12.613 1.435 16.576 4.303 3.963 2.868 5.943 7.063 5.942 12.585 0 4.588-1.538 9.176-4.613 13.761-3.076 4.585-8.419 10.632-16.029 18.14l-34.559 34.089v9.382h71.31l.155-13.293h-49.572l20.954-19.857Zm49.546-4.066c0 12.616 2.945 22.363 8.835 29.243 5.89 6.879 14.83 10.319 26.819 10.318 11.885 0 20.851-3.596 26.897-10.79 6.047-7.193 9.07-16.784 9.07-28.771v-27.835c0-12.718-2.997-22.647-8.992-29.787-5.995-7.14-14.986-10.71-26.973-10.712-11.885 0-20.798 3.571-26.741 10.712-5.942 7.142-8.913 17.071-8.913 29.787l-.002 27.835Zm14.856-28.93c0-9.173 1.694-15.845 5.082-20.016 3.388-4.172 8.628-6.257 15.72-6.256 7.194 0 12.511 2.085 15.951 6.256 3.44 4.17 5.16 10.842 5.16 20.016v30.025c0 8.131-1.642 14.386-4.926 18.765-3.284 4.379-8.679 6.568-16.185 6.568-7.403 0-12.72-2.189-15.95-6.568-3.23-4.379-4.848-10.634-4.852-18.765v-30.025Zm134.146 12.667a24.666 24.666 0 0 0 9.539-9.54 28.31 28.31 0 0 0 3.284-13.918 27.08 27.08 0 0 0-3.988-14.465 27.909 27.909 0 0 0-11.65-10.321c-5.11-2.55-11.208-3.827-18.296-3.83-7.087-.004-13.186 1.273-18.296 3.831a27.896 27.896 0 0 0-11.651 10.323 27.09 27.09 0 0 0-3.988 14.465c-.102 4.783 1 9.515 3.206 13.761a24.386 24.386 0 0 0 9.305 9.539 27.135 27.135 0 0 0-11.494 9.852c-2.658 4.171-3.987 9.175-3.987 15.012 0 9.383 3.232 16.915 9.695 22.597 6.464 5.682 15.43 8.523 26.897 8.522 11.468 0 20.433-2.814 26.897-8.444 6.465-5.63 9.697-13.188 9.697-22.677a27.47 27.47 0 0 0-3.911-14.856 26.766 26.766 0 0 0-11.259-9.851Zm-20.799-39.251c6.568 0 11.547 1.537 14.935 4.613a15.246 15.246 0 0 1 5.082 11.806c0 5.317-1.824 9.487-5.473 12.511-3.649 3.023-8.497 4.535-14.544 4.535-6.255 0-11.154-1.512-14.7-4.535-3.545-3.024-5.317-7.194-5.316-12.511a15.237 15.237 0 0 1 5.082-11.806c3.387-3.074 8.364-4.612 14.934-4.613Zm-.312 81.786c-7.298 0-12.745-1.616-16.342-4.848-3.596-3.232-5.395-7.715-5.395-13.449a15.78 15.78 0 0 1 5.943-12.742c3.961-3.283 9.226-4.925 15.794-4.926 6.671 0 11.987 1.642 15.951 4.926a15.803 15.803 0 0 1 5.942 12.742c0 5.527-1.851 9.958-5.552 13.292-3.701 3.335-9.148 5.003-16.341 5.005Zm89.578-94.609c-11.99 0-21.294 3.179-27.913 9.539-6.62 6.359-9.929 14.96-9.929 25.802 0 10.739 2.997 19.34 8.992 25.803 5.995 6.462 14.986 9.694 26.973 9.695 5.63 0 10.165-.678 13.605-2.033l-17.983 36.749h16.107l18.763-38.313a119.167 119.167 0 0 0 7.037-16.966 50.517 50.517 0 0 0 2.19-14.935c0-10.842-3.258-19.442-9.774-25.802-6.515-6.36-15.871-9.54-28.068-9.539Zm.312 57.703c-7.716 0-13.528-2.033-17.435-6.098-3.908-4.066-5.863-9.434-5.865-16.104 0-6.775 1.903-12.197 5.709-16.264 3.806-4.066 9.67-6.099 17.592-6.098 7.506 0 13.24 2.033 17.202 6.098 3.962 4.066 5.942 9.487 5.941 16.264 0 6.674-1.98 12.043-5.942 16.107-3.962 4.063-9.695 6.096-17.202 6.099"/><path fill="#1A73E8" d="M132.215 580.518v13.135h99.144v-13.135l-40.189-90.231h-16.733l-42.222 90.231Zm16.42-.626 33.777-75.062 31.745 75.062h-65.522Zm160.887-65.835c-12.301 0-21.944 3.414-28.93 10.243-6.986 6.829-10.479 16.289-10.478 28.38v2.033c0 11.676 3.337 20.226 10.012 25.649h-38.16v13.291h67.556c12.3 0 21.944-3.44 28.93-10.321 6.986-6.88 10.478-16.419 10.477-28.617v-1.72c0-12.198-3.519-21.737-10.556-28.617-7.037-6.881-16.654-10.321-28.851-10.321Zm24.551 41.44c0 8.029-2.189 14.179-6.568 18.451-4.378 4.272-10.634 6.409-18.765 6.413h-2.659c-7.403-.313-12.772-2.736-16.107-7.271-3.334-4.535-5.002-10.399-5.004-17.593v-3.284c0-8.132 2.085-14.335 6.255-18.609 4.17-4.274 10.269-6.412 18.297-6.412 8.026 0 14.125 2.138 18.296 6.412 4.171 4.274 6.256 10.477 6.255 18.609v3.284Zm30.467 25.021v13.135h99.144v-13.135l-40.189-90.231h-16.732l-42.223 90.231Zm16.42-.626 33.778-75.062 31.745 75.062H380.96Zm103.342-62.708c0-9.695 4.64-14.543 13.918-14.543h20.798v-12.354h-21.114c-18.245 0-27.367 8.966-27.366 26.897v3.91c0 18.037 9.122 27.056 27.366 27.056h21.111v-12.357h-20.798c-4.171 0-7.533-1.068-10.086-3.205-2.554-2.137-3.831-5.968-3.832-11.494l.003-3.91Z"/></g></g><defs><clipPath id="a"><path fill="#fff" d="M0 0h1920v1080H0z"/></clipPath></defs></svg>