<svg xmlns="http://www.w3.org/2000/svg" width="1920" height="1080" fill="none"><mask id="a" width="1723" height="791" x="101" y="145" maskUnits="userSpaceOnUse" style="mask-type:luminance"><path fill="#fff" d="M101.566 936H1823.43V145H101.566v791Z"/></mask><g mask="url(#a)"><path fill="#FF6D7F" d="M252.31 273.988h-1.664c-9.868 0-18.19-4.045-18.19-12.608 0-3.331 1.189-7.97 2.854-13.441l-1.189-.951a112.38 112.38 0 0 0-9.391 6.422l-5.588 15.463c-14.979 5.831-36.496 9.397-52.902 9.397-37.922 0-53.021-14.867-53.021-32.947 0-4.282 1.074-9.04 2.735-14.273l-7.251-2.498a75.014 75.014 0 0 0-7.133 31.524c0 15.463 6.535 26.049 17.119 32.947 9.153 5.828 21.993 9.991 41.846 9.991 21.751 0 44.223-5.947 64.552-14.866h.358c5.112 6.895 13.791 9.633 25.203 9.633h1.662v-23.793Zm-110.797-65.061c5.707 4.638 11.532 9.753 17.238 15.343a169.533 169.533 0 0 0 11.769-14.867 262.103 262.103 0 0 0-16.763-15.343l-12.244 14.867Zm28.769-1.547c5.706 4.639 11.531 9.754 17.238 15.344a170.005 170.005 0 0 0 11.769-14.866 261.82 261.82 0 0 0-16.762-15.346l-12.245 14.868Zm203.761 66.608h-1.664c-13.552 0-19.734-4.045-19.734-12.371 0-3.924 1.308-9.039 3.329-15.461l-.832-.833a80.652 80.652 0 0 0-9.511 5.828c-2.14 5.828-3.329 12.489-6.658 16.771-2.733 3.568-6.3 6.066-12.006 6.066-3.805 0-5.944-2.379-5.944-7.493 0-3.212 2.496-9.159 5.468-16.177l-.95-1.189a72.365 72.365 0 0 0-9.63 4.758c-3.092 5.709-3.923 10.824-8.56 15.462a15.342 15.342 0 0 1-11.293 4.639c-3.804 0-6.182-1.665-6.182-6.066 0-3.688 2.853-9.159 7.251-15.463l-1.308-1.189a84.115 84.115 0 0 0-10.342 4.757c-4.042 5.472-6.657 9.99-10.223 12.608-4.518 3.45-11.294 5.353-21.28 5.353h-1.664c-5.707 0-8.325 6.185-8.325 11.894 0 5.709 2.618 11.894 8.325 11.894h1.664a38.86 38.86 0 0 0 24.727-9.039c2.14 6.66 6.777 9.039 12.72 9.039 7.847 0 13.197-3.687 19.615-10.11h.595c2.14 6.78 6.657 10.11 13.196 10.11 6.892 0 13.671-3.568 20.091-10.942h.475c4.042 7.97 13.672 10.942 26.986 10.942h1.664v-23.788Zm55.636 0h-1.426a23.828 23.828 0 0 1-12.72-3.45c-4.517-3.092-5.825-6.66-5.825-12.25 0-2.379.831-5.948 2.258-10.943l-.832-.717c-3.685 2.142-6.776 4.282-9.511 6.185-2.614 5.472-3.209 13.084-9.747 17.128-3.924 2.382-8.203 4.047-16.169 4.047h-1.664c-5.706 0-8.324 6.185-8.324 11.894 0 5.709 2.615 11.894 8.324 11.894h1.664c10.343 0 18.427-4.519 24.847-12.964h.358c6.3 10.823 16.405 12.964 27.223 12.964h1.545l-.001-23.788Zm-30.075 57.687c4.755 4.639 9.391 9.277 13.909 14.154a53.519 53.519 0 0 0 11.65-12.132 95.533 95.533 0 0 0-13.553-14.752l-12.006 12.73Zm-25.084 1.07c4.755 4.639 9.391 9.278 13.909 14.154a53.455 53.455 0 0 0 11.65-12.132 95.544 95.544 0 0 0-13.553-14.747l-12.006 12.725Zm84.167-106.214a179.367 179.367 0 0 0-12.125 18.555c5.468 9.396 11.65 21.41 11.65 24.264 0 1.903-12.245 4.639-25.916 4.639h-2.616c-5.706 0-8.324 6.184-8.324 11.894 0 5.709 2.615 11.894 8.324 11.894h1.665c10.818 0 18.545-1.546 24.014-4.044 4.041-1.784 7.845-5.233 11.65-12.132a49.535 49.535 0 0 0 4.869-21.648c0-7.613-3.804-18.437-12.007-33.186l-1.184-.236Zm-22.231-21.412a208.755 208.755 0 0 1 17.237 13.202 41.653 41.653 0 0 0 10.699-14.63 123.42 123.42 0 0 0-17-13.916l-10.936 15.344Zm171.069 68.869-11.175 19.506 1.665 2.141c17.594.717 30.075 2.974 34.593 8.088-15.097 10.468-30.075 14.274-44.934 14.274-20.923 0-35.783-11.776-35.783-36.04 0-7.018 2.378-16.176 7.371-27.714l-6.658-3.211c-8.202 15.941-13.195 31.282-13.195 45.674 0 28.784 17 45.912 44.342 45.912 16.644 0 38.161-7.018 54.924-21.767 3.804-6.896 6.181-12.846 6.181-17.247a31.273 31.273 0 0 0-.475-5.828h6.419v-23.788h-43.275Zm57.182-85.758c5.97 4.1 11.723 8.506 17.237 13.203a41.671 41.671 0 0 0 10.699-14.63 123.42 123.42 0 0 0-17-13.916l-10.936 15.343Zm-13.91 85.758c-5.706 0-8.325 6.185-8.325 11.894 0 5.709 2.615 11.894 8.325 11.894h1.665c38.758 0 58.013-1.903 58.013-32.828 0-27.357-10.818-56.497-26.985-56.497-6.776 0-13.196 3.925-18.902 10.11a34.628 34.628 0 0 0-9.393 24.026c0 15.582 11.055 22.718 31.264 22.718 4.328.045 8.654-.154 12.959-.594.243.52.366 1.09.358 1.665 0 7.017-16.881 7.612-42.559 7.612h-6.42Zm45.65-27.119c-18.664-.475-31.149-5.114-31.149-11.775 0-3.568 4.754-7.971 12.838-7.971 7.846 0 13.909 7.254 18.307 19.744m67.291 27.121h-1.664c-10.819 0-15.575-4.045-15.575-15.941 0-9.753.237-16.058.237-28.546 0-16.652-.237-36.159-2.139-53.286l-1.665-.833a177.289 177.289 0 0 0-13.671 13.203c3.091 29.259 4.16 64.228 4.279 77.788.358 23.195 12.007 31.4 28.176 31.4h2.02l.002-23.785Zm34.831-60.304c-7.726-1.07-15.932-2.378-24.37-4.162v-.717c14.859-6.542 32.573-12.846 52.784-19.15a312.457 312.457 0 0 0 10.223-19.744l-.832-.833c-26.629 8.802-48.979 17.009-61.342 22.956-8.204 3.809-11.884 9.637-11.884 17.488a54.37 54.37 0 0 0 2.378 14.986c24.132 16.295 40.062 30.211 40.062 40.203-.004 5.352-16.41 9.277-40.186 9.277h-1.664c-5.707 0-8.325 6.185-8.325 11.894 0 5.709 2.616 11.894 8.325 11.894h1.664c25.678 0 41.489-5.233 46.482-15.462 3.448-7.254 5.706-14.508 5.706-21.529 0-13.797-5.112-22.478-22.943-37.942l3.922-9.159Zm115.791 9.516a209.107 209.107 0 0 1 17.238 13.202 41.696 41.696 0 0 0 10.699-14.63 123.42 123.42 0 0 0-17-13.916L914.356 223.2Zm50.762 50.788h-1.665c-13.315 0-19.734-9.516-25.916-23.313h-1.783a174.51 174.51 0 0 0-8.441 17.604 110.862 110.862 0 0 0 13.197 22.004c-1.427 7.254-6.064 15.582-13.91 22.718-7.37 6.896-15.933 10.942-25.916 10.942a33.332 33.332 0 0 1-10.699-2.022l-2.616 5.947c12.602 8.329 22.825 11.776 31.622 11.776 9.749 0 17.476-6.896 24.015-17.246a47.819 47.819 0 0 0 7.727-26.882 38.207 38.207 0 0 0 12.364 2.26h2.021v-23.788Zm74.182-97.771c-21.4 6.542-41.015 13.441-58.49 20.578-11.294 4.638-15.811 11.299-15.811 19.744a54.798 54.798 0 0 0 2.615 15.343c21.517 10.467 39.586 27.832 39.586 33.899 0 4.282-14.858 8.207-38.159 8.207h-3.923c-5.707 0-8.325 6.185-8.325 11.894 0 5.709 2.616 11.894 8.325 11.894h2.019c22.109 0 36.733-3.568 43.633-10.942 5.35-6.661 8.68-15.225 8.68-26.168 0-11.894-8.2-22.837-22.468-32.827l4.038-8.802c-8.437-.716-16.877-1.666-24.723-2.974v-.358a451.085 451.085 0 0 1 52.543-18.675c4.04-6.66 7.61-13.321 10.94-20.22l-.48-.593Zm-3.8-15.582-.24-.359c-19.74 5.71-40.185 12.608-61.82 22.6a52.689 52.689 0 0 0-4.043 10.11l.595.595c16.049-8.089 36.848-15.941 60.748-23.432l4.76-9.514Zm51.35 113.353h-1.66c-13.32 0-19.74-9.516-25.92-23.313h-1.78a173.858 173.858 0 0 0-8.44 17.604 110.974 110.974 0 0 0 13.19 22.004c-1.42 7.254-6.06 15.582-13.91 22.718-7.37 6.896-15.93 10.942-25.91 10.942a33.292 33.292 0 0 1-10.7-2.022l-2.62 5.947c12.6 8.329 22.83 11.776 31.63 11.776 9.74 0 17.47-6.896 24.01-17.246a47.806 47.806 0 0 0 7.73-26.882 38.134 38.134 0 0 0 12.36 2.26h2.02v-23.788Zm36.38 16.295c15.69 4.519 29.72 7.493 40.66 7.493 8.68 0 15.09-3.925 19.37-12.845a35.73 35.73 0 0 0 3.69-15.82c0-17.604-13.43-26.286-30.55-37.824a245.195 245.195 0 0 1-26.87-21.053h-2.02a99.277 99.277 0 0 0-3.81 13.204c-11.17 8.207-18.78 20.22-18.9 36.158.04 4.175.32 8.345.84 12.489-8.44 1.308-13.8 1.903-17.13 1.903h-1.66c-5.71 0-8.33 6.185-8.33 11.894 0 5.709 2.62 11.894 8.33 11.894h1.66c9.28 0 20.69-2.141 34.72-7.493m6.06-21.172c-8.08-2.497-15.34-8.206-15.34-14.149 0-5.591 8.8-14.392 16.29-14.392 7.38 0 13.32 9.039 13.32 17.96 0 3.806-5.35 8.564-14.27 10.586m17.6 4.872a65.227 65.227 0 0 0 6.06-19.269c12.96 7.731 21.63 14.749 21.63 20.102 0 1.784-2.61 2.617-7.13 2.617-5.59 0-12.84-1.191-20.56-3.45Zm180.81-47.696a222.444 222.444 0 0 0-12.6 20.22c9.51 18.199 13.67 30.926 13.67 39.251a8.327 8.327 0 0 1-.58 3.272 8.425 8.425 0 0 1-1.79 2.794c-6.78 7.018-20.81 13.203-32.82 13.203-7.6 0-28.29-3.212-28.29-27.952 0-5.114 2.14-12.846 6.06-21.053l-6.53-3.329c-7.37 13.558-10.82 26.166-10.82 38.061 0 23.432 14.62 39.488 37.56 39.488 14.98 0 33.17-8.207 42.8-22.004 4.4-9.872 7.25-20.577 7.25-29.26 0-18.555-4.76-35.801-12.48-52.453l-1.43-.238Zm-46.48-20.457a211.273 211.273 0 0 1 19.38 15.107 85.32 85.32 0 0 0 12.01-16.891 112.806 112.806 0 0 0-19.38-15.343l-12.01 17.127Zm114.25 68.153h-1.67c-10.82 0-15.57-4.045-15.57-15.941 0-9.753.23-16.058.23-28.546 0-16.652-.23-36.159-2.14-53.286l-1.66-.833a177.638 177.638 0 0 0-13.67 13.203c3.09 29.259 4.16 64.228 4.28 77.788.36 23.195 12.01 31.4 28.17 31.4h2.02l.01-23.785Zm29-47.458a178.613 178.613 0 0 0-12.12 18.555c5.46 9.397 11.65 21.41 11.65 24.264 0 1.903-12.25 4.639-25.92 4.639h-2.61c-5.71 0-8.33 6.185-8.33 11.894 0 5.709 2.62 11.894 8.33 11.894h1.66c10.82 0 18.54-1.546 24.01-4.044 4.05-1.784 7.85-5.233 11.65-12.132a49.595 49.595 0 0 0 4.88-21.647c0-7.613-3.81-18.437-12.01-33.186l-1.19-.237ZM1407 333.221c5.97 4.1 11.72 8.506 17.23 13.203a41.625 41.625 0 0 0 10.7-14.63 123.24 123.24 0 0 0-17-13.916L1407 333.221Zm66.45-125.602a216.664 216.664 0 0 1 17.59 13.441 41.053 41.053 0 0 0 10.94-14.986 128.634 128.634 0 0 0-17.35-14.155l-11.18 15.7Zm22.47 27.118c-3.57 6.185-7.37 13.083-10.7 20.22 11.41 17.128 15.93 25.454 15.93 29.733 0 3.806-4.99 12.013-13.08 20.101-9.03 8.802-19.14 14.392-28.88 14.392a45.85 45.85 0 0 1-11.89-1.427l-2.26 6.304c10.82 6.542 23.42 10.348 32.57 10.348 10.35 0 19.5-7.375 26.99-20.102 5.47-9.515 7.61-20.101 7.61-31.519 0-2.26.47-5.352.47-10.943 0-9.753-4.16-20.101-14.5-37.11l-2.26.003Zm184.02-16.771c-8.55-2.498-15.81-4.876-22.1-7.136l-.12-.596c14.62-7.016 34.83-14.272 58.49-21.171 3.21-5.472 6.53-11.537 10.1-19.149l-.95-.952c-26.99 8.329-51.59 16.295-67.88 24.859a25.94 25.94 0 0 0-7.01 5.114c-3.1 3.687-4.64 8.921-4.64 15.463-.06 3.928.58 7.836 1.9 11.537 18.9 17.247 30.2 30.331 33.05 39.013-11.06 6.538-31.86 9.991-48.98 9.991-24.13 0-40.06-8.207-40.06-26.286.08-3.99.48-7.966 1.19-11.894l-6.54-1.785c-3.45 10.349-4.76 19.15-4.76 26.643 0 26.882 18.07 37.704 47.55 37.704 22.47 0 46.61-6.066 55.88-14.036a45.623 45.623 0 0 0 7.85-18.436h.59c16.17 20.22 19.85 30.925 42.68 30.925h1.66v-23.786h-1.66c-20.92 0-29.48-22.599-61.23-46.507l4.99-9.515Zm81.79 112.044c4.76 4.638 9.4 9.277 13.91 14.15a53.455 53.455 0 0 0 11.65-12.132 95.146 95.146 0 0 0-13.55-14.749l-12.01 12.731Zm-25.07 1.07c4.75 4.639 9.39 9.277 13.9 14.154a53.476 53.476 0 0 0 11.65-12.132 95.191 95.191 0 0 0-13.55-14.749l-12 12.727Zm30.19-104.55a180.343 180.343 0 0 0-12.13 18.555c5.47 9.397 11.66 21.41 11.66 24.264 0 1.903-12.25 4.639-25.92 4.639h-2.62c-5.7 0-8.32 6.185-8.32 11.894 0 5.709 2.62 11.894 8.32 11.894h1.67c10.82 0 18.54-1.546 24.01-4.044 4.04-1.784 7.85-5.233 11.65-12.132a49.595 49.595 0 0 0 4.88-21.647c0-7.613-3.81-18.437-12.01-33.186l-1.19-.237ZM649.23 707.954c5.92-4.202 9.644-7.832 11.17-10.89a208.17 208.17 0 0 1 4.297 3.798 132.656 132.656 0 0 1 4.726 4.513h1.289c7.638-5.445 11.457-9.982 11.457-13.612 0-1.911-.931-3.798-2.792-5.66a49.585 49.585 0 0 0-8.522-6.377h-1.146a23.908 23.908 0 0 0-2.721 2.365 79.065 79.065 0 0 0-3.866 4.012 80.813 80.813 0 0 0-3.581 4.227 16.185 16.185 0 0 0-3.795-3.941c-1.671-1.289-3.652-2.651-5.944-4.083h-1.289a22.817 22.817 0 0 0-3.58 3.295 150.393 150.393 0 0 0-4.941 5.517c-1.671 1.958-2.984 3.606-3.938 4.943v1.29a164.653 164.653 0 0 1 5.8 4.872 129.753 129.753 0 0 1 6.087 5.731h1.289Zm-1.075 73.078a198.958 198.958 0 0 0 25.135-4.442 138.525 138.525 0 0 0 22.914-7.666 70.895 70.895 0 0 0 18.046-11.105 51.905 51.905 0 0 0 8.593-9.887 71.297 71.297 0 0 0 7.16-13.755 14.003 14.003 0 0 0 5.514 8.095 14.947 14.947 0 0 0 8.522 2.651 9.404 9.404 0 0 0 5.871-2.436c2.006-1.622 3.008-4.058 3.008-7.307a7.149 7.149 0 0 0-1.074-3.869 3.424 3.424 0 0 0-3.079-1.72c-7.927 0-13.13-1.576-15.611-4.728l.859-3.153-2.864-.859a107.515 107.515 0 0 1-4.368 7.379 36.461 36.461 0 0 1-6.588 7.379 60.259 60.259 0 0 1-11.958 7.738 104.88 104.88 0 0 1-15.683 6.305 181.75 181.75 0 0 1-19.119 4.943 226.724 226.724 0 0 1-20.55 3.224 181.692 181.692 0 0 1-19.978 1.147c-8.42.109-16.838-.298-25.208-1.218-6.302-.81-10.813-2.458-13.534-4.944-2.721-2.485-4.082-6.259-4.082-11.32v-2.364a15.86 15.86 0 0 1 .144-2.221l-4.297-.716c-2.387 8.119-3.58 15.093-3.58 20.92 0 6.784 1.861 12.014 5.585 15.69s8.689 6.208 14.895 7.595a94.894 94.894 0 0 0 20.623 2.077 222.632 222.632 0 0 0 24.704-1.433Zm104.119-37.469a25.876 25.876 0 0 0 7.948-4.944c2.672-2.197 6.3-6.543 10.884-13.039 1.91-2.579 3.342-3.869 4.297-3.869.763 0 2.195.573 4.296 1.72a13.893 13.893 0 0 0 7.018 1.719c5.251 0 10.121-3.057 14.608-9.17a11.497 11.497 0 0 0 7.734 3.152 11.264 11.264 0 0 0 6.444-1.934 17.157 17.157 0 0 0 4.87-5.087 7.777 7.777 0 0 0 5.012 1.863 9.557 9.557 0 0 0 6.015-2.437c2.005-1.624 3.008-4.06 3.008-7.308a7.151 7.151 0 0 0-1.074-3.869 3.414 3.414 0 0 0-1.302-1.286 3.416 3.416 0 0 0-1.777-.433 7.047 7.047 0 0 1-4.726-1.577 2.73 2.73 0 0 0-.144-.859 5.82 5.82 0 0 0-.286-.717l-3.008.144c-1.241 5.54-4.01 8.31-8.306 8.31a8.865 8.865 0 0 1-7.591-3.725l-2.577.143c-2.484 6.401-6.542 9.601-12.174 9.601a11.172 11.172 0 0 1-3.079-.43 30.399 30.399 0 0 1-2.936-1.003 19.235 19.235 0 0 0-2.793-1.147 9.278 9.278 0 0 0-2.792-.43c-2.387 0-4.345 1.195-5.872 3.583-1.528 2.388-2.65 4.107-3.366 5.158-.716 1.053-1.241 1.793-1.575 2.221-.334.428-.788.978-1.361 1.648-3.247 3.821-6.541 6.472-9.882 7.953a22.858 22.858 0 0 1-9.165 2.221 8.801 8.801 0 0 0-6.087 2.579 9.096 9.096 0 0 0-2.793 7.021 5.867 5.867 0 0 0 1.361 4.084 3.841 3.841 0 0 0 2.792 1.504 24.625 24.625 0 0 0 8.379-1.361m82.846 24.001c6.016-4.299 9.691-7.976 11.028-11.033a112.889 112.889 0 0 1 9.166 8.311h1.289c7.638-5.445 11.457-9.983 11.457-13.613 0-1.91-.931-3.797-2.793-5.66a49.43 49.43 0 0 0-8.521-6.376H855.6a24.498 24.498 0 0 0-4.439 4.083 127.934 127.934 0 0 0-5.729 6.52 15.562 15.562 0 0 0-3.724-3.869 65.225 65.225 0 0 0-6.015-4.012h-1.289a17.054 17.054 0 0 0-3.652 3.224 145.872 145.872 0 0 0-5.012 5.589c-1.671 1.959-2.936 3.559-3.795 4.8v1.289a126.5 126.5 0 0 1 5.8 4.944 168.02 168.02 0 0 1 6.087 5.803h1.288Zm-1.358-57.316a35.833 35.833 0 0 0 6.086-7.738c1.049 3.153 2.649 5.326 4.798 6.52a12.792 12.792 0 0 0 6.23 1.791 15.362 15.362 0 0 0 5.943-1.289 11.761 11.761 0 0 0 5.228-4.514c1.432-2.149 2.148-5.039 2.148-8.669a12.196 12.196 0 0 0-1.289-5.66 4.58 4.58 0 0 0-4.44-2.508c-6.398 0-9.596-3.916-9.595-11.749.007-1.055.078-2.107.215-3.153.143-1.146.31-2.34.501-3.582l-3.151-.573a74.896 74.896 0 0 0-3.795 9.314 94.813 94.813 0 0 0-2.649 10.03 14.142 14.142 0 0 1-3.724 7.379 8.524 8.524 0 0 1-6.158 2.938 9.158 9.158 0 0 0-5.944 2.507 8.82 8.82 0 0 0-2.936 7.093c0 2.006.502 3.439 1.504 4.299a4.368 4.368 0 0 0 2.65 1.29 11.715 11.715 0 0 0 4.567-1.011 11.725 11.725 0 0 0 3.811-2.715Zm38.737-60.325c7.923-5.539 11.886-10.029 11.887-13.469 0-1.623-.764-3.366-2.292-5.23-1.527-1.864-4.487-4.181-8.879-6.95h-1.289a23.687 23.687 0 0 0-3.652 3.367 148.782 148.782 0 0 0-5.012 5.589c-1.671 1.956-2.936 3.556-3.796 4.8v1.29a106.767 106.767 0 0 1 11.887 10.603h1.146Zm-6.013 52.16c4.486-5.921 7.923-14.662 10.311-26.222l-3.007-.716c-2.484 5.064-5.062 8.527-7.734 10.388a14.142 14.142 0 0 1-8.163 2.794 13.821 13.821 0 0 0-5.801 1.433 12.923 12.923 0 0 0-5.227 4.586c-1.432 2.102-2.148 4.92-2.148 8.454 0 5.445 2.053 8.167 6.158 8.167 5.92 0 11.123-2.961 15.611-8.884Zm95.379 120.934c7.35-3.917 14.082-9.792 20.193-17.624a83.774 83.774 0 0 0 11.171-18.413 104.076 104.076 0 0 0 6.087-17.84 62.22 62.22 0 0 0 1.934-13.326c0-3.055-.65-5.324-1.934-6.806a17.377 17.377 0 0 0-6.23-4.084c-3.916-1.622-6.637-3.103-8.163-4.442a7.019 7.019 0 0 1-2.292-5.588c0-2.769.454-4.799 1.361-6.09a6.445 6.445 0 0 0 1.36-3.654c0-1.719-1.098-2.579-3.294-2.579-1.528 0-2.817 1.003-3.866 3.009a78.716 78.716 0 0 0-5.729 13.469 41.432 41.432 0 0 0-2.005 12.323c0 6.115 2.769 10.318 8.306 12.61 4.678 1.91 7.924 3.582 9.739 5.015a6.285 6.285 0 0 1 2.721 5.015c0 2.006-.978 4.609-2.936 7.81a44.14 44.14 0 0 1-8.521 9.743 49.138 49.138 0 0 1-13.534 8.311 45.7 45.7 0 0 1-17.974 3.367c-6.683 0-12.245-1.241-16.684-3.725a23.708 23.708 0 0 1-9.882-10.102 30.849 30.849 0 0 1-3.223-14.114 59.95 59.95 0 0 1 1.218-11.607 76.133 76.133 0 0 1 4.726-14.472 192 192 0 0 1 10.24-20.061l-3.724-2.149a143.848 143.848 0 0 0-14.107 25.291 119.722 119.722 0 0 0-7.16 22.353 91.87 91.87 0 0 0-2.077 17.983 42.509 42.509 0 0 0 4.01 18.843 30.854 30.854 0 0 0 11.171 12.824 30.132 30.132 0 0 0 16.613 4.585 47.327 47.327 0 0 0 22.485-5.875Zm26.348-189.427c7.924-5.539 11.887-10.029 11.887-13.47 0-1.622-.764-3.366-2.291-5.23-1.528-1.864-4.488-4.18-8.88-6.949h-1.289a23.588 23.588 0 0 0-3.652 3.367 149.619 149.619 0 0 0-5.012 5.588c-1.671 1.957-2.936 3.558-3.796 4.801v1.289a106.776 106.776 0 0 1 11.887 10.604h1.146Zm-6.3 97.437c1.146-.86 2.435-2.723 3.867-5.588a33.922 33.922 0 0 1 2.435-4.084 114.47 114.47 0 0 0 2.864-4.37c7.925-11.844 11.891-23.259 11.891-34.247 0-7.068-1.27-12.775-3.799-17.123a12.244 12.244 0 0 0-11.243-6.52c-3.915 0-6.875 2.102-8.879 6.305l-4.296 8.741a22.27 22.27 0 0 0-2.722 9.744 9.028 9.028 0 0 0 3.509 7.021 12.067 12.067 0 0 0 8.092 3.009 15.147 15.147 0 0 0 8.593-2.293c.333.967.479 1.988.43 3.009a25.082 25.082 0 0 1-1.504 8.598 50.313 50.313 0 0 1-5.514 10.173c-6.302 9.553-9.452 15.237-9.452 17.052 0 1.24.716 1.861 2.148 1.863a5.892 5.892 0 0 0 3.58-1.29Zm71.827 47.644a12.383 12.383 0 0 0 5.22-4.514c1.44-2.1 2.15-4.966 2.15-8.597 0-5.445-2.05-8.168-6.16-8.168-4.29 0-7.66-1.074-10.09-3.224a18.251 18.251 0 0 1-5.3-8.382 45.579 45.579 0 0 1-2.01-11.105c-.24-3.963-.36-7.76-.36-11.392 0-13.659.29-25.552.86-35.679.4-8.346 1.21-16.668 2.44-24.932l-3.01-.86c-2.1 5.07-3.83 10.291-5.15 15.618-.48 2.103-1.01 5.471-1.58 10.102-.57 4.632-1.1 10.125-1.58 16.479a695.16 695.16 0 0 0-1.21 20.849 515.97 515.97 0 0 0-.5 23.212c0 10.508 1.64 18.461 4.94 23.858 3.29 5.398 8.47 8.096 15.54 8.096 2-.043 3.98-.507 5.8-1.361Zm6.94-2.653a37.526 37.526 0 0 0 9.95-10.532 52.227 52.227 0 0 0 6.45-14.4 57.698 57.698 0 0 0 2.22-15.619c.05-3.685-.74-7.335-2.29-10.675a18.426 18.426 0 0 0-6.73-7.666 19.424 19.424 0 0 0-10.75-2.866 21.98 21.98 0 0 0-5.01.573 17.76 17.76 0 0 0-4.87 2.006l-.28-.286 8.02-9.887c4.96-6.209 9.85-12.228 14.68-18.055 4.82-5.827 9.31-11.32 13.46-16.478 4.15-5.159 7.73-9.744 10.74-13.756a68.903 68.903 0 0 0 6.37-9.744c.76-1.503 1.34-3.09 1.72-4.728.64-2.189.98-4.455 1-6.735 0-.359-.02-.718-.07-1.075-.05-.333-.12-.691-.21-1.074l-1.29-.143a121.556 121.556 0 0 0-3.01 4.585 60.716 60.716 0 0 1-3.29 4.728c-3.25 4.396-6.93 9.172-11.03 14.329-4.11 5.158-8.12 10.125-12.03 14.903-3.82 4.776-7.71 9.6-11.67 14.472a763.91 763.91 0 0 0-11.82 14.902 120.58 120.58 0 0 0-11.38 17.696 159.074 159.074 0 0 0-8.53 19.13 26.361 26.361 0 0 0-.85 3.725c-.2 1.281-.29 2.574-.29 3.869 0 2.198.91 3.297 2.72 3.296a4.681 4.681 0 0 0 2.15-.932c.95-.619 1.72-1.885 2.29-3.797a19.522 19.522 0 0 1 5.59-8.454c2.77-2.579 6.49-3.869 11.17-3.869 2.92-.05 5.81.588 8.45 1.863a16.666 16.666 0 0 1 5.94 4.8 9.953 9.953 0 0 1 2.22 6.09c0 2.866-1.48 5.445-4.44 7.738a17.719 17.719 0 0 1-11.17 3.439c-1.99.039-3.94.504-5.73 1.361a13.029 13.029 0 0 0-5.23 4.513c-1.48 2.103-2.22 4.969-2.22 8.598 0 5.445 2.06 8.167 6.16 8.167 4.61.051 9.12-1.352 12.89-4.012Zm68.74-51.871c7.92-5.54 11.88-10.03 11.89-13.469 0-1.623-.77-3.366-2.3-5.23-1.52-1.864-4.48-4.181-8.88-6.95h-1.28c-1.34.991-2.56 2.12-3.66 3.368a149.599 149.599 0 0 0-5.01 5.588c-1.67 1.956-2.94 3.557-3.8 4.8v1.29c4.22 3.234 8.2 6.778 11.89 10.603h1.15Zm-21.34 60.325c2.67-.286 5.44-.644 8.31-1.074 2.67-.392 5.32-.918 7.95-1.576 1.84-.42 3.64-1.02 5.37-1.792a40.504 40.504 0 0 0 7.52-8.167c2-3.005 3.84-6.114 5.51-9.314l5.01-9.6a23.006 23.006 0 0 1 7.09-8.383c2.82-1.957 6.13-4.082 9.95-6.376a43.52 43.52 0 0 0 6.23-4.227 19.81 19.81 0 0 0 3.3-3.511c.81-1.146 1.69-2.388 2.65-3.726 2.19-3.246 3.29-6.302 3.29-9.17a4.777 4.777 0 0 0-.93-3.224c-.2-.297-.47-.546-.78-.731a2.518 2.518 0 0 0-1.01-.344c-1.34 0-2.03.287-2.08.86a7.09 7.09 0 0 1-1.64 2.866c-.96 1.243-3.3 2.915-7.02 5.015a562.828 562.828 0 0 1-6.87 3.797c-1.27.67-2.47 1.462-3.58 2.364a32.079 32.079 0 0 0-5.88 6.95c-1.81 2.819-3.72 6.186-5.73 10.102l-3.58 6.878a45.718 45.718 0 0 1-2.57 4.227 26.12 26.12 0 0 1-4.44 4.657 86.474 86.474 0 0 1-8.74 6.305c-2.1 1.339-4.77 2.963-8.02 4.871a426.7 426.7 0 0 1-9.67 5.517c-3.19 1.769-5.94 3.226-8.23 4.37l.14 3.296 8.45-.86Zm102.76-187.351c4.82-4.346 11.57-10.244 20.26-17.697 5.54-4.776 10.05-8.908 13.54-12.394a78.27 78.27 0 0 0 7.52-8.383c.38-1.049.81-2.291 1.29-3.725.53-1.644.96-3.319 1.28-5.016l-1.28-.429a262.586 262.586 0 0 0-7.59 7.594c-2.39 2.579-8.84 8.597-19.34 18.055-4.96 4.395-9.02 8.073-12.17 11.033-3.15 2.96-5.68 5.444-7.59 7.451a37.872 37.872 0 0 0-4.44 5.445 24.396 24.396 0 0 0-2.58 5.302l2.29 1.433c1.05-1.433 3.99-4.323 8.81-8.669Zm-35.02 129.033c1.67-1.307 3-3.004 3.86-4.943a91.52 91.52 0 0 0 3.73-10.675c2.11-7.312 3.59-14.79 4.44-22.354.95-8.119 1.62-16.621 2-25.505.29-5.826.6-10.364.93-13.613.22-2.529.61-5.042 1.15-7.523.39-1.65.94-3.258 1.65-4.8 1.1-1.869 2.45-3.58 4.01-5.087 2.19-2.339 4.91-5.085 8.16-8.239 3.25-3.153 6.8-6.449 10.67-9.887 3.86-3.439 7.71-6.83 11.53-10.173 6.11-5.254 11.48-10.102 16.11-14.544 4.14-3.931 8.09-8.068 11.81-12.395 1.24-3.246 2.22-5.969 2.94-8.167.72-2.199 1.22-3.919 1.5-5.159l-1.28-.573a175.654 175.654 0 0 1-3.87 4.012c-1.34 1.336-2.67 2.674-4.01 4.012-1.63 1.626-3.92 3.727-6.88 6.305a1386.63 1386.63 0 0 0-11.02 9.744c-4.3 3.821-8.62 7.713-12.97 11.678-4.34 3.964-8.76 8-13.24 12.108-4 3.68-7.71 7.655-11.1 11.893a60.406 60.406 0 0 0-6.95 10.747 112.89 112.89 0 0 0-6.94 19.201 86.97 86.97 0 0 0-2.94 19.774l-.72 23.929a58.138 58.138 0 0 1-1.71 13.899 67.27 67.27 0 0 1-5.16 12.896 10.84 10.84 0 0 0-1.29 3.869 1.433 1.433 0 0 0 .39 1.182c.16.153.34.268.55.337.2.068.42.088.64.057.86 0 2.19-.668 4.01-2.006Zm21.26 103.813a179.263 179.263 0 0 0 15.61-17.41 294.72 294.72 0 0 0 18.12-25.935c11.84-18.722 28.45-32.764 49.84-42.128a14.85 14.85 0 0 0 4.01-2.794 6.354 6.354 0 0 0 1.68-2.147c.39-.829.6-1.734.61-2.653 0-4.488-1.53-6.733-4.58-6.735-2.68.167-5.31.848-7.74 2.007a71.092 71.092 0 0 0-10.23 5.516 101.55 101.55 0 0 0-11.1 8.239 84.76 84.76 0 0 0-10.17 10.174c-1.91 2.199-3.99 4.874-6.23 8.024-2.25 3.151-4.61 6.685-7.09 10.604-6.11 9.743-11.82 18.46-17.12 26.15a225.604 225.604 0 0 1-16.04 20.777 159.548 159.548 0 0 1-17.68 17.267l3.15 3.868a165.134 165.134 0 0 0 14.96-12.824Zm85-86.044a65.799 65.799 0 0 0 6.73-4.012c4.49.765 8.69 1.362 12.61 1.791 3.56.41 7.15.625 10.74.645 3.82 0 6.68-.908 8.59-2.723a21.254 21.254 0 0 0 4.8-6.878 24.09 24.09 0 0 0 2.07-10.316c.04-2.763-.52-5.501-1.64-8.025-1.1-2.388-3.18-4.633-6.23-6.734a71.06 71.06 0 0 0-6.59-4.084c-2.96-1.672-6.78-3.702-11.46-6.09a84.123 84.123 0 0 1-9.38-5.445c-2.34-1.623-3.84-3.151-4.51-4.585l-1.15-.287c-4.2 5.924-6.3 10.318-6.3 13.183 0 .17.02.339.07.501.06.162.08.332.08.502l-5.87 5.873a21.244 21.244 0 0 0-5.37 8.454 28.877 28.877 0 0 0-1.51 9.027c-.07 1.865.28 3.723 1.02 5.434a12.531 12.531 0 0 0 3.28 4.453 6.68 6.68 0 0 0-1.58 4.442c0 4.491 1.87 6.736 5.59 6.735 2.12-.146 4.18-.784 6.02-1.863m-6.74-24.646c.04-1.942.64-3.832 1.72-5.445a17.412 17.412 0 0 1 4.3-4.657 8.374 8.374 0 0 1 5.01-1.934c1.65.032 3.27.45 4.73 1.22 1.64.828 3.06 2.03 4.15 3.51a9.546 9.546 0 0 1 1.72 5.875 8.742 8.742 0 0 1-1.79 5.66 22.374 22.374 0 0 1-5.8 4.657c-9.36-1.146-14.04-4.107-14.04-8.884m23.78 10.46a33.74 33.74 0 0 0 5.73-14.759c6.96 2.58 11.45 4.825 13.46 6.735 2.1 1.911 3.15 3.964 3.15 6.162 0 2.388-.91 3.582-2.72 3.582h-1.29c-3.44 0-9.55-.573-18.33-1.72Zm113.14 32.096c7.92-5.634 11.88-10.172 11.88-13.612 0-1.623-.76-3.366-2.29-5.23-1.53-1.864-4.49-4.181-8.88-6.95h-1.29c-1.33.991-2.55 2.12-3.65 3.368a149.599 149.599 0 0 0-5.01 5.588c-1.67 1.956-2.94 3.556-3.8 4.8v1.29c1.91 1.529 3.87 3.177 5.87 4.943a96.342 96.342 0 0 1 6.02 5.803h1.15Zm6.66 61.041c7.68-4.012 14.77-10.341 21.26-18.986 6.5-8.645 11.94-19.941 16.33-33.888 2.21-7.277 3.8-14.732 4.73-22.282a238.525 238.525 0 0 0 1.86-29.016c.19-10.317.52-16.765 1-19.344l-3.01-.86c-2.19 5.542-3.96 10.486-5.3 14.831a83.131 83.131 0 0 0-2.86 12.466 87.119 87.119 0 0 0-.86 12.395c0 1.625.02 3.249.07 4.872.05 1.622.07 3.246.07 4.871 0 10.701-1.09 18.964-3.29 24.79a47.262 47.262 0 0 1-8.74 14.472 46.153 46.153 0 0 1-15.46 11.535c-6.31 3.009-13.9 4.513-22.77 4.513-4.11.001-8.2-.505-12.18-1.504a30.075 30.075 0 0 1-10.81-5.087 24.793 24.793 0 0 1-7.66-9.887c-1.91-4.204-2.87-9.458-2.87-15.762 0-9.17 2.68-20.347 8.02-33.53l-4.01-1.576a143.87 143.87 0 0 0-10.6 29.446 121.96 121.96 0 0 0-3 26.724 40.366 40.366 0 0 0 4.44 19.344 31.608 31.608 0 0 0 12.53 12.896c5.39 3.056 11.76 4.585 19.12 4.585a51.229 51.229 0 0 0 23.99-6.018Zm99.24-44.133c2.16-.944 4-2.485 5.3-4.442 1.48-2.101 2.22-5.014 2.22-8.741 0-5.445-2.1-8.167-6.3-8.167-3.44 0-6.11-1.051-8.02-3.153a18.898 18.898 0 0 1-4.15-8.239 58.763 58.763 0 0 1-1.65-11.033c-.24-3.963-.36-7.856-.36-11.678 0-13.374.31-25.267.93-35.68a267.4 267.4 0 0 1 2.8-26.938l-2.87-.717c-1.72 4.205-3.15 8.121-4.29 11.75a62.572 62.572 0 0 0-2.44 11.32c-.19 1.433-.5 4.155-.93 8.168-.43 4.012-.86 8.955-1.29 14.83-.43 5.875-.81 12.395-1.15 19.559-.33 7.165-.5 14.664-.5 22.497 0 21.303 5.64 31.955 16.9 31.953 2-.04 3.97-.478 5.8-1.289Zm5.23 51.727c7.92-5.638 11.89-10.175 11.89-13.613 0-1.91-.93-3.797-2.79-5.66a51.612 51.612 0 0 0-8.38-6.376h-1.29a22.861 22.861 0 0 0-3.65 3.367 146.58 146.58 0 0 0-5.02 5.588c-1.67 1.959-2.93 3.559-3.79 4.801v1.146c1.91 1.527 3.87 3.174 5.87 4.943a97.821 97.821 0 0 1 6.02 5.804h1.14Zm4.58-59.322c4.49-5.921 7.93-14.662 10.32-26.222l-3.01-.716c-2.49 5.064-5.06 8.527-7.74 10.388a14.119 14.119 0 0 1-8.16 2.795c-2.01.048-3.99.537-5.8 1.432a12.92 12.92 0 0 0-5.23 4.586c-1.43 2.103-2.15 4.921-2.15 8.454 0 5.445 2.06 8.167 6.16 8.167 5.92 0 11.13-2.961 15.61-8.884Zm63.73-70.928c7.93-5.54 11.89-10.029 11.89-13.469 0-1.624-.76-3.367-2.29-5.231-1.53-1.863-4.49-4.179-8.88-6.949h-1.29a23.9 23.9 0 0 0-3.65 3.367 149.643 149.643 0 0 0-5.01 5.589c-1.67 1.956-2.94 3.556-3.8 4.8v1.289c4.22 3.234 8.2 6.778 11.89 10.604h1.14Zm-31.86 80.097a68.122 68.122 0 0 0 11.81-4.299c4.2-3.343 8.52-9.695 12.97-19.057 4.44-9.362 8.47-21.541 12.1-36.539l-4.3-.717a202.936 202.936 0 0 1-4.65 12.108c-1.67 3.964-3.32 7.546-4.94 10.747a39.888 39.888 0 0 1-4.73 7.523 94.746 94.746 0 0 1-6.88 7.093c-3.05 2.915-6.47 5.972-10.23 9.17a235.865 235.865 0 0 1-11.32 9.028 80.737 80.737 0 0 1-10.24 6.663l.57 3.295c7.93-1.815 14.54-3.487 19.84-5.015Zm140.71-6.448a81.068 81.068 0 0 0 15.68-6.806 67.207 67.207 0 0 0 14.47-10.962 58.97 58.97 0 0 0 11.1-15.332c.09 9.65 1.57 17.053 4.44 22.21 2.86 5.157 7.54 7.736 14.03 7.738 2.03-.027 4.04-.492 5.87-1.361 2.11-.994 3.9-2.558 5.16-4.514 1.43-2.101 2.15-4.966 2.15-8.598 0-5.445-2.06-8.167-6.16-8.167-3.63 0-6.47-.908-8.52-2.723a16.279 16.279 0 0 1-4.59-7.092 37.1 37.1 0 0 1-1.86-9.386c-.24-3.343-.36-6.544-.36-9.6 0-12.513.27-22.52.79-30.02.31-5.72.98-11.416 2.01-17.051.48-2.841 1.32-5.61 2.5-8.239 1.33-1.974 2.87-3.8 4.59-5.445 2.48-2.58 5.44-5.517 8.88-8.813 3.43-3.295 6.96-6.567 10.59-9.813 3.63-3.246 6.87-6.112 9.74-8.598 6.01-5.158 11.38-9.982 16.11-14.472a148.27 148.27 0 0 0 11.96-12.61c2.38-6.304 3.82-10.699 4.29-13.182l-1.14-.717-8.02 8.168a218.74 218.74 0 0 1-11.46 10.675c-3.91 3.391-7.83 6.758-11.74 10.102a531.92 531.92 0 0 0-11.6 10.46c-3.92 3.63-7.83 7.26-11.75 10.89a96.128 96.128 0 0 0-10.24 11.32 49.988 49.988 0 0 0-6.8 11.893 83.163 83.163 0 0 0-3.22 9.601 79.189 79.189 0 0 0-2.08 10.46c-.38 2.771-.76 6.568-1.15 11.391-.38 4.823-.81 10.626-1.28 17.41-.2 3.152-.44 6.185-.72 9.099a18.68 18.68 0 0 1-2.01 7.236 32.361 32.361 0 0 1-5.15 6.806 38.457 38.457 0 0 1-8.02 6.09 73.374 73.374 0 0 1-12.1 5.374 128.61 128.61 0 0 1-14.18 4.012c-4.8 1.079-9.65 1.893-14.54 2.436-4.32.499-8.68.762-13.03.788-5.94.05-11.87-.285-17.76-1.003-5.06-.668-9-2.22-11.81-4.657-2.82-2.437-4.23-6.282-4.23-11.535 0-.86.02-1.694.07-2.508.05-.813.12-1.551.22-2.221l-4.44-.573c-2.29 8.311-3.44 15.285-3.44 20.921 0 6.018 1.1 10.746 3.29 14.185a19.793 19.793 0 0 0 8.74 7.595 38.198 38.198 0 0 0 11.96 3.08c4.34.43 8.62.645 12.82.645 10.81.08 21.58-1.465 31.93-4.585m60.44 49.005c6.01-4.299 9.69-7.976 11.03-11.033 3.2 2.6 6.26 5.375 9.16 8.311h1.29c7.64-5.445 11.46-9.983 11.46-13.613 0-1.91-.93-3.797-2.79-5.66a49.42 49.42 0 0 0-8.53-6.376h-1.14a24.704 24.704 0 0 0-4.44 4.083c-2.1 2.244-4.01 4.417-5.73 6.52a15.69 15.69 0 0 0-3.72-3.869 65.165 65.165 0 0 0-6.02-4.012h-1.29c-1.36.894-2.59 1.98-3.65 3.224a145.015 145.015 0 0 0-5.01 5.589c-1.67 1.959-2.94 3.559-3.8 4.8v1.289c1.91 1.528 3.85 3.175 5.8 4.944 1.96 1.768 3.99 3.703 6.09 5.803h1.29Zm14.89-60.898c4.49-5.922 7.93-14.663 10.32-26.222l-3.01-.717c-2.49 5.065-5.06 8.528-7.74 10.389a14.118 14.118 0 0 1-8.16 2.794 13.85 13.85 0 0 0-5.8 1.433 12.917 12.917 0 0 0-5.23 4.585c-1.43 2.102-2.15 4.92-2.15 8.454 0 5.445 2.06 8.168 6.16 8.168 5.92 0 11.13-2.961 15.61-8.884Z"/><path fill="#1A73E8" d="m1699 435.033-12.42-19.649h-4.96v28.42h4.96v-13.175l-.07-6.663 12.41 19.838h4.97v-28.42h-4.97v12.196l.08 7.453Zm18.47-12.234a13.22 13.22 0 0 0-7.82 2.183v4.668a11.546 11.546 0 0 1 3.35-1.731 12.08 12.08 0 0 1 3.61-.527 6.038 6.038 0 0 1 3.01.583c.6.324 1.05.862 1.26 1.506.21.791.3 1.609.28 2.428h-4.14c-5.67 0-8.5 2.145-8.5 6.437-.05.822.09 1.643.39 2.407.31.764.78 1.452 1.38 2.016a7.115 7.115 0 0 0 4.96 1.6c2.76 0 4.73-.929 5.91-2.786v2.221h5.15v-12.837a8.762 8.762 0 0 0-1.9-5.985c-1.26-1.455-3.58-2.182-6.94-2.183Zm-.86 17.768c-2.06 0-3.09-.841-3.09-2.522-.05-.417.01-.842.19-1.223.18-.381.47-.701.83-.923.99-.409 2.05-.59 3.12-.527h3.5v.603a4.377 4.377 0 0 1-1.28 3.536 4.968 4.968 0 0 1-3.27 1.054m14.22 2.15c1.12.541 2.31.927 3.54 1.148 1.32.277 2.67.422 4.02.432 1.5.01 2.99-.225 4.41-.696a7.73 7.73 0 0 0 3.4-2.221 5.699 5.699 0 0 0 1.33-3.896 5.429 5.429 0 0 0-.33-2.362 5.473 5.473 0 0 0-1.32-1.986 8.193 8.193 0 0 0-4.71-1.675l-2.52-.227a7.04 7.04 0 0 1-2.52-.587 1.474 1.474 0 0 1-.63-.618 1.47 1.47 0 0 1-.19-.869c-.01-.346.08-.687.26-.983.18-.296.44-.535.75-.689.91-.438 1.9-.639 2.9-.583 1.26.011 2.51.195 3.73.545a15.1 15.1 0 0 1 3.57 1.487v-4.559a10.85 10.85 0 0 0-3.29-1.164c-1.38-.28-2.79-.419-4.2-.415-1.42-.009-2.83.226-4.17.697a6.989 6.989 0 0 0-3.16 2.165 5.555 5.555 0 0 0-1.21 3.651c0 3.638 2.08 5.658 6.25 6.06l2.63.304c.85-.009 1.69.198 2.44.601.28.177.5.424.64.716.15.291.21.616.19.941a1.871 1.871 0 0 1-1.11 1.75c-.93.431-1.96.631-2.99.584a17.041 17.041 0 0 1-7.71-1.881v4.33Zm32.51-10.053 6.43-9.335h-5.87l-4.48 7.945h-2.6v-15.888h-5.15v28.42h5.15v-8.583h2.52l4.89 8.583h5.84l-6.73-11.142Zm21.1-9.863a7.113 7.113 0 0 0-6.36 3.279v-10.694h-5.15v28.42h5.15V432.7a5.808 5.808 0 0 1 1.19-3.916c.4-.451.9-.807 1.45-1.041a4.089 4.089 0 0 1 1.77-.314 3.65 3.65 0 0 1 1.61.285c.5.216.96.544 1.32.961a5.733 5.733 0 0 1 1.05 3.802v11.327h5.16v-12.761c0-2.66-.61-4.698-1.83-6.117a6.593 6.593 0 0 0-2.44-1.672 6.638 6.638 0 0 0-2.92-.455ZM1651.03 908.257l-12.42-19.65h-4.97v28.421h4.97v-13.176l-.07-6.663 12.41 19.839h4.97v-28.421h-4.97v12.196l.08 7.454Zm18.47-12.235a13.22 13.22 0 0 0-7.82 2.184v4.667a11.445 11.445 0 0 1 3.35-1.731c1.17-.357 2.38-.535 3.61-.527a6.039 6.039 0 0 1 3.01.584c.59.323 1.04.861 1.25 1.505.21.792.31 1.609.29 2.428h-4.14c-5.67 0-8.51 2.146-8.51 6.437-.04.822.1 1.643.4 2.407.31.764.78 1.452 1.37 2.017a7.16 7.16 0 0 0 4.97 1.599c2.76 0 4.73-.928 5.91-2.785v2.221h5.15v-12.837a8.809 8.809 0 0 0-1.9-5.985c-1.27-1.455-3.58-2.183-6.94-2.184Zm-.87 17.768c-2.05 0-3.08-.84-3.08-2.522a2.15 2.15 0 0 1 .19-1.223c.18-.38.47-.701.83-.922.98-.41 2.05-.59 3.12-.528h3.5v.603a4.369 4.369 0 0 1-1.28 3.536 4.978 4.978 0 0 1-3.28 1.055m14.23 2.149c1.12.541 2.31.927 3.53 1.148 1.33.277 2.68.422 4.03.433 1.5.009 2.98-.226 4.4-.696a7.618 7.618 0 0 0 3.4-2.221 5.663 5.663 0 0 0 1.34-3.897 5.287 5.287 0 0 0-.34-2.361 5.234 5.234 0 0 0-1.32-1.987 8.138 8.138 0 0 0-4.7-1.675l-2.52-.227a6.998 6.998 0 0 1-2.52-.587 1.549 1.549 0 0 1-.64-.618 1.635 1.635 0 0 1-.19-.868c0-.347.09-.688.27-.984.18-.296.44-.535.75-.689.9-.438 1.9-.638 2.9-.583 1.26.012 2.51.195 3.72.545 1.25.342 2.45.842 3.58 1.488v-4.56a10.878 10.878 0 0 0-3.29-1.164 20.916 20.916 0 0 0-4.2-.414c-1.42-.009-2.83.227-4.18.697a7.097 7.097 0 0 0-3.16 2.165 5.546 5.546 0 0 0-1.2 3.651c0 3.638 2.08 5.658 6.25 6.06l2.63.303c.85-.009 1.69.198 2.44.602.27.177.5.424.64.715.15.292.21.617.19.942.01.368-.09.731-.29 1.042-.2.311-.48.557-.82.708-.94.43-1.96.63-2.99.583-2.68-.01-5.33-.655-7.71-1.88v4.329Zm30.29-2.713c-.4.04-.8-.005-1.18-.131a2.8 2.8 0 0 1-1.02-.602 3.926 3.926 0 0 1-.67-2.617v-9.298h4.93v-4.03h-4.93v-5.87h-5.15v5.873h-3.27v4.03h3.27v10.048c-.06.934.06 1.871.37 2.757.3.885.78 1.701 1.4 2.401a6.8 6.8 0 0 0 2.37 1.432 6.81 6.81 0 0 0 2.74.374c.62-.002 1.24-.04 1.85-.113.56-.058 1.11-.158 1.65-.301v-4.216c-.77.193-1.57.282-2.37.263m13.96-17.203c-2.77-.111-5.51.653-7.82 2.184v4.667a11.517 11.517 0 0 1 3.34-1.731c1.18-.357 2.39-.535 3.62-.527a6.071 6.071 0 0 1 3.01.584 2.71 2.71 0 0 1 1.26 1.505c.21.792.3 1.609.28 2.428h-4.14c-5.67 0-8.5 2.146-8.5 6.437-.05.822.09 1.643.39 2.407.31.764.78 1.452 1.37 2.017a7.16 7.16 0 0 0 4.97 1.599c2.76 0 4.73-.928 5.91-2.785v2.221h5.15v-12.837a8.81 8.81 0 0 0-1.9-5.985c-1.26-1.455-3.58-2.183-6.94-2.184Zm-.86 17.768c-2.06 0-3.09-.84-3.09-2.522-.06-.418.01-.843.19-1.225.18-.381.47-.702.83-.924a7.021 7.021 0 0 1 3.12-.524h3.5v.603c.06.648-.02 1.302-.24 1.914a4.377 4.377 0 0 1-1.04 1.622 4.969 4.969 0 0 1-3.27 1.055m20.12-25.184h-4.47l-1.24 9.336h3.72l1.99-9.336Zm4.07 22.963c0 2.083.48 3.607 1.45 4.573.6.523 1.3.921 2.06 1.169.76.249 1.56.344 2.36.28a9.709 9.709 0 0 0 3.08-.448v-4.18c-.58.224-1.21.327-1.84.301-.29.039-.59-.001-.87-.117a1.72 1.72 0 0 1-.69-.541 5.177 5.177 0 0 1-.39-2.428v-21.57h-5.16v22.961Zm17.27-15.02h-5.16v20.48h5.16v-20.48Zm.07-8.884h-5.27v5.421h5.27v-5.421Zm18.51 11.218a6.785 6.785 0 0 0-2.57-2.182 6.797 6.797 0 0 0-3.3-.684 7.685 7.685 0 0 0-3.36.541 7.742 7.742 0 0 0-2.79 1.943c-1.42 1.661-2.13 3.96-2.13 6.895v2.824c0 3.087.71 5.421 2.11 7.002 1.41 1.581 3.46 2.371 6.17 2.371a6.69 6.69 0 0 0 5.87-3.124v10.954h5.15V896.55h-5.15v2.332Zm-4.55 14.645a3.954 3.954 0 0 1-1.73-.297 3.888 3.888 0 0 1-1.43-1.02 5.704 5.704 0 0 1-1.13-3.803v-3.195a5.498 5.498 0 0 1 1.17-3.783 4.07 4.07 0 0 1 3.19-1.299 4.243 4.243 0 0 1 2.99 1.165c.87.835 1.4 1.961 1.49 3.162v3.95a5.355 5.355 0 0 1-1.28 3.651 4.144 4.144 0 0 1-3.27 1.469"/></g></svg>