<svg width="1920" height="1080" fill="none" xmlns="http://www.w3.org/2000/svg"><path d="M648.034 455.819c-8.912-8.548-13.367-21.369-13.367-38.465 0-19.096 6.274-38.828 18.823-59.197 6.911-11.276 16.277-20.551 28.098-27.826 11.821-7.274 24.734-10.912 38.738-10.912 6.183 0 12.821 1.091 19.914 3.274 13.822-22.734 25.098-39.192 33.827-49.377 8.73-10.185 16.277-17.914 22.643-23.188 14.367-11.639 28.917-17.459 43.648-17.459 2.91 0 4.365 1.455 4.365 4.365-12.004 26.37-21.279 53.014-27.826 79.93-6.365 26.734-11.367 52.832-15.004 78.294-3.456 25.279-5.183 46.739-5.183 64.38 0 2.547-1.273 3.82-3.819 3.82-6.366 0-9.548-7.275-9.548-21.824 0-18.369-1.728-35.01-5.184-49.923-6.365-28.371-17.459-47.103-33.281-56.197-2.001 3.82-5.82 11.094-11.458 21.824-5.456 10.731-9.548 18.642-12.276 23.734-2.546 4.91-6.456 11.912-11.73 21.006-5.093 8.911-9.457 16.095-13.095 21.551-8.729 13.094-18.186 24.552-28.371 34.373 1.819.545 4.001.818 6.547.818 15.277 0 27.917-5.001 37.92-15.004 10.002-10.185 16.913-22.188 20.732-36.01.546-2 2.001-2.909 4.365-2.728 1.455.182 2.001.91 1.637 2.183-4.001 15.64-11.64 29.371-22.915 41.193-11.094 11.639-25.098 17.459-42.011 17.459-3.82 0-8.094-.637-12.822-1.91-16.732 13.458-34.555 20.187-53.469 20.187-24.552 0-42.011-9.639-52.377-28.916-5.638-10.367-8.457-21.552-8.457-33.555 0-6.365.818-13.003 2.455-19.914 4.365-18.732 13.276-32.1 26.734-40.102 6.729-4.001 14.095-6.001 22.097-6.001 2.546 0 4.638.818 6.275 2.455 1.636 1.455 2.818 3.819 3.546 7.093-10.73 0-20.369 3.819-28.917 11.457-14.367 12.549-21.551 30.372-21.551 53.469 0 14.004 4.183 24.916 12.549 32.736 8.547 8.002 19.914 12.003 34.1 12.003 14.367 0 28.917-6.365 43.648-19.096Zm72.019-126.579c-15.277 0-29.008 5.001-41.193 15.004-12.185 10.003-21.096 21.733-26.734 35.191-5.638 13.276-8.457 26.735-8.457 40.375s3.455 24.006 10.366 31.099c6.911-6.547 14.277-15.095 22.097-25.643 7.82-10.731 14.004-19.733 18.551-27.008 4.546-7.274 11.639-19.096 21.278-35.464s15.913-26.916 18.823-31.644c-4.365-1.273-9.275-1.91-14.731-1.91Zm106.119-85.932c-14.549 3.819-27.825 12.822-39.829 27.007-12.003 14.186-24.279 33.009-36.828 56.47 17.641 9.639 30.008 28.917 37.101 57.833 3.274-30.917 8.548-59.288 15.823-85.113 7.456-26.007 15.367-44.739 23.733-56.197Zm120.977 69.291c0 12.913 3.819 20.006 11.457 21.279-.545 2.546-2.637 3.819-6.274 3.819-7.457 0-12.731-4.456-15.822-13.367-1.455-4.183-2.183-9.276-2.183-15.277 0-6.002 2.364-13.276 7.093-21.824 10.912-19.824 30.917-32.645 60.02-38.465 10.36-2.001 21.73-3.001 34.1-3.001 12.36 0 23.55-1.455 33.55-4.365 10.18-2.909 17.64-6.183 22.37-9.82 4.91-3.638 9.46-6.911 13.64-9.821 4.36-2.91 7.91-4.365 10.64-4.365 2.91 0 4.36 1.273 4.36 3.819 0 6.002-5.91 12.094-17.73 18.278-11.82 6.183-27.19 10.184-46.1 12.003-7.82 4.183-13.91 19.005-18.28 44.466-4.91 29.281-9 53.196-12.27 71.747-3.28 18.55-7.19 34.464-11.74 47.74-4.36 13.094-9.36 24.734-14.999 34.918-5.638 10.003-13.095 18.005-22.37 24.007-9.093 6.183-19.823 9.275-32.19 9.275-12.185 0-22.097-4.001-29.735-12.003-8.366-8.73-12.549-20.551-12.549-35.464 0-24.916 6.638-44.012 19.914-57.288 8.002-8.003 16.914-12.004 26.735-12.004 2.364 0 4.273.546 5.728 1.637 1.637 1.091 2.728 2.728 3.274 4.911-15.459 0-28.007 8.002-37.646 24.006-7.093 11.821-10.64 24.097-10.64 36.828 0 20.915 7.184 33.645 21.552 38.192 3.273 1.091 6.82 1.637 10.639 1.637 11.276 0 21.096-4.638 29.462-13.913 8.548-9.275 15.004-21.006 19.369-35.191 4.547-14.186 8.821-30.099 12.826-47.74 4.18-17.823 7.63-34.737 10.36-50.741 2.73-16.004 6.37-30.917 10.91-44.739 4.73-14.004 10.1-23.825 16.1-29.463h-5.46c-37.279 0-63.286 10.458-78.018 31.372-6.729 9.457-10.093 19.096-10.093 28.917ZM1082.27 452c-14.91 0-22.37-11.73-22.37-35.191 0-14.004 3.46-29.372 10.37-46.103 9.64-23.461 22.28-39.465 37.92-48.013 6.73-3.638 13-5.456 18.82-5.456s10.37 1.273 13.64 3.819c3.46 2.546 5.64 5.092 6.55 7.638l1.64 3.547c-.55 3.092-2.1 4.637-4.64 4.637-2.91 0-4.64-.636-5.19-1.909-.36-1.455-.81-2.637-1.36-3.547-.54-1.091-1.82-2.455-3.82-4.092-2-1.818-4.27-2.728-6.82-2.728-11.82 0-22.55 10.64-32.19 31.918-10.91 24.552-16.37 47.649-16.37 69.291 0 10.912 2.19 16.368 6.55 16.368 3.46 0 8.28-3.819 14.46-11.457 6.36-7.821 13-17.551 19.91-29.19 12.01-20.005 21.74-37.374 29.19-52.105 6.19-13.094 12.55-19.641 19.1-19.641 3.45 0 5.18 2.091 5.18 6.274-1.63 3.455-3.73 8.366-6.27 14.731-2.55 6.366-5.91 19.005-10.1 37.919-4.18 18.915-6.27 37.738-6.27 56.47s2.82 28.098 8.46 28.098c2.18 0 4.18-1 6-3 1.82-1.819 3.45-4.638 4.91-8.457.54-2.001 1.82-3.001 3.82-3.001.72 0 1.27.273 1.63.818.37.546.37 1.455 0 2.728-.36 1.273-1 3.001-1.91 5.184-.9 2.364-2.91 5.456-6 9.275-2.91 3.819-6 5.729-9.27 5.729-7.64 0-13.55-5.002-17.73-15.004-4.01-10.003-6.01-21.824-6.01-35.464 0-13.64 1-26.735 3.01-39.284h-2.73c-23.1 39.465-40.47 59.198-52.11 59.198Zm144.32 39.829c-10.55 0-18.37-5.547-23.46-16.641-4.91-11.094-7.37-27.735-7.37-49.922 0-22.188 3.27-48.468 9.82-78.84 6.55-30.371 14.19-55.56 22.92-75.565 8.91-20.006 16.64-30.008 23.19-30.008 3.09 0 4.63 1.818 4.63 5.456-3.82 8.729-8.64 21.915-14.46 39.556-5.82 17.459-10.73 33.645-14.73 48.558-3.82 14.913-7.36 32.372-10.64 52.378-3.09 20.005-4.63 37.192-4.63 51.559 0 14.186 1.36 25.098 4.09 32.736 2.91 7.82 6.82 11.73 11.73 11.73 4.18 0 8.18-2 12-6.001 3.82-3.819 6.55-7.639 8.19-11.458.91-2 2.54-2.546 4.91-1.637.91.364 1.09 1.092.54 2.183-.36 1.273-1.09 2.819-2.18 4.637-.91 1.819-2.64 4.638-5.18 8.457-5.46 8.548-11.92 12.822-19.37 12.822Zm99.56-172.137c13.82 0 20.73 8.093 20.73 24.279 0 9.275-3.09 19.005-9.28 29.19-10.54 16.913-24.55 25.37-42.01 25.37-2.73 0-5-.454-6.82-1.364-1.82-.909-3.18-2.273-4.09-4.092 12.91 0 24.73-7.456 35.46-22.369 8.73-12.004 13.1-23.007 13.1-33.009 0-7.457-3-11.185-9-11.185-12.01 0-23.19 9.366-33.56 28.098-11.09 20.369-16.64 41.284-16.64 62.744 0 18.187 5.18 29.099 15.55 32.736 2 .728 4.55 1.092 7.64 1.092s6.36-.728 9.82-2.183c3.46-1.637 6.37-3.546 8.73-5.729 4.73-4.364 8.64-9.184 11.73-14.458.73-1.455 2.09-2.182 4.09-2.182 3.28 0 4.82.545 4.64 1.636-.55 2.001-2.64 5.365-6.27 10.094-3.46 4.729-6.73 8.548-9.83 11.458-2.91 2.728-6.82 5.183-11.73 7.365-4.72 2.364-9.54 3.547-14.45 3.547-19.28 0-31.56-9.094-36.83-27.28-1.64-6.184-2.46-12.549-2.46-19.096 0-12.185 2.82-25.462 8.46-39.829 8.91-21.824 21.19-37.556 36.83-47.195 8.55-5.092 17.27-7.638 26.19-7.638ZM815.207 567.494l-16.64-5.183c-8.73 13.458-18.005 37.647-27.826 72.565-4.001 13.822-8.457 28.462-13.367 43.921-4.729 15.277-10.276 29.644-16.641 43.102-6.183 13.276-13.367 25.371-21.551 36.283-8.002 10.912-18.005 19.55-30.008 25.916-12.003 6.365-25.462 9.548-40.375 9.548-26.734 0-46.194-9.548-58.379-28.644-6.729-10.731-10.093-22.279-10.093-34.646 0-5.092.545-10.275 1.636-15.55 3.82-17.641 12.458-30.189 25.916-37.646 7.093-4.001 15.004-6.002 23.734-6.002 18.732 0 31.372 7.275 37.919 21.824 2.728 6.002 4.092 12.185 4.092 18.551 0 6.183-1.273 12.458-3.819 18.823-6.183 15.277-16.277 22.915-30.281 22.915-2.182 0-4.001-.454-5.456-1.364-1.455-1.091-2.546-2.637-3.273-4.637 4.91 0 9.548-1.273 13.912-3.82 7.275-4.364 12.913-12.276 16.914-23.733 1.273-3.819 1.91-6.911 1.91-9.275 0-2.547-.182-5.365-.546-8.457-.364-3.274-1.546-7.002-3.546-11.185-2.001-4.183-5.456-7.547-10.367-10.094-4.91-2.546-10.73-3.819-17.459-3.819-17.277 0-30.008 7.639-38.192 22.915-4.729 8.73-7.093 17.005-7.093 24.825s.819 14.822 2.455 21.006c4.729 17.277 14.641 29.189 29.736 35.737 7.092 3.091 16.095 4.637 27.007 4.637 10.912 0 21.915-3.092 33.009-9.275 11.275-6.002 20.914-14.186 28.916-24.552 8.184-10.548 15.55-22.279 22.097-35.191 6.547-12.913 12.458-26.826 17.732-41.739 5.456-15.095 10.367-29.371 14.731-42.829 11.64-34.555 21.733-58.652 30.281-72.292-27.462-8.548-47.376-12.822-59.743-12.822-23.461 0-40.92 8.912-52.378 26.735-6.547 10.184-9.82 20.641-9.82 31.372 0 3.091.363 6.274 1.091 9.548 2 12.003 7.365 19.187 16.095 21.551a22.56 22.56 0 0 0 4.91.545c-1.091 3.82-4.092 5.729-9.002 5.729-11.094 0-18.914-5.91-23.461-17.732-2.182-5.638-3.273-11.912-3.273-18.823s1.818-14.64 5.456-23.188c7.638-18.369 21.096-30.917 40.374-37.646 9.093-3.092 19.46-4.638 31.099-4.638 11.822 0 32.554 4.729 62.199 14.186 8.911-12.731 19.096-19.096 30.553-19.096 1.455 0 2.546.454 3.274 1.364.727.909 1.182 2.182 1.364 3.819-10.73 0-20.278 5.365-28.644 16.095 8.184 2.546 13.458 4.274 15.822 5.183 7.639-13.276 14.822-19.914 21.551-19.914 3.092 0 4.911.909 5.456 2.728l.273.818c-5.092 0-10.457 6.729-16.095 20.187l39.01 12.549c12.185-22.915 24.916-34.373 38.192-34.373 1.819 0 3.274.455 4.365 1.364 1.091.91 1.819 2.274 2.183 4.092-13.64 0-26.189 10.367-37.647 31.1 9.821 2.546 15.914 4.001 18.278 4.364 10.73-21.278 20.369-31.917 28.917-31.917 3.091 0 4.91.909 5.456 2.728l.272.818c-6.001 0-13.276 10.094-21.824 30.281 1.273.182 3.001.273 5.184.273 18.004 0 30.644-5.365 37.919-16.095 3.092-4.183 4.637-7.73 4.637-10.64 0-8.184-3.637-12.276-10.912-12.276 1.637-2.546 4.274-3.819 7.912-3.819 7.092 0 11.73 3.547 13.912 10.639.546 2.183.819 4.274.819 6.275 0 6.001-2.546 11.912-7.639 17.732-8.911 9.821-22.642 14.731-41.192 14.731-4.365 0-8.639-.364-12.822-1.091-8.002 20.551-14.913 44.284-20.733 71.201-5.638 26.916-8.457 50.922-8.457 72.019 0 21.096 4.274 31.645 12.822 31.645-1.819 3.637-4.456 5.456-7.911 5.456-14.186 0-21.279-15.55-21.279-46.649 0-18.369 2.91-40.193 8.73-65.472 5.82-25.462 13.731-49.013 23.734-70.655-4.729-.91-10.912-2.456-18.551-4.638-8.002 15.641-16.459 38.556-25.37 68.746-8.73 30.008-16.55 54.651-23.461 73.928-6.729 19.278-13.549 28.917-20.46 28.917-13.822 0-20.733-16.55-20.733-49.649 0-20.188 2.91-43.83 8.73-70.928 6.001-27.099 13.913-50.196 23.733-69.292Zm-14.185 151.404c0 15.277 1.818 22.916 5.456 22.916 3.819 0 8.457-8.73 13.913-26.189 5.637-17.459 12.548-39.829 20.732-67.109 8.366-27.28 16.55-48.831 24.552-64.654-16.368-5.092-29.189-9.184-38.464-12.276-8.003 21.461-14.641 49.195-19.915 83.204-4.183 27.462-6.274 48.832-6.274 64.108Zm109.642 148.949c-17.277 0-25.916-8.82-25.916-26.461 0-10.367 3.91-21.552 11.73-33.555 11.276-17.641 26.371-29.28 45.285-34.918 6.729-2.001 13.731-3.001 21.006-3.001 1.273 0 1.909 1.273 1.909 3.819 0 2.546-.636 3.819-1.909 3.819-21.46 0-39.465 8.457-54.015 25.371-10.73 12.73-16.095 25.006-16.095 36.828 0 11.821 4.547 18.641 13.64 20.46l4.365.273c15.095 0 27.189-6.366 36.282-19.096 6.366-9.094 11.094-18.369 14.186-27.826 3.274-9.275 5.638-16.732 7.093-22.37 1.637-5.637 3.455-13.094 5.456-22.369 2-9.094 3.546-16.823 4.637-23.188 1.273-6.366 3.001-15.459 5.184-27.28 2.364-12.003 4.183-21.46 5.456-28.371h-1.637C965.315 735.994 947.219 759 933.034 759c-12.185 0-18.278-7.911-18.278-23.734 0-11.457 4.91-34.281 14.731-68.472 2.183-7.821 3.819-13.64 4.911-17.46 1.091-4.001 2.819-6.001 5.183-6.001 3.273 0 5.638 2.364 7.093 7.093.727 2 1.091 4.546 1.091 7.638 0 2.91-.455 6.183-1.364 9.821-.91 3.455-2.819 10.184-5.729 20.187-7.82 26.916-11.73 45.012-11.73 54.287 0 6.002 1.818 9.003 5.456 9.003 4.364 0 9.729-4.092 16.095-12.276 6.547-8.184 12.912-18.187 19.096-30.008 11.276-21.461 20.46-41.466 27.553-60.016 1.455-3.82 3.278-5.729 5.458-5.729 3.09 0 5.36 2.364 6.82 7.093.73 2.546 1.09 5.365 1.09 8.456 0 3.092-1.55 12.004-4.64 26.735-2.91 14.731-5.909 28.826-9.001 42.284-2.91 13.458-6.82 29.28-11.731 47.467-4.728 18.187-9.275 31.736-13.64 40.647-4.183 8.912-9.366 18.005-15.549 27.28-6.002 9.275-12.731 15.641-20.187 19.096-7.457 3.638-15.823 5.456-25.098 5.456Zm155.646-254.522h.55c1.63.182 2.91.909 3.82 2.182.9 1.273 1.36 2.637 1.36 4.092 0 1.273-1.27 4.092-3.82 8.457-2.36 4.365-3.55 7.911-3.55 10.639 0 2.546.37 5.002 1.1 7.366.72 2.182 3 7.638 6.82 16.368 8.36 19.096 12.54 36.191 12.54 51.286 0 14.913-4.09 27.28-12.27 37.101-8 9.821-17.64 14.731-28.92 14.731-11.09 0-16.64-6.729-16.64-20.187 0-13.64 4.82-28.189 14.46-43.648 5.64-8.911 11.73-15.641 18.28-20.187 1.82-1.273 3-1 3.54.818.73 1.819.37 3.274-1.09 4.365-10.55 7.638-18.73 19.733-24.55 36.282-5.27 14.913-5.82 25.28-1.64 31.1 1.46 2.182 3.55 3.273 6.28 3.273 8 0 14.27-5.365 18.82-16.095 4.55-10.73 6.82-24.097 6.82-40.102 0-13.821-1.64-26.643-4.91-38.464-3.27-11.822-5.09-18.642-5.46-20.46-5.45 10.366-11.36 22.005-17.73 34.918h-7.36c10.36-20.551 18.36-36.01 24-46.376.73-11.639 3.91-17.459 9.55-17.459Zm41.98 26.461c0-2 1.27-3 3.82-3h14.18c.91-3.638 2.1-8.184 3.55-13.64l3.82-14.186c1.09-4.183 2-8.002 2.73-11.458.91-3.455 2.54-5.183 4.91-5.183 3.09 0 5.27 2.364 6.55 7.093.54 2.001.81 4.456.81 7.366 0 2.909-.54 6.638-1.63 11.184l-5.19 18.824h16.92c1.63 0 2.73.545 3.27 1.636.73 1.092.73 2.183 0 3.274-.54.909-1.64 1.364-3.27 1.364h-18.55c-11.28 42.375-16.92 72.383-16.92 90.024 0 12.913 2.91 19.369 8.73 19.369 4.73 0 11.37-6.275 19.92-18.823 8.55-12.549 15.91-25.098 22.09-37.647l9.28-18.823h7.37c-1.1 2.182-2.55 5.183-4.37 9.002-1.64 3.638-5 10.276-10.09 19.915-5.1 9.457-10.01 17.823-14.73 25.097-4.55 7.275-9.73 13.913-15.55 19.915-5.64 5.82-10.92 8.729-15.83 8.729s-9.18-1.545-12.82-4.637c-3.45-3.274-5.64-7.82-6.54-13.64a101.171 101.171 0 0 1-1.64-18.278c0-14.367 5.09-41.102 15.28-80.203h-12.28c-1.46 0-2.46-.364-3-1.091-.55-.91-.82-1.637-.82-2.183Zm78.32 79.385c0 22.006 7.82 33.009 23.46 33.009 5.82 0 11.91-2.546 18.27-7.638 6.55-5.275 12.46-11.549 17.74-18.824 11.64-16.731 19.82-30.371 24.55-40.92l3.54-7.638h7.37c-3.09 7.275-7.64 16.277-13.64 27.007-6 10.548-11.73 19.46-17.19 26.735-5.45 7.274-11.91 13.912-19.36 19.914-7.46 5.82-14.55 8.73-21.28 8.73-26.92 0-40.38-15.095-40.38-45.285 0-14.004 4.09-28.008 12.28-42.011 11.27-19.46 25.19-29.19 41.74-29.19 11.64 0 17.46 6.365 17.46 19.096 0 9.457-3.64 19.278-10.92 29.462-10.18 13.822-22.09 20.824-35.73 21.006-2 0-3.28-.909-3.82-2.728l-.27-1.091c9.45 0 18.45-6.184 27-18.551 8.73-12.548 13.1-23.006 13.1-31.372 0-5.637-2.19-8.456-6.55-8.456-9.64 0-18.64 8.456-27.01 25.37-6.91 14.367-10.36 28.826-10.36 43.375ZM1266.8 759c-5.09 0-7.64-3.91-7.64-11.73 0-4.183 5.09-34.646 15.28-91.388.72-3.82 2.36-5.729 4.91-5.729 3.27 0 5.73 2.364 7.36 7.093.91 2.546 1.37 5.365 1.37 8.456 0 2.91-.37 6.093-1.09 9.548l-4.37 22.37h1.36c15.64-36.373 30.01-54.56 43.11-54.56 7.27 0 12.09 3.546 14.46 10.639.9 2.728 1.36 5.911 1.36 9.548 0 3.456-1 7.275-3 11.458-3.46 7.093-8.64 10.639-15.55 10.639-1.46 0-2.64-.364-3.55-1.091-.73-.728-1.18-1.728-1.36-3.001 1.45 0 3.36-2.637 5.73-7.911 2.36-5.456 3.73-10.458 4.09-15.004.36-4.547-1.18-7.184-4.64-7.911-6.36 0-13.91 8.275-22.64 24.824-8.73 16.55-15.73 32.373-21.01 47.468-5.27 15.095-8.36 24.915-9.27 29.462-.91 4.547-2.55 6.82-4.91 6.82Zm73.04 108.847c-17.27 0-25.91-8.82-25.91-26.461 0-10.367 3.91-21.552 11.73-33.555 11.27-17.641 26.37-29.28 45.28-34.918 6.73-2.001 13.73-3.001 21.01-3.001 1.27 0 1.91 1.273 1.91 3.819 0 2.546-.64 3.819-1.91 3.819-21.46 0-39.47 8.457-54.02 25.371-10.73 12.73-16.09 25.006-16.09 36.828 0 11.821 4.55 18.641 13.64 20.46l4.36.273c15.1 0 27.19-6.366 36.29-19.096 6.36-9.094 11.09-18.369 14.18-27.826 3.28-9.275 5.64-16.732 7.1-22.37 1.63-5.637 3.45-13.094 5.45-22.369 2-9.094 3.55-16.823 4.64-23.188 1.27-6.366 3-15.459 5.18-27.28 2.37-12.003 4.18-21.46 5.46-28.371h-1.64c-22 46.012-40.1 69.018-54.29 69.018-12.18 0-18.27-7.911-18.27-23.734 0-11.457 4.91-34.281 14.73-68.472 2.18-7.821 3.82-13.64 4.91-17.46 1.09-4.001 2.82-6.001 5.18-6.001 3.27 0 5.64 2.364 7.09 7.093.73 2 1.1 4.546 1.1 7.638 0 2.91-.46 6.183-1.37 9.821-.91 3.455-2.82 10.184-5.73 20.187-7.82 26.916-11.73 45.012-11.73 54.287 0 6.002 1.82 9.003 5.46 9.003 4.36 0 9.73-4.092 16.09-12.276 6.55-8.184 12.92-18.187 19.1-30.008 11.27-21.461 20.46-41.466 27.55-60.016 1.46-3.82 3.28-5.729 5.46-5.729 3.09 0 5.36 2.364 6.82 7.093.73 2.546 1.09 5.365 1.09 8.456 0 3.092-1.55 12.004-4.64 26.735-2.91 14.731-5.91 28.826-9 42.284-2.91 13.458-6.82 29.28-11.73 47.467-4.73 18.187-9.28 31.736-13.64 40.647-4.18 8.912-9.37 18.005-15.55 27.28-6 9.275-12.73 15.641-20.19 19.096-7.45 3.638-15.82 5.456-25.1 5.456ZM516.528 553.2c1.267.533 2.567 1.233 3.9 2.1 1.333.8 2.567 1.633 3.7 2.5s2.067 1.733 2.8 2.6c.8.8 1.233 1.467 1.3 2a19.931 19.931 0 0 0-3.4-.5 26.794 26.794 0 0 0-3.1-.2c-3 0-6 .733-9 2.2-2.933 1.467-5.733 3.467-8.4 6-2.667 2.533-5.133 5.5-7.4 8.9a68.416 68.416 0 0 0-5.9 10.9 73.876 73.876 0 0 0-3.8 12c-.933 4.133-1.4 8.2-1.4 12.2 0 5.2.867 9.067 2.6 11.6 1.733 2.533 4.267 3.8 7.6 3.8 1.6 0 3.333-.333 5.2-1 1.867-.6 3.767-1.467 5.7-2.6 1.933-1.133 3.833-2.5 5.7-4.1a43.44 43.44 0 0 0 5.2-5.3c2.333-2.8 4.433-5.967 6.3-9.5 1.867-3.6 3.433-7.4 4.7-11.4 1.333-4 2.333-8.1 3-12.3.733-4.267 1.1-8.433 1.1-12.5 0-1.6-.033-2.933-.1-4-.067-1.133-.167-2.067-.3-2.8-.067-.8-.133-1.433-.2-1.9a22.25 22.25 0 0 0-.2-1.2c.8.4 1.667.9 2.6 1.5 1 .533 1.9 1.367 2.7 2.5.867 1.067 1.567 2.5 2.1 4.3.6 1.8.9 4.133.9 7a56.7 56.7 0 0 1-1.7 13.8 61.046 61.046 0 0 1-4.6 12.8 65.612 65.612 0 0 1-6.9 11.4c-2.667 3.533-5.533 6.633-8.6 9.3-4 3.533-8.267 6.267-12.8 8.2-4.533 1.933-8.9 2.9-13.1 2.9-6.133 0-10.833-1.967-14.1-5.9-3.2-3.867-4.8-9.6-4.8-17.2 0-4.067.433-8.367 1.3-12.9.933-4.533 2.2-9 3.8-13.4a85.971 85.971 0 0 1 5.9-12.5c2.267-4 4.733-7.5 7.4-10.5 2.733-3.067 5.633-5.5 8.7-7.3 3.133-1.8 6.333-2.7 9.6-2.7 1.067 0 2.067.1 3 .3.933.133 1.933.433 3 .9Zm68.066 31.1c2.133 0 3.8.6 5 1.8 1.266 1.2 1.9 2.867 1.9 5 0 .533-.034 1.1-.1 1.7-.067.533-.2 1-.4 1.4a32.834 32.834 0 0 0-2.9-.3c-1.067-.133-2.334-.2-3.8-.2-3 0-6 .267-9 .8s-5.867.967-8.6 1.3c-3 7.067-5.467 13.7-7.4 19.9-1.934 6.2-3.434 12.333-4.5 18.4-2.267-.533-4.267-1.5-6-2.9-1.734-1.4-3.367-3.367-4.9-5.9a285.108 285.108 0 0 1 1.7-3.8 333.973 333.973 0 0 0 2.4-5.7 879.848 879.848 0 0 0 3.3-8.4c1.333-3.333 2.9-7.3 4.7-11.9-2.8-.933-4.634-2.567-5.5-4.9.333-.333 1.266-.7 2.8-1.1 1.533-.467 3.4-.967 5.6-1.5 1-2.6 1.866-4.9 2.6-6.9.733-2.067 1.4-4 2-5.8a118.16 118.16 0 0 0 1.6-5.4c.533-1.8 1-3.7 1.4-5.7h-.5c-2.534 0-4.6-.6-6.2-1.8-1.534-1.2-2.3-2.767-2.3-4.7 0-.533.066-1.167.2-1.9.2-.733.433-1.367.7-1.9 1.266.2 2.5.333 3.7.4 1.266.067 2.9.1 4.9.1 4.2 0 8.133-.1 11.8-.3 3.666-.267 6.966-.533 9.9-.8 3-.267 5.566-.5 7.7-.7 2.133-.267 3.766-.4 4.9-.4 1.533 0 2.9.8 4.1 2.4 1.2 1.6 2.133 3.867 2.8 6.8-2.134-.2-3.867-.333-5.2-.4-1.267-.067-2.4-.1-3.4-.1-3.4 0-6.534.167-9.4.5-2.8.267-5.467.6-8 1-.4.6-.867 1.367-1.4 2.3-.467.933-1.1 2.267-1.9 4-.8 1.667-1.834 3.867-3.1 6.6-1.2 2.733-2.734 6.2-4.6 10.4 2.6-.4 5.066-.733 7.4-1 2.4-.267 4.4-.4 6-.4Z" fill="#3C4043"/></svg>