<svg width="1920" height="1080" fill="none" xmlns="http://www.w3.org/2000/svg"><mask id="a" style="mask-type:alpha" maskUnits="userSpaceOnUse" x="50" y="50" width="1820" height="980"><path fill="#C4C4C4" d="M50 50h1820v980H50z"/></mask><g mask="url(#a)"><rect x="470" y="340" width="460" height="460" rx="76.165" fill="#FF6D7F"/><path d="M532.837 714.819h32.903V448.962h-32.903v-20.18h77.212l89.497 189.522h1.316l93.884-189.522h72.386v20.18h-32.903v265.857h32.903V735H763.597v-20.181H796.5V473.091h-1.754l-19.304 42.555-84.232 168.025-75.019-157.057-24.567-53.523h-1.755v241.728h32.903V735h-89.935v-20.181Z" fill="#fff"/><rect x="470" y="861.429" width="460" height="460" rx="76.165" fill="#3C4043"/><path d="M532.837 1236.25h32.903V970.391h-32.903V950.21h77.212l89.497 189.52h1.316l93.884-189.52h72.386v20.181h-32.903v265.859h32.903v20.18H763.597v-20.18H796.5V994.52h-1.754l-19.304 42.55-84.232 168.03-75.019-157.06-24.567-53.52h-1.755v241.73h32.903v20.18h-89.935v-20.18Z" fill="#fff"/><rect x="470" y="-180" width="460" height="460" rx="76.165" fill="#3C4043"/><path d="M523.339 199.194c-3.802 0-6.873-.439-9.212-1.317-2.34-.585-3.51-1.754-3.51-3.509 0-2.048 1.17-3.656 3.51-4.826 2.339-1.17 5.995-2.194 10.967-3.071 7.312-1.462 13.308-4.972 17.987-10.529 4.68-5.557 7.751-13.454 9.213-23.69 3.51-26.323 6.581-51.329 9.213-75.02 2.632-23.982 4.68-45.479 6.142-64.49 1.755-19.303 2.632-35.096 2.632-47.38v-7.458c0-2.632-.146-4.972-.438-7.02a59.294 59.294 0 0 0-1.317-7.019c-.585-2.632-2.339-5.118-5.264-7.458-5.265-4.387-10.383-7.311-15.355-8.774-4.972-1.755-10.821-3.217-17.548-4.387-2.925-.585-5.265-1.608-7.02-3.07-1.754-1.756-2.632-3.657-2.632-5.704 0-2.34 1.316-3.656 3.949-3.948 2.924-.585 6.58-.878 10.967-.878 2.925 0 7.312.146 13.162.439 6.141.292 12.722.731 19.741 1.316 7.02.585 13.454 1.024 19.304 1.316 6.141.293 10.675.439 13.599.439 2.048 0 3.803.585 5.265 1.755 1.462 1.17 2.486 2.924 3.071 5.264a665.09 665.09 0 0 1 4.387 16.671 165.445 165.445 0 0 0 5.265 17.11l69.315 175.922c.878 2.047 2.486 3.363 4.826 3.948 2.34.293 4.095-.585 5.265-2.632l86.425-179.87c1.463-4.973 2.925-10.53 4.387-16.671 1.463-6.142 2.633-11.553 3.51-16.233.877-3.802 2.34-5.703 4.387-5.703h15.794c8.774 0 17.987-.585 27.638-1.755 9.944-1.17 17.402-1.755 22.374-1.755 1.463 0 3.364.293 5.703.878 2.34.292 3.51 1.462 3.51 3.51 0 2.047-.877 3.656-2.632 4.825-1.463 1.17-4.387 2.633-8.774 4.388a1625.03 1625.03 0 0 1-12.723 4.825 308.71 308.71 0 0 0-13.161 5.265c-2.925 1.17-5.411 3.217-7.458 6.142-2.047 2.632-3.071 5.557-3.071 8.774 0 20.473.292 39.776.877 57.91.878 17.84 1.755 35.096 2.633 51.767.877 16.378 1.901 32.61 3.071 48.696a2463.728 2463.728 0 0 1 3.07 49.136c.585 9.066 3.51 16.086 8.775 21.058 5.264 4.679 13.307 8.043 24.129 10.09 4.972.877 8.628 1.901 10.967 3.071 2.34 1.17 3.51 2.778 3.51 4.826 0 1.755-1.17 2.924-3.51 3.509-2.339.878-5.41 1.317-9.213 1.317-7.896 0-14.477-.293-19.741-.878a3971.09 3971.09 0 0 1-14.478-.877c-4.679-.293-10.383-.439-17.109-.439-5.85 0-10.822.146-14.916.439-3.803.292-8.043.585-12.723.877-4.387.585-10.529.878-18.426.878-3.802 0-6.873-.439-9.213-1.317-2.339-.585-3.509-1.754-3.509-3.509 0-2.048 1.17-3.656 3.509-4.826 2.34-1.462 5.996-2.486 10.968-3.071 8.482-1.17 14.331-4.095 17.548-8.774 3.218-4.972 4.826-12.576 4.826-22.813 0-21.058-.292-40.069-.877-57.032a1381.748 1381.748 0 0 0-1.755-50.013 6984.47 6984.47 0 0 1-2.632-54.4c-.293-3.217-1.17-4.68-2.633-4.387-1.462 0-2.924 1.463-4.387 4.387L682.59 199.194c-.584 1.462-1.901 2.193-3.948 2.193-2.047.293-3.363-.585-3.948-2.632a1876.816 1876.816 0 0 0-36.852-100.903C624.973 64.51 610.35 28.682 593.971-9.632c-.584-1.462-1.608-2.193-3.071-2.193-1.462 0-2.339.731-2.632 2.193a8286.371 8286.371 0 0 1-7.458 56.594 1013.204 1013.204 0 0 0-4.826 50.451c-1.169 16.671-1.754 34.951-1.754 54.839 0 7.897 2.486 15.208 7.458 21.935 4.972 6.435 11.991 10.529 21.058 12.284 4.972.877 8.628 1.901 10.967 3.071 2.34 1.17 3.51 2.778 3.51 4.826 0 1.755-1.17 2.924-3.51 3.509-2.339.878-5.41 1.317-9.213 1.317-7.896 0-13.892-.293-17.987-.878a766.293 766.293 0 0 1-10.529-.877c-2.924-.293-7.165-.439-12.722-.439-5.265 0-9.359.146-12.284.439-2.925.292-6.288.585-10.09.877-3.802.585-9.652.878-17.549.878Z" fill="#fff"/><rect x="989" y="571" width="460" height="459.003" rx="76.165" fill="#3C4043"/><path d="m1116.82 648.212 101.97 254.485 101.96-254.485h53.34v311.894h-41.13V838.647l3.86-131.098-102.4 252.557h-31.49l-102.18-251.914 4.07 130.455v121.459h-41.12V648.212h53.12Z" fill="#fff"/><rect x="990" y="50" width="460" height="460" rx="76.165" fill="#1A73E8"/><path d="M1041.08 459.168c2.05-6.142 8.92-21.936 20.62-47.381 11.99-25.737 28.08-60.395 48.26-103.974 20.47-43.87 44.45-95.931 71.95-156.18a32.484 32.484 0 0 0 2.63-7.458c.88-2.632 1.31-4.972 1.31-7.019 0-2.925-.87-5.265-2.63-7.019-1.75-1.755-5.12-2.633-10.09-2.633-12.28 0-22.37 3.802-30.27 11.407-7.6 7.312-13.31 16.378-17.11 27.2-3.51 10.821-5.26 21.496-5.26 32.025 0 2.633.14 5.703.44 9.213.29 3.51.73 7.458 1.31 11.845-7.02 0-12.87-2.047-17.55-6.142-4.38-4.387-7.75-9.651-10.09-15.793-2.34-6.435-3.51-12.43-3.51-17.987 0-9.359 2.64-18.426 7.9-27.2 5.56-8.774 12.72-16.671 21.5-23.69 8.77-7.312 18.42-13.015 28.95-17.11 10.82-4.095 21.5-6.142 32.03-6.142 10.82 0 20.03 3.071 27.64 9.213 7.6 5.849 13.45 16.671 17.54 32.464 4.1 15.501 6.15 37.876 6.15 67.123 0 19.01-.73 38.314-2.2 57.909-1.17 19.303-2.48 37.437-3.95 54.4-1.46 16.963-2.19 31.441-2.19 43.432 5.85-17.256 13.02-35.535 21.5-54.838a1055.67 1055.67 0 0 1 28.07-57.91c9.95-19.303 19.75-37.436 29.4-54.4 9.65-16.963 18.28-31.733 25.88-44.309 7.9-12.869 13.89-22.374 17.99-28.516 4.09-6.435 7.75-11.26 10.97-14.478 3.21-3.217 7.6-4.825 13.16-4.825 4.09 0 10.53 1.608 19.3 4.825-2.63 5.557-5.7 14.478-9.21 26.762-3.51 11.991-7.31 26.03-11.41 42.116-4.39 17.548-8.77 36.851-13.16 57.909a1416.107 1416.107 0 0 0-11.84 63.174c-3.51 21.351-6.44 41.677-8.78 60.98-2.05 19.011-3.07 35.828-3.07 50.452 0 7.604.29 13.6.88 17.987.88 4.387 1.9 8.189 3.07 11.406 1.46 3.51 3.07 7.897 4.82 13.162-12.57 0-22.22-1.901-28.95-5.704-6.43-3.802-10.82-9.944-13.16-18.425-2.05-8.19-3.07-19.157-3.07-32.903 0-32.465 3.65-66.538 10.97-102.219 7.6-35.974 16.37-72.972 26.32-110.994-8.19 11.699-16.67 25.592-25.45 41.678-8.77 16.086-17.4 33.049-25.88 50.89a1666.074 1666.074 0 0 0-24.13 53.084c-7.6 17.255-14.33 33.341-20.18 48.257-5.85 14.624-10.38 26.908-13.6 36.852-4.39 1.462-7.46 2.193-9.21 2.193-10.24 0-16.82-6.141-19.75-18.425-2.63-12.577-3.94-29.686-3.94-51.329 0-15.501.29-32.026.87-49.574.59-17.841 1.17-35.828 1.76-53.961.58-18.426.88-35.828.88-52.207 0-4.387-.15-8.774-.44-13.161v-12.722c-22.23 51.767-41.09 96.077-56.6 132.928-15.2 36.559-28.22 66.391-39.04 89.497-10.82 22.813-20.77 39.483-29.83 50.012-9.07 10.822-18.58 16.233-28.52 16.233Z" fill="#fff"/></g></svg>