<svg width="1920" height="1080" fill="none" xmlns="http://www.w3.org/2000/svg"><path d="m208.008 837.685-.028.029-.028.028-20.652 21.049H53.946V670.209h175.111v146.825l-21.049 20.651Z" stroke="#3C4043" stroke-width="8.419"/><path d="M185.279 815.013h47.987l-23.993 23.993L185.279 863v-47.987Z" fill="#3C4043"/><path d="m617.161 837.685-.029.029-.028.028-20.651 21.049H463.098V670.209h175.111v146.825l-21.048 20.651Z" stroke="#3C4043" stroke-width="8.419"/><path d="M594.432 815.013h47.987l-23.994 23.993L594.432 863v-47.987Z" fill="#3C4043"/><path d="m1026.32 837.685-.03.029-.03.028-20.65 21.049H872.254V670.209h175.116v146.825l-21.05 20.651Z" stroke="#3C4043" stroke-width="8.419"/><path d="M1003.59 815.013h47.99l-24 23.993L1003.59 863v-47.987Z" fill="#3C4043"/><path d="m1640.05 837.685-.03.029-.03.028-20.65 21.049h-133.36V670.209h175.12v146.825l-21.05 20.651Z" stroke="#3C4043" stroke-width="8.419"/><path d="M1617.32 815.013h47.99l-24 23.993L1617.32 863v-47.987Z" fill="#3C4043"/><path d="m412.587 837.685-.029.029-.028.028-20.651 21.049H258.524V670.209h175.111v146.825l-21.048 20.651Z" stroke="#3C4043" stroke-width="8.419"/><path d="M389.857 815.013h47.988l-23.994 23.993L389.857 863v-47.987Z" fill="#3C4043"/><path d="m821.739 837.685-.029.029-.028.028-20.651 21.049H667.676V670.209h175.111v146.825l-21.048 20.651Z" stroke="#3C4043" stroke-width="8.419"/><path d="M799.01 815.013h47.987l-23.994 23.993L799.01 863v-47.987Z" fill="#3C4043"/><path d="m1435.47 837.685-.03.029-.03.028-20.65 21.049h-133.35V670.209h175.11v146.825l-21.05 20.651Z" stroke="#3C4043" stroke-width="8.419"/><path d="M1412.74 815.013h47.99l-24 23.993L1412.74 863v-47.987Z" fill="#3C4043"/><path d="m1230.89 837.685-.03.029-.03.028-20.65 21.049h-133.35V670.209h175.11v146.825l-21.05 20.651Z" stroke="#3C4043" stroke-width="8.419"/><path d="M1208.16 815.013h47.99l-23.99 23.993-24 23.994v-47.987Z" fill="#3C4043"/><path d="m1844.62 837.685-.03.029-.03.028-20.65 21.049h-133.35V670.209h175.11v146.825l-21.05 20.651Z" stroke="#3C4043" stroke-width="8.419"/><path d="M1821.89 815.013h47.99l-23.99 23.993-24 23.994v-47.987ZM171.058 739.741l-.21 4.402c-8.699.978-16.384 2.096-23.161 3.494a111.29 111.29 0 0 0-17.467 4.506 43.488 43.488 0 0 0-11.948 6.289 23.44 23.44 0 0 0-6.987 8.593 26.174 26.174 0 0 0-2.305 11.424 29.713 29.713 0 0 0 2.515 12.576 17.463 17.463 0 0 0 7.651 8.279 26.476 26.476 0 0 0 12.89 2.83 30.535 30.535 0 0 0 16.14-4.192 43.574 43.574 0 0 0 11.947-10.69 61.466 61.466 0 0 0 8.175-13.973l1.257 4.82a57.83 57.83 0 0 1-9.013 14.778 39.874 39.874 0 0 1-12.681 9.956 40.07 40.07 0 0 1-32.803 0 25.962 25.962 0 0 1-15.091-24.21 27.109 27.109 0 0 1 4.297-15.301 32.063 32.063 0 0 1 13.309-10.899 99.48 99.48 0 0 1 22.323-7.337c8.827-2.026 19.214-3.807 31.162-5.345Zm-4.193 64.349v-23.475l-.209 1.047v-56.174a35.609 35.609 0 0 0-3.144-16.558 17.747 17.747 0 0 0-9.013-8.28 37.655 37.655 0 0 0-14.253-2.41 43.729 43.729 0 0 0-18.97 3.493 27.947 27.947 0 0 0-11.213 9.013 3.804 3.804 0 0 1 .314-2.41c.337-.778.759-1.516 1.258-2.201a8.224 8.224 0 0 1 1.781-1.886 3.178 3.178 0 0 1 1.887-.839v17.188h-9.223v-14.673a39.324 39.324 0 0 1 7.651-5.345 53.292 53.292 0 0 1 11.423-4.506 56.595 56.595 0 0 1 15.301-1.886 61.176 61.176 0 0 1 12.996 1.362 30.772 30.772 0 0 1 11.214 4.821 24.205 24.205 0 0 1 7.755 9.222 33.015 33.015 0 0 1 2.83 14.568v69.868a4.498 4.498 0 0 0 1.991 3.773 11.738 11.738 0 0 0 5.659 1.887c3.029.309 6.073.449 9.118.419h.21v3.982h-25.363ZM373.468 739.952l-.21 5.449c-8.244.979-15.545 2.062-21.904 3.249a101.65 101.65 0 0 0-16.349 4.297 42.87 42.87 0 0 0-11.423 6.079 22.218 22.218 0 0 0-6.987 8.384 25.422 25.422 0 0 0-2.201 10.69 27.117 27.117 0 0 0 2.515 12.052 17.025 17.025 0 0 0 7.441 7.756 24.93 24.93 0 0 0 11.843 2.62 28.896 28.896 0 0 0 15.092-3.878 40.083 40.083 0 0 0 11.318-10.166 55.87 55.87 0 0 0 7.756-13.974l1.886 5.45a56.891 56.891 0 0 1-9.013 14.777 38.214 38.214 0 0 1-12.681 9.852 37.176 37.176 0 0 1-16.244 3.493 37.688 37.688 0 0 1-16.454-3.493 28.123 28.123 0 0 1-11.424-9.642 25.324 25.324 0 0 1-4.192-14.568 26.136 26.136 0 0 1 4.402-15.196 33.79 33.79 0 0 1 13.414-10.795 104.44 104.44 0 0 1 22.219-7.441 292.498 292.498 0 0 1 31.196-4.995Zm-4.402 64.139v-22.847l-.629.838v-55.545a36.602 36.602 0 0 0-2.934-16.139 16.945 16.945 0 0 0-8.384-8.28 33.748 33.748 0 0 0-13.625-2.41 39.093 39.093 0 0 0-18.55 3.877 30.783 30.783 0 0 0-11.214 9.747 7.605 7.605 0 0 1 .42-3.493 11.65 11.65 0 0 1 1.677-3.04 9.732 9.732 0 0 1 2.305-2.2 4.825 4.825 0 0 1 2.725-.839v18.865H308.7v-16.35a30.96 30.96 0 0 1 7.86-5.45 66.905 66.905 0 0 1 11.843-4.506 56.875 56.875 0 0 1 15.72-1.991c4.704-.038 9.396.49 13.974 1.572a33.252 33.252 0 0 1 11.633 5.24 24.667 24.667 0 0 1 7.965 9.537 34.243 34.243 0 0 1 2.864 14.882v67.073a4.547 4.547 0 0 0 2.097 3.983 13.967 13.967 0 0 0 5.764 2.096c2.865.453 5.763.664 8.663.629h.42v4.751h-28.437ZM576.387 739.951l-.419 6.987a170.495 170.495 0 0 0-20.122 2.62 86.845 86.845 0 0 0-15.511 4.402 42.535 42.535 0 0 0-10.69 5.974 21.754 21.754 0 0 0-6.287 7.86 24.446 24.446 0 0 0-2.096 10.48 24.45 24.45 0 0 0 2.305 11.109 15.75 15.75 0 0 0 6.987 6.987 22.601 22.601 0 0 0 10.795 2.41 27.108 27.108 0 0 0 13.973-3.493 37.871 37.871 0 0 0 10.481-9.537 59.423 59.423 0 0 0 7.755-13.519l2.306 5.869a54.228 54.228 0 0 1-9.014 14.881 39.177 39.177 0 0 1-12.576 9.747 36.98 36.98 0 0 1-16.349 3.493 38.879 38.879 0 0 1-16.349-3.493 28.432 28.432 0 0 1-11.738-9.642 27.247 27.247 0 0 1 0-29.868 35.488 35.488 0 0 1 13.52-10.9 93.907 93.907 0 0 1 22.323-7.336c9.013-1.817 19.248-3.493 30.706-5.031Zm-3.982 64.139v-22.008l-1.467.629v-55.126a38.43 38.43 0 0 0-2.62-15.616 16.344 16.344 0 0 0-7.756-8.279 29.236 29.236 0 0 0-12.89-2.515 34.942 34.942 0 0 0-18.341 4.296 39.02 39.02 0 0 0-11.423 10.481c.113-1.666.394-3.316.838-4.926a8.881 8.881 0 0 1 1.991-3.494 13.49 13.49 0 0 1 2.935-2.41 5.905 5.905 0 0 1 3.039-.943v20.541h-14.463v-18.445a37.248 37.248 0 0 1 7.965-5.24 63.826 63.826 0 0 1 12.472-4.716 60.33 60.33 0 0 1 16.035-1.992 64.657 64.657 0 0 1 14.567 1.573 31.19 31.19 0 0 1 11.948 5.449 26.53 26.53 0 0 1 8.07 10.166 35.462 35.462 0 0 1 2.934 15.091v64.349a5.07 5.07 0 0 0 2.096 4.297 13.283 13.283 0 0 0 5.764 2.201 52.45 52.45 0 0 0 8.699.629v6.008h-30.393ZM778.189 740.16l-.42 8.175c-6.331.471-12.63 1.31-18.864 2.515a78.222 78.222 0 0 0-14.462 4.192 42.206 42.206 0 0 0-10.166 5.764 20.54 20.54 0 0 0-6.079 7.651 23.128 23.128 0 0 0-1.991 9.642 22.146 22.146 0 0 0 2.305 10.48 15.202 15.202 0 0 0 6.603 6.498 20.967 20.967 0 0 0 9.747 2.201 25.503 25.503 0 0 0 13.1-3.249 33.264 33.264 0 0 0 9.851-9.013 69.235 69.235 0 0 0 7.651-13.31l2.725 6.497a54.215 54.215 0 0 1-9.013 14.882 37.9 37.9 0 0 1-12.576 9.642 37.449 37.449 0 0 1-16.14 3.494 39.576 39.576 0 0 1-16.454-3.494 29.057 29.057 0 0 1-11.947-9.642 26.829 26.829 0 0 1 0-29.764 35.942 35.942 0 0 1 13.519-10.794 97.08 97.08 0 0 1 22.218-7.441c8.803-1.887 18.935-3.529 30.393-4.926Zm-4.192 63.93v-21.38l-1.887.419v-54.497a39.994 39.994 0 0 0-2.41-15.196 15.757 15.757 0 0 0-7.231-8.28 26.137 26.137 0 0 0-12.158-2.515 31.926 31.926 0 0 0-18.025 4.611 40.841 40.841 0 0 0-11.319 11.109 25.244 25.244 0 0 1 1.048-6.183 13.14 13.14 0 0 1 2.305-4.402 10.482 10.482 0 0 1 3.494-2.724 8.8 8.8 0 0 1 3.982-.944v22.218h-17.467v-20.052a42.774 42.774 0 0 1 8.28-5.24 69.395 69.395 0 0 1 12.89-4.821 66.09 66.09 0 0 1 31.756-.314 33.79 33.79 0 0 1 12.366 5.868 27.28 27.28 0 0 1 8.279 10.481 36.733 36.733 0 0 1 2.935 15.406v61.414a5.482 5.482 0 0 0 2.201 4.611 13.274 13.274 0 0 0 5.869 2.306c2.737.442 5.507.652 8.279.629h.21v7.336l-33.397.14ZM982.243 739.741l-.419 8.804a147.814 147.814 0 0 0-16.978 2.41 60.641 60.641 0 0 0-12.996 4.087 39.047 39.047 0 0 0-9.013 5.555 19.357 19.357 0 0 0-5.345 7.231 25.853 25.853 0 0 0 .21 19.389 13.62 13.62 0 0 0 5.868 6.183 18.445 18.445 0 0 0 8.909 2.096c4.086.103 8.119-.95 11.633-3.039a31.17 31.17 0 0 0 8.803-8.384 60.144 60.144 0 0 0 6.987-12.472l2.725 6.987a51.695 51.695 0 0 1-8.594 14.777 36.087 36.087 0 0 1-12.471 9.537 39.2 39.2 0 0 1-16.664 3.494 41.35 41.35 0 0 1-16.978-3.494 27.941 27.941 0 0 1-11.947-9.746 26.137 26.137 0 0 1-4.402-15.197 25.337 25.337 0 0 1 4.506-14.987 34.655 34.655 0 0 1 13.52-10.794 100.84 100.84 0 0 1 22.218-7.336c8.687-2.003 18.83-3.704 30.428-5.101Zm-3.773 64.349v-20.961l-2.096.42v-57.222a35.67 35.67 0 0 0-2.096-13.31 13.523 13.523 0 0 0-6.498-7.337 25.334 25.334 0 0 0-11.319-2.201 29.246 29.246 0 0 0-16.034 4.088 35.357 35.357 0 0 0-10.481 9.956c.09-1.91.371-3.806.839-5.659a12.913 12.913 0 0 1 1.886-4.087 8.664 8.664 0 0 1 3.039-2.725 8.184 8.184 0 0 1 3.878-.944v23.127h-21.17v-20.751a43.187 43.187 0 0 1 8.594-5.345 74.489 74.489 0 0 1 13.973-5.031 76.092 76.092 0 0 1 34.935-.314 36.89 36.89 0 0 1 13.415 6.079 27.492 27.492 0 0 1 8.698 10.794 38.096 38.096 0 0 1 3.037 16.035v60.157c-.02.79.16 1.574.5 2.285.35.711.86 1.329 1.49 1.802a11.118 11.118 0 0 0 5.14 2.096c2.31.372 4.64.617 6.99.734h.62v8.314h-37.34ZM1183.45 739.322l-.21 9.432c-5.07.458-10.11 1.227-15.09 2.306-3.93.844-7.76 2.11-11.42 3.773a29.321 29.321 0 0 0-8.07 5.345 19.64 19.64 0 0 0-4.72 6.987 23.933 23.933 0 0 0-1.57 8.698c-.11 3.339.5 6.662 1.78 9.747a12.642 12.642 0 0 0 5.24 5.869 15.909 15.909 0 0 0 8.07 1.991c3.56.06 7.06-.923 10.06-2.83a29.88 29.88 0 0 0 7.97-7.755 48.383 48.383 0 0 0 6.08-11.843l2.51 7.756a45.426 45.426 0 0 1-8.17 14.567 35.006 35.006 0 0 1-12.48 9.432 40.248 40.248 0 0 1-16.66 3.249 44.598 44.598 0 0 1-17.82-3.493 27.311 27.311 0 0 1-12.05-9.642 26.863 26.863 0 0 1-4.29-15.511 25.228 25.228 0 0 1 4.5-15.091 36.119 36.119 0 0 1 13.42-10.795 94.8 94.8 0 0 1 22.21-7.441c8.88-1.77 19.11-3.354 30.71-4.751Zm-3.14 64.768v-20.541l-2.31.419V724.23c.14-3.973-.53-7.932-1.99-11.632a12.275 12.275 0 0 0-5.87-6.394 22.762 22.762 0 0 0-9.95-1.886 27.269 27.269 0 0 0-14.57 3.493 29.122 29.122 0 0 0-9.12 8.594c-.02-1.617.12-3.231.42-4.821a9.189 9.189 0 0 1 1.57-3.493 12.599 12.599 0 0 1 2.73-2.725 7.281 7.281 0 0 1 3.49-1.363v24.454h-24.94v-21.589a47.429 47.429 0 0 1 8.8-5.555 67.969 67.969 0 0 1 14.78-5.24 84.655 84.655 0 0 1 20.22-2.201c6.13-.061 12.25.572 18.24 1.887a38.923 38.923 0 0 1 14.36 6.393 30.448 30.448 0 0 1 9.53 11.319 36.468 36.468 0 0 1 3.5 16.244v58.689c-.05.714.06 1.429.31 2.097.26.669.65 1.276 1.16 1.781a8.697 8.697 0 0 0 4.19 1.991 27 27 0 0 0 6.08.629l1.04.21v8.978h-41.67ZM1385.01 738.902l-.42 9.852a92.4 92.4 0 0 0-12.79 2.41 46.679 46.679 0 0 0-9.96 3.773 29.43 29.43 0 0 0-6.98 5.031 16.625 16.625 0 0 0-4.09 6.707 26.737 26.737 0 0 0-1.26 8.28c-.1 3.183.43 6.354 1.57 9.327.9 2.271 2.52 4.186 4.62 5.45a13.161 13.161 0 0 0 6.98 1.781c3.12.067 6.19-.81 8.81-2.515a24.694 24.694 0 0 0 6.98-6.987 63.349 63.349 0 0 0 5.56-10.69l2.3 7.965a43.204 43.204 0 0 1-7.65 14.358 33.922 33.922 0 0 1-12.26 9.328 41.524 41.524 0 0 1-17.47 3.493c-6.32.109-12.6-1.08-18.44-3.493a27.042 27.042 0 0 1-12.05-9.747c-3-4.721-4.5-10.238-4.3-15.825a25.432 25.432 0 0 1 4.61-15.092 35.092 35.092 0 0 1 13.63-10.899 100.83 100.83 0 0 1 22.21-7.337c8.67-2.049 18.8-3.772 30.4-5.17Zm-2.73 65.188v-20.123l-2.3.42v-62.253a24.78 24.78 0 0 0-1.68-9.747c-1-2.453-2.82-4.487-5.14-5.764a18.484 18.484 0 0 0-8.91-1.886c-4.48-.142-8.91.984-12.78 3.249a22.02 22.02 0 0 0-7.76 7.65c-.4-1.393-.54-2.851-.42-4.297.11-1.239.5-2.437 1.16-3.493a8.595 8.595 0 0 1 2.51-2.515 13.66 13.66 0 0 1 3.5-1.677v25.991h-28.72v-22.428a39.118 39.118 0 0 1 9.12-5.764 85.134 85.134 0 0 1 37.62-8.07c6.63-.056 13.25.683 19.7 2.201a46.251 46.251 0 0 1 15.52 6.707 29.975 29.975 0 0 1 9.95 11.529 37.432 37.432 0 0 1 3.5 16.663v57.642c-.05.638.03 1.279.25 1.881a4.64 4.64 0 0 0 1 1.612 7.007 7.007 0 0 0 3.5 1.781c1.72.41 3.47.725 5.24.944l1.25.21v9.537h-46.11ZM1586.92 738.485l-.21 10.48a75.07 75.07 0 0 0-10.8 2.306 38.388 38.388 0 0 0-8.49 3.493 22.653 22.653 0 0 0-5.87 4.821 18.218 18.218 0 0 0-3.49 6.393 26.891 26.891 0 0 0-1.15 8.07c-.08 2.992.38 5.975 1.36 8.803a9.778 9.778 0 0 0 3.98 5.135 11.397 11.397 0 0 0 5.98 1.572c2.64.05 5.23-.8 7.33-2.41a25.252 25.252 0 0 0 5.77-6.498 60.231 60.231 0 0 0 4.92-9.746l2.1 8.803c-1.51 5.092-4 9.839-7.34 13.974a32.431 32.431 0 0 1-12.16 9.117 42.707 42.707 0 0 1-17.46 3.249 50.203 50.203 0 0 1-19.18-3.249 25.371 25.371 0 0 1-12.05-9.746 29.188 29.188 0 0 1-4.2-16.14 25.787 25.787 0 0 1 4.51-15.196 35.533 35.533 0 0 1 13.52-10.9 97.16 97.16 0 0 1 22.22-7.441c8.82-1.863 19.06-3.493 30.71-4.89Zm-2.1 65.606v-19.912l-2.52.628v-64.768c.11-2.799-.39-5.587-1.46-8.174a9.907 9.907 0 0 0-4.51-4.716 17.078 17.078 0 0 0-7.86-1.572c-3.8-.097-7.56.807-10.9 2.62a17.02 17.02 0 0 0-6.71 6.393 7.713 7.713 0 0 1-.84-3.494 5.894 5.894 0 0 1 .84-3.144c.6-.951 1.34-1.8 2.2-2.515a9.526 9.526 0 0 1 3.5-1.782v27.074h-32.28v-23.475a61.149 61.149 0 0 1 9.22-5.555 79.826 79.826 0 0 1 16.46-5.869 107.681 107.681 0 0 1 45.41-.419 48.092 48.092 0 0 1 16.45 6.987 32.357 32.357 0 0 1 10.69 11.947 36.936 36.936 0 0 1 3.78 17.467v55.895a5.49 5.49 0 0 0 .73 3.144c.61.777 1.45 1.33 2.41 1.572 1.38.408 2.78.723 4.19.943l1.47.42v10.48l-50.27-.175ZM1788.38 738.066l-.2 11.109a56.727 56.727 0 0 0-9.02 2.201 28.981 28.981 0 0 0-6.98 3.493 19.112 19.112 0 0 0-4.83 4.611 17.24 17.24 0 0 0-2.72 6.079 31.073 31.073 0 0 0-.84 7.441c-.08 2.866.27 5.729 1.05 8.489a9.135 9.135 0 0 0 3.25 4.821 8.592 8.592 0 0 0 5.13 1.572 8.769 8.769 0 0 0 5.77-2.201c1.93-1.69 3.59-3.67 4.92-5.869a39.307 39.307 0 0 0 3.99-8.908l2.09 9.222A39.995 39.995 0 0 1 1783 794.1a30.512 30.512 0 0 1-12.05 9.118 44.596 44.596 0 0 1-17.92 3.249c-6.71.19-13.4-.913-19.7-3.249a24.765 24.765 0 0 1-12.05-9.747 30.503 30.503 0 0 1-4.09-16.559 26.133 26.133 0 0 1 4.51-15.301 34.336 34.336 0 0 1 13.41-10.899 98.488 98.488 0 0 1 22.22-7.336c8.96-2.143 19.32-3.913 31.05-5.31Zm-1.67 66.025v-19.283l-2.73.419v-67.493c.08-2.165-.35-4.318-1.25-6.288a8.226 8.226 0 0 0-3.78-3.773 15.66 15.66 0 0 0-6.98-1.258c-3.1-.027-6.15.692-8.91 2.096a12.91 12.91 0 0 0-5.77 5.241 8.294 8.294 0 0 1-1.04-2.935c-.15-.93-.01-1.883.41-2.725a9.7 9.7 0 0 1 5.24-4.611v28.297h-36.26v-24.454a60.835 60.835 0 0 1 9.64-5.659 88.187 88.187 0 0 1 17.47-6.079c15.97-3.487 32.5-3.63 48.53-.42a50.375 50.375 0 0 1 17.46 7.232 33.618 33.618 0 0 1 11.11 12.367 37.849 37.849 0 0 1 3.88 17.711v54.707c-.05.904.13 1.804.52 2.62.39.659.98 1.174 1.68 1.467.98.416 2 .732 3.04.944l1.89.419v11.458h-54.15Z" fill="#3C4043"/><circle cx="1082" cy="327" r="109" fill="#1A73E8"/><path d="m1094.92 309.29-.21 10.48a75.07 75.07 0 0 0-10.8 2.306 38.436 38.436 0 0 0-8.49 3.493 22.693 22.693 0 0 0-5.87 4.821 18.227 18.227 0 0 0-3.49 6.393 26.891 26.891 0 0 0-1.15 8.07c-.08 2.992.38 5.975 1.36 8.803a9.78 9.78 0 0 0 3.98 5.136 11.406 11.406 0 0 0 5.98 1.571c2.64.05 5.23-.8 7.33-2.41a25.252 25.252 0 0 0 5.77-6.498 60.19 60.19 0 0 0 4.92-9.746l2.1 8.803c-1.51 5.092-4 9.839-7.34 13.974a32.444 32.444 0 0 1-12.16 9.118 42.707 42.707 0 0 1-17.46 3.249 50.222 50.222 0 0 1-19.18-3.249 25.373 25.373 0 0 1-12.05-9.747 29.188 29.188 0 0 1-4.2-16.14 25.789 25.789 0 0 1 4.51-15.196 35.521 35.521 0 0 1 13.52-10.899 97.063 97.063 0 0 1 22.22-7.441c8.82-1.864 19.06-3.494 30.71-4.891Zm-2.1 65.606v-19.912l-2.52.628v-64.768c.11-2.798-.39-5.587-1.46-8.174a9.911 9.911 0 0 0-4.51-4.716 17.078 17.078 0 0 0-7.86-1.572c-3.8-.097-7.56.807-10.9 2.62a17.02 17.02 0 0 0-6.71 6.393 7.713 7.713 0 0 1-.84-3.494 5.894 5.894 0 0 1 .84-3.144c.6-.95 1.34-1.8 2.2-2.515a9.526 9.526 0 0 1 3.5-1.782v27.074h-32.28v-23.475a61.149 61.149 0 0 1 9.22-5.555 79.826 79.826 0 0 1 16.46-5.869 107.681 107.681 0 0 1 45.41-.419 48.092 48.092 0 0 1 16.45 6.987 32.357 32.357 0 0 1 10.69 11.947 36.94 36.94 0 0 1 3.78 17.468v55.894a5.49 5.49 0 0 0 .73 3.144 4.431 4.431 0 0 0 2.41 1.572c1.38.408 2.78.723 4.19.944l1.47.419v10.48l-50.27-.175Z" fill="#fff"/><circle cx="839" cy="327" r="109" fill="#1A73E8"/><path d="m867.468 310.757-.21 5.45c-8.244.978-15.545 2.061-21.904 3.249a101.543 101.543 0 0 0-16.349 4.296 42.87 42.87 0 0 0-11.423 6.079 22.218 22.218 0 0 0-6.987 8.384 25.422 25.422 0 0 0-2.201 10.69 27.117 27.117 0 0 0 2.515 12.052 17.015 17.015 0 0 0 7.441 7.756 24.907 24.907 0 0 0 11.843 2.62 28.896 28.896 0 0 0 15.092-3.878 40.083 40.083 0 0 0 11.318-10.166 55.87 55.87 0 0 0 7.756-13.974l1.886 5.45a56.891 56.891 0 0 1-9.013 14.777 38.214 38.214 0 0 1-12.681 9.852 37.176 37.176 0 0 1-16.244 3.493 37.688 37.688 0 0 1-16.454-3.493 28.123 28.123 0 0 1-11.424-9.642 25.321 25.321 0 0 1-4.192-14.567 26.137 26.137 0 0 1 4.402-15.197 33.79 33.79 0 0 1 13.414-10.795 104.44 104.44 0 0 1 22.219-7.441 292.498 292.498 0 0 1 31.196-4.995Zm-4.402 64.139v-22.847l-.629.838v-55.545a36.604 36.604 0 0 0-2.934-16.139 16.94 16.94 0 0 0-8.384-8.279 33.75 33.75 0 0 0-13.625-2.411 39.093 39.093 0 0 0-18.55 3.877 30.783 30.783 0 0 0-11.214 9.747 7.607 7.607 0 0 1 .42-3.493 11.627 11.627 0 0 1 1.677-3.039 9.717 9.717 0 0 1 2.305-2.201 4.825 4.825 0 0 1 2.725-.839v18.865H802.7v-16.35a30.957 30.957 0 0 1 7.86-5.449 66.831 66.831 0 0 1 11.843-4.507 56.875 56.875 0 0 1 15.72-1.991c4.704-.038 9.396.49 13.974 1.572a33.27 33.27 0 0 1 11.633 5.24 24.675 24.675 0 0 1 7.965 9.537 34.246 34.246 0 0 1 2.864 14.882v67.074a4.54 4.54 0 0 0 2.097 3.982 13.967 13.967 0 0 0 5.764 2.096c2.865.453 5.763.664 8.663.629h.42v4.751h-28.437Z" fill="#fff"/><path d="M959.07 461.967a4.999 4.999 0 0 0 4.397-5.537 4.999 4.999 0 0 0-5.537-4.397l1.14 9.934ZM135.464 634.291a5 5 0 0 0 7.071 0l31.82-31.819a5 5 0 0 0 0-7.071 5 5 0 0 0-7.071 0L139 623.685l-28.284-28.284a5 5 0 0 0-7.071 0 5 5 0 0 0 0 7.071l31.819 31.819ZM139 551l-.57-4.967A5 5 0 0 0 134 551h5Zm818.93-98.967-819.5 94 1.14 9.934 819.5-94-1.14-9.934ZM134 551v79.756h10V551h-10Z" fill="#D2E3FC"/><path d="M959.255 461.943a5 5 0 1 0-1.51-9.886l1.51 9.886Zm-619.79 172.348a5 5 0 0 0 7.071 0l31.819-31.819a5 5 0 0 0 0-7.071 5 5 0 0 0-7.071 0L343 623.685l-28.284-28.284a5 5 0 0 0-7.071 0 5 5 0 0 0 0 7.071l31.82 31.819ZM343 551l-.755-4.943A5 5 0 0 0 338 551h5Zm614.745-98.943-615.5 94 1.51 9.886 615.5-94-1.51-9.886ZM338 551v79.756h10V551h-10Z" fill="#D2E3FC"/><path d="M959.618 461.873a5 5 0 0 0-2.235-9.747l2.235 9.747ZM544.884 634.291a5 5 0 0 0 7.071 0l31.82-31.82a5.001 5.001 0 0 0-7.072-7.071l-28.284 28.285-28.284-28.285a5.001 5.001 0 0 0-7.071 7.071l31.82 31.82ZM548.419 551l-1.117-4.874a5 5 0 0 0-3.883 4.874h5Zm408.964-98.874-410.081 94 2.234 9.747 410.082-94-2.235-9.747ZM543.419 551v79.756h10V551h-10Z" fill="#D2E3FC"/><path d="M960.081 461.548a5.001 5.001 0 0 0-4.158-9.095l4.158 9.095ZM748.886 634.291a5 5 0 0 0 7.071 0l31.82-31.819a5.001 5.001 0 0 0-7.071-7.071l-28.285 28.284-28.284-28.285a5.001 5.001 0 0 0-7.071 7.072l31.82 31.819ZM752.421 551l-2.079-4.547a5 5 0 0 0-2.921 4.547h5Zm203.502-98.547-205.581 94 4.158 9.094 205.581-93.999-4.158-9.095ZM747.421 551v79.756h10V551h-10Z" fill="#D2E3FC"/><path d="M961.502 461.967a5 5 0 0 1 1.14-9.934l-1.14 9.934Zm823.608 172.324a4.998 4.998 0 0 1-7.07 0l-31.82-31.819a4.987 4.987 0 0 1 0-7.071 4.998 4.998 0 0 1 7.07 0l28.28 28.284 28.29-28.284a4.998 4.998 0 0 1 7.07 0 5.005 5.005 0 0 1 0 7.071l-31.82 31.819ZM1781.57 551l.57-4.967a4.994 4.994 0 0 1 4.43 4.967h-5Zm-818.928-98.967 819.498 94-1.14 9.934-819.498-94 1.14-9.934ZM1786.57 551v79.756h-10V551h10Z" fill="#D2E3FC"/><path d="M961.317 461.943a5 5 0 0 1 1.51-9.886l-1.51 9.886Zm619.793 172.348a4.998 4.998 0 0 1-7.07 0l-31.82-31.819a4.987 4.987 0 0 1 0-7.071 4.998 4.998 0 0 1 7.07 0l28.28 28.284 28.29-28.284a4.998 4.998 0 0 1 7.07 0 5.005 5.005 0 0 1 0 7.071l-31.82 31.819ZM1577.57 551l.76-4.943a4.997 4.997 0 0 1 4.24 4.943h-5Zm-614.743-98.943 615.503 94-1.51 9.886-615.503-94 1.51-9.886ZM1582.57 551v79.756h-10V551h10Z" fill="#D2E3FC"/><path d="M960.955 461.873a5 5 0 1 1 2.234-9.747l-2.234 9.747Zm414.735 172.418a4.998 4.998 0 0 1-7.07 0l-31.82-31.82a5 5 0 0 1 7.07-7.071l28.28 28.285 28.29-28.285a5 5 0 0 1 7.07 7.071l-31.82 31.82ZM1372.15 551l1.12-4.874a5 5 0 0 1 3.88 4.874h-5Zm-408.961-98.874 410.081 94-2.23 9.747-410.085-94 2.234-9.747ZM1377.15 551v79.756h-10V551h10Z" fill="#D2E3FC"/><path d="M960.491 461.548a5.001 5.001 0 0 1 4.159-9.095l-4.159 9.095Zm211.199 172.743a4.998 4.998 0 0 1-7.07 0l-31.82-31.819a4.987 4.987 0 0 1 0-7.071 4.998 4.998 0 0 1 7.07 0l28.28 28.284 28.29-28.285a5 5 0 1 1 7.07 7.072l-31.82 31.819ZM1168.15 551l2.08-4.547a4.997 4.997 0 0 1 2.92 4.547h-5Zm-203.5-98.547 205.58 94-4.16 9.094-205.579-93.999 4.159-9.095ZM1173.15 551v79.756h-10V551h10Z" fill="#D2E3FC"/><path d="M956.365 634.291a5 5 0 0 0 7.071 0l31.82-31.82a5 5 0 1 0-7.071-7.071l-28.284 28.284-28.284-28.284a5 5 0 0 0-7.071 0 5 5 0 0 0 0 7.071l31.819 31.82Zm8.537-177.791a5 5 0 1 0-10 0h10Zm-10 0-.001 174.255 10 .001.001-174.256h-10Z" fill="#D2E3FC"/></svg>