<svg width="1920" height="1080" fill="none" xmlns="http://www.w3.org/2000/svg"><rect x="1459" y="813" width="218" height="50" rx="25" fill="#D2E3FC"/><rect x="1458" y="813" width="218" height="50" rx="25" fill="#1A73E8"/><rect x="851" y="813" width="218" height="50" rx="25" fill="#D2E3FC"/><rect x="851" y="813" width="122" height="50" rx="25" fill="#1A73E8"/><rect x="244" y="813" width="218" height="50" rx="25" fill="#D2E3FC"/><rect x="244" y="813" width="50" height="50" rx="25" fill="#1A73E8"/><path fill="#FF6D7F" d="M1320 471h550v23h-550z"/><path fill="#FF6D7F" d="M50 486h1820v10H50zM50 496h550v28H50z"/><path d="M165.211 431.076h33.88v99.68h117.04v-99.68h33.88v234.92h-33.88v-106.96h-117.04v106.96h-33.88v-234.92ZM400.695 414h32.76v133c5.88-7.28 12.88-13.16 21.56-17.64 8.68-4.48 18.2-6.44 29.12-6.44 18.2 0 32.48 5.04 42.56 14.84 10.08 9.8 15.4 26.88 15.4 50.68V666h-32.76v-77.84c0-13.44-2.8-23.24-8.68-28.84-5.88-5.6-14-8.4-24.64-8.4-9.52 0-17.92 2.52-25.48 7.84-7.56 5.32-13.16 11.76-17.08 19.6V666h-32.76V414ZM770.037 431.076h32.2v100.52h119.56v-100.52h32.2v234.92h-32.2v-107.8h-119.56v107.8h-32.2v-234.92ZM1005.79 414h31.08v100.52c6.16-7.28 13.72-13.16 23.24-17.64 9.52-4.48 19.6-6.72 30.52-6.72 16.52 0 29.68 5.04 40.04 14.84s15.4 26.6 15.4 49.84V666h-31.08V554.56c0-13.72-3.08-23.52-9.24-29.4-6.16-5.88-14.84-8.68-26.04-8.68-9.52 0-18.2 2.52-25.48 7.84-7.28 5.32-13.16 12.04-17.36 20.16V666h-31.08V414ZM1379 431.076h31.36v100.8h120.4v-100.8h31.36v234.92h-31.36v-108.08h-120.4v108.08H1379v-234.92ZM1614.48 414H1645v81.76c6.16-7.56 13.72-13.44 22.4-17.92 8.68-4.48 18.76-6.72 29.68-6.72 17.36 0 31.36 5.04 41.72 14.84s15.4 26.32 15.4 49.56V666h-30.52V535.24c0-13.72-3.08-23.52-9.24-29.68s-14.84-8.96-26.32-8.96c-9.8 0-18.2 2.52-25.76 7.84-7.56 5.32-13.16 12.04-17.36 20.44V666h-30.52V414Z" fill="#3C4043"/></svg>