<svg width="1920" height="1080" fill="none" xmlns="http://www.w3.org/2000/svg"><path d="M244.322 487h33.071v-65.897h14.833c11.509 0 20.993-4.54 28.45-13.618 7.538-9.078 11.307-23.384 11.307-42.918 0-20.507-3.485-34.732-10.456-42.675-6.971-7.944-16.333-11.915-28.086-11.915h-49.119V487Zm33.071-90.457v-59.818h9.24c4.458 0 7.619 1.823 9.483 5.471 1.864 3.647 2.797 11.793 2.797 24.438 0 10.861-.933 18.561-2.797 23.1-1.864 4.539-5.066 6.809-9.605 6.809h-9.118ZM302.56 487h35.137l-26.018-86.688-28.694 7.417L302.56 487Zm66.238 0h33.8v-65.897h17.751c12.401 0 22.573-4.661 30.517-13.982 8.024-9.403 12.036-23.587 12.036-42.554 0-19.696-3.728-33.719-11.185-42.067-7.457-8.349-17.589-12.523-30.396-12.523h-52.523V487Zm33.8-90.457v-59.818h11.55c5.431 0 9.24 2.026 11.429 6.079 2.188 3.971 3.282 11.915 3.282 23.83 0 10.456-1.094 18.075-3.282 22.857-2.189 4.701-5.998 7.052-11.429 7.052h-11.55ZM432.629 487h36.231l-29.18-86.81-29.544 7.782L432.629 487Zm68.304 0h34.773v-65.897h20.426c13.293 0 24.194-4.823 32.705-14.469 8.511-9.645 12.766-23.668 12.766-42.067 0-18.805-4.012-32.584-12.036-41.338-7.944-8.835-18.805-13.252-32.584-13.252h-56.05V487Zm34.773-90.579v-59.696h13.86c6.241 0 10.659 2.229 13.253 6.687 2.593 4.377 3.89 12.117 3.89 23.222 0 9.97-1.297 17.427-3.89 22.371-2.513 4.944-6.931 7.416-13.253 7.416h-13.86ZM570.478 487h37.326l-32.219-86.81-30.517 8.025L570.478 487Zm67.332 0h33.071v-65.897h14.833c11.509 0 20.993-4.54 28.45-13.618 7.538-9.078 11.307-23.384 11.307-42.918 0-20.507-3.485-34.732-10.456-42.675-6.971-7.944-16.333-11.915-28.085-11.915h-49.12V487Zm33.071-90.457v-59.818h9.24c4.458 0 7.619 1.823 9.483 5.471 1.865 3.647 2.797 11.793 2.797 24.438 0 10.861-.932 18.561-2.797 23.1-1.864 4.539-5.066 6.809-9.605 6.809h-9.118ZM696.048 487h35.137l-26.018-86.688-28.694 7.417L696.048 487Zm68.183 0h35.624v-65.897h23.222c14.266 0 25.856-4.945 34.772-14.833 8.998-9.97 13.496-23.871 13.496-41.703 0-17.994-4.255-31.571-12.766-40.73-8.43-9.24-20.021-13.86-34.772-13.86h-59.576V487Zm35.624-90.579v-59.575h16.292c7.133 0 12.158 2.391 15.076 7.174 2.918 4.782 4.377 12.32 4.377 22.614 0 9.564-1.459 16.94-4.377 22.128-2.837 5.106-7.862 7.659-15.076 7.659h-16.292ZM839.491 487h38.42l-35.381-86.931-31.246 8.511L839.491 487Zm72.56 0h36.353v-65.897h26.14c15.076 0 27.356-5.107 36.836-15.32 9.49-10.294 14.23-24.033 14.23-41.216 0-17.103-4.5-30.477-13.5-40.122-8.91-9.646-21.274-14.468-37.08-14.468h-62.979V487Zm36.353-90.579v-59.575h18.602c8.105 0 13.779 2.594 17.021 7.781 3.324 5.107 4.985 12.442 4.985 22.007 0 9.159-1.661 16.413-4.985 21.763-3.242 5.35-8.916 8.024-17.021 8.024h-18.602ZM992.903 487h39.517l-38.423-87.053-32.219 8.876L992.903 487Zm74.627 0h37.2v-65.776h28.94c16.05 0 29.06-5.268 39.03-15.806 9.97-10.618 14.95-24.235 14.95-40.851 0-16.292-4.74-29.463-14.22-39.514-9.49-10.051-22.58-15.076-39.27-15.076h-66.63V487Zm37.2-90.579v-59.575h21.04c8.99.081 15.28 2.878 18.84 8.389 3.65 5.512 5.47 12.645 5.47 21.399 0 8.754-1.82 15.927-5.47 21.52-3.56 5.512-9.85 8.267-18.84 8.267h-21.04ZM1154.1 487h40.6l-41.58-87.174-33.07 9.24L1154.1 487Zm78.15 0h37.2v-65.776h37.94c16.45 0 29.66-5.228 39.63-15.684 10.05-10.537 15.08-24.195 15.08-40.973 0-16.454-4.78-29.666-14.35-39.636-9.48-9.97-22.77-14.954-39.88-14.954h-75.62V487Zm37.2-90.457v-59.697h30.03c9.08 0 15.53 2.756 19.34 8.268 3.81 5.511 5.71 12.685 5.71 21.52 0 8.754-1.9 15.927-5.71 21.52s-10.26 8.389-19.34 8.389h-30.03ZM1329.88 487h40.73l-44.26-86.323-33.43 8.632L1329.88 487Zm80.83 0h37.2v-65.776h47.05c16.94 0 30.44-5.187 40.49-15.562 10.05-10.456 15.08-24.155 15.08-41.095 0-16.616-4.83-29.869-14.47-39.757-9.65-9.889-23.18-14.833-40.61-14.833h-84.74V487Zm37.2-90.457v-59.818h39.15c9.16.081 15.73 2.877 19.7 8.389 4.05 5.43 6.08 12.604 6.08 21.52 0 8.835-1.99 16.049-5.96 21.641-3.97 5.512-10.58 8.268-19.82 8.268h-39.15ZM1519.4 487h40.85l-46.93-85.472-33.55 7.903L1519.4 487ZM231.37 763v-3.984l11.827-4.358.249-85.905-.249-83.913-11.827-4.233v-4.357h68.475c13.114.083 23.489 4.025 31.125 11.827 7.719 7.802 11.578 19.256 11.578 34.362 0 14.276-3.901 25.73-11.703 34.362-7.719 8.632-19.131 12.948-34.237 12.948-3.901 0-9.172-.083-15.812-.249-6.557-.166-11.537-.332-14.94-.498l.125-5.478 21.165.125c7.221.083 12.45-2.739 15.687-8.466 3.32-5.81 4.979-17.14 4.979-33.989 0-15.77-1.659-26.311-4.979-31.623-3.237-5.395-7.968-8.092-14.193-8.092h-7.346l-2.614 2.614-.374 79.431.249 91.134 11.703 4.234V763H231.37Zm57.519-95.367 31.374-6.723 22.659 70.591c4.482 12.533 7.511 20.003 9.088 22.41 1.66 2.324 3.984 3.901 6.972 4.731V763h-39.715l-3.362-4.856-27.016-90.511ZM382.614 763v-4.108l13.197-4.358.249-86.777-.249-82.792-13.197-4.233v-4.482h72.21c14.276 0 25.398 3.942 33.366 11.827 7.968 7.802 11.952 19.256 11.952 34.362 0 14.11-4.026 25.564-12.077 34.362-7.968 8.798-19.505 13.197-34.611 13.197-4.316 0-10.416-.083-18.301-.249-7.885-.166-13.571-.332-17.057-.498l.125-5.478 23.655.249c8.051 0 13.902-3.029 17.554-9.088 3.652-6.142 5.478-17.347 5.478-33.615 0-15.521-1.826-26.021-5.478-31.499-3.652-5.561-9.047-8.341-16.185-8.341h-8.715l-2.863 2.614-.374 79.556.249 90.885 13.322 4.233V763h-62.25Zm60.88-94.994 31.748-6.349 24.277 68.475c5.146 12.948 8.632 20.75 10.458 23.406 1.826 2.573 4.607 4.233 8.342 4.98V763h-41.085l-3.735-4.731-30.005-90.263ZM541.882 763v-4.233l14.691-4.358.249-87.648-.249-81.672-14.691-4.233v-4.606h75.945c15.521 0 27.349 3.942 35.483 11.827 8.217 7.802 12.325 19.215 12.325 34.238 0 14.11-4.108 25.647-12.325 34.611-8.134 8.964-19.796 13.446-34.985 13.446-4.731 0-11.703-.083-20.916-.249-9.13-.249-15.479-.498-19.048-.747l.124-5.229 26.145.124c8.964.083 15.438-3.112 19.422-9.586 4.067-6.474 6.101-17.513 6.101-33.117 0-15.355-2.075-25.855-6.225-31.499-4.067-5.727-10.043-8.59-17.928-8.59h-10.334l-2.988 2.614-.498 79.805.374 90.511 14.815 4.233V763h-65.487Zm64.242-94.496 32.246-6.225 25.896 66.359c5.727 13.446 9.586 21.58 11.578 24.402 2.075 2.822 5.395 4.648 9.96 5.478V763h-42.703l-3.86-4.607-33.117-89.889ZM709.537 763v-4.358l16.185-4.357.249-88.52-.249-80.427-16.185-4.233v-4.855h79.805c16.683 0 29.257 3.901 37.723 11.703 8.466 7.802 12.699 19.256 12.699 34.362 0 13.944-4.233 25.481-12.699 34.611-8.383 9.13-20.169 13.695-35.358 13.695-5.063 0-12.823-.083-23.281-.249-10.458-.166-17.555-.415-21.29-.747l.249-5.229 28.635.249c9.711.083 16.766-3.279 21.165-10.085 4.399-6.889 6.599-17.845 6.599-32.868 0-15.106-2.283-25.564-6.848-31.374-4.482-5.893-11.039-8.839-19.671-8.839h-11.827l-3.362 2.614-.373 79.929.249 90.263 16.558 4.357V763h-68.973Zm67.728-93.998 32.619-5.976 27.515 64.242c6.308 13.944 10.582 22.452 12.823 25.523 2.324 2.988 6.142 4.897 11.454 5.727V763h-44.073l-4.233-4.482-36.105-89.516ZM885.341 763v-4.482l17.679-4.358.249-89.391-.249-79.306-17.679-4.233v-4.98h83.539c17.845 0 31.13 3.901 39.84 11.703 8.72 7.802 13.07 19.256 13.07 34.362 0 13.778-4.31 25.315-12.95 34.611-8.54 9.296-20.455 13.944-35.727 13.944-5.478 0-14.11-.083-25.896-.249-11.703-.166-19.463-.415-23.281-.747l.249-5.105 31.125.125c10.541.083 18.177-3.486 22.908-10.707 4.814-7.221 7.221-17.97 7.221-32.246 0-15.023-2.449-25.522-7.346-31.498-4.897-5.976-12.076-8.964-21.538-8.964h-13.322l-3.61 2.614-.498 80.178.373 89.889 18.053 4.358V763h-72.21Zm70.965-93.5 33.117-5.727 29.137 62.001c6.97 14.442 11.7 23.282 14.19 26.519 2.49 3.237 6.76 5.27 12.82 6.1V763h-45.56l-4.362-4.358-39.342-89.142ZM1069.66 763v-4.607l19.04-4.482.25-90.138-.25-78.186-19.04-4.233v-5.104h87.39c18.93 0 32.87 3.901 41.84 11.703 9.04 7.719 13.57 19.131 13.57 34.237 0 13.695-4.44 25.315-13.32 34.86-8.8 9.462-20.84 14.193-36.11 14.193-5.89 0-15.35-.083-28.39-.249-13.03-.249-21.49-.581-25.39-.996l.25-4.98 33.61.249c11.45.083 19.71-3.652 24.78-11.205 5.14-7.636 7.71-18.26 7.71-31.872 0-14.857-2.65-25.356-7.96-31.498-5.32-6.142-13.08-9.213-23.28-9.213h-14.94l-3.74 2.614-.5 80.427.25 89.391 19.8 4.482V763h-75.57Zm74.32-93.002 33.62-5.478 30.75 59.885c7.47 14.857 12.53 24.028 15.19 27.514 2.74 3.403 7.55 5.561 14.44 6.474V763h-46.94l-4.73-4.233-42.33-88.769ZM1263.73 763v-4.607l21.04-4.482.25-90.138-.25-78.186-21.04-4.233v-5.104h102.34c19.51 0 34.03 4.108 43.58 12.325 9.54 8.217 14.31 19.92 14.31 35.109 0 13.695-4.52 25.357-13.57 34.985-8.96 9.628-22.03 14.442-39.22 14.442-7.13 0-18.92-.083-35.35-.249-16.44-.249-26.6-.581-30.51-.996l.25-5.354 47.94.374c11.86 0 20.41-3.86 25.64-11.579 5.31-7.802 7.97-18.509 7.97-32.121 0-14.608-2.82-25.107-8.47-31.498-5.56-6.474-13.77-9.711-24.65-9.711h-28.63l-3.61 2.739-.5 81.298.25 87.897 21.79 4.482V763h-79.56Zm88.27-91.632 34.36-5.354 30.88 58.391c7.64 14.691 12.78 23.821 15.44 27.39 2.74 3.569 8.34 5.768 16.81 6.598V763h-49.56l-4.48-4.233-43.45-87.399ZM1477.99 763v-4.607l23.03-4.482.25-90.138-.25-78.186-23.03-4.233v-5.104h117.28c20 0 35.07 4.357 45.19 13.072 10.13 8.632 15.19 20.584 15.19 35.857 0 13.694-4.6 25.439-13.82 35.233-9.13 9.711-23.24 14.566-42.33 14.566-8.38 0-22.49-.083-42.33-.249-19.84-.249-31.7-.581-35.61-.996l.25-5.602 62.38.249c12.28.083 21.12-3.86 26.52-11.828 5.39-7.968 8.09-18.758 8.09-32.37 0-14.276-2.95-24.817-8.84-31.623-5.89-6.806-14.61-10.126-26.15-9.96h-42.32l-3.49 2.739-.62 82.17.25 86.403 23.9 4.482V763h-83.54Zm102.21-90.138 35.11-5.354 31 56.897c7.89 14.608 13.12 23.738 15.69 27.39 2.66 3.569 9.09 5.768 19.3 6.598V763h-52.29l-4.23-4.233-44.58-85.905Z" fill="#3C4043"/></svg>