<svg width="1920" height="1080" fill="none" xmlns="http://www.w3.org/2000/svg"><path fill="#D2E3FC" d="M51.268 712h1818.73v10H51.268zM50 380h1818.73v10H50zM50 246h1818.73v10H50zM50 218h1818.73v10H50zM50 853h1818.73v10H50z"/><path stroke="#1A73E8" stroke-width="10" d="M978 195h694v694H978z"/><path fill="#D2E3FC" stroke="#D2E3FC" stroke-width="10" d="M248 195h694v694H248z"/><path d="M686.765 722V526.242c0-32.895-7.095-57.727-21.285-74.497-13.975-16.77-36.227-25.155-66.757-25.155-20.425 0-38.378 3.977-53.858 11.932-15.265 7.955-27.197 18.813-35.797 32.573-8.6 13.76-12.9 29.347-12.9 46.762l-34.83-10.642c0-24.51 6.342-46.763 19.027-66.758 12.9-20.21 30.423-36.227 52.568-48.052 22.36-12.04 47.622-18.06 75.787-18.06 41.065 0 73.423 12.362 97.073 37.087 23.865 24.725 35.797 58.91 35.797 102.555V722h-54.825Zm-245.422 0V217.932h54.825V722h-54.825Z" fill="#fff"/><mask id="a" style="mask-type:alpha" maskUnits="userSpaceOnUse" x="973" y="159" width="684" height="779"><path fill="#1A73E8" d="M973 159h684v778.783H973z"/></mask><g mask="url(#a)"><path d="M1184.7 561.88v-34.83h255.75v34.83H1184.7Z" fill="#1A73E8"/></g><path d="M243.464 534.464a5.002 5.002 0 0 0 0 7.072l31.82 31.819a5 5 0 0 0 7.071 0 5 5 0 0 0 0-7.071L254.071 538l28.284-28.284a5 5 0 0 0 0-7.071 5 5 0 0 0-7.071 0l-31.82 31.819Zm355.072 7.072a5.002 5.002 0 0 0 0-7.072l-31.82-31.819a5 5 0 0 0-7.071 0 5 5 0 0 0 0 7.071L587.929 538l-28.284 28.284a5 5 0 0 0 0 7.071 5 5 0 0 0 7.071 0l31.82-31.819ZM247 543h348v-10H247v10Z" fill="#FF6D7F"/></svg>