<svg width="1920" height="1080" viewBox="0 0 1920 1080" fill="none" xmlns="http://www.w3.org/2000/svg">
<rect x="1216" y="813" width="218" height="50" rx="25" fill="#D2E3FC"/>
<rect x="1215" y="813" width="180" height="50" rx="25" fill="#1A73E8"/>
<rect x="486" y="813" width="218" height="50" rx="25" fill="#D2E3FC"/>
<rect x="486" y="813" width="50" height="50" rx="25" fill="#1A73E8"/>
<path d="M394.24 659.16C390.386 659.16 387.255 657.956 384.846 655.547C382.437 653.138 381.232 650.247 381.232 646.875C381.232 643.503 382.437 640.612 384.846 638.203C387.255 635.794 390.386 634.59 394.24 634.59H426.76C430.614 634.59 433.745 635.794 436.154 638.203C438.563 640.612 439.768 643.503 439.768 646.875C439.768 650.247 438.563 653.138 436.154 655.547C433.745 657.956 430.614 659.16 426.76 659.16H394.24ZM372.922 612.91C368.345 612.91 364.732 611.706 362.082 609.297C359.432 606.888 358.107 603.997 358.107 600.625C358.107 597.253 359.432 594.362 362.082 591.953C364.732 589.544 368.345 588.34 372.922 588.34H448.078C452.655 588.34 456.268 589.544 458.918 591.953C461.568 594.362 462.893 597.253 462.893 600.625C462.893 603.997 461.568 606.888 458.918 609.297C456.268 611.706 452.655 612.91 448.078 612.91H372.922ZM347.99 566.66C344.136 566.66 341.005 565.456 338.596 563.047C336.187 560.638 334.982 557.747 334.982 554.375C334.982 551.003 336.187 548.112 338.596 545.703C341.005 543.294 344.136 542.09 347.99 542.09H380.51C384.364 542.09 387.495 543.294 389.904 545.703C392.313 548.112 393.518 551.003 393.518 554.375C393.518 557.747 392.313 560.638 389.904 563.047C387.495 565.456 384.364 566.66 380.51 566.66H347.99ZM440.49 566.66C436.636 566.66 433.505 565.456 431.096 563.047C428.687 560.638 427.482 557.747 427.482 554.375C427.482 551.003 428.687 548.112 431.096 545.703C433.505 543.294 436.636 542.09 440.49 542.09H473.01C476.864 542.09 479.995 543.294 482.404 545.703C484.813 548.112 486.018 551.003 486.018 554.375C486.018 557.747 484.813 560.638 482.404 563.047C479.995 565.456 476.864 566.66 473.01 566.66H440.49ZM347.99 520.41C344.136 520.41 341.005 519.206 338.596 516.797C336.187 514.388 334.982 511.497 334.982 508.125C334.982 504.753 336.187 501.862 338.596 499.453C341.005 497.044 344.136 495.84 347.99 495.84H380.51C384.364 495.84 387.495 497.044 389.904 499.453C392.313 501.862 393.518 504.753 393.518 508.125C393.518 511.497 392.313 514.388 389.904 516.797C387.495 519.206 384.364 520.41 380.51 520.41H347.99ZM440.49 520.41C436.636 520.41 433.505 519.206 431.096 516.797C428.687 514.388 427.482 511.497 427.482 508.125C427.482 504.753 428.687 501.862 431.096 499.453C433.505 497.044 436.636 495.84 440.49 495.84H473.01C476.864 495.84 479.995 497.044 482.404 499.453C484.813 501.862 486.018 504.753 486.018 508.125C486.018 511.497 484.813 514.388 482.404 516.797C479.995 519.206 476.864 520.41 473.01 520.41H440.49ZM347.99 474.16C344.136 474.16 341.005 472.956 338.596 470.547C336.187 468.138 334.982 465.247 334.982 461.875C334.982 458.503 336.187 455.612 338.596 453.203C341.005 450.794 344.136 449.59 347.99 449.59H380.51C384.364 449.59 387.495 450.794 389.904 453.203C392.313 455.612 393.518 458.503 393.518 461.875C393.518 465.247 392.313 468.138 389.904 470.547C387.495 472.956 384.364 474.16 380.51 474.16H347.99ZM440.49 474.16C436.636 474.16 433.505 472.956 431.096 470.547C428.687 468.138 427.482 465.247 427.482 461.875C427.482 458.503 428.687 455.612 431.096 453.203C433.505 450.794 436.636 449.59 440.49 449.59H473.01C476.864 449.59 479.995 450.794 482.404 453.203C484.813 455.612 486.018 458.503 486.018 461.875C486.018 465.247 484.813 468.138 482.404 470.547C479.995 472.956 476.864 474.16 473.01 474.16H440.49ZM509.865 659.16C506.011 659.16 502.88 657.956 500.471 655.547C498.062 653.138 496.857 650.247 496.857 646.875C496.857 643.503 498.062 640.612 500.471 638.203C502.88 635.794 506.011 634.59 509.865 634.59H565.51C569.364 634.59 572.495 635.794 574.904 638.203C577.313 640.612 578.518 643.503 578.518 646.875C578.518 650.247 577.313 653.138 574.904 655.547C572.495 657.956 569.364 659.16 565.51 659.16H509.865ZM625.49 659.16C621.636 659.16 618.505 657.956 616.096 655.547C613.687 653.138 612.482 650.247 612.482 646.875C612.482 643.503 613.687 640.612 616.096 638.203C618.505 635.794 621.636 634.59 625.49 634.59H658.01C661.864 634.59 664.995 635.794 667.404 638.203C669.813 640.612 671.018 643.503 671.018 646.875C671.018 650.247 669.813 653.138 667.404 655.547C664.995 657.956 661.864 659.16 658.01 659.16H625.49ZM532.99 612.91C529.136 612.91 526.005 611.706 523.596 609.297C521.187 606.888 519.982 603.997 519.982 600.625C519.982 597.253 521.187 594.362 523.596 591.953C526.005 589.544 529.136 588.34 532.99 588.34H565.51C569.364 588.34 572.495 589.544 574.904 591.953C577.313 594.362 578.518 597.253 578.518 600.625C578.518 603.997 577.313 606.888 574.904 609.297C572.495 611.706 569.364 612.91 565.51 612.91H532.99ZM625.49 612.91C621.636 612.91 618.505 611.706 616.096 609.297C613.687 606.888 612.482 603.997 612.482 600.625C612.482 597.253 613.687 594.362 616.096 591.953C618.505 589.544 621.636 588.34 625.49 588.34H658.01C661.864 588.34 664.995 589.544 667.404 591.953C669.813 594.362 671.018 597.253 671.018 600.625C671.018 603.997 669.813 606.888 667.404 609.297C664.995 611.706 661.864 612.91 658.01 612.91H625.49ZM532.99 566.66C529.136 566.66 526.005 565.456 523.596 563.047C521.187 560.638 519.982 557.747 519.982 554.375C519.982 551.003 521.187 548.112 523.596 545.703C526.005 543.294 529.136 542.09 532.99 542.09H565.51C569.364 542.09 572.495 543.294 574.904 545.703C577.313 548.112 578.518 551.003 578.518 554.375C578.518 557.747 577.313 560.638 574.904 563.047C572.495 565.456 569.364 566.66 565.51 566.66H532.99ZM625.49 566.66C621.636 566.66 618.505 565.456 616.096 563.047C613.687 560.638 612.482 557.747 612.482 554.375C612.482 551.003 613.687 548.112 616.096 545.703C618.505 543.294 621.636 542.09 625.49 542.09H658.01C661.864 542.09 664.995 543.294 667.404 545.703C669.813 548.112 671.018 551.003 671.018 554.375C671.018 557.747 669.813 560.638 667.404 563.047C664.995 565.456 661.864 566.66 658.01 566.66H625.49ZM532.99 520.41C529.136 520.41 526.005 519.206 523.596 516.797C521.187 514.388 519.982 511.497 519.982 508.125C519.982 504.753 521.187 501.862 523.596 499.453C526.005 497.044 529.136 495.84 532.99 495.84H588.635C592.489 495.84 595.62 497.044 598.029 499.453C600.438 501.862 601.643 504.753 601.643 508.125C601.643 511.497 600.438 514.388 598.029 516.797C595.62 519.206 592.489 520.41 588.635 520.41H532.99ZM625.49 520.41C621.636 520.41 618.505 519.206 616.096 516.797C613.687 514.388 612.482 511.497 612.482 508.125C612.482 504.753 613.687 501.862 616.096 499.453C618.505 497.044 621.636 495.84 625.49 495.84H658.01C661.864 495.84 664.995 497.044 667.404 499.453C669.813 501.862 671.018 504.753 671.018 508.125C671.018 511.497 669.813 514.388 667.404 516.797C664.995 519.206 661.864 520.41 658.01 520.41H625.49ZM532.99 474.16C529.136 474.16 526.005 472.956 523.596 470.547C521.187 468.138 519.982 465.247 519.982 461.875C519.982 458.503 521.187 455.612 523.596 453.203C526.005 450.794 529.136 449.59 532.99 449.59H565.51C569.364 449.59 572.495 450.794 574.904 453.203C577.313 455.612 578.518 458.503 578.518 461.875C578.518 465.247 577.313 468.138 574.904 470.547C572.495 472.956 569.364 474.16 565.51 474.16H532.99ZM602.365 474.16C598.511 474.16 595.38 472.956 592.971 470.547C590.562 468.138 589.357 465.247 589.357 461.875C589.357 458.503 590.562 455.612 592.971 453.203C595.38 450.794 598.511 449.59 602.365 449.59H634.885C638.739 449.59 641.87 450.794 644.279 453.203C646.688 455.612 647.893 458.503 647.893 461.875C647.893 465.247 646.688 468.138 644.279 470.547C641.87 472.956 638.739 474.16 634.885 474.16H602.365ZM532.99 427.91C529.136 427.91 526.005 426.706 523.596 424.297C521.187 421.888 519.982 418.997 519.982 415.625C519.982 412.253 521.187 409.362 523.596 406.953C526.005 404.544 529.136 403.34 532.99 403.34H565.51C569.364 403.34 572.495 404.544 574.904 406.953C577.313 409.362 578.518 412.253 578.518 415.625C578.518 418.997 577.313 421.888 574.904 424.297C572.495 426.706 569.364 427.91 565.51 427.91H532.99ZM509.865 381.66C506.011 381.66 502.88 380.456 500.471 378.047C498.062 375.638 496.857 372.747 496.857 369.375C496.857 366.003 498.062 363.112 500.471 360.703C502.88 358.294 506.011 357.09 509.865 357.09H565.51C569.364 357.09 572.495 358.294 574.904 360.703C577.313 363.112 578.518 366.003 578.518 369.375C578.518 372.747 577.313 375.638 574.904 378.047C572.495 380.456 569.364 381.66 565.51 381.66H509.865ZM719.797 659.16C715.22 659.16 711.607 657.956 708.957 655.547C706.307 653.138 704.982 650.247 704.982 646.875C704.982 643.503 706.307 640.612 708.957 638.203C711.607 635.794 715.22 634.59 719.797 634.59H818.078C822.655 634.59 826.268 635.794 828.918 638.203C831.568 640.612 832.893 643.503 832.893 646.875C832.893 650.247 831.568 653.138 828.918 655.547C826.268 657.956 822.655 659.16 818.078 659.16H719.797ZM810.49 612.91C806.636 612.91 803.505 611.706 801.096 609.297C798.687 606.888 797.482 603.997 797.482 600.625C797.482 597.253 798.687 594.362 801.096 591.953C803.505 589.544 806.636 588.34 810.49 588.34H843.01C846.864 588.34 849.995 589.544 852.404 591.953C854.813 594.362 856.018 597.253 856.018 600.625C856.018 603.997 854.813 606.888 852.404 609.297C849.995 611.706 846.864 612.91 843.01 612.91H810.49ZM742.922 566.66C738.345 566.66 734.732 565.456 732.082 563.047C729.432 560.638 728.107 557.747 728.107 554.375C728.107 551.003 729.432 548.112 732.082 545.703C734.732 543.294 738.345 542.09 742.922 542.09H818.078C822.655 542.09 826.268 543.294 828.918 545.703C831.568 548.112 832.893 551.003 832.893 554.375C832.893 557.747 831.568 560.638 828.918 563.047C826.268 565.456 822.655 566.66 818.078 566.66H742.922ZM717.99 520.41C714.136 520.41 711.005 519.206 708.596 516.797C706.187 514.388 704.982 511.497 704.982 508.125C704.982 504.753 706.187 501.862 708.596 499.453C711.005 497.044 714.136 495.84 717.99 495.84H750.51C754.364 495.84 757.495 497.044 759.904 499.453C762.313 501.862 763.518 504.753 763.518 508.125C763.518 511.497 762.313 514.388 759.904 516.797C757.495 519.206 754.364 520.41 750.51 520.41H717.99ZM742.922 474.16C738.345 474.16 734.732 472.956 732.082 470.547C729.432 468.138 728.107 465.247 728.107 461.875C728.107 458.503 729.432 455.612 732.082 453.203C734.732 450.794 738.345 449.59 742.922 449.59H841.203C845.78 449.59 849.393 450.794 852.043 453.203C854.693 455.612 856.018 458.503 856.018 461.875C856.018 465.247 854.693 468.138 852.043 470.547C849.393 472.956 845.78 474.16 841.203 474.16H742.922Z" fill="#3C4043"/>
<path d="M1098.31 659.16C1094.45 659.16 1091.32 657.956 1088.91 655.547C1086.51 653.138 1085.3 650.247 1085.3 646.875C1085.3 643.503 1086.51 640.612 1088.91 638.203C1091.32 635.794 1094.45 634.59 1098.31 634.59H1180.69C1184.55 634.59 1187.68 635.794 1190.09 638.203C1192.49 640.612 1193.7 643.503 1193.7 646.875C1193.7 650.247 1192.49 653.138 1190.09 655.547C1187.68 657.956 1184.55 659.16 1180.69 659.16H1098.31ZM1077.35 612.91C1072.53 612.91 1068.8 611.706 1066.15 609.297C1063.5 606.888 1062.18 603.997 1062.18 600.625C1062.18 597.253 1063.5 594.362 1066.15 591.953C1068.8 589.544 1072.53 588.34 1077.35 588.34H1201.65C1206.47 588.34 1210.2 589.544 1212.85 591.953C1215.5 594.362 1216.82 597.253 1216.82 600.625C1216.82 603.997 1215.5 606.888 1212.85 609.297C1210.2 611.706 1206.47 612.91 1201.65 612.91H1077.35ZM1052.06 566.66C1048.2 566.66 1045.07 565.456 1042.66 563.047C1040.26 560.638 1039.05 557.747 1039.05 554.375C1039.05 551.003 1040.26 548.112 1042.66 545.703C1045.07 543.294 1048.2 542.09 1052.06 542.09H1134.44C1138.3 542.09 1141.43 543.294 1143.84 545.703C1146.24 548.112 1147.45 551.003 1147.45 554.375C1147.45 557.747 1146.24 560.638 1143.84 563.047C1141.43 565.456 1138.3 566.66 1134.44 566.66H1052.06ZM1144.56 566.66C1140.7 566.66 1137.57 565.456 1135.16 563.047C1132.76 560.638 1131.55 557.747 1131.55 554.375C1131.55 551.003 1132.76 548.112 1135.16 545.703C1137.57 543.294 1140.7 542.09 1144.56 542.09H1226.94C1230.8 542.09 1233.93 543.294 1236.34 545.703C1238.74 548.112 1239.95 551.003 1239.95 554.375C1239.95 557.747 1238.74 560.638 1236.34 563.047C1233.93 565.456 1230.8 566.66 1226.94 566.66H1144.56ZM1052.06 520.41C1048.2 520.41 1045.07 519.206 1042.66 516.797C1040.26 514.388 1039.05 511.497 1039.05 508.125C1039.05 504.753 1040.26 501.862 1042.66 499.453C1045.07 497.044 1048.2 495.84 1052.06 495.84H1134.44C1138.3 495.84 1141.43 497.044 1143.84 499.453C1146.24 501.862 1147.45 504.753 1147.45 508.125C1147.45 511.497 1146.24 514.388 1143.84 516.797C1141.43 519.206 1138.3 520.41 1134.44 520.41H1052.06ZM1144.56 520.41C1140.7 520.41 1137.57 519.206 1135.16 516.797C1132.76 514.388 1131.55 511.497 1131.55 508.125C1131.55 504.753 1132.76 501.862 1135.16 499.453C1137.57 497.044 1140.7 495.84 1144.56 495.84H1226.94C1230.8 495.84 1233.93 497.044 1236.34 499.453C1238.74 501.862 1239.95 504.753 1239.95 508.125C1239.95 511.497 1238.74 514.388 1236.34 516.797C1233.93 519.206 1230.8 520.41 1226.94 520.41H1144.56ZM1052.06 474.16C1048.2 474.16 1045.07 472.956 1042.66 470.547C1040.26 468.138 1039.05 465.247 1039.05 461.875C1039.05 458.503 1040.26 455.612 1042.66 453.203C1045.07 450.794 1048.2 449.59 1052.06 449.59H1134.44C1138.3 449.59 1141.43 450.794 1143.84 453.203C1146.24 455.612 1147.45 458.503 1147.45 461.875C1147.45 465.247 1146.24 468.138 1143.84 470.547C1141.43 472.956 1138.3 474.16 1134.44 474.16H1052.06ZM1144.56 474.16C1140.7 474.16 1137.57 472.956 1135.16 470.547C1132.76 468.138 1131.55 465.247 1131.55 461.875C1131.55 458.503 1132.76 455.612 1135.16 453.203C1137.57 450.794 1140.7 449.59 1144.56 449.59H1226.94C1230.8 449.59 1233.93 450.794 1236.34 453.203C1238.74 455.612 1239.95 458.503 1239.95 461.875C1239.95 465.247 1238.74 468.138 1236.34 470.547C1233.93 472.956 1230.8 474.16 1226.94 474.16H1144.56ZM1213.93 659.16C1210.08 659.16 1206.95 657.956 1204.54 655.547C1202.13 653.138 1200.93 650.247 1200.93 646.875C1200.93 643.503 1202.13 640.612 1204.54 638.203C1206.95 635.794 1210.08 634.59 1213.93 634.59H1319.44C1323.3 634.59 1326.43 635.794 1328.84 638.203C1331.24 640.612 1332.45 643.503 1332.45 646.875C1332.45 650.247 1331.24 653.138 1328.84 655.547C1326.43 657.956 1323.3 659.16 1319.44 659.16H1213.93ZM1329.56 659.16C1325.7 659.16 1322.57 657.956 1320.16 655.547C1317.76 653.138 1316.55 650.247 1316.55 646.875C1316.55 643.503 1317.76 640.612 1320.16 638.203C1322.57 635.794 1325.7 634.59 1329.56 634.59H1411.94C1415.8 634.59 1418.93 635.794 1421.34 638.203C1423.74 640.612 1424.95 643.503 1424.95 646.875C1424.95 650.247 1423.74 653.138 1421.34 655.547C1418.93 657.956 1415.8 659.16 1411.94 659.16H1329.56ZM1237.06 612.91C1233.2 612.91 1230.07 611.706 1227.66 609.297C1225.26 606.888 1224.05 603.997 1224.05 600.625C1224.05 597.253 1225.26 594.362 1227.66 591.953C1230.07 589.544 1233.2 588.34 1237.06 588.34H1319.44C1323.3 588.34 1326.43 589.544 1328.84 591.953C1331.24 594.362 1332.45 597.253 1332.45 600.625C1332.45 603.997 1331.24 606.888 1328.84 609.297C1326.43 611.706 1323.3 612.91 1319.44 612.91H1237.06ZM1329.56 612.91C1325.7 612.91 1322.57 611.706 1320.16 609.297C1317.76 606.888 1316.55 603.997 1316.55 600.625C1316.55 597.253 1317.76 594.362 1320.16 591.953C1322.57 589.544 1325.7 588.34 1329.56 588.34H1411.94C1415.8 588.34 1418.93 589.544 1421.34 591.953C1423.74 594.362 1424.95 597.253 1424.95 600.625C1424.95 603.997 1423.74 606.888 1421.34 609.297C1418.93 611.706 1415.8 612.91 1411.94 612.91H1329.56ZM1237.06 566.66C1233.2 566.66 1230.07 565.456 1227.66 563.047C1225.26 560.638 1224.05 557.747 1224.05 554.375C1224.05 551.003 1225.26 548.112 1227.66 545.703C1230.07 543.294 1233.2 542.09 1237.06 542.09H1319.44C1323.3 542.09 1326.43 543.294 1328.84 545.703C1331.24 548.112 1332.45 551.003 1332.45 554.375C1332.45 557.747 1331.24 560.638 1328.84 563.047C1326.43 565.456 1323.3 566.66 1319.44 566.66H1237.06ZM1329.56 566.66C1325.7 566.66 1322.57 565.456 1320.16 563.047C1317.76 560.638 1316.55 557.747 1316.55 554.375C1316.55 551.003 1317.76 548.112 1320.16 545.703C1322.57 543.294 1325.7 542.09 1329.56 542.09H1411.94C1415.8 542.09 1418.93 543.294 1421.34 545.703C1423.74 548.112 1424.95 551.003 1424.95 554.375C1424.95 557.747 1423.74 560.638 1421.34 563.047C1418.93 565.456 1415.8 566.66 1411.94 566.66H1329.56ZM1237.06 520.41C1233.2 520.41 1230.07 519.206 1227.66 516.797C1225.26 514.388 1224.05 511.497 1224.05 508.125C1224.05 504.753 1225.26 501.862 1227.66 499.453C1230.07 497.044 1233.2 495.84 1237.06 495.84H1342.57C1346.42 495.84 1349.55 497.044 1351.96 499.453C1354.37 501.862 1355.57 504.753 1355.57 508.125C1355.57 511.497 1354.37 514.388 1351.96 516.797C1349.55 519.206 1346.42 520.41 1342.57 520.41H1237.06ZM1329.56 520.41C1325.7 520.41 1322.57 519.206 1320.16 516.797C1317.76 514.388 1316.55 511.497 1316.55 508.125C1316.55 504.753 1317.76 501.862 1320.16 499.453C1322.57 497.044 1325.7 495.84 1329.56 495.84H1411.94C1415.8 495.84 1418.93 497.044 1421.34 499.453C1423.74 501.862 1424.95 504.753 1424.95 508.125C1424.95 511.497 1423.74 514.388 1421.34 516.797C1418.93 519.206 1415.8 520.41 1411.94 520.41H1329.56ZM1237.06 474.16C1233.2 474.16 1230.07 472.956 1227.66 470.547C1225.26 468.138 1224.05 465.247 1224.05 461.875C1224.05 458.503 1225.26 455.612 1227.66 453.203C1230.07 450.794 1233.2 449.59 1237.06 449.59H1319.44C1323.3 449.59 1326.43 450.794 1328.84 453.203C1331.24 455.612 1332.45 458.503 1332.45 461.875C1332.45 465.247 1331.24 468.138 1328.84 470.547C1326.43 472.956 1323.3 474.16 1319.44 474.16H1237.06ZM1306.43 474.16C1302.58 474.16 1299.45 472.956 1297.04 470.547C1294.63 468.138 1293.43 465.247 1293.43 461.875C1293.43 458.503 1294.63 455.612 1297.04 453.203C1299.45 450.794 1302.58 449.59 1306.43 449.59H1388.82C1392.67 449.59 1395.8 450.794 1398.21 453.203C1400.62 455.612 1401.82 458.503 1401.82 461.875C1401.82 465.247 1400.62 468.138 1398.21 470.547C1395.8 472.956 1392.67 474.16 1388.82 474.16H1306.43ZM1237.06 427.91C1233.2 427.91 1230.07 426.706 1227.66 424.297C1225.26 421.888 1224.05 418.997 1224.05 415.625C1224.05 412.253 1225.26 409.362 1227.66 406.953C1230.07 404.544 1233.2 403.34 1237.06 403.34H1319.44C1323.3 403.34 1326.43 404.544 1328.84 406.953C1331.24 409.362 1332.45 412.253 1332.45 415.625C1332.45 418.997 1331.24 421.888 1328.84 424.297C1326.43 426.706 1323.3 427.91 1319.44 427.91H1237.06ZM1213.93 381.66C1210.08 381.66 1206.95 380.456 1204.54 378.047C1202.13 375.638 1200.93 372.747 1200.93 369.375C1200.93 366.003 1202.13 363.112 1204.54 360.703C1206.95 358.294 1210.08 357.09 1213.93 357.09H1319.44C1323.3 357.09 1326.43 358.294 1328.84 360.703C1331.24 363.112 1332.45 366.003 1332.45 369.375C1332.45 372.747 1331.24 375.638 1328.84 378.047C1326.43 380.456 1323.3 381.66 1319.44 381.66H1213.93ZM1424.23 659.16C1419.41 659.16 1415.68 657.956 1413.03 655.547C1410.38 653.138 1409.05 650.247 1409.05 646.875C1409.05 643.503 1410.38 640.612 1413.03 638.203C1415.68 635.794 1419.41 634.59 1424.23 634.59H1571.65C1576.47 634.59 1580.2 635.794 1582.85 638.203C1585.5 640.612 1586.82 643.503 1586.82 646.875C1586.82 650.247 1585.5 653.138 1582.85 655.547C1580.2 657.956 1576.47 659.16 1571.65 659.16H1424.23ZM1514.56 612.91C1510.7 612.91 1507.57 611.706 1505.16 609.297C1502.76 606.888 1501.55 603.997 1501.55 600.625C1501.55 597.253 1502.76 594.362 1505.16 591.953C1507.57 589.544 1510.7 588.34 1514.56 588.34H1596.94C1600.8 588.34 1603.93 589.544 1606.34 591.953C1608.74 594.362 1609.95 597.253 1609.95 600.625C1609.95 603.997 1608.74 606.888 1606.34 609.297C1603.93 611.706 1600.8 612.91 1596.94 612.91H1514.56ZM1447.35 566.66C1442.53 566.66 1438.8 565.456 1436.15 563.047C1433.5 560.638 1432.18 557.747 1432.18 554.375C1432.18 551.003 1433.5 548.112 1436.15 545.703C1438.8 543.294 1442.53 542.09 1447.35 542.09H1571.65C1576.47 542.09 1580.2 543.294 1582.85 545.703C1585.5 548.112 1586.82 551.003 1586.82 554.375C1586.82 557.747 1585.5 560.638 1582.85 563.047C1580.2 565.456 1576.47 566.66 1571.65 566.66H1447.35ZM1422.06 520.41C1418.2 520.41 1415.07 519.206 1412.66 516.797C1410.26 514.388 1409.05 511.497 1409.05 508.125C1409.05 504.753 1410.26 501.862 1412.66 499.453C1415.07 497.044 1418.2 495.84 1422.06 495.84H1504.44C1508.3 495.84 1511.43 497.044 1513.84 499.453C1516.24 501.862 1517.45 504.753 1517.45 508.125C1517.45 511.497 1516.24 514.388 1513.84 516.797C1511.43 519.206 1508.3 520.41 1504.44 520.41H1422.06ZM1447.35 474.16C1442.53 474.16 1438.8 472.956 1436.15 470.547C1433.5 468.138 1432.18 465.247 1432.18 461.875C1432.18 458.503 1433.5 455.612 1436.15 453.203C1438.8 450.794 1442.53 449.59 1447.35 449.59H1594.77C1599.59 449.59 1603.32 450.794 1605.97 453.203C1608.62 455.612 1609.95 458.503 1609.95 461.875C1609.95 465.247 1608.62 468.138 1605.97 470.547C1603.32 472.956 1599.59 474.16 1594.77 474.16H1447.35Z" fill="#3C4043"/>
</svg>
