<svg width="1920" height="1080" viewBox="0 0 1920 1080" fill="none" xmlns="http://www.w3.org/2000/svg">
<path d="M63.1676 766C63.1108 765.29 62.8445 764.736 62.3686 764.338C61.8999 763.94 61.1861 763.741 60.2273 763.741C59.6165 763.741 59.1158 763.816 58.7251 763.965C58.3416 764.107 58.0575 764.303 57.8729 764.551C57.6882 764.8 57.5923 765.084 57.5852 765.403C57.571 765.666 57.6172 765.904 57.7237 766.117C57.8374 766.323 58.0149 766.511 58.2564 766.682C58.4979 766.845 58.8068 766.994 59.1832 767.129C59.5597 767.264 60.0071 767.385 60.5256 767.491L62.3153 767.875C63.5227 768.131 64.5561 768.468 65.4155 768.887C66.2749 769.306 66.978 769.8 67.5249 770.368C68.0717 770.929 68.473 771.561 68.7287 772.264C68.9915 772.967 69.1264 773.734 69.1335 774.565C69.1264 776 68.7678 777.214 68.0575 778.209C67.3473 779.203 66.3317 779.96 65.0107 780.478C63.6967 780.996 62.1165 781.256 60.2699 781.256C58.3736 781.256 56.7188 780.975 55.3054 780.414C53.8991 779.853 52.8054 778.99 52.0241 777.825C51.25 776.653 50.8594 775.155 50.8523 773.33H56.4773C56.5128 773.997 56.6797 774.558 56.978 775.013C57.2763 775.467 57.6953 775.812 58.2351 776.046C58.782 776.281 59.4318 776.398 60.1847 776.398C60.8168 776.398 61.3459 776.32 61.772 776.163C62.1982 776.007 62.5213 775.79 62.7415 775.513C62.9616 775.237 63.0753 774.92 63.0824 774.565C63.0753 774.232 62.9652 773.94 62.7521 773.692C62.5462 773.436 62.2053 773.209 61.7294 773.01C61.2536 772.804 60.6108 772.612 59.8011 772.435L57.6278 771.966C55.696 771.547 54.1726 770.847 53.0575 769.867C51.9496 768.88 51.3991 767.534 51.4062 765.83C51.3991 764.445 51.7685 763.234 52.5142 762.197C53.267 761.153 54.3075 760.339 55.6357 759.757C56.9709 759.175 58.5014 758.884 60.2273 758.884C61.9886 758.884 63.5121 759.178 64.7976 759.768C66.0831 760.357 67.0739 761.188 67.7699 762.261C68.473 763.326 68.8281 764.572 68.8352 766H63.1676ZM76.0316 781.256C74.9876 781.256 74.0643 781.085 73.2617 780.744C72.4663 780.396 71.8413 779.871 71.3867 779.168C70.9322 778.464 70.7049 777.57 70.7049 776.483C70.7049 775.588 70.8576 774.825 71.163 774.192C71.4684 773.553 71.8945 773.031 72.4414 772.626C72.9883 772.222 73.6239 771.913 74.3484 771.7C75.0799 771.487 75.8683 771.348 76.7134 771.284C77.6296 771.213 78.3647 771.128 78.9187 771.028C79.4798 770.922 79.8846 770.776 80.1332 770.592C80.3817 770.4 80.506 770.148 80.506 769.835V769.793C80.506 769.366 80.3427 769.04 80.016 768.812C79.6893 768.585 79.2702 768.472 78.7589 768.472C78.1978 768.472 77.7397 768.596 77.3846 768.844C77.0366 769.086 76.8271 769.459 76.756 769.963H71.3441C71.4151 768.969 71.7312 768.053 72.2923 767.214C72.8604 766.369 73.6879 765.695 74.7745 765.19C75.8612 764.679 77.2177 764.423 78.8441 764.423C80.016 764.423 81.0671 764.562 81.9975 764.839C82.9279 765.109 83.7198 765.489 84.3732 765.979C85.0266 766.462 85.5238 767.03 85.8647 767.683C86.2127 768.33 86.3867 769.033 86.3867 769.793V781H80.8896V778.699H80.7617C80.435 779.31 80.0373 779.803 79.5685 780.18C79.1069 780.556 78.5778 780.83 77.9812 781C77.3917 781.17 76.7418 781.256 76.0316 781.256ZM77.9492 777.548C78.3967 777.548 78.8157 777.456 79.2063 777.271C79.604 777.087 79.9272 776.82 80.1758 776.472C80.4244 776.124 80.5487 775.702 80.5487 775.205V773.841C80.3924 773.905 80.2255 773.965 80.0479 774.022C79.8775 774.079 79.6928 774.132 79.494 774.182C79.3022 774.232 79.0962 774.278 78.8761 774.32C78.663 774.363 78.4393 774.402 78.2049 774.438C77.7504 774.509 77.3775 774.626 77.0863 774.789C76.8022 774.945 76.5891 775.141 76.4471 775.375C76.3121 775.602 76.2447 775.858 76.2447 776.142C76.2447 776.597 76.4045 776.945 76.7241 777.186C77.0437 777.428 77.4521 777.548 77.9492 777.548ZM95.0772 771.795V781H89.1966V764.636H94.7789V767.747H94.9494C95.3045 766.71 95.9295 765.897 96.8244 765.308C97.7264 764.718 98.7775 764.423 99.9778 764.423C101.135 764.423 102.14 764.69 102.993 765.222C103.852 765.748 104.516 766.472 104.985 767.396C105.461 768.319 105.695 769.374 105.688 770.56V781H99.8074V771.795C99.8145 770.986 99.6085 770.35 99.1895 769.888C98.7775 769.427 98.2022 769.196 97.4636 769.196C96.9806 769.196 96.5581 769.303 96.1958 769.516C95.8407 769.722 95.5673 770.02 95.3755 770.411C95.1838 770.794 95.0843 771.256 95.0772 771.795ZM114.514 781.213C113.35 781.213 112.277 780.908 111.297 780.297C110.324 779.686 109.543 778.759 108.953 777.516C108.371 776.273 108.08 774.707 108.08 772.818C108.08 770.844 108.385 769.239 108.996 768.003C109.614 766.767 110.409 765.862 111.382 765.286C112.362 764.711 113.392 764.423 114.472 764.423C115.281 764.423 115.992 764.565 116.602 764.849C117.213 765.126 117.725 765.499 118.137 765.968C118.548 766.43 118.861 766.937 119.074 767.491H119.159V759.182H125.04V781H119.202V778.315H119.074C118.847 778.869 118.52 779.366 118.094 779.807C117.675 780.24 117.164 780.585 116.56 780.84C115.963 781.089 115.281 781.213 114.514 781.213ZM116.688 776.696C117.227 776.696 117.689 776.54 118.073 776.227C118.463 775.908 118.762 775.46 118.968 774.885C119.181 774.303 119.287 773.614 119.287 772.818C119.287 772.009 119.181 771.316 118.968 770.741C118.762 770.158 118.463 769.714 118.073 769.409C117.689 769.097 117.227 768.94 116.688 768.94C116.148 768.94 115.686 769.097 115.303 769.409C114.926 769.714 114.635 770.158 114.429 770.741C114.23 771.316 114.131 772.009 114.131 772.818C114.131 773.628 114.23 774.324 114.429 774.906C114.635 775.482 114.926 775.925 115.303 776.238C115.686 776.543 116.148 776.696 116.688 776.696ZM135.811 781.298C134.035 781.298 132.515 780.947 131.251 780.244C129.987 779.533 129.017 778.546 128.343 777.282C127.668 776.011 127.33 774.537 127.33 772.861C127.33 771.185 127.668 769.714 128.343 768.45C129.017 767.179 129.987 766.192 131.251 765.489C132.515 764.778 134.035 764.423 135.811 764.423C137.586 764.423 139.106 764.778 140.37 765.489C141.634 766.192 142.604 767.179 143.279 768.45C143.953 769.714 144.291 771.185 144.291 772.861C144.291 774.537 143.953 776.011 143.279 777.282C142.604 778.546 141.634 779.533 140.37 780.244C139.106 780.947 137.586 781.298 135.811 781.298ZM135.853 776.952C136.35 776.952 136.78 776.785 137.142 776.451C137.504 776.117 137.785 775.641 137.984 775.023C138.183 774.406 138.282 773.67 138.282 772.818C138.282 771.959 138.183 771.224 137.984 770.613C137.785 769.995 137.504 769.519 137.142 769.185C136.78 768.852 136.35 768.685 135.853 768.685C135.328 768.685 134.877 768.852 134.5 769.185C134.124 769.519 133.836 769.995 133.637 770.613C133.438 771.224 133.339 771.959 133.339 772.818C133.339 773.67 133.438 774.406 133.637 775.023C133.836 775.641 134.124 776.117 134.5 776.451C134.877 776.785 135.328 776.952 135.853 776.952ZM152.558 759.182V781H146.677V759.182H152.558ZM161.435 759.182V781H155.554V759.182H161.435ZM184.491 766.384C184.399 766.007 184.253 765.677 184.055 765.393C183.856 765.102 183.607 764.857 183.309 764.658C183.018 764.452 182.677 764.299 182.286 764.2C181.903 764.093 181.48 764.04 181.018 764.04C180.024 764.04 179.175 764.278 178.472 764.754C177.776 765.229 177.243 765.915 176.874 766.81C176.512 767.705 176.331 768.784 176.331 770.048C176.331 771.327 176.505 772.42 176.853 773.33C177.201 774.239 177.719 774.935 178.408 775.418C179.097 775.901 179.953 776.142 180.976 776.142C181.878 776.142 182.627 776.011 183.224 775.748C183.827 775.485 184.278 775.112 184.577 774.629C184.875 774.146 185.024 773.578 185.024 772.925L186.047 773.031H181.061V768.812H190.734V771.838C190.734 773.827 190.312 775.528 189.466 776.941C188.628 778.347 187.471 779.427 185.993 780.18C184.523 780.925 182.836 781.298 180.933 781.298C178.809 781.298 176.945 780.847 175.34 779.945C173.735 779.043 172.481 777.758 171.579 776.089C170.684 774.42 170.237 772.435 170.237 770.134C170.237 768.33 170.51 766.732 171.057 765.339C171.611 763.947 172.378 762.772 173.358 761.813C174.339 760.847 175.471 760.119 176.757 759.629C178.042 759.132 179.42 758.884 180.89 758.884C182.183 758.884 183.383 759.068 184.491 759.438C185.606 759.8 186.59 760.318 187.442 760.993C188.302 761.661 188.994 762.452 189.52 763.369C190.045 764.285 190.365 765.29 190.479 766.384H184.491ZM201.465 781.298C199.689 781.298 198.169 780.947 196.905 780.244C195.641 779.533 194.672 778.546 193.997 777.282C193.322 776.011 192.985 774.537 192.985 772.861C192.985 771.185 193.322 769.714 193.997 768.45C194.672 767.179 195.641 766.192 196.905 765.489C198.169 764.778 199.689 764.423 201.465 764.423C203.24 764.423 204.76 764.778 206.025 765.489C207.289 766.192 208.258 767.179 208.933 768.45C209.608 769.714 209.945 771.185 209.945 772.861C209.945 774.537 209.608 776.011 208.933 777.282C208.258 778.546 207.289 779.533 206.025 780.244C204.76 780.947 203.24 781.298 201.465 781.298ZM201.507 776.952C202.005 776.952 202.434 776.785 202.797 776.451C203.159 776.117 203.439 775.641 203.638 775.023C203.837 774.406 203.936 773.67 203.936 772.818C203.936 771.959 203.837 771.224 203.638 770.613C203.439 769.995 203.159 769.519 202.797 769.185C202.434 768.852 202.005 768.685 201.507 768.685C200.982 768.685 200.531 768.852 200.154 769.185C199.778 769.519 199.49 769.995 199.292 770.613C199.093 771.224 198.993 771.959 198.993 772.818C198.993 773.67 199.093 774.406 199.292 775.023C199.49 775.641 199.778 776.117 200.154 776.451C200.531 776.785 200.982 776.952 201.507 776.952ZM218.212 771.795V781H212.331V764.636H217.914V767.747H218.084C218.439 766.71 219.064 765.897 219.959 765.308C220.861 764.718 221.912 764.423 223.113 764.423C224.27 764.423 225.275 764.69 226.127 765.222C226.987 765.748 227.651 766.472 228.12 767.396C228.596 768.319 228.83 769.374 228.823 770.56V781H222.942V771.795C222.949 770.986 222.743 770.35 222.324 769.888C221.912 769.427 221.337 769.196 220.598 769.196C220.115 769.196 219.693 769.303 219.331 769.516C218.975 769.722 218.702 770.02 218.51 770.411C218.319 770.794 218.219 771.256 218.212 771.795ZM239.609 787.477C237.969 787.477 236.562 787.243 235.391 786.774C234.226 786.312 233.32 785.673 232.674 784.857C232.035 784.047 231.676 783.116 231.598 782.065H237.266C237.322 782.413 237.464 782.694 237.692 782.907C237.919 783.12 238.21 783.273 238.565 783.365C238.928 783.464 239.332 783.514 239.78 783.514C240.54 783.514 241.168 783.33 241.665 782.96C242.17 782.591 242.422 781.923 242.422 780.957V778.188H242.251C242.038 778.741 241.712 779.214 241.271 779.604C240.831 779.988 240.302 780.283 239.684 780.489C239.066 780.687 238.388 780.787 237.649 780.787C236.484 780.787 235.412 780.517 234.432 779.977C233.459 779.437 232.678 778.582 232.088 777.41C231.506 776.238 231.214 774.707 231.214 772.818C231.214 770.844 231.52 769.239 232.131 768.003C232.749 766.767 233.544 765.862 234.517 765.286C235.497 764.711 236.527 764.423 237.607 764.423C238.416 764.423 239.126 764.565 239.737 764.849C240.348 765.126 240.859 765.499 241.271 765.968C241.683 766.43 241.996 766.937 242.209 767.491H242.337V764.636H248.217V780.957C248.217 782.342 247.859 783.518 247.141 784.484C246.431 785.457 245.43 786.199 244.137 786.71C242.844 787.222 241.335 787.477 239.609 787.477ZM239.822 776.611C240.362 776.611 240.824 776.462 241.207 776.163C241.598 775.858 241.896 775.425 242.102 774.864C242.315 774.295 242.422 773.614 242.422 772.818C242.422 772.009 242.315 771.316 242.102 770.741C241.896 770.158 241.598 769.714 241.207 769.409C240.824 769.097 240.362 768.94 239.822 768.94C239.283 768.94 238.821 769.097 238.438 769.409C238.061 769.714 237.77 770.158 237.564 770.741C237.365 771.316 237.266 772.009 237.266 772.818C237.266 773.628 237.365 774.317 237.564 774.885C237.77 775.446 238.061 775.876 238.438 776.174C238.821 776.465 239.283 776.611 239.822 776.611ZM251.123 781V759.182H257.004V767.491H257.089C257.302 766.937 257.615 766.43 258.026 765.968C258.438 765.499 258.95 765.126 259.561 764.849C260.171 764.565 260.882 764.423 261.691 764.423C262.771 764.423 263.797 764.711 264.77 765.286C265.75 765.862 266.546 766.767 267.156 768.003C267.774 769.239 268.083 770.844 268.083 772.818C268.083 774.707 267.789 776.273 267.199 777.516C266.617 778.759 265.835 779.686 264.855 780.297C263.882 780.908 262.813 781.213 261.649 781.213C260.882 781.213 260.196 781.089 259.593 780.84C258.996 780.585 258.485 780.24 258.058 779.807C257.639 779.366 257.316 778.869 257.089 778.315H256.961V781H251.123ZM256.876 772.818C256.876 773.614 256.979 774.303 257.185 774.885C257.398 775.46 257.696 775.908 258.08 776.227C258.47 776.54 258.936 776.696 259.475 776.696C260.015 776.696 260.473 776.543 260.85 776.238C261.233 775.925 261.524 775.482 261.723 774.906C261.929 774.324 262.032 773.628 262.032 772.818C262.032 772.009 261.929 771.316 261.723 770.741C261.524 770.158 261.233 769.714 260.85 769.409C260.473 769.097 260.015 768.94 259.475 768.94C258.936 768.94 258.47 769.097 258.08 769.409C257.696 769.714 257.398 770.158 257.185 770.741C256.979 771.316 256.876 772.009 256.876 772.818ZM273.626 787.136C272.951 787.136 272.308 787.083 271.697 786.977C271.087 786.877 270.55 786.739 270.089 786.561L271.367 782.385C271.85 782.555 272.29 782.665 272.688 782.715C273.093 782.765 273.438 782.737 273.722 782.63C274.013 782.523 274.222 782.321 274.35 782.023L274.478 781.724L268.725 764.636H274.862L277.504 775.972H277.674L280.359 764.636H286.538L280.572 782.364C280.273 783.266 279.84 784.075 279.272 784.793C278.711 785.517 277.972 786.089 277.056 786.508C276.14 786.927 274.996 787.136 273.626 787.136ZM298.821 773.841V764.636H304.702V781H299.119V777.889H298.949C298.594 778.933 297.972 779.75 297.085 780.339C296.197 780.922 295.142 781.213 293.92 781.213C292.777 781.213 291.776 780.95 290.916 780.425C290.064 779.899 289.4 779.175 288.924 778.251C288.455 777.328 288.217 776.27 288.21 775.077V764.636H294.091V773.841C294.098 774.651 294.304 775.286 294.709 775.748C295.121 776.21 295.696 776.44 296.435 776.44C296.925 776.44 297.347 776.337 297.702 776.131C298.065 775.918 298.342 775.62 298.533 775.237C298.732 774.846 298.828 774.381 298.821 773.841ZM313.573 771.795V781H307.693V764.636H313.275V767.747H313.445C313.801 766.71 314.426 765.897 315.32 765.308C316.222 764.718 317.274 764.423 318.474 764.423C319.632 764.423 320.637 764.69 321.489 765.222C322.348 765.748 323.012 766.472 323.481 767.396C323.957 768.319 324.191 769.374 324.184 770.56V781H318.303V771.795C318.311 770.986 318.105 770.35 317.686 769.888C317.274 769.427 316.698 769.196 315.96 769.196C315.477 769.196 315.054 769.303 314.692 769.516C314.337 769.722 314.063 770.02 313.872 770.411C313.68 770.794 313.58 771.256 313.573 771.795ZM334.971 787.477C333.33 787.477 331.924 787.243 330.752 786.774C329.587 786.312 328.682 785.673 328.035 784.857C327.396 784.047 327.037 783.116 326.959 782.065H332.627C332.684 782.413 332.826 782.694 333.053 782.907C333.28 783.12 333.572 783.273 333.927 783.365C334.289 783.464 334.694 783.514 335.141 783.514C335.901 783.514 336.53 783.33 337.027 782.96C337.531 782.591 337.783 781.923 337.783 780.957V778.188H337.613C337.4 778.741 337.073 779.214 336.633 779.604C336.192 779.988 335.663 780.283 335.045 780.489C334.427 780.687 333.749 780.787 333.01 780.787C331.846 780.787 330.773 780.517 329.793 779.977C328.82 779.437 328.039 778.582 327.449 777.41C326.867 776.238 326.576 774.707 326.576 772.818C326.576 770.844 326.881 769.239 327.492 768.003C328.11 766.767 328.905 765.862 329.878 765.286C330.858 764.711 331.888 764.423 332.968 764.423C333.778 764.423 334.488 764.565 335.099 764.849C335.709 765.126 336.221 765.499 336.633 765.968C337.045 766.43 337.357 766.937 337.57 767.491H337.698V764.636H343.579V780.957C343.579 782.342 343.22 783.518 342.503 784.484C341.792 785.457 340.791 786.199 339.498 786.71C338.206 787.222 336.697 787.477 334.971 787.477ZM335.184 776.611C335.724 776.611 336.185 776.462 336.569 776.163C336.959 775.858 337.258 775.425 337.464 774.864C337.677 774.295 337.783 773.614 337.783 772.818C337.783 772.009 337.677 771.316 337.464 770.741C337.258 770.158 336.959 769.714 336.569 769.409C336.185 769.097 335.724 768.94 335.184 768.94C334.644 768.94 334.182 769.097 333.799 769.409C333.422 769.714 333.131 770.158 332.925 770.741C332.726 771.316 332.627 772.009 332.627 772.818C332.627 773.628 332.726 774.317 332.925 774.885C333.131 775.446 333.422 775.876 333.799 776.174C334.182 776.465 334.644 776.611 335.184 776.611ZM354.453 787.477C352.812 787.477 351.406 787.243 350.234 786.774C349.07 786.312 348.164 785.673 347.518 784.857C346.879 784.047 346.52 783.116 346.442 782.065H352.109C352.166 782.413 352.308 782.694 352.536 782.907C352.763 783.12 353.054 783.273 353.409 783.365C353.771 783.464 354.176 783.514 354.624 783.514C355.384 783.514 356.012 783.33 356.509 782.96C357.013 782.591 357.266 781.923 357.266 780.957V778.188H357.095C356.882 778.741 356.555 779.214 356.115 779.604C355.675 779.988 355.146 780.283 354.528 780.489C353.91 780.687 353.232 780.787 352.493 780.787C351.328 780.787 350.256 780.517 349.276 779.977C348.303 779.437 347.521 778.582 346.932 777.41C346.349 776.238 346.058 774.707 346.058 772.818C346.058 770.844 346.364 769.239 346.974 768.003C347.592 766.767 348.388 765.862 349.361 765.286C350.341 764.711 351.371 764.423 352.45 764.423C353.26 764.423 353.97 764.565 354.581 764.849C355.192 765.126 355.703 765.499 356.115 765.968C356.527 766.43 356.839 766.937 357.053 767.491H357.18V764.636H363.061V780.957C363.061 782.342 362.702 783.518 361.985 784.484C361.275 785.457 360.273 786.199 358.981 786.71C357.688 787.222 356.179 787.477 354.453 787.477ZM354.666 776.611C355.206 776.611 355.668 776.462 356.051 776.163C356.442 775.858 356.74 775.425 356.946 774.864C357.159 774.295 357.266 773.614 357.266 772.818C357.266 772.009 357.159 771.316 356.946 770.741C356.74 770.158 356.442 769.714 356.051 769.409C355.668 769.097 355.206 768.94 354.666 768.94C354.126 768.94 353.665 769.097 353.281 769.409C352.905 769.714 352.614 770.158 352.408 770.741C352.209 771.316 352.109 772.009 352.109 772.818C352.109 773.628 352.209 774.317 352.408 774.885C352.614 775.446 352.905 775.876 353.281 776.174C353.665 776.465 354.126 776.611 354.666 776.611ZM370.612 781.256C369.568 781.256 368.644 781.085 367.842 780.744C367.046 780.396 366.421 779.871 365.967 779.168C365.512 778.464 365.285 777.57 365.285 776.483C365.285 775.588 365.438 774.825 365.743 774.192C366.048 773.553 366.475 773.031 367.021 772.626C367.568 772.222 368.204 771.913 368.928 771.7C369.66 771.487 370.448 771.348 371.294 771.284C372.21 771.213 372.945 771.128 373.499 771.028C374.06 770.922 374.465 770.776 374.713 770.592C374.962 770.4 375.086 770.148 375.086 769.835V769.793C375.086 769.366 374.923 769.04 374.596 768.812C374.269 768.585 373.85 768.472 373.339 768.472C372.778 768.472 372.32 768.596 371.965 768.844C371.617 769.086 371.407 769.459 371.336 769.963H365.924C365.995 768.969 366.311 768.053 366.872 767.214C367.441 766.369 368.268 765.695 369.355 765.19C370.441 764.679 371.798 764.423 373.424 764.423C374.596 764.423 375.647 764.562 376.578 764.839C377.508 765.109 378.3 765.489 378.953 765.979C379.607 766.462 380.104 767.03 380.445 767.683C380.793 768.33 380.967 769.033 380.967 769.793V781H375.47V778.699H375.342C375.015 779.31 374.617 779.803 374.149 780.18C373.687 780.556 373.158 780.83 372.561 781C371.972 781.17 371.322 781.256 370.612 781.256ZM372.529 777.548C372.977 777.548 373.396 777.456 373.786 777.271C374.184 777.087 374.507 776.82 374.756 776.472C375.004 776.124 375.129 775.702 375.129 775.205V773.841C374.972 773.905 374.806 773.965 374.628 774.022C374.458 774.079 374.273 774.132 374.074 774.182C373.882 774.232 373.676 774.278 373.456 774.32C373.243 774.363 373.019 774.402 372.785 774.438C372.33 774.509 371.958 774.626 371.666 774.789C371.382 774.945 371.169 775.141 371.027 775.375C370.892 775.602 370.825 775.858 370.825 776.142C370.825 776.597 370.985 776.945 371.304 777.186C371.624 777.428 372.032 777.548 372.529 777.548ZM389.061 777.122L389.103 770.134H389.87L393.833 764.636H400.439L393.791 773.202H392.129L389.061 777.122ZM383.777 781V759.182H389.657V781H383.777ZM393.876 781L390.126 774.523L393.961 770.347L400.609 781H393.876ZM399.589 763.955V759.182H418.552V763.955H411.99V781H406.151V763.955H399.589ZM423.2 781.256C422.156 781.256 421.232 781.085 420.43 780.744C419.634 780.396 419.009 779.871 418.555 779.168C418.1 778.464 417.873 777.57 417.873 776.483C417.873 775.588 418.026 774.825 418.331 774.192C418.636 773.553 419.062 773.031 419.609 772.626C420.156 772.222 420.792 771.913 421.516 771.7C422.248 771.487 423.036 771.348 423.881 771.284C424.798 771.213 425.533 771.128 426.087 771.028C426.648 770.922 427.053 770.776 427.301 770.592C427.55 770.4 427.674 770.148 427.674 769.835V769.793C427.674 769.366 427.511 769.04 427.184 768.812C426.857 768.585 426.438 768.472 425.927 768.472C425.366 768.472 424.908 768.596 424.553 768.844C424.205 769.086 423.995 769.459 423.924 769.963H418.512C418.583 768.969 418.899 768.053 419.46 767.214C420.028 766.369 420.856 765.695 421.942 765.19C423.029 764.679 424.386 764.423 426.012 764.423C427.184 764.423 428.235 764.562 429.165 764.839C430.096 765.109 430.888 765.489 431.541 765.979C432.195 766.462 432.692 767.03 433.033 767.683C433.381 768.33 433.555 769.033 433.555 769.793V781H428.058V778.699H427.93C427.603 779.31 427.205 779.803 426.737 780.18C426.275 780.556 425.746 780.83 425.149 781C424.56 781.17 423.91 781.256 423.2 781.256ZM425.117 777.548C425.565 777.548 425.984 777.456 426.374 777.271C426.772 777.087 427.095 776.82 427.344 776.472C427.592 776.124 427.717 775.702 427.717 775.205V773.841C427.56 773.905 427.393 773.965 427.216 774.022C427.045 774.079 426.861 774.132 426.662 774.182C426.47 774.232 426.264 774.278 426.044 774.32C425.831 774.363 425.607 774.402 425.373 774.438C424.918 774.509 424.545 774.626 424.254 774.789C423.97 774.945 423.757 775.141 423.615 775.375C423.48 775.602 423.413 775.858 423.413 776.142C423.413 776.597 423.572 776.945 423.892 777.186C424.212 777.428 424.62 777.548 425.117 777.548ZM436.279 781V759.182H442.16V767.491H442.245C442.458 766.937 442.771 766.43 443.183 765.968C443.595 765.499 444.106 765.126 444.717 764.849C445.328 764.565 446.038 764.423 446.847 764.423C447.927 764.423 448.953 764.711 449.926 765.286C450.906 765.862 451.702 766.767 452.313 768.003C452.931 769.239 453.24 770.844 453.24 772.818C453.24 774.707 452.945 776.273 452.355 777.516C451.773 778.759 450.992 779.686 450.012 780.297C449.039 780.908 447.97 781.213 446.805 781.213C446.038 781.213 445.352 781.089 444.749 780.84C444.152 780.585 443.641 780.24 443.215 779.807C442.796 779.366 442.472 778.869 442.245 778.315H442.117V781H436.279ZM442.032 772.818C442.032 773.614 442.135 774.303 442.341 774.885C442.554 775.46 442.852 775.908 443.236 776.227C443.627 776.54 444.092 776.696 444.632 776.696C445.171 776.696 445.629 776.543 446.006 776.238C446.389 775.925 446.681 775.482 446.879 774.906C447.085 774.324 447.188 773.628 447.188 772.818C447.188 772.009 447.085 771.316 446.879 770.741C446.681 770.158 446.389 769.714 446.006 769.409C445.629 769.097 445.171 768.94 444.632 768.94C444.092 768.94 443.627 769.097 443.236 769.409C442.852 769.714 442.554 770.158 442.341 770.741C442.135 771.316 442.032 772.009 442.032 772.818Z" fill="#FF6D7F"/>
<path d="M699.533 826H696.621L703.164 807.818H706.334L712.877 826H709.965L704.825 811.121H704.683L699.533 826ZM700.022 818.88H709.468V821.188H700.022V818.88ZM725.246 812.364L720.301 826H717.46L712.506 812.364H715.356L718.809 822.857H718.951L722.396 812.364H725.246ZM731.318 826.302C730.454 826.302 729.673 826.142 728.975 825.822C728.276 825.497 727.723 825.026 727.314 824.411C726.912 823.795 726.711 823.041 726.711 822.147C726.711 821.378 726.859 820.744 727.155 820.247C727.45 819.75 727.85 819.356 728.353 819.066C728.856 818.776 729.418 818.557 730.04 818.409C730.661 818.261 731.295 818.149 731.94 818.072C732.756 817.977 733.419 817.9 733.928 817.841C734.437 817.776 734.807 817.673 735.038 817.531C735.269 817.388 735.384 817.158 735.384 816.838V816.776C735.384 816.001 735.165 815.4 734.727 814.974C734.295 814.548 733.65 814.335 732.792 814.335C731.898 814.335 731.194 814.533 730.679 814.929C730.17 815.32 729.818 815.755 729.623 816.234L727.128 815.666C727.424 814.838 727.856 814.169 728.424 813.66C728.998 813.145 729.658 812.772 730.404 812.541C731.15 812.304 731.934 812.186 732.756 812.186C733.301 812.186 733.878 812.251 734.488 812.381C735.103 812.506 735.677 812.737 736.21 813.074C736.749 813.411 737.189 813.894 737.533 814.521C737.876 815.142 738.048 815.95 738.048 816.945V826H735.455V824.136H735.349C735.177 824.479 734.92 824.816 734.576 825.148C734.233 825.479 733.792 825.754 733.254 825.973C732.715 826.192 732.07 826.302 731.318 826.302ZM731.895 824.171C732.629 824.171 733.257 824.026 733.777 823.736C734.304 823.446 734.704 823.067 734.976 822.6C735.254 822.126 735.393 821.62 735.393 821.082V819.324C735.299 819.419 735.115 819.507 734.843 819.59C734.576 819.667 734.272 819.735 733.928 819.794C733.585 819.848 733.251 819.898 732.925 819.945C732.6 819.987 732.327 820.022 732.108 820.052C731.593 820.117 731.123 820.226 730.697 820.38C730.277 820.534 729.939 820.756 729.685 821.046C729.436 821.33 729.312 821.709 729.312 822.183C729.312 822.839 729.555 823.337 730.04 823.674C730.525 824.005 731.144 824.171 731.895 824.171ZM741.583 826V812.364H744.238V826H741.583ZM742.924 810.26C742.462 810.26 742.066 810.106 741.734 809.798C741.409 809.484 741.246 809.111 741.246 808.679C741.246 808.241 741.409 807.868 741.734 807.561C742.066 807.247 742.462 807.09 742.924 807.09C743.385 807.09 743.779 807.247 744.105 807.561C744.436 807.868 744.602 808.241 744.602 808.679C744.602 809.111 744.436 809.484 744.105 809.798C743.779 810.106 743.385 810.26 742.924 810.26ZM750.463 807.818V826H747.809V807.818H750.463ZM758.003 826.302C757.139 826.302 756.357 826.142 755.659 825.822C754.961 825.497 754.407 825.026 753.999 824.411C753.596 823.795 753.395 823.041 753.395 822.147C753.395 821.378 753.543 820.744 753.839 820.247C754.135 819.75 754.535 819.356 755.038 819.066C755.541 818.776 756.103 818.557 756.724 818.409C757.346 818.261 757.979 818.149 758.624 818.072C759.441 817.977 760.104 817.9 760.613 817.841C761.122 817.776 761.492 817.673 761.723 817.531C761.953 817.388 762.069 817.158 762.069 816.838V816.776C762.069 816.001 761.85 815.4 761.412 814.974C760.98 814.548 760.335 814.335 759.477 814.335C758.583 814.335 757.879 814.533 757.364 814.929C756.855 815.32 756.502 815.755 756.307 816.234L753.812 815.666C754.108 814.838 754.54 814.169 755.109 813.66C755.683 813.145 756.343 812.772 757.088 812.541C757.834 812.304 758.618 812.186 759.441 812.186C759.986 812.186 760.563 812.251 761.172 812.381C761.788 812.506 762.362 812.737 762.895 813.074C763.433 813.411 763.874 813.894 764.217 814.521C764.561 815.142 764.732 815.95 764.732 816.945V826H762.14V824.136H762.033C761.862 824.479 761.604 824.816 761.261 825.148C760.918 825.479 760.477 825.754 759.938 825.973C759.4 826.192 758.754 826.302 758.003 826.302ZM758.58 824.171C759.314 824.171 759.941 824.026 760.462 823.736C760.989 823.446 761.388 823.067 761.661 822.6C761.939 822.126 762.078 821.62 762.078 821.082V819.324C761.983 819.419 761.8 819.507 761.527 819.59C761.261 819.667 760.956 819.735 760.613 819.794C760.27 819.848 759.935 819.898 759.61 819.945C759.284 819.987 759.012 820.022 758.793 820.052C758.278 820.117 757.808 820.226 757.381 820.38C756.961 820.534 756.624 820.756 756.369 821.046C756.121 821.33 755.996 821.709 755.996 822.183C755.996 822.839 756.239 823.337 756.724 823.674C757.21 824.005 757.828 824.171 758.58 824.171ZM768.481 826V807.818H771.135V814.574H771.295C771.449 814.29 771.671 813.962 771.961 813.589C772.251 813.216 772.653 812.89 773.168 812.612C773.683 812.328 774.364 812.186 775.21 812.186C776.311 812.186 777.294 812.464 778.158 813.021C779.022 813.577 779.7 814.379 780.191 815.426C780.688 816.474 780.937 817.735 780.937 819.208C780.937 820.682 780.691 821.946 780.2 822.999C779.708 824.047 779.034 824.855 778.176 825.423C777.317 825.985 776.338 826.266 775.237 826.266C774.408 826.266 773.731 826.127 773.204 825.849C772.683 825.571 772.275 825.245 771.979 824.873C771.683 824.5 771.455 824.168 771.295 823.878H771.073V826H768.481ZM771.082 819.182C771.082 820.141 771.221 820.981 771.499 821.703C771.778 822.425 772.18 822.99 772.707 823.399C773.234 823.801 773.879 824.002 774.642 824.002C775.435 824.002 776.098 823.792 776.631 823.372C777.163 822.946 777.566 822.369 777.838 821.641C778.116 820.913 778.255 820.093 778.255 819.182C778.255 818.282 778.119 817.474 777.847 816.758C777.581 816.042 777.178 815.477 776.64 815.062C776.107 814.648 775.441 814.441 774.642 814.441C773.873 814.441 773.222 814.639 772.689 815.036C772.162 815.432 771.763 815.986 771.491 816.696C771.218 817.406 771.082 818.235 771.082 819.182ZM786.572 807.818V826H783.917V807.818H786.572ZM796.02 826.275C794.676 826.275 793.519 825.988 792.549 825.414C791.584 824.834 790.838 824.02 790.312 822.973C789.791 821.919 789.53 820.685 789.53 819.271C789.53 817.874 789.791 816.643 790.312 815.577C790.838 814.512 791.572 813.681 792.513 813.083C793.46 812.485 794.567 812.186 795.834 812.186C796.603 812.186 797.349 812.313 798.071 812.568C798.793 812.822 799.441 813.222 800.015 813.766C800.589 814.311 801.042 815.018 801.373 815.888C801.705 816.752 801.87 817.803 801.87 819.04V819.981H791.031V817.992H799.269C799.269 817.294 799.127 816.675 798.843 816.137C798.559 815.592 798.16 815.163 797.645 814.849C797.136 814.536 796.538 814.379 795.851 814.379C795.106 814.379 794.455 814.562 793.898 814.929C793.348 815.29 792.922 815.764 792.62 816.35C792.324 816.93 792.176 817.56 792.176 818.241V819.794C792.176 820.706 792.336 821.481 792.655 822.12C792.981 822.76 793.434 823.248 794.014 823.585C794.594 823.917 795.271 824.082 796.047 824.082C796.55 824.082 797.008 824.011 797.423 823.869C797.837 823.721 798.195 823.502 798.497 823.212C798.799 822.922 799.03 822.564 799.189 822.138L801.702 822.591C801.501 823.331 801.14 823.979 800.619 824.535C800.104 825.086 799.456 825.515 798.674 825.822C797.899 826.124 797.014 826.275 796.02 826.275ZM817.176 826.275C815.897 826.275 814.782 825.982 813.829 825.396C812.876 824.81 812.136 823.991 811.609 822.937C811.083 821.884 810.819 820.653 810.819 819.244C810.819 817.829 811.083 816.592 811.609 815.533C812.136 814.474 812.876 813.651 813.829 813.065C814.782 812.479 815.897 812.186 817.176 812.186C818.454 812.186 819.57 812.479 820.523 813.065C821.476 813.651 822.216 814.474 822.742 815.533C823.269 816.592 823.532 817.829 823.532 819.244C823.532 820.653 823.269 821.884 822.742 822.937C822.216 823.991 821.476 824.81 820.523 825.396C819.57 825.982 818.454 826.275 817.176 826.275ZM817.185 824.047C818.013 824.047 818.7 823.828 819.244 823.39C819.789 822.952 820.191 822.369 820.452 821.641C820.718 820.913 820.851 820.111 820.851 819.235C820.851 818.365 820.718 817.566 820.452 816.838C820.191 816.104 819.789 815.515 819.244 815.071C818.7 814.627 818.013 814.406 817.185 814.406C816.35 814.406 815.658 814.627 815.107 815.071C814.563 815.515 814.157 816.104 813.891 816.838C813.631 817.566 813.5 818.365 813.5 819.235C813.5 820.111 813.631 820.913 813.891 821.641C814.157 822.369 814.563 822.952 815.107 823.39C815.658 823.828 816.35 824.047 817.185 824.047ZM829.15 817.903V826H826.495V812.364H829.043V814.583H829.212C829.526 813.861 830.017 813.281 830.686 812.843C831.36 812.405 832.21 812.186 833.234 812.186C834.163 812.186 834.977 812.381 835.675 812.772C836.373 813.157 836.915 813.731 837.3 814.494C837.684 815.258 837.877 816.202 837.877 817.326V826H835.222V817.646C835.222 816.658 834.965 815.885 834.45 815.329C833.935 814.767 833.228 814.485 832.328 814.485C831.713 814.485 831.165 814.619 830.686 814.885C830.212 815.151 829.836 815.542 829.558 816.057C829.286 816.566 829.15 817.181 829.15 817.903ZM860.571 813.562C860.399 813.024 860.168 812.541 859.878 812.115C859.594 811.683 859.254 811.316 858.857 811.014C858.461 810.706 858.008 810.473 857.499 810.313C856.996 810.153 856.443 810.073 855.839 810.073C854.815 810.073 853.892 810.337 853.069 810.863C852.246 811.39 851.595 812.162 851.116 813.18C850.642 814.192 850.406 815.432 850.406 816.9C850.406 818.374 850.645 819.62 851.125 820.638C851.604 821.656 852.261 822.428 853.096 822.955C853.93 823.482 854.88 823.745 855.945 823.745C856.934 823.745 857.795 823.544 858.529 823.141C859.269 822.739 859.84 822.171 860.242 821.437C860.651 820.697 860.855 819.827 860.855 818.827L861.565 818.96H856.363V816.696H863.509V818.765C863.509 820.292 863.184 821.617 862.533 822.742C861.888 823.86 860.994 824.725 859.852 825.334C858.715 825.944 857.413 826.249 855.945 826.249C854.3 826.249 852.856 825.87 851.613 825.112C850.376 824.355 849.411 823.28 848.719 821.89C848.026 820.493 847.68 818.836 847.68 816.918C847.68 815.468 847.881 814.166 848.284 813.012C848.686 811.858 849.252 810.878 849.979 810.073C850.713 809.262 851.575 808.644 852.563 808.218C853.557 807.786 854.643 807.57 855.821 807.57C856.804 807.57 857.718 807.715 858.564 808.005C859.417 808.295 860.174 808.706 860.837 809.239C861.506 809.771 862.059 810.405 862.497 811.138C862.935 811.866 863.231 812.674 863.385 813.562H860.571ZM872.523 826.275C871.244 826.275 870.128 825.982 869.176 825.396C868.223 824.81 867.483 823.991 866.956 822.937C866.429 821.884 866.166 820.653 866.166 819.244C866.166 817.829 866.429 816.592 866.956 815.533C867.483 814.474 868.223 813.651 869.176 813.065C870.128 812.479 871.244 812.186 872.523 812.186C873.801 812.186 874.917 812.479 875.869 813.065C876.822 813.651 877.562 814.474 878.089 815.533C878.616 816.592 878.879 817.829 878.879 819.244C878.879 820.653 878.616 821.884 878.089 822.937C877.562 823.991 876.822 824.81 875.869 825.396C874.917 825.982 873.801 826.275 872.523 826.275ZM872.531 824.047C873.36 824.047 874.047 823.828 874.591 823.39C875.136 822.952 875.538 822.369 875.798 821.641C876.065 820.913 876.198 820.111 876.198 819.235C876.198 818.365 876.065 817.566 875.798 816.838C875.538 816.104 875.136 815.515 874.591 815.071C874.047 814.627 873.36 814.406 872.531 814.406C871.697 814.406 871.004 814.627 870.454 815.071C869.91 815.515 869.504 816.104 869.238 816.838C868.977 817.566 868.847 818.365 868.847 819.235C868.847 820.111 868.977 820.913 869.238 821.641C869.504 822.369 869.91 822.952 870.454 823.39C871.004 823.828 871.697 824.047 872.531 824.047ZM887.586 826.275C886.308 826.275 885.192 825.982 884.239 825.396C883.286 824.81 882.546 823.991 882.02 822.937C881.493 821.884 881.229 820.653 881.229 819.244C881.229 817.829 881.493 816.592 882.02 815.533C882.546 814.474 883.286 813.651 884.239 813.065C885.192 812.479 886.308 812.186 887.586 812.186C888.864 812.186 889.98 812.479 890.933 813.065C891.886 813.651 892.626 814.474 893.152 815.533C893.679 816.592 893.943 817.829 893.943 819.244C893.943 820.653 893.679 821.884 893.152 822.937C892.626 823.991 891.886 824.81 890.933 825.396C889.98 825.982 888.864 826.275 887.586 826.275ZM887.595 824.047C888.424 824.047 889.11 823.828 889.655 823.39C890.199 822.952 890.602 822.369 890.862 821.641C891.128 820.913 891.261 820.111 891.261 819.235C891.261 818.365 891.128 817.566 890.862 816.838C890.602 816.104 890.199 815.515 889.655 815.071C889.11 814.627 888.424 814.406 887.595 814.406C886.76 814.406 886.068 814.627 885.517 815.071C884.973 815.515 884.568 816.104 884.301 816.838C884.041 817.566 883.911 818.365 883.911 819.235C883.911 820.111 884.041 820.913 884.301 821.641C884.568 822.369 884.973 822.952 885.517 823.39C886.068 823.828 886.76 824.047 887.595 824.047ZM902.623 831.398C901.54 831.398 900.608 831.256 899.826 830.972C899.051 830.688 898.418 830.312 897.926 829.844C897.435 829.377 897.068 828.865 896.826 828.308L899.107 827.367C899.267 827.628 899.48 827.903 899.746 828.193C900.019 828.489 900.386 828.74 900.847 828.947C901.315 829.155 901.916 829.258 902.65 829.258C903.656 829.258 904.487 829.013 905.144 828.521C905.801 828.036 906.13 827.261 906.13 826.195V823.514H905.961C905.801 823.804 905.57 824.127 905.268 824.482C904.973 824.837 904.564 825.145 904.043 825.405C903.522 825.666 902.845 825.796 902.01 825.796C900.933 825.796 899.962 825.544 899.098 825.041C898.24 824.532 897.56 823.783 897.056 822.795C896.559 821.801 896.311 820.579 896.311 819.129C896.311 817.679 896.556 816.436 897.048 815.4C897.545 814.364 898.225 813.571 899.089 813.021C899.954 812.464 900.933 812.186 902.028 812.186C902.874 812.186 903.558 812.328 904.079 812.612C904.6 812.89 905.005 813.216 905.295 813.589C905.591 813.962 905.819 814.29 905.979 814.574H906.174V812.364H908.775V826.302C908.775 827.474 908.503 828.435 907.958 829.187C907.414 829.939 906.677 830.495 905.748 830.856C904.825 831.217 903.783 831.398 902.623 831.398ZM902.596 823.594C903.36 823.594 904.005 823.417 904.532 823.061C905.064 822.7 905.467 822.185 905.739 821.517C906.017 820.842 906.156 820.034 906.156 819.093C906.156 818.176 906.02 817.368 905.748 816.669C905.476 815.971 905.076 815.426 904.549 815.036C904.023 814.639 903.372 814.441 902.596 814.441C901.797 814.441 901.131 814.648 900.599 815.062C900.066 815.471 899.664 816.027 899.391 816.732C899.125 817.436 898.992 818.223 898.992 819.093C898.992 819.987 899.128 820.771 899.4 821.446C899.672 822.12 900.075 822.647 900.608 823.026C901.146 823.405 901.809 823.594 902.596 823.594ZM914.99 807.818V826H912.335V807.818H914.99ZM924.438 826.275C923.094 826.275 921.937 825.988 920.967 825.414C920.002 824.834 919.256 824.02 918.729 822.973C918.209 821.919 917.948 820.685 917.948 819.271C917.948 817.874 918.209 816.643 918.729 815.577C919.256 814.512 919.99 813.681 920.931 813.083C921.878 812.485 922.985 812.186 924.252 812.186C925.021 812.186 925.767 812.313 926.489 812.568C927.211 812.822 927.859 813.222 928.433 813.766C929.007 814.311 929.46 815.018 929.791 815.888C930.123 816.752 930.288 817.803 930.288 819.04V819.981H919.449V817.992H927.687C927.687 817.294 927.545 816.675 927.261 816.137C926.977 815.592 926.578 815.163 926.063 814.849C925.554 814.536 924.956 814.379 924.269 814.379C923.524 814.379 922.872 814.562 922.316 814.929C921.766 815.29 921.34 815.764 921.038 816.35C920.742 816.93 920.594 817.56 920.594 818.241V819.794C920.594 820.706 920.754 821.481 921.073 822.12C921.399 822.76 921.852 823.248 922.432 823.585C923.012 823.917 923.689 824.082 924.465 824.082C924.968 824.082 925.426 824.011 925.841 823.869C926.255 823.721 926.613 823.502 926.915 823.212C927.217 822.922 927.448 822.564 927.607 822.138L930.12 822.591C929.919 823.331 929.557 823.979 929.037 824.535C928.522 825.086 927.874 825.515 927.092 825.822C926.317 826.124 925.432 826.275 924.438 826.275ZM940.063 826V807.818H951.338V810.18H942.806V815.719H950.53V818.072H942.806V826H940.063ZM959.241 826.275C957.963 826.275 956.847 825.982 955.894 825.396C954.941 824.81 954.202 823.991 953.675 822.937C953.148 821.884 952.885 820.653 952.885 819.244C952.885 817.829 953.148 816.592 953.675 815.533C954.202 814.474 954.941 813.651 955.894 813.065C956.847 812.479 957.963 812.186 959.241 812.186C960.52 812.186 961.635 812.479 962.588 813.065C963.541 813.651 964.281 814.474 964.808 815.533C965.334 816.592 965.598 817.829 965.598 819.244C965.598 820.653 965.334 821.884 964.808 822.937C964.281 823.991 963.541 824.81 962.588 825.396C961.635 825.982 960.52 826.275 959.241 826.275ZM959.25 824.047C960.079 824.047 960.765 823.828 961.31 823.39C961.854 822.952 962.257 822.369 962.517 821.641C962.784 820.913 962.917 820.111 962.917 819.235C962.917 818.365 962.784 817.566 962.517 816.838C962.257 816.104 961.854 815.515 961.31 815.071C960.765 814.627 960.079 814.406 959.25 814.406C958.416 814.406 957.723 814.627 957.173 815.071C956.628 815.515 956.223 816.104 955.956 816.838C955.696 817.566 955.566 818.365 955.566 819.235C955.566 820.111 955.696 820.913 955.956 821.641C956.223 822.369 956.628 822.952 957.173 823.39C957.723 823.828 958.416 824.047 959.25 824.047ZM971.215 817.903V826H968.561V812.364H971.109V814.583H971.277C971.591 813.861 972.082 813.281 972.751 812.843C973.426 812.405 974.275 812.186 975.299 812.186C976.228 812.186 977.042 812.381 977.741 812.772C978.439 813.157 978.98 813.731 979.365 814.494C979.75 815.258 979.942 816.202 979.942 817.326V826H977.288V817.646C977.288 816.658 977.03 815.885 976.515 815.329C976 814.767 975.293 814.485 974.394 814.485C973.778 814.485 973.231 814.619 972.751 814.885C972.278 815.151 971.902 815.542 971.624 816.057C971.351 816.566 971.215 817.181 971.215 817.903ZM989.868 812.364V814.494H982.419V812.364H989.868ZM984.417 809.097H987.071V821.996C987.071 822.511 987.148 822.899 987.302 823.159C987.456 823.414 987.654 823.588 987.897 823.683C988.145 823.772 988.415 823.816 988.705 823.816C988.918 823.816 989.104 823.801 989.264 823.772C989.424 823.742 989.548 823.718 989.637 823.701L990.116 825.893C989.962 825.953 989.743 826.012 989.459 826.071C989.175 826.136 988.82 826.172 988.394 826.178C987.696 826.189 987.044 826.065 986.441 825.805C985.837 825.544 985.349 825.142 984.976 824.597C984.603 824.053 984.417 823.369 984.417 822.547V809.097ZM1002.8 815.693L1000.4 816.119C1000.3 815.811 1000.14 815.518 999.917 815.24C999.704 814.962 999.414 814.734 999.047 814.556C998.68 814.379 998.222 814.29 997.671 814.29C996.92 814.29 996.292 814.459 995.789 814.796C995.286 815.128 995.035 815.557 995.035 816.083C995.035 816.539 995.203 816.906 995.541 817.184C995.878 817.462 996.422 817.69 997.174 817.868L999.34 818.365C1000.6 818.655 1001.53 819.102 1002.15 819.706C1002.76 820.309 1003.07 821.094 1003.07 822.058C1003.07 822.875 1002.83 823.603 1002.36 824.242C1001.89 824.875 1001.24 825.373 1000.4 825.734C999.562 826.095 998.595 826.275 997.494 826.275C995.967 826.275 994.721 825.95 993.756 825.299C992.791 824.642 992.2 823.71 991.981 822.502L994.546 822.112C994.706 822.78 995.035 823.286 995.532 823.63C996.029 823.967 996.677 824.136 997.476 824.136C998.346 824.136 999.041 823.955 999.562 823.594C1000.08 823.227 1000.34 822.78 1000.34 822.254C1000.34 821.827 1000.18 821.469 999.864 821.179C999.55 820.889 999.068 820.67 998.417 820.522L996.109 820.016C994.836 819.726 993.895 819.265 993.286 818.631C992.682 817.998 992.38 817.196 992.38 816.225C992.38 815.421 992.605 814.716 993.055 814.113C993.505 813.509 994.126 813.038 994.919 812.701C995.712 812.358 996.621 812.186 997.645 812.186C999.118 812.186 1000.28 812.506 1001.12 813.145C1001.97 813.778 1002.53 814.627 1002.8 815.693Z" fill="#FF6D7F"/>
<path d="M1359.53 826H1356.62L1363.16 807.818H1366.33L1372.88 826H1369.96L1364.82 811.121H1364.68L1359.53 826ZM1360.02 818.88H1369.47V821.188H1360.02V818.88ZM1385.25 812.364L1380.3 826H1377.46L1372.51 812.364H1375.36L1378.81 822.857H1378.95L1382.4 812.364H1385.25ZM1391.32 826.302C1390.45 826.302 1389.67 826.142 1388.97 825.822C1388.28 825.497 1387.72 825.026 1387.31 824.411C1386.91 823.795 1386.71 823.041 1386.71 822.147C1386.71 821.378 1386.86 820.744 1387.15 820.247C1387.45 819.75 1387.85 819.356 1388.35 819.066C1388.86 818.776 1389.42 818.557 1390.04 818.409C1390.66 818.261 1391.29 818.149 1391.94 818.072C1392.76 817.977 1393.42 817.9 1393.93 817.841C1394.44 817.776 1394.81 817.673 1395.04 817.531C1395.27 817.388 1395.38 817.158 1395.38 816.838V816.776C1395.38 816.001 1395.17 815.4 1394.73 814.974C1394.3 814.548 1393.65 814.335 1392.79 814.335C1391.9 814.335 1391.19 814.533 1390.68 814.929C1390.17 815.32 1389.82 815.755 1389.62 816.234L1387.13 815.666C1387.42 814.838 1387.86 814.169 1388.42 813.66C1389 813.145 1389.66 812.772 1390.4 812.541C1391.15 812.304 1391.93 812.186 1392.76 812.186C1393.3 812.186 1393.88 812.251 1394.49 812.381C1395.1 812.506 1395.68 812.737 1396.21 813.074C1396.75 813.411 1397.19 813.894 1397.53 814.521C1397.88 815.142 1398.05 815.95 1398.05 816.945V826H1395.46V824.136H1395.35C1395.18 824.479 1394.92 824.816 1394.58 825.148C1394.23 825.479 1393.79 825.754 1393.25 825.973C1392.72 826.192 1392.07 826.302 1391.32 826.302ZM1391.9 824.171C1392.63 824.171 1393.26 824.026 1393.78 823.736C1394.3 823.446 1394.7 823.067 1394.98 822.6C1395.25 822.126 1395.39 821.62 1395.39 821.082V819.324C1395.3 819.419 1395.12 819.507 1394.84 819.59C1394.58 819.667 1394.27 819.735 1393.93 819.794C1393.59 819.848 1393.25 819.898 1392.93 819.945C1392.6 819.987 1392.33 820.022 1392.11 820.052C1391.59 820.117 1391.12 820.226 1390.7 820.38C1390.28 820.534 1389.94 820.756 1389.68 821.046C1389.44 821.33 1389.31 821.709 1389.31 822.183C1389.31 822.839 1389.55 823.337 1390.04 823.674C1390.53 824.005 1391.14 824.171 1391.9 824.171ZM1401.58 826V812.364H1404.24V826H1401.58ZM1402.92 810.26C1402.46 810.26 1402.07 810.106 1401.73 809.798C1401.41 809.484 1401.25 809.111 1401.25 808.679C1401.25 808.241 1401.41 807.868 1401.73 807.561C1402.07 807.247 1402.46 807.09 1402.92 807.09C1403.39 807.09 1403.78 807.247 1404.1 807.561C1404.44 807.868 1404.6 808.241 1404.6 808.679C1404.6 809.111 1404.44 809.484 1404.1 809.798C1403.78 810.106 1403.39 810.26 1402.92 810.26ZM1410.46 807.818V826H1407.81V807.818H1410.46ZM1418 826.302C1417.14 826.302 1416.36 826.142 1415.66 825.822C1414.96 825.497 1414.41 825.026 1414 824.411C1413.6 823.795 1413.4 823.041 1413.4 822.147C1413.4 821.378 1413.54 820.744 1413.84 820.247C1414.14 819.75 1414.53 819.356 1415.04 819.066C1415.54 818.776 1416.1 818.557 1416.72 818.409C1417.35 818.261 1417.98 818.149 1418.62 818.072C1419.44 817.977 1420.1 817.9 1420.61 817.841C1421.12 817.776 1421.49 817.673 1421.72 817.531C1421.95 817.388 1422.07 817.158 1422.07 816.838V816.776C1422.07 816.001 1421.85 815.4 1421.41 814.974C1420.98 814.548 1420.33 814.335 1419.48 814.335C1418.58 814.335 1417.88 814.533 1417.36 814.929C1416.85 815.32 1416.5 815.755 1416.31 816.234L1413.81 815.666C1414.11 814.838 1414.54 814.169 1415.11 813.66C1415.68 813.145 1416.34 812.772 1417.09 812.541C1417.83 812.304 1418.62 812.186 1419.44 812.186C1419.99 812.186 1420.56 812.251 1421.17 812.381C1421.79 812.506 1422.36 812.737 1422.89 813.074C1423.43 813.411 1423.87 813.894 1424.22 814.521C1424.56 815.142 1424.73 815.95 1424.73 816.945V826H1422.14V824.136H1422.03C1421.86 824.479 1421.6 824.816 1421.26 825.148C1420.92 825.479 1420.48 825.754 1419.94 825.973C1419.4 826.192 1418.75 826.302 1418 826.302ZM1418.58 824.171C1419.31 824.171 1419.94 824.026 1420.46 823.736C1420.99 823.446 1421.39 823.067 1421.66 822.6C1421.94 822.126 1422.08 821.62 1422.08 821.082V819.324C1421.98 819.419 1421.8 819.507 1421.53 819.59C1421.26 819.667 1420.96 819.735 1420.61 819.794C1420.27 819.848 1419.94 819.898 1419.61 819.945C1419.28 819.987 1419.01 820.022 1418.79 820.052C1418.28 820.117 1417.81 820.226 1417.38 820.38C1416.96 820.534 1416.62 820.756 1416.37 821.046C1416.12 821.33 1416 821.709 1416 822.183C1416 822.839 1416.24 823.337 1416.72 823.674C1417.21 824.005 1417.83 824.171 1418.58 824.171ZM1428.48 826V807.818H1431.14V814.574H1431.3C1431.45 814.29 1431.67 813.962 1431.96 813.589C1432.25 813.216 1432.65 812.89 1433.17 812.612C1433.68 812.328 1434.36 812.186 1435.21 812.186C1436.31 812.186 1437.29 812.464 1438.16 813.021C1439.02 813.577 1439.7 814.379 1440.19 815.426C1440.69 816.474 1440.94 817.735 1440.94 819.208C1440.94 820.682 1440.69 821.946 1440.2 822.999C1439.71 824.047 1439.03 824.855 1438.18 825.423C1437.32 825.985 1436.34 826.266 1435.24 826.266C1434.41 826.266 1433.73 826.127 1433.2 825.849C1432.68 825.571 1432.27 825.245 1431.98 824.873C1431.68 824.5 1431.45 824.168 1431.3 823.878H1431.07V826H1428.48ZM1431.08 819.182C1431.08 820.141 1431.22 820.981 1431.5 821.703C1431.78 822.425 1432.18 822.99 1432.71 823.399C1433.23 823.801 1433.88 824.002 1434.64 824.002C1435.44 824.002 1436.1 823.792 1436.63 823.372C1437.16 822.946 1437.57 822.369 1437.84 821.641C1438.12 820.913 1438.26 820.093 1438.26 819.182C1438.26 818.282 1438.12 817.474 1437.85 816.758C1437.58 816.042 1437.18 815.477 1436.64 815.062C1436.11 814.648 1435.44 814.441 1434.64 814.441C1433.87 814.441 1433.22 814.639 1432.69 815.036C1432.16 815.432 1431.76 815.986 1431.49 816.696C1431.22 817.406 1431.08 818.235 1431.08 819.182ZM1446.57 807.818V826H1443.92V807.818H1446.57ZM1456.02 826.275C1454.68 826.275 1453.52 825.988 1452.55 825.414C1451.58 824.834 1450.84 824.02 1450.31 822.973C1449.79 821.919 1449.53 820.685 1449.53 819.271C1449.53 817.874 1449.79 816.643 1450.31 815.577C1450.84 814.512 1451.57 813.681 1452.51 813.083C1453.46 812.485 1454.57 812.186 1455.83 812.186C1456.6 812.186 1457.35 812.313 1458.07 812.568C1458.79 812.822 1459.44 813.222 1460.02 813.766C1460.59 814.311 1461.04 815.018 1461.37 815.888C1461.7 816.752 1461.87 817.803 1461.87 819.04V819.981H1451.03V817.992H1459.27C1459.27 817.294 1459.13 816.675 1458.84 816.137C1458.56 815.592 1458.16 815.163 1457.64 814.849C1457.14 814.536 1456.54 814.379 1455.85 814.379C1455.11 814.379 1454.45 814.562 1453.9 814.929C1453.35 815.29 1452.92 815.764 1452.62 816.35C1452.32 816.93 1452.18 817.56 1452.18 818.241V819.794C1452.18 820.706 1452.34 821.481 1452.66 822.12C1452.98 822.76 1453.43 823.248 1454.01 823.585C1454.59 823.917 1455.27 824.082 1456.05 824.082C1456.55 824.082 1457.01 824.011 1457.42 823.869C1457.84 823.721 1458.2 823.502 1458.5 823.212C1458.8 822.922 1459.03 822.564 1459.19 822.138L1461.7 822.591C1461.5 823.331 1461.14 823.979 1460.62 824.535C1460.1 825.086 1459.46 825.515 1458.67 825.822C1457.9 826.124 1457.01 826.275 1456.02 826.275ZM1477.18 826.275C1475.9 826.275 1474.78 825.982 1473.83 825.396C1472.88 824.81 1472.14 823.991 1471.61 822.937C1471.08 821.884 1470.82 820.653 1470.82 819.244C1470.82 817.829 1471.08 816.592 1471.61 815.533C1472.14 814.474 1472.88 813.651 1473.83 813.065C1474.78 812.479 1475.9 812.186 1477.18 812.186C1478.45 812.186 1479.57 812.479 1480.52 813.065C1481.48 813.651 1482.22 814.474 1482.74 815.533C1483.27 816.592 1483.53 817.829 1483.53 819.244C1483.53 820.653 1483.27 821.884 1482.74 822.937C1482.22 823.991 1481.48 824.81 1480.52 825.396C1479.57 825.982 1478.45 826.275 1477.18 826.275ZM1477.18 824.047C1478.01 824.047 1478.7 823.828 1479.24 823.39C1479.79 822.952 1480.19 822.369 1480.45 821.641C1480.72 820.913 1480.85 820.111 1480.85 819.235C1480.85 818.365 1480.72 817.566 1480.45 816.838C1480.19 816.104 1479.79 815.515 1479.24 815.071C1478.7 814.627 1478.01 814.406 1477.18 814.406C1476.35 814.406 1475.66 814.627 1475.11 815.071C1474.56 815.515 1474.16 816.104 1473.89 816.838C1473.63 817.566 1473.5 818.365 1473.5 819.235C1473.5 820.111 1473.63 820.913 1473.89 821.641C1474.16 822.369 1474.56 822.952 1475.11 823.39C1475.66 823.828 1476.35 824.047 1477.18 824.047ZM1489.15 817.903V826H1486.5V812.364H1489.04V814.583H1489.21C1489.53 813.861 1490.02 813.281 1490.69 812.843C1491.36 812.405 1492.21 812.186 1493.23 812.186C1494.16 812.186 1494.98 812.381 1495.68 812.772C1496.37 813.157 1496.92 813.731 1497.3 814.494C1497.68 815.258 1497.88 816.202 1497.88 817.326V826H1495.22V817.646C1495.22 816.658 1494.96 815.885 1494.45 815.329C1493.94 814.767 1493.23 814.485 1492.33 814.485C1491.71 814.485 1491.17 814.619 1490.69 814.885C1490.21 815.151 1489.84 815.542 1489.56 816.057C1489.29 816.566 1489.15 817.181 1489.15 817.903ZM1520.57 813.562C1520.4 813.024 1520.17 812.541 1519.88 812.115C1519.59 811.683 1519.25 811.316 1518.86 811.014C1518.46 810.706 1518.01 810.473 1517.5 810.313C1517 810.153 1516.44 810.073 1515.84 810.073C1514.81 810.073 1513.89 810.337 1513.07 810.863C1512.25 811.39 1511.6 812.162 1511.12 813.18C1510.64 814.192 1510.41 815.432 1510.41 816.9C1510.41 818.374 1510.65 819.62 1511.12 820.638C1511.6 821.656 1512.26 822.428 1513.1 822.955C1513.93 823.482 1514.88 823.745 1515.95 823.745C1516.93 823.745 1517.79 823.544 1518.53 823.141C1519.27 822.739 1519.84 822.171 1520.24 821.437C1520.65 820.697 1520.85 819.827 1520.85 818.827L1521.57 818.96H1516.36V816.696H1523.51V818.765C1523.51 820.292 1523.18 821.617 1522.53 822.742C1521.89 823.86 1520.99 824.725 1519.85 825.334C1518.72 825.944 1517.41 826.249 1515.95 826.249C1514.3 826.249 1512.86 825.87 1511.61 825.112C1510.38 824.355 1509.41 823.28 1508.72 821.89C1508.03 820.493 1507.68 818.836 1507.68 816.918C1507.68 815.468 1507.88 814.166 1508.28 813.012C1508.69 811.858 1509.25 810.878 1509.98 810.073C1510.71 809.262 1511.57 808.644 1512.56 808.218C1513.56 807.786 1514.64 807.57 1515.82 807.57C1516.8 807.57 1517.72 807.715 1518.56 808.005C1519.42 808.295 1520.17 808.706 1520.84 809.239C1521.51 809.771 1522.06 810.405 1522.5 811.138C1522.94 811.866 1523.23 812.674 1523.39 813.562H1520.57ZM1532.52 826.275C1531.24 826.275 1530.13 825.982 1529.18 825.396C1528.22 824.81 1527.48 823.991 1526.96 822.937C1526.43 821.884 1526.17 820.653 1526.17 819.244C1526.17 817.829 1526.43 816.592 1526.96 815.533C1527.48 814.474 1528.22 813.651 1529.18 813.065C1530.13 812.479 1531.24 812.186 1532.52 812.186C1533.8 812.186 1534.92 812.479 1535.87 813.065C1536.82 813.651 1537.56 814.474 1538.09 815.533C1538.62 816.592 1538.88 817.829 1538.88 819.244C1538.88 820.653 1538.62 821.884 1538.09 822.937C1537.56 823.991 1536.82 824.81 1535.87 825.396C1534.92 825.982 1533.8 826.275 1532.52 826.275ZM1532.53 824.047C1533.36 824.047 1534.05 823.828 1534.59 823.39C1535.14 822.952 1535.54 822.369 1535.8 821.641C1536.06 820.913 1536.2 820.111 1536.2 819.235C1536.2 818.365 1536.06 817.566 1535.8 816.838C1535.54 816.104 1535.14 815.515 1534.59 815.071C1534.05 814.627 1533.36 814.406 1532.53 814.406C1531.7 814.406 1531 814.627 1530.45 815.071C1529.91 815.515 1529.5 816.104 1529.24 816.838C1528.98 817.566 1528.85 818.365 1528.85 819.235C1528.85 820.111 1528.98 820.913 1529.24 821.641C1529.5 822.369 1529.91 822.952 1530.45 823.39C1531 823.828 1531.7 824.047 1532.53 824.047ZM1547.59 826.275C1546.31 826.275 1545.19 825.982 1544.24 825.396C1543.29 824.81 1542.55 823.991 1542.02 822.937C1541.49 821.884 1541.23 820.653 1541.23 819.244C1541.23 817.829 1541.49 816.592 1542.02 815.533C1542.55 814.474 1543.29 813.651 1544.24 813.065C1545.19 812.479 1546.31 812.186 1547.59 812.186C1548.86 812.186 1549.98 812.479 1550.93 813.065C1551.89 813.651 1552.63 814.474 1553.15 815.533C1553.68 816.592 1553.94 817.829 1553.94 819.244C1553.94 820.653 1553.68 821.884 1553.15 822.937C1552.63 823.991 1551.89 824.81 1550.93 825.396C1549.98 825.982 1548.86 826.275 1547.59 826.275ZM1547.59 824.047C1548.42 824.047 1549.11 823.828 1549.65 823.39C1550.2 822.952 1550.6 822.369 1550.86 821.641C1551.13 820.913 1551.26 820.111 1551.26 819.235C1551.26 818.365 1551.13 817.566 1550.86 816.838C1550.6 816.104 1550.2 815.515 1549.65 815.071C1549.11 814.627 1548.42 814.406 1547.59 814.406C1546.76 814.406 1546.07 814.627 1545.52 815.071C1544.97 815.515 1544.57 816.104 1544.3 816.838C1544.04 817.566 1543.91 818.365 1543.91 819.235C1543.91 820.111 1544.04 820.913 1544.3 821.641C1544.57 822.369 1544.97 822.952 1545.52 823.39C1546.07 823.828 1546.76 824.047 1547.59 824.047ZM1562.62 831.398C1561.54 831.398 1560.61 831.256 1559.83 830.972C1559.05 830.688 1558.42 830.312 1557.93 829.844C1557.44 829.377 1557.07 828.865 1556.83 828.308L1559.11 827.367C1559.27 827.628 1559.48 827.903 1559.75 828.193C1560.02 828.489 1560.39 828.74 1560.85 828.947C1561.31 829.155 1561.92 829.258 1562.65 829.258C1563.66 829.258 1564.49 829.013 1565.14 828.521C1565.8 828.036 1566.13 827.261 1566.13 826.195V823.514H1565.96C1565.8 823.804 1565.57 824.127 1565.27 824.482C1564.97 824.837 1564.56 825.145 1564.04 825.405C1563.52 825.666 1562.84 825.796 1562.01 825.796C1560.93 825.796 1559.96 825.544 1559.1 825.041C1558.24 824.532 1557.56 823.783 1557.06 822.795C1556.56 821.801 1556.31 820.579 1556.31 819.129C1556.31 817.679 1556.56 816.436 1557.05 815.4C1557.54 814.364 1558.23 813.571 1559.09 813.021C1559.95 812.464 1560.93 812.186 1562.03 812.186C1562.87 812.186 1563.56 812.328 1564.08 812.612C1564.6 812.89 1565.01 813.216 1565.3 813.589C1565.59 813.962 1565.82 814.29 1565.98 814.574H1566.17V812.364H1568.78V826.302C1568.78 827.474 1568.5 828.435 1567.96 829.187C1567.41 829.939 1566.68 830.495 1565.75 830.856C1564.82 831.217 1563.78 831.398 1562.62 831.398ZM1562.6 823.594C1563.36 823.594 1564 823.417 1564.53 823.061C1565.06 822.7 1565.47 822.185 1565.74 821.517C1566.02 820.842 1566.16 820.034 1566.16 819.093C1566.16 818.176 1566.02 817.368 1565.75 816.669C1565.48 815.971 1565.08 815.426 1564.55 815.036C1564.02 814.639 1563.37 814.441 1562.6 814.441C1561.8 814.441 1561.13 814.648 1560.6 815.062C1560.07 815.471 1559.66 816.027 1559.39 816.732C1559.13 817.436 1558.99 818.223 1558.99 819.093C1558.99 819.987 1559.13 820.771 1559.4 821.446C1559.67 822.12 1560.07 822.647 1560.61 823.026C1561.15 823.405 1561.81 823.594 1562.6 823.594ZM1574.99 807.818V826H1572.34V807.818H1574.99ZM1584.44 826.275C1583.09 826.275 1581.94 825.988 1580.97 825.414C1580 824.834 1579.26 824.02 1578.73 822.973C1578.21 821.919 1577.95 820.685 1577.95 819.271C1577.95 817.874 1578.21 816.643 1578.73 815.577C1579.26 814.512 1579.99 813.681 1580.93 813.083C1581.88 812.485 1582.98 812.186 1584.25 812.186C1585.02 812.186 1585.77 812.313 1586.49 812.568C1587.21 812.822 1587.86 813.222 1588.43 813.766C1589.01 814.311 1589.46 815.018 1589.79 815.888C1590.12 816.752 1590.29 817.803 1590.29 819.04V819.981H1579.45V817.992H1587.69C1587.69 817.294 1587.55 816.675 1587.26 816.137C1586.98 815.592 1586.58 815.163 1586.06 814.849C1585.55 814.536 1584.96 814.379 1584.27 814.379C1583.52 814.379 1582.87 814.562 1582.32 814.929C1581.77 815.29 1581.34 815.764 1581.04 816.35C1580.74 816.93 1580.59 817.56 1580.59 818.241V819.794C1580.59 820.706 1580.75 821.481 1581.07 822.12C1581.4 822.76 1581.85 823.248 1582.43 823.585C1583.01 823.917 1583.69 824.082 1584.46 824.082C1584.97 824.082 1585.43 824.011 1585.84 823.869C1586.25 823.721 1586.61 823.502 1586.91 823.212C1587.22 822.922 1587.45 822.564 1587.61 822.138L1590.12 822.591C1589.92 823.331 1589.56 823.979 1589.04 824.535C1588.52 825.086 1587.87 825.515 1587.09 825.822C1586.32 826.124 1585.43 826.275 1584.44 826.275ZM1600.06 826V807.818H1611.34V810.18H1602.81V815.719H1610.53V818.072H1602.81V826H1600.06ZM1619.24 826.275C1617.96 826.275 1616.85 825.982 1615.89 825.396C1614.94 824.81 1614.2 823.991 1613.67 822.937C1613.15 821.884 1612.88 820.653 1612.88 819.244C1612.88 817.829 1613.15 816.592 1613.67 815.533C1614.2 814.474 1614.94 813.651 1615.89 813.065C1616.85 812.479 1617.96 812.186 1619.24 812.186C1620.52 812.186 1621.64 812.479 1622.59 813.065C1623.54 813.651 1624.28 814.474 1624.81 815.533C1625.33 816.592 1625.6 817.829 1625.6 819.244C1625.6 820.653 1625.33 821.884 1624.81 822.937C1624.28 823.991 1623.54 824.81 1622.59 825.396C1621.64 825.982 1620.52 826.275 1619.24 826.275ZM1619.25 824.047C1620.08 824.047 1620.77 823.828 1621.31 823.39C1621.85 822.952 1622.26 822.369 1622.52 821.641C1622.78 820.913 1622.92 820.111 1622.92 819.235C1622.92 818.365 1622.78 817.566 1622.52 816.838C1622.26 816.104 1621.85 815.515 1621.31 815.071C1620.77 814.627 1620.08 814.406 1619.25 814.406C1618.42 814.406 1617.72 814.627 1617.17 815.071C1616.63 815.515 1616.22 816.104 1615.96 816.838C1615.7 817.566 1615.57 818.365 1615.57 819.235C1615.57 820.111 1615.7 820.913 1615.96 821.641C1616.22 822.369 1616.63 822.952 1617.17 823.39C1617.72 823.828 1618.42 824.047 1619.25 824.047ZM1631.22 817.903V826H1628.56V812.364H1631.11V814.583H1631.28C1631.59 813.861 1632.08 813.281 1632.75 812.843C1633.43 812.405 1634.28 812.186 1635.3 812.186C1636.23 812.186 1637.04 812.381 1637.74 812.772C1638.44 813.157 1638.98 813.731 1639.37 814.494C1639.75 815.258 1639.94 816.202 1639.94 817.326V826H1637.29V817.646C1637.29 816.658 1637.03 815.885 1636.52 815.329C1636 814.767 1635.29 814.485 1634.39 814.485C1633.78 814.485 1633.23 814.619 1632.75 814.885C1632.28 815.151 1631.9 815.542 1631.62 816.057C1631.35 816.566 1631.22 817.181 1631.22 817.903ZM1649.87 812.364V814.494H1642.42V812.364H1649.87ZM1644.42 809.097H1647.07V821.996C1647.07 822.511 1647.15 822.899 1647.3 823.159C1647.46 823.414 1647.65 823.588 1647.9 823.683C1648.15 823.772 1648.41 823.816 1648.7 823.816C1648.92 823.816 1649.1 823.801 1649.26 823.772C1649.42 823.742 1649.55 823.718 1649.64 823.701L1650.12 825.893C1649.96 825.953 1649.74 826.012 1649.46 826.071C1649.18 826.136 1648.82 826.172 1648.39 826.178C1647.7 826.189 1647.04 826.065 1646.44 825.805C1645.84 825.544 1645.35 825.142 1644.98 824.597C1644.6 824.053 1644.42 823.369 1644.42 822.547V809.097ZM1662.8 815.693L1660.4 816.119C1660.3 815.811 1660.14 815.518 1659.92 815.24C1659.7 814.962 1659.41 814.734 1659.05 814.556C1658.68 814.379 1658.22 814.29 1657.67 814.29C1656.92 814.29 1656.29 814.459 1655.79 814.796C1655.29 815.128 1655.03 815.557 1655.03 816.083C1655.03 816.539 1655.2 816.906 1655.54 817.184C1655.88 817.462 1656.42 817.69 1657.17 817.868L1659.34 818.365C1660.6 818.655 1661.53 819.102 1662.15 819.706C1662.76 820.309 1663.07 821.094 1663.07 822.058C1663.07 822.875 1662.83 823.603 1662.36 824.242C1661.89 824.875 1661.24 825.373 1660.4 825.734C1659.56 826.095 1658.59 826.275 1657.49 826.275C1655.97 826.275 1654.72 825.95 1653.76 825.299C1652.79 824.642 1652.2 823.71 1651.98 822.502L1654.55 822.112C1654.71 822.78 1655.03 823.286 1655.53 823.63C1656.03 823.967 1656.68 824.136 1657.48 824.136C1658.35 824.136 1659.04 823.955 1659.56 823.594C1660.08 823.227 1660.34 822.78 1660.34 822.254C1660.34 821.827 1660.18 821.469 1659.86 821.179C1659.55 820.889 1659.07 820.67 1658.42 820.522L1656.11 820.016C1654.84 819.726 1653.9 819.265 1653.29 818.631C1652.68 817.998 1652.38 817.196 1652.38 816.225C1652.38 815.421 1652.6 814.716 1653.05 814.113C1653.5 813.509 1654.13 813.038 1654.92 812.701C1655.71 812.358 1656.62 812.186 1657.64 812.186C1659.12 812.186 1660.28 812.506 1661.12 813.145C1661.97 813.778 1662.53 814.627 1662.8 815.693Z" fill="#FF6D7F"/>
<path d="M716.284 759.182V781H711.341L703.457 769.537H703.33V781H697.406V759.182H702.435L710.19 770.602H710.361V759.182H716.284ZM723.731 781.256C722.687 781.256 721.763 781.085 720.961 780.744C720.165 780.396 719.54 779.871 719.086 779.168C718.631 778.464 718.404 777.57 718.404 776.483C718.404 775.588 718.557 774.825 718.862 774.192C719.168 773.553 719.594 773.031 720.141 772.626C720.688 772.222 721.323 771.913 722.048 771.7C722.779 771.487 723.567 771.348 724.413 771.284C725.329 771.213 726.064 771.128 726.618 771.028C727.179 770.922 727.584 770.776 727.832 770.592C728.081 770.4 728.205 770.148 728.205 769.835V769.793C728.205 769.366 728.042 769.04 727.715 768.812C727.388 768.585 726.969 768.472 726.458 768.472C725.897 768.472 725.439 768.596 725.084 768.844C724.736 769.086 724.526 769.459 724.455 769.963H719.043C719.114 768.969 719.43 768.053 719.991 767.214C720.56 766.369 721.387 765.695 722.474 765.19C723.56 764.679 724.917 764.423 726.543 764.423C727.715 764.423 728.766 764.562 729.697 764.839C730.627 765.109 731.419 765.489 732.072 765.979C732.726 766.462 733.223 767.03 733.564 767.683C733.912 768.33 734.086 769.033 734.086 769.793V781H728.589V778.699H728.461C728.134 779.31 727.737 779.803 727.268 780.18C726.806 780.556 726.277 780.83 725.68 781C725.091 781.17 724.441 781.256 723.731 781.256ZM725.648 777.548C726.096 777.548 726.515 777.456 726.906 777.271C727.303 777.087 727.626 776.82 727.875 776.472C728.124 776.124 728.248 775.702 728.248 775.205V773.841C728.092 773.905 727.925 773.965 727.747 774.022C727.577 774.079 727.392 774.132 727.193 774.182C727.001 774.232 726.795 774.278 726.575 774.32C726.362 774.363 726.138 774.402 725.904 774.438C725.45 774.509 725.077 774.626 724.786 774.789C724.501 774.945 724.288 775.141 724.146 775.375C724.011 775.602 723.944 775.858 723.944 776.142C723.944 776.597 724.104 776.945 724.423 777.186C724.743 777.428 725.151 777.548 725.648 777.548ZM742.776 771.795V781H736.896V764.636H742.478V767.747H742.649C743.004 766.71 743.629 765.897 744.524 765.308C745.426 764.718 746.477 764.423 747.677 764.423C748.835 764.423 749.84 764.69 750.692 765.222C751.551 765.748 752.215 766.472 752.684 767.396C753.16 768.319 753.394 769.374 753.387 770.56V781H747.507V771.795C747.514 770.986 747.308 770.35 746.889 769.888C746.477 769.427 745.901 769.196 745.163 769.196C744.68 769.196 744.257 769.303 743.895 769.516C743.54 769.722 743.267 770.02 743.075 770.411C742.883 770.794 742.784 771.256 742.776 771.795ZM766.901 773.841V764.636H772.782V781H767.199V777.889H767.029C766.674 778.933 766.052 779.75 765.165 780.339C764.277 780.922 763.222 781.213 762.001 781.213C760.857 781.213 759.856 780.95 758.996 780.425C758.144 779.899 757.48 779.175 757.004 778.251C756.535 777.328 756.297 776.27 756.29 775.077V764.636H762.171V773.841C762.178 774.651 762.384 775.286 762.789 775.748C763.201 776.21 763.776 776.44 764.515 776.44C765.005 776.44 765.427 776.337 765.782 776.131C766.145 775.918 766.422 775.62 766.613 775.237C766.812 774.846 766.908 774.381 766.901 773.841ZM775.773 781V764.636H781.355V767.747H781.526C781.866 766.724 782.449 765.915 783.273 765.318C784.097 764.722 785.077 764.423 786.213 764.423C787.364 764.423 788.354 764.729 789.185 765.339C790.016 765.943 790.517 766.746 790.688 767.747H790.858C791.135 766.746 791.724 765.943 792.626 765.339C793.528 764.729 794.587 764.423 795.801 764.423C797.371 764.423 798.642 764.928 799.615 765.936C800.595 766.945 801.085 768.287 801.085 769.963V781H795.205V771.455C795.205 770.737 795.023 770.176 794.661 769.771C794.299 769.359 793.813 769.153 793.202 769.153C792.598 769.153 792.119 769.359 791.763 769.771C791.415 770.176 791.241 770.737 791.241 771.455V781H785.616V771.455C785.616 770.737 785.435 770.176 785.073 769.771C784.711 769.359 784.224 769.153 783.614 769.153C783.209 769.153 782.861 769.246 782.57 769.43C782.278 769.615 782.051 769.881 781.888 770.229C781.732 770.57 781.653 770.979 781.653 771.455V781H775.773ZM809.877 781V759.182H819.337C820.999 759.182 822.395 759.406 823.524 759.853C824.66 760.3 825.516 760.933 826.091 761.749C826.674 762.566 826.965 763.528 826.965 764.636C826.965 765.439 826.787 766.17 826.432 766.831C826.084 767.491 825.594 768.045 824.962 768.493C824.33 768.933 823.591 769.239 822.746 769.409V769.622C823.684 769.658 824.536 769.896 825.303 770.336C826.07 770.769 826.681 771.369 827.135 772.136C827.59 772.896 827.817 773.791 827.817 774.821C827.817 776.014 827.505 777.076 826.88 778.006C826.262 778.937 825.381 779.668 824.238 780.201C823.094 780.734 821.731 781 820.147 781H809.877ZM815.8 776.27H818.57C819.564 776.27 820.31 776.085 820.807 775.716C821.305 775.339 821.553 774.786 821.553 774.054C821.553 773.543 821.436 773.109 821.202 772.754C820.967 772.399 820.633 772.129 820.2 771.945C819.774 771.76 819.259 771.668 818.655 771.668H815.8V776.27ZM815.8 768.003H818.229C818.748 768.003 819.206 767.921 819.604 767.758C820.001 767.594 820.31 767.36 820.53 767.055C820.758 766.742 820.871 766.362 820.871 765.915C820.871 765.24 820.63 764.725 820.147 764.37C819.664 764.008 819.053 763.827 818.314 763.827H815.8V768.003ZM830.001 781V764.636H835.711V767.747H835.882C836.18 766.597 836.653 765.755 837.299 765.222C837.952 764.69 838.716 764.423 839.589 764.423C839.845 764.423 840.097 764.445 840.346 764.487C840.601 764.523 840.846 764.576 841.081 764.647V769.665C840.79 769.565 840.431 769.491 840.005 769.441C839.579 769.391 839.213 769.366 838.907 769.366C838.332 769.366 837.814 769.498 837.352 769.761C836.898 770.016 836.539 770.379 836.276 770.847C836.013 771.309 835.882 771.852 835.882 772.477V781H830.001ZM853.62 773.841V764.636H859.501V781H853.918V777.889H853.748C853.393 778.933 852.771 779.75 851.883 780.339C850.996 780.922 849.941 781.213 848.719 781.213C847.576 781.213 846.574 780.95 845.715 780.425C844.863 779.899 844.199 779.175 843.723 778.251C843.254 777.328 843.016 776.27 843.009 775.077V764.636H848.89V773.841C848.897 774.651 849.103 775.286 849.508 775.748C849.92 776.21 850.495 776.44 851.233 776.44C851.724 776.44 852.146 776.337 852.501 776.131C852.863 775.918 853.14 775.62 853.332 775.237C853.531 774.846 853.627 774.381 853.62 773.841ZM877.449 769.963H872.037C872.009 769.629 871.891 769.342 871.685 769.1C871.479 768.859 871.213 768.674 870.886 768.546C870.567 768.411 870.212 768.344 869.821 768.344C869.317 768.344 868.884 768.436 868.521 768.621C868.159 768.805 867.982 769.068 867.989 769.409C867.982 769.651 868.085 769.874 868.298 770.08C868.518 770.286 868.94 770.446 869.565 770.56L872.889 771.156C874.565 771.462 875.812 771.977 876.629 772.701C877.452 773.418 877.868 774.381 877.875 775.588C877.868 776.753 877.52 777.765 876.831 778.624C876.149 779.477 875.215 780.137 874.029 780.606C872.85 781.067 871.504 781.298 869.991 781.298C867.491 781.298 865.535 780.787 864.121 779.764C862.715 778.741 861.93 777.392 861.767 775.716H867.605C867.683 776.234 867.939 776.636 868.372 776.92C868.813 777.197 869.366 777.335 870.034 777.335C870.574 777.335 871.018 777.243 871.366 777.058C871.721 776.874 871.902 776.611 871.909 776.27C871.902 775.957 871.746 775.709 871.44 775.524C871.142 775.339 870.673 775.19 870.034 775.077L867.136 774.565C865.467 774.274 864.217 773.72 863.386 772.903C862.555 772.087 862.143 771.036 862.151 769.75C862.143 768.614 862.442 767.651 863.045 766.863C863.656 766.067 864.526 765.464 865.656 765.052C866.792 764.633 868.138 764.423 869.693 764.423C872.058 764.423 873.923 764.913 875.286 765.893C876.657 766.874 877.378 768.23 877.449 769.963ZM886.009 771.795V781H880.128V759.182H885.796V767.747H885.966C886.336 766.703 886.95 765.89 887.809 765.308C888.669 764.718 889.702 764.423 890.909 764.423C892.067 764.423 893.072 764.686 893.924 765.212C894.784 765.737 895.448 766.462 895.917 767.385C896.392 768.308 896.627 769.366 896.62 770.56V781H890.739V771.795C890.746 770.986 890.544 770.35 890.132 769.888C889.727 769.427 889.148 769.196 888.395 769.196C887.919 769.196 887.5 769.303 887.138 769.516C886.783 769.722 886.506 770.02 886.307 770.411C886.115 770.794 886.016 771.256 886.009 771.795ZM917.175 766C917.119 765.29 916.852 764.736 916.376 764.338C915.908 763.94 915.194 763.741 914.235 763.741C913.624 763.741 913.124 763.816 912.733 763.965C912.349 764.107 912.065 764.303 911.881 764.551C911.696 764.8 911.6 765.084 911.593 765.403C911.579 765.666 911.625 765.904 911.732 766.117C911.845 766.323 912.023 766.511 912.264 766.682C912.506 766.845 912.815 766.994 913.191 767.129C913.567 767.264 914.015 767.385 914.533 767.491L916.323 767.875C917.531 768.131 918.564 768.468 919.423 768.887C920.283 769.306 920.986 769.8 921.533 770.368C922.08 770.929 922.481 771.561 922.737 772.264C922.999 772.967 923.134 773.734 923.141 774.565C923.134 776 922.776 777.214 922.065 778.209C921.355 779.203 920.339 779.96 919.018 780.478C917.705 780.996 916.124 781.256 914.278 781.256C912.381 781.256 910.727 780.975 909.313 780.414C907.907 779.853 906.813 778.99 906.032 777.825C905.258 776.653 904.867 775.155 904.86 773.33H910.485C910.521 773.997 910.688 774.558 910.986 775.013C911.284 775.467 911.703 775.812 912.243 776.046C912.79 776.281 913.44 776.398 914.192 776.398C914.825 776.398 915.354 776.32 915.78 776.163C916.206 776.007 916.529 775.79 916.749 775.513C916.969 775.237 917.083 774.92 917.09 774.565C917.083 774.232 916.973 773.94 916.76 773.692C916.554 773.436 916.213 773.209 915.737 773.01C915.261 772.804 914.619 772.612 913.809 772.435L911.636 771.966C909.704 771.547 908.18 770.847 907.065 769.867C905.957 768.88 905.407 767.534 905.414 765.83C905.407 764.445 905.776 763.234 906.522 762.197C907.275 761.153 908.315 760.339 909.643 759.757C910.979 759.175 912.509 758.884 914.235 758.884C915.996 758.884 917.52 759.178 918.805 759.768C920.091 760.357 921.082 761.188 921.778 762.261C922.481 763.326 922.836 764.572 922.843 766H917.175ZM933.363 781.298C931.588 781.298 930.068 780.947 928.804 780.244C927.539 779.533 926.57 778.546 925.895 777.282C925.221 776.011 924.883 774.537 924.883 772.861C924.883 771.185 925.221 769.714 925.895 768.45C926.57 767.179 927.539 766.192 928.804 765.489C930.068 764.778 931.588 764.423 933.363 764.423C934.968 764.423 936.357 764.714 937.529 765.297C938.708 765.872 939.62 766.689 940.267 767.747C940.913 768.798 941.24 770.034 941.247 771.455H935.792C935.714 770.595 935.466 769.942 935.047 769.494C934.635 769.04 934.102 768.812 933.449 768.812C932.937 768.812 932.49 768.962 932.106 769.26C931.723 769.551 931.424 769.995 931.211 770.592C930.998 771.181 930.892 771.923 930.892 772.818C930.892 773.713 930.998 774.459 931.211 775.055C931.424 775.645 931.723 776.089 932.106 776.387C932.49 776.678 932.937 776.824 933.449 776.824C933.882 776.824 934.265 776.724 934.599 776.526C934.933 776.32 935.203 776.021 935.409 775.631C935.622 775.233 935.75 774.75 935.792 774.182H941.247C941.225 775.624 940.895 776.881 940.256 777.953C939.617 779.018 938.711 779.842 937.539 780.425C936.375 781.007 934.983 781.298 933.363 781.298ZM943.673 781V764.636H949.383V767.747H949.554C949.852 766.597 950.324 765.755 950.971 765.222C951.624 764.69 952.388 764.423 953.261 764.423C953.517 764.423 953.769 764.445 954.018 764.487C954.273 764.523 954.518 764.576 954.753 764.647V769.665C954.461 769.565 954.103 769.491 953.677 769.441C953.251 769.391 952.885 769.366 952.579 769.366C952.004 769.366 951.486 769.498 951.024 769.761C950.569 770.016 950.211 770.379 949.948 770.847C949.685 771.309 949.554 771.852 949.554 772.477V781H943.673ZM956.681 781V764.636H962.562V781H956.681ZM959.621 762.932C958.826 762.932 958.144 762.669 957.576 762.143C957.008 761.618 956.724 760.986 956.724 760.247C956.724 759.509 957.008 758.876 957.576 758.351C958.144 757.825 958.826 757.562 959.621 757.562C960.424 757.562 961.106 757.825 961.667 758.351C962.235 758.876 962.519 759.509 962.519 760.247C962.519 760.986 962.235 761.618 961.667 762.143C961.106 762.669 960.424 762.932 959.621 762.932ZM965.558 787.136V764.636H971.396V767.491H971.524C971.737 766.937 972.049 766.43 972.461 765.968C972.873 765.499 973.385 765.126 973.995 764.849C974.606 764.565 975.316 764.423 976.126 764.423C977.206 764.423 978.232 764.711 979.205 765.286C980.185 765.862 980.98 766.767 981.591 768.003C982.209 769.239 982.518 770.844 982.518 772.818C982.518 774.707 982.223 776.273 981.634 777.516C981.051 778.759 980.27 779.686 979.29 780.297C978.317 780.908 977.248 781.213 976.083 781.213C975.316 781.213 974.631 781.089 974.027 780.84C973.431 780.585 972.919 780.24 972.493 779.807C972.074 779.366 971.751 778.869 971.524 778.315H971.439V787.136H965.558ZM971.311 772.818C971.311 773.614 971.414 774.303 971.62 774.885C971.833 775.46 972.131 775.908 972.515 776.227C972.905 776.54 973.37 776.696 973.91 776.696C974.45 776.696 974.908 776.543 975.284 776.238C975.668 775.925 975.959 775.482 976.158 774.906C976.364 774.324 976.467 773.628 976.467 772.818C976.467 772.009 976.364 771.316 976.158 770.741C975.959 770.158 975.668 769.714 975.284 769.409C974.908 769.097 974.45 768.94 973.91 768.94C973.37 768.94 972.905 769.097 972.515 769.409C972.131 769.714 971.833 770.158 971.62 770.741C971.414 771.316 971.311 772.009 971.311 772.818ZM994.74 764.636V768.898H983.959V764.636H994.74ZM986.047 760.716H991.928V775.737C991.928 775.964 991.967 776.156 992.045 776.312C992.123 776.462 992.244 776.575 992.407 776.653C992.57 776.724 992.78 776.76 993.036 776.76C993.213 776.76 993.419 776.739 993.654 776.696C993.895 776.653 994.073 776.618 994.186 776.589L995.039 780.723C994.776 780.801 994.399 780.897 993.909 781.011C993.426 781.124 992.851 781.199 992.183 781.234C990.834 781.305 989.701 781.167 988.785 780.819C987.869 780.464 987.18 779.906 986.718 779.146C986.257 778.386 986.033 777.435 986.047 776.291V760.716Z" fill="#FF6D7F"/>
<path d="M1376.28 759.182V781H1371.34L1363.46 769.537H1363.33V781H1357.41V759.182H1362.43L1370.19 770.602H1370.36V759.182H1376.28ZM1383.73 781.256C1382.69 781.256 1381.76 781.085 1380.96 780.744C1380.17 780.396 1379.54 779.871 1379.09 779.168C1378.63 778.464 1378.4 777.57 1378.4 776.483C1378.4 775.588 1378.56 774.825 1378.86 774.192C1379.17 773.553 1379.59 773.031 1380.14 772.626C1380.69 772.222 1381.32 771.913 1382.05 771.7C1382.78 771.487 1383.57 771.348 1384.41 771.284C1385.33 771.213 1386.06 771.128 1386.62 771.028C1387.18 770.922 1387.58 770.776 1387.83 770.592C1388.08 770.4 1388.21 770.148 1388.21 769.835V769.793C1388.21 769.366 1388.04 769.04 1387.72 768.812C1387.39 768.585 1386.97 768.472 1386.46 768.472C1385.9 768.472 1385.44 768.596 1385.08 768.844C1384.74 769.086 1384.53 769.459 1384.46 769.963H1379.04C1379.11 768.969 1379.43 768.053 1379.99 767.214C1380.56 766.369 1381.39 765.695 1382.47 765.19C1383.56 764.679 1384.92 764.423 1386.54 764.423C1387.72 764.423 1388.77 764.562 1389.7 764.839C1390.63 765.109 1391.42 765.489 1392.07 765.979C1392.73 766.462 1393.22 767.03 1393.56 767.683C1393.91 768.33 1394.09 769.033 1394.09 769.793V781H1388.59V778.699H1388.46C1388.13 779.31 1387.74 779.803 1387.27 780.18C1386.81 780.556 1386.28 780.83 1385.68 781C1385.09 781.17 1384.44 781.256 1383.73 781.256ZM1385.65 777.548C1386.1 777.548 1386.51 777.456 1386.91 777.271C1387.3 777.087 1387.63 776.82 1387.88 776.472C1388.12 776.124 1388.25 775.702 1388.25 775.205V773.841C1388.09 773.905 1387.92 773.965 1387.75 774.022C1387.58 774.079 1387.39 774.132 1387.19 774.182C1387 774.232 1386.8 774.278 1386.58 774.32C1386.36 774.363 1386.14 774.402 1385.9 774.438C1385.45 774.509 1385.08 774.626 1384.79 774.789C1384.5 774.945 1384.29 775.141 1384.15 775.375C1384.01 775.602 1383.94 775.858 1383.94 776.142C1383.94 776.597 1384.1 776.945 1384.42 777.186C1384.74 777.428 1385.15 777.548 1385.65 777.548ZM1402.78 771.795V781H1396.9V764.636H1402.48V767.747H1402.65C1403 766.71 1403.63 765.897 1404.52 765.308C1405.43 764.718 1406.48 764.423 1407.68 764.423C1408.83 764.423 1409.84 764.69 1410.69 765.222C1411.55 765.748 1412.22 766.472 1412.68 767.396C1413.16 768.319 1413.39 769.374 1413.39 770.56V781H1407.51V771.795C1407.51 770.986 1407.31 770.35 1406.89 769.888C1406.48 769.427 1405.9 769.196 1405.16 769.196C1404.68 769.196 1404.26 769.303 1403.9 769.516C1403.54 769.722 1403.27 770.02 1403.07 770.411C1402.88 770.794 1402.78 771.256 1402.78 771.795ZM1426.9 773.841V764.636H1432.78V781H1427.2V777.889H1427.03C1426.67 778.933 1426.05 779.75 1425.16 780.339C1424.28 780.922 1423.22 781.213 1422 781.213C1420.86 781.213 1419.86 780.95 1419 780.425C1418.14 779.899 1417.48 779.175 1417 778.251C1416.54 777.328 1416.3 776.27 1416.29 775.077V764.636H1422.17V773.841C1422.18 774.651 1422.38 775.286 1422.79 775.748C1423.2 776.21 1423.78 776.44 1424.51 776.44C1425 776.44 1425.43 776.337 1425.78 776.131C1426.14 775.918 1426.42 775.62 1426.61 775.237C1426.81 774.846 1426.91 774.381 1426.9 773.841ZM1435.77 781V764.636H1441.36V767.747H1441.53C1441.87 766.724 1442.45 765.915 1443.27 765.318C1444.1 764.722 1445.08 764.423 1446.21 764.423C1447.36 764.423 1448.35 764.729 1449.19 765.339C1450.02 765.943 1450.52 766.746 1450.69 767.747H1450.86C1451.13 766.746 1451.72 765.943 1452.63 765.339C1453.53 764.729 1454.59 764.423 1455.8 764.423C1457.37 764.423 1458.64 764.928 1459.62 765.936C1460.6 766.945 1461.09 768.287 1461.09 769.963V781H1455.2V771.455C1455.2 770.737 1455.02 770.176 1454.66 769.771C1454.3 769.359 1453.81 769.153 1453.2 769.153C1452.6 769.153 1452.12 769.359 1451.76 769.771C1451.42 770.176 1451.24 770.737 1451.24 771.455V781H1445.62V771.455C1445.62 770.737 1445.44 770.176 1445.07 769.771C1444.71 769.359 1444.22 769.153 1443.61 769.153C1443.21 769.153 1442.86 769.246 1442.57 769.43C1442.28 769.615 1442.05 769.881 1441.89 770.229C1441.73 770.57 1441.65 770.979 1441.65 771.455V781H1435.77ZM1469.88 781V759.182H1479.29C1480.91 759.182 1482.33 759.501 1483.55 760.141C1484.76 760.78 1485.7 761.678 1486.38 762.836C1487.05 763.994 1487.39 765.347 1487.39 766.895C1487.39 768.457 1487.04 769.81 1486.35 770.954C1485.66 772.097 1484.69 772.978 1483.44 773.596C1482.2 774.214 1480.74 774.523 1479.08 774.523H1473.46V769.92H1477.89C1478.58 769.92 1479.18 769.8 1479.67 769.558C1480.16 769.31 1480.54 768.958 1480.81 768.504C1481.08 768.049 1481.21 767.513 1481.21 766.895C1481.21 766.27 1481.08 765.737 1480.81 765.297C1480.54 764.849 1480.16 764.509 1479.67 764.274C1479.18 764.033 1478.58 763.912 1477.89 763.912H1475.8V781H1469.88ZM1497.14 781.298C1495.39 781.298 1493.89 780.964 1492.62 780.297C1491.36 779.622 1490.4 778.656 1489.71 777.399C1489.04 776.135 1488.7 774.622 1488.7 772.861C1488.7 771.17 1489.04 769.693 1489.72 768.429C1490.41 767.165 1491.37 766.181 1492.61 765.478C1493.85 764.775 1495.32 764.423 1497.01 764.423C1498.25 764.423 1499.37 764.615 1500.37 764.999C1501.37 765.382 1502.22 765.94 1502.93 766.671C1503.64 767.396 1504.19 768.276 1504.58 769.313C1504.96 770.35 1505.15 771.518 1505.15 772.818V774.182H1490.53V770.943H1499.74C1499.73 770.474 1499.61 770.062 1499.38 769.707C1499.15 769.345 1498.84 769.065 1498.45 768.866C1498.07 768.66 1497.63 768.557 1497.14 768.557C1496.66 768.557 1496.23 768.66 1495.83 768.866C1495.43 769.065 1495.11 769.342 1494.87 769.697C1494.64 770.052 1494.51 770.467 1494.5 770.943V774.438C1494.5 774.963 1494.61 775.432 1494.83 775.844C1495.05 776.256 1495.36 776.579 1495.78 776.813C1496.19 777.048 1496.68 777.165 1497.27 777.165C1497.67 777.165 1498.04 777.108 1498.37 776.994C1498.72 776.881 1499.01 776.717 1499.25 776.504C1499.49 776.284 1499.67 776.021 1499.78 775.716H1505.15C1504.97 776.852 1504.53 777.839 1503.84 778.678C1503.15 779.509 1502.24 780.155 1501.1 780.616C1499.97 781.071 1498.65 781.298 1497.14 781.298ZM1513.43 771.795V781H1507.55V764.636H1513.13V767.747H1513.3C1513.66 766.71 1514.28 765.897 1515.18 765.308C1516.08 764.718 1517.13 764.423 1518.33 764.423C1519.49 764.423 1520.49 764.69 1521.35 765.222C1522.21 765.748 1522.87 766.472 1523.34 767.396C1523.81 768.319 1524.05 769.374 1524.04 770.56V781H1518.16V771.795C1518.17 770.986 1517.96 770.35 1517.54 769.888C1517.13 769.427 1516.56 769.196 1515.82 769.196C1515.33 769.196 1514.91 769.303 1514.55 769.516C1514.19 769.722 1513.92 770.02 1513.73 770.411C1513.54 770.794 1513.44 771.256 1513.43 771.795Z" fill="#FF6D7F"/>
</svg>
