<svg xmlns="http://www.w3.org/2000/svg" width="1920" height="1080" fill="none"><g clip-path="url(#a)"><path fill="#1A73E8" d="M534.752 190.008c-3.888 0-7.536-.72-10.944-2.16-3.408-1.488-6.408-3.504-9-6.048-2.544-2.592-4.56-5.592-6.048-9-1.44-3.408-2.16-7.056-2.16-10.944 0-3.888.72-7.536 2.16-10.944 1.488-3.408 3.504-6.408 6.048-9a28.035 28.035 0 0 1 9-6.048c3.408-1.488 7.056-2.232 10.944-2.232 3.888 0 7.536.744 10.944 2.232a28.035 28.035 0 0 1 9 6.048 28.035 28.035 0 0 1 6.048 9c1.488 3.408 2.232 7.056 2.232 10.944 0 3.888-.744 7.536-2.232 10.944a28.035 28.035 0 0 1-6.048 9c-2.592 2.544-5.592 4.56-9 6.048-3.408 1.44-7.056 2.16-10.944 2.16Zm-2.088-14.904h5.4v-25.848h-4.32l-6.48 3.528v5.184l5.4-2.664v19.8ZM534.752 486.538c3.888 0 7.536.744 10.944 2.232a28.035 28.035 0 0 1 9 6.048 28.035 28.035 0 0 1 6.048 9c1.488 3.408 2.232 7.056 2.232 10.944 0 3.888-.744 7.536-2.232 10.944a28.035 28.035 0 0 1-6.048 9c-2.592 2.544-5.592 4.56-9 6.048-3.408 1.44-7.056 2.16-10.944 2.16-3.888 0-7.536-.72-10.944-2.16-3.408-1.488-6.408-3.504-9-6.048-2.544-2.592-4.56-5.592-6.048-9-1.44-3.408-2.16-7.056-2.16-10.944 0-3.888.72-7.536 2.16-10.944 1.488-3.408 3.504-6.408 6.048-9a28.035 28.035 0 0 1 9-6.048c3.408-1.488 7.056-2.232 10.944-2.232Zm9.072 41.112v-4.464h-10.8l6.192-6.48c1.2-1.248 2.16-2.52 2.88-3.816.768-1.344 1.152-2.832 1.152-4.464 0-2.4-.864-4.176-2.592-5.328-1.68-1.2-3.912-1.8-6.696-1.8a18.2 18.2 0 0 0-3.96.432 10.16 10.16 0 0 0-3.384 1.44v4.824c1.152-.672 2.232-1.152 3.24-1.44a10.18 10.18 0 0 1 3.096-.504c3.12 0 4.68 1.152 4.68 3.456 0 .768-.216 1.536-.648 2.304-.384.768-.936 1.536-1.656 2.304l-9 9.936v3.6h17.496Z"/><path fill="#FF6D7F" d="M690.48 202.44h23.76v-26.4h-23.76v26.4ZM702.24 345c37.68 0 60.48-22.08 60.48-59.76v-2.64c0-37.44-23.04-59.76-60.48-59.76s-60.48 21.84-60.48 59.28v3.12c0 21.12 7.44 32.88 15.36 39.36h-58.56V345h103.68Zm-37.68-58.56v-5.04c0-24.72 12.96-38.4 37.68-38.4s37.68 13.68 37.68 38.4v5.04c0 24.72-14.16 38.16-38.88 38.16h-4.08c-24.24-.96-32.4-18-32.4-38.16Zm130.731-100.08v88.8h21.12v-88.8h-21.12Zm42.48 0v88.8h21.12v-88.8h-21.12Zm122.823-20.88h23.76v-26.4h-23.76v26.4Zm-46.56 95.04c0-30.96 14.4-53.76 48.96-53.76h57.116v-20.4h-57.116c-46.56 0-71.76 29.04-71.76 75.12v8.4c0 46.08 25.2 75.12 71.76 75.12h57.116v-20.4h-57.116c-34.56 0-48.96-22.8-48.96-53.76v-10.32ZM1039.31 345h152.16v-20.16l-61.68-138.48h-25.68l-64.8 138.48V345Zm25.2-21.12 51.84-115.2 48.72 115.2h-100.56Zm147.36-45.36h23.76v-26.4h-23.76v26.4Zm140.96-57.12h-33.6v-35.04h-21.12v35.04h-33.6v18.72h33.6v35.04h21.12v-35.04h33.6V221.4ZM690.48 562.44h23.76v-26.4h-23.76v26.4ZM702.24 705c37.68 0 60.48-22.08 60.48-59.76v-2.64c0-37.44-23.04-59.76-60.48-59.76s-60.48 21.84-60.48 59.28v3.12c0 21.12 7.44 32.88 15.36 39.36h-58.56V705h103.68Zm-37.68-58.56v-5.04c0-24.72 12.96-38.4 37.68-38.4s37.68 13.68 37.68 38.4v5.04c0 24.72-14.16 38.16-38.88 38.16h-4.08c-24.24-.96-32.4-18-32.4-38.16Zm130.731-100.08v88.8h21.12v-88.8h-21.12Zm42.48 0v88.8h21.12v-88.8h-21.12Zm122.823-20.88h23.76v-26.4h-23.76v26.4Zm-46.56 95.04c0-30.96 14.4-53.76 48.96-53.76h57.116v-20.4h-57.116c-46.56 0-71.76 29.04-71.76 75.12v8.4c0 46.08 25.2 75.12 71.76 75.12h57.116v-20.4h-57.116c-34.56 0-48.96-22.8-48.96-53.76v-10.32ZM1039.31 705h152.16v-20.16l-61.68-138.48h-25.68l-64.8 138.48V705Zm25.2-21.12 51.84-115.2 48.72 115.2h-100.56Zm147.36-45.36h23.76v-26.4h-23.76v26.4Zm-.16-65.52h23.76v-26.4h-23.76V573Z"/><path fill="#1A73E8" d="M278.6 813.8h-24.08v4.88h9.32V844h5.68v-25.32h9.08v-4.88Zm3.317 30.2h5.48v-11.8c0-4 1.84-5.6 4.68-5.6 2.6 0 4.24 1.64 4.24 5.36V844h5.48v-13.56c0-5.6-2.56-8.76-7.64-8.76-3.2 0-5.32 1.36-6.76 3.44V813.8h-5.48V844Zm34.154-22.32c-5.8 0-9.8 3.72-9.8 10.16v2.64c0 6.56 3.84 10.12 10.56 10.12 3.6 0 6-.52 8.64-2v-4.28c-2.96 1.56-5.12 1.76-7.76 1.76-3.48 0-5.64-1.48-5.88-4.96h14.12v-3.52c0-6.64-4.08-9.92-9.88-9.92Zm0 4.36c2.88 0 4.28 1.64 4.32 5.32h-8.56c.08-3.52 1.56-5.32 4.24-5.32Zm21.772-3.8 6.24 22.16h5.48l4.84-15.4 4.64 15.4h5.56l6.16-22.16h-5.24l-3.72 16.12-4.92-16.12h-4.84l-5 16.2-3.76-16.2h-5.44Zm45.353 8.6h7.48v7.56h4.32v-7.56h7.48v-4.24h-7.48v-7.52h-4.32v7.52h-7.48v4.24Zm42.878 22.04 2.92-8.88 8-21.76h-5.64l-5.4 16.12-5.48-16.12h-5.8l8.68 22.76-2.84 7.88h5.56Zm24.659-8.88h5.48v-17.48h5.04v-4.28h-5.04v-1.12c0-2.76 1.32-3.6 3.56-3.6.76 0 1.44.16 2 .32v-4.24c-.84-.24-2.08-.36-3.201-.36-4.919 0-7.839 2.64-7.839 7.36v1.64h-2.4v4.28h2.4V844Zm13.995-25.52h5.64v-5.44h-5.64v5.44Zm.08 25.52h5.48v-21.76h-5.48V844Zm11.094 0h5.48v-11.88c0-4 1.92-5.52 4.68-5.52 2.6 0 4.24 1.64 4.24 5.36V844h5.48v-13.56c0-5.6-2.56-8.76-7.64-8.76-3.2 0-5.32 1.36-6.76 3.44v-2.88h-5.48V844Zm42.953 0v-13.64c0-4.68-1.64-8.68-9.4-8.68-3.6 0-6.24.84-8.32 2.32v4.96c2.44-1.8 4.84-2.4 7.4-2.4 4.56 0 4.84 2.16 4.84 4.8h-4.4c-4.12 0-9.04 1.04-9.04 6.84 0 3.96 2.56 6.4 7.16 6.4 3 0 5-.96 6.28-3v2.4h5.48Zm-5.48-8.32c0 3.84-2.36 4.88-4.84 4.88-2.2 0-3.28-.88-3.28-2.68 0-2.52 1.84-2.84 4.4-2.84h3.72v.64Zm10.805 2.52c0 4.44 2.04 6.4 6.24 6.4 1.12 0 2.44-.2 3.28-.48v-4.44c-.44.2-1.16.32-1.96.32-1.68 0-2.08-.84-2.08-3.28V813.8h-5.48v24.4Zm32.068-16.52c-7.08 0-10.68 4-10.68 10.16v2.64c0 6.4 3.68 10.12 10.4 10.12 2.84 0 5.12-.64 6.76-1.72v-4.52c-2.24 1.32-4.24 1.76-6.24 1.76-3.24 0-5.28-1.88-5.28-5.44v-3c0-3.76 2-5.52 5.32-5.52 1.92 0 4.08.44 6.32 1.8v-4.8c-2.12-1.12-4.52-1.48-6.6-1.48Zm10.14 12.8c0 6.8 4.48 10.12 10.28 10.12 5.8 0 10.36-3.32 10.36-10.12v-2.64c0-6.84-4.56-10.16-10.36-10.16s-10.28 3.32-10.28 10.16v2.64Zm5.6-2.68c0-3.92 1.76-5.76 4.68-5.76s4.72 1.84 4.72 5.76v2.68c0 3.92-1.8 5.8-4.72 5.8s-4.68-1.88-4.68-5.8v-2.68Zm19.695 12.2h5.48v-11.92c0-3.64 1.64-5.48 4.44-5.48 2.6 0 4.08 1.64 4.08 5.36V844h5.48v-11.92c0-3.68 1.72-5.48 4.44-5.48 2.6 0 4.04 1.64 4.04 5.36V844h5.48v-13.56c0-5.6-2.36-8.76-7.44-8.76-3.6 0-5.88 1.36-7.4 3.88-1.08-2.52-3.24-3.88-6.6-3.88-3.12 0-5.16 1.28-6.52 3.32v-2.76h-5.48V844Zm38.867 0h5.48v-2.72c1.32 1.96 3.32 3.32 6.24 3.32 5.72 0 8.84-3.36 8.84-9.96v-3c0-6.16-3.04-9.96-8.84-9.96-2.88 0-4.92 1.2-6.24 3.04V813.8h-5.48V844Zm5.48-9.16v-4c.24-3 2.32-4.8 4.76-4.8 2.88 0 4.64 1.84 4.64 5.4v3.4c0 3.56-1.72 5.44-4.56 5.44s-4.84-2.4-4.84-5.44Zm19.674-16.36h5.64v-5.44h-5.64v5.44Zm.08 25.52h5.48v-21.76h-5.48V844Zm11.094 0h5.48v-11.88c0-4 1.92-5.52 4.68-5.52 2.6 0 4.24 1.64 4.24 5.36V844h5.48v-13.56c0-5.6-2.56-8.76-7.64-8.76-3.2 0-5.32 1.36-6.76 3.44v-2.88h-5.48V844Zm42.954 0v-13.64c0-4.68-1.64-8.68-9.4-8.68-3.6 0-6.24.84-8.32 2.32v4.96c2.44-1.8 4.84-2.4 7.4-2.4 4.56 0 4.84 2.16 4.84 4.8h-4.4c-4.12 0-9.04 1.04-9.04 6.84 0 3.96 2.56 6.4 7.16 6.4 3 0 5-.96 6.28-3v2.4h5.48Zm-5.48-8.32c0 3.84-2.36 4.88-4.84 4.88-2.2 0-3.28-.88-3.28-2.68 0-2.52 1.84-2.84 4.4-2.84h3.72v.64Zm12.249 1.52c0 4.72 2.52 7.4 7.32 7.4 1.24 0 2.8-.2 3.72-.44v-4.48c-.72.2-1.72.28-2.52.28-2.12 0-3.04-.84-3.04-3.56v-9.88h5.24v-4.28h-5.24V816h-5.48v6.24h-3.48v4.28h3.48v10.68Zm15.002-18.72h5.64v-5.44h-5.64v5.44Zm.08 25.52h5.48v-21.76h-5.48V844Zm10.174-9.52c0 6.8 4.48 10.12 10.28 10.12 5.8 0 10.36-3.32 10.36-10.12v-2.64c0-6.84-4.56-10.16-10.36-10.16s-10.28 3.32-10.28 10.16v2.64Zm5.6-2.68c0-3.92 1.76-5.76 4.68-5.76s4.72 1.84 4.72 5.76v2.68c0 3.92-1.8 5.8-4.72 5.8s-4.68-1.88-4.68-5.8v-2.68Zm19.695 12.2h5.48v-11.88c0-4 1.92-5.52 4.68-5.52 2.6 0 4.24 1.64 4.24 5.36V844h5.48v-13.56c0-5.6-2.56-8.76-7.64-8.76-3.2 0-5.32 1.36-6.76 3.44v-2.88h-5.48V844Zm34.047-1.16c2.08 1.08 5.52 1.68 8.04 1.68 4.56 0 9.72-1.88 9.72-7.24 0-4.36-2.72-6.04-6.76-6.4l-2.68-.24c-2.08-.2-3.56-.56-3.56-2.2 0-1.56 1.48-2.4 4.16-2.4 2.48 0 5.44.8 7.76 2.16v-4.84c-1.84-1.08-4.96-1.68-7.96-1.68-4.48 0-9.08 2.04-9.08 6.92 0 4.68 3.24 6.12 6.64 6.44l2.8.32c2.2.2 3.48.72 3.48 2.4 0 1.72-1.8 2.48-4.36 2.48-3.04 0-5.8-.8-8.2-2v4.6Zm31.044-21.16c-5.801 0-9.8 3.72-9.8 10.16v2.64c0 6.56 3.84 10.12 10.56 10.12 3.6 0 6-.52 8.64-2v-4.28c-2.96 1.56-5.12 1.76-7.76 1.76-3.48 0-5.64-1.48-5.88-4.96h14.12v-3.52c0-6.64-4.08-9.92-9.88-9.92Zm0 4.36c2.88 0 4.28 1.64 4.32 5.32h-8.56c.08-3.52 1.56-5.32 4.24-5.32Zm22.438 18.56c2.96 0 4.92-1.32 6.24-3.32v11.64h5.48v-30.68h-5.48v2.48c-1.32-1.84-3.36-3.04-6.24-3.04-5.8 0-8.8 3.8-8.8 9.96v3c0 6.6 3.08 9.96 8.8 9.96Zm-3.16-9.76v-3.4c0-3.56 1.8-5.4 4.64-5.4 2.4 0 4.44 1.72 4.76 4.6v4.2c0 3.04-1.96 5.44-4.84 5.44-2.84 0-4.56-1.88-4.56-5.44Zm20.314-12.6v13.6c0 5.6 2.68 8.72 7.76 8.72 3.12 0 5.16-1.24 6.48-3.28V844h5.48v-21.76h-5.48v11.84c0 3.64-1.72 5.56-4.56 5.56-2.6 0-4.2-1.4-4.2-5.12v-12.28h-5.48Zm34.236-.56c-5.8 0-9.8 3.72-9.8 10.16v2.64c0 6.56 3.84 10.12 10.56 10.12 3.6 0 6-.52 8.64-2v-4.28c-2.96 1.56-5.12 1.76-7.76 1.76-3.48 0-5.64-1.48-5.88-4.96h14.12v-3.52c0-6.64-4.08-9.92-9.88-9.92Zm0 4.36c2.88 0 4.28 1.64 4.32 5.32h-8.56c.08-3.52 1.56-5.32 4.24-5.32ZM920.589 844h5.48v-11.88c0-4 1.92-5.52 4.68-5.52 2.6 0 4.24 1.64 4.24 5.36V844h5.48v-13.56c0-5.6-2.56-8.76-7.64-8.76-3.2 0-5.32 1.36-6.76 3.44v-2.88h-5.48V844Zm35.034-22.32c-7.08 0-10.68 4-10.68 10.16v2.64c0 6.4 3.68 10.12 10.4 10.12 2.84 0 5.12-.64 6.76-1.72v-4.52c-2.24 1.32-4.24 1.76-6.24 1.76-3.24 0-5.28-1.88-5.28-5.44v-3c0-3.76 2-5.52 5.32-5.52 1.92 0 4.08.44 6.32 1.8v-4.8c-2.12-1.12-4.52-1.48-6.6-1.48Zm19.94 0c-5.8 0-9.8 3.72-9.8 10.16v2.64c0 6.56 3.84 10.12 10.56 10.12 3.6 0 6-.52 8.64-2v-4.28c-2.96 1.56-5.12 1.76-7.76 1.76-3.48 0-5.64-1.48-5.88-4.96h14.12v-3.52c0-6.64-4.08-9.92-9.88-9.92Zm0 4.36c2.88 0 4.28 1.64 4.32 5.32h-8.56c.08-3.52 1.56-5.32 4.24-5.32Zm23.852-7.56h5.645v-5.44h-5.645v5.44Zm.08 25.52h5.485v-21.76h-5.485V844Zm11.095 0h5.48v-11.88c0-4 1.92-5.52 4.68-5.52 2.6 0 4.24 1.64 4.24 5.36V844h5.48v-13.56c0-5.6-2.56-8.76-7.64-8.76-3.2 0-5.32 1.36-6.76 3.44v-2.88h-5.48V844Zm36.21-6.8c0 4.72 2.52 7.4 7.32 7.4 1.24 0 2.8-.2 3.72-.44v-4.48c-.72.2-1.72.28-2.52.28-2.12 0-3.04-.84-3.04-3.56v-9.88h5.24v-4.28h-5.24V816h-5.48v6.24h-3.48v4.28h3.48v10.68Zm15.08 6.8h5.48v-11.8c0-4 1.84-5.6 4.68-5.6 2.6 0 4.24 1.64 4.24 5.36V844h5.48v-13.56c0-5.6-2.56-8.76-7.64-8.76-3.2 0-5.32 1.36-6.76 3.44V813.8h-5.48V844Zm34.15-22.32c-5.8 0-9.8 3.72-9.8 10.16v2.64c0 6.56 3.84 10.12 10.56 10.12 3.6 0 6-.52 8.64-2v-4.28c-2.96 1.56-5.12 1.76-7.76 1.76-3.48 0-5.64-1.48-5.88-4.96h14.12v-3.52c0-6.64-4.08-9.92-9.88-9.92Zm0 4.36c2.88 0 4.28 1.64 4.32 5.32h-8.56c.08-3.52 1.56-5.32 4.24-5.32Zm33.69-4.36c-7.08 0-10.68 4-10.68 10.16v2.64c0 6.4 3.68 10.12 10.4 10.12 2.84 0 5.12-.64 6.76-1.72v-4.52c-2.24 1.32-4.24 1.76-6.24 1.76-3.24 0-5.28-1.88-5.28-5.44v-3c0-3.76 2-5.52 5.32-5.52 1.92 0 4.08.44 6.32 1.8v-4.8c-2.12-1.12-4.52-1.48-6.6-1.48Zm10.14 12.8c0 6.8 4.48 10.12 10.28 10.12 5.8 0 10.36-3.32 10.36-10.12v-2.64c0-6.84-4.56-10.16-10.36-10.16s-10.28 3.32-10.28 10.16v2.64Zm5.6-2.68c0-3.92 1.76-5.76 4.68-5.76s4.72 1.84 4.72 5.76v2.68c0 3.92-1.8 5.8-4.72 5.8s-4.68-1.88-4.68-5.8v-2.68Zm19.7 12.2h5.48v-11.92c0-3.64 1.64-5.48 4.44-5.48 2.6 0 4.08 1.64 4.08 5.36V844h5.48v-11.92c0-3.68 1.72-5.48 4.44-5.48 2.6 0 4.04 1.64 4.04 5.36V844h5.48v-13.56c0-5.6-2.36-8.76-7.44-8.76-3.6 0-5.88 1.36-7.4 3.88-1.08-2.52-3.24-3.88-6.6-3.88-3.12 0-5.16 1.28-6.52 3.32v-2.76h-5.48V844Zm38.87 0h5.48v-11.92c0-3.64 1.64-5.48 4.44-5.48 2.6 0 4.08 1.64 4.08 5.36V844h5.48v-11.92c0-3.68 1.72-5.48 4.44-5.48 2.6 0 4.04 1.64 4.04 5.36V844h5.48v-13.56c0-5.6-2.36-8.76-7.44-8.76-3.6 0-5.88 1.36-7.4 3.88-1.08-2.52-3.24-3.88-6.6-3.88-3.12 0-5.16 1.28-6.52 3.32v-2.76h-5.48V844Zm37.94-9.52c0 6.8 4.48 10.12 10.28 10.12 5.8 0 10.36-3.32 10.36-10.12v-2.64c0-6.84-4.56-10.16-10.36-10.16s-10.28 3.32-10.28 10.16v2.64Zm5.6-2.68c0-3.92 1.76-5.76 4.68-5.76s4.72 1.84 4.72 5.76v2.68c0 3.92-1.8 5.8-4.72 5.8s-4.68-1.88-4.68-5.8v-2.68Zm19.7 12.2h5.48v-11.88c0-4 1.92-5.52 4.68-5.52 2.6 0 4.24 1.64 4.24 5.36V844h5.48v-13.56c0-5.6-2.56-8.76-7.64-8.76-3.2 0-5.32 1.36-6.76 3.44v-2.88h-5.48V844Zm56.97-20.32c0-5.44-3.64-9.88-10.52-9.88h-11.2V844h5.68v-10.24h5.68c6.64 0 10.36-4.28 10.36-10.08Zm-11.56-5.04c4.04 0 5.8 1.6 5.8 5.24 0 2.96-1.44 5.08-5.56 5.08h-4.72v-10.32h4.48Zm15.37 19.56c0 4.44 2.04 6.4 6.24 6.4 1.12 0 2.44-.2 3.28-.48v-4.44c-.44.2-1.16.32-1.96.32-1.68 0-2.08-.84-2.08-3.28V813.8h-5.48v24.4Zm30.57 5.8v-13.64c0-4.68-1.64-8.68-9.4-8.68-3.6 0-6.24.84-8.32 2.32v4.96c2.44-1.8 4.84-2.4 7.4-2.4 4.56 0 4.84 2.16 4.84 4.8h-4.4c-4.12 0-9.04 1.04-9.04 6.84 0 3.96 2.56 6.4 7.16 6.4 3 0 5-.96 6.28-3v2.4h5.48Zm-5.48-8.32c0 3.84-2.36 4.88-4.84 4.88-2.2 0-3.28-.88-3.28-2.68 0-2.52 1.84-2.84 4.4-2.84h3.72v.64Zm10.85-17.2h5.64v-5.44h-5.64v5.44Zm.08 25.52h5.48v-21.76h-5.48V844Zm11.09 0h5.48v-11.88c0-4 1.92-5.52 4.68-5.52 2.6 0 4.24 1.64 4.24 5.36V844h5.48v-13.56c0-5.6-2.56-8.76-7.64-8.76-3.2 0-5.32 1.36-6.76 3.44v-2.88h-5.48V844Zm24.63-1.16c2.08 1.08 5.52 1.68 8.04 1.68 4.56 0 9.72-1.88 9.72-7.24 0-4.36-2.72-6.04-6.76-6.4l-2.68-.24c-2.08-.2-3.56-.56-3.56-2.2 0-1.56 1.48-2.4 4.16-2.4 2.48 0 5.44.8 7.76 2.16v-4.84c-1.84-1.08-4.96-1.68-7.96-1.68-4.48 0-9.08 2.04-9.08 6.92 0 4.68 3.24 6.12 6.64 6.44l2.8.32c2.2.2 3.48.72 3.48 2.4 0 1.72-1.8 2.48-4.36 2.48-3.04 0-5.8-.8-8.2-2v4.6Zm52.02-27.76c-1.56-1-4.48-1.84-8.04-1.84-7.8 0-13.08 4.88-13.08 13.96v3.68c0 9.08 5.32 13.72 13.04 13.72 2.88 0 5.96-.52 8-1.6v-5.04c-2.2 1.32-5.28 1.64-7.52 1.64-4.6 0-7.8-2.24-7.8-8.44v-4.24c0-5.88 3-8.68 7.72-8.68 3 0 5.96.88 7.68 2.32v-5.48Zm4.33 28.92h5.48v-10c.04-4.16 2.24-6.96 5.6-6.96.4 0 .76.04 1.12.12v-5.48c-3.08 0-5.32 1.68-6.72 4.04v-3.48h-5.48V844Zm24.23-22.32c-5.8 0-9.8 3.72-9.8 10.16v2.64c0 6.56 3.84 10.12 10.56 10.12 3.6 0 6-.52 8.64-2v-4.28c-2.96 1.56-5.12 1.76-7.76 1.76-3.48 0-5.64-1.48-5.88-4.96h14.12v-3.52c0-6.64-4.08-9.92-9.88-9.92Zm0 4.36c2.88 0 4.28 1.64 4.32 5.32h-8.56c.08-3.52 1.56-5.32 4.24-5.32Zm23.4-4.36c-5.8 0-9.8 3.72-9.8 10.16v2.64c0 6.56 3.84 10.12 10.56 10.12 3.6 0 6-.52 8.64-2v-4.28c-2.96 1.56-5.12 1.76-7.76 1.76-3.48 0-5.64-1.48-5.88-4.96h14.12v-3.52c0-6.64-4.08-9.92-9.88-9.92Zm0 4.36c2.88 0 4.28 1.64 4.32 5.32h-8.56c.08-3.52 1.56-5.32 4.24-5.32Zm23.29 16.8c2.08 1.08 5.52 1.68 8.04 1.68 4.56 0 9.72-1.88 9.72-7.24 0-4.36-2.72-6.04-6.76-6.4l-2.68-.24c-2.08-.2-3.56-.56-3.56-2.2 0-1.56 1.48-2.4 4.16-2.4 2.48 0 5.44.8 7.76 2.16v-4.84c-1.84-1.08-4.96-1.68-7.96-1.68-4.48 0-9.08 2.04-9.08 6.92 0 4.68 3.24 6.12 6.64 6.44l2.8.32c2.2.2 3.48.72 3.48 2.4 0 1.72-1.8 2.48-4.36 2.48-3.04 0-5.8-.8-8.2-2v4.6Zm23.6-5.64c0 4.72 2.52 7.4 7.32 7.4 1.24 0 2.8-.2 3.72-.44v-4.48c-.72.2-1.72.28-2.52.28-2.12 0-3.04-.84-3.04-3.56v-9.88h5.24v-4.28h-5.24V816h-5.48v6.24h-3.48v4.28h3.48v10.68Zm24.13 15.68 2.92-8.88 8-21.76h-5.64l-5.4 16.12-5.48-16.12h-5.8l8.68 22.76-2.84 7.88h5.56Zm14-14.68c0 4.44 2.04 6.4 6.24 6.4 1.12 0 2.44-.2 3.28-.48v-4.44c-.44.2-1.16.32-1.96.32-1.68 0-2.08-.84-2.08-3.28V813.8h-5.48v24.4Zm21.77-16.52c-5.8 0-9.8 3.72-9.8 10.16v2.64c0 6.56 3.84 10.12 10.56 10.12 3.6 0 6-.52 8.64-2v-4.28c-2.96 1.56-5.12 1.76-7.76 1.76-3.48 0-5.64-1.48-5.88-4.96h14.12v-3.52c0-6.64-4.08-9.92-9.88-9.92Zm0 4.36c2.88 0 4.28 1.64 4.32 5.32h-8.56c.08-3.52 1.56-5.32 4.24-5.32Zm30.9 26.84h5.08c-2.92-4.16-5.8-15-5.8-22.76 0-7.72 2.52-17.48 5.8-21.64h-5.08c-3.52 4.56-6.16 13.4-6.16 21.64 0 8.28 2.76 18.68 6.16 22.76Zm6.24-29.28 6.24-3.24V844h5.68v-30.2h-4.48l-7.44 4.24v5.56Zm20.72-15.12h-5.04c2.92 4.16 5.8 13.92 5.8 21.68 0 7.72-2.52 18.56-5.8 22.72h5.04c3.52-4.56 6.2-14.48 6.2-22.72 0-8.28-2.8-17.6-6.2-21.68Zm11.48 40.68h4.68l2.08-10.92h-5.48l-1.28 10.92ZM266.56 881.68c-7.08 0-10.68 4-10.68 10.16v2.64c0 6.4 3.68 10.12 10.4 10.12 2.84 0 5.12-.64 6.76-1.72v-4.52c-2.24 1.32-4.24 1.76-6.24 1.76-3.24 0-5.28-1.88-5.28-5.44v-3c0-3.76 2-5.52 5.32-5.52 1.92 0 4.08.44 6.32 1.8v-4.8c-2.12-1.12-4.52-1.48-6.6-1.48Zm10.14 12.8c0 6.8 4.48 10.12 10.28 10.12 5.8 0 10.36-3.32 10.36-10.12v-2.64c0-6.84-4.56-10.16-10.36-10.16S276.7 885 276.7 891.84v2.64Zm5.6-2.68c0-3.92 1.76-5.76 4.68-5.76s4.72 1.84 4.72 5.76v2.68c0 3.92-1.8 5.8-4.72 5.8s-4.68-1.88-4.68-5.8v-2.68Zm19.695 12.2h5.48v-11.92c0-3.64 1.64-5.48 4.44-5.48 2.6 0 4.08 1.64 4.08 5.36V904h5.48v-11.92c0-3.68 1.72-5.48 4.44-5.48 2.6 0 4.04 1.64 4.04 5.36V904h5.48v-13.56c0-5.6-2.36-8.76-7.44-8.76-3.6 0-5.88 1.36-7.4 3.88-1.08-2.52-3.24-3.88-6.6-3.88-3.12 0-5.16 1.28-6.52 3.32v-2.76h-5.48V904Zm38.868 8.88h5.48V901.6c1.32 1.8 3.28 3 6.08 3 5.72 0 9-3.36 9-9.96v-3c0-6.16-3.04-9.96-8.84-9.96-2.88 0-4.92 1.2-6.24 3.04v-2.48h-5.48v30.64Zm5.48-18.04v-4c.24-3 2.32-4.8 4.76-4.8 2.88 0 4.64 1.84 4.64 5.4v3.4c0 3.56-1.72 5.44-4.56 5.44-2.841 0-4.84-2.4-4.84-5.44Zm37.434 9.16v-13.64c0-4.68-1.64-8.68-9.4-8.68-3.6 0-6.24.84-8.32 2.32v4.96c2.44-1.8 4.84-2.4 7.4-2.4 4.56 0 4.84 2.16 4.84 4.8h-4.4c-4.12 0-9.04 1.04-9.04 6.84 0 3.96 2.56 6.4 7.16 6.4 3 0 5-.96 6.28-3v2.4h5.48Zm-5.48-8.32c0 3.84-2.36 4.88-4.84 4.88-2.2 0-3.28-.88-3.28-2.68 0-2.52 1.84-2.84 4.4-2.84h3.72v.64Zm10.925 8.32h5.48v-10c.04-4.16 2.24-6.96 5.6-6.96.4 0 .76.04 1.12.12v-5.48c-3.08 0-5.32 1.68-6.72 4.04v-3.48h-5.48V904Zm24.231-22.32c-5.8 0-9.8 3.72-9.8 10.16v2.64c0 6.56 3.84 10.12 10.56 10.12 3.6 0 6-.52 8.64-2v-4.28c-2.96 1.56-5.12 1.76-7.76 1.76-3.48 0-5.64-1.48-5.88-4.96h14.12v-3.52c0-6.64-4.08-9.92-9.88-9.92Zm0 4.36c2.88 0 4.28 1.64 4.32 5.32h-8.56c.08-3.52 1.56-5.32 4.24-5.32Zm22.439 18.56c2.96 0 4.92-1.32 6.24-3.32V904h5.48v-30.2h-5.48v10.92c-1.32-1.84-3.36-3.04-6.24-3.04-5.8 0-8.8 3.8-8.8 9.96v3c0 6.6 3.08 9.96 8.8 9.96Zm-3.16-9.76v-3.4c0-3.56 1.8-5.4 4.64-5.4 2.4 0 4.44 1.72 4.76 4.6v4.2c0 3.04-1.96 5.44-4.84 5.44-2.84 0-4.56-1.88-4.56-5.44Zm31.408 2.36c0 4.72 2.52 7.4 7.32 7.4 1.24 0 2.8-.2 3.72-.44v-4.48c-.72.2-1.72.28-2.52.28-2.12 0-3.04-.84-3.04-3.56v-9.88h5.24v-4.28h-5.24V876h-5.48v6.24h-3.48v4.28h3.48v10.68Zm13.928-2.72c0 6.8 4.48 10.12 10.28 10.12 5.8 0 10.36-3.32 10.36-10.12v-2.64c0-6.84-4.56-10.16-10.36-10.16s-10.28 3.32-10.28 10.16v2.64Zm5.6-2.68c0-3.92 1.76-5.76 4.68-5.76s4.72 1.84 4.72 5.76v2.68c0 3.92-1.8 5.8-4.72 5.8s-4.68-1.88-4.68-5.8v-2.68Zm30.629 5.4c0 4.72 2.52 7.4 7.32 7.4 1.24 0 2.8-.2 3.72-.44v-4.48c-.72.2-1.72.28-2.52.28-2.12 0-3.04-.84-3.04-3.56v-9.88h5.24v-4.28h-5.24V876h-5.48v6.24h-3.48v4.28h3.48v10.68Zm15.081 6.8h5.48v-11.8c0-4 1.84-5.6 4.68-5.6 2.6 0 4.24 1.64 4.24 5.36V904h5.48v-13.56c0-5.6-2.56-8.76-7.64-8.76-3.2 0-5.32 1.36-6.76 3.44V873.8h-5.48V904Zm34.154-22.32c-5.8 0-9.8 3.72-9.8 10.16v2.64c0 6.56 3.84 10.12 10.56 10.12 3.6 0 6-.52 8.64-2v-4.28c-2.96 1.56-5.12 1.76-7.76 1.76-3.48 0-5.64-1.48-5.88-4.96h14.12v-3.52c0-6.64-4.08-9.92-9.88-9.92Zm0 4.36c2.88 0 4.28 1.64 4.32 5.32h-8.56c.08-3.52 1.56-5.32 4.24-5.32ZM605.144 904v-13.64c0-4.68-1.64-8.68-9.4-8.68-3.6 0-6.24.84-8.32 2.32v4.96c2.44-1.8 4.84-2.4 7.4-2.4 4.56 0 4.84 2.16 4.84 4.8h-4.4c-4.12 0-9.04 1.04-9.04 6.84 0 3.96 2.56 6.4 7.16 6.4 3 0 5-.96 6.28-3v2.4h5.48Zm-5.48-8.32c0 3.84-2.36 4.88-4.84 4.88-2.2 0-3.28-.88-3.28-2.68 0-2.52 1.84-2.84 4.4-2.84h3.72v.64Zm10.805 2.52c0 4.44 2.04 6.4 6.24 6.4 1.12 0 2.44-.2 3.28-.48v-4.44c-.44.2-1.16.32-1.96.32-1.68 0-2.08-.84-2.08-3.28V873.8h-5.48v24.4Zm14.14-1c0 4.72 2.52 7.4 7.32 7.4 1.24 0 2.8-.2 3.72-.44v-4.48c-.72.2-1.72.28-2.52.28-2.12 0-3.04-.84-3.04-3.56v-9.88h5.24v-4.28h-5.24V876h-5.48v6.24h-3.48v4.28h3.48v10.68Zm23.727-15.52c-5.8 0-9.8 3.72-9.8 10.16v2.64c0 6.56 3.84 10.12 10.56 10.12 3.6 0 6-.52 8.64-2v-4.28c-2.96 1.56-5.12 1.76-7.76 1.76-3.48 0-5.64-1.48-5.88-4.96h14.12v-3.52c0-6.64-4.08-9.92-9.88-9.92Zm0 4.36c2.88 0 4.28 1.64 4.32 5.32h-8.56c.08-3.52 1.56-5.32 4.24-5.32ZM662.855 904h5.48v-10c.04-4.16 2.24-6.96 5.6-6.96.4 0 .76.04 1.12.12v-5.48c-3.08 0-5.32 1.68-6.72 4.04v-3.48h-5.48V904Zm15.859 0h5.48v-11.88c0-4 1.92-5.52 4.68-5.52 2.6 0 4.24 1.64 4.24 5.36V904h5.48v-13.56c0-5.6-2.56-8.76-7.64-8.76-3.2 0-5.32 1.36-6.76 3.44v-2.88h-5.48V904Zm42.954 0v-13.64c0-4.68-1.64-8.68-9.4-8.68-3.6 0-6.24.84-8.32 2.32v4.96c2.44-1.8 4.84-2.4 7.4-2.4 4.56 0 4.84 2.16 4.84 4.8h-4.4c-4.12 0-9.04 1.04-9.04 6.84 0 3.96 2.56 6.4 7.16 6.4 3 0 5-.96 6.28-3v2.4h5.48Zm-5.48-8.32c0 3.84-2.36 4.88-4.84 4.88-2.2 0-3.28-.88-3.28-2.68 0-2.52 1.84-2.84 4.4-2.84h3.72v.64Zm12.249 1.52c0 4.72 2.52 7.4 7.32 7.4 1.24 0 2.8-.2 3.72-.44v-4.48c-.72.2-1.72.28-2.52.28-2.12 0-3.04-.84-3.04-3.56v-9.88h5.24v-4.28h-5.24V876h-5.48v6.24h-3.48v4.28h3.48v10.68Zm15.002-18.72h5.64v-5.44h-5.64v5.44Zm.08 25.52h5.48v-21.76h-5.48V904Zm30.893-21.76h-5.639l-5.32 16.12-5.52-16.12h-5.76l8.44 22.16h5.48l8.319-22.16Zm11.581-.56c-5.801 0-9.8 3.72-9.8 10.16v2.64c0 6.56 3.84 10.12 10.56 10.12 3.6 0 6-.52 8.64-2v-4.28c-2.96 1.56-5.12 1.76-7.76 1.76-3.48 0-5.64-1.48-5.88-4.96h14.12v-3.52c0-6.64-4.08-9.92-9.88-9.92Zm0 4.36c2.88 0 4.28 1.64 4.32 5.32h-8.56c.08-3.52 1.56-5.32 4.24-5.32Zm23.292 16.8c2.08 1.08 5.52 1.68 8.04 1.68 4.56 0 9.72-1.88 9.72-7.24 0-4.36-2.72-6.04-6.76-6.4l-2.68-.24c-2.08-.2-3.56-.56-3.56-2.2 0-1.56 1.48-2.4 4.16-2.4 2.48 0 5.44.8 7.76 2.16v-4.84c-1.84-1.08-4.96-1.68-7.96-1.68-4.48 0-9.08 2.04-9.08 6.92 0 4.68 3.24 6.12 6.64 6.44l2.8.32c2.2.2 3.48.72 3.48 2.4 0 1.72-1.8 2.48-4.36 2.48-3.04 0-5.8-.8-8.2-2v4.6Zm31.043-21.16c-5.8 0-9.8 3.72-9.8 10.16v2.64c0 6.56 3.84 10.12 10.56 10.12 3.6 0 6-.52 8.64-2v-4.28c-2.96 1.56-5.12 1.76-7.76 1.76-3.48 0-5.64-1.48-5.88-4.96h14.12v-3.52c0-6.64-4.08-9.92-9.88-9.92Zm0 4.36c2.88 0 4.28 1.64 4.32 5.32h-8.56c.08-3.52 1.56-5.32 4.24-5.32Zm22.439 18.56c2.96 0 4.92-1.32 6.24-3.32v11.64h5.48v-30.68h-5.48v2.48c-1.32-1.84-3.36-3.04-6.24-3.04-5.8 0-8.8 3.8-8.8 9.96v3c0 6.6 3.08 9.96 8.8 9.96Zm-3.16-9.76v-3.4c0-3.56 1.8-5.4 4.64-5.4 2.4 0 4.44 1.72 4.76 4.6v4.2c0 3.04-1.96 5.44-4.84 5.44-2.84 0-4.56-1.88-4.56-5.44Zm20.314-12.6v13.6c0 5.6 2.68 8.72 7.76 8.72 3.12 0 5.16-1.24 6.48-3.28V904h5.48v-21.76h-5.48v11.84c0 3.64-1.72 5.56-4.56 5.56-2.6 0-4.2-1.4-4.2-5.12v-12.28h-5.48Zm34.236-.56c-5.8 0-9.8 3.72-9.8 10.16v2.64c0 6.56 3.84 10.12 10.56 10.12 3.6 0 6-.52 8.64-2v-4.28c-2.96 1.56-5.12 1.76-7.76 1.76-3.48 0-5.64-1.48-5.88-4.96h14.12v-3.52c0-6.64-4.08-9.92-9.88-9.92Zm0 4.36c2.88 0 4.28 1.64 4.32 5.32h-8.56c.08-3.52 1.56-5.32 4.24-5.32ZM928.675 904h5.48v-11.88c0-4 1.92-5.52 4.68-5.52 2.6 0 4.24 1.64 4.24 5.36V904h5.48v-13.56c0-5.6-2.56-8.76-7.64-8.76-3.2 0-5.32 1.36-6.76 3.44v-2.88h-5.48V904Zm35.033-22.32c-7.08 0-10.68 4-10.68 10.16v2.64c0 6.4 3.68 10.12 10.4 10.12 2.84 0 5.12-.64 6.76-1.72v-4.52c-2.24 1.32-4.24 1.76-6.24 1.76-3.24 0-5.28-1.88-5.28-5.44v-3c0-3.76 2-5.52 5.32-5.52 1.92 0 4.08.44 6.32 1.8v-4.8c-2.12-1.12-4.52-1.48-6.6-1.48Zm19.941 0c-5.8 0-9.8 3.72-9.8 10.16v2.64c0 6.56 3.84 10.12 10.56 10.12 3.6 0 6-.52 8.64-2v-4.28c-2.96 1.56-5.12 1.76-7.76 1.76-3.48 0-5.64-1.48-5.88-4.96h14.12v-3.52c0-6.64-4.08-9.92-9.88-9.92Zm0 4.36c2.88 0 4.28 1.64 4.32 5.32h-8.56c.08-3.52 1.56-5.32 4.24-5.32Zm23.851-7.56h5.64v-5.44h-5.64v5.44Zm.08 25.52h5.48v-21.76h-5.48V904Zm11.1 0h5.48v-11.88c0-4 1.92-5.52 4.68-5.52 2.6 0 4.24 1.64 4.24 5.36V904h5.48v-13.56c0-5.6-2.56-8.76-7.64-8.76-3.2 0-5.32 1.36-6.76 3.44v-2.88h-5.48V904Zm44.44-22.32c-7.08 0-10.68 4-10.68 10.16v2.64c0 6.4 3.68 10.12 10.4 10.12 2.84 0 5.12-.64 6.76-1.72v-4.52c-2.24 1.32-4.24 1.76-6.24 1.76-3.24 0-5.28-1.88-5.28-5.44v-3c0-3.76 2-5.52 5.32-5.52 1.92 0 4.08.44 6.32 1.8v-4.8c-2.12-1.12-4.52-1.48-6.6-1.48Zm10.14 12.8c0 6.8 4.48 10.12 10.28 10.12 5.8 0 10.36-3.32 10.36-10.12v-2.64c0-6.84-4.56-10.16-10.36-10.16s-10.28 3.32-10.28 10.16v2.64Zm5.6-2.68c0-3.92 1.76-5.76 4.68-5.76s4.72 1.84 4.72 5.76v2.68c0 3.92-1.8 5.8-4.72 5.8s-4.68-1.88-4.68-5.8v-2.68Zm19.7 12.2h5.48v-11.92c0-3.64 1.64-5.48 4.44-5.48 2.6 0 4.08 1.64 4.08 5.36V904h5.48v-11.92c0-3.68 1.72-5.48 4.44-5.48 2.6 0 4.04 1.64 4.04 5.36V904h5.48v-13.56c0-5.6-2.36-8.76-7.44-8.76-3.6 0-5.88 1.36-7.4 3.88-1.08-2.52-3.24-3.88-6.6-3.88-3.12 0-5.16 1.28-6.52 3.32v-2.76h-5.48V904Zm38.87 0h5.48v-11.92c0-3.64 1.64-5.48 4.44-5.48 2.6 0 4.08 1.64 4.08 5.36V904h5.48v-11.92c0-3.68 1.72-5.48 4.44-5.48 2.6 0 4.04 1.64 4.04 5.36V904h5.48v-13.56c0-5.6-2.36-8.76-7.44-8.76-3.6 0-5.88 1.36-7.4 3.88-1.08-2.52-3.24-3.88-6.6-3.88-3.12 0-5.16 1.28-6.52 3.32v-2.76h-5.48V904Zm38.7-21.76v13.6c0 5.6 2.68 8.72 7.76 8.72 3.12 0 5.16-1.24 6.48-3.28V904h5.48v-21.76h-5.48v11.84c0 3.64-1.72 5.56-4.56 5.56-2.6 0-4.2-1.4-4.2-5.12v-12.28h-5.48Zm25.36 21.76h5.48v-11.88c0-4 1.92-5.52 4.68-5.52 2.6 0 4.24 1.64 4.24 5.36V904h5.48v-13.56c0-5.6-2.56-8.76-7.64-8.76-3.2 0-5.32 1.36-6.76 3.44v-2.88h-5.48V904Zm25.19-25.52h5.64v-5.44h-5.64v5.44Zm.08 25.52h5.48v-21.76h-5.48V904Zm12.61-6.8c0 4.72 2.52 7.4 7.32 7.4 1.24 0 2.8-.2 3.72-.44v-4.48c-.72.2-1.72.28-2.52.28-2.12 0-3.04-.84-3.04-3.56v-9.88h5.24v-4.28h-5.24V876h-5.48v6.24h-3.48v4.28h3.48v10.68Zm15.01-18.72h5.64v-5.44h-5.64v5.44Zm.08 25.52h5.48v-21.76h-5.48V904Zm19.97-22.32c-5.8 0-9.8 3.72-9.8 10.16v2.64c0 6.56 3.84 10.12 10.56 10.12 3.6 0 6-.52 8.64-2v-4.28c-2.96 1.56-5.12 1.76-7.76 1.76-3.48 0-5.64-1.48-5.88-4.96h14.12v-3.52c0-6.64-4.08-9.92-9.88-9.92Zm0 4.36c2.88 0 4.28 1.64 4.32 5.32h-8.56c.08-3.52 1.56-5.32 4.24-5.32Zm13.88 16.8c2.08 1.08 5.52 1.68 8.04 1.68 4.56 0 9.72-1.88 9.72-7.24 0-4.36-2.72-6.04-6.76-6.4l-2.68-.24c-2.08-.2-3.56-.56-3.56-2.2 0-1.56 1.48-2.4 4.16-2.4 2.48 0 5.44.8 7.76 2.16v-4.84c-1.84-1.08-4.96-1.68-7.96-1.68-4.48 0-9.08 2.04-9.08 6.92 0 4.68 3.24 6.12 6.64 6.44l2.8.32c2.2.2 3.48.72 3.48 2.4 0 1.72-1.8 2.48-4.36 2.48-3.04 0-5.8-.8-8.2-2v4.6Zm31.42-20.6v13.6c0 5.6 2.68 8.72 7.76 8.72 3.12 0 5.16-1.24 6.48-3.28V904h5.48v-21.76h-5.48v11.84c0 3.64-1.72 5.56-4.56 5.56-2.6 0-4.2-1.4-4.2-5.12v-12.28h-5.48Zm24.71 20.6c2.08 1.08 5.52 1.68 8.04 1.68 4.56 0 9.72-1.88 9.72-7.24 0-4.36-2.72-6.04-6.76-6.4l-2.68-.24c-2.08-.2-3.56-.56-3.56-2.2 0-1.56 1.48-2.4 4.16-2.4 2.48 0 5.44.8 7.76 2.16v-4.84c-1.84-1.08-4.96-1.68-7.96-1.68-4.48 0-9.08 2.04-9.08 6.92 0 4.68 3.24 6.12 6.64 6.44l2.8.32c2.2.2 3.48.72 3.48 2.4 0 1.72-1.8 2.48-4.36 2.48-3.04 0-5.8-.8-8.2-2v4.6Zm22.08-24.36h5.64v-5.44h-5.64v5.44Zm.08 25.52h5.48v-21.76h-5.48V904Zm11.1 0h5.48v-11.88c0-4 1.92-5.52 4.68-5.52 2.6 0 4.24 1.64 4.24 5.36V904h5.48v-13.56c0-5.6-2.56-8.76-7.64-8.76-3.2 0-5.32 1.36-6.76 3.44v-2.88h-5.48V904Zm33.35.16c2.96 0 4.92-1.32 6.24-3.32v1.8c0 3.76-1.56 6.12-6.16 6.12-2.32 0-5.16-.48-7.6-1.56v4.72c2.04.8 4.24 1.44 7.56 1.44 7.4 0 11.68-3.88 11.68-10.56v-20.56h-5.48v2.48c-1.32-1.84-3.32-3.04-6.24-3.04-5.8 0-8.8 3.8-8.8 9.96v2.56c0 6.6 3.08 9.96 8.8 9.96Zm-3.12-9.6v-3.32c0-3.56 1.76-5.2 4.6-5.2 2.4 0 4.44 1.72 4.76 4.6v3.76c0 3.04-1.96 5.44-4.84 5.44-2.8 0-4.52-1.72-4.52-5.28Zm31.37 2.64c0 4.72 2.52 7.4 7.32 7.4 1.24 0 2.8-.2 3.72-.44v-4.48c-.72.2-1.72.28-2.52.28-2.12 0-3.04-.84-3.04-3.56v-9.88h5.24v-4.28h-5.24V876h-5.48v6.24h-3.48v4.28h3.48v10.68Zm15.08 6.8h5.48v-11.8c0-4 1.84-5.6 4.68-5.6 2.6 0 4.24 1.64 4.24 5.36V904h5.48v-13.56c0-5.6-2.56-8.76-7.64-8.76-3.2 0-5.32 1.36-6.76 3.44V873.8h-5.48V904Zm34.15-22.32c-5.8 0-9.8 3.72-9.8 10.16v2.64c0 6.56 3.84 10.12 10.56 10.12 3.6 0 6-.52 8.64-2v-4.28c-2.96 1.56-5.12 1.76-7.76 1.76-3.48 0-5.64-1.48-5.88-4.96h14.12v-3.52c0-6.64-4.08-9.92-9.88-9.92Zm0 4.36c2.88 0 4.28 1.64 4.32 5.32h-8.56c.08-3.52 1.56-5.32 4.24-5.32Zm-1232.37 76.8c2.08 1.08 5.52 1.68 8.04 1.68 4.56 0 9.72-1.88 9.72-7.24 0-4.36-2.72-6.04-6.76-6.4l-2.68-.24c-2.08-.2-3.56-.56-3.56-2.2 0-1.56 1.48-2.4 4.16-2.4 2.48 0 5.44.8 7.76 2.16v-4.84c-1.84-1.08-4.96-1.68-7.96-1.68-4.48 0-9.08 2.04-9.08 6.92 0 4.68 3.24 6.12 6.64 6.44l2.8.32c2.2.2 3.48.72 3.48 2.4 0 1.72-1.8 2.48-4.36 2.48-3.04 0-5.8-.8-8.2-2v4.6Zm22.003-20.6v13.6c0 5.6 2.68 8.72 7.76 8.72 3.12 0 5.16-1.24 6.48-3.28V964h5.48v-21.76h-5.48v11.84c0 3.64-1.72 5.56-4.56 5.56-2.6 0-4.2-1.4-4.2-5.12v-12.28h-5.48Zm25.356 30.64h5.48V961.6c1.32 1.8 3.28 3 6.08 3 5.72 0 9-3.36 9-9.96v-3c0-6.16-3.04-9.96-8.84-9.96-2.88 0-4.92 1.2-6.24 3.04v-2.48h-5.48v30.64Zm5.48-18.04v-4c.24-3 2.32-4.8 4.76-4.8 2.88 0 4.64 1.84 4.64 5.4v3.4c0 3.56-1.72 5.44-4.56 5.44s-4.84-2.4-4.84-5.44Zm28.634-13.16c-5.8 0-9.8 3.72-9.8 10.16v2.64c0 6.56 3.84 10.12 10.56 10.12 3.6 0 6-.52 8.64-2v-4.28c-2.96 1.56-5.12 1.76-7.76 1.76-3.48 0-5.64-1.48-5.88-4.96h14.12v-3.52c0-6.64-4.08-9.92-9.88-9.92Zm0 4.36c2.88 0 4.28 1.64 4.32 5.32h-8.56c.08-3.52 1.56-5.32 4.24-5.32ZM352.152 964h5.48v-10c.04-4.16 2.24-6.96 5.6-6.96.4 0 .76.04 1.12.12v-5.48c-3.08 0-5.32 1.68-6.72 4.04v-3.48h-5.48V964Zm15.859 8.88h5.48V961.6c1.32 1.8 3.28 3 6.08 3 5.72 0 9-3.36 9-9.96v-3c0-6.16-3.04-9.96-8.84-9.96-2.88 0-4.92 1.2-6.24 3.04v-2.48h-5.48v30.64Zm5.48-18.04v-4c.24-3 2.32-4.8 4.76-4.8 2.88 0 4.64 1.84 4.64 5.4v3.4c0 3.56-1.72 5.44-4.56 5.44s-4.84-2.4-4.84-5.44Zm18.834-.36c0 6.8 4.48 10.12 10.28 10.12 5.8 0 10.36-3.32 10.36-10.12v-2.64c0-6.84-4.56-10.16-10.36-10.16s-10.28 3.32-10.28 10.16v2.64Zm5.6-2.68c0-3.92 1.76-5.76 4.68-5.76s4.72 1.84 4.72 5.76v2.68c0 3.92-1.8 5.8-4.72 5.8s-4.68-1.88-4.68-5.8v-2.68Zm19.055 11.04c2.08 1.08 5.52 1.68 8.04 1.68 4.56 0 9.72-1.88 9.72-7.24 0-4.36-2.72-6.04-6.76-6.4l-2.68-.24c-2.08-.2-3.56-.56-3.56-2.2 0-1.56 1.48-2.4 4.16-2.4 2.48 0 5.44.8 7.76 2.16v-4.84c-1.84-1.08-4.96-1.68-7.96-1.68-4.48 0-9.08 2.04-9.08 6.92 0 4.68 3.24 6.12 6.64 6.44l2.8.32c2.2.2 3.48.72 3.48 2.4 0 1.72-1.8 2.48-4.36 2.48-3.04 0-5.8-.8-8.2-2v4.6Zm31.044-21.16c-5.8 0-9.8 3.72-9.8 10.16v2.64c0 6.56 3.84 10.12 10.56 10.12 3.6 0 6-.52 8.64-2v-4.28c-2.96 1.56-5.12 1.76-7.76 1.76-3.48 0-5.64-1.48-5.88-4.96h14.12v-3.52c0-6.64-4.08-9.92-9.88-9.92Zm0 4.36c2.88 0 4.28 1.64 4.32 5.32h-8.56c.08-3.52 1.56-5.32 4.24-5.32Zm22.438 18.56c2.96 0 4.92-1.32 6.24-3.32V964h5.48v-30.2h-5.48v10.92c-1.32-1.84-3.36-3.04-6.24-3.04-5.8 0-8.8 3.8-8.8 9.96v3c0 6.6 3.08 9.96 8.8 9.96Zm-3.16-9.76v-3.4c0-3.56 1.8-5.4 4.64-5.4 2.4 0 4.44 1.72 4.76 4.6v4.2c0 3.04-1.96 5.44-4.84 5.44-2.84 0-4.56-1.88-4.56-5.44Zm38.929 18.04 2.92-8.88 8-21.76h-5.64l-5.4 16.12-5.48-16.12h-5.8l8.68 22.76-2.84 7.88h5.56Zm13.102-17.44h11.52v-4.2h-11.52v4.2Zm18.001 8.56h5.48v-17.48h5.04v-4.28h-5.04v-1.12c0-2.76 1.32-3.6 3.56-3.6.76 0 1.44.16 2 .32v-4.24c-.84-.24-2.08-.36-3.2-.36-4.92 0-7.84 2.64-7.84 7.36v1.64h-2.4v4.28h2.4V964Zm13.995-25.52h5.64v-5.44h-5.64v5.44Zm.08 25.52h5.48v-21.76h-5.48V964Zm11.094 0h5.48v-11.88c0-4 1.92-5.52 4.68-5.52 2.6 0 4.24 1.64 4.24 5.36V964h5.48v-13.56c0-5.6-2.56-8.76-7.64-8.76-3.2 0-5.32 1.36-6.76 3.44v-2.88h-5.48V964Zm42.954 0v-13.64c0-4.68-1.64-8.68-9.4-8.68-3.6 0-6.24.84-8.32 2.32v4.96c2.44-1.8 4.84-2.4 7.4-2.4 4.56 0 4.84 2.16 4.84 4.8h-4.4c-4.12 0-9.04 1.04-9.04 6.84 0 3.96 2.56 6.4 7.16 6.4 3 0 5-.96 6.28-3v2.4h5.48Zm-5.48-8.32c0 3.84-2.36 4.88-4.84 4.88-2.2 0-3.28-.88-3.28-2.68 0-2.52 1.84-2.84 4.4-2.84h3.72v.64Zm10.805 2.52c0 4.44 2.04 6.4 6.24 6.4 1.12 0 2.44-.2 3.28-.48v-4.44c-.44.2-1.16.32-1.96.32-1.68 0-2.08-.84-2.08-3.28V933.8h-5.48v24.4Zm29.267 14.68h5.08c-2.92-4.16-5.8-15-5.8-22.76 0-7.72 2.52-17.48 5.8-21.64h-5.08c-3.52 4.56-6.16 13.4-6.16 21.64 0 8.28 2.76 18.68 6.16 22.76Zm15.234-34.56c3.28 0 5.24 1.36 5.24 4.24 0 1.76-1.08 3.8-2.8 5.76l-10.28 11.8V964h19.48v-4.88h-12.28l7.08-7.96c2.64-2.92 4.6-6 4.6-9.56 0-5.68-4-8.36-10.16-8.36-3.44 0-6.2.72-8.52 2.32v5.32c2.88-1.84 5-2.56 7.64-2.56Zm18.923-9.84h-5.04c2.92 4.16 5.8 13.92 5.8 21.68 0 7.72-2.52 18.56-5.8 22.72h5.04c3.52-4.56 6.2-14.48 6.2-22.72 0-8.28-2.8-17.6-6.2-21.68Z"/></g><defs><clipPath id="a"><path fill="#fff" d="M0 0h1920v1080H0z"/></clipPath></defs></svg>