<svg xmlns="http://www.w3.org/2000/svg" width="1920" height="1080" fill="none"><path fill="#1A73E8" d="M276.752 439.914c-3.888 0-7.536-.72-10.944-2.16-3.408-1.488-6.408-3.504-9-6.048-2.544-2.592-4.56-5.592-6.048-9-1.44-3.408-2.16-7.056-2.16-10.944 0-3.888.72-7.536 2.16-10.944 1.488-3.408 3.504-6.408 6.048-9a28.035 28.035 0 0 1 9-6.048c3.408-1.488 7.056-2.232 10.944-2.232 3.888 0 7.536.744 10.944 2.232a28.035 28.035 0 0 1 9 6.048 28.035 28.035 0 0 1 6.048 9c1.488 3.408 2.232 7.056 2.232 10.944 0 3.888-.744 7.536-2.232 10.944a28.035 28.035 0 0 1-6.048 9c-2.592 2.544-5.592 4.56-9 6.048-3.408 1.44-7.056 2.16-10.944 2.16Zm-2.088-14.904h5.4v-25.848h-4.32l-6.48 3.528v5.184l5.4-2.664v19.8ZM1136.75 383.538c3.89 0 7.54.744 10.95 2.232a28.21 28.21 0 0 1 9 6.048 28.045 28.045 0 0 1 6.04 9c1.49 3.408 2.24 7.056 2.24 10.944 0 3.888-.75 7.536-2.24 10.944a28.045 28.045 0 0 1-6.04 9c-2.6 2.544-5.6 4.56-9 6.048-3.41 1.44-7.06 2.16-10.95 2.16-3.89 0-7.53-.72-10.94-2.16-3.41-1.488-6.41-3.504-9-6.048-2.55-2.592-4.56-5.592-6.05-9-1.44-3.408-2.16-7.056-2.16-10.944 0-3.888.72-7.536 2.16-10.944 1.49-3.408 3.5-6.408 6.05-9a27.992 27.992 0 0 1 9-6.048c3.41-1.488 7.05-2.232 10.94-2.232Zm9.07 41.112v-4.464h-10.8l6.2-6.48c1.2-1.248 2.16-2.52 2.88-3.816.76-1.344 1.15-2.832 1.15-4.464 0-2.4-.87-4.176-2.59-5.328-1.68-1.2-3.92-1.8-6.7-1.8-1.34 0-2.66.144-3.96.432-1.25.288-2.38.768-3.38 1.44v4.824c1.15-.672 2.23-1.152 3.24-1.44 1.05-.336 2.08-.504 3.09-.504 3.12 0 4.68 1.152 4.68 3.456 0 .768-.21 1.536-.65 2.304-.38.768-.93 1.536-1.65 2.304l-9 9.936v3.6h17.49Z"/><path fill="#FF6D7F" d="M441.12 387.56h27.72v-30.8h-27.72v30.8ZM379.8 542.68h13.44c52.64 0 74.76-27.16 74.76-78.12v-52.64h-26.6v54.04c0 34.72-10.92 52.92-52.36 52.92H353.2V597h26.6v-54.32ZM687.888 597l-78.12-185.08h-29.96L498.888 597h29.4l65.8-158.76L656.528 597h31.36Zm124.061-144.2h-39.2v-40.88h-24.64v40.88h-39.2v21.84h39.2v40.88h24.64v-40.88h39.2V452.8Zm492.691-65.24h27.72v-30.8h-27.72v30.8Zm-61.32 155.12h13.44c52.64 0 74.76-27.16 74.76-78.12v-52.64h-26.6v54.04c0 34.72-10.92 52.92-52.36 52.92h-35.84V597h26.6v-54.32ZM1551.4 597l-78.12-185.08h-29.96L1362.4 597h29.4l65.8-158.76L1520.04 597h31.36Zm85.71-173.6c-14.56 0-27.72 7-27.72 27.44 0 20.16 13.16 27.16 27.72 27.16 14.56 0 27.72-7 27.72-27.16 0-20.44-13.16-27.44-27.72-27.44Zm13.72 27.44c0 10.64-5.6 14.28-13.72 14.28-7.84 0-13.72-3.64-13.72-14.28 0-10.92 5.88-14.56 13.72-14.56 8.12 0 13.72 3.64 13.72 14.56Zm-72.8 68.6h27.72v-30.8h-27.72v30.8Z"/><path fill="#1A73E8" d="M265.6 686.8h-24.08v4.88h9.32V717h5.68v-25.32h9.08v-4.88Zm3.317 30.2h5.48v-11.8c0-4 1.84-5.6 4.68-5.6 2.6 0 4.24 1.64 4.24 5.36V717h5.48v-13.56c0-5.6-2.56-8.76-7.64-8.76-3.2 0-5.32 1.36-6.76 3.44V686.8h-5.48V717Zm34.154-22.32c-5.8 0-9.8 3.72-9.8 10.16v2.64c0 6.56 3.84 10.12 10.56 10.12 3.6 0 6-.52 8.64-2v-4.28c-2.96 1.56-5.12 1.76-7.76 1.76-3.48 0-5.64-1.48-5.88-4.96h14.12v-3.52c0-6.64-4.08-9.92-9.88-9.92Zm0 4.36c2.88 0 4.28 1.64 4.32 5.32h-8.56c.08-3.52 1.56-5.32 4.24-5.32Zm33.692-4.36c-7.08 0-10.68 4-10.68 10.16v2.64c0 6.4 3.68 10.12 10.4 10.12 2.84 0 5.12-.64 6.76-1.72v-4.52c-2.24 1.32-4.24 1.76-6.24 1.76-3.24 0-5.28-1.88-5.28-5.44v-3c0-3.76 2-5.52 5.32-5.52 1.92 0 4.08.44 6.32 1.8v-4.8c-2.12-1.12-4.52-1.48-6.6-1.48Zm10.14 12.8c0 6.8 4.48 10.12 10.28 10.12 5.8 0 10.36-3.32 10.36-10.12v-2.64c0-6.84-4.56-10.16-10.36-10.16s-10.28 3.32-10.28 10.16v2.64Zm5.6-2.68c0-3.92 1.76-5.76 4.68-5.76s4.72 1.84 4.72 5.76v2.68c0 3.92-1.8 5.8-4.72 5.8s-4.68-1.88-4.68-5.8v-2.68Zm19.695 12.2h5.48v-11.92c0-3.64 1.64-5.48 4.44-5.48 2.6 0 4.08 1.64 4.08 5.36V717h5.48v-11.92c0-3.68 1.72-5.48 4.44-5.48 2.6 0 4.04 1.64 4.04 5.36V717h5.48v-13.56c0-5.6-2.36-8.76-7.44-8.76-3.6 0-5.88 1.36-7.4 3.88-1.08-2.52-3.24-3.88-6.6-3.88-3.12 0-5.16 1.28-6.52 3.32v-2.76h-5.48V717Zm38.868 0h5.48v-11.92c0-3.64 1.64-5.48 4.44-5.48 2.6 0 4.08 1.64 4.08 5.36V717h5.48v-11.92c0-3.68 1.72-5.48 4.44-5.48 2.6 0 4.04 1.64 4.04 5.36V717h5.48v-13.56c0-5.6-2.36-8.76-7.44-8.76-3.6 0-5.88 1.36-7.4 3.88-1.08-2.52-3.24-3.88-6.6-3.88-3.12 0-5.16 1.28-6.52 3.32v-2.76h-5.48V717Zm37.947-9.52c0 6.8 4.48 10.12 10.28 10.12 5.8 0 10.36-3.32 10.36-10.12v-2.64c0-6.84-4.56-10.16-10.36-10.16s-10.28 3.32-10.28 10.16v2.64Zm5.6-2.68c0-3.92 1.76-5.76 4.68-5.76s4.72 1.84 4.72 5.76v2.68c0 3.92-1.8 5.8-4.72 5.8s-4.68-1.88-4.68-5.8v-2.68Zm19.695 12.2h5.48v-11.88c0-4 1.92-5.52 4.68-5.52 2.6 0 4.24 1.64 4.24 5.36V717h5.48v-13.56c0-5.6-2.56-8.76-7.64-8.76-3.2 0-5.32 1.36-6.76 3.44v-2.88h-5.48V717Zm56.967-20.32c0-5.44-3.64-9.88-10.52-9.88h-11.2V717h5.68v-10.24h5.68c6.64 0 10.36-4.28 10.36-10.08Zm-11.56-5.04c4.04 0 5.8 1.6 5.8 5.24 0 2.96-1.44 5.08-5.56 5.08h-4.72v-10.32h4.48Zm15.371 19.56c0 4.44 2.04 6.4 6.24 6.4 1.12 0 2.44-.2 3.28-.48v-4.44c-.44.2-1.16.32-1.96.32-1.68 0-2.08-.84-2.08-3.28V686.8h-5.48v24.4Zm30.574 5.8v-13.64c0-4.68-1.64-8.68-9.4-8.68-3.6 0-6.24.84-8.32 2.32v4.96c2.44-1.8 4.84-2.4 7.4-2.4 4.56 0 4.84 2.16 4.84 4.8h-4.4c-4.12 0-9.04 1.04-9.04 6.84 0 3.96 2.56 6.4 7.16 6.4 3 0 5-.96 6.28-3v2.4h5.48Zm-5.48-8.32c0 3.84-2.36 4.88-4.84 4.88-2.2 0-3.28-.88-3.28-2.68 0-2.52 1.84-2.84 4.4-2.84h3.72v.64Zm10.845-17.2h5.64v-5.44h-5.64v5.44Zm.08 25.52h5.48v-21.76h-5.48V717Zm11.093 0h5.48v-11.88c0-4 1.92-5.52 4.68-5.52 2.6 0 4.24 1.64 4.24 5.36V717h5.48v-13.56c0-5.6-2.56-8.76-7.64-8.76-3.2 0-5.32 1.36-6.76 3.44v-2.88h-5.48V717Zm24.634-1.16c2.08 1.08 5.52 1.68 8.04 1.68 4.56 0 9.72-1.88 9.72-7.24 0-4.36-2.72-6.04-6.76-6.4l-2.68-.24c-2.08-.2-3.56-.56-3.56-2.2 0-1.56 1.48-2.4 4.16-2.4 2.48 0 5.44.8 7.76 2.16v-4.84c-1.84-1.08-4.96-1.68-7.96-1.68-4.48 0-9.08 2.04-9.08 6.92 0 4.68 3.24 6.12 6.64 6.44l2.8.32c2.2.2 3.48.72 3.48 2.4 0 1.72-1.8 2.48-4.36 2.48-3.04 0-5.8-.8-8.2-2v4.6Zm52.017-27.76c-1.56-1-4.48-1.84-8.04-1.84-7.8 0-13.08 4.88-13.08 13.96v3.68c0 9.08 5.32 13.72 13.04 13.72 2.88 0 5.96-.52 8-1.6v-5.04c-2.2 1.32-5.28 1.64-7.52 1.64-4.6 0-7.8-2.24-7.8-8.44v-4.24c0-5.88 3-8.68 7.72-8.68 3 0 5.96.88 7.68 2.32v-5.48Zm4.326 28.92h5.48v-10c.04-4.16 2.24-6.96 5.6-6.96.4 0 .76.04 1.12.12v-5.48c-3.08 0-5.32 1.68-6.72 4.04v-3.48h-5.48V717Zm24.232-22.32c-5.8 0-9.8 3.72-9.8 10.16v2.64c0 6.56 3.84 10.12 10.56 10.12 3.6 0 6-.52 8.64-2v-4.28c-2.96 1.56-5.12 1.76-7.76 1.76-3.48 0-5.64-1.48-5.88-4.96h14.12v-3.52c0-6.64-4.08-9.92-9.88-9.92Zm0 4.36c2.88 0 4.28 1.64 4.32 5.32h-8.56c.08-3.52 1.56-5.32 4.24-5.32Zm23.398-4.36c-5.8 0-9.8 3.72-9.8 10.16v2.64c0 6.56 3.84 10.12 10.56 10.12 3.6 0 6-.52 8.64-2v-4.28c-2.96 1.56-5.12 1.76-7.76 1.76-3.48 0-5.64-1.48-5.88-4.96h14.12v-3.52c0-6.64-4.08-9.92-9.88-9.92Zm0 4.36c2.88 0 4.28 1.64 4.32 5.32h-8.56c.08-3.52 1.56-5.32 4.24-5.32Zm32.973 26.84 2.92-8.88 8-21.76h-5.64l-5.4 16.12-5.48-16.12h-5.8l8.68 22.76-2.84 7.88h5.56Zm13.101-17.44h11.52v-4.2h-11.52v4.2Zm18.002 8.56h5.48v-17.48h5.04v-4.28h-5.04v-1.12c0-2.76 1.32-3.6 3.56-3.6.76 0 1.44.16 2 .32v-4.24c-.84-.24-2.08-.36-3.2-.36-4.92 0-7.84 2.64-7.84 7.36v1.64h-2.4v4.28h2.4V717Zm13.995-25.52h5.64v-5.44h-5.64v5.44Zm.08 25.52h5.48v-21.76h-5.48V717Zm11.094 0h5.48v-11.88c0-4 1.92-5.52 4.68-5.52 2.6 0 4.24 1.64 4.24 5.36V717h5.48v-13.56c0-5.6-2.56-8.76-7.64-8.76-3.2 0-5.32 1.36-6.76 3.44v-2.88h-5.48V717Zm42.953 0v-13.64c0-4.68-1.64-8.68-9.4-8.68-3.6 0-6.24.84-8.32 2.32v4.96c2.44-1.8 4.84-2.4 7.4-2.4 4.56 0 4.84 2.16 4.84 4.8h-4.4c-4.12 0-9.04 1.04-9.04 6.84 0 3.96 2.56 6.4 7.16 6.4 3 0 5-.96 6.28-3v2.4h5.48Zm-5.48-8.32c0 3.84-2.36 4.88-4.84 4.88-2.2 0-3.28-.88-3.28-2.68 0-2.52 1.84-2.84 4.4-2.84h3.72v.64Zm10.805 2.52c0 4.44 2.04 6.4 6.24 6.4 1.12 0 2.44-.2 3.28-.48v-4.44c-.44.2-1.16.32-1.96.32-1.68 0-2.08-.84-2.08-3.28V686.8h-5.48v24.4Zm29.268 14.68h5.08c-2.92-4.16-5.8-15-5.8-22.76 0-7.72 2.52-17.48 5.8-21.64h-5.08c-3.52 4.56-6.16 13.4-6.16 21.64 0 8.28 2.76 18.68 6.16 22.76Zm6.243-29.28 6.24-3.24V717h5.68v-30.2h-4.48l-7.44 4.24v5.56Zm20.726-15.12h-5.04c2.92 4.16 5.8 13.92 5.8 21.68 0 7.72-2.52 18.56-5.8 22.72h5.04c3.52-4.56 6.2-14.48 6.2-22.72 0-8.28-2.8-17.6-6.2-21.68Zm31.768 13.2c-7.08 0-10.68 4-10.68 10.16v2.64c0 6.4 3.68 10.12 10.4 10.12 2.84 0 5.12-.64 6.76-1.72v-4.52c-2.24 1.32-4.24 1.76-6.24 1.76-3.24 0-5.28-1.88-5.28-5.44v-3c0-3.76 2-5.52 5.32-5.52 1.92 0 4.08.44 6.32 1.8v-4.8c-2.12-1.12-4.52-1.48-6.6-1.48Zm10.141 12.8c0 6.8 4.48 10.12 10.28 10.12 5.8 0 10.36-3.32 10.36-10.12v-2.64c0-6.84-4.56-10.16-10.36-10.16s-10.28 3.32-10.28 10.16v2.64Zm5.6-2.68c0-3.92 1.76-5.76 4.68-5.76s4.72 1.84 4.72 5.76v2.68c0 3.92-1.8 5.8-4.72 5.8s-4.68-1.88-4.68-5.8v-2.68Zm19.695 12.2h5.48v-11.92c0-3.64 1.64-5.48 4.44-5.48 2.6 0 4.08 1.64 4.08 5.36V717h5.48v-11.92c0-3.68 1.72-5.48 4.44-5.48 2.6 0 4.04 1.64 4.04 5.36V717h5.481v-13.56c0-5.6-2.36-8.76-7.441-8.76-3.6 0-5.88 1.36-7.4 3.88-1.08-2.52-3.24-3.88-6.6-3.88-3.12 0-5.16 1.28-6.52 3.32v-2.76h-5.48V717Zm38.871 8.88h5.48V714.6c1.32 1.8 3.28 3 6.08 3 5.72 0 9-3.36 9-9.96v-3c0-6.16-3.04-9.96-8.84-9.96-2.88 0-4.92 1.2-6.24 3.04v-2.48h-5.48v30.64Zm5.48-18.04v-4c.24-3 2.32-4.8 4.76-4.8 2.88 0 4.64 1.84 4.64 5.4v3.4c0 3.56-1.72 5.44-4.56 5.44s-4.84-2.4-4.84-5.44Zm37.43 9.16v-13.64c0-4.68-1.64-8.68-9.4-8.68-3.6 0-6.24.84-8.32 2.32v4.96c2.44-1.8 4.84-2.4 7.4-2.4 4.56 0 4.84 2.16 4.84 4.8h-4.4c-4.12 0-9.04 1.04-9.04 6.84 0 3.96 2.56 6.4 7.16 6.4 3 0 5-.96 6.28-3v2.4h5.48Zm-5.48-8.32c0 3.84-2.36 4.88-4.84 4.88-2.2 0-3.28-.88-3.28-2.68 0-2.52 1.84-2.84 4.4-2.84h3.72v.64ZM1059 717h5.48v-10c.04-4.16 2.24-6.96 5.6-6.96.4 0 .76.04 1.12.12v-5.48c-3.08 0-5.32 1.68-6.72 4.04v-3.48H1059V717Zm24.23-22.32c-5.8 0-9.8 3.72-9.8 10.16v2.64c0 6.56 3.84 10.12 10.56 10.12 3.6 0 6-.52 8.64-2v-4.28c-2.96 1.56-5.12 1.76-7.76 1.76-3.48 0-5.64-1.48-5.88-4.96h14.12v-3.52c0-6.64-4.08-9.92-9.88-9.92Zm0 4.36c2.88 0 4.28 1.64 4.32 5.32h-8.56c.08-3.52 1.56-5.32 4.24-5.32Zm22.44 18.56c2.96 0 4.92-1.32 6.24-3.32V717h5.48v-30.2h-5.48v10.92c-1.32-1.84-3.36-3.04-6.24-3.04-5.8 0-8.8 3.8-8.8 9.96v3c0 6.6 3.08 9.96 8.8 9.96Zm-3.16-9.76v-3.4c0-3.56 1.8-5.4 4.64-5.4 2.4 0 4.44 1.72 4.76 4.6v4.2c0 3.04-1.96 5.44-4.84 5.44-2.84 0-4.56-1.88-4.56-5.44Zm31.4 2.36c0 4.72 2.52 7.4 7.32 7.4 1.24 0 2.8-.2 3.72-.44v-4.48c-.72.2-1.72.28-2.52.28-2.12 0-3.04-.84-3.04-3.56v-9.88h5.24v-4.28h-5.24V689h-5.48v6.24h-3.48v4.28h3.48v10.68Zm13.93-2.72c0 6.8 4.48 10.12 10.28 10.12 5.8 0 10.36-3.32 10.36-10.12v-2.64c0-6.84-4.56-10.16-10.36-10.16s-10.28 3.32-10.28 10.16v2.64Zm5.6-2.68c0-3.92 1.76-5.76 4.68-5.76s4.72 1.84 4.72 5.76v2.68c0 3.92-1.8 5.8-4.72 5.8s-4.68-1.88-4.68-5.8v-2.68Zm30.63 5.4c0 4.72 2.52 7.4 7.32 7.4 1.24 0 2.8-.2 3.72-.44v-4.48c-.72.2-1.72.28-2.52.28-2.12 0-3.04-.84-3.04-3.56v-9.88h5.24v-4.28h-5.24V689h-5.48v6.24h-3.48v4.28h3.48v10.68Zm15.08 6.8h5.48v-11.8c0-4 1.84-5.6 4.68-5.6 2.6 0 4.24 1.64 4.24 5.36V717h5.48v-13.56c0-5.6-2.56-8.76-7.64-8.76-3.2 0-5.32 1.36-6.76 3.44V686.8h-5.48V717Zm34.16-22.32c-5.81 0-9.8 3.72-9.8 10.16v2.64c0 6.56 3.84 10.12 10.56 10.12 3.6 0 6-.52 8.64-2v-4.28c-2.96 1.56-5.12 1.76-7.76 1.76-3.48 0-5.64-1.48-5.88-4.96h14.12v-3.52c0-6.64-4.08-9.92-9.88-9.92Zm0 4.36c2.88 0 4.28 1.64 4.32 5.32h-8.56c.08-3.52 1.56-5.32 4.24-5.32Zm41.61 17.96v-13.64c0-4.68-1.64-8.68-9.4-8.68-3.6 0-6.24.84-8.32 2.32v4.96c2.44-1.8 4.84-2.4 7.4-2.4 4.56 0 4.84 2.16 4.84 4.8h-4.4c-4.12 0-9.04 1.04-9.04 6.84 0 3.96 2.56 6.4 7.16 6.4 3 0 5-.96 6.28-3v2.4h5.48Zm-5.48-8.32c0 3.84-2.36 4.88-4.84 4.88-2.2 0-3.28-.88-3.28-2.68 0-2.52 1.84-2.84 4.4-2.84h3.72v.64Zm10.8 2.52c0 4.44 2.04 6.4 6.24 6.4 1.12 0 2.44-.2 3.28-.48v-4.44c-.44.2-1.16.32-1.96.32-1.68 0-2.08-.84-2.08-3.28V686.8h-5.48v24.4Zm14.14-1c0 4.72 2.52 7.4 7.32 7.4 1.24 0 2.8-.2 3.72-.44v-4.48c-.72.2-1.72.28-2.52.28-2.12 0-3.04-.84-3.04-3.56v-9.88h5.24v-4.28h-5.24V689h-5.48v6.24h-3.48v4.28h3.48v10.68Zm23.73-15.52c-5.8 0-9.8 3.72-9.8 10.16v2.64c0 6.56 3.84 10.12 10.56 10.12 3.6 0 6-.52 8.64-2v-4.28c-2.96 1.56-5.12 1.76-7.76 1.76-3.48 0-5.64-1.48-5.88-4.96h14.12v-3.52c0-6.64-4.08-9.92-9.88-9.92Zm0 4.36c2.88 0 4.28 1.64 4.32 5.32h-8.56c.08-3.52 1.56-5.32 4.24-5.32Zm14.52 17.96h5.48v-10c.04-4.16 2.24-6.96 5.6-6.96.4 0 .76.04 1.12.12v-5.48c-3.08 0-5.32 1.68-6.72 4.04v-3.48h-5.48V717Zm15.86 0h5.48v-11.88c0-4 1.92-5.52 4.68-5.52 2.6 0 4.24 1.64 4.24 5.36V717h5.48v-13.56c0-5.6-2.56-8.76-7.64-8.76-3.2 0-5.32 1.36-6.76 3.44v-2.88h-5.48V717Zm42.95 0v-13.64c0-4.68-1.64-8.68-9.4-8.68-3.6 0-6.24.84-8.32 2.32v4.96c2.44-1.8 4.84-2.4 7.4-2.4 4.56 0 4.84 2.16 4.84 4.8h-4.4c-4.12 0-9.04 1.04-9.04 6.84 0 3.96 2.56 6.4 7.16 6.4 3 0 5-.96 6.28-3v2.4h5.48Zm-5.48-8.32c0 3.84-2.36 4.88-4.84 4.88-2.2 0-3.28-.88-3.28-2.68 0-2.52 1.84-2.84 4.4-2.84h3.72v.64Zm12.25 1.52c0 4.72 2.52 7.4 7.32 7.4 1.24 0 2.8-.2 3.72-.44v-4.48c-.72.2-1.72.28-2.52.28-2.12 0-3.04-.84-3.04-3.56v-9.88h5.24v-4.28h-5.24V689h-5.48v6.24h-3.48v4.28h3.48v10.68Zm15-18.72h5.64v-5.44h-5.64v5.44Zm.08 25.52h5.48v-21.76h-5.48V717Zm30.9-21.76h-5.64l-5.32 16.12-5.52-16.12h-5.76l8.44 22.16h5.48l8.32-22.16Zm11.58-.56c-5.8 0-9.8 3.72-9.8 10.16v2.64c0 6.56 3.84 10.12 10.56 10.12 3.6 0 6-.52 8.64-2v-4.28c-2.96 1.56-5.12 1.76-7.76 1.76-3.48 0-5.64-1.48-5.88-4.96h14.12v-3.52c0-6.64-4.08-9.92-9.88-9.92Zm0 4.36c2.88 0 4.28 1.64 4.32 5.32h-8.56c.08-3.52 1.56-5.32 4.24-5.32Zm32.97 26.84 2.92-8.88 8-21.76h-5.64l-5.4 16.12-5.48-16.12h-5.8l8.68 22.76-2.84 7.88h5.56Zm13.1-17.44h11.52v-4.2h-11.52v4.2Zm18 8.56h5.48v-17.48h5.04v-4.28h-5.04v-1.12c0-2.76 1.32-3.6 3.56-3.6.76 0 1.44.16 2 .32v-4.24c-.84-.24-2.08-.36-3.2-.36-4.92 0-7.84 2.64-7.84 7.36v1.64h-2.4v4.28h2.4V717Zm14-25.52h5.64v-5.44h-5.64v5.44Zm.08 25.52h5.48v-21.76h-5.48V717Zm11.09 0h5.48v-11.88c0-4 1.92-5.52 4.68-5.52 2.6 0 4.24 1.64 4.24 5.36V717h5.48v-13.56c0-5.6-2.56-8.76-7.64-8.76-3.2 0-5.32 1.36-6.76 3.44v-2.88h-5.48V717Zm42.95 0v-13.64c0-4.68-1.64-8.68-9.4-8.68-3.6 0-6.24.84-8.32 2.32v4.96c2.44-1.8 4.84-2.4 7.4-2.4 4.56 0 4.84 2.16 4.84 4.8h-4.4c-4.12 0-9.04 1.04-9.04 6.84 0 3.96 2.56 6.4 7.16 6.4 3 0 5-.96 6.28-3v2.4h5.48Zm-5.48-8.32c0 3.84-2.36 4.88-4.84 4.88-2.2 0-3.28-.88-3.28-2.68 0-2.52 1.84-2.84 4.4-2.84h3.72v.64Zm10.81 2.52c0 4.44 2.04 6.4 6.24 6.4 1.12 0 2.44-.2 3.28-.48v-4.44c-.44.2-1.16.32-1.96.32-1.68 0-2.08-.84-2.08-3.28V686.8h-5.48v24.4Zm29.27 14.68h5.08c-2.92-4.16-5.8-15-5.8-22.76 0-7.72 2.52-17.48 5.8-21.64h-5.08c-3.52 4.56-6.16 13.4-6.16 21.64 0 8.28 2.76 18.68 6.16 22.76Zm15.23-34.56c3.28 0 5.24 1.36 5.24 4.24 0 1.76-1.08 3.8-2.8 5.76l-10.28 11.8V717h19.48v-4.88h-12.28l7.08-7.96c2.64-2.92 4.6-6 4.6-9.56 0-5.68-4-8.36-10.16-8.36-3.44 0-6.2.72-8.52 2.32v5.32c2.88-1.84 5-2.56 7.64-2.56Zm18.92-9.84h-5.04c2.92 4.16 5.8 13.92 5.8 21.68 0 7.72-2.52 18.56-5.8 22.72h5.04c3.52-4.56 6.2-14.48 6.2-22.72 0-8.28-2.8-17.6-6.2-21.68Z"/></svg>