<svg width="1920" height="1080" fill="none" xmlns="http://www.w3.org/2000/svg"><path fill="#1A73E8" d="M1133 218h544v644h-544z"/><path fill="#fff" d="M1270 522h270v35h-270z"/><path fill="#D2E3FC" d="M243 218h544v644H243z"/><path d="M635.599 246.312h94.815V722h-52.245V290.172l1.612.645L558.521 722h-78.69L357.926 290.495l1.613-.645V722h-52.245V246.312h94.815l116.745 431.505h-.645l117.39-431.505Z" fill="#fff"/><path d="M239.464 534.464a5.002 5.002 0 0 0 0 7.072l31.82 31.819a5 5 0 0 0 7.071 0 5 5 0 0 0 0-7.071L250.071 538l28.284-28.284a5 5 0 0 0 0-7.071 5 5 0 0 0-7.071 0l-31.82 31.819Zm277.072 7.072a5.002 5.002 0 0 0 0-7.072l-31.82-31.819a5 5 0 0 0-7.071 0 5 5 0 0 0 0 7.071L505.929 538l-28.284 28.284a5 5 0 0 0 0 7.071 5 5 0 0 0 7.071 0l31.82-31.819ZM243 543h270v-10H243v10Z" fill="#FF6D7F"/></svg>