<svg width="1920" height="1080" fill="none" xmlns="http://www.w3.org/2000/svg"><rect x="250" y="218" width="1417" height="644" rx="40" stroke="#1A73E8" stroke-width="20"/><path fill="#D2E3FC" d="M349 404h1217v10H349z"/><path d="M391.923 321h-36.785c-2.89 0-5.255 2.362-5.255 5.249v36.74c0 2.887 2.365 5.249 5.255 5.249h36.785c2.89 0 5.255-2.362 5.255-5.249v-36.74c0-2.887-2.365-5.249-5.255-5.249Zm-21.782 34.877a2.618 2.618 0 0 1-3.705 0l-9.433-9.421a2.618 2.618 0 0 1 3.705-3.7l7.567 7.558 18.078-18.056a2.619 2.619 0 0 1 3.704 3.701l-19.916 19.918ZM373.533 445.395c-14.504 0-26.275 11.757-26.275 26.243 0 14.487 11.771 26.244 26.275 26.244 14.504 0 26.275-11.757 26.275-26.244 0-14.486-11.771-26.243-26.275-26.243Zm0 47.238c-11.614 0-21.02-9.395-21.02-20.995 0-11.599 9.406-20.994 21.02-20.994 11.613 0 21.02 9.395 21.02 20.994 0 11.6-9.407 20.995-21.02 20.995ZM373.521 543.491c-14.504 0-26.275 11.757-26.275 26.243 0 14.487 11.771 26.244 26.275 26.244 14.504 0 26.275-11.757 26.275-26.244 0-14.486-11.771-26.243-26.275-26.243Zm0 47.238c-11.613 0-21.02-9.395-21.02-20.995 0-11.599 9.407-20.994 21.02-20.994 11.614 0 21.02 9.395 21.02 20.994 0 11.6-9.406 20.995-21.02 20.995Z" fill="#1A73E8"/><path d="M373.528 582.856c7.256 0 13.138-5.875 13.138-13.122 0-7.246-5.882-13.121-13.138-13.121s-13.137 5.875-13.137 13.121c0 7.247 5.881 13.122 13.137 13.122Z" fill="#1A73E8"/><rect x="663" y="624" width="80" height="80" rx="10" fill="#D2E3FC"/><rect x="663" y="721" width="80" height="80" rx="10" fill="#D2E3FC"/><path d="m444.312 348.75-4.874 5.25v13h-9.376v-45.5h9.376v20.625l4.124-5.656 11.594-14.969h11.532l-16.157 20.219L467.156 367H456l-11.688-18.25Zm40.532 18.875c-4.959 0-9-1.521-12.125-4.563-3.104-3.041-4.657-7.093-4.657-12.156v-.875c0-3.396.657-6.427 1.969-9.093 1.313-2.688 3.167-4.75 5.563-6.188 2.416-1.458 5.166-2.188 8.25-2.188 4.625 0 8.26 1.459 10.906 4.376 2.667 2.916 4 7.052 4 12.406v3.687h-21.531c.291 2.209 1.166 3.979 2.625 5.313 1.479 1.333 3.344 2 5.594 2 3.479 0 6.197-1.261 8.156-3.782l4.437 4.969c-1.354 1.917-3.187 3.417-5.5 4.5-2.312 1.063-4.875 1.594-7.687 1.594Zm-1.032-27.75c-1.791 0-3.25.604-4.374 1.813-1.105 1.208-1.813 2.937-2.126 5.187h12.563v-.719c-.042-2-.583-3.541-1.625-4.625-1.042-1.104-2.521-1.656-4.438-1.656Zm35.657 27.75c-4.959 0-9-1.521-12.125-4.563-3.104-3.041-4.656-7.093-4.656-12.156v-.875c0-3.396.656-6.427 1.968-9.093 1.313-2.688 3.167-4.75 5.563-6.188 2.416-1.458 5.166-2.188 8.25-2.188 4.625 0 8.26 1.459 10.906 4.376 2.667 2.916 4 7.052 4 12.406v3.687h-21.531c.291 2.209 1.166 3.979 2.625 5.313 1.479 1.333 3.343 2 5.593 2 3.48 0 6.198-1.261 8.157-3.782l4.437 4.969c-1.354 1.917-3.187 3.417-5.5 4.5-2.312 1.063-4.875 1.594-7.687 1.594Zm-1.031-27.75c-1.792 0-3.25.604-4.376 1.813-1.104 1.208-1.812 2.937-2.124 5.187H524.5v-.719c-.042-2-.583-3.541-1.625-4.625-1.042-1.104-2.521-1.656-4.437-1.656Zm50.531 10.531c0 5.209-1.188 9.386-3.563 12.532-2.354 3.124-5.541 4.687-9.562 4.687-3.417 0-6.177-1.187-8.282-3.563V380h-9.031v-46.812h8.375l.313 3.312c2.187-2.625 5.041-3.938 8.562-3.938 4.167 0 7.407 1.542 9.719 4.626 2.312 3.083 3.469 7.333 3.469 12.75v.468Zm-9.031-.656c0-3.146-.563-5.573-1.688-7.281-1.104-1.709-2.719-2.563-4.844-2.563-2.833 0-4.781 1.084-5.844 3.25V357c1.105 2.229 3.073 3.344 5.907 3.344 4.312 0 6.469-3.532 6.469-10.594ZM600.062 367H591v-48h9.062v48Zm17 0H608v-33.812h9.062V367Zm-9.593-42.562c0-1.355.448-2.469 1.343-3.344.917-.875 2.157-1.313 3.719-1.313 1.542 0 2.771.438 3.688 1.313.916.875 1.375 1.989 1.375 3.344 0 1.374-.469 2.5-1.406 3.374-.917.876-2.136 1.313-3.657 1.313s-2.75-.437-3.687-1.313c-.917-.874-1.375-2-1.375-3.374Zm25.375 8.75.281 3.906c2.417-3.021 5.656-4.532 9.719-4.532 3.583 0 6.25 1.053 8 3.157s2.646 5.25 2.687 9.437V367H644.5v-21.625c0-1.917-.417-3.302-1.25-4.156-.833-.875-2.219-1.313-4.156-1.313-2.542 0-4.448 1.084-5.719 3.25V367h-9.031v-33.812h8.5Zm43.125 34.437c-4.959 0-9-1.521-12.125-4.563-3.104-3.041-4.656-7.093-4.656-12.156v-.875c0-3.396.656-6.427 1.968-9.093 1.313-2.688 3.167-4.75 5.563-6.188 2.416-1.458 5.166-2.188 8.25-2.188 4.625 0 8.26 1.459 10.906 4.376 2.667 2.916 4 7.052 4 12.406v3.687h-21.531c.291 2.209 1.166 3.979 2.625 5.313 1.479 1.333 3.343 2 5.593 2 3.48 0 6.198-1.261 8.157-3.782l4.437 4.969c-1.354 1.917-3.187 3.417-5.5 4.5-2.312 1.063-4.875 1.594-7.687 1.594Zm-1.031-27.75c-1.792 0-3.25.604-4.376 1.813-1.104 1.208-1.812 2.937-2.124 5.187H681v-.719c-.042-2-.583-3.541-1.625-4.625-1.042-1.104-2.521-1.656-4.437-1.656Zm38.406 17.781c0-1.104-.552-1.968-1.656-2.594-1.084-.645-2.834-1.218-5.25-1.718-8.042-1.688-12.063-5.104-12.063-10.25 0-3 1.24-5.5 3.719-7.5 2.5-2.021 5.76-3.032 9.781-3.032 4.292 0 7.719 1.011 10.281 3.032 2.584 2.021 3.875 4.646 3.875 7.875H713c0-1.292-.417-2.354-1.25-3.188-.833-.854-2.135-1.281-3.906-1.281-1.521 0-2.698.344-3.532 1.031-.833.688-1.25 1.563-1.25 2.625 0 1 .469 1.813 1.407 2.438.958.604 2.562 1.135 4.812 1.594 2.25.437 4.146.937 5.688 1.5 4.771 1.75 7.156 4.781 7.156 9.093 0 3.084-1.323 5.584-3.969 7.5-2.646 1.896-6.062 2.844-10.25 2.844-2.833 0-5.354-.5-7.562-1.5-2.188-1.021-3.906-2.406-5.156-4.156-1.25-1.771-1.876-3.677-1.876-5.719h8.563c.083 1.604.677 2.833 1.781 3.688 1.104.854 2.584 1.281 4.438 1.281 1.729 0 3.031-.323 3.906-.969.896-.667 1.344-1.531 1.344-2.594Zm41.375-32.781v8.313h5.781v6.624h-5.781v16.876c0 1.25.239 2.145.719 2.687.479.542 1.395.813 2.75.813 1 0 1.885-.073 2.656-.219v6.843a18.584 18.584 0 0 1-5.469.813c-6.333 0-9.563-3.198-9.687-9.594v-18.219h-4.938v-6.624h4.938v-8.313h9.031Zm8.469 24.906c0-3.354.645-6.343 1.937-8.969 1.292-2.624 3.146-4.656 5.563-6.093 2.437-1.438 5.26-2.157 8.468-2.157 4.563 0 8.282 1.396 11.156 4.188 2.896 2.792 4.511 6.583 4.844 11.375l.063 2.313c0 5.187-1.448 9.354-4.344 12.5-2.896 3.124-6.781 4.687-11.656 4.687-4.875 0-8.771-1.563-11.688-4.687-2.896-3.126-4.343-7.376-4.343-12.75v-.407Zm9.031.657c0 3.208.604 5.666 1.812 7.374 1.209 1.688 2.938 2.532 5.188 2.532 2.187 0 3.896-.834 5.125-2.5 1.229-1.688 1.844-4.375 1.844-8.063 0-3.146-.615-5.583-1.844-7.312s-2.959-2.594-5.188-2.594c-2.208 0-3.916.865-5.125 2.594-1.208 1.708-1.812 4.364-1.812 7.969Zm27.25-.594c0-5.188 1.229-9.365 3.687-12.532 2.479-3.166 5.813-4.75 10-4.75 3.709 0 6.594 1.271 8.656 3.813l.376-3.187h8.187v32.687c0 2.958-.677 5.531-2.031 7.719-1.334 2.187-3.219 3.854-5.656 5-2.438 1.146-5.292 1.718-8.563 1.718-2.479 0-4.896-.5-7.25-1.5-2.354-.979-4.135-2.25-5.344-3.812l4-5.5c2.25 2.521 4.979 3.781 8.188 3.781 2.396 0 4.26-.646 5.593-1.937 1.334-1.271 2-3.084 2-5.438v-1.812c-2.083 2.354-4.822 3.531-8.218 3.531-4.063 0-7.354-1.583-9.875-4.75-2.5-3.187-3.75-7.406-3.75-12.656v-.375Zm9.031.656c0 3.062.615 5.469 1.844 7.219 1.229 1.729 2.916 2.593 5.062 2.593 2.75 0 4.719-1.031 5.906-3.093V343c-1.208-2.062-3.156-3.094-5.843-3.094-2.167 0-3.875.886-5.125 2.656-1.229 1.771-1.844 4.417-1.844 7.938Zm44.406 17.125c-4.958 0-9-1.521-12.125-4.563-3.104-3.041-4.656-7.093-4.656-12.156v-.875c0-3.396.656-6.427 1.969-9.093 1.312-2.688 3.166-4.75 5.562-6.188 2.417-1.458 5.167-2.188 8.25-2.188 4.625 0 8.261 1.459 10.906 4.376 2.667 2.916 4 7.052 4 12.406v3.687h-21.531c.292 2.209 1.167 3.979 2.625 5.313 1.479 1.333 3.344 2 5.594 2 3.479 0 6.198-1.261 8.156-3.782l4.438 4.969c-1.354 1.917-3.188 3.417-5.5 4.5-2.313 1.063-4.875 1.594-7.688 1.594Zm-1.031-27.75c-1.792 0-3.25.604-4.375 1.813-1.104 1.208-1.812 2.937-2.125 5.187h12.563v-.719c-.042-2-.584-3.541-1.626-4.625-1.041-1.104-2.52-1.656-4.437-1.656Zm30.906-15v8.313h5.781v6.624h-5.781v16.876c0 1.25.24 2.145.719 2.687.479.542 1.396.813 2.75.813 1 0 1.885-.073 2.656-.219v6.843a18.582 18.582 0 0 1-5.468.813c-6.334 0-9.563-3.198-9.688-9.594v-18.219h-4.938v-6.624h4.938v-8.313h9.031Zm19.625 12c2.396-2.875 5.406-4.313 9.032-4.313 7.333 0 11.052 4.261 11.156 12.782V367h-9.032v-21.406c0-1.938-.416-3.365-1.25-4.282-.833-.937-2.218-1.406-4.156-1.406-2.646 0-4.562 1.021-5.75 3.063V367h-9.031v-48h9.031v17.875Zm42.563 30.75c-4.959 0-9-1.521-12.125-4.563-3.104-3.041-4.656-7.093-4.656-12.156v-.875c0-3.396.656-6.427 1.968-9.093 1.313-2.688 3.167-4.75 5.563-6.188 2.416-1.458 5.166-2.188 8.25-2.188 4.625 0 8.26 1.459 10.906 4.376 2.667 2.916 4 7.052 4 12.406v3.687h-21.531c.291 2.209 1.166 3.979 2.625 5.313 1.479 1.333 3.343 2 5.593 2 3.48 0 6.198-1.261 8.157-3.782l4.437 4.969c-1.354 1.917-3.187 3.417-5.5 4.5-2.312 1.063-4.875 1.594-7.687 1.594Zm-1.031-27.75c-1.792 0-3.25.604-4.376 1.813-1.104 1.208-1.812 2.937-2.124 5.187H950v-.719c-.042-2-.583-3.541-1.625-4.625-1.042-1.104-2.521-1.656-4.437-1.656Zm39.093 1.781c-1.229-.166-2.312-.25-3.25-.25-3.416 0-5.656 1.156-6.719 3.469V367h-9.031v-33.812h8.531l.25 4.031c1.813-3.104 4.323-4.657 7.532-4.657 1 0 1.937.136 2.812.407l-.125 8.687ZM456.312 482.25h-20.656L430.969 495h-4.031l17.218-45.5h3.656l17.219 45.5h-4l-4.719-12.75Zm-19.468-3.281h18.25l-9.125-24.781-9.125 24.781ZM475.062 495h-3.75v-48h3.75v48Zm14.376 0h-3.75v-48h3.75v48Zm29.937 0h-3.75v-48h3.75v48Zm14.375 0H530v-33.812h3.75V495Zm-4.406-43.594c0-.708.229-1.302.687-1.781.459-.5 1.084-.75 1.875-.75.792 0 1.417.25 1.875.75.479.479.719 1.073.719 1.781 0 .709-.24 1.302-.719 1.782-.458.479-1.083.718-1.875.718-.791 0-1.416-.239-1.875-.718-.458-.48-.687-1.073-.687-1.782Zm18.156 9.782.125 5.781c1.271-2.084 2.854-3.667 4.75-4.75 1.896-1.104 3.99-1.657 6.281-1.657 3.625 0 6.323 1.021 8.094 3.063 1.771 2.042 2.667 5.104 2.688 9.187V495h-3.719v-22.219c-.021-3.021-.667-5.271-1.938-6.75-1.25-1.479-3.26-2.219-6.031-2.219-2.312 0-4.365.73-6.156 2.188-1.771 1.438-3.084 3.385-3.938 5.844V495h-3.718v-33.812h3.562Zm44.719 34.437c-2.875 0-5.479-.708-7.813-2.125-2.312-1.417-4.114-3.385-5.406-5.906-1.292-2.542-1.938-5.386-1.938-8.532v-1.343c0-3.25.626-6.177 1.876-8.781 1.27-2.605 3.031-4.646 5.281-6.126 2.25-1.5 4.687-2.25 7.312-2.25 4.104 0 7.354 1.407 9.75 4.219 2.417 2.792 3.625 6.615 3.625 11.469v2.094h-24.125v.718c0 3.834 1.094 7.032 3.281 9.594 2.209 2.542 4.98 3.813 8.313 3.813 2 0 3.76-.365 5.281-1.094 1.542-.729 2.938-1.896 4.188-3.5l2.344 1.781c-2.75 3.979-6.74 5.969-11.969 5.969Zm-.688-31.875c-2.812 0-5.187 1.031-7.125 3.094-1.916 2.062-3.083 4.833-3.5 8.312h20.282v-.406c-.105-3.25-1.032-5.896-2.782-7.938-1.75-2.041-4.041-3.062-6.875-3.062Zm40.907 22.656c0-1.854-.75-3.344-2.25-4.468-1.48-1.126-3.719-2-6.719-2.626-3-.645-5.334-1.374-7-2.187-1.646-.833-2.875-1.844-3.688-3.031-.791-1.188-1.187-2.625-1.187-4.313 0-2.666 1.114-4.864 3.344-6.593 2.229-1.75 5.083-2.626 8.562-2.626 3.771 0 6.792.938 9.062 2.813 2.292 1.854 3.438 4.281 3.438 7.281h-3.75c0-1.979-.833-3.625-2.5-4.937-1.646-1.313-3.729-1.969-6.25-1.969-2.458 0-4.438.552-5.938 1.656-1.479 1.084-2.218 2.5-2.218 4.25 0 1.688.614 3 1.844 3.938 1.25.916 3.51 1.76 6.781 2.531 3.291.771 5.75 1.594 7.375 2.469 1.646.875 2.864 1.927 3.656 3.156.792 1.229 1.188 2.719 1.188 4.469 0 2.854-1.157 5.135-3.469 6.843-2.292 1.709-5.292 2.563-9 2.563-3.938 0-7.136-.948-9.594-2.844-2.437-1.916-3.656-4.333-3.656-7.25h3.75c.146 2.188 1.062 3.896 2.75 5.125 1.708 1.209 3.958 1.813 6.75 1.813 2.604 0 4.708-.573 6.312-1.719 1.604-1.146 2.407-2.594 2.407-4.344ZM664.375 495h-3.75v-33.812h3.75V495Zm-4.406-43.594c0-.708.229-1.302.687-1.781.459-.5 1.084-.75 1.875-.75.792 0 1.417.25 1.875.75.479.479.719 1.073.719 1.781 0 .709-.24 1.302-.719 1.782-.458.479-1.083.718-1.875.718-.791 0-1.416-.239-1.875-.718-.458-.48-.687-1.073-.687-1.782Zm18.156 9.782.125 5.781c1.271-2.084 2.854-3.667 4.75-4.75 1.896-1.104 3.99-1.657 6.281-1.657 3.625 0 6.323 1.021 8.094 3.063 1.771 2.042 2.667 5.104 2.687 9.187V495h-3.718v-22.219c-.021-3.021-.667-5.271-1.938-6.75-1.25-1.479-3.26-2.219-6.031-2.219-2.313 0-4.365.73-6.156 2.188-1.771 1.438-3.084 3.385-3.938 5.844V495h-3.719v-33.812h3.563Zm74.375 17.25c0 5.27-1.167 9.458-3.5 12.562-2.333 3.083-5.458 4.625-9.375 4.625-4.625 0-8.167-1.625-10.625-4.875V508h-3.719v-46.812h3.469l.188 4.781c2.437-3.604 5.968-5.407 10.593-5.407 4.042 0 7.209 1.532 9.5 4.594 2.313 3.063 3.469 7.313 3.469 12.75v.532Zm-3.75-.657c0-4.312-.885-7.719-2.656-10.219-1.771-2.5-4.24-3.75-7.406-3.75-2.292 0-4.261.553-5.907 1.657s-2.906 2.708-3.781 4.812V486.5c.896 1.938 2.177 3.417 3.844 4.438 1.666 1.02 3.635 1.531 5.906 1.531 3.146 0 5.594-1.25 7.344-3.75 1.771-2.521 2.656-6.167 2.656-10.938ZM782.156 495c-.375-1.062-.614-2.635-.718-4.719-1.313 1.709-2.99 3.031-5.032 3.969a15.395 15.395 0 0 1-6.437 1.375c-3.25 0-5.886-.906-7.907-2.719-2-1.812-3-4.104-3-6.875 0-3.291 1.365-5.896 4.094-7.812 2.75-1.917 6.573-2.875 11.469-2.875h6.781V471.5c0-2.417-.75-4.312-2.25-5.688-1.479-1.395-3.646-2.093-6.5-2.093-2.604 0-4.76.666-6.468 2-1.709 1.333-2.563 2.937-2.563 4.812l-3.75-.031c0-2.688 1.25-5.01 3.75-6.969 2.5-1.979 5.573-2.969 9.219-2.969 3.771 0 6.739.948 8.906 2.844 2.188 1.875 3.312 4.5 3.375 7.875v16c0 3.271.344 5.719 1.031 7.344V495h-4Zm-11.75-2.688c2.5 0 4.729-.604 6.688-1.812 1.979-1.208 3.416-2.823 4.312-4.844v-7.437h-6.687c-3.729.041-6.646.729-8.75 2.062-2.104 1.313-3.157 3.125-3.157 5.438 0 1.896.698 3.469 2.094 4.719 1.417 1.25 3.25 1.874 5.5 1.874Zm40.344-27.937a13.95 13.95 0 0 0-2.531-.219c-2.334 0-4.313.656-5.938 1.969-1.604 1.292-2.75 3.177-3.437 5.656V495h-3.719v-33.812h3.656l.063 5.374c1.979-4 5.156-6 9.531-6 1.042 0 1.865.136 2.469.407l-.094 3.406ZM836.781 495c-.375-1.062-.614-2.635-.719-4.719-1.312 1.709-2.989 3.031-5.031 3.969a15.395 15.395 0 0 1-6.437 1.375c-3.25 0-5.886-.906-7.906-2.719-2-1.812-3-4.104-3-6.875 0-3.291 1.364-5.896 4.093-7.812 2.75-1.917 6.573-2.875 11.469-2.875h6.781V471.5c0-2.417-.75-4.312-2.25-5.688-1.479-1.395-3.646-2.093-6.5-2.093-2.604 0-4.76.666-6.469 2-1.708 1.333-2.562 2.937-2.562 4.812l-3.75-.031c0-2.688 1.25-5.01 3.75-6.969 2.5-1.979 5.573-2.969 9.219-2.969 3.771 0 6.739.948 8.906 2.844 2.187 1.875 3.313 4.5 3.375 7.875v16c0 3.271.344 5.719 1.031 7.344V495h-4Zm-11.75-2.688c2.5 0 4.729-.604 6.688-1.812 1.979-1.208 3.416-2.823 4.312-4.844v-7.437h-6.687c-3.729.041-6.646.729-8.75 2.062-2.104 1.313-3.156 3.125-3.156 5.438 0 1.896.697 3.469 2.093 4.719 1.417 1.25 3.25 1.874 5.5 1.874Zm23.219-14.531c0-5.291 1.167-9.479 3.5-12.562 2.354-3.104 5.542-4.657 9.562-4.657 4.605 0 8.105 1.834 10.5 5.5l.188-4.874h3.5v33.124c0 4.355-1.219 7.803-3.656 10.344-2.438 2.542-5.74 3.813-9.906 3.813-2.355 0-4.605-.531-6.75-1.594-2.126-1.042-3.803-2.437-5.032-4.187l2.094-2.25c2.646 3.25 5.792 4.874 9.438 4.874 3.124 0 5.562-.927 7.312-2.781 1.75-1.833 2.656-4.385 2.719-7.656v-4.25c-2.396 3.333-5.886 5-10.469 5-3.917 0-7.062-1.563-9.438-4.687-2.374-3.126-3.562-7.344-3.562-12.657v-.5Zm3.781.657c0 4.312.865 7.718 2.594 10.218 1.729 2.479 4.167 3.719 7.313 3.719 4.604 0 7.864-2.063 9.781-6.187v-15.719c-.875-2.167-2.136-3.813-3.781-4.938-1.646-1.146-3.626-1.719-5.938-1.719-3.146 0-5.594 1.24-7.344 3.719-1.75 2.459-2.625 6.094-2.625 10.907Zm48.844-14.063a13.95 13.95 0 0 0-2.531-.219c-2.334 0-4.313.656-5.938 1.969-1.604 1.292-2.75 3.177-3.437 5.656V495h-3.719v-33.812h3.656l.063 5.374c1.979-4 5.156-6 9.531-6 1.042 0 1.865.136 2.469.407l-.094 3.406ZM926.906 495c-.375-1.062-.614-2.635-.718-4.719-1.313 1.709-2.99 3.031-5.032 3.969a15.395 15.395 0 0 1-6.437 1.375c-3.25 0-5.886-.906-7.907-2.719-2-1.812-3-4.104-3-6.875 0-3.291 1.365-5.896 4.094-7.812 2.75-1.917 6.573-2.875 11.469-2.875h6.781V471.5c0-2.417-.75-4.312-2.25-5.688-1.479-1.395-3.646-2.093-6.5-2.093-2.604 0-4.76.666-6.468 2-1.709 1.333-2.563 2.937-2.563 4.812l-3.75-.031c0-2.688 1.25-5.01 3.75-6.969 2.5-1.979 5.573-2.969 9.219-2.969 3.771 0 6.739.948 8.906 2.844 2.188 1.875 3.312 4.5 3.375 7.875v16c0 3.271.344 5.719 1.031 7.344V495h-4Zm-11.75-2.688c2.5 0 4.729-.604 6.688-1.812 1.979-1.208 3.416-2.823 4.312-4.844v-7.437h-6.687c-3.729.041-6.646.729-8.75 2.062-2.104 1.313-3.157 3.125-3.157 5.438 0 1.896.698 3.469 2.094 4.719 1.417 1.25 3.25 1.874 5.5 1.874Zm51.906-13.874c0 5.27-1.166 9.458-3.5 12.562-2.333 3.083-5.458 4.625-9.374 4.625-4.626 0-8.167-1.625-10.626-4.875V508h-3.718v-46.812h3.468l.188 4.781c2.438-3.604 5.969-5.407 10.594-5.407 4.041 0 7.208 1.532 9.5 4.594 2.312 3.063 3.468 7.313 3.468 12.75v.532Zm-3.75-.657c0-4.312-.885-7.719-2.656-10.219-1.771-2.5-4.239-3.75-7.406-3.75-2.292 0-4.26.553-5.906 1.657s-2.906 2.708-3.782 4.812V486.5c.896 1.938 2.178 3.417 3.844 4.438 1.667 1.02 3.636 1.531 5.906 1.531 3.146 0 5.594-1.25 7.344-3.75 1.771-2.521 2.656-6.167 2.656-10.938Zm15.782-10.875c1.229-2.021 2.802-3.583 4.718-4.687 1.917-1.104 4.011-1.657 6.282-1.657 3.625 0 6.323 1.021 8.094 3.063 1.77 2.042 2.662 5.104 2.692 9.187V495h-3.724v-22.219c-.021-3.021-.666-5.271-1.937-6.75-1.25-1.479-3.261-2.219-6.031-2.219-2.313 0-4.365.73-6.157 2.188-1.771 1.438-3.083 3.385-3.937 5.844V495h-3.719v-48h3.719v19.906ZM456.312 578.25h-20.656L430.969 591h-4.031l17.218-45.5h3.656l17.219 45.5h-4l-4.719-12.75Zm-19.468-3.281h18.25l-9.125-24.781-9.125 24.781Zm39.281-26.438v8.657h7v3.062h-7v22.531c0 1.875.333 3.271 1 4.188.687.916 1.823 1.375 3.406 1.375.625 0 1.636-.104 3.031-.313l.157 3.063c-.979.354-2.313.531-4 .531-2.563 0-4.427-.74-5.594-2.219-1.167-1.5-1.75-3.698-1.75-6.594V560.25h-6.219v-3.062h6.219v-8.657h3.75Zm50.563 33.875c0-1.854-.75-3.344-2.25-4.468-1.48-1.126-3.719-2-6.719-2.626-3-.645-5.334-1.374-7-2.187-1.646-.833-2.875-1.844-3.688-3.031-.791-1.188-1.187-2.625-1.187-4.313 0-2.666 1.114-4.864 3.344-6.593 2.229-1.75 5.083-2.626 8.562-2.626 3.771 0 6.792.938 9.062 2.813 2.292 1.854 3.438 4.281 3.438 7.281h-3.75c0-1.979-.833-3.625-2.5-4.937-1.646-1.313-3.729-1.969-6.25-1.969-2.458 0-4.438.552-5.938 1.656-1.479 1.084-2.218 2.5-2.218 4.25 0 1.688.614 3 1.844 3.938 1.25.916 3.51 1.76 6.781 2.531 3.291.771 5.75 1.594 7.375 2.469 1.646.875 2.864 1.927 3.656 3.156.792 1.229 1.188 2.719 1.188 4.469 0 2.854-1.157 5.135-3.469 6.843-2.292 1.709-5.292 2.563-9 2.563-3.938 0-7.136-.948-9.594-2.844-2.437-1.916-3.656-4.333-3.656-7.25h3.75c.146 2.188 1.062 3.896 2.75 5.125 1.708 1.209 3.958 1.813 6.75 1.813 2.604 0 4.708-.573 6.312-1.719 1.604-1.146 2.407-2.594 2.407-4.344Zm18-33.875v8.657h7v3.062h-7v22.531c0 1.875.333 3.271 1 4.188.687.916 1.822 1.375 3.406 1.375.625 0 1.635-.104 3.031-.313l.156 3.063c-.979.354-2.312.531-4 .531-2.562 0-4.427-.74-5.593-2.219-1.167-1.5-1.75-3.698-1.75-6.594V560.25h-6.219v-3.062h6.219v-8.657h3.75ZM580.781 591c-.375-1.062-.614-2.635-.719-4.719-1.312 1.709-2.989 3.031-5.031 3.969a15.395 15.395 0 0 1-6.437 1.375c-3.25 0-5.886-.906-7.906-2.719-2-1.812-3-4.104-3-6.875 0-3.291 1.364-5.896 4.093-7.812 2.75-1.917 6.573-2.875 11.469-2.875h6.781V567.5c0-2.417-.75-4.312-2.25-5.688-1.479-1.395-3.646-2.093-6.5-2.093-2.604 0-4.76.666-6.469 2-1.708 1.333-2.562 2.937-2.562 4.812l-3.75-.031c0-2.688 1.25-5.01 3.75-6.969 2.5-1.979 5.573-2.969 9.219-2.969 3.771 0 6.739.948 8.906 2.844 2.187 1.875 3.313 4.5 3.375 7.875v16c0 3.271.344 5.719 1.031 7.344V591h-4Zm-11.75-2.688c2.5 0 4.729-.604 6.688-1.812 1.979-1.208 3.416-2.823 4.312-4.844v-7.437h-6.687c-3.729.041-6.646.729-8.75 2.062-2.104 1.313-3.156 3.125-3.156 5.438 0 1.896.697 3.469 2.093 4.719 1.417 1.25 3.25 1.874 5.5 1.874Zm40.344-27.937a13.95 13.95 0 0 0-2.531-.219c-2.334 0-4.313.656-5.938 1.969-1.604 1.292-2.75 3.177-3.437 5.656V591h-3.719v-33.812h3.656l.063 5.374c1.979-4 5.156-6 9.531-6 1.042 0 1.865.136 2.469.407l-.094 3.406Zm13.313-11.844v8.657h7v3.062h-7v22.531c0 1.875.333 3.271 1 4.188.687.916 1.822 1.375 3.406 1.375.625 0 1.635-.104 3.031-.313l.156 3.063c-.979.354-2.312.531-4 .531-2.562 0-4.427-.74-5.593-2.219-1.167-1.5-1.75-3.698-1.75-6.594V560.25h-6.219v-3.062h6.219v-8.657h3.75Zm29.781 46.375h-3.407l19-49.406h3.376l-18.969 49.406Zm54.625-3.281c-2.875 0-5.479-.708-7.813-2.125-2.312-1.417-4.114-3.385-5.406-5.906-1.292-2.542-1.937-5.386-1.937-8.532v-1.343c0-3.25.624-6.177 1.874-8.781 1.271-2.605 3.032-4.646 5.282-6.126 2.25-1.5 4.687-2.25 7.312-2.25 4.104 0 7.354 1.407 9.75 4.219 2.417 2.792 3.625 6.615 3.625 11.469v2.094h-24.125v.718c0 3.834 1.094 7.032 3.282 9.594 2.208 2.542 4.979 3.813 8.312 3.813 2 0 3.76-.365 5.281-1.094 1.542-.729 2.938-1.896 4.188-3.5l2.343 1.781c-2.75 3.979-6.739 5.969-11.968 5.969Zm-.688-31.875c-2.812 0-5.187 1.031-7.125 3.094-1.916 2.062-3.083 4.833-3.5 8.312h20.281v-.406c-.104-3.25-1.031-5.896-2.781-7.938-1.75-2.041-4.041-3.062-6.875-3.062Zm24.219-2.562.125 5.781c1.271-2.084 2.854-3.667 4.75-4.75 1.896-1.104 3.99-1.657 6.281-1.657 3.625 0 6.323 1.021 8.094 3.063 1.771 2.042 2.667 5.104 2.687 9.187V591h-3.718v-22.219c-.021-3.021-.667-5.271-1.938-6.75-1.25-1.479-3.26-2.219-6.031-2.219-2.313 0-4.365.73-6.156 2.188-1.771 1.438-3.084 3.385-3.938 5.844V591h-3.719v-33.812h3.563Zm30.125 16.593c0-5.25 1.167-9.427 3.5-12.531 2.354-3.125 5.542-4.688 9.562-4.688 4.563 0 8.042 1.803 10.438 5.407V543h3.719v48h-3.5l-.157-4.5c-2.395 3.417-5.916 5.125-10.562 5.125-3.896 0-7.042-1.563-9.438-4.687-2.374-3.146-3.562-7.386-3.562-12.719v-.438Zm3.781.657c0 4.312.865 7.718 2.594 10.218 1.729 2.479 4.167 3.719 7.313 3.719 4.604 0 7.874-2.031 9.812-6.094v-15.875c-1.938-4.396-5.188-6.594-9.75-6.594-3.146 0-5.594 1.24-7.344 3.719-1.75 2.459-2.625 6.094-2.625 10.907Zm46.781-.844c0-3.25.626-6.177 1.876-8.782 1.27-2.604 3.052-4.624 5.343-6.062 2.313-1.458 4.927-2.188 7.844-2.188 4.5 0 8.146 1.584 10.937 4.75 2.792 3.146 4.188 7.323 4.188 12.532v.781c0 3.271-.635 6.219-1.906 8.844-1.25 2.604-3.021 4.614-5.313 6.031-2.291 1.417-4.906 2.125-7.843 2.125-4.48 0-8.126-1.573-10.938-4.719-2.792-3.166-4.188-7.354-4.188-12.562v-.75Zm3.75 1.031c0 4.042 1.042 7.365 3.126 9.969 2.104 2.583 4.854 3.875 8.25 3.875 3.374 0 6.104-1.292 8.187-3.875 2.104-2.604 3.156-6.032 3.156-10.282v-.718c0-2.584-.479-4.948-1.437-7.094-.959-2.146-2.302-3.802-4.032-4.969-1.729-1.187-3.708-1.781-5.937-1.781-3.333 0-6.052 1.312-8.156 3.938-2.104 2.604-3.157 6.02-3.157 10.25v.687ZM851.938 591v-30.75h-5.594v-3.062h5.594v-4.094c0-3.459.874-6.115 2.624-7.969 1.771-1.854 4.23-2.781 7.376-2.781 1.416 0 2.739.177 3.968.531l-.281 3.125c-1.042-.25-2.177-.375-3.406-.375-2.063 0-3.667.646-4.813 1.937-1.146 1.271-1.718 3.084-1.718 5.438v4.188h8.062v3.062h-8.062V591h-3.75Zm61.25-16.562c0 5.27-1.167 9.458-3.5 12.562-2.334 3.083-5.459 4.625-9.376 4.625-4.624 0-8.166-1.625-10.624-4.875V604h-3.719v-46.812h3.469l.187 4.781c2.437-3.604 5.969-5.407 10.594-5.407 4.041 0 7.208 1.532 9.5 4.594 2.312 3.063 3.469 7.313 3.469 12.75v.532Zm-3.75-.657c0-4.312-.886-7.719-2.657-10.219-1.771-2.5-4.239-3.75-7.406-3.75-2.292 0-4.26.553-5.906 1.657s-2.907 2.708-3.781 4.812V582.5c.895 1.938 2.177 3.417 3.843 4.438 1.667 1.02 3.636 1.531 5.907 1.531 3.145 0 5.593-1.25 7.343-3.75 1.771-2.521 2.657-6.167 2.657-10.938ZM942.844 591c-.375-1.062-.615-2.635-.719-4.719-1.313 1.709-2.99 3.031-5.031 3.969a15.4 15.4 0 0 1-6.438 1.375c-3.25 0-5.885-.906-7.906-2.719-2-1.812-3-4.104-3-6.875 0-3.291 1.365-5.896 4.094-7.812 2.75-1.917 6.573-2.875 11.468-2.875h6.782V567.5c0-2.417-.75-4.312-2.25-5.688-1.479-1.395-3.646-2.093-6.5-2.093-2.604 0-4.761.666-6.469 2-1.708 1.333-2.563 2.937-2.563 4.812l-3.75-.031c0-2.688 1.25-5.01 3.75-6.969 2.5-1.979 5.573-2.969 9.219-2.969 3.771 0 6.74.948 8.907 2.844 2.187 1.875 3.312 4.5 3.374 7.875v16c0 3.271.344 5.719 1.032 7.344V591h-4Zm-11.75-2.688c2.5 0 4.729-.604 6.687-1.812 1.979-1.208 3.417-2.823 4.313-4.844v-7.437h-6.688c-3.729.041-6.646.729-8.75 2.062-2.104 1.313-3.156 3.125-3.156 5.438 0 1.896.698 3.469 2.094 4.719 1.416 1.25 3.25 1.874 5.5 1.874Zm40.344-27.937a13.962 13.962 0 0 0-2.532-.219c-2.333 0-4.312.656-5.937 1.969-1.604 1.292-2.75 3.177-3.438 5.656V591h-3.719v-33.812h3.657l.062 5.374c1.979-4 5.157-6 9.531-6 1.042 0 1.865.136 2.469.407l-.093 3.406ZM997.469 591c-.375-1.062-.615-2.635-.719-4.719-1.312 1.709-2.99 3.031-5.031 3.969a15.4 15.4 0 0 1-6.438 1.375c-3.25 0-5.885-.906-7.906-2.719-2-1.812-3-4.104-3-6.875 0-3.291 1.365-5.896 4.094-7.812 2.75-1.917 6.573-2.875 11.469-2.875h6.781V567.5c0-2.417-.75-4.312-2.25-5.688-1.479-1.395-3.646-2.093-6.5-2.093-2.604 0-4.761.666-6.469 2-1.708 1.333-2.562 2.937-2.562 4.812l-3.75-.031c0-2.688 1.25-5.01 3.75-6.969 2.5-1.979 5.572-2.969 9.218-2.969 3.771 0 6.74.948 8.906 2.844 2.188 1.875 3.318 4.5 3.378 7.875v16c0 3.271.34 5.719 1.03 7.344V591h-4.001Zm-11.75-2.688c2.5 0 4.729-.604 6.687-1.812 1.979-1.208 3.417-2.823 4.313-4.844v-7.437h-6.688c-3.729.041-6.646.729-8.75 2.062-2.104 1.313-3.156 3.125-3.156 5.438 0 1.896.698 3.469 2.094 4.719 1.416 1.25 3.25 1.874 5.5 1.874Zm23.221-14.531c0-5.291 1.16-9.479 3.5-12.562 2.35-3.104 5.54-4.657 9.56-4.657 4.6 0 8.1 1.834 10.5 5.5l.19-4.874h3.5v33.124c0 4.355-1.22 7.803-3.66 10.344-2.44 2.542-5.74 3.813-9.91 3.813-2.35 0-4.6-.531-6.74-1.594-2.13-1.042-3.81-2.437-5.04-4.187l2.1-2.25c2.64 3.25 5.79 4.874 9.44 4.874 3.12 0 5.56-.927 7.31-2.781 1.75-1.833 2.65-4.385 2.72-7.656v-4.25c-2.4 3.333-5.89 5-10.47 5-3.92 0-7.06-1.563-9.44-4.687-2.38-3.126-3.56-7.344-3.56-12.657v-.5Zm3.78.657c0 4.312.86 7.718 2.59 10.218 1.73 2.479 4.17 3.719 7.31 3.719 4.61 0 7.87-2.063 9.79-6.187v-15.719c-.88-2.167-2.14-3.813-3.79-4.938-1.64-1.146-3.62-1.719-5.93-1.719-3.15 0-5.6 1.24-7.35 3.719-1.75 2.459-2.62 6.094-2.62 10.907Zm48.84-14.063c-.79-.146-1.63-.219-2.53-.219-2.33 0-4.31.656-5.94 1.969-1.6 1.292-2.75 3.177-3.43 5.656V591h-3.72v-33.812h3.65l.07 5.374c1.98-4 5.15-6 9.53-6 1.04 0 1.86.136 2.47.407l-.1 3.406ZM1087.59 591c-.37-1.062-.61-2.635-.71-4.719-1.32 1.709-2.99 3.031-5.04 3.969a15.364 15.364 0 0 1-6.43 1.375c-3.25 0-5.89-.906-7.91-2.719-2-1.812-3-4.104-3-6.875 0-3.291 1.36-5.896 4.09-7.812 2.75-1.917 6.58-2.875 11.47-2.875h6.78V567.5c0-2.417-.75-4.312-2.25-5.688-1.48-1.395-3.64-2.093-6.5-2.093-2.6 0-4.76.666-6.47 2-1.7 1.333-2.56 2.937-2.56 4.812l-3.75-.031c0-2.688 1.25-5.01 3.75-6.969 2.5-1.979 5.58-2.969 9.22-2.969 3.77 0 6.74.948 8.91 2.844 2.19 1.875 3.31 4.5 3.37 7.875v16c0 3.271.35 5.719 1.03 7.344V591h-4Zm-11.75-2.688c2.5 0 4.73-.604 6.69-1.812 1.98-1.208 3.42-2.823 4.31-4.844v-7.437h-6.68c-3.73.041-6.65.729-8.75 2.062-2.11 1.313-3.16 3.125-3.16 5.438 0 1.896.7 3.469 2.09 4.719 1.42 1.25 3.25 1.874 5.5 1.874Zm51.91-13.874c0 5.27-1.17 9.458-3.5 12.562-2.33 3.083-5.46 4.625-9.37 4.625-4.63 0-8.17-1.625-10.63-4.875V604h-3.72v-46.812h3.47l.19 4.781c2.43-3.604 5.97-5.407 10.59-5.407 4.04 0 7.21 1.532 9.5 4.594 2.31 3.063 3.47 7.313 3.47 12.75v.532Zm-3.75-.657c0-4.312-.89-7.719-2.66-10.219-1.77-2.5-4.24-3.75-7.4-3.75-2.29 0-4.26.553-5.91 1.657-1.64 1.104-2.91 2.708-3.78 4.812V582.5c.9 1.938 2.18 3.417 3.84 4.438 1.67 1.02 3.64 1.531 5.91 1.531 3.15 0 5.59-1.25 7.34-3.75 1.77-2.521 2.66-6.167 2.66-10.938Zm15.78-10.875c1.23-2.021 2.8-3.583 4.72-4.687s4.01-1.657 6.28-1.657c3.63 0 6.32 1.021 8.1 3.063 1.77 2.042 2.66 5.104 2.68 9.187V591h-3.72v-22.219c-.02-3.021-.66-5.271-1.93-6.75-1.25-1.479-3.26-2.219-6.03-2.219-2.32 0-4.37.73-6.16 2.188-1.77 1.438-3.08 3.385-3.94 5.844V591h-3.72v-48h3.72v19.906ZM535.312 675.812c0-2.52-.885-4.51-2.656-5.968-1.771-1.479-5.01-2.875-9.718-4.188-4.709-1.333-8.146-2.781-10.313-4.344-3.083-2.208-4.625-5.104-4.625-8.687 0-3.479 1.427-6.302 4.281-8.469 2.875-2.187 6.542-3.281 11-3.281 3.021 0 5.719.583 8.094 1.75 2.396 1.167 4.25 2.792 5.563 4.875 1.312 2.083 1.968 4.406 1.968 6.969h-3.875c0-3.104-1.062-5.594-3.187-7.469-2.125-1.896-4.979-2.844-8.563-2.844-3.479 0-6.25.782-8.312 2.344-2.063 1.542-3.094 3.562-3.094 6.062 0 2.313.927 4.198 2.781 5.657 1.854 1.458 4.823 2.75 8.906 3.875 4.084 1.104 7.178 2.26 9.282 3.468 2.104 1.188 3.687 2.615 4.75 4.282 1.062 1.666 1.594 3.635 1.594 5.906 0 3.583-1.438 6.458-4.313 8.625-2.854 2.167-6.625 3.25-11.313 3.25-3.208 0-6.156-.573-8.843-1.719-2.667-1.146-4.698-2.75-6.094-4.812-1.375-2.063-2.063-4.427-2.063-7.094h3.844c0 3.208 1.198 5.74 3.594 7.594s5.583 2.781 9.562 2.781c3.542 0 6.386-.781 8.532-2.344 2.146-1.562 3.218-3.635 3.218-6.219Zm17.126-31.281v8.657h7v3.062h-7v22.531c0 1.875.333 3.271 1 4.188.687.916 1.822 1.375 3.406 1.375.625 0 1.635-.104 3.031-.313l.156 3.063c-.979.354-2.312.531-4 .531-2.562 0-4.427-.74-5.593-2.219-1.167-1.5-1.75-3.698-1.75-6.594V656.25h-6.219v-3.062h6.219v-8.657h3.75ZM588.531 687c-.375-1.062-.614-2.635-.719-4.719-1.312 1.709-2.989 3.031-5.031 3.969a15.395 15.395 0 0 1-6.437 1.375c-3.25 0-5.886-.906-7.906-2.719-2-1.812-3-4.104-3-6.875 0-3.291 1.364-5.896 4.093-7.812 2.75-1.917 6.573-2.875 11.469-2.875h6.781V663.5c0-2.417-.75-4.312-2.25-5.688-1.479-1.395-3.646-2.093-6.5-2.093-2.604 0-4.76.666-6.469 2-1.708 1.333-2.562 2.937-2.562 4.812l-3.75-.031c0-2.688 1.25-5.01 3.75-6.969 2.5-1.979 5.573-2.969 9.219-2.969 3.771 0 6.739.948 8.906 2.844 2.187 1.875 3.313 4.5 3.375 7.875v16c0 3.271.344 5.719 1.031 7.344V687h-4Zm-11.75-2.688c2.5 0 4.729-.604 6.688-1.812 1.979-1.208 3.416-2.823 4.312-4.844v-7.437h-6.687c-3.729.041-6.646.729-8.75 2.062-2.104 1.313-3.156 3.125-3.156 5.438 0 1.896.697 3.469 2.093 4.719 1.417 1.25 3.25 1.874 5.5 1.874Zm40.344-27.937a13.95 13.95 0 0 0-2.531-.219c-2.334 0-4.313.656-5.938 1.969-1.604 1.292-2.75 3.177-3.437 5.656V687H601.5v-33.812h3.656l.063 5.374c1.979-4 5.156-6 9.531-6 1.042 0 1.865.136 2.469.407l-.094 3.406Zm13.313-11.844v8.657h7v3.062h-7v22.531c0 1.875.333 3.271 1 4.188.687.916 1.822 1.375 3.406 1.375.625 0 1.635-.104 3.031-.313l.156 3.063c-.979.354-2.312.531-4 .531-2.562 0-4.427-.74-5.593-2.219-1.167-1.5-1.75-3.698-1.75-6.594V656.25h-6.219v-3.062h6.219v-8.657h3.75Zm13.843 40.219c0-.729.229-1.344.688-1.844.479-.521 1.135-.781 1.969-.781.833 0 1.489.26 1.968.781.479.5.719 1.115.719 1.844 0 .729-.24 1.333-.719 1.812-.479.459-1.135.688-1.968.688-.834 0-1.49-.229-1.969-.688-.459-.479-.688-1.083-.688-1.812Zm.063-28.844c0-.729.229-1.344.687-1.844.479-.52 1.136-.781 1.969-.781.833 0 1.49.261 1.969.781.479.5.719 1.115.719 1.844 0 .729-.24 1.334-.719 1.813-.479.458-1.136.687-1.969.687-.833 0-1.49-.229-1.969-.687-.458-.479-.687-1.084-.687-1.813ZM776.125 687h-3.75v-48h3.75v48Zm14.375 0h-3.75v-33.812h3.75V687Zm-4.406-43.594c0-.708.229-1.302.687-1.781.459-.5 1.084-.75 1.875-.75.792 0 1.417.25 1.875.75.479.479.719 1.073.719 1.781 0 .709-.24 1.302-.719 1.782-.458.479-1.083.718-1.875.718-.791 0-1.416-.239-1.875-.718-.458-.48-.687-1.073-.687-1.782Zm18.156 9.782.125 5.781c1.271-2.084 2.854-3.667 4.75-4.75 1.896-1.104 3.99-1.657 6.281-1.657 3.625 0 6.323 1.021 8.094 3.063 1.771 2.042 2.667 5.104 2.688 9.187V687h-3.719v-22.219c-.021-3.021-.667-5.271-1.938-6.75-1.25-1.479-3.26-2.219-6.031-2.219-2.312 0-4.365.73-6.156 2.188-1.771 1.438-3.084 3.385-3.938 5.844V687h-3.718v-33.812h3.562Zm44.719 34.437c-2.875 0-5.479-.708-7.813-2.125-2.312-1.417-4.114-3.385-5.406-5.906-1.292-2.542-1.938-5.386-1.938-8.532v-1.343c0-3.25.626-6.177 1.876-8.781 1.27-2.605 3.031-4.646 5.281-6.126 2.25-1.5 4.687-2.25 7.312-2.25 4.104 0 7.354 1.407 9.75 4.219 2.417 2.792 3.625 6.615 3.625 11.469v2.094h-24.125v.718c0 3.834 1.094 7.032 3.281 9.594 2.209 2.542 4.98 3.813 8.313 3.813 2 0 3.76-.365 5.281-1.094 1.542-.729 2.938-1.896 4.188-3.5l2.344 1.781c-2.75 3.979-6.74 5.969-11.969 5.969Zm-.688-31.875c-2.812 0-5.187 1.031-7.125 3.094-1.916 2.062-3.083 4.833-3.5 8.312h20.282v-.406c-.105-3.25-1.032-5.896-2.782-7.938-1.75-2.041-4.041-3.062-6.875-3.062Zm40.907 22.656c0-1.854-.75-3.344-2.25-4.468-1.48-1.126-3.719-2-6.719-2.626-3-.645-5.334-1.374-7-2.187-1.646-.833-2.875-1.844-3.688-3.031-.791-1.188-1.187-2.625-1.187-4.313 0-2.666 1.114-4.864 3.344-6.593 2.229-1.75 5.083-2.626 8.562-2.626 3.771 0 6.792.938 9.062 2.813 2.292 1.854 3.438 4.281 3.438 7.281H889c0-1.979-.833-3.625-2.5-4.937-1.646-1.313-3.729-1.969-6.25-1.969-2.458 0-4.438.552-5.938 1.656-1.479 1.084-2.218 2.5-2.218 4.25 0 1.688.614 3 1.844 3.938 1.25.916 3.51 1.76 6.781 2.531 3.291.771 5.75 1.594 7.375 2.469 1.646.875 2.864 1.927 3.656 3.156.792 1.229 1.188 2.719 1.188 4.469 0 2.854-1.157 5.135-3.469 6.843-2.292 1.709-5.292 2.563-9 2.563-3.938 0-7.136-.948-9.594-2.844-2.437-1.916-3.656-4.333-3.656-7.25h3.75c.146 2.188 1.062 3.896 2.75 5.125 1.708 1.209 3.958 1.813 6.75 1.813 2.604 0 4.708-.573 6.312-1.719 1.604-1.146 2.407-2.594 2.407-4.344Zm-354.5 82.782h-21.282v18.562h24.469V783h-28.313v-45.5h28.157v3.281h-24.313v17.157h21.282v3.25Zm14-12 .124 5.781c1.271-2.084 2.855-3.667 4.75-4.75 1.896-1.104 3.99-1.657 6.282-1.657 3.625 0 6.323 1.021 8.094 3.063 1.77 2.042 2.666 5.104 2.687 9.187V783h-3.719v-22.219c-.021-3.021-.666-5.271-1.937-6.75-1.25-1.479-3.261-2.219-6.031-2.219-2.313 0-4.365.73-6.157 2.188-1.771 1.438-3.083 3.385-3.937 5.844V783h-3.719v-33.812h3.563Zm30.124 16.593c0-5.25 1.167-9.427 3.5-12.531 2.355-3.125 5.542-4.688 9.563-4.688 4.563 0 8.042 1.803 10.437 5.407V735h3.719v48h-3.5l-.156-4.5c-2.396 3.417-5.917 5.125-10.563 5.125-3.895 0-7.041-1.563-9.437-4.687-2.375-3.146-3.563-7.386-3.563-12.719v-.438Zm3.782.657c0 4.312.864 7.718 2.594 10.218 1.729 2.479 4.166 3.719 7.312 3.719 4.604 0 7.875-2.031 9.812-6.094v-15.875c-1.937-4.396-5.187-6.594-9.75-6.594-3.145 0-5.593 1.24-7.343 3.719-1.75 2.459-2.625 6.094-2.625 10.907Zm32.375 14.312c0-.729.229-1.344.687-1.844.479-.521 1.136-.781 1.969-.781.833 0 1.49.26 1.969.781.479.5.718 1.115.718 1.844 0 .729-.239 1.333-.718 1.812-.479.459-1.136.688-1.969.688-.833 0-1.49-.229-1.969-.688-.458-.479-.687-1.083-.687-1.812Zm.062-28.844c0-.729.229-1.344.688-1.844.479-.52 1.135-.781 1.969-.781.833 0 1.489.261 1.968.781.479.5.719 1.115.719 1.844 0 .729-.24 1.334-.719 1.813-.479.458-1.135.687-1.968.687-.834 0-1.49-.229-1.969-.687-.459-.479-.688-1.084-.688-1.813ZM776.017 783h-3.75v-48h3.75v48Zm14.375 0h-3.75v-33.812h3.75V783Zm-4.406-43.594c0-.708.229-1.302.688-1.781.458-.5 1.083-.75 1.875-.75.791 0 1.416.25 1.875.75.479.479.718 1.073.718 1.781 0 .709-.239 1.302-.718 1.782-.459.479-1.084.718-1.875.718-.792 0-1.417-.239-1.875-.718-.459-.48-.688-1.073-.688-1.782Zm18.156 9.782.125 5.781c1.271-2.084 2.855-3.667 4.75-4.75 1.896-1.104 3.99-1.657 6.282-1.657 3.625 0 6.323 1.021 8.093 3.063 1.771 2.042 2.667 5.104 2.688 9.187V783h-3.719v-22.219c-.021-3.021-.666-5.271-1.937-6.75-1.25-1.479-3.261-2.219-6.032-2.219-2.312 0-4.364.73-6.156 2.188-1.771 1.438-3.083 3.385-3.937 5.844V783h-3.719v-33.812h3.562Zm44.719 34.437c-2.875 0-5.479-.708-7.812-2.125-2.313-1.417-4.115-3.385-5.407-5.906-1.291-2.542-1.937-5.386-1.937-8.532v-1.343c0-3.25.625-6.177 1.875-8.781 1.271-2.605 3.031-4.646 5.281-6.126 2.25-1.5 4.688-2.25 7.313-2.25 4.104 0 7.354 1.407 9.75 4.219 2.416 2.792 3.625 6.615 3.625 11.469v2.094h-24.125v.718c0 3.834 1.093 7.032 3.281 9.594 2.208 2.542 4.979 3.813 8.312 3.813 2 0 3.761-.365 5.282-1.094 1.541-.729 2.937-1.896 4.187-3.5l2.344 1.781c-2.75 3.979-6.74 5.969-11.969 5.969Zm-.687-31.875c-2.813 0-5.188 1.031-7.125 3.094-1.917 2.062-3.084 4.833-3.5 8.312h20.281v-.406c-.104-3.25-1.031-5.896-2.781-7.938-1.75-2.041-4.042-3.062-6.875-3.062Zm40.906 22.656c0-1.854-.75-3.344-2.25-4.468-1.479-1.126-3.719-2-6.719-2.626-3-.645-5.333-1.374-7-2.187-1.646-.833-2.875-1.844-3.687-3.031-.792-1.188-1.188-2.625-1.188-4.313 0-2.666 1.115-4.864 3.344-6.593 2.229-1.75 5.083-2.626 8.562-2.626 3.771 0 6.792.938 9.063 2.813 2.292 1.854 3.437 4.281 3.437 7.281h-3.75c0-1.979-.833-3.625-2.5-4.937-1.645-1.313-3.729-1.969-6.25-1.969-2.458 0-4.437.552-5.937 1.656-1.479 1.084-2.219 2.5-2.219 4.25 0 1.688.615 3 1.844 3.938 1.25.916 3.51 1.76 6.781 2.531 3.292.771 5.75 1.594 7.375 2.469 1.646.875 2.865 1.927 3.656 3.156.792 1.229 1.188 2.719 1.188 4.469 0 2.854-1.156 5.135-3.469 6.843-2.291 1.709-5.291 2.563-9 2.563-3.937 0-7.135-.948-9.594-2.844-2.437-1.916-3.656-4.333-3.656-7.25h3.75c.146 2.188 1.063 3.896 2.75 5.125 1.709 1.209 3.959 1.813 6.75 1.813 2.604 0 4.709-.573 6.313-1.719 1.604-1.146 2.406-2.594 2.406-4.344Z" fill="#3C4043"/><path d="M717.656 687h-28.5v-2.875l15.594-17.687c2.583-2.98 4.375-5.438 5.375-7.376 1-1.937 1.5-3.822 1.5-5.656 0-2.875-.844-5.146-2.531-6.812-1.688-1.688-4.011-2.532-6.969-2.532-3.063 0-5.542.98-7.437 2.938-1.876 1.958-2.813 4.5-2.813 7.625h-3.719c0-2.563.573-4.896 1.719-7 1.167-2.104 2.813-3.75 4.937-4.937 2.146-1.209 4.584-1.813 7.313-1.813 4.167 0 7.417 1.094 9.75 3.281 2.354 2.188 3.531 5.167 3.531 8.938 0 2.125-.666 4.448-2 6.968-1.312 2.521-3.635 5.667-6.968 9.438l-12.688 14.344h23.906V687Zm-.107 96h-28.5v-2.875l15.593-17.687c2.584-2.98 4.375-5.438 5.375-7.376 1-1.937 1.5-3.822 1.5-5.656 0-2.875-.843-5.146-2.531-6.812-1.687-1.688-4.01-2.532-6.969-2.532-3.062 0-5.541.98-7.437 2.938-1.875 1.958-2.813 4.5-2.813 7.625h-3.718c0-2.563.573-4.896 1.718-7 1.167-2.104 2.813-3.75 4.938-4.937 2.146-1.209 4.583-1.813 7.312-1.813 4.167 0 7.417 1.094 9.75 3.281 2.355 2.188 3.532 5.167 3.532 8.938 0 2.125-.667 4.448-2 6.968-1.313 2.521-3.636 5.667-6.969 9.438l-12.688 14.344h23.907V783Z" fill="#1A73E8"/></svg>