<svg width="1920" height="1080" fill="none" xmlns="http://www.w3.org/2000/svg"><path d="m1812.31 706.926-.07.065-.06.065-47.15 48.05h-304.42V324.609h399.75v335.174l-48.05 47.143Z" fill="#F3F7FE" stroke="#3C4043" stroke-width="19.219"/><path d="M1760.42 655.169h109.54l-54.77 54.773-54.77 54.773V655.169ZM1581.76 456.39v22.47h63.21c-5.04 42.84-28.98 73.5-73.92 96.6l15.54 21.21c64.26-32.55 86.31-82.32 86.31-140.28h-91.14Zm169.68 53.97h-27.09v-73.92h-27.72v193.2h27.72v-96.39h27.09v-22.89Z" fill="#3C4043"/><path d="m1345.31 706.926-.07.065-.06.065-47.15 48.05H993.609V324.609h399.751v335.174l-48.05 47.143Z" fill="#F3F7FE" stroke="#3C4043" stroke-width="19.219"/><path d="M1293.42 655.169h109.54l-54.77 54.773-54.77 54.773V655.169ZM1192.66 442.95l-27.3-.63c.21 3.57-.21 8.61-.42 12.6-.42 3.57-.84 7.35-1.26 11.34h-8.4c-12.81 0-31.29-1.68-38.64-2.94l.63 24.36c9.87.42 26.25 1.26 37.17 1.26h6.72c-.84 8.61-1.47 17.43-1.89 26.46-29.4 13.86-51.66 42-51.66 69.09 0 21.21 13.02 30.45 28.35 30.45 11.13 0 22.26-3.36 32.55-8.4.84 2.94 1.89 5.88 2.73 8.61l24.15-7.35c-1.68-5.04-3.36-10.29-4.83-15.54 15.96-13.23 32.76-35.28 44.1-63.84 14.49 5.67 21.84 16.8 21.84 29.4 0 20.58-16.38 41.16-56.91 45.57l13.86 22.05c51.66-7.77 69.09-36.54 69.09-66.36 0-24.36-16.17-43.47-40.53-51.45 1.26-3.99 2.94-8.4 3.78-10.71l-25.62-6.09c-.21 3.15-1.05 8.4-1.89 12.6h-3.78c-10.29 0-21.21 1.47-31.29 3.78.21-6.3.84-12.81 1.47-19.11 25.83-1.05 53.97-3.57 74.55-7.35l-.21-24.36c-23.1 5.46-45.78 8.19-71.4 9.24.63-4.2 1.47-7.98 2.1-11.55.84-3.15 1.68-6.93 2.94-11.13Zm-60.27 136.08c0-11.97 10.5-27.93 26.25-38.64.42 14.49 2.1 28.98 4.41 42-7.56 4.41-15.12 6.93-21 6.93-6.72 0-9.66-3.57-9.66-10.29Zm49.98-48.93v-.63c8.19-2.52 17.85-4.41 28.98-4.62-7.14 17.01-16.59 29.82-26.46 40.11-1.68-10.5-2.52-22.05-2.52-34.86Z" fill="#3C4043"/><path d="m878.306 706.926-.065.065-.064.065-47.143 48.05H526.609V324.609h399.747v335.174l-48.05 47.143Z" fill="#F3F7FE" stroke="#3C4043" stroke-width="19.219"/><path d="M826.418 655.169h109.546l-54.773 54.773-54.773 54.773V655.169ZM822.05 467.31V441.9H631.58v25.41h76.23c-1.47 7.35-3.15 14.91-5.25 22.05h-61.11v140.91h25.83v-117.6h22.47v111.09h24.78V512.67h23.1v111.09h24.99V512.67h24.78v90.93c0 2.94-.84 3.78-3.78 3.78s-12.18.21-20.58-.21c3.15 6.09 6.93 15.96 7.98 22.68 14.07 0 24.57-.63 32.13-4.2 7.56-3.99 9.66-10.08 9.66-21.84V489.36h-82.95c2.52-6.93 5.04-14.28 7.56-22.05h84.63Z" fill="#3C4043"/><path d="m411.306 706.926-.065.065-.064.065-47.143 48.05H59.609V324.609h399.747v335.174l-48.05 47.143Z" fill="#F3F7FE" stroke="#3C4043" stroke-width="19.219"/><path d="M359.418 655.169h109.546l-54.773 54.773-54.773 54.773V655.169ZM302.55 543.04h41.58v-23.1h-41.58v-34.86h-25.2v34.86h-42.63v23.1h42.63v47.88h-50.82v23.1h125.79v-23.1h-49.77v-47.88Zm-51.87-90.93c2.94-7.56 5.67-15.12 7.98-22.89l-26.25-6.3c-2.52 9.66-5.67 19.32-9.24 29.19h-56.7v23.94h45.57c-12.6 24.15-30.24 46.2-52.29 60.48 3.99 6.09 9.66 17.43 12.39 24.15 6.72-4.62 12.6-9.24 18.48-14.7v73.08h25.41V517.42c9.66-12.81 17.64-26.88 24.57-41.37h112.35v-23.94H250.68Z" fill="#3C4043"/><path d="M1466.95 860.704h.43V836.8h3.02V862h-6.04l-7.28-23.904h-.43V862h-3.02v-25.2h6.05l7.27 23.904Zm8.25-14.112c0-3.264.78-5.796 2.34-7.596 1.56-1.8 3.73-2.7 6.52-2.7 2.78 0 4.95.9 6.51 2.7 1.56 1.8 2.34 4.332 2.34 7.596v5.616c0 3.36-.78 5.916-2.34 7.668-1.56 1.752-3.73 2.628-6.51 2.628-2.79 0-4.96-.876-6.52-2.628-1.56-1.752-2.34-4.308-2.34-7.668v-5.616Zm8.86 13.104c1.94 0 3.39-.66 4.35-1.98.99-1.344 1.48-3.252 1.48-5.724v-5.184c0-2.304-.49-4.164-1.48-5.58-.96-1.416-2.41-2.124-4.35-2.124-1.95 0-3.41.708-4.39 2.124-.96 1.416-1.44 3.276-1.44 5.58v5.184c0 2.472.48 4.38 1.44 5.724.98 1.32 2.44 1.98 4.39 1.98Zm13.19-22.896h17.71v2.808h-7.35V862h-3.02v-22.392h-7.34V836.8Zm22.04 9.792c0-3.264.78-5.796 2.34-7.596 1.56-1.8 3.73-2.7 6.51-2.7 2.79 0 4.96.9 6.52 2.7 1.56 1.8 2.34 4.332 2.34 7.596v5.616c0 3.36-.78 5.916-2.34 7.668-1.56 1.752-3.73 2.628-6.52 2.628-2.78 0-4.95-.876-6.51-2.628-1.56-1.752-2.34-4.308-2.34-7.668v-5.616Zm8.85 13.104c1.95 0 3.4-.66 4.36-1.98.98-1.344 1.48-3.252 1.48-5.724v-5.184c0-2.304-.5-4.164-1.48-5.58-.96-1.416-2.41-2.124-4.36-2.124-1.94 0-3.4.708-4.39 2.124-.96 1.416-1.44 3.276-1.44 5.58v5.184c0 2.472.48 4.38 1.44 5.724.99 1.32 2.45 1.98 4.39 1.98Zm50.03-15.624c0-.816-.17-1.536-.5-2.16a4.382 4.382 0 0 0-1.3-1.548 6.143 6.143 0 0 0-1.91-.936 7.825 7.825 0 0 0-2.27-.324c-.69 0-1.35.096-1.98.288-.62.168-1.18.42-1.69.756-.48.336-.86.756-1.15 1.26-.29.48-.43 1.044-.43 1.692v.216c0 .696.14 1.296.43 1.8.29.48.71.9 1.26 1.26.58.336 1.28.624 2.12.864.84.216 1.83.408 2.96.576 2.64.408 4.58 1.188 5.83 2.34 1.25 1.128 1.87 2.652 1.87 4.572v.432c0 1.08-.19 2.076-.58 2.988a6.05 6.05 0 0 1-1.65 2.304c-.72.648-1.62 1.152-2.7 1.512-1.08.36-2.33.54-3.75.54-1.6 0-3.03-.228-4.28-.684-1.22-.48-2.26-1.128-3.1-1.944a8.737 8.737 0 0 1-1.87-2.916c-.43-1.128-.65-2.352-.65-3.672v-1.08h3.03v.864c0 2.208.6 3.864 1.8 4.968 1.22 1.104 2.91 1.656 5.07 1.656 1.88 0 3.28-.408 4.22-1.224.96-.84 1.44-1.944 1.44-3.312v-.216c0-1.32-.5-2.328-1.48-3.024-.96-.696-2.53-1.2-4.72-1.512-1.27-.168-2.42-.42-3.45-.756-1.01-.36-1.87-.816-2.59-1.368a5.877 5.877 0 0 1-1.66-2.052c-.38-.792-.58-1.728-.58-2.808v-.432c0-.984.21-1.884.62-2.7.4-.816.97-1.524 1.69-2.124.74-.6 1.62-1.056 2.63-1.368 1.03-.336 2.16-.504 3.38-.504 1.42 0 2.68.204 3.78.612 1.13.408 2.08.96 2.84 1.656a6.327 6.327 0 0 1 1.73 2.412c.41.912.61 1.872.61 2.88v1.512h-3.02v-1.296Zm21.5 11.664h-10.8l-1.83 6.264h-3.24l7.63-25.2h5.69l7.63 25.2h-3.24l-1.84-6.264Zm-5.61-17.64-4.36 14.832h9.15l-4.36-14.832h-.43Zm27.19 22.608h.43V836.8h3.02V862h-6.04l-7.28-23.904h-.43V862h-3.02v-25.2h6.05l7.27 23.904Zm23.05-16.632c0-.816-.17-1.536-.5-2.16a4.382 4.382 0 0 0-1.3-1.548 6.143 6.143 0 0 0-1.91-.936 7.825 7.825 0 0 0-2.27-.324c-.69 0-1.35.096-1.98.288-.62.168-1.18.42-1.69.756-.48.336-.86.756-1.15 1.26-.29.48-.43 1.044-.43 1.692v.216c0 .696.14 1.296.43 1.8.29.48.71.9 1.26 1.26.58.336 1.28.624 2.12.864.84.216 1.83.408 2.96.576 2.64.408 4.58 1.188 5.83 2.34 1.25 1.128 1.87 2.652 1.87 4.572v.432c0 1.08-.19 2.076-.58 2.988a6.05 6.05 0 0 1-1.65 2.304c-.72.648-1.62 1.152-2.7 1.512-1.08.36-2.33.54-3.75.54-1.6 0-3.03-.228-4.28-.684-1.22-.48-2.26-1.128-3.1-1.944a8.737 8.737 0 0 1-1.87-2.916c-.43-1.128-.65-2.352-.65-3.672v-1.08h3.03v.864c0 2.208.6 3.864 1.8 4.968 1.22 1.104 2.91 1.656 5.07 1.656 1.88 0 3.28-.408 4.22-1.224.96-.84 1.44-1.944 1.44-3.312v-.216c0-1.32-.5-2.328-1.48-3.024-.96-.696-2.53-1.2-4.72-1.512-1.27-.168-2.42-.42-3.45-.756-1.01-.36-1.87-.816-2.59-1.368a5.877 5.877 0 0 1-1.66-2.052c-.38-.792-.58-1.728-.58-2.808v-.432c0-.984.21-1.884.62-2.7.4-.816.97-1.524 1.69-2.124.74-.6 1.62-1.056 2.63-1.368 1.03-.336 2.16-.504 3.38-.504 1.42 0 2.68.204 3.78.612 1.13.408 2.08.96 2.84 1.656a6.327 6.327 0 0 1 1.73 2.412c.41.912.61 1.872.61 2.88v1.512h-3.02v-1.296ZM1457.23 910h-3.03v-25.2h3.03v11.16h.83l9.68-11.16h3.74v.216l-10.44 12.168v.432l10.88 12.168V910h-3.82l-10.04-11.232h-.83V910Zm17.97-15.408c0-3.264.78-5.796 2.34-7.596 1.56-1.8 3.73-2.7 6.52-2.7 2.78 0 4.95.9 6.51 2.7 1.56 1.8 2.34 4.332 2.34 7.596v5.616c0 3.36-.78 5.916-2.34 7.668-1.56 1.752-3.73 2.628-6.51 2.628-2.79 0-4.96-.876-6.52-2.628-1.56-1.752-2.34-4.308-2.34-7.668v-5.616Zm8.86 13.104c1.94 0 3.39-.66 4.35-1.98.99-1.344 1.48-3.252 1.48-5.724v-5.184c0-2.304-.49-4.164-1.48-5.58-.96-1.416-2.41-2.124-4.35-2.124-1.95 0-3.41.708-4.39 2.124-.96 1.416-1.44 3.276-1.44 5.58v5.184c0 2.472.48 4.38 1.44 5.724.98 1.32 2.44 1.98 4.39 1.98Zm29.93 2.304h-3.03v-8.424c0-.624-.14-1.104-.43-1.44-.29-.336-.79-.504-1.51-.504h-7.85V910h-3.02v-25.2h9c1.29 0 2.42.192 3.38.576.96.36 1.75.852 2.38 1.476a6.027 6.027 0 0 1 1.44 2.196c.33.816.5 1.68.5 2.592v1.08c0 .936-.26 1.872-.79 2.808-.51.936-1.3 1.656-2.38 2.16v.432c.72.12 1.29.408 1.69.864.41.456.62 1.104.62 1.944V910Zm-12.82-13.176h5.62c1.7 0 2.96-.36 3.78-1.08.84-.744 1.26-1.824 1.26-3.24v-.648c0-1.272-.42-2.292-1.26-3.06-.82-.792-2.08-1.188-3.78-1.188h-5.62v9.216Zm19.34-12.024h15.27v2.808h-12.24v8.352h12.02v2.808h-12.02v8.424h12.45V910h-15.48v-25.2Zm35.08 18.936h-10.8l-1.84 6.264h-3.24l7.63-25.2h5.69l7.63 25.2h-3.24l-1.83-6.264Zm-5.62-17.64-4.35 14.832h9.14l-4.36-14.832h-.43Zm27.19 22.608h.43V884.8h3.03V910h-6.05l-7.27-23.904h-.43V910h-3.03v-25.2h6.05l7.27 23.904ZM532.948 860.704h.432V836.8h3.024V862h-6.048l-7.272-23.904h-.432V862h-3.024v-25.2h6.048l7.272 23.904Zm8.255-14.112c0-3.264.78-5.796 2.34-7.596 1.56-1.8 3.732-2.7 6.516-2.7s4.956.9 6.516 2.7c1.56 1.8 2.34 4.332 2.34 7.596v5.616c0 3.36-.78 5.916-2.34 7.668-1.56 1.752-3.732 2.628-6.516 2.628s-4.956-.876-6.516-2.628c-1.56-1.752-2.34-4.308-2.34-7.668v-5.616Zm8.856 13.104c1.944 0 3.396-.66 4.356-1.98.984-1.344 1.476-3.252 1.476-5.724v-5.184c0-2.304-.492-4.164-1.476-5.58-.96-1.416-2.412-2.124-4.356-2.124s-3.408.708-4.392 2.124c-.96 1.416-1.44 3.276-1.44 5.58v5.184c0 2.472.48 4.38 1.44 5.724.984 1.32 2.448 1.98 4.392 1.98Zm13.187-22.896h17.712v2.808h-7.344V862h-3.024v-22.392h-7.344V836.8Zm22.043 9.792c0-3.264.78-5.796 2.34-7.596 1.56-1.8 3.732-2.7 6.516-2.7s4.956.9 6.516 2.7c1.56 1.8 2.34 4.332 2.34 7.596v5.616c0 3.36-.78 5.916-2.34 7.668-1.56 1.752-3.732 2.628-6.516 2.628s-4.956-.876-6.516-2.628c-1.56-1.752-2.34-4.308-2.34-7.668v-5.616Zm8.856 13.104c1.944 0 3.396-.66 4.356-1.98.984-1.344 1.476-3.252 1.476-5.724v-5.184c0-2.304-.492-4.164-1.476-5.58-.96-1.416-2.412-2.124-4.356-2.124s-3.408.708-4.392 2.124c-.96 1.416-1.44 3.276-1.44 5.58v5.184c0 2.472.48 4.38 1.44 5.724.984 1.32 2.448 1.98 4.392 1.98Zm50.026-15.624c0-.816-.168-1.536-.504-2.16a4.27 4.27 0 0 0-1.296-1.548 6.154 6.154 0 0 0-1.908-.936 7.85 7.85 0 0 0-2.268-.324c-.696 0-1.356.096-1.98.288a5.694 5.694 0 0 0-1.692.756c-.48.336-.864.756-1.152 1.26-.288.48-.432 1.044-.432 1.692v.216c0 .696.144 1.296.432 1.8.288.48.708.9 1.26 1.26.576.336 1.284.624 2.124.864.84.216 1.824.408 2.952.576 2.64.408 4.584 1.188 5.832 2.34 1.248 1.128 1.872 2.652 1.872 4.572v.432c0 1.08-.192 2.076-.576 2.988a6.023 6.023 0 0 1-1.656 2.304c-.72.648-1.62 1.152-2.7 1.512-1.08.36-2.328.54-3.744.54-1.608 0-3.036-.228-4.284-.684-1.224-.48-2.256-1.128-3.096-1.944a8.68 8.68 0 0 1-1.872-2.916c-.432-1.128-.648-2.352-.648-3.672v-1.08h3.024v.864c0 2.208.6 3.864 1.8 4.968 1.224 1.104 2.916 1.656 5.076 1.656 1.872 0 3.276-.408 4.212-1.224.96-.84 1.44-1.944 1.44-3.312v-.216c0-1.32-.492-2.328-1.476-3.024-.96-.696-2.532-1.2-4.716-1.512-1.272-.168-2.424-.42-3.456-.756-1.008-.36-1.872-.816-2.592-1.368a5.91 5.91 0 0 1-1.656-2.052c-.384-.792-.576-1.728-.576-2.808v-.432c0-.984.204-1.884.612-2.7a6.563 6.563 0 0 1 1.692-2.124c.744-.6 1.62-1.056 2.628-1.368 1.032-.336 2.16-.504 3.384-.504 1.416 0 2.676.204 3.78.612 1.128.408 2.076.96 2.844 1.656a6.386 6.386 0 0 1 1.728 2.412c.408.912.612 1.872.612 2.88v1.512h-3.024v-1.296Zm21.503 11.664h-10.8L653.038 862h-3.24l7.632-25.2h5.688l7.632 25.2h-3.24l-1.836-6.264Zm-5.616-17.64-4.356 14.832h9.144l-4.356-14.832h-.432Zm27.191 22.608h.432V836.8h3.024V862h-6.048l-7.272-23.904h-.432V862h-3.024v-25.2h6.048l7.272 23.904Zm23.051-16.632c0-.816-.168-1.536-.504-2.16a4.27 4.27 0 0 0-1.296-1.548 6.154 6.154 0 0 0-1.908-.936 7.85 7.85 0 0 0-2.268-.324c-.696 0-1.356.096-1.98.288a5.694 5.694 0 0 0-1.692.756c-.48.336-.864.756-1.152 1.26-.288.48-.432 1.044-.432 1.692v.216c0 .696.144 1.296.432 1.8.288.48.708.9 1.26 1.26.576.336 1.284.624 2.124.864.84.216 1.824.408 2.952.576 2.64.408 4.584 1.188 5.832 2.34 1.248 1.128 1.872 2.652 1.872 4.572v.432c0 1.08-.192 2.076-.576 2.988a6.023 6.023 0 0 1-1.656 2.304c-.72.648-1.62 1.152-2.7 1.512-1.08.36-2.328.54-3.744.54-1.608 0-3.036-.228-4.284-.684-1.224-.48-2.256-1.128-3.096-1.944a8.68 8.68 0 0 1-1.872-2.916c-.432-1.128-.648-2.352-.648-3.672v-1.08h3.024v.864c0 2.208.6 3.864 1.8 4.968 1.224 1.104 2.916 1.656 5.076 1.656 1.872 0 3.276-.408 4.212-1.224.96-.84 1.44-1.944 1.44-3.312v-.216c0-1.32-.492-2.328-1.476-3.024-.96-.696-2.532-1.2-4.716-1.512-1.272-.168-2.424-.42-3.456-.756-1.008-.36-1.872-.816-2.592-1.368a5.91 5.91 0 0 1-1.656-2.052c-.384-.792-.576-1.728-.576-2.808v-.432c0-.984.204-1.884.612-2.7a6.563 6.563 0 0 1 1.692-2.124c.744-.6 1.62-1.056 2.628-1.368 1.032-.336 2.16-.504 3.384-.504 1.416 0 2.676.204 3.78.612 1.128.408 2.076.96 2.844 1.656a6.386 6.386 0 0 1 1.728 2.412c.408.912.612 1.872.612 2.88v1.512H710.3v-1.296Zm-176.344 48c0-.816-.168-1.536-.504-2.16a4.27 4.27 0 0 0-1.296-1.548 6.154 6.154 0 0 0-1.908-.936 7.85 7.85 0 0 0-2.268-.324c-.696 0-1.356.096-1.98.288a5.694 5.694 0 0 0-1.692.756c-.48.336-.864.756-1.152 1.26-.288.48-.432 1.044-.432 1.692v.216c0 .696.144 1.296.432 1.8.288.48.708.9 1.26 1.26.576.336 1.284.624 2.124.864.84.216 1.824.408 2.952.576 2.64.408 4.584 1.188 5.832 2.34 1.248 1.128 1.872 2.652 1.872 4.572v.432c0 1.08-.192 2.076-.576 2.988a6.023 6.023 0 0 1-1.656 2.304c-.72.648-1.62 1.152-2.7 1.512-1.08.36-2.328.54-3.744.54-1.608 0-3.036-.228-4.284-.684-1.224-.48-2.256-1.128-3.096-1.944a8.68 8.68 0 0 1-1.872-2.916c-.432-1.128-.648-2.352-.648-3.672v-1.08h3.024v.864c0 2.208.6 3.864 1.8 4.968 1.224 1.104 2.916 1.656 5.076 1.656 1.872 0 3.276-.408 4.212-1.224.96-.84 1.44-1.944 1.44-3.312v-.216c0-1.32-.492-2.328-1.476-3.024-.96-.696-2.532-1.2-4.716-1.512-1.272-.168-2.424-.42-3.456-.756-1.008-.36-1.872-.816-2.592-1.368a5.91 5.91 0 0 1-1.656-2.052c-.384-.792-.576-1.728-.576-2.808v-.432c0-.984.204-1.884.612-2.7a6.563 6.563 0 0 1 1.692-2.124c.744-.6 1.62-1.056 2.628-1.368 1.032-.336 2.16-.504 3.384-.504 1.416 0 2.676.204 3.78.612 1.128.408 2.076.96 2.844 1.656a6.386 6.386 0 0 1 1.728 2.412c.408.912.612 1.872.612 2.88v1.512h-3.024v-1.296Zm8.111-7.272h15.984v2.808h-6.48v19.584h6.48V910h-15.984v-2.808h6.48v-19.584h-6.48V884.8Zm20.675 0h5.76l3.384 23.904h.432l3.384-23.904h5.76V910h-2.808v-23.904h-.432L574.838 910h-5.472l-3.384-23.904h-.432V910h-2.808v-25.2Zm26.471 14.832V910h-3.024v-25.2h9c1.296 0 2.424.192 3.384.576.96.36 1.752.852 2.376 1.476a5.83 5.83 0 0 1 1.44 2.196 6.74 6.74 0 0 1 .504 2.592v1.08c0 .912-.168 1.788-.504 2.628a6.158 6.158 0 0 1-1.44 2.232c-.648.624-1.452 1.128-2.412 1.512-.96.36-2.076.54-3.348.54h-5.976Zm0-2.808h5.616c3.36 0 5.04-1.44 5.04-4.32v-.648c0-1.272-.42-2.292-1.26-3.06-.816-.792-2.076-1.188-3.78-1.188h-5.616v9.216Zm19.091-12.024h3.024v22.392h13.176V910h-16.2v-25.2Zm21.935 0h15.984v2.808h-6.48v19.584h6.48V910h-15.984v-2.808h6.48v-19.584h-6.48V884.8Zm22.439 0h15.48v2.808h-12.456v8.352h12.24v2.808h-12.24V910h-3.024v-25.2Zm21.647 0h15.984v2.808h-6.48v19.584h6.48V910h-15.984v-2.808h6.48v-19.584h-6.48V884.8Zm22.403 0h15.264v2.808h-12.24v8.352h12.024v2.808h-12.024v8.424h12.456V910h-15.48v-25.2Zm21.287 0h8.28c3.12 0 5.4.744 6.84 2.232 1.44 1.488 2.16 3.864 2.16 7.128v6.48c0 3.264-.72 5.64-2.16 7.128-1.44 1.488-3.72 2.232-6.84 2.232h-8.28v-2.844h2.16v-19.548h-2.16V884.8Zm7.848 22.392c1.104 0 2.052-.108 2.844-.324.816-.216 1.488-.576 2.016-1.08.528-.528.912-1.224 1.152-2.088.264-.864.396-1.956.396-3.276v-6.048c0-1.32-.132-2.412-.396-3.276-.24-.864-.624-1.548-1.152-2.052-.528-.528-1.2-.9-2.016-1.116-.792-.216-1.74-.324-2.844-.324h-2.664v19.584h2.664Zm44.77.504c1.032 0 1.908-.168 2.628-.504.744-.36 1.344-.828 1.8-1.404a5.77 5.77 0 0 0 1.044-2.016 8.04 8.04 0 0 0 .36-2.412v-.432h3.024v.432c0 1.272-.192 2.472-.576 3.6a8.618 8.618 0 0 1-1.692 2.916c-.744.816-1.668 1.464-2.772 1.944-1.104.456-2.376.684-3.816.684-2.784 0-4.956-.876-6.516-2.628-1.56-1.752-2.34-4.308-2.34-7.668v-5.616c0-3.264.78-5.796 2.34-7.596 1.56-1.8 3.732-2.7 6.516-2.7 1.44 0 2.712.24 3.816.72 1.104.456 2.028 1.104 2.772 1.944.744.816 1.308 1.788 1.692 2.916.384 1.104.576 2.292.576 3.564v.432h-3.024v-.432a8.795 8.795 0 0 0-.396-2.376 5.383 5.383 0 0 0-1.044-2.016 4.636 4.636 0 0 0-1.764-1.404c-.72-.36-1.596-.54-2.628-.54-1.944 0-3.408.708-4.392 2.124-.96 1.416-1.44 3.276-1.44 5.58v5.184c0 2.472.48 4.38 1.44 5.724.984 1.32 2.448 1.98 4.392 1.98Zm13.511-22.896h3.024v11.16h10.728V884.8h3.024V910h-3.024v-11.232h-10.728V910h-3.024v-25.2Zm22.439 0h15.984v2.808h-6.48v19.584h6.48V910h-15.984v-2.808h6.48v-19.584h-6.48V884.8Zm34.967 23.904h.432V884.8h3.024V910h-6.048l-7.272-23.904h-.432V910h-3.024v-25.2h6.048l7.272 23.904Zm9.479-23.904h15.264v2.808h-12.24v8.352h12.024v2.808h-12.024v8.424h12.456V910h-15.48v-25.2Zm35.615 7.272c0-.816-.168-1.536-.504-2.16a4.27 4.27 0 0 0-1.296-1.548 6.154 6.154 0 0 0-1.908-.936 7.85 7.85 0 0 0-2.268-.324c-.696 0-1.356.096-1.98.288a5.694 5.694 0 0 0-1.692.756c-.48.336-.864.756-1.152 1.26-.288.48-.432 1.044-.432 1.692v.216c0 .696.144 1.296.432 1.8.288.48.708.9 1.26 1.26.576.336 1.284.624 2.124.864.84.216 1.824.408 2.952.576 2.64.408 4.584 1.188 5.832 2.34 1.248 1.128 1.872 2.652 1.872 4.572v.432c0 1.08-.192 2.076-.576 2.988a6.023 6.023 0 0 1-1.656 2.304c-.72.648-1.62 1.152-2.7 1.512-1.08.36-2.328.54-3.744.54-1.608 0-3.036-.228-4.284-.684-1.224-.48-2.256-1.128-3.096-1.944a8.68 8.68 0 0 1-1.872-2.916c-.432-1.128-.648-2.352-.648-3.672v-1.08h3.024v.864c0 2.208.6 3.864 1.8 4.968 1.224 1.104 2.916 1.656 5.076 1.656 1.872 0 3.276-.408 4.212-1.224.96-.84 1.44-1.944 1.44-3.312v-.216c0-1.32-.492-2.328-1.476-3.024-.96-.696-2.532-1.2-4.716-1.512-1.272-.168-2.424-.42-3.456-.756-1.008-.36-1.872-.816-2.592-1.368a5.91 5.91 0 0 1-1.656-2.052c-.384-.792-.576-1.728-.576-2.808v-.432c0-.984.204-1.884.612-2.7a6.563 6.563 0 0 1 1.692-2.124c.744-.6 1.62-1.056 2.628-1.368 1.032-.336 2.16-.504 3.384-.504 1.416 0 2.676.204 3.78.612 1.128.408 2.076.96 2.844 1.656a6.386 6.386 0 0 1 1.728 2.412c.408.912.612 1.872.612 2.88v1.512h-3.024v-1.296Zm8.47-7.272h15.264v2.808h-12.24v8.352h12.024v2.808h-12.024v8.424h12.456V910h-15.48v-25.2ZM999.948 860.704h.432V836.8h3.02V862h-6.044l-7.272-23.904h-.432V862h-3.024v-25.2h6.048l7.272 23.904Zm8.252-14.112c0-3.264.78-5.796 2.34-7.596 1.56-1.8 3.73-2.7 6.52-2.7 2.78 0 4.95.9 6.51 2.7 1.56 1.8 2.34 4.332 2.34 7.596v5.616c0 3.36-.78 5.916-2.34 7.668-1.56 1.752-3.73 2.628-6.51 2.628-2.79 0-4.96-.876-6.52-2.628-1.56-1.752-2.34-4.308-2.34-7.668v-5.616Zm8.86 13.104c1.94 0 3.39-.66 4.35-1.98.99-1.344 1.48-3.252 1.48-5.724v-5.184c0-2.304-.49-4.164-1.48-5.58-.96-1.416-2.41-2.124-4.35-2.124-1.95 0-3.41.708-4.39 2.124-.96 1.416-1.44 3.276-1.44 5.58v5.184c0 2.472.48 4.38 1.44 5.724.98 1.32 2.44 1.98 4.39 1.98Zm13.19-22.896h17.71v2.808h-7.35V862h-3.02v-22.392h-7.34V836.8Zm22.04 9.792c0-3.264.78-5.796 2.34-7.596 1.56-1.8 3.73-2.7 6.51-2.7 2.79 0 4.96.9 6.52 2.7 1.56 1.8 2.34 4.332 2.34 7.596v5.616c0 3.36-.78 5.916-2.34 7.668-1.56 1.752-3.73 2.628-6.52 2.628-2.78 0-4.95-.876-6.51-2.628-1.56-1.752-2.34-4.308-2.34-7.668v-5.616Zm8.85 13.104c1.95 0 3.4-.66 4.36-1.98.98-1.344 1.48-3.252 1.48-5.724v-5.184c0-2.304-.5-4.164-1.48-5.58-.96-1.416-2.41-2.124-4.36-2.124-1.94 0-3.4.708-4.39 2.124-.96 1.416-1.44 3.276-1.44 5.58v5.184c0 2.472.48 4.38 1.44 5.724.99 1.32 2.45 1.98 4.39 1.98Zm50.03-15.624c0-.816-.17-1.536-.5-2.16a4.382 4.382 0 0 0-1.3-1.548 6.143 6.143 0 0 0-1.91-.936 7.825 7.825 0 0 0-2.27-.324c-.69 0-1.35.096-1.98.288-.62.168-1.18.42-1.69.756-.48.336-.86.756-1.15 1.26-.29.48-.43 1.044-.43 1.692v.216c0 .696.14 1.296.43 1.8.29.48.71.9 1.26 1.26.58.336 1.28.624 2.12.864.84.216 1.83.408 2.96.576 2.64.408 4.58 1.188 5.83 2.34 1.25 1.128 1.87 2.652 1.87 4.572v.432c0 1.08-.19 2.076-.58 2.988a6.05 6.05 0 0 1-1.65 2.304c-.72.648-1.62 1.152-2.7 1.512-1.08.36-2.33.54-3.75.54-1.6 0-3.03-.228-4.28-.684-1.22-.48-2.26-1.128-3.1-1.944a8.737 8.737 0 0 1-1.87-2.916c-.43-1.128-.65-2.352-.65-3.672v-1.08h3.03v.864c0 2.208.6 3.864 1.8 4.968 1.22 1.104 2.91 1.656 5.07 1.656 1.88 0 3.28-.408 4.22-1.224.96-.84 1.44-1.944 1.44-3.312v-.216c0-1.32-.5-2.328-1.48-3.024-.96-.696-2.53-1.2-4.72-1.512-1.27-.168-2.42-.42-3.45-.756-1.01-.36-1.87-.816-2.59-1.368a5.877 5.877 0 0 1-1.66-2.052c-.38-.792-.58-1.728-.58-2.808v-.432c0-.984.21-1.884.62-2.7.4-.816.97-1.524 1.69-2.124.74-.6 1.62-1.056 2.63-1.368 1.03-.336 2.16-.504 3.38-.504 1.42 0 2.68.204 3.78.612 1.13.408 2.08.96 2.84 1.656a6.327 6.327 0 0 1 1.73 2.412c.41.912.61 1.872.61 2.88v1.512h-3.02v-1.296Zm21.5 11.664h-10.8l-1.83 6.264h-3.24l7.63-25.2h5.69l7.63 25.2h-3.24l-1.84-6.264Zm-5.61-17.64-4.36 14.832h9.15l-4.36-14.832h-.43Zm27.19 22.608h.43V836.8h3.02V862h-6.04l-7.28-23.904h-.43V862h-3.02v-25.2h6.05l7.27 23.904Zm23.05-16.632c0-.816-.17-1.536-.5-2.16a4.382 4.382 0 0 0-1.3-1.548 6.143 6.143 0 0 0-1.91-.936 7.825 7.825 0 0 0-2.27-.324c-.69 0-1.35.096-1.98.288-.62.168-1.18.42-1.69.756-.48.336-.86.756-1.15 1.26-.29.48-.43 1.044-.43 1.692v.216c0 .696.14 1.296.43 1.8.29.48.71.9 1.26 1.26.58.336 1.28.624 2.12.864.84.216 1.83.408 2.96.576 2.64.408 4.58 1.188 5.83 2.34 1.25 1.128 1.87 2.652 1.87 4.572v.432c0 1.08-.19 2.076-.58 2.988a6.05 6.05 0 0 1-1.65 2.304c-.72.648-1.62 1.152-2.7 1.512-1.08.36-2.33.54-3.75.54-1.6 0-3.03-.228-4.28-.684-1.22-.48-2.26-1.128-3.1-1.944a8.737 8.737 0 0 1-1.87-2.916c-.43-1.128-.65-2.352-.65-3.672v-1.08h3.03v.864c0 2.208.6 3.864 1.8 4.968 1.22 1.104 2.91 1.656 5.07 1.656 1.88 0 3.28-.408 4.22-1.224.96-.84 1.44-1.944 1.44-3.312v-.216c0-1.32-.5-2.328-1.48-3.024-.96-.696-2.53-1.2-4.72-1.512-1.27-.168-2.42-.42-3.45-.756-1.01-.36-1.87-.816-2.59-1.368a5.877 5.877 0 0 1-1.66-2.052c-.38-.792-.58-1.728-.58-2.808v-.432c0-.984.21-1.884.62-2.7.4-.816.97-1.524 1.69-2.124.74-.6 1.62-1.056 2.63-1.368 1.03-.336 2.16-.504 3.38-.504 1.42 0 2.68.204 3.78.612 1.13.408 2.08.96 2.84 1.656a6.327 6.327 0 0 1 1.73 2.412c.41.912.61 1.872.61 2.88v1.512h-3.02v-1.296Zm-175.12 58.368c0 2.616-.65 4.62-1.94 6.012-1.276 1.368-3.148 2.052-5.62 2.052s-4.428-.684-5.868-2.052c-1.416-1.392-2.124-3.396-2.124-6.012v-1.944h3.024v1.944c0 1.584.408 2.856 1.224 3.816.816.96 2.064 1.44 3.744 1.44 1.68 0 2.856-.48 3.528-1.44.672-.96 1.008-2.232 1.008-3.816v-14.832h-2.592V884.8h7.776v2.808h-2.16v14.832Zm20.28 1.296h-10.8l-1.84 6.264h-3.24l7.63-25.2h5.69l7.63 25.2h-3.24l-1.83-6.264Zm-5.62-17.64-4.35 14.832h9.14l-4.36-14.832h-.43Zm17.33 13.536V910h-3.02v-25.2h9c1.29 0 2.42.192 3.38.576.96.36 1.75.852 2.38 1.476a6.027 6.027 0 0 1 1.44 2.196c.33.816.5 1.68.5 2.592v1.08c0 .912-.17 1.788-.5 2.628-.32.84-.8 1.584-1.44 2.232-.65.624-1.46 1.128-2.42 1.512-.96.36-2.07.54-3.34.54h-5.98Zm0-2.808h5.62c3.36 0 5.04-1.44 5.04-4.32v-.648c0-1.272-.42-2.292-1.26-3.06-.82-.792-2.08-1.188-3.78-1.188h-5.62v9.216Zm32.37 6.912h-10.8l-1.83 6.264h-3.24l7.63-25.2h5.69l7.63 25.2h-3.24l-1.84-6.264Zm-5.61-17.64-4.36 14.832h9.15l-4.36-14.832h-.43Zm27.19 22.608h.43V884.8h3.03V910h-6.05l-7.27-23.904h-.44V910h-3.02v-25.2h6.05l7.27 23.904Zm9.48-23.904h15.26v2.808h-12.24v8.352h12.03v2.808h-12.03v8.424h12.46V910h-15.48v-25.2Zm35.61 7.272c0-.816-.16-1.536-.5-2.16a4.185 4.185 0 0 0-1.3-1.548 6.088 6.088 0 0 0-1.9-.936 7.875 7.875 0 0 0-2.27-.324c-.7 0-1.36.096-1.98.288-.63.168-1.19.42-1.69.756-.48.336-.87.756-1.16 1.26-.28.48-.43 1.044-.43 1.692v.216c0 .696.15 1.296.43 1.8.29.48.71.9 1.26 1.26.58.336 1.29.624 2.13.864.84.216 1.82.408 2.95.576 2.64.408 4.58 1.188 5.83 2.34 1.25 1.128 1.87 2.652 1.87 4.572v.432c0 1.08-.19 2.076-.57 2.988a5.97 5.97 0 0 1-1.66 2.304c-.72.648-1.62 1.152-2.7 1.512-1.08.36-2.33.54-3.74.54-1.61 0-3.04-.228-4.29-.684-1.22-.48-2.25-1.128-3.09-1.944a8.584 8.584 0 0 1-1.87-2.916c-.44-1.128-.65-2.352-.65-3.672v-1.08h3.02v.864c0 2.208.6 3.864 1.8 4.968 1.23 1.104 2.92 1.656 5.08 1.656 1.87 0 3.27-.408 4.21-1.224.96-.84 1.44-1.944 1.44-3.312v-.216c0-1.32-.49-2.328-1.48-3.024-.96-.696-2.53-1.2-4.71-1.512-1.27-.168-2.43-.42-3.46-.756-1.01-.36-1.87-.816-2.59-1.368a5.99 5.99 0 0 1-1.66-2.052c-.38-.792-.57-1.728-.57-2.808v-.432c0-.984.2-1.884.61-2.7.41-.816.97-1.524 1.69-2.124.75-.6 1.62-1.056 2.63-1.368 1.03-.336 2.16-.504 3.38-.504 1.42 0 2.68.204 3.78.612 1.13.408 2.08.96 2.85 1.656a6.435 6.435 0 0 1 1.73 2.412c.4.912.61 1.872.61 2.88v1.512h-3.03v-1.296Zm8.47-7.272h15.27v2.808h-12.24v8.352h12.02v2.808h-12.02v8.424h12.45V910h-15.48v-25.2ZM65.948 860.704h.432V836.8h3.024V862h-6.048l-7.272-23.904h-.432V862h-3.024v-25.2h6.048l7.272 23.904Zm8.255-14.112c0-3.264.78-5.796 2.34-7.596 1.56-1.8 3.732-2.7 6.516-2.7s4.956.9 6.516 2.7c1.56 1.8 2.34 4.332 2.34 7.596v5.616c0 3.36-.78 5.916-2.34 7.668-1.56 1.752-3.732 2.628-6.516 2.628s-4.956-.876-6.516-2.628c-1.56-1.752-2.34-4.308-2.34-7.668v-5.616Zm8.856 13.104c1.944 0 3.396-.66 4.356-1.98.984-1.344 1.476-3.252 1.476-5.724v-5.184c0-2.304-.492-4.164-1.476-5.58-.96-1.416-2.412-2.124-4.356-2.124s-3.408.708-4.392 2.124c-.96 1.416-1.44 3.276-1.44 5.58v5.184c0 2.472.48 4.38 1.44 5.724.984 1.32 2.448 1.98 4.392 1.98ZM96.246 836.8h17.712v2.808h-7.344V862h-3.024v-22.392h-7.344V836.8Zm22.043 9.792c0-3.264.78-5.796 2.34-7.596 1.56-1.8 3.732-2.7 6.516-2.7s4.956.9 6.516 2.7c1.56 1.8 2.34 4.332 2.34 7.596v5.616c0 3.36-.78 5.916-2.34 7.668-1.56 1.752-3.732 2.628-6.516 2.628s-4.956-.876-6.516-2.628c-1.56-1.752-2.34-4.308-2.34-7.668v-5.616Zm8.856 13.104c1.944 0 3.396-.66 4.356-1.98.984-1.344 1.476-3.252 1.476-5.724v-5.184c0-2.304-.492-4.164-1.476-5.58-.96-1.416-2.412-2.124-4.356-2.124s-3.408.708-4.392 2.124c-.96 1.416-1.44 3.276-1.44 5.58v5.184c0 2.472.48 4.38 1.44 5.724.984 1.32 2.448 1.98 4.392 1.98Zm50.026-15.624c0-.816-.168-1.536-.504-2.16a4.27 4.27 0 0 0-1.296-1.548 6.154 6.154 0 0 0-1.908-.936 7.85 7.85 0 0 0-2.268-.324c-.696 0-1.356.096-1.98.288a5.694 5.694 0 0 0-1.692.756c-.48.336-.864.756-1.152 1.26-.288.48-.432 1.044-.432 1.692v.216c0 .696.144 1.296.432 1.8.288.48.708.9 1.26 1.26.576.336 1.284.624 2.124.864.84.216 1.824.408 2.952.576 2.64.408 4.584 1.188 5.832 2.34 1.248 1.128 1.872 2.652 1.872 4.572v.432c0 1.08-.192 2.076-.576 2.988a6.023 6.023 0 0 1-1.656 2.304c-.72.648-1.62 1.152-2.7 1.512-1.08.36-2.328.54-3.744.54-1.608 0-3.036-.228-4.284-.684-1.224-.48-2.256-1.128-3.096-1.944a8.68 8.68 0 0 1-1.872-2.916c-.432-1.128-.648-2.352-.648-3.672v-1.08h3.024v.864c0 2.208.6 3.864 1.8 4.968 1.224 1.104 2.916 1.656 5.076 1.656 1.872 0 3.276-.408 4.212-1.224.96-.84 1.44-1.944 1.44-3.312v-.216c0-1.32-.492-2.328-1.476-3.024-.96-.696-2.532-1.2-4.716-1.512-1.272-.168-2.424-.42-3.456-.756-1.008-.36-1.872-.816-2.592-1.368a5.91 5.91 0 0 1-1.656-2.052c-.384-.792-.576-1.728-.576-2.808v-.432c0-.984.204-1.884.612-2.7a6.563 6.563 0 0 1 1.692-2.124c.744-.6 1.62-1.056 2.628-1.368 1.032-.336 2.16-.504 3.384-.504 1.416 0 2.676.204 3.78.612 1.128.408 2.076.96 2.844 1.656a6.386 6.386 0 0 1 1.728 2.412c.408.912.612 1.872.612 2.88v1.512h-3.024v-1.296Zm21.503 11.664h-10.8L186.038 862h-3.24l7.632-25.2h5.688l7.632 25.2h-3.24l-1.836-6.264Zm-5.616-17.64-4.356 14.832h9.144l-4.356-14.832h-.432Zm27.191 22.608h.432V836.8h3.024V862h-6.048l-7.272-23.904h-.432V862h-3.024v-25.2h6.048l7.272 23.904Zm23.051-16.632c0-.816-.168-1.536-.504-2.16a4.27 4.27 0 0 0-1.296-1.548 6.154 6.154 0 0 0-1.908-.936 7.85 7.85 0 0 0-2.268-.324c-.696 0-1.356.096-1.98.288a5.694 5.694 0 0 0-1.692.756c-.48.336-.864.756-1.152 1.26-.288.48-.432 1.044-.432 1.692v.216c0 .696.144 1.296.432 1.8.288.48.708.9 1.26 1.26.576.336 1.284.624 2.124.864.84.216 1.824.408 2.952.576 2.64.408 4.584 1.188 5.832 2.34 1.248 1.128 1.872 2.652 1.872 4.572v.432c0 1.08-.192 2.076-.576 2.988a6.023 6.023 0 0 1-1.656 2.304c-.72.648-1.62 1.152-2.7 1.512-1.08.36-2.328.54-3.744.54-1.608 0-3.036-.228-4.284-.684-1.224-.48-2.256-1.128-3.096-1.944a8.68 8.68 0 0 1-1.872-2.916c-.432-1.128-.648-2.352-.648-3.672v-1.08h3.024v.864c0 2.208.6 3.864 1.8 4.968 1.224 1.104 2.916 1.656 5.076 1.656 1.872 0 3.276-.408 4.212-1.224.96-.84 1.44-1.944 1.44-3.312v-.216c0-1.32-.492-2.328-1.476-3.024-.96-.696-2.532-1.2-4.716-1.512-1.272-.168-2.424-.42-3.456-.756-1.008-.36-1.872-.816-2.592-1.368a5.91 5.91 0 0 1-1.656-2.052c-.384-.792-.576-1.728-.576-2.808v-.432c0-.984.204-1.884.612-2.7a6.563 6.563 0 0 1 1.692-2.124c.744-.6 1.62-1.056 2.628-1.368 1.032-.336 2.16-.504 3.384-.504 1.416 0 2.676.204 3.78.612 1.128.408 2.076.96 2.844 1.656a6.386 6.386 0 0 1 1.728 2.412c.408.912.612 1.872.612 2.88v1.512H243.3v-1.296ZM52.16 884.8h17.712v2.808h-7.344V910h-3.024v-22.392H52.16V884.8ZM90.943 910h-3.024v-8.424c0-.624-.144-1.104-.432-1.44-.288-.336-.792-.504-1.512-.504h-7.848V910h-3.024v-25.2h9c1.296 0 2.424.192 3.384.576.96.36 1.752.852 2.376 1.476a5.83 5.83 0 0 1 1.44 2.196 6.74 6.74 0 0 1 .504 2.592v1.08c0 .936-.264 1.872-.792 2.808-.504.936-1.296 1.656-2.376 2.16v.432c.72.12 1.284.408 1.692.864.408.456.612 1.104.612 1.944V910Zm-12.816-13.176h5.616c1.704 0 2.964-.36 3.78-1.08.84-.744 1.26-1.824 1.26-3.24v-.648c0-1.272-.42-2.292-1.26-3.06-.816-.792-2.076-1.188-3.78-1.188h-5.616v9.216Zm32.375 6.912h-10.8L97.866 910h-3.24l7.632-25.2h5.688l7.632 25.2h-3.24l-1.836-6.264Zm-5.616-17.64-4.356 14.832h9.144l-4.356-14.832h-.432Zm13.871-1.296h8.28c3.12 0 5.4.744 6.84 2.232 1.44 1.488 2.16 3.864 2.16 7.128v6.48c0 3.264-.72 5.64-2.16 7.128-1.44 1.488-3.72 2.232-6.84 2.232h-8.28v-2.844h2.16v-19.548h-2.16V884.8Zm7.848 22.392c1.104 0 2.052-.108 2.844-.324.816-.216 1.488-.576 2.016-1.08.528-.528.912-1.224 1.152-2.088.264-.864.396-1.956.396-3.276v-6.048c0-1.32-.132-2.412-.396-3.276-.24-.864-.624-1.548-1.152-2.052-.528-.528-1.2-.9-2.016-1.116-.792-.216-1.74-.324-2.844-.324h-2.664v19.584h2.664Zm14.591-22.392h15.984v2.808h-6.48v19.584h6.48V910h-15.984v-2.808h6.48v-19.584h-6.48V884.8Zm21.179 0h17.712v2.808h-7.344V910h-3.024v-22.392h-7.344V884.8Zm22.907 0h15.984v2.808h-6.48v19.584h6.48V910h-15.984v-2.808h6.48v-19.584h-6.48V884.8Zm21.179 9.792c0-3.264.78-5.796 2.34-7.596 1.56-1.8 3.732-2.7 6.516-2.7s4.956.9 6.516 2.7c1.56 1.8 2.34 4.332 2.34 7.596v5.616c0 3.36-.78 5.916-2.34 7.668-1.56 1.752-3.732 2.628-6.516 2.628s-4.956-.876-6.516-2.628c-1.56-1.752-2.34-4.308-2.34-7.668v-5.616Zm8.856 13.104c1.944 0 3.396-.66 4.356-1.98.984-1.344 1.476-3.252 1.476-5.724v-5.184c0-2.304-.492-4.164-1.476-5.58-.96-1.416-2.412-2.124-4.356-2.124s-3.408.708-4.392 2.124c-.96 1.416-1.44 3.276-1.44 5.58v5.184c0 2.472.48 4.38 1.44 5.724.984 1.32 2.448 1.98 4.392 1.98Zm26.975 1.008h.432V884.8h3.024V910H239.7l-7.272-23.904h-.432V910h-3.024v-25.2h6.048l7.272 23.904Zm22.511-4.968h-10.8L252.167 910h-3.24l7.632-25.2h5.688l7.632 25.2h-3.24l-1.836-6.264Zm-5.616-17.64-4.356 14.832h9.144l-4.356-14.832h-.432Zm14.375-1.296h3.024v22.392h13.176V910h-16.2v-25.2Zm52.114 22.896c1.032 0 1.908-.168 2.628-.504.744-.36 1.344-.828 1.8-1.404a5.77 5.77 0 0 0 1.044-2.016 8.04 8.04 0 0 0 .36-2.412v-.432h3.024v.432c0 1.272-.192 2.472-.576 3.6a8.618 8.618 0 0 1-1.692 2.916c-.744.816-1.668 1.464-2.772 1.944-1.104.456-2.376.684-3.816.684-2.784 0-4.956-.876-6.516-2.628-1.56-1.752-2.34-4.308-2.34-7.668v-5.616c0-3.264.78-5.796 2.34-7.596 1.56-1.8 3.732-2.7 6.516-2.7 1.44 0 2.712.24 3.816.72 1.104.456 2.028 1.104 2.772 1.944.744.816 1.308 1.788 1.692 2.916.384 1.104.576 2.292.576 3.564v.432h-3.024v-.432a8.795 8.795 0 0 0-.396-2.376 5.383 5.383 0 0 0-1.044-2.016 4.636 4.636 0 0 0-1.764-1.404c-.72-.36-1.596-.54-2.628-.54-1.944 0-3.408.708-4.392 2.124-.96 1.416-1.44 3.276-1.44 5.58v5.184c0 2.472.48 4.38 1.44 5.724.984 1.32 2.448 1.98 4.392 1.98Zm13.511-22.896h3.024v11.16h10.728V884.8h3.024V910h-3.024v-11.232h-10.728V910h-3.024v-25.2Zm22.439 0h15.984v2.808h-6.48v19.584h6.48V910h-15.984v-2.808h6.48v-19.584h-6.48V884.8Zm34.967 23.904h.432V884.8h3.024V910h-6.048l-7.272-23.904h-.432V910h-3.024v-25.2h6.048l7.272 23.904Zm9.479-23.904h15.264v2.808h-12.24v8.352h12.024v2.808h-12.024v8.424h12.456V910h-15.48v-25.2Zm35.614 7.272c0-.816-.168-1.536-.504-2.16a4.27 4.27 0 0 0-1.296-1.548 6.154 6.154 0 0 0-1.908-.936 7.85 7.85 0 0 0-2.268-.324c-.696 0-1.356.096-1.98.288a5.694 5.694 0 0 0-1.692.756c-.48.336-.864.756-1.152 1.26-.288.48-.432 1.044-.432 1.692v.216c0 .696.144 1.296.432 1.8.288.48.708.9 1.26 1.26.576.336 1.284.624 2.124.864.84.216 1.824.408 2.952.576 2.64.408 4.584 1.188 5.832 2.34 1.248 1.128 1.872 2.652 1.872 4.572v.432c0 1.08-.192 2.076-.576 2.988a6.023 6.023 0 0 1-1.656 2.304c-.72.648-1.62 1.152-2.7 1.512-1.08.36-2.328.54-3.744.54-1.608 0-3.036-.228-4.284-.684-1.224-.48-2.256-1.128-3.096-1.944a8.68 8.68 0 0 1-1.872-2.916c-.432-1.128-.648-2.352-.648-3.672v-1.08h3.024v.864c0 2.208.6 3.864 1.8 4.968 1.224 1.104 2.916 1.656 5.076 1.656 1.872 0 3.276-.408 4.212-1.224.96-.84 1.44-1.944 1.44-3.312v-.216c0-1.32-.492-2.328-1.476-3.024-.96-.696-2.532-1.2-4.716-1.512-1.272-.168-2.424-.42-3.456-.756-1.008-.36-1.872-.816-2.592-1.368a5.91 5.91 0 0 1-1.656-2.052c-.384-.792-.576-1.728-.576-2.808v-.432c0-.984.204-1.884.612-2.7a6.563 6.563 0 0 1 1.692-2.124c.744-.6 1.62-1.056 2.628-1.368 1.032-.336 2.16-.504 3.384-.504 1.416 0 2.676.204 3.78.612 1.128.408 2.076.96 2.844 1.656a6.386 6.386 0 0 1 1.728 2.412c.408.912.612 1.872.612 2.88v1.512h-3.024v-1.296Zm8.471-7.272h15.264v2.808h-12.24v8.352h12.024v2.808h-12.024v8.424h12.456V910h-15.48v-25.2Z" fill="#FF6D7F"/></svg>