<svg width="1920" height="1080" fill="none" xmlns="http://www.w3.org/2000/svg"><path fill="#1A73E8" d="M243 553h1434v20H243z"/><path fill="#1A73E8" d="M950 608v-50h20v50zM1657 608v-50h20v50zM243 608v-50h20v50z"/><path d="M245.16 650.592c0-3.264.78-5.796 2.34-7.596 1.56-1.8 3.732-2.7 6.516-2.7s4.956.9 6.516 2.7c1.56 1.8 2.34 4.332 2.34 7.596v5.616c0 3.36-.78 5.916-2.34 7.668-1.56 1.752-3.732 2.628-6.516 2.628s-4.956-.876-6.516-2.628c-1.56-1.752-2.34-4.308-2.34-7.668v-5.616Zm8.856 13.176c1.944 0 3.396-.672 4.356-2.016.984-1.368 1.476-3.288 1.476-5.76v-5.184c0-1.152-.12-2.196-.36-3.132-.24-.96-.612-1.776-1.116-2.448a4.967 4.967 0 0 0-1.836-1.62c-.72-.384-1.56-.576-2.52-.576-.984 0-1.836.192-2.556.576a5.373 5.373 0 0 0-1.836 1.62c-.48.672-.84 1.488-1.08 2.448-.24.936-.36 1.98-.36 3.132v5.184c0 2.472.48 4.392 1.44 5.76.984 1.344 2.448 2.016 4.392 2.016Zm-2.304-10.368c0-.624.228-1.164.684-1.62.456-.456.996-.684 1.62-.684.624 0 1.164.228 1.62.684.456.456.684.996.684 1.62 0 .624-.228 1.164-.684 1.62-.456.456-.996.684-1.62.684-.624 0-1.164-.228-1.62-.684-.456-.456-.684-.996-.684-1.62ZM931.244 654.12V640.8h15.768v2.808h-12.816v9h.432a6.3 6.3 0 0 1 .936-1.368 6.299 6.299 0 0 1 1.332-1.188 6.935 6.935 0 0 1 1.764-.792c.648-.216 1.368-.324 2.16-.324 1.152 0 2.208.192 3.168.576a7.23 7.23 0 0 1 2.52 1.62 7.23 7.23 0 0 1 1.62 2.52c.408.984.612 2.076.612 3.276v.648c0 1.2-.192 2.34-.576 3.42a8.774 8.774 0 0 1-1.692 2.844c-.744.816-1.668 1.464-2.772 1.944-1.104.48-2.376.72-3.816.72-1.464 0-2.76-.216-3.888-.648-1.128-.432-2.076-1.032-2.844-1.8a7.861 7.861 0 0 1-1.764-2.7c-.384-1.056-.576-2.196-.576-3.42v-1.008h3.024v.792c0 1.992.552 3.492 1.656 4.5 1.128.984 2.592 1.476 4.392 1.476.96 0 1.8-.168 2.52-.504.744-.36 1.356-.828 1.836-1.404.504-.6.876-1.284 1.116-2.052.24-.792.36-1.608.36-2.448v-.216a5.48 5.48 0 0 0-.396-2.088 4.894 4.894 0 0 0-1.044-1.692 4.348 4.348 0 0 0-1.62-1.116 4.837 4.837 0 0 0-2.052-.432c-.504 0-.972.072-1.404.216a3.867 3.867 0 0 0-1.08.576 3.398 3.398 0 0 0-.792.756 2.876 2.876 0 0 0-.396.828h-5.688Zm21.395-3.528c0-3.264.78-5.796 2.34-7.596 1.56-1.8 3.732-2.7 6.516-2.7s4.956.9 6.516 2.7c1.56 1.8 2.34 4.332 2.34 7.596v5.616c0 3.36-.78 5.916-2.34 7.668-1.56 1.752-3.732 2.628-6.516 2.628s-4.956-.876-6.516-2.628c-1.56-1.752-2.34-4.308-2.34-7.668v-5.616Zm8.856 13.176c1.944 0 3.396-.672 4.356-2.016.984-1.368 1.476-3.288 1.476-5.76v-5.184c0-1.152-.12-2.196-.36-3.132-.24-.96-.612-1.776-1.116-2.448a4.967 4.967 0 0 0-1.836-1.62c-.72-.384-1.56-.576-2.52-.576-.984 0-1.836.192-2.556.576a5.373 5.373 0 0 0-1.836 1.62c-.48.672-.84 1.488-1.08 2.448-.24.936-.36 1.98-.36 3.132v5.184c0 2.472.48 4.392 1.44 5.76.984 1.344 2.448 2.016 4.392 2.016Zm-2.304-10.368c0-.624.228-1.164.684-1.62.456-.456.996-.684 1.62-.684.624 0 1.164.228 1.62.684.456.456.684.996.684 1.62 0 .624-.228 1.164-.684 1.62-.456.456-.996.684-1.62.684-.624 0-1.164-.228-1.62-.684-.456-.456-.684-.996-.684-1.62Zm15.49-2.808c0-3.264.78-5.796 2.34-7.596 1.56-1.8 3.732-2.7 6.516-2.7s4.956.9 6.516 2.7c1.56 1.8 2.34 4.332 2.34 7.596v5.616c0 3.36-.78 5.916-2.34 7.668-1.56 1.752-3.732 2.628-6.516 2.628s-4.956-.876-6.516-2.628c-1.56-1.752-2.34-4.308-2.34-7.668v-5.616Zm8.856 13.176c1.944 0 3.396-.672 4.356-2.016.984-1.368 1.476-3.288 1.476-5.76v-5.184c0-1.152-.12-2.196-.36-3.132-.24-.96-.612-1.776-1.116-2.448a4.967 4.967 0 0 0-1.836-1.62c-.72-.384-1.56-.576-2.52-.576-.984 0-1.836.192-2.556.576a5.373 5.373 0 0 0-1.836 1.62c-.48.672-.84 1.488-1.08 2.448-.24.936-.36 1.98-.36 3.132v5.184c0 2.472.48 4.392 1.44 5.76.984 1.344 2.448 2.016 4.392 2.016Zm-2.304-10.368c0-.624.228-1.164.684-1.62.456-.456.996-.684 1.62-.684.624 0 1.164.228 1.62.684.456.456.684.996.684 1.62 0 .624-.228 1.164-.684 1.62-.456.456-.996.684-1.62.684-.624 0-1.164-.228-1.62-.684-.456-.456-.684-.996-.684-1.62ZM1601.51 663.192v-21.06h-.43l-4.14 9.468h-2.99v-.216l4.72-10.584h5.87v22.392h7.12V666h-17.28v-2.808h7.13Zm14.52-12.6c0-3.264.78-5.796 2.34-7.596 1.56-1.8 3.73-2.7 6.52-2.7 2.78 0 4.95.9 6.51 2.7 1.56 1.8 2.34 4.332 2.34 7.596v5.616c0 3.36-.78 5.916-2.34 7.668-1.56 1.752-3.73 2.628-6.51 2.628-2.79 0-4.96-.876-6.52-2.628-1.56-1.752-2.34-4.308-2.34-7.668v-5.616Zm8.86 13.176c1.94 0 3.39-.672 4.35-2.016.99-1.368 1.48-3.288 1.48-5.76v-5.184c0-1.152-.12-2.196-.36-3.132-.24-.96-.61-1.776-1.12-2.448a4.98 4.98 0 0 0-1.83-1.62c-.72-.384-1.56-.576-2.52-.576-.99 0-1.84.192-2.56.576-.72.384-1.33.924-1.83 1.62-.48.672-.84 1.488-1.08 2.448-.24.936-.36 1.98-.36 3.132v5.184c0 2.472.48 4.392 1.44 5.76.98 1.344 2.44 2.016 4.39 2.016Zm-2.31-10.368c0-.624.23-1.164.69-1.62.45-.456.99-.684 1.62-.684.62 0 1.16.228 1.62.684.45.456.68.996.68 1.62 0 .624-.23 1.164-.68 1.62-.46.456-1 .684-1.62.684-.63 0-1.17-.228-1.62-.684-.46-.456-.69-.996-.69-1.62Zm15.49-2.808c0-3.264.78-5.796 2.34-7.596 1.56-1.8 3.74-2.7 6.52-2.7 2.78 0 4.96.9 6.52 2.7 1.56 1.8 2.34 4.332 2.34 7.596v5.616c0 3.36-.78 5.916-2.34 7.668-1.56 1.752-3.74 2.628-6.52 2.628-2.78 0-4.96-.876-6.52-2.628-1.56-1.752-2.34-4.308-2.34-7.668v-5.616Zm8.86 13.176c1.94 0 3.4-.672 4.36-2.016.98-1.368 1.47-3.288 1.47-5.76v-5.184c0-1.152-.12-2.196-.36-3.132-.24-.96-.61-1.776-1.11-2.448a5.01 5.01 0 0 0-1.84-1.62c-.72-.384-1.56-.576-2.52-.576-.98 0-1.84.192-2.56.576-.72.384-1.33.924-1.83 1.62-.48.672-.84 1.488-1.08 2.448-.24.936-.36 1.98-.36 3.132v5.184c0 2.472.48 4.392 1.44 5.76.98 1.344 2.45 2.016 4.39 2.016Zm-2.3-10.368c0-.624.22-1.164.68-1.62.46-.456 1-.684 1.62-.684.62 0 1.16.228 1.62.684.46.456.68.996.68 1.62 0 .624-.22 1.164-.68 1.62-.46.456-1 .684-1.62.684-.62 0-1.16-.228-1.62-.684a2.195 2.195 0 0 1-.68-1.62Zm15.49-2.808c0-3.264.78-5.796 2.34-7.596 1.56-1.8 3.73-2.7 6.51-2.7 2.79 0 4.96.9 6.52 2.7 1.56 1.8 2.34 4.332 2.34 7.596v5.616c0 3.36-.78 5.916-2.34 7.668-1.56 1.752-3.73 2.628-6.52 2.628-2.78 0-4.95-.876-6.51-2.628-1.56-1.752-2.34-4.308-2.34-7.668v-5.616Zm8.85 13.176c1.95 0 3.4-.672 4.36-2.016.98-1.368 1.48-3.288 1.48-5.76v-5.184c0-1.152-.12-2.196-.36-3.132-.24-.96-.62-1.776-1.12-2.448a4.933 4.933 0 0 0-1.84-1.62c-.72-.384-1.56-.576-2.52-.576-.98 0-1.83.192-2.55.576a5.44 5.44 0 0 0-1.84 1.62c-.48.672-.84 1.488-1.08 2.448-.24.936-.36 1.98-.36 3.132v5.184c0 2.472.48 4.392 1.44 5.76.99 1.344 2.45 2.016 4.39 2.016Zm-2.3-10.368c0-.624.23-1.164.68-1.62.46-.456 1-.684 1.62-.684.63 0 1.17.228 1.62.684.46.456.69.996.69 1.62 0 .624-.23 1.164-.69 1.62-.45.456-.99.684-1.62.684-.62 0-1.16-.228-1.62-.684-.45-.456-.68-.996-.68-1.62Z" fill="#3C4043"/><path fill="#FF6D7F" d="M1423 792V553h20v239z"/><path fill="#FF6D7F" d="M1367 553h132v20h-132zM1371.56 812.6h33.69v8.784l-21.24 32.112c-1.01 1.536-1.77 2.856-2.3 3.96a7.734 7.734 0 0 0-.79 3.384V863h-5.91v-2.592c0-.864.07-1.68.22-2.448.19-.768.45-1.536.79-2.304.38-.816.84-1.656 1.37-2.52.57-.912 1.25-1.944 2.01-3.096l20.67-30.96v-.864h-28.51V812.6Zm60.07 0h11.73v35.28h7.78v5.616h-7.78V863h-6.05v-9.504h-23.32v-8.352l17.64-32.544Zm-12.46 34.416v.864h18.14v-32.688h-.86l-17.28 31.824Zm74.54 10.368V863h-34.13v-8.64c0-2.304.39-4.296 1.15-5.976a12.374 12.374 0 0 1 3.24-4.392c1.44-1.248 3.17-2.28 5.19-3.096 2.01-.816 4.29-1.512 6.84-2.088 4.27-.96 7.34-2.328 9.21-4.104 1.92-1.776 2.88-3.96 2.88-6.552v-.432c0-1.296-.21-2.568-.64-3.816a9.93 9.93 0 0 0-2.02-3.384c-.91-1.008-2.09-1.8-3.53-2.376-1.39-.624-3.07-.936-5.04-.936-3.69 0-6.57 1.128-8.64 3.384-2.01 2.256-3.02 5.256-3.02 9v3.168h-6.05v-3.6c0-2.304.38-4.512 1.15-6.624.77-2.112 1.9-3.984 3.39-5.616 1.48-1.632 3.33-2.928 5.54-3.888s4.75-1.44 7.63-1.44c2.93 0 5.47.456 7.63 1.368 2.16.864 3.96 2.04 5.4 3.528 1.44 1.44 2.5 3.096 3.17 4.968a15.17 15.17 0 0 1 1.08 5.616v1.296c0 3.84-1.2 7.128-3.6 9.864-2.4 2.688-6.24 4.608-11.52 5.76-4.61 1.008-7.99 2.352-10.15 4.032-2.16 1.632-3.24 4.032-3.24 7.2v2.16h28.08Z"/><path d="M243.005 528v-1.98h2.178c1.518 0 2.64-.099 3.366-.297.726-.198 1.287-.627 1.683-1.287.462-.66.924-1.716 1.386-3.168l22.077-63.954h2.871l22.077 63.954c.528 1.452.99 2.508 1.386 3.168.396.66.957 1.089 1.683 1.287.726.198 1.848.297 3.366.297h2.178V528h-20.295v-1.98h3.366c2.508 0 4.026-.231 4.554-.693.594-.462.891-1.155.891-2.079 0-.792-.198-1.848-.594-3.168a66.147 66.147 0 0 0-1.287-3.861 203.277 203.277 0 0 0-.891-2.772l-3.564-10.296h-28.611l-3.564 10.296c-.198.594-.528 1.518-.99 2.772a280.215 280.215 0 0 0-1.188 3.861c-.396 1.32-.594 2.376-.594 3.168 0 .924.297 1.617.891 2.079.594.462 2.112.693 4.554.693h5.247V528h-22.176Zm18.612-27.324h26.928l-7.623-22.671a663.653 663.653 0 0 0-1.98-5.841 687.418 687.418 0 0 1-2.079-6.336 573.68 573.68 0 0 0-1.683-5.148c-.264.99-.759 2.508-1.485 4.554a687.418 687.418 0 0 1-2.079 6.336c-.726 2.112-1.353 3.927-1.881 5.445l-8.118 23.661Zm65.095 28.314c-3.894 0-7.194-1.254-9.9-3.762-2.706-2.508-4.059-6.402-4.059-11.682 0-5.214 1.848-9.042 5.544-11.484 3.762-2.442 9.636-3.795 17.622-4.059l8.217-.297v-6.435c0-2.838-.297-5.313-.891-7.425-.594-2.178-1.815-3.894-3.663-5.148-1.848-1.254-4.653-1.881-8.415-1.881-4.884 0-8.151 1.089-9.801 3.267-1.584 2.112-2.376 5.049-2.376 8.811-1.386 0-2.079-1.518-2.079-4.554 0-1.386.396-2.838 1.188-4.356.792-1.584 2.211-2.904 4.257-3.96 2.112-1.122 5.049-1.683 8.811-1.683 5.808 0 9.867 1.419 12.177 4.257 2.376 2.772 3.564 6.501 3.564 11.187v27.324c0 2.442.099 4.323.297 5.643.264 1.254.792 2.112 1.584 2.574.792.462 2.079.693 3.861.693h.693V528h-8.514l-.594-10.296h-.198c-.726 1.386-1.848 2.97-3.366 4.752-1.452 1.782-3.333 3.333-5.643 4.653-2.31 1.254-5.082 1.881-8.316 1.881Zm.396-2.475c3.234 0 6.105-.825 8.613-2.475 2.574-1.65 4.62-3.663 6.138-6.039 1.518-2.376 2.277-4.653 2.277-6.831v-11.187l-8.514.297c-5.148.132-9.174.759-12.078 1.881-2.904 1.122-4.983 2.673-6.237 4.653-1.188 1.914-1.782 4.191-1.782 6.831 0 2.244.363 4.356 1.089 6.336.792 1.914 2.046 3.498 3.762 4.752 1.716 1.188 3.96 1.782 6.732 1.782ZM393.672 528v-2.475h2.079c1.452 0 2.541-.099 3.267-.297.792-.264 1.419-.759 1.881-1.485.462-.792.99-1.98 1.584-3.564l21.978-62.865h3.96l22.077 63.36c.528 1.452.99 2.541 1.386 3.267.462.66 1.056 1.089 1.782 1.287.792.198 1.947.297 3.465.297h1.98V528h-21.78v-2.475h3.168c2.31 0 3.795-.231 4.455-.693.726-.528 1.089-1.353 1.089-2.475 0-.66-.165-1.551-.495-2.673a47.363 47.363 0 0 0-1.089-3.267 81.14 81.14 0 0 0-.792-2.574l-3.663-10.395h-28.017l-3.663 10.296c-.198.594-.495 1.452-.891 2.574-.33 1.056-.66 2.178-.99 3.366-.33 1.122-.495 2.013-.495 2.673 0 1.122.33 1.947.99 2.475.726.462 2.277.693 4.653.693h4.653V528h-22.572Zm19.305-27.621h25.938l-7.326-21.483-2.97-8.91a410.541 410.541 0 0 1-2.574-8.118c-.264 1.188-.726 2.739-1.386 4.653a312.69 312.69 0 0 1-1.98 5.94 303.488 303.488 0 0 0-1.881 5.445l-7.821 22.473Zm65.856 28.611c-4.026 0-7.425-1.254-10.197-3.762-2.706-2.508-4.059-6.435-4.059-11.781 0-5.214 1.848-9.042 5.544-11.484 3.762-2.442 9.57-3.795 17.424-4.059l8.217-.297v-6.336c0-2.772-.297-5.181-.891-7.227-.528-2.112-1.65-3.762-3.366-4.95-1.716-1.254-4.323-1.881-7.821-1.881-4.686 0-7.788 1.089-9.306 3.267-1.518 2.112-2.277 4.983-2.277 8.613-2.244 0-3.366-1.65-3.366-4.95 0-1.518.462-3.036 1.386-4.554.99-1.518 2.574-2.772 4.752-3.762 2.244-1.056 5.181-1.584 8.811-1.584 5.874 0 10.032 1.386 12.474 4.158 2.508 2.706 3.762 6.6 3.762 11.682v26.928c0 2.376.132 4.191.396 5.445.264 1.188.792 2.013 1.584 2.475.858.396 2.145.594 3.861.594h.594V528h-9.504l-.792-9.9h-.297c-.924 1.518-2.112 3.135-3.564 4.851-1.452 1.65-3.267 3.069-5.445 4.257-2.178 1.188-4.818 1.782-7.92 1.782Zm.792-3.267c3.102 0 5.874-.759 8.316-2.277 2.442-1.518 4.356-3.432 5.742-5.742 1.386-2.31 2.079-4.62 2.079-6.93v-10.593l-8.019.297c-4.818.198-8.613.858-11.385 1.98-2.772 1.056-4.752 2.541-5.94 4.455-1.122 1.848-1.683 4.092-1.683 6.732 0 3.3.825 6.138 2.475 8.514 1.716 2.376 4.521 3.564 8.415 3.564ZM546.757 528v-3.168h2.079c1.386 0 2.442-.132 3.168-.396.792-.33 1.452-.957 1.98-1.881.594-.924 1.221-2.277 1.881-4.059l21.978-61.182h5.544l22.176 62.469c.792 2.112 1.584 3.498 2.376 4.158.858.594 2.343.891 4.455.891h1.683V528H590.02v-3.168h2.772c2.178 0 3.663-.297 4.455-.891.792-.66 1.188-1.65 1.188-2.97 0-.792-.231-1.848-.693-3.168a83.067 83.067 0 0 0-.99-3.267l-3.762-10.692h-27.225l-3.663 10.296c-.264.858-.627 2.013-1.089 3.465-.462 1.386-.693 2.508-.693 3.366 0 1.32.429 2.31 1.287 2.97.858.594 2.442.891 4.752.891h3.663V528h-23.265Zm20.394-28.017h24.453l-6.831-19.8c-.99-2.772-1.98-5.61-2.97-8.514a193.174 193.174 0 0 1-2.277-7.821c-.462 1.98-1.188 4.389-2.178 7.227-.924 2.772-1.848 5.511-2.772 8.217l-7.425 20.691Zm66.799 29.007c-4.158 0-7.656-1.254-10.494-3.762-2.772-2.574-4.158-6.534-4.158-11.88 0-5.214 1.848-9.075 5.544-11.583 3.762-2.508 9.504-3.894 17.226-4.158l8.217-.297v-6.138c0-2.574-.264-4.851-.792-6.831-.462-1.98-1.485-3.531-3.069-4.653-1.518-1.188-3.861-1.782-7.029-1.782-2.838 0-5.016.495-6.534 1.485-1.518.924-2.541 2.244-3.069 3.96-.528 1.716-.792 3.696-.792 5.94-1.848 0-3.234-.396-4.158-1.188-.924-.858-1.386-2.277-1.386-4.257 0-2.772 1.386-5.082 4.158-6.93 2.772-1.848 6.765-2.772 11.979-2.772 5.94 0 10.263 1.353 12.969 4.059 2.706 2.64 4.059 6.732 4.059 12.276v26.433c0 3.168.396 5.28 1.188 6.336.792 1.056 2.409 1.584 4.851 1.584h.396V528h-11.088l-1.188-9.306h-.495a50.473 50.473 0 0 1-3.762 4.851c-1.386 1.584-3.102 2.904-5.148 3.96-1.98.99-4.455 1.485-7.425 1.485Zm1.485-4.455c2.904 0 5.478-.693 7.722-2.079 2.244-1.386 3.993-3.168 5.247-5.346a13.853 13.853 0 0 0 1.881-7.029v-9.504l-7.326.297c-6.534.264-11.055 1.485-13.563 3.663-2.442 2.178-3.663 5.214-3.663 9.108 0 3.234.759 5.874 2.277 7.92 1.584 1.98 4.059 2.97 7.425 2.97Zm67.89 3.465v-4.158h1.881c1.914 0 3.333-.495 4.257-1.485.99-.99 2.079-3.069 3.267-6.237l21.978-58.806h7.722l22.374 61.281c.726 2.046 1.584 3.432 2.574 4.158 1.056.726 2.541 1.089 4.455 1.089h1.287V528h-27.225v-4.158h2.277c3.96 0 5.94-1.584 5.94-4.752 0-.528-.066-1.089-.198-1.683a16.054 16.054 0 0 0-.594-1.98l-3.96-11.088h-26.037l-3.762 10.395c-.594 1.584-.891 3.003-.891 4.257 0 3.234 2.178 4.851 6.534 4.851h2.277V528h-24.156Zm21.879-28.611h22.374l-6.138-17.325a323.149 323.149 0 0 1-2.871-8.217 74.95 74.95 0 0 1-2.079-7.425 54.439 54.439 0 0 1-1.782 6.831 339.77 339.77 0 0 1-2.772 7.92l-6.732 18.216Zm68.219 29.601c-4.422 0-8.085-1.287-10.989-3.861-2.904-2.574-4.356-6.567-4.356-11.979 0-5.28 1.848-9.174 5.544-11.682 3.762-2.508 9.438-3.894 17.028-4.158l8.217-.297v-5.94c0-2.376-.198-4.455-.594-6.237-.396-1.848-1.254-3.3-2.574-4.356-1.32-1.056-3.333-1.584-6.039-1.584-2.508 0-4.422.462-5.742 1.386-1.32.924-2.211 2.211-2.673 3.861-.396 1.584-.594 3.432-.594 5.544-2.772 0-4.884-.462-6.336-1.386-1.386-.99-2.079-2.607-2.079-4.851 0-2.31.792-4.158 2.376-5.544 1.65-1.386 3.828-2.376 6.534-2.97 2.706-.66 5.676-.99 8.91-.99 6.072 0 10.593 1.287 13.563 3.861 3.036 2.574 4.554 6.996 4.554 13.266v25.641c0 2.772.462 4.653 1.386 5.643.924.99 2.508 1.485 4.752 1.485h.297V528h-13.365l-1.584-8.514h-.792a68.2 68.2 0 0 1-4.059 4.95 15.867 15.867 0 0 1-4.653 3.366c-1.716.792-3.96 1.188-6.732 1.188Zm2.277-6.138c4.026 0 7.227-1.221 9.603-3.663 2.376-2.508 3.564-5.874 3.564-10.098v-8.019l-6.336.297c-5.61.264-9.504 1.419-11.682 3.465-2.112 1.98-3.168 4.917-3.168 8.811 0 6.138 2.673 9.207 8.019 9.207ZM864.628 528v-4.455h1.683c1.914 0 3.366-.462 4.356-1.386 1.056-.99 2.145-3.069 3.267-6.237l21.879-58.608h9.306l21.879 60.489c.858 2.244 1.815 3.762 2.871 4.554 1.056.792 2.508 1.188 4.356 1.188h1.386V528h-28.71v-4.455h2.673c1.716 0 3.069-.363 4.059-1.089.99-.726 1.485-1.881 1.485-3.465 0-.594-.099-1.188-.297-1.782-.132-.66-.297-1.32-.495-1.98l-3.861-10.791h-25.542l-3.465 9.9c-.66 1.782-.99 3.333-.99 4.653 0 3.036 1.98 4.554 5.94 4.554h2.871V528h-24.651Zm22.275-28.809h21.681l-5.841-17.028a570.538 570.538 0 0 1-2.673-8.019 81.933 81.933 0 0 1-2.079-7.524 75.282 75.282 0 0 1-1.98 7.029 159.51 159.51 0 0 1-2.673 7.722l-6.435 17.82Zm68.881 29.799c-4.356 0-8.019-1.287-10.989-3.861-2.904-2.64-4.356-6.666-4.356-12.078 0-5.28 1.848-9.174 5.544-11.682 3.696-2.574 9.339-3.993 16.929-4.257l8.118-.297v-5.742c0-2.376-.198-4.455-.594-6.237-.33-1.782-1.089-3.168-2.277-4.158-1.188-1.056-3.003-1.584-5.445-1.584-3.498 0-5.775 1.023-6.831 3.069-1.056 2.046-1.584 4.62-1.584 7.722-3.168 0-5.577-.462-7.227-1.386-1.65-.99-2.475-2.64-2.475-4.95s.825-4.158 2.475-5.544c1.65-1.452 3.861-2.508 6.633-3.168 2.838-.66 5.973-.99 9.405-.99 6.27 0 10.956 1.287 14.058 3.861 3.168 2.574 4.752 6.963 4.752 13.167v25.542c0 2.772.462 4.653 1.386 5.643.924.99 2.508 1.485 4.752 1.485h.297V528h-14.751l-1.683-8.019h-.891a62.822 62.822 0 0 1-4.059 4.752 15.676 15.676 0 0 1-4.554 3.168c-1.716.726-3.927 1.089-6.633 1.089Zm3.168-6.435c3.696 0 6.633-1.221 8.811-3.663 2.178-2.442 3.267-5.709 3.267-9.801v-7.821l-5.841.297c-5.082.198-8.613 1.32-10.593 3.366-1.98 1.98-2.97 4.851-2.97 8.613 0 6.006 2.442 9.009 7.326 9.009ZM1028.15 528v-4.851h1.49c1.85 0 3.33-.462 4.45-1.386 1.13-.99 2.25-3.003 3.37-6.039l21.68-58.41h11.29l21.38 59.4c.86 2.508 1.85 4.224 2.97 5.148 1.19.858 2.64 1.287 4.36 1.287h1.58V528h-30.59v-4.851h3.27c1.32 0 2.44-.33 3.36-.99.99-.66 1.49-1.716 1.49-3.168 0-.726-.1-1.419-.3-2.079a8.789 8.789 0 0 0-.59-1.98l-3.57-10.395h-24.85l-3.16 9.306c-.33.792-.6 1.683-.8 2.673-.19.924-.29 1.716-.29 2.376 0 1.452.46 2.541 1.38 3.267.99.66 2.28.99 3.86.99h3.37V528h-25.15Zm22.77-29.007h20.89l-5.54-16.731c-.86-2.442-1.72-5.016-2.57-7.722-.8-2.706-1.46-5.214-1.98-7.524a110.41 110.41 0 0 1-1.98 7.029c-.8 2.508-1.65 5.049-2.58 7.623l-6.24 17.325Zm69.93 29.997c-4.35 0-8.02-1.287-10.99-3.861-2.97-2.64-4.45-6.699-4.45-12.177 0-5.28 1.85-9.207 5.54-11.781 3.7-2.574 9.28-3.993 16.73-4.257l8.22-.297v-5.643c0-2.244-.16-4.224-.49-5.94-.33-1.782-1.03-3.168-2.08-4.158-.99-.99-2.58-1.485-4.76-1.485-3.03 0-5.04 1.023-6.03 3.069-.99 2.046-1.49 4.587-1.49 7.623-3.76 0-6.63-.462-8.61-1.386-1.92-.99-2.87-2.673-2.87-5.049 0-2.376.85-4.29 2.57-5.742 1.78-1.452 4.13-2.508 7.03-3.168 2.97-.66 6.24-.99 9.8-.99 6.6 0 11.55 1.287 14.85 3.861 3.3 2.508 4.95 6.864 4.95 13.068v25.443c0 2.706.43 4.554 1.29 5.544.92.99 2.51 1.485 4.75 1.485h.3V528h-16.44l-1.98-7.425h-.79c-1.45 1.782-2.84 3.3-4.16 4.554-1.25 1.254-2.74 2.211-4.45 2.871-1.72.66-3.86.99-6.44.99Zm4.26-6.831c3.3 0 5.91-1.188 7.82-3.564 1.98-2.376 2.97-5.544 2.97-9.504v-7.623l-5.15.297c-4.62.198-7.82 1.287-9.6 3.267-1.72 1.914-2.57 4.719-2.57 8.415 0 5.808 2.17 8.712 6.53 8.712Zm69.57 5.841v-5.247h1.19c1.78 0 3.26-.462 4.45-1.386 1.26-.924 2.41-2.871 3.47-5.841l21.48-58.212h13.56l20.69 58.311c.99 2.772 2.08 4.653 3.27 5.643 1.26.99 2.67 1.485 4.26 1.485h1.78V528h-32.67v-5.247h3.86c.99 0 1.95-.297 2.87-.891.93-.594 1.39-1.584 1.39-2.97 0-.792-.1-1.551-.3-2.277-.2-.792-.39-1.452-.59-1.98l-3.47-9.9h-24.05l-2.88 8.514c-.26.792-.52 1.749-.79 2.871-.26 1.056-.39 1.98-.39 2.772 0 1.254.46 2.211 1.38 2.871.93.66 1.95.99 3.07.99h4.16V528h-25.74Zm23.26-29.304h20l-5.24-16.236c-.66-2.244-1.42-4.752-2.28-7.524-.79-2.772-1.45-5.313-1.98-7.623a244.48 244.48 0 0 1-2.18 7.227c-.86 2.64-1.68 5.115-2.47 7.425l-5.85 16.731Zm70.88 30.294c-4.35 0-8.05-1.32-11.09-3.96-2.97-2.64-4.45-6.699-4.45-12.177 0-5.346 1.85-9.306 5.54-11.88 3.7-2.574 9.24-3.993 16.63-4.257l8.12-.297v-5.445c0-3.3-.36-6.006-1.09-8.118-.66-2.112-2.34-3.168-5.05-3.168-2.5 0-4.25 1.023-5.24 3.069-.93 1.98-1.39 4.521-1.39 7.623-4.42 0-7.75-.495-10-1.485-2.24-.99-3.36-2.706-3.36-5.148 0-2.442.92-4.389 2.77-5.841s4.32-2.508 7.42-3.168c3.11-.726 6.5-1.089 10.2-1.089 6.93 0 12.11 1.254 15.54 3.762 3.5 2.508 5.25 6.864 5.25 13.068v25.245c0 2.706.43 4.554 1.29 5.544.86.99 2.41 1.485 4.65 1.485h.4V528h-18.42l-2.08-6.831h-.89c-1.45 1.782-2.84 3.267-4.16 4.455a11.825 11.825 0 0 1-4.35 2.475c-1.65.594-3.73.891-6.24.891Zm5.45-7.227c2.83 0 5.08-1.155 6.73-3.465 1.71-2.31 2.57-5.379 2.57-9.207v-7.425l-4.45.297c-3.96.198-6.7 1.254-8.22 3.168-1.52 1.848-2.28 4.554-2.28 8.118 0 5.676 1.88 8.514 5.65 8.514ZM1364.3 528v-5.643h.89c1.72 0 3.2-.429 4.46-1.287 1.32-.924 2.54-2.838 3.66-5.742l21.18-58.014h15.94l20.5 58.113c.85 2.574 1.94 4.389 3.26 5.445 1.32.99 2.84 1.485 4.56 1.485h1.38V528h-34.84v-5.643h3.96c.99 0 1.91-.231 2.77-.693.92-.528 1.38-1.452 1.38-2.772 0-.858-.13-1.716-.39-2.574-.2-.858-.4-1.518-.6-1.98l-3.26-9.405h-23.17l-2.57 7.722c-.2.792-.47 1.815-.8 3.069-.33 1.188-.49 2.211-.49 3.069 0 2.376 1.32 3.564 3.96 3.564h4.55V528h-26.33Zm23.76-29.601h19.01l-5.45-17.721c-.59-1.914-1.22-4.026-1.88-6.336a92.455 92.455 0 0 1-1.68-6.831c-.53 2.112-1.16 4.323-1.88 6.633a935.25 935.25 0 0 1-2.08 6.336l-6.04 17.919Zm71.92 30.591c-4.29 0-7.95-1.32-10.99-3.96-3.04-2.64-4.55-6.732-4.55-12.276 0-5.412 1.81-9.405 5.44-11.979 3.63-2.574 9.14-3.993 16.53-4.257l8.12-.297v-5.346c0-3.498-.39-6.171-1.19-8.019-.79-1.914-2.27-2.871-4.45-2.871-1.98 0-3.47.957-4.46 2.871-.92 1.914-1.38 4.521-1.38 7.821-4.82 0-8.45-.495-10.89-1.485-2.38-1.056-3.57-2.838-3.57-5.346 0-2.442.96-4.422 2.88-5.94 1.98-1.518 4.58-2.607 7.82-3.267 3.23-.726 6.79-1.089 10.69-1.089 7.32 0 12.8 1.254 16.43 3.762 3.63 2.442 5.45 6.765 5.45 12.969v25.047c0 2.706.43 4.554 1.28 5.544.86.99 2.41 1.485 4.66 1.485h.39V528h-20.49l-2.28-6.138h-.89c-1.52 1.782-2.93 3.201-4.25 4.257-1.26.99-2.68 1.716-4.26 2.178-1.59.462-3.6.693-6.04.693Zm6.83-7.623c2.31 0 4.16-1.122 5.54-3.366 1.46-2.244 2.18-5.214 2.18-8.91v-7.227l-3.66.297c-3.3.198-5.61 1.221-6.93 3.069-1.25 1.782-1.88 4.389-1.88 7.821 0 5.544 1.58 8.316 4.75 8.316ZM1537.3 528v-6.039h.69c1.72 0 3.24-.429 4.56-1.287 1.38-.858 2.6-2.706 3.66-5.544l21.09-57.816h17.92l20.19 58.014c.86 2.31 1.95 3.993 3.27 5.049 1.39 1.056 3 1.584 4.85 1.584h1.09V528h-36.63v-6.039h3.96c1.06 0 2.01-.198 2.87-.594.86-.396 1.29-1.221 1.29-2.475 0-.924-.17-1.848-.5-2.772-.26-.99-.46-1.683-.59-2.079l-3.07-9.009h-22.57l-2.28 7.128c-.2.792-.49 1.881-.89 3.267-.33 1.32-.5 2.442-.5 3.366 0 .99.27 1.782.8 2.376.52.528 1.48.792 2.87.792h4.85V528h-26.93Zm24.26-29.799h18.21l-5.64-18.909c-.46-1.716-.99-3.531-1.59-5.445a80.15 80.15 0 0 1-1.38-6.237c-.53 2.112-1.09 4.158-1.68 6.138-.6 1.914-1.16 3.729-1.69 5.445l-6.23 19.008Zm72.77 30.789c-2.84 0-5.45-.594-7.82-1.782-2.38-1.188-4.29-2.97-5.74-5.346-1.39-2.442-2.08-5.511-2.08-9.207 0-5.478 1.81-9.504 5.44-12.078 3.63-2.574 9.11-3.993 16.44-4.257l8.01-.297v-5.148c0-3.696-.42-6.369-1.28-8.019-.86-1.716-2.15-2.574-3.86-2.574-1.59 0-2.84.891-3.77 2.673-.92 1.782-1.38 4.422-1.38 7.92-5.22 0-9.11-.528-11.68-1.584-2.51-1.056-3.77-2.838-3.77-5.346s.99-4.521 2.97-6.039c2.05-1.584 4.76-2.706 8.12-3.366 3.43-.726 7.16-1.089 11.19-1.089 7.59 0 13.27 1.254 17.03 3.762 3.83 2.442 5.74 6.732 5.74 12.87v24.948c0 2.64.4 4.455 1.19 5.445.86.99 2.41 1.485 4.65 1.485h.4V528h-22.08l-2.48-5.544h-.99c-1.45 1.716-2.83 3.069-4.15 4.059a10.872 10.872 0 0 1-4.26 1.881c-1.52.396-3.47.594-5.84.594Zm7.82-8.019c1.98 0 3.56-1.056 4.75-3.168 1.19-2.178 1.78-5.082 1.78-8.712v-7.029l-3.07.297c-2.77.198-4.68 1.188-5.74 2.97-1.05 1.716-1.58 4.257-1.58 7.623 0 5.346 1.29 8.019 3.86 8.019Z" fill="#3C4043"/></svg>