<svg width="1920" height="1080" fill="none" xmlns="http://www.w3.org/2000/svg"><path d="M528 537.5a2.5 2.5 0 1 0 0 5v-5Zm177.768 4.268a2.501 2.501 0 0 0 0-3.536l-15.91-15.91a2.501 2.501 0 0 0-3.536 3.536L700.464 540l-14.142 14.142a2.501 2.501 0 0 0 3.536 3.536l15.91-15.91ZM528 542.5h176v-5H528v5ZM1097 275.5a2.5 2.5 0 0 0 0 5v-5Zm338.77 4.268c.97-.977.97-2.559 0-3.536l-15.91-15.91a2.506 2.506 0 0 0-3.54 0c-.97.977-.97 2.56 0 3.536L1430.46 278l-14.14 14.142a2.512 2.512 0 0 0 0 3.536c.98.976 2.56.976 3.54 0l15.91-15.91ZM1097 280.5h337v-5h-337v5Z" fill="#FF6D7F"/><path d="M377.5 703.5c90.196 0 163.25-73.054 163.25-163.25S467.696 377 377.5 377s-163.25 73.054-163.25 163.25S287.304 703.5 377.5 703.5Zm0 81.625c-108.969 0-326.5 54.689-326.5 163.25v40.813C51 1011.63 69.366 1030 91.813 1030h571.375c22.446 0 40.812-18.37 40.812-40.812v-40.813c0-108.561-217.531-163.25-326.5-163.25Z" fill="#D2E3FC"/><rect x="943" y="485" width="110" height="209" rx="15" transform="rotate(90 943 485)" fill="#D2E3FC" stroke="#3C4043" stroke-width="10"/><path d="M773.33 537.04c3.024.288 3.264.48 3.264 3.312v21.024c0 2.88-.336 3.216-3.6 3.552v1.824h12.432v-1.824c-3.936-.384-4.224-.72-4.224-3.696v-5.472c.72.336 2.16.768 3.648.816 6.432-1.056 12.384-5.76 12.384-13.152 0-4.848-3.408-9.744-8.784-9.744-.864 0-1.92.432-2.784.816-.96.48-3.552 1.968-4.464 2.496V533.2c-2.256.912-5.568 1.824-7.872 2.112v1.728Zm7.872 1.968c1.2-.96 3.264-1.92 4.847-1.92 3.265 0 6.289 2.784 6.289 8.16 0 5.28-2.592 8.688-6.576 8.688-1.632 0-3.504-.864-4.56-1.92v-13.008ZM825.903 556v-1.824c-2.88-.288-3.216-.48-3.216-3.504v-8.688c0-5.616-2.784-8.304-6.912-8.304-2.688 0-5.328 1.68-7.152 3.456V528.4c0-2.112.048-4.896.048-6.528-1.824.624-5.088 1.296-8.064 1.584v1.776c3.168.24 3.408.576 3.408 3.312v22.128c0 3.024-.528 3.264-3.456 3.504V556h11.184v-1.824c-2.832-.288-3.12-.576-3.12-3.504v-11.328c1.392-1.536 3.168-2.352 4.944-2.352 2.976 0 4.512 1.776 4.512 5.664v8.016c0 2.976-.384 3.216-3.072 3.504V556h10.896Zm3.505-10.608c0 5.52 4.224 11.184 11.328 11.184 5.088 0 11.136-3.744 11.136-11.808 0-6.096-4.464-11.088-11.04-11.088-5.568 0-11.424 4.272-11.424 11.712Zm17.184.528c0 6.432-2.592 8.544-5.328 8.544-3.792 0-6.576-4.128-6.576-10.368 0-5.76 2.736-8.304 5.52-8.304 3.984 0 6.384 4.032 6.384 10.128ZM880.854 556v-1.824c-2.928-.336-3.216-.528-3.216-3.504v-9.264c0-4.848-2.688-7.728-6.624-7.728-1.44 0-2.736.576-4.128 1.44-1.2.768-2.352 1.536-3.264 2.208v-3.744c-2.256.864-4.848 1.488-7.584 1.872v1.68c2.592.384 2.976.528 2.976 3.648v9.888c0 2.928-.192 3.12-3.408 3.504V556h11.088v-1.824c-2.832-.288-3.072-.384-3.072-3.504v-11.28c1.584-1.344 3.312-2.304 5.184-2.304 2.736 0 4.224 1.824 4.224 5.232v8.256c0 2.976-.288 3.312-2.88 3.6V556h10.704Zm21.395-5.712c-1.824 1.584-3.984 2.448-6.096 2.448-3.408 0-7.056-2.544-7.2-8.208 5.568-.192 11.808-.528 13.44-.816.864-.144.96-.672 1.008-1.728 0-4.32-3.36-8.304-8.16-8.304-2.784 0-5.424 1.152-7.632 3.552-1.92 2.064-3.264 5.088-3.264 8.448 0 5.952 3.84 10.896 10.032 10.896 1.824 0 5.472-.816 8.832-4.8l-.96-1.488Zm-3.744-9.36c0 .768-.24.96-1.152 1.008-2.784.096-5.664.096-8.16.144.48-3.936 2.64-6.192 4.992-6.192 2.688 0 4.368 2.592 4.32 5.04Z" fill="#1A73E8"/><rect x="1672" y="223" width="110" height="209" rx="15" transform="rotate(90 1672 223)" fill="#D2E3FC" stroke="#3C4043" stroke-width="10"/><path d="M1565.47 270.768c-.24-3.024-.48-6.816-.53-9.12h-1.44c-.77.912-1.15 1.152-2.54 1.152h-19.87c-1.49 0-1.92 0-2.74-1.152h-1.44c-.1 2.928-.38 5.952-.62 9.312h1.96c.63-2.112 1.06-3.312 1.68-4.32.72-1.104 1.64-1.488 4.56-1.488h3.89v22.512c0 3.84-.38 4.176-5.09 4.464V294h15.32v-1.872c-4.8-.288-5.24-.72-5.24-4.464v-22.512h3.89c3.07 0 3.65.24 4.51 1.392.63.864 1.25 2.4 1.73 4.416l1.97-.192Zm37.85-7.968h-12v1.872c4.22.384 4.6.912 3.55 3.744-1.2 3.36-4.18 10.704-7.49 18.768-2.54-6.624-6.05-15.792-7.54-19.776-.72-1.872-.62-2.352 3.12-2.736V262.8h-13.58v1.92c3.12.24 4.03.72 5.38 3.936 2.54 6.24 7.34 18.72 9.98 25.728h2.35c3.12-7.68 8.88-21.408 10.13-24.384 1.87-4.464 2.59-4.944 6.1-5.328V262.8Z" fill="#1A73E8"/><path d="M1082 330.5c30.11 0 54.5-24.053 54.5-53.75S1112.11 223 1082 223s-54.5 24.053-54.5 53.75 24.39 53.75 54.5 53.75Zm0 26.875c-36.38 0-109 18.006-109 53.75v13.437c0 7.391 6.131 13.438 13.625 13.438h190.745c7.5 0 13.63-6.047 13.63-13.438v-13.437c0-35.744-72.62-53.75-109-53.75Z" fill="#D2E3FC"/></svg>