<?xml version="1.0" encoding="UTF-8"?>
<svg id="Capa_1" data-name="Capa 1" xmlns="http://www.w3.org/2000/svg" version="1.1" viewBox="0 0 1400 1400">
  <defs>
    <style>
      .cls-1 {
        fill: #181818;
      }

      .cls-1, .cls-2, .cls-3, .cls-4 {
        stroke-width: 0px;
      }

      .cls-2 {
        fill: #4ba9b7;
      }

      .cls-3 {
        fill: #f2f2f2;
      }

      .cls-4 {
        fill: #efefef;
      }
    </style>
  </defs>
  <g id="Capa_2" data-name="Capa 2">
    <rect class="cls-3" x="-.3" y="0" width="1400" height="1400"/>
  </g>
  <g>
    <g>
      <path class="cls-1" d="M280.8,406.2l-13.2-29.2h-48l-13.2,29.2h-12l43-94.6h12.5l43,94.6h-12ZM263.3,367.2l-19.8-43.6-19.5,43.6h39.3Z"/>
      <path class="cls-1" d="M433.2,359.8c-.6,14.9-4.5,26.8-11.8,35.6-7.3,8.8-17.9,13.2-31.8,13.2s-17.6-2.1-24.2-6.4c-6.5-4.3-11.5-10.1-14.8-17.6s-4.9-16.1-4.9-25.8,1.8-18.2,5.4-25.7c3.6-7.5,8.8-13.4,15.6-17.6,6.8-4.3,14.9-6.4,24.2-6.4s17.3,2,24,6c6.7,4,11.8,9.6,15.3,16.8l-11.5,3.2c-2.6-4.8-6.3-8.5-11-11.2-4.8-2.7-10.4-4-16.8-4s-13.1,1.6-18.2,4.9c-5.1,3.3-8.9,7.9-11.5,13.8-2.6,5.9-3.9,12.6-3.9,20.3s1.2,14.4,3.5,20.3c2.3,5.9,5.9,10.5,10.8,13.8,4.8,3.3,10.9,5,18.1,5s16.3-2.8,21.8-8.5c5.4-5.7,8.6-13.3,9.6-22.7h-39v-9.7h51.2v2.9Z"/>
      <path class="cls-1" d="M451.5,311.6h38.6c13.4,0,22.6,2.5,27.7,7.5,5.1,5,7.6,12.3,7.6,21.9s-1.9,14.9-5.7,19.8c-3.8,4.9-10.5,7.9-20.3,9l23.7,36.4h-12.5l-23.4-35.8h-24.4v35.8h-11.3v-94.6ZM512,330.7c-1.3-2.8-3.8-5-7.4-6.7-3.6-1.7-8.9-2.5-15.8-2.5h-25.9v39h25.9c6.9,0,12.1-.8,15.8-2.5,3.6-1.7,6.1-3.9,7.4-6.7,1.3-2.8,1.9-6.2,1.9-10.3s-.6-7.5-1.9-10.3Z"/>
      <path class="cls-1" d="M561.5,401.5c-7.1-4.1-12.4-9.8-16-17.1-3.6-7.3-5.4-15.8-5.4-25.6s1.8-18.1,5.4-25.4c3.6-7.3,8.9-13,16-17.2,7.1-4.2,15.7-6.2,25.9-6.2s18.7,2.1,25.8,6.2c7.1,4.2,12.4,9.9,16,17.2,3.6,7.3,5.4,15.8,5.4,25.4s-1.8,18.3-5.4,25.6c-3.6,7.3-8.9,13-15.9,17.1-7,4.1-15.7,6.2-25.9,6.2s-18.9-2.1-25.9-6.2ZM607.2,392.2c5.4-3.2,9.3-7.7,12-13.4,2.6-5.7,3.9-12.4,3.9-20.1s-1.3-14.2-3.9-19.9c-2.6-5.7-6.6-10.2-12-13.4-5.4-3.2-11.9-4.8-19.8-4.8s-14.6,1.6-19.9,4.8c-5.4,3.2-9.3,7.7-12,13.4-2.6,5.7-3.9,12.4-3.9,19.9s1.3,14.3,3.9,20.1c2.6,5.7,6.6,10.2,12,13.4,5.4,3.2,12,4.8,19.9,4.8s14.4-1.6,19.8-4.8Z"/>
      <path class="cls-1" d="M688.8,322.2v84h-11.3v-84h-33.1v-10.6h77.8v10.6h-33.4Z"/>
      <path class="cls-1" d="M746,322.2v29.7h47.9v9.9h-47.9v33.8h53.6v10.6h-64.9v-94.6h62.1v10.6h-50.8Z"/>
      <path class="cls-1" d="M865.6,323.5c-4.1-1.9-9.9-2.9-17.6-2.9s-10.8.6-14.8,1.9c-4,1.3-7,3-9,5.2-2,2.2-3,4.6-3,7.3s.7,5.3,2.1,7.2c1.4,2,3.5,3.5,6.2,4.7,2.7,1.2,6,2.2,10,2.9l17.3,3.4c10.2,1.8,17.7,4.9,22.5,9.2,4.8,4.4,7.2,9.8,7.2,16.4s-1.4,9.9-4.2,14.2c-2.8,4.3-7.1,7.8-13,10.4-5.8,2.6-13,3.9-21.6,3.9s-19.9-1.8-26.2-5.5c-6.3-3.7-10.3-8.4-12.1-14.3l10.8-3.2c1.3,3.5,4.1,6.5,8.4,8.8,4.3,2.3,10.7,3.5,19.3,3.5s11.1-.8,15.1-2.4c4.1-1.6,7.1-3.7,9.1-6.5,2-2.7,3-5.7,3-9s-.7-4.9-2.1-7c-1.4-2.1-3.5-3.8-6.5-5.2-2.9-1.4-6.6-2.6-11-3.4l-16.9-3.2c-10-1.9-17.4-4.8-22-8.8-4.6-4-7-9.5-7-16.6s1.5-8.9,4.4-12.7c2.9-3.8,7.3-6.8,13-9.1,5.8-2.3,12.8-3.4,21-3.4s18.4,1.7,24.4,5.1c5.9,3.4,10,7.7,12.3,12.8l-11,3.2c-1.4-3.1-4.2-5.5-8.2-7.5Z"/>
      <path class="cls-1" d="M920.5,401.5c-7.1-4.1-12.4-9.8-16-17.1-3.6-7.3-5.4-15.8-5.4-25.6s1.8-18.1,5.4-25.4c3.6-7.3,8.9-13,16-17.2,7.1-4.2,15.7-6.2,25.9-6.2s18.7,2.1,25.8,6.2c7.1,4.2,12.4,9.9,16,17.2,3.6,7.3,5.4,15.8,5.4,25.4s-1.8,18.3-5.4,25.6c-3.6,7.3-8.9,13-15.9,17.1-7,4.1-15.7,6.2-25.9,6.2s-18.9-2.1-25.9-6.2ZM966.2,392.2c5.4-3.2,9.3-7.7,12-13.4,2.6-5.7,3.9-12.4,3.9-20.1s-1.3-14.2-3.9-19.9c-2.6-5.7-6.6-10.2-12-13.4-5.4-3.2-11.9-4.8-19.8-4.8s-14.6,1.6-19.9,4.8c-5.4,3.2-9.3,7.7-12,13.4-2.6,5.7-3.9,12.4-3.9,19.9s1.3,14.3,3.9,20.1c2.6,5.7,6.6,10.2,12,13.4,5.4,3.2,12,4.8,19.9,4.8s14.4-1.6,19.8-4.8ZM951.3,422.1h-9.7v-16.6h9.7v16.6Z"/>
      <path class="cls-1" d="M1028.8,402.8c-6.5-3.8-11.3-9.2-14.5-16.2-3.2-7-4.8-15.3-4.8-24.9v-50h11.5v50c0,11.5,2.6,20.4,7.9,26.7,5.3,6.4,13.1,9.5,23.7,9.5s18.4-3.2,23.6-9.5c5.2-6.4,7.8-15.3,7.8-26.7v-50h11.5v50c0,9.7-1.6,18-4.8,24.9-3.2,7-8,12.4-14.5,16.2-6.5,3.8-14.3,5.7-23.6,5.7s-17.3-1.9-23.7-5.7Z"/>
      <path class="cls-1" d="M1128.4,322.2v29.7h47.9v9.9h-47.9v33.8h53.6v10.6h-64.9v-94.6h62.1v10.6h-50.8Z"/>
      <path class="cls-1" d="M385.3,457.6v84h-11.3v-84h-33.1v-10.6h77.8v10.6h-33.4Z"/>
      <path class="cls-1" d="M459,541.6v-46l-33.5-48.6h12.6l26.5,39,26.5-39h12.9l-33.7,48.6v46h-11.3Z"/>
      <path class="cls-1" d="M584.1,454.5c5.1,5,7.6,12.3,7.6,21.9s-2.5,16.7-7.6,21.8-14.3,7.6-27.7,7.6h-27.2v35.8h-11.3v-94.6h38.6c13.4,0,22.6,2.5,27.7,7.5ZM529.2,456.9v39h25.9c6.9,0,12.1-.8,15.8-2.5,3.6-1.7,6.1-3.9,7.4-6.7,1.3-2.8,1.9-6.2,1.9-10.3s-.6-7.5-1.9-10.3c-1.3-2.8-3.8-5-7.4-6.7-3.6-1.7-8.9-2.5-15.8-2.5h-25.9Z"/>
      <path class="cls-1" d="M623.6,457.6v29.7h47.9v9.9h-47.9v33.8h53.6v10.6h-64.9v-94.6h62.1v10.6h-50.8Z"/>
      <path class="cls-1" d="M704,457.6v29.7h47.5v9.9h-47.5v44.4h-11.3v-94.6h62.1v10.6h-50.8Z"/>
      <path class="cls-1" d="M849.4,541.6l-13.2-29.2h-48l-13.2,29.2h-12l43-94.6h12.5l43,94.6h-12ZM831.9,502.6l-19.8-43.6-19.5,43.6h39.3Z"/>
      <path class="cls-1" d="M936.6,537.5c-6.5,3.9-14.1,5.8-23,5.8s-17.3-2-23.9-6.1c-6.5-4.1-11.5-9.8-14.8-17.2-3.3-7.4-5-16-5-25.9s1.7-18.3,5-25.7c3.3-7.4,8.3-13.2,14.8-17.3,6.5-4.1,14.5-6.2,23.9-6.2s16.4,1.9,22.9,5.8c6.5,3.9,11.4,9.2,15,16l-11.5,3c-1.8-2.9-4-5.4-6.5-7.5-2.5-2.1-5.4-3.7-8.7-4.9-3.3-1.2-7-1.8-11.1-1.8-7.1,0-13,1.6-17.8,4.9-4.8,3.3-8.4,7.8-10.8,13.5-2.4,5.8-3.6,12.5-3.6,20.1s1.2,14.5,3.6,20.3c2.4,5.8,6,10.3,10.8,13.5,4.8,3.3,10.8,4.9,17.8,4.9s7.8-.6,11.2-1.8c3.3-1.2,6.3-2.9,8.8-5,2.5-2.2,4.7-4.7,6.5-7.5l11.3,2.9c-3.4,6.9-8.4,12.3-14.8,16.1Z"/>
      <path class="cls-1" d="M981.7,457.6v29.7h47.9v9.9h-47.9v33.8h53.6v10.6h-64.9v-94.6h62.1v10.6h-50.8Z"/>
      <path class="cls-1" d="M415.5,582.4h12.8l34.7,81.7,34.8-81.7h12.8l34.7,81.7,34.8-81.7h12.8l-41.3,94.6h-12.5l-34.8-79.7-34.8,79.7h-12.6l-41.3-94.6Z"/>
      <path class="cls-1" d="M608.4,677v-94.6h11.3v94.6h-11.3Z"/>
      <path class="cls-1" d="M679.8,593v84h-11.3v-84h-33.1v-10.6h77.8v10.6h-33.4Z"/>
      <path class="cls-1" d="M791.9,622.7v-40.3h11.3v94.6c.1,0-11.2,0-11.2,0v-43.6h-55.1v43.6h-11.3v-94.6h11.3v40.3h54.9Z"/>
      <path class="cls-1" d="M948.7,677l-13.2-29.2h-48l-13.2,29.2h-12l43-94.6h12.5l43,94.6h-12ZM931.2,638l-19.8-43.6-19.5,43.6h39.3Z"/>
      <path class="cls-1" d="M489.4,729.7c-4.1-1.9-9.9-2.9-17.6-2.9s-10.8.6-14.8,1.9c-4,1.3-7,3-9,5.2-2,2.2-3,4.6-3,7.3s.7,5.3,2.1,7.2c1.4,2,3.5,3.5,6.2,4.7,2.7,1.2,6,2.2,10,2.9l17.3,3.4c10.2,1.8,17.7,4.9,22.5,9.2,4.8,4.4,7.2,9.8,7.2,16.4s-1.4,9.9-4.2,14.2c-2.8,4.3-7.1,7.8-13,10.4-5.8,2.6-13,3.9-21.6,3.9s-19.9-1.8-26.2-5.5c-6.3-3.7-10.3-8.4-12.1-14.3l10.8-3.2c1.3,3.5,4.1,6.5,8.4,8.8,4.3,2.3,10.7,3.5,19.3,3.5s11.1-.8,15.1-2.4c4.1-1.6,7.1-3.7,9.1-6.5,2-2.7,3-5.7,3-9s-.7-4.9-2.1-7c-1.4-2.1-3.5-3.8-6.5-5.2-2.9-1.4-6.6-2.6-11-3.4l-16.9-3.2c-10-1.9-17.4-4.8-22-8.8-4.6-4-7-9.5-7-16.6s1.5-8.9,4.4-12.7c2.9-3.8,7.3-6.8,13-9.1,5.8-2.3,12.8-3.4,21-3.4s18.4,1.7,24.4,5.1c5.9,3.4,10,7.7,12.3,12.8l-11,3.2c-1.4-3.1-4.2-5.5-8.2-7.5Z"/>
      <path class="cls-1" d="M545.5,809c-6.5-3.8-11.3-9.2-14.5-16.2-3.2-7-4.8-15.3-4.8-24.9v-50h11.5v50c0,11.5,2.6,20.4,7.9,26.7,5.3,6.4,13.1,9.5,23.7,9.5s18.4-3.2,23.6-9.5c5.2-6.4,7.8-15.3,7.8-26.7v-50h11.5v50c0,9.7-1.6,18-4.8,24.9-3.2,7-8,12.4-14.5,16.2-6.5,3.8-14.3,5.7-23.6,5.7s-17.3-1.9-23.7-5.7Z"/>
      <path class="cls-1" d="M694,720.7c5.1,2,8.6,4.8,10.6,8.5,2,3.7,2.9,8.7,2.9,14.8s-1.2,9.6-3.6,13.2c-2.4,3.6-6.4,6.2-11.9,7.6,5.7,1.3,9.8,3.9,12.3,7.6,2.4,3.7,3.7,8.2,3.7,13.5s-1,11.1-3.1,14.8c-2.1,3.8-5.7,6.7-10.8,8.7-5.2,2-12.4,3-21.8,3h-38.6v-94.6h38.6c9.4,0,16.6,1,21.7,2.9ZM686.8,757.5c3.6-1.3,6.1-3.1,7.4-5.3,1.3-2.2,1.9-4.9,1.9-8.2s-.6-7-1.9-9.3-3.7-4-7.3-5.2c-3.6-1.2-8.9-1.8-16-1.8h-25.8v31.8h25.8c7,0,12.3-.7,15.9-2ZM686.9,800.7c3.7-1.2,6.3-3,7.6-5.3,1.3-2.3,2-5.4,2-9.5s-.7-6.5-2-8.9c-1.3-2.4-3.9-4.3-7.6-5.7-3.7-1.4-9-2.1-15.9-2.1h-25.9v33.4h25.8c7,0,12.3-.6,16.1-1.9Z"/>
      <path class="cls-1" d="M764.3,728.4v84h-11.3v-84h-33.1v-10.6h77.8v10.6h-33.4Z"/>
      <path class="cls-1" d="M865.4,801.8v10.6h-55.2v-94.6h11.3v84h43.9Z"/>
      <path class="cls-1" d="M892.2,728.4v29.7h47.9v9.9h-47.9v33.8h53.6v10.6h-64.9v-94.6h62.1v10.6h-50.8Z"/>
      <path class="cls-1" d="M326.5,893.5v-40.3h11.3v94.6c.1,0-11.2,0-11.2,0v-43.6h-55.1v43.6h-11.3v-94.6h11.3v40.3h54.9Z"/>
      <path class="cls-1" d="M379,944.4c-6.5-3.8-11.3-9.2-14.5-16.2-3.2-7-4.8-15.3-4.8-24.9v-50h11.5v50c0,11.5,2.6,20.4,7.9,26.7,5.3,6.4,13.1,9.5,23.7,9.5s18.4-3.2,23.6-9.5c5.2-6.4,7.8-15.3,7.8-26.7v-50h11.5v50c0,9.7-1.6,18-4.8,24.9-3.2,7-8,12.4-14.5,16.2-6.5,3.8-14.3,5.7-23.6,5.7s-17.3-1.9-23.7-5.7Z"/>
      <path class="cls-1" d="M478.6,876v71.8h-11.3v-94.6h12.2l40.1,82.4,40-82.4h12.2v94.6h-11.3v-71.7l-34.8,71.7h-12.2l-34.8-71.8Z"/>
      <path class="cls-1" d="M673.9,947.8l-13.2-29.2h-48l-13.2,29.2h-12l43-94.6h12.5l43,94.6h-12ZM656.4,908.8l-19.8-43.6-19.5,43.6h39.3Z"/>
      <path class="cls-1" d="M781.3,947.8h-11.3l-56.9-76.8v76.8h-11.3v-94.6c-.1,0,11,0,11,0l57.2,77v-77h11.5v94.6Z"/>
      <path class="cls-1" d="M805.5,947.8v-94.6h11.3v94.6h-11.3Z"/>
      <path class="cls-1" d="M891.6,865.1c-4.1-1.9-9.9-2.9-17.6-2.9s-10.8.6-14.8,1.9c-4,1.3-7,3-9,5.2-2,2.2-3,4.6-3,7.3s.7,5.3,2.1,7.2c1.4,2,3.5,3.5,6.2,4.7,2.7,1.2,6,2.2,10,2.9l17.3,3.4c10.2,1.8,17.7,4.9,22.5,9.2,4.8,4.4,7.2,9.8,7.2,16.4s-1.4,9.9-4.2,14.2c-2.8,4.3-7.1,7.8-13,10.4-5.8,2.6-13,3.9-21.6,3.9s-19.9-1.8-26.2-5.5c-6.3-3.7-10.3-8.4-12.1-14.3l10.8-3.2c1.3,3.5,4.1,6.5,8.4,8.8,4.3,2.3,10.7,3.5,19.3,3.5s11.1-.8,15.1-2.4c4.1-1.6,7.1-3.7,9.1-6.5,2-2.7,3-5.7,3-9s-.7-4.9-2.1-7c-1.4-2.1-3.5-3.8-6.5-5.2-2.9-1.4-6.6-2.6-11-3.4l-16.9-3.2c-10-1.9-17.4-4.8-22-8.8-4.6-4-7-9.5-7-16.6s1.5-8.9,4.4-12.7c2.9-3.8,7.3-6.8,13-9.1,5.8-2.3,12.8-3.4,21-3.4s18.4,1.7,24.4,5.1c5.9,3.4,10,7.7,12.3,12.8l-11,3.2c-1.4-3.1-4.2-5.5-8.2-7.5Z"/>
      <path class="cls-1" d="M963.8,863.8v84h-11.3v-84h-33.1v-10.6h77.8v10.6h-33.4Z"/>
      <path class="cls-1" d="M1009.7,947.8v-94.6h11.3v94.6h-11.3Z"/>
      <path class="cls-1" d="M1106.2,943.7c-6.5,3.9-14.1,5.8-23,5.8s-17.3-2-23.9-6.1c-6.5-4.1-11.5-9.8-14.8-17.2-3.3-7.4-5-16-5-25.9s1.7-18.3,5-25.7c3.3-7.4,8.3-13.2,14.8-17.3,6.5-4.1,14.5-6.2,23.9-6.2s16.4,1.9,22.9,5.8c6.5,3.9,11.4,9.2,15,16l-11.5,3c-1.8-2.9-4-5.4-6.5-7.5-2.5-2.1-5.4-3.7-8.7-4.9-3.3-1.2-7-1.8-11.1-1.8-7.1,0-13,1.6-17.8,4.9-4.8,3.3-8.4,7.8-10.8,13.5-2.4,5.8-3.6,12.5-3.6,20.1s1.2,14.5,3.6,20.3c2.4,5.8,6,10.3,10.8,13.5,4.8,3.3,10.8,4.9,17.8,4.9s7.8-.6,11.2-1.8c3.3-1.2,6.3-2.9,8.8-5,2.5-2.2,4.7-4.7,6.5-7.5l11.3,2.9c-3.4,6.9-8.4,12.3-14.8,16.1Z"/>
      <path class="cls-1" d="M322.4,1000.5c-4.1-1.9-9.9-2.9-17.6-2.9s-10.8.6-14.8,1.9c-4,1.3-7,3-9,5.2-2,2.2-3,4.6-3,7.3s.7,5.3,2.1,7.2c1.4,2,3.5,3.5,6.2,4.7,2.7,1.2,6,2.2,10,2.9l17.3,3.4c10.2,1.8,17.7,4.9,22.5,9.2,4.8,4.4,7.2,9.8,7.2,16.4s-1.4,9.9-4.2,14.2c-2.8,4.3-7.1,7.8-13,10.4-5.8,2.6-13,3.9-21.6,3.9s-19.9-1.8-26.2-5.5c-6.3-3.7-10.3-8.4-12.1-14.3l10.8-3.2c1.3,3.5,4.1,6.5,8.4,8.8,4.3,2.3,10.7,3.5,19.3,3.5s11.1-.8,15.1-2.4c4.1-1.6,7.1-3.7,9.1-6.5,2-2.7,3-5.7,3-9s-.7-4.9-2.1-7c-1.4-2.1-3.5-3.8-6.5-5.2-2.9-1.4-6.6-2.6-11-3.4l-16.9-3.2c-10-1.9-17.4-4.8-22-8.8-4.6-4-7-9.5-7-16.6s1.5-8.9,4.4-12.7c2.9-3.8,7.3-6.8,13-9.1,5.8-2.3,12.8-3.4,21-3.4s18.4,1.7,24.4,5.1c5.9,3.4,10,7.7,12.3,12.8l-11,3.2c-1.4-3.1-4.2-5.5-8.2-7.5Z"/>
      <path class="cls-1" d="M394.6,999.2v84h-11.3v-84h-33.1v-10.6h77.8v10.6h-33.4Z"/>
      <path class="cls-1" d="M440.5,988.6h38.6c13.4,0,22.6,2.5,27.7,7.5,5.1,5,7.6,12.3,7.6,21.9s-1.9,14.9-5.7,19.8c-3.8,4.9-10.5,7.9-20.3,9l23.7,36.4h-12.5l-23.4-35.8h-24.4v35.8h-11.3v-94.6ZM500.9,1007.7c-1.3-2.8-3.8-5-7.4-6.7-3.6-1.7-8.9-2.5-15.8-2.5h-25.9v39h25.9c6.9,0,12.1-.8,15.8-2.5,3.6-1.7,6.1-3.9,7.4-6.7,1.3-2.8,1.9-6.2,1.9-10.3s-.6-7.5-1.9-10.3Z"/>
      <path class="cls-1" d="M551.7,1079.8c-6.5-3.8-11.3-9.2-14.5-16.2-3.2-7-4.8-15.3-4.8-24.9v-50h11.5v50c0,11.5,2.6,20.4,7.9,26.7,5.3,6.4,13.1,9.5,23.7,9.5s18.4-3.2,23.6-9.5c5.2-6.4,7.8-15.3,7.8-26.7v-50h11.5v50c0,9.7-1.6,18-4.8,24.9-3.2,7-8,12.4-14.5,16.2-6.5,3.8-14.3,5.7-23.6,5.7s-17.3-1.9-23.7-5.7Z"/>
      <path class="cls-1" d="M700.9,1079.1c-6.5,3.9-14.1,5.8-23,5.8s-17.3-2-23.9-6.1c-6.5-4.1-11.5-9.8-14.8-17.2-3.3-7.4-5-16-5-25.9s1.7-18.3,5-25.7c3.3-7.4,8.3-13.2,14.8-17.3,6.5-4.1,14.5-6.2,23.9-6.2s16.4,1.9,22.9,5.8c6.5,3.9,11.4,9.2,15,16l-11.5,3c-1.8-2.9-4-5.4-6.5-7.5-2.5-2.1-5.4-3.7-8.7-4.9-3.3-1.2-7-1.8-11.1-1.8-7.1,0-13,1.6-17.8,4.9-4.8,3.3-8.4,7.8-10.8,13.5-2.4,5.8-3.6,12.5-3.6,20.1s1.2,14.5,3.6,20.3c2.4,5.8,6,10.3,10.8,13.5,4.8,3.3,10.8,4.9,17.8,4.9s7.8-.6,11.2-1.8c3.3-1.2,6.3-2.9,8.8-5,2.5-2.2,4.7-4.7,6.5-7.5l11.3,2.9c-3.4,6.9-8.4,12.3-14.8,16.1Z"/>
      <path class="cls-1" d="M770.5,999.2v84h-11.3v-84h-33.1v-10.6h77.8v10.6h-33.4Z"/>
      <path class="cls-1" d="M834.7,1079.8c-6.5-3.8-11.3-9.2-14.5-16.2-3.2-7-4.8-15.3-4.8-24.9v-50h11.5v50c0,11.5,2.6,20.4,7.9,26.7,5.3,6.4,13.1,9.5,23.7,9.5s18.4-3.2,23.6-9.5c5.2-6.4,7.8-15.3,7.8-26.7v-50h11.5v50c0,9.7-1.6,18-4.8,24.9-3.2,7-8,12.4-14.5,16.2-6.5,3.8-14.3,5.7-23.6,5.7s-17.3-1.9-23.7-5.7Z"/>
      <path class="cls-1" d="M922.9,988.6h38.6c13.4,0,22.6,2.5,27.7,7.5,5.1,5,7.6,12.3,7.6,21.9s-1.9,14.9-5.7,19.8c-3.8,4.9-10.5,7.9-20.3,9l23.7,36.4h-12.5l-23.4-35.8h-24.4v35.8h-11.3v-94.6ZM983.3,1007.7c-1.3-2.8-3.8-5-7.4-6.7-3.6-1.7-8.9-2.5-15.8-2.5h-25.9v39h25.9c6.9,0,12.1-.8,15.8-2.5,3.6-1.7,6.1-3.9,7.4-6.7,1.3-2.8,1.9-6.2,1.9-10.3s-.6-7.5-1.9-10.3Z"/>
      <path class="cls-1" d="M1028.6,999.2v29.7h47.9v9.9h-47.9v33.8h53.6v10.6h-64.9v-94.6h62.1v10.6h-50.8Z"/>
      <path class="cls-1" d="M1095.5,1082.2c-1.5-1.5-2.3-3.4-2.3-5.6s.8-4,2.3-5.5c1.5-1.5,3.4-2.2,5.6-2.2s3.9.7,5.5,2.2c1.6,1.5,2.4,3.3,2.4,5.5s-.8,4.1-2.4,5.6c-1.6,1.5-3.4,2.3-5.5,2.3s-4.1-.8-5.6-2.3Z"/>
    </g>
    <g>
      <path class="cls-2" d="M493,138.2h-7l-35.4-47.8v47.8h-7v-58.9c0,0,6.9,0,6.9,0l35.6,47.9v-47.9h7.1v58.9Z"/>
      <path class="cls-2" d="M556.6,138.2l-8.2-18.2h-29.9l-8.2,18.2h-7.5l26.8-58.9h7.8l26.8,58.9h-7.5ZM545.7,114l-12.3-27.1-12.1,27.1h24.4Z"/>
      <path class="cls-2" d="M589.9,85.9v52.3h-7v-52.3h-20.6v-6.6h48.4v6.6h-20.8Z"/>
      <path class="cls-2" d="M662.5,138.2l-8.2-18.2h-29.9l-8.2,18.2h-7.5l26.8-58.9h7.8l26.8,58.9h-7.5ZM651.6,114l-12.3-27.1-12.1,27.1h24.4Z"/>
      <path class="cls-2" d="M737.9,86.7c-2.5-1.2-6.2-1.8-10.9-1.8s-6.7.4-9.2,1.2c-2.5.8-4.4,1.9-5.6,3.3-1.2,1.4-1.9,2.9-1.9,4.5s.4,3.3,1.3,4.5c.9,1.2,2.2,2.2,3.8,2.9,1.7.7,3.7,1.4,6.2,1.8l10.8,2.1c6.4,1.1,11,3,14,5.8,3,2.7,4.5,6.1,4.5,10.2s-.9,6.2-2.6,8.8c-1.8,2.7-4.4,4.8-8.1,6.5-3.6,1.6-8.1,2.5-13.5,2.5s-12.4-1.1-16.3-3.4c-3.9-2.3-6.4-5.2-7.5-8.9l6.7-2c.8,2.2,2.6,4,5.2,5.5,2.6,1.5,6.6,2.2,12,2.2s6.9-.5,9.4-1.5,4.4-2.3,5.7-4c1.2-1.7,1.9-3.6,1.9-5.6s-.4-3-1.3-4.3c-.9-1.3-2.2-2.4-4-3.3-1.8-.9-4.1-1.6-6.8-2.1l-10.5-2c-6.2-1.2-10.8-3-13.7-5.5-2.9-2.5-4.3-5.9-4.3-10.3s.9-5.5,2.7-7.9c1.8-2.3,4.5-4.2,8.1-5.7s8-2.1,13.1-2.1,11.5,1.1,15.2,3.2c3.7,2.1,6.2,4.8,7.7,8l-6.9,2c-.9-1.9-2.6-3.4-5.1-4.6Z"/>
      <path class="cls-2" d="M810,138.2l-8.2-18.2h-29.9l-8.2,18.2h-7.5l26.8-58.9h7.8l26.8,58.9h-7.5ZM799.1,114l-12.3-27.1-12.1,27.1h24.4Z"/>
      <path class="cls-2" d="M876.8,138.2h-7l-35.4-47.8v47.8h-7v-58.9c0,0,6.9,0,6.9,0l35.6,47.9v-47.9h7.1v58.9Z"/>
      <path class="cls-2" d="M923.3,86.7c-2.5-1.2-6.2-1.8-10.9-1.8s-6.7.4-9.2,1.2c-2.5.8-4.4,1.9-5.6,3.3-1.2,1.4-1.9,2.9-1.9,4.5s.4,3.3,1.3,4.5c.9,1.2,2.2,2.2,3.8,2.9,1.7.7,3.7,1.4,6.2,1.8l10.8,2.1c6.4,1.1,11,3,14,5.8,3,2.7,4.5,6.1,4.5,10.2s-.9,6.2-2.6,8.8c-1.8,2.7-4.4,4.8-8.1,6.5-3.6,1.6-8.1,2.5-13.5,2.5s-12.4-1.1-16.3-3.4c-3.9-2.3-6.4-5.2-7.5-8.9l6.7-2c.8,2.2,2.6,4,5.2,5.5,2.6,1.5,6.6,2.2,12,2.2s6.9-.5,9.4-1.5,4.4-2.3,5.7-4c1.2-1.7,1.9-3.6,1.9-5.6s-.4-3-1.3-4.3c-.9-1.3-2.2-2.4-4-3.3-1.8-.9-4.1-1.6-6.8-2.1l-10.5-2c-6.2-1.2-10.8-3-13.7-5.5-2.9-2.5-4.3-5.9-4.3-10.3s.9-5.5,2.7-7.9c1.8-2.3,4.5-4.2,8.1-5.7s8-2.1,13.1-2.1,11.5,1.1,15.2,3.2c3.7,2.1,6.2,4.8,7.7,8l-6.9,2c-.9-1.9-2.6-3.4-5.1-4.6Z"/>
      <path class="cls-2" d="M499.7,174.4v52.3h-7v-52.3h-20.6v-6.6h48.4v6.6h-20.8Z"/>
      <path class="cls-2" d="M545.5,226.6v-28.6l-20.9-30.2h7.8l16.5,24.3,16.5-24.3h8l-21,30.2v28.6h-7Z"/>
      <path class="cls-2" d="M623.4,172.4c3.2,3.1,4.7,7.7,4.7,13.6s-1.6,10.4-4.7,13.6c-3.2,3.2-8.9,4.7-17.2,4.7h-16.9v22.3h-7v-58.9h24c8.3,0,14.1,1.6,17.2,4.7ZM589.2,173.9v24.3h16.1c4.3,0,7.6-.5,9.8-1.6,2.3-1,3.8-2.4,4.6-4.1.8-1.7,1.2-3.9,1.2-6.4s-.4-4.7-1.2-6.4c-.8-1.7-2.3-3.1-4.6-4.1-2.3-1-5.5-1.6-9.8-1.6h-16.1Z"/>
      <path class="cls-2" d="M647.9,174.4v18.5h29.8v6.2h-29.8v21.1h33.4v6.6h-40.4v-58.9h38.6v6.6h-31.6Z"/>
      <path class="cls-2" d="M698,174.4v18.5h29.5v6.2h-29.5v27.7h-7v-58.9h38.6v6.6h-31.6Z"/>
      <path class="cls-2" d="M788.4,226.6l-8.2-18.2h-29.9l-8.2,18.2h-7.5l26.8-58.9h7.8l26.8,58.9h-7.5ZM777.6,202.4l-12.3-27.1-12.1,27.1h24.4Z"/>
      <path class="cls-2" d="M842.7,224.1c-4,2.4-8.8,3.6-14.3,3.6s-10.8-1.3-14.9-3.8c-4.1-2.5-7.2-6.1-9.2-10.7-2.1-4.6-3.1-10-3.1-16.1s1-11.4,3.1-16c2.1-4.6,5.2-8.2,9.2-10.7,4.1-2.6,9-3.8,14.9-3.8s10.2,1.2,14.2,3.6c4,2.4,7.1,5.7,9.3,9.9l-7.1,1.9c-1.1-1.8-2.5-3.3-4.1-4.6-1.6-1.3-3.4-2.3-5.4-3.1-2.1-.7-4.4-1.1-6.9-1.1-4.4,0-8.1,1-11.1,3-3,2-5.2,4.8-6.7,8.4-1.5,3.6-2.2,7.8-2.2,12.5s.7,9,2.2,12.6c1.5,3.6,3.7,6.4,6.7,8.4,3,2,6.7,3,11.1,3s4.9-.4,7-1.1c2.1-.7,3.9-1.8,5.5-3.1,1.6-1.3,2.9-2.9,4.1-4.7l7,1.8c-2.1,4.3-5.2,7.6-9.2,10Z"/>
      <path class="cls-2" d="M870.8,174.4v18.5h29.8v6.2h-29.8v21.1h33.4v6.6h-40.4v-58.9h38.6v6.6h-31.6Z"/>
    </g>
    <g>
      <path class="cls-2" d="M546.5,1170.9c3.2,3.1,4.7,7.7,4.7,13.6s-1.6,10.4-4.7,13.6c-3.2,3.2-8.9,4.7-17.2,4.7h-16.9v22.3h-7v-58.9h24c8.3,0,14.1,1.6,17.2,4.7ZM512.3,1172.4v24.3h16.1c4.3,0,7.6-.5,9.8-1.6,2.3-1,3.8-2.4,4.6-4.1.8-1.7,1.2-3.9,1.2-6.4s-.4-4.7-1.2-6.4c-.8-1.7-2.3-3.1-4.6-4.1-2.3-1-5.5-1.6-9.8-1.6h-16.1Z"/>
      <path class="cls-2" d="M604.4,1225.1l-8.2-18.2h-29.9l-8.2,18.2h-7.5l26.8-58.9h7.8l26.8,58.9h-7.5ZM593.6,1200.9l-12.3-27.1-12.1,27.1h24.4Z"/>
      <path class="cls-2" d="M652.2,1173.7c-2.5-1.2-6.2-1.8-10.9-1.8s-6.7.4-9.2,1.2-4.4,1.9-5.6,3.3c-1.2,1.4-1.9,2.9-1.9,4.5s.4,3.3,1.3,4.5c.9,1.2,2.2,2.2,3.8,2.9,1.7.7,3.7,1.4,6.2,1.8l10.8,2.1c6.4,1.1,11,3,14,5.8,3,2.7,4.5,6.1,4.5,10.2s-.9,6.2-2.6,8.8c-1.8,2.7-4.4,4.8-8.1,6.5-3.6,1.6-8.1,2.5-13.5,2.5s-12.4-1.1-16.3-3.4c-3.9-2.3-6.4-5.2-7.5-8.9l6.7-2c.8,2.2,2.6,4,5.2,5.5,2.6,1.5,6.6,2.2,12,2.2s6.9-.5,9.4-1.5c2.5-1,4.4-2.3,5.7-4,1.2-1.7,1.9-3.6,1.9-5.6s-.4-3-1.3-4.3c-.9-1.3-2.2-2.4-4-3.3-1.8-.9-4.1-1.6-6.8-2.1l-10.5-2c-6.2-1.2-10.8-3-13.7-5.5-2.9-2.5-4.3-5.9-4.3-10.3s.9-5.5,2.7-7.9c1.8-2.3,4.5-4.2,8.1-5.7,3.6-1.4,8-2.1,13.1-2.1s11.5,1.1,15.2,3.2c3.7,2.1,6.2,4.8,7.7,8l-6.9,2c-.9-1.9-2.6-3.4-5.1-4.6Z"/>
      <path class="cls-2" d="M708.1,1173.7c-2.5-1.2-6.2-1.8-10.9-1.8s-6.7.4-9.2,1.2-4.4,1.9-5.6,3.3c-1.2,1.4-1.9,2.9-1.9,4.5s.4,3.3,1.3,4.5c.9,1.2,2.2,2.2,3.8,2.9,1.7.7,3.7,1.4,6.2,1.8l10.8,2.1c6.4,1.1,11,3,14,5.8,3,2.7,4.5,6.1,4.5,10.2s-.9,6.2-2.6,8.8c-1.8,2.7-4.4,4.8-8.1,6.5-3.6,1.6-8.1,2.5-13.5,2.5s-12.4-1.1-16.3-3.4c-3.9-2.3-6.4-5.2-7.5-8.9l6.7-2c.8,2.2,2.6,4,5.2,5.5,2.6,1.5,6.6,2.2,12,2.2s6.9-.5,9.4-1.5c2.5-1,4.4-2.3,5.7-4s1.9-3.6,1.9-5.6-.4-3-1.3-4.3c-.9-1.3-2.2-2.4-4-3.3-1.8-.9-4.1-1.6-6.8-2.1l-10.5-2c-6.2-1.2-10.8-3-13.7-5.5-2.9-2.5-4.3-5.9-4.3-10.3s.9-5.5,2.7-7.9c1.8-2.3,4.5-4.2,8.1-5.7,3.6-1.4,8-2.1,13.1-2.1s11.5,1.1,15.2,3.2c3.7,2.1,6.2,4.8,7.7,8l-6.9,2c-.9-1.9-2.6-3.4-5.1-4.6Z"/>
      <path class="cls-2" d="M732.5,1225.1v-58.9h7v58.9h-7Z"/>
      <path class="cls-2" d="M764.3,1222.2c-4.4-2.6-7.7-6.1-9.9-10.7-2.2-4.6-3.3-9.9-3.3-15.9s1.1-11.3,3.3-15.8c2.2-4.5,5.5-8.1,9.9-10.7s9.8-3.9,16.1-3.9,11.7,1.3,16.1,3.9,7.7,6.2,9.9,10.7c2.2,4.6,3.3,9.8,3.3,15.8s-1.1,11.4-3.3,15.9c-2.2,4.5-5.5,8.1-9.9,10.7-4.4,2.6-9.7,3.8-16.1,3.8s-11.7-1.3-16.1-3.8ZM792.8,1216.4c3.3-2,5.8-4.8,7.4-8.3,1.6-3.6,2.5-7.7,2.5-12.5s-.8-8.8-2.5-12.4c-1.6-3.6-4.1-6.3-7.4-8.3-3.3-2-7.4-3-12.3-3s-9.1,1-12.4,3c-3.3,2-5.8,4.8-7.5,8.3-1.6,3.6-2.5,7.7-2.5,12.4s.8,8.9,2.5,12.5c1.6,3.6,4.1,6.3,7.5,8.3,3.3,2,7.5,3,12.4,3s9-1,12.3-3Z"/>
      <path class="cls-2" d="M870.8,1225.1h-7l-35.4-47.8v47.8h-7v-58.9c0,0,6.9,0,6.9,0l35.6,47.9v-47.9h7.1v58.9Z"/>
      <path class="cls-2" d="M436,1305.9c-1.8,2.7-4.4,4.8-7.8,6.4-3.4,1.5-7.5,2.3-12.2,2.3s-9.1-.8-12.5-2.4c-3.4-1.6-6-3.7-7.7-6.5-1.7-2.7-2.6-5.9-2.6-9.4s.8-6.3,2.5-8.8c1.7-2.5,4-4.4,7.1-5.8-2.6-1.3-4.5-3-5.9-5.1-1.4-2.1-2.1-4.5-2.1-7.2s.8-5.9,2.5-8.3c1.7-2.4,4.1-4.4,7.2-5.8,3.2-1.4,7-2.1,11.4-2.1s5.5.3,7.9.9c2.4.6,4.5,1.5,6.2,2.6,1.8,1.1,3.2,2.5,4.3,4.1l-6.4,3.5c-1.1-1.5-2.6-2.6-4.7-3.4-2.1-.8-4.5-1.2-7.4-1.2-4.5,0-7.9.9-10.3,2.7-2.4,1.8-3.6,4.2-3.6,7.2s.5,3.4,1.6,4.8c1,1.4,2.6,2.6,4.7,3.4,2.1.8,4.7,1.2,7.6,1.2h29.6v6.1h-6.9v11.2c0,3.5-1,6.6-2.7,9.3ZM402.1,1302.3c1.2,1.7,3,3,5.4,4,2.3,1,5.2,1.5,8.5,1.5s7.8-1,10.9-2.9c3.1-1.9,4.7-4.7,4.8-8.4v-11.2h-15.7c-5,0-8.9,1.1-11.6,3.2-2.7,2.1-4.1,4.8-4.1,8.1s.6,4,1.8,5.6Z"/>
      <path class="cls-2" d="M521.9,1259.3c3.2,3.1,4.7,7.7,4.7,13.6s-1.6,10.4-4.7,13.6c-3.2,3.2-8.9,4.7-17.2,4.7h-16.9v22.3h-7v-58.9h24c8.3,0,14.1,1.6,17.2,4.7ZM487.8,1260.8v24.3h16.1c4.3,0,7.6-.5,9.8-1.6,2.3-1,3.8-2.4,4.6-4.1.8-1.7,1.2-3.9,1.2-6.4s-.4-4.7-1.2-6.4c-.8-1.7-2.3-3.1-4.6-4.1-2.3-1-5.5-1.6-9.8-1.6h-16.1Z"/>
      <path class="cls-2" d="M539.4,1254.7h24c8.3,0,14.1,1.6,17.2,4.7,3.2,3.1,4.7,7.7,4.7,13.6s-1.2,9.3-3.5,12.3c-2.3,3-6.6,4.9-12.6,5.6l14.7,22.7h-7.8l-14.5-22.3h-15.2v22.3h-7v-58.9ZM577,1266.5c-.8-1.7-2.3-3.1-4.6-4.1-2.3-1-5.5-1.6-9.8-1.6h-16.1v24.3h16.1c4.3,0,7.6-.5,9.8-1.6,2.3-1,3.8-2.4,4.6-4.1.8-1.7,1.2-3.9,1.2-6.4s-.4-4.7-1.2-6.4Z"/>
      <path class="cls-2" d="M605.2,1261.3v18.5h29.8v6.2h-29.8v21.1h33.4v6.6h-40.4v-58.9h38.6v6.6h-31.6Z"/>
      <path class="cls-2" d="M686.1,1311c-4,2.4-8.8,3.6-14.3,3.6s-10.8-1.3-14.9-3.8c-4.1-2.5-7.2-6.1-9.2-10.7-2.1-4.6-3.1-10-3.1-16.1s1-11.4,3.1-16c2.1-4.6,5.2-8.2,9.2-10.7,4.1-2.6,9-3.8,14.9-3.8s10.2,1.2,14.2,3.6c4,2.4,7.1,5.7,9.3,9.9l-7.1,1.9c-1.1-1.8-2.5-3.3-4.1-4.6-1.6-1.3-3.4-2.3-5.4-3.1-2.1-.7-4.4-1.1-6.9-1.1-4.4,0-8.1,1-11.1,3-3,2-5.2,4.8-6.7,8.4-1.5,3.6-2.2,7.8-2.2,12.5s.7,9,2.2,12.6c1.5,3.6,3.7,6.4,6.7,8.4,3,2,6.7,3,11.1,3s4.9-.4,7-1.1c2.1-.7,3.9-1.8,5.5-3.1,1.6-1.3,2.9-2.9,4.1-4.7l7,1.8c-2.1,4.3-5.2,7.6-9.2,10Z"/>
      <path class="cls-2" d="M707.1,1313.5v-58.9h7v58.9h-7Z"/>
      <path class="cls-2" d="M760.7,1262.1c-2.5-1.2-6.2-1.8-10.9-1.8s-6.7.4-9.2,1.2c-2.5.8-4.4,1.9-5.6,3.3-1.2,1.4-1.9,2.9-1.9,4.5s.4,3.3,1.3,4.5c.9,1.2,2.2,2.2,3.8,2.9,1.7.7,3.7,1.4,6.2,1.8l10.8,2.1c6.4,1.1,11,3,14,5.8,3,2.7,4.5,6.1,4.5,10.2s-.9,6.2-2.6,8.8c-1.8,2.7-4.4,4.8-8.1,6.5-3.6,1.6-8.1,2.5-13.5,2.5s-12.4-1.1-16.3-3.4c-3.9-2.3-6.4-5.2-7.5-8.9l6.7-2c.8,2.2,2.6,4,5.2,5.5,2.6,1.5,6.6,2.2,12,2.2s6.9-.5,9.4-1.5,4.4-2.3,5.7-4c1.2-1.7,1.9-3.6,1.9-5.6s-.4-3-1.3-4.3c-.9-1.3-2.2-2.4-4-3.3-1.8-.9-4.1-1.6-6.8-2.1l-10.5-2c-6.2-1.2-10.8-3-13.7-5.5-2.9-2.5-4.3-5.9-4.3-10.3s.9-5.5,2.7-7.9c1.8-2.3,4.5-4.2,8.1-5.7,3.6-1.4,8-2.1,13.1-2.1s11.5,1.1,15.2,3.2c3.7,2.1,6.2,4.8,7.7,8l-6.9,2c-.9-1.9-2.6-3.4-5.1-4.6Z"/>
      <path class="cls-2" d="M816.5,1262.1c-2.5-1.2-6.2-1.8-10.9-1.8s-6.7.4-9.2,1.2c-2.5.8-4.4,1.9-5.6,3.3-1.2,1.4-1.9,2.9-1.9,4.5s.4,3.3,1.3,4.5c.9,1.2,2.2,2.2,3.8,2.9,1.7.7,3.7,1.4,6.2,1.8l10.8,2.1c6.4,1.1,11,3,14,5.8,3,2.7,4.5,6.1,4.5,10.2s-.9,6.2-2.6,8.8c-1.8,2.7-4.4,4.8-8.1,6.5-3.6,1.6-8.1,2.5-13.5,2.5s-12.4-1.1-16.3-3.4c-3.9-2.3-6.4-5.2-7.5-8.9l6.7-2c.8,2.2,2.6,4,5.2,5.5,2.6,1.5,6.6,2.2,12,2.2s6.9-.5,9.4-1.5,4.4-2.3,5.7-4c1.2-1.7,1.9-3.6,1.9-5.6s-.4-3-1.3-4.3c-.9-1.3-2.2-2.4-4-3.3-1.8-.9-4.1-1.6-6.8-2.1l-10.5-2c-6.2-1.2-10.8-3-13.7-5.5-2.9-2.5-4.3-5.9-4.3-10.3s.9-5.5,2.7-7.9c1.8-2.3,4.5-4.2,8.1-5.7,3.6-1.4,8-2.1,13.1-2.1s11.5,1.1,15.2,3.2c3.7,2.1,6.2,4.8,7.7,8l-6.9,2c-.9-1.9-2.6-3.4-5.1-4.6Z"/>
      <path class="cls-2" d="M840.9,1313.5v-58.9h7v58.9h-7Z"/>
      <path class="cls-2" d="M872.8,1310.6c-4.4-2.6-7.7-6.1-9.9-10.7-2.2-4.6-3.3-9.9-3.3-15.9s1.1-11.3,3.3-15.8c2.2-4.5,5.5-8.1,9.9-10.7,4.4-2.6,9.8-3.9,16.1-3.9s11.7,1.3,16.1,3.9c4.4,2.6,7.7,6.2,9.9,10.7,2.2,4.6,3.3,9.8,3.3,15.8s-1.1,11.4-3.3,15.9c-2.2,4.5-5.5,8.1-9.9,10.7-4.4,2.6-9.7,3.8-16.1,3.8s-11.7-1.3-16.1-3.8ZM901.2,1304.8c3.3-2,5.8-4.8,7.5-8.3,1.6-3.6,2.5-7.7,2.5-12.5s-.8-8.8-2.5-12.4c-1.6-3.6-4.1-6.3-7.5-8.3-3.3-2-7.4-3-12.3-3s-9.1,1-12.4,3c-3.3,2-5.8,4.8-7.4,8.3-1.6,3.6-2.5,7.7-2.5,12.4s.8,8.9,2.5,12.5c1.6,3.6,4.1,6.3,7.4,8.3s7.5,3,12.4,3,9-1,12.3-3Z"/>
      <path class="cls-2" d="M979.3,1313.5h-7l-35.4-47.8v47.8h-7v-58.9c0,0,6.9,0,6.9,0l35.6,47.9v-47.9h7.1v58.9Z"/>
    </g>
  </g>
  <g>
    <polygon class="cls-2" points="1120.2 451.2 1152.7 474.9 1193 474.9 1205.4 513.1 1237.9 536.7 1225.5 575 1237.9 613.2 1205.4 636.8 1193 675 1152.7 675 1120.2 698.7 1087.7 675 1047.5 675 1035.1 636.8 1002.6 613.2 1015 575 1002.6 536.7 1035.1 513.1 1047.5 474.9 1087.7 474.9 1120.2 451.2"/>
    <g>
      <path class="cls-4" d="M1054.7,576.8l1.7,6.9,18.4-4.5,2.4,9.8-18.4,4.5,3.6,14.9-12.5,3-10.2-42,32.1-7.8,2.6,10.5-19.6,4.7Z"/>
      <path class="cls-4" d="M1075.5,560.7l23.6-5.7c5.4-1.3,9.7-1,12.8,1.1s5.3,5.5,6.4,10.3c.9,3.8.9,7-.1,9.7-1,2.7-3.1,4.9-6.3,6.6l13.3,10.5-13.1,3.2-12.6-10-4.3,1,3,12.4-12.5,3-10.1-42ZM1105.1,566.4c-.4-.6-1-.9-1.8-1s-2.1.1-3.8.5l-9.1,2.2,2.2,9.2,9.1-2.2c1.7-.4,2.9-.8,3.6-1.3.7-.4,1.1-1,1.2-1.7,0-.7,0-1.7-.4-3-.4-1.3-.8-2.2-1.1-2.8Z"/>
      <path class="cls-4" d="M1133.9,557.6l1.3,5.2,20.4-4.9,2.4,9.8-20.4,4.9,1.5,6,22.3-5.4,2.6,10.5-34.7,8.4-10.2-42,34.1-8.2,2.6,10.5-21.6,5.1Z"/>
      <path class="cls-4" d="M1171.9,548.4l1.3,5.2,20.4-4.9,2.4,9.8-20.4,4.9,1.5,6,22.3-5.4,2.6,10.5-34.7,8.4-10.2-42,34.1-8.2,2.6,10.5-21.6,5.1Z"/>
    </g>
  </g>
</svg>