<?xml version="1.0" encoding="UTF-8"?>
<svg id="Capa_1" xmlns="http://www.w3.org/2000/svg" version="1.1" viewBox="0 0 1400 1400">
  <!-- Generator: Adobe Illustrator 29.5.1, SVG Export Plug-In . SVG Version: 2.1.0 Build 141)  -->
  <defs>
    <style>
      .st0 {
        fill: #f2f2f2;
      }

      .st1 {
        fill: #35d3d2;
      }

      .st2 {
        fill: #181818;
      }
    </style>
  </defs>
  <g id="Capa_2">
    <rect class="st0" x="0" y="0" width="1400" height="1400"/>
  </g>
  <polygon class="st1" points="700 8.9 881.3 141.5 1106.2 141.5 1175.6 355 1356.9 486.6 1288.5 700 1356.9 913.4 1175.6 1046.1 1106.2 1259.5 881.3 1259.5 700 1391.1 518.7 1259.5 293.8 1259.5 224.4 1046.1 43.1 913.4 112.5 700 43.1 486.6 224.4 355 293.8 141.5 518.7 141.5 700 8.9"/>
  <g>
    <g>
      <path class="st0" d="M557.7,207.5v42.8h-5.9l-25.4-33.6v33.6h-5.9v-42.8h5.8l25.5,33.7v-33.7h6Z"/>
      <path class="st0" d="M609.6,250.2h-6.3l-5.8-13h-21.2l-5.8,13h-6.2l19.4-42.8h6.5l19.4,42.8ZM578.6,232.2h16.7l-8.4-18.5-8.3,18.5Z"/>
      <path class="st0" d="M643.9,213h-14.8v37.3h-5.9v-37.3h-14.8v-5.5h35.6v5.5Z"/>
      <path class="st0" d="M687.7,250.2h-6.3l-5.8-13h-21.2l-5.8,13h-6.2l19.4-42.8h6.5l19.4,42.8ZM656.7,232.2h16.7l-8.4-18.5-8.3,18.5Z"/>
      <path class="st0" d="M740.3,217.1c-.2-.8-.7-1.5-1.5-2.3-.8-.7-2-1.3-3.5-1.8-1.6-.5-3.7-.7-6.4-.7s-5.1.3-6.8.8c-1.7.6-3,1.3-3.7,2.2s-1.1,1.9-1.1,2.9.3,2.2.8,3c.6.8,1.4,1.5,2.6,2,1.1.5,2.6.9,4.3,1.2l8.1,1.6c3.3.6,5.9,1.5,7.9,2.7,2,1.1,3.4,2.5,4.3,4,.9,1.6,1.3,3.2,1.3,5.1s-.3,3.1-1,4.6c-.7,1.5-1.7,2.9-3.1,4.1-1.4,1.3-3.2,2.2-5.5,3-2.2.7-5,1.1-8.2,1.1s-7-.4-9.4-1.3c-2.4-.9-4.3-2-5.6-3.4-1.3-1.4-2.2-2.9-2.6-4.6l5.7-1.4c.2.9.7,1.7,1.5,2.5.8.8,2,1.5,3.7,2,1.7.5,3.9.8,6.8.8s5.1-.4,6.9-1.1c1.7-.7,3-1.7,3.7-2.8.8-1.1,1.1-2.3,1.1-3.5s-.3-1.8-.9-2.7c-.6-.8-1.5-1.6-2.7-2.2-1.2-.6-2.8-1.2-4.8-1.6l-7.8-1.6c-3.1-.6-5.6-1.4-7.6-2.4-1.9-1-3.3-2.3-4.2-3.8-.9-1.5-1.3-3.3-1.3-5.4s.3-2.9,1-4.2c.7-1.4,1.7-2.6,3.1-3.7,1.4-1.1,3.2-1.9,5.5-2.6,2.2-.6,4.9-.9,8.1-.9s6.6.4,9,1.3,4.2,1.9,5.5,3.3c1.3,1.3,2.2,2.8,2.7,4.3l-5.8,1.5Z"/>
      <path class="st0" d="M795.4,250.2h-6.3l-5.8-13h-21.2l-5.8,13h-6.2l19.4-42.8h6.5l19.4,42.8ZM764.3,232.2h16.7l-8.4-18.5-8.3,18.5Z"/>
      <path class="st0" d="M839.1,207.5v42.8h-5.9l-25.4-33.6v33.6h-5.9v-42.8h5.8l25.5,33.7v-33.7h6Z"/>
      <path class="st0" d="M875.8,217.1c-.2-.8-.7-1.5-1.5-2.3-.8-.7-2-1.3-3.5-1.8-1.6-.5-3.7-.7-6.4-.7s-5.1.3-6.8.8c-1.7.6-3,1.3-3.7,2.2s-1.1,1.9-1.1,2.9.3,2.2.8,3c.6.8,1.4,1.5,2.6,2,1.1.5,2.6.9,4.3,1.2l8.1,1.6c3.3.6,5.9,1.5,7.9,2.7,2,1.1,3.4,2.5,4.3,4,.9,1.6,1.3,3.2,1.3,5.1s-.3,3.1-1,4.6c-.7,1.5-1.7,2.9-3.1,4.1-1.4,1.3-3.2,2.2-5.5,3-2.2.7-5,1.1-8.2,1.1s-7-.4-9.4-1.3c-2.4-.9-4.3-2-5.6-3.4-1.3-1.4-2.2-2.9-2.6-4.6l5.7-1.4c.2.9.7,1.7,1.5,2.5.8.8,2,1.5,3.7,2,1.7.5,3.9.8,6.8.8s5.1-.4,6.9-1.1c1.7-.7,3-1.7,3.7-2.8.8-1.1,1.1-2.3,1.1-3.5s-.3-1.8-.9-2.7c-.6-.8-1.5-1.6-2.7-2.2-1.2-.6-2.8-1.2-4.8-1.6l-7.8-1.6c-3.1-.6-5.6-1.4-7.6-2.4-1.9-1-3.3-2.3-4.2-3.8-.9-1.5-1.3-3.3-1.3-5.4s.3-2.9,1-4.2c.7-1.4,1.7-2.6,3.1-3.7,1.4-1.1,3.2-1.9,5.5-2.6,2.2-.6,4.9-.9,8.1-.9s6.6.4,9,1.3,4.2,1.9,5.5,3.3c1.3,1.3,2.2,2.8,2.7,4.3l-5.8,1.5Z"/>
      <path class="st0" d="M577.4,277.8h-14.8v37.3h-5.9v-37.3h-14.8v-5.5h35.6v5.5Z"/>
      <path class="st0" d="M601.4,315h-5.9v-20.7l-15.2-22.1h6.5l11.6,17.2,11.7-17.2h6.5l-15.2,22.1v20.7Z"/>
      <path class="st0" d="M640.8,272.3c4.3,0,7.6.6,9.9,1.7,2.3,1.2,3.9,2.8,4.7,4.8s1.3,4.3,1.3,7-.4,4.9-1.3,6.9c-.9,2-2.4,3.6-4.7,4.8-2.3,1.2-5.6,1.7-9.9,1.7h-12.4v15.8h-5.9v-42.8h18.3ZM640.2,277.4h-11.9v16.7h11.9c3.1,0,5.4-.4,6.9-1.1,1.5-.8,2.5-1.8,3-3,.5-1.3.7-2.7.7-4.2s-.2-2.9-.7-4.1c-.5-1.3-1.5-2.3-3-3-1.5-.8-3.8-1.2-6.9-1.2Z"/>
      <path class="st0" d="M694.2,277.8h-22.9v12.4h21.6v5.1h-21.6v14.3h24.2v5.5h-30.1v-42.8h28.8v5.5Z"/>
      <path class="st0" d="M730.8,277.8h-22.9v12.4h21.5v5.1h-21.5v19.8h-5.9v-42.8h28.8v5.5Z"/>
      <path class="st0" d="M779.6,315h-6.3l-5.8-13h-21.2l-5.8,13h-6.2l19.4-42.8h6.5l19.4,42.8ZM748.5,297h16.7l-8.4-18.5-8.3,18.5Z"/>
      <path class="st0" d="M820.1,305.8c-1,2-2.4,3.8-4,5.3-1.6,1.5-3.6,2.7-5.8,3.6-2.2.9-4.7,1.3-7.5,1.3-4.3,0-8-1-11-2.9-3-1.9-5.2-4.6-6.7-7.9-1.5-3.3-2.3-7.2-2.3-11.6s.8-8.2,2.3-11.5c1.5-3.4,3.8-6,6.7-7.9,3-1.9,6.6-2.9,11-2.9s5.2.4,7.4,1.3c2.2.9,4.1,2.1,5.8,3.6,1.6,1.5,3,3.3,4.1,5.2l-6,1.6c-.7-1.2-1.6-2.2-2.7-3.1-1.1-.9-2.3-1.7-3.8-2.2s-3-.8-4.7-.8c-3.2,0-5.8.7-7.8,2.1s-3.6,3.4-4.6,6-1.6,5.4-1.6,8.7.5,6.2,1.6,8.7,2.6,4.5,4.6,6c2.1,1.4,4.7,2.2,7.8,2.2s3.3-.3,4.7-.8c1.4-.5,2.7-1.2,3.8-2.2s2-2,2.8-3.2l6,1.5Z"/>
      <path class="st0" d="M856.9,277.8h-22.9v12.4h21.6v5.1h-21.6v14.3h24.2v5.5h-30.1v-42.8h28.8v5.5Z"/>
    </g>
    <g>
      <path class="st0" d="M584.7,1077.3c4.3,0,7.6.6,9.9,1.7,2.3,1.2,3.9,2.8,4.7,4.8s1.3,4.3,1.3,7-.4,4.9-1.3,6.9c-.9,2-2.4,3.6-4.7,4.8-2.3,1.2-5.6,1.7-9.9,1.7h-12.4v15.8h-5.9v-42.8h18.3ZM584.1,1082.4h-11.9v16.7h11.9c3.1,0,5.4-.4,6.9-1.1,1.5-.8,2.5-1.8,3-3,.5-1.3.7-2.7.7-4.2s-.2-2.9-.7-4.1c-.5-1.3-1.5-2.3-3-3-1.5-.8-3.8-1.2-6.9-1.2Z"/>
      <path class="st0" d="M645.3,1120.1h-6.3l-5.8-13h-21.2l-5.8,13h-6.2l19.4-42.8h6.5l19.4,42.8ZM614.3,1102.1h16.7l-8.4-18.5-8.3,18.5Z"/>
      <path class="st0" d="M677.8,1087c-.2-.8-.7-1.5-1.5-2.3-.8-.7-2-1.3-3.5-1.8-1.6-.5-3.7-.7-6.4-.7s-5.1.3-6.8.8c-1.7.6-3,1.3-3.7,2.2s-1.1,1.9-1.1,2.9.3,2.2.8,3c.6.8,1.4,1.5,2.6,2,1.1.5,2.6.9,4.3,1.2l8.1,1.6c3.3.6,5.9,1.5,7.9,2.7,2,1.1,3.4,2.5,4.3,4,.9,1.6,1.3,3.2,1.3,5.1s-.3,3.1-1,4.6c-.7,1.5-1.7,2.9-3.1,4.1-1.4,1.3-3.2,2.2-5.5,3-2.2.7-5,1.1-8.2,1.1s-7-.4-9.4-1.3c-2.4-.9-4.3-2-5.6-3.4-1.3-1.4-2.2-2.9-2.6-4.6l5.7-1.4c.2.9.7,1.7,1.5,2.5.8.8,2,1.5,3.7,2,1.7.5,3.9.8,6.8.8s5.1-.4,6.9-1.1c1.7-.7,3-1.7,3.7-2.8.8-1.1,1.1-2.3,1.1-3.5s-.3-1.8-.9-2.7c-.6-.8-1.5-1.6-2.7-2.2-1.2-.6-2.8-1.2-4.8-1.6l-7.8-1.6c-3.1-.6-5.6-1.4-7.6-2.4-1.9-1-3.3-2.3-4.2-3.8-.9-1.5-1.3-3.3-1.3-5.4s.3-2.9,1-4.2c.7-1.4,1.7-2.6,3.1-3.7,1.4-1.1,3.2-1.9,5.5-2.6,2.2-.6,4.9-.9,8.1-.9s6.6.4,9,1.3,4.2,1.9,5.5,3.3c1.3,1.3,2.2,2.8,2.7,4.3l-5.8,1.5Z"/>
      <path class="st0" d="M718.2,1087c-.2-.8-.7-1.5-1.5-2.3-.8-.7-2-1.3-3.5-1.8-1.6-.5-3.7-.7-6.4-.7s-5.1.3-6.8.8c-1.7.6-3,1.3-3.7,2.2s-1.1,1.9-1.1,2.9.3,2.2.8,3c.6.8,1.4,1.5,2.6,2,1.1.5,2.6.9,4.3,1.2l8.1,1.6c3.3.6,5.9,1.5,7.9,2.7,2,1.1,3.4,2.5,4.3,4,.9,1.6,1.3,3.2,1.3,5.1s-.3,3.1-1,4.6c-.7,1.5-1.7,2.9-3.1,4.1-1.4,1.3-3.2,2.2-5.5,3-2.2.7-5,1.1-8.2,1.1s-7-.4-9.4-1.3c-2.4-.9-4.3-2-5.6-3.4-1.3-1.4-2.2-2.9-2.6-4.6l5.7-1.4c.2.9.7,1.7,1.5,2.5.8.8,2,1.5,3.7,2,1.7.5,3.9.8,6.8.8s5.1-.4,6.9-1.1c1.7-.7,3-1.7,3.7-2.8.8-1.1,1.1-2.3,1.1-3.5s-.3-1.8-.9-2.7c-.6-.8-1.5-1.6-2.7-2.2-1.2-.6-2.8-1.2-4.8-1.6l-7.8-1.6c-3.1-.6-5.6-1.4-7.6-2.4-1.9-1-3.3-2.3-4.2-3.8-.9-1.5-1.3-3.3-1.3-5.4s.3-2.9,1-4.2c.7-1.4,1.7-2.6,3.1-3.7,1.4-1.1,3.2-1.9,5.5-2.6,2.2-.6,4.9-.9,8.1-.9s6.6.4,9,1.3,4.2,1.9,5.5,3.3c1.3,1.3,2.2,2.8,2.7,4.3l-5.8,1.5Z"/>
      <path class="st0" d="M738,1120.1h-5.9v-42.8h5.9v42.8Z"/>
      <path class="st0" d="M767.3,1120.6c-4.8,0-8.9-.9-12.1-2.8-3.2-1.9-5.6-4.4-7.2-7.7-1.6-3.3-2.4-7.1-2.4-11.4s.8-8.1,2.4-11.4c1.6-3.3,4-5.9,7.2-7.8,3.2-1.9,7.2-2.8,12.1-2.8s8.7.9,12,2.8c3.2,1.9,5.6,4.5,7.2,7.8,1.6,3.3,2.4,7.1,2.4,11.4s-.8,8.1-2.4,11.4c-1.6,3.3-4,5.9-7.2,7.7-3.2,1.9-7.2,2.8-12,2.8ZM767.3,1115.1c3.6,0,6.5-.7,8.8-2.1,2.3-1.4,4-3.3,5.2-5.8,1.1-2.5,1.7-5.3,1.7-8.6s-.6-6-1.7-8.5c-1.1-2.5-2.8-4.4-5.2-5.8-2.3-1.4-5.3-2.1-8.8-2.1s-6.7.7-9,2.1c-2.3,1.4-4,3.3-5.1,5.8s-1.7,5.3-1.7,8.5.6,6.1,1.7,8.6c1.1,2.5,2.8,4.4,5.1,5.8,2.3,1.4,5.3,2.1,9,2.1Z"/>
      <path class="st0" d="M833.6,1077.3v42.8h-5.9l-25.4-33.6v33.6h-5.9v-42.8h5.8l25.5,33.7v-33.7h6Z"/>
      <path class="st0" d="M518.9,1172.4c0,2.5-.6,4.8-1.9,6.8s-3.2,3.6-5.6,4.8c-2.5,1.2-5.6,1.8-9.3,1.8s-6.9-.6-9.4-1.8c-2.5-1.2-4.4-2.8-5.6-4.9-1.2-2.1-1.8-4.3-1.8-6.8s.5-4.3,1.6-6.2,2.7-3.2,4.8-4.3c-1.7-1-3-2.2-3.9-3.7-.9-1.5-1.3-3.2-1.3-5.1s.6-4.3,1.8-6.1c1.2-1.8,3-3.2,5.3-4.3,2.3-1.1,5.1-1.6,8.5-1.6s4.2.2,5.9.7c1.8.5,3.3,1.2,4.6,2s2.4,1.8,3.2,2.9l-5.3,2.9c-.8-1-1.9-1.7-3.2-2.2-1.4-.5-3.1-.8-5.1-.8-3.1,0-5.5.6-7.2,1.9s-2.5,2.9-2.5,4.9.8,3.2,2.5,4.5c1.6,1.3,4,1.9,7.2,1.9h21.8v5h-4.9v7.6ZM491.2,1172.6c0,2,.9,3.8,2.8,5.3,1.9,1.5,4.6,2.2,8.1,2.2s3.4-.3,5.1-.8c1.7-.5,3.1-1.3,4.2-2.5,1.1-1.1,1.7-2.6,1.8-4.4v-7.6h-11c-3.6,0-6.3.7-8.1,2.2-1.8,1.5-2.8,3.3-2.8,5.5Z"/>
      <path class="st0" d="M567.3,1142.1c4.3,0,7.6.6,9.9,1.7,2.3,1.2,3.9,2.8,4.7,4.8s1.3,4.3,1.3,7-.4,4.9-1.3,6.9c-.9,2-2.4,3.6-4.7,4.8-2.3,1.2-5.6,1.7-9.9,1.7h-12.4v15.8h-5.9v-42.8h18.3ZM566.7,1147.2h-11.9v16.7h11.9c3.1,0,5.4-.4,6.9-1.1,1.5-.8,2.5-1.8,3-3,.5-1.3.7-2.7.7-4.2s-.2-2.9-.7-4.1c-.5-1.3-1.5-2.3-3-3-1.5-.8-3.8-1.2-6.9-1.2Z"/>
      <path class="st0" d="M591.8,1184.9v-42.8h18.3c4.3,0,7.6.6,9.9,1.7,2.3,1.2,3.9,2.8,4.7,4.8s1.3,4.3,1.3,7-.3,4.3-1,6.2c-.6,1.9-1.8,3.4-3.4,4.6-1.6,1.2-4,2-7.1,2.5l10.4,16.1h-6.5l-10.2-15.8h-10.6v15.8h-5.9ZM620.2,1155.6c0-1.5-.2-2.9-.7-4.1-.5-1.3-1.5-2.3-3-3-1.5-.8-3.8-1.2-6.9-1.2h-11.9v16.7h11.9c3.1,0,5.4-.4,6.9-1.1,1.5-.8,2.5-1.8,3-3,.5-1.3.7-2.7.7-4.2Z"/>
      <path class="st0" d="M663.6,1147.6h-22.9v12.4h21.6v5.1h-21.6v14.3h24.2v5.5h-30.1v-42.8h28.8v5.5Z"/>
      <path class="st0" d="M706,1175.6c-1,2-2.4,3.8-4,5.3-1.6,1.5-3.6,2.7-5.8,3.6-2.2.9-4.7,1.3-7.5,1.3-4.3,0-8-1-11-2.9-3-1.9-5.2-4.6-6.7-7.9-1.5-3.3-2.3-7.2-2.3-11.6s.8-8.2,2.3-11.5c1.5-3.4,3.8-6,6.7-7.9,3-1.9,6.6-2.9,11-2.9s5.2.4,7.4,1.3c2.2.9,4.1,2.1,5.8,3.6,1.6,1.5,3,3.3,4.1,5.2l-6,1.6c-.7-1.2-1.6-2.2-2.7-3.1-1.1-.9-2.3-1.7-3.8-2.2s-3-.8-4.7-.8c-3.2,0-5.8.7-7.8,2.1s-3.6,3.4-4.6,6-1.6,5.4-1.6,8.7.5,6.2,1.6,8.7,2.6,4.5,4.6,6c2.1,1.4,4.7,2.2,7.8,2.2s3.3-.3,4.7-.8c1.4-.5,2.7-1.2,3.8-2.2s2-2,2.8-3.2l6,1.5Z"/>
      <path class="st0" d="M719.8,1184.9h-5.9v-42.8h5.9v42.8Z"/>
      <path class="st0" d="M756.5,1151.8c-.2-.8-.7-1.5-1.5-2.3-.8-.7-2-1.3-3.5-1.8-1.6-.5-3.7-.7-6.4-.7s-5.1.3-6.8.8c-1.7.6-3,1.3-3.7,2.2s-1.1,1.9-1.1,2.9.3,2.2.8,3c.6.8,1.4,1.5,2.6,2,1.1.5,2.6.9,4.3,1.2l8.1,1.6c3.3.6,5.9,1.5,7.9,2.7,2,1.1,3.4,2.5,4.3,4,.9,1.6,1.3,3.2,1.3,5.1s-.3,3.1-1,4.6c-.7,1.5-1.7,2.9-3.1,4.1-1.4,1.3-3.2,2.2-5.5,3-2.2.7-5,1.1-8.2,1.1s-7-.4-9.4-1.3c-2.4-.9-4.3-2-5.6-3.4-1.3-1.4-2.2-2.9-2.6-4.6l5.7-1.4c.2.9.7,1.7,1.5,2.5.8.8,2,1.5,3.7,2,1.7.5,3.9.8,6.8.8s5.1-.4,6.9-1.1c1.7-.7,3-1.7,3.7-2.8.8-1.1,1.1-2.3,1.1-3.5s-.3-1.8-.9-2.7c-.6-.8-1.5-1.6-2.7-2.2-1.2-.6-2.8-1.2-4.8-1.6l-7.8-1.6c-3.1-.6-5.6-1.4-7.6-2.4-1.9-1-3.3-2.3-4.2-3.8-.9-1.5-1.3-3.3-1.3-5.4s.3-2.9,1-4.2c.7-1.4,1.7-2.6,3.1-3.7,1.4-1.1,3.2-1.9,5.5-2.6,2.2-.6,4.9-.9,8.1-.9s6.6.4,9,1.3,4.2,1.9,5.5,3.3c1.3,1.3,2.2,2.8,2.7,4.3l-5.8,1.5Z"/>
      <path class="st0" d="M796.9,1151.8c-.2-.8-.7-1.5-1.5-2.3-.8-.7-2-1.3-3.5-1.8-1.6-.5-3.7-.7-6.4-.7s-5.1.3-6.8.8c-1.7.6-3,1.3-3.7,2.2s-1.1,1.9-1.1,2.9.3,2.2.8,3c.6.8,1.4,1.5,2.6,2,1.1.5,2.6.9,4.3,1.2l8.1,1.6c3.3.6,5.9,1.5,7.9,2.7,2,1.1,3.4,2.5,4.3,4,.9,1.6,1.3,3.2,1.3,5.1s-.3,3.1-1,4.6c-.7,1.5-1.7,2.9-3.1,4.1-1.4,1.3-3.2,2.2-5.5,3-2.2.7-5,1.1-8.2,1.1s-7-.4-9.4-1.3c-2.4-.9-4.3-2-5.6-3.4-1.3-1.4-2.2-2.9-2.6-4.6l5.7-1.4c.2.9.7,1.7,1.5,2.5.8.8,2,1.5,3.7,2,1.7.5,3.9.8,6.8.8s5.1-.4,6.9-1.1c1.7-.7,3-1.7,3.7-2.8.8-1.1,1.1-2.3,1.1-3.5s-.3-1.8-.9-2.7c-.6-.8-1.5-1.6-2.7-2.2-1.2-.6-2.8-1.2-4.8-1.6l-7.8-1.6c-3.1-.6-5.6-1.4-7.6-2.4-1.9-1-3.3-2.3-4.2-3.8-.9-1.5-1.3-3.3-1.3-5.4s.3-2.9,1-4.2c.7-1.4,1.7-2.6,3.1-3.7,1.4-1.1,3.2-1.9,5.5-2.6,2.2-.6,4.9-.9,8.1-.9s6.6.4,9,1.3,4.2,1.9,5.5,3.3c1.3,1.3,2.2,2.8,2.7,4.3l-5.8,1.5Z"/>
      <path class="st0" d="M816.7,1184.9h-5.9v-42.8h5.9v42.8Z"/>
      <path class="st0" d="M846,1185.4c-4.8,0-8.9-.9-12.1-2.8-3.2-1.9-5.6-4.4-7.2-7.7-1.6-3.3-2.4-7.1-2.4-11.4s.8-8.1,2.4-11.4c1.6-3.3,4-5.9,7.2-7.8,3.2-1.9,7.2-2.8,12.1-2.8s8.7.9,12,2.8c3.2,1.9,5.6,4.5,7.2,7.8,1.6,3.3,2.4,7.1,2.4,11.4s-.8,8.1-2.4,11.4c-1.6,3.3-4,5.9-7.2,7.7-3.2,1.9-7.2,2.8-12,2.8ZM846,1179.9c3.6,0,6.5-.7,8.8-2.1,2.3-1.4,4-3.3,5.2-5.8,1.1-2.5,1.7-5.3,1.7-8.6s-.6-6-1.7-8.5c-1.1-2.5-2.8-4.4-5.2-5.8-2.3-1.4-5.3-2.1-8.8-2.1s-6.7.7-9,2.1c-2.3,1.4-4,3.3-5.1,5.8s-1.7,5.3-1.7,8.5.6,6.1,1.7,8.6c1.1,2.5,2.8,4.4,5.1,5.8,2.3,1.4,5.3,2.1,9,2.1Z"/>
      <path class="st0" d="M912.3,1142.1v42.8h-5.9l-25.4-33.6v33.6h-5.9v-42.8h5.8l25.5,33.7v-33.7h6Z"/>
    </g>
  </g>
  <g>
    <path class="st2" d="M378.3,483.7h-9.8l-10.7-23.7h-39.1l-10.6,23.7h-9.8l35-77h10l35,77ZM322.2,452h32.1l-16.1-35.5-16,35.5Z"/>
    <path class="st2" d="M492.6,443.6c0,.8,0,1.6-.1,2.3-.3,7.7-1.8,14.5-4.4,20.5-2.6,5.9-6.5,10.6-11.6,14.1s-11.7,5.1-19.6,5.1-14.4-1.8-19.7-5.2c-5.3-3.5-9.3-8.3-11.9-14.4-2.6-6.1-4-13-4-20.8s1.4-14.8,4.3-20.9c2.9-6.1,7.1-10.9,12.5-14.3,5.5-3.5,12.1-5.2,19.9-5.2s9.8.8,13.9,2.3c4.1,1.5,7.7,3.7,10.7,6.4,3,2.8,5.5,6,7.3,9.9l-9.2,2.6c-2.1-3.9-5.1-6.9-9-9.1-3.9-2.2-8.5-3.3-13.8-3.3s-10.9,1.3-14.9,4c-4,2.7-7.1,6.4-9.2,11.3-2.1,4.8-3.1,10.3-3.1,16.4s.9,11.5,2.7,16.3c1.8,4.8,4.7,8.6,8.5,11.4,3.8,2.8,8.8,4.2,14.9,4.2s9.5-1.1,13.1-3.2c3.6-2.1,6.5-5.1,8.6-9,2.1-3.8,3.5-8.3,4-13.2h-31.8v-7.9h41.8Z"/>
    <path class="st2" d="M507.5,483.7v-77h31.4c7.8,0,13.7,1,17.8,3.1,4.1,2.1,7,4.9,8.5,8.5,1.6,3.6,2.3,7.7,2.3,12.4s-.6,7.7-1.7,11c-1.2,3.3-3.3,6-6.3,8.2-3,2.1-7.4,3.6-13.1,4.3l19.2,29.6h-10.1l-18.9-29.2h-19.9v29.2h-9.2ZM558.3,430.7c0-3-.5-5.6-1.5-8-1-2.4-2.9-4.3-5.8-5.7-2.9-1.4-7.3-2.1-13.1-2.1h-21.1v31.7h21.1c5.8,0,10.2-.7,13.1-2.1s4.9-3.3,5.8-5.7c1-2.4,1.5-5.1,1.5-8Z"/>
    <path class="st2" d="M618.1,484.9c-8.6,0-15.7-1.7-21.3-5.1-5.7-3.4-10-8.1-12.8-14.1-2.9-6-4.3-12.9-4.3-20.6s1.4-14.5,4.3-20.5c2.9-6,7.2-10.7,12.8-14.1,5.7-3.4,12.8-5.1,21.3-5.1s15.5,1.7,21.2,5.1c5.7,3.4,10,8.1,12.9,14.1,2.9,6,4.3,12.8,4.3,20.5s-1.4,14.7-4.3,20.6c-2.9,6-7.2,10.7-12.9,14.1-5.7,3.4-12.8,5.1-21.2,5.1ZM618.1,476.3c6.6,0,12.1-1.3,16.3-4,4.3-2.6,7.5-6.3,9.6-11,2.1-4.7,3.1-10.1,3.1-16.2s-1-11.3-3.1-16c-2.1-4.7-5.3-8.4-9.6-11-4.3-2.6-9.7-4-16.3-4s-12.2,1.3-16.4,4c-4.3,2.6-7.4,6.3-9.5,11-2.1,4.7-3.1,10.1-3.1,16s1,11.5,3.1,16.2c2.1,4.7,5.2,8.4,9.5,11,4.3,2.6,9.8,4,16.4,4Z"/>
    <path class="st2" d="M727.8,415.4h-27.1v68.4h-9.2v-68.4h-27.1v-8.6h63.3v8.6Z"/>
    <path class="st2" d="M788.5,415.4h-41.3v24.3h39v7.9h-39v27.5h43.6v8.6h-52.8v-77h50.5v8.6Z"/>
    <path class="st2" d="M851.3,422.5c-.7-1.4-1.8-2.7-3.4-4-1.6-1.3-3.8-2.4-6.6-3.2-2.8-.9-6.5-1.3-11-1.3s-9.1.5-12.3,1.6c-3.2,1.1-5.6,2.5-7.2,4.4-1.6,1.8-2.4,3.8-2.4,6s.6,4.2,1.8,5.8c1.2,1.6,2.9,2.9,5.1,3.9,2.3,1,4.9,1.8,8,2.3l14.2,2.7c5.6,1.1,10.2,2.6,13.7,4.5,3.5,1.9,6.2,4.3,7.9,7.1,1.7,2.8,2.6,5.9,2.6,9.5s-.6,5.8-1.9,8.6c-1.3,2.8-3.2,5.2-5.8,7.4-2.6,2.2-5.8,3.9-9.8,5.2-4,1.3-8.7,1.9-14.1,1.9s-11.9-.8-16.2-2.3c-4.3-1.5-7.6-3.5-10-5.9-2.4-2.4-4.1-5.1-5-7.9l8.7-2.6c.6,1.7,1.7,3.3,3.3,4.8,1.6,1.5,3.9,2.8,7.1,3.7,3.1,1,7.2,1.5,12.2,1.5s9.2-.7,12.5-2c3.3-1.3,5.7-3.1,7.3-5.3s2.4-4.6,2.4-7.2-.6-4-1.8-5.7c-1.2-1.7-2.9-3.1-5.2-4.3-2.3-1.2-5.3-2.1-9-2.8l-13.8-2.7c-5.3-1-9.7-2.4-13.2-4.1-3.5-1.7-6.1-3.9-7.8-6.6-1.7-2.7-2.6-6-2.6-9.8s.7-5.4,2-7.9c1.3-2.4,3.3-4.6,5.9-6.5,2.6-1.9,5.9-3.4,9.7-4.5,3.9-1.1,8.5-1.7,13.8-1.7s10.9.7,14.9,2.1c4,1.4,7.2,3.2,9.6,5.4,2.4,2.2,4.1,4.5,5.2,6.9l-8.9,2.7Z"/>
    <path class="st2" d="M929.9,493.2v8.3c-1.9.2-4.1.4-6.6.7-2.4.3-4.9.5-7.3.5s-5.3-.4-7.6-1.2c-2.3-.8-4-2-5.4-3.7-1.3-1.7-2-3.8-2-6.4s.2-2.7.5-3.8c.3-1.2.8-2.3,1.4-3.3-6.8-.9-12.6-3.1-17.2-6.6-4.6-3.6-8.1-8.1-10.4-13.7-2.3-5.6-3.5-11.8-3.5-18.8s1.4-14.5,4.3-20.5c2.9-6,7.2-10.7,12.8-14.1,5.7-3.4,12.8-5.1,21.3-5.1s15.5,1.7,21.2,5.1c5.7,3.4,10,8.1,12.9,14.1,2.9,6,4.3,12.8,4.3,20.5s-1.3,14-3.8,19.7c-2.6,5.8-6.4,10.4-11.5,13.9s-11.5,5.5-19,6.1c-1.6.8-2.7,1.6-3.3,2.4-.7.9-1,1.8-1,2.9s.5,2.2,1.4,2.9c.9.7,2.1,1.1,3.4,1.3,1.3.2,2.6.3,3.8.3s3.1-.1,4.9-.3c1.8-.2,3.9-.6,6.4-1ZM910.3,476.3c6.6,0,12.1-1.3,16.3-4,4.3-2.6,7.5-6.3,9.6-11,2.1-4.7,3.1-10.1,3.1-16.2s-1-11.3-3.1-16c-2.1-4.7-5.3-8.4-9.6-11-4.3-2.6-9.7-4-16.3-4s-12.2,1.3-16.4,4c-4.3,2.6-7.4,6.3-9.5,11-2.1,4.7-3.1,10.1-3.1,16s1,11.5,3.1,16.2c2.1,4.7,5.2,8.4,9.5,11,4.3,2.6,9.8,4,16.4,4Z"/>
    <path class="st2" d="M996.6,485.6c-7.8,0-14.2-1.6-19.4-4.7-5.2-3.1-9.1-7.5-11.7-13.2-2.6-5.7-3.9-12.5-3.9-20.2v-40.7h9.3v40.7c0,6.1.9,11.3,2.7,15.7,1.8,4.4,4.6,7.8,8.4,10.2,3.8,2.4,8.6,3.6,14.5,3.6s10.6-1.2,14.4-3.6c3.8-2.4,6.6-5.8,8.4-10.2,1.8-4.4,2.7-9.7,2.7-15.7v-40.7h9.3v40.7c0,7.8-1.3,14.5-3.8,20.2-2.6,5.7-6.5,10.1-11.7,13.2-5.2,3.1-11.7,4.7-19.4,4.7Z"/>
    <path class="st2" d="M1099.6,415.4h-41.3v24.3h39v7.9h-39v27.5h43.6v8.6h-52.8v-77h50.5v8.6Z"/>
    <path class="st2" d="M245.8,599h35.7v8.6h-44.9v-77h9.2v68.4Z"/>
    <path class="st2" d="M303.3,607.7h-9.2v-77h9.2v77Z"/>
    <path class="st2" d="M354.3,530.7c7.8,0,13.7.8,17.8,2.4,4.1,1.6,7,4,8.5,7.2,1.6,3.1,2.3,7.1,2.3,11.7s-.4,4.9-1.2,7.1c-.8,2.3-2.1,4.2-3.9,5.9-1.8,1.7-4.3,3-7.5,3.7,4.9,1.2,8.3,3.4,10.2,6.6,1.9,3.1,2.9,6.7,2.9,10.8s-.8,8.5-2.4,11.7c-1.6,3.2-4.5,5.6-8.7,7.3-4.2,1.7-10.2,2.5-18,2.5h-31.4v-77h31.4ZM332.2,564.5h21.1c5.8,0,10.1-.5,13.1-1.6,3-1.1,4.9-2.6,5.9-4.5,1-1.9,1.5-4,1.5-6.4s-.5-5.4-1.5-7.4c-1-2-2.9-3.5-5.9-4.4-3-1-7.3-1.5-13.1-1.5h-21.1v25.8ZM332.2,599.6h21.1c5.8,0,10.1-.5,13.1-1.5,3-1,5-2.5,6.1-4.5,1-2,1.6-4.5,1.6-7.4s-.5-4.9-1.6-7-3.1-3.7-6-4.9c-3-1.2-7.3-1.7-13.2-1.7h-21.1v27.1Z"/>
    <path class="st2" d="M400.2,607.7v-77h31.4c7.8,0,13.7,1,17.8,3.1,4.1,2.1,7,4.9,8.5,8.5,1.6,3.6,2.3,7.7,2.3,12.4s-.6,7.7-1.7,11c-1.2,3.3-3.3,6-6.3,8.2-3,2.1-7.4,3.6-13.1,4.3l19.2,29.6h-10.1l-18.9-29.2h-19.9v29.2h-9.2ZM450.9,554.6c0-3-.5-5.6-1.5-8-1-2.4-2.9-4.3-5.8-5.7-2.9-1.4-7.3-2.1-13.1-2.1h-21.1v31.7h21.1c5.8,0,10.2-.7,13.1-2.1s4.9-3.3,5.8-5.7c1-2.4,1.5-5.1,1.5-8Z"/>
    <path class="st2" d="M527.4,539.3h-41.3v24.3h39v7.9h-39v27.5h43.6v8.6h-52.8v-77h50.5v8.6Z"/>
    <path class="st2" d="M633.7,539.3h-27.1v68.4h-9.2v-68.4h-27.1v-8.6h63.3v8.6Z"/>
    <path class="st2" d="M675.8,607.7h-9.2v-37.4l-27.3-39.5h10.4l21.5,31.7,21.7-31.7h10.3l-27.3,39.5v37.4Z"/>
    <path class="st2" d="M745.9,530.7c7.8,0,13.7,1,17.8,3.1,4.1,2.1,7,4.9,8.5,8.5,1.6,3.6,2.3,7.7,2.3,12.4s-.8,8.7-2.3,12.3c-1.6,3.6-4.4,6.5-8.5,8.5-4.1,2.1-10.1,3.1-17.8,3.1h-22.2v29.2h-9.2v-77h31.4ZM744.8,538.7h-21.1v31.7h21.1c5.8,0,10.2-.7,13.1-2.1s4.9-3.3,5.8-5.7c1-2.4,1.5-5.1,1.5-8s-.5-5.6-1.5-8c-1-2.4-2.9-4.3-5.8-5.7-2.9-1.4-7.3-2.1-13.1-2.1Z"/>
    <path class="st2" d="M841.8,539.3h-41.3v24.3h39v7.9h-39v27.5h43.6v8.6h-52.8v-77h50.5v8.6Z"/>
    <path class="st2" d="M907.2,539.3h-41.3v24.3h38.6v7.9h-38.6v36.2h-9.2v-77h50.5v8.6Z"/>
    <path class="st2" d="M994,607.7h-9.8l-10.7-23.7h-39.1l-10.6,23.7h-9.8l35-77h10l35,77ZM937.9,576h32.1l-16.1-35.5-16,35.5Z"/>
    <path class="st2" d="M1067.4,591.2c-1.9,3.7-4.3,6.8-7.2,9.4-2.9,2.6-6.4,4.7-10.3,6.2s-8.4,2.2-13.4,2.2c-7.8,0-14.3-1.7-19.6-5.1-5.3-3.4-9.3-8.1-12-14.1-2.7-6-4-12.9-4-20.9s1.3-14.8,4-20.8c2.7-6,6.7-10.7,12-14.1,5.3-3.4,11.8-5.1,19.6-5.1s9.3.7,13.3,2.2c4,1.5,7.4,3.5,10.3,6.2s5.3,5.8,7.2,9.3l-9.3,2.4c-1.4-2.3-3.1-4.3-5.1-6-2-1.8-4.4-3.1-7.1-4.1-2.7-1-5.8-1.5-9.2-1.5-5.9,0-10.8,1.3-14.6,4-3.8,2.6-6.7,6.3-8.6,11.1-1.9,4.7-2.9,10.2-2.9,16.3s1,11.7,2.9,16.4c1.9,4.7,4.8,8.4,8.6,11.1,3.8,2.7,8.7,4,14.6,4s6.5-.5,9.2-1.5c2.7-1,5.1-2.4,7.1-4.1,2.1-1.8,3.8-3.8,5.3-6.1l9.3,2.3Z"/>
    <path class="st2" d="M1133.1,539.3h-41.3v24.3h39v7.9h-39v27.5h43.6v8.6h-52.8v-77h50.5v8.6Z"/>
    <path class="st2" d="M288.1,731.6l-26.5-77h9.7l22.4,66.3,21.6-66.3h9.8l21.6,66.3,22.3-66.3h9.9l-26.6,77h-11.1l-21-64.9-21,64.9h-11.1Z"/>
    <path class="st2" d="M400.8,731.6h-9.2v-77h9.2v77Z"/>
    <path class="st2" d="M476.9,663.3h-27.1v68.4h-9.2v-68.4h-27.1v-8.6h63.3v8.6Z"/>
    <path class="st2" d="M496.4,687.5h44.8v-32.9c-.1,0,9.1,0,9.1,0v77c.1,0-9.1,0-9.1,0v-35.5h-44.8v35.5h-9.2v-77h9.2v32.9Z"/>
    <path class="st2" d="M678.2,731.6h-9.8l-10.7-23.7h-39.1l-10.6,23.7h-9.8l35-77h10l35,77ZM622.1,699.9h32.1l-16.1-35.5-16,35.5Z"/>
    <path class="st2" d="M773.7,670.4c-.7-1.4-1.8-2.7-3.4-4-1.6-1.3-3.8-2.4-6.6-3.2-2.8-.9-6.5-1.3-11-1.3s-9.1.5-12.3,1.6c-3.2,1.1-5.6,2.5-7.2,4.4-1.6,1.8-2.4,3.8-2.4,6s.6,4.2,1.8,5.8c1.2,1.6,2.9,2.9,5.1,3.9,2.3,1,4.9,1.8,8,2.3l14.2,2.7c5.6,1.1,10.2,2.6,13.7,4.5,3.5,1.9,6.2,4.3,7.9,7.1,1.7,2.8,2.6,5.9,2.6,9.5s-.6,5.8-1.9,8.6c-1.3,2.8-3.2,5.2-5.8,7.4-2.6,2.2-5.8,3.9-9.8,5.2-4,1.3-8.7,1.9-14.1,1.9s-11.9-.8-16.2-2.3c-4.3-1.5-7.6-3.5-10-5.9-2.4-2.4-4.1-5.1-5-7.9l8.7-2.6c.6,1.7,1.7,3.3,3.3,4.8,1.6,1.5,3.9,2.8,7.1,3.7,3.1,1,7.2,1.5,12.2,1.5s9.2-.7,12.5-2c3.3-1.3,5.7-3.1,7.3-5.3s2.4-4.6,2.4-7.2-.6-4-1.8-5.7c-1.2-1.7-2.9-3.1-5.2-4.3-2.3-1.2-5.3-2.1-9-2.8l-13.8-2.7c-5.3-1-9.7-2.4-13.2-4.1-3.5-1.7-6.1-3.9-7.8-6.6-1.7-2.7-2.6-6-2.6-9.8s.7-5.4,2-7.9c1.3-2.4,3.3-4.6,5.9-6.5,2.6-1.9,5.9-3.4,9.7-4.5,3.9-1.1,8.5-1.7,13.8-1.7s10.9.7,14.9,2.1c4,1.4,7.2,3.2,9.6,5.4,2.4,2.2,4.1,4.5,5.2,6.9l-8.9,2.7Z"/>
    <path class="st2" d="M831.9,733.5c-7.8,0-14.2-1.6-19.4-4.7-5.2-3.1-9.1-7.5-11.7-13.2-2.6-5.7-3.9-12.5-3.9-20.2v-40.7h9.3v40.7c0,6.1.9,11.3,2.7,15.7,1.8,4.4,4.6,7.8,8.4,10.2,3.8,2.4,8.6,3.6,14.5,3.6s10.6-1.2,14.4-3.6c3.8-2.4,6.6-5.8,8.4-10.2,1.8-4.4,2.7-9.7,2.7-15.7v-40.7h9.3v40.7c0,7.8-1.3,14.5-3.8,20.2-2.6,5.7-6.5,10.1-11.7,13.2-5.2,3.1-11.7,4.7-19.4,4.7Z"/>
    <path class="st2" d="M915.8,654.6c7.8,0,13.7.8,17.8,2.4,4.1,1.6,7,4,8.5,7.2,1.6,3.1,2.3,7.1,2.3,11.7s-.4,4.9-1.2,7.1c-.8,2.3-2.1,4.2-3.9,5.9-1.8,1.7-4.3,3-7.5,3.7,4.9,1.2,8.3,3.4,10.2,6.6,1.9,3.1,2.9,6.7,2.9,10.8s-.8,8.5-2.4,11.7c-1.6,3.2-4.5,5.6-8.7,7.3-4.2,1.7-10.2,2.5-18,2.5h-31.4v-77h31.4ZM893.6,688.5h21.1c5.8,0,10.1-.5,13.1-1.6,3-1.1,4.9-2.6,5.9-4.5,1-1.9,1.5-4,1.5-6.4s-.5-5.4-1.5-7.4c-1-2-2.9-3.5-5.9-4.4-3-1-7.3-1.5-13.1-1.5h-21.1v25.8ZM893.6,723.6h21.1c5.8,0,10.1-.5,13.1-1.5,3-1,5-2.5,6.1-4.5,1-2,1.6-4.5,1.6-7.4s-.5-4.9-1.6-7-3.1-3.7-6-4.9c-3-1.2-7.3-1.7-13.2-1.7h-21.1v27.1Z"/>
    <path class="st2" d="M1018,663.3h-27.1v68.4h-9.2v-68.4h-27.1v-8.6h63.3v8.6Z"/>
    <path class="st2" d="M1037.4,723h35.7v8.6h-44.9v-77h9.2v68.4Z"/>
    <path class="st2" d="M1136.2,663.3h-41.3v24.3h39v7.9h-39v27.5h43.6v8.6h-52.8v-77h50.5v8.6Z"/>
    <path class="st2" d="M361.2,811.4h44.8v-32.9c-.1,0,9.1,0,9.1,0v77c.1,0-9.1,0-9.1,0v-35.5h-44.8v35.5h-9.2v-77h9.2v32.9Z"/>
    <path class="st2" d="M467.8,857.4c-7.8,0-14.2-1.6-19.4-4.7-5.2-3.1-9.1-7.5-11.7-13.2-2.6-5.7-3.9-12.5-3.9-20.2v-40.7h9.3v40.7c0,6.1.9,11.3,2.7,15.7,1.8,4.4,4.6,7.8,8.4,10.2,3.8,2.4,8.6,3.6,14.5,3.6s10.6-1.2,14.4-3.6c3.8-2.4,6.6-5.8,8.4-10.2,1.8-4.4,2.7-9.7,2.7-15.7v-40.7h9.3v40.7c0,7.8-1.3,14.5-3.8,20.2-2.6,5.7-6.5,10.1-11.7,13.2-5.2,3.1-11.7,4.7-19.4,4.7Z"/>
    <path class="st2" d="M557.9,855.5l-28.5-58.4v58.4h-9.2v-77h10l32.4,67.1,32.7-67.1h9.9v77h-9.2v-58.4l-28.3,58.4h-9.8Z"/>
    <path class="st2" d="M698.1,855.5h-9.8l-10.7-23.7h-39.1l-10.6,23.7h-9.8l35-77h10l35,77ZM642,823.8h32.1l-16.1-35.5-16,35.5Z"/>
    <path class="st2" d="M775.8,778.6v77h-9.2l-46.4-62.5v62.5h-9.3v-77h9.1l46.5,62.6v-62.6h9.3Z"/>
    <path class="st2" d="M804.6,855.5h-9.2v-77h9.2v77Z"/>
    <path class="st2" d="M872.2,794.3c-.7-1.4-1.8-2.7-3.4-4-1.6-1.3-3.8-2.4-6.6-3.2-2.8-.9-6.5-1.3-11-1.3s-9.1.5-12.3,1.6c-3.2,1.1-5.6,2.5-7.2,4.4-1.6,1.8-2.4,3.8-2.4,6s.6,4.2,1.8,5.8c1.2,1.6,2.9,2.9,5.1,3.9,2.3,1,4.9,1.8,8,2.3l14.2,2.7c5.6,1.1,10.2,2.6,13.7,4.5,3.5,1.9,6.2,4.3,7.9,7.1,1.7,2.8,2.6,5.9,2.6,9.5s-.6,5.8-1.9,8.6c-1.3,2.8-3.2,5.2-5.8,7.4-2.6,2.2-5.8,3.9-9.8,5.2-4,1.3-8.7,1.9-14.1,1.9s-11.9-.8-16.2-2.3c-4.3-1.5-7.6-3.5-10-5.9-2.4-2.4-4.1-5.1-5-7.9l8.7-2.6c.6,1.7,1.7,3.3,3.3,4.8,1.6,1.5,3.9,2.8,7.1,3.7,3.1,1,7.2,1.5,12.2,1.5s9.2-.7,12.5-2c3.3-1.3,5.7-3.1,7.3-5.3s2.4-4.6,2.4-7.2-.6-4-1.8-5.7c-1.2-1.7-2.9-3.1-5.2-4.3-2.3-1.2-5.3-2.1-9-2.8l-13.8-2.7c-5.3-1-9.7-2.4-13.2-4.1-3.5-1.7-6.1-3.9-7.8-6.6-1.7-2.7-2.6-6-2.6-9.8s.7-5.4,2-7.9c1.3-2.4,3.3-4.6,5.9-6.5,2.6-1.9,5.9-3.4,9.7-4.5,3.9-1.1,8.5-1.7,13.8-1.7s10.9.7,14.9,2.1c4,1.4,7.2,3.2,9.6,5.4,2.4,2.2,4.1,4.5,5.2,6.9l-8.9,2.7Z"/>
    <path class="st2" d="M951.4,787.2h-27.1v68.4h-9.2v-68.4h-27.1v-8.6h63.3v8.6Z"/>
    <path class="st2" d="M970.8,855.5h-9.2v-77h9.2v77Z"/>
    <path class="st2" d="M1052.4,839.1c-1.9,3.7-4.3,6.8-7.2,9.4-2.9,2.6-6.4,4.7-10.3,6.2s-8.4,2.2-13.4,2.2c-7.8,0-14.3-1.7-19.6-5.1-5.3-3.4-9.3-8.1-12-14.1-2.7-6-4-12.9-4-20.9s1.3-14.8,4-20.8c2.7-6,6.7-10.7,12-14.1,5.3-3.4,11.8-5.1,19.6-5.1s9.3.7,13.3,2.2c4,1.5,7.4,3.5,10.3,6.2s5.3,5.8,7.2,9.3l-9.3,2.4c-1.4-2.3-3.1-4.3-5.1-6-2-1.8-4.4-3.1-7.1-4.1-2.7-1-5.8-1.5-9.2-1.5-5.9,0-10.8,1.3-14.6,4-3.8,2.6-6.7,6.3-8.6,11.1-1.9,4.7-2.9,10.2-2.9,16.3s1,11.7,2.9,16.4c1.9,4.7,4.8,8.4,8.6,11.1,3.8,2.7,8.7,4,14.6,4s6.5-.5,9.2-1.5c2.7-1,5.1-2.4,7.1-4.1,2.1-1.8,3.8-3.8,5.3-6.1l9.3,2.3Z"/>
    <path class="st2" d="M409.1,918.2c-.7-1.4-1.8-2.7-3.4-4-1.6-1.3-3.8-2.4-6.6-3.2-2.8-.9-6.5-1.3-11-1.3s-9.1.5-12.3,1.6c-3.2,1.1-5.6,2.5-7.2,4.4-1.6,1.8-2.4,3.8-2.4,6s.6,4.2,1.8,5.8c1.2,1.6,2.9,2.9,5.1,3.9,2.3,1,4.9,1.8,8,2.3l14.2,2.7c5.6,1.1,10.2,2.6,13.7,4.5,3.5,1.9,6.2,4.3,7.9,7.1,1.7,2.8,2.6,5.9,2.6,9.5s-.6,5.8-1.9,8.6c-1.3,2.8-3.2,5.2-5.8,7.4-2.6,2.2-5.8,3.9-9.8,5.2-4,1.3-8.7,1.9-14.1,1.9s-11.9-.8-16.2-2.3c-4.3-1.5-7.6-3.5-10-5.9-2.4-2.4-4.1-5.1-5-7.9l8.7-2.6c.6,1.7,1.7,3.3,3.3,4.8,1.6,1.5,3.9,2.8,7.1,3.7,3.1,1,7.2,1.5,12.2,1.5s9.2-.7,12.5-2c3.3-1.3,5.7-3.1,7.3-5.3s2.4-4.6,2.4-7.2-.6-4-1.8-5.7c-1.2-1.7-2.9-3.1-5.2-4.3-2.3-1.2-5.3-2.1-9-2.8l-13.8-2.7c-5.3-1-9.7-2.4-13.2-4.1-3.5-1.7-6.1-3.9-7.8-6.6-1.7-2.7-2.6-6-2.6-9.8s.7-5.4,2-7.9c1.3-2.4,3.3-4.6,5.9-6.5,2.6-1.9,5.9-3.4,9.7-4.5,3.9-1.1,8.5-1.7,13.8-1.7s10.9.7,14.9,2.1c4,1.4,7.2,3.2,9.6,5.4,2.4,2.2,4.1,4.5,5.2,6.9l-8.9,2.7Z"/>
    <path class="st2" d="M488.3,911.1h-27.1v68.4h-9.2v-68.4h-27.1v-8.6h63.3v8.6Z"/>
    <path class="st2" d="M498.6,979.5v-77h31.4c7.8,0,13.7,1,17.8,3.1,4.1,2.1,7,4.9,8.5,8.5,1.6,3.6,2.3,7.7,2.3,12.4s-.6,7.7-1.7,11c-1.2,3.3-3.3,6-6.3,8.2-3,2.1-7.4,3.6-13.1,4.3l19.2,29.6h-10.1l-18.9-29.2h-19.9v29.2h-9.2ZM549.3,926.4c0-3-.5-5.6-1.5-8-1-2.4-2.9-4.3-5.8-5.7-2.9-1.4-7.3-2.1-13.1-2.1h-21.1v31.7h21.1c5.8,0,10.2-.7,13.1-2.1s4.9-3.3,5.8-5.7c1-2.4,1.5-5.1,1.5-8Z"/>
    <path class="st2" d="M608.3,981.3c-7.8,0-14.2-1.6-19.4-4.7-5.2-3.1-9.1-7.5-11.7-13.2-2.6-5.7-3.9-12.5-3.9-20.2v-40.7h9.3v40.7c0,6.1.9,11.3,2.7,15.7,1.8,4.4,4.6,7.8,8.4,10.2,3.8,2.4,8.6,3.6,14.5,3.6s10.6-1.2,14.4-3.6c3.8-2.4,6.6-5.8,8.4-10.2,1.8-4.4,2.7-9.7,2.7-15.7v-40.7h9.3v40.7c0,7.8-1.3,14.5-3.8,20.2-2.6,5.7-6.5,10.1-11.7,13.2-5.2,3.1-11.7,4.7-19.4,4.7Z"/>
    <path class="st2" d="M722.6,963c-1.9,3.7-4.3,6.8-7.2,9.4-2.9,2.6-6.4,4.7-10.3,6.2s-8.4,2.2-13.4,2.2c-7.8,0-14.3-1.7-19.6-5.1-5.3-3.4-9.3-8.1-12-14.1-2.7-6-4-12.9-4-20.9s1.3-14.8,4-20.8c2.7-6,6.7-10.7,12-14.1,5.3-3.4,11.8-5.1,19.6-5.1s9.3.7,13.3,2.2c4,1.5,7.4,3.5,10.3,6.2s5.3,5.8,7.2,9.3l-9.3,2.4c-1.4-2.3-3.1-4.3-5.1-6-2-1.8-4.4-3.1-7.1-4.1-2.7-1-5.8-1.5-9.2-1.5-5.9,0-10.8,1.3-14.6,4-3.8,2.6-6.7,6.3-8.6,11.1-1.9,4.7-2.9,10.2-2.9,16.3s1,11.7,2.9,16.4c1.9,4.7,4.8,8.4,8.6,11.1,3.8,2.7,8.7,4,14.6,4s6.5-.5,9.2-1.5c2.7-1,5.1-2.4,7.1-4.1,2.1-1.8,3.8-3.8,5.3-6.1l9.3,2.3Z"/>
    <path class="st2" d="M794.2,911.1h-27.1v68.4h-9.2v-68.4h-27.1v-8.6h63.3v8.6Z"/>
    <path class="st2" d="M838.7,981.3c-7.8,0-14.2-1.6-19.4-4.7-5.2-3.1-9.1-7.5-11.7-13.2-2.6-5.7-3.9-12.5-3.9-20.2v-40.7h9.3v40.7c0,6.1.9,11.3,2.7,15.7,1.8,4.4,4.6,7.8,8.4,10.2,3.8,2.4,8.6,3.6,14.5,3.6s10.6-1.2,14.4-3.6c3.8-2.4,6.6-5.8,8.4-10.2,1.8-4.4,2.7-9.7,2.7-15.7v-40.7h9.3v40.7c0,7.8-1.3,14.5-3.8,20.2-2.6,5.7-6.5,10.1-11.7,13.2-5.2,3.1-11.7,4.7-19.4,4.7Z"/>
    <path class="st2" d="M891.2,979.5v-77h31.4c7.8,0,13.7,1,17.8,3.1,4.1,2.1,7,4.9,8.5,8.5,1.6,3.6,2.3,7.7,2.3,12.4s-.6,7.7-1.7,11c-1.2,3.3-3.3,6-6.3,8.2-3,2.1-7.4,3.6-13.1,4.3l19.2,29.6h-10.1l-18.9-29.2h-19.9v29.2h-9.2ZM941.9,926.4c0-3-.5-5.6-1.5-8-1-2.4-2.9-4.3-5.8-5.7-2.9-1.4-7.3-2.1-13.1-2.1h-21.1v31.7h21.1c5.8,0,10.2-.7,13.1-2.1s4.9-3.3,5.8-5.7c1-2.4,1.5-5.1,1.5-8Z"/>
    <path class="st2" d="M1018.4,911.1h-41.3v24.3h39v7.9h-39v27.5h43.6v8.6h-52.8v-77h50.5v8.6Z"/>
    <path class="st2" d="M1036.2,980.5c-1.7,0-3.2-.6-4.4-1.9-1.2-1.2-1.9-2.7-1.9-4.4s.6-3.3,1.9-4.6c1.2-1.3,2.7-1.9,4.4-1.9s3.2.6,4.4,1.9c1.2,1.3,1.9,2.8,1.9,4.6s-.6,3.2-1.9,4.4c-1.2,1.2-2.7,1.9-4.4,1.9Z"/>
  </g>
</svg>