<?xml version="1.0" encoding="UTF-8"?>
<svg id="Capa_1" xmlns="http://www.w3.org/2000/svg" version="1.1" viewBox="0 0 1400 1400">
  <!-- Generator: Adobe Illustrator 29.4.0, SVG Export Plug-In . SVG Version: 2.1.0 Build 152)  -->
  <defs>
    <style>
      .st0 {
        fill: #35d3d2;
      }

      .st1 {
        fill: #f2f2f2;
      }

      .st2 {
        fill: #181818;
      }
    </style>
  </defs>
  <g id="Capa_2">
    <rect class="st1" x="-.3" width="1400" height="1400"/>
  </g>
  <g>
    <path class="st2" d="M264.5,408.6h-13.3l-14.6-32.1h-53.1l-14.4,32.1h-13.3l47.5-104.5h13.6l47.5,104.5ZM188.3,365.5h43.5l-21.9-48.1-21.7,48.1Z"/>
    <path class="st2" d="M419.6,354.1c0,1.1,0,2.1-.2,3.2-.4,10.5-2.4,19.7-5.9,27.8-3.5,8.1-8.8,14.4-15.8,19.1-7,4.6-15.8,7-26.6,7s-19.6-2.4-26.8-7.1c-7.2-4.8-12.6-11.3-16.2-19.6-3.6-8.3-5.4-17.7-5.4-28.3s2-20.1,5.9-28.4c3.9-8.3,9.6-14.8,17-19.5,7.4-4.7,16.4-7,27-7s13.2,1,18.8,3.1c5.6,2.1,10.5,5,14.6,8.7,4.1,3.7,7.4,8.2,10,13.4l-12.5,3.5c-2.9-5.3-6.9-9.4-12.2-12.4-5.3-3-11.5-4.4-18.7-4.4s-14.8,1.8-20.3,5.5c-5.5,3.6-9.7,8.7-12.5,15.3-2.9,6.5-4.3,14-4.3,22.3s1.2,15.6,3.7,22.1c2.5,6.5,6.3,11.6,11.6,15.4,5.2,3.8,12,5.7,20.2,5.7s12.9-1.5,17.8-4.4c4.9-2.9,8.8-7,11.7-12.2,2.9-5.2,4.7-11.2,5.5-18h-43.2v-10.8h56.7Z"/>
    <path class="st2" d="M439.9,408.6v-104.5h42.6c10.6,0,18.6,1.4,24.2,4.2,5.6,2.8,9.4,6.6,11.6,11.5,2.1,4.9,3.2,10.5,3.2,16.8s-.8,10.5-2.4,15c-1.6,4.5-4.4,8.2-8.6,11.1-4.1,2.9-10,4.8-17.7,5.8l26.1,40.2h-13.8l-25.7-39.6h-27.1v39.6h-12.5ZM508.8,336.5c0-4-.7-7.7-2-10.9-1.3-3.3-4-5.9-7.9-7.8-4-1.9-9.9-2.9-17.8-2.9h-28.7v43.1h28.7c7.9,0,13.9-1,17.8-2.9,4-1.9,6.6-4.5,7.9-7.8,1.3-3.3,2-6.9,2-10.9Z"/>
    <path class="st2" d="M590,410.2c-11.6,0-21.3-2.3-29-6.9-7.7-4.6-13.5-11-17.4-19.1-3.9-8.1-5.9-17.5-5.9-28s2-19.7,5.9-27.9c3.9-8.1,9.7-14.5,17.4-19.2,7.7-4.6,17.4-7,29-7s21,2.3,28.7,7c7.8,4.6,13.6,11,17.5,19.2,3.9,8.1,5.9,17.4,5.9,27.9s-2,19.9-5.9,28c-3.9,8.1-9.7,14.5-17.5,19.1-7.8,4.6-17.3,6.9-28.7,6.9ZM590,398.5c9,0,16.4-1.8,22.2-5.4,5.8-3.6,10.1-8.6,13-15,2.9-6.4,4.3-13.7,4.3-21.9s-1.4-15.4-4.3-21.8c-2.9-6.4-7.2-11.4-13-15-5.8-3.6-13.2-5.4-22.2-5.4s-16.5,1.8-22.3,5.4c-5.8,3.6-10.1,8.6-12.9,15-2.8,6.4-4.2,13.6-4.2,21.8s1.4,15.5,4.2,21.9c2.8,6.4,7.1,11.4,12.9,15,5.8,3.6,13.2,5.4,22.3,5.4Z"/>
    <path class="st2" d="M738.9,315.8h-36.7v92.8h-12.5v-92.8h-36.7v-11.7h86v11.7Z"/>
    <path class="st2" d="M821.4,315.8h-56.1v32.9h52.9v10.8h-52.9v37.4h59.2v11.7h-71.7v-104.5h68.6v11.7Z"/>
    <path class="st2" d="M906.6,325.4c-.8-1.9-2.4-3.7-4.5-5.5-2.2-1.7-5.2-3.2-9-4.4-3.9-1.2-8.8-1.7-15-1.7s-12.2.7-16.5,2.2c-4.4,1.5-7.7,3.5-9.8,5.9-2.2,2.5-3.2,5.2-3.2,8.2s.8,5.7,2.4,7.8c1.6,2.2,3.9,3.9,7,5.3,3.1,1.4,6.7,2.4,10.9,3.2l19.2,3.6c7.6,1.5,13.8,3.5,18.7,6.2,4.9,2.6,8.4,5.8,10.7,9.6,2.3,3.7,3.4,8.1,3.4,12.9s-.8,7.9-2.5,11.6c-1.7,3.7-4.3,7.1-7.8,10.1-3.5,3-7.9,5.3-13.4,7-5.4,1.7-11.9,2.6-19.2,2.6s-16.2-1-22-3.1c-5.8-2.1-10.3-4.8-13.5-8.1-3.2-3.3-5.5-6.9-6.9-10.7l12-3.5c.8,2.3,2.3,4.5,4.5,6.6,2.2,2.1,5.3,3.7,9.5,5.1,4.2,1.3,9.7,2,16.7,2s12.4-.9,16.8-2.7c4.4-1.8,7.7-4.2,9.9-7.2,2.2-3,3.2-6.3,3.2-9.7s-.8-5.4-2.3-7.7c-1.5-2.3-3.9-4.2-7-5.8s-7.2-2.9-12.2-3.8l-18.5-3.6c-7.3-1.4-13.3-3.2-18.1-5.5-4.8-2.3-8.3-5.3-10.6-9-2.3-3.7-3.5-8.1-3.5-13.3s.9-7.4,2.6-10.7c1.7-3.3,4.4-6.3,7.9-8.8,3.5-2.5,8-4.6,13.4-6.1,5.4-1.5,11.6-2.3,18.7-2.3s14.9,1,20.3,2.9c5.4,1.9,9.7,4.4,13,7.4,3.3,3,5.6,6.2,7.1,9.4l-12.2,3.6Z"/>
    <path class="st2" d="M986.7,410.2c-11.6,0-21.3-2.3-29-6.9-7.7-4.6-13.5-11-17.4-19.1-3.9-8.1-5.9-17.5-5.9-28s2-19.7,5.9-27.9c3.9-8.1,9.7-14.5,17.4-19.2,7.7-4.6,17.4-7,29-7s21,2.3,28.7,7c7.8,4.6,13.6,11,17.5,19.2,3.9,8.1,5.9,17.4,5.9,27.9s-2,19.9-5.9,28c-3.9,8.1-9.7,14.5-17.5,19.1s-17.3,6.9-28.7,6.9ZM986.7,398.5c9,0,16.4-1.8,22.2-5.4,5.8-3.6,10.1-8.6,13-15,2.9-6.4,4.3-13.7,4.3-21.9s-1.4-15.4-4.3-21.8c-2.9-6.4-7.2-11.4-13-15-5.8-3.6-13.2-5.4-22.2-5.4s-16.5,1.8-22.3,5.4c-5.8,3.6-10.1,8.6-12.9,15-2.8,6.4-4.2,13.6-4.2,21.8s1.4,15.5,4.2,21.9c2.8,6.4,7.1,11.4,12.9,15,5.8,3.6,13.2,5.4,22.3,5.4ZM992.1,407.8v18.4h-10.8v-18.4h10.8Z"/>
    <path class="st2" d="M1103.9,411.1c-10.6,0-19.3-2.1-26.4-6.3-7-4.2-12.3-10.2-15.8-18-3.5-7.8-5.3-16.9-5.3-27.5v-55.3h12.7v55.3c0,8.2,1.2,15.4,3.7,21.4,2.5,6,6.3,10.6,11.4,13.9,5.1,3.2,11.7,4.8,19.7,4.8s14.4-1.6,19.6-4.8c5.1-3.2,8.9-7.8,11.4-13.9,2.5-6,3.7-13.1,3.7-21.4v-55.3h12.7v55.3c0,10.6-1.7,19.7-5.2,27.5-3.5,7.8-8.8,13.8-15.8,18-7.1,4.2-15.8,6.3-26.3,6.3Z"/>
    <path class="st2" d="M1243.7,315.8h-56.1v32.9h52.9v10.8h-52.9v37.4h59.2v11.7h-71.7v-104.5h68.6v11.7Z"/>
    <path class="st2" d="M156.8,484h-36.7v92.8h-12.5v-92.8h-36.7v-11.7h86v11.7Z"/>
    <path class="st2" d="M214,576.8h-12.5v-50.8l-37.1-53.7h14.1l29.1,43.1,29.5-43.1h13.9l-37.1,53.7v50.8Z"/>
    <path class="st2" d="M309.2,472.3c10.6,0,18.6,1.4,24.2,4.2,5.6,2.8,9.4,6.6,11.6,11.5,2.1,4.9,3.2,10.5,3.2,16.8s-1.1,11.8-3.2,16.7c-2.1,4.9-6,8.8-11.6,11.6-5.6,2.8-13.7,4.2-24.2,4.2h-30.1v39.6h-12.5v-104.5h42.6ZM307.8,483.3h-28.7v43.1h28.7c7.9,0,13.9-1,17.8-2.9,4-1.9,6.6-4.5,7.9-7.8,1.3-3.3,2-6.9,2-10.9s-.7-7.7-2-10.9c-1.3-3.3-4-5.9-7.9-7.8-4-1.9-9.9-2.9-17.8-2.9Z"/>
    <path class="st2" d="M439.4,484h-56.1v32.9h52.9v10.8h-52.9v37.4h59.2v11.7h-71.7v-104.5h68.6v11.7Z"/>
    <path class="st2" d="M528.2,484h-56.1v32.9h52.4v10.8h-52.4v49.1h-12.5v-104.5h68.6v11.7Z"/>
    <path class="st2" d="M646,576.8h-13.3l-14.6-32.1h-53.1l-14.4,32.1h-13.3l47.5-104.5h13.6l47.5,104.5ZM569.8,533.8h43.5l-21.9-48.1-21.7,48.1Z"/>
    <path class="st2" d="M745.6,554.5c-2.5,5-5.8,9.2-9.7,12.8-4,3.6-8.6,6.4-14,8.4-5.4,2-11.5,3-18.2,3-10.6,0-19.4-2.3-26.6-6.9-7.2-4.6-12.6-11-16.2-19.1-3.6-8.1-5.5-17.6-5.5-28.3s1.8-20.1,5.5-28.3c3.6-8.2,9.1-14.6,16.2-19.2,7.2-4.6,16-6.9,26.6-6.9s12.7,1,18.1,3c5.4,2,10.1,4.8,14,8.4,4,3.6,7.2,7.8,9.7,12.7l-12.7,3.3c-1.9-3.1-4.2-5.8-7-8.2-2.7-2.4-6-4.2-9.7-5.5-3.7-1.3-7.9-2-12.5-2-8,0-14.6,1.8-19.9,5.4-5.2,3.6-9.1,8.6-11.7,15-2.6,6.4-3.9,13.8-3.9,22.2s1.3,15.9,3.9,22.2c2.6,6.4,6.5,11.4,11.7,15s11.8,5.5,19.9,5.5,8.8-.7,12.4-2c3.6-1.3,6.9-3.2,9.7-5.6,2.8-2.4,5.2-5.2,7.2-8.2l12.7,3.2Z"/>
    <path class="st2" d="M834.9,484h-56.1v32.9h52.9v10.8h-52.9v37.4h59.2v11.7h-71.7v-104.5h68.6v11.7Z"/>
    <path class="st2" d="M939,576.8l-45.4-104.5h13.9l38.3,90.3,38.5-90.3h14.1l38.5,90.3,38.2-90.3h14.3l-45.6,104.5h-13.9l-38.3-88-38.5,88h-13.9Z"/>
    <path class="st2" d="M1119,576.8h-12.5v-104.5h12.5v104.5Z"/>
    <path class="st2" d="M1222.3,484h-36.7v92.8h-12.5v-92.8h-36.7v-11.7h86v11.7Z"/>
    <path class="st2" d="M1248.7,517h60.8l-.2-44.7h12.5l.2,104.5h-12.5v-48.1h-60.8v48.1h-12.5v-104.5h12.5v44.7Z"/>
    <path class="st2" d="M443.2,745.1h-13.3l-14.6-32.1h-53.1l-14.4,32.1h-13.3l47.5-104.5h13.6l47.5,104.5ZM367,702h43.5l-21.9-48.1-21.7,48.1Z"/>
    <path class="st2" d="M572.9,662c-.8-1.9-2.4-3.7-4.5-5.5-2.2-1.7-5.2-3.2-9-4.4-3.9-1.2-8.8-1.7-15-1.7s-12.2.7-16.5,2.2c-4.4,1.5-7.7,3.5-9.8,5.9-2.2,2.5-3.2,5.2-3.2,8.2s.8,5.7,2.4,7.8c1.6,2.2,3.9,3.9,7,5.3,3.1,1.4,6.7,2.4,10.9,3.2l19.2,3.6c7.6,1.5,13.8,3.5,18.7,6.2,4.9,2.6,8.4,5.8,10.7,9.6,2.3,3.7,3.4,8.1,3.4,12.9s-.8,7.9-2.5,11.6c-1.7,3.7-4.3,7.1-7.8,10.1-3.5,3-7.9,5.3-13.4,7-5.4,1.7-11.9,2.6-19.2,2.6s-16.2-1-22-3.1c-5.8-2.1-10.3-4.8-13.5-8.1-3.2-3.3-5.5-6.9-6.9-10.7l12-3.5c.8,2.3,2.3,4.5,4.5,6.6,2.2,2.1,5.3,3.7,9.5,5.1,4.2,1.3,9.7,2,16.7,2s12.4-.9,16.8-2.7c4.4-1.8,7.7-4.2,9.9-7.2,2.2-3,3.2-6.3,3.2-9.7s-.8-5.4-2.3-7.7c-1.5-2.3-3.9-4.2-7-5.8-3.2-1.6-7.2-2.9-12.2-3.8l-18.5-3.6c-7.3-1.4-13.3-3.2-18.1-5.5-4.8-2.3-8.3-5.3-10.6-9-2.3-3.7-3.5-8.1-3.5-13.3s.9-7.4,2.6-10.7c1.7-3.3,4.4-6.3,7.9-8.8,3.5-2.5,8-4.6,13.4-6.1,5.4-1.5,11.6-2.3,18.7-2.3s14.9,1,20.3,2.9c5.4,1.9,9.7,4.4,13,7.4,3.3,3,5.6,6.2,7.1,9.4l-12.2,3.6Z"/>
    <path class="st2" d="M651.9,747.6c-10.6,0-19.3-2.1-26.4-6.3-7-4.2-12.3-10.2-15.8-18-3.5-7.8-5.3-16.9-5.3-27.5v-55.3h12.7v55.3c0,8.2,1.2,15.4,3.7,21.4,2.5,6,6.3,10.6,11.4,13.9,5.1,3.2,11.7,4.8,19.7,4.8s14.4-1.6,19.6-4.8c5.1-3.2,8.9-7.8,11.4-13.9,2.5-6,3.7-13.1,3.7-21.4v-55.3h12.7v55.3c0,10.6-1.7,19.7-5.2,27.5-3.5,7.8-8.8,13.8-15.8,18-7.1,4.2-15.8,6.3-26.3,6.3Z"/>
    <path class="st2" d="M765.7,640.6c10.6,0,18.6,1.1,24.2,3.3,5.6,2.2,9.4,5.5,11.6,9.7,2.1,4.3,3.2,9.6,3.2,15.9s-.5,6.6-1.6,9.7c-1.1,3.1-2.8,5.8-5.3,8.1-2.5,2.3-5.9,4-10.2,5.1,6.7,1.7,11.3,4.7,13.9,8.9,2.6,4.3,3.9,9.2,3.9,14.6s-1.1,11.5-3.3,15.8c-2.2,4.3-6.2,7.6-11.9,9.9-5.7,2.3-13.8,3.4-24.4,3.4h-42.6v-104.5h42.6ZM735.6,686.5h28.7c7.8,0,13.7-.7,17.7-2.2,4-1.5,6.7-3.5,8-6.1,1.3-2.6,2-5.5,2-8.6s-.7-7.4-2-10.1c-1.3-2.7-4-4.7-8-6-4-1.3-9.9-2-17.7-2h-28.7v35ZM735.6,734.2h28.7c7.8,0,13.8-.7,17.8-2.1,4.1-1.4,6.8-3.4,8.2-6.1,1.4-2.7,2.1-6,2.1-10.1s-.7-6.7-2.1-9.5c-1.4-2.9-4.1-5.1-8.2-6.7-4-1.6-10-2.4-17.9-2.4h-28.7v36.7Z"/>
    <path class="st2" d="M904.5,652.3h-36.7v92.8h-12.5v-92.8h-36.7v-11.7h86v11.7Z"/>
    <path class="st2" d="M930.9,733.4h48.5v11.7h-61v-104.5h12.5v92.8Z"/>
    <path class="st2" d="M1065,652.3h-56.1v32.9h52.9v10.8h-52.9v37.4h59.2v11.7h-71.7v-104.5h68.6v11.7Z"/>
    <path class="st2" d="M241.2,853.5h60.8l-.2-44.7h12.5l.2,104.5h-12.5v-48.1h-60.8v48.1h-12.5v-104.5h12.5v44.7Z"/>
    <path class="st2" d="M385.9,915.9c-10.6,0-19.3-2.1-26.4-6.3-7-4.2-12.3-10.2-15.8-18-3.5-7.8-5.3-16.9-5.3-27.5v-55.3h12.7v55.3c0,8.2,1.2,15.4,3.7,21.4,2.5,6,6.3,10.6,11.4,13.9,5.1,3.2,11.7,4.8,19.7,4.8s14.4-1.6,19.6-4.8c5.1-3.2,8.9-7.8,11.4-13.9,2.5-6,3.7-13.1,3.7-21.4v-55.3h12.7v55.3c0,10.6-1.7,19.7-5.2,27.5s-8.8,13.8-15.8,18c-7.1,4.2-15.8,6.3-26.3,6.3Z"/>
    <path class="st2" d="M508.3,913.4l-38.6-79.3v79.3h-12.5v-104.5h13.6l44,91.1,44.3-91.1h13.5v104.5h-12.5v-79.3l-38.5,79.3h-13.3Z"/>
    <path class="st2" d="M698.7,913.4h-13.3l-14.6-32.1h-53.1l-14.4,32.1h-13.3l47.5-104.5h13.6l47.5,104.5ZM622.5,870.3h43.5l-21.9-48.1-21.7,48.1Z"/>
    <path class="st2" d="M804.1,808.8l-.2,104.5h-12.4l-63-84.9-.2,84.9h-12.5v-104.5h12.4l63.2,85v-85h12.7Z"/>
    <path class="st2" d="M843.3,913.4h-12.5v-104.5h12.5v104.5Z"/>
    <path class="st2" d="M934.9,830.2c-.8-1.9-2.4-3.7-4.5-5.5-2.2-1.7-5.2-3.2-9-4.4-3.9-1.2-8.8-1.7-15-1.7s-12.2.7-16.5,2.2c-4.4,1.5-7.7,3.5-9.8,5.9-2.2,2.5-3.2,5.2-3.2,8.2s.8,5.7,2.4,7.8c1.6,2.2,3.9,3.9,7,5.3,3.1,1.4,6.7,2.4,10.9,3.2l19.2,3.6c7.6,1.5,13.8,3.5,18.7,6.2,4.9,2.6,8.4,5.8,10.7,9.6,2.3,3.7,3.4,8.1,3.4,12.9s-.8,7.9-2.5,11.6c-1.7,3.7-4.3,7.1-7.8,10.1-3.5,3-7.9,5.3-13.4,7-5.4,1.7-11.9,2.6-19.2,2.6s-16.2-1-22-3.1c-5.8-2.1-10.3-4.8-13.5-8.1-3.2-3.3-5.5-6.9-6.9-10.7l12-3.5c.8,2.3,2.3,4.5,4.5,6.6,2.2,2.1,5.3,3.7,9.5,5.1,4.2,1.3,9.7,2,16.7,2s12.4-.9,16.8-2.7c4.4-1.8,7.7-4.2,9.9-7.2,2.2-3,3.2-6.3,3.2-9.7s-.8-5.4-2.3-7.7c-1.5-2.3-3.9-4.2-7-5.8-3.2-1.6-7.2-2.9-12.2-3.8l-18.5-3.6c-7.3-1.4-13.3-3.2-18.1-5.5-4.8-2.3-8.3-5.3-10.6-9-2.3-3.7-3.5-8.1-3.5-13.3s.9-7.4,2.6-10.7c1.7-3.3,4.4-6.3,7.9-8.8,3.5-2.5,8-4.6,13.4-6.1,5.4-1.5,11.6-2.3,18.7-2.3s14.9,1,20.3,2.9,9.7,4.4,13,7.4c3.3,3,5.6,6.2,7.1,9.4l-12.2,3.6Z"/>
    <path class="st2" d="M1042.5,820.6h-36.7v92.8h-12.5v-92.8h-36.7v-11.7h86v11.7Z"/>
    <path class="st2" d="M1068.9,913.4h-12.5v-104.5h12.5v104.5Z"/>
    <path class="st2" d="M1179.6,891c-2.5,5-5.8,9.2-9.7,12.8-4,3.6-8.6,6.4-14,8.4-5.4,2-11.5,3-18.2,3-10.6,0-19.4-2.3-26.6-6.9-7.2-4.6-12.6-11-16.2-19.1-3.6-8.1-5.5-17.6-5.5-28.3s1.8-20.1,5.5-28.3c3.6-8.2,9.1-14.6,16.2-19.2,7.2-4.6,16-6.9,26.6-6.9s12.7,1,18.1,3c5.4,2,10.1,4.8,14,8.4,4,3.6,7.2,7.8,9.7,12.7l-12.7,3.3c-1.9-3.1-4.2-5.8-7-8.2-2.7-2.4-6-4.2-9.7-5.5-3.7-1.3-7.9-2-12.5-2-8,0-14.6,1.8-19.9,5.4-5.2,3.6-9.1,8.6-11.7,15-2.6,6.4-3.9,13.8-3.9,22.2s1.3,15.9,3.9,22.2c2.6,6.4,6.5,11.4,11.7,15,5.2,3.6,11.9,5.5,19.9,5.5s8.8-.7,12.4-2c3.6-1.3,6.9-3.2,9.7-5.6,2.8-2.4,5.2-5.2,7.2-8.2l12.7,3.2Z"/>
    <path class="st2" d="M306.3,998.5c-.8-1.9-2.4-3.7-4.5-5.5-2.2-1.7-5.2-3.2-9-4.4-3.9-1.2-8.8-1.7-15-1.7s-12.2.7-16.5,2.2c-4.4,1.5-7.7,3.5-9.8,5.9-2.2,2.5-3.2,5.2-3.2,8.2s.8,5.7,2.4,7.8c1.6,2.2,3.9,3.9,7,5.3,3.1,1.4,6.7,2.4,10.9,3.2l19.2,3.6c7.6,1.5,13.8,3.5,18.7,6.2,4.9,2.6,8.4,5.8,10.7,9.6,2.3,3.7,3.4,8.1,3.4,12.9s-.8,7.9-2.5,11.6c-1.7,3.7-4.3,7.1-7.8,10.1-3.5,3-7.9,5.3-13.4,7-5.4,1.7-11.9,2.6-19.2,2.6s-16.2-1-22-3.1c-5.8-2.1-10.3-4.8-13.5-8.1-3.2-3.3-5.5-6.9-6.9-10.7l12-3.5c.8,2.3,2.3,4.5,4.5,6.6,2.2,2.1,5.3,3.7,9.5,5.1,4.2,1.3,9.7,2,16.7,2s12.4-.9,16.8-2.7c4.4-1.8,7.7-4.2,9.9-7.2,2.2-3,3.2-6.3,3.2-9.7s-.8-5.4-2.3-7.7c-1.5-2.3-3.9-4.2-7-5.8-3.2-1.6-7.2-2.9-12.2-3.8l-18.5-3.6c-7.3-1.4-13.3-3.2-18.1-5.5-4.8-2.3-8.3-5.3-10.6-9-2.3-3.7-3.5-8.1-3.5-13.3s.9-7.4,2.6-10.7c1.7-3.3,4.4-6.3,7.9-8.8,3.5-2.5,8-4.6,13.4-6.1,5.4-1.5,11.6-2.3,18.7-2.3s14.9,1,20.3,2.9c5.4,1.9,9.7,4.4,13,7.4,3.3,3,5.6,6.2,7.1,9.4l-12.2,3.6Z"/>
    <path class="st2" d="M413.8,988.8h-36.7v92.8h-12.5v-92.8h-36.7v-11.7h86v11.7Z"/>
    <path class="st2" d="M427.7,1081.6v-104.5h42.6c10.6,0,18.6,1.4,24.2,4.2,5.6,2.8,9.4,6.6,11.6,11.5,2.1,4.9,3.2,10.5,3.2,16.8s-.8,10.5-2.4,15c-1.6,4.5-4.4,8.2-8.6,11.1-4.1,2.9-10,4.8-17.7,5.8l26.1,40.2h-13.8l-25.7-39.6h-27.1v39.6h-12.5ZM496.6,1009.6c0-4-.7-7.7-2-10.9-1.3-3.3-4-5.9-7.9-7.8-4-1.9-9.9-2.9-17.8-2.9h-28.7v43.1h28.7c7.9,0,13.9-1,17.8-2.9,4-1.9,6.6-4.5,7.9-7.8,1.3-3.3,2-6.9,2-10.9Z"/>
    <path class="st2" d="M576.7,1084.2c-10.6,0-19.3-2.1-26.4-6.3-7-4.2-12.3-10.2-15.8-18-3.5-7.8-5.3-16.9-5.3-27.5v-55.3h12.7v55.3c0,8.2,1.2,15.4,3.7,21.4,2.5,6,6.3,10.6,11.4,13.9,5.1,3.2,11.7,4.8,19.7,4.8s14.4-1.6,19.6-4.8c5.1-3.2,8.9-7.8,11.4-13.9,2.5-6,3.7-13.1,3.7-21.4v-55.3h12.7v55.3c0,10.6-1.7,19.7-5.2,27.5-3.5,7.8-8.8,13.8-15.8,18-7.1,4.2-15.8,6.3-26.3,6.3Z"/>
    <path class="st2" d="M731.9,1059.3c-2.5,5-5.8,9.2-9.7,12.8-4,3.6-8.6,6.4-14,8.4-5.4,2-11.5,3-18.2,3-10.6,0-19.4-2.3-26.6-6.9-7.2-4.6-12.6-11-16.2-19.1-3.6-8.1-5.5-17.6-5.5-28.3s1.8-20.1,5.5-28.3c3.6-8.2,9.1-14.6,16.2-19.2,7.2-4.6,16-6.9,26.6-6.9s12.7,1,18.1,3c5.4,2,10.1,4.8,14,8.4,4,3.6,7.2,7.8,9.7,12.7l-12.7,3.3c-1.9-3.1-4.2-5.8-7-8.2-2.7-2.4-6-4.2-9.7-5.5-3.7-1.3-7.9-2-12.5-2-8,0-14.6,1.8-19.9,5.4-5.2,3.6-9.1,8.6-11.7,15-2.6,6.4-3.9,13.8-3.9,22.2s1.3,15.9,3.9,22.2c2.6,6.4,6.5,11.4,11.7,15s11.8,5.5,19.9,5.5,8.8-.7,12.4-2c3.6-1.3,6.9-3.2,9.7-5.6,2.8-2.4,5.2-5.2,7.2-8.2l12.7,3.2Z"/>
    <path class="st2" d="M829.2,988.8h-36.7v92.8h-12.5v-92.8h-36.7v-11.7h86v11.7Z"/>
    <path class="st2" d="M889.5,1084.2c-10.6,0-19.3-2.1-26.4-6.3-7-4.2-12.3-10.2-15.8-18-3.5-7.8-5.3-16.9-5.3-27.5v-55.3h12.7v55.3c0,8.2,1.2,15.4,3.7,21.4,2.5,6,6.3,10.6,11.4,13.9,5.1,3.2,11.7,4.8,19.7,4.8s14.4-1.6,19.6-4.8c5.1-3.2,8.9-7.8,11.4-13.9,2.5-6,3.7-13.1,3.7-21.4v-55.3h12.7v55.3c0,10.6-1.7,19.7-5.2,27.5-3.5,7.8-8.8,13.8-15.8,18-7.1,4.2-15.8,6.3-26.3,6.3Z"/>
    <path class="st2" d="M960.8,1081.6v-104.5h42.6c10.6,0,18.6,1.4,24.2,4.2,5.6,2.8,9.4,6.6,11.6,11.5,2.1,4.9,3.2,10.5,3.2,16.8s-.8,10.5-2.4,15c-1.6,4.5-4.4,8.2-8.6,11.1-4.1,2.9-10,4.8-17.7,5.8l26.1,40.2h-13.8l-25.7-39.6h-27.1v39.6h-12.5ZM1029.6,1009.6c0-4-.7-7.7-2-10.9-1.3-3.3-4-5.9-7.9-7.8-4-1.9-9.9-2.9-17.8-2.9h-28.7v43.1h28.7c7.9,0,13.9-1,17.8-2.9,4-1.9,6.6-4.5,7.9-7.8,1.3-3.3,2-6.9,2-10.9Z"/>
    <path class="st2" d="M1133.5,988.8h-56.1v32.9h52.9v10.8h-52.9v37.4h59.2v11.7h-71.7v-104.5h68.6v11.7Z"/>
    <path class="st2" d="M1157.6,1083c-2.3,0-4.3-.8-6-2.5-1.7-1.7-2.5-3.7-2.5-6s.8-4.5,2.5-6.3c1.7-1.7,3.7-2.6,6-2.6s4.3.9,6,2.6c1.7,1.7,2.5,3.8,2.5,6.3s-.8,4.3-2.5,6c-1.7,1.7-3.7,2.5-6,2.5Z"/>
  </g>
  <g>
    <path class="st0" d="M484.4,65.2v65.3h-7.8l-39.4-53.1v53.1h-7.9v-65.3h7.7l39.5,53.1v-53.1h7.9Z"/>
    <path class="st0" d="M563.2,130.5h-8.3l-9.1-20.1h-33.2l-9,20.1h-8.3l29.7-65.3h8.5l29.7,65.3ZM515.6,103.6h27.2l-13.7-30.1-13.6,30.1Z"/>
    <path class="st0" d="M615.7,72.5h-23v58h-7.8v-58h-23v-7.3h53.7v7.3Z"/>
    <path class="st0" d="M681.7,130.5h-8.3l-9.1-20.1h-33.2l-9,20.1h-8.3l29.7-65.3h8.5l29.7,65.3ZM634,103.6h27.2l-13.7-30.1-13.6,30.1Z"/>
    <path class="st0" d="M762.7,78.6c-.5-1.2-1.5-2.3-2.8-3.4-1.4-1.1-3.2-2-5.6-2.7-2.4-.7-5.5-1.1-9.4-1.1s-7.6.5-10.3,1.4c-2.7.9-4.8,2.2-6.1,3.7-1.4,1.6-2,3.3-2,5.1s.5,3.5,1.5,4.9c1,1.4,2.4,2.5,4.4,3.3,1.9.9,4.2,1.5,6.8,2l12,2.3c4.8.9,8.6,2.2,11.7,3.9,3,1.7,5.3,3.6,6.7,6,1.4,2.3,2.1,5,2.1,8.1s-.5,4.9-1.6,7.3c-1.1,2.3-2.7,4.4-4.9,6.3-2.2,1.8-5,3.3-8.4,4.4-3.4,1.1-7.4,1.6-12,1.6s-10.1-.6-13.8-1.9c-3.6-1.3-6.5-3-8.5-5-2-2.1-3.4-4.3-4.3-6.7l7.5-2.2c.5,1.5,1.5,2.8,2.8,4.1,1.4,1.3,3.3,2.3,5.9,3.2,2.6.8,6.1,1.2,10.4,1.2s7.7-.6,10.5-1.7c2.8-1.1,4.8-2.6,6.2-4.5,1.4-1.9,2-3.9,2-6.1s-.5-3.4-1.4-4.8c-1-1.4-2.4-2.6-4.4-3.6s-4.5-1.8-7.6-2.4l-11.6-2.3c-4.6-.9-8.3-2-11.3-3.5-3-1.5-5.2-3.3-6.6-5.6-1.5-2.3-2.2-5.1-2.2-8.3s.5-4.6,1.6-6.7c1.1-2.1,2.7-3.9,4.9-5.5,2.2-1.6,5-2.9,8.4-3.8,3.4-1,7.3-1.4,11.7-1.4s9.3.6,12.7,1.8,6.1,2.7,8.1,4.6c2,1.9,3.5,3.8,4.5,5.9l-7.6,2.3Z"/>
    <path class="st0" d="M845.3,130.5h-8.3l-9.1-20.1h-33.2l-9,20.1h-8.3l29.7-65.3h8.5l29.7,65.3ZM797.7,103.6h27.2l-13.7-30.1-13.6,30.1Z"/>
    <path class="st0" d="M911.2,65.2v65.3h-7.8l-39.4-53.1v53.1h-7.9v-65.3h7.7l39.5,53.1v-53.1h7.9Z"/>
    <path class="st0" d="M968.4,78.6c-.5-1.2-1.5-2.3-2.8-3.4-1.4-1.1-3.2-2-5.6-2.7-2.4-.7-5.5-1.1-9.4-1.1s-7.6.5-10.3,1.4c-2.7.9-4.8,2.2-6.1,3.7-1.4,1.6-2,3.3-2,5.1s.5,3.5,1.5,4.9c1,1.4,2.4,2.5,4.4,3.3,1.9.9,4.2,1.5,6.8,2l12,2.3c4.8.9,8.6,2.2,11.7,3.9,3,1.7,5.3,3.6,6.7,6,1.4,2.3,2.1,5,2.1,8.1s-.5,4.9-1.6,7.3c-1.1,2.3-2.7,4.4-4.9,6.3-2.2,1.8-5,3.3-8.4,4.4-3.4,1.1-7.4,1.6-12,1.6s-10.1-.6-13.8-1.9c-3.6-1.3-6.5-3-8.5-5-2-2.1-3.4-4.3-4.3-6.7l7.5-2.2c.5,1.5,1.5,2.8,2.8,4.1,1.4,1.3,3.3,2.3,5.9,3.2,2.6.8,6.1,1.2,10.4,1.2s7.7-.6,10.5-1.7c2.8-1.1,4.8-2.6,6.2-4.5,1.4-1.9,2-3.9,2-6.1s-.5-3.4-1.4-4.8c-1-1.4-2.4-2.6-4.4-3.6s-4.5-1.8-7.6-2.4l-11.6-2.3c-4.6-.9-8.3-2-11.3-3.5-3-1.5-5.2-3.3-6.6-5.6-1.5-2.3-2.2-5.1-2.2-8.3s.5-4.6,1.6-6.7c1.1-2.1,2.7-3.9,4.9-5.5,2.2-1.6,5-2.9,8.4-3.8,3.4-1,7.3-1.4,11.7-1.4s9.3.6,12.7,1.8,6.1,2.7,8.1,4.6c2,1.9,3.5,3.8,4.5,5.9l-7.6,2.3Z"/>
    <path class="st0" d="M515.2,164.6h-23v58h-7.8v-58h-23v-7.3h53.7v7.3Z"/>
    <path class="st0" d="M550.9,222.6h-7.8v-31.8l-23.2-33.6h8.8l18.2,26.9,18.4-26.9h8.7l-23.2,33.6v31.8Z"/>
    <path class="st0" d="M610.4,157.3c6.6,0,11.6.9,15.1,2.6,3.5,1.7,5.9,4.1,7.2,7.2,1.3,3,2,6.5,2,10.5s-.7,7.4-2,10.4c-1.3,3.1-3.7,5.5-7.2,7.2-3.5,1.7-8.5,2.6-15.1,2.6h-18.8v24.7h-7.8v-65.3h26.6ZM609.5,164.1h-17.9v26.9h17.9c4.9,0,8.7-.6,11.1-1.8s4.1-2.8,4.9-4.9c.8-2,1.2-4.3,1.2-6.8s-.4-4.8-1.2-6.8c-.8-2-2.5-3.7-4.9-4.9s-6.2-1.8-11.1-1.8Z"/>
    <path class="st0" d="M691.8,164.6h-35v20.6h33.1v6.7h-33.1v23.4h37v7.3h-44.8v-65.3h42.9v7.3Z"/>
    <path class="st0" d="M747.3,164.6h-35v20.6h32.8v6.7h-32.8v30.7h-7.8v-65.3h42.9v7.3Z"/>
    <path class="st0" d="M820.9,222.6h-8.3l-9.1-20.1h-33.2l-9,20.1h-8.3l29.7-65.3h8.5l29.7,65.3ZM773.3,195.7h27.2l-13.7-30.1-13.6,30.1Z"/>
    <path class="st0" d="M883.2,208.6c-1.6,3.1-3.6,5.8-6.1,8-2.5,2.2-5.4,4-8.8,5.2-3.4,1.3-7.2,1.9-11.4,1.9-6.6,0-12.1-1.4-16.6-4.3-4.5-2.9-7.9-6.8-10.1-11.9-2.3-5.1-3.4-11-3.4-17.7s1.1-12.6,3.4-17.7c2.3-5.1,5.7-9.1,10.1-12,4.5-2.9,10-4.3,16.6-4.3s7.9.6,11.3,1.9c3.4,1.3,6.3,3,8.8,5.2,2.5,2.2,4.5,4.9,6.1,7.9l-7.9,2.1c-1.2-1.9-2.6-3.6-4.4-5.1-1.7-1.5-3.7-2.6-6-3.5-2.3-.8-4.9-1.2-7.8-1.2-5,0-9.2,1.1-12.4,3.4-3.3,2.2-5.7,5.4-7.3,9.4-1.6,4-2.4,8.6-2.4,13.9s.8,9.9,2.4,13.9c1.6,4,4.1,7.1,7.3,9.4,3.3,2.3,7.4,3.4,12.4,3.4s5.5-.4,7.8-1.2c2.3-.8,4.3-2,6-3.5,1.7-1.5,3.2-3.2,4.5-5.1l7.9,2Z"/>
    <path class="st0" d="M939,164.6h-35v20.6h33.1v6.7h-33.1v23.4h37v7.3h-44.8v-65.3h42.9v7.3Z"/>
  </g>
  <g>
    <path class="st0" d="M525,1173.5c6.6,0,11.6.9,15.1,2.6,3.5,1.7,5.9,4.1,7.2,7.2,1.3,3,2,6.5,2,10.5s-.7,7.4-2,10.4c-1.3,3.1-3.7,5.5-7.2,7.2-3.5,1.7-8.5,2.6-15.1,2.6h-18.8v24.7h-7.8v-65.3h26.6ZM524.1,1180.3h-17.9v26.9h17.9c4.9,0,8.7-.6,11.1-1.8s4.1-2.8,4.9-4.8c.8-2,1.2-4.3,1.2-6.8s-.4-4.8-1.2-6.8c-.8-2-2.5-3.7-4.9-4.9s-6.2-1.8-11.1-1.8Z"/>
    <path class="st0" d="M616.7,1238.8h-8.3l-9.1-20.1h-33.2l-9,20.1h-8.3l29.7-65.3h8.5l29.7,65.3ZM569.1,1211.9h27.2l-13.7-30.1-13.6,30.1Z"/>
    <path class="st0" d="M667.1,1186.8c-.5-1.2-1.5-2.3-2.8-3.4-1.4-1.1-3.2-2-5.6-2.7-2.4-.7-5.5-1.1-9.4-1.1s-7.6.5-10.3,1.4c-2.7.9-4.8,2.2-6.1,3.7-1.4,1.6-2,3.3-2,5.1s.5,3.5,1.5,4.9c1,1.4,2.4,2.5,4.4,3.3,1.9.9,4.2,1.5,6.8,2l12,2.3c4.8.9,8.6,2.2,11.7,3.9,3,1.6,5.3,3.6,6.7,6,1.4,2.3,2.1,5,2.1,8.1s-.5,4.9-1.6,7.3c-1.1,2.3-2.7,4.4-4.9,6.3s-5,3.3-8.4,4.4c-3.4,1.1-7.4,1.6-12,1.6s-10.1-.6-13.8-1.9c-3.6-1.3-6.5-3-8.5-5-2-2.1-3.4-4.3-4.3-6.7l7.5-2.2c.5,1.5,1.5,2.8,2.8,4.1,1.4,1.3,3.3,2.3,5.9,3.2,2.6.8,6.1,1.2,10.4,1.2s7.7-.6,10.5-1.7c2.8-1.1,4.8-2.6,6.2-4.5,1.4-1.9,2-3.9,2-6.1s-.5-3.4-1.4-4.8c-1-1.4-2.4-2.6-4.4-3.6-2-1-4.5-1.8-7.6-2.4l-11.6-2.3c-4.6-.9-8.3-2-11.3-3.5-3-1.5-5.2-3.3-6.6-5.6-1.5-2.3-2.2-5.1-2.2-8.3s.5-4.6,1.6-6.7c1.1-2.1,2.7-3.9,4.9-5.5,2.2-1.6,5-2.9,8.4-3.8,3.4-1,7.3-1.4,11.7-1.4s9.3.6,12.7,1.8c3.4,1.2,6.1,2.7,8.1,4.6,2,1.9,3.5,3.8,4.5,5.9l-7.6,2.3Z"/>
    <path class="st0" d="M729.1,1186.8c-.5-1.2-1.5-2.3-2.8-3.4-1.4-1.1-3.2-2-5.6-2.7-2.4-.7-5.5-1.1-9.4-1.1s-7.6.5-10.3,1.4c-2.7.9-4.8,2.2-6.1,3.7-1.4,1.6-2,3.3-2,5.1s.5,3.5,1.5,4.9c1,1.4,2.4,2.5,4.4,3.3,1.9.9,4.2,1.5,6.8,2l12,2.3c4.8.9,8.6,2.2,11.7,3.9,3,1.6,5.3,3.6,6.7,6,1.4,2.3,2.1,5,2.1,8.1s-.5,4.9-1.6,7.3c-1.1,2.3-2.7,4.4-4.9,6.3s-5,3.3-8.4,4.4c-3.4,1.1-7.4,1.6-12,1.6s-10.1-.6-13.8-1.9c-3.6-1.3-6.5-3-8.5-5-2-2.1-3.4-4.3-4.3-6.7l7.5-2.2c.5,1.5,1.5,2.8,2.8,4.1,1.4,1.3,3.3,2.3,5.9,3.2,2.6.8,6.1,1.2,10.4,1.2s7.7-.6,10.5-1.7c2.8-1.1,4.8-2.6,6.2-4.5,1.4-1.9,2-3.9,2-6.1s-.5-3.4-1.4-4.8c-1-1.4-2.4-2.6-4.4-3.6s-4.5-1.8-7.6-2.4l-11.6-2.3c-4.6-.9-8.3-2-11.3-3.5-3-1.5-5.2-3.3-6.6-5.6-1.5-2.3-2.2-5.1-2.2-8.3s.5-4.6,1.6-6.7c1.1-2.1,2.7-3.9,4.9-5.5,2.2-1.6,5-2.9,8.4-3.8,3.4-1,7.3-1.4,11.7-1.4s9.3.6,12.7,1.8c3.4,1.2,6.1,2.7,8.1,4.6,2,1.9,3.5,3.8,4.5,5.9l-7.6,2.3Z"/>
    <path class="st0" d="M758.3,1238.8h-7.8v-65.3h7.8v65.3Z"/>
    <path class="st0" d="M803.7,1239.8c-7.3,0-13.3-1.4-18.1-4.3-4.8-2.9-8.4-6.8-10.9-11.9-2.4-5.1-3.7-10.9-3.7-17.5s1.2-12.3,3.7-17.4c2.4-5.1,6.1-9.1,10.9-12,4.8-2.9,10.9-4.4,18.1-4.4s13.1,1.5,18,4.4c4.9,2.9,8.5,6.9,10.9,12,2.4,5.1,3.7,10.9,3.7,17.4s-1.2,12.4-3.7,17.5c-2.4,5.1-6.1,9.1-10.9,11.9-4.8,2.9-10.8,4.3-18,4.3ZM803.7,1232.5c5.6,0,10.2-1.1,13.9-3.4,3.6-2.2,6.3-5.4,8.1-9.4,1.8-4,2.7-8.6,2.7-13.7s-.9-9.6-2.7-13.6c-1.8-4-4.5-7.1-8.1-9.4-3.6-2.2-8.2-3.4-13.9-3.4s-10.3,1.1-14,3.4c-3.6,2.2-6.3,5.4-8.1,9.4-1.7,4-2.6,8.5-2.6,13.6s.9,9.7,2.6,13.7c1.7,4,4.4,7.1,8.1,9.4,3.6,2.2,8.3,3.4,14,3.4Z"/>
    <path class="st0" d="M904.1,1173.5v65.3h-7.8l-39.4-53.1v53.1h-7.9v-65.3h7.7l39.5,53.2v-53.2h7.9Z"/>
    <path class="st0" d="M424.5,1312c0,3.8-1,7.3-3,10.3-2,3-4.8,5.4-8.6,7.1-3.8,1.7-8.3,2.6-13.8,2.6s-10.3-.9-14.1-2.7-6.6-4.2-8.4-7.3c-1.8-3.1-2.8-6.5-2.8-10.2s.9-6.8,2.7-9.7c1.8-2.8,4.5-5,8-6.5-2.9-1.4-5.1-3.3-6.6-5.6-1.5-2.4-2.2-5-2.2-8s.9-6.5,2.8-9.2c1.8-2.7,4.5-4.8,8-6.4,3.5-1.6,7.7-2.4,12.6-2.4s6.3.4,9,1.1c2.6.7,4.9,1.7,6.8,3,1.9,1.3,3.5,2.7,4.7,4.5l-6.9,3.8c-1.3-1.5-3-2.7-5.2-3.6-2.2-.9-5-1.3-8.3-1.3-4.9,0-8.7,1-11.4,3.1-2.6,2-4,4.7-4,7.9s1.3,5.4,3.9,7.4c2.6,2,6.4,3.1,11.5,3.1h33v6.6h-7.6v12.5ZM381.9,1312.2c0,3.4,1.5,6.3,4.5,8.7,3,2.4,7.3,3.6,12.9,3.6s5.6-.4,8.2-1.3c2.6-.9,4.9-2.2,6.6-4,1.8-1.8,2.7-4.2,2.7-7.2v-12.5h-17.5c-5.7,0-10,1.2-12.9,3.7-2.9,2.4-4.4,5.4-4.4,9Z"/>
    <path class="st0" d="M497.8,1265.5c6.6,0,11.6.9,15.1,2.6,3.5,1.7,5.9,4.1,7.2,7.2,1.3,3,2,6.5,2,10.5s-.7,7.4-2,10.4c-1.3,3.1-3.7,5.5-7.2,7.2-3.5,1.7-8.5,2.6-15.1,2.6h-18.8v24.7h-7.8v-65.3h26.6ZM496.9,1272.4h-17.9v26.9h17.9c4.9,0,8.7-.6,11.1-1.8s4.1-2.8,4.9-4.8c.8-2,1.2-4.3,1.2-6.8s-.4-4.8-1.2-6.8c-.8-2-2.5-3.7-4.9-4.9s-6.2-1.8-11.1-1.8Z"/>
    <path class="st0" d="M536.3,1330.8v-65.3h26.6c6.6,0,11.6.9,15.1,2.6,3.5,1.7,5.9,4.1,7.2,7.2,1.3,3,2,6.5,2,10.5s-.5,6.5-1.5,9.4c-1,2.8-2.8,5.1-5.3,6.9-2.6,1.8-6.3,3-11.1,3.6l16.3,25.1h-8.6l-16-24.7h-16.9v24.7h-7.8ZM579.3,1285.8c0-2.5-.4-4.8-1.2-6.8-.8-2-2.5-3.7-4.9-4.9s-6.2-1.8-11.1-1.8h-17.9v26.9h17.9c4.9,0,8.7-.6,11.1-1.8s4.1-2.8,4.9-4.8c.8-2,1.2-4.3,1.2-6.8Z"/>
    <path class="st0" d="M644.2,1272.9h-35v20.6h33.1v6.7h-33.1v23.4h37v7.3h-44.8v-65.3h42.9v7.3Z"/>
    <path class="st0" d="M709.4,1316.9c-1.6,3.1-3.6,5.8-6.1,8-2.5,2.2-5.4,4-8.8,5.2-3.4,1.3-7.2,1.9-11.4,1.9-6.6,0-12.1-1.4-16.6-4.3-4.5-2.9-7.9-6.8-10.1-11.9-2.3-5.1-3.4-11-3.4-17.7s1.1-12.6,3.4-17.7c2.3-5.1,5.7-9.1,10.1-12,4.5-2.9,10-4.3,16.6-4.3s7.9.6,11.3,1.9c3.4,1.3,6.3,3,8.8,5.2,2.5,2.2,4.5,4.9,6.1,7.9l-7.9,2.1c-1.2-1.9-2.6-3.6-4.4-5.1-1.7-1.5-3.7-2.6-6-3.5-2.3-.8-4.9-1.2-7.8-1.2-5,0-9.2,1.1-12.4,3.4-3.3,2.2-5.7,5.4-7.3,9.4-1.6,4-2.4,8.6-2.4,13.9s.8,9.9,2.4,13.9c1.6,4,4.1,7.1,7.3,9.4,3.3,2.3,7.4,3.4,12.4,3.4s5.5-.4,7.8-1.2c2.3-.8,4.3-2,6-3.5,1.7-1.5,3.2-3.2,4.5-5.1l7.9,2Z"/>
    <path class="st0" d="M730.2,1330.8h-7.8v-65.3h7.8v65.3Z"/>
    <path class="st0" d="M787.5,1278.9c-.5-1.2-1.5-2.3-2.8-3.4-1.4-1.1-3.2-2-5.6-2.7-2.4-.7-5.5-1.1-9.4-1.1s-7.6.5-10.3,1.4c-2.7.9-4.8,2.2-6.1,3.7-1.4,1.6-2,3.3-2,5.1s.5,3.5,1.5,4.9c1,1.4,2.4,2.5,4.4,3.3,1.9.9,4.2,1.5,6.8,2l12,2.3c4.8.9,8.6,2.2,11.7,3.9,3,1.6,5.3,3.6,6.7,6,1.4,2.3,2.1,5,2.1,8.1s-.5,4.9-1.6,7.3c-1.1,2.3-2.7,4.4-4.9,6.3-2.2,1.8-5,3.3-8.4,4.4-3.4,1.1-7.4,1.6-12,1.6s-10.1-.6-13.8-1.9c-3.6-1.3-6.5-3-8.5-5-2-2.1-3.4-4.3-4.3-6.7l7.5-2.2c.5,1.5,1.5,2.8,2.8,4.1,1.4,1.3,3.3,2.3,5.9,3.2,2.6.8,6.1,1.2,10.4,1.2s7.7-.6,10.5-1.7c2.8-1.1,4.8-2.6,6.2-4.5,1.4-1.9,2-3.9,2-6.1s-.5-3.4-1.4-4.8c-1-1.4-2.4-2.6-4.4-3.6-2-1-4.5-1.8-7.6-2.4l-11.6-2.3c-4.6-.9-8.3-2-11.3-3.5-3-1.5-5.2-3.3-6.6-5.6-1.5-2.3-2.2-5.1-2.2-8.3s.5-4.6,1.6-6.7,2.7-3.9,4.9-5.5c2.2-1.6,5-2.9,8.4-3.8,3.4-1,7.3-1.4,11.7-1.4s9.3.6,12.7,1.8c3.4,1.2,6.1,2.7,8.1,4.6,2,1.9,3.5,3.8,4.5,5.9l-7.6,2.3Z"/>
    <path class="st0" d="M849.4,1278.9c-.5-1.2-1.5-2.3-2.8-3.4-1.4-1.1-3.2-2-5.6-2.7-2.4-.7-5.5-1.1-9.4-1.1s-7.6.5-10.3,1.4c-2.7.9-4.8,2.2-6.1,3.7-1.4,1.6-2,3.3-2,5.1s.5,3.5,1.5,4.9c1,1.4,2.4,2.5,4.4,3.3,1.9.9,4.2,1.5,6.8,2l12,2.3c4.8.9,8.6,2.2,11.7,3.9,3,1.6,5.3,3.6,6.7,6,1.4,2.3,2.1,5,2.1,8.1s-.5,4.9-1.6,7.3c-1.1,2.3-2.7,4.4-4.9,6.3-2.2,1.8-5,3.3-8.4,4.4-3.4,1.1-7.4,1.6-12,1.6s-10.1-.6-13.8-1.9c-3.6-1.3-6.5-3-8.5-5-2-2.1-3.4-4.3-4.3-6.7l7.5-2.2c.5,1.5,1.5,2.8,2.8,4.1,1.4,1.3,3.3,2.3,5.9,3.2,2.6.8,6.1,1.2,10.4,1.2s7.7-.6,10.5-1.7c2.8-1.1,4.8-2.6,6.2-4.5,1.4-1.9,2-3.9,2-6.1s-.5-3.4-1.4-4.8c-1-1.4-2.4-2.6-4.4-3.6-2-1-4.5-1.8-7.6-2.4l-11.6-2.3c-4.6-.9-8.3-2-11.3-3.5-3-1.5-5.2-3.3-6.6-5.6-1.5-2.3-2.2-5.1-2.2-8.3s.5-4.6,1.6-6.7,2.7-3.9,4.9-5.5c2.2-1.6,5-2.9,8.4-3.8,3.4-1,7.3-1.4,11.7-1.4s9.3.6,12.7,1.8c3.4,1.2,6.1,2.7,8.1,4.6,2,1.9,3.5,3.8,4.5,5.9l-7.6,2.3Z"/>
    <path class="st0" d="M878.6,1330.8h-7.8v-65.3h7.8v65.3Z"/>
    <path class="st0" d="M924,1331.8c-7.3,0-13.3-1.4-18.1-4.3-4.8-2.9-8.4-6.8-10.9-11.9-2.4-5.1-3.7-10.9-3.7-17.5s1.2-12.3,3.7-17.4c2.4-5.1,6.1-9.1,10.9-12,4.8-2.9,10.9-4.4,18.1-4.4s13.1,1.5,18,4.4c4.9,2.9,8.5,6.9,10.9,12,2.4,5.1,3.7,10.9,3.7,17.4s-1.2,12.4-3.7,17.5c-2.4,5.1-6.1,9.1-10.9,11.9-4.8,2.9-10.8,4.3-18,4.3ZM924,1324.5c5.6,0,10.2-1.1,13.9-3.4,3.6-2.2,6.3-5.4,8.1-9.4,1.8-4,2.7-8.6,2.7-13.7s-.9-9.6-2.7-13.6c-1.8-4-4.5-7.1-8.1-9.4-3.6-2.2-8.2-3.4-13.9-3.4s-10.3,1.1-14,3.4c-3.6,2.2-6.3,5.4-8.1,9.4-1.7,4-2.6,8.5-2.6,13.6s.9,9.7,2.6,13.7c1.7,4,4.4,7.1,8.1,9.4,3.6,2.2,8.3,3.4,14,3.4Z"/>
    <path class="st0" d="M1024.4,1265.5v65.3h-7.8l-39.4-53.1v53.1h-7.9v-65.3h7.7l39.5,53.2v-53.2h7.9Z"/>
  </g>
  <g>
    <polygon class="st0" points="139.7 527 157.2 539.8 178.9 539.8 185.6 560.4 203.1 573.1 196.5 593.7 203.1 614.3 185.6 627.1 178.9 647.7 157.2 647.7 139.7 660.4 122.2 647.7 100.5 647.7 93.8 627.1 76.3 614.3 83 593.7 76.3 573.1 93.8 560.4 100.5 539.8 122.2 539.8 139.7 527"/>
    <g>
      <path class="st1" d="M105.7,608.4l9.5-3,1.5,4.7-15.3,4.8-5.8-18.7,5.8-1.8,4.4,14Z"/>
      <path class="st1" d="M124.1,607.8l-5.8,1.8-5.8-18.7,5.8-1.8,5.8,18.7Z"/>
      <path class="st1" d="M132.4,584.8c1.8-.6,3.3-.8,4.5-.8,1.2,0,2.1.4,2.9,1,.7.6,1.3,1.6,1.7,2.8.2.5.2,1.1.2,1.7,0,.6-.2,1.2-.5,1.8-.3.6-.8,1.1-1.6,1.5,1.3-.1,2.2.1,2.9.7.7.6,1.1,1.4,1.4,2.2.4,1.3.5,2.4.2,3.3-.2.9-.8,1.7-1.8,2.4-1,.7-2.3,1.3-4.1,1.9l-11.7,3.6-5.8-18.7,11.7-3.6ZM128.9,594.3l5.1-1.6c.7-.2,1.3-.5,1.6-.7.3-.2.5-.4.5-.7,0-.2,0-.5,0-.8-.1-.4-.3-.8-.5-1-.2-.2-.5-.3-.9-.3-.4,0-1,.2-1.8.4l-4.8,1.5,1,3.1ZM130.9,600.6l4.8-1.5c.8-.3,1.4-.5,1.7-.7.3-.2.5-.5.6-.8s0-.7-.2-1.1c-.1-.3-.2-.6-.4-.8-.2-.2-.4-.3-.8-.3-.4,0-.9.1-1.7.4l-5.1,1.6,1,3.2Z"/>
      <path class="st1" d="M147.3,600.6l-5.8-18.7,11-3.4c1.8-.5,3.3-.7,4.5-.5,1.2.2,2.3.8,3.1,1.6.8.9,1.4,2,1.8,3.3.3,1.1.5,2.1.4,3,0,.9-.3,1.8-.8,2.5-.5.8-1.3,1.4-2.3,2l6.6,4.3-6.1,1.9-6.2-4.1-2,.6,1.7,5.5-5.8,1.8ZM156.2,584.7c-.2-.5-.4-1-.5-1.2-.2-.3-.5-.4-.9-.4-.4,0-1,.1-1.8.4l-4.2,1.3,1.3,4.1,4.2-1.3c.8-.2,1.3-.5,1.7-.7s.5-.5.5-.8c0-.3,0-.8-.2-1.3Z"/>
      <path class="st1" d="M179.1,575.3l-10.1,3.1.7,2.3,9.5-3,1.4,4.4-9.5,3,.8,2.7,10.4-3.2,1.5,4.7-16.2,5.1-5.8-18.7,15.9-5,1.5,4.7Z"/>
    </g>
  </g>
</svg>