<svg width="1920" height="1080" fill="none" xmlns="http://www.w3.org/2000/svg"><mask id="a" style="mask-type:alpha" maskUnits="userSpaceOnUse" x="50" y="50" width="1820" height="980"><path fill="#C4C4C4" d="M50 50h1820v980H50z"/></mask><g mask="url(#a)" fill="#3C4043"><path d="M-397.6 1036.04h18.24V893.96h-15.84V875h35.76v93.12c-.32 1.28-.72 2.56-1.2 3.84-.48 1.12-.88 2.32-1.2 3.6.16-.48 1.04-1.44 2.64-2.88 1.76-1.44 4-2.88 6.72-4.32 2.72-1.44 5.84-2.72 9.36-3.84 3.68-1.12 7.6-1.68 11.76-1.68 6.72 0 13.04 1.28 18.96 3.84 5.92 2.4 11.04 5.76 15.36 10.08s7.68 9.36 10.08 15.12c2.56 5.6 3.84 11.6 3.84 18s-1.28 12.48-3.84 18.24c-2.4 5.76-5.76 10.8-10.08 15.12-4.32 4.32-9.44 7.76-15.36 10.32-5.92 2.4-12.24 3.6-18.96 3.6-4.64 0-8.8-.56-12.48-1.68-3.68-.96-6.88-2.08-9.6-3.36-2.56-1.44-4.56-2.8-6-4.08-1.44-1.28-2.24-2.16-2.4-2.64v9.6h-35.76v-18.96Zm94.32-26.16c0-8-2.64-14.56-7.92-19.68-5.12-5.28-11.84-7.92-20.16-7.92s-15.12 2.64-20.4 7.92c-5.12 5.12-7.68 11.68-7.68 19.68 0 7.84 2.56 14.48 7.68 19.92 5.28 5.28 12.08 7.92 20.4 7.92 8.32 0 15.04-2.64 20.16-7.92 5.28-5.44 7.92-12.08 7.92-19.92Zm84.93-27.6c-8.16 0-14.8 2.48-19.92 7.44-5.12 4.8-7.84 10.88-8.16 18.24 7.52-2.72 14.96-5.44 22.32-8.16 7.52-2.88 15.04-5.68 22.56-8.4-2.24-2.72-4.8-4.88-7.68-6.48-2.72-1.76-5.76-2.64-9.12-2.64Zm42.24 20.4-32.64 12c-10.72 4-21.52 8-32.4 12 2.4 3.36 5.52 6.08 9.36 8.16 4 1.92 8.48 2.88 13.44 2.88 7.36 0 13.44-2.56 18.24-7.68l12.24 14.4c-4 4-8.56 7.12-13.68 9.36-5.12 2.24-10.72 3.36-16.8 3.36-6.72 0-13.04-1.2-18.96-3.6-5.76-2.56-10.8-6-15.12-10.32a50.647 50.647 0 0 1-10.32-14.88c-2.4-5.76-3.6-11.92-3.6-18.48 0-6.4 1.2-12.48 3.6-18.24 2.56-5.76 6-10.72 10.32-14.88 4.32-4.32 9.36-7.68 15.12-10.08 5.92-2.56 12.24-3.84 18.96-3.84 4.96 0 9.68 1.04 14.16 3.12 4.64 1.92 8.72 4.64 12.24 8.16 3.68 3.52 6.88 7.76 9.6 12.72 2.72 4.8 4.8 10.08 6.24 15.84Zm37.967-96.24h19.92V965h23.52v19.44h-23.52v51.6h18V1055h-37.92v-70.56h-20.16V965h20.16v-58.56ZM53.127 965h51.361v18.96h-18.24c-6.4 12.96-12.88 25.76-19.44 38.4-6.4 12.64-12.8 25.36-19.2 38.16l-32.64-64.56-32.64 64.56c-6.56-12.8-13.04-25.52-19.44-38.16-6.4-12.8-12.88-25.6-19.44-38.4h-21.36V965h49.68v18.96h-8.4c3.52 7.04 6.96 14.08 10.32 21.12 3.36 6.88 6.24 13.92 8.64 21.12 1.76-5.44 3.84-10.72 6.24-15.84l7.68-15.84 2.4-5.28c.96-1.76 1.84-3.52 2.64-5.28h-12.24V965h53.28v18.96h-13.68c3.52 7.04 6.96 14.08 10.32 21.12 3.36 6.88 6.24 13.92 8.64 21.12 2.4-7.2 5.2-14.24 8.4-21.12 3.36-7.04 6.88-14.08 10.56-21.12h-13.44V965Zm116.179 17.28c-8.16 0-14.8 2.48-19.92 7.44-5.12 4.8-7.84 10.88-8.16 18.24 7.52-2.72 14.96-5.44 22.32-8.16 7.52-2.88 15.04-5.68 22.56-8.4-2.24-2.72-4.8-4.88-7.68-6.48-2.72-1.76-5.76-2.64-9.12-2.64Zm42.24 20.4-32.64 12c-10.72 4-21.52 8-32.4 12 2.4 3.36 5.52 6.08 9.36 8.16 4 1.92 8.48 2.88 13.44 2.88 7.36 0 13.44-2.56 18.24-7.68l12.24 14.4c-4 4-8.56 7.12-13.68 9.36-5.12 2.24-10.72 3.36-16.8 3.36-6.72 0-13.04-1.2-18.96-3.6-5.76-2.56-10.8-6-15.12-10.32a50.647 50.647 0 0 1-10.32-14.88c-2.4-5.76-3.6-11.92-3.6-18.48 0-6.4 1.2-12.48 3.6-18.24 2.56-5.76 6-10.72 10.32-14.88 4.32-4.32 9.36-7.68 15.12-10.08 5.92-2.56 12.24-3.84 18.96-3.84 4.96 0 9.68 1.04 14.16 3.12 4.64 1.92 8.72 4.64 12.24 8.16 3.68 3.52 6.88 7.76 9.6 12.72 2.72 4.8 4.8 10.08 6.24 15.84Zm65.807-20.4c-8.16 0-14.8 2.48-19.92 7.44-5.12 4.8-7.84 10.88-8.16 18.24 7.52-2.72 14.96-5.44 22.32-8.16 7.52-2.88 15.04-5.68 22.56-8.4-2.24-2.72-4.8-4.88-7.68-6.48-2.72-1.76-5.76-2.64-9.12-2.64Zm42.24 20.4-32.64 12c-10.72 4-21.52 8-32.4 12 2.4 3.36 5.52 6.08 9.36 8.16 4 1.92 8.48 2.88 13.44 2.88 7.36 0 13.44-2.56 18.24-7.68l12.24 14.4c-4 4-8.56 7.12-13.68 9.36-5.12 2.24-10.72 3.36-16.8 3.36-6.72 0-13.04-1.2-18.96-3.6-5.76-2.56-10.8-6-15.12-10.32a50.647 50.647 0 0 1-10.32-14.88c-2.4-5.76-3.6-11.92-3.6-18.48 0-6.4 1.2-12.48 3.6-18.24 2.56-5.76 6-10.72 10.32-14.88 4.32-4.32 9.36-7.68 15.12-10.08 5.92-2.56 12.24-3.84 18.96-3.84 4.96 0 9.68 1.04 14.16 3.12 4.64 1.92 8.72 4.64 12.24 8.16 3.68 3.52 6.88 7.76 9.6 12.72 2.72 4.8 4.8 10.08 6.24 15.84Zm86.927 33.36H425v-37.2c-.32-4.32-1.92-8-4.8-11.04-2.72-3.2-7.12-4.96-13.2-5.28-4.16 0-8.16.72-12 2.16-3.68 1.44-6.96 3.44-9.84 6s-5.2 5.6-6.96 9.12c-1.76 3.52-2.64 7.36-2.64 11.52v24.72h15.12V1055H337.4v-18.96h18.24v-52.08H339.8V965h33.36v2.16c.32 3.84.56 7.36.72 10.56.32 3.04.64 6.48.96 10.32 3.2-7.68 8.32-13.76 15.36-18.24 7.2-4.64 15.12-6.96 23.76-6.96 9.44 0 16.88 2.48 22.32 7.44 5.44 4.96 8.32 11.44 8.64 19.44v46.32h14.88V1055h-53.28v-18.96ZM532.414 904.086c1.406 0 2.109.898 2.109 2.695l-1.875 56.602 6.914-2.461c9.532-3.203 18.477-4.805 26.836-4.805 8.438 0 15.821 1.406 22.149 4.219 6.406 2.812 11.562 7.07 15.469 12.773 7.031 10.313 10.546 27.191 10.546 50.621 0 23.44-3.945 40.71-11.835 51.8-7.891 11.02-19.961 16.52-36.211 16.52-11.641 0-22.539-1.83-32.696-5.5-9.531 4.45-16.445 6.68-20.742 6.68-2.578 0-3.867-1.49-3.867-4.46v-158.2l-17.109-.937c-1.485-.078-2.266-.821-2.344-2.227l-1.406-18.164c.312-1.406 1.21-2.187 2.695-2.344l41.367-2.812Zm51.445 86.836c-2.109-3.36-4.961-5.781-8.554-7.266-3.594-1.484-9.141-2.226-16.641-2.226-7.422 0-16.211 1.562-26.367 4.687l1.406 79.333c9.453 2.03 17.5 3.05 24.141 3.05 6.64 0 11.797-.66 15.468-1.99 3.75-1.41 6.797-3.79 9.141-7.15 4.531-6.48 6.797-18.13 6.797-34.92 0-16.49-1.797-27.659-5.391-33.518Zm143.555 99.378c-10 2.5-22.695 3.75-38.086 3.75-15.703 0-27.109-4.85-34.219-14.53-7.421-10.08-11.132-26.06-11.132-47.93 0-22.97 3.164-40.121 9.492-51.449 7.187-12.5 18.672-20.118 34.453-22.852 5.469-.937 11.562-1.406 18.281-1.406 14.453 0 24.961 3.555 31.524 10.664 6.562 7.109 9.843 17.969 9.843 32.578 0 9.535-1.679 16.875-5.039 22.035-1.093 1.64-2.578 3.51-4.453 5.62-1.875 2.03-5.351 3.87-10.43 5.51-5 1.56-10.742 2.77-17.226 3.63-10.078 1.25-23.945 1.88-41.602 1.88 1.016 13.2 4.258 22.18 9.727 26.95 4.141 3.75 11.328 5.63 21.562 5.63 9.61 0 19.18-.83 28.711-2.47l.352-6.09c.078-.94.273-1.56.586-1.87.39-.32 1.054-.59 1.992-.83l16.875-3.74c1.719 0 2.695.74 2.93 2.22.234 1.33.468 3.95.703 7.85.234 3.83.469 7.15.703 9.96.234 2.82.43 5.51.586 8.09l.469 6.56c.078 1.96.117 3.6.117 4.92 0 2.35-1.719 3.72-5.156 4.11l-19.454 2.34c-1.718 0-2.578-.86-2.578-2.58l.469-8.55Zm-10.898-76.76c2.031-1.8 3.242-3.87 3.632-6.21.469-2.42.704-5.24.704-8.439 0-3.282-.313-6.172-.938-8.672-.547-2.5-1.523-4.649-2.93-6.446-3.046-3.75-8.007-5.625-14.882-5.625-13.282 0-22.149 3.36-26.602 10.079-4.219 6.25-6.562 17.033-7.031 32.343 27.265-.39 43.281-2.73 48.047-7.03Zm123.046 76.76c-3.75.23-9.296.35-16.64.35-7.266 0-13.203-.74-17.813-2.23-4.531-1.48-8.281-3.87-11.25-7.15-5.859-6.48-8.789-16.91-8.789-31.29 0-9.29.118-18.16.352-26.6.312-8.51.547-16.05.703-22.61a22531 22531 0 0 1 .703-19.692l-15.586-1.172c-1.562-.078-2.344-1.133-2.344-3.164l-.117-13.476c0-1.719.86-2.578 2.578-2.578l16.407-.352c.156-4.063.312-7.93.468-11.602l.938-17.695c.234-4.141.547-6.484.937-7.031.391-.625 1.094-1.016 2.11-1.172l21.797-2.578c1.64 0 2.461.859 2.461 2.578 0 2.5-.43 8.164-1.289 16.992l-1.758 19.805 45.937-1.289c1.719 0 2.578.937 2.578 2.812v19.102c0 1.562-.859 2.383-2.578 2.461l-47.461-1.992c-1.328 18.281-1.992 34.223-1.992 47.813 0 13.59.274 22.38.82 26.37.625 3.98 1.719 7.07 3.282 9.25 2.656 3.75 8.32 5.63 16.992 5.63 2.5 0 4.765-.08 6.797-.24-.235-2.73-.352-4.76-.352-6.09 0-1.41.742-2.23 2.227-2.46l19.57-2.34c1.641 0 2.461.89 2.461 2.69l.469 29.77c0 1.33-.586 2.11-1.758 2.34l-17.344 2.81c-1.797-.15-2.812-.89-3.047-2.22l-.469-3.75Zm30.586-129.144c0-1.562.899-2.344 2.696-2.344l52.031 1.172c1.094 0 1.719.235 1.875.704.156.39.234 1.015.234 1.874l-.586 19.922c-.078 1.016-.312 1.68-.703 1.993-.312.312-.937.468-1.875.468l-12.89-1.054 22.382 82.149 22.266-104.884c.234-1.484 1.289-2.304 3.164-2.461l22.266-1.054c1.875.156 2.969.976 3.281 2.461l25.781 105.938 18.52-83.673-14.54 1.524c-1.25 0-1.91-.664-1.99-1.993l-1.29-19.336c.24-1.562 1.1-2.421 2.58-2.578l48.87-2.343c1.25.078 1.87 1.015 1.87 2.812v21.445c0 1.641-.86 2.461-2.57 2.461h-11.61l-27.42 104.881c-.39 1.64-1.44 2.46-3.16 2.46l-22.15.35c-1.797 0-2.891-.82-3.282-2.46l-24.726-98.902-22.852 97.612c-.39 1.49-1.445 2.31-3.164 2.47l-20.976.93c-1.719-.15-2.813-.97-3.282-2.46l-34.101-105.349-11.016 1.054c-1.64 0-2.461-.937-2.461-2.812l-1.172-20.977ZM1166.87 1090.3c-10 2.5-22.7 3.75-38.09 3.75-15.7 0-27.11-4.85-34.22-14.53-7.42-10.08-11.13-26.06-11.13-47.93 0-22.97 3.16-40.121 9.49-51.449 7.19-12.5 18.67-20.118 34.46-22.852 5.46-.937 11.56-1.406 18.28-1.406 14.45 0 24.96 3.555 31.52 10.664 6.56 7.109 9.84 17.969 9.84 32.578 0 9.535-1.68 16.875-5.04 22.035-1.09 1.64-2.57 3.51-4.45 5.62-1.87 2.03-5.35 3.87-10.43 5.51-5 1.56-10.74 2.77-17.22 3.63-10.08 1.25-23.95 1.88-41.61 1.88 1.02 13.2 4.26 22.18 9.73 26.95 4.14 3.75 11.33 5.63 21.56 5.63 9.61 0 19.18-.83 28.71-2.47l.35-6.09c.08-.94.28-1.56.59-1.87.39-.32 1.06-.59 1.99-.83l16.88-3.74c1.72 0 2.69.74 2.93 2.22.23 1.33.47 3.95.7 7.85.24 3.83.47 7.15.7 9.96.24 2.82.43 5.51.59 8.09l.47 6.56c.08 1.96.12 3.6.12 4.92 0 2.35-1.72 3.72-5.16 4.11l-19.45 2.34c-1.72 0-2.58-.86-2.58-2.58l.47-8.55Zm-10.9-76.76c2.03-1.8 3.24-3.87 3.63-6.21.47-2.42.7-5.24.7-8.439 0-3.282-.31-6.172-.93-8.672-.55-2.5-1.53-4.649-2.93-6.446-3.05-3.75-8.01-5.625-14.89-5.625-13.28 0-22.14 3.36-26.6 10.079-4.22 6.25-6.56 17.033-7.03 32.343 27.27-.39 43.28-2.73 48.05-7.03Zm151.05 76.76c-10 2.5-22.69 3.75-38.08 3.75-15.71 0-27.11-4.85-34.22-14.53-7.42-10.08-11.13-26.06-11.13-47.93 0-22.97 3.16-40.121 9.49-51.449 7.19-12.5 18.67-20.118 34.45-22.852 5.47-.937 11.56-1.406 18.28-1.406 14.46 0 24.96 3.555 31.53 10.664 6.56 7.109 9.84 17.969 9.84 32.578 0 9.535-1.68 16.875-5.04 22.035-1.09 1.64-2.58 3.51-4.45 5.62-1.88 2.03-5.35 3.87-10.43 5.51-5 1.56-10.74 2.77-17.23 3.63-10.08 1.25-23.94 1.88-41.6 1.88 1.02 13.2 4.26 22.18 9.73 26.95 4.14 3.75 11.32 5.63 21.56 5.63 9.61 0 19.18-.83 28.71-2.47l.35-6.09c.08-.94.27-1.56.59-1.87.39-.32 1.05-.59 1.99-.83l16.87-3.74c1.72 0 2.7.74 2.93 2.22.24 1.33.47 3.95.71 7.85.23 3.83.47 7.15.7 9.96.23 2.82.43 5.51.59 8.09l.46 6.56c.08 1.96.12 3.6.12 4.92 0 2.35-1.72 3.72-5.15 4.11l-19.46 2.34c-1.72 0-2.58-.86-2.58-2.58l.47-8.55Zm-10.9-76.76c2.04-1.8 3.25-3.87 3.64-6.21.47-2.42.7-5.24.7-8.439 0-3.282-.31-6.172-.94-8.672-.54-2.5-1.52-4.649-2.93-6.446-3.04-3.75-8-5.625-14.88-5.625-13.28 0-22.15 3.36-26.6 10.079-4.22 6.25-6.56 17.033-7.03 32.343 27.26-.39 43.28-2.73 48.04-7.03Zm144.61-28.36c-9.92 0-21.25 4.062-33.98 12.187l1.41 70.193 12.77-1.4c1.33 0 1.99.66 1.99 1.99l-2.22 18.16c-.32 1.72-1.18 2.58-2.58 2.58h-48.87c-1.25 0-1.87-.94-1.87-2.81l2.34-17.93c.31-1.64 1.17-2.46 2.58-2.46h9.96v-77.463l-17.93-.469c-1.56 0-2.35-.938-2.35-2.813l2.11-20.273c.16-1.328 1.1-2.149 2.82-2.461l32.46-4.805c1.4 0 2.11.899 2.11 2.696v20.273c16.09-16.094 31.91-24.141 47.46-24.141 17.81 0 28.44 8.477 31.87 25.43 1.1 5.625 1.64 10.898 1.64 15.82 0 4.846-.04 8.946-.11 12.306-.08 3.28-.2 6.91-.36 10.9l-.23 12.19c-.16 4.29-.31 8.59-.47 12.89l-.47 12.42c-.15 3.98-.31 7.65-.47 11.01l13.48-.58c1.64 0 2.46.93 2.46 2.81v17.23c0 .93-.23 1.56-.7 1.87-.39.24-1.06.39-1.99.47l-33.99 2.58c-1.72 0-2.58-.86-2.58-2.58.24-8.52.36-16.52.36-24.02l.23-19.57v-37.03c0-9.69-.82-15.864-2.46-18.521-1.64-2.734-3.56-4.531-5.74-5.39-2.19-.86-5.08-1.289-8.68-1.289ZM1614.2 960.96c3.52-2.24 7.6-3.36 12.24-3.36 4.8 0 8.8 1.76 12 5.28 3.36 3.52 5.04 8.64 5.04 15.36v80.64c0 6.56-1.04 11.2-3.12 13.92-3.84 4.8-9.68 7.2-17.52 7.2h-84.24v-16.32h15.12V916.32h-15.12V900h34.8v86.64l40.8-25.68Zm10.08 12.96-50.88 31.92v57.84h50.88v-89.76Zm43.28 9.6c0-15.84 8.24-23.76 24.72-23.76h40.56c7.84 0 13.52 1.52 17.04 4.56 3.52 3.04 5.28 8.64 5.28 16.8v22.32l-68.4 43.2v17.04h49.44v-13.92h18.96v12.72c0 4.8-1.52 8.96-4.56 12.48-2.88 3.36-7.76 5.04-14.64 5.04h-49.2c-6.88 0-11.84-1.68-14.88-5.04-2.88-3.52-4.32-7.68-4.32-12.48v-78.96Zm19.2 43.68 49.2-30.96v-19.92h-49.2v50.88Zm126.45-110.88V960h19.44v17.28h-19.44v86.4h22.8V1080h-20.16c-7.2 0-12.56-1.84-16.08-5.52-3.52-3.84-5.28-10.32-5.28-19.44v-77.76h-17.76V960h17.76v-43.68h18.72ZM1848.1 960h38.16v16.32h-10.56l19.44 87.12L1917.46 960h26.4l23.04 103.92 19.68-87.6h-10.8V960h38.4v16.32h-11.52l-22.8 103.68h-25.68l-22.8-103.92L1908.1 1080h-26.88l-1.68-7.68c-1.12-5.28-2.56-11.76-4.32-19.44-1.6-7.68-3.36-16-5.28-24.96-1.92-8.96-3.76-17.28-5.52-24.96-1.6-7.68-3.04-14-4.32-18.96l-1.68-7.68h-10.32V960Zm182.98 23.52c0-15.84 8.24-23.76 24.72-23.76h40.56c7.84 0 13.52 1.52 17.04 4.56 3.52 3.04 5.28 8.64 5.28 16.8v22.32l-68.4 43.2v17.04h49.44v-13.92h18.96v12.72c0 4.8-1.52 8.96-4.56 12.48-2.88 3.36-7.76 5.04-14.64 5.04h-49.2c-6.88 0-11.84-1.68-14.88-5.04-2.88-3.52-4.32-7.68-4.32-12.48v-78.96Zm19.2 43.68 49.2-30.96v-19.92h-49.2v50.88Zm92.36-43.68c0-15.84 8.24-23.76 24.72-23.76h40.56c7.84 0 13.52 1.52 17.04 4.56 3.52 3.04 5.28 8.64 5.28 16.8v22.32l-68.4 43.2v17.04h49.44v-13.92h18.96v12.72c0 4.8-1.52 8.96-4.56 12.48-2.88 3.36-7.76 5.04-14.64 5.04h-49.2c-6.88 0-11.84-1.68-14.88-5.04-2.88-3.52-4.32-7.68-4.32-12.48v-78.96Zm19.2 43.68 49.2-30.96v-19.92h-49.2v50.88Zm173-69.6c12.48 0 18.72 6.16 18.72 18.48v87.6h15.36V1080h-46.32v-16.32h11.52V974.4l-47.76 30v59.28h11.76V1080h-46.32v-16.32h15.12v-87.6h-15.12V960h34.56v24.96L2326.2 960c2.56-1.6 5.44-2.4 8.64-2.4ZM-99.063-64.344h62.93L-52.07 4.68c2.89-2.97 6.68-5.508 11.367-7.617 5.078-2.266 11.055-3.399 17.93-3.399 6.64 0 13.007 1.172 19.101 3.516C2.422-.555 7.813 2.844 12.5 7.375c4.688 4.453 8.438 10 11.25 16.64 2.813 6.641 4.219 14.297 4.219 22.97 0 10.703-1.992 20.546-5.977 29.53-3.906 8.907-9.258 16.602-16.055 23.087-6.796 6.406-14.804 11.406-24.023 15-9.14 3.515-18.906 5.273-29.297 5.273-2.89 0-5.781-.234-8.672-.703a68.184 68.184 0 0 1-8.32-1.875c-2.656-.859-5.078-1.836-7.266-2.93-1.953-.937-3.632-1.953-5.039-3.047l-1.523 6.68h-39.844l34.688-150.234h-23.086l7.382-32.11Zm42.54 103.594c-1.875 1.797-3.555 3.867-5.04 6.21l-5.859 25.665a20.488 20.488 0 0 0 3.164 4.805 25.715 25.715 0 0 0 5.86 4.57 32.895 32.895 0 0 0 7.265 2.93c2.578.625 5.235.937 7.969.937 4.219 0 8.242-.82 12.07-2.46 3.828-1.72 7.149-3.985 9.961-6.798 2.89-2.89 5.195-6.25 6.914-10.078 1.719-3.906 2.578-8.086 2.578-12.539 0-3.75-.586-7.031-1.757-9.844-1.172-2.812-2.774-5.156-4.805-7.03a20.125 20.125 0 0 0-7.031-4.22c-2.657-1.015-5.508-1.523-8.555-1.523-2.578 0-5.234.352-7.969 1.055-2.656.625-5.234 1.64-7.734 3.047-2.5 1.406-4.844 3.164-7.031 5.273ZM75.78 66.438c.156 1.874.469 3.671.938 5.39.781 2.969 2.07 5.586 3.867 7.852 1.875 2.187 4.297 3.945 7.266 5.273 2.968 1.25 6.562 1.875 10.78 1.875 3.126 0 5.977-.312 8.556-.937a38.587 38.587 0 0 0 7.5-2.579 45.06 45.06 0 0 0 6.679-4.101 77.448 77.448 0 0 0 6.445-5.156l25.782 22.617c-7.891 8.437-16.992 14.648-27.305 18.633-10.312 3.906-21.406 5.859-33.281 5.859-7.656 0-14.844-1.25-21.563-3.75-6.718-2.5-12.578-6.055-17.578-10.664-5-4.688-8.984-10.352-11.953-16.992-2.89-6.64-4.336-14.102-4.336-22.383 0-11.172 1.992-21.328 5.977-30.469 4.062-9.14 9.492-16.953 16.289-23.437C66.64 6.906 74.492 1.867 83.398-1.648c8.985-3.594 18.438-5.391 28.36-5.391 7.89 0 15.156 1.406 21.797 4.219 6.64 2.734 12.343 6.445 17.109 11.132 4.844 4.61 8.594 9.961 11.25 16.055 2.734 6.094 4.102 12.422 4.102 18.985 0 1.562-.078 3.32-.235 5.273a90.84 90.84 0 0 1-.703 6.094 83.292 83.292 0 0 1-1.172 6.093 71.604 71.604 0 0 1-1.523 5.626H75.781Zm5.04-28.126A16.064 16.064 0 0 0 80 39.953h50.742c-.156-2.11-.859-4.14-2.109-6.094-1.172-2.03-2.774-3.828-4.805-5.39-1.953-1.563-4.297-2.813-7.031-3.75-2.656-1.016-5.625-1.524-8.906-1.524-3.907 0-7.657.586-11.25 1.758-3.516 1.172-6.641 2.89-9.375 5.156-2.657 2.188-4.805 4.922-6.446 8.203Zm99.843-41.718h22.617l6.914-29.063 44.883-19.218-11.484 48.28h22.265l-7.382 32.11h-22.5L225.781 72.18c-1.172 4.375-1.679 7.851-1.523 10.43.156 2.578.976 4.453 2.461 5.624 1.562 1.094 3.359 1.641 5.39 1.641 1.641 0 3.399-.156 5.274-.469 1.953-.312 4.023-.781 6.211-1.406l.468 26.836c-2.5.937-4.96 1.797-7.382 2.578a56.06 56.06 0 0 1-7.735 1.875c-2.656.547-5.507.938-8.554 1.172-2.969.312-6.211.469-9.727.469-5.625 0-10.586-.664-14.883-1.992-4.219-1.25-7.578-3.399-10.078-6.446-2.422-3.047-3.906-7.109-4.453-12.187-.469-5.157.234-11.563 2.109-19.22l12.305-52.382h-22.383l7.383-32.11Zm98.32 0h60l-7.382 32.11h-7.852l2.812 37.03 39.844-69.14h39.141l7.148 73.828 24.024-41.719h-10.781l7.382-32.11h60l-7.382 32.11h-11.25L420.898 118h-39.375l-7.734-71.953h-.469L331.133 118h-37.969l-9.609-89.297h-11.953l7.382-32.11Zm247.735 69.844a29.92 29.92 0 0 0 .937 5.39c.782 2.969 2.071 5.586 3.867 7.852 1.875 2.187 4.297 3.945 7.266 5.273 2.969 1.25 6.563 1.875 10.781 1.875 3.125 0 5.977-.312 8.555-.937a38.587 38.587 0 0 0 7.5-2.579 45.07 45.07 0 0 0 6.68-4.101 77.613 77.613 0 0 0 6.445-5.156l25.781 22.617c-7.89 8.437-16.992 14.648-27.304 18.633-10.313 3.906-21.407 5.859-33.282 5.859-7.656 0-14.843-1.25-21.562-3.75-6.719-2.5-12.578-6.055-17.578-10.664-5-4.688-8.985-10.352-11.953-16.992-2.891-6.64-4.336-14.102-4.336-22.383 0-11.172 1.992-21.328 5.976-30.469 4.063-9.14 9.492-16.953 16.289-23.437 6.797-6.563 14.649-11.602 23.555-15.117 8.984-3.594 18.437-5.391 28.359-5.391 7.891 0 15.157 1.406 21.797 4.219 6.641 2.734 12.344 6.445 17.11 11.132 4.843 4.61 8.593 9.961 11.25 16.055 2.734 6.094 4.101 12.422 4.101 18.985 0 1.562-.078 3.32-.234 5.273a92.166 92.166 0 0 1-.703 6.094 84.366 84.366 0 0 1-1.172 6.093 72.029 72.029 0 0 1-1.524 5.626h-86.601Zm5.039-28.126a15.878 15.878 0 0 0-.82 1.641h50.742c-.157-2.11-.86-4.14-2.11-6.094-1.172-2.03-2.773-3.828-4.804-5.39-1.954-1.563-4.297-2.813-7.032-3.75-2.656-1.016-5.625-1.524-8.906-1.524-3.906 0-7.656.586-11.25 1.758-3.516 1.172-6.64 2.89-9.375 5.156-2.656 2.188-4.805 4.922-6.445 8.203Zm133.008 28.126c.156 1.874.468 3.671.937 5.39.781 2.969 2.07 5.586 3.867 7.852 1.875 2.187 4.297 3.945 7.266 5.273 2.969 1.25 6.562 1.875 10.781 1.875 3.125 0 5.977-.312 8.555-.937a38.587 38.587 0 0 0 7.5-2.579 45.07 45.07 0 0 0 6.68-4.101 77.613 77.613 0 0 0 6.445-5.156l25.781 22.617c-7.89 8.437-16.992 14.648-27.305 18.633-10.312 3.906-21.406 5.859-33.281 5.859-7.656 0-14.844-1.25-21.562-3.75-6.719-2.5-12.578-6.055-17.578-10.664-5-4.688-8.985-10.352-11.954-16.992-2.89-6.64-4.336-14.102-4.336-22.383 0-11.172 1.993-21.328 5.977-30.469 4.063-9.14 9.492-16.953 16.289-23.437 6.797-6.563 14.649-11.602 23.555-15.117 8.984-3.594 18.437-5.391 28.359-5.391 7.891 0 15.156 1.406 21.797 4.219 6.641 2.734 12.344 6.445 17.109 11.132 4.844 4.61 8.594 9.961 11.25 16.055C753.633 30.461 755 36.79 755 43.352c0 1.562-.078 3.32-.234 5.273a91.52 91.52 0 0 1-.704 6.094 83.818 83.818 0 0 1-1.171 6.093 72.029 72.029 0 0 1-1.524 5.626h-86.601Zm5.039-28.126a16.093 16.093 0 0 0-.821 1.641h50.743c-.157-2.11-.86-4.14-2.11-6.094-1.172-2.03-2.773-3.828-4.805-5.39-1.953-1.563-4.296-2.813-7.031-3.75-2.656-1.016-5.625-1.524-8.906-1.524-3.906 0-7.656.586-11.25 1.758-3.516 1.172-6.641 2.89-9.375 5.156-2.656 2.188-4.805 4.922-6.445 8.203ZM776.914-3.406h61.641l-1.875 9.96v-.117c3.515-2.656 7.148-4.921 10.898-6.796a57.797 57.797 0 0 1 11.602-4.336 46.267 46.267 0 0 1 12.304-1.64c6.797 0 12.735 1.132 17.813 3.397 5.078 2.266 9.141 5.508 12.187 9.727 3.047 4.219 4.961 9.414 5.743 15.586.859 6.094.39 13.008-1.407 20.742l-9.961 42.774h22.149L910.625 118h-62.227l15.118-65.273c.703-2.97.898-5.664.586-8.086-.235-2.5-.86-4.61-1.875-6.328-.938-1.797-2.266-3.165-3.985-4.102-1.64-.938-3.554-1.406-5.742-1.406-3.984 0-8.906 1.523-14.766 4.57-3.046 1.563-6.211 3.594-9.492 6.094L811.016 118h-41.133l20.625-89.297h-21.094l7.5-32.11ZM1034.84.84c9.6 0 18.4 2.4 26.4 7.2 8 4.64 14.32 11.36 18.96 20.16 4.8 8.8 7.2 18.88 7.2 30.24 0 12-2.64 22.72-7.92 32.16-5.12 9.44-12.08 16.72-20.88 21.84-8.64 5.12-18.16 7.68-28.56 7.68-15.2 0-29.44-6.08-42.72-18.24L983.96 117h-8.64V-36.36h-26.88v-11.28h39.6v.24h.24v71.04c6.24-6.72 13.36-12.16 21.36-16.32 8-4.32 16.4-6.48 25.2-6.48Zm-6.48 107.76c8.32 0 15.92-2.08 22.8-6.24 7.04-4.32 12.56-10.32 16.56-18 4.16-7.68 6.24-16.32 6.24-25.92 0-9.28-1.84-17.36-5.52-24.24-3.52-7.04-8.4-12.4-14.64-16.08-6.24-3.84-13.2-5.76-20.88-5.76-16 0-30.88 7.76-44.64 23.28v55.92c12.8 11.36 26.16 17.04 40.08 17.04Zm191.69-7.68c-6.88 6.08-14.16 10.8-21.84 14.16-7.68 3.36-16.4 5.04-26.16 5.04-10.24 0-19.92-2.16-29.04-6.48-9.12-4.48-16.48-10.96-22.08-19.44-5.6-8.48-8.4-18.56-8.4-30.24 0-13.12 2.96-24.4 8.88-33.84 5.92-9.6 13.52-16.8 22.8-21.6 9.28-4.96 18.96-7.44 29.04-7.44 8.64 0 16.4 1.52 23.28 4.56 7.04 3.04 12.56 7.2 16.56 12.48 4 5.28 6 11.28 6 18 0 6.88-2.16 12.72-6.48 17.52-4.16 4.8-9.76 8.48-16.8 11.04-6.88 2.4-14.24 3.6-22.08 3.6-8.16 0-16.08-.88-23.76-2.64-7.68-1.92-15.84-4.48-24.48-7.68-.16 1.28-.24 3.2-.24 5.76 0 8.8 2.08 16.64 6.24 23.52 4.32 6.72 10 12 17.04 15.84 7.2 3.68 14.8 5.52 22.8 5.52 8.96 0 16.72-1.36 23.28-4.08 6.72-2.88 13.12-6.96 19.2-12.24l6.24 8.64Zm-46.32-88.8c-10.24 0-19.84 3.36-28.8 10.08-8.96 6.56-14.96 15.6-18 27.12 15.84 5.6 30.88 8.4 45.12 8.4 9.12 0 17.04-1.84 23.76-5.52 6.72-3.84 10.08-9.2 10.08-16.08 0-7.2-2.96-12.96-8.88-17.28-5.92-4.48-13.68-6.72-23.28-6.72Zm160.54 98.16c-6.08 3.2-11.76 5.6-17.04 7.2-5.12 1.76-10.96 2.64-17.52 2.64-10.56 0-19.2-3.28-25.92-9.84-6.56-6.72-9.84-16.8-9.84-30.24v-64.8h-27.6V3.96h27.6v-31.44h13.2V3.96h42v11.28h-42v65.28c0 9.92 2.24 17.04 6.72 21.36 4.64 4.16 10.32 6.24 17.04 6.24 9.44 0 18.88-2.8 28.32-8.4l5.04 10.56Zm204.96-94.8h-20.16l-37.2 104.88h-5.28l-40.56-90.72-40.32 90.72h-5.28l-37.44-104.88h-19.92V4.2h55.92v10.56h-22.56l28.32 82.8 39.6-90.48h5.28l39.6 90.96 28.32-83.28h-23.04V4.2h54.72v11.28Zm115.82 85.44c-6.88 6.08-14.16 10.8-21.84 14.16-7.68 3.36-16.4 5.04-26.16 5.04-10.24 0-19.92-2.16-29.04-6.48-9.12-4.48-16.48-10.96-22.08-19.44-5.6-8.48-8.4-18.56-8.4-30.24 0-13.12 2.96-24.4 8.88-33.84 5.92-9.6 13.52-16.8 22.8-21.6 9.28-4.96 18.96-7.44 29.04-7.44 8.64 0 16.4 1.52 23.28 4.56 7.04 3.04 12.56 7.2 16.56 12.48 4 5.28 6 11.28 6 18 0 6.88-2.16 12.72-6.48 17.52-4.16 4.8-9.76 8.48-16.8 11.04-6.88 2.4-14.24 3.6-22.08 3.6-8.16 0-16.08-.88-23.76-2.64-7.68-1.92-15.84-4.48-24.48-7.68-.16 1.28-.24 3.2-.24 5.76 0 8.8 2.08 16.64 6.24 23.52 4.32 6.72 10 12 17.04 15.84 7.2 3.68 14.8 5.52 22.8 5.52 8.96 0 16.72-1.36 23.28-4.08 6.72-2.88 13.12-6.96 19.2-12.24l6.24 8.64Zm-46.32-88.8c-10.24 0-19.84 3.36-28.8 10.08-8.96 6.56-14.96 15.6-18 27.12 15.84 5.6 30.88 8.4 45.12 8.4 9.12 0 17.04-1.84 23.76-5.52 6.72-3.84 10.08-9.2 10.08-16.08 0-7.2-2.96-12.96-8.88-17.28-5.92-4.48-13.68-6.72-23.28-6.72Zm178.74 88.8c-6.88 6.08-14.16 10.8-21.84 14.16-7.68 3.36-16.4 5.04-26.16 5.04-10.24 0-19.92-2.16-29.04-6.48-9.12-4.48-16.48-10.96-22.08-19.44-5.6-8.48-8.4-18.56-8.4-30.24 0-13.12 2.96-24.4 8.88-33.84 5.92-9.6 13.52-16.8 22.8-21.6 9.28-4.96 18.96-7.44 29.04-7.44 8.64 0 16.4 1.52 23.28 4.56 7.04 3.04 12.56 7.2 16.56 12.48 4 5.28 6 11.28 6 18 0 6.88-2.16 12.72-6.48 17.52-4.16 4.8-9.76 8.48-16.8 11.04-6.88 2.4-14.24 3.6-22.08 3.6-8.16 0-16.08-.88-23.76-2.64-7.68-1.92-15.84-4.48-24.48-7.68-.16 1.28-.24 3.2-.24 5.76 0 8.8 2.08 16.64 6.24 23.52 4.32 6.72 10 12 17.04 15.84 7.2 3.68 14.8 5.52 22.8 5.52 8.96 0 16.72-1.36 23.28-4.08 6.72-2.88 13.12-6.96 19.2-12.24l6.24 8.64Zm-46.32-88.8c-10.24 0-19.84 3.36-28.8 10.08-8.96 6.56-14.96 15.6-18 27.12 15.84 5.6 30.88 8.4 45.12 8.4 9.12 0 17.04-1.84 23.76-5.52 6.72-3.84 10.08-9.2 10.08-16.08 0-7.2-2.96-12.96-8.88-17.28-5.92-4.48-13.68-6.72-23.28-6.72Zm225.07 93.6V117h-60.72v-11.28h22.8V46.68c0-22.4-9.52-33.6-28.56-33.6-8.16 0-16.64 2.64-25.44 7.92-8.8 5.28-17.44 12.48-25.92 21.6v63.12h22.8V117h-63.84v-11.28h27.84V15.24h-27.84V3.96h41.04v27.36c9.12-9.76 18.16-17.28 27.12-22.56 8.96-5.28 18.32-7.92 28.08-7.92 11.84 0 21.12 3.76 27.84 11.28 6.72 7.52 10.08 18.64 10.08 33.36v60.24h24.72ZM62.92 356.36c1.44-16.32 2.16-37.92 2.16-64.8 0-27.04-.8-46.88-2.4-59.52l-9.36-.72c-.48-1.92-.72-4.4-.72-7.44s.08-5.04.24-6c10.24-.16 19.36-.88 27.36-2.16 8-1.28 16.48-1.92 25.44-1.92 16.16 0 28.4 3.76 36.72 11.28 8.48 7.36 12.72 18.56 12.72 33.6 0 15.04-5.12 26.4-15.36 34.08 17.12 6.88 25.68 19.12 25.68 36.72 0 14.88-4.64 26.16-13.92 33.84-9.28 7.52-22.96 11.28-41.04 11.28-10.08 0-19.44-.64-28.08-1.92-15.2-1.12-25.04-1.84-29.52-2.16-.16-.96-.24-2.88-.24-5.76s.24-5.44.72-7.68l9.6-.72ZM97 281.72c3.52 2.4 8.64 3.6 15.36 3.6 6.88 0 12.24-2.24 16.08-6.72 3.84-4.64 5.76-11.52 5.76-20.64 0-9.28-2.56-16.64-7.68-22.08-5.12-5.6-12.4-8.4-21.84-8.4-5.92 0-12.48 1.44-19.68 4.32-1.28 13.28-1.92 32.64-1.92 58.08 0 25.44.64 46.32 1.92 62.64 9.44 3.68 18 5.52 25.68 5.52 22.56 0 33.84-9.52 33.84-28.56 0-16-7.44-25.76-22.32-29.28-4.8.8-9.52 1.2-14.16 1.2-4.48 0-9.84-1.2-16.08-3.6 0-7.36 1.68-12.72 5.04-16.08Zm166.607-8.16c3.52-.32 5.92-.48 7.2-.48 1.28 0 3.36.24 6.24.72-.16 4.96-.24 11.36-.24 19.2s.08 12.96.24 15.36c-2.4.48-4.72.72-6.96.72s-4.4-.16-6.48-.48l-.72-8.4c-8.64-.32-15.76-.48-21.36-.48s-12.72.16-21.36.48c0 20.96.56 38.48 1.68 52.56 5.6.48 13.52.72 23.76.72 10.4 0 18.56-.4 24.48-1.2l.72-16.32c2.72-.48 5.2-.72 7.44-.72 2.4 0 4.4.08 6 .24.16 12.48.88 24.32 2.16 35.52l-1.2 1.2c-7.84-.8-25.04-1.2-51.6-1.2-26.4 0-40.32.08-41.76.24-.48-2.4-.72-4.64-.72-6.72 0-2.24.16-4.48.48-6.72l8.4-.72c1.44-24.8 2.16-47.2 2.16-67.2 0-20.16-.96-39.6-2.88-58.32l-8.16-.72c-.32-2.08-.48-4.24-.48-6.48s.24-4.56.72-6.96c4 .16 18.64.24 43.92.24s41.52-.72 48.72-2.16l1.2 1.2c-1.28 14.08-2 25.44-2.16 34.08-1.6.16-3.6.24-6 .24s-4.88-.24-7.44-.72l-.72-16.32c-8.16-.48-16.64-.72-25.44-.72s-16.08.24-21.84.72c-.96 10.08-1.44 26.56-1.44 49.44 2.56.16 7.76.24 15.6.24s16.88-.32 27.12-.96l.72-9.12Zm103.573-40.32c-1.12 12.48-1.68 32.56-1.68 60.24 0 27.52.64 48.72 1.92 63.6l13.92 1.44c.32 2.56.48 4.64.48 6.24 0 1.44-.24 3.6-.72 6.48-5.76-.16-14.08-.24-24.96-.24-10.72 0-18.56.08-23.52.24-.48-2.4-.72-4.4-.72-6 0-1.6.16-3.84.48-6.72l13.2-1.44c1.28-17.12 1.92-38.8 1.92-65.04 0-26.4-.72-46-2.16-58.8-6.24.16-14.88.72-25.92 1.68l-.72 17.76c-2.56.48-4.96.72-7.2.72s-4.32-.08-6.24-.24c-.48-13.12-1.2-25.28-2.16-36.48l1.2-1.2c11.84 1.44 30.8 2.16 56.88 2.16 26.08 0 42.4-.72 48.96-2.16l1.2 1.2c-1.12 12.32-1.84 23.68-2.16 34.08-1.92.16-4 .24-6.24.24-2.08 0-4.48-.24-7.2-.72l-.72-16.08c-6.72-.32-16-.64-27.84-.96Zm48.587-3.12c-.32-2.56-.48-4.72-.48-6.48 0-1.92.24-4.24.72-6.96 5.6.16 12.72.24 21.36.24 8.64 0 15.68-.08 21.12-.24.48 2.4.72 4.8.72 7.2 0 2.4-.16 4.48-.48 6.24l-8.4.72c7.52 50.72 16.56 90.48 27.12 119.28h1.44c4.96-12.16 9.68-28.96 14.16-50.4 4.64-21.6 8.16-41.84 10.56-60.72 4.8-1.92 8.72-2.88 11.76-2.88 3.2 0 6.08.16 8.64.48 7.2 48.64 16 86.48 26.4 113.52h1.44c5.44-15.2 10.56-34.4 15.36-57.6 4.8-23.36 8.16-43.92 10.08-61.68l-8.64-.72c-.32-1.28-.48-3.12-.48-5.52 0-2.56.24-5.2.72-7.92 5.76.16 12.72.24 20.88.24 8.16 0 14.72-.08 19.68-.24.48 2.4.72 4.48.72 6.24 0 1.6-.16 4-.48 7.2l-8.4.72c-4.64 14.56-11.36 37.52-20.16 68.88-8.8 31.2-15.28 54.96-19.44 71.28-5.76 1.44-11.04 2.16-15.84 2.16-4.64 0-7.68-.08-9.12-.24-2.24-7.68-6.08-22.16-11.52-43.44-5.28-21.28-9.2-36.8-11.76-46.56h-1.2c-10.72 38.88-18.56 68.24-23.52 88.08-5.76 1.44-11.04 2.16-15.84 2.16-4.64 0-7.68-.08-9.12-.24-.64-2.08-5.92-22.32-15.84-60.72-9.76-38.56-17.52-65.68-23.28-81.36l-8.88-.72Zm283.309 43.44c3.52-.32 5.92-.48 7.2-.48 1.28 0 3.36.24 6.24.72-.16 4.96-.24 11.36-.24 19.2s.08 12.96.24 15.36c-2.4.48-4.72.72-6.96.72s-4.4-.16-6.48-.48l-.72-8.4c-8.64-.32-15.76-.48-21.36-.48s-12.72.16-21.36.48c0 20.96.56 38.48 1.68 52.56 5.6.48 13.52.72 23.76.72 10.4 0 18.56-.4 24.48-1.2l.72-16.32c2.72-.48 5.2-.72 7.44-.72 2.4 0 4.4.08 6 .24.16 12.48.88 24.32 2.16 35.52l-1.2 1.2c-7.84-.8-25.04-1.2-51.6-1.2-26.4 0-40.32.08-41.76.24-.48-2.4-.72-4.64-.72-6.72 0-2.24.16-4.48.48-6.72l8.4-.72c1.44-24.8 2.16-47.2 2.16-67.2 0-20.16-.96-39.6-2.88-58.32l-8.16-.72c-.32-2.08-.48-4.24-.48-6.48s.24-4.56.72-6.96c4 .16 18.64.24 43.92.24s41.52-.72 48.72-2.16l1.2 1.2c-1.28 14.08-2 25.44-2.16 34.08-1.6.16-3.6.24-6 .24s-4.88-.24-7.44-.72l-.72-16.32c-8.16-.48-16.64-.72-25.44-.72s-16.08.24-21.84.72c-.96 10.08-1.44 26.56-1.44 49.44 2.56.16 7.76.24 15.6.24s16.88-.32 27.12-.96l.72-9.12Zm124.453 0c3.52-.32 5.92-.48 7.2-.48 1.28 0 3.36.24 6.24.72-.16 4.96-.24 11.36-.24 19.2s.08 12.96.24 15.36c-2.4.48-4.72.72-6.96.72s-4.4-.16-6.48-.48l-.72-8.4c-8.64-.32-15.76-.48-21.36-.48s-12.72.16-21.36.48c0 20.96.56 38.48 1.68 52.56 5.6.48 13.52.72 23.76.72 10.4 0 18.56-.4 24.48-1.2l.72-16.32c2.72-.48 5.2-.72 7.44-.72 2.4 0 4.4.08 6 .24.16 12.48.88 24.32 2.16 35.52l-1.2 1.2c-7.84-.8-25.04-1.2-51.6-1.2-26.4 0-40.32.08-41.76.24-.48-2.4-.72-4.64-.72-6.72 0-2.24.16-4.48.48-6.72l8.4-.72c1.44-24.8 2.16-47.2 2.16-67.2 0-20.16-.96-39.6-2.88-58.32l-8.16-.72c-.32-2.08-.48-4.24-.48-6.48s.24-4.56.72-6.96c4 .16 18.64.24 43.92.24s41.52-.72 48.72-2.16l1.2 1.2c-1.28 14.08-2 25.44-2.16 34.08-1.6.16-3.6.24-6 .24s-4.88-.24-7.44-.72l-.72-16.32c-8.16-.48-16.64-.72-25.44-.72s-16.08.24-21.84.72c-.96 10.08-1.44 26.56-1.44 49.44 2.56.16 7.76.24 15.6.24s16.88-.32 27.12-.96l.72-9.12Zm151.813 62.64c.48-13.44.72-31.04.72-52.8 0-21.76-.72-39.28-2.16-52.56l-8.88-.72c-.32-2.56-.48-4.72-.48-6.48 0-1.92.24-4.24.72-6.96 5.12.16 10.96.24 17.52.24 6.72 0 12.56-.08 17.518-.24.48 2.4.72 4.56.72 6.48 0 1.76-.16 4.08-.48 6.96l-8.398.72c-1.12 12.96-1.68 37.36-1.68 73.2 0 35.68 1.36 57.84 4.08 66.48-4.8 1.6-8.32 2.4-10.56 2.4-2.08 0-5.84-.16-11.28-.48-1.12-4.96-5.84-13.92-14.16-26.88-8.32-13.12-18.72-28.72-31.2-46.8-12.32-18.08-21.2-31.6-26.64-40.56-.16 6.88-.24 20.88-.24 42s.72 40.08 2.16 56.88l8.88.72c.32 2.56.48 4.8.48 6.72 0 1.76-.24 4-.72 6.72-5.12-.16-11.04-.24-17.76-.24-6.72 0-12.56.08-17.52.24-.48-2.4-.72-4.48-.72-6.24 0-1.92.16-4.32.48-7.2l8.4-.72c1.28-17.28 1.92-39.12 1.92-65.52 0-26.56-.72-46.4-2.16-59.52l-9.36-.72c-.48-2.24-.72-4.72-.72-7.44 0-2.72.08-4.72.24-6 13.6-.32 23.68-.72 30.24-1.2 3.04 11.52 11.68 28.8 25.92 51.84a1183.67 1183.67 0 0 0 45.12 67.68ZM-82.44 859.16c-7.2 0-13.76-1.52-19.68-4.56-5.76-3.04-10.64-6.72-14.64-11.04l-4.56 13.44h-52.56V713.72H-189V681.8l71.28-7.68v69.84c6.08-4.96 12.4-8.64 18.96-11.04 6.56-2.56 12.8-3.84 18.72-3.84 11.2 0 20.72 2.88 28.56 8.64 8 5.76 13.92 13.6 17.76 23.52 4 9.76 6 20.64 6 32.64 0 12.48-2.08 23.68-6.24 33.6-4 9.76-10.16 17.52-18.48 23.28-8.16 5.6-18.16 8.4-30 8.4Zm-17.04-34.32c5.6 0 10.24-2.72 13.92-8.16 3.68-5.6 5.52-12.08 5.52-19.44 0-9.12-1.6-17.04-4.8-23.76-3.2-6.72-8.08-10.08-14.64-10.08-3.68 0-7.28.8-10.8 2.4-3.52 1.6-6 3.36-7.44 5.28v48c1.76 1.44 4.4 2.8 7.92 4.08 3.52 1.12 6.96 1.68 10.32 1.68Zm158.981 34.32c-14.56 0-27.2-2.64-37.92-7.92-10.72-5.44-18.96-13.12-24.72-23.04-5.76-9.92-8.64-21.52-8.64-34.8 0-13.12 2.8-24.48 8.4-34.08 5.6-9.76 13.44-17.2 23.52-22.32 10.24-5.28 22.16-7.92 35.76-7.92 12.64 0 23.76 2.48 33.36 7.44 9.6 4.96 17.04 12 22.32 21.12 5.28 9.12 7.92 19.76 7.92 31.92 0 4.16-.64 8.16-1.92 12h-72.96c0 7.36 2.72 13.28 8.16 17.76 5.6 4.32 12.32 6.48 20.16 6.48 5.92 0 12.4-1.04 19.44-3.12 7.2-2.08 14.4-5.28 21.6-9.6l1.92.72v31.44c-8 4.64-16.24 8.16-24.72 10.56-8.48 2.24-19.04 3.36-31.68 3.36Zm15.12-78.24v-2.4c0-5.6-1.28-10.4-3.84-14.4-2.56-4-6.32-6-11.28-6-4.16 0-7.68 2.08-10.56 6.24-2.88 4-4.32 8.4-4.32 13.2v3.36h30Zm123.372 78.24c-15.2 0-26.56-3.84-34.08-11.52-7.36-7.84-11.04-19.68-11.04-35.52V765.8h-18.72v-34.32h18.72V704.6l56.16-12.48v39.36h22.56v34.32h-22.56v42.24c0 3.52 1.28 6.48 3.84 8.88 2.72 2.24 6.08 3.36 10.08 3.36 2.88 0 5.76-.24 8.64-.72v32.64c-10.24 4.64-21.44 6.96-33.6 6.96Zm94.996-2.16-27.84-89.28h-15.6v-36.24h83.04v36.24h-11.04l10.8 43.44 24.72-79.68h31.2l25.44 81.12 11.76-44.88h-13.92v-36.24h64.56v36.24h-15.84L433.629 857h-55.68l-15.12-50.4-17.76 50.4h-52.08Zm269.247 2.16c-14.56 0-27.2-2.64-37.92-7.92-10.72-5.44-18.96-13.12-24.72-23.04-5.76-9.92-8.64-21.52-8.64-34.8 0-13.12 2.8-24.48 8.4-34.08 5.6-9.76 13.44-17.2 23.52-22.32 10.24-5.28 22.16-7.92 35.76-7.92 12.64 0 23.76 2.48 33.36 7.44 9.6 4.96 17.04 12 22.32 21.12 5.28 9.12 7.92 19.76 7.92 31.92 0 4.16-.64 8.16-1.92 12h-72.96c0 7.36 2.72 13.28 8.16 17.76 5.6 4.32 12.32 6.48 20.16 6.48 5.92 0 12.4-1.04 19.44-3.12 7.2-2.08 14.4-5.28 21.6-9.6l1.92.72v31.44c-8 4.64-16.24 8.16-24.72 10.56-8.48 2.24-19.04 3.36-31.68 3.36Zm15.12-78.24v-2.4c0-5.6-1.28-10.4-3.84-14.4-2.56-4-6.32-6-11.28-6-4.16 0-7.68 2.08-10.56 6.24-2.88 4-4.32 8.4-4.32 13.2v3.36h30Zm134.411 78.24c-14.56 0-27.2-2.64-37.92-7.92-10.72-5.44-18.96-13.12-24.72-23.04-5.76-9.92-8.64-21.52-8.64-34.8 0-13.12 2.8-24.48 8.4-34.08 5.6-9.76 13.44-17.2 23.52-22.32 10.24-5.28 22.16-7.92 35.76-7.92 12.64 0 23.76 2.48 33.36 7.44 9.6 4.96 17.04 12 22.32 21.12 5.28 9.12 7.92 19.76 7.92 31.92 0 4.16-.64 8.16-1.92 12h-72.96c0 7.36 2.72 13.28 8.16 17.76 5.6 4.32 12.32 6.48 20.16 6.48 5.92 0 12.4-1.04 19.44-3.12 7.2-2.08 14.4-5.28 21.6-9.6l1.92.72v31.44c-8 4.64-16.24 8.16-24.72 10.56-8.48 2.24-19.04 3.36-31.68 3.36Zm15.12-78.24v-2.4c0-5.6-1.28-10.4-3.84-14.4-2.56-4-6.32-6-11.28-6-4.16 0-7.68 2.08-10.56 6.24-2.88 4-4.32 8.4-4.32 13.2v3.36h30Zm237.611 42.24V857h-72.48v-79.92c0-3.36-1.12-6.32-3.36-8.88-2.08-2.56-4.64-3.84-7.68-3.84-5.76 0-9.44 2.88-11.04 8.64-1.44 5.6-2.16 13.76-2.16 24.48v25.68h.24V857h-73.2v-33.84h17.04v-55.44h-17.04v-31.68l72.96-6.96v17.52c5.44-6.4 11.6-10.88 18.48-13.44 6.88-2.72 14.64-4.08 23.28-4.08 25.76 0 38.64 16.08 38.64 48.24v45.84h16.32ZM-304.8 560.36c0 16-4.24 29.84-12.72 41.52-8.32 11.68-20.64 17.52-36.96 17.52-16.48 0-28.08-6.24-34.8-18.72-.32 2.72-.72 5.44-1.2 8.16-.32 2.72-.72 5.44-1.2 8.16h-30.96c1.12-5.6 2.08-11.2 2.88-16.8.8-5.6 1.2-11.12 1.2-16.56V475.4h-14.4v-23.52h45.36v77.52c2.88-6.24 7.2-11.6 12.96-16.08 5.92-4.48 13.76-6.72 23.52-6.72 13.6 0 24.72 4.72 33.36 14.16 8.64 9.44 12.96 22.64 12.96 39.6Zm-32.16 2.64c0-10.4-2.24-18.32-6.72-23.76-4.48-5.44-10.4-8.16-17.76-8.16-8.32 0-14.8 3.04-19.44 9.12-4.48 6.08-6.72 13.12-6.72 21.12v2.64c0 8.8 2.16 16.24 6.48 22.32 4.48 5.92 10.8 8.88 18.96 8.88 7.04 0 12.96-2.56 17.76-7.68 4.96-5.28 7.44-13.44 7.44-24.48Zm148.268 19.92c-.8 9.6-5.52 18.08-14.16 25.44-8.64 7.36-20.72 11.04-36.24 11.04-16.16 0-29.52-4.56-40.08-13.68-10.4-9.12-15.6-22.72-15.6-40.8 0-16.64 4.72-30.48 14.16-41.52 9.6-11.2 22.96-16.8 40.08-16.8 15.04 0 27.2 4.32 36.48 12.96 9.44 8.64 14.24 20 14.4 34.08 0 5.28-.56 10.48-1.68 15.6h-71.04c1.76 17.12 10.24 25.68 25.44 25.68 8.32 0 13.92-2 16.8-6 3.04-4 4.88-7.6 5.52-10.8l25.92 4.8Zm-32.88-31.68c.64-5.44-.56-10.56-3.6-15.36-2.88-4.8-8-7.2-15.36-7.2-6.4 0-11.36 2.08-14.88 6.24-3.52 4.16-5.76 9.6-6.72 16.32h40.56Zm135.215 32.16c-1.6 12.48-5.92 21.6-12.96 27.36-7.04 5.76-16.16 8.64-27.36 8.64-12 0-21.76-2.96-29.28-8.88-7.36-6.08-11.04-14.72-11.04-25.92v-53.76h-15.36v-22.08h15.36v-32.88h30.96v32.88h38.88v22.08h-38.88v48.48c0 9.44 4.32 14.16 12.96 14.16 1.92 0 4.48-.8 7.68-2.4 3.36-1.76 5.52-6.64 6.48-14.64l22.56 6.96Zm177.259-51.36h-9.84L51.782 617h-23.04L.662 552.2h-1.44l-25.44 64.8h-21.84l-30-84.96h-9.84v-23.28h57.6v23.28h-14.88l13.2 42.24h1.44l25.44-65.52h18.48l29.52 64.56h1.44l8.88-41.28h-14.16v-23.28h51.84v23.28Zm109.937 50.88c-.8 9.6-5.52 18.08-14.16 25.44-8.64 7.36-20.72 11.04-36.24 11.04-16.16 0-29.52-4.56-40.08-13.68-10.4-9.12-15.6-22.72-15.6-40.8 0-16.64 4.72-30.48 14.16-41.52 9.6-11.2 22.96-16.8 40.08-16.8 15.04 0 27.2 4.32 36.48 12.96 9.44 8.64 14.24 20 14.4 34.08 0 5.28-.56 10.48-1.68 15.6h-71.04c1.76 17.12 10.24 25.68 25.44 25.68 8.32 0 13.92-2 16.8-6 3.04-4 4.88-7.6 5.52-10.8l25.92 4.8Zm-32.88-31.68c.64-5.44-.56-10.56-3.6-15.36-2.88-4.8-8-7.2-15.36-7.2-6.4 0-11.36 2.08-14.88 6.24-3.52 4.16-5.76 9.6-6.72 16.32h40.56Zm148.895 31.68c-.8 9.6-5.52 18.08-14.16 25.44-8.64 7.36-20.72 11.04-36.24 11.04-16.16 0-29.52-4.56-40.08-13.68-10.4-9.12-15.6-22.72-15.6-40.8 0-16.64 4.72-30.48 14.16-41.52 9.6-11.2 22.96-16.8 40.08-16.8 15.04 0 27.2 4.32 36.48 12.96 9.44 8.64 14.24 20 14.4 34.08 0 5.28-.56 10.48-1.68 15.6h-71.04c1.76 17.12 10.24 25.68 25.44 25.68 8.32 0 13.92-2 16.8-6 3.04-4 4.88-7.6 5.52-10.8l25.92 4.8Zm-32.88-31.68c.64-5.44-.56-10.56-3.6-15.36-2.88-4.8-8-7.2-15.36-7.2-6.4 0-11.36 2.08-14.88 6.24-3.52 4.16-5.76 9.6-6.72 16.32h40.56ZM461.19 617h-59.76v-23.28h14.4v-37.68c0-9.28-1.6-15.92-4.8-19.92-3.04-4-7.6-6-13.68-6-7.36 0-13.04 2.32-17.04 6.96-4 4.48-6.08 10.4-6.24 17.76v38.88h14.4V617h-59.76v-23.28h14.4v-61.44h-15.6v-23.52h46.56v16.56c7.2-12.48 18.8-18.72 34.8-18.72 10.24 0 19.12 3.04 26.64 9.12 7.52 6.08 11.28 15.52 11.28 28.32v49.68h14.4V617ZM556.602 619.461c-9.297 0-17.344-1.836-24.141-5.508-6.719-3.672-12.149-8.789-16.289-15.351L514.766 617h-12.071V446.023l-19.101-1.523v-10.312h33.164v75.351c4.14-6.797 9.492-12.109 16.054-15.937 6.641-3.829 14.493-5.743 23.555-5.743 10.156 0 18.867 2.774 26.133 8.321 7.266 5.468 12.812 13.203 16.641 23.203 3.906 10 5.859 21.758 5.859 35.273v2.461c0 12.656-1.953 23.633-5.859 32.93-3.829 9.297-9.375 16.523-16.641 21.68-7.188 5.156-15.82 7.734-25.898 7.734Zm-2.696-12.07c12.188 0 21.367-4.532 27.539-13.594 6.25-9.141 9.375-21.367 9.375-36.68v-2.461c0-10.859-1.406-20.39-4.218-28.594-2.735-8.203-6.875-14.609-12.422-19.218-5.469-4.61-12.305-6.914-20.508-6.914-9.922 0-17.852 2.5-23.789 7.5-5.86 4.922-10.235 11.172-13.125 18.75v57.187c2.969 7.344 7.578 13.203 13.828 17.578 6.25 4.297 14.023 6.446 23.32 6.446Zm129.961 12.07c-10.859 0-20.429-2.617-28.711-7.852-8.281-5.312-14.765-12.617-19.453-21.914-4.687-9.375-7.031-20.156-7.031-32.343v-6.446c0-12.109 2.344-22.89 7.031-32.344 4.688-9.531 11.016-17.031 18.985-22.5 8.046-5.468 16.992-8.203 26.835-8.203 10.391 0 19.258 2.227 26.602 6.68 7.422 4.453 13.086 10.742 16.992 18.867 3.985 8.047 5.977 17.539 5.977 28.477v11.953h-87.891l-.234 5.156c.078 9.375 1.797 17.735 5.156 25.078 3.437 7.344 8.203 13.125 14.297 17.344 6.172 4.219 13.32 6.328 21.445 6.328 7.969 0 14.961-1.25 20.977-3.75 6.094-2.578 11.445-6.054 16.054-10.43l5.977 9.61c-4.922 4.687-10.898 8.594-17.93 11.719-6.953 3.047-15.312 4.57-25.078 4.57Zm-39.726-77.344h72.89v-3.515c0-7.422-1.445-14.063-4.336-19.922-2.812-5.938-6.875-10.586-12.187-13.946-5.235-3.359-11.563-5.039-18.985-5.039-6.718 0-12.773 1.836-18.164 5.508-5.39 3.594-9.804 8.555-13.242 14.883-3.359 6.25-5.429 13.359-6.211 21.328l.235.703Zm154.57 77.11c-8.906 0-15.82-2.735-20.742-8.204-4.922-5.546-7.383-14.453-7.383-26.718V501.57h-21.914v-11.367h21.914v-32.578h14.062v32.578h29.532v11.367h-29.532v82.735c0 8.437 1.485 14.531 4.454 18.281 3.046 3.672 7.07 5.508 12.07 5.508 2.656 0 5.273-.156 7.851-.469 2.579-.391 5.235-.781 7.969-1.172l2.11 10.078c-2.813.86-6.016 1.524-9.61 1.992a83.225 83.225 0 0 1-10.781.704ZM883.906 617l-35.39-115.781-14.297-.703v-10.313h45.117v10.313l-16.524 1.172 21.797 74.296 5.86 20.86h.703l6.797-20.86 28.945-85.781h12.422l28.828 85.664 7.266 22.266.703-.117 6.797-22.149 21.8-74.297-16.644-1.054v-10.313h44.644v10.313l-14.29.937L983.164 617H969.57l-29.648-86.484-6.445-20.86-.704.117-6.328 20.743L896.562 617h-12.656Zm220.664 2.461c-10.86 0-20.43-2.617-28.71-7.852-8.28-5.312-14.77-12.617-19.45-21.914-4.69-9.375-7.03-20.156-7.03-32.343v-6.446c0-12.109 2.34-22.89 7.03-32.344 4.68-9.531 11.01-17.031 18.98-22.5 8.05-5.468 16.99-8.203 26.84-8.203 10.39 0 19.25 2.227 26.6 6.68 7.42 4.453 13.08 10.742 16.99 18.867 3.98 8.047 5.98 17.539 5.98 28.477v11.953h-87.89l-.24 5.156c.08 9.375 1.8 17.735 5.16 25.078 3.44 7.344 8.2 13.125 14.29 17.344 6.18 4.219 13.33 6.328 21.45 6.328 7.97 0 14.96-1.25 20.98-3.75 6.09-2.578 11.44-6.054 16.05-10.43l5.98 9.61c-4.92 4.687-10.9 8.594-17.93 11.719-6.95 3.047-15.31 4.57-25.08 4.57Zm-39.73-77.344h72.89v-3.515c0-7.422-1.44-14.063-4.33-19.922-2.81-5.938-6.88-10.586-12.19-13.946-5.23-3.359-11.56-5.039-18.98-5.039-6.72 0-12.78 1.836-18.17 5.508-5.39 3.594-9.8 8.555-13.24 14.883-3.36 6.25-5.43 13.359-6.21 21.328l.23.703Zm167 77.344c-10.86 0-20.43-2.617-28.72-7.852-8.28-5.312-14.76-12.617-19.45-21.914-4.69-9.375-7.03-20.156-7.03-32.343v-6.446c0-12.109 2.34-22.89 7.03-32.344 4.69-9.531 11.02-17.031 18.99-22.5 8.04-5.468 16.99-8.203 26.83-8.203 10.39 0 19.26 2.227 26.6 6.68 7.43 4.453 13.09 10.742 17 18.867 3.98 8.047 5.97 17.539 5.97 28.477v11.953h-87.89l-.23 5.156c.08 9.375 1.79 17.735 5.15 25.078 3.44 7.344 8.21 13.125 14.3 17.344 6.17 4.219 13.32 6.328 21.45 6.328 7.96 0 14.96-1.25 20.97-3.75 6.1-2.578 11.45-6.054 16.06-10.43l5.97 9.61c-4.92 4.687-10.89 8.594-17.93 11.719-6.95 3.047-15.31 4.57-25.07 4.57Zm-39.73-77.344H1265v-3.515c0-7.422-1.45-14.063-4.34-19.922-2.81-5.938-6.87-10.586-12.18-13.946-5.24-3.359-11.57-5.039-18.99-5.039-6.72 0-12.77 1.836-18.16 5.508-5.39 3.594-9.81 8.555-13.24 14.883-3.36 6.25-5.43 13.359-6.21 21.328l.23.703ZM1300.86 617v-10.195l19.1-1.524V502.039l-19.1-1.523v-10.313h31.52l1.17 22.735c4.07-7.969 9.54-14.141 16.41-18.516 6.88-4.375 15.08-6.563 24.61-6.563 13.75 0 24.22 4.219 31.41 12.657 7.18 8.359 10.78 21.484 10.78 39.375v65.39l19.1 1.524V617h-52.27v-10.195l19.11-1.524v-65.273c0-14.688-2.7-25.039-8.09-31.055-5.39-6.015-13.09-9.023-23.09-9.023-10.47 0-18.75 2.929-24.84 8.789-6.09 5.859-10.31 13.515-12.66 22.969v73.593l19.1 1.524V617h-52.26ZM1575.28 620.36c-8.16 0-15.44-2-21.84-6-6.24-4-11.36-8.56-15.36-13.68V617h-65.76v-39.36h10.56v-108h-10.56v-39.36h65.76v69.6c4-5.12 9.12-9.68 15.36-13.68 6.4-4 13.68-6 21.84-6 16.32 0 28.56 6.08 36.72 18.24 8.32 12.16 12.48 29.44 12.48 51.84 0 22.4-4.16 39.68-12.48 51.84-8.16 12.16-20.4 18.24-36.72 18.24ZM1552 577.64c4.64 0 8.08-1.2 10.32-3.6 2.4-2.56 3.6-6.48 3.6-11.76v-24c0-5.28-1.2-9.12-3.6-11.52-2.24-2.56-5.68-3.84-10.32-3.84-4.64 0-8.16 1.28-10.56 3.84-2.24 2.4-3.36 6.24-3.36 11.52v24c0 5.28 1.12 9.2 3.36 11.76 2.4 2.4 5.92 3.6 10.56 3.6Zm150.75 42.72c-22.72 0-40.48-5.92-53.28-17.76-12.8-12-19.2-29.44-19.2-52.32s6.4-40.24 19.2-52.08c12.8-12 30.56-18 53.28-18 22.56 0 38.8 5.92 48.72 17.76 10.08 11.68 15.12 26.24 15.12 43.68v17.28h-77.76v1.44c0 5.92 1.76 10.32 5.28 13.2 3.52 2.72 9.36 4.08 17.52 4.08 9.76 0 19.04-.72 27.84-2.16 8.8-1.44 16.48-3.28 23.04-5.52v38.4c-5.6 3.04-13.84 5.84-24.72 8.4-10.72 2.4-22.4 3.6-35.04 3.6Zm13.92-87.84v-2.88c0-5.44-1.2-9.36-3.6-11.76-2.24-2.4-5.68-3.6-10.32-3.6-4.64 0-8.16 1.28-10.56 3.84-2.24 2.4-3.36 6.24-3.36 11.52v2.88h27.84Zm116.34 87.84c-16.96 0-29.76-4.08-38.4-12.24-8.48-8.32-12.72-22.24-12.72-41.76v-43.44h-10.56v-39.36c6.08 0 10.64-1.52 13.68-4.56 3.04-3.2 4.56-7.52 4.56-12.96v-10.8h50.88v28.32h32.4v39.36h-32.4v39.36c0 5.28 1.12 9.2 3.36 11.76 2.4 2.4 5.92 3.6 10.56 3.6 6.08 0 12.72-.72 19.92-2.16v37.68c-4.48 1.76-10.56 3.36-18.24 4.8-7.52 1.6-15.2 2.4-23.04 2.4Zm88.84-3.36-31.68-94.08h-10.08v-39.36h74.16v39.36h-10.08l8.64 37.44h2.4l17.52-76.8h44.16l17.52 76.8h2.4l8.4-37.44h-10.08v-39.36h69.6v39.36h-10.08L2064.17 617h-58.32l-13.2-66.72h-2.4l-13.2 66.72h-55.2Zm261.13 3.36c-22.72 0-40.48-5.92-53.28-17.76-12.8-12-19.2-29.44-19.2-52.32s6.4-40.24 19.2-52.08c12.8-12 30.56-18 53.28-18 22.56 0 38.8 5.92 48.72 17.76 10.08 11.68 15.12 26.24 15.12 43.68v17.28h-77.76v1.44c0 5.92 1.76 10.32 5.28 13.2 3.52 2.72 9.36 4.08 17.52 4.08 9.76 0 19.04-.72 27.84-2.16 8.8-1.44 16.48-3.28 23.04-5.52v38.4c-5.6 3.04-13.84 5.84-24.72 8.4-10.72 2.4-22.4 3.6-35.04 3.6Zm13.92-87.84v-2.88c0-5.44-1.2-9.36-3.6-11.76-2.24-2.4-5.68-3.6-10.32-3.6-4.64 0-8.16 1.28-10.56 3.84-2.24 2.4-3.36 6.24-3.36 11.52v2.88h27.84Zm128.58 87.84c-22.72 0-40.48-5.92-53.28-17.76-12.8-12-19.2-29.44-19.2-52.32s6.4-40.24 19.2-52.08c12.8-12 30.56-18 53.28-18 22.56 0 38.8 5.92 48.72 17.76 10.08 11.68 15.12 26.24 15.12 43.68v17.28h-77.76v1.44c0 5.92 1.76 10.32 5.28 13.2 3.52 2.72 9.36 4.08 17.52 4.08 9.76 0 19.04-.72 27.84-2.16 8.8-1.44 16.48-3.28 23.04-5.52v38.4c-5.6 3.04-13.84 5.84-24.72 8.4-10.72 2.4-22.4 3.6-35.04 3.6Zm13.92-87.84v-2.88c0-5.44-1.2-9.36-3.6-11.76-2.24-2.4-5.68-3.6-10.32-3.6-4.64 0-8.16 1.28-10.56 3.84-2.24 2.4-3.36 6.24-3.36 11.52v2.88h27.84Zm216.42 45.12V617h-75.84v-39.36h10.08v-39.36c0-5.28-1.12-9.12-3.36-11.52-2.24-2.56-5.6-3.84-10.08-3.84-9.6 0-14.4 5.12-14.4 15.36v39.36h10.08V617h-75.84v-39.36h10.56v-54.72h-10.56v-39.36h65.76v18.72c11.52-14.72 25.92-22.08 43.2-22.08 13.28 0 23.2 4.16 29.76 12.48 6.72 8.32 10.08 19.76 10.08 34.32v50.64h10.56ZM1082.72 362.48l-22.08 12.24c-1.44.8-2.56.8-3.36 0-.8-.64-1.2-1.2-1.2-1.68 0-.64.08-1.12.24-1.44l27.36-157.44h-10.32c-1.6.16-2.64 0-3.12-.48-.32-.48-.32-1.44 0-2.88l2.16-12.24c.32-2.4 1.84-3.6 4.56-3.6h33.12c1.6 0 2.56.24 2.88.72.48.48.56 1.44.24 2.88l-12.72 73.68c10.24-13.12 23.44-19.68 39.6-19.68 12.16 0 21.68 3.92 28.56 11.76 6.88 7.84 10.32 18.96 10.32 33.36 0 22.24-5.2 41.04-15.6 56.4-10.4 15.2-25.6 22.8-45.6 22.8-14.08 0-25.76-4.8-35.04-14.4Zm67.92-59.04c0-8.8-1.92-15.76-5.76-20.88-3.84-5.12-9.52-7.68-17.04-7.68s-14.4 2.24-20.64 6.72c-6.24 4.32-10.08 10.48-11.52 18.48l-7.44 43.68a46.57 46.57 0 0 0 3.84 4.32c1.44 1.28 4.4 3.04 8.88 5.28 4.48 2.08 9.2 3.12 14.16 3.12 23.68 0 35.52-17.68 35.52-53.04Zm134.6 59.52c-12.8 9.28-27.44 13.92-43.92 13.92s-28.56-4.16-36.24-12.48c-7.68-8.48-11.52-20.08-11.52-34.8 0-19.36 5.36-36.72 16.08-52.08 5.28-7.52 12.24-13.52 20.88-18 8.8-4.64 18.88-6.96 30.24-6.96 11.52 0 20.48 2.96 26.88 8.88 6.4 5.76 9.6 13.44 9.6 23.04-.16 14.4-6.08 24.88-17.76 31.44-11.68 6.56-25.84 9.84-42.48 9.84-3.84 0-8.96-.32-15.36-.96-.16 1.28-.24 3.04-.24 5.28 0 8 2.16 14.48 6.48 19.44 4.48 4.8 11.52 7.2 21.12 7.2 9.6 0 18.96-2.72 28.08-8.16 2.24-1.12 3.92-.64 5.04 1.44l4.08 7.44c1.28 2.08.96 3.92-.96 5.52Zm-30.96-89.76c-8.32 0-15.12 3.2-20.4 9.6-5.28 6.4-8.72 14.48-10.32 24.24 3.2.64 6.24.96 9.12.96 10.08 0 18.72-1.84 25.92-5.52 7.36-3.68 11.04-9.28 11.04-16.8 0-4-1.44-7.04-4.32-9.12-2.72-2.24-6.4-3.36-11.04-3.36Zm129.76-18c2.24 0 3.36.64 3.36 1.92 0 .48-.08 1.04-.24 1.68l-2.16 12.72c-.32 1.44-.8 2.4-1.44 2.88-.48.48-1.52.64-3.12.48h-24l-10.08 56.4c-.96 5.44-1.44 10.24-1.44 14.4 0 4 .8 7.04 2.4 9.12 1.76 1.92 4.96 2.88 9.6 2.88s9.2-.88 13.68-2.64c2.24-.8 3.84-.08 4.8 2.16l2.16 8.16c.8 2.4.08 4.08-2.16 5.04-9.6 4.32-19.68 6.48-30.24 6.48-10.4 0-17.76-2.16-22.08-6.48-4.16-4.32-6.24-10.32-6.24-18 0-4.48.8-11.04 2.4-19.68l10.56-57.84h-13.44c-2.24.16-3.36-.4-3.36-1.68 0-.48.08-1.04.24-1.68l1.92-12.72c.32-1.44.72-2.4 1.2-2.88.64-.48 1.76-.72 3.36-.72h13.44l5.52-32.4c.32-1.44.72-2.4 1.2-2.88.64-.48 1.76-.72 3.36-.72h19.2c1.6 0 2.56.24 2.88.72.48.48.56 1.44.24 2.88l-5.52 32.4h24Zm33.19-2.64c12.32 0 18.96 6.96 19.92 20.88l6.24 78c17.12-25.6 28-56.4 32.64-92.4.32-1.6.72-2.64 1.2-3.12s1.52-.72 3.12-.72h26.88c1.6 0 2.64.24 3.12.72s.88 1.52 1.2 3.12l9.36 92.4c9.12-14.08 15.92-28.24 20.4-42.48 4.64-14.4 8.08-31.04 10.32-49.92.32-1.6.72-2.64 1.2-3.12s1.52-.72 3.12-.72h16.32c1.44 0 2.32.24 2.64.72.32.32.48.8.48 1.44v1.68c-2.08 18.4-7.68 38.8-16.8 61.2-9.12 22.24-19.84 39.84-32.16 52.8-1.6 1.76-3.68 2.64-6.24 2.64h-18c-1.6 0-2.64-.24-3.12-.72s-.8-1.52-.96-3.12l-7.68-83.52a267.264 267.264 0 0 1-17.04 47.52c-7.2 15.2-15.36 27.6-24.48 37.2-1.6 1.76-3.68 2.64-6.24 2.64h-18c-1.6 0-2.64-.24-3.12-.72s-.88-1.52-1.2-3.12l-9.84-95.04c-.48-5.28-2.48-7.92-6-7.92-1.6 0-3.76.56-6.48 1.68-2.56 1.12-4.24.48-5.04-1.92l-1.44-3.6c-.16-.64-.24-1.44-.24-2.4 0-1.12.8-2.08 2.4-2.88 8.16-4.8 16-7.2 23.52-7.2Zm261.06 110.4c-12.8 9.28-27.44 13.92-43.92 13.92s-28.56-4.16-36.24-12.48c-7.68-8.48-11.52-20.08-11.52-34.8 0-19.36 5.36-36.72 16.08-52.08 5.28-7.52 12.24-13.52 20.88-18 8.8-4.64 18.88-6.96 30.24-6.96 11.52 0 20.48 2.96 26.88 8.88 6.4 5.76 9.6 13.44 9.6 23.04-.16 14.4-6.08 24.88-17.76 31.44-11.68 6.56-25.84 9.84-42.48 9.84-3.84 0-8.96-.32-15.36-.96-.16 1.28-.24 3.04-.24 5.28 0 8 2.16 14.48 6.48 19.44 4.48 4.8 11.52 7.2 21.12 7.2 9.6 0 18.96-2.72 28.08-8.16 2.24-1.12 3.92-.64 5.04 1.44l4.08 7.44c1.28 2.08.96 3.92-.96 5.52Zm-30.96-89.76c-8.32 0-15.12 3.2-20.4 9.6-5.28 6.4-8.72 14.48-10.32 24.24 3.2.64 6.24.96 9.12.96 10.08 0 18.72-1.84 25.92-5.52 7.36-3.68 11.04-9.28 11.04-16.8 0-4-1.44-7.04-4.32-9.12-2.72-2.24-6.4-3.36-11.04-3.36Zm144.4 89.76c-12.8 9.28-27.44 13.92-43.92 13.92s-28.56-4.16-36.24-12.48c-7.68-8.48-11.52-20.08-11.52-34.8 0-19.36 5.36-36.72 16.08-52.08 5.28-7.52 12.24-13.52 20.88-18 8.8-4.64 18.88-6.96 30.24-6.96 11.52 0 20.48 2.96 26.88 8.88 6.4 5.76 9.6 13.44 9.6 23.04-.16 14.4-6.08 24.88-17.76 31.44-11.68 6.56-25.84 9.84-42.48 9.84-3.84 0-8.96-.32-15.36-.96-.16 1.28-.24 3.04-.24 5.28 0 8 2.16 14.48 6.48 19.44 4.48 4.8 11.52 7.2 21.12 7.2 9.6 0 18.96-2.72 28.08-8.16 2.24-1.12 3.92-.64 5.04 1.44l4.08 7.44c1.28 2.08.96 3.92-.96 5.52Zm-30.96-89.76c-8.32 0-15.12 3.2-20.4 9.6-5.28 6.4-8.72 14.48-10.32 24.24 3.2.64 6.24.96 9.12.96 10.08 0 18.72-1.84 25.92-5.52 7.36-3.68 11.04-9.28 11.04-16.8 0-4-1.44-7.04-4.32-9.12-2.72-2.24-6.4-3.36-11.04-3.36Zm60.39 100.8c-2.24 0-3.36-.64-3.36-1.92 0-.48.08-1.04.24-1.68l16.8-96h-10.32c-1.6.16-2.64 0-3.12-.48-.32-.48-.32-1.44 0-2.88l1.92-12.24c.32-1.44.72-2.4 1.2-2.88.64-.48 1.76-.72 3.36-.72h30.24c1.6 0 2.56.24 2.88.72.48.48.56 1.44.24 2.88l-2.16 13.92c11.36-13.44 25.6-20.16 42.72-20.16 10.08 0 17.92 2.64 23.52 7.92 5.76 5.12 8.64 12.48 8.64 22.08 0 4.32-.64 9.36-1.92 15.12L1921 350.24c-.16 1.12-.24 2.08-.24 2.88 0 3.04 1.28 4.56 3.84 4.56 1.92 0 4.16-.56 6.72-1.68 2.72-1.12 4.56-.64 5.52 1.44l1.92 3.84c.48.8.72 1.68.72 2.64 0 .96-.64 1.92-1.92 2.88-8.64 6.88-17.36 10.32-26.16 10.32-12.48 0-18.72-5.28-18.72-15.84 0-2.08.24-4.4.72-6.96l10.32-49.92c1.12-5.92 1.68-10.96 1.68-15.12 0-9.28-5.36-13.92-16.08-13.92-8 0-15.12 2.24-21.36 6.72-6.08 4.48-9.68 10-10.8 16.56l-12.48 71.76c-.16 1.44-.56 2.4-1.2 2.88-.64.48-1.76.72-3.36.72h-18.96ZM1032.65 843.289c-3.36 3.203-5.04 7.773-5.04 13.711h-17.34V705.711c0-5.625-.51-9.297-1.53-11.016-.94-1.718-3.59-2.578-7.97-2.578h-8.317v-12.89c7.577 0 13.517-.547 17.817-1.641 4.37-1.172 7.46-1.992 9.25-2.461 1.88-.547 3.87-.82 5.98-.82 4.14 0 6.84 1.211 8.09 3.633 1.32 2.343 1.99 6.132 1.99 11.367v62.812c8.36-10.859 20.31-16.289 35.86-16.289 15.62 0 28.01 5 37.15 15 9.21 9.922 13.82 24.57 13.82 43.945s-4.8 35-14.41 46.875c-9.53 11.797-22.89 17.696-40.08 17.696-14.14 0-25.9-5.352-35.27-16.055Zm2.34-44.297c0 14.297 2.7 25.586 8.09 33.867 5.47 8.282 12.85 12.422 22.15 12.422 9.22 0 16.48-4.258 21.79-12.773 5.39-8.516 8.09-19.805 8.09-33.867 0-22.422-5.31-37.344-15.94-44.766-3.83-2.578-8.36-3.867-13.59-3.867-5.16 0-9.61 1.25-13.36 3.75s-6.88 5.937-9.38 10.312c-5.23 8.985-7.85 20.625-7.85 34.922Zm217.5 3.985h-81.33c0 13.437 3.17 23.828 9.5 31.171 6.4 7.344 14.29 11.016 23.67 11.016 12.58 0 21.6-5.195 27.07-15.586l17.46-.117c-1.8 8.359-6.95 15.43-15.47 21.211-8.44 5.781-19.84 8.672-34.22 8.672-14.37 0-26.79-4.453-37.26-13.36-12.5-10.703-18.75-25.781-18.75-45.234 0-19.453 4.96-35.117 14.88-46.992 10-11.953 24.3-17.93 42.89-17.93 24.45 0 40.27 9.844 47.46 29.531 2.89 7.891 4.34 15.352 4.34 22.383 0 7.031-.08 12.11-.24 15.235Zm-27.07-17.579c0-23.906-8.12-35.859-24.37-35.859-9.14 0-16.29 3.555-21.45 10.664-5.08 7.109-7.85 16.953-8.32 29.531h54.02c.08-1.484.12-2.929.12-4.336Zm96.45 73.946c-24.61 0-36.92-13.672-36.92-41.016v-58.594c0-3.046-.39-5.039-1.17-5.976-.7-1.016-2.26-1.524-4.69-1.524h-9.61v-14.062h4.34c5.94 0 10.27-1.875 13.01-5.625 2.81-3.75 4.33-9.922 4.57-18.516l.12-10.429h18.75v34.57h35.97v14.062h-35.97v65.743c0 14.531 3.35 23.203 10.07 26.015 1.88.781 3.75 1.172 5.63 1.172 8.2 0 13.55-6.758 16.05-20.273h13.6c-.78 16.015-7.46 26.64-20.04 31.875-4.06 1.718-8.63 2.578-13.71 2.578Zm55.19-95.742c-1.87-4.766-3.83-8.047-5.86-9.844-2.03-1.797-5.66-2.696-10.9-2.696v-12.89h59.18v12.89c-8.2 0-13.16.743-14.88 2.227-1.64 1.406-2.46 2.891-2.46 4.453.08 1.563.55 3.516 1.41 5.86l22.73 63.75 30.24-89.18h16.99l29.53 91.758 22.26-66.328c1.65-4.532 1.1-7.735-1.64-9.61-2.73-1.953-8.47-2.93-17.22-2.93v-12.89h53.44v12.89c-5.16 0-9.11 1.016-11.84 3.047-2.66 2.032-4.73 5.196-6.21 9.493L1509.37 857h-19.81l-29.18-80.273L1433.2 857h-19.81l-36.33-93.398Zm301.06 39.375h-81.33c0 13.437 3.16 23.828 9.49 31.171 6.41 7.344 14.3 11.016 23.67 11.016 12.58 0 21.6-5.195 27.07-15.586l17.46-.117c-1.79 8.359-6.95 15.43-15.46 21.211-8.44 5.781-19.85 8.672-34.22 8.672-14.38 0-26.8-4.453-37.27-13.36-12.5-10.703-18.75-25.781-18.75-45.234 0-19.453 4.96-35.117 14.88-46.992 10-11.953 24.3-17.93 42.89-17.93 24.46 0 40.28 9.844 47.47 29.531 2.89 7.891 4.33 15.352 4.33 22.383 0 7.031-.08 12.11-.23 15.235Zm-27.07-17.579c0-23.906-8.13-35.859-24.38-35.859-9.14 0-16.29 3.555-21.44 10.664-5.08 7.109-7.85 16.953-8.32 29.531h54.02c.08-1.484.12-2.929.12-4.336Zm157.85 17.579h-81.33c0 13.437 3.16 23.828 9.49 31.171 6.41 7.344 14.3 11.016 23.67 11.016 12.58 0 21.61-5.195 27.07-15.586l17.47-.117c-1.8 8.359-6.96 15.43-15.47 21.211-8.44 5.781-19.85 8.672-34.22 8.672-14.38 0-26.8-4.453-37.27-13.36-12.5-10.703-18.75-25.781-18.75-45.234 0-19.453 4.96-35.117 14.89-46.992 10-11.953 24.29-17.93 42.89-17.93 24.45 0 40.27 9.844 47.46 29.531 2.89 7.891 4.33 15.352 4.33 22.383 0 7.031-.08 12.11-.23 15.235Zm-27.07-17.579c0-23.906-8.13-35.859-24.38-35.859-9.14 0-16.29 3.555-21.44 10.664-5.08 7.109-7.85 16.953-8.32 29.531h54.02c.08-1.484.12-2.929.12-4.336Zm120.23-31.992c-12.81 0-23.2 3.985-31.17 11.953v66.446c0 4.843.78 7.89 2.34 9.14 2.74 2.11 7.89 3.164 15.47 3.164V857h-59.53v-12.891c6.72 0 10.94-.664 12.66-1.992 1.72-1.406 2.77-2.89 3.16-4.453.39-1.562.59-3.516.59-5.859v-63.867c0-5.626-.51-9.297-1.53-11.016-.93-1.719-3.59-2.578-7.96-2.578h-7.15v-12.891c7.34 0 13.08-.547 17.22-1.641 4.22-1.171 7.19-1.992 8.91-2.46 1.8-.547 3.71-.821 5.74-.821 4.14 0 6.84 1.211 8.09 3.633 1.33 2.344 1.99 6.133 1.99 11.367 8.36-7.031 18.05-11.797 29.06-14.297 3.67-.859 7.27-1.289 10.78-1.289 25.32 0 37.97 16.758 37.97 50.274v45.351c0 5.157.75 8.555 2.23 10.196 1.48 1.562 5.55 2.343 12.19 2.343V857h-55.43v-12.891c7.11 0 11.36-.703 12.77-2.109 1.49-1.484 2.34-3.008 2.58-4.57.23-1.563.35-3.516.35-5.86v-43.828c0-10.859-1.01-18.32-3.05-22.383-3.98-7.968-10.07-11.953-18.28-11.953Z"/></g></svg>