<svg width="1920" height="1080" fill="none" xmlns="http://www.w3.org/2000/svg"><path d="M487.942 447.115c-1.348 0-2.696-.449-3.594-1.347-.899-.899-1.348-1.797-1.348-2.696 0-1.797 1.797-3.145 4.942-4.043 8.086-2.246 14.825-4.043 20.216-5.84 5.391-1.797 8.985-4.493 11.68-7.638 2.246-3.594 3.594-8.535 3.594-14.825V287.184c0-4.044-1.348-7.188-4.043-9.435-2.696-2.246-5.84-3.594-9.883-4.492-4.044-.899-8.536-1.348-13.029-1.348-2.246 0-4.043-.898-5.84-1.797-1.797-.898-2.695-2.246-2.695-4.043 0-1.348.898-2.695 2.246-4.043 1.797-.449 3.594-1.348 5.84-1.348 9.434-1.797 18.419-3.594 26.056-5.84 7.638-2.246 15.275-7.188 22.463-14.376 0 0 .449-.449.898-.449h.899c.898 0 2.246.449 2.695.898.899.449 1.348 1.348.899 2.246-.45 3.145-.899 6.739-.899 10.333 0 3.594-.449 8.087-.449 12.579V414.77c0 5.391.898 9.434 3.145 12.129 2.246 2.696 5.391 4.942 10.332 6.739 4.942 1.797 11.681 3.594 20.666 5.84 1.347 0 2.695.899 3.594 1.348 1.347.898 1.797 1.797 1.797 2.695 0 2.247-1.348 3.594-4.493 3.594-5.84 0-11.68 0-16.622-.449s-9.883-.449-14.825-.898c-4.942 0-10.333-.45-16.173-.45-5.84 0-11.231 0-16.622.45-5.391 0-10.333.449-15.724.898-4.492.449-9.883.449-15.723.449ZM655.061 450.709c-6.739 0-13.028-.898-18.868-3.145-5.841-2.246-10.782-4.941-14.826-8.535-.898-2.246-1.797-6.29-2.246-12.13-.449-5.391-.898-10.333-1.348-13.927 0-1.796 1.348-2.695 4.044-2.695.898 0 1.797 0 2.246.449.898.45 1.348.899 1.348 1.797 2.695 10.782 7.188 17.97 13.477 22.463 6.289 4.492 12.13 6.738 18.419 6.738 6.29 0 11.681-2.246 16.173-6.289 4.492-4.043 6.739-9.434 6.739-15.724 0-5.84-1.797-10.782-5.841-14.825-4.043-4.043-10.781-9.434-20.216-15.274-7.188-4.493-13.477-8.985-17.969-13.028-4.493-4.044-7.638-8.087-9.884-12.579-2.246-4.493-3.145-8.985-3.145-14.376 0-6.739 1.797-13.028 4.942-18.869 3.145-5.391 8.087-9.883 14.376-13.477 6.289-3.145 14.376-4.942 24.259-4.942 6.29 0 11.681.45 16.173 1.797 4.493 1.348 7.637 2.696 9.884 4.044 1.797 2.246 3.144 6.289 4.492 11.231 1.348 4.941 1.797 9.883 1.797 14.376 0 1.347-.898 2.246-3.145 2.246-1.347 0-2.695-.449-3.594-.899-1.347-.449-1.797-1.347-2.246-2.246-2.695-7.188-6.289-12.579-10.333-16.173-4.043-3.594-9.434-5.84-15.723-5.84-5.84.449-10.333 2.246-14.825 5.391-4.044 3.145-6.29 8.086-6.29 14.376 0 4.942 1.348 9.434 4.493 13.477 3.144 4.043 8.985 8.087 17.52 13.478 12.579 7.188 22.013 13.926 27.854 19.766 6.289 6.29 9.434 14.376 9.434 24.26 0 11.68-4.493 21.114-13.478 28.302-8.086 7.188-19.766 10.782-33.693 10.782ZM774.109 450.71c-10.782 0-18.869-3.145-24.709-9.884-5.84-6.289-8.985-16.173-8.985-28.752V337.05c0-1.797-.449-3.145-1.797-3.594-1.348-.898-4.043-1.348-8.536-1.348h-1.797c-.898 0-1.797-.898-2.695-2.246-.899-1.348-1.348-2.695-1.348-4.492 0-.449.449-.899.899-1.797.449-.899.898-1.348 1.347-1.797 4.493-3.145 8.087-5.84 11.681-8.985 3.594-3.145 6.739-5.84 9.883-8.985 2.696-2.696 5.391-5.391 7.188-8.087l2.696-2.695c.898-.898 1.797-1.348 2.695-1.348.899 0 2.246 0 3.145.45.898.449 1.348 1.347 1.348 2.695l-1.797 14.376c0 2.246.449 4.043 1.797 4.942 1.347.898 3.144 1.347 6.289 1.347h36.838c.899 0 1.797.899 2.246 2.247.45 1.347.899 3.144.899 4.941 0 1.797-.449 4.043-.899 5.84-.449 1.797-1.347 2.696-2.246 2.696h-31.896c-5.391 0-8.985.449-10.333 1.348-1.797.898-2.246 3.594-2.246 7.637v63.793c0 8.536 1.797 15.274 5.391 20.216 3.594 4.942 8.985 7.637 15.723 7.637 6.29 0 11.232-.449 14.376-1.348 3.594-.898 6.739-2.246 9.435-4.492.449-.449.898-.449 1.347-.449.899 0 1.348.449 1.797 1.347.449.899.449 1.797.449 3.145 0 .899-1.797 3.145-5.39 6.29-3.594 3.144-8.087 6.289-13.927 8.985-5.84 4.043-12.13 5.391-18.868 5.391ZM1079.6 447.117c-1.35 0-4.04 0-7.19-.45-3.14 0-6.74-.449-10.78-.449-4.04 0-8.53-.449-12.58-.449-4.49 0-8.53-.449-12.58-.449-4.04 0-9.88 0-17.52.449-7.63 0-15.27.449-23.807.449-8.086 0-15.723.449-22.013.449-6.289 0-10.333.45-12.13.45-.898 0-2.246-.899-4.043-2.247-1.797-1.347-2.695-2.695-2.695-3.594 0-.898 0-1.797.449-2.246l1.797-1.797 55.262-57.054c10.78-11.231 19.76-23.81 26.95-37.737 7.19-13.926 10.78-27.853 10.78-42.229 0-11.231-3.59-20.216-10.33-26.955-6.74-6.738-14.83-9.883-24.26-9.883-8.98 0-17.071 2.246-24.709 7.188-7.637 4.941-13.477 11.231-17.969 18.868-.45 1.348-1.348 2.246-2.247 3.145-.898.898-1.797 1.348-3.144 1.348-.899 0-1.797-.899-3.145-2.696-1.348-1.797-1.797-4.043-1.797-6.739 0-2.695 1.348-6.289 4.492-10.782 3.145-4.492 7.638-8.984 13.029-13.926 5.39-4.942 12.129-8.985 20.216-12.13 7.634-3.145 16.174-4.942 25.154-4.942 10.79 0 20.22 2.247 27.86 6.739 7.63 4.493 13.47 10.782 17.97 18.869 4.04 8.086 6.29 17.071 6.29 27.853 0 5.84-.9 12.129-3.15 18.868-2.24 6.739-4.94 13.478-8.53 19.767-3.6 6.289-7.64 12.579-12.13 17.97-2.7 3.594-6.74 8.086-12.58 13.926-5.39 5.841-11.23 11.681-17.97 18.42-6.29 6.289-12.58 12.578-17.97 18.419-5.843 5.84-10.335 10.332-13.929 14.376-3.594 3.594-5.391 5.84-5.391 6.289 0 .899 1.347 1.797 4.492 2.246 3.594 0 7.637.449 12.578.449 4.49 0 9.88.45 16.17.45 6.29 0 12.58 0 18.87-.45 6.29 0 12.13-.449 17.97-.449 6.29-.449 11.23-.898 14.38-1.797 3.59-.449 6.29-1.797 8.53-4.043 2.25-2.246 4.95-5.391 7.64-9.434.9-1.348 1.8-2.696 3.59-4.493 1.35-1.797 3.15-2.695 4.5-2.695.9 0 1.79.449 1.79 1.348 0 .898.45 1.797.45 2.695 0 .899-.45 3.145-1.79 6.29-1.35 3.144-2.7 6.738-4.05 11.68a346.542 346.542 0 0 0-4.04 14.825c-.45 3.594-1.8 5.391-3.14 6.29-1.35-.45-2.7 0-3.6 0ZM1113.3 447.117c-1.8 0-3.6-.45-4.5-.899-1.34-.449-1.79-1.348-1.79-2.695 0-1.797.45-2.696 1.79-3.594 1.35-.45 3.15-1.348 5.4-1.797 3.14-.899 6.29-2.247 9.43-3.594 3.14-1.348 4.49-4.493 4.49-8.536v-69.633c0-5.84-.45-10.782-1.79-14.825-1.35-4.044-4.5-6.739-10.34-8.536-.9-.449-1.79-.899-2.24-1.348-.45-.449-.9-1.347-.9-2.695 0-2.246.9-3.594 2.69-4.043 7.64-1.797 13.48-4.493 18.42-7.188 4.94-2.696 9.44-5.841 13.93-9.435.45-.449 1.35-.898 1.8-1.347.45-.45 1.34-.45 1.79-.45.45 0 .9 0 1.35.45.45.449.45.898.45 1.797 0 1.347-.45 4.492-.9 9.434-.45 4.492-.9 8.536-.9 11.68v2.246c0 .899.45 1.348.45 1.348 7.64-7.188 15.73-12.579 24.26-16.173 8.54-3.594 17.97-5.391 27.86-5.391 10.78 0 19.31 4.493 26.05 13.029 6.74 8.535 10.33 19.317 10.33 31.896v68.735c0 4.492 1.35 7.188 4.5 8.535 3.14 1.348 6.29 2.696 9.43 3.594 1.8.45 3.59 1.348 4.94 2.247 1.8.898 2.25 1.797 2.25 3.594 0 1.347-.9 2.246-2.25 2.246-1.35.449-2.69.449-4.04.449-4.49 0-7.64 0-9.88-.449-2.25-.449-4.5-.449-6.74-.899-2.25 0-5.39-.449-8.99-.449-3.59 0-6.74 0-8.98.449-2.25 0-4.94.45-7.19.899-2.7.449-5.84.449-10.33.449-.9 0-2.25 0-4.05-.449-1.79-.449-2.24-1.348-2.24-2.246 0-1.797.9-3.145 2.24-3.594 1.8-.899 3.15-1.348 4.95-2.247 3.14-.898 6.28-2.246 9.43-3.594 3.14-1.347 4.49-4.043 4.49-8.535v-67.387c0-9.434-2.69-17.072-8.08-22.013-5.4-5.391-12.13-8.087-21.12-8.087-7.64 0-14.38 1.348-20.22 3.594-5.84 2.696-10.78 5.391-15.72 9.434-.9.899-1.35 1.797-1.8 3.594-.45 1.348-.45 2.696-.45 4.044V426.9c0 4.493 1.35 7.188 4.5 8.536 3.14 1.348 6.29 2.696 9.43 3.594 4.94 1.348 7.64 3.145 7.64 5.391 0 1.348-.45 2.246-1.8 2.696-.9.449-2.69.898-4.94.898-4.49 0-7.64 0-10.33-.449-2.7-.449-4.94-.449-6.74-.899-2.25 0-5.39-.449-8.99-.449-3.59 0-6.74 0-8.98.449-2.25 0-4.49.45-7.19.899-2.25-.449-5.39-.449-9.88-.449ZM1385.53 452.507c-.45 0-1.35-.45-2.24-1.348-.9-.899-1.35-1.348-1.35-1.797 0-2.246.45-5.391.9-9.434.45-4.044.89-7.188.89-10.333v-1.797c-3.14 4.942-8.53 9.883-15.72 15.274-7.19 5.391-16.17 7.638-26.95 7.638-12.13 0-22.92-3.145-31.9-9.884-8.99-6.289-15.72-14.825-20.67-24.708-4.94-10.333-7.18-20.666-7.18-31.448 0-12.578 2.69-24.259 8.53-35.041 5.84-10.782 14.38-19.767 25.16-26.955 10.78-6.738 23.81-10.332 39.08-10.332 4.5 0 8.54.449 13.03 1.347 4.5.899 7.64 1.348 10.34 2.247 1.79.449 3.14.898 4.04.898 1.35 0 2.24-2.695 2.24-7.637v-46.272c0-8.985-1.34-14.825-4.04-17.97-2.69-3.145-6.74-4.942-12.13-5.84-1.8-.45-2.69-1.797-2.69-4.044 0-1.797.89-3.144 2.69-4.043 9.44-2.246 17.07-4.492 22.46-6.739 5.4-2.246 9.44-4.043 12.58-5.391.9-.449 1.8-.898 2.25-.898h1.8c1.34 0 2.24.449 2.24 1.797 0 1.348 0 3.594-.45 6.739-.45 3.144-.9 7.637-1.34 13.926-.45 5.841-.45 13.927-.45 23.81v146.005c0 7.188.45 12.579 1.79 16.173.9 3.145 2.7 4.942 5.39 4.942.9 0 3.15 0 5.84-.449 2.7 0 5.4-.449 8.09-.449 4.04 0 5.84.898 5.84 2.695 0 1.348-.45 2.696-1.35 4.043-.9 1.348-1.79 1.797-3.14 1.797-5.84.899-12.13 2.246-17.97 3.594-5.84 1.348-12.58 4.043-20.22 7.188-1.79.899-2.69 1.348-3.59 1.797-.45.449-1.35.899-1.8.899Zm-32.79-18.419c5.39 0 11.23-1.348 16.62-4.493 5.39-3.145 10.33-6.739 14.37-11.68l.45-58.402c0-5.841-1.79-11.681-4.94-17.072-3.14-5.391-8.08-10.332-13.92-13.926-5.84-3.594-13.03-5.391-20.67-5.391-4.94 0-10.78 1.347-16.62 4.492-6.29 3.145-11.68 8.536-16.17 16.173-4.5 7.637-6.74 18.868-6.74 33.244 0 12.13 1.79 22.013 5.39 29.65 3.59 7.638 8.08 13.029 13.48 17.072 5.39 4.043 10.78 6.739 16.17 8.086 4.49 1.348 8.98 2.247 12.58 2.247Z" fill="#D2E3FC"/><path d="M491.811 862.565c-1.348 0-2.696-.449-3.594-1.348-.899-.898-1.348-1.797-1.348-2.695 0-1.797 1.797-3.145 4.942-4.043 8.086-2.247 14.825-4.044 20.216-5.841 5.391-1.797 8.985-4.492 11.68-7.637 2.247-3.594 3.594-8.536 3.594-14.825V702.633c0-4.043-1.347-7.188-4.043-9.434-2.695-2.246-5.84-3.594-9.883-4.492-4.044-.899-8.536-1.348-13.028-1.348-2.247 0-4.044-.899-5.841-1.797-1.797-.899-2.695-2.246-2.695-4.043 0-1.348.898-2.696 2.246-4.044 1.797-.898 3.594-1.347 5.84-1.797 9.434-1.347 18.419-3.144 26.057-5.39 7.637-2.247 15.274-7.188 22.462-14.376 0 0 .449-.45.898-.45h.899c.898 0 2.246.45 2.695.899.899.449 1.348 1.348.899 2.246-.449 3.145-.899 6.739-.899 10.333 0 3.594-.449 8.086-.449 12.579v148.7c0 5.391.899 9.434 3.145 12.13 2.246 2.695 5.391 4.942 10.333 6.739 4.941 1.797 11.68 3.594 20.665 5.84 1.348 0 2.695.898 3.594 1.348 1.348.898 1.797 1.797 1.797 2.695 0 2.246-1.348 3.594-4.493 3.594-5.84 0-11.68 0-16.622-.449-4.941-.449-9.883-.449-14.825-.899-4.942 0-10.333-.449-16.173-.449-5.84 0-11.231 0-16.622.449-5.391 0-10.333.45-15.724.899-4.492 0-9.883.449-15.723.449Z" fill="#3C4043"/><path d="M620.875 772.716c-4.493 0-8.536-.449-12.579-1.797-4.044-.899-7.637-2.696-10.333-4.942-.898-1.797-1.348-4.492-1.797-8.535-.449-4.044-.449-7.638-.449-10.333 0-.449.449-1.348.898-2.246.45-.899 1.797-1.348 2.696-1.348 1.348 0 2.695.449 3.594 1.348l1.797 1.797c1.347 4.043 2.695 7.188 4.492 9.883 1.797 2.696 3.594 4.942 5.84 6.29 2.247 1.347 4.942 2.246 7.638 2.246 4.043 0 7.188-.899 9.434-2.696 2.246-1.797 3.594-4.492 3.594-7.637 0-3.145-.899-5.84-3.145-8.536-2.246-2.246-5.84-4.941-11.68-7.637-4.493-2.246-8.536-4.492-11.681-6.738-3.145-2.247-5.84-4.942-7.188-7.638-1.797-2.695-2.246-6.289-2.246-10.332 0-4.493 1.348-8.536 3.594-11.681 2.246-3.144 5.84-5.84 10.333-8.086 4.492-2.246 9.883-2.696 16.173-2.696 4.492 0 8.086.45 11.231 1.348 3.144.899 5.391 1.348 6.738 2.246.899 1.348 1.797 4.044 2.696 7.638.898 3.593 1.348 6.738 1.348 10.332 0 .899-.45 1.797-.899 2.246-.449.899-1.348 1.348-2.246 1.348-2.696 0-4.493-1.348-5.391-3.594-1.348-4.492-3.145-8.086-5.391-10.332-2.246-2.696-5.391-3.594-9.434-3.594-3.594 0-6.29.898-8.536 2.246-2.246 1.797-3.594 4.043-3.594 6.738 0 2.696.899 5.391 2.696 7.638 1.797 2.246 5.391 4.492 10.332 7.188 8.087 4.043 14.376 8.086 18.419 11.68 4.044 3.594 6.29 8.536 6.29 14.825 0 6.739-2.696 12.579-8.087 17.521-6.289 3.594-14.375 5.84-25.157 5.84ZM703.082 771.369c-5.391 0-10.782-1.797-15.724-5.391-4.941-3.594-7.187-8.087-7.187-13.478v-45.823c0-1.797-1.348-2.695-4.044-2.695h-3.144c-.45 0-.899-1.348-1.348-3.145-.449-1.797-.899-3.594-.899-4.942 0-.898 0-1.347.45-1.797 4.492-1.797 7.637-4.043 10.332-7.188 2.696-3.144 4.942-6.289 6.29-9.883.449-.898 1.797-1.797 4.043-2.246 2.246-.449 4.043-.899 5.84-.899 1.797 0 2.696.45 2.696 1.797l-1.348 13.478c0 .898.449 1.347 1.348 1.797.898.449 1.797.449 3.144.449h21.564c.449 0 .899.449 1.348.898.449.45.898 1.348.898 3.145 0 1.348-.449 3.145-.898 5.391s-.899 3.145-1.348 3.145h-17.97c-4.043 0-6.289 0-7.188.449-.898.449-1.347 1.348-1.347 2.246v38.635c0 4.044.898 7.188 2.695 10.333 1.797 2.696 4.942 4.493 8.536 4.493 2.246 0 4.492-.45 6.289-.899 1.797-.449 3.145-1.348 4.493-1.797.449-.449 1.347-.898 2.246-1.348.898-.449 1.348-.449 1.797-.449.449 0 1.348.449 2.246 1.797.899 1.348 1.348 2.246 1.348 3.594 0 1.797-1.348 3.594-3.594 5.391-2.696 1.797-5.391 3.145-9.434 4.043-4.493.45-8.536.899-12.13.899Z" fill="#1A73E8"/><path d="M1079.34 862.566c-1.35 0-4.04 0-7.19-.449-3.14 0-6.74-.45-10.78-.45-4.04 0-8.54-.449-12.58-.449-4.49 0-8.53-.449-12.58-.449-4.04 0-9.88 0-17.52.449-7.64 0-15.27.449-23.809.449-8.086 0-15.723.45-22.013.45-6.289 0-10.332.449-12.129.449-.899 0-2.247-.899-4.044-2.246-1.797-1.348-2.695-2.696-2.695-3.594 0-.899 0-1.797.449-2.247l1.797-1.797 55.704-57.503c10.78-11.231 19.77-23.81 26.96-37.737 7.19-13.926 10.78-27.853 10.78-42.229 0-11.231-3.59-20.216-10.33-26.955-6.74-6.738-14.83-9.883-24.26-9.883-8.99 0-17.074 2.246-24.711 7.188-7.637 4.941-13.477 11.231-17.97 18.868-.449 1.348-1.348 2.246-2.246 3.145-.899.898-1.797 1.348-3.145 1.348-.898 0-1.797-.899-3.145-2.696-1.347-1.797-1.797-4.043-1.797-6.739 0-2.695 1.348-6.289 4.493-10.782 3.145-4.492 7.637-8.984 13.028-13.926 5.391-4.942 12.13-8.985 20.216-12.13 7.637-3.145 16.177-4.942 25.157-4.942 10.78 0 20.22 2.247 27.85 6.739 7.64 4.493 13.48 10.782 17.97 18.869 4.05 8.086 6.29 17.071 6.29 27.853 0 5.84-.89 12.129-3.14 18.868-2.25 6.739-4.94 13.478-8.54 19.767-3.59 6.289-7.63 12.579-12.13 17.97-2.69 3.594-6.74 8.086-12.58 13.926-5.39 5.841-11.23 11.681-17.97 18.42-6.28 6.289-12.57 12.578-17.97 18.419-5.835 5.84-10.328 10.332-13.922 14.376-3.594 3.594-5.391 5.84-5.391 6.289 0 .899 1.348 1.797 4.493 2.246 3.594 0 7.637.45 12.58.45 4.49 0 9.88.449 16.17.449 6.29 0 12.58 0 18.87-.449 6.29 0 12.13-.45 17.97-.45 6.29-.449 11.23-.898 14.38-1.797 3.59-.449 6.29-1.797 8.53-4.043 2.25-2.246 4.94-5.391 7.64-9.434.9-1.348 1.8-2.696 3.59-4.493 1.35-1.797 3.15-2.695 4.49-2.695.9 0 1.8.449 1.8 1.348 0 .898.45 1.797.45 2.695 0 .899-.45 3.145-1.8 6.29-1.34 3.144-2.69 6.738-4.04 11.68-1.35 4.492-2.69 9.434-4.04 14.825-.45 3.594-1.8 5.391-3.15 6.29-1.79 0-3.14.449-4.04.449Z" fill="#3C4043"/><path d="M1114.38 770.919c-.45 0-1.35-.449-2.69-.898-1.35-.45-2.25-1.348-2.25-2.247 0-.898.45-1.797 1.8-2.695.89-.898 2.24-1.348 3.14-1.797 2.25-.449 4.04-1.348 6.29-2.695 1.8-1.348 2.7-3.594 2.7-5.841V717.01c0-3.594-.45-6.739-1.8-9.435-1.35-2.695-3.59-4.043-7.19-4.941-.9 0-1.35-.899-1.35-2.246 0-1.348.45-2.247 1.35-2.247 3.6-.898 7.19-1.797 10.33-3.144 3.15-1.348 5.84-2.696 8.54-4.044 2.7-1.347 4.49-2.695 5.84-3.594.9 0 2.25 0 2.7.45.89.449 1.34.898 1.34 1.347 0 .899-.45 2.696-.9 5.841-.44 2.695-.89 5.391-.89 6.738v.899c0 .449 0 .449.45.898 3.14-2.246 7.18-4.941 12.57-8.086 5.4-3.145 11.68-4.493 18.42-4.493 6.74 0 13.03 1.797 18.42 5.841 5.39 4.043 8.09 9.883 8.09 17.52v41.331c0 2.695.9 4.942 2.69 6.289 1.8 1.348 3.6 2.247 5.84 2.696.9.449 2.25.898 3.15 1.797.9.898 1.8 1.797 1.8 2.695 0 .899-.9 1.797-2.25 2.246-1.35.45-2.25.899-2.7.899-2.69 0-5.39 0-8.53-.449-2.7 0-5.39-.45-8.54-.45-2.69 0-5.84 0-8.53.45-3.15 0-5.84.449-8.99.449-.45 0-1.35-.449-2.69-.899-1.35-.449-2.25-1.347-2.25-2.246 0-.898.45-1.797 1.8-2.695.9-.899 2.24-1.348 3.14-1.797 2.25-.449 4.05-1.348 5.84-2.696 1.8-1.347 2.7-3.144 2.7-6.289V722.85c0-5.391-1.35-9.884-4.49-13.478-3.15-3.144-7.19-4.941-12.13-4.941-3.6 0-6.29.449-8.99.898-2.69.449-4.94 1.797-8.09 3.594-1.34.899-3.14 2.246-4.49 4.493-1.35 2.246-2.24 5.391-2.24 9.434v32.346c0 2.246.89 4.043 2.24 5.84 1.35 1.797 3.15 2.695 5.39 3.145 3.15 1.347 4.94 2.695 4.94 4.492 0 .898-.44 1.797-1.79 2.246-1.35.449-2.25.899-2.7.899-2.69 0-5.39 0-8.53-.45-2.7 0-5.84-.449-8.54-.449-2.69 0-5.39 0-8.53.449-3.6-.449-6.74-.449-9.44-.449ZM1298.58 773.614c-.45 0-1.35-.898-2.25-2.246-.45-.899-.9-2.696-.9-4.043 0-1.797-.45-3.145-.89-4.942-4.05 2.695-8.09 4.942-12.13 7.188-4.05 2.246-8.99 3.145-14.38 3.145-8.09 0-14.83-1.797-20.67-5.391-5.84-3.594-10.33-8.087-13.47-13.478-3.15-5.391-4.5-11.68-4.5-17.97 0-13.926 4.05-25.157 12.58-33.693 8.09-8.536 20.22-12.579 35.94-12.579 2.25 0 4.5 0 6.29.449 1.8.45 3.6.899 5.39 1.348.45 0 .9.449 1.35.449h.9c.45 0 .9-1.797.9-4.941V663.1c0-4.044-.45-7.188-1.8-9.884-.9-2.695-2.69-4.043-5.39-4.492-2.25-.45-3.14-1.797-3.14-4.044 0-.898 0-1.797.44-2.246.45-.449.9-.898 1.8-1.348 4.94-1.347 8.99-2.695 12.58-3.594 3.15-.898 6.29-1.797 8.09-2.695.9-.449 2.24-.899 2.69-1.348.9-.449 1.8-.449 2.7-.449.9 0 1.8.449 1.8.898v1.797c0 .899-.45 3.145-1.35 6.739-.9 3.145-1.35 9.434-1.35 18.419v88.502c0 4.942.45 8.536 1.35 10.332.9 1.797 2.24 2.696 4.04 2.696.9 0 2.7-.449 4.49-1.348 1.8-.898 3.6-1.348 4.5-1.348 1.79 0 2.69 1.348 2.69 4.044 0 1.347 0 2.695-.45 3.144-.45.45-1.35.899-2.24 1.348-2.7.449-5.4.899-7.64 1.348-2.7.449-4.94 1.348-7.64 1.797-2.25.449-4.49 1.348-6.29 1.797-.9 0-1.8.449-2.24.449h-1.8Zm-26.96-8.985c2.25 0 5.39-.898 8.54-2.246 3.14-1.348 6.29-3.594 8.54-6.739 2.69-2.695 3.59-6.738 3.59-10.782v-24.708c0-5.391-1.8-10.333-5.84-14.376-4.04-4.043-9.44-6.29-15.72-6.29-6.29 0-11.69 1.797-15.73 5.841-4.49 4.043-6.29 12.579-6.29 26.056 0 9.883 1.35 17.071 4.05 22.013 2.69 4.942 5.84 7.637 9.43 9.434 3.14.899 6.74 1.797 9.43 1.797Z" fill="#1A73E8"/></svg>