<svg width="1920" height="1080" fill="none" xmlns="http://www.w3.org/2000/svg"><mask id="a" style="mask-type:alpha" maskUnits="userSpaceOnUse" x="50" y="50" width="1809" height="980"><path fill="#C4C4C4" d="M50 50h1809v980H50z"/></mask><g mask="url(#a)"><path d="m673.998 756.931-.034.033-.033.034L649.401 782H491V558h208v174.401l-25.002 24.53Z" stroke="#FF6D7F" stroke-width="10"/><path d="M647 730h57l-28.5 28.5L647 787v-57Z" fill="#FF6D7F"/><path d="m916.998 756.931-.034.033-.033.034L892.401 782H734V558h208v174.401l-25.002 24.53Z" stroke="#FF6D7F" stroke-width="10"/><path d="M890 730h57l-28.5 28.5L890 787v-57Z" fill="#FF6D7F"/><path d="m1160 756.931-.04.033-.03.034L1135.4 782H977V558h208v174.401l-25 24.53Z" stroke="#FF6D7F" stroke-width="10"/><path d="M1133 730h57l-28.5 28.5L1133 787v-57Z" fill="#FF6D7F"/><path d="m1403 756.931-.04.033-.03.034L1378.4 782H1220V558h208v174.401l-25 24.53Z" stroke="#FF6D7F" stroke-width="10"/><path d="M1376 730h57l-28.5 28.5L1376 787v-57Z" fill="#FF6D7F"/><path d="m1646 756.931-.04.033-.03.034L1621.4 782H1463V558h208v174.401l-25 24.53Z" stroke="#FF6D7F" stroke-width="10"/><path d="M1619 730h57l-28.5 28.5L1619 787v-57Z" fill="#FF6D7F"/><path d="M597.048 633.491c10.01 0 17.827 2.479 23.452 7.436s8.437 12.012 8.437 21.164V714h-18.876l-5.291-10.439h-.572c-2.193 2.765-4.481 5.053-6.864 6.864-2.288 1.716-4.957 2.955-8.008 3.718-3.051.858-6.769 1.287-11.154 1.287-4.576 0-8.675-.906-12.298-2.717-3.623-1.907-6.483-4.719-8.58-8.437-2.097-3.813-3.146-8.628-3.146-14.443 0-8.485 2.908-14.777 8.723-18.876 5.911-4.099 14.443-6.387 25.597-6.864l13.156-.429v-1.144c0-3.527-.858-6.006-2.574-7.436-1.716-1.525-4.052-2.288-7.007-2.288-3.146 0-6.626.572-10.439 1.716-3.813 1.049-7.674 2.431-11.583 4.147l-7.865-18.018c4.576-2.383 9.724-4.147 15.444-5.291 5.815-1.239 12.298-1.859 19.448-1.859Zm-1.573 45.474c-4.957.191-8.485 1.096-10.582 2.717-2.002 1.525-3.003 3.718-3.003 6.578 0 2.669.715 4.671 2.145 6.006 1.43 1.239 3.337 1.859 5.72 1.859 3.337 0 6.149-1.049 8.437-3.146 2.383-2.097 3.575-4.814 3.575-8.151v-6.149l-6.292.286Zm4.004-74.503a192.105 192.105 0 0 0 5.72 7.007 546.51 546.51 0 0 0 6.864 7.579c2.288 2.383 4.195 4.481 5.72 6.292v2.002h-18.161a2368.217 2368.217 0 0 1-7.007-4.576 412.837 412.837 0 0 0-8.437-5.863 834.604 834.604 0 0 0-8.294-6.006l-6.435-5.005v-1.43h30.03Zm241.071 29.029c10.01 0 17.828 2.479 23.452 7.436 5.625 4.957 8.437 12.012 8.437 21.164V714h-18.876l-5.291-10.439h-.572c-2.192 2.765-4.48 5.053-6.864 6.864-2.288 1.716-4.957 2.955-8.008 3.718-3.05.858-6.768 1.287-11.154 1.287-4.576 0-8.675-.906-12.298-2.717-3.622-1.907-6.482-4.719-8.58-8.437-2.097-3.813-3.146-8.628-3.146-14.443 0-8.485 2.908-14.777 8.723-18.876 5.911-4.099 14.443-6.387 25.597-6.864l13.156-.429v-1.144c0-3.527-.858-6.006-2.574-7.436-1.716-1.525-4.051-2.288-7.007-2.288-3.146 0-6.625.572-10.439 1.716-3.813 1.049-7.674 2.431-11.583 4.147l-7.865-18.018c4.576-2.383 9.724-4.147 15.444-5.291 5.816-1.239 12.298-1.859 19.448-1.859Zm-1.573 45.474c-4.957.191-8.484 1.096-10.582 2.717-2.002 1.525-3.003 3.718-3.003 6.578 0 2.669.715 4.671 2.145 6.006 1.43 1.239 3.337 1.859 5.72 1.859 3.337 0 6.149-1.049 8.437-3.146 2.384-2.097 3.575-4.814 3.575-8.151v-6.149l-6.292.286Zm32.318-73.073-6.435 5.005a497.762 497.762 0 0 1-8.294 6.006 1251.355 1251.355 0 0 0-8.58 5.863 422.819 422.819 0 0 1-6.864 4.576h-18.161v-2.002a250.048 250.048 0 0 1 5.863-6.292 546.51 546.51 0 0 0 6.864-7.579c2.288-2.574 4.195-4.91 5.72-7.007h29.887v1.43Zm212.755 27.599c10.01 0 17.83 2.479 23.45 7.436 5.63 4.957 8.44 12.012 8.44 21.164V714h-18.87l-5.3-10.439h-.57c-2.19 2.765-4.48 5.053-6.86 6.864-2.29 1.716-4.96 2.955-8.01 3.718-3.05.858-6.77 1.287-11.15 1.287-4.58 0-8.68-.906-12.3-2.717-3.62-1.907-6.48-4.719-8.58-8.437-2.1-3.813-3.15-8.628-3.15-14.443 0-8.485 2.91-14.777 8.73-18.876 5.91-4.099 14.44-6.387 25.59-6.864l13.16-.429v-1.144c0-3.527-.86-6.006-2.58-7.436-1.71-1.525-4.05-2.288-7-2.288-3.15 0-6.63.572-10.44 1.716-3.81 1.049-7.68 2.431-11.58 4.147l-7.87-18.018c4.58-2.383 9.72-4.147 15.44-5.291 5.82-1.239 12.3-1.859 19.45-1.859Zm-1.57 45.474c-4.96.191-8.49 1.096-10.58 2.717-2 1.525-3.01 3.718-3.01 6.578 0 2.669.72 4.671 2.15 6.006 1.43 1.239 3.34 1.859 5.72 1.859 3.34 0 6.15-1.049 8.44-3.146 2.38-2.097 3.57-4.814 3.57-8.151v-6.149l-6.29.286Zm12.01-74.503c1.53 2.193 3.34 4.624 5.44 7.293 2.19 2.574 4.38 5.1 6.57 7.579 2.29 2.383 4.25 4.385 5.87 6.006v2.002h-17.74a60.419 60.419 0 0 1-7-4.719c-2.2-1.716-4.53-3.623-7.01-5.72a210.731 210.731 0 0 1-6.86 5.577c-2.01 1.621-4.25 3.241-6.72 4.862h-18.02v-2.002c1.81-1.716 3.81-3.766 6-6.149 2.29-2.479 4.48-5.005 6.58-7.579 2.19-2.574 4.01-4.957 5.44-7.15h27.45Zm233.06 29.029c10.01 0 17.83 2.479 23.46 7.436 5.62 4.957 8.43 12.012 8.43 21.164V714h-18.87l-5.29-10.439h-.58c-2.19 2.765-4.48 5.053-6.86 6.864-2.29 1.716-4.96 2.955-8.01 3.718-3.05.858-6.77 1.287-11.15 1.287-4.58 0-8.68-.906-12.3-2.717-3.62-1.907-6.48-4.719-8.58-8.437-2.1-3.813-3.15-8.628-3.15-14.443 0-8.485 2.91-14.777 8.73-18.876 5.91-4.099 14.44-6.387 25.59-6.864l13.16-.429v-1.144c0-3.527-.86-6.006-2.57-7.436-1.72-1.525-4.06-2.288-7.01-2.288-3.15 0-6.63.572-10.44 1.716-3.81 1.049-7.67 2.431-11.58 4.147l-7.87-18.018c4.58-2.383 9.73-4.147 15.45-5.291 5.81-1.239 12.29-1.859 19.44-1.859Zm-1.57 45.474c-4.96.191-8.48 1.096-10.58 2.717-2 1.525-3 3.718-3 6.578 0 2.669.71 4.671 2.14 6.006 1.43 1.239 3.34 1.859 5.72 1.859 3.34 0 6.15-1.049 8.44-3.146 2.38-2.097 3.57-4.814 3.57-8.151v-6.149l-6.29.286Zm-31.17-51.337c.28-4.385.86-8.103 1.71-11.154.96-3.051 2.15-5.482 3.58-7.293 1.52-1.907 3.29-3.289 5.29-4.147 2.1-.858 4.43-1.287 7.01-1.287 1.81 0 3.67.334 5.57 1.001a61.64 61.64 0 0 1 6.15 2.431c2.1.858 4.1 1.621 6.01 2.288 2 .667 3.91 1.001 5.72 1.001.86 0 1.76-.381 2.72-1.144 1.04-.858 1.81-2.765 2.28-5.72h12.73c-.57 8.58-2.43 14.729-5.58 18.447-3.14 3.623-7 5.434-11.58 5.434-2.1 0-4.19-.334-6.29-1.001-2.1-.667-4.2-1.43-6.29-2.288a53.639 53.639 0 0 0-6.01-2.431c-1.91-.667-3.72-1.001-5.43-1.001-.86 0-1.77.381-2.72 1.144-.95.763-1.72 2.669-2.29 5.72h-12.58Zm276.25 5.863c10.01 0 17.82 2.479 23.45 7.436 5.62 4.957 8.44 12.012 8.44 21.164V714h-18.88l-5.29-10.439h-.57c-2.2 2.765-4.48 5.053-6.87 6.864-2.29 1.716-4.95 2.955-8.01 3.718-3.05.858-6.76 1.287-11.15 1.287-4.58 0-8.67-.906-12.3-2.717-3.62-1.907-6.48-4.719-8.58-8.437-2.09-3.813-3.14-8.628-3.14-14.443 0-8.485 2.9-14.777 8.72-18.876 5.91-4.099 14.44-6.387 25.6-6.864l13.15-.429v-1.144c0-3.527-.86-6.006-2.57-7.436-1.72-1.525-4.05-2.288-7.01-2.288-3.14 0-6.62.572-10.44 1.716-3.81 1.049-7.67 2.431-11.58 4.147l-7.87-18.018c4.58-2.383 9.73-4.147 15.45-5.291 5.81-1.239 12.3-1.859 19.45-1.859Zm-1.58 45.474c-4.95.191-8.48 1.096-10.58 2.717-2 1.525-3 3.718-3 6.578 0 2.669.71 4.671 2.14 6.006 1.43 1.239 3.34 1.859 5.72 1.859 3.34 0 6.15-1.049 8.44-3.146 2.38-2.097 3.58-4.814 3.58-8.151v-6.149l-6.3.286Zm-30.6-63.635c0-3.813 1.15-6.578 3.43-8.294 2.29-1.811 5.1-2.717 8.44-2.717 3.24 0 6.05.906 8.44 2.717 2.38 1.716 3.57 4.481 3.57 8.294 0 3.718-1.19 6.483-3.57 8.294-2.39 1.716-5.2 2.574-8.44 2.574-3.34 0-6.15-.858-8.44-2.574-2.28-1.811-3.43-4.576-3.43-8.294Zm33.46 0c0-3.813 1.15-6.578 3.44-8.294 2.28-1.811 5.14-2.717 8.58-2.717 3.24 0 6.05.906 8.43 2.717 2.39 1.716 3.58 4.481 3.58 8.294 0 3.718-1.19 6.483-3.58 8.294-2.38 1.716-5.19 2.574-8.43 2.574-3.44 0-6.3-.858-8.58-2.574-2.29-1.811-3.44-4.576-3.44-8.294Z" fill="#3C4043"/><path d="m430.998 421.931-.034.033-.033.034L406.401 447H248V223h208v174.401l-25.002 24.53Z" stroke="#1A73E8" stroke-width="10"/><path d="M404 395h57l-28.5 28.5L404 452v-57Z" fill="#1A73E8"/><path d="m673.998 421.931-.034.033-.033.034L649.401 447H491V223h208v174.401l-25.002 24.53Z" stroke="#D2E3FC" stroke-width="10"/><path d="M647 395h57l-28.5 28.5L647 452v-57Z" fill="#D2E3FC"/><path d="m916.998 421.931-.034.033-.033.034L892.401 447H734V223h208v174.401l-25.002 24.53Z" stroke="#D2E3FC" stroke-width="10"/><path d="M890 395h57l-28.5 28.5L890 452v-57Z" fill="#D2E3FC"/><path d="m1160 421.931-.04.033-.03.034L1135.4 447H977V223h208v174.401l-25 24.53Z" stroke="#D2E3FC" stroke-width="10"/><path d="M1133 395h57l-28.5 28.5L1133 452v-57Z" fill="#D2E3FC"/><path d="m1403 421.931-.04.033-.03.034L1378.4 447H1220V223h208v174.401l-25 24.53Z" stroke="#D2E3FC" stroke-width="10"/><path d="M1376 395h57l-28.5 28.5L1376 452v-57Z" fill="#D2E3FC"/><path d="m1646 421.931-.04.033-.03.034L1621.4 447H1463V223h208v174.401l-25 24.53Z" stroke="#D2E3FC" stroke-width="10"/><path d="M1619 395h57l-28.5 28.5L1619 452v-57Z" fill="#D2E3FC"/><path d="m1889 421.931-.04.033-.03.034L1864.4 447H1706V223h208v174.401l-25 24.53Z" stroke="#1A73E8" stroke-width="10"/><path d="M352.048 298.491c10.01 0 17.827 2.479 23.452 7.436s8.437 12.012 8.437 21.164V379h-18.876l-5.291-10.439h-.572c-2.193 2.765-4.481 5.053-6.864 6.864-2.288 1.716-4.957 2.955-8.008 3.718-3.051.858-6.769 1.287-11.154 1.287-4.576 0-8.675-.906-12.298-2.717-3.623-1.907-6.483-4.719-8.58-8.437-2.097-3.813-3.146-8.628-3.146-14.443 0-8.485 2.908-14.777 8.723-18.876 5.911-4.099 14.443-6.387 25.597-6.864l13.156-.429v-1.144c0-3.527-.858-6.006-2.574-7.436-1.716-1.525-4.052-2.288-7.007-2.288-3.146 0-6.626.572-10.439 1.716-3.813 1.049-7.674 2.431-11.583 4.147l-7.865-18.018c4.576-2.383 9.724-4.147 15.444-5.291 5.815-1.239 12.298-1.859 19.448-1.859Zm-1.573 45.474c-4.957.191-8.485 1.096-10.582 2.717-2.002 1.525-3.003 3.718-3.003 6.578 0 2.669.715 4.671 2.145 6.006 1.43 1.239 3.337 1.859 5.72 1.859 3.337 0 6.149-1.049 8.437-3.146 2.383-2.097 3.575-4.814 3.575-8.151v-6.149l-6.292.286Zm1450.745-49.049c0 2.765-.1 5.434-.29 8.008-.19 2.574-.43 4.957-.71 7.15h1c2-3.241 4.67-5.958 8-8.151 3.34-2.288 7.68-3.432 13.02-3.432 8.2 0 14.92 3.48 20.16 10.439s7.87 17.065 7.87 30.316c0 8.961-1.24 16.54-3.72 22.737-2.39 6.101-5.77 10.725-10.16 13.871-4.29 3.051-9.29 4.576-15.01 4.576-5.53 0-9.77-.953-12.73-2.86-2.95-2.002-5.43-4.099-7.43-6.292h-1.72l-4.29 7.722h-21.31V270.32h27.32v24.596Zm11.01 25.025c-2.48 0-4.58.62-6.29 1.859-1.62 1.144-2.82 2.908-3.58 5.291-.76 2.383-1.14 5.482-1.14 9.295v3.861c0 6.101.81 10.677 2.43 13.728 1.71 2.955 4.67 4.433 8.86 4.433 3.25 0 5.72-1.621 7.44-4.862 1.72-3.337 2.57-8.199 2.57-14.586 0-6.292-.85-11.011-2.57-14.157-1.62-3.241-4.19-4.862-7.72-4.862Z" fill="#3C4043"/></g></svg>