<svg width="1920" height="1080" fill="none" xmlns="http://www.w3.org/2000/svg"><path stroke="#D2E3FC" stroke-width="15.702" d="M1145.85 225.851h523.298v629.298H1145.85z"/><path d="M1193.04 434.005c0-64.304 23.24-118.205 69.71-161.704 20.53-19.724 47.01-34.178 79.43-43.364 32.69-9.457 66.74-14.185 102.13-14.185 26.48 0 48.63 1.351 66.47 4.053 18.1 2.702 32.96 6.484 44.58 11.347 11.61 4.593 23.64 10.537 36.07 17.832 10.26 6.215 19.04 15.131 26.34 26.748 7.29 11.618 10.94 23.776 10.94 36.475 0 47.012-31.48 70.518-94.43 70.518-31.07 0-54.71-5.944-70.92-17.832-15.94-11.888-23.91-28.91-23.91-51.065 0-17.832 6.35-32.962 19.05-45.39 12.69-12.429 30.66-21.345 53.9-26.749-4.6-2.431-11.49-4.593-20.67-6.484a138.394 138.394 0 0 0-27.97-2.837c-44.04 0-77 19.994-98.88 59.981-8.11 14.589-13.92 32.286-17.43 53.09-3.24 20.534-4.86 50.389-4.86 89.566h75.38c51.6 0 91.73-.676 120.36-2.026 28.64-1.351 56.61-3.918 83.9-7.701v362.72c0 15.4 1.75 27.424 5.27 36.069 3.78 8.646 9.45 14.725 17.02 18.238 7.83 3.512 18.64 5.268 32.42 5.268V864c-64.85-2.161-106.59-3.242-125.23-3.242-18.91 0-60.79 1.081-125.64 3.242v-17.427c11.62 0 20.81-1.756 27.56-5.268 6.76-3.513 11.62-9.592 14.59-18.238 2.97-8.645 4.46-20.669 4.46-36.069V523.57c0-25.667-4.05-44.174-12.16-55.522-8.1-11.618-22.29-17.427-42.55-17.427h-75.38v336.377c0 22.425 5.13 37.961 15.4 46.606 10.27 8.646 26.07 12.969 47.42 12.969V864c-72.41-2.161-116.99-3.242-133.74-3.242-20.81 0-65.25 1.081-133.34 3.242v-17.427c13.78 0 24.45-1.756 32.02-5.268 7.83-3.513 13.51-9.592 17.02-18.238 3.78-8.645 5.67-20.669 5.67-36.069V450.621h-57.95v-16.616h57.95Z" fill="#1A73E8"/><path stroke="#D2E3FC" stroke-width="15.702" d="M251.851 225.851h286.298v629.298H251.851z"/><path stroke="#D2E3FC" stroke-width="15.702" d="M537.851 225.851h244.298v629.298H537.851z"/><path d="M290.263 434.005c0-32.962 1.891-60.116 5.674-81.46 3.782-21.615 9.861-39.852 18.237-54.712 8.375-14.86 19.993-28.639 34.853-41.338 13.78-11.888 31.747-21.75 53.902-29.585 22.425-8.105 45.661-12.158 69.707-12.158 39.717 0 72.949 10.267 99.697 30.801 8.646 7.024 15.941 16.481 21.885 28.369 5.944 11.888 8.916 25.397 8.916 40.527 0 11.348-2.972 22.29-8.916 32.827-5.944 10.267-14.185 18.643-24.722 25.127-10.537 6.215-22.29 9.322-35.259 9.322-22.965 0-41.202-6.079-54.712-18.238-13.509-12.158-20.263-29.044-20.263-50.659 0-16.481 4.863-31.341 14.59-44.58 9.726-13.509 24.046-23.236 42.959-29.18-4.053-5.133-11.618-7.7-22.696-7.7-16.751 0-29.72 5.269-38.906 15.806-5.133 6.754-9.051 15.941-11.753 27.558-2.702 11.348-4.053 27.424-4.053 48.228v111.045h88.755v16.616h-88.755v327.866c0 25.668 5.809 43.5 17.427 53.496 11.888 9.727 29.855 14.59 53.901 14.59V864c-81.054-2.161-131.849-3.242-152.382-3.242-17.022 0-55.253 1.081-114.693 3.242v-17.427c11.618 0 20.804-1.756 27.559-5.268 6.754-3.513 11.618-9.592 14.59-18.238 2.972-8.645 4.458-20.669 4.458-36.069V450.621h-49.849v-16.616h49.849Zm373.662-219.253c28.909 0 51.199 6.079 66.87 18.237 15.67 12.158 23.506 29.99 23.506 53.496 0 23.236-7.836 40.933-23.506 53.091-15.671 12.158-37.961 18.237-66.87 18.237-29.45 0-51.875-5.944-67.276-17.832-15.4-12.158-23.1-29.99-23.1-53.496 0-23.506 7.7-41.338 23.1-53.496 15.401-12.158 37.826-18.237 67.276-18.237Zm79.433 572.246c0 15.4 1.486 27.424 4.458 36.069 2.972 8.646 7.836 14.725 14.59 18.238 6.755 3.512 15.941 5.268 27.559 5.268V864c-59.44-2.161-98.752-3.242-117.935-3.242-19.183 0-60.656 1.081-124.419 3.242v-17.427c11.618 0 20.804-1.756 27.559-5.268 6.754-3.513 11.618-9.592 14.59-18.238 2.972-8.645 4.458-20.669 4.458-36.069V523.57c0-25.667-3.513-44.174-10.537-55.522-7.025-11.618-19.048-17.427-36.07-17.427v-17.427c17.562 1.621 34.719 2.432 51.47 2.432 57.549 0 105.641-3.783 144.277-11.348v362.72Z" fill="#FF6D7F"/></svg>