<svg width="1920" height="1080" fill="none" xmlns="http://www.w3.org/2000/svg"><path d="M904.19 450.246h43.987l-13.203-20.209H904.19c-2.848-38.782-17.041-67.48-42.577-86.094-25.536-18.614-60.835-27.929-105.897-27.943-25.636 0-46.344 4.372-62.124 13.117-15.78 8.745-23.685 20.295-23.713 34.651 0 9.571 2.613 17.247 7.84 23.03 5.227 5.782 12.875 9.955 22.944 12.518 10.069 2.507 25.365 3.76 45.888 3.76h19.996c8.944 0 15.681.855 20.21 2.564a17.092 17.092 0 0 1 9.72 8.289 58.15 58.15 0 0 1 4.636 17.09h16.984c-2.009-21.135-7.848-35.876-17.518-44.221-9.671-8.346-25.971-12.498-48.901-12.455H711.43c-9.186 0-15.545-.947-19.077-2.841a8.827 8.827 0 0 1-5.277-8.118c0-6.666 6.288-11.793 18.864-15.382 12.576-3.589 30.378-5.383 53.408-5.383 78.787 0 120.089 29.139 123.906 87.418h-44.008l13.224 20.209h30.763v210.705l19.462 14.164h1.495V450.246ZM732.857 629.697a23.09 23.09 0 0 0-16.898-6.815 24.204 24.204 0 0 0-17.475 6.815 22.774 22.774 0 0 0-7.071 17.09 22.419 22.419 0 0 0 7.178 16.984 24.345 24.345 0 0 0 17.368 6.794 23.503 23.503 0 0 0 16.792-6.602 22.554 22.554 0 0 0 6.985-17.09 23.094 23.094 0 0 0-6.879-17.091v-.085Zm64.282 6.879c-23.029-40.918-55.565-68.419-97.608-82.505a395.596 395.596 0 0 1 46.55-28.327 467.822 467.822 0 0 1 51.058-22.282v133.114Zm20.765-186.351h44.008l-13.223-20.21H640.633l13.01 20.21h143.496v17.09a659.222 659.222 0 0 0-70.498 30.122 572.405 572.405 0 0 0-64.944 38.604l15.851 43.623c26.676 3.532 49.833 12.078 69.473 25.636 19.64 13.559 36.574 32.13 50.802 55.715l19.44 13.972h.748l-.107-224.762ZM695.899 752.514c-21.648-29.567-50.972-50.019-87.973-61.355l-7.755 25.486a160.471 160.471 0 0 1 46.08 17.753 168.056 168.056 0 0 1 38.454 30.207l11.194-12.091Zm-97.608-115.917c-23.03-40.917-55.566-68.419-97.608-82.504a395.396 395.396 0 0 1 46.529-28.328 470.063 470.063 0 0 1 51.079-22.282v133.114Zm20.765-186.351h43.987l-13.203-20.209H441.806l13.031 20.209h143.497v17.091a657.277 657.277 0 0 0-70.606 30.25 572.61 572.61 0 0 0-64.965 38.603l15.873 43.624c26.69 3.532 49.847 12.077 69.473 25.636 19.625 13.558 36.552 32.13 50.78 55.715l19.462 13.971h.748l-.043-224.89ZM497.222 752.514c-21.663-29.567-50.994-50.019-87.995-61.355l-7.734 25.486a160.224 160.224 0 0 1 46.059 17.753 167.12 167.12 0 0 1 38.454 30.207l11.216-12.091Zm-161.997-122.71a23.04 23.04 0 0 0-16.898-6.815 24.156 24.156 0 0 0-17.454 6.815 22.783 22.783 0 0 0-7.093 17.09 22.412 22.412 0 0 0 7.178 16.984 24.361 24.361 0 0 0 17.369 6.793 23.49 23.49 0 0 0 16.812-6.451 22.566 22.566 0 0 0 6.986-17.091 23.114 23.114 0 0 0-6.9-17.09v-.235Zm64.303 7.028c-23.058-40.917-55.601-68.419-97.63-82.504a397.41 397.41 0 0 1 46.551-28.563 470.063 470.063 0 0 1 51.079-22.282v133.349Zm20.786-186.586h43.987l-13.224-20.209H243l13.032 20.209h143.496v17.091a659.57 659.57 0 0 0-70.627 30.25 572.337 572.337 0 0 0-64.944 38.603l15.852 43.624c26.689 3.532 49.854 12.077 69.494 25.636 19.64 13.558 36.567 32.13 50.78 55.715l19.441 13.971h.79v-224.89Z" fill="#FF6D7F"/><path d="M1632.6 495.045h44.01l-13.22-20.188h-30.79c-2-26.932-9.68-49.214-23.03-66.845l47.58-46.444-7.88-9.25-55.55 39.458c-24.92-20.609-61.49-30.913-109.7-30.913-25.63 0-46.34 4.372-62.12 13.117-15.78 8.745-23.62 20.295-23.5 34.651 0 9.571 2.61 17.247 7.82 23.03 5.21 5.782 12.83 9.955 22.86 12.519 10.07 2.449 25.36 3.674 45.88 3.674h20.02c6.83-.288 13.65.571 20.19 2.542a17.095 17.095 0 0 1 9.72 8.31 57.993 57.993 0 0 1 4.64 17.091h17.09c-2.08-21.078-7.97-35.805-17.67-44.179-9.7-8.374-26-12.526-48.9-12.455h-40.14c-9.19 0-15.55-.961-19.08-2.841a8.8 8.8 0 0 1-3.85-3.271 8.868 8.868 0 0 1-1.43-4.847c0-6.665 6.3-11.793 18.89-15.382 12.59-3.589 30.39-5.383 53.41-5.383 36.61 0 65.1 6.295 85.45 18.885l-23.95 16.984 20.21 23.606 23.78-23.222c10.96 13.587 17.07 30.678 18.31 51.272h-43.99l13.24 20.081h30.77v210.727l19.46 14.142h1.49l-.02-224.869Zm-107.24 122.732c-7.56-8.304-19.33-16.849-35.31-25.636a178.26 178.26 0 0 0-44.18-17.86c22.64-11.393 49.14-23.036 79.49-34.929v78.425Zm20.96-122.732h43.79l-13.03-20.188H1363l13.03 20.188h149.33v8.31a645.36 645.36 0 0 0-114.98 49.777l15.88 45.674c40.27 4.273 73.37 16.671 99.29 37.193V654.5c0 14.741.51 28.085 1.52 40.034a189.463 189.463 0 0 0-12.82-22.174 38.13 38.13 0 0 0-12.39-11.537 35.201 35.201 0 0 0-17.45-3.952l-18.7 1.496c-11.34 1.26-19.63 1.901-24.93 1.901-13.33 0-22.77-3.304-28.32-9.913-5.56-6.608-8.32-15.958-8.29-28.049 0-7.605.76-15.191 2.26-22.645l-16.62-3.803a139.253 139.253 0 0 0-3.97 33.22c0 21.021 4.5 36.979 13.5 47.875 9 10.895 22.31 16.335 39.93 16.321 4.16 0 13.6-.819 28.32-2.457 8.76-1.35 17.58-2.17 26.43-2.456 4.92-.2 9.81.813 14.25 2.948a26.604 26.604 0 0 1 8.89 7.477c3.14 4.4 6 9.003 8.54 13.779l19.23 13.972h1.52l-.13-231.492Z" fill="#1A73E8"/></svg>