<svg width="1920" height="1080" fill="none" xmlns="http://www.w3.org/2000/svg"><g clip-path="url(#a)"><path d="m89.204 389.45-35.15-9.5c-2.217-.633-3.642-1.267-4.275-1.9-.95-.95-1.425-1.9-1.425-2.85 0-.95.475-1.742 1.425-2.375.633-.95 1.425-1.425 2.375-1.425h38c.95 0 1.9-.158 2.85-.475 1.267-.317 2.85-1.108 4.75-2.375l138.7-97.85a41.552 41.552 0 0 1 8.075-4.75c2.85-1.267 5.225-1.9 7.125-1.9 2.533 0 4.592.95 6.175 2.85 1.583 1.583 2.375 4.117 2.375 7.6v384.75c0 28.183 5.067 49.242 15.2 63.175 10.133 13.617 23.75 20.425 40.85 20.425 5.7 0 11.083-.95 16.15-2.85 5.383-1.9 10.292-5.067 14.725-9.5s8.392-10.45 11.875-18.05c3.483-7.6 6.333-17.1 8.55-28.5.633-2.533 1.9-3.8 3.8-3.8s2.533 1.267 1.9 3.8c-4.75 27.55-12.508 50.35-23.275 68.4-10.45 18.05-24.858 31.667-43.225 40.85-18.05 8.867-40.85 13.3-68.4 13.3-46.867 0-82.492-10.767-106.875-32.3-24.383-21.533-36.575-54.783-36.575-99.75V398c0-2.85-.317-4.908-.95-6.175-.633-1.267-2.217-2.058-4.75-2.375Zm121.6-5.7 5.7-12.35h154.85c1.583 0 2.692.317 3.325.95.95.317 1.425 1.267 1.425 2.85 0 2.217-1.267 4.275-3.8 6.175-2.533 1.583-6.017 2.375-10.45 2.375h-151.05Zm353.163-17.1V766.6c0 5.067.791 9.183 2.375 12.35 1.9 2.85 4.908 4.75 9.025 5.7l18.05 4.275c2.216.317 3.641.95 4.275 1.9.95.633 1.425 1.425 1.425 2.375 0 1.267-.475 2.217-1.425 2.85-.634.633-1.742.95-3.325.95h-232.75c-1.267 0-2.375-.317-3.325-.95-.95-.633-1.425-1.583-1.425-2.85 0-.95.316-1.742.95-2.375.95-.95 2.533-1.583 4.75-1.9l18.05-4.275c4.433-.95 7.441-2.85 9.025-5.7 1.583-3.167 2.375-7.283 2.375-12.35V428.4c0-2.533-.634-4.433-1.9-5.7-1.267-1.267-3.325-1.9-6.175-1.9h-18.525c-2.217 0-3.8-.317-4.75-.95-.634-.95-.95-2.058-.95-3.325 0-1.267.475-2.217 1.425-2.85.95-.633 2.058-1.108 3.325-1.425l180.025-49.875 7.6-1.9c1.583-.317 3.325-.475 5.225-.475 2.216 0 3.8.633 4.75 1.9 1.266 1.267 1.9 2.85 1.9 4.75Zm-87.875-33.725c-28.817 0-52.25-9.183-70.3-27.55-18.05-18.367-27.075-40.85-27.075-67.45s9.025-49.083 27.075-67.45c18.05-18.367 41.483-27.55 70.3-27.55 29.133 0 52.883 9.183 71.25 27.55 18.683 18.367 28.025 40.85 28.025 67.45s-9.342 49.083-28.025 67.45c-18.367 18.367-42.117 27.55-71.25 27.55ZM876.39 750.45c-29.766-3.483-52.408-6.967-67.925-10.45-15.516-3.8-26.125-7.917-31.825-12.35-5.7-4.433-8.55-9.817-8.55-16.15 0-6.333 1.742-11.4 5.225-15.2 3.484-3.8 6.809-5.7 9.975-5.7l-.95-2.85c-36.1 2.533-64.916 8.233-86.45 17.1-21.533 8.55-37.05 19.633-46.55 33.25s-14.25 29.133-14.25 46.55c0 19 5.225 34.042 15.675 45.125 10.45 11.4 27.234 20.425 50.35 27.075 23.117 6.65 53.675 12.667 91.675 18.05 36.734 5.067 65.234 10.925 85.5 17.575 20.267 6.967 34.359 15.358 42.275 25.175 7.917 9.817 11.875 21.533 11.875 35.15 0 15.517-3.8 28.025-11.4 37.525-7.283 9.5-18.525 16.305-33.725 20.425-14.883 4.43-33.725 6.65-56.525 6.65-42.116 0-74.575-12.35-97.375-37.05-22.483-24.7-33.725-57.633-33.725-98.8 0-6.333.634-12.033 1.9-17.1 1.267-5.067 2.534-8.55 3.8-10.45v-4.75c-44.016 4.117-75.683 12.35-95 24.7-19 12.667-28.5 32.3-28.5 58.9 0 19.317 7.917 36.258 23.75 50.825 16.15 14.567 42.117 25.805 77.9 33.725 35.784 8.23 83.284 12.35 142.5 12.35 77.9 0 137.909-14.25 180.03-42.75 42.11-28.5 63.17-65.55 63.17-111.15 0-25.017-5.7-45.758-17.1-62.225-11.08-16.467-30.72-29.608-58.9-39.425-27.866-10.133-66.816-18.05-116.85-23.75Zm10.45-366.7 9.5-3.8c4.434-14.883 9.817-25.967 16.15-33.25 6.334-7.6 14.409-11.4 24.225-11.4 8.867 0 16.467 3.325 22.8 9.975 6.65 6.333 13.142 13.775 19.475 22.325 6.334 8.55 13.459 16.15 21.38 22.8 7.91 6.333 17.73 9.5 29.45 9.5 19.63 0 34.67-5.7 45.12-17.1 10.77-11.717 16.15-27.867 16.15-48.45 0-23.433-6.49-42.433-19.47-57-12.99-14.567-32.62-21.85-58.9-21.85-30.721 0-55.896 10.767-75.53 32.3-19.316 21.533-34.833 49.717-46.55 84.55l-3.8 11.4Zm155.8 140.6c0-27.867-8.39-54.15-25.17-78.85-16.47-24.7-40.855-44.808-73.155-60.325-31.983-15.517-71.091-23.275-117.325-23.275-47.816 0-89.141 7.758-123.975 23.275-34.833 15.517-61.75 36.575-80.75 63.175-18.683 26.283-28.025 56.05-28.025 89.3 0 28.183 9.184 54.308 27.55 78.375 18.684 23.75 45.125 42.908 79.325 57.475 34.517 14.567 75.525 21.85 123.025 21.85 41.8 0 79.167-7.6 112.1-22.8 32.934-15.2 58.9-35.625 77.9-61.275 19-25.967 28.5-54.942 28.5-86.925Zm-247.95-150.1c12.984-1.9 26.125 9.817 39.425 35.15 13.3 25.017 23.434 62.067 30.4 111.15 6.967 49.717 7.442 88.508 1.425 116.375-5.7 27.55-15.2 42.275-28.5 44.175-8.866 1.267-17.891-3.483-27.075-14.25-9.183-11.083-17.575-27.708-25.175-49.875-7.283-22.483-13.3-50.192-18.05-83.125-4.433-32.617-6.175-60.642-5.225-84.075 1.267-23.433 4.75-41.483 10.45-54.15 5.7-12.983 13.142-20.108 22.325-21.375ZM1269.34 86.4v680.2c0 5.067.79 9.183 2.38 12.35 1.9 2.85 4.9 4.75 9.02 5.7l18.05 4.275c3.8.95 5.7 2.375 5.7 4.275 0 2.533-1.58 3.8-4.75 3.8h-232.75c-1.27 0-2.37-.317-3.32-.95-.95-.633-1.43-1.583-1.43-2.85 0-.95.32-1.742.95-2.375.95-.95 2.53-1.583 4.75-1.9l18.05-4.275c4.43-.95 7.44-2.85 9.03-5.7 1.58-3.167 2.37-7.283 2.37-12.35V148.15c0-2.533-.63-4.433-1.9-5.7-1.27-1.267-3.32-1.9-6.17-1.9h-18.53c-2.22 0-3.8-.317-4.75-.95-.63-.95-.95-2.058-.95-3.325 0-1.267.48-2.217 1.43-2.85s2.05-1.108 3.32-1.425l180.03-49.875 7.6-1.9c1.58-.317 3.32-.475 5.22-.475 2.22 0 3.8.633 4.75 1.9 1.27 1.267 1.9 2.85 1.9 4.75Zm-14.25 388.075-6.65-7.125 19-16.625c33.25-29.133 63.02-51.142 89.3-66.025 26.28-15.2 49.72-22.8 70.3-22.8 28.18 0 50.03 8.075 65.55 24.225 15.83 15.833 25.65 41.642 29.45 77.425l32.3 303.05c.63 5.067 1.58 9.183 2.85 12.35 1.58 2.85 4.43 4.75 8.55 5.7l18.05 4.275c2.22.317 3.64.95 4.28 1.9.95.633 1.42 1.425 1.42 2.375 0 1.267-.47 2.217-1.42 2.85-.64.633-1.75.95-3.33.95h-237.02c-3.17 0-4.75-1.267-4.75-3.8 0-1.9 1.9-3.325 5.7-4.275l18.05-4.275c4.43-.95 7.6-2.85 9.5-5.7 1.9-3.167 2.53-7.283 1.9-12.35l-25.18-285c-1.27-15.517-4.43-26.758-9.5-33.725-5.07-7.283-13.3-10.925-24.7-10.925-7.92 0-15.67 2.058-23.27 6.175-7.29 3.8-14.73 9.025-22.33 15.675l-18.05 15.675Zm331.14-85.025-35.15-9.5c-2.21-.633-3.64-1.267-4.27-1.9-.95-.95-1.43-1.9-1.43-2.85 0-.95.48-1.742 1.43-2.375.63-.95 1.42-1.425 2.37-1.425h38c.95 0 1.9-.158 2.85-.475 1.27-.317 2.85-1.108 4.75-2.375l138.7-97.85c2.54-1.9 5.23-3.483 8.08-4.75 2.85-1.267 5.22-1.9 7.12-1.9 2.54 0 4.6.95 6.18 2.85 1.58 1.583 2.37 4.117 2.37 7.6v384.75c0 28.183 5.07 49.242 15.2 63.175 10.14 13.617 23.75 20.425 40.85 20.425 5.7 0 11.09-.95 16.15-2.85 5.39-1.9 10.3-5.067 14.73-9.5s8.39-10.45 11.87-18.05c3.49-7.6 6.34-17.1 8.55-28.5.64-2.533 1.9-3.8 3.8-3.8s2.54 1.267 1.9 3.8c-4.75 27.55-12.5 50.35-23.27 68.4-10.45 18.05-24.86 31.667-43.23 40.85-18.05 8.867-40.85 13.3-68.4 13.3-46.86 0-82.49-10.767-106.87-32.3-24.38-21.533-36.58-54.783-36.58-99.75V398c0-2.85-.31-4.908-.95-6.175-.63-1.267-2.21-2.058-4.75-2.375Zm121.6-5.7 5.7-12.35h154.85c1.59 0 2.7.317 3.33.95.95.317 1.42 1.267 1.42 2.85 0 2.217-1.26 4.275-3.8 6.175-2.53 1.583-6.01 2.375-10.45 2.375h-151.05Z" fill="#3C4043"/></g><defs><clipPath id="a"><path fill="#fff" d="M0 0h1920v1080H0z"/></clipPath></defs></svg>