<svg width="1920" height="1080" fill="none" xmlns="http://www.w3.org/2000/svg"><path d="M301.2 591.819c35.524 0 54.891-20.865 54.891-52.965 0-36.273-18.19-62.06-53.179-62.06-35.524 0-60.348 18.511-60.348 57.352 0 37.664 20.544 57.673 58.636 57.673Zm-1.391-38.413c-11.342 0-17.227-9.951-17.227-23.005 0-10.272 4.601-23.112 18.19-23.112 11.021 0 18.19 9.844 18.19 24.396 0 14.659-8.56 21.721-19.153 21.721Zm168.624 13.589-28.141-30.602c-1.498 2.354-10.272 11.556-21.186 11.556-13.268 0-16.264-13.268-16.264-21.935 0-12.84 6.42-20.116 19.046-20.116 9.844 0 13.482 6.313 14.231 8.025l28.89-15.408c-9.63-16.692-25.252-25.787-45.368-25.787-33.384 0-56.175 26.108-56.175 59.171 0 32.421 21.4 59.385 54.57 59.385 26.108 0 43.121-12.519 50.397-24.289Zm109.716 0-28.141-30.602c-1.498 2.354-10.272 11.556-21.186 11.556-13.268 0-16.264-13.268-16.264-21.935 0-12.84 6.42-20.116 19.046-20.116 9.844 0 13.482 6.313 14.231 8.025l28.89-15.408c-9.63-16.692-25.252-25.787-45.368-25.787-33.384 0-56.175 26.108-56.175 59.171 0 32.421 21.4 59.385 54.57 59.385 26.108 0 43.121-12.519 50.397-24.289Zm77.617-80.143c1.605 6.634 2.889 18.618 2.889 30.816 0 19.474-2.354 39.804-13.91 39.804-12.198 0-14.231-22.47-14.231-44.405 0-11.021.856-21.828 1.605-29.532-5.136-1.498-15.194-2.461-24.182-2.461-6.206 0-14.659.428-19.367.856-.642 9.309-.963 18.404-.963 27.071 0 50.29 10.807 87.847 55.747 87.847 42.586 0 57.031-36.594 57.031-81.32 0-9.737-.749-19.688-2.14-29.639-5.136-.856-14.124-1.498-20.651-1.498-7.918 0-17.334.963-21.828 2.461Zm55.933 151.833c8.346 0 26.215-.749 40.339-3.531 1.07-12.412 2.354-51.253 2.354-60.562 3.424 4.815 16.906 9.737 29.104 9.737 28.034 0 51.36-20.758 51.36-55.747 0-33.17-12.626-52.858-42.158-52.858-20.009 0-32.742 11.556-36.059 16.692 0-5.136-.535-11.342-1.07-16.692-13.375 0-28.462 1.391-39.483 4.922 0 15.194-.963 96.728-4.387 158.039Zm65.163-95.658c-11.984 0-16.906-4.922-20.223-8.56.214-2.782.428-11.342.428-14.98 3.745-4.815 10.7-9.737 21.935-9.737 11.877 0 15.943 5.671 15.943 15.943 0 11.021-7.597 17.334-18.083 17.334Zm111.549 103.255c37.022 0 55.212-25.252 57.138-62.274 1.177-21.828 1.712-43.335 1.712-62.488 0-11.663-.214-22.363-.642-31.779-8.453-1.819-16.264-2.675-24.503-2.675-3.852 0-7.811.214-11.877.535.321 2.568.749 7.383.749 16.157 0 25.252-3.745 44.405-17.548 44.405-9.202 0-11.663-14.338-11.663-29.104 0-13.482 2.033-27.392 2.889-31.458-3.424-.749-14.552-1.391-24.503-1.391-6.848 0-13.054.321-15.943.963-.642 11.663-1.07 22.363-1.07 32.1 0 37.236 9.63 66.875 44.191 66.875 9.737 0 20.651-5.885 26.215-14.017-.642 16.157-6.527 37.022-23.861 37.022-14.231 0-29.853-7.811-38.306-13.161-4.387 6.099-14.338 25.252-17.441 33.919 12.626 8.239 31.458 16.371 54.463 16.371Z" fill="#D2E3FC"/><path d="M1032.2 591.819c35.52 0 54.89-20.865 54.89-52.965 0-36.273-18.19-62.06-53.18-62.06-35.522 0-60.346 18.511-60.346 57.352 0 37.664 20.544 57.673 58.636 57.673Zm-1.39-38.413c-11.34 0-17.23-9.951-17.23-23.005 0-10.272 4.6-23.112 18.19-23.112 11.02 0 18.19 9.844 18.19 24.396 0 14.659-8.56 21.721-19.15 21.721Zm168.62 13.589-28.14-30.602c-1.5 2.354-10.27 11.556-21.18 11.556-13.27 0-16.27-13.268-16.27-21.935 0-12.84 6.42-20.116 19.05-20.116 9.84 0 13.48 6.313 14.23 8.025l28.89-15.408c-9.63-16.692-25.25-25.787-45.37-25.787-33.38 0-56.17 26.108-56.17 59.171 0 32.421 21.4 59.385 54.57 59.385 26.1 0 43.12-12.519 50.39-24.289Zm109.72 0-28.14-30.602c-1.5 2.354-10.27 11.556-21.19 11.556-13.27 0-16.26-13.268-16.26-21.935 0-12.84 6.42-20.116 19.04-20.116 9.85 0 13.49 6.313 14.24 8.025l28.89-15.408c-9.63-16.692-25.26-25.787-45.37-25.787-33.39 0-56.18 26.108-56.18 59.171 0 32.421 21.4 59.385 54.57 59.385 26.11 0 43.12-12.519 50.4-24.289Zm77.62-80.143c1.6 6.634 2.89 18.618 2.89 30.816 0 19.474-2.36 39.804-13.91 39.804-12.2 0-14.24-22.47-14.24-44.405 0-11.021.86-21.828 1.61-29.532-5.14-1.498-15.19-2.461-24.18-2.461-6.21 0-14.66.428-19.37.856-.64 9.309-.96 18.404-.96 27.071 0 50.29 10.8 87.847 55.74 87.847 42.59 0 57.04-36.594 57.04-81.32 0-9.737-.75-19.688-2.14-29.639-5.14-.856-14.13-1.498-20.66-1.498-7.91 0-17.33.963-21.82 2.461Zm55.93 151.833c8.34 0 26.21-.749 40.34-3.531 1.07-12.412 2.35-51.253 2.35-60.562 3.43 4.815 16.91 9.737 29.11 9.737 28.03 0 51.36-20.758 51.36-55.747 0-33.17-12.63-52.858-42.16-52.858-20.01 0-32.74 11.556-36.06 16.692 0-5.136-.54-11.342-1.07-16.692-13.38 0-28.46 1.391-39.48 4.922 0 15.194-.97 96.728-4.39 158.039Zm65.16-95.658c-11.98 0-16.9-4.922-20.22-8.56.21-2.782.43-11.342.43-14.98 3.74-4.815 10.7-9.737 21.93-9.737 11.88 0 15.94 5.671 15.94 15.943 0 11.021-7.59 17.334-18.08 17.334Zm111.55 103.255c37.02 0 55.21-25.252 57.14-62.274 1.18-21.828 1.71-43.335 1.71-62.488 0-11.663-.21-22.363-.64-31.779-8.45-1.819-16.27-2.675-24.5-2.675-3.86 0-7.82.214-11.88.535.32 2.568.75 7.383.75 16.157 0 25.252-3.75 44.405-17.55 44.405-9.2 0-11.66-14.338-11.66-29.104 0-13.482 2.03-27.392 2.89-31.458-3.43-.749-14.56-1.391-24.51-1.391-6.85 0-13.05.321-15.94.963-.64 11.663-1.07 22.363-1.07 32.1 0 37.236 9.63 66.875 44.19 66.875 9.74 0 20.65-5.885 26.22-14.017-.65 16.157-6.53 37.022-23.87 37.022-14.23 0-29.85-7.811-38.3-13.161-4.39 6.099-14.34 25.252-17.44 33.919 12.62 8.239 31.46 16.371 54.46 16.371ZM301.307 594.173c30.495 0 49.22-21.293 49.22-54.249 0-39.055-14.98-65.163-49.862-65.163-31.351 0-51.788 21.293-51.788 57.245 0 39.911 15.408 62.167 52.43 62.167Zm-.535-7.597c-27.713 0-42.479-21.186-42.479-52.43 0-31.672 14.98-51.36 41.944-51.36 28.783 0 41.088 23.968 41.088 56.496 0 21.4-9.63 47.294-40.553 47.294Zm160.701-18.297-6.741-4.601c-1.284 2.14-11.449 18.511-33.491 18.511-27.606 0-39.483-24.396-39.483-53.393 0-27.927 13.91-48.257 38.306-48.257 24.396 0 31.458 17.334 33.063 21.614l6.42-6.313c-4.708-10.7-18.511-22.898-38.199-22.898-33.384 0-49.113 23.861-49.113 59.492 0 31.351 17.655 57.994 48.15 57.994 21.507 0 37.022-12.519 41.088-22.149Zm109.716 0-6.741-4.601c-1.284 2.14-11.449 18.511-33.491 18.511-27.606 0-39.483-24.396-39.483-53.393 0-27.927 13.91-48.257 38.306-48.257 24.396 0 31.458 17.334 33.063 21.614l6.42-6.313c-4.708-10.7-18.511-22.898-38.199-22.898-33.384 0-49.113 23.861-49.113 59.492 0 31.351 17.655 57.994 48.15 57.994 21.507 0 37.022-12.519 41.088-22.149Zm102.12-87.526c2.889 18.083 4.28 33.598 4.28 46.759 0 41.516-13.696 59.385-35.417 59.385-23.326 0-37.343-19.474-37.343-66.875 0-12.091.856-25.894 2.782-41.73-1.498-.428-2.996-.749-4.601-1.07-1.498-.321-3.531-.642-4.601-.642-1.284 14.873-2.675 31.03-2.675 46.438 0 37.878 8.56 71.369 46.973 71.369 34.24 0 44.298-29.211 44.298-63.558 0-16.478-2.247-34.026-5.136-50.29-.856-.107-2.889-.107-4.494-.107-1.712 0-3.424.214-4.066.321Zm45.233 155.15c1.819 0 7.276-.214 10.593-.963 2.354-13.589 6.099-62.702 6.527-69.764 5.243 5.243 26.429 13.696 41.409 13.696 31.351 0 45.796-22.363 45.796-55.319 0-31.03-16.692-49.648-43.763-49.648-18.832 0-34.133 9.844-40.446 16.05 0-5.136.214-13.696.321-16.371-2.996 0-7.383.428-9.844.963 0 39.804-3.424 112.029-10.593 161.356Zm57.887-66.019c-19.902 0-34.989-10.486-39.911-14.445 0-11.663 1.391-48.15 1.605-53.5 3.638-4.815 20.758-19.688 40.339-19.688 21.614 0 34.347 14.552 34.347 39.697 0 29.853-8.346 47.936-36.38 47.936Zm100.817 76.719c32.635 0 48.471-26.964 50.397-62.595 1.498-27.499 2.996-59.813 2.996-81.213 0-5.992-.107-11.128-.321-15.087-.856-.321-2.568-.428-4.28-.428-1.605 0-3.21.107-4.28.321 0 2.14-.963 35.31-2.782 51.681-2.996 26.322-16.157 37.557-33.491 37.557-24.824 0-27.499-33.063-27.499-60.669 0-15.194 1.177-30.388 1.391-32.207-.642-.214-1.926-.214-3.424-.214-2.14 0-4.708.107-5.885.321-.642 11.235-1.07 21.935-1.07 32.1 0 40.339 6.848 69.229 35.096 69.229 23.754 0 32.742-12.412 35.096-20.437 0 38.734-10.914 73.295-41.409 73.295-14.873 0-30.174-8.56-34.347-12.091-1.819 2.14-4.708 6.527-5.243 7.918 6.42 4.815 20.972 12.519 39.055 12.519Z" fill="#3C4043"/><rect x="1216" y="813" width="218" height="50" rx="25" fill="#D2E3FC"/><rect x="1215" y="813" width="186" height="50" rx="25" fill="#1A73E8"/><rect x="486" y="813" width="218" height="50" rx="25" fill="#D2E3FC"/><rect x="486" y="813" width="70" height="50" rx="25" fill="#1A73E8"/></svg>