<svg width="1920" height="1080" fill="none" xmlns="http://www.w3.org/2000/svg"><rect x="973" y="441" width="40" height="61" rx="20" fill="#D2E3FC"/><rect x="1677" y="657" width="40" height="61" rx="20" transform="rotate(-180 1677 657)" fill="#D2E3FC"/><rect x="1336" y="441" width="40" height="61" rx="20" fill="#D2E3FC"/><rect x="1336" y="595" width="40" height="61" rx="20" fill="#D2E3FC"/><rect x="973" y="526" width="40" height="130" rx="20" fill="#D2E3FC"/><rect x="1677" y="572" width="40" height="130" rx="20" transform="rotate(-180 1677 572)" fill="#D2E3FC"/><rect x="1036" y="441" width="40" height="215" rx="20" fill="#D2E3FC"/><rect x="1186" y="441" width="40" height="215" rx="20" fill="#D2E3FC"/><rect x="1273" y="441" width="40" height="215" rx="20" fill="#D2E3FC"/><rect x="1424" y="441" width="40" height="215" rx="20" fill="#D2E3FC"/><rect x="1574" y="442" width="40" height="215" rx="20" fill="#D2E3FC"/><rect x="1123" y="383" width="40" height="273" rx="20" fill="#D2E3FC"/><rect x="1487" y="383" width="40" height="273" rx="20" fill="#D2E3FC"/><rect x="243" y="441" width="40" height="61" rx="20" fill="#3C4043"/><rect x="947" y="657" width="40" height="61" rx="20" transform="rotate(-180 947 657)" fill="#3C4043"/><rect x="606" y="441" width="40" height="61" rx="20" fill="#3C4043"/><rect x="606" y="595" width="40" height="61" rx="20" fill="#3C4043"/><rect x="243" y="526" width="40" height="130" rx="20" fill="#3C4043"/><rect x="947" y="572" width="40" height="130" rx="20" transform="rotate(-180 947 572)" fill="#3C4043"/><rect x="306" y="441" width="40" height="215" rx="20" fill="#3C4043"/><rect x="456" y="441" width="40" height="215" rx="20" fill="#3C4043"/><rect x="543" y="441" width="40" height="215" rx="20" fill="#3C4043"/><rect x="694" y="441" width="40" height="215" rx="20" fill="#3C4043"/><rect x="844" y="442" width="40" height="215" rx="20" fill="#3C4043"/><rect x="393" y="383" width="40" height="273" rx="20" fill="#3C4043"/><rect x="757" y="383" width="40" height="273" rx="20" fill="#3C4043"/><rect x="1012" y="526" width="40" height="41" rx="20" transform="rotate(-180 1012 526)" fill="#3C4043"/><rect x="1162" y="526" width="40" height="41" rx="20" transform="rotate(-180 1162 526)" fill="#3C4043"/><rect x="1313" y="526" width="40" height="41" rx="20" transform="rotate(-180 1313 526)" fill="#3C4043"/><rect x="1464" y="526" width="40" height="41" rx="20" transform="rotate(-180 1464 526)" fill="#3C4043"/><rect x="1613" y="526" width="40" height="41" rx="20" transform="rotate(-180 1613 526)" fill="#3C4043"/><rect x="1225" y="526" width="40" height="41" rx="20" transform="rotate(-180 1225 526)" fill="#3C4043"/><rect x="1376" y="526" width="40" height="41" rx="20" transform="rotate(-180 1376 526)" fill="#3C4043"/><rect x="1527" y="526" width="40" height="41" rx="20" transform="rotate(-180 1527 526)" fill="#3C4043"/><rect x="1676" y="614" width="40" height="41" rx="20" transform="rotate(-180 1676 614)" fill="#3C4043"/><rect x="1527" y="614" width="40" height="41" rx="20" transform="rotate(-180 1527 614)" fill="#3C4043"/><rect x="1162" y="614" width="40" height="41" rx="20" transform="rotate(-180 1162 614)" fill="#3C4043"/><rect x="1216" y="813" width="218" height="50" rx="25" fill="#D2E3FC"/><rect x="1215" y="813" width="70" height="50" rx="25" fill="#1A73E8"/><rect x="486" y="813" width="218" height="50" rx="25" fill="#D2E3FC"/><rect x="486" y="813" width="186" height="50" rx="25" fill="#1A73E8"/></svg>