<svg width="1920" height="1080" fill="none" xmlns="http://www.w3.org/2000/svg"><path d="m1598.35 786.34-.03.034-.04.034-70.19 71.546H1079v-635h590.9v493.19l-71.55 70.196Z" fill="#F3F7FE" stroke="#1A73E8" stroke-width="10"/><path d="M1517.78 705.839h157.12l-78.56 78.557-78.56 78.558V705.839Z" fill="#1A73E8"/><path d="M1174.31 730c-7.68 0-13.64-1.79-17.88-5.371-4.29-3.533-6.43-8.433-6.43-14.699 0-6.219 2.14-11.072 6.43-14.558 4.29-3.439 11.33-5.748 21.13-6.926l26.71-3.251-.28 4.665-26.57 3.25c-8.06.99-13.76 2.804-17.1 5.442-3.39 2.638-5.09 6.337-5.09 11.095 0 4.853 1.55 8.669 4.66 11.449 3.07 2.827 7.87 4.24 14.42 4.24 5.04 0 9.89-.989 14.56-2.968 4.62-1.979 8.76-4.947 12.44-8.905v-36.607c0-5.559-.92-9.846-2.76-12.862-1.88-2.968-4.57-5.041-8.06-6.219-3.53-1.13-7.79-1.696-12.79-1.696-3.3 0-6.95.283-10.95.848-4.05.566-8.18 1.602-12.37 3.11v-4.806c3.35-1.272 7.09-2.238 11.24-2.897 4.1-.613 8.08-.919 11.94-.919 5.98 0 11.12.754 15.41 2.262 4.24 1.554 7.49 4.169 9.75 7.844 2.26 3.675 3.39 8.74 3.39 15.194v52.155h-4.24l-.42-9.47h-.57c-2.87 3.109-6.69 5.653-11.45 7.632-4.75 1.979-9.8 2.968-15.12 2.968ZM1263.39 730c-7.15 0-12.78-1.765-16.87-5.295-4.1-3.578-6.15-8.544-6.15-14.898 0-6.402 2.12-11.391 6.36-14.969 4.19-3.577 10.92-5.884 20.19-6.919l23.37-2.683.28 5.366-23.58 2.683c-7.06.847-12.12 2.565-15.18 5.154-3.06 2.589-4.59 6.19-4.59 10.803 0 4.848 1.41 8.59 4.24 11.226 2.82 2.589 7.06 3.884 12.71 3.884 4.19 0 8.31-.895 12.35-2.683 4.05-1.742 7.68-4.613 10.88-8.614v-36.151c0-5.225-.83-9.273-2.47-12.144-1.65-2.824-4.08-4.801-7.28-5.931-3.15-1.083-7.03-1.624-11.65-1.624-2.96 0-6.3.259-10.02.777-3.67.564-7.42 1.506-11.23 2.824v-5.861c3.11-1.176 6.61-2.071 10.52-2.683 3.86-.564 7.56-.847 11.09-.847 5.83 0 10.8.777 14.89 2.33 4.1 1.554 7.23 4.189 9.39 7.908 2.12 3.719 3.18 8.826 3.18 15.322v51.896h-5.58l-.56-9.038h-.57c-2.63 3.154-6.04 5.648-10.23 7.484-4.19 1.789-8.69 2.683-13.49 2.683ZM1356.3 730c-8.55 0-15.09-1.938-19.62-5.813-4.48-3.876-6.72-8.989-6.72-15.339 0-6.677 2.47-11.907 7.42-15.689 5-3.735 13.06-6.093 24.17-7.074l23.04-2.311.91 8.965-22.83 2.311c-6.4.701-10.93 2.078-13.59 4.133-2.61 2.007-3.92 4.832-3.92 8.474 0 3.596 1.21 6.467 3.64 8.615 2.48 2.102 6.28 3.152 11.42 3.152 3.73 0 7.37-.654 10.92-1.961 3.55-1.354 6.75-3.409 9.6-6.163v-30.958c0-4.53-.79-8.078-2.38-10.646-1.59-2.522-3.97-4.296-7.15-5.323-3.22-1.028-7.28-1.541-12.18-1.541-3.27 0-6.98.28-11.14.84a65.884 65.884 0 0 0-12.26 2.872v-11.417c3.88-1.26 8.08-2.194 12.61-2.801 4.58-.607 8.87-.911 12.89-.911 7.66 0 14.05.911 19.19 2.732 5.09 1.821 8.89 4.926 11.42 9.315 2.56 4.343 3.85 10.296 3.85 17.86v47.418h-12.68l-1.05-8.265h-.84c-2.8 2.988-6.4 5.323-10.79 7.004-4.39 1.681-9.03 2.521-13.93 2.521ZM1452.33 730c-9.26 0-16.26-2.084-20.98-6.253-4.73-4.169-7.09-9.473-7.09-15.912 0-7.041 2.78-12.576 8.34-16.606 5.56-3.984 14.48-6.369 26.75-7.157l19.8-1.529 2.09 12.646-19.74 1.598c-4.91.417-8.38 1.39-10.42 2.919-1.99 1.528-2.99 3.59-2.99 6.184 0 2.547.95 4.586 2.85 6.114 1.9 1.575 4.82 2.363 8.76 2.363 2.59 0 5.19-.394 7.78-1.182a21.612 21.612 0 0 0 7.09-3.682v-26.126c0-3.705-.65-6.624-1.95-8.755-1.34-2.13-3.5-3.636-6.46-4.516-2.92-.926-6.81-1.39-11.67-1.39-3.25 0-7 .278-11.26.834-4.21.51-8.27 1.367-12.16 2.571v-17.093c4.31-1.25 8.92-2.177 13.83-2.779 4.95-.556 9.49-.834 13.62-.834 9.17 0 16.67 1.042 22.51 3.127 5.84 2.084 10.14 5.582 12.92 10.492 2.78 4.956 4.17 11.719 4.17 20.289v43.288h-19.94l-1.6-7.157h-1.11c-2.73 2.872-6.14 5.003-10.21 6.392-4.03 1.436-8.34 2.154-12.93 2.154ZM1553.71 730c-9.93 0-17.35-2.229-22.27-6.687-4.92-4.411-7.38-9.857-7.38-16.337 0-7.399 3.06-13.212 9.17-17.44 6.07-4.228 15.74-6.641 29.02-7.239l16.96-.827 3.03 15.993-16.81.827c-3.64.184-6.16.804-7.59 1.861-1.47 1.057-2.2 2.459-2.2 4.205 0 1.563.71 2.85 2.13 3.861 1.38 1.011 3.52 1.516 6.41 1.516 1.52 0 3.15-.138 4.9-.413 1.74-.276 3.38-.782 4.89-1.517v-21.645c0-2.941-.55-5.308-1.65-7.1-1.1-1.747-3.01-3.034-5.72-3.861-2.71-.781-6.46-1.172-11.24-1.172-3.22 0-6.98.253-11.3.759-4.37.551-8.41 1.355-12.14 2.412v-22.197c4.69-1.24 9.68-2.159 14.96-2.757 5.24-.551 10-.827 14.27-.827 10.48 0 18.96 1.149 25.44 3.447 6.48 2.343 11.21 6.25 14.2 11.718 2.99 5.469 4.48 12.914 4.48 22.335v39.568h-26.47l-2.07-6.204h-1.38c-2.66 2.758-5.86 4.734-9.58 5.929-3.77 1.195-7.79 1.792-12.06 1.792ZM1172.69 629.195c-7.02 0-12.56-1.743-16.61-5.23-4.05-3.486-6.08-8.409-6.08-14.77 0-6.313 2.05-11.236 6.15-14.77 4.1-3.533 10.67-5.818 19.72-6.855l24.02-2.897.07 4.664-24.24 2.898c-7.3.848-12.55 2.614-15.76 5.3-3.15 2.685-4.73 6.431-4.73 11.236 0 5.089 1.46 8.976 4.38 11.661 2.92 2.733 7.33 4.099 13.22 4.099 4.38 0 8.69-.942 12.93-2.827 4.24-1.884 8.01-4.923 11.31-9.116v-37.031c0-5.419-.85-9.588-2.55-12.509-1.69-2.921-4.14-4.947-7.35-6.078-3.25-1.13-7.18-1.696-11.8-1.696-2.97 0-6.29.283-9.96.848-3.68.518-7.42 1.461-11.24 2.827v-4.806c3.01-1.13 6.43-2.002 10.25-2.614 3.81-.613 7.46-.919 10.95-.919 5.61 0 10.39.754 14.35 2.261 3.95 1.508 6.97 4.076 9.04 7.703 2.08 3.628 3.11 8.599 3.11 14.912v52.578h-4.24l-.42-9.187h-.57c-2.64 3.204-6.08 5.725-10.32 7.562-4.24 1.837-8.78 2.756-13.63 2.756ZM1263.39 629.195c-7.15 0-12.78-1.765-16.87-5.295-4.1-3.578-6.15-8.544-6.15-14.898 0-6.402 2.12-11.392 6.36-14.969 4.19-3.577 10.92-5.884 20.19-6.919l23.37-2.683.28 5.366-23.58 2.683c-7.06.847-12.12 2.565-15.18 5.154-3.06 2.589-4.59 6.19-4.59 10.803 0 4.848 1.41 8.59 4.24 11.226 2.82 2.589 7.06 3.884 12.71 3.884 4.19 0 8.31-.895 12.35-2.684 4.05-1.741 7.68-4.612 10.88-8.614v-36.15c0-5.225-.83-9.273-2.47-12.144-1.65-2.825-4.08-4.802-7.28-5.931-3.15-1.083-7.03-1.624-11.65-1.624-2.96 0-6.3.259-10.02.776-3.67.565-7.42 1.507-11.23 2.825v-5.861c3.11-1.176 6.61-2.071 10.52-2.683 3.86-.565 7.56-.847 11.09-.847 5.83 0 10.8.777 14.89 2.33 4.1 1.553 7.23 4.189 9.39 7.908 2.12 3.719 3.18 8.826 3.18 15.322v51.895h-5.58l-.56-9.037h-.57c-2.63 3.153-6.04 5.648-10.23 7.484-4.19 1.789-8.69 2.683-13.49 2.683ZM1354.12 629.195c-7.61 0-13.54-1.891-17.79-5.673-4.25-3.829-6.37-8.965-6.37-15.409 0-6.771 2.31-12.047 6.93-15.829 4.67-3.782 12.17-6.117 22.49-7.004l20.24-2.101 1.26 8.755-20.38 2.101c-5.79.607-9.92 1.961-12.4 4.062-2.52 2.101-3.78 4.996-3.78 8.685 0 3.829 1.14 6.794 3.43 8.895 2.33 2.055 5.79 3.082 10.37 3.082 3.17 0 6.35-.63 9.52-1.891 3.18-1.307 6.05-3.385 8.62-6.234v-31.868c0-4.389-.73-7.821-2.17-10.296-1.41-2.428-3.58-4.132-6.52-5.113-2.89-1.027-6.58-1.541-11.06-1.541-2.99 0-6.38.281-10.16.841a63.036 63.036 0 0 0-11.14 2.591v-11.206c3.5-1.167 7.36-2.031 11.56-2.592 4.2-.56 8.15-.84 11.84-.84 7.09 0 12.98.887 17.65 2.662 4.71 1.774 8.21 4.786 10.5 9.035 2.34 4.202 3.5 9.945 3.5 17.23v48.397h-11.9l-1.05-8.264h-.84c-2.52 3.081-5.75 5.439-9.67 7.074-3.92 1.634-8.15 2.451-12.68 2.451ZM1449.76 629.195c-8.15 0-14.45-2.038-18.9-6.114-4.4-4.077-6.6-9.381-6.6-15.912 0-7.134 2.55-12.715 7.64-16.745 5.15-4.03 13.42-6.416 24.81-7.157l16.95-1.39 2.3 12.368-17.03 1.32c-4.44.371-7.62 1.367-9.52 2.988-1.94 1.575-2.91 3.752-2.91 6.532 0 2.733.88 4.863 2.64 6.392 1.76 1.529 4.37 2.293 7.85 2.293 2.18 0 4.4-.371 6.67-1.112 2.22-.741 4.28-1.992 6.18-3.752V581.53c0-3.521-.6-6.3-1.8-8.338-1.16-2.038-3.06-3.497-5.7-4.378-2.64-.88-6.14-1.32-10.49-1.32-3.01 0-6.44.255-10.29.765a69.68 69.68 0 0 0-11.04 2.362v-16.745c3.89-1.112 8.1-1.923 12.64-2.432 4.54-.556 8.76-.834 12.65-.834 8.29 0 15.1.996 20.42 2.988 5.33 2.038 9.27 5.419 11.82 10.144 2.54 4.725 3.82 11.164 3.82 19.316v44.747h-18.62l-1.53-7.504h-1.11c-2.37 3.058-5.38 5.304-9.04 6.74-3.66 1.436-7.59 2.154-11.81 2.154ZM1550.21 629.195c-8.39 0-14.85-2.098-19.37-6.295-4.52-4.243-6.78-9.662-6.78-16.257 0-7.286 2.68-13.005 8.03-17.156 5.39-4.15 14.06-6.571 26.01-7.263l15.22-.969 2.9 14.182-15.28 1.037c-3.74.231-6.39 1.015-7.96 2.352-1.61 1.292-2.42 3.09-2.42 5.396 0 2.122.74 3.805 2.21 5.05 1.48 1.199 3.65 1.799 6.51 1.799 1.61 0 3.29-.231 5.05-.692a14.614 14.614 0 0 0 4.91-2.352v-24.973c0-3.09-.53-5.557-1.59-7.402-1.06-1.799-2.84-3.09-5.33-3.874-2.49-.83-5.88-1.245-10.17-1.245-3 0-6.43.254-10.31.761-3.87.507-7.54 1.268-11 2.283v-19.716c4.06-1.107 8.47-1.937 13.22-2.49 4.7-.507 9.06-.761 13.07-.761 8.99 0 16.33 1.061 22 3.182 5.63 2.168 9.78 5.742 12.45 10.723 2.63 5.026 3.94 11.829 3.94 20.407v42.82h-22.13l-1.87-7.056h-1.18c-2.3 2.998-5.21 5.166-8.71 6.503-3.51 1.337-7.31 2.006-11.42 2.006ZM1171.27 528.39c-6.41 0-11.56-1.72-15.48-5.159-3.86-3.439-5.79-8.386-5.79-14.84 0-6.408 1.98-11.402 5.94-14.983 3.95-3.58 10.13-5.842 18.51-6.784l21.56-2.544.42 4.664-22.12 2.544c-6.69.707-11.54 2.45-14.56 5.23-3.01 2.733-4.52 6.549-4.52 11.448 0 5.23 1.39 9.164 4.17 11.802 2.78 2.639 6.83 3.958 12.15 3.958 3.77 0 7.59-.895 11.45-2.686 3.91-1.79 7.35-4.923 10.32-9.399v-37.384c0-5.23-.78-9.281-2.33-12.155-1.56-2.827-3.82-4.806-6.79-5.937-2.96-1.13-6.57-1.696-10.81-1.696-2.73 0-5.77.259-9.11.778-3.4.565-6.84 1.46-10.32 2.685v-4.805c2.78-1.084 5.93-1.909 9.47-2.474 3.53-.565 6.85-.848 9.96-.848 5.28 0 9.75.754 13.43 2.261 3.72 1.508 6.52 4.029 8.41 7.562 1.93 3.581 2.9 8.481 2.9 14.7v52.931h-4.24l-.43-8.833h-.56c-2.45 3.203-5.56 5.653-9.33 7.349-3.77 1.744-7.87 2.615-12.3 2.615ZM1261.84 528.39c-6.5 0-11.7-1.741-15.61-5.225-3.9-3.483-5.86-8.449-5.86-14.898 0-6.496 2.03-11.556 6.08-15.18 4-3.625 10.3-5.908 18.92-6.849l20.9-2.401.63 5.296-21.46 2.471c-6.45.659-11.13 2.307-14.05 4.943-2.87 2.683-4.31 6.378-4.31 11.085 0 5.036 1.34 8.826 4.03 11.367 2.68 2.542 6.59 3.813 11.72 3.813 3.57 0 7.2-.871 10.87-2.612 3.72-1.695 7.01-4.637 9.88-8.826v-36.645c0-5.036-.75-8.943-2.26-11.721-1.55-2.777-3.78-4.73-6.7-5.86-2.87-1.083-6.43-1.624-10.66-1.624-2.73 0-5.79.259-9.18.777-3.35.565-6.76 1.436-10.24 2.612v-5.86c2.82-1.036 6.05-1.836 9.67-2.401 3.58-.565 6.97-.847 10.17-.847 5.46 0 10.07.753 13.84 2.259 3.81 1.554 6.71 4.166 8.68 7.838 1.98 3.671 2.97 8.661 2.97 14.968v52.39h-5.51l-.49-8.755h-.64c-2.4 3.201-5.48 5.649-9.25 7.343-3.72 1.695-7.76 2.542-12.14 2.542ZM1352.23 528.39c-6.77 0-12.18-1.868-16.25-5.603-4.01-3.736-6.02-8.872-6.02-15.409 0-6.817 2.17-12.14 6.51-15.969 4.39-3.829 11.37-6.164 20.95-7.004l17.72-1.821 1.54 8.615-18.14 1.821c-5.19.513-8.97 1.844-11.35 3.992-2.38 2.148-3.57 5.136-3.57 8.965 0 4.016 1.07 7.028 3.22 9.035 2.19 2.008 5.32 3.012 9.39 3.012 2.7 0 5.48-.607 8.33-1.821 2.85-1.214 5.39-3.315 7.63-6.303v-32.709c0-4.249-.65-7.541-1.96-9.876-1.26-2.381-3.22-4.062-5.88-5.043-2.62-.934-5.98-1.401-10.09-1.401-2.7 0-5.79.234-9.24.701-3.41.513-6.8 1.331-10.16 2.451v-11.066c3.18-1.027 6.7-1.821 10.58-2.382 3.92-.513 7.59-.77 11-.77 6.49 0 11.88.864 16.17 2.592 4.35 1.727 7.59 4.646 9.74 8.755 2.15 4.109 3.22 9.688 3.22 16.739v49.238h-11.34l-.99-8.264h-.84c-2.24 3.175-5.11 5.556-8.61 7.144-3.5 1.587-7.35 2.381-11.56 2.381ZM1447.4 528.39c-7.13 0-12.76-1.992-16.88-5.975-4.17-3.984-6.26-9.288-6.26-15.912 0-7.18 2.36-12.808 7.09-16.884 4.72-4.03 12.37-6.416 22.93-7.157l14.38-1.251 2.57 12.09-14.66 1.182c-3.94.324-6.83 1.297-8.68 2.918-1.81 1.667-2.71 3.96-2.71 6.879 0 2.918.81 5.118 2.43 6.6 1.62 1.529 3.94 2.293 6.95 2.293 1.8 0 3.68-.37 5.62-1.111 1.95-.695 3.73-1.923 5.35-3.683v-28.627c0-3.381-.53-6.045-1.59-7.99-1.07-1.946-2.78-3.336-5.15-4.169-2.36-.834-5.48-1.251-9.38-1.251-2.77 0-5.9.232-9.38.695a59.936 59.936 0 0 0-10.07 2.223v-16.467c3.52-.973 7.36-1.714 11.53-2.224 4.22-.509 8.16-.764 11.82-.764 7.55 0 13.75.973 18.62 2.918 4.86 1.946 8.47 5.188 10.84 9.728 2.31 4.586 3.47 10.747 3.47 18.482V527h-17.44l-1.53-7.782h-.97c-2.04 3.197-4.73 5.536-8.06 7.018-3.29 1.436-6.9 2.154-10.84 2.154ZM1547.72 528.39c-7.28 0-13.05-2.052-17.29-6.157-4.24-4.15-6.37-9.569-6.37-16.256 0-7.333 2.47-13.098 7.41-17.294 4.88-4.151 12.91-6.572 24.07-7.264l12.59-.899 3.04 13.904-12.79.83c-3.28.231-5.68 1.038-7.2 2.422-1.57 1.383-2.35 3.274-2.35 5.672 0 2.352.69 4.128 2.08 5.327 1.33 1.245 3.2 1.867 5.6 1.867 1.38 0 2.79-.23 4.22-.691 1.47-.415 2.83-1.176 4.08-2.283v-26.426c0-2.951-.46-5.28-1.38-6.987-.93-1.752-2.49-2.997-4.71-3.735-2.21-.738-5.23-1.107-9.06-1.107-2.81 0-5.95.231-9.41.692a57.754 57.754 0 0 0-9.96 2.075v-19.37c3.64-.968 7.66-1.683 12.04-2.144 4.33-.507 8.39-.761 12.17-.761 8.17 0 14.83 1.015 19.99 3.044 5.17 2.075 8.95 5.511 11.35 10.307 2.44 4.796 3.67 11.276 3.67 19.439v44.342h-20.69l-1.8-7.471h-1.1c-1.94 3.182-4.5 5.465-7.68 6.849-3.18 1.383-6.69 2.075-10.52 2.075ZM1170.14 427.585c-5.94 0-10.76-1.696-14.49-5.088-3.77-3.392-5.65-8.339-5.65-14.841 0-6.502 1.93-11.566 5.79-15.194 3.82-3.628 9.64-5.866 17.46-6.714l19.58-2.261.7 4.664-20.42 2.262c-6.13.612-10.62 2.308-13.5 5.088-2.92 2.78-4.38 6.643-4.38 11.59 0 5.418 1.34 9.399 4.03 11.943 2.68 2.591 6.45 3.887 11.3 3.887 3.26 0 6.67-.872 10.25-2.615 3.58-1.696 6.74-4.876 9.47-9.54v-37.738c0-5.088-.73-9.022-2.19-11.802-1.41-2.827-3.51-4.782-6.29-5.866-2.73-1.13-6.1-1.696-10.1-1.696-2.45 0-5.23.259-8.34.778-3.11.518-6.27 1.342-9.47 2.473v-4.806c2.54-.989 5.46-1.743 8.76-2.261 3.3-.565 6.36-.848 9.19-.848 4.94 0 9.16.754 12.65 2.261 3.48 1.461 6.12 3.958 7.91 7.491 1.79 3.534 2.69 8.34 2.69 14.417v53.285h-4.24l-.43-8.621h-.56c-2.31 3.25-5.16 5.677-8.55 7.279-3.4 1.649-7.12 2.473-11.17 2.473ZM1260.57 427.585c-5.98 0-10.85-1.718-14.62-5.154-3.72-3.436-5.58-8.426-5.58-14.969 0-6.543 1.93-11.65 5.79-15.321 3.86-3.672 9.82-5.931 17.87-6.779l18.78-2.118.92 5.296-19.63 2.118c-5.89.612-10.22 2.259-12.99 4.942-2.78 2.683-4.17 6.402-4.17 11.156 0 5.225 1.27 9.061 3.81 11.509 2.54 2.495 6.14 3.742 10.81 3.742 3.1 0 6.35-.824 9.74-2.471 3.39-1.6 6.38-4.613 8.97-9.038V373.5c0-4.942-.69-8.778-2.05-11.508-1.41-2.683-3.46-4.566-6.14-5.649-2.73-1.083-6.05-1.624-9.96-1.624-2.45 0-5.23.259-8.33.777a57.916 57.916 0 0 0-9.46 2.4v-5.86c2.59-.988 5.55-1.742 8.89-2.259 3.39-.518 6.52-.777 9.39-.777 5.13 0 9.49.753 13.07 2.259 3.53 1.507 6.21 4.072 8.05 7.697 1.83 3.624 2.75 8.543 2.75 14.756v52.743h-5.37l-.56-8.543h-.57c-2.26 3.248-5.06 5.672-8.4 7.272-3.34 1.601-7.01 2.401-11.01 2.401ZM1350.62 427.585c-6.12 0-11.09-1.821-14.92-5.463-3.83-3.689-5.74-8.848-5.74-15.479 0-6.911 2.05-12.28 6.16-16.109 4.11-3.876 10.65-6.21 19.61-7.004l15.55-1.611 1.82 8.475-16.17 1.611c-4.77.42-8.29 1.751-10.58 3.992-2.29 2.195-3.43 5.253-3.43 9.175 0 4.156 1.02 7.214 3.08 9.175 2.05 2.008 4.9 3.012 8.54 3.012 2.34 0 4.79-.583 7.36-1.751 2.52-1.167 4.78-3.315 6.79-6.443v-33.41c0-4.109-.58-7.307-1.75-9.595-1.17-2.288-2.96-3.922-5.39-4.903-2.38-.934-5.44-1.401-9.18-1.401-2.52 0-5.34.257-8.47.771a55.172 55.172 0 0 0-9.32 2.241v-10.926c2.85-.934 6.1-1.658 9.74-2.172 3.59-.513 6.98-.77 10.15-.77 6.03 0 11.05.84 15.06 2.521 4.02 1.728 7.01 4.576 8.97 8.545 2.01 4.016 3.01 9.432 3.01 16.25v50.008h-10.79l-1.05-8.264h-.77c-2.01 3.268-4.6 5.673-7.77 7.214-3.18 1.541-6.68 2.311-10.51 2.311ZM1445.45 427.585c-6.25 0-11.34-1.945-15.28-5.836-3.94-3.938-5.91-9.265-5.91-15.982 0-7.226 2.18-12.877 6.53-16.953 4.4-4.077 11.56-6.485 21.47-7.227l12.16-1.042 2.78 11.812-12.64 1.043c-3.57.277-6.23 1.273-7.99 2.987-1.72 1.714-2.58 4.077-2.58 7.088 0 3.057.77 5.327 2.3 6.809 1.53 1.482 3.59 2.223 6.18 2.223 1.53 0 3.13-.347 4.8-1.042 1.66-.695 3.19-1.922 4.58-3.683v-29.669c0-3.242-.46-5.79-1.39-7.643-.97-1.899-2.52-3.242-4.65-4.03-2.09-.787-4.91-1.181-8.48-1.181-2.59 0-5.47.208-8.62.625-3.1.464-6.16 1.158-9.17 2.085V351.71c3.2-.834 6.74-1.506 10.63-2.015 3.89-.463 7.55-.695 10.98-.695 6.95 0 12.67.95 17.16 2.849 4.45 1.853 7.76 4.979 9.94 9.38 2.13 4.401 3.2 10.353 3.2 17.857v47.109h-16.4l-1.53-7.99h-.9c-1.81 3.335-4.2 5.721-7.16 7.157-3.01 1.482-6.35 2.223-10.01 2.223ZM1545.58 427.585c-6.37 0-11.53-2.029-15.5-6.087-4.01-4.013-6.02-9.409-6.02-16.188 0-7.425 2.29-13.213 6.85-17.363 4.52-4.197 11.99-6.641 22.42-7.333l10.37-.761 3.25 13.489-10.72.761c-2.9.231-5.09 1.061-6.57 2.491-1.52 1.429-2.28 3.413-2.28 5.949 0 2.49.64 4.335 1.93 5.534 1.25 1.245 2.89 1.868 4.92 1.868 1.1 0 2.26-.208 3.45-.623 1.2-.461 2.33-1.222 3.39-2.282v-27.602c0-2.813-.41-5.05-1.24-6.71-.79-1.661-2.17-2.837-4.15-3.528-1.98-.738-4.68-1.107-8.1-1.107-2.67 0-5.58.207-8.71.622a72.765 72.765 0 0 0-9.13 1.937v-19.023c3.36-.83 7.05-1.476 11.07-1.937 4.05-.461 7.88-.692 11.48-.692 7.42 0 13.51.992 18.26 2.975 4.71 1.983 8.19 5.28 10.45 9.892 2.21 4.612 3.32 10.838 3.32 18.678v45.587h-19.44l-1.73-7.817h-1.04c-1.66 3.321-3.92 5.696-6.78 7.126-2.9 1.429-6.15 2.144-9.75 2.144Z" fill="#3C4043"/><path fill="#1A73E8" d="M1521 706h97v30h-97z"/><path d="m401.595 390.071-.034.033-.034.034-20.537 20.933H248V223h174.528v146.533l-20.933 20.538Z" fill="#F3F7FE" stroke="#FF6D7F" stroke-width="10"/><path d="M379.279 367.823h48.248l-24.124 24.124-24.124 24.124v-48.248Z" fill="#FF6D7F"/><path d="m607.284 390.071-.034.033-.033.034-20.538 20.933h-132.99V223h174.528v146.533l-20.933 20.538Z" fill="#F3F7FE" stroke="#FF6D7F" stroke-width="10"/><path d="M584.969 367.823h48.248l-24.124 24.124-24.124 24.124v-48.248Z" fill="#FF6D7F"/><path d="m812.973 390.071-.034.033-.034.034-20.538 20.933H659.378V223h174.527v146.533l-20.932 20.538Z" fill="#F3F7FE" stroke="#FF6D7F" stroke-width="10"/><path d="M790.657 367.823h48.248l-24.124 24.124-24.124 24.124v-48.248Z" fill="#FF6D7F"/><path d="m401.595 614.382-.034.033-.034.034-20.537 20.933H248V447.311h174.528v146.533l-20.933 20.538Z" fill="#F3F7FE" stroke="#FF6D7F" stroke-width="10"/><path d="M379.279 592.134h48.248l-24.124 24.124-24.124 24.124v-48.248Z" fill="#FF6D7F"/><path d="m607.284 614.382-.034.033-.033.034-20.538 20.933h-132.99V447.311h174.528v146.533l-20.933 20.538Z" fill="#F3F7FE" stroke="#FF6D7F" stroke-width="10"/><path d="M584.969 592.134h48.248l-24.124 24.124-24.124 24.124v-48.248Z" fill="#FF6D7F"/><path d="m812.973 614.382-.034.033-.034.034-20.538 20.933H659.378V447.311h174.527v146.533l-20.932 20.538Z" fill="#F3F7FE" stroke="#FF6D7F" stroke-width="10"/><path d="M790.657 592.134h48.248l-24.124 24.124-24.124 24.124v-48.248Z" fill="#FF6D7F"/><path d="m401.595 837-.034.034-.034.033L380.99 858H248V669.929h174.528v146.533L401.595 837Z" fill="#F3F7FE" stroke="#FF6D7F" stroke-width="10"/><path d="M379.279 814.752h48.248l-24.124 24.124L379.279 863v-48.248Z" fill="#FF6D7F"/><path d="m607.284 837-.034.033-.033.034L586.679 858h-132.99V669.929h174.528v146.533L607.284 837Z" fill="#F3F7FE" stroke="#FF6D7F" stroke-width="10"/><path d="M584.969 814.752h48.248l-24.124 24.124L584.969 863v-48.248Z" fill="#FF6D7F"/><path d="m812.973 837-.034.033-.034.034L792.367 858H659.378V669.929h174.527v146.533L812.973 837Z" fill="#F3F7FE" stroke="#FF6D7F" stroke-width="10"/><path d="M790.657 814.752h48.248l-24.124 24.124L790.657 863v-48.248Z" fill="#FF6D7F"/><path d="M332.141 356.585c-5.936 0-10.765-1.696-14.487-5.088-3.769-3.392-5.654-8.339-5.654-14.841 0-6.502 1.932-11.566 5.795-15.194 3.816-3.628 9.635-5.866 17.455-6.714l19.576-2.261.707 4.664-20.424 2.262c-6.125.612-10.624 2.308-13.498 5.088-2.921 2.779-4.381 6.643-4.381 11.59 0 5.418 1.342 9.399 4.028 11.943 2.685 2.591 6.454 3.887 11.307 3.887 3.251 0 6.667-.872 10.247-2.615 3.581-1.696 6.737-4.876 9.47-9.541v-37.737c0-5.089-.73-9.023-2.191-11.802-1.413-2.827-3.51-4.782-6.289-5.866-2.733-1.131-6.102-1.696-10.106-1.696-2.45 0-5.23.259-8.339.777-3.11.519-6.266 1.343-9.47 2.474v-4.806c2.544-.989 5.465-1.743 8.763-2.261 3.298-.565 6.36-.848 9.187-.848 4.947 0 9.164.754 12.65 2.261 3.486 1.461 6.125 3.958 7.915 7.491 1.79 3.534 2.685 8.339 2.685 14.417v53.285h-4.24l-.424-8.622h-.565c-2.309 3.251-5.159 5.678-8.551 7.28-3.392 1.648-7.114 2.473-11.166 2.473ZM327.685 580.585c-7.02 0-12.556-1.743-16.607-5.23-4.052-3.486-6.078-8.409-6.078-14.77 0-6.313 2.049-11.236 6.148-14.77 4.099-3.533 10.671-5.818 19.717-6.855l24.028-2.897.071 4.664-24.24 2.898c-7.303.848-12.556 2.614-15.76 5.3-3.156 2.685-4.734 6.431-4.734 11.236 0 5.089 1.46 8.975 4.381 11.661 2.921 2.732 7.326 4.099 13.215 4.099 4.382 0 8.693-.943 12.933-2.827 4.24-1.885 8.009-4.923 11.307-9.116v-37.032c0-5.418-.848-9.587-2.544-12.508-1.696-2.921-4.146-4.947-7.35-6.078-3.25-1.131-7.184-1.696-11.801-1.696-2.969 0-6.29.283-9.965.848-3.675.518-7.42 1.461-11.236 2.827v-4.806c3.015-1.13 6.431-2.002 10.247-2.614 3.816-.613 7.467-.919 10.954-.919 5.606 0 10.388.754 14.346 2.261 3.957 1.508 6.972 4.076 9.045 7.703 2.073 3.628 3.11 8.599 3.11 14.912v52.578h-4.24l-.424-9.187h-.566c-2.638 3.204-6.077 5.724-10.318 7.562-4.24 1.837-8.786 2.756-13.639 2.756ZM329.31 808.585c-7.679 0-13.639-1.79-17.879-5.371-4.287-3.533-6.431-8.433-6.431-14.699 0-6.219 2.144-11.072 6.431-14.558 4.287-3.44 11.331-5.748 21.13-6.926l26.714-3.251-.283 4.664-26.572 3.251c-8.056.99-13.757 2.803-17.102 5.442-3.392 2.638-5.088 6.337-5.088 11.095 0 4.853 1.554 8.669 4.664 11.449 3.062 2.826 7.868 4.24 14.416 4.24 5.042 0 9.894-.99 14.559-2.968 4.617-1.979 8.763-4.947 12.437-8.905v-36.607c0-5.559-.918-9.847-2.756-12.862-1.884-2.968-4.57-5.041-8.056-6.219-3.534-1.131-7.797-1.696-12.791-1.696-3.298 0-6.95.283-10.954.848-4.052.565-8.174 1.602-12.367 3.11v-4.806c3.345-1.272 7.09-2.238 11.236-2.897 4.099-.613 8.08-.919 11.943-.919 5.984 0 11.119.754 15.406 2.261 4.241 1.555 7.491 4.17 9.753 7.845 2.261 3.675 3.392 8.739 3.392 15.194v52.154h-4.24l-.424-9.47h-.566c-2.873 3.11-6.69 5.654-11.448 7.633-4.759 1.979-9.8 2.968-15.124 2.968ZM535.124 580.585c-7.611 0-13.541-1.891-17.79-5.673-4.249-3.829-6.374-8.965-6.374-15.409 0-6.771 2.311-12.047 6.934-15.829 4.669-3.782 12.164-6.117 22.483-7.004l20.241-2.101 1.261 8.755-20.382 2.101c-5.79.607-9.922 1.961-12.397 4.062-2.521 2.101-3.782 4.996-3.782 8.685 0 3.829 1.144 6.794 3.432 8.895 2.335 2.055 5.79 3.082 10.366 3.082 3.175 0 6.35-.63 9.526-1.891 3.175-1.308 6.046-3.385 8.615-6.234v-31.868c0-4.389-.724-7.821-2.172-10.296-1.401-2.428-3.572-4.132-6.513-5.113-2.895-1.027-6.584-1.541-11.067-1.541-2.988 0-6.373.28-10.156.841a62.988 62.988 0 0 0-11.136 2.591v-11.206c3.502-1.167 7.354-2.031 11.557-2.592 4.202-.56 8.148-.84 11.836-.84 7.098 0 12.981.887 17.651 2.661 4.716 1.775 8.218 4.786 10.506 9.036 2.334 4.202 3.502 9.945 3.502 17.229v48.398h-11.907l-1.051-8.265h-.84c-2.522 3.082-5.744 5.44-9.666 7.075-3.922 1.634-8.148 2.451-12.677 2.451ZM534.335 808.585c-8.545 0-15.082-1.938-19.611-5.813-4.483-3.876-6.724-8.989-6.724-15.339 0-6.677 2.475-11.907 7.424-15.689 4.996-3.736 13.051-6.094 24.164-7.074l23.043-2.312.911 8.966-22.833 2.311c-6.397.7-10.927 2.078-13.588 4.132-2.615 2.008-3.922 4.833-3.922 8.475 0 3.596 1.214 6.467 3.642 8.615 2.475 2.101 6.28 3.152 11.416 3.152 3.736 0 7.378-.654 10.927-1.961 3.548-1.354 6.747-3.409 9.595-6.164v-30.958c0-4.529-.794-8.077-2.381-10.646-1.588-2.521-3.969-4.295-7.144-5.323-3.222-1.027-7.285-1.541-12.187-1.541-3.269 0-6.981.281-11.137.841a65.714 65.714 0 0 0-12.257 2.872v-11.417c3.876-1.261 8.078-2.195 12.607-2.802 4.576-.607 8.872-.91 12.888-.91 7.658 0 14.055.91 19.191 2.731 5.089 1.821 8.895 4.927 11.416 9.316 2.569 4.342 3.853 10.296 3.853 17.86v47.417H560.95l-1.05-8.265h-.841c-2.801 2.989-6.397 5.324-10.786 7.005-4.389 1.68-9.035 2.521-13.938 2.521ZM735.642 808.585c-9.927 0-17.349-2.229-22.266-6.687-4.917-4.411-7.376-9.857-7.376-16.337 0-7.399 3.056-13.212 9.168-17.44 6.066-4.228 15.74-6.641 29.022-7.239l16.957-.827 3.034 15.993-16.82.827c-3.631.184-6.159.804-7.583 1.861-1.471 1.057-2.206 2.459-2.206 4.205 0 1.563.712 2.85 2.137 3.861 1.379 1.011 3.516 1.516 6.411 1.516 1.516 0 3.148-.138 4.894-.413a17.369 17.369 0 0 0 4.894-1.517v-21.645c0-2.941-.551-5.308-1.654-7.1-1.103-1.747-3.01-3.034-5.722-3.861-2.711-.781-6.456-1.172-11.236-1.172-3.217 0-6.985.253-11.305.759-4.366.551-8.41 1.355-12.132 2.412v-22.197c4.687-1.24 9.673-2.159 14.958-2.757 5.239-.551 9.996-.827 14.27-.827 10.478 0 18.957 1.149 25.436 3.447 6.48 2.343 11.214 6.25 14.201 11.718 2.987 5.469 4.481 12.914 4.481 22.335v39.568h-26.471l-2.068-6.204h-1.379c-2.665 2.758-5.859 4.734-9.582 5.929-3.768 1.195-7.789 1.792-12.063 1.792ZM737.149 580.585c-8.394 0-14.85-2.098-19.37-6.295-4.519-4.243-6.779-9.662-6.779-16.257 0-7.286 2.675-13.005 8.025-17.156 5.395-4.15 14.066-6.571 26.01-7.263l15.219-.969 2.905 14.182-15.288 1.037c-3.735.231-6.387 1.015-7.955 2.352-1.614 1.292-2.421 3.09-2.421 5.396 0 2.121.738 3.805 2.213 5.05 1.476 1.199 3.644 1.799 6.503 1.799 1.614 0 3.298-.231 5.05-.692a14.614 14.614 0 0 0 4.912-2.352v-24.973c0-3.09-.531-5.557-1.591-7.402-1.061-1.799-2.837-3.09-5.327-3.874-2.49-.83-5.88-1.245-10.169-1.245-2.998 0-6.434.254-10.308.761-3.873.507-7.54 1.268-10.999 2.283v-19.716c4.059-1.107 8.463-1.937 13.213-2.49 4.704-.507 9.062-.761 13.075-.761 8.993 0 16.325 1.061 21.998 3.182 5.626 2.168 9.777 5.742 12.452 10.722 2.628 5.027 3.943 11.83 3.943 20.408v42.82h-22.137l-1.868-7.056h-1.176c-2.305 2.998-5.211 5.165-8.716 6.503-3.505 1.337-7.31 2.006-11.414 2.006ZM535.662 356.585c-6.117 0-11.09-1.821-14.919-5.463-3.829-3.689-5.743-8.849-5.743-15.479 0-6.911 2.055-12.28 6.164-16.109 4.109-3.876 10.646-6.211 19.611-7.004l15.549-1.611 1.821 8.475-16.18 1.611c-4.762.42-8.288 1.751-10.576 3.992-2.288 2.194-3.432 5.253-3.432 9.175 0 4.156 1.028 7.214 3.082 9.175 2.055 2.008 4.903 3.012 8.545 3.012 2.335 0 4.786-.584 7.354-1.751 2.522-1.167 4.786-3.315 6.794-6.444v-33.409c0-4.109-.583-7.307-1.751-9.595-1.167-2.288-2.965-3.923-5.393-4.903-2.381-.934-5.44-1.401-9.175-1.401-2.522 0-5.347.257-8.475.771a55.09 55.09 0 0 0-9.315 2.241v-10.926c2.848-.934 6.093-1.658 9.735-2.172 3.596-.513 6.981-.77 10.156-.77 6.024 0 11.043.84 15.059 2.521 4.015 1.728 7.004 4.576 8.965 8.545 2.008 4.016 3.012 9.432 3.012 16.25v50.008h-10.787l-1.05-8.265h-.771c-2.007 3.269-4.599 5.674-7.774 7.215-3.175 1.541-6.677 2.311-10.506 2.311ZM738.514 356.585c-6.364 0-11.529-2.029-15.496-6.088-4.012-4.012-6.018-9.408-6.018-16.187 0-7.425 2.283-13.213 6.849-17.363 4.519-4.197 11.99-6.641 22.413-7.333l10.376-.761 3.252 13.489-10.723.761c-2.905.231-5.096 1.061-6.572 2.491-1.521 1.429-2.282 3.412-2.282 5.949 0 2.49.645 4.335 1.937 5.534 1.245 1.245 2.882 1.868 4.911 1.868 1.107 0 2.26-.208 3.459-.623 1.199-.461 2.329-1.222 3.39-2.283v-27.601c0-2.813-.415-5.05-1.245-6.71-.784-1.661-2.168-2.837-4.151-3.528-1.983-.738-4.681-1.107-8.094-1.107-2.675 0-5.58.207-8.716.622a72.97 72.97 0 0 0-9.131 1.937v-19.023c3.366-.831 7.056-1.476 11.068-1.937 4.058-.462 7.886-.692 11.483-.692 7.425 0 13.513.991 18.263 2.974 4.704 1.984 8.186 5.281 10.446 9.893 2.213 4.612 3.32 10.838 3.32 18.678v45.587h-19.439l-1.729-7.817h-1.038c-1.66 3.321-3.92 5.696-6.779 7.125-2.905 1.43-6.157 2.145-9.754 2.145Z" fill="#3C4043"/></svg>