<svg width="1920" height="1080" fill="none" xmlns="http://www.w3.org/2000/svg"><g clip-path="url(#a)"><path d="M195.344 495.048c-19.872 0-38.88-3.456-57.024-10.368-17.856-7.2-33.84-17.136-47.952-29.808C76.544 442.2 65.6 427.368 57.536 410.376c-8.064-17.28-12.096-35.856-12.096-55.728 0-21.312 4.176-41.184 12.528-59.616 8.352-18.432 19.872-34.56 34.56-48.384 14.688-13.824 31.536-24.624 50.544-32.4 19.296-7.776 39.744-11.664 61.344-11.664 4.896 0 11.52.576 19.872 1.728 8.64.864 17.424 2.016 26.352 3.456 9.216 1.44 17.424 3.024 24.624 4.752 7.488 1.44 12.672 2.88 15.552 4.32 1.44.576 2.304 1.296 2.592 2.16.576.576 1.008 1.584 1.296 3.024a742.61 742.61 0 0 1 3.024 25.056c.864 8.064 1.296 14.976 1.296 20.736 0 2.016-.72 4.032-2.16 6.048-1.152 1.728-2.592 2.592-4.32 2.592-2.88 0-5.04-1.296-6.48-3.888-1.44-2.592-2.592-5.184-3.456-7.776-1.728-4.608-3.6-8.496-5.616-11.664-1.728-3.456-4.32-7.2-7.776-11.232-1.728-2.304-5.472-5.184-11.232-8.64-5.472-3.744-12.96-7.056-22.464-9.936-9.504-2.88-21.168-4.32-34.992-4.32-16.704 0-31.968 3.6-45.792 10.8-13.824 6.912-25.776 16.56-35.856 28.944-9.792 12.096-17.424 25.92-22.896 41.472-5.184 15.552-7.776 31.824-7.776 48.816 0 20.448 3.168 38.736 9.504 54.864 6.336 16.128 14.832 29.808 25.488 41.04 10.656 11.232 22.752 19.728 36.288 25.488 13.536 5.76 27.504 8.64 41.904 8.64 16.704 0 28.944-2.016 36.72-6.048 8.064-4.032 13.392-7.344 15.984-9.936 3.168-3.168 6.048-7.632 8.64-13.392 2.88-5.76 4.32-12.384 4.32-19.872v-8.208c.288-2.88.432-5.76.432-8.64.288-2.88.432-5.616.432-8.208 0-3.168-.144-5.76-.432-7.776-.288-2.304-.864-4.032-1.728-5.184-2.304-3.168-6.336-5.76-12.096-7.776s-11.52-3.456-17.28-4.32c-5.76-.864-10.08-1.296-12.96-1.296-1.152 0-2.88-.72-5.184-2.16-2.304-1.44-3.456-3.168-3.456-5.184 0-2.304 1.152-4.032 3.456-5.184 2.304-1.44 4.032-2.16 5.184-2.16 7.2 0 13.392.144 18.576.432 5.184.288 10.512.576 15.984.864 5.472.288 12.096.432 19.872.432 7.488 0 13.824-.288 19.008-.864 5.184-.576 11.664-.864 19.44-.864 1.152 0 2.88.432 5.184 1.296 2.592.864 3.888 2.736 3.888 5.616 0 2.016-1.296 3.744-3.888 5.184-2.304 1.44-4.032 2.304-5.184 2.592-6.336 1.728-10.8 4.32-13.392 7.776-2.304 3.168-3.888 7.632-4.752 13.392-.864 6.336-1.44 11.952-1.728 16.848a265.368 265.368 0 0 0-.432 15.552v11.664c0 1.44.288 2.592.864 3.456.576.864 1.152 2.016 1.728 3.456.864 1.44 2.016 2.736 3.456 3.888 1.44 1.152 2.16 2.304 2.16 3.456 0 1.152-.288 2.736-.864 4.752-.288 1.728-2.016 2.88-5.184 3.456-2.016.288-6.048 2.016-12.096 5.184-5.76 2.88-13.104 6.192-22.032 9.936-8.928 3.744-19.152 6.912-30.672 9.504-11.52 2.88-24.192 4.32-38.016 4.32Zm195.919 0c-5.184 0-10.512-2.016-15.984-6.048-5.184-4.032-9.648-8.928-13.392-14.688-3.456-5.76-5.184-11.232-5.184-16.416 0-9.216 2.448-16.416 7.344-21.6 4.896-5.184 12.672-9.936 23.328-14.256l44.064-18.144c5.76-2.304 9.072-4.32 9.936-6.048 1.152-1.728 1.872-5.472 2.16-11.232l.864-27.648c.288-7.488-1.872-13.968-6.48-19.44-4.32-5.472-10.656-8.208-19.008-8.208-4.32 0-8.64.72-12.96 2.16-4.32 1.44-7.92 3.312-10.8 5.616-1.728 1.152-2.88 2.88-3.456 5.184-.576 2.304-.864 4.752-.864 7.344v3.888c.288 1.44.432 2.736.432 3.888 0 1.44-1.872 3.456-5.616 6.048-3.456 2.304-7.488 4.464-12.096 6.48-4.32 1.728-7.92 2.592-10.8 2.592-1.44 0-2.592-.288-3.456-.864-.864-.864-1.296-1.872-1.296-3.024 0-4.608 1.44-9.504 4.32-14.688 3.168-5.472 7.488-10.512 12.96-15.12a130.953 130.953 0 0 1 21.6-15.984c7.776-4.608 15.408-8.208 22.896-10.8 7.488-2.592 14.112-3.888 19.872-3.888 10.368 0 18.864 3.744 25.488 11.232 6.912 7.2 10.224 16.272 9.936 27.216l-2.16 103.68c-.288 6.048 1.008 10.944 3.888 14.688 3.168 3.744 7.056 5.616 11.664 5.616 7.2 0 12.528-1.584 15.984-4.752 1.44-1.44 2.592-2.16 3.456-2.16 1.44 0 2.592.432 3.456 1.296.864.864 1.296 2.016 1.296 3.456 0 3.168-1.584 6.336-4.752 9.504-4.608 4.608-9.648 8.208-15.12 10.8-5.184 2.88-10.08 4.32-14.688 4.32-13.248 0-23.76-7.488-31.536-22.464h-1.296c-9.504 7.776-18.576 13.392-27.216 16.848-8.64 3.744-17.568 5.616-26.784 5.616Zm20.304-20.736c5.76 0 10.656-.864 14.688-2.592a41.274 41.274 0 0 0 10.8-7.776c1.44-1.44 2.592-3.312 3.456-5.616 1.152-2.592 1.872-6.624 2.16-12.096l.864-21.168c.288-3.168.144-5.472-.432-6.912-.576-1.44-1.728-2.16-3.456-2.16-.576 0-1.584.144-3.024.432-1.44.288-3.312.864-5.616 1.728-15.264 5.472-25.92 11.232-31.968 17.28-5.76 5.76-8.64 11.088-8.64 15.984 0 7.488 2.16 13.248 6.48 17.28 4.608 3.744 9.504 5.616 14.688 5.616Zm122.867 15.984c-2.88 0-5.04-.432-6.48-1.296-1.44-.576-2.16-1.728-2.16-3.456 0-2.304.864-3.744 2.592-4.32 1.728-.864 4.176-1.728 7.344-2.592 5.472-1.44 9.504-3.456 12.096-6.048 2.88-2.88 4.32-6.336 4.32-10.368v-92.88c0-7.776-1.152-14.544-3.456-20.304-2.304-5.76-7.056-9.36-14.256-10.8-1.152-.288-2.16-1.008-3.024-2.16-.864-1.152-1.296-2.304-1.296-3.456 0-2.88 1.296-4.608 3.888-5.184 7.488-2.304 15.264-5.616 23.328-9.936 8.352-4.608 14.832-8.352 19.44-11.232 1.728-1.152 3.024-1.872 3.888-2.16 1.152-.576 2.016-.864 2.592-.864 1.44 0 2.16 1.008 2.16 3.024 0 .864-.144 3.024-.432 6.48 0 3.456-.144 7.488-.432 12.096 0 4.608-.144 9.216-.432 13.824 0 .576.288.864.864.864 4.608-5.76 9.648-10.8 15.12-15.12 5.76-4.32 11.52-7.776 17.28-10.368 6.048-2.592 11.808-3.888 17.28-3.888 6.048 0 10.944 1.296 14.688 3.888 4.032 2.592 6.048 5.904 6.048 9.936 0 2.88-.864 6.048-2.592 9.504-1.44 3.456-3.456 6.48-6.048 9.072-2.592 2.592-5.328 3.888-8.208 3.888-1.728 0-3.6-.288-5.616-.864a122.288 122.288 0 0 1-6.48-3.024l-6.912-2.592c-2.304-.864-4.608-1.296-6.912-1.296-6.912 0-13.68 2.448-20.304 7.344-6.336 4.896-9.504 14.544-9.504 28.944v87.264c0 3.744 2.016 6.912 6.048 9.504 4.032 2.304 9.648 4.608 16.848 6.912 3.168.864 5.616 1.728 7.344 2.592 1.728.864 2.592 2.304 2.592 4.32 0 3.168-2.88 4.752-8.64 4.752-8.64 0-15.264-.432-19.872-1.296-4.32-.576-10.224-.864-17.712-.864-4.896 0-8.928.144-12.096.432-2.88.288-6.048.576-9.504.864-3.168.576-7.632.864-13.392.864Zm173.657 4.752c-5.184 0-10.512-2.016-15.984-6.048-5.184-4.032-9.648-8.928-13.392-14.688-3.456-5.76-5.184-11.232-5.184-16.416 0-9.216 2.448-16.416 7.344-21.6 4.896-5.184 12.672-9.936 23.328-14.256l44.064-18.144c5.76-2.304 9.072-4.32 9.936-6.048 1.152-1.728 1.872-5.472 2.16-11.232l.864-27.648c.288-7.488-1.872-13.968-6.48-19.44-4.32-5.472-10.656-8.208-19.008-8.208-4.32 0-8.64.72-12.96 2.16-4.32 1.44-7.92 3.312-10.8 5.616-1.728 1.152-2.88 2.88-3.456 5.184-.576 2.304-.864 4.752-.864 7.344v3.888c.288 1.44.432 2.736.432 3.888 0 1.44-1.872 3.456-5.616 6.048-3.456 2.304-7.488 4.464-12.096 6.48-4.32 1.728-7.92 2.592-10.8 2.592-1.44 0-2.592-.288-3.456-.864-.864-.864-1.296-1.872-1.296-3.024 0-4.608 1.44-9.504 4.32-14.688 3.168-5.472 7.488-10.512 12.96-15.12a130.953 130.953 0 0 1 21.6-15.984c7.776-4.608 15.408-8.208 22.896-10.8 7.488-2.592 14.112-3.888 19.872-3.888 10.368 0 18.864 3.744 25.488 11.232 6.912 7.2 10.224 16.272 9.936 27.216l-2.16 103.68c-.288 6.048 1.008 10.944 3.888 14.688 3.168 3.744 7.056 5.616 11.664 5.616 7.2 0 12.528-1.584 15.984-4.752 1.44-1.44 2.592-2.16 3.456-2.16 1.44 0 2.592.432 3.456 1.296.864.864 1.296 2.016 1.296 3.456 0 3.168-1.584 6.336-4.752 9.504-4.608 4.608-9.648 8.208-15.12 10.8-5.184 2.88-10.08 4.32-14.688 4.32-13.248 0-23.76-7.488-31.536-22.464h-1.296c-9.504 7.776-18.576 13.392-27.216 16.848-8.64 3.744-17.568 5.616-26.784 5.616Zm20.304-20.736c5.76 0 10.656-.864 14.688-2.592a41.274 41.274 0 0 0 10.8-7.776c1.44-1.44 2.592-3.312 3.456-5.616 1.152-2.592 1.872-6.624 2.16-12.096l.864-21.168c.288-3.168.144-5.472-.432-6.912-.576-1.44-1.728-2.16-3.456-2.16-.576 0-1.584.144-3.024.432-1.44.288-3.312.864-5.616 1.728-15.264 5.472-25.92 11.232-31.968 17.28-5.76 5.76-8.64 11.088-8.64 15.984 0 7.488 2.16 13.248 6.48 17.28 4.608 3.744 9.504 5.616 14.688 5.616Zm120.707 15.984c-2.304 0-4.32-.288-6.048-.864-1.728-.576-2.592-1.872-2.592-3.888s.864-3.456 2.592-4.32c2.016-.864 4.464-1.728 7.344-2.592a210.066 210.066 0 0 0 12.096-4.752c4.32-2.016 6.48-5.904 6.48-11.664v-92.88c0-7.776-.864-14.544-2.592-20.304-1.728-6.048-6.336-9.648-13.824-10.8a6.409 6.409 0 0 1-3.024-1.728c-.576-.864-.864-2.16-.864-3.888 0-2.88 1.152-4.608 3.456-5.184 7.776-2.016 13.968-4.032 18.576-6.048 4.608-2.304 8.64-4.752 12.096-7.344 3.744-2.88 8.208-5.904 13.392-9.072l1.728-.864c.576-.576 1.296-.864 2.16-.864 1.728 0 2.592 1.008 2.592 3.024s-.432 6.192-1.296 12.528c-.576 6.048-.864 11.088-.864 15.12 0 2.88.288 4.608.864 5.184h.864c6.624-6.336 15.264-12.672 25.92-19.008 10.944-6.624 24.768-9.936 41.472-9.936 10.368 0 19.008 2.304 25.92 6.912 6.91 4.32 12.67 11.952 17.28 22.896h1.3c9.21-8.352 19.72-15.408 31.53-21.168 11.81-5.76 24.77-8.64 38.88-8.64 9.51 0 17.43 2.88 23.76 8.64 6.34 5.76 11.09 13.248 14.26 22.464 3.45 9.216 5.18 18.864 5.18 28.944v92.016c0 5.76 2.02 9.648 6.05 11.664a160.92 160.92 0 0 0 12.53 4.752c2.88.864 5.18 1.728 6.91 2.592 2.02.864 3.02 2.304 3.02 4.32 0 1.728-.72 2.88-2.16 3.456-1.15.864-3.31 1.296-6.48 1.296-5.76 0-10.22-.288-13.39-.864-3.17-.288-6.19-.576-9.07-.864-2.59-.288-6.48-.432-11.66-.432-4.9 0-8.93.144-12.1.432-3.17.288-6.48.576-9.94.864-3.45.576-8.06.864-13.82.864-2.59 0-4.75-.432-6.48-1.296-1.44-.576-2.16-1.728-2.16-3.456 0-2.304.86-3.888 2.59-4.752 2.02-.864 4.47-1.584 7.35-2.16 4.6-1.152 8.78-2.736 12.52-4.752 4.04-2.016 6.05-5.904 6.05-11.664v-90.72c0-6.912-1.58-13.392-4.75-19.44-3.17-6.336-7.34-11.52-12.53-15.552-5.18-4.032-10.94-6.048-17.28-6.048-7.2 0-13.97.864-20.3 2.592-6.05 1.728-11.81 4.752-17.28 9.072-8.07 6.336-12.1 16.704-12.1 31.104v88.992c0 5.76 2.16 9.648 6.48 11.664s8.64 3.6 12.96 4.752c2.88.576 5.19 1.44 6.91 2.592 2.02.864 3.03 2.304 3.03 4.32 0 1.728-.72 2.88-2.16 3.456-1.44.864-3.6 1.296-6.48 1.296-5.76 0-10.37-.288-13.83-.864l-9.5-.864c-2.88-.288-6.91-.432-12.096-.432-4.896 0-8.928.144-12.096.432-3.168.288-6.48.576-9.936.864-3.456.576-8.064.864-13.824.864-2.304 0-4.32-.432-6.048-1.296-1.728-.576-2.592-1.728-2.592-3.456 0-2.304 1.008-3.744 3.024-4.32l6.912-2.592c4.32-1.44 8.496-3.024 12.528-4.752 4.32-2.016 6.48-5.904 6.48-11.664v-90.72c0-6.912-1.584-13.392-4.752-19.44-3.168-6.336-7.344-11.52-12.528-15.552s-10.944-6.048-17.28-6.048c-7.2 0-13.968.864-20.304 2.592-6.048 1.728-11.808 4.752-17.28 9.072-7.776 5.76-11.664 16.128-11.664 31.104v88.992c0 5.76 2.016 9.648 6.048 11.664a161.178 161.178 0 0 0 12.528 4.752c2.304.864 4.464 1.728 6.48 2.592 2.304.576 3.456 2.016 3.456 4.32 0 1.728-.864 2.88-2.592 3.456-1.44.864-3.456 1.296-6.048 1.296-5.76 0-10.368-.288-13.824-.864-3.168-.288-6.192-.576-9.072-.864-2.88-.288-6.912-.432-12.096-.432-4.896 0-8.928.144-12.096.432-2.88.288-6.048.576-9.504.864-3.168.576-7.632.864-13.392.864Zm418.318 4.752c-16.13 0-30.68-3.744-43.64-11.232-12.96-7.488-23.32-17.712-31.1-30.672-7.49-13.248-11.23-28.224-11.23-44.928 0-12.096 2.3-23.904 6.91-35.424 4.9-11.52 11.66-22.032 20.3-31.536 8.64-9.504 18.72-16.992 30.24-22.464 11.52-5.76 23.91-8.64 37.16-8.64 16.7 0 31.68 4.032 44.92 12.096 13.54 8.064 24.2 18.72 31.97 31.968 8.07 12.96 12.1 27.216 12.1 42.768 0 16.704-3.75 32.544-11.23 47.52-7.2 14.976-18 27.216-32.4 36.72-14.4 9.216-32.4 13.824-54 13.824Zm9.07-12.96c9.79 0 18.57-1.872 26.35-5.616 7.78-3.744 13.82-9.792 18.14-18.144 3.46-6.624 5.76-14.688 6.92-24.192 1.15-9.504 1.72-18.432 1.72-26.784 0-13.824-2.59-27.072-7.77-39.744-4.9-12.96-11.95-23.472-21.17-31.536-8.93-8.352-19.58-12.528-31.97-12.528-7.77 0-14.83 1.296-21.17 3.888-6.04 2.304-11.66 6.768-16.84 13.392-5.76 7.2-9.51 15.984-11.24 26.352-1.72 10.368-2.59 20.736-2.59 31.104 0 14.112 2.59 27.648 7.78 40.608 5.18 12.672 12.24 23.04 21.17 31.104 8.92 8.064 19.15 12.096 30.67 12.096Zm122.74 8.208c-2.6 0-4.76-.432-6.48-1.296-1.44-.576-2.16-1.728-2.16-3.456 0-2.304.86-3.744 2.59-4.32 1.73-.864 4.17-1.728 7.34-2.592a65.902 65.902 0 0 0 12.53-4.752c4.03-2.016 6.05-5.904 6.05-11.664v-92.88c0-7.776-.87-14.4-2.59-19.872-1.44-5.472-5.91-9.216-13.4-11.232a27.964 27.964 0 0 1-3.02-1.728c-.86-.864-1.3-2.16-1.3-3.888 0-3.168 1.3-4.896 3.89-5.184 10.08-2.592 18.29-5.76 24.63-9.504 6.33-3.744 12.52-7.92 18.57-12.528.87-.576 1.59-1.008 2.16-1.296.87-.576 1.73-.864 2.59-.864.58 0 1.01.288 1.3.864.58.576.86 1.296.86 2.16 0 2.016-.43 6.192-1.29 12.528-.58 6.048-.87 11.088-.87 15.12v3.456c.29.864.58 1.44.87 1.728 10.08-9.504 20.73-16.704 31.97-21.6 11.52-4.896 24.04-7.344 37.58-7.344 14.11 0 25.78 5.76 34.99 17.28 9.22 11.52 13.83 25.776 13.83 42.768v92.016c0 5.76 2.01 9.648 6.04 11.664 4.04 1.728 8.21 3.312 12.53 4.752a44.01 44.01 0 0 1 6.48 3.024c2.31.864 3.46 2.448 3.46 4.752 0 1.728-1.01 2.736-3.03 3.024-2.01.576-3.88.864-5.61.864-5.76 0-10.23-.288-13.39-.864-3.17-.288-6.2-.576-9.08-.864-2.88-.288-6.91-.432-12.09-.432-4.9 0-8.93.144-12.1.432-3.17.288-6.48.576-9.93.864-3.17.576-7.64.864-13.4.864-1.44 0-3.31-.288-5.61-.864-2.02-.288-3.03-1.296-3.03-3.024 0-2.304 1.01-3.888 3.03-4.752 2.3-1.152 4.61-2.16 6.91-3.024 4.32-1.44 8.5-3.024 12.53-4.752 4.03-2.016 6.05-5.904 6.05-11.664v-90.72c0-12.672-3.6-22.464-10.8-29.376-6.92-7.2-16.28-10.944-28.08-11.232-10.37 0-19.44 1.728-27.22 5.184-7.78 3.168-14.69 7.2-20.74 12.096-1.15 1.152-2.01 2.736-2.59 4.752-.57 1.728-.86 3.456-.86 5.184v104.112c0 5.76 2.01 9.648 6.05 11.664a65.81 65.81 0 0 0 12.52 4.752c6.63 1.728 9.94 4.032 9.94 6.912 0 1.728-.72 2.88-2.16 3.456-1.44.864-3.6 1.296-6.48 1.296-5.76 0-10.37-.288-13.82-.864-3.17-.288-6.2-.576-9.08-.864-2.88-.288-6.91-.432-12.09-.432-4.9 0-8.93.144-12.1.432-2.88.288-6.05.576-9.5.864-3.17.576-7.63.864-13.39.864Zm290.87 4.752c-14.11 0-25.2-4.32-33.26-12.96-7.78-8.64-11.67-21.456-11.67-38.448V343.416c0-2.304-.86-3.888-2.59-4.752-1.73-1.152-5.47-1.728-11.23-1.728h-2.59c-1.44 0-2.74-.864-3.89-2.592-.86-2.016-1.3-4.032-1.3-6.048 0-.576.44-1.44 1.3-2.592.86-1.152 1.44-1.872 1.73-2.16 5.76-4.032 10.94-8.064 15.55-12.096 4.9-4.032 9.22-7.92 12.96-11.664 4.03-4.032 7.34-7.632 9.94-10.8 1.44-1.44 2.59-2.592 3.45-3.456 1.15-1.152 2.45-1.728 3.89-1.728s2.74.288 3.89.864c1.44.576 2.01 1.872 1.73 3.888l-2.16 19.44c-.29 3.168.43 5.328 2.16 6.48 1.72 1.152 4.46 1.728 8.2 1.728h49.25c1.15 0 2.16 1.008 3.03 3.024.86 1.728 1.29 3.888 1.29 6.48 0 2.592-.43 5.184-1.29 7.776-.87 2.304-1.88 3.456-3.03 3.456h-42.77c-7.2 0-11.95.576-14.25 1.728-2.02 1.152-3.03 4.608-3.03 10.368v85.104c0 11.52 2.45 20.592 7.35 27.216 4.89 6.624 11.95 9.936 21.17 9.936 8.35 0 14.83-.576 19.44-1.728 4.6-1.44 8.78-3.456 12.52-6.048.58-.576 1.16-.864 1.73-.864 1.15 0 1.87.72 2.16 2.16.58 1.152.87 2.448.87 3.888s-2.45 4.32-7.35 8.64c-4.61 4.32-10.8 8.352-18.57 12.096-7.49 3.744-15.7 5.616-24.63 5.616Zm116.4 0c-8.92 0-17.28-1.44-25.05-4.32-7.78-2.592-14.4-6.336-19.87-11.232-1.44-3.168-2.6-8.496-3.46-15.984-.58-7.488-1.01-13.68-1.3-18.576 0-2.592 1.88-3.888 5.62-3.888 1.15 0 2.16.288 3.02.864 1.16.288 1.88 1.008 2.16 2.16 3.75 14.112 9.65 24.192 17.72 30.24 8.35 6.048 16.7 9.072 25.05 9.072 8.35 0 15.41-2.736 21.17-8.208 6.05-5.76 9.07-12.816 9.07-21.168 0-7.776-2.59-14.4-7.77-19.872-5.19-5.76-14.26-12.672-27.22-20.736-9.79-6.048-17.71-11.808-23.76-17.28-6.05-5.472-10.51-11.088-13.39-16.848-2.59-5.76-3.89-12.24-3.89-19.44 0-9.216 2.16-17.568 6.48-25.056 4.32-7.488 10.8-13.392 19.44-17.712 8.64-4.608 19.44-6.912 32.4-6.912 8.64 0 15.84.864 21.6 2.592 5.76 1.728 10.08 3.6 12.96 5.616 2.3 3.168 4.18 8.208 5.62 15.12 1.72 6.624 2.59 12.96 2.59 19.008 0 2.016-1.44 3.024-4.32 3.024-1.73 0-3.46-.288-5.19-.864-1.44-.864-2.44-1.872-3.02-3.024-3.74-9.504-8.5-16.704-14.26-21.6-5.47-5.184-12.38-7.776-20.73-7.776-7.2 0-13.68 2.16-19.44 6.48-5.47 4.32-8.21 10.656-8.21 19.008 0 6.624 2.02 12.528 6.05 17.712 4.32 5.184 12.24 11.088 23.76 17.712 16.7 9.504 29.09 18.432 37.15 26.784 8.35 8.064 12.53 18.864 12.53 32.4 0 15.552-5.91 28.224-17.71 38.016-11.81 9.792-27.08 14.688-45.8 14.688Zm-1612.452 372c-18.432 0-35.712-2.304-51.84-6.912-16.128-4.896-30.384-12.096-42.768-21.6-12.096-9.504-21.6-21.456-28.512-35.856-6.624-14.688-9.936-31.824-9.936-51.408 0-25.056 4.608-48.24 13.824-69.552 9.504-21.6 22.752-40.32 39.744-56.16 16.992-16.128 36.864-28.656 59.616-37.584 22.752-8.928 47.376-13.392 73.872-13.392 9.216 0 17.136.864 23.76 2.592 6.912 1.728 12.96 3.6 18.144 5.616a889.534 889.534 0 0 1 11.664 4.752c3.744 1.152 7.344 1.728 10.8 1.728 1.44 0 3.024-.432 4.752-1.296l5.184-2.592a30.223 30.223 0 0 1 4.32-2.16c1.44-.576 2.88-.864 4.32-.864 2.592 0 3.888.864 3.888 2.592.288 1.728 0 3.168-.864 4.32-3.168 4.32-6.768 10.08-10.8 17.28a272.214 272.214 0 0 0-11.232 22.464c-3.168 7.776-5.472 14.976-6.912 21.6-.576 2.88-1.728 5.328-3.456 7.344-1.44 1.728-2.88 2.592-4.32 2.592-5.76 0-7.92-4.176-6.48-12.528 1.152-6.624 1.296-13.392.432-20.304-.576-6.912-3.168-13.392-7.776-19.44-3.744-4.896-9.216-9.648-16.416-14.256-6.912-4.608-15.984-6.912-27.216-6.912-19.872 0-38.448 5.04-55.728 15.12-16.992 9.792-31.968 23.04-44.928 39.744-12.672 16.704-22.608 35.568-29.808 56.592-6.912 20.736-10.368 42.048-10.368 63.936 0 14.4 2.88 27.36 8.64 38.88 5.76 11.232 13.248 20.88 22.464 28.944 9.504 8.064 19.728 14.256 30.672 18.576 11.232 4.032 22.32 6.048 33.264 6.048 13.248 0 23.76-3.6 31.536-10.8 7.776-7.488 12.96-16.272 15.552-26.352l12.096-47.088c1.44-5.472 1.44-9.504 0-12.096-1.152-2.592-3.744-4.464-7.776-5.616-3.744-1.152-7.344-2.016-10.8-2.592-3.456-.864-6.336-1.44-8.64-1.728a135.738 135.738 0 0 1-9.072-2.16c-2.88-.864-4.32-2.304-4.32-4.32 0-2.016 1.296-3.6 3.888-4.752 2.88-1.152 6.192-1.728 9.936-1.728 6.624 0 12.528.288 17.712.864 5.184.288 10.224.72 15.12 1.296 5.184.288 11.088.432 17.712.432 7.2 0 13.248-.432 18.144-1.296 5.184-.864 11.376-1.296 18.576-1.296 6.048 0 9.072 2.016 9.072 6.048 0 1.44-1.152 3.024-3.456 4.752-2.304 1.728-5.76 3.024-10.368 3.888-6.336 1.152-11.376 3.168-15.12 6.048-3.744 2.592-6.912 6.768-9.504 12.528-2.592 5.472-5.184 11.952-7.776 19.44-2.304 7.2-4.176 13.968-5.616 20.304-1.44 6.048-2.16 10.224-2.16 12.528 0 2.592.288 4.896.864 6.912.864 2.016 2.16 4.32 3.888 6.912-1.728 4.032-5.616 8.064-11.664 12.096-5.76 3.744-12.816 7.2-21.168 10.368a183.917 183.917 0 0 1-24.624 6.912c-8.352 1.728-15.696 2.592-22.032 2.592Zm147.97 0c-3.456 0-6.912-1.008-10.368-3.024-3.456-1.728-6.336-4.032-8.64-6.912-2.016-2.88-3.024-5.904-3.024-9.072 0-10.368 3.456-22.32 10.368-35.856 6.912-13.824 16.56-28.224 28.944-43.2 12.384-15.264 26.64-29.952 42.768-44.064 15.552-13.536 28.224-23.616 38.016-30.24 9.792-6.912 16.992-10.368 21.6-10.368 4.608 0 8.64 2.016 12.096 6.048 4.032 5.184 5.76 7.632 5.184 7.344-.288-.576-.288-.864 0-.864.576 0 1.008-.144 1.296-.432.576-.576 1.008-1.296 1.296-2.16 4.032-6.912 6.48-11.088 7.344-12.528.864-1.44.864-1.584 0-.432 1.728-2.88 3.456-4.32 5.184-4.32 2.592 0 5.184.432 7.776 1.296 2.592.864 4.608 2.016 6.048 3.456 1.728 1.44 2.592 2.88 2.592 4.32 0 1.44-1.008 5.04-3.024 10.8L459.09 825.144c-3.744 9.792-1.872 14.688 5.616 14.688 5.184 0 11.376-2.448 18.576-7.344 7.488-5.184 13.968-11.376 19.44-18.576.576-.576 1.152-1.008 1.728-1.296.864-.576 1.584-.864 2.16-.864 1.152 0 1.872.432 2.16 1.296.576.576.864 1.728.864 3.456 0 2.016-2.016 6.048-6.048 12.096-4.032 5.76-8.208 10.8-12.528 15.12-8.064 7.488-16.272 13.248-24.624 17.28-8.064 4.032-15.552 6.048-22.464 6.048-2.88 0-5.76-.864-8.64-2.592-2.88-1.728-5.328-3.888-7.344-6.48-1.728-2.592-2.592-5.184-2.592-7.776 0-3.168.864-6.48 2.592-9.936-1.152 2.592-1.296 2.592-.432 0 1.152-2.592 2.88-6.624 5.184-12.096a9372.673 9372.673 0 0 1 8.208-17.28c2.88-6.048 5.328-11.376 7.344-15.984 1.44-3.168 2.016-5.472 1.728-6.912 0-1.728-.864-1.584-2.592.432-17.568 19.584-32.688 35.136-45.36 46.656-12.384 11.52-23.328 19.728-32.832 24.624-9.504 4.896-18.576 7.344-27.216 7.344Zm24.192-27.216c6.336 0 15.696-5.184 28.08-15.552 12.672-10.656 26.928-25.344 42.768-44.064 10.944-12.672 19.584-24.336 25.92-34.992 6.336-10.656 9.504-18.576 9.504-23.76 0-2.304-1.872-5.04-5.616-8.208a22.714 22.714 0 0 0-5.616-3.456c-2.016-.864-3.744-1.296-5.184-1.296-5.184 0-12.384 2.592-21.6 7.776a128.516 128.516 0 0 0-24.624 18.576c-9.504 9.216-18.576 19.584-27.216 31.104s-15.696 22.608-21.168 33.264c-5.184 10.656-7.776 19.296-7.776 25.92 0 4.32 1.152 7.92 3.456 10.8 2.304 2.592 5.328 3.888 9.072 3.888Zm186.054 28.512c-1.44 0-3.024-.576-4.752-1.728-1.728-.864-3.168-2.16-4.32-3.888-1.152-1.44-1.728-3.024-1.728-4.752 0-3.456.864-7.776 2.592-12.96 2.016-5.472 4.464-12.24 7.344-20.304l39.744-103.68c1.44-3.744 2.016-7.2 1.728-10.368 0-3.168-1.44-4.752-4.32-4.752-4.032 0-8.064.576-12.096 1.728-3.744.864-6.624 1.872-8.64 3.024-1.728 1.152-3.456 1.44-5.184.864-1.44-.864-2.16-2.304-2.16-4.32 0-2.304 1.008-4.896 3.024-7.776 2.304-2.88 5.328-5.616 9.072-8.208 3.456-2.592 7.488-4.752 12.096-6.48a45.107 45.107 0 0 1 15.12-2.592c8.064 0 13.104 2.016 15.12 6.048 2.304 4.032 2.592 9.504.864 16.416-1.44 6.624-3.888 14.256-7.344 22.896l-19.44 48.816c-1.152 2.016-.864 3.312.864 3.888 2.016.576 3.456.144 4.32-1.296 11.52-19.872 23.04-37.152 34.56-51.84 11.808-14.976 22.752-26.496 32.832-34.56 10.08-8.352 18.432-12.528 25.056-12.528 7.488 0 12.672 2.16 15.552 6.48 3.168 4.32 4.752 9.36 4.752 15.12 0 5.184-1.008 10.512-3.024 15.984-1.728 5.472-4.32 10.08-7.776 13.824-3.168 3.456-6.768 5.184-10.8 5.184-2.304 0-4.032-1.296-5.184-3.888-1.152-2.88-1.728-6.624-1.728-11.232 0-4.32-.576-7.632-1.728-9.936-1.152-2.592-3.312-3.888-6.48-3.888-2.88 0-6.768 1.872-11.664 5.616-4.608 3.744-10.512 10.224-17.712 19.44-3.168 4.32-7.344 10.224-12.528 17.712-5.184 7.488-10.8 15.84-16.848 25.056a1160.607 1160.607 0 0 0-17.28 27.648c-5.76 9.216-10.8 17.712-15.12 25.488-7.776 13.824-13.392 23.904-16.848 30.24-3.168 6.336-6.48 9.504-9.936 9.504Zm139.91-1.296c-3.456 0-6.912-1.008-10.368-3.024-3.456-1.728-6.336-4.032-8.64-6.912-2.016-2.88-3.024-5.904-3.024-9.072 0-10.368 3.456-22.32 10.368-35.856 6.912-13.824 16.56-28.224 28.944-43.2 12.384-15.264 26.64-29.952 42.768-44.064 15.552-13.536 28.224-23.616 38.016-30.24 9.792-6.912 16.992-10.368 21.6-10.368 4.608 0 8.64 2.016 12.096 6.048 4.032 5.184 5.76 7.632 5.184 7.344-.288-.576-.288-.864 0-.864.576 0 1.008-.144 1.296-.432.576-.576 1.008-1.296 1.296-2.16 4.032-6.912 6.48-11.088 7.344-12.528.864-1.44.864-1.584 0-.432 1.728-2.88 3.456-4.32 5.184-4.32 2.592 0 5.184.432 7.776 1.296 2.592.864 4.608 2.016 6.048 3.456 1.728 1.44 2.592 2.88 2.592 4.32 0 1.44-1.008 5.04-3.024 10.8l-48.384 128.304c-3.744 9.792-1.872 14.688 5.616 14.688 5.184 0 11.376-2.448 18.576-7.344 7.488-5.184 13.968-11.376 19.44-18.576.576-.576 1.152-1.008 1.728-1.296.864-.576 1.584-.864 2.16-.864 1.152 0 1.872.432 2.16 1.296.576.576.864 1.728.864 3.456 0 2.016-2.016 6.048-6.048 12.096-4.032 5.76-8.208 10.8-12.528 15.12-8.064 7.488-16.272 13.248-24.624 17.28-8.064 4.032-15.552 6.048-22.464 6.048-2.88 0-5.76-.864-8.64-2.592-2.88-1.728-5.328-3.888-7.344-6.48-1.728-2.592-2.592-5.184-2.592-7.776 0-3.168.864-6.48 2.592-9.936-1.152 2.592-1.296 2.592-.432 0 1.152-2.592 2.88-6.624 5.184-12.096a9372.673 9372.673 0 0 1 8.208-17.28c2.88-6.048 5.328-11.376 7.344-15.984 1.44-3.168 2.016-5.472 1.728-6.912 0-1.728-.864-1.584-2.592.432-17.568 19.584-32.688 35.136-45.36 46.656-12.384 11.52-23.328 19.728-32.832 24.624-9.504 4.896-18.576 7.344-27.216 7.344Zm24.192-27.216c6.336 0 15.696-5.184 28.08-15.552 12.672-10.656 26.928-25.344 42.768-44.064 10.944-12.672 19.584-24.336 25.92-34.992 6.336-10.656 9.504-18.576 9.504-23.76 0-2.304-1.872-5.04-5.616-8.208a22.714 22.714 0 0 0-5.616-3.456c-2.016-.864-3.744-1.296-5.184-1.296-5.184 0-12.384 2.592-21.6 7.776a128.516 128.516 0 0 0-24.624 18.576c-9.504 9.216-18.576 19.584-27.216 31.104s-15.696 22.608-21.168 33.264c-5.184 10.656-7.776 19.296-7.776 25.92 0 4.32 1.152 7.92 3.456 10.8 2.304 2.592 5.328 3.888 9.072 3.888ZM908.9 868.344c-1.44 0-2.736-.72-3.888-2.16-1.152-1.44-2.16-3.168-3.024-5.184-.576-2.016-.864-3.888-.864-5.616 0-1.44.864-4.896 2.592-10.368 2.016-5.472 4.464-12.24 7.344-20.304L950.804 720.6c1.44-3.744 1.44-6.912 0-9.504-1.44-2.592-3.888-3.888-7.344-3.888-4.32 0-8.928 1.008-13.824 3.024-4.608 2.016-10.368 7.632-17.28 16.848-1.152 1.152-2.448 1.728-3.888 1.728-1.152-.288-2.016-1.44-2.592-3.456 0-1.728.288-3.888.864-6.48.576-2.88 1.44-5.76 2.592-8.64 1.44-2.88 2.736-5.04 3.888-6.48 4.896-6.048 10.8-11.088 17.712-15.12 6.912-4.032 15.264-6.192 25.056-6.48 4.032 0 7.92.72 11.664 2.16 4.032 1.152 6.912 3.456 8.64 6.912 2.016 3.456 1.872 8.208-.432 14.256l-24.624 63.936c-.864 2.016-.72 3.168.432 3.456 1.44.288 2.592-.288 3.456-1.728 12.384-19.008 24.192-35.136 35.424-48.384 11.522-13.248 22.462-23.328 32.832-30.24 10.66-6.912 20.59-10.368 29.81-10.368 5.47 0 10.37 1.584 14.69 4.752 4.6 3.168 7.63 7.92 9.07 14.256 1.73 6.048 1.01 13.68-2.16 22.896l-15.55 45.36c-.87 2.016-.72 3.168.43 3.456 1.44.288 2.59-.288 3.45-1.728 12.1-19.872 23.91-36.288 35.43-49.248 11.81-13.248 23.18-23.184 34.13-29.808 10.94-6.624 21.02-9.936 30.24-9.936 5.47 0 10.36 1.728 14.68 5.184 4.32 3.456 7.06 8.64 8.21 15.552 1.44 6.624.15 14.976-3.89 25.056l-37.15 95.904c-4.32 10.368-3.6 15.552 2.16 15.552 3.46 0 7.63-1.584 12.53-4.752 4.9-3.168 9.79-6.912 14.69-11.232 5.18-4.32 9.65-8.208 13.39-11.664 3.74-3.744 6.19-6.192 7.34-7.344.29-.288.44-.432.44-.432h.86c.86 0 1.58.432 2.16 1.296.86.576 1.3 1.44 1.3 2.592 0 2.304-.58 4.752-1.73 7.344-.87 2.304-2.88 5.04-6.05 8.208-9.5 10.656-20.16 20.592-31.97 29.808-11.81 9.216-24.48 13.824-38.01 13.824-2.31 0-4.76-1.008-7.35-3.024-2.3-1.728-4.17-4.176-5.61-7.344-1.16-3.168-1.16-6.336 0-9.504l50.11-129.168c2.3-5.76 2.16-10.08-.43-12.96-2.31-2.88-5.04-4.464-8.21-4.752-4.61-.288-10.8 2.16-18.58 7.344-7.77 4.896-16.41 13.248-25.92 25.056-4.32 5.472-10.37 13.68-18.14 24.624-7.49 10.944-15.27 22.752-23.33 35.424-7.78 12.384-14.54 23.904-20.3 34.56-4.9 9.216-9.51 16.848-13.83 22.896-4.32 6.048-8.21 10.512-11.66 13.392-3.46 3.168-6.34 4.752-8.64 4.752-1.44 0-2.74-.72-3.89-2.16-1.15-1.152-2.16-2.592-3.02-4.32a16.206 16.206 0 0 1-.87-5.184c0-1.44.87-5.04 2.59-10.8 2.02-6.048 4.47-13.104 7.35-21.168l40.17-108c2.6-6.624 2.31-11.088-.86-13.392-3.17-2.592-5.76-4.032-7.78-4.32-4.6-.576-10.8 1.872-18.57 7.344-7.78 5.184-16.42 13.68-25.922 25.488-3.456 4.032-7.776 9.792-12.96 17.28-5.184 7.488-10.8 15.84-16.848 25.056a1160.607 1160.607 0 0 0-17.28 27.648c-5.472 9.216-10.368 17.712-14.688 25.488-7.488 13.824-13.248 24.192-17.28 31.104-4.032 6.624-7.776 9.936-11.232 9.936Zm355.13-1.296c-6.91 0-13.39-2.304-19.44-6.912-6.05-4.608-10.94-10.656-14.69-18.144-3.45-7.488-5.18-15.408-5.18-23.76 0-13.536 2.59-28.08 7.78-43.632a184.622 184.622 0 0 1 22.46-44.496c9.5-14.112 20.45-25.632 32.83-34.56 12.67-8.928 26.21-13.392 40.61-13.392 14.4 0 25.49 4.896 33.26 14.688 8.07 9.792 12.1 21.888 12.1 36.288 0 12.96-2.59 27.216-7.78 42.768-5.18 15.264-12.67 29.808-22.46 43.632-9.5 13.824-21.02 25.2-34.56 34.128-13.25 8.928-28.22 13.392-44.93 13.392Zm6.91-12.96c6.92 0 13.83-3.024 20.74-9.072 7.2-6.048 13.97-13.968 20.3-23.76 6.63-9.792 12.39-20.592 17.28-32.4 5.19-11.808 9.22-23.616 12.1-35.424 3.17-11.808 4.75-22.608 4.75-32.4 0-7.488-1.29-13.68-3.89-18.576-2.3-4.896-7.2-7.344-14.68-7.344-6.63 0-13.54 2.736-20.74 8.208-6.91 5.472-13.68 12.816-20.3 22.032-6.34 9.216-12.1 19.584-17.28 31.104-5.19 11.232-9.36 23.04-12.53 35.424-2.88 12.096-4.32 23.904-4.32 35.424 0 9.504 1.58 16.416 4.75 20.736 3.46 4.032 8.06 6.048 13.82 6.048Zm137.76 13.824c-1.73 0-3.46-.72-5.18-2.16-1.44-1.152-2.74-2.736-3.89-4.752-1.15-1.728-2.02-3.744-2.59-6.048-.29-2.304 0-4.32.86-6.048l50.11-122.688c5.19-12.672 5.47-19.008.87-19.008-2.88 0-5.91.432-9.08 1.296-3.16.576-6.62 2.304-10.36 5.184-3.75 2.88-7.92 7.344-12.53 13.392-1.15 1.152-2.45 1.728-3.89 1.728-1.15-.288-2.02-1.44-2.59-3.456 0-1.728.43-3.888 1.29-6.48a73.131 73.131 0 0 1 3.89-8.208c1.44-2.88 2.74-5.184 3.89-6.912 4.32-6.624 10.08-11.808 17.28-15.552 7.49-3.744 16.13-5.76 25.92-6.048 3.17 0 6.05.864 8.64 2.592 2.59 1.44 4.46 3.6 5.62 6.48 1.44 2.88 1.44 6.048 0 9.504l-28.52 73.44c-.86 2.016-.72 3.168.44 3.456 1.44.288 2.59-.288 3.45-1.728 11.81-20.16 23.76-37.152 35.86-50.976 12.38-14.112 24.19-24.768 35.42-31.968 11.23-7.2 21.17-10.8 29.81-10.8 6.05 0 11.23 2.16 15.55 6.48 4.61 4.032 7.49 9.648 8.64 16.848 1.44 6.912.15 14.976-3.89 24.192l-39.74 94.176c-4.32 10.368-3.6 15.552 2.16 15.552 3.46 0 7.63-1.296 12.53-3.888 5.18-2.592 10.37-5.616 15.55-9.072 5.18-3.744 9.65-7.056 13.39-9.936 4.03-3.168 6.63-5.328 7.78-6.48.29-.288.43-.432.43-.432h.86c.87 0 1.59.432 2.16 1.296.87.576 1.3 1.44 1.3 2.592 0 2.304-.58 4.32-1.73 6.048-7.49 8.928-15.55 16.992-24.19 24.192-8.35 7.2-17.14 12.96-26.35 17.28-8.93 4.032-18 6.048-27.22 6.048-2.59 0-5.18-1.008-7.77-3.024-2.6-1.728-4.61-4.032-6.05-6.912-1.15-2.88-1.01-5.904.43-9.072 8.35-19.296 16.7-38.448 25.06-57.456 8.64-19.296 16.7-38.592 24.19-57.888 4.61-11.808 6.19-20.016 4.75-24.624-1.44-4.896-4.18-7.488-8.21-7.776-3.17-.288-6.91.864-11.23 3.456-4.32 2.304-9.22 6.048-14.69 11.232-5.47 4.896-11.37 11.232-17.71 19.008-3.46 4.032-8.06 10.368-13.82 19.008-5.76 8.352-12.24 18.144-19.44 29.376-7.2 10.944-14.69 22.752-22.47 35.424a1709.356 1709.356 0 0 0-21.6 36.72c-2.59 4.608-4.89 7.92-6.91 9.936-2.02 2.304-4.18 3.456-6.48 3.456Zm228.24-.864c-2.3 0-4.89-1.008-7.77-3.024-2.88-1.728-5.33-3.744-7.35-6.048-1.72-2.592-2.59-4.896-2.59-6.912 0-4.896.58-9.072 1.73-12.528 1.44-3.456 2.88-7.344 4.32-11.664l41.04-115.344c.58-2.016.29-3.312-.86-3.888-.87-.864-2.02-1.296-3.46-1.296l-17.28-.864c-3.74-.288-6.05-1.008-6.91-2.16-.58-1.44-.87-2.736-.87-3.888 0-.576.72-1.584 2.16-3.024 1.44-1.728 3.17-3.312 5.19-4.752 2.3-1.728 4.75-2.592 7.34-2.592h15.55c3.17 0 5.33-.432 6.48-1.296 1.16-1.152 2.45-3.312 3.89-6.48l10.37-21.168c1.15-2.304 3.31-4.896 6.48-7.776 3.17-3.168 6.34-5.904 9.5-8.208 3.46-2.304 5.91-3.456 7.35-3.456 2.3 0 3.74 1.584 4.32 4.752.57 3.168.29 6.192-.87 9.072l-11.23 28.944c-.57 2.016-.43 3.312.43 3.888 1.16.576 2.88.864 5.19.864 5.76 0 11.66.432 17.71 1.296 6.05.864 10.94 1.584 14.69 2.16 4.61.864 7.34 1.872 8.21 3.024 1.15.864 1.72 2.016 1.72 3.456 0 .576-.57 1.584-1.72 3.024-1.16 1.152-3.32 1.872-6.48 2.16-6.34.288-12.39.72-18.15 1.296-5.76.288-11.81.576-18.14.864-4.61.288-7.92 1.008-9.94 2.16-1.73 1.152-2.88 2.592-3.45 4.32l-38.45 106.272c-1.15 3.456-1.73 6.48-1.73 9.072 0 2.592.72 4.608 2.16 6.048 1.73 1.44 4.18 2.16 7.34 2.16 4.04 0 8.36-1.44 12.96-4.32 4.61-2.88 9.08-6.192 13.4-9.936 4.32-3.744 7.92-7.056 10.8-9.936 3.16-3.168 5.9-4.608 8.2-4.32 2.31.288 3.46 1.296 3.46 3.024 0 2.016-.72 4.32-2.16 6.912-1.44 2.304-3.31 4.752-5.62 7.344-4.6 4.896-9.5 9.504-14.68 13.824-4.9 4.32-10.08 8.352-15.56 12.096-5.18 3.456-10.22 6.48-15.12 9.072-4.6 2.304-8.78 4.176-12.52 5.616-3.75 1.44-6.77 2.16-9.08 2.16Zm109.73 0c-6.34 0-11.81-1.872-16.42-5.616-4.6-3.456-6.91-7.92-6.91-13.392 0-6.624 1.59-11.52 4.75-14.688 2.88-3.456 5.33-5.184 7.35-5.184 2.01 0 4.03.864 6.05 2.592 2.3 1.44 4.75 3.312 7.34 5.616 3.17 2.304 6.62 4.608 10.37 6.912 4.03 2.016 9.21 3.024 15.55 3.024 7.78 0 13.97-2.736 18.58-8.208 4.6-5.76 7.05-11.808 7.34-18.144 0-6.336-1.15-13.104-3.46-20.304-2.01-7.488-5.04-14.832-9.07-22.032-3.74-6.912-6.91-13.392-9.5-19.44-2.31-6.336-3.46-11.664-3.46-15.984 0-8.352 2.16-16.128 6.48-23.328 4.61-7.488 10.08-13.968 16.42-19.44 6.62-5.472 13.1-9.648 19.44-12.528 6.33-3.168 11.37-4.752 15.12-4.752 3.74 0 7.49 1.152 11.23 3.456 3.74 2.016 6.77 4.464 9.07 7.344 2.59 2.592 3.89 4.896 3.89 6.912 0 1.728-.86 3.888-2.59 6.48-1.73 2.304-3.75 4.464-6.05 6.48s-4.32 3.024-6.05 3.024c-1.44 0-2.88-.72-4.32-2.16-1.44-1.44-3.02-3.024-4.75-4.752-1.73-1.728-3.89-3.312-6.48-4.752-2.3-1.44-5.47-2.16-9.5-2.16-4.61 0-8.64 2.016-12.1 6.048-3.46 3.744-5.18 8.784-5.18 15.12 0 2.304.72 5.904 2.16 10.8 1.72 4.896 3.6 9.936 5.61 15.12 2.31 5.184 4.47 9.792 6.48 13.824 3.17 5.76 6.05 13.104 8.64 22.032 2.88 8.64 4.32 16.272 4.32 22.896 0 8.64-2.59 16.56-7.77 23.76-4.9 7.2-11.38 13.536-19.44 19.008-8.07 5.184-16.85 9.216-26.36 12.096-9.21 2.88-18.14 4.32-26.78 4.32Z" fill="#3C4043"/></g><defs><clipPath id="a"><path fill="#fff" d="M0 0h1920v1080H0z"/></clipPath></defs></svg>