<svg width="1920" height="1080" viewBox="0 0 1920 1080" fill="none" xmlns="http://www.w3.org/2000/svg">
<path d="M287.36 768.728L303.872 754.52C298.24 747.352 285.44 734.168 276.48 726.744L260.224 740.696C269.056 748.504 279.808 759.512 287.36 768.728ZM408.704 727C396.928 727 387.328 736.6 387.328 748.376C387.328 760.152 396.928 769.752 408.704 769.752C420.608 769.752 430.08 760.152 430.08 748.376C430.08 736.6 420.608 727 408.704 727ZM408.704 759C402.944 759 398.08 754.264 398.08 748.376C398.08 742.488 402.944 737.752 408.704 737.752C414.592 737.752 419.328 742.488 419.328 748.376C419.328 754.264 414.592 759 408.704 759ZM636.8 649.56H593.28V730.84H611.584V666.2H636.8V649.56ZM643.2 771.16H686.72V689.88H668.416V754.52H643.2V771.16ZM871.04 734.04V673.88H892.8V649.56H844.8V734.04H871.04ZM851.2 727.64V655.96H886.4V667.48H864.64V727.64H851.2ZM920.96 686.68V746.84H899.2V771.16H947.2V686.68H920.96ZM940.8 693.08V764.76H905.6V753.24H927.36V693.08H940.8ZM1080.06 724.952H1095.94L1099.78 684.504L1100.54 663.256H1075.46L1076.22 684.504L1080.06 724.952ZM1088 760.536C1095.55 760.536 1101.06 755.032 1101.06 747.48C1101.06 739.928 1095.55 734.68 1088 734.68C1080.45 734.68 1074.94 739.928 1074.94 747.48C1074.94 755.032 1080.32 760.536 1088 760.536ZM1186.56 758.232H1199.74L1202.82 733.528H1222.66L1219.46 758.232H1232.77L1235.84 733.528H1257.6V719.192H1237.5L1239.94 698.456H1261.06V683.992H1241.6L1244.16 662.488H1231.23L1228.54 683.992H1208.7L1211.26 662.488H1198.34L1195.52 683.992H1174.4V698.456H1193.73L1191.3 719.192H1170.94V733.528H1189.63L1186.56 758.232ZM1204.35 719.192L1206.91 698.456H1226.62L1224.19 719.192H1204.35ZM1308.42 721.624C1322.5 721.624 1332.61 710.104 1332.61 691.032C1332.61 671.832 1322.5 660.696 1308.42 660.696C1294.46 660.696 1284.22 671.832 1284.22 691.032C1284.22 710.104 1294.46 721.624 1308.42 721.624ZM1308.42 708.952C1303.94 708.952 1300.1 704.344 1300.1 691.032C1300.1 677.592 1303.94 673.368 1308.42 673.368C1313.02 673.368 1316.86 677.592 1316.86 691.032C1316.86 704.344 1313.02 708.952 1308.42 708.952ZM1379.71 760.024C1393.66 760.024 1403.9 748.504 1403.9 729.432C1403.9 710.232 1393.66 699.096 1379.71 699.096C1365.76 699.096 1355.39 710.232 1355.39 729.432C1355.39 748.504 1365.76 760.024 1379.71 760.024ZM1379.71 747.352C1375.1 747.352 1371.26 742.744 1371.26 729.432C1371.26 715.992 1375.1 711.768 1379.71 711.768C1384.32 711.768 1388.16 715.992 1388.16 729.432C1388.16 742.744 1384.32 747.352 1379.71 747.352ZM1311.87 760.024H1324.8L1376.51 660.696H1363.46L1311.87 760.024ZM1466.37 759.896H1478.14L1479.42 722.648L1512.32 740.184L1518.21 729.944L1486.72 710.36L1518.21 690.648L1512.32 680.408L1479.42 697.944L1478.14 660.696H1466.37L1465.09 697.944L1432.19 680.408L1426.3 690.648L1457.79 710.36L1426.3 729.944L1432.19 740.184L1465.09 722.648L1466.37 759.896ZM1660.8 654.168L1656.19 649.56L1539.2 766.552L1543.81 771.16L1660.8 654.168Z" fill="#3C4043"/>
<path d="M284.807 338.068L284.466 342.841C284.182 346.932 283.5 350.852 282.42 354.602C281.369 358.352 280.247 361.676 279.054 364.574C277.889 367.472 276.966 369.716 276.284 371.307H261.795C262.25 369.716 262.889 367.415 263.713 364.403C264.565 361.42 265.332 358.04 266.014 354.261C266.724 350.511 267.08 346.705 267.08 342.841V338.068H284.807ZM330.062 351.364C326.767 351.364 323.94 350.213 321.582 347.912C319.253 345.582 318.102 342.756 318.131 339.432C318.102 336.193 319.253 333.423 321.582 331.122C323.94 328.821 326.767 327.67 330.062 327.67C333.188 327.67 335.943 328.821 338.33 331.122C340.744 333.423 341.966 336.193 341.994 339.432C341.966 341.648 341.384 343.665 340.247 345.483C339.139 347.273 337.69 348.707 335.901 349.787C334.111 350.838 332.165 351.364 330.062 351.364ZM373.081 290V279.773C373.081 276.989 373.649 274.19 374.786 271.378C375.922 268.565 377.357 265.966 379.089 263.58C380.822 261.193 382.57 259.261 384.331 257.784L394.047 262.727C392.57 265.199 391.419 267.784 390.595 270.483C389.8 273.182 389.416 276.278 389.445 279.773V290H373.081ZM429.565 290V279.773C429.565 276.989 430.134 274.19 431.27 271.378C432.406 268.565 433.841 265.966 435.574 263.58C437.307 261.193 439.054 259.261 440.815 257.784L450.531 262.727C449.054 265.199 447.903 267.784 447.08 270.483C446.284 273.182 445.901 276.278 445.929 279.773V290H429.565ZM486.05 290V279.773C486.05 276.989 486.618 274.19 487.754 271.378C488.891 268.565 490.325 265.966 492.058 263.58C493.791 261.193 495.538 259.261 497.3 257.784L507.016 262.727C505.538 265.199 504.388 267.784 503.564 270.483C502.768 273.182 502.385 276.278 502.413 279.773V290H486.05ZM507.357 290V279.773C507.357 276.989 507.925 274.19 509.061 271.378C510.197 268.565 511.632 265.966 513.365 263.58C515.098 261.193 516.845 259.261 518.607 257.784L528.322 262.727C526.845 265.199 525.695 267.784 524.871 270.483C524.075 273.182 523.692 276.278 523.72 279.773V290H507.357ZM563.862 290V279.773C563.862 276.989 564.43 274.19 565.567 271.378C566.703 268.565 568.138 265.966 569.871 263.58C571.604 261.193 573.351 259.261 575.112 257.784L584.828 262.727C583.351 265.199 582.2 267.784 581.376 270.483C580.581 273.182 580.197 276.278 580.226 279.773V290H563.862ZM585.169 290V279.773C585.169 276.989 585.737 274.19 586.874 271.378C588.01 268.565 589.445 265.966 591.178 263.58C592.911 261.193 594.658 259.261 596.419 257.784L606.135 262.727C604.658 265.199 603.507 267.784 602.683 270.483C601.888 273.182 601.504 276.278 601.533 279.773V290H585.169ZM667.754 262.727L665.538 322.727H646.107L643.891 262.727H667.754ZM655.822 351.364C652.527 351.364 649.7 350.213 647.342 347.912C645.013 345.582 643.862 342.756 643.891 339.432C643.862 336.193 645.013 333.423 647.342 331.122C649.7 328.821 652.527 327.67 655.822 327.67C658.947 327.67 661.703 328.821 664.089 331.122C666.504 333.423 667.726 336.193 667.754 339.432C667.726 341.648 667.143 343.665 666.007 345.483C664.899 347.273 663.45 348.707 661.661 349.787C659.871 350.838 657.925 351.364 655.822 351.364ZM724.26 322.727V320.682C724.26 315.994 724.629 312.259 725.368 309.474C726.107 306.69 727.2 304.46 728.649 302.784C730.098 301.08 731.874 299.545 733.976 298.182C735.794 296.989 737.413 295.838 738.834 294.73C740.283 293.622 741.419 292.443 742.243 291.193C743.095 289.943 743.521 288.523 743.521 286.932C743.521 285.511 743.18 284.261 742.499 283.182C741.817 282.102 740.893 281.264 739.729 280.668C738.564 280.071 737.271 279.773 735.851 279.773C734.317 279.773 732.896 280.128 731.589 280.838C730.311 281.548 729.274 282.528 728.479 283.778C727.712 285.028 727.328 286.477 727.328 288.125H705.51C705.567 281.875 706.987 276.804 709.771 272.912C712.555 268.991 716.249 266.122 720.851 264.304C725.453 262.457 730.51 261.534 736.021 261.534C742.101 261.534 747.527 262.429 752.3 264.219C757.072 265.98 760.837 268.651 763.592 272.23C766.348 275.781 767.726 280.227 767.726 285.568C767.726 289.006 767.129 292.031 765.936 294.645C764.771 297.23 763.138 299.517 761.036 301.506C758.962 303.466 756.533 305.256 753.749 306.875C751.703 308.068 749.984 309.304 748.592 310.582C747.2 311.832 746.149 313.267 745.439 314.886C744.729 316.477 744.374 318.409 744.374 320.682V322.727H724.26ZM734.658 351.364C731.362 351.364 728.536 350.213 726.178 347.912C723.848 345.582 722.697 342.756 722.726 339.432C722.697 336.193 723.848 333.423 726.178 331.122C728.536 328.821 731.362 327.67 734.658 327.67C737.783 327.67 740.538 328.821 742.925 331.122C745.339 333.423 746.561 336.193 746.589 339.432C746.561 341.648 745.979 343.665 744.842 345.483C743.734 347.273 742.286 348.707 740.496 349.787C738.706 350.838 736.76 351.364 734.658 351.364ZM836.312 350L850.631 262.727H867.676L853.358 350H836.312ZM797.619 330.057L800.517 313.011H870.744L867.847 330.057H797.619ZM805.631 350L819.949 262.727H836.994L822.676 350H805.631ZM802.562 299.716L805.46 282.67H875.688L872.79 299.716H802.562ZM956.036 333.636V329.034C956.036 325.341 956.831 321.932 958.422 318.807C960.041 315.682 962.385 313.168 965.453 311.264C968.521 309.361 972.257 308.409 976.661 308.409C981.178 308.409 984.97 309.347 988.038 311.222C991.135 313.097 993.479 315.597 995.07 318.722C996.661 321.847 997.456 325.284 997.456 329.034V333.636C997.456 337.33 996.646 340.739 995.027 343.864C993.436 346.989 991.092 349.503 987.996 351.406C984.899 353.31 981.121 354.261 976.661 354.261C972.2 354.261 968.436 353.31 965.368 351.406C962.3 349.503 959.97 346.989 958.379 343.864C956.817 340.739 956.036 337.33 956.036 333.636ZM970.865 329.034V333.636C970.865 335.256 971.263 336.861 972.058 338.452C972.882 340.014 974.416 340.795 976.661 340.795C979.018 340.795 980.567 340.028 981.305 338.494C982.072 336.96 982.456 335.341 982.456 333.636V329.034C982.456 327.33 982.101 325.682 981.391 324.091C980.68 322.5 979.104 321.705 976.661 321.705C974.416 321.705 972.882 322.5 972.058 324.091C971.263 325.682 970.865 327.33 970.865 329.034ZM910.354 283.693V279.091C910.354 275.341 911.163 271.903 912.783 268.778C914.43 265.653 916.788 263.153 919.857 261.278C922.925 259.403 926.632 258.466 930.979 258.466C935.496 258.466 939.288 259.403 942.357 261.278C945.453 263.153 947.797 265.653 949.388 268.778C950.979 271.903 951.774 275.341 951.774 279.091V283.693C951.774 287.443 950.964 290.866 949.345 293.963C947.754 297.06 945.411 299.531 942.314 301.378C939.217 303.224 935.439 304.148 930.979 304.148C926.518 304.148 922.754 303.21 919.686 301.335C916.618 299.46 914.288 296.974 912.697 293.878C911.135 290.781 910.354 287.386 910.354 283.693ZM925.354 279.091V283.693C925.354 285.398 925.751 287.017 926.547 288.551C927.342 290.085 928.82 290.852 930.979 290.852C933.337 290.852 934.885 290.085 935.624 288.551C936.391 287.017 936.774 285.398 936.774 283.693V279.091C936.774 277.386 936.419 275.739 935.709 274.148C934.999 272.557 933.422 271.761 930.979 271.761C928.734 271.761 927.229 272.585 926.462 274.233C925.723 275.852 925.354 277.472 925.354 279.091ZM917.598 350L977.598 262.727H989.7L929.7 350H917.598ZM1060.74 311.818L1062.1 296.818L1049.66 305.511L1042.84 293.58L1056.48 287.273L1042.84 280.966L1049.66 269.034L1062.1 277.727L1060.74 262.727H1074.37L1073.01 277.727L1085.45 269.034L1092.27 280.966L1078.63 287.273L1092.27 293.58L1085.45 305.511L1073.01 296.818L1074.37 311.818H1060.74ZM1176.74 258.636L1148.62 363.125H1128.67L1156.8 258.636H1176.74Z" fill="#3C4043"/>
<path d="M257.641 210V184.545H264.551V204.432H274.842V210H257.641ZM283.055 210.298C281.837 210.298 280.76 210.099 279.823 209.702C278.895 209.296 278.166 208.683 277.636 207.862C277.105 207.042 276.84 205.998 276.84 204.73C276.84 203.686 277.018 202.795 277.375 202.058C277.731 201.312 278.228 200.703 278.866 200.231C279.504 199.759 280.246 199.398 281.091 199.15C281.944 198.901 282.864 198.739 283.85 198.665C284.919 198.582 285.777 198.482 286.423 198.366C287.078 198.242 287.55 198.072 287.84 197.857C288.13 197.633 288.275 197.339 288.275 196.974V196.925C288.275 196.428 288.084 196.046 287.703 195.781C287.322 195.516 286.833 195.384 286.237 195.384C285.582 195.384 285.048 195.529 284.633 195.819C284.227 196.1 283.983 196.535 283.9 197.124H277.586C277.669 195.964 278.038 194.895 278.692 193.917C279.355 192.931 280.32 192.144 281.588 191.555C282.856 190.959 284.439 190.661 286.336 190.661C287.703 190.661 288.93 190.822 290.015 191.145C291.1 191.46 292.024 191.903 292.787 192.475C293.549 193.039 294.129 193.701 294.527 194.464C294.933 195.218 295.136 196.038 295.136 196.925V210H288.722V207.315H288.573C288.192 208.028 287.728 208.604 287.181 209.043C286.643 209.482 286.025 209.801 285.329 210C284.642 210.199 283.883 210.298 283.055 210.298ZM285.292 205.973C285.814 205.973 286.303 205.865 286.759 205.65C287.223 205.434 287.6 205.124 287.89 204.718C288.18 204.312 288.325 203.819 288.325 203.239V201.648C288.142 201.722 287.948 201.793 287.741 201.859C287.542 201.925 287.326 201.987 287.094 202.045C286.87 202.103 286.63 202.157 286.373 202.207C286.125 202.257 285.864 202.302 285.59 202.344C285.06 202.427 284.625 202.563 284.285 202.754C283.954 202.936 283.705 203.164 283.54 203.438C283.382 203.703 283.303 204.001 283.303 204.332C283.303 204.863 283.49 205.269 283.863 205.55C284.236 205.832 284.712 205.973 285.292 205.973ZM309.799 190.909V195.881H297.221V190.909H309.799ZM299.657 186.335H306.518V203.86C306.518 204.125 306.563 204.349 306.654 204.531C306.745 204.705 306.886 204.838 307.077 204.929C307.267 205.012 307.512 205.053 307.81 205.053C308.017 205.053 308.258 205.028 308.531 204.979C308.813 204.929 309.02 204.888 309.153 204.854L310.147 209.677C309.84 209.768 309.401 209.88 308.829 210.012C308.266 210.145 307.595 210.232 306.816 210.273C305.242 210.356 303.92 210.195 302.851 209.789C301.782 209.374 300.978 208.724 300.44 207.837C299.901 206.951 299.64 205.84 299.657 204.506V186.335ZM312.598 210V190.909H319.459V210H312.598ZM316.029 188.92C315.101 188.92 314.305 188.614 313.642 188.001C312.98 187.388 312.648 186.65 312.648 185.788C312.648 184.927 312.98 184.189 313.642 183.576C314.305 182.963 315.101 182.656 316.029 182.656C316.965 182.656 317.761 182.963 318.415 183.576C319.078 184.189 319.41 184.927 319.41 185.788C319.41 186.65 319.078 187.388 318.415 188.001C317.761 188.614 316.965 188.92 316.029 188.92ZM329.816 199.261V210H322.955V190.909H329.468V194.538H329.667C330.081 193.329 330.81 192.38 331.854 191.692C332.906 191.004 334.133 190.661 335.533 190.661C336.884 190.661 338.056 190.971 339.05 191.593C340.053 192.206 340.828 193.051 341.375 194.128C341.93 195.205 342.203 196.436 342.195 197.82V210H335.334V199.261C335.342 198.317 335.102 197.575 334.613 197.037C334.133 196.498 333.462 196.229 332.6 196.229C332.036 196.229 331.543 196.353 331.121 196.602C330.706 196.842 330.387 197.19 330.164 197.646C329.94 198.093 329.824 198.632 329.816 199.261ZM352.555 217.159V190.909H359.366V194.24H359.515C359.763 193.594 360.128 193.001 360.608 192.463C361.089 191.916 361.686 191.481 362.398 191.158C363.111 190.826 363.939 190.661 364.884 190.661C366.144 190.661 367.341 190.996 368.476 191.667C369.619 192.338 370.548 193.395 371.26 194.837C371.981 196.278 372.341 198.151 372.341 200.455C372.341 202.659 371.998 204.486 371.31 205.936C370.63 207.386 369.719 208.467 368.575 209.18C367.44 209.892 366.193 210.249 364.834 210.249C363.939 210.249 363.14 210.104 362.436 209.814C361.74 209.515 361.143 209.113 360.646 208.608C360.157 208.094 359.78 207.514 359.515 206.868H359.415V217.159H352.555ZM359.266 200.455C359.266 201.383 359.386 202.186 359.627 202.866C359.875 203.537 360.223 204.059 360.671 204.432C361.126 204.796 361.669 204.979 362.299 204.979C362.929 204.979 363.463 204.801 363.902 204.444C364.35 204.08 364.689 203.562 364.921 202.891C365.162 202.211 365.282 201.399 365.282 200.455C365.282 199.51 365.162 198.702 364.921 198.031C364.689 197.351 364.35 196.834 363.902 196.477C363.463 196.113 362.929 195.93 362.299 195.93C361.669 195.93 361.126 196.113 360.671 196.477C360.223 196.834 359.875 197.351 359.627 198.031C359.386 198.702 359.266 199.51 359.266 200.455ZM387.595 201.648V190.909H394.456V210H387.943V206.371H387.744C387.33 207.589 386.605 208.542 385.569 209.229C384.533 209.909 383.303 210.249 381.878 210.249C380.544 210.249 379.375 209.942 378.373 209.329C377.378 208.716 376.604 207.871 376.048 206.793C375.502 205.716 375.224 204.482 375.216 203.089V190.909H382.076V201.648C382.085 202.592 382.325 203.334 382.797 203.873C383.278 204.411 383.949 204.68 384.811 204.68C385.383 204.68 385.876 204.56 386.29 204.32C386.712 204.071 387.036 203.723 387.259 203.276C387.491 202.82 387.603 202.277 387.595 201.648ZM404.806 199.261V210H397.945V190.909H404.458V194.538H404.657C405.071 193.329 405.8 192.38 406.844 191.692C407.897 191.004 409.123 190.661 410.523 190.661C411.874 190.661 413.046 190.971 414.041 191.593C415.043 192.206 415.818 193.051 416.365 194.128C416.92 195.205 417.193 196.436 417.185 197.82V210H410.324V199.261C410.333 198.317 410.092 197.575 409.604 197.037C409.123 196.498 408.452 196.229 407.59 196.229C407.027 196.229 406.534 196.353 406.111 196.602C405.697 196.842 405.378 197.19 405.154 197.646C404.93 198.093 404.814 198.632 404.806 199.261ZM429.77 210.348C427.698 210.348 425.925 209.938 424.45 209.118C422.975 208.289 421.844 207.137 421.057 205.662C420.27 204.179 419.876 202.46 419.876 200.504C419.876 198.549 420.27 196.834 421.057 195.359C421.844 193.875 422.975 192.724 424.45 191.903C425.925 191.075 427.698 190.661 429.77 190.661C431.642 190.661 433.262 191 434.629 191.68C436.005 192.351 437.069 193.304 437.824 194.538C438.578 195.765 438.959 197.206 438.967 198.864H432.603C432.512 197.861 432.222 197.099 431.733 196.577C431.253 196.046 430.631 195.781 429.869 195.781C429.272 195.781 428.75 195.955 428.303 196.303C427.855 196.643 427.507 197.161 427.259 197.857C427.01 198.545 426.886 199.411 426.886 200.455C426.886 201.499 427.01 202.369 427.259 203.065C427.507 203.752 427.855 204.27 428.303 204.618C428.75 204.958 429.272 205.128 429.869 205.128C430.374 205.128 430.822 205.012 431.211 204.78C431.601 204.54 431.916 204.192 432.156 203.736C432.404 203.272 432.554 202.708 432.603 202.045H438.967C438.942 203.728 438.557 205.194 437.811 206.445C437.065 207.688 436.009 208.649 434.642 209.329C433.283 210.008 431.659 210.348 429.77 210.348ZM453.183 190.909V195.881H440.604V190.909H453.183ZM443.041 186.335H449.901V203.86C449.901 204.125 449.947 204.349 450.038 204.531C450.129 204.705 450.27 204.838 450.461 204.929C450.651 205.012 450.896 205.053 451.194 205.053C451.401 205.053 451.641 205.028 451.915 204.979C452.197 204.929 452.404 204.888 452.536 204.854L453.531 209.677C453.224 209.768 452.785 209.88 452.213 210.012C451.65 210.145 450.979 210.232 450.2 210.273C448.625 210.356 447.304 210.195 446.235 209.789C445.166 209.374 444.362 208.724 443.824 207.837C443.285 206.951 443.024 205.84 443.041 204.506V186.335ZM468.362 201.648V190.909H475.222V210H468.71V206.371H468.511C468.096 207.589 467.371 208.542 466.336 209.229C465.3 209.909 464.069 210.249 462.644 210.249C461.31 210.249 460.142 209.942 459.139 209.329C458.145 208.716 457.37 207.871 456.815 206.793C456.268 205.716 455.991 204.482 455.982 203.089V190.909H462.843V201.648C462.851 202.592 463.092 203.334 463.564 203.873C464.045 204.411 464.716 204.68 465.577 204.68C466.149 204.68 466.642 204.56 467.056 204.32C467.479 204.071 467.802 203.723 468.026 203.276C468.258 202.82 468.37 202.277 468.362 201.648ZM484.031 210.298C482.813 210.298 481.736 210.099 480.8 209.702C479.872 209.296 479.143 208.683 478.612 207.862C478.082 207.042 477.817 205.998 477.817 204.73C477.817 203.686 477.995 202.795 478.351 202.058C478.708 201.312 479.205 200.703 479.843 200.231C480.481 199.759 481.222 199.398 482.068 199.15C482.921 198.901 483.841 198.739 484.827 198.665C485.896 198.582 486.753 198.482 487.4 198.366C488.054 198.242 488.526 198.072 488.816 197.857C489.107 197.633 489.252 197.339 489.252 196.974V196.925C489.252 196.428 489.061 196.046 488.68 195.781C488.299 195.516 487.81 195.384 487.213 195.384C486.559 195.384 486.024 195.529 485.61 195.819C485.204 196.1 484.959 196.535 484.877 197.124H478.563C478.645 195.964 479.014 194.895 479.669 193.917C480.332 192.931 481.297 192.144 482.565 191.555C483.832 190.959 485.415 190.661 487.313 190.661C488.68 190.661 489.906 190.822 490.992 191.145C492.077 191.46 493.001 191.903 493.763 192.475C494.526 193.039 495.106 193.701 495.503 194.464C495.909 195.218 496.112 196.038 496.112 196.925V210H489.699V207.315H489.55C489.169 208.028 488.705 208.604 488.158 209.043C487.619 209.482 487.002 209.801 486.306 210C485.618 210.199 484.86 210.298 484.031 210.298ZM486.269 205.973C486.791 205.973 487.279 205.865 487.735 205.65C488.199 205.434 488.576 205.124 488.866 204.718C489.156 204.312 489.301 203.819 489.301 203.239V201.648C489.119 201.722 488.924 201.793 488.717 201.859C488.518 201.925 488.303 201.987 488.071 202.045C487.847 202.103 487.607 202.157 487.35 202.207C487.101 202.257 486.84 202.302 486.567 202.344C486.037 202.427 485.602 202.563 485.262 202.754C484.93 202.936 484.682 203.164 484.516 203.438C484.359 203.703 484.28 204.001 484.28 204.332C484.28 204.863 484.466 205.269 484.839 205.55C485.212 205.832 485.689 205.973 486.269 205.973ZM510.775 190.909V195.881H498.197V190.909H510.775ZM500.633 186.335H507.494V203.86C507.494 204.125 507.54 204.349 507.631 204.531C507.722 204.705 507.863 204.838 508.053 204.929C508.244 205.012 508.488 205.053 508.787 205.053C508.994 205.053 509.234 205.028 509.508 204.979C509.789 204.929 509.997 204.888 510.129 204.854L511.123 209.677C510.817 209.768 510.378 209.88 509.806 210.012C509.242 210.145 508.571 210.232 507.792 210.273C506.218 210.356 504.896 210.195 503.828 209.789C502.759 209.374 501.955 208.724 501.416 207.837C500.878 206.951 500.617 205.84 500.633 204.506V186.335ZM513.575 210V190.909H520.436V210H513.575ZM517.005 188.92C516.077 188.92 515.282 188.614 514.619 188.001C513.956 187.388 513.625 186.65 513.625 185.788C513.625 184.927 513.956 184.189 514.619 183.576C515.282 182.963 516.077 182.656 517.005 182.656C517.942 182.656 518.737 182.963 519.392 183.576C520.055 184.189 520.386 184.927 520.386 185.788C520.386 186.65 520.055 187.388 519.392 188.001C518.737 188.614 517.942 188.92 517.005 188.92ZM533.129 210.348C531.057 210.348 529.284 209.938 527.809 209.118C526.334 208.289 525.203 207.137 524.416 205.662C523.629 204.179 523.235 202.46 523.235 200.504C523.235 198.549 523.629 196.834 524.416 195.359C525.203 193.875 526.334 192.724 527.809 191.903C529.284 191.075 531.057 190.661 533.129 190.661C535.2 190.661 536.974 191.075 538.449 191.903C539.923 192.724 541.054 193.875 541.842 195.359C542.629 196.834 543.022 198.549 543.022 200.504C543.022 202.46 542.629 204.179 541.842 205.662C541.054 207.137 539.923 208.289 538.449 209.118C536.974 209.938 535.2 210.348 533.129 210.348ZM533.179 205.277C533.759 205.277 534.26 205.082 534.683 204.693C535.105 204.303 535.432 203.748 535.664 203.027C535.896 202.306 536.012 201.449 536.012 200.455C536.012 199.452 535.896 198.594 535.664 197.882C535.432 197.161 535.105 196.606 534.683 196.216C534.26 195.827 533.759 195.632 533.179 195.632C532.565 195.632 532.039 195.827 531.6 196.216C531.161 196.606 530.825 197.161 530.593 197.882C530.361 198.594 530.245 199.452 530.245 200.455C530.245 201.449 530.361 202.306 530.593 203.027C530.825 203.748 531.161 204.303 531.6 204.693C532.039 205.082 532.565 205.277 533.179 205.277ZM552.667 199.261V210H545.806V190.909H552.319V194.538H552.518C552.932 193.329 553.662 192.38 554.706 191.692C555.758 191.004 556.984 190.661 558.385 190.661C559.735 190.661 560.908 190.971 561.902 191.593C562.905 192.206 563.679 193.051 564.226 194.128C564.781 195.205 565.055 196.436 565.047 197.82V210H558.186V199.261C558.194 198.317 557.954 197.575 557.465 197.037C556.984 196.498 556.313 196.229 555.451 196.229C554.888 196.229 554.395 196.353 553.972 196.602C553.558 196.842 553.239 197.19 553.015 197.646C552.792 198.093 552.676 198.632 552.667 199.261ZM585.884 197.124H579.57C579.537 196.734 579.4 196.399 579.16 196.117C578.919 195.835 578.609 195.62 578.227 195.471C577.855 195.313 577.44 195.234 576.985 195.234C576.396 195.234 575.891 195.342 575.468 195.558C575.046 195.773 574.838 196.08 574.847 196.477C574.838 196.759 574.959 197.02 575.207 197.26C575.464 197.501 575.957 197.687 576.686 197.82L580.564 198.516C582.52 198.872 583.974 199.473 584.927 200.318C585.888 201.155 586.373 202.277 586.381 203.686C586.373 205.045 585.967 206.226 585.163 207.228C584.367 208.223 583.278 208.993 581.894 209.54C580.519 210.079 578.948 210.348 577.183 210.348C574.267 210.348 571.984 209.751 570.335 208.558C568.694 207.365 567.779 205.791 567.588 203.835H574.399C574.49 204.44 574.789 204.908 575.294 205.24C575.808 205.563 576.454 205.724 577.233 205.724C577.863 205.724 578.381 205.617 578.787 205.401C579.201 205.186 579.412 204.879 579.421 204.482C579.412 204.117 579.23 203.827 578.874 203.612C578.526 203.396 577.979 203.222 577.233 203.089L573.852 202.493C571.905 202.153 570.447 201.507 569.477 200.554C568.508 199.601 568.027 198.375 568.036 196.875C568.027 195.549 568.375 194.426 569.08 193.507C569.792 192.579 570.807 191.874 572.125 191.394C573.451 190.905 575.021 190.661 576.835 190.661C579.595 190.661 581.77 191.232 583.361 192.376C584.96 193.519 585.801 195.102 585.884 197.124Z" fill="#1A73E8"/>
<path d="M257.641 587V561.545H275.538V567.114H264.551V571.489H274.445V577.057H264.551V587H257.641ZM289.362 578.648V567.909H296.223V587H289.71V583.371H289.512C289.097 584.589 288.372 585.542 287.337 586.229C286.301 586.909 285.07 587.249 283.645 587.249C282.311 587.249 281.143 586.942 280.14 586.329C279.146 585.716 278.371 584.871 277.816 583.793C277.269 582.716 276.992 581.482 276.983 580.089V567.909H283.844V578.648C283.852 579.592 284.093 580.334 284.565 580.873C285.045 581.411 285.717 581.68 286.578 581.68C287.15 581.68 287.643 581.56 288.057 581.32C288.48 581.071 288.803 580.723 289.027 580.276C289.259 579.82 289.371 579.277 289.362 578.648ZM306.574 561.545V587H299.713V561.545H306.574ZM316.93 561.545V587H310.069V561.545H316.93ZM332.954 574.273V579.443H321.022V574.273H332.954ZM340.418 587L335.645 567.909H342.506L344.693 579.543H344.842L347.278 567.909H353.94L356.476 579.443H356.625L358.713 567.909H365.574L360.801 587H353.393L350.709 576.759H350.51L347.825 587H340.418ZM367.662 587V567.909H374.523V587H367.662ZM371.092 565.92C370.164 565.92 369.369 565.614 368.706 565.001C368.043 564.388 367.712 563.65 367.712 562.788C367.712 561.927 368.043 561.189 368.706 560.576C369.369 559.963 370.164 559.656 371.092 559.656C372.029 559.656 372.824 559.963 373.479 560.576C374.142 561.189 374.473 561.927 374.473 562.788C374.473 563.65 374.142 564.388 373.479 565.001C372.824 565.614 372.029 565.92 371.092 565.92ZM384.929 587.249C383.57 587.249 382.319 586.892 381.175 586.18C380.04 585.467 379.129 584.386 378.441 582.936C377.762 581.486 377.422 579.659 377.422 577.455C377.422 575.151 377.778 573.278 378.491 571.837C379.212 570.395 380.14 569.338 381.275 568.667C382.418 567.996 383.62 567.661 384.879 567.661C385.824 567.661 386.652 567.826 387.365 568.158C388.078 568.481 388.674 568.916 389.155 569.463C389.635 570.001 390 570.594 390.248 571.24H390.348V561.545H397.209V587H390.398V583.868H390.248C389.983 584.514 389.602 585.094 389.105 585.608C388.616 586.113 388.02 586.515 387.315 586.814C386.619 587.104 385.824 587.249 384.929 587.249ZM387.464 581.979C388.094 581.979 388.633 581.796 389.08 581.432C389.536 581.059 389.884 580.537 390.124 579.866C390.373 579.186 390.497 578.383 390.497 577.455C390.497 576.51 390.373 575.702 390.124 575.031C389.884 574.351 389.536 573.834 389.08 573.477C388.633 573.113 388.094 572.93 387.464 572.93C386.835 572.93 386.296 573.113 385.849 573.477C385.409 573.834 385.07 574.351 384.829 575.031C384.597 575.702 384.481 576.51 384.481 577.455C384.481 578.399 384.597 579.211 384.829 579.891C385.07 580.562 385.409 581.08 385.849 581.444C386.296 581.801 386.835 581.979 387.464 581.979ZM411.962 567.909V572.881H399.384V567.909H411.962ZM401.82 563.335H408.681V580.86C408.681 581.125 408.726 581.349 408.817 581.531C408.909 581.705 409.049 581.838 409.24 581.929C409.431 582.012 409.675 582.053 409.973 582.053C410.18 582.053 410.421 582.028 410.694 581.979C410.976 581.929 411.183 581.888 411.316 581.854L412.31 586.677C412.003 586.768 411.564 586.88 410.992 587.012C410.429 587.145 409.758 587.232 408.979 587.273C407.405 587.356 406.083 587.195 405.014 586.789C403.945 586.374 403.141 585.724 402.603 584.837C402.064 583.951 401.803 582.84 401.82 581.506V563.335ZM422.032 576.261V587H415.172V561.545H421.784V571.538H421.983C422.414 570.32 423.13 569.372 424.133 568.692C425.136 568.004 426.341 567.661 427.75 567.661C429.1 567.661 430.273 567.967 431.267 568.58C432.27 569.193 433.045 570.039 433.591 571.116C434.147 572.193 434.42 573.428 434.412 574.82V587H427.551V576.261C427.559 575.317 427.323 574.575 426.843 574.037C426.37 573.498 425.695 573.229 424.817 573.229C424.261 573.229 423.773 573.353 423.35 573.602C422.936 573.842 422.613 574.19 422.381 574.646C422.157 575.093 422.041 575.632 422.032 576.261ZM444.771 594.159V567.909H451.582V571.24H451.732C451.98 570.594 452.345 570.001 452.825 569.463C453.306 568.916 453.902 568.481 454.615 568.158C455.328 567.826 456.156 567.661 457.101 567.661C458.36 567.661 459.558 567.996 460.693 568.667C461.836 569.338 462.764 570.395 463.477 571.837C464.198 573.278 464.558 575.151 464.558 577.455C464.558 579.659 464.214 581.486 463.527 582.936C462.847 584.386 461.936 585.467 460.792 586.18C459.657 586.892 458.41 587.249 457.051 587.249C456.156 587.249 455.357 587.104 454.652 586.814C453.956 586.515 453.36 586.113 452.863 585.608C452.374 585.094 451.997 584.514 451.732 583.868H451.632V594.159H444.771ZM451.483 577.455C451.483 578.383 451.603 579.186 451.843 579.866C452.092 580.537 452.44 581.059 452.887 581.432C453.343 581.796 453.886 581.979 454.516 581.979C455.145 581.979 455.68 581.801 456.119 581.444C456.566 581.08 456.906 580.562 457.138 579.891C457.378 579.211 457.499 578.399 457.499 577.455C457.499 576.51 457.378 575.702 457.138 575.031C456.906 574.351 456.566 573.834 456.119 573.477C455.68 573.113 455.145 572.93 454.516 572.93C453.886 572.93 453.343 573.113 452.887 573.477C452.44 573.834 452.092 574.351 451.843 575.031C451.603 575.702 451.483 576.51 451.483 577.455ZM479.812 578.648V567.909H486.672V587H480.16V583.371H479.961C479.547 584.589 478.822 585.542 477.786 586.229C476.75 586.909 475.52 587.249 474.094 587.249C472.76 587.249 471.592 586.942 470.589 586.329C469.595 585.716 468.82 584.871 468.265 583.793C467.718 582.716 467.441 581.482 467.432 580.089V567.909H474.293V578.648C474.302 579.592 474.542 580.334 475.014 580.873C475.495 581.411 476.166 581.68 477.028 581.68C477.599 581.68 478.092 581.56 478.507 581.32C478.929 581.071 479.252 580.723 479.476 580.276C479.708 579.82 479.82 579.277 479.812 578.648ZM497.023 576.261V587H490.162V567.909H496.675V571.538H496.874C497.288 570.329 498.017 569.38 499.061 568.692C500.113 568.004 501.34 567.661 502.74 567.661C504.091 567.661 505.263 567.971 506.257 568.593C507.26 569.206 508.035 570.051 508.582 571.128C509.137 572.205 509.41 573.436 509.402 574.82V587H502.541V576.261C502.549 575.317 502.309 574.575 501.82 574.037C501.34 573.498 500.669 573.229 499.807 573.229C499.243 573.229 498.75 573.353 498.328 573.602C497.913 573.842 497.594 574.19 497.371 574.646C497.147 575.093 497.031 575.632 497.023 576.261ZM521.986 587.348C519.915 587.348 518.142 586.938 516.667 586.118C515.192 585.289 514.061 584.137 513.274 582.662C512.486 581.179 512.093 579.46 512.093 577.504C512.093 575.549 512.486 573.834 513.274 572.359C514.061 570.875 515.192 569.724 516.667 568.903C518.142 568.075 519.915 567.661 521.986 567.661C523.859 567.661 525.479 568 526.846 568.68C528.222 569.351 529.286 570.304 530.04 571.538C530.794 572.765 531.175 574.206 531.184 575.864H524.82C524.729 574.861 524.439 574.099 523.95 573.577C523.47 573.046 522.848 572.781 522.086 572.781C521.489 572.781 520.967 572.955 520.52 573.303C520.072 573.643 519.724 574.161 519.476 574.857C519.227 575.545 519.103 576.411 519.103 577.455C519.103 578.499 519.227 579.369 519.476 580.065C519.724 580.752 520.072 581.27 520.52 581.618C520.967 581.958 521.489 582.128 522.086 582.128C522.591 582.128 523.039 582.012 523.428 581.78C523.818 581.54 524.132 581.192 524.373 580.736C524.621 580.272 524.77 579.708 524.82 579.045H531.184C531.159 580.728 530.774 582.194 530.028 583.445C529.282 584.688 528.226 585.649 526.858 586.329C525.5 587.008 523.876 587.348 521.986 587.348ZM545.399 567.909V572.881H532.821V567.909H545.399ZM535.257 563.335H542.118V580.86C542.118 581.125 542.164 581.349 542.255 581.531C542.346 581.705 542.487 581.838 542.677 581.929C542.868 582.012 543.112 582.053 543.411 582.053C543.618 582.053 543.858 582.028 544.132 581.979C544.413 581.929 544.621 581.888 544.753 581.854L545.747 586.677C545.441 586.768 545.002 586.88 544.43 587.012C543.867 587.145 543.195 587.232 542.416 587.273C540.842 587.356 539.521 587.195 538.452 586.789C537.383 586.374 536.579 585.724 536.04 584.837C535.502 583.951 535.241 582.84 535.257 581.506V563.335ZM560.578 578.648V567.909H567.439V587H560.926V583.371H560.727C560.313 584.589 559.588 585.542 558.552 586.229C557.517 586.909 556.286 587.249 554.861 587.249C553.527 587.249 552.359 586.942 551.356 586.329C550.362 585.716 549.587 584.871 549.032 583.793C548.485 582.716 548.207 581.482 548.199 580.089V567.909H555.06V578.648C555.068 579.592 555.308 580.334 555.781 580.873C556.261 581.411 556.932 581.68 557.794 581.68C558.366 581.68 558.859 581.56 559.273 581.32C559.696 581.071 560.019 580.723 560.243 580.276C560.475 579.82 560.587 579.277 560.578 578.648ZM576.248 587.298C575.03 587.298 573.953 587.099 573.017 586.702C572.089 586.296 571.359 585.683 570.829 584.862C570.299 584.042 570.034 582.998 570.034 581.73C570.034 580.686 570.212 579.795 570.568 579.058C570.924 578.312 571.422 577.703 572.06 577.231C572.698 576.759 573.439 576.398 574.284 576.15C575.138 575.901 576.058 575.739 577.044 575.665C578.112 575.582 578.97 575.482 579.616 575.366C580.271 575.242 580.743 575.072 581.033 574.857C581.323 574.633 581.468 574.339 581.468 573.974V573.925C581.468 573.428 581.278 573.046 580.897 572.781C580.515 572.516 580.027 572.384 579.43 572.384C578.775 572.384 578.241 572.529 577.827 572.819C577.421 573.1 577.176 573.535 577.093 574.124H570.779C570.862 572.964 571.231 571.895 571.886 570.917C572.548 569.931 573.514 569.144 574.782 568.555C576.049 567.959 577.632 567.661 579.529 567.661C580.897 567.661 582.123 567.822 583.208 568.145C584.294 568.46 585.218 568.903 585.98 569.475C586.742 570.039 587.322 570.701 587.72 571.464C588.126 572.218 588.329 573.038 588.329 573.925V587H581.916V584.315H581.767C581.385 585.028 580.921 585.604 580.375 586.043C579.836 586.482 579.219 586.801 578.523 587C577.835 587.199 577.077 587.298 576.248 587.298ZM578.485 582.973C579.007 582.973 579.496 582.865 579.952 582.65C580.416 582.434 580.793 582.124 581.083 581.718C581.373 581.312 581.518 580.819 581.518 580.239V578.648C581.336 578.722 581.141 578.793 580.934 578.859C580.735 578.925 580.52 578.987 580.288 579.045C580.064 579.103 579.824 579.157 579.567 579.207C579.318 579.257 579.057 579.302 578.784 579.344C578.253 579.427 577.818 579.563 577.479 579.754C577.147 579.936 576.899 580.164 576.733 580.438C576.575 580.703 576.497 581.001 576.497 581.332C576.497 581.863 576.683 582.269 577.056 582.55C577.429 582.832 577.905 582.973 578.485 582.973ZM602.992 567.909V572.881H590.414V567.909H602.992ZM592.85 563.335H599.711V580.86C599.711 581.125 599.757 581.349 599.848 581.531C599.939 581.705 600.08 581.838 600.27 581.929C600.461 582.012 600.705 582.053 601.004 582.053C601.211 582.053 601.451 582.028 601.724 581.979C602.006 581.929 602.213 581.888 602.346 581.854L603.34 586.677C603.034 586.768 602.594 586.88 602.023 587.012C601.459 587.145 600.788 587.232 600.009 587.273C598.435 587.356 597.113 587.195 596.044 586.789C594.975 586.374 594.172 585.724 593.633 584.837C593.095 583.951 592.834 582.84 592.85 581.506V563.335ZM605.792 587V567.909H612.653V587H605.792ZM609.222 565.92C608.294 565.92 607.499 565.614 606.836 565.001C606.173 564.388 605.842 563.65 605.842 562.788C605.842 561.927 606.173 561.189 606.836 560.576C607.499 559.963 608.294 559.656 609.222 559.656C610.159 559.656 610.954 559.963 611.609 560.576C612.271 561.189 612.603 561.927 612.603 562.788C612.603 563.65 612.271 564.388 611.609 565.001C610.954 565.614 610.159 565.92 609.222 565.92ZM625.346 587.348C623.274 587.348 621.501 586.938 620.026 586.118C618.551 585.289 617.42 584.137 616.633 582.662C615.846 581.179 615.452 579.46 615.452 577.504C615.452 575.549 615.846 573.834 616.633 572.359C617.42 570.875 618.551 569.724 620.026 568.903C621.501 568.075 623.274 567.661 625.346 567.661C627.417 567.661 629.19 568.075 630.665 568.903C632.14 569.724 633.271 570.875 634.058 572.359C634.846 573.834 635.239 575.549 635.239 577.504C635.239 579.46 634.846 581.179 634.058 582.662C633.271 584.137 632.14 585.289 630.665 586.118C629.19 586.938 627.417 587.348 625.346 587.348ZM625.395 582.277C625.975 582.277 626.477 582.082 626.899 581.693C627.322 581.303 627.649 580.748 627.881 580.027C628.113 579.306 628.229 578.449 628.229 577.455C628.229 576.452 628.113 575.594 627.881 574.882C627.649 574.161 627.322 573.606 626.899 573.216C626.477 572.827 625.975 572.632 625.395 572.632C624.782 572.632 624.256 572.827 623.817 573.216C623.378 573.606 623.042 574.161 622.81 574.882C622.578 575.594 622.462 576.452 622.462 577.455C622.462 578.449 622.578 579.306 622.81 580.027C623.042 580.748 623.378 581.303 623.817 581.693C624.256 582.082 624.782 582.277 625.395 582.277ZM644.884 576.261V587H638.023V567.909H644.536V571.538H644.735C645.149 570.329 645.878 569.38 646.922 568.692C647.975 568.004 649.201 567.661 650.601 567.661C651.952 567.661 653.124 567.971 654.119 568.593C655.121 569.206 655.896 570.051 656.443 571.128C656.998 572.205 657.272 573.436 657.263 574.82V587H650.403V576.261C650.411 575.317 650.171 574.575 649.682 574.037C649.201 573.498 648.53 573.229 647.668 573.229C647.105 573.229 646.612 573.353 646.189 573.602C645.775 573.842 645.456 574.19 645.232 574.646C645.008 575.093 644.892 575.632 644.884 576.261ZM678.1 574.124H671.787C671.753 573.734 671.617 573.399 671.376 573.117C671.136 572.835 670.825 572.62 670.444 572.471C670.071 572.313 669.657 572.234 669.201 572.234C668.613 572.234 668.108 572.342 667.685 572.558C667.262 572.773 667.055 573.08 667.064 573.477C667.055 573.759 667.175 574.02 667.424 574.26C667.681 574.501 668.174 574.687 668.903 574.82L672.781 575.516C674.736 575.872 676.191 576.473 677.143 577.318C678.105 578.155 678.589 579.277 678.598 580.686C678.589 582.045 678.183 583.226 677.38 584.228C676.584 585.223 675.495 585.993 674.111 586.54C672.735 587.079 671.165 587.348 669.4 587.348C666.484 587.348 664.201 586.751 662.552 585.558C660.911 584.365 659.996 582.791 659.805 580.835H666.616C666.707 581.44 667.006 581.908 667.511 582.24C668.025 582.563 668.671 582.724 669.45 582.724C670.08 582.724 670.598 582.617 671.004 582.401C671.418 582.186 671.629 581.879 671.637 581.482C671.629 581.117 671.447 580.827 671.091 580.612C670.743 580.396 670.196 580.222 669.45 580.089L666.069 579.493C664.122 579.153 662.664 578.507 661.694 577.554C660.725 576.601 660.244 575.375 660.252 573.875C660.244 572.549 660.592 571.426 661.297 570.507C662.009 569.579 663.024 568.874 664.342 568.394C665.667 567.905 667.238 567.661 669.052 567.661C671.811 567.661 673.987 568.232 675.577 569.376C677.177 570.519 678.018 572.102 678.1 574.124Z" fill="#FF6D7F"/>
</svg>
