<svg width="1920" height="1080" viewBox="0 0 1920 1080" fill="none" xmlns="http://www.w3.org/2000/svg">
<path d="M134.5 296.5C129.833 296.5 126 295 123 292C120 289 118.5 285.167 118.5 280.5V230.25C118.5 227.417 119.5 225.083 121.5 223.25C123.5 221.25 126.083 220.25 129.25 220.25C132.083 220.25 134.5 221.25 136.5 223.25C138.667 225.083 139.75 227.417 139.75 230.25V236.25C139.75 238.083 140.167 239.417 141 240.25C141.833 240.917 142.667 241.167 143.5 241H157.5C160.333 241 161.75 239.333 161.75 236V229.75C161.75 226.75 162.667 224.333 164.5 222.5C166.5 220.5 169.083 219.5 172.25 219.5C175.083 219.5 177.5 220.5 179.5 222.5C181.667 224.333 182.75 226.75 182.75 229.75V280.5C182.75 285.167 181.333 289 178.5 292C175.667 295 171.833 296.5 167 296.5H134.5ZM201.75 240.75C201.75 237.417 202.75 234.833 204.75 233C206.75 231.167 209.333 230.25 212.5 230.25C215.667 230.25 217.917 231 219.25 232.5C220.75 234 221.75 235.583 222.25 237.25C222.75 238.75 223 239.917 223 240.75V253.25C223 257.75 225.083 260 229.25 260H235.75C239.583 260 242.25 261 243.75 263C245.25 265 246 267.25 246 269.75C246 272.583 245.083 275 243.25 277C241.417 278.833 238.917 279.75 235.75 279.75H229.25C225.083 279.75 223 281.583 223 285.25V307C223 310.167 221.917 312.75 219.75 314.75C217.75 316.75 215.333 317.75 212.5 317.75C209.333 317.75 206.75 316.75 204.75 314.75C202.75 312.75 201.75 310.167 201.75 307V240.75ZM153.5 331.25C153.5 328.25 154.5 325.75 156.5 323.75C158.5 321.75 161.083 320.75 164.25 320.75C167.083 320.75 169.5 321.75 171.5 323.75C173.667 325.75 174.75 328.25 174.75 331.25V347C174.75 349.333 175.417 351.5 176.75 353.5C178.25 355.667 180.667 356.75 184 356.75H210.5C213.5 356.75 216 357.667 218 359.5C220 361.333 221 363.667 221 366.5C221 369.667 220 372.167 218 374C216 375.833 213.5 376.75 210.5 376.75H169.5C165.167 376.75 161.417 375.333 158.25 372.5C155.083 369.833 153.5 366.083 153.5 361.25V331.25ZM139.5 270C139.5 272.167 139.667 273.75 140 274.75C140.5 275.75 141.917 276.25 144.25 276.25H156.25C158.75 276.25 160.25 275.75 160.75 274.75C161.417 273.75 161.75 272.167 161.75 270V265.25C161.75 263.583 161.417 262.333 160.75 261.5C160.25 260.5 158.667 260 156 260H144.5C142.333 260 140.917 260.417 140.25 261.25C139.75 262.083 139.5 263.417 139.5 265.25V270Z" fill="#1A73E8"/>
<path d="M349.078 235.25C352.078 235.25 354.495 236.167 356.328 238C358.328 239.667 359.328 242 359.328 245C359.328 248 358.328 250.333 356.328 252C354.495 253.667 352.078 254.5 349.078 254.5H341.828C340.995 254.5 340.578 255.083 340.578 256.25C340.578 259.75 341.745 263 344.078 266C346.411 269 348.995 271.583 351.828 273.75C354.828 275.917 357.078 277.667 358.578 279C360.578 280.833 361.578 283.167 361.578 286C361.578 288.833 360.495 291.333 358.328 293.5C356.328 295.667 353.745 296.667 350.578 296.5C347.578 296.333 345.161 295.167 343.328 293L333.828 282.75C332.161 280.75 330.661 279.917 329.328 280.25C327.995 280.583 326.411 281.833 324.578 284C322.078 286.5 319.911 288.417 318.078 289.75C316.245 290.917 314.161 291.5 311.828 291.5C307.828 291.5 303.411 289.083 298.578 284.25L298.328 284C296.328 282.167 294.745 281 293.578 280.5C292.411 280 290.911 280.75 289.078 282.75L277.078 295.25C275.245 297.25 272.661 298.167 269.328 298C266.161 297.833 263.661 296.667 261.828 294.5C259.995 292.667 258.911 290.167 258.578 287C258.411 283.833 259.661 281.333 262.328 279.5C264.661 277.833 267.328 275.917 270.328 273.75C273.495 271.417 276.161 268.833 278.328 266C280.661 263.167 281.828 260 281.828 256.5C281.828 256.167 281.745 255.75 281.578 255.25C281.411 254.75 280.911 254.5 280.078 254.5H271.578C268.578 254.5 266.078 253.667 264.078 252C262.245 250.333 261.328 248 261.328 245C261.328 242 262.245 239.667 264.078 238C266.078 236.167 268.578 235.25 271.578 235.25H349.078ZM368.078 240.25C368.078 236.917 369.078 234.333 371.078 232.5C373.078 230.667 375.661 229.75 378.828 229.75C381.995 229.75 384.245 230.5 385.578 232C387.078 233.5 388.078 235.083 388.578 236.75C389.078 238.25 389.328 239.417 389.328 240.25V252.75C389.328 257.25 391.411 259.5 395.578 259.5H402.078C405.911 259.5 408.578 260.5 410.078 262.5C411.578 264.5 412.328 266.75 412.328 269.25C412.328 272.083 411.411 274.5 409.578 276.5C407.745 278.333 405.245 279.25 402.078 279.25H395.578C391.411 279.25 389.328 281.083 389.328 284.75V307.25C389.328 310.417 388.245 313 386.078 315C384.078 317 381.661 318 378.828 318C375.661 318 373.078 317 371.078 315C369.078 313 368.078 310.417 368.078 307.25V240.25ZM383.578 372.75C383.578 375.75 382.578 378.167 380.578 380C378.578 382 376.078 383 373.078 383C370.078 383 367.578 382 365.578 380C363.745 378.167 362.828 375.75 362.828 372.75V354C362.828 350.833 361.995 348.25 360.328 346.25C358.828 344.417 356.495 343.5 353.328 343.5H328.078C324.911 343.5 322.328 342.583 320.328 340.75C318.495 339.083 317.578 336.667 317.578 333.5C317.578 330.5 318.495 328.167 320.328 326.5C322.328 324.667 324.911 323.75 328.078 323.75H368.078C372.411 323.75 376.078 325.083 379.078 327.75C382.078 330.25 383.578 334.083 383.578 339.25V372.75ZM308.078 272C309.745 273.167 311.578 273.167 313.578 272C315.745 270.167 317.328 267.917 318.328 265.25C319.328 262.583 319.911 259.667 320.078 256.5C320.078 255 319.495 254.25 318.328 254.25H303.078C301.911 254.25 301.328 255 301.328 256.5C301.495 259.667 302.078 262.583 303.078 265.25C304.245 267.917 305.911 270.167 308.078 272Z" fill="#1A73E8"/>
<path d="M443.338 296.5C438.671 296.5 434.838 295 431.838 292C428.838 289 427.338 285.167 427.338 280.5V230.25C427.338 227.417 428.338 225.083 430.338 223.25C432.338 221.25 434.921 220.25 438.088 220.25C440.921 220.25 443.338 221.25 445.338 223.25C447.505 225.083 448.588 227.417 448.588 230.25V236.25C448.588 238.083 449.005 239.417 449.838 240.25C450.671 240.917 451.505 241.167 452.338 241H466.338C469.171 241 470.588 239.333 470.588 236V229.75C470.588 226.75 471.505 224.333 473.338 222.5C475.338 220.5 477.921 219.5 481.088 219.5C483.921 219.5 486.338 220.5 488.338 222.5C490.505 224.333 491.588 226.75 491.588 229.75V280.5C491.588 285.167 490.171 289 487.338 292C484.505 295 480.671 296.5 475.838 296.5H443.338ZM510.588 240.75C510.588 237.417 511.588 234.833 513.588 233C515.588 231.167 518.171 230.25 521.338 230.25C524.505 230.25 526.755 231 528.088 232.5C529.588 234 530.588 235.583 531.088 237.25C531.588 238.75 531.838 239.917 531.838 240.75V253.25C531.838 257.75 533.921 260 538.088 260H544.588C548.421 260 551.088 261 552.588 263C554.088 265 554.838 267.25 554.838 269.75C554.838 272.583 553.921 275 552.088 277C550.255 278.833 547.755 279.75 544.588 279.75H538.088C533.921 279.75 531.838 281.583 531.838 285.25V307C531.838 310.167 530.755 312.75 528.588 314.75C526.588 316.75 524.171 317.75 521.338 317.75C518.171 317.75 515.588 316.75 513.588 314.75C511.588 312.75 510.588 310.167 510.588 307V240.75ZM462.338 331.25C462.338 328.25 463.338 325.75 465.338 323.75C467.338 321.75 469.921 320.75 473.088 320.75C475.921 320.75 478.338 321.75 480.338 323.75C482.505 325.75 483.588 328.25 483.588 331.25V347C483.588 349.333 484.255 351.5 485.588 353.5C487.088 355.667 489.505 356.75 492.838 356.75H519.338C522.338 356.75 524.838 357.667 526.838 359.5C528.838 361.333 529.838 363.667 529.838 366.5C529.838 369.667 528.838 372.167 526.838 374C524.838 375.833 522.338 376.75 519.338 376.75H478.338C474.005 376.75 470.255 375.333 467.088 372.5C463.921 369.833 462.338 366.083 462.338 361.25V331.25ZM448.338 270C448.338 272.167 448.505 273.75 448.838 274.75C449.338 275.75 450.755 276.25 453.088 276.25H465.088C467.588 276.25 469.088 275.75 469.588 274.75C470.255 273.75 470.588 272.167 470.588 270V265.25C470.588 263.583 470.255 262.333 469.588 261.5C469.088 260.5 467.505 260 464.838 260H453.338C451.171 260 449.755 260.417 449.088 261.25C448.588 262.083 448.338 263.417 448.338 265.25V270Z" fill="#1A73E8"/>
<path d="M657.916 235.25C660.916 235.25 663.333 236.167 665.166 238C667.166 239.667 668.166 242 668.166 245C668.166 248 667.166 250.333 665.166 252C663.333 253.667 660.916 254.5 657.916 254.5H650.666C649.833 254.5 649.416 255.083 649.416 256.25C649.416 259.75 650.583 263 652.916 266C655.249 269 657.833 271.583 660.666 273.75C663.666 275.917 665.916 277.667 667.416 279C669.416 280.833 670.416 283.167 670.416 286C670.416 288.833 669.333 291.333 667.166 293.5C665.166 295.667 662.583 296.667 659.416 296.5C656.416 296.333 653.999 295.167 652.166 293L642.666 282.75C640.999 280.75 639.499 279.917 638.166 280.25C636.833 280.583 635.249 281.833 633.416 284C630.916 286.5 628.749 288.417 626.916 289.75C625.083 290.917 622.999 291.5 620.666 291.5C616.666 291.5 612.249 289.083 607.416 284.25L607.166 284C605.166 282.167 603.583 281 602.416 280.5C601.249 280 599.749 280.75 597.916 282.75L585.916 295.25C584.083 297.25 581.499 298.167 578.166 298C574.999 297.833 572.499 296.667 570.666 294.5C568.833 292.667 567.749 290.167 567.416 287C567.249 283.833 568.499 281.333 571.166 279.5C573.499 277.833 576.166 275.917 579.166 273.75C582.333 271.417 584.999 268.833 587.166 266C589.499 263.167 590.666 260 590.666 256.5C590.666 256.167 590.583 255.75 590.416 255.25C590.249 254.75 589.749 254.5 588.916 254.5H580.416C577.416 254.5 574.916 253.667 572.916 252C571.083 250.333 570.166 248 570.166 245C570.166 242 571.083 239.667 572.916 238C574.916 236.167 577.416 235.25 580.416 235.25H657.916ZM676.916 240.25C676.916 236.917 677.916 234.333 679.916 232.5C681.916 230.667 684.499 229.75 687.666 229.75C690.833 229.75 693.083 230.5 694.416 232C695.916 233.5 696.916 235.083 697.416 236.75C697.916 238.25 698.166 239.417 698.166 240.25V252.75C698.166 257.25 700.249 259.5 704.416 259.5H710.916C714.749 259.5 717.416 260.5 718.916 262.5C720.416 264.5 721.166 266.75 721.166 269.25C721.166 272.083 720.249 274.5 718.416 276.5C716.583 278.333 714.083 279.25 710.916 279.25H704.416C700.249 279.25 698.166 281.083 698.166 284.75V307.25C698.166 310.417 697.083 313 694.916 315C692.916 317 690.499 318 687.666 318C684.499 318 681.916 317 679.916 315C677.916 313 676.916 310.417 676.916 307.25V240.25ZM692.416 372.75C692.416 375.75 691.416 378.167 689.416 380C687.416 382 684.916 383 681.916 383C678.916 383 676.416 382 674.416 380C672.583 378.167 671.666 375.75 671.666 372.75V354C671.666 350.833 670.833 348.25 669.166 346.25C667.666 344.417 665.333 343.5 662.166 343.5H636.916C633.749 343.5 631.166 342.583 629.166 340.75C627.333 339.083 626.416 336.667 626.416 333.5C626.416 330.5 627.333 328.167 629.166 326.5C631.166 324.667 633.749 323.75 636.916 323.75H676.916C681.249 323.75 684.916 325.083 687.916 327.75C690.916 330.25 692.416 334.083 692.416 339.25V372.75ZM616.916 272C618.583 273.167 620.416 273.167 622.416 272C624.583 270.167 626.166 267.917 627.166 265.25C628.166 262.583 628.749 259.667 628.916 256.5C628.916 255 628.333 254.25 627.166 254.25H611.916C610.749 254.25 610.166 255 610.166 256.5C610.333 259.667 610.916 262.583 611.916 265.25C613.083 267.917 614.749 270.167 616.916 272Z" fill="#1A73E8"/>
<path d="M788.975 271.75C788.975 269.75 789.225 267.75 789.725 265.75C790.225 263.583 790.808 261.917 791.475 260.75H789.975C786.975 260.75 784.558 259.833 782.725 258C780.891 256 779.975 253.5 779.975 250.5C779.975 247.333 780.891 244.917 782.725 243.25C784.558 241.417 786.975 240.5 789.975 240.5H805.475C806.308 240.5 807.141 240.167 807.975 239.5C808.975 238.833 809.475 237.667 809.475 236V228.5C809.475 225.5 810.475 223 812.475 221C814.475 219 816.891 218 819.725 218C822.891 218 825.475 219 827.475 221C829.475 223 830.475 225.5 830.475 228.5V235.75C830.475 237.583 830.975 238.833 831.975 239.5C832.975 240.167 833.808 240.5 834.475 240.5H849.725C852.725 240.5 855.141 241.417 856.975 243.25C858.975 244.917 859.975 247.333 859.975 250.5C859.975 253.5 858.975 256 856.975 258C855.141 259.833 852.725 260.75 849.725 260.75H847.975C848.808 261.917 849.475 263.5 849.975 265.5C850.641 267.333 850.975 269.417 850.975 271.75C850.975 280.25 847.891 287.333 841.725 293C835.725 298.5 828.391 301.25 819.725 301.25C814.225 301.25 809.141 300 804.475 297.5C799.808 294.833 796.058 291.333 793.225 287C790.391 282.5 788.975 277.417 788.975 271.75ZM871.975 240.75C871.975 237.417 872.975 234.833 874.975 233C876.975 231.167 879.558 230.25 882.725 230.25C885.891 230.25 888.141 231 889.475 232.5C890.975 234 891.975 235.583 892.475 237.25C892.975 238.75 893.225 239.917 893.225 240.75V253.25C893.225 257.75 895.308 260 899.475 260H905.975C909.808 260 912.475 261 913.975 263C915.475 265 916.225 267.25 916.225 269.75C916.225 272.583 915.308 275 913.475 277C911.641 278.833 909.141 279.75 905.975 279.75H899.475C895.308 279.75 893.225 281.583 893.225 285.25V307C893.225 310.167 892.141 312.75 889.975 314.75C887.975 316.75 885.558 317.75 882.725 317.75C879.558 317.75 876.975 316.75 874.975 314.75C872.975 312.75 871.975 310.167 871.975 307V240.75ZM808.225 271.5C808.225 274.667 809.391 277.333 811.725 279.5C814.225 281.5 816.891 282.5 819.725 282.5C822.891 282.5 825.641 281.5 827.975 279.5C830.308 277.333 831.475 274.667 831.475 271.5C831.475 267.833 830.308 265.083 827.975 263.25C825.641 261.25 822.891 260.25 819.725 260.25C816.891 260.25 814.225 261.25 811.725 263.25C809.391 265.083 808.225 267.833 808.225 271.5Z" fill="#1A73E8"/>
<path d="M987.744 348.25C992.577 348.25 996.411 349.5 999.244 352C1002.24 354.667 1003.74 358.583 1003.74 363.75V387C1003.74 391.667 1002.16 395.333 998.994 398C995.827 400.833 992.077 402.25 987.744 402.25H970.744C967.577 402.25 965.577 402.917 964.744 404.25C964.077 405.583 963.744 407 963.744 408.5V410.5C963.744 412.167 964.077 413.75 964.744 415.25C965.577 416.75 967.827 417.5 971.494 417.5H995.244C998.244 417.5 1000.66 418.333 1002.49 420C1004.49 421.833 1005.49 424.333 1005.49 427.5C1005.49 430.333 1004.49 432.75 1002.49 434.75C1000.66 436.75 998.244 437.75 995.244 437.75H958.244C953.911 437.75 950.161 436.25 946.994 433.25C943.827 430.25 942.244 426.417 942.244 421.75V398.75C942.244 393.917 943.911 390 947.244 387C950.577 384 954.577 382.5 959.244 382.5H975.494C978.494 382.5 980.494 381.833 981.494 380.5C982.494 379.333 982.994 378.083 982.994 376.75V374.75C982.994 373.25 982.494 371.75 981.494 370.25C980.661 368.75 978.411 368 974.744 368H953.494C950.494 368 947.994 367.083 945.994 365.25C943.994 363.583 942.994 361.167 942.994 358C942.994 355 943.994 352.583 945.994 350.75C947.994 349.083 950.494 348.25 953.494 348.25H987.744ZM938.744 245.25C938.744 242.417 939.744 240.083 941.744 238.25C943.744 236.25 946.327 235.25 949.494 235.25C952.327 235.25 954.744 236.25 956.744 238.25C958.911 240.083 959.994 242.417 959.994 245.25V266.75C959.994 269.417 960.661 271.75 961.994 273.75C963.494 275.75 965.911 276.75 969.244 276.75H996.244C999.244 276.75 1001.74 277.583 1003.74 279.25C1005.91 280.917 1006.99 283.333 1006.99 286.5C1006.99 289.5 1005.91 292 1003.74 294C1001.74 295.833 999.244 296.75 996.244 296.75H954.744C950.411 296.75 946.661 295.417 943.494 292.75C940.327 289.917 938.744 286 938.744 281V245.25ZM1006.99 311.75C1010.49 311.75 1013.08 312.75 1014.74 314.75C1016.58 316.75 1017.49 319.083 1017.49 321.75C1017.49 324.417 1016.49 326.75 1014.49 328.75C1012.66 330.583 1010.16 331.5 1006.99 331.5H938.244C935.077 331.5 932.494 330.583 930.494 328.75C928.494 326.75 927.494 324.417 927.494 321.75C927.494 319.083 928.327 316.75 929.994 314.75C931.827 312.75 934.577 311.75 938.244 311.75H1006.99Z" fill="#1A73E8"/>
<path d="M1140.67 306.25C1140.67 309.417 1139.83 312 1138.17 314C1136.5 315.833 1134.17 316.75 1131.17 316.75C1128 316.75 1125.5 315.833 1123.67 314C1122 312 1121.17 309.417 1121.17 306.25V282.25C1121.17 279.25 1120.58 277.333 1119.42 276.5C1118.42 275.5 1116.67 275 1114.17 275H1109.42C1106.42 275 1104 274.083 1102.17 272.25C1100.5 279.917 1096.5 286.083 1090.17 290.75C1084 295.25 1076.92 297.5 1068.92 297.5C1062.75 297.5 1057.08 296.167 1051.92 293.5C1046.75 290.667 1042.58 286.833 1039.42 282C1036.42 277 1034.92 271.25 1034.92 264.75C1034.92 258.417 1036.42 252.833 1039.42 248C1042.58 243.167 1046.75 239.417 1051.92 236.75C1057.08 233.917 1062.75 232.5 1068.92 232.5C1076.92 232.5 1084.08 234.833 1090.42 239.5C1096.75 244.167 1100.75 250.333 1102.42 258C1103.92 256.167 1106.25 255.25 1109.42 255.25H1114.17C1117 255.25 1118.83 254.667 1119.67 253.5C1120.67 252.333 1121.17 250.417 1121.17 247.75V241C1121.17 240.167 1121.33 239 1121.67 237.5C1122 235.833 1122.83 234.25 1124.17 232.75C1125.67 231.25 1128 230.417 1131.17 230.25C1134.33 230.25 1136.67 231.25 1138.17 233.25C1139.83 235.25 1140.67 237.833 1140.67 241V306.25ZM1172.42 306.75C1172.42 309.917 1171.5 312.5 1169.67 314.5C1167.83 316.5 1165.33 317.5 1162.17 317.5C1159.33 317.5 1156.83 316.5 1154.67 314.5C1152.67 312.5 1151.67 309.917 1151.67 306.75V240.5C1151.67 239.667 1151.83 238.5 1152.17 237C1152.67 235.333 1153.67 233.75 1155.17 232.25C1156.67 230.75 1159 230 1162.17 230C1165.5 230 1168 231 1169.67 233C1171.5 234.833 1172.42 237.333 1172.42 240.5V306.75ZM1055.92 264.75C1055.92 268.75 1057.17 271.917 1059.67 274.25C1062.33 276.417 1065.42 277.5 1068.92 277.5C1072.75 277.5 1075.92 276.417 1078.42 274.25C1080.92 271.917 1082.17 268.75 1082.17 264.75C1082.17 260.917 1080.92 257.917 1078.42 255.75C1075.92 253.417 1072.75 252.25 1068.92 252.25C1065.42 252.25 1062.33 253.417 1059.67 255.75C1057.17 257.917 1055.92 260.917 1055.92 264.75Z" fill="#1A73E8"/>
<path d="M1263.41 296.5C1258.74 296.5 1254.91 295 1251.91 292C1248.91 289 1247.41 285.167 1247.41 280.5V230.25C1247.41 227.417 1248.41 225.083 1250.41 223.25C1252.41 221.25 1254.99 220.25 1258.16 220.25C1260.99 220.25 1263.41 221.25 1265.41 223.25C1267.57 225.083 1268.66 227.417 1268.66 230.25V236.25C1268.66 238.083 1269.07 239.417 1269.91 240.25C1270.74 240.917 1271.57 241.167 1272.41 241H1286.41C1289.24 241 1290.66 239.333 1290.66 236V229.75C1290.66 226.75 1291.57 224.333 1293.41 222.5C1295.41 220.5 1297.99 219.5 1301.16 219.5C1303.99 219.5 1306.41 220.5 1308.41 222.5C1310.57 224.333 1311.66 226.75 1311.66 229.75V280.5C1311.66 285.167 1310.24 289 1307.41 292C1304.57 295 1300.74 296.5 1295.91 296.5H1263.41ZM1323.91 352.75C1322.07 352.75 1321.32 353.5 1321.66 355C1322.32 356.667 1324.24 358.583 1327.41 360.75C1330.74 362.917 1334.24 364.917 1337.91 366.75C1341.57 368.583 1344.16 370.083 1345.66 371.25C1347.82 372.417 1349.16 374.5 1349.66 377.5C1350.32 380.667 1349.74 383.417 1347.91 385.75C1346.24 387.583 1344.07 388.75 1341.41 389.25C1338.91 389.917 1336.24 389.417 1333.41 387.75L1319.16 377C1316.49 375.167 1314.24 374.25 1312.41 374.25C1310.57 374.25 1308.41 375.167 1305.91 377L1291.16 388C1288.66 389.833 1285.91 390.667 1282.91 390.5C1280.07 390.5 1277.66 389.417 1275.66 387.25C1273.66 384.917 1272.66 382.333 1272.66 379.5C1272.82 376.667 1274.16 374.417 1276.66 372.75C1278.99 371.083 1281.91 369.25 1285.41 367.25C1289.07 365.417 1292.49 363.417 1295.66 361.25C1298.82 359.083 1300.66 357 1301.16 355C1301.32 354.333 1301.32 353.833 1301.16 353.5C1300.82 353 1300.07 352.75 1298.91 352.75H1285.16C1281.82 352.75 1279.16 351.917 1277.16 350.25C1275.16 348.75 1274.16 346.5 1274.16 343.5C1274.16 340.5 1275.24 338.25 1277.41 336.75C1279.57 335.083 1282.16 334.25 1285.16 334.25H1297.66C1299.32 334.25 1300.32 333.667 1300.66 332.5C1300.99 331.333 1301.16 330.417 1301.16 329.75V325.75C1301.16 322.75 1302.16 320.25 1304.16 318.25C1306.16 316.25 1308.66 315.25 1311.66 315.25C1314.66 315.25 1317.16 316.25 1319.16 318.25C1321.32 320.25 1322.41 322.75 1322.41 325.75V329.5C1322.41 330.5 1322.57 331.583 1322.91 332.75C1323.41 333.75 1324.49 334.25 1326.16 334.25H1338.41C1341.41 334.25 1343.91 335.083 1345.91 336.75C1347.91 338.25 1348.91 340.5 1348.91 343.5C1348.91 346.5 1347.91 348.75 1345.91 350.25C1343.91 351.917 1341.41 352.75 1338.41 352.75H1323.91ZM1351.16 306C1351.16 309.167 1350.16 311.75 1348.16 313.75C1346.32 315.75 1343.91 316.75 1340.91 316.75C1337.91 316.75 1335.32 315.75 1333.16 313.75C1330.99 311.75 1329.91 309.167 1329.91 306V240.25C1329.91 239.417 1330.16 238.25 1330.66 236.75C1331.32 235.083 1332.41 233.5 1333.91 232C1335.57 230.5 1337.91 229.75 1340.91 229.75C1344.07 229.75 1346.57 230.75 1348.41 232.75C1350.24 234.583 1351.16 237.083 1351.16 240.25V306ZM1268.41 270C1268.41 272.167 1268.57 273.75 1268.91 274.75C1269.41 275.75 1270.82 276.25 1273.16 276.25H1285.16C1287.66 276.25 1289.16 275.75 1289.66 274.75C1290.32 273.75 1290.66 272.167 1290.66 270V265.25C1290.66 263.583 1290.32 262.333 1289.66 261.5C1289.16 260.5 1287.57 260 1284.91 260H1273.41C1271.24 260 1269.82 260.417 1269.16 261.25C1268.66 262.083 1268.41 263.417 1268.41 265.25V270Z" fill="#1A73E8"/>
<path d="M1456.82 240.75C1456.82 237.417 1457.82 234.833 1459.82 233C1461.82 231.167 1464.4 230.25 1467.57 230.25C1470.74 230.25 1472.99 231 1474.32 232.5C1475.82 234 1476.82 235.583 1477.32 237.25C1477.82 238.75 1478.07 239.917 1478.07 240.75V253.25C1478.07 257.75 1480.15 260 1484.32 260H1490.82C1494.65 260 1497.32 261 1498.82 263C1500.32 265 1501.07 267.25 1501.07 269.75C1501.07 272.583 1500.15 275 1498.32 277C1496.49 278.833 1493.99 279.75 1490.82 279.75H1484.32C1480.15 279.75 1478.07 281.583 1478.07 285.25V307C1478.07 310.167 1476.99 312.75 1474.82 314.75C1472.82 316.75 1470.4 317.75 1467.57 317.75C1464.4 317.75 1461.82 316.75 1459.82 314.75C1457.82 312.75 1456.82 310.167 1456.82 307V240.75ZM1376.07 245.25C1376.07 242.417 1377.07 240.083 1379.07 238.25C1381.07 236.25 1383.65 235.25 1386.82 235.25C1389.65 235.25 1392.07 236.25 1394.07 238.25C1396.24 240.083 1397.32 242.417 1397.32 245.25V266.75C1397.32 269.417 1397.99 271.75 1399.32 273.75C1400.82 275.75 1403.24 276.75 1406.57 276.75H1433.57C1436.57 276.75 1439.07 277.583 1441.07 279.25C1443.24 280.917 1444.32 283.333 1444.32 286.5C1444.32 289.5 1443.24 292 1441.07 294C1439.07 295.833 1436.57 296.75 1433.57 296.75H1392.07C1387.74 296.75 1383.99 295.417 1380.82 292.75C1377.65 289.917 1376.07 286 1376.07 281V245.25Z" fill="#1A73E8"/>
<path d="M1523.46 245.25C1523.46 242.417 1524.46 240.083 1526.46 238.25C1528.46 236.25 1531.04 235.25 1534.21 235.25C1537.04 235.25 1539.46 236.25 1541.46 238.25C1543.63 240.083 1544.71 242.417 1544.71 245.25V266.75C1544.71 269.417 1545.38 271.75 1546.71 273.75C1548.21 275.75 1550.63 276.75 1553.96 276.75H1580.96C1583.96 276.75 1586.46 277.583 1588.46 279.25C1590.63 280.917 1591.71 283.333 1591.71 286.5C1591.71 289.5 1590.63 292 1588.46 294C1586.46 295.833 1583.96 296.75 1580.96 296.75H1539.46C1535.13 296.75 1531.38 295.417 1528.21 292.75C1525.04 289.917 1523.46 286 1523.46 281V245.25ZM1524.96 353.25C1524.96 350.25 1525.96 347.75 1527.96 345.75C1529.96 343.75 1532.54 342.75 1535.71 342.75C1538.54 342.75 1540.96 343.75 1542.96 345.75C1545.13 347.75 1546.21 350.25 1546.21 353.25V369.25C1546.21 371.583 1546.88 373.75 1548.21 375.75C1549.71 377.917 1552.13 379 1555.46 379H1581.96C1584.96 379 1587.46 379.917 1589.46 381.75C1591.46 383.583 1592.46 385.917 1592.46 388.75C1592.46 391.917 1591.46 394.417 1589.46 396.25C1587.46 398.083 1584.96 399 1581.96 399H1540.96C1536.63 399 1532.88 397.583 1529.71 394.75C1526.54 392.083 1524.96 388.333 1524.96 383.5V353.25ZM1591.71 311.75C1595.21 311.75 1597.79 312.75 1599.46 314.75C1601.29 316.75 1602.21 319.083 1602.21 321.75C1602.21 324.417 1601.21 326.75 1599.21 328.75C1597.38 330.583 1594.88 331.5 1591.71 331.5H1522.96C1519.79 331.5 1517.21 330.583 1515.21 328.75C1513.21 326.75 1512.21 324.417 1512.21 321.75C1512.21 319.083 1513.04 316.75 1514.71 314.75C1516.54 312.75 1519.29 311.75 1522.96 311.75H1591.71Z" fill="#1A73E8"/>
<path d="M1689.43 296.5C1684.76 296.5 1680.93 295 1677.93 292C1674.93 289 1673.43 285.167 1673.43 280.5V230.25C1673.43 227.417 1674.43 225.083 1676.43 223.25C1678.43 221.25 1681.01 220.25 1684.18 220.25C1687.01 220.25 1689.43 221.25 1691.43 223.25C1693.6 225.083 1694.68 227.417 1694.68 230.25V236.25C1694.68 238.083 1695.1 239.417 1695.93 240.25C1696.76 240.917 1697.6 241.167 1698.43 241H1712.43C1715.26 241 1716.68 239.333 1716.68 236V229.75C1716.68 226.75 1717.6 224.333 1719.43 222.5C1721.43 220.5 1724.01 219.5 1727.18 219.5C1730.01 219.5 1732.43 220.5 1734.43 222.5C1736.6 224.333 1737.68 226.75 1737.68 229.75V280.5C1737.68 285.167 1736.26 289 1733.43 292C1730.6 295 1726.76 296.5 1721.93 296.5H1689.43ZM1763.18 324.5C1768.01 324.5 1771.85 325.833 1774.68 328.5C1777.68 331 1779.18 334.833 1779.18 340V363.25C1779.18 367.917 1777.6 371.583 1774.43 374.25C1771.26 377.083 1767.51 378.5 1763.18 378.5H1746.18C1743.01 378.5 1741.01 379.167 1740.18 380.5C1739.51 381.833 1739.18 383.25 1739.18 384.75V386.75C1739.18 388.417 1739.51 390 1740.18 391.5C1741.01 393 1743.26 393.75 1746.93 393.75H1770.68C1773.68 393.75 1776.1 394.583 1777.93 396.25C1779.93 398.083 1780.93 400.583 1780.93 403.75C1780.93 406.583 1779.93 409 1777.93 411C1776.1 413 1773.68 414 1770.68 414H1733.68C1729.35 414 1725.6 412.5 1722.43 409.5C1719.26 406.5 1717.68 402.667 1717.68 398V375C1717.68 370.167 1719.35 366.25 1722.68 363.25C1726.01 360.25 1730.01 358.75 1734.68 358.75H1750.93C1753.93 358.75 1755.93 358.083 1756.93 356.75C1757.93 355.583 1758.43 354.333 1758.43 353V351C1758.43 349.5 1757.93 348 1756.93 346.5C1756.1 345 1753.85 344.25 1750.18 344.25H1728.93C1725.93 344.25 1723.43 343.333 1721.43 341.5C1719.43 339.833 1718.43 337.417 1718.43 334.25C1718.43 331.25 1719.43 328.917 1721.43 327.25C1723.43 325.417 1725.93 324.5 1728.93 324.5H1763.18ZM1784.68 307C1784.68 310.167 1783.68 312.75 1781.68 314.75C1779.85 316.75 1777.35 317.75 1774.18 317.75C1771.51 317.75 1769.1 316.75 1766.93 314.75C1764.93 312.75 1763.93 310.167 1763.93 307V298.5C1763.93 296.667 1763.26 295.333 1761.93 294.5C1760.76 293.667 1759.51 293.25 1758.18 293.25H1752.18C1749.01 293.25 1746.43 292.417 1744.43 290.75C1742.6 289.083 1741.68 286.917 1741.68 284.25C1741.68 281.417 1742.43 279.167 1743.93 277.5C1745.6 275.833 1748.35 275 1752.18 275H1758.18C1762.01 275 1763.93 273.25 1763.93 269.75V264.75C1763.93 262.417 1763.43 260.917 1762.43 260.25C1761.43 259.417 1760.01 259 1758.18 259H1752.18C1749.01 259 1746.43 258.167 1744.43 256.5C1742.6 254.667 1741.68 252.417 1741.68 249.75C1741.68 246.917 1742.43 244.667 1743.93 243C1745.6 241.333 1748.35 240.5 1752.18 240.5H1758.18C1759.51 240.5 1760.76 240.083 1761.93 239.25C1763.26 238.25 1763.93 236.833 1763.93 235V232C1763.93 231.167 1764.1 230 1764.43 228.5C1764.93 226.833 1765.93 225.333 1767.43 224C1768.93 222.5 1771.18 221.75 1774.18 221.75C1777.51 221.75 1780.1 222.667 1781.93 224.5C1783.76 226.333 1784.68 228.833 1784.68 232V307ZM1694.43 270C1694.43 272.167 1694.6 273.75 1694.93 274.75C1695.43 275.75 1696.85 276.25 1699.18 276.25H1711.18C1713.68 276.25 1715.18 275.75 1715.68 274.75C1716.35 273.75 1716.68 272.167 1716.68 270V265.25C1716.68 263.583 1716.35 262.333 1715.68 261.5C1715.18 260.5 1713.6 260 1710.93 260H1699.43C1697.26 260 1695.85 260.417 1695.18 261.25C1694.68 262.083 1694.43 263.417 1694.43 265.25V270Z" fill="#1A73E8"/>
<path d="M127.75 711.5C124.583 711.5 122 710.583 120 708.75C118.167 706.917 117.25 704.5 117.25 701.5C117.25 698.333 118.167 695.917 120 694.25C122 692.583 124.583 691.75 127.75 691.75H130.75C133.25 691.75 134.5 690.25 134.5 687.25V675C134.5 671.5 133.25 669.75 130.75 669.75H128.25C125.25 669.75 122.75 668.917 120.75 667.25C118.917 665.583 118 663.167 118 660C118 657.167 118.917 654.917 120.75 653.25C122.75 651.417 125.167 650.417 128 650.25H191.25C194.25 650.25 196.667 651.167 198.5 653C200.5 654.833 201.5 657.167 201.5 660C201.5 663.167 200.5 665.583 198.5 667.25C196.667 668.917 194.25 669.75 191.25 669.75H189.5C188.333 669.75 187.25 670.167 186.25 671C185.25 671.667 184.75 672.833 184.75 674.5V687.25C184.75 690.25 186.083 691.75 188.75 691.75H192C194.833 691.75 197.25 692.583 199.25 694.25C201.25 695.917 202.25 698.333 202.25 701.5C202.25 704.5 201.25 706.917 199.25 708.75C197.25 710.583 194.833 711.5 192 711.5H127.75ZM170 756.25C170 759.083 169.083 761.5 167.25 763.5C165.583 765.667 163 766.75 159.5 766.75C156.333 766.75 153.75 765.75 151.75 763.75C149.917 761.917 149 759.417 149 756.25V751C149 746.333 146.833 744 142.5 744H125C121.5 744 118.917 743 117.25 741C115.583 739 114.75 736.833 114.75 734.5C114.75 731.667 115.667 729.333 117.5 727.5C119.5 725.667 122 724.75 125 724.75H194.25C197.417 724.75 199.917 725.667 201.75 727.5C203.75 729.333 204.75 731.667 204.75 734.5C204.75 736.833 203.833 739 202 741C200.333 743 197.75 744 194.25 744H176.5C172.167 744 170 746.417 170 751.25V756.25ZM166.25 676C166.25 673.167 165.583 671.417 164.25 670.75C163.083 670.083 161.833 669.75 160.5 669.75H159C157.667 669.75 156.333 670.083 155 670.75C153.833 671.417 153.25 673.083 153.25 675.75V687C153.25 688.667 153.75 689.917 154.75 690.75C155.917 691.583 157.333 692 159 692H160.5C162 692 163.333 691.667 164.5 691C165.667 690.167 166.25 688.75 166.25 686.75V676Z" fill="#FF6D7F"/>
<path d="M281.422 621C286.255 621 290.089 622.333 292.922 625C295.922 627.667 297.422 631.583 297.422 636.75V660.25C297.422 664.917 295.839 668.667 292.672 671.5C289.505 674.333 285.755 675.75 281.422 675.75H263.672C260.505 675.75 258.505 676.5 257.672 678C257.005 679.333 256.672 680.667 256.672 682V683.75C256.672 685.417 257.005 687.167 257.672 689C258.505 690.833 260.755 691.75 264.422 691.75H290.172C293.172 691.75 295.589 692.667 297.422 694.5C299.422 696.333 300.422 698.833 300.422 702C300.422 705 299.422 707.417 297.422 709.25C295.589 710.917 293.172 711.75 290.172 711.75H251.172C246.839 711.75 243.089 710.333 239.922 707.5C236.755 704.5 235.172 700.667 235.172 696V672.25C235.172 667.417 236.839 663.5 240.172 660.5C243.505 657.5 247.505 656 252.172 656H269.172C272.172 656 274.172 655.333 275.172 654C276.172 652.667 276.672 651.417 276.672 650.25V648C276.672 646.333 276.172 644.833 275.172 643.5C274.339 642 272.089 641.25 268.422 641.25H246.422C243.422 641.25 240.922 640.333 238.922 638.5C236.922 636.667 235.922 634.167 235.922 631C235.922 628.167 236.922 625.833 238.922 624C240.922 622 243.422 621 246.422 621H281.422ZM234.922 768.25C234.922 765.25 235.922 762.75 237.922 760.75C239.922 758.75 242.505 757.75 245.672 757.75C248.505 757.75 250.922 758.75 252.922 760.75C255.089 762.75 256.172 765.25 256.172 768.25V784.25C256.172 786.583 256.839 788.75 258.172 790.75C259.672 792.917 262.089 794 265.422 794H291.922C294.922 794 297.422 794.917 299.422 796.75C301.422 798.583 302.422 800.917 302.422 803.75C302.422 806.917 301.422 809.417 299.422 811.25C297.422 813.083 294.922 814 291.922 814H250.922C246.589 814 242.839 812.583 239.672 809.75C236.505 807.083 234.922 803.333 234.922 798.5V768.25ZM301.672 726.75C305.172 726.75 307.755 727.75 309.422 729.75C311.255 731.75 312.172 734.083 312.172 736.75C312.172 739.417 311.172 741.75 309.172 743.75C307.339 745.583 304.839 746.5 301.672 746.5H232.922C229.755 746.5 227.172 745.583 225.172 743.75C223.172 741.75 222.172 739.417 222.172 736.75C222.172 734.083 223.005 731.75 224.672 729.75C226.505 727.75 229.255 726.75 232.922 726.75H301.672Z" fill="#FF6D7F"/>
<path d="M399.393 711.5C394.726 711.5 390.893 710 387.893 707C384.893 704 383.393 700.167 383.393 695.5V645.25C383.393 642.417 384.393 640.083 386.393 638.25C388.393 636.25 390.976 635.25 394.143 635.25C396.976 635.25 399.393 636.25 401.393 638.25C403.559 640.083 404.643 642.417 404.643 645.25V651.25C404.643 653.083 405.059 654.417 405.893 655.25C406.726 655.917 407.559 656.167 408.393 656H422.393C425.226 656 426.643 654.333 426.643 651V644.75C426.643 641.75 427.559 639.333 429.393 637.5C431.393 635.5 433.976 634.5 437.143 634.5C439.976 634.5 442.393 635.5 444.393 637.5C446.559 639.333 447.643 641.75 447.643 644.75V695.5C447.643 700.167 446.226 704 443.393 707C440.559 710 436.726 711.5 431.893 711.5H399.393ZM466.643 655.75C466.643 652.417 467.643 649.833 469.643 648C471.643 646.167 474.226 645.25 477.393 645.25C480.559 645.25 482.809 646 484.143 647.5C485.643 649 486.643 650.583 487.143 652.25C487.643 653.75 487.893 654.917 487.893 655.75V668.25C487.893 672.75 489.976 675 494.143 675H500.643C504.476 675 507.143 676 508.643 678C510.143 680 510.893 682.25 510.893 684.75C510.893 687.583 509.976 690 508.143 692C506.309 693.833 503.809 694.75 500.643 694.75H494.143C489.976 694.75 487.893 696.583 487.893 700.25V722C487.893 725.167 486.809 727.75 484.643 729.75C482.643 731.75 480.226 732.75 477.393 732.75C474.226 732.75 471.643 731.75 469.643 729.75C467.643 727.75 466.643 725.167 466.643 722V655.75ZM404.393 685C404.393 687.167 404.559 688.75 404.893 689.75C405.393 690.75 406.809 691.25 409.143 691.25H421.143C423.643 691.25 425.143 690.75 425.643 689.75C426.309 688.75 426.643 687.167 426.643 685V680.25C426.643 678.583 426.309 677.333 425.643 676.5C425.143 675.5 423.559 675 420.893 675H409.393C407.226 675 405.809 675.417 405.143 676.25C404.643 677.083 404.393 678.417 404.393 680.25V685Z" fill="#FF6D7F"/>
<path d="M541.971 711.5C537.304 711.5 533.471 710 530.471 707C527.471 704 525.971 700.167 525.971 695.5V666C525.971 661.167 527.471 657.333 530.471 654.5C533.471 651.667 537.304 650.25 541.971 650.25H581.471C584.471 650.25 586.971 651.167 588.971 653C590.971 654.833 591.971 657.333 591.971 660.5C591.971 663.5 590.971 665.917 588.971 667.75C586.971 669.417 584.471 670.25 581.471 670.25H555.971C552.971 670.25 550.721 671.083 549.221 672.75C547.887 674.417 547.221 676.417 547.221 678.75V681.75C547.221 688.083 549.971 691.25 555.471 691.25H582.471C585.471 691.25 587.971 692.167 589.971 694C591.971 695.667 592.971 698.083 592.971 701.25C592.971 704.25 591.971 706.667 589.971 708.5C587.971 710.167 585.471 711.167 582.471 711.5H541.971ZM609.221 655.75C609.221 652.417 610.221 649.833 612.221 648C614.221 646.167 616.804 645.25 619.971 645.25C623.137 645.25 625.387 646 626.721 647.5C628.221 649 629.221 650.583 629.721 652.25C630.221 653.75 630.471 654.917 630.471 655.75V668.25C630.471 672.75 632.554 675 636.721 675H643.221C647.054 675 649.721 676 651.221 678C652.721 680 653.471 682.25 653.471 684.75C653.471 687.583 652.554 690 650.721 692C648.887 693.833 646.387 694.75 643.221 694.75H636.721C632.554 694.75 630.471 696.583 630.471 700.25V722C630.471 725.167 629.387 727.75 627.221 729.75C625.221 731.75 622.804 732.75 619.971 732.75C616.804 732.75 614.221 731.75 612.221 729.75C610.221 727.75 609.221 725.167 609.221 722V655.75Z" fill="#FF6D7F"/>
<path d="M725.348 680C725.348 673.667 726.848 668.083 729.848 663.25C733.014 658.417 737.181 654.667 742.348 652C747.514 649.167 753.181 647.75 759.348 647.75C765.514 647.75 771.181 649.167 776.348 652C781.514 654.667 785.681 658.417 788.848 663.25C792.014 668.083 793.598 673.667 793.598 680C793.598 686.5 792.014 692.25 788.848 697.25C785.681 702.083 781.514 705.917 776.348 708.75C771.181 711.417 765.514 712.75 759.348 712.75C753.181 712.75 747.514 711.417 742.348 708.75C737.181 705.917 733.014 702.083 729.848 697.25C726.848 692.25 725.348 686.5 725.348 680ZM765.848 756.25C765.848 759.083 764.931 761.5 763.098 763.5C761.431 765.667 758.848 766.75 755.348 766.75C752.181 766.75 749.598 765.75 747.598 763.75C745.764 761.917 744.848 759.417 744.848 756.25V751C744.848 746.333 742.681 744 738.348 744H725.098C721.598 744 719.014 743 717.348 741C715.681 739 714.848 736.833 714.848 734.5C714.848 731.667 715.764 729.333 717.598 727.5C719.598 725.667 722.098 724.75 725.098 724.75H794.348C797.514 724.75 800.014 725.667 801.848 727.5C803.848 729.333 804.848 731.667 804.848 734.5C804.848 736.833 803.931 739 802.098 741C800.431 743 797.848 744 794.348 744H772.348C768.014 744 765.848 746.417 765.848 751.25V756.25ZM834.848 721C834.848 724.167 833.848 726.75 831.848 728.75C830.014 730.75 827.598 731.75 824.598 731.75C821.598 731.75 819.014 730.75 816.848 728.75C814.681 726.75 813.598 724.167 813.598 721V654.75C813.598 653.917 813.848 652.75 814.348 651.25C815.014 649.583 816.098 648 817.598 646.5C819.264 645 821.598 644.25 824.598 644.25C827.764 644.25 830.264 645.25 832.098 647.25C833.931 649.083 834.848 651.583 834.848 654.75V721ZM746.348 680C746.348 684 747.598 687.167 750.098 689.5C752.764 691.667 755.848 692.75 759.348 692.75C763.181 692.75 766.348 691.667 768.848 689.5C771.348 687.167 772.598 684 772.598 680C772.598 676.167 771.348 673.167 768.848 671C766.348 668.667 763.181 667.5 759.348 667.5C755.848 667.5 752.764 668.667 750.098 671C747.598 673.167 746.348 676.167 746.348 680Z" fill="#FF6D7F"/>
<path d="M961.955 721.25C961.955 724.417 961.122 727 959.455 729C957.788 730.833 955.455 731.75 952.455 731.75C949.288 731.75 946.788 730.833 944.955 729C943.288 727 942.455 724.417 942.455 721.25V697.25C942.455 694.25 941.872 692.333 940.705 691.5C939.705 690.5 937.955 690 935.455 690H930.705C927.705 690 925.288 689.083 923.455 687.25C921.788 694.917 917.788 701.083 911.455 705.75C905.288 710.25 898.205 712.5 890.205 712.5C884.038 712.5 878.372 711.167 873.205 708.5C868.038 705.667 863.872 701.833 860.705 697C857.705 692 856.205 686.25 856.205 679.75C856.205 673.417 857.705 667.833 860.705 663C863.872 658.167 868.038 654.417 873.205 651.75C878.372 648.917 884.038 647.5 890.205 647.5C898.205 647.5 905.372 649.833 911.705 654.5C918.038 659.167 922.038 665.333 923.705 673C925.205 671.167 927.538 670.25 930.705 670.25H935.455C938.288 670.25 940.122 669.667 940.955 668.5C941.955 667.333 942.455 665.417 942.455 662.75V656C942.455 655.167 942.622 654 942.955 652.5C943.288 650.833 944.122 649.25 945.455 647.75C946.955 646.25 949.288 645.417 952.455 645.25C955.622 645.25 957.955 646.25 959.455 648.25C961.122 650.25 961.955 652.833 961.955 656V721.25ZM993.705 721.75C993.705 724.917 992.788 727.5 990.955 729.5C989.122 731.5 986.622 732.5 983.455 732.5C980.622 732.5 978.122 731.5 975.955 729.5C973.955 727.5 972.955 724.917 972.955 721.75V655.5C972.955 654.667 973.122 653.5 973.455 652C973.955 650.333 974.955 648.75 976.455 647.25C977.955 645.75 980.288 645 983.455 645C986.788 645 989.288 646 990.955 648C992.788 649.833 993.705 652.333 993.705 655.5V721.75ZM877.205 679.75C877.205 683.75 878.455 686.917 880.955 689.25C883.622 691.417 886.705 692.5 890.205 692.5C894.038 692.5 897.205 691.417 899.705 689.25C902.205 686.917 903.455 683.75 903.455 679.75C903.455 675.917 902.205 672.917 899.705 670.75C897.205 668.417 894.038 667.25 890.205 667.25C886.705 667.25 883.622 668.417 880.955 670.75C878.455 672.917 877.205 675.917 877.205 679.75Z" fill="#FF6D7F"/>
<path d="M1074.4 708.5C1071.73 705.833 1069.4 703.417 1067.4 701.25C1065.56 699.083 1063.56 696.917 1061.4 694.75C1058.9 692.417 1056.65 691.167 1054.65 691C1052.65 690.833 1050.31 692 1047.65 694.5C1044.81 697.167 1041.98 699.917 1039.15 702.75C1036.48 705.583 1034.15 708 1032.15 710C1029.48 712.333 1026.65 713.167 1023.65 712.5C1020.65 711.833 1018.23 710.667 1016.4 709C1014.4 706.667 1013.48 704.083 1013.65 701.25C1013.98 698.417 1015.23 696.167 1017.4 694.5C1018.4 693.667 1019.4 692.917 1020.4 692.25C1021.4 691.417 1022.48 690.583 1023.65 689.75C1026.98 687.083 1030.23 684.333 1033.4 681.5C1036.56 678.667 1039.06 675.333 1040.9 671.5C1042.9 667.667 1043.73 662.917 1043.4 657.25C1043.06 654.25 1043.98 651.75 1046.15 649.75C1048.31 647.75 1050.81 646.75 1053.65 646.75C1056.65 646.75 1059.23 647.75 1061.4 649.75C1063.56 651.75 1064.48 654.25 1064.15 657.25C1063.81 663.083 1064.48 667.833 1066.15 671.5C1067.81 675.167 1070.15 678.333 1073.15 681C1076.31 683.667 1079.73 686.333 1083.4 689C1084.4 689.5 1085.31 690.083 1086.15 690.75C1086.98 691.417 1087.9 692.083 1088.9 692.75C1091.06 694.417 1092.15 696.917 1092.15 700.25C1092.31 703.583 1091.4 706.25 1089.4 708.25C1087.4 710.417 1084.81 711.583 1081.65 711.75C1078.65 711.75 1076.23 710.667 1074.4 708.5ZM1132.4 722C1132.4 725.167 1131.4 727.75 1129.4 729.75C1127.56 731.75 1125.15 732.75 1122.15 732.75C1118.98 732.75 1116.31 731.75 1114.15 729.75C1112.15 727.75 1111.15 725.167 1111.15 722V695.75C1111.15 691.917 1109.31 690 1105.65 690H1098.65C1095.48 690 1092.98 689.083 1091.15 687.25C1089.31 685.417 1088.4 683 1088.4 680C1088.4 677.5 1089.15 675.25 1090.65 673.25C1092.31 671.25 1094.98 670.25 1098.65 670.25H1105.65C1107.98 670.25 1109.48 669.75 1110.15 668.75C1110.81 667.583 1111.15 665.917 1111.15 663.75V655.75C1111.15 654.917 1111.4 653.75 1111.9 652.25C1112.4 650.583 1113.4 649 1114.9 647.5C1116.56 646 1118.98 645.25 1122.15 645.25C1125.31 645.25 1127.81 646.25 1129.65 648.25C1131.48 650.083 1132.4 652.583 1132.4 655.75V722Z" fill="#FF6D7F"/>
<path d="M1233.12 821.5C1228.45 821.5 1224.62 820.083 1221.62 817.25C1218.62 814.417 1217.12 810.667 1217.12 806V778.25C1217.12 773.583 1218.62 769.833 1221.62 767C1224.62 764.167 1228.45 762.75 1233.12 762.75H1239.62C1238.45 761.083 1237.87 758.917 1237.87 756.25V751C1237.87 746.333 1235.7 744 1231.37 744H1213.87C1210.37 744 1207.78 743 1206.12 741C1204.45 739 1203.62 736.833 1203.62 734.5C1203.62 731.667 1204.53 729.333 1206.37 727.5C1208.37 725.667 1210.87 724.75 1213.87 724.75H1283.12C1286.28 724.75 1288.78 725.667 1290.62 727.5C1292.62 729.333 1293.62 731.667 1293.62 734.5C1293.62 736.833 1292.7 739 1290.87 741C1289.2 743 1286.62 744 1283.12 744H1265.37C1261.03 744 1258.87 746.417 1258.87 751.25V756.25C1258.87 758.75 1258.2 760.917 1256.87 762.75H1265.87C1270.7 762.75 1274.53 764.167 1277.37 767C1280.2 769.833 1281.62 773.583 1281.62 778.25V806C1281.62 810.667 1280.2 814.417 1277.37 817.25C1274.53 820.083 1270.7 821.5 1265.87 821.5H1233.12ZM1260.87 674.5C1258.87 674.5 1258.12 675.667 1258.62 678C1259.28 679.667 1261.2 681.583 1264.37 683.75C1267.7 685.917 1271.2 688 1274.87 690C1278.7 691.833 1281.37 693.25 1282.87 694.25C1284.87 695.583 1286.12 697.75 1286.62 700.75C1287.28 703.75 1286.7 706.417 1284.87 708.75C1283.2 710.75 1281.03 712.083 1278.37 712.75C1275.87 713.25 1273.2 712.667 1270.37 711L1256.12 699.75C1253.45 697.75 1251.2 696.75 1249.37 696.75C1247.53 696.75 1245.37 697.667 1242.87 699.5L1228.12 711.5C1225.62 713.167 1222.87 713.917 1219.87 713.75C1217.03 713.583 1214.62 712.417 1212.62 710.25C1210.78 707.917 1209.87 705.417 1209.87 702.75C1210.03 699.917 1211.28 697.667 1213.62 696C1215.95 694.5 1218.87 692.75 1222.37 690.75C1226.03 688.583 1229.45 686.417 1232.62 684.25C1235.78 681.917 1237.62 679.833 1238.12 678C1238.28 677.167 1238.2 676.417 1237.87 675.75C1237.53 674.917 1236.87 674.5 1235.87 674.5H1222.12C1218.78 674.5 1216.12 673.75 1214.12 672.25C1212.12 670.583 1211.12 668.167 1211.12 665C1211.12 662 1212.2 659.667 1214.37 658C1216.53 656.333 1219.12 655.5 1222.12 655.5H1234.62C1236.28 655.5 1237.28 655 1237.62 654C1237.95 652.833 1238.12 651.917 1238.12 651.25V645C1238.12 642.167 1239.12 639.833 1241.12 638C1243.28 636 1245.78 635 1248.62 635C1251.62 635 1254.12 636 1256.12 638C1258.28 639.833 1259.37 642.167 1259.37 645V651C1259.37 652 1259.53 653 1259.87 654C1260.37 655 1261.45 655.5 1263.12 655.5H1275.37C1278.53 655.5 1281.03 656.333 1282.87 658C1284.87 659.667 1285.87 662 1285.87 665C1285.87 668.167 1284.87 670.583 1282.87 672.25C1281.03 673.75 1278.53 674.5 1275.37 674.5H1260.87ZM1238.37 794.75C1238.37 796.917 1238.7 798.667 1239.37 800C1240.03 801.333 1241.62 802 1244.12 802H1253.62C1256.28 802 1258.03 801.333 1258.87 800C1259.87 798.667 1260.37 796.917 1260.37 794.75V788.5C1260.37 786.5 1259.87 784.917 1258.87 783.75C1258.03 782.75 1256.2 782.25 1253.37 782.25H1244.62C1242.28 782.25 1240.62 782.833 1239.62 784C1238.78 785.333 1238.37 786.917 1238.37 788.75V794.75Z" fill="#FF6D7F"/>
<path d="M1368.29 674.5C1366.29 674.5 1365.54 675.667 1366.04 678C1366.71 679.667 1368.62 681.583 1371.79 683.75C1375.12 685.917 1378.62 688 1382.29 690C1386.12 691.833 1388.79 693.25 1390.29 694.25C1392.29 695.583 1393.54 697.75 1394.04 700.75C1394.71 703.75 1394.12 706.417 1392.29 708.75C1390.62 710.75 1388.46 712.083 1385.79 712.75C1383.29 713.25 1380.62 712.667 1377.79 711L1363.54 699.75C1360.87 697.75 1358.62 696.75 1356.79 696.75C1354.96 696.75 1352.79 697.667 1350.29 699.5L1335.54 711.5C1333.04 713.167 1330.29 713.917 1327.29 713.75C1324.46 713.583 1322.04 712.417 1320.04 710.25C1318.21 707.917 1317.29 705.417 1317.29 702.75C1317.46 699.917 1318.71 697.667 1321.04 696C1323.37 694.5 1326.29 692.75 1329.79 690.75C1333.46 688.583 1336.87 686.417 1340.04 684.25C1343.21 681.917 1345.04 679.833 1345.54 678C1345.71 677.167 1345.62 676.417 1345.29 675.75C1344.96 674.917 1344.29 674.5 1343.29 674.5H1329.54C1326.21 674.5 1323.54 673.75 1321.54 672.25C1319.54 670.583 1318.54 668.167 1318.54 665C1318.54 662 1319.62 659.667 1321.79 658C1323.96 656.333 1326.54 655.5 1329.54 655.5H1342.04C1343.71 655.5 1344.71 655 1345.04 654C1345.37 652.833 1345.54 651.917 1345.54 651.25V645C1345.54 642.167 1346.54 639.833 1348.54 638C1350.71 636 1353.21 635 1356.04 635C1359.04 635 1361.54 636 1363.54 638C1365.71 639.833 1366.79 642.167 1366.79 645V651C1366.79 652 1366.96 653 1367.29 654C1367.79 655 1368.87 655.5 1370.54 655.5H1382.79C1385.96 655.5 1388.46 656.333 1390.29 658C1392.29 659.667 1393.29 662 1393.29 665C1393.29 668.167 1392.29 670.583 1390.29 672.25C1388.46 673.75 1385.96 674.5 1382.79 674.5H1368.29ZM1366.29 756.25C1366.29 759.083 1365.37 761.5 1363.54 763.5C1361.87 765.667 1359.29 766.75 1355.79 766.75C1352.62 766.75 1350.04 765.75 1348.04 763.75C1346.21 761.917 1345.29 759.417 1345.29 756.25V751C1345.29 746.333 1343.12 744 1338.79 744H1321.29C1317.79 744 1315.21 743 1313.54 741C1311.87 739 1311.04 736.833 1311.04 734.5C1311.04 731.667 1311.96 729.333 1313.79 727.5C1315.79 725.667 1318.29 724.75 1321.29 724.75H1390.54C1393.71 724.75 1396.21 725.667 1398.04 727.5C1400.04 729.333 1401.04 731.667 1401.04 734.5C1401.04 736.833 1400.12 739 1398.29 741C1396.62 743 1394.04 744 1390.54 744H1372.79C1368.46 744 1366.29 746.417 1366.29 751.25V756.25Z" fill="#FF6D7F"/>
<path d="M1429.71 660.25C1429.71 657.417 1430.71 655.083 1432.71 653.25C1434.71 651.25 1437.29 650.25 1440.46 650.25C1443.29 650.25 1445.71 651.25 1447.71 653.25C1449.88 655.083 1450.96 657.417 1450.96 660.25V681.75C1450.96 684.417 1451.63 686.75 1452.96 688.75C1454.46 690.75 1456.88 691.75 1460.21 691.75H1487.21C1490.21 691.75 1492.71 692.583 1494.71 694.25C1496.88 695.917 1497.96 698.333 1497.96 701.5C1497.96 704.5 1496.88 707 1494.71 709C1492.71 710.833 1490.21 711.75 1487.21 711.75H1445.71C1441.38 711.75 1437.63 710.417 1434.46 707.75C1431.29 704.917 1429.71 701 1429.71 696V660.25ZM1431.21 768.25C1431.21 765.25 1432.21 762.75 1434.21 760.75C1436.21 758.75 1438.79 757.75 1441.96 757.75C1444.79 757.75 1447.21 758.75 1449.21 760.75C1451.38 762.75 1452.46 765.25 1452.46 768.25V784.25C1452.46 786.583 1453.13 788.75 1454.46 790.75C1455.96 792.917 1458.38 794 1461.71 794H1488.21C1491.21 794 1493.71 794.917 1495.71 796.75C1497.71 798.583 1498.71 800.917 1498.71 803.75C1498.71 806.917 1497.71 809.417 1495.71 811.25C1493.71 813.083 1491.21 814 1488.21 814H1447.21C1442.88 814 1439.13 812.583 1435.96 809.75C1432.79 807.083 1431.21 803.333 1431.21 798.5V768.25ZM1497.96 726.75C1501.46 726.75 1504.04 727.75 1505.71 729.75C1507.54 731.75 1508.46 734.083 1508.46 736.75C1508.46 739.417 1507.46 741.75 1505.46 743.75C1503.63 745.583 1501.13 746.5 1497.96 746.5H1429.21C1426.04 746.5 1423.46 745.583 1421.46 743.75C1419.46 741.75 1418.46 739.417 1418.46 736.75C1418.46 734.083 1419.29 731.75 1420.96 729.75C1422.79 727.75 1425.54 726.75 1429.21 726.75H1497.96Z" fill="#FF6D7F"/>
<path d="M1586.43 711.5C1583.26 711.5 1580.68 710.583 1578.68 708.75C1576.85 706.917 1575.93 704.5 1575.93 701.5C1575.93 698.333 1576.85 695.917 1578.68 694.25C1580.68 692.583 1583.26 691.75 1586.43 691.75H1589.43C1591.93 691.75 1593.18 690.25 1593.18 687.25V675C1593.18 671.5 1591.93 669.75 1589.43 669.75H1586.93C1583.93 669.75 1581.43 668.917 1579.43 667.25C1577.6 665.583 1576.68 663.167 1576.68 660C1576.68 657.167 1577.6 654.917 1579.43 653.25C1581.43 651.417 1583.85 650.417 1586.68 650.25H1649.93C1652.93 650.25 1655.35 651.167 1657.18 653C1659.18 654.833 1660.18 657.167 1660.18 660C1660.18 663.167 1659.18 665.583 1657.18 667.25C1655.35 668.917 1652.93 669.75 1649.93 669.75H1648.18C1647.01 669.75 1645.93 670.167 1644.93 671C1643.93 671.667 1643.43 672.833 1643.43 674.5V687.25C1643.43 690.25 1644.76 691.75 1647.43 691.75H1650.68C1653.51 691.75 1655.93 692.583 1657.93 694.25C1659.93 695.917 1660.93 698.333 1660.93 701.5C1660.93 704.5 1659.93 706.917 1657.93 708.75C1655.93 710.583 1653.51 711.5 1650.68 711.5H1586.43ZM1672.93 655.75C1672.93 652.417 1673.93 649.833 1675.93 648C1677.93 646.167 1680.51 645.25 1683.68 645.25C1686.85 645.25 1689.1 646 1690.43 647.5C1691.93 649 1692.93 650.583 1693.43 652.25C1693.93 653.75 1694.18 654.917 1694.18 655.75V668.25C1694.18 672.75 1696.26 675 1700.43 675H1706.93C1710.76 675 1713.43 676 1714.93 678C1716.43 680 1717.18 682.25 1717.18 684.75C1717.18 687.583 1716.26 690 1714.43 692C1712.6 693.833 1710.1 694.75 1706.93 694.75H1700.43C1696.26 694.75 1694.18 696.583 1694.18 700.25V722C1694.18 725.167 1693.1 727.75 1690.93 729.75C1688.93 731.75 1686.51 732.75 1683.68 732.75C1680.51 732.75 1677.93 731.75 1675.93 729.75C1673.93 727.75 1672.93 725.167 1672.93 722V655.75ZM1624.93 676C1624.93 673.167 1624.26 671.417 1622.93 670.75C1621.76 670.083 1620.51 669.75 1619.18 669.75H1617.68C1616.35 669.75 1615.01 670.083 1613.68 670.75C1612.51 671.417 1611.93 673.083 1611.93 675.75V687C1611.93 688.667 1612.43 689.917 1613.43 690.75C1614.6 691.583 1616.01 692 1617.68 692H1619.18C1620.68 692 1622.01 691.667 1623.18 691C1624.35 690.167 1624.93 688.75 1624.93 686.75V676Z" fill="#FF6D7F"/>
<path d="M1784.02 724.5C1784.02 728.667 1786.19 730.75 1790.52 730.75H1808.02C1811.52 730.75 1814.1 731.833 1815.77 734C1817.6 736 1818.52 738.167 1818.52 740.5C1818.52 743.167 1817.52 745.5 1815.52 747.5C1813.69 749.5 1811.19 750.5 1808.02 750.5H1738.77C1735.77 750.5 1733.27 749.5 1731.27 747.5C1729.44 745.5 1728.52 743.167 1728.52 740.5C1728.52 738.167 1729.35 736 1731.02 734C1732.69 731.833 1735.27 730.75 1738.77 730.75H1756.52C1760.85 730.75 1763.02 728.75 1763.02 724.75V719.75C1763.02 715.917 1764.27 713.167 1766.77 711.5H1756.02C1751.35 711.5 1747.52 710 1744.52 707C1741.52 704 1740.02 700.167 1740.02 695.5V666C1740.02 661.167 1741.52 657.333 1744.52 654.5C1747.52 651.667 1751.35 650.25 1756.02 650.25H1796.27C1799.27 650.25 1801.77 651.167 1803.77 653C1805.77 654.833 1806.77 657.333 1806.77 660.5C1806.77 663.5 1805.77 665.917 1803.77 667.75C1801.77 669.417 1799.27 670.25 1796.27 670.25H1770.02C1767.02 670.25 1764.77 671.083 1763.27 672.75C1761.94 674.417 1761.27 676.417 1761.27 678.75V681.75C1761.27 688.083 1764.02 691.25 1769.52 691.25H1797.27C1800.27 691.25 1802.77 692.167 1804.77 694C1806.77 695.667 1807.77 698.083 1807.77 701.25C1807.77 704.25 1806.77 706.667 1804.77 708.5C1802.77 710.167 1800.27 711.167 1797.27 711.5H1780.02C1782.69 713.5 1784.02 716.25 1784.02 719.75V724.5Z" fill="#FF6D7F"/>
</svg>
