<svg width="1920" height="1080" viewBox="0 0 1920 1080" fill="none" xmlns="http://www.w3.org/2000/svg">
<path d="M210.84 284.66C210.24 280.82 209.28 276.56 207.96 271.88C206.64 267.08 204.96 262.76 202.92 258.92C209.76 258.92 214.98 258.62 218.58 258.02C222.3 257.42 224.82 256.28 226.14 254.6C227.58 252.92 228.3 250.58 228.3 247.58C228.3 246.38 228.18 242.66 227.94 236.42C227.7 230.06 227.46 222.5 227.22 213.74C218.46 225.14 207.96 235.52 195.72 244.88C183.6 254.24 171.12 262.04 158.28 268.28C156.48 264.44 154.02 260.54 150.9 256.58C147.78 252.62 144.66 249.44 141.54 247.04C149.22 243.92 157.2 239.72 165.48 234.44C173.88 229.16 181.92 223.28 189.6 216.8C197.4 210.2 204.12 203.48 209.76 196.64C201.12 196.88 192.96 197.18 185.28 197.54C177.72 197.78 171.3 198.08 166.02 198.44C160.74 198.68 157.14 198.92 155.22 199.16L153.78 173.6C157.26 173.84 162.72 173.96 170.16 173.96C177.6 173.96 186.18 173.9 195.9 173.78C205.62 173.54 215.58 173.3 225.78 173.06L224.52 135.62H251.7L252.96 172.16C262.2 171.8 270.6 171.44 278.16 171.08C285.84 170.72 291.66 170.3 295.62 169.82V195.38C293.34 195.14 288.36 195.08 280.68 195.2C273 195.2 264 195.32 253.68 195.56C254.04 204.32 254.34 212.72 254.58 220.76C254.82 228.8 255 235.58 255.12 241.1C255.36 246.5 255.48 249.74 255.48 250.82C255.84 259.46 254.46 266.24 251.34 271.16C248.34 276.08 243.48 279.56 236.76 281.6C230.04 283.64 221.4 284.66 210.84 284.66Z" fill="#1A73E8"/>
<path d="M328.2 224C328.32 221.84 328.32 219.02 328.2 215.54C328.2 212.06 328.2 208.58 328.2 205.1C328.2 201.62 328.14 198.8 328.02 196.64C329.7 196.76 333.36 196.94 339 197.18C344.64 197.3 351.54 197.42 359.7 197.54C367.86 197.54 376.68 197.6 386.16 197.72C395.76 197.72 405.36 197.72 414.96 197.72C424.56 197.72 433.56 197.72 441.96 197.72C450.48 197.6 457.74 197.48 463.74 197.36C469.74 197.12 473.82 196.88 475.98 196.64C475.86 198.56 475.74 201.32 475.62 204.92C475.62 208.4 475.62 211.88 475.62 215.36C475.74 218.84 475.8 221.6 475.8 223.64C473.04 223.52 468.78 223.4 463.02 223.28C457.26 223.04 450.48 222.86 442.68 222.74C434.88 222.62 426.54 222.56 417.66 222.56C408.78 222.56 399.84 222.56 390.84 222.56C381.84 222.56 373.2 222.62 364.92 222.74C356.76 222.86 349.5 223.04 343.14 223.28C336.78 223.4 331.8 223.64 328.2 224Z" fill="#1A73E8"/>
<path d="M592.44 270.26L577.86 258.92C578.22 257.12 578.46 253.46 578.58 247.94C578.82 242.3 578.94 235.28 578.94 226.88C579.06 218.36 579.12 208.94 579.12 198.62C579.12 185.9 579 175.88 578.76 168.56C578.52 161.12 578.22 155.36 577.86 151.28H606.48C606.12 154.4 605.82 160.16 605.58 168.56C605.46 176.96 605.4 186.5 605.4 197.18V233.54C610.44 231.38 615.78 228.8 621.42 225.8C627.18 222.8 632.82 219.68 638.34 216.44C643.86 213.08 648.9 209.78 653.46 206.54C658.02 203.18 661.74 200.12 664.62 197.36C664.62 200.36 664.8 203.96 665.16 208.16C665.52 212.24 666 216.14 666.6 219.86C667.2 223.46 667.8 226.16 668.4 227.96C664.32 231.32 659.1 235.04 652.74 239.12C646.38 243.2 639.54 247.22 632.22 251.18C624.9 255.14 617.76 258.8 610.8 262.16C603.84 265.52 597.72 268.22 592.44 270.26ZM515.04 272.6C512.88 269.12 509.94 265.46 506.22 261.62C502.5 257.66 498.9 254.3 495.42 251.54C505.62 246.26 513.66 240.62 519.54 234.62C525.54 228.5 529.8 221.72 532.32 214.28C534.96 206.72 536.28 198.26 536.28 188.9C536.4 179.54 535.68 168.92 534.12 157.04L560.04 154.88C562.68 173.96 563.04 190.82 561.12 205.46C559.2 220.1 554.52 232.94 547.08 243.98C539.76 254.9 529.08 264.44 515.04 272.6Z" fill="#1A73E8"/>
<path d="M738.6 284.84V137.06H765.78V191.96L774.42 179.54C777.3 181.58 781.14 184.22 785.94 187.46C790.86 190.58 796.08 193.82 801.6 197.18C807.24 200.42 812.58 203.42 817.62 206.18C822.78 208.94 827.04 210.92 830.4 212.12C828.48 213.92 826.38 216.32 824.1 219.32C821.82 222.2 819.72 225.2 817.8 228.32C815.88 231.44 814.38 234.2 813.3 236.6C810.66 235.16 807.3 233.24 803.22 230.84C799.26 228.32 795 225.62 790.44 222.74C786 219.74 781.62 216.8 777.3 213.92C772.98 210.92 769.14 208.16 765.78 205.64V284.84H738.6ZM810.42 176.12C808.26 172.28 805.5 168.32 802.14 164.24C798.9 160.04 795.9 156.62 793.14 153.98L805.02 144.98C806.58 146.42 808.5 148.52 810.78 151.28C813.18 154.04 815.46 156.86 817.62 159.74C819.9 162.5 821.64 164.9 822.84 166.94L810.42 176.12ZM828.06 162.62C825.9 158.78 823.14 154.82 819.78 150.74C816.54 146.66 813.54 143.3 810.78 140.66L822.66 131.66C824.22 133.1 826.14 135.2 828.42 137.96C830.82 140.6 833.1 143.36 835.26 146.24C837.54 149 839.28 151.4 840.48 153.44L828.06 162.62Z" fill="#1A73E8"/>
<path d="M139.74 493.1V477.98H209.58V472.94H159.54V458.9H209.58V453.86H159.54V438.74H209.58V433.7H139.74V418.04H209.58V413H159.54V397.52H209.58V386.9H234.96V397.52H283.02V418.04H303.54V433.7H283.02V453.86H234.96V458.9H283.02V472.94H234.96V477.98H304.44V493.1H139.74ZM161.88 552.14V498.14H281.58V552.14H161.88ZM188.7 537.02H255.48V531.44H188.7V537.02ZM188.7 518.84H255.48V513.26H188.7V518.84ZM234.96 438.74H259.26V433.7H234.96V438.74ZM234.96 418.04H259.26V413H234.96V418.04Z" fill="#1A73E8"/>
<path d="M410.82 552.5V528.2H392.82V502.1H410.82V476.54C405.3 484.94 399.24 493.1 392.64 501.02C386.16 508.94 379.98 515.48 374.1 520.64C372.9 519.08 371.4 517.4 369.6 515.6C367.92 513.8 366.18 512.12 364.38 510.56V552.14H337.92V470.96C336.12 473.12 334.2 475.22 332.16 477.26C329.88 474.62 326.88 471.92 323.16 469.16C319.56 466.4 316.02 464.18 312.54 462.5C316.74 458.42 320.94 453.26 325.14 447.02C329.46 440.66 333.42 433.88 337.02 426.68C340.74 419.36 343.86 412.34 346.38 405.62C349.02 398.78 350.76 392.9 351.6 387.98L376.44 394.64C375.12 400.16 373.44 405.8 371.4 411.56C369.36 417.32 367.02 423.02 364.38 428.66V494C368.58 489.68 372.9 484.82 377.34 479.42C381.9 473.9 386.28 468.2 390.48 462.32C394.68 456.44 398.28 450.8 401.28 445.4H369.6V420.92H410.82V388.16H436.56V420.92H482.46V445.4H443.22C446.1 450.44 449.58 455.66 453.66 461.06C457.74 466.46 462.06 471.74 466.62 476.9C471.3 481.94 475.8 486.56 480.12 490.76C484.44 494.96 488.22 498.32 491.46 500.84C489.3 502.04 486.9 503.72 484.26 505.88C481.74 508.04 479.34 510.32 477.06 512.72C474.78 515.12 472.86 517.4 471.3 519.56C465.78 514.64 459.96 508.58 453.84 501.38C447.84 494.18 442.08 486.62 436.56 478.7V502.1H453.3V528.2H436.56V552.5H410.82Z" fill="#1A73E8"/>
<path d="M584.7 544.04C574.74 543.44 566.64 540.38 560.4 534.86C554.16 529.34 551.1 522.26 551.22 513.62C551.34 508.58 552.96 503.96 556.08 499.76C559.32 495.56 563.76 492.2 569.4 489.68C575.16 487.04 581.88 485.72 589.56 485.72C591 485.72 592.38 485.78 593.7 485.9C595.02 485.9 596.34 485.96 597.66 486.08C597.54 481.4 597.36 476.24 597.12 470.6C597 464.84 596.82 458.78 596.58 452.42C589.5 452.66 582.66 452.84 576.06 452.96C569.58 452.96 563.88 452.84 558.96 452.6L557.52 425.78C561.72 426.5 567.24 426.92 574.08 427.04C580.92 427.16 588.24 427.1 596.04 426.86C595.92 422.18 595.8 417.5 595.68 412.82C595.68 408.02 595.68 403.22 595.68 398.42H621.6C621.48 402.5 621.36 406.82 621.24 411.38C621.12 415.82 621.12 420.5 621.24 425.42C627.96 424.82 634.08 424.1 639.6 423.26C645.24 422.42 649.5 421.52 652.38 420.56V447.02C649.02 447.74 644.64 448.4 639.24 449C633.96 449.6 628.14 450.2 621.78 450.8C622.02 458.36 622.26 465.68 622.5 472.76C622.86 479.72 623.16 486.02 623.4 491.66C630.24 494.18 636.72 497.3 642.84 501.02C648.96 504.74 654.84 508.82 660.48 513.26C658.68 514.7 656.76 516.74 654.72 519.38C652.68 522.02 650.82 524.72 649.14 527.48C647.46 530.24 646.2 532.64 645.36 534.68C642 531.56 638.46 528.68 634.74 526.04C631.14 523.28 627.42 520.76 623.58 518.48C622.38 528.08 618.42 534.92 611.7 539C605.1 543.08 596.1 544.76 584.7 544.04ZM515.58 545.66C514.74 540.86 514.02 534.68 513.42 527.12C512.94 519.56 512.58 511.22 512.34 502.1C512.22 492.86 512.22 483.32 512.34 473.48C512.46 463.64 512.76 454.04 513.24 444.68C513.72 435.32 514.38 426.68 515.22 418.76C516.06 410.72 517.02 404 518.1 398.6L543.12 404.54C541.8 408.62 540.66 414.2 539.7 421.28C538.74 428.36 537.96 436.28 537.36 445.04C536.88 453.68 536.58 462.68 536.46 472.04C536.34 481.4 536.4 490.52 536.64 499.4C537 508.16 537.54 516.2 538.26 523.52C538.98 530.72 539.88 536.6 540.96 541.16L515.58 545.66ZM586.68 521.72C590.88 521.72 593.82 520.88 595.5 519.2C597.3 517.4 598.2 513.8 598.2 508.4C596.52 508.04 594.78 507.74 592.98 507.5C591.3 507.26 589.62 507.08 587.94 506.96C584.58 506.72 581.64 507.26 579.12 508.58C576.6 509.78 575.28 511.64 575.16 514.16C575.04 516.56 576.06 518.42 578.22 519.74C580.5 521.06 583.32 521.72 586.68 521.72Z" fill="#1A73E8"/>
<path d="M277.8 803.96C265.92 806 254.4 807.32 243.24 807.92C232.08 808.52 221.7 808.28 212.1 807.2C202.5 806.12 194.1 804.02 186.9 800.9C179.7 797.78 174.06 793.46 169.98 787.94C165.9 782.42 163.86 775.58 163.86 767.42C163.86 756.38 167.34 747.14 174.3 739.7C181.38 732.26 191.1 725.84 203.46 720.44C201.66 715.04 200.04 708.5 198.6 700.82C197.28 693.14 196.38 684.98 195.9 676.34C195.42 667.7 195.42 659.3 195.9 651.14H224.52C223.8 657.38 223.5 664.16 223.62 671.48C223.86 678.8 224.4 686 225.24 693.08C226.08 700.04 227.04 706.1 228.12 711.26C234.12 709.34 240.42 707.54 247.02 705.86C253.74 704.06 260.7 702.26 267.9 700.46L272.58 728.18C262.38 729.14 252.42 730.76 242.7 733.04C233.1 735.32 224.4 738.14 216.6 741.5C208.92 744.74 202.8 748.46 198.24 752.66C193.68 756.74 191.4 761.06 191.4 765.62C191.4 769.94 193.74 773.54 198.42 776.42C203.22 779.18 209.76 781.04 218.04 782C226.44 782.96 236.04 782.9 246.84 781.82C257.76 780.74 269.28 778.58 281.4 775.34C280.56 777.74 279.84 780.68 279.24 784.16C278.64 787.64 278.22 791.12 277.98 794.6C277.74 798.08 277.68 801.2 277.8 803.96ZM276.54 700.46C274.14 696.86 271.14 693.08 267.54 689.12C264.06 685.16 260.82 681.98 257.82 679.58L269.16 669.86C270.84 671.18 272.94 673.16 275.46 675.8C277.98 678.32 280.44 680.96 282.84 683.72C285.24 686.36 287.1 688.64 288.42 690.56L276.54 700.46ZM293.28 686.06C290.88 682.34 287.88 678.56 284.28 674.72C280.8 670.76 277.56 667.58 274.56 665.18L285.9 655.46C287.58 656.78 289.68 658.76 292.2 661.4C294.72 663.92 297.18 666.56 299.58 669.32C301.98 671.96 303.84 674.24 305.16 676.16L293.28 686.06Z" fill="#1A73E8"/>
<path d="M428.1 806.12C422.1 806.12 416.82 805.16 412.26 803.24C407.82 801.32 404.34 797.96 401.82 793.16C399.42 788.24 398.22 781.4 398.22 772.64V759.86C398.22 753.26 397.44 748.88 395.88 746.72C394.44 744.44 391.8 743.3 387.96 743.3C383.52 743.3 379.44 744.68 375.72 747.44C372 750.2 368.76 754.52 366 760.4C361.32 770.24 357.18 779.18 353.58 787.22C350.1 795.14 347.76 801.14 346.56 805.22L321.18 794.06C322.38 792.14 324.36 788.42 327.12 782.9C330 777.38 333.36 770.72 337.2 762.92C341.16 755.12 345.36 746.78 349.8 737.9C354.24 728.9 358.68 719.9 363.12 710.9C367.56 701.78 371.7 693.26 375.54 685.34C379.5 677.3 382.86 670.34 385.62 664.46C388.5 658.58 390.54 654.44 391.74 652.04L418.92 663.92C416.64 667.04 413.7 671.54 410.1 677.42C406.5 683.3 402.6 690.08 398.4 697.76C394.2 705.44 389.88 713.48 385.44 721.88C389.64 720.32 394.02 719.54 398.58 719.54C407.82 719.54 414.24 722.06 417.84 727.1C421.56 732.14 423.42 740.36 423.42 751.76C423.42 753.2 423.36 755.18 423.24 757.7C423.24 760.1 423.24 762.08 423.24 763.64C423.24 770.12 423.84 774.32 425.04 776.24C426.24 778.04 428.82 778.94 432.78 778.94C436.26 778.94 439.86 777.5 443.58 774.62C447.42 771.74 451.08 767.72 454.56 762.56C458.04 757.4 460.98 751.46 463.38 744.74C464.94 746.9 466.92 749.24 469.32 751.76C471.72 754.28 474.18 756.68 476.7 758.96C479.22 761.12 481.38 762.92 483.18 764.36C478.98 773.84 473.82 781.64 467.7 787.76C461.7 793.88 455.28 798.44 448.44 801.44C441.6 804.56 434.82 806.12 428.1 806.12Z" fill="#1A73E8"/>
<path d="M577.32 812.6C570.72 812.12 564.96 810.44 560.04 807.56C555.12 804.8 551.34 801.08 548.7 796.4C546.18 791.72 544.92 786.5 544.92 780.74C545.04 775.46 546.6 770.78 549.6 766.7C552.72 762.5 557.1 759.32 562.74 757.16C568.38 754.88 575.04 753.92 582.72 754.28C585.12 754.28 587.46 754.46 589.74 754.82V717.2H614.94V760.22C621.66 762.62 628.02 765.62 634.02 769.22C640.14 772.82 646.14 776.96 652.02 781.64C650.22 783.2 648.3 785.24 646.26 787.76C644.34 790.28 642.48 792.92 640.68 795.68C639 798.44 637.62 800.96 636.54 803.24C633.18 800.12 629.64 797.12 625.92 794.24C622.32 791.36 618.6 788.78 614.76 786.5C613.8 796.34 610.2 803.3 603.96 807.38C597.84 811.58 588.96 813.32 577.32 812.6ZM528 781.82C525.48 779.78 522.06 777.56 517.74 775.16C513.42 772.64 509.34 770.6 505.5 769.04C512.7 760.4 519.12 750.56 524.76 739.52C530.52 728.36 535.32 716.84 539.16 704.96C533.64 705.68 528.66 706.28 524.22 706.76C519.78 707.12 516.18 707.42 513.42 707.66L510.18 683.36C514.14 683.48 519.24 683.3 525.48 682.82C531.84 682.22 538.56 681.5 545.64 680.66C546.84 675.14 547.8 669.74 548.52 664.46C549.36 659.18 549.9 654.08 550.14 649.16L574.62 652.58C574.14 656.66 573.6 660.74 573 664.82C572.4 668.78 571.74 672.68 571.02 676.52C574.86 675.8 578.46 675.02 581.82 674.18C585.3 673.34 588.48 672.5 591.36 671.66L594.6 694.7C590.88 695.9 586.44 697.04 581.28 698.12C576.24 699.2 570.9 700.22 565.26 701.18C561.18 716.42 555.96 730.82 549.6 744.38C543.36 757.82 536.16 770.3 528 781.82ZM640.32 722.78C638.4 720.86 635.7 718.58 632.22 715.94C628.86 713.3 625.2 710.66 621.24 708.02C617.4 705.26 613.56 702.8 609.72 700.64C605.88 698.48 602.52 696.92 599.64 695.96L612.42 676.52C615.54 677.72 619.08 679.4 623.04 681.56C627.12 683.6 631.2 685.88 635.28 688.4C639.48 690.92 643.38 693.44 646.98 695.96C650.58 698.48 653.52 700.82 655.8 702.98L640.32 722.78ZM579.3 790.82C583.14 790.82 585.84 789.86 587.4 787.94C588.96 785.9 589.74 782.18 589.74 776.78V776.42C588.18 776.18 586.62 775.94 585.06 775.7C583.62 775.46 582.12 775.34 580.56 775.34C577.08 775.1 574.26 775.58 572.1 776.78C570.06 777.86 568.98 779.6 568.86 782C568.74 784.52 569.58 786.62 571.38 788.3C573.3 789.98 575.94 790.82 579.3 790.82Z" fill="#1A73E8"/>
<path d="M751.56 765.98L747.24 719.54C758.4 718.7 766.68 716.6 772.08 713.24C777.6 709.76 780.36 704.36 780.36 697.04C780.36 691.16 778.74 686.42 775.5 682.82C772.38 679.22 767.88 677.42 762 677.42C756.12 677.42 751.44 679.34 747.96 683.18C744.48 687.02 742.26 691.82 741.3 697.58L711.78 693.08C712.5 684.68 715.08 677.3 719.52 670.94C724.08 664.58 730.02 659.6 737.34 656C744.66 652.4 752.88 650.6 762 650.6C771.72 650.6 780.3 652.46 787.74 656.18C795.3 659.9 801.18 665.24 805.38 672.2C809.7 679.04 811.86 687.32 811.86 697.04C811.86 704.36 810.24 710.72 807 716.12C803.76 721.52 799.32 726.02 793.68 729.62C788.04 733.22 781.68 735.98 774.6 737.9L772.44 765.98H751.56ZM762 812.6C757.2 812.6 753.06 810.86 749.58 807.38C746.1 803.9 744.36 799.76 744.36 794.96C744.36 790.04 746.1 785.9 749.58 782.54C753.06 779.18 757.2 777.5 762 777.5C766.92 777.5 771.06 779.18 774.42 782.54C777.9 785.9 779.64 790.04 779.64 794.96C779.64 799.76 777.9 803.9 774.42 807.38C771.06 810.86 766.92 812.6 762 812.6Z" fill="#1A73E8"/>
<path d="M1145.3 244.44C1145.66 252.36 1144.22 254.16 1140.08 255.06C1133.96 256.32 1128.2 256.68 1114.7 256.86C1121.36 262.08 1124.42 266.22 1127.3 272.88C1128.2 275.22 1129.46 275.94 1132.88 275.94C1141.16 275.94 1151.6 273.24 1157.72 269.64C1163.66 266.04 1166.9 260.1 1166.36 250.56L1163.12 182.88H1177.7C1188.86 182.88 1199.12 183.24 1212.26 183.78C1214.06 183.78 1214.78 182.7 1214.78 181.26C1214.96 176.22 1214.96 170.64 1214.78 165.6C1214.78 164.34 1213.88 163.44 1212.08 163.44C1198.76 163.98 1189.76 164.34 1177.16 164.34H1161.5L1160.96 150.66C1160.42 139.14 1161.14 136.26 1161.68 134.1C1162.04 133.02 1162.4 132.12 1162.4 131.4C1162.4 130.32 1161.86 129.6 1160.06 129.24C1154.48 128.16 1147.1 127.62 1137.38 127.26C1139 133.02 1139.9 139.5 1140.26 148.5L1140.98 164.52H1098.14C1087.34 164.52 1076.72 164.34 1065.92 163.62C1066.28 170.28 1066.64 177.66 1067.36 181.08C1067.54 183.06 1068.26 184.32 1069.88 184.14C1079.24 183.6 1089.32 183.24 1098.68 183.24L1130.18 183.06C1122.98 192.96 1114.34 201.6 1103.72 210.96C1091.48 221.76 1080.14 229.32 1061.78 239.4C1066.82 241.38 1072.94 245.7 1076.54 250.02C1077.44 251.28 1078.52 251.82 1079.6 251.82C1080.86 251.82 1082.12 251.28 1083.74 250.2C1094.72 244.08 1108.58 233.46 1117.76 225C1128.74 215.28 1136.12 207.36 1143.14 197.28L1145.3 244.44Z" fill="#1A73E8"/>
<path d="M1346 214.38C1359.32 214.38 1372.64 214.56 1386.14 214.74C1388.66 214.92 1389.38 214.2 1389.38 212.04C1389.74 206.64 1389.74 200.52 1389.38 195.12C1389.38 192.96 1388.84 192.42 1386.14 192.6C1372.28 192.78 1358.42 193.14 1344.74 193.14H1286.78C1268.6 193.14 1259.6 192.78 1247.9 190.98C1248.62 200.16 1249.7 208.62 1250.6 212.76C1251.14 215.46 1252.58 216.54 1254.74 216.54C1256.54 216.54 1263.38 214.38 1281.2 214.38H1346Z" fill="#1A73E8"/>
<path d="M1517.36 171.9C1517.36 158.94 1517.36 155.34 1518.98 151.92C1519.88 150.12 1520.42 148.5 1520.42 147.42C1520.42 145.98 1519.52 144.9 1517.18 144.36C1511.78 142.74 1501.88 141.48 1494.68 140.58C1496.48 148.86 1496.48 156.24 1496.48 171.9V228.24C1496.48 237.42 1496.66 239.58 1495.4 241.92C1494.86 243 1494.68 243.72 1494.68 244.62C1494.68 245.7 1495.22 246.78 1496.3 248.4C1499 252 1503.14 256.68 1507.1 259.38C1508.54 260.28 1509.8 260.82 1510.88 260.82C1512.14 260.82 1513.4 260.28 1514.48 259.38C1516.1 258.12 1516.46 257.76 1519.7 255.6C1532.3 248.22 1542.38 241.2 1551.74 234C1561.1 226.98 1569.38 219.6 1578.38 210.42C1580.36 208.44 1581.08 207.18 1581.08 205.92C1581.08 205.02 1580.54 204.12 1580 202.86C1576.94 196.92 1575.14 190.98 1574.42 184.68C1564.34 197.46 1553.72 207 1542.92 215.28C1534.46 221.76 1526.18 227.34 1517.36 232.02V171.9ZM1454.54 151.92C1455.98 157.32 1456.34 160.2 1456.34 167.04C1456.16 195.84 1453.82 205.74 1448.78 217.98C1442.48 232.2 1432.94 243.18 1418.9 253.8C1425.38 256.14 1429.7 258.3 1434.2 261.36C1435.46 262.26 1436.54 262.8 1437.62 262.8C1439.06 262.8 1440.5 261.9 1442.3 260.46C1455.26 249.3 1463.18 237.6 1467.86 226.62C1473.8 213.3 1477.22 196.2 1477.58 173.7C1477.58 169.38 1477.76 165.42 1479.74 161.46C1480.82 158.94 1480.46 156.78 1477.4 155.88C1473.08 154.44 1464.8 153.18 1454.54 151.92Z" fill="#1A73E8"/>
<path d="M1669.1 151.74C1669.1 141.66 1669.1 137.16 1670.36 134.82C1671.26 133.2 1671.8 131.76 1671.8 130.68C1671.8 129.24 1670.9 128.16 1668.38 127.62C1663.16 126.18 1654.16 125.28 1645.88 124.74C1647.14 131.94 1647.68 137.88 1647.68 151.38V239.94C1647.68 251.46 1647.5 262.08 1646.96 275.4C1646.96 277.56 1647.86 278.1 1650.38 278.1C1655.6 278.46 1661.18 278.46 1666.4 278.1C1668.92 278.1 1669.82 277.56 1669.64 275.4C1669.28 262.44 1668.92 251.82 1668.92 240.12V200.34C1683.5 204.84 1699.7 212.76 1716.26 223.38C1716.98 224.1 1717.7 224.28 1718.24 224.28C1719.14 224.28 1719.86 223.56 1720.58 222.3C1723.1 218.16 1725.98 212.58 1728.32 206.64C1729.22 204.3 1728.32 203.04 1726.34 201.96C1708.52 191.34 1691.06 184.32 1669.1 177.48V151.74ZM1701.5 139.86C1708.52 145.62 1714.28 152.46 1719.68 160.74C1720.58 162 1721.48 162.18 1722.74 161.28L1730.3 155.7C1731.56 154.8 1731.56 153.9 1730.84 152.82C1725.8 145.08 1719.32 137.88 1713.74 133.56C1712.66 132.66 1711.94 132.48 1711.04 133.2L1701.5 139.86ZM1718.06 127.98C1725.44 134.1 1731.2 140.94 1736.06 148.68C1736.78 149.76 1737.68 150.3 1739.12 149.22L1746.32 143.64C1747.76 142.56 1747.58 141.48 1746.86 140.4C1742.9 134.1 1736.42 126.9 1729.76 121.86C1728.68 120.96 1728.14 120.78 1727.06 121.5L1718.06 127.98Z" fill="#1A73E8"/>
<path d="M1195.52 491.4C1211.36 491.4 1216.76 491.76 1217.84 491.76C1219.64 491.76 1219.82 491.58 1219.82 489.78V479.88C1219.82 478.26 1219.64 478.08 1217.84 478.08C1216.76 478.08 1211.36 478.44 1195.52 478.44H1147.46V471.24H1176.26C1193.72 471.24 1199.84 471.6 1200.92 471.6C1202.54 471.6 1202.72 471.42 1202.72 469.62V461.88C1202.72 460.08 1202.54 459.9 1200.92 459.9C1199.84 459.9 1193.72 460.26 1176.26 460.26H1147.46V453.06H1168.34C1187.42 453.06 1196.96 453.42 1198.04 453.42C1199.84 453.42 1200.02 453.24 1200.02 451.44C1200.02 450.36 1199.66 444.96 1199.66 435.42V434.34C1209.2 434.34 1214.78 434.7 1215.86 434.7C1217.84 434.7 1218.02 434.52 1218.02 432.72V421.74C1218.02 419.76 1217.84 419.58 1215.86 419.58C1214.78 419.58 1209.2 419.94 1199.66 419.94V418.14C1199.66 408.24 1200.02 403.56 1200.02 402.48C1200.02 400.5 1199.84 400.32 1198.04 400.32C1196.96 400.32 1187.42 400.68 1168.34 400.68H1147.46C1147.46 397.26 1148 395.82 1148.36 394.74C1148.9 393.3 1149.26 392.58 1149.26 391.5C1149.26 390.42 1148.18 389.7 1146.74 389.52C1140.44 388.8 1134.5 388.44 1127.84 388.26C1128.56 391.68 1128.92 394.74 1129.1 400.68H1104.98C1087.34 400.68 1081.22 400.32 1079.96 400.32C1078.16 400.32 1077.98 400.5 1077.98 402.48V411.66C1077.98 413.46 1078.16 413.64 1079.96 413.64C1081.22 413.64 1087.34 413.28 1104.98 413.28H1129.1V420.84H1086.62C1069.52 420.84 1063.4 420.48 1062.32 420.48C1060.52 420.48 1060.34 420.66 1060.34 422.46V432C1060.34 433.8 1060.52 433.98 1062.32 433.98C1063.4 433.98 1069.52 433.62 1086.62 433.62H1129.1V441.36H1104.08C1086.8 441.36 1080.86 441 1079.78 441C1077.8 441 1077.62 441.18 1077.62 442.98V451.44C1077.62 453.24 1077.8 453.42 1079.78 453.42C1080.86 453.42 1086.8 453.06 1104.08 453.06H1129.1V460.26H1102.28C1084.64 460.26 1078.7 459.9 1077.44 459.9C1075.82 459.9 1075.64 460.08 1075.64 461.88V469.62C1075.64 471.42 1075.82 471.6 1077.44 471.6C1078.7 471.6 1084.64 471.24 1102.28 471.24H1129.1V478.44H1082.48C1066.64 478.44 1061.24 478.08 1060.16 478.08C1058.54 478.08 1058.36 478.26 1058.36 479.88V489.78C1058.36 491.58 1058.54 491.76 1060.16 491.76C1061.24 491.76 1066.64 491.4 1082.48 491.4H1195.52ZM1182.02 441.36H1147.46V433.62H1182.02V441.36ZM1182.02 413.28V420.84H1147.46V413.28H1182.02ZM1098.14 553.86C1099.94 553.86 1100.12 553.68 1100.12 551.88V547.2H1178.24V551.34C1178.24 552.96 1178.42 553.14 1180.22 553.14H1194.62C1196.42 553.14 1196.6 552.96 1196.6 551.34C1196.6 550.26 1196.24 546.48 1196.24 526.32V513C1196.24 505.26 1196.6 501.12 1196.6 500.04C1196.6 498.06 1196.42 497.88 1194.62 497.88C1193.36 497.88 1187.06 498.24 1169.6 498.24H1108.76C1091.3 498.24 1085 497.88 1083.74 497.88C1081.94 497.88 1081.76 498.06 1081.76 500.04C1081.76 501.12 1082.12 505.26 1082.12 515.16V526.68C1082.12 547.2 1081.76 550.8 1081.76 551.88C1081.76 553.68 1081.94 553.86 1083.74 553.86H1098.14ZM1100.12 535.68V527.94H1178.24V535.68H1100.12ZM1100.12 509.94H1178.24V517.5H1100.12V509.94Z" fill="#1A73E8"/>
<path d="M1321.34 444.6C1309.46 471.24 1294.16 490.32 1274.18 507.06V434.16C1278.68 425.52 1282.46 416.7 1285.88 407.88C1287.5 403.2 1288.4 401.76 1289.48 400.68C1290.92 399.42 1291.46 398.7 1291.46 397.44C1291.46 396.18 1290.56 395.64 1288.58 394.74C1283.36 392.58 1277.6 390.78 1271.12 389.16C1270.76 393.66 1269.68 397.62 1268.42 401.94C1261.58 423.36 1249.7 443.52 1234.22 460.44C1236.56 464.04 1239.08 470.16 1240.34 475.92C1240.88 478.08 1241.42 479.16 1242.32 479.16C1243.22 479.16 1244.3 478.26 1245.56 476.82C1249.16 472.68 1252.58 468.18 1256 463.68C1255.82 470.88 1255.82 478.08 1255.82 484.02V524.88C1255.82 542.52 1255.46 551.16 1255.46 552.24C1255.46 554.04 1255.64 554.22 1257.26 554.22H1272.56C1274.36 554.22 1274.54 554.04 1274.54 552.24C1274.54 551.34 1274.18 542.52 1274.18 524.88V507.6C1276.88 510.48 1279.76 513.9 1282.28 518.22C1283.54 520.56 1284.26 521.64 1285.16 521.64C1286.06 521.64 1287.14 520.56 1288.94 518.94C1306.76 502.38 1319.72 483.12 1329.98 458.82C1329.98 474.84 1329.8 490.86 1329.44 504.9H1326.02C1311.98 504.9 1307.48 504.54 1306.4 504.54C1304.6 504.54 1304.42 504.72 1304.42 506.52V519.66C1304.42 521.64 1304.6 521.82 1306.4 521.82C1307.48 521.82 1311.98 521.46 1326.02 521.46H1329.26C1328.9 538.38 1328.54 550.44 1328.54 552.24C1328.54 554.04 1328.72 554.22 1330.7 554.22H1346.18C1347.98 554.22 1348.16 554.04 1348.16 552.24C1348.16 550.44 1347.8 538.56 1347.62 521.46H1351.58C1365.62 521.46 1370.12 521.82 1371.2 521.82C1373 521.82 1373.18 521.64 1373.18 519.66V506.52C1373.18 504.72 1373 504.54 1371.2 504.54C1370.12 504.54 1365.62 504.9 1351.58 504.9H1347.44C1347.26 490.86 1347.08 474.84 1347.08 458.64C1356.8 481.14 1368.32 498.78 1389.02 519.12C1390.82 520.92 1391.9 522 1392.8 522C1393.7 522 1394.42 520.74 1395.68 518.22C1397.84 513.9 1400.72 509.94 1404.5 506.16C1380.2 485.64 1366.88 468.9 1354.46 444.6H1373.18C1390.64 444.6 1396.76 444.96 1398.02 444.96C1399.64 444.96 1399.82 444.78 1399.82 442.98V429.12C1399.82 427.14 1399.64 427.14 1398.02 427.14C1396.76 427.14 1390.64 427.32 1373.18 427.32H1347.62V415.26C1347.62 403.02 1347.8 399.24 1348.7 397.08C1349.24 395.82 1349.96 394.74 1349.96 393.3C1349.96 392.4 1348.88 391.5 1347.08 391.5C1340.96 390.6 1334.66 390.24 1328.18 390.06C1329.08 397.8 1329.44 404.1 1329.44 415.62V427.32H1311.26C1293.62 427.32 1287.68 427.14 1286.6 427.14C1284.8 427.14 1284.62 427.14 1284.62 429.12V442.98C1284.62 444.78 1284.8 444.96 1286.6 444.96C1287.68 444.96 1293.62 444.6 1311.26 444.6H1321.34Z" fill="#1A73E8"/>
<path d="M1524.56 495.18C1520.24 494.28 1514.84 493.74 1510.16 493.74C1491.98 493.74 1478.66 504.36 1478.66 519.12C1478.66 534.6 1490.18 544.32 1510.88 544.32C1532.12 544.32 1542.38 536.04 1543.82 520.92C1551.74 525.6 1557.68 530.1 1563.26 535.32C1563.8 535.86 1564.34 536.22 1564.88 536.22C1565.42 536.22 1565.96 535.86 1566.5 535.14C1569.56 531 1572.44 525.96 1574.78 521.28C1575.68 519.3 1575.5 518.76 1573.88 517.68C1563.8 509.76 1554.62 504.72 1544 500.4C1543.1 484.92 1542.74 472.32 1542.74 452.16C1552.1 451.44 1563.98 450 1570.46 448.38C1571.72 448.2 1572.44 447.3 1572.44 445.68C1572.44 441.9 1572.08 436.14 1571.36 432.9C1571 430.92 1570.64 430.2 1568.48 430.74C1560.74 432 1551.38 433.26 1542.92 433.98C1542.92 425.7 1542.92 421.02 1543.28 414.9C1543.46 412.56 1544 410.22 1544.72 408.6C1545.44 406.98 1545.8 406.44 1545.8 405.54C1545.8 403.92 1544.54 403.02 1542.56 402.48C1536.62 400.68 1531.22 399.96 1520.78 399.06C1522.4 405.54 1522.94 410.22 1523.12 416.7C1523.12 423.36 1523.3 429.12 1523.3 435.6C1509.8 436.5 1495.76 436.32 1482.26 435.06C1482.26 440.64 1482.8 447.12 1483.52 451.44C1483.7 453.24 1484.42 453.78 1486.76 453.78C1499 454.68 1511.6 454.32 1523.84 453.96C1524.02 468.18 1524.2 481.32 1524.56 495.18ZM1524.92 512.28C1525.1 513.72 1525.1 514.62 1525.1 515.88C1525.1 522.36 1519.34 527.58 1510.34 527.58C1499.72 527.58 1495.76 524.16 1495.76 518.58C1495.76 513 1500.8 509.94 1509.26 509.94C1514.3 509.94 1519.16 510.48 1524.92 512.28ZM1441.4 399.42C1442.12 406.62 1441.04 414.36 1440.14 420.66C1434.2 457.2 1432.76 471.6 1432.76 488.88C1432.76 509.58 1435.46 531 1440.5 543.78C1441.4 546.3 1442.12 546.48 1444.1 545.94C1448.96 545.22 1454.18 544.14 1457.6 542.88C1459.22 542.34 1459.94 541.8 1459.76 540.54C1459.58 538.74 1459.22 536.04 1459.94 531C1460.66 525.78 1462.82 517.86 1469.12 503.64C1469.84 502.56 1470.2 501.66 1470.2 500.76C1470.2 499.86 1469.84 499.14 1469.12 498.24C1466.78 495.18 1465.34 492.66 1462.82 486.9C1459.04 495.9 1455.26 503.64 1451.66 511.92C1451.12 504.36 1451.12 496.08 1451.12 488.88C1451.12 475.74 1454.18 450.54 1460.12 423.36C1461.38 418.14 1462.1 415.62 1463.36 413.46C1464.08 412.02 1464.62 410.76 1464.62 409.5C1464.62 408.06 1463.9 406.98 1461.92 405.9C1458.32 404.1 1448.6 401.22 1441.4 399.42Z" fill="#1A73E8"/>
<path d="M1101.56 668.88C1103.72 673.92 1104.98 680.22 1106.24 689.76C1108.04 703.62 1111.28 719.82 1115.6 733.68C1094.54 747 1081.4 760.14 1081.4 780.12C1081.4 803.52 1099.4 814.68 1133.42 814.68C1156.28 814.68 1170.68 814.14 1187.06 811.98C1189.22 811.8 1190.48 810.9 1190.3 808.92C1189.94 803.52 1189.4 797.04 1188.5 792.18C1188.14 790.02 1187.24 789.66 1185.26 790.02C1171.4 792.54 1151.78 794.16 1131.62 794.16C1109.12 794.16 1101.74 789.48 1101.74 779.04C1101.74 770.58 1107.32 762.12 1122.98 751.86C1135.4 743.76 1149.8 737.1 1165.28 730.8C1171.04 728.46 1177.16 726.3 1182.56 725.4C1185.08 725.04 1186.16 723.6 1186.16 721.8C1186.16 720.54 1185.62 719.1 1184.9 718.02C1182.2 713.34 1177.52 707.04 1171.76 701.1C1168.88 704.7 1164.56 707.76 1159.34 710.82C1149.26 716.22 1142.78 719.64 1133.78 724.5C1131.44 715.14 1129.64 706.14 1128.02 693.54C1127.66 689.4 1127.12 685.08 1127.12 681.48C1127.12 678.96 1128.38 676.44 1128.38 673.92C1128.38 672.48 1127.3 671.58 1125.14 671.04C1118.48 669.42 1110.2 668.88 1101.56 668.88ZM1174.46 679.86C1181.48 685.62 1187.24 692.46 1192.64 700.74C1193.54 702 1194.44 702.18 1195.7 701.28L1203.26 695.7C1204.52 694.8 1204.52 693.9 1203.8 692.82C1198.76 685.08 1192.28 677.88 1186.7 673.56C1185.62 672.66 1184.9 672.48 1184 673.2L1174.46 679.86ZM1191.02 667.98C1198.4 674.1 1204.16 680.94 1209.02 688.68C1209.74 689.76 1210.64 690.3 1212.08 689.22L1219.28 683.64C1220.72 682.56 1220.54 681.48 1219.82 680.4C1215.86 674.1 1209.38 666.9 1202.72 661.86C1201.64 660.96 1201.1 660.78 1200.02 661.5L1191.02 667.98Z" fill="#1A73E8"/>
<path d="M1290.02 748.98C1299.92 732.78 1309.64 713.88 1321.16 691.74C1322.78 689.04 1324.58 686.34 1326.74 684C1328 682.74 1328.72 681.48 1328.72 680.4C1328.72 678.96 1327.82 677.7 1326.2 676.62C1321.34 673.2 1314.5 669.96 1306.04 666.54C1304.6 674.64 1302.26 680.94 1297.04 692.82C1287.14 715.32 1270.58 749.7 1244.3 801.18C1243.76 802.08 1243.4 802.98 1243.4 803.7C1243.4 804.42 1243.94 805.32 1245.02 806.04C1249.16 809.28 1254.02 811.8 1258.88 813.78C1261.22 814.5 1262.12 814.14 1263.2 811.62C1270.22 795.06 1277.78 780.3 1284.26 771.66C1291.46 762.12 1299.2 756.36 1306.94 756.36C1313.24 756.36 1317.2 761.58 1318.82 779.58C1321.16 804.96 1328.9 814.5 1347.08 814.5C1359.5 814.5 1371.2 809.1 1380.2 799.38C1386.14 792.9 1392.08 784.62 1395.68 777.06C1396.22 775.98 1396.4 775.08 1396.4 774C1396.4 772.74 1395.86 771.48 1394.42 770.22C1391.18 766.98 1387.58 763.38 1383.98 755.28C1379.48 767.52 1372.1 777.96 1365.8 784.62C1360.76 790.02 1355.36 793.26 1348.88 793.26C1342.04 793.26 1339.88 787.32 1338.44 774.18C1336.46 756.9 1331.6 740.16 1312.16 740.16C1305.14 740.16 1297.4 743.4 1290.2 749.34L1290.02 748.98Z" fill="#1A73E8"/>
<path d="M1514.48 769.86C1508.72 768.96 1503.68 768.78 1500.26 768.78C1479.92 768.78 1466.96 779.4 1466.96 795.06C1466.96 810.54 1480.28 820.62 1500.08 820.62C1520.6 820.62 1533.56 812.34 1533.56 794.34C1540.94 798.66 1547.6 802.62 1555.52 809.46C1556.24 810.18 1556.78 810.54 1557.32 810.54C1557.86 810.54 1558.4 810.18 1558.94 809.28C1562 804.78 1564.52 800.28 1567.22 794.7C1568.12 792.9 1567.94 792.18 1566.14 790.92C1555.52 783.36 1546.7 779.4 1533.74 774.18C1532.3 761.94 1531.76 754.2 1531.76 743.58C1531.58 740.52 1531.76 738.36 1532.48 736.2C1533.2 734.04 1533.56 732.78 1533.56 732.42C1533.56 730.8 1532.66 729.9 1531.04 729.54C1524.92 727.74 1520.24 727.02 1511.42 726.12C1512.5 731.16 1512.68 734.04 1512.86 738.9C1513.04 747.36 1513.4 758.34 1514.48 769.86ZM1514.84 786.96C1515.02 788.04 1515.02 788.94 1515.02 790.56C1515.02 798.12 1509.08 803.34 1499.36 803.34C1489.1 803.34 1484.06 800.46 1484.06 794.7C1484.06 787.86 1491.08 784.26 1500.08 784.26C1505.66 784.26 1510.52 785.52 1514.84 786.96ZM1485.5 694.62C1487.12 689.22 1488.56 683.64 1489.82 679.32C1490.9 675.72 1491.62 674.1 1492.7 672.66C1493.78 671.58 1494.32 670.68 1494.32 669.24C1494.32 667.98 1493.24 666.9 1491.44 666.54C1485.86 664.92 1478.12 663.84 1470.38 662.76C1470.38 668.34 1470.38 671.04 1469.3 677.34C1468.04 683.82 1466.78 689.94 1464.62 697.5C1456.34 698.22 1450.94 698.4 1443.92 698.4C1438.7 698.4 1434.56 698.22 1427.18 697.68C1427.54 703.62 1428.08 709.56 1428.98 712.98C1429.34 715.32 1429.7 715.86 1431.5 715.86C1436 716.04 1437.44 716.04 1441.4 716.04C1446.98 716.04 1452.56 716.04 1459.4 715.68C1451.3 737.28 1441.76 756.18 1428.26 778.5C1427.54 779.4 1427.36 780.12 1427.36 780.66C1427.36 781.38 1427.72 781.92 1428.62 782.64C1431.68 785.52 1436.9 789.3 1441.04 791.82C1441.94 792.36 1442.66 792.72 1443.2 792.72C1443.92 792.72 1444.46 792.18 1445.18 790.92C1458.14 768.96 1468.76 744.12 1480.28 713.7C1491.44 712.08 1500.26 710.82 1509.98 708.84C1511.42 708.66 1512.14 708.3 1512.14 706.68C1511.96 702 1511.42 696.6 1510.52 692.1C1510.16 690.12 1509.44 690.12 1507.82 690.66C1500.8 692.28 1492.52 693.9 1485.5 694.62ZM1525.46 711.72C1539.14 716.22 1552.1 724.14 1562.72 731.34C1563.44 731.88 1563.8 732.06 1564.34 732.06C1564.88 732.06 1565.42 731.7 1565.96 730.8C1568.48 727.02 1571.72 721.44 1573.52 717.48C1574.06 716.58 1574.24 715.86 1574.24 715.32C1574.24 714.6 1573.7 714.06 1572.62 713.34C1562.18 706.5 1547.96 699.3 1537.34 696.42C1535.54 695.7 1534.64 695.88 1533.56 697.68C1531.22 700.92 1528.52 706.32 1525.46 711.72Z" fill="#1A73E8"/>
<path d="M1654.16 709.02C1655.24 692.64 1664.24 683.1 1678.46 683.1C1691.78 683.1 1700.24 690.84 1700.24 703.08C1700.24 712.26 1696.82 718.56 1683.86 731.52C1671.08 744.3 1667.3 752.4 1667.3 770.22V774.54H1685.84C1686.02 757.8 1688.18 752.04 1703.12 739.62C1719.14 726.12 1724.54 715.68 1724.54 703.08C1724.54 680.04 1706.36 665.1 1678.28 665.1C1651.64 665.1 1634.36 679.5 1630.94 703.62L1654.16 709.02ZM1663.7 792V816.3H1689.26V792H1663.7Z" fill="#1A73E8"/>
<path d="M133.491 1029V1025.72L143.804 1011.95H133.534V1007.18H151.347V1010.46L141.034 1024.23H151.304V1029H133.491ZM162.162 1029.3C160.415 1029.3 158.91 1028.96 157.645 1028.3C156.388 1027.62 155.419 1026.66 154.737 1025.4C154.062 1024.13 153.725 1022.62 153.725 1020.86C153.725 1019.17 154.066 1017.69 154.748 1016.43C155.43 1015.16 156.392 1014.18 157.635 1013.48C158.878 1012.77 160.344 1012.42 162.035 1012.42C163.27 1012.42 164.389 1012.62 165.39 1013C166.392 1013.38 167.248 1013.94 167.958 1014.67C168.668 1015.4 169.215 1016.28 169.599 1017.31C169.982 1018.35 170.174 1019.52 170.174 1020.82V1022.18H155.557V1018.94H164.762C164.755 1018.47 164.634 1018.06 164.4 1017.71C164.172 1017.35 163.863 1017.06 163.473 1016.87C163.089 1016.66 162.653 1016.56 162.162 1016.56C161.687 1016.56 161.25 1016.66 160.852 1016.87C160.454 1017.06 160.135 1017.34 159.893 1017.7C159.659 1018.05 159.535 1018.47 159.52 1018.94V1022.44C159.52 1022.96 159.631 1023.43 159.851 1023.84C160.071 1024.26 160.387 1024.58 160.799 1024.81C161.211 1025.05 161.708 1025.16 162.29 1025.16C162.695 1025.16 163.064 1025.11 163.398 1024.99C163.739 1024.88 164.03 1024.72 164.272 1024.5C164.513 1024.28 164.691 1024.02 164.805 1023.72H170.174C169.989 1024.85 169.552 1025.84 168.863 1026.68C168.175 1027.51 167.262 1028.15 166.126 1028.62C164.996 1029.07 163.675 1029.3 162.162 1029.3ZM178.454 1019.8V1029H172.574V1012.64H178.156V1015.75H178.326C178.681 1014.71 179.306 1013.9 180.201 1013.31C181.103 1012.72 182.154 1012.42 183.355 1012.42C184.512 1012.42 185.517 1012.69 186.37 1013.22C187.229 1013.75 187.893 1014.47 188.362 1015.4C188.838 1016.32 189.072 1017.37 189.065 1018.56V1029H183.184V1019.8C183.191 1018.99 182.985 1018.35 182.566 1017.89C182.154 1017.43 181.579 1017.2 180.841 1017.2C180.358 1017.2 179.935 1017.3 179.573 1017.52C179.218 1017.72 178.944 1018.02 178.752 1018.41C178.561 1018.79 178.461 1019.26 178.454 1019.8ZM197.859 1029V1007.18H203.783V1016H204.081L210.643 1007.18H217.547L210.175 1016.9L217.717 1029H210.643L205.743 1020.82L203.783 1023.38V1029H197.859ZM223.95 1029.26C222.906 1029.26 221.982 1029.09 221.18 1028.74C220.384 1028.4 219.759 1027.87 219.305 1027.17C218.85 1026.46 218.623 1025.57 218.623 1024.48C218.623 1023.59 218.776 1022.82 219.081 1022.19C219.386 1021.55 219.812 1021.03 220.359 1020.63C220.906 1020.22 221.542 1019.91 222.266 1019.7C222.998 1019.49 223.786 1019.35 224.631 1019.28C225.548 1019.21 226.283 1019.13 226.837 1019.03C227.398 1018.92 227.803 1018.78 228.051 1018.59C228.3 1018.4 228.424 1018.15 228.424 1017.84V1017.79C228.424 1017.37 228.261 1017.04 227.934 1016.81C227.607 1016.59 227.188 1016.47 226.677 1016.47C226.116 1016.47 225.658 1016.6 225.303 1016.84C224.955 1017.09 224.745 1017.46 224.674 1017.96H219.262C219.333 1016.97 219.649 1016.05 220.21 1015.21C220.778 1014.37 221.606 1013.69 222.692 1013.19C223.779 1012.68 225.136 1012.42 226.762 1012.42C227.934 1012.42 228.985 1012.56 229.915 1012.84C230.846 1013.11 231.638 1013.49 232.291 1013.98C232.945 1014.46 233.442 1015.03 233.783 1015.68C234.131 1016.33 234.305 1017.03 234.305 1017.79V1029H228.808V1026.7H228.68C228.353 1027.31 227.955 1027.8 227.487 1028.18C227.025 1028.56 226.496 1028.83 225.899 1029C225.31 1029.17 224.66 1029.26 223.95 1029.26ZM225.867 1025.55C226.315 1025.55 226.734 1025.46 227.124 1025.27C227.522 1025.09 227.845 1024.82 228.094 1024.47C228.342 1024.12 228.467 1023.7 228.467 1023.2V1021.84C228.31 1021.9 228.143 1021.97 227.966 1022.02C227.795 1022.08 227.611 1022.13 227.412 1022.18C227.22 1022.23 227.014 1022.28 226.794 1022.32C226.581 1022.36 226.357 1022.4 226.123 1022.44C225.668 1022.51 225.295 1022.63 225.004 1022.79C224.72 1022.95 224.507 1023.14 224.365 1023.38C224.23 1023.6 224.163 1023.86 224.163 1024.14C224.163 1024.6 224.322 1024.94 224.642 1025.19C224.962 1025.43 225.37 1025.55 225.867 1025.55ZM242.399 1025.12L242.441 1018.13H243.208L247.171 1012.64H253.776L247.129 1021.2H245.467L242.399 1025.12ZM237.115 1029V1007.18H242.995V1029H237.115ZM247.214 1029L243.464 1022.52L247.299 1018.35L253.947 1029H247.214ZM265.919 1021.84V1012.64H271.799V1029H266.217V1025.89H266.047C265.691 1026.93 265.07 1027.75 264.182 1028.34C263.294 1028.92 262.24 1029.21 261.018 1029.21C259.875 1029.21 258.873 1028.95 258.014 1028.42C257.162 1027.9 256.498 1027.17 256.022 1026.25C255.553 1025.33 255.315 1024.27 255.308 1023.08V1012.64H261.189V1021.84C261.196 1022.65 261.402 1023.29 261.806 1023.75C262.218 1024.21 262.794 1024.44 263.532 1024.44C264.022 1024.44 264.445 1024.34 264.8 1024.13C265.162 1023.92 265.439 1023.62 265.631 1023.24C265.83 1022.85 265.926 1022.38 265.919 1021.84ZM294.851 1014.38C294.758 1014.01 294.613 1013.68 294.414 1013.39C294.215 1013.1 293.966 1012.86 293.668 1012.66C293.377 1012.45 293.036 1012.3 292.645 1012.2C292.262 1012.09 291.839 1012.04 291.378 1012.04C290.383 1012.04 289.535 1012.28 288.831 1012.75C288.135 1013.23 287.603 1013.91 287.233 1014.81C286.871 1015.7 286.69 1016.78 286.69 1018.05C286.69 1019.33 286.864 1020.42 287.212 1021.33C287.56 1022.24 288.079 1022.93 288.768 1023.42C289.456 1023.9 290.312 1024.14 291.335 1024.14C292.237 1024.14 292.986 1024.01 293.583 1023.75C294.187 1023.49 294.638 1023.11 294.936 1022.63C295.234 1022.15 295.383 1021.58 295.383 1020.92L296.406 1021.03H291.42V1016.81H301.094V1019.84C301.094 1021.83 300.671 1023.53 299.826 1024.94C298.988 1026.35 297.83 1027.43 296.353 1028.18C294.883 1028.93 293.196 1029.3 291.292 1029.3C289.169 1029.3 287.305 1028.85 285.699 1027.95C284.094 1027.04 282.841 1025.76 281.939 1024.09C281.044 1022.42 280.596 1020.43 280.596 1018.13C280.596 1016.33 280.87 1014.73 281.417 1013.34C281.971 1011.95 282.738 1010.77 283.718 1009.81C284.698 1008.85 285.831 1008.12 287.116 1007.63C288.402 1007.13 289.78 1006.88 291.25 1006.88C292.542 1006.88 293.743 1007.07 294.851 1007.44C295.966 1007.8 296.949 1008.32 297.802 1008.99C298.661 1009.66 299.354 1010.45 299.879 1011.37C300.405 1012.28 300.724 1013.29 300.838 1014.38H294.851ZM311.824 1029.3C310.049 1029.3 308.529 1028.95 307.265 1028.24C306 1027.53 305.031 1026.55 304.356 1025.28C303.681 1024.01 303.344 1022.54 303.344 1020.86C303.344 1019.18 303.681 1017.71 304.356 1016.45C305.031 1015.18 306 1014.19 307.265 1013.49C308.529 1012.78 310.049 1012.42 311.824 1012.42C313.6 1012.42 315.12 1012.78 316.384 1013.49C317.648 1014.19 318.618 1015.18 319.292 1016.45C319.967 1017.71 320.304 1019.18 320.304 1020.86C320.304 1022.54 319.967 1024.01 319.292 1025.28C318.618 1026.55 317.648 1027.53 316.384 1028.24C315.12 1028.95 313.6 1029.3 311.824 1029.3ZM311.867 1024.95C312.364 1024.95 312.794 1024.78 313.156 1024.45C313.518 1024.12 313.799 1023.64 313.998 1023.02C314.196 1022.41 314.296 1021.67 314.296 1020.82C314.296 1019.96 314.196 1019.22 313.998 1018.61C313.799 1018 313.518 1017.52 313.156 1017.19C312.794 1016.85 312.364 1016.68 311.867 1016.68C311.341 1016.68 310.89 1016.85 310.514 1017.19C310.137 1017.52 309.85 1018 309.651 1018.61C309.452 1019.22 309.353 1019.96 309.353 1020.82C309.353 1021.67 309.452 1022.41 309.651 1023.02C309.85 1023.64 310.137 1024.12 310.514 1024.45C310.89 1024.78 311.341 1024.95 311.867 1024.95ZM332.449 1012.64V1016.9H321.668V1012.64H332.449ZM323.756 1008.72H329.637V1023.74C329.637 1023.96 329.676 1024.16 329.754 1024.31C329.832 1024.46 329.953 1024.58 330.116 1024.65C330.279 1024.72 330.489 1024.76 330.745 1024.76C330.922 1024.76 331.128 1024.74 331.363 1024.7C331.604 1024.65 331.782 1024.62 331.895 1024.59L332.748 1028.72C332.485 1028.8 332.108 1028.9 331.618 1029.01C331.135 1029.12 330.56 1029.2 329.892 1029.23C328.543 1029.31 327.41 1029.17 326.494 1028.82C325.578 1028.46 324.889 1027.91 324.427 1027.15C323.966 1026.39 323.742 1025.43 323.756 1024.29V1008.72ZM341.081 1019.8V1029H335.2V1007.18H340.868V1015.75H341.039C341.408 1014.7 342.022 1013.89 342.882 1013.31C343.741 1012.72 344.774 1012.42 345.982 1012.42C347.139 1012.42 348.144 1012.69 348.997 1013.21C349.856 1013.74 350.52 1014.46 350.989 1015.38C351.465 1016.31 351.699 1017.37 351.692 1018.56V1029H345.811V1019.8C345.818 1018.99 345.616 1018.35 345.204 1017.89C344.799 1017.43 344.22 1017.2 343.468 1017.2C342.992 1017.2 342.573 1017.3 342.21 1017.52C341.855 1017.72 341.578 1018.02 341.379 1018.41C341.188 1018.79 341.088 1019.26 341.081 1019.8ZM354.595 1029V1012.64H360.476V1029H354.595ZM357.535 1010.93C356.74 1010.93 356.058 1010.67 355.49 1010.14C354.922 1009.62 354.638 1008.99 354.638 1008.25C354.638 1007.51 354.922 1006.88 355.49 1006.35C356.058 1005.83 356.74 1005.56 357.535 1005.56C358.338 1005.56 359.02 1005.83 359.581 1006.35C360.149 1006.88 360.433 1007.51 360.433 1008.25C360.433 1008.99 360.149 1009.62 359.581 1010.14C359.02 1010.67 358.338 1010.93 357.535 1010.93ZM371.355 1029.3C369.58 1029.3 368.06 1028.95 366.796 1028.24C365.532 1027.53 364.562 1026.55 363.887 1025.28C363.213 1024.01 362.875 1022.54 362.875 1020.86C362.875 1019.18 363.213 1017.71 363.887 1016.45C364.562 1015.18 365.532 1014.19 366.796 1013.49C368.06 1012.78 369.58 1012.42 371.355 1012.42C372.961 1012.42 374.349 1012.71 375.521 1013.3C376.7 1013.87 377.613 1014.69 378.259 1015.75C378.905 1016.8 379.232 1018.03 379.239 1019.45H373.784C373.706 1018.6 373.458 1017.94 373.039 1017.49C372.627 1017.04 372.094 1016.81 371.441 1016.81C370.929 1016.81 370.482 1016.96 370.098 1017.26C369.715 1017.55 369.417 1018 369.203 1018.59C368.99 1019.18 368.884 1019.92 368.884 1020.82C368.884 1021.71 368.99 1022.46 369.203 1023.06C369.417 1023.64 369.715 1024.09 370.098 1024.39C370.482 1024.68 370.929 1024.82 371.441 1024.82C371.874 1024.82 372.257 1024.72 372.591 1024.53C372.925 1024.32 373.195 1024.02 373.401 1023.63C373.614 1023.23 373.742 1022.75 373.784 1022.18H379.239C379.218 1023.62 378.887 1024.88 378.248 1025.95C377.609 1027.02 376.703 1027.84 375.532 1028.42C374.367 1029.01 372.975 1029.3 371.355 1029.3ZM406.434 1007.18V1029H401.491L393.608 1017.54H393.48V1029H387.557V1007.18H392.585L400.341 1018.6H400.511V1007.18H406.434ZM417.162 1029.3C415.415 1029.3 413.91 1028.96 412.645 1028.3C411.388 1027.62 410.419 1026.66 409.737 1025.4C409.062 1024.13 408.725 1022.62 408.725 1020.86C408.725 1019.17 409.066 1017.69 409.748 1016.43C410.43 1015.16 411.392 1014.18 412.635 1013.48C413.878 1012.77 415.344 1012.42 417.035 1012.42C418.27 1012.42 419.389 1012.62 420.39 1013C421.392 1013.38 422.248 1013.94 422.958 1014.67C423.668 1015.4 424.215 1016.28 424.599 1017.31C424.982 1018.35 425.174 1019.52 425.174 1020.82V1022.18H410.557V1018.94H419.762C419.755 1018.47 419.634 1018.06 419.4 1017.71C419.172 1017.35 418.863 1017.06 418.473 1016.87C418.089 1016.66 417.653 1016.56 417.162 1016.56C416.687 1016.56 416.25 1016.66 415.852 1016.87C415.454 1017.06 415.135 1017.34 414.893 1017.7C414.659 1018.05 414.535 1018.47 414.52 1018.94V1022.44C414.52 1022.96 414.631 1023.43 414.851 1023.84C415.071 1024.26 415.387 1024.58 415.799 1024.81C416.211 1025.05 416.708 1025.16 417.29 1025.16C417.695 1025.16 418.064 1025.11 418.398 1024.99C418.739 1024.88 419.03 1024.72 419.272 1024.5C419.513 1024.28 419.691 1024.02 419.805 1023.72H425.174C424.989 1024.85 424.552 1025.84 423.863 1026.68C423.175 1027.51 422.262 1028.15 421.126 1028.62C419.996 1029.07 418.675 1029.3 417.162 1029.3ZM430.266 1029L426.175 1012.64H432.056L433.931 1022.61H434.059L436.147 1012.64H441.857L444.03 1022.52H444.158L445.948 1012.64H451.829L447.738 1029H441.388L439.087 1020.22H438.917L436.616 1029H430.266Z" fill="#FF6D7F"/>
<path d="M1049.51 1007.18H1056.12L1060.38 1016.05H1060.55L1064.81 1007.18H1071.41L1063.4 1022.14V1029H1057.52V1022.14L1049.51 1007.18ZM1082.84 1021.84V1012.64H1088.72V1029H1083.14V1025.89H1082.97C1082.61 1026.93 1081.99 1027.75 1081.1 1028.34C1080.22 1028.92 1079.16 1029.21 1077.94 1029.21C1076.8 1029.21 1075.8 1028.95 1074.94 1028.42C1074.08 1027.9 1073.42 1027.17 1072.94 1026.25C1072.47 1025.33 1072.24 1024.27 1072.23 1023.08V1012.64H1078.11V1021.84C1078.12 1022.65 1078.32 1023.29 1078.73 1023.75C1079.14 1024.21 1079.72 1024.44 1080.45 1024.44C1080.94 1024.44 1081.37 1024.34 1081.72 1024.13C1082.08 1023.92 1082.36 1023.62 1082.55 1023.24C1082.75 1022.85 1082.85 1022.38 1082.84 1021.84ZM1111.77 1014.38C1111.68 1014.01 1111.53 1013.68 1111.34 1013.39C1111.14 1013.1 1110.89 1012.86 1110.59 1012.66C1110.3 1012.45 1109.96 1012.3 1109.57 1012.2C1109.18 1012.09 1108.76 1012.04 1108.3 1012.04C1107.31 1012.04 1106.46 1012.28 1105.75 1012.75C1105.06 1013.23 1104.52 1013.91 1104.16 1014.81C1103.79 1015.7 1103.61 1016.78 1103.61 1018.05C1103.61 1019.33 1103.79 1020.42 1104.13 1021.33C1104.48 1022.24 1105 1022.93 1105.69 1023.42C1106.38 1023.9 1107.23 1024.14 1108.26 1024.14C1109.16 1024.14 1109.91 1024.01 1110.5 1023.75C1111.11 1023.49 1111.56 1023.11 1111.86 1022.63C1112.16 1022.15 1112.31 1021.58 1112.31 1020.92L1113.33 1021.03H1108.34V1016.81H1118.02V1019.84C1118.02 1021.83 1117.59 1023.53 1116.75 1024.94C1115.91 1026.35 1114.75 1027.43 1113.27 1028.18C1111.8 1028.93 1110.12 1029.3 1108.21 1029.3C1106.09 1029.3 1104.23 1028.85 1102.62 1027.95C1101.02 1027.04 1099.76 1025.76 1098.86 1024.09C1097.97 1022.42 1097.52 1020.43 1097.52 1018.13C1097.52 1016.33 1097.79 1014.73 1098.34 1013.34C1098.89 1011.95 1099.66 1010.77 1100.64 1009.81C1101.62 1008.85 1102.75 1008.12 1104.04 1007.63C1105.32 1007.13 1106.7 1006.88 1108.17 1006.88C1109.46 1006.88 1110.66 1007.07 1111.77 1007.44C1112.89 1007.8 1113.87 1008.32 1114.72 1008.99C1115.58 1009.66 1116.28 1010.45 1116.8 1011.37C1117.33 1012.28 1117.65 1013.29 1117.76 1014.38H1111.77ZM1128.75 1029.3C1126.97 1029.3 1125.45 1028.95 1124.19 1028.24C1122.92 1027.53 1121.95 1026.55 1121.28 1025.28C1120.6 1024.01 1120.27 1022.54 1120.27 1020.86C1120.27 1019.18 1120.6 1017.71 1121.28 1016.45C1121.95 1015.18 1122.92 1014.19 1124.19 1013.49C1125.45 1012.78 1126.97 1012.42 1128.75 1012.42C1130.52 1012.42 1132.04 1012.78 1133.31 1013.49C1134.57 1014.19 1135.54 1015.18 1136.21 1016.45C1136.89 1017.71 1137.23 1019.18 1137.23 1020.86C1137.23 1022.54 1136.89 1024.01 1136.21 1025.28C1135.54 1026.55 1134.57 1027.53 1133.31 1028.24C1132.04 1028.95 1130.52 1029.3 1128.75 1029.3ZM1128.79 1024.95C1129.29 1024.95 1129.72 1024.78 1130.08 1024.45C1130.44 1024.12 1130.72 1023.64 1130.92 1023.02C1131.12 1022.41 1131.22 1021.67 1131.22 1020.82C1131.22 1019.96 1131.12 1019.22 1130.92 1018.61C1130.72 1018 1130.44 1017.52 1130.08 1017.19C1129.72 1016.85 1129.29 1016.68 1128.79 1016.68C1128.26 1016.68 1127.81 1016.85 1127.44 1017.19C1127.06 1017.52 1126.77 1018 1126.57 1018.61C1126.37 1019.22 1126.27 1019.96 1126.27 1020.82C1126.27 1021.67 1126.37 1022.41 1126.57 1023.02C1126.77 1023.64 1127.06 1024.12 1127.44 1024.45C1127.81 1024.78 1128.26 1024.95 1128.79 1024.95ZM1149.37 1012.64V1016.9H1138.59V1012.64H1149.37ZM1140.68 1008.72H1146.56V1023.74C1146.56 1023.96 1146.6 1024.16 1146.68 1024.31C1146.75 1024.46 1146.87 1024.58 1147.04 1024.65C1147.2 1024.72 1147.41 1024.76 1147.67 1024.76C1147.84 1024.76 1148.05 1024.74 1148.28 1024.7C1148.53 1024.65 1148.7 1024.62 1148.82 1024.59L1149.67 1028.72C1149.41 1028.8 1149.03 1028.9 1148.54 1029.01C1148.06 1029.12 1147.48 1029.2 1146.81 1029.23C1145.46 1029.31 1144.33 1029.17 1143.42 1028.82C1142.5 1028.46 1141.81 1027.91 1141.35 1027.15C1140.89 1026.39 1140.66 1025.43 1140.68 1024.29V1008.72ZM1158 1019.8V1029H1152.12V1007.18H1157.79V1015.75H1157.96C1158.33 1014.7 1158.94 1013.89 1159.8 1013.31C1160.66 1012.72 1161.7 1012.42 1162.9 1012.42C1164.06 1012.42 1165.07 1012.69 1165.92 1013.21C1166.78 1013.74 1167.44 1014.46 1167.91 1015.38C1168.39 1016.31 1168.62 1017.37 1168.61 1018.56V1029H1162.73V1019.8C1162.74 1018.99 1162.54 1018.35 1162.13 1017.89C1161.72 1017.43 1161.14 1017.2 1160.39 1017.2C1159.91 1017.2 1159.49 1017.3 1159.13 1017.52C1158.78 1017.72 1158.5 1018.02 1158.3 1018.41C1158.11 1018.79 1158.01 1019.26 1158 1019.8ZM1171.52 1029V1012.64H1177.4V1029H1171.52ZM1174.46 1010.93C1173.66 1010.93 1172.98 1010.67 1172.41 1010.14C1171.84 1009.62 1171.56 1008.99 1171.56 1008.25C1171.56 1007.51 1171.84 1006.88 1172.41 1006.35C1172.98 1005.83 1173.66 1005.56 1174.46 1005.56C1175.26 1005.56 1175.94 1005.83 1176.5 1006.35C1177.07 1006.88 1177.35 1007.51 1177.35 1008.25C1177.35 1008.99 1177.07 1009.62 1176.5 1010.14C1175.94 1010.67 1175.26 1010.93 1174.46 1010.93ZM1188.28 1029.3C1186.5 1029.3 1184.98 1028.95 1183.72 1028.24C1182.45 1027.53 1181.48 1026.55 1180.81 1025.28C1180.13 1024.01 1179.8 1022.54 1179.8 1020.86C1179.8 1019.18 1180.13 1017.71 1180.81 1016.45C1181.48 1015.18 1182.45 1014.19 1183.72 1013.49C1184.98 1012.78 1186.5 1012.42 1188.28 1012.42C1189.88 1012.42 1191.27 1012.71 1192.44 1013.3C1193.62 1013.87 1194.53 1014.69 1195.18 1015.75C1195.83 1016.8 1196.15 1018.03 1196.16 1019.45H1190.71C1190.63 1018.6 1190.38 1017.94 1189.96 1017.49C1189.55 1017.04 1189.02 1016.81 1188.36 1016.81C1187.85 1016.81 1187.4 1016.96 1187.02 1017.26C1186.64 1017.55 1186.34 1018 1186.13 1018.59C1185.91 1019.18 1185.81 1019.92 1185.81 1020.82C1185.81 1021.71 1185.91 1022.46 1186.13 1023.06C1186.34 1023.64 1186.64 1024.09 1187.02 1024.39C1187.4 1024.68 1187.85 1024.82 1188.36 1024.82C1188.8 1024.82 1189.18 1024.72 1189.51 1024.53C1189.85 1024.32 1190.12 1024.02 1190.32 1023.63C1190.54 1023.23 1190.66 1022.75 1190.71 1022.18H1196.16C1196.14 1023.62 1195.81 1024.88 1195.17 1025.95C1194.53 1027.02 1193.63 1027.84 1192.45 1028.42C1191.29 1029.01 1189.9 1029.3 1188.28 1029.3Z" fill="#FF6D7F"/>
<path d="M1239.4 1007.18H1243.39L1250.34 1024.14H1250.59L1257.54 1007.18H1261.53V1029H1258.4V1013.21H1258.2L1251.77 1028.97H1249.17L1242.73 1013.2H1242.53V1029H1239.4V1007.18ZM1270.83 1029.36C1269.79 1029.36 1268.85 1029.17 1268.01 1028.79C1267.18 1028.4 1266.51 1027.83 1266.02 1027.09C1265.54 1026.35 1265.3 1025.45 1265.3 1024.38C1265.3 1023.45 1265.48 1022.69 1265.83 1022.1C1266.19 1021.5 1266.67 1021.03 1267.27 1020.68C1267.87 1020.33 1268.55 1020.07 1269.29 1019.89C1270.04 1019.71 1270.8 1019.58 1271.57 1019.49C1272.55 1019.37 1273.35 1019.28 1273.96 1019.21C1274.57 1019.13 1275.01 1019.01 1275.29 1018.84C1275.57 1018.67 1275.71 1018.39 1275.71 1018.01V1017.93C1275.71 1017 1275.44 1016.28 1274.92 1015.77C1274.4 1015.26 1273.63 1015 1272.6 1015C1271.52 1015 1270.68 1015.24 1270.06 1015.72C1269.45 1016.18 1269.03 1016.71 1268.79 1017.28L1265.8 1016.6C1266.15 1015.61 1266.67 1014.8 1267.35 1014.19C1268.04 1013.57 1268.84 1013.13 1269.73 1012.85C1270.62 1012.57 1271.57 1012.42 1272.55 1012.42C1273.21 1012.42 1273.9 1012.5 1274.63 1012.66C1275.37 1012.81 1276.06 1013.08 1276.7 1013.49C1277.34 1013.89 1277.87 1014.47 1278.28 1015.23C1278.7 1015.97 1278.9 1016.94 1278.9 1018.13V1029H1275.79V1026.76H1275.66C1275.46 1027.17 1275.15 1027.58 1274.74 1027.98C1274.33 1028.37 1273.8 1028.71 1273.15 1028.97C1272.5 1029.23 1271.73 1029.36 1270.83 1029.36ZM1271.52 1026.81C1272.4 1026.81 1273.15 1026.63 1273.78 1026.28C1274.41 1025.94 1274.89 1025.48 1275.22 1024.92C1275.55 1024.35 1275.72 1023.74 1275.72 1023.1V1020.99C1275.6 1021.1 1275.38 1021.21 1275.06 1021.31C1274.74 1021.4 1274.37 1021.48 1273.96 1021.55C1273.55 1021.62 1273.15 1021.68 1272.76 1021.73C1272.36 1021.78 1272.04 1021.83 1271.78 1021.86C1271.16 1021.94 1270.59 1022.07 1270.08 1022.26C1269.58 1022.44 1269.17 1022.71 1268.87 1023.06C1268.57 1023.4 1268.42 1023.85 1268.42 1024.42C1268.42 1025.21 1268.71 1025.8 1269.29 1026.21C1269.88 1026.61 1270.62 1026.81 1271.52 1026.81ZM1290.04 1029.33C1288.45 1029.33 1287.09 1028.97 1285.95 1028.25C1284.81 1027.53 1283.94 1026.53 1283.33 1025.26C1282.72 1023.99 1282.41 1022.53 1282.41 1020.89C1282.41 1019.23 1282.72 1017.76 1283.35 1016.49C1283.97 1015.21 1284.85 1014.22 1285.99 1013.5C1287.13 1012.78 1288.46 1012.42 1290.01 1012.42C1291.25 1012.42 1292.36 1012.65 1293.33 1013.12C1294.3 1013.57 1295.09 1014.21 1295.68 1015.03C1296.29 1015.86 1296.65 1016.82 1296.76 1017.92H1293.66C1293.49 1017.15 1293.1 1016.49 1292.49 1015.94C1291.88 1015.38 1291.07 1015.11 1290.06 1015.11C1289.17 1015.11 1288.39 1015.34 1287.73 1015.81C1287.07 1016.27 1286.55 1016.93 1286.18 1017.79C1285.81 1018.64 1285.63 1019.65 1285.63 1020.82C1285.63 1022.01 1285.81 1023.04 1286.17 1023.91C1286.53 1024.77 1287.04 1025.45 1287.7 1025.92C1288.37 1026.4 1289.16 1026.63 1290.06 1026.63C1290.66 1026.63 1291.21 1026.52 1291.7 1026.3C1292.2 1026.08 1292.61 1025.75 1292.95 1025.34C1293.29 1024.92 1293.53 1024.41 1293.66 1023.82H1296.76C1296.65 1024.88 1296.3 1025.83 1295.73 1026.66C1295.15 1027.49 1294.38 1028.14 1293.42 1028.62C1292.46 1029.09 1291.33 1029.33 1290.04 1029.33ZM1300.17 1029V1012.64H1303.35V1029H1300.17ZM1301.78 1010.11C1301.22 1010.11 1300.75 1009.93 1300.35 1009.56C1299.96 1009.18 1299.76 1008.73 1299.76 1008.22C1299.76 1007.69 1299.96 1007.24 1300.35 1006.87C1300.75 1006.5 1301.22 1006.31 1301.78 1006.31C1302.33 1006.31 1302.8 1006.5 1303.19 1006.87C1303.59 1007.24 1303.79 1007.69 1303.79 1008.22C1303.79 1008.73 1303.59 1009.18 1303.19 1009.56C1302.8 1009.93 1302.33 1010.11 1301.78 1010.11ZM1310.82 1019.28V1029H1307.64V1012.64H1310.69V1015.3H1310.9C1311.27 1014.43 1311.86 1013.74 1312.67 1013.21C1313.48 1012.69 1314.49 1012.42 1315.72 1012.42C1316.84 1012.42 1317.81 1012.66 1318.65 1013.13C1319.49 1013.59 1320.14 1014.28 1320.6 1015.19C1321.06 1016.11 1321.3 1017.24 1321.3 1018.59V1029H1318.11V1018.98C1318.11 1017.79 1317.8 1016.86 1317.18 1016.19C1316.56 1015.52 1315.72 1015.18 1314.64 1015.18C1313.9 1015.18 1313.24 1015.34 1312.67 1015.66C1312.1 1015.98 1311.65 1016.45 1311.31 1017.07C1310.99 1017.68 1310.82 1018.42 1310.82 1019.28ZM1333.21 1012.64V1015.19H1324.27V1012.64H1333.21ZM1326.66 1008.72H1329.85V1024.2C1329.85 1024.81 1329.94 1025.28 1330.13 1025.59C1330.31 1025.9 1330.55 1026.11 1330.84 1026.22C1331.14 1026.33 1331.46 1026.38 1331.81 1026.38C1332.07 1026.38 1332.29 1026.36 1332.48 1026.33C1332.67 1026.29 1332.82 1026.26 1332.93 1026.24L1333.5 1028.87C1333.32 1028.94 1333.06 1029.01 1332.72 1029.09C1332.37 1029.16 1331.95 1029.21 1331.44 1029.21C1330.6 1029.23 1329.82 1029.08 1329.09 1028.77C1328.37 1028.45 1327.78 1027.97 1327.34 1027.32C1326.89 1026.66 1326.66 1025.84 1326.66 1024.86V1008.72ZM1343.45 1029.33C1341.91 1029.33 1340.57 1028.98 1339.43 1028.28C1338.29 1027.57 1337.4 1026.59 1336.77 1025.32C1336.13 1024.06 1335.82 1022.58 1335.82 1020.89C1335.82 1019.2 1336.13 1017.71 1336.77 1016.44C1337.4 1015.17 1338.29 1014.18 1339.43 1013.48C1340.57 1012.77 1341.91 1012.42 1343.45 1012.42C1344.98 1012.42 1346.32 1012.77 1347.46 1013.48C1348.61 1014.18 1349.49 1015.17 1350.13 1016.44C1350.76 1017.71 1351.07 1019.2 1351.07 1020.89C1351.07 1022.58 1350.76 1024.06 1350.13 1025.32C1349.49 1026.59 1348.61 1027.57 1347.46 1028.28C1346.32 1028.98 1344.98 1029.33 1343.45 1029.33ZM1343.46 1026.66C1344.45 1026.66 1345.28 1026.39 1345.93 1025.87C1346.58 1025.34 1347.06 1024.64 1347.38 1023.77C1347.7 1022.9 1347.86 1021.93 1347.86 1020.88C1347.86 1019.84 1347.7 1018.88 1347.38 1018.01C1347.06 1017.12 1346.58 1016.42 1345.93 1015.89C1345.28 1015.35 1344.45 1015.09 1343.46 1015.09C1342.46 1015.09 1341.62 1015.35 1340.96 1015.89C1340.31 1016.42 1339.82 1017.12 1339.5 1018.01C1339.19 1018.88 1339.04 1019.84 1339.04 1020.88C1339.04 1021.93 1339.19 1022.9 1339.5 1023.77C1339.82 1024.64 1340.31 1025.34 1340.96 1025.87C1341.62 1026.39 1342.46 1026.66 1343.46 1026.66ZM1366.89 1016.63L1364 1017.14C1363.88 1016.77 1363.69 1016.42 1363.43 1016.09C1363.17 1015.75 1362.83 1015.48 1362.39 1015.27C1361.94 1015.05 1361.39 1014.95 1360.73 1014.95C1359.83 1014.95 1359.08 1015.15 1358.48 1015.56C1357.87 1015.95 1357.57 1016.47 1357.57 1017.1C1357.57 1017.65 1357.77 1018.09 1358.18 1018.42C1358.58 1018.75 1359.24 1019.03 1360.14 1019.24L1362.74 1019.84C1364.24 1020.19 1365.36 1020.72 1366.1 1021.45C1366.84 1022.17 1367.21 1023.11 1367.21 1024.27C1367.21 1025.25 1366.93 1026.12 1366.36 1026.89C1365.8 1027.65 1365.01 1028.25 1364 1028.68C1363 1029.11 1361.84 1029.33 1360.52 1029.33C1358.69 1029.33 1357.19 1028.94 1356.04 1028.16C1354.88 1027.37 1354.17 1026.25 1353.91 1024.8L1356.98 1024.33C1357.18 1025.14 1357.57 1025.74 1358.17 1026.16C1358.76 1026.56 1359.54 1026.76 1360.5 1026.76C1361.54 1026.76 1362.38 1026.55 1363 1026.11C1363.63 1025.67 1363.94 1025.14 1363.94 1024.5C1363.94 1023.99 1363.75 1023.56 1363.37 1023.22C1362.99 1022.87 1362.41 1022.6 1361.63 1022.43L1358.86 1021.82C1357.33 1021.47 1356.2 1020.92 1355.47 1020.16C1354.75 1019.4 1354.38 1018.44 1354.38 1017.27C1354.38 1016.3 1354.65 1015.46 1355.19 1014.74C1355.73 1014.01 1356.48 1013.45 1357.43 1013.04C1358.38 1012.63 1359.47 1012.42 1360.7 1012.42C1362.47 1012.42 1363.86 1012.81 1364.88 1013.57C1365.89 1014.33 1366.56 1015.35 1366.89 1016.63ZM1373.9 1019.28V1029H1370.71V1007.18H1373.86V1015.3H1374.06C1374.44 1014.42 1375.03 1013.72 1375.82 1013.2C1376.6 1012.68 1377.63 1012.42 1378.91 1012.42C1380.03 1012.42 1381.01 1012.65 1381.85 1013.12C1382.69 1013.58 1383.34 1014.27 1383.81 1015.18C1384.28 1016.09 1384.51 1017.23 1384.51 1018.59V1029H1381.32V1018.98C1381.32 1017.77 1381.02 1016.84 1380.4 1016.18C1379.78 1015.52 1378.92 1015.18 1377.82 1015.18C1377.07 1015.18 1376.39 1015.34 1375.8 1015.66C1375.21 1015.98 1374.74 1016.45 1374.4 1017.07C1374.07 1017.68 1373.9 1018.42 1373.9 1019.28ZM1408.96 1016.63L1406.07 1017.14C1405.95 1016.77 1405.76 1016.42 1405.5 1016.09C1405.24 1015.75 1404.9 1015.48 1404.46 1015.27C1404.02 1015.05 1403.46 1014.95 1402.8 1014.95C1401.9 1014.95 1401.15 1015.15 1400.55 1015.56C1399.94 1015.95 1399.64 1016.47 1399.64 1017.1C1399.64 1017.65 1399.84 1018.09 1400.25 1018.42C1400.65 1018.75 1401.31 1019.03 1402.21 1019.24L1404.81 1019.84C1406.31 1020.19 1407.44 1020.72 1408.17 1021.45C1408.91 1022.17 1409.28 1023.11 1409.28 1024.27C1409.28 1025.25 1409 1026.12 1408.43 1026.89C1407.87 1027.65 1407.08 1028.25 1406.07 1028.68C1405.07 1029.11 1403.91 1029.33 1402.59 1029.33C1400.76 1029.33 1399.26 1028.94 1398.11 1028.16C1396.95 1027.37 1396.24 1026.25 1395.98 1024.8L1399.05 1024.33C1399.25 1025.14 1399.64 1025.74 1400.24 1026.16C1400.83 1026.56 1401.61 1026.76 1402.57 1026.76C1403.61 1026.76 1404.45 1026.55 1405.07 1026.11C1405.7 1025.67 1406.01 1025.14 1406.01 1024.5C1406.01 1023.99 1405.82 1023.56 1405.44 1023.22C1405.06 1022.87 1404.48 1022.6 1403.7 1022.43L1400.93 1021.82C1399.4 1021.47 1398.27 1020.92 1397.54 1020.16C1396.82 1019.4 1396.45 1018.44 1396.45 1017.27C1396.45 1016.3 1396.72 1015.46 1397.26 1014.74C1397.8 1014.01 1398.55 1013.45 1399.5 1013.04C1400.45 1012.63 1401.54 1012.42 1402.77 1012.42C1404.54 1012.42 1405.93 1012.81 1406.95 1013.57C1407.96 1014.33 1408.64 1015.35 1408.96 1016.63ZM1414.8 1035.14C1414.32 1035.14 1413.89 1035.1 1413.5 1035.02C1413.11 1034.95 1412.82 1034.87 1412.62 1034.78L1413.39 1032.17C1413.97 1032.33 1414.49 1032.4 1414.95 1032.38C1415.4 1032.36 1415.8 1032.19 1416.15 1031.87C1416.51 1031.55 1416.82 1031.02 1417.09 1030.3L1417.48 1029.21L1411.49 1012.64H1414.9L1419.05 1025.34H1419.22L1423.36 1012.64H1426.78L1420.04 1031.18C1419.73 1032.04 1419.33 1032.76 1418.85 1033.35C1418.36 1033.94 1417.79 1034.39 1417.12 1034.69C1416.45 1034.99 1415.68 1035.14 1414.8 1035.14ZM1442.04 1016.63L1439.15 1017.14C1439.03 1016.77 1438.84 1016.42 1438.58 1016.09C1438.32 1015.75 1437.97 1015.48 1437.53 1015.27C1437.09 1015.05 1436.54 1014.95 1435.88 1014.95C1434.98 1014.95 1434.23 1015.15 1433.62 1015.56C1433.02 1015.95 1432.72 1016.47 1432.72 1017.1C1432.72 1017.65 1432.92 1018.09 1433.32 1018.42C1433.73 1018.75 1434.38 1019.03 1435.28 1019.24L1437.88 1019.84C1439.39 1020.19 1440.51 1020.72 1441.25 1021.45C1441.99 1022.17 1442.36 1023.11 1442.36 1024.27C1442.36 1025.25 1442.07 1026.12 1441.51 1026.89C1440.94 1027.65 1440.16 1028.25 1439.15 1028.68C1438.15 1029.11 1436.99 1029.33 1435.67 1029.33C1433.84 1029.33 1432.34 1028.94 1431.18 1028.16C1430.02 1027.37 1429.31 1026.25 1429.05 1024.8L1432.13 1024.33C1432.32 1025.14 1432.72 1025.74 1433.31 1026.16C1433.91 1026.56 1434.69 1026.76 1435.65 1026.76C1436.69 1026.76 1437.52 1026.55 1438.15 1026.11C1438.77 1025.67 1439.09 1025.14 1439.09 1024.5C1439.09 1023.99 1438.9 1023.56 1438.51 1023.22C1438.14 1022.87 1437.56 1022.6 1436.78 1022.43L1434.01 1021.82C1432.48 1021.47 1431.35 1020.92 1430.62 1020.16C1429.89 1019.4 1429.53 1018.44 1429.53 1017.27C1429.53 1016.3 1429.8 1015.46 1430.34 1014.74C1430.88 1014.01 1431.63 1013.45 1432.58 1013.04C1433.53 1012.63 1434.62 1012.42 1435.85 1012.42C1437.62 1012.42 1439.01 1012.81 1440.02 1013.57C1441.04 1014.33 1441.71 1015.35 1442.04 1016.63ZM1453.5 1012.64V1015.19H1444.56V1012.64H1453.5ZM1446.96 1008.72H1450.14V1024.2C1450.14 1024.81 1450.24 1025.28 1450.42 1025.59C1450.6 1025.9 1450.84 1026.11 1451.13 1026.22C1451.43 1026.33 1451.75 1026.38 1452.1 1026.38C1452.36 1026.38 1452.58 1026.36 1452.77 1026.33C1452.97 1026.29 1453.12 1026.26 1453.22 1026.24L1453.8 1028.87C1453.61 1028.94 1453.35 1029.01 1453.01 1029.09C1452.67 1029.16 1452.24 1029.21 1451.73 1029.21C1450.89 1029.23 1450.11 1029.08 1449.39 1028.77C1448.66 1028.45 1448.08 1027.97 1447.63 1027.32C1447.18 1026.66 1446.96 1025.84 1446.96 1024.86V1008.72ZM1463.9 1029.33C1462.29 1029.33 1460.9 1028.99 1459.73 1028.3C1458.58 1027.6 1457.68 1026.62 1457.05 1025.37C1456.42 1024.1 1456.11 1022.62 1456.11 1020.92C1456.11 1019.25 1456.42 1017.77 1457.05 1016.49C1457.68 1015.21 1458.56 1014.22 1459.69 1013.5C1460.83 1012.78 1462.16 1012.42 1463.68 1012.42C1464.6 1012.42 1465.49 1012.58 1466.36 1012.88C1467.23 1013.19 1468 1013.67 1468.69 1014.32C1469.38 1014.97 1469.93 1015.82 1470.32 1016.87C1470.72 1017.9 1470.92 1019.16 1470.92 1020.65V1021.78H1457.91V1019.39H1467.8C1467.8 1018.55 1467.63 1017.81 1467.29 1017.16C1466.95 1016.51 1466.47 1016 1465.85 1015.62C1465.24 1015.24 1464.52 1015.05 1463.7 1015.05C1462.8 1015.05 1462.02 1015.27 1461.35 1015.72C1460.69 1016.15 1460.18 1016.72 1459.82 1017.42C1459.46 1018.12 1459.29 1018.87 1459.29 1019.69V1021.55C1459.29 1022.65 1459.48 1023.58 1459.86 1024.34C1460.25 1025.11 1460.8 1025.7 1461.49 1026.1C1462.19 1026.5 1463 1026.7 1463.93 1026.7C1464.53 1026.7 1465.09 1026.61 1465.58 1026.44C1466.08 1026.27 1466.51 1026 1466.87 1025.65C1467.23 1025.31 1467.51 1024.88 1467.7 1024.37L1470.72 1024.91C1470.48 1025.8 1470.04 1026.57 1469.42 1027.24C1468.8 1027.9 1468.02 1028.42 1467.08 1028.79C1466.15 1029.15 1465.09 1029.33 1463.9 1029.33ZM1474.45 1029V1012.64H1477.51V1015.3H1477.71C1478.05 1014.4 1478.61 1013.69 1479.39 1013.19C1480.16 1012.68 1481.09 1012.42 1482.17 1012.42C1483.26 1012.42 1484.18 1012.68 1484.92 1013.19C1485.66 1013.7 1486.21 1014.4 1486.57 1015.3H1486.74C1487.13 1014.43 1487.75 1013.73 1488.6 1013.21C1489.45 1012.69 1490.47 1012.42 1491.65 1012.42C1493.13 1012.42 1494.34 1012.89 1495.28 1013.82C1496.23 1014.75 1496.7 1016.15 1496.7 1018.03V1029H1493.51V1018.33C1493.51 1017.22 1493.21 1016.41 1492.61 1015.92C1492 1015.42 1491.28 1015.17 1490.44 1015.17C1489.41 1015.17 1488.6 1015.49 1488.03 1016.13C1487.45 1016.76 1487.16 1017.58 1487.16 1018.57V1029H1483.99V1018.12C1483.99 1017.24 1483.71 1016.52 1483.16 1015.98C1482.6 1015.44 1481.88 1015.17 1481 1015.17C1480.39 1015.17 1479.83 1015.33 1479.32 1015.65C1478.82 1015.96 1478.41 1016.4 1478.1 1016.96C1477.79 1017.52 1477.64 1018.17 1477.64 1018.91V1029H1474.45ZM1516.69 1012.64V1015.19H1507.45V1012.64H1516.69ZM1509.98 1029V1010.74C1509.98 1009.72 1510.21 1008.87 1510.65 1008.19C1511.1 1007.51 1511.69 1007 1512.43 1006.67C1513.17 1006.33 1513.97 1006.16 1514.84 1006.16C1515.48 1006.16 1516.03 1006.21 1516.48 1006.32C1516.94 1006.42 1517.27 1006.51 1517.49 1006.6L1516.75 1009.17C1516.6 1009.13 1516.41 1009.08 1516.17 1009.02C1515.94 1008.96 1515.65 1008.93 1515.32 1008.93C1514.55 1008.93 1513.99 1009.12 1513.66 1009.5C1513.33 1009.89 1513.17 1010.44 1513.17 1011.17V1029H1509.98ZM1526.23 1029.33C1524.7 1029.33 1523.36 1028.98 1522.21 1028.28C1521.07 1027.57 1520.18 1026.59 1519.55 1025.32C1518.92 1024.06 1518.6 1022.58 1518.6 1020.89C1518.6 1019.2 1518.92 1017.71 1519.55 1016.44C1520.18 1015.17 1521.07 1014.18 1522.21 1013.48C1523.36 1012.77 1524.7 1012.42 1526.23 1012.42C1527.76 1012.42 1529.1 1012.77 1530.25 1013.48C1531.39 1014.18 1532.28 1015.17 1532.91 1016.44C1533.54 1017.71 1533.86 1019.2 1533.86 1020.89C1533.86 1022.58 1533.54 1024.06 1532.91 1025.32C1532.28 1026.59 1531.39 1027.57 1530.25 1028.28C1529.1 1028.98 1527.76 1029.33 1526.23 1029.33ZM1526.24 1026.66C1527.23 1026.66 1528.06 1026.39 1528.71 1025.87C1529.37 1025.34 1529.85 1024.64 1530.16 1023.77C1530.48 1022.9 1530.64 1021.93 1530.64 1020.88C1530.64 1019.84 1530.48 1018.88 1530.16 1018.01C1529.85 1017.12 1529.37 1016.42 1528.71 1015.89C1528.06 1015.35 1527.23 1015.09 1526.24 1015.09C1525.24 1015.09 1524.41 1015.35 1523.75 1015.89C1523.09 1016.42 1522.61 1017.12 1522.29 1018.01C1521.98 1018.88 1521.82 1019.84 1521.82 1020.88C1521.82 1021.93 1521.98 1022.9 1522.29 1023.77C1522.61 1024.64 1523.09 1025.34 1523.75 1025.87C1524.41 1026.39 1525.24 1026.66 1526.24 1026.66ZM1540.6 1019.28V1029H1537.41V1012.64H1540.47V1015.3H1540.67C1541.05 1014.43 1541.64 1013.74 1542.44 1013.21C1543.25 1012.69 1544.27 1012.42 1545.5 1012.42C1546.61 1012.42 1547.59 1012.66 1548.43 1013.13C1549.27 1013.59 1549.92 1014.28 1550.38 1015.19C1550.84 1016.11 1551.07 1017.24 1551.07 1018.59V1029H1547.89V1018.98C1547.89 1017.79 1547.58 1016.86 1546.96 1016.19C1546.34 1015.52 1545.49 1015.18 1544.41 1015.18C1543.67 1015.18 1543.02 1015.34 1542.44 1015.66C1541.87 1015.98 1541.42 1016.45 1541.09 1017.07C1540.76 1017.68 1540.6 1018.42 1540.6 1019.28ZM1562.98 1012.64V1015.19H1554.04V1012.64H1562.98ZM1556.44 1008.72H1559.63V1024.2C1559.63 1024.81 1559.72 1025.28 1559.9 1025.59C1560.09 1025.9 1560.32 1026.11 1560.62 1026.22C1560.91 1026.33 1561.24 1026.38 1561.59 1026.38C1561.84 1026.38 1562.06 1026.36 1562.26 1026.33C1562.45 1026.29 1562.6 1026.26 1562.7 1026.24L1563.28 1028.87C1563.09 1028.94 1562.83 1029.01 1562.49 1029.09C1562.15 1029.16 1561.72 1029.21 1561.21 1029.21C1560.37 1029.23 1559.59 1029.08 1558.87 1028.77C1558.14 1028.45 1557.56 1027.97 1557.11 1027.32C1556.66 1026.66 1556.44 1025.84 1556.44 1024.86V1008.72Z" fill="#FF6D7F"/>
<path d="M496.24 1029H492.746L500.597 1007.18H504.401L512.252 1029H508.758L502.589 1011.14H502.419L496.24 1029ZM496.826 1020.46H508.161V1023.23H496.826V1020.46ZM527.095 1012.64L521.161 1029H517.752L511.807 1012.64H515.227L519.371 1025.23H519.542L523.675 1012.64H527.095ZM534.382 1029.36C533.345 1029.36 532.407 1029.17 531.569 1028.79C530.731 1028.4 530.067 1027.83 529.577 1027.09C529.094 1026.35 528.853 1025.45 528.853 1024.38C528.853 1023.45 529.03 1022.69 529.385 1022.1C529.741 1021.5 530.22 1021.03 530.824 1020.68C531.427 1020.33 532.102 1020.07 532.848 1019.89C533.594 1019.71 534.354 1019.58 535.128 1019.49C536.108 1019.37 536.903 1019.28 537.514 1019.21C538.125 1019.13 538.569 1019.01 538.846 1018.84C539.123 1018.67 539.261 1018.39 539.261 1018.01V1017.93C539.261 1017 538.998 1016.28 538.473 1015.77C537.954 1015.26 537.18 1015 536.15 1015C535.078 1015 534.233 1015.24 533.615 1015.72C533.004 1016.18 532.581 1016.71 532.347 1017.28L529.354 1016.6C529.709 1015.61 530.227 1014.8 530.909 1014.19C531.598 1013.57 532.39 1013.13 533.285 1012.85C534.18 1012.57 535.121 1012.42 536.108 1012.42C536.761 1012.42 537.454 1012.5 538.185 1012.66C538.924 1012.81 539.613 1013.08 540.252 1013.49C540.898 1013.89 541.427 1014.47 541.839 1015.23C542.251 1015.97 542.457 1016.94 542.457 1018.13V1029H539.346V1026.76H539.219C539.013 1027.17 538.704 1027.58 538.292 1027.98C537.88 1028.37 537.351 1028.71 536.704 1028.97C536.058 1029.23 535.284 1029.36 534.382 1029.36ZM535.074 1026.81C535.955 1026.81 536.708 1026.63 537.333 1026.28C537.965 1025.94 538.444 1025.48 538.771 1024.92C539.105 1024.35 539.272 1023.74 539.272 1023.1V1020.99C539.158 1021.1 538.938 1021.21 538.611 1021.31C538.292 1021.4 537.926 1021.48 537.514 1021.55C537.102 1021.62 536.701 1021.68 536.31 1021.73C535.92 1021.78 535.593 1021.83 535.33 1021.86C534.712 1021.94 534.148 1022.07 533.636 1022.26C533.132 1022.44 532.727 1022.71 532.422 1023.06C532.123 1023.4 531.974 1023.85 531.974 1024.42C531.974 1025.21 532.265 1025.8 532.848 1026.21C533.43 1026.61 534.172 1026.81 535.074 1026.81ZM546.7 1029V1012.64H549.885V1029H546.7ZM548.309 1010.11C547.755 1010.11 547.279 1009.93 546.881 1009.56C546.49 1009.18 546.295 1008.73 546.295 1008.22C546.295 1007.69 546.49 1007.24 546.881 1006.87C547.279 1006.5 547.755 1006.31 548.309 1006.31C548.863 1006.31 549.335 1006.5 549.725 1006.87C550.123 1007.24 550.322 1007.69 550.322 1008.22C550.322 1008.73 550.123 1009.18 549.725 1009.56C549.335 1009.93 548.863 1010.11 548.309 1010.11ZM557.356 1007.18V1029H554.171V1007.18H557.356ZM566.403 1029.36C565.366 1029.36 564.429 1029.17 563.591 1028.79C562.753 1028.4 562.089 1027.83 561.599 1027.09C561.116 1026.35 560.874 1025.45 560.874 1024.38C560.874 1023.45 561.052 1022.69 561.407 1022.1C561.762 1021.5 562.241 1021.03 562.845 1020.68C563.449 1020.33 564.124 1020.07 564.869 1019.89C565.615 1019.71 566.375 1019.58 567.149 1019.49C568.129 1019.37 568.925 1019.28 569.536 1019.21C570.146 1019.13 570.59 1019.01 570.867 1018.84C571.144 1018.67 571.283 1018.39 571.283 1018.01V1017.93C571.283 1017 571.02 1016.28 570.494 1015.77C569.976 1015.26 569.202 1015 568.172 1015C567.099 1015 566.254 1015.24 565.636 1015.72C565.026 1016.18 564.603 1016.71 564.369 1017.28L561.375 1016.6C561.73 1015.61 562.249 1014.8 562.93 1014.19C563.619 1013.57 564.411 1013.13 565.306 1012.85C566.201 1012.57 567.142 1012.42 568.129 1012.42C568.783 1012.42 569.475 1012.5 570.207 1012.66C570.945 1012.81 571.634 1013.08 572.273 1013.49C572.92 1013.89 573.449 1014.47 573.861 1015.23C574.273 1015.97 574.479 1016.94 574.479 1018.13V1029H571.368V1026.76H571.24C571.034 1027.17 570.725 1027.58 570.313 1027.98C569.901 1028.37 569.372 1028.71 568.726 1028.97C568.08 1029.23 567.305 1029.36 566.403 1029.36ZM567.096 1026.81C567.977 1026.81 568.729 1026.63 569.354 1026.28C569.987 1025.94 570.466 1025.48 570.793 1024.92C571.126 1024.35 571.293 1023.74 571.293 1023.1V1020.99C571.18 1021.1 570.96 1021.21 570.633 1021.31C570.313 1021.4 569.947 1021.48 569.536 1021.55C569.124 1021.62 568.722 1021.68 568.332 1021.73C567.941 1021.78 567.614 1021.83 567.352 1021.86C566.734 1021.94 566.169 1022.07 565.658 1022.26C565.153 1022.44 564.749 1022.71 564.443 1023.06C564.145 1023.4 563.996 1023.85 563.996 1024.42C563.996 1025.21 564.287 1025.8 564.869 1026.21C565.452 1026.61 566.194 1026.81 567.096 1026.81ZM578.977 1029V1007.18H582.162V1015.29H582.354C582.539 1014.95 582.805 1014.55 583.153 1014.11C583.501 1013.66 583.984 1013.27 584.602 1012.93C585.22 1012.59 586.037 1012.42 587.052 1012.42C588.373 1012.42 589.552 1012.76 590.589 1013.42C591.626 1014.09 592.439 1015.05 593.029 1016.31C593.626 1017.57 593.924 1019.08 593.924 1020.85C593.924 1022.62 593.629 1024.13 593.04 1025.4C592.45 1026.66 591.64 1027.63 590.611 1028.31C589.581 1028.98 588.405 1029.32 587.084 1029.32C586.09 1029.32 585.277 1029.15 584.645 1028.82C584.02 1028.49 583.53 1028.09 583.175 1027.65C582.819 1027.2 582.546 1026.8 582.354 1026.45H582.088V1029H578.977ZM582.099 1020.82C582.099 1021.97 582.265 1022.98 582.599 1023.84C582.933 1024.71 583.416 1025.39 584.048 1025.88C584.68 1026.36 585.454 1026.6 586.371 1026.6C587.322 1026.6 588.118 1026.35 588.757 1025.85C589.396 1025.34 589.879 1024.64 590.206 1023.77C590.54 1022.9 590.706 1021.91 590.706 1020.82C590.706 1019.74 590.543 1018.77 590.216 1017.91C589.897 1017.05 589.414 1016.37 588.768 1015.88C588.128 1015.38 587.329 1015.13 586.371 1015.13C585.447 1015.13 584.666 1015.37 584.027 1015.84C583.395 1016.32 582.915 1016.98 582.589 1017.84C582.262 1018.69 582.099 1019.68 582.099 1020.82ZM600.686 1007.18V1029H597.501V1007.18H600.686ZM612.024 1029.33C610.412 1029.33 609.023 1028.99 607.858 1028.3C606.701 1027.6 605.806 1026.62 605.174 1025.37C604.549 1024.1 604.236 1022.62 604.236 1020.92C604.236 1019.25 604.549 1017.77 605.174 1016.49C605.806 1015.21 606.687 1014.22 607.816 1013.5C608.952 1012.78 610.28 1012.42 611.8 1012.42C612.724 1012.42 613.618 1012.58 614.485 1012.88C615.351 1013.19 616.129 1013.67 616.818 1014.32C617.507 1014.97 618.05 1015.82 618.448 1016.87C618.846 1017.9 619.045 1019.16 619.045 1020.65V1021.78H606.037V1019.39H615.923C615.923 1018.55 615.753 1017.81 615.412 1017.16C615.071 1016.51 614.591 1016 613.974 1015.62C613.363 1015.24 612.645 1015.05 611.822 1015.05C610.927 1015.05 610.145 1015.27 609.478 1015.72C608.817 1016.15 608.306 1016.72 607.944 1017.42C607.589 1018.12 607.411 1018.87 607.411 1019.69V1021.55C607.411 1022.65 607.603 1023.58 607.986 1024.34C608.377 1025.11 608.92 1025.7 609.616 1026.1C610.312 1026.5 611.126 1026.7 612.056 1026.7C612.66 1026.7 613.21 1026.61 613.707 1026.44C614.204 1026.27 614.634 1026 614.996 1025.65C615.358 1025.31 615.635 1024.88 615.827 1024.37L618.842 1024.91C618.601 1025.8 618.167 1026.57 617.542 1027.24C616.925 1027.9 616.147 1028.42 615.209 1028.79C614.279 1029.15 613.217 1029.33 612.024 1029.33ZM637.411 1029.33C635.877 1029.33 634.538 1028.98 633.395 1028.28C632.251 1027.57 631.363 1026.59 630.731 1025.32C630.099 1024.06 629.783 1022.58 629.783 1020.89C629.783 1019.2 630.099 1017.71 630.731 1016.44C631.363 1015.17 632.251 1014.18 633.395 1013.48C634.538 1012.77 635.877 1012.42 637.411 1012.42C638.945 1012.42 640.284 1012.77 641.427 1013.48C642.571 1014.18 643.459 1015.17 644.091 1016.44C644.723 1017.71 645.039 1019.2 645.039 1020.89C645.039 1022.58 644.723 1024.06 644.091 1025.32C643.459 1026.59 642.571 1027.57 641.427 1028.28C640.284 1028.98 638.945 1029.33 637.411 1029.33ZM637.422 1026.66C638.416 1026.66 639.24 1026.39 639.893 1025.87C640.547 1025.34 641.03 1024.64 641.342 1023.77C641.662 1022.9 641.822 1021.93 641.822 1020.88C641.822 1019.84 641.662 1018.88 641.342 1018.01C641.03 1017.12 640.547 1016.42 639.893 1015.89C639.24 1015.35 638.416 1015.09 637.422 1015.09C636.42 1015.09 635.589 1015.35 634.929 1015.89C634.275 1016.42 633.789 1017.12 633.469 1018.01C633.157 1018.88 633.001 1019.84 633.001 1020.88C633.001 1021.93 633.157 1022.9 633.469 1023.77C633.789 1024.64 634.275 1025.34 634.929 1025.87C635.589 1026.39 636.42 1026.66 637.422 1026.66ZM651.78 1019.28V1029H648.594V1012.64H651.652V1015.3H651.854C652.231 1014.43 652.82 1013.74 653.623 1013.21C654.433 1012.69 655.452 1012.42 656.68 1012.42C657.795 1012.42 658.772 1012.66 659.61 1013.13C660.448 1013.59 661.098 1014.28 661.56 1015.19C662.021 1016.11 662.252 1017.24 662.252 1018.59V1029H659.067V1018.98C659.067 1017.79 658.758 1016.86 658.14 1016.19C657.522 1015.52 656.673 1015.18 655.594 1015.18C654.855 1015.18 654.198 1015.34 653.623 1015.66C653.055 1015.98 652.604 1016.45 652.27 1017.07C651.943 1017.68 651.78 1018.42 651.78 1019.28ZM689.485 1014.07C689.279 1013.43 689.002 1012.85 688.654 1012.34C688.313 1011.82 687.905 1011.38 687.429 1011.02C686.953 1010.65 686.41 1010.37 685.799 1010.18C685.195 1009.98 684.531 1009.89 683.807 1009.89C682.578 1009.89 681.47 1010.2 680.483 1010.84C679.496 1011.47 678.714 1012.39 678.139 1013.62C677.571 1014.83 677.287 1016.32 677.287 1018.08C677.287 1019.85 677.574 1021.34 678.15 1022.57C678.725 1023.79 679.513 1024.71 680.515 1025.35C681.516 1025.98 682.656 1026.29 683.934 1026.29C685.121 1026.29 686.154 1026.05 687.035 1025.57C687.922 1025.09 688.608 1024.4 689.091 1023.52C689.581 1022.64 689.826 1021.59 689.826 1020.39L690.678 1020.55H684.435V1017.84H693.011V1020.32C693.011 1022.15 692.621 1023.74 691.839 1025.09C691.065 1026.43 689.993 1027.47 688.622 1028.2C687.258 1028.93 685.696 1029.3 683.934 1029.3C681.96 1029.3 680.227 1028.84 678.736 1027.93C677.251 1027.03 676.094 1025.74 675.263 1024.07C674.432 1022.39 674.016 1020.4 674.016 1018.1C674.016 1016.36 674.258 1014.8 674.741 1013.41C675.224 1012.03 675.902 1010.85 676.775 1009.89C677.656 1008.91 678.689 1008.17 679.876 1007.66C681.069 1007.14 682.372 1006.88 683.785 1006.88C684.964 1006.88 686.062 1007.06 687.077 1007.41C688.1 1007.75 689.009 1008.25 689.805 1008.89C690.607 1009.53 691.271 1010.29 691.797 1011.17C692.322 1012.04 692.677 1013.01 692.862 1014.07H689.485ZM703.827 1029.33C702.293 1029.33 700.954 1028.98 699.811 1028.28C698.667 1027.57 697.779 1026.59 697.147 1025.32C696.515 1024.06 696.199 1022.58 696.199 1020.89C696.199 1019.2 696.515 1017.71 697.147 1016.44C697.779 1015.17 698.667 1014.18 699.811 1013.48C700.954 1012.77 702.293 1012.42 703.827 1012.42C705.361 1012.42 706.7 1012.77 707.843 1013.48C708.987 1014.18 709.875 1015.17 710.507 1016.44C711.139 1017.71 711.455 1019.2 711.455 1020.89C711.455 1022.58 711.139 1024.06 710.507 1025.32C709.875 1026.59 708.987 1027.57 707.843 1028.28C706.7 1028.98 705.361 1029.33 703.827 1029.33ZM703.838 1026.66C704.832 1026.66 705.656 1026.39 706.309 1025.87C706.963 1025.34 707.446 1024.64 707.758 1023.77C708.078 1022.9 708.238 1021.93 708.238 1020.88C708.238 1019.84 708.078 1018.88 707.758 1018.01C707.446 1017.12 706.963 1016.42 706.309 1015.89C705.656 1015.35 704.832 1015.09 703.838 1015.09C702.836 1015.09 702.005 1015.35 701.345 1015.89C700.691 1016.42 700.205 1017.12 699.885 1018.01C699.573 1018.88 699.417 1019.84 699.417 1020.88C699.417 1021.93 699.573 1022.9 699.885 1023.77C700.205 1024.64 700.691 1025.34 701.345 1025.87C702.005 1026.39 702.836 1026.66 703.838 1026.66ZM721.903 1029.33C720.369 1029.33 719.03 1028.98 717.887 1028.28C716.743 1027.57 715.856 1026.59 715.224 1025.32C714.591 1024.06 714.275 1022.58 714.275 1020.89C714.275 1019.2 714.591 1017.71 715.224 1016.44C715.856 1015.17 716.743 1014.18 717.887 1013.48C719.03 1012.77 720.369 1012.42 721.903 1012.42C723.437 1012.42 724.776 1012.77 725.92 1013.48C727.063 1014.18 727.951 1015.17 728.583 1016.44C729.215 1017.71 729.531 1019.2 729.531 1020.89C729.531 1022.58 729.215 1024.06 728.583 1025.32C727.951 1026.59 727.063 1027.57 725.92 1028.28C724.776 1028.98 723.437 1029.33 721.903 1029.33ZM721.914 1026.66C722.908 1026.66 723.732 1026.39 724.385 1025.87C725.039 1025.34 725.522 1024.64 725.834 1023.77C726.154 1022.9 726.314 1021.93 726.314 1020.88C726.314 1019.84 726.154 1018.88 725.834 1018.01C725.522 1017.12 725.039 1016.42 724.385 1015.89C723.732 1015.35 722.908 1015.09 721.914 1015.09C720.912 1015.09 720.081 1015.35 719.421 1015.89C718.768 1016.42 718.281 1017.12 717.961 1018.01C717.649 1018.88 717.493 1019.84 717.493 1020.88C717.493 1021.93 717.649 1022.9 717.961 1023.77C718.281 1024.64 718.768 1025.34 719.421 1025.87C720.081 1026.39 720.912 1026.66 721.914 1026.66ZM739.947 1035.48C738.648 1035.48 737.529 1035.31 736.592 1034.97C735.661 1034.63 734.901 1034.17 734.312 1033.61C733.722 1033.05 733.282 1032.44 732.991 1031.77L735.729 1030.64C735.92 1030.95 736.176 1031.28 736.496 1031.63C736.822 1031.99 737.263 1032.29 737.817 1032.54C738.378 1032.79 739.099 1032.91 739.979 1032.91C741.187 1032.91 742.185 1032.62 742.973 1032.03C743.761 1031.44 744.156 1030.51 744.156 1029.23V1026.02H743.953C743.761 1026.37 743.484 1026.75 743.122 1027.18C742.767 1027.6 742.277 1027.97 741.652 1028.29C741.027 1028.6 740.214 1028.75 739.212 1028.75C737.92 1028.75 736.755 1028.45 735.718 1027.85C734.688 1027.24 733.871 1026.34 733.268 1025.15C732.671 1023.96 732.373 1022.49 732.373 1020.75C732.373 1019.01 732.668 1017.52 733.257 1016.28C733.854 1015.04 734.67 1014.09 735.707 1013.42C736.744 1012.76 737.92 1012.42 739.234 1012.42C740.249 1012.42 741.07 1012.59 741.695 1012.93C742.32 1013.27 742.806 1013.66 743.154 1014.11C743.509 1014.55 743.783 1014.95 743.974 1015.29H744.209V1012.64H747.33V1029.36C747.33 1030.77 747.004 1031.92 746.35 1032.82C745.697 1033.73 744.813 1034.39 743.697 1034.83C742.589 1035.26 741.339 1035.48 739.947 1035.48ZM739.915 1026.11C740.832 1026.11 741.606 1025.9 742.238 1025.47C742.877 1025.04 743.36 1024.42 743.687 1023.62C744.021 1022.81 744.188 1021.84 744.188 1020.71C744.188 1019.61 744.024 1018.64 743.697 1017.8C743.371 1016.97 742.891 1016.31 742.259 1015.84C741.627 1015.37 740.846 1015.13 739.915 1015.13C738.957 1015.13 738.158 1015.38 737.518 1015.88C736.879 1016.37 736.396 1017.03 736.07 1017.88C735.75 1018.72 735.59 1019.67 735.59 1020.71C735.59 1021.78 735.754 1022.73 736.08 1023.53C736.407 1024.34 736.89 1024.98 737.529 1025.43C738.175 1025.89 738.971 1026.11 739.915 1026.11ZM754.788 1007.18V1029H751.602V1007.18H754.788ZM766.126 1029.33C764.513 1029.33 763.125 1028.99 761.96 1028.3C760.802 1027.6 759.907 1026.62 759.275 1025.37C758.65 1024.1 758.338 1022.62 758.338 1020.92C758.338 1019.25 758.65 1017.77 759.275 1016.49C759.907 1015.21 760.788 1014.22 761.917 1013.5C763.054 1012.78 764.382 1012.42 765.902 1012.42C766.825 1012.42 767.72 1012.58 768.586 1012.88C769.453 1013.19 770.231 1013.67 770.92 1014.32C771.608 1014.97 772.152 1015.82 772.55 1016.87C772.947 1017.9 773.146 1019.16 773.146 1020.65V1021.78H760.138V1019.39H770.025C770.025 1018.55 769.854 1017.81 769.513 1017.16C769.172 1016.51 768.693 1016 768.075 1015.62C767.464 1015.24 766.747 1015.05 765.923 1015.05C765.028 1015.05 764.247 1015.27 763.579 1015.72C762.919 1016.15 762.407 1016.72 762.045 1017.42C761.69 1018.12 761.513 1018.87 761.513 1019.69V1021.55C761.513 1022.65 761.704 1023.58 762.088 1024.34C762.479 1025.11 763.022 1025.7 763.718 1026.1C764.414 1026.5 765.227 1026.7 766.157 1026.7C766.761 1026.7 767.312 1026.61 767.809 1026.44C768.306 1026.27 768.736 1026 769.098 1025.65C769.46 1025.31 769.737 1024.88 769.929 1024.37L772.944 1024.91C772.702 1025.8 772.269 1026.57 771.644 1027.24C771.026 1027.9 770.248 1028.42 769.311 1028.79C768.381 1029.15 767.319 1029.33 766.126 1029.33ZM784.876 1029V1007.18H798.405V1010.02H788.167V1016.66H797.436V1019.49H788.167V1029H784.876ZM807.89 1029.33C806.355 1029.33 805.017 1028.98 803.873 1028.28C802.73 1027.57 801.842 1026.59 801.21 1025.32C800.578 1024.06 800.262 1022.58 800.262 1020.89C800.262 1019.2 800.578 1017.71 801.21 1016.44C801.842 1015.17 802.73 1014.18 803.873 1013.48C805.017 1012.77 806.355 1012.42 807.89 1012.42C809.424 1012.42 810.762 1012.77 811.906 1013.48C813.049 1014.18 813.937 1015.17 814.569 1016.44C815.201 1017.71 815.517 1019.2 815.517 1020.89C815.517 1022.58 815.201 1024.06 814.569 1025.32C813.937 1026.59 813.049 1027.57 811.906 1028.28C810.762 1028.98 809.424 1029.33 807.89 1029.33ZM807.9 1026.66C808.895 1026.66 809.718 1026.39 810.372 1025.87C811.025 1025.34 811.508 1024.64 811.821 1023.77C812.14 1022.9 812.3 1021.93 812.3 1020.88C812.3 1019.84 812.14 1018.88 811.821 1018.01C811.508 1017.12 811.025 1016.42 810.372 1015.89C809.718 1015.35 808.895 1015.09 807.9 1015.09C806.899 1015.09 806.068 1015.35 805.407 1015.89C804.754 1016.42 804.267 1017.12 803.948 1018.01C803.635 1018.88 803.479 1019.84 803.479 1020.88C803.479 1021.93 803.635 1022.9 803.948 1023.77C804.267 1024.64 804.754 1025.34 805.407 1025.87C806.068 1026.39 806.899 1026.66 807.9 1026.66ZM822.258 1019.28V1029H819.073V1012.64H822.131V1015.3H822.333C822.709 1014.43 823.299 1013.74 824.101 1013.21C824.911 1012.69 825.93 1012.42 827.159 1012.42C828.274 1012.42 829.251 1012.66 830.089 1013.13C830.927 1013.59 831.577 1014.28 832.038 1015.19C832.5 1016.11 832.731 1017.24 832.731 1018.59V1029H829.545V1018.98C829.545 1017.79 829.236 1016.86 828.618 1016.19C828.001 1015.52 827.152 1015.18 826.072 1015.18C825.334 1015.18 824.677 1015.34 824.101 1015.66C823.533 1015.98 823.082 1016.45 822.748 1017.07C822.422 1017.68 822.258 1018.42 822.258 1019.28ZM844.641 1012.64V1015.19H835.703V1012.64H844.641ZM838.1 1008.72H841.285V1024.2C841.285 1024.81 841.378 1025.28 841.562 1025.59C841.747 1025.9 841.985 1026.11 842.276 1026.22C842.574 1026.33 842.898 1026.38 843.246 1026.38C843.501 1026.38 843.725 1026.36 843.917 1026.33C844.108 1026.29 844.258 1026.26 844.364 1026.24L844.939 1028.87C844.755 1028.94 844.492 1029.01 844.151 1029.09C843.81 1029.16 843.384 1029.21 842.873 1029.21C842.035 1029.23 841.253 1029.08 840.529 1028.77C839.805 1028.45 839.219 1027.97 838.771 1027.32C838.324 1026.66 838.1 1025.84 838.1 1024.86V1008.72ZM860.163 1016.63L857.276 1017.14C857.155 1016.77 856.964 1016.42 856.701 1016.09C856.445 1015.75 856.097 1015.48 855.657 1015.27C855.216 1015.05 854.666 1014.95 854.006 1014.95C853.104 1014.95 852.351 1015.15 851.747 1015.56C851.143 1015.95 850.841 1016.47 850.841 1017.1C850.841 1017.65 851.044 1018.09 851.449 1018.42C851.854 1018.75 852.507 1019.03 853.409 1019.24L856.008 1019.84C857.514 1020.19 858.636 1020.72 859.375 1021.45C860.113 1022.17 860.483 1023.11 860.483 1024.27C860.483 1025.25 860.199 1026.12 859.631 1026.89C859.069 1027.65 858.285 1028.25 857.276 1028.68C856.275 1029.11 855.113 1029.33 853.792 1029.33C851.96 1029.33 850.465 1028.94 849.307 1028.16C848.15 1027.37 847.439 1026.25 847.177 1024.8L850.256 1024.33C850.447 1025.14 850.841 1025.74 851.438 1026.16C852.035 1026.56 852.812 1026.76 853.771 1026.76C854.815 1026.76 855.65 1026.55 856.275 1026.11C856.9 1025.67 857.212 1025.14 857.212 1024.5C857.212 1023.99 857.02 1023.56 856.637 1023.22C856.26 1022.87 855.682 1022.6 854.9 1022.43L852.131 1021.82C850.604 1021.47 849.474 1020.92 848.743 1020.16C848.018 1019.4 847.656 1018.44 847.656 1017.27C847.656 1016.3 847.926 1015.46 848.466 1014.74C849.006 1014.01 849.751 1013.45 850.703 1013.04C851.655 1012.63 852.745 1012.42 853.974 1012.42C855.742 1012.42 857.134 1012.81 858.15 1013.57C859.165 1014.33 859.836 1015.35 860.163 1016.63Z" fill="#FF6D7F"/>
</svg>
