<svg width="1920" height="1080" fill="none" xmlns="http://www.w3.org/2000/svg"><path d="M195.569 335.937c31.657 2.329 55.16 10.209 70.509 23.64 15.349 13.43 23.024 30.218 23.024 50.363 0 17.542-5.208 32.685-15.623 45.431-10.416 12.608-23.778 20.899-40.086 24.873C217.222 484.081 195.5 486 168.229 486H58.867v-9.456h10.69c11.922 0 20.145-1.508 24.668-4.523 4.66-3.014 7.606-7.674 8.839-13.978 1.233-6.441 1.85-21.31 1.85-44.608V277.761c0-22.612-.685-37.207-2.056-43.785-1.233-6.579-3.974-11.101-8.222-13.568-4.112-2.467-13.225-3.7-27.34-3.7H61.95v-9.456l45.841-1.233 52.214-1.645c76.196 0 114.295 21.927 114.295 65.781 0 18.09-6.578 32.617-19.735 43.58-13.019 10.964-32.685 18.364-58.997 22.202Zm-50.364-3.906c3.426.137 6.304.205 8.634.205 29.601 0 49.815-4.659 60.642-13.978 10.826-9.319 16.24-24.394 16.24-45.225 0-14.526-2.124-25.764-6.373-33.713-4.248-7.948-10.621-14.047-19.118-18.295-8.496-4.386-23.023-6.578-43.58-6.578-5.344 0-10.826.205-16.445.616v116.968Zm0 10.073v62.081c0 26.449.48 43.237 1.439 50.363.959 7.127 3.495 12.54 7.606 16.24 4.248 3.7 12.54 5.55 24.874 5.55 21.927 0 38.372-5.618 49.335-16.856 10.964-11.238 16.446-28.094 16.446-50.569 0-23.024-6.236-39.949-18.707-50.775-12.334-10.964-34.124-16.446-65.37-16.446-4.933 0-10.141.137-15.623.412Zm348.23 113.061h7.606c-1.234 23.435-12.746 35.152-34.536 35.152-9.319 0-16.719-2.467-22.201-7.4-5.345-4.934-8.839-12.266-10.484-21.996-13.704 9.73-26.244 17.062-37.618 21.996-11.238 4.933-21.311 7.4-30.219 7.4-11.374 0-21.173-3.289-29.396-9.867-8.222-6.578-12.334-15.281-12.334-26.107 0-14.116 6.853-26.45 20.557-37.002 13.842-10.553 32.891-20.831 57.148-30.835l31.862-12.951v-8.222c0-11.649-.753-20.077-2.261-25.285-1.507-5.208-5.413-9.867-11.717-13.979-6.304-4.111-14.595-6.167-24.874-6.167-20.556 0-32 6.853-34.329 20.557-2.193 13.979-7.949 20.968-17.268 20.968-8.36 0-12.539-3.975-12.539-11.923 0-7.812 5.55-16.171 16.65-25.079 11.101-9.045 28.369-13.568 51.803-13.568 17.405 0 30.904 2.741 40.497 8.223 9.593 5.482 15.897 11.717 18.912 18.707 3.152 6.989 4.728 17.678 4.728 32.068v68.042c0 15.898.822 26.107 2.467 30.63 1.644 4.522 5.207 6.784 10.689 6.784 9.045 0 14.664-6.716 16.857-20.146Zm-59.615-71.948-22.406 9.045c-35.358 14.389-53.037 32.479-53.037 54.269 0 8.634 2.262 15.623 6.784 20.968 4.523 5.208 10.415 7.812 17.679 7.812 6.441 0 13.91-2.125 22.407-6.373 8.496-4.248 18.021-10.621 28.573-19.118v-66.603Zm88.599 108.128v-55.298h8.018c9.319 31.932 25.969 47.897 49.952 47.897 10.416 0 18.159-3.152 23.229-9.456 5.208-6.304 7.812-13.224 7.812-20.762 0-8.771-2.741-15.966-8.223-21.584-5.619-5.619-16.514-12.403-32.685-20.351-16.994-8.36-29.19-16.583-36.591-24.668-7.4-7.949-11.1-17.748-11.1-29.396 0-11.101 3.974-21.653 11.922-31.658 7.949-10.141 19.118-15.212 33.508-15.212 14.663 0 26.792 5.962 36.385 17.885 2.056-2.056 4.728-7.058 8.017-15.007h7.606v52.009h-7.606c-2.741-12.471-8.086-23.161-16.034-32.069-7.812-9.045-17.062-13.567-27.752-13.567-8.222 0-14.869 2.535-19.939 7.606-5.071 5.071-7.606 10.963-7.606 17.679 0 7.4 2.809 13.773 8.428 19.117 5.482 5.482 15.965 11.718 31.451 18.707 23.298 10.552 37.551 20.831 42.758 30.835 5.208 10.141 7.812 19.871 7.812 29.19 0 14.664-4.865 26.587-14.595 35.769-9.594 9.182-21.722 13.773-36.386 13.773-15.486 0-29.259-6.373-41.319-19.118-3.7 4.111-6.715 10.004-9.044 17.679h-8.018Zm234.757-173.704h67.837v9.456c-12.471.274-29.19 9.593-50.158 27.957-6.715 5.756-17.131 14.184-31.246 25.285l60.025 70.304c9.045 10.552 16.172 17.473 21.379 20.762 5.208 3.152 10.553 4.865 16.034 5.139V486h-83.871v-9.456c13.979-.274 20.968-3.289 20.968-9.045 0-2.604-4.591-9.25-13.773-19.94l-43.169-50.158-8.839 6.578v24.257c0 17.953.205 29.259.616 33.918.549 4.523 2.536 8.086 5.962 10.69 3.426 2.467 9.387 3.7 17.884 3.7V486h-85.31v-9.456h6.373c9.867 0 16.239-1.37 19.117-4.111 3.015-2.878 4.728-6.236 5.14-10.073.411-3.974.616-15.349.616-34.124v-168.77c0-16.308-1.576-26.724-4.728-31.246-3.015-4.523-10.415-6.784-22.201-6.784v-9.456c8.086 0 17.747-.959 28.985-2.878 11.375-1.919 19.118-3.837 23.229-5.756h4.317v189.327l17.679-12.334c28.642-20.283 42.963-34.878 42.963-43.786 0-6.03-5.276-9.182-15.829-9.456v-9.456Zm250.174 56.942H889.972c-.548 8.086-.822 14.116-.822 18.09 0 29.601 4.591 51.871 13.773 66.809 9.319 14.801 23.16 22.201 41.524 22.201 24.942 0 42.621-11.169 53.036-33.507h9.867c-4.38 13.978-13.087 24.942-26.106 32.89-13.02 7.812-27.204 11.718-42.553 11.718-14.252 0-27.751-3.563-40.496-10.69-12.608-7.263-22.955-17.473-31.041-30.629-8.085-13.156-12.128-29.122-12.128-47.897 0-26.587 7.811-48.651 23.434-66.193 15.623-17.678 35.152-26.518 58.587-26.518 22.064 0 39.126 6.716 51.186 20.146 12.057 13.43 18.437 27.957 19.117 43.58Zm-35.974-8.223c.412-3.152.617-5.961.617-8.428 0-12.06-3.563-21.379-10.689-27.957-6.99-6.715-15.623-10.073-25.902-10.073-24.942 0-39.811 15.486-44.608 46.458h80.582Zm122.104-12.539c4.66-12.197 12.2-22.407 22.62-30.63 10.55-8.222 20.83-12.334 30.83-12.334 9.05 0 16.17 2.81 21.38 8.429 5.21 5.618 7.81 11.374 7.81 17.267 0 3.975-1.37 7.401-4.11 10.279-2.6 2.877-5.83 4.316-9.66 4.316-6.85 0-12.06-5.07-15.63-15.211-2.46-6.853-6.16-10.279-11.1-10.279-5.89 0-12.95 4.043-21.17 12.129-8.22 7.948-13.5 16.239-15.83 24.873s-3.49 20.488-3.49 35.563v30.013c0 17.953.2 29.259.61 33.918.55 4.66 2.54 8.223 5.97 10.69 3.42 2.467 9.52 3.7 18.29 3.7h5.76V486h-89.42v-9.456h4.31c8.23 0 14.05-1.096 17.48-3.289 3.56-2.33 5.68-5.55 6.37-9.662.68-4.111 1.03-15.897 1.03-35.357V380.75c0-18.09-.28-29.396-.83-33.918-.41-4.66-2.33-8.223-5.75-10.69-3.43-2.604-9.53-3.906-18.3-3.906h-4.31v-9.25c12.88-1.508 29.73-5.55 50.56-12.129 3.98 10.827 6.17 25.148 6.58 42.964Zm185.83 138.963h-11.92l-59.82-135.057c-5.89-13.02-10.55-21.311-13.98-24.874-3.42-3.563-9.04-5.482-16.85-5.756v-9.456h76.06v9.456c-8.36 0-14.12.685-17.27 2.056-3.02 1.37-4.52 3.974-4.52 7.811 0 3.015 2.74 10.347 8.22 21.996l45.43 102.166 40.91-91.065c6.44-14.527 9.66-23.983 9.66-28.369 0-9.182-6.85-14.047-20.56-14.595v-9.456h56.74v9.456c-6.99.411-12.88 3.358-17.68 8.84-4.66 5.344-11.24 17.473-19.73 36.385l-54.69 120.462Zm119.23-267.853c0-5.893 2.06-10.964 6.17-15.212 4.25-4.249 9.32-6.373 15.21-6.373 5.9 0 10.9 2.124 15.01 6.373 4.11 4.248 6.17 9.319 6.17 15.212 0 6.03-2.06 11.169-6.17 15.417-4.11 4.249-9.11 6.373-15.01 6.373-5.89 0-10.96-2.124-15.21-6.373-4.11-4.248-6.17-9.387-6.17-15.417Zm39.68 85.926v117.379c0 17.953.27 29.259.82 33.918.55 4.66 2.54 8.223 5.96 10.69 3.43 2.467 9.53 3.7 18.3 3.7h4.31V486h-90.65v-9.456h6.99c9.73 0 16.03-1.37 18.91-4.111 3.02-2.878 4.73-6.236 5.14-10.073.55-3.974.82-15.349.82-34.124v-50.981c0-19.734-.96-31.794-2.88-36.179-1.78-4.386-4.24-7.127-7.4-8.223-3.01-1.096-8.36-1.645-16.03-1.645h-5.55v-9.456c24.39-2.466 43.3-6.098 56.74-10.895h4.52Zm101.96-107.511v224.89c0 17.953.2 29.259.62 33.918.54 4.66 2.53 8.223 5.96 10.69 3.42 2.467 9.52 3.7 18.29 3.7h4.94V486h-90.04v-9.456h5.75c8.23 0 14.05-1.096 17.48-3.289 3.56-2.33 5.68-5.55 6.37-9.662.68-4.111 1.03-15.897 1.03-35.357V261.727c0-17.679-1.58-28.779-4.73-33.302-3.15-4.659-10.83-6.989-23.02-6.989v-9.456c8.36 0 18.15-.959 29.39-2.878 11.38-1.919 19.19-3.837 23.44-5.756h4.52Zm101.14 0v224.89c0 17.953.2 29.259.61 33.918.55 4.66 2.54 8.223 5.97 10.69 3.42 2.467 9.52 3.7 18.29 3.7h4.93V486h-90.03v-9.456h5.75c8.22 0 14.05-1.096 17.48-3.289 3.56-2.33 5.68-5.55 6.37-9.662.68-4.111 1.03-15.897 1.03-35.357V261.727c0-17.679-1.58-28.779-4.73-33.302-3.15-4.659-10.83-6.989-23.03-6.989v-9.456c8.36 0 18.16-.959 29.4-2.878 11.38-1.919 19.19-3.837 23.43-5.756h4.53Zm204.74 171.237h-117.38c-.55 8.086-.82 14.116-.82 18.09 0 29.601 4.59 51.871 13.77 66.809 9.32 14.801 23.16 22.201 41.53 22.201 24.94 0 42.62-11.169 53.03-33.507h9.87c-4.38 13.978-13.09 24.942-26.11 32.89-13.01 7.812-27.2 11.718-42.55 11.718-14.25 0-27.75-3.563-40.49-10.69-12.61-7.263-22.96-17.473-31.04-30.629-8.09-13.156-12.13-29.122-12.13-47.897 0-26.587 7.81-48.651 23.43-66.193 15.62-17.678 35.15-26.518 58.59-26.518 22.06 0 39.12 6.716 51.18 20.146 12.06 13.43 18.44 27.957 19.12 43.58Zm-35.97-8.223c.41-3.152.61-5.961.61-8.428 0-12.06-3.56-21.379-10.69-27.957-6.98-6.715-15.62-10.073-25.9-10.073-24.94 0-39.81 15.486-44.6 46.458h80.58ZM220.237 714.02c19.049 3.7 34.398 11.306 46.047 22.818 11.785 11.512 17.678 25.353 17.678 41.524 0 13.294-3.631 25.902-10.895 37.825-7.126 11.785-17.336 21.378-30.629 28.779-13.156 7.263-27.272 11.786-42.347 13.567-15.075 1.645-36.659 2.467-64.753 2.467H39.544l2.878-9.456h7.606c8.497 0 15.623-1.508 21.379-4.523 5.893-3.152 9.935-6.783 12.128-10.895 2.193-4.111 5.345-12.95 9.456-26.518l53.859-177.403c4.111-13.705 6.167-22.339 6.167-25.902 0-9.73-8.84-14.595-26.518-14.595h-5.756l2.878-9.456h89.421c15.623 0 27.889.754 36.796 2.261 9.045 1.371 18.227 4.865 27.546 10.484 9.319 5.482 16.377 12.403 21.174 20.762 4.933 8.36 7.4 17.268 7.4 26.724 0 16.719-7.195 31.794-21.584 45.225-14.253 13.293-35.632 22.064-64.137 26.312Zm-60.026-4.728h21.379c20.42 0 36.66-2.672 48.72-8.017 12.059-5.482 21.516-14.047 28.368-25.696 6.989-11.649 10.484-25.148 10.484-40.496 0-10.69-2.741-19.666-8.223-26.93-5.482-7.263-11.58-11.785-18.295-13.567-6.579-1.919-16.925-2.878-31.041-2.878h-15.417l-35.975 117.584Zm-2.878 9.456-29.601 97.233c-2.604 8.36-3.906 14.116-3.906 17.268 0 12.471 13.362 18.706 40.086 18.706 26.997 0 47.485-8.428 61.464-25.285 14.116-16.856 21.173-37.207 21.173-61.053 0-11.923-3.015-21.653-9.045-29.19-5.893-7.675-12.813-12.54-20.762-14.595-7.811-2.056-20.282-3.084-37.413-3.084h-21.996Zm284.504-28.779h24.668l-36.59 120.462c-5.345 17.404-8.018 27.957-8.018 31.657 0 2.741.617 4.865 1.851 6.372 1.233 1.371 3.083 2.056 5.55 2.056 9.456 0 20.351-10.826 32.685-32.479h8.634c-5.345 12.334-13.02 23.571-23.024 33.713-9.867 10.004-18.98 15.006-27.34 15.006-6.441 0-11.375-2.398-14.801-7.195-3.426-4.797-5.139-10.689-5.139-17.679 0-5.618 1.37-12.95 4.111-21.995-6.167 10.552-15.143 21.036-26.929 31.451-11.649 10.279-22.612 15.418-32.891 15.418-9.593 0-17.884-4.043-24.873-12.129-6.852-8.222-10.278-19.254-10.278-33.096 0-18.638 5.344-38.578 16.034-59.82 10.689-21.378 24.599-39.194 41.73-53.447 17.267-14.252 32-21.379 44.197-21.379 7.126 0 12.745 1.713 16.856 5.139 4.248 3.427 7.058 8.566 8.428 15.418l5.139-17.473ZM334.326 827.698c0 9.045 1.371 15.897 4.112 20.557 2.74 4.522 6.852 6.784 12.333 6.784 9.045 0 19.872-6.647 32.48-19.94 12.745-13.294 23.777-33.645 33.096-61.054 9.319-27.408 13.979-46.046 13.979-55.914 0-5.756-1.508-10.621-4.523-14.595-2.878-4.111-7.058-6.167-12.539-6.167-16.72 0-34.056 16.514-52.009 49.542-17.952 33.027-26.929 59.957-26.929 80.787Zm242.569-11.923c0 12.746-4.934 24.463-14.801 35.152-9.73 10.553-24.12 15.829-43.169 15.829-14.116 0-24.737-3.084-31.863-9.251-6.989-6.304-10.484-13.019-10.484-20.145 0-3.837 1.028-7.126 3.084-9.867 2.192-2.741 4.933-4.112 8.222-4.112 7.401 0 11.101 3.906 11.101 11.718 0 1.781-.411 4.317-1.234 7.606-.548 1.507-.822 2.672-.822 3.494 0 3.289 2.124 6.167 6.373 8.634 4.248 2.33 9.319 3.495 15.212 3.495 9.182 0 17.541-2.878 25.079-8.634 7.537-5.893 11.306-13.979 11.306-24.257 0-8.908-5.276-22.955-15.829-42.141-12.334-22.201-18.501-38.441-18.501-48.719 0-13.157 5.208-24.257 15.623-33.302 10.416-9.045 22.27-13.567 35.563-13.567 9.731 0 18.022 2.466 24.874 7.4 6.989 4.934 10.484 10.21 10.484 15.829 0 7.263-3.015 10.895-9.045 10.895-4.523 0-7.812-4.043-9.867-12.129-2.193-8.908-8.154-13.362-17.885-13.362-7.811 0-14.595 2.124-20.351 6.373-5.756 4.248-8.633 9.799-8.633 16.651 0 9.319 4.591 22.132 13.772 38.441 8.634 14.8 14.39 26.107 17.268 33.918 3.015 7.812 4.523 15.829 4.523 24.051Zm180.076-1.644h8.633c-4.522 18.775-11.032 32.274-19.528 40.496-8.497 8.086-17.199 12.129-26.107 12.129-17.542 0-26.313-11.169-26.313-33.507 0-2.878.48-9.662 1.439-20.352 1.371-17.267 2.056-27.066 2.056-29.396 0-13.156-5.208-19.734-15.623-19.734-5.071 0-10.004 1.713-14.801 5.139-4.659 3.426-8.086 7.675-10.278 12.745-2.056 5.071-5.345 14.938-9.867 29.602l-16.035 52.83h-24.462l72.77-239.279c3.701-12.197 5.551-19.323 5.551-21.379 0-3.289-.891-5.619-2.673-6.989-1.781-1.37-6.304-2.056-13.567-2.056h-7.4l2.672-8.633c22.201-.412 38.509-2.947 48.925-7.606h5.139l-56.325 185.421c32.205-35.221 54.269-56.805 66.192-64.754 12.06-7.948 22.407-11.923 31.041-11.923 12.197 0 18.295 4.454 18.295 13.362 0 3.426-1.233 6.304-3.7 8.634-2.33 2.33-5.071 3.494-8.223 3.494-2.741 0-6.441-1.438-11.1-4.316-3.015-1.919-6.167-2.878-9.456-2.878-13.157 0-34.878 17.404-65.165 52.214 2.604-.686 4.66-1.028 6.167-1.028 21.79 0 33.576 22.201 35.357 66.603.549 11.786 1.508 19.255 2.878 22.407 1.508 3.152 4.18 4.728 8.017 4.728 4.797 0 9.662-3.495 14.596-10.484 4.933-7.126 8.565-15.623 10.895-25.49Zm119.228-5.55h9.867c-17.404 38.783-39.742 58.175-67.014 58.175-11.238 0-20.42-3.906-27.546-11.717-6.989-7.949-10.484-18.638-10.484-32.069 0-16.993 4.522-36.179 13.567-57.558 9.182-21.379 22.133-39.812 38.852-55.298 16.857-15.486 31.521-23.229 43.992-23.229 7.674 0 13.498 2.467 17.473 7.401 3.974 4.796 5.961 10.826 5.961 18.089 0 14.801-7.4 29.054-22.201 42.758-14.801 13.568-37.002 26.655-66.604 39.263-3.837 11.923-5.755 23.229-5.755 33.919 0 8.771 1.713 15.349 5.139 19.734 3.426 4.386 8.497 6.578 15.212 6.578 18.775 0 35.289-15.349 49.541-46.046Zm-61.053-24.668c17.679-7.949 33.576-18.913 47.691-32.891 14.116-13.979 21.174-26.655 21.174-38.03 0-5.207-1.097-9.045-3.289-11.512-2.056-2.603-5.208-3.905-9.456-3.905-8.223 0-17.953 8.017-29.191 24.051-11.1 15.897-20.077 36.659-26.929 62.287Zm103.194-41.525h-9.045c5.756-15.349 12.951-28.437 21.585-39.263 8.771-10.826 17.405-16.24 25.901-16.24 5.893 0 10.279 2.399 13.157 7.195 2.877 4.66 4.316 11.786 4.316 21.379 0 11.923-3.083 28.916-9.25 50.98.822-1.37 3.083-6.304 6.784-14.8 10.141-22.887 19.049-39.401 26.723-49.542 7.679-10.141 15.349-15.212 23.019-15.212 4.8 0 8.64 1.508 11.52 4.523 2.87 3.015 4.31 6.646 4.31 10.895 0 4.111-1.23 7.469-3.7 10.072-2.33 2.604-5.14 3.906-8.43 3.906-3.7 0-7.46-2.261-11.3-6.783-1.51-1.782-3.02-2.673-4.52-2.673-6.86 0-17.408 16.514-31.661 49.542-14.253 32.89-25.764 63.862-34.535 92.916l-4.523 14.8h-24.668l32.685-108.95c6.167-20.83 9.251-34.946 9.251-42.346 0-3.975-.548-6.921-1.645-8.84-.959-1.918-2.466-2.878-4.522-2.878-4.522 0-10.21 4.865-17.062 14.596-6.715 9.73-11.512 18.638-14.39 26.723Zm138.35-23.64h-8.43c6.44-21.242 15.28-31.863 26.52-31.863 6.03 0 11.99 5.002 17.88 15.007 2.19 3.837 4.87 5.755 8.02 5.755 3.29 0 5.82-2.809 7.6-8.428 2.61-8.222 5.97-12.334 10.08-12.334 3.15 0 4.72 1.508 4.72 4.523 0 2.878-2.12 8.291-6.37 16.239-16.44 30.698-27.82 54.476-34.12 71.332-6.17 16.719-9.25 31.726-9.25 45.019 0 9.593 2.05 17.062 6.16 22.407 4.12 5.207 8.84 7.811 14.19 7.811 16.03 0 31.59-12.471 46.66-37.413 15.21-25.079 22.82-49.404 22.82-72.976 0-9.319-1.99-18.638-5.96-27.957-2.47-5.756-3.7-10.758-3.7-15.006 0-9.319 3.49-13.979 10.48-13.979 4.11 0 7.47 2.399 10.07 7.195 2.61 4.797 3.91 11.306 3.91 19.529 0 18.227-3.97 40.634-11.92 67.22-7.95 26.45-19.39 47.417-34.33 62.903-14.94 15.349-30.56 23.024-46.87 23.024-10.83 0-19.53-3.358-26.11-10.073-6.44-6.715-9.66-16.034-9.66-27.957 0-12.334 3.36-26.038 10.07-41.113 6.72-15.075 18.02-34.193 33.92-57.353 2.47-3.563 4.73-7.195 6.79-10.895 1.78-3.015 3.01-5.002 3.7-5.962-5.49 3.426-10.42 5.139-14.81 5.139-4.52 0-8.42-1.644-11.71-4.933-3.57-3.426-6.79-5.139-9.66-5.139-4.53 0-8.09 3.426-10.69 10.278Zm203.3-122.518c0-4.933 1.71-9.113 5.14-12.539 3.56-3.563 7.81-5.345 12.75-5.345 4.93 0 9.11 1.782 12.54 5.345 3.56 3.426 5.34 7.606 5.34 12.539 0 4.934-1.78 9.182-5.34 12.746-3.43 3.563-7.61 5.344-12.54 5.344-5.07 0-9.32-1.781-12.75-5.344-3.43-3.701-5.14-7.949-5.14-12.746Zm15.21 219.751h9.87c-6.44 13.293-14.87 25.079-25.28 35.357-10.28 10.279-20.22 15.418-29.81 15.418-6.44 0-12.13-2.261-17.06-6.784-4.8-4.659-7.2-11.443-7.2-20.351 0-7.263 3.84-21.173 11.51-41.73l23.64-62.698c5.49-14.663 8.23-23.571 8.23-26.723 0-2.741-.69-4.797-2.06-6.167-1.23-1.371-3.15-2.056-5.75-2.056-5.35 0-11.72 4.18-19.12 12.54-7.27 8.222-12.41 15.691-15.42 22.406h-9.87c7.54-14.937 16.11-26.723 25.7-35.357 9.73-8.634 18.77-12.951 27.13-12.951 6.44 0 11.72 2.193 15.83 6.578 4.11 4.386 6.17 10.142 6.17 17.268 0 7.263-3.63 20.557-10.9 39.88l-19.73 53.447c-7.26 19.323-10.9 31.452-10.9 36.385 0 3.975.76 6.99 2.27 9.045 1.64 1.919 3.97 2.878 6.99 2.878 10.14 0 22.06-12.128 35.76-36.385Zm101.55-4.317h9.05c-13.98 36.728-31.93 55.092-53.86 55.092-7.54 0-13.57-2.467-18.09-7.401-4.52-5.07-6.78-11.374-6.78-18.912 0-7.4 4.45-25.695 13.36-54.886l48.1-158.697c4.11-13.43 6.17-21.242 6.17-23.435 0-3.289-.96-5.619-2.88-6.989-1.78-1.37-6.37-2.056-13.77-2.056h-8.02l2.67-8.633c22.61-.412 39.27-2.878 49.95-7.401h5.14l-66.19 217.901c-.96 3.426-2.94 9.661-5.96 18.706-3.97 11.923-5.96 20.968-5.96 27.135 0 4.111.75 7.195 2.26 9.25 1.64 2.056 4.04 3.084 7.19 3.084 4.66 0 10.49-3.221 17.48-9.662 6.99-6.441 13.7-17.473 20.14-33.096Zm101.14 0h9.05c-13.98 36.728-31.93 55.092-53.86 55.092-7.54 0-13.57-2.467-18.09-7.401-4.52-5.07-6.78-11.374-6.78-18.912 0-7.4 4.45-25.695 13.36-54.886l48.1-158.697c4.11-13.43 6.17-21.242 6.17-23.435 0-3.289-.96-5.619-2.88-6.989-1.78-1.37-6.37-2.056-13.77-2.056h-8.02l2.67-8.633c22.61-.412 39.26-2.878 49.95-7.401h5.14l-66.19 217.901c-.96 3.426-2.95 9.661-5.96 18.706-3.98 11.923-5.96 20.968-5.96 27.135 0 4.111.75 7.195 2.26 9.25 1.64 2.056 4.04 3.084 7.19 3.084 4.66 0 10.49-3.221 17.48-9.662 6.99-6.441 13.7-17.473 20.14-33.096Zm116.56-3.083h9.87c-17.41 38.783-39.75 58.175-67.02 58.175-11.24 0-20.42-3.906-27.55-11.717-6.98-7.949-10.48-18.638-10.48-32.069 0-16.993 4.52-36.179 13.57-57.558 9.18-21.379 22.13-39.812 38.85-55.298 16.86-15.486 31.52-23.229 43.99-23.229 7.68 0 13.5 2.467 17.47 7.401 3.98 4.796 5.97 10.826 5.97 18.089 0 14.801-7.4 29.054-22.2 42.758-14.81 13.568-37.01 26.655-66.61 39.263-3.84 11.923-5.75 23.229-5.75 33.919 0 8.771 1.71 15.349 5.13 19.734 3.43 4.386 8.5 6.578 15.22 6.578 18.77 0 35.29-15.349 49.54-46.046Zm-61.05-24.668c17.67-7.949 33.57-18.913 47.69-32.891 14.11-13.979 21.17-26.655 21.17-38.03 0-5.207-1.1-9.045-3.29-11.512-2.05-2.603-5.21-3.905-9.46-3.905-8.22 0-17.95 8.017-29.19 24.051-11.1 15.897-20.07 36.659-26.92 62.287Z" fill="#3C4043"/></svg>