<svg width="1920" height="1080" viewBox="0 0 1920 1080" fill="none" xmlns="http://www.w3.org/2000/svg">
<rect x="1216" y="813" width="218" height="50" rx="25" fill="#D2E3FC"/>
<rect x="1215" y="813" width="197" height="50" rx="25" fill="#1A73E8"/>
<rect x="486" y="813" width="218" height="50" rx="25" fill="#D2E3FC"/>
<rect x="486" y="813" width="50" height="50" rx="25" fill="#1A73E8"/>
<path d="M423.176 553H501.926V598H423.176V553ZM511.838 598V472H590.588V598H511.838ZM511.838 598H590.588H511.838ZM511.838 472H590.588H511.838ZM600.5 598V481H679.25V598H600.5ZM600.5 598H679.25H600.5ZM600.5 481H679.25H600.5ZM689.162 598V427H767.912V598H689.162ZM689.162 598H767.912H689.162ZM689.162 427H767.912H689.162Z" fill="#3C4043"/>
<path d="M1152.18 553H1230.93V598H1152.18V553ZM1240.84 598V472H1319.59V598H1240.84ZM1240.84 598H1319.59H1240.84ZM1240.84 472H1319.59H1240.84ZM1329.5 598V481H1408.25V598H1329.5ZM1329.5 598H1408.25H1329.5ZM1329.5 481H1408.25H1329.5ZM1418.16 598V427H1496.91V598H1418.16ZM1418.16 598H1496.91H1418.16ZM1418.16 427H1496.91H1418.16Z" fill="#D2E3FC"/>
<path d="M1175.18 553H1208.93C1215.23 553 1220.48 555.25 1224.68 559.75C1229.18 563.95 1231.43 569.2 1231.43 575.5C1231.43 581.8 1229.18 587.2 1224.68 591.7C1220.48 595.9 1215.23 598 1208.93 598H1175.18C1168.88 598 1163.48 595.9 1158.98 591.7C1154.78 587.2 1152.68 581.8 1152.68 575.5C1152.68 569.2 1154.78 563.95 1158.98 559.75C1163.48 555.25 1168.88 553 1175.18 553ZM1241.34 558.4V511.15H1320.09V558.4H1241.34ZM1280.94 519.25C1287.84 519.25 1294.29 521.05 1300.29 524.65C1306.29 528.25 1311.09 533.05 1314.69 539.05C1318.29 545.05 1320.09 551.5 1320.09 558.4C1320.09 565.6 1318.29 572.2 1314.69 578.2C1311.09 584.2 1306.29 589 1300.29 592.6C1294.29 596.2 1287.84 598 1280.94 598C1273.74 598 1267.14 596.2 1261.14 592.6C1255.14 589 1250.34 584.2 1246.74 578.2C1243.14 572.2 1241.34 565.6 1241.34 558.4C1241.34 551.5 1243.14 545.05 1246.74 539.05C1250.34 533.05 1255.14 528.25 1261.14 524.65C1267.14 521.05 1273.74 519.25 1280.94 519.25ZM1280.94 472C1287.84 472 1294.29 473.8 1300.29 477.4C1306.29 481 1311.09 485.8 1314.69 491.8C1318.29 497.8 1320.09 504.25 1320.09 511.15C1320.09 518.35 1318.29 524.95 1314.69 530.95C1311.09 536.95 1306.29 541.75 1300.29 545.35C1294.29 548.95 1287.84 550.75 1280.94 550.75C1273.74 550.75 1267.14 548.95 1261.14 545.35C1255.14 541.75 1250.34 536.95 1246.74 530.95C1243.14 524.95 1241.34 518.35 1241.34 511.15C1241.34 504.25 1243.14 497.8 1246.74 491.8C1250.34 485.8 1255.14 481 1261.14 477.4C1267.14 473.8 1273.74 472 1280.94 472ZM1330 558.4V520.15H1408.75V558.4H1330ZM1369.6 519.25C1376.5 519.25 1382.95 521.05 1388.95 524.65C1394.95 528.25 1399.75 533.05 1403.35 539.05C1406.95 545.05 1408.75 551.5 1408.75 558.4C1408.75 565.6 1406.95 572.2 1403.35 578.2C1399.75 584.2 1394.95 589 1388.95 592.6C1382.95 596.2 1376.5 598 1369.6 598C1362.4 598 1355.8 596.2 1349.8 592.6C1343.8 589 1339 584.2 1335.4 578.2C1331.8 572.2 1330 565.6 1330 558.4C1330 551.5 1331.8 545.05 1335.4 539.05C1339 533.05 1343.8 528.25 1349.8 524.65C1355.8 521.05 1362.4 519.25 1369.6 519.25ZM1369.6 481C1376.5 481 1382.95 482.8 1388.95 486.4C1394.95 490 1399.75 494.8 1403.35 500.8C1406.95 506.8 1408.75 513.25 1408.75 520.15C1408.75 527.35 1406.95 533.95 1403.35 539.95C1399.75 545.95 1394.95 550.75 1388.95 554.35C1382.95 557.95 1376.5 559.75 1369.6 559.75C1362.4 559.75 1355.8 557.95 1349.8 554.35C1343.8 550.75 1339 545.95 1335.4 539.95C1331.8 533.95 1330 527.35 1330 520.15C1330 513.25 1331.8 506.8 1335.4 500.8C1339 494.8 1343.8 490 1349.8 486.4C1355.8 482.8 1362.4 481 1369.6 481ZM1418.66 558.4V466.15H1497.41V558.4H1418.66ZM1458.26 519.25C1465.16 519.25 1471.61 521.05 1477.61 524.65C1483.61 528.25 1488.41 533.05 1492.01 539.05C1495.61 545.05 1497.41 551.5 1497.41 558.4C1497.41 565.6 1495.61 572.2 1492.01 578.2C1488.41 584.2 1483.61 589 1477.61 592.6C1471.61 596.2 1465.16 598 1458.26 598C1451.06 598 1444.46 596.2 1438.46 592.6C1432.46 589 1427.66 584.2 1424.06 578.2C1420.46 572.2 1418.66 565.6 1418.66 558.4C1418.66 551.5 1420.46 545.05 1424.06 539.05C1427.66 533.05 1432.46 528.25 1438.46 524.65C1444.46 521.05 1451.06 519.25 1458.26 519.25ZM1458.26 427C1465.16 427 1471.61 428.8 1477.61 432.4C1483.61 436 1488.41 440.8 1492.01 446.8C1495.61 452.8 1497.41 459.25 1497.41 466.15C1497.41 473.35 1495.61 479.95 1492.01 485.95C1488.41 491.95 1483.61 496.75 1477.61 500.35C1471.61 503.95 1465.16 505.75 1458.26 505.75C1451.06 505.75 1444.46 503.95 1438.46 500.35C1432.46 496.75 1427.66 491.95 1424.06 485.95C1420.46 479.95 1418.66 473.35 1418.66 466.15C1418.66 459.25 1420.46 452.8 1424.06 446.8C1427.66 440.8 1432.46 436 1438.46 432.4C1444.46 428.8 1451.06 427 1458.26 427Z" fill="#3C4043"/>
</svg>
