<svg width="1920" height="1080" fill="none" xmlns="http://www.w3.org/2000/svg"><path d="m1157.09 580.605-.21 1.89c0 1.4.28 2.485.84 3.255.63.77 1.5 1.155 2.62 1.155 1.4 0 2.94-.805 4.62-2.415 1.75-1.68 3.54-4.095 5.36-7.245h.84l1.57 2.1c-2.45 4.06-4.58 7-6.4 8.82-1.82 1.75-3.89 2.905-6.2 3.465-2.59 0-4.55-.7-5.88-2.1-1.33-1.4-1.99-3.395-1.99-5.985l.21-2.415 4.72-28.035.74-5.565h-7.14l-.53-.525.42-3.15h7.77l1.79-12.705 4.83-2.205.42.42-2.42 14.49h14.07l.42.525-.42 3.15h-14.59l-5.46 33.075Zm56.19-38.22c2.03.49 3.68 1.54 4.94 3.15 1.26 1.61 1.85 3.57 1.78 5.88l-.1 1.365-4.41 27.3-.95 10.815-5.35.525 5.98-37.065.11-1.47c0-1.4-.28-2.555-.84-3.465-.56-.91-1.26-1.365-2.1-1.365-1.96 0-5.01 2.8-9.14 8.4-4.06 5.53-8.57 13.23-13.54 23.1v.105l-.74 11.235-5.46.525 8.82-63.84.42-9.87 5.46-.525-7.03 51.66h.73c3.92-6.86 7.46-12.39 10.61-16.59 3.22-4.27 6.44-7.56 9.66-9.87h1.15Zm43.47 35.07 1.79 2.415c-2.17 3.5-4.55 6.23-7.14 8.19-2.52 1.89-5.43 3.08-8.72 3.57h-1.05c-3.99-.49-6.89-2.03-8.71-4.62-1.75-2.66-2.63-6.58-2.63-11.76 0-6.16.95-11.69 2.84-16.59s4.48-8.785 7.77-11.655c3.29-2.87 7-4.375 11.13-4.515l.73.105c2.87.28 5.01 1.12 6.41 2.52 1.47 1.4 2.2 3.325 2.2 5.775 0 4.13-2.2 8.015-6.61 11.655-4.41 3.57-10.99 6.86-19.74 9.87v1.47c0 4.62.63 7.98 1.89 10.08 1.26 2.1 3.22 3.15 5.88 3.15 2.31 0 4.51-.77 6.61-2.31 2.1-1.61 4.24-4.06 6.41-7.35h.94Zm-5.46-30.975c-4.06 0-7.56 2.03-10.5 6.09-2.94 4.06-4.76 9.38-5.46 15.96 6.86-2.38 12.11-5.04 15.75-7.98 3.71-3.01 5.57-6.09 5.57-9.24 0-1.54-.46-2.73-1.37-3.57-.84-.84-2.17-1.26-3.99-1.26Zm66.73-3.675c1.82 2.8 2.73 5.635 2.73 8.505 0 3.57-1.5 7.84-4.51 12.81L1299.75 591h-5.46l-5.14-47.565 5.14-.63.53 8.085 3.15 34.23h.52l13.76-22.68c2.45-4.2 3.67-7.7 3.67-10.5 0-2.24-.91-4.655-2.73-7.245l.21-.735 4.62-1.155Zm33.28 34.65 1.78 2.415c-2.17 3.5-4.55 6.23-7.14 8.19-2.52 1.89-5.42 3.08-8.71 3.57h-1.05c-3.99-.49-6.9-2.03-8.72-4.62-1.75-2.66-2.62-6.58-2.62-11.76 0-6.16.94-11.69 2.83-16.59 1.89-4.9 4.48-8.785 7.77-11.655 3.29-2.87 7-4.375 11.13-4.515l.74.105c2.87.28 5 1.12 6.4 2.52 1.47 1.4 2.21 3.325 2.21 5.775 0 4.13-2.21 8.015-6.62 11.655-4.41 3.57-10.99 6.86-19.74 9.87v1.47c0 4.62.63 7.98 1.89 10.08 1.26 2.1 3.22 3.15 5.88 3.15 2.31 0 4.52-.77 6.62-2.31 2.1-1.61 4.23-4.06 6.4-7.35h.95Zm-5.46-30.975c-4.06 0-7.56 2.03-10.5 6.09-2.94 4.06-4.76 9.38-5.46 15.96 6.86-2.38 12.11-5.04 15.75-7.98 3.71-3.01 5.56-6.09 5.56-9.24 0-1.54-.45-2.73-1.36-3.57-.84-.84-2.17-1.26-3.99-1.26Zm48.53-3.255-.95 6.405-.52.21-1.05-.105c-6.3 1.05-13.44 11.41-21.42 31.08l-.63 10.08-5.36.525 5.25-38.22.63-9.87 5.15-.525-3.47 25.83h.63c6.44-13.79 12.95-22.33 19.53-25.62l2.21.21Zm36.65-.42c1.82 2.94 2.73 5.775 2.73 8.505 0 3.78-1.4 8.05-4.2 12.81l-16.06 27.72c-4.06 7-7.74 12.005-11.03 15.015-3.29 3.08-6.82 4.62-10.6 4.62-1.89 0-4.27-.455-7.14-1.365l.31-4.41.74-.42c2.1.7 4.16 1.05 6.19 1.05 3.15 0 6.06-1.19 8.72-3.57 2.66-2.38 5.63-6.44 8.92-12.18l-9.03-47.145 5.15-.63 1.15 8.085 5.67 33.18h.74l12.18-21.21c2.38-4.34 3.57-8.085 3.57-11.235 0-2.31-.91-4.725-2.73-7.245l.31-.735 4.41-.84Zm54.79-.105c2.31 1.61 3.99 3.605 5.04 5.985 1.12 2.38 1.68 5.565 1.68 9.555 0 5.53-.95 10.745-2.84 15.645-1.89 4.83-4.69 8.855-8.4 12.075-3.64 3.22-8.05 5.11-13.23 5.67h-.42l-7.45-1.89-2.73-.42 8.4-61.74.52-9.87 5.36-.525-6.93 50.82h.73c5.81-10.5 12.11-18.935 18.9-25.305h1.37Zm-17.01 44.625c3.85 0 7.21-1.26 10.08-3.78 2.94-2.59 5.18-5.985 6.72-10.185 1.54-4.27 2.31-8.89 2.31-13.86 0-3.78-.39-6.545-1.16-8.295-.77-1.75-1.61-2.625-2.52-2.625-.63 0-2.1 1.26-4.41 3.78-2.24 2.52-4.86 6.09-7.87 10.71-2.94 4.55-5.81 9.835-8.61 15.855l-.63 6.825 6.09 1.575Zm58.76-9.87 1.78 2.415c-2.17 3.5-4.55 6.23-7.14 8.19-2.52 1.89-5.42 3.08-8.71 3.57h-1.05c-3.99-.49-6.9-2.03-8.72-4.62-1.75-2.66-2.62-6.58-2.62-11.76 0-6.16.94-11.69 2.83-16.59 1.89-4.9 4.48-8.785 7.77-11.655 3.29-2.87 7-4.375 11.13-4.515l.74.105c2.87.28 5 1.12 6.4 2.52 1.47 1.4 2.21 3.325 2.21 5.775 0 4.13-2.21 8.015-6.62 11.655-4.41 3.57-10.99 6.86-19.74 9.87v1.47c0 4.62.63 7.98 1.89 10.08 1.26 2.1 3.22 3.15 5.88 3.15 2.31 0 4.52-.77 6.62-2.31 2.1-1.61 4.23-4.06 6.4-7.35h.95Zm-5.46-30.975c-4.06 0-7.56 2.03-10.5 6.09-2.94 4.06-4.76 9.38-5.46 15.96 6.86-2.38 12.11-5.04 15.75-7.98 3.71-3.01 5.56-6.09 5.56-9.24 0-1.54-.45-2.73-1.36-3.57-.84-.84-2.17-1.26-3.99-1.26Zm35.62-3.78c3.22.56 5.95 1.365 8.19 2.415l-1.47 4.62-.95.21c-2.66-2.24-5.28-3.36-7.87-3.36-2.66 0-4.94.91-6.83 2.73-1.89 1.82-2.83 3.85-2.83 6.09 0 1.75.56 3.255 1.68 4.515 1.19 1.26 3.01 2.8 5.46 4.62 2.94 2.1 5.18 4.095 6.72 5.985 1.61 1.82 2.41 4.165 2.41 7.035 0 2.59-.73 4.97-2.2 7.14-1.4 2.17-3.4 3.885-5.99 5.145-2.52 1.26-5.42 1.89-8.71 1.89-3.5-.49-6.76-1.68-9.77-3.57l1.16-4.725.94-.525c2.94 3.29 6.2 4.935 9.77 4.935 2.94 0 5.35-.91 7.24-2.73 1.89-1.82 2.84-3.955 2.84-6.405 0-2.03-.63-3.745-1.89-5.145-1.26-1.47-3.15-3.115-5.67-4.935-2.87-2.03-5.04-3.92-6.51-5.67-1.47-1.75-2.21-3.955-2.21-6.615 0-2.59.74-4.935 2.21-7.035 1.47-2.1 3.46-3.71 5.98-4.83 2.52-1.19 5.29-1.785 8.3-1.785Zm23.47 37.905-.21 1.89c0 1.4.28 2.485.84 3.255.63.77 1.5 1.155 2.62 1.155 1.4 0 2.94-.805 4.62-2.415 1.75-1.68 3.54-4.095 5.36-7.245h.84l1.57 2.1c-2.45 4.06-4.58 7-6.4 8.82-1.82 1.75-3.89 2.905-6.2 3.465-2.59 0-4.55-.7-5.88-2.1-1.33-1.4-1.99-3.395-1.99-5.985l.21-2.415 4.72-28.035.74-5.565h-7.14l-.53-.525.42-3.15h7.77l1.79-12.705 4.83-2.205.42.42-2.42 14.49h14.07l.42.525-.42 3.15h-14.59l-5.46 33.075Zm-465.91 91.625c4.41.77 7.88 2.205 10.4 4.305 2.59 2.03 3.85 4.48 3.78 7.35l-.11 1.47-3.99 24.15-.31 11.76-19.11 1.155 4.51-27.72.11-1.05c0-1.54-.56-2.31-1.68-2.31-1.12 0-2.66 1.015-4.62 3.045-1.96 1.96-4.1 4.9-6.41 8.82l-1.05 6.3-.31 11.76-19.11 1.155 4.51-27.72.11-1.05c0-1.54-.56-2.31-1.68-2.31-1.05 0-2.49.945-4.31 2.835-1.82 1.82-3.92 4.62-6.3 8.4l-.94 7.245-.42 11.445-18.59 1.155 4.94-37.38.42-11.865 18.58-1.155-1.78 13.755h1.68c3.99-5.18 7.98-9.66 11.97-13.44l1.36-.105c4.34.77 7.77 2.205 10.29 4.305 2.52 2.03 3.75 4.48 3.68 7.35l-.11 1.47-.1.42h1.47c3.71-4.9 7.63-9.38 11.76-13.44l1.36-.105Zm48.81-.84c4.9 1.12 8.75 3.29 11.55 6.51 2.8 3.15 4.2 7.315 4.2 12.495 0 9.94-2.59 17.78-7.77 23.52-5.18 5.74-12.32 8.855-21.42 9.345l-1.68-.21c-4.97-1.12-8.85-3.36-11.65-6.72-2.73-3.36-4.1-7.875-4.1-13.545 0-6.16 1.19-11.55 3.57-16.17 2.38-4.62 5.74-8.26 10.08-10.92 4.41-2.66 9.59-4.165 15.54-4.515l1.68.21Zm-5.35 14.07c-2.24 0-3.92.595-5.04 1.785-1.05 1.12-1.75 2.905-2.1 5.355-.35 2.45-.53 5.985-.53 10.605 0 2.38.21 4.025.63 4.935.49.84 1.4 1.26 2.73 1.26 2.17 0 3.75-.56 4.73-1.68 1.05-1.19 1.75-3.01 2.1-5.46.35-2.45.52-6.02.52-10.71 0-2.31-.21-3.885-.63-4.725-.42-.91-1.22-1.365-2.41-1.365Zm60.98-13.23c3.99.77 7.35 2.205 10.08 4.305 2.73 2.1 4.06 4.55 3.99 7.35l-.11 1.47-3.99 24.15-.42 11.76-19.11 1.155 4.62-27.72.11-1.05c0-1.54-.6-2.31-1.79-2.31-1.05 0-2.48.91-4.3 2.73-1.75 1.82-3.82 4.585-6.2 8.295l-.94 7.455-.42 11.445-18.59 1.155 4.94-37.38.42-11.865 18.58-1.155-1.78 13.755h1.57c3.99-5.18 7.98-9.66 11.97-13.44l1.37-.105Zm70.6 13.125c0 6.3-3.71 12.215-11.13 17.745 2.03 4.55 4.83 10.15 8.4 16.8l-.95 1.365-15.64 1.995-1.79-.84c-3.08-8.12-5.18-14.21-6.3-18.27l.63-2.415c2.24-1.33 4.1-2.835 5.57-4.515 1.54-1.75 2.31-3.22 2.31-4.41 0-.49-.18-.91-.53-1.26-.28-.35-.66-.525-1.15-.525-1.33 0-3.08.98-5.25 2.94-2.1 1.96-4.38 4.935-6.83 8.925l-.94 6.93-.32 11.445-18.69 1.155 8.3-61.32.31-11.865 18.69-1.155-5.04 37.695h1.79c3.36-4.13 7.77-8.61 13.23-13.44l1.36-.105c4.34.77 7.74 2.24 10.19 4.41 2.52 2.17 3.78 5.075 3.78 8.715Zm30.45-13.755c4.27.42 8.51 1.26 12.71 2.52l-4.31 14.49-2.41.945c-1.82-1.82-3.78-3.255-5.88-4.305-2.03-1.05-3.78-1.575-5.25-1.575-.77 0-1.4.21-1.89.63-.42.35-.63.805-.63 1.365 0 .84.42 1.61 1.26 2.31.91.63 2.31 1.435 4.2 2.415 2.31 1.26 4.23 2.45 5.77 3.57 1.54 1.05 2.87 2.485 3.99 4.305 1.19 1.82 1.79 4.025 1.79 6.615 0 3.5-1.05 6.65-3.15 9.45-2.1 2.73-4.97 4.9-8.61 6.51-3.64 1.54-7.67 2.31-12.08 2.31-5.32-.56-10.22-1.47-14.7-2.73l4.41-15.225 1.89-.945c1.96 2.24 4.17 4.025 6.62 5.355 2.45 1.26 4.62 1.89 6.51 1.89.91 0 1.57-.21 1.99-.63.49-.42.74-.875.74-1.365 0-.7-.46-1.365-1.37-1.995-.84-.7-2.2-1.575-4.09-2.625-2.52-1.4-4.59-2.66-6.2-3.78-1.54-1.19-2.9-2.66-4.09-4.41-1.12-1.75-1.68-3.815-1.68-6.195.14-3.92 1.33-7.28 3.57-10.08 2.24-2.87 5.18-5.04 8.82-6.51 3.71-1.54 7.73-2.31 12.07-2.31Zm32.32-18.795c2.17 1.47 3.74 3.185 4.72 5.145 1.05 1.96 1.58 4.305 1.58 7.035 0 3.43-.98 6.825-2.94 10.185-1.89 3.36-4.87 6.93-8.93 10.71l-6.82-4.41-.32-1.26c2.73-3.08 4.1-6.16 4.1-9.24 0-2.03-.35-3.745-1.05-5.145-.63-1.47-1.75-2.8-3.36-3.99v-1.575c4.62-3.43 8.96-5.915 13.02-7.455Zm84.16 19.425c4.41.77 7.88 2.205 10.4 4.305 2.59 2.03 3.85 4.48 3.78 7.35l-.11 1.47-3.99 24.15-.31 11.76-19.11 1.155 4.51-27.72.11-1.05c0-1.54-.56-2.31-1.68-2.31-1.12 0-2.66 1.015-4.62 3.045-1.96 1.96-4.1 4.9-6.41 8.82l-1.05 6.3-.31 11.76-19.11 1.155 4.51-27.72.11-1.05c0-1.54-.56-2.31-1.68-2.31-1.05 0-2.49.945-4.31 2.835-1.82 1.82-3.92 4.62-6.3 8.4l-.94 7.245-.42 11.445-18.59 1.155 4.94-37.38.42-11.865 18.58-1.155-1.78 13.755h1.68c3.99-5.18 7.98-9.66 11.97-13.44l1.36-.105c4.34.77 7.77 2.205 10.29 4.305 2.52 2.03 3.75 4.48 3.68 7.35l-.11 1.47-.1.42h1.47c3.71-4.9 7.63-9.38 11.76-13.44l1.36-.105Zm53.64 30.975 5.46 7.035a39.968 39.968 0 0 1-8.82 7.98 39.24 39.24 0 0 1-10.71 4.935h-1.68c-6.79-.77-11.83-2.8-15.12-6.09-3.22-3.36-4.83-8.12-4.83-14.28 0-6.09 1.16-11.445 3.47-16.065 2.38-4.62 5.74-8.26 10.08-10.92 4.34-2.73 9.45-4.27 15.33-4.62l1.68.21c4.13.77 7.28 2.31 9.45 4.62 2.17 2.31 3.25 5.25 3.25 8.82 0 4.34-1.99 7.945-5.98 10.815-3.92 2.87-10.43 5.425-19.53 7.665.28 1.96.84 3.395 1.68 4.305.84.91 1.99 1.365 3.46 1.365 1.4 0 2.8-.42 4.2-1.26 1.47-.84 3.64-2.485 6.51-4.935l2.1.42Zm-11.65-20.16c-1.96 0-3.47.805-4.52 2.415-1.05 1.61-1.71 4.13-1.99 7.56 3.43-.77 5.84-1.68 7.24-2.73 1.4-1.05 2.1-2.485 2.1-4.305 0-1.05-.24-1.785-.73-2.205-.42-.49-1.12-.735-2.1-.735Zm69.99-11.025-4.94 37.8-.42 11.445-18.58 1.155 1.57-11.55h-1.68c-2.45 4.9-5.04 8.995-7.77 12.285H1515c-5.46-1.33-9.24-3.43-11.34-6.3-2.1-2.94-3.15-6.72-3.15-11.34 0-4.48.91-8.925 2.73-13.335 1.82-4.48 4.62-8.505 8.4-12.075 3.78-3.64 8.47-6.405 14.07-8.295h.73l10.19 1.785 11.44-2.415 1.16.84Zm-29.3 34.02c1.12 0 2.45-1.33 3.99-3.99s3.47-6.825 5.78-12.495l.31-2.31-7.14-1.785c-3.43 0-5.14 4.095-5.14 12.285 0 5.53.73 8.295 2.2 8.295Zm83.61-57.96-8.19 61.74-.42 11.445-18.58 1.155 1.57-11.76h-1.36c-2.66 5.04-5.36 9.205-8.09 12.495h-2.41c-5.46-1.33-9.24-3.43-11.34-6.3-2.03-2.87-3.05-6.58-3.05-11.13 0-4.48.91-8.96 2.73-13.44 1.89-4.48 4.76-8.54 8.61-12.18 3.85-3.64 8.61-6.405 14.28-8.295h.74l4.93.84 1.58-11.55.42-11.865 18.58-1.155Zm-32.55 58.17c2.03 0 5.22-5.075 9.56-15.225l.52-3.885-6.72-1.785c-3.71 0-5.56 4.27-5.56 12.81 0 5.39.73 8.085 2.2 8.085ZM278.63 473.344c-4.224 0-8.256-.736-12.096-2.208-3.84-1.536-7.232-3.68-10.176-6.432-2.944-2.816-5.28-6.144-7.008-9.984-1.728-3.904-2.592-8.224-2.592-12.96 0-4.352.704-8.512 2.112-12.48 1.408-4.032 3.488-7.616 6.239-10.752 2.753-3.136 6.177-5.632 10.273-7.488 4.096-1.856 8.8-2.784 14.112-2.784 4.224 0 8.256.768 12.096 2.304a30.218 30.218 0 0 1 10.176 6.432c2.944 2.752 5.28 6.08 7.008 9.984 1.728 3.84 2.592 8.128 2.592 12.864 0 4.288-.704 8.448-2.112 12.48-1.408 4.032-3.488 7.616-6.24 10.752-2.752 3.136-6.176 5.632-10.272 7.488-4.096 1.856-8.8 2.784-14.112 2.784Zm1.44-3.84c4.928 0 9.024-1.024 12.288-3.072 3.264-2.112 5.696-5.024 7.296-8.736 1.664-3.776 2.496-8.16 2.496-13.152 0-4.416-.512-8.576-1.536-12.48s-2.56-7.328-4.608-10.272c-1.984-3.008-4.48-5.344-7.488-7.008-3.008-1.664-6.528-2.496-10.56-2.496-4.8 0-8.832 1.024-12.096 3.072-3.264 2.048-5.728 4.928-7.392 8.64-1.664 3.648-2.496 7.968-2.496 12.96 0 4.48.48 8.672 1.44 12.576 1.024 3.904 2.528 7.36 4.512 10.368 2.048 3.008 4.576 5.376 7.584 7.104 3.008 1.664 6.528 2.496 10.56 2.496Zm39.81 2.784c-.576 0-1.056-.096-1.44-.288-.32-.128-.48-.384-.48-.768 0-.512.192-.832.576-.96.384-.192.928-.384 1.632-.576.96-.256 1.888-.608 2.784-1.056.896-.448 1.344-1.312 1.344-2.592v-20.64c0-1.728-.192-3.2-.576-4.416-.32-1.216-1.312-2.048-2.976-2.496a6.276 6.276 0 0 1-.672-.384c-.192-.192-.288-.48-.288-.864 0-.704.288-1.088.864-1.152 2.24-.576 4.064-1.28 5.472-2.112a42.419 42.419 0 0 0 4.128-2.784c.192-.128.352-.224.48-.288.192-.128.384-.192.576-.192.128 0 .224.064.288.192a.651.651 0 0 1 .192.48c0 .448-.096 1.376-.288 2.784-.128 1.344-.192 2.464-.192 3.36v.768c.064.192.128.32.192.384 2.24-2.112 4.608-3.712 7.104-4.8 2.56-1.088 5.344-1.632 8.352-1.632 3.136 0 5.728 1.28 7.776 3.84 2.048 2.56 3.072 5.728 3.072 9.504v20.448c0 1.28.448 2.144 1.344 2.592.896.384 1.824.736 2.784 1.056a9.91 9.91 0 0 1 1.44.672c.512.192.768.544.768 1.056 0 .384-.224.608-.672.672a4.562 4.562 0 0 1-1.248.192c-1.28 0-2.272-.064-2.976-.192a225.17 225.17 0 0 1-2.016-.192c-.64-.064-1.536-.096-2.688-.096-1.088 0-1.984.032-2.688.096-.704.064-1.44.128-2.208.192-.704.128-1.696.192-2.976.192-.32 0-.736-.064-1.248-.192-.448-.064-.672-.288-.672-.672 0-.512.224-.864.672-1.056.512-.256 1.024-.48 1.536-.672.96-.32 1.888-.672 2.784-1.056.896-.448 1.344-1.312 1.344-2.592v-20.16c0-2.816-.8-4.992-2.4-6.528-1.536-1.6-3.616-2.432-6.24-2.496-2.304 0-4.32.384-6.048 1.152-1.728.704-3.264 1.6-4.608 2.688-.256.256-.448.608-.576 1.056a3.624 3.624 0 0 0-.192 1.152v23.136c0 1.28.448 2.144 1.344 2.592.896.448 1.824.8 2.784 1.056 1.472.384 2.208.896 2.208 1.536 0 .384-.16.64-.48.768-.32.192-.8.288-1.44.288-1.28 0-2.304-.064-3.072-.192a225.17 225.17 0 0 1-2.016-.192c-.64-.064-1.536-.096-2.688-.096-1.088 0-1.984.032-2.688.096-.64.064-1.344.128-2.112.192-.704.128-1.696.192-2.976.192Zm50.239 0c-.32 0-.736-.064-1.248-.192-.448-.064-.672-.288-.672-.672 0-.512.224-.864.672-1.056.512-.256 1.024-.48 1.536-.672.96-.32 1.888-.672 2.784-1.056.896-.448 1.344-1.312 1.344-2.592v-48.384c0-1.856-.352-3.392-1.056-4.608-.64-1.28-1.76-2.08-3.36-2.4-.512-.128-.768-.544-.768-1.248 0-.64.224-1.024.672-1.152a57.44 57.44 0 0 0 4.32-1.152 61.148 61.148 0 0 0 3.36-1.344c1.088-.448 2.144-.864 3.168-1.248.256-.128.448-.192.576-.192.128 0 .224.096.288.288.128.128.192.256.192.384 0 .576-.128 1.824-.384 3.744-.192 1.856-.288 4.96-.288 9.312v48c0 1.28.448 2.144 1.344 2.592.896.384 1.824.736 2.784 1.056a9.91 9.91 0 0 1 1.44.672c.512.192.768.544.768 1.056 0 .384-.256.608-.768.672-.448.128-.832.192-1.152.192-1.216 0-2.208-.064-2.976-.192l-2.112-.192c-.64-.064-1.536-.096-2.688-.096-1.088 0-1.984.032-2.688.096l-2.112.192c-.704.128-1.696.192-2.976.192Zm25.463 27.072a6.218 6.218 0 0 1-3.36-.96c-1.024-.576-1.536-1.568-1.536-2.976 0-1.152.256-2.176.768-3.072.576-.832 1.376-1.248 2.4-1.248.704 0 1.376.096 2.016.288.704.192 1.312.288 1.824.288.384 0 .704-.096.96-.288.32-.128.608-.384.864-.768.704-1.152 1.504-2.592 2.4-4.32.96-1.728 1.92-3.68 2.88-5.856a86.293 86.293 0 0 0 2.88-6.912c.192-.576.288-1.312.288-2.208 0-.512-.032-.992-.096-1.44a7.035 7.035 0 0 0-.288-1.344l-11.136-28.128c-.448-1.152-1.056-2.144-1.824-2.976-.704-.896-1.536-1.472-2.496-1.728a15.989 15.989 0 0 1-1.536-.672c-.448-.256-.672-.608-.672-1.056 0-.384.224-.608.672-.672.512-.128.928-.192 1.248-.192 1.28 0 2.208.032 2.784.096.64.064 1.216.16 1.728.288.576.064 1.408.096 2.496.096 1.152 0 2.016-.032 2.592-.096a15.535 15.535 0 0 1 1.824-.288c.64-.064 1.6-.096 2.88-.096.384 0 .8.096 1.248.288.448.128.672.384.672.768 0 .448-.352.896-1.056 1.344-.64.384-1.216.64-1.728.768-.64.192-1.12.544-1.44 1.056-.32.448-.48 1.12-.48 2.016 0 .384.096.864.288 1.44.192.512.352.928.48 1.248l7.776 19.2c.128.384.32.576.576.576.192 0 .352-.192.48-.576l6.624-17.568c.192-.448.352-1.024.48-1.728.192-.768.288-1.376.288-1.824 0-1.216-.192-2.048-.576-2.496a2.96 2.96 0 0 0-1.344-1.152 58.979 58.979 0 0 1-1.824-.96c-.64-.448-.96-.896-.96-1.344 0-.384.224-.64.672-.768.512-.192.928-.288 1.248-.288.896 0 1.792.096 2.688.288.96.128 2.336.192 4.128.192 1.216 0 2.08-.032 2.592-.096a28.34 28.34 0 0 1 1.44-.288c.384-.064.928-.096 1.632-.096.32 0 .704.064 1.152.192.512.064.768.288.768.672 0 .448-.256.8-.768 1.056a9.91 9.91 0 0 1-1.44.672c-.96.256-1.984 1.024-3.072 2.304a14.513 14.513 0 0 0-2.592 4.128l-13.056 31.104c-.064.192-.416 1.024-1.056 2.496a373.656 373.656 0 0 1-5.184 12.48 1424.748 1424.748 0 0 1-2.976 7.2c-.576 1.28-1.408 2.24-2.496 2.88-1.088.704-2.336 1.056-3.744 1.056Zm73.312-26.016c-3.136 0-5.6-.96-7.392-2.88-1.728-1.92-2.592-4.768-2.592-8.544v-22.272c0-.512-.192-.864-.576-1.056-.384-.256-1.216-.384-2.496-.384h-.576c-.32 0-.608-.192-.864-.576a3.388 3.388 0 0 1-.288-1.344c0-.128.096-.32.288-.576a5.81 5.81 0 0 1 .384-.48 40.636 40.636 0 0 0 3.456-2.688 40.401 40.401 0 0 0 2.88-2.592c.896-.896 1.632-1.696 2.208-2.4l.768-.768c.256-.256.544-.384.864-.384.32 0 .608.064.864.192.32.128.448.416.384.864l-.48 4.32c-.064.704.096 1.184.48 1.44s.992.384 1.824.384h10.944c.256 0 .48.224.672.672.192.384.288.864.288 1.44s-.096 1.152-.288 1.728c-.192.512-.416.768-.672.768h-9.504c-1.6 0-2.656.128-3.168.384-.448.256-.672 1.024-.672 2.304v18.912c0 2.56.544 4.576 1.632 6.048 1.088 1.472 2.656 2.208 4.704 2.208 1.856 0 3.296-.128 4.32-.384a10.202 10.202 0 0 0 2.784-1.344c.128-.128.256-.192.384-.192.256 0 .416.16.48.48.128.256.192.544.192.864 0 .32-.544.96-1.632 1.92-1.024.96-2.4 1.856-4.128 2.688-1.664.832-3.488 1.248-5.472 1.248Zm15.788-1.056c-1.28 0-1.92-.352-1.92-1.056 0-.576.736-1.088 2.208-1.536a12.88 12.88 0 0 0 2.688-1.248c.896-.512 1.376-1.408 1.44-2.688v-48.096c0-1.728-.288-3.232-.864-4.512-.576-1.344-1.696-2.144-3.36-2.4-.576-.128-.864-.576-.864-1.344 0-.576.256-.96.768-1.152.896-.32 1.952-.672 3.168-1.056 1.28-.384 2.592-.8 3.936-1.248a80.083 80.083 0 0 0 3.552-1.44c.256-.128.448-.192.576-.192.192 0 .352.064.48.192a.651.651 0 0 1 .192.48c0 .384-.096.928-.288 1.632-.128.704-.256 1.92-.384 3.648-.128 1.728-.192 4.32-.192 7.776v16.704c0 1.024.032 1.76.096 2.208.128.448.32.896.576 1.344 1.024-.768 2.272-1.6 3.744-2.496a28.929 28.929 0 0 1 5.088-2.496 16.11 16.11 0 0 1 5.76-1.056c3.136 0 5.728 1.248 7.776 3.744 2.112 2.432 3.168 5.536 3.168 9.312v20.16c0 1.28.416 2.24 1.248 2.88a10.572 10.572 0 0 0 2.688 1.344c.704.192 1.248.416 1.632.672.384.192.576.48.576.864 0 .704-.64 1.056-1.92 1.056-1.28 0-2.272-.064-2.976-.192l-1.92-.192c-.576-.064-1.44-.096-2.592-.096-1.088 0-1.952.032-2.592.096-.64.064-1.312.128-2.016.192-.64.128-1.6.192-2.88.192-1.28 0-1.92-.352-1.92-1.056 0-.448.192-.736.576-.864.384-.192.928-.416 1.632-.672a9.06 9.06 0 0 0 2.592-1.344c.768-.64 1.152-1.6 1.152-2.88v-19.584c0-1.6-.48-3.04-1.44-4.32-.896-1.344-2.016-2.4-3.36-3.168-1.344-.768-2.72-1.152-4.128-1.152-1.216 0-2.624.192-4.224.576-1.6.32-2.848.832-3.744 1.536-1.024.832-1.728 1.696-2.112 2.592-.32.896-.48 2.336-.48 4.32v19.488c.064 1.28.448 2.176 1.152 2.688.768.512 1.632.928 2.592 1.248.704.192 1.216.416 1.536.672.384.192.576.48.576.864 0 .704-.64 1.056-1.92 1.056-1.28 0-2.24-.064-2.88-.192-.64-.064-1.248-.128-1.825-.192-.575-.064-1.439-.096-2.591-.096-1.088 0-1.984.032-2.688.096-.64.064-1.344.128-2.112.192-.704.128-1.696.192-2.976.192Zm66.11 1.152c-3.52 0-6.592-.864-9.216-2.592-2.624-1.728-4.672-4.16-6.144-7.296-1.472-3.2-2.208-6.88-2.208-11.04 0-3.712.832-7.072 2.496-10.08 1.728-3.072 4-5.536 6.816-7.392 2.816-1.856 5.888-2.784 9.216-2.784 2.56 0 4.832.512 6.816 1.536s3.52 2.464 4.608 4.32c1.152 1.792 1.728 3.872 1.728 6.24 0 1.984-.96 2.976-2.88 2.976h-20.256c-.896 0-1.536.256-1.92.768-.32.448-.48 1.376-.48 2.784 0 3.072.672 5.888 2.016 8.448 1.344 2.496 3.136 4.512 5.376 6.048 2.24 1.472 4.704 2.208 7.392 2.208 1.92 0 3.648-.352 5.184-1.056 1.6-.768 3.008-1.856 4.224-3.264.256-.32.448-.512.576-.576a.651.651 0 0 1 .48-.192c.512 0 .768.32.768.96 0 1.216-.576 2.56-1.728 4.032a14.882 14.882 0 0 1-3.456 3.168 15.382 15.382 0 0 1-4.416 2.016c-1.6.512-3.264.768-4.992.768Zm-8.832-29.088h8.736c1.536 0 2.848-.032 3.936-.096a25.21 25.21 0 0 0 3.168-.384c.32-.064.512-.256.576-.576.128-.384.192-.896.192-1.536 0-1.856-.832-3.424-2.496-4.704-1.6-1.344-3.52-2.016-5.76-2.016-1.472 0-2.944.448-4.416 1.344-1.472.832-2.688 1.888-3.648 3.168-.96 1.28-1.44 2.56-1.44 3.84 0 .64.384.96 1.152.96Zm49.233 27.936c-.32 0-.736-.064-1.248-.192-.448-.064-.672-.288-.672-.672 0-.512.224-.864.672-1.056.512-.256 1.024-.48 1.536-.672.96-.32 1.888-.736 2.784-1.248.896-.576 1.344-1.568 1.344-2.976V438.4h-2.208c-.832 0-1.76-.064-2.784-.192-.256-.064-.512-.256-.768-.576-.192-.32-.288-.704-.288-1.152 0-.448.352-.768 1.056-.96 1.152-.32 2.048-.64 2.688-.96a38.607 38.607 0 0 1 2.304-1.152c0-5.76.8-10.528 2.4-14.304 1.6-3.776 3.616-6.752 6.048-8.928 2.496-2.176 5.056-3.712 7.68-4.608 2.624-.896 4.992-1.344 7.104-1.344 1.92 0 3.84.192 5.76.576 1.92.384 3.52 1.024 4.8 1.92 1.28.896 1.92 2.144 1.92 3.744 0 1.792-.512 3.072-1.536 3.84a5.086 5.086 0 0 1-3.264 1.152c-.832 0-1.504-.288-2.016-.864-.512-.64-1.088-1.344-1.728-2.112-.768-1.024-1.76-2.016-2.976-2.976s-2.944-1.44-5.184-1.44c-2.048 0-4.032.64-5.952 1.92-1.856 1.216-3.392 3.168-4.608 5.856-1.152 2.688-1.728 6.208-1.728 10.56v5.28c0 .768.224 1.248.672 1.44.512.192 1.088.352 1.728.48 1.792.192 3.648.352 5.568.48 1.984.128 3.872.192 5.664.192 1.728 0 3.232-.064 4.512-.192 1.28-.128 2.144-.288 2.592-.48a92.73 92.73 0 0 0 2.592-1.536 55.348 55.348 0 0 1 2.496-1.632c.256-.128.512-.16.768-.096s.384.224.384.48c-.064 1.088-.224 2.784-.48 5.088-.192 2.304-.288 5.536-.288 9.696v19.872c0 1.408.448 2.4 1.344 2.976.896.512 1.824.928 2.784 1.248a9.91 9.91 0 0 1 1.44.672c.512.192.768.544.768 1.056 0 .384-.256.608-.768.672-.448.128-.832.192-1.152.192-1.28 0-2.304-.064-3.072-.192a225.17 225.17 0 0 1-2.016-.192c-.64-.064-1.536-.096-2.688-.096-1.088 0-1.984.032-2.688.096-.64.064-1.344.128-2.112.192-.704.128-1.696.192-2.976.192-.32 0-.736-.064-1.248-.192-.448-.064-.672-.288-.672-.672 0-.512.224-.864.672-1.056.512-.256 1.024-.48 1.536-.672.96-.32 1.888-.736 2.784-1.248.896-.576 1.344-1.568 1.344-2.976v-20.256c0-1.792-.352-3.328-1.056-4.608-.704-1.28-1.888-2.08-3.552-2.4-.128-.064-.704-.096-1.728-.096h-6.432c-1.024 0-1.984.032-2.88.096-1.856.064-2.976.256-3.36.576-.32.32-.48.768-.48 1.344v25.344c0 1.408.448 2.4 1.344 2.976.896.512 1.824.928 2.784 1.248a9.91 9.91 0 0 1 1.44.672c.512.192.768.544.768 1.056 0 .384-.256.608-.768.672-.448.128-.832.192-1.152.192-1.28 0-2.304-.064-3.072-.192a225.17 225.17 0 0 1-2.016-.192c-.64-.064-1.536-.096-2.688-.096-1.088 0-1.984.032-2.688.096-.64.064-1.344.128-2.112.192-.704.128-1.696.192-2.976.192Zm49.687 0c-.576 0-1.056-.096-1.44-.288-.32-.128-.48-.384-.48-.768 0-.512.192-.832.576-.96.384-.192.928-.384 1.632-.576.96-.256 1.888-.608 2.784-1.056.896-.448 1.344-1.312 1.344-2.592v-20.64c0-1.728-.192-3.2-.576-4.416-.32-1.216-1.312-2.048-2.976-2.496a6.276 6.276 0 0 1-.672-.384c-.192-.192-.288-.48-.288-.864 0-.704.288-1.088.864-1.152 2.24-.576 4.064-1.28 5.472-2.112a42.419 42.419 0 0 0 4.128-2.784c.192-.128.352-.224.48-.288.192-.128.384-.192.576-.192.128 0 .224.064.288.192a.651.651 0 0 1 .192.48c0 .448-.096 1.376-.288 2.784-.128 1.344-.192 2.464-.192 3.36v.768c.064.192.128.32.192.384 2.24-2.112 4.608-3.712 7.104-4.8 2.56-1.088 5.344-1.632 8.352-1.632 3.136 0 5.728 1.28 7.776 3.84 2.048 2.56 3.072 5.728 3.072 9.504v20.448c0 1.28.448 2.144 1.344 2.592.896.384 1.824.736 2.784 1.056a9.91 9.91 0 0 1 1.44.672c.512.192.768.544.768 1.056 0 .384-.224.608-.672.672a4.562 4.562 0 0 1-1.248.192c-1.28 0-2.272-.064-2.976-.192a225.17 225.17 0 0 1-2.016-.192c-.64-.064-1.536-.096-2.688-.096-1.088 0-1.984.032-2.688.096-.704.064-1.44.128-2.208.192-.704.128-1.696.192-2.976.192-.32 0-.736-.064-1.248-.192-.448-.064-.672-.288-.672-.672 0-.512.224-.864.672-1.056.512-.256 1.024-.48 1.536-.672.96-.32 1.888-.672 2.784-1.056.896-.448 1.344-1.312 1.344-2.592v-20.16c0-2.816-.8-4.992-2.4-6.528-1.536-1.6-3.616-2.432-6.24-2.496-2.304 0-4.32.384-6.048 1.152-1.728.704-3.264 1.6-4.608 2.688-.256.256-.448.608-.576 1.056a3.624 3.624 0 0 0-.192 1.152v23.136c0 1.28.448 2.144 1.344 2.592.896.448 1.824.8 2.784 1.056 1.472.384 2.208.896 2.208 1.536 0 .384-.16.64-.48.768-.32.192-.8.288-1.44.288-1.28 0-2.304-.064-3.072-.192a225.17 225.17 0 0 1-2.016-.192c-.64-.064-1.536-.096-2.688-.096-1.088 0-1.984.032-2.688.096-.64.064-1.344.128-2.112.192-.704.128-1.696.192-2.976.192Zm66.943 1.152c-3.52 0-6.592-.864-9.216-2.592-2.624-1.728-4.672-4.16-6.144-7.296-1.472-3.2-2.208-6.88-2.208-11.04 0-3.712.832-7.072 2.496-10.08 1.728-3.072 4-5.536 6.816-7.392 2.816-1.856 5.888-2.784 9.216-2.784 2.56 0 4.832.512 6.816 1.536s3.52 2.464 4.608 4.32c1.152 1.792 1.728 3.872 1.728 6.24 0 1.984-.96 2.976-2.88 2.976h-20.256c-.896 0-1.536.256-1.92.768-.32.448-.48 1.376-.48 2.784 0 3.072.672 5.888 2.016 8.448 1.344 2.496 3.136 4.512 5.376 6.048 2.24 1.472 4.704 2.208 7.392 2.208 1.92 0 3.648-.352 5.184-1.056 1.6-.768 3.008-1.856 4.224-3.264.256-.32.448-.512.576-.576a.651.651 0 0 1 .48-.192c.512 0 .768.32.768.96 0 1.216-.576 2.56-1.728 4.032a14.882 14.882 0 0 1-3.456 3.168 15.382 15.382 0 0 1-4.416 2.016c-1.6.512-3.264.768-4.992.768Zm-8.832-29.088h8.736c1.536 0 2.848-.032 3.936-.096a25.21 25.21 0 0 0 3.168-.384c.32-.064.512-.256.576-.576.128-.384.192-.896.192-1.536 0-1.856-.832-3.424-2.496-4.704-1.6-1.344-3.52-2.016-5.76-2.016-1.472 0-2.944.448-4.416 1.344-1.472.832-2.688 1.888-3.648 3.168-.96 1.28-1.44 2.56-1.44 3.84 0 .64.384.96 1.152.96Zm39.614 28.992c-1.984 0-3.84-.32-5.568-.96-1.728-.576-3.2-1.408-4.416-2.496-.32-.704-.576-1.888-.768-3.552-.128-1.664-.224-3.04-.288-4.128 0-.576.416-.864 1.248-.864.256 0 .48.064.672.192a.617.617 0 0 1 .48.48c.832 3.136 2.144 5.376 3.936 6.72 1.856 1.344 3.712 2.016 5.568 2.016 1.856 0 3.424-.608 4.704-1.824 1.344-1.28 2.016-2.848 2.016-4.704 0-1.728-.576-3.2-1.728-4.416-1.152-1.28-3.168-2.816-6.048-4.608-2.176-1.344-3.936-2.624-5.28-3.84-1.344-1.216-2.336-2.464-2.976-3.744-.576-1.28-.864-2.72-.864-4.32 0-2.048.48-3.904 1.44-5.568.96-1.664 2.4-2.976 4.32-3.936 1.92-1.024 4.32-1.536 7.2-1.536 1.92 0 3.52.192 4.8.576 1.28.384 2.24.8 2.88 1.248.512.704.928 1.824 1.248 3.36.384 1.472.576 2.88.576 4.224 0 .448-.32.672-.96.672-.384 0-.768-.064-1.152-.192-.32-.192-.544-.416-.672-.672-.832-2.112-1.888-3.712-3.168-4.8-1.216-1.152-2.752-1.728-4.608-1.728-1.6 0-3.04.48-4.32 1.44-1.216.96-1.824 2.368-1.824 4.224 0 1.472.448 2.784 1.344 3.936.96 1.152 2.72 2.464 5.28 3.936 3.712 2.112 6.464 4.096 8.256 5.952 1.856 1.792 2.784 4.192 2.784 7.2 0 3.456-1.312 6.272-3.936 8.448-2.624 2.176-6.016 3.264-10.176 3.264Zm35.352 0c-3.136 0-5.6-.96-7.392-2.88-1.728-1.92-2.592-4.768-2.592-8.544v-22.272c0-.512-.192-.864-.576-1.056-.384-.256-1.216-.384-2.496-.384h-.576c-.32 0-.608-.192-.864-.576a3.388 3.388 0 0 1-.288-1.344c0-.128.096-.32.288-.576a5.81 5.81 0 0 1 .384-.48 40.636 40.636 0 0 0 3.456-2.688 40.401 40.401 0 0 0 2.88-2.592c.896-.896 1.632-1.696 2.208-2.4l.768-.768c.256-.256.544-.384.864-.384.32 0 .608.064.864.192.32.128.448.416.384.864l-.48 4.32c-.064.704.096 1.184.48 1.44s.992.384 1.824.384h10.943c.257 0 .481.224.673.672.192.384.288.864.288 1.44s-.096 1.152-.288 1.728c-.192.512-.416.768-.673.768h-9.503c-1.6 0-2.656.128-3.168.384-.448.256-.672 1.024-.672 2.304v18.912c0 2.56.544 4.576 1.632 6.048 1.088 1.472 2.656 2.208 4.704 2.208 1.856 0 3.296-.128 4.32-.384a10.202 10.202 0 0 0 2.784-1.344c.128-.128.256-.192.384-.192.256 0 .416.16.48.48.128.256.192.544.192.864 0 .32-.544.96-1.632 1.92-1.024.96-2.4 1.856-4.128 2.688-1.664.832-3.488 1.248-5.472 1.248ZM291.079 616.672c-.448 0-.896-.128-1.344-.384-.384-.256-.576-.608-.576-1.056 0-.512.192-.928.576-1.248.448-.32.992-.576 1.632-.768 1.472-.448 2.432-.928 2.88-1.44.448-.448.672-1.184.672-2.208V564.16c0-.832-.16-1.6-.48-2.304a5.2 5.2 0 0 0-1.344-1.92c-.576-.512-1.28-.832-2.112-.96a3.364 3.364 0 0 1-.96-.48c-.192-.256-.288-.704-.288-1.344 0-.576.096-.992.288-1.248.256-.256.544-.416.864-.48 2.176-.512 4.64-1.184 7.392-2.016 2.752-.896 5.088-1.824 7.008-2.784.32-.128.64-.288.96-.48.384-.256.704-.384.96-.384.448 0 .704.128.768.384.128.256.192.544.192.864 0 .512-.096 1.344-.288 2.496a28.156 28.156 0 0 0-.192 3.072c0 .64.064 1.024.192 1.152.64-.64 1.76-1.504 3.36-2.592 1.664-1.088 3.552-2.048 5.664-2.88 2.112-.896 4.16-1.344 6.144-1.344 3.456 0 6.4.928 8.832 2.784 2.432 1.856 4.288 4.224 5.568 7.104a21.982 21.982 0 0 1 1.92 9.024c0 3.008-.576 5.952-1.728 8.832a26.707 26.707 0 0 1-4.8 7.68c-2.048 2.304-4.416 4.128-7.104 5.472-2.688 1.344-5.6 2.016-8.736 2.016-.64 0-1.44-.096-2.4-.288a15.95 15.95 0 0 1-2.784-.672 26.546 26.546 0 0 1-2.688-.864c-.064 0-.128.032-.192.096s-.128.16-.192.288v16.128c0 .896.16 1.632.48 2.208.384.576.928 1.056 1.632 1.44.768.384 1.728.768 2.88 1.152.704.192 1.216.416 1.536.672.384.32.576.736.576 1.248 0 .384-.16.704-.48.96-.256.32-.608.48-1.056.48a76.77 76.77 0 0 1-6.336-.288c-2.24-.128-4.192-.192-5.856-.192-1.088 0-2.24.032-3.456.096-1.216.064-2.464.128-3.744.192-1.28.128-2.56.192-3.84.192Zm25.248-27.648c.64 0 1.408-.256 2.304-.768.96-.512 1.888-1.376 2.784-2.592.896-1.216 1.632-2.816 2.208-4.8.64-2.048.96-4.544.96-7.488 0-3.456-.32-6.208-.96-8.256-.64-2.048-1.44-3.584-2.4-4.608-.896-1.024-1.824-1.696-2.784-2.016-.96-.32-1.792-.48-2.496-.48-1.088 0-2.208.256-3.36.768-1.088.448-1.984 1.024-2.688 1.728-.704.64-1.056 1.248-1.056 1.824v2.784c0 1.472-.032 3.168-.096 5.088v8.256c0 1.28.256 2.752.768 4.416.576 1.664 1.408 3.104 2.496 4.32 1.152 1.216 2.592 1.824 4.32 1.824Zm45.179 4.32c-3.456 0-6.56-.928-9.312-2.784-2.752-1.856-4.928-4.352-6.528-7.488-1.6-3.2-2.4-6.784-2.4-10.752 0-4.096.96-7.808 2.88-11.136 1.92-3.392 4.512-6.08 7.776-8.064 3.264-1.984 6.88-2.976 10.848-2.976 2.752 0 5.248.608 7.488 1.824 2.24 1.216 4.032 2.848 5.376 4.896 1.344 1.984 2.016 4.256 2.016 6.816 0 2.496-.992 3.744-2.976 3.744h-19.008c-.896 0-1.568.256-2.016.768-.384.512-.576 1.376-.576 2.592 0 2.304.512 4.416 1.536 6.336a11.667 11.667 0 0 0 4.224 4.416c1.792 1.088 3.872 1.632 6.24 1.632 1.856 0 3.552-.352 5.088-1.056 1.6-.704 3.2-1.664 4.8-2.88.192-.128.416-.256.672-.384.256-.192.48-.288.672-.288.704 0 1.056.416 1.056 1.248 0 .576-.192 1.44-.576 2.592-.576 1.728-1.632 3.456-3.168 5.184-1.536 1.664-3.52 3.04-5.952 4.128-2.368 1.088-5.088 1.632-8.16 1.632Zm-3.84-30.144h5.088c1.856 0 3.072-.032 3.648-.096a6.856 6.856 0 0 0 1.728-.384c.32-.128.576-.48.768-1.056a5.73 5.73 0 0 0 .288-1.824c0-1.664-.544-3.008-1.632-4.032-1.024-1.088-2.368-1.632-4.032-1.632-1.28 0-2.496.384-3.648 1.152a8.607 8.607 0 0 0-2.688 2.784c-.704 1.152-1.024 2.368-.96 3.648 0 .96.48 1.44 1.44 1.44Zm28.018 29.088c-.384 0-.8-.128-1.248-.384-.448-.256-.672-.608-.672-1.056 0-.512.224-.928.672-1.248a8.603 8.603 0 0 1 1.536-.768c.96-.32 1.792-.672 2.496-1.056.704-.448 1.056-1.312 1.056-2.592v-22.272c0-1.28-.224-2.368-.672-3.264-.384-.96-1.12-1.536-2.208-1.728-.256-.064-.512-.224-.768-.48-.192-.32-.288-.768-.288-1.344 0-.96.32-1.536.96-1.728 2.176-.512 4.704-1.184 7.584-2.016 2.88-.896 5.28-1.824 7.2-2.784.32-.128.64-.288.96-.48.384-.256.704-.384.96-.384.448 0 .704.128.768.384.128.256.192.544.192.864 0 .512-.096 1.312-.288 2.4a25.652 25.652 0 0 0-.192 2.976v.864c.064.32.128.512.192.576 2.176-2.048 4.32-3.648 6.432-4.8 2.176-1.216 4.736-1.824 7.68-1.824 3.392 0 6.24 1.216 8.544 3.648 2.304 2.432 3.456 5.824 3.456 10.176v21.312c0 1.28.352 2.112 1.056 2.496.704.384 1.536.736 2.496 1.056.512.192.96.448 1.344.768.384.32.576.736.576 1.248 0 .448-.192.8-.576 1.056-.32.256-.672.384-1.056.384-1.28 0-2.528-.064-3.744-.192-1.216-.064-2.4-.128-3.552-.192a60.602 60.602 0 0 0-6.816 0c-1.152.064-2.336.128-3.552.192a33.065 33.065 0 0 1-3.648.192c-.384 0-.736-.128-1.056-.384-.32-.256-.48-.608-.48-1.056 0-.512.16-.928.48-1.248.384-.32.832-.576 1.344-.768.96-.32 1.728-.672 2.304-1.056.64-.384.96-1.216.96-2.496v-18.912c0-2.368-.512-4.224-1.536-5.568-1.024-1.344-2.368-2.016-4.032-2.016-1.216 0-2.304.192-3.264.576-.96.32-1.984.864-3.072 1.632a1.747 1.747 0 0 0-.576.768c-.128.32-.192.64-.192.96v22.56c0 1.28.32 2.112.96 2.496.64.384 1.408.736 2.304 1.056 1.216.448 1.824 1.12 1.824 2.016 0 .384-.16.736-.48 1.056-.32.256-.672.384-1.056.384-1.28 0-2.496-.064-3.648-.192-1.152-.064-2.272-.128-3.36-.192a52.442 52.442 0 0 0-3.264-.096c-1.088 0-2.24.032-3.456.096-1.216.064-2.464.128-3.744.192-1.28.128-2.56.192-3.84.192Zm55.125 0c-.384 0-.8-.128-1.248-.384-.448-.256-.672-.608-.672-1.056 0-.512.224-.928.672-1.248a8.603 8.603 0 0 1 1.536-.768c.96-.32 1.792-.672 2.496-1.056.704-.448 1.056-1.312 1.056-2.592v-22.272c0-1.28-.192-2.368-.576-3.264-.384-.96-1.12-1.536-2.208-1.728-.256-.064-.512-.224-.768-.48s-.384-.704-.384-1.344c0-.96.352-1.536 1.056-1.728 1.536-.384 3.264-.832 5.184-1.344 1.92-.576 3.776-1.184 5.568-1.824 1.856-.64 3.392-1.28 4.608-1.92.256-.128.48-.256.672-.384.192-.128.384-.192.576-.192.64 0 .96.384.96 1.152 0 .512-.096 1.376-.288 2.592a28.156 28.156 0 0 0-.192 3.072c0 .64.064 1.024.192 1.152h.192c2.048-2.048 4.224-3.648 6.528-4.8 2.304-1.152 4.832-1.728 7.584-1.728 1.92 0 3.712.736 5.376 2.208a12.618 12.618 0 0 1 3.744 5.376h.48c1.856-2.432 3.968-4.288 6.336-5.568 2.368-1.344 5.024-2.016 7.968-2.016 1.984 0 3.776.544 5.376 1.632 1.664 1.088 2.976 2.656 3.936 4.704 1.024 2.048 1.536 4.544 1.536 7.488v21.312c0 1.28.352 2.112 1.056 2.496.704.384 1.536.736 2.496 1.056.512.192.96.448 1.344.768.384.32.576.736.576 1.248 0 .448-.192.8-.576 1.056-.32.256-.672.384-1.056.384-1.28 0-2.528-.064-3.744-.192-1.216-.064-2.4-.128-3.552-.192a62.292 62.292 0 0 0-3.456-.096c-1.088 0-2.144.032-3.168.096-.96.064-1.952.128-2.976.192a28.069 28.069 0 0 1-3.456.192c-.384 0-.736-.128-1.056-.384-.32-.256-.48-.608-.48-1.056 0-.512.16-.928.48-1.248.384-.32.832-.576 1.344-.768.832-.256 1.408-.576 1.728-.96.384-.384.576-1.024.576-1.92v-19.584c0-1.6-.192-2.944-.576-4.032-.384-1.152-.96-2.016-1.728-2.592a3.588 3.588 0 0 0-2.496-.96c-.64 0-1.408.192-2.304.576-.896.32-1.792.864-2.688 1.632-.704.64-1.056 1.76-1.056 3.36v20.928c0 1.28.192 2.112.576 2.496.384.384 1.056.736 2.016 1.056.512.192.96.448 1.344.768.384.32.576.736.576 1.248 0 .448-.192.8-.576 1.056-.32.256-.672.384-1.056.384-1.28 0-2.464-.064-3.552-.192l-3.072-.192a47.898 47.898 0 0 0-3.168-.096c-1.088 0-2.144.032-3.168.096-.96.064-1.952.128-2.976.192a28.069 28.069 0 0 1-3.456.192c-.384 0-.736-.128-1.056-.384-.32-.256-.48-.608-.48-1.056 0-.512.16-.928.48-1.248.384-.32.832-.576 1.344-.768.832-.256 1.408-.576 1.728-.96.384-.384.576-1.024.576-1.92v-19.584c0-1.6-.192-2.944-.576-4.032-.384-1.088-.928-1.92-1.632-2.496a3.588 3.588 0 0 0-2.496-.96c-.64 0-1.408.16-2.304.48-.896.32-1.856.832-2.88 1.536-.64.448-.96 1.472-.96 3.072v21.312c0 1.088.128 1.888.384 2.4.32.448.96.832 1.92 1.152.512.192.928.448 1.248.768.384.32.576.736.576 1.248 0 .384-.16.736-.48 1.056-.32.256-.672.384-1.056.384-1.28 0-2.464-.064-3.552-.192a719.268 719.268 0 0 1-2.976-.192 47.898 47.898 0 0 0-3.168-.096c-1.088 0-2.208.032-3.36.096-1.152.064-2.336.128-3.552.192a35.752 35.752 0 0 1-3.744.192Zm86.925 1.056c-1.855 0-3.551-.416-5.087-1.248-1.536-.768-2.752-1.824-3.648-3.168a8.416 8.416 0 0 1-1.344-4.608c0-2.24.704-4.128 2.112-5.664 1.472-1.536 3.584-2.912 6.336-4.128l8.256-3.648c1.28-.576 2.08-1.088 2.4-1.536.32-.512.48-1.376.48-2.592l.096-5.28c.064-1.856-.224-3.264-.864-4.224-.64-1.024-1.632-1.536-2.976-1.536-.768 0-1.568.192-2.4.576-.832.32-1.44.704-1.824 1.152-.192.256-.32.544-.384.864-.064.32-.096.64-.096.96 0 .384.032.896.096 1.536.064.576.096 1.056.096 1.44 0 .448-.544.992-1.632 1.632-1.088.576-2.336 1.12-3.744 1.632-1.408.448-2.624.672-3.648.672-.512 0-.96-.192-1.344-.576-.32-.448-.48-.992-.48-1.632 0-1.024.352-2.016 1.056-2.976.704-.96 1.888-2.112 3.552-3.456a34.734 34.734 0 0 1 5.664-3.744c2.048-1.088 4.064-1.952 6.048-2.592 1.984-.704 3.68-1.056 5.088-1.056 3.648 0 6.56 1.184 8.736 3.552 2.176 2.304 3.2 5.408 3.072 9.312l-.48 18.624c-.064 1.472.16 2.752.672 3.84.576 1.024 1.28 1.536 2.112 1.536 1.152 0 2.176-.416 3.072-1.248.192-.192.384-.288.576-.288.32 0 .576.128.768.384a.912.912 0 0 1 .384.768c0 .768-.64 1.792-1.92 3.072-1.216 1.216-2.528 2.112-3.936 2.688-1.408.64-2.88.96-4.416.96-3.712 0-6.816-1.856-9.312-5.568h-.192c-2.112 1.984-4 3.392-5.664 4.224a10.979 10.979 0 0 1-5.281 1.344Zm5.953-6.624c.576 0 1.056-.096 1.44-.288.384-.192.736-.512 1.056-.96.192-.256.32-.576.384-.96.128-.384.192-.8.192-1.248l.288-7.392c0-.576-.096-.928-.288-1.056a.921.921 0 0 0-.672-.288 1.58 1.58 0 0 0-.48.096c-.128 0-.288.064-.48.192-1.536.832-2.72 1.696-3.552 2.592-.768.832-1.152 2.368-1.152 4.608 0 1.856.352 3.104 1.056 3.744.768.64 1.504.96 2.208.96Zm28.153 5.568c-.384 0-.8-.128-1.248-.384-.448-.256-.672-.608-.672-1.056 0-.512.224-.928.672-1.248a8.603 8.603 0 0 1 1.536-.768c.96-.32 1.792-.672 2.496-1.056.704-.448 1.056-1.312 1.056-2.592v-22.272c0-1.28-.224-2.368-.672-3.264-.384-.96-1.12-1.536-2.208-1.728-.256-.064-.512-.224-.768-.48-.192-.32-.288-.768-.288-1.344 0-.96.32-1.536.96-1.728 2.176-.512 4.704-1.184 7.584-2.016 2.88-.896 5.28-1.824 7.2-2.784.32-.128.64-.288.96-.48.384-.256.704-.384.96-.384.448 0 .704.128.768.384.128.256.192.544.192.864 0 .512-.096 1.312-.288 2.4a25.652 25.652 0 0 0-.192 2.976v.864c.064.32.128.512.192.576 2.176-2.048 4.32-3.648 6.432-4.8 2.176-1.216 4.736-1.824 7.68-1.824 3.392 0 6.24 1.216 8.544 3.648 2.304 2.432 3.456 5.824 3.456 10.176v21.312c0 1.28.352 2.112 1.056 2.496.704.384 1.536.736 2.496 1.056.512.192.96.448 1.344.768.384.32.576.736.576 1.248 0 .448-.192.8-.576 1.056-.32.256-.672.384-1.056.384-1.28 0-2.528-.064-3.744-.192-1.216-.064-2.4-.128-3.552-.192a60.602 60.602 0 0 0-6.816 0c-1.152.064-2.336.128-3.552.192a33.065 33.065 0 0 1-3.648.192c-.384 0-.736-.128-1.056-.384-.32-.256-.48-.608-.48-1.056 0-.512.16-.928.48-1.248.384-.32.832-.576 1.344-.768.96-.32 1.728-.672 2.304-1.056.64-.384.96-1.216.96-2.496v-18.912c0-2.368-.512-4.224-1.536-5.568-1.024-1.344-2.368-2.016-4.032-2.016-1.216 0-2.304.192-3.264.576-.96.32-1.984.864-3.072 1.632a1.747 1.747 0 0 0-.576.768c-.128.32-.192.64-.192.96v22.56c0 1.28.32 2.112.96 2.496.64.384 1.408.736 2.304 1.056 1.216.448 1.824 1.12 1.824 2.016 0 .384-.16.736-.48 1.056-.32.256-.672.384-1.056.384-1.28 0-2.496-.064-3.648-.192-1.152-.064-2.272-.128-3.36-.192a52.442 52.442 0 0 0-3.264-.096c-1.088 0-2.24.032-3.456.096-1.216.064-2.464.128-3.744.192-1.28.128-2.56.192-3.84.192Zm67.605 1.056c-2.176 0-4.288-.256-6.336-.768a16.526 16.526 0 0 1-5.568-2.4c-.64-1.024-1.088-2.592-1.344-4.704-.256-2.176-.352-4.512-.288-7.008 0-.832.672-1.248 2.016-1.248.576 0 1.056.192 1.44.576.448.384.736.736.864 1.056 1.28 2.56 2.688 4.864 4.224 6.912 1.536 1.984 3.488 2.976 5.856 2.976 1.664 0 2.88-.512 3.648-1.536.832-1.024 1.248-2.144 1.248-3.36 0-1.664-.672-3.04-2.016-4.128a22.382 22.382 0 0 0-4.416-2.784 49.119 49.119 0 0 1-5.28-3.072 16.124 16.124 0 0 1-4.32-4.512c-1.152-1.792-1.728-3.968-1.728-6.528 0-2.624.704-4.864 2.112-6.72 1.472-1.92 3.424-3.392 5.856-4.416 2.432-1.088 5.088-1.632 7.968-1.632 2.176 0 4.192.256 6.048.768 1.92.448 3.232.896 3.936 1.344.512.64.896 1.888 1.152 3.744.32 1.792.48 3.84.48 6.144 0 .704-.64 1.056-1.92 1.056-.448 0-.928-.16-1.44-.48-.512-.384-.832-.736-.96-1.056-.832-2.56-1.92-4.48-3.264-5.76-1.28-1.28-2.688-1.92-4.224-1.92-1.408 0-2.688.448-3.84 1.344-1.088.896-1.632 2.08-1.632 3.552 0 1.28.64 2.464 1.92 3.552 1.344 1.024 2.88 1.984 4.608 2.88 4.224 2.176 7.232 4.288 9.024 6.336 1.792 2.048 2.688 4.8 2.688 8.256 0 4.288-1.376 7.616-4.128 9.984-2.752 2.368-6.88 3.552-12.384 3.552Zm22.48-1.056c-1.28 0-1.92-.48-1.92-1.44 0-.832.736-1.504 2.208-2.016.96-.32 1.792-.64 2.496-.96.704-.384 1.056-1.28 1.056-2.688v-45.6c0-1.728-.224-3.232-.672-4.512-.384-1.28-1.376-2.08-2.976-2.4-.704-.128-1.056-.64-1.056-1.536 0-.832.32-1.312.96-1.44 1.6-.32 3.424-.8 5.472-1.44 2.048-.704 4-1.408 5.856-2.112 1.92-.704 3.36-1.216 4.32-1.536.576-.192 1.024-.288 1.344-.288.448 0 .736.128.864.384s.192.544.192.864c0 .32-.032.768-.096 1.344a97.207 97.207 0 0 0-.192 1.92l-.192 1.92v23.424c0 .576.032 1.12.096 1.632.064.512.192.832.384.96.96-.832 2.08-1.76 3.36-2.784 1.344-1.024 2.88-1.92 4.608-2.688 1.792-.768 3.776-1.152 5.952-1.152 3.456 0 6.368 1.216 8.736 3.648 2.368 2.368 3.552 5.728 3.552 10.08v21.12c0 1.344.32 2.24.96 2.688.704.448 1.504.832 2.4 1.152.64.256 1.12.544 1.44.864.384.256.576.64.576 1.152 0 .96-.704 1.44-2.112 1.44-1.6 0-2.912-.064-3.936-.192a719.268 719.268 0 0 1-2.976-.192c-.896-.064-2.048-.096-3.456-.096-1.472 0-2.624.032-3.456.096-.768.064-1.6.128-2.496.192-.832.128-2.048.192-3.648.192s-2.4-.512-2.4-1.536c0-.512.192-.928.576-1.248.448-.32.896-.544 1.344-.672a6.605 6.605 0 0 0 2.208-1.152c.704-.512 1.056-1.472 1.056-2.88v-18.816c0-1.344-.256-2.56-.768-3.648s-1.184-1.952-2.016-2.592c-.832-.64-1.76-.96-2.784-.96-.896 0-1.888.16-2.976.48-1.024.32-2.08.864-3.168 1.632-.384.256-.64.576-.768.96s-.192.96-.192 1.728v21.408c0 1.28.288 2.144.864 2.592.64.448 1.376.832 2.208 1.152.512.192.96.448 1.344.768.384.32.576.736.576 1.248 0 1.024-.544 1.536-1.632 1.536-1.28 0-2.528-.064-3.744-.192-1.216-.064-2.4-.128-3.552-.192a57.238 57.238 0 0 0-3.36-.096c-1.088 0-2.208.032-3.36.096-1.088.064-2.24.128-3.456.192a33.065 33.065 0 0 1-3.648.192Zm54.656 0c-.384 0-.736-.128-1.056-.384-.32-.256-.48-.576-.48-.96 0-.512.128-.928.384-1.248.32-.32.736-.544 1.248-.672 1.728-.448 2.912-.896 3.552-1.344.704-.448 1.056-1.184 1.056-2.208v-20.736c0-2.304-.352-3.84-1.056-4.608-.64-.832-1.664-1.344-3.072-1.536a1.185 1.185 0 0 1-.864-.576 2.752 2.752 0 0 1-.288-1.248c0-1.024.384-1.6 1.152-1.728 3.456-.704 6.592-1.632 9.408-2.784 2.816-1.216 4.96-2.144 6.432-2.784 1.152-.512 1.856-.768 2.112-.768.896 0 1.344.448 1.344 1.344-.064 1.216-.224 2.656-.48 4.32-.192 1.6-.384 3.264-.576 4.992a67.638 67.638 0 0 0-.192 4.992v21.024c0 .832.32 1.504.96 2.016.64.512 1.856 1.056 3.648 1.632.512.192.928.416 1.248.672.32.256.48.64.48 1.152 0 .896-.48 1.344-1.44 1.344a93.46 93.46 0 0 1-4.032-.096l-4.224-.192a79.062 79.062 0 0 0-3.744-.096 77.34 77.34 0 0 0-3.648.096c-1.28.064-2.592.128-3.936.192a41.516 41.516 0 0 1-3.936.192Zm11.136-47.136c-2.176 0-4.064-.8-5.664-2.4-1.6-1.6-2.4-3.488-2.4-5.664 0-2.368.8-4.352 2.4-5.952 1.6-1.6 3.488-2.4 5.664-2.4 2.368 0 4.352.8 5.952 2.4 1.6 1.6 2.4 3.584 2.4 5.952 0 2.176-.8 4.064-2.4 5.664-1.6 1.6-3.584 2.4-5.952 2.4Zm18.112 71.52c-.448 0-.896-.128-1.344-.384-.384-.256-.576-.608-.576-1.056 0-.512.192-.928.576-1.248.448-.32.992-.576 1.632-.768 1.472-.448 2.432-.928 2.88-1.44.448-.448.672-1.184.672-2.208V564.16c0-.832-.16-1.6-.48-2.304a5.2 5.2 0 0 0-1.344-1.92c-.576-.512-1.28-.832-2.112-.96a3.364 3.364 0 0 1-.96-.48c-.192-.256-.288-.704-.288-1.344 0-.576.096-.992.288-1.248.256-.256.544-.416.864-.48 2.176-.512 4.64-1.184 7.392-2.016 2.752-.896 5.088-1.824 7.008-2.784.32-.128.64-.288.96-.48.384-.256.704-.384.96-.384.448 0 .704.128.768.384.128.256.192.544.192.864 0 .512-.096 1.344-.288 2.496a28.156 28.156 0 0 0-.192 3.072c0 .64.064 1.024.192 1.152.64-.64 1.76-1.504 3.36-2.592 1.664-1.088 3.552-2.048 5.664-2.88 2.112-.896 4.16-1.344 6.144-1.344 3.456 0 6.4.928 8.832 2.784 2.432 1.856 4.288 4.224 5.568 7.104a21.982 21.982 0 0 1 1.92 9.024c0 3.008-.576 5.952-1.728 8.832a26.707 26.707 0 0 1-4.8 7.68c-2.048 2.304-4.416 4.128-7.104 5.472-2.688 1.344-5.6 2.016-8.736 2.016-.64 0-1.44-.096-2.4-.288a15.95 15.95 0 0 1-2.784-.672 26.546 26.546 0 0 1-2.688-.864c-.064 0-.128.032-.192.096s-.128.16-.192.288v16.128c0 .896.16 1.632.48 2.208.384.576.928 1.056 1.632 1.44.768.384 1.728.768 2.88 1.152.704.192 1.216.416 1.536.672.384.32.576.736.576 1.248 0 .384-.16.704-.48.96-.256.32-.608.48-1.056.48a76.77 76.77 0 0 1-6.336-.288c-2.24-.128-4.192-.192-5.856-.192-1.088 0-2.24.032-3.456.096-1.216.064-2.464.128-3.744.192-1.28.128-2.56.192-3.84.192Zm25.248-27.648c.64 0 1.408-.256 2.304-.768.96-.512 1.888-1.376 2.784-2.592.896-1.216 1.632-2.816 2.208-4.8.64-2.048.96-4.544.96-7.488 0-3.456-.32-6.208-.96-8.256-.64-2.048-1.44-3.584-2.4-4.608-.896-1.024-1.824-1.696-2.784-2.016-.96-.32-1.792-.48-2.496-.48-1.088 0-2.208.256-3.36.768-1.088.448-1.984 1.024-2.688 1.728-.704.64-1.056 1.248-1.056 1.824v2.784c0 1.472-.032 3.168-.096 5.088v8.256c0 1.28.256 2.752.768 4.416.576 1.664 1.408 3.104 2.496 4.32 1.152 1.216 2.592 1.824 4.32 1.824Z" fill="#3C4043"/><path d="M954.854 674.37c-22.673 0-42.721-3.938-60.144-11.814-17.423-8.115-31.027-19.213-40.812-33.294-9.785-14.32-14.678-30.788-14.678-49.404 0-17.423 3.103-32.817 9.308-46.182 6.444-13.604 15.036-24.225 25.776-31.862 10.979-7.876 23.151-11.695 36.516-11.456 11.933.239 21.361 3.103 28.282 8.592 7.16 5.251 10.74 12.291 10.74 21.122 0 5.967-1.551 11.337-4.654 16.11-3.103 4.773-7.399 8.592-12.888 11.456-5.251 2.625-11.337 3.938-18.258 3.938-10.74 0-20.167-3.103-28.282-9.308-8.115-6.205-14.559-14.797-19.332-25.776-4.535-11.217-6.802-24.105-6.802-38.664 0-12.411 3.222-23.628 9.666-33.652 6.444-10.024 14.917-17.9 25.418-23.628 10.501-5.967 21.838-8.831 34.01-8.592 10.501.239 18.855 2.983 25.06 8.234 6.205 5.012 9.308 12.053 9.308 21.122 0 4.773-1.432 8.711-4.296 11.814-2.864 2.864-6.683 4.296-11.456 4.296-2.625 0-5.251-1.193-7.876-3.58-2.387-2.387-3.58-4.773-3.58-7.16 0-4.057-1.313-7.279-3.938-9.666-2.387-2.387-5.609-3.58-9.666-3.58-7.876 0-15.155 2.029-21.838 6.086-6.683 4.057-12.053 9.666-16.11 16.826-4.057 7.16-6.086 15.394-6.086 24.702 0 37.471 11.695 56.206 35.084 56.206 6.444 0 11.575-1.671 15.394-5.012 3.819-3.341 5.728-7.757 5.728-13.246 0-4.773-2.267-8.592-6.802-11.456-4.535-3.103-10.501-4.654-17.9-4.654-15.513 0-27.805 5.847-36.874 17.542-9.069 11.695-13.604 26.731-13.604 45.108 0 13.843 3.222 26.85 9.666 39.022 6.444 11.933 17.184 21.599 32.22 28.998 15.275 7.399 35.919 11.098 61.934 11.098 22.673 0 41.532-4.296 56.562-12.888 15.04-8.592 26.26-19.809 33.65-33.652 7.4-14.081 11.1-28.879 11.1-44.392 0-14.32-3.22-26.015-9.66-35.084-6.45-9.069-18.02-13.604-34.73-13.604-8.11 0-14.44 2.267-18.97 6.802-4.3 4.535-6.448 10.263-6.448 17.184 0 4.535 1.074 8.592 3.222 12.172 2.148 3.341 5.726 5.012 10.736 5.012 2.63 0 4.54-.597 5.73-1.79a31.318 31.318 0 0 0 3.22-4.654 85.039 85.039 0 0 1 3.94-5.728c1.43-1.909 3.82-2.864 7.16-2.864 5.49 0 9.43 1.432 11.82 4.296 2.62 2.864 3.81 6.444 3.58 10.74-.24 5.251-2.39 10.024-6.45 14.32-4.06 4.296-9.19 6.444-15.39 6.444-12.41 0-22.437-3.461-30.074-10.382-7.399-6.921-11.098-16.11-11.098-27.566 0-8.831 2.506-16.826 7.518-23.986 5.012-7.399 11.694-13.246 20.044-17.542 8.36-4.535 17.67-6.802 27.93-6.802l31.14-.358c16.95-.239 29.6-3.341 37.95-9.308 8.36-6.205 12.53-15.394 12.53-27.566 0-6.205-1.79-11.217-5.37-15.036-3.34-4.057-7.75-6.086-13.24-6.086-1.91 0-3.58.716-5.02 2.148-1.19 1.193-1.79 2.625-1.79 4.296 0 1.671.36 3.222 1.08 4.654.95 1.432 2.38 2.387 4.29 2.864 1.91.477 3.23 1.551 3.94 3.222.96 1.671 1.43 3.341 1.43 5.012 0 3.341-1.43 6.205-4.29 8.592-2.87 2.387-6.33 3.58-10.38 3.58-5.73 0-10.39-1.79-13.97-5.37s-5.37-8.234-5.37-13.962c0-4.773 1.32-8.95 3.94-12.53 2.87-3.819 6.68-6.802 11.46-8.95 5.01-2.148 10.5-3.222 16.47-3.222 9.54 0 17.18 3.58 22.91 10.74 5.73 6.921 8.59 16.349 8.59 28.282 0 10.74-2.63 20.167-7.88 28.282-5.25 7.876-12.65 13.962-22.19 18.258-9.31 4.296-20.53 6.444-33.65 6.444-1.91 0-3.23.477-3.94 1.432-.72.716-.6 1.79.36 3.222 4.77 8.115 7.99 16.11 9.66 23.986 1.91 7.876 2.87 17.303 2.87 28.282 0 21.957-5.25 41.528-15.76 58.712-10.5 16.945-25.06 30.191-43.67 39.738-18.38 9.547-39.621 14.32-63.726 14.32Z" fill="#1A73E8"/></svg>