<svg xmlns="http://www.w3.org/2000/svg" width="1920" height="1080" fill="none"><g clip-path="url(#a)"><path fill="#FF6D7F" d="M141 378h76.08v-10.08l-30.84-69.24H173.4L141 367.92V378Zm12.6-10.56 25.92-57.6 24.36 57.6H153.6Zm124.151 12.36c16.92 0 28.56-9.72 28.56-28.2v-33.48h-11.4v33.48c0 11.76-5.28 18.12-17.16 18.12-11.4 0-17.16-6.36-17.16-18.12v-33.48h-35.16v10.2h23.76v23.28c0 18.48 11.64 28.2 28.56 28.2Zm74.542-62.52v25.8h10.56v-26.64c0-11.52-5.16-19.44-20.76-19.44-15.6 0-20.76 7.92-20.76 19.44v26.64h10.56v-25.8c0-6.72 2.52-11.04 10.2-11.04s10.2 4.32 10.2 11.04Zm77.378 18.48v5.16c0 15.48-7.2 26.88-24.48 26.88h-28.56V378h28.56c23.28 0 35.88-14.52 35.88-37.56v-4.2c0-23.04-12.6-37.56-35.88-37.56h-28.56v10.2h28.56c17.28 0 24.48 11.4 24.48 26.88ZM479.71 297c-13.44 0-22.44 6.36-22.44 22.08v3.48c0 15.6 9 21.96 22.44 21.96 13.44 0 22.44-6.36 22.44-21.96v-3.48c0-15.72-9-22.08-22.44-22.08Zm11.88 25.56c0 9.48-4.8 12.72-11.88 12.72-7.08 0-11.88-3.24-11.88-12.72v-3.48c0-9.48 4.8-12.84 11.88-12.84 7.08 0 11.88 3.36 11.88 12.84v3.48Zm74.897-4.44h-51.84v10.2h29.28c-3.96 3.24-7.68 9.12-7.68 19.68v1.56c0 18.72 11.52 29.64 30.24 29.64s30.24-11.16 30.24-29.88V348c0-18.84-11.4-29.88-30.24-29.88Zm-18.84 31.8v-2.52c0-10.08 4.08-18.6 16.2-19.08h2.04c12.36 0 19.44 6.72 19.44 19.08v2.52c0 12.36-6.48 19.2-18.84 19.2s-18.84-6.84-18.84-19.2ZM645.173 378h51.84v-10.2h-29.28c3.96-3.24 7.68-9.12 7.68-19.68v-1.56c0-18.72-11.52-29.64-30.24-29.64s-30.24 11.16-30.24 29.88v1.32c0 18.84 11.4 29.88 30.24 29.88Zm.6-10.2c-12.36 0-19.44-6.72-19.44-19.08v-2.52c0-12.36 6.48-19.2 18.84-19.2s18.84 6.84 18.84 19.2v2.52c0 10.08-4.08 18.6-16.2 19.08h-2.04ZM817.717 297c-21.6 0-27.24 15.48-27.24 37.08v6.6c0 23.88 11.64 39.12 35.4 39.12 16.2 0 25.44-8.16 30.6-16.56V378h11.4v-79.32h-11.4V342c0 5.4-7.68 27.72-29.88 27.72-17.4 0-24.72-10.68-24.72-28.2v-8.28c0-13.68 2.16-26.16 15.84-26.16 10.32 0 15.24 5.52 15.24 15.84 0 12.6-6.12 14.4-10.92 14.4-3.12 0-5.28-.96-5.28-.96v9.6s1.8 1.08 6.24 1.08c14.64 0 21.36-10.32 21.36-24.12 0-16.68-9.96-25.92-26.64-25.92Zm111.682 19.2h-16.8v-17.52h-10.56v17.52h-16.8v9.36h16.8v17.52h10.56v-17.52h16.8v-9.36Zm64.954.72c-16.92 0-28.56 9.72-28.56 28.2v22.68h-23.76V378h35.16v-32.88c0-11.76 5.76-18.12 17.16-18.12 11.877 0 17.157 6.36 17.157 18.12V378h11.4v-32.88c0-18.48-11.64-28.2-28.557-28.2Zm48.977-18.24V378h10.68l62.16-33.24v-12.84l-62.16-33.24h-10.68Zm11.4 13.2 50.88 26.4-50.88 26.28v-52.68Zm96.46-14.88c-13.44 0-22.44 6.36-22.44 22.08v3.48c0 15.6 9 21.96 22.44 21.96 13.44 0 22.44-6.36 22.44-21.96v-3.48c0-15.72-9-22.08-22.44-22.08Zm11.88 25.56c0 9.48-4.8 12.72-11.88 12.72-7.08 0-11.88-3.24-11.88-12.72v-3.48c0-9.48 4.8-12.84 11.88-12.84 7.08 0 11.88 3.36 11.88 12.84v3.48Zm51.62-3.24v3c0 9.24-5.16 11.28-10.68 11.28h-15.96v9.48h16.2c12.24 0 21-5.16 21-20.76v-3c0-15.48-8.76-20.64-21-20.64h-16.2v9.48h15.96c5.52 0 10.68 2.16 10.68 11.16Zm165.22 31.32v-51.96h-11.4v26.76c-4.32-5.16-10.8-8.52-20.16-8.52-18 0-27.72 12.6-27.72 30.24v2.4c0 17.64 10.56 30.24 29.28 30.24 19.68 0 30-11.52 30-29.16Zm-30 19.08c-12.72 0-17.88-9-17.88-19.8v-3.12c0-10.8 5.16-19.8 17.88-19.8 13.68 0 18.6 9 18.6 19.8v4.44c0 10.68-5.16 18.48-18.6 18.48Zm71.64-72.72c-13.44 0-22.44 6.36-22.44 22.08v3.48c0 15.6 9 21.96 22.44 21.96 13.44 0 22.44-6.36 22.44-21.96v-3.48c0-15.72-9-22.08-22.44-22.08Zm11.88 25.56c0 9.48-4.8 12.72-11.88 12.72-7.08 0-11.88-3.24-11.88-12.72v-3.48c0-9.48 4.8-12.84 11.88-12.84 7.08 0 11.88 3.36 11.88 12.84v3.48Zm38.17 13.2c0-15.48 7.2-26.88 24.48-26.88h28.56v-10.2h-28.56c-23.28 0-35.88 14.52-35.88 37.56v4.2c0 23.04 12.6 37.56 35.88 37.56h28.56v-10.2h-28.56c-17.28 0-24.48-11.4-24.48-26.88v-5.16ZM1588.36 378c18.84 0 30.24-11.04 30.24-29.88v-1.32c0-18.72-11.52-29.88-30.24-29.88s-30.24 10.92-30.24 29.64v1.56c0 10.56 3.72 16.44 7.68 19.68h-29.28V378h51.84Zm-18.84-29.28v-2.52c0-12.36 6.48-19.2 18.84-19.2s18.84 6.84 18.84 19.2v2.52c0 12.36-7.08 19.08-19.44 19.08h-2.04c-12.12-.48-16.2-9-16.2-19.08Zm87.81-51.72c-13.44 0-22.44 6.36-22.44 22.08v3.48c0 15.6 9 21.96 22.44 21.96 13.44 0 22.44-6.36 22.44-21.96v-3.48c0-15.72-9-22.08-22.44-22.08Zm11.88 25.56c0 9.48-4.8 12.72-11.88 12.72-7.08 0-11.88-3.24-11.88-12.72v-3.48c0-9.48 4.8-12.84 11.88-12.84 7.08 0 11.88 3.36 11.88 12.84v3.48Zm38.17 13.2c0-12 3.72-22.68 16.8-27-2.88 3-4.8 7.92-4.8 14.16 0 13.44 8.52 20.52 22.92 20.52 14.28 0 24.36-7.8 24.36-22.8 0-14.52-7.2-23.64-26.52-23.64-31.8 0-44.16 16.2-44.16 39.24v2.4c0 29.88 17.28 39.36 43.68 39.36h24.24v-10.2h-23.04c-21.24 0-33.48-6.96-33.48-29.28v-2.76Zm47.88-15.12c0 8.04-4.08 12.96-12.96 12.96s-12.36-4.8-12.36-12.84c0-7.68 3.72-14.04 12.48-14.04 9.6 0 12.84 5.88 12.84 13.92ZM141 715h76.08v-10.08l-30.84-69.24H173.4L141 704.92V715Zm12.6-10.56 25.92-57.6 24.36 57.6H153.6Zm115.234 12.36c18.48 0 30.24-11.64 30.24-31.08v-50.04h-11.4v50.64c0 12.6-6.36 20.4-18.84 20.4s-18.84-7.8-18.84-20.4v-50.64h-33v10.2h21.6v39.84c0 19.44 11.76 31.08 30.24 31.08Zm80.412-62.52v25.8h10.56v-26.64c0-11.52-5.16-19.44-20.76-19.44-15.6 0-20.76 7.92-20.76 19.44v26.64h10.56v-25.8c0-6.72 2.52-11.04 10.2-11.04s10.2 4.32 10.2 11.04Zm77.378 18.48v5.16c0 15.48-7.2 26.88-24.48 26.88h-28.56V715h28.56c23.28 0 35.88-14.52 35.88-37.56v-4.2c0-23.04-12.6-37.56-35.88-37.56h-28.56v10.2h28.56c17.28 0 24.48 11.4 24.48 26.88ZM476.663 634c-13.44 0-22.44 6.36-22.44 22.08v3.48c0 15.6 9 21.96 22.44 21.96 13.44 0 22.44-6.36 22.44-21.96v-3.48c0-15.72-9-22.08-22.44-22.08Zm11.88 25.56c0 9.48-4.8 12.72-11.88 12.72-7.08 0-11.88-3.24-11.88-12.72v-3.48c0-9.48 4.8-12.84 11.88-12.84 7.08 0 11.88 3.36 11.88 12.84v3.48Zm75.017 57.12c18.48 0 30.24-11.64 30.24-31.08v-49.92h-82.08v10.2h21.6v39.72c0 19.44 11.76 31.08 30.24 31.08Zm-18.84-30.48v-40.32h37.68v40.32c0 12.6-6.36 20.4-18.84 20.4s-18.84-7.8-18.84-20.4ZM648.053 634c-18.48 0-30.24 11.64-30.24 31.08V715h82.08v-10.2h-21.6v-39.72c0-19.44-11.76-31.08-30.24-31.08Zm-18.84 30.48c0-12.6 6.36-20.4 18.84-20.4s18.84 7.8 18.84 20.4v40.32h-37.68v-40.32ZM820.763 634c-21.6 0-27.24 15.48-27.24 37.08v6.6c0 23.88 11.64 39.12 35.4 39.12 16.2 0 25.44-8.16 30.6-16.56V715h11.4v-79.32h-11.4V679c0 5.4-7.68 27.72-29.88 27.72-17.4 0-24.72-10.68-24.72-28.2v-8.28c0-13.68 2.16-26.16 15.84-26.16 10.32 0 15.24 5.52 15.24 15.84 0 12.6-6.12 14.4-10.92 14.4-3.12 0-5.28-.96-5.28-.96v9.6s1.8 1.08 6.24 1.08c14.64 0 21.36-10.32 21.36-24.12 0-16.68-9.96-25.92-26.64-25.92Zm111.683 19.2h-16.8v-17.52h-10.56v17.52h-16.8v9.36h16.8v17.52h10.56v-17.52h16.8v-9.36Zm64.474-19.32c-18.48 0-30.24 11.64-30.24 31.08v39.84h-21.6V715h33v-50.64c0-12.6 6.36-20.4 18.84-20.4s18.84 7.8 18.84 20.4V715h11.4v-50.04c0-19.44-11.76-31.08-30.24-31.08Zm54.85 1.8V715h10.68l62.16-33.24v-12.84l-62.16-33.24h-10.68Zm11.4 13.2 50.88 26.4-50.88 26.28v-52.68Zm96.46-14.88c-13.44 0-22.44 6.36-22.44 22.08v3.48c0 15.6 9 21.96 22.44 21.96 13.44 0 22.44-6.36 22.44-21.96v-3.48c0-15.72-9-22.08-22.44-22.08Zm11.88 25.56c0 9.48-4.8 12.72-11.88 12.72-7.08 0-11.88-3.24-11.88-12.72v-3.48c0-9.48 4.8-12.84 11.88-12.84 7.08 0 11.88 3.36 11.88 12.84v3.48Zm51.62-3.24v3c0 9.24-5.16 11.28-10.68 11.28h-15.96v9.48h16.2c12.24 0 21-5.16 21-20.76v-3c0-15.48-8.76-20.64-21-20.64h-16.2v9.48h15.96c5.52 0 10.68 2.16 10.68 11.16Zm178.18-20.64h-11.4v19.44h-31.8c-20.28 0-29.04 11.64-29.04 27.48v4.92c0 15.84 8.76 27.48 29.04 27.48h43.2v-79.32Zm-43.2 69.12c-14.28 0-17.64-7.8-17.64-16.68V682c0-8.88 3.36-16.68 17.64-16.68h31.8v39.48h-31.8Zm86.05-70.8c-13.44 0-22.44 6.36-22.44 22.08v3.48c0 15.6 9 21.96 22.44 21.96 13.44 0 22.44-6.36 22.44-21.96v-3.48c0-15.72-9-22.08-22.44-22.08Zm11.88 25.56c0 9.48-4.8 12.72-11.88 12.72-7.08 0-11.88-3.24-11.88-12.72v-3.48c0-9.48 4.8-12.84 11.88-12.84 7.08 0 11.88 3.36 11.88 12.84v3.48Zm38.18 13.2c0-15.48 7.2-26.88 24.48-26.88h28.56v-10.2h-28.56c-23.28 0-35.88 14.52-35.88 37.56v4.2c0 23.04 12.6 37.56 35.88 37.56h28.56v-10.2h-28.56c-17.28 0-24.48-11.4-24.48-26.88v-5.16ZM1611.1 634c-18.48 0-30.24 11.64-30.24 31.08v39.72h-21.6V715h82.08v-49.92c0-19.44-11.76-31.08-30.24-31.08Zm-18.84 30.48c0-12.6 6.36-20.4 18.84-20.4s18.84 7.8 18.84 20.4v40.32h-37.68v-40.32Zm90.73-30.48c-13.44 0-22.44 6.36-22.44 22.08v3.48c0 15.6 9 21.96 22.44 21.96 13.44 0 22.44-6.36 22.44-21.96v-3.48c0-15.72-9-22.08-22.44-22.08Zm11.88 25.56c0 9.48-4.8 12.72-11.88 12.72-7.08 0-11.88-3.24-11.88-12.72v-3.48c0-9.48 4.8-12.84 11.88-12.84 7.08 0 11.88 3.36 11.88 12.84v3.48Zm38.18 13.2c0-12 3.72-22.68 16.8-27-2.88 3-4.8 7.92-4.8 14.16 0 13.44 8.52 20.52 22.92 20.52 14.28 0 24.36-7.8 24.36-22.8 0-14.52-7.2-23.64-26.52-23.64-31.8 0-44.16 16.2-44.16 39.24v2.4c0 29.88 17.28 39.36 43.68 39.36h24.24v-10.2h-23.04c-21.24 0-33.48-6.96-33.48-29.28v-2.76Zm47.88-15.12c0 8.04-4.08 12.96-12.96 12.96s-12.36-4.8-12.36-12.84c0-7.68 3.72-14.04 12.48-14.04 9.6 0 12.84 5.88 12.84 13.92Z"/><path fill="#1A73E8" d="M143.36 463.5h10.36c7.4 0 12.68-4.04 12.68-13.12v-3.68c0-9.08-5.28-13.4-12.68-13.4h-10.36v30.2Zm10.36-25.24c4.32 0 6.96 2.76 6.96 8.16v4.24c0 5.88-2.6 7.84-6.96 7.84h-4.68v-20.24h4.68Zm26.476 2.92c-5.8 0-9.8 3.72-9.8 10.16v2.64c0 6.56 3.84 10.12 10.56 10.12 3.6 0 6-.52 8.64-2v-4.28c-2.96 1.56-5.12 1.76-7.76 1.76-3.48 0-5.64-1.48-5.88-4.96h14.12v-3.52c0-6.64-4.08-9.92-9.88-9.92Zm0 4.36c2.88 0 4.28 1.64 4.32 5.32h-8.56c.08-3.52 1.56-5.32 4.24-5.32Zm14.518 17.96h5.48v-11.88c0-4 1.92-5.52 4.68-5.52 2.6 0 4.24 1.64 4.24 5.36v12.04h5.48v-13.56c0-5.6-2.56-8.76-7.64-8.76-3.2 0-5.32 1.36-6.76 3.44v-2.88h-5.48v21.76Zm34.154-22.32c-5.801 0-9.8 3.72-9.8 10.16v2.64c0 6.56 3.84 10.12 10.56 10.12 3.6 0 6-.52 8.64-2v-4.28c-2.96 1.56-5.12 1.76-7.76 1.76-3.48 0-5.64-1.48-5.88-4.96h14.12v-3.52c0-6.64-4.08-9.92-9.88-9.92Zm0 4.36c2.88 0 4.28 1.64 4.32 5.32h-8.56c.08-3.52 1.56-5.32 4.24-5.32ZM252.4 461.7c2.92 1.6 6 2.24 9.36 2.24 6.36 0 11.72-2.8 11.72-9.32 0-5.04-2.96-7.92-8.36-8.6l-2.8-.36c-3.36-.44-4.6-1.32-4.6-3.96 0-2.8 1.96-4.08 5.68-4.08 3.04 0 6.16 1.04 8.72 2.8v-5.44c-2.2-1.52-5.72-2.16-9-2.16-5.96 0-11.08 2.84-11.08 9.12 0 4.92 2.64 7.84 7.64 8.52l3 .4c3.68.44 5.08 1.32 5.08 4.08s-2.04 4.24-5.6 4.24c-3.48 0-6.84-1.08-9.76-2.92v5.44Zm34.323 10.68 2.92-8.88 8-21.76h-5.64l-5.4 16.12-5.48-16.12h-5.8l8.68 22.76-2.84 7.88h5.56Zm14.004-14.68c0 4.44 2.04 6.4 6.24 6.4 1.12 0 2.44-.2 3.28-.48v-4.44c-.44.2-1.16.32-1.96.32-1.68 0-2.08-.84-2.08-3.28V433.3h-5.48v24.4Zm12.773 0c0 4.44 2.04 6.4 6.24 6.4 1.12 0 2.44-.2 3.28-.48v-4.44c-.44.2-1.16.32-1.96.32-1.68 0-2.08-.84-2.08-3.28V433.3h-5.48v24.4Zm30.574 5.8v-13.64c0-4.68-1.64-8.68-9.4-8.68-3.6 0-6.24.84-8.32 2.32v4.96c2.44-1.8 4.84-2.4 7.4-2.4 4.56 0 4.84 2.16 4.84 4.8h-4.4c-4.12 0-9.04 1.04-9.04 6.84 0 3.96 2.56 6.4 7.16 6.4 3 0 5-.96 6.28-3v2.4h5.48Zm-5.48-8.32c0 3.84-2.36 4.88-4.84 4.88-2.2 0-3.28-.88-3.28-2.68 0-2.52 1.84-2.84 4.4-2.84h3.72v.64Zm10.925 8.32h5.48v-2.72c1.32 1.96 3.32 3.32 6.24 3.32 5.72 0 8.84-3.36 8.84-9.96v-3c0-6.16-3.04-9.96-8.84-9.96-2.88 0-4.92 1.2-6.24 3.04V433.3h-5.48v30.2Zm5.48-9.16v-4c.24-3 2.32-4.8 4.76-4.8 2.88 0 4.64 1.84 4.64 5.4v3.4c0 3.56-1.72 5.44-4.56 5.44s-4.84-2.4-4.84-5.44Zm19.674-16.36h5.64v-5.44h-5.64v5.44Zm.08 25.52h5.48v-21.76h-5.48v21.76Zm20.854-22.32c-7.08 0-10.68 4-10.68 10.16v2.64c0 6.4 3.68 10.12 10.4 10.12 2.84 0 5.12-.64 6.76-1.72v-4.52c-2.24 1.32-4.24 1.76-6.24 1.76-3.24 0-5.28-1.88-5.28-5.44v-3c0-3.76 2-5.52 5.32-5.52 1.92 0 4.08.44 6.32 1.8v-4.8c-2.12-1.12-4.52-1.48-6.6-1.48Zm10.498 21.16c2.08 1.08 5.52 1.68 8.04 1.68 4.56 0 9.72-1.88 9.72-7.24 0-4.36-2.72-6.04-6.76-6.4l-2.68-.24c-2.08-.2-3.56-.56-3.56-2.2 0-1.56 1.48-2.4 4.16-2.4 2.48 0 5.44.8 7.76 2.16v-4.84c-1.84-1.08-4.96-1.68-7.96-1.68-4.48 0-9.08 2.04-9.08 6.92 0 4.68 3.24 6.12 6.64 6.44l2.8.32c2.2.2 3.48.72 3.48 2.4 0 1.72-1.8 2.48-4.36 2.48-3.04 0-5.8-.8-8.2-2v4.6Zm31.498-24.36h5.64v-5.44h-5.64v5.44Zm.08 25.52h5.48v-21.76h-5.48v21.76Zm11.094 0h5.48v-11.88c0-4 1.92-5.52 4.68-5.52 2.6 0 4.24 1.64 4.24 5.36v12.04h5.48v-13.56c0-5.6-2.56-8.76-7.64-8.76-3.2 0-5.32 1.36-6.76 3.44v-2.88h-5.48v21.76Zm56.967-20.84c0-5.12-3.28-9.36-10.16-9.36h-11.56v30.2h5.68v-11.04h5.72l4.88 11.04h6.4l-5.84-12.16c3.24-1.64 4.88-4.88 4.88-8.68Zm-11.76-4.6c4.04 0 6 1.24 6 4.84 0 3-1.44 4.88-5.56 4.88h-4.72v-9.72h4.28Zm15.552 15.92c0 6.8 4.48 10.12 10.28 10.12 5.8 0 10.36-3.32 10.36-10.12v-2.64c0-6.84-4.56-10.16-10.36-10.16s-10.28 3.32-10.28 10.16v2.64Zm5.6-2.68c0-3.92 1.76-5.76 4.68-5.76s4.72 1.84 4.72 5.76v2.68c0 3.92-1.8 5.8-4.72 5.8s-4.68-1.88-4.68-5.8v-2.68Zm19.535-9.56v13.6c0 5.6 2.68 8.72 7.76 8.72 3.12 0 5.16-1.24 6.48-3.28v2.72h5.48v-21.76h-5.48v11.84c0 3.64-1.72 5.56-4.56 5.56-2.6 0-4.2-1.4-4.2-5.12v-12.28h-5.48Zm25.356 21.76h5.48v-11.88c0-4 1.92-5.52 4.68-5.52 2.6 0 4.24 1.64 4.24 5.36v12.04h5.48v-13.56c0-5.6-2.56-8.76-7.64-8.76-3.2 0-5.32 1.36-6.76 3.44v-2.88h-5.48v21.76Zm33.193.6c2.96 0 4.92-1.32 6.24-3.32v2.72h5.48v-30.2h-5.48v10.92c-1.32-1.84-3.36-3.04-6.24-3.04-5.8 0-8.8 3.8-8.8 9.96v3c0 6.6 3.08 9.96 8.8 9.96Zm-3.16-9.76v-3.4c0-3.56 1.8-5.4 4.64-5.4 2.4 0 4.44 1.72 4.76 4.6v4.2c0 3.04-1.96 5.44-4.84 5.44-2.84 0-4.56-1.88-4.56-5.44Zm48.568-8h-12.44v-8.24h13.76v-4.8h-19.44v30.2h5.68v-12.4h12.44v-4.76Zm4.111 7.64c0 6.8 4.48 10.12 10.28 10.12 5.8 0 10.36-3.32 10.36-10.12v-2.64c0-6.84-4.56-10.16-10.36-10.16s-10.28 3.32-10.28 10.16v2.64Zm5.6-2.68c0-3.92 1.76-5.76 4.68-5.76s4.72 1.84 4.72 5.76v2.68c0 3.92-1.8 5.8-4.72 5.8s-4.68-1.88-4.68-5.8v-2.68Zm19.695 12.2h5.48v-10c.04-4.16 2.24-6.96 5.6-6.96.4 0 .76.04 1.12.12v-5.48c-3.08 0-5.32 1.68-6.72 4.04v-3.48h-5.48v21.76Zm15.86 0h5.48v-11.92c0-3.64 1.64-5.48 4.44-5.48 2.6 0 4.08 1.64 4.08 5.36v12.04h5.48v-11.92c0-3.68 1.72-5.48 4.44-5.48 2.6 0 4.04 1.64 4.04 5.36v12.04h5.48v-13.56c0-5.6-2.36-8.76-7.44-8.76-3.6 0-5.88 1.36-7.4 3.88-1.08-2.52-3.24-3.88-6.6-3.88-3.12 0-5.16 1.28-6.52 3.32v-2.76h-5.48v21.76Zm47.641-1.16c2.08 1.08 5.52 1.68 8.04 1.68 4.56 0 9.72-1.88 9.72-7.24 0-4.36-2.72-6.04-6.76-6.4l-2.68-.24c-2.08-.2-3.56-.56-3.56-2.2 0-1.56 1.48-2.4 4.16-2.4 2.48 0 5.44.8 7.76 2.16v-4.84c-1.84-1.08-4.96-1.68-7.96-1.68-4.48 0-9.08 2.04-9.08 6.92 0 4.68 3.24 6.12 6.64 6.44l2.8.32c2.2.2 3.48.72 3.48 2.4 0 1.72-1.8 2.48-4.36 2.48-3.04 0-5.8-.8-8.2-2v4.6Zm23.605-5.64c0 4.72 2.52 7.4 7.32 7.4 1.24 0 2.8-.2 3.72-.44v-4.48c-.72.2-1.72.28-2.52.28-2.12 0-3.04-.84-3.04-3.56v-9.88h5.24v-4.28h-5.24v-6.24h-5.48v6.24h-3.48v4.28h3.48v10.68Zm24.122 15.68 2.92-8.88 8-21.76h-5.64l-5.4 16.12-5.48-16.12h-5.8l8.68 22.76-2.84 7.88h5.56Zm14.004-14.68c0 4.44 2.04 6.4 6.24 6.4 1.12 0 2.44-.2 3.28-.48v-4.44c-.44.2-1.16.32-1.96.32-1.68 0-2.08-.84-2.08-3.28V433.3h-5.48v24.4Zm21.773-16.52c-5.8 0-9.8 3.72-9.8 10.16v2.64c0 6.56 3.84 10.12 10.56 10.12 3.6 0 6-.52 8.64-2v-4.28c-2.96 1.56-5.12 1.76-7.76 1.76-3.48 0-5.64-1.48-5.88-4.96h14.12v-3.52c0-6.64-4.08-9.92-9.88-9.92Zm0 4.36c2.88 0 4.28 1.64 4.32 5.32h-8.56c.08-3.52 1.56-5.32 4.24-5.32ZM143.36 800.5h10.36c7.4 0 12.68-4.04 12.68-13.12v-3.68c0-9.08-5.28-13.4-12.68-13.4h-10.36v30.2Zm10.36-25.24c4.32 0 6.96 2.76 6.96 8.16v4.24c0 5.88-2.6 7.84-6.96 7.84h-4.68v-20.24h4.68Zm26.476 2.92c-5.8 0-9.8 3.72-9.8 10.16v2.64c0 6.56 3.84 10.12 10.56 10.12 3.6 0 6-.52 8.64-2v-4.28c-2.96 1.56-5.12 1.76-7.76 1.76-3.48 0-5.64-1.48-5.88-4.96h14.12v-3.52c0-6.64-4.08-9.92-9.88-9.92Zm0 4.36c2.88 0 4.28 1.64 4.32 5.32h-8.56c.08-3.52 1.56-5.32 4.24-5.32Zm14.518 17.96h5.48v-11.88c0-4 1.92-5.52 4.68-5.52 2.6 0 4.24 1.64 4.24 5.36v12.04h5.48v-13.56c0-5.6-2.56-8.76-7.64-8.76-3.2 0-5.32 1.36-6.76 3.44v-2.88h-5.48v21.76Zm34.154-22.32c-5.801 0-9.8 3.72-9.8 10.16v2.64c0 6.56 3.84 10.12 10.56 10.12 3.6 0 6-.52 8.64-2v-4.28c-2.96 1.56-5.12 1.76-7.76 1.76-3.48 0-5.64-1.48-5.88-4.96h14.12v-3.52c0-6.64-4.08-9.92-9.88-9.92Zm0 4.36c2.88 0 4.28 1.64 4.32 5.32h-8.56c.08-3.52 1.56-5.32 4.24-5.32ZM252.4 798.7c2.92 1.6 6 2.24 9.36 2.24 6.36 0 11.72-2.8 11.72-9.32 0-5.04-2.96-7.92-8.36-8.6l-2.8-.36c-3.36-.44-4.6-1.32-4.6-3.96 0-2.8 1.96-4.08 5.68-4.08 3.04 0 6.16 1.04 8.72 2.8v-5.44c-2.2-1.52-5.72-2.16-9-2.16-5.96 0-11.08 2.84-11.08 9.12 0 4.92 2.64 7.84 7.64 8.52l3 .4c3.68.44 5.08 1.32 5.08 4.08s-2.04 4.24-5.6 4.24c-3.48 0-6.84-1.08-9.76-2.92v5.44Zm34.323 10.68 2.92-8.88 8-21.76h-5.64l-5.4 16.12-5.48-16.12h-5.8l8.68 22.76-2.84 7.88h5.56Zm14.004-14.68c0 4.44 2.04 6.4 6.24 6.4 1.12 0 2.44-.2 3.28-.48v-4.44c-.44.2-1.16.32-1.96.32-1.68 0-2.08-.84-2.08-3.28V770.3h-5.48v24.4Zm12.773 0c0 4.44 2.04 6.4 6.24 6.4 1.12 0 2.44-.2 3.28-.48v-4.44c-.44.2-1.16.32-1.96.32-1.68 0-2.08-.84-2.08-3.28V770.3h-5.48v24.4Zm30.574 5.8v-13.64c0-4.68-1.64-8.68-9.4-8.68-3.6 0-6.24.84-8.32 2.32v4.96c2.44-1.8 4.84-2.4 7.4-2.4 4.56 0 4.84 2.16 4.84 4.8h-4.4c-4.12 0-9.04 1.04-9.04 6.84 0 3.96 2.56 6.4 7.16 6.4 3 0 5-.96 6.28-3v2.4h5.48Zm-5.48-8.32c0 3.84-2.36 4.88-4.84 4.88-2.2 0-3.28-.88-3.28-2.68 0-2.52 1.84-2.84 4.4-2.84h3.72v.64Zm10.925 8.32h5.48v-2.72c1.32 1.96 3.32 3.32 6.24 3.32 5.72 0 8.84-3.36 8.84-9.96v-3c0-6.16-3.04-9.96-8.84-9.96-2.88 0-4.92 1.2-6.24 3.04V770.3h-5.48v30.2Zm5.48-9.16v-4c.24-3 2.32-4.8 4.76-4.8 2.88 0 4.64 1.84 4.64 5.4v3.4c0 3.56-1.72 5.44-4.56 5.44s-4.84-2.4-4.84-5.44Zm19.674-16.36h5.64v-5.44h-5.64v5.44Zm.08 25.52h5.48v-21.76h-5.48v21.76Zm20.854-22.32c-7.08 0-10.68 4-10.68 10.16v2.64c0 6.4 3.68 10.12 10.4 10.12 2.84 0 5.12-.64 6.76-1.72v-4.52c-2.24 1.32-4.24 1.76-6.24 1.76-3.24 0-5.28-1.88-5.28-5.44v-3c0-3.76 2-5.52 5.32-5.52 1.92 0 4.08.44 6.32 1.8v-4.8c-2.12-1.12-4.52-1.48-6.6-1.48Zm10.498 21.16c2.08 1.08 5.52 1.68 8.04 1.68 4.56 0 9.72-1.88 9.72-7.24 0-4.36-2.72-6.04-6.76-6.4l-2.68-.24c-2.08-.2-3.56-.56-3.56-2.2 0-1.56 1.48-2.4 4.16-2.4 2.48 0 5.44.8 7.76 2.16v-4.84c-1.84-1.08-4.96-1.68-7.96-1.68-4.48 0-9.08 2.04-9.08 6.92 0 4.68 3.24 6.12 6.64 6.44l2.8.32c2.2.2 3.48.72 3.48 2.4 0 1.72-1.8 2.48-4.36 2.48-3.04 0-5.8-.8-8.2-2v4.6Zm31.498-24.36h5.64v-5.44h-5.64v5.44Zm.08 25.52h5.48v-21.76h-5.48v21.76Zm11.094 0h5.48v-11.88c0-4 1.92-5.52 4.68-5.52 2.6 0 4.24 1.64 4.24 5.36v12.04h5.48v-13.56c0-5.6-2.56-8.76-7.64-8.76-3.2 0-5.32 1.36-6.76 3.44v-2.88h-5.48v21.76Zm34.287-1.8c2.92 1.6 6 2.24 9.36 2.24 6.36 0 11.72-2.8 11.72-9.32 0-5.04-2.96-7.92-8.36-8.6l-2.8-.36c-3.36-.44-4.6-1.32-4.6-3.96 0-2.8 1.96-4.08 5.68-4.08 3.04 0 6.16 1.04 8.72 2.8v-5.44c-2.2-1.52-5.72-2.16-9-2.16-5.96 0-11.08 2.84-11.08 9.12 0 4.92 2.64 7.84 7.64 8.52l3 .4c3.68.44 5.08 1.32 5.08 4.08s-2.04 4.24-5.6 4.24c-3.48 0-6.84-1.08-9.76-2.92v5.44Zm33.476 2.4c2.96 0 4.92-1.32 6.24-3.32v11.64h5.48v-30.68h-5.48v2.48c-1.32-1.84-3.36-3.04-6.24-3.04-5.8 0-8.8 3.8-8.8 9.96v3c0 6.6 3.08 9.96 8.8 9.96Zm-3.16-9.76v-3.4c0-3.56 1.8-5.4 4.64-5.4 2.4 0 4.44 1.72 4.76 4.6v4.2c0 3.04-1.96 5.44-4.84 5.44-2.84 0-4.56-1.88-4.56-5.44Zm20.315-12.6v13.6c0 5.6 2.68 8.72 7.76 8.72 3.12 0 5.16-1.24 6.48-3.28v2.72h5.48v-21.76h-5.48v11.84c0 3.64-1.72 5.56-4.56 5.56-2.6 0-4.2-1.4-4.2-5.12v-12.28h-5.48Zm43.035 21.76v-13.64c0-4.68-1.64-8.68-9.4-8.68-3.6 0-6.24.84-8.32 2.32v4.96c2.44-1.8 4.84-2.4 7.4-2.4 4.56 0 4.84 2.16 4.84 4.8h-4.4c-4.12 0-9.04 1.04-9.04 6.84 0 3.96 2.56 6.4 7.16 6.4 3 0 5-.96 6.28-3v2.4h5.48Zm-5.48-8.32c0 3.84-2.36 4.88-4.84 4.88-2.2 0-3.28-.88-3.28-2.68 0-2.52 1.84-2.84 4.4-2.84h3.72v.64Zm10.925 8.32h5.48v-10c.04-4.16 2.24-6.96 5.6-6.96.4 0 .76.04 1.12.12v-5.48c-3.08 0-5.32 1.68-6.72 4.04v-3.48h-5.48v21.76Zm24.232-22.32c-5.8 0-9.8 3.72-9.8 10.16v2.64c0 6.56 3.84 10.12 10.56 10.12 3.6 0 6-.52 8.64-2v-4.28c-2.96 1.56-5.12 1.76-7.76 1.76-3.48 0-5.64-1.48-5.88-4.96h14.12v-3.52c0-6.64-4.08-9.92-9.88-9.92Zm0 4.36c2.88 0 4.28 1.64 4.32 5.32h-8.56c.08-3.52 1.56-5.32 4.24-5.32Zm42.612.8h-12.44v-8.24h13.76v-4.8h-19.44v30.2h5.68v-12.4h12.44v-4.76Zm4.111 7.64c0 6.8 4.48 10.12 10.28 10.12 5.8 0 10.36-3.32 10.36-10.12v-2.64c0-6.84-4.56-10.16-10.36-10.16s-10.28 3.32-10.28 10.16v2.64Zm5.6-2.68c0-3.92 1.76-5.76 4.68-5.76s4.72 1.84 4.72 5.76v2.68c0 3.92-1.8 5.8-4.72 5.8s-4.68-1.88-4.68-5.8v-2.68Zm19.695 12.2h5.48v-10c.04-4.16 2.24-6.96 5.6-6.96.4 0 .76.04 1.12.12v-5.48c-3.08 0-5.32 1.68-6.72 4.04v-3.48h-5.48v21.76Zm15.859 0h5.48v-11.92c0-3.64 1.64-5.48 4.44-5.48 2.6 0 4.08 1.64 4.08 5.36v12.04h5.48v-11.92c0-3.68 1.72-5.48 4.44-5.48 2.6 0 4.04 1.64 4.04 5.36v12.04h5.48v-13.56c0-5.6-2.36-8.76-7.44-8.76-3.6 0-5.88 1.36-7.4 3.88-1.08-2.52-3.24-3.88-6.6-3.88-3.12 0-5.16 1.28-6.52 3.32v-2.76h-5.48v21.76Zm47.642-1.16c2.08 1.08 5.52 1.68 8.04 1.68 4.56 0 9.72-1.88 9.72-7.24 0-4.36-2.72-6.04-6.76-6.4l-2.68-.24c-2.08-.2-3.56-.56-3.56-2.2 0-1.56 1.48-2.4 4.16-2.4 2.48 0 5.44.8 7.76 2.16v-4.84c-1.84-1.08-4.96-1.68-7.96-1.68-4.48 0-9.08 2.04-9.08 6.92 0 4.68 3.24 6.12 6.64 6.44l2.8.32c2.2.2 3.48.72 3.48 2.4 0 1.72-1.8 2.48-4.36 2.48-3.04 0-5.8-.8-8.2-2v4.6Zm23.605-5.64c0 4.72 2.52 7.4 7.32 7.4 1.24 0 2.8-.2 3.72-.44v-4.48c-.72.2-1.72.28-2.52.28-2.12 0-3.04-.84-3.04-3.56v-9.88h5.24v-4.28h-5.24v-6.24h-5.48v6.24h-3.48v4.28h3.48v10.68Zm24.122 15.68 2.92-8.88 8-21.76h-5.64l-5.4 16.12-5.48-16.12h-5.8l8.68 22.76-2.84 7.88h5.56Zm14.004-14.68c0 4.44 2.04 6.4 6.24 6.4 1.12 0 2.44-.2 3.28-.48v-4.44c-.44.2-1.16.32-1.96.32-1.68 0-2.08-.84-2.08-3.28V770.3h-5.48v24.4Zm21.773-16.52c-5.8 0-9.8 3.72-9.8 10.16v2.64c0 6.56 3.84 10.12 10.56 10.12 3.6 0 6-.52 8.64-2v-4.28c-2.96 1.56-5.12 1.76-7.76 1.76-3.48 0-5.64-1.48-5.88-4.96h14.12v-3.52c0-6.64-4.08-9.92-9.88-9.92Zm0 4.36c2.88 0 4.28 1.64 4.32 5.32h-8.56c.08-3.52 1.56-5.32 4.24-5.32Z"/></g><defs><clipPath id="a"><path fill="#fff" d="M0 0h1920v1080H0z"/></clipPath></defs></svg>