<svg width="1920" height="1080" fill="none" xmlns="http://www.w3.org/2000/svg"><path stroke="#1A73E8" stroke-width="5" d="M53.5 220.5h229v640h-229zM317.5 220.5h229v640h-229zM581.5 220.5h229v640h-229zM845.5 220.5h229v640h-229zM1109.5 220.5h229v640h-229zM1373.5 220.5h229v640h-229zM1637.5 220.5h229v640h-229z"/><path d="M115.342 468h-1.25l-1-.5-.5-1V293h29.25c.666 0 1.166.167 1.5.5.333.167.583.417.75.75.333.333.5.833.5 1.5v145h58.75c4 0 7.333.5 10 1.5 2.666 1 4.916 2.667 6.75 5 1.833 2.167 3.25 5 4.25 8.5 1.166 3.333 2.083 7.417 2.75 12.25h-111.75Zm83.5-54.25h25.5c.666 0 1.166.167 1.5.5.333.167.583.417.75.75.333.333.5.833.5 1.5V468c-7.167-.667-12.834-2-17-4-4.167-2-7.084-4.667-8.75-8-1.667-3.333-2.5-7.25-2.5-11.75v-30.5ZM364.744 293h124c.667 0 1.167.167 1.5.5.333.167.583.417.75.75.333.333.5.833.5 1.5v24.5h-124c-.5 0-1-.083-1.5-.25l-1-1c-.167-.5-.25-1-.25-1.5V293Zm32.5 73.75h77.25c.667 0 1.167.167 1.5.5.333.167.583.417.75.75.333.333.5.833.5 1.5v23.75h-80v-26.5ZM380.744 468h-1.5l-1-.5-.5-1v-158h33.75l-1.75 5.25v127h78.75c1 0 1.75.25 2.25.75s.75 1.167.75 2V468h-110.75Zm253.652-175h120.75c.834 0 1.5.25 2 .75s.75 1.167.75 2v24.5h-120.75c-.5 0-1-.083-1.5-.25l-1-1c-.166-.5-.25-1-.25-1.5V293Zm77.75 175h-29.25c-.833 0-1.5-.25-2-.75s-.75-1.167-.75-2V308h34.5l-2.5 6.25V468Zm186.153-175h120.751c.83 0 1.5.25 2 .75s.75 1.167.75 2v24.5H901.049c-.5 0-1-.083-1.5-.25l-1-1c-.167-.5-.25-1-.25-1.5V293Zm77.75 175h-29.25c-.834 0-1.5-.25-2-.75s-.75-1.167-.75-2V308h34.5l-2.5 6.25V468Zm180.401-175h124c.67 0 1.17.167 1.5.5.33.167.58.417.75.75.33.333.5.833.5 1.5v24.5h-124c-.5 0-1-.083-1.5-.25-.33-.333-.67-.667-1-1-.17-.5-.25-1-.25-1.5V293Zm32.5 73.75h77.25c.67 0 1.17.167 1.5.5.33.167.58.417.75.75.33.333.5.833.5 1.5v23.75h-80v-26.5ZM1172.45 468h-1.5c-.33-.167-.67-.333-1-.5-.17-.333-.33-.667-.5-1v-158h33.75l-1.75 5.25v127h78.75c1 0 1.75.25 2.25.75s.75 1.167.75 2V468h-110.75Zm337.4-80.5c4.5 8.167 8.67 15.833 12.5 23 4 7.167 8.17 14.833 12.5 23 1.67 2.667 3.17 4.583 4.5 5.75 1.5 1 3.34 1.5 5.5 1.5h8v24.5c0 .833-.25 1.5-.75 2s-1.16.75-2 .75h-9.5c-5.33 0-9.83-.5-13.5-1.5-3.66-1-6.91-2.667-9.75-5-2.66-2.5-5.16-6-7.5-10.5-4.33-8.667-8.75-17.25-13.25-25.75-4.33-8.667-8.75-17.333-13.25-26l26.5-11.75Zm-89.5-94.5h69.5c9.67 0 18 1.167 25 3.5s12.75 5.75 17.25 10.25c4.5 4.333 7.75 9.667 9.75 16 2.17 6.167 3.25 13.083 3.25 20.75V357c0 7.5-1.16 14.25-3.5 20.25-2.33 6-5.66 11.083-10 15.25-4.33 4.167-9.66 7.333-16 9.5-6.33 2.167-13.41 3.25-21.25 3.25h-32.75l-2.75 1.75v-28h31.75c5.34 0 9.67-.833 13-2.5 3.5-1.667 6.09-4.083 7.75-7.25 1.67-3.333 2.5-7.417 2.5-12.25v-14.75c0-3.5-.41-6.583-1.25-9.25-.83-2.833-2.16-5.167-4-7-1.83-1.833-4.25-3.25-7.25-4.25-2.83-1-6.41-1.5-10.75-1.5h-67.5c-.83 0-1.5-.25-2-.75s-.75-1.167-.75-2V293Zm44.25 175h-28.5c-.83 0-1.5-.25-2-.75s-.75-1.167-.75-2v-156h34.25l-3 6.25V468Zm292.41-179.75c11.5 0 21.41 1.417 29.75 4.25 8.33 2.667 14.41 6 18.25 10 .83.667 1.33 1.333 1.5 2 .16.5.25 1.25.25 2.25v33.75h-26c-.84 0-1.5-.25-2-.75s-.75-1.167-.75-2V312.5l6.75 9.5c-3.84-2-8.25-3.583-13.25-4.75-5-1.167-10.42-1.75-16.25-1.75-4.84 0-9.09.5-12.75 1.5-3.67.833-6.84 2.167-9.5 4-2.67 1.833-4.75 4.083-6.25 6.75-1.34 2.667-2 5.833-2 9.5v5c0 3.667.58 6.833 1.75 9.5 1.16 2.5 3.33 4.75 6.5 6.75 3.33 1.833 8.08 3.667 14.25 5.5l24 7.25c7.66 2.167 14.08 4.667 19.25 7.5 5.33 2.667 9.5 5.75 12.5 9.25 3.16 3.333 5.41 7.25 6.75 11.75 1.33 4.333 2 9.417 2 15.25v10.75c0 9.667-2.59 18.083-7.75 25.25-5 7-12.25 12.417-21.75 16.25-9.5 3.667-20.92 5.5-34.25 5.5-8 0-15.59-.583-22.75-1.75-7-1-13.17-2.583-18.5-4.75-5.34-2.167-9.42-4.583-12.25-7.25-.5-.5-.92-1-1.25-1.5-.17-.667-.25-1.75-.25-3.25V430h4.5c7.33 5.333 15.08 9.25 23.25 11.75 8.16 2.333 17.91 3.5 29.25 3.5 10.83 0 18.83-1.917 24-5.75 5.33-3.833 8-8.583 8-14.25v-8c0-3.167-.59-5.833-1.75-8-1-2.333-3.09-4.417-6.25-6.25-3.17-1.833-8-3.75-14.5-5.75l-23.75-7.25c-8-2.333-14.67-5.083-20-8.25-5.34-3.167-9.5-6.5-12.5-10-2.84-3.667-4.92-7.667-6.25-12-1.17-4.333-1.75-8.917-1.75-13.75v-11.25c0-6.667 1.41-12.833 4.25-18.5 2.83-5.667 7-10.583 12.5-14.75 5.5-4.333 12-7.583 19.5-9.75 7.5-2.333 16-3.5 25.5-3.5ZM109.842 771.75h115c.666 0 1.166.167 1.5.5.333.167.583.417.75.75.333.333.5.833.5 1.5V798h-115c-.5 0-1-.083-1.5-.25l-1-1c-.167-.333-.25-.833-.25-1.5v-23.5Zm4.25-161.25h69.5c.666 0 1.166.167 1.5.5.333.167.583.417.75.75.333.333.5.833.5 1.5v171.5h-33.25l3.25-5.75V636.75h-39.5c-.5 0-1-.083-1.5-.25l-1-1c-.167-.5-.25-1-.25-1.5v-23.5Zm318.652 50.75c11 0 20.667 2.25 29 6.75 8.333 4.333 14.833 10.667 19.5 19 4.667 8.167 7 18.167 7 30v20c0 .5-.083 1-.25 1.5-.167.333-.5.583-1 .75-.333.167-.75.25-1.25.25h-86.25l-1.75-19.25h61.25V716c0-5.333-.583-9.917-1.75-13.75s-2.917-6.917-5.25-9.25c-2.167-2.167-4.833-3.75-8-4.75s-6.917-1.5-11.25-1.5c-9 0-15.833 2.333-20.5 7-4.667 4.5-7 12.083-7 22.75v28.75c0 4.667.583 8.75 1.75 12.25 1.167 3.333 2.833 6.167 5 8.5 3 3 6.833 5.167 11.5 6.5 4.667 1.333 10.167 2 16.5 2 6.167 0 11.5-.333 16-1 4.667-.667 9-1.583 13-2.75 4.167-1.167 8.167-2.5 12-4h4.5v22.5c0 .333-.083.667-.25 1a3.933 3.933 0 0 1-.75 1c-1.5 1.5-4.5 3-9 4.5s-9.917 2.667-16.25 3.5c-6.333 1-12.917 1.5-19.75 1.5-10.5 0-19.833-1.167-28-3.5-8-2.5-14.667-6.167-20-11s-9.417-10.667-12.25-17.5c-2.833-7-4.25-14.833-4.25-23.5V717.5c0-9 1.333-16.917 4-23.75 2.833-7 6.833-12.917 12-17.75 5.333-4.833 11.5-8.5 18.5-11 7.167-2.5 14.917-3.75 23.25-3.75ZM637.646 664h105.75c.834 0 1.5.25 2 .75s.75 1.167.75 2v23.75h-107l-1-.5-.5-1v-25Zm108.5 107.25v24c0 .667-.25 1.333-.75 2-.5.5-1.166.75-2 .75h-21.5c-8.166 0-15.583-.917-22.25-2.75-6.5-1.833-12.166-4.833-17-9-4.666-4.167-8.25-9.583-10.75-16.25-2.5-6.833-3.75-15-3.75-24.5V623h27.5c.667 0 1.167.167 1.5.5.334.167.584.417.75.75.334.333.5.833.5 1.5V744.5c0 5.167.417 9.5 1.25 13 1 3.5 2.5 6.25 4.5 8.25 2.167 2 4.75 3.417 7.75 4.25 3.167.833 6.917 1.25 11.25 1.25h23ZM901.549 664H1007.3c.83 0 1.5.25 2 .75s.75 1.167.75 2v23.75H903.049l-1-.5-.5-1v-25Zm108.501 107.25v24c0 .667-.25 1.333-.75 2-.5.5-1.17.75-2 .75h-21.501c-8.167 0-15.584-.917-22.25-2.75-6.5-1.833-12.167-4.833-17-9-4.667-4.167-8.25-9.583-10.75-16.25-2.5-6.833-3.75-15-3.75-24.5V623h27.5c.666 0 1.166.167 1.5.5.333.167.583.417.75.75.333.333.5.833.5 1.5V744.5c0 5.167.416 9.5 1.25 13 1 3.5 2.5 6.25 4.5 8.25 2.167 2 4.75 3.417 7.75 4.25 3.167.833 6.917 1.25 11.25 1.25h23.001Zm214.4-110c11 0 20.67 2.25 29 6.75 8.33 4.333 14.83 10.667 19.5 19 4.67 8.167 7 18.167 7 30v20c0 .5-.08 1-.25 1.5-.17.333-.5.583-1 .75-.33.167-.75.25-1.25.25h-86.25l-1.75-19.25h61.25V716c0-5.333-.58-9.917-1.75-13.75s-2.92-6.917-5.25-9.25c-2.17-2.167-4.83-3.75-8-4.75s-6.92-1.5-11.25-1.5c-9 0-15.83 2.333-20.5 7-4.67 4.5-7 12.083-7 22.75v28.75c0 4.667.58 8.75 1.75 12.25 1.17 3.333 2.83 6.167 5 8.5 3 3 6.83 5.167 11.5 6.5 4.67 1.333 10.17 2 16.5 2 6.17 0 11.5-.333 16-1 4.67-.667 9-1.583 13-2.75 4.17-1.167 8.17-2.5 12-4h4.5v22.5c0 .333-.08.667-.25 1a4.08 4.08 0 0 1-.75 1c-1.5 1.5-4.5 3-9 4.5s-9.92 2.667-16.25 3.5c-6.33 1-12.92 1.5-19.75 1.5-10.5 0-19.83-1.167-28-3.5-8-2.5-14.67-6.167-20-11s-9.42-10.667-12.25-17.5c-2.83-7-4.25-14.833-4.25-23.5V717.5c0-9 1.33-16.917 4-23.75 2.83-7 6.83-12.917 12-17.75 5.33-4.833 11.5-8.5 18.5-11 7.17-2.5 14.92-3.75 23.25-3.75ZM1460.35 783v-92.5h-26.75c-.83 0-1.5-.25-2-.75s-.75-1.167-.75-2V664h51l.75 2.5c.67 1.667 1.34 3.917 2 6.75a429.15 429.15 0 0 1 2.5 8.25c1 2.833 1.75 5.5 2.25 8 .67 2.333 1.09 4 1.25 5v89.25l-30.25-.75Zm23.5-94h8.75c4.5-8.167 10.25-14.75 17.25-19.75 7.17-5.167 15.67-7.75 25.5-7.75 4.17 0 7.42.333 9.75 1 2.5.667 4.17 1.5 5 2.5.34.167.59.5.75 1 .17.333.25.917.25 1.75V696h-4.5c-3.5-1.167-6.66-1.917-9.5-2.25-2.83-.333-6-.5-9.5-.5-4.66 0-9.41.667-14.25 2-4.83 1.333-9.5 3.417-14 6.25s-8.83 6.583-13 11.25l-2.5-23.75Zm-54.5 82.75h101.75c.67 0 1.17.167 1.5.5.34.167.59.417.75.75.34.333.5.833.5 1.5V798H1432.1c-.83 0-1.5-.25-2-.75s-.75-1.167-.75-2v-23.5Zm320.66.25c10.83 0 18.33-1.417 22.5-4.25 4.16-2.833 6.25-6.667 6.25-11.5 0-2.5-.5-4.583-1.5-6.25-1-1.667-2.84-3.167-5.5-4.5-2.67-1.333-6.5-2.417-11.5-3.25l-25.25-4.25c-8.17-1.5-14.92-3.667-20.25-6.5-5.34-2.833-9.34-6.5-12-11-2.5-4.667-3.75-10-3.75-16 0-6.5 1.33-12.333 4-17.5 2.66-5.333 6.5-9.833 11.5-13.5 5-3.833 11.08-6.75 18.25-8.75 7.33-2 15.58-3 24.75-3 8 0 14.91.5 20.75 1.5 6 .833 10.75 1.917 14.25 3.25s5.66 2.417 6.5 3.25c.33.167.5.417.5.75.16.167.25.417.25.75v25.25h-4.25c-4.67-1.667-8.92-2.917-12.75-3.75-3.84-1-7.84-1.667-12-2-4-.5-8.59-.75-13.75-.75-6.67 0-12.09.667-16.25 2-4 1.167-7 2.917-9 5.25-1.84 2.333-2.75 5.083-2.75 8.25 0 2.333.5 4.333 1.5 6 1 1.667 2.75 3.083 5.25 4.25 2.5 1 5.91 1.833 10.25 2.5l24.25 4c9 1.5 16.25 3.833 21.75 7 5.66 3 9.83 6.917 12.5 11.75 2.66 4.833 4 10.583 4 17.25 0 9.167-2.25 16.917-6.75 23.25-4.5 6.167-11.17 10.833-20 14-8.84 3.167-19.59 4.75-32.25 4.75-7 0-13.5-.417-19.5-1.25-6-.667-11.34-1.583-16-2.75-4.67-1.167-8.5-2.333-11.5-3.5-3-1.333-5-2.5-6-3.5-.17-.333-.34-.583-.5-.75V761h4.25c3.83 2 7.58 3.667 11.25 5 3.66 1.333 7.41 2.5 11.25 3.5 4 .833 8.16 1.5 12.5 2 4.5.333 9.41.5 14.75.5Z" fill="#3C4043"/><path stroke="#1A73E8" stroke-width="5" stroke-dasharray="10 10" d="M56 540.5h225M320 540.5h225M584 540.5h225M848 540.5h225M1112 540.5h225M1376 540.5h225M1640 540.5h225"/></svg>
