<svg width="1920" height="1080" fill="none" xmlns="http://www.w3.org/2000/svg"><g clip-path="url(#a)"><path d="M664.533 775.004c-37.292 0-68.47-11.004-93.534-33.012-24.454-22.008-36.68-53.186-36.68-93.534 0-48.907 21.702-86.198 65.107-111.874 43.404-26.287 112.791-44.627 208.159-55.02 0-14.061-1.529-27.816-4.585-41.265-2.446-13.449-7.031-25.37-13.755-35.763-6.725-10.393-16.201-18.646-28.427-24.759-11.616-6.725-26.593-10.087-44.933-10.087-25.676 0-49.824 4.891-72.443 14.672-22.62 9.781-42.794 20.785-60.522 33.012l-29.344-52.269c20.785-13.449 46.155-26.287 76.111-38.514 29.955-12.838 62.967-19.257 99.036-19.257 54.408 0 93.839 16.812 118.293 50.435 24.453 33.012 36.68 77.334 36.68 132.965V764H821.34l-6.419-53.186h-2.751c-21.397 17.729-44.322 33.012-68.775 45.85-24.454 12.227-50.741 18.34-78.862 18.34Zm22.008-60.522c21.396 0 41.57-4.891 60.522-14.672 18.951-10.393 39.125-25.37 60.522-44.933V531.082c-37.292 4.891-68.775 10.698-94.451 17.423-25.065 6.725-45.545 14.672-61.439 23.842-15.284 9.17-26.593 19.868-33.929 32.095-6.725 11.615-10.087 24.453-10.087 38.514 0 25.676 7.641 44.016 22.925 55.02 15.283 11.004 33.929 16.506 55.937 16.506Zm489.589 60.522c-56.24 0-101.17-20.174-134.8-60.522-33.01-40.348-49.514-97.813-49.514-172.396 0-36.069 5.196-68.469 15.584-97.202 11.01-29.344 25.38-54.103 43.1-74.277 18.34-20.174 39.13-35.763 62.36-46.767 23.23-11.004 47.68-16.506 73.36-16.506 25.06 0 47.38 4.585 66.94 13.755 19.56 9.17 39.43 22.619 59.61 40.348h1.83l6.42-43.099h61.44V764h-62.36l-6.42-52.269h-2.75c-17.73 17.117-38.21 32.095-61.44 44.933-22.62 12.227-47.07 18.34-73.36 18.34Zm16.51-63.273c20.78 0 40.35-4.891 58.69-14.672 18.34-10.393 36.68-25.982 55.02-46.767V417.374c-18.95-17.117-37.29-29.038-55.02-35.763-17.12-7.336-34.85-11.004-53.19-11.004-17.73 0-34.54 4.279-50.43 12.838-15.29 7.947-28.74 19.563-40.35 34.846-11.62 14.672-20.79 32.401-27.51 53.186-6.73 20.785-10.09 44.016-10.09 69.692 0 53.797 10.7 95.674 32.1 125.629 21.39 29.955 51.65 44.933 90.78 44.933Z" fill="#3C4043"/><path stroke="#1A73E8" stroke-width="20" stroke-linecap="square" d="M1372 852h-330M1042 833v-30M1372 833v-30M874 852H544M544 833v-30M874 833v-30"/><path stroke="#D2E3FC" stroke-width="20" stroke-linecap="square" d="M545 228h827M1372 248v30M545 248v30"/></g><defs><clipPath id="a"><path fill="#fff" d="M0 0h1920v1080H0z"/></clipPath></defs></svg>