<svg width="1920" height="1080" viewBox="0 0 1920 1080" fill="none" xmlns="http://www.w3.org/2000/svg">
<rect x="250" y="228" width="1417" height="625" rx="40" stroke="#1A73E8" stroke-width="20"/>
<rect x="1291" y="311" width="111" height="111" rx="10" fill="#1A73E8"/>
<mask id="mask0_3386_16179" style="mask-type:alpha" maskUnits="userSpaceOnUse" x="1451" y="317" width="100" height="100">
<rect x="1451" y="317.45" width="99.5501" height="99.5501" fill="#D9D9D9"/>
</mask>
<g mask="url(#mask0_3386_16179)">
<path d="M1491.96 390.763L1471.12 369.818L1479.72 361.212L1491.96 373.342L1521.82 343.582L1530.43 352.292L1491.96 390.763Z" fill="#1A73E8"/>
</g>
<mask id="mask1_3386_16179" style="mask-type:alpha" maskUnits="userSpaceOnUse" x="1297" y="317" width="100" height="100">
<rect x="1297" y="317" width="99.5501" height="99.5501" fill="#D9D9D9"/>
</mask>
<g mask="url(#mask1_3386_16179)">
<path d="M1319.5 372.892V360.657H1374.05V372.892H1319.5Z" fill="#F3F7FE"/>
</g>
<path d="M374.128 380.776C374.128 383.507 373.467 385.832 372.144 387.752C370.821 389.629 368.923 391.08 366.448 392.104C364.016 393.128 361.136 393.64 357.808 393.64C356.101 393.64 354.459 393.555 352.88 393.384C351.344 393.213 349.936 392.979 348.656 392.68C347.376 392.339 346.245 391.933 345.264 391.464V385.96C346.8 386.643 348.699 387.261 350.96 387.816C353.264 388.371 355.632 388.648 358.064 388.648C360.325 388.648 362.224 388.349 363.76 387.752C365.296 387.155 366.448 386.301 367.216 385.192C367.984 384.083 368.368 382.781 368.368 381.288C368.368 379.795 368.048 378.536 367.408 377.512C366.768 376.488 365.659 375.549 364.08 374.696C362.544 373.8 360.389 372.861 357.616 371.88C355.653 371.155 353.925 370.387 352.432 369.576C350.981 368.723 349.765 367.763 348.784 366.696C347.803 365.629 347.056 364.413 346.544 363.048C346.075 361.683 345.84 360.104 345.84 358.312C345.84 355.88 346.459 353.811 347.696 352.104C348.933 350.355 350.64 349.011 352.816 348.072C355.035 347.133 357.573 346.664 360.432 346.664C362.949 346.664 365.253 346.899 367.344 347.368C369.435 347.837 371.333 348.456 373.04 349.224L371.248 354.152C369.669 353.469 367.941 352.893 366.064 352.424C364.229 351.955 362.309 351.72 360.304 351.72C358.384 351.72 356.784 351.997 355.504 352.552C354.224 353.107 353.264 353.896 352.624 354.92C351.984 355.901 351.664 357.053 351.664 358.376C351.664 359.912 351.984 361.192 352.624 362.216C353.264 363.24 354.309 364.157 355.76 364.968C357.211 365.779 359.173 366.653 361.648 367.592C364.336 368.573 366.597 369.64 368.432 370.792C370.309 371.901 371.717 373.245 372.656 374.824C373.637 376.403 374.128 378.387 374.128 380.776ZM394.021 389.032C394.874 389.032 395.749 388.968 396.645 388.84C397.541 388.669 398.266 388.499 398.821 388.328V392.616C398.224 392.915 397.37 393.149 396.261 393.32C395.152 393.533 394.085 393.64 393.061 393.64C391.269 393.64 389.605 393.341 388.069 392.744C386.576 392.104 385.36 391.016 384.421 389.48C383.482 387.944 383.013 385.789 383.013 383.016V363.048H378.149V360.36L383.077 358.12L385.317 350.824H388.645V358.696H398.565V363.048H388.645V382.888C388.645 384.979 389.136 386.536 390.117 387.56C391.141 388.541 392.442 389.032 394.021 389.032ZM400.314 358.696H406.33L413.754 378.216C414.181 379.368 414.565 380.477 414.906 381.544C415.29 382.611 415.631 383.656 415.93 384.68C416.229 385.661 416.463 386.621 416.634 387.56H416.89C417.146 386.493 417.551 385.107 418.106 383.4C418.661 381.651 419.237 379.901 419.834 378.152L426.81 358.696H432.89L418.106 397.736C417.295 399.869 416.335 401.725 415.226 403.304C414.159 404.925 412.837 406.163 411.258 407.016C409.722 407.912 407.845 408.36 405.626 408.36C404.602 408.36 403.706 408.296 402.938 408.168C402.17 408.083 401.509 407.976 400.954 407.848V403.368C401.423 403.453 401.978 403.539 402.618 403.624C403.301 403.709 404.005 403.752 404.73 403.752C406.053 403.752 407.183 403.496 408.122 402.984C409.103 402.515 409.935 401.811 410.618 400.872C411.301 399.976 411.877 398.909 412.346 397.672L414.138 393.128L400.314 358.696ZM443.947 393H438.315V344.36H443.947V393ZM460.447 358.696V393H454.815V358.696H460.447ZM457.695 345.832C458.548 345.832 459.295 346.131 459.935 346.728C460.618 347.283 460.959 348.179 460.959 349.416C460.959 350.611 460.618 351.507 459.935 352.104C459.295 352.701 458.548 353 457.695 353C456.756 353 455.967 352.701 455.327 352.104C454.687 351.507 454.367 350.611 454.367 349.416C454.367 348.179 454.687 347.283 455.327 346.728C455.967 346.131 456.756 345.832 457.695 345.832ZM493.651 383.528C493.651 385.747 493.096 387.603 491.987 389.096C490.878 390.589 489.299 391.72 487.251 392.488C485.203 393.256 482.771 393.64 479.955 393.64C477.566 393.64 475.496 393.448 473.747 393.064C472.04 392.68 470.526 392.147 469.203 391.464V386.344C470.568 387.027 472.211 387.667 474.131 388.264C476.094 388.819 478.078 389.096 480.083 389.096C482.942 389.096 485.011 388.648 486.291 387.752C487.571 386.813 488.211 385.576 488.211 384.04C488.211 383.187 487.976 382.419 487.507 381.736C487.038 381.053 486.184 380.371 484.947 379.688C483.752 379.005 482.024 378.237 479.763 377.384C477.544 376.531 475.646 375.677 474.067 374.824C472.488 373.971 471.272 372.947 470.419 371.752C469.566 370.557 469.139 369.021 469.139 367.144C469.139 364.243 470.312 362.003 472.659 360.424C475.048 358.845 478.163 358.056 482.003 358.056C484.094 358.056 486.035 358.269 487.827 358.696C489.662 359.08 491.368 359.635 492.947 360.36L491.027 364.84C490.088 364.413 489.086 364.051 488.019 363.752C486.995 363.411 485.95 363.155 484.883 362.984C483.816 362.771 482.728 362.664 481.619 362.664C479.315 362.664 477.544 363.048 476.307 363.816C475.112 364.541 474.515 365.544 474.515 366.824C474.515 367.763 474.792 368.573 475.347 369.256C475.902 369.896 476.819 370.536 478.099 371.176C479.422 371.773 481.171 372.499 483.347 373.352C485.523 374.163 487.379 374.995 488.915 375.848C490.451 376.701 491.624 377.747 492.435 378.984C493.246 380.179 493.651 381.693 493.651 383.528ZM513.396 389.032C514.249 389.032 515.124 388.968 516.02 388.84C516.916 388.669 517.641 388.499 518.196 388.328V392.616C517.599 392.915 516.745 393.149 515.636 393.32C514.527 393.533 513.46 393.64 512.436 393.64C510.644 393.64 508.98 393.341 507.444 392.744C505.951 392.104 504.735 391.016 503.796 389.48C502.857 387.944 502.388 385.789 502.388 383.016V363.048H497.524V360.36L502.452 358.12L504.692 350.824H508.02V358.696H517.94V363.048H508.02V382.888C508.02 384.979 508.511 386.536 509.492 387.56C510.516 388.541 511.817 389.032 513.396 389.032ZM530.697 358.696V393H525.065V358.696H530.697ZM527.945 345.832C528.798 345.832 529.545 346.131 530.185 346.728C530.868 347.283 531.209 348.179 531.209 349.416C531.209 350.611 530.868 351.507 530.185 352.104C529.545 352.701 528.798 353 527.945 353C527.006 353 526.217 352.701 525.577 352.104C524.937 351.507 524.617 350.611 524.617 349.416C524.617 348.179 524.937 347.283 525.577 346.728C526.217 346.131 527.006 345.832 527.945 345.832ZM555.325 393.64C552.296 393.64 549.586 393.021 547.197 391.784C544.85 390.547 542.994 388.627 541.629 386.024C540.306 383.421 539.645 380.093 539.645 376.04C539.645 371.816 540.349 368.381 541.757 365.736C543.165 363.091 545.064 361.149 547.453 359.912C549.885 358.675 552.637 358.056 555.709 358.056C557.458 358.056 559.144 358.248 560.765 358.632C562.386 358.973 563.709 359.4 564.733 359.912L563.005 364.584C561.981 364.2 560.786 363.837 559.421 363.496C558.056 363.155 556.776 362.984 555.581 362.984C553.277 362.984 551.378 363.475 549.885 364.456C548.392 365.437 547.282 366.888 546.557 368.808C545.832 370.728 545.469 373.117 545.469 375.976C545.469 378.707 545.832 381.032 546.557 382.952C547.282 384.872 548.37 386.323 549.821 387.304C551.272 388.285 553.085 388.776 555.261 388.776C557.138 388.776 558.781 388.584 560.189 388.2C561.64 387.816 562.962 387.347 564.157 386.792V391.784C563.005 392.381 561.725 392.829 560.317 393.128C558.952 393.469 557.288 393.64 555.325 393.64ZM615.628 380.776C615.628 383.507 614.967 385.832 613.644 387.752C612.321 389.629 610.423 391.08 607.948 392.104C605.516 393.128 602.636 393.64 599.308 393.64C597.601 393.64 595.959 393.555 594.38 393.384C592.844 393.213 591.436 392.979 590.156 392.68C588.876 392.339 587.745 391.933 586.764 391.464V385.96C588.3 386.643 590.199 387.261 592.46 387.816C594.764 388.371 597.132 388.648 599.564 388.648C601.825 388.648 603.724 388.349 605.26 387.752C606.796 387.155 607.948 386.301 608.716 385.192C609.484 384.083 609.868 382.781 609.868 381.288C609.868 379.795 609.548 378.536 608.908 377.512C608.268 376.488 607.159 375.549 605.58 374.696C604.044 373.8 601.889 372.861 599.116 371.88C597.153 371.155 595.425 370.387 593.932 369.576C592.481 368.723 591.265 367.763 590.284 366.696C589.303 365.629 588.556 364.413 588.044 363.048C587.575 361.683 587.34 360.104 587.34 358.312C587.34 355.88 587.959 353.811 589.196 352.104C590.433 350.355 592.14 349.011 594.316 348.072C596.535 347.133 599.073 346.664 601.932 346.664C604.449 346.664 606.753 346.899 608.844 347.368C610.935 347.837 612.833 348.456 614.54 349.224L612.748 354.152C611.169 353.469 609.441 352.893 607.564 352.424C605.729 351.955 603.809 351.72 601.804 351.72C599.884 351.72 598.284 351.997 597.004 352.552C595.724 353.107 594.764 353.896 594.124 354.92C593.484 355.901 593.164 357.053 593.164 358.376C593.164 359.912 593.484 361.192 594.124 362.216C594.764 363.24 595.809 364.157 597.26 364.968C598.711 365.779 600.673 366.653 603.148 367.592C605.836 368.573 608.097 369.64 609.932 370.792C611.809 371.901 613.217 373.245 614.156 374.824C615.137 376.403 615.628 378.387 615.628 380.776ZM637.313 358.056C640.257 358.056 642.774 358.696 644.865 359.976C646.998 361.256 648.62 363.069 649.729 365.416C650.881 367.72 651.457 370.429 651.457 373.544V376.936H627.969C628.054 380.819 629.036 383.784 630.913 385.832C632.833 387.837 635.5 388.84 638.913 388.84C641.089 388.84 643.009 388.648 644.673 388.264C646.38 387.837 648.129 387.24 649.921 386.472V391.4C648.172 392.168 646.444 392.723 644.737 393.064C643.03 393.448 641.004 393.64 638.657 393.64C635.414 393.64 632.534 392.979 630.017 391.656C627.542 390.333 625.601 388.371 624.193 385.768C622.828 383.123 622.145 379.901 622.145 376.104C622.145 372.349 622.764 369.128 624.001 366.44C625.281 363.752 627.052 361.683 629.313 360.232C631.617 358.781 634.284 358.056 637.313 358.056ZM637.249 362.664C634.561 362.664 632.428 363.539 630.849 365.288C629.313 366.995 628.396 369.384 628.097 372.456H645.569C645.569 370.493 645.27 368.787 644.673 367.336C644.076 365.885 643.158 364.755 641.921 363.944C640.726 363.091 639.169 362.664 637.249 362.664ZM671.646 389.032C672.499 389.032 673.374 388.968 674.27 388.84C675.166 388.669 675.891 388.499 676.446 388.328V392.616C675.849 392.915 674.995 393.149 673.886 393.32C672.777 393.533 671.71 393.64 670.686 393.64C668.894 393.64 667.23 393.341 665.694 392.744C664.201 392.104 662.985 391.016 662.046 389.48C661.107 387.944 660.638 385.789 660.638 383.016V363.048H655.774V360.36L660.702 358.12L662.942 350.824H666.27V358.696H676.19V363.048H666.27V382.888C666.27 384.979 666.761 386.536 667.742 387.56C668.766 388.541 670.067 389.032 671.646 389.032ZM707.62 361.064C707.62 359.229 707.641 357.757 707.684 356.648C707.727 355.539 707.791 354.387 707.876 353.192C707.193 353.875 706.575 354.451 706.02 354.92C705.465 355.389 704.761 355.987 703.908 356.712L699.044 360.68L696.1 356.904L708.452 347.304H713.124V393H707.62V361.064Z" fill="#3C4043"/>
<rect x="1445" y="482" width="111" height="111" rx="10" fill="#1A73E8"/>
<mask id="mask2_3386_16179" style="mask-type:alpha" maskUnits="userSpaceOnUse" x="1451" y="488" width="100" height="100">
<rect x="1451" y="488.45" width="99.5501" height="99.5501" fill="#D9D9D9"/>
</mask>
<g mask="url(#mask2_3386_16179)">
<path d="M1491.96 561.763L1471.12 540.818L1479.72 532.212L1491.96 544.342L1521.82 514.582L1530.43 523.292L1491.96 561.763Z" fill="#F3F7FE"/>
</g>
<mask id="mask3_3386_16179" style="mask-type:alpha" maskUnits="userSpaceOnUse" x="1297" y="488" width="100" height="100">
<rect x="1297" y="488" width="99.5501" height="99.5501" fill="#D9D9D9"/>
</mask>
<g mask="url(#mask3_3386_16179)">
<path d="M1319.5 543.892V531.657H1374.05V543.892H1319.5Z" fill="#1A73E8"/>
</g>
<path d="M374.128 551.776C374.128 554.507 373.467 556.832 372.144 558.752C370.821 560.629 368.923 562.08 366.448 563.104C364.016 564.128 361.136 564.64 357.808 564.64C356.101 564.64 354.459 564.555 352.88 564.384C351.344 564.213 349.936 563.979 348.656 563.68C347.376 563.339 346.245 562.933 345.264 562.464V556.96C346.8 557.643 348.699 558.261 350.96 558.816C353.264 559.371 355.632 559.648 358.064 559.648C360.325 559.648 362.224 559.349 363.76 558.752C365.296 558.155 366.448 557.301 367.216 556.192C367.984 555.083 368.368 553.781 368.368 552.288C368.368 550.795 368.048 549.536 367.408 548.512C366.768 547.488 365.659 546.549 364.08 545.696C362.544 544.8 360.389 543.861 357.616 542.88C355.653 542.155 353.925 541.387 352.432 540.576C350.981 539.723 349.765 538.763 348.784 537.696C347.803 536.629 347.056 535.413 346.544 534.048C346.075 532.683 345.84 531.104 345.84 529.312C345.84 526.88 346.459 524.811 347.696 523.104C348.933 521.355 350.64 520.011 352.816 519.072C355.035 518.133 357.573 517.664 360.432 517.664C362.949 517.664 365.253 517.899 367.344 518.368C369.435 518.837 371.333 519.456 373.04 520.224L371.248 525.152C369.669 524.469 367.941 523.893 366.064 523.424C364.229 522.955 362.309 522.72 360.304 522.72C358.384 522.72 356.784 522.997 355.504 523.552C354.224 524.107 353.264 524.896 352.624 525.92C351.984 526.901 351.664 528.053 351.664 529.376C351.664 530.912 351.984 532.192 352.624 533.216C353.264 534.24 354.309 535.157 355.76 535.968C357.211 536.779 359.173 537.653 361.648 538.592C364.336 539.573 366.597 540.64 368.432 541.792C370.309 542.901 371.717 544.245 372.656 545.824C373.637 547.403 374.128 549.387 374.128 551.776ZM394.021 560.032C394.874 560.032 395.749 559.968 396.645 559.84C397.541 559.669 398.266 559.499 398.821 559.328V563.616C398.224 563.915 397.37 564.149 396.261 564.32C395.152 564.533 394.085 564.64 393.061 564.64C391.269 564.64 389.605 564.341 388.069 563.744C386.576 563.104 385.36 562.016 384.421 560.48C383.482 558.944 383.013 556.789 383.013 554.016V534.048H378.149V531.36L383.077 529.12L385.317 521.824H388.645V529.696H398.565V534.048H388.645V553.888C388.645 555.979 389.136 557.536 390.117 558.56C391.141 559.541 392.442 560.032 394.021 560.032ZM400.314 529.696H406.33L413.754 549.216C414.181 550.368 414.565 551.477 414.906 552.544C415.29 553.611 415.631 554.656 415.93 555.68C416.229 556.661 416.463 557.621 416.634 558.56H416.89C417.146 557.493 417.551 556.107 418.106 554.4C418.661 552.651 419.237 550.901 419.834 549.152L426.81 529.696H432.89L418.106 568.736C417.295 570.869 416.335 572.725 415.226 574.304C414.159 575.925 412.837 577.163 411.258 578.016C409.722 578.912 407.845 579.36 405.626 579.36C404.602 579.36 403.706 579.296 402.938 579.168C402.17 579.083 401.509 578.976 400.954 578.848V574.368C401.423 574.453 401.978 574.539 402.618 574.624C403.301 574.709 404.005 574.752 404.73 574.752C406.053 574.752 407.183 574.496 408.122 573.984C409.103 573.515 409.935 572.811 410.618 571.872C411.301 570.976 411.877 569.909 412.346 568.672L414.138 564.128L400.314 529.696ZM443.947 564H438.315V515.36H443.947V564ZM460.447 529.696V564H454.815V529.696H460.447ZM457.695 516.832C458.548 516.832 459.295 517.131 459.935 517.728C460.618 518.283 460.959 519.179 460.959 520.416C460.959 521.611 460.618 522.507 459.935 523.104C459.295 523.701 458.548 524 457.695 524C456.756 524 455.967 523.701 455.327 523.104C454.687 522.507 454.367 521.611 454.367 520.416C454.367 519.179 454.687 518.283 455.327 517.728C455.967 517.131 456.756 516.832 457.695 516.832ZM493.651 554.528C493.651 556.747 493.096 558.603 491.987 560.096C490.878 561.589 489.299 562.72 487.251 563.488C485.203 564.256 482.771 564.64 479.955 564.64C477.566 564.64 475.496 564.448 473.747 564.064C472.04 563.68 470.526 563.147 469.203 562.464V557.344C470.568 558.027 472.211 558.667 474.131 559.264C476.094 559.819 478.078 560.096 480.083 560.096C482.942 560.096 485.011 559.648 486.291 558.752C487.571 557.813 488.211 556.576 488.211 555.04C488.211 554.187 487.976 553.419 487.507 552.736C487.038 552.053 486.184 551.371 484.947 550.688C483.752 550.005 482.024 549.237 479.763 548.384C477.544 547.531 475.646 546.677 474.067 545.824C472.488 544.971 471.272 543.947 470.419 542.752C469.566 541.557 469.139 540.021 469.139 538.144C469.139 535.243 470.312 533.003 472.659 531.424C475.048 529.845 478.163 529.056 482.003 529.056C484.094 529.056 486.035 529.269 487.827 529.696C489.662 530.08 491.368 530.635 492.947 531.36L491.027 535.84C490.088 535.413 489.086 535.051 488.019 534.752C486.995 534.411 485.95 534.155 484.883 533.984C483.816 533.771 482.728 533.664 481.619 533.664C479.315 533.664 477.544 534.048 476.307 534.816C475.112 535.541 474.515 536.544 474.515 537.824C474.515 538.763 474.792 539.573 475.347 540.256C475.902 540.896 476.819 541.536 478.099 542.176C479.422 542.773 481.171 543.499 483.347 544.352C485.523 545.163 487.379 545.995 488.915 546.848C490.451 547.701 491.624 548.747 492.435 549.984C493.246 551.179 493.651 552.693 493.651 554.528ZM513.396 560.032C514.249 560.032 515.124 559.968 516.02 559.84C516.916 559.669 517.641 559.499 518.196 559.328V563.616C517.599 563.915 516.745 564.149 515.636 564.32C514.527 564.533 513.46 564.64 512.436 564.64C510.644 564.64 508.98 564.341 507.444 563.744C505.951 563.104 504.735 562.016 503.796 560.48C502.857 558.944 502.388 556.789 502.388 554.016V534.048H497.524V531.36L502.452 529.12L504.692 521.824H508.02V529.696H517.94V534.048H508.02V553.888C508.02 555.979 508.511 557.536 509.492 558.56C510.516 559.541 511.817 560.032 513.396 560.032ZM530.697 529.696V564H525.065V529.696H530.697ZM527.945 516.832C528.798 516.832 529.545 517.131 530.185 517.728C530.868 518.283 531.209 519.179 531.209 520.416C531.209 521.611 530.868 522.507 530.185 523.104C529.545 523.701 528.798 524 527.945 524C527.006 524 526.217 523.701 525.577 523.104C524.937 522.507 524.617 521.611 524.617 520.416C524.617 519.179 524.937 518.283 525.577 517.728C526.217 517.131 527.006 516.832 527.945 516.832ZM555.325 564.64C552.296 564.64 549.586 564.021 547.197 562.784C544.85 561.547 542.994 559.627 541.629 557.024C540.306 554.421 539.645 551.093 539.645 547.04C539.645 542.816 540.349 539.381 541.757 536.736C543.165 534.091 545.064 532.149 547.453 530.912C549.885 529.675 552.637 529.056 555.709 529.056C557.458 529.056 559.144 529.248 560.765 529.632C562.386 529.973 563.709 530.4 564.733 530.912L563.005 535.584C561.981 535.2 560.786 534.837 559.421 534.496C558.056 534.155 556.776 533.984 555.581 533.984C553.277 533.984 551.378 534.475 549.885 535.456C548.392 536.437 547.282 537.888 546.557 539.808C545.832 541.728 545.469 544.117 545.469 546.976C545.469 549.707 545.832 552.032 546.557 553.952C547.282 555.872 548.37 557.323 549.821 558.304C551.272 559.285 553.085 559.776 555.261 559.776C557.138 559.776 558.781 559.584 560.189 559.2C561.64 558.816 562.962 558.347 564.157 557.792V562.784C563.005 563.381 561.725 563.829 560.317 564.128C558.952 564.469 557.288 564.64 555.325 564.64ZM615.628 551.776C615.628 554.507 614.967 556.832 613.644 558.752C612.321 560.629 610.423 562.08 607.948 563.104C605.516 564.128 602.636 564.64 599.308 564.64C597.601 564.64 595.959 564.555 594.38 564.384C592.844 564.213 591.436 563.979 590.156 563.68C588.876 563.339 587.745 562.933 586.764 562.464V556.96C588.3 557.643 590.199 558.261 592.46 558.816C594.764 559.371 597.132 559.648 599.564 559.648C601.825 559.648 603.724 559.349 605.26 558.752C606.796 558.155 607.948 557.301 608.716 556.192C609.484 555.083 609.868 553.781 609.868 552.288C609.868 550.795 609.548 549.536 608.908 548.512C608.268 547.488 607.159 546.549 605.58 545.696C604.044 544.8 601.889 543.861 599.116 542.88C597.153 542.155 595.425 541.387 593.932 540.576C592.481 539.723 591.265 538.763 590.284 537.696C589.303 536.629 588.556 535.413 588.044 534.048C587.575 532.683 587.34 531.104 587.34 529.312C587.34 526.88 587.959 524.811 589.196 523.104C590.433 521.355 592.14 520.011 594.316 519.072C596.535 518.133 599.073 517.664 601.932 517.664C604.449 517.664 606.753 517.899 608.844 518.368C610.935 518.837 612.833 519.456 614.54 520.224L612.748 525.152C611.169 524.469 609.441 523.893 607.564 523.424C605.729 522.955 603.809 522.72 601.804 522.72C599.884 522.72 598.284 522.997 597.004 523.552C595.724 524.107 594.764 524.896 594.124 525.92C593.484 526.901 593.164 528.053 593.164 529.376C593.164 530.912 593.484 532.192 594.124 533.216C594.764 534.24 595.809 535.157 597.26 535.968C598.711 536.779 600.673 537.653 603.148 538.592C605.836 539.573 608.097 540.64 609.932 541.792C611.809 542.901 613.217 544.245 614.156 545.824C615.137 547.403 615.628 549.387 615.628 551.776ZM637.313 529.056C640.257 529.056 642.774 529.696 644.865 530.976C646.998 532.256 648.62 534.069 649.729 536.416C650.881 538.72 651.457 541.429 651.457 544.544V547.936H627.969C628.054 551.819 629.036 554.784 630.913 556.832C632.833 558.837 635.5 559.84 638.913 559.84C641.089 559.84 643.009 559.648 644.673 559.264C646.38 558.837 648.129 558.24 649.921 557.472V562.4C648.172 563.168 646.444 563.723 644.737 564.064C643.03 564.448 641.004 564.64 638.657 564.64C635.414 564.64 632.534 563.979 630.017 562.656C627.542 561.333 625.601 559.371 624.193 556.768C622.828 554.123 622.145 550.901 622.145 547.104C622.145 543.349 622.764 540.128 624.001 537.44C625.281 534.752 627.052 532.683 629.313 531.232C631.617 529.781 634.284 529.056 637.313 529.056ZM637.249 533.664C634.561 533.664 632.428 534.539 630.849 536.288C629.313 537.995 628.396 540.384 628.097 543.456H645.569C645.569 541.493 645.27 539.787 644.673 538.336C644.076 536.885 643.158 535.755 641.921 534.944C640.726 534.091 639.169 533.664 637.249 533.664ZM671.646 560.032C672.499 560.032 673.374 559.968 674.27 559.84C675.166 559.669 675.891 559.499 676.446 559.328V563.616C675.849 563.915 674.995 564.149 673.886 564.32C672.777 564.533 671.71 564.64 670.686 564.64C668.894 564.64 667.23 564.341 665.694 563.744C664.201 563.104 662.985 562.016 662.046 560.48C661.107 558.944 660.638 556.789 660.638 554.016V534.048H655.774V531.36L660.702 529.12L662.942 521.824H666.27V529.696H676.19V534.048H666.27V553.888C666.27 555.979 666.761 557.536 667.742 558.56C668.766 559.541 670.067 560.032 671.646 560.032ZM696.932 564V559.328L708.9 547.232C711.204 544.928 713.145 542.88 714.724 541.088C716.303 539.296 717.497 537.547 718.308 535.84C719.119 534.091 719.524 532.192 719.524 530.144C719.524 527.627 718.777 525.728 717.284 524.448C715.791 523.125 713.849 522.464 711.46 522.464C709.241 522.464 707.279 522.848 705.572 523.616C703.908 524.384 702.201 525.451 700.452 526.816L697.444 523.04C698.639 522.016 699.94 521.099 701.348 520.288C702.799 519.477 704.356 518.837 706.02 518.368C707.727 517.899 709.54 517.664 711.46 517.664C714.319 517.664 716.772 518.155 718.82 519.136C720.868 520.117 722.447 521.525 723.556 523.36C724.708 525.152 725.284 527.307 725.284 529.824C725.284 531.616 725.007 533.323 724.452 534.944C723.897 536.523 723.108 538.08 722.084 539.616C721.06 541.152 719.823 542.709 718.372 544.288C716.921 545.867 715.321 547.509 713.572 549.216L704.036 558.624V558.88H727.14V564H696.932Z" fill="#3C4043"/>
<rect x="1291" y="653" width="111" height="111" rx="10" fill="#F3F7FE"/>
<rect x="1445" y="653" width="111" height="111" rx="10" fill="#1A73E8"/>
<mask id="mask4_3386_16179" style="mask-type:alpha" maskUnits="userSpaceOnUse" x="1451" y="659" width="100" height="100">
<rect x="1451" y="659.45" width="99.5501" height="99.5501" fill="#D9D9D9"/>
</mask>
<g mask="url(#mask4_3386_16179)">
<path d="M1491.96 732.763L1471.12 711.818L1479.72 703.212L1491.96 715.342L1521.82 685.582L1530.43 694.292L1491.96 732.763Z" fill="#F3F7FE"/>
</g>
<mask id="mask5_3386_16179" style="mask-type:alpha" maskUnits="userSpaceOnUse" x="1297" y="659" width="100" height="100">
<rect x="1297" y="659" width="99.5501" height="99.5501" fill="#D9D9D9"/>
</mask>
<g mask="url(#mask5_3386_16179)">
<path d="M1319.5 714.892V702.657H1374.05V714.892H1319.5Z" fill="#1A73E8"/>
</g>
<path d="M374.128 722.776C374.128 725.507 373.467 727.832 372.144 729.752C370.821 731.629 368.923 733.08 366.448 734.104C364.016 735.128 361.136 735.64 357.808 735.64C356.101 735.64 354.459 735.555 352.88 735.384C351.344 735.213 349.936 734.979 348.656 734.68C347.376 734.339 346.245 733.933 345.264 733.464V727.96C346.8 728.643 348.699 729.261 350.96 729.816C353.264 730.371 355.632 730.648 358.064 730.648C360.325 730.648 362.224 730.349 363.76 729.752C365.296 729.155 366.448 728.301 367.216 727.192C367.984 726.083 368.368 724.781 368.368 723.288C368.368 721.795 368.048 720.536 367.408 719.512C366.768 718.488 365.659 717.549 364.08 716.696C362.544 715.8 360.389 714.861 357.616 713.88C355.653 713.155 353.925 712.387 352.432 711.576C350.981 710.723 349.765 709.763 348.784 708.696C347.803 707.629 347.056 706.413 346.544 705.048C346.075 703.683 345.84 702.104 345.84 700.312C345.84 697.88 346.459 695.811 347.696 694.104C348.933 692.355 350.64 691.011 352.816 690.072C355.035 689.133 357.573 688.664 360.432 688.664C362.949 688.664 365.253 688.899 367.344 689.368C369.435 689.837 371.333 690.456 373.04 691.224L371.248 696.152C369.669 695.469 367.941 694.893 366.064 694.424C364.229 693.955 362.309 693.72 360.304 693.72C358.384 693.72 356.784 693.997 355.504 694.552C354.224 695.107 353.264 695.896 352.624 696.92C351.984 697.901 351.664 699.053 351.664 700.376C351.664 701.912 351.984 703.192 352.624 704.216C353.264 705.24 354.309 706.157 355.76 706.968C357.211 707.779 359.173 708.653 361.648 709.592C364.336 710.573 366.597 711.64 368.432 712.792C370.309 713.901 371.717 715.245 372.656 716.824C373.637 718.403 374.128 720.387 374.128 722.776ZM394.021 731.032C394.874 731.032 395.749 730.968 396.645 730.84C397.541 730.669 398.266 730.499 398.821 730.328V734.616C398.224 734.915 397.37 735.149 396.261 735.32C395.152 735.533 394.085 735.64 393.061 735.64C391.269 735.64 389.605 735.341 388.069 734.744C386.576 734.104 385.36 733.016 384.421 731.48C383.482 729.944 383.013 727.789 383.013 725.016V705.048H378.149V702.36L383.077 700.12L385.317 692.824H388.645V700.696H398.565V705.048H388.645V724.888C388.645 726.979 389.136 728.536 390.117 729.56C391.141 730.541 392.442 731.032 394.021 731.032ZM400.314 700.696H406.33L413.754 720.216C414.181 721.368 414.565 722.477 414.906 723.544C415.29 724.611 415.631 725.656 415.93 726.68C416.229 727.661 416.463 728.621 416.634 729.56H416.89C417.146 728.493 417.551 727.107 418.106 725.4C418.661 723.651 419.237 721.901 419.834 720.152L426.81 700.696H432.89L418.106 739.736C417.295 741.869 416.335 743.725 415.226 745.304C414.159 746.925 412.837 748.163 411.258 749.016C409.722 749.912 407.845 750.36 405.626 750.36C404.602 750.36 403.706 750.296 402.938 750.168C402.17 750.083 401.509 749.976 400.954 749.848V745.368C401.423 745.453 401.978 745.539 402.618 745.624C403.301 745.709 404.005 745.752 404.73 745.752C406.053 745.752 407.183 745.496 408.122 744.984C409.103 744.515 409.935 743.811 410.618 742.872C411.301 741.976 411.877 740.909 412.346 739.672L414.138 735.128L400.314 700.696ZM443.947 735H438.315V686.36H443.947V735ZM460.447 700.696V735H454.815V700.696H460.447ZM457.695 687.832C458.548 687.832 459.295 688.131 459.935 688.728C460.618 689.283 460.959 690.179 460.959 691.416C460.959 692.611 460.618 693.507 459.935 694.104C459.295 694.701 458.548 695 457.695 695C456.756 695 455.967 694.701 455.327 694.104C454.687 693.507 454.367 692.611 454.367 691.416C454.367 690.179 454.687 689.283 455.327 688.728C455.967 688.131 456.756 687.832 457.695 687.832ZM493.651 725.528C493.651 727.747 493.096 729.603 491.987 731.096C490.878 732.589 489.299 733.72 487.251 734.488C485.203 735.256 482.771 735.64 479.955 735.64C477.566 735.64 475.496 735.448 473.747 735.064C472.04 734.68 470.526 734.147 469.203 733.464V728.344C470.568 729.027 472.211 729.667 474.131 730.264C476.094 730.819 478.078 731.096 480.083 731.096C482.942 731.096 485.011 730.648 486.291 729.752C487.571 728.813 488.211 727.576 488.211 726.04C488.211 725.187 487.976 724.419 487.507 723.736C487.038 723.053 486.184 722.371 484.947 721.688C483.752 721.005 482.024 720.237 479.763 719.384C477.544 718.531 475.646 717.677 474.067 716.824C472.488 715.971 471.272 714.947 470.419 713.752C469.566 712.557 469.139 711.021 469.139 709.144C469.139 706.243 470.312 704.003 472.659 702.424C475.048 700.845 478.163 700.056 482.003 700.056C484.094 700.056 486.035 700.269 487.827 700.696C489.662 701.08 491.368 701.635 492.947 702.36L491.027 706.84C490.088 706.413 489.086 706.051 488.019 705.752C486.995 705.411 485.95 705.155 484.883 704.984C483.816 704.771 482.728 704.664 481.619 704.664C479.315 704.664 477.544 705.048 476.307 705.816C475.112 706.541 474.515 707.544 474.515 708.824C474.515 709.763 474.792 710.573 475.347 711.256C475.902 711.896 476.819 712.536 478.099 713.176C479.422 713.773 481.171 714.499 483.347 715.352C485.523 716.163 487.379 716.995 488.915 717.848C490.451 718.701 491.624 719.747 492.435 720.984C493.246 722.179 493.651 723.693 493.651 725.528ZM513.396 731.032C514.249 731.032 515.124 730.968 516.02 730.84C516.916 730.669 517.641 730.499 518.196 730.328V734.616C517.599 734.915 516.745 735.149 515.636 735.32C514.527 735.533 513.46 735.64 512.436 735.64C510.644 735.64 508.98 735.341 507.444 734.744C505.951 734.104 504.735 733.016 503.796 731.48C502.857 729.944 502.388 727.789 502.388 725.016V705.048H497.524V702.36L502.452 700.12L504.692 692.824H508.02V700.696H517.94V705.048H508.02V724.888C508.02 726.979 508.511 728.536 509.492 729.56C510.516 730.541 511.817 731.032 513.396 731.032ZM530.697 700.696V735H525.065V700.696H530.697ZM527.945 687.832C528.798 687.832 529.545 688.131 530.185 688.728C530.868 689.283 531.209 690.179 531.209 691.416C531.209 692.611 530.868 693.507 530.185 694.104C529.545 694.701 528.798 695 527.945 695C527.006 695 526.217 694.701 525.577 694.104C524.937 693.507 524.617 692.611 524.617 691.416C524.617 690.179 524.937 689.283 525.577 688.728C526.217 688.131 527.006 687.832 527.945 687.832ZM555.325 735.64C552.296 735.64 549.586 735.021 547.197 733.784C544.85 732.547 542.994 730.627 541.629 728.024C540.306 725.421 539.645 722.093 539.645 718.04C539.645 713.816 540.349 710.381 541.757 707.736C543.165 705.091 545.064 703.149 547.453 701.912C549.885 700.675 552.637 700.056 555.709 700.056C557.458 700.056 559.144 700.248 560.765 700.632C562.386 700.973 563.709 701.4 564.733 701.912L563.005 706.584C561.981 706.2 560.786 705.837 559.421 705.496C558.056 705.155 556.776 704.984 555.581 704.984C553.277 704.984 551.378 705.475 549.885 706.456C548.392 707.437 547.282 708.888 546.557 710.808C545.832 712.728 545.469 715.117 545.469 717.976C545.469 720.707 545.832 723.032 546.557 724.952C547.282 726.872 548.37 728.323 549.821 729.304C551.272 730.285 553.085 730.776 555.261 730.776C557.138 730.776 558.781 730.584 560.189 730.2C561.64 729.816 562.962 729.347 564.157 728.792V733.784C563.005 734.381 561.725 734.829 560.317 735.128C558.952 735.469 557.288 735.64 555.325 735.64ZM615.628 722.776C615.628 725.507 614.967 727.832 613.644 729.752C612.321 731.629 610.423 733.08 607.948 734.104C605.516 735.128 602.636 735.64 599.308 735.64C597.601 735.64 595.959 735.555 594.38 735.384C592.844 735.213 591.436 734.979 590.156 734.68C588.876 734.339 587.745 733.933 586.764 733.464V727.96C588.3 728.643 590.199 729.261 592.46 729.816C594.764 730.371 597.132 730.648 599.564 730.648C601.825 730.648 603.724 730.349 605.26 729.752C606.796 729.155 607.948 728.301 608.716 727.192C609.484 726.083 609.868 724.781 609.868 723.288C609.868 721.795 609.548 720.536 608.908 719.512C608.268 718.488 607.159 717.549 605.58 716.696C604.044 715.8 601.889 714.861 599.116 713.88C597.153 713.155 595.425 712.387 593.932 711.576C592.481 710.723 591.265 709.763 590.284 708.696C589.303 707.629 588.556 706.413 588.044 705.048C587.575 703.683 587.34 702.104 587.34 700.312C587.34 697.88 587.959 695.811 589.196 694.104C590.433 692.355 592.14 691.011 594.316 690.072C596.535 689.133 599.073 688.664 601.932 688.664C604.449 688.664 606.753 688.899 608.844 689.368C610.935 689.837 612.833 690.456 614.54 691.224L612.748 696.152C611.169 695.469 609.441 694.893 607.564 694.424C605.729 693.955 603.809 693.72 601.804 693.72C599.884 693.72 598.284 693.997 597.004 694.552C595.724 695.107 594.764 695.896 594.124 696.92C593.484 697.901 593.164 699.053 593.164 700.376C593.164 701.912 593.484 703.192 594.124 704.216C594.764 705.24 595.809 706.157 597.26 706.968C598.711 707.779 600.673 708.653 603.148 709.592C605.836 710.573 608.097 711.64 609.932 712.792C611.809 713.901 613.217 715.245 614.156 716.824C615.137 718.403 615.628 720.387 615.628 722.776ZM637.313 700.056C640.257 700.056 642.774 700.696 644.865 701.976C646.998 703.256 648.62 705.069 649.729 707.416C650.881 709.72 651.457 712.429 651.457 715.544V718.936H627.969C628.054 722.819 629.036 725.784 630.913 727.832C632.833 729.837 635.5 730.84 638.913 730.84C641.089 730.84 643.009 730.648 644.673 730.264C646.38 729.837 648.129 729.24 649.921 728.472V733.4C648.172 734.168 646.444 734.723 644.737 735.064C643.03 735.448 641.004 735.64 638.657 735.64C635.414 735.64 632.534 734.979 630.017 733.656C627.542 732.333 625.601 730.371 624.193 727.768C622.828 725.123 622.145 721.901 622.145 718.104C622.145 714.349 622.764 711.128 624.001 708.44C625.281 705.752 627.052 703.683 629.313 702.232C631.617 700.781 634.284 700.056 637.313 700.056ZM637.249 704.664C634.561 704.664 632.428 705.539 630.849 707.288C629.313 708.995 628.396 711.384 628.097 714.456H645.569C645.569 712.493 645.27 710.787 644.673 709.336C644.076 707.885 643.158 706.755 641.921 705.944C640.726 705.091 639.169 704.664 637.249 704.664ZM671.646 731.032C672.499 731.032 673.374 730.968 674.27 730.84C675.166 730.669 675.891 730.499 676.446 730.328V734.616C675.849 734.915 674.995 735.149 673.886 735.32C672.777 735.533 671.71 735.64 670.686 735.64C668.894 735.64 667.23 735.341 665.694 734.744C664.201 734.104 662.985 733.016 662.046 731.48C661.107 729.944 660.638 727.789 660.638 725.016V705.048H655.774V702.36L660.702 700.12L662.942 692.824H666.27V700.696H676.19V705.048H666.27V724.888C666.27 726.979 666.761 728.536 667.742 729.56C668.766 730.541 670.067 731.032 671.646 731.032ZM726.052 699.992C726.052 703.064 725.199 705.517 723.492 707.352C721.785 709.144 719.481 710.339 716.58 710.936V711.192C720.249 711.619 722.98 712.771 724.772 714.648C726.564 716.525 727.46 718.979 727.46 722.008C727.46 724.653 726.841 727.021 725.604 729.112C724.367 731.16 722.447 732.76 719.844 733.912C717.284 735.064 713.977 735.64 709.924 735.64C707.535 735.64 705.316 735.448 703.268 735.064C701.22 734.723 699.257 734.083 697.38 733.144V727.896C699.3 728.835 701.369 729.581 703.588 730.136C705.807 730.648 707.94 730.904 709.988 730.904C712.719 730.904 714.937 730.541 716.644 729.816C718.351 729.091 719.588 728.067 720.356 726.744C721.167 725.379 721.572 723.757 721.572 721.88C721.572 719.96 721.06 718.424 720.036 717.272C719.055 716.077 717.604 715.203 715.684 714.648C713.764 714.093 711.46 713.816 708.772 713.816H704.356V709.016H708.836C711.353 709.016 713.444 708.653 715.108 707.928C716.815 707.203 718.095 706.2 718.948 704.92C719.844 703.597 720.292 702.083 720.292 700.376C720.292 698.157 719.545 696.451 718.052 695.256C716.559 694.019 714.532 693.4 711.972 693.4C709.497 693.4 707.385 693.763 705.636 694.488C703.887 695.213 702.159 696.131 700.452 697.24L697.636 693.4C699.257 692.12 701.263 691.011 703.652 690.072C706.084 689.133 708.836 688.664 711.908 688.664C716.687 688.664 720.228 689.731 722.532 691.864C724.879 693.997 726.052 696.707 726.052 699.992Z" fill="#3C4043"/>
</svg>
