<svg width="1920" height="1080" viewBox="0 0 1920 1080" fill="none" xmlns="http://www.w3.org/2000/svg">
<path d="M687.449 351H643.973C643.562 350.863 642.947 350.658 642.127 350.385C641.443 350.111 640.623 349.838 639.666 349.564C638.709 349.154 637.82 348.812 637 348.539C636.316 348.266 635.77 347.992 635.359 347.719H634.334H633.514C629.822 349.086 626.199 349.975 622.645 350.385C619.09 350.795 615.193 351 610.955 351C608.494 351 605.691 350.863 602.547 350.59C599.539 350.18 596.6 349.428 593.729 348.334C590.994 347.24 588.67 345.736 586.756 343.822C584.842 341.908 583.885 339.311 583.885 336.029C583.885 333.568 584.705 331.312 586.346 329.262C588.123 327.074 590.174 325.775 592.498 325.365C593.182 325.365 594.549 325.297 596.6 325.16C598.65 325.023 600.77 324.887 602.957 324.75C605.281 324.613 607.4 324.477 609.314 324.34C611.365 324.203 612.801 324.135 613.621 324.135C615.945 323.725 617.928 322.973 619.568 321.879C621.209 320.648 622.645 319.213 623.875 317.572C625.105 315.932 626.131 314.223 626.951 312.445C627.908 310.531 628.797 308.617 629.617 306.703C629.48 305.609 629.344 303.627 629.207 300.756C629.07 297.885 629.002 294.877 629.002 291.732C629.002 288.588 629.07 285.648 629.207 282.914C629.344 280.18 629.48 278.129 629.617 276.762C629.617 276.215 629.754 274.848 630.027 272.66C630.301 270.336 630.574 267.875 630.848 265.277C631.121 262.68 631.395 260.287 631.668 258.1C631.941 255.912 632.078 254.477 632.078 253.793V253.178V252.768C632.078 252.357 631.873 251.537 631.463 250.307C631.053 249.076 630.848 248.324 630.848 248.051V246.615C630.848 245.385 631.053 244.223 631.463 243.129C631.873 241.898 632.078 240.463 632.078 238.822C632.078 237.045 631.873 235.336 631.463 233.695C631.053 232.055 630.848 230.346 630.848 228.568V225.492C630.984 224.809 631.189 223.031 631.463 220.16C631.736 217.152 632.01 213.939 632.283 210.521C632.693 207.104 632.967 203.959 633.104 201.088C633.377 198.08 633.514 196.166 633.514 195.346V191.039V178.529C633.787 175.385 634.402 172.377 635.359 169.506C636.316 166.635 636.795 163.627 636.795 160.482C636.795 158.158 636.453 156.312 635.77 154.945C635.223 153.441 634.949 151.527 634.949 149.203C634.949 148.109 635.018 147.084 635.154 146.127C635.291 145.033 635.838 144.008 636.795 143.051V110.033C636.795 109.896 636.59 109.35 636.18 108.393C635.906 107.436 635.633 106.615 635.359 105.932C634.676 104.291 633.992 102.445 633.309 100.395C632.762 98.3438 631.531 96.8398 629.617 95.8828C629.207 95.7461 628.523 95.4727 627.566 95.0625C626.746 94.6523 625.789 94.2422 624.695 93.832C623.602 93.2852 622.508 92.8066 621.414 92.3965C620.457 91.9863 619.773 91.7129 619.363 91.5762H607.264C598.65 91.5762 590.447 91.8496 582.654 92.3965C574.861 92.8066 566.795 93.0117 558.455 93.0117H549.842C546.424 94.9258 543.484 96.9082 541.023 98.959C538.699 100.873 536.443 103.197 534.256 105.932C533.982 105.932 533.641 106.273 533.23 106.957C532.957 107.641 532.684 108.119 532.41 108.393C531.863 109.896 531.453 111.127 531.18 112.084C530.906 113.041 530.564 113.93 530.154 114.75C529.881 115.57 529.471 116.391 528.924 117.211C528.377 117.895 527.693 118.852 526.873 120.082C525.369 121.996 523.797 123.979 522.156 126.029C520.652 127.943 519.012 129.789 517.234 131.566C515.457 133.344 513.475 134.779 511.287 135.873C509.1 136.967 506.707 137.514 504.109 137.514C502.195 137.514 500.486 137.104 498.982 136.283C497.615 135.463 496.932 133.822 496.932 131.361V130.336C496.932 129.516 497 128.354 497.137 126.85C497.273 125.209 497.41 123.568 497.547 121.928C497.82 120.287 498.025 118.783 498.162 117.416C498.299 115.912 498.367 114.887 498.367 114.34C498.504 113.656 498.572 112.768 498.572 111.674C498.709 110.58 498.846 109.555 498.982 108.598C499.119 107.504 499.188 106.547 499.188 105.727C499.324 104.906 499.393 104.496 499.393 104.496C499.803 104.223 500.623 103.539 501.854 102.445C503.084 101.215 503.836 100.463 504.109 100.189C504.246 99.916 504.588 99.0273 505.135 97.5234C505.818 96.0195 506.434 94.3789 506.98 92.6016C507.664 90.8242 508.279 89.1836 508.826 87.6797C509.373 86.0391 509.715 85.0137 509.852 84.6035V77.4258C509.988 75.9219 510.535 74.8965 511.492 74.3496C512.449 73.666 513.406 72.7773 514.363 71.6836C515.594 70.043 516.688 68.4023 517.645 66.7617C518.602 64.9844 519.695 63.4121 520.926 62.0449C522.156 60.541 523.592 59.3105 525.232 58.3535C526.873 57.3965 528.924 56.918 531.385 56.918C533.572 56.918 535.623 57.3965 537.537 58.3535C539.451 59.1738 541.297 60.2676 543.074 61.6348C544.988 62.8652 546.834 64.1641 548.611 65.5312C550.389 66.7617 552.234 67.7871 554.148 68.6074C554.422 68.7441 554.9 68.8809 555.584 69.0176C556.404 69.0176 557.225 69.0176 558.045 69.0176C558.865 69.0176 559.617 69.0176 560.301 69.0176C560.984 69.0176 561.395 69.0176 561.531 69.0176C564.676 69.0176 567.342 68.7441 569.529 68.1973C571.854 67.5137 574.383 67.1719 577.117 67.1719C582.723 67.1719 588.191 67.7188 593.523 68.8125C598.855 69.9062 604.393 70.4531 610.135 70.4531C612.459 70.4531 614.783 70.1797 617.107 69.6328C619.568 68.9492 621.961 68.6074 624.285 68.6074H625.105C627.43 68.7441 630.369 68.9492 633.924 69.2227C637.615 69.3594 641.17 69.5645 644.588 69.8379C648.143 69.9746 651.219 70.1113 653.816 70.248C656.414 70.3848 657.85 70.4531 658.123 70.4531C658.26 70.4531 658.738 70.5215 659.559 70.6582C660.379 70.7949 661.199 70.9316 662.02 71.0684C662.977 71.2051 663.865 71.3418 664.686 71.4785C665.506 71.6152 666.053 71.6836 666.326 71.6836H667.557C674.803 71.6836 681.844 71.4785 688.68 71.0684C695.652 70.6582 702.693 70.4531 709.803 70.4531C712.537 70.4531 715.203 70.6582 717.801 71.0684C720.535 71.4785 723.338 71.6836 726.209 71.6836H730.721C734.686 71.6836 738.582 71.5469 742.41 71.2734C746.238 71 749.793 70.1113 753.074 68.6074C753.758 68.6074 754.373 68.4707 754.92 68.1973C755.604 67.7871 756.082 67.4453 756.355 67.1719C756.629 67.0352 757.312 66.5566 758.406 65.7363C759.5 64.916 760.662 64.0273 761.893 63.0703C763.26 61.9766 764.422 61.0195 765.379 60.1992C766.473 59.3789 767.156 58.832 767.43 58.5586C767.566 58.5586 767.977 58.4902 768.66 58.3535C769.48 58.2168 770.301 58.1484 771.121 58.1484C772.078 58.0117 773.035 57.875 773.992 57.7383C774.949 57.6016 775.701 57.5332 776.248 57.5332H778.709C780.896 57.5332 782.4 58.4902 783.221 60.4043C784.041 62.1816 784.998 63.959 786.092 65.7363C786.365 66.1465 786.844 66.9668 787.527 68.1973C788.348 69.4277 788.963 70.1797 789.373 70.4531C789.373 70.5898 789.373 71.1367 789.373 72.0938C789.51 73.0508 789.578 74.0762 789.578 75.1699C789.715 76.2637 789.852 77.2891 789.988 78.2461C790.125 79.2031 790.262 79.75 790.398 79.8867C790.535 80.2969 790.877 81.0488 791.424 82.1426C791.971 83.2363 792.518 84.4668 793.064 85.834C793.748 87.0645 794.363 88.2266 794.91 89.3203C795.594 90.4141 796.072 91.166 796.346 91.5762C796.346 91.8496 796.482 92.6016 796.756 93.832C797.029 94.9258 797.303 95.6094 797.576 95.8828C797.986 96.9766 798.738 98.8223 799.832 101.42C800.926 103.881 802.088 106.547 803.318 109.418C804.549 112.289 805.711 115.023 806.805 117.621C808.035 120.219 808.855 122.064 809.266 123.158C809.266 123.432 809.266 124.115 809.266 125.209C809.402 126.166 809.539 127.26 809.676 128.49C809.812 129.721 809.949 130.883 810.086 131.977C810.223 133.07 810.428 133.822 810.701 134.232V136.078C810.701 139.77 809.129 142.572 805.984 144.486C802.84 146.4 799.627 147.357 796.346 147.357C795.799 147.357 794.979 147.289 793.885 147.152C792.791 147.016 792.107 146.947 791.834 146.947C789.646 145.033 787.322 142.914 784.861 140.59C782.537 138.266 780.623 135.668 779.119 132.797C776.795 128.422 774.539 124.115 772.352 119.877C770.301 115.502 767.84 111.605 764.969 108.188C762.098 104.77 758.68 101.967 754.715 99.7793C750.887 97.5918 746.102 96.293 740.359 95.8828H733.182H715.135C714.588 95.6094 713.562 95.2676 712.059 94.8574C710.555 94.3105 709.734 94.0371 709.598 94.0371H697.703H686.424C685.877 94.4473 684.715 95.0625 682.938 95.8828C681.16 96.5664 679.998 97.0449 679.451 97.3184C679.178 97.5918 678.904 97.7969 678.631 97.9336C678.221 98.3438 678.016 98.6172 678.016 98.7539C677.879 99.1641 677.742 99.916 677.605 101.01C677.469 102.104 677.332 103.266 677.195 104.496C677.059 105.727 676.922 106.889 676.785 107.982C676.648 108.939 676.58 109.623 676.58 110.033V110.854V111.469C676.58 111.879 676.648 112.768 676.785 114.135C676.922 115.502 677.059 117.006 677.195 118.646C677.469 120.287 677.674 121.791 677.811 123.158C677.947 124.525 678.016 125.346 678.016 125.619V128.49C678.016 132.592 677.742 136.762 677.195 141C676.785 145.238 676.58 149.477 676.58 153.715C676.58 157.68 676.785 161.713 677.195 165.814C677.742 169.779 678.016 173.881 678.016 178.119C678.016 179.623 677.469 180.99 676.375 182.221C675.281 183.451 674.734 184.75 674.734 186.117C674.734 188.578 675.008 191.039 675.555 193.5C676.238 195.824 676.58 198.148 676.58 200.473V207.035C676.58 207.035 676.512 207.377 676.375 208.061C676.238 208.607 676.033 209.223 675.76 209.906C675.623 210.453 675.486 211.068 675.35 211.752C675.213 212.299 675.145 212.572 675.145 212.572V214.828V219.75C675.008 220.023 674.871 220.57 674.734 221.391C674.598 222.211 674.461 223.1 674.324 224.057C674.188 224.877 673.982 225.697 673.709 226.518C673.572 227.338 673.436 227.885 673.299 228.158C672.205 239.779 671.248 251.332 670.428 262.816C669.744 274.164 669.402 285.717 669.402 297.475V301.371C669.402 302.875 669.471 304.311 669.607 305.678C669.744 307.045 670.154 308.891 670.838 311.215C671.248 312.445 671.932 313.949 672.889 315.727C673.982 317.367 675.213 319.008 676.58 320.648C678.084 322.289 679.588 323.725 681.092 324.955C682.732 326.049 684.305 326.596 685.809 326.596C687.859 326.596 689.842 326.322 691.756 325.775C693.67 325.092 695.652 324.75 697.703 324.75C700.027 324.75 702.693 324.955 705.701 325.365C708.709 325.775 711.512 326.527 714.109 327.621C716.844 328.715 719.1 330.219 720.877 332.133C722.791 334.047 723.748 336.576 723.748 339.721C723.748 341.088 723.406 342.592 722.723 344.232C722.176 345.736 721.355 347.172 720.262 348.539C719.305 349.906 718.074 351.068 716.57 352.025C715.203 353.119 713.699 353.734 712.059 353.871C711.375 353.871 710.145 353.803 708.367 353.666C706.727 353.529 704.881 353.393 702.83 353.256C700.916 353.119 699.07 352.982 697.293 352.846C695.516 352.709 694.285 352.572 693.602 352.436C693.055 352.436 692.029 352.162 690.525 351.615C689.158 351.205 688.133 351 687.449 351ZM886.375 342.182C886.375 338.354 887.537 335.482 889.861 333.568C892.186 331.518 895.125 330.492 898.68 330.492L912.215 332.133C915.633 332.133 919.051 331.449 922.469 330.082C926.023 328.715 929.305 326.938 932.312 324.75C935.457 322.426 938.123 319.76 940.311 316.752C942.498 313.744 944.002 310.6 944.822 307.318V296.449C945.506 290.434 946.463 284.76 947.693 279.428C948.924 273.959 949.539 268.354 949.539 262.611L946.668 253.793V206.625C946.395 204.984 946.189 203.412 946.053 201.908C946.053 200.268 946.053 198.422 946.053 196.371V159.047C946.6 157.543 946.941 155.766 947.078 153.715C947.215 151.527 947.283 149.203 947.283 146.742C947.283 144.145 947.146 141.957 946.873 140.18C946.736 138.266 946.668 136.488 946.668 134.848L948.104 132.797V109.008C947.01 106.684 946.258 104.633 945.848 102.855C945.438 100.941 944.891 99.3691 944.207 98.1387C943.523 96.7715 942.498 95.7461 941.131 95.0625C939.9 94.3789 937.85 94.0371 934.979 94.0371L923.699 96.9082C920.145 96.9082 916.59 96.3613 913.035 95.2676C909.617 94.0371 905.926 92.7383 901.961 91.3711C895.262 91.7812 889.656 92.2598 885.145 92.8066C880.633 93.2168 876.531 93.9004 872.84 94.8574C869.148 95.8145 865.525 97.0449 861.971 98.5488C858.416 100.053 854.246 102.104 849.461 104.701C847.684 107.025 846.043 109.828 844.539 113.109C843.035 116.391 841.395 119.604 839.617 122.748C837.977 125.756 836.062 128.354 833.875 130.541C831.688 132.729 829.09 133.822 826.082 133.822C825.262 133.822 824.305 133.822 823.211 133.822C822.117 133.822 821.092 133.754 820.135 133.617C819.314 133.344 818.562 133.002 817.879 132.592C817.195 132.182 816.854 131.635 816.854 130.951C816.854 128.627 816.99 126.645 817.264 125.004C817.674 123.227 818.152 121.586 818.699 120.082C819.246 118.578 819.725 117.074 820.135 115.57C820.682 113.93 821.092 112.084 821.365 110.033V96.9082L824.646 89.1152C825.057 88.1582 825.398 86.7227 825.672 84.8086C826.082 82.7578 826.424 80.6387 826.697 78.4512C827.107 76.2637 827.518 74.0762 827.928 71.8887C828.338 69.7012 828.748 67.9238 829.158 66.5566C829.568 64.5059 830.047 62.3867 830.594 60.1992C831.141 58.0117 831.893 56.0293 832.85 54.252C833.807 52.3379 834.969 50.7656 836.336 49.5352C837.84 48.3047 839.754 47.6895 842.078 47.6895C844.676 47.6895 847.479 48.7148 850.486 50.7656C853.494 52.8164 856.502 55.209 859.51 57.9434C862.654 60.541 865.662 63.0703 868.533 65.5312C871.541 67.9922 874.275 69.6328 876.736 70.4531C877.967 70.7266 880.086 71.1367 883.094 71.6836C886.238 72.0938 889.52 72.5723 892.938 73.1191C896.492 73.666 899.773 74.1445 902.781 74.5547C905.789 74.8281 907.908 74.9648 909.139 74.9648C911.189 74.9648 913.035 74.8281 914.676 74.5547C916.316 74.1445 917.889 73.7344 919.393 73.3242C920.896 72.7773 922.469 72.3672 924.109 72.0938C925.887 71.6836 927.938 71.4785 930.262 71.4785H935.389C938.396 71.4785 940.174 71.5469 940.721 71.6836C941.268 71.957 942.293 72.5039 943.797 73.3242C945.438 74.1445 946.395 74.6914 946.668 74.9648H947.693C950.018 74.9648 952.205 74.7598 954.256 74.3496C956.443 73.8027 958.631 73.2559 960.818 72.709C963.006 72.1621 965.193 71.6836 967.381 71.2734C969.568 70.7266 971.893 70.4531 974.354 70.4531C977.225 70.4531 979.891 70.8633 982.352 71.6836C984.812 72.5039 987.137 72.9141 989.324 72.9141H995.682C1001.29 72.9141 1006.76 72.7773 1012.09 72.5039C1017.56 72.0938 1023.09 71.6836 1028.7 71.2734C1034.44 70.8633 1040.25 70.4531 1046.13 70.043C1052.15 69.6328 1058.5 69.3594 1065.2 69.2227C1067.12 69.2227 1068.76 69.4961 1070.12 70.043C1071.49 70.4531 1072.93 70.6582 1074.43 70.6582C1076.21 70.6582 1077.64 70.248 1078.74 69.4277C1079.97 68.4707 1081.06 67.4453 1082.02 66.3516C1082.98 65.1211 1083.87 63.959 1084.69 62.8652C1085.64 61.6348 1086.74 60.6777 1087.97 59.9941C1089.74 59.3105 1091.38 58.4902 1092.89 57.5332C1094.53 56.4395 1096.03 55.4141 1097.4 54.457C1098.9 53.3633 1100.34 52.4746 1101.71 51.791C1103.21 51.1074 1104.85 50.7656 1106.63 50.7656C1108.13 50.7656 1109.43 51.6543 1110.53 53.4316C1111.76 55.0723 1112.85 56.4395 1113.81 57.5332C1113.81 57.8066 1113.88 58.0117 1114.01 58.1484C1114.01 58.2852 1114.08 58.3535 1114.22 58.3535C1113.94 59.1738 1113.81 60.2676 1113.81 61.6348C1113.81 62.8652 1113.81 64.2324 1113.81 65.7363V86.0391C1113.81 87.8164 1113.81 89.252 1113.81 90.3457C1113.81 91.4395 1113.94 92.3281 1114.22 93.0117L1115.86 115.16C1115.86 115.57 1115.79 116.322 1115.65 117.416C1115.65 118.51 1115.58 119.672 1115.45 120.902C1115.45 121.996 1115.38 123.09 1115.24 124.184C1115.24 125.141 1115.24 125.756 1115.24 126.029C1114.29 127.67 1112.51 128.49 1109.91 128.49C1107.45 128.49 1105.26 127.602 1103.35 125.824C1101.43 123.91 1099.59 121.723 1097.81 119.262C1096.17 116.801 1094.53 114.408 1092.89 112.084C1091.38 109.623 1089.74 107.777 1087.97 106.547C1085.23 104.359 1082.57 102.514 1079.97 101.01C1077.51 99.5059 1075.18 97.3184 1073 94.4473L1065.61 95.2676L1017.21 91.3711L1010.24 93.0117L999.988 91.3711H996.297L993.221 94.4473C993.221 94.3105 993.152 94.9941 993.016 96.498C992.879 98.002 992.674 99.8477 992.4 102.035C992.264 104.223 992.127 106.41 991.99 108.598C991.854 110.785 991.785 112.562 991.785 113.93L993.221 135.258V176.068L990.35 191.449L993.221 216.469C993.221 217.973 993.152 219.135 993.016 219.955C992.879 220.775 992.469 222.006 991.785 223.646C991.785 225.287 991.785 227.953 991.785 231.645C991.922 235.336 991.99 239.506 991.99 244.154C991.99 248.529 991.922 252.426 991.785 255.844C991.785 259.262 991.785 261.791 991.785 263.432L990.35 273.686C990.35 275.326 990.418 277.65 990.555 280.658C990.691 283.529 990.896 286.742 991.17 290.297C991.443 293.852 991.854 297.543 992.4 301.371C992.947 305.062 993.699 308.48 994.656 311.625C995.613 314.77 996.707 317.504 997.938 319.828C999.305 322.016 1000.88 323.314 1002.65 323.725L1029.31 330.492H1034.03L1039.57 329.262C1041.21 329.262 1042.58 329.74 1043.67 330.697C1044.9 331.518 1045.86 332.611 1046.54 333.979C1047.36 335.346 1047.91 336.781 1048.18 338.285C1048.59 339.652 1048.8 340.951 1048.8 342.182C1048.8 344.506 1048.32 346.352 1047.36 347.719C1046.4 348.949 1045.17 349.906 1043.67 350.59C1042.17 351.273 1040.46 351.684 1038.54 351.82C1036.77 351.957 1034.99 352.025 1033.21 352.025C1031.71 352.025 1030.34 351.82 1029.11 351.41C1027.88 351 1026.51 350.248 1025.01 349.154C1023.78 348.471 1022.34 347.855 1020.7 347.309C1019.06 346.762 1017.42 346.488 1015.78 346.488L1005.53 349.154C1002.79 349.154 999.51 348.676 995.682 347.719C991.854 346.762 987.957 345.941 983.992 345.258C983.855 345.258 983.24 345.395 982.146 345.668C981.053 345.805 979.822 346.078 978.455 346.488C977.088 346.762 975.789 347.035 974.559 347.309C973.465 347.445 972.781 347.514 972.508 347.514H954.051C950.906 347.65 948.104 348.266 945.643 349.359C943.182 350.453 940.447 351 937.439 351C936.482 350.727 935.115 350.385 933.338 349.975C931.561 349.428 930.535 349.154 930.262 349.154C928.348 349.154 926.57 349.428 924.93 349.975C923.426 350.385 921.717 350.863 919.803 351.41C917.205 351.957 914.676 352.504 912.215 353.051C909.891 353.598 907.293 353.871 904.422 353.871H901.346C899.432 353.871 897.654 353.734 896.014 353.461C894.373 353.188 892.322 352.709 889.861 352.025C889.861 351.752 889.52 350.453 888.836 348.129C888.152 345.668 887.332 343.686 886.375 342.182ZM1256.13 348.539H1251.41C1251.28 348.539 1250.87 348.607 1250.18 348.744C1249.64 348.881 1249.02 349.086 1248.34 349.359C1247.65 349.496 1246.97 349.633 1246.29 349.77C1245.6 349.906 1245.19 349.975 1245.06 349.975C1238.08 350.658 1231.04 351.068 1223.93 351.205C1216.82 351.479 1209.71 351.615 1202.61 351.615C1201.1 351.615 1199.19 351.547 1196.86 351.41C1194.68 351.41 1192.56 351.137 1190.51 350.59C1188.46 349.906 1186.68 348.949 1185.17 347.719C1183.67 346.488 1182.92 344.711 1182.92 342.387C1182.92 340.609 1183.33 338.832 1184.15 337.055C1184.97 335.277 1186.13 334.047 1187.63 333.363C1189 333.227 1191.39 333.09 1194.81 332.953C1198.23 332.816 1201.79 332.68 1205.48 332.543C1209.3 332.27 1212.93 332.064 1216.35 331.928C1219.76 331.654 1222.16 331.381 1223.52 331.107C1224.34 331.107 1225.44 331.107 1226.8 331.107C1228.17 330.971 1229.54 330.766 1230.91 330.492C1232.41 330.082 1233.71 329.604 1234.8 329.057C1236.03 328.51 1236.99 327.758 1237.67 326.801C1239.31 323.383 1240.13 319.76 1240.13 315.932V309.574V293.168C1240.13 292.758 1240.2 291.801 1240.34 290.297C1240.61 288.793 1240.82 287.152 1240.96 285.375C1241.23 283.598 1241.5 281.889 1241.78 280.248C1242.05 278.607 1242.19 277.582 1242.19 277.172C1242.87 262.953 1243.28 248.666 1243.42 234.311C1243.55 219.955 1243.62 205.668 1243.62 191.449C1243.62 185.434 1243.55 179.555 1243.42 173.812C1243.28 168.07 1243.21 162.328 1243.21 156.586C1243.21 154.535 1243.21 151.186 1243.21 146.537C1243.35 141.752 1243.42 136.83 1243.42 131.771C1243.42 126.576 1243.42 121.723 1243.42 117.211C1243.55 112.562 1243.62 109.35 1243.62 107.572C1242.94 104.838 1241.98 102.582 1240.75 100.805C1239.66 98.8906 1238.15 97.0449 1236.24 95.2676C1235.55 95.1309 1234.32 94.9941 1232.55 94.8574C1230.91 94.584 1229.13 94.3789 1227.21 94.2422C1225.44 93.9688 1223.66 93.7637 1221.88 93.627C1220.24 93.4902 1219.08 93.4219 1218.4 93.4219C1218.12 93.4219 1217.44 93.5586 1216.35 93.832C1215.39 93.9688 1214.29 94.1738 1213.06 94.4473C1211.97 94.584 1210.88 94.7891 1209.78 95.0625C1208.69 95.1992 1208.01 95.2676 1207.73 95.2676C1206.91 95.4043 1205.2 95.4727 1202.61 95.4727C1200.14 95.4727 1197.48 95.4727 1194.61 95.4727C1191.87 95.4727 1189.28 95.4727 1186.81 95.4727C1184.35 95.4727 1182.58 95.4043 1181.48 95.2676C1179.43 96.0879 1177.18 96.7031 1174.71 97.1133C1172.25 97.3867 1169.93 98.2754 1167.74 99.7793C1167.74 100.053 1167.33 100.6 1166.51 101.42C1165.69 102.24 1165.14 102.787 1164.87 103.061C1163.78 104.291 1162.27 106 1160.36 108.188C1158.58 110.238 1156.8 112.357 1155.03 114.545C1153.25 116.732 1151.61 118.646 1150.11 120.287C1148.74 121.928 1147.99 122.816 1147.85 122.953C1146.89 124.184 1145.94 125.893 1144.98 128.08C1144.16 130.131 1143.2 132.182 1142.11 134.232C1141.01 136.146 1139.71 137.855 1138.21 139.359C1136.71 140.863 1134.86 141.615 1132.67 141.615C1131.03 141.615 1129.87 141.205 1129.19 140.385C1128.5 139.428 1127.96 138.334 1127.55 137.104C1127.55 136.693 1127.55 136.078 1127.55 135.258C1127.55 134.301 1127.48 133.344 1127.34 132.387C1127.34 131.293 1127.34 130.268 1127.34 129.311C1127.34 128.217 1127.34 127.465 1127.34 127.055C1127.34 126.645 1127.34 126.029 1127.34 125.209C1127.34 124.252 1127.34 123.363 1127.34 122.543C1127.48 121.586 1127.55 120.766 1127.55 120.082C1127.55 119.262 1127.55 118.783 1127.55 118.646C1127.68 118.236 1127.96 117.211 1128.37 115.57C1128.91 113.793 1129.46 111.947 1130.01 110.033C1130.55 108.119 1131.03 106.342 1131.44 104.701C1131.99 103.061 1132.4 102.035 1132.67 101.625C1132.67 101.215 1132.81 100.326 1133.08 98.959C1133.36 97.5918 1133.63 96.1562 1133.9 94.6523C1134.31 93.0117 1134.66 91.5762 1134.93 90.3457C1135.2 88.9785 1135.41 88.0898 1135.54 87.6797C1135.54 87.4063 1135.75 86.6543 1136.16 85.4238C1136.71 84.1934 1137.25 82.8262 1137.8 81.3223C1138.35 79.8184 1138.83 78.4512 1139.24 77.2207C1139.78 75.9902 1140.06 75.2383 1140.06 74.9648C1140.47 73.8711 1140.88 72.6406 1141.29 71.2734C1141.83 69.7695 1142.45 68.4023 1143.13 67.1719C1143.95 65.9414 1144.91 64.916 1146 64.0957C1147.1 63.1387 1148.4 62.6602 1149.9 62.6602C1152.22 62.6602 1154.07 63.2754 1155.44 64.5059C1156.94 65.7363 1158.31 67.1035 1159.54 68.6074C1160.77 70.1113 1162 71.6836 1163.23 73.3242C1164.46 74.8281 1165.96 75.8535 1167.74 76.4004C1170.61 76.4004 1173.62 76.332 1176.77 76.1953C1179.91 76.0586 1183.05 75.9902 1186.2 75.9902C1192.08 75.9902 1197.89 76.127 1203.63 76.4004C1209.37 76.6738 1215.05 77.2891 1220.65 78.2461C1220.65 78.2461 1220.93 78.3828 1221.47 78.6562C1222.02 78.793 1222.57 78.998 1223.11 79.2715C1223.8 79.4082 1224.41 79.5449 1224.96 79.6816C1225.64 79.8184 1226.05 79.8867 1226.19 79.8867H1232.75C1236.31 79.8867 1239.52 79.5449 1242.39 78.8613C1245.4 78.1777 1248.75 77.8359 1252.44 77.8359C1252.99 77.8359 1253.74 77.8359 1254.7 77.8359C1255.79 77.8359 1256.88 77.8359 1257.98 77.8359C1259.07 77.8359 1260.03 77.9043 1260.85 78.041C1261.67 78.041 1262.21 78.1094 1262.49 78.2461C1263.04 78.2461 1264.13 78.3828 1265.77 78.6562C1267.55 78.793 1269.46 78.998 1271.51 79.2715C1273.56 79.4082 1275.41 79.5449 1277.05 79.6816C1278.83 79.8184 1279.99 79.8867 1280.54 79.8867C1281.63 79.4766 1282.93 79.1348 1284.43 78.8613C1286.07 78.5879 1288.19 78.3828 1290.79 78.2461C1293.52 78.1094 1296.94 78.041 1301.04 78.041C1305.14 77.9043 1310.27 77.8359 1316.42 77.8359L1353.54 78.2461C1355.87 78.2461 1358.26 77.4941 1360.72 75.9902C1363.18 74.3496 1365.64 72.5039 1368.1 70.4531C1370.56 68.2656 1372.96 66.1465 1375.28 64.0957C1377.74 62.0449 1380.13 60.6094 1382.46 59.7891H1384.92C1388.88 59.7891 1391.69 61.9082 1393.33 66.1465C1393.46 67.7871 1393.74 70.8633 1394.15 75.375C1394.56 79.75 1394.97 84.3984 1395.38 89.3203C1395.93 94.2422 1396.47 98.8906 1397.02 103.266C1397.57 107.641 1397.98 110.717 1398.25 112.494C1398.25 112.768 1398.32 113.246 1398.46 113.93C1398.59 114.613 1398.73 115.434 1398.87 116.391C1399.14 117.211 1399.34 118.031 1399.48 118.852C1399.62 119.535 1399.69 119.945 1399.69 120.082V123.158C1399.69 126.713 1399.55 129.926 1399.28 132.797C1399 135.668 1398.66 138.949 1398.25 142.641C1397.7 143.734 1397.02 144.486 1396.2 144.896C1395.52 145.17 1394.83 145.307 1394.15 145.307C1393.74 145.307 1393.33 145.102 1392.92 144.691C1392.51 144.555 1392.17 144.35 1391.89 144.076C1389.84 143.119 1388.06 141.752 1386.56 139.975C1385.19 138.197 1383.96 136.283 1382.87 134.232C1381.91 132.182 1381.02 130.062 1380.2 127.875C1379.38 125.551 1378.56 123.432 1377.74 121.518C1375.42 115.639 1371.59 110.922 1366.26 107.367C1361.06 103.813 1355.66 100.805 1350.06 98.3438C1346.5 96.8398 1343.02 96.0879 1339.6 96.0879C1336.18 96.0879 1332.49 95.8145 1328.52 95.2676C1328.25 95.2676 1327.22 94.9941 1325.45 94.4473C1323.81 93.7637 1322.71 93.4219 1322.17 93.4219H1312.94H1302.48C1301.38 93.4219 1299.81 93.6953 1297.76 94.2422C1295.71 94.6523 1294.62 94.9941 1294.48 95.2676C1294.07 95.8145 1293.59 96.3613 1293.04 96.9082C1292.09 98.1387 1291.47 99.0957 1291.2 99.7793C1290.65 100.736 1290.04 102.035 1289.35 103.676C1288.67 105.18 1288.33 106 1288.33 106.137C1288.19 106.547 1288.05 107.299 1287.92 108.393C1287.78 109.35 1287.64 110.375 1287.51 111.469C1287.51 112.562 1287.44 113.656 1287.3 114.75C1287.17 115.707 1287.03 116.391 1286.89 116.801C1286.89 118.988 1286.96 122.748 1287.1 128.08C1287.23 133.412 1287.3 139.154 1287.3 145.307C1287.3 151.459 1287.23 157.27 1287.1 162.738C1286.96 168.07 1286.89 171.693 1286.89 173.607C1286.89 180.58 1286.35 187.416 1285.25 194.115C1284.29 200.678 1283.82 207.445 1283.82 214.418C1283.82 221.938 1284.02 229.457 1284.43 236.977C1284.98 244.359 1285.25 251.947 1285.25 259.74C1285.25 269.174 1284.98 278.676 1284.43 288.246C1284.02 297.816 1283.82 307.387 1283.82 316.957C1283.82 319.828 1284.43 322.084 1285.66 323.725C1287.03 325.365 1288.74 326.596 1290.79 327.416C1292.84 328.236 1295.1 328.783 1297.56 329.057C1300.15 329.33 1302.62 329.535 1304.94 329.672C1306.03 329.809 1307.74 329.945 1310.07 330.082C1312.53 330.219 1315.06 330.355 1317.65 330.492C1320.39 330.629 1322.92 330.766 1325.24 330.902C1327.57 331.039 1329.21 331.107 1330.16 331.107C1332.76 332.064 1334.68 333.568 1335.91 335.619C1337.27 337.67 1337.96 339.926 1337.96 342.387C1337.96 345.531 1337.07 347.992 1335.29 349.77C1333.51 351.41 1331.26 353.119 1328.52 354.896H1328.11C1323.05 354.896 1318.34 354.486 1313.96 353.666C1309.72 352.982 1305.21 352.299 1300.43 351.615C1285.8 349.564 1271.03 348.539 1256.13 348.539ZM755.945 660.443C755.262 658.666 754.852 657.162 754.715 655.932C754.578 654.701 754.51 653.129 754.51 651.215C754.51 648.344 754.783 645.541 755.33 642.807C755.877 640.072 756.492 637.406 757.176 634.809C757.996 632.211 758.748 629.682 759.432 627.221C760.252 624.623 760.936 622.025 761.482 619.428C762.166 616.146 762.781 612.934 763.328 609.789C764.012 606.508 765.789 603.91 768.66 601.996C769.07 601.859 769.822 601.723 770.916 601.586C772.01 601.449 773.172 601.312 774.402 601.176C775.633 601.039 776.727 600.902 777.684 600.766C778.777 600.629 779.529 600.561 779.939 600.561C780.486 600.561 781.238 600.902 782.195 601.586C783.289 602.27 783.973 602.885 784.246 603.432C786.434 607.396 788.143 611.02 789.373 614.301C790.604 617.582 792.176 621.615 794.09 626.4L795.525 628.861V637.475C795.936 639.115 796.482 640.551 797.166 641.781C797.986 642.875 798.875 643.9 799.832 644.857C800.789 645.678 801.746 646.498 802.703 647.318C803.797 648.139 804.891 649.096 805.984 650.189C806.941 651.557 807.762 652.992 808.445 654.496C809.266 655.863 810.154 657.162 811.111 658.393C812.068 659.623 813.23 660.717 814.598 661.674C815.965 662.494 817.811 662.904 820.135 662.904C821.092 663.178 823.006 663.451 825.877 663.725C828.885 663.998 832.029 664.34 835.311 664.75C838.729 665.023 841.873 665.297 844.744 665.57C847.752 665.844 849.803 666.049 850.896 666.186H852.742C855.75 666.186 858.621 665.502 861.355 664.135C864.227 662.631 867.029 661.4 869.764 660.443C870.037 660.17 870.994 659.896 872.635 659.623C874.275 659.213 875.232 659.008 875.506 659.008C875.643 658.871 876.258 658.324 877.352 657.367C878.582 656.273 879.471 655.453 880.018 654.906C880.291 654.496 880.701 653.881 881.248 653.061C881.932 652.24 882.547 651.488 883.094 650.805C883.777 649.984 884.324 649.301 884.734 648.754C885.281 648.207 885.623 647.865 885.76 647.729C885.76 647.592 885.76 647.182 885.76 646.498C885.896 645.678 886.033 644.857 886.17 644.037C886.307 643.217 886.443 642.465 886.58 641.781C886.717 641.098 886.922 640.688 887.195 640.551C887.195 640.414 887.332 640.072 887.605 639.525C887.879 638.842 888.152 638.227 888.426 637.68C888.699 636.996 888.973 636.381 889.246 635.834C889.52 635.15 889.656 634.74 889.656 634.604C889.793 634.33 889.93 633.783 890.066 632.963C890.203 632.143 890.34 631.322 890.477 630.502C890.613 629.545 890.75 628.725 890.887 628.041C891.023 627.221 891.092 626.674 891.092 626.4C891.092 625.854 890.818 624.828 890.271 623.324C889.861 621.684 889.656 620.727 889.656 620.453C889.52 619.906 889.383 618.744 889.246 616.967C889.109 615.189 888.973 613.275 888.836 611.225C888.699 609.174 888.562 607.328 888.426 605.688C888.289 603.91 888.221 602.68 888.221 601.996C888.084 601.312 887.605 600.424 886.785 599.33C885.965 598.1 885.008 596.869 883.914 595.639C882.957 594.271 881.932 593.041 880.838 591.947C879.744 590.717 878.855 589.76 878.172 589.076C876.668 587.025 874.822 585.111 872.635 583.334C870.447 581.557 868.191 580.189 865.867 579.232C865.457 578.959 864.637 578.686 863.406 578.412C862.176 578.002 861.424 577.797 861.15 577.797C861.014 577.66 860.604 577.318 859.92 576.771C859.236 576.088 858.484 575.473 857.664 574.926C856.98 574.242 856.297 573.627 855.613 573.08C854.93 572.533 854.451 572.191 854.178 572.055C853.904 571.918 853.426 571.713 852.742 571.439C852.059 571.029 851.443 570.824 850.896 570.824C850.76 570.688 850.213 570.414 849.256 570.004C848.299 569.594 847.273 569.184 846.18 568.773C845.086 568.227 844.061 567.748 843.104 567.338C842.146 566.928 841.6 566.654 841.463 566.518C840.643 566.244 840.027 565.971 839.617 565.697C839.207 565.561 838.865 565.355 838.592 565.082C838.318 564.945 837.908 564.604 837.361 564.057C836.814 563.51 836.199 562.895 835.516 562.211C834.969 561.527 834.422 560.912 833.875 560.365C833.328 559.818 832.986 559.477 832.85 559.34C832.713 559.203 832.303 558.998 831.619 558.725C831.072 558.314 830.389 557.904 829.568 557.494C828.885 556.947 828.133 556.469 827.312 556.059C826.629 555.512 826.082 555.102 825.672 554.828C821.57 552.641 817.605 550.111 813.777 547.24C810.086 544.369 806.395 541.498 802.703 538.627C799.012 535.619 795.252 532.748 791.424 530.014C787.732 527.143 783.904 524.545 779.939 522.221C779.393 521.537 778.504 520.238 777.273 518.324C776.043 516.41 774.744 514.359 773.377 512.172C772.146 509.984 770.916 508.002 769.686 506.225C768.455 504.311 767.635 503.012 767.225 502.328C766.951 502.055 766.609 501.508 766.199 500.688C765.789 499.867 765.311 499.047 764.764 498.227C764.354 497.27 763.943 496.381 763.533 495.561C763.26 494.74 763.055 494.125 762.918 493.715V483.051C762.918 477.855 763.055 472.66 763.328 467.465C763.738 462.27 764.559 457.279 765.789 452.494C766.883 448.666 768.797 444.564 771.531 440.189C774.402 435.678 777.684 431.371 781.375 427.27C785.066 423.031 788.895 419.34 792.859 416.195C796.824 412.914 800.584 410.59 804.139 409.223C804.275 409.223 804.754 409.223 805.574 409.223C806.395 409.086 807.283 409.018 808.24 409.018C809.334 408.881 810.291 408.744 811.111 408.607C812.068 408.471 812.684 408.334 812.957 408.197C813.367 408.197 814.188 408.061 815.418 407.787C816.648 407.514 817.947 407.172 819.314 406.762C820.682 406.352 821.98 406.01 823.211 405.736C824.441 405.463 825.262 405.326 825.672 405.326C825.809 405.326 826.424 405.326 827.518 405.326C828.748 405.326 830.115 405.326 831.619 405.326C833.26 405.189 834.9 405.121 836.541 405.121C838.182 405.121 839.412 405.121 840.232 405.121C840.779 405.121 841.805 405.121 843.309 405.121C844.812 405.121 846.385 405.189 848.025 405.326C849.666 405.326 851.17 405.326 852.537 405.326C854.041 405.326 855.066 405.326 855.613 405.326C856.844 405.873 858.143 406.283 859.51 406.557C860.877 406.693 862.176 406.898 863.406 407.172C864.773 407.309 866.072 407.514 867.303 407.787C868.67 408.061 869.969 408.539 871.199 409.223C871.473 409.633 871.951 410.248 872.635 411.068C873.318 411.752 873.797 412.23 874.07 412.504C876.805 415.922 879.812 418.725 883.094 420.912C886.375 423.1 890.34 424.193 894.988 424.193C898.27 424.193 900.73 423.783 902.371 422.963C904.012 422.006 905.379 420.98 906.473 419.887C907.566 418.656 908.66 417.631 909.754 416.811C910.848 415.854 912.557 415.375 914.881 415.375C916.111 415.375 917 415.512 917.547 415.785C918.094 415.922 918.846 416.742 919.803 418.246C920.076 418.656 920.486 419.408 921.033 420.502C921.58 421.596 922.127 422.758 922.674 423.988C923.357 425.219 923.904 426.381 924.314 427.475C924.861 428.432 925.271 429.115 925.545 429.525V430.551V432.396C925.408 432.533 925.203 432.943 924.93 433.627C924.793 434.311 924.588 435.062 924.314 435.883C924.178 436.703 924.041 437.455 923.904 438.139C923.768 438.822 923.699 439.232 923.699 439.369V456.391C921.922 458.988 920.76 461.381 920.213 463.568C919.803 465.756 919.051 468.217 917.957 470.951C917.957 471.225 917.615 472.182 916.932 473.822C916.248 475.326 915.77 476.146 915.496 476.283C914.812 478.061 914.197 479.633 913.65 481C913.24 482.23 912.625 483.324 911.805 484.281C911.121 485.102 910.096 485.717 908.729 486.127C907.498 486.537 905.721 486.742 903.396 486.742C900.252 486.742 897.654 486.127 895.604 484.896C893.553 483.666 891.912 482.094 890.682 480.18C889.451 478.266 888.426 476.078 887.605 473.617C886.922 471.156 886.238 468.695 885.555 466.234C884.871 463.637 884.119 461.176 883.299 458.852C882.479 456.391 881.385 454.271 880.018 452.494C879.744 452.221 879.129 451.537 878.172 450.443C877.352 449.35 876.395 448.188 875.301 446.957C874.207 445.727 873.113 444.564 872.02 443.471C871.062 442.24 870.311 441.352 869.764 440.805C869.08 439.984 867.986 438.891 866.482 437.523C864.979 436.156 863.406 434.789 861.766 433.422C860.125 431.918 858.484 430.688 856.844 429.73C855.203 428.637 853.836 428.09 852.742 428.09H834.285C833.328 427.406 832.439 426.996 831.619 426.859C830.936 426.723 830.184 426.654 829.363 426.654H827.107C822.869 429.389 818.836 432.465 815.008 435.883C811.18 439.301 807.557 442.855 804.139 446.547V449.418C804.139 451.879 803.865 453.93 803.318 455.57C802.908 457.211 802.703 459.262 802.703 461.723V463.979C802.703 464.252 802.908 465.141 803.318 466.645C803.865 468.148 804.139 469.037 804.139 469.311C804.275 471.635 804.344 473.686 804.344 475.463C804.344 477.24 804.412 478.949 804.549 480.59C804.822 482.23 805.232 483.871 805.779 485.512C806.326 487.152 807.215 488.93 808.445 490.844C808.855 491.117 809.266 491.459 809.676 491.869L811.521 493.715C811.932 494.125 812.889 495.014 814.393 496.381C815.896 497.748 817.469 499.252 819.109 500.893C820.887 502.396 822.527 503.832 824.031 505.199C825.672 506.566 826.697 507.455 827.107 507.865C827.244 508.002 827.586 508.344 828.133 508.891C828.68 509.438 829.227 510.053 829.773 510.736C830.457 511.42 831.072 512.035 831.619 512.582C832.303 513.129 832.713 513.471 832.85 513.607C833.123 513.744 833.807 514.086 834.9 514.633C836.131 515.18 837.498 515.863 839.002 516.684C840.506 517.367 842.01 518.119 843.514 518.939C845.018 519.76 846.18 520.375 847 520.785C850.555 522.289 854.178 524.066 857.869 526.117C861.697 528.168 865.662 529.193 869.764 529.193C876.326 533.568 883.299 538.148 890.682 542.934C898.064 547.719 904.832 552.709 910.984 557.904C911.531 558.178 912.078 558.656 912.625 559.34C913.309 560.023 913.787 560.502 914.061 560.775C914.197 561.049 914.402 561.596 914.676 562.416C915.086 563.1 915.496 563.92 915.906 564.877C916.453 565.834 916.863 566.723 917.137 567.543C917.547 568.363 917.82 568.842 917.957 568.979C920.281 572.533 922.674 575.814 925.135 578.822C927.596 581.693 929.441 585.111 930.672 589.076C930.809 589.35 930.945 589.965 931.082 590.922C931.355 591.879 931.561 592.973 931.697 594.203C931.834 595.297 931.971 596.391 932.107 597.484C932.244 598.441 932.381 598.988 932.518 599.125C932.518 599.398 932.723 600.082 933.133 601.176C933.68 602.27 933.953 603.021 933.953 603.432V606.303C933.953 608.627 933.475 610.541 932.518 612.045C931.697 613.412 931.082 615.395 930.672 617.992C930.672 618.539 930.74 619.975 930.877 622.299C931.014 624.486 931.082 626.674 931.082 628.861C931.082 631.459 930.945 633.031 930.672 633.578C930.672 633.715 930.467 634.125 930.057 634.809C929.783 635.492 929.373 636.244 928.826 637.064C928.416 637.748 928.006 638.432 927.596 639.115C927.186 639.799 926.912 640.277 926.775 640.551C926.502 640.961 925.887 642.191 924.93 644.242C923.973 646.156 922.879 648.275 921.648 650.6C920.555 652.787 919.529 654.906 918.572 656.957C917.615 658.871 916.932 660.033 916.521 660.443C916.521 660.717 916.043 661.332 915.086 662.289C914.266 663.246 913.24 664.34 912.01 665.57C910.779 666.801 909.549 668.031 908.318 669.262C907.225 670.355 906.336 671.244 905.652 671.928C901.277 675.893 896.766 679.379 892.117 682.387C887.469 685.258 882.41 687.445 876.941 688.949C876.258 689.086 874.686 689.428 872.225 689.975C869.764 690.521 867.098 691.068 864.227 691.615C861.355 692.299 858.553 692.914 855.818 693.461C853.221 694.008 851.238 694.35 849.871 694.486H848.436C841.053 694.486 833.396 694.281 825.467 693.871C817.674 693.461 810.086 692.299 802.703 690.385C801.336 689.975 800.105 689.428 799.012 688.744C797.918 687.924 796.756 687.104 795.525 686.283C794.432 685.463 793.338 684.643 792.244 683.822C791.15 683.002 789.92 682.318 788.553 681.771C787.596 681.361 786.023 680.814 783.836 680.131C781.648 679.311 779.393 678.49 777.068 677.67C774.881 676.85 772.83 676.098 770.916 675.414C769.002 674.594 767.771 673.91 767.225 673.363C766.814 672.816 766.062 671.928 764.969 670.697C763.875 669.467 762.713 668.168 761.482 666.801C760.252 665.434 759.09 664.135 757.996 662.904C757.039 661.674 756.355 660.854 755.945 660.443ZM1026.03 688.949C1022.48 687.719 1018.72 686.83 1014.75 686.283C1010.79 685.6 1006.76 684.984 1002.65 684.438C998.689 683.754 994.861 682.934 991.17 681.977C987.479 681.02 984.197 679.584 981.326 677.67C978.455 675.619 976.131 672.885 974.354 669.467C972.713 666.049 971.893 661.605 971.893 656.137V651.01L975.789 611.84C976.336 610.746 976.814 609.926 977.225 609.379C977.635 608.695 978.523 608.354 979.891 608.354C982.898 608.354 985.086 609.652 986.453 612.25C991.648 619.633 996.16 626.811 999.988 633.783C1003.95 640.756 1008.19 648.139 1012.7 655.932C1013.25 657.299 1014.69 658.666 1017.01 660.033C1019.47 661.264 1022.34 662.562 1025.62 663.93C1028.9 665.16 1032.46 666.322 1036.29 667.416C1040.12 668.51 1043.74 669.467 1047.16 670.287C1050.71 671.107 1053.86 671.791 1056.59 672.338C1059.46 672.748 1061.58 672.953 1062.95 672.953H1066.84C1069.03 672.953 1070.26 672.816 1070.54 672.543C1070.95 672.27 1071.63 671.791 1072.59 671.107C1073.68 670.424 1074.77 669.672 1075.87 668.852C1077.1 668.031 1078.19 667.279 1079.15 666.596C1080.24 665.912 1080.99 665.434 1081.4 665.16C1081.95 664.613 1082.91 664.066 1084.28 663.52C1085.64 662.973 1086.6 662.699 1087.15 662.699L1095.55 660.443C1096.1 660.443 1097.33 659.008 1099.25 656.137C1101.16 653.129 1103.14 649.848 1105.19 646.293C1107.65 642.191 1110.25 637.475 1112.99 632.143C1112.99 631.869 1113.05 631.117 1113.19 629.887C1113.33 628.656 1113.4 627.357 1113.4 625.99C1113.53 624.486 1113.67 623.119 1113.81 621.889C1113.94 620.521 1114.01 619.564 1114.01 619.018V615.736C1114.01 614.232 1113.94 612.934 1113.81 611.84C1113.81 610.609 1113.67 609.447 1113.4 608.354C1113.26 607.123 1112.99 605.824 1112.58 604.457C1112.3 603.09 1111.89 601.449 1111.35 599.535L1110.94 598.305C1109.84 596.801 1108.41 595.434 1106.63 594.203C1104.99 592.973 1103.48 591.537 1102.12 589.896C1100.48 587.572 1099.31 585.795 1098.63 584.564C1097.95 583.334 1097.26 582.309 1096.58 581.488C1095.9 580.668 1094.94 579.916 1093.71 579.232C1092.48 578.549 1090.5 577.592 1087.76 576.361C1087.62 576.361 1086.87 576.156 1085.51 575.746C1084.14 575.336 1083.11 574.857 1082.43 574.311C1080.52 573.217 1078.67 572.465 1076.89 572.055C1075.12 571.508 1073.27 571.166 1071.36 571.029C1069.58 570.756 1067.73 570.551 1065.82 570.414C1063.9 570.141 1061.92 569.662 1059.87 568.979C1057.96 567.475 1056.38 565.971 1055.15 564.467C1053.92 562.826 1052.15 561.459 1049.82 560.365C1049.41 560.365 1048.66 560.297 1047.57 560.16C1046.61 559.887 1045.52 559.613 1044.29 559.34C1043.19 559.066 1042.1 558.861 1041 558.725C1040.05 558.451 1039.43 558.314 1039.16 558.314L1028.49 547.24C1026.58 545.873 1024.8 544.916 1023.16 544.369C1021.66 543.686 1020.22 543.07 1018.86 542.523C1017.49 541.977 1016.12 541.361 1014.75 540.678C1013.52 539.994 1012.09 538.9 1010.45 537.396C1009.22 536.303 1008.26 535.209 1007.58 534.115C1007.03 533.021 1006.55 531.928 1006.14 530.834C1005.73 529.74 1005.32 528.646 1004.91 527.553C1004.64 526.459 1004.16 525.365 1003.47 524.271C1003.2 523.178 1002.59 521.879 1001.63 520.375C1000.81 518.871 1000.12 517.709 999.578 516.889C996.434 513.197 993.904 510.053 991.99 507.455C990.076 504.721 988.572 502.055 987.479 499.457C986.521 496.859 985.838 494.057 985.428 491.049C985.154 487.904 985.018 483.939 985.018 479.154C985.018 473.412 985.701 467.465 987.068 461.312C988.436 455.023 990.418 448.939 993.016 443.061C995.613 437.182 998.758 431.645 1002.45 426.449C1006.28 421.254 1010.58 416.811 1015.37 413.119C1016.74 411.752 1018.24 410.795 1019.88 410.248C1021.66 409.564 1023.44 409.086 1025.21 408.812C1027.13 408.539 1029.04 408.402 1030.96 408.402C1032.87 408.266 1034.71 407.992 1036.49 407.582C1038.27 407.172 1039.91 406.557 1041.41 405.736C1043.05 404.916 1044.63 404.096 1046.13 403.275C1047.77 402.318 1049.41 401.498 1051.05 400.814C1052.83 400.131 1054.68 399.789 1056.59 399.789C1062.47 399.789 1068.01 400.131 1073.2 400.814C1078.53 401.498 1083.8 402.455 1088.99 403.686C1092.55 404.506 1095.76 405.6 1098.63 406.967C1101.64 408.334 1104.99 409.018 1108.68 409.018C1111.28 409.018 1113.6 408.266 1115.65 406.762C1117.84 405.258 1119.96 403.617 1122.01 401.84C1124.06 399.926 1126.18 398.217 1128.37 396.713C1130.69 395.209 1133.29 394.457 1136.16 394.457C1138.76 394.457 1140.47 395.688 1141.29 398.148C1142.11 400.609 1142.52 402.934 1142.52 405.121L1138.62 418.451L1140.26 442.65V447.982C1140.26 451.674 1140.12 454.818 1139.85 457.416C1139.71 459.877 1139.17 463.021 1138.21 466.85C1137.94 467.533 1137.46 468.148 1136.78 468.695C1136.23 469.242 1135.75 469.516 1135.34 469.516C1135.34 469.789 1134.86 469.926 1133.9 469.926C1133.22 469.926 1132.13 469.037 1130.62 467.26C1129.26 465.482 1127.55 463.227 1125.5 460.492C1123.58 457.758 1121.53 454.75 1119.34 451.469C1117.16 448.188 1114.97 445.043 1112.78 442.035C1110.59 438.891 1108.47 436.088 1106.42 433.627C1104.51 431.166 1102.8 429.457 1101.3 428.5C1098.56 426.723 1095.55 425.287 1092.27 424.193C1088.99 422.963 1085.57 422.074 1082.02 421.527C1078.46 420.844 1074.91 420.365 1071.36 420.092C1067.8 419.818 1064.52 419.682 1061.51 419.682C1057 419.682 1053.1 420.092 1049.82 420.912C1046.54 421.732 1043.67 423.031 1041.21 424.809C1038.75 426.586 1036.56 428.91 1034.65 431.781C1032.73 434.516 1030.96 437.797 1029.31 441.625C1027.95 444.633 1026.79 447.025 1025.83 448.803C1025.01 450.58 1024.26 452.221 1023.57 453.725C1023.03 455.229 1022.62 456.869 1022.34 458.646C1022.07 460.287 1021.93 462.543 1021.93 465.414C1021.93 472.66 1023.16 478.949 1025.62 484.281C1028.08 489.613 1031.37 494.262 1035.47 498.227C1039.57 502.055 1044.35 505.268 1049.82 507.865C1055.29 510.326 1061.1 512.445 1067.25 514.223L1069.3 515.658C1072.59 517.709 1075.46 519.486 1077.92 520.99C1080.52 522.357 1082.98 523.656 1085.3 524.887C1087.62 525.98 1090.02 527.074 1092.48 528.168C1095.08 529.262 1098.02 530.561 1101.3 532.064L1125.09 547.24C1125.36 547.377 1125.63 547.65 1125.91 548.061C1126.32 548.334 1126.73 548.607 1127.14 548.881C1127.68 549.291 1128.16 549.701 1128.57 550.111L1132.26 560.365C1132.81 561.322 1133.29 562.416 1133.7 563.646C1134.25 564.74 1134.79 565.561 1135.34 566.107C1135.75 566.381 1136.43 567.064 1137.39 568.158C1138.35 569.252 1139.3 570.482 1140.26 571.85C1141.36 573.08 1142.24 574.311 1142.93 575.541C1143.75 576.635 1144.16 577.387 1144.16 577.797C1144.57 578.617 1145.05 579.848 1145.59 581.488C1146.28 582.992 1146.89 584.564 1147.44 586.205C1148.12 587.846 1148.67 589.418 1149.08 590.922C1149.63 592.426 1149.9 593.52 1149.9 594.203V624.35C1149.9 624.486 1149.56 625.375 1148.88 627.016C1148.33 628.656 1147.71 630.023 1147.03 631.117C1146.62 631.254 1146.28 631.596 1146 632.143C1145.87 632.416 1145.73 632.758 1145.59 633.168C1145.46 633.578 1145.12 634.467 1144.57 635.834C1144.16 637.201 1143.68 638.705 1143.13 640.346C1142.59 641.986 1142.04 643.49 1141.49 644.857C1140.95 646.225 1140.54 647.045 1140.26 647.318C1139.85 648.549 1139.1 649.848 1138.01 651.215C1137.05 652.582 1135.96 653.881 1134.72 655.111C1133.49 656.342 1132.26 657.436 1131.03 658.393C1129.94 659.35 1129.12 660.033 1128.57 660.443C1127.34 662.084 1126.66 663.861 1126.52 665.775C1126.38 667.689 1125.56 669.125 1124.06 670.082C1118.73 671.996 1114.35 674.184 1110.94 676.645C1107.52 678.969 1104.24 681.225 1101.09 683.412C1098.08 685.463 1094.87 687.24 1091.45 688.744C1088.04 690.248 1083.73 691 1078.53 691H1076.07C1072.38 690.727 1069.92 690.59 1068.69 690.59C1067.6 690.453 1066.78 690.385 1066.23 690.385L1026.03 688.949ZM611.775 772.396V771.986V772.396ZM521.131 1021.16C521.131 1019.24 522.02 1017.19 523.797 1015C525.574 1012.68 527.83 1011.52 530.564 1011.52C531.521 1011.52 532.82 1011.45 534.461 1011.31C536.102 1011.18 537.674 1011.11 539.178 1011.11C543.279 1011.11 546.082 1011.18 547.586 1011.31C549.227 1011.45 550.184 1011.52 550.457 1011.52H552.713C554.49 1011.52 556.336 1011.45 558.25 1011.31C560.301 1011.18 562.215 1010.9 563.992 1010.49C565.906 1010.08 567.547 1009.47 568.914 1008.65C570.418 1007.83 571.375 1006.66 571.785 1005.16V994.906C571.785 988.891 571.854 983.08 571.99 977.475C572.264 971.869 572.674 966.264 573.221 960.658C573.494 959.291 573.768 957.992 574.041 956.762C574.314 955.395 574.725 953.754 575.271 951.84C575.135 951.43 575.066 950.404 575.066 948.764C575.066 945.756 575.066 943.227 575.066 941.176C575.203 938.988 575.408 936.049 575.682 932.357C575.682 931.811 575.75 931.332 575.887 930.922C576.023 930.512 576.16 930.17 576.297 929.896C576.297 927.162 576.365 924.428 576.502 921.693C576.639 918.959 576.844 916.225 577.117 913.49C576.844 912.807 576.57 911.645 576.297 910.004C576.16 908.227 575.955 906.791 575.682 905.697C575.545 905.15 575.408 904.193 575.271 902.826C575.135 901.459 574.998 900.092 574.861 898.725C574.725 897.357 574.588 896.127 574.451 895.033C574.314 893.939 574.246 893.256 574.246 892.982V870.219C573.973 869.945 573.699 869.125 573.426 867.758C573.289 866.254 573.221 864.75 573.221 863.246C573.357 861.879 573.426 859.965 573.426 857.504C573.562 855.043 573.699 852.65 573.836 850.326C573.973 847.865 574.041 845.746 574.041 843.969C574.178 842.055 574.246 841.029 574.246 840.893C574.246 840.619 574.314 840.141 574.451 839.457C574.588 838.773 574.793 838.158 575.066 837.611C575.203 836.928 575.34 836.244 575.477 835.561C575.613 834.877 575.682 834.398 575.682 834.125C575.682 833.031 575.545 831.869 575.271 830.639C574.998 829.408 574.656 828.178 574.246 826.947C573.562 824.623 573.221 822.299 573.221 819.975C573.221 818.061 573.221 816.078 573.221 814.027C573.221 811.84 573.357 809.789 573.631 807.875C573.768 805.961 573.904 803.979 574.041 801.928C574.178 799.74 574.246 797.689 574.246 795.775C574.246 794.271 574.178 792.494 574.041 790.443C573.904 788.256 573.768 786 573.631 783.676C573.357 781.488 573.221 779.506 573.221 777.729C573.221 775.951 573.221 774.516 573.221 773.422C572.537 771.781 571.307 770.482 569.529 769.525C567.752 768.568 565.701 767.816 563.377 767.27C561.189 766.586 558.934 766.176 556.609 766.039C554.422 765.766 552.645 765.629 551.277 765.629C550.594 765.629 549.773 765.766 548.816 766.039C547.996 766.176 547.244 766.381 546.561 766.654C545.604 766.928 544.715 767.133 543.895 767.27C543.211 767.406 542.322 767.475 541.229 767.475C539.588 767.475 537.605 767.338 535.281 767.064C532.957 766.654 530.701 766.039 528.514 765.219C526.463 764.398 524.686 763.305 523.182 761.938C521.814 760.57 521.131 758.861 521.131 756.811C521.131 755.17 521.199 753.871 521.336 752.914C521.473 751.957 522.088 751.342 523.182 751.068C524.139 750.795 525.711 750.453 527.898 750.043C530.086 749.496 532.068 749.154 533.846 749.018C535.076 749.154 537.4 749.291 540.818 749.428C544.236 749.564 547.928 749.77 551.893 750.043C555.584 750.316 559.207 750.521 562.762 750.658C566.316 750.658 568.846 750.658 570.35 750.658C572.264 751.342 574.109 751.752 575.887 751.889C577.664 752.025 580.33 752.094 583.885 752.094C584.568 751.957 585.184 751.82 585.73 751.684L588.807 751.068C589.354 750.795 589.695 750.658 589.832 750.658C590.105 750.658 590.584 750.658 591.268 750.658H615.467C615.604 750.658 616.014 750.658 616.697 750.658C617.518 750.521 618.406 750.316 619.363 750.043C620.047 749.77 620.73 749.564 621.414 749.428C622.098 749.291 622.713 749.154 623.26 749.018H685.604C686.287 749.018 688.133 749.086 691.141 749.223C694.148 749.359 697.156 749.633 700.164 750.043C702.625 750.453 704.676 750.658 706.316 750.658C710.008 750.658 713.631 750.453 717.186 750.043C719.1 749.77 720.877 749.564 722.518 749.428C724.295 749.154 726.072 749.018 727.85 749.018C731.541 749.018 734.822 749.291 737.693 749.838C740.564 750.248 742 750.521 742 750.658C742.41 750.658 743.23 750.727 744.461 750.863C745.828 751 747.264 751.137 748.768 751.273C750.271 751.41 751.639 751.547 752.869 751.684C754.1 751.82 754.852 751.957 755.125 752.094C757.449 752.641 759.227 754.145 760.457 756.605C761.824 758.93 762.645 760.98 762.918 762.758C763.602 765.902 764.012 768.568 764.148 770.756C764.285 772.943 764.354 775.404 764.354 778.139C764.354 782.377 764.354 785.932 764.354 788.803C764.354 791.537 764.285 793.861 764.148 795.775C764.012 797.553 763.875 799.057 763.738 800.287C763.602 801.381 763.465 802.475 763.328 803.568C763.055 805.893 762.713 808.148 762.303 810.336C762.029 812.387 761.893 813.549 761.893 813.822V819.564C761.893 820.795 761.756 822.025 761.482 823.256C761.209 824.486 760.662 825.648 759.842 826.742C759.432 826.879 758.68 826.947 757.586 826.947C756.629 826.947 755.945 826.947 755.535 826.947C753.074 826.947 750.408 825.648 747.537 823.051C744.803 820.453 742.137 817.445 739.539 814.027C736.941 810.473 734.549 806.986 732.361 803.568C730.311 800.014 728.807 797.279 727.85 795.365C727.576 794.682 727.098 793.52 726.414 791.879C725.73 790.238 724.91 788.461 723.953 786.547C723.27 784.906 722.449 783.129 721.492 781.215C720.672 779.164 720.057 778.002 719.646 777.729C718.963 776.635 717.732 775.336 715.955 773.832C714.314 772.191 712.605 771.371 710.828 771.371H675.35C671.248 769.867 666.873 769.047 662.225 768.91C657.576 768.637 652.859 768.363 648.074 768.09C645.613 768.09 643.152 768.021 640.691 767.885C638.23 767.748 635.838 767.611 633.514 767.475C632.283 767.475 631.121 767.338 630.027 767.064C628.934 766.654 627.84 766.312 626.746 766.039C625.652 765.629 624.422 765.219 623.055 764.809C621.824 764.398 620.594 764.193 619.363 764.193C618.27 764.193 617.107 764.877 615.877 766.244C614.783 767.611 613.895 768.842 613.211 769.936C612.527 770.619 612.186 771.166 612.186 771.576C612.459 773.08 612.596 775.541 612.596 778.959C612.596 782.377 612.596 785.863 612.596 789.418C612.596 793.109 612.596 796.664 612.596 800.082C612.596 803.5 612.459 805.824 612.186 807.055C612.186 809.789 611.844 812.045 611.16 813.822C610.887 815.053 610.545 816.352 610.135 817.719C609.861 818.949 609.725 820.521 609.725 822.436C609.998 823.529 610.271 824.828 610.545 826.332C610.818 827.699 611.16 828.998 611.57 830.229C612.254 832.689 612.801 835.219 613.211 837.816C613.758 840.414 614.031 843.285 614.031 846.43C614.031 848.07 613.963 849.779 613.826 851.557C613.689 853.197 613.484 854.975 613.211 856.889L612.186 867.348V874.525L613.211 876.371C613.211 876.508 614.236 876.645 616.287 876.781C618.475 876.918 620.184 876.986 621.414 876.986C622.098 877.26 623.396 877.396 625.311 877.396C627.361 877.396 629.617 877.396 632.078 877.396C634.402 877.396 636.59 877.396 638.641 877.396C640.691 877.396 642.195 877.26 643.152 876.986C643.289 876.986 643.426 877.055 643.562 877.191C643.699 877.328 643.904 877.396 644.178 877.396C645.271 878.08 646.297 878.49 647.254 878.627C648.211 878.764 649.305 878.832 650.535 878.832C651.629 878.832 652.654 878.764 653.611 878.627C654.705 878.49 655.799 878.285 656.893 878.012C657.986 877.875 658.943 877.67 659.764 877.396C660.721 877.123 662.156 876.986 664.07 876.986C664.754 877.123 665.438 877.26 666.121 877.396C666.805 877.533 667.42 877.67 667.967 877.807C668.65 877.943 669.197 878.012 669.607 878.012C670.564 878.285 671.453 878.49 672.273 878.627C673.23 878.764 674.119 878.832 674.939 878.832C676.58 878.832 678.016 878.354 679.246 877.396C680.613 876.439 681.707 875.277 682.527 873.91C683.484 872.406 684.236 870.834 684.783 869.193C685.33 867.416 685.74 865.775 686.014 864.271C686.014 863.725 686.014 862.699 686.014 861.195C686.15 859.555 686.287 857.846 686.424 856.068C686.561 854.291 686.697 852.719 686.834 851.352C686.971 849.848 687.176 848.959 687.449 848.686C688.133 846.771 688.68 845.336 689.09 844.379C689.637 843.285 689.91 842.943 689.91 843.354V841.508C690.184 840.277 690.457 838.842 690.73 837.201C691.141 835.424 692.166 834.262 693.807 833.715C693.943 833.578 694.285 833.373 694.832 833.1C695.516 832.826 696.268 832.553 697.088 832.279C697.908 832.006 698.66 831.801 699.344 831.664C700.164 831.391 700.779 831.254 701.189 831.254C703.924 831.254 706.111 832.143 707.752 833.92C709.529 835.697 710.691 837.27 711.238 838.637V887.24C711.238 887.65 711.238 888.539 711.238 889.906C711.238 891.273 711.375 892.777 711.648 894.418C711.785 896.059 711.922 897.562 712.059 898.93C712.195 900.297 712.264 901.186 712.264 901.596C712.264 902.416 712.059 904.193 711.648 906.928C711.238 909.662 710.76 912.602 710.213 915.746C709.529 918.754 709.051 921.488 708.777 923.949C708.504 926.41 708.367 927.914 708.367 928.461C707.957 929.965 707.752 931.605 707.752 933.383C707.479 935.297 707.205 937.279 706.932 939.33C706.658 941.381 706.18 943.227 705.496 944.867C704.812 946.508 703.787 947.875 702.42 948.969C701.053 949.926 699.139 950.404 696.678 950.404C694.49 950.404 692.713 949.857 691.346 948.764C689.979 947.533 688.953 946.098 688.27 944.457C687.586 942.68 687.107 940.766 686.834 938.715C686.561 936.664 686.424 934.682 686.424 932.768C686.424 932.357 686.355 931.879 686.219 931.332C686.082 930.648 686.014 930.17 686.014 929.896C685.467 927.299 684.852 924.428 684.168 921.283C683.484 918.139 682.459 915.199 681.092 912.465C679.861 909.594 678.221 907.201 676.17 905.287C674.256 903.236 671.727 902.006 668.582 901.596L660.789 900.775C658.465 900.502 655.936 900.365 653.201 900.365C650.604 900.229 648.621 900.023 647.254 899.75C644.93 899.75 642.811 899.818 640.896 899.955C638.982 900.092 637.205 900.16 635.564 900.16C634.061 900.16 632.83 900.16 631.873 900.16C630.916 900.16 630.301 900.023 630.027 899.75C629.07 899.75 628.318 899.613 627.771 899.34C626.268 898.93 625.311 898.725 624.9 898.725H621.414C619.91 898.725 618.748 898.93 617.928 899.34C617.107 899.75 616.355 900.229 615.672 900.775C615.398 901.049 615.057 901.322 614.646 901.596C614.373 901.732 614.031 901.938 613.621 902.211C613.074 902.484 612.596 902.689 612.186 902.826H606.238C606.375 903.783 606.443 904.809 606.443 905.902C606.443 906.859 606.443 907.748 606.443 908.568C606.443 909.252 606.375 909.799 606.238 910.209C606.238 910.482 606.102 910.893 605.828 911.439C605.555 912.396 605.145 913.422 604.598 914.516C604.188 915.473 603.982 916.225 603.982 916.771C603.982 917.045 604.051 917.592 604.188 918.412C604.324 919.232 604.529 920.121 604.803 921.078C605.076 921.762 605.213 922.445 605.213 923.129C605.35 923.539 605.486 924.291 605.623 925.385C605.76 926.342 605.828 927.436 605.828 928.666C605.965 929.76 606.102 930.854 606.238 931.947C606.375 933.041 606.443 933.861 606.443 934.408C606.717 934.682 606.854 935.023 606.854 935.434C606.854 935.707 606.854 935.98 606.854 936.254V936.664C607.811 937.211 608.289 937.553 608.289 937.689C608.973 939.604 609.52 941.654 609.93 943.842C610.477 945.893 610.887 948.08 611.16 950.404C611.297 951.361 611.365 953.275 611.365 956.146C611.502 959.018 611.639 962.162 611.775 965.58C611.912 968.861 611.98 972.074 611.98 975.219C612.117 978.227 612.186 980.414 612.186 981.781V1002.9C612.459 1005.64 613.348 1007.76 614.852 1009.26C616.492 1010.63 618.406 1011.72 620.594 1012.54C622.918 1013.23 625.311 1013.64 627.771 1013.77C630.369 1013.91 632.762 1013.98 634.949 1013.98H641.922C642.605 1013.71 644.383 1013.5 647.254 1013.36C650.262 1013.09 655.047 1012.95 661.609 1012.95C662.156 1012.95 662.771 1012.88 663.455 1012.75C664.139 1012.61 664.891 1012.54 665.711 1012.54C668.035 1012.27 670.496 1012.06 673.094 1011.93C675.828 1011.65 677.537 1011.38 678.221 1011.11C678.494 1011.11 678.768 1011.04 679.041 1010.9C679.314 1010.77 679.588 1010.7 679.861 1010.7C680.135 1010.56 680.408 1010.36 680.682 1010.08C681.775 1009.67 682.391 1009.4 682.527 1009.26C682.801 1009.12 683.279 1008.92 683.963 1008.65C684.646 1008.65 685.809 1009.06 687.449 1009.88C689.227 1010.56 690.252 1011.11 690.525 1011.52C691.346 1011.65 692.371 1011.79 693.602 1011.93C694.832 1011.93 696.062 1011.93 697.293 1011.93C698.66 1011.93 699.891 1011.93 700.984 1011.93C702.078 1011.93 702.898 1011.93 703.445 1011.93C704.266 1011.93 705.291 1011.93 706.521 1011.93C707.889 1011.93 709.256 1011.93 710.623 1011.93C711.99 1011.93 713.152 1011.93 714.109 1011.93C715.203 1011.79 715.75 1011.65 715.75 1011.52C715.887 1011.52 716.023 1011.45 716.16 1011.31C716.297 1011.31 716.434 1011.31 716.57 1011.31C716.707 1011.18 716.844 1011.11 716.98 1011.11C719.715 1011.11 721.766 1010.9 723.133 1010.49C724.5 1009.95 725.936 1009.19 727.439 1008.24C728.533 1007.42 729.217 1006.94 729.49 1006.8C729.764 1006.66 729.969 1006.6 730.105 1006.6H729.695C731.609 1005.64 733.045 1005.09 734.002 1004.96C735.096 1004.82 736.121 1004.61 737.078 1004.34C738.582 1004.07 739.949 1003.72 741.18 1003.31C742.41 1002.9 743.299 1002.43 743.846 1001.88C744.119 1001.61 744.393 1001.4 744.666 1001.26C744.939 1001.13 745.281 1000.85 745.691 1000.44C746.375 999.896 747.127 999.281 747.947 998.598C748.768 997.777 749.588 997.025 750.408 996.342C751.229 995.658 751.912 995.043 752.459 994.496C753.143 993.949 753.553 993.607 753.689 993.471C753.963 993.197 754.1 992.992 754.1 992.855C754.236 992.719 754.51 992.172 754.92 991.215C755.604 989.438 756.082 988.412 756.355 988.139C757.586 985.268 758.748 982.67 759.842 980.346C760.936 977.885 762.166 975.629 763.533 973.578C765.037 971.527 766.746 969.682 768.66 968.041C770.711 966.4 773.172 964.896 776.043 963.529C776.453 963.529 776.795 963.461 777.068 963.324C777.342 963.188 778.094 962.777 779.324 962.094C779.598 961.957 779.939 961.82 780.35 961.684C780.896 961.41 781.307 961.205 781.58 961.068L782.811 960.658C783.357 960.658 784.178 961.205 785.271 962.299C786.502 963.256 787.117 964.008 787.117 964.555V971.732C787.117 971.869 787.459 972.963 788.143 975.014C788.689 976.244 789.168 977.543 789.578 978.91C790.125 980.141 790.398 981.098 790.398 981.781V987.729C790.398 991.83 790.193 996.342 789.783 1001.26C789.51 1006.19 789.236 1010.22 788.963 1013.36C788.143 1017.19 786.57 1020.2 784.246 1022.39C781.922 1024.44 779.188 1026.01 776.043 1027.1C773.035 1028.2 769.754 1028.88 766.199 1029.15C762.781 1029.43 759.5 1029.56 756.355 1029.56H738.514C737.283 1028.61 736.121 1028.06 735.027 1027.92C734.07 1027.79 732.84 1027.72 731.336 1027.72C731.199 1027.72 730.994 1027.79 730.721 1027.92C730.584 1027.92 729.764 1028.13 728.26 1028.54C726.756 1029.09 725.799 1029.43 725.389 1029.56C724.979 1029.56 724.637 1029.56 724.363 1029.56C723.543 1029.84 722.176 1030.04 720.262 1030.18C718.348 1030.32 716.365 1030.45 714.314 1030.59C712.264 1030.73 710.35 1030.86 708.572 1031C706.795 1031 705.633 1031 705.086 1031H606.854C605.35 1031 603.982 1030.86 602.752 1030.59C601.521 1030.32 600.291 1029.97 599.061 1029.56C597.83 1029.29 596.531 1028.95 595.164 1028.54C593.934 1027.99 592.977 1027.72 592.293 1027.72C592.02 1027.72 591.746 1027.79 591.473 1027.92C591.199 1027.92 590.447 1028.13 589.217 1028.54C588.943 1028.54 588.465 1028.61 587.781 1028.74C587.234 1028.88 586.619 1029.02 585.936 1029.15C585.252 1029.43 584.568 1029.56 583.885 1029.56C583.338 1029.56 582.996 1029.56 582.859 1029.56C582.176 1029.56 580.945 1029.77 579.168 1030.18C577.527 1030.45 575.545 1030.86 573.221 1031.41C570.35 1031.96 567.615 1032.5 565.018 1033.05C562.42 1033.6 560.438 1033.87 559.07 1033.87H554.764L526.258 1034.49C525.984 1034.49 525.574 1033.94 525.027 1032.85C524.48 1031.75 523.934 1030.52 523.387 1029.15C522.977 1027.65 522.498 1026.15 521.951 1024.64C521.541 1023.14 521.268 1022.04 521.131 1021.36V1021.16ZM997.117 1030.59C996.57 1030.59 995.75 1030.66 994.656 1030.79C993.699 1030.79 992.674 1030.79 991.58 1030.79C990.623 1030.79 989.734 1030.86 988.914 1031C988.094 1031 987.684 1031 987.684 1031L982.762 1032.85L957.537 1031.41H903.807C901.756 1030.73 899.979 1030.25 898.475 1029.97C897.107 1029.7 895.467 1029.56 893.553 1029.56C892.049 1029.56 890.887 1029.63 890.066 1029.77C889.246 1029.91 888.152 1030.32 886.785 1031C885.418 1031 883.094 1030.93 879.812 1030.79C876.668 1030.66 873.318 1030.59 869.764 1030.59C866.209 1030.59 862.791 1030.66 859.51 1030.79C856.365 1030.93 854.246 1031 853.152 1031C852.742 1031 851.99 1031.07 850.896 1031.21C849.939 1031.34 848.846 1031.41 847.615 1031.41C846.521 1031.55 845.428 1031.68 844.334 1031.82C843.377 1031.96 842.762 1032.03 842.488 1032.03C842.078 1032.16 841.6 1032.23 841.053 1032.23C840.643 1032.37 840.232 1032.44 839.822 1032.44C839.549 1032.44 839.275 1032.44 839.002 1032.44C835.311 1032.44 832.508 1032.03 830.594 1031.21C828.816 1030.52 827.244 1028.33 825.877 1024.64C825.33 1024.64 825.057 1024.51 825.057 1024.23C824.92 1024.1 824.92 1023.89 825.057 1023.62C825.057 1022.52 825.398 1021.36 826.082 1020.13C826.902 1018.76 827.859 1017.53 828.953 1016.44C830.184 1015.35 831.414 1014.46 832.645 1013.77C834.012 1012.95 835.311 1012.54 836.541 1012.54H856.023C856.297 1012.54 857.186 1011.79 858.689 1010.29C860.193 1008.65 861.424 1007.42 862.381 1006.6C862.654 1006.32 862.928 1005.78 863.201 1004.96C863.611 1004 863.816 1003.31 863.816 1002.9C865.457 994.838 866.414 986.84 866.688 978.91C866.961 970.98 867.098 962.709 867.098 954.096C867.098 953.412 867.098 951.908 867.098 949.584C867.234 947.123 867.303 944.252 867.303 940.971C867.439 937.689 867.576 934.271 867.713 930.717C867.85 927.025 867.918 923.539 867.918 920.258C868.055 916.977 868.123 914.174 868.123 911.85C868.26 909.389 868.328 907.748 868.328 906.928V895.854C868.328 884.916 868.123 874.115 867.713 863.451C867.303 852.787 867.098 842.191 867.098 831.664V830.229C867.098 829.818 867.166 828.793 867.303 827.152C867.439 825.375 867.576 823.529 867.713 821.615C867.85 819.701 867.986 817.924 868.123 816.283C868.26 814.643 868.328 813.617 868.328 813.207C868.465 811.977 868.602 809.857 868.738 806.85C868.875 803.705 869.012 800.424 869.148 797.006C869.285 793.451 869.422 790.17 869.559 787.162C869.695 784.154 869.764 782.035 869.764 780.805C869.08 778.754 868.67 776.635 868.533 774.447C868.396 772.123 868.191 769.936 867.918 767.885C867.645 765.697 867.098 763.646 866.277 761.732C865.457 759.818 864.158 758.178 862.381 756.811C861.561 756.674 860.125 756.537 858.074 756.4C856.023 756.264 853.836 756.195 851.512 756.195C849.324 756.059 847.205 755.922 845.154 755.785C843.104 755.648 841.736 755.512 841.053 755.375C838.865 755.102 836.473 754.76 833.875 754.35C831.277 753.803 828.885 753.051 826.697 752.094C824.51 751 822.664 749.564 821.16 747.787C819.793 746.01 819.109 743.686 819.109 740.814L819.93 740.404C820.203 740.268 820.408 740.131 820.545 739.994C820.682 739.857 820.887 739.789 821.16 739.789C824.441 737.875 827.381 736.645 829.979 736.098C832.576 735.414 835.926 735.072 840.027 735.072H841.053C841.463 735.482 841.873 735.824 842.283 736.098C843.104 736.645 843.65 736.918 843.924 736.918C850.76 737.465 857.596 737.875 864.432 738.148C871.268 738.285 878.172 738.354 885.145 738.354C890.887 738.354 896.492 738.285 901.961 738.148C907.43 738.012 912.83 737.943 918.162 737.943H963.484C964.031 737.943 964.92 737.875 966.15 737.738C967.381 737.602 968.68 737.533 970.047 737.533C971.551 737.396 972.986 737.26 974.354 737.123C975.721 736.986 976.746 736.918 977.43 736.918H978.865H980.096C980.506 736.918 981.463 736.986 982.967 737.123C984.471 737.26 986.111 737.396 987.889 737.533C989.666 737.533 991.307 737.602 992.811 737.738C994.451 737.875 995.477 737.943 995.887 737.943H1020.29C1021.38 738.08 1022.96 738.217 1025.01 738.354C1027.2 738.49 1029.31 738.627 1031.37 738.764C1033.55 738.9 1035.47 739.105 1037.11 739.379C1038.75 739.516 1039.64 739.652 1039.77 739.789C1039.91 739.789 1040.46 739.994 1041.41 740.404C1042.37 740.814 1043.4 741.361 1044.49 742.045C1045.72 742.592 1046.88 743.207 1047.98 743.891C1049.21 744.574 1050.16 745.189 1050.85 745.736C1052.21 746.557 1053.31 748.539 1054.13 751.684C1055.09 754.691 1055.84 758.041 1056.38 761.732C1056.93 765.424 1057.34 769.047 1057.62 772.602C1058.03 776.156 1058.37 778.891 1058.64 780.805C1058.64 781.488 1058.71 782.719 1058.85 784.496C1059.12 786.137 1059.32 787.914 1059.46 789.828C1059.6 791.742 1059.73 793.588 1059.87 795.365C1060.01 797.143 1060.08 798.373 1060.08 799.057V804.594V810.336C1059.39 811.566 1058.5 812.387 1057.41 812.797C1056.32 813.07 1055.15 813.207 1053.92 813.207H1052.49C1050.98 812.25 1049.89 811.293 1049.21 810.336C1048.52 809.379 1047.98 808.422 1047.57 807.465C1047.16 806.371 1046.75 805.277 1046.34 804.184C1046.06 803.09 1045.52 801.928 1044.7 800.697C1044.7 800.561 1044.42 800.287 1043.88 799.877C1043.46 799.33 1042.99 798.783 1042.44 798.236C1041.89 797.689 1041.35 797.211 1040.8 796.801C1040.25 796.254 1039.91 795.912 1039.77 795.775C1037.86 793.041 1035.95 789.965 1034.03 786.547C1032.25 782.992 1030.13 779.711 1027.67 776.703C1027.54 776.43 1027.06 775.951 1026.24 775.268C1025.55 774.584 1025.08 773.969 1024.8 773.422C1024.67 773.148 1024.19 772.943 1023.37 772.807C1022.55 772.533 1022 772.26 1021.73 771.986C1020.09 770.893 1018.79 769.662 1017.83 768.295C1016.87 766.928 1015.85 765.629 1014.75 764.398C1013.8 763.031 1012.7 761.732 1011.47 760.502C1010.24 759.271 1008.53 758.246 1006.35 757.426C1005.25 757.426 1003.13 757.357 999.988 757.221C996.98 756.947 993.768 756.742 990.35 756.605C986.932 756.332 983.65 756.127 980.506 755.99C977.498 755.717 975.379 755.512 974.148 755.375H963.484C963.348 755.375 962.732 755.307 961.639 755.17C960.682 754.896 959.588 754.691 958.357 754.555C957.127 754.281 955.965 754.076 954.871 753.939C953.777 753.666 953.094 753.529 952.82 753.529H949.744H946.873C946.326 753.529 945.096 753.666 943.182 753.939C941.404 754.076 939.422 754.281 937.234 754.555C935.184 754.691 933.201 754.896 931.287 755.17C929.51 755.307 928.416 755.375 928.006 755.375H915.906C915.359 755.375 914.744 755.58 914.061 755.99C913.377 756.264 913.035 756.537 913.035 756.811V782.24C912.898 786.615 912.283 790.785 911.189 794.75C910.096 798.715 909.549 802.748 909.549 806.85C909.549 813.002 909.822 819.223 910.369 825.512C911.053 831.664 911.395 837.953 911.395 844.379C911.395 848.754 911.053 853.197 910.369 857.709C909.822 862.221 909.549 866.869 909.549 871.654V873.09C909.959 873.5 910.506 874.115 911.189 874.936C911.873 875.619 912.488 875.961 913.035 875.961H918.162H923.494C923.768 875.961 924.383 875.893 925.34 875.756C926.297 875.482 927.322 875.277 928.416 875.141C929.51 874.867 930.467 874.662 931.287 874.525C932.244 874.252 932.791 874.115 932.928 874.115H951.18C952.137 874.115 953.846 874.047 956.307 873.91C958.904 873.773 961.57 873.705 964.305 873.705C967.176 873.568 969.842 873.432 972.303 873.295C974.764 873.158 976.473 873.09 977.43 873.09C979.48 871.312 980.984 868.715 981.941 865.297C982.898 861.742 983.855 858.803 984.812 856.479C984.949 856.068 985.086 855.111 985.223 853.607C985.496 851.967 985.77 850.258 986.043 848.48C986.316 846.703 986.59 845.062 986.863 843.559C987.137 841.918 987.41 840.893 987.684 840.482C987.684 840.346 987.82 840.004 988.094 839.457C988.504 838.773 988.914 838.158 989.324 837.611C989.734 836.928 990.076 836.312 990.35 835.766C990.76 835.219 991.033 834.877 991.17 834.74C991.717 832.963 992.059 831.049 992.195 828.998C992.332 826.947 992.674 825.102 993.221 823.461C993.768 821.684 994.656 820.248 995.887 819.154C997.117 818.061 999.1 817.514 1001.83 817.514C1004.84 817.514 1006.82 818.197 1007.78 819.564C1008.74 820.932 1009.22 823.188 1009.22 826.332C1009.22 827.426 1009.15 828.246 1009.01 828.793C1008.88 829.203 1008.6 830.16 1008.19 831.664C1008.19 831.801 1008.12 832.143 1007.99 832.689C1007.85 833.236 1007.78 833.852 1007.78 834.535C1007.78 835.629 1007.85 836.654 1007.99 837.611C1008.12 838.432 1008.19 839.047 1008.19 839.457C1008.05 840.277 1007.92 841.986 1007.78 844.584C1007.64 847.182 1007.44 850.189 1007.17 853.607C1006.89 857.025 1006.62 860.717 1006.35 864.682C1006.07 868.51 1005.8 872.201 1005.53 875.756C1005.25 879.174 1004.98 882.182 1004.71 884.779C1004.57 887.377 1004.43 889.154 1004.29 890.111C1004.29 890.385 1004.36 891.684 1004.5 894.008C1004.64 896.195 1004.71 898.451 1004.71 900.775C1004.71 901.869 1004.57 903.1 1004.29 904.467C1004.02 905.697 1003.82 906.518 1003.68 906.928C1003.68 906.928 1003.54 907.27 1003.27 907.953C1003.13 908.637 1002.93 909.457 1002.65 910.414C1002.52 911.234 1002.31 912.055 1002.04 912.875C1001.9 913.559 1001.83 914.037 1001.83 914.311C1001.83 914.721 1001.9 915.678 1002.04 917.182C1002.18 918.686 1002.31 920.326 1002.45 922.104C1002.72 923.744 1002.93 925.316 1003.06 926.82C1003.2 928.188 1003.27 929.076 1003.27 929.486C1003.27 930.033 1003.27 930.854 1003.27 931.947C1003.41 932.904 1003.47 933.93 1003.47 935.023C1003.47 935.98 1003.47 936.938 1003.47 937.895C1003.61 938.852 1003.68 939.604 1003.68 940.15C1003.68 942.475 1003.41 944.594 1002.86 946.508C1002.45 948.422 1001.49 950.541 999.988 952.865C999.852 953.549 999.168 954.301 997.938 955.121C996.844 955.805 996.16 956.146 995.887 956.146C995.613 956.146 994.861 955.805 993.631 955.121C992.4 954.301 991.58 953.549 991.17 952.865C988.846 950.951 987.205 948.285 986.248 944.867C985.428 941.449 984.881 937.758 984.607 933.793C984.334 929.691 984.197 925.521 984.197 921.283C984.197 917.045 983.924 913.148 983.377 909.594C982.967 905.902 982.078 902.826 980.711 900.365C979.344 897.904 977.156 896.4 974.148 895.854C973.055 896.127 971.346 896.264 969.021 896.264C966.697 896.264 964.168 896.264 961.434 896.264C958.562 896.264 955.828 896.264 953.23 896.264C950.77 896.264 949.129 896.127 948.309 895.854C947.625 895.854 946.531 895.785 945.027 895.648C943.523 895.512 941.951 895.443 940.311 895.443C938.807 895.307 937.303 895.17 935.799 895.033C934.432 894.896 933.475 894.828 932.928 894.828C932.791 894.418 932.244 893.939 931.287 893.393C930.33 892.846 929.715 892.572 929.441 892.572H927.391C923.836 892.572 920.418 893.461 917.137 895.238C913.992 896.879 912.078 899.545 911.395 903.236C911.258 904.193 910.916 906.107 910.369 908.979C909.959 911.713 909.48 914.721 908.934 918.002C908.523 921.283 908.045 924.496 907.498 927.641C907.088 930.648 906.814 932.904 906.678 934.408V935.639V937.074C906.678 938.168 906.746 939.945 906.883 942.406C907.02 944.867 907.156 947.533 907.293 950.404C907.43 953.139 907.566 955.805 907.703 958.402C907.977 960.863 908.113 962.572 908.113 963.529C908.797 964.623 909.207 965.443 909.344 965.99C909.48 966.537 909.549 967.152 909.549 967.836C909.549 973.168 909.275 978.363 908.729 983.422C908.182 988.48 907.908 993.812 907.908 999.418C907.908 999.965 907.908 1001.13 907.908 1002.9C908.045 1004.68 908.113 1005.91 908.113 1006.6C908.25 1006.87 908.592 1007.35 909.139 1008.03C909.686 1008.58 910.232 1009.19 910.779 1009.88C911.463 1010.42 912.146 1010.97 912.83 1011.52C913.514 1012.06 913.992 1012.41 914.266 1012.54C914.402 1012.82 915.018 1013.02 916.111 1013.16C917.342 1013.29 918.709 1013.43 920.213 1013.57C921.717 1013.57 923.152 1013.71 924.52 1013.98C926.023 1014.12 927.186 1014.25 928.006 1014.39C929.646 1014.39 932.449 1014.46 936.414 1014.59C940.516 1014.73 944.822 1014.87 949.334 1015C953.982 1015.14 958.289 1015.28 962.254 1015.41C966.355 1015.41 969.227 1015.41 970.867 1015.41C972.508 1016.1 974.148 1016.58 975.789 1016.85C977.566 1017.12 979.275 1017.26 980.916 1017.26H986.658H995.887C996.023 1017.26 996.502 1017.19 997.322 1017.05C998.143 1016.78 999.031 1016.58 999.988 1016.44C1001.08 1016.17 1002.04 1015.96 1002.86 1015.82C1003.68 1015.55 1004.16 1015.41 1004.29 1015.41H1043.26C1044.76 1015 1046.2 1014.25 1047.57 1013.16C1048.93 1011.93 1050.23 1010.63 1051.46 1009.26C1052.69 1007.76 1053.79 1006.25 1054.74 1004.75C1055.7 1003.11 1056.52 1001.67 1057.21 1000.44C1057.62 1000.03 1058.16 999.076 1058.85 997.572C1059.67 996.068 1060.42 994.496 1061.1 992.855C1061.92 991.078 1062.67 989.438 1063.36 987.934C1064.04 986.43 1064.45 985.541 1064.59 985.268C1064.86 984.857 1065.48 984.037 1066.43 982.807C1067.39 981.576 1067.87 980.824 1067.87 980.551C1068.01 980.277 1068.28 979.525 1068.69 978.295C1069.1 977.064 1069.3 976.312 1069.3 976.039C1069.44 975.902 1069.78 975.492 1070.33 974.809C1071.01 974.125 1071.7 973.441 1072.38 972.758C1073.06 972.074 1073.68 971.391 1074.23 970.707C1074.77 970.023 1075.12 969.545 1075.25 969.271C1075.39 969.135 1075.66 968.725 1076.07 968.041C1076.62 967.221 1077.1 966.332 1077.51 965.375C1078.05 964.281 1078.46 963.324 1078.74 962.504C1079.15 961.547 1079.42 960.932 1079.56 960.658C1079.83 960.111 1080.58 959.291 1081.81 958.197C1083.18 957.104 1083.93 956.42 1084.07 956.146C1084.34 955.873 1084.69 955.668 1085.1 955.531C1085.51 955.258 1085.85 954.984 1086.12 954.711C1086.53 954.438 1086.94 954.232 1087.35 954.096C1087.9 954.369 1088.72 955.053 1089.81 956.146C1090.91 957.24 1091.73 958.061 1092.27 958.607V959.633C1092.27 961.273 1092 962.846 1091.45 964.35C1091.04 965.854 1090.84 967.357 1090.84 968.861C1090.84 970.775 1091.04 972.484 1091.45 973.988C1092 975.355 1092.27 976.996 1092.27 978.91V980.551C1092.27 980.961 1092 981.713 1091.45 982.807C1091.04 983.9 1090.84 984.721 1090.84 985.268V1009.26C1090.7 1010.9 1090.5 1013.02 1090.22 1015.62C1089.95 1018.08 1089.4 1020.47 1088.58 1022.8C1087.76 1024.98 1086.6 1026.9 1085.1 1028.54C1083.59 1030.18 1081.61 1031 1079.15 1031H1078.12C1077.71 1030.86 1077.03 1030.73 1076.07 1030.59C1075.12 1030.45 1074.16 1030.32 1073.2 1030.18C1072.24 1030.04 1071.36 1029.91 1070.54 1029.77C1069.85 1029.63 1069.44 1029.56 1069.3 1029.56L1068.07 1028.74C1067.25 1028.2 1066.84 1027.86 1066.84 1027.72H1065.61H1064.59C1059.8 1029.36 1055.29 1030.18 1051.05 1030.18C1046.81 1030.18 1042.37 1030.45 1037.72 1031C1037.31 1031 1036.56 1031.07 1035.47 1031.21C1034.37 1031.34 1033.14 1031.48 1031.78 1031.62C1030.54 1031.89 1029.38 1032.16 1028.29 1032.44C1027.2 1032.71 1026.51 1032.91 1026.24 1033.05H1025.21C1022.75 1033.05 1020.43 1032.71 1018.24 1032.03C1016.19 1031.34 1013.8 1031 1011.06 1031C1010.79 1031 1010.04 1031 1008.81 1031C1007.71 1030.86 1006.41 1030.79 1004.91 1030.79C1003.54 1030.79 1002.11 1030.79 1000.6 1030.79C999.236 1030.66 998.074 1030.59 997.117 1030.59ZM1116.47 1018.9C1116.47 1016.3 1117.43 1014.18 1119.34 1012.54C1121.39 1010.9 1123.79 1009.6 1126.52 1008.65C1129.39 1007.55 1132.26 1006.8 1135.13 1006.39C1138.01 1005.98 1140.4 1005.78 1142.31 1005.78H1158.92C1160.15 1005.5 1161.73 1004.75 1163.64 1003.52C1165.55 1002.29 1167.4 1000.85 1169.18 999.213C1171.09 997.436 1172.73 995.521 1174.1 993.471C1175.6 991.283 1176.49 989.232 1176.77 987.318C1177.18 984.447 1177.38 981.371 1177.38 978.09C1177.38 975.492 1177.18 972.758 1176.77 969.887L1179.64 965.375C1177.72 958.402 1176.42 951.43 1175.74 944.457C1175.06 937.484 1174.71 930.648 1174.71 923.949C1174.71 922.582 1174.78 920.873 1174.92 918.822C1175.19 916.771 1175.47 914.721 1175.74 912.67C1176.15 910.482 1176.56 908.432 1176.97 906.518C1177.38 904.467 1177.79 902.689 1178.2 901.186C1178.34 900.775 1178.54 900.297 1178.82 899.75C1179.36 898.656 1179.64 897.973 1179.64 897.699C1180.05 896.742 1180.53 895.854 1181.07 895.033C1181.35 894.35 1181.62 893.666 1181.89 892.982C1182.3 892.162 1182.51 891.547 1182.51 891.137C1182.51 890.043 1181.96 889.086 1180.87 888.266C1179.77 887.445 1178.88 887.035 1178.2 887.035C1178.47 882.523 1178.68 878.012 1178.82 873.5C1179.09 868.852 1179.23 864.34 1179.23 859.965C1179.23 855.316 1179.09 850.805 1178.82 846.43C1178.68 841.918 1178.47 837.338 1178.2 832.689C1177.52 830.775 1177.11 829.408 1176.97 828.588C1176.83 827.631 1176.77 826.4 1176.77 824.896L1178.2 812.797L1176.77 790.854C1176.77 789.213 1176.01 787.367 1174.51 785.316C1173.14 783.266 1171.5 781.352 1169.59 779.574C1167.67 777.66 1165.69 776.088 1163.64 774.857C1161.73 773.49 1160.15 772.67 1158.92 772.396H1144.16L1142.52 771.576C1142.11 771.303 1141.7 771.098 1141.29 770.961C1140.88 770.688 1140.54 770.551 1140.26 770.551C1138.35 770.004 1136.16 769.594 1133.7 769.32C1131.38 768.91 1129.19 768.295 1127.14 767.475C1125.09 766.654 1123.38 765.492 1122.01 763.988C1120.64 762.348 1119.96 760.023 1119.96 757.016C1119.96 754.555 1120.3 752.709 1120.98 751.479C1121.67 750.111 1122.62 749.154 1123.86 748.607C1125.22 747.924 1126.79 747.514 1128.57 747.377C1130.49 747.24 1132.61 747.172 1134.93 747.172C1138.62 747.172 1142.18 747.309 1145.59 747.582C1149.01 747.855 1151.95 748.881 1154.41 750.658C1155.1 750.521 1155.78 750.385 1156.46 750.248C1157.15 750.111 1157.76 750.043 1158.31 750.043H1162.21C1168.77 750.043 1175.54 750.59 1182.51 751.684C1189.62 752.641 1196.11 753.393 1201.99 753.939L1213.68 755.99C1215.46 755.99 1217.23 755.717 1219.01 755.17C1220.93 754.486 1222.84 753.803 1224.75 753.119C1226.8 752.299 1228.79 751.615 1230.7 751.068C1232.62 750.385 1234.53 750.043 1236.44 750.043C1237.81 750.043 1238.97 750.385 1239.93 751.068C1240.89 751.752 1242.39 752.094 1244.44 752.094C1245.12 752.094 1245.74 751.752 1246.29 751.068C1246.97 750.385 1248.06 750.043 1249.57 750.043C1250.94 750.043 1251.96 750.111 1252.64 750.248C1253.46 750.385 1254.22 751 1254.9 752.094H1262.9C1265.77 752.094 1268.78 751.615 1271.92 750.658C1275.07 749.564 1278.21 749.018 1281.36 749.018C1283.27 749.018 1284.77 749.154 1285.87 749.428C1286.96 749.701 1288.53 750.59 1290.58 752.094L1327.5 753.939C1329.28 754.076 1330.92 754.281 1332.42 754.555C1333.79 754.828 1335.22 755.102 1336.73 755.375C1338.23 755.512 1339.53 755.717 1340.62 755.99C1341.31 755.99 1342.13 756.059 1343.08 756.195C1344.04 756.332 1344.93 756.605 1345.75 757.016C1346.57 757.426 1347.25 757.973 1347.8 758.656C1348.48 759.34 1348.83 760.229 1348.83 761.322C1349.24 762.553 1349.65 764.604 1350.06 767.475C1350.47 770.209 1350.81 773.148 1351.08 776.293C1351.49 779.438 1351.77 782.377 1351.9 785.111C1352.18 787.846 1352.31 789.76 1352.31 790.854C1353 795.502 1353.54 800.219 1353.95 805.004C1354.36 809.789 1354.57 814.506 1354.57 819.154H1351.29C1348.28 819.154 1345.82 816.83 1343.9 812.182C1342.67 810.541 1341.79 809.447 1341.24 808.9C1340.69 808.217 1340.28 807.533 1340.01 806.85C1338.09 804.252 1336.11 801.449 1334.06 798.441C1332.15 795.297 1330.37 792.357 1328.73 789.623C1327.09 786.889 1325.65 784.428 1324.42 782.24C1323.19 779.916 1322.37 778.275 1321.96 777.318C1320.32 776.635 1318.61 776.156 1316.83 775.883C1315.06 775.473 1313.35 775.131 1311.71 774.857C1310.07 774.447 1308.56 773.969 1307.2 773.422C1305.83 772.738 1304.67 771.645 1303.71 770.141C1302.62 768.09 1300.5 767.064 1297.35 767.064C1296.12 767.064 1295.44 767.201 1295.3 767.475C1294.62 767.611 1293.73 767.748 1292.63 767.885C1291.68 768.021 1290.65 768.09 1289.56 768.09C1287.23 768.09 1284.91 768.021 1282.59 767.885C1280.26 767.611 1278.35 767.475 1276.84 767.475C1275.89 767.475 1275.27 767.338 1275 767.064C1274.72 766.791 1274.25 766.654 1273.56 766.654C1273.29 766.654 1273.02 766.586 1272.74 766.449C1272.61 766.312 1272.4 766.176 1272.13 766.039C1269.12 765.629 1266.11 765.355 1263.1 765.219C1260.1 765.082 1257.09 765.014 1254.08 765.014C1251.07 765.014 1248.13 765.082 1245.26 765.219C1242.39 765.355 1239.45 765.629 1236.44 766.039C1235.49 766.312 1234.39 766.859 1233.16 767.68C1231.93 768.5 1230.7 769.525 1229.47 770.756C1228.38 771.85 1227.35 773.012 1226.39 774.242C1225.44 775.473 1224.82 776.635 1224.55 777.729C1223.46 782.377 1222.77 787.641 1222.5 793.52C1222.22 799.262 1222.09 805.209 1222.09 811.361V832.689C1220.86 834.193 1220.11 835.766 1219.83 837.406C1219.56 838.91 1219.42 840.756 1219.42 842.943V850.121C1219.42 853.402 1219.49 856.615 1219.63 859.76C1219.9 862.904 1220.45 865.98 1221.27 868.988C1222.09 871.996 1223.25 874.936 1224.75 877.807C1226.39 880.541 1228.58 883.207 1231.32 885.805L1264.33 887.035C1266.93 887.035 1269.46 886.557 1271.92 885.6C1272.61 885.326 1273.43 885.121 1274.38 884.984C1275.34 884.711 1276.3 884.574 1277.25 884.574L1285.25 884.779C1287.58 884.779 1289.7 884.096 1291.61 882.729C1292.7 882.455 1293.93 881.977 1295.3 881.293C1296.8 880.473 1298.24 879.584 1299.61 878.627C1301.11 877.533 1302.48 876.508 1303.71 875.551C1304.94 874.457 1305.9 873.5 1306.58 872.68C1307.4 871.039 1308.29 868.373 1309.25 864.682C1310.34 860.99 1311.5 857.299 1312.73 853.607C1314.1 849.916 1315.54 846.635 1317.04 843.764C1318.68 840.893 1320.53 839.457 1322.58 839.457C1324.35 839.457 1325.99 840.756 1327.5 843.354V862.221C1327.5 863.998 1327.29 865.57 1326.88 866.938C1326.61 868.305 1325.99 870.219 1325.04 872.68L1322.58 875.961L1323.6 882.729C1323.6 883.275 1323.74 884.916 1324.01 887.65C1324.29 890.248 1324.56 893.324 1324.83 896.879C1325.11 900.297 1325.38 903.852 1325.65 907.543C1325.93 911.098 1326.06 914.037 1326.06 916.361L1325.04 923.949C1325.04 926.273 1325.45 928.256 1326.27 929.896C1327.09 931.537 1327.5 933.041 1327.5 934.408C1327.5 937.963 1326.81 941.039 1325.45 943.637C1324.22 946.234 1321.82 947.533 1318.27 947.533C1316.49 947.533 1315.12 947.26 1314.17 946.713C1313.21 946.029 1312.46 945.277 1311.91 944.457C1311.5 943.5 1311.23 942.475 1311.09 941.381C1310.96 940.15 1310.89 938.92 1310.89 937.689C1310.89 936.732 1310.89 935.912 1310.89 935.229C1310.89 934.408 1310.75 933.588 1310.48 932.768L1304.73 922.719V916.361C1304.6 914.584 1303.03 912.875 1300.02 911.234C1297.01 909.594 1293.25 908.09 1288.74 906.723C1284.23 905.355 1279.24 904.125 1273.77 903.031C1268.44 901.938 1263.17 900.98 1257.98 900.16C1252.92 899.34 1248.27 898.725 1244.03 898.314C1239.93 897.904 1236.92 897.699 1235.01 897.699C1232.55 897.699 1230.36 898.52 1228.45 900.16C1226.67 901.664 1225.1 903.578 1223.73 905.902C1222.5 908.09 1221.54 910.482 1220.86 913.08C1220.17 915.541 1219.7 917.729 1219.42 919.643V935.844L1222.09 967.426V985.268C1222.36 988.412 1223.59 991.557 1225.78 994.701C1228.1 997.846 1230.84 1000.72 1233.98 1003.31C1237.13 1005.91 1240.48 1008.03 1244.03 1009.67C1247.59 1011.31 1250.8 1012.27 1253.67 1012.54L1268.23 1013.57L1272.13 1015H1285.25C1288.53 1015 1291.54 1015 1294.28 1015C1297.01 1015 1299.74 1014.94 1302.48 1014.8C1305.21 1014.66 1308.02 1014.53 1310.89 1014.39C1313.76 1014.25 1317.04 1013.98 1320.73 1013.57L1337.14 1007.21C1339.32 1005.71 1341.99 1003.52 1345.13 1000.65C1348.28 997.777 1351.36 994.77 1354.36 991.625C1357.51 988.344 1360.38 985.131 1362.98 981.986C1365.57 978.842 1367.49 976.244 1368.72 974.193C1369.4 973.783 1370.09 972.758 1370.77 971.117C1371.45 969.34 1372.21 967.494 1373.03 965.58C1373.98 963.529 1375.01 961.752 1376.1 960.248C1377.33 958.744 1378.77 957.992 1380.41 957.992C1381.91 957.992 1383.01 958.607 1383.69 959.838C1384.37 961.068 1384.71 962.299 1384.71 963.529L1381.02 976.449C1378.97 983.559 1376.99 990.805 1375.08 998.188C1373.16 1005.43 1371.86 1012.82 1371.18 1020.34C1368.31 1024.71 1364.69 1027.38 1360.31 1028.33C1355.94 1029.15 1351.42 1029.56 1346.78 1029.56C1345.27 1029.56 1343.77 1029.56 1342.26 1029.56C1340.76 1029.56 1339.39 1029.7 1338.16 1029.97L1333.86 1031C1332.49 1031 1331.39 1030.86 1330.57 1030.59C1329.75 1030.32 1329 1030.04 1328.32 1029.77C1327.63 1029.5 1326.95 1029.22 1326.27 1028.95C1325.58 1028.68 1324.7 1028.54 1323.6 1028.54L1310.48 1029.97L1303.71 1028.54L1272.13 1031C1262.15 1031 1252.17 1030.59 1242.19 1029.77C1232.21 1028.95 1221.88 1028.54 1211.22 1028.54L1184.97 1031L1166.51 1029.97C1164.05 1029.97 1161.66 1030.25 1159.33 1030.79C1157.01 1031.34 1154.75 1031.96 1152.57 1032.64C1150.38 1033.32 1148.26 1033.94 1146.21 1034.49C1144.16 1035.03 1142.18 1035.31 1140.26 1035.31C1137.94 1035.31 1135.41 1034.96 1132.67 1034.28C1129.94 1033.6 1127.34 1032.57 1124.88 1031.21C1122.56 1029.84 1120.57 1028.13 1118.93 1026.08C1117.29 1024.03 1116.47 1021.63 1116.47 1018.9Z" fill="#3C4043"/>
</svg>
