<svg width="1920" height="1080" viewBox="0 0 1920 1080" fill="none" xmlns="http://www.w3.org/2000/svg">
<path d="M339.313 383.92C338.886 383.92 338.033 383.707 336.753 383.28C332.059 381.787 328.753 378.8 326.833 374.32C324.913 370.053 323.953 364.72 323.953 358.32C323.953 350.853 325.019 342.533 327.153 333.36C329.286 324.187 331.953 314.907 335.153 305.52C338.353 296.133 341.659 287.387 345.073 279.28C348.486 271.173 351.473 264.453 354.033 259.12C361.286 243.76 368.539 229.36 375.793 215.92C383.259 202.267 389.979 190.427 395.953 180.4C402.139 170.373 407.046 163.12 410.673 158.64C403.633 157.36 396.379 156.293 388.913 155.44C381.446 154.587 373.553 154.16 365.233 154.16C348.806 154.16 333.339 156.4 318.833 160.88C304.539 165.147 292.486 171.013 282.673 178.48C276.486 183.173 272.006 187.653 269.233 191.92C266.459 196.187 265.073 200.027 265.073 203.44C265.073 207.92 267.099 211.333 271.153 213.68C275.206 216.027 280.539 217.2 287.153 217.2C301.659 217.2 315.206 215.173 327.793 211.12C340.379 206.853 352.539 201.093 364.273 193.84C365.339 193.2 366.086 193.093 366.513 193.52C367.153 193.947 366.833 194.693 365.553 195.76C358.086 201.307 348.913 206.64 338.033 211.76C327.153 216.88 315.633 220.933 303.473 223.92C291.313 226.907 279.366 227.973 267.633 227.12C262.513 226.693 257.393 224.88 252.273 221.68C247.366 218.267 245.019 213.893 245.233 208.56C245.659 199.387 248.859 191.493 254.833 184.88C260.806 178.053 268.593 172.293 278.193 167.6C287.793 162.907 298.353 159.173 309.873 156.4C321.606 153.627 333.339 151.707 345.073 150.64C357.019 149.36 368.006 148.72 378.033 148.72C385.286 148.72 392.219 148.933 398.833 149.36C405.446 149.787 411.846 150.427 418.033 151.28C421.019 149.147 424.006 147.653 426.993 146.8C430.193 145.733 433.073 145.2 435.633 145.2C438.193 145.2 440.326 145.733 442.033 146.8C443.739 147.867 444.593 149.253 444.593 150.96C444.593 152.027 444.059 153.627 442.993 155.76C454.939 158.32 465.393 160.88 474.353 163.44C483.313 165.787 493.019 167.92 503.473 169.84C506.886 170.48 511.793 171.333 518.193 172.4C524.593 173.253 530.246 173.68 535.153 173.68C541.553 173.68 544.753 172.507 544.753 170.16C544.753 167.6 543.579 164.933 541.233 162.16C538.886 159.387 536.113 157.04 532.913 155.12C529.713 153.2 526.726 152.24 523.953 152.24C523.099 152.24 522.779 152.133 522.993 151.92C523.206 151.493 523.739 151.28 524.593 151.28C526.513 151.28 529.286 151.813 532.913 152.88C536.753 153.733 539.419 154.373 540.913 154.8C546.886 156.72 549.873 160.453 549.873 166C549.873 169.2 548.806 171.973 546.673 174.32C545.606 175.813 544.433 177.307 543.153 178.8C541.873 180.08 540.486 181.04 538.993 181.68C533.233 183.813 526.299 184.88 518.193 184.88C509.233 184.88 499.633 183.813 489.393 181.68C479.366 179.547 469.553 176.987 459.953 174C450.353 170.8 441.819 167.92 434.353 165.36C429.659 170.693 425.286 176.027 421.233 181.36C417.179 186.48 412.379 193.52 406.833 202.48C397.659 217.2 388.379 233.2 378.993 250.48C369.606 267.76 361.286 285.573 354.033 303.92C346.779 322.053 341.659 340.08 338.673 358C338.246 360.987 337.819 363.76 337.393 366.32C337.179 368.88 337.073 371.333 337.073 373.68C337.073 378.16 337.713 381.253 338.993 382.96C339.419 383.387 339.633 383.707 339.633 383.92H339.313ZM418.95 343.6C425.777 326.32 432.71 309.893 439.75 294.32C447.003 278.533 453.937 263.813 460.55 250.16C462.257 246.533 464.71 241.413 467.91 234.8C471.323 227.973 475.057 220.827 479.11 213.36C483.377 205.68 487.43 198.533 491.27 191.92C495.11 185.307 498.31 180.4 500.87 177.2C506.417 169.947 511.43 165.36 515.91 163.44C520.603 161.52 524.55 160.56 527.75 160.56C529.243 160.56 530.63 160.667 531.91 160.88C533.19 160.88 534.257 160.88 535.11 160.88C524.443 175.173 514.203 190.533 504.39 206.96C494.577 223.173 485.403 239.387 476.87 255.6C468.55 271.813 461.083 287.173 454.47 301.68C456.39 299.333 459.377 295.6 463.43 290.48C467.697 285.36 472.603 279.707 478.15 273.52C483.697 267.12 489.457 261.04 495.43 255.28C501.617 249.52 507.377 244.72 512.71 240.88C515.057 239.173 518.15 237.68 521.99 236.4C526.043 234.907 529.883 234.16 533.51 234.16C535.857 234.16 538.097 234.587 540.23 235.44C542.363 236.08 544.07 237.467 545.35 239.6C544.497 240.88 543.537 242.267 542.47 243.76C541.617 245.04 540.55 246.533 539.27 248.24C534.79 254.853 529.883 262.107 524.55 270C519.43 277.68 514.523 285.68 509.83 294C505.35 302.107 501.83 310.213 499.27 318.32C498.63 320.24 498.097 322.053 497.67 323.76C497.243 325.467 497.03 326.96 497.03 328.24C497.03 331.227 498.203 332.72 500.55 332.72C504.603 332.72 508.977 331.12 513.67 327.92C518.363 324.72 522.843 321.093 527.11 317.04C531.377 312.773 534.683 309.253 537.03 306.48C539.377 303.92 541.403 301.467 543.11 299.12C545.03 296.773 546.95 294.533 548.87 292.4C549.51 291.76 550.043 291.44 550.47 291.44C551.75 291.44 552.39 292.293 552.39 294C552.39 295.28 551.963 296.453 551.11 297.52C546.63 303.067 541.937 308.72 537.03 314.48C533.83 318.107 529.883 322.16 525.19 326.64C520.497 331.12 515.377 334.96 509.83 338.16C504.283 341.147 498.63 342.64 492.87 342.64C488.177 342.64 484.977 341.573 483.27 339.44C481.563 337.307 480.71 334.533 480.71 331.12C480.71 327.28 481.777 321.627 483.91 314.16C486.257 306.48 490.737 296.667 497.35 284.72C503.963 272.56 513.777 257.84 526.79 240.56C525.51 240.56 522.737 242.267 518.47 245.68C514.203 248.88 509.403 252.827 504.07 257.52C498.95 262 494.257 266.267 489.99 270.32C485.723 274.373 482.95 277.253 481.67 278.96C467.59 294.32 454.79 310.96 443.27 328.88L441.35 334.32C440.07 337.733 438.15 339.973 435.59 341.04C433.243 341.893 430.683 342.32 427.91 342.32C424.923 342.32 421.937 342.747 418.95 343.6ZM568.653 346.8C560.546 346.8 554.146 344.453 549.453 339.76C544.973 335.067 542.733 328.453 542.733 319.92C542.733 314.16 543.906 307.227 546.253 299.12C551.586 281.84 560.013 265.2 571.533 249.2C577.293 241.093 583.373 234.053 589.773 228.08C595.959 221.893 602.253 216.987 608.653 213.36C615.266 209.733 621.453 207.92 627.213 207.92C633.399 207.92 638.413 209.627 642.253 213.04C646.093 216.24 648.013 220.4 648.013 225.52C648.013 230.427 645.773 235.76 641.293 241.52C632.333 252.827 622.626 261.573 612.173 267.76C601.933 273.947 589.986 278.533 576.333 281.52H575.053C571.426 288.56 568.226 295.6 565.453 302.64C562.893 309.68 561.079 316.293 560.013 322.48C559.799 323.547 559.586 324.613 559.373 325.68C559.373 326.533 559.373 327.493 559.373 328.56C559.373 336.453 562.893 340.4 569.933 340.4C572.279 340.4 575.266 339.867 578.893 338.8C582.306 337.733 586.039 336.133 590.093 334C594.359 331.653 598.413 329.2 602.253 326.64C606.093 324.08 608.866 322.053 610.573 320.56C612.919 318.427 615.159 316.293 617.293 314.16C619.639 311.813 622.199 309.253 624.973 306.48C627.106 304.133 629.133 301.893 631.053 299.76C632.973 297.413 634.786 295.067 636.493 292.72C637.133 292.08 637.666 291.76 638.093 291.76C639.373 291.76 640.013 292.72 640.013 294.64C640.013 295.707 639.586 296.667 638.733 297.52C634.893 302.213 631.053 306.907 627.213 311.6C623.373 316.08 619.426 320.453 615.373 324.72C610.253 330.053 603.639 335.067 595.533 339.76C587.639 344.453 578.679 346.8 568.653 346.8ZM576.653 278.32C582.626 276.4 589.453 272.987 597.133 268.08C605.026 263.173 612.599 257.413 619.853 250.8C627.319 243.973 633.186 237.04 637.453 230C638.946 227.227 639.693 224.88 639.693 222.96C639.693 220.187 638.306 218.8 635.533 218.8C633.186 218.8 630.413 219.76 627.213 221.68C621.239 224.667 615.159 229.253 608.973 235.44C602.786 241.627 596.919 248.453 591.373 255.92C585.826 263.387 580.919 270.853 576.653 278.32ZM696.876 666C688.209 666 680.209 662.833 672.876 656.5C668.543 652.833 665.376 647.833 663.376 641.5C661.709 635.5 660.876 628.833 660.876 621.5C660.876 610.833 662.209 599.333 664.876 587C667.876 575 671.209 563.333 674.876 552C678.543 541 681.543 531.833 683.876 524.5C688.209 510.5 693.376 495.333 699.376 479C705.709 462.667 712.543 445 719.876 426C709.543 425 699.543 424.167 689.876 423.5C680.543 422.5 671.043 421.667 661.376 421C643.709 446 624.709 469.333 604.376 491C584.043 512.333 561.543 530.833 536.876 546.5C512.543 562.5 485.876 574.833 456.876 583.5C428.209 592.5 397.043 597 363.376 597C340.376 597 319.876 593.333 301.876 586C284.209 578.667 270.042 569.167 259.376 557.5C246.376 542.833 239.876 527.333 239.876 511C239.876 498.667 243.542 486.833 250.876 475.5C255.542 467.833 261.376 461.167 268.376 455.5C275.376 449.5 283.209 444.167 291.876 439.5C315.209 427.167 341.209 418 369.876 412C398.543 406 428.376 402 459.376 400C468.043 399.333 476.709 399 485.376 399C494.376 399 503.209 399 511.876 399C534.543 399 556.876 399.667 578.876 401C600.876 402 622.043 403.5 642.376 405.5C662.709 378.833 681.376 352 698.376 325C715.709 297.667 731.543 271.833 745.876 247.5L784.376 174C785.376 172 786.209 171 786.876 171C787.543 171 787.876 171.667 787.876 173C788.209 174 788.209 175 787.876 176C770.876 215 752.876 254.5 733.876 294.5C714.876 334.167 693.543 372.167 669.876 408.5L724.376 414C729.376 401 734.876 386 740.876 369C747.209 352 753.043 334.667 758.376 317C764.043 299 768.543 282 771.876 266C775.209 249.667 776.543 235.5 775.876 223.5L783.876 217.5C786.876 215.167 789.709 214 792.376 214C800.376 214 805.709 218.333 808.376 227C811.376 235.333 812.876 244.167 812.876 253.5C812.876 261.5 811.376 271.333 808.376 283C805.376 294.333 801.543 306.333 796.876 319C792.543 331.667 787.709 344 782.376 356C776.709 369 770.876 381.5 764.876 393.5C759.209 405.5 755.376 413.667 753.376 418C763.043 419.333 772.709 421.167 782.376 423.5C792.376 425.833 800.709 429.333 807.376 434C814.043 438.667 817.376 445.167 817.376 453.5C817.376 456.167 816.876 459.333 815.876 463C814.876 466.333 813.709 468 812.376 468C811.709 468 811.376 467.167 811.376 465.5C811.376 463.833 811.543 462.5 811.876 461.5C812.209 460.167 812.043 458.5 811.376 456.5C808.043 452.167 802.209 448.333 793.876 445C785.543 441.667 776.876 439 767.876 437C758.876 435 751.543 433.833 745.876 433.5C744.209 437.167 741.543 443.333 737.876 452C734.209 460.667 730.043 470.667 725.376 482C720.709 493 715.876 504.333 710.876 516C706.209 527.667 702.043 538.5 698.376 548.5C694.709 558.167 692.043 566 690.376 572C689.376 576.333 687.709 582.5 685.376 590.5C683.043 598.5 680.876 606.667 678.876 615C676.876 623.667 675.876 631.333 675.876 638C675.876 646.333 678.043 651 682.376 652C689.376 653.333 696.209 651.5 702.876 646.5C709.876 641.5 716.876 635.5 723.876 628.5C730.876 621.5 738.043 615.5 745.376 610.5C746.376 609.833 747.043 609.667 747.376 610C748.043 610.333 747.543 611.167 745.876 612.5C744.543 613.5 742.543 616.167 739.876 620.5C737.209 625.167 734.543 630 731.876 635C729.209 640.333 727.209 644.333 725.876 647C722.543 653.333 718.209 658 712.876 661C707.876 664.333 702.543 666 696.876 666ZM363.376 584C390.043 584 415.543 579.667 439.876 571C464.543 562.333 488.043 550.5 510.376 535.5C532.709 520.5 553.876 503.167 573.876 483.5C594.209 463.5 613.376 442.333 631.376 420C609.376 419 588.043 418.5 567.376 418.5C517.043 418.5 469.542 422 424.876 429C380.209 435.667 339.042 446.833 301.376 462.5C283.709 469.5 271.042 477.333 263.376 486C256.042 494.667 252.376 503.333 252.376 512C252.376 522.667 256.042 532.5 263.376 541.5C271.042 550.167 280.709 557.667 292.376 564C304.042 570.333 316.209 575.167 328.876 578.5C341.542 582.167 353.042 584 363.376 584ZM914.641 553.5C907.975 553.5 903.141 551.333 900.141 547C897.141 542.667 895.641 536.833 895.641 529.5C895.641 520.833 897.308 510.5 900.641 498.5C904.308 486.167 908.641 473.667 913.641 461C908.975 468.333 903.475 476.333 897.141 485C890.808 493.667 884.141 502 877.141 510C870.141 517.667 863.141 524 856.141 529C849.475 533.667 843.308 536 837.641 536C828.308 536 821.808 532.833 818.141 526.5C814.808 520.167 813.141 512.833 813.141 504.5C813.141 499.167 813.475 494 814.141 489C815.141 483.667 816.308 479 817.641 475C823.975 457.667 831.808 439.667 841.141 421C850.808 402.333 861.475 384.333 873.141 367C884.808 349.667 896.475 334.667 908.141 322C916.141 314 922.141 310 926.141 310C928.141 310 929.141 311.167 929.141 313.5C929.141 315.833 927.975 319.167 925.641 323.5C923.641 327.833 920.308 332.833 915.641 338.5C911.975 342.833 906.975 350.833 900.641 362.5C894.308 373.833 887.475 386.833 880.141 401.5C872.808 415.833 865.808 430.167 859.141 444.5C852.808 458.833 847.475 471.333 843.141 482C840.475 488.333 838.475 494 837.141 499C836.141 504 835.641 508.167 835.641 511.5C835.641 519.5 838.308 523.5 843.641 523.5C850.641 523.5 859.641 517 870.641 504C873.308 500.667 877.141 495.667 882.141 489C887.141 482.333 892.475 475 898.141 467C904.141 458.667 909.808 450.667 915.141 443C920.475 435 924.808 428.5 928.141 423.5L939.641 402.5C941.308 398.833 944.641 396 949.641 394C954.975 392 959.808 391 964.141 391C967.141 391 968.641 392.5 968.641 395.5C968.641 399.167 967.808 403 966.141 407C964.808 410.667 962.808 414.667 960.141 419C955.475 427 950.641 436.5 945.641 447.5C940.975 458.5 936.808 469.167 933.141 479.5C929.808 489.5 927.641 497.667 926.641 504C925.308 509.667 924.641 515.333 924.641 521C924.641 523.333 924.975 525.833 925.641 528.5C925.975 532.833 927.641 535 930.641 535C931.975 535 933.641 534.5 935.641 533.5C942.975 529.833 950.308 524.667 957.641 518C964.975 511 971.975 503.667 978.641 496C981.975 492.333 985.141 488.833 988.141 485.5C991.141 482.167 993.975 478.667 996.641 475C997.641 474 998.475 473.5 999.141 473.5C1001.14 473.5 1002.14 474.833 1002.14 477.5C1002.14 479.5 1001.47 481.167 1000.14 482.5L978.141 509C970.808 517.333 963.141 525.5 955.141 533.5C940.808 546.833 927.308 553.5 914.641 553.5ZM1010.98 553.5C1003.65 553.5 997.481 551.333 992.481 547C987.481 542.667 984.981 535.333 984.981 525C984.981 522.333 985.148 519.667 985.481 517C985.815 514.333 986.315 511.5 986.981 508.5C990.648 491.833 996.815 473.5 1005.48 453.5C1014.48 433.5 1023.81 414.833 1033.48 397.5C1030.15 397.833 1027.15 398.5 1024.48 399.5C1021.81 400.5 1019.15 401 1016.48 401C1015.15 401 1012.81 400.667 1009.48 400C1006.15 399 1004.48 397.333 1004.48 395C1004.48 392.333 1007.48 390.667 1013.48 390C1019.48 389.333 1025.31 389 1030.98 389H1037.98C1042.65 381.333 1046.98 374.333 1050.98 368C1054.98 361.333 1058.65 355.667 1061.98 351C1069.65 340 1077.15 332.333 1084.48 328C1091.81 323.667 1098.31 321.167 1103.98 320.5C1109.65 319.5 1113.65 319 1115.98 319C1105.98 330.333 1096.81 342 1088.48 354C1080.48 365.667 1072.65 378 1064.98 391C1072.98 391.333 1080.65 391.333 1087.98 391C1095.31 390.333 1100.65 388.833 1103.98 386.5C1105.65 385.167 1107.15 384.5 1108.48 384.5C1110.48 384.5 1110.98 386.333 1109.98 390C1109.31 393.333 1107.48 396.833 1104.48 400.5C1101.81 403.833 1098.31 405.667 1093.98 406C1089.65 406.333 1084.65 405.5 1078.98 403.5C1073.31 401.5 1067.48 399.833 1061.48 398.5C1055.48 409.167 1049.65 420.333 1043.98 432C1038.31 443.667 1032.31 456.167 1025.98 469.5C1020.65 481.167 1016.81 491.167 1014.48 499.5C1012.15 507.833 1010.98 514.833 1010.98 520.5C1010.98 526.5 1012.15 530.833 1014.48 533.5C1017.15 536.167 1020.31 537.5 1023.98 537.5C1027.98 537.5 1032.65 536.167 1037.98 533.5C1045.31 529.833 1052.65 524.5 1059.98 517.5C1067.31 510.5 1074.31 503.333 1080.98 496C1084.31 492.333 1087.48 488.833 1090.48 485.5C1093.48 482.167 1096.31 478.667 1098.98 475C1099.98 474 1100.81 473.5 1101.48 473.5C1103.48 473.5 1104.48 474.833 1104.48 477.5C1104.48 479.5 1103.81 481.167 1102.48 482.5C1095.48 491.167 1088.15 500 1080.48 509C1071.48 519.333 1061.48 529.333 1050.48 539C1039.48 548.667 1026.31 553.5 1010.98 553.5ZM1188.52 553.5C1177.19 553.5 1171.52 546.5 1171.52 532.5C1171.52 525.833 1172.69 518.167 1175.02 509.5C1177.35 500.5 1180.52 490.833 1184.52 480.5C1177.52 491.5 1169.69 502.5 1161.02 513.5C1152.69 524.5 1144.02 533.667 1135.02 541C1126.35 548 1117.85 551.5 1109.52 551.5C1100.19 551.5 1093.85 548.5 1090.52 542.5C1087.52 536.167 1086.02 529.333 1086.02 522C1086.02 515.667 1086.69 509.667 1088.02 504C1089.35 498 1090.69 493.667 1092.02 491C1097.02 478.333 1103.19 464.333 1110.52 449C1118.19 433.667 1125.02 420.333 1131.02 409C1134.35 403.333 1139.69 398.5 1147.02 394.5C1154.69 390.5 1160.85 388.5 1165.52 388.5C1170.52 388.5 1173.02 390.167 1173.02 393.5C1173.02 396.167 1171.35 400.167 1168.02 405.5C1165.02 409.833 1160.85 416.667 1155.52 426C1150.19 435 1144.35 445.167 1138.02 456.5C1132.02 467.833 1126.19 479 1120.52 490C1113.19 504 1109.52 516.167 1109.52 526.5C1109.52 534.833 1112.02 539 1117.02 539C1119.69 539 1123.19 537.5 1127.52 534.5C1131.85 531.5 1137.02 526.667 1143.02 520C1145.69 517.333 1149.69 512 1155.02 504C1160.69 496 1167.02 487 1174.02 477C1181.02 466.667 1187.85 456.667 1194.52 447C1201.19 437 1206.69 428.833 1211.02 422.5C1219.02 407.167 1227.52 396.833 1236.52 391.5C1245.52 386.167 1256.19 383.5 1268.52 383.5C1265.19 385.167 1261.19 389.5 1256.52 396.5C1251.85 403.5 1247.02 410.667 1242.02 418C1238.69 423 1235.02 429.5 1231.02 437.5C1227.02 445.5 1223.02 454 1219.02 463C1215.02 471.667 1211.52 479.833 1208.52 487.5C1205.85 495.167 1204.02 501.167 1203.02 505.5C1201.35 512.833 1200.52 518.667 1200.52 523C1200.52 531 1202.52 535 1206.52 535C1207.85 535 1209.52 534.5 1211.52 533.5C1218.85 529.833 1226.19 524.5 1233.52 517.5C1240.85 510.5 1247.85 503.333 1254.52 496C1257.85 492.333 1261.02 488.833 1264.02 485.5C1267.02 482.167 1269.85 478.667 1272.52 475C1273.52 474 1274.35 473.5 1275.02 473.5C1277.02 473.5 1278.02 474.833 1278.02 477.5C1278.02 479.5 1277.35 481.167 1276.02 482.5C1269.02 491.167 1261.69 500 1254.02 509C1246.69 517.333 1239.02 525.5 1231.02 533.5C1224.35 539.833 1217.02 544.833 1209.02 548.5C1201.02 551.833 1194.19 553.5 1188.52 553.5ZM1236.86 555C1251.19 528.333 1263.03 502.667 1272.36 478C1282.03 453 1293.03 427.833 1305.36 402.5C1309.03 395.833 1313.69 391.333 1319.36 389C1325.03 386.333 1330.53 385 1335.86 385C1340.19 385 1344.03 385.5 1347.36 386.5C1346.36 388.833 1343.69 393.5 1339.36 400.5C1335.36 407.167 1331.03 414.833 1326.36 423.5C1323.03 429.5 1318.03 438.833 1311.36 451.5C1304.69 463.833 1298.53 476.667 1292.86 490C1295.86 485.667 1300.36 479.667 1306.36 472C1312.69 464 1319.69 455.5 1327.36 446.5C1335.36 437.5 1343.53 429 1351.86 421C1360.19 413 1368.36 406.5 1376.36 401.5C1384.36 396.167 1391.53 393.5 1397.86 393.5C1404.53 393.5 1409.03 395.333 1411.36 399C1414.03 402.333 1415.36 406.333 1415.36 411C1415.36 417 1413.03 423.833 1408.36 431.5C1404.03 438.833 1399.53 447.167 1394.86 456.5C1392.19 461.5 1388.86 467.5 1384.86 474.5C1381.19 481.167 1377.53 487.833 1373.86 494.5C1370.53 500.833 1367.86 506.167 1365.86 510.5C1369.19 504.167 1374.19 496.167 1380.86 486.5C1387.53 476.5 1395.19 466.333 1403.86 456C1412.86 445.333 1422.03 435.333 1431.36 426C1440.69 416.333 1449.69 408.667 1458.36 403C1467.36 397 1475.19 394 1481.86 394C1488.53 394 1493.03 395.667 1495.36 399C1498.03 402.333 1499.36 406.333 1499.36 411C1499.36 417.333 1497.19 424.833 1492.86 433.5C1488.86 442.167 1483.69 451 1477.36 460C1471.36 469 1465.36 477.667 1459.36 486C1453.69 494.333 1449.19 501.667 1445.86 508C1441.19 517.333 1438.86 524.5 1438.86 529.5C1438.86 534.833 1441.03 537.5 1445.36 537.5C1449.03 537.5 1453.03 536.167 1457.36 533.5C1465.03 529.833 1472.53 524.667 1479.86 518C1487.19 511 1494.03 503.667 1500.36 496C1503.69 492 1507.19 488 1510.86 484C1514.86 479.667 1517.53 476.667 1518.86 475C1519.53 474 1520.36 473.5 1521.36 473.5C1523.36 473.5 1524.36 474.833 1524.36 477.5C1524.36 479.167 1523.53 480.833 1521.86 482.5C1518.53 486.833 1515.03 491.333 1511.36 496C1507.69 500.333 1503.86 504.667 1499.86 509C1496.53 513.333 1492.86 517.667 1488.86 522C1485.19 526 1481.19 529.833 1476.86 533.5C1462.53 546.833 1449.19 553.5 1436.86 553.5C1429.86 553.5 1424.86 551.5 1421.86 547.5C1418.86 543.167 1417.36 537.833 1417.36 531.5C1417.36 522.833 1419.53 512.833 1423.86 501.5C1428.53 489.833 1434.03 478.833 1440.36 468.5C1441.03 467.5 1443.19 464.333 1446.86 459C1450.53 453.667 1454.53 447.5 1458.86 440.5C1463.19 433.5 1467.03 426.833 1470.36 420.5C1473.69 414.167 1475.36 409.667 1475.36 407C1475.36 404.667 1473.86 404 1470.86 405C1468.19 406 1463.53 409.333 1456.86 415C1448.86 422 1439.86 430.833 1429.86 441.5C1419.86 452.167 1409.69 464 1399.36 477C1389.36 489.667 1380.36 503.167 1372.36 517.5C1370.69 520.833 1368.36 524.167 1365.36 527.5C1362.36 530.833 1358.36 532.5 1353.36 532.5H1351.86C1349.86 532.5 1347.53 531.833 1344.86 530.5C1342.53 529.167 1341.36 526.167 1341.36 521.5C1341.36 513.167 1344.03 503.333 1349.36 492C1354.69 480.667 1360.86 469.167 1367.86 457.5C1374.86 445.5 1380.86 434.667 1385.86 425C1387.53 421.333 1388.86 418 1389.86 415C1391.19 412 1391.86 409.667 1391.86 408C1391.86 405.333 1390.36 404.5 1387.36 405.5C1384.69 406.167 1380.03 409.333 1373.36 415C1365.36 421.667 1356.19 430.5 1345.86 441.5C1335.86 452.5 1325.69 464.333 1315.36 477C1305.03 489.667 1295.53 502.167 1286.86 514.5C1278.19 526.5 1271.53 537 1266.86 546C1265.53 549 1263.69 550.833 1261.36 551.5C1259.36 551.833 1256.03 552.167 1251.36 552.5C1248.03 552.5 1245.36 552.5 1243.36 552.5C1241.36 552.833 1239.19 553.667 1236.86 555ZM1507.98 553C1502.98 553 1499.31 551.667 1496.98 549C1494.64 546 1493.48 542.5 1493.48 538.5C1493.48 534.5 1494.14 531 1495.48 528C1505.14 505.333 1513.14 486.5 1519.48 471.5C1525.81 456.5 1531.31 443.667 1535.98 433C1540.98 422.333 1545.81 412.167 1550.48 402.5C1554.14 395.833 1558.81 391.333 1564.48 389C1570.14 386.333 1575.64 385 1580.98 385C1585.31 385 1589.14 385.5 1592.48 386.5C1591.48 388.833 1588.81 393.5 1584.48 400.5C1580.48 407.167 1576.14 414.833 1571.48 423.5C1568.14 429.5 1563.14 438.833 1556.48 451.5C1549.81 463.833 1543.64 476.667 1537.98 490C1540.98 486.333 1545.81 480.5 1552.48 472.5C1559.14 464.167 1566.81 455.167 1575.48 445.5C1584.48 435.5 1593.64 426 1602.98 417C1612.64 407.667 1621.64 400 1629.98 394C1633.64 391.333 1638.48 389 1644.48 387C1650.81 384.667 1656.81 383.5 1662.48 383.5C1666.14 383.5 1669.64 384.167 1672.98 385.5C1676.31 386.5 1678.98 388.667 1680.98 392C1679.64 394 1678.14 396.167 1676.48 398.5C1675.14 400.5 1673.48 402.833 1671.48 405.5C1660.81 420.833 1649.14 438.167 1636.48 457.5C1624.14 476.833 1614.81 496 1608.48 515C1607.81 518 1607.14 520.833 1606.48 523.5C1605.81 526.167 1605.48 528.5 1605.48 530.5C1605.48 535.167 1607.31 537.5 1610.98 537.5C1617.31 537.5 1624.14 535 1631.48 530C1638.81 525 1645.81 519.333 1652.48 513C1659.14 506.333 1664.31 500.833 1667.98 496.5C1671.64 492.5 1674.81 488.667 1677.48 485C1680.48 481.333 1683.48 477.833 1686.48 474.5C1687.48 473.5 1688.31 473 1688.98 473C1690.98 473 1691.98 474.333 1691.98 477C1691.98 479 1691.31 480.833 1689.98 482.5C1686.31 486.833 1682.64 491.333 1678.98 496C1675.31 500.333 1671.64 504.667 1667.98 509C1662.98 514.667 1656.81 521 1649.48 528C1642.14 535 1634.14 541 1625.48 546C1616.81 550.667 1607.98 553 1598.98 553C1591.64 553 1586.48 551.167 1583.48 547.5C1580.81 543.833 1579.48 539.167 1579.48 533.5C1579.48 527.167 1581.31 518.167 1584.98 506.5C1588.64 494.5 1595.64 479.167 1605.98 460.5C1616.31 441.833 1631.48 419.5 1651.48 393.5C1649.48 393.5 1645.14 396.167 1638.48 401.5C1631.81 406.5 1624.48 412.667 1616.48 420C1608.48 427 1601.14 433.667 1594.48 440C1587.81 446.333 1583.48 450.833 1581.48 453.5C1564.48 472.167 1548.98 491.167 1534.98 510.5C1529.64 518.167 1525.14 525.667 1521.48 533C1518.14 540.333 1515.31 546.833 1512.98 552.5C1511.64 552.833 1509.98 553 1507.98 553ZM800.059 602.5C796.393 602.5 793.393 601.333 791.059 599C788.726 596.333 787.559 593.333 787.559 590C787.559 585 789.226 580.833 792.559 577.5C796.226 573.833 800.226 572 804.559 572C808.893 572 812.226 573.5 814.559 576.5C817.226 579.167 818.226 582.667 817.559 587C816.559 591.333 814.393 595 811.059 598C808.059 601 804.393 602.5 800.059 602.5ZM731.559 800C724.226 800 717.893 797.667 712.559 793C707.226 788 704.559 779.667 704.559 768C704.559 763 705.059 757.5 706.059 751.5C709.059 735.833 713.893 720.833 720.559 706.5C727.559 692.167 734.226 679.833 740.559 669.5C747.226 658.833 751.559 651.833 753.559 648.5C755.226 645.167 759.559 642 766.559 639C773.559 635.667 779.393 634 784.059 634C788.059 634 790.059 635.333 790.059 638C790.059 640.333 789.226 642.5 787.559 644.5C782.559 652.5 776.726 661.667 770.059 672C763.726 682 757.559 692.667 751.559 704C745.559 715.333 740.559 726.5 736.559 737.5C732.559 748.5 730.559 758.667 730.559 768C730.559 773 731.393 777 733.059 780C735.059 783 738.559 784.5 743.559 784.5C748.893 784.5 755.059 782 762.059 777C769.059 771.667 775.726 765.833 782.059 759.5C788.726 752.833 793.559 747.667 796.559 744C799.893 740.333 803.059 736.833 806.059 733.5C809.393 730.167 812.393 726.667 815.059 723C816.059 722 816.893 721.5 817.559 721.5C819.559 721.5 820.559 723 820.559 726C820.559 727.667 819.893 729.167 818.559 730.5C814.893 734.833 811.226 739.333 807.559 744C803.893 748.333 800.059 752.667 796.059 757C790.726 763.333 784.726 769.833 778.059 776.5C771.393 783.167 764.226 788.833 756.559 793.5C748.893 797.833 740.559 800 731.559 800ZM727.622 948C717.289 948 709.789 945.167 705.122 939.5C700.122 933.833 697.622 927.333 697.622 920C697.622 910.333 700.955 900.833 707.622 891.5C714.289 882.5 722.455 874 732.122 866C741.455 858 749.955 851.333 757.622 846C770.622 836.667 784.289 828.167 798.622 820.5C813.289 813.167 828.622 806 844.622 799C851.289 784 857.455 767.833 863.122 750.5C868.789 733.167 873.455 716.5 877.122 700.5C881.122 684.5 883.622 671 884.622 660C872.289 672 858.455 686.5 843.122 703.5C828.122 720.167 812.455 738.167 796.122 757.5C794.122 759.833 792.622 761 791.622 761C790.622 761 790.122 760.167 790.122 758.5C790.122 754.5 792.122 750 796.122 745L832.122 702C843.789 688.333 856.789 674.333 871.122 660C873.789 657.333 876.122 655 878.122 653C880.122 651 881.955 649 883.622 647C884.622 641.333 886.122 635.333 888.122 629C890.122 622.667 892.955 617.333 896.622 613C900.622 608.667 905.789 606.5 912.122 606.5C918.789 606.5 923.289 608.333 925.622 612C927.955 615.667 928.622 619.333 927.622 623C924.955 624 920.122 627.5 913.122 633.5C906.455 639.167 900.122 645 894.122 651C894.455 653.333 894.622 656 894.622 659C894.622 662 894.622 665.167 894.622 668.5C894.622 676.833 894.289 686.167 893.622 696.5C893.289 706.833 892.289 718.333 890.622 731C888.955 742.333 887.289 752 885.622 760C884.289 767.667 881.789 775.833 878.122 784.5C886.789 778.833 895.622 772.333 904.622 765C913.955 757.667 921.455 750.667 927.122 744C930.455 740.333 933.622 736.833 936.622 733.5C939.622 730.167 942.455 726.667 945.122 723C946.122 722 946.955 721.5 947.622 721.5C949.622 721.5 950.622 723 950.622 726C950.622 727.667 949.955 729.167 948.622 730.5L926.622 757C919.622 765 911.289 772.667 901.622 780C891.955 787.333 881.789 793.667 871.122 799C863.122 816 853.955 833.5 843.622 851.5C833.289 869.833 821.622 887.5 808.622 904.5C799.289 915.833 787.289 925.833 772.622 934.5C757.622 943.5 742.622 948 727.622 948ZM727.122 936.5C734.122 936.5 741.955 933.833 750.622 928.5C759.289 923.167 767.789 916.333 776.122 908C784.122 899.667 791.122 891.167 797.122 882.5L818.122 850.5C822.455 844.167 826.455 837.667 830.122 831C833.789 824.333 837.289 817.667 840.622 811C824.955 818.333 807.955 827.167 789.622 837.5C771.289 848.167 754.955 860.333 740.622 874C737.622 877 733.789 881 729.122 886C724.455 891 720.289 896.333 716.622 902C712.955 908 711.122 914 711.122 920C711.122 926.667 712.622 931 715.622 933C718.622 935.333 722.455 936.5 727.122 936.5ZM894.993 879.5C882.66 880.167 872.826 877.833 865.493 872.5C858.16 867.5 854.493 861.333 854.493 854C854.493 849.333 856.326 844.333 859.993 839C863.326 834 868.66 829.333 875.993 825C889.993 816.667 905.826 810.667 923.493 807C941.16 803.333 958.993 798.833 976.993 793.5L986.493 773.5C990.16 764.833 993.993 753.5 997.993 739.5C1002.33 725.5 1005.99 711.333 1008.99 697C1012.33 682.333 1014.33 670 1014.99 660C1005.66 669.333 996.493 678.833 987.493 688.5C978.826 697.833 969.493 708.167 959.493 719.5C949.826 730.5 938.826 743.167 926.493 757.5C924.493 759.833 922.993 761 921.993 761C920.993 761 920.493 760.167 920.493 758.5C920.493 754.5 922.493 750 926.493 745L962.493 702C974.16 688.333 987.16 674.333 1001.49 660L1013.99 647C1014.99 641.333 1016.49 635.333 1018.49 629C1020.49 622.667 1023.33 617.333 1026.99 613C1030.99 608.667 1036.16 606.5 1042.49 606.5C1049.16 606.5 1053.66 608.333 1055.99 612C1058.33 615.667 1058.99 619.333 1057.99 623C1055.33 624 1050.66 627.5 1043.99 633.5C1037.33 639.167 1030.83 644.833 1024.49 650.5C1024.83 653.5 1024.99 656.833 1024.99 660.5C1024.99 663.833 1024.99 667.5 1024.99 671.5C1024.99 679.5 1024.66 688.5 1023.99 698.5C1023.66 708.167 1022.66 719 1020.99 731C1019.66 739.667 1017.99 748.167 1015.99 756.5C1014.33 764.5 1012.33 772.333 1009.99 780C1018.33 775.667 1026.33 770.833 1033.99 765.5C1041.66 759.833 1049.33 753 1056.99 745C1059.66 742 1062.33 739 1064.99 736C1067.66 733 1070.33 729.833 1072.99 726.5C1073.66 725.833 1074.33 725.5 1074.99 725.5C1075.99 725.5 1076.83 726.333 1077.49 728C1078.49 729.667 1078.49 731.167 1077.49 732.5C1074.49 736.833 1071.16 741 1067.49 745C1064.16 749 1060.66 752.833 1056.99 756.5C1049.99 763.5 1042.16 770 1033.49 776C1024.83 781.667 1015.66 787 1005.99 792C996.326 816.667 982.493 836.833 964.493 852.5C946.493 868.5 923.326 877.5 894.993 879.5ZM883.993 868C887.66 868 891.66 867.5 895.993 866.5C907.66 863.833 919.826 857.833 932.493 848.5C945.16 839.5 957.493 825.333 969.493 806C962.16 808.333 954.826 810.333 947.493 812C940.493 814 933.16 815.833 925.493 817.5C910.826 821.167 896.66 826.833 882.993 834.5C871.993 840.833 866.493 848 866.493 856C866.493 864 872.326 868 883.993 868ZM1164.36 801.5C1153.03 801.5 1147.36 794.5 1147.36 780.5C1147.36 773.833 1148.53 766.167 1150.86 757.5C1153.2 748.5 1156.36 738.833 1160.36 728.5C1153.36 739.5 1145.53 750.5 1136.86 761.5C1128.53 772.5 1119.86 781.667 1110.86 789C1102.2 796 1093.7 799.5 1085.36 799.5C1076.03 799.5 1069.7 796.5 1066.36 790.5C1063.36 784.167 1061.86 777.333 1061.86 770C1061.86 763.667 1062.53 757.667 1063.86 752C1065.2 746 1066.53 741.667 1067.86 739C1072.86 726.333 1079.03 712.333 1086.36 697C1094.03 681.667 1100.86 668.333 1106.86 657C1110.2 651.333 1115.53 646.5 1122.86 642.5C1130.53 638.5 1136.7 636.5 1141.36 636.5C1146.36 636.5 1148.86 638.167 1148.86 641.5C1148.86 644.167 1147.2 648.167 1143.86 653.5C1140.86 657.833 1136.7 664.667 1131.36 674C1126.03 683 1120.2 693.167 1113.86 704.5C1107.86 715.833 1102.03 727 1096.36 738C1089.03 752 1085.36 764.167 1085.36 774.5C1085.36 782.833 1087.86 787 1092.86 787C1095.53 787 1099.03 785.5 1103.36 782.5C1107.7 779.5 1112.86 774.667 1118.86 768C1121.53 765.333 1125.53 760 1130.86 752C1136.53 744 1142.86 735 1149.86 725C1156.86 714.667 1163.7 704.667 1170.36 695C1177.03 685 1182.53 676.833 1186.86 670.5C1194.86 655.167 1203.36 644.833 1212.36 639.5C1221.36 634.167 1232.03 631.5 1244.36 631.5C1241.03 633.167 1237.03 637.5 1232.36 644.5C1227.7 651.5 1222.86 658.667 1217.86 666C1214.53 671 1210.86 677.5 1206.86 685.5C1202.86 693.5 1198.86 702 1194.86 711C1190.86 719.667 1187.36 727.833 1184.36 735.5C1181.7 743.167 1179.86 749.167 1178.86 753.5C1177.2 760.833 1176.36 766.667 1176.36 771C1176.36 779 1178.36 783 1182.36 783C1183.7 783 1185.36 782.5 1187.36 781.5C1194.7 777.833 1202.03 772.5 1209.36 765.5C1216.7 758.5 1223.7 751.333 1230.36 744C1233.7 740.333 1236.86 736.833 1239.86 733.5C1242.86 730.167 1245.7 726.667 1248.36 723C1249.36 722 1250.2 721.5 1250.86 721.5C1252.86 721.5 1253.86 722.833 1253.86 725.5C1253.86 727.5 1253.2 729.167 1251.86 730.5C1244.86 739.167 1237.53 748 1229.86 757C1222.53 765.333 1214.86 773.5 1206.86 781.5C1200.2 787.833 1192.86 792.833 1184.86 796.5C1176.86 799.833 1170.03 801.5 1164.36 801.5ZM1265.7 872C1252.7 872 1242.7 866.667 1235.7 856C1228.7 845.667 1225.2 830.833 1225.2 811.5C1225.2 808.167 1225.37 804.833 1225.7 801.5C1225.7 798.167 1225.87 794.667 1226.2 791C1228.2 774.667 1233.2 756.833 1241.2 737.5C1249.54 718.167 1262.2 697.5 1279.2 675.5C1290.54 660.833 1302.87 649.833 1316.2 642.5C1329.54 635.167 1342.37 631.5 1354.7 631.5C1363.37 631.5 1371.04 633.167 1377.7 636.5C1385.7 640.833 1389.7 648.667 1389.7 660C1389.7 668.333 1386.7 677.667 1380.7 688C1374.7 698 1364.54 707.667 1350.2 717C1331.2 729 1315.37 737 1302.7 741C1290.04 745 1279.87 747.167 1272.2 747.5C1269.87 751.167 1267.37 757 1264.7 765C1262.04 772.667 1259.7 780.833 1257.7 789.5C1255.7 797.833 1254.37 805.333 1253.7 812C1253.7 813.333 1253.54 814.667 1253.2 816C1253.2 817.667 1253.2 819.333 1253.2 821C1253.2 831 1254.87 839.5 1258.2 846.5C1261.87 853.833 1268.2 857.5 1277.2 857.5C1285.2 857.5 1294.2 854.5 1304.2 848.5C1314.2 842.833 1324.04 835.833 1333.7 827.5C1343.7 819.5 1352.37 811.667 1359.7 804C1367.37 796.667 1372.7 791.167 1375.7 787.5L1412.7 744.5L1432.7 721.5C1433.7 720.5 1434.54 720 1435.2 720C1437.2 720 1438.2 721.333 1438.2 724C1438.2 725 1437.37 726.667 1435.7 729C1432.37 733.667 1428.54 738.5 1424.2 743.5C1420.2 748.5 1416.37 753.167 1412.7 757.5C1408.04 762.833 1402.2 769.667 1395.2 778C1388.54 786.333 1381.37 795 1373.7 804C1366.37 813 1359.2 821 1352.2 828C1339.87 840 1326.37 850.333 1311.7 859C1297.04 867.667 1281.7 872 1265.7 872ZM1276.7 739.5C1281.37 739.167 1287.2 737.333 1294.2 734C1301.2 730.667 1308.37 726.667 1315.7 722C1323.37 717 1330.54 712.167 1337.2 707.5C1343.87 702.833 1349.2 698.833 1353.2 695.5C1360.87 689.5 1366.54 682.833 1370.2 675.5C1373.87 668.167 1375.7 661.833 1375.7 656.5C1375.7 652.833 1374.7 649.667 1372.7 647C1371.04 644.333 1368.37 643 1364.7 643C1357.7 643 1350.04 646.5 1341.7 653.5C1333.7 660.167 1325.54 668.833 1317.2 679.5C1309.2 689.833 1301.54 700.5 1294.2 711.5C1287.2 722.167 1281.37 731.5 1276.7 739.5Z" fill="#3C4043"/>
</svg>
