<svg width="1920" height="1080" fill="none" xmlns="http://www.w3.org/2000/svg"><g opacity=".33" fill="#3C4043"><path d="M48.406 331.867h58.952v188.121h309.89V331.867h58.429v438.422h-58.429V568.585h-309.89v201.704H48.406V331.867ZM553.932 604.649a147.065 147.065 0 0 1 14.074-66.263 146.791 146.791 0 0 1 42.267-52.88 227.198 227.198 0 0 1 149.726-46.508 229.806 229.806 0 0 1 150.248 46.508 146.786 146.786 0 0 1 42.273 52.88 147.039 147.039 0 0 1 14.074 66.263v9.406a147.025 147.025 0 0 1-14.074 66.259 146.78 146.78 0 0 1-42.273 52.881 229.812 229.812 0 0 1-150.248 46.508 227.204 227.204 0 0 1-149.726-46.508 146.786 146.786 0 0 1-42.267-52.881 147.051 147.051 0 0 1-14.074-66.259v-9.406Zm57.908 9.406a110.415 110.415 0 0 0 9.476 46.469 110.243 110.243 0 0 0 28.084 38.184 195.417 195.417 0 0 0 110.86 34.5 195.414 195.414 0 0 0 110.86-34.5 109.736 109.736 0 0 0 27.855-38.232 109.87 109.87 0 0 0 9.19-46.421v-9.406a109.888 109.888 0 0 0-9.19-46.425 109.712 109.712 0 0 0-27.855-38.228 195.407 195.407 0 0 0-110.86-34.5 195.41 195.41 0 0 0-110.86 34.5 110.23 110.23 0 0 0-28.084 38.183 110.416 110.416 0 0 0-9.476 46.47v9.406ZM1037.54 300h56.87v209.021a188.871 188.871 0 0 1 65.72-49.203 188.592 188.592 0 0 1 80.35-16.639 164.648 164.648 0 0 1 112.16 34.49 150.136 150.136 0 0 1 32.04 54.064 150.227 150.227 0 0 1 7.09 62.464v177.146h-56.86V593.674a95.761 95.761 0 0 0-5.24-42.776 95.617 95.617 0 0 0-23.45-36.13 126.643 126.643 0 0 0-81.91-24.035 139.651 139.651 0 0 0-76.17 20.377 172.406 172.406 0 0 0-52.17 52.255v209.021h-56.86L1037.54 300ZM1460.12 604.641a147.078 147.078 0 0 1 14.07-66.263 146.683 146.683 0 0 1 42.27-52.88 265.207 265.207 0 0 1 149.98-46.492c53.53 0 105.82 16.206 149.99 46.492a146.788 146.788 0 0 1 42.27 52.88 146.954 146.954 0 0 1 14.08 66.263v9.406a146.944 146.944 0 0 1-14.08 66.26 146.788 146.788 0 0 1-42.27 52.88 265.239 265.239 0 0 1-149.99 46.492 265.207 265.207 0 0 1-149.98-46.492 146.683 146.683 0 0 1-42.27-52.88 147.068 147.068 0 0 1-14.07-66.26v-9.406Zm57.9 9.406a110.43 110.43 0 0 0 9.48 46.469 110.236 110.236 0 0 0 28.08 38.184 195.438 195.438 0 0 0 110.86 34.5 195.39 195.39 0 0 0 110.86-34.5 110.137 110.137 0 0 0 28.09-38.184 110.43 110.43 0 0 0 9.48-46.469v-9.406a110.43 110.43 0 0 0-9.48-46.469 110.128 110.128 0 0 0-28.09-38.184 195.39 195.39 0 0 0-110.86-34.5c-39.58 0-78.24 12.031-110.86 34.5a110.226 110.226 0 0 0-28.08 38.184 110.43 110.43 0 0 0-9.48 46.469v9.406Z"/></g><g opacity=".66" fill="#3C4043"><path d="M48.406 331.867h58.952v188.121h224.331V331.867h58.43v438.422h-58.43V568.585H107.358v201.704H48.406V331.867ZM468.373 604.654c-1.875-43.516 12.857-86.117 41.21-119.143a156.372 156.372 0 0 1 110.338-45.586 156.39 156.39 0 0 1 110.344 45.586c28.353 33.026 43.084 75.627 41.209 119.143v9.406c1.875 43.517-12.856 86.114-41.209 119.14a156.39 156.39 0 0 1-110.344 45.586A156.372 156.372 0 0 1 509.583 733.2c-28.353-33.026-43.085-75.623-41.21-119.14v-9.406Zm57.908 9.406a147.017 147.017 0 0 0 23.473 84.653 79.338 79.338 0 0 0 30.434 26.437 79.179 79.179 0 0 0 39.471 8.05 80.24 80.24 0 0 0 39.701-8.056 80.387 80.387 0 0 0 30.733-26.431 147.01 147.01 0 0 0 23.474-84.653v-9.406a147.01 147.01 0 0 0-23.474-84.653 80.395 80.395 0 0 0-30.733-26.434 80.24 80.24 0 0 0-39.701-8.056 79.179 79.179 0 0 0-39.471 8.05 79.345 79.345 0 0 0-30.434 26.44 147.017 147.017 0 0 0-23.473 84.653v9.406ZM842.424 300h56.87v188.117a125.207 125.207 0 0 1 43.298-33.44 131.8 131.8 0 0 1 57.385-12.544 104.253 104.253 0 0 1 74.083 27.696 123.508 123.508 0 0 1 24.07 43.249 123.461 123.461 0 0 1 5.14 49.244v209.021h-56.86V562.322c.9-9.913-.16-19.908-3.11-29.413a75.582 75.582 0 0 0-14.11-25.977 68.785 68.785 0 0 0-49.038-16.722 82.841 82.841 0 0 0-47.991 14.629 101.331 101.331 0 0 0-32.867 38.149V770.82h-56.87V300ZM1171.09 604.661c-1.61-43.478 13.09-85.987 41.22-119.143a156.363 156.363 0 0 1 110.6-45.848c41.47 0 81.25 16.491 110.6 45.848 28.12 33.156 42.82 75.665 41.21 119.143v9.406c1.61 43.478-13.09 85.983-41.21 119.14-29.35 29.357-69.13 45.847-110.6 45.847-41.48 0-81.26-16.49-110.6-45.847-28.13-33.157-42.83-75.662-41.22-119.14v-9.406Zm58.43 9.406A147.03 147.03 0 0 0 1253 698.72a88.168 88.168 0 0 0 30.94 25.406 88.064 88.064 0 0 0 77.93 0 88.168 88.168 0 0 0 30.94-25.406 147.03 147.03 0 0 0 23.48-84.653v-9.406a147.028 147.028 0 0 0-23.48-84.653 88.171 88.171 0 0 0-30.94-25.407 88.025 88.025 0 0 0-77.93 0 88.171 88.171 0 0 0-30.94 25.407 147.028 147.028 0 0 0-23.48 84.653v9.406Z"/></g><path d="M48.406 331.867h58.43v188.121h138.772V331.867h58.952v438.422h-58.952V568.585H106.836v201.704h-58.43V331.867ZM382.291 604.652a212.422 212.422 0 0 1 30.778-119.143 95.013 95.013 0 0 1 34.669-34.101 94.815 94.815 0 0 1 93.952 0 95.016 95.016 0 0 1 34.67 34.101 212.433 212.433 0 0 1 30.256 119.143v9.406a212.423 212.423 0 0 1-30.256 119.14 95.016 95.016 0 0 1-34.67 34.101 94.825 94.825 0 0 1-46.973 12.455 94.853 94.853 0 0 1-46.979-12.455 95.013 95.013 0 0 1-34.669-34.101 212.414 212.414 0 0 1-30.778-119.14v-9.406Zm57.907 9.406a224.518 224.518 0 0 0 14.087 84.653c8.869 22.992 22.434 34.487 40.171 34.487 17.738 0 31.297-11.495 40.688-34.487a236.043 236.043 0 0 0 13.564-84.653v-9.406a236.043 236.043 0 0 0-13.564-84.653c-9.391-22.992-22.428-34.49-40.688-34.49-18.259 0-31.302 11.498-40.171 34.49a224.518 224.518 0 0 0-14.087 84.653v9.406ZM680.7 300h52.17v180.281a69.45 69.45 0 0 1 26.607-28.22 66.678 66.678 0 0 1 35.993-9.928 63.054 63.054 0 0 1 29.206 6.436 63.142 63.142 0 0 1 22.964 19.171 143.882 143.882 0 0 1 19.824 85.696v216.861h-56.862V552.393a100.488 100.488 0 0 0-8.872-48.077 28.662 28.662 0 0 0-25.562-14.629 33.843 33.843 0 0 0-14.443 3.342 33.923 33.923 0 0 0-11.642 9.198 83.116 83.116 0 0 0-18.258 31.352v236.718H680.7V300ZM941.551 604.652a212.433 212.433 0 0 1 30.256-119.143 95.04 95.04 0 0 1 34.673-34.101 94.835 94.835 0 0 1 46.98-12.455c16.47 0 32.65 4.292 46.97 12.455a95.062 95.062 0 0 1 34.67 34.101 212.464 212.464 0 0 1 30.78 119.143v9.406c1.72 41.888-9 83.344-30.78 119.14a95.062 95.062 0 0 1-34.67 34.101 94.837 94.837 0 0 1-46.97 12.455 94.846 94.846 0 0 1-46.98-12.455 95.04 95.04 0 0 1-34.673-34.101 212.423 212.423 0 0 1-30.256-119.14v-9.406Zm57.907 9.406a236.041 236.041 0 0 0 13.562 84.653c9.05 22.992 22.61 34.487 40.7 34.487 17.73 0 31.3-11.495 40.17-34.487a225.005 225.005 0 0 0 13.56-84.653v-9.406a225.005 225.005 0 0 0-13.56-84.653c-8.87-22.992-22.44-34.49-40.17-34.49-17.74 0-31.83 11.498-40.7 34.49a236.041 236.041 0 0 0-13.562 84.653v9.406Z" fill="#3C4043"/><path d="M107.232 330.232a2.501 2.501 0 0 0 0 3.536l15.91 15.91a2.501 2.501 0 0 0 3.536-3.536L112.536 332l14.142-14.142a2.501 2.501 0 0 0-3.536-3.536l-15.91 15.91Zm138.536 3.536a2.501 2.501 0 0 0 0-3.536l-15.91-15.91a2.501 2.501 0 0 0-3.536 3.536L240.464 332l-14.142 14.142a2.501 2.501 0 0 0 3.536 3.536l15.91-15.91ZM109 334.5h135v-5H109v5ZM107.232 380.232a2.501 2.501 0 0 0 0 3.536l15.91 15.91a2.501 2.501 0 0 0 3.536-3.536L112.536 382l14.142-14.142a2.501 2.501 0 0 0-3.536-3.536l-15.91 15.91Zm222.536 3.536a2.501 2.501 0 0 0 0-3.536l-15.91-15.91a2.501 2.501 0 0 0-3.536 3.536L324.464 382l-14.142 14.142a2.501 2.501 0 0 0 3.536 3.536l15.91-15.91ZM109 384.5h219v-5H109v5ZM107.232 430.232a2.501 2.501 0 0 0 0 3.536l15.91 15.91a2.501 2.501 0 0 0 3.536-3.536L112.536 432l14.142-14.142a2.501 2.501 0 0 0-3.536-3.536l-15.91 15.91Zm309.536 3.536a2.501 2.501 0 0 0 0-3.536l-15.91-15.91a2.501 2.501 0 0 0-3.536 3.536L411.464 432l-14.142 14.142a2.501 2.501 0 0 0 3.536 3.536l15.91-15.91ZM109 434.5h306v-5H109v5ZM999.232 609.232a2.501 2.501 0 0 0 0 3.536l15.908 15.91c.98.976 2.56.976 3.54 0 .97-.977.97-2.56 0-3.536L1004.54 611l14.14-14.142c.97-.976.97-2.559 0-3.536a2.506 2.506 0 0 0-3.54 0l-15.908 15.91Zm109.538 3.536c.97-.977.97-2.559 0-3.536l-15.91-15.91a2.506 2.506 0 0 0-3.54 0c-.97.977-.97 2.56 0 3.536L1103.46 611l-14.14 14.142a2.512 2.512 0 0 0 0 3.536c.98.976 2.56.976 3.54 0l15.91-15.91ZM1001 613.5h106v-5h-106v5ZM1229.23 659.232a2.512 2.512 0 0 0 0 3.536l15.91 15.91c.98.976 2.56.976 3.54 0 .97-.977.97-2.56 0-3.536L1234.54 661l14.14-14.142c.97-.976.97-2.559 0-3.536a2.506 2.506 0 0 0-3.54 0l-15.91 15.91Zm190.54 3.536c.97-.977.97-2.559 0-3.536l-15.91-15.91a2.506 2.506 0 0 0-3.54 0c-.97.977-.97 2.56 0 3.536L1414.46 661l-14.14 14.142a2.512 2.512 0 0 0 0 3.536c.98.976 2.56.976 3.54 0l15.91-15.91ZM1231 663.5h187v-5h-187v5ZM1518.23 709.232a2.512 2.512 0 0 0 0 3.536l15.91 15.91c.98.976 2.56.976 3.54 0 .97-.977.97-2.56 0-3.536L1523.54 711l14.14-14.142c.97-.976.97-2.559 0-3.536a2.506 2.506 0 0 0-3.54 0l-15.91 15.91Zm300.54 3.536c.97-.977.97-2.559 0-3.536l-15.91-15.91a2.506 2.506 0 0 0-3.54 0c-.97.977-.97 2.56 0 3.536L1813.46 711l-14.14 14.142a2.512 2.512 0 0 0 0 3.536c.98.976 2.56.976 3.54 0l15.91-15.91ZM1520 713.5h297v-5h-297v5Z" fill="#FF6D7F"/></svg>