<svg width="1920" height="1080" viewBox="0 0 1920 1080" fill="none" xmlns="http://www.w3.org/2000/svg">
<path d="M243 393H251.669V622.481H243V393Z" fill="#FF6D7F"/>
<path d="M287.111 541.401C287.111 517.688 291.7 498.31 301.135 483.266C310.569 468.223 322.808 460.828 338.107 460.828C353.405 460.828 364.624 467.968 372.529 481.991C380.433 496.015 384.513 514.884 384.513 538.852V559.76H291.7V523.553H375.843V527.378C375.843 519.983 373.294 513.354 368.194 507.489C363.094 501.625 353.15 498.82 338.362 498.82C324.593 498.82 314.139 502.9 306.744 511.314C299.35 519.728 295.78 529.672 295.78 541.911V546.756C295.78 558.74 299.35 568.939 306.744 577.098C314.139 585.258 325.613 589.337 341.166 589.337C349.326 589.337 356.21 588.572 361.82 586.788C367.429 585.003 372.529 583.473 377.373 581.943L383.748 596.477C379.668 604.126 374.314 611.266 367.684 617.64C361.055 624.014 352.64 627.329 342.696 627.329C324.848 627.329 311.334 619.935 301.645 604.891C291.955 589.847 287.111 570.469 287.111 546.756V541.911V541.401Z" fill="#FF6D7F"/>
<path d="M392.414 465.43H462.533V504.951H392.414V465.43V465.43ZM420.462 487.358V426.418H428.876V568.186C428.876 575.07 430.661 580.17 433.976 583.23C437.29 586.29 442.39 587.819 449.274 587.819C451.569 587.819 453.864 587.564 455.904 586.799C457.944 586.035 460.238 585.525 462.533 584.505V623.261C460.748 624.536 458.454 625.301 455.904 626.066C453.354 626.831 450.549 627.086 447.489 627.086C439.075 627.086 432.446 623.516 427.601 616.632C422.757 609.748 420.462 596.234 420.462 575.835V487.358V487.358Z" fill="#FF6D7F"/>
<path d="M520.673 423.831C520.673 432.756 518.633 442.445 514.299 452.899C509.964 463.353 503.845 472.022 495.685 478.907L474.012 464.118C479.367 458.764 483.956 452.644 487.271 446.27C490.586 439.895 492.371 432.501 492.371 424.341V404.453H520.418V423.831H520.673Z" fill="#FF6D7F"/>
<path d="M537.499 571.482V572.502C537.499 578.621 540.814 583.211 547.444 586.271C554.073 589.33 561.977 590.86 571.157 590.86C580.336 590.86 587.73 589.585 593.34 587.291C598.949 584.996 601.754 580.916 601.754 575.307C601.754 570.972 599.714 565.617 595.634 559.243C591.555 552.868 584.415 548.024 573.706 544.454C559.937 539.865 549.483 534.765 542.854 528.9C536.224 523.036 532.91 514.622 532.91 503.913C532.91 490.909 536.989 480.455 544.894 472.805C552.798 465.156 562.997 461.076 574.981 461.076C586.965 461.076 596.654 466.176 603.539 476.63C610.423 487.084 613.993 499.578 613.993 514.112V515.642H605.579V514.877C605.579 509.012 603.029 504.678 597.929 501.873C592.83 499.068 585.945 497.538 577.531 497.538C569.117 497.538 562.232 498.558 557.133 500.598C552.033 502.638 549.483 505.952 549.483 510.797C549.483 515.642 551.013 519.721 554.073 524.056C557.133 528.391 564.782 532.47 576.511 536.295C591.3 540.884 601.499 546.494 607.618 553.378C613.738 560.263 616.543 569.442 616.543 580.916C616.543 593.92 612.973 604.884 605.834 613.808C598.694 622.733 587.985 627.322 573.451 627.322C558.918 627.322 547.953 622.733 540.304 613.808C532.655 604.884 528.83 591.115 528.83 572.757V571.737H537.244L537.499 571.482Z" fill="#FF6D7F"/>
<path d="M726.441 643.668C729.756 644.688 735.11 645.708 742.25 646.728C749.389 647.747 757.038 648.257 764.433 648.257C777.692 648.257 788.146 644.688 796.05 637.548C803.954 630.409 807.779 620.21 807.779 607.206V604.146C803.189 611.031 797.58 616.13 790.44 619.955C783.301 623.779 775.142 625.564 765.963 625.564C750.154 625.564 737.915 618.17 729.246 603.126C720.576 588.082 716.242 569.214 716.242 546.266V541.421C716.242 518.473 720.576 499.605 729.246 484.561C737.915 469.517 750.154 462.123 765.963 462.123C775.397 462.123 783.811 464.418 791.205 468.752C798.6 473.087 804.464 478.697 808.289 485.326V464.928H815.938V606.696C815.938 632.704 811.094 652.592 801.66 666.361C792.225 680.13 779.986 687.014 764.943 687.014C756.018 687.014 747.859 684.719 740.21 680.385C732.56 676.05 726.186 670.696 720.831 664.066L726.186 642.903L726.441 643.668ZM735.11 573.549C741.995 580.943 752.959 584.513 767.747 584.513C777.437 584.513 785.851 581.708 792.735 576.353C799.62 570.999 804.719 564.624 807.779 557.74V529.947C804.719 522.808 799.62 516.688 792.735 511.334C785.851 505.979 777.437 503.175 767.747 503.175C752.959 503.175 741.995 506.744 735.11 514.139C728.226 521.533 724.656 530.457 724.656 541.421V546.266C724.656 556.975 728.226 566.154 735.11 573.549V573.549Z" fill="#FF6D7F"/>
<path d="M850.865 541.401C850.865 517.688 855.709 498.31 865.654 483.266C875.598 468.223 888.602 460.828 904.92 460.828C921.239 460.828 934.243 468.223 944.187 483.266C954.131 498.31 958.976 517.688 958.976 541.401V546.246C958.976 569.959 954.131 589.337 944.187 604.381C934.243 619.425 921.239 626.819 904.92 626.819C888.602 626.819 875.598 619.425 865.654 604.381C855.709 589.337 850.865 569.959 850.865 546.246V541.401V541.401ZM859.534 546.246C859.534 557.465 863.359 566.899 871.008 574.549C878.657 582.198 889.876 586.023 904.665 586.023C919.454 586.023 930.673 582.198 938.322 574.549C945.972 566.899 949.796 557.465 949.796 546.246V541.401C949.796 530.182 945.972 520.748 938.322 513.099C930.673 505.449 919.454 501.625 904.665 501.625C889.876 501.625 878.657 505.449 871.008 513.099C863.359 520.748 859.534 530.182 859.534 541.401V546.246Z" fill="#FF6D7F"/>
<path d="M1058.42 541.401C1058.42 517.688 1063.01 498.31 1072.44 483.266C1081.88 468.223 1094.63 460.828 1110.69 460.828C1125.74 460.828 1136.7 467.203 1144.35 479.697C1152 492.19 1155.57 506.214 1155.57 522.023V523.043H1147.66V522.023C1147.66 516.413 1144.6 511.314 1138.74 506.979C1132.87 502.645 1123.44 500.605 1110.69 500.605C1096.16 500.605 1085.19 504.684 1077.8 512.589C1070.4 520.493 1066.84 530.182 1066.84 541.911V546.756C1066.84 558.485 1070.4 568.174 1077.8 576.078C1085.19 583.983 1095.9 588.062 1110.69 588.062C1123.44 588.062 1132.87 586.023 1138.74 581.688C1144.6 577.353 1147.66 572.254 1147.66 566.644V565.624H1155.57V566.644C1155.57 582.198 1151.74 596.222 1144.35 608.716C1136.95 621.21 1125.74 627.584 1110.69 627.584C1094.63 627.584 1081.88 620.19 1072.44 605.146C1063.01 590.102 1058.42 570.724 1058.42 547.011V542.166V541.401Z" fill="#FF6D7F"/>
<path d="M1182.59 465.411H1190.24V485.554C1194.32 478.925 1199.42 473.315 1205.79 468.471C1212.17 463.626 1219.82 461.076 1228.74 461.076C1231.04 461.076 1233.33 461.076 1235.63 461.841C1237.92 462.606 1239.71 462.861 1240.73 463.116V510.797C1238.69 510.287 1236.65 510.032 1234.35 509.777C1232.06 509.522 1229.76 509.522 1227.21 509.522C1219.31 509.522 1212.17 511.817 1205.54 516.407C1198.91 520.996 1194.07 526.861 1190.75 533.745V622.478H1182.34V465.411H1182.59Z" fill="#FF6D7F"/>
<path d="M1266.23 535.53C1275.15 525.841 1286.62 520.996 1300.39 520.996H1335.58V514.877C1335.58 509.522 1333.03 505.187 1328.19 502.128C1323.34 499.068 1314.93 497.283 1303.2 497.283C1291.47 497.283 1283.05 498.558 1277.95 501.363C1272.85 504.168 1270.3 507.227 1270.3 510.797V511.817H1262.4V510.797C1262.4 497.538 1265.97 485.809 1273.11 475.865C1280.25 465.921 1290.45 461.076 1304.22 461.076C1316.97 461.076 1326.66 465.666 1333.79 474.59C1340.93 483.514 1344.25 497.028 1344.25 515.132V586.781C1344.25 593.155 1344.76 599.275 1345.78 605.139C1346.8 611.004 1348.33 615.848 1350.11 620.183V622.478H1342.46C1340.68 619.928 1339.4 616.868 1338.38 612.788C1337.36 608.709 1336.6 604.884 1336.34 601.059C1332.77 607.689 1327.17 613.553 1319.52 618.398C1311.87 623.243 1302.43 625.537 1291.72 625.537C1279.74 625.537 1270.3 621.203 1263.42 612.788C1256.54 604.374 1252.97 592.135 1252.97 576.071C1252.97 558.733 1257.56 545.219 1266.48 535.53H1266.23ZM1269.03 585.251C1274.13 587.801 1282.03 589.075 1292.74 589.075C1303.45 589.075 1313.4 586.016 1322.32 579.896C1331.24 573.777 1335.58 567.147 1335.58 560.518V554.398H1303.2C1289.43 554.398 1278.97 556.183 1271.83 560.008C1264.7 563.833 1261.13 568.677 1261.13 574.797C1261.13 579.386 1263.68 582.956 1268.77 585.506L1269.03 585.251Z" fill="#FF6D7F"/>
<path d="M1375.62 593.671L1460.27 506.214H1376.64V465.162H1478.63V493.72L1393.72 581.177H1482.97V622.229H1375.36V593.416L1375.62 593.671Z" fill="#FF6D7F"/>
<path d="M1494.94 645.687C1497.24 646.707 1500.04 647.217 1503.1 647.727C1506.16 648.237 1508.96 648.492 1511.51 648.492C1518.91 648.492 1524.52 646.197 1528.34 641.352C1532.17 636.508 1537.01 626.054 1543.13 609.48H1542.88L1494.18 465.417H1503.86L1545.17 585.002C1545.17 585.002 1546.19 587.807 1546.96 590.357C1547.72 592.906 1548.23 595.456 1548.23 597.496H1549C1549 595.456 1549 592.906 1550.02 590.102C1551.04 587.297 1551.29 584.747 1552.06 582.707L1591.83 465.162H1629.57L1566.59 643.137C1561.49 657.671 1554.35 668.635 1544.41 676.029C1534.46 683.424 1523.75 687.248 1511.77 687.248C1508.2 687.248 1505.14 687.248 1502.59 686.739C1500.04 686.229 1497.49 685.464 1495.2 684.444V645.432L1494.94 645.687Z" fill="#FF6D7F"/>
<path d="M1649.97 583.232C1652.78 578.387 1656.6 575.838 1661.45 575.838C1666.29 575.838 1670.37 578.387 1672.92 583.232C1675.47 588.077 1677 593.941 1677 600.825C1677 607.71 1675.73 613.574 1672.92 618.419C1670.12 623.264 1666.29 625.558 1661.45 625.558C1656.6 625.558 1652.52 623.264 1649.97 618.419C1647.42 613.574 1645.89 607.71 1645.89 600.825C1645.89 593.941 1647.17 588.077 1649.97 583.232V583.232ZM1657.11 405.002H1665.78L1668.08 547.79H1654.82L1657.11 405.002V405.002Z" fill="#FF6D7F"/>
</svg>
