<svg width="1920" height="1080" viewBox="0 0 1920 1080" fill="none" xmlns="http://www.w3.org/2000/svg">
<g clip-path="url(#clip0_2709_7623)">
<line x1="2.45131" y1="-4.35788" x2="1922.45" y2="1075.64" stroke="black" stroke-opacity="0.05" stroke-width="10"/>
<line x1="-1.32955" y1="1077.65" x2="1916.41" y2="-6.35821" stroke="black" stroke-opacity="0.05" stroke-width="10"/>
<path d="M555.765 571.696C553.802 571.696 551.455 570.075 548.725 566.832C545.994 563.504 544.629 560.816 544.629 558.768C544.629 556.72 545.653 552.496 547.701 546.096C554.015 526.469 557.386 509.275 557.812 494.512C554.911 491.44 553.461 489.008 553.461 487.216C553.461 484.4 556.789 481.755 563.445 479.28C570.186 476.72 576.586 475.44 582.645 475.44C592.885 475.44 600.949 477.829 606.837 482.608C612.81 487.387 615.797 493.488 615.797 500.912C615.797 510.384 611.146 518.96 601.845 526.64C592.629 534.32 580.981 539.568 566.901 542.384C562.89 556.805 560.245 565.296 558.965 567.856C557.77 570.416 556.703 571.696 555.765 571.696ZM597.621 501.296C597.621 498.565 596.639 496.347 594.677 494.64C592.714 492.848 590.069 491.952 586.741 491.952C583.413 491.952 578.805 493.531 572.917 496.688C574.623 499.675 575.477 502.363 575.477 504.752C575.477 509.445 574.239 516.4 571.765 525.616C579.445 522.544 585.674 518.875 590.453 514.608C595.231 510.256 597.621 505.819 597.621 501.296ZM639.967 476.72C642.1 476.72 644.703 478.128 647.775 480.944C650.847 483.76 652.383 486.661 652.383 489.648C652.383 497.84 648.159 513.712 639.711 537.264C636.809 545.541 635.359 551.301 635.359 554.544C635.359 554.971 635.444 555.227 635.615 555.312C635.785 555.397 637.364 555.44 640.351 555.44C643.337 555.44 647.433 555.013 652.639 554.16C657.929 553.221 662.196 552.325 665.439 551.472C668.767 550.619 670.729 550.192 671.327 550.192C673.46 550.192 674.527 551.557 674.527 554.288C674.527 559.664 670.431 564.016 662.239 567.344C654.132 570.587 644.703 572.208 633.951 572.208C629.769 572.208 625.929 570.672 622.431 567.6C619.017 564.443 617.311 560.987 617.311 557.232C617.311 553.477 620.468 541.36 626.783 520.88C633.097 500.315 636.255 487.003 636.255 480.944C636.255 478.128 637.492 476.72 639.967 476.72ZM747.09 524.336C750.503 524.336 752.935 524.677 754.386 525.36C755.922 525.957 756.69 527.109 756.69 528.816C756.69 531.12 752.978 533.467 745.554 535.856C745.724 542.341 745.81 548.571 745.81 554.544C745.81 560.432 745.34 564.869 744.402 567.856C743.463 570.757 741.97 572.208 739.922 572.208C737.874 572.208 736.252 571.184 735.058 569.136C733.948 567.003 733.01 563.547 732.242 558.768C731.559 553.989 730.834 547.675 730.066 539.824C721.362 541.787 715.09 543.365 711.25 544.56C704.594 562.992 700.156 572.208 697.938 572.208C696.146 572.208 693.756 571.013 690.77 568.624C687.868 566.235 686.418 563.76 686.418 561.2C686.418 559.749 688.082 555.227 691.41 547.632C689.959 546.693 688.679 545.371 687.57 543.664C686.546 541.872 686.034 540.165 686.034 538.544C686.034 535.728 690.258 533.04 698.706 530.48C699.388 528.773 700.071 526.853 700.753 524.72C701.522 522.501 703.356 517.381 706.258 509.36C709.244 501.339 711.591 494.64 713.298 489.264C714.066 486.704 716.711 484.315 721.234 482.096C725.842 479.877 729.426 478.768 731.986 478.768C734.972 478.768 737.618 482.907 739.922 491.184C742.311 499.461 743.975 510.512 744.914 524.336H747.09ZM717.522 526.512C720.082 526.171 723.794 525.744 728.658 525.232C728.402 522.757 727.975 518.533 727.378 512.56C726.866 506.587 726.482 502.277 726.226 499.632C724.775 504.411 721.874 513.371 717.522 526.512ZM818.755 478.384C821.144 478.384 823.747 480.517 826.562 484.784C829.379 488.965 830.787 492.421 830.787 495.152C830.787 497.883 830.232 499.248 829.123 499.248C828.611 499.248 827.501 499.077 825.795 498.736C824.173 498.395 822.765 498.224 821.571 498.224C817.304 498.224 812.312 500.955 806.595 506.416C800.877 511.877 795.971 518.405 791.875 526C787.864 533.595 785.859 540.165 785.859 545.712C785.859 548.443 786.285 550.448 787.139 551.728C787.992 552.923 789.528 553.52 791.747 553.52C797.635 553.52 803.608 552.624 809.667 550.832C815.725 549.04 820.717 547.248 824.643 545.456C828.568 543.579 830.787 542.64 831.299 542.64C831.896 542.64 832.451 543.152 832.963 544.176C833.56 545.115 833.859 546.267 833.859 547.632C833.859 550.533 831.555 553.989 826.947 558C822.339 561.925 816.749 565.296 810.179 568.112C803.693 570.928 797.805 572.336 792.515 572.336C787.224 572.336 781.635 569.136 775.747 562.736C769.944 556.336 767.043 550.235 767.043 544.432C767.043 536.325 769.645 527.109 774.851 516.784C780.056 506.373 786.755 497.371 794.947 489.776C803.224 482.181 811.16 478.384 818.755 478.384ZM873.307 518.576C877.829 518.576 882.693 518.363 887.899 517.936C893.104 517.424 896.304 517.168 897.499 517.168C898.779 517.168 899.76 517.467 900.443 518.064C901.211 518.661 901.595 519.387 901.595 520.24C901.595 523.995 898.053 526.981 890.971 529.2C883.888 531.419 876.336 532.699 868.315 533.04C864.987 543.365 863.323 549.893 863.323 552.624C863.323 554.075 864.048 554.8 865.499 554.8C875.227 554.8 885.253 553.52 895.579 550.96C899.077 550.021 901.083 549.552 901.595 549.552C903.216 549.552 904.027 550.704 904.027 553.008C904.027 556.08 901.765 559.067 897.243 561.968C892.72 564.869 887.045 567.173 880.219 568.88C873.392 570.587 866.693 571.44 860.123 571.44C856.197 571.44 852.656 569.989 849.499 567.088C846.341 564.101 844.763 560.645 844.763 556.72C844.763 552.709 846.939 542.725 851.291 526.768C855.728 510.811 858.075 498.779 858.331 490.672C858.245 490.416 858.203 489.904 858.203 489.136C858.203 487.941 858.373 487.003 858.715 486.32C859.653 483.931 862.256 482.437 866.523 481.84C870.789 481.157 878.469 480.816 889.563 480.816C907.995 480.816 917.211 482.864 917.211 486.96C917.211 489.605 914.949 491.44 910.427 492.464C907.355 493.147 903.131 493.787 897.755 494.384C889.477 495.323 882.096 496.688 875.611 498.48C875.611 504.283 874.587 510.981 872.539 518.576H873.307ZM930.878 572.336C929.087 572.336 926.569 570.331 923.327 566.32C920.084 562.224 918.463 559.109 918.463 556.976C918.463 554.757 919.743 548.144 922.303 537.136C920.255 535.088 919.231 532.528 919.231 529.456C919.231 527.749 921.279 526.043 925.375 524.336C930.751 502.491 933.439 488.667 933.439 482.864C933.439 480.048 934.676 478.64 937.151 478.64C939.199 478.64 941.844 480.688 945.087 484.784C948.415 488.88 950.079 492.72 950.079 496.304C950.079 498.608 948.543 506.288 945.471 519.344C952.809 518.064 960.105 517.296 967.359 517.04C971.455 499.888 973.503 488.496 973.503 482.864C973.503 480.048 974.74 478.64 977.215 478.64C979.263 478.64 981.908 480.688 985.151 484.784C988.479 488.88 990.143 492.72 990.143 496.304C990.143 498.096 988.479 505.435 985.151 518.32C989.417 519.344 991.551 521.008 991.551 523.312C991.551 525.957 988.393 528.048 982.079 529.584C979.007 541.36 977.001 549.168 976.062 553.008C975.124 556.763 974.399 559.621 973.887 561.584C973.46 563.461 972.991 565.296 972.479 567.088C971.54 570.587 970.644 572.336 969.791 572.336C967.743 572.336 965.268 570.715 962.367 567.472C959.551 564.229 958.143 560.987 958.143 557.744C958.143 555.867 959.935 547.547 963.519 532.784C953.705 534.405 946.153 535.899 940.863 537.264C938.217 547.419 936.468 554.501 935.615 558.512C934.761 562.437 934.079 565.296 933.567 567.088C932.628 570.587 931.732 572.336 930.878 572.336ZM1036.53 550.32C1041.47 545.883 1045.78 540.336 1049.45 533.68C1053.12 526.939 1054.96 520.496 1054.96 514.352C1054.96 508.208 1054.19 503.472 1052.65 500.144C1051.12 496.816 1048.98 495.152 1046.25 495.152C1043.52 495.152 1039.94 497.627 1035.5 502.576C1031.15 507.44 1027.18 513.84 1023.6 521.776C1020.1 529.712 1018.35 537.307 1018.35 544.56C1018.35 548.229 1018.86 551.216 1019.89 553.52C1020.91 555.739 1022.19 556.848 1023.73 556.848C1027.31 556.848 1031.58 554.672 1036.53 550.32ZM1023.85 572.336C1017.54 572.336 1011.91 569.264 1006.96 563.12C1002.01 556.891 999.534 550.704 999.534 544.56C999.534 536.709 1001.03 528.688 1004.01 520.496C1007 512.219 1010.71 505.093 1015.15 499.12C1019.67 493.061 1024.62 488.112 1030 484.272C1035.37 480.347 1040.32 478.384 1044.85 478.384C1053.12 478.384 1059.91 481.925 1065.2 489.008C1070.49 496.005 1073.13 503.899 1073.13 512.688C1073.13 521.477 1070.91 530.395 1066.48 539.44C1062.04 548.4 1055.9 556.123 1048.05 562.608C1040.28 569.093 1032.22 572.336 1023.85 572.336ZM1102.59 476.72C1104.72 476.72 1107.33 478.128 1110.4 480.944C1113.47 483.76 1115.01 486.661 1115.01 489.648C1115.01 497.84 1110.78 513.712 1102.34 537.264C1099.43 545.541 1097.98 551.301 1097.98 554.544C1097.98 554.971 1098.07 555.227 1098.24 555.312C1098.41 555.397 1099.99 555.44 1102.98 555.44C1105.96 555.44 1110.06 555.013 1115.26 554.16C1120.55 553.221 1124.82 552.325 1128.06 551.472C1131.39 550.619 1133.35 550.192 1133.95 550.192C1136.08 550.192 1137.15 551.557 1137.15 554.288C1137.15 559.664 1133.06 564.016 1124.86 567.344C1116.76 570.587 1107.33 572.208 1096.58 572.208C1092.39 572.208 1088.55 570.672 1085.06 567.6C1081.64 564.443 1079.94 560.987 1079.94 557.232C1079.94 553.477 1083.09 541.36 1089.41 520.88C1095.72 500.315 1098.88 487.003 1098.88 480.944C1098.88 478.128 1100.12 476.72 1102.59 476.72ZM1158.64 478.384C1165.3 478.384 1172.55 479.749 1180.4 482.48C1188.34 485.211 1195.68 488.795 1202.42 493.232C1209.25 497.669 1214.92 503.003 1219.44 509.232C1224.05 515.461 1226.35 521.776 1226.35 528.176C1226.35 532.955 1222.47 538.928 1214.71 546.096C1207.03 553.179 1198.11 559.323 1187.95 564.528C1177.8 569.733 1169.48 572.336 1162.99 572.336C1161.54 572.336 1159.2 570.459 1155.95 566.704C1152.8 562.864 1151.22 560.048 1151.22 558.256C1151.22 554.757 1153.52 545.029 1158.13 529.072C1162.82 513.029 1165.73 502.021 1166.83 496.048C1163.76 494 1161.2 491.568 1159.15 488.752C1157.11 485.851 1156.08 483.419 1156.08 481.456C1156.08 479.408 1156.94 478.384 1158.64 478.384ZM1207.92 524.592C1207.92 521.861 1205.41 518.277 1200.37 513.84C1195.34 509.317 1189.49 505.563 1182.83 502.576C1182.32 508.976 1178.7 522.672 1171.95 543.664C1171.61 544.773 1171.06 546.608 1170.29 549.168C1169.61 551.643 1169.1 553.307 1168.75 554.16C1177.12 551.344 1185.74 546.608 1194.61 539.952C1203.49 533.211 1207.92 528.091 1207.92 524.592ZM1261.56 518.576C1266.08 518.576 1270.94 518.363 1276.15 517.936C1281.35 517.424 1284.55 517.168 1285.75 517.168C1287.03 517.168 1288.01 517.467 1288.69 518.064C1289.46 518.661 1289.84 519.387 1289.84 520.24C1289.84 523.995 1286.3 526.981 1279.22 529.2C1272.14 531.419 1264.59 532.699 1256.56 533.04C1253.24 543.365 1251.57 549.893 1251.57 552.624C1251.57 554.075 1252.3 554.8 1253.75 554.8C1263.48 554.8 1273.5 553.52 1283.83 550.96C1287.33 550.021 1289.33 549.552 1289.84 549.552C1291.47 549.552 1292.28 550.704 1292.28 553.008C1292.28 556.08 1290.02 559.067 1285.49 561.968C1280.97 564.869 1275.3 567.173 1268.47 568.88C1261.64 570.587 1254.94 571.44 1248.37 571.44C1244.45 571.44 1240.91 569.989 1237.75 567.088C1234.59 564.101 1233.01 560.645 1233.01 556.72C1233.01 552.709 1235.19 542.725 1239.54 526.768C1243.98 510.811 1246.32 498.779 1246.58 490.672C1246.5 490.416 1246.45 489.904 1246.45 489.136C1246.45 487.941 1246.62 487.003 1246.96 486.32C1247.9 483.931 1250.51 482.437 1254.77 481.84C1259.04 481.157 1266.72 480.816 1277.81 480.816C1296.24 480.816 1305.46 482.864 1305.46 486.96C1305.46 489.605 1303.2 491.44 1298.68 492.464C1295.6 493.147 1291.38 493.787 1286 494.384C1277.73 495.323 1270.35 496.688 1263.86 498.48C1263.86 504.283 1262.84 510.981 1260.79 518.576H1261.56ZM1372.89 567.728C1372.89 571.227 1370.46 572.976 1365.59 572.976C1358.94 572.976 1351.94 569.52 1344.6 562.608C1337.35 555.696 1332.18 548.485 1329.11 540.976C1327.75 545.072 1326.81 547.845 1326.3 549.296C1325.78 550.747 1325.02 553.051 1323.99 556.208C1322.97 559.365 1322.16 561.712 1321.56 563.248C1321.05 564.784 1320.45 566.405 1319.77 568.112C1318.49 571.355 1317.25 572.976 1316.06 572.976C1314.09 572.976 1311.7 571.355 1308.89 568.112C1306.16 564.784 1304.79 562.096 1304.79 560.048C1304.79 558 1305.77 554.203 1307.74 548.656C1313.54 531.675 1316.87 516.187 1317.72 502.192C1316.1 500.912 1314.65 499.12 1313.37 496.816C1312.09 494.512 1311.45 492.592 1311.45 491.056C1311.45 488.496 1314.73 485.808 1321.3 482.992C1327.96 480.176 1335.6 478.768 1344.22 478.768C1352.92 478.768 1360.17 480.816 1365.98 484.912C1371.78 489.008 1374.68 494.341 1374.68 500.912C1374.68 505.776 1373.23 510.469 1370.33 514.992C1367.51 519.429 1364.4 522.928 1360.98 525.488C1357.66 527.963 1354.54 530.224 1351.64 532.272C1348.82 534.32 1347.42 535.643 1347.42 536.24C1347.42 538.288 1348.1 540.251 1349.46 542.128C1350.83 543.92 1352.75 546.053 1355.22 548.528C1357.7 550.917 1359.83 552.965 1361.62 554.672C1363.42 556.293 1364.87 557.659 1365.98 558.768C1367.17 559.877 1368.32 561.029 1369.43 562.224C1371.74 564.443 1372.89 566.277 1372.89 567.728ZM1354.97 502.192C1354.97 498.608 1351.47 496.816 1344.47 496.816C1341.14 496.816 1337.18 497.755 1332.57 499.632C1334.7 502.875 1335.77 505.861 1335.77 508.592C1335.77 513.541 1335.09 519.003 1333.72 524.976C1334.66 524.293 1336.41 523.099 1338.97 521.392C1341.53 519.6 1343.49 518.192 1344.86 517.168C1346.31 516.059 1347.93 514.651 1349.72 512.944C1353.22 509.616 1354.97 506.032 1354.97 502.192Z" fill="#34A853"/>
</g>
<defs>
<clipPath id="clip0_2709_7623">
<rect width="1920" height="1080" fill="white"/>
</clipPath>
</defs>
</svg>
