<svg width="1920" height="1080" fill="none" xmlns="http://www.w3.org/2000/svg"><path fill="#FF6D7F" d="M1320 835h550v23h-550z"/><path fill="#FF6D7F" d="M50 850h1820v10H50zM50 860h550v28H50z"/><path d="M165.211 795.076h33.88v99.68h117.04v-99.68h33.88V1030h-33.88V923.036h-117.04V1030h-33.88V795.076Z" fill="#D2E3FC"/><path d="M400.695 778h32.76v133c5.88-7.28 12.88-13.16 21.56-17.64 8.68-4.48 18.2-6.44 29.12-6.44 18.2 0 32.48 5.04 42.56 14.84 10.08 9.8 15.4 26.88 15.4 50.68V1030h-32.76v-77.84c0-13.44-2.8-23.24-8.68-28.84-5.88-5.6-14-8.4-24.64-8.4-9.52 0-17.92 2.52-25.48 7.84-7.56 5.32-13.16 11.76-17.08 19.6V1030h-32.76V778Z" fill="#3C4043"/><path d="M770.037 795.076h32.2v100.52h119.56v-100.52h32.2V1030h-32.2V922.196h-119.56V1030h-32.2V795.076Z" fill="#D2E3FC"/><path d="M1005.79 778h31.08v100.52c6.16-7.28 13.72-13.16 23.24-17.64 9.52-4.48 19.6-6.72 30.52-6.72 16.52 0 29.68 5.04 40.04 14.84s15.4 26.6 15.4 49.84V1030h-31.08V918.56c0-13.72-3.08-23.52-9.24-29.4-6.16-5.88-14.84-8.68-26.04-8.68-9.52 0-18.2 2.52-25.48 7.84-7.28 5.32-13.16 12.04-17.36 20.16V1030h-31.08V778Z" fill="#3C4043"/><path d="M1379 795.076h31.36v100.8h120.4v-100.8h31.36V1030h-31.36V921.916h-120.4V1030H1379V795.076Z" fill="#D2E3FC"/><path d="M1614.48 778H1645v81.76c6.16-7.56 13.72-13.44 22.4-17.92 8.68-4.48 18.76-6.72 29.68-6.72 17.36 0 31.36 5.04 41.72 14.84s15.4 26.32 15.4 49.56V1030h-30.52V899.24c0-13.72-3.08-23.52-9.24-29.68s-14.84-8.96-26.32-8.96c-9.8 0-18.2 2.52-25.76 7.84-7.56 5.32-13.16 12.04-17.36 20.44V1030h-30.52V778Z" fill="#3C4043"/><path fill="#FF6D7F" d="M1320 50h550v21h-550z"/><path fill="#FF6D7F" d="M50 65h1820v10H50z"/><path fill="#FF6D7F" d="M50 70h550v58H50z"/><path d="M168 127.55h32.196v73.071H319.18V127.55h31.075v177.496H319.18v-78.389H200.196v78.389h-31.355L168 127.55Z" fill="#3C4043"/><path d="M400.649 53.923h30.515v101.346a64.658 64.658 0 0 1 21.837-17.918 62.705 62.705 0 0 1 27.996-6.439 57.949 57.949 0 0 1 41.714 14.557 66.061 66.061 0 0 1 12.618 23.234 66.058 66.058 0 0 1 2.501 26.319v110.025h-29.677V194.742a40.878 40.878 0 0 0-8.957-29.676 36.12 36.12 0 0 0-26.038-8.678 42.275 42.275 0 0 0-25.478 7.838 50.392 50.392 0 0 0-17.077 20.438v120.383h-30.515l.561-251.124Z" fill="#D2E3FC"/><path d="M771 71.163h31.636V172.23H923.02V71.163h31.356v234.888H923.02V197.986H802.636v108.065H771V71.163Z" fill="#3C4043"/><path d="M1006.73 53.076h30.51v100.785a65.436 65.436 0 0 1 23.24-17.916 69.665 69.665 0 0 1 30.51-6.72 56.009 56.009 0 0 1 39.76 14.838 67.448 67.448 0 0 1 12.88 23.332 67.355 67.355 0 0 1 2.8 26.502v111.985h-30.52V193.897a39.48 39.48 0 0 0-9.24-27.996 35.875 35.875 0 0 0-12.26-7.136 35.789 35.789 0 0 0-14.06-1.823 42.554 42.554 0 0 0-25.75 7.838 51.226 51.226 0 0 0-17.36 20.437v121.784h-30.51V53.076Z" fill="#D2E3FC"/><path d="M1379 51h31.92v110.305h120.1V51h31.92v255.044h-31.92V187.621H1411.2v118.423h-31.92L1379 51Z" fill="#3C4043"/><path d="M1615.01 53.075h31.08V153.86a64.956 64.956 0 0 1 51.79-24.636 57.34 57.34 0 0 1 41.71 14.838 67.286 67.286 0 0 1 12.74 23.362 67.17 67.17 0 0 1 2.66 26.472v111.985h-30.79V193.896a39.48 39.48 0 0 0-9.24-27.996 35.913 35.913 0 0 0-12.13-7.081 35.801 35.801 0 0 0-13.91-1.878 42.572 42.572 0 0 0-25.48 8.119 50.648 50.648 0 0 0-17.35 20.156V306.72h-31.08V53.075Z" fill="#D2E3FC"/><rect x="1459" y="515" width="218" height="50" rx="25" fill="#D2E3FC"/><rect x="1458" y="515" width="218" height="50" rx="25" fill="#1A73E8"/><rect x="851" y="515" width="218" height="50" rx="25" fill="#D2E3FC"/><rect x="851" y="515" width="122" height="50" rx="25" fill="#1A73E8"/><rect x="244" y="515" width="218" height="50" rx="25" fill="#D2E3FC"/><rect x="244" y="515" width="50" height="50" rx="25" fill="#1A73E8"/></svg>