<svg width="1920" height="1080" fill="none" xmlns="http://www.w3.org/2000/svg"><path fill="#3C4043" d="M50 50h910v980H50z"/><path d="M265.371 263.456c.416 0 .78.169 1.092.507l3.003 3.237c-2.288 2.652-5.07 4.719-8.346 6.201-3.25 1.482-7.189 2.223-11.817 2.223-4.004 0-7.644-.689-10.92-2.067-3.276-1.404-6.071-3.354-8.385-5.85-2.314-2.522-4.108-5.538-5.382-9.048s-1.911-7.371-1.911-11.583.663-8.073 1.989-11.583 3.185-6.526 5.577-9.048c2.418-2.522 5.304-4.472 8.658-5.85 3.354-1.404 7.059-2.106 11.115-2.106 3.978 0 7.488.637 10.53 1.911 3.042 1.274 5.72 3.003 8.034 5.187l-2.496 3.471c-.156.26-.364.481-.624.663-.234.156-.559.234-.975.234-.468 0-1.04-.247-1.716-.741-.676-.52-1.56-1.092-2.652-1.716-1.092-.624-2.457-1.183-4.095-1.677-1.638-.52-3.653-.78-6.045-.78-2.886 0-5.525.507-7.917 1.521a17.258 17.258 0 0 0-6.201 4.329c-1.716 1.898-3.055 4.212-4.017 6.942-.962 2.73-1.443 5.811-1.443 9.243 0 3.484.494 6.591 1.482 9.321 1.014 2.73 2.379 5.044 4.095 6.942a17.66 17.66 0 0 0 6.123 4.29c2.366.988 4.914 1.482 7.644 1.482 1.664 0 3.159-.091 4.485-.273 1.352-.208 2.587-.52 3.705-.936a15.538 15.538 0 0 0 3.159-1.56 23.108 23.108 0 0 0 2.925-2.301c.442-.39.884-.585 1.326-.585Zm77.867-16.38c0 4.186-.663 8.034-1.989 11.544-1.326 3.484-3.198 6.487-5.616 9.009-2.418 2.522-5.33 4.485-8.736 5.889-3.38 1.378-7.124 2.067-11.232 2.067s-7.852-.689-11.232-2.067c-3.38-1.404-6.279-3.367-8.697-5.889-2.418-2.522-4.29-5.525-5.616-9.009-1.326-3.51-1.989-7.358-1.989-11.544 0-4.186.663-8.021 1.989-11.505 1.326-3.51 3.198-6.526 5.616-9.048 2.418-2.548 5.317-4.524 8.697-5.928 3.38-1.404 7.124-2.106 11.232-2.106s7.852.702 11.232 2.106c3.406 1.404 6.318 3.38 8.736 5.928 2.418 2.522 4.29 5.538 5.616 9.048 1.326 3.484 1.989 7.319 1.989 11.505Zm-7.761 0c0-3.432-.468-6.513-1.404-9.243-.936-2.73-2.262-5.031-3.978-6.903-1.716-1.898-3.796-3.354-6.24-4.368-2.444-1.014-5.174-1.521-8.19-1.521-2.99 0-5.707.507-8.151 1.521-2.444 1.014-4.537 2.47-6.279 4.368-1.716 1.872-3.042 4.173-3.978 6.903-.936 2.73-1.404 5.811-1.404 9.243 0 3.432.468 6.513 1.404 9.243.936 2.704 2.262 5.005 3.978 6.903 1.742 1.872 3.835 3.315 6.279 4.329 2.444.988 5.161 1.482 8.151 1.482 3.016 0 5.746-.494 8.19-1.482 2.444-1.014 4.524-2.457 6.24-4.329 1.716-1.898 3.042-4.199 3.978-6.903.936-2.73 1.404-5.811 1.404-9.243Zm40.582-21.801v19.539h22.971v6.162h-22.971V275h-7.566v-55.887h34.437v6.162h-26.871Zm58.534 0v19.539h22.971v6.162h-22.971V275h-7.566v-55.887h34.437v6.162h-26.871Zm85.443 43.563-.039 6.162H485.56v-55.887h34.437v6.162h-26.871v18.564h21.762v5.928h-21.762v19.071h26.91Zm59.448 0-.039 6.162h-34.437v-55.887h34.437v6.162h-26.871v18.564h21.762v5.928h-21.762v19.071h26.91Zm98.592-5.382c.416 0 .78.169 1.092.507l3.003 3.237c-2.288 2.652-5.07 4.719-8.346 6.201-3.25 1.482-7.189 2.223-11.817 2.223-4.004 0-7.644-.689-10.92-2.067-3.276-1.404-6.071-3.354-8.385-5.85-2.314-2.522-4.108-5.538-5.382-9.048s-1.911-7.371-1.911-11.583.663-8.073 1.989-11.583 3.185-6.526 5.577-9.048c2.418-2.522 5.304-4.472 8.658-5.85 3.354-1.404 7.059-2.106 11.115-2.106 3.978 0 7.488.637 10.53 1.911 3.042 1.274 5.72 3.003 8.034 5.187l-2.496 3.471c-.156.26-.364.481-.624.663-.234.156-.559.234-.975.234-.468 0-1.04-.247-1.716-.741-.676-.52-1.56-1.092-2.652-1.716-1.092-.624-2.457-1.183-4.095-1.677-1.638-.52-3.653-.78-6.045-.78-2.886 0-5.525.507-7.917 1.521a17.258 17.258 0 0 0-6.201 4.329c-1.716 1.898-3.055 4.212-4.017 6.942-.962 2.73-1.443 5.811-1.443 9.243 0 3.484.494 6.591 1.482 9.321 1.014 2.73 2.379 5.044 4.095 6.942a17.66 17.66 0 0 0 6.123 4.29c2.366.988 4.914 1.482 7.644 1.482 1.664 0 3.159-.091 4.485-.273 1.352-.208 2.587-.52 3.705-.936a15.538 15.538 0 0 0 3.159-1.56 23.108 23.108 0 0 0 2.925-2.301c.442-.39.884-.585 1.326-.585Zm77.867-16.38c0 4.186-.663 8.034-1.989 11.544-1.326 3.484-3.198 6.487-5.616 9.009-2.418 2.522-5.33 4.485-8.736 5.889-3.38 1.378-7.124 2.067-11.232 2.067s-7.852-.689-11.232-2.067c-3.38-1.404-6.279-3.367-8.697-5.889-2.418-2.522-4.29-5.525-5.616-9.009-1.326-3.51-1.989-7.358-1.989-11.544 0-4.186.663-8.021 1.989-11.505 1.326-3.51 3.198-6.526 5.616-9.048 2.418-2.548 5.317-4.524 8.697-5.928 3.38-1.404 7.124-2.106 11.232-2.106s7.852.702 11.232 2.106c3.406 1.404 6.318 3.38 8.736 5.928 2.418 2.522 4.29 5.538 5.616 9.048 1.326 3.484 1.989 7.319 1.989 11.505Zm-7.761 0c0-3.432-.468-6.513-1.404-9.243-.936-2.73-2.262-5.031-3.978-6.903-1.716-1.898-3.796-3.354-6.24-4.368-2.444-1.014-5.174-1.521-8.19-1.521-2.99 0-5.707.507-8.151 1.521-2.444 1.014-4.537 2.47-6.279 4.368-1.716 1.872-3.042 4.173-3.978 6.903-.936 2.73-1.404 5.811-1.404 9.243 0 3.432.468 6.513 1.404 9.243.936 2.704 2.262 5.005 3.978 6.903 1.742 1.872 3.835 3.315 6.279 4.329 2.444.988 5.161 1.482 8.151 1.482 3.016 0 5.746-.494 8.19-1.482 2.444-1.014 4.524-2.457 6.24-4.329 1.716-1.898 3.042-4.199 3.978-6.903.936-2.73 1.404-5.811 1.404-9.243Zm28.38 23.634c0-.676.117-1.313.351-1.911a5.386 5.386 0 0 1 1.014-1.56 5.003 5.003 0 0 1 1.56-1.053 4.74 4.74 0 0 1 1.911-.39c.676 0 1.313.13 1.911.39.598.26 1.118.611 1.56 1.053.442.442.793.962 1.053 1.56.26.598.39 1.235.39 1.911 0 .702-.13 1.352-.39 1.95a5.143 5.143 0 0 1-1.053 1.521c-.442.442-.962.78-1.56 1.014a4.74 4.74 0 0 1-1.911.39 4.74 4.74 0 0 1-1.911-.39 4.497 4.497 0 0 1-1.56-1.014 5.554 5.554 0 0 1-1.014-1.521 5.305 5.305 0 0 1-.351-1.95ZM639.205 758.88c3.68 0 6.9 1.495 9.66 4.485L675.43 792c-20.24 23.46-44.85 41.745-73.83 54.855-28.75 13.11-63.595 19.665-104.535 19.665-35.42 0-67.62-6.095-96.6-18.285-28.98-12.42-53.705-29.67-74.175-51.75-20.47-22.31-36.34-48.99-47.61-80.04-11.27-31.05-16.905-65.205-16.905-102.465 0-37.26 5.865-71.415 17.595-102.465 11.73-31.05 28.175-57.73 49.335-80.04 21.39-22.31 46.92-39.56 76.59-51.75 29.67-12.42 62.445-18.63 98.325-18.63 35.19 0 66.24 5.635 93.15 16.905 26.91 11.27 50.6 26.565 71.07 45.885l-22.08 30.705c-1.38 2.3-3.22 4.255-5.52 5.865-2.07 1.38-4.945 2.07-8.625 2.07-4.14 0-9.2-2.185-15.18-6.555-5.98-4.6-13.8-9.66-23.46-15.18s-21.735-10.465-36.225-14.835c-14.49-4.6-32.315-6.9-53.475-6.9-25.53 0-48.875 4.485-70.035 13.455-21.16 8.74-39.445 21.505-54.855 38.295-15.18 16.79-27.025 37.26-35.535 61.41-8.51 24.15-12.765 51.405-12.765 81.765 0 30.82 4.37 58.305 13.11 82.455 8.97 24.15 21.045 44.62 36.225 61.41 15.41 16.56 33.465 29.21 54.165 37.95 20.93 8.74 43.47 13.11 67.62 13.11 14.72 0 27.945-.805 39.675-2.415 11.96-1.84 22.885-4.6 32.775-8.28 10.12-3.68 19.435-8.28 27.945-13.8 8.74-5.75 17.365-12.535 25.875-20.355 3.91-3.45 7.82-5.175 11.73-5.175Z" fill="#fff"/><path d="M1236.67 262.481c.49 0 .92.195 1.29.585l3.62 3.939c-2.28 2.756-5.09 4.888-8.42 6.396-3.33 1.482-7.31 2.223-11.93 2.223-4.11 0-7.83-.702-11.16-2.106-3.3-1.43-6.12-3.406-8.46-5.928-2.34-2.548-4.15-5.577-5.42-9.087-1.25-3.51-1.87-7.371-1.87-11.583s.66-8.073 1.98-11.583c1.36-3.536 3.24-6.565 5.66-9.087 2.44-2.548 5.36-4.524 8.73-5.928 3.41-1.404 7.16-2.106 11.24-2.106 4.05 0 7.63.663 10.72 1.989 3.12 1.3 5.83 3.042 8.11 5.226l-3 4.251c-.21.286-.45.533-.74.741-.29.208-.68.312-1.17.312-.52 0-1.12-.234-1.79-.702-.65-.494-1.5-1.027-2.54-1.599-1.01-.598-2.3-1.131-3.86-1.599-1.53-.494-3.46-.741-5.77-.741-2.68 0-5.14.468-7.37 1.404a15.878 15.878 0 0 0-5.77 4.095c-1.62 1.794-2.88 3.978-3.79 6.552-.88 2.574-1.32 5.499-1.32 8.775 0 3.302.46 6.253 1.4 8.853.94 2.574 2.22 4.758 3.86 6.552a16.631 16.631 0 0 0 5.77 4.056c2.21.936 4.59 1.404 7.14 1.404 1.56 0 2.95-.078 4.17-.234 1.25-.182 2.4-.455 3.44-.819 1.04-.39 2.01-.871 2.92-1.443.94-.572 1.86-1.274 2.77-2.106.52-.468 1.04-.702 1.56-.702Zm78.85-15.561c0 4.16-.68 7.995-2.03 11.505-1.35 3.51-3.26 6.539-5.73 9.087-2.44 2.522-5.4 4.498-8.85 5.928-3.44 1.43-7.26 2.145-11.47 2.145-4.19 0-8.01-.715-11.47-2.145-3.43-1.43-6.38-3.406-8.85-5.928-2.47-2.548-4.38-5.577-5.73-9.087-1.35-3.51-2.03-7.345-2.03-11.505 0-4.16.68-7.995 2.03-11.505 1.35-3.51 3.26-6.539 5.73-9.087 2.47-2.548 5.42-4.537 8.85-5.967 3.46-1.43 7.28-2.145 11.47-2.145 4.21 0 8.03.715 11.47 2.145 3.45 1.43 6.41 3.419 8.85 5.967 2.47 2.548 4.38 5.577 5.73 9.087 1.35 3.51 2.03 7.345 2.03 11.505Zm-9.32 0c0-3.224-.44-6.123-1.33-8.697-.85-2.574-2.1-4.758-3.74-6.552-1.61-1.794-3.58-3.172-5.89-4.134-2.31-.962-4.91-1.443-7.8-1.443-2.86 0-5.45.481-7.76 1.443-2.31.962-4.29 2.34-5.93 4.134-1.64 1.794-2.9 3.978-3.78 6.552-.89 2.574-1.33 5.473-1.33 8.697 0 3.25.44 6.162 1.33 8.736.88 2.574 2.14 4.758 3.78 6.552 1.64 1.768 3.62 3.133 5.93 4.095 2.31.936 4.9 1.404 7.76 1.404 2.89 0 5.49-.468 7.8-1.404 2.31-.962 4.28-2.327 5.89-4.095 1.64-1.794 2.89-3.978 3.74-6.552.89-2.574 1.33-5.486 1.33-8.736Zm42.91-20.709v17.979h21.96v7.371h-21.96V275h-9.16v-56.16h35.02v7.371h-25.86Zm58.54 0v17.979h21.95v7.371h-21.95V275h-9.17v-56.16h35.02v7.371h-25.85Zm84.43 41.418-.04 7.371h-35.02v-56.16h35.02v7.371h-25.86v16.926h20.67v7.137h-20.67v17.355h25.9Zm59.37 0-.04 7.371h-35.02v-56.16h35.02v7.371h-25.86v16.926h20.67v7.137h-20.67v17.355h25.9Zm97.16-5.148c.5 0 .93.195 1.29.585l3.63 3.939c-2.29 2.756-5.1 4.888-8.43 6.396-3.33 1.482-7.3 2.223-11.93 2.223-4.11 0-7.83-.702-11.16-2.106-3.3-1.43-6.12-3.406-8.46-5.928-2.34-2.548-4.15-5.577-5.42-9.087-1.25-3.51-1.87-7.371-1.87-11.583s.66-8.073 1.99-11.583c1.35-3.536 3.23-6.565 5.65-9.087 2.45-2.548 5.36-4.524 8.74-5.928 3.4-1.404 7.15-2.106 11.23-2.106 4.06 0 7.63.663 10.73 1.989 3.12 1.3 5.82 3.042 8.11 5.226l-3.01 4.251a3.1 3.1 0 0 1-.74.741c-.28.208-.67.312-1.17.312-.52 0-1.11-.234-1.79-.702-.65-.494-1.5-1.027-2.54-1.599-1.01-.598-2.3-1.131-3.86-1.599-1.53-.494-3.45-.741-5.77-.741-2.68 0-5.13.468-7.37 1.404a15.878 15.878 0 0 0-5.77 4.095c-1.61 1.794-2.87 3.978-3.78 6.552-.89 2.574-1.33 5.499-1.33 8.775 0 3.302.47 6.253 1.4 8.853.94 2.574 2.23 4.758 3.86 6.552a16.67 16.67 0 0 0 5.78 4.056c2.21.936 4.59 1.404 7.13 1.404 1.56 0 2.95-.078 4.18-.234 1.24-.182 2.39-.455 3.43-.819 1.04-.39 2.01-.871 2.92-1.443.94-.572 1.86-1.274 2.77-2.106.52-.468 1.04-.702 1.56-.702Zm78.85-15.561c0 4.16-.67 7.995-2.02 11.505-1.36 3.51-3.27 6.539-5.74 9.087-2.44 2.522-5.39 4.498-8.85 5.928-3.43 1.43-7.25 2.145-11.47 2.145-4.18 0-8-.715-11.46-2.145-3.43-1.43-6.39-3.406-8.86-5.928-2.47-2.548-4.38-5.577-5.73-9.087-1.35-3.51-2.03-7.345-2.03-11.505 0-4.16.68-7.995 2.03-11.505 1.35-3.51 3.26-6.539 5.73-9.087 2.47-2.548 5.43-4.537 8.86-5.967 3.46-1.43 7.28-2.145 11.46-2.145 4.22 0 8.04.715 11.47 2.145 3.46 1.43 6.41 3.419 8.85 5.967 2.47 2.548 4.38 5.577 5.74 9.087 1.35 3.51 2.02 7.345 2.02 11.505Zm-9.32 0c0-3.224-.44-6.123-1.32-8.697-.86-2.574-2.11-4.758-3.75-6.552-1.61-1.794-3.57-3.172-5.89-4.134-2.31-.962-4.91-1.443-7.8-1.443-2.86 0-5.44.481-7.76 1.443-2.31.962-4.29 2.34-5.93 4.134-1.63 1.794-2.89 3.978-3.78 6.552-.88 2.574-1.32 5.473-1.32 8.697 0 3.25.44 6.162 1.32 8.736.89 2.574 2.15 4.758 3.78 6.552 1.64 1.768 3.62 3.133 5.93 4.095 2.32.936 4.9 1.404 7.76 1.404 2.89 0 5.49-.468 7.8-1.404 2.32-.962 4.28-2.327 5.89-4.095 1.64-1.794 2.89-3.978 3.75-6.552.88-2.574 1.32-5.486 1.32-8.736Zm29.23 23.244c0-.754.13-1.456.39-2.106.29-.676.66-1.261 1.13-1.755a5.555 5.555 0 0 1 1.72-1.17 5.417 5.417 0 0 1 2.14-.429c.76 0 1.46.143 2.11.429.67.286 1.26.676 1.75 1.17.5.494.89 1.079 1.17 1.755.29.65.43 1.352.43 2.106 0 .78-.14 1.495-.43 2.145-.28.65-.67 1.222-1.17 1.716-.49.494-1.08.871-1.75 1.131a5.17 5.17 0 0 1-2.11.429c-.75 0-1.47-.143-2.14-.429a5.037 5.037 0 0 1-1.72-1.131 6.003 6.003 0 0 1-1.13-1.716 5.725 5.725 0 0 1-.39-2.145ZM1608 750.255c4.37 0 8.16 1.725 11.38 5.175l32.09 34.845c-20.24 24.38-45.08 43.24-74.52 56.58-29.44 13.11-64.63 19.665-105.57 19.665-36.34 0-69.23-6.21-98.67-18.63-29.21-12.65-54.17-30.13-74.87-52.44-20.7-22.54-36.68-49.335-47.95-80.385-11.04-31.05-16.56-65.205-16.56-102.465 0-37.26 5.86-71.415 17.59-102.465 11.96-31.28 28.64-58.075 50.03-80.385 21.62-22.54 47.38-40.02 77.27-52.44 30.14-12.42 63.26-18.63 99.37-18.63 35.88 0 67.5 5.865 94.87 17.595 27.6 11.5 51.52 26.91 71.76 46.23l-26.56 37.605a29.56 29.56 0 0 1-6.56 6.555c-2.53 1.84-5.98 2.76-10.35 2.76-4.6 0-9.89-2.07-15.87-6.21-5.75-4.37-13.22-9.085-22.42-14.145-8.97-5.29-20.36-10.005-34.16-14.145-13.57-4.37-30.59-6.555-51.06-6.555-23.69 0-45.42 4.14-65.2 12.42-19.78 8.28-36.8 20.355-51.06 36.225-14.26 15.87-25.42 35.19-33.47 57.96-7.82 22.77-11.73 48.645-11.73 77.625 0 29.21 4.14 55.315 12.42 78.315 8.28 22.77 19.67 42.09 34.16 57.96 14.49 15.64 31.51 27.6 51.06 35.88 19.55 8.28 40.59 12.42 63.13 12.42 13.8 0 26.11-.69 36.92-2.07 11.04-1.61 21.16-4.025 30.36-7.245 9.2-3.45 17.82-7.705 25.87-12.765 8.28-5.06 16.45-11.27 24.5-18.63 4.6-4.14 9.2-6.21 13.8-6.21Z" fill="#3C4043"/></svg>