<svg width="1920" height="1080" fill="none" xmlns="http://www.w3.org/2000/svg"><path d="M356.324 337.854c1.555 0 2.933.601 4.134 1.802l11.236 12.19c-6.219 7.703-13.886 13.603-23.002 17.702-9.045 4.099-19.928 6.148-32.648 6.148-11.377 0-21.624-1.943-30.74-5.83-9.045-3.887-16.783-9.293-23.214-16.218-6.431-6.925-11.377-15.193-14.84-24.804-3.392-9.611-5.088-20.105-5.088-31.482 0-11.519 1.837-22.048 5.512-31.588 3.675-9.611 8.833-17.879 15.476-24.804 6.713-6.925 14.699-12.296 23.956-16.112 9.257-3.887 19.504-5.83 30.74-5.83 11.165 0 21.059 1.837 29.68 5.512 8.692 3.675 16.077 8.48 22.154 14.416l-9.54 13.25c-.565.848-1.307 1.59-2.226 2.226-.848.636-2.049.954-3.604.954-1.06 0-2.155-.283-3.286-.848a85.606 85.606 0 0 1-3.71-2.226 93.434 93.434 0 0 0-4.664-2.968c-1.767-1.06-3.816-2.014-6.148-2.862-2.332-.919-5.053-1.661-8.162-2.226-3.039-.636-6.572-.954-10.6-.954-6.855 0-13.144 1.237-18.868 3.71-5.653 2.403-10.529 5.936-14.628 10.6-4.099 4.593-7.279 10.247-9.54 16.96-2.261 6.643-3.392 14.239-3.392 22.79 0 8.621 1.201 16.289 3.604 23.002 2.473 6.713 5.795 12.367 9.964 16.96 4.169 4.593 9.081 8.127 14.734 10.6 5.653 2.403 11.731 3.604 18.232 3.604 3.887 0 7.385-.212 10.494-.636 3.18-.424 6.077-1.095 8.692-2.014a38.58 38.58 0 0 0 7.526-3.498c2.403-1.484 4.77-3.286 7.102-5.406a8.743 8.743 0 0 1 2.226-1.484 5.022 5.022 0 0 1 2.438-.636Zm76.615-74.306c8.056 0 15.37 1.307 21.942 3.922 6.642 2.615 12.296 6.325 16.96 11.13 4.734 4.805 8.374 10.671 10.918 17.596 2.544 6.925 3.816 14.663 3.816 23.214 0 8.621-1.272 16.395-3.816 23.32-2.544 6.925-6.184 12.826-10.918 17.702-4.664 4.876-10.318 8.621-16.96 11.236-6.572 2.615-13.886 3.922-21.942 3.922-8.127 0-15.512-1.307-22.154-3.922-6.643-2.615-12.332-6.36-17.066-11.236-4.664-4.876-8.304-10.777-10.918-17.702-2.544-6.925-3.816-14.699-3.816-23.32 0-8.551 1.272-16.289 3.816-23.214 2.614-6.925 6.254-12.791 10.918-17.596 4.734-4.805 10.423-8.515 17.066-11.13 6.642-2.615 14.027-3.922 22.154-3.922Zm0 91.902c9.045 0 15.723-3.039 20.034-9.116 4.381-6.077 6.572-14.981 6.572-26.712s-2.191-20.67-6.572-26.818c-4.311-6.148-10.989-9.222-20.034-9.222-9.187 0-16.006 3.109-20.458 9.328-4.382 6.148-6.572 15.052-6.572 26.712s2.19 20.564 6.572 26.712c4.452 6.077 11.271 9.116 20.458 9.116Zm288.391-48.336c0-3.392-.495-6.572-1.484-9.54-.919-3.039-2.332-5.689-4.24-7.95-1.908-2.261-4.346-4.028-7.314-5.3-2.897-1.343-6.289-2.014-10.176-2.014-7.561 0-13.533 2.155-17.914 6.466-4.311 4.311-7.067 10.423-8.268 18.338h49.396Zm-49.926 15.794c.424 5.583 1.413 10.423 2.968 14.522 1.555 4.028 3.604 7.385 6.148 10.07 2.544 2.615 5.547 4.593 9.01 5.936 3.533 1.272 7.42 1.908 11.66 1.908s7.879-.495 10.918-1.484c3.109-.989 5.795-2.085 8.056-3.286a133.38 133.38 0 0 0 6.042-3.286c1.767-.989 3.463-1.484 5.088-1.484 2.191 0 3.816.813 4.876 2.438l7.526 9.54c-2.897 3.392-6.148 6.254-9.752 8.586a57.977 57.977 0 0 1-11.342 5.512 62.876 62.876 0 0 1-11.978 2.862c-4.028.565-7.95.848-11.766.848-7.561 0-14.593-1.237-21.094-3.71-6.501-2.544-12.155-6.254-16.96-11.13-4.805-4.947-8.586-11.024-11.342-18.232-2.756-7.279-4.134-15.688-4.134-25.228 0-7.42 1.201-14.381 3.604-20.882 2.403-6.572 5.83-12.261 10.282-17.066 4.523-4.876 9.999-8.727 16.43-11.554 6.501-2.827 13.815-4.24 21.942-4.24 6.855 0 13.179 1.095 18.974 3.286s10.777 5.406 14.946 9.646c4.169 4.169 7.42 9.328 9.752 15.476 2.403 6.077 3.604 13.038 3.604 20.882 0 3.957-.424 6.643-1.272 8.056-.848 1.343-2.473 2.014-4.876 2.014h-67.31Zm163.172-15.794c0-3.392-.495-6.572-1.484-9.54-.919-3.039-2.332-5.689-4.24-7.95-1.908-2.261-4.346-4.028-7.314-5.3-2.897-1.343-6.289-2.014-10.176-2.014-7.561 0-13.533 2.155-17.914 6.466-4.311 4.311-7.067 10.423-8.268 18.338h49.396Zm-49.926 15.794c.424 5.583 1.413 10.423 2.968 14.522 1.555 4.028 3.604 7.385 6.148 10.07 2.544 2.615 5.547 4.593 9.01 5.936 3.533 1.272 7.42 1.908 11.66 1.908s7.879-.495 10.918-1.484c3.109-.989 5.795-2.085 8.056-3.286a133.38 133.38 0 0 0 6.042-3.286c1.767-.989 3.463-1.484 5.088-1.484 2.191 0 3.816.813 4.876 2.438l7.526 9.54c-2.897 3.392-6.148 6.254-9.752 8.586a57.977 57.977 0 0 1-11.342 5.512 62.876 62.876 0 0 1-11.978 2.862c-4.028.565-7.95.848-11.766.848-7.561 0-14.593-1.237-21.094-3.71-6.501-2.544-12.155-6.254-16.96-11.13-4.805-4.947-8.586-11.024-11.342-18.232-2.756-7.279-4.134-15.688-4.134-25.228 0-7.42 1.201-14.381 3.604-20.882 2.403-6.572 5.83-12.261 10.282-17.066 4.523-4.876 9.999-8.727 16.43-11.554 6.501-2.827 13.815-4.24 21.942-4.24 6.855 0 13.179 1.095 18.974 3.286s10.777 5.406 14.946 9.646c4.169 4.169 7.42 9.328 9.752 15.476 2.403 6.077 3.604 13.038 3.604 20.882 0 3.957-.424 6.643-1.272 8.056-.848 1.343-2.473 2.014-4.876 2.014h-67.31Zm254.05 14.946c1.55 0 2.93.601 4.13 1.802l11.24 12.19c-6.22 7.703-13.89 13.603-23 17.702-9.05 4.099-19.93 6.148-32.651 6.148-11.377 0-21.624-1.943-30.74-5.83-9.045-3.887-16.783-9.293-23.214-16.218-6.431-6.925-11.377-15.193-14.84-24.804-3.392-9.611-5.088-20.105-5.088-31.482 0-11.519 1.837-22.048 5.512-31.588 3.675-9.611 8.833-17.879 15.476-24.804 6.713-6.925 14.699-12.296 23.956-16.112 9.257-3.887 19.504-5.83 30.739-5.83 11.17 0 21.06 1.837 29.68 5.512 8.69 3.675 16.08 8.48 22.16 14.416l-9.54 13.25c-.57.848-1.31 1.59-2.23 2.226-.85.636-2.05.954-3.6.954-1.06 0-2.16-.283-3.29-.848a84.414 84.414 0 0 1-3.71-2.226 95.056 95.056 0 0 0-4.66-2.968c-1.77-1.06-3.82-2.014-6.15-2.862-2.33-.919-5.06-1.661-8.16-2.226-3.04-.636-6.58-.954-10.6-.954-6.86 0-13.149 1.237-18.873 3.71-5.653 2.403-10.529 5.936-14.628 10.6-4.099 4.593-7.279 10.247-9.54 16.96-2.261 6.643-3.392 14.239-3.392 22.79 0 8.621 1.201 16.289 3.604 23.002 2.473 6.713 5.795 12.367 9.964 16.96 4.169 4.593 9.081 8.127 14.734 10.6 5.653 2.403 11.731 3.604 18.231 3.604 3.89 0 7.39-.212 10.5-.636 3.18-.424 6.07-1.095 8.69-2.014a38.61 38.61 0 0 0 7.52-3.498c2.41-1.484 4.77-3.286 7.11-5.406a8.544 8.544 0 0 1 2.22-1.484 5.032 5.032 0 0 1 2.44-.636Zm76.61-74.306c8.06 0 15.37 1.307 21.95 3.922 6.64 2.615 12.29 6.325 16.96 11.13 4.73 4.805 8.37 10.671 10.91 17.596 2.55 6.925 3.82 14.663 3.82 23.214 0 8.621-1.27 16.395-3.82 23.32-2.54 6.925-6.18 12.826-10.91 17.702-4.67 4.876-10.32 8.621-16.96 11.236-6.58 2.615-13.89 3.922-21.95 3.922-8.12 0-15.51-1.307-22.15-3.922-6.64-2.615-12.33-6.36-17.07-11.236-4.66-4.876-8.3-10.777-10.91-17.702-2.55-6.925-3.82-14.699-3.82-23.32 0-8.551 1.27-16.289 3.82-23.214 2.61-6.925 6.25-12.791 10.91-17.596 4.74-4.805 10.43-8.515 17.07-11.13 6.64-2.615 14.03-3.922 22.15-3.922Zm0 91.902c9.05 0 15.73-3.039 20.04-9.116 4.38-6.077 6.57-14.981 6.57-26.712s-2.19-20.67-6.57-26.818c-4.31-6.148-10.99-9.222-20.04-9.222-9.18 0-16 3.109-20.45 9.328-4.39 6.148-6.58 15.052-6.58 26.712s2.19 20.564 6.58 26.712c4.45 6.077 11.27 9.116 20.45 9.116Zm69.8 4.134c0-2.191.39-4.275 1.16-6.254.85-1.979 1.98-3.675 3.4-5.088 1.41-1.413 3.11-2.544 5.08-3.392 1.98-.848 4.1-1.272 6.36-1.272 2.27 0 4.35.424 6.26 1.272 1.98.848 3.67 1.979 5.09 3.392 1.48 1.413 2.65 3.109 3.49 5.088a15.684 15.684 0 0 1 1.28 6.254c0 2.261-.43 4.381-1.28 6.36a15.412 15.412 0 0 1-3.49 4.982c-1.42 1.413-3.11 2.509-5.09 3.286-1.91.848-3.99 1.272-6.26 1.272-2.26 0-4.38-.424-6.36-1.272-1.97-.777-3.67-1.873-5.08-3.286-1.42-1.413-2.55-3.074-3.4-4.982-.77-1.979-1.16-4.099-1.16-6.36Zm-828.786 222.27c1.555 0 2.933.601 4.134 1.802l11.236 12.19c-6.219 7.703-13.886 13.603-23.002 17.702-9.045 4.099-19.928 6.148-32.648 6.148-11.377 0-21.624-1.943-30.74-5.83-9.045-3.887-16.783-9.293-23.214-16.218-6.431-6.925-11.377-15.193-14.84-24.804-3.392-9.611-5.088-20.105-5.088-31.482 0-11.519 1.837-22.048 5.512-31.588 3.675-9.611 8.833-17.879 15.476-24.804 6.713-6.925 14.699-12.296 23.956-16.112 9.257-3.887 19.504-5.83 30.74-5.83 11.165 0 21.059 1.837 29.68 5.512 8.692 3.675 16.077 8.48 22.154 14.416l-9.54 13.25c-.565.848-1.307 1.59-2.226 2.226-.848.636-2.049.954-3.604.954-1.06 0-2.155-.283-3.286-.848a85.606 85.606 0 0 1-3.71-2.226 93.434 93.434 0 0 0-4.664-2.968c-1.767-1.06-3.816-2.014-6.148-2.862-2.332-.919-5.053-1.661-8.162-2.226-3.039-.636-6.572-.954-10.6-.954-6.855 0-13.144 1.237-18.868 3.71-5.653 2.403-10.529 5.936-14.628 10.6-4.099 4.593-7.279 10.247-9.54 16.96-2.261 6.643-3.392 14.239-3.392 22.79 0 8.621 1.201 16.289 3.604 23.002 2.473 6.713 5.795 12.367 9.964 16.96 4.169 4.593 9.081 8.127 14.734 10.6 5.653 2.403 11.731 3.604 18.232 3.604 3.887 0 7.385-.212 10.494-.636 3.18-.424 6.077-1.095 8.692-2.014a38.58 38.58 0 0 0 7.526-3.498c2.403-1.484 4.77-3.286 7.102-5.406a8.743 8.743 0 0 1 2.226-1.484 5.022 5.022 0 0 1 2.438-.636Zm93.732-74.306c8.056 0 15.37 1.307 21.942 3.922 6.643 2.615 12.296 6.325 16.96 11.13 4.735 4.805 8.374 10.671 10.918 17.596 2.544 6.925 3.816 14.663 3.816 23.214 0 8.621-1.272 16.395-3.816 23.32-2.544 6.925-6.183 12.826-10.918 17.702-4.664 4.876-10.317 8.621-16.96 11.236-6.572 2.615-13.886 3.922-21.942 3.922-8.127 0-15.511-1.307-22.154-3.922-6.643-2.615-12.331-6.36-17.066-11.236-4.664-4.876-8.303-10.777-10.918-17.702-2.544-6.925-3.816-14.699-3.816-23.32 0-8.551 1.272-16.289 3.816-23.214 2.615-6.925 6.254-12.791 10.918-17.596 4.735-4.805 10.423-8.515 17.066-11.13 6.643-2.615 14.027-3.922 22.154-3.922Zm0 91.902c9.045 0 15.723-3.039 20.034-9.116 4.381-6.077 6.572-14.981 6.572-26.712s-2.191-20.67-6.572-26.818c-4.311-6.148-10.989-9.222-20.034-9.222-9.187 0-16.006 3.109-20.458 9.328-4.381 6.148-6.572 15.052-6.572 26.712s2.191 20.564 6.572 26.712c4.452 6.077 11.271 9.116 20.458 9.116Zm313.831-48.336c0-3.392-.494-6.572-1.484-9.54-.918-3.039-2.332-5.689-4.24-7.95-1.908-2.261-4.346-4.028-7.314-5.3-2.897-1.343-6.289-2.014-10.176-2.014-7.561 0-13.532 2.155-17.914 6.466-4.31 4.311-7.066 10.423-8.268 18.338h49.396Zm-49.926 15.794c.424 5.583 1.414 10.423 2.968 14.522 1.555 4.028 3.604 7.385 6.148 10.07 2.544 2.615 5.548 4.593 9.01 5.936 3.534 1.272 7.42 1.908 11.66 1.908s7.88-.495 10.918-1.484c3.11-.989 5.795-2.085 8.056-3.286a133.38 133.38 0 0 0 6.042-3.286c1.767-.989 3.463-1.484 5.088-1.484 2.191 0 3.816.813 4.876 2.438l7.526 9.54c-2.897 3.392-6.148 6.254-9.752 8.586a57.95 57.95 0 0 1-11.342 5.512 62.858 62.858 0 0 1-11.978 2.862c-4.028.565-7.95.848-11.766.848-7.561 0-14.592-1.237-21.094-3.71-6.501-2.544-12.154-6.254-16.96-11.13-4.805-4.947-8.586-11.024-11.342-18.232-2.756-7.279-4.134-15.688-4.134-25.228 0-7.42 1.202-14.381 3.604-20.882 2.403-6.572 5.83-12.261 10.282-17.066 4.523-4.876 10-8.727 16.43-11.554 6.502-2.827 13.816-4.24 21.942-4.24 6.855 0 13.18 1.095 18.974 3.286 5.795 2.191 10.777 5.406 14.946 9.646 4.17 4.169 7.42 9.328 9.752 15.476 2.403 6.077 3.604 13.038 3.604 20.882 0 3.957-.424 6.643-1.272 8.056-.848 1.343-2.473 2.014-4.876 2.014h-67.31Zm178.012-15.794c0-3.392-.494-6.572-1.484-9.54-.918-3.039-2.332-5.689-4.24-7.95-1.908-2.261-4.346-4.028-7.314-5.3-2.897-1.343-6.289-2.014-10.176-2.014-7.561 0-13.532 2.155-17.914 6.466-4.31 4.311-7.066 10.423-8.268 18.338h49.396Zm-49.926 15.794c.424 5.583 1.414 10.423 2.968 14.522 1.555 4.028 3.604 7.385 6.148 10.07 2.544 2.615 5.548 4.593 9.01 5.936 3.534 1.272 7.42 1.908 11.66 1.908s7.88-.495 10.918-1.484c3.11-.989 5.795-2.085 8.056-3.286a133.38 133.38 0 0 0 6.042-3.286c1.767-.989 3.463-1.484 5.088-1.484 2.191 0 3.816.813 4.876 2.438l7.526 9.54c-2.897 3.392-6.148 6.254-9.752 8.586a57.95 57.95 0 0 1-11.342 5.512 62.858 62.858 0 0 1-11.978 2.862c-4.028.565-7.95.848-11.766.848-7.561 0-14.592-1.237-21.094-3.71-6.501-2.544-12.154-6.254-16.96-11.13-4.805-4.947-8.586-11.024-11.342-18.232-2.756-7.279-4.134-15.688-4.134-25.228 0-7.42 1.202-14.381 3.604-20.882 2.403-6.572 5.83-12.261 10.282-17.066 4.523-4.876 10-8.727 16.43-11.554 6.502-2.827 13.816-4.24 21.942-4.24 6.855 0 13.18 1.095 18.974 3.286 5.795 2.191 10.777 5.406 14.946 9.646 4.17 4.169 7.42 9.328 9.752 15.476 2.403 6.077 3.604 13.038 3.604 20.882 0 3.957-.424 6.643-1.272 8.056-.848 1.343-2.473 2.014-4.876 2.014h-67.31Zm283.733 14.946c1.55 0 2.93.601 4.13 1.802l11.24 12.19c-6.22 7.703-13.89 13.603-23.01 17.702-9.04 4.099-19.92 6.148-32.64 6.148-11.38 0-21.63-1.943-30.74-5.83-9.05-3.887-16.79-9.293-23.22-16.218-6.43-6.925-11.38-15.193-14.84-24.804-3.39-9.611-5.09-20.105-5.09-31.482 0-11.519 1.84-22.048 5.52-31.588 3.67-9.611 8.83-17.879 15.47-24.804 6.72-6.925 14.7-12.296 23.96-16.112 9.26-3.887 19.5-5.83 30.74-5.83 11.16 0 21.06 1.837 29.68 5.512 8.69 3.675 16.08 8.48 22.15 14.416l-9.54 13.25c-.56.848-1.3 1.59-2.22 2.226-.85.636-2.05.954-3.61.954-1.06 0-2.15-.283-3.28-.848a84.414 84.414 0 0 1-3.71-2.226 95.722 95.722 0 0 0-4.67-2.968c-1.76-1.06-3.81-2.014-6.15-2.862-2.33-.919-5.05-1.661-8.16-2.226-3.04-.636-6.57-.954-10.6-.954-6.85 0-13.14 1.237-18.87 3.71-5.65 2.403-10.53 5.936-14.62 10.6-4.1 4.593-7.28 10.247-9.54 16.96-2.26 6.643-3.4 14.239-3.4 22.79 0 8.621 1.21 16.289 3.61 23.002 2.47 6.713 5.79 12.367 9.96 16.96 4.17 4.593 9.08 8.127 14.74 10.6 5.65 2.403 11.73 3.604 18.23 3.604 3.88 0 7.38-.212 10.49-.636 3.18-.424 6.08-1.095 8.69-2.014 2.69-.919 5.2-2.085 7.53-3.498 2.4-1.484 4.77-3.286 7.1-5.406.71-.636 1.45-1.131 2.23-1.484a5.032 5.032 0 0 1 2.44-.636Zm91.45-74.306c8.06 0 15.37 1.307 21.94 3.922 6.65 2.615 12.3 6.325 16.96 11.13 4.74 4.805 8.38 10.671 10.92 17.596 2.55 6.925 3.82 14.663 3.82 23.214 0 8.621-1.27 16.395-3.82 23.32-2.54 6.925-6.18 12.826-10.92 17.702-4.66 4.876-10.31 8.621-16.96 11.236-6.57 2.615-13.88 3.922-21.94 3.922-8.13 0-15.51-1.307-22.15-3.922-6.65-2.615-12.33-6.36-17.07-11.236-4.66-4.876-8.3-10.777-10.92-17.702-2.54-6.925-3.81-14.699-3.81-23.32 0-8.551 1.27-16.289 3.81-23.214 2.62-6.925 6.26-12.791 10.92-17.596 4.74-4.805 10.42-8.515 17.07-11.13 6.64-2.615 14.02-3.922 22.15-3.922Zm0 91.902c9.05 0 15.72-3.039 20.04-9.116 4.38-6.077 6.57-14.981 6.57-26.712s-2.19-20.67-6.57-26.818c-4.32-6.148-10.99-9.222-20.04-9.222-9.19 0-16 3.109-20.46 9.328-4.38 6.148-6.57 15.052-6.57 26.712s2.19 20.564 6.57 26.712c4.46 6.077 11.27 9.116 20.46 9.116Zm84.64 4.134c0-2.191.38-4.275 1.16-6.254.85-1.979 1.98-3.675 3.39-5.088 1.42-1.413 3.11-2.544 5.09-3.392 1.98-.848 4.1-1.272 6.36-1.272 2.26 0 4.35.424 6.26 1.272 1.97.848 3.67 1.979 5.08 3.392 1.49 1.413 2.65 3.109 3.5 5.088a15.675 15.675 0 0 1 1.27 6.254c0 2.261-.42 4.381-1.27 6.36a15.44 15.44 0 0 1-3.5 4.982c-1.41 1.413-3.11 2.509-5.08 3.286-1.91.848-4 1.272-6.26 1.272s-4.38-.424-6.36-1.272c-1.98-.777-3.67-1.873-5.09-3.286-1.41-1.413-2.54-3.074-3.39-4.982-.78-1.979-1.16-4.099-1.16-6.36Zm-945.546 222.27c1.555 0 2.933.601 4.134 1.802l11.236 12.19c-6.219 7.703-13.886 13.603-23.002 17.702-9.045 4.099-19.928 6.148-32.648 6.148-11.377 0-21.624-1.943-30.74-5.83-9.045-3.887-16.783-9.293-23.214-16.218-6.431-6.925-11.377-15.193-14.84-24.804-3.392-9.611-5.088-20.105-5.088-31.482 0-11.519 1.837-22.048 5.512-31.588 3.675-9.611 8.833-17.879 15.476-24.804 6.713-6.925 14.699-12.296 23.956-16.112 9.257-3.887 19.504-5.83 30.74-5.83 11.165 0 21.059 1.837 29.68 5.512 8.692 3.675 16.077 8.48 22.154 14.416l-9.54 13.25c-.565.848-1.307 1.59-2.226 2.226-.848.636-2.049.954-3.604.954-1.06 0-2.155-.283-3.286-.848a85.606 85.606 0 0 1-3.71-2.226 93.434 93.434 0 0 0-4.664-2.968c-1.767-1.06-3.816-2.014-6.148-2.862-2.332-.919-5.053-1.661-8.162-2.226-3.039-.636-6.572-.954-10.6-.954-6.855 0-13.144 1.237-18.868 3.71-5.653 2.403-10.529 5.936-14.628 10.6-4.099 4.593-7.279 10.247-9.54 16.96-2.261 6.643-3.392 14.239-3.392 22.79 0 8.621 1.201 16.289 3.604 23.002 2.473 6.713 5.795 12.367 9.964 16.96 4.169 4.593 9.081 8.127 14.734 10.6 5.653 2.403 11.731 3.604 18.232 3.604 3.887 0 7.385-.212 10.494-.636 3.18-.424 6.077-1.095 8.692-2.014a38.58 38.58 0 0 0 7.526-3.498c2.403-1.484 4.77-3.286 7.102-5.406a8.743 8.743 0 0 1 2.226-1.484 5.022 5.022 0 0 1 2.438-.636Zm91.455-74.306c8.056 0 15.37 1.307 21.942 3.922 6.642 2.615 12.296 6.325 16.96 11.13 4.734 4.805 8.374 10.671 10.918 17.596 2.544 6.925 3.816 14.663 3.816 23.214 0 8.621-1.272 16.395-3.816 23.32-2.544 6.925-6.184 12.826-10.918 17.702-4.664 4.876-10.318 8.621-16.96 11.236-6.572 2.615-13.886 3.922-21.942 3.922-8.127 0-15.512-1.307-22.154-3.922-6.643-2.615-12.332-6.36-17.066-11.236-4.664-4.876-8.304-10.777-10.918-17.702-2.544-6.925-3.816-14.699-3.816-23.32 0-8.551 1.272-16.289 3.816-23.214 2.614-6.925 6.254-12.791 10.918-17.596 4.734-4.805 10.423-8.515 17.066-11.13 6.642-2.615 14.027-3.922 22.154-3.922Zm0 91.902c9.045 0 15.723-3.039 20.034-9.116 4.381-6.077 6.572-14.981 6.572-26.712s-2.191-20.67-6.572-26.818c-4.311-6.148-10.989-9.222-20.034-9.222-9.187 0-16.006 3.109-20.458 9.328-4.382 6.148-6.572 15.052-6.572 26.712s2.19 20.564 6.572 26.712c4.452 6.077 11.271 9.116 20.458 9.116Zm340.157-48.336c0-3.392-.495-6.572-1.484-9.54-.919-3.039-2.332-5.689-4.24-7.95-1.908-2.261-4.346-4.028-7.314-5.3-2.897-1.343-6.289-2.014-10.176-2.014-7.561 0-13.533 2.155-17.914 6.466-4.311 4.311-7.067 10.423-8.268 18.338h49.396Zm-49.926 15.794c.424 5.583 1.413 10.423 2.968 14.522 1.555 4.028 3.604 7.385 6.148 10.07 2.544 2.615 5.547 4.593 9.01 5.936 3.533 1.272 7.42 1.908 11.66 1.908s7.879-.495 10.918-1.484c3.109-.989 5.795-2.085 8.056-3.286a133.38 133.38 0 0 0 6.042-3.286c1.767-.989 3.463-1.484 5.088-1.484 2.191 0 3.816.813 4.876 2.438l7.526 9.54c-2.897 3.392-6.148 6.254-9.752 8.586a57.977 57.977 0 0 1-11.342 5.512 62.876 62.876 0 0 1-11.978 2.862c-4.028.565-7.95.848-11.766.848-7.561 0-14.593-1.237-21.094-3.71-6.501-2.544-12.155-6.254-16.96-11.13-4.805-4.947-8.586-11.024-11.342-18.232-2.756-7.279-4.134-15.688-4.134-25.228 0-7.42 1.201-14.381 3.604-20.882 2.403-6.572 5.83-12.261 10.282-17.066 4.523-4.876 9.999-8.727 16.43-11.554 6.501-2.827 13.815-4.24 21.942-4.24 6.855 0 13.179 1.095 18.974 3.286s10.777 5.406 14.946 9.646c4.169 4.169 7.42 9.328 9.752 15.476 2.403 6.077 3.604 13.038 3.604 20.882 0 3.957-.424 6.643-1.272 8.056-.848 1.343-2.473 2.014-4.876 2.014h-67.31Zm178.012-15.794c0-3.392-.494-6.572-1.484-9.54-.918-3.039-2.332-5.689-4.24-7.95-1.908-2.261-4.346-4.028-7.314-5.3-2.897-1.343-6.289-2.014-10.176-2.014-7.561 0-13.532 2.155-17.914 6.466-4.31 4.311-7.066 10.423-8.268 18.338h49.396Zm-49.926 15.794c.424 5.583 1.414 10.423 2.968 14.522 1.555 4.028 3.604 7.385 6.148 10.07 2.544 2.615 5.548 4.593 9.01 5.936 3.534 1.272 7.42 1.908 11.66 1.908s7.88-.495 10.918-1.484c3.11-.989 5.795-2.085 8.056-3.286a133.38 133.38 0 0 0 6.042-3.286c1.767-.989 3.463-1.484 5.088-1.484 2.191 0 3.816.813 4.876 2.438l7.526 9.54c-2.897 3.392-6.148 6.254-9.752 8.586a57.95 57.95 0 0 1-11.342 5.512 62.858 62.858 0 0 1-11.978 2.862c-4.028.565-7.95.848-11.766.848-7.561 0-14.592-1.237-21.094-3.71-6.501-2.544-12.154-6.254-16.96-11.13-4.805-4.947-8.586-11.024-11.342-18.232-2.756-7.279-4.134-15.688-4.134-25.228 0-7.42 1.202-14.381 3.604-20.882 2.403-6.572 5.83-12.261 10.282-17.066 4.523-4.876 10-8.727 16.43-11.554 6.502-2.827 13.816-4.24 21.942-4.24 6.855 0 13.18 1.095 18.974 3.286 5.795 2.191 10.777 5.406 14.946 9.646 4.17 4.169 7.42 9.328 9.752 15.476 2.403 6.077 3.604 13.038 3.604 20.882 0 3.957-.424 6.643-1.272 8.056-.848 1.343-2.473 2.014-4.876 2.014h-67.31Zm283.734 14.946c1.55 0 2.93.601 4.13 1.802l11.24 12.19c-6.22 7.703-13.89 13.603-23.01 17.702-9.04 4.099-19.92 6.148-32.64 6.148-11.38 0-21.63-1.943-30.74-5.83-9.05-3.887-16.79-9.293-23.22-16.218-6.43-6.925-11.38-15.193-14.84-24.804-3.39-9.611-5.09-20.105-5.09-31.482 0-11.519 1.84-22.048 5.52-31.588 3.67-9.611 8.83-17.879 15.47-24.804 6.71-6.925 14.7-12.296 23.96-16.112 9.25-3.887 19.5-5.83 30.74-5.83 11.16 0 21.06 1.837 29.68 5.512 8.69 3.675 16.07 8.48 22.15 14.416l-9.54 13.25c-.56.848-1.31 1.59-2.22 2.226-.85.636-2.05.954-3.61.954-1.06 0-2.15-.283-3.28-.848a78.922 78.922 0 0 1-3.71-2.226 95.722 95.722 0 0 0-4.67-2.968c-1.77-1.06-3.81-2.014-6.15-2.862-2.33-.919-5.05-1.661-8.16-2.226-3.04-.636-6.57-.954-10.6-.954-6.85 0-13.14 1.237-18.87 3.71-5.65 2.403-10.53 5.936-14.62 10.6-4.1 4.593-7.28 10.247-9.54 16.96-2.27 6.643-3.4 14.239-3.4 22.79 0 8.621 1.2 16.289 3.61 23.002 2.47 6.713 5.79 12.367 9.96 16.96 4.17 4.593 9.08 8.127 14.74 10.6 5.65 2.403 11.73 3.604 18.23 3.604 3.88 0 7.38-.212 10.49-.636 3.18-.424 6.08-1.095 8.69-2.014 2.69-.919 5.2-2.085 7.53-3.498 2.4-1.484 4.77-3.286 7.1-5.406.71-.636 1.45-1.131 2.23-1.484a5.004 5.004 0 0 1 2.44-.636Zm91.45-74.306c8.06 0 15.37 1.307 21.94 3.922 6.64 2.615 12.3 6.325 16.96 11.13 4.74 4.805 8.38 10.671 10.92 17.596 2.54 6.925 3.82 14.663 3.82 23.214 0 8.621-1.28 16.395-3.82 23.32-2.54 6.925-6.18 12.826-10.92 17.702-4.66 4.876-10.32 8.621-16.96 11.236-6.57 2.615-13.88 3.922-21.94 3.922-8.13 0-15.51-1.307-22.15-3.922-6.65-2.615-12.34-6.36-17.07-11.236-4.66-4.876-8.3-10.777-10.92-17.702-2.54-6.925-3.81-14.699-3.81-23.32 0-8.551 1.27-16.289 3.81-23.214 2.62-6.925 6.26-12.791 10.92-17.596 4.73-4.805 10.42-8.515 17.07-11.13 6.64-2.615 14.02-3.922 22.15-3.922Zm0 91.902c9.05 0 15.72-3.039 20.03-9.116 4.39-6.077 6.58-14.981 6.58-26.712s-2.19-20.67-6.58-26.818c-4.31-6.148-10.98-9.222-20.03-9.222-9.19 0-16.01 3.109-20.46 9.328-4.38 6.148-6.57 15.052-6.57 26.712s2.19 20.564 6.57 26.712c4.45 6.077 11.27 9.116 20.46 9.116Zm84.63 4.134c0-2.191.39-4.275 1.17-6.254.85-1.979 1.98-3.675 3.39-5.088 1.42-1.413 3.11-2.544 5.09-3.392 1.98-.848 4.1-1.272 6.36-1.272 2.26 0 4.35.424 6.25 1.272 1.98.848 3.68 1.979 5.09 3.392 1.49 1.413 2.65 3.109 3.5 5.088a15.675 15.675 0 0 1 1.27 6.254c0 2.261-.42 4.381-1.27 6.36a15.44 15.44 0 0 1-3.5 4.982c-1.41 1.413-3.11 2.509-5.09 3.286-1.9.848-3.99 1.272-6.25 1.272s-4.38-.424-6.36-1.272c-1.98-.777-3.67-1.873-5.09-3.286-1.41-1.413-2.54-3.074-3.39-4.982-.78-1.979-1.17-4.099-1.17-6.36Z" fill="#3C4043"/><path d="M514.181 374v-89.04l-9.434-1.484c-2.049-.424-3.71-1.131-4.982-2.12-1.201-1.06-1.802-2.544-1.802-4.452v-10.706h16.218v-6.148c0-6.219.919-11.801 2.756-16.748 1.908-4.947 4.594-9.151 8.056-12.614 3.534-3.463 7.809-6.113 12.826-7.95 5.018-1.837 10.671-2.756 16.96-2.756 5.018 0 9.682.671 13.992 2.014l-.53 13.038c-.07.989-.353 1.802-.848 2.438-.494.636-1.166 1.131-2.014 1.484-.777.283-1.696.495-2.756.636a50.88 50.88 0 0 1-3.392.106c-3.109 0-5.9.353-8.374 1.06-2.402.636-4.452 1.802-6.148 3.498-1.696 1.625-3.003 3.816-3.922 6.572-.848 2.685-1.272 6.042-1.272 10.07v5.3h43.354v-9.646c0-6.219.919-11.801 2.756-16.748 1.908-4.947 4.594-9.151 8.056-12.614 3.534-3.463 7.809-6.113 12.826-7.95 5.018-1.837 10.671-2.756 16.96-2.756 2.474 0 4.841.177 7.102.53 2.332.283 4.629.742 6.89 1.378l-.636 13.144c-.141 2.049-1.095 3.357-2.862 3.922-1.696.495-3.71.742-6.042.742-3.109 0-5.9.353-8.374 1.06-2.402.636-4.452 1.802-6.148 3.498-1.696 1.625-3.003 3.816-3.922 6.572-.848 2.685-1.272 6.042-1.272 10.07v8.798h28.196v18.656h-27.348V374h-26.182v-89.146h-42.506V374h-26.182Zm29.68 488v-89.04l-9.434-1.484c-2.049-.424-3.71-1.131-4.982-2.12-1.201-1.06-1.802-2.544-1.802-4.452v-10.706h16.218v-8.056c0-6.219.919-11.801 2.756-16.748 1.908-4.947 4.594-9.151 8.056-12.614 3.534-3.463 7.809-6.113 12.826-7.95 5.018-1.837 10.671-2.756 16.96-2.756 5.018 0 9.682.671 13.992 2.014l-.53 13.144c-.07.989-.353 1.802-.848 2.438-.494.565-1.166 1.025-2.014 1.378-.777.283-1.696.495-2.756.636a50.88 50.88 0 0 1-3.392.106c-3.109 0-5.9.353-8.374 1.06-2.402.636-4.452 1.802-6.148 3.498-1.696 1.625-3.003 3.816-3.922 6.572-.848 2.685-1.272 6.042-1.272 10.07v7.208h28.302v18.656h-27.454V862h-26.182Zm90.821 0v-89.04l-9.434-1.484c-2.05-.424-3.71-1.131-4.982-2.12-1.202-1.06-1.802-2.544-1.802-4.452v-10.706h16.218v-8.056c0-6.219.918-11.801 2.756-16.748 1.908-4.947 4.593-9.151 8.056-12.614 3.533-3.463 7.808-6.113 12.826-7.95 5.017-1.837 10.67-2.756 16.96-2.756 5.017 0 9.681.671 13.992 2.014l-.53 13.144c-.071.989-.354 1.802-.848 2.438-.495.565-1.166 1.025-2.014 1.378-.778.283-1.696.495-2.756.636-1.06.071-2.191.106-3.392.106-3.11 0-5.901.353-8.374 1.06-2.403.636-4.452 1.802-6.148 3.498-1.696 1.625-3.004 3.816-3.922 6.572-.848 2.685-1.272 6.042-1.272 10.07v7.208h28.302v18.656h-27.454V862h-26.182Z" fill="#1A73E8"/><path d="M541.899 618v-89.04l-9.434-1.484c-2.05-.424-3.71-1.131-4.982-2.12-1.202-1.06-1.802-2.544-1.802-4.452v-10.706h16.218v-6.148c0-6.219.918-11.801 2.756-16.748 1.908-4.947 4.593-9.151 8.056-12.614 3.533-3.463 7.808-6.113 12.826-7.95 5.017-1.837 10.67-2.756 16.96-2.756 5.017 0 9.681.671 13.992 2.014l-.53 13.038c-.071.989-.354 1.802-.848 2.438-.495.636-1.166 1.131-2.014 1.484-.778.283-1.696.495-2.756.636-1.06.071-2.191.106-3.392.106-3.11 0-5.901.353-8.374 1.06-2.403.636-4.452 1.802-6.148 3.498-1.696 1.625-3.004 3.816-3.922 6.572-.848 2.685-1.272 6.042-1.272 10.07v5.3h43.354v-9.646c0-6.219.918-11.801 2.756-16.748 1.908-4.947 4.593-9.151 8.056-12.614 3.533-3.463 7.808-6.113 12.826-7.95 5.017-1.837 10.67-2.756 16.96-2.756 2.473 0 4.84.177 7.102.53 2.332.283 4.628.742 6.89 1.378l-.636 13.144c-.142 2.049-1.096 3.357-2.862 3.922-1.696.495-3.71.742-6.042.742-3.11 0-5.901.353-8.374 1.06-2.403.636-4.452 1.802-6.148 3.498-1.696 1.625-3.004 3.816-3.922 6.572-.848 2.685-1.272 6.042-1.272 10.07v8.798h28.196v18.656h-27.348V618h-26.182v-89.146h-42.506V618h-26.182Z" fill="#FF6D7F"/></svg>