<svg width="1920" height="1080" fill="none" xmlns="http://www.w3.org/2000/svg"><g clip-path="url(#a)"><path d="M57.11 402.793c0-13.389 2.34-25.742 7.02-37.058 4.74-11.375 11.345-21.269 19.817-29.681 8.472-8.413 18.425-14.93 29.86-19.551 11.493-4.68 23.994-7.021 37.502-7.021 13.507 0 25.978 2.341 37.413 7.021 11.493 4.621 21.476 11.138 29.948 19.551 8.472 8.412 15.048 18.306 19.728 29.681 4.74 11.316 7.11 23.669 7.11 37.058l-10.753-3.288c-.356-11.553-2.696-22.217-7.021-31.992-4.324-9.776-10.249-18.277-17.773-25.505-7.465-7.228-16.204-12.827-26.216-16.796-9.953-3.969-20.765-5.954-32.436-5.954-11.672 0-22.513 1.985-32.526 5.954-9.953 3.969-18.662 9.568-26.127 16.796s-13.36 15.729-17.684 25.505c-4.325 9.775-6.695 20.439-7.11 31.992l-10.753 3.288Zm3.02 33.503c3.733 0 6.636-1.422 8.71-4.266 2.133-2.843 3.999-7.939 5.599-15.285.829-3.673 1.51-6.458 2.043-8.353.534-1.896 1.097-3.585 1.689-5.066-8.531 1.126-15.433 3.703-20.706 7.732-5.214 3.969-7.82 8.679-7.82 14.13 0 3.436.918 6.161 2.754 8.175 1.896 1.955 4.473 2.933 7.732 2.933Zm-.266 9.42c-5.983 0-10.753-1.807-14.307-5.421-3.555-3.614-5.332-8.472-5.332-14.574 0-9.894 4.413-17.626 13.24-23.195 8.828-5.628 21.447-8.679 37.858-9.153-1.718 4.147-3.17 7.998-4.354 11.553-1.126 3.495-2.34 7.939-3.644 13.33-2.37 9.834-5.362 16.885-8.975 21.15-3.614 4.207-8.443 6.31-14.486 6.31Zm91.445 50.388c-13.39 0-25.802-2.311-37.236-6.932-11.375-4.562-21.328-11.02-29.86-19.373-8.471-8.294-15.047-17.981-19.728-29.06l8.887-5.243c5.57 11.079 12.264 20.41 20.084 27.993 7.88 7.524 16.677 13.212 26.394 17.063 9.775 3.851 20.261 5.776 31.459 5.776 11.256 0 21.742-1.925 31.459-5.776 9.716-3.851 18.484-9.539 26.304-17.063 7.821-7.583 14.515-16.914 20.084-27.993l8.887 5.243c-4.68 11.079-11.257 20.766-19.729 29.06-8.472 8.353-18.395 14.811-29.77 19.373-11.375 4.621-23.787 6.932-37.235 6.932ZM100.388 392.04l-6.754-5.865c5.746-8.591 12.797-12.886 21.15-12.886 8.294 0 15.345 4.295 21.151 12.886l-6.754 5.865c-3.851-5.984-8.65-8.976-14.397-8.976-5.687 0-10.486 2.992-14.396 8.976Zm-9.953-17.507-7.732-4.088c5.391-10.368 15.019-17.625 28.882-21.772l3.021 8.353c-5.806 1.718-10.693 3.999-14.663 6.843-3.91 2.844-7.08 6.399-9.508 10.664Zm83.002 17.507-6.754-5.865c5.806-8.591 12.856-12.886 21.15-12.886 8.354 0 15.404 4.295 21.15 12.886l-6.754 5.865c-3.91-5.984-8.708-8.976-14.396-8.976-5.747 0-10.546 2.992-14.396 8.976Zm69.316 53.676c-6.043 0-10.871-2.103-14.485-6.31-3.614-4.265-6.606-11.316-8.976-21.15-1.303-5.391-2.548-9.835-3.732-13.33-1.126-3.555-2.548-7.406-4.266-11.553 16.411.474 29.03 3.525 37.857 9.153 8.828 5.569 13.242 13.301 13.242 23.195 0 6.102-1.778 10.96-5.332 14.574-3.555 3.614-8.324 5.421-14.308 5.421Zm-.267-9.42c3.259 0 5.806-.978 7.643-2.933 1.896-2.014 2.844-4.739 2.844-8.175 0-5.451-2.637-10.161-7.91-14.13-5.213-4.029-12.085-6.606-20.617-7.732.593 1.481 1.156 3.17 1.689 5.066.592 1.895 1.274 4.68 2.044 8.353 1.599 7.346 3.436 12.442 5.509 15.285 2.133 2.844 5.066 4.266 8.798 4.266Zm-30.303-61.763a32.211 32.211 0 0 0-9.509-10.664c-3.97-2.844-8.857-5.125-14.663-6.843l3.021-8.353c13.864 4.147 23.491 11.404 28.882 21.772l-7.731 4.088Zm-60.874 85.846c8.886 0 17.181-1.6 24.882-4.799-8.472-4.917-16.766-7.376-24.882-7.376-8.117 0-16.411 2.459-24.883 7.376 7.702 3.199 15.996 4.799 24.883 4.799Zm0 6.221c-7.702 0-15.256-1.245-22.662-3.733-7.346-2.488-13.981-5.806-19.906-9.953-5.924-4.206-10.664-8.827-14.219-13.863-3.495-5.036-5.243-10.101-5.243-15.197 0-3.139.711-5.332 2.133-6.576 1.422-1.303 3.318-1.955 5.688-1.955 1.48 0 3.347.178 5.598.533 2.311.356 4.947.83 7.909 1.422 5.273 1.007 11.405 1.985 18.396 2.933 6.991.889 14.426 1.333 22.306 1.333 7.938 0 15.403-.444 22.394-1.333 6.991-.948 13.093-1.926 18.307-2.933a199.612 199.612 0 0 1 7.82-1.422c2.311-.355 4.206-.533 5.688-.533 2.369 0 4.265.652 5.687 1.955 1.422 1.244 2.133 3.437 2.133 6.576 0 5.096-1.777 10.161-5.332 15.197-3.496 5.036-8.206 9.657-14.13 13.863-5.925 4.147-12.59 7.465-19.995 9.953-7.346 2.488-14.871 3.733-22.572 3.733Zm0-29.949c5.569 0 11.523-.207 17.862-.622a259.224 259.224 0 0 0 19.017-2.133c6.34-1.007 12.264-2.251 17.774-3.732v-6.31c0-.888-.356-1.451-1.066-1.688a3.567 3.567 0 0 0-2.222-.178c-5.036 1.185-10.605 2.222-16.707 3.111a314.066 314.066 0 0 1-18.129 1.955c-5.984.474-11.494.711-16.529.711-4.977 0-10.487-.237-16.53-.711a314.066 314.066 0 0 1-18.129-1.955c-6.043-.889-11.612-1.926-16.707-3.111a3.566 3.566 0 0 0-2.221.178c-.711.237-1.067.8-1.067 1.688v6.31c5.51 1.481 11.435 2.725 17.774 3.732a259.224 259.224 0 0 0 19.017 2.133c6.399.415 12.353.622 17.863.622Zm231.054 59.453c23.343-17.833 42.479-34.362 57.408-49.588 14.93-15.226 25.979-29.741 33.148-43.545 7.169-13.804 10.753-27.46 10.753-40.968 0-7.524-1.304-14.485-3.91-20.884-2.548-6.398-6.162-11.967-10.842-16.707-4.621-4.739-10.101-8.413-16.441-11.019-6.339-2.607-13.241-3.911-20.706-3.911-7.109 0-13.892 1.304-20.35 3.911-6.458 2.547-12.205 6.131-17.24 10.753a52.266 52.266 0 0 0-11.82 16.173c-2.843-6.161-6.783-11.552-11.819-16.173-5.036-4.622-10.783-8.206-17.24-10.753-6.458-2.607-13.242-3.911-20.351-3.911-7.465 0-14.367 1.304-20.706 3.911-6.339 2.606-11.849 6.28-16.529 11.019-4.621 4.74-8.235 10.309-10.842 16.707-2.548 6.399-3.821 13.36-3.821 20.884 0 13.508 3.584 27.164 10.753 40.968 7.168 13.804 18.217 28.319 33.147 43.545 14.93 15.226 34.066 31.755 57.408 49.588Zm-69.316-76.693V322.19h-10.664v95.444l10.664 1.777Zm24.883 28.971V315.437h-10.664v131.167l10.664 1.778Zm24.882 21.683V318.369h-10.664v149.919l10.664 1.777Zm14.219 19.907h10.664V343.696h-10.664v146.276Zm5.332-7.199c-20.261-15.581-37.117-30.244-50.565-43.989-13.389-13.804-23.431-27.015-30.126-39.635-6.636-12.678-9.953-25.06-9.953-37.146 0-8.057 1.747-15.226 5.243-21.506 3.555-6.339 8.442-11.316 14.663-14.93 6.221-3.614 13.33-5.421 21.328-5.421 8.176 0 15.315 1.659 21.417 4.977 6.102 3.259 11.434 7.82 15.996 13.686 4.562 5.806 8.561 12.53 11.997 20.172 3.496-7.642 7.495-14.366 11.997-20.172 4.562-5.866 9.894-10.427 15.996-13.686 6.162-3.318 13.301-4.977 21.417-4.977 8.058 0 15.167 1.807 21.329 5.421 6.22 3.614 11.078 8.591 14.574 14.93 3.554 6.28 5.332 13.449 5.332 21.506 0 12.086-3.348 24.468-10.042 37.146-6.636 12.62-16.678 25.831-30.126 39.635-13.389 13.745-30.215 28.408-50.477 43.989Zm19.551-12.708 10.664-1.777V318.369h-10.664v151.696Zm24.883-21.683 10.664-1.778V315.437h-10.664v132.945Zm24.883-28.971 10.664-1.777V322.19H451.68v97.221Zm161.738 76.693c-13.508 0-26.008-2.341-37.502-7.021-11.434-4.621-21.387-11.138-29.859-19.551-8.472-8.413-15.078-18.277-19.818-29.593-4.68-11.375-7.02-23.757-7.02-37.146s2.34-25.742 7.02-37.058c4.74-11.375 11.346-21.269 19.818-29.681 8.472-8.413 18.425-14.93 29.859-19.551 11.494-4.68 23.994-7.021 37.502-7.021 13.508 0 25.979 2.341 37.413 7.021 11.494 4.621 21.476 11.138 29.948 19.551 8.472 8.412 15.048 18.306 19.729 29.681 4.739 11.316 7.109 23.669 7.109 37.058s-2.37 25.771-7.109 37.146c-4.681 11.316-11.257 21.18-19.729 29.593s-18.454 14.93-29.948 19.551c-11.434 4.68-23.905 7.021-37.413 7.021Zm1.333-34.57c-5.154 0-10.072-1.007-14.752-3.021-4.621-2.074-8.383-4.77-11.286-8.087-2.903-3.377-4.355-6.991-4.355-10.842 0-3.14 1.008-5.806 3.022-7.998 2.073-2.251 4.828-3.377 8.265-3.377 2.725 0 5.746.504 9.064 1.511a36.387 36.387 0 0 0 10.042 1.422c3.377 0 6.724-.474 10.042-1.422 3.318-1.007 6.339-1.511 9.064-1.511 3.496 0 6.251 1.126 8.265 3.377 2.014 2.192 3.022 4.858 3.022 7.998 0 3.851-1.452 7.465-4.355 10.842-2.903 3.317-6.665 6.013-11.286 8.087-4.621 2.014-9.538 3.021-14.752 3.021Zm-33.503-47.188c-13.212-2.903-23.491-7.495-30.837-13.775-7.287-6.28-10.931-13.626-10.931-22.039 0-5.391 1.689-9.834 5.066-13.33 3.377-3.555 7.583-5.332 12.619-5.332 3.673 0 7.583 1.067 11.731 3.199 4.858-6.931 10.604-10.397 17.24-10.397 5.154 0 9.42 2.073 12.797 6.221 3.436 4.087 5.154 9.183 5.154 15.285 0 6.161-1.896 12.648-5.688 19.462-3.791 6.754-9.508 13.656-17.151 20.706Zm32.259 71.982c11.967 0 23.016-2.103 33.147-6.309 10.19-4.148 19.018-9.954 26.483-17.418 7.524-7.525 13.359-16.382 17.507-26.572 4.206-10.19 6.309-21.298 6.309-33.325 0-11.967-2.103-23.016-6.309-33.147-4.148-10.19-9.983-19.018-17.507-26.483-7.465-7.524-16.293-13.359-26.483-17.507-10.131-4.206-21.18-6.309-33.147-6.309-12.027 0-23.135 2.103-33.325 6.309-10.131 4.148-18.959 9.983-26.483 17.507-7.524 7.465-13.389 16.293-17.595 26.483-4.148 10.131-6.221 21.18-6.221 33.147 0 12.027 2.073 23.135 6.221 33.325 4.206 10.19 10.042 19.047 17.506 26.572 7.524 7.464 16.382 13.27 26.572 17.418 10.19 4.206 21.298 6.309 33.325 6.309Zm32.081-71.982c-7.643-7.05-13.36-13.952-17.151-20.706-3.792-6.814-5.688-13.301-5.688-19.462 0-6.102 1.689-11.198 5.065-15.285 3.437-4.148 7.732-6.221 12.886-6.221 6.636 0 12.382 3.466 17.24 10.397 4.148-2.132 8.058-3.199 11.731-3.199 5.095 0 9.301 1.777 12.619 5.332 3.377 3.496 5.065 7.939 5.065 13.33 0 8.413-3.673 15.759-11.019 22.039-7.287 6.28-17.537 10.872-30.748 13.775Zm140.943 63.273c-11.197-8.353-20.054-18.988-26.571-31.903-6.458-12.916-9.687-27.223-9.687-42.923 0-12.915 2.429-25.001 7.288-36.258 4.858-11.316 11.582-21.239 20.172-29.77 8.65-8.532 18.663-15.197 30.038-19.995 11.434-4.859 23.668-7.288 36.702-7.288 15.877 0 30.333 3.229 43.367 9.687 13.034 6.398 23.757 15.137 32.17 26.216l-14.308-.8c-7.465-7.939-16.44-14.13-26.927-18.573-10.486-4.503-21.92-6.754-34.302-6.754-11.553 0-22.365 2.162-32.437 6.487-10.071 4.325-18.958 10.309-26.66 17.951-7.643 7.643-13.626 16.53-17.951 26.66-4.325 10.072-6.487 20.884-6.487 32.437 0 12.145 2.132 23.372 6.398 33.681 4.325 10.249 10.249 19.076 17.773 26.482l1.422 14.663Zm20.262 7.465c3.732 0 7.02-1.511 9.864-4.532 2.844-3.022 4.266-6.547 4.266-10.575 0-2.785-.77-5.925-2.311-9.42-1.54-3.555-3.91-7.791-7.109-12.708-2.725-4.207-4.71-7.465-5.954-9.776-1.244-2.31-2.281-4.413-3.111-6.309-4.087 5.332-7.227 10.664-9.419 15.996-2.133 5.273-3.2 10.279-3.2 15.018 0 4.088.741 7.821 2.222 11.198 1.54 3.377 3.584 6.072 6.132 8.086 2.607 2.015 5.48 3.022 8.62 3.022Zm-.444 8.887c-4.74 0-9.154-1.393-13.242-4.177-4.028-2.725-7.287-6.398-9.775-11.02-2.429-4.561-3.644-9.627-3.644-15.196 0-7.05 2.163-14.752 6.488-23.105 4.325-8.354 10.693-17.004 19.106-25.95a221.051 221.051 0 0 0 3.999 9.331 177.293 177.293 0 0 0 4.532 8.621 400.996 400.996 0 0 0 5.955 10.219c3.495 5.747 6.102 10.872 7.82 15.374 1.777 4.444 2.666 8.561 2.666 12.353 0 4.384-1.126 8.353-3.377 11.908-2.251 3.555-5.214 6.369-8.887 8.442-3.614 2.133-7.494 3.2-11.641 3.2Zm-1.6-62.207-8.798-4.266 9.953-20.084-22.927 8.798-3.644-9.153 35.902-13.597 5.688 5.599-16.174 32.703Zm22.039 22.394c6.754-4.206 13.478-9.094 20.173-14.663 6.754-5.628 12.738-11.049 17.951-16.263 5.154-5.154 10.486-11.078 15.996-17.773 5.569-6.695 10.487-13.389 14.752-20.084l-7.554-4.354c-2.725 4.147-5.776 8.383-9.153 12.708a272.293 272.293 0 0 1-10.397 12.53c-3.496 3.969-6.813 7.524-9.953 10.664-3.14 3.14-6.725 6.487-10.753 10.042a245.062 245.062 0 0 1-12.62 10.397c-4.324 3.377-8.59 6.428-12.796 9.154l4.354 7.642Zm8.442 11.642a55.45 55.45 0 0 1-4.443-.178 47.112 47.112 0 0 1-4.177-.533l-10.219-22.572c7.405-5.036 14.159-9.894 20.261-14.575a177.527 177.527 0 0 0 17.507-15.374 159.11 159.11 0 0 0 10.487-11.552 278.842 278.842 0 0 0 9.686-12.531 838.406 838.406 0 0 0 10.309-14.396l21.772 9.598c.711 3.08 1.066 6.398 1.066 9.953 0 5.569-.829 11.404-2.488 17.506-1.599 6.043-3.999 11.968-7.198 17.774a70.067 70.067 0 0 1-11.731 15.552c-4.561 4.562-9.745 8.442-15.551 11.641-5.747 3.199-11.671 5.629-17.774 7.287-6.102 1.6-11.938 2.4-17.507 2.4Zm25.416-11.553c3.733-1.54 7.406-3.525 11.02-5.954a68.357 68.357 0 0 0 10.042-8.265c2.962-2.962 5.688-6.25 8.176-9.864 2.488-3.673 4.473-7.376 5.954-11.108-4.621 1.185-8.857 2.843-12.708 4.976-3.851 2.074-7.198 4.532-10.042 7.376-5.747 5.747-9.894 13.36-12.442 22.839Zm-16.173 41.857c-5.806 0-11.464-.474-16.974-1.422a106.267 106.267 0 0 1-15.818-3.822l8.442-7.82a87.056 87.056 0 0 0 11.819 2.399c4.088.593 8.265.889 12.531.889 12.026 0 23.105-2.103 33.236-6.309 10.19-4.148 19.018-9.954 26.482-17.418 7.524-7.525 13.36-16.382 17.507-26.572 4.207-10.19 6.31-21.269 6.31-33.236 0-4.443-.326-8.828-.978-13.152a83.116 83.116 0 0 0-2.755-12.797l7.021-11.82c2.429 5.747 4.266 11.82 5.51 18.218 1.244 6.339 1.866 12.856 1.866 19.551 0 13.389-2.37 25.771-7.11 37.146-4.68 11.316-11.256 21.18-19.728 29.593-8.472 8.413-18.455 14.93-29.948 19.551-11.435 4.68-23.906 7.021-37.413 7.021Zm-3.733-116.861-5.598-5.687 13.596-35.903 9.154 3.644-8.798 22.928 20.972-10.22 4.266 8.798-33.592 16.44Zm71.449 9.242c-3.673 0-7.79-.859-12.352-2.577-4.503-1.777-9.657-4.384-15.463-7.82-5.747-3.496-10.605-6.28-14.574-8.354-3.97-2.073-8.502-4.117-13.597-6.131 9.005-8.472 17.655-14.841 25.949-19.107 8.354-4.325 16.056-6.487 23.106-6.487 5.273 0 10.22 1.155 14.841 3.466 4.621 2.31 8.353 5.48 11.197 9.508 2.903 3.97 4.354 8.443 4.354 13.419 0 6.873-2.192 12.619-6.576 17.241-4.384 4.561-10.012 6.842-16.885 6.842Zm-.444-9.242c4.325 0 7.761-1.303 10.309-3.91 2.547-2.666 3.821-6.161 3.821-10.486 0-3.2-1.007-6.043-3.021-8.532-1.956-2.547-4.562-4.532-7.821-5.954-3.199-1.481-6.724-2.221-10.575-2.221-4.68 0-9.687 1.066-15.019 3.199-5.272 2.133-10.604 5.273-15.996 9.42a47.462 47.462 0 0 1 3.999 1.866c1.422.711 3.081 1.629 4.977 2.755 1.955 1.126 4.325 2.607 7.109 4.443 4.918 3.199 9.154 5.569 12.708 7.11 3.614 1.54 6.784 2.31 9.509 2.31Zm163.785 116.861c-13.51 0-26.01-2.341-37.5-7.021-11.44-4.621-21.39-11.138-29.86-19.551-8.476-8.413-15.082-18.277-19.821-29.593-4.681-11.375-7.021-23.757-7.021-37.146s2.34-25.742 7.021-37.058c4.739-11.375 11.345-21.269 19.821-29.681 8.47-8.413 18.42-14.93 29.86-19.551 11.49-4.68 23.99-7.021 37.5-7.021 13.51 0 25.98 2.341 37.41 7.021 11.49 4.621 21.48 11.138 29.95 19.551 8.47 8.412 15.05 18.306 19.73 29.681 4.74 11.316 7.11 23.669 7.11 37.058s-2.37 25.771-7.11 37.146c-4.68 11.316-11.26 21.18-19.73 29.593s-18.46 14.93-29.95 19.551c-11.43 4.68-23.9 7.021-37.41 7.021Zm-59.01-73.227c-1.66-.77-2.07-1.985-1.24-3.644l4.53-9.331c.83-1.599 2.01-2.044 3.55-1.333 1.66.771 2.08 1.985 1.25 3.644l-4.54 9.331c-.83 1.6-2.01 2.044-3.55 1.333Zm9.77 2.488c-1.54-.711-1.95-1.896-1.24-3.554l6.84-14.397c.71-1.659 1.9-2.103 3.56-1.333 1.54.711 1.95 1.896 1.24 3.555l-6.84 14.396c-.71 1.659-1.9 2.103-3.56 1.333Zm12.09-2.488c-1.66-.77-2.07-1.985-1.24-3.644l4.53-9.331c.83-1.599 2.01-2.044 3.55-1.333 1.66.771 2.08 1.985 1.25 3.644l-4.53 9.331c-.83 1.6-2.02 2.044-3.56 1.333Zm37.15 30.837c-11.44 0-23.17-3.407-35.19-10.22l4.79-8.531c10.67 5.984 20.8 8.975 30.4 8.975 9.59 0 19.73-2.991 30.39-8.975l4.8 8.531c-12.03 6.813-23.76 10.22-35.19 10.22Zm-41.5-58.652-9.6-1.956c1.24-5.983 3.58-10.575 7.02-13.774 3.44-3.258 7.73-4.888 12.88-4.888 5.16 0 9.45 1.63 12.89 4.888 3.44 3.199 5.78 7.791 7.02 13.774l-9.6 1.956c-1.42-7.228-4.85-10.842-10.31-10.842-5.45 0-8.88 3.614-10.3 10.842Zm41.5 91.266c12.02 0 23.1-2.103 33.23-6.309 10.19-4.148 19.02-9.954 26.49-17.418 7.52-7.525 13.36-16.382 17.5-26.572 4.21-10.19 6.31-21.269 6.31-33.236 0-12.027-2.1-23.105-6.31-33.236-4.14-10.19-9.98-19.018-17.5-26.483-7.47-7.524-16.3-13.359-26.49-17.507-10.13-4.206-21.21-6.309-33.23-6.309-11.97 0-23.05 2.103-33.24 6.309-10.13 4.148-18.96 9.983-26.48 17.507-7.53 7.465-13.39 16.293-17.597 26.483-4.147 10.131-6.221 21.209-6.221 33.236 0 11.967 2.074 23.046 6.221 33.236 4.207 10.19 10.037 19.047 17.507 26.572 7.52 7.464 16.38 13.27 26.57 17.418 10.19 4.206 21.27 6.309 33.24 6.309Zm30.3-63.451c-1.66-.77-2.07-1.985-1.24-3.644l4.53-9.331c.83-1.599 2.01-2.044 3.55-1.333 1.66.771 2.08 1.985 1.25 3.644l-4.53 9.331c-.83 1.6-2.02 2.044-3.56 1.333Zm9.78 2.488c-1.54-.711-1.96-1.896-1.25-3.554l6.85-14.397c.71-1.659 1.89-2.103 3.55-1.333 1.54.711 1.95 1.896 1.24 3.555l-6.84 14.396c-.71 1.659-1.89 2.103-3.55 1.333Zm12.08-2.488c-1.66-.77-2.07-1.985-1.24-3.644l4.53-9.331c.83-1.599 2.01-2.044 3.56-1.333 1.65.771 2.07 1.985 1.24 3.644l-4.53 9.331c-.83 1.6-2.02 2.044-3.56 1.333Zm-31.28-27.815-9.6-1.956c1.25-5.983 3.59-10.575 7.02-13.774 3.44-3.258 7.74-4.888 12.89-4.888s9.45 1.63 12.89 4.888c3.43 3.199 5.77 7.791 7.02 13.774l-9.6 1.956c-1.42-7.228-4.86-10.842-10.31-10.842s-8.89 3.614-10.31 10.842Zm210.17 101.042c-13.51 0-26.01-2.341-37.5-7.021-11.43-4.621-21.39-11.138-29.86-19.551-8.47-8.413-15.08-18.277-19.82-29.593-4.68-11.375-7.02-23.757-7.02-37.146s2.34-25.742 7.02-37.058c4.74-11.375 11.35-21.269 19.82-29.681 8.47-8.413 18.43-14.93 29.86-19.551 11.49-4.68 23.99-7.021 37.5-7.021 13.51 0 25.98 2.341 37.42 7.021 11.49 4.621 21.47 11.138 29.94 19.551 8.48 8.412 15.05 18.306 19.73 29.681 4.74 11.316 7.11 23.669 7.11 37.058s-2.37 25.771-7.11 37.146c-4.68 11.316-11.25 21.18-19.73 29.593-8.47 8.413-18.45 14.93-29.94 19.551-11.44 4.68-23.91 7.021-37.42 7.021Zm-15.82-31.993-4.17-8.709c6.57-3.08 13.24-4.621 19.99-4.621 6.76 0 13.42 1.541 20 4.621l-4.18 8.709c-5.15-2.369-10.43-3.554-15.82-3.554-5.39 0-10.66 1.185-15.82 3.554Zm-19.72-30.925c-5.16 0-9.84-1.245-14.05-3.733-4.2-2.488-7.58-5.835-10.13-10.042-2.48-4.265-3.73-8.975-3.73-14.13 0-5.154 1.25-9.834 3.73-14.041 2.55-4.206 5.93-7.553 10.13-10.042 4.21-2.547 8.89-3.821 14.05-3.821 5.15 0 9.83 1.274 14.04 3.821 4.2 2.489 7.55 5.836 10.04 10.042 2.55 4.207 3.82 8.887 3.82 14.041 0 5.155-1.27 9.865-3.82 14.13-2.49 4.207-5.84 7.554-10.04 10.042-4.21 2.488-8.89 3.733-14.04 3.733Zm9.15-17.241c1.12 0 2.07-.385 2.84-1.155s1.16-1.718 1.16-2.844c0-1.125-.39-2.073-1.16-2.843-.77-.771-1.72-1.156-2.84-1.156-1.13 0-2.08.385-2.85 1.156-.77.77-1.15 1.718-1.15 2.843 0 1.126.38 2.074 1.15 2.844.77.77 1.72 1.155 2.85 1.155Zm-19.02-7.553c2.55 0 5.16-.83 7.82-2.489 2.67-1.659 4.89-3.732 6.67-6.22 1.83-2.489 2.75-5.007 2.75-7.554 0-2.607-.92-4.917-2.75-6.932-1.84-2.014-4.15-3.021-6.94-3.021-2.6 0-5.24.829-7.9 2.488a21.57 21.57 0 0 0-6.67 6.221c-1.78 2.488-2.67 5.065-2.67 7.731 0 2.666.95 4.977 2.85 6.932 1.89 1.896 4.17 2.844 6.84 2.844Zm-13.6-37.058-1.6-8.709c6.82-1.185 12.3-2.814 16.45-4.888 4.2-2.073 7.67-4.828 10.39-8.264l6.93 5.509c-3.37 4.325-7.64 7.791-12.79 10.398-5.16 2.607-11.61 4.591-19.38 5.954Zm59.1 114.994c11.97 0 23.02-2.103 33.15-6.309 10.19-4.148 19.02-9.954 26.48-17.418 7.52-7.525 13.36-16.382 17.51-26.572 4.2-10.19 6.31-21.298 6.31-33.325 0-11.967-2.11-23.016-6.31-33.147-4.15-10.19-9.99-19.018-17.51-26.483-7.46-7.524-16.29-13.359-26.48-17.507-10.13-4.206-21.18-6.309-33.15-6.309-12.03 0-23.13 2.103-33.32 6.309-10.14 4.148-18.96 9.983-26.49 17.507-7.52 7.465-13.39 16.293-17.59 26.483-4.15 10.131-6.22 21.18-6.22 33.147 0 12.027 2.07 23.135 6.22 33.325 4.2 10.19 10.04 19.047 17.5 26.572 7.53 7.464 16.39 13.27 26.58 17.418 10.19 4.206 21.29 6.309 33.32 6.309Zm35.46-53.142c-5.16 0-9.84-1.245-14.04-3.733-4.21-2.488-7.59-5.835-10.13-10.042-2.49-4.265-3.74-8.975-3.74-14.13 0-5.154 1.25-9.834 3.74-14.041 2.54-4.206 5.92-7.553 10.13-10.042 4.2-2.547 8.88-3.821 14.04-3.821 5.15 0 9.83 1.274 14.04 3.821 4.21 2.489 7.55 5.836 10.04 10.042 2.55 4.207 3.82 8.887 3.82 14.041 0 5.155-1.27 9.865-3.82 14.13-2.49 4.207-5.83 7.554-10.04 10.042-4.21 2.488-8.89 3.733-14.04 3.733Zm9.15-17.241c1.13 0 2.08-.385 2.85-1.155s1.15-1.718 1.15-2.844c0-1.125-.38-2.073-1.15-2.843-.77-.771-1.72-1.156-2.85-1.156-1.12 0-2.07.385-2.84 1.156-.77.77-1.16 1.718-1.16 2.843 0 1.126.39 2.074 1.16 2.844.77.77 1.72 1.155 2.84 1.155Zm-19.02-7.553c2.55 0 5.16-.83 7.82-2.489 2.67-1.659 4.89-3.732 6.67-6.22 1.84-2.489 2.75-5.007 2.75-7.554 0-2.607-.91-4.917-2.75-6.932-1.84-2.014-4.15-3.021-6.93-3.021-2.61 0-5.24.829-7.91 2.488a21.57 21.57 0 0 0-6.67 6.221c-1.77 2.488-2.66 5.065-2.66 7.731 0 2.666.95 4.977 2.84 6.932 1.9 1.896 4.18 2.844 6.84 2.844Zm33.33-37.058c-7.7-1.363-14.16-3.347-19.37-5.954-5.16-2.607-9.42-6.073-12.8-10.398l6.93-5.509c2.73 3.436 6.16 6.191 10.31 8.264 4.21 2.074 9.72 3.703 16.53 4.888l-1.6 8.709Zm188.93 100.064-7.73-11.73c-.41-.711-1.16-1.392-2.22-2.044-1.01-.652-2.37-1.333-4.09-2.044-1.84-.77-3.58-2.073-5.24-3.91-1.66-1.837-2.49-4.621-2.49-8.354V320.235c0-3.08 1.27-5.628 3.82-7.642 2.55-2.074 5.39-3.111 8.53-3.111 3.02 0 5.75.948 8.18 2.844 2.43 1.837 3.85 4.266 4.26 7.287l8.98 60.608a254.592 254.592 0 0 1 4.89 17.507c1.48 6.102 2.87 12.826 4.17 20.172 1.72 1.126 3.41 2.222 5.07 3.288 1.72 1.067 3.46 2.163 5.24 3.289l-4.62 8.531c-2.72-1.6-5.36-3.229-7.91-4.888a383.522 383.522 0 0 1-7.29-5.154c-1.3-7.939-2.75-15.196-4.35-21.773a224.057 224.057 0 0 0-5.33-19.017l-8.53-61.319c-.12-.829-.42-1.451-.89-1.866-.42-.415-1.04-.622-1.87-.622-.77 0-1.39.207-1.86.622-.48.356-.72.77-.72 1.244v123.081c0 1.126.24 1.896.72 2.311.47.415 1.68 1.007 3.64 1.777 2.01.77 3.55 1.511 4.62 2.222 1.07.711 1.96 1.6 2.67 2.666l7.73 11.642-7.38 7.464Zm-48.08 24.706-6.13-8.176 16.71-12.353c-5.45-5.154-10.1-10.071-13.95-14.752-3.85-4.68-7.08-9.449-9.69-14.307-2.61-4.858-4.83-10.072-6.66-15.641l-34.31 15.463-4.53-9.153 45.59-20.529 7.02 6.488-4.62 2.666c1.54 4.976 3.38 9.597 5.51 13.863 2.13 4.265 4.77 8.442 7.91 12.53 3.14 4.029 6.96 8.265 11.46 12.708l3.02-5.154c1.66 1.718 3.38 4.147 5.16 7.287 1.83 3.199 3.29 6.31 4.35 9.331l-26.84 19.729Zm14.31-24.706-7.37-7.464 7.73-11.642a9.577 9.577 0 0 1 2.66-2.666c1.07-.77 2.61-1.511 4.62-2.222 1.96-.711 3.17-1.273 3.65-1.688.47-.474.71-1.274.71-2.4V320.235c0-.474-.24-.888-.71-1.244-.42-.415-1.04-.622-1.87-.622-.77 0-1.39.207-1.86.622-.48.415-.77 1.037-.89 1.866l-8.53 61.319a220.406 220.406 0 0 0-5.34 19.017c-1.54 6.577-2.99 13.834-4.35 21.773-2.37 1.718-4.8 3.436-7.29 5.154a138.623 138.623 0 0 1-7.91 4.888l-4.62-8.531c1.78-1.126 3.53-2.222 5.24-3.289 1.72-1.066 3.41-2.162 5.07-3.288 1.36-7.346 2.76-14.07 4.18-20.172a260.45 260.45 0 0 1 4.88-17.507l8.98-60.608c.47-3.021 1.9-5.45 4.27-7.287 2.43-1.896 5.15-2.844 8.17-2.844 3.14 0 5.99 1.037 8.53 3.111 2.55 2.014 3.82 4.562 3.82 7.642v123.081c0 3.733-.83 6.517-2.48 8.354-1.66 1.837-3.41 3.14-5.25 3.91-1.72.711-3.08 1.392-4.08 2.044-1.01.652-1.75 1.333-2.23 2.044l-7.73 11.73Zm48.08 24.706-26.84-19.729c1.07-3.021 2.49-6.132 4.27-9.331 1.83-3.14 3.58-5.569 5.24-7.287l3.02 5.154c4.56-4.443 8.38-8.679 11.47-12.708 3.14-4.088 5.77-8.265 7.9-12.53 2.2-4.266 4.03-8.887 5.51-13.863l-4.62-2.666 7.02-6.488 45.59 20.529-4.53 9.153-34.3-15.463c-1.78 5.569-4 10.783-6.67 15.641-2.6 4.858-5.83 9.627-9.68 14.307-3.8 4.681-8.45 9.598-13.96 14.752l16.71 12.353-6.13 8.176Zm-36.08-138.544c0-1.541-.47-2.844-1.42-3.911-.95-1.066-2.11-1.599-3.47-1.599-1.3 0-2.52.474-3.64 1.422-1.07.948-1.69 2.162-1.87 3.643l-8.8-1.066c.48-3.673 2.08-6.724 4.8-9.153 2.79-2.489 5.96-3.733 9.51-3.733 1.78 0 3.53.356 5.24 1.066 1.78.652 3.29 1.57 4.54 2.755 1.24-1.185 2.72-2.103 4.44-2.755 1.78-.71 3.55-1.066 5.33-1.066 3.56 0 6.7 1.244 9.42 3.733 2.79 2.429 4.42 5.48 4.89 9.153l-8.8 1.066c-.18-1.481-.83-2.695-1.95-3.643-1.07-.948-2.25-1.422-3.56-1.422-1.3 0-2.46.533-3.46 1.599-.95 1.067-1.43 2.37-1.43 3.911h-9.77Zm0-20.084c0-1.185-.36-2.163-1.07-2.933-.65-.77-1.48-1.155-2.49-1.155-.88 0-1.77.355-2.66 1.066-.83.711-1.31 1.629-1.42 2.755l-8.8-1.066c.35-3.318 1.78-6.073 4.26-8.265 2.49-2.251 5.37-3.377 8.62-3.377 3.32 0 6.14 1.007 8.45 3.021 2.31-2.014 5.12-3.021 8.44-3.021 3.26 0 6.13 1.126 8.62 3.377 2.49 2.192 3.91 4.947 4.26 8.265l-8.79 1.066c-.12-1.126-.63-2.044-1.51-2.755-.83-.711-1.69-1.066-2.58-1.066-.95 0-1.78.385-2.49 1.155-.71.77-1.07 1.748-1.07 2.933h-9.77Zm163.43 158.628c-7.23-19.314-12.5-35.725-15.82-49.233-3.32-13.508-4.98-25.623-4.98-36.347 0-10.604 1.78-20.024 5.33-28.259 3.56-8.235 8.47-14.693 14.75-19.373 6.34-4.74 13.6-7.11 21.78-7.11 5.15 0 10.01 1.007 14.57 3.022a39.412 39.412 0 0 1 12.18 8.175 42.208 42.208 0 0 1 8.71 12.086c2.25 4.503 3.64 9.302 4.17 14.397.06.415.09.829.09 1.244.06.415.09.829.09 1.244 2.9-1.362 5.89-2.37 8.98-3.021a41.35 41.35 0 0 1 9.33-1.067c7.52 0 14.27 1.689 20.26 5.066 5.98 3.317 10.72 7.85 14.22 13.596 3.49 5.688 5.24 12.146 5.24 19.373 0 17.892-9.66 32.111-28.97 42.657-19.31 10.605-49.29 18.454-89.93 23.55Zm7.11-11.198c34.06-4.739 59.42-11.641 76.07-20.706 16.7-9.064 25.06-20.499 25.06-34.303 0-5.213-1.28-9.864-3.83-13.952-2.48-4.147-5.92-7.405-10.3-9.775-4.39-2.429-9.36-3.644-14.93-3.644-4.86 0-9.72.919-14.58 2.755-4.8 1.837-9.39 4.355-13.77 7.554.18-1.363.29-2.696.35-3.999.12-1.363.18-2.696.18-3.999 0-7.228-1.27-13.715-3.82-19.462-2.55-5.806-6.1-10.397-10.66-13.774-4.51-3.437-9.78-5.155-15.82-5.155-6.1 0-11.5 1.866-16.18 5.599-4.68 3.732-8.35 8.916-11.02 15.552-2.66 6.635-4 14.278-4 22.927 0 9.124 1.4 19.759 4.18 31.904 2.85 12.145 7.2 26.304 13.07 42.478Zm127.34-83.624c-11.02-4.976-20.44-9.716-28.26-14.219-7.76-4.561-14.1-9.064-19.02-13.507-4.91-4.444-8.53-8.976-10.84-13.597-2.31-4.621-3.46-9.479-3.46-14.574 0-4.799 1.09-9.094 3.28-12.886 2.2-3.792 5.16-6.784 8.89-8.976 3.79-2.192 8.09-3.288 12.89-3.288 3.2 0 6.31.593 9.33 1.778 3.08 1.185 5.86 2.992 8.35 5.421 1.66-4.918 4.68-9.124 9.07-12.62 4.44-3.554 9.39-5.332 14.84-5.332 5.27 0 9.86 1.245 13.77 3.733 3.97 2.488 7.05 5.924 9.24 10.308 2.2 4.325 3.29 9.243 3.29 14.752 0 7.998-2.49 16.915-7.46 26.749-4.98 9.835-12.95 21.921-23.91 36.258Zm-2.84-10.93c8.77-11.672 15.16-21.714 19.19-30.126 4.09-8.413 6.14-15.73 6.14-21.951 0-5.865-1.6-10.634-4.8-14.307-3.14-3.733-7.38-5.599-12.71-5.599-3.2 0-6.31 1.126-9.33 3.377-3.02 2.251-5.51 5.243-7.47 8.976-1.95 3.673-2.93 7.642-2.93 11.908-2.67-4.68-5.95-8.087-9.86-10.22-3.86-2.192-7.82-3.288-11.91-3.288-4.74 0-8.62 1.54-11.64 4.621-3.03 3.022-4.54 6.902-4.54 11.642 0 3.791.98 7.524 2.94 11.197 1.95 3.614 4.94 7.258 8.97 10.931 4.03 3.614 9.18 7.316 15.46 11.108 6.28 3.792 13.78 7.702 22.49 11.731ZM87.502 745.82c-9.48-8.353-16.914-18.543-22.306-30.57-5.391-12.027-8.087-25.179-8.087-39.457 0-13.389 2.34-25.742 7.02-37.058 4.74-11.375 11.346-21.269 19.818-29.681 8.472-8.413 18.425-14.93 29.86-19.551 11.493-4.68 23.994-7.021 37.502-7.021 13.507 0 25.978 2.341 37.413 7.021 11.493 4.621 21.476 11.138 29.948 19.551 8.472 8.412 15.048 18.306 19.728 29.681 4.74 11.316 7.11 23.669 7.11 37.058 0 14.278-2.696 27.43-8.087 39.457-5.391 12.027-12.827 22.217-22.306 30.57l-9.597-5.243c9.123-7.524 16.292-16.825 21.505-27.904 5.214-11.079 7.821-23.372 7.821-36.88 0-12.027-2.103-23.105-6.31-33.236-4.147-10.19-9.983-19.018-17.507-26.483-7.465-7.524-16.292-13.359-26.482-17.507-10.131-4.206-21.21-6.309-33.236-6.309-11.968 0-23.047 2.103-33.237 6.309-10.131 4.148-18.958 9.983-26.482 17.507-7.524 7.465-13.39 16.293-17.596 26.483-4.147 10.131-6.22 21.209-6.22 33.236 0 13.389 2.606 25.653 7.82 36.791 5.213 11.138 12.382 20.469 21.506 27.993l-9.598 5.243Zm63.807 23.284c-3.14 0-6.251-.149-9.331-.445a90.685 90.685 0 0 1-8.976-1.155l-2.133-10.486c6.636 1.54 13.449 2.31 20.44 2.31 6.99 0 13.804-.77 20.439-2.31l-2.133 10.486a86.378 86.378 0 0 1-8.975 1.155 97.512 97.512 0 0 1-9.331.445Zm-41.146 4.443c-8.65 0-15.581-1.392-20.795-4.177-5.154-2.725-7.731-6.398-7.731-11.019-4.977-2.074-7.465-4.651-7.465-7.732 0-2.725 1.748-5.006 5.243-6.843 3.555-1.836 8.739-3.14 15.552-3.91l3.555-89.933 8.708-.445-3.732 96.688c-6.22.474-11.05 1.125-14.485 1.955-3.377.829-5.066 1.748-5.066 2.755 0 .651.652 1.214 1.955 1.688 1.363.474 3.288.859 5.777 1.155-.77 1.363-1.156 2.607-1.156 3.733 0 2.133 1.63 3.851 4.888 5.154 3.318 1.363 8.235 2.044 14.752 2.044 3.377 0 6.517-.207 9.42-.622 2.962-.355 5.332-.889 7.109-1.6 1.837-.651 2.755-1.421 2.755-2.31 0-1.066-.711-2.014-2.133-2.844-1.362-.77-2.962-1.57-4.798-2.399-1.837-.83-3.466-1.866-4.888-3.111-1.363-1.184-2.044-2.754-2.044-4.71v-98.998l8.709 1.333v92.689c0 2.37.77 4.147 2.311 5.332 1.599 1.185 3.406 2.251 5.42 3.199 2.074.948 3.881 2.133 5.421 3.555 1.6 1.481 2.4 3.673 2.4 6.576 0 2.429-1.333 4.621-3.999 6.576-2.607 1.955-6.162 3.466-10.664 4.532-4.503 1.126-9.509 1.689-15.019 1.689Zm8.265-37.324v-43.634c4.206-3.377 9.094-6.013 14.663-7.909 5.628-1.896 11.701-2.844 18.218-2.844 6.517 0 12.589.948 18.217 2.844 5.629 1.896 10.516 4.532 14.663 7.909v43.634c-4.206-1.896-9.064-3.762-14.574-5.599-5.51-1.896-11.612-2.844-18.306-2.844-6.636 0-12.738.948-18.307 2.844-5.51 1.837-10.368 3.703-14.574 5.599Zm2.399-29.238h60.963v-4.621c-3.614-3.732-7.998-6.606-13.152-8.62-5.095-2.014-10.872-3.021-17.329-3.021-6.458 0-12.264 1.007-17.418 3.021-5.095 2.014-9.45 4.888-13.064 8.62v4.621Zm-25.86-43.722-6.754-5.866c2.725-4.028 6.102-7.168 10.13-9.419 4.029-2.311 8.295-3.466 12.798-3.466 4.561 0 8.827 1.125 12.797 3.377 3.969 2.251 7.346 5.421 10.13 9.508l-6.754 5.866c-1.658-2.666-3.999-4.829-7.02-6.488-3.022-1.658-6.073-2.488-9.153-2.488-3.022 0-6.043.83-9.065 2.488-3.021 1.659-5.391 3.822-7.11 6.488Zm-6.31-16.441-7.376-4.887c2.962-4.562 6.813-8.65 11.553-12.264 4.799-3.673 11.02-6.517 18.662-8.531l2.222 8.62c-6.636 1.777-11.879 4.147-15.73 7.109-3.791 2.962-6.902 6.28-9.33 9.953Zm103.797 126.725c-5.51 0-10.516-.563-15.018-1.689-4.503-1.066-8.087-2.577-10.753-4.532-2.607-1.955-3.911-4.147-3.911-6.576 0-2.903.771-5.095 2.311-6.576a22.586 22.586 0 0 1 5.421-3.555c2.073-.948 3.88-2.014 5.421-3.199 1.599-1.185 2.399-2.962 2.399-5.332v-92.689l8.709-1.333v98.998c0 1.956-.711 3.526-2.133 4.71-1.362 1.245-2.962 2.281-4.798 3.111a75.885 75.885 0 0 0-4.888 2.399c-1.363.83-2.044 1.778-2.044 2.844 0 .889.889 1.659 2.666 2.31 1.837.711 4.206 1.245 7.109 1.6 2.963.415 6.132.622 9.509.622 6.517 0 11.405-.681 14.663-2.044 3.318-1.303 4.977-3.021 4.977-5.154 0-1.126-.385-2.37-1.156-3.733 2.489-.296 4.385-.681 5.688-1.155 1.363-.474 2.044-1.037 2.044-1.688 0-1.007-1.718-1.926-5.154-2.755-3.377-.83-8.176-1.481-14.397-1.955l-3.732-96.688 8.709.445 3.554 89.933c6.814.77 11.968 2.074 15.463 3.91 3.555 1.837 5.332 4.118 5.332 6.843 0 3.081-2.488 5.658-7.465 7.732 0 4.621-2.606 8.294-7.82 11.019-5.154 2.785-12.056 4.177-20.706 4.177Zm-17.151-110.284-6.754-5.866c2.784-4.087 6.161-7.257 10.131-9.508 4.028-2.252 8.294-3.377 12.797-3.377 4.561 0 8.827 1.155 12.796 3.466 4.029 2.251 7.406 5.391 10.131 9.419l-6.754 5.866c-1.718-2.666-4.088-4.829-7.109-6.488-3.021-1.658-6.043-2.488-9.064-2.488-3.081 0-6.132.83-9.154 2.488-2.962 1.659-5.302 3.822-7.02 6.488Zm38.657-16.441c-2.429-3.673-5.539-6.991-9.331-9.953-3.792-2.962-9.035-5.332-15.73-7.109l2.222-8.62c7.643 2.014 13.834 4.858 18.573 8.531 4.799 3.614 8.68 7.702 11.642 12.264l-7.376 4.887Zm168.403 122.282c-13.508 0-26.008-2.341-37.502-7.021-11.434-4.621-21.387-11.138-29.859-19.551-8.472-8.413-15.078-18.277-19.817-29.593-4.681-11.375-7.021-23.757-7.021-37.146s2.34-25.742 7.021-37.058c4.739-11.375 11.345-21.269 19.817-29.681 8.472-8.413 18.425-14.93 29.859-19.551 11.494-4.68 23.994-7.021 37.502-7.021 13.508 0 25.979 2.341 37.413 7.021 11.494 4.621 21.477 11.138 29.949 19.551 8.472 8.412 15.048 18.306 19.728 29.681 4.74 11.316 7.109 23.669 7.109 37.058 0 2.429-.088 4.828-.266 7.198-.178 2.37-.415 4.71-.711 7.021-3.022-2.192-6.428-3.614-10.22-4.266.178-1.659.296-3.318.356-4.976.118-1.659.177-3.318.177-4.977 0-12.027-2.103-23.105-6.309-33.236-4.147-10.19-9.983-19.018-17.507-26.483-7.465-7.524-16.292-13.359-26.482-17.507-10.131-4.206-21.21-6.309-33.237-6.309-11.967 0-23.046 2.103-33.236 6.309-10.131 4.148-18.958 9.983-26.482 17.507-7.525 7.465-13.39 16.293-17.596 26.483-4.147 10.131-6.221 21.209-6.221 33.236 0 11.967 2.074 23.046 6.221 33.236 4.206 10.19 10.042 19.047 17.507 26.572 7.524 7.464 16.381 13.27 26.571 17.418 10.19 4.206 21.269 6.309 33.236 6.309 8.946 0 17.389-1.185 25.327-3.555 7.998-2.369 15.315-5.717 21.951-10.042 2.666.178 5.332.297 7.998.356 2.725.118 5.421.178 8.087.178-8.235 7.168-17.744 12.767-28.527 16.796-10.723 4.028-22.335 6.043-34.836 6.043Zm-3.821-33.059v-9.775c4.088 0 7.376-.593 9.864-1.778 2.489-1.185 3.733-2.873 3.733-5.065 0-1.6-.711-2.962-2.133-4.088-1.422-1.185-3.525-1.896-6.31-2.133v-7.998c2.489-.118 4.414-.563 5.777-1.333 1.362-.77 2.044-1.807 2.044-3.11 0-1.541-1.096-2.726-3.288-3.555-2.193-.829-5.333-1.244-9.42-1.244v-9.776c6.694 0 12.086 1.245 16.173 3.733 4.088 2.429 6.132 5.658 6.132 9.686 0 3.14-1.244 6.399-3.732 9.776 1.718 1.599 2.903 3.199 3.555 4.799.651 1.599.977 3.347.977 5.243 0 5.332-2.133 9.449-6.398 12.352-4.266 2.844-9.924 4.266-16.974 4.266Zm-28.349-66.028c-3.317 0-6.191-1.452-8.62-4.355-2.429-2.903-3.643-6.339-3.643-10.308 0-4.029 1.214-7.465 3.643-10.309 2.429-2.903 5.303-4.355 8.62-4.355 3.318 0 6.191 1.452 8.62 4.355 2.43 2.844 3.644 6.28 3.644 10.309 0 3.969-1.214 7.405-3.644 10.308-2.429 2.903-5.302 4.355-8.62 4.355ZM328.51 642.29l-7.821-4.266c2.785-4.976 6.429-9.153 10.931-12.53 4.562-3.436 10.546-6.487 17.951-9.153l3.022 8.353c-6.458 2.311-11.523 4.829-15.197 7.554-3.673 2.666-6.635 6.013-8.886 10.042Zm110.995 95.177c-8.472 0-17.003-1.541-25.594-4.621 2.311-1.837 3.94-3.762 4.888-5.777 1.007-2.073 1.511-4.117 1.511-6.131 0-2.785-.534-5.718-1.6-8.798-1.007-3.081-1.511-6.991-1.511-11.731 0-7.05 1.57-12.53 4.71-16.44 3.199-3.97 7.376-5.954 12.53-5.954 4.74 0 8.798 1.629 12.175 4.887 3.436 3.2 5.155 7.287 5.155 12.264a25.221 25.221 0 0 1 4.087-.889 29.785 29.785 0 0 1 3.822-.266c5.273 0 9.39 1.54 12.352 4.621 3.022 3.021 4.532 7.139 4.532 12.352 0 5.214-1.569 9.805-4.709 13.775-3.14 3.969-7.495 7.08-13.064 9.331-5.569 2.251-11.997 3.377-19.284 3.377Zm-8.62-65.673a64.402 64.402 0 0 0-11.642-3.999 47.91 47.91 0 0 0-11.997-1.511c-.889 0-1.836.059-2.844.178-.948.059-2.073.178-3.377.355l-4.354-9.508c5.391-4.799 10.812-8.946 16.263-12.442 5.509-3.495 10.96-6.369 16.351-8.62l3.555 9.153c-2.785 1.126-5.836 2.607-9.153 4.444-3.259 1.777-6.991 4.147-11.198 7.109h1.244c2.37 0 5.569.593 9.598 1.777a85.377 85.377 0 0 1 11.819 4.266l-4.265 8.798Zm190.975 96.154c-15.048 0-27.934-3.199-38.657-9.597l-3.555-2.133c-5.035-3.022-9.212-5.184-12.53-6.488-3.258-1.244-6.102-1.866-8.531-1.866l-30.482.178v-78.647c7.999 0 15.049-.208 21.151-.623 6.161-.414 11.671-1.184 16.529-2.31.948-4.917 3.022-9.153 6.221-12.708 3.199-3.614 8.176-7.376 14.93-11.286 5.924-3.436 10.545-6.873 13.863-10.309 3.318-3.436 5.658-7.405 7.02-11.908 1.363-4.503 2.044-10.072 2.044-16.707v-3.466c0-11.73 4.71-17.596 14.13-17.596 6.873 0 12.471 2.963 16.796 8.887 4.384 5.865 6.576 13.656 6.576 23.372 0 4.74-.592 9.45-1.777 14.13-1.126 4.68-2.281 8.946-3.466 12.797-1.126 3.851-1.688 6.932-1.688 9.242l-11.375 6.843c0-5.036.622-9.805 1.866-14.308a937.817 937.817 0 0 0 3.821-13.774c1.303-4.68 1.955-9.657 1.955-14.93 0-7.05-1.185-12.56-3.555-16.529-2.31-3.969-5.361-5.954-9.153-5.954-1.303 0-2.222.444-2.755 1.333-.474.829-.711 2.992-.711 6.487v3.466c0 8.057-.977 14.93-2.932 20.617-1.896 5.688-4.888 10.664-8.976 14.93-4.088 4.206-9.42 8.176-15.996 11.908-4.621 2.607-8.235 5.006-10.842 7.198-2.547 2.133-4.325 4.444-5.332 6.932-1.007 2.429-1.511 5.391-1.511 8.887-5.746 1.895-11.819 3.199-18.217 3.91-6.339.711-12.323 1.125-17.951 1.244v58.919h19.639c3.496 0 7.11.563 10.842 1.688 3.732 1.126 8.916 3.674 15.552 7.643l3.554 2.133c9.539 5.746 20.706 8.62 33.503 8.62 2.903 0 5.954-.089 9.154-.267 3.199-.177 6.487-.414 9.864-.711l11.197 8.532c-6.102.829-11.76 1.392-16.973 1.688-5.214.356-9.628.533-13.242.533Zm39.013.622-16.085-2.044c-4.68-.592-8.413-2.458-11.197-5.598-2.725-3.14-4.088-7.08-4.088-11.82 0-4.502 1.214-8.205 3.643-11.108 2.43-2.962 5.718-4.828 9.865-5.599l15.551 9.509h-11.108c-2.784 0-4.858.563-6.221 1.689-1.303 1.185-1.955 3.021-1.955 5.509 0 4.503 2.252 7.051 6.754 7.643l18.84 2.488c1.777.237 3.259-.533 4.443-2.31 1.185-1.778 1.778-4.147 1.778-7.11 0-3.969-1.452-6.398-4.355-7.287l11.109-4.799c2.606 2.963 3.91 6.991 3.91 12.086 0 5.688-1.511 10.309-4.532 13.864-3.022 3.614-6.843 5.421-11.464 5.421-.356 0-.83-.03-1.422-.089-.593-.06-1.748-.208-3.466-.445Zm-57.764-53.409-3.554-9.153c5.687-1.659 10.693-4.177 15.018-7.554 4.325-3.436 7.761-7.494 10.309-12.175 2.607-4.739 4.147-9.894 4.621-15.463l8.976 5.955c-1.185 6.042-3.377 11.611-6.577 16.707-3.14 5.035-7.139 9.419-11.997 13.152-4.858 3.732-10.456 6.576-16.796 8.531Zm70.028 30.215-23.994-2.933c-5.688-.711-10.102-2.784-13.242-6.22-3.08-3.437-4.621-7.969-4.621-13.597 0-5.628 2.074-10.131 6.221-13.508 4.147-3.436 9.479-5.154 15.996-5.154h19.729c7.405 0 13.122 1.807 17.151 5.421 4.088 3.614 6.132 8.738 6.132 15.374 0 6.872-2.133 12.234-6.399 16.085-4.265 3.851-9.923 5.361-16.973 4.532Zm1.244-9.775c3.732.414 6.576-.267 8.531-2.044 1.955-1.837 2.933-4.77 2.933-8.798 0-3.851-1.007-6.636-3.022-8.354-1.955-1.777-5.213-2.666-9.775-2.666h-19.729c-3.851 0-6.872.8-9.064 2.4-2.133 1.54-3.199 3.702-3.199 6.487 0 3.081.74 5.421 2.221 7.02 1.481 1.6 3.851 2.607 7.11 3.022l23.994 2.933Zm-23.55-21.862c-6.221 0-11.286-1.807-15.196-5.421-3.91-3.614-5.865-8.146-5.865-13.596 0-5.51 1.718-9.924 5.154-13.242 3.495-3.317 8.442-5.332 14.841-6.042l26.127-2.844c7.05-.77 12.619.681 16.707 4.354 4.088 3.614 6.131 8.887 6.131 15.819 0 6.694-2.043 11.878-6.131 15.551-4.029 3.614-9.598 5.421-16.707 5.421h-25.061Zm.178-9.775h25.06c3.97 0 6.962-.918 8.976-2.755 2.014-1.837 3.021-4.651 3.021-8.442 0-7.761-3.702-11.227-11.108-10.398l-26.127 2.844c-4.029.415-6.932 1.392-8.709 2.933-1.718 1.54-2.577 3.732-2.577 6.576 0 2.725 1.007 4.947 3.021 6.665 2.015 1.718 4.829 2.577 8.443 2.577Zm1.244-19.551c-8.531 1.126-15.433.119-20.706-3.021-5.273-3.14-7.909-8.265-7.909-15.374 0-5.925 1.984-10.516 5.954-13.775 4.028-3.258 9.983-5.45 17.862-6.576l19.551-2.755c6.991-1.007 12.589.326 16.796 3.999 4.265 3.614 6.398 8.857 6.398 15.73 0 5.095-1.244 9.301-3.732 12.619-2.429 3.317-5.954 5.302-10.575 5.954l-23.639 3.199Zm-1.511-9.598 23.728-3.288c1.718-.237 2.992-1.155 3.821-2.755.829-1.658 1.244-3.702 1.244-6.131 0-7.761-3.851-11.079-11.553-9.953l-19.55 2.754c-5.095.711-8.887 1.807-11.375 3.288-2.429 1.482-3.644 3.911-3.644 7.288 0 3.791 1.452 6.398 4.355 7.82 2.962 1.422 7.287 1.748 12.974.977Zm187.066 94.289c-13.508 0-26.009-2.341-37.502-7.021-11.435-4.621-21.388-11.138-29.86-19.551-8.472-8.413-15.078-18.277-19.817-29.593-4.68-11.375-7.021-23.757-7.021-37.146s2.341-25.742 7.021-37.058c4.739-11.375 11.345-21.269 19.817-29.681 8.472-8.413 18.425-14.93 29.86-19.551 11.493-4.68 23.994-7.021 37.502-7.021 13.152 0 25.356 2.252 36.613 6.754 11.316 4.444 21.121 10.635 29.415 18.574l-5.865 8.62c-7.465-7.584-16.322-13.508-26.572-17.774-10.249-4.265-21.446-6.398-33.591-6.398-11.968 0-23.047 2.103-33.237 6.309-10.131 4.148-18.958 9.983-26.482 17.507-7.524 7.465-13.389 16.293-17.596 26.483-4.147 10.131-6.221 21.209-6.221 33.236 0 11.967 2.074 23.046 6.221 33.236 4.207 10.19 10.042 19.047 17.507 26.572 7.524 7.464 16.381 13.27 26.571 17.418 10.19 4.206 21.269 6.309 33.237 6.309 12.026 0 23.105-2.103 33.236-6.309 10.19-4.148 19.018-9.954 26.482-17.418 7.524-7.525 13.36-16.382 17.507-26.572 4.207-10.19 6.31-21.269 6.31-33.236 0-1.896-.059-3.821-.178-5.776a142.541 142.541 0 0 0-.533-6.31l10.397-3.288c.297 2.784.533 5.421.711 7.909.178 2.488.267 4.977.267 7.465 0 13.389-2.37 25.771-7.11 37.146-4.68 11.316-11.256 21.18-19.728 29.593-8.472 8.413-18.455 14.93-29.948 19.551-11.435 4.68-23.906 7.021-37.413 7.021Zm-44.789-101.398-6.754-5.865c5.746-8.591 12.797-12.886 21.15-12.886 8.294 0 15.344 4.295 21.15 12.886l-6.753 5.865c-3.911-6.102-8.709-9.153-14.397-9.153-5.628 0-10.427 3.051-14.396 9.153Zm60.785 0-6.754-5.865c5.806-8.591 12.856-12.886 21.15-12.886 8.354 0 15.404 4.295 21.151 12.886l-6.754 5.865c-3.97-6.102-8.769-9.153-14.397-9.153-5.687 0-10.486 3.051-14.396 9.153Zm62.562-11.642c5.865 0 10.368-1.421 13.508-4.265 3.199-2.903 4.799-7.021 4.799-12.353 0-3.258-.652-6.635-1.955-10.131-1.304-3.554-3.496-7.672-6.576-12.352l-9.776-15.019-9.775 15.019c-3.081 4.68-5.273 8.798-6.576 12.352-1.304 3.496-1.955 6.873-1.955 10.131 0 5.332 1.57 9.45 4.71 12.353 3.199 2.844 7.731 4.265 13.596 4.265Zm0 8.887c-8.235 0-14.841-2.31-19.817-6.931-4.917-4.681-7.376-10.872-7.376-18.574 0-4.147.8-8.412 2.399-12.797 1.6-4.384 4.118-9.242 7.554-14.574l17.24-26.393 17.24 26.393c3.496 5.332 6.014 10.19 7.554 14.574 1.6 4.385 2.4 8.65 2.4 12.797 0 7.702-2.489 13.893-7.465 18.574-4.918 4.621-11.494 6.931-19.729 6.931Zm-78.558 68.428c8.886 0 17.181-1.6 24.882-4.799-8.472-4.917-16.766-7.376-24.882-7.376-8.117 0-16.411 2.459-24.883 7.376 7.702 3.199 15.996 4.799 24.883 4.799Zm0 6.221c-7.702 0-15.256-1.245-22.662-3.733-7.346-2.488-13.981-5.806-19.906-9.953-5.924-4.206-10.664-8.827-14.219-13.863-3.495-5.036-5.243-10.101-5.243-15.197 0-3.139.711-5.332 2.133-6.576 1.422-1.303 3.318-1.955 5.688-1.955 1.481 0 3.347.178 5.598.533 2.311.356 4.947.83 7.909 1.422 5.273 1.007 11.405 1.985 18.396 2.933 6.991.889 14.426 1.333 22.306 1.333 7.938 0 15.403-.444 22.394-1.333 6.991-.948 13.093-1.926 18.307-2.933a199.612 199.612 0 0 1 7.82-1.422c2.311-.355 4.206-.533 5.688-.533 2.369 0 4.265.652 5.687 1.955 1.422 1.244 2.133 3.437 2.133 6.576 0 5.096-1.777 10.161-5.332 15.197-3.496 5.036-8.206 9.657-14.13 13.863-5.924 4.147-12.59 7.465-19.995 9.953-7.346 2.488-14.871 3.733-22.572 3.733Zm0-29.949c5.569 0 11.523-.207 17.862-.622a259.312 259.312 0 0 0 19.018-2.133c6.339-1.007 12.263-2.251 17.773-3.732v-6.31c0-.888-.356-1.451-1.066-1.688a3.567 3.567 0 0 0-2.222-.178c-5.036 1.185-10.605 2.222-16.707 3.111a314.066 314.066 0 0 1-18.129 1.955c-5.984.474-11.494.711-16.529.711-4.977 0-10.487-.237-16.53-.711a314.066 314.066 0 0 1-18.129-1.955c-6.043-.889-11.612-1.926-16.707-3.111a3.564 3.564 0 0 0-2.221.178c-.711.237-1.067.8-1.067 1.688v6.31c5.51 1.481 11.435 2.725 17.774 3.732a259.224 259.224 0 0 0 19.017 2.133c6.399.415 12.353.622 17.863.622Zm246.962 59.453c-4.86 0-9.66-.948-14.4-2.844-4.68-1.837-9.24-4.918-13.68-9.242l-61.943-60.341c-2.014-1.955-3.495-4.118-4.443-6.488-.948-2.429-1.422-4.65-1.422-6.665 0-4.206 1.57-7.82 4.71-10.841 3.199-3.022 7.018-4.533 11.468-4.533 4.08 0 7.67 1.511 10.75 4.533l-5.78 6.398c-1.48-1.363-3.17-2.044-5.06-2.044-1.84 0-3.29.563-4.36 1.689-1.005 1.125-1.508 2.666-1.508 4.621 0 .888.207 1.866.622 2.932.416 1.067 1.186 2.163 2.306 3.288l61.94 60.341c7.11 6.932 14.31 10.398 21.6 10.398 4.09 0 8.35-1.096 12.8-3.288 4.44-2.192 8.76-5.125 12.97-8.798 4.21-3.614 8-7.672 11.38-12.175 3.37-4.562 6.04-9.213 7.99-13.952 2.02-4.74 3.03-9.242 3.03-13.508 0-6.102-1.57-12.738-4.71-19.906l-2.49-5.688c-4.39-10.071-7.68-18.632-9.87-25.682-2.19-7.11-3.29-13.123-3.29-18.04 0-1.778.24-3.644.72-5.599.47-1.955.71-3.407.71-4.355 0-.888-.36-1.658-1.07-2.31-.65-.652-1.45-.978-2.4-.978-2.84 0-5.3 1.333-7.38 3.999-2.07 2.607-3.11 5.51-3.11 8.709 0 1.541.12 3.318.36 5.332.3 1.955.71 4.236 1.24 6.843a82.42 82.42 0 0 1 1.07 5.777c.24 1.658.36 2.991.36 3.999 0 2.429-.66 4.324-1.96 5.687-1.3 1.303-2.81 1.955-4.53 1.955-1.84 0-3.53-.77-5.07-2.31l-46.92-46.922c-1.36-1.363-2.96-2.044-4.8-2.044-1.83 0-3.46.651-4.89 1.955-1.42 1.303-2.13 2.903-2.13 4.799 0 1.955.71 3.643 2.13 5.065l-6.39 6.221c-3.08-3.081-4.62-6.813-4.62-11.197 0-4.325 1.54-8.028 4.62-11.109 3.08-3.081 6.78-4.621 11.1-4.621 4.33 0 8.06 1.57 11.2 4.71l42.75 42.745c-.77-2.962-1.34-5.747-1.69-8.353-.36-2.607-.53-5.036-.53-7.288 0-4.206.82-8.027 2.48-11.463 1.66-3.496 3.94-6.251 6.85-8.265 2.9-2.074 6.25-3.11 10.04-3.11 3.38 0 6.22 1.185 8.53 3.554 2.37 2.37 3.55 5.303 3.55 8.798 0 1.659-.2 3.111-.62 4.355-.35 1.185-.53 2.962-.53 5.332 0 4.265 1.01 9.686 3.02 16.262 2.02 6.517 5.1 14.515 9.24 23.995l2.49 5.687c3.62 8.294 5.42 16.085 5.42 23.372 0 5.391-1.18 10.931-3.55 16.618-2.31 5.629-5.45 11.049-9.42 16.263a82.398 82.398 0 0 1-13.51 14.13c-4.98 4.206-10.16 7.524-15.55 9.953-5.39 2.429-10.67 3.644-15.82 3.644Zm-49.85-64.696-37.774-37.768c-3.139-3.14-4.709-6.843-4.709-11.109 0-4.206 1.54-7.879 4.621-11.019 3.082-3.14 6.782-4.71 11.112-4.71 4.32 0 8.02 1.51 11.1 4.532l-6.22 6.398c-1.36-1.362-3.02-2.044-4.97-2.044-2.02 0-3.68.711-4.98 2.133-1.24 1.422-1.87 2.992-1.87 4.71 0 1.837.72 3.466 2.14 4.888l37.77 37.769-6.22 6.22Zm15.99-15.996-49.32-49.143c-3.199-3.14-4.799-6.902-4.799-11.287 0-4.443 1.6-8.175 4.799-11.197 3.26-3.081 6.96-4.621 11.11-4.621 4.26 0 7.97 1.57 11.11 4.71l49.23 49.41-6.22 6.221-49.41-49.41c-1.31-1.304-2.88-1.955-4.71-1.955-1.84 0-3.47.681-4.89 2.044-1.36 1.303-2.04 2.903-2.04 4.798 0 1.896.68 3.525 2.04 4.888l49.32 49.321-6.22 6.221Zm34.13 80.603.44-8.443c7.58 0 14.96-1.214 22.13-3.643 7.17-2.429 13.62-5.866 19.37-10.309 5.75-4.443 10.31-9.657 13.69-15.641 3.43-5.983 5.15-12.53 5.15-19.639 0-1.718-.12-4.266-.35-7.643-.24-3.436-.48-7.05-.72-10.842-.17-3.85-.26-7.198-.26-10.042 0-8.294.53-15.225 1.6-20.794 1.12-5.569 2.78-10.102 4.97-13.597.36-.593.66-1.215.89-1.866.3-.652.45-1.333.45-2.044 0-.83-.48-1.541-1.42-2.133-.89-.652-2.02-.978-3.38-.978-3.97 0-6.99 1.481-9.07 4.444-2.07 2.962-3.7 8.264-4.88 15.907l-2.05 13.33-8.53-3.999c1.3-13.389 3.94-23.165 7.91-29.326 4.03-6.162 9.63-9.242 16.8-9.242 4.38 0 7.88 1.125 10.48 3.377 2.61 2.251 3.91 5.213 3.91 8.886 0 1.481-.23 2.903-.71 4.266-.41 1.363-1.09 2.755-2.04 4.177-1.72 2.666-3.02 6.398-3.91 11.197-.83 4.74-1.25 10.605-1.25 17.596 0 2.073.06 4.532.18 7.376.18 2.784.33 5.628.45 8.531.17 2.844.32 5.45.44 7.82.18 2.311.27 4.029.27 5.155 0 8.531-1.99 16.351-5.96 23.46-3.91 7.051-9.21 13.153-15.9 18.307-6.7 5.214-14.25 9.242-22.67 12.086-8.41 2.844-17.09 4.266-26.03 4.266Zm-7.11-121.482-17.6-36.791c-1.18-2.607-3.23-3.91-6.13-3.91-2.02 0-3.67.741-4.98 2.222-1.3 1.481-1.95 3.258-1.95 5.332l-8.44-4.266c.82-3.555 2.69-6.458 5.59-8.709 2.91-2.31 6.19-3.466 9.87-3.466 2.96 0 5.69.8 8.17 2.4 2.55 1.599 4.51 3.821 5.87 6.665l21.5 44.789-11.9-4.266Zm17.41-14.929-7.46-15.997c-1.3-2.725-3.35-4.087-6.13-4.087-2.02 0-3.68.651-4.98 1.955-1.24 1.303-1.86 2.903-1.86 4.798 0 1.008.23 2.074.71 3.2l-8 3.554c-1.01-2.31-1.51-4.591-1.51-6.842 0-4.148 1.45-7.761 4.35-10.842 2.9-3.14 6.61-4.71 11.11-4.71 2.96 0 5.75.8 8.35 2.399 2.61 1.6 4.6 3.881 5.96 6.843l7.46 15.996-8 3.733Zm7.65-26.394-1.96-23.017 8.89-.711 1.95 23.017-8.88.711Zm35.9 18.04-3.02-8.354 21.68-7.909 3.02 8.354-21.68 7.909Zm-7.47-16.707-7.9-4.177 10.93-20.439 7.91 4.177-10.94 20.439Zm175.16 161.561c-13.51 0-26.01-2.341-37.5-7.021-11.43-4.621-21.39-11.138-29.86-19.551-8.47-8.413-15.08-18.277-19.82-29.593-4.68-11.375-7.02-23.757-7.02-37.146s2.34-25.742 7.02-37.058c4.74-11.375 11.35-21.269 19.82-29.681 8.47-8.413 18.43-14.93 29.86-19.551 11.49-4.68 23.99-7.021 37.5-7.021 13.51 0 25.98 2.341 37.42 7.021 11.49 4.621 21.47 11.138 29.94 19.551 8.48 8.412 15.05 18.306 19.73 29.681 4.74 11.316 7.11 23.669 7.11 37.058s-2.37 25.771-7.11 37.146c-4.68 11.316-11.25 21.18-19.73 29.593-8.47 8.413-18.45 14.93-29.94 19.551-11.44 4.68-23.91 7.021-37.42 7.021Zm-26.66-35.814v-41.945h-7.11v41.945h7.11Zm23.11 5.332h7.11v-43.634h-7.11v43.634Zm3.55 5.243c7.94 0 15.76-1.362 23.46-4.088 7.7-2.666 14.67-6.25 20.89-10.753 6.28-4.561 11.25-9.656 14.93-15.285 3.73-5.628 5.6-11.375 5.6-17.24 0-3.851-1.16-6.843-3.47-8.976-2.25-2.132-5.36-3.199-9.33-3.199-2.73 0-6.81.563-12.27 1.689-5.45 1.066-11.67 2.162-18.66 3.288a138.914 138.914 0 0 1-21.15 1.599c-7.17 0-14.25-.533-21.24-1.599-6.93-1.126-13.12-2.222-18.57-3.288-5.45-1.126-9.54-1.689-12.26-1.689-3.97 0-7.11 1.067-9.42 3.199-2.26 2.133-3.38 5.125-3.38 8.976 0 5.865 1.84 11.612 5.51 17.24 3.73 5.629 8.71 10.724 14.93 15.285 6.28 4.503 13.27 8.087 20.97 10.753 7.7 2.726 15.52 4.088 23.46 4.088Zm0-8.886c-6.69 0-13.36-1.126-19.99-3.377-6.64-2.311-12.68-5.332-18.13-9.065-5.39-3.732-9.72-7.879-12.98-12.441-3.26-4.562-4.88-9.094-4.88-13.597 0-1.244.23-2.103.71-2.577.53-.474 1.6-.711 3.2-.711 2.54 0 5.77.326 9.68.977 3.91.652 8.21 1.422 12.89 2.311 4.74.889 9.63 1.659 14.66 2.311 5.1.651 10.04.977 14.84.977 4.86 0 9.81-.326 14.84-.977 5.04-.652 9.9-1.422 14.58-2.311 4.74-.889 9.06-1.659 12.97-2.311 3.91-.651 7.14-.977 9.69-.977 1.6 0 2.63.237 3.11.711.53.474.8 1.333.8 2.577 0 4.503-1.63 9.035-4.89 13.597-3.26 4.562-7.61 8.709-13.06 12.441-5.39 3.733-11.41 6.754-18.04 9.065-6.64 2.251-13.3 3.377-20 3.377Zm0-14.664c21.09 0 42.21-5.213 63.36-15.64l-3.19-6.399c-20.21 10.013-40.26 15.019-60.17 15.019-19.9 0-39.96-5.006-60.16-15.019l-3.2 6.399c21.15 10.427 42.27 15.64 63.36 15.64Zm-41.5-52.342-9.6-1.778c1.19-5.924 3.5-10.516 6.94-13.774 3.43-3.318 7.76-4.977 12.97-4.977 5.27 0 9.63 1.659 13.06 4.977 3.44 3.258 5.72 7.85 6.85 13.774l-9.6 1.778c-1.42-7.169-4.86-10.753-10.31-10.753s-8.89 3.584-10.31 10.753Zm68.16 65.317h7.11v-41.945h-7.11v41.945Zm-26.66 26.038c12.03 0 23.11-2.103 33.24-6.309 10.19-4.148 19.02-9.954 26.48-17.418 7.52-7.525 13.36-16.382 17.51-26.572 4.2-10.19 6.31-21.269 6.31-33.236 0-12.027-2.11-23.105-6.31-33.236-4.15-10.19-9.99-19.018-17.51-26.483-7.46-7.524-16.29-13.359-26.48-17.507-10.13-4.206-21.21-6.309-33.24-6.309-11.97 0-23.04 2.103-33.23 6.309-10.14 4.148-18.96 9.983-26.49 17.507-7.52 7.465-13.39 16.293-17.59 26.483-4.15 10.131-6.22 21.209-6.22 33.236 0 11.967 2.07 23.046 6.22 33.236 4.2 10.19 10.04 19.047 17.5 26.572 7.53 7.464 16.39 13.27 26.58 17.418 10.19 4.206 21.26 6.309 33.23 6.309Zm20.89-91.355-9.6-1.778c1.18-5.924 3.49-10.516 6.93-13.774 3.44-3.318 7.76-4.977 12.97-4.977 5.28 0 9.63 1.659 13.07 4.977 3.43 3.258 5.72 7.85 6.84 13.774l-9.6 1.778c-1.42-7.169-4.86-10.753-10.31-10.753s-8.88 3.584-10.3 10.753Zm210.17 101.131c-10.43 0-20.03-1.896-28.8-5.688-8.76-3.792-16.38-9.064-22.84-15.818-6.45-6.754-11.46-14.663-15.01-23.728-3.56-9.124-5.34-18.958-5.34-29.504 0-9.005 1.28-17.447 3.83-25.327 2.6-7.939 6.16-14.782 10.66-20.528 4.56-5.806 9.75-9.953 15.55-12.442-.47 1.837-1.07 4.681-1.78 8.532-.65 3.85-.97 7.109-.97 9.775 0 4.147.5 7.909 1.51 11.286 1.06 3.377 2.46 5.984 4.17 7.82 0-5.865.98-11.019 2.94-15.462 2.01-4.444 4.47-8.502 7.37-12.175 2.96-3.733 5.9-7.406 8.8-11.02a59.556 59.556 0 0 0 7.29-11.553c2.01-4.147 3.02-8.886 3.02-14.218 0-4.562-.86-8.739-2.58-12.531-1.72-3.85-4.26-7.613-7.64-11.286a16.58 16.58 0 0 1 5.06-2.044c1.9-.474 4.03-.711 6.4-.711 6.22 0 12.09 1.452 17.6 4.355 5.51 2.844 10.34 6.843 14.48 11.997 4.21 5.095 7.5 11.02 9.87 17.773 2.37 6.754 3.55 14.012 3.55 21.773 0 6.161-.56 11.375-1.69 15.641-1.06 4.206-1.59 7.968-1.59 11.286 0 3.851 1 6.931 3.02 9.242 2.01 2.251 4.56 3.377 7.64 3.377 2.72 0 5.15-1.037 7.29-3.111 2.19-2.073 3.76-4.828 4.71-8.264 2.96 2.251 5.59 5.45 7.91 9.597 2.37 4.088 4.2 8.68 5.51 13.775a59.71 59.71 0 0 1 2.04 15.463c0 8.768-1.9 17.003-5.69 24.705-3.73 7.642-8.91 14.396-15.55 20.262-6.64 5.865-14.31 10.456-23.02 13.774-8.65 3.318-17.89 4.977-27.72 4.977Zm0-12.264c6.51 0 12.47-1.215 17.86-3.644 5.39-2.429 9.69-5.835 12.88-10.219 3.2-4.385 4.8-9.45 4.8-15.197 0-4.562-.91-8.59-2.75-12.086a47.975 47.975 0 0 0-6.84-9.775c-2.67-3.081-5.37-6.221-8.09-9.42a49.01 49.01 0 0 1-6.84-10.753c-1.84-3.969-2.76-8.62-2.76-13.952 0-2.607.21-5.569.62-8.887.48-3.317 1.1-6.487 1.87-9.509.77-3.08 1.57-5.45 2.4-7.109-6.34 3.259-11.94 7.346-16.8 12.264-4.85 4.858-8.65 10.101-11.37 15.729-2.73 5.569-4.09 11.049-4.09 16.441 0 3.377.44 6.25 1.33 8.62.89 2.37 1.78 4.473 2.67 6.309.89 1.778 1.33 3.525 1.33 5.244 0 1.421-.41 2.636-1.24 3.643-.83 1.007-2.16 1.511-4 1.511-2.55 0-4.65-1.126-6.31-3.377-1.6-2.311-2.52-5.54-2.76-9.687-1.18 1.126-2.37 2.992-3.55 5.599-1.13 2.607-2.07 5.51-2.84 8.709-.71 3.14-1.07 6.161-1.07 9.064 0 5.806 1.54 11.02 4.62 15.641s7.29 8.235 12.62 10.842c5.39 2.666 11.49 3.999 18.31 3.999Zm231.05 12.264c23.34-17.833 42.48-34.362 57.41-49.588 14.93-15.226 25.98-29.741 33.15-43.545 7.17-13.804 10.75-27.46 10.75-40.968 0-7.524-1.3-14.485-3.91-20.884-2.55-6.398-6.16-11.967-10.84-16.707-4.62-4.739-10.1-8.413-16.44-11.019-6.34-2.607-13.24-3.911-20.71-3.911-7.11 0-13.89 1.304-20.35 3.911-6.46 2.547-12.2 6.131-17.24 10.753a52.17 52.17 0 0 0-11.82 16.173c-2.84-6.161-6.78-11.552-11.82-16.173-5.03-4.622-10.78-8.206-17.24-10.753-6.46-2.607-13.24-3.911-20.35-3.911-7.46 0-14.37 1.304-20.7 3.911-6.34 2.606-11.85 6.28-16.53 11.019-4.63 4.74-8.24 10.309-10.85 16.707-2.54 6.399-3.82 13.36-3.82 20.884 0 13.508 3.59 27.164 10.76 40.968 7.16 13.804 18.21 28.319 33.14 43.545 14.93 15.226 34.07 31.755 57.41 49.588Zm-23.19-96.866-5.07-24.794c-.12-.651-.62-.977-1.51-.977-.83-.059-1.3.266-1.42.977l-5.07 24.794c-.77 3.792-2.34 7.11-4.71 9.953-2.31 2.844-5.33 4.858-9.06 6.043l-11.55 3.733c-.77.237-1.16.8-1.16 1.688 0 .83.39 1.393 1.16 1.689l11.64 3.999c3.67 1.244 6.66 3.258 8.97 6.043 2.37 2.784 3.94 6.072 4.71 9.864l4.62 22.395 3.47 1.777 4.98-24.172c.83-3.792 2.43-7.08 4.8-9.864 2.37-2.785 5.36-4.799 8.97-6.043l11.55-3.999c.83-.296 1.25-.889 1.25-1.778 0-.888-.42-1.451-1.25-1.688l-11.55-3.732c-3.73-1.185-6.75-3.17-9.06-5.955-2.31-2.843-3.88-6.161-4.71-9.953Zm38.03 45.145c-1.48 0-2.75-.504-3.82-1.511-1.01-1.066-1.51-2.34-1.51-3.821 0-1.481.5-2.725 1.51-3.733 1.07-1.066 2.34-1.599 3.82-1.599s2.73.533 3.73 1.599c1.07 1.008 1.6 2.252 1.6 3.733 0 1.481-.53 2.755-1.6 3.821-1 1.007-2.25 1.511-3.73 1.511Zm-79.09-69.317c0 1.778-.5 3.2-1.51 4.266-1.01 1.007-2.28 1.511-3.82 1.511-2.13 0-3.56-.682-4.27-2.044-.71-1.363-1.06-2.992-1.06-4.888 0-5.865.97-11.345 2.93-16.44 1.95-5.155 4.68-9.598 8.17-13.33 3.5-3.792 7.5-6.517 12-8.176 2.19-.83 4-.711 5.42.355 1.48 1.007 2.22 2.518 2.22 4.533 0 2.429-1 3.999-3.02 4.709-5.21 1.896-9.36 5.599-12.44 11.109-3.08 5.45-4.62 11.582-4.62 18.395Zm64.25 107.707c-20.26-15.581-37.12-30.244-50.56-43.989-13.39-13.804-23.44-27.015-30.13-39.635-6.64-12.678-9.95-25.06-9.95-37.146 0-8.057 1.74-15.226 5.24-21.506 3.55-6.339 8.44-11.316 14.66-14.93 6.22-3.614 13.33-5.421 21.33-5.421 8.18 0 15.32 1.659 21.42 4.977 6.1 3.259 11.43 7.82 15.99 13.686 4.57 5.806 8.57 12.53 12 20.172 3.5-7.642 7.5-14.366 12-20.172 4.56-5.866 9.89-10.427 15.99-13.686 6.17-3.318 13.31-4.977 21.42-4.977 8.06 0 15.17 1.807 21.33 5.421 6.22 3.614 11.08 8.591 14.57 14.93 3.56 6.28 5.34 13.449 5.34 21.506 0 12.086-3.35 24.468-10.05 37.146-6.63 12.62-16.67 25.831-30.12 39.635-13.39 13.745-30.22 28.408-50.48 43.989Zm38.57-54.564-10.31-10.22 10.31-10.308 10.22 10.308-10.22 10.22Zm-18.4-48.255c-1.71 0-3.19-.622-4.44-1.866-1.24-1.244-1.87-2.755-1.87-4.532 0-1.718.63-3.2 1.87-4.444 1.25-1.244 2.73-1.866 4.44-1.866 1.72 0 3.2.622 4.45 1.866 1.24 1.244 1.86 2.726 1.86 4.444 0 1.777-.62 3.288-1.86 4.532-1.25 1.244-2.73 1.866-4.45 1.866Zm29.42 1.955c.12.652.56.978 1.33.978s1.22-.326 1.34-.978l3.02-16.174c.53-2.962 1.66-5.361 3.37-7.198 1.72-1.896 4.39-3.466 8-4.71l9.42-3.199c.65-.237.98-.652.98-1.244 0-.652-.33-1.096-.98-1.333l-8.62-2.755c-4.5-1.481-7.37-3.17-8.62-5.066-1.24-1.955-2.25-4.709-3.02-8.264l-3.29-15.108h-3.11l-2.4 15.463c-.41 2.903-1.54 5.362-3.37 7.376-1.84 2.015-4.15 3.555-6.94 4.621l-9.86 3.822c-.65.237-1.01.651-1.07 1.244 0 .592.36 1.007 1.07 1.244l9.95 3.199c2.79.889 5.07 2.37 6.85 4.444 1.77 2.014 2.9 4.502 3.37 7.464l2.58 16.174Z" fill="#3C4043"/></g><defs><clipPath id="a"><path fill="#fff" d="M0 0h1920v1080H0z"/></clipPath></defs></svg>