<svg width="1920" height="1080" fill="none" xmlns="http://www.w3.org/2000/svg"><path d="m820.127 733.976-1.216 4.352c-3.286.405-5.91.832-7.872 1.28-1.963.427-3.456.907-4.48 1.44-1.003.533-1.675 1.141-2.016 1.824-.32.683-.48 1.472-.48 2.368 0 1.515.426 2.635 1.28 3.36.853.725 2.208 1.088 4.064 1.088 1.344 0 2.549-.213 3.616-.64 1.066-.448 1.909-1.067 2.528-1.856a4.2 4.2 0 0 0 .928-2.656v-11.712c0-2.347-.502-4.053-1.504-5.12-1.003-1.088-2.784-1.632-5.344-1.632-1.344 0-2.518.053-3.52.16a20.634 20.634 0 0 0-2.784.416l2.304-2.432a28.201 28.201 0 0 1-.608 2.336 54.153 54.153 0 0 1-.576 1.92 19.22 19.22 0 0 1-.672 1.728c-.363.875-.875 1.44-1.536 1.696-.64.235-1.494.352-2.56.352-1.366 0-2.4-.256-3.104-.768-.704-.512-1.056-1.141-1.056-1.888 0-.789.394-1.643 1.184-2.56.81-.939 1.952-1.835 3.424-2.688 1.493-.875 3.253-1.579 5.28-2.112 2.048-.555 4.32-.832 6.816-.832 3.05 0 5.472.427 7.264 1.28 1.792.832 3.082 2.016 3.872 3.552.789 1.536 1.184 3.371 1.184 5.504v14.912c0 .811.128 1.461.384 1.952.256.469.629.811 1.12 1.024.512.213 1.141.32 1.888.32.448 0 .928-.032 1.44-.096.512-.064 1.056-.16 1.632-.288v3.232a12.605 12.605 0 0 1-3.584 2.08c-1.28.469-2.55.704-3.808.704-1.451 0-2.688-.32-3.712-.96-1.024-.661-1.814-1.685-2.368-3.072-.555-1.387-.886-3.168-.992-5.344l.32-.096c-.342 2.069-.982 3.829-1.92 5.28a8.759 8.759 0 0 1-3.648 3.232c-1.494.725-3.275 1.088-5.344 1.088-3.35 0-5.931-.768-7.744-2.304-1.792-1.536-2.688-3.755-2.688-6.656 0-1.643.32-3.104.96-4.384.64-1.301 1.813-2.453 3.52-3.456 1.728-1.024 4.213-1.931 7.456-2.72 3.242-.811 7.466-1.547 12.672-2.208Zm27.47-5.504v22.176l4.417 1.12V755h-17.568v-3.232l5.056-1.216V730.84a317.06 317.06 0 0 0-1.984-1.344 1982.8 1982.8 0 0 1-3.648-2.464v-1.728l9.952-4.032h1.568l2.207 7.2Zm10.561 23.296 4.384-1.12V734.2c0-1.344-.224-2.421-.672-3.232-.448-.832-1.174-1.44-2.176-1.824-1.003-.405-2.347-.608-4.032-.608-1.387 0-2.827.128-4.32.384a30.04 30.04 0 0 0-4.128.992l-.544-1.696c2.112-1.6 3.808-2.859 5.088-3.776 1.301-.939 2.378-1.621 3.232-2.048.853-.427 1.642-.693 2.368-.8.725-.128 1.578-.192 2.56-.192 3.69 0 6.4.885 8.128 2.656 1.749 1.749 2.624 4.331 2.624 7.744v18.752l5.088 1.216V755h-17.6v-3.232Zm48.401-18.048c0-2.325-.555-4.107-1.664-5.344-1.088-1.237-3.029-1.856-5.824-1.856-2.197 0-4.043.459-5.536 1.376-1.493.917-2.635 2.261-3.424 4.032-.768 1.771-1.152 3.957-1.152 6.56 0 2.517.373 4.587 1.12 6.208.768 1.6 1.888 2.784 3.36 3.552 1.493.747 3.349 1.12 5.568 1.12 1.728 0 3.435-.213 5.12-.64a28.28 28.28 0 0 0 5.152-1.856v1.344c-2.347 1.707-4.288 3.061-5.824 4.064-1.536 1.003-2.805 1.749-3.808 2.24-.981.491-1.813.811-2.496.96a9.3 9.3 0 0 1-1.984.224c-3.243 0-5.952-.64-8.128-1.92-2.155-1.28-3.787-3.104-4.896-5.472-1.088-2.389-1.632-5.216-1.632-8.48 0-2.837.469-5.387 1.408-7.648s2.251-4.192 3.936-5.792c1.685-1.621 3.669-2.859 5.952-3.712 2.283-.853 4.757-1.28 7.424-1.28 1.6 0 3.051.117 4.352.352 1.301.213 2.581.565 3.84 1.056 1.259.491 2.592 1.163 4 2.016l-4.864 1.248v-10.848a61.177 61.177 0 0 1-1.664-.608 89.08 89.08 0 0 0-2.72-.992l-2.368-.896v-2.848l13.696-2.432h1.856l-.672 7.2v32.192a277.222 277.222 0 0 1 2.656 1.504c.619.32 1.205.629 1.76.928a48.48 48.48 0 0 1 1.376.736v1.632l-9.952 4.064h-1.376l-2.592-7.072V733.72Zm47.019 10.752c0 1.877.491 3.189 1.472 3.936 1.003.725 2.624 1.088 4.864 1.088.96 0 2.005-.085 3.136-.256a48.288 48.288 0 0 0 3.616-.768v3.232c-1.963 1.024-3.648 1.835-5.056 2.432-1.387.576-2.613.981-3.68 1.216a13.844 13.844 0 0 1-3.04.352c-1.813 0-3.435-.288-4.864-.864-1.408-.597-2.517-1.493-3.328-2.688-.811-1.216-1.216-2.72-1.216-4.512v-19.744l-6.208-2.496v-2.368a53.631 53.631 0 0 0 3.04-1.088c.917-.384 1.76-.8 2.528-1.248a21.151 21.151 0 0 0 2.208-1.504 15.686 15.686 0 0 0 1.92-1.856 22.157 22.157 0 0 0 1.792-2.272h2.816v29.408Zm-3.2-16.768.192-5.6h15.392v5.6h-15.584Zm29.395-11.168c-1.835 0-3.275-.373-4.32-1.12-1.024-.768-1.536-1.92-1.536-3.456s.512-2.667 1.536-3.392c1.045-.747 2.485-1.12 4.32-1.12 1.835 0 3.264.373 4.288 1.12 1.045.725 1.568 1.856 1.568 3.392 0 1.536-.523 2.688-1.568 3.456-1.024.747-2.453 1.12-4.288 1.12Zm5.12 4.864-.512 8.096v21.056l4.8 1.216V755h-17.984v-3.232l5.056-1.216v-20.224a36.72 36.72 0 0 0-1.312-.768c-.64-.384-1.355-.8-2.144-1.248-.789-.469-1.515-.896-2.176-1.28v-2.24l11.872-3.392h2.4Zm22.637 7.072v22.176l4.42 1.12V755h-17.567v-3.232l5.056-1.216V730.84c-.341-.235-1.003-.683-1.984-1.344-.981-.661-2.197-1.483-3.648-2.464v-1.728l9.953-4.032h1.57l2.2 7.2Zm10.57 23.296 4.38-1.12V734.2c0-1.344-.22-2.421-.67-3.232-.45-.832-1.18-1.44-2.18-1.824-1-.405-2.35-.608-4.03-.608-1.39 0-2.83.128-4.32.384-1.49.256-2.87.587-4.13.992l-.54-1.696c2.11-1.6 3.81-2.859 5.09-3.776 1.3-.939 2.37-1.621 3.23-2.048.85-.427 1.64-.693 2.37-.8.72-.128 1.57-.192 2.56-.192 3.69 0 6.4.885 8.12 2.656 1.75 1.749 2.63 4.331 2.63 7.744v18.752l5.09 1.216V755h-17.6v-3.232Zm43.58-1.504-5.67 5.92-14.97-29.344-4.74-1.632v-3.104h18.46v3.104l-4.73 1.312 11.65 23.744Zm-15.84 19.616c-2.16 0-3.78-.448-4.87-1.344-1.09-.875-1.63-2.123-1.63-3.744 0-.704.12-1.333.35-1.888.24-.555.51-1.003.83-1.344.35-.32.63-.48.87-.48.32 0 .85.064 1.6.192.77.128 1.59.256 2.46.384.9.128 1.7.192 2.4.192 1.11 0 2.07-.235 2.88-.704.81-.448 1.57-1.173 2.27-2.176.73-.981 1.45-2.251 2.18-3.808l1.25-2.528.93-1.536 9.63-24.64-4.48-1.248v-3.104h14.21v3.104l-3.81 1.12-14.69 33.92c-.96 2.24-2.02 4.064-3.17 5.472-1.15 1.429-2.47 2.475-3.97 3.136-1.49.683-3.24 1.024-5.24 1.024Z" fill="#3C4043"/><path d="M296.526 434.521v184.016l31.248 4.991V627h-88.536v-3.472l31.899-4.991V424.756c-2.315-.868-6.076-2.17-11.284-3.906a3549.075 3549.075 0 0 0-22.568-8.029v-3.472l57.939-11.284h1.302v36.456Zm134.106 27.776v156.24l31.465 4.991V627h-88.319v-3.472l31.465-4.991v-149.73c0-11.429-1.519-20.687-4.557-27.776-3.038-7.089-8.029-12.297-14.973-15.624-6.799-3.327-16.058-4.991-27.776-4.991s-23.508 1.736-35.371 5.208c-11.718 3.472-21.772 7.74-30.163 12.803l-.868-3.906c9.982-7.089 18.734-12.803 26.257-17.143 7.667-4.34 14.539-7.74 20.615-10.199 6.221-2.604 12.08-4.34 17.577-5.208 5.642-1.013 11.429-1.519 17.36-1.519 14.033 0 25.244 2.242 33.635 6.727 8.391 4.34 14.394 11.067 18.011 20.181 3.761 9.114 5.642 20.76 5.642 34.937Zm134.106 4.34v151.9l31.465 4.991V627h-88.319v-3.472l31.465-4.991V472.93c0-13.599-1.591-24.159-4.774-31.682s-8.318-12.875-15.407-16.058-16.492-4.774-28.21-4.774c-11.863 0-23.942 1.808-36.239 5.425-12.152 3.617-22.423 8.029-30.814 13.237l-1.736-3.906c10.271-7.089 19.241-12.875 26.908-17.36 7.812-4.485 14.901-8.029 21.266-10.633 6.365-2.604 12.369-4.34 18.011-5.208 5.787-1.013 11.718-1.519 17.794-1.519 21.122 0 36.167 4.991 45.136 14.973 8.969 9.982 13.454 27.053 13.454 51.212Zm189.821 16.492.868 6.727c-25.027 7.812-44.991 15.045-59.892 21.7-14.756 6.51-25.895 12.875-33.418 19.096-7.378 6.221-12.297 12.514-14.756 18.879-2.315 6.365-3.472 13.309-3.472 20.832 0 13.454 4.051 24.087 12.152 31.899 8.101 7.812 18.662 11.718 31.682 11.718 10.416 0 19.892-2.098 28.427-6.293s15.335-10.199 20.398-18.011c5.208-7.957 7.812-17.288 7.812-27.993v-96.131c0-16.781-3.906-29.729-11.718-38.843-7.812-9.259-20.615-13.888-38.409-13.888-8.68 0-17.36.94-26.04 2.821-8.68 1.736-17.288 4.485-25.823 8.246l13.237-8.029c-.579 5.208-1.374 10.199-2.387 14.973-.868 4.629-1.881 8.68-3.038 12.152-1.013 3.472-2.17 6.004-3.472 7.595-1.591 1.881-3.906 3.4-6.944 4.557-3.038 1.013-6.076 1.519-9.114 1.519-4.195 0-7.45-.796-9.765-2.387-2.17-1.736-3.255-4.268-3.255-7.595 0-5.353 2.893-10.705 8.68-16.058 5.931-5.497 13.454-10.488 22.568-14.973 9.114-4.485 18.662-8.029 28.644-10.633 9.982-2.749 19.168-4.123 27.559-4.123 16.492 0 29.44 2.532 38.843 7.595 9.403 5.063 16.058 12.224 19.964 21.483 3.906 9.259 5.859 20.109 5.859 32.55V590.11c0 6.221.94 11.067 2.821 14.539 1.881 3.472 4.412 5.931 7.595 7.378s6.655 2.17 10.416 2.17c4.919 0 9.331-.579 13.237-1.736 4.051-1.302 8.897-3.617 14.539-6.944v3.906c-7.523 7.957-14.539 13.599-21.049 16.926-6.365 3.183-13.309 4.774-20.832 4.774-7.957 0-14.467-1.664-19.53-4.991-4.919-3.472-8.391-9.331-10.416-17.577-2.025-8.246-2.821-19.53-2.387-33.852l1.302-.651c-2.604 12.297-7.089 22.713-13.454 31.248s-14.105 15.045-23.219 19.53c-8.969 4.34-18.662 6.51-29.078 6.51-18.951 0-34.141-4.846-45.57-14.539-11.284-9.837-16.926-23.942-16.926-42.315 0-9.114 1.519-17.215 4.557-24.304 3.038-7.233 9.186-14.105 18.445-20.615 9.259-6.655 23.002-13.671 41.23-21.049 18.228-7.378 42.604-15.841 73.129-25.389Zm151.476-82.677c8.969 0 17.215 1.157 24.738 3.472 7.667 2.17 15.479 5.642 23.436 10.416l6.944 55.335h-4.557l-23.653-54.684 8.246 10.199c-6.076-6.221-12.152-10.705-18.228-13.454-6.076-2.893-12.875-4.34-20.398-4.34-15.769 0-27.848 3.834-36.239 11.501-8.246 7.523-12.369 17.432-12.369 29.729 0 6.799 1.302 12.948 3.906 18.445s7.812 10.85 15.624 16.058c7.812 5.063 19.385 10.344 34.72 15.841 11.573 4.195 21.194 8.608 28.861 13.237 7.667 4.629 13.671 9.62 18.011 14.973 4.485 5.353 7.667 11.212 9.548 17.577 1.881 6.221 2.821 13.092 2.821 20.615 0 12.441-3.4 23.653-10.199 33.635-6.655 9.982-15.769 17.866-27.342 23.653-11.573 5.787-24.81 8.68-39.711 8.68-10.127 0-19.53-.94-28.21-2.821-8.535-1.881-16.564-4.774-24.087-8.68l-12.803-63.147h4.557l29.295 61.845-6.727-8.897c3.183 2.749 6.944 5.208 11.284 7.378 4.485 2.17 9.403 3.834 14.756 4.991 5.353 1.157 10.995 1.736 16.926 1.736 15.335 0 27.921-4.412 37.758-13.237 9.837-8.969 14.756-20.687 14.756-35.154 0-6.221-.868-11.79-2.604-16.709-1.736-4.919-4.702-9.476-8.897-13.671-4.051-4.34-9.765-8.391-17.143-12.152-7.233-3.906-16.42-7.884-27.559-11.935-14.901-5.353-26.474-11.067-34.72-17.143-8.101-6.221-13.816-13.02-17.143-20.398-3.183-7.523-4.774-15.841-4.774-24.955 0-12.152 3.183-22.496 9.548-31.031 6.51-8.68 15.118-15.335 25.823-19.964 10.85-4.629 22.785-6.944 35.805-6.944Zm169.005 0c8.97 0 17.22 1.157 24.74 3.472 7.67 2.17 15.48 5.642 23.43 10.416l6.95 55.335h-4.56l-23.65-54.684 8.24 10.199c-6.07-6.221-12.15-10.705-18.22-13.454-6.08-2.893-12.88-4.34-20.4-4.34-15.77 0-27.85 3.834-36.24 11.501-8.25 7.523-12.37 17.432-12.37 29.729 0 6.799 1.3 12.948 3.91 18.445 2.6 5.497 7.81 10.85 15.62 16.058 7.81 5.063 19.39 10.344 34.72 15.841 11.57 4.195 21.19 8.608 28.86 13.237 7.67 4.629 13.67 9.62 18.01 14.973 4.49 5.353 7.67 11.212 9.55 17.577 1.88 6.221 2.82 13.092 2.82 20.615 0 12.441-3.4 23.653-10.2 33.635-6.65 9.982-15.77 17.866-27.34 23.653-11.57 5.787-24.81 8.68-39.71 8.68-10.13 0-19.53-.94-28.21-2.821-8.54-1.881-16.56-4.774-24.09-8.68l-12.8-63.147h4.557l29.293 61.845-6.73-8.897c3.19 2.749 6.95 5.208 11.29 7.378 4.48 2.17 9.4 3.834 14.75 4.991 5.36 1.157 11 1.736 16.93 1.736 15.34 0 27.92-4.412 37.76-13.237 9.84-8.969 14.75-20.687 14.75-35.154 0-6.221-.86-11.79-2.6-16.709-1.74-4.919-4.7-9.476-8.9-13.671-4.05-4.34-9.76-8.391-17.14-12.152-7.23-3.906-16.42-7.884-27.56-11.935-14.9-5.353-26.47-11.067-34.72-17.143-8.1-6.221-13.81-13.02-17.14-20.398-3.18-7.523-4.78-15.841-4.78-24.955 0-12.152 3.19-22.496 9.55-31.031 6.51-8.68 15.12-15.335 25.83-19.964 10.85-4.629 22.78-6.944 35.8-6.944Zm127.31-52.297c-6.65 0-11.86-2.17-15.62-6.51-3.76-4.485-5.64-9.476-5.64-14.973s1.88-10.271 5.64-14.322c3.76-4.195 8.97-6.293 15.62-6.293 6.51 0 11.58 2.098 15.19 6.293 3.76 4.051 5.64 8.825 5.64 14.322s-1.88 10.488-5.64 14.973c-3.61 4.34-8.68 6.51-15.19 6.51Zm15.19 49.91v220.472l31.25 4.991V627h-88.54v-3.472l31.9-4.991V424.756c-1.59-.579-4.26-1.519-8.03-2.821a878.316 878.316 0 0 0-12.37-4.34 246.323 246.323 0 0 0-13.45-4.774v-3.472l57.72-11.284h1.52Zm247.22 15.407-86.37 219.17h-2.82l-98.09-218.302-29.51-5.425v-4.123h88.97v4.123l-31.9 5.208 83.11 188.356-7.81 7.161 73.35-195.951-30.6-4.774v-4.123h70.74v4.123l-29.07 4.557Zm130.76-13.02c15.48 0 28.71 3.327 39.71 9.982 11.14 6.51 19.75 15.696 25.82 27.559 6.22 11.718 9.77 25.461 10.64 41.23h-154.94v-8.029h137.36l-8.68 5.425c-1.45-15.19-4.49-27.776-9.12-37.758-4.62-9.982-10.77-17.432-18.44-22.351-7.52-5.063-16.64-7.595-27.34-7.595-16.35 0-29.8 3.834-40.36 11.501-10.57 7.523-18.38 18.228-23.44 32.116-5.06 13.888-7.6 30.38-7.6 49.476 0 24.449 3.26 44.702 9.77 60.76 6.65 16.058 16.2 28.065 28.64 36.022 12.59 7.812 27.78 11.718 45.57 11.718 9.41 0 18.09-1.085 26.04-3.255 7.96-2.315 15.7-6.076 23.22-11.284 7.67-5.353 15.34-12.441 23-21.266l2.83 2.17c-9.84 13.599-19.17 24.376-28 32.333-8.82 7.957-17.94 13.671-27.34 17.143-9.26 3.327-19.46 4.991-30.6 4.991-19.38 0-36.52-4.195-51.43-12.586-14.75-8.391-26.25-20.904-34.5-37.541-8.24-16.781-12.37-37.686-12.37-62.713 0-21.266 3.98-40.796 11.94-58.59 7.95-17.939 19.53-32.333 34.72-43.183 15.19-10.85 33.49-16.275 54.9-16.275Z" fill="#D2E3FC"/></svg>