<svg width="1920" height="1080" fill="none" xmlns="http://www.w3.org/2000/svg"><path d="m256.769 438.484 23.707 59.168 23.707-59.168h12.401V511h-9.563v-28.239l.897-30.481L284.111 511h-7.321l-23.757-58.57.946 30.331V511h-9.562v-72.516h12.352ZM365.293 511c-.531-1.062-.963-2.955-1.295-5.678-4.283 4.449-9.396 6.674-15.34 6.674-5.312 0-9.679-1.494-13.098-4.482-3.387-3.022-5.081-6.84-5.081-11.455 0-5.612 2.125-9.961 6.375-13.049 4.284-3.121 10.293-4.682 18.03-4.682h8.965v-4.233c0-3.221-.963-5.778-2.889-7.67-1.926-1.926-4.765-2.889-8.517-2.889-3.287 0-6.043.83-8.267 2.49-2.225 1.661-3.337 3.669-3.337 6.027h-9.264c0-2.69.946-5.28 2.839-7.77 1.926-2.523 4.516-4.515 7.77-5.976 3.287-1.461 6.889-2.192 10.807-2.192 6.209 0 11.073 1.561 14.593 4.682 3.52 3.088 5.346 7.354 5.478 12.8v24.802c0 4.948.631 8.882 1.893 11.804V511h-9.662Zm-15.29-7.022c2.889 0 5.628-.748 8.218-2.242s4.466-3.436 5.628-5.827v-11.056h-7.222c-11.289 0-16.934 3.303-16.934 9.911 0 2.888.963 5.146 2.889 6.773 1.926 1.627 4.399 2.441 7.421 2.441Zm63.551-38.599c-1.395-.233-2.906-.349-4.533-.349-6.042 0-10.143 2.574-12.301 7.72V511h-9.214v-53.889h8.965l.149 6.226c3.022-4.815 7.305-7.222 12.85-7.222 1.793 0 3.154.233 4.084.697v8.567Zm23.557 20.669-5.777 6.026V511h-9.214v-76.5h9.214v46.269l4.931-5.927 16.784-17.731h11.206l-20.968 22.512L466.695 511h-10.807l-18.777-24.952Zm58.023 25.948c-7.305 0-13.248-2.391-17.83-7.172-4.582-4.814-6.873-11.239-6.873-19.274v-1.694c0-5.345 1.012-10.11 3.038-14.294 2.058-4.216 4.914-7.503 8.566-9.861 3.686-2.39 7.67-3.586 11.953-3.586 7.006 0 12.451 2.308 16.336 6.923 3.885 4.615 5.827 11.223 5.827 19.822v3.835h-36.506c.132 5.313 1.676 9.613 4.631 12.9 2.989 3.254 6.774 4.881 11.356 4.881 3.254 0 6.01-.664 8.267-1.993 2.258-1.328 4.234-3.087 5.927-5.279l5.628 4.383c-4.516 6.939-11.289 10.409-20.32 10.409Zm-1.146-48.31c-3.718 0-6.84 1.361-9.363 4.084-2.523 2.689-4.084 6.474-4.682 11.355h26.995v-.697c-.266-4.682-1.528-8.301-3.786-10.858-2.257-2.59-5.312-3.884-9.164-3.884Zm45.372-19.624v13.049h10.061v7.122H539.36v33.419c0 2.159.449 3.786 1.345 4.881.897 1.063 2.424 1.594 4.582 1.594 1.063 0 2.524-.199 4.383-.598V511c-2.424.664-4.781.996-7.072.996-4.118 0-7.222-1.245-9.314-3.735-2.092-2.49-3.138-6.027-3.138-10.609v-33.419h-9.811v-7.122h9.811v-13.049h9.214Zm43.928 39.545c0-8.267 1.959-14.908 5.877-19.921 3.918-5.047 9.048-7.571 15.39-7.571 6.308 0 11.305 2.158 14.991 6.475V434.5h9.214V511h-8.467l-.448-5.777c-3.686 4.515-8.816 6.773-15.39 6.773-6.242 0-11.339-2.557-15.29-7.67-3.918-5.113-5.877-11.787-5.877-20.021v-.698Zm9.214 1.046c0 6.11 1.262 10.891 3.785 14.344 2.524 3.453 6.01 5.18 10.459 5.18 5.844 0 10.11-2.623 12.8-7.869v-24.753c-2.756-5.08-6.989-7.62-12.7-7.62-4.516 0-8.035 1.743-10.559 5.229-2.523 3.486-3.785 8.649-3.785 15.489ZM676.373 511c-.531-1.062-.963-2.955-1.295-5.678-4.283 4.449-9.396 6.674-15.34 6.674-5.312 0-9.678-1.494-13.098-4.482-3.387-3.022-5.08-6.84-5.08-11.455 0-5.612 2.125-9.961 6.375-13.049 4.283-3.121 10.293-4.682 18.029-4.682h8.965v-4.233c0-3.221-.963-5.778-2.889-7.67-1.926-1.926-4.765-2.889-8.517-2.889-3.287 0-6.043.83-8.267 2.49-2.225 1.661-3.337 3.669-3.337 6.027h-9.264c0-2.69.947-5.28 2.839-7.77 1.926-2.523 4.516-4.515 7.77-5.976 3.287-1.461 6.889-2.192 10.807-2.192 6.209 0 11.074 1.561 14.593 4.682 3.52 3.088 5.346 7.354 5.479 12.8v24.802c0 4.948.63 8.882 1.892 11.804V511h-9.662Zm-15.29-7.022c2.889 0 5.628-.748 8.218-2.242s4.466-3.436 5.628-5.827v-11.056h-7.222c-11.289 0-16.934 3.303-16.934 9.911 0 2.888.963 5.146 2.889 6.773 1.926 1.627 4.4 2.441 7.421 2.441Zm50.004-59.916v13.049h10.06v7.122h-10.06v33.419c0 2.159.448 3.786 1.345 4.881.896 1.063 2.423 1.594 4.582 1.594 1.062 0 2.523-.199 4.382-.598V511c-2.423.664-4.781.996-7.072.996-4.117 0-7.221-1.245-9.313-3.735-2.092-2.49-3.138-6.027-3.138-10.609v-33.419h-9.811v-7.122h9.811v-13.049h9.214ZM765.225 511c-.532-1.062-.963-2.955-1.295-5.678-4.284 4.449-9.397 6.674-15.34 6.674-5.313 0-9.679-1.494-13.099-4.482-3.387-3.022-5.08-6.84-5.08-11.455 0-5.612 2.125-9.961 6.375-13.049 4.283-3.121 10.293-4.682 18.029-4.682h8.965v-4.233c0-3.221-.963-5.778-2.888-7.67-1.926-1.926-4.765-2.889-8.517-2.889-3.287 0-6.043.83-8.268 2.49-2.224 1.661-3.336 3.669-3.336 6.027h-9.264c0-2.69.946-5.28 2.839-7.77 1.925-2.523 4.515-4.515 7.769-5.976 3.287-1.461 6.89-2.192 10.808-2.192 6.209 0 11.073 1.561 14.593 4.682 3.519 3.088 5.345 7.354 5.478 12.8v24.802c0 4.948.631 8.882 1.893 11.804V511h-9.662Zm-15.29-7.022c2.888 0 5.627-.748 8.217-2.242 2.59-1.494 4.466-3.436 5.628-5.827v-11.056h-7.221c-11.289 0-16.934 3.303-16.934 9.911 0 2.888.963 5.146 2.889 6.773 1.925 1.627 4.399 2.441 7.421 2.441Zm94.18-7.272c0-2.49-.946-4.416-2.839-5.777-1.859-1.395-5.13-2.59-9.811-3.586-4.649-.996-8.351-2.192-11.107-3.586-2.722-1.395-4.748-3.055-6.076-4.981-1.295-1.925-1.942-4.216-1.942-6.873 0-4.416 1.859-8.151 5.578-11.206 3.752-3.054 8.533-4.582 14.344-4.582 6.109 0 11.056 1.577 14.842 4.732 3.818 3.154 5.727 7.188 5.727 12.102h-9.264c0-2.523-1.079-4.698-3.237-6.524-2.125-1.826-4.814-2.739-8.068-2.739-3.354 0-5.977.73-7.869 2.191-1.893 1.461-2.839 3.37-2.839 5.727 0 2.225.88 3.902 2.639 5.031 1.76 1.129 4.931 2.208 9.513 3.237 4.615 1.029 8.351 2.258 11.206 3.686 2.856 1.427 4.964 3.154 6.325 5.179 1.395 1.992 2.092 4.433 2.092 7.322 0 4.814-1.926 8.682-5.777 11.604-3.852 2.889-8.849 4.333-14.991 4.333-4.317 0-8.135-.764-11.456-2.291-3.32-1.527-5.926-3.652-7.819-6.375-1.859-2.756-2.789-5.727-2.789-8.915h9.214c.166 3.088 1.394 5.545 3.685 7.371 2.325 1.793 5.379 2.69 9.165 2.69 3.486 0 6.275-.698 8.367-2.092 2.125-1.428 3.187-3.321 3.187-5.678Zm30.431-33.07c4.084-5.014 9.396-7.521 15.937-7.521 11.389 0 17.133 6.425 17.233 19.275V511h-9.214v-35.66c-.033-3.885-.93-6.757-2.69-8.616-1.726-1.86-4.432-2.789-8.118-2.789-2.988 0-5.611.796-7.869 2.39s-4.017 3.686-5.279 6.276V511h-9.214v-76.5h9.214v29.136Zm44.525 19.922c0-5.28 1.03-10.028 3.088-14.245 2.092-4.216 4.981-7.47 8.666-9.761 3.719-2.291 7.952-3.437 12.7-3.437 7.338 0 13.265 2.54 17.781 7.62 4.548 5.08 6.823 11.837 6.823 20.271v.647c0 5.246-1.013 9.961-3.038 14.145-1.992 4.15-4.864 7.388-8.616 9.712-3.719 2.324-8.002 3.486-12.85 3.486-7.305 0-13.231-2.54-17.78-7.62-4.516-5.08-6.774-11.804-6.774-20.171v-.647Zm9.264 1.095c0 5.977 1.378 10.775 4.134 14.394 2.789 3.619 6.508 5.429 11.156 5.429 4.682 0 8.4-1.827 11.156-5.479 2.756-3.685 4.134-8.832 4.134-15.439 0-5.911-1.411-10.692-4.233-14.344-2.789-3.686-6.508-5.528-11.157-5.528-4.548 0-8.217 1.809-11.006 5.428-2.79 3.619-4.184 8.799-4.184 15.539ZM1027.4 498.3l10.36-41.189h9.21L1031.28 511h-7.47l-13.1-40.84L997.962 511h-7.471l-15.638-53.889h9.164l10.608 40.342 12.555-40.342h7.42l12.8 41.189Zm60.36-1.594c0-2.49-.95-4.416-2.84-5.777-1.86-1.395-5.13-2.59-9.81-3.586-4.65-.996-8.35-2.192-11.11-3.586-2.72-1.395-4.75-3.055-6.07-4.981-1.3-1.925-1.95-4.216-1.95-6.873 0-4.416 1.86-8.151 5.58-11.206 3.75-3.054 8.54-4.582 14.35-4.582 6.11 0 11.05 1.577 14.84 4.732 3.82 3.154 5.73 7.188 5.73 12.102h-9.27c0-2.523-1.08-4.698-3.24-6.524-2.12-1.826-4.81-2.739-8.06-2.739-3.36 0-5.98.73-7.87 2.191-1.9 1.461-2.84 3.37-2.84 5.727 0 2.225.88 3.902 2.64 5.031 1.76 1.129 4.93 2.208 9.51 3.237 4.62 1.029 8.35 2.258 11.21 3.686 2.85 1.427 4.96 3.154 6.32 5.179 1.4 1.992 2.09 4.433 2.09 7.322 0 4.814-1.92 8.682-5.77 11.604-3.86 2.889-8.85 4.333-14.99 4.333-4.32 0-8.14-.764-11.46-2.291-3.32-1.527-5.93-3.652-7.82-6.375-1.86-2.756-2.79-5.727-2.79-8.915h9.22c.16 3.088 1.39 5.545 3.68 7.371 2.33 1.793 5.38 2.69 9.17 2.69 3.48 0 6.27-.698 8.36-2.092 2.13-1.428 3.19-3.321 3.19-5.678Zm336.58 7.77c3.29 0 6.16-.997 8.62-2.989 2.45-1.992 3.81-4.482 4.08-7.47h8.72c-.17 3.087-1.23 6.026-3.19 8.815-1.96 2.789-4.58 5.014-7.87 6.674a22.483 22.483 0 0 1-10.36 2.49c-7.34 0-13.18-2.44-17.53-7.321-4.32-4.914-6.48-11.621-6.48-20.121v-1.544c0-5.246.97-9.911 2.89-13.995 1.93-4.084 4.68-7.255 8.27-9.513 3.62-2.258 7.89-3.387 12.8-3.387 6.04 0 11.06 1.81 15.04 5.429 4.02 3.619 6.16 8.317 6.43 14.095h-8.72c-.27-3.487-1.59-6.342-3.98-8.567-2.36-2.258-5.28-3.386-8.77-3.386-4.68 0-8.32 1.693-10.91 5.08-2.55 3.353-3.83 8.217-3.83 14.592v1.744c0 6.209 1.28 10.99 3.83 14.343 2.56 3.354 6.21 5.031 10.96 5.031Zm65.04 6.524c-.53-1.062-.96-2.955-1.29-5.678-4.28 4.449-9.4 6.674-15.34 6.674-5.31 0-9.68-1.494-13.1-4.482-3.39-3.022-5.08-6.84-5.08-11.455 0-5.612 2.13-9.961 6.38-13.049 4.28-3.121 10.29-4.682 18.03-4.682h8.96v-4.233c0-3.221-.96-5.778-2.89-7.67-1.92-1.926-4.76-2.889-8.51-2.889-3.29 0-6.05.83-8.27 2.49-2.23 1.661-3.34 3.669-3.34 6.027h-9.26c0-2.69.94-5.28 2.84-7.77 1.92-2.523 4.51-4.515 7.77-5.976 3.28-1.461 6.89-2.192 10.8-2.192 6.21 0 11.08 1.561 14.6 4.682 3.52 3.088 5.34 7.354 5.47 12.8v24.802c0 4.948.64 8.882 1.9 11.804V511h-9.67Zm-15.29-7.022c2.89 0 5.63-.748 8.22-2.242 2.59-1.494 4.47-3.436 5.63-5.827v-11.056h-7.22c-11.29 0-16.93 3.303-16.93 9.911 0 2.888.96 5.146 2.88 6.773 1.93 1.627 4.4 2.441 7.42 2.441Zm68.88-7.272c0-2.49-.94-4.416-2.83-5.777-1.86-1.395-5.13-2.59-9.82-3.586-4.64-.996-8.35-2.192-11.1-3.586-2.72-1.395-4.75-3.055-6.08-4.981-1.29-1.925-1.94-4.216-1.94-6.873 0-4.416 1.86-8.151 5.58-11.206 3.75-3.054 8.53-4.582 14.34-4.582 6.11 0 11.06 1.577 14.84 4.732 3.82 3.154 5.73 7.188 5.73 12.102h-9.26c0-2.523-1.08-4.698-3.24-6.524-2.13-1.826-4.81-2.739-8.07-2.739-3.35 0-5.98.73-7.87 2.191-1.89 1.461-2.84 3.37-2.84 5.727 0 2.225.88 3.902 2.64 5.031 1.76 1.129 4.93 2.208 9.52 3.237 4.61 1.029 8.35 2.258 11.2 3.686 2.86 1.427 4.97 3.154 6.33 5.179 1.39 1.992 2.09 4.433 2.09 7.322 0 4.814-1.93 8.682-5.78 11.604-3.85 2.889-8.85 4.333-14.99 4.333-4.32 0-8.13-.764-11.46-2.291-3.32-1.527-5.92-3.652-7.81-6.375-1.86-2.756-2.79-5.727-2.79-8.915h9.21c.17 3.088 1.39 5.545 3.69 7.371 2.32 1.793 5.37 2.69 9.16 2.69 3.49 0 6.28-.698 8.37-2.092 2.12-1.428 3.18-3.321 3.18-5.678Zm43.58 15.29c-7.3 0-13.24-2.391-17.83-7.172-4.58-4.814-6.87-11.239-6.87-19.274v-1.694c0-5.345 1.01-10.11 3.04-14.294 2.06-4.216 4.91-7.503 8.57-9.861 3.68-2.39 7.66-3.586 11.95-3.586 7 0 12.45 2.308 16.33 6.923 3.89 4.615 5.83 11.223 5.83 19.822v3.835h-36.51c.14 5.313 1.68 9.613 4.64 12.9 2.98 3.254 6.77 4.881 11.35 4.881 3.26 0 6.01-.664 8.27-1.993 2.26-1.328 4.23-3.087 5.93-5.279l5.62 4.383c-4.51 6.939-11.29 10.409-20.32 10.409Zm-1.14-48.31c-3.72 0-6.84 1.361-9.37 4.084-2.52 2.689-4.08 6.474-4.68 11.355h27v-.697c-.27-4.682-1.53-8.301-3.79-10.858-2.26-2.59-5.31-3.884-9.16-3.884Zm64.25 33.02c0-2.49-.95-4.416-2.84-5.777-1.86-1.395-5.13-2.59-9.81-3.586-4.65-.996-8.35-2.192-11.11-3.586-2.72-1.395-4.75-3.055-6.08-4.981-1.29-1.925-1.94-4.216-1.94-6.873 0-4.416 1.86-8.151 5.58-11.206 3.75-3.054 8.53-4.582 14.34-4.582 6.11 0 11.06 1.577 14.84 4.732 3.82 3.154 5.73 7.188 5.73 12.102h-9.26c0-2.523-1.08-4.698-3.24-6.524-2.12-1.826-4.81-2.739-8.07-2.739-3.35 0-5.97.73-7.87 2.191-1.89 1.461-2.84 3.37-2.84 5.727 0 2.225.88 3.902 2.64 5.031 1.76 1.129 4.94 2.208 9.52 3.237 4.61 1.029 8.35 2.258 11.2 3.686 2.86 1.427 4.97 3.154 6.33 5.179 1.39 1.992 2.09 4.433 2.09 7.322 0 4.814-1.93 8.682-5.78 11.604-3.85 2.889-8.85 4.333-14.99 4.333-4.31 0-8.13-.764-11.45-2.291-3.32-1.527-5.93-3.652-7.82-6.375-1.86-2.756-2.79-5.727-2.79-8.915h9.21c.17 3.088 1.4 5.545 3.69 7.371 2.32 1.793 5.38 2.69 9.16 2.69 3.49 0 6.28-.698 8.37-2.092 2.12-1.428 3.19-3.321 3.19-5.678Zm20.91 28.737-5.23-3.586c3.13-4.349 4.75-8.832 4.89-13.447v-8.317h9.01v7.221c0 3.354-.83 6.707-2.49 10.061-1.63 3.354-3.69 6.043-6.18 8.068ZM276.242 633.671c-3.586 4.217-8.848 6.325-15.788 6.325-5.744 0-10.127-1.66-13.148-4.98-2.989-3.354-4.499-8.301-4.533-14.842v-35.063h9.214v34.814c0 8.168 3.321 12.252 9.961 12.252 7.039 0 11.721-2.623 14.045-7.869v-39.197h9.214V639h-8.766l-.199-5.329Zm68.531-21.018c0 8.201-1.876 14.809-5.627 19.823-3.752 5.013-8.833 7.52-15.241 7.52-6.541 0-11.687-2.075-15.439-6.225v25.948h-9.214v-74.608h8.417l.448 5.977c3.752-4.649 8.965-6.973 15.639-6.973 6.474 0 11.588 2.441 15.34 7.322 3.785 4.88 5.677 11.67 5.677 20.37v.846Zm-9.213-1.046c0-6.076-1.295-10.874-3.885-14.393-2.59-3.52-6.143-5.279-10.658-5.279-5.579 0-9.762 2.473-12.551 7.42v25.749c2.756 4.915 6.972 7.372 12.65 7.372 4.416 0 7.919-1.744 10.509-5.23 2.623-3.519 3.935-8.732 3.935-15.639ZM661.382 639h-9.214v-53.889h9.214V639Zm-9.961-68.183c0-1.494.448-2.755 1.345-3.785.929-1.029 2.291-1.544 4.084-1.544 1.793 0 3.154.515 4.084 1.544.929 1.03 1.394 2.291 1.394 3.785 0 1.495-.465 2.74-1.394 3.736-.93.996-2.291 1.494-4.084 1.494-1.793 0-3.155-.498-4.084-1.494-.897-.996-1.345-2.241-1.345-3.736Zm33.469 14.294.298 6.774c4.118-5.18 9.497-7.77 16.137-7.77 11.389 0 17.133 6.425 17.233 19.275V639h-9.214v-35.66c-.033-3.885-.93-6.757-2.69-8.616-1.726-1.86-4.432-2.789-8.118-2.789-2.988 0-5.611.796-7.869 2.39s-4.018 3.686-5.279 6.276V639h-9.214v-53.889h8.716Zm85.365-13.049v13.049h10.06v7.122h-10.06v33.419c0 2.159.448 3.786 1.345 4.881.896 1.063 2.423 1.594 4.582 1.594 1.062 0 2.523-.199 4.382-.598V639c-2.423.664-4.781.996-7.072.996-4.117 0-7.221-1.245-9.313-3.735-2.092-2.49-3.138-6.027-3.138-10.609v-33.419h-9.812v-7.122h9.812v-13.049h9.214Zm30.082 19.574c4.084-5.014 9.396-7.521 15.937-7.521 11.389 0 17.133 6.425 17.233 19.275V639h-9.214v-35.66c-.033-3.885-.93-6.757-2.689-8.616-1.727-1.86-4.433-2.789-8.119-2.789-2.988 0-5.611.796-7.869 2.39s-4.017 3.686-5.279 6.276V639h-9.214v-76.5h9.214v29.136Zm69.328 48.36c-7.305 0-13.248-2.391-17.83-7.172-4.582-4.814-6.873-11.239-6.873-19.274v-1.694c0-5.345 1.013-10.11 3.038-14.294 2.059-4.216 4.914-7.503 8.566-9.861 3.686-2.39 7.67-3.586 11.954-3.586 7.005 0 12.451 2.308 16.335 6.923 3.885 4.615 5.828 11.223 5.828 19.822v3.835h-36.507c.133 5.313 1.677 9.613 4.632 12.9 2.988 3.254 6.773 4.881 11.355 4.881 3.254 0 6.01-.664 8.268-1.993 2.257-1.328 4.233-3.087 5.926-5.279l5.628 4.383c-4.515 6.939-11.289 10.409-20.32 10.409Zm-1.145-48.31c-3.719 0-6.84 1.361-9.364 4.084-2.523 2.689-4.084 6.474-4.681 11.355h26.994v-.697c-.266-4.682-1.528-8.301-3.785-10.858-2.258-2.59-5.313-3.884-9.164-3.884ZM936.702 639h-9.214v-76.5h9.214V639Zm48.062 0c-.532-1.062-.963-2.955-1.295-5.678-4.283 4.449-9.397 6.674-15.34 6.674-5.313 0-9.679-1.494-13.099-4.482-3.386-3.022-5.08-6.84-5.08-11.455 0-5.612 2.125-9.961 6.375-13.049 4.283-3.121 10.293-4.682 18.029-4.682h8.965v-4.233c0-3.221-.963-5.778-2.888-7.67-1.926-1.926-4.765-2.889-8.517-2.889-3.287 0-6.043.83-8.268 2.49-2.224 1.661-3.336 3.669-3.336 6.027h-9.264c0-2.69.946-5.28 2.839-7.77 1.926-2.523 4.515-4.515 7.769-5.976 3.287-1.461 6.89-2.192 10.808-2.192 6.209 0 11.073 1.561 14.593 4.682 3.519 3.088 5.345 7.354 5.478 12.8v24.802c0 4.948.631 8.882 1.893 11.804V639h-9.662Zm-15.29-7.022c2.888 0 5.628-.748 8.217-2.242 2.59-1.494 4.466-3.436 5.628-5.827v-11.056h-7.221c-11.289 0-16.934 3.303-16.934 9.911 0 2.888.963 5.146 2.889 6.773 1.926 1.627 4.399 2.441 7.421 2.441Zm68.876-7.272c0-2.49-.94-4.416-2.84-5.777-1.85-1.395-5.13-2.59-9.81-3.586-4.65-.996-8.35-2.192-11.1-3.586-2.73-1.395-4.75-3.055-6.08-4.981-1.29-1.925-1.94-4.216-1.94-6.873 0-4.416 1.86-8.151 5.58-11.206 3.75-3.054 8.53-4.582 14.34-4.582 6.11 0 11.06 1.577 14.84 4.732 3.82 3.154 5.73 7.188 5.73 12.102h-9.26c0-2.523-1.08-4.698-3.24-6.524-2.13-1.826-4.82-2.739-8.07-2.739-3.35 0-5.98.73-7.87 2.191-1.89 1.461-2.84 3.37-2.84 5.727 0 2.225.88 3.902 2.64 5.031 1.76 1.129 4.93 2.208 9.51 3.237 4.62 1.029 8.35 2.258 11.21 3.686 2.86 1.427 4.96 3.154 6.33 5.179 1.39 1.992 2.09 4.433 2.09 7.322 0 4.814-1.93 8.682-5.78 11.604-3.85 2.889-8.85 4.333-14.99 4.333-4.32 0-8.14-.764-11.46-2.291-3.32-1.527-5.92-3.652-7.82-6.375-1.85-2.756-2.78-5.727-2.78-8.915h9.21c.17 3.088 1.39 5.545 3.68 7.371 2.33 1.793 5.38 2.69 9.17 2.69 3.49 0 6.27-.698 8.37-2.092 2.12-1.428 3.18-3.321 3.18-5.678Zm33.72-52.644v13.049h10.06v7.122h-10.06v33.419c0 2.159.45 3.786 1.35 4.881.89 1.063 2.42 1.594 4.58 1.594 1.06 0 2.52-.199 4.38-.598V639c-2.42.664-4.78.996-7.07.996-4.12 0-7.22-1.245-9.31-3.735-2.1-2.49-3.14-6.027-3.14-10.609v-33.419h-9.81v-7.122h9.81v-13.049h9.21Zm193.24 39.545c0-8.267 1.96-14.908 5.88-19.921 3.92-5.047 9.05-7.571 15.39-7.571 6.31 0 11.31 2.158 14.99 6.475V562.5h9.22V639h-8.47l-.45-5.777c-3.69 4.515-8.82 6.773-15.39 6.773-6.24 0-11.34-2.557-15.29-7.67-3.92-5.113-5.88-11.787-5.88-20.021v-.698Zm9.22 1.046c0 6.11 1.26 10.891 3.78 14.344 2.53 3.453 6.01 5.18 10.46 5.18 5.85 0 10.11-2.623 12.8-7.869v-24.753c-2.75-5.08-6.99-7.62-12.7-7.62-4.51 0-8.03 1.743-10.56 5.229-2.52 3.486-3.78 8.649-3.78 15.489ZM1358.4 639c-.53-1.062-.96-2.955-1.3-5.678-4.28 4.449-9.39 6.674-15.34 6.674-5.31 0-9.68-1.494-13.09-4.482-3.39-3.022-5.09-6.84-5.09-11.455 0-5.612 2.13-9.961 6.38-13.049 4.28-3.121 10.29-4.682 18.03-4.682h8.96v-4.233c0-3.221-.96-5.778-2.88-7.67-1.93-1.926-4.77-2.889-8.52-2.889-3.29 0-6.04.83-8.27 2.49-2.22 1.661-3.34 3.669-3.34 6.027h-9.26c0-2.69.95-5.28 2.84-7.77 1.93-2.523 4.52-4.515 7.77-5.976 3.29-1.461 6.89-2.192 10.81-2.192 6.21 0 11.07 1.561 14.59 4.682 3.52 3.088 5.35 7.354 5.48 12.8v24.802c0 4.948.63 8.882 1.89 11.804V639h-9.66Zm-15.29-7.022c2.89 0 5.63-.748 8.22-2.242 2.59-1.494 4.46-3.436 5.62-5.827v-11.056h-7.22c-11.29 0-16.93 3.303-16.93 9.911 0 2.888.96 5.146 2.89 6.773 1.92 1.627 4.4 2.441 7.42 2.441Zm54.34-6.475 12.55-40.392h9.86l-21.67 62.206c-3.35 8.965-8.68 13.448-15.98 13.448l-1.75-.15-3.43-.647v-7.471l2.49.199c3.12 0 5.54-.631 7.27-1.892 1.76-1.262 3.2-3.57 4.33-6.923l2.04-5.479-19.22-53.291H1384l13.45 40.392Zm62.05-.797c0-2.49-.94-4.416-2.84-5.777-1.86-1.395-5.13-2.59-9.81-3.586-4.65-.996-8.35-2.192-11.1-3.586-2.73-1.395-4.75-3.055-6.08-4.981-1.3-1.925-1.94-4.216-1.94-6.873 0-4.416 1.86-8.151 5.57-11.206 3.76-3.054 8.54-4.582 14.35-4.582 6.11 0 11.06 1.577 14.84 4.732 3.82 3.154 5.73 7.188 5.73 12.102h-9.27c0-2.523-1.07-4.698-3.23-6.524-2.13-1.826-4.82-2.739-8.07-2.739-3.36 0-5.98.73-7.87 2.191-1.89 1.461-2.84 3.37-2.84 5.727 0 2.225.88 3.902 2.64 5.031 1.76 1.129 4.93 2.208 9.51 3.237 4.62 1.029 8.35 2.258 11.21 3.686 2.85 1.427 4.96 3.154 6.32 5.179 1.4 1.992 2.1 4.433 2.1 7.322 0 4.814-1.93 8.682-5.78 11.604-3.85 2.889-8.85 4.333-14.99 4.333-4.32 0-8.14-.764-11.46-2.291-3.32-1.527-5.92-3.652-7.82-6.375-1.86-2.756-2.79-5.727-2.79-8.915h9.22c.16 3.088 1.39 5.545 3.68 7.371 2.33 1.793 5.38 2.69 9.17 2.69 3.48 0 6.27-.698 8.36-2.092 2.13-1.428 3.19-3.321 3.19-5.678Zm21.42 9.463c0-1.594.46-2.922 1.39-3.984.97-1.063 2.39-1.594 4.29-1.594 1.89 0 3.32.531 4.28 1.594 1 1.062 1.49 2.39 1.49 3.984 0 1.527-.49 2.806-1.49 3.835-.96 1.029-2.39 1.544-4.28 1.544-1.9 0-3.32-.515-4.29-1.544-.93-1.029-1.39-2.308-1.39-3.835Z" fill="#3C4043"/><path d="M1162.82 511h-9.22v-46.518l-18.33 6.923v-8.367l26-10.06h1.55V511Zm20.07 14.443-5.23-3.586c3.12-4.349 4.75-8.832 4.88-13.447v-8.317h9.01v7.221c0 3.354-.83 6.707-2.49 10.061-1.62 3.354-3.68 6.043-6.17 8.068ZM1248.83 511h-44.28v-6.524l25.35-22.761c4.15-3.819 6.39-7.122 6.73-9.911l.15-2.64c0-2.789-1.05-5.08-3.14-6.873-2.06-1.793-4.78-2.689-8.17-2.689-4.05 0-7.32 1.178-9.81 3.536-2.46 2.357-3.69 5.478-3.69 9.363h-9.21c0-3.719.99-7.155 2.99-10.31 1.99-3.187 4.73-5.677 8.21-7.47 3.49-1.793 7.33-2.69 11.51-2.69 6.21 0 11.17 1.528 14.89 4.582 3.75 3.055 5.63 7.106 5.63 12.153 0 5.877-3.27 11.803-9.81 17.78l-18.83 16.933h31.48V511Zm41.73-50.402h-32.47v-7.62h43.93v5.876l-19.13 20.122c5.91.796 10.75 3.237 14.5 7.321s5.63 9.098 5.63 15.041c0 8.267-2.56 14.842-7.67 19.723-5.12 4.88-11.91 7.321-20.37 7.321-6.71 0-13.55-1.71-20.52-5.13l2.59-6.923c5.47 2.922 11.15 4.383 17.03 4.383 5.98 0 10.74-1.677 14.29-5.03 3.59-3.354 5.38-7.77 5.38-13.248 0-5.678-1.54-9.878-4.63-12.601-3.05-2.756-7.77-4.134-14.14-4.134h-2.99v-5.13l18.57-19.971Zm67.69 42.931h9.81v7.521h-9.81v16.386h-9.26V511.05h-36.81v-5.429l36.16-52.643h9.91v50.551Zm-35.26 0h26v-38.05l-1.4 2.639-24.6 35.411ZM381.529 620.473l5.08-39.446h39.246v8.517h-31.974l-2.69 19.723c3.686-2.125 8.002-3.221 12.95-3.288 6.64-.066 11.953 2.125 15.937 6.575 4.018 4.416 6.026 10.359 6.026 17.83 0 7.935-2.39 14.277-7.171 19.025-4.782 4.748-11.173 7.122-19.175 7.122-7.438 0-14.062-1.892-19.872-5.677l2.888-6.923c4.317 3.353 9.978 5.03 16.984 5.03 5.08 0 9.197-1.727 12.351-5.18 3.188-3.42 4.782-7.852 4.782-13.298 0-4.748-1.378-8.632-4.134-11.654-2.723-3.021-6.325-4.532-10.808-4.532-3.519 0-6.259.481-8.218 1.444-1.925.963-3.453 2.822-4.582 5.578l-7.62-.846Zm56.379 32.97-5.229-3.586c3.121-4.349 4.748-8.832 4.881-13.447v-8.317h9.014v7.221c0 3.354-.83 6.707-2.49 10.061-1.627 3.354-3.686 6.043-6.176 8.068Zm55.532-87.008v7.819h-1.693c-7.172.133-12.883 2.258-17.133 6.375s-6.707 9.911-7.371 17.382c3.819-4.383 9.031-6.574 15.639-6.574 6.308 0 11.339 2.224 15.091 6.673 3.785 4.45 5.677 10.194 5.677 17.233 0 7.47-2.042 13.447-6.126 17.929-4.05 4.483-9.496 6.724-16.336 6.724-6.939 0-12.567-2.656-16.883-7.969-4.317-5.345-6.475-12.218-6.475-20.619v-3.536c0-13.348 2.839-23.541 8.517-30.58 5.711-7.072 14.194-10.691 25.45-10.857h1.643Zm-12.102 32.671c-3.154 0-6.06.947-8.716 2.839-2.656 1.893-4.499 4.267-5.528 7.122v3.387c0 5.977 1.344 10.791 4.034 14.443 2.689 3.653 6.043 5.479 10.06 5.479 4.151 0 7.405-1.527 9.762-4.582 2.391-3.055 3.586-7.056 3.586-12.003 0-4.98-1.212-8.998-3.636-12.053-2.39-3.088-5.578-4.632-9.562-4.632Zm77.496-12.849-30.281 69.179h-9.264l29.833-66.888h-36.905v-7.57h46.617v5.279Zm52.992-.847c0 3.619-.963 6.84-2.888 9.662-1.893 2.823-4.466 5.031-7.72 6.624 3.785 1.627 6.773 4.001 8.965 7.122 2.224 3.121 3.337 6.658 3.337 10.609 0 6.275-2.125 11.272-6.375 14.991-4.217 3.719-9.779 5.578-16.685 5.578-6.973 0-12.567-1.859-16.784-5.578-4.184-3.752-6.276-8.749-6.276-14.991 0-3.918 1.063-7.454 3.188-10.609 2.158-3.154 5.13-5.545 8.915-7.172-3.221-1.593-5.761-3.801-7.62-6.624-1.86-2.822-2.789-6.026-2.789-9.612 0-6.109 1.959-10.957 5.877-14.543 3.918-3.586 9.081-5.379 15.489-5.379 6.375 0 11.521 1.793 15.439 5.379 3.952 3.586 5.927 8.434 5.927 14.543Zm-7.52 33.818c0-4.051-1.295-7.355-3.885-9.912-2.557-2.556-5.91-3.835-10.061-3.835-4.15 0-7.487 1.262-10.01 3.786-2.491 2.523-3.736 5.843-3.736 9.961 0 4.117 1.212 7.354 3.636 9.711 2.457 2.358 5.86 3.537 10.21 3.537 4.316 0 7.703-1.179 10.16-3.537 2.457-2.39 3.686-5.627 3.686-9.711Zm-13.846-46.169c-3.619 0-6.558 1.129-8.815 3.386-2.225 2.225-3.337 5.263-3.337 9.115 0 3.685 1.095 6.673 3.287 8.964 2.224 2.258 5.179 3.387 8.865 3.387s6.624-1.129 8.815-3.387c2.225-2.291 3.337-5.279 3.337-8.964 0-3.686-1.145-6.691-3.436-9.015-2.291-2.324-5.197-3.486-8.716-3.486Zm544.66 75.454c5.88 0 10.65-2.026 14.3-6.076 3.65-4.051 5.83-9.679 6.52-16.884-3.95 3.486-8.96 5.229-15.04 5.229-6.97 0-12.58-2.291-16.83-6.873-4.22-4.582-6.33-10.625-6.33-18.129 0-5.179.97-9.728 2.89-13.646 1.96-3.918 4.68-6.923 8.17-9.015 3.49-2.092 7.42-3.138 11.8-3.138 7.81 0 13.86 2.424 18.18 7.272 4.35 4.848 6.56 11.687 6.63 20.519v12.452c0 7.304-1.22 13.663-3.64 19.075-2.42 5.412-5.88 9.562-10.36 12.451-4.45 2.889-9.58 4.333-15.39 4.333-5.28 0-9.88-.996-13.8-2.988l1.9-7.073c4.05 1.661 7.72 2.491 11 2.491Zm6.23-25.301c3.49 0 6.54-.764 9.16-2.291 2.66-1.527 4.55-3.652 5.68-6.375v-7.371c0-6.541-1.34-11.439-4.03-14.693-2.66-3.287-6.41-4.93-11.26-4.93-4.22 0-7.59 1.627-10.11 4.881-2.52 3.22-3.78 7.67-3.78 13.347 0 4.948 1.34 9.098 4.03 12.451 2.72 3.321 6.16 4.981 10.31 4.981Zm88-12.7c0 9.23-2.32 16.468-6.97 21.715-4.65 5.212-10.94 7.819-18.87 7.819-7.94 0-14.25-2.623-18.93-7.869-4.68-5.246-7.04-12.451-7.07-21.615v-.997c0-9.164 2.32-16.385 6.97-21.665 4.68-5.279 10.99-7.919 18.93-7.919 7.93 0 14.22 2.623 18.87 7.87 4.68 5.246 7.04 12.467 7.07 21.665v.996Zm-9.26-1.644c0-6.707-1.48-11.936-4.43-15.688-2.96-3.752-7.04-5.628-12.25-5.628-5.15 0-9.2 1.859-12.16 5.578-2.95 3.719-4.46 8.849-4.53 15.39v2.589c0 6.674 1.51 11.92 4.53 15.739 3.03 3.785 7.11 5.677 12.26 5.677 5.11 0 9.13-1.826 12.05-5.478 2.95-3.686 4.46-8.882 4.53-15.589v-2.59Z" fill="#1A73E8"/></svg>