<svg width="1920" height="1080" fill="none" xmlns="http://www.w3.org/2000/svg"><path d="M263.952 443.27h-7.622V464h-5.127v-20.73h-7.519v-4.153h20.268v4.153Zm8.118 13.74 3.418-11.501h5.298l-7.434 21.362-.411.974c-1.105 2.416-2.928 3.623-5.468 3.623a7.791 7.791 0 0 1-2.188-.324v-3.743l.752.017c.934 0 1.629-.142 2.085-.427.467-.285.832-.758 1.094-1.419l.581-1.521-6.477-18.542h5.315l3.435 11.501Zm27.309-2.085c0 2.849-.649 5.133-1.948 6.853-1.287 1.709-3.03 2.564-5.229 2.564-1.869 0-3.378-.65-4.529-1.948v8.715h-4.939v-25.6h4.58l.171 1.811c1.196-1.435 2.757-2.153 4.682-2.153 2.279 0 4.051.843 5.315 2.529 1.265 1.686 1.897 4.011 1.897 6.973v.256Zm-4.939-.359c0-1.72-.307-3.047-.922-3.982-.604-.934-1.487-1.401-2.649-1.401-1.55 0-2.615.593-3.196 1.777v7.571c.604 1.219 1.68 1.829 3.23 1.829 2.358 0 3.537-1.931 3.537-5.794Zm16.526 9.776c-2.711 0-4.922-.832-6.631-2.495-1.697-1.664-2.546-3.88-2.546-6.648v-.479c0-1.857.359-3.515 1.077-4.973.717-1.47 1.731-2.598 3.042-3.384 1.321-.797 2.825-1.196 4.511-1.196 2.53 0 4.518.798 5.965 2.393 1.458 1.595 2.187 3.856 2.187 6.784v2.017h-11.775c.16 1.208.638 2.176 1.436 2.905.809.729 1.829 1.094 3.059 1.094 1.903 0 3.39-.689 4.46-2.068l2.427 2.717c-.74 1.048-1.743 1.869-3.008 2.461-1.264.581-2.666.872-4.204.872Zm-.564-15.176c-.979 0-1.777.33-2.392.991-.604.661-.991 1.607-1.162 2.837h6.87v-.393c-.023-1.094-.319-1.937-.889-2.529-.57-.604-1.378-.906-2.427-.906Zm26.729-10.049 6.391 18.047 6.358-18.047h6.733V464h-5.144v-6.802l.513-11.74L345.266 464h-3.521l-6.699-18.525.513 11.723V464h-5.127v-24.883h6.699Zm34.709 23.003c-1.219 1.481-2.905 2.222-5.058 2.222-1.983 0-3.498-.57-4.546-1.709-1.037-1.14-1.567-2.809-1.59-5.008v-12.116h4.939v11.946c0 1.925.878 2.888 2.632 2.888 1.675 0 2.826-.581 3.452-1.743v-13.091h4.956V464h-4.648l-.137-1.88Zm18.526-3.23c0-.604-.302-1.077-.906-1.418-.592-.354-1.55-.667-2.871-.94-4.398-.923-6.597-2.792-6.597-5.606 0-1.64.678-3.008 2.034-4.101 1.367-1.105 3.15-1.658 5.349-1.658 2.347 0 4.221.553 5.623 1.658 1.412 1.105 2.119 2.54 2.119 4.306h-4.939c0-.706-.228-1.287-.684-1.743-.456-.467-1.168-.7-2.136-.7-.832 0-1.476.187-1.931.563-.456.376-.684.855-.684 1.436 0 .547.257.991.769 1.333.524.33 1.402.621 2.632.872 1.231.239 2.267.512 3.11.82 2.609.957 3.914 2.615 3.914 4.973 0 1.686-.724 3.053-2.17 4.102-1.447 1.036-3.316 1.555-5.606 1.555-1.549 0-2.928-.274-4.136-.821-1.196-.558-2.136-1.315-2.819-2.272-.684-.969-1.026-2.011-1.026-3.128h4.683c.045.877.37 1.55.974 2.017.604.467 1.413.7 2.427.7.945 0 1.657-.176 2.136-.529.49-.365.735-.838.735-1.419Zm16.509 5.452c-2.712 0-4.922-.832-6.631-2.495-1.698-1.664-2.547-3.88-2.547-6.648v-.479c0-1.857.359-3.515 1.077-4.973.718-1.47 1.732-2.598 3.042-3.384 1.322-.797 2.825-1.196 4.512-1.196 2.529 0 4.517.798 5.964 2.393 1.458 1.595 2.187 3.856 2.187 6.784v2.017h-11.774c.159 1.208.638 2.176 1.435 2.905.809.729 1.829 1.094 3.059 1.094 1.903 0 3.39-.689 4.461-2.068l2.426 2.717c-.74 1.048-1.743 1.869-3.007 2.461-1.265.581-2.666.872-4.204.872Zm-.564-15.176c-.98 0-1.778.33-2.393.991-.604.661-.991 1.607-1.162 2.837h6.87v-.393c-.023-1.094-.319-1.937-.889-2.529-.569-.604-1.378-.906-2.426-.906Zm22.063 12.954c-1.22 1.481-2.906 2.222-5.059 2.222-1.982 0-3.498-.57-4.546-1.709-1.037-1.14-1.567-2.809-1.589-5.008v-12.116h4.939v11.946c0 1.925.877 2.888 2.631 2.888 1.675 0 2.826-.581 3.453-1.743v-13.091h4.956V464h-4.649l-.136-1.88Zm13.142-16.611.153 2.068c1.311-1.607 3.082-2.41 5.315-2.41 2.382 0 4.016.94 4.905 2.82 1.299-1.88 3.15-2.82 5.554-2.82 2.006 0 3.498.587 4.478 1.76.98 1.162 1.47 2.917 1.47 5.264V464h-4.956v-11.792c0-1.048-.206-1.812-.616-2.29-.41-.49-1.133-.735-2.17-.735-1.481 0-2.507.706-3.076 2.119L452.59 464h-4.939v-11.775c0-1.071-.211-1.846-.632-2.324-.422-.479-1.14-.718-2.154-.718-1.401 0-2.415.581-3.042 1.743V464h-4.939v-18.491h4.632Zm39.853 14.372h10.886V464h-16.013v-24.883h5.127v20.764Zm12.749-5.298c0-1.834.353-3.469 1.06-4.904.706-1.436 1.72-2.547 3.042-3.333 1.333-.786 2.877-1.179 4.631-1.179 2.495 0 4.529.763 6.101 2.29 1.584 1.527 2.467 3.6 2.649 6.221l.034 1.264c0 2.837-.792 5.116-2.375 6.836-1.584 1.709-3.709 2.564-6.375 2.564s-4.796-.855-6.391-2.564c-1.584-1.709-2.376-4.033-2.376-6.972v-.223Zm4.939.359c0 1.755.331 3.099.991 4.034.661.922 1.607 1.384 2.837 1.384 1.197 0 2.131-.456 2.803-1.367.672-.923 1.008-2.393 1.008-4.41 0-1.72-.336-3.053-1.008-3.999-.672-.945-1.618-1.418-2.837-1.418-1.208 0-2.142.473-2.803 1.418-.66.935-.991 2.387-.991 4.358Zm20.166-9.433.154 2.136c1.322-1.652 3.093-2.478 5.315-2.478 1.96 0 3.418.575 4.375 1.726.957 1.151 1.447 2.871 1.47 5.161V464h-4.939v-11.826c0-1.048-.228-1.806-.684-2.273-.456-.479-1.213-.718-2.273-.718-1.39 0-2.432.593-3.127 1.777V464h-4.939v-18.491h4.648Zm14.304 9.109c0-2.883.644-5.179 1.931-6.888 1.299-1.709 3.071-2.563 5.315-2.563 1.801 0 3.287.672 4.461 2.017v-9.434h4.956V464h-4.461l-.239-1.965c-1.23 1.538-2.814 2.307-4.751 2.307-2.176 0-3.925-.855-5.246-2.564-1.311-1.72-1.966-4.107-1.966-7.16Zm4.939.359c0 1.731.302 3.059.906 3.981.604.923 1.481 1.385 2.632 1.385 1.527 0 2.603-.644 3.23-1.931v-7.298c-.615-1.287-1.681-1.931-3.196-1.931-2.381 0-3.572 1.931-3.572 5.794Zm14.783-.394c0-1.834.353-3.469 1.06-4.904.706-1.436 1.72-2.547 3.042-3.333 1.333-.786 2.876-1.179 4.631-1.179 2.495 0 4.529.763 6.101 2.29 1.584 1.527 2.467 3.6 2.649 6.221l.034 1.264c0 2.837-.792 5.116-2.375 6.836-1.584 1.709-3.709 2.564-6.375 2.564s-4.796-.855-6.391-2.564c-1.584-1.709-2.376-4.033-2.376-6.972v-.223Zm4.939.359c0 1.755.33 3.099.991 4.034.661.922 1.607 1.384 2.837 1.384 1.196 0 2.131-.456 2.803-1.367.672-.923 1.008-2.393 1.008-4.41 0-1.72-.336-3.053-1.008-3.999-.672-.945-1.618-1.418-2.837-1.418-1.208 0-2.142.473-2.803 1.418-.661.935-.991 2.387-.991 4.358Zm20.166-9.433.154 2.136c1.321-1.652 3.093-2.478 5.315-2.478 1.959 0 3.418.575 4.375 1.726.957 1.151 1.447 2.871 1.469 5.161V464h-4.938v-11.826c0-1.048-.228-1.806-.684-2.273-.456-.479-1.213-.718-2.273-.718-1.39 0-2.432.593-3.127 1.777V464h-4.939v-18.491h4.648ZM257.373 483.1v2.683h-.581c-2.461.046-4.421.775-5.879 2.188-1.459 1.412-2.302 3.401-2.53 5.964 1.311-1.504 3.099-2.256 5.367-2.256 2.164 0 3.89.764 5.178 2.29 1.299 1.527 1.948 3.498 1.948 5.913 0 2.564-.701 4.615-2.102 6.153-1.39 1.538-3.259 2.307-5.606 2.307-2.381 0-4.312-.912-5.793-2.735-1.481-1.834-2.222-4.192-2.222-7.075v-1.213c0-4.58.974-8.078 2.923-10.493 1.959-2.427 4.87-3.669 8.733-3.726h.564Zm-4.153 11.211c-1.083 0-2.08.325-2.991.974-.911.65-1.544 1.464-1.897 2.444v1.162c0 2.051.461 3.703 1.384 4.956.923 1.253 2.074 1.88 3.452 1.88 1.425 0 2.541-.524 3.35-1.572.82-1.048 1.231-2.421 1.231-4.119 0-1.709-.416-3.087-1.248-4.136-.82-1.059-1.914-1.589-3.281-1.589Zm24.319 3.948V508h-3.282v-24.883h9.178c2.723 0 4.853.695 6.391 2.085 1.55 1.39 2.324 3.23 2.324 5.52 0 2.416-.757 4.278-2.273 5.589-1.503 1.298-3.662 1.948-6.477 1.948h-5.861Zm0-2.683h5.896c1.754 0 3.099-.41 4.033-1.231.934-.831 1.401-2.028 1.401-3.589 0-1.481-.467-2.666-1.401-3.554-.934-.889-2.216-1.35-3.845-1.385h-6.084v9.759ZM307.053 508c-.183-.365-.331-1.014-.445-1.948-1.469 1.526-3.224 2.29-5.263 2.29-1.823 0-3.321-.513-4.495-1.538-1.162-1.037-1.743-2.347-1.743-3.931 0-1.925.729-3.418 2.187-4.477 1.47-1.071 3.532-1.607 6.187-1.607h3.076v-1.453c0-1.105-.33-1.982-.991-2.631-.661-.661-1.635-.992-2.922-.992-1.128 0-2.074.285-2.837.855-.764.57-1.145 1.259-1.145 2.068h-3.179c0-.923.325-1.812.974-2.666.661-.866 1.55-1.55 2.666-2.051 1.128-.501 2.364-.752 3.709-.752 2.13 0 3.799.535 5.007 1.606 1.208 1.06 1.834 2.524 1.88 4.393v8.51c0 1.698.216 3.048.649 4.051V508h-3.315Zm-5.247-2.41c.991 0 1.931-.256 2.82-.769.889-.512 1.532-1.179 1.931-1.999v-3.794h-2.478c-3.874 0-5.81 1.133-5.81 3.401 0 .991.33 1.766.991 2.324.661.558 1.509.837 2.546.837Zm15.86-16.081.102 2.324c1.413-1.777 3.259-2.666 5.537-2.666 3.908 0 5.879 2.205 5.913 6.614V508h-3.161v-12.236c-.012-1.333-.319-2.319-.923-2.957-.593-.638-1.521-.957-2.786-.957-1.025 0-1.925.274-2.7.82a5.57 5.57 0 0 0-1.812 2.154V508h-3.161v-18.491h2.991Zm23.737 16.252c1.128 0 2.114-.342 2.957-1.025.843-.684 1.31-1.538 1.401-2.564h2.991c-.057 1.06-.422 2.068-1.094 3.025-.672.957-1.572 1.721-2.7 2.29a7.712 7.712 0 0 1-3.555.855c-2.518 0-4.523-.838-6.015-2.512-1.481-1.687-2.222-3.988-2.222-6.905v-.529c0-1.801.33-3.401.991-4.803.661-1.401 1.607-2.489 2.837-3.264 1.242-.775 2.706-1.162 4.392-1.162 2.074 0 3.794.621 5.161 1.863 1.379 1.242 2.114 2.854 2.205 4.836h-2.991c-.091-1.196-.547-2.176-1.367-2.939-.809-.775-1.811-1.162-3.008-1.162-1.606 0-2.854.581-3.742 1.743-.878 1.151-1.316 2.82-1.316 5.007v.598c0 2.131.438 3.771 1.316 4.922.877 1.151 2.13 1.726 3.759 1.726Zm19.842-13.415a9.454 9.454 0 0 0-1.556-.12c-2.073 0-3.48.883-4.221 2.649V508h-3.161v-18.491h3.076l.051 2.136c1.037-1.652 2.507-2.478 4.409-2.478.615 0 1.083.08 1.402.239v2.94ZM374.899 508c-.182-.365-.33-1.014-.444-1.948-1.47 1.526-3.224 2.29-5.264 2.29-1.823 0-3.321-.513-4.494-1.538-1.162-1.037-1.743-2.347-1.743-3.931 0-1.925.729-3.418 2.187-4.477 1.47-1.071 3.532-1.607 6.187-1.607h3.076v-1.453c0-1.105-.331-1.982-.991-2.631-.661-.661-1.635-.992-2.923-.992-1.128 0-2.073.285-2.837.855-.763.57-1.145 1.259-1.145 2.068h-3.178c0-.923.324-1.812.974-2.666.661-.866 1.549-1.55 2.666-2.051 1.128-.501 2.364-.752 3.708-.752 2.131 0 3.8.535 5.008 1.606 1.207 1.06 1.834 2.524 1.879 4.393v8.51c0 1.698.217 3.048.65 4.051V508h-3.316Zm-5.246-2.41c.991 0 1.931-.256 2.82-.769.888-.512 1.532-1.179 1.931-1.999v-3.794h-2.478c-3.874 0-5.811 1.133-5.811 3.401 0 .991.331 1.766.991 2.324.661.558 1.51.837 2.547.837Zm23.635-2.495c0-.854-.325-1.515-.974-1.982-.638-.479-1.76-.889-3.367-1.231-1.595-.341-2.865-.752-3.811-1.23-.934-.479-1.629-1.048-2.085-1.709-.444-.661-.666-1.447-.666-2.359 0-1.515.638-2.797 1.914-3.845 1.287-1.048 2.928-1.572 4.922-1.572 2.096 0 3.794.541 5.092 1.624 1.311 1.082 1.966 2.466 1.966 4.152H393.1c0-.866-.37-1.612-1.111-2.238-.729-.627-1.652-.94-2.768-.94-1.151 0-2.051.25-2.7.752-.65.501-.975 1.156-.975 1.965 0 .763.302 1.339.906 1.726.604.387 1.692.758 3.264 1.111 1.584.353 2.866.775 3.846 1.264.979.49 1.703 1.083 2.17 1.778.478.683.718 1.521.718 2.512 0 1.652-.661 2.979-1.983 3.982-1.321.991-3.036 1.487-5.144 1.487-1.481 0-2.791-.262-3.93-.786-1.14-.524-2.034-1.254-2.684-2.188-.638-.945-.957-1.965-.957-3.059h3.162c.057 1.06.479 1.903 1.265 2.529.797.616 1.845.923 3.144.923 1.197 0 2.154-.239 2.871-.718.73-.489 1.094-1.139 1.094-1.948Zm23.789-6.186c-2.814-.809-4.865-1.8-6.152-2.974-1.276-1.185-1.914-2.643-1.914-4.375 0-1.96.78-3.577 2.341-4.853 1.572-1.288 3.612-1.932 6.118-1.932 1.709 0 3.23.331 4.563.992 1.345.66 2.381 1.572 3.111 2.734a6.955 6.955 0 0 1 1.11 3.811h-3.298c0-1.504-.478-2.683-1.435-3.538-.958-.865-2.308-1.298-4.051-1.298-1.618 0-2.882.358-3.794 1.076-.9.707-1.35 1.692-1.35 2.957 0 1.014.427 1.874 1.282 2.58.866.695 2.33 1.333 4.392 1.914 2.074.581 3.691 1.225 4.854 1.932 1.173.695 2.039 1.509 2.597 2.443.57.935.855 2.034.855 3.299 0 2.016-.786 3.634-2.359 4.853-1.572 1.208-3.674 1.812-6.306 1.812-1.709 0-3.304-.325-4.785-.974-1.481-.661-2.626-1.561-3.435-2.701-.798-1.139-1.196-2.432-1.196-3.879h3.298c0 1.504.553 2.695 1.658 3.572 1.116.866 2.603 1.299 4.46 1.299 1.732 0 3.059-.353 3.982-1.06.923-.706 1.384-1.669 1.384-2.888 0-1.219-.427-2.159-1.281-2.82-.855-.672-2.404-1.333-4.649-1.982Zm12.185 1.692c0-2.906.667-5.201 2-6.888 1.333-1.697 3.121-2.546 5.366-2.546 2.187 0 3.914.735 5.178 2.205l.137-1.863h2.905v25.6h-3.161v-8.818c-1.277 1.367-2.974 2.051-5.093 2.051-2.233 0-4.016-.866-5.349-2.598-1.322-1.743-1.983-4.05-1.983-6.921v-.222Zm3.162.358c0 2.12.444 3.783 1.333 4.991.9 1.207 2.108 1.811 3.623 1.811 1.88 0 3.315-.831 4.307-2.495v-9.058c-1.003-1.629-2.427-2.443-4.273-2.443-1.527 0-2.74.609-3.64 1.828-.9 1.208-1.35 2.997-1.35 5.366Zm28.916 7.212c-1.231 1.447-3.036 2.171-5.418 2.171-1.971 0-3.475-.57-4.511-1.709-1.026-1.151-1.544-2.848-1.556-5.093v-12.031h3.162v11.946c0 2.802 1.139 4.204 3.418 4.204 2.415 0 4.022-.9 4.819-2.701v-13.449h3.162V508h-3.008l-.068-1.829ZM480.651 508c-.182-.365-.33-1.014-.444-1.948-1.47 1.526-3.224 2.29-5.264 2.29-1.823 0-3.321-.513-4.494-1.538-1.162-1.037-1.743-2.347-1.743-3.931 0-1.925.729-3.418 2.187-4.477 1.47-1.071 3.532-1.607 6.187-1.607h3.076v-1.453c0-1.105-.331-1.982-.991-2.631-.661-.661-1.635-.992-2.923-.992-1.128 0-2.073.285-2.837.855-.763.57-1.145 1.259-1.145 2.068h-3.178c0-.923.324-1.812.974-2.666.66-.866 1.549-1.55 2.666-2.051 1.128-.501 2.364-.752 3.708-.752 2.131 0 3.8.535 5.008 1.606 1.207 1.06 1.834 2.524 1.879 4.393v8.51c0 1.698.217 3.048.65 4.051V508h-3.316Zm-5.246-2.41c.991 0 1.931-.256 2.82-.769.888-.512 1.532-1.179 1.931-1.999v-3.794h-2.478c-3.874 0-5.811 1.133-5.811 3.401 0 .991.331 1.766.991 2.324.661.558 1.51.837 2.547.837Zm21.806-13.244a9.433 9.433 0 0 0-1.555-.12c-2.073 0-3.48.883-4.221 2.649V508h-3.162v-18.491h3.077l.051 2.136c1.037-1.652 2.506-2.478 4.409-2.478.615 0 1.082.08 1.401.239v2.94Zm10.254 15.996c-2.506 0-4.546-.821-6.118-2.461-1.572-1.652-2.358-3.857-2.358-6.614v-.581c0-1.834.347-3.469 1.042-4.905.707-1.447 1.686-2.575 2.94-3.384 1.264-.82 2.632-1.23 4.101-1.23 2.404 0 4.273.792 5.606 2.375 1.333 1.584 1.999 3.851 1.999 6.802v1.316H502.15c.046 1.823.576 3.298 1.59 4.426 1.025 1.117 2.324 1.675 3.896 1.675 1.117 0 2.062-.228 2.837-.683a7.13 7.13 0 0 0 2.034-1.812l1.931 1.504c-1.549 2.381-3.874 3.572-6.973 3.572Zm-.393-16.577c-1.276 0-2.347.467-3.213 1.401-.866.923-1.401 2.222-1.606 3.896h9.263v-.239c-.092-1.606-.524-2.848-1.299-3.725-.775-.889-1.823-1.333-3.145-1.333Zm-257.885 57.552h11.792V552h-15.091v-24.883h3.299v22.2Zm14.201-6.734c0-1.811.353-3.44 1.06-4.887.718-1.447 1.709-2.564 2.973-3.35 1.276-.786 2.729-1.179 4.358-1.179 2.518 0 4.552.872 6.101 2.615 1.561 1.743 2.342 4.061 2.342 6.955v.222c0 1.801-.348 3.418-1.043 4.854-.683 1.424-1.669 2.535-2.956 3.333-1.276.797-2.746 1.196-4.41 1.196-2.506 0-4.54-.872-6.101-2.615-1.549-1.743-2.324-4.05-2.324-6.921v-.223Zm3.179.376c0 2.051.473 3.698 1.418 4.939.957 1.242 2.233 1.863 3.828 1.863 1.607 0 2.883-.626 3.829-1.88.945-1.264 1.418-3.03 1.418-5.298 0-2.027-.484-3.668-1.453-4.921-.957-1.265-2.233-1.897-3.828-1.897-1.561 0-2.82.621-3.777 1.862-.957 1.242-1.435 3.02-1.435 5.332Zm20.61-9.45.103 2.324c1.413-1.777 3.258-2.666 5.537-2.666 3.908 0 5.879 2.205 5.913 6.614V552h-3.162v-12.236c-.011-1.333-.319-2.319-.922-2.957-.593-.638-1.521-.957-2.786-.957-1.026 0-1.926.274-2.7.82a5.57 5.57 0 0 0-1.812 2.154V552h-3.161v-18.491h2.99Zm15.552 9.092c0-2.837.672-5.116 2.017-6.836 1.344-1.732 3.104-2.598 5.28-2.598 2.165 0 3.88.741 5.144 2.222v-9.639h3.162V552h-2.905l-.154-1.982c-1.265 1.549-3.025 2.324-5.281 2.324-2.142 0-3.891-.877-5.246-2.632-1.345-1.755-2.017-4.045-2.017-6.87v-.239Zm3.162.358c0 2.097.433 3.737 1.298 4.922.866 1.185 2.063 1.778 3.589 1.778 2.006 0 3.47-.9 4.392-2.701v-8.493c-.945-1.743-2.398-2.615-4.358-2.615-1.549 0-2.757.598-3.623 1.795-.865 1.196-1.298 2.967-1.298 5.314Zm16.526-.376c0-1.811.353-3.44 1.059-4.887.718-1.447 1.709-2.564 2.974-3.35 1.276-.786 2.728-1.179 4.358-1.179 2.518 0 4.551.872 6.101 2.615 1.561 1.743 2.341 4.061 2.341 6.955v.222c0 1.801-.347 3.418-1.042 4.854-.684 1.424-1.67 2.535-2.957 3.333-1.276.797-2.746 1.196-4.409 1.196-2.507 0-4.54-.872-6.101-2.615-1.55-1.743-2.324-4.05-2.324-6.921v-.223Zm3.178.376c0 2.051.473 3.698 1.419 4.939.957 1.242 2.233 1.863 3.828 1.863 1.606 0 2.882-.626 3.828-1.88.946-1.264 1.418-3.03 1.418-5.298 0-2.027-.484-3.668-1.452-4.921-.957-1.265-2.233-1.897-3.828-1.897-1.561 0-2.82.621-3.777 1.862-.957 1.242-1.436 3.02-1.436 5.332Zm20.611-9.45.102 2.324c1.413-1.777 3.259-2.666 5.537-2.666 3.908 0 5.879 2.205 5.913 6.614V552h-3.161v-12.236c-.012-1.333-.319-2.319-.923-2.957-.593-.638-1.521-.957-2.786-.957-1.025 0-1.925.274-2.7.82a5.57 5.57 0 0 0-1.812 2.154V552h-3.161v-18.491h2.991ZM265.012 596h-3.299l-12.526-19.175V596h-3.299v-24.883h3.299l12.561 19.26v-19.26h3.264V596Zm16.56 0h-3.162v-15.962l-6.289 2.376v-2.872l8.921-3.452h.53V596Zm27.258-7.896c-.308 2.632-1.282 4.666-2.922 6.102-1.63 1.424-3.8 2.136-6.512 2.136-2.939 0-5.297-1.054-7.075-3.162-1.766-2.108-2.649-4.927-2.649-8.459v-2.393c0-2.313.411-4.346 1.231-6.101.832-1.755 2.005-3.099 3.52-4.033 1.516-.946 3.27-1.419 5.264-1.419 2.643 0 4.762.741 6.357 2.222 1.595 1.47 2.524 3.509 2.786 6.118h-3.298c-.285-1.982-.906-3.418-1.863-4.306-.946-.889-2.273-1.333-3.982-1.333-2.096 0-3.743.774-4.939 2.324-1.185 1.549-1.777 3.754-1.777 6.614v2.409c0 2.7.564 4.848 1.692 6.443 1.128 1.595 2.705 2.393 4.733 2.393 1.823 0 3.219-.41 4.187-1.231.98-.831 1.63-2.273 1.949-4.324h3.298Zm26.694 5.333h3.367v2.58h-3.367v5.623h-3.178v-5.623h-12.63v-1.863l12.408-18.064h3.4v17.347Zm-12.099 0h8.921V580.38l-.479.906-8.442 12.151Zm32.009-3.931h-10.425L342.668 596h-3.384l9.502-24.883h2.871L361.176 596h-3.366l-2.376-6.494Zm-9.434-2.7h8.46l-4.238-11.639L346 586.806Zm36.692 5.93c-.843 1.208-2.022 2.113-3.537 2.717-1.504.593-3.259.889-5.264.889-2.028 0-3.828-.473-5.4-1.419-1.573-.957-2.792-2.312-3.658-4.067-.854-1.755-1.293-3.788-1.315-6.101v-2.171c0-3.748.871-6.653 2.614-8.715 1.755-2.063 4.216-3.094 7.383-3.094 2.598 0 4.688.667 6.272 2 1.584 1.322 2.552 3.201 2.905 5.64h-3.281c-.615-3.293-2.575-4.939-5.879-4.939-2.199 0-3.868.774-5.007 2.324-1.128 1.538-1.698 3.771-1.709 6.699v2.034c0 2.791.638 5.013 1.914 6.665 1.276 1.64 3.002 2.461 5.178 2.461 1.231 0 2.307-.137 3.23-.41.923-.274 1.686-.735 2.29-1.385v-5.588h-5.759v-2.666h9.023v9.126Zm-119.287 22.381v16.919c-.011 2.347-.752 4.267-2.221 5.759-1.459 1.493-3.441 2.33-5.948 2.513l-.871.034c-2.723 0-4.894-.735-6.511-2.205-1.618-1.47-2.439-3.492-2.461-6.067v-16.953h3.247v16.851c0 1.8.495 3.201 1.486 4.204.992.991 2.404 1.487 4.239 1.487 1.857 0 3.275-.496 4.255-1.487.991-.991 1.487-2.387 1.487-4.187v-16.868h3.298Zm7.674 6.392.102 2.324c1.413-1.777 3.259-2.666 5.537-2.666 3.908 0 5.879 2.205 5.913 6.614V640h-3.161v-12.236c-.012-1.333-.319-2.319-.923-2.957-.593-.638-1.521-.957-2.786-.957-1.025 0-1.925.274-2.7.82a5.56 5.56 0 0 0-1.811 2.154V640h-3.162v-18.491h2.991ZM290.834 640h-3.161v-18.491h3.161V640Zm-3.417-23.396c0-.513.153-.946.461-1.299.319-.353.786-.53 1.401-.53.616 0 1.083.177 1.402.53.319.353.478.786.478 1.299 0 .513-.159.94-.478 1.282-.319.342-.786.512-1.402.512-.615 0-1.082-.17-1.401-.512-.308-.342-.461-.769-.461-1.282Zm12.783.427v4.478h3.452v2.444H300.2v11.467c0 .74.154 1.299.461 1.675.308.364.832.547 1.572.547.365 0 .866-.069 1.504-.205V640a9.152 9.152 0 0 1-2.426.342c-1.413 0-2.478-.427-3.196-1.282-.718-.854-1.077-2.068-1.077-3.64v-11.467h-3.367v-2.444h3.367v-4.478h3.162Zm14.834 23.311c-2.507 0-4.546-.821-6.118-2.461-1.573-1.652-2.359-3.857-2.359-6.614v-.581c0-1.834.348-3.469 1.043-4.905.706-1.447 1.686-2.575 2.939-3.384 1.265-.82 2.632-1.23 4.102-1.23 2.404 0 4.272.792 5.605 2.375 1.333 1.584 2 3.851 2 6.802v1.316h-12.527c.045 1.823.575 3.298 1.589 4.426 1.025 1.117 2.324 1.675 3.897 1.675 1.116 0 2.062-.228 2.837-.683a7.14 7.14 0 0 0 2.033-1.812l1.931 1.504c-1.549 2.381-3.873 3.572-6.972 3.572Zm-.393-16.577c-1.276 0-2.347.467-3.213 1.401-.866.923-1.402 2.222-1.607 3.896h9.263v-.239c-.091-1.606-.524-2.848-1.299-3.725-.775-.889-1.823-1.333-3.144-1.333Zm10.51 6.836c0-2.837.672-5.116 2.016-6.836 1.345-1.732 3.105-2.598 5.281-2.598 2.165 0 3.88.741 5.144 2.222v-9.639h3.162V640h-2.905l-.154-1.982c-1.265 1.549-3.025 2.324-5.281 2.324-2.142 0-3.891-.877-5.247-2.632-1.344-1.755-2.016-4.045-2.016-6.87v-.239Zm3.161.358c0 2.097.433 3.737 1.299 4.922.866 1.185 2.063 1.778 3.589 1.778 2.005 0 3.469-.9 4.392-2.701v-8.493c-.945-1.743-2.398-2.615-4.358-2.615-1.549 0-2.757.598-3.623 1.795-.866 1.196-1.299 2.967-1.299 5.314Zm32.864-2.529-3.042 3.162V640h-3.281v-24.883h3.281v12.305l11.057-12.305h3.965l-9.792 10.989L373.925 640h-3.93l-8.819-11.57Zm18.56 11.57h-3.162v-18.491h3.162V640Zm-3.418-23.396c0-.513.154-.946.461-1.299.319-.353.786-.53 1.402-.53.615 0 1.082.177 1.401.53.319.353.479.786.479 1.299 0 .513-.16.94-.479 1.282-.319.342-.786.512-1.401.512-.616 0-1.083-.17-1.402-.512-.307-.342-.461-.769-.461-1.282Zm11.484 4.905.103 2.324c1.413-1.777 3.258-2.666 5.537-2.666 3.908 0 5.879 2.205 5.913 6.614V640h-3.162v-12.236c-.011-1.333-.319-2.319-.922-2.957-.593-.638-1.521-.957-2.786-.957-1.026 0-1.926.274-2.7.82a5.57 5.57 0 0 0-1.812 2.154V640h-3.161v-18.491h2.99Zm15.569 9.092c0-2.883.667-5.173 2-6.871 1.333-1.709 3.099-2.563 5.297-2.563 2.256 0 4.017.798 5.281 2.393l.154-2.051h2.888v18.047c0 2.392-.712 4.278-2.136 5.656-1.413 1.379-3.315 2.068-5.708 2.068a9.522 9.522 0 0 1-3.914-.854c-1.276-.57-2.25-1.35-2.922-2.342l1.641-1.896c1.355 1.674 3.013 2.512 4.973 2.512 1.538 0 2.734-.433 3.589-1.299.866-.866 1.298-2.085 1.298-3.657v-1.59c-1.264 1.459-2.99 2.188-5.178 2.188-2.164 0-3.919-.872-5.263-2.615-1.333-1.743-2-4.119-2-7.126Zm3.179.358c0 2.085.427 3.726 1.282 4.922.854 1.185 2.05 1.778 3.588 1.778 1.994 0 3.458-.906 4.392-2.718v-8.442c-.968-1.766-2.421-2.649-4.357-2.649-1.538 0-2.74.598-3.606 1.795-.866 1.196-1.299 2.967-1.299 5.314Zm16.457-.358c0-2.837.673-5.116 2.017-6.836 1.344-1.732 3.105-2.598 5.281-2.598 2.164 0 3.879.741 5.144 2.222v-9.639h3.161V640h-2.905l-.154-1.982c-1.264 1.549-3.025 2.324-5.28 2.324-2.142 0-3.891-.877-5.247-2.632-1.344-1.755-2.017-4.045-2.017-6.87v-.239Zm3.162.358c0 2.097.433 3.737 1.299 4.922.866 1.185 2.062 1.778 3.589 1.778 2.005 0 3.469-.9 4.392-2.701v-8.493c-.946-1.743-2.399-2.615-4.358-2.615-1.55 0-2.757.598-3.623 1.795-.866 1.196-1.299 2.967-1.299 5.314Zm16.526-.376c0-1.811.353-3.44 1.059-4.887.718-1.447 1.709-2.564 2.974-3.35 1.276-.786 2.729-1.179 4.358-1.179 2.518 0 4.552.872 6.101 2.615 1.561 1.743 2.341 4.061 2.341 6.955v.222c0 1.801-.347 3.418-1.042 4.854-.684 1.424-1.669 2.535-2.957 3.333-1.276.797-2.745 1.196-4.409 1.196-2.506 0-4.54-.872-6.101-2.615-1.549-1.743-2.324-4.05-2.324-6.921v-.223Zm3.179.376c0 2.051.472 3.698 1.418 4.939.957 1.242 2.233 1.863 3.828 1.863 1.607 0 2.883-.626 3.828-1.88.946-1.264 1.419-3.03 1.419-5.298 0-2.027-.485-3.668-1.453-4.921-.957-1.265-2.233-1.897-3.828-1.897-1.561 0-2.82.621-3.777 1.862-.957 1.242-1.435 3.02-1.435 5.332Zm20.593-9.45.085 2.051c1.356-1.595 3.185-2.393 5.486-2.393 2.586 0 4.347.991 5.281 2.974a7.032 7.032 0 0 1 2.392-2.154c.992-.547 2.159-.82 3.504-.82 4.056 0 6.118 2.148 6.186 6.443V640h-3.161v-12.202c0-1.322-.302-2.307-.906-2.957-.604-.66-1.618-.991-3.042-.991-1.174 0-2.148.353-2.922 1.06-.775.695-1.225 1.635-1.35 2.819V640h-3.179v-12.117c0-2.689-1.316-4.033-3.948-4.033-2.074 0-3.492.883-4.255 2.649V640h-3.162v-18.491h2.991ZM749.952 443.27h-7.622V464h-5.127v-20.73h-7.519v-4.153h20.268v4.153Zm8.118 13.74 3.418-11.501h5.298l-7.434 21.362-.411.974c-1.105 2.416-2.928 3.623-5.468 3.623a7.791 7.791 0 0 1-2.188-.324v-3.743l.752.017c.934 0 1.629-.142 2.085-.427.467-.285.832-.758 1.094-1.419l.581-1.521-6.477-18.542h5.315l3.435 11.501Zm27.309-2.085c0 2.849-.649 5.133-1.948 6.853-1.287 1.709-3.03 2.564-5.229 2.564-1.869 0-3.378-.65-4.529-1.948v8.715h-4.939v-25.6h4.58l.171 1.811c1.196-1.435 2.757-2.153 4.682-2.153 2.279 0 4.051.843 5.315 2.529 1.265 1.686 1.897 4.011 1.897 6.973v.256Zm-4.939-.359c0-1.72-.307-3.047-.922-3.982-.604-.934-1.487-1.401-2.649-1.401-1.55 0-2.615.593-3.196 1.777v7.571c.604 1.219 1.68 1.829 3.23 1.829 2.358 0 3.537-1.931 3.537-5.794Zm16.526 9.776c-2.711 0-4.922-.832-6.631-2.495-1.697-1.664-2.546-3.88-2.546-6.648v-.479c0-1.857.359-3.515 1.077-4.973.717-1.47 1.731-2.598 3.042-3.384 1.321-.797 2.825-1.196 4.511-1.196 2.53 0 4.518.798 5.965 2.393 1.458 1.595 2.187 3.856 2.187 6.784v2.017h-11.775c.16 1.208.638 2.176 1.436 2.905.809.729 1.829 1.094 3.059 1.094 1.903 0 3.39-.689 4.46-2.068l2.427 2.717c-.74 1.048-1.743 1.869-3.008 2.461-1.264.581-2.666.872-4.204.872Zm-.564-15.176c-.979 0-1.777.33-2.392.991-.604.661-.991 1.607-1.162 2.837h6.87v-.393c-.023-1.094-.319-1.937-.889-2.529-.57-.604-1.378-.906-2.427-.906Zm26.729-10.049 6.391 18.047 6.358-18.047h6.733V464h-5.144v-6.802l.513-11.74L831.266 464h-3.521l-6.699-18.525.513 11.723V464h-5.127v-24.883h6.699Zm34.709 23.003c-1.219 1.481-2.905 2.222-5.058 2.222-1.983 0-3.498-.57-4.546-1.709-1.037-1.14-1.567-2.809-1.59-5.008v-12.116h4.939v11.946c0 1.925.878 2.888 2.632 2.888 1.675 0 2.826-.581 3.452-1.743v-13.091h4.956V464h-4.648l-.137-1.88Zm18.526-3.23c0-.604-.302-1.077-.906-1.418-.592-.354-1.55-.667-2.871-.94-4.398-.923-6.597-2.792-6.597-5.606 0-1.64.678-3.008 2.034-4.101 1.367-1.105 3.15-1.658 5.349-1.658 2.347 0 4.221.553 5.623 1.658 1.412 1.105 2.119 2.54 2.119 4.306h-4.939c0-.706-.228-1.287-.684-1.743-.456-.467-1.168-.7-2.136-.7-.832 0-1.476.187-1.931.563-.456.376-.684.855-.684 1.436 0 .547.257.991.769 1.333.524.33 1.402.621 2.632.872 1.231.239 2.267.512 3.11.82 2.609.957 3.914 2.615 3.914 4.973 0 1.686-.724 3.053-2.17 4.102-1.447 1.036-3.316 1.555-5.606 1.555-1.549 0-2.928-.274-4.136-.821-1.196-.558-2.136-1.315-2.819-2.272-.684-.969-1.026-2.011-1.026-3.128h4.683c.045.877.37 1.55.974 2.017.604.467 1.413.7 2.427.7.945 0 1.657-.176 2.136-.529.49-.365.735-.838.735-1.419Zm16.509 5.452c-2.712 0-4.922-.832-6.631-2.495-1.698-1.664-2.547-3.88-2.547-6.648v-.479c0-1.857.359-3.515 1.077-4.973.718-1.47 1.732-2.598 3.042-3.384 1.322-.797 2.825-1.196 4.512-1.196 2.529 0 4.517.798 5.964 2.393 1.458 1.595 2.187 3.856 2.187 6.784v2.017h-11.774c.159 1.208.638 2.176 1.435 2.905.809.729 1.829 1.094 3.059 1.094 1.903 0 3.39-.689 4.461-2.068l2.426 2.717c-.74 1.048-1.743 1.869-3.007 2.461-1.265.581-2.666.872-4.204.872Zm-.564-15.176c-.98 0-1.778.33-2.393.991-.604.661-.991 1.607-1.162 2.837h6.87v-.393c-.023-1.094-.319-1.937-.889-2.529-.569-.604-1.378-.906-2.426-.906Zm22.063 12.954c-1.22 1.481-2.906 2.222-5.059 2.222-1.982 0-3.498-.57-4.546-1.709-1.037-1.14-1.567-2.809-1.589-5.008v-12.116h4.939v11.946c0 1.925.877 2.888 2.631 2.888 1.675 0 2.826-.581 3.453-1.743v-13.091h4.956V464h-4.649l-.136-1.88Zm13.142-16.611.153 2.068c1.311-1.607 3.082-2.41 5.315-2.41 2.382 0 4.016.94 4.905 2.82 1.299-1.88 3.15-2.82 5.554-2.82 2.006 0 3.498.587 4.478 1.76.98 1.162 1.47 2.917 1.47 5.264V464h-4.956v-11.792c0-1.048-.206-1.812-.616-2.29-.41-.49-1.133-.735-2.17-.735-1.481 0-2.507.706-3.076 2.119L938.59 464h-4.939v-11.775c0-1.071-.211-1.846-.632-2.324-.422-.479-1.14-.718-2.154-.718-1.401 0-2.415.581-3.042 1.743V464h-4.939v-18.491h4.632ZM982.477 464h-5.127l-9.981-16.372V464h-5.127v-24.883h5.127l9.998 16.406v-16.406h5.11V464Zm12.663.342c-2.711 0-4.922-.832-6.631-2.495-1.697-1.664-2.546-3.88-2.546-6.648v-.479c0-1.857.359-3.515 1.077-4.973.717-1.47 1.731-2.598 3.042-3.384 1.321-.797 2.825-1.196 4.511-1.196 2.53 0 4.518.798 5.967 2.393 1.46 1.595 2.19 3.856 2.19 6.784v2.017h-11.78c.16 1.208.638 2.176 1.436 2.905.809.729 1.828 1.094 3.059 1.094 1.903 0 3.389-.689 4.46-2.068l2.425 2.717c-.74 1.048-1.74 1.869-3.006 2.461-1.264.581-2.666.872-4.204.872Zm-.564-15.176c-.98 0-1.777.33-2.392.991-.604.661-.992 1.607-1.163 2.837h6.871v-.393c-.023-1.094-.319-1.937-.889-2.529-.57-.604-1.379-.906-2.427-.906Zm27.074 8.118 2.42-11.775h4.77L1024.12 464h-4.13l-3.5-11.638-3.51 11.638h-4.12l-4.71-18.491h4.76l2.41 11.758 3.39-11.758h3.57l3.37 11.775Zm27.27-6.956 5.18-11.211h5.61l-8.17 15.86V464h-5.22v-9.023l-8.16-15.86h5.62l5.14 11.211Zm10.84 4.255c0-1.834.35-3.469 1.06-4.904.7-1.436 1.72-2.547 3.04-3.333 1.33-.786 2.88-1.179 4.63-1.179 2.49 0 4.53.763 6.1 2.29 1.58 1.527 2.47 3.6 2.65 6.221l.03 1.264c0 2.837-.79 5.116-2.37 6.836-1.59 1.709-3.71 2.564-6.38 2.564-2.66 0-4.79-.855-6.39-2.564-1.58-1.709-2.37-4.033-2.37-6.972v-.223Zm4.94.359c0 1.755.33 3.099.99 4.034.66.922 1.6 1.384 2.83 1.384 1.2 0 2.13-.456 2.81-1.367.67-.923 1-2.393 1-4.41 0-1.72-.33-3.053-1-3.999-.68-.945-1.62-1.418-2.84-1.418-1.21 0-2.14.473-2.8 1.418-.66.935-.99 2.387-.99 4.358Zm26.01-4.802c-.68-.091-1.27-.137-1.78-.137-1.87 0-3.09.633-3.68 1.897V464h-4.93v-18.491h4.66l.14 2.204c.99-1.697 2.36-2.546 4.12-2.546.54 0 1.06.074 1.53.222l-.06 4.751Zm9.11 6.443-1.78 1.777V464h-4.94v-26.25h4.94v14.543l.96-1.23 4.73-5.554h5.93l-6.68 7.707 7.26 10.784h-5.67l-4.75-7.417ZM742.621 508h-3.162v-15.962l-6.289 2.376v-2.872l8.921-3.452h.53V508Zm19.687 0h-3.162v-15.962l-6.289 2.376v-2.872l8.921-3.452h.53V508Zm31.907-18.389c0 1.242-.331 2.347-.991 3.316-.65.968-1.533 1.726-2.649 2.273 1.299.558 2.324 1.373 3.076 2.444.763 1.071 1.145 2.284 1.145 3.64 0 2.153-.729 3.868-2.188 5.144-1.447 1.276-3.355 1.914-5.725 1.914-2.392 0-4.312-.638-5.759-1.914-1.436-1.288-2.153-3.002-2.153-5.144 0-1.345.364-2.558 1.093-3.64.741-1.083 1.761-1.903 3.06-2.461-1.106-.547-1.977-1.305-2.615-2.273-.638-.969-.957-2.068-.957-3.299 0-2.096.672-3.759 2.016-4.99 1.345-1.23 3.116-1.846 5.315-1.846 2.188 0 3.954.616 5.298 1.846 1.356 1.231 2.034 2.894 2.034 4.99Zm-2.581 11.604c0-1.39-.444-2.523-1.333-3.401-.877-.877-2.028-1.315-3.452-1.315s-2.569.432-3.435 1.298c-.854.866-1.282 2.006-1.282 3.418 0 1.413.416 2.524 1.248 3.333.843.809 2.011 1.213 3.503 1.213 1.481 0 2.644-.404 3.487-1.213.843-.82 1.264-1.931 1.264-3.333Zm-4.751-15.842c-1.242 0-2.25.387-3.025 1.162-.763.764-1.145 1.806-1.145 3.128 0 1.264.376 2.29 1.128 3.076.764.775 1.778 1.162 3.042 1.162 1.265 0 2.273-.387 3.025-1.162.764-.786 1.145-1.812 1.145-3.076 0-1.265-.393-2.296-1.179-3.094-.786-.797-1.783-1.196-2.991-1.196Zm16.543-.342v4.478h3.452v2.444h-3.452v11.467c0 .74.154 1.299.462 1.675.307.364.831.547 1.572.547.365 0 .866-.069 1.504-.205V508a9.165 9.165 0 0 1-2.427.342c-1.413 0-2.478-.427-3.196-1.282-.717-.854-1.076-2.068-1.076-3.64v-11.467h-3.367v-2.444h3.367v-4.478h3.161Zm10.323 6.717c1.401-1.721 3.224-2.581 5.468-2.581 3.908 0 5.879 2.205 5.913 6.614V508h-3.161v-12.236c-.012-1.333-.319-2.319-.923-2.957-.593-.638-1.521-.957-2.786-.957-1.025 0-1.925.274-2.7.82a5.56 5.56 0 0 0-1.811 2.154V508h-3.162v-26.25h3.162v9.998Zm39.033 9.758h-10.425L840.016 508h-3.384l9.502-24.883h2.871L858.524 508h-3.367l-2.375-6.494Zm-9.434-2.7h8.46l-4.239-11.639-4.221 11.639Zm23.277 4.904 4.58-14.201h3.23L867.804 508h-2.41l-6.699-18.491h3.23l4.7 14.201Zm18.286 4.632c-2.507 0-4.546-.821-6.119-2.461-1.572-1.652-2.358-3.857-2.358-6.614v-.581c0-1.834.348-3.469 1.043-4.905.706-1.447 1.686-2.575 2.939-3.384 1.265-.82 2.632-1.23 4.102-1.23 2.404 0 4.272.792 5.605 2.375 1.333 1.584 2 3.851 2 6.802v1.316h-12.527c.045 1.823.575 3.298 1.589 4.426 1.025 1.117 2.324 1.675 3.897 1.675 1.116 0 2.062-.228 2.836-.683a7.13 7.13 0 0 0 2.034-1.812l1.931 1.504c-1.549 2.381-3.873 3.572-6.972 3.572Zm-.393-16.577c-1.276 0-2.347.467-3.213 1.401-.866.923-1.402 2.222-1.607 3.896h9.263v-.239c-.091-1.606-.524-2.848-1.299-3.725-.775-.889-1.823-1.333-3.144-1.333ZM751.012 552h-3.299l-12.526-19.175V552h-3.299v-24.883h3.299l12.561 19.26v-19.26h3.264V552Zm13.005.342c-2.506 0-4.546-.821-6.118-2.461-1.572-1.652-2.358-3.857-2.358-6.614v-.581c0-1.834.347-3.469 1.042-4.905.706-1.447 1.686-2.575 2.939-3.384 1.265-.82 2.632-1.23 4.102-1.23 2.404 0 4.272.792 5.605 2.375 1.333 1.584 2 3.851 2 6.802v1.316h-12.527c.046 1.823.576 3.298 1.59 4.426 1.025 1.117 2.324 1.675 3.896 1.675 1.117 0 2.062-.228 2.837-.683a7.13 7.13 0 0 0 2.034-1.812l1.931 1.504c-1.55 2.381-3.874 3.572-6.973 3.572Zm-.393-16.577c-1.276 0-2.347.467-3.213 1.401-.866.923-1.401 2.222-1.606 3.896h9.262v-.239c-.091-1.606-.524-2.848-1.298-3.725-.775-.889-1.823-1.333-3.145-1.333Zm27.651 11.877 3.555-14.133h3.162L792.608 552h-2.563l-4.495-14.014L781.175 552h-2.563l-5.366-18.491h3.144l3.64 13.843 4.307-13.843h2.546l4.392 14.133Zm26.712-8.032 6.494-12.493h3.726l-8.58 15.603V552h-3.281v-9.28l-8.579-15.603h3.76l6.46 12.493Zm10.971 2.973c0-1.811.354-3.44 1.06-4.887.718-1.447 1.709-2.564 2.974-3.35 1.276-.786 2.728-1.179 4.358-1.179 2.518 0 4.551.872 6.101 2.615 1.561 1.743 2.341 4.061 2.341 6.955v.222c0 1.801-.348 3.418-1.042 4.854-.684 1.424-1.67 2.535-2.957 3.333-1.276.797-2.746 1.196-4.409 1.196-2.507 0-4.54-.872-6.101-2.615-1.55-1.743-2.325-4.05-2.325-6.921v-.223Zm3.179.376c0 2.051.473 3.698 1.419 4.939.957 1.242 2.233 1.863 3.828 1.863 1.606 0 2.882-.626 3.828-1.88.946-1.264 1.418-3.03 1.418-5.298 0-2.027-.484-3.668-1.452-4.921-.957-1.265-2.233-1.897-3.828-1.897-1.561 0-2.82.621-3.777 1.862-.957 1.242-1.436 3.02-1.436 5.332Zm26.558-6.613a9.45 9.45 0 0 0-1.555-.12c-2.074 0-3.481.883-4.222 2.649V552h-3.161v-18.491h3.076l.051 2.136c1.037-1.652 2.507-2.478 4.409-2.478.616 0 1.083.08 1.402.239v2.94Zm8.083 7.092-1.982 2.068V552h-3.162v-26.25h3.162v15.876l1.692-2.033 5.759-6.084h3.845l-7.195 7.724L876.93 552h-3.709l-6.443-8.562Zm12.476 13.518-1.795-1.23c1.071-1.493 1.63-3.031 1.675-4.615v-2.854h3.094v2.478c0 1.151-.285 2.302-.855 3.453-.558 1.15-1.265 2.073-2.119 2.768ZM914.527 552h-3.298l-12.527-19.175V552h-3.298v-24.883h3.298l12.561 19.26v-19.26h3.264V552Zm12.937-12.39 6.494-12.493h3.726l-8.579 15.603V552h-3.281v-9.28l-8.579-15.603h3.759l6.46 12.493ZM742.621 596h-3.162v-15.962l-6.289 2.376v-2.872l8.921-3.452h.53V596Zm24.797-9.775c0 3.167-.798 5.651-2.393 7.451-1.595 1.789-3.754 2.683-6.477 2.683-2.723 0-4.887-.9-6.494-2.7-1.606-1.8-2.415-4.273-2.427-7.417v-.342c0-3.145.798-5.623 2.393-7.434 1.606-1.812 3.771-2.717 6.494-2.717s4.882.9 6.477 2.7c1.607 1.8 2.416 4.278 2.427 7.434v.342Zm-3.179-.564c0-2.302-.507-4.096-1.521-5.384-1.014-1.287-2.415-1.931-4.204-1.931-1.766 0-3.156.638-4.17 1.914-1.014 1.276-1.532 3.037-1.555 5.281v.889c0 2.29.518 4.09 1.555 5.4 1.037 1.299 2.438 1.948 4.204 1.948 1.755 0 3.133-.626 4.136-1.88 1.014-1.264 1.532-3.047 1.555-5.349v-.888Zm22.866.564c0 3.167-.797 5.651-2.392 7.451-1.595 1.789-3.754 2.683-6.477 2.683-2.723 0-4.888-.9-6.494-2.7-1.607-1.8-2.416-4.273-2.427-7.417v-.342c0-3.145.797-5.623 2.393-7.434 1.606-1.812 3.771-2.717 6.494-2.717s4.882.9 6.477 2.7c1.606 1.8 2.415 4.278 2.426 7.434v.342Zm-3.178-.564c0-2.302-.507-4.096-1.521-5.384-1.014-1.287-2.416-1.931-4.204-1.931-1.766 0-3.156.638-4.17 1.914-1.014 1.276-1.533 3.037-1.555 5.281v.889c0 2.29.518 4.09 1.555 5.4 1.037 1.299 2.438 1.948 4.204 1.948 1.754 0 3.133-.626 4.136-1.88 1.014-1.264 1.532-3.047 1.555-5.349v-.888ZM801.683 596h-3.162v-15.962l-6.289 2.376v-2.872l8.921-3.452h.53V596Zm19.688 0h-3.162v-15.962l-6.289 2.376v-2.872l8.921-3.452h.53V596Zm-71.966 19.117v16.919c-.011 2.347-.752 4.267-2.221 5.759-1.459 1.493-3.441 2.33-5.948 2.513l-.871.034c-2.723 0-4.894-.735-6.511-2.205-1.618-1.47-2.439-3.492-2.461-6.067v-16.953h3.247v16.851c0 1.8.495 3.201 1.486 4.204.992.991 2.404 1.487 4.239 1.487 1.857 0 3.275-.496 4.255-1.487.991-.991 1.487-2.387 1.487-4.187v-16.868h3.298Zm7.674 6.392.102 2.324c1.413-1.777 3.259-2.666 5.537-2.666 3.908 0 5.879 2.205 5.913 6.614V640h-3.161v-12.236c-.012-1.333-.319-2.319-.923-2.957-.593-.638-1.521-.957-2.786-.957-1.025 0-1.925.274-2.7.82a5.56 5.56 0 0 0-1.811 2.154V640h-3.162v-18.491h2.991ZM776.834 640h-3.161v-18.491h3.161V640Zm-3.417-23.396c0-.513.153-.946.461-1.299.319-.353.786-.53 1.401-.53.616 0 1.083.177 1.402.53.319.353.478.786.478 1.299 0 .513-.159.94-.478 1.282-.319.342-.786.512-1.402.512-.615 0-1.082-.17-1.401-.512-.308-.342-.461-.769-.461-1.282Zm12.783.427v4.478h3.452v2.444H786.2v11.467c0 .74.154 1.299.461 1.675.308.364.832.547 1.572.547.365 0 .866-.069 1.504-.205V640a9.152 9.152 0 0 1-2.426.342c-1.413 0-2.478-.427-3.196-1.282-.718-.854-1.077-2.068-1.077-3.64v-11.467h-3.367v-2.444h3.367v-4.478h3.162Zm14.834 23.311c-2.507 0-4.546-.821-6.118-2.461-1.573-1.652-2.359-3.857-2.359-6.614v-.581c0-1.834.348-3.469 1.043-4.905.706-1.447 1.686-2.575 2.939-3.384 1.265-.82 2.632-1.23 4.102-1.23 2.404 0 4.272.792 5.605 2.375 1.333 1.584 2 3.851 2 6.802v1.316h-12.527c.045 1.823.575 3.298 1.589 4.426 1.025 1.117 2.324 1.675 3.897 1.675 1.116 0 2.062-.228 2.837-.683a7.14 7.14 0 0 0 2.033-1.812l1.931 1.504c-1.549 2.381-3.873 3.572-6.972 3.572Zm-.393-16.577c-1.276 0-2.347.467-3.213 1.401-.866.923-1.402 2.222-1.607 3.896h9.263v-.239c-.091-1.606-.524-2.848-1.299-3.725-.775-.889-1.823-1.333-3.144-1.333Zm10.51 6.836c0-2.837.672-5.116 2.016-6.836 1.345-1.732 3.105-2.598 5.281-2.598 2.165 0 3.88.741 5.144 2.222v-9.639h3.162V640h-2.905l-.154-1.982c-1.265 1.549-3.025 2.324-5.281 2.324-2.142 0-3.891-.877-5.247-2.632-1.344-1.755-2.016-4.045-2.016-6.87v-.239Zm3.161.358c0 2.097.433 3.737 1.299 4.922.866 1.185 2.063 1.778 3.589 1.778 2.005 0 3.469-.9 4.392-2.701v-8.493c-.945-1.743-2.398-2.615-4.358-2.615-1.549 0-2.757.598-3.623 1.795-.866 1.196-1.299 2.967-1.299 5.314Zm33.873-2.05c-2.815-.809-4.865-1.8-6.153-2.974-1.276-1.185-1.914-2.643-1.914-4.375 0-1.96.781-3.577 2.341-4.853 1.573-1.288 3.612-1.932 6.119-1.932 1.709 0 3.23.331 4.563.992 1.344.66 2.381 1.572 3.11 2.734a6.948 6.948 0 0 1 1.111 3.811h-3.299c0-1.504-.478-2.683-1.435-3.538-.957-.865-2.307-1.298-4.05-1.298-1.618 0-2.883.358-3.794 1.076-.9.707-1.35 1.692-1.35 2.957 0 1.014.427 1.874 1.281 2.58.866.695 2.33 1.333 4.392 1.914 2.074.581 3.692 1.225 4.854 1.932 1.173.695 2.039 1.509 2.598 2.443.569.935.854 2.034.854 3.299 0 2.016-.786 3.634-2.358 4.853-1.573 1.208-3.675 1.812-6.306 1.812-1.709 0-3.305-.325-4.786-.974-1.481-.661-2.626-1.561-3.435-2.701-.797-1.139-1.196-2.432-1.196-3.879h3.298c0 1.504.553 2.695 1.658 3.572 1.117.866 2.603 1.299 4.461 1.299 1.731 0 3.059-.353 3.981-1.06.923-.706 1.385-1.669 1.385-2.888 0-1.219-.427-2.159-1.282-2.82-.854-.672-2.404-1.333-4.648-1.982Zm17.243-11.878v4.478h3.452v2.444h-3.452v11.467c0 .74.154 1.299.462 1.675.307.364.831.547 1.572.547.364 0 .866-.069 1.504-.205V640a9.165 9.165 0 0 1-2.427.342c-1.413 0-2.478-.427-3.196-1.282-.718-.854-1.076-2.068-1.076-3.64v-11.467H858.9v-2.444h3.367v-4.478h3.161ZM884.005 640c-.182-.365-.331-1.014-.444-1.948-1.47 1.526-3.225 2.29-5.264 2.29-1.823 0-3.321-.513-4.495-1.538-1.162-1.037-1.743-2.347-1.743-3.931 0-1.925.729-3.418 2.188-4.477 1.469-1.071 3.531-1.607 6.186-1.607h3.076v-1.453c0-1.105-.33-1.982-.991-2.631-.661-.661-1.635-.992-2.922-.992-1.128 0-2.074.285-2.837.855-.764.57-1.145 1.259-1.145 2.068h-3.179c0-.923.325-1.812.974-2.666.661-.866 1.55-1.55 2.666-2.051 1.128-.501 2.364-.752 3.709-.752 2.13 0 3.799.535 5.007 1.606 1.208 1.06 1.834 2.524 1.88 4.393v8.51c0 1.698.216 3.048.649 4.051V640h-3.315Zm-5.247-2.41c.992 0 1.931-.256 2.82-.769.889-.512 1.533-1.179 1.931-1.999v-3.794h-2.478c-3.873 0-5.81 1.133-5.81 3.401 0 .991.33 1.766.991 2.324.661.558 1.51.837 2.546.837Zm17.159-20.559v4.478h3.452v2.444h-3.452v11.467c0 .74.153 1.299.461 1.675.308.364.832.547 1.572.547.365 0 .866-.069 1.504-.205V640a9.165 9.165 0 0 1-2.427.342c-1.412 0-2.478-.427-3.195-1.282-.718-.854-1.077-2.068-1.077-3.64v-11.467h-3.367v-2.444h3.367v-4.478h3.162Zm14.833 23.311c-2.506 0-4.545-.821-6.118-2.461-1.572-1.652-2.358-3.857-2.358-6.614v-.581c0-1.834.347-3.469 1.042-4.905.707-1.447 1.687-2.575 2.94-3.384 1.265-.82 2.632-1.23 4.101-1.23 2.404 0 4.273.792 5.606 2.375 1.333 1.584 1.999 3.851 1.999 6.802v1.316h-12.526c.045 1.823.575 3.298 1.589 4.426 1.025 1.117 2.324 1.675 3.896 1.675 1.117 0 2.063-.228 2.837-.683a7.13 7.13 0 0 0 2.034-1.812l1.931 1.504c-1.549 2.381-3.874 3.572-6.973 3.572Zm-.393-16.577c-1.276 0-2.347.467-3.212 1.401-.866.923-1.402 2.222-1.607 3.896h9.263v-.239c-.091-1.606-.524-2.848-1.299-3.725-.775-.889-1.823-1.333-3.145-1.333Zm22.046 11.33c0-.854-.324-1.515-.974-1.982-.638-.479-1.76-.889-3.367-1.231-1.595-.341-2.865-.752-3.811-1.23-.934-.479-1.629-1.048-2.084-1.709-.445-.661-.667-1.447-.667-2.359 0-1.515.638-2.797 1.914-3.845 1.287-1.048 2.928-1.572 4.922-1.572 2.096 0 3.794.541 5.093 1.624 1.31 1.082 1.965 2.466 1.965 4.152h-3.179c0-.866-.37-1.612-1.111-2.238-.729-.627-1.652-.94-2.768-.94-1.151 0-2.051.25-2.7.752-.65.501-.974 1.156-.974 1.965 0 .763.302 1.339.905 1.726.604.387 1.692.758 3.265 1.111 1.583.353 2.865.775 3.845 1.264.98.49 1.703 1.083 2.17 1.778.479.683.718 1.521.718 2.512 0 1.652-.661 2.979-1.982 3.982-1.322.991-3.037 1.487-5.145 1.487-1.481 0-2.791-.262-3.93-.786-1.14-.524-2.034-1.254-2.683-2.188-.638-.945-.957-1.965-.957-3.059h3.161c.057 1.06.479 1.903 1.265 2.529.797.616 1.846.923 3.144.923 1.197 0 2.154-.239 2.872-.718.729-.489 1.093-1.139 1.093-1.948ZM1235.95 443.27h-7.62V464h-5.13v-20.73h-7.52v-4.153h20.27v4.153Zm8.12 13.74 3.42-11.501h5.3l-7.44 21.362-.41.974c-1.1 2.416-2.93 3.623-5.47 3.623-.72 0-1.44-.108-2.18-.324v-3.743l.75.017c.93 0 1.63-.142 2.08-.427.47-.285.83-.758 1.1-1.419l.58-1.521-6.48-18.542h5.31l3.44 11.501Zm27.31-2.085c0 2.849-.65 5.133-1.95 6.853-1.29 1.709-3.03 2.564-5.23 2.564-1.87 0-3.38-.65-4.53-1.948v8.715h-4.94v-25.6h4.58l.17 1.811c1.2-1.435 2.76-2.153 4.69-2.153 2.28 0 4.05.843 5.31 2.529 1.27 1.686 1.9 4.011 1.9 6.973v.256Zm-4.94-.359c0-1.72-.31-3.047-.92-3.982-.61-.934-1.49-1.401-2.65-1.401-1.55 0-2.62.593-3.2 1.777v7.571c.61 1.219 1.68 1.829 3.23 1.829 2.36 0 3.54-1.931 3.54-5.794Zm16.53 9.776c-2.72 0-4.93-.832-6.63-2.495-1.7-1.664-2.55-3.88-2.55-6.648v-.479c0-1.857.36-3.515 1.08-4.973.71-1.47 1.73-2.598 3.04-3.384 1.32-.797 2.82-1.196 4.51-1.196 2.53 0 4.52.798 5.96 2.393 1.46 1.595 2.19 3.856 2.19 6.784v2.017h-11.77c.16 1.208.63 2.176 1.43 2.905.81.729 1.83 1.094 3.06 1.094 1.9 0 3.39-.689 4.46-2.068l2.43 2.717c-.74 1.048-1.74 1.869-3.01 2.461-1.26.581-2.67.872-4.2.872Zm-.57-15.176c-.98 0-1.78.33-2.39.991-.6.661-.99 1.607-1.16 2.837h6.87v-.393c-.03-1.094-.32-1.937-.89-2.529-.57-.604-1.38-.906-2.43-.906Zm26.73-10.049 6.39 18.047 6.36-18.047h6.73V464h-5.14v-6.802l.51-11.74-6.71 18.542h-3.52l-6.7-18.525.51 11.723V464h-5.13v-24.883h6.7Zm34.71 23.003c-1.22 1.481-2.9 2.222-5.06 2.222-1.98 0-3.5-.57-4.54-1.709-1.04-1.14-1.57-2.809-1.59-5.008v-12.116h4.94v11.946c0 1.925.87 2.888 2.63 2.888 1.67 0 2.82-.581 3.45-1.743v-13.091h4.96V464h-4.65l-.14-1.88Zm18.53-3.23c0-.604-.31-1.077-.91-1.418-.59-.354-1.55-.667-2.87-.94-4.4-.923-6.6-2.792-6.6-5.606 0-1.64.68-3.008 2.04-4.101 1.36-1.105 3.15-1.658 5.35-1.658 2.34 0 4.22.553 5.62 1.658 1.41 1.105 2.12 2.54 2.12 4.306h-4.94c0-.706-.23-1.287-.69-1.743-.45-.467-1.16-.7-2.13-.7-.83 0-1.48.187-1.93.563-.46.376-.69.855-.69 1.436 0 .547.26.991.77 1.333.53.33 1.4.621 2.63.872 1.23.239 2.27.512 3.11.82 2.61.957 3.92 2.615 3.92 4.973 0 1.686-.73 3.053-2.17 4.102-1.45 1.036-3.32 1.555-5.61 1.555-1.55 0-2.93-.274-4.13-.821-1.2-.558-2.14-1.315-2.82-2.272-.69-.969-1.03-2.011-1.03-3.128h4.68c.05.877.37 1.55.98 2.017.6.467 1.41.7 2.42.7.95 0 1.66-.176 2.14-.529.49-.365.74-.838.74-1.419Zm16.5 5.452c-2.71 0-4.92-.832-6.63-2.495-1.69-1.664-2.54-3.88-2.54-6.648v-.479c0-1.857.36-3.515 1.07-4.973.72-1.47 1.74-2.598 3.05-3.384 1.32-.797 2.82-1.196 4.51-1.196 2.53 0 4.52.798 5.96 2.393 1.46 1.595 2.19 3.856 2.19 6.784v2.017h-11.78c.16 1.208.64 2.176 1.44 2.905.81.729 1.83 1.094 3.06 1.094 1.9 0 3.39-.689 4.46-2.068l2.43 2.717c-.74 1.048-1.75 1.869-3.01 2.461-1.27.581-2.67.872-4.21.872Zm-.56-15.176c-.98 0-1.78.33-2.39.991-.61.661-.99 1.607-1.16 2.837h6.87v-.393c-.03-1.094-.32-1.937-.89-2.529-.57-.604-1.38-.906-2.43-.906Zm22.06 12.954c-1.22 1.481-2.9 2.222-5.06 2.222-1.98 0-3.49-.57-4.54-1.709-1.04-1.14-1.57-2.809-1.59-5.008v-12.116h4.94v11.946c0 1.925.88 2.888 2.63 2.888 1.68 0 2.83-.581 3.45-1.743v-13.091h4.96V464h-4.65l-.14-1.88Zm13.15-16.611.15 2.068c1.31-1.607 3.08-2.41 5.31-2.41 2.39 0 4.02.94 4.91 2.82 1.3-1.88 3.15-2.82 5.55-2.82 2.01 0 3.5.587 4.48 1.76.98 1.162 1.47 2.917 1.47 5.264V464h-4.96v-11.792c0-1.048-.2-1.812-.61-2.29-.41-.49-1.13-.735-2.17-.735-1.48 0-2.51.706-3.08 2.119l.02 12.698h-4.94v-11.775c0-1.071-.21-1.846-.63-2.324-.42-.479-1.14-.718-2.15-.718-1.41 0-2.42.581-3.05 1.743V464h-4.94v-18.491h4.64Zm47.63 11.963c0-.969-.35-1.709-1.03-2.222-.68-.524-1.91-1.071-3.69-1.641-1.78-.581-3.19-1.15-4.22-1.709-2.83-1.526-4.24-3.583-4.24-6.169 0-1.344.37-2.541 1.13-3.589.76-1.059 1.85-1.885 3.26-2.478 1.42-.592 3.02-.889 4.79-.889s3.36.325 4.75.975c1.39.638 2.46 1.543 3.23 2.717.77 1.173 1.16 2.506 1.16 3.999h-5.13c0-1.14-.36-2.022-1.07-2.649-.72-.638-1.73-.957-3.03-.957-1.25 0-2.23.268-2.92.803-.7.524-1.04 1.219-1.04 2.085 0 .809.4 1.487 1.21 2.034.82.547 2.02 1.059 3.61 1.538 2.91.877 5.04 1.965 6.37 3.264 1.33 1.299 2 2.917 2 4.854 0 2.153-.82 3.845-2.44 5.075-1.63 1.219-3.83 1.829-6.58 1.829-1.92 0-3.66-.348-5.23-1.043-1.58-.706-2.78-1.669-3.61-2.888-.82-1.219-1.23-2.632-1.23-4.238h5.14c0 2.746 1.64 4.119 4.93 4.119 1.21 0 2.17-.245 2.85-.735.68-.502 1.03-1.197 1.03-2.085Zm19.02 6.528c-.23-.444-.4-.997-.5-1.658-1.2 1.333-2.75 2-4.67 2-1.81 0-3.31-.524-4.51-1.572-1.18-1.049-1.77-2.37-1.77-3.965 0-1.96.72-3.464 2.17-4.512 1.45-1.048 3.56-1.578 6.3-1.589h2.28v-1.06c0-.854-.23-1.538-.67-2.051-.43-.512-1.12-.769-2.07-.769-.83 0-1.49.2-1.96.598-.47.399-.71.946-.71 1.641h-4.93c0-1.071.33-2.062.99-2.974.66-.911 1.59-1.623 2.8-2.136 1.21-.524 2.56-.786 4.07-.786 2.28 0 4.08.575 5.41 1.726 1.35 1.139 2.02 2.746 2.02 4.819v8.016c.01 1.754.26 3.081.74 3.981V464h-4.99Zm-4.09-3.435c.73 0 1.4-.16 2.02-.479.61-.33 1.07-.769 1.37-1.315v-3.179h-1.85c-2.47 0-3.79.854-3.95 2.563l-.02.291c0 .615.22 1.122.65 1.521.44.399 1.03.598 1.78.598Zm16.68-15.056.16 2.136c1.32-1.652 3.09-2.478 5.31-2.478 1.96 0 3.42.575 4.37 1.726.96 1.151 1.45 2.871 1.47 5.161V464h-4.93v-11.826c0-1.048-.23-1.806-.69-2.273-.45-.479-1.21-.718-2.27-.718-1.39 0-2.43.593-3.13 1.777V464h-4.94v-18.491h4.65Zm39.09 8.323H1522V464h-5.12v-24.883h16.2v4.153H1522v6.426h9.85v4.136Zm13.82-3.692c-.67-.091-1.26-.137-1.78-.137-1.86 0-3.09.633-3.67 1.897V464h-4.94v-18.491h4.67l.13 2.204c.99-1.697 2.37-2.546 4.12-2.546.55 0 1.06.074 1.54.222l-.07 4.751Zm12.6 13.86c-.23-.444-.4-.997-.5-1.658-1.2 1.333-2.75 2-4.66 2-1.82 0-3.32-.524-4.52-1.572-1.18-1.049-1.77-2.37-1.77-3.965 0-1.96.72-3.464 2.17-4.512 1.46-1.048 3.56-1.578 6.3-1.589h2.28v-1.06c0-.854-.23-1.538-.67-2.051-.43-.512-1.12-.769-2.07-.769-.83 0-1.49.2-1.96.598-.47.399-.7.946-.7 1.641h-4.94c0-1.071.33-2.062.99-2.974.66-.911 1.59-1.623 2.8-2.136 1.21-.524 2.56-.786 4.07-.786 2.28 0 4.08.575 5.42 1.726 1.34 1.139 2.01 2.746 2.01 4.819v8.016c.01 1.754.26 3.081.74 3.981V464h-4.99Zm-4.09-3.435c.73 0 1.4-.16 2.02-.479.61-.33 1.07-.769 1.37-1.315v-3.179h-1.85c-2.47 0-3.79.854-3.95 2.563l-.01.291c0 .615.21 1.122.64 1.521.44.399 1.03.598 1.78.598Zm16.68-15.056.16 2.136c1.32-1.652 3.09-2.478 5.31-2.478 1.96 0 3.42.575 4.38 1.726.95 1.151 1.44 2.871 1.47 5.161V464h-4.94v-11.826c0-1.048-.23-1.806-.69-2.273-.45-.479-1.21-.718-2.27-.718-1.39 0-2.43.593-3.13 1.777V464h-4.94v-18.491h4.65Zm22.77 14.851c.91 0 1.65-.251 2.22-.752.57-.501.86-1.168.89-2h4.63a6.392 6.392 0 0 1-1.03 3.453c-.67 1.036-1.59 1.845-2.77 2.426-1.16.57-2.45.855-3.86.855-2.64 0-4.73-.838-6.25-2.512-1.53-1.687-2.29-4.011-2.29-6.973v-.325c0-2.848.75-5.121 2.27-6.819 1.51-1.697 3.59-2.546 6.24-2.546 2.31 0 4.16.661 5.55 1.982 1.4 1.311 2.11 3.059 2.14 5.247h-4.63c-.03-.957-.32-1.732-.89-2.324-.57-.604-1.32-.906-2.26-.906-1.15 0-2.02.422-2.61 1.265-.58.831-.88 2.187-.88 4.067v.513c0 1.902.3 3.27.88 4.101.58.832 1.46 1.248 2.65 1.248Zm15.77 3.64h-4.96v-18.491h4.96V464Zm-5.25-23.276c0-.741.25-1.35.74-1.829.5-.478 1.18-.718 2.03-.718.84 0 1.52.24 2.02.718.5.479.75 1.088.75 1.829 0 .752-.26 1.367-.77 1.845-.5.479-1.17.718-2 .718-.83 0-1.5-.239-2.02-.718-.5-.478-.75-1.093-.75-1.845Zm19.35 18.166c0-.604-.3-1.077-.91-1.418-.59-.354-1.55-.667-2.87-.94-4.4-.923-6.6-2.792-6.6-5.606 0-1.64.68-3.008 2.04-4.101 1.37-1.105 3.15-1.658 5.35-1.658 2.34 0 4.22.553 5.62 1.658 1.41 1.105 2.12 2.54 2.12 4.306h-4.94c0-.706-.23-1.287-.68-1.743-.46-.467-1.17-.7-2.14-.7-.83 0-1.47.187-1.93.563-.46.376-.68.855-.68 1.436 0 .547.25.991.77 1.333.52.33 1.4.621 2.63.872 1.23.239 2.26.512 3.11.82 2.61.957 3.91 2.615 3.91 4.973 0 1.686-.72 3.053-2.17 4.102-1.45 1.036-3.32 1.555-5.61 1.555-1.54 0-2.92-.274-4.13-.821-1.2-.558-2.14-1.315-2.82-2.272-.68-.969-1.03-2.011-1.03-3.128h4.69c.04.877.37 1.55.97 2.017.6.467 1.41.7 2.43.7.94 0 1.66-.176 2.13-.529.49-.365.74-.838.74-1.419Zm15.69 1.47c.91 0 1.65-.251 2.22-.752.57-.501.86-1.168.89-2h4.63a6.309 6.309 0 0 1-1.03 3.453c-.67 1.036-1.59 1.845-2.77 2.426-1.16.57-2.44.855-3.86.855-2.64 0-4.73-.838-6.25-2.512-1.53-1.687-2.29-4.011-2.29-6.973v-.325c0-2.848.76-5.121 2.27-6.819 1.52-1.697 3.6-2.546 6.24-2.546 2.31 0 4.16.661 5.55 1.982 1.4 1.311 2.12 3.059 2.14 5.247h-4.63c-.03-.957-.32-1.732-.89-2.324-.57-.604-1.32-.906-2.26-.906-1.15 0-2.02.422-2.61 1.265-.58.831-.87 2.187-.87 4.067v.513c0 1.902.29 3.27.87 4.101.58.832 1.46 1.248 2.65 1.248Zm9.79-5.777c0-1.834.35-3.469 1.06-4.904.71-1.436 1.72-2.547 3.04-3.333 1.33-.786 2.88-1.179 4.63-1.179 2.5 0 4.53.763 6.1 2.29 1.59 1.527 2.47 3.6 2.65 6.221l.04 1.264c0 2.837-.8 5.116-2.38 6.836-1.58 1.709-3.71 2.564-6.37 2.564-2.67 0-4.8-.855-6.4-2.564-1.58-1.709-2.37-4.033-2.37-6.972v-.223Zm4.94.359c0 1.755.33 3.099.99 4.034.66.922 1.61 1.384 2.84 1.384 1.19 0 2.13-.456 2.8-1.367.67-.923 1.01-2.393 1.01-4.41 0-1.72-.34-3.053-1.01-3.999-.67-.945-1.62-1.418-2.84-1.418-1.21 0-2.14.473-2.8 1.418-.66.935-.99 2.387-.99 4.358Zm-425.52 35.763h-11.14v-2.615h15.07v2.017l-6.56 6.904c2.02.274 3.68 1.111 4.97 2.512 1.29 1.402 1.93 3.122 1.93 5.162 0 2.836-.88 5.092-2.63 6.767-1.76 1.675-4.09 2.512-6.99 2.512-2.3 0-4.65-.586-7.04-1.76l.89-2.375c1.88 1.002 3.83 1.504 5.84 1.504 2.05 0 3.69-.576 4.91-1.727 1.23-1.15 1.84-2.666 1.84-4.545 0-1.949-.53-3.39-1.59-4.324-1.05-.946-2.66-1.419-4.85-1.419h-1.03v-1.76l6.38-6.853Zm22.69 14.732h3.37v2.58h-3.37v5.623h-3.17v-5.623h-12.63v-1.863l12.4-18.064h3.4v17.347Zm-12.1 0h8.93V492.38l-.48.906-8.45 12.151Zm17.91-3.794 1.75-13.536h13.46v2.923h-10.97l-.92 6.767c1.26-.729 2.75-1.105 4.44-1.128 2.28-.022 4.1.73 5.47 2.256 1.38 1.516 2.07 3.555 2.07 6.118 0 2.723-.82 4.9-2.46 6.529-1.64 1.629-3.84 2.444-6.58 2.444-2.55 0-4.83-.65-6.82-1.949l.99-2.375c1.48 1.151 3.43 1.726 5.83 1.726 1.74 0 3.16-.592 4.24-1.777 1.09-1.174 1.64-2.695 1.64-4.563 0-1.63-.47-2.963-1.42-3.999-.93-1.037-2.17-1.556-3.71-1.556-1.21 0-2.15.166-2.82.496-.66.33-1.18.968-1.57 1.914l-2.62-.29Zm36.06-4.734c-2.81-.809-4.86-1.8-6.15-2.974-1.27-1.185-1.91-2.643-1.91-4.375 0-1.96.78-3.577 2.34-4.853 1.57-1.288 3.61-1.932 6.12-1.932 1.71 0 3.23.331 4.56.992 1.34.66 2.38 1.572 3.11 2.734a6.955 6.955 0 0 1 1.11 3.811h-3.3c0-1.504-.48-2.683-1.43-3.538-.96-.865-2.31-1.298-4.05-1.298-1.62 0-2.89.358-3.8 1.076-.9.707-1.35 1.692-1.35 2.957 0 1.014.43 1.874 1.28 2.58.87.695 2.33 1.333 4.4 1.914 2.07.581 3.69 1.225 4.85 1.932 1.17.695 2.04 1.509 2.6 2.443.57.935.85 2.034.85 3.299 0 2.016-.78 3.634-2.36 4.853-1.57 1.208-3.67 1.812-6.3 1.812-1.71 0-3.31-.325-4.79-.974-1.48-.661-2.62-1.561-3.43-2.701-.8-1.139-1.2-2.432-1.2-3.879h3.3c0 1.504.55 2.695 1.66 3.572 1.11.866 2.6 1.299 4.46 1.299 1.73 0 3.06-.353 3.98-1.06.92-.706 1.38-1.669 1.38-2.888 0-1.219-.42-2.159-1.28-2.82-.85-.672-2.4-1.333-4.65-1.982Zm28.58 2.05c0 2.815-.65 5.082-1.93 6.802-1.29 1.721-3.03 2.581-5.23 2.581-2.25 0-4.01-.712-5.3-2.136v8.903h-3.16v-25.6h2.89l.15 2.051c1.29-1.595 3.08-2.393 5.37-2.393 2.22 0 3.97.837 5.26 2.512 1.3 1.675 1.95 4.005 1.95 6.99v.29Zm-3.16-.358c0-2.085-.45-3.732-1.34-4.939-.89-1.208-2.1-1.812-3.65-1.812-1.92 0-3.35.849-4.31 2.546v8.836c.95 1.686 2.39 2.529 4.34 2.529 1.52 0 2.72-.598 3.61-1.794.9-1.208 1.35-2.997 1.35-5.366Zm14.86 9.741c-2.5 0-4.54-.821-6.11-2.461-1.58-1.652-2.36-3.857-2.36-6.614v-.581c0-1.834.35-3.469 1.04-4.905.71-1.447 1.69-2.575 2.94-3.384a7.38 7.38 0 0 1 4.1-1.23c2.41 0 4.27.792 5.61 2.375 1.33 1.584 2 3.851 2 6.802v1.316h-12.53c.05 1.823.58 3.298 1.59 4.426 1.02 1.117 2.32 1.675 3.9 1.675 1.11 0 2.06-.228 2.83-.683a7.073 7.073 0 0 0 2.04-1.812l1.93 1.504c-1.55 2.381-3.88 3.572-6.98 3.572Zm-.39-16.577c-1.27 0-2.35.467-3.21 1.401-.87.923-1.4 2.222-1.61 3.896h9.26v-.239c-.09-1.606-.52-2.848-1.29-3.725-.78-.889-1.83-1.333-3.15-1.333Zm22.7 16.235c-.19-.365-.33-1.014-.45-1.948-1.47 1.526-3.22 2.29-5.26 2.29-1.82 0-3.32-.513-4.5-1.538-1.16-1.037-1.74-2.347-1.74-3.931 0-1.925.73-3.418 2.19-4.477 1.47-1.071 3.53-1.607 6.19-1.607h3.07v-1.453c0-1.105-.33-1.982-.99-2.631-.66-.661-1.63-.992-2.92-.992-1.13 0-2.08.285-2.84.855-.76.57-1.14 1.259-1.14 2.068h-3.18c0-.923.32-1.812.97-2.666.66-.866 1.55-1.55 2.67-2.051 1.13-.501 2.36-.752 3.71-.752 2.13 0 3.8.535 5 1.606 1.21 1.06 1.84 2.524 1.88 4.393v8.51c0 1.698.22 3.048.65 4.051V508h-3.31Zm-5.25-2.41c.99 0 1.93-.256 2.82-.769.89-.512 1.53-1.179 1.93-1.999v-3.794h-2.48c-3.87 0-5.81 1.133-5.81 3.401 0 .991.33 1.766.99 2.324.66.558 1.51.837 2.55.837Zm21.81-13.244c-.48-.08-1-.12-1.56-.12-2.07 0-3.48.883-4.22 2.649V508h-3.16v-18.491h3.08l.05 2.136c1.03-1.652 2.5-2.478 4.41-2.478.61 0 1.08.08 1.4.239v2.94Zm19.43 4.563c-2.82-.809-4.87-1.8-6.15-2.974-1.28-1.185-1.92-2.643-1.92-4.375 0-1.96.78-3.577 2.34-4.853 1.58-1.288 3.61-1.932 6.12-1.932 1.71 0 3.23.331 4.56.992 1.35.66 2.39 1.572 3.11 2.734a6.883 6.883 0 0 1 1.12 3.811h-3.3c0-1.504-.48-2.683-1.44-3.538-.96-.865-2.31-1.298-4.05-1.298-1.62 0-2.88.358-3.79 1.076-.9.707-1.35 1.692-1.35 2.957 0 1.014.42 1.874 1.28 2.58.86.695 2.33 1.333 4.39 1.914 2.07.581 3.69 1.225 4.85 1.932 1.18.695 2.04 1.509 2.6 2.443.57.935.86 2.034.86 3.299 0 2.016-.79 3.634-2.36 4.853-1.57 1.208-3.68 1.812-6.31 1.812-1.71 0-3.3-.325-4.78-.974-1.48-.661-2.63-1.561-3.44-2.701-.8-1.139-1.19-2.432-1.19-3.879h3.29c0 1.504.56 2.695 1.66 3.572 1.12.866 2.6 1.299 4.46 1.299 1.73 0 3.06-.353 3.98-1.06.93-.706 1.39-1.669 1.39-2.888 0-1.219-.43-2.159-1.28-2.82-.86-.672-2.41-1.333-4.65-1.982Zm17.24-11.878v4.478h3.45v2.444h-3.45v11.467c0 .74.16 1.299.46 1.675.31.364.83.547 1.58.547.36 0 .86-.069 1.5-.205V508c-.83.228-1.64.342-2.43.342-1.41 0-2.48-.427-3.19-1.282-.72-.854-1.08-2.068-1.08-3.64v-11.467h-3.37v-2.444h3.37v-4.478h3.16Zm-183.56 55.878c-2.81-.809-4.87-1.8-6.15-2.974-1.28-1.185-1.92-2.643-1.92-4.375 0-1.96.78-3.577 2.34-4.853 1.58-1.288 3.62-1.932 6.12-1.932 1.71 0 3.23.331 4.57.992 1.34.66 2.38 1.572 3.11 2.734a6.955 6.955 0 0 1 1.11 3.811h-3.3c0-1.504-.48-2.683-1.44-3.538-.95-.865-2.3-1.298-4.05-1.298-1.62 0-2.88.358-3.79 1.076-.9.707-1.35 1.692-1.35 2.957 0 1.014.43 1.874 1.28 2.58.87.695 2.33 1.333 4.39 1.914 2.08.581 3.69 1.225 4.86 1.932 1.17.695 2.04 1.509 2.59 2.443.57.935.86 2.034.86 3.299 0 2.016-.79 3.634-2.36 4.853-1.57 1.208-3.67 1.812-6.31 1.812-1.71 0-3.3-.325-4.78-.974-1.48-.661-2.63-1.561-3.44-2.701-.79-1.139-1.19-2.432-1.19-3.879h3.3c0 1.504.55 2.695 1.65 3.572 1.12.866 2.61 1.299 4.46 1.299 1.74 0 3.06-.353 3.99-1.06.92-.706 1.38-1.669 1.38-2.888 0-1.219-.43-2.159-1.28-2.82-.86-.672-2.41-1.333-4.65-1.982ZM1249.59 552c-.18-.365-.33-1.014-.44-1.948-1.47 1.526-3.23 2.29-5.27 2.29-1.82 0-3.32-.513-4.49-1.538-1.16-1.037-1.75-2.347-1.75-3.931 0-1.925.73-3.418 2.19-4.477 1.47-1.071 3.53-1.607 6.19-1.607h3.07v-1.453c0-1.105-.33-1.982-.99-2.631-.66-.661-1.63-.992-2.92-.992-1.13 0-2.07.285-2.84.855-.76.57-1.14 1.259-1.14 2.068h-3.18c0-.923.32-1.812.97-2.666.66-.866 1.55-1.55 2.67-2.051 1.13-.501 2.36-.752 3.71-.752 2.13 0 3.8.535 5.01 1.606 1.2 1.06 1.83 2.524 1.88 4.393v8.51c0 1.698.21 3.048.65 4.051V552h-3.32Zm-5.25-2.41c.99 0 1.93-.256 2.82-.769.89-.512 1.54-1.179 1.93-1.999v-3.794h-2.47c-3.88 0-5.81 1.133-5.81 3.401 0 .991.33 1.766.99 2.324.66.558 1.51.837 2.54.837Zm15.86-16.081.11 2.324c1.41-1.777 3.25-2.666 5.53-2.666 3.91 0 5.88 2.205 5.92 6.614V552h-3.17v-12.236c-.01-1.333-.32-2.319-.92-2.957-.59-.638-1.52-.957-2.78-.957-1.03 0-1.93.274-2.7.82-.78.547-1.38 1.265-1.82 2.154V552h-3.16v-18.491h2.99Zm39.22 7.502h-10.44V552h-3.28v-24.883h15.42v2.7h-12.14v8.511h10.44v2.683Zm13.62-4.665c-.47-.08-.99-.12-1.55-.12-2.07 0-3.48.883-4.22 2.649V552h-3.16v-18.491h3.07l.05 2.136c1.04-1.652 2.51-2.478 4.41-2.478.62 0 1.09.08 1.4.239v2.94ZM1326.7 552c-.18-.365-.33-1.014-.45-1.948-1.46 1.526-3.22 2.29-5.26 2.29-1.82 0-3.32-.513-4.49-1.538-1.17-1.037-1.75-2.347-1.75-3.931 0-1.925.73-3.418 2.19-4.477 1.47-1.071 3.53-1.607 6.19-1.607h3.07v-1.453c0-1.105-.33-1.982-.99-2.631-.66-.661-1.63-.992-2.92-.992-1.13 0-2.07.285-2.84.855-.76.57-1.14 1.259-1.14 2.068h-3.18c0-.923.32-1.812.97-2.666.66-.866 1.55-1.55 2.67-2.051 1.13-.501 2.36-.752 3.71-.752 2.13 0 3.8.535 5.01 1.606 1.2 1.06 1.83 2.524 1.88 4.393v8.51c0 1.698.21 3.048.64 4.051V552h-3.31Zm-5.25-2.41c.99 0 1.93-.256 2.82-.769.89-.512 1.53-1.179 1.93-1.999v-3.794h-2.47c-3.88 0-5.81 1.133-5.81 3.401 0 .991.33 1.766.99 2.324.66.558 1.51.837 2.54.837Zm15.86-16.081.1 2.324c1.42-1.777 3.26-2.666 5.54-2.666 3.91 0 5.88 2.205 5.91 6.614V552h-3.16v-12.236c-.01-1.333-.32-2.319-.92-2.957-.59-.638-1.52-.957-2.79-.957-1.02 0-1.92.274-2.7.82-.77.547-1.37 1.265-1.81 2.154V552h-3.16v-18.491h2.99Zm23.74 16.252c1.13 0 2.11-.342 2.96-1.025.84-.684 1.31-1.538 1.4-2.564h2.99c-.06 1.06-.42 2.068-1.1 3.025-.67.957-1.57 1.721-2.7 2.29-1.11.57-2.3.855-3.55.855-2.52 0-4.52-.838-6.02-2.512-1.48-1.687-2.22-3.988-2.22-6.905v-.529c0-1.801.33-3.401.99-4.803.66-1.401 1.61-2.489 2.84-3.264 1.24-.775 2.71-1.162 4.39-1.162 2.08 0 3.8.621 5.16 1.863 1.38 1.242 2.12 2.854 2.21 4.836h-2.99c-.09-1.196-.55-2.176-1.37-2.939-.81-.775-1.81-1.162-3.01-1.162-1.6 0-2.85.581-3.74 1.743-.88 1.151-1.32 2.82-1.32 5.007v.598c0 2.131.44 3.771 1.32 4.922.88 1.151 2.13 1.726 3.76 1.726Zm14.34 2.239h-3.16v-18.491h3.16V552Zm-3.42-23.396c0-.513.15-.946.46-1.299.32-.353.79-.53 1.4-.53.62 0 1.09.177 1.4.53.32.353.48.786.48 1.299 0 .513-.16.94-.48 1.282-.31.342-.78.512-1.4.512-.61 0-1.08-.17-1.4-.512-.31-.342-.46-.769-.46-1.282Zm19.26 18.491c0-.854-.32-1.515-.97-1.982-.64-.479-1.76-.889-3.37-1.231-1.6-.341-2.87-.752-3.81-1.23-.94-.479-1.63-1.048-2.09-1.709-.44-.661-.66-1.447-.66-2.359 0-1.515.64-2.797 1.91-3.845 1.29-1.048 2.93-1.572 4.92-1.572 2.1 0 3.8.541 5.1 1.624 1.31 1.082 1.96 2.466 1.96 4.152h-3.18c0-.866-.37-1.612-1.11-2.238-.73-.627-1.65-.94-2.77-.94-1.15 0-2.05.25-2.7.752-.65.501-.97 1.156-.97 1.965 0 .763.3 1.339.9 1.726.61.387 1.7.758 3.27 1.111 1.58.353 2.86.775 3.84 1.264.98.49 1.71 1.083 2.17 1.778.48.683.72 1.521.72 2.512 0 1.652-.66 2.979-1.98 3.982-1.32.991-3.04 1.487-5.14 1.487-1.49 0-2.8-.262-3.94-.786-1.13-.524-2.03-1.254-2.68-2.188-.64-.945-.96-1.965-.96-3.059h3.17c.05 1.06.47 1.903 1.26 2.529.8.616 1.85.923 3.15.923 1.19 0 2.15-.239 2.87-.718.73-.489 1.09-1.139 1.09-1.948Zm14.7 2.666c1.13 0 2.11-.342 2.95-1.025.85-.684 1.31-1.538 1.41-2.564h2.99c-.06 1.06-.43 2.068-1.1 3.025-.67.957-1.57 1.721-2.7 2.29-1.11.57-2.3.855-3.55.855-2.52 0-4.53-.838-6.02-2.512-1.48-1.687-2.22-3.988-2.22-6.905v-.529c0-1.801.33-3.401.99-4.803.66-1.401 1.61-2.489 2.84-3.264 1.24-.775 2.7-1.162 4.39-1.162 2.07 0 3.79.621 5.16 1.863 1.38 1.242 2.12 2.854 2.21 4.836h-2.99c-.1-1.196-.55-2.176-1.37-2.939-.81-.775-1.81-1.162-3.01-1.162-1.61 0-2.85.581-3.74 1.743-.88 1.151-1.32 2.82-1.32 5.007v.598c0 2.131.44 3.771 1.32 4.922.88 1.151 2.13 1.726 3.76 1.726Zm10.06-7.178c0-1.811.36-3.44 1.06-4.887.72-1.447 1.71-2.564 2.98-3.35s2.73-1.179 4.35-1.179c2.52 0 4.56.872 6.11 2.615 1.56 1.743 2.34 4.061 2.34 6.955v.222c0 1.801-.35 3.418-1.05 4.854-.68 1.424-1.66 2.535-2.95 3.333-1.28.797-2.75 1.196-4.41 1.196-2.51 0-4.54-.872-6.1-2.615-1.55-1.743-2.33-4.05-2.33-6.921v-.223Zm3.18.376c0 2.051.48 3.698 1.42 4.939.96 1.242 2.23 1.863 3.83 1.863 1.61 0 2.88-.626 3.83-1.88.94-1.264 1.42-3.03 1.42-5.298 0-2.027-.49-3.668-1.46-4.921-.95-1.265-2.23-1.897-3.83-1.897-1.56 0-2.82.621-3.77 1.862-.96 1.242-1.44 3.02-1.44 5.332Zm17.52 13.997-1.79-1.23c1.07-1.493 1.62-3.031 1.67-4.615v-2.854h3.09v2.478c0 1.151-.28 2.302-.85 3.453-.56 1.15-1.27 2.073-2.12 2.768Zm34.45-12.852c-.31 2.632-1.28 4.666-2.92 6.102-1.63 1.424-3.8 2.136-6.51 2.136-2.94 0-5.3-1.054-7.08-3.162-1.76-2.108-2.65-4.927-2.65-8.459v-2.393c0-2.313.42-4.346 1.24-6.101.83-1.755 2-3.099 3.52-4.033 1.51-.946 3.27-1.419 5.26-1.419 2.64 0 4.76.741 6.36 2.222 1.59 1.47 2.52 3.509 2.78 6.118h-3.3c-.28-1.982-.9-3.418-1.86-4.306-.94-.889-2.27-1.333-3.98-1.333-2.1 0-3.74.774-4.94 2.324-1.18 1.549-1.78 3.754-1.78 6.614v2.409c0 2.7.57 4.848 1.7 6.443 1.12 1.595 2.7 2.393 4.73 2.393 1.82 0 3.22-.41 4.19-1.231.98-.831 1.63-2.273 1.94-4.324h3.3Zm18.24 1.402h-10.43l-2.34 6.494h-3.38l9.5-24.883h2.87l9.52 24.883h-3.37l-2.37-6.494Zm-9.44-2.7h8.46l-4.23-11.639-4.23 11.639Zm31.91 12.458c2.02 0 3.65-.695 4.91-2.085 1.25-1.39 1.99-3.321 2.23-5.793-1.35 1.196-3.07 1.794-5.16 1.794-2.39 0-4.32-.786-5.77-2.358-1.45-1.572-2.17-3.646-2.17-6.221 0-1.777.33-3.338.99-4.683.67-1.344 1.6-2.375 2.8-3.093 1.2-.718 2.55-1.076 4.05-1.076 2.68 0 4.76.831 6.24 2.495 1.49 1.663 2.25 4.01 2.27 7.041v4.272c0 2.507-.41 4.688-1.25 6.546-.83 1.857-2.01 3.281-3.55 4.272-1.53.991-3.29 1.487-5.28 1.487-1.81 0-3.39-.342-4.74-1.026l.65-2.426c1.39.569 2.65.854 3.78.854Zm2.14-8.681c1.19 0 2.24-.263 3.14-.787.91-.524 1.56-1.253 1.95-2.187v-2.529c0-2.245-.46-3.925-1.38-5.042-.92-1.128-2.2-1.692-3.87-1.692-1.44 0-2.6.558-3.47 1.675-.86 1.105-1.3 2.632-1.3 4.58 0 1.698.47 3.122 1.39 4.273.93 1.139 2.11 1.709 3.54 1.709Zm26.37 2.854h3.36v2.58h-3.36v5.623h-3.18v-5.623h-12.63v-1.863l12.41-18.064h3.4v17.347Zm-12.1 0h8.92V536.38l-.48.906-8.44 12.151Zm29 2.563h-3.16v-15.962l-6.29 2.376v-2.872l8.92-3.452h.53V552Zm24.8-9.775c0 3.167-.8 5.651-2.4 7.451-1.59 1.789-3.75 2.683-6.47 2.683-2.73 0-4.89-.9-6.5-2.7-1.6-1.8-2.41-4.273-2.42-7.417v-.342c0-3.145.79-5.623 2.39-7.434 1.6-1.812 3.77-2.717 6.49-2.717s4.88.9 6.48 2.7c1.61 1.8 2.41 4.278 2.43 7.434v.342Zm-3.18-.564c0-2.302-.51-4.096-1.52-5.384-1.02-1.287-2.42-1.931-4.21-1.931-1.76 0-3.15.638-4.17 1.914-1.01 1.276-1.53 3.037-1.55 5.281v.889c0 2.29.52 4.09 1.55 5.4 1.04 1.299 2.44 1.948 4.21 1.948 1.75 0 3.13-.626 4.13-1.88 1.02-1.264 1.53-3.047 1.56-5.349v-.888Zm6.66 3.982 1.75-13.536h13.46v2.923h-10.97l-.92 6.767c1.26-.729 2.74-1.105 4.44-1.128 2.28-.022 4.1.73 5.47 2.256 1.38 1.516 2.07 3.555 2.07 6.118 0 2.723-.82 4.9-2.46 6.529-1.64 1.629-3.84 2.444-6.58 2.444-2.56 0-4.83-.65-6.82-1.949l.99-2.375c1.48 1.151 3.42 1.726 5.83 1.726 1.74 0 3.15-.592 4.24-1.777 1.09-1.174 1.64-2.695 1.64-4.563 0-1.63-.48-2.963-1.42-3.999-.94-1.037-2.17-1.556-3.71-1.556-1.21 0-2.15.166-2.82.496-.66.33-1.19.968-1.57 1.914l-2.62-.29Zm-350.13 25.474v16.919c-.02 2.347-.76 4.267-2.23 5.759-1.45 1.493-3.44 2.33-5.94 2.513l-.88.034c-2.72 0-4.89-.735-6.51-2.205-1.61-1.47-2.43-3.492-2.46-6.067v-16.953h3.25v16.851c0 1.8.5 3.201 1.49 4.204.99.991 2.4 1.487 4.23 1.487 1.86 0 3.28-.496 4.26-1.487.99-.991 1.49-2.387 1.49-4.187v-16.868h3.3Zm7.67 6.392.1 2.324c1.41-1.777 3.26-2.666 5.54-2.666 3.91 0 5.88 2.205 5.91 6.614V596h-3.16v-12.236c-.01-1.333-.32-2.319-.92-2.957-.6-.638-1.52-.957-2.79-.957-1.02 0-1.92.274-2.7.82a5.583 5.583 0 0 0-1.81 2.154V596h-3.16v-18.491h2.99ZM1262.83 596h-3.16v-18.491h3.16V596Zm-3.41-23.396c0-.513.15-.946.46-1.299.32-.353.78-.53 1.4-.53.61 0 1.08.177 1.4.53.32.353.48.786.48 1.299 0 .513-.16.94-.48 1.282-.32.342-.79.512-1.4.512-.62 0-1.08-.17-1.4-.512-.31-.342-.46-.769-.46-1.282Zm12.78.427v4.478h3.45v2.444h-3.45v11.467c0 .74.15 1.299.46 1.675.31.364.83.547 1.57.547.37 0 .87-.069 1.51-.205V596c-.83.228-1.64.342-2.43.342-1.41 0-2.48-.427-3.2-1.282-.71-.854-1.07-2.068-1.07-3.64v-11.467h-3.37v-2.444h3.37v-4.478h3.16Zm14.83 23.311c-2.5 0-4.54-.821-6.11-2.461-1.58-1.652-2.36-3.857-2.36-6.614v-.581c0-1.834.34-3.469 1.04-4.905.71-1.447 1.69-2.575 2.94-3.384a7.38 7.38 0 0 1 4.1-1.23c2.4 0 4.27.792 5.61 2.375 1.33 1.584 2 3.851 2 6.802v1.316h-12.53c.04 1.823.57 3.298 1.59 4.426 1.02 1.117 2.32 1.675 3.89 1.675 1.12 0 2.07-.228 2.84-.683.78-.456 1.45-1.06 2.04-1.812l1.93 1.504c-1.55 2.381-3.88 3.572-6.98 3.572Zm-.39-16.577c-1.28 0-2.35.467-3.21 1.401-.87.923-1.4 2.222-1.61 3.896h9.26v-.239c-.09-1.606-.52-2.848-1.29-3.725-.78-.889-1.83-1.333-3.15-1.333Zm10.51 6.836c0-2.837.67-5.116 2.02-6.836 1.34-1.732 3.1-2.598 5.28-2.598 2.16 0 3.88.741 5.14 2.222v-9.639h3.16V596h-2.9l-.16-1.982c-1.26 1.549-3.02 2.324-5.28 2.324-2.14 0-3.89-.877-5.24-2.632-1.35-1.755-2.02-4.045-2.02-6.87v-.239Zm3.16.358c0 2.097.44 3.737 1.3 4.922.87 1.185 2.06 1.778 3.59 1.778 2.01 0 3.47-.9 4.39-2.701v-8.493c-.94-1.743-2.4-2.615-4.36-2.615-1.55 0-2.75.598-3.62 1.795-.86 1.196-1.3 2.967-1.3 5.314Zm33.87-2.05c-2.81-.809-4.86-1.8-6.15-2.974-1.27-1.185-1.91-2.643-1.91-4.375 0-1.96.78-3.577 2.34-4.853 1.57-1.288 3.61-1.932 6.12-1.932 1.71 0 3.23.331 4.56.992 1.35.66 2.38 1.572 3.11 2.734a6.955 6.955 0 0 1 1.11 3.811h-3.3c0-1.504-.48-2.683-1.43-3.538-.96-.865-2.31-1.298-4.05-1.298-1.62 0-2.88.358-3.8 1.076-.9.707-1.35 1.692-1.35 2.957 0 1.014.43 1.874 1.29 2.58.86.695 2.33 1.333 4.39 1.914 2.07.581 3.69 1.225 4.85 1.932 1.17.695 2.04 1.509 2.6 2.443.57.935.85 2.034.85 3.299 0 2.016-.78 3.634-2.36 4.853-1.57 1.208-3.67 1.812-6.3 1.812-1.71 0-3.31-.325-4.79-.974-1.48-.661-2.62-1.561-3.43-2.701-.8-1.139-1.2-2.432-1.2-3.879h3.3c0 1.504.55 2.695 1.66 3.572 1.11.866 2.6 1.299 4.46 1.299 1.73 0 3.06-.353 3.98-1.06.92-.706 1.38-1.669 1.38-2.888 0-1.219-.42-2.159-1.28-2.82-.85-.672-2.4-1.333-4.65-1.982Zm17.25-11.878v4.478h3.45v2.444h-3.45v11.467c0 .74.15 1.299.46 1.675.31.364.83.547 1.57.547.37 0 .87-.069 1.51-.205V596a9.21 9.21 0 0 1-2.43.342c-1.41 0-2.48-.427-3.2-1.282-.71-.854-1.07-2.068-1.07-3.64v-11.467h-3.37v-2.444h3.37v-4.478h3.16ZM1370 596c-.18-.365-.33-1.014-.44-1.948-1.47 1.526-3.22 2.29-5.26 2.29-1.83 0-3.32-.513-4.5-1.538-1.16-1.037-1.74-2.347-1.74-3.931 0-1.925.73-3.418 2.19-4.477 1.47-1.071 3.53-1.607 6.18-1.607h3.08v-1.453c0-1.105-.33-1.982-.99-2.631-.66-.661-1.64-.992-2.92-.992-1.13 0-2.08.285-2.84.855-.76.57-1.15 1.259-1.15 2.068h-3.17c0-.923.32-1.812.97-2.666.66-.866 1.55-1.55 2.67-2.051 1.12-.501 2.36-.752 3.7-.752 2.13 0 3.8.535 5.01 1.606 1.21 1.06 1.84 2.524 1.88 4.393v8.51c0 1.698.22 3.048.65 4.051V596H1370Zm-5.24-2.41c.99 0 1.93-.256 2.82-.769.89-.512 1.53-1.179 1.93-1.999v-3.794h-2.48c-3.87 0-5.81 1.133-5.81 3.401 0 .991.33 1.766.99 2.324.66.558 1.51.837 2.55.837Zm17.16-20.559v4.478h3.45v2.444h-3.45v11.467c0 .74.15 1.299.46 1.675.31.364.83.547 1.57.547.36 0 .87-.069 1.5-.205V596c-.83.228-1.64.342-2.42.342-1.42 0-2.48-.427-3.2-1.282-.72-.854-1.08-2.068-1.08-3.64v-11.467h-3.36v-2.444h3.36v-4.478h3.17Zm14.83 23.311c-2.51 0-4.55-.821-6.12-2.461-1.57-1.652-2.36-3.857-2.36-6.614v-.581c0-1.834.35-3.469 1.05-4.905.7-1.447 1.68-2.575 2.94-3.384a7.38 7.38 0 0 1 4.1-1.23c2.4 0 4.27.792 5.6 2.375 1.34 1.584 2 3.851 2 6.802v1.316h-12.52c.04 1.823.57 3.298 1.58 4.426 1.03 1.117 2.33 1.675 3.9 1.675 1.12 0 2.06-.228 2.84-.683a7.169 7.169 0 0 0 2.03-1.812l1.93 1.504c-1.55 2.381-3.87 3.572-6.97 3.572Zm-.39-16.577c-1.28 0-2.35.467-3.22 1.401-.86.923-1.4 2.222-1.6 3.896h9.26v-.239c-.09-1.606-.52-2.848-1.3-3.725-.77-.889-1.82-1.333-3.14-1.333Zm22.04 11.33c0-.854-.32-1.515-.97-1.982-.64-.479-1.76-.889-3.37-1.231-1.59-.341-2.86-.752-3.81-1.23-.93-.479-1.63-1.048-2.08-1.709-.45-.661-.67-1.447-.67-2.359 0-1.515.64-2.797 1.91-3.845 1.29-1.048 2.93-1.572 4.93-1.572 2.09 0 3.79.541 5.09 1.624 1.31 1.082 1.96 2.466 1.96 4.152h-3.17c0-.866-.37-1.612-1.12-2.238-.72-.627-1.65-.94-2.76-.94-1.15 0-2.05.25-2.7.752-.65.501-.98 1.156-.98 1.965 0 .763.3 1.339.91 1.726.6.387 1.69.758 3.26 1.111 1.59.353 2.87.775 3.85 1.264.98.49 1.7 1.083 2.17 1.778.48.683.71 1.521.71 2.512 0 1.652-.66 2.979-1.98 3.982-1.32.991-3.03 1.487-5.14 1.487-1.48 0-2.79-.262-3.93-.786-1.14-.524-2.04-1.254-2.69-2.188-.63-.945-.95-1.965-.95-3.059h3.16c.06 1.06.48 1.903 1.26 2.529.8.616 1.85.923 3.15.923 1.19 0 2.15-.239 2.87-.718.73-.489 1.09-1.139 1.09-1.948Z" fill="#3C4043"/></svg>