<svg width="1920" height="1080" fill="none" xmlns="http://www.w3.org/2000/svg"><g clip-path="url(#a)"><path fill="#D2E3FC" d="M50 980h1820v5H50z"/><path fill="#D2E3FC" d="M228 869h5v116h-5zM374 869h5v116h-5zM520 869h5v116h-5zM666 869h5v116h-5zM812 869h5v116h-5zM958 869h5v116h-5zM1104 869h5v116h-5zM1250 869h5v116h-5zM1396 869h5v116h-5zM1542 869h5v116h-5zM1688 869h5v116h-5z"/><path d="M302.47 988.318c-12.166 0-22.91-2.528-32.232-7.584-9.164-5.214-16.432-12.403-21.804-21.567-5.372-9.322-8.058-20.145-8.058-32.469 0-12.324 2.686-23.147 8.058-32.469 5.372-9.322 12.64-16.511 21.804-21.567 9.322-5.214 20.066-7.821 32.232-7.821s22.91 2.607 32.232 7.821c9.322 5.056 16.59 12.245 21.804 21.567 5.372 9.322 8.058 20.145 8.058 32.469 0 12.324-2.686 23.147-8.058 32.469-5.214 9.164-12.482 16.353-21.804 21.567-9.322 5.056-20.066 7.584-32.232 7.584Zm0-21.804c7.584 0 14.141-1.659 19.671-4.977 5.688-3.476 10.112-8.216 13.272-14.22 3.16-6.004 4.74-12.877 4.74-20.619 0-7.742-1.58-14.615-4.74-20.619s-7.584-10.744-13.272-14.22c-5.53-3.476-12.087-5.214-19.671-5.214s-14.22 1.738-19.908 5.214c-5.53 3.476-9.875 8.216-13.035 14.22-3.16 6.004-4.74 12.877-4.74 20.619 0 7.742 1.58 14.615 4.74 20.619s7.505 10.744 13.035 14.22c5.688 3.318 12.324 4.977 19.908 4.977ZM448.964 985v-99.303h-3.792l-17.064 34.602h-25.596l26.781-52.14h44.082V985h-24.411Zm-61.146 0v-20.856h125.373V985H387.818Zm152.887 0v-13.272c0-12.482 4.108-22.278 12.324-29.388 8.216-7.268 19.276-12.087 33.18-14.457l14.931-2.37c8.216-1.422 14.852-3.713 19.908-6.873 5.056-3.16 7.584-7.821 7.584-13.983 0-6.478-2.765-11.297-8.295-14.457-5.372-3.318-12.482-4.977-21.33-4.977-9.006 0-16.748 1.896-23.226 5.688-6.32 3.792-10.033 10.349-11.139 19.671l-23.7-4.029c1.106-9.322 4.345-17.064 9.717-23.226 5.372-6.162 12.166-10.744 20.382-13.746 8.374-3.16 17.696-4.74 27.966-4.74s19.434 1.501 27.492 4.503c8.216 3.002 14.615 7.426 19.197 13.272 4.74 5.846 7.11 13.193 7.11 22.041 0 8.532-1.975 15.563-5.925 21.093-3.95 5.53-9.401 9.796-16.353 12.798-6.952 3.002-14.931 5.214-23.937 6.636l-17.301 2.844c-6.32.948-11.534 2.765-15.642 5.451-4.108 2.686-6.162 6.478-6.162 11.376h84.135V985H540.705Zm200.767 50.72c-11.534 0-21.725-2.13-30.573-6.4-8.848-4.27-15.958-10.19-21.33-17.78-5.214-7.42-8.216-15.954-9.006-25.592l24.174-3.555c.948 10.428 4.661 18.407 11.139 23.937 6.636 5.53 15.168 8.29 25.596 8.29 7.11 0 13.114-1.34 18.012-4.02 5.056-2.53 8.927-6.09 11.613-10.669 2.686-4.582 4.029-9.875 4.029-15.879v-1.896c0-6.162-1.422-11.297-4.266-15.405-2.844-4.108-6.715-7.189-11.613-9.243-4.898-2.054-10.27-3.081-16.116-3.081h-28.44V928.12l54.036-35.787v-3.318h-84.372v-20.856h113.049v29.625l-54.036 35.787v3.318h7.584c8.532 0 16.432 1.738 23.7 5.214 7.426 3.318 13.43 8.374 18.012 15.168 4.582 6.636 6.873 14.931 6.873 24.885V985c0 9.796-2.449 18.49-7.347 26.07-4.74 7.58-11.455 13.59-20.145 18.01-8.532 4.43-18.723 6.64-30.573 6.64Zm164.032-3.32V985h-80.58v-27.255l61.383-89.586h43.608v95.985h27.729V985h-27.729v47.4h-24.411Zm-56.169-68.256h56.169v-79.158h-3.792l-52.377 75.84v3.318Zm189.155 71.576c-12.01 0-22.28-2.21-30.81-6.64-8.534-4.42-15.17-10.43-19.91-18.01-4.74-7.43-7.505-15.642-8.295-24.648l24.175-3.555c1.11 9.48 4.58 17.143 10.43 22.993 6 6 14.14 9 24.41 9 10.58 0 18.96-3.08 25.12-9.24 6.16-6.163 9.24-14.774 9.24-25.834v-2.133c0-10.586-3-18.802-9-24.648-6.01-6.004-13.59-9.006-22.75-9.006-5.06 0-9.33.79-12.8 2.37-3.32 1.58-6.09 3.555-8.3 5.925-2.05 2.37-3.71 4.74-4.97 7.11h-30.578v-91.245h106.888v20.856h-82.48v50.007h3.56c1.58-2.37 3.79-4.74 6.63-7.11 2.85-2.528 6.56-4.582 11.14-6.162 4.59-1.738 10.12-2.607 16.59-2.607 9.33 0 17.78 2.133 25.36 6.399 7.74 4.108 13.83 10.191 18.25 18.249 4.58 8.058 6.87 17.775 6.87 29.151v2.844c0 11.218-2.37 21.014-7.11 29.384-4.74 8.54-11.53 15.09-20.38 19.68-8.69 4.58-19.12 6.87-31.28 6.87Zm145.54-47.402c-11.69 0-22.04-2.291-31.04-6.873-8.85-4.74-15.8-11.297-20.86-19.671-5.05-8.374-7.58-18.091-7.58-29.151v-57.354c0-12.956 2.53-23.858 7.58-32.706 5.06-8.848 12.09-15.484 21.09-19.908 9.01-4.582 19.52-6.873 31.53-6.873 11.37 0 21.25 1.896 29.62 5.688 8.37 3.792 15.01 9.164 19.91 16.116s7.74 15.168 8.53 24.648l-24.65 2.133c-.63-8.058-3.71-14.694-9.24-19.908-5.37-5.214-13.43-7.821-24.17-7.821-11.22 0-19.99 3.239-26.31 9.717-6.32 6.478-9.48 15.405-9.48 26.781v20.145h3.79c1.9-2.528 4.42-5.056 7.58-7.584 3.16-2.528 7.27-4.661 12.33-6.399 5.21-1.738 11.37-2.607 18.48-2.607 9.48 0 18.25 2.212 26.31 6.636 8.06 4.266 14.54 10.428 19.44 18.486 4.89 7.9 7.34 17.459 7.34 28.677v2.844c0 10.902-2.6 20.54-7.82 28.914-5.05 8.216-12.09 14.615-21.09 19.197-9.01 4.582-19.44 6.873-31.29 6.873Zm.48-21.093c10.43 0 18.88-3.081 25.36-9.243 6.63-6.162 9.95-14.457 9.95-24.885v-1.896c0-10.428-3.32-18.723-9.95-24.885-6.48-6.162-14.93-9.243-25.36-9.243s-18.96 3.081-25.6 9.243c-6.63 6.162-9.95 14.457-9.95 24.885v1.896c0 10.428 3.24 18.723 9.72 24.885 6.63 6.162 15.24 9.243 25.83 9.243Zm106.2 65.175v-5.69c0-5.84.48-10.82 1.42-14.93 1.11-4.11 3.16-8.77 6.17-13.982l60.67-105.465v-3.318h-96.46v-20.856h122.29v27.492l-64.94 112.339c-1.89 3.63-3.24 6.79-4.03 9.48-.79 2.84-1.18 6.32-1.18 10.43v4.5h-23.94Zm180.62-44.082c-11.53 0-21.88-1.817-31.04-5.451-9.17-3.634-16.44-8.927-21.81-15.879-5.21-7.11-7.82-15.721-7.82-25.833v-2.37c0-7.742 1.5-14.22 4.5-19.434 3.01-5.214 6.64-9.322 10.91-12.324 4.26-3.002 8.37-4.977 12.32-5.925v-4.029c-3.79-1.264-7.66-3.318-11.61-6.162-3.79-3.002-7.03-6.952-9.72-11.85-2.53-4.898-3.79-10.902-3.79-18.012v-2.133c0-8.848 2.45-16.432 7.35-22.752 5.05-6.478 11.92-11.455 20.61-14.931 8.85-3.634 18.89-5.451 30.1-5.451 11.38 0 21.41 1.817 30.1 5.451 8.85 3.476 15.72 8.453 20.62 14.931 5.06 6.32 7.59 13.904 7.59 22.752v2.133c0 7.11-1.35 13.114-4.03 18.012-2.53 4.898-5.77 8.848-9.72 11.85-3.79 2.844-7.58 4.898-11.38 6.162v4.029c3.95.948 8.06 2.923 12.33 5.925 4.26 3.002 7.9 7.11 10.9 12.324 3 5.214 4.5 11.692 4.5 19.434v2.37c0 10.112-2.68 18.723-8.06 25.833-5.21 6.952-12.4 12.245-21.56 15.879-9.17 3.634-19.59 5.451-31.29 5.451Zm0-20.856c11.06 0 19.91-2.449 26.55-7.347 6.79-5.056 10.19-11.929 10.19-20.619V937.6c0-8.69-3.32-15.405-9.96-20.145-6.63-4.74-15.56-7.11-26.78-7.11-11.06 0-19.9 2.37-26.54 7.11-6.64 4.74-9.95 11.455-9.95 20.145v1.896c0 8.69 3.31 15.563 9.95 20.619 6.79 4.898 15.64 7.347 26.54 7.347Zm0-77.973c10.27 0 18.49-2.133 24.65-6.399 6.32-4.424 9.48-10.744 9.48-18.96v-1.896c0-8.216-3.16-14.536-9.48-18.96-6.32-4.424-14.53-6.636-24.65-6.636-9.95 0-18.09 2.212-24.41 6.636-6.32 4.424-9.48 10.744-9.48 18.96v1.896c0 8.216 3.08 14.536 9.25 18.96 6.32 4.266 14.53 6.399 24.64 6.399Zm144.36 146.231c-11.21 0-21.09-1.9-29.62-5.69-8.37-3.79-15.01-9.16-19.91-16.12-4.74-6.79-7.58-14.769-8.53-23.933l24.65-2.37c.79 7.742 3.87 14.223 9.24 19.433 5.53 5.22 13.59 7.82 24.17 7.82 11.22 0 19.99-3.24 26.31-9.71 6.32-6.483 9.48-15.41 9.48-26.786v-18.486h-3.79c-1.74 2.528-4.27 5.135-7.58 7.821-3.16 2.528-7.27 4.661-12.33 6.399-5.05 1.738-11.14 2.607-18.25 2.607-9.48 0-18.33-2.133-26.54-6.399-8.06-4.424-14.54-10.665-19.44-18.723-4.89-8.216-7.34-17.775-7.34-28.677v-2.844c0-11.218 2.53-20.935 7.58-29.151 5.22-8.216 12.33-14.615 21.33-19.197 9.17-4.582 19.59-6.873 31.29-6.873 11.85 0 22.19 2.37 31.04 7.11 8.85 4.582 15.8 11.06 20.86 19.434 5.05 8.374 7.58 18.17 7.58 29.388v55.458c0 12.956-2.53 23.859-7.58 32.709-5.06 8.85-12.09 15.48-21.09 19.91-8.85 4.58-19.36 6.87-31.53 6.87Zm.48-79.634c10.43 0 18.88-3.081 25.36-9.243 6.63-6.162 9.95-14.457 9.95-24.885v-1.896c0-10.27-3.32-18.486-9.95-24.648-6.48-6.162-14.93-9.243-25.36-9.243-10.59 0-19.2 3.081-25.83 9.243-6.48 6.162-9.72 14.378-9.72 24.648v1.896c0 10.428 3.32 18.723 9.95 24.885 6.64 6.162 15.17 9.243 25.6 9.243Z" fill="#FF6D7F"/><path fill="#D2E3FC" d="M50 734h1820v5H50z"/><path fill="#D2E3FC" d="M231 573h5v166h-5zM377 573h5v166h-5zM523 573h5v166h-5zM669 573h5v166h-5zM815 573h5v166h-5zM961 573h5v166h-5zM1107 573h5v166h-5zM1253 573h5v166h-5zM1399 573h5v166h-5zM1545 573h5v166h-5zM1691 573h5v166h-5z"/><path d="M306.47 742.318c-19.276 0-34.681-5.451-46.215-16.353-11.376-11.06-17.064-27.65-17.064-49.77v-40.29c0-21.646 5.688-38.078 17.064-49.296 11.534-11.218 26.939-16.827 46.215-16.827 19.434 0 34.839 5.609 46.215 16.827 11.534 11.218 17.301 27.65 17.301 49.296v40.29c0 22.12-5.767 38.71-17.301 49.77-11.376 10.902-26.781 16.353-46.215 16.353Zm0-22.278c13.114 0 22.831-3.713 29.151-11.139 6.32-7.584 9.48-18.17 9.48-31.758v-42.66c0-13.588-3.397-24.016-10.191-31.284-6.794-7.426-16.274-11.139-28.44-11.139-12.324 0-21.804 3.792-28.44 11.376-6.636 7.426-9.954 17.775-9.954 31.047v42.66c0 13.904 3.16 24.569 9.48 31.995 6.478 7.268 16.116 10.902 28.914 10.902ZM451.068 739V591.112h-3.792l-20.145 55.458h-25.359l27.255-73.47h47.163V739h-25.122Zm-55.458 0v-23.226h120.87V739H395.61Zm145.546 0v-18.723c0-11.534 1.975-21.014 5.925-28.44 3.95-7.426 9.559-13.43 16.827-18.012 7.426-4.74 16.353-8.69 26.781-11.85l14.457-4.503c6.478-2.054 12.008-4.582 16.59-7.584 4.74-3.002 8.374-6.715 10.902-11.139 2.528-4.582 3.792-9.875 3.792-15.879v-.948c0-9.322-3.16-16.59-9.48-21.804-6.32-5.372-14.615-8.058-24.885-8.058-10.586 0-19.197 2.844-25.833 8.532-6.478 5.688-9.717 14.062-9.717 25.122v3.792h-24.648v-3.555c0-12.008 2.607-22.12 7.821-30.336 5.214-8.374 12.403-14.773 21.567-19.197 9.164-4.424 19.434-6.636 30.81-6.636 11.376 0 21.488 2.133 30.336 6.399 9.006 4.266 16.037 10.27 21.093 18.012 5.214 7.742 7.821 16.827 7.821 27.255v2.133c0 10.744-2.133 19.671-6.399 26.781-4.266 7.11-10.191 12.956-17.775 17.538-7.426 4.582-16.037 8.453-25.833 11.613l-13.983 4.266c-7.426 2.212-13.43 4.661-18.012 7.347-4.424 2.528-7.742 5.609-9.954 9.243-2.054 3.634-3.081 8.295-3.081 13.983v2.37h93.615V739H541.156Zm206.217 3.318c-12.166 0-22.989-2.212-32.469-6.636-9.48-4.424-16.906-10.823-22.278-19.197-5.214-8.374-7.821-18.328-7.821-29.862v-4.266h24.885v3.792c0 10.428 3.397 18.723 10.191 24.885 6.952 6.004 16.116 9.006 27.492 9.006 11.376 0 20.224-2.844 26.544-8.532 6.32-5.688 9.48-12.877 9.48-21.567v-2.133c0-6.162-1.501-11.139-4.503-14.931-3.002-3.792-7.031-6.557-12.087-8.295-5.056-1.896-10.744-2.844-17.064-2.844h-30.099v-28.677l58.302-34.365v-3.318h-89.112V573.1h116.13v33.654l-55.695 33.18v3.318h10.191c8.374 0 16.274 1.58 23.7 4.74 7.426 3.16 13.43 7.979 18.012 14.457 4.74 6.478 7.11 14.694 7.11 24.648v2.844c0 10.586-2.528 19.829-7.584 27.729-5.056 7.742-12.166 13.825-21.33 18.249-9.164 4.266-19.829 6.399-31.995 6.399ZM910.457 739v-33.891h-81.528v-28.914L889.838 573.1h45.504v109.968h27.729v22.041h-27.729V739h-24.885Zm-57.591-55.932h57.591v-94.326h-3.792l-53.799 91.008v3.318Zm187.494 59.25c-12.48 0-23.3-2.291-32.47-6.873-9.162-4.582-16.272-11.06-21.328-19.434-4.898-8.374-7.347-18.091-7.347-29.151v-2.607h25.355v2.37c0 10.112 3.08 18.249 9.25 24.411 6.32 6.004 15.09 9.006 26.3 9.006 11.54 0 20.46-3.16 26.78-9.48s9.48-14.852 9.48-25.596v-2.133c0-10.27-3.16-18.486-9.48-24.648-6.16-6.162-14.06-9.243-23.7-9.243-5.37 0-9.87.869-13.5 2.607-3.48 1.58-6.32 3.555-8.54 5.925-2.05 2.37-3.79 4.661-5.21 6.873h-31.521V573.1h111.151v22.515h-86.27v48.822h3.8c1.58-2.686 3.79-5.214 6.63-7.584 3-2.528 6.87-4.582 11.61-6.162 4.74-1.58 10.43-2.37 17.07-2.37 9.79 0 18.64 2.133 26.54 6.399 8.06 4.108 14.46 10.27 19.2 18.486 4.74 8.058 7.11 17.854 7.11 29.388v2.607c0 11.534-2.45 21.567-7.35 30.099-4.9 8.532-11.93 15.168-21.09 19.908-9.01 4.74-19.83 7.11-32.47 7.11Zm146.49 0c-12 0-22.59-2.291-31.75-6.873-9.17-4.74-16.28-11.297-21.33-19.671-5.06-8.374-7.59-18.091-7.59-29.151v-57.354c0-12.956 2.53-23.858 7.59-32.706 5.21-8.848 12.48-15.484 21.8-19.908 9.32-4.582 20.15-6.873 32.47-6.873 12.17 0 22.67 2.133 31.52 6.399 8.85 4.108 15.64 10.033 20.38 17.775 4.74 7.584 7.11 16.511 7.11 26.781h-25.12c0-8.216-2.76-15.01-8.29-20.382-5.38-5.53-13.91-8.295-25.6-8.295-11.85 0-21.01 3.16-27.49 9.48-6.32 6.162-9.48 14.773-9.48 25.833v19.908h3.79c2.69-3.792 7.03-7.426 13.03-10.902 6.17-3.476 14.86-5.214 26.07-5.214 9.8 0 18.81 2.133 27.02 6.399 8.22 4.266 14.78 10.349 19.67 18.249 5.06 7.9 7.59 17.459 7.59 28.677v2.844c0 10.902-2.61 20.54-7.82 28.914-5.22 8.216-12.49 14.615-21.81 19.197-9.16 4.582-19.75 6.873-31.76 6.873Zm.24-22.278c11.06 0 19.83-3.002 26.31-9.006 6.63-6.004 9.95-14.062 9.95-24.174v-1.896c0-6.794-1.5-12.64-4.5-17.538-3-5.056-7.27-9.006-12.8-11.85-5.37-2.844-11.69-4.266-18.96-4.266-7.11 0-13.43 1.422-18.96 4.266-5.37 2.844-9.56 6.794-12.56 11.85-3 4.898-4.5 10.744-4.5 17.538v1.896c0 10.112 3.24 18.17 9.71 24.174 6.64 6.004 15.41 9.006 26.31 9.006ZM1294.48 739v-5.925c0-6.004.4-10.981 1.19-14.931.79-4.108 2.84-8.848 6.16-14.22l63.51-104.991v-3.318h-101.2V573.1h127.75v29.862l-66.84 111.39c-2.05 3.476-3.47 6.636-4.26 9.48-.63 2.686-.95 6.083-.95 10.191V739h-25.36Zm180.62 3.318c-12.8 0-24.01-1.896-33.65-5.688-9.48-3.792-16.91-9.243-22.28-16.353-5.21-7.268-7.82-15.721-7.82-25.359v-2.607c0-7.9 1.5-14.378 4.5-19.434 3.16-5.214 6.95-9.243 11.38-12.087 4.58-3.002 8.85-4.977 12.8-5.925v-3.792c-3.95-1.106-7.98-3.081-12.09-5.925-4.11-3.002-7.51-6.873-10.19-11.613-2.53-4.898-3.79-10.744-3.79-17.538v-2.607c0-8.848 2.52-16.511 7.58-22.989 5.21-6.478 12.4-11.534 21.57-15.168 9.16-3.634 19.83-5.451 31.99-5.451 12.01 0 22.6 1.817 31.76 5.451 9.16 3.634 16.27 8.69 21.33 15.168 5.21 6.478 7.82 14.141 7.82 22.989v2.607c0 6.794-1.34 12.64-4.03 17.538-2.53 4.74-5.76 8.611-9.71 11.613-3.95 2.844-7.98 4.819-12.09 5.925v3.792c4.11.948 8.37 2.923 12.8 5.925 4.42 2.844 8.13 6.873 11.14 12.087 3 5.056 4.5 11.534 4.5 19.434v2.607c0 9.638-2.69 18.091-8.06 25.359-5.21 7.11-12.64 12.561-22.28 16.353-9.48 3.792-20.54 5.688-33.18 5.688Zm0-22.278c12.01 0 21.41-2.291 28.21-6.873 6.95-4.74 10.42-11.297 10.42-19.671V691.6c0-8.532-3.39-15.089-10.19-19.671-6.63-4.74-16.11-7.11-28.44-7.11-12.32 0-21.88 2.37-28.67 7.11-6.8 4.582-10.2 11.139-10.2 19.671v1.896c0 8.374 3.4 14.931 10.2 19.671 6.95 4.582 16.51 6.873 28.67 6.873Zm0-77.499c11.22 0 19.99-2.133 26.31-6.399 6.48-4.266 9.72-10.27 9.72-18.012v-1.896c0-7.742-3.24-13.667-9.72-17.775-6.48-4.266-15.25-6.399-26.31-6.399-11.22 0-20.06 2.133-26.54 6.399-6.48 4.108-9.72 10.033-9.72 17.775v1.896c0 7.742 3.16 13.746 9.48 18.012 6.48 4.266 15.41 6.399 26.78 6.399Zm145.07 99.777c-12.32 0-22.91-2.054-31.75-6.162-8.85-4.266-15.65-10.191-20.39-17.775-4.74-7.742-7.11-16.748-7.11-27.018h25.36c0 8.216 2.69 15.089 8.06 20.619 5.53 5.372 14.14 8.058 25.83 8.058 11.85 0 20.94-3.16 27.26-9.48s9.48-14.931 9.48-25.833v-19.908h-3.79c-2.69 3.792-7.03 7.426-13.04 10.902-6 3.476-14.69 5.214-26.07 5.214-9.64 0-18.56-2.133-26.78-6.399-8.22-4.266-14.85-10.349-19.91-18.249-4.9-8.058-7.34-17.617-7.34-28.677v-2.844c0-11.06 2.52-20.698 7.58-28.914 5.21-8.216 12.4-14.615 21.57-19.197 9.32-4.582 19.98-6.873 31.99-6.873 12.17 0 22.75 2.37 31.76 7.11 9.16 4.582 16.27 11.06 21.33 19.434 5.06 8.216 7.58 17.933 7.58 29.151v57.354c0 12.956-2.6 23.858-7.82 32.706-5.05 8.848-12.24 15.563-21.56 20.145-9.17 4.424-19.91 6.636-32.24 6.636Zm.71-81.528c7.27 0 13.59-1.422 18.96-4.266 5.38-2.844 9.56-6.715 12.57-11.613 3-5.056 4.5-10.981 4.5-17.775v-1.896c0-10.27-3.32-18.328-9.96-24.174-6.47-6.004-15.16-9.006-26.07-9.006-10.9 0-19.67 3.002-26.3 9.006-6.48 5.846-9.72 13.904-9.72 24.174v1.896c0 6.794 1.42 12.719 4.27 17.775 3 4.898 7.19 8.769 12.56 11.613 5.53 2.844 11.93 4.266 19.19 4.266Z" fill="#FF6D7F"/><path fill="#D2E3FC" d="M50 459h1820v5H50z"/><path fill="#D2E3FC" d="M231 347h5v116h-5zM372 347h5v116h-5zM469 347h5v116h-5zM605 347h5v116h-5zM741 347h5v116h-5zM894 347h5v116h-5zM1033 347h5v116h-5zM1177 347h5v116h-5zM1316 347h5v116h-5zM1461 347h5v116h-5zM1605 347h5v116h-5z"/><path d="M303.418 467.318c-12.166 0-22.91-2.528-32.232-7.584-9.164-5.214-16.432-12.403-21.804-21.567-5.372-9.322-8.058-20.145-8.058-32.469 0-12.324 2.686-23.147 8.058-32.469 5.372-9.322 12.64-16.511 21.804-21.567 9.322-5.214 20.066-7.821 32.232-7.821s22.91 2.607 32.232 7.821c9.322 5.056 16.59 12.245 21.804 21.567 5.372 9.322 8.058 20.145 8.058 32.469 0 12.324-2.686 23.147-8.058 32.469-5.214 9.164-12.482 16.353-21.804 21.567-9.322 5.056-20.066 7.584-32.232 7.584Zm0-21.804c7.584 0 14.141-1.659 19.671-4.977 5.688-3.476 10.112-8.216 13.272-14.22 3.16-6.004 4.74-12.877 4.74-20.619 0-7.742-1.58-14.615-4.74-20.619s-7.584-10.744-13.272-14.22c-5.53-3.476-12.087-5.214-19.671-5.214s-14.22 1.738-19.908 5.214c-5.53 3.476-9.875 8.216-13.035 14.22-3.16 6.004-4.74 12.877-4.74 20.619 0 7.742 1.58 14.615 4.74 20.619s7.505 10.744 13.035 14.22c5.688 3.318 12.324 4.977 19.908 4.977ZM429.959 464v-99.066h-3.555l-17.064 34.365h-25.596l26.781-52.14h43.845V464h-24.411Zm55.082 0v-13.272c0-12.482 4.108-22.278 12.324-29.388 8.216-7.268 19.276-12.087 33.18-14.457l14.931-2.37c8.216-1.422 14.852-3.713 19.908-6.873 5.056-3.16 7.584-7.821 7.584-13.983 0-6.478-2.765-11.297-8.295-14.457-5.372-3.318-12.482-4.977-21.33-4.977-9.006 0-16.748 1.896-23.226 5.688-6.32 3.792-10.033 10.349-11.139 19.671l-23.7-4.029c1.106-9.322 4.345-17.064 9.717-23.226 5.372-6.162 12.166-10.744 20.382-13.746 8.374-3.16 17.696-4.74 27.966-4.74s19.434 1.501 27.492 4.503c8.216 3.002 14.615 7.426 19.197 13.272 4.74 5.846 7.11 13.193 7.11 22.041 0 8.532-1.975 15.563-5.925 21.093-3.95 5.53-9.401 9.796-16.353 12.798-6.952 3.002-14.931 5.214-23.937 6.636l-17.301 2.844c-6.32.948-11.534 2.765-15.642 5.451-4.108 2.686-6.162 6.478-6.162 11.376h84.135V464H485.041Zm191.571 50.718c-11.534 0-21.725-2.133-30.573-6.399-8.848-4.266-15.958-10.191-21.33-17.775-5.214-7.426-8.216-15.958-9.006-25.596l24.174-3.555c.948 10.428 4.661 18.407 11.139 23.937 6.636 5.53 15.168 8.295 25.596 8.295 7.11 0 13.114-1.343 18.012-4.029 5.056-2.528 8.927-6.083 11.613-10.665 2.686-4.582 4.029-9.875 4.029-15.879v-1.896c0-6.162-1.422-11.297-4.266-15.405-2.844-4.108-6.715-7.189-11.613-9.243-4.898-2.054-10.27-3.081-16.116-3.081h-28.44V407.12l54.036-35.787v-3.318h-84.372v-20.856h113.049v29.625l-54.036 35.787v3.318h7.584c8.532 0 16.432 1.738 23.7 5.214 7.426 3.318 13.43 8.374 18.012 15.168 4.582 6.636 6.873 14.931 6.873 24.885V464c0 9.796-2.449 18.486-7.347 26.07-4.74 7.584-11.455 13.588-20.145 18.012-8.532 4.424-18.723 6.636-30.573 6.636Zm157.601-3.318V464h-80.58v-27.255l61.383-89.586h43.608v95.985h27.729V464h-27.729v47.4h-24.411Zm-56.169-68.256h56.169v-79.158h-3.792l-52.377 75.84v3.318Zm187.285 71.574c-12.008 0-22.278-2.212-30.81-6.636-8.532-4.424-15.168-10.428-19.908-18.012-4.74-7.426-7.505-15.642-8.295-24.648l24.174-3.555c1.106 9.48 4.582 17.143 10.428 22.989 6.004 6.004 14.141 9.006 24.411 9.006 10.586 0 18.96-3.081 25.122-9.243 6.162-6.162 9.243-14.773 9.243-25.833v-2.133c0-10.586-3.002-18.802-9.006-24.648-6.004-6.004-13.588-9.006-22.752-9.006-5.056 0-9.322.79-12.798 2.37-3.318 1.58-6.083 3.555-8.295 5.925-2.054 2.37-3.713 4.74-4.977 7.11h-30.573v-91.245h106.887v20.856h-82.476v50.007h3.555c1.58-2.37 3.792-4.74 6.636-7.11 2.844-2.528 6.557-4.582 11.139-6.162 4.582-1.738 10.112-2.607 16.59-2.607 9.322 0 17.775 2.133 25.359 6.399 7.747 4.108 13.827 10.191 18.247 18.249 4.58 8.058 6.88 17.775 6.88 29.151v2.844c0 11.218-2.37 21.014-7.11 29.388-4.74 8.532-11.54 15.089-20.387 19.671-8.69 4.582-19.118 6.873-31.284 6.873Zm144.461-47.4c-11.69 0-22.04-2.291-31.05-6.873-8.84-4.74-15.8-11.297-20.85-19.671-5.06-8.374-7.59-18.091-7.59-29.151v-57.354c0-12.956 2.53-23.858 7.59-32.706 5.05-8.848 12.08-15.484 21.09-19.908 9.01-4.582 19.51-6.873 31.52-6.873 11.38 0 21.25 1.896 29.63 5.688 8.37 3.792 15.01 9.164 19.9 16.116 4.9 6.952 7.75 15.168 8.54 24.648l-24.65 2.133c-.63-8.058-3.71-14.694-9.24-19.908-5.38-5.214-13.43-7.821-24.18-7.821-11.22 0-19.99 3.239-26.31 9.717-6.32 6.478-9.48 15.405-9.48 26.781v20.145h3.8c1.89-2.528 4.42-5.056 7.58-7.584 3.16-2.528 7.27-4.661 12.32-6.399 5.22-1.738 11.38-2.607 18.49-2.607 9.48 0 18.25 2.212 26.31 6.636 8.06 4.266 14.53 10.428 19.43 18.486 4.9 7.9 7.35 17.459 7.35 28.677v2.844c0 10.902-2.61 20.54-7.82 28.914-5.06 8.216-12.09 14.615-21.1 19.197-9 4.582-19.43 6.873-31.28 6.873Zm.47-21.093c10.43 0 18.89-3.081 25.36-9.243 6.64-6.162 9.96-14.457 9.96-24.885v-1.896c0-10.428-3.32-18.723-9.96-24.885-6.47-6.162-14.93-9.243-25.36-9.243-10.42 0-18.96 3.081-25.59 9.243-6.64 6.162-9.96 14.457-9.96 24.885v1.896c0 10.428 3.24 18.723 9.72 24.885 6.64 6.162 15.25 9.243 25.83 9.243Zm104.6 65.175v-5.688c0-5.846.47-10.823 1.42-14.931 1.11-3.95 3.08-8.611 5.93-13.983l58.53-105.465v-3.318h-91.71v-20.856h117.31v27.492l-62.57 112.338c-1.89 3.634-3.24 6.794-4.03 9.48-.63 2.844-.94 6.32-.94 10.428v4.503h-23.94Zm174.94-44.082c-11.53 0-21.88-1.817-31.05-5.451-9.16-3.634-16.43-8.927-21.8-15.879-5.21-7.11-7.82-15.721-7.82-25.833v-2.37c0-7.742 1.5-14.22 4.5-19.434s6.64-9.322 10.9-12.324c4.27-3.002 8.38-4.977 12.33-5.925v-4.029c-3.79-1.264-7.67-3.318-11.62-6.162-3.79-3.002-7.03-6.952-9.71-11.85-2.53-4.898-3.79-10.902-3.79-18.012v-2.133c0-8.848 2.44-16.432 7.34-22.752 5.06-6.478 11.93-11.455 20.62-14.931 8.85-3.634 18.88-5.451 30.1-5.451 11.38 0 21.41 1.817 30.1 5.451 8.85 3.476 15.72 8.453 20.62 14.931 5.05 6.32 7.58 13.904 7.58 22.752v2.133c0 7.11-1.34 13.114-4.03 18.012-2.52 4.898-5.76 8.848-9.71 11.85-3.8 2.844-7.59 4.898-11.38 6.162v4.029c3.95.948 8.06 2.923 12.32 5.925 4.27 3.002 7.9 7.11 10.91 12.324 3 5.214 4.5 11.692 4.5 19.434v2.37c0 10.112-2.69 18.723-8.06 25.833-5.21 6.952-12.4 12.245-21.57 15.879-9.16 3.634-19.59 5.451-31.28 5.451Zm0-20.856c11.06 0 19.91-2.449 26.54-7.347 6.8-5.056 10.2-11.929 10.2-20.619V416.6c0-8.69-3.32-15.405-9.96-20.145-6.63-4.74-15.56-7.11-26.78-7.11-11.06 0-19.91 2.37-26.54 7.11-6.64 4.74-9.96 11.455-9.96 20.145v1.896c0 8.69 3.32 15.563 9.96 20.619 6.79 4.898 15.64 7.347 26.54 7.347Zm0-77.973c10.27 0 18.49-2.133 24.65-6.399 6.32-4.424 9.48-10.744 9.48-18.96v-1.896c0-8.216-3.16-14.536-9.48-18.96-6.32-4.424-14.54-6.636-24.65-6.636-9.95 0-18.09 2.212-24.41 6.636-6.32 4.424-9.48 10.744-9.48 18.96v1.896c0 8.216 3.08 14.536 9.24 18.96 6.32 4.266 14.54 6.399 24.65 6.399Zm145.32 146.229c-11.22 0-21.09-1.896-29.63-5.688-8.37-3.792-15.01-9.164-19.9-16.116-4.74-6.794-7.59-14.773-8.54-23.937l24.65-2.37c.79 7.742 3.87 14.22 9.25 19.434 5.53 5.214 13.58 7.821 24.17 7.821 11.22 0 19.99-3.239 26.31-9.717 6.32-6.478 9.48-15.405 9.48-26.781v-18.486h-3.8c-1.73 2.528-4.26 5.135-7.58 7.821-3.16 2.528-7.27 4.661-12.32 6.399-5.06 1.738-11.14 2.607-18.25 2.607-9.48 0-18.33-2.133-26.55-6.399-8.05-4.424-14.53-10.665-19.43-18.723-4.9-8.216-7.35-17.775-7.35-28.677v-2.844c0-11.218 2.53-20.935 7.59-29.151 5.21-8.216 12.32-14.615 21.33-19.197 9.16-4.582 19.59-6.873 31.28-6.873 11.85 0 22.2 2.37 31.05 7.11 8.85 4.582 15.8 11.06 20.85 19.434 5.06 8.374 7.59 18.17 7.59 29.388v55.458c0 12.956-2.53 23.858-7.59 32.706-5.05 8.848-12.08 15.484-21.09 19.908-8.85 4.582-19.35 6.873-31.52 6.873Zm.47-79.632c10.43 0 18.88-3.081 25.36-9.243 6.64-6.162 9.96-14.457 9.96-24.885v-1.896c0-10.27-3.32-18.486-9.96-24.648-6.48-6.162-14.93-9.243-25.36-9.243-10.58 0-19.19 3.081-25.83 9.243-6.48 6.162-9.72 14.378-9.72 24.648v1.896c0 10.428 3.32 18.723 9.96 24.885 6.63 6.162 15.17 9.243 25.59 9.243Z" fill="#1A73E8"/><path fill="#D2E3FC" d="M50 213h1820v5H50z"/><path fill="#D2E3FC" d="M231 52h5v166h-5zM376 52h5v166h-5zM479 52h5v166h-5zM624 52h5v166h-5zM766 52h5v166h-5zM919 52h5v166h-5zM1061 52h5v166h-5zM1201 52h5v166h-5zM1335 52h5v166h-5zM1480 52h5v166h-5zM1623 52h5v166h-5z"/><path d="M306.314 221.318c-19.276 0-34.681-5.451-46.215-16.353-11.376-11.06-17.064-27.65-17.064-49.77v-40.29c0-21.646 5.688-38.078 17.064-49.296 11.534-11.218 26.939-16.827 46.215-16.827 19.434 0 34.839 5.609 46.215 16.827 11.534 11.218 17.301 27.65 17.301 49.296v40.29c0 22.12-5.767 38.71-17.301 49.77-11.376 10.902-26.781 16.353-46.215 16.353Zm0-22.278c13.114 0 22.831-3.713 29.151-11.139 6.32-7.584 9.48-18.17 9.48-31.758v-42.66c0-13.588-3.397-24.016-10.191-31.284-6.794-7.426-16.274-11.139-28.44-11.139-12.324 0-21.804 3.792-28.44 11.376-6.636 7.426-9.954 17.775-9.954 31.047v42.66c0 13.904 3.16 24.569 9.48 31.995 6.478 7.268 16.116 10.902 28.914 10.902ZM443.663 218V69.638h-3.792l-27.255 55.932h-26.307l36.735-73.47h45.504V218h-24.885Zm53.46 0v-18.723c0-11.534 1.975-21.014 5.925-28.44 3.95-7.426 9.559-13.43 16.827-18.012 7.426-4.74 16.353-8.69 26.781-11.85l14.457-4.503c6.478-2.054 12.008-4.582 16.59-7.584 4.74-3.002 8.374-6.715 10.902-11.139 2.528-4.582 3.792-9.875 3.792-15.879v-.948c0-9.322-3.16-16.59-9.48-21.804-6.32-5.372-14.615-8.058-24.885-8.058-10.586 0-19.197 2.844-25.833 8.532-6.478 5.688-9.717 14.062-9.717 25.122v3.792h-24.648v-3.555c0-12.008 2.607-22.12 7.821-30.336 5.214-8.374 12.403-14.773 21.567-19.197 9.164-4.424 19.434-6.636 30.81-6.636 11.376 0 21.488 2.133 30.336 6.399 9.006 4.266 16.037 10.27 21.093 18.012 5.214 7.742 7.821 16.827 7.821 27.255v2.133c0 10.744-2.133 19.671-6.399 26.781-4.266 7.11-10.191 12.956-17.775 17.538-7.426 4.582-16.037 8.453-25.833 11.613l-13.983 4.266c-7.426 2.212-13.43 4.661-18.012 7.347-4.424 2.528-7.742 5.609-9.954 9.243-2.054 3.634-3.081 8.295-3.081 13.983v2.37h93.615V218H497.123Zm201.854 3.318c-12.166 0-22.989-2.212-32.469-6.636-9.48-4.424-16.906-10.823-22.278-19.197-5.214-8.374-7.821-18.328-7.821-29.862v-4.266h24.885v3.792c0 10.428 3.397 18.723 10.191 24.885 6.952 6.004 16.116 9.006 27.492 9.006 11.376 0 20.224-2.844 26.544-8.532 6.32-5.688 9.48-12.877 9.48-21.567v-2.133c0-6.162-1.501-11.139-4.503-14.931-3.002-3.792-7.031-6.557-12.087-8.295-5.056-1.896-10.744-2.844-17.064-2.844h-30.099v-28.677l58.302-34.365v-3.318h-89.112V52.1h116.13v33.654l-55.695 33.18v3.318h10.191c8.374 0 16.274 1.58 23.7 4.74 7.426 3.16 13.43 7.979 18.012 14.457 4.74 6.478 7.11 14.694 7.11 24.648v2.844c0 10.586-2.528 19.829-7.584 27.729-5.056 7.742-12.166 13.825-21.33 18.249-9.164 4.266-19.829 6.399-31.995 6.399ZM861.427 218v-33.891h-83.898v-28.914L841.045 52.1h45.267v109.968h27.966v22.041h-27.966V218h-24.885Zm-59.724-55.932h59.724V67.742h-3.792l-55.932 91.008v3.318Zm189.809 59.25c-12.482 0-23.305-2.291-32.469-6.873-9.164-4.582-16.274-11.06-21.33-19.434-4.898-8.374-7.347-18.091-7.347-29.151v-2.607h25.359v2.37c0 10.112 3.081 18.249 9.243 24.411 6.32 6.004 15.089 9.006 26.307 9.006 11.535 0 20.465-3.16 26.785-9.48s9.48-14.852 9.48-25.596v-2.133c0-10.27-3.16-18.486-9.48-24.648-6.17-6.162-14.07-9.243-23.704-9.243-5.372 0-9.875.869-13.509 2.607-3.476 1.58-6.32 3.555-8.532 5.925-2.054 2.37-3.792 4.661-5.214 6.873H935.58V52.1h111.15v22.515h-86.265v48.822h3.792c1.58-2.686 3.792-5.214 6.636-7.584 3.002-2.528 6.873-4.582 11.613-6.162 4.74-1.58 10.428-2.37 17.064-2.37 9.8 0 18.64 2.133 26.54 6.399 8.06 4.108 14.46 10.27 19.2 18.486 4.74 8.058 7.11 17.854 7.11 29.388v2.607c0 11.534-2.45 21.567-7.35 30.099-4.89 8.532-11.92 15.168-21.09 19.908-9 4.74-19.83 7.11-32.468 7.11Zm144.008 0c-12.01 0-22.59-2.291-31.76-6.873-9.16-4.74-16.27-11.297-21.33-19.671-5.05-8.374-7.58-18.091-7.58-29.151v-57.354c0-12.956 2.53-23.858 7.58-32.706 5.22-8.848 12.49-15.484 21.81-19.908 9.32-4.582 20.14-6.873 32.47-6.873 12.16 0 22.67 2.133 31.52 6.399 8.85 4.108 15.64 10.033 20.38 17.775 4.74 7.584 7.11 16.511 7.11 26.781h-25.12c0-8.216-2.77-15.01-8.3-20.382-5.37-5.53-13.9-8.295-25.59-8.295-11.85 0-21.02 3.16-27.5 9.48-6.32 6.162-9.48 14.773-9.48 25.833v19.908h3.8c2.68-3.792 7.03-7.426 13.03-10.902 6.16-3.476 14.85-5.214 26.07-5.214 9.8 0 18.8 2.133 27.02 6.399 8.22 4.266 14.77 10.349 19.67 18.249 5.06 7.9 7.58 17.459 7.58 28.677v2.844c0 10.902-2.6 20.54-7.82 28.914-5.21 8.216-12.48 14.615-21.8 19.197-9.16 4.582-19.75 6.873-31.76 6.873Zm.24-22.278c11.06 0 19.83-3.002 26.31-9.006 6.63-6.004 9.95-14.062 9.95-24.174v-1.896c0-6.794-1.5-12.64-4.5-17.538-3.01-5.056-7.27-9.006-12.8-11.85-5.37-2.844-11.69-4.266-18.96-4.266-7.11 0-13.43 1.422-18.96 4.266-5.37 2.844-9.56 6.794-12.56 11.85-3 4.898-4.51 10.744-4.51 17.538v1.896c0 10.112 3.24 18.17 9.72 24.174 6.64 6.004 15.41 9.006 26.31 9.006ZM1237.57 218v-5.925c0-6.004.47-10.981 1.42-14.931.95-4.108 2.93-8.848 5.93-14.22l59.25-105.465v-3.081h-93.14V52.1H1330v29.388l-62.33 111.864c-1.9 3.476-3.24 6.636-4.03 9.48-.79 2.686-1.18 6.083-1.18 10.191V218h-24.89Zm171.26 3.318c-12.8 0-24.02-1.896-33.65-5.688-9.48-3.792-16.91-9.243-22.28-16.353-5.22-7.268-7.82-15.721-7.82-25.359v-2.607c0-7.9 1.5-14.378 4.5-19.434 3.16-5.214 6.95-9.243 11.38-12.087 4.58-3.002 8.84-4.977 12.79-5.925v-3.792c-3.95-1.106-7.97-3.081-12.08-5.925-4.11-3.002-7.51-6.873-10.19-11.613-2.53-4.898-3.8-10.744-3.8-17.538V92.39c0-8.848 2.53-16.511 7.59-22.989 5.21-6.478 12.4-11.534 21.57-15.168 9.16-3.634 19.82-5.451 31.99-5.451 12.01 0 22.59 1.817 31.76 5.451 9.16 3.634 16.27 8.69 21.33 15.168 5.21 6.478 7.82 14.141 7.82 22.989v2.607c0 6.794-1.34 12.64-4.03 17.538-2.53 4.74-5.77 8.611-9.72 11.613-3.95 2.844-7.98 4.819-12.08 5.925v3.792c4.1.948 8.37 2.923 12.79 5.925 4.43 2.844 8.14 6.873 11.14 12.087 3.01 5.056 4.51 11.534 4.51 19.434v2.607c0 9.638-2.69 18.091-8.06 25.359-5.22 7.11-12.64 12.561-22.28 16.353-9.48 3.792-20.54 5.688-33.18 5.688Zm0-22.278c12.01 0 21.41-2.291 28.2-6.873 6.96-4.74 10.43-11.297 10.43-19.671V170.6c0-8.532-3.4-15.089-10.19-19.671-6.64-4.74-16.12-7.11-28.44-7.11s-21.88 2.37-28.68 7.11c-6.79 4.582-10.19 11.139-10.19 19.671v1.896c0 8.374 3.4 14.931 10.19 19.671 6.96 4.582 16.51 6.873 28.68 6.873Zm0-77.499c11.22 0 19.99-2.133 26.31-6.399 6.48-4.266 9.71-10.27 9.71-18.012v-1.896c0-7.742-3.23-13.667-9.71-17.775-6.48-4.266-15.25-6.399-26.31-6.399-11.22 0-20.07 2.133-26.54 6.399-6.48 4.108-9.72 10.033-9.72 17.775v1.896c0 7.742 3.16 13.746 9.48 18.012 6.48 4.266 15.4 6.399 26.78 6.399Zm143.46 99.777c-12.32 0-22.91-2.054-31.75-6.162-8.85-4.266-15.65-10.191-20.39-17.775-4.74-7.742-7.11-16.748-7.11-27.018h25.36c0 8.216 2.69 15.089 8.06 20.619 5.53 5.372 14.14 8.058 25.83 8.058 11.85 0 20.94-3.16 27.26-9.48s9.48-14.931 9.48-25.833v-19.908h-3.79c-2.69 3.792-7.03 7.426-13.04 10.902-6 3.476-14.69 5.214-26.07 5.214-9.64 0-18.56-2.133-26.78-6.399-8.22-4.266-14.85-10.349-19.91-18.249-4.9-8.058-7.34-17.617-7.34-28.677v-2.844c0-11.06 2.52-20.698 7.58-28.914 5.21-8.216 12.4-14.615 21.57-19.197 9.32-4.582 19.98-6.873 31.99-6.873 12.17 0 22.75 2.37 31.76 7.11 9.16 4.582 16.27 11.06 21.33 19.434 5.06 8.216 7.58 17.933 7.58 29.151v57.354c0 12.956-2.6 23.858-7.82 32.706-5.05 8.848-12.24 15.563-21.56 20.145-9.17 4.424-19.91 6.636-32.24 6.636Zm.71-81.528c7.27 0 13.59-1.422 18.96-4.266 5.38-2.844 9.56-6.715 12.57-11.613 3-5.056 4.5-10.981 4.5-17.775v-1.896c0-10.27-3.32-18.328-9.96-24.174-6.47-6.004-15.16-9.006-26.07-9.006-10.9 0-19.67 3.002-26.3 9.006-6.48 5.846-9.72 13.904-9.72 24.174v1.896c0 6.794 1.42 12.719 4.27 17.775 3 4.898 7.19 8.769 12.56 11.613 5.53 2.844 11.93 4.266 19.19 4.266Z" fill="#1A73E8"/></g><defs><clipPath id="a"><path fill="#fff" d="M0 0h1920v1080H0z"/></clipPath></defs></svg>