<svg width="1920" height="1080" fill="none" xmlns="http://www.w3.org/2000/svg"><g clip-path="url(#a)"><path d="M1284.25 792c0 23 12 41.167 36 54.5 24.17 13.167 58.17 19.75 102 19.75 44.33 0 80.67-3.5 109-10.5 28.33-7.167 47.92-16.083 58.75-26.75.67 9.167 1.92 16.167 3.75 21 1.83 4.667 4.67 9 8.5 13H1728v-3.25c-4.67-5.333-8.17-11.917-10.5-19.75-2.17-7.833-3.25-16.167-3.25-25v-94.5c0-33.333-15.33-57.833-46-73.5-30.67-15.833-80.42-23.75-149.25-23.75-63.83 0-113.5 8.167-149 24.5-35.33 16.167-53 36.833-53 62V715l111.75.5V710c0-6.5 6.08-11.5 18.25-15s32.17-5.25 60-5.25c31 0 52.33 1.75 64 5.25 11.67 3.5 17.5 8.333 17.5 14.5V725l-152.5-1.25c-49.67-.5-87.42 5-113.25 16.5-25.67 11.5-38.5 28.75-38.5 51.75Zm123.5-10c0-6 5.92-9.917 17.75-11.75 12-1.833 31.08-2.667 57.25-2.5l105.75.75v2.25c0 12.333-11.17 21.25-33.5 26.75-22.17 5.5-46.83 8.25-74 8.25-25.83 0-44.5-2.083-56-6.25-11.5-4.333-17.25-10.167-17.25-17.5Z" fill="#D2E3FC"/><path d="m1320.25 846.5-2.43 4.371.02.01.02.01 2.39-4.391Zm211 9.25 1.2 4.854.01-.003.02-.004-1.23-4.847ZM1590 829l4.99-.363-.79-10.791-7.71 7.591L1590 829Zm3.75 21-4.67 1.773.01.028.01.027 4.65-1.828Zm8.5 13-3.61 3.46 1.48 1.54h2.13v-5Zm125.75 0v5h5v-5h-5Zm0-3.25h5v-1.879l-1.24-1.414-3.76 3.293ZM1717.5 840l-4.82 1.333.01.047.02.047 4.79-1.427Zm-49.25-193-2.29 4.443.01.005.01.005 2.27-4.453Zm-298.25.75 2.08 4.547.01-.005-2.09-4.542ZM1317 715h-5v4.978l4.98.022.02-5Zm111.75.5-.02 5 5.02.022V715.5h-5Zm159.75 9.5-.04 5 5.04.041V725h-5Zm-152.5-1.25-.05 5h.01l.04-5Zm-113.25 16.5-2.03-4.568-.01.005 2.04 4.563Zm102.75 30-.76-4.943-.01.002.77 4.941Zm57.25-2.5.04-5h-.01l-.03 5Zm105.75.75h5v-4.965l-4.96-.035-.04 5Zm-33.5 29-1.2-4.855v.002l1.2 4.853Zm-130 2-1.76 4.679.03.011.03.011 1.7-4.701Zm-145.75-7.5c0 25.199 13.35 44.859 38.57 58.871l4.86-8.742c-22.78-12.655-33.43-29.328-33.43-50.129h-10Zm38.61 58.891c25.21 13.736 60.17 20.359 104.39 20.359v-10c-43.44 0-76.49-6.543-99.61-19.141l-4.78 8.782Zm104.39 20.359c44.55 0 81.33-3.513 110.2-10.646l-2.4-9.708c-27.79 6.867-63.69 10.354-107.8 10.354v10Zm110.23-10.653c28.53-7.217 49.21-16.396 61.03-28.034l-7.02-7.126c-9.84 9.695-28.33 18.35-56.47 25.466l2.46 9.694Zm52.53-31.234c.68 9.336 1.98 16.903 4.07 22.41l9.34-3.546c-1.57-4.16-2.78-10.593-3.43-19.59l-9.98.726Zm4.09 22.465c2.09 5.334 5.3 10.211 9.54 14.632l7.22-6.92c-3.43-3.579-5.89-7.369-7.46-11.368l-9.3 3.656ZM1602.25 868H1728v-10h-125.75v10Zm130.75-5v-3.25h-10V863h10Zm-1.24-6.543c-4.12-4.715-7.31-10.634-9.47-17.884l-9.58 2.854c2.51 8.417 6.32 15.665 11.53 21.616l7.52-6.586Zm-9.44-17.79c-2.04-7.363-3.07-15.245-3.07-23.667h-10c0 9.245 1.13 18.03 3.43 26.333l9.64-2.666ZM1719.25 815v-94.5h-10V815h10Zm0-94.5c0-17.458-4.02-32.866-12.26-46.028-8.23-13.151-20.48-23.759-36.47-31.925l-4.54 8.906c14.68 7.501 25.43 16.976 32.53 28.325 7.1 11.338 10.74 24.847 10.74 40.722h10Zm-48.71-77.943c-31.78-16.41-82.55-24.307-151.54-24.307v10c68.68 0 117.41 7.937 146.96 23.193l4.58-8.886ZM1519 618.25c-64.15 0-114.65 8.191-151.09 24.958l4.18 9.084c34.56-15.899 83.4-24.042 146.91-24.042v-10Zm-151.08 24.953c-36.03 16.485-55.92 38.461-55.92 66.547h10c0-22.247 15.44-41.604 50.08-57.453l-4.16-9.094ZM1312 709.75V715h10v-5.25h-10Zm4.98 10.25 111.75.5.04-10-111.75-.5-.04 10Zm116.77-4.5V710h-10v5.5h10Zm0-5.5c0-1.437.58-2.991 2.74-4.762 2.29-1.883 6.11-3.77 11.89-5.433l-2.76-9.61c-6.39 1.837-11.69 4.2-15.48 7.317-3.93 3.229-6.39 7.425-6.39 12.488h10Zm14.63-10.195c11.44-3.291 30.83-5.055 58.62-5.055v-10c-27.88 0-48.49 1.736-61.38 5.445l2.76 9.61Zm58.62-5.055c31.04 0 51.68 1.776 62.56 5.039l2.88-9.578c-12.46-3.737-34.48-5.461-65.44-5.461v10Zm62.56 5.039c5.54 1.661 9.19 3.503 11.37 5.311 2.06 1.705 2.57 3.142 2.57 4.4h10c0-4.909-2.41-8.971-6.18-12.1-3.66-3.025-8.75-5.35-14.88-7.189l-2.88 9.578Zm13.94 9.711V725h10v-15.5h-10Zm5.04 10.5-152.5-1.25-.08 10 152.5 1.25.08-10Zm-152.49-1.25c-49.92-.502-88.52 4.997-115.33 16.932l4.06 9.136c24.86-11.065 61.76-16.566 111.17-16.068l.1-10Zm-115.34 16.937c-13.38 5.995-23.79 13.651-30.85 23.141-7.1 9.55-10.61 20.676-10.61 33.172h10c0-10.504 2.91-19.503 8.64-27.203 5.77-7.76 14.62-14.479 26.9-19.984l-4.08-9.126ZM1412.75 782c0-.997.34-2.04 2.2-3.268 2.08-1.377 5.69-2.669 11.32-3.541l-1.54-9.882c-6.2.961-11.47 2.544-15.3 5.084-4.06 2.689-6.68 6.604-6.68 11.607h10Zm13.51-6.807c11.58-1.77 30.33-2.61 56.46-2.443l.06-10c-26.2-.167-45.62.66-58.04 2.557l1.52 9.886Zm56.45-2.443 105.75.75.08-10-105.75-.75-.08 10Zm100.79-4.25v2.25h10v-2.25h-10Zm0 2.25c0 4.394-1.89 8.352-6.49 12.03-4.78 3.815-12.36 7.195-23.21 9.865l2.4 9.71c11.49-2.83 20.65-6.658 27.04-11.76 6.56-5.238 10.26-11.906 10.26-19.845h-10Zm-29.7 21.897c-21.71 5.386-45.97 8.103-72.8 8.103v10c27.5 0 52.58-2.783 75.2-8.397l-2.4-9.706Zm-72.8 8.103c-25.75 0-43.67-2.101-54.3-5.951l-3.4 9.402c12.37 4.483 31.79 6.549 57.7 6.549v-10Zm-54.24-5.929c-11.02-4.153-14.01-8.789-14.01-12.821h-10c0 10.635 8.51 17.665 20.49 22.179l3.52-9.358Z" fill="#FF6D7F"/><path d="M1034.25 446h129.25v-55c9.67-16.667 23.92-30.333 42.75-41 19-10.833 39.25-16.25 60.75-16.25 13.67 0 24.5.917 32.5 2.75 8.17 1.833 15 4.333 20.5 7.5V215c-4.83-2-11.08-3.917-18.75-5.75-7.5-2-19-3-34.5-3-22.83 0-43.83 7.083-63 21.25-19 14-32.67 29.083-41 45.25h-.5V217.5h-128V446Z" fill="#D2E3FC"/><path d="M1034.25 446h-5v5h5v-5Zm129.25 0v5h5v-5h-5Zm0-55-4.33-2.509-.67 1.164V391h5Zm42.75-41 2.46 4.351.01-.004.01-.003-2.48-4.344Zm93.25-13.5-1.12 4.874.01.002.01.003 1.1-4.879Zm20.5 7.5-2.49 4.333 7.49 4.315V344h-5Zm0-129h5v-3.342l-3.09-1.278L1320 215Zm-18.75-5.75-1.29 4.831.06.017.07.015 1.16-4.863Zm-97.5 18.25 2.97 4.025v-.004l-2.97-4.021Zm-41 45.25v5h3.05l1.39-2.709-4.44-2.291Zm-.5 0h-5v5h5v-5Zm0-55.25h5v-5h-5v5Zm-128 0v-5h-5v5h5Zm0 233.5h129.25v-10h-129.25v10Zm134.25-5v-55h-10v55h10Zm-.67-52.491c9.16-15.807 22.73-28.874 40.88-39.158l-4.92-8.702c-19.51 11.05-34.45 25.316-44.62 42.842l8.66 5.018Zm40.9-39.165c18.26-10.411 37.65-15.594 58.27-15.594v-10c-22.38 0-43.49 5.651-63.23 16.906l4.96 8.688ZM1267 338.75c13.5 0 23.91.911 31.38 2.624l2.24-9.748c-8.53-1.954-19.79-2.876-33.62-2.876v10Zm31.4 2.629c7.83 1.756 14.16 4.104 19.11 6.954l4.98-8.666c-6.05-3.483-13.38-6.135-21.89-8.046l-2.2 9.758ZM1325 344V215h-10v129h10Zm-3.09-133.62c-5.16-2.137-11.69-4.126-19.5-5.993l-2.32 9.726c7.52 1.799 13.5 3.644 18 5.507l3.82-9.24Zm-19.37-5.961c-8.16-2.175-20.2-3.169-35.79-3.169v10c15.41 0 26.37 1.006 33.21 2.831l2.58-9.662Zm-35.79-3.169c-23.95 0-45.99 7.456-65.97 22.229l5.94 8.042c18.35-13.561 38.32-20.271 60.03-20.271v-10Zm-65.97 22.225c-19.44 14.325-33.7 29.961-42.47 46.984l8.88 4.582c7.9-15.31 20.97-29.841 39.53-43.516l-5.94-8.05Zm-38.03 44.275h-.5v10h.5v-10Zm4.5 5V217.5h-10v55.25h10Zm-5-60.25h-128v10h128v-10Zm-133 5V446h10V217.5h-10Z" fill="#FF6D7F"/><path d="M596.25 792c0 23 11.167 41.167 33.5 54.5 22.333 13.167 54.167 19.75 95.5 19.75 36.167 0 65.75-3.667 88.75-11 23.167-7.5 39-16.25 47.5-26.25.5 9.167 1.333 16.167 2.5 21 1.167 4.667 3.167 9 6 13h165v-3.25c-3.67-5.333-6.33-11.917-8-19.75s-2.5-16.167-2.5-25v-94.5c0-33.333-15.58-57.833-46.75-73.5-31-15.833-81.333-23.75-151-23.75-64.5 0-114.583 8.167-150.25 24.5-35.5 16.167-53.25 36.833-53.25 62V715l150.5.5V710c0-6.5 3.25-11.5 9.75-15s17.083-5.25 31.75-5.25c17.667 0 29.583 1.75 35.75 5.25 6.167 3.5 9.25 8.333 9.25 14.5V725L746 723.75c-49.167-.5-86.417 5-111.75 16.5s-38 28.75-38 51.75Zm162-10c0-6 2.333-9.917 7-11.75 4.833-1.833 13.417-2.667 25.75-2.5l69.25.75v2.25c0 12.333-7.25 21.25-21.75 26.75s-30.5 8.25-48 8.25c-11.667 0-20-2.083-25-6.25-4.833-4.333-7.25-10.167-7.25-17.5Z" fill="#D2E3FC"/><path d="m629.75 846.5-2.563 4.293.012.007.012.007 2.539-4.307ZM814 855.25l1.519 4.764.01-.004.011-.003-1.54-4.757ZM861.5 829l4.993-.272-.683-12.519-8.12 9.553L861.5 829Zm2.5 21-4.86 1.173.004.02.005.02L864 850Zm6 13-4.08 2.89 1.494 2.11H870v-5Zm165 0v5h5v-5h-5Zm0-3.25h5v-1.553l-.88-1.28-4.12 2.833ZM977.75 647l-2.274 4.453.014.007.014.007L977.75 647Zm-301.25.75 2.072 4.55.01-.004-2.082-4.546ZM623.25 715h-5v4.983l4.983.017.017-5Zm150.5.5-.017 5 5.017.017V715.5h-5Zm86.5 9.5-.055 5 5.055.055V725h-5ZM746 723.75l.055-5h-.004l-.051 5Zm19.25 46.5-1.773-4.675-.028.01-.027.011 1.828 4.654Zm25.75-2.5-.068 5h.014l.054-5Zm69.25.75h5v-4.946l-4.946-.054-.054 5Zm-94.75 31-3.338 3.723.068.06.069.058 3.201-3.841ZM591.25 792c0 25.019 12.329 44.699 35.937 58.793l5.126-8.586C611.255 829.635 601.25 812.981 601.25 792h-10Zm35.961 58.807c23.431 13.814 56.293 20.443 98.039 20.443v-10c-40.921 0-71.726-6.538-92.961-19.057l-5.078 8.614Zm98.039 20.443c36.452 0 66.598-3.689 90.269-11.236l-3.038-9.528c-22.329 7.12-51.35 10.764-87.231 10.764v10Zm90.29-11.243c23.407-7.578 40.345-16.681 49.77-27.769l-7.62-6.476c-7.575 8.912-22.304 17.309-45.23 24.731l3.08 9.514Zm40.967-30.735c.506 9.262 1.358 16.622 2.633 21.901l9.72-2.346c-1.059-4.387-1.873-11.028-2.367-20.099l-9.986.544Zm2.642 21.941c1.32 5.28 3.586 10.18 6.771 14.677l8.16-5.78c-2.481-3.503-4.216-7.27-5.229-11.323l-9.702 2.426ZM870 868h165v-10H870v10Zm170-5v-3.25h-10V863h10Zm-.88-6.083c-3.22-4.68-5.67-10.619-7.23-17.958l-9.78 2.082c1.77 8.327 4.65 15.555 8.77 21.542l8.24-5.666Zm-7.23-17.958c-1.59-7.458-2.39-15.44-2.39-23.959h-10c0 9.148.86 17.832 2.61 26.041l9.78-2.082ZM1029.5 815v-94.5h-10V815h10Zm0-94.5c0-17.473-4.09-32.893-12.47-46.058-8.36-13.153-20.807-23.752-37.034-31.909l-4.492 8.934c14.94 7.51 25.876 16.994 33.086 28.341 7.21 11.335 10.91 24.832 10.91 40.692h10Zm-49.476-77.953c-32.111-16.401-83.457-24.297-153.274-24.297v10c69.516 0 118.837 7.937 148.726 23.203l4.548-8.906ZM826.75 618.25c-64.812 0-115.723 8.189-152.332 24.954l4.164 9.092c34.724-15.902 83.98-24.046 148.168-24.046v-10ZM674.428 643.2c-36.185 16.478-56.178 38.451-56.178 66.55h10c0-22.235 15.507-41.595 50.322-57.45l-4.144-9.1Zm-56.178 66.55V715h10v-5.25h-10Zm4.983 10.25 150.5.5.034-10-150.5-.5-.034 10Zm155.517-4.5V710h-10v5.5h10Zm0-5.5c0-4.375 1.972-7.826 7.12-10.598l-4.74-8.804c-7.852 4.228-12.38 10.777-12.38 19.402h10Zm7.12-10.598c5.352-2.881 14.876-4.652 29.38-4.652v-10c-14.829 0-26.472 1.729-34.12 5.848l4.74 8.804Zm29.38-4.652c8.691 0 15.826.432 21.461 1.259 5.713.839 9.525 2.036 11.821 3.339l4.936-8.696c-3.871-2.197-9.1-3.625-15.304-4.536-6.282-.923-13.939-1.366-22.914-1.366v10Zm33.282 4.598c4.883 2.772 6.718 6.087 6.718 10.152h10c0-8.268-4.332-14.62-11.782-18.848l-4.936 8.696Zm6.718 10.152V725h10v-15.5h-10Zm5.055 10.5-114.25-1.25-.11 10 114.25 1.25.11-10Zm-114.254-1.25c-49.42-.502-87.541 4.996-113.868 16.947l4.134 9.106c24.34-11.049 60.719-16.551 109.632-16.053l.102-10Zm-113.868 16.947c-13.219 6.001-23.493 13.664-30.463 23.156-7.012 9.549-10.47 20.667-10.47 33.147h10c0-10.52 2.875-19.527 8.53-27.228 5.696-7.758 14.423-14.47 26.537-19.969l-4.134-9.106ZM763.25 782c0-2.376.464-3.902 1.046-4.878.542-.91 1.372-1.664 2.782-2.218l-3.656-9.308c-3.256 1.279-5.926 3.401-7.718 6.407-1.751 2.941-2.454 6.373-2.454 9.997h10Zm3.773-7.075c3.854-1.462 11.57-2.342 23.909-2.175l.136-10c-12.328-.166-21.778.62-27.591 2.825l3.546 9.35Zm23.923-2.175 69.25.75.108-10-69.25-.75-.108 10Zm64.304-4.25v2.25h10v-2.25h-10Zm0 2.25c0 5.108-1.472 9.284-4.317 12.783-2.908 3.577-7.503 6.749-14.206 9.292l3.546 9.35c7.797-2.957 14.077-6.993 18.419-12.333 4.405-5.418 6.558-11.867 6.558-19.092h-10Zm-18.523 22.075c-13.866 5.259-29.256 7.925-46.227 7.925v10c18.029 0 34.639-2.834 49.773-8.575l-3.546-9.35ZM790.5 800.75c-11.324 0-18.176-2.072-21.799-5.091l-6.402 7.682c6.377 5.314 16.192 7.409 28.201 7.409v-10Zm-21.662-4.973c-3.632-3.256-5.588-7.66-5.588-13.777h-10c0 8.55 2.878 15.813 8.912 21.223l6.676-7.446Z" fill="#FF6D7F"/><path d="M49.5 814.25H174l.5-166.75c6.833 4.5 18.75 9.833 35.75 16 17 6 38.833 9 65.5 9 40.667 0 74.5-10.5 101.5-31.5 27-21.167 40.5-51.167 40.5-90v-3c0-39.833-12.75-69.583-38.25-89.25C354 438.917 319.75 429 276.75 429c-28 0-50.417 3.5-67.25 10.5-16.833 6.833-29 14.167-36.5 22h-.5v-25h-123v377.75ZM174.25 575.5v-47.75c3.5-3.833 10.917-7.75 22.25-11.75 11.5-4 25-6 40.5-6 18.667 0 32.917 3.083 42.75 9.25 10 6.167 15 15.75 15 28.75v2.5c0 14.167-5 24.917-15 32.25-9.833 7.333-24.333 11-43.5 11-16.333 0-30-2.083-41-6.25-10.833-4.333-17.833-8.333-21-12Z" fill="#D2E3FC"/><path d="M49.5 814.25h-5v5h5v-5Zm124.5 0v5h4.985l.015-4.985-5-.015Zm.5-166.75 2.75-4.176-7.722-5.085-.028 9.246 5 .015Zm35.75 16-1.705 4.7.02.008.021.007 1.664-4.715Zm167-22.5 3.07 3.947.007-.006.008-.006L377.25 641Zm2.25-182.25-3.07 3.947.008.006.008.006 3.054-3.959Zm-170-19.25 1.881 4.633.019-.008.02-.008-1.92-4.617Zm-36.5 22v5h2.135l1.477-1.542L173 461.5Zm-.5 0h-5v5h5v-5Zm0-25h5v-5h-5v5Zm-123 0v-5h-5v5h5Zm124.75 139h-5v1.86l1.216 1.408 3.784-3.268Zm0-47.75-3.692-3.371-1.308 1.432v1.939h5ZM196.5 516l-1.643-4.722-.01.003-.011.004L196.5 516Zm83.25 3.25-2.656 4.236.016.01.016.01 2.624-4.256Zm0 63.5-2.957-4.032-.016.012-.016.012 2.989 4.008Zm-84.5 4.75-1.857 4.642.043.017.043.017 1.771-4.676ZM49.5 819.25H174v-10H49.5v10Zm129.5-4.985.5-166.75-10-.03-.5 166.75 10 .03Zm-7.25-162.589c7.362 4.848 19.76 10.345 36.795 16.524l3.41-9.4c-16.965-6.154-28.4-11.324-34.705-15.476l-5.5 8.352Zm36.836 16.539c17.725 6.256 40.176 9.285 67.164 9.285v-10c-26.345 0-47.561-2.971-63.836-8.715l-3.328 9.43Zm67.164 9.285c41.561 0 76.534-10.748 104.57-32.553l-6.14-7.894c-25.964 20.195-58.658 30.447-98.43 30.447v10Zm104.585-32.565c28.379-22.248 42.415-53.796 42.415-93.935h-10c0 37.527-12.964 65.98-38.585 86.065l6.17 7.87ZM422.75 551v-3h-10v3h10Zm0-3c0-40.977-13.179-72.372-40.196-93.209l-6.108 7.918C400.429 481.206 412.75 509.31 412.75 548h10Zm-40.18-93.197C355.94 434.092 320.494 424 276.75 424v10c42.256 0 75.31 9.742 99.68 28.697l6.14-7.894ZM276.75 424c-28.342 0-51.491 3.532-69.17 10.883l3.84 9.234C227.408 437.468 249.092 434 276.75 434v-10Zm-69.131 10.867c-17.103 6.943-30.021 14.6-38.231 23.175l7.224 6.916c6.79-7.092 18.205-14.101 34.769-20.825l-3.762-9.266ZM173 456.5h-.5v10h.5v-10Zm4.5 5v-25h-10v25h10Zm-5-30h-123v10h123v-10Zm-128 5v377.75h10V436.5h-10Zm134.75 139v-47.75h-10v47.75h10Zm-1.308-44.379c2.577-2.822 8.896-6.409 20.222-10.406l-3.328-9.43c-11.341 4.003-19.855 8.249-24.278 13.094l7.384 6.742Zm20.201-10.399C208.993 516.949 221.914 515 237 515v-10c-15.914 0-29.993 2.051-42.143 6.278l3.286 9.444ZM237 515c18.245 0 31.404 3.036 40.094 8.486l5.312-8.472C271.43 508.13 256.088 505 237 505v10Zm40.126 8.506c8.344 5.146 12.624 13.008 12.624 24.494h10c0-14.514-5.72-25.818-17.376-33.006l-5.248 8.512ZM289.75 548v2.5h10V548h-10Zm0 2.5c0 12.834-4.437 21.97-12.957 28.218l5.914 8.064c11.48-8.419 17.043-20.783 17.043-36.282h-10Zm-12.989 28.242c-8.606 6.418-21.855 10.008-40.511 10.008v10c19.678 0 35.428-3.743 46.489-11.992l-5.978-8.016ZM236.25 588.75c-15.946 0-28.968-2.039-39.229-5.926l-3.542 9.352c11.739 4.446 26.051 6.574 42.771 6.574v-10Zm-39.143-5.892c-5.288-2.116-9.519-4.102-12.751-5.949-3.29-1.88-5.274-3.464-6.322-4.677l-7.568 6.536c2.119 2.454 5.218 4.703 8.928 6.823 3.768 2.153 8.454 4.333 13.999 6.551l3.714-9.284Z" fill="#FF6D7F"/><path d="m1375.25 846.5-3.56 3.513.02.023.03.022 3.51-3.558Zm119.5 11 1.85 4.646.02-.009.02-.009-1.89-4.628Zm30.5-21 4.98-.424-1.16-13.623-7.9 11.157 4.08 2.89Zm2 16.75-4.9.981v.024l.01.025 4.89-1.03Zm4 9.75-4.29 2.572 1.46 2.428h2.83v-5Zm126.75 0v5h5v-5h-5Zm0-3.25h5v-1.246l-.58-1.1-4.42 2.346Zm-6.25-19.75-4.95.737.01.051.01.051 4.93-.839Zm-31.5-193-3.12 3.908.01.008.01.008 3.1-3.924Zm-205.75.75 2.81 4.138.01-.007.01-.007-2.83-4.124ZM1378.75 715h-5v4.978l4.98.022.02-5Zm111.75.5-.02 5 5.02.022V715.5h-5Zm3.5-20.5-4.07-2.906-.05.065-.04.068L1494 695Zm26.75 0-4.25 2.632.04.071.05.07 4.16-2.773Zm3.5 30-.07 4.999 5.07.074V725h-5Zm-86.75-1.25-.08 4.999h.01l.07-4.999Zm-63.25 16.5-3.36-3.702-.01.011-.02.011 3.39 3.68Zm104 30-4.92.894.04.213.06.209 4.82-1.316Zm3-2.5-.36 4.987.14.01.13.002.09-4.999Zm43 .75h5v-4.914l-4.91-.085-.09 4.999Zm-10.75 32.25 2.11 4.534.04-.02.04-.021-2.19-4.493Zm-32.25-1.25-4.72 1.636.03.111.05.11 4.64-1.857ZM1350.5 792c0 23.998 6.9 43.54 21.19 58.013l7.12-7.026c-12.04-12.194-18.31-28.985-18.31-50.987h-10Zm21.24 58.058c14.65 14.465 36.93 21.192 65.76 21.192v-10c-27.5 0-46.72-6.44-58.74-18.308l-7.02 7.116Zm65.76 21.192c23.85 0 43.63-2.952 59.1-9.104l-3.7-9.292c-13.86 5.514-32.25 8.396-55.4 8.396v10Zm59.14-9.122c15.06-6.159 26.23-13.621 32.69-22.738l-8.16-5.78c-4.88 6.883-14.03 13.421-28.31 19.262l3.78 9.256Zm23.63-25.204c.67 7.842 1.35 13.672 2.08 17.307l9.8-1.962c-.6-3.032-1.25-8.369-1.92-16.193l-9.96.848Zm2.09 17.356c.8 3.808 2.37 7.575 4.6 11.292l8.58-5.144c-1.77-2.95-2.87-5.683-3.4-8.208l-9.78 2.06Zm8.89 13.72H1658v-10h-126.75v10Zm131.75-5v-3.25h-10V863h10Zm-.58-5.596c-2.52-4.739-4.47-10.78-5.74-18.243l-9.86 1.678c1.4 8.204 3.62 15.33 6.76 21.257l8.84-4.692Zm-5.72-18.141c-1.13-7.563-1.7-15.648-1.7-24.263h-10c0 9.052.6 17.633 1.8 25.737l9.9-1.474ZM1655 815v-94.5h-10V815h10Zm0-94.5c0-34.337-10.26-60.524-31.65-77.424l-6.2 7.848c18.27 14.434 27.85 37.246 27.85 69.576h10Zm-31.63-77.408c-21.24-16.952-57.23-24.842-106.62-24.842v10c48.94 0 81.95 7.943 100.38 22.658l6.24-7.816Zm-106.62-24.842c-44.84 0-80.08 8.242-105.08 25.376l5.66 8.248c22.66-15.532 55.59-23.624 99.42-23.624v-10Zm-105.06 25.362c-24.97 16.941-37.94 39.054-37.94 66.138h10c0-23.249 10.87-42.47 33.56-57.862l-5.62-8.276Zm-37.94 66.138V715h10v-5.25h-10Zm4.98 10.25 111.75.5.04-10-111.75-.5-.04 10Zm116.77-4.5V710h-10v5.5h10Zm0-5.5c0-6.012 1.1-9.883 2.66-12.227l-8.32-5.546c-3.1 4.656-4.34 10.785-4.34 17.773h10Zm2.57-12.094c1.36-1.912 3.51-3.156 7.43-3.156v-10c-6.41 0-11.93 2.256-15.57 7.344l8.14 5.812Zm7.43-3.156c7.82 0 10.34 1.813 11 2.882l8.5-5.264c-3.67-5.931-11.32-7.618-19.5-7.618v10Zm11.09 3.023c1.59 2.379 2.66 6.112 2.66 11.727h10c0-6.718-1.26-12.652-4.34-17.273l-8.32 5.546Zm2.66 11.727V725h10v-15.5h-10Zm5.07 10.501-86.75-1.25-.14 9.998 86.75 1.25.14-9.998Zm-86.74-1.25c-29.92-.507-52.6 5.004-66.69 17.797l6.72 7.404c11.24-10.207 30.73-15.696 59.81-15.203l.16-9.998Zm-66.72 17.819c-13.85 12.747-20.36 31.547-20.36 55.43h10c0-22.117 5.99-37.817 17.14-48.07l-6.78-7.36ZM1484 782c0-5.857-.22-10.47-.93-13.066l-9.64 2.632c.29 1.071.57 4.291.57 10.434h10Zm-.83-12.644c0 .006.07.364-.07.919a3.522 3.522 0 0 1-1.15 1.816c-.56.464-1.06.593-1.22.624-.15.031-.13.002.16.022l.72-9.974c-1.53-.109-4.03-.049-6.06 1.646-2.44 2.034-2.55 4.897-2.22 6.735l9.84-1.788Zm-2.01 3.393 43 .75.18-9.998-43-.75-.18 9.998Zm38.09-4.249v12.25h10V768.5h-10Zm0 12.25c0 4.33-.79 7.588-2.09 10.008-1.27 2.359-3.16 4.182-5.85 5.499l4.38 8.986c4.47-2.183 7.96-5.444 10.28-9.751 2.28-4.246 3.28-9.239 3.28-14.742h-10Zm-7.86 15.466c-6.47 3.01-13.49 4.534-21.14 4.534v10c9.02 0 17.5-1.809 25.36-5.466l-4.22-9.068Zm-21.14 4.534c-1.34 0-2.13-.311-2.65-.669-.53-.368-1.15-1.055-1.71-2.438l-9.28 3.714c1.11 2.783 2.82 5.221 5.29 6.937 2.48 1.725 5.36 2.456 8.35 2.456v-10Zm-4.28-2.886c-1.24-3.588-1.97-8.795-1.97-15.864h-10c0 7.598.77 14.057 2.53 19.136l9.44-3.272ZM1034.25 446h-5v5h5v-5Zm129.25 0v5h5v-5h-5Zm0-115.5-4.42-2.332-.58 1.095v1.237h5Zm42.75-45.75 2.71 4.2.01-.006-2.72-4.194Zm93.25-15.25-1.31 4.826.02.003.01.004 1.28-4.833Zm20.5 8-2.49 4.333 7.49 4.315V277.5h-5Zm0-62.5h5v-3.342l-3.09-1.278L1320 215Zm-18.75-5.75-1.29 4.831.06.017.07.015 1.16-4.863Zm-97.5 18.25 2.97 4.025v-.004l-2.97-4.021Zm-41 45.25v5h3.05l1.39-2.709-4.44-2.291Zm-.5 0h-5v5h5v-5Zm0-55.25h5v-5h-5v5Zm-128 0v-5h-5v5h5Zm0 233.5h129.25v-10h-129.25v10Zm134.25-5V330.5h-10V446h10Zm-.58-113.168c9.24-17.513 22.87-32.142 41.04-43.882l-5.42-8.4c-19.5 12.593-34.36 28.464-44.46 47.618l8.84 4.664Zm41.05-43.888c18.24-11.837 37.55-17.694 58.03-17.694v-10c-22.52 0-43.71 6.476-63.47 19.306l5.44 8.388ZM1267 271.25c13.47 0 23.8 1.075 31.19 3.076l2.62-9.652c-8.61-2.332-19.95-3.424-33.81-3.424v10Zm31.22 3.083c7.87 2.089 14.27 4.611 19.29 7.5l4.98-8.666c-5.98-3.444-13.25-6.255-21.71-8.5l-2.56 9.666ZM1325 277.5V215h-10v62.5h10Zm-3.09-67.12c-5.16-2.137-11.69-4.126-19.5-5.993l-2.32 9.726c7.52 1.799 13.5 3.644 18 5.507l3.82-9.24Zm-19.37-5.961c-8.16-2.175-20.2-3.169-35.79-3.169v10c15.41 0 26.37 1.006 33.21 2.831l2.58-9.662Zm-35.79-3.169c-23.95 0-45.99 7.456-65.97 22.229l5.94 8.042c18.35-13.561 38.32-20.271 60.03-20.271v-10Zm-65.97 22.225c-19.44 14.325-33.7 29.961-42.47 46.984l8.88 4.582c7.9-15.31 20.97-29.841 39.53-43.516l-5.94-8.05Zm-38.03 44.275h-.5v10h.5v-10Zm4.5 5V217.5h-10v55.25h10Zm-5-60.25h-128v10h128v-10Zm-133 5V446h10V217.5h-10ZM684.75 846.5l-3.763 3.293.022.025.022.024 3.719-3.342Zm135 8.75 1.773 4.675.011-.004.011-.004-1.795-4.667ZM860.5 829l4.987-.363-.954-13.115-8.001 10.436L860.5 829Zm2.5 21-4.896 1.013.003.017.004.018L863 850Zm6.5 13-3.841 3.201 1.499 1.799h2.342v-5Zm93.5 0v5h5v-5h-5Zm0-3.25h5v-1.553l-.88-1.28-4.12 2.833ZM924.5 647l-3.234 3.813.01.008.01.009L924.5 647Zm-196.5.75 2.975 4.018.01-.007.01-.007L728 647.75ZM695.25 715h-5v4.968l4.968.032.032-5Zm78 .5-.032 5 5.032.032V715.5h-5Zm86.5 9.5-.055 5 5.055.055V725h-5Zm-114.25-1.25-.088 4.999.017.001h.016l.055-5Zm-60.5 16.5-3.46-3.61-.012.012-.013.012L685 740.25Zm79.75 30-1.773-4.675-.028.01-.027.011 1.828 4.654Zm25.75-2.5-.068 5h.014l.054-5Zm69.25.75h5v-4.946l-4.946-.054-.054 5Zm-93.5 31-3.037 3.972.064.049.067.048 2.906-4.069Zm-104-7.5c0 23.842 6.059 43.304 18.737 57.793l7.526-6.586C677.857 831.03 672.25 814.158 672.25 792h-10Zm18.781 57.842c13.263 14.758 35.897 21.408 66.219 21.408v-10c-29.345 0-48.377-6.516-58.781-18.092l-7.438 6.684Zm66.219 21.408c29.38 0 54.195-3.709 74.273-11.325l-3.546-9.35c-18.589 7.051-42.107 10.675-70.727 10.675v10Zm74.295-11.333c19.854-7.637 34.438-16.808 42.923-27.875l-7.936-6.084c-6.849 8.933-19.431 17.262-38.577 24.625l3.59 9.334Zm33.968-30.554c.672 9.233 1.524 16.492 2.591 21.65l9.792-2.026c-.933-4.509-1.747-11.25-2.409-20.35l-9.974.726Zm2.598 21.685c1.185 5.529 3.744 10.588 7.548 15.153l7.682-6.402c-2.863-3.435-4.637-7.042-5.452-10.847l-9.778 2.096ZM869.5 868H963v-10h-93.5v10Zm98.5-5v-3.25h-10V863h10Zm-.88-6.083c-3.218-4.68-5.668-10.619-7.229-17.958l-9.782 2.082c1.772 8.327 4.655 15.555 8.771 21.542l8.24-5.666Zm-7.229-17.958c-1.587-7.458-2.391-15.44-2.391-23.959h-10c0 9.148.863 17.832 2.609 26.041l9.782-2.082ZM957.5 815v-94.5h-10V815h10Zm0-94.5c0-34.239-9.612-60.398-29.786-77.33l-6.428 7.66c17.159 14.401 26.214 37.242 26.214 69.67h10Zm-29.766-77.313c-20.092-17.043-54.404-24.937-101.484-24.937v10c46.587 0 77.775 7.939 95.016 22.563l6.468-7.626ZM826.25 618.25c-44.145 0-78.166 8.231-101.245 25.496l5.99 8.008c20.587-15.401 52.067-23.504 95.255-23.504v-10Zm-101.225 25.482c-22.989 17.022-34.775 39.126-34.775 66.018h10c0-23.441 10.048-42.671 30.725-57.982l-5.95-8.036ZM690.25 709.75V715h10v-5.25h-10Zm4.968 10.25 78 .5.064-10-78-.5-.064 10Zm83.032-4.5V710h-10v5.5h10Zm0-5.5c0-4.375 1.972-7.826 7.12-10.598l-4.74-8.804c-7.852 4.228-12.38 10.777-12.38 19.402h10Zm7.12-10.598c5.352-2.881 14.876-4.652 29.38-4.652v-10c-14.829 0-26.472 1.729-34.12 5.848l4.74 8.804Zm29.38-4.652c8.691 0 15.826.432 21.461 1.259 5.713.839 9.525 2.036 11.821 3.339l4.936-8.696c-3.871-2.197-9.1-3.625-15.304-4.536-6.282-.923-13.939-1.366-22.914-1.366v10Zm33.282 4.598c4.883 2.772 6.718 6.087 6.718 10.152h10c0-8.268-4.332-14.62-11.782-18.848l-4.936 8.696Zm6.718 10.152V725h10v-15.5h-10Zm5.055 10.5-114.25-1.25-.11 10 114.25 1.25.11-10Zm-114.217-1.249c-28.783-.508-50.611 5.012-64.048 17.889l6.92 7.22c10.563-10.123 29.068-15.603 56.952-15.111l.176-9.998Zm-64.073 17.913C668.383 749.427 662.25 768.192 662.25 792h10c0-22.192 5.701-37.927 16.235-48.164l-6.97-7.172ZM762.75 782c0-2.376.464-3.902 1.046-4.878.542-.91 1.372-1.664 2.782-2.218l-3.656-9.308c-3.256 1.279-5.926 3.401-7.718 6.407-1.751 2.941-2.454 6.373-2.454 9.997h10Zm3.773-7.075c3.854-1.462 11.57-2.342 23.909-2.175l.136-10c-12.328-.166-21.778.62-27.591 2.825l3.546 9.35Zm23.923-2.175 69.25.75.108-10-69.25-.75-.108 10Zm64.304-4.25v2.25h10v-2.25h-10Zm0 2.25c0 5.195-1.4 9.42-4.049 12.92-2.692 3.555-6.923 6.688-13.087 9.2l3.772 9.26c7.336-2.988 13.23-7.064 17.288-12.425 4.101-5.416 6.076-11.817 6.076-18.955h-10Zm-17.136 22.12c-12.839 5.23-27.024 7.88-42.614 7.88v10c16.743 0 32.225-2.85 46.386-8.62l-3.772-9.26ZM795 800.75c-13.063 0-21.323-2.089-25.844-5.319l-5.812 8.138c7.146 5.104 18.053 7.181 31.656 7.181v-10Zm-25.713-5.222c-4.389-3.357-6.537-7.701-6.537-13.528h-10c0 8.84 3.519 16.162 10.463 21.472l6.074-7.944ZM49.5 709.25h-5v5h5v-5Zm124.5 0v5h4.96l.04-4.96-5-.04Zm.5-61.75 2.75-4.176-7.675-5.054-.075 9.19 5 .04Zm35.75 16-1.705 4.7.02.008.021.007 1.664-4.715Zm167-22.5 3.07 3.947.007-.006.008-.006L377.25 641Zm2.25-182.25-3.07 3.947.008.006.008.006 3.054-3.959Zm-170-19.25 1.881 4.633.019-.008.02-.008-1.92-4.617Zm-36.5 22v5h2.135l1.477-1.542L173 461.5Zm-.5 0h-5v5h5v-5Zm0-25h5v-5h-5v5Zm-123 0v-5h-5v5h5Zm124.75 139h-5v1.86l1.216 1.408 3.784-3.268Zm0-47.75-3.692-3.371-1.308 1.432v1.939h5ZM196.5 516l-1.643-4.722-.01.003-.011.004L196.5 516Zm83.25 3.25-2.656 4.236.016.01.016.01 2.624-4.256Zm0 63.5-2.957-4.032-.016.012-.016.012 2.989 4.008Zm-84.5 4.75-1.857 4.642.043.017.043.017 1.771-4.676ZM49.5 714.25H174v-10H49.5v10Zm129.5-4.96.5-61.75-10-.08-.5 61.75 10 .08Zm-7.25-57.614c7.362 4.848 19.76 10.345 36.795 16.524l3.41-9.4c-16.965-6.154-28.4-11.324-34.705-15.476l-5.5 8.352Zm36.836 16.539c17.725 6.256 40.176 9.285 67.164 9.285v-10c-26.345 0-47.561-2.971-63.836-8.715l-3.328 9.43Zm67.164 9.285c41.561 0 76.534-10.748 104.57-32.553l-6.14-7.894c-25.964 20.195-58.658 30.447-98.43 30.447v10Zm104.585-32.565c28.379-22.248 42.415-53.796 42.415-93.935h-10c0 37.527-12.964 65.98-38.585 86.065l6.17 7.87ZM422.75 551v-3h-10v3h10Zm0-3c0-40.977-13.179-72.372-40.196-93.209l-6.108 7.918C400.429 481.206 412.75 509.31 412.75 548h10Zm-40.18-93.197C355.94 434.092 320.494 424 276.75 424v10c42.256 0 75.31 9.742 99.68 28.697l6.14-7.894ZM276.75 424c-28.342 0-51.491 3.532-69.17 10.883l3.84 9.234C227.408 437.468 249.092 434 276.75 434v-10Zm-69.131 10.867c-17.103 6.943-30.021 14.6-38.231 23.175l7.224 6.916c6.79-7.092 18.205-14.101 34.769-20.825l-3.762-9.266ZM173 456.5h-.5v10h.5v-10Zm4.5 5v-25h-10v25h10Zm-5-30h-123v10h123v-10Zm-128 5v272.75h10V436.5h-10Zm134.75 139v-47.75h-10v47.75h10Zm-1.308-44.379c2.577-2.822 8.896-6.409 20.222-10.406l-3.328-9.43c-11.341 4.003-19.855 8.249-24.278 13.094l7.384 6.742Zm20.201-10.399C208.993 516.949 221.914 515 237 515v-10c-15.914 0-29.993 2.051-42.143 6.278l3.286 9.444ZM237 515c18.245 0 31.404 3.036 40.094 8.486l5.312-8.472C271.43 508.13 256.088 505 237 505v10Zm40.126 8.506c8.344 5.146 12.624 13.008 12.624 24.494h10c0-14.514-5.72-25.818-17.376-33.006l-5.248 8.512ZM289.75 548v2.5h10V548h-10Zm0 2.5c0 12.834-4.437 21.97-12.957 28.218l5.914 8.064c11.48-8.419 17.043-20.783 17.043-36.282h-10Zm-12.989 28.242c-8.606 6.418-21.855 10.008-40.511 10.008v10c19.678 0 35.428-3.743 46.489-11.992l-5.978-8.016ZM236.25 588.75c-15.946 0-28.968-2.039-39.229-5.926l-3.542 9.352c11.739 4.446 26.051 6.574 42.771 6.574v-10Zm-39.143-5.892c-5.288-2.116-9.519-4.102-12.751-5.949-3.29-1.88-5.274-3.464-6.322-4.677l-7.568 6.536c2.119 2.454 5.218 4.703 8.928 6.823 3.768 2.153 8.454 4.333 13.999 6.551l3.714-9.284Z" fill="#1A73E8"/><path d="M243.25 763.25h124.5l.5-115.75c6.833 4.5 18.75 9.833 35.75 16 17 6 38.833 9 65.5 9 40.667 0 74.5-10.5 101.5-31.5 27-21.167 40.5-51.167 40.5-90v-3c0-39.833-12.75-69.583-38.25-89.25C547.75 438.917 513.5 429 470.5 429c-28 0-50.417 3.5-67.25 10.5-16.833 6.833-29 14.167-36.5 22h-.5v-25h-123v326.75ZM368 575.5v-47.75c3.5-3.833 10.917-7.75 22.25-11.75 11.5-4 25-6 40.5-6 18.667 0 32.917 3.083 42.75 9.25 10 6.167 15 15.75 15 28.75v2.5c0 14.167-5 24.917-15 32.25-9.833 7.333-24.333 11-43.5 11-16.333 0-30-2.083-41-6.25-10.833-4.333-17.833-8.333-21-12ZM634.25 594c0 23 8.833 41.167 26.5 54.5 17.833 13.167 44.167 19.75 79 19.75 32.333 0 58.583-3.667 78.75-11 20.167-7.5 34.333-16.25 42.5-26.25.5 9.167 1.333 16.167 2.5 21 1.167 4.667 3.167 9 6 13H996v-3.25c-3.667-5.333-6.333-11.917-8-19.75-1.667-7.833-2.5-16.167-2.5-25v-94.5c0-33.333-12.25-57.833-36.75-73.5-24.333-15.833-65.167-23.75-122.5-23.75-52.5 0-93.083 8.167-121.75 24.5-28.667 16.167-43 36.833-43 62V517l111.75.5V512c0-6.5 3.25-11.5 9.75-15s17.083-5.25 31.75-5.25c17.667 0 29.583 1.75 35.75 5.25 6.167 3.5 9.25 8.333 9.25 14.5V527l-114.25-1.25c-38-.5-66.083 5-84.25 16.5-18 11.5-27 28.75-27 51.75Zm123.5-10c0-6 2.333-9.917 7-11.75 4.833-1.833 13.417-2.667 25.75-2.5l69.25.75v2.25c0 12.333-6.75 21.25-20.25 26.75s-28.333 8.25-44.5 8.25c-13.333 0-22.917-2.083-28.75-6.25-5.667-4.333-8.5-10.167-8.5-17.5Zm276.5 81h129.25v-90.5c9.67-16.667 23.92-30.333 42.75-41 19-10.833 39.25-16.25 60.75-16.25 13.67 0 24.5.917 32.5 2.75 8.17 1.833 15 4.333 20.5 7.5V434c-4.83-2-11.08-3.917-18.75-5.75-7.5-2-19-3-34.5-3-22.83 0-43.83 7.083-63 21.25-19 14-32.67 29.083-41 45.25h-.5V436.5h-128V665Zm291-71c0 23 8.83 41.167 26.5 54.5 17.83 13.167 44.17 19.75 79 19.75 32.33 0 58.58-3.667 78.75-11 20.17-7.5 34.33-16.25 42.5-26.25.5 9.167 1.33 16.167 2.5 21 1.17 4.667 3.17 9 6 13H1687v-3.25c-3.67-5.333-6.33-11.917-8-19.75s-2.5-16.167-2.5-25v-94.5c0-33.333-12.25-57.833-36.75-73.5-24.33-15.833-65.17-23.75-122.5-23.75-52.5 0-93.08 8.167-121.75 24.5-28.67 16.167-43 36.833-43 62V517l111.75.5V512c0-6.5 3.25-11.5 9.75-15s17.08-5.25 31.75-5.25c17.67 0 29.58 1.75 35.75 5.25 6.17 3.5 9.25 8.333 9.25 14.5V527l-114.25-1.25c-38-.5-66.08 5-84.25 16.5-18 11.5-27 28.75-27 51.75Zm123.5-10c0-6 2.33-9.917 7-11.75 4.83-1.833 13.42-2.667 25.75-2.5l69.25.75v2.25c0 12.333-6.75 21.25-20.25 26.75s-28.33 8.25-44.5 8.25c-13.33 0-22.92-2.083-28.75-6.25-5.67-4.333-8.5-10.167-8.5-17.5Z" fill="#3C4043"/><path d="M57.504 378.144h-.648L48.972 361.8h3.384l6.444 13.752h.432l6.444-13.752h3.384l-7.884 16.344h-.648V387h-3.024v-8.856ZM72.203 361.8h17.712v2.808h-7.344V387h-3.024v-22.392h-7.344V361.8Zm22.51 0h8.281c3.12 0 5.4.744 6.84 2.232 1.44 1.488 2.16 3.864 2.16 7.128v6.48c0 3.264-.72 5.64-2.16 7.128-1.44 1.488-3.72 2.232-6.84 2.232h-8.28v-2.844h2.16v-19.548h-2.16V361.8Zm7.849 22.392c1.104 0 2.052-.108 2.844-.324.816-.216 1.488-.576 2.016-1.08.528-.528.912-1.224 1.152-2.088.264-.864.396-1.956.396-3.276v-6.048c0-1.32-.132-2.412-.396-3.276-.24-.864-.624-1.548-1.152-2.052-.528-.528-1.2-.9-2.016-1.116-.792-.216-1.74-.324-2.844-.324h-2.664v19.584h2.664Zm14.951-22.392h15.264v2.808h-12.24v8.352h12.024v2.808h-12.024v8.424h12.456V387h-15.48v-25.2ZM490.04 837.8l5.652 11.16h.648l5.652-11.16h3.312l-6.3 12.348v.432l6.3 12.42h-3.312l-5.652-11.232h-.648L490.04 863h-3.312l6.3-12.42v-.432l-6.3-12.348h3.312Zm19.163 9.792c0-3.264.78-5.796 2.34-7.596 1.56-1.8 3.732-2.7 6.516-2.7s4.956.9 6.516 2.7c1.56 1.8 2.34 4.332 2.34 7.596v5.616c0 3.36-.78 5.916-2.34 7.668-1.56 1.752-3.732 2.628-6.516 2.628s-4.956-.876-6.516-2.628c-1.56-1.752-2.34-4.308-2.34-7.668v-5.616Zm8.856 13.104c1.944 0 3.396-.66 4.356-1.98.984-1.344 1.476-3.252 1.476-5.724v-5.184c0-2.304-.492-4.164-1.476-5.58-.96-1.416-2.412-2.124-4.356-2.124s-3.408.708-4.392 2.124c-.96 1.416-1.44 3.276-1.44 5.58v5.184c0 2.472.48 4.38 1.44 5.724.984 1.32 2.448 1.98 4.392 1.98Zm17.111-8.064V863h-3.024v-25.2h9c1.296 0 2.424.192 3.384.576.96.36 1.752.852 2.376 1.476a5.83 5.83 0 0 1 1.44 2.196 6.74 6.74 0 0 1 .504 2.592v1.08c0 .912-.168 1.788-.504 2.628a6.158 6.158 0 0 1-1.44 2.232c-.648.624-1.452 1.128-2.412 1.512-.96.36-2.076.54-3.348.54h-5.976Zm0-2.808h5.616c3.36 0 5.04-1.44 5.04-4.32v-.648c0-1.272-.42-2.292-1.26-3.06-.816-.792-2.076-1.188-3.78-1.188h-5.616v9.216Zm18.119-2.232c0-3.264.78-5.796 2.34-7.596 1.56-1.8 3.732-2.7 6.516-2.7s4.956.9 6.516 2.7c1.56 1.8 2.34 4.332 2.34 7.596v5.616c0 3.072-.66 5.484-1.98 7.236-1.296 1.728-3.12 2.724-5.472 2.988v1.512c0 .72.324 1.08.972 1.08h3.024v2.592h-4.032c-.816 0-1.488-.264-2.016-.792-.504-.528-.756-1.2-.756-2.016v-2.376c-2.376-.288-4.212-1.296-5.508-3.024-1.296-1.728-1.944-4.128-1.944-7.2v-5.616Zm8.856 13.104c1.944 0 3.396-.66 4.356-1.98.984-1.344 1.476-3.252 1.476-5.724v-5.184c0-2.304-.492-4.164-1.476-5.58-.96-1.416-2.412-2.124-4.356-2.124s-3.408.708-4.392 2.124c-.96 1.416-1.44 3.276-1.44 5.58v5.184c0 2.472.48 4.38 1.44 5.724.984 1.32 2.448 1.98 4.392 1.98ZM908.504 234.144h-.648l-7.884-16.344h3.384l6.444 13.752h.432l6.444-13.752h3.384l-7.884 16.344h-.648V243h-3.024v-8.856Zm14.699-6.552c0-3.264.78-5.796 2.34-7.596 1.56-1.8 3.732-2.7 6.516-2.7s4.956.9 6.516 2.7c1.56 1.8 2.34 4.332 2.34 7.596v5.616c0 3.36-.78 5.916-2.34 7.668-1.56 1.752-3.732 2.628-6.516 2.628s-4.956-.876-6.516-2.628c-1.56-1.752-2.34-4.308-2.34-7.668v-5.616Zm8.856 13.104c1.944 0 3.396-.66 4.356-1.98.984-1.344 1.476-3.252 1.476-5.724v-5.184c0-2.304-.492-4.164-1.476-5.58-.96-1.416-2.412-2.124-4.356-2.124s-3.408.708-4.392 2.124c-.96 1.416-1.44 3.276-1.44 5.58v5.184c0 2.472.48 4.38 1.44 5.724.984 1.32 2.448 1.98 4.392 1.98Zm17.111-8.064V243h-3.024v-25.2h9c1.296 0 2.424.192 3.384.576.96.36 1.752.852 2.376 1.476a5.83 5.83 0 0 1 1.44 2.196 6.74 6.74 0 0 1 .504 2.592v1.08c0 .912-.168 1.788-.504 2.628a6.158 6.158 0 0 1-1.44 2.232c-.648.624-1.452 1.128-2.412 1.512-.96.36-2.076.54-3.348.54h-5.976Zm0-2.808h5.616c3.36 0 5.04-1.44 5.04-4.32v-.648c0-1.272-.42-2.292-1.26-3.06-.816-.792-2.076-1.188-3.78-1.188h-5.616v9.216Zm18.119-2.232c0-3.264.78-5.796 2.34-7.596 1.56-1.8 3.732-2.7 6.516-2.7s4.956.9 6.516 2.7c1.56 1.8 2.34 4.332 2.34 7.596v5.616c0 3.072-.66 5.484-1.98 7.236-1.296 1.728-3.12 2.724-5.472 2.988v1.512c0 .72.324 1.08.972 1.08h3.024v2.592h-4.032c-.816 0-1.488-.264-2.016-.792-.504-.528-.756-1.2-.756-2.016v-2.376c-2.376-.288-4.212-1.296-5.508-3.024-1.296-1.728-1.944-4.128-1.944-7.2v-5.616Zm8.856 13.104c1.944 0 3.396-.66 4.356-1.98.984-1.344 1.476-3.252 1.476-5.724v-5.184c0-2.304-.492-4.164-1.476-5.58-.96-1.416-2.412-2.124-4.356-2.124s-3.408.708-4.392 2.124c-.96 1.416-1.44 3.276-1.44 5.58v5.184c0 2.472.48 4.38 1.44 5.724.984 1.32 2.448 1.98 4.392 1.98ZM1787.04 837.8l5.65 11.16h.65l5.65-11.16h3.31l-6.3 12.348v.432l6.3 12.42h-3.31l-5.65-11.232h-.65L1787.04 863h-3.31l6.3-12.42v-.432l-6.3-12.348h3.31Zm19.16 0h17.71v2.808h-7.34V863h-3.02v-22.392h-7.35V837.8Zm38.79 25.2h-3.03v-8.424c0-.624-.14-1.104-.43-1.44-.29-.336-.79-.504-1.51-.504h-7.85V863h-3.02v-25.2h9c1.29 0 2.42.192 3.38.576.96.36 1.75.852 2.38 1.476a6.027 6.027 0 0 1 1.44 2.196c.33.816.5 1.68.5 2.592v1.08c0 .936-.26 1.872-.79 2.808-.51.936-1.3 1.656-2.38 2.16v.432c.72.12 1.29.408 1.69.864.41.456.62 1.104.62 1.944V863Zm-12.82-13.176h5.62c1.7 0 2.96-.36 3.78-1.08.84-.744 1.26-1.824 1.26-3.24v-.648c0-1.272-.42-2.292-1.26-3.06-.82-.792-2.08-1.188-3.78-1.188h-5.62v9.216Zm32.37 6.912h-10.8l-1.83 6.264h-3.24l7.63-25.2h5.69l7.63 25.2h-3.24l-1.84-6.264Zm-5.61-17.64-4.36 14.832h9.15l-4.36-14.832h-.43Z" fill="#FF6D7F"/></g><defs><clipPath id="a"><path fill="#fff" d="M0 0h1920v1080H0z"/></clipPath></defs></svg>