<svg xmlns="http://www.w3.org/2000/svg" width="1920" height="1080" fill="none"><g clip-path="url(#a)"><mask id="b" width="989" height="539" x="971" y="566" maskUnits="userSpaceOnUse" style="mask-type:alpha"><path fill="#FF1400" d="M971.975 566.04H1960v325.907l-94.68 46.374-19.97-12.882-12.88 9.661-10.3 43.798-18.68 9.661-16.1-9.661-10.31-23.831-64.09 43.154-247 106.269-352.32-142.982-5.79 9.661-135.905-48.306V566.04Z"/></mask><g mask="url(#b)"><ellipse cx="1447.95" cy="1045.87" stroke="#FF6D7F" stroke-width="88.884" rx="388.383" ry="387.082"/></g><mask id="c" width="989" height="539" x="-17" y="565" maskUnits="userSpaceOnUse" style="mask-type:alpha"><path fill="#FF1400" d="M-17 565.142h988.025v325.906l-135.902-7.729-9.017 16.746-4.509 44.442-34.136 3.865-63.442 48.95L477.013 1103.6-17 878.167V565.142Z"/></mask><g mask="url(#c)"><ellipse cx="458.978" cy="1047.55" stroke="#FF6D7F" stroke-width="86.307" rx="388.383" ry="387.082"/></g><path fill="#3C4043" d="m1104.97 513.323-7.62-2.647 1.72-10.443-69.21-23.978-5.08 9.247-7.67-2.646 3.42-9.818 5.5-15.851 76.51-5.206.1-.383-57.2-50.518 9.19-26.491 7.68 2.646-1.73 10.442 69.22 23.978 5.07-9.247 7.63 2.647-10.96 31.592-7.62-2.647 1.88-10.99-25.45-8.824-36.86-12.767-.15.275 58.69 52.291-2.75 7.898-78.67 5.789.01.327 36.84 12.332 25.45 8.823 5.39-10.016 7.62 2.648-10.95 31.591v-.054ZM1149.47 401.556l-6.78-4.297 4.08-9.72-61.8-39.372-7.11 7.811-6.84-4.351 17.94-28.17 6.83 4.351-4.08 9.72 61.8 39.372 7.11-7.811 6.78 4.352-17.93 28.17v-.055ZM1168.97 366.817l-5.82-5.568 5.9-8.771-52.84-50.758-8.5 6.254-5.88-5.622 7.23-7.485 8.83-9.149 83.88 17.343.16-.384-45.03-43.262-9.2 7.029-5.87-5.621 15.95-16.579 7.23-7.486 5.88 5.622-5.9 8.771 59.94 57.557-7.98 8.317-85.01-16.725-.16.385 45.36 43.583 9.2-7.029 5.82 5.568-23.13 24.118-.06-.108ZM1236.59 298.634l-4.21-6.85 7.95-6.953-38.22-62.516-9.8 3.932-4.21-6.904 8.9-5.443 22.17-13.58c7.02-4.265 14.18-6.353 21.43-6.207 7.25.146 14.1 2.261 20.61 6.346 6.5 4.084 12 9.875 16.6 17.373l1.01 1.672c4.49 7.336 7.13 14.813 7.91 22.377.79 7.563-.34 14.616-3.39 21.156-3.05 6.541-8.08 11.971-15.09 16.236l-31.61 19.305-.05.056Zm14.47-20.369 11.44-7.014c5.01-3.086 8.49-7.072 10.42-12.012 1.93-4.94 2.43-10.291 1.57-16.109-.86-5.763-3.03-11.45-6.4-17.06l-1.13-1.78c-3.53-5.771-7.64-10.333-12.39-13.739-4.75-3.352-9.69-5.283-14.93-5.736-5.24-.454-10.34.834-15.36 3.92l-11.43 7.014 38.21 62.516ZM1357.14 240.328l-1.72-7.874 9.8-3.987-15.87-71.901-20.58 4.557.99 13.011-9.23 2.015-4.85-21.885 75.48-16.636 4.86 21.885-9.13 2.013-4.63-12.186-20.58 4.557 15.87 71.901 10.56-.511 1.72 7.874-32.64 7.166-.05.001ZM1417.14 227.068l.35-8.02 10.5-1.328 3.08-73.213-10.34-2.218.35-8.129 33.39 1.38-.35 8.128-10.5 1.328-1.35 32.079 44.41 1.841 1.35-32.078-10.35-2.218.35-8.129 10.42.418 12.55.544 10.42.418-.35 8.129-10.5 1.328-3.08 73.213 10.34 2.218-.35 8.02-33.39-1.38.35-8.02 10.5-1.328 1.31-31.205-44.41-1.842-1.3 31.205 10.34 2.219-.35 8.019-33.39-1.379ZM1512.27 232.768l2.31-7.727 10.49 1.289 21.3-70.097-9.46-4.741 2.37-7.782 65.87 20.001-6.49 21.375-9.65-2.939 2.35-12.525-32.89-10.002-8.81 28.992 32.82 9.949-2.88 9.481-32.83-9.948-9.8 32.226 34.86 10.567 5.08-11.864 9.59 2.885-6.44 21.319-67.8-20.568.01.109ZM1648.11 294.995c-7.01-4.947-11.97-10.912-14.81-17.786-2.85-6.873-3.63-14.219-2.29-21.929 1.28-7.764 4.63-15.4 10.01-22.962l.9-1.27c5.43-7.672 11.54-13.339 18.4-17.112 6.86-3.772 13.86-5.53 21.06-5.328 7.15.202 13.84 2.484 20.02 6.901 5.91 4.204 10.45 8.431 13.58 12.683 3.18 4.251 5.38 8.574 6.66 12.967l-10.86 15.345-8.44-5.958 6.72-11.784c-.92-2.328-2.43-4.646-4.49-6.954-2.05-2.308-4.77-4.66-8.13-7.054-4.36-3.086-9.13-4.583-14.37-4.547-5.23.092-10.44 1.6-15.62 4.634-5.18 3.035-9.9 7.533-14.1 13.548l-.95 1.38c-4.26 6.071-7.1 11.953-8.42 17.809-1.31 5.802-1.05 11.249.72 16.233 1.84 5.038 5.29 9.339 10.42 12.956 3.48 2.447 6.62 4.246 9.47 5.341 2.8 1.096 5.49 1.813 8.06 2.149l12.6-17.828-14.19-10.819 5.37-7.562 24.84 17.556-20.8 29.42c-3.65.5-8.12.142-13.38-1.021-5.31-1.215-11.25-4.11-17.81-8.793l-.17-.215ZM1680.15 315.7l6.12-5.231 5.21 4.652 85.07-29.615 7.01 8.218-43.33 78.713 3.7 5.823-6.12 5.231-17.31-20.359 6.12-5.231 5.48 4.593 9.05-15.749-24.1-28.364-17.12 6.241 3.65 6.151-6.12 5.231-17.26-20.305-.05.001Zm47.46-1.156 19.09 22.509 19.94-34.911 1.12-1.927-.23-.269-2.11.8-37.81 13.853v-.055ZM1739.29 387.713l7.24-3.561 6.21 8.56 65.72-32.33-3.01-10.141 7.3-3.562 4.58 9.351 14.24 29.026c2.94 5.945 4.4 11.535 4.38 16.768-.02 5.234-1.35 9.891-4.01 13.917-2.65 4.081-6.47 7.309-11.49 9.796-5.03 2.486-9.97 3.553-14.83 3.148-4.86-.406-9.31-2.128-13.45-5.326-4.14-3.199-7.66-7.771-10.6-13.716l-8.7-17.729-24.65 12.151 3.01 10.141-7.24 3.561-14.75-29.998.05-.056Zm52.44-.206 8.71 17.729c2.77 5.675 6.37 9.156 10.81 10.441 4.44 1.34 8.95.825 13.55-1.435 4.65-2.262 7.81-5.588 9.53-9.925 1.72-4.337 1.2-9.343-1.63-14.963l-8.7-17.729-32.27 15.882ZM1779.48 490.975c-1.35-5.482-1.83-10.98-1.43-16.493.39-5.458 1.66-10.932 3.91-16.368l19.33-4.644 2.29 9.5-13.75 5.473a37.542 37.542 0 0 0-1.74 9.68c-.16 3.383.23 6.865 1.11 10.502 1 4.126 2.47 7.48 4.43 10.062 1.95 2.583 4.22 4.343 6.85 5.332 2.58.991 5.42 1.105 8.4.399 2.77-.648 5.04-1.942 6.86-3.772 1.77-1.83 3.14-4.471 3.95-7.919.87-3.45 1.22-7.926 1.18-13.486-.06-6.541.6-12.277 1.99-17.153 1.39-4.876 3.55-8.839 6.44-11.887 2.9-3.049 6.62-5.131 11.07-6.19 4.73-1.119 9.25-.925 13.59.689 4.33 1.615 8.09 4.384 11.32 8.307 3.23 3.923 5.55 8.898 7.02 14.869 1.53 6.352 1.9 12.178 1.18 17.479-.73 5.301-2.12 9.904-4.07 13.7l-18.08 4.349-2.29-9.5 12.39-5.177c1.05-2.199 1.72-4.827 2.05-7.831.33-3.004-.01-6.597-1.01-10.668-.82-3.474-2.18-6.394-4.08-8.76-1.84-2.367-4.05-4.018-6.62-4.954-2.53-.937-5.31-1.107-8.3-.346-2.6.645-4.71 1.827-6.31 3.654-1.6 1.827-2.81 4.41-3.52 7.802-.76 3.393-1.11 7.815-1.18 13.214-.05 10.086-1.81 18.13-5.25 24.187-3.44 6.056-8.55 9.853-15.34 11.498-4.83 1.174-9.47.873-13.8-.795-4.34-1.669-8.21-4.654-11.44-8.905-3.24-4.25-5.68-9.55-7.21-15.956l.06.108Z"/><path fill="#F3F7FE" d="m1104.97 991.192-7.62-2.647 1.72-10.443-69.21-23.977-5.08 9.247-7.67-2.647 3.42-9.818 5.5-15.851 76.51-5.205.1-.384-57.2-50.518 9.19-26.491 7.68 2.646-1.73 10.442 69.22 23.978 5.07-9.247 7.63 2.647-10.96 31.592-7.62-2.647 1.88-10.99-25.45-8.824-36.86-12.767-.15.275 58.69 52.291-2.75 7.899-78.67 5.789.01.327 36.84 12.331 25.45 8.823 5.39-10.016 7.62 2.648-10.95 31.591v-.054ZM1149.47 879.425l-6.78-4.297 4.08-9.72-61.8-39.372-7.11 7.811-6.84-4.351 17.94-28.17 6.83 4.351-4.08 9.72 61.8 39.372 7.11-7.811 6.78 4.352-17.93 28.17v-.055ZM1168.97 844.686l-5.82-5.568 5.9-8.771-52.84-50.758-8.5 6.254-5.88-5.621 7.23-7.486 8.83-9.149 83.88 17.343.16-.384-45.03-43.262-9.2 7.029-5.87-5.621 15.95-16.579 7.23-7.486 5.88 5.622-5.9 8.771 59.94 57.557-7.98 8.317-85.01-16.724-.16.384 45.36 43.583 9.2-7.029 5.82 5.568-23.13 24.118-.06-.108ZM1236.59 776.503l-4.21-6.85 7.95-6.953-38.22-62.516-9.8 3.933-4.21-6.905 8.9-5.443 22.17-13.58c7.02-4.265 14.18-6.353 21.43-6.207 7.25.146 14.1 2.262 20.61 6.346 6.5 4.084 12 9.876 16.6 17.373l1.01 1.672c4.49 7.336 7.13 14.813 7.91 22.377.79 7.564-.34 14.616-3.39 21.156-3.05 6.541-8.08 11.971-15.09 16.236l-31.61 19.305-.05.056Zm14.47-20.369 11.44-7.014c5.01-3.086 8.49-7.071 10.42-12.011 1.93-4.94 2.43-10.292 1.57-16.11-.86-5.763-3.03-11.45-6.4-17.06l-1.13-1.78c-3.53-5.771-7.64-10.333-12.39-13.739-4.75-3.352-9.69-5.283-14.93-5.736-5.24-.454-10.34.834-15.36 3.92l-11.43 7.014 38.21 62.516ZM1357.14 718.198l-1.72-7.875 9.8-3.987-15.87-71.901-20.58 4.557.99 13.012-9.23 2.014-4.85-21.885 75.48-16.636 4.86 21.885-9.13 2.013-4.63-12.185-20.58 4.557 15.87 71.9 10.56-.511 1.72 7.875-32.64 7.166-.05.001ZM1417.14 704.937l.35-8.02 10.5-1.328 3.08-73.213-10.34-2.218.35-8.129 33.39 1.38-.35 8.129-10.5 1.328-1.35 32.078 44.41 1.842 1.35-32.079-10.35-2.218.35-8.129 10.42.418 12.55.544 10.42.418-.35 8.129-10.5 1.328-3.08 73.213 10.34 2.218-.35 8.02-33.39-1.38.35-8.02 10.5-1.328 1.31-31.205-44.41-1.842-1.3 31.206 10.34 2.218-.35 8.02-33.39-1.38ZM1512.27 710.637l2.31-7.727 10.49 1.289 21.3-70.097-9.46-4.741 2.37-7.782 65.87 20.002-6.49 21.374-9.65-2.939 2.35-12.525-32.89-10.002-8.81 28.992 32.82 9.949-2.88 9.481-32.83-9.948-9.8 32.226 34.86 10.567 5.08-11.864 9.59 2.885-6.44 21.319-67.8-20.568.01.109ZM1648.11 772.864c-7.01-4.947-11.97-10.912-14.81-17.786-2.85-6.873-3.63-14.219-2.29-21.929 1.28-7.764 4.63-15.4 10.01-22.962l.9-1.27c5.43-7.672 11.54-13.339 18.4-17.112 6.86-3.772 13.86-5.529 21.06-5.328 7.15.202 13.84 2.484 20.02 6.901 5.91 4.204 10.45 8.431 13.58 12.683 3.18 4.251 5.38 8.574 6.66 12.967l-10.86 15.345-8.44-5.958 6.72-11.784c-.92-2.328-2.43-4.646-4.49-6.954-2.05-2.308-4.77-4.659-8.13-7.054-4.36-3.086-9.13-4.583-14.37-4.546-5.23.091-10.44 1.599-15.62 4.633-5.18 3.035-9.9 7.533-14.1 13.548l-.95 1.38c-4.26 6.071-7.1 11.953-8.42 17.809-1.31 5.802-1.05 11.249.72 16.233 1.84 5.038 5.29 9.339 10.42 12.957 3.48 2.447 6.62 4.245 9.47 5.34 2.8 1.096 5.49 1.813 8.06 2.149l12.6-17.828-14.19-10.819 5.37-7.562 24.84 17.556-20.8 29.42c-3.65.5-8.12.142-13.38-1.02-5.31-1.216-11.25-4.111-17.81-8.793l-.17-.216ZM1680.15 793.569l6.12-5.231 5.21 4.652 85.07-29.615 7.01 8.218-43.33 78.713 3.7 5.823-6.12 5.232-17.31-20.36 6.12-5.231 5.48 4.593 9.05-15.749-24.1-28.364-17.12 6.241 3.65 6.151-6.12 5.232-17.26-20.306-.05.001Zm47.46-1.155 19.09 22.508 19.94-34.911 1.12-1.927-.23-.269-2.11.8-37.81 13.853v-.054ZM1739.29 865.582l7.24-3.56 6.21 8.559 65.72-32.33-3.01-10.141 7.3-3.562 4.58 9.351 14.24 29.026c2.94 5.945 4.4 11.535 4.38 16.769-.02 5.233-1.35 9.89-4.01 13.916-2.65 4.081-6.47 7.309-11.49 9.796-5.03 2.486-9.97 3.554-14.83 3.148-4.86-.406-9.31-2.127-13.45-5.326-4.14-3.199-7.66-7.771-10.6-13.716l-8.7-17.729-24.65 12.151 3.01 10.141-7.24 3.561-14.75-29.998.05-.056Zm52.44-.206 8.71 17.729c2.77 5.676 6.37 9.156 10.81 10.441 4.44 1.34 8.95.825 13.55-1.435 4.65-2.262 7.81-5.588 9.53-9.925 1.72-4.337 1.2-9.343-1.63-14.963l-8.7-17.729-32.27 15.882ZM1779.48 968.844c-1.35-5.482-1.83-10.98-1.43-16.493.39-5.458 1.66-10.932 3.91-16.368l19.33-4.644 2.29 9.5-13.75 5.474a37.535 37.535 0 0 0-1.74 9.679c-.16 3.383.23 6.865 1.11 10.502 1 4.126 2.47 7.48 4.43 10.063 1.95 2.582 4.22 4.342 6.85 5.332 2.58.99 5.42 1.104 8.4.398 2.77-.648 5.04-1.941 6.86-3.772 1.77-1.83 3.14-4.471 3.95-7.919.87-3.45 1.22-7.926 1.18-13.486-.06-6.541.6-12.277 1.99-17.153 1.39-4.876 3.55-8.839 6.44-11.887 2.9-3.049 6.62-5.131 11.07-6.19 4.73-1.118 9.25-.925 13.59.689 4.33 1.615 8.09 4.384 11.32 8.307 3.23 3.923 5.55 8.898 7.02 14.869 1.53 6.352 1.9 12.178 1.18 17.479-.73 5.301-2.12 9.904-4.07 13.7l-18.08 4.349-2.29-9.5 12.39-5.177c1.05-2.199 1.72-4.827 2.05-7.831.33-3.004-.01-6.596-1.01-10.668-.82-3.474-2.18-6.394-4.08-8.76-1.84-2.366-4.05-4.018-6.62-4.954-2.53-.937-5.31-1.107-8.3-.346-2.6.645-4.71 1.827-6.31 3.654-1.6 1.827-2.81 4.41-3.52 7.802-.76 3.393-1.11 7.815-1.18 13.214-.05 10.086-1.81 18.13-5.25 24.187-3.44 6.057-8.55 9.853-15.34 11.498-4.83 1.174-9.47.874-13.8-.795-4.34-1.669-8.21-4.654-11.44-8.904-3.24-4.251-5.68-9.551-7.21-15.957l.06.108Z"/><path fill="#3C4043" d="m45.105 433.161 6.548-14.443 75.079 3.829c1.362.072 2.773.204 4.233.395 1.466.137 2.812.372 4.105.602l.208-.473c-1.015-.861-2.083-1.728-3.137-2.756a78.818 78.818 0 0 1-3.062-2.969l-52.216-54.085 6.548-14.444 84.655 38.5-4.897 10.82-61.022-27.755c-1.154-.545-2.465-1.16-3.88-1.84a48.48 48.48 0 0 1-3.804-2.052l-.209.473c1.08.758 2.197 1.683 3.458 2.841 1.265 1.104 2.314 2.187 3.264 3.151l50.069 51.86-4.405 9.662-72.024-3.708a64.508 64.508 0 0 1-4.559-.426c-1.682-.157-3.133-.456-4.42-.741l-.208.474c1.223.387 2.598.899 4.077 1.475 1.474.63 2.79 1.191 3.944 1.736l61.023 27.755-4.822 10.609-84.546-38.49ZM105.476 319.342l7.218-9.892 75.072 54.96-7.218 9.892-75.072-54.96ZM133.377 281.985l9.199-8.832 75.466 17.88c1.499.359 2.944.713 4.384 1.121 1.44.408 2.663.796 3.772 1.228l.362-.35c-.901-.905-1.955-1.934-3.058-3.022a242.637 242.637 0 0 0-2.998-3.072l-44.2-46.112 8.66-8.334 64.359 67.098-9.199 8.831-75.466-17.879a109.935 109.935 0 0 1-4.384-1.121 99.659 99.659 0 0 1-3.886-1.184l-.302.301c.901.905 1.955 1.934 3.058 3.022a242.478 242.478 0 0 0 2.998 3.072l44.2 46.111-8.66 8.335-64.414-67.103.109.01ZM216.588 209.279l23.942-13.697c10.353-5.932 20.946-7.407 31.732-4.485 10.785 2.923 19.473 10.138 26.064 21.647l2.919 5.09c6.585 11.563 8.395 22.68 5.418 33.461-2.977 10.78-9.668 19.134-20.016 25.011l-23.941 13.697-46.112-80.778-.006.054Zm65.071 58.296c7.749-4.423 12.481-10.551 14.132-18.28 1.657-7.783-.075-16.211-5.304-25.293l-2.919-5.09c-5.175-9.078-11.581-14.931-19.121-17.441-7.539-2.51-15.186-1.526-22.934 2.897l-13.302 7.627 36.086 63.256 13.303-7.627.059-.049ZM332.809 153.439l70.406-15.329 2.149 9.835-29.225 6.361 17.678 81.027-11.959 2.607-17.677-81.027-29.224 6.361-2.148-9.835ZM431.785 135.302l12.243.212-.663 39.955 46.899.763.662-39.956 12.243.212-1.503 92.978-12.243-.212.664-42.911-46.898-.763-.665 42.912-12.242-.212 1.503-92.978ZM540.565 142.335l56.663 14.046-2.446 9.79-44.787-11.076-7.195 28.999 39.061 9.666-2.446 9.79-39.061-9.666-7.902 31.89 45.374 11.24-2.446 9.79-57.31-14.16 22.495-90.309ZM635.996 218.517c7.54-12.161 16.564-19.695 27.018-22.607 10.453-2.911 20.65-1.303 30.535 4.82 8.953 5.543 14.454 12.297 16.557 20.267 2.104 7.97 1.415 15.35-2.076 22.251l-.332.626-10.397-6.499.322-.518c2.254-3.621 2.729-8.121 1.424-13.498-1.305-5.377-5.035-9.995-11.14-13.794-6.879-4.31-14.087-5.092-21.559-2.45-7.478 2.697-14.055 8.652-19.846 17.911l-3.091 4.967c-5.737 9.264-8.18 17.85-7.325 25.703.909 7.858 5.138 14.165 12.741 18.926 3.987 2.452 7.654 4.217 11.072 5.138 3.417.921 6.989 1.364 10.73 1.166l11.463-18.42-19.607-12.23 5.345-8.589 29.753 18.487-19.185 30.783c-4.035.992-9.187 1.059-15.403.205-6.215-.853-12.763-3.435-19.647-7.69-10.505-6.51-16.708-15.136-18.725-25.78-2.018-10.644.748-22.101 8.341-34.257l3.092-4.967-.06.049ZM767.16 260.638l7.704 7.781-41.668 91.038-9.004-9.107 31.98-67.58c.62-1.366 1.284-2.618 1.943-3.815a48.401 48.401 0 0 1 2.2-3.627l-.448-.48a66.576 66.576 0 0 1-3.647 2.123 70.266 70.266 0 0 1-3.849 1.94l-68.1 31.091-8.6-8.74 91.44-40.683.049.059Zm-53.658 30.03 30.714 31.058-4.578 9.756-35.967-36.366 9.825-4.394.006-.054ZM814.402 315.304l16.46 26.005c5.492 8.615 7.481 16.629 6.131 24.057-1.399 7.37-5.682 13.375-12.892 17.903-7.216 4.582-14.459 5.932-21.837 4.039-7.328-1.833-13.736-7.084-19.228-15.698l-9.926-15.652-30.775 19.464-6.589-10.359 78.547-49.77.109.011Zm-22.816 50.917c3.864 6.109 8.095 9.46 12.644 9.994 4.549.533 8.973-.532 13.283-3.305 4.309-2.773 7.15-6.231 8.537-10.535 1.387-4.305.121-9.514-3.743-15.623l-9.926-15.652-30.776 19.464 9.927 15.652.054.005ZM795.757 413.036l4.236 11.508-.736.26c-5.27 1.917-8.584 5.166-9.883 9.698-1.353 4.527-.823 9.996 1.536 16.402 2.358 6.406 5.506 10.806 9.498 13.203 3.991 2.398 8.17 2.788 12.536 1.17 4.026-1.486 6.589-4.312 7.743-8.474 1.209-4.158 1.384-11.313.688-21.45-.77-10.528.024-18.447 2.217-23.771 2.248-5.32 6.773-9.222 13.574-11.708 6.801-2.486 13.378-1.982 19.839 1.522 6.402 3.554 11.342 9.872 14.701 19.054 3.413 9.187 3.689 17.369.938 24.558-2.751 7.188-7.811 12.136-15.18 14.843l-.736.259-4.236-11.508.736-.26c4.648-1.701 7.823-4.635 9.471-8.806 1.648-4.171 1.418-9.338-.857-15.462-2.27-6.179-5.177-10.228-8.656-12.249-3.479-2.022-7.343-2.273-11.541-.694-3.798 1.398-6.232 4.017-7.352 7.799-1.119 3.783-1.234 10.889-.445 21.199.79 10.311-.013 18.338-2.405 24.027s-7.214 9.838-14.361 12.511c-7.201 2.667-14.093 2.024-20.791-1.885-6.642-3.905-11.764-10.623-15.299-20.259-3.54-9.582-4.058-18.116-1.607-25.606 2.45-7.49 7.644-12.699 15.576-15.572l.736-.26.06-.049Z"/><path fill="#F3F7FE" d="m45.105 911.03 6.548-14.443 75.079 3.829c1.362.073 2.773.204 4.233.395 1.466.137 2.812.372 4.105.602l.208-.473c-1.015-.861-2.083-1.727-3.137-2.756a79.536 79.536 0 0 1-3.062-2.968L76.863 841.13l6.548-14.444 84.655 38.5-4.897 10.82-61.022-27.755c-1.154-.545-2.465-1.16-3.88-1.84a48.48 48.48 0 0 1-3.804-2.052l-.209.474c1.08.757 2.197 1.683 3.458 2.84 1.265 1.104 2.314 2.187 3.264 3.152l50.069 51.86-4.405 9.661-72.024-3.708a63.92 63.92 0 0 1-4.559-.426c-1.682-.157-3.133-.456-4.42-.74l-.208.473c1.223.388 2.598.899 4.077 1.475 1.474.63 2.79 1.191 3.944 1.737l61.023 27.754-4.822 10.609-84.546-38.49ZM105.476 797.212l7.218-9.892 75.072 54.959-7.218 9.892-75.072-54.959ZM133.377 759.855l9.199-8.831 75.466 17.879c1.499.359 2.944.713 4.384 1.121 1.44.408 2.663.796 3.772 1.228l.362-.35c-.901-.905-1.955-1.934-3.058-3.022a242.637 242.637 0 0 0-2.998-3.072l-44.2-46.112 8.66-8.334 64.359 67.098-9.199 8.832-75.466-17.88a109.935 109.935 0 0 1-4.384-1.121 99.659 99.659 0 0 1-3.886-1.184l-.302.301c.901.905 1.955 1.934 3.058 3.022a235.95 235.95 0 0 0 2.998 3.072l44.2 46.112-8.66 8.334-64.414-67.103.109.01ZM216.588 687.149l23.942-13.697c10.353-5.932 20.946-7.407 31.732-4.484 10.785 2.922 19.473 10.137 26.064 21.646l2.919 5.09c6.585 11.563 8.395 22.68 5.418 33.461-2.977 10.78-9.668 19.134-20.016 25.012l-23.941 13.696-46.112-80.778-.006.054Zm65.071 58.296c7.749-4.423 12.481-10.551 14.132-18.28 1.657-7.783-.075-16.211-5.304-25.293l-2.919-5.09c-5.175-9.078-11.581-14.931-19.121-17.441-7.539-2.51-15.186-1.526-22.934 2.897l-13.302 7.628 36.086 63.256 13.303-7.628.059-.049ZM332.809 631.308l70.406-15.329 2.149 9.836-29.225 6.36 17.678 81.028-11.959 2.606-17.677-81.027-29.224 6.361-2.148-9.835ZM431.785 613.171l12.243.212-.663 39.955 46.899.763.662-39.956 12.243.212-1.503 92.978-12.243-.212.664-42.911-46.898-.763-.665 42.912-12.242-.211 1.503-92.979ZM540.565 620.205l56.663 14.045-2.446 9.79-44.787-11.076-7.195 28.999 39.061 9.666-2.446 9.79-39.061-9.666-7.902 31.89 45.374 11.24-2.446 9.79-57.31-14.16 22.495-90.308ZM635.996 696.388c7.54-12.161 16.564-19.695 27.018-22.607 10.453-2.911 20.65-1.303 30.535 4.82 8.953 5.543 14.454 12.297 16.557 20.267 2.104 7.97 1.415 15.351-2.076 22.251l-.332.626-10.397-6.499.322-.517c2.254-3.622 2.729-8.122 1.424-13.499-1.305-5.377-5.035-9.995-11.14-13.794-6.879-4.31-14.087-5.092-21.559-2.45-7.478 2.697-14.055 8.652-19.846 17.911l-3.091 4.967c-5.737 9.264-8.18 17.85-7.325 25.703.909 7.859 5.138 14.165 12.741 18.926 3.987 2.452 7.654 4.217 11.072 5.138 3.417.921 6.989 1.364 10.73 1.166l11.463-18.419-19.607-12.231 5.345-8.589 29.753 18.487-19.185 30.783c-4.035.992-9.187 1.059-15.403.205-6.215-.853-12.763-3.435-19.647-7.69-10.505-6.51-16.708-15.135-18.725-25.78-2.018-10.644.748-22.101 8.341-34.257l3.092-4.967-.06.049ZM767.16 738.507l7.704 7.781-41.668 91.038-9.004-9.107 31.98-67.58c.62-1.366 1.284-2.618 1.943-3.815a48.604 48.604 0 0 1 2.2-3.627l-.448-.48a70.977 70.977 0 0 1-7.496 4.064l-68.1 31.091-8.6-8.741 91.44-40.683.049.059Zm-53.658 30.03 30.714 31.058-4.578 9.756-35.967-36.366 9.825-4.394.006-.054ZM814.402 793.173l16.46 26.006c5.492 8.614 7.481 16.628 6.131 24.057-1.399 7.369-5.682 13.374-12.892 17.902-7.216 4.582-14.459 5.932-21.837 4.039-7.328-1.833-13.736-7.084-19.228-15.698l-9.926-15.652-30.775 19.464-6.589-10.359 78.547-49.769.109.01Zm-22.816 50.917c3.864 6.109 8.095 9.46 12.644 9.994 4.549.534 8.973-.532 13.283-3.305 4.309-2.773 7.15-6.23 8.537-10.535 1.387-4.305.121-9.514-3.743-15.623l-9.926-15.652-30.776 19.464 9.927 15.652.054.005ZM795.757 890.905l4.236 11.508-.736.26c-5.27 1.917-8.584 5.166-9.883 9.698-1.353 4.527-.823 9.996 1.536 16.402 2.358 6.406 5.506 10.806 9.498 13.204 3.991 2.398 8.17 2.787 12.536 1.169 4.026-1.485 6.589-4.312 7.743-8.474 1.209-4.157 1.384-11.313.688-21.45-.77-10.528.024-18.447 2.217-23.771 2.248-5.319 6.773-9.222 13.574-11.708 6.801-2.486 13.378-1.982 19.839 1.523 6.402 3.553 11.342 9.871 14.701 19.053 3.413 9.187 3.689 17.37.938 24.558-2.751 7.189-7.811 12.136-15.18 14.843l-.736.259-4.236-11.508.736-.26c4.648-1.701 7.823-4.635 9.471-8.805 1.648-4.171 1.418-9.339-.857-15.463-2.27-6.179-5.177-10.228-8.656-12.249-3.479-2.022-7.343-2.273-11.541-.694-3.798 1.398-6.232 4.017-7.352 7.8-1.119 3.782-1.234 10.888-.445 21.199.79 10.31-.013 18.337-2.405 24.026-2.392 5.69-7.214 9.838-14.361 12.511-7.201 2.667-14.093 2.024-20.791-1.885-6.642-3.905-11.764-10.623-15.299-20.259-3.54-9.582-4.058-18.116-1.607-25.606 2.45-7.49 7.644-12.699 15.576-15.572l.736-.26.06-.049Z"/></g><defs><clipPath id="a"><path fill="#fff" d="M0 0h1920v1080H0z"/></clipPath></defs></svg>