<svg xmlns="http://www.w3.org/2000/svg" width="1920" height="1080" fill="none"><mask id="a" width="1820" height="980" x="50" y="50" maskUnits="userSpaceOnUse" style="mask-type:alpha"><path fill="red" d="M50 50h1820v980H50z"/></mask><g mask="url(#a)"><path fill="#3C4043" d="m244.178 348.462 21.038-14.464 71.191 66.871 4.321 4.321c1.315 1.315 2.817 2.817 4.132 4.508l.939-.564c-.939-1.878-1.878-3.756-2.817-5.447-.939-1.691-1.691-3.569-2.442-5.635l-36.253-91.103 24.607-16.906 72.694 65.745a50.822 50.822 0 0 1 4.508 4.508l3.945 4.508.939-.564c-.939-1.878-1.878-3.756-2.818-5.447-.939-1.69-1.878-3.569-2.629-5.635l-37.568-89.788 18.032-12.397 50.154 128.295-23.668 16.342-72.882-65.369c-1.691-1.502-3.381-3.005-4.696-4.508a46.856 46.856 0 0 0-4.321-4.32l-.939.563c.939 1.879 1.691 3.569 2.63 5.448.939 1.878 1.69 3.757 2.442 5.823l34.938 91.478-23.668 16.53-101.809-92.793ZM425.816 231.066l44.331-21.414c14.839-7.138 27.988-9.392 39.258-6.387 11.271 2.818 19.724 9.956 25.171 21.226 5.447 11.271 5.823 22.353 1.127 33.06-4.696 10.895-14.464 19.723-29.303 27.049l-21.79 10.519 21.79 45.27-22.729 10.895-57.855-120.406v.188Zm72.319 36.816c8.828-4.32 14.088-9.204 15.591-15.027 1.502-5.823.939-11.646-1.879-17.281-2.817-5.823-6.762-9.768-12.209-12.022-5.448-2.254-12.398-1.127-21.414 3.005l-21.79 10.519 19.911 41.325 21.79-10.519Zm-.751 8.641 24.231-12.773 56.916 41.888-25.922 12.398-55.413-41.701.188.188ZM590.926 159.304l26.298-8.828 88.097 112.14-25.546 8.453-61.236-81.335c-1.503-1.878-3.006-3.757-4.133-5.635-1.127-1.878-2.441-3.757-3.569-5.447l-.939.375c.188 2.254.376 4.321.376 6.575v6.95l-.751 101.809-22.166 7.326 3.382-142.383h.187Zm8.829 85.468 60.297-19.912 12.397 15.591-73.258 24.232.564-19.911ZM699.693 127.56l49.215-9.579c16.53-3.194 29.866-1.879 40.01 3.944 10.331 5.823 16.717 15.027 19.159 27.801 2.442 12.585 0 23.48-7.138 32.872-7.325 9.392-19.159 15.59-35.689 18.784l-24.607 4.884 9.204 47.711-24.607 4.884-25.547-131.113v-.188Zm61.988 55.413c9.767-1.878 16.154-5.447 19.159-10.894 3.006-5.448 3.945-11.271 2.63-17.845-1.315-6.575-4.32-11.646-9.016-15.403-4.884-3.757-12.022-4.508-21.79-2.63l-24.607 4.884 9.017 46.772 24.607-4.884ZM875.903 100.323l27.8-1.879 56.916 130.737-26.861 1.691-38.695-94.108c-.94-2.254-1.879-4.321-2.63-6.387-.752-2.066-1.503-4.132-2.066-6.199h-.94c-.375 2.255-.751 4.321-1.315 6.575l-1.69 6.762-26.298 98.241-23.292 1.502 39.071-136.935Zm-12.961 84.904 63.302-3.945 8.077 18.22-77.014 4.884 5.635-19.159ZM989.159 96.76l49.211 3.006c16.53.939 28.93 5.447 37.38 13.525 8.46 8.077 12.4 18.408 11.46 30.805-.75 12.398-5.82 22.353-15.21 29.304-9.4 7.137-22.36 10.143-38.7 9.204l-24.04-1.503-3.01 50.341-25.168-1.503 8.077-133.366v.188Zm45.271 67.435c9.77.564 16.9-1.315 21.04-5.447 4.13-4.133 6.38-9.58 6.76-15.966.37-6.387-1.13-11.834-4.7-16.53-3.57-4.509-10.33-7.138-20.1-7.702l-24.04-1.503-2.82 45.833 24.05 1.503-.19-.188Zm-4.89 7.138 27.43.752 29.3 64.429-28.74-1.691-27.99-63.49ZM1119.5 169.448c4.13-20.287 12.96-34.938 26.68-43.955 13.71-9.016 29.49-11.834 47.52-8.077 18.03 3.569 31.56 12.21 40.76 25.922 9.2 13.713 11.65 30.618 7.51 50.905l-1.5 7.326c-4.13 20.287-12.96 34.938-26.67 43.954-13.71 9.017-29.49 11.647-47.53 8.078-18.03-3.569-31.55-12.21-40.76-25.922-9.2-13.713-11.64-30.618-7.51-50.905l1.5-7.326Zm26.86 47.712c4.89 9.392 12.78 15.215 23.86 17.281 10.89 2.254 20.47 0 28.55-6.762 8.08-6.763 13.71-17.094 16.53-31.37l1.5-7.325c2.82-14.089 1.88-25.922-3.19-35.314-5.07-9.393-12.77-15.216-23.67-17.282-10.89-2.254-20.47 0-28.55 6.762-8.08 6.763-13.52 17.282-16.53 31.37l-1.5 7.326c-2.82 14.088-1.88 25.922 3 35.314ZM1300.79 145.966l23.67 8.453-28.74 80.396c-3.57 9.955-3.76 18.408-.57 24.982 3.2 6.763 9.21 11.459 17.66 14.464 8.27 3.006 15.97 3.006 22.73 0 6.76-3.005 12.02-9.58 15.59-19.723l28.74-80.396 23.1 8.265-28.73 80.396c-5.64 15.966-14.84 26.298-27.62 30.618-12.77 4.508-26.29 4.132-40.76-.939-14.27-5.072-24.98-13.337-31.93-24.983-7.14-11.458-7.7-25.359-2.07-41.325l28.74-80.396.19.188ZM1452.36 204.012l25.17 13.337 5.45 102.561v7.138c-.19 2.442-.37 4.696-.56 6.574l.75.376c.75-1.879 1.88-4.133 3.38-7.138 1.31-2.818 2.63-5.26 3.57-7.138l39.63-74.948 19.54 10.331-62.36 118.151-24.99-13.336-6.2-102.561v-6.387c0-2.066.19-3.944.38-5.823l-.75-.375c-.75 1.878-1.69 3.756-2.63 5.823-.94 2.066-1.88 4.132-2.82 5.823l-40.2 76.075-19.53-10.331 62.36-118.152h-.19ZM1595.31 284.034l37.01 26.861c15.4 11.271 24.98 25.171 28.55 41.889 3.57 16.717-.19 32.872-11.46 48.275l-4.32 6.011c-11.27 15.59-25.36 24.231-42.45 25.922-16.91 1.69-33.25-3.006-48.65-14.089l-37.01-26.861 78.33-108.196v.188Zm-30.43 119.842c10.15 7.326 20.29 9.956 31 7.89 10.7-2.067 19.91-8.641 28.17-19.724l4.51-6.011c8.08-11.27 11.46-22.165 10.14-32.872-1.31-10.707-7.13-19.723-17.28-27.049l-16.72-12.021-56.35 77.765 16.72 12.022h-.19Z"/><circle cx="959.969" cy="1194.58" r="915.418" stroke="#FF6D7F" stroke-dasharray="20 20" stroke-linejoin="round" stroke-width="10"/><path fill="#3C4043" d="m334.176 809.569 12.122-21.698 91.275 27.81c2.037.611 3.973 1.223 5.704 1.936 1.732.713 3.668 1.324 5.603 2.139l.51-.917a117.527 117.527 0 0 1-4.788-3.565c-1.528-1.121-3.056-2.445-4.686-3.871l-71.003-64.076 14.16-25.365 91.988 26.078a54.793 54.793 0 0 1 5.806 2.038c1.732.713 3.667 1.426 5.501 2.241l.509-.917c-1.63-1.222-3.26-2.445-4.788-3.667-1.528-1.121-3.157-2.343-4.787-3.769l-71.716-62.446 10.391-18.744 99.22 90.765-13.651 24.449-91.987-25.773c-2.139-.611-4.177-1.222-6.01-1.935-1.834-.714-3.668-1.325-5.603-2.038l-.509.917c1.528 1.222 3.157 2.445 4.584 3.565 1.426 1.121 3.056 2.547 4.787 4.075l70.086 64.992-13.548 24.754-129.272-36.978h.102ZM454.069 620.805l33.82-34.126c11.307-11.409 22.717-17.623 34.024-18.642 11.308-1.018 21.393 2.751 30.051 11.41 8.659 8.557 12.53 18.642 11.817 30.051-.815 11.511-6.825 22.92-18.234 34.432l-16.605 16.706 34.941 34.635-17.318 17.42-92.598-91.784.102-.102Zm78.54 10.187c6.724-6.825 9.882-13.141 9.474-18.947-.509-5.807-2.954-10.9-7.436-15.281-4.482-4.38-9.474-6.825-15.179-7.13-5.704-.306-11.918 2.954-18.642 9.779l-16.604 16.706 31.783 31.478 16.604-16.707v.102Zm2.14 8.15 18.234-19.661 66.113 20.068-19.763 19.865-64.584-20.272ZM593.543 499.278l22.92-14.568 110.019 85.366-22.208 14.058-77.216-62.445c-1.936-1.426-3.667-2.954-5.297-4.381-1.63-1.426-3.158-2.954-4.686-4.38l-.713.509c.713 2.038 1.324 4.075 1.935 6.214.611 2.14 1.121 4.279 1.63 6.52l23.532 96.572-19.254 12.224-30.662-135.689Zm28.625 78.846 52.361-33.107 15.484 11.816-63.668 40.34-4.075-19.049h-.102ZM699.067 441.217l46.146-16.401c15.382-5.501 28.523-6.214 39.22-2.038 10.798 4.075 18.234 12.123 22.411 23.94 4.176 11.816 3.463 22.716-2.241 32.801-5.705 10.085-16.197 17.929-31.682 23.43l-23.022 8.15 15.892 44.618-23.125 8.251-43.701-122.853.102.102Zm67.844 44.618c9.067-3.26 14.771-7.64 16.91-13.243 2.14-5.603 2.14-11.511 0-17.623-2.139-6.112-5.806-10.594-11.001-13.447-5.196-2.852-12.326-2.648-21.393.611l-23.022 8.15 15.586 43.803 23.022-8.149-.102-.102ZM876.624 392.52l26.995-3.158 61.936 124.687-26.18 3.056-42.378-89.746c-1.12-2.139-2.037-4.279-2.852-6.214-.815-2.038-1.63-3.973-2.343-6.01h-.917a66.544 66.544 0 0 1-.917 6.519c-.407 2.139-.815 4.381-1.324 6.622l-20.781 97.182-22.615 2.649 31.376-135.485v-.102Zm-8.557 83.43 61.528-7.029 8.761 17.42-74.873 8.557 4.584-18.948ZM997.261 386l47.779 5.195c15.99 1.732 28.01 6.724 35.85 14.975 7.85 8.251 11.21 18.438 9.89 30.561-1.33 12.122-6.73 21.392-16.2 27.912-9.47 6.519-22.21 8.964-38.2 7.232l-23.43-2.546-5.3 48.897-24.345-2.649L997.261 386Zm41.049 67.743c9.58 1.018 16.51-.408 20.68-4.483 4.18-4.074 6.62-9.066 7.24-15.382.71-6.214-.62-11.613-3.88-16.299-3.25-4.686-9.67-7.436-19.25-8.455l-23.43-2.547-4.79 44.517 23.43 2.547v.102Zm-5.09 6.723 26.69 1.936 25.57 64.177-27.91-2.954-24.45-63.159h.1ZM1125.48 465.252c6.93-18.947 17.73-31.783 32.3-38.506 14.56-6.723 30.25-6.927 47.06-.815 16.81 6.214 28.62 16.503 35.35 31.07 6.82 14.567 6.72 31.274-.31 50.221l-2.54 6.927c-6.93 18.948-17.73 31.783-32.3 38.507-14.56 6.723-30.25 6.927-47.06.815-16.91-6.214-28.63-16.503-35.45-31.07-6.72-14.568-6.62-31.274.31-50.222l2.54-6.927h.1Zm18.75 50.018c3.36 9.779 10.08 16.503 20.37 20.272 10.19 3.769 19.76 2.954 28.63-2.343 8.86-5.297 15.68-14.567 20.57-27.81l2.55-6.927c4.89-13.243 5.6-24.755 2.24-34.534-3.36-9.779-10.08-16.503-20.27-20.272-10.29-3.769-19.76-2.954-28.63 2.343-8.86 5.297-15.68 14.567-20.57 27.81l-2.55 6.927c-4.89 13.243-5.6 24.754-2.34 34.534ZM1312.82 477.478l20.27 14.058-47.37 68.456c-5.91 8.557-8.15 16.401-6.82 23.531 1.32 7.131 5.7 13.141 12.83 18.235 7.13 4.89 14.26 6.825 21.5 5.603 7.23-1.223 13.75-6.113 19.66-14.568l47.37-68.455 19.76 13.65-47.37 68.456c-9.47 13.65-20.68 20.985-33.82 22.003-13.14 1.019-25.77-2.75-38.1-11.205-12.12-8.455-20.07-18.948-23.84-31.681-3.76-12.632-.81-25.875 8.56-39.525l47.37-68.456v-.102ZM1447.18 580.059l18.24 20.883-30.97 95.35c-.61 2.037-1.53 4.176-2.55 6.417a71.679 71.679 0 0 1-2.95 5.807l.51.611c1.43-1.426 3.26-3.158 5.5-5.297s4.18-3.871 5.6-5.195l62.45-54.398 14.16 16.299-98.2 85.671-18.24-20.883 30.36-95.655c.71-2.037 1.43-3.972 2.24-5.806.81-1.834 1.63-3.565 2.44-5.195l-.5-.612c-1.33 1.325-2.86 2.853-4.38 4.381a80.777 80.777 0 0 1-4.59 4.278l-63.26 55.213-14.16-16.299 98.2-85.671.1.101ZM1553.32 714.118l20.07 39.83c8.46 16.605 10.39 33.006 6.11 49.101s-14.87 28.421-31.58 36.877l-6.52 3.259c-16.7 8.455-32.9 9.678-48.38 3.566-15.59-6.011-27.51-17.42-35.86-34.024l-20.07-39.831 116.33-58.778h-.1Zm-79.96 90.357c5.5 10.798 13.24 17.725 23.32 20.781 10.09 3.056 21.19 1.528 33.31-4.686l6.52-3.259c12.13-6.112 19.87-14.058 23.43-24.041 3.57-9.983 2.55-20.272-2.85-31.07l-9.07-17.929-83.73 42.275 9.07 17.929Z"/><circle cx="967.661" cy="1064.34" r="499.287" stroke="#FF6D7F" stroke-dasharray="20.21 20.21" stroke-linejoin="round" stroke-width="10.104"/><path fill="#3C4043" d="m570.011 1069.11 6.325-46.23c2.133-15.52 7.276-26.983 15.479-34.386 8.203-7.404 18.202-10.332 29.992-8.736 11.691 1.59 20.607 7.066 26.695 16.473 6.091 9.359 8.069 21.819 5.94 37.299l-3.084 22.64 47.306 6.45-3.242 23.57-125.407-17.13-.004.05Zm66.846-38c1.284-9.23.029-15.95-3.713-20.2-3.741-4.26-8.636-6.75-14.684-7.48-6.042-.83-11.318.31-15.921 3.34-4.558 3.08-7.478 9.23-8.763 18.47l-3.083 22.64 43.081 5.88 3.083-22.65Zm6.415 5.07 2.643-25.84 62.968-23.082-3.657 26.972-61.954 21.95ZM625.407 879.352l14.06-22.29 131.973 29.151-13.622 21.625-93.736-22.693c-2.297-.493-4.443-1.027-6.435-1.65-1.995-.573-3.984-1.246-5.975-1.869l-.442.715a75.86 75.86 0 0 1 4.262 4.633 106.549 106.549 0 0 1 4.185 5.075l60.714 74.938-11.798 18.669L625.36 879.3l.047.052Zm57.877 57.315 32.187-50.812 18.477 3.956-39.134 61.815-11.527-15.008-.003.049ZM711.971 774.587l39.589-26.307c13.245-8.766 25.376-12.499 36.488-11.145 11.112 1.355 20.009 7.127 26.79 17.322 6.734 10.142 8.591 20.617 5.667 31.48-2.971 10.81-11.082 20.648-24.33 29.463l-19.767 13.106 25.449 38.295-19.819 13.152-70.011-105.462-.056.096Zm74.394 26.064c7.815-5.199 12.079-10.674 12.843-16.423.715-5.751-.662-11.34-4.189-16.619-3.478-5.277-8.02-8.639-13.527-10.082-5.557-1.445-12.216.408-20.027 5.558l-19.767 13.106 24.95 37.569 19.766-13.106-.049-.003ZM889.98 691.276l25.985-4.186 65.374 118.296-25.231 4.035-44.938-85.326c-1.156-2.056-2.172-4.003-3.042-5.892-.87-1.889-1.691-3.775-2.558-5.714l-.851.144c-.133 2.073-.364 4.139-.599 6.255-.234 2.115-.62 4.271-1.012 6.525l-16.09 95.1-21.779 3.513 24.741-132.75Zm-4.704 81.309 59.42-9.43 9.252 16.497-72.289 11.531 3.614-18.549.003-.049ZM1026.09 686.899l45.05 12.197c15.1 4.087 25.78 10.666 32.09 19.79 6.3 9.075 7.87 19.383 4.76 30.829-3.1 11.396-9.67 19.548-19.74 24.355-10.07 4.856-22.68 5.19-37.78 1.102l-22.06-5.969-12.51 46.075-22.992-6.227 33.182-122.152Zm29.04 71.179c9.01 2.459 15.83 2.052 20.54-1.115 4.71-3.167 7.78-7.728 9.34-13.574 1.62-5.892 1.17-11.273-1.29-16.187-2.46-4.914-8.17-8.599-17.18-11.058l-22.07-5.97-11.35 41.938 22.06 5.969-.05-.003Zm-5.86 5.67 25.33 5.981 14.8 65.411-26.25-7.129-13.83-64.259-.05-.004ZM1143.65 789.654c13.02-14.627 27.29-22.385 42.86-23.224 15.51-.89 29.79 4.482 42.82 16.117 12.98 11.583 19.95 25.11 20.88 40.679.94 15.52-5.13 30.641-18.15 45.268l-4.75 5.296c-13.03 14.627-27.35 22.382-42.86 23.224-15.57.887-29.79-4.482-42.78-16.065-13.03-11.585-19.99-25.162-20.88-40.678-.89-15.517 5.12-30.592 18.2-45.216l4.75-5.296-.09-.105Zm-.89 51.873c-.49 9.978 3.22 18.54 11.14 25.587 7.88 7.044 16.77 9.744 26.69 8.099 9.92-1.646 19.41-7.53 28.49-17.751l4.75-5.296c9.12-10.219 13.88-20.32 14.37-30.347.5-10.028-3.22-18.54-11.09-25.584-7.93-7.048-16.82-9.747-26.69-8.148-9.86 1.599-19.36 7.582-28.48 17.751l-4.75 5.295c-9.08 10.222-13.89 20.32-14.38 30.298l-.05.096ZM1315.3 890.116l8.53 22.348-75.53 28.816c-9.39 3.611-15.51 8.621-18.35 15.079-2.79 6.461-2.71 13.701.35 21.626 3.02 7.824 7.67 13.275 14.12 16.264 6.45 2.989 14.35 2.652 23.75-.91l75.52-28.815 8.32 21.789-75.53 28.817c-15.03 5.73-28.09 5.44-39.18-.97-11.03-6.4-19.17-16.34-24.35-29.901-5.14-13.41-5.7-26.23-1.7-38.412 3.95-12.184 13.49-21.138 28.52-26.866l75.53-28.815v-.05Z"/><circle cx="966.063" cy="1074.51" r="237.304" stroke="#FF6D7F" stroke-dasharray="20 20" stroke-linejoin="round" stroke-width="10" transform="rotate(3.659 966.063 1074.51)"/></g></svg>