<svg xmlns="http://www.w3.org/2000/svg" width="1920" height="1080" fill="none"><mask id="a" width="1820" height="980" x="50" y="50" maskUnits="userSpaceOnUse" style="mask-type:alpha"><path fill="red" d="M50 50h1820v980H50z"/></mask><g mask="url(#a)"><path fill="#3C4043" d="M646.057 124.621c7.83-2.505 15.765-5.01 23.7-7.306 9.188 13.255 18.063 26.613 26.833 40.076.626 1.044 1.357 2.087 1.984 3.235.626 1.148 1.253 2.192 1.67 3.34h.209c-.209-1.148-.418-2.4-.626-3.653a22.778 22.778 0 0 1-.314-3.757c0-15.863.314-31.831.836-47.798 8.77-2.296 17.54-4.488 26.31-6.471a1825.616 1825.616 0 0 1 23.283 41.641c.627 1.044 1.149 2.296 1.566 3.549.418 1.252.836 2.4 1.149 3.548h.209c-.105-1.148-.314-2.4-.418-3.757a22.62 22.62 0 0 1 0-3.757c1.357-15.864 3.028-31.831 4.907-47.694 6.996-1.357 13.991-2.714 20.986-3.862-4.176 25.778-7.622 51.66-10.441 77.438-8.352 1.67-16.6 3.444-24.953 5.427-7.622-14.194-15.452-28.178-23.387-42.163-.627-1.044-1.149-2.296-1.671-3.548-.522-1.253-.94-2.505-1.148-3.549h-.314c.314 1.148.522 2.296.731 3.653.209 1.357.314 2.609.209 3.861-.731 16.177-1.148 32.249-1.357 48.321-8.353 2.191-16.705 4.592-25.058 6.992-14.408-21.499-29.339-42.789-44.895-63.766ZM815.093 86.006c7.309-.939 14.618-1.878 21.926-2.713 14.617 23.377 28.295 46.964 41.137 70.967-7.831.522-15.661 1.253-23.492 1.983-6.995-13.88-14.304-27.761-21.926-41.432-.835-1.566-1.67-3.235-2.61-5.114-.835-1.879-1.462-3.548-1.879-5.009h-.522c0 1.774-.313 3.548-.627 5.531-.313 1.983-.731 3.757-1.253 5.322a1232.08 1232.08 0 0 0-12.215 45.712c-6.891 1.043-13.782 2.087-20.673 3.339a1188.879 1188.879 0 0 1 21.926-78.586h.208Zm-2.819 46.651c12.529-1.774 25.058-3.34 37.692-4.592a914.727 914.727 0 0 1 6.473 14.82c-15.661 1.461-31.218 3.444-46.775 5.74.835-5.323 1.671-10.645 2.61-15.968ZM886.299 79.327c12.111-.73 24.222-1.148 36.334-1.461 11.485-.209 20.464 1.774 26.937 5.949 6.473 4.174 9.501 10.54 9.397 19.203-.105 8.662-3.446 15.028-9.71 19.203-6.265 4.174-14.826 6.261-25.58 6.47-3.968 0-7.935.209-11.903.313.314 7.723.522 15.55.836 23.378-7.309.208-14.618.626-21.926 1.043-1.462-24.734-2.923-49.364-4.385-74.098Zm35.916 34.127c4.803-.104 8.248-.939 10.336-2.609 2.193-1.67 3.237-4.175 3.237-7.723 0-3.444-1.148-5.949-3.341-7.514-2.193-1.461-5.742-2.296-10.65-2.088-3.758 0-7.517.21-11.171.314.209 6.679.417 13.254.731 19.933l10.962-.313h-.104Zm-5.534 6.053c8.353-.417 16.706-.626 25.058-.73 7.413 11.062 14.513 22.229 21.404 33.5-8.248-.208-16.497-.313-24.745-.208a1249.835 1249.835 0 0 0-21.612-32.458l-.105-.104ZM982.25 78.492c12.947.522 25.79 1.357 38.63 2.4 11.17.94 19.53 3.758 25.06 8.454 5.53 4.696 7.73 11.48 6.68 20.455-1.04 8.871-4.7 14.924-10.86 18.368-6.16 3.444-14.51 4.697-25.05 3.757-4.7-.417-9.4-.73-14.1-1.043-.52 7.618-1.04 15.237-1.46 22.855-7.31-.521-14.619-.835-21.927-1.148 1.044-24.734 1.983-49.468 3.027-74.098Zm32.68 37.884c4.8.418 8.35-.104 10.65-1.565 2.3-1.357 3.65-3.862 3.97-7.41.31-3.548-.52-6.158-2.61-7.932s-5.54-2.817-10.44-3.235c-3.87-.313-7.73-.626-11.59-.835-.42 6.679-.84 13.463-1.36 20.142 3.76.209 7.52.522 11.38.835ZM1076.01 86.945a969.45 969.45 0 0 1 64.52 11.272c-1.04 5.218-2.19 10.436-3.24 15.654-13.46-2.818-26.93-5.322-40.4-7.618-.63 4.07-1.36 8.14-1.98 12.21 11.48 1.879 22.96 4.07 34.45 6.366-1.04 5.114-2.09 10.124-3.13 15.237a921.248 921.248 0 0 0-33.94-6.261c-.83 4.8-1.56 9.497-2.4 14.297 13.16 2.192 26.21 4.592 39.26 7.41-1.04 5.218-2.19 10.332-3.24 15.55-19.94-4.174-39.98-7.722-60.13-10.54 3.44-24.526 6.89-48.947 10.33-73.472l-.1-.105ZM1161.73 102.913c11.38 2.714 22.76 5.531 34.03 8.662 14.2 3.862 24.23 10.124 29.97 18.264 5.64 8.245 6.58 17.742 3.13 28.596-.31.939-.62 1.982-.94 2.922-3.55 10.854-9.81 18.055-18.69 21.707-8.87 3.653-19.73 3.549-32.89 0-10.44-2.817-20.88-5.531-31.42-7.931 5.64-24.108 11.27-48.112 16.91-72.22h-.1Zm18.16 65.123c6.37 1.774 11.59 1.461 15.98-.731 4.28-2.191 7.52-6.679 9.5-13.254.21-.73.42-1.356.63-2.087 1.98-6.679 1.77-12.211-.84-16.385-2.61-4.279-7.2-7.306-13.88-9.08-3.45-.939-6.9-1.878-10.34-2.713-3.66 13.88-7.21 27.865-10.86 41.745 3.24.835 6.58 1.774 9.81 2.609v-.104Z"/><circle cx="957.695" cy="1091.84" r="907.306" stroke="#FF6D7F" stroke-dasharray="20 20" stroke-linejoin="round" stroke-width="10"/><path fill="#3C4043" d="M611.786 478.021c7.404-7.405 15.126-14.598 22.848-21.473 14.915 7.51 29.512 15.549 43.581 24.117a57.355 57.355 0 0 1 3.279 2.116c1.058.74 2.115 1.586 2.962 2.433 0 0 .105 0 .211-.106-.74-.952-1.375-2.01-2.01-3.174a35.655 35.655 0 0 1-1.692-3.49 709.373 709.373 0 0 1-15.55-46.649c8.992-6.664 18.3-12.905 27.609-18.828 13.116 10.049 25.704 20.415 37.868 31.31.952.846 1.799 1.798 2.645 2.856a43.588 43.588 0 0 1 2.221 3.068s.212 0 .212-.106c-.529-1.058-.952-2.327-1.481-3.596-.529-1.27-.846-2.539-1.058-3.703a679.247 679.247 0 0 1-7.193-48.869c7.722-4.02 15.444-7.828 23.377-11.319.952 27.08 3.491 53.842 7.616 80.075-8.251 4.442-16.501 9.202-24.54 14.28a683.752 683.752 0 0 0-38.398-31.099c-1.058-.741-2.01-1.693-2.962-2.645-.952-1.057-1.798-2.009-2.433-2.961-.105 0-.211.105-.317.211.635.952 1.375 2.01 2.01 3.279.634 1.164 1.163 2.433 1.481 3.703a704.56 704.56 0 0 0 14.914 47.388c-7.827 5.924-15.443 12.059-22.954 18.617-23.059-13.116-47.282-24.858-72.458-35.118l.212-.317ZM791.601 365.79c8.463-2.856 16.925-5.501 25.493-7.828 20.627 20.415 39.032 41.994 55.322 64.631a329.53 329.53 0 0 0-25.069 5.394 561.03 561.03 0 0 0-30.465-37.445c-1.163-1.375-2.433-2.856-3.808-4.549-1.269-1.692-2.327-3.173-2.856-4.654-.211 0-.317.106-.529.212.212 1.798.212 3.702.212 5.712 0 2.009-.212 3.913-.529 5.712a547.701 547.701 0 0 0-5.077 48.552c-7.193 2.644-14.28 5.606-21.262 8.674.635-27.82 3.491-55.957 8.674-84.306l-.106-.105Zm5.289 47.388c13.54-4.971 27.291-9.202 41.254-12.799 3.173 4.549 6.241 9.203 9.203 13.751-16.925 4.02-33.744 9.203-50.139 15.55a428.448 428.448 0 0 1-.318-16.502ZM875.073 345.904c14.385-2.116 28.771-3.491 43.263-4.232 13.645-.74 24.435 1.376 32.051 5.607 7.616 4.231 11.107 10.895 10.684 19.675-.424 8.779-4.337 15.126-11.53 19.251-7.193 4.126-16.713 6.241-28.772 6.876-4.443.211-8.885.529-13.328.846.634 7.828 1.269 15.761 2.01 23.589-7.934.634-15.867 1.586-23.695 2.75-3.596-24.858-7.193-49.61-10.789-74.468l.106.106Zm43.792 31.733c5.5-.317 9.414-1.269 11.847-2.962 2.433-1.692 3.702-4.337 3.597-7.933 0-3.491-1.376-6.029-4.02-7.51-2.644-1.481-6.77-2.116-12.588-1.799-4.337.212-8.779.529-13.116.952.529 6.665 1.163 13.434 1.692 20.098 4.231-.317 8.357-.634 12.588-.846Zm-6.135 6.347c9.414-.846 18.934-1.269 28.454-1.481a416.38 416.38 0 0 1 23.271 34.272 380.847 380.847 0 0 0-26.867-.634 415.023 415.023 0 0 0-24.752-32.263l-.106.106ZM989.516 343.471c15.334 1.586 30.674 3.808 45.804 6.875 13.11 2.645 22.74 7.193 28.56 13.011s7.3 13.222 4.65 21.896c-2.54 8.674-7.72 13.963-15.02 16.29-7.4 2.327-16.82 2.01-28.56-.317a396.198 396.198 0 0 0-15.55-2.856c-1.27 7.616-2.54 15.232-3.7 22.848-7.827-1.27-15.761-2.327-23.694-3.068 2.539-24.964 5.077-49.927 7.51-74.785v.106Zm35.224 41.888c5.4 1.058 9.52 1.058 12.27 0 2.86-1.058 4.65-3.279 5.5-6.876.85-3.49.11-6.347-2.01-8.462-2.22-2.116-6.13-3.808-11.85-4.866-4.44-.846-8.99-1.692-13.43-2.433-1.06 6.77-2.22 13.54-3.28 20.204 4.34.74 8.57 1.481 12.8 2.327v.106ZM1099.43 368.116a461.488 461.488 0 0 1 72.24 32.897c-2.64 4.655-5.28 9.415-7.93 14.069-14.39-8.039-29.09-15.338-44-21.685-1.7 3.808-3.28 7.722-4.97 11.53 12.58 5.395 24.96 11.318 37.12 17.877-2.54 4.654-4.97 9.202-7.51 13.857a426.845 426.845 0 0 0-35.75-17.242c-1.9 4.548-3.81 8.991-5.71 13.539a435.62 435.62 0 0 1 40.51 19.993c-2.64 4.654-5.29 9.308-7.93 13.962-19.68-11.106-40.2-20.415-61.25-27.925 8.46-23.589 16.82-47.283 25.28-70.872h-.1ZM1194.41 414.662c12.06 7.722 23.91 16.184 35.44 25.07 14.49 11.318 23.17 23.377 26.02 34.589 2.96 11.318 0 21.05-8.25 29.195l-2.22 2.221c-8.25 8.145-17.67 11.213-28.24 9.838-10.58-1.375-21.48-6.982-33.64-16.502-9.63-7.51-19.57-14.597-29.73-21.05 13.54-21.155 26.98-42.205 40.52-63.361h.1Zm-1.58 71.718c6.03 4.654 11.53 7.087 16.92 7.193 5.4 0 10.37-2.433 14.92-7.616.53-.529.95-1.164 1.48-1.693 4.65-5.289 6.45-10.789 5.29-16.29-1.27-5.5-5.19-11-11.85-16.184a388.474 388.474 0 0 0-10.37-7.827c-8.57 11.741-17.24 23.483-25.81 35.224 3.18 2.327 6.24 4.654 9.42 7.087v.106Z"/><circle cx="946" cy="824" r="370" stroke="#FF6D7F" stroke-dasharray="20 20" stroke-linejoin="round" stroke-width="10"/><path fill="#3C4043" d="M607.061 952.24c0-17.955 1.091-35.216 3.174-51.683 15.673-7.738 31.545-13.888 47.517-18.55 1.19-.298 2.48-.695 3.769-.893 1.29-.298 2.48-.397 3.671-.298v-.397a23.65 23.65 0 0 1-3.274-1.488c-1.091-.595-2.182-1.289-3.075-2.182-12.499-11.11-24.403-23.213-35.811-36.109 4.96-16.07 11.11-31.248 18.054-45.532 16.666-.496 33.034.198 49.104 2.083a11.7 11.7 0 0 1 3.67.893c1.191.496 2.282.992 3.373 1.488 0-.1.099-.199.198-.397-.892-.794-1.785-1.587-2.777-2.48a11.242 11.242 0 0 1-2.381-2.976c-8.531-14.285-16.269-29.264-23.014-44.838 7.142-9.722 14.88-18.848 23.014-27.38a365.177 365.177 0 0 0 30.95 75.194c-7.142 10.019-13.491 20.832-19.145 32.339-15.971-1.29-32.24-1.389-48.707-.298-1.29 0-2.579 0-3.869-.198-1.29-.199-2.48-.595-3.472-.992a.759.759 0 0 1-.198.496c.992.397 2.083.992 3.273 1.686 1.091.695 2.083 1.587 2.976 2.579 10.912 13.194 22.519 25.495 34.621 36.903-3.869 13.292-6.746 27.379-8.631 42.16-24.899 9.424-49.5 22.915-73.01 40.87ZM739.088 681.423c9.92-6.944 20.336-13.194 30.951-18.947 29.263 11.408 55.551 26.287 78.268 43.747a280.117 280.117 0 0 0-30.553 12.201c-13.492-9.027-27.875-17.261-43.251-24.502-1.687-.794-3.472-1.786-5.357-2.778-1.885-1.091-3.373-2.083-4.365-3.273-.198.099-.397.297-.694.396.496 1.588.892 3.472 1.19 5.456.298 1.984.397 3.869.298 5.655-.298 16.765.892 33.331 3.273 49.302-7.638 6.051-14.979 12.698-21.923 19.741-6.646-27.578-9.424-56.842-7.936-86.998h.099Zm15.376 43.648c15.079-11.607 31.248-21.527 48.211-29.76 4.563 3.273 9.027 6.646 13.392 10.019-20.633 9.325-40.076 21.229-57.734 35.613a412.714 412.714 0 0 1-3.869-15.872ZM845.527 633.212c19.344-5.06 39.085-8.432 58.925-10.218 18.848-1.686 33.827.298 44.243 4.464 10.515 4.266 15.078 10.714 14.384 18.947-.694 8.234-6.15 13.888-15.674 17.559-9.622 3.769-22.22 5.753-38.092 7.142a264.43 264.43 0 0 0-17.559 2.083c1.191 7.341 2.381 14.582 3.572 21.923-10.218 1.488-20.237 3.571-30.157 6.151-6.547-22.717-13.094-45.335-19.642-68.051Zm60.611 23.51c7.341-.694 12.599-1.786 15.872-3.373 3.274-1.686 4.861-4.166 4.861-7.539-.099-3.274-1.885-5.654-5.555-6.944-3.571-1.29-9.325-1.686-17.162-.992-5.952.595-11.904 1.29-17.856 2.182.992 6.25 2.084 12.5 3.076 18.749a484.153 484.153 0 0 1 16.764-2.083Zm-7.936 6.448c12.599-1.686 25.296-2.579 37.994-2.778 11.309 10.516 21.328 21.527 30.157 32.935-11.607-1.092-23.213-1.588-34.82-1.29-9.92-10.217-21.129-19.84-33.331-28.867ZM1002.47 627.159c20.93 3.77 41.47 9.325 61.41 16.666 17.26 6.448 29.16 14.384 35.81 22.32 6.74 7.936 7.34 15.673 2.77 23.014-4.56 7.242-11.7 10.218-21.22 9.722-9.53-.496-21.23-4.068-36.01-9.524-6.55-2.38-13.1-4.563-19.74-6.547-2.29 6.944-4.47 13.888-6.75 20.832-9.82-2.877-19.84-5.257-29.959-7.043 4.563-23.114 9.226-46.227 13.789-69.341l-.1-.099Zm44.05 46.922c6.94 2.48 12.2 3.769 15.87 3.67 3.77-.099 6.35-1.686 7.83-4.762 1.49-3.075.9-5.952-1.68-8.729-2.58-2.679-7.64-5.555-14.98-8.234-5.85-2.083-11.71-3.968-17.66-5.753-1.98 6.15-3.97 12.3-5.95 18.352a249.396 249.396 0 0 1 16.57 5.356v.1ZM1143.63 686.781c28.77 21.229 54.17 47.715 74.4 79.36-4.26 2.877-8.53 5.654-12.79 8.531a281.367 281.367 0 0 0-42.56-51.782c-2.78 2.877-5.55 5.754-8.43 8.531 13.19 12.698 25.3 26.784 36.01 42.358-4.07 2.877-8.14 5.754-12.3 8.73-10.12-14.781-21.63-28.272-34.23-40.275-3.27 3.373-6.54 6.646-9.82 10.019a243.039 243.039 0 0 1 37.6 46.029c-4.27 2.777-8.53 5.654-12.8 8.432-15.97-25.197-36.11-46.327-59.02-63.191 14.58-18.847 29.26-37.695 43.85-56.643l.09-.099ZM1236.28 799.17a324.968 324.968 0 0 1 21.53 60.711c6.74 27.379 6.15 51.286 1.29 67.753-4.86 16.665-13.49 24.8-24.31 24.701h-2.97c-10.91 0-19.05-7.639-25.69-20.634-6.65-12.995-11.31-30.653-16.67-52.08-4.27-17.062-9.92-33.033-16.86-47.715 21.22-10.912 42.45-21.724 63.68-32.636v-.1Zm-32.73 75.491c2.67 10.714 5.75 19.047 9.92 24.602 4.16 5.654 9.32 8.134 15.77 7.142l2.08-.297c6.55-.992 11.11-5.258 13.1-12.797 2.08-7.539 1.78-17.856-1.29-30.256-1.59-6.349-3.38-12.598-5.26-18.749-13 4.663-25.99 9.325-38.89 13.987 1.69 5.357 3.18 10.714 4.57 16.269v.099Z"/><path stroke="#FF6D7F" stroke-dasharray="20 20" stroke-linejoin="round" stroke-width="10" d="M1175.01 929.643a239.39 239.39 0 0 1 1.77 20.542l-5 .213c.15 3.349.22 6.717.22 10.102 0 3.385-.07 6.753-.22 10.102l5 .214c-.3 6.928-.89 13.779-1.77 20.541l-4.96-.645c-.87 6.72-2.03 13.348-3.47 19.868l4.88 1.08c-1.48 6.75-3.25 13.39-5.3 19.91l-4.77-1.5c-2.03 6.45-4.33 12.78-6.88 18.97l4.62 1.91a235.19 235.19 0 0 1-8.71 18.69l-4.43-2.31c-3.11 5.98-6.48 11.81-10.08 17.48l4.22 2.68c-3.7 5.81-7.64 11.44-11.81 16.89l-3.97-3.04a231.1 231.1 0 0 1-12.96 15.47l3.69 3.38c-4.63 5.07-9.49 9.94-14.55 14.59l-3.38-3.68c-4.95 4.56-10.1 8.89-15.43 13.01l3.05 3.96c-5.44 4.19-11.06 8.14-16.86 11.86l-2.69-4.21c-5.66 3.62-11.48 7-17.45 10.12l2.32 4.43c-6.08 3.18-12.3 6.1-18.67 8.75l-1.92-4.62c-6.19 2.58-12.51 4.89-18.95 6.92l1.51 4.77a232.472 232.472 0 0 1-19.906 5.34l-1.082-4.88a231.784 231.784 0 0 1-19.865 3.49l.649 4.96c-6.761.88-13.612 1.48-20.541 1.78l-.215-5c-3.348.15-6.716.22-10.1.22-3.385 0-6.752-.07-10.1-.22l-.215 5c-6.929-.3-13.78-.9-20.541-1.78l.649-4.96a231.876 231.876 0 0 1-19.866-3.49l-1.081 4.88a232.11 232.11 0 0 1-19.903-5.34l1.507-4.77a224.28 224.28 0 0 1-18.949-6.92l-1.92 4.62a234.08 234.08 0 0 1-18.667-8.75l2.318-4.43a228.587 228.587 0 0 1-17.448-10.12l-2.696 4.21a239.494 239.494 0 0 1-16.857-11.86l3.053-3.96a232.903 232.903 0 0 1-15.43-13.01l-3.385 3.68a237.845 237.845 0 0 1-14.552-14.59l3.691-3.38a230.713 230.713 0 0 1-12.954-15.47l-3.97 3.04a237.199 237.199 0 0 1-11.811-16.89l4.218-2.68a233.675 233.675 0 0 1-10.08-17.48l-4.436 2.31a236.53 236.53 0 0 1-8.701-18.69l4.621-1.91a229.93 229.93 0 0 1-6.883-18.97l-4.77 1.5a235.088 235.088 0 0 1-5.306-19.91l4.883-1.08a231.082 231.082 0 0 1-3.47-19.868l-4.958.645a238.188 238.188 0 0 1-1.771-20.542l4.996-.213a235.159 235.159 0 0 1 0-20.204l-4.996-.214a238.2 238.2 0 0 1 1.771-20.541l4.958.645a231.445 231.445 0 0 1 3.47-19.872l-4.883-1.075a235.21 235.21 0 0 1 5.306-19.911l4.77 1.498a230.241 230.241 0 0 1 6.883-18.966l-4.621-1.91a235.638 235.638 0 0 1 8.701-18.687l4.436 2.306a231.624 231.624 0 0 1 10.08-17.477l-4.218-2.684a237.237 237.237 0 0 1 11.811-16.892l3.97 3.041a232.505 232.505 0 0 1 12.954-15.471l-3.691-3.373a237.43 237.43 0 0 1 14.552-14.599l3.385 3.68a232.418 232.418 0 0 1 15.43-13.001l-3.053-3.96a236.58 236.58 0 0 1 16.857-11.862l2.696 4.211a230.689 230.689 0 0 1 17.448-10.128l-2.318-4.43a234.746 234.746 0 0 1 18.667-8.746l1.92 4.616a228.894 228.894 0 0 1 18.949-6.92l-1.507-4.768a233.946 233.946 0 0 1 19.903-5.337l1.082 4.881a229.854 229.854 0 0 1 19.865-3.491l-.649-4.958a236.546 236.546 0 0 1 20.541-1.781l.215 4.995a235.061 235.061 0 0 1 20.2 0l.215-4.995c6.929.298 13.78.896 20.541 1.781l-.649 4.958a229.944 229.944 0 0 1 19.866 3.491l1.081-4.881a234.313 234.313 0 0 1 19.906 5.337l-1.51 4.768a229.98 229.98 0 0 1 18.95 6.92l1.92-4.616a235.802 235.802 0 0 1 18.67 8.746l-2.32 4.43a232.913 232.913 0 0 1 17.45 10.128l2.69-4.211c5.8 3.712 11.42 7.671 16.86 11.862l-3.05 3.96c5.33 4.11 10.48 8.449 15.43 13.001l3.38-3.68c5.06 4.653 9.92 9.524 14.55 14.599l-3.69 3.373a232.898 232.898 0 0 1 12.96 15.471l3.97-3.041a239.523 239.523 0 0 1 11.81 16.892l-4.22 2.684a232.31 232.31 0 0 1 10.08 17.477l4.43-2.306a234.307 234.307 0 0 1 8.71 18.687l-4.62 1.91a235.472 235.472 0 0 1 6.88 18.966l4.77-1.498c2.05 6.52 3.82 13.162 5.3 19.911l-4.88 1.075c1.44 6.524 2.6 13.152 3.47 19.872l4.96-.645Z"/></g></svg>