<svg width="1920" height="1080" viewBox="0 0 1920 1080" fill="none" xmlns="http://www.w3.org/2000/svg">
<path d="M177.186 456.27C179.24 455.613 181.322 454.956 183.404 454.354C185.814 457.831 188.142 461.336 190.443 464.868C190.608 465.142 190.799 465.415 190.964 465.717C191.128 466.018 191.293 466.292 191.402 466.593C191.402 466.593 191.43 466.593 191.457 466.593C191.402 466.292 191.347 465.963 191.293 465.635C191.238 465.306 191.21 464.977 191.21 464.649C191.21 460.487 191.293 456.298 191.43 452.108C193.73 451.506 196.031 450.931 198.332 450.411C200.414 454.025 202.469 457.694 204.441 461.336C204.605 461.61 204.742 461.938 204.852 462.267C204.961 462.595 205.071 462.896 205.153 463.198H205.208C205.18 462.896 205.126 462.568 205.098 462.212C205.071 461.856 205.071 461.527 205.098 461.226C205.454 457.064 205.893 452.875 206.386 448.713C208.221 448.357 210.056 448.001 211.892 447.7C210.796 454.463 209.892 461.254 209.152 468.017C206.961 468.455 204.797 468.92 202.606 469.44C200.606 465.717 198.551 462.048 196.47 458.379C196.305 458.105 196.168 457.776 196.031 457.448C195.894 457.119 195.785 456.791 195.73 456.517C195.703 456.517 195.675 456.517 195.648 456.517C195.73 456.818 195.785 457.119 195.84 457.475C195.894 457.831 195.922 458.16 195.894 458.488C195.703 462.732 195.593 466.949 195.538 471.165C193.347 471.74 191.156 472.37 188.964 473C185.184 467.36 181.267 461.774 177.186 456.27Z" fill="#3C4043"/>
<path d="M221.534 446.14C223.451 445.893 225.369 445.647 227.286 445.428C231.121 451.561 234.709 457.749 238.079 464.047C236.024 464.184 233.97 464.375 231.915 464.567C230.08 460.925 228.163 457.284 226.163 453.697C225.944 453.286 225.725 452.848 225.478 452.355C225.259 451.862 225.095 451.424 224.985 451.041C224.93 451.041 224.903 451.041 224.848 451.041C224.848 451.506 224.766 451.972 224.684 452.492C224.602 453.012 224.492 453.478 224.355 453.888C223.205 457.886 222.136 461.884 221.15 465.881C219.342 466.155 217.534 466.429 215.727 466.757C217.397 459.857 219.315 452.985 221.479 446.14H221.534ZM220.794 458.379C224.081 457.913 227.368 457.503 230.683 457.174C231.258 458.461 231.833 459.775 232.381 461.062C228.272 461.445 224.191 461.966 220.109 462.568C220.328 461.172 220.548 459.775 220.794 458.379Z" fill="#3C4043"/>
<path d="M240.215 444.387C243.392 444.196 246.57 444.086 249.747 444.004C252.76 443.949 255.116 444.469 256.815 445.565C258.513 446.66 259.307 448.33 259.28 450.603C259.252 452.875 258.376 454.545 256.732 455.641C255.089 456.736 252.843 457.284 250.021 457.338C248.98 457.338 247.939 457.393 246.899 457.42C246.981 459.447 247.036 461.5 247.118 463.554C245.2 463.608 243.283 463.718 241.365 463.828C240.982 457.338 240.598 450.876 240.215 444.387ZM249.638 453.341C250.898 453.313 251.802 453.094 252.35 452.656C252.925 452.218 253.199 451.561 253.199 450.63C253.199 449.726 252.897 449.069 252.322 448.659C251.747 448.275 250.816 448.056 249.528 448.111C248.542 448.111 247.556 448.166 246.597 448.193C246.652 449.946 246.707 451.671 246.789 453.423C247.748 453.395 248.706 453.368 249.665 453.341H249.638ZM248.186 454.929C250.377 454.819 252.569 454.765 254.76 454.737C256.705 457.639 258.568 460.569 260.376 463.526C258.212 463.472 256.048 463.444 253.884 463.472C252.048 460.624 250.158 457.776 248.213 454.956L248.186 454.929Z" fill="#3C4043"/>
<path d="M265.39 444.168C268.787 444.305 272.156 444.524 275.525 444.798C278.456 445.044 280.648 445.783 282.099 447.016C283.551 448.248 284.126 450.027 283.852 452.382C283.579 454.71 282.62 456.298 281.004 457.201C279.388 458.105 277.196 458.433 274.43 458.187C273.197 458.077 271.964 457.995 270.732 457.913C270.595 459.912 270.458 461.911 270.348 463.909C268.431 463.773 266.513 463.69 264.596 463.608C264.87 457.119 265.116 450.63 265.39 444.168ZM273.964 454.107C275.224 454.217 276.155 454.08 276.758 453.696C277.36 453.34 277.717 452.683 277.799 451.752C277.881 450.821 277.662 450.137 277.114 449.671C276.566 449.206 275.662 448.932 274.375 448.823C273.361 448.741 272.348 448.658 271.334 448.604C271.225 450.356 271.115 452.136 270.978 453.888C271.964 453.943 272.95 454.025 273.964 454.107Z" fill="#3C4043"/>
<path d="M289.987 446.386C295.657 447.18 301.3 448.165 306.916 449.343C306.642 450.712 306.34 452.081 306.066 453.45C302.533 452.711 298.999 452.054 295.466 451.451C295.301 452.519 295.11 453.587 294.945 454.655C297.958 455.148 300.971 455.723 303.985 456.325C303.711 457.667 303.437 458.981 303.163 460.323C300.204 459.72 297.246 459.173 294.26 458.68C294.041 459.939 293.849 461.171 293.63 462.431C297.082 463.006 300.506 463.636 303.93 464.375C303.656 465.744 303.355 467.086 303.081 468.455C297.849 467.359 292.589 466.428 287.303 465.689C288.207 459.255 289.111 452.848 290.015 446.413L289.987 446.386Z" fill="#3C4043"/>
<path d="M312.475 450.575C315.46 451.287 318.446 452.026 321.404 452.847C325.13 453.86 327.759 455.503 329.266 457.639C330.745 459.802 330.992 462.294 330.088 465.141C330.006 465.388 329.923 465.661 329.841 465.908C328.91 468.755 327.266 470.645 324.938 471.603C322.61 472.561 319.761 472.534 316.31 471.603C313.57 470.864 310.831 470.152 308.064 469.522C309.544 463.197 311.023 456.9 312.502 450.575H312.475ZM317.241 467.66C318.912 468.126 320.281 468.044 321.432 467.469C322.555 466.894 323.404 465.716 323.925 463.991C323.979 463.8 324.034 463.635 324.089 463.444C324.609 461.691 324.555 460.24 323.87 459.145C323.185 458.022 321.98 457.228 320.227 456.763C319.323 456.516 318.419 456.27 317.515 456.051C316.556 459.692 315.625 463.361 314.666 467.003C315.515 467.222 316.392 467.469 317.241 467.688V467.66Z" fill="#3C4043"/>
<mask id="mask0_3613_15974" style="mask-type:alpha" maskUnits="userSpaceOnUse" x="16" y="444" width="483" height="242">
<path d="M15.9991 685.03C15.9991 685.03 15.9991 444 257.029 444C498.059 444 498.059 685.03 498.059 685.03L15.9991 685.03Z" fill="#FF0000"/>
</mask>
<g mask="url(#mask0_3613_15974)">
<circle cx="257.034" cy="684.97" r="202.97" stroke="#FF6D7F" stroke-width="10" stroke-linejoin="round" stroke-dasharray="20 20"/>
</g>
<path d="M773.443 496.715C777.605 492.553 781.945 488.51 786.285 484.646C794.667 488.867 802.872 493.385 810.779 498.201C811.373 498.558 812.027 498.974 812.622 499.39C813.216 499.806 813.811 500.282 814.286 500.757C814.286 500.757 814.346 500.757 814.405 500.698C813.989 500.163 813.632 499.568 813.276 498.914C812.919 498.26 812.622 497.666 812.325 496.953C809.114 488.332 806.201 479.593 803.585 470.734C808.639 466.989 813.87 463.481 819.102 460.152C826.474 465.8 833.549 471.626 840.386 477.75C840.921 478.225 841.396 478.76 841.872 479.355C842.348 479.949 842.764 480.544 843.12 481.079C843.12 481.079 843.239 481.079 843.239 481.02C842.942 480.425 842.704 479.712 842.407 478.998C842.11 478.285 841.931 477.571 841.813 476.917C840.148 467.881 838.781 458.666 837.77 449.451C842.11 447.192 846.45 445.051 850.909 443.089C851.444 458.309 852.871 473.35 855.189 488.094C850.552 490.591 845.915 493.267 841.396 496.12C834.441 490.056 827.247 484.23 819.815 478.641C819.221 478.225 818.686 477.69 818.151 477.155C817.616 476.561 817.14 476.026 816.783 475.491C816.724 475.491 816.664 475.55 816.605 475.609C816.962 476.144 817.378 476.739 817.735 477.452C818.091 478.106 818.389 478.82 818.567 479.533C821.064 488.57 823.858 497.428 826.95 506.168C822.55 509.497 818.27 512.945 814.049 516.631C801.088 509.259 787.474 502.66 773.324 496.893L773.443 496.715Z" fill="#3C4043"/>
<path d="M874.503 433.637C879.259 432.032 884.015 430.545 888.831 429.237C900.424 440.711 910.769 452.84 919.924 465.562C915.168 466.395 910.471 467.405 905.834 468.594C900.483 461.401 894.776 454.385 888.712 447.548C888.058 446.776 887.345 445.943 886.572 444.992C885.858 444.041 885.264 443.208 884.967 442.376C884.848 442.376 884.788 442.436 884.669 442.495C884.788 443.506 884.788 444.576 884.788 445.705C884.788 446.835 884.669 447.905 884.491 448.916C883.124 458.071 882.172 467.167 881.637 476.204C877.595 477.69 873.611 479.355 869.688 481.079C870.044 465.443 871.649 449.629 874.563 433.696L874.503 433.637ZM877.476 460.271C885.085 457.477 892.814 455.099 900.662 453.077C902.445 455.634 904.169 458.25 905.834 460.806C896.322 463.065 886.869 465.978 877.654 469.546C877.535 466.454 877.476 463.363 877.476 460.271Z" fill="#3C4043"/>
<path d="M921.419 422.46C929.504 421.271 937.59 420.498 945.735 420.082C953.404 419.666 959.468 420.855 963.748 423.233C968.029 425.611 969.991 429.356 969.753 434.291C969.515 439.225 967.316 442.792 963.273 445.111C959.23 447.43 953.879 448.619 947.102 448.975C944.605 449.094 942.108 449.273 939.611 449.451C939.968 453.85 940.324 458.309 940.741 462.709C936.282 463.065 931.823 463.6 927.423 464.254C925.402 450.283 923.381 436.372 921.359 422.4L921.419 422.46ZM946.032 440.295C949.123 440.117 951.323 439.582 952.69 438.631C954.058 437.68 954.771 436.193 954.712 434.172C954.712 432.21 953.939 430.783 952.453 429.951C950.966 429.119 948.648 428.762 945.378 428.94C942.94 429.059 940.443 429.237 938.006 429.475C938.303 433.221 938.66 437.026 938.957 440.771C941.335 440.593 943.654 440.414 946.032 440.295ZM942.584 443.863C947.875 443.387 953.225 443.149 958.576 443.03C963.332 449.332 967.672 455.753 971.655 462.293C966.602 461.995 961.549 461.876 956.555 461.936C952.274 455.753 947.637 449.689 942.643 443.803L942.584 443.863Z" fill="#3C4043"/>
<path d="M985.741 421.093C994.361 421.984 1002.98 423.233 1011.48 424.957C1018.86 426.443 1024.27 429 1027.54 432.27C1030.8 435.539 1031.64 439.701 1030.15 444.576C1028.72 449.451 1025.81 452.424 1021.71 453.732C1017.55 455.04 1012.26 454.861 1005.66 453.553C1002.74 452.959 999.831 452.424 996.918 451.948C996.204 456.229 995.491 460.509 994.837 464.79C990.437 464.076 985.978 463.482 981.52 463.066C982.946 449.035 984.373 435.004 985.741 421.033V421.093ZM1005.54 444.636C1008.57 445.23 1010.89 445.23 1012.43 444.636C1014.04 444.041 1015.05 442.793 1015.53 440.771C1016 438.809 1015.59 437.204 1014.4 436.015C1013.15 434.826 1010.95 433.875 1007.74 433.28C1005.24 432.805 1002.68 432.329 1000.19 431.913C999.593 435.718 998.939 439.523 998.344 443.268C1000.78 443.684 1003.16 444.1 1005.54 444.576V444.636Z" fill="#3C4043"/>
<path d="M1047.51 434.944C1061.42 439.878 1075.04 446.061 1088.12 453.433C1086.63 456.049 1085.15 458.725 1083.66 461.34C1075.57 456.822 1067.31 452.72 1058.93 449.153C1057.98 451.293 1057.08 453.493 1056.13 455.633C1063.21 458.665 1070.16 461.994 1077 465.68C1075.57 468.296 1074.21 470.853 1072.78 473.469C1066.18 469.901 1059.52 466.691 1052.69 463.778C1051.61 466.334 1050.54 468.831 1049.47 471.388C1057.2 474.717 1064.81 478.462 1072.24 482.624C1070.76 485.24 1069.27 487.856 1067.79 490.472C1056.73 484.229 1045.19 478.998 1033.36 474.776C1038.12 461.519 1042.82 448.202 1047.57 434.944H1047.51Z" fill="#3C4043"/>
<path d="M1100.9 461.105C1107.68 465.445 1114.34 470.201 1120.82 475.195C1128.96 481.556 1133.84 488.334 1135.44 494.636C1137.11 500.997 1135.44 506.467 1130.81 511.044L1129.56 512.293C1124.92 516.871 1119.63 518.595 1113.68 517.822C1107.74 517.049 1101.62 513.898 1094.78 508.547C1089.37 504.326 1083.78 500.343 1078.07 496.717C1085.68 484.826 1093.23 472.995 1100.84 461.105H1100.9ZM1100.01 501.413C1103.4 504.029 1106.49 505.396 1109.52 505.456C1112.55 505.456 1115.35 504.089 1117.9 501.175C1118.2 500.878 1118.44 500.521 1118.74 500.224C1121.35 497.252 1122.36 494.16 1121.71 491.069C1121 487.977 1118.8 484.886 1115.05 481.973C1113.15 480.486 1111.19 479 1109.22 477.573C1104.41 484.172 1099.53 490.771 1094.72 497.37C1096.5 498.678 1098.23 499.986 1100.01 501.354V501.413Z" fill="#3C4043"/>
<mask id="mask1_3613_15974" style="mask-type:alpha" maskUnits="userSpaceOnUse" x="719" y="444" width="483" height="242">
<path d="M718.999 685.03C718.999 685.03 718.999 444 960.029 444C1201.06 444 1201.06 685.03 1201.06 685.03L718.999 685.03Z" fill="#FF0000"/>
</mask>
<g mask="url(#mask1_3613_15974)">
<circle cx="960.034" cy="684.97" r="202.97" stroke="#FF6D7F" stroke-width="10" stroke-linejoin="round" stroke-dasharray="20 20"/>
</g>
<path d="M1284 686.915C1284 670.915 1284.97 655.535 1286.83 640.862C1300.79 633.967 1314.94 628.487 1329.17 624.332C1330.23 624.067 1331.38 623.713 1332.53 623.537C1333.68 623.271 1334.74 623.183 1335.8 623.271C1335.8 623.183 1335.8 623.095 1335.8 622.918C1334.83 622.564 1333.85 622.122 1332.88 621.592C1331.91 621.062 1330.94 620.443 1330.14 619.647C1319 609.747 1308.4 598.963 1298.23 587.472C1302.65 573.152 1308.13 559.628 1314.32 546.899C1329.17 546.458 1343.75 547.076 1358.07 548.756C1359.22 548.844 1360.28 549.109 1361.34 549.551C1362.41 549.993 1363.38 550.435 1364.35 550.877C1364.35 550.789 1364.44 550.7 1364.53 550.524C1363.73 549.816 1362.94 549.109 1362.05 548.314C1361.17 547.518 1360.46 546.634 1359.93 545.662C1352.33 532.933 1345.43 519.586 1339.42 505.708C1345.79 497.046 1352.68 488.913 1359.93 481.312C1366.74 505.089 1376.11 527.541 1387.51 548.314C1381.14 557.242 1375.49 566.876 1370.45 577.13C1356.22 575.981 1341.72 575.893 1327.05 576.865C1325.9 576.865 1324.75 576.865 1323.6 576.688C1322.45 576.511 1321.39 576.158 1320.51 575.804C1320.51 575.981 1320.42 576.158 1320.33 576.246C1321.21 576.6 1322.19 577.13 1323.25 577.749C1324.22 578.368 1325.1 579.163 1325.9 580.047C1335.62 591.803 1345.96 602.764 1356.75 612.929C1353.3 624.774 1350.74 637.326 1349.06 650.497C1326.87 658.894 1304.95 670.915 1284 686.915Z" fill="#3C4043"/>
<path d="M1401.65 445.599C1410.49 439.411 1419.77 433.843 1429.22 428.716C1455.3 438.881 1478.73 452.14 1498.97 467.697C1489.69 470.791 1480.58 474.415 1471.74 478.57C1459.72 470.526 1446.9 463.189 1433.2 456.737C1431.7 456.029 1430.11 455.145 1428.43 454.262C1426.75 453.289 1425.42 452.405 1424.54 451.345C1424.36 451.433 1424.19 451.61 1423.92 451.698C1424.36 453.112 1424.72 454.792 1424.98 456.56C1425.25 458.328 1425.34 460.007 1425.25 461.598C1424.98 476.537 1426.04 491.298 1428.16 505.53C1421.36 510.922 1414.82 516.844 1408.63 523.12C1402.71 498.547 1400.23 472.471 1401.56 445.599H1401.65ZM1415.35 484.492C1428.78 474.15 1443.19 465.311 1458.31 457.974C1462.37 460.891 1466.35 463.896 1470.24 466.902C1451.85 475.211 1434.53 485.818 1418.79 498.635C1417.56 493.95 1416.41 489.265 1415.35 484.492Z" fill="#3C4043"/>
<path d="M1496.49 402.64C1513.73 398.132 1531.32 395.126 1549 393.535C1565.79 392.032 1579.14 393.8 1588.42 397.513C1597.79 401.314 1601.86 407.059 1601.24 414.396C1600.62 421.733 1595.76 426.771 1587.27 430.042C1578.7 433.401 1567.47 435.168 1553.33 436.406C1548.11 436.848 1542.9 437.467 1537.68 438.262C1538.74 444.803 1539.8 451.256 1540.86 457.797C1531.76 459.123 1522.83 460.979 1513.99 463.278C1508.16 443.035 1502.32 422.882 1496.49 402.64ZM1550.5 423.589C1557.04 422.97 1561.72 421.998 1564.64 420.584C1567.56 419.081 1568.97 416.871 1568.97 413.866C1568.88 410.949 1567.29 408.827 1564.02 407.678C1560.84 406.529 1555.71 406.175 1548.73 406.794C1543.43 407.325 1538.12 407.943 1532.82 408.739C1533.7 414.308 1534.68 419.876 1535.56 425.445C1540.51 424.738 1545.55 424.119 1550.5 423.589ZM1543.43 429.334C1554.65 427.832 1565.97 427.036 1577.28 426.859C1587.36 436.229 1596.29 446.041 1604.15 456.206C1593.81 455.234 1583.47 454.792 1573.13 455.057C1564.29 445.952 1554.3 437.378 1543.43 429.334Z" fill="#3C4043"/>
<path d="M1636.34 397.247C1654.99 400.606 1673.29 405.556 1691.05 412.097C1706.43 417.843 1717.04 424.914 1722.96 431.986C1728.98 439.057 1729.51 445.952 1725.44 452.493C1721.37 458.946 1715.01 461.598 1706.52 461.156C1698.04 460.714 1687.61 457.531 1674.44 452.67C1668.6 450.548 1662.77 448.604 1656.85 446.836C1654.81 453.023 1652.87 459.211 1650.84 465.398C1642.08 462.835 1633.16 460.714 1624.14 459.122C1628.21 438.527 1632.36 417.931 1636.43 397.335L1636.34 397.247ZM1675.59 439.057C1681.77 441.267 1686.46 442.416 1689.73 442.328C1693.09 442.239 1695.39 440.825 1696.71 438.085C1698.04 435.345 1697.51 432.781 1695.21 430.306C1692.91 427.92 1688.4 425.356 1681.86 422.97C1676.65 421.113 1671.43 419.434 1666.13 417.843C1664.36 423.323 1662.59 428.804 1660.82 434.196C1665.77 435.61 1670.72 437.201 1675.59 438.969V439.057Z" fill="#3C4043"/>
<path d="M1762.12 450.374C1787.76 469.29 1810.39 492.891 1828.42 521.088C1824.62 523.652 1820.82 526.127 1817.02 528.69C1806.05 511.542 1793.24 496.073 1779.09 482.549C1776.62 485.112 1774.14 487.676 1771.58 490.151C1783.34 501.465 1794.12 514.017 1803.67 527.895C1800.04 530.458 1796.42 533.021 1792.71 535.673C1783.69 522.503 1773.44 510.481 1762.21 499.785C1759.29 502.791 1756.38 505.708 1753.46 508.713C1766.01 520.735 1777.33 534.436 1786.96 549.728C1783.16 552.203 1779.36 554.766 1775.56 557.241C1761.33 534.789 1743.38 515.961 1722.96 500.935C1735.96 484.14 1749.04 467.345 1762.03 450.462L1762.12 450.374Z" fill="#3C4043"/>
<path d="M1844.68 550.52C1852.55 567.226 1859.09 585.259 1863.86 604.617C1869.87 629.013 1869.34 650.316 1865.01 664.99C1860.68 679.84 1852.99 687.088 1843.35 687H1840.7C1830.98 687 1823.73 680.193 1817.81 668.614C1811.88 657.034 1807.73 641.3 1802.96 622.207C1799.16 607.003 1794.12 592.772 1787.93 579.69C1806.85 569.967 1825.76 560.332 1844.68 550.608V550.52ZM1815.51 617.787C1817.9 627.334 1820.64 634.759 1824.35 639.709C1828.06 644.747 1832.66 646.957 1838.4 646.073C1839.02 645.985 1839.64 645.897 1840.26 645.808C1846.09 644.924 1850.16 641.123 1851.93 634.405C1853.78 627.688 1853.52 618.495 1850.78 607.445C1849.36 601.788 1847.77 596.219 1846.09 590.739C1834.51 594.894 1822.93 599.048 1811.44 603.203C1812.95 607.976 1814.27 612.749 1815.51 617.699V617.787Z" fill="#3C4043"/>
<mask id="mask2_3613_15974" style="mask-type:alpha" maskUnits="userSpaceOnUse" x="1340" y="444" width="483" height="242">
<path d="M1340.67 685.03C1340.67 685.03 1340.67 444 1581.69 444C1822.72 444 1822.72 685.03 1822.72 685.03L1340.67 685.03Z" fill="#FF0000"/>
</mask>
<g mask="url(#mask2_3613_15974)">
<circle cx="1581.7" cy="684.97" r="202.97" stroke="#FF6D7F" stroke-width="10" stroke-linejoin="round" stroke-dasharray="20 20"/>
</g>
</svg>
