<svg width="1920" height="1080" viewBox="0 0 1920 1080" fill="none" xmlns="http://www.w3.org/2000/svg">
<g clip-path="url(#clip0_3613_15984)">
<mask id="mask0_3613_15984" style="mask-type:alpha" maskUnits="userSpaceOnUse" x="50" y="483" width="1820" height="645">
<rect x="50" y="483" width="1820" height="645" fill="url(#paint0_linear_3613_15984)"/>
</mask>
<g mask="url(#mask0_3613_15984)">
<path d="M311 817.498C311 817.498 384.5 676.998 555.5 647.998C726.5 618.998 840 690.998 983.5 710.498C1127 729.998 1195 670.998 1358.5 710.498C1522 749.998 1594.5 933.998 1594.5 933.998L1676.5 1179H1520L1459.5 1015C1459.5 1015 1425 899.498 1321 866.498C1217 833.498 1164.5 900.559 1005.5 877.998C846.5 855.438 721.5 796.998 611.5 798.998C501.5 800.998 431 910.998 431 910.998L311 1109H132L311 817.498Z" fill="#D2E3FC"/>
<path d="M1325.49 719.999C1325.49 719.999 1451.55 613.788 1572 566.5C1692.45 519.212 1929 440.001 1929 440.001L1929 577.998C1929 577.998 1718.93 643.14 1659.19 671.135C1599.45 699.13 1472.91 771.889 1472.91 771.889L1325.49 719.999Z" fill="#D2E3FC"/>
<path d="M-5.64707 516C-5.64707 516 -39.3653 513.048 264.817 668.799C569 824.55 831.502 1100 831.502 1100L623.502 1100C623.502 1100 388.5 886.999 259.695 818.742C130.889 750.485 -5.64725 657.974 -5.64725 657.974L-5.64707 516Z" fill="#D2E3FC"/>
</g>
<mask id="mask1_3613_15984" style="mask-type:alpha" maskUnits="userSpaceOnUse" x="50" y="50" width="1820" height="645">
<rect x="50" y="50" width="1820" height="645" fill="url(#paint1_linear_3613_15984)"/>
</mask>
<g mask="url(#mask1_3613_15984)">
<path d="M311 384.498C311 384.498 384.5 243.998 555.5 214.998C726.5 185.998 840 257.998 983.5 277.498C1127 296.998 1195 237.998 1358.5 277.498C1522 316.998 1594.5 500.998 1594.5 500.998L1676.5 745.998H1520L1459.5 581.998C1459.5 581.998 1425 466.498 1321 433.498C1217 400.498 1164.5 467.559 1005.5 444.998C846.5 422.438 721.5 363.998 611.5 365.998C501.5 367.998 431 477.998 431 477.998L311 676H132L311 384.498Z" fill="#D2E3FC"/>
<path d="M1325.49 286.999C1325.49 286.999 1451.55 180.788 1572 133.5C1692.45 86.2116 1929 7.00084 1929 7.00084L1929 144.998C1929 144.998 1718.93 210.14 1659.19 238.135C1599.45 266.13 1472.91 338.889 1472.91 338.889L1325.49 286.999Z" fill="#D2E3FC"/>
<path d="M-5.64707 82.9995C-5.64707 82.9995 -39.3653 80.0476 264.817 235.799C569 391.55 831.502 667 831.502 667L623.502 667C623.502 667 388.5 453.999 259.695 385.742C130.889 317.485 -5.64725 224.974 -5.64725 224.974L-5.64707 82.9995Z" fill="#D2E3FC"/>
</g>
<path d="M395.669 831.324C385.561 823.015 379.736 813.935 378.365 804.084C376.994 794.233 379.479 785.324 385.903 777.529C392.328 769.648 399.523 765.279 407.49 764.337C415.457 763.394 422.481 765.45 428.563 770.419L428.991 770.761L421.881 779.499L421.453 779.156C417.255 775.73 412.63 774.188 407.661 774.702C402.693 775.13 397.896 778.128 393.356 783.696C388.901 789.093 387.274 795.261 388.559 802.028C389.758 808.881 394.555 815.734 402.95 822.587L407.147 826.013C414.857 832.352 422.395 835.607 429.676 835.693C436.958 835.779 442.783 833.209 447.237 827.726C451.52 822.501 453.319 817.447 452.719 812.479C452.12 807.51 449.893 803.141 446.123 799.372L445.695 798.944L452.805 790.292L453.233 790.721C458.801 796.289 461.971 802.884 462.913 810.594C463.855 818.304 461.114 826.013 454.69 833.894C448.265 841.775 440.041 845.972 430.105 846.486C420.168 847.086 410.146 843.145 399.952 834.836L395.754 831.41L395.669 831.324Z" fill="#3C4043"/>
<path d="M446.547 751.574L455.713 745.749L477.128 779.414C479.784 783.526 482.61 785.924 485.609 786.524C488.607 787.124 491.862 786.353 495.288 784.126C498.201 782.241 500.257 779.842 501.542 776.844C502.741 773.846 503.255 770.677 502.912 767.422L479.527 730.673L488.692 724.848L521.758 776.844L513.449 782.155L508.823 775.731L508.48 775.902C508.138 779.5 507.024 782.841 505.139 785.924C503.341 789.008 500.771 791.664 497.43 793.72C492.205 797.06 487.065 798.26 482.096 797.232C477.042 796.204 472.331 792.263 467.877 785.239L446.547 751.66V751.574Z" fill="#3C4043"/>
<path d="M519.609 709.432L529.289 707.719L531.088 715.429H531.431C533.144 712.259 535.371 709.689 538.112 707.548C540.853 705.406 544.109 704.036 547.878 703.35C551.989 702.665 555.587 702.837 558.842 703.95C562.098 705.064 564.753 707.291 566.98 710.632H567.323C569.207 706.52 571.606 703.436 574.433 701.295C577.26 699.153 580.6 697.697 584.627 697.012C590.966 695.898 596.191 696.84 600.303 699.667C604.414 702.494 607.241 708.062 608.612 716.2L615.379 755.433L604.671 757.317L597.904 717.999C597.048 713.116 595.42 709.861 593.021 708.148C590.623 706.434 587.453 705.835 583.684 706.52C580.344 707.12 577.602 708.49 575.461 710.803C573.319 713.03 571.777 715.771 570.749 718.941L578.116 761.857L567.409 763.742L560.641 724.423C559.785 719.541 558.157 716.285 555.759 714.572C553.36 712.859 550.191 712.259 546.421 712.945C543.081 713.544 540.339 714.915 538.198 717.228C536.056 719.541 534.515 722.196 533.487 725.366L540.853 768.282L530.146 770.167L519.695 709.432H519.609Z" fill="#3C4043"/>
<path d="M635.687 669.086L646.566 670.114L643.14 705.578C645.196 703.265 647.766 701.38 650.935 700.181C654.105 698.896 657.788 698.553 662.071 698.896C669.866 699.667 675.777 703.179 679.889 709.432C684 715.686 685.628 723.31 684.771 732.218L684.6 734.103C683.743 743.012 680.66 750.207 675.434 755.604C670.209 761.001 663.699 763.314 655.903 762.543C651.62 762.114 648.023 760.915 644.939 758.773C641.941 756.632 639.713 754.319 638.428 751.578H638.086L636.887 759.459L627.121 758.516L635.773 669L635.687 669.086ZM644.853 749.351C647.337 751.749 650.592 753.12 654.447 753.462C660.272 754.062 664.727 752.349 667.896 748.323C670.98 744.382 672.864 739.243 673.464 732.989L673.635 731.105C674.235 724.851 673.378 719.54 671.066 715C668.753 710.46 664.641 707.976 658.816 707.376C654.961 707.034 651.535 707.719 648.622 709.604C645.71 711.488 643.482 713.715 642.026 716.285L639.628 741.213C640.57 744.04 642.283 746.695 644.853 749.094V749.351Z" fill="#3C4043"/>
<path d="M695.644 734.444C697.528 725.364 701.554 718.426 707.722 713.629C713.89 708.917 721.085 707.375 729.309 709.003C737.532 710.716 743.272 714.656 746.612 720.995C749.953 727.334 750.638 735.044 748.754 744.21L747.897 748.579L701.469 739.07L703.182 730.59L738.817 737.871L739.074 736.5C739.931 732.131 739.502 728.191 737.618 724.593C735.733 720.995 732.478 718.768 727.852 717.826C722.199 716.627 717.487 717.912 713.89 721.681C710.206 725.45 707.722 730.418 706.437 736.586L706.094 738.385C704.809 744.638 705.238 750.206 707.294 755.089C709.35 759.972 713.461 763.055 719.715 764.34C723.569 765.111 726.996 764.94 730.08 763.826C733.164 762.713 735.819 761.171 738.046 759.201L743.786 766.054C741.301 768.538 737.789 770.594 733.249 772.221C728.709 773.849 723.655 774.106 717.916 772.906C708.579 771.022 701.983 766.653 698.128 759.8C694.359 753.033 693.331 745.066 695.215 735.901L695.558 734.102L695.644 734.444Z" fill="#3C4043"/>
<path d="M769.146 719.795L778.654 722.193L777.198 729.989H777.541C779.682 727.933 782.252 726.22 785.164 725.02C788.077 723.735 791.246 723.564 794.673 724.421C795.529 724.592 796.386 724.935 797.243 725.363C798.099 725.791 798.699 726.134 799.042 726.391L796.643 736.156C795.958 735.814 795.187 735.471 794.33 735.214C793.474 734.957 792.617 734.7 791.589 734.443C788.163 733.586 785.079 733.758 782.252 734.957C779.425 736.156 777.112 737.955 775.313 740.268L764.863 782.328L754.326 779.672L769.231 719.881L769.146 719.795Z" fill="#3C4043"/>
<path d="M817.03 702.746L827.567 705.487L804.866 792.52L794.33 789.778L817.03 702.746Z" fill="#3C4043"/>
<path d="M834.174 766.394C839.828 764.253 846.424 764.167 853.791 766.137L867.325 769.649L868.353 765.537C869.296 761.94 869.124 758.77 867.839 756.029C866.554 753.288 863.642 751.318 859.102 750.204C854.562 749.005 851.05 749.176 848.651 750.461C846.253 751.832 844.711 753.716 844.025 756.2V756.457L833.489 753.716V753.459C834.774 748.748 837.943 745.15 843.083 742.751C848.223 740.267 854.391 740.01 861.586 741.895C868.782 743.779 873.921 746.949 876.92 751.403C880.003 755.858 880.603 761.511 878.89 768.279L871.866 795.519C871.18 798.003 870.838 800.316 870.581 802.629C870.409 804.942 870.409 806.912 870.666 808.797L870.409 809.739L860.216 807.083C859.959 805.97 859.787 804.599 859.702 803.057C859.702 801.43 859.702 799.888 860.044 798.346C857.988 800.402 855.162 802.029 851.564 803.143C847.966 804.257 843.683 804.171 838.8 802.886C833.146 801.43 828.692 798.603 825.608 794.32C822.524 790.037 821.668 784.897 823.295 778.901C824.837 772.819 828.521 768.793 834.174 766.651V766.394ZM834.86 789.608C836.316 792.007 839.143 793.806 843.255 794.919C847.452 795.947 851.564 795.519 855.675 793.549C859.787 791.579 862.271 788.923 863.042 785.754L865.27 777.187L852.934 774.018C847.623 772.647 843.426 772.647 840.171 773.932C836.916 775.217 834.86 777.616 834.003 780.957C833.146 784.383 833.403 787.296 834.86 789.694V789.608Z" fill="#3C4043"/>
<path d="M898.927 753.292L908.521 755.433L907.237 763.228H907.579C910.32 761.087 913.49 759.459 917.002 758.603C920.514 757.746 924.112 757.746 927.967 758.603C934.049 759.973 938.503 762.8 941.33 766.998C944.157 771.281 944.671 777.448 942.872 785.501L934.134 824.305L923.512 821.907L932.25 783.016C933.278 778.219 933.021 774.536 931.308 771.966C929.594 769.396 926.767 767.683 922.827 766.826C919.401 766.055 916.231 766.312 913.233 767.512C910.235 768.711 907.665 770.681 905.609 773.251L896.101 815.739L885.479 813.341L899.013 753.206L898.927 753.292Z" fill="#3C4043"/>
<path d="M955.199 796.381C956.484 787.472 959.91 780.533 965.393 775.393C970.875 770.254 977.471 768.284 985.181 769.483C989.464 770.082 992.976 771.367 995.717 773.423C998.458 775.393 1000.6 777.792 1001.97 780.533L1007.2 745.326L1017.99 746.954L1004.8 835.956L995.032 834.5L995.717 826.533H995.374C993.49 828.761 990.749 830.56 987.322 831.844C983.896 833.129 980.041 833.472 975.758 832.872C968.048 831.759 962.309 827.904 958.54 821.394C954.771 814.883 953.571 807.26 954.856 798.351L955.113 796.466L955.199 796.381ZM967.706 816.083C969.762 820.708 973.702 823.45 979.527 824.306C983.382 824.906 986.808 824.306 989.892 822.593C992.89 820.88 995.203 818.738 996.831 816.254L1000.51 791.498C999.743 788.585 998.116 785.93 995.717 783.36C993.319 780.876 990.235 779.248 986.38 778.734C980.555 777.878 976.015 779.334 972.674 783.189C969.333 786.958 967.192 792.012 966.335 798.179L966.078 800.064C965.136 806.232 965.735 811.628 967.791 816.254L967.706 816.083Z" fill="#3C4043"/>
<path d="M1058.94 754.488L1087.13 753.203C1096.46 752.775 1103.83 754.83 1109.06 759.285C1114.28 763.739 1117.11 769.907 1117.45 777.702C1117.79 785.497 1115.57 791.922 1110.77 796.89C1105.97 801.859 1098.86 804.6 1089.52 805.028L1072.56 805.799L1074.02 839.122L1062.8 839.636L1058.94 754.488ZM1089.01 795.777C1095.61 795.434 1100.23 793.635 1102.72 790.294C1105.2 786.954 1106.4 782.842 1106.14 778.216C1105.97 773.505 1104.43 769.65 1101.6 766.566C1098.78 763.482 1094.06 762.112 1087.47 762.454L1070.51 763.225L1072.05 796.548L1089.01 795.777Z" fill="#3C4043"/>
<path d="M1122.94 744.719L1133.65 742.749L1149.92 831.238L1139.22 833.208L1122.94 744.719Z" fill="#3C4043"/>
<path d="M1166.27 793.204C1170.47 788.749 1176.21 785.837 1183.75 784.295L1197.37 781.468L1196.51 777.356C1195.74 773.759 1194.2 770.932 1191.89 769.047C1189.57 767.163 1186.06 766.649 1181.52 767.677C1176.9 768.619 1173.9 770.246 1172.27 772.559C1170.64 774.872 1170.13 777.271 1170.64 779.755V780.012L1160.11 782.239V781.982C1159.08 777.185 1160.36 772.559 1163.88 768.105C1167.39 763.65 1172.79 760.652 1180.07 759.196C1187.35 757.654 1193.34 758.254 1198.06 760.909C1202.77 763.565 1205.85 768.362 1207.22 775.215L1212.96 802.712C1213.47 805.196 1214.16 807.509 1215.02 809.651C1215.87 811.792 1216.82 813.591 1217.84 815.133L1218.01 816.075L1207.65 818.217C1206.96 817.36 1206.19 816.247 1205.42 814.79C1204.65 813.334 1204.05 811.878 1203.62 810.336C1202.77 813.163 1200.88 815.818 1198.14 818.303C1195.4 820.872 1191.55 822.671 1186.58 823.699C1180.84 824.899 1175.61 824.299 1170.9 821.815C1166.19 819.416 1163.28 815.133 1161.99 809.051C1160.71 802.969 1162.16 797.658 1166.27 793.289V793.204ZM1177.15 813.677C1179.55 815.219 1182.81 815.561 1187.09 814.705C1191.29 813.848 1194.8 811.621 1197.63 807.938C1200.45 804.34 1201.48 800.913 1200.8 797.658L1199 789.006L1186.49 791.576C1181.18 792.69 1177.33 794.574 1175.01 797.144C1172.7 799.714 1171.84 802.712 1172.53 806.224C1173.21 809.651 1174.76 812.135 1177.15 813.677Z" fill="#3C4043"/>
<path d="M1225.13 783.186C1225.13 773.935 1227.62 766.311 1232.67 760.4C1237.72 754.489 1244.66 751.491 1253.49 751.491C1261.71 751.491 1267.88 753.633 1272.16 758.087C1276.44 762.542 1278.59 767.424 1278.59 772.907V773.164H1268.05V772.907C1268.05 769.566 1266.85 766.653 1264.54 764.083C1262.22 761.599 1258.54 760.314 1253.49 760.314C1247.58 760.314 1243.21 762.542 1240.38 766.91C1237.55 771.279 1236.18 776.676 1236.18 783.015V784.899C1236.18 791.238 1237.64 796.635 1240.47 801.004C1243.29 805.372 1247.66 807.6 1253.57 807.514C1258.63 807.514 1262.31 806.229 1264.62 803.659C1266.94 801.089 1268.05 798.177 1268.05 794.836V794.579H1278.59V794.836C1278.59 800.318 1276.44 805.287 1272.25 809.656C1267.96 814.11 1261.8 816.337 1253.57 816.337C1244.66 816.337 1237.72 813.425 1232.67 807.514C1227.62 801.603 1225.05 794.065 1225.05 784.728V782.843L1225.13 783.186Z" fill="#3C4043"/>
<path d="M1290.31 784.297C1292.45 775.303 1296.74 768.45 1303.08 763.995C1309.42 759.455 1316.7 758.17 1324.83 760.14C1332.97 762.111 1338.63 766.308 1341.71 772.733C1344.79 779.157 1345.22 786.953 1343.08 796.033L1342.05 800.316L1295.97 789.18L1298.02 780.785L1333.4 789.351L1333.74 787.981C1334.77 783.612 1334.43 779.671 1332.72 776.074C1331 772.476 1327.83 770.077 1323.21 768.964C1317.55 767.593 1312.84 768.707 1309.07 772.304C1305.3 775.902 1302.65 780.785 1301.11 786.953L1300.68 788.751C1299.22 794.919 1299.39 800.487 1301.28 805.456C1303.16 810.424 1307.19 813.679 1313.36 815.135C1317.13 816.078 1320.64 815.992 1323.72 815.05C1326.89 814.022 1329.55 812.565 1331.86 810.767L1337.34 817.791C1334.77 820.189 1331.17 822.16 1326.63 823.616C1322.09 825.158 1316.95 825.158 1311.21 823.787C1301.88 821.56 1295.54 816.934 1291.94 809.996C1288.34 803.057 1287.66 795.09 1289.88 786.096L1290.31 784.297Z" fill="#3C4043"/>
<path d="M396.042 404.849C385.934 396.539 380.109 387.459 378.738 377.608C377.367 367.757 379.852 358.848 386.276 351.053C392.701 343.172 399.896 338.803 407.863 337.861C415.83 336.919 422.854 338.975 428.936 343.943L429.364 344.286L422.254 353.023L421.826 352.681C417.628 349.254 413.003 347.712 408.034 348.226C403.066 348.654 398.269 351.653 393.729 357.221C389.274 362.617 387.647 368.785 388.932 375.552C390.131 382.405 394.928 389.258 403.323 396.111L407.52 399.538C415.23 405.877 422.768 409.132 430.049 409.217C437.331 409.303 443.156 406.733 447.61 401.251C451.893 396.025 453.692 390.971 453.092 386.003C452.493 381.035 450.266 376.666 446.496 372.897L446.068 372.468L453.178 363.817L453.606 364.245C459.174 369.813 462.344 376.409 463.286 384.118C464.228 391.828 461.487 399.538 455.063 407.418C448.638 415.299 440.414 419.497 430.478 420.011C420.541 420.61 410.519 416.67 400.325 408.361L396.127 404.934L396.042 404.849Z" fill="#3C4043"/>
<path d="M436.463 302.823L446.143 297.083L475.61 346.767C479.037 352.506 483.063 355.847 487.86 356.789C492.657 357.732 497.54 356.789 502.594 353.706C507.648 350.707 510.903 346.938 512.359 342.313C513.815 337.687 512.873 332.547 509.447 326.808L479.979 277.124L489.659 271.385L519.126 321.069C524.095 329.463 525.208 337.259 522.553 344.54C519.897 351.821 514.843 357.56 507.476 362.015C500.11 366.384 492.571 368.011 484.947 366.898C477.324 365.784 470.985 360.987 466.016 352.592L436.549 302.908L436.463 302.823Z" fill="#3C4043"/>
<path d="M533.353 254.851L547.744 253.138L580.296 313.872C580.895 314.986 581.495 316.185 582.009 317.384C582.523 318.583 583.037 319.783 583.551 320.896H583.979C584.151 319.611 584.408 318.412 584.665 317.041C584.922 315.757 585.179 314.472 585.521 313.272L603.253 246.713L617.644 245L627.581 329.634L616.788 330.919L609.678 269.842C609.507 268.643 609.421 267.358 609.25 265.901C609.078 264.445 609.078 263.16 609.078 261.961H608.65C608.564 263.246 608.393 264.531 608.05 266.073C607.793 267.615 607.451 268.985 607.108 270.185L590.147 334.088L580.467 335.202L549.286 276.952C548.687 275.838 548.087 274.553 547.402 273.183C546.802 271.812 546.288 270.527 545.86 269.328H545.432C545.689 270.527 545.946 271.812 546.202 273.268C546.374 274.725 546.545 276.01 546.716 277.209L553.826 338.286L543.204 339.485L533.268 254.765L533.353 254.851Z" fill="#3C4043"/>
<path d="M653.876 248.424L681.716 252.107C690.196 253.221 696.707 255.876 701.075 260.159C705.444 264.442 707.157 270.439 706.129 278.148C705.53 282.774 703.816 286.372 701.075 289.027C698.334 291.597 695.165 293.31 691.481 294.081V294.338C695.507 296.137 698.762 298.878 700.99 302.562C703.217 306.245 704.073 310.785 703.302 316.182C702.275 323.892 698.934 329.631 693.28 333.143C687.626 336.741 680.602 337.94 672.207 336.826L642.568 332.886L653.704 248.338L653.876 248.424ZM673.578 327.661C679.403 328.432 683.857 327.661 686.855 325.176C689.939 322.778 691.738 319.266 692.338 314.64C692.937 310.014 692.081 306.16 689.768 303.076C687.455 299.992 683.343 298.107 677.518 297.336L658.844 294.852L654.818 325.176L673.492 327.661H673.578ZM677.004 288.085C682.829 288.856 687.112 288.171 690.025 286.115C692.937 284.059 694.651 280.889 695.165 276.606C695.764 272.323 694.908 268.897 692.595 266.327C690.368 263.671 686.341 262.044 680.516 261.273L663.555 259.046L660.043 285.858L677.004 288.085Z" fill="#3C4043"/>
<path d="M732.857 260.677L785.025 272.584L782.969 281.578L741.766 272.155L735.684 298.882L771.662 307.105L769.606 316.1L733.628 307.876L726.946 337.258L768.749 346.767L766.693 355.761L713.926 343.769L732.857 260.677Z" fill="#3C4043"/>
<path d="M800.881 276.78L827.694 283.805C836.517 286.117 842.77 290.143 846.453 295.797C850.051 301.451 850.908 307.961 849.023 315.328C847.139 322.609 843.113 327.92 837.202 331.261C831.206 334.516 823.839 335.03 814.93 332.717L798.911 328.52L790.088 362.185L779.209 359.358L800.796 276.866L800.881 276.78ZM817.243 323.809C823.496 325.436 828.293 325.093 831.548 322.695C834.803 320.296 837.031 316.87 838.144 312.501C839.258 308.132 839.001 304.106 837.373 300.509C835.66 296.911 831.72 294.341 825.466 292.628L809.448 288.43L801.31 319.611L817.328 323.809H817.243ZM815.872 328.177L827.094 329.377L838.23 374.692L826.152 371.522L815.958 328.177H815.872Z" fill="#3C4043"/>
<path d="M870.424 295.108L881.303 297.85L862.886 371.604L902.119 381.37L899.891 390.364L849.779 377.858L870.424 295.108Z" fill="#3C4043"/>
<path d="M954.64 314.132L964.577 316.016L980.167 406.475L968.688 404.248L957.895 336.575C957.724 335.205 957.552 333.92 957.381 332.635C957.21 331.35 957.21 330.065 957.124 328.78H956.524C956.011 329.894 955.497 331.007 954.897 332.206C954.297 333.32 953.698 334.519 953.012 335.633L917.548 394.397L906.498 392.255L954.64 314.132ZM929.541 364.587L968.86 372.21L970.487 381.976L924.401 373.067L929.541 364.672V364.587Z" fill="#3C4043"/>
<path d="M1002.35 323.727L1014 324.583L1048.17 386.945C1048.86 388.144 1049.54 389.429 1050.14 390.628C1050.74 391.828 1051.26 392.941 1051.6 393.969H1052.03C1052.03 392.856 1052.11 391.485 1052.2 390.029C1052.29 388.572 1052.37 387.288 1052.46 386.088L1056.65 327.667L1067.62 328.438L1061.45 413.5L1049.8 412.643L1015.62 350.282C1014.94 349.082 1014.25 347.798 1013.74 346.598C1013.14 345.399 1012.62 344.285 1012.2 343.257H1011.77C1011.77 344.371 1011.68 345.742 1011.51 347.198C1011.51 348.654 1011.34 349.939 1011.25 351.138L1007.06 409.56L996.092 408.789L1002.26 323.727H1002.35Z" fill="#3C4043"/>
<path d="M1081.5 328.347L1106.6 325.263C1117.48 323.893 1126.9 326.377 1135.04 332.63C1143.18 338.884 1147.98 348.049 1149.43 360.128L1150.12 365.439C1151.57 377.517 1149.18 387.625 1142.84 395.677C1136.5 403.73 1127.93 408.441 1117.05 409.812L1091.95 412.895L1081.42 328.262L1081.5 328.347ZM1115.94 400.646C1124.08 399.618 1130.25 396.106 1134.36 390.195C1138.55 384.199 1140.01 376.489 1138.81 366.895L1138.13 361.584C1136.93 352.076 1133.59 344.88 1128.1 340.083C1122.62 335.286 1115.77 333.401 1107.63 334.429L1093.67 336.142L1101.89 402.359L1115.85 400.646H1115.94Z" fill="#3C4043"/>
<path d="M1194.48 307.02L1222.58 304.45C1231.92 303.593 1239.29 305.307 1244.77 309.504C1250.16 313.701 1253.25 319.698 1254.02 327.493C1254.7 335.288 1252.82 341.798 1248.19 347.024C1243.65 352.249 1236.72 355.247 1227.38 356.104L1210.5 357.646L1213.59 390.883L1202.37 391.91L1194.57 307.02H1194.48ZM1226.44 346.938C1233.03 346.338 1237.49 344.283 1239.89 340.77C1242.2 337.258 1243.23 333.232 1242.8 328.521C1242.37 323.895 1240.66 320.04 1237.74 317.128C1234.83 314.215 1230.03 313.016 1223.44 313.616L1206.56 315.158L1209.65 348.394L1226.52 346.852L1226.44 346.938Z" fill="#3C4043"/>
<path d="M1280.24 303.508L1291.38 305.221L1279.99 380.346L1319.91 386.428L1318.53 395.594L1267.48 387.799L1280.24 303.508Z" fill="#3C4043"/>
<path d="M1383.8 330.237L1392.88 334.52L1385.6 426.007L1374.98 421.038L1381.32 352.766C1381.4 351.395 1381.58 350.111 1381.83 348.826C1382 347.541 1382.26 346.341 1382.6 345.057L1382.09 344.8C1381.32 345.827 1380.46 346.855 1379.61 347.798C1378.75 348.74 1377.89 349.682 1376.86 350.625L1327.95 398.766L1317.76 393.969L1383.72 330.151L1383.8 330.237ZM1346.97 372.982L1383.2 390.115L1382.35 399.966L1339.94 379.921L1347.05 372.982H1346.97Z" fill="#3C4043"/>
<path d="M1416.02 393.538C1424.93 383.859 1434.26 378.633 1444.2 377.777C1454.14 376.92 1462.79 379.918 1470.33 386.771C1477.78 393.624 1481.81 401.077 1482.23 409.043C1482.75 417.01 1480.26 423.948 1474.95 429.688L1474.52 430.116L1466.21 422.492L1466.64 422.064C1470.33 418.038 1472.04 413.583 1471.87 408.529C1471.7 403.475 1468.96 398.592 1463.73 393.795C1458.59 389.084 1452.59 387.114 1445.66 387.97C1438.72 388.827 1431.61 393.196 1424.33 401.162L1420.64 405.103C1413.88 412.47 1410.28 419.751 1409.68 427.032C1409.16 434.313 1411.48 440.31 1416.62 445.021C1421.59 449.561 1426.55 451.617 1431.52 451.274C1436.49 450.932 1441.03 448.961 1444.97 445.449L1445.4 445.021L1453.71 452.645L1453.28 453.073C1447.45 458.299 1440.69 461.125 1432.89 461.639C1425.18 462.153 1417.56 458.984 1410.11 452.045C1402.65 445.192 1398.88 436.797 1398.88 426.775C1398.88 416.838 1403.34 406.987 1412.16 397.307L1415.76 393.367L1416.02 393.538Z" fill="#3C4043"/>
<path d="M1511.86 434.652L1541.41 479.282L1533.7 484.422L1510.4 449.129L1487.53 464.291L1507.92 495.044L1500.21 500.184L1479.82 469.431L1454.72 486.049L1478.37 521.77L1470.66 526.91L1440.76 481.766L1511.86 434.738V434.652Z" fill="#3C4043"/>
</g>
<defs>
<linearGradient id="paint0_linear_3613_15984" x1="960" y1="483" x2="960" y2="1128" gradientUnits="userSpaceOnUse">
<stop offset="0.015625" stop-color="#FF0000" stop-opacity="0"/>
<stop offset="0.489583" stop-color="#FF0000"/>
<stop offset="0.760417" stop-color="#FF0000" stop-opacity="0"/>
</linearGradient>
<linearGradient id="paint1_linear_3613_15984" x1="960" y1="50" x2="960" y2="695" gradientUnits="userSpaceOnUse">
<stop offset="0.015625" stop-color="#FF0000" stop-opacity="0"/>
<stop offset="0.489583" stop-color="#FF0000"/>
<stop offset="0.760417" stop-color="#FF0000" stop-opacity="0"/>
</linearGradient>
<clipPath id="clip0_3613_15984">
<rect width="1920" height="1080" fill="white"/>
</clipPath>
</defs>
</svg>
