<svg width="1920" height="1080" viewBox="0 0 1920 1080" fill="none" xmlns="http://www.w3.org/2000/svg">
<mask id="mask0_3649_16180" style="mask-type:alpha" maskUnits="userSpaceOnUse" x="50" y="50" width="1820" height="980">
<rect x="50" y="50" width="1820" height="980" fill="#FF0000"/>
</mask>
<g mask="url(#mask0_3649_16180)">
<path d="M646.057 124.621C653.887 122.116 661.822 119.611 669.757 117.315C678.945 130.57 687.82 143.928 696.59 157.391C697.216 158.435 697.947 159.478 698.574 160.626C699.2 161.774 699.827 162.818 700.244 163.966C700.244 163.966 700.349 163.966 700.453 163.966C700.244 162.818 700.035 161.566 699.827 160.313C699.618 159.061 699.513 157.809 699.513 156.556C699.513 140.693 699.827 124.725 700.349 108.758C709.119 106.462 717.889 104.27 726.659 102.287C734.594 116.063 742.425 130.048 749.942 143.928C750.569 144.972 751.091 146.224 751.508 147.477C751.926 148.729 752.344 149.877 752.657 151.025H752.866C752.761 149.877 752.552 148.625 752.448 147.268C752.344 145.911 752.344 144.659 752.448 143.511C753.805 127.647 755.476 111.68 757.355 95.8165C764.351 94.4598 771.346 93.1031 778.341 91.9551C774.165 117.733 770.719 143.615 767.9 169.393C759.548 171.063 751.3 172.837 742.947 174.82C735.325 160.626 727.495 146.642 719.56 132.657C718.933 131.613 718.411 130.361 717.889 129.109C717.367 127.856 716.949 126.604 716.741 125.56C716.636 125.56 716.532 125.56 716.427 125.56C716.741 126.708 716.949 127.856 717.158 129.213C717.367 130.57 717.472 131.822 717.367 133.074C716.636 149.251 716.219 165.323 716.01 181.395C707.657 183.586 699.305 185.987 690.952 188.387C676.544 166.888 661.613 145.598 646.057 124.621Z" fill="#3C4043"/>
<path d="M815.093 86.0064C822.402 85.0672 829.711 84.1279 837.019 83.293C851.636 106.67 865.314 130.257 878.156 154.26C870.325 154.782 862.495 155.513 854.664 156.243C847.669 142.363 840.36 128.482 832.738 114.811C831.903 113.245 831.068 111.576 830.128 109.697C829.293 107.818 828.666 106.149 828.249 104.688C828.04 104.688 827.936 104.688 827.727 104.688C827.727 106.462 827.414 108.236 827.1 110.219C826.787 112.202 826.369 113.976 825.847 115.541C821.462 130.778 817.39 146.016 813.632 161.253C806.741 162.296 799.85 163.34 792.959 164.592C799.328 138.293 806.636 112.097 814.885 86.0064H815.093ZM812.274 132.657C824.803 130.883 837.332 129.317 849.966 128.065C852.158 132.97 854.351 137.98 856.439 142.885C840.778 144.346 825.221 146.329 809.664 148.625C810.499 143.302 811.335 137.98 812.274 132.657Z" fill="#3C4043"/>
<path d="M886.299 79.3271C898.41 78.5965 910.521 78.1791 922.633 77.866C934.118 77.6573 943.097 79.6402 949.57 83.8147C956.043 87.9893 959.071 94.3554 958.967 103.018C958.862 111.68 955.521 118.046 949.257 122.221C942.992 126.395 934.431 128.482 923.677 128.691C919.709 128.691 915.742 128.9 911.774 129.004C912.088 136.727 912.296 144.554 912.61 152.382C905.301 152.59 897.992 153.008 890.684 153.425C889.222 128.691 887.761 104.061 886.299 79.3271ZM922.215 113.454C927.018 113.35 930.463 112.515 932.551 110.845C934.744 109.175 935.788 106.67 935.788 103.122C935.788 99.678 934.64 97.1733 932.447 95.6078C930.254 94.1467 926.705 93.3118 921.797 93.5205C918.039 93.5205 914.28 93.7293 910.626 93.8336C910.835 100.513 911.043 107.088 911.357 113.767C915.011 113.663 918.665 113.558 922.319 113.454H922.215ZM916.681 119.507C925.034 119.09 933.387 118.881 941.739 118.777C949.152 129.839 956.252 141.006 963.143 152.277C954.895 152.069 946.646 151.964 938.398 152.069C931.403 141.215 924.199 130.361 916.786 119.611L916.681 119.507Z" fill="#3C4043"/>
<path d="M982.25 78.4922C995.197 79.014 1008.04 79.8489 1020.88 80.8926C1032.05 81.8318 1040.41 84.6496 1045.94 89.346C1051.47 94.0424 1053.67 100.826 1052.62 109.801C1051.58 118.672 1047.92 124.725 1041.76 128.169C1035.6 131.613 1027.25 132.866 1016.71 131.926C1012.01 131.509 1007.31 131.196 1002.61 130.883C1002.09 138.501 1001.57 146.12 1001.15 153.738C993.84 153.217 986.531 152.903 979.223 152.59C980.267 127.856 981.206 103.122 982.25 78.4922ZM1014.93 116.376C1019.73 116.794 1023.28 116.272 1025.58 114.811C1027.88 113.454 1029.23 110.949 1029.55 107.401C1029.86 103.853 1029.03 101.243 1026.94 99.4693C1024.85 97.6951 1021.4 96.6515 1016.5 96.234C1012.63 95.9209 1008.77 95.6078 1004.91 95.3991C1004.49 102.078 1004.07 108.862 1003.55 115.541C1007.31 115.75 1011.07 116.063 1014.93 116.376Z" fill="#3C4043"/>
<path d="M1076.01 86.9453C1097.62 89.9719 1119.13 93.7289 1140.53 98.2166C1139.49 103.435 1138.34 108.653 1137.29 113.871C1123.83 111.053 1110.36 108.549 1096.89 106.253C1096.26 110.323 1095.53 114.393 1094.91 118.463C1106.39 120.342 1117.87 122.533 1129.36 124.829C1128.32 129.943 1127.27 134.953 1126.23 140.066C1114.95 137.77 1103.68 135.683 1092.29 133.805C1091.46 138.605 1090.73 143.302 1089.89 148.102C1103.05 150.294 1116.1 152.694 1129.15 155.512C1128.11 160.73 1126.96 165.844 1125.91 171.062C1105.97 166.888 1085.93 163.34 1065.78 160.522C1069.22 135.996 1072.67 111.575 1076.11 87.0497L1076.01 86.9453Z" fill="#3C4043"/>
<path d="M1161.73 102.913C1173.11 105.627 1184.49 108.444 1195.76 111.575C1209.96 115.437 1219.99 121.699 1225.73 129.839C1231.37 138.084 1232.31 147.581 1228.86 158.435C1228.55 159.374 1228.24 160.417 1227.92 161.357C1224.37 172.211 1218.11 179.412 1209.23 183.064C1200.36 186.717 1189.5 186.613 1176.34 183.064C1165.9 180.247 1155.46 177.533 1144.92 175.133C1150.56 151.025 1156.19 127.021 1161.83 102.913H1161.73ZM1179.89 168.036C1186.26 169.81 1191.48 169.497 1195.87 167.305C1200.15 165.114 1203.39 160.626 1205.37 154.051C1205.58 153.321 1205.79 152.695 1206 151.964C1207.98 145.285 1207.77 139.753 1205.16 135.579C1202.55 131.3 1197.96 128.273 1191.28 126.499C1187.83 125.56 1184.38 124.621 1180.94 123.786C1177.28 137.666 1173.73 151.651 1170.08 165.531C1173.32 166.366 1176.66 167.305 1179.89 168.14V168.036Z" fill="#3C4043"/>
<circle cx="957.695" cy="1091.84" r="907.306" stroke="#FF6D7F" stroke-width="10" stroke-linejoin="round" stroke-dasharray="20 20"/>
<path d="M611.786 478.021C619.19 470.616 626.912 463.423 634.634 456.548C649.549 464.058 664.146 472.097 678.215 480.665C679.272 481.3 680.436 482.04 681.494 482.781C682.552 483.521 683.609 484.367 684.456 485.214C684.456 485.214 684.561 485.214 684.667 485.108C683.927 484.156 683.292 483.098 682.657 481.934C682.023 480.771 681.494 479.713 680.965 478.444C675.253 463.106 670.07 447.556 665.415 431.795C674.407 425.131 683.715 418.89 693.024 412.967C706.14 423.016 718.728 433.382 730.892 444.277C731.844 445.123 732.691 446.075 733.537 447.133C734.383 448.191 735.124 449.249 735.758 450.201C735.758 450.201 735.97 450.201 735.97 450.095C735.441 449.037 735.018 447.768 734.489 446.499C733.96 445.229 733.643 443.96 733.431 442.796C730.469 426.718 728.036 410.322 726.238 393.927C733.96 389.907 741.682 386.099 749.615 382.608C750.567 409.688 753.106 436.45 757.231 462.683C748.98 467.125 740.73 471.885 732.691 476.963C720.315 466.173 707.515 455.807 694.293 445.864C693.235 445.123 692.283 444.171 691.331 443.219C690.379 442.162 689.533 441.21 688.898 440.258C688.793 440.258 688.687 440.363 688.581 440.469C689.216 441.421 689.956 442.479 690.591 443.748C691.225 444.912 691.754 446.181 692.072 447.451C696.514 463.529 701.486 479.29 706.986 494.839C699.159 500.763 691.543 506.898 684.032 513.456C660.973 500.34 636.75 488.598 611.574 478.338L611.786 478.021Z" fill="#3C4043"/>
<path d="M791.601 365.79C800.064 362.934 808.526 360.289 817.094 357.962C837.721 378.377 856.126 399.956 872.416 422.593C863.954 424.073 855.597 425.872 847.347 427.987C837.826 415.188 827.672 402.706 816.882 390.542C815.719 389.167 814.449 387.686 813.074 385.993C811.805 384.301 810.747 382.82 810.218 381.339C810.007 381.339 809.901 381.445 809.689 381.551C809.901 383.349 809.901 385.253 809.901 387.263C809.901 389.272 809.689 391.176 809.372 392.975C806.939 409.264 805.247 425.449 804.295 441.527C797.102 444.171 790.015 447.133 783.033 450.201C783.668 422.381 786.524 394.244 791.707 365.895L791.601 365.79ZM796.89 413.178C810.43 408.207 824.181 403.976 838.144 400.379C841.317 404.928 844.385 409.582 847.347 414.13C830.422 418.15 813.603 423.333 797.208 429.68C796.996 424.179 796.89 418.679 796.89 413.178Z" fill="#3C4043"/>
<path d="M875.073 345.904C889.458 343.788 903.844 342.413 918.336 341.672C931.981 340.932 942.771 343.048 950.387 347.279C958.003 351.51 961.494 358.174 961.071 366.954C960.647 375.733 956.734 382.08 949.541 386.205C942.348 390.331 932.828 392.446 920.769 393.081C916.326 393.292 911.884 393.61 907.441 393.927C908.075 401.755 908.71 409.688 909.451 417.516C901.517 418.15 893.584 419.102 885.756 420.266C882.16 395.408 878.563 370.656 874.967 345.798L875.073 345.904ZM918.865 377.637C924.365 377.32 928.279 376.368 930.712 374.675C933.145 372.983 934.414 370.338 934.309 366.742C934.309 363.251 932.933 360.713 930.289 359.232C927.645 357.751 923.519 357.116 917.701 357.433C913.364 357.645 908.922 357.962 904.585 358.385C905.114 365.05 905.748 371.819 906.277 378.483C910.508 378.166 914.634 377.849 918.865 377.637ZM912.73 383.984C922.144 383.138 931.664 382.715 941.184 382.503C949.646 393.716 957.368 405.14 964.455 416.775C955.464 416.246 946.473 416.035 937.588 416.141C929.972 405.14 921.721 394.35 912.836 383.878L912.73 383.984Z" fill="#3C4043"/>
<path d="M989.516 343.471C1004.85 345.057 1020.19 347.279 1035.32 350.346C1048.43 352.991 1058.06 357.539 1063.88 363.357C1069.7 369.175 1071.18 376.579 1068.53 385.253C1065.99 393.927 1060.81 399.216 1053.51 401.543C1046.11 403.87 1036.69 403.553 1024.95 401.226C1019.77 400.168 1014.59 399.216 1009.4 398.37C1008.13 405.986 1006.86 413.602 1005.7 421.218C997.873 419.948 989.939 418.891 982.006 418.15C984.545 393.186 987.083 368.223 989.516 343.365V343.471ZM1024.74 385.359C1030.14 386.417 1034.26 386.417 1037.01 385.359C1039.87 384.301 1041.66 382.08 1042.51 378.483C1043.36 374.993 1042.62 372.136 1040.5 370.021C1038.28 367.905 1034.37 366.213 1028.65 365.155C1024.21 364.309 1019.66 363.463 1015.22 362.722C1014.16 369.492 1013 376.262 1011.94 382.926C1016.28 383.666 1020.51 384.407 1024.74 385.253V385.359Z" fill="#3C4043"/>
<path d="M1099.43 368.116C1124.18 376.896 1148.4 387.897 1171.67 401.013C1169.03 405.668 1166.39 410.428 1163.74 415.082C1149.35 407.043 1134.65 399.744 1119.74 393.397C1118.04 397.205 1116.46 401.119 1114.77 404.927C1127.35 410.322 1139.73 416.245 1151.89 422.804C1149.35 427.458 1146.92 432.006 1144.38 436.661C1132.64 430.314 1120.79 424.602 1108.63 419.419C1106.73 423.967 1104.82 428.41 1102.92 432.958C1116.67 438.882 1130.21 445.546 1143.43 452.951C1140.79 457.605 1138.14 462.259 1135.5 466.913C1115.82 455.807 1095.3 446.498 1074.25 438.988C1082.71 415.399 1091.07 391.705 1099.53 368.116H1099.43Z" fill="#3C4043"/>
<path d="M1194.41 414.662C1206.47 422.384 1218.32 430.846 1229.85 439.732C1244.34 451.05 1253.02 463.109 1255.87 474.321C1258.83 485.639 1255.87 495.371 1247.62 503.516L1245.4 505.737C1237.15 513.882 1227.73 516.95 1217.16 515.575C1206.58 514.2 1195.68 508.593 1183.52 499.073C1173.89 491.563 1163.95 484.476 1153.79 478.023C1167.33 456.868 1180.77 435.818 1194.31 414.662H1194.41ZM1192.83 486.38C1198.86 491.034 1204.36 493.467 1209.75 493.573C1215.15 493.573 1220.12 491.14 1224.67 485.957C1225.2 485.428 1225.62 484.793 1226.15 484.264C1230.8 478.975 1232.6 473.475 1231.44 467.974C1230.17 462.474 1226.25 456.974 1219.59 451.79C1216.2 449.146 1212.71 446.501 1209.22 443.963C1200.65 455.704 1191.98 467.446 1183.41 479.187C1186.59 481.514 1189.65 483.841 1192.83 486.274V486.38Z" fill="#3C4043"/>
<circle cx="946" cy="824" r="370" stroke="#FF6D7F" stroke-width="10" stroke-linejoin="round" stroke-dasharray="20 20"/>
<path d="M607.061 952.24C607.061 934.285 608.152 917.024 610.235 900.557C625.908 892.819 641.78 886.669 657.752 882.007C658.942 881.709 660.232 881.312 661.521 881.114C662.811 880.816 664.001 880.717 665.192 880.816C665.192 880.717 665.192 880.618 665.192 880.419C664.1 880.023 663.009 879.527 661.918 878.931C660.827 878.336 659.736 877.642 658.843 876.749C646.344 865.639 634.44 853.536 623.032 840.64C627.992 824.57 634.142 809.392 641.086 795.108C657.752 794.612 674.12 795.306 690.19 797.191C691.479 797.29 692.67 797.588 693.86 798.084C695.051 798.58 696.142 799.076 697.233 799.572C697.233 799.472 697.332 799.373 697.431 799.175C696.539 798.381 695.646 797.588 694.654 796.695C693.662 795.802 692.868 794.81 692.273 793.719C683.742 779.434 676.004 764.455 669.259 748.881C676.401 739.159 684.139 730.033 692.273 721.501C699.911 748.186 710.427 773.383 723.223 796.695C716.081 806.714 709.732 817.527 704.078 829.034C688.107 827.744 671.838 827.645 655.371 828.736C654.081 828.736 652.792 828.736 651.502 828.538C650.212 828.339 649.022 827.943 648.03 827.546C648.03 827.744 647.931 827.943 647.832 828.042C648.824 828.439 649.915 829.034 651.105 829.728C652.196 830.423 653.188 831.315 654.081 832.307C664.993 845.501 676.6 857.802 688.702 869.21C684.833 882.502 681.956 896.589 680.071 911.37C655.172 920.794 630.571 934.285 607.061 952.24Z" fill="#3C4043"/>
<path d="M739.088 681.423C749.008 674.479 759.424 668.229 770.039 662.476C799.302 673.884 825.59 688.763 848.307 706.223C837.891 709.695 827.674 713.762 817.754 718.424C804.262 709.397 789.879 701.163 774.503 693.922C772.816 693.128 771.031 692.136 769.146 691.144C767.261 690.053 765.773 689.061 764.781 687.871C764.583 687.97 764.384 688.168 764.087 688.267C764.583 689.855 764.979 691.739 765.277 693.723C765.575 695.707 765.674 697.592 765.575 699.378C765.277 716.143 766.467 732.709 768.848 748.68C761.21 754.731 753.869 761.378 746.925 768.421C740.279 740.843 737.501 711.579 738.989 681.423H739.088ZM754.464 725.071C769.543 713.464 785.712 703.544 802.675 695.311C807.238 698.584 811.702 701.957 816.067 705.33C795.434 714.655 775.991 726.559 758.333 740.943C756.944 735.685 755.655 730.427 754.464 725.071Z" fill="#3C4043"/>
<path d="M845.527 633.212C864.871 628.152 884.612 624.78 904.452 622.994C923.3 621.308 938.279 623.292 948.695 627.458C959.21 631.724 963.773 638.172 963.079 646.405C962.385 654.639 956.929 660.293 947.405 663.964C937.783 667.733 925.185 669.717 909.313 671.106C903.46 671.602 897.607 672.296 891.754 673.189C892.945 680.53 894.135 687.771 895.326 695.112C885.108 696.6 875.089 698.683 865.169 701.263C858.622 678.546 852.075 655.928 845.527 633.212ZM906.138 656.722C913.479 656.028 918.737 654.936 922.01 653.349C925.284 651.663 926.871 649.183 926.871 645.81C926.772 642.536 924.986 640.156 921.316 638.866C917.745 637.576 911.991 637.18 904.154 637.874C898.202 638.469 892.25 639.164 886.298 640.056C887.29 646.306 888.382 652.556 889.374 658.805C894.929 658.012 900.583 657.317 906.138 656.722ZM898.202 663.17C910.801 661.484 923.498 660.591 936.196 660.392C947.505 670.908 957.524 681.919 966.353 693.327C954.746 692.235 943.14 691.739 931.533 692.037C921.613 681.82 910.404 672.197 898.202 663.17Z" fill="#3C4043"/>
<path d="M1002.47 627.159C1023.4 630.929 1043.94 636.484 1063.88 643.825C1081.14 650.273 1093.04 658.209 1099.69 666.145C1106.43 674.081 1107.03 681.818 1102.46 689.159C1097.9 696.401 1090.76 699.377 1081.24 698.881C1071.71 698.385 1060.01 694.813 1045.23 689.357C1038.68 686.977 1032.13 684.794 1025.49 682.81C1023.2 689.754 1021.02 696.698 1018.74 703.642C1008.92 700.765 998.9 698.385 988.781 696.599C993.344 673.485 998.007 650.372 1002.57 627.258L1002.47 627.159ZM1046.52 674.081C1053.46 676.561 1058.72 677.85 1062.39 677.751C1066.16 677.652 1068.74 676.065 1070.22 672.989C1071.71 669.914 1071.12 667.037 1068.54 664.26C1065.96 661.581 1060.9 658.705 1053.56 656.026C1047.71 653.943 1041.85 652.058 1035.9 650.273C1033.92 656.423 1031.93 662.573 1029.95 668.625C1035.5 670.212 1041.06 671.997 1046.52 673.981V674.081Z" fill="#3C4043"/>
<path d="M1143.63 686.781C1172.4 708.01 1197.8 734.496 1218.03 766.141C1213.77 769.018 1209.5 771.795 1205.24 774.672C1192.94 755.427 1178.55 738.067 1162.68 722.89C1159.9 725.767 1157.13 728.644 1154.25 731.421C1167.44 744.119 1179.55 758.205 1190.26 773.779C1186.19 776.656 1182.12 779.533 1177.96 782.509C1167.84 767.728 1156.33 754.237 1143.73 742.234C1140.46 745.607 1137.19 748.88 1133.91 752.253C1148 765.744 1160.7 781.12 1171.51 798.282C1167.24 801.059 1162.98 803.936 1158.71 806.714C1142.74 781.517 1122.6 760.387 1099.69 743.523C1114.27 724.676 1128.95 705.828 1143.54 686.88L1143.63 686.781Z" fill="#3C4043"/>
<path d="M1236.28 799.17C1245.11 817.919 1252.45 838.156 1257.81 859.881C1264.55 887.26 1263.96 911.167 1259.1 927.634C1254.24 944.299 1245.61 952.434 1234.79 952.335H1231.82C1220.91 952.335 1212.77 944.696 1206.13 931.701C1199.48 918.706 1194.82 901.048 1189.46 879.621C1185.19 862.559 1179.54 846.588 1172.6 831.906C1193.82 820.994 1215.05 810.182 1236.28 799.27V799.17ZM1203.55 874.661C1206.22 885.375 1209.3 893.708 1213.47 899.263C1217.63 904.917 1222.79 907.397 1229.24 906.405C1229.93 906.306 1230.63 906.207 1231.32 906.108C1237.87 905.116 1242.43 900.85 1244.42 893.311C1246.5 885.772 1246.2 875.455 1243.13 863.055C1241.54 856.706 1239.75 850.457 1237.87 844.306C1224.87 848.969 1211.88 853.631 1198.98 858.293C1200.67 863.65 1202.16 869.007 1203.55 874.562V874.661Z" fill="#3C4043"/>
<path d="M1175.01 929.643C1175.89 936.405 1176.48 943.256 1176.78 950.185L1171.78 950.398C1171.93 953.747 1172 957.115 1172 960.5C1172 963.885 1171.93 967.253 1171.78 970.602L1176.78 970.816C1176.48 977.744 1175.89 984.595 1175.01 991.357L1170.05 990.712C1169.18 997.432 1168.02 1004.06 1166.58 1010.58L1171.46 1011.66C1169.98 1018.41 1168.21 1025.05 1166.16 1031.57L1161.39 1030.07C1159.36 1036.52 1157.06 1042.85 1154.51 1049.04L1159.13 1050.95C1156.49 1057.32 1153.59 1063.56 1150.42 1069.64L1145.99 1067.33C1142.88 1073.31 1139.51 1079.14 1135.91 1084.81L1140.13 1087.49C1136.43 1093.3 1132.49 1098.93 1128.32 1104.38L1124.35 1101.34C1120.25 1106.69 1115.93 1111.85 1111.39 1116.81L1115.08 1120.19C1110.45 1125.26 1105.59 1130.13 1100.53 1134.78L1097.15 1131.1C1092.2 1135.66 1087.05 1139.99 1081.72 1144.11L1084.77 1148.07C1079.33 1152.26 1073.71 1156.21 1067.91 1159.93L1065.22 1155.72C1059.56 1159.34 1053.74 1162.72 1047.77 1165.84L1050.09 1170.27C1044.01 1173.45 1037.79 1176.37 1031.42 1179.02L1029.5 1174.4C1023.31 1176.98 1016.99 1179.29 1010.55 1181.32L1012.06 1186.09C1005.54 1188.15 998.901 1189.94 992.154 1191.43L991.072 1186.55C984.55 1187.99 977.924 1189.16 971.207 1190.04L971.856 1195C965.095 1195.88 958.244 1196.48 951.315 1196.78L951.1 1191.78C947.752 1191.93 944.384 1192 941 1192C937.615 1192 934.248 1191.93 930.9 1191.78L930.685 1196.78C923.756 1196.48 916.905 1195.88 910.144 1195L910.793 1190.04C904.076 1189.16 897.45 1187.99 890.927 1186.55L889.846 1191.43C883.099 1189.94 876.46 1188.15 869.943 1186.09L871.45 1181.32C865.007 1179.29 858.686 1176.98 852.501 1174.4L850.581 1179.02C844.213 1176.37 837.986 1173.45 831.914 1170.27L834.232 1165.84C828.258 1162.72 822.437 1159.34 816.784 1155.72L814.088 1159.93C808.291 1156.21 802.668 1152.26 797.231 1148.07L800.284 1144.11C794.952 1139.99 789.803 1135.66 784.854 1131.1L781.469 1134.78C776.41 1130.13 771.554 1125.26 766.917 1120.19L770.608 1116.81C766.072 1111.85 761.749 1106.69 757.654 1101.34L753.684 1104.38C749.511 1098.93 745.569 1093.3 741.873 1087.49L746.091 1084.81C742.487 1079.14 739.123 1073.31 736.011 1067.33L731.575 1069.64C728.414 1063.56 725.509 1057.32 722.874 1050.95L727.495 1049.04C724.936 1042.85 722.637 1036.52 720.612 1030.07L715.842 1031.57C713.795 1025.05 712.021 1018.41 710.536 1011.66L715.419 1010.58C713.984 1004.06 712.823 997.432 711.949 990.712L706.991 991.357C706.111 984.595 705.517 977.744 705.22 970.815L710.216 970.602C710.072 967.253 710 963.885 710 960.5C710 957.115 710.072 953.747 710.216 950.398L705.22 950.184C705.517 943.256 706.111 936.405 706.991 929.643L711.949 930.288C712.823 923.568 713.984 916.94 715.419 910.416L710.536 909.341C712.021 902.592 713.795 895.95 715.842 889.43L720.612 890.928C722.637 884.48 724.936 878.153 727.495 871.962L722.874 870.052C725.509 863.678 728.414 857.444 731.575 851.365L736.011 853.671C739.123 847.688 742.487 841.857 746.091 836.194L741.873 833.51C745.569 827.702 749.511 822.066 753.684 816.618L757.654 819.659C761.749 814.313 766.072 809.151 770.608 804.188L766.917 800.815C771.554 795.74 776.41 790.869 781.469 786.216L784.854 789.896C789.804 785.344 794.952 781.005 800.284 776.895L797.231 772.935C802.668 768.744 808.291 764.785 814.088 761.073L816.784 765.284C822.437 761.663 828.258 758.283 834.232 755.156L831.914 750.726C837.986 747.549 844.213 744.629 850.581 741.98L852.501 746.596C858.686 744.023 865.007 741.712 871.45 739.676L869.943 734.908C876.46 732.849 883.099 731.065 889.846 729.571L890.928 734.452C897.45 733.008 904.076 731.84 910.793 730.961L910.144 726.003C916.905 725.118 923.756 724.52 930.685 724.222L930.9 729.217C934.248 729.073 937.616 729 941 729C944.385 729 947.752 729.073 951.1 729.217L951.315 724.222C958.244 724.52 965.095 725.118 971.856 726.003L971.207 730.961C977.924 731.84 984.55 733.008 991.073 734.452L992.154 729.571C998.901 731.065 1005.54 732.849 1012.06 734.908L1010.55 739.676C1016.99 741.712 1023.31 744.023 1029.5 746.596L1031.42 741.98C1037.79 744.629 1044.01 747.549 1050.09 750.726L1047.77 755.156C1053.74 758.283 1059.56 761.663 1065.22 765.284L1067.91 761.073C1073.71 764.785 1079.33 768.744 1084.77 772.935L1081.72 776.895C1087.05 781.005 1092.2 785.344 1097.15 789.896L1100.53 786.216C1105.59 790.869 1110.45 795.74 1115.08 800.815L1111.39 804.188C1115.93 809.151 1120.25 814.313 1124.35 819.659L1128.32 816.618C1132.49 822.066 1136.43 827.702 1140.13 833.51L1135.91 836.194C1139.51 841.857 1142.88 847.688 1145.99 853.671L1150.42 851.365C1153.59 857.444 1156.49 863.678 1159.13 870.052L1154.51 871.962C1157.06 878.153 1159.36 884.48 1161.39 890.928L1166.16 889.43C1168.21 895.95 1169.98 902.592 1171.46 909.341L1166.58 910.416C1168.02 916.94 1169.18 923.568 1170.05 930.288L1175.01 929.643Z" stroke="#FF6D7F" stroke-width="10" stroke-linejoin="round" stroke-dasharray="20 20"/>
</g>
</svg>
