<svg xmlns="http://www.w3.org/2000/svg" width="1920" height="1080" fill="none"><g clip-path="url(#a)"><mask id="c" width="1820" height="645" x="50" y="483" maskUnits="userSpaceOnUse" style="mask-type:alpha"><path fill="url(#b)" d="M50 483h1820v645H50z"/></mask><g fill="#D2E3FC" mask="url(#c)"><path d="M311 817.498s73.5-140.5 244.5-169.5 284.5 43 428 62.5 211.5-39.5 375 0 236 223.5 236 223.5l82 245.002H1520l-60.5-164S1425 899.498 1321 866.498c-104-33-156.5 34.061-315.5 11.5-159-22.56-284-81-394-79s-180.5 112-180.5 112L311 1109H132l179-291.502Z"/><path d="M1325.49 719.999S1451.55 613.788 1572 566.5c120.45-47.288 357-126.499 357-126.499v137.997s-210.07 65.142-269.81 93.137c-59.74 27.995-186.28 100.754-186.28 100.754l-147.42-51.89ZM-5.647 516s-33.718-2.952 270.464 152.799C569 824.55 831.502 1100 831.502 1100h-208S388.5 886.999 259.695 818.742C130.889 750.485-5.647 657.974-5.647 657.974V516Z"/></g><mask id="e" width="1820" height="645" x="50" y="50" maskUnits="userSpaceOnUse" style="mask-type:alpha"><path fill="url(#d)" d="M50 50h1820v645H50z"/></mask><g fill="#D2E3FC" mask="url(#e)"><path d="M311 384.498s73.5-140.5 244.5-169.5 284.5 43 428 62.5 211.5-39.5 375 0 236 223.5 236 223.5l82 245H1520l-60.5-164s-34.5-115.5-138.5-148.5-156.5 34.061-315.5 11.5c-159-22.56-284-81-394-79s-180.5 112-180.5 112L311 676H132l179-291.502Z"/><path d="M1325.49 286.999S1451.55 180.788 1572 133.5C1692.45 86.212 1929 7 1929 7v137.998s-210.07 65.142-269.81 93.137c-59.74 27.995-186.28 100.754-186.28 100.754l-147.42-51.89ZM-5.647 83s-33.718-2.952 270.464 152.799C569 391.55 831.502 667 831.502 667h-208S388.5 453.999 259.695 385.742C130.889 317.485-5.647 224.974-5.647 224.974V83Z"/></g><path fill="#3C4043" d="M395.669 831.324c-10.108-8.309-15.933-17.389-17.304-27.24-1.371-9.851 1.114-18.76 7.538-26.555 6.425-7.881 13.62-12.25 21.587-13.192 7.967-.943 14.991 1.113 21.073 6.082l.428.342-7.11 8.738-.428-.343c-4.198-3.426-8.823-4.968-13.792-4.454-4.968.428-9.765 3.426-14.305 8.994-4.455 5.397-6.082 11.565-4.797 18.332 1.199 6.853 5.996 13.706 14.391 20.559l4.197 3.426c7.71 6.339 15.248 9.594 22.529 9.68 7.282.086 13.107-2.484 17.561-7.967 4.283-5.225 6.082-10.279 5.482-15.247-.599-4.969-2.826-9.338-6.596-13.107l-.428-.428 7.11-8.652.428.429c5.568 5.568 8.738 12.163 9.68 19.873.942 7.71-1.799 15.419-8.223 23.3-6.425 7.881-14.649 12.078-24.585 12.592-9.937.6-19.959-3.341-30.153-11.65l-4.198-3.426-.085-.086ZM446.547 751.574l9.166-5.825 21.415 33.665c2.656 4.112 5.482 6.51 8.481 7.11 2.998.6 6.253-.171 9.679-2.398 2.913-1.885 4.969-4.284 6.254-7.282 1.199-2.998 1.713-6.167 1.37-9.422l-23.385-36.749 9.165-5.825 33.066 51.996-8.309 5.311-4.626-6.424-.343.171a23.174 23.174 0 0 1-3.341 10.022c-1.798 3.084-4.368 5.74-7.709 7.796-5.225 3.34-10.365 4.54-15.334 3.512-5.054-1.028-9.765-4.969-14.219-11.993l-21.33-33.579v-.086ZM519.609 709.432l9.68-1.713 1.799 7.71h.343c1.713-3.17 3.94-5.74 6.681-7.881 2.741-2.142 5.997-3.512 9.766-4.198 4.111-.685 7.709-.513 10.964.6 3.256 1.114 5.911 3.341 8.138 6.682h.343c1.884-4.112 4.283-7.196 7.11-9.337 2.827-2.142 6.167-3.598 10.194-4.283 6.339-1.114 11.564-.172 15.676 2.655 4.111 2.827 6.938 8.395 8.309 16.533l6.767 39.233-10.708 1.884-6.767-39.318c-.856-4.883-2.484-8.138-4.883-9.851-2.398-1.714-5.568-2.313-9.337-1.628-3.34.6-6.082 1.97-8.223 4.283-2.142 2.227-3.684 4.968-4.712 8.138l7.367 42.916-10.707 1.885-6.768-39.319c-.856-4.882-2.484-8.138-4.882-9.851-2.399-1.713-5.568-2.313-9.338-1.627-3.34.599-6.082 1.97-8.223 4.283-2.142 2.313-3.683 4.968-4.711 8.138l7.366 42.916-10.707 1.885-10.451-60.735h-.086ZM635.687 669.086l10.879 1.028-3.426 35.464c2.056-2.313 4.626-4.198 7.795-5.397 3.17-1.285 6.853-1.628 11.136-1.285 7.795.771 13.706 4.283 17.818 10.536 4.111 6.254 5.739 13.878 4.882 22.786l-.171 1.885c-.857 8.909-3.94 16.104-9.166 21.501-5.225 5.397-11.735 7.71-19.531 6.939-4.283-.429-7.88-1.628-10.964-3.77-2.998-2.141-5.226-4.454-6.511-7.195h-.342l-1.199 7.881-9.766-.943L635.773 669l-.086.086Zm9.166 80.265c2.484 2.398 5.739 3.769 9.594 4.111 5.825.6 10.28-1.113 13.449-5.139 3.084-3.941 4.968-9.08 5.568-15.334l.171-1.884c.6-6.254-.257-11.565-2.569-16.105-2.313-4.54-6.425-7.024-12.25-7.624-3.855-.342-7.281.343-10.194 2.228-2.912 1.884-5.14 4.111-6.596 6.681l-2.398 24.928c.942 2.827 2.655 5.482 5.225 7.881v.257ZM695.644 734.444c1.884-9.08 5.91-16.018 12.078-20.815 6.168-4.712 13.363-6.254 21.587-4.626 8.223 1.713 13.963 5.653 17.303 11.992 3.341 6.339 4.026 14.049 2.142 23.215l-.857 4.369-46.428-9.509 1.713-8.48 35.635 7.281.257-1.371c.857-4.369.428-8.309-1.456-11.907-1.885-3.598-5.14-5.825-9.766-6.767-5.653-1.199-10.365.086-13.962 3.855-3.684 3.769-6.168 8.737-7.453 14.905l-.343 1.799c-1.285 6.253-.856 11.821 1.2 16.704 2.056 4.883 6.167 7.966 12.421 9.251 3.854.771 7.281.6 10.365-.514 3.084-1.113 5.739-2.655 7.966-4.625l5.74 6.853c-2.485 2.484-5.997 4.54-10.537 6.167-4.54 1.628-9.594 1.885-15.333.685-9.337-1.884-15.933-6.253-19.788-13.106-3.769-6.767-4.797-14.734-2.913-23.899l.343-1.799.086.342ZM769.146 719.795l9.508 2.398-1.456 7.796h.343a24.459 24.459 0 0 1 7.623-4.969c2.913-1.285 6.082-1.456 9.509-.599.856.171 1.713.514 2.57.942.856.428 1.456.771 1.799 1.028l-2.399 9.765a14.485 14.485 0 0 0-2.313-.942 57.925 57.925 0 0 0-2.741-.771c-3.426-.857-6.51-.685-9.337.514s-5.14 2.998-6.939 5.311l-10.45 42.06-10.537-2.656 14.905-59.791-.085-.086ZM817.03 702.746l10.537 2.741-22.701 87.033-10.536-2.742 22.7-87.032ZM834.174 766.394c5.654-2.141 12.25-2.227 19.617-.257l13.534 3.512 1.028-4.112c.943-3.597.771-6.767-.514-9.508-1.285-2.741-4.197-4.711-8.737-5.825-4.54-1.199-8.052-1.028-10.451.257-2.398 1.371-3.94 3.255-4.626 5.739v.257l-10.536-2.741v-.257c1.285-4.711 4.454-8.309 9.594-10.708 5.14-2.484 11.308-2.741 18.503-.856 7.196 1.884 12.335 5.054 15.334 9.508 3.083 4.455 3.683 10.108 1.97 16.876l-7.024 27.24c-.686 2.484-1.028 4.797-1.285 7.11-.172 2.313-.172 4.283.085 6.168l-.257.942-10.193-2.656c-.257-1.113-.429-2.484-.514-4.026 0-1.627 0-3.169.342-4.711-2.056 2.056-4.882 3.683-8.48 4.797-3.598 1.114-7.881 1.028-12.764-.257-5.654-1.456-10.108-4.283-13.192-8.566-3.084-4.283-3.94-9.423-2.313-15.419 1.542-6.082 5.226-10.108 10.879-12.25v-.257Zm.686 23.214c1.456 2.399 4.283 4.198 8.395 5.311 4.197 1.028 8.309.6 12.42-1.37 4.112-1.97 6.596-4.626 7.367-7.795l2.228-8.567-12.336-3.169c-5.311-1.371-9.508-1.371-12.763-.086-3.255 1.285-5.311 3.684-6.168 7.025-.857 3.426-.6 6.339.857 8.737v-.086ZM898.927 753.292l9.594 2.141-1.284 7.795h.342c2.741-2.141 5.911-3.769 9.423-4.625 3.512-.857 7.11-.857 10.965 0 6.082 1.37 10.536 4.197 13.363 8.395 2.827 4.283 3.341 10.45 1.542 18.503l-8.738 38.804-10.622-2.398 8.738-38.891c1.028-4.797.771-8.48-.942-11.05-1.714-2.57-4.541-4.283-8.481-5.14-3.426-.771-6.596-.514-9.594.686-2.998 1.199-5.568 3.169-7.624 5.739l-9.508 42.488-10.622-2.398 13.534-60.135-.086.086ZM955.199 796.381c1.285-8.909 4.711-15.848 10.194-20.988 5.482-5.139 12.078-7.109 19.788-5.91 4.283.599 7.795 1.884 10.536 3.94 2.741 1.97 4.883 4.369 6.253 7.11l5.23-35.207 10.79 1.628-13.19 89.002-9.768-1.456.685-7.967h-.343c-1.884 2.228-4.625 4.027-8.052 5.311-3.426 1.285-7.281 1.628-11.564 1.028-7.71-1.113-13.449-4.968-17.218-11.478-3.769-6.511-4.969-14.134-3.684-23.043l.257-1.885.086-.085Zm12.507 19.702c2.056 4.625 5.996 7.367 11.821 8.223 3.855.6 7.281 0 10.365-1.713 2.998-1.713 5.311-3.855 6.939-6.339l3.679-24.756c-.767-2.913-2.394-5.568-4.793-8.138-2.398-2.484-5.482-4.112-9.337-4.626-5.825-.856-10.365.6-13.706 4.455-3.341 3.769-5.482 8.823-6.339 14.99l-.257 1.885c-.942 6.168-.343 11.564 1.713 16.19l-.085-.171ZM1058.94 754.488l28.19-1.285c9.33-.428 16.7 1.627 21.93 6.082 5.22 4.454 8.05 10.622 8.39 18.417.34 7.795-1.88 14.22-6.68 19.188-4.8 4.969-11.91 7.71-21.25 8.138l-16.96.771 1.46 33.323-11.22.514-3.86-85.148Zm30.07 41.289c6.6-.343 11.22-2.142 13.71-5.483 2.48-3.34 3.68-7.452 3.42-12.078-.17-4.711-1.71-8.566-4.54-11.65-2.82-3.084-7.54-4.454-14.13-4.112l-16.96.771 1.54 33.323 16.96-.771ZM1122.94 744.719l10.71-1.97 16.27 88.489-10.7 1.97-16.28-88.489ZM1166.27 793.204c4.2-4.455 9.94-7.367 17.48-8.909l13.62-2.827-.86-4.112c-.77-3.597-2.31-6.424-4.62-8.309-2.32-1.884-5.83-2.398-10.37-1.37-4.62.942-7.62 2.569-9.25 4.882-1.63 2.313-2.14 4.712-1.63 7.196v.257l-10.53 2.227v-.257c-1.03-4.797.25-9.423 3.77-13.877 3.51-4.455 8.91-7.453 16.19-8.909 7.28-1.542 13.27-.942 17.99 1.713 4.71 2.656 7.79 7.453 9.16 14.306l5.74 27.497c.51 2.484 1.2 4.797 2.06 6.939.85 2.141 1.8 3.94 2.82 5.482l.17.942-10.36 2.142c-.69-.857-1.46-1.97-2.23-3.427-.77-1.456-1.37-2.912-1.8-4.454-.85 2.827-2.74 5.482-5.48 7.967-2.74 2.569-6.59 4.368-11.56 5.396-5.74 1.2-10.97.6-15.68-1.884-4.71-2.399-7.62-6.682-8.91-12.764-1.28-6.082.17-11.393 4.28-15.762v-.085Zm10.88 20.473c2.4 1.542 5.66 1.884 9.94 1.028 4.2-.857 7.71-3.084 10.54-6.767 2.82-3.598 3.85-7.025 3.17-10.28l-1.8-8.652-12.51 2.57c-5.31 1.114-9.16 2.998-11.48 5.568-2.31 2.57-3.17 5.568-2.48 9.08.68 3.427 2.23 5.911 4.62 7.453ZM1225.13 783.186c0-9.251 2.49-16.875 7.54-22.786 5.05-5.911 11.99-8.909 20.82-8.909 8.22 0 14.39 2.142 18.67 6.596 4.28 4.455 6.43 9.337 6.43 14.82v.257h-10.54v-.257c0-3.341-1.2-6.254-3.51-8.824-2.32-2.484-6-3.769-11.05-3.769-5.91 0-10.28 2.228-13.11 6.596-2.83 4.369-4.2 9.766-4.2 16.105v1.884c0 6.339 1.46 11.736 4.29 16.105 2.82 4.368 7.19 6.596 13.1 6.51 5.06 0 8.74-1.285 11.05-3.855 2.32-2.57 3.43-5.482 3.43-8.823v-.257h10.54v.257c0 5.482-2.15 10.451-6.34 14.82-4.29 4.454-10.45 6.681-18.68 6.681-8.91 0-15.85-2.912-20.9-8.823-5.05-5.911-7.62-13.449-7.62-22.786v-1.885l.08.343ZM1290.31 784.297c2.14-8.994 6.43-15.847 12.77-20.302 6.34-4.54 13.62-5.825 21.75-3.855 8.14 1.971 13.8 6.168 16.88 12.593 3.08 6.424 3.51 14.22 1.37 23.3l-1.03 4.283-46.08-11.136 2.05-8.395 35.38 8.566.34-1.37c1.03-4.369.69-8.31-1.02-11.907-1.72-3.598-4.89-5.997-9.51-7.11-5.66-1.371-10.37-.257-14.14 3.34-3.77 3.598-6.42 8.481-7.96 14.649l-.43 1.798c-1.46 6.168-1.29 11.736.6 16.705 1.88 4.968 5.91 8.223 12.08 9.679 3.77.943 7.28.857 10.36-.085 3.17-1.028 5.83-2.485 8.14-4.283l5.48 7.024c-2.57 2.398-6.17 4.369-10.71 5.825-4.54 1.542-9.68 1.542-15.42.171-9.33-2.227-15.67-6.853-19.27-13.791-3.6-6.939-4.28-14.906-2.06-23.9l.43-1.799ZM396.042 404.849c-10.108-8.31-15.933-17.39-17.304-27.241-1.371-9.851 1.114-18.76 7.538-26.555 6.425-7.881 13.62-12.25 21.587-13.192 7.967-.942 14.991 1.114 21.073 6.082l.428.343-7.11 8.737-.428-.342c-4.198-3.427-8.823-4.969-13.792-4.455-4.968.428-9.765 3.427-14.305 8.995-4.455 5.396-6.082 11.564-4.797 18.331 1.199 6.853 5.996 13.706 14.391 20.559l4.197 3.427c7.71 6.339 15.248 9.594 22.529 9.679 7.282.086 13.107-2.484 17.561-7.966 4.283-5.226 6.082-10.28 5.482-15.248-.599-4.968-2.826-9.337-6.596-13.106l-.428-.429 7.11-8.651.428.428c5.568 5.568 8.738 12.164 9.68 19.873.942 7.71-1.799 15.42-8.223 23.3-6.425 7.881-14.649 12.079-24.585 12.593-9.937.599-19.959-3.341-30.153-11.65l-4.198-3.427-.085-.085ZM436.463 302.823l9.68-5.74 29.467 49.684c3.427 5.739 7.453 9.08 12.25 10.022 4.797.943 9.68 0 14.734-3.083 5.054-2.999 8.309-6.768 9.765-11.393 1.456-4.626.514-9.766-2.912-15.505l-29.468-49.684 9.68-5.739 29.467 49.684c4.969 8.394 6.082 16.19 3.427 23.471-2.656 7.281-7.71 13.02-15.077 17.475-7.366 4.369-14.905 5.996-22.529 4.883-7.623-1.114-13.962-5.911-18.931-14.306l-29.467-49.684-.086-.085ZM533.353 254.851l14.391-1.713 32.552 60.734a44.797 44.797 0 0 1 1.713 3.512c.514 1.199 1.028 2.399 1.542 3.512h.428c.172-1.285.429-2.484.686-3.855.257-1.284.514-2.569.856-3.769l17.732-66.559L617.644 245l9.937 84.634-10.793 1.285-7.11-61.077c-.171-1.199-.257-2.484-.428-3.941-.172-1.456-.172-2.741-.172-3.94h-.428a26.47 26.47 0 0 1-.6 4.112 36.944 36.944 0 0 1-.942 4.112l-16.961 63.903-9.68 1.114-31.181-58.25c-.599-1.114-1.199-2.399-1.884-3.769a59.89 59.89 0 0 1-1.542-3.855h-.428c.257 1.199.514 2.484.77 3.94.172 1.457.343 2.742.514 3.941l7.11 61.077-10.622 1.199-9.936-84.72.085.086ZM653.876 248.424l27.84 3.683c8.48 1.114 14.991 3.769 19.359 8.052 4.369 4.283 6.082 10.28 5.054 17.989-.599 4.626-2.313 8.224-5.054 10.879-2.741 2.57-5.91 4.283-9.594 5.054v.257c4.026 1.799 7.281 4.54 9.509 8.224 2.227 3.683 3.083 8.223 2.312 13.62-1.027 7.71-4.368 13.449-10.022 16.961-5.654 3.598-12.678 4.797-21.073 3.683l-29.639-3.94 11.136-84.548.172.086Zm19.702 79.237c5.825.771 10.279 0 13.277-2.485 3.084-2.398 4.883-5.91 5.483-10.536.599-4.626-.257-8.48-2.57-11.564-2.313-3.084-6.425-4.969-12.25-5.74l-18.674-2.484-4.026 30.324 18.674 2.485h.086Zm3.426-39.576c5.825.771 10.108.086 13.021-1.97 2.912-2.056 4.626-5.226 5.14-9.509.599-4.283-.257-7.709-2.57-10.279-2.227-2.656-6.254-4.283-12.079-5.054l-16.961-2.227-3.512 26.812 16.961 2.227ZM732.857 260.677l52.168 11.907-2.056 8.994-41.203-9.423-6.082 26.727 35.978 8.223-2.056 8.995-35.978-8.224-6.682 29.382 41.803 9.509-2.056 8.994-52.767-11.992 18.931-83.092ZM800.881 276.78l26.813 7.025c8.823 2.312 15.076 6.338 18.759 11.992 3.598 5.654 4.455 12.164 2.57 19.531-1.884 7.281-5.91 12.592-11.821 15.933-5.996 3.255-13.363 3.769-22.272 1.456l-16.019-4.197-8.823 33.665-10.879-2.827 21.587-82.492.085-.086Zm16.362 47.029c6.253 1.627 11.05 1.284 14.305-1.114 3.255-2.399 5.483-5.825 6.596-10.194 1.114-4.369.857-8.395-.771-11.992-1.713-3.598-5.653-6.168-11.907-7.881l-16.018-4.198-8.138 31.181 16.018 4.198h-.085Zm-1.371 4.368 11.222 1.2 11.136 45.315-12.078-3.17-10.194-43.345h-.086ZM870.424 295.108l10.879 2.742-18.417 73.754 39.233 9.766-2.228 8.994-50.112-12.506 20.645-82.75ZM954.64 314.132l9.937 1.884 15.59 90.459-11.479-2.227-10.793-67.673c-.171-1.37-.343-2.655-.514-3.94-.171-1.285-.171-2.57-.257-3.855h-.6a113.775 113.775 0 0 1-1.627 3.426c-.6 1.114-1.199 2.313-1.885 3.427l-35.464 58.764-11.05-2.142 48.142-78.123Zm-25.099 50.455 39.319 7.623 1.627 9.766-46.086-8.909 5.14-8.395v-.085ZM1002.35 323.727l11.65.856 34.17 62.362a73.286 73.286 0 0 1 1.97 3.683c.6 1.2 1.12 2.313 1.46 3.341h.43c0-1.113.08-2.484.17-3.94.09-1.457.17-2.741.26-3.941l4.19-58.421 10.97.771-6.17 85.062-11.65-.857-34.18-62.361c-.68-1.2-1.37-2.484-1.88-3.684a49.005 49.005 0 0 1-1.54-3.341h-.43c0 1.114-.09 2.485-.26 3.941 0 1.456-.17 2.741-.26 3.94l-4.19 58.422-10.968-.771 6.168-85.062h.09ZM1081.5 328.347l25.1-3.084c10.88-1.37 20.3 1.114 28.44 7.367 8.14 6.254 12.94 15.419 14.39 27.498l.69 5.311c1.45 12.078-.94 22.186-7.28 30.238-6.34 8.053-14.91 12.764-25.79 14.135l-25.1 3.083-10.53-84.633.08.085Zm34.44 72.299c8.14-1.028 14.31-4.54 18.42-10.451 4.19-5.996 5.65-13.706 4.45-23.3l-.68-5.311c-1.2-9.508-4.54-16.704-10.03-21.501-5.48-4.797-12.33-6.682-20.47-5.654l-13.96 1.713 8.22 66.217 13.96-1.713h.09ZM1194.48 307.02l28.1-2.57c9.34-.857 16.71.857 22.19 5.054 5.39 4.197 8.48 10.194 9.25 17.989.68 7.795-1.2 14.305-5.83 19.531-4.54 5.225-11.47 8.223-20.81 9.08l-16.88 1.542 3.09 33.237-11.22 1.027-7.8-84.89h-.09Zm31.96 39.918c6.59-.6 11.05-2.655 13.45-6.168 2.31-3.512 3.34-7.538 2.91-12.249-.43-4.626-2.14-8.481-5.06-11.393-2.91-2.913-7.71-4.112-14.3-3.512l-16.88 1.542 3.09 33.236 16.87-1.542-.08.086ZM1280.24 303.508l11.14 1.713-11.39 75.125 39.92 6.082-1.38 9.166-51.05-7.795 12.76-84.291Z"/><path fill="#3C4043" d="m1383.8 330.237 9.08 4.283-7.28 91.487-10.62-4.969 6.34-68.272c.08-1.371.26-2.655.51-3.94.17-1.285.43-2.485.77-3.769l-.51-.257a43.83 43.83 0 0 1-2.48 2.998c-.86.942-1.72 1.884-2.75 2.827l-48.91 48.141-10.19-4.797 65.96-63.818.08.086Zm-36.83 42.745 36.23 17.133-.85 9.851-42.41-20.045 7.11-6.939h-.08ZM1416.02 393.538c8.91-9.679 18.24-14.905 28.18-15.761 9.94-.857 18.59 2.141 26.13 8.994 7.45 6.853 11.48 14.306 11.9 22.272.52 7.967-1.97 14.905-7.28 20.645l-.43.428-8.31-7.624.43-.428c3.69-4.026 5.4-8.481 5.23-13.535-.17-5.054-2.91-9.937-8.14-14.734-5.14-4.711-11.14-6.681-18.07-5.825-6.94.857-14.05 5.226-21.33 13.192l-3.69 3.941c-6.76 7.367-10.36 14.648-10.96 21.929-.52 7.281 1.8 13.278 6.94 17.989 4.97 4.54 9.93 6.596 14.9 6.253 4.97-.342 9.51-2.313 13.45-5.825l.43-.428 8.31 7.624-.43.428c-5.83 5.226-12.59 8.052-20.39 8.566-7.71.514-15.33-2.655-22.78-9.594-7.46-6.853-11.23-15.248-11.23-25.27 0-9.937 4.46-19.788 13.28-29.468l3.6-3.94.26.171ZM1511.86 434.652l29.55 44.63-7.71 5.14-23.3-35.293-22.87 15.162 20.39 30.753-7.71 5.14-20.39-30.753-25.1 16.618 23.65 35.721-7.71 5.14-29.9-45.144 71.1-47.028v-.086Z"/></g><defs><linearGradient id="b" x1="960" x2="960" y1="483" y2="1128" gradientUnits="userSpaceOnUse"><stop offset=".016" stop-color="red" stop-opacity="0"/><stop offset=".49" stop-color="red"/><stop offset=".76" stop-color="red" stop-opacity="0"/></linearGradient><linearGradient id="d" x1="960" x2="960" y1="50" y2="695" gradientUnits="userSpaceOnUse"><stop offset=".016" stop-color="red" stop-opacity="0"/><stop offset=".49" stop-color="red"/><stop offset=".76" stop-color="red" stop-opacity="0"/></linearGradient><clipPath id="a"><path fill="#fff" d="M0 0h1920v1080H0z"/></clipPath></defs></svg>