<svg width="1920" height="1080" fill="none" xmlns="http://www.w3.org/2000/svg"><path d="M251.147 502v-39.055h18.98c24.382 0 36.427-15.987 36.427-34.675 0-18.761-11.461-33.945-36.427-33.945h-28.032V502h9.052Zm17.739-99.718c20.148 0 28.543 10.366 28.543 25.988 0 15.476-8.979 26.718-28.543 26.718h-17.739v-52.706h17.739Zm66.506-14.381h-8.906V502h8.906V387.901Zm96.391 89.79h-8.979c-.803 7.227-8.906 17.447-26.718 17.447-16.936 0-28.543-11.096-30.003-28.105h66.722c.073-.803.146-3.285.146-4.526 0-22.046-14.381-39.128-37.084-39.128-22.411 0-38.763 16.498-38.763 40.077 0 23.506 16.206 40.004 38.69 40.004 22.995 0 35.04-14.381 35.989-25.769Zm-35.77-46.136c17.082 0 26.864 12.775 27.302 27.375h-57.159c1.752-16.352 13.505-27.375 29.857-27.375Zm84.914 71.832c13.797 0 24.528-4.818 29.857-12.191.073 2.482.365 4.453.949 6.205.803 2.336 1.825 4.161 2.263 4.599h9.125c-.584-.584-1.679-2.263-2.555-5.037-.657-2.19-.876-5.402-.876-8.687v-40.369c0-15.768-14.235-24.528-32.631-24.528-20.367 0-34.018 10.001-34.018 26.791h8.906c0-12.264 9.271-18.542 25.039-18.542 15.111 0 23.579 5.84 23.579 15.841v1.022c0 4.672-7.957 6.205-27.74 8.176-19.272 1.898-31.317 8.979-31.317 23.725 0 14.6 11.461 22.995 29.419 22.995Zm1.387-8.103c-14.381 0-21.681-5.402-21.681-15.33 0-10.366 8.395-14.235 24.528-15.768 10.147-.949 19.491-2.263 25.404-4.599v13.87c0 13.797-12.483 21.827-28.251 21.827Zm88.472 8.103c17.885 0 31.755-7.592 31.755-21.754 0-14.308-12.41-19.199-29.565-22.338-14.235-2.628-23.579-5.694-23.579-14.965 0-9.125 10.658-12.848 21.535-12.848 10.95 0 21.097 4.161 21.097 14.746v1.314h9.052v-1.606c0-15.111-13.943-22.557-30.368-22.557-16.717 0-30.295 7.592-30.295 21.243 0 14.235 12.921 19.491 29.2 22.265 15.695 2.774 24.017 5.767 24.017 15.184 0 8.541-9.417 13.14-22.703 13.14-14.016 0-22.411-5.11-22.63-14.089v-2.19h-9.125c0 .657 0 1.679.073 2.555.292 14.016 12.848 21.9 31.536 21.9Zm124.196-25.696h-8.979c-.803 7.227-8.906 17.447-26.718 17.447-16.936 0-28.543-11.096-30.003-28.105h66.722c.073-.803.146-3.285.146-4.526 0-22.046-14.381-39.128-37.084-39.128-22.411 0-38.763 16.498-38.763 40.077 0 23.506 16.206 40.004 38.69 40.004 22.995 0 35.04-14.381 35.989-25.769Zm-35.77-46.136c17.082 0 26.864 12.775 27.302 27.375h-57.159c1.752-16.352 13.505-27.375 29.857-27.375Zm122.947 72.27c9.198 0 17.374-4.088 23.433-10.658V502h26.061V387.901h-26.061v45.187c-6.059-6.351-14.308-10.147-23.433-10.147-18.761 0-36.354 14.235-36.354 39.858 0 26.937 16.936 41.026 36.354 41.026Zm7.081-22.192c-8.614 0-16.571-5.767-16.571-18.834 0-12.994 7.957-18.469 16.571-18.469 8.03 0 16.352 5.694 16.352 15.987v4.891c0 10.366-8.103 16.425-16.352 16.425Zm97.736 22.119c25.696 0 43.362-16.571 43.362-40.442 0-23.944-17.666-40.369-43.362-40.369s-43.362 16.425-43.362 40.369c0 23.871 17.666 40.442 43.362 40.442Zm0-20.075c-10.366 0-16.936-8.03-16.936-20.367 0-12.41 6.57-20.221 16.936-20.221s16.936 7.811 16.936 20.221c0 12.337-6.57 20.367-16.936 20.367ZM942.725 502h25.988v-39.712c0-10.658 5.037-17.52 14.965-17.52 11.315 0 13.286 8.03 13.286 16.79V502h25.986v-48.034c0-18.323-7.95-31.025-27.373-31.025-11.242 0-20.951 5.037-26.864 13.578v-12.045h-25.988V502Zm163.205 1.752c5.33 0 9.42-1.022 11.53-1.898v-19.126c-1.46.584-4.81 1.46-8.17 1.46-6.13 0-6.79-4.526-6.79-10.731v-29.273h21.9v-19.71h-21.9v-25.477h-26.13v7.154c0 17.447-1.39 18.323-14.9 18.323h-2.7v19.71h17.6v36.281c0 20.659 16.93 23.287 29.56 23.287Zm102.59-.365c10.88 0 20.59-5.037 26.72-13.067V502h9.05V387.901h-9.05v48.326c-6.21-7.884-16.06-12.848-26.72-12.848-18.83 0-33.87 14.381-33.87 39.858 0 25.842 14.82 40.15 33.87 40.15Zm1.17-8.541c-14.97 0-25.77-10.731-25.77-31.609s10.73-31.609 25.77-31.609c13.58 0 25.55 10.95 25.55 24.163v14.235c0 13.87-11.76 24.82-25.55 24.82Zm94.05 8.468c22.77 0 38.83-17.155 38.83-40.15 0-23.068-16.06-39.712-38.83-39.712-22.78 0-38.84 16.644-38.84 39.712 0 22.995 16.06 40.15 38.84 40.15Zm0-8.249c-17.38 0-29.72-13.286-29.72-31.901 0-18.688 12.34-31.463 29.72-31.463 17.37 0 29.71 12.775 29.71 31.463 0 18.615-12.34 31.901-29.71 31.901Zm123.85 8.103c3.43 0 6.57-.584 8.17-1.241v-7.884c-1.38.584-4.3 1.168-7.01 1.168-7.22 0-9.27-5.183-9.27-14.016v-48.764h24.82v-7.957h-24.82v-25.039h-9.05v18.907c0 5.913-.14 6.132-5.25 6.132h-13.44v7.957h18.69v52.049c0 15.111 8.32 18.688 17.16 18.688Zm33.86-1.168h9.06v-47.669c0-12.191 10.51-22.411 25.25-22.411 14.6 0 21.54 8.76 21.54 24.674V502h8.98v-47.012c0-19.71-10.44-31.609-28.98-31.609-11.54 0-21.03 4.891-26.79 12.264v-47.742h-9.06V502Zm94.16-97.09c3.72 0 6.86-2.336 6.86-6.059 0-3.577-3.14-5.986-6.86-5.986-3.8 0-6.94 2.409-6.94 5.986 0 3.65 3.14 6.059 6.94 6.059Zm-4.53 97.09h8.91v-77.526h-8.91V502Zm62.52 1.387c17.89 0 31.76-7.592 31.76-21.754 0-14.308-12.41-19.199-29.57-22.338-14.23-2.628-23.58-5.694-23.58-14.965 0-9.125 10.66-12.848 21.54-12.848 10.95 0 21.09 4.161 21.09 14.746v1.314h9.06v-1.606c0-15.111-13.95-22.557-30.37-22.557-16.72 0-30.3 7.592-30.3 21.243 0 14.235 12.92 19.491 29.2 22.265 15.7 2.774 24.02 5.767 24.02 15.184 0 8.541-9.42 13.14-22.7 13.14-14.02 0-22.41-5.11-22.63-14.089v-2.19h-9.13c0 .657 0 1.679.08 2.555.29 14.016 12.84 21.9 31.53 21.9Zm58.5.438c4.09 0 7.3-3.212 7.3-7.3 0-4.015-3.21-7.3-7.3-7.3s-7.3 3.285-7.3 7.3c0 4.088 3.21 7.3 7.3 7.3Zm-1197.859 93.21v-19.71h-77.599v19.71h25.769V685h25.988v-87.965h25.842ZM487.045 685h25.988v-40.296c0-10.439 4.672-16.936 14.965-16.936 10.512 0 13.286 6.424 13.286 17.301V685h25.988v-47.45c0-19.856-8.833-31.609-27.959-31.609-11.388 0-20.659 4.599-26.28 12.556v-47.596h-25.988V685Zm107.058-88.403c7.811 0 14.673-4.161 14.673-11.753 0-7.592-6.862-11.753-14.673-11.753-7.884 0-14.673 4.161-14.673 11.753 0 7.519 6.789 11.753 14.673 11.753ZM581.255 685h25.769v-77.526h-25.769V685Zm73.453 1.825c17.812 0 37.157-6.935 37.157-25.623 0-17.593-19.71-21.973-31.755-23.871-9.198-1.46-15.841-3.066-15.841-6.935 0-4.234 6.351-5.402 10.585-5.402 4.891 0 10.366 2.117 10.366 7.008v.803h25.55v-.876c0-16.06-17.155-25.988-35.77-25.988-19.637 0-36.208 8.541-36.208 24.966 0 16.06 17.739 21.608 31.463 23.798 11.753 1.898 16.425 2.993 16.425 7.227 0 4.088-6.351 5.621-11.242 5.621-7.3 0-11.826-1.971-11.826-6.862v-.876H617.77v1.022c0 17.447 18.615 25.988 36.938 25.988Zm116.409-115.924h-25.623V685h25.623V570.901Zm43.201 0h-25.623V685h25.623V570.901Zm87.658 115.486c10.877 0 20.586-5.037 26.718-13.067V685h9.052V570.901h-9.052v48.326c-6.205-7.884-16.06-12.848-26.718-12.848-18.834 0-33.872 14.381-33.872 39.858 0 25.842 14.819 40.15 33.872 40.15Zm1.168-8.541c-14.965 0-25.769-10.731-25.769-31.609s10.731-31.609 25.769-31.609c13.578 0 25.55 10.95 25.55 24.163v14.235c0 13.87-11.753 24.82-25.55 24.82Zm94.048 8.468c22.778 0 38.838-17.155 38.838-40.15 0-23.068-16.06-39.712-38.838-39.712-22.776 0-38.836 16.644-38.836 39.712 0 22.995 16.06 40.15 38.836 40.15Zm0-8.249c-17.374 0-29.711-13.286-29.711-31.901 0-18.688 12.337-31.463 29.711-31.463 17.378 0 29.708 12.775 29.708 31.463 0 18.615-12.33 31.901-29.708 31.901ZM1093.89 685h9.05v-45.552c0-13.87 12.04-24.528 25.18-24.528 14.82 0 21.54 8.76 21.54 21.681V685h8.98v-50.589c0-17.739-11.32-28.032-28.91-28.032-10.66 0-20.88 5.402-26.79 13.943v-12.848h-9.05V685Zm94.01-97.09c3.72 0 6.86-2.336 6.86-6.059 0-3.577-3.14-5.986-6.86-5.986-3.8 0-6.94 2.409-6.94 5.986 0 3.65 3.14 6.059 6.94 6.059Zm-4.53 97.09h8.91v-77.526h-8.91V685Zm69.82 1.387c22.71 0 34.6-14.746 34.6-27.886h-8.97c-.37 9.855-8.4 19.637-25.7 19.637-15.77 0-29.64-10.95-29.64-31.901s13.94-31.609 29.64-31.609c13.8 0 24.09 7.738 25.55 18.25.07.584.15 1.241.15 1.752h8.97v-.438c0-12.629-12.92-27.813-34.6-27.813-21.31 0-38.91 14.6-38.91 39.858 0 25.258 17.6 40.15 38.91 40.15Zm127.17-25.696h-8.98c-.81 7.227-8.91 17.447-26.72 17.447-16.94 0-28.54-11.096-30-28.105h66.72c.07-.803.14-3.285.14-4.526 0-22.046-14.38-39.128-37.08-39.128-22.41 0-38.76 16.498-38.76 40.077 0 23.506 16.2 40.004 38.69 40.004 22.99 0 35.04-14.381 35.99-25.769Zm-35.77-46.136c17.08 0 26.86 12.775 27.3 27.375h-57.16c1.75-16.352 13.5-27.375 29.86-27.375Zm68.27-43.654h-8.91V685h8.91V570.901Zm25.8 146.511c16.71 0 22.55-12.118 26.93-24.82l29.49-85.118h-9.27l-22.41 67.525-22.7-67.525h-9.49l27.23 77.745-2.7 7.811c-3.07 8.833-7.59 16.571-17.6 16.571-2.7 0-5.98-.511-7.22-1.095v7.957c.73.365 4.16.949 7.74.949Zm72.47-30.587c4.09 0 7.3-3.212 7.3-7.3 0-4.015-3.21-7.3-7.3-7.3s-7.3 3.285-7.3 7.3c0 4.088 3.21 7.3 7.3 7.3Z" fill="#3C4043"/><path d="M1052.99 394.325h-18.39l2.04 38.471h14.31l2.04-38.471Z" fill="#FF6D7F"/><path d="M713.167 599.736c3.723 0 6.132-1.533 6.497-1.971-.146 5.621-8.614 11.972-15.33 14.819l2.993 6.059c10.366-4.453 23.141-13.286 23.141-27.74 0-10.147-5.402-17.155-15.038-17.155s-15.111 5.621-15.111 13.505c0 7.811 5.256 12.483 12.848 12.483Z" fill="#1A73E8"/></svg>