<svg width="1920" height="1080" viewBox="0 0 1920 1080" fill="none" xmlns="http://www.w3.org/2000/svg">
<rect width="1920" height="1080" fill="#F3F7FE"/>
<path d="M625.875 480V489.5H613.938V594H625.875V603.5H602.375V480H625.875ZM647.562 529.375V610H635.938V516.375H646.562L647.562 529.375ZM693.125 549.625V550.938C693.125 555.854 692.542 560.417 691.375 564.625C690.208 568.792 688.5 572.417 686.25 575.5C684.042 578.583 681.312 580.979 678.062 582.688C674.812 584.396 671.083 585.25 666.875 585.25C662.583 585.25 658.792 584.542 655.5 583.125C652.208 581.708 649.417 579.646 647.125 576.938C644.833 574.229 643 570.979 641.625 567.188C640.292 563.396 639.375 559.125 638.875 554.375V547.375C639.375 542.375 640.312 537.896 641.688 533.938C643.062 529.979 644.875 526.604 647.125 523.812C649.417 520.979 652.188 518.833 655.438 517.375C658.688 515.875 662.438 515.125 666.688 515.125C670.938 515.125 674.708 515.958 678 517.625C681.292 519.25 684.062 521.583 686.312 524.625C688.562 527.667 690.25 531.312 691.375 535.562C692.542 539.771 693.125 544.458 693.125 549.625ZM681.5 550.938V549.625C681.5 546.25 681.146 543.083 680.438 540.125C679.729 537.125 678.625 534.5 677.125 532.25C675.667 529.958 673.792 528.167 671.5 526.875C669.208 525.542 666.479 524.875 663.312 524.875C660.396 524.875 657.854 525.375 655.688 526.375C653.562 527.375 651.75 528.729 650.25 530.438C648.75 532.104 647.521 534.021 646.562 536.188C645.646 538.312 644.958 540.521 644.5 542.812V559C645.333 561.917 646.5 564.667 648 567.25C649.5 569.792 651.5 571.854 654 573.438C656.5 574.979 659.646 575.75 663.438 575.75C666.562 575.75 669.25 575.104 671.5 573.812C673.792 572.479 675.667 570.667 677.125 568.375C678.625 566.083 679.729 563.458 680.438 560.5C681.146 557.5 681.5 554.312 681.5 550.938ZM720.438 488V584H708.812V488H720.438ZM778.875 572.438V537.625C778.875 534.958 778.333 532.646 777.25 530.688C776.208 528.688 774.625 527.146 772.5 526.062C770.375 524.979 767.75 524.438 764.625 524.438C761.708 524.438 759.146 524.938 756.938 525.938C754.771 526.938 753.062 528.25 751.812 529.875C750.604 531.5 750 533.25 750 535.125H738.438C738.438 532.708 739.062 530.312 740.312 527.938C741.562 525.562 743.354 523.417 745.688 521.5C748.062 519.542 750.896 518 754.188 516.875C757.521 515.708 761.229 515.125 765.312 515.125C770.229 515.125 774.562 515.958 778.312 517.625C782.104 519.292 785.062 521.812 787.188 525.188C789.354 528.521 790.438 532.708 790.438 537.75V569.25C790.438 571.5 790.625 573.896 791 576.438C791.417 578.979 792.021 581.167 792.812 583V584H780.75C780.167 582.667 779.708 580.896 779.375 578.688C779.042 576.438 778.875 574.354 778.875 572.438ZM780.875 543L781 551.125H769.312C766.021 551.125 763.083 551.396 760.5 551.938C757.917 552.438 755.75 553.208 754 554.25C752.25 555.292 750.917 556.604 750 558.188C749.083 559.729 748.625 561.542 748.625 563.625C748.625 565.75 749.104 567.688 750.062 569.438C751.021 571.188 752.458 572.583 754.375 573.625C756.333 574.625 758.729 575.125 761.562 575.125C765.104 575.125 768.229 574.375 770.938 572.875C773.646 571.375 775.792 569.542 777.375 567.375C779 565.208 779.875 563.104 780 561.062L784.938 566.625C784.646 568.375 783.854 570.312 782.562 572.438C781.271 574.562 779.542 576.604 777.375 578.562C775.25 580.479 772.708 582.083 769.75 583.375C766.833 584.625 763.542 585.25 759.875 585.25C755.292 585.25 751.271 584.354 747.812 582.562C744.396 580.771 741.729 578.375 739.812 575.375C737.938 572.333 737 568.938 737 565.188C737 561.562 737.708 558.375 739.125 555.625C740.542 552.833 742.583 550.521 745.25 548.688C747.917 546.812 751.125 545.396 754.875 544.438C758.625 543.479 762.812 543 767.438 543H780.875ZM835.688 575.75C838.438 575.75 840.979 575.188 843.312 574.062C845.646 572.938 847.562 571.396 849.062 569.438C850.562 567.438 851.417 565.167 851.625 562.625H862.625C862.417 566.625 861.062 570.354 858.562 573.812C856.104 577.229 852.875 580 848.875 582.125C844.875 584.208 840.479 585.25 835.688 585.25C830.604 585.25 826.167 584.354 822.375 582.562C818.625 580.771 815.5 578.312 813 575.188C810.542 572.062 808.688 568.479 807.438 564.438C806.229 560.354 805.625 556.042 805.625 551.5V548.875C805.625 544.333 806.229 540.042 807.438 536C808.688 531.917 810.542 528.312 813 525.188C815.5 522.062 818.625 519.604 822.375 517.812C826.167 516.021 830.604 515.125 835.688 515.125C840.979 515.125 845.604 516.208 849.562 518.375C853.521 520.5 856.625 523.417 858.875 527.125C861.167 530.792 862.417 534.958 862.625 539.625H851.625C851.417 536.833 850.625 534.312 849.25 532.062C847.917 529.812 846.083 528.021 843.75 526.688C841.458 525.312 838.771 524.625 835.688 524.625C832.146 524.625 829.167 525.333 826.75 526.75C824.375 528.125 822.479 530 821.062 532.375C819.688 534.708 818.688 537.312 818.062 540.188C817.479 543.021 817.188 545.917 817.188 548.875V551.5C817.188 554.458 817.479 557.375 818.062 560.25C818.646 563.125 819.625 565.729 821 568.062C822.417 570.396 824.312 572.271 826.688 573.688C829.104 575.062 832.104 575.75 835.688 575.75ZM903.688 585.25C898.979 585.25 894.708 584.458 890.875 582.875C887.083 581.25 883.812 578.979 881.062 576.062C878.354 573.146 876.271 569.688 874.812 565.688C873.354 561.688 872.625 557.312 872.625 552.562V549.938C872.625 544.438 873.438 539.542 875.062 535.25C876.688 530.917 878.896 527.25 881.688 524.25C884.479 521.25 887.646 518.979 891.188 517.438C894.729 515.896 898.396 515.125 902.188 515.125C907.021 515.125 911.188 515.958 914.688 517.625C918.229 519.292 921.125 521.625 923.375 524.625C925.625 527.583 927.292 531.083 928.375 535.125C929.458 539.125 930 543.5 930 548.25V553.438H879.5V544H918.438V543.125C918.271 540.125 917.646 537.208 916.562 534.375C915.521 531.542 913.854 529.208 911.562 527.375C909.271 525.542 906.146 524.625 902.188 524.625C899.562 524.625 897.146 525.188 894.938 526.312C892.729 527.396 890.833 529.021 889.25 531.188C887.667 533.354 886.438 536 885.562 539.125C884.688 542.25 884.25 545.854 884.25 549.938V552.562C884.25 555.771 884.688 558.792 885.562 561.625C886.479 564.417 887.792 566.875 889.5 569C891.25 571.125 893.354 572.792 895.812 574C898.312 575.208 901.146 575.812 904.312 575.812C908.396 575.812 911.854 574.979 914.688 573.312C917.521 571.646 920 569.417 922.125 566.625L929.125 572.188C927.667 574.396 925.812 576.5 923.562 578.5C921.312 580.5 918.542 582.125 915.25 583.375C912 584.625 908.146 585.25 903.688 585.25ZM955.062 488V584H943.5V488H955.062ZM952.312 547.625L947.5 547.438C947.542 542.812 948.229 538.542 949.562 534.625C950.896 530.667 952.771 527.229 955.188 524.312C957.604 521.396 960.479 519.146 963.812 517.562C967.188 515.938 970.917 515.125 975 515.125C978.333 515.125 981.333 515.583 984 516.5C986.667 517.375 988.938 518.792 990.812 520.75C992.729 522.708 994.188 525.25 995.188 528.375C996.188 531.458 996.688 535.229 996.688 539.688V584H985.062V539.562C985.062 536.021 984.542 533.188 983.5 531.062C982.458 528.896 980.938 527.333 978.938 526.375C976.938 525.375 974.479 524.875 971.562 524.875C968.688 524.875 966.062 525.479 963.688 526.688C961.354 527.896 959.333 529.562 957.625 531.688C955.958 533.812 954.646 536.25 953.688 539C952.771 541.708 952.312 544.583 952.312 547.625ZM1010.94 550.938V549.5C1010.94 544.625 1011.65 540.104 1013.06 535.938C1014.48 531.729 1016.52 528.083 1019.19 525C1021.85 521.875 1025.08 519.458 1028.88 517.75C1032.67 516 1036.92 515.125 1041.62 515.125C1046.38 515.125 1050.65 516 1054.44 517.75C1058.27 519.458 1061.52 521.875 1064.19 525C1066.9 528.083 1068.96 531.729 1070.38 535.938C1071.79 540.104 1072.5 544.625 1072.5 549.5V550.938C1072.5 555.812 1071.79 560.333 1070.38 564.5C1068.96 568.667 1066.9 572.312 1064.19 575.438C1061.52 578.521 1058.29 580.938 1054.5 582.688C1050.75 584.396 1046.5 585.25 1041.75 585.25C1037 585.25 1032.73 584.396 1028.94 582.688C1025.15 580.938 1021.9 578.521 1019.19 575.438C1016.52 572.312 1014.48 568.667 1013.06 564.5C1011.65 560.333 1010.94 555.812 1010.94 550.938ZM1022.5 549.5V550.938C1022.5 554.312 1022.9 557.5 1023.69 560.5C1024.48 563.458 1025.67 566.083 1027.25 568.375C1028.88 570.667 1030.9 572.479 1033.31 573.812C1035.73 575.104 1038.54 575.75 1041.75 575.75C1044.92 575.75 1047.69 575.104 1050.06 573.812C1052.48 572.479 1054.48 570.667 1056.06 568.375C1057.65 566.083 1058.83 563.458 1059.62 560.5C1060.46 557.5 1060.88 554.312 1060.88 550.938V549.5C1060.88 546.167 1060.46 543.021 1059.62 540.062C1058.83 537.062 1057.62 534.417 1056 532.125C1054.42 529.792 1052.42 527.958 1050 526.625C1047.62 525.292 1044.83 524.625 1041.62 524.625C1038.46 524.625 1035.67 525.292 1033.25 526.625C1030.88 527.958 1028.88 529.792 1027.25 532.125C1025.67 534.417 1024.48 537.062 1023.69 540.062C1022.9 543.021 1022.5 546.167 1022.5 549.5ZM1099.56 488V584H1087.94V488H1099.56ZM1160.75 570.875V488H1172.38V584H1161.75L1160.75 570.875ZM1115.25 550.938V549.625C1115.25 544.458 1115.88 539.771 1117.12 535.562C1118.42 531.312 1120.23 527.667 1122.56 524.625C1124.94 521.583 1127.75 519.25 1131 517.625C1134.29 515.958 1137.96 515.125 1142 515.125C1146.25 515.125 1149.96 515.875 1153.12 517.375C1156.33 518.833 1159.04 520.979 1161.25 523.812C1163.5 526.604 1165.27 529.979 1166.56 533.938C1167.85 537.896 1168.75 542.375 1169.25 547.375V553.125C1168.79 558.083 1167.9 562.542 1166.56 566.5C1165.27 570.458 1163.5 573.833 1161.25 576.625C1159.04 579.417 1156.33 581.562 1153.12 583.062C1149.92 584.521 1146.17 585.25 1141.88 585.25C1137.92 585.25 1134.29 584.396 1131 582.688C1127.75 580.979 1124.94 578.583 1122.56 575.5C1120.23 572.417 1118.42 568.792 1117.12 564.625C1115.88 560.417 1115.25 555.854 1115.25 550.938ZM1126.88 549.625V550.938C1126.88 554.312 1127.21 557.479 1127.88 560.438C1128.58 563.396 1129.67 566 1131.12 568.25C1132.58 570.5 1134.44 572.271 1136.69 573.562C1138.94 574.812 1141.62 575.438 1144.75 575.438C1148.58 575.438 1151.73 574.625 1154.19 573C1156.69 571.375 1158.69 569.229 1160.19 566.562C1161.69 563.896 1162.85 561 1163.69 557.875V542.812C1163.19 540.521 1162.46 538.312 1161.5 536.188C1160.58 534.021 1159.38 532.104 1157.88 530.438C1156.42 528.729 1154.6 527.375 1152.44 526.375C1150.31 525.375 1147.79 524.875 1144.88 524.875C1141.71 524.875 1138.98 525.542 1136.69 526.875C1134.44 528.167 1132.58 529.958 1131.12 532.25C1129.67 534.5 1128.58 537.125 1127.88 540.125C1127.21 543.083 1126.88 546.25 1126.88 549.625ZM1218.44 585.25C1213.73 585.25 1209.46 584.458 1205.62 582.875C1201.83 581.25 1198.56 578.979 1195.81 576.062C1193.1 573.146 1191.02 569.688 1189.56 565.688C1188.1 561.688 1187.38 557.312 1187.38 552.562V549.938C1187.38 544.438 1188.19 539.542 1189.81 535.25C1191.44 530.917 1193.65 527.25 1196.44 524.25C1199.23 521.25 1202.4 518.979 1205.94 517.438C1209.48 515.896 1213.15 515.125 1216.94 515.125C1221.77 515.125 1225.94 515.958 1229.44 517.625C1232.98 519.292 1235.88 521.625 1238.12 524.625C1240.38 527.583 1242.04 531.083 1243.12 535.125C1244.21 539.125 1244.75 543.5 1244.75 548.25V553.438H1194.25V544H1233.19V543.125C1233.02 540.125 1232.4 537.208 1231.31 534.375C1230.27 531.542 1228.6 529.208 1226.31 527.375C1224.02 525.542 1220.9 524.625 1216.94 524.625C1214.31 524.625 1211.9 525.188 1209.69 526.312C1207.48 527.396 1205.58 529.021 1204 531.188C1202.42 533.354 1201.19 536 1200.31 539.125C1199.44 542.25 1199 545.854 1199 549.938V552.562C1199 555.771 1199.44 558.792 1200.31 561.625C1201.23 564.417 1202.54 566.875 1204.25 569C1206 571.125 1208.1 572.792 1210.56 574C1213.06 575.208 1215.9 575.812 1219.06 575.812C1223.15 575.812 1226.6 574.979 1229.44 573.312C1232.27 571.646 1234.75 569.417 1236.88 566.625L1243.88 572.188C1242.42 574.396 1240.56 576.5 1238.31 578.5C1236.06 580.5 1233.29 582.125 1230 583.375C1226.75 584.625 1222.9 585.25 1218.44 585.25ZM1269.81 527V584H1258.25V516.375H1269.5L1269.81 527ZM1290.94 516L1290.88 526.75C1289.92 526.542 1289 526.417 1288.12 526.375C1287.29 526.292 1286.33 526.25 1285.25 526.25C1282.58 526.25 1280.23 526.667 1278.19 527.5C1276.15 528.333 1274.42 529.5 1273 531C1271.58 532.5 1270.46 534.292 1269.62 536.375C1268.83 538.417 1268.31 540.667 1268.06 543.125L1264.81 545C1264.81 540.917 1265.21 537.083 1266 533.5C1266.83 529.917 1268.1 526.75 1269.81 524C1271.52 521.208 1273.69 519.042 1276.31 517.5C1278.98 515.917 1282.15 515.125 1285.81 515.125C1286.65 515.125 1287.6 515.229 1288.69 515.438C1289.77 515.604 1290.52 515.792 1290.94 516ZM1293.44 489.5V480H1317.06V603.5H1293.44V594H1305.44V489.5H1293.44Z" fill="#FF6D7F"/>
</svg>
