<svg width="1920" height="1080" fill="none" xmlns="http://www.w3.org/2000/svg"><g clip-path="url(#a)"><path d="M1357.96 459.174v59.296h25.06c80.65-.043 161.32-.162 241.97.033 31.28.076 43.24 14.995 37.98 45.418-3.33 19.288-14.53 26.151-33.6 26.032-81.38-.521-162.76-.217-244.15.433h-26.01v59.296h24.58c85.74.282 171.49.174 257.23.347 26.89.054 37.01 10.398 37.25 36.733.24 25.664-10.6 36.647-37.29 36.679-106.81.131-213.63.163-320.45-.021-30.47-.054-45.31-12.946-45.6-42.989-.81-83.507-.77-167.035-.01-250.541.27-29.502 13.71-41.818 43.94-41.949 103.92-.433 207.83-.379 311.73-.108 25.49.065 34.94 10.669 34.9 36.43-.05 25.088-9.77 34.619-36.29 34.662-81.38.13-162.77.054-244.16.239h-27.08v.01Z" fill="#3C4043"/><path d="M1273 432.622v-17.748c0-15.7 12.84-28.537 28.54-28.537h337.19c14.71 0 26.76 12.046 26.76 26.758v19.527c0 15.7-12.84 28.537-28.54 28.537h-335.41c-15.7 0-28.54-12.837-28.54-28.537Z" fill="#FF6D7F"/><path d="M1272.8 561.525v-17.749c0-15.699 12.83-28.536 28.53-28.536h337.19c14.72 0 26.76 12.045 26.76 26.758v19.527c0 15.699-12.84 28.537-28.53 28.537h-335.42c-15.7 0-28.53-12.838-28.53-28.537Z" fill="#1A73E8"/><path d="M1491.78 863h-10.36v-37.632h-11.08v-8.064h32.52v8.064h-11.08V863ZM830.919 457.993c0 62.006.272 120.478-.173 178.939-.119 16.524 10.918 13.922 20.698 13.932 81.739.087 163.476.055 245.206.055 6.51 0 13.03-.163 19.53.086 27.6 1.085 37.5 10.669 37.76 36.365.25 24.688-11.16 36.094-37.78 36.148-106.33.206-212.663.26-318.992-.022-35.281-.098-48.692-13.379-48.855-48.584-.379-80.243-.358-160.485-.011-240.728.152-33.644 12.046-47.305 45.104-47.576 104.876-.856 209.764-.704 314.644-.162 25.97.13 35.59 12.349 34.66 38.901-.83 23.344-10.81 32.581-36.05 32.603-83.18.097-166.365.032-249.557.032-7.817.011-15.634.011-26.184.011Z" fill="#3C4043"/><path d="M750.048 428.415v-13.661c0-16.816 13.759-30.586 30.586-30.586h332.396c16.82 0 30.59 13.759 30.59 30.586v13.661c0 16.817-13.76 30.586-30.59 30.586H780.634c-16.827-.011-30.586-13.769-30.586-30.586Z" fill="#FF6D7F"/><path d="M978.033 839.704c0 5.12-.938 9.408-2.816 12.864-1.834 3.456-4.48 6.059-7.936 7.808-3.413 1.749-7.509 2.624-12.288 2.624h-12.992v-45.696h14.144c4.566 0 8.47.853 11.712 2.56 3.286 1.707 5.803 4.224 7.552 7.552 1.75 3.285 2.624 7.381 2.624 12.288Zm-10.752.256c0-3.371-.405-6.144-1.216-8.32-.81-2.176-2.026-3.776-3.648-4.8-1.578-1.067-3.562-1.6-5.952-1.6h-4.096V855h3.2c4.011 0 6.955-1.259 8.832-3.776 1.92-2.517 2.88-6.272 2.88-11.264Z" fill="#3C4043"/><path d="M865.672 237.016h11.2v6.848h-11.2v12.032h-7.168v-12.032h-11.136v-6.848h11.136v-12.16h7.168v12.16Zm60.946 13.312c0 2.688-.598 5.035-1.792 7.04-1.195 2.005-3.008 3.563-5.44 4.672-2.39 1.067-5.419 1.6-9.088 1.6-1.707 0-3.286-.107-4.736-.32a28.806 28.806 0 0 1-4.096-.896 36.147 36.147 0 0 1-3.84-1.536v-9.024c2.176.939 4.394 1.813 6.656 2.624 2.304.768 4.48 1.152 6.528 1.152 1.322 0 2.389-.213 3.2-.64.81-.427 1.408-1.003 1.792-1.728.384-.725.576-1.557.576-2.496 0-1.152-.32-2.133-.96-2.944-.598-.811-1.494-1.557-2.688-2.24-1.195-.725-2.667-1.451-4.416-2.176a35.005 35.005 0 0 1-3.776-1.92 15.272 15.272 0 0 1-3.328-2.624c-.982-1.067-1.771-2.347-2.368-3.84-.555-1.493-.832-3.285-.832-5.376 0-2.731.64-5.056 1.92-6.976 1.28-1.963 3.072-3.456 5.376-4.48 2.304-1.024 4.992-1.536 8.064-1.536 2.517 0 4.842.277 6.976.832a28.72 28.72 0 0 1 6.208 2.368l-3.264 7.552c-1.878-.853-3.67-1.515-5.376-1.984-1.664-.469-3.286-.704-4.864-.704-1.067 0-1.963.192-2.688.576a4.01 4.01 0 0 0-1.664 1.6c-.342.683-.512 1.493-.512 2.432 0 1.067.277 1.984.832 2.752.597.725 1.514 1.451 2.752 2.176a172.41 172.41 0 0 0 4.736 2.496c2.133 1.067 3.946 2.197 5.44 3.392 1.536 1.152 2.688 2.539 3.456 4.16.81 1.621 1.216 3.627 1.216 6.016ZM951.597 263h-10.368v-37.632h-11.072v-8.064h32.512v8.064h-11.072V263Zm55.823-22.912c0 3.541-.4 6.763-1.22 9.664-.81 2.859-2.04 5.333-3.71 7.424-1.66 2.091-3.816 3.691-6.461 4.8-2.603 1.109-5.696 1.664-9.28 1.664-3.542 0-6.614-.555-9.216-1.664-2.603-1.152-4.758-2.752-6.464-4.8-1.664-2.091-2.923-4.587-3.776-7.488-.811-2.901-1.216-6.123-1.216-9.664 0-4.736.725-8.853 2.176-12.352 1.493-3.499 3.776-6.208 6.848-8.128 3.071-1.963 6.976-2.944 11.712-2.944 4.778 0 8.682.981 11.712 2.944 3.025 1.92 5.265 4.651 6.715 8.192 1.46 3.499 2.18 7.616 2.18 12.352Zm-30.463 0c0 3.2.32 5.952.96 8.256.682 2.304 1.749 4.075 3.2 5.312 1.45 1.237 3.328 1.856 5.632 1.856 2.346 0 4.224-.619 5.632-1.856 1.45-1.237 2.496-3.008 3.136-5.312.682-2.304 1.024-5.056 1.024-8.256 0-4.821-.768-8.597-2.304-11.328-1.494-2.731-3.968-4.096-7.424-4.096-2.347 0-4.246.619-5.696 1.856-1.451 1.237-2.518 3.008-3.2 5.312-.64 2.304-.96 5.056-.96 8.256Zm53.123-22.784c5.5 0 9.56 1.28 12.16 3.84 2.64 2.517 3.97 5.995 3.97 10.432 0 2.005-.28 3.925-.84 5.76-.55 1.792-1.47 3.413-2.75 4.864-1.28 1.408-2.98 2.517-5.12 3.328-2.09.811-4.67 1.216-7.74 1.216h-3.59V263h-10.36v-45.696h14.27Zm-.32 7.936h-3.59v13.568h2.63c1.36 0 2.58-.235 3.65-.704 1.06-.469 1.89-1.216 2.49-2.24.6-1.024.9-2.347.9-3.968 0-2.261-.51-3.925-1.54-4.992-.98-1.109-2.49-1.664-4.54-1.664ZM1387.67 237.016h11.2v6.848h-11.2v12.032h-7.17v-12.032h-11.13v-6.848h11.13v-12.16h7.17v12.16Zm60.95 13.312c0 2.688-.6 5.035-1.79 7.04-1.2 2.005-3.01 3.563-5.44 4.672-2.39 1.067-5.42 1.6-9.09 1.6-1.71 0-3.29-.107-4.74-.32a28.75 28.75 0 0 1-4.09-.896 36.147 36.147 0 0 1-3.84-1.536v-9.024c2.17.939 4.39 1.813 6.65 2.624 2.31.768 4.48 1.152 6.53 1.152 1.32 0 2.39-.213 3.2-.64.81-.427 1.41-1.003 1.79-1.728.39-.725.58-1.557.58-2.496 0-1.152-.32-2.133-.96-2.944-.6-.811-1.5-1.557-2.69-2.24-1.2-.725-2.67-1.451-4.42-2.176a34.287 34.287 0 0 1-3.77-1.92c-1.24-.725-2.35-1.6-3.33-2.624-.98-1.067-1.77-2.347-2.37-3.84-.55-1.493-.83-3.285-.83-5.376 0-2.731.64-5.056 1.92-6.976 1.28-1.963 3.07-3.456 5.38-4.48 2.3-1.024 4.99-1.536 8.06-1.536 2.52 0 4.84.277 6.98.832 2.17.555 4.24 1.344 6.2 2.368l-3.26 7.552c-1.88-.853-3.67-1.515-5.38-1.984-1.66-.469-3.28-.704-4.86-.704-1.07 0-1.96.192-2.69.576-.72.384-1.28.917-1.66 1.6-.34.683-.51 1.493-.51 2.432 0 1.067.27 1.984.83 2.752.59.725 1.51 1.451 2.75 2.176 1.24.683 2.82 1.515 4.74 2.496 2.13 1.067 3.94 2.197 5.44 3.392 1.53 1.152 2.68 2.539 3.45 4.16.81 1.621 1.22 3.627 1.22 6.016ZM1473.6 263h-10.37v-37.632h-11.07v-8.064h32.51v8.064h-11.07V263Zm55.82-22.912c0 3.541-.4 6.763-1.22 9.664-.81 2.859-2.04 5.333-3.71 7.424-1.66 2.091-3.82 3.691-6.46 4.8-2.6 1.109-5.7 1.664-9.28 1.664-3.54 0-6.61-.555-9.22-1.664-2.6-1.152-4.75-2.752-6.46-4.8-1.67-2.091-2.92-4.587-3.78-7.488-.81-2.901-1.21-6.123-1.21-9.664 0-4.736.72-8.853 2.17-12.352 1.5-3.499 3.78-6.208 6.85-8.128 3.07-1.963 6.98-2.944 11.71-2.944 4.78 0 8.69.981 11.71 2.944 3.03 1.92 5.27 4.651 6.72 8.192 1.46 3.499 2.18 7.616 2.18 12.352Zm-30.46 0c0 3.2.32 5.952.96 8.256.68 2.304 1.75 4.075 3.2 5.312 1.45 1.237 3.32 1.856 5.63 1.856 2.35 0 4.22-.619 5.63-1.856 1.45-1.237 2.5-3.008 3.14-5.312.68-2.304 1.02-5.056 1.02-8.256 0-4.821-.77-8.597-2.3-11.328-1.5-2.731-3.97-4.096-7.43-4.096-2.34 0-4.24.619-5.69 1.856-1.45 1.237-2.52 3.008-3.2 5.312-.64 2.304-.96 5.056-.96 8.256Zm53.12-22.784c5.5 0 9.56 1.28 12.16 3.84 2.64 2.517 3.97 5.995 3.97 10.432 0 2.005-.28 3.925-.84 5.76-.55 1.792-1.47 3.413-2.75 4.864-1.28 1.408-2.98 2.517-5.12 3.328-2.09.811-4.67 1.216-7.74 1.216h-3.59V263h-10.36v-45.696h14.27Zm-.32 7.936h-3.59v13.568h2.63c1.36 0 2.58-.235 3.65-.704 1.06-.469 1.89-1.216 2.49-2.24.6-1.024.9-2.347.9-3.968 0-2.261-.51-3.925-1.54-4.992-.98-1.109-2.49-1.664-4.54-1.664Z" fill="#FF6D7F"/><path d="M1410.67 310.016h11.2v6.848h-11.2v12.032h-7.17v-12.032h-11.13v-6.848h11.13v-12.16h7.17v12.16ZM1471.3 336l-2.63-10.88h-14.78L1451.2 336h-11.26l14.59-45.888h13.31L1482.5 336h-11.2Zm-7.87-29.632c-.26-.896-.52-1.835-.77-2.816-.26-.981-.51-2.005-.77-3.072-.21-1.067-.43-2.155-.64-3.264a43.333 43.333 0 0 1-.64 3.328 159.84 159.84 0 0 1-.77 3.072c-.21.981-.45 1.899-.7 2.752l-2.95 10.624h10.24l-3-10.624ZM1505.41 336h-20.93v-5.504l5.32-2.56v-29.568l-5.32-2.56v-5.504h20.93v5.504l-5.25 2.56v29.568l5.25 2.56V336Zm20.33-45.696c3.89 0 7.11.512 9.67 1.536 2.56.981 4.46 2.496 5.69 4.544 1.28 2.005 1.92 4.544 1.92 7.616 0 2.091-.34 3.925-1.02 5.504a11.699 11.699 0 0 1-2.69 3.968 15.243 15.243 0 0 1-3.9 2.624L1547.95 336h-11.58l-9.67-17.536h-3.9V336h-10.37v-45.696h13.31Zm-.44 7.936h-2.5v12.352h2.56c1.58 0 2.9-.235 3.97-.704 1.06-.469 1.87-1.173 2.43-2.112.55-.981.83-2.155.83-3.52 0-1.451-.25-2.603-.77-3.456-.51-.896-1.3-1.536-2.36-1.92-1.07-.427-2.46-.64-4.16-.64Z" fill="#1A73E8"/><path d="M326.926 651.082h28.006c85.599.011 171.187-.195 256.786.13 31.193.12 41.319 11.07 39.617 40.496-1.258 21.76-10.68 31.963-32.722 32.028-110.254.325-220.519.401-330.773-.065-29.403-.13-43.238-13.39-43.466-42.621-.705-87.713-.607-175.437-.065-263.15.163-25.729 13.249-36.04 41.287-35.899 27.832.131 40.712 10.463 40.984 36.463.726 68.143.314 136.286.346 204.44.011 8.456 0 16.935 0 28.178ZM467.544 863h-13.376l-17.216-34.56h-.256c.043 1.067.085 2.155.128 3.264.043 1.067.085 2.155.128 3.264.085 1.067.149 2.155.192 3.264.043 1.067.085 2.155.128 3.264V863h-9.216v-45.696h13.312l17.152 34.24h.192c0-1.067-.021-2.112-.064-3.136a73.863 73.863 0 0 0-.192-3.136c-.043-1.067-.085-2.112-.128-3.136a79.436 79.436 0 0 1-.064-3.2v-21.632h9.28V863Z" fill="#3C4043"/></g><defs><clipPath id="a"><path fill="#fff" d="M0 0h1920v1080H0z"/></clipPath></defs></svg>