<svg xmlns="http://www.w3.org/2000/svg" width="1920" height="1080" fill="none"><path fill="#3C4043" d="M50 553h1820v477H50z"/><path fill="#fff" d="M50 51h1820v477H50zm194.878 714.53h21.753V822h8.965v-56.47h21.753v-7.514h-52.471v7.514ZM304.907 822h8.701v-33.311c1.26-2.343 2.974-4.248 5.142-5.712 2.168-1.495 4.688-2.242 7.559-2.242 3.369 0 5.962.85 7.778 2.549 1.846 1.699 2.768 4.527 2.768 8.482V822h8.746v-30.146c0-6.709-1.509-11.485-4.527-14.327-2.988-2.841-7.016-4.262-12.085-4.262-3.222 0-6.137.63-8.745 1.889a19.368 19.368 0 0 0-6.636 5.186V754.5h-8.701V822Zm50.493-23.247c0 7.236 2.066 13.14 6.197 17.71s10.078 6.855 17.841 6.855c4.747 0 8.775-.937 12.085-2.812 3.34-1.904 5.787-3.97 7.339-6.196l-5.625-4.747c-1.406 1.788-3.266 3.326-5.581 4.615-2.285 1.289-5.024 1.933-8.218 1.933-5.185 0-9.023-1.67-11.513-5.009-2.461-3.37-3.692-7.486-3.692-12.349v-1.406c0-4.864 1.172-8.965 3.516-12.305 2.373-3.34 5.801-5.01 10.283-5.01 4.541 0 7.749 1.275 9.624 3.823 1.905 2.52 2.857 5.699 2.857 9.537v-.132h-29.707v6.987h38.54v-3.691c0-7.266-1.846-13.037-5.537-17.315-3.663-4.277-8.921-6.416-15.777-6.416-6.797 0-12.275 2.285-16.435 6.856-4.131 4.57-6.197 10.459-6.197 17.666v1.406Zm70.401-24.609L440.918 822h7.383l10.678-31.509a80.254 80.254 0 0 0 1.143-3.515 80.865 80.865 0 0 0 1.055-3.516h.263c.323 1.172.66 2.344 1.011 3.516.381 1.171.777 2.343 1.187 3.515L474.272 822h7.339l15.118-47.856h-7.999l-8.92 30.717a154.746 154.746 0 0 0-1.011 3.516 24.862 24.862 0 0 0-.703 3.516h-.264a37.374 37.374 0 0 0-.703-3.516 40.101 40.101 0 0 0-1.055-3.516l-10.591-30.717h-7.822l-10.591 30.717a40.092 40.092 0 0 0-1.054 3.516 37.38 37.38 0 0 0-.704 3.516h-.263a25.004 25.004 0 0 0-.703-3.516 160.082 160.082 0 0 0-1.011-3.516l-8.921-30.717h-8.613Zm75.761 24.609c0 7.236 2.139 13.14 6.417 17.71 4.306 4.57 10.048 6.855 17.226 6.855 7.149 0 12.861-2.285 17.139-6.855 4.306-4.57 6.46-10.474 6.46-17.71v-1.406c0-7.207-2.154-13.096-6.46-17.666-4.278-4.571-10.005-6.856-17.183-6.856-7.148 0-12.876 2.285-17.182 6.856-4.278 4.57-6.417 10.459-6.417 17.666v1.406Zm8.921-1.406c0-4.805 1.231-8.877 3.692-12.217 2.461-3.34 6.123-5.01 10.986-5.01 4.893 0 8.569 1.67 11.03 5.01 2.461 3.34 3.692 7.412 3.692 12.217v1.406c0 4.834-1.231 8.921-3.692 12.261-2.461 3.34-6.137 5.009-11.03 5.009-4.863 0-8.525-1.669-10.986-5.009-2.461-3.34-3.692-7.427-3.692-12.261v-1.406Zm45.835 1.406c0 7.236 2.139 13.14 6.416 17.71 4.307 4.57 10.049 6.855 17.227 6.855 7.148 0 12.861-2.285 17.139-6.855 4.306-4.57 6.46-10.474 6.46-17.71v-1.406c0-7.207-2.154-13.096-6.46-17.666-4.278-4.571-10.005-6.856-17.183-6.856-7.148 0-12.876 2.285-17.183 6.856-4.277 4.57-6.416 10.459-6.416 17.666v1.406Zm8.921-1.406c0-4.805 1.231-8.877 3.692-12.217 2.461-3.34 6.123-5.01 10.986-5.01 4.893 0 8.569 1.67 11.03 5.01 2.461 3.34 3.692 7.412 3.692 12.217v1.406c0 4.834-1.231 8.921-3.692 12.261-2.461 3.34-6.137 5.009-11.03 5.009-4.863 0-8.525-1.669-10.986-5.009-2.461-3.34-3.692-7.427-3.692-12.261v-1.406Zm45.835 1.406c0 6.973 1.89 12.744 5.669 17.314 3.809 4.541 8.877 6.812 15.205 6.812 3.545 0 6.651-.689 9.317-2.066 2.666-1.406 4.643-3.09 5.932-5.053h.22l.395 6.24h7.911v-67.5h-8.702v25.312c-1.494-1.992-3.5-3.574-6.02-4.746-2.49-1.201-5.508-1.801-9.053-1.801-6.328 0-11.396 2.27-15.205 6.811-3.779 4.541-5.669 10.298-5.669 17.271v1.406Zm8.921 0v-1.406c0-4.717 1.113-8.687 3.34-11.909 2.256-3.252 5.786-4.878 10.591-4.878 3.222 0 5.962.835 8.218 2.504 2.255 1.641 3.881 3.516 4.877 5.625v18.765c-.996 2.109-2.622 3.999-4.877 5.669-2.256 1.641-4.996 2.461-8.218 2.461-4.805 0-8.335-1.611-10.591-4.834-2.227-3.252-3.34-7.251-3.34-11.997ZM668.774 822h8.702v-33.311c1.259-2.343 2.915-4.248 4.965-5.712 2.08-1.495 4.512-2.242 7.295-2.242 3.223 0 5.713.85 7.471 2.549 1.758 1.699 2.637 4.527 2.637 8.482V822h8.745v-33.311c1.26-2.343 2.915-4.248 4.966-5.712 2.08-1.495 4.511-2.242 7.295-2.242 3.222 0 5.698.85 7.426 2.549 1.758 1.699 2.652 4.527 2.681 8.482V822h8.701v-30.146c0-6.68-1.479-11.441-4.438-14.283-2.93-2.871-6.988-4.306-12.173-4.306-3.34 0-6.328.644-8.965 1.933-2.637 1.26-5.024 3.34-7.163 6.24h-.22c-1.26-2.841-3.12-4.907-5.581-6.196-2.431-1.318-5.332-1.977-8.701-1.977-3.135 0-5.977.63-8.525 1.889-2.549 1.26-4.746 3.033-6.592 5.318h-.22l-.395-6.328h-7.911V822Zm80.948-14.062c0 4.833 1.655 8.54 4.966 11.118 3.339 2.548 7.368 3.823 12.084 3.823 4.219 0 7.662-.762 10.328-2.285 2.666-1.524 4.599-3.267 5.8-5.23.088 1.201.308 2.417.66 3.648.351 1.23.747 2.226 1.186 2.988h8.438v-.703c-.557-1.289-.996-2.769-1.319-4.439a31.798 31.798 0 0 1-.439-5.405v-22.72c0-5.273-1.67-9.243-5.01-11.909-3.34-2.666-8.027-3.999-14.062-3.999-6.065 0-10.884 1.436-14.458 4.307-3.545 2.871-5.318 6.225-5.318 10.063v.22h8.701v-.22c0-1.963.835-3.676 2.505-5.141 1.67-1.494 4.439-2.242 8.306-2.242 3.896 0 6.636.835 8.218 2.505 1.611 1.641 2.417 3.78 2.417 6.416v3.78h-11.558c-6.211 0-11.338 1.362-15.381 4.087-4.043 2.695-6.064 6.474-6.064 11.338Zm8.701-.44c0-2.666 1.157-4.775 3.472-6.328 2.314-1.582 5.712-2.373 10.195-2.373h10.635v6.636c0 2.49-1.436 4.863-4.307 7.119-2.871 2.226-6.079 3.34-9.624 3.34-3.545 0-6.167-.733-7.866-2.198-1.67-1.494-2.505-3.559-2.505-6.196ZM804.39 822h8.701v-33.311c1.26-2.343 2.973-4.248 5.141-5.712 2.168-1.495 4.688-2.242 7.559-2.242 3.369 0 5.962.85 7.778 2.549 1.846 1.699 2.769 4.527 2.769 8.482V822h8.745v-30.146c0-6.709-1.509-11.485-4.526-14.327-2.989-2.841-7.017-4.262-12.085-4.262-3.223 0-6.153.63-8.789 1.889-2.637 1.231-4.893 3.003-6.768 5.318h-.22l-.395-6.328h-7.91V822Zm72.246-14.062v.219c0 4.571 1.743 8.247 5.229 11.031 3.516 2.753 8.614 4.13 15.293 4.13 6.68 0 11.69-1.362 15.03-4.087 3.369-2.724 5.053-6.21 5.053-10.459 0-4.248-1.45-7.543-4.35-9.887-2.871-2.344-7.09-4.073-12.657-5.186-5.537-1.113-9.126-2.197-10.766-3.252-1.612-1.084-2.417-2.534-2.417-4.35 0-1.758.791-3.252 2.373-4.483 1.582-1.23 4.16-1.845 7.734-1.845s6.211.688 7.91 2.065c1.7 1.377 2.549 3.237 2.549 5.581v.22h8.657v-.22c0-4.365-1.728-7.881-5.185-10.547-3.428-2.695-8.071-4.043-13.931-4.043-5.742 0-10.312 1.304-13.711 3.911-3.369 2.608-5.053 5.889-5.053 9.844 0 3.955 1.45 7.075 4.35 9.36 2.901 2.286 7.119 3.985 12.656 5.098 5.567 1.113 9.141 2.241 10.723 3.384 1.582 1.113 2.373 2.724 2.373 4.834 0 2.051-1.011 3.75-3.032 5.098-1.992 1.318-4.761 1.977-8.306 1.977-3.545 0-6.401-.688-8.569-2.065-2.168-1.407-3.252-3.443-3.252-6.109v-.219h-8.701Zm47.856-9.185c0 7.236 2.066 13.14 6.196 17.71 4.131 4.57 10.079 6.855 17.842 6.855 4.746 0 8.775-.937 12.085-2.812 3.34-1.904 5.786-3.97 7.339-6.196l-5.625-4.747c-1.406 1.788-3.267 3.326-5.581 4.615-2.285 1.289-5.024 1.933-8.218 1.933-5.185 0-9.023-1.67-11.513-5.009-2.461-3.37-3.692-7.486-3.692-12.349v-1.406c0-4.864 1.172-8.965 3.516-12.305 2.373-3.34 5.801-5.01 10.283-5.01 4.541 0 7.749 1.275 9.624 3.823 1.904 2.52 2.856 5.699 2.856 9.537v-.132h-29.707v6.987h38.541v-3.691c0-7.266-1.846-13.037-5.538-17.315-3.662-4.277-8.921-6.416-15.776-6.416-6.797 0-12.275 2.285-16.436 6.856-4.13 4.57-6.196 10.459-6.196 17.666v1.406Zm47.329-17.754h28.429v-6.855h-28.429v6.855Zm8.921 29.048c0 4.57 1.07 7.925 3.208 10.063 2.168 2.139 5.069 3.208 8.701 3.208 1.524 0 2.93-.131 4.219-.395 1.289-.264 2.344-.571 3.16-.923v-7.207a22.57 22.57 0 0 1-2.589.703c-.82.176-1.67.264-2.548.264-1.875 0-3.252-.44-4.131-1.319-.879-.879-1.319-2.343-1.319-4.394v-45.703h-8.701v45.703Zm43.728-29.048h28.43v-6.855h-28.43v6.855Zm8.92 29.048c0 4.57 1.07 7.925 3.21 10.063 2.16 2.139 5.07 3.208 8.7 3.208 1.52 0 2.93-.131 4.22-.395 1.29-.264 2.34-.571 3.16-.923v-7.207c-.88.293-1.74.527-2.59.703-.82.176-1.67.264-2.55.264-1.88 0-3.25-.44-4.13-1.319-.88-.879-1.32-2.343-1.32-4.394v-45.703h-8.7v45.703Zm24.52-11.294c0 7.236 2.14 13.14 6.42 17.71 4.3 4.57 10.05 6.855 17.22 6.855 7.15 0 12.86-2.285 17.14-6.855 4.31-4.57 6.46-10.474 6.46-17.71v-1.406c0-7.207-2.15-13.096-6.46-17.666-4.28-4.571-10-6.856-17.18-6.856-7.15 0-12.88 2.285-17.18 6.856-4.28 4.57-6.42 10.459-6.42 17.666v1.406Zm8.92-1.406c0-4.805 1.23-8.877 3.69-12.217s6.13-5.01 10.99-5.01c4.89 0 8.57 1.67 11.03 5.01 2.46 3.34 3.69 7.412 3.69 12.217v1.406c0 4.834-1.23 8.921-3.69 12.261s-6.14 5.009-11.03 5.009c-4.86 0-8.53-1.669-10.99-5.009-2.46-3.34-3.69-7.427-3.69-12.261v-1.406Zm65.17-23.203L1147.12 822h7.38l10.68-31.509c.41-1.172.79-2.344 1.14-3.515.38-1.172.74-2.344 1.06-3.516h.26c.32 1.172.66 2.344 1.01 3.516.38 1.171.78 2.343 1.19 3.515L1180.47 822h7.34l15.12-47.856h-8l-8.92 30.717c-.35 1.172-.69 2.344-1.01 3.516a24.3 24.3 0 0 0-.7 3.516h-.27a36.423 36.423 0 0 0-.7-3.516 39.054 39.054 0 0 0-1.05-3.516l-10.6-30.717h-7.82l-10.59 30.717a39.054 39.054 0 0 0-1.05 3.516c-.3 1.172-.53 2.344-.71 3.516h-.26a25.725 25.725 0 0 0-.7-3.516c-.33-1.172-.66-2.344-1.01-3.516l-8.92-30.717H1132Zm75.76 24.609c0 7.236 2.14 13.14 6.42 17.71 4.31 4.57 10.05 6.855 17.23 6.855 7.14 0 12.86-2.285 17.13-6.855 4.31-4.57 6.46-10.474 6.46-17.71v-1.406c0-7.207-2.15-13.096-6.46-17.666-4.27-4.571-10-6.856-17.18-6.856-7.15 0-12.87 2.285-17.18 6.856-4.28 4.57-6.42 10.459-6.42 17.666v1.406Zm8.92-1.406c0-4.805 1.24-8.877 3.7-12.217s6.12-5.01 10.98-5.01c4.89 0 8.57 1.67 11.03 5.01 2.46 3.34 3.69 7.412 3.69 12.217v1.406c0 4.834-1.23 8.921-3.69 12.261s-6.14 5.009-11.03 5.009c-4.86 0-8.52-1.669-10.98-5.009-2.46-3.34-3.7-7.427-3.7-12.261v-1.406ZM1265.29 822h8.7v-33.135c1-2.109 2.5-3.882 4.53-5.317 2.02-1.436 4.48-2.153 7.38-2.153.82 0 1.57.029 2.24.087.67.059 1.32.147 1.93.264v-8.306c-.29-.117-.82-.249-1.58-.395-.73-.147-1.43-.22-2.11-.22-2.9 0-5.4.762-7.51 2.285-2.08 1.494-3.77 3.238-5.06 5.23h-.22l-.39-6.196h-7.91V822Zm32.61 0h8.7v-16.479l31.15-31.377h-10.32l-20.83 21.665V754.5h-8.7V822Zm32.03 0h10.5l-24.3-31.245-5.75 5.976L1329.93 822Zm35.73-14.062c0 4.833 1.65 8.54 4.96 11.118 3.34 2.548 7.37 3.823 12.09 3.823 4.22 0 7.66-.762 10.33-2.285 2.66-1.524 4.6-3.267 5.8-5.23.09 1.201.31 2.417.66 3.648.35 1.23.74 2.226 1.18 2.988h8.44v-.703c-.56-1.289-1-2.769-1.32-4.439a32.106 32.106 0 0 1-.44-5.405v-22.72c0-5.273-1.67-9.243-5.01-11.909-3.34-2.666-8.02-3.999-14.06-3.999-6.06 0-10.88 1.436-14.46 4.307-3.54 2.871-5.31 6.225-5.31 10.063v.22h8.7v-.22c0-1.963.83-3.676 2.5-5.141 1.67-1.494 4.44-2.242 8.31-2.242 3.89 0 6.63.835 8.22 2.505 1.61 1.641 2.41 3.78 2.41 6.416v3.78h-11.56c-6.21 0-11.33 1.362-15.38 4.087-4.04 2.695-6.06 6.474-6.06 11.338Zm8.7-.44c0-2.666 1.16-4.775 3.47-6.328 2.32-1.582 5.71-2.373 10.2-2.373h10.63v6.636c0 2.49-1.43 4.863-4.3 7.119-2.88 2.226-6.08 3.34-9.63 3.34-3.54 0-6.17-.733-7.86-2.198-1.67-1.494-2.51-3.559-2.51-6.196Zm39.46-26.499h28.44v-6.855h-28.44v6.855Zm8.92 29.048c0 4.57 1.07 7.925 3.21 10.063 2.17 2.139 5.07 3.208 8.7 3.208 1.53 0 2.93-.131 4.22-.395 1.29-.264 2.35-.571 3.17-.923v-7.207c-.88.293-1.75.527-2.6.703-.82.176-1.67.264-2.55.264-1.87 0-3.25-.44-4.13-1.319-.88-.879-1.31-2.343-1.31-4.394v-45.703h-8.71v45.703Zm47.47-11.294c0 7.236 2.13 13.14 6.41 17.71 4.31 4.57 10.05 6.855 17.23 6.855 7.15 0 12.86-2.285 17.14-6.855 4.3-4.57 6.46-10.474 6.46-17.71v-1.406c0-7.207-2.16-13.096-6.46-17.666-4.28-4.571-10.01-6.856-17.19-6.856-7.14 0-12.87 2.285-17.18 6.856-4.28 4.57-6.41 10.459-6.41 17.666v1.406Zm8.92-1.406c0-4.805 1.23-8.877 3.69-12.217s6.12-5.01 10.98-5.01c4.9 0 8.57 1.67 11.03 5.01 2.46 3.34 3.7 7.412 3.7 12.217v1.406c0 4.834-1.24 8.921-3.7 12.261s-6.13 5.009-11.03 5.009c-4.86 0-8.52-1.669-10.98-5.009-2.46-3.34-3.69-7.427-3.69-12.261v-1.406Zm48.6 24.653h8.7v-33.311c1.26-2.343 2.97-4.248 5.14-5.712 2.17-1.495 4.69-2.242 7.56-2.242 3.37 0 5.96.85 7.78 2.549 1.84 1.699 2.77 4.527 2.77 8.482V822h8.74v-30.146c0-6.709-1.51-11.485-4.52-14.327-2.99-2.841-7.02-4.262-12.09-4.262-3.22 0-6.15.63-8.79 1.889-2.63 1.231-4.89 3.003-6.77 5.318h-.21l-.4-6.328h-7.91V822Zm50.49-23.247c0 7.236 2.05 13.14 6.16 17.71 4.13 4.57 9.79 6.855 17 6.855 6.68 0 11.75-1.714 15.21-5.141 3.48-3.428 5.23-7.251 5.23-11.47v-.22h-8.49v.22c0 2.461-.95 4.644-2.85 6.548-1.88 1.875-4.91 2.812-9.1 2.812-4.89 0-8.49-1.67-10.81-5.009-2.28-3.34-3.43-7.442-3.43-12.305v-1.406c0-4.834 1.15-8.921 3.43-12.261 2.32-3.34 5.92-5.01 10.81-5.01 4.19 0 7.22.952 9.1 2.857 1.9 1.875 2.85 4.043 2.85 6.504v.219h8.49v-.219c0-4.219-1.75-8.042-5.23-11.47-3.46-3.428-8.53-5.142-15.21-5.142-7.21 0-12.87 2.285-17 6.856-4.11 4.57-6.16 10.459-6.16 17.666v1.406Zm50.63 0c0 7.236 2.06 13.14 6.19 17.71 4.13 4.57 10.08 6.855 17.85 6.855 4.74 0 8.77-.937 12.08-2.812 3.34-1.904 5.79-3.97 7.34-6.196l-5.63-4.747c-1.4 1.788-3.26 3.326-5.58 4.615-2.28 1.289-5.02 1.933-8.21 1.933-5.19 0-9.03-1.67-11.52-5.009-2.46-3.37-3.69-7.486-3.69-12.349v-1.406c0-4.864 1.17-8.965 3.52-12.305 2.37-3.34 5.8-5.01 10.28-5.01 4.54 0 7.75 1.275 9.62 3.823 1.91 2.52 2.86 5.699 2.86 9.537v-.132h-29.71v6.987h38.54v-3.691c0-7.266-1.84-13.037-5.53-17.315-3.67-4.277-8.93-6.416-15.78-6.416-6.8 0-12.28 2.285-16.44 6.856-4.13 4.57-6.19 10.459-6.19 17.666v1.406Z"/><path fill="#3C4043" d="M244.878 263.53h21.753V320h8.965v-56.47h21.753v-7.514h-52.471v7.514ZM304.907 320h8.701v-33.311c1.26-2.343 2.974-4.248 5.142-5.712 2.168-1.495 4.688-2.242 7.559-2.242 3.369 0 5.962.85 7.778 2.549 1.846 1.699 2.768 4.527 2.768 8.482V320h8.746v-30.146c0-6.709-1.509-11.485-4.527-14.327-2.988-2.841-7.016-4.262-12.085-4.262-3.222 0-6.137.63-8.745 1.889a19.368 19.368 0 0 0-6.636 5.186V252.5h-8.701V320Zm50.493-23.247c0 7.236 2.066 13.14 6.197 17.71s10.078 6.855 17.841 6.855c4.747 0 8.775-.937 12.085-2.812 3.34-1.904 5.787-3.97 7.339-6.196l-5.625-4.747c-1.406 1.788-3.266 3.326-5.581 4.615-2.285 1.289-5.024 1.933-8.218 1.933-5.185 0-9.023-1.67-11.513-5.009-2.461-3.37-3.692-7.486-3.692-12.349v-1.406c0-4.864 1.172-8.965 3.516-12.305 2.373-3.34 5.801-5.01 10.283-5.01 4.541 0 7.749 1.275 9.624 3.823 1.905 2.52 2.857 5.699 2.857 9.537v-.132h-29.707v6.987h38.54v-3.691c0-7.266-1.846-13.037-5.537-17.315-3.663-4.277-8.921-6.416-15.777-6.416-6.797 0-12.275 2.285-16.435 6.856-4.131 4.57-6.197 10.459-6.197 17.666v1.406Zm70.401-24.609L440.918 320h7.383l10.678-31.509a80.254 80.254 0 0 0 1.143-3.515 80.865 80.865 0 0 0 1.055-3.516h.263c.323 1.172.66 2.344 1.011 3.516.381 1.171.777 2.343 1.187 3.515L474.272 320h7.339l15.118-47.856h-7.999l-8.92 30.717a154.746 154.746 0 0 0-1.011 3.516 24.862 24.862 0 0 0-.703 3.516h-.264a37.374 37.374 0 0 0-.703-3.516 40.101 40.101 0 0 0-1.055-3.516l-10.591-30.717h-7.822l-10.591 30.717a40.092 40.092 0 0 0-1.054 3.516 37.38 37.38 0 0 0-.704 3.516h-.263a25.004 25.004 0 0 0-.703-3.516 160.082 160.082 0 0 0-1.011-3.516l-8.921-30.717h-8.613Zm75.761 24.609c0 7.236 2.139 13.14 6.417 17.71 4.306 4.57 10.048 6.855 17.226 6.855 7.149 0 12.861-2.285 17.139-6.855 4.306-4.57 6.46-10.474 6.46-17.71v-1.406c0-7.207-2.154-13.096-6.46-17.666-4.278-4.571-10.005-6.856-17.183-6.856-7.148 0-12.876 2.285-17.182 6.856-4.278 4.57-6.417 10.459-6.417 17.666v1.406Zm8.921-1.406c0-4.805 1.231-8.877 3.692-12.217 2.461-3.34 6.123-5.01 10.986-5.01 4.893 0 8.569 1.67 11.03 5.01 2.461 3.34 3.692 7.412 3.692 12.217v1.406c0 4.834-1.231 8.921-3.692 12.261-2.461 3.34-6.137 5.009-11.03 5.009-4.863 0-8.525-1.669-10.986-5.009-2.461-3.34-3.692-7.427-3.692-12.261v-1.406Zm45.835 1.406c0 7.236 2.139 13.14 6.416 17.71 4.307 4.57 10.049 6.855 17.227 6.855 7.148 0 12.861-2.285 17.139-6.855 4.306-4.57 6.46-10.474 6.46-17.71v-1.406c0-7.207-2.154-13.096-6.46-17.666-4.278-4.571-10.005-6.856-17.183-6.856-7.148 0-12.876 2.285-17.183 6.856-4.277 4.57-6.416 10.459-6.416 17.666v1.406Zm8.921-1.406c0-4.805 1.231-8.877 3.692-12.217 2.461-3.34 6.123-5.01 10.986-5.01 4.893 0 8.569 1.67 11.03 5.01 2.461 3.34 3.692 7.412 3.692 12.217v1.406c0 4.834-1.231 8.921-3.692 12.261-2.461 3.34-6.137 5.009-11.03 5.009-4.863 0-8.525-1.669-10.986-5.009-2.461-3.34-3.692-7.427-3.692-12.261v-1.406Zm45.835 1.406c0 6.973 1.89 12.744 5.669 17.314 3.809 4.541 8.877 6.812 15.205 6.812 3.545 0 6.651-.689 9.317-2.066 2.666-1.406 4.643-3.09 5.932-5.053h.22l.395 6.24h7.911v-67.5h-8.702v25.312c-1.494-1.992-3.5-3.574-6.02-4.746-2.49-1.201-5.508-1.801-9.053-1.801-6.328 0-11.396 2.27-15.205 6.811-3.779 4.541-5.669 10.298-5.669 17.271v1.406Zm8.921 0v-1.406c0-4.717 1.113-8.687 3.34-11.909 2.256-3.252 5.786-4.878 10.591-4.878 3.222 0 5.962.835 8.218 2.504 2.255 1.641 3.881 3.516 4.877 5.625v18.765c-.996 2.109-2.622 3.999-4.877 5.669-2.256 1.641-4.996 2.461-8.218 2.461-4.805 0-8.335-1.611-10.591-4.834-2.227-3.252-3.34-7.251-3.34-11.997ZM668.774 320h8.702v-33.311c1.259-2.343 2.915-4.248 4.965-5.712 2.08-1.495 4.512-2.242 7.295-2.242 3.223 0 5.713.85 7.471 2.549 1.758 1.699 2.637 4.527 2.637 8.482V320h8.745v-33.311c1.26-2.343 2.915-4.248 4.966-5.712 2.08-1.495 4.511-2.242 7.295-2.242 3.222 0 5.698.85 7.426 2.549 1.758 1.699 2.652 4.527 2.681 8.482V320h8.701v-30.146c0-6.68-1.479-11.441-4.438-14.283-2.93-2.871-6.988-4.306-12.173-4.306-3.34 0-6.328.644-8.965 1.933-2.637 1.26-5.024 3.34-7.163 6.24h-.22c-1.26-2.841-3.12-4.907-5.581-6.196-2.431-1.318-5.332-1.977-8.701-1.977-3.135 0-5.977.63-8.525 1.889-2.549 1.26-4.746 3.033-6.592 5.318h-.22l-.395-6.328h-7.911V320Zm80.948-14.062c0 4.833 1.655 8.54 4.966 11.118 3.339 2.548 7.368 3.823 12.084 3.823 4.219 0 7.662-.762 10.328-2.285 2.666-1.524 4.599-3.267 5.8-5.23.088 1.201.308 2.417.66 3.648.351 1.23.747 2.226 1.186 2.988h8.438v-.703c-.557-1.289-.996-2.769-1.319-4.439a31.798 31.798 0 0 1-.439-5.405v-22.72c0-5.273-1.67-9.243-5.01-11.909-3.34-2.666-8.027-3.999-14.062-3.999-6.065 0-10.884 1.436-14.458 4.307-3.545 2.871-5.318 6.225-5.318 10.063v.22h8.701v-.22c0-1.963.835-3.676 2.505-5.141 1.67-1.494 4.439-2.242 8.306-2.242 3.896 0 6.636.835 8.218 2.505 1.611 1.641 2.417 3.78 2.417 6.416v3.78h-11.558c-6.211 0-11.338 1.362-15.381 4.087-4.043 2.695-6.064 6.474-6.064 11.338Zm8.701-.44c0-2.666 1.157-4.775 3.472-6.328 2.314-1.582 5.712-2.373 10.195-2.373h10.635v6.636c0 2.49-1.436 4.863-4.307 7.119-2.871 2.226-6.079 3.34-9.624 3.34-3.545 0-6.167-.733-7.866-2.198-1.67-1.494-2.505-3.559-2.505-6.196ZM804.39 320h8.701v-33.311c1.26-2.343 2.973-4.248 5.141-5.712 2.168-1.495 4.688-2.242 7.559-2.242 3.369 0 5.962.85 7.778 2.549 1.846 1.699 2.769 4.527 2.769 8.482V320h8.745v-30.146c0-6.709-1.509-11.485-4.526-14.327-2.989-2.841-7.017-4.262-12.085-4.262-3.223 0-6.153.63-8.789 1.889-2.637 1.231-4.893 3.003-6.768 5.318h-.22l-.395-6.328h-7.91V320Zm72.246-14.062v.219c0 4.571 1.743 8.247 5.229 11.031 3.516 2.753 8.614 4.13 15.293 4.13 6.68 0 11.69-1.362 15.03-4.087 3.369-2.724 5.053-6.21 5.053-10.459 0-4.248-1.45-7.543-4.35-9.887-2.871-2.344-7.09-4.073-12.657-5.186-5.537-1.113-9.126-2.197-10.766-3.252-1.612-1.084-2.417-2.534-2.417-4.35 0-1.758.791-3.252 2.373-4.483 1.582-1.23 4.16-1.845 7.734-1.845s6.211.688 7.91 2.065c1.7 1.377 2.549 3.237 2.549 5.581v.22h8.657v-.22c0-4.365-1.728-7.881-5.185-10.547-3.428-2.695-8.071-4.043-13.931-4.043-5.742 0-10.312 1.304-13.711 3.911-3.369 2.608-5.053 5.889-5.053 9.844 0 3.955 1.45 7.075 4.35 9.36 2.901 2.286 7.119 3.985 12.656 5.098 5.567 1.113 9.141 2.241 10.723 3.384 1.582 1.113 2.373 2.724 2.373 4.834 0 2.051-1.011 3.75-3.032 5.098-1.992 1.318-4.761 1.977-8.306 1.977-3.545 0-6.401-.688-8.569-2.065-2.168-1.407-3.252-3.443-3.252-6.109v-.219h-8.701Zm47.856-9.185c0 7.236 2.066 13.14 6.196 17.71 4.131 4.57 10.079 6.855 17.842 6.855 4.746 0 8.775-.937 12.085-2.812 3.34-1.904 5.786-3.97 7.339-6.196l-5.625-4.747c-1.406 1.788-3.267 3.326-5.581 4.615-2.285 1.289-5.024 1.933-8.218 1.933-5.185 0-9.023-1.67-11.513-5.009-2.461-3.37-3.692-7.486-3.692-12.349v-1.406c0-4.864 1.172-8.965 3.516-12.305 2.373-3.34 5.801-5.01 10.283-5.01 4.541 0 7.749 1.275 9.624 3.823 1.904 2.52 2.856 5.699 2.856 9.537v-.132h-29.707v6.987h38.541v-3.691c0-7.266-1.846-13.037-5.538-17.315-3.662-4.277-8.921-6.416-15.776-6.416-6.797 0-12.275 2.285-16.436 6.856-4.13 4.57-6.196 10.459-6.196 17.666v1.406Zm47.329-17.754h28.429v-6.855h-28.429v6.855Zm8.921 29.048c0 4.57 1.07 7.925 3.208 10.063 2.168 2.139 5.069 3.208 8.701 3.208 1.524 0 2.93-.131 4.219-.395 1.289-.264 2.344-.571 3.16-.923v-7.207a22.57 22.57 0 0 1-2.589.703c-.82.176-1.67.264-2.548.264-1.875 0-3.252-.44-4.131-1.319-.879-.879-1.319-2.343-1.319-4.394v-45.703h-8.701v45.703Zm43.728-29.048h28.43v-6.855h-28.43v6.855Zm8.92 29.048c0 4.57 1.07 7.925 3.21 10.063 2.16 2.139 5.07 3.208 8.7 3.208 1.52 0 2.93-.131 4.22-.395 1.29-.264 2.34-.571 3.16-.923v-7.207c-.88.293-1.74.527-2.59.703-.82.176-1.67.264-2.55.264-1.88 0-3.25-.44-4.13-1.319-.88-.879-1.32-2.343-1.32-4.394v-45.703h-8.7v45.703Zm24.52-11.294c0 7.236 2.14 13.14 6.42 17.71 4.3 4.57 10.05 6.855 17.22 6.855 7.15 0 12.86-2.285 17.14-6.855 4.31-4.57 6.46-10.474 6.46-17.71v-1.406c0-7.207-2.15-13.096-6.46-17.666-4.28-4.571-10-6.856-17.18-6.856-7.15 0-12.88 2.285-17.18 6.856-4.28 4.57-6.42 10.459-6.42 17.666v1.406Zm8.92-1.406c0-4.805 1.23-8.877 3.69-12.217s6.13-5.01 10.99-5.01c4.89 0 8.57 1.67 11.03 5.01 2.46 3.34 3.69 7.412 3.69 12.217v1.406c0 4.834-1.23 8.921-3.69 12.261s-6.14 5.009-11.03 5.009c-4.86 0-8.53-1.669-10.99-5.009-2.46-3.34-3.69-7.427-3.69-12.261v-1.406Zm65.17-23.203L1147.12 320h7.38l10.68-31.509c.41-1.172.79-2.344 1.14-3.515.38-1.172.74-2.344 1.06-3.516h.26c.32 1.172.66 2.344 1.01 3.516.38 1.171.78 2.343 1.19 3.515L1180.47 320h7.34l15.12-47.856h-8l-8.92 30.717c-.35 1.172-.69 2.344-1.01 3.516a24.3 24.3 0 0 0-.7 3.516h-.27a36.423 36.423 0 0 0-.7-3.516 39.054 39.054 0 0 0-1.05-3.516l-10.6-30.717h-7.82l-10.59 30.717a39.054 39.054 0 0 0-1.05 3.516c-.3 1.172-.53 2.344-.71 3.516h-.26a25.725 25.725 0 0 0-.7-3.516c-.33-1.172-.66-2.344-1.01-3.516l-8.92-30.717H1132Zm75.76 24.609c0 7.236 2.14 13.14 6.42 17.71 4.31 4.57 10.05 6.855 17.23 6.855 7.14 0 12.86-2.285 17.13-6.855 4.31-4.57 6.46-10.474 6.46-17.71v-1.406c0-7.207-2.15-13.096-6.46-17.666-4.27-4.571-10-6.856-17.18-6.856-7.15 0-12.87 2.285-17.18 6.856-4.28 4.57-6.42 10.459-6.42 17.666v1.406Zm8.92-1.406c0-4.805 1.24-8.877 3.7-12.217s6.12-5.01 10.98-5.01c4.89 0 8.57 1.67 11.03 5.01 2.46 3.34 3.69 7.412 3.69 12.217v1.406c0 4.834-1.23 8.921-3.69 12.261s-6.14 5.009-11.03 5.009c-4.86 0-8.52-1.669-10.98-5.009-2.46-3.34-3.7-7.427-3.7-12.261v-1.406ZM1265.29 320h8.7v-33.135c1-2.109 2.5-3.882 4.53-5.317 2.02-1.436 4.48-2.153 7.38-2.153.82 0 1.57.029 2.24.087.67.059 1.32.147 1.93.264v-8.306c-.29-.117-.82-.249-1.58-.395-.73-.147-1.43-.22-2.11-.22-2.9 0-5.4.762-7.51 2.285-2.08 1.494-3.77 3.238-5.06 5.23h-.22l-.39-6.196h-7.91V320Zm32.61 0h8.7v-16.479l31.15-31.377h-10.32l-20.83 21.665V252.5h-8.7V320Zm32.03 0h10.5l-24.3-31.245-5.75 5.976L1329.93 320Zm35.73-14.062c0 4.833 1.65 8.54 4.96 11.118 3.34 2.548 7.37 3.823 12.09 3.823 4.22 0 7.66-.762 10.33-2.285 2.66-1.524 4.6-3.267 5.8-5.23.09 1.201.31 2.417.66 3.648.35 1.23.74 2.226 1.18 2.988h8.44v-.703c-.56-1.289-1-2.769-1.32-4.439a32.106 32.106 0 0 1-.44-5.405v-22.72c0-5.273-1.67-9.243-5.01-11.909-3.34-2.666-8.02-3.999-14.06-3.999-6.06 0-10.88 1.436-14.46 4.307-3.54 2.871-5.31 6.225-5.31 10.063v.22h8.7v-.22c0-1.963.83-3.676 2.5-5.141 1.67-1.494 4.44-2.242 8.31-2.242 3.89 0 6.63.835 8.22 2.505 1.61 1.641 2.41 3.78 2.41 6.416v3.78h-11.56c-6.21 0-11.33 1.362-15.38 4.087-4.04 2.695-6.06 6.474-6.06 11.338Zm8.7-.44c0-2.666 1.16-4.775 3.47-6.328 2.32-1.582 5.71-2.373 10.2-2.373h10.63v6.636c0 2.49-1.43 4.863-4.3 7.119-2.88 2.226-6.08 3.34-9.63 3.34-3.54 0-6.17-.733-7.86-2.198-1.67-1.494-2.51-3.559-2.51-6.196Zm39.46-26.499h28.44v-6.855h-28.44v6.855Zm8.92 29.048c0 4.57 1.07 7.925 3.21 10.063 2.17 2.139 5.07 3.208 8.7 3.208 1.53 0 2.93-.131 4.22-.395 1.29-.264 2.35-.571 3.17-.923v-7.207c-.88.293-1.75.527-2.6.703-.82.176-1.67.264-2.55.264-1.87 0-3.25-.44-4.13-1.319-.88-.879-1.31-2.343-1.31-4.394v-45.703h-8.71v45.703Zm47.47-11.294c0 7.236 2.13 13.14 6.41 17.71 4.31 4.57 10.05 6.855 17.23 6.855 7.15 0 12.86-2.285 17.14-6.855 4.3-4.57 6.46-10.474 6.46-17.71v-1.406c0-7.207-2.16-13.096-6.46-17.666-4.28-4.571-10.01-6.856-17.19-6.856-7.14 0-12.87 2.285-17.18 6.856-4.28 4.57-6.41 10.459-6.41 17.666v1.406Zm8.92-1.406c0-4.805 1.23-8.877 3.69-12.217s6.12-5.01 10.98-5.01c4.9 0 8.57 1.67 11.03 5.01 2.46 3.34 3.7 7.412 3.7 12.217v1.406c0 4.834-1.24 8.921-3.7 12.261s-6.13 5.009-11.03 5.009c-4.86 0-8.52-1.669-10.98-5.009-2.46-3.34-3.69-7.427-3.69-12.261v-1.406Zm48.6 24.653h8.7v-33.311c1.26-2.343 2.97-4.248 5.14-5.712 2.17-1.495 4.69-2.242 7.56-2.242 3.37 0 5.96.85 7.78 2.549 1.84 1.699 2.77 4.527 2.77 8.482V320h8.74v-30.146c0-6.709-1.51-11.485-4.52-14.327-2.99-2.841-7.02-4.262-12.09-4.262-3.22 0-6.15.63-8.79 1.889-2.63 1.231-4.89 3.003-6.77 5.318h-.21l-.4-6.328h-7.91V320Zm50.49-23.247c0 7.236 2.05 13.14 6.16 17.71 4.13 4.57 9.79 6.855 17 6.855 6.68 0 11.75-1.714 15.21-5.141 3.48-3.428 5.23-7.251 5.23-11.47v-.22h-8.49v.22c0 2.461-.95 4.644-2.85 6.548-1.88 1.875-4.91 2.812-9.1 2.812-4.89 0-8.49-1.67-10.81-5.009-2.28-3.34-3.43-7.442-3.43-12.305v-1.406c0-4.834 1.15-8.921 3.43-12.261 2.32-3.34 5.92-5.01 10.81-5.01 4.19 0 7.22.952 9.1 2.857 1.9 1.875 2.85 4.043 2.85 6.504v.219h8.49v-.219c0-4.219-1.75-8.042-5.23-11.47-3.46-3.428-8.53-5.142-15.21-5.142-7.21 0-12.87 2.285-17 6.856-4.11 4.57-6.16 10.459-6.16 17.666v1.406Zm50.63 0c0 7.236 2.06 13.14 6.19 17.71 4.13 4.57 10.08 6.855 17.85 6.855 4.74 0 8.77-.937 12.08-2.812 3.34-1.904 5.79-3.97 7.34-6.196l-5.63-4.747c-1.4 1.788-3.26 3.326-5.58 4.615-2.28 1.289-5.02 1.933-8.21 1.933-5.19 0-9.03-1.67-11.52-5.009-2.46-3.37-3.69-7.486-3.69-12.349v-1.406c0-4.864 1.17-8.965 3.52-12.305 2.37-3.34 5.8-5.01 10.28-5.01 4.54 0 7.75 1.275 9.62 3.823 1.91 2.52 2.86 5.699 2.86 9.537v-.132h-29.71v6.987h38.54v-3.691c0-7.266-1.84-13.037-5.53-17.315-3.67-4.277-8.93-6.416-15.78-6.416-6.8 0-12.28 2.285-16.44 6.856-4.13 4.57-6.19 10.459-6.19 17.666v1.406Z"/></svg>