<svg xmlns="http://www.w3.org/2000/svg" width="1920" height="1080" fill="none"><path fill="#3C4043" d="M841.797 278v-60.9h12.064v19.14l-1.16-4.64c.851-2.939 2.282-5.607 4.292-8.004 2.088-2.397 4.447-4.292 7.076-5.684 2.707-1.392 5.491-2.088 8.352-2.088 1.315 0 2.552.116 3.712.348 1.238.232 2.204.503 2.9.812l-3.132 12.992c-.928-.387-1.972-.696-3.132-.928a11.781 11.781 0 0 0-3.248-.464 14.82 14.82 0 0 0-6.032 1.276c-1.856.773-3.518 1.895-4.988 3.364-1.392 1.392-2.513 3.055-3.364 4.988-.85 1.856-1.276 3.905-1.276 6.148V278h-12.064Zm46.785 0v-60.9h11.948v12.528l-2.088 1.392c.774-2.707 2.282-5.181 4.524-7.424 2.243-2.32 4.911-4.176 8.004-5.568 3.094-1.469 6.264-2.204 9.512-2.204 4.64 0 8.507.928 11.6 2.784 3.094 1.779 5.414 4.524 6.96 8.236 1.547 3.712 2.32 8.391 2.32 14.036V278h-11.948v-36.308c0-3.48-.464-6.341-1.392-8.584-.928-2.32-2.358-3.983-4.292-4.988-1.933-1.083-4.33-1.547-7.192-1.392-2.32 0-4.446.387-6.38 1.16-1.933.696-3.634 1.701-5.104 3.016a15.545 15.545 0 0 0-3.364 4.64c-.773 1.701-1.16 3.557-1.16 5.568V278h-11.948Zm101.268 0v-60.9h12.06v12.992l-2.2 1.392c.62-2.011 1.59-3.944 2.9-5.8a22.99 22.99 0 0 1 4.99-4.872 27.093 27.093 0 0 1 6.38-3.48 20.4 20.4 0 0 1 7.07-1.276c3.48 0 6.54.58 9.17 1.74 2.63 1.16 4.79 2.9 6.49 5.22 1.71 2.32 2.94 5.22 3.72 8.7l-1.86-.464.81-1.972c.85-1.779 2.01-3.441 3.48-4.988a28.278 28.278 0 0 1 5.22-4.292 26.536 26.536 0 0 1 6.15-2.9c2.17-.696 4.29-1.044 6.38-1.044 4.56 0 8.31.928 11.25 2.784 3.02 1.856 5.26 4.679 6.73 8.468 1.55 3.789 2.32 8.507 2.32 14.152V278h-12.06v-35.844c0-3.48-.47-6.303-1.4-8.468-.85-2.243-2.16-3.905-3.94-4.988-1.78-1.083-4.06-1.624-6.84-1.624-2.17 0-4.22.387-6.15 1.16a14.28 14.28 0 0 0-4.87 3.016 13.822 13.822 0 0 0-3.25 4.64c-.77 1.701-1.16 3.596-1.16 5.684V278h-12.07v-36.076c0-3.171-.46-5.839-1.39-8.004-.93-2.243-2.28-3.944-4.06-5.104-1.78-1.16-3.94-1.74-6.49-1.74-2.17 0-4.18.387-6.04 1.16-1.85.696-3.48 1.701-4.87 3.016-1.39 1.237-2.47 2.745-3.25 4.524-.77 1.701-1.16 3.557-1.16 5.568V278h-12.06Zm-91.932 195v-60.9h11.948V473h-11.948Zm5.8-74.356c-2.552 0-4.524-.657-5.916-1.972-1.392-1.315-2.088-3.171-2.088-5.568 0-2.243.696-4.06 2.088-5.452 1.469-1.392 3.441-2.088 5.916-2.088 2.552 0 4.524.657 5.916 1.972 1.392 1.315 2.088 3.171 2.088 5.568 0 2.243-.735 4.06-2.204 5.452-1.392 1.392-3.326 2.088-5.8 2.088Zm26.253 46.4a712.95 712.95 0 0 1-1.508-15.08 555.545 555.545 0 0 1-.928-15.544 320.054 320.054 0 0 1-.348-14.5v-8.12h12.528v8.12c0 4.795-.116 9.821-.348 15.08a346.967 346.967 0 0 1-1.044 15.66 326.68 326.68 0 0 1-1.392 14.384h-6.96Zm3.132 29.232c-2.552 0-4.524-.735-5.916-2.204-1.392-1.547-2.088-3.712-2.088-6.496 0-2.552.735-4.64 2.204-6.264 1.469-1.624 3.403-2.436 5.8-2.436 2.552 0 4.524.773 5.916 2.32 1.392 1.469 2.088 3.596 2.088 6.38 0 2.552-.735 4.64-2.204 6.264-1.469 1.624-3.403 2.436-5.8 2.436ZM955.877 473v-85.84h11.948V473h-11.948Zm45.703-5.684v-65.888l4.29 3.248-16.008 8.468-3.364-10.904 21.692-11.6h6.03v76.676h-12.64ZM988.702 473v-12.064h38.748V473h-38.748ZM810.041 669.16c-5.955 0-11.291-1.353-16.008-4.06-4.64-2.784-8.314-6.535-11.02-11.252-2.707-4.795-4.06-10.247-4.06-16.356 0-6.109 1.353-11.523 4.06-16.24 2.706-4.795 6.38-8.545 11.02-11.252 4.717-2.784 10.053-4.176 16.008-4.176 5.877 0 11.136 1.392 15.776 4.176 4.717 2.707 8.429 6.457 11.136 11.252 2.706 4.717 4.06 10.131 4.06 16.24 0 6.109-1.354 11.561-4.06 16.356-2.707 4.717-6.419 8.468-11.136 11.252-4.64 2.707-9.899 4.06-15.776 4.06Zm0-10.904c3.634 0 6.882-.889 9.744-2.668 2.861-1.856 5.104-4.331 6.728-7.424 1.624-3.171 2.397-6.728 2.32-10.672.077-4.021-.696-7.579-2.32-10.672-1.624-3.171-3.867-5.645-6.728-7.424-2.862-1.779-6.11-2.668-9.744-2.668-3.635 0-6.922.928-9.86 2.784-2.862 1.779-5.104 4.253-6.728 7.424-1.624 3.093-2.398 6.612-2.32 10.556-.078 3.944.696 7.501 2.32 10.672 1.624 3.093 3.866 5.568 6.728 7.424 2.938 1.779 6.225 2.668 9.86 2.668ZM879.9 669.16c-5.646 0-10.711-1.392-15.196-4.176-4.408-2.784-7.927-6.573-10.556-11.368-2.552-4.795-3.828-10.169-3.828-16.124 0-5.955 1.276-11.329 3.828-16.124 2.629-4.795 6.148-8.584 10.556-11.368 4.485-2.784 9.55-4.176 15.196-4.176 5.413 0 10.324 1.121 14.732 3.364 4.485 2.165 7.888 5.143 10.208 8.932l-6.612 8.12c-1.238-1.779-2.823-3.403-4.756-4.872a25.65 25.65 0 0 0-6.148-3.48c-2.166-.851-4.254-1.276-6.264-1.276-3.712 0-7.038.928-9.976 2.784-2.862 1.779-5.143 4.253-6.844 7.424-1.702 3.171-2.552 6.728-2.552 10.672 0 3.944.889 7.501 2.668 10.672 1.778 3.093 4.137 5.568 7.076 7.424 2.938 1.856 6.186 2.784 9.744 2.784 2.088 0 4.098-.348 6.032-1.044 2.01-.696 3.944-1.74 5.8-3.132 1.856-1.392 3.596-3.093 5.22-5.104l6.612 8.12c-2.475 3.48-6.032 6.341-10.672 8.584-4.563 2.243-9.319 3.364-14.268 3.364Zm63.006 0c-6.187 0-11.523-1.701-16.008-5.104-4.408-3.403-7.811-8.197-10.208-14.384-2.398-6.264-3.596-13.688-3.596-22.272 0-8.584 1.198-15.969 3.596-22.156 2.397-6.264 5.8-11.097 10.208-14.5 4.485-3.403 9.821-5.104 16.008-5.104 6.186 0 11.522 1.701 16.008 5.104 4.485 3.403 7.926 8.236 10.324 14.5 2.397 6.187 3.596 13.572 3.596 22.156s-1.199 16.008-3.596 22.272c-2.398 6.187-5.839 10.981-10.324 14.384-4.486 3.403-9.822 5.104-16.008 5.104Zm0-11.368c5.645 0 10.014-2.629 13.108-7.888 3.093-5.336 4.64-12.837 4.64-22.504 0-9.667-1.547-17.129-4.64-22.388-3.094-5.336-7.463-8.004-13.108-8.004-5.646 0-10.015 2.668-13.108 8.004-3.094 5.259-4.64 12.721-4.64 22.388 0 9.667 1.546 17.168 4.64 22.504 3.093 5.259 7.462 7.888 13.108 7.888Zm80.664 11.368c-5.72 0-11.02-1.044-15.89-3.132a39.756 39.756 0 0 1-12.641-8.7c-3.558-3.789-6.342-8.197-8.352-13.224-1.934-5.104-2.9-10.672-2.9-16.704s.966-11.561 2.9-16.588c2.01-5.104 4.794-9.512 8.352-13.224a38.884 38.884 0 0 1 12.641-8.816c4.87-2.088 10.17-3.132 15.89-3.132 5.73 0 10.99 1.044 15.78 3.132 4.87 2.088 9.09 5.027 12.64 8.816 3.64 3.789 6.42 8.236 8.36 13.34 2.01 5.027 3.01 10.517 3.01 16.472 0 5.955-1 11.484-3.01 16.588-1.94 5.027-4.72 9.435-8.36 13.224-3.55 3.789-7.77 6.728-12.64 8.816-4.79 2.088-10.05 3.132-15.78 3.132Zm0-12.18c3.95 0 7.54-.735 10.79-2.204 3.33-1.469 6.19-3.519 8.59-6.148 2.39-2.707 4.25-5.839 5.56-9.396 1.4-3.635 2.09-7.579 2.09-11.832 0-4.253-.69-8.159-2.09-11.716-1.31-3.635-3.17-6.767-5.56-9.396a24.624 24.624 0 0 0-8.59-6.264c-3.25-1.469-6.84-2.204-10.79-2.204-3.94 0-7.57.735-10.9 2.204a26.841 26.841 0 0 0-8.58 6.148c-2.4 2.629-4.257 5.761-5.571 9.396-1.315 3.557-1.972 7.501-1.972 11.832 0 4.253.657 8.197 1.972 11.832 1.314 3.635 3.171 6.767 5.571 9.396a26.841 26.841 0 0 0 8.58 6.148c3.33 1.469 6.96 2.204 10.9 2.204Zm89.7 12.18c-5.65 0-10.83-1.005-15.54-3.016-4.72-2.011-8.82-4.872-12.3-8.584-3.48-3.789-6.19-8.236-8.12-13.34-1.86-5.104-2.78-10.711-2.78-16.82 0-5.8 1-11.175 3.01-16.124 2.09-5.027 4.95-9.435 8.59-13.224a38.733 38.733 0 0 1 12.64-8.816c4.79-2.088 9.98-3.132 15.54-3.132 3.95 0 7.78.619 11.49 1.856 3.79 1.16 7.19 2.823 10.21 4.988 3.09 2.088 5.6 4.485 7.54 7.192l-8.36 8.7c-2.24-2.243-4.52-4.099-6.84-5.568-2.24-1.547-4.56-2.707-6.96-3.48a22.262 22.262 0 0 0-7.08-1.16c-3.79 0-7.34.735-10.67 2.204a26.164 26.164 0 0 0-8.58 5.916c-2.4 2.552-4.29 5.607-5.69 9.164-1.39 3.48-2.08 7.308-2.08 11.484 0 4.408.65 8.429 1.97 12.064 1.39 3.557 3.32 6.612 5.8 9.164 2.47 2.552 5.41 4.524 8.81 5.916 3.48 1.315 7.31 1.972 11.49 1.972 2.55 0 5.06-.348 7.54-1.044a28.036 28.036 0 0 0 6.96-3.016 31.498 31.498 0 0 0 5.91-4.64l6.27 10.208c-1.78 2.088-4.22 3.983-7.31 5.684-3.02 1.701-6.42 3.055-10.21 4.06a46.192 46.192 0 0 1-11.25 1.392Zm-362.228 195c-5.027 0-9.628-1.392-13.804-4.176-4.099-2.784-7.386-6.573-9.86-11.368-2.475-4.795-3.712-10.208-3.712-16.24 0-6.109 1.237-11.523 3.712-16.24 2.552-4.795 5.954-8.545 10.208-11.252 4.33-2.707 9.164-4.06 14.5-4.06 3.17 0 6.07.464 8.7 1.392 2.629.928 4.91 2.243 6.844 3.944 2.01 1.624 3.634 3.519 4.872 5.684a17.458 17.458 0 0 1 2.436 6.96l-2.668-.928V802.1h12.064V863H772.27v-14.5l2.784-.812c-.464 2.088-1.431 4.137-2.9 6.148-1.392 1.933-3.21 3.673-5.452 5.22-2.166 1.547-4.602 2.784-7.308 3.712-2.63.928-5.414 1.392-8.352 1.392Zm3.132-11.02c3.634 0 6.844-.889 9.628-2.668 2.784-1.779 4.949-4.215 6.496-7.308 1.624-3.171 2.436-6.767 2.436-10.788 0-3.944-.812-7.463-2.436-10.556-1.547-3.093-3.712-5.529-6.496-7.308-2.784-1.779-5.994-2.668-9.628-2.668-3.558 0-6.728.889-9.512 2.668-2.707 1.779-4.872 4.215-6.496 7.308-1.547 3.093-2.32 6.612-2.32 10.556 0 4.021.773 7.617 2.32 10.788 1.624 3.093 3.789 5.529 6.496 7.308 2.784 1.779 5.954 2.668 9.512 2.668Zm72.014 10.208c-5.027 0-9.628-1.044-13.804-3.132-4.099-2.165-7.385-5.027-9.86-8.584-2.475-3.557-3.712-7.501-3.712-11.832 0-2.397.309-4.64.928-6.728a20.36 20.36 0 0 1 3.016-5.916c1.392-1.779 3.055-3.403 4.988-4.872 1.933-1.469 4.176-2.784 6.728-3.944l-.696 2.436c-2.011-.773-3.828-1.701-5.452-2.784a21.828 21.828 0 0 1-4.06-3.944 17.043 17.043 0 0 1-2.668-4.756 17.5 17.5 0 0 1-.812-5.336c0-4.099 1.121-7.811 3.364-11.136 2.32-3.325 5.375-5.993 9.164-8.004 3.867-2.011 8.159-3.016 12.876-3.016 4.717 0 8.971 1.005 12.76 3.016 3.867 2.011 6.921 4.679 9.164 8.004 2.32 3.325 3.48 7.037 3.48 11.136 0 1.856-.309 3.635-.928 5.336a14.799 14.799 0 0 1-2.436 4.64c-1.083 1.392-2.475 2.668-4.176 3.828-1.624 1.16-3.48 2.165-5.568 3.016l-.348-1.972c2.32.928 4.408 2.127 6.264 3.596a25.397 25.397 0 0 1 4.988 4.988c1.392 1.856 2.436 3.828 3.132 5.916a18.562 18.562 0 0 1 1.16 6.496c0 4.408-1.237 8.391-3.712 11.948-2.475 3.557-5.8 6.38-9.976 8.468-4.099 2.088-8.7 3.132-13.804 3.132Zm0-11.6c2.861 0 5.413-.541 7.656-1.624 2.32-1.083 4.137-2.552 5.452-4.408 1.315-1.856 1.972-3.983 1.972-6.38 0-2.552-.657-4.795-1.972-6.728-1.315-2.011-3.132-3.596-5.452-4.756-2.243-1.16-4.795-1.74-7.656-1.74-2.861 0-5.413.58-7.656 1.74-2.243 1.16-4.021 2.745-5.336 4.756-1.315 1.933-1.972 4.176-1.972 6.728 0 2.32.657 4.408 1.972 6.264 1.315 1.856 3.093 3.364 5.336 4.524 2.243 1.083 4.795 1.624 7.656 1.624Zm0-36.772c2.475 0 4.679-.464 6.612-1.392 2.011-.928 3.557-2.165 4.64-3.712 1.16-1.624 1.74-3.48 1.74-5.568 0-2.088-.58-3.944-1.74-5.568-1.083-1.624-2.629-2.9-4.64-3.828-1.933-1.005-4.137-1.508-6.612-1.508-2.475 0-4.717.503-6.728 1.508-1.933.928-3.48 2.204-4.64 3.828-1.083 1.624-1.624 3.48-1.624 5.568 0 2.088.541 3.944 1.624 5.568 1.16 1.547 2.707 2.784 4.64 3.712 2.011.928 4.253 1.392 6.728 1.392ZM925.18 863c-4.022 0-7.772-.696-11.252-2.088-3.403-1.469-6.38-3.48-8.932-6.032-2.475-2.552-4.447-5.568-5.916-9.048-1.392-3.48-2.088-7.308-2.088-11.484 0-2.088.27-4.408.812-6.96.618-2.629 1.508-5.491 2.668-8.584 1.237-3.093 2.706-6.341 4.408-9.744 1.701-3.48 3.673-7.076 5.916-10.788l10.556-17.864h12.18l.464 1.16-12.76 21.46a254.32 254.32 0 0 0-6.264 11.252c-1.779 3.557-3.287 6.921-4.524 10.092-1.238 3.093-2.166 5.916-2.784 8.468l-2.784-11.948c1.469-2.397 3.054-4.485 4.756-6.264 1.701-1.856 3.518-3.403 5.452-4.64a25.051 25.051 0 0 1 6.264-2.784 24.355 24.355 0 0 1 6.728-.928c4.485 0 8.584 1.237 12.296 3.712 3.789 2.397 6.805 5.607 9.048 9.628 2.32 4.021 3.48 8.429 3.48 13.224 0 5.8-1.199 10.981-3.596 15.544-2.32 4.485-5.568 8.043-9.744 10.672-4.176 2.629-8.971 3.944-14.384 3.944Zm0-11.6c3.016 0 5.684-.696 8.004-2.088 2.397-1.469 4.253-3.48 5.568-6.032 1.392-2.629 2.088-5.607 2.088-8.932 0-2.861-.696-5.529-2.088-8.004-1.392-2.552-3.248-4.601-5.568-6.148-2.32-1.547-4.911-2.32-7.772-2.32-3.171 0-5.994.735-8.468 2.204-2.475 1.469-4.408 3.441-5.8 5.916-1.392 2.475-2.088 5.22-2.088 8.236 0 3.248.696 6.187 2.088 8.816 1.392 2.552 3.286 4.601 5.684 6.148 2.397 1.469 5.181 2.204 8.352 2.204Zm67.354 38.28c-4.331 0-8.661-.696-12.992-2.088-4.253-1.315-7.695-3.055-10.324-5.22l4.408-9.28c1.547 1.16 3.364 2.165 5.452 3.016a31.375 31.375 0 0 0 6.612 2.088 30.07 30.07 0 0 0 6.844.812c4.253 0 7.806-.696 10.676-2.088 2.86-1.392 5.02-3.441 6.49-6.148 1.47-2.707 2.21-6.071 2.21-10.092v-11.716l1.27.812c-.38 2.397-1.66 4.717-3.83 6.96-2.08 2.165-4.71 3.944-7.88 5.336-3.175 1.392-6.423 2.088-9.748 2.088-5.8 0-10.981-1.353-15.544-4.06-4.485-2.784-8.043-6.535-10.672-11.252-2.629-4.795-3.944-10.247-3.944-16.356 0-6.109 1.276-11.523 3.828-16.24 2.629-4.795 6.187-8.545 10.672-11.252 4.563-2.784 9.667-4.176 15.312-4.176 2.32 0 4.563.309 6.728.928a22.78 22.78 0 0 1 6.028 2.436c1.86 1.005 3.52 2.127 4.99 3.364 1.47 1.237 2.67 2.552 3.6 3.944.93 1.392 1.51 2.707 1.74 3.944l-2.55.928V802.1h11.94v57.188c0 4.872-.73 9.164-2.2 12.876-1.39 3.789-3.44 6.96-6.15 9.512-2.7 2.629-5.99 4.601-9.86 5.916-3.86 1.392-8.234 2.088-13.106 2.088Zm.464-36.54c3.789 0 7.152-.889 10.092-2.668 2.94-1.779 5.22-4.215 6.84-7.308 1.63-3.093 2.44-6.651 2.44-10.672 0-4.021-.85-7.579-2.55-10.672-1.63-3.171-3.91-5.645-6.85-7.424-2.86-1.779-6.183-2.668-9.972-2.668-3.712 0-7.037.928-9.976 2.784-2.861 1.779-5.143 4.253-6.844 7.424-1.624 3.093-2.436 6.612-2.436 10.556 0 3.944.812 7.501 2.436 10.672 1.701 3.093 3.983 5.529 6.844 7.308 2.939 1.779 6.264 2.668 9.976 2.668Zm103.552 11.02c-5.03 0-9.63-1.392-13.8-4.176-4.1-2.784-7.39-6.573-9.86-11.368-2.48-4.795-3.72-10.208-3.72-16.24 0-6.109 1.24-11.523 3.72-16.24 2.55-4.795 5.95-8.545 10.2-11.252 4.33-2.707 9.17-4.06 14.5-4.06 3.17 0 6.07.464 8.7 1.392 2.63.928 4.91 2.243 6.85 3.944 2.01 1.624 3.63 3.519 4.87 5.684 1.31 2.165 2.13 4.485 2.44 6.96l-2.67-.928V802.1h12.06V863h-12.06v-14.5l2.78-.812c-.46 2.088-1.43 4.137-2.9 6.148-1.39 1.933-3.21 3.673-5.45 5.22-2.17 1.547-4.6 2.784-7.31 3.712-2.63.928-5.41 1.392-8.35 1.392Zm3.13-11.02c3.64 0 6.85-.889 9.63-2.668 2.78-1.779 4.95-4.215 6.5-7.308 1.62-3.171 2.43-6.767 2.43-10.788 0-3.944-.81-7.463-2.43-10.556-1.55-3.093-3.72-5.529-6.5-7.308s-5.99-2.668-9.63-2.668c-3.56 0-6.73.889-9.51 2.668-2.71 1.779-4.87 4.215-6.5 7.308-1.54 3.093-2.32 6.612-2.32 10.556 0 4.021.78 7.617 2.32 10.788 1.63 3.093 3.79 5.529 6.5 7.308 2.78 1.779 5.95 2.668 9.51 2.668ZM1171 863c-4.02 0-7.77-.696-11.25-2.088-3.4-1.469-6.38-3.48-8.93-6.032-2.48-2.552-4.45-5.568-5.92-9.048-1.39-3.48-2.09-7.308-2.09-11.484 0-2.088.27-4.408.81-6.96.62-2.629 1.51-5.491 2.67-8.584 1.24-3.093 2.71-6.341 4.41-9.744 1.7-3.48 3.67-7.076 5.92-10.788l10.55-17.864h12.18l.47 1.16-12.76 21.46a258.874 258.874 0 0 0-6.27 11.252c-1.78 3.557-3.28 6.921-4.52 10.092-1.24 3.093-2.17 5.916-2.79 8.468l-2.78-11.948c1.47-2.397 3.05-4.485 4.76-6.264 1.7-1.856 3.51-3.403 5.45-4.64a25.122 25.122 0 0 1 6.26-2.784c2.17-.619 4.41-.928 6.73-.928 4.49 0 8.58 1.237 12.3 3.712 3.79 2.397 6.8 5.607 9.04 9.628 2.32 4.021 3.48 8.429 3.48 13.224 0 5.8-1.19 10.981-3.59 15.544-2.32 4.485-5.57 8.043-9.75 10.672-4.17 2.629-8.97 3.944-14.38 3.944Zm0-11.6c3.02 0 5.68-.696 8-2.088 2.4-1.469 4.26-3.48 5.57-6.032 1.39-2.629 2.09-5.607 2.09-8.932 0-2.861-.7-5.529-2.09-8.004-1.39-2.552-3.25-4.601-5.57-6.148-2.32-1.547-4.91-2.32-7.77-2.32-3.17 0-5.99.735-8.47 2.204-2.47 1.469-4.4 3.441-5.8 5.916-1.39 2.475-2.08 5.22-2.08 8.236 0 3.248.69 6.187 2.08 8.816 1.4 2.552 3.29 4.601 5.69 6.148 2.4 1.469 5.18 2.204 8.35 2.204ZM1652.33 278v-57.536h7.07l3.14 10.672c2.01-3.48 4.71-6.264 8.12-8.352 3.48-2.165 7.61-3.248 12.41-3.248v10.092h-1.74c-.54 0-1.09.039-1.63.116-6.57.541-11.17 2.823-13.8 6.844-2.55 4.021-3.83 9.589-3.83 16.704V278h-9.74Zm39.42 0v-57.536h7.19l2.55 8.7c1.63-2.707 3.91-4.988 6.85-6.844 2.94-1.856 6.84-2.784 11.71-2.784 6.96 0 11.87 2.049 14.73 6.148 2.87 4.021 4.3 9.319 4.3 15.892V278h-9.75v-33.524c0-2.939-.27-5.645-.81-8.12-.54-2.552-1.74-4.601-3.6-6.148-1.77-1.547-4.52-2.32-8.23-2.32-4.72 0-8.43 1.624-11.14 4.872-2.7 3.171-4.06 7.849-4.06 14.036V278h-9.74Zm95.83 0v-57.536h7.2l2.55 8.7c1.62-2.707 3.83-4.988 6.61-6.844 2.86-1.856 6.42-2.784 10.67-2.784 4.41 0 7.97.889 10.67 2.668 2.71 1.779 4.68 4.253 5.92 7.424 2.32-3.557 5.1-6.109 8.35-7.656 3.33-1.624 7-2.436 11.02-2.436 6.65 0 11.41 2.049 14.27 6.148 2.86 4.021 4.29 9.319 4.29 15.892V278h-9.74v-33.524c0-2.939-.31-5.645-.93-8.12-.54-2.552-1.7-4.601-3.48-6.148-1.7-1.547-4.33-2.32-7.89-2.32-4.17 0-7.54 1.624-10.09 4.872-2.47 3.171-3.71 7.849-3.71 14.036V278h-9.75v-33.524c0-2.939-.3-5.645-.92-8.12-.54-2.552-1.7-4.601-3.48-6.148-1.7-1.547-4.33-2.32-7.89-2.32-4.18 0-7.54 1.624-10.09 4.872-2.56 3.171-3.83 7.849-3.83 14.036V278h-9.75Zm-31.82 126.56c-1.93 0-3.63-.696-5.1-2.088-1.4-1.469-2.09-3.209-2.09-5.22 0-2.011.69-3.712 2.09-5.104 1.47-1.392 3.17-2.088 5.1-2.088 2.01 0 3.71.696 5.1 2.088 1.47 1.392 2.21 3.093 2.21 5.104s-.74 3.751-2.21 5.22c-1.39 1.392-3.09 2.088-5.1 2.088Zm-4.87 68.44v-49.764h-8.01v-7.772h17.75V473h-9.74Zm32.28-22.62-2.08-34.916v-19.952h10.32v19.952l-2.09 34.916h-6.15Zm3.02 24.012c-2.01 0-3.75-.735-5.22-2.204-1.47-1.469-2.2-3.209-2.2-5.22 0-2.088.73-3.867 2.2-5.336 1.47-1.469 3.21-2.204 5.22-2.204 2.09 0 3.87.735 5.34 2.204 1.46 1.469 2.2 3.248 2.2 5.336 0 2.011-.74 3.751-2.2 5.22-1.47 1.469-3.25 2.204-5.34 2.204Zm38.08-1.392c-3.64 0-6.46-.348-8.47-1.044-1.94-.773-3.29-2.204-4.06-4.292-.7-2.088-1.05-5.104-1.05-9.048v-62.988h9.75v61.364c0 2.939.31 4.911.93 5.916.61 1.005 2.28 1.508 4.98 1.508h2.21V473h-4.29Zm31.58 0v-58.464h-20.65v-7.772c3.71 0 7.15-.271 10.32-.812 3.25-.541 6.04-1.624 8.36-3.248 2.39-1.624 4.13-4.021 5.22-7.192h6.49V473h-9.74Zm-304.46 196.392c-3.33 0-6.61-.58-9.86-1.74-3.25-1.16-6.23-2.939-8.93-5.336-2.63-2.475-4.76-5.607-6.38-9.396-1.63-3.789-2.44-8.275-2.44-13.456 0-5.181.81-9.667 2.44-13.456 1.62-3.789 3.75-6.883 6.38-9.28 2.7-2.475 5.68-4.292 8.93-5.452 3.25-1.16 6.53-1.74 9.86-1.74 3.32 0 6.61.58 9.86 1.74 3.32 1.16 6.3 2.977 8.93 5.452 2.71 2.397 4.83 5.491 6.38 9.28 1.62 3.789 2.44 8.275 2.44 13.456 0 5.181-.82 9.667-2.44 13.456-1.55 3.789-3.67 6.921-6.38 9.396a25.744 25.744 0 0 1-8.93 5.336c-3.25 1.16-6.54 1.74-9.86 1.74Zm0-8.584c2.78 0 5.49-.735 8.12-2.204 2.63-1.547 4.79-3.867 6.49-6.96 1.7-3.171 2.56-7.231 2.56-12.18s-.86-8.971-2.56-12.064c-1.7-3.171-3.86-5.491-6.49-6.96-2.63-1.547-5.34-2.32-8.12-2.32-2.71 0-5.42.773-8.12 2.32-2.63 1.469-4.8 3.789-6.5 6.96-1.7 3.093-2.55 7.115-2.55 12.064s.85 9.009 2.55 12.18c1.7 3.093 3.87 5.413 6.5 6.96 2.7 1.469 5.41 2.204 8.12 2.204Zm63.19 8.584c-5.49 0-10.25-1.276-14.27-3.828-4.02-2.629-7.11-6.187-9.28-10.672-2.16-4.485-3.25-9.628-3.25-15.428 0-5.723 1.12-10.827 3.37-15.312 2.32-4.563 5.57-8.12 9.74-10.672 4.18-2.629 9.09-3.944 14.73-3.944 5.18 0 9.63 1.276 13.34 3.828 3.72 2.552 6.5 5.607 8.36 9.164l-8.94 3.248c-1.23-2.32-3.05-4.176-5.45-5.568-2.4-1.392-5.06-2.088-8-2.088-2.86 0-5.57.773-8.12 2.32-2.55 1.469-4.6 3.789-6.15 6.96-1.55 3.093-2.32 7.076-2.32 11.948 0 4.795.77 8.816 2.32 12.064 1.62 3.171 3.67 5.529 6.15 7.076 2.55 1.547 5.26 2.32 8.12 2.32 3.17 0 5.91-.696 8.23-2.088 2.4-1.469 4.22-3.287 5.46-5.452l8.93 3.248c-2.17 3.712-5.26 6.805-9.28 9.28-4.02 2.397-8.59 3.596-13.69 3.596Zm64.38 0c-9.98 0-17.59-3.441-22.85-10.324-5.18-6.96-7.77-16.936-7.77-29.928 0-12.915 2.59-22.813 7.77-29.696 5.26-6.883 12.87-10.324 22.85-10.324 9.98 0 17.55 3.441 22.74 10.324 5.25 6.883 7.88 16.781 7.88 29.696 0 12.992-2.63 22.968-7.88 29.928-5.19 6.883-12.76 10.324-22.74 10.324Zm18.1-23.432c1.31-4.64 1.97-10.247 1.97-16.82 0-10.131-1.67-17.903-4.99-23.316-3.25-5.413-8.28-8.12-15.08-8.12-5.03 0-9.16 1.547-12.41 4.64l30.51 43.616Zm-18.1 14.848c5.34 0 9.63-1.74 12.88-5.22l-30.63-43.964c-.77 2.397-1.35 5.065-1.74 8.004-.39 2.939-.58 6.109-.58 9.512 0 10.131 1.63 17.941 4.87 23.432 3.33 5.491 8.39 8.236 15.2 8.236Zm79.74 8.584c-7.42 0-13.84-1.701-19.25-5.104-5.42-3.48-9.63-8.236-12.65-14.268-2.94-6.109-4.41-13.069-4.41-20.88 0-7.811 1.47-14.693 4.41-20.648 3.02-6.032 7.23-10.749 12.65-14.152 5.41-3.48 11.83-5.22 19.25-5.22 7.5 0 13.96 1.74 19.37 5.22 5.42 3.403 9.59 8.12 12.53 14.152 3.02 5.955 4.53 12.837 4.53 20.648s-1.51 14.771-4.53 20.88c-2.94 6.032-7.11 10.788-12.53 14.268-5.41 3.403-11.87 5.104-19.37 5.104Zm0-9.164c4.72 0 8.97-1.199 12.76-3.596 3.87-2.397 6.92-5.877 9.17-10.44 2.24-4.64 3.36-10.324 3.36-17.052 0-6.651-1.12-12.257-3.36-16.82-2.25-4.64-5.3-8.12-9.17-10.44-3.79-2.397-8.04-3.596-12.76-3.596-4.64 0-8.89 1.199-12.76 3.596-3.79 2.32-6.8 5.8-9.05 10.44-2.24 4.563-3.36 10.169-3.36 16.82 0 6.728 1.12 12.412 3.36 17.052 2.25 4.563 5.26 8.043 9.05 10.44 3.87 2.397 8.12 3.596 12.76 3.596Zm83.12 9.164c-7.34 0-13.65-1.701-18.9-5.104-5.26-3.48-9.28-8.236-12.07-14.268-2.78-6.032-4.17-12.992-4.17-20.88 0-8.043 1.46-15.041 4.4-20.996 3.02-6.032 7.23-10.711 12.65-14.036 5.41-3.325 11.75-4.988 19.02-4.988 6.5 0 12.34 1.508 17.52 4.524 5.26 3.016 9.2 7.347 11.83 12.992l-9.51 3.48c-1.7-3.48-4.29-6.303-7.77-8.468-3.41-2.243-7.62-3.364-12.65-3.364-4.56 0-8.7 1.16-12.41 3.48-3.64 2.32-6.54 5.8-8.7 10.44-2.17 4.563-3.25 10.208-3.25 16.936 0 6.496 1.05 12.064 3.13 16.704 2.09 4.64 4.99 8.197 8.7 10.672 3.79 2.475 8.08 3.712 12.88 3.712 5.03 0 9.24-1.083 12.64-3.248 3.48-2.165 6.11-5.027 7.89-8.584l9.51 3.48c-2.78 5.723-6.88 10.092-12.29 13.108-5.42 2.939-11.56 4.408-18.45 4.408Zm-402.65 195c-3.63 0-6.96-.657-9.98-1.972-3.01-1.315-5.41-3.209-7.19-5.684-1.78-2.475-2.67-5.452-2.67-8.932 0-4.563 1.59-8.159 4.76-10.788 3.25-2.629 7.77-4.64 13.57-6.032 5.88-1.469 12.72-2.629 20.53-3.48.16-4.872-.81-8.623-2.9-11.252-2.08-2.629-5.45-3.944-10.09-3.944-3.48 0-6.34.812-8.58 2.436-2.17 1.547-3.56 3.712-4.18 6.496l-9.39-2.784c1.54-4.408 4.29-7.811 8.23-10.208 4.02-2.475 8.62-3.712 13.81-3.712 7.96 0 13.76 1.895 17.4 5.684 3.71 3.712 5.56 9.589 5.56 17.632v13.456c0 4.795.2 8.932.58 12.412.39 3.48.85 6.573 1.4 9.28h-8.94l-2.32-7.888c-1.7 2.861-4.13 5.143-7.3 6.844-3.17 1.624-7.27 2.436-12.3 2.436Zm2.09-7.772c3.01 0 5.88-.541 8.58-1.624 2.71-1.083 4.91-2.9 6.61-5.452 1.71-2.629 2.56-6.187 2.56-10.672v-3.596c-5.88.619-10.99 1.392-15.32 2.32-4.33.851-7.69 2.088-10.09 3.712-2.32 1.547-3.48 3.635-3.48 6.264 0 2.707.97 4.911 2.9 6.612 2.01 1.624 4.76 2.436 8.24 2.436Zm70.34 7.772c-5.34 0-10.17-.889-14.5-2.668-4.33-1.856-7.78-4.485-10.33-7.888-2.55-3.48-3.83-7.695-3.83-12.644 0-5.027 1.32-9.28 3.95-12.76 2.63-3.557 6.07-6.187 10.32-7.888-2.01-1.933-3.63-4.215-4.87-6.844-1.16-2.629-1.74-5.491-1.74-8.584 0-3.867.93-7.385 2.78-10.556 1.94-3.171 4.49-5.684 7.66-7.54 3.17-1.933 6.69-2.9 10.56-2.9 3.94 0 7.5.967 10.67 2.9 3.17 1.856 5.68 4.369 7.54 7.54 1.93 3.171 2.9 6.689 2.9 10.556 0 3.093-.62 5.955-1.86 8.584-1.16 2.629-2.74 4.911-4.75 6.844 4.33 1.701 7.77 4.331 10.32 7.888 2.63 3.48 3.94 7.733 3.94 12.76 0 4.949-1.27 9.164-3.82 12.644-2.56 3.403-6 6.032-10.33 7.888-4.33 1.779-9.2 2.668-14.61 2.668Zm0-46.748c3.4 0 6.3-1.199 8.7-3.596 2.47-2.475 3.71-5.491 3.71-9.048 0-3.403-1.24-6.303-3.71-8.7-2.4-2.397-5.3-3.596-8.7-3.596-3.41 0-6.34 1.199-8.82 3.596-2.4 2.397-3.6 5.297-3.6 8.7 0 3.557 1.2 6.573 3.6 9.048 2.48 2.397 5.41 3.596 8.82 3.596Zm0 38.164c5.56 0 9.97-1.315 13.22-3.944 3.33-2.629 4.99-6.187 4.99-10.672 0-4.563-1.66-8.197-4.99-10.904-3.25-2.707-7.66-4.06-13.22-4.06-5.49 0-9.9 1.353-13.23 4.06-3.25 2.707-4.87 6.341-4.87 10.904 0 4.485 1.62 8.043 4.87 10.672 3.33 2.629 7.74 3.944 13.23 3.944Zm103.41 8.584c-9.67 0-16.78-3.248-21.34-9.744-4.57-6.496-6.85-15.699-6.85-27.608 0-5.491.51-10.788 1.51-15.892 1.08-5.104 2.79-9.667 5.11-13.688 2.39-4.099 5.52-7.347 9.39-9.744 3.87-2.397 8.62-3.596 14.27-3.596 5.72 0 10.36 1.199 13.92 3.596 3.56 2.397 6.19 5.336 7.89 8.816l-9.86 2.9c-1.16-2.243-2.86-3.983-5.11-5.22-2.24-1.315-4.91-1.972-8-1.972-6.03 0-10.67 2.745-13.92 8.236-3.17 5.491-4.87 12.721-5.1 21.692 1.77-3.016 4.33-5.568 7.65-7.656 3.33-2.088 7.58-3.132 12.76-3.132 4.8 0 9.05 1.121 12.76 3.364 3.79 2.243 6.77 5.336 8.93 9.28 2.17 3.944 3.25 8.507 3.25 13.688 0 4.795-1.12 9.241-3.36 13.34-2.25 4.021-5.42 7.269-9.51 9.744-4.03 2.397-8.82 3.596-14.39 3.596Zm0-8.236c5.11 0 9.17-1.663 12.18-4.988 3.09-3.403 4.64-7.772 4.64-13.108s-1.55-9.667-4.64-12.992c-3.01-3.403-7.07-5.104-12.18-5.104-5.18 0-9.32 1.701-12.41 5.104-3.02 3.325-4.52 7.656-4.52 12.992 0 5.336 1.5 9.705 4.52 13.108 3.09 3.325 7.23 4.988 12.41 4.988Zm65.97 29.116c-3.1 0-6.19-.464-9.28-1.392a21.55 21.55 0 0 1-8.12-4.292c-2.32-2.011-3.99-4.601-4.99-7.772l9.74-2.668c1.08 3.016 2.86 5.027 5.34 6.032 2.47 1.005 4.91 1.508 7.31 1.508 5.95 0 9.97-1.431 12.06-4.292 2.16-2.861 3.25-7.076 3.25-12.644v-7.656c-1.78 3.016-4.14 5.413-7.08 7.192-2.94 1.779-6.69 2.668-11.25 2.668-4.25 0-8.24-1.083-11.95-3.248-3.71-2.243-6.73-5.491-9.05-9.744-2.24-4.331-3.36-9.551-3.36-15.66 0-6.187 1.12-11.407 3.36-15.66 2.32-4.253 5.34-7.501 9.05-9.744 3.71-2.243 7.7-3.364 11.95-3.364 4.56 0 8.31.928 11.25 2.784 2.94 1.779 5.3 4.176 7.08 7.192l2.67-9.048h7.07v52.084c0 9.125-1.85 16.008-5.57 20.648-3.63 4.717-10.13 7.076-19.48 7.076Zm-.58-31.436c2.93 0 5.6-.696 8-2.088 2.47-1.392 4.45-3.596 5.92-6.612 1.54-3.016 2.32-6.96 2.32-11.832 0-4.872-.78-8.816-2.32-11.832-1.47-3.016-3.45-5.181-5.92-6.496-2.4-1.392-5.07-2.088-8-2.088-4.72 0-8.63 1.779-11.72 5.336-3.02 3.48-4.52 8.507-4.52 15.08s1.5 11.639 4.52 15.196c3.09 3.557 7 5.336 11.72 5.336Zm90.46 10.556c-3.64 0-6.96-.657-9.98-1.972-3.01-1.315-5.41-3.209-7.19-5.684-1.78-2.475-2.67-5.452-2.67-8.932 0-4.563 1.59-8.159 4.76-10.788 3.25-2.629 7.77-4.64 13.57-6.032 5.88-1.469 12.72-2.629 20.53-3.48.16-4.872-.81-8.623-2.9-11.252-2.09-2.629-5.45-3.944-10.09-3.944-3.48 0-6.34.812-8.58 2.436-2.17 1.547-3.56 3.712-4.18 6.496l-9.4-2.784c1.55-4.408 4.3-7.811 8.24-10.208 4.02-2.475 8.62-3.712 13.8-3.712 7.97 0 13.77 1.895 17.4 5.684 3.72 3.712 5.57 9.589 5.57 17.632v13.456c0 4.795.19 8.932.58 12.412.39 3.48.85 6.573 1.39 9.28h-8.93l-2.32-7.888c-1.7 2.861-4.14 5.143-7.31 6.844-3.17 1.624-7.27 2.436-12.29 2.436Zm2.09-7.772c3.01 0 5.87-.541 8.58-1.624 2.71-1.083 4.91-2.9 6.61-5.452 1.7-2.629 2.55-6.187 2.55-10.672v-3.596c-5.87.619-10.98 1.392-15.31 2.32-4.33.851-7.69 2.088-10.09 3.712-2.32 1.547-3.48 3.635-3.48 6.264 0 2.707.97 4.911 2.9 6.612 2.01 1.624 4.76 2.436 8.24 2.436Zm69.87 7.772c-9.67 0-16.78-3.248-21.34-9.744-4.57-6.496-6.85-15.699-6.85-27.608 0-5.491.5-10.788 1.51-15.892 1.08-5.104 2.78-9.667 5.1-13.688 2.4-4.099 5.53-7.347 9.4-9.744 3.87-2.397 8.62-3.596 14.27-3.596 5.72 0 10.36 1.199 13.92 3.596 3.56 2.397 6.18 5.336 7.89 8.816l-9.86 2.9c-1.16-2.243-2.87-3.983-5.11-5.22-2.24-1.315-4.91-1.972-8-1.972-6.03 0-10.67 2.745-13.92 8.236-3.17 5.491-4.87 12.721-5.11 21.692 1.78-3.016 4.33-5.568 7.66-7.656s7.58-3.132 12.76-3.132c4.79 0 9.05 1.121 12.76 3.364 3.79 2.243 6.77 5.336 8.93 9.28 2.17 3.944 3.25 8.507 3.25 13.688 0 4.795-1.12 9.241-3.36 13.34-2.25 4.021-5.42 7.269-9.52 9.744-4.02 2.397-8.81 3.596-14.38 3.596Zm0-8.236c5.1 0 9.16-1.663 12.18-4.988 3.09-3.403 4.64-7.772 4.64-13.108s-1.55-9.667-4.64-12.992c-3.02-3.403-7.08-5.104-12.18-5.104-5.18 0-9.32 1.701-12.41 5.104-3.02 3.325-4.53 7.656-4.53 12.992 0 5.336 1.51 9.705 4.53 13.108 3.09 3.325 7.23 4.988 12.41 4.988ZM53.78 278v-34.834c0-5.589-.322-10.309-.964-14.16-.604-3.889-1.227-6.816-1.869-8.779h10.196c.226.604.453 1.397.68 2.378.226.944.434 1.945.622 3.002.19 1.058.359 2.096.51 3.116l.453 2.548c1.36-1.963 2.832-3.7 4.418-5.21 1.624-1.511 3.248-2.776 4.871-3.795 1.662-1.058 3.266-1.851 4.815-2.379 1.586-.529 3.02-.793 4.304-.793 2.38 0 4.38.528 6.004 1.586 1.662 1.019 3.002 2.416 4.022 4.191 1.057 1.737 1.812 3.757 2.265 6.061.491 2.265.737 4.644.737 7.136l-9.063 1.983a23.38 23.38 0 0 0-.566-4.192c-.264-1.283-.661-2.397-1.19-3.341-.49-.944-1.132-1.662-1.925-2.153-.756-.528-1.7-.793-2.832-.793-1.209 0-2.55.453-4.022 1.36-1.473.906-2.926 2.095-4.361 3.568-1.397 1.435-2.7 3.096-3.908 4.984-1.209 1.851-2.115 3.739-2.72 5.664V278H53.78Zm90.624 0v-31.152c0-3.55-.245-6.476-.736-8.78-.453-2.303-1.152-4.116-2.096-5.437-.906-1.36-2.077-2.304-3.511-2.832-1.398-.529-3.059-.793-4.985-.793-2.039 0-4.04.491-6.004 1.473-1.926.944-3.7 2.19-5.324 3.738a27.1 27.1 0 0 0-4.305 5.154c-1.246 1.926-2.171 3.852-2.775 5.777V278h-10.479v-34.834c0-5.589-.321-10.309-.962-14.16-.605-3.889-1.228-6.816-1.87-8.779h10.196c.226.604.453 1.397.679 2.378.227.944.435 1.945.623 3.002.189 1.058.359 2.096.51 3.116l.453 2.548c3.588-4.304 7.213-7.401 10.875-9.289 3.663-1.925 7.496-2.888 11.498-2.888 6.042 0 10.668 1.982 13.877 5.947 3.21 3.927 4.815 9.78 4.815 17.559V278h-10.479Zm102.86 0h-10.479v-32.285c0-3.512-.132-6.344-.396-8.496-.265-2.19-.718-3.89-1.36-5.098-.604-1.246-1.435-2.077-2.492-2.492-1.057-.415-2.379-.623-3.965-.623-1.397 0-2.794.283-4.191.849-1.397.567-2.738 1.379-4.022 2.436-1.246 1.02-2.416 2.247-3.511 3.682a23.386 23.386 0 0 0-2.719 4.644V278H203.65v-34.834c0-5.589-.321-10.309-.962-14.16-.642-3.889-1.265-6.816-1.87-8.779h10.196c.415 1.208.774 2.643 1.076 4.304.302 1.624.547 3.115.736 4.475 1.737-2.001 3.399-3.644 4.985-4.928 1.585-1.284 3.153-2.284 4.701-3.002 1.586-.755 3.153-1.265 4.701-1.529a24.792 24.792 0 0 1 4.758-.453c1.85 0 3.53.264 5.041.793 1.51.528 2.832 1.227 3.965 2.095a13.587 13.587 0 0 1 3.002 3.059 14.283 14.283 0 0 1 1.925 3.568c1.775-1.925 3.493-3.492 5.155-4.701 1.661-1.246 3.285-2.209 4.871-2.888 1.586-.718 3.134-1.209 4.644-1.473a23.642 23.642 0 0 1 4.531-.453c2.87 0 5.287.472 7.25 1.416a10.944 10.944 0 0 1 4.702 4.078c1.208 1.812 2.058 4.059 2.548 6.74.529 2.681.793 5.777.793 9.289V278H269.92v-31.152c0-3.663-.132-6.646-.397-8.95-.264-2.303-.717-4.115-1.359-5.437-.604-1.322-1.435-2.228-2.492-2.719-1.057-.491-2.379-.736-3.965-.736-1.397 0-2.775.283-4.135.849-1.359.529-2.681 1.303-3.965 2.323-1.246.982-2.416 2.19-3.511 3.625-1.058 1.435-2.002 3.039-2.832 4.814V278ZM53.779 396.818c0-1.057.17-2.039.51-2.945.34-.944.812-1.756 1.416-2.435a6.471 6.471 0 0 1 2.266-1.643c.868-.415 1.831-.623 2.888-.623a6.99 6.99 0 0 1 2.946.623c.906.378 1.68.925 2.322 1.643a7.62 7.62 0 0 1 1.53 2.435 7.59 7.59 0 0 1 .566 2.945 8.003 8.003 0 0 1-.567 3.002 8.563 8.563 0 0 1-1.529 2.436 7.376 7.376 0 0 1-2.322 1.642 7.574 7.574 0 0 1-2.946.567c-1.057 0-2.02-.189-2.888-.567a7.574 7.574 0 0 1-2.266-1.642 8.239 8.239 0 0 1-1.416-2.436 8.79 8.79 0 0 1-.51-3.002Zm12.461 49.278c0 1.812.02 3.965.057 6.457l.226 7.476c.114 2.53.227 4.947.34 7.25.151 2.304.321 4.211.51 5.721H55.762v-30.02c0-2.756-.02-5.475-.057-8.156 0-2.681-.038-5.211-.113-7.59a168.644 168.644 0 0 0-.227-6.683c-.113-2.077-.264-3.852-.453-5.324H66.24v30.869Zm23.563 20.674c0-1.058.189-2.04.566-2.946a7.896 7.896 0 0 1 1.643-2.435 7.498 7.498 0 0 1 2.435-1.643 7.377 7.377 0 0 1 3.002-.623 6.99 6.99 0 0 1 2.946.623 6.777 6.777 0 0 1 2.435 1.643 6.768 6.768 0 0 1 1.643 2.435 6.99 6.99 0 0 1 .623 2.946 7.374 7.374 0 0 1-.623 3.001 7.487 7.487 0 0 1-1.643 2.436 7.16 7.16 0 0 1-2.435 1.586 6.993 6.993 0 0 1-2.946.623 7.377 7.377 0 0 1-3.002-.623 7.974 7.974 0 0 1-2.435-1.586 8.905 8.905 0 0 1-1.643-2.436 8.004 8.004 0 0 1-.566-3.001Zm2.832-18.692c-.114-4.116-.189-8.42-.227-12.914a661.338 661.338 0 0 0-.283-14.33 624.898 624.898 0 0 0-.566-15.803 462.708 462.708 0 0 0-1.19-17.558h14.443a400.863 400.863 0 0 0-1.246 17.558 890.557 890.557 0 0 0-.623 15.803c-.113 5.022-.188 9.799-.226 14.33-.038 4.494-.095 8.798-.17 12.914h-9.912Zm48.937-1.982c0 1.812.019 3.946.057 6.4.075 2.455.151 4.947.226 7.477.114 2.53.227 4.946.34 7.25.151 2.303.321 4.229.51 5.777h-11.611v-64.004c0-5.513-.095-10.497-.283-14.953-.189-4.494-.472-8.383-.85-11.668h11.611v63.721Zm41.121-44.463-16.992 9.742-1.416-10.195 19.541-12.008h9.629v74.199h17.842V473h-46.445v-9.629h17.841v-61.738ZM60.859 639.396c0 3.286.397 6.231 1.19 8.836.793 2.606 1.907 4.815 3.342 6.627 1.472 1.775 3.21 3.134 5.21 4.079 2.002.944 4.23 1.416 6.684 1.416 2.266 0 4.4-.472 6.4-1.416 2.002-.945 3.739-2.304 5.212-4.079 1.51-1.812 2.68-4.021 3.511-6.627.869-2.605 1.303-5.55 1.303-8.836 0-3.322-.397-6.287-1.19-8.892-.793-2.643-1.925-4.871-3.398-6.684-1.435-1.85-3.172-3.247-5.21-4.191-2.002-.982-4.211-1.473-6.628-1.473-2.303 0-4.456.491-6.457 1.473-2.001.944-3.738 2.341-5.21 4.191-1.474 1.813-2.644 4.041-3.512 6.684-.831 2.605-1.247 5.57-1.247 8.892Zm-10.478 0c0-4.871.736-9.175 2.209-12.914 1.472-3.776 3.455-6.947 5.947-9.515a24.439 24.439 0 0 1 8.723-5.891c3.323-1.321 6.853-1.982 10.592-1.982 3.889 0 7.438.661 10.648 1.982 3.247 1.322 6.023 3.285 8.326 5.891 2.341 2.568 4.154 5.739 5.438 9.515 1.284 3.739 1.925 8.043 1.925 12.914 0 4.872-.736 9.176-2.209 12.915-1.472 3.738-3.455 6.872-5.947 9.402a25.151 25.151 0 0 1-8.722 5.777c-3.323 1.284-6.854 1.926-10.592 1.926-3.89 0-7.458-.642-10.705-1.926a23.278 23.278 0 0 1-8.326-5.777c-2.304-2.53-4.098-5.664-5.381-9.402-1.284-3.739-1.926-8.043-1.926-12.915Zm111.582 23.79a35.108 35.108 0 0 1-4.305 2.832 28.89 28.89 0 0 1-4.418 1.925c-1.548.491-3.209.85-4.984 1.077-1.775.264-3.72.396-5.834.396-3.814 0-7.382-.661-10.705-1.982a25.858 25.858 0 0 1-8.723-5.834c-2.492-2.53-4.456-5.589-5.89-9.176-1.435-3.587-2.153-7.647-2.153-12.178 0-4.267.68-8.288 2.039-12.064 1.397-3.776 3.361-7.08 5.891-9.912 2.568-2.832 5.664-5.06 9.289-6.684 3.663-1.662 7.741-2.492 12.234-2.492 3.776 0 7.024.453 9.742 1.359 2.757.869 5.174 2.02 7.25 3.455l-1.982 10.196c-2.568-1.889-5.116-3.305-7.646-4.249-2.53-.944-5.268-1.416-8.213-1.416-2.53 0-4.89.491-7.08 1.473-2.153.944-4.041 2.322-5.664 4.135-1.586 1.812-2.832 4.04-3.739 6.683-.906 2.644-1.359 5.627-1.359 8.95 0 3.058.415 5.834 1.246 8.326.831 2.492 2.02 4.644 3.568 6.457a16.077 16.077 0 0 0 5.608 4.135c2.19.981 4.663 1.472 7.42 1.472 3.436 0 6.551-.585 9.345-1.756 2.795-1.17 5.438-2.85 7.93-5.041l1.133 9.913Zm68.252-37.1c0 8.345-.774 15.293-2.322 20.844-1.511 5.55-3.588 10.006-6.231 13.367-2.643 3.323-5.758 5.683-9.346 7.08-3.587 1.359-7.438 2.039-11.554 2.039-4.078 0-7.854-.699-11.328-2.096-3.474-1.397-6.476-3.719-9.006-6.966-2.492-3.286-4.456-7.628-5.891-13.028-1.397-5.4-2.096-12.102-2.096-20.107 0-7.968.756-14.708 2.266-20.221 1.548-5.513 3.644-9.969 6.287-13.367 2.681-3.436 5.815-5.91 9.402-7.42 3.588-1.548 7.42-2.322 11.499-2.322 4.115 0 7.891.755 11.328 2.265 3.474 1.473 6.457 3.89 8.949 7.25 2.53 3.323 4.493 7.666 5.89 13.028 1.435 5.362 2.153 11.913 2.153 19.654Zm-11.328 1.416c0-6.231-.378-11.498-1.133-15.803-.755-4.342-1.869-7.854-3.342-10.535-1.473-2.719-3.304-4.663-5.494-5.834-2.19-1.208-4.72-1.812-7.59-1.812-2.719 0-5.173.604-7.363 1.812-2.153 1.171-3.984 3.059-5.494 5.664-1.511 2.606-2.681 5.947-3.512 10.026-.793 4.078-1.189 9.005-1.189 14.783 0 6.23.377 11.517 1.132 15.859.793 4.305 1.926 7.798 3.399 10.479 1.51 2.681 3.36 4.625 5.551 5.834 2.19 1.208 4.682 1.812 7.476 1.812 2.719 0 5.154-.604 7.307-1.812 2.19-1.209 4.04-3.097 5.551-5.664 1.51-2.606 2.662-5.948 3.455-10.026.83-4.078 1.246-9.006 1.246-14.783Zm92.324-1.416c0 6.797-1.02 12.876-3.059 18.238-2.001 5.362-4.682 9.912-8.043 13.651-3.323 3.7-7.117 6.532-11.384 8.496-4.267 1.963-8.666 2.945-13.198 2.945-4.569 0-8.949-.925-13.14-2.775-4.192-1.851-7.892-4.569-11.102-8.157-3.209-3.587-5.777-7.986-7.703-13.197-1.926-5.249-2.889-11.271-2.889-18.068 0-4.531.453-8.742 1.36-12.631.944-3.889 2.228-7.439 3.851-10.649 1.662-3.209 3.625-6.06 5.891-8.552s4.72-4.588 7.363-6.287a33.29 33.29 0 0 1 8.44-3.852 31.025 31.025 0 0 1 9.062-1.359c4.494 0 8.817.925 12.971 2.775 4.191 1.85 7.873 4.569 11.045 8.156 3.209 3.588 5.758 8.006 7.646 13.254 1.926 5.211 2.889 11.215 2.889 18.012Zm-11.045 1.416c0-5.211-.585-9.893-1.756-14.047-1.133-4.191-2.756-7.741-4.871-10.648-2.115-2.908-4.663-5.136-7.646-6.684-2.946-1.548-6.212-2.322-9.799-2.322-3.587 0-6.873.755-9.856 2.265-2.983 1.473-5.55 3.607-7.703 6.401-2.152 2.756-3.833 6.117-5.041 10.082-1.17 3.927-1.756 8.345-1.756 13.254 0 5.173.567 9.836 1.7 13.99 1.17 4.154 2.813 7.703 4.927 10.648 2.153 2.908 4.72 5.155 7.703 6.741 2.983 1.548 6.325 2.322 10.026 2.322 3.474 0 6.683-.718 9.629-2.152 2.945-1.473 5.475-3.569 7.589-6.288 2.153-2.756 3.833-6.117 5.042-10.082 1.208-3.964 1.812-8.458 1.812-13.48Zm87.51 32.568c-1.662 1.548-3.606 2.908-5.834 4.078a48.047 48.047 0 0 1-7.024 2.889 45.411 45.411 0 0 1-7.363 1.756c-2.492.415-4.814.623-6.967.623-5.739 0-10.894-.963-15.463-2.889-4.569-1.963-8.458-4.739-11.668-8.326-3.209-3.625-5.683-8.005-7.419-13.14-1.7-5.136-2.549-10.894-2.549-17.276 0-7.288 1.057-13.669 3.172-19.144 2.114-5.513 4.927-10.101 8.439-13.764 3.549-3.663 7.628-6.4 12.234-8.213a38.26 38.26 0 0 1 14.387-2.775c2.039 0 4.116.132 6.231.396 2.114.264 4.229.699 6.343 1.303a39.019 39.019 0 0 1 6.401 2.435c2.114 1.02 4.191 2.285 6.23 3.795l-3.398 10.196c-1.775-1.586-3.588-2.927-5.438-4.022-1.85-1.095-3.7-1.963-5.551-2.605a27.2 27.2 0 0 0-5.55-1.416 32.053 32.053 0 0 0-5.268-.453c-3.965 0-7.609.698-10.932 2.095-3.322 1.36-6.192 3.418-8.609 6.174-2.379 2.757-4.248 6.193-5.607 10.309-1.36 4.078-2.039 8.836-2.039 14.273 0 5.098.66 9.686 1.982 13.764 1.359 4.078 3.21 7.552 5.551 10.422 2.379 2.869 5.192 5.078 8.439 6.627 3.248 1.548 6.797 2.322 10.649 2.322 2.152 0 4.323-.246 6.513-.736a36.407 36.407 0 0 0 6.514-2.096 41.123 41.123 0 0 0 6.061-3.342 34.484 34.484 0 0 0 5.267-4.305l2.266 11.045ZM91.729 814.289c-.945-.189-2.323-.415-4.135-.68-1.775-.302-4.078-.453-6.91-.453-3.7 0-6.797.755-9.29 2.266-2.454 1.473-4.417 3.455-5.89 5.947-1.473 2.455-2.53 5.287-3.172 8.496a53.485 53.485 0 0 0-.906 9.912c0 2.19.207 4.211.623 6.061.453 1.812 1.057 3.398 1.812 4.758.756 1.321 1.624 2.36 2.606 3.115.982.717 2.039 1.076 3.172 1.076 1.246 0 2.51-.415 3.795-1.246 1.321-.831 2.605-1.945 3.851-3.342 1.284-1.435 2.53-3.077 3.738-4.928a67.342 67.342 0 0 0 3.399-5.833 105.164 105.164 0 0 0 2.945-6.288 83.522 83.522 0 0 0 2.322-6.004c.642-1.925 1.133-3.681 1.473-5.267.378-1.586.566-2.889.566-3.908v-3.682ZM95.977 863c-.416-.906-.793-2.266-1.133-4.078a104.511 104.511 0 0 1-.793-5.834c-.189-2.115-.34-4.173-.453-6.174-.114-2.001-.17-3.625-.17-4.871v-5.664a95.296 95.296 0 0 1-4.362 9.799c-1.661 3.323-3.568 6.343-5.72 9.062-2.153 2.681-4.532 4.89-7.137 6.627-2.568 1.699-5.324 2.549-8.27 2.549-2.378 0-4.606-.529-6.683-1.586s-3.89-2.624-5.438-4.701c-1.51-2.077-2.7-4.645-3.568-7.703-.868-3.097-1.303-6.646-1.303-10.649 0-4.493.604-8.873 1.813-13.14 1.208-4.305 3.058-8.119 5.55-11.442 2.493-3.36 5.665-6.041 9.516-8.043 3.852-2.039 8.42-3.058 13.707-3.058 3.663 0 7.307.245 10.932.736 3.625.453 6.872 1.057 9.742 1.813v26.337c0 7.137.34 13.141 1.02 18.012.679 4.834 1.567 8.836 2.662 12.008h-9.912Zm65.703-24.072c0-2.379-.453-4.55-1.36-6.514a14.956 14.956 0 0 0-3.681-5.098c-1.549-1.434-3.399-2.548-5.551-3.341-2.115-.793-4.437-1.19-6.967-1.19-2.568 0-4.928.397-7.08 1.19-2.115.793-3.965 1.907-5.551 3.341a15.34 15.34 0 0 0-3.625 5.098c-.868 1.964-1.303 4.135-1.303 6.514 0 2.492.435 4.72 1.303 6.683.869 1.964 2.077 3.625 3.625 4.985 1.586 1.359 3.436 2.397 5.551 3.115 2.152.717 4.512 1.076 7.08 1.076 2.53 0 4.852-.359 6.967-1.076 2.152-.718 4.002-1.756 5.551-3.115 1.586-1.36 2.813-3.021 3.681-4.985.907-1.963 1.36-4.191 1.36-6.683Zm-2.832-38.516c0-2.077-.397-3.889-1.19-5.437-.755-1.586-1.812-2.889-3.172-3.909-1.321-1.057-2.869-1.831-4.644-2.322-1.775-.529-3.682-.793-5.721-.793s-3.946.264-5.721.793c-1.774.491-3.341 1.265-4.701 2.322-1.321 1.02-2.379 2.323-3.172 3.909-.755 1.548-1.132 3.36-1.132 5.437 0 2.228.377 4.192 1.132 5.891.793 1.661 1.851 3.077 3.172 4.248 1.36 1.133 2.927 2.001 4.701 2.605 1.775.567 3.682.85 5.721.85s3.946-.283 5.721-.85c1.775-.604 3.323-1.472 4.644-2.605a12.19 12.19 0 0 0 3.172-4.248c.793-1.699 1.19-3.663 1.19-5.891Zm-14.727 64.004c-3.625 0-7.174-.548-10.648-1.643-3.437-1.095-6.514-2.681-9.233-4.757a25.02 25.02 0 0 1-6.57-7.647c-1.624-3.021-2.436-6.457-2.436-10.308 0-2.908.416-5.513 1.246-7.817.869-2.303 1.983-4.342 3.342-6.117a25.166 25.166 0 0 1 4.758-4.645 40.839 40.839 0 0 1 5.381-3.511c-1.095-.604-2.303-1.379-3.625-2.323s-2.549-2.114-3.682-3.511c-1.133-1.397-2.095-3.059-2.888-4.985-.756-1.925-1.133-4.172-1.133-6.74 0-3.474.736-6.551 2.209-9.232a21.249 21.249 0 0 1 5.947-6.741c2.454-1.812 5.23-3.19 8.326-4.134a33.019 33.019 0 0 1 9.573-1.416c3.247 0 6.362.472 9.345 1.416 3.021.944 5.683 2.322 7.987 4.134 2.303 1.813 4.134 4.06 5.494 6.741 1.397 2.681 2.095 5.758 2.095 9.232 0 2.568-.377 4.796-1.132 6.684-.718 1.888-1.643 3.53-2.776 4.927a20.852 20.852 0 0 1-3.568 3.512 55.405 55.405 0 0 1-3.569 2.436c1.549.793 3.172 1.85 4.872 3.172 1.699 1.283 3.247 2.85 4.644 4.701 1.435 1.812 2.606 3.908 3.512 6.287.944 2.379 1.416 5.022 1.416 7.93 0 3.851-.831 7.287-2.492 10.308a24.349 24.349 0 0 1-6.514 7.647c-2.681 2.076-5.759 3.662-9.232 4.757a35.223 35.223 0 0 1-10.649 1.643Zm101.67-42.197c-3.965 0-7.571.717-10.818 2.152-3.21 1.397-5.985 3.304-8.327 5.721.227 3.247.756 6.344 1.586 9.289.869 2.945 2.058 5.532 3.569 7.76 1.51 2.227 3.36 4.021 5.551 5.38 2.19 1.322 4.72 1.983 7.589 1.983 2.493 0 4.739-.415 6.741-1.246 2.039-.831 3.776-1.964 5.211-3.399a15.032 15.032 0 0 0 3.285-5.154c.793-1.963 1.189-4.078 1.189-6.344 0-2.492-.34-4.739-1.019-6.74-.68-2.001-1.681-3.682-3.002-5.041-1.284-1.397-2.908-2.473-4.871-3.228-1.926-.756-4.154-1.133-6.684-1.133Zm19.484-27.188c-2.454-2.416-4.984-4.059-7.589-4.927a24.573 24.573 0 0 0-7.93-1.303c-3.134 0-6.061.585-8.779 1.756-2.681 1.17-5.041 3.058-7.081 5.664-2.039 2.605-3.7 5.985-4.984 10.138-1.246 4.154-2.001 9.195-2.266 15.123 2.795-2.756 5.853-4.965 9.176-6.627 3.323-1.699 7.024-2.548 11.102-2.548 3.927 0 7.458.604 10.592 1.812 3.172 1.171 5.852 2.813 8.043 4.928 2.227 2.114 3.927 4.663 5.097 7.646 1.171 2.946 1.756 6.174 1.756 9.686 0 4.305-.717 8.194-2.152 11.668-1.397 3.436-3.38 6.381-5.948 8.836-2.529 2.416-5.588 4.286-9.175 5.607-3.588 1.284-7.552 1.926-11.895 1.926-4.38 0-8.288-.906-11.724-2.719-3.437-1.85-6.344-4.493-8.723-7.929-2.379-3.437-4.191-7.628-5.438-12.575-1.246-4.946-1.869-10.516-1.869-16.709 0-3.474.227-7.004.68-10.591a59.564 59.564 0 0 1 2.379-10.479 48.547 48.547 0 0 1 4.248-9.572c1.775-2.983 3.946-5.57 6.514-7.76 2.605-2.228 5.626-3.984 9.062-5.268 3.474-1.283 7.458-1.925 11.951-1.925 1.662 0 3.229.075 4.701.226 1.473.151 2.908.434 4.305.85 1.397.377 2.776.906 4.135 1.586 1.397.642 2.832 1.454 4.305 2.435l-2.493 11.045Zm57.547 20.957a28.725 28.725 0 0 0-2.888-.906 28.807 28.807 0 0 0-3.116-.736 47.268 47.268 0 0 0-3.115-.453 24.115 24.115 0 0 0-2.775-.17c-3.097 0-5.74.642-7.93 1.925a15.84 15.84 0 0 0-5.381 4.985c-1.359 2.039-2.36 4.361-3.002 6.967a33.015 33.015 0 0 0-.963 7.929c0 3.512.265 6.438.793 8.78.567 2.303 1.322 4.153 2.266 5.55.982 1.36 2.115 2.342 3.398 2.946 1.322.566 2.757.849 4.305.849 1.435 0 2.964-.283 4.588-.849 1.624-.604 3.247-1.454 4.871-2.549 1.662-1.095 3.247-2.455 4.758-4.078 1.548-1.624 2.945-3.474 4.191-5.551v-24.639Zm10.479 45.596c0 4.984-.737 9.251-2.209 12.801-1.435 3.549-3.342 6.438-5.721 8.666-2.341 2.265-5.022 3.927-8.043 4.984a27.768 27.768 0 0 1-9.232 1.586c-3.625 0-7.231-.623-10.819-1.869a42.98 42.98 0 0 1-9.855-4.928l3.682-8.779c2.681 1.926 5.38 3.493 8.099 4.701 2.719 1.208 5.494 1.813 8.326 1.813 1.473 0 3.097-.265 4.871-.793 1.775-.529 3.437-1.454 4.985-2.776 1.548-1.284 2.832-3.021 3.851-5.211 1.058-2.19 1.586-4.927 1.586-8.213v-10.478c-1.472 1.85-3.039 3.436-4.701 4.758-1.624 1.284-3.285 2.341-4.984 3.172a23.519 23.519 0 0 1-5.041 1.755c-1.662.34-3.267.51-4.815.51-2.605 0-5.116-.453-7.533-1.359-2.417-.906-4.569-2.341-6.457-4.305-1.85-2.001-3.342-4.588-4.475-7.76-1.095-3.171-1.642-7.004-1.642-11.498 0-4.342.566-8.571 1.699-12.687s2.889-7.76 5.268-10.932c2.379-3.209 5.418-5.777 9.119-7.703 3.738-1.963 8.194-2.945 13.367-2.945 1.699 0 3.436.132 5.211.396a52.03 52.03 0 0 1 5.381.963c1.774.415 3.511.887 5.211 1.416 1.699.491 3.323.982 4.871 1.473v53.242Zm85.584-47.295c-.944-.189-2.323-.415-4.135-.68-1.775-.302-4.078-.453-6.91-.453-3.701 0-6.797.755-9.289 2.266-2.455 1.473-4.418 3.455-5.891 5.947-1.472 2.455-2.53 5.287-3.172 8.496a53.493 53.493 0 0 0-.906 9.912c0 2.19.208 4.211.623 6.061.453 1.812 1.057 3.398 1.813 4.758.755 1.321 1.623 2.36 2.605 3.115.982.717 2.039 1.076 3.172 1.076 1.246 0 2.511-.415 3.795-1.246 1.321-.831 2.605-1.945 3.851-3.342 1.284-1.435 2.53-3.077 3.739-4.928a67.365 67.365 0 0 0 3.398-5.833 105.16 105.16 0 0 0 2.945-6.288 83.169 83.169 0 0 0 2.323-6.004c.642-1.925 1.133-3.681 1.472-5.267.378-1.586.567-2.889.567-3.908v-3.682ZM423.133 863c-.416-.906-.793-2.266-1.133-4.078a105.076 105.076 0 0 1-.793-5.834c-.189-2.115-.34-4.173-.453-6.174-.113-2.001-.17-3.625-.17-4.871v-5.664a95.27 95.27 0 0 1-4.361 9.799c-1.662 3.323-3.569 6.343-5.721 9.062-2.152 2.681-4.531 4.89-7.137 6.627-2.567 1.699-5.324 2.549-8.269 2.549-2.379 0-4.607-.529-6.684-1.586s-3.889-2.624-5.437-4.701c-1.511-2.077-2.7-4.645-3.569-7.703-.868-3.097-1.302-6.646-1.302-10.649 0-4.493.604-8.873 1.812-13.14 1.208-4.305 3.059-8.119 5.551-11.442 2.492-3.36 5.664-6.041 9.515-8.043 3.852-2.039 8.421-3.058 13.707-3.058 3.663 0 7.307.245 10.932.736 3.625.453 6.872 1.057 9.742 1.813v26.337c0 7.137.34 13.141 1.02 18.012.679 4.834 1.567 8.836 2.662 12.008h-9.912Zm50.693-40.781c-3.965 0-7.571.717-10.818 2.152-3.21 1.397-5.985 3.304-8.326 5.721.226 3.247.755 6.344 1.586 9.289.868 2.945 2.058 5.532 3.568 7.76 1.51 2.227 3.361 4.021 5.551 5.38 2.19 1.322 4.72 1.983 7.59 1.983 2.492 0 4.738-.415 6.74-1.246 2.039-.831 3.776-1.964 5.211-3.399a15.018 15.018 0 0 0 3.285-5.154c.793-1.963 1.189-4.078 1.189-6.344 0-2.492-.34-4.739-1.019-6.74-.68-2.001-1.681-3.682-3.002-5.041-1.284-1.397-2.908-2.473-4.871-3.228-1.926-.756-4.154-1.133-6.684-1.133Zm19.485-27.188c-2.455-2.416-4.985-4.059-7.59-4.927a24.573 24.573 0 0 0-7.93-1.303c-3.134 0-6.061.585-8.779 1.756-2.681 1.17-5.041 3.058-7.08 5.664-2.039 2.605-3.701 5.985-4.985 10.138-1.246 4.154-2.001 9.195-2.265 15.123 2.794-2.756 5.853-4.965 9.175-6.627 3.323-1.699 7.024-2.548 11.102-2.548 3.927 0 7.458.604 10.592 1.812 3.172 1.171 5.853 2.813 8.043 4.928 2.228 2.114 3.927 4.663 5.097 7.646 1.171 2.946 1.756 6.174 1.756 9.686 0 4.305-.717 8.194-2.152 11.668-1.397 3.436-3.38 6.381-5.947 8.836-2.53 2.416-5.589 4.286-9.176 5.607-3.587 1.284-7.552 1.926-11.895 1.926-4.38 0-8.288-.906-11.724-2.719-3.436-1.85-6.344-4.493-8.723-7.929-2.379-3.437-4.191-7.628-5.437-12.575-1.247-4.946-1.87-10.516-1.87-16.709 0-3.474.227-7.004.68-10.591a59.564 59.564 0 0 1 2.379-10.479 48.547 48.547 0 0 1 4.248-9.572c1.775-2.983 3.946-5.57 6.514-7.76 2.605-2.228 5.626-3.984 9.062-5.268 3.474-1.283 7.458-1.925 11.951-1.925 1.662 0 3.229.075 4.702.226 1.472.151 2.907.434 4.304.85 1.397.377 2.776.906 4.135 1.586 1.397.642 2.832 1.454 4.305 2.435l-2.492 11.045Z"/></svg>