<svg width="1920" height="1080" fill="none" xmlns="http://www.w3.org/2000/svg"><path d="M1610.85 934.775c14.19 15.097 15.46 28.894 5.08 39.26-8.93 8.903-24.26 9.68-34.11 1.734-11.77-9.517-11.38-23.278 1.88-40.976-8.07 0-15.42-.036-22.79.018-3.07.018-6.14.253-9.66.397 12.95 16.849 13.57 29.978 2.29 39.875-9.64 8.47-24.65 8.271-34.05-.452-11.27-10.456-10.42-23.495 3.82-39.856-17.81 0-34.31.036-50.83 0-14.81-.036-20.19-5.49-19.37-19.468.65-11.432 5.19-15.567 17.92-15.585 50.34-.072 100.67-.036 151.02-.036 12.86 0 25.71-.145 38.55.054 12.07.181 16.67 5.364 16.54 17.951-.13 11.774-4.89 16.921-16.45 17.048-16 .18-32 .054-49.84.054v-.018ZM1520.29 671.173c-13.13-17.076-13.65-29.676-2.51-39.713 9.56-8.61 24.47-8.574 34.03.054 11.22 10.127 10.68 22.546-2.06 39.027h31.71c-2.03-8.538-5.41-17.401-5.73-26.355-.17-4.531 4.33-10.217 8.28-13.683 9.41-8.267 23.91-7.148 33.01 1.499 10.65 10.126 10 22.474-3.15 39.135 15.5 0 29.87-.144 44.27.036 14.89.199 20.45 6.733 18.69 21.102-1.1 9.026-6.16 13.864-15.46 13.882-64.22.072-128.43.144-192.65-.037-10.81-.036-15.44-5.559-15.68-16.841-.28-12.059 4.06-17.655 15.47-17.962 16.95-.469 33.91-.126 51.76-.126l.02-.018ZM1550.2 425.082v-32.806c-7.27 1.876-14.41 4.889-21.67 5.14-4.11.148-9.25-3.427-12.43-6.691-7.17-7.371-6.25-18.907 1.1-26.174 8.68-8.611 19-8.065 33.54 2.939 0-9.719-.1-18.271.01-26.823.15-12.024 5.56-16.928 17.93-16.47 10.35.384 14.99 4.549 15.26 14.653.32 11.61.12 23.249.12 34.859 0 40.827.06 81.639-.04 122.466-.03 12.776-5.34 17.518-18.26 16.927-10.2-.458-14.81-4.815-14.96-14.919-.22-13.604-.06-27.208-.08-40.826v-6.559c-8.55 1.566-16.56 4.018-24.58 4.062-3.71.015-8.26-4.062-11-7.4-6.28-7.592-4.78-18.685 2.56-25.48 8.78-8.124 18.85-7.444 32.5 3.087v.015ZM1582.08 98.257c13.24-13.971 25.5-15.862 35.1-6.675 8.36 7.99 8.05 21.193-.67 28.828-10.02 8.773-21.92 6.587-33.67-6.926v43.686c6.27-2.836 12.98-7.267 20.3-8.67 4.17-.797 10.21 2.393 13.9 5.48 8.62 7.162 8.21 20.336.08 28.046-9.42 8.949-21.65 7.089-35.06-6.41 0 16.364.11 31.472-.03 46.581-.1 11.637-4.73 16.024-16.4 16.112-12.22.089-16.84-4.253-16.86-16.378-.06-51.839-.04-103.692 0-155.53 0-12.229 4.72-17.014 16.36-17.073 12.06-.059 16.84 4.844 16.93 17.546.06 9.895 0 19.775 0 31.368l.02.015ZM1190.06 934.759c-27.35 0-53.05.036-78.75 0-14.27-.018-19.33-4.659-19.31-17.519.02-13.075 4.78-17.536 19.18-17.536 62.15-.036 124.3-.055 186.47 0 13.88 0 18.7 4.894 18.46 18.205-.23 12.371-5.12 16.832-18.85 16.85-26.3.054-52.59 0-79.62 0 13.28 17.447 13.64 31.408 1.78 40.998-9.58 7.748-24.28 7.26-33.27-1.102-11.27-10.493-10.42-23.659 3.89-39.914l.02.018ZM1191.43 671.019c-12.56-18.871-12.28-31.692.19-41.064 9.88-7.422 23.77-6.248 32.98 2.817 10.05 9.895 9.1 22.879-3.48 37.669 3.65.216 6.65.542 9.64.542 22.85.054 45.71-.199 68.56.144 12.26.181 17.08 5.797 16.78 17.914-.28 11.575-5.15 16.956-16.76 16.974-63.55.145-127.13.145-190.68 0-11.65-.018-16.43-5.309-16.65-16.992-.24-12.406 4.3-17.733 16.69-17.896 23.92-.325 47.85-.108 71.77-.126h10.96v.018ZM1190.82 395.66c0-19.358-.06-37.077.01-54.811.06-12.566 5.51-17.424 18.35-16.641 10.66.649 14.92 5.552 14.94 17.763.06 46.705.03 93.409.03 140.114 0 5.375.17 10.764-.09 16.124-.52 10.809-5.87 15.209-17.77 14.884-10.94-.295-15.37-4.415-15.43-15.135-.13-23.492-.04-46.985-.04-70.478v-9.686c-16.75 10.543-26.69 10.617-34.82.93-6.62-7.87-6.1-19.033 1.23-26.298 8.43-8.357 19.9-7.693 33.6 3.234h-.01ZM1216.61 121.283c13.17-13.887 25.1-15.728 34.88-6.082 8.26 8.143 7.77 21.073-1.07 28.672-10 8.6-21.79 6.317-34.29-7.997v9.44c0 25.123.06 50.247-.03 75.37-.05 14.181-9.88 20.749-23.85 16.184-8.23-2.695-9.4-9.057-9.38-16.287.06-37.832.03-75.65.03-113.482 0-13.828-.12-27.67.05-41.499.15-11.722 5.35-16.479 17.19-16.273 11.15.192 15.88 4.963 15.97 16.538.12 15.522 0 31.058.06 46.58 0 2.695.28 5.404.46 8.821l-.02.015Z" fill="#1A73E8"/><path d="M770.523 895.141v-31.999h-13.241c-44.55 0-89.08.02-133.631 0-15.085 0-20.514-5.109-20.555-18.966-.042-13.576 5.698-19.65 20.286-19.69 55.284-.201 110.568-.261 165.852.02 20.244.101 27.165 7.301 27.352 26.75.166 18.523.166 37.047 0 55.55-.187 20.294-7.004 26.669-28.347 26.689-41.753.041-83.527 0-125.28 0h-13.531v32.12h14.837c46.933 0 93.866-.101 140.8.06 17.53.061 23.27 6.316 21.84 22.466-.933 10.519-6.403 16.209-17.613 16.209-60.858-.02-121.695.12-182.553-.16-15.293-.06-22.835-7.18-23.27-22.103a1144.765 1144.765 0 0 1-.021-64.802c.435-15.748 8.185-22.064 25.632-22.124 42.561-.121 85.102-.04 127.663-.04h13.821l-.041.02ZM715.856 637.025c-3.122 4.204-5.641 7.411-7.957 10.735-20.852 29.782-41.622 59.622-62.534 89.364-9.509 13.512-18.172 14.939-32.093 5.612-11.866-7.939-13.498-17.169-4.654-29.899 23.934-34.513 48.049-68.909 73.675-105.613-19.018 0-36.082.02-53.126 0-16.54-.019-23.107-7.43-20.649-23.211 1.228-7.958 5.318-13.219 14.182-13.629 5.782-.274 11.584-.43 17.387-.43 53.367-.039 106.714-.079 160.081.039 17.185.039 22.685 5.24 22.141 19.984-.484 12.652-5.319 17.189-18.817 17.247-17.346.078-34.671.02-54.294.02 3.123 4.732 5.218 8.056 7.474 11.263 21.698 31.033 43.476 62.027 65.133 93.079 11.282 16.191 3.949 33.008-15.976 36.977-9.892 1.975-14.868-4.204-19.562-10.95-20.771-29.84-41.541-59.68-62.332-89.501-2.357-3.363-4.815-6.648-8.038-11.087h-.041ZM648.761 352.903c0 33.22.146 64.561-.104 95.901-.062 8.851 6.038 7.457 11.43 7.477 45.134.04 90.268.02 135.381.02 3.602 0 7.203-.081 10.784.04 15.239.586 20.714 5.719 20.86 19.48.146 13.235-6.162 19.338-20.86 19.378-58.708.101-117.415.141-176.123 0-19.486-.04-26.876-7.173-26.981-26.047-.208-43-.187-86 0-129.02.084-18.024 6.642-25.359 24.899-25.501 57.896-.464 115.812-.384 173.729-.08 14.344.08 19.653 6.627 19.132 20.853-.458 12.508-5.975 17.459-19.902 17.479-45.925.04-91.851 0-137.776 0h-14.469v.02ZM650.62 106.575h128.632c0-13.258-.239-24.506.066-35.754.392-15.118 7.885-21.82 23.7-21.8 15.706 0 23.766 6.83 23.853 21.82.284 47.447.371 94.894-.021 142.319-.153 18.142-8.605 25.648-27.361 25.669-57.269.106-114.538.106-171.807 0-15.314-.021-24.115-7.083-24.289-21.926-.567-49.857-.479-99.735 0-149.613.13-12.412 8.735-18.248 23.221-18.29 14.987-.042 23.243 6.132 23.832 19.114.609 13.278.13 26.599.13 38.461h.044Zm127.87 39.348H651.84v51.253h126.65v-51.253ZM419.413 878.417h-14.83c-46.729 0-93.458.042-140.186-.021-15.961 0-21.375-5.171-21.397-19.924 0-14.5 5.697-20.578 21.179-20.641 58.406-.211 116.811-.317 175.217.063 20.505.127 27.572 7.746 27.637 27.712.109 46.939.109 93.899 0 140.834-.044 17.01-7.089 23.71-24.158 23.56-16.917-.15-23.419-6.73-23.462-24.21-.087-37.632-.022-75.284-.022-112.916v-14.457h.022ZM354.821 637.803c-2.99 4.241-5.289 7.365-7.454 10.602-21.654 32.271-43.193 64.597-64.924 96.812-9.926 14.712-31.235 13.373-38.344-2.92-2.013-4.65-1.15-12.462 1.686-16.777 28.38-43.319 57.354-86.285 86.347-129.213 10.674-15.791 34.551-15.81 45.167-.037 28.341 42.072 56.53 84.257 84.661 126.46 8.374 12.573 6.534 21.52-5.442 29.034-12.878 8.091-21.06 6.175-30.163-7.403-21.443-31.973-42.771-64.02-64.176-96.012-2.146-3.218-4.465-6.361-7.396-10.527l.038-.019ZM288.666 463.981h15.399c47.05 0 94.121-.101 141.171.06 17.145.061 22.715 5.91 21.779 21.604-.685 11.618-5.86 17.045-17.997 17.085-60.62.181-121.241.222-181.841-.041-16.168-.06-23.774-7.14-23.899-22.733-.395-46.797-.332-93.615-.042-140.433.084-13.736 7.274-19.223 22.694-19.162 15.296.08 22.382 5.587 22.528 19.445.395 36.369.166 72.738.187 109.087v15.047l.021.041ZM355.205 239.204c-27.94 0-55.858.148-83.798-.042-20.764-.148-28.135-7.049-28.244-26.93-.217-45.29-.217-90.58 0-135.89.087-18.277 6.719-25.58 25.418-25.748 57.532-.507 115.064-.507 172.575-.021 19.112.169 25.787 7.809 25.852 26.676.131 44.889.152 89.778 0 134.667-.065 19.775-7.588 27.077-28.027 27.224-27.939.212-55.858.064-83.797.064h.021Zm-63.685-41.829h126.979V91.283H291.52v106.092Z" fill="#3C4043"/></svg>