<svg xmlns="http://www.w3.org/2000/svg" width="1920" height="1080" fill="none"><path fill="#1A73E8" d="m267.72 126.62-17.64 7.2c4.14 5.94 8.64 14.04 12.06 21.06h-84.42c-6.48 0-16.56-.54-23.76-1.26v30.24c5.58-.36 15.66-.72 23.76-.72h77.94v68.4h-80.1c-8.46 0-16.74-.54-23.76-1.08v31.14c6.48-.72 17.82-1.26 24.66-1.26h79.02c0 2.88-.18 5.94-.18 9h31.68c-.54-7.02-.9-17.28-.9-23.4v-93.42c0-5.94.36-13.86.54-18.18-2.34.18-9 .36-14.58.54l9.54-3.96c-3.06-6.48-9.18-17.46-13.86-24.3Zm25.2-6.12-17.82 7.2c5.04 6.84 10.44 16.92 14.22 24.3l17.82-7.56c-3.24-6.12-9.54-17.1-14.22-23.94ZM368.34 133.1l-15.84 24.12c12.6 7.02 30.96 18.72 41.76 25.92l16.2-24.12c-10.26-7.02-29.52-19.08-42.12-25.92Zm-36.9 127.26 16.38 28.8c15.48-2.52 41.94-11.88 60.3-22.14 29.88-17.1 55.62-39.6 72.9-64.98l-16.74-29.88c-14.22 25.92-40.14 51.3-71.1 68.4-20.34 10.98-41.4 16.38-61.74 19.8Zm8.82-85.86-15.84 24.12c12.78 6.84 30.96 18.72 41.94 26.28l16.02-24.48c-10.08-7.02-29.16-19.08-42.12-25.92ZM585.06 169.28l-25.92 8.46c4.86 10.08 12.42 31.32 14.94 40.32l26.1-9c-2.7-8.46-11.52-31.86-15.12-39.78Zm67.14 14.76-30.78-9.9c-1.62 22.32-10.08 46.8-21.96 61.74-14.94 18.9-41.22 32.58-60.3 37.44l22.86 23.4c21.6-8.28 44.28-23.94 61.02-45.9 11.88-15.48 19.44-33.84 24.12-51.12 1.26-4.32 2.52-8.64 5.04-15.66ZM543.3 179l-26.28 9.36c4.86 8.64 13.5 32.22 16.56 41.94l26.64-9.9c-3.6-10.44-11.88-31.32-16.92-41.4ZM778.92 137.24l-31.86-10.44c-1.98 7.02-6.3 16.38-9.54 21.42-9.54 15.12-24.12 36.72-55.98 56.34l24.48 18.18c16.56-11.52 32.58-27 45.36-43.02h44.82c-2.34 11.7-12.42 32.4-23.76 45-15.3 17.1-34.02 32.4-72.9 44.28l25.92 23.04c33.84-13.86 55.62-30.42 73.08-51.84 16.56-20.34 26.28-44.1 31.14-59.04 1.8-5.4 4.68-10.8 7.02-14.76l-22.14-13.68c-4.68 1.44-11.88 2.34-17.82 2.34h-28.98c2.7-4.68 7.02-12.06 11.16-17.82ZM258.18 512.36v4.32h-70.56v-4.32h70.56Zm-70.56 23.4v-4.5h70.56v4.5h-70.56Zm-25.2 20.88h25.2v-4.86h70.56v4.86h26.46v-60.12H162.42v60.12Zm72-124.92h23.4v4.5h-23.4v-4.5Zm0-21.96h23.4v4.32h-23.4v-4.32Zm49.32 41.22v-19.26h20.16v-17.64h-20.16V395h-49.32v-10.62h-26.46V395h-49.68v14.76h49.68v4.32H140.1v17.64h67.86v4.5H156.3v14.76h51.66v4.14h-55.08v15.3h55.08v4.32h-68.04v17.64h163.8v-17.64h-69.3v-4.32h55.44v-15.3h-55.44v-4.14h49.32ZM438 504.26v-37.98c4.86 13.5 10.44 26.46 16.74 37.98H438Zm-41.76 0c5.94-10.8 11.52-22.86 16.2-35.46v35.46h-16.2Zm89.28-64.62V414.8H438v-28.62h-25.56v28.62H369.6v24.84h31.68c-9.36 26.82-24.3 53.46-41.22 70.02v-83.52c5.22-10.98 9.72-21.96 13.5-32.76l-24.66-7.56c-7.92 24.66-21.6 49.5-36.18 65.34 4.5 6.48 11.52 21.24 13.86 27.54 2.88-3.24 5.76-6.84 8.64-10.62v87.84h24.84v-43.56c5.76 4.68 13.32 12.96 17.28 18.54 5.22-5.76 10.26-12.42 14.76-19.8v16.38h20.34v27.18H438v-27.18h21.42v-14.94c3.96 6.66 8.1 12.6 12.42 17.82 4.5-6.84 13.32-15.84 19.44-20.34-16.56-16.74-31.86-43.92-41.4-70.38h35.64ZM660.84 475.46c0-40.86-28.98-72.54-74.88-72.54-48.06 0-84.96 36.36-84.96 79.2 0 30.78 16.92 54.9 39.24 54.9 21.24 0 37.44-24.12 48.06-60.12 5.04-16.74 8.28-32.4 10.62-46.98 20.7 4.86 32.04 21.42 32.04 44.64 0 23.76-15.3 39.78-38.16 45.36-5.22 1.26-10.08 2.34-17.64 3.24l16.56 25.92c46.8-7.92 69.12-35.64 69.12-73.62Zm-131.58 3.78c0-17.1 13.32-41.4 39.96-48.6-2.16 14.04-5.22 28.26-9.18 40.5-6.48 20.88-11.88 31.86-19.08 31.86-6.3 0-11.7-8.1-11.7-23.76ZM775.5 475.28v-33.66h34.74v33.66H775.5Zm-62.28 0v-33.66h34.56v33.66h-34.56Zm62.28-59.4V385.1h-27.72v30.78h-60.84v94.5h26.28v-9.36h34.56v55.08h27.72v-55.08h34.74v8.46h27.54v-93.6H775.5ZM143.52 673.82l2.7 29.7c21.6-4.86 53.28-8.46 68.76-10.08-9.72 8.82-22.86 27.9-22.86 52.56 0 38.34 34.38 60.12 74.52 63.18l10.26-30.24c-31.14-1.8-55.98-12.24-55.98-38.7 0-21.42 16.74-42.48 36.18-46.8 9.9-1.98 25.2-1.98 34.56-2.16l-.18-28.08c-13.14.54-34.38 1.8-52.38 3.24-32.94 2.88-60.12 5.04-77.04 6.48-3.42.36-11.34.72-18.54.9ZM266.1 706.4l-15.66 6.48c5.76 8.28 8.82 14.22 13.68 24.66l16.02-7.02c-3.24-6.66-9.54-17.46-14.04-24.12Zm20.34-8.64-15.48 7.02c5.94 8.1 9.36 13.68 14.58 23.94l15.84-7.56c-3.6-6.48-10.26-16.92-14.94-23.4ZM341.88 665.18v27c5.58-.36 11.52-.54 18.18-.54h17.46v26.46h-26.28c-5.94 0-16.02-.72-21.24-1.08v28.44c5.76-.36 15.84-.9 21.24-.9h26.28v31.32c0 20.16 7.74 32.4 43.92 32.4 16.74 0 38.88-.54 49.32-1.08l1.98-29.7c-13.86 1.44-30.42 2.52-45.9 2.52-13.32 0-19.26-2.52-19.26-12.78v-22.68h51.48c3.96 0 12.96-.18 18.36.54l-.18-27.9c-5.04.36-15.12.9-18.9.9h-50.76v-26.46h39.78c6.66 0 12.06.36 16.92.54v-27c-4.32.54-10.8.9-16.92.9h-87.3c-6.66 0-12.6-.54-18.18-.9ZM633.66 650.6l-16.92 6.84c3.78 5.4 7.74 12.96 10.98 19.44-4.32.9-9.72 1.44-14.4 1.44h-29.88c2.7-4.68 6.84-11.7 10.8-17.28l-31.5-9.72c-1.98 7.02-6.3 16.38-9.54 21.42-9.54 15.12-25.2 38.52-57.06 58.14l23.58 18.18c16.92-11.7 34.2-28.98 47.34-46.08h46.26c-2.34 9.36-9.18 22.68-17.1 34.2-10.44-6.84-20.88-13.32-29.16-18.18l-19.44 19.98c8.1 5.22 18.72 12.6 29.52 20.52-13.86 13.68-32.76 27.18-63.72 36.9l25.38 21.96c26.64-10.26 46.44-24.84 61.92-40.86 7.38 5.94 13.86 11.52 18.54 15.84l20.88-24.84c-5.04-3.96-12.06-9.18-19.8-14.76 12.42-17.64 21.06-36 25.74-49.32 1.98-5.4 4.68-10.8 7.02-14.76l-16.02-9.9 10.62-4.5c-3.24-6.3-9.54-18-14.04-24.66Zm22.14-8.64-16.92 6.84c4.86 6.84 10.62 17.46 14.22 24.84l16.92-7.2c-3.06-6.12-9.54-17.64-14.22-24.48ZM716.82 660.32l-20.7 22.14c12.96 9.18 35.64 28.98 45.18 39.42l22.32-22.86c-10.8-11.52-34.38-30.24-46.8-38.7Zm-26.64 119.52 18.54 28.8c22.68-3.6 46.08-12.96 64.44-23.76 30.06-17.64 55.62-42.66 70.02-68.22l-16.92-30.78c-12.06 25.38-36.36 53.28-68.76 72-17.64 10.26-40.86 18.36-67.32 21.96ZM1227.2 142l-17.28 8.28c-6.48-12.48-11.16-21.36-14.04-26.64l17.28-8.64c5.52 10.08 10.2 19.08 14.04 27Zm-34.2 5.22v122.94h-127.26v-26.1h98.1v-74.7h-98.1v-26.1h112.14c-2.64-5.16-5.64-10.86-9-17.1l16.92-8.46c4.92 9.24 9.48 18.06 13.68 26.46l-6.48 3.06ZM1254.2 248.56c37.68-3.24 64.86-11.76 81.54-25.56 16.8-13.8 28.14-37.32 34.02-70.56l27.54 4.68c-6.96 39.6-21 68.4-42.12 86.4-21.12 17.88-53.28 28.74-96.48 32.58l-4.5-27.54Zm-7.2-52.38 5.22-25.02c21.24 3.6 41.22 7.44 59.94 11.52l-5.4 25.02c-19.2-4.2-39.12-8.04-59.76-11.52Zm8.64-43.02 5.4-25.56c19.2 3.24 39.6 7.08 61.2 11.52l-5.4 25.74c-24.96-5.16-45.36-9.06-61.2-11.7ZM1558.76 164.14c-.24 25.8-3.6 46.5-10.08 62.1-6.36 15.48-16.26 27.12-29.7 34.92-13.32 7.8-31.44 12.78-54.36 14.94l-5.04-23.58c19.08-2.28 33.78-6.36 44.1-12.24s17.82-14.82 22.5-26.82c4.68-12.12 7.08-28.98 7.2-50.58l25.38 1.26Zm-121.14 7.56 23.58-5.58c4.8 16.8 9.12 32.82 12.96 48.06l-24.3 5.76c-3.72-16.2-7.8-32.28-12.24-48.24Zm38.34-4.5 24.3-5.58c5.04 18 9.36 34.38 12.96 49.14l-24.3 5.58c-4.8-19.08-9.12-35.46-12.96-49.14ZM1714.1 169h-54.54c-7.56 18.12-19.38 35.04-35.46 50.76l-20.52-17.64c10.2-10.2 18.66-22.02 25.38-35.46 6.72-13.56 10.92-27.12 12.6-40.68l28.26 1.62c-.6 5.64-1.38 10.74-2.34 15.3h78.12v4.86c0 42.84-9.6 74.28-28.8 94.32-19.08 20.04-49.98 31.8-92.7 35.28l-4.5-26.1c32.16-3.24 55.32-10.86 69.48-22.86 14.28-12.12 22.62-31.92 25.02-59.4ZM1153.76 431.5v4.68h25.2v-4.68h-25.2Zm0-22.5v4.68h25.2V409h-25.2Zm-54.54 122.58h79.56v-5.22h-79.56v5.22Zm0 14.76v6.12h-28.62V491.8h136.8v60.66h-28.62v-6.12h-79.56Zm54.54-75.24h67.5v16.02h-164.52V471.1h67.5v-4.68h-58.68V453.1h58.68v-4.68h-53.28v-12.24h53.28v-4.68h-68.58v-17.82h68.58V409h-53.28v-14.76h53.28v-9.54h29.52v9.54h53.1v19.44h15.48v17.82h-15.48v16.92h-53.1v4.68h58.68v13.32h-58.68v4.68Zm25.02 41.4v-5.22h-79.56v5.22h79.56ZM1374.62 503.32c-7.44-12.84-14.1-26.76-19.98-41.76v41.76h19.98Zm-47.88-41.76c-5.76 14.64-12.54 28.56-20.34 41.76h20.34v-41.76Zm-13.5-22.86h-32.94v-19.44c-1.44 5.04-3.06 9.9-4.86 14.58v67.5c16.32-20.52 28.92-41.4 37.8-62.64Zm90.18-23.4v23.4h-34.92c9.24 22.68 22.32 44.4 39.24 65.16l-14.94 27.72c-3.96-5.64-8.16-11.94-12.6-18.9v12.78h-25.56v27h-27.9v-27h-26.1v-12.6c-3.48 5.52-7.8 11.76-12.96 18.72l-12.24-13.68v34.56h-26.46v-74.34c-4.08 6.84-8.28 12.66-12.6 17.46l-6.12-34.92c7.2-9.72 13.08-20.22 17.64-31.5 4.68-11.4 8.7-25.38 12.06-41.94l26.28 4.68c-1.2 8.16-2.82 15.96-4.86 23.4h45.36v-27.36h27.9v27.36h48.78ZM1512.86 516.64c25.56-3.6 38.34-19.08 38.34-46.44 0-11.16-3.24-20.64-9.72-28.44-6.36-7.92-14.76-12.9-25.2-14.94-3.12 22.44-6.66 41.22-10.62 56.34-3.84 15-8.22 26.52-13.14 34.56-4.8 7.92-9.72 13.44-14.76 16.56-5.04 3.12-10.86 4.68-17.46 4.68-10.2 0-19.62-5.76-28.26-17.28-8.52-11.52-12.78-25.56-12.78-42.12 0-23.64 7.98-42.84 23.94-57.6 15.96-14.88 36.96-22.32 63-22.32 21 0 38.34 6.66 52.02 19.98 13.68 13.2 20.52 30.06 20.52 50.58 0 21.36-5.4 38.4-16.2 51.12-10.8 12.72-25.38 19.86-43.74 21.42l-5.94-26.1Zm-25.56-88.74c-12.72 3.12-22.68 9.24-29.88 18.36-7.08 9.12-10.62 20.22-10.62 33.3 0 8.04 1.56 15.36 4.68 21.96 3.24 6.48 6.18 9.72 8.82 9.72 1.32 0 2.76-.84 4.32-2.52 1.68-1.68 3.48-4.56 5.4-8.64 1.92-4.08 3.78-9.18 5.58-15.3 1.92-6.12 3.9-14.04 5.94-23.76 2.04-9.84 3.96-20.88 5.76-33.12ZM1628.24 478.84h36v-39.96h-36v39.96Zm0 23.4v9.54h-27v-97.02h63v-28.62h29.52v28.62h63v97.02h-27v-9.54h-36v52.02h-29.52v-52.02h-36Zm101.52-23.4v-39.96h-36v39.96h36ZM1198.04 743.86l-18.54 8.82a513.15 513.15 0 0 0-15.3-28.62l18.54-9.36c5.52 10.2 10.62 19.92 15.3 29.16Zm29.16-5.76-18.9 9c-5.4-10.44-10.62-20.16-15.66-29.16l18.9-9.54c4.32 7.8 9.54 17.7 15.66 29.7Zm-166.32-65.16c48.72 0 98.4-1.2 149.04-3.6l.9 26.1c-27.72 1.92-48.54 7.68-62.46 17.28-13.8 9.6-20.7 21.72-20.7 36.36 0 11.76 3.72 21.06 11.16 27.9 7.56 6.72 17.52 10.08 29.88 10.08 5.88 0 13.14-.78 21.78-2.34l3.24 26.64c-8.28 1.68-17.1 2.52-26.46 2.52-21.6 0-38.88-5.58-51.84-16.74-12.84-11.16-19.26-26.22-19.26-45.18 0-10.44 2.94-20.4 8.82-29.88 5.88-9.48 14.04-17.52 24.48-24.12v-.36c-25.2.96-48.06 1.44-68.58 1.44v-26.1ZM1256.54 667h124.92v26.82h-60.3V721h76.14v26.1h-76.14v16.02c0 8.76 1.14 14.28 3.42 16.56 2.28 2.16 7.74 3.24 16.38 3.24 13.8 0 27.72-.6 41.76-1.8l.72 26.82c-16.08 1.2-32.28 1.8-48.6 1.8-17.88 0-30-3.12-36.36-9.36-6.36-6.36-9.54-18.54-9.54-36.54V747.1h-48.24V721h48.24v-27.18h-32.4V667ZM1588.1 676l-17.28 8.28c-6.48-12.48-11.16-21.36-14.04-26.64l17.28-8.64c5.52 10.08 10.2 19.08 14.04 27Zm-169.74 60.3c10.08-10.2 18.42-22.02 25.02-35.46 6.72-13.44 10.92-26.94 12.6-40.5l27.54 1.62c-.6 6.12-1.38 11.52-2.34 16.2h58.14c-3.12-6.24-6.3-12.24-9.54-18l16.92-8.46c4.92 9.24 9.48 18.06 13.68 26.46v7.2c0 42.84-9.6 74.28-28.8 94.32-19.08 20.04-49.98 31.8-92.7 35.28l-4.5-26.1c34.68-3.6 58.98-12.3 72.9-26.1-17.76-8.76-31.98-15.54-42.66-20.34l13.68-25.38c14.64 6.6 29.4 13.68 44.28 21.24 3.48-9.6 5.64-20.94 6.48-34.02h-55.98c-7.8 18.24-19.44 34.86-34.92 49.86l-19.8-17.82ZM1610.42 691.3l13.86-26.1c17.52 7.92 36.24 17.22 56.16 27.9l-14.58 26.1c-20.04-10.68-38.52-19.98-55.44-27.9Zm119.34-8.46 27.54 6.12c-6.36 36.24-20.88 64.02-43.56 83.34-22.56 19.2-54.24 30.6-95.04 34.2l-4.5-28.26c34.56-3.48 60.84-12.66 78.84-27.54 18.12-15 30.36-37.62 36.72-67.86Z"/><path fill="#FF6D7F" d="M152.284 1007.18V1029h-4.943l-7.884-11.46h-.127V1029h-5.924v-21.82h5.029l7.755 11.42h.171v-11.42h5.923Zm10.771 22.12c-1.776 0-3.296-.35-4.56-1.06-1.264-.71-2.234-1.69-2.908-2.96-.675-1.27-1.012-2.74-1.012-4.42 0-1.68.337-3.15 1.012-4.41a7.15 7.15 0 0 1 2.908-2.96c1.264-.71 2.784-1.07 4.56-1.07 1.775 0 3.295.36 4.559 1.07a7.153 7.153 0 0 1 2.909 2.96c.674 1.26 1.012 2.73 1.012 4.41 0 1.68-.338 3.15-1.012 4.42a7.211 7.211 0 0 1-2.909 2.96c-1.264.71-2.784 1.06-4.559 1.06Zm.042-4.35c.497 0 .927-.17 1.289-.5.363-.33.643-.81.842-1.43.199-.61.298-1.35.298-2.2 0-.86-.099-1.6-.298-2.21-.199-.61-.479-1.09-.842-1.42a1.82 1.82 0 0 0-1.289-.51c-.525 0-.976.17-1.353.51-.376.33-.664.81-.863 1.42-.198.61-.298 1.35-.298 2.21 0 .85.1 1.59.298 2.2.199.62.487 1.1.863 1.43.377.33.828.5 1.353.5Zm20.583-12.31v4.26h-10.782v-4.26h10.782Zm-8.693-3.92h5.88v15.02c0 .22.039.42.117.57.078.15.199.27.363.34.163.07.372.11.628.11.178 0 .384-.02.618-.06.242-.05.419-.08.533-.11l.852 4.13c-.263.08-.639.18-1.129.29-.483.11-1.059.19-1.726.22-1.35.08-2.482-.06-3.399-.41-.916-.36-1.605-.91-2.066-1.67-.462-.76-.686-1.72-.671-2.86v-15.57Zm18.8 20.58c-1.775 0-3.295-.35-4.56-1.06a7.215 7.215 0 0 1-2.908-2.96c-.675-1.27-1.012-2.74-1.012-4.42 0-1.68.337-3.15 1.012-4.41a7.156 7.156 0 0 1 2.908-2.96c1.265-.71 2.785-1.07 4.56-1.07 1.776 0 3.296.36 4.56 1.07a7.156 7.156 0 0 1 2.908 2.96c.675 1.26 1.012 2.73 1.012 4.41 0 1.68-.337 3.15-1.012 4.42a7.215 7.215 0 0 1-2.908 2.96c-1.264.71-2.784 1.06-4.56 1.06Zm.043-4.35c.497 0 .927-.17 1.289-.5.362-.33.643-.81.841-1.43.199-.61.299-1.35.299-2.2 0-.86-.1-1.6-.299-2.21-.198-.61-.479-1.09-.841-1.42a1.82 1.82 0 0 0-1.289-.51c-.526 0-.977.17-1.353.51-.377.33-.664.81-.863 1.42-.199.61-.298 1.35-.298 2.21 0 .85.099 1.59.298 2.2.199.62.486 1.1.863 1.43.376.33.827.5 1.353.5Zm28.476-10.95c-.057-.71-.323-1.26-.799-1.66-.468-.4-1.182-.6-2.141-.6-.611 0-1.112.08-1.502.23-.384.14-.668.33-.852.58-.185.25-.281.53-.288.85-.014.27.032.5.138.72.114.2.292.39.533.56.242.17.55.31.927.45.376.13.824.25 1.342.36l1.79.39c1.207.25 2.241.59 3.1 1.01.86.42 1.563.91 2.11 1.48.546.56.948 1.19 1.203 1.89.263.71.398 1.47.405 2.31-.007 1.43-.366 2.64-1.076 3.64-.71.99-1.726 1.75-3.047 2.27-1.314.52-2.894.78-4.74.78-1.897 0-3.552-.28-4.965-.85-1.406-.56-2.5-1.42-3.281-2.58-.774-1.18-1.165-2.68-1.172-4.5h5.625c.035.67.202 1.23.501 1.68.298.46.717.8 1.257 1.04.547.23 1.196.35 1.949.35.632 0 1.162-.08 1.588-.24.426-.15.749-.37.969-.65.22-.27.334-.59.341-.94a1.354 1.354 0 0 0-.33-.88c-.206-.25-.547-.48-1.023-.68-.476-.21-1.119-.4-1.928-.58l-2.173-.46c-1.932-.42-3.456-1.12-4.571-2.1-1.108-.99-1.658-2.34-1.651-4.04-.007-1.39.362-2.6 1.108-3.63.753-1.05 1.793-1.86 3.121-2.44 1.336-.59 2.866-.88 4.592-.88 1.761 0 3.285.3 4.57.89 1.286.59 2.277 1.42 2.973 2.49.703 1.07 1.058 2.31 1.065 3.74h-5.668Zm12.864 15.26c-1.044 0-1.967-.17-2.77-.52a4.125 4.125 0 0 1-1.875-1.57c-.454-.71-.681-1.6-.681-2.69 0-.89.152-1.66.458-2.29.305-.64.731-1.16 1.278-1.56a5.875 5.875 0 0 1 1.907-.93c.732-.21 1.52-.35 2.365-.42.916-.07 1.651-.15 2.205-.25.561-.11.966-.25 1.215-.44a.9.9 0 0 0 .373-.75v-.05c0-.42-.164-.75-.49-.98-.327-.22-.746-.34-1.257-.34-.562 0-1.02.13-1.375.37-.348.25-.557.62-.628 1.12h-5.412c.071-.99.387-1.91.948-2.75.568-.84 1.396-1.52 2.482-2.02 1.087-.51 2.443-.77 4.07-.77 1.172 0 2.223.14 3.153.42.931.27 1.722.65 2.376 1.14.653.48 1.15 1.05 1.491 1.7.348.65.522 1.35.522 2.11V1029h-5.497v-2.3h-.128c-.326.61-.724 1.1-1.193 1.48-.461.38-.991.65-1.587.82-.59.17-1.239.26-1.95.26Zm1.918-3.71c.447 0 .866-.09 1.257-.28.398-.18.721-.45.969-.8.249-.35.373-.77.373-1.27v-1.36c-.156.06-.323.13-.5.18a6.48 6.48 0 0 1-.554.16c-.192.05-.398.1-.618.14-.213.04-.437.08-.671.12-.455.07-.828.19-1.119.35-.284.16-.497.35-.639.59a1.44 1.44 0 0 0-.203.76c0 .46.16.8.48 1.05.319.24.728.36 1.225.36Zm17.128-5.75v9.2h-5.881v-16.36h5.583v3.11h.17c.355-1.04.98-1.85 1.875-2.44.902-.59 1.953-.89 3.153-.89 1.158 0 2.163.27 3.015.8.86.53 1.524 1.25 1.993 2.18.475.92.71 1.97.703 3.16V1029h-5.881v-9.2c.007-.81-.199-1.45-.618-1.91-.412-.46-.987-.69-1.726-.69-.483 0-.905.1-1.267.32-.356.2-.629.5-.821.89-.192.38-.291.85-.298 1.39Zm28.471-1.84h-5.412a1.484 1.484 0 0 0-.351-.86 1.91 1.91 0 0 0-.799-.55 2.63 2.63 0 0 0-1.066-.21c-.504 0-.937.1-1.299.28-.363.19-.54.45-.533.79-.007.24.096.46.309.67.22.21.643.37 1.268.48l3.323.6c1.677.3 2.923.82 3.74 1.54.824.72 1.239 1.68 1.246 2.89-.007 1.16-.355 2.17-1.044 3.03-.682.86-1.616 1.52-2.802 1.99-1.179.46-2.524.69-4.037.69-2.5 0-4.457-.51-5.87-1.54-1.407-1.02-2.191-2.37-2.355-4.04h5.838c.079.51.334.92.767 1.2.441.28.995.42 1.662.42.54 0 .984-.1 1.332-.28.355-.19.536-.45.543-.79-.007-.31-.163-.56-.468-.75-.299-.18-.767-.33-1.407-.44l-2.897-.51c-1.669-.3-2.919-.85-3.75-1.67-.831-.81-1.243-1.86-1.236-3.15-.007-1.14.291-2.1.895-2.89.611-.79 1.481-1.4 2.61-1.81 1.136-.42 2.482-.63 4.037-.63 2.366 0 4.23.49 5.594 1.47 1.37.98 2.091 2.34 2.162 4.07Zm17.562-10.78h5.838v14.96c-.007 1.42-.365 2.67-1.076 3.75-.703 1.07-1.676 1.91-2.919 2.51-1.235.6-2.659.9-4.272.9-1.399 0-2.677-.24-3.835-.73a6.052 6.052 0 0 1-2.77-2.3c-.689-1.05-1.03-2.41-1.023-4.09h5.924c.021.55.113 1.01.277 1.39.17.37.405.66.703.85.305.18.675.28 1.108.28.44 0 .809-.1 1.108-.29.305-.19.536-.48.692-.85.157-.39.238-.86.245-1.42v-14.96Zm8.646 21.82v-21.82h9.417c1.619 0 3.036.32 4.251.96a6.965 6.965 0 0 1 2.834 2.7c.674 1.15 1.012 2.51 1.012 4.05 0 1.57-.348 2.92-1.044 4.06-.689 1.15-1.659 2.03-2.909 2.65-1.243.61-2.695.92-4.357.92h-5.625v-4.6h4.432c.696 0 1.289-.12 1.779-.36.497-.25.877-.6 1.14-1.06.27-.45.405-.99.405-1.61 0-.62-.135-1.15-.405-1.59a2.574 2.574 0 0 0-1.14-1.03c-.49-.24-1.083-.36-1.779-.36h-2.088V1029h-5.923ZM1050.41 1007.18h7.37l5.07 12.36h.26l5.07-12.36h7.37V1029h-5.8v-12.61h-.17l-4.86 12.44h-3.49l-4.86-12.53h-.17v12.7h-5.79v-21.82Zm33.92 21.82v-21.82h9.42c1.62 0 3.04.32 4.25.96 1.21.64 2.16 1.54 2.83 2.7.68 1.15 1.02 2.51 1.02 4.05 0 1.57-.35 2.92-1.05 4.06-.69 1.15-1.66 2.03-2.91 2.65-1.24.61-2.69.92-4.35.92h-5.63v-4.6h4.43c.7 0 1.29-.12 1.78-.36.5-.25.88-.6 1.14-1.06.27-.45.41-.99.41-1.61 0-.62-.14-1.15-.41-1.59-.26-.45-.64-.79-1.14-1.03-.49-.24-1.08-.36-1.78-.36h-2.08V1029h-5.93Zm19.69 0v-21.82h5.92v17.05h8.82v4.77h-14.74Zm30.05-21.82h5.92v13.98c0 1.66-.39 3.1-1.19 4.31-.79 1.21-1.89 2.15-3.3 2.81-1.42.65-3.06.98-4.92.98-1.89 0-3.53-.33-4.95-.98-1.41-.66-2.51-1.6-3.3-2.81-.78-1.21-1.17-2.65-1.17-4.31v-13.98h5.92v13.47c0 .67.15 1.28.45 1.81.3.52.71.94 1.23 1.23.54.3 1.14.45 1.82.45.68 0 1.28-.15 1.81-.45.52-.29.93-.71 1.23-1.23.3-.53.45-1.14.45-1.81v-13.47Zm20.5 6.82c-.06-.71-.32-1.26-.8-1.66-.47-.4-1.18-.6-2.14-.6-.61 0-1.11.08-1.5.23-.39.14-.67.33-.85.58-.19.25-.29.53-.29.85-.02.27.03.5.14.72.11.2.29.39.53.56.24.17.55.31.93.45.37.13.82.25 1.34.36l1.79.39c1.21.25 2.24.59 3.1 1.01.86.42 1.56.91 2.11 1.48.54.56.95 1.19 1.2 1.89.26.71.4 1.47.41 2.31-.01 1.43-.37 2.64-1.08 3.64-.71.99-1.73 1.75-3.05 2.27-1.31.52-2.89.78-4.74.78-1.89 0-3.55-.28-4.96-.85-1.41-.56-2.5-1.42-3.28-2.58-.78-1.18-1.17-2.68-1.18-4.5h5.63c.04.67.2 1.23.5 1.68.3.46.72.8 1.26 1.04.54.23 1.19.35 1.95.35.63 0 1.16-.08 1.58-.24.43-.15.75-.37.97-.65.22-.27.34-.59.34-.94 0-.34-.11-.63-.33-.88-.2-.25-.54-.48-1.02-.68-.47-.21-1.12-.4-1.93-.58l-2.17-.46c-1.93-.42-3.46-1.12-4.57-2.1-1.11-.99-1.66-2.34-1.65-4.04-.01-1.39.36-2.6 1.11-3.63.75-1.05 1.79-1.86 3.12-2.44 1.33-.59 2.86-.88 4.59-.88 1.76 0 3.28.3 4.57.89 1.29.59 2.28 1.42 2.97 2.49.71 1.07 1.06 2.31 1.07 3.74h-5.67Zm24.93-6.82V1029h-5.92v-16.36h-.13l-4.77 2.85v-5.03l5.37-3.28h5.45Zm4.44 21.82v-21.82h9.42c1.62 0 3.04.32 4.25.96 1.21.64 2.16 1.54 2.83 2.7.68 1.15 1.02 2.51 1.02 4.05 0 1.57-.35 2.92-1.05 4.06-.69 1.15-1.66 2.03-2.91 2.65-1.24.61-2.69.92-4.35.92h-5.63v-4.6h4.43c.7 0 1.29-.12 1.78-.36.5-.25.88-.6 1.14-1.06.27-.45.41-.99.41-1.61 0-.62-.14-1.15-.41-1.59-.26-.45-.64-.79-1.14-1.03-.49-.24-1.08-.36-1.78-.36h-2.09V1029h-5.92ZM1264.24 1029h-3.49l7.85-21.82h3.8l7.85 21.82h-3.49l-6.17-17.86h-.17l-6.18 17.86Zm.59-8.54h11.33v2.77h-11.33v-2.77Zm30.26-7.82-5.93 16.36h-3.41l-5.94-16.36h3.42l4.14 12.59h.17l4.14-12.59h3.41Zm7.29 16.72c-1.04 0-1.97-.19-2.81-.57a4.72 4.72 0 0 1-1.99-1.7c-.49-.74-.73-1.64-.73-2.71 0-.93.18-1.69.54-2.28.35-.6.83-1.07 1.43-1.42.61-.35 1.28-.61 2.03-.79.74-.18 1.5-.31 2.28-.4.98-.12 1.77-.21 2.38-.28.61-.08 1.06-.2 1.34-.37.27-.17.41-.45.41-.83v-.08c0-.93-.26-1.65-.79-2.16-.52-.51-1.29-.77-2.32-.77-1.07 0-1.92.24-2.54.72-.61.46-1.03.99-1.26 1.56l-3-.68c.36-.99.88-1.8 1.56-2.41.69-.62 1.48-1.06 2.37-1.34.9-.28 1.84-.43 2.83-.43.65 0 1.34.08 2.08.24.73.15 1.42.42 2.06.83.65.4 1.18.98 1.59 1.74.41.74.62 1.71.62 2.9V1029h-3.11v-2.24h-.13c-.21.41-.52.82-.93 1.22-.41.39-.94.73-1.59.99-.64.26-1.42.39-2.32.39Zm.69-2.55c.89 0 1.64-.18 2.26-.53a3.59 3.59 0 0 0 1.94-3.18v-2.11c-.11.11-.33.22-.66.32-.32.09-.68.17-1.1.24-.41.07-.81.13-1.2.18-.39.05-.72.1-.98.13-.62.08-1.18.21-1.69.4-.51.18-.91.45-1.22.8-.3.34-.45.79-.45 1.36 0 .79.3 1.38.88 1.79.58.4 1.32.6 2.22.6Zm11.63 2.19v-16.36h3.19V1029h-3.19Zm1.61-18.89c-.56 0-1.03-.18-1.43-.55-.39-.38-.58-.83-.58-1.34 0-.53.19-.98.58-1.35.4-.37.87-.56 1.43-.56.55 0 1.02.19 1.42.56.39.37.59.82.59 1.35 0 .51-.2.96-.59 1.34-.4.37-.87.55-1.42.55Zm9.05-2.93V1029h-3.19v-21.82h3.19Zm9.04 22.18c-1.03 0-1.97-.19-2.81-.57a4.72 4.72 0 0 1-1.99-1.7c-.48-.74-.73-1.64-.73-2.71 0-.93.18-1.69.54-2.28.35-.6.83-1.07 1.44-1.42.6-.35 1.27-.61 2.02-.79.75-.18 1.51-.31 2.28-.4.98-.12 1.77-.21 2.39-.28.61-.08 1.05-.2 1.33-.37.27-.17.41-.45.41-.83v-.08c0-.93-.26-1.65-.79-2.16-.51-.51-1.29-.77-2.32-.77-1.07 0-1.92.24-2.53.72-.61.46-1.04.99-1.27 1.56l-2.99-.68c.35-.99.87-1.8 1.55-2.41.69-.62 1.48-1.06 2.38-1.34.89-.28 1.83-.43 2.82-.43.65 0 1.35.08 2.08.24.74.15 1.42.42 2.06.83.65.4 1.18.98 1.59 1.74.41.74.62 1.71.62 2.9V1029h-3.11v-2.24h-.13c-.21.41-.51.82-.93 1.22-.41.39-.94.73-1.58.99-.65.26-1.42.39-2.33.39Zm.7-2.55c.88 0 1.63-.18 2.25-.53.64-.34 1.12-.8 1.44-1.36.34-.57.5-1.18.5-1.82v-2.11c-.11.11-.33.22-.66.32-.32.09-.68.17-1.09.24-.42.07-.82.13-1.21.18-.39.05-.72.1-.98.13-.62.08-1.18.21-1.69.4-.51.18-.91.45-1.22.8-.3.34-.44.79-.44 1.36 0 .79.29 1.38.87 1.79.58.4 1.32.6 2.23.6Zm11.88 2.19v-21.82h3.18v8.11h.19c.19-.34.46-.74.8-1.18.35-.45.83-.84 1.45-1.18.62-.34 1.44-.51 2.45-.51 1.32 0 2.5.34 3.54 1 1.04.67 1.85 1.63 2.44 2.89.6 1.26.89 2.77.89 4.54s-.29 3.28-.88 4.55c-.59 1.26-1.4 2.23-2.43 2.91-1.03.67-2.2 1.01-3.53 1.01-.99 0-1.8-.17-2.44-.5-.62-.33-1.11-.73-1.47-1.17-.35-.45-.62-.85-.82-1.2h-.26v2.55h-3.11Zm3.12-8.18c0 1.15.17 2.16.5 3.02.33.87.82 1.55 1.45 2.04.63.48 1.4.72 2.32.72.95 0 1.75-.25 2.39-.75.64-.51 1.12-1.21 1.45-2.08.33-.87.5-1.86.5-2.95 0-1.08-.17-2.05-.49-2.91-.32-.86-.81-1.54-1.45-2.03-.64-.5-1.44-.75-2.4-.75-.92 0-1.7.24-2.34.71-.64.48-1.11 1.14-1.44 2-.33.85-.49 1.84-.49 2.98Zm18.59-13.64V1029h-3.19v-21.82h3.19Zm11.33 22.15c-1.61 0-3-.34-4.16-1.03-1.16-.7-2.05-1.68-2.69-2.93-.62-1.27-.93-2.75-.93-4.45 0-1.67.31-3.15.93-4.43.64-1.28 1.52-2.27 2.65-2.99 1.13-.72 2.46-1.08 3.98-1.08.92 0 1.82.16 2.68.46.87.31 1.65.79 2.34 1.44.69.65 1.23 1.5 1.63 2.55.4 1.03.59 2.29.59 3.78v1.13h-13v-2.39h9.88c0-.84-.17-1.58-.51-2.23-.34-.65-.82-1.16-1.44-1.54-.61-.38-1.32-.57-2.15-.57-.89 0-1.67.22-2.34.67-.66.43-1.17 1-1.54 1.7-.35.7-.53 1.45-.53 2.27v1.86c0 1.1.19 2.03.58 2.79.39.77.93 1.36 1.63 1.76.69.4 1.51.6 2.44.6.6 0 1.15-.09 1.65-.26.49-.17.92-.44 1.29-.79.36-.34.64-.77.83-1.28l3.01.54c-.24.89-.67 1.66-1.3 2.33-.62.66-1.39 1.18-2.33 1.55-.93.36-1.99.54-3.19.54Zm25.39 0c-1.53 0-2.87-.35-4.02-1.05-1.14-.71-2.03-1.69-2.66-2.96-.63-1.26-.95-2.74-.95-4.43 0-1.69.32-3.18.95-4.45.63-1.27 1.52-2.26 2.66-2.96 1.15-.71 2.49-1.06 4.02-1.06 1.54 0 2.87.35 4.02 1.06 1.14.7 2.03 1.69 2.66 2.96.63 1.27.95 2.76.95 4.45 0 1.69-.32 3.17-.95 4.43-.63 1.27-1.52 2.25-2.66 2.96-1.15.7-2.48 1.05-4.02 1.05Zm.01-2.67c1 0 1.82-.27 2.47-.79.66-.53 1.14-1.23 1.45-2.1.32-.87.48-1.84.48-2.89 0-1.04-.16-2-.48-2.87-.31-.89-.79-1.59-1.45-2.12-.65-.54-1.47-.8-2.47-.8-1 0-1.83.26-2.49.8-.65.53-1.14 1.23-1.46 2.12-.31.87-.47 1.83-.47 2.87 0 1.05.16 2.02.47 2.89.32.87.81 1.57 1.46 2.1.66.52 1.49.79 2.49.79Zm14.36-7.38v9.72h-3.19v-16.36h3.06v2.66h.2c.38-.87.97-1.56 1.77-2.09.81-.52 1.83-.79 3.06-.79 1.12 0 2.09.24 2.93.71.84.46 1.49 1.15 1.95 2.06.46.92.69 2.05.69 3.4V1029h-3.18v-10.02c0-1.19-.31-2.12-.93-2.79-.62-.67-1.47-1.01-2.55-1.01-.73 0-1.39.16-1.97.48-.57.32-1.02.79-1.35 1.41-.33.61-.49 1.35-.49 2.21Zm37.7-5.21c-.2-.64-.48-1.22-.83-1.73-.34-.52-.75-.96-1.22-1.32-.48-.37-1.02-.65-1.63-.84-.6-.2-1.27-.29-1.99-.29-1.23 0-2.34.31-3.33.95-.98.63-1.77 1.55-2.34 2.78-.57 1.21-.85 2.7-.85 4.46 0 1.77.28 3.26.86 4.49.57 1.22 1.36 2.14 2.36 2.78 1.01.63 2.15.94 3.42.94 1.19 0 2.22-.24 3.1-.72.89-.48 1.58-1.17 2.06-2.05.49-.88.74-1.93.74-3.13l.85.16h-6.24v-2.71h8.57v2.48c0 1.83-.39 3.42-1.17 4.77a7.968 7.968 0 0 1-3.22 3.11c-1.36.73-2.92 1.1-4.69 1.1-1.97 0-3.7-.46-5.19-1.37-1.49-.9-2.65-2.19-3.48-3.86-.83-1.68-1.24-3.67-1.24-5.97 0-1.74.24-3.3.72-4.69.48-1.38 1.16-2.56 2.04-3.52.88-.98 1.91-1.72 3.1-2.23 1.19-.52 2.49-.78 3.91-.78 1.17 0 2.27.18 3.29.53 1.02.34 1.93.84 2.72 1.48a8.334 8.334 0 0 1 3.06 5.18h-3.38Zm14.35 15.26c-1.54 0-2.88-.35-4.02-1.05-1.14-.71-2.03-1.69-2.66-2.96-.63-1.26-.95-2.74-.95-4.43 0-1.69.32-3.18.95-4.45.63-1.27 1.52-2.26 2.66-2.96 1.14-.71 2.48-1.06 4.02-1.06 1.53 0 2.87.35 4.01 1.06 1.15.7 2.03 1.69 2.67 2.96.63 1.27.94 2.76.94 4.45 0 1.69-.31 3.17-.94 4.43-.64 1.27-1.52 2.25-2.67 2.96-1.14.7-2.48 1.05-4.01 1.05Zm.01-2.67c.99 0 1.82-.27 2.47-.79.65-.53 1.14-1.23 1.45-2.1.32-.87.48-1.84.48-2.89 0-1.04-.16-2-.48-2.87-.31-.89-.8-1.59-1.45-2.12-.65-.54-1.48-.8-2.47-.8-1 0-1.83.26-2.5.8-.65.53-1.14 1.23-1.45 2.12-.32.87-.47 1.83-.47 2.87 0 1.05.15 2.02.47 2.89.31.87.8 1.57 1.45 2.1.67.52 1.5.79 2.5.79Zm18.06 2.67c-1.53 0-2.87-.35-4.01-1.05-1.15-.71-2.03-1.69-2.67-2.96-.63-1.26-.94-2.74-.94-4.43 0-1.69.31-3.18.94-4.45.64-1.27 1.52-2.26 2.67-2.96 1.14-.71 2.48-1.06 4.01-1.06 1.54 0 2.88.35 4.02 1.06 1.14.7 2.03 1.69 2.66 2.96.64 1.27.95 2.76.95 4.45 0 1.69-.31 3.17-.95 4.43-.63 1.27-1.52 2.25-2.66 2.96-1.14.7-2.48 1.05-4.02 1.05Zm.01-2.67c1 0 1.82-.27 2.48-.79.65-.53 1.13-1.23 1.44-2.1.32-.87.48-1.84.48-2.89 0-1.04-.16-2-.48-2.87-.31-.89-.79-1.59-1.44-2.12-.66-.54-1.48-.8-2.48-.8s-1.83.26-2.49.8c-.65.53-1.14 1.23-1.46 2.12-.31.87-.47 1.83-.47 2.87 0 1.05.16 2.02.47 2.89.32.87.81 1.57 1.46 2.1.66.52 1.49.79 2.49.79Zm18.04 8.82c-1.3 0-2.42-.17-3.36-.51-.93-.34-1.69-.8-2.28-1.36-.59-.56-1.03-1.17-1.32-1.84l2.74-1.13c.19.31.45.64.77.99.32.36.76.66 1.32.91s1.28.37 2.16.37c1.21 0 2.2-.29 2.99-.88.79-.59 1.19-1.52 1.19-2.8v-3.21h-.21c-.19.35-.47.73-.83 1.16-.35.42-.84.79-1.47 1.11-.62.31-1.44.46-2.44.46-1.29 0-2.46-.3-3.49-.9-1.03-.61-1.85-1.51-2.45-2.7-.6-1.19-.9-2.66-.9-4.4 0-1.74.3-3.23.89-4.47.59-1.24 1.41-2.19 2.45-2.86 1.03-.66 2.21-1 3.52-1 1.02 0 1.84.17 2.46.51.63.34 1.12.73 1.46 1.18.36.44.63.84.82 1.18h.24v-2.65h3.12v16.72c0 1.41-.33 2.56-.98 3.46-.65.91-1.54 1.57-2.65 2.01-1.11.43-2.36.65-3.75.65Zm-.03-9.37c.91 0 1.69-.21 2.32-.64.64-.43 1.12-1.05 1.45-1.85.33-.81.5-1.78.5-2.91 0-1.1-.17-2.07-.49-2.91-.33-.83-.81-1.49-1.44-1.96-.63-.47-1.41-.71-2.34-.71-.96 0-1.76.25-2.4.75-.64.49-1.12 1.15-1.45 2-.32.84-.48 1.79-.48 2.83 0 1.07.16 2.02.49 2.82.33.81.81 1.45 1.45 1.9.65.46 1.44.68 2.39.68Zm14.87-18.93V1029h-3.19v-21.82h3.19Zm11.34 22.15c-1.62 0-3.01-.34-4.17-1.03-1.16-.7-2.05-1.68-2.68-2.93-.63-1.27-.94-2.75-.94-4.45 0-1.67.31-3.15.94-4.43.63-1.28 1.51-2.27 2.64-2.99 1.13-.72 2.46-1.08 3.98-1.08.93 0 1.82.16 2.69.46.86.31 1.64.79 2.33 1.44.69.65 1.23 1.5 1.63 2.55.4 1.03.6 2.29.6 3.78v1.13h-13.01v-2.39h9.88c0-.84-.17-1.58-.51-2.23a3.93 3.93 0 0 0-1.43-1.54c-.62-.38-1.33-.57-2.16-.57-.89 0-1.67.22-2.34.67-.66.43-1.17 1-1.53 1.7-.36.7-.54 1.45-.54 2.27v1.86c0 1.1.19 2.03.58 2.79.39.77.93 1.36 1.63 1.76.69.4 1.51.6 2.44.6.6 0 1.15-.09 1.65-.26s.93-.44 1.29-.79c.36-.34.64-.77.83-1.28l3.01.54c-.24.89-.67 1.66-1.3 2.33-.61.66-1.39 1.18-2.33 1.55-.93.36-1.99.54-3.18.54Zm18.75-.33v-21.82h13.53v2.84h-10.24v6.64h9.27v2.83h-9.27v9.51h-3.29Zm23.01.33c-1.53 0-2.87-.35-4.02-1.05-1.14-.71-2.03-1.69-2.66-2.96-.63-1.26-.95-2.74-.95-4.43 0-1.69.32-3.18.95-4.45.63-1.27 1.52-2.26 2.66-2.96 1.15-.71 2.49-1.06 4.02-1.06 1.53 0 2.87.35 4.02 1.06 1.14.7 2.03 1.69 2.66 2.96.63 1.27.95 2.76.95 4.45 0 1.69-.32 3.17-.95 4.43-.63 1.27-1.52 2.25-2.66 2.96-1.15.7-2.49 1.05-4.02 1.05Zm.01-2.67c.99 0 1.82-.27 2.47-.79.66-.53 1.14-1.23 1.45-2.1.32-.87.48-1.84.48-2.89 0-1.04-.16-2-.48-2.87-.31-.89-.79-1.59-1.45-2.12-.65-.54-1.48-.8-2.47-.8-1 0-1.83.26-2.49.8-.66.53-1.14 1.23-1.46 2.12-.31.87-.47 1.83-.47 2.87 0 1.05.16 2.02.47 2.89.32.87.8 1.57 1.46 2.1.66.52 1.49.79 2.49.79Zm14.36-7.38v9.72h-3.19v-16.36h3.06v2.66h.2c.38-.87.97-1.56 1.77-2.09.81-.52 1.83-.79 3.06-.79 1.11 0 2.09.24 2.93.71.84.46 1.49 1.15 1.95 2.06.46.92.69 2.05.69 3.4V1029h-3.18v-10.02c0-1.19-.31-2.12-.93-2.79-.62-.67-1.47-1.01-2.55-1.01-.74 0-1.39.16-1.97.48-.57.32-1.02.79-1.35 1.41-.33.61-.49 1.35-.49 2.21Zm22.38-6.64v2.55h-8.94v-2.55h8.94Zm-6.54-3.92h3.19v15.48c0 .61.09 1.08.27 1.39.19.31.42.52.72.63.29.11.62.16.97.16.25 0 .47-.02.67-.05.19-.04.34-.07.44-.09l.58 2.63c-.19.07-.45.14-.79.22-.34.07-.77.12-1.28.12-.84.02-1.62-.13-2.34-.44-.73-.32-1.31-.8-1.76-1.45-.45-.66-.67-1.48-.67-2.46v-16.14Zm22.06 7.91-2.88.51c-.12-.37-.32-.72-.58-1.05-.25-.34-.6-.61-1.04-.82-.44-.22-.99-.32-1.65-.32-.91 0-1.66.2-2.26.61-.61.39-.91.91-.91 1.54 0 .55.2.99.61 1.32.4.33 1.06.61 1.96.82l2.6.6c1.5.35 2.63.88 3.36 1.61.74.72 1.11 1.66 1.11 2.82 0 .98-.28 1.85-.85 2.62-.56.76-1.35 1.36-2.35 1.79-1.01.43-2.17.65-3.49.65-1.83 0-3.32-.39-4.48-1.17-1.16-.79-1.87-1.91-2.13-3.36l3.08-.47c.19.81.58 1.41 1.18 1.83.59.4 1.37.6 2.33.6 1.05 0 1.88-.21 2.5-.65.63-.44.94-.97.94-1.61 0-.51-.19-.94-.57-1.28-.38-.35-.96-.62-1.74-.79l-2.77-.61c-1.53-.35-2.66-.9-3.39-1.66-.72-.76-1.08-1.72-1.08-2.89 0-.97.27-1.81.81-2.53.54-.73 1.28-1.29 2.23-1.7.95-.41 2.04-.62 3.27-.62 1.77 0 3.16.39 4.18 1.15 1.02.76 1.69 1.78 2.01 3.06Z"/></svg>