<svg width="1920" height="1080" viewBox="0 0 1920 1080" fill="none" xmlns="http://www.w3.org/2000/svg">
<path d="M619.649 213.2C618.949 216.525 615.624 217.05 606.699 217.4L586.224 218.275L585.524 240.325C585.174 250.125 582.549 259.4 578.174 259.4C574.849 259.4 574.674 241.025 574.674 241.025L573.799 155.1C573.799 150.2 551.399 143.375 552.624 140.575C553.674 137.775 556.999 137.775 559.624 137.775C561.899 137.775 572.224 140.05 578.349 141.975C590.774 145.65 586.574 149.5 586.574 155.625L586.399 211.625L594.624 211.1C595.149 211.1 601.799 206.725 603.724 206.725C611.599 206.725 621.224 205.85 619.649 213.2ZM535.824 160.175C535.649 166.125 507.124 165.775 504.149 164.55C499.774 162.975 487.874 155.45 490.149 153.35C491.549 152.125 500.474 154.575 506.249 154.75C527.424 155.625 536.174 152.475 535.824 160.175ZM562.774 180.475C561.549 185.55 550.874 184.675 542.824 183.975C540.024 183.8 528.474 184.15 519.899 184.15C524.099 187.475 523.924 190.45 523.399 192.025C527.774 192.55 550.174 195 549.299 220.025C548.774 232.1 537.049 245.75 518.324 246.275C493.999 246.8 482.449 229.125 482.799 217.925C483.674 195.7 508.874 192.725 511.324 192.025C512.199 191.15 514.299 190.275 512.374 184.675C505.024 184.85 495.749 185.9 493.649 186.25C489.449 186.775 486.299 189.575 481.224 187.3C472.649 183.275 465.299 179.6 466.174 177.85C467.049 176.275 475.974 178.55 485.424 179.075C494.349 179.6 504.149 178.9 514.474 178.375C523.749 178.025 533.549 177.5 535.824 176.625C537.749 176.45 545.274 173.125 545.624 173.125C561.199 173.475 563.649 176.275 562.774 180.475ZM603.024 287.75C603.374 294.225 590.424 294.4 581.499 294.4H534.249C527.424 294.4 523.399 294.4 520.949 292.3C517.974 289.675 516.399 287.225 516.399 281.625V266.925C516.399 264.825 516.049 264.125 512.724 262.2C509.399 260.45 499.774 258.525 500.124 256.6C500.299 254.15 505.724 252.575 518.849 253.8C533.199 255.025 528.649 260.275 528.649 264.65V280.925C528.649 285.825 529.524 286.7 530.049 287.05C531.449 288.275 532.849 287.575 534.774 287.575L567.674 287.225C569.949 287.225 577.474 282.85 579.574 282.85C581.324 282.85 602.499 281.1 603.024 287.75ZM540.024 218.275C541.074 203.05 526.024 198.675 522.174 197.275C521.649 198.85 520.424 201.125 515.699 201.475C511.149 201.825 494.874 207.425 494.874 219.5C494.874 228.425 506.599 237.7 517.624 237.35C534.424 236.65 539.674 223.35 540.024 218.275Z" fill="#FF6D7F"/>
<path d="M792.899 204.45C793.424 211.8 785.024 210.75 773.474 210.225C764.374 209.7 739.699 209.7 714.324 210.75C686.149 211.8 669.874 213.2 668.124 213.725C666.899 213.725 660.949 217.4 658.149 216.525C650.799 214.425 632.249 206.725 636.449 203.575C638.024 202.35 650.099 205.15 663.574 205.5C672.849 205.675 686.674 205.325 704.524 204.8C725.524 204.275 739.174 203.225 743.549 202.875C744.599 200.425 745.474 197.1 748.099 185.375C750.899 172.775 751.774 161.225 751.774 158.075C747.924 158.25 736.199 158.425 718.524 159.125C703.124 159.825 689.999 160.525 684.749 160.7C682.824 160.7 678.799 164.375 675.474 162.8C668.999 160 655.349 155.45 657.974 151.775C659.199 150.2 666.374 153 682.824 153C691.224 153 702.599 153 717.474 152.475C734.799 151.775 744.774 151.075 748.274 150.9C750.374 150.725 753.174 148.975 754.749 148.8C756.499 148.45 760.874 150.2 764.374 151.6C773.299 155.1 766.124 158.6 765.424 160.175C764.549 162.8 763.499 172.25 758.949 184.675C755.274 194.65 753.349 199.55 751.949 202.175L762.449 201.3C765.599 200.95 771.374 198.675 773.474 198.5C779.249 197.975 792.374 199.025 792.899 204.45ZM768.049 287.925C768.049 293.7 758.949 293.525 751.074 293.525C736.899 293.525 689.124 293.7 689.124 293.7C685.099 293.7 680.374 292.65 677.224 290.725C673.724 288.45 672.674 283.725 672.499 279.525L672.149 267.275C672.149 265.525 666.024 264.125 662.874 262.725C659.724 261.325 660.424 257.475 667.424 257.475C677.574 257.475 683.874 259.225 686.149 259.225C689.299 259.225 703.649 258.875 718.349 258.35C732.524 257.825 738.999 257.125 741.974 256.95C742.149 254.85 742.674 251.7 743.024 246.275C743.199 242.25 743.199 239.975 743.199 237.875C739.874 238.05 733.224 238.05 717.474 239.1C702.074 240.15 687.724 240.15 686.149 240.675C684.399 241.025 682.124 244.175 678.799 242.95C673.374 241.025 659.899 235.6 661.474 232.8C662.349 231.4 671.974 232.975 685.624 233.15C713.449 233.675 740.574 231.4 741.274 231.225C743.374 231.225 745.649 229.475 746.874 229.475C748.624 229.125 754.924 231.05 756.499 231.75C763.499 234.725 756.674 237.7 755.974 239.45C755.449 241.375 755.274 242.25 753.699 247.15C752.299 251.35 751.599 253.8 750.899 256.25C753.174 256.775 758.074 257.3 758.949 260.45C760.349 265.35 749.674 264.825 747.049 264.825C743.549 264.825 733.749 264.475 719.924 264.65C706.799 264.65 690.174 265.35 685.099 265.525V281.975C685.099 283.375 684.399 285.125 685.449 285.825C686.499 286.7 688.249 286.35 689.124 286.35C694.374 286.525 708.024 286.7 716.424 286.7C725.349 286.875 730.599 286.35 736.374 286.175C740.749 286.175 747.749 282.325 749.674 282.15C759.474 281.45 768.049 282.5 768.049 287.925Z" fill="#FF6D7F"/>
<path d="M1006.16 153L1004.93 269.9C1004.76 280.05 1004.06 298.95 997.756 300.175C994.606 300.7 993.731 289.15 993.731 281.975L993.381 151.95C993.381 150.025 991.106 150.2 985.856 147.05C981.481 144.425 974.481 142.5 975.181 140.75C975.881 138.65 980.431 136.9 983.406 137.6C992.506 139.525 998.106 141.275 1001.78 142.15C1008.78 143.725 1006.16 149.325 1006.16 153ZM977.281 164.2L976.756 253.1C976.756 262.375 975.356 285.825 969.406 286.175C966.256 286.35 965.906 276.2 965.906 269.375L965.206 210.05C964.156 210.05 962.931 209.875 960.306 210.05C955.581 210.575 951.206 211.1 950.331 211.275C947.881 211.8 945.431 214.425 941.931 212.85C937.731 210.925 929.681 207.775 929.681 205.5C929.681 203.575 936.156 204.45 948.231 204.1C956.281 203.75 961.706 203.4 965.206 203.4V164.025C965.206 162.975 963.106 161.925 959.431 159.475C953.831 155.625 948.231 154.575 948.756 152.475C949.106 150.2 955.756 149.325 958.031 150.025C962.406 151.25 969.581 152.65 973.781 154.05C979.206 155.8 977.281 160.35 977.281 164.2ZM938.606 249.075C934.581 250.3 930.031 240.15 924.606 229.65C919.881 220.725 917.256 215.825 915.331 212.675C913.231 215.65 906.231 224.75 897.481 232.8C884.531 244.875 874.031 251.875 871.756 250.3C869.831 248.9 881.381 240.5 894.681 223.875C909.556 205.325 917.606 184.15 918.656 180.825C919.181 179.95 917.431 178.9 914.281 176.45C909.556 172.425 904.306 170.85 904.831 169.275C905.356 167.35 912.531 167.175 915.681 168.05C921.456 169.8 924.956 171.9 929.331 173.825C935.456 176.45 932.131 182.225 931.081 184.15C930.381 185.9 927.406 192.9 924.431 198.15C922.681 201.3 920.231 205.325 918.831 207.25L926.531 216.175C930.906 221.25 935.981 224.575 936.681 225.625C943.681 235.775 942.281 247.85 938.606 249.075Z" fill="#FF6D7F"/>
<path d="M1176.61 154.575L1176.43 272C1176.43 276.025 1175.91 300.875 1168.03 299.825C1165.41 299.475 1165.06 286 1165.06 277.425L1164.88 235.95C1156.83 240.325 1143.71 246.1 1129.88 251C1109.76 258 1085.78 263.425 1080.18 263.95C1075.81 264.475 1069.16 258.35 1069.16 249.25L1068.98 218.1C1068.98 211.625 1053.58 211.45 1054.28 207.95C1054.81 205.325 1061.46 204.1 1067.06 204.625C1079.13 205.5 1079.83 207.425 1081.23 207.425C1081.23 207.425 1086.66 207.25 1098.56 206.375C1105.56 205.85 1112.73 204.975 1115.36 204.625C1115.71 201.65 1116.41 192.725 1116.76 185.55C1116.93 180.475 1116.76 175.75 1116.76 173.3C1114.48 173.3 1107.48 173.3 1101.01 173.825C1089.98 174.7 1083.86 175.225 1081.58 175.575C1079.83 175.925 1076.86 178.55 1072.31 176.975C1065.13 174.35 1057.43 169.45 1058.48 167.175C1059.36 165.075 1067.23 168.05 1078.43 167.7C1095.76 167 1110.63 166.125 1112.91 166.125C1114.31 166.125 1117.81 164.025 1119.03 164.2C1121.48 164.375 1132.68 168.225 1132.68 170.675C1132.68 172.775 1129.88 172.95 1129.53 175.05C1129.36 176.975 1127.78 182.925 1126.56 188.875C1125.16 195.175 1123.93 200.95 1123.41 203.225C1125.68 203.575 1130.23 203.575 1130.93 207.075C1131.81 211.45 1123.93 211.625 1120.96 211.975C1118.51 212.15 1110.46 212.15 1101.18 212.85C1090.86 213.55 1084.73 214.25 1081.58 214.425V246.975C1081.58 248.375 1081.41 250.125 1082.28 250.65C1083.51 251.525 1085.08 251.525 1087.53 251.35C1090.16 251 1109.93 249.075 1133.21 242.425C1148.78 238.05 1158.76 233.15 1164.71 230.7L1164.01 155.1C1164.01 148.8 1141.43 143.375 1143.53 139.525C1144.93 136.9 1152.28 137.075 1160.51 139C1168.38 140.75 1174.51 142.85 1175.91 144.25C1178.01 146.7 1176.61 150.55 1176.61 154.575Z" fill="#FF6D7F"/>
<path d="M1359.48 168.4C1357.91 174 1343.56 172.95 1337.78 172.775C1332.88 172.6 1316.96 173.3 1298.93 173.65C1282.31 173.825 1276.71 174.875 1268.66 175.4C1267.43 175.4 1261.48 179.075 1258.16 177.675C1250.81 174.875 1239.08 169.1 1241.36 166.65C1242.23 165.775 1245.03 166.3 1250.81 167.175C1254.13 167.7 1255.36 167.35 1259.91 167.525C1266.56 167.875 1281.78 167.525 1294.73 167.35C1309.61 167 1319.23 165.775 1324.13 165.6C1327.28 165.6 1332.53 161.4 1335.33 161.225C1351.96 160.525 1361.06 163.15 1359.48 168.4ZM1358.08 228.425C1356.51 234.2 1344.26 232.975 1335.33 232.975C1331.66 232.975 1324.13 232.45 1302.08 233.5C1283.36 234.55 1271.81 235.25 1266.56 235.775C1264.98 236.125 1261.83 239.975 1257.28 238.05C1244.33 232.45 1238.56 229.475 1239.96 227.725C1241.18 225.975 1244.33 226.675 1252.38 227.55C1267.26 228.95 1305.23 226.325 1310.13 226.15C1311.18 222.65 1313.11 216 1314.16 210.75C1316.61 199.55 1317.66 193.6 1318.36 190.275C1318.53 188.525 1315.21 186.95 1313.81 185.2C1311.53 183.275 1308.91 182.575 1309.61 181C1311.36 177.5 1314.68 178.2 1328.33 183.45C1338.31 187.125 1332.18 192.55 1331.48 193.95C1330.08 197.45 1325.88 207.6 1323.26 213.2C1321.51 217.225 1319.06 222.125 1317.48 225.625C1320.28 225.625 1329.73 225.45 1334.11 222.3C1335.51 221.425 1360.36 220.725 1358.08 228.425ZM1285.46 202.875C1287.91 207.425 1288.26 224.225 1281.78 225.1C1275.83 225.8 1275.31 214.075 1272.51 205.15C1267.96 191.15 1261.13 185.025 1263.76 182.575C1265.86 180.65 1280.91 195 1285.46 202.875ZM1379.26 267.625C1377.33 275.325 1367.53 273.225 1355.28 273.225C1351.08 273.225 1333.06 272.35 1308.38 273.225C1282.48 274.1 1258.68 276.2 1254.13 277.25C1252.21 277.6 1250.11 281.275 1244.33 279.7C1234.01 276.725 1221.93 271.475 1222.63 268.325C1223.33 265.7 1229.98 267.275 1234.53 267.625C1238.91 267.8 1242.76 267.975 1248.01 267.975C1269.71 268.15 1286.68 267.625 1303.66 266.75C1321.33 265.875 1341.28 264.475 1347.06 263.775C1350.03 263.425 1352.13 260.625 1355.81 260.8C1362.63 261.15 1381.18 260.275 1379.26 267.625Z" fill="#FF6D7F"/>
<path d="M1588.49 155.8L1587.79 272C1587.61 286.7 1584.64 299.825 1579.21 299.825C1576.59 299.825 1575.71 288.1 1575.71 280.225L1575.19 154.75C1575.19 148.45 1553.84 143.025 1555.06 140.4C1556.29 137.6 1563.46 136.9 1571.69 139C1577.64 140.4 1584.99 142.325 1587.09 144.425C1589.71 147.05 1588.49 151.6 1588.49 155.8ZM1542.99 177.675L1541.94 231.575C1541.76 240.85 1539.14 252.75 1533.19 252.225C1530.56 252.05 1530.04 247.15 1529.86 244.875L1487.69 246.1C1486.99 248.55 1485.76 256.25 1479.64 256.425C1477.01 256.425 1477.19 247.325 1477.19 244L1475.96 185.375C1475.79 179.25 1460.04 178.025 1460.91 174.875C1461.44 172.6 1465.99 170.5 1474.56 171.725C1480.16 172.425 1486.46 173.65 1488.39 175.75C1490.14 177.5 1488.91 183.625 1488.91 185.375V197.8L1530.04 197.1V177.15C1530.04 172.425 1515.34 169.275 1516.04 165.95C1516.39 164.2 1521.46 162.1 1528.81 164.025C1534.59 165.425 1541.24 167.175 1542.64 169.1C1544.21 171.725 1542.99 174.7 1542.99 177.675ZM1530.21 237.525V204.45L1488.74 205.325L1488.21 238.75L1530.21 237.525Z" fill="#FF6D7F"/>
<path d="M1767.34 164.725C1773.29 167.35 1767.16 171.375 1766.81 173.475C1765.76 178.725 1762.61 198.675 1758.41 214.425C1751.06 241.9 1745.11 249.25 1742.14 246.1C1740.74 244.875 1745.29 236.65 1750.01 204.8C1752.81 185.55 1753.34 175.575 1753.34 171.2C1750.19 171.55 1740.56 171.55 1723.94 172.425C1708.89 173.125 1683.69 174.175 1679.84 174.7C1677.56 174.875 1672.66 177.675 1669.16 176.625C1662.34 174.525 1650.96 169.275 1652.36 166.125C1653.06 164.2 1660.94 165.775 1673.89 166.3C1686.66 166.825 1705.39 166.65 1723.41 165.775C1740.39 164.9 1747.56 164.2 1750.89 164.2C1752.64 164.025 1754.56 161.75 1756.84 161.575C1758.59 161.225 1764.71 163.5 1767.34 164.725ZM1789.21 269.725C1788.34 276.55 1781.16 272.875 1761.04 273.225C1745.46 273.4 1731.64 273.05 1712.91 273.575C1688.59 274.1 1670.04 276.375 1666.54 276.9C1661.81 277.425 1659.54 281.275 1654.46 279.175C1647.46 276.375 1632.76 271.65 1636.09 266.4C1637.14 264.65 1643.79 267.625 1659.01 268.15C1667.06 268.5 1675.29 268.325 1680.19 268.15L1679.66 225.275C1679.66 222.475 1667.06 219.15 1664.96 217.75C1662.86 216.35 1665.49 213.025 1669.69 213.375C1673.89 213.55 1680.89 214.95 1687.89 216.525C1694.54 217.925 1692.79 220.725 1692.44 223.35L1690.86 267.625L1715.36 267.275L1715.89 219.675C1715.89 215.825 1707.66 213.375 1705.21 211.625C1702.41 209.7 1705.04 206.725 1710.11 207.6C1714.84 208.475 1721.84 210.4 1725.16 211.625C1731.99 214.075 1728.66 218.975 1728.31 221.25L1726.21 266.75L1757.71 265.525C1760.86 265.35 1764.89 263.075 1767.69 263.075C1781.34 262.725 1790.09 264.125 1789.21 269.725Z" fill="#FF6D7F"/>
<path d="M584.579 578.45C591.419 578.45 594.079 565.15 594.079 553.18V524.11C601.109 523.92 612.129 523.73 620.109 523.73C624.289 523.73 627.519 523.73 628.849 523.92C630.369 522.21 631.509 519.55 631.509 517.08C631.509 514.04 629.609 511.19 624.479 511.19C617.449 511.19 605.479 514.23 594.079 518.79V459.51C594.079 456.28 594.459 453.81 595.029 450.96C590.279 446.02 579.069 441.46 572.419 441.46C567.289 441.46 566.149 442.22 566.149 445.07C571.659 448.11 581.539 453.81 581.539 456.85V577.5C582.489 578.07 583.439 578.45 584.579 578.45ZM519.409 467.68C532.709 467.68 536.889 465.97 536.889 461.79C536.889 457.99 534.419 457.42 521.879 457.42C509.339 457.42 499.269 457.23 491.479 453.24C490.339 453.62 490.149 454.38 490.149 455.33C490.149 461.41 504.779 467.68 519.409 467.68ZM479.509 491.62C481.599 490.1 484.259 489.34 488.059 489.15C499.079 488.58 531.949 486.68 550.379 486.68C554.369 486.68 557.979 486.87 562.729 487.25C564.439 485.92 565.769 483.26 565.769 480.03C565.769 476.8 561.589 475.09 556.459 475.09C553.229 475.09 549.619 475.28 547.339 475.85C546.199 477.18 544.489 477.94 541.069 478.32C531.949 479.27 497.939 480.6 489.009 480.6C480.839 480.6 470.389 479.84 465.259 478.7C464.879 479.27 464.689 479.84 464.689 480.79C464.689 485.54 474.569 491.81 479.509 491.62ZM517.319 553.75C537.839 553.75 551.519 542.73 551.519 527.53C551.519 511.95 540.309 501.88 522.829 500.17V499.22C522.829 495.04 519.409 492.57 515.799 492.57C514.849 492.57 513.709 492.76 512.759 493.14C513.139 494.09 513.519 495.23 513.519 496.56C513.519 498.08 513.139 499.6 512.189 500.17C494.519 501.69 483.119 511.57 483.119 526.96C483.119 542.54 496.799 553.75 517.319 553.75ZM517.319 545.01C504.589 545.01 495.849 537.41 495.849 526.96C495.849 515.56 504.019 508.34 517.319 508.34C530.619 508.34 538.979 515.56 538.979 526.96C538.979 537.41 530.239 545.01 517.319 545.01ZM531.949 613.03C550.759 613.03 585.529 612.46 598.449 612.46C602.059 612.46 605.099 612.46 607.569 612.65C609.849 611.32 610.989 608.85 610.989 605.24C610.989 601.25 605.099 600.3 598.069 600.3C591.989 600.3 588.949 600.68 587.239 600.87C585.909 602.58 584.769 603.72 580.969 603.91C574.129 604.29 547.339 604.86 535.559 604.86C529.099 604.86 524.919 603.15 524.919 595.55V581.87C524.919 578.26 525.299 575.41 525.869 571.8C523.019 568.57 512.569 566.48 506.299 566.48C502.309 566.48 500.219 568 500.219 570.85C505.349 572.37 511.999 574.65 511.999 577.69L512.189 597.07C512.379 608.09 520.169 613.03 531.949 613.03Z" fill="#1A73E8"/>
<path d="M763.362 506.06C772.862 506.06 780.652 473.76 782.552 458.75C781.032 456.85 772.672 453.43 769.252 453.81L765.832 455.9C748.542 456.66 712.442 458.37 700.852 458.37C692.682 458.37 680.142 457.8 674.822 456.66C674.442 457.23 674.252 457.99 674.252 458.75C674.252 464.45 685.842 469.2 691.352 469.2C693.062 467.68 698.002 466.92 701.802 466.73C714.532 466.16 748.352 464.64 767.352 464.07C766.022 477.94 763.742 491.62 759.752 504.92C760.702 505.68 762.032 506.06 763.362 506.06ZM662.282 529.43C663.992 527.91 666.842 527.15 670.642 526.96C707.882 525.06 758.802 523.54 784.452 523.54C796.992 523.54 803.832 524.11 808.962 524.68C810.672 523.54 812.382 521.07 812.382 517.84C812.382 513.85 806.492 511.38 799.462 511.38C796.422 511.38 793.382 511.57 791.862 511.76C789.962 513.28 787.302 514.23 783.502 514.42C756.522 515.75 707.692 517.84 669.692 517.84C661.522 517.84 650.882 517.27 645.562 516.13C645.182 516.89 644.802 517.65 644.802 518.41C644.802 524.3 656.772 529.43 662.282 529.43ZM701.992 612.84C707.692 612.84 763.172 612.27 776.662 612.27C780.272 612.27 781.412 612.27 783.882 612.46C786.162 611.13 787.302 609.8 787.302 606.38C787.302 601.82 781.412 600.87 776.472 600.87C770.392 600.87 766.212 601.25 764.692 601.44C763.362 603.15 762.222 604.29 758.422 604.48C753.482 604.67 713.582 605.24 706.552 605.24C702.182 605.24 700.092 603.72 700.092 598.97V582.06C725.932 581.49 753.482 580.92 775.332 580.73C777.232 579.78 778.562 579.02 778.562 575.79C778.562 573.13 775.902 571.8 771.342 571.42L777.612 545.39C775.902 543.49 766.592 541.4 764.122 541.78L761.082 543.49C749.112 544.44 711.492 545.58 702.182 545.58C694.772 545.58 685.842 545.01 681.282 543.87C680.902 544.63 680.712 545.39 680.712 545.96C680.712 550.14 690.022 556.03 695.912 556.03C697.622 554.7 700.472 553.75 704.272 553.56L763.172 551.47L762.602 573.13C748.162 573.89 721.942 574.46 697.432 574.84C693.632 573.51 686.982 573.13 684.132 573.13C680.332 573.13 677.672 573.89 677.672 576.74C682.992 578.26 687.552 579.78 687.552 582.82V597.26C687.552 607.71 692.112 612.84 701.992 612.84Z" fill="#1A73E8"/>
<path d="M1008.78 615.5C1013.34 615.5 1018.28 609.61 1018.28 590.23V459.51C1018.28 456.28 1018.66 453.81 1019.23 450.96C1015.24 446.21 1003.65 441.46 996.813 441.46C991.683 441.46 990.353 442.22 990.353 445.07C995.483 447.54 1005.93 453.81 1005.93 456.85V614.55C1006.88 615.12 1007.83 615.5 1008.78 615.5ZM977.243 603.72C981.423 603.72 986.363 598.02 986.363 579.4V469.58C986.363 466.54 986.743 464.26 987.313 461.41C983.513 456.85 974.013 454.19 967.553 454.19C962.613 454.19 961.473 454.95 961.473 457.61C966.603 460.08 974.393 464.26 974.393 467.11V506.25C956.723 507.39 948.363 507.39 939.053 507.01C936.963 511.76 943.993 517.27 951.213 517.65C953.683 514.99 959.763 514.04 974.393 513.28V602.77C975.343 603.34 976.293 603.72 977.243 603.72ZM870.083 562.68C881.863 562.68 898.963 542.92 912.833 521.26C923.663 530.38 935.823 544.44 943.993 559.83C947.033 560.02 951.783 556.98 951.593 551.66C951.213 541.02 930.123 522.78 916.633 514.99C924.233 502.45 930.313 489.72 933.543 480.41C932.023 475.66 919.103 469.58 910.933 469.58C908.843 469.58 907.133 471.29 907.133 473C911.313 475.85 920.053 479.84 918.723 482.88C907.513 507.96 882.623 552.23 865.713 559.07C865.713 561.35 867.613 562.68 870.083 562.68Z" fill="#1A73E8"/>
<path d="M1185.86 615.5C1192.7 615.5 1195.55 602.2 1195.55 590.23V459.51C1195.55 456.28 1195.93 453.81 1196.5 450.96C1191.75 446.02 1180.35 441.46 1173.7 441.46C1168.57 441.46 1167.43 442.22 1167.43 445.07C1172.94 448.11 1182.82 453.81 1182.82 456.85V614.55C1183.77 615.12 1184.91 615.5 1185.86 615.5ZM1084.4 572.94C1109.29 572.94 1150.9 557.74 1161.92 548.24C1163.44 546.91 1164.2 545.2 1164.2 543.87C1164.2 542.54 1163.63 541.4 1162.49 540.83C1143.87 550.9 1114.04 559.26 1084.59 561.35V520.12C1100.36 519.55 1122.78 518.6 1142.35 518.22C1144.06 517.27 1145.2 515.37 1145.2 512.52C1145.2 509.67 1142.54 508.15 1135.51 508.15L1142.16 472.24C1140.07 469.58 1130.38 467.3 1127.15 468.25L1125.06 470.15C1112.33 471.1 1098.27 471.67 1090.48 471.67C1082.12 471.67 1070.15 471.1 1065.02 469.96C1064.45 470.53 1064.26 471.29 1064.26 472.05C1064.26 476.8 1075.47 482.5 1080.22 482.5C1082.12 480.79 1084.78 480.03 1088.77 479.84C1099.03 479.27 1114.42 478.7 1127.34 478.13L1126.2 510.43C1114.23 511 1095.23 511.76 1081.36 511.76C1078.13 510.43 1073 509.67 1068.63 509.67C1063.31 509.67 1062.17 511.76 1062.17 514.23C1067.3 515.75 1072.24 517.27 1072.24 520.31V558.31C1072.24 564.2 1079.27 572.94 1084.4 572.94Z" fill="#1A73E8"/>
<path d="M1269.26 480.22C1271.54 478.7 1274.2 477.94 1278.38 477.75C1296.24 476.99 1333.1 475.09 1352.67 475.09C1357.04 475.09 1363.88 475.28 1369.01 475.66C1370.91 474.33 1372.24 472.05 1372.24 468.82C1372.24 465.4 1367.68 463.12 1360.46 463.12C1356.85 463.12 1351.91 463.31 1349.82 463.88C1348.49 465.4 1346.59 466.35 1342.79 466.73C1333.1 467.68 1295.1 469.2 1279.33 469.2C1270.97 469.2 1260.33 468.63 1254.63 467.87C1254.25 468.63 1254.06 469.2 1254.06 470.15C1254.06 474.71 1263.94 480.41 1269.26 480.22ZM1265.27 542.73C1267.17 541.21 1270.02 540.26 1274.39 540.26C1292.06 540.26 1340.32 537.41 1359.89 537.41C1366.16 537.41 1370.15 537.6 1375.09 537.98C1376.99 536.65 1378.32 533.99 1378.32 531.14C1378.32 527.53 1373.57 526.01 1368.44 526.01C1365.02 526.01 1359.13 526.2 1356.66 526.77C1355.52 528.29 1353.81 529.05 1350.01 529.43C1348.11 529.62 1344.88 529.81 1340.7 530C1344.31 518.22 1350.58 495.04 1352.1 490.48C1350.01 487.44 1338.42 483.45 1332.34 483.45C1329.49 483.45 1328.73 484.97 1328.54 486.68C1332.91 489.15 1337.09 492.19 1336.71 494.85L1331.2 530.38L1298.14 531.52C1297.76 519.36 1296.05 495.61 1295.86 490.86C1293.2 488.2 1284.65 487.25 1280.47 487.25C1275.34 487.25 1273.82 489.53 1274.58 491.62C1279.52 493.14 1283.13 495.42 1283.7 498.46L1289.02 531.71C1282.94 531.9 1277.43 531.9 1273.25 531.9C1265.08 531.9 1255.2 530.95 1249.88 529.62C1249.5 530.38 1249.31 531.33 1249.31 532.28C1249.31 537.22 1259.76 542.73 1265.27 542.73ZM1251.21 591.94C1252.92 590.42 1255.77 589.66 1259.57 589.47C1296.81 587.57 1347.73 586.05 1373.38 586.05C1385.92 586.05 1392.76 586.62 1397.89 587.19C1399.6 586.05 1401.31 583.39 1401.31 580.16C1401.31 576.17 1395.42 573.7 1388.39 573.7C1385.35 573.7 1382.31 573.89 1380.79 574.08C1378.89 575.6 1376.23 576.55 1372.43 576.74C1345.45 578.07 1296.62 580.16 1258.62 580.16C1250.45 580.16 1239.81 579.59 1234.49 578.45C1234.11 579.21 1233.73 579.97 1233.73 580.73C1233.73 586.62 1245.7 591.94 1251.21 591.94Z" fill="#1A73E8"/>
<path d="M1592.39 615.5C1599.23 615.5 1602.08 602.2 1602.08 590.23V459.51C1602.08 456.28 1602.46 453.81 1603.03 450.96C1598.28 446.02 1586.88 441.46 1580.23 441.46C1575.1 441.46 1573.96 442.22 1573.96 445.07C1579.47 448.11 1589.35 453.81 1589.35 456.85V614.55C1590.3 615.12 1591.44 615.5 1592.39 615.5ZM1481.43 563.44C1484.66 563.44 1487.32 560.59 1488.84 552.23L1537.86 551.47V560.97C1538.81 561.54 1539.76 561.92 1540.71 561.92C1545.27 561.92 1550.21 556.03 1550.21 536.65V484.4C1550.21 480.98 1550.59 477.75 1551.16 474.33C1548.69 471.29 1538.62 467.87 1531.78 467.87C1526.65 467.87 1525.51 469.58 1525.51 471.86C1531.02 474.14 1537.86 477.18 1537.86 480.22V500.74L1489.6 502.26V490.1C1489.6 486.68 1489.79 483.45 1490.36 480.03C1487.89 477.18 1479.34 475.47 1472.5 475.47C1466.61 475.47 1465.66 476.99 1465.85 479.46C1470.79 480.98 1477.25 483.07 1477.25 486.11L1478.58 562.49C1479.53 563.06 1480.48 563.44 1481.43 563.44ZM1489.6 544.63C1489.79 542.73 1489.79 540.45 1489.79 537.98L1489.6 509.67L1537.86 508.34V543.68L1489.6 544.63Z" fill="#1A73E8"/>
<path d="M1761.48 548.62C1763.95 548.62 1765.66 547.29 1768.51 541.97C1774.59 530.95 1784.28 495.42 1786.37 472.24C1785.04 470.34 1775.54 466.73 1772.31 467.11L1768.7 469.2C1751.98 469.96 1707.9 471.29 1695.74 471.29C1687.57 471.29 1674.08 470.72 1668.76 469.58C1668.38 470.15 1668.19 470.91 1668.19 471.67C1668.19 476.23 1677.69 482.12 1684.34 482.12C1686.05 480.6 1690.8 479.84 1694.79 479.65C1707.9 479.08 1752.74 477.56 1771.36 477.18C1769.46 501.69 1763.38 530.57 1757.87 547.48C1758.82 548.24 1760.15 548.62 1761.48 548.62ZM1657.74 590.99C1659.45 589.47 1662.3 588.71 1666.1 588.52C1703.34 586.62 1754.26 585.1 1779.91 585.1C1792.45 585.1 1799.29 585.67 1804.42 586.24C1806.13 585.1 1807.84 582.63 1807.84 579.4C1807.84 575.41 1801.95 572.94 1794.92 572.94C1791.88 572.94 1788.84 573.13 1787.32 573.32C1785.42 574.84 1782.76 575.79 1778.96 575.98C1768.32 576.55 1754.45 577.12 1739.06 577.69L1741.34 536.27C1741.53 532.85 1741.72 529.62 1742.29 526.2C1739.63 523.16 1730.13 521.83 1723.29 521.83C1717.97 521.83 1716.83 523.35 1717.02 525.63C1722.15 527.15 1728.8 529.24 1728.8 533.23L1728.61 578.07C1719.3 578.45 1709.8 578.64 1700.11 579.02L1700.68 540.07C1700.68 536.65 1701.06 533.42 1701.63 530C1698.78 526.96 1689.28 525.63 1682.63 525.63C1677.31 525.63 1676.17 527.15 1676.36 529.43C1681.49 530.95 1687.95 533.04 1688.14 537.03L1689.66 579.21C1681.11 579.4 1672.94 579.4 1665.15 579.4C1656.98 579.4 1646.34 578.83 1641.02 577.69C1640.64 578.45 1640.26 579.21 1640.26 579.97C1640.26 585.86 1652.23 590.99 1657.74 590.99Z" fill="#1A73E8"/>
<path d="M545.479 797.26C537.199 797.8 487.339 798.52 479.779 798.34C475.639 798.34 468.439 797.98 463.579 797.08L462.319 799.24C462.139 799.6 462.319 800.32 462.859 800.86C466.639 803.74 472.219 807.16 477.259 808.96C480.319 807.88 486.979 806.62 490.399 806.44C497.239 805.9 542.059 805 549.259 805C553.399 805 562.039 805.18 565.639 805.72C566.899 804.82 569.239 802.12 569.239 799.06C569.239 798.16 568.519 797.26 567.259 796.72C564.019 795.64 556.279 794.74 551.059 794.56L545.479 797.26ZM554.659 842.98C554.659 825.16 538.099 813.46 517.579 813.46C497.059 813.46 480.499 825.16 480.499 842.98C480.499 860.8 497.059 872.68 517.579 872.68C538.099 872.68 554.659 860.8 554.659 842.98ZM542.239 842.98C542.239 856.12 531.079 863.68 517.579 863.68C504.259 863.68 493.099 856.12 493.099 842.98C493.099 829.66 504.259 821.92 517.579 821.92C531.079 821.92 542.239 829.66 542.239 842.98ZM489.319 772.24C489.139 772.78 489.139 773.32 489.499 773.86C492.559 777.82 496.879 781.96 500.479 783.94C501.559 784.66 502.279 784.66 503.899 784.66C511.819 783.94 525.499 783.76 534.859 783.58C535.759 783.58 536.659 783.4 537.199 782.5C538.099 781.06 538.459 777.64 537.739 775.84C537.379 774.76 536.659 774.22 535.219 774.22C522.619 774.04 506.599 773.68 490.579 770.8L489.319 772.24ZM625.219 836.68C626.479 836.68 627.919 836.5 628.639 835.78C629.899 835.06 630.979 832.72 630.799 829.48C630.799 828.04 629.719 826.78 628.279 826.42C625.039 825.7 617.659 825.34 612.439 825.52L606.679 828.94L593.899 829.48V777.1L594.439 767.74C594.439 765.94 593.899 764.68 592.279 764.14C587.059 761.98 575.899 759.64 569.419 759.46C567.979 759.46 567.619 759.82 567.439 760.36L565.999 764.68C572.299 766.84 578.059 770.08 581.119 773.86V859.36C581.119 867.64 581.479 883.3 582.199 890.5H589.759C592.279 881.5 593.899 867.64 593.899 854.86V837.22L625.219 836.68ZM525.139 905.62V897.34L525.499 889.42C525.499 887.44 524.599 886.36 522.799 886C518.299 884.92 508.039 884.38 502.099 884.38C501.019 884.38 500.479 884.56 500.299 885.46L499.399 889.42C504.259 890.5 509.119 892.3 511.999 894.64V913C511.999 922.9 516.139 926.86 527.839 927.04L604.159 926.5C605.059 926.5 605.779 926.32 606.319 925.6C607.219 924.88 608.299 922.54 608.299 919.3C608.299 917.86 607.399 916.96 605.959 916.78C602.539 916.06 594.439 915.34 589.039 915.52L583.279 918.58C572.839 919.12 540.979 919.3 529.639 919.12C526.399 919.12 525.139 917.86 525.139 914.44V905.62Z" fill="#1A73E8"/>
<path d="M770.627 782.32L773.147 776.56C773.507 775.48 773.507 774.94 772.787 774.22C771.347 773.14 767.027 770.62 765.047 769.9C764.147 769.36 762.887 769.36 761.987 769.9L755.867 772.78C743.807 773.32 689.807 774.22 680.627 774.22C675.407 774.22 668.207 773.5 662.627 772.42L661.547 774.76C661.187 775.48 661.367 776.02 662.267 776.74C666.407 779.98 672.167 783.22 677.747 785.2C681.887 783.76 689.447 782.32 693.587 782.14C701.867 781.6 741.107 781.06 755.507 781.24C754.967 794.02 752.627 813.46 749.207 827.14C717.347 827.68 665.867 828.4 657.767 828.22C652.187 828.22 643.727 827.5 637.787 826.24L636.527 828.94C636.347 829.48 636.527 830.02 637.067 830.38C641.567 834.16 648.227 837.76 654.707 839.74C659.027 838.3 668.207 836.5 672.707 836.14C682.247 835.6 764.687 834.7 777.287 834.7C782.687 834.7 793.307 835.06 798.167 835.6C799.787 834.88 801.947 832.18 801.947 829.12C801.947 827.68 800.867 826.78 799.607 826.24C795.467 824.98 785.927 823.72 779.447 823.54L772.967 826.42L757.667 826.96C763.607 813.82 768.827 795.46 770.627 782.32ZM764.147 894.28C764.687 893.56 765.587 891.76 765.587 889.78C765.587 889.24 765.407 888.7 764.687 888.34L761.447 886.72C762.887 881.86 764.687 871.6 765.047 865.66L767.207 861.52C767.567 860.44 767.567 859.54 766.667 859C765.407 858.1 761.807 856.3 759.827 855.58C758.927 855.04 757.847 855.04 756.947 855.58L751.727 858.1C739.847 858.46 692.687 859 682.967 859C678.467 859 671.627 858.46 666.947 857.56L665.867 859.36C665.687 860.08 665.687 860.62 666.407 861.16C670.187 864.04 675.227 866.92 680.627 868.72C684.947 867.46 691.607 866.2 695.027 866.02C702.587 865.66 739.307 865.12 751.007 865.3C751.187 869.8 751.007 881.68 750.467 886.36L747.407 887.26C740.387 887.62 702.227 888.16 689.627 888.16C684.767 887.62 673.247 887.26 668.387 887.26C667.307 887.26 666.587 887.62 666.407 888.16L665.867 891.58C669.827 892.3 673.607 893.92 675.947 896.08V915.34C675.947 923.44 679.187 926.5 689.087 926.68L772.247 926.14C773.147 926.14 773.867 925.96 774.587 925.42C775.307 924.7 776.387 922.36 776.387 919.3C776.387 918.04 775.667 917.14 774.047 916.96C770.807 916.06 763.427 915.7 758.567 915.7L753.167 918.4C742.007 918.94 706.367 919.12 692.327 918.94C690.167 918.94 689.267 918.04 689.267 915.7V905.44V895.18L764.147 894.28Z" fill="#1A73E8"/>
<path d="M1000.25 932.44C1002.95 922.72 1004.57 906.52 1004.57 896.62V776.2L1004.93 767.38C1005.11 765.76 1004.57 764.5 1002.77 763.96C998.269 761.8 987.469 759.64 981.349 759.46C980.089 759.46 979.549 759.82 979.189 760.54L977.929 764.68C983.689 766.66 989.089 769.72 991.969 773.32V900.94C991.969 908.68 992.329 925.42 993.049 932.44H1000.25ZM939.409 827.5C934.909 827.5 929.689 827.32 925.549 826.78L924.469 828.76C924.289 829.48 924.469 829.84 925.009 830.56C928.429 833.26 932.569 835.6 937.249 837.58C940.489 836.32 945.169 835.24 948.229 834.88C950.569 834.52 955.429 834.34 959.569 834.34V889.06C959.569 896.62 959.749 912.46 960.469 919.66H967.489C970.009 910.3 971.629 894.64 971.629 884.74V787.9L972.169 779.98C972.169 778.36 971.449 777.28 970.189 776.56C965.689 774.58 955.969 772.6 950.209 772.42C948.949 772.42 948.409 772.78 948.229 773.32L946.789 777.64C952.009 779.26 956.869 782.14 959.569 785.38V826.96C952.909 827.32 943.909 827.5 939.409 827.5ZM928.609 854.68L908.629 830.38C913.849 820.3 917.449 810.22 919.429 800.32C919.789 799.24 919.969 797.8 919.969 796.36C919.969 794.74 919.249 793.66 917.809 792.94C914.029 790.6 904.849 787.72 898.189 786.64C896.929 786.46 896.569 786.82 896.209 787.36L894.049 791.32C898.549 793.66 902.869 797.08 904.669 799.96C899.809 825.16 883.609 855.22 860.389 879.34C859.669 880.06 859.669 880.6 860.029 881.14L862.189 882.94C862.729 883.48 863.449 883.3 864.169 882.94C881.089 869.62 894.589 854.14 904.129 838.3L931.669 874.48C932.749 875.92 934.189 877.54 935.269 877.9C937.069 878.8 940.309 877.72 941.569 875.92C942.109 874.84 942.109 873.22 941.389 870.88C940.129 867.82 937.429 861.88 935.269 858.1L928.609 854.68Z" fill="#1A73E8"/>
<path d="M1166.72 932.44C1169.24 922.18 1171.04 905.26 1171.04 894.82V777.28L1171.4 767.74C1171.4 765.94 1170.86 764.68 1169.24 764.14C1164.02 761.98 1152.86 759.64 1146.2 759.46C1144.76 759.46 1144.4 759.82 1144.22 760.36L1142.78 764.68C1149.26 766.84 1155.02 770.08 1158.08 773.86V864.04C1133.24 870.88 1094.36 875.56 1071.32 875.74C1068.8 875.74 1068.08 874.84 1068.08 872.68V847.12V837.4L1123.52 835.78C1124.24 834.88 1125.14 832.9 1125.14 831.1C1125.14 830.2 1124.78 829.66 1124.24 829.3L1120.64 827.5C1122.26 819.76 1124.42 804.1 1124.6 795.28L1126.58 790.42C1126.94 789.52 1126.94 788.62 1126.22 788.08C1124.78 787 1121 784.84 1119.02 783.94C1118.12 783.4 1116.86 783.4 1115.96 783.94L1110.92 786.64C1102.1 787.18 1068.98 788.08 1061.96 787.9C1057.64 787.9 1050.98 787.54 1046.48 786.46L1045.22 788.8C1045.04 789.34 1045.04 789.88 1045.76 790.6C1049.54 793.3 1054.4 796.36 1059.62 798.34C1063.76 797.08 1069.88 795.82 1073.12 795.64C1078.16 795.1 1102.1 794.56 1110.2 794.56C1110.56 801.04 1110.38 820.3 1109.66 827.32L1106.6 828.4C1101.2 828.76 1078.34 829.3 1068.08 829.48C1063.22 828.94 1051.7 828.76 1046.66 828.76C1045.58 828.76 1044.86 829.12 1044.68 829.66L1044.14 833.26C1048.28 834.16 1052.24 835.78 1054.76 837.94V869.8C1054.76 873.22 1055.12 876.28 1055.66 877.9C1057.46 883.3 1061.42 886.9 1067.36 886.9C1068.98 886.9 1071.14 886.9 1073.12 886.72C1097.06 885.1 1132.16 879.34 1158.08 871.24V899.32C1158.08 907.24 1158.62 924.88 1159.16 932.44H1166.72Z" fill="#1A73E8"/>
<path d="M1323.28 782.68C1313.38 783.22 1250.92 783.94 1242.1 783.94C1237.6 783.94 1229.86 783.22 1224.28 782.14L1223.2 784.48C1223.02 785.02 1223.02 785.56 1223.56 785.92C1227.7 789.34 1234 792.76 1239.22 794.56C1242.64 793.3 1249.84 791.86 1253.26 791.68C1262.08 791.14 1318.42 790.6 1327.42 790.6C1331.74 790.6 1341.46 790.78 1345.24 791.32C1346.5 790.6 1348.48 787.9 1348.48 784.66C1348.48 783.76 1347.76 782.86 1346.5 782.32C1343.08 781.06 1334.98 780.16 1329.4 779.98L1323.28 782.68ZM1340.56 891.04C1327.96 891.76 1236.34 893.02 1225.36 892.84C1219.78 892.66 1211.32 891.94 1205.38 890.86L1204.12 893.38C1203.94 894.1 1204.12 894.64 1204.66 895C1209.16 898.78 1215.82 902.38 1222.3 904.54C1226.62 903.1 1235.8 901.3 1240.3 900.94C1249.84 900.4 1332.28 899.5 1344.88 899.5C1350.28 899.5 1360.9 899.86 1365.76 900.4C1367.38 899.68 1369.54 896.98 1369.54 893.92C1369.54 892.3 1368.46 891.22 1367.2 890.86C1363.06 889.42 1353.52 888.34 1347.04 888.16L1340.56 891.04ZM1322.74 850.36L1317.16 850.54L1319.68 810.4L1320.4 802.84C1320.4 801.4 1319.86 800.5 1318.42 799.96C1314.1 798.7 1305.46 797.62 1299.88 797.62C1298.62 797.62 1298.08 797.98 1297.9 798.52L1297 802.3C1301.14 803.56 1305.1 805.72 1307.08 808.06L1306.18 850.72L1268.92 851.26L1268.02 816.16L1268.2 808.6C1268.38 807.16 1267.84 806.44 1266.58 805.72C1262.44 804.1 1254.34 802.3 1248.76 801.76C1247.5 801.58 1247.14 801.94 1246.96 802.48L1245.34 806.44C1249.66 808.24 1253.44 810.94 1255.42 813.64L1257.76 851.26L1242.82 851.44C1238.32 851.44 1230.58 850.72 1225 849.82L1223.92 851.98C1223.74 852.52 1223.74 853.06 1224.28 853.6C1228.42 856.84 1234.72 860.26 1239.94 862.06C1243.36 860.8 1250.56 859.36 1253.98 859.18C1262.62 858.64 1317.7 858.1 1326.7 858.1C1330.84 858.1 1340.74 858.28 1344.34 858.82C1345.78 858.1 1347.76 855.4 1347.76 852.16C1347.76 851.26 1346.86 850.36 1345.78 850C1342.36 848.74 1334.08 847.66 1328.5 847.48L1322.74 850.36Z" fill="#1A73E8"/>
<path d="M1560.29 932.44C1562.99 922.18 1564.61 905.26 1564.61 894.82V777.28L1565.15 767.74C1565.15 765.94 1564.43 764.68 1562.99 764.14C1557.77 761.98 1546.43 759.82 1539.95 759.46C1538.51 759.46 1537.97 759.82 1537.79 760.36L1536.53 764.68C1542.83 766.84 1548.59 770.26 1551.83 774.04V899.32C1551.83 907.24 1552.19 924.88 1552.91 932.44H1560.29ZM1453.01 884.02C1454.27 882.58 1455.53 880.06 1455.89 876.28C1469.39 876.1 1506.11 875.56 1519.25 875.74C1520.15 874.84 1520.87 872.86 1520.87 870.7C1520.87 869.8 1520.33 869.26 1519.61 868.9L1515.47 868C1516.55 863.68 1517.45 856.48 1517.45 851.26L1517.99 796.9L1518.35 789.34C1518.35 787.9 1517.81 787.18 1516.55 786.64C1511.87 784.66 1502.33 782.68 1496.39 782.32C1495.13 782.32 1494.59 782.5 1494.41 783.22L1492.79 787.54C1497.83 789.34 1502.33 791.86 1505.03 794.74V824.8L1456.61 825.52V805L1456.97 797.44C1456.97 795.64 1456.25 794.92 1454.99 794.38C1450.31 793.12 1440.59 792.22 1434.83 792.22C1433.57 792.22 1433.03 792.58 1432.67 792.94L1431.59 797.44C1436.09 798.52 1440.59 800.86 1443.11 803.2L1444.55 873.22C1444.55 876.46 1444.91 881.14 1445.99 884.02H1453.01ZM1456.61 833.44L1505.03 832.72V867.82L1456.43 868.36L1456.61 833.44Z" fill="#1A73E8"/>
<path d="M1721.53 870.16C1722.61 870.34 1723.51 869.8 1723.87 868.9C1731.25 846.76 1737.37 814.72 1737.91 793.66L1740.61 787.54C1740.97 786.64 1740.97 786.1 1740.07 785.38C1738.45 784.12 1734.49 781.6 1732.33 780.52C1731.43 779.98 1730.17 779.98 1729.27 780.52L1722.79 783.58C1708.21 784.3 1647.19 785.2 1637.11 785.02C1632.07 785.02 1625.05 784.48 1619.65 783.4L1618.39 785.74C1618.03 786.46 1618.21 787 1618.93 787.54C1622.89 790.96 1629.01 794.38 1634.41 796.36C1638.73 794.92 1647.19 793.48 1651.87 793.3C1661.41 792.76 1706.59 792.04 1722.97 792.22C1722.97 813.1 1720.81 845.14 1717.03 867.28C1716.85 868.72 1717.21 869.26 1717.93 869.44L1721.53 870.16ZM1734.31 890.86C1729.81 891.04 1714.87 891.4 1697.23 891.76L1699.75 842.26L1700.47 835.06C1700.65 833.98 1700.29 832.9 1698.85 832.36C1694.35 830.2 1685.89 828.22 1680.13 827.5C1679.05 827.5 1678.51 827.86 1678.15 828.4L1676.71 832.36C1681.21 834.34 1685.17 837.04 1687.51 840.1L1686.43 891.94L1659.43 892.3L1659.07 850L1659.61 842.8C1659.61 841.36 1659.07 840.46 1657.63 840.1C1653.31 838.66 1644.67 837.76 1639.09 837.58C1637.83 837.58 1637.29 837.94 1637.11 838.48L1636.21 842.62C1640.35 843.88 1644.49 846.04 1646.65 848.2L1648.45 892.48L1619.11 892.66C1613.53 892.66 1605.07 891.94 1599.13 890.68L1597.87 893.38C1597.69 893.92 1597.87 894.46 1598.41 895C1602.91 898.6 1609.57 902.38 1616.05 904.36C1620.37 902.92 1629.55 901.3 1634.05 900.94C1643.59 900.22 1726.03 899.32 1738.63 899.5C1744.03 899.5 1754.65 899.86 1759.51 900.4C1761.13 899.5 1763.29 896.8 1763.29 893.74C1763.29 892.12 1762.21 891.22 1760.95 890.68C1756.81 889.42 1747.27 888.34 1740.79 887.98L1734.31 890.86Z" fill="#1A73E8"/>
<path d="M70.2841 841.182V863H65.3409L57.4574 851.537H57.3295V863H51.4062V841.182H56.4347L64.1903 852.602H64.3608V841.182H70.2841ZM81.0547 863.298C79.2791 863.298 77.7592 862.947 76.495 862.244C75.2308 861.533 74.2614 860.546 73.5866 859.282C72.9119 858.011 72.5746 856.537 72.5746 854.861C72.5746 853.185 72.9119 851.714 73.5866 850.45C74.2614 849.179 75.2308 848.192 76.495 847.489C77.7592 846.778 79.2791 846.423 81.0547 846.423C82.8303 846.423 84.3501 846.778 85.6143 847.489C86.8786 848.192 87.848 849.179 88.5227 850.45C89.1974 851.714 89.5348 853.185 89.5348 854.861C89.5348 856.537 89.1974 858.011 88.5227 859.282C87.848 860.546 86.8786 861.533 85.6143 862.244C84.3501 862.947 82.8303 863.298 81.0547 863.298ZM81.0973 858.952C81.5945 858.952 82.0241 858.785 82.3864 858.451C82.7486 858.117 83.0291 857.641 83.228 857.023C83.4268 856.406 83.5263 855.67 83.5263 854.818C83.5263 853.959 83.4268 853.224 83.228 852.613C83.0291 851.995 82.7486 851.519 82.3864 851.185C82.0241 850.852 81.5945 850.685 81.0973 850.685C80.5717 850.685 80.1207 850.852 79.7443 851.185C79.3679 851.519 79.0803 851.995 78.8814 852.613C78.6825 853.224 78.5831 853.959 78.5831 854.818C78.5831 855.67 78.6825 856.406 78.8814 857.023C79.0803 857.641 79.3679 858.117 79.7443 858.451C80.1207 858.785 80.5717 858.952 81.0973 858.952ZM101.68 846.636V850.898H90.8984V846.636H101.68ZM92.9865 842.716H98.8672V857.737C98.8672 857.964 98.9062 858.156 98.9844 858.312C99.0625 858.462 99.1832 858.575 99.3466 858.653C99.5099 858.724 99.7195 858.76 99.9751 858.76C100.153 858.76 100.359 858.739 100.593 858.696C100.835 858.653 101.012 858.618 101.126 858.589L101.978 862.723C101.715 862.801 101.339 862.897 100.849 863.011C100.366 863.124 99.7905 863.199 99.1229 863.234C97.7734 863.305 96.6406 863.167 95.7244 862.819C94.8082 862.464 94.1193 861.906 93.6577 861.146C93.196 860.386 92.9723 859.435 92.9865 858.291V842.716ZM111.787 863.298C110.012 863.298 108.492 862.947 107.227 862.244C105.963 861.533 104.994 860.546 104.319 859.282C103.644 858.011 103.307 856.537 103.307 854.861C103.307 853.185 103.644 851.714 104.319 850.45C104.994 849.179 105.963 848.192 107.227 847.489C108.492 846.778 110.012 846.423 111.787 846.423C113.563 846.423 115.083 846.778 116.347 847.489C117.611 848.192 118.58 849.179 119.255 850.45C119.93 851.714 120.267 853.185 120.267 854.861C120.267 856.537 119.93 858.011 119.255 859.282C118.58 860.546 117.611 861.533 116.347 862.244C115.083 862.947 113.563 863.298 111.787 863.298ZM111.83 858.952C112.327 858.952 112.757 858.785 113.119 858.451C113.481 858.117 113.762 857.641 113.96 857.023C114.159 856.406 114.259 855.67 114.259 854.818C114.259 853.959 114.159 853.224 113.96 852.613C113.762 851.995 113.481 851.519 113.119 851.185C112.757 850.852 112.327 850.685 111.83 850.685C111.304 850.685 110.853 850.852 110.477 851.185C110.1 851.519 109.813 851.995 109.614 852.613C109.415 853.224 109.316 853.959 109.316 854.818C109.316 855.67 109.415 856.406 109.614 857.023C109.813 857.641 110.1 858.117 110.477 858.451C110.853 858.785 111.304 858.952 111.83 858.952ZM140.306 848C140.249 847.29 139.983 846.736 139.507 846.338C139.039 845.94 138.325 845.741 137.366 845.741C136.755 845.741 136.254 845.816 135.864 845.965C135.48 846.107 135.196 846.303 135.012 846.551C134.827 846.8 134.731 847.084 134.724 847.403C134.71 847.666 134.756 847.904 134.862 848.117C134.976 848.323 135.154 848.511 135.395 848.682C135.637 848.845 135.945 848.994 136.322 849.129C136.698 849.264 137.146 849.385 137.664 849.491L139.454 849.875C140.661 850.131 141.695 850.468 142.554 850.887C143.414 851.306 144.117 851.8 144.664 852.368C145.21 852.929 145.612 853.561 145.867 854.264C146.13 854.967 146.265 855.734 146.272 856.565C146.265 858 145.906 859.214 145.196 860.209C144.486 861.203 143.47 861.96 142.149 862.478C140.835 862.996 139.255 863.256 137.409 863.256C135.512 863.256 133.857 862.975 132.444 862.414C131.038 861.853 129.944 860.99 129.163 859.825C128.389 858.653 127.998 857.155 127.991 855.33H133.616C133.651 855.997 133.818 856.558 134.117 857.013C134.415 857.467 134.834 857.812 135.374 858.046C135.921 858.281 136.57 858.398 137.323 858.398C137.955 858.398 138.485 858.32 138.911 858.163C139.337 858.007 139.66 857.79 139.88 857.513C140.1 857.237 140.214 856.92 140.221 856.565C140.214 856.232 140.104 855.94 139.891 855.692C139.685 855.436 139.344 855.209 138.868 855.01C138.392 854.804 137.749 854.612 136.94 854.435L134.767 853.966C132.835 853.547 131.311 852.847 130.196 851.867C129.088 850.88 128.538 849.534 128.545 847.83C128.538 846.445 128.907 845.234 129.653 844.197C130.406 843.153 131.446 842.339 132.774 841.757C134.11 841.175 135.64 840.884 137.366 840.884C139.127 840.884 140.651 841.178 141.936 841.768C143.222 842.357 144.213 843.188 144.909 844.261C145.612 845.326 145.967 846.572 145.974 848H140.306ZM156.452 863.298C154.704 863.298 153.199 862.964 151.934 862.297C150.677 861.622 149.708 860.656 149.026 859.399C148.351 858.135 148.014 856.622 148.014 854.861C148.014 853.17 148.355 851.693 149.037 850.429C149.719 849.165 150.681 848.181 151.924 847.478C153.167 846.775 154.633 846.423 156.324 846.423C157.559 846.423 158.678 846.615 159.68 846.999C160.681 847.382 161.537 847.94 162.247 848.671C162.957 849.396 163.504 850.276 163.888 851.313C164.271 852.35 164.463 853.518 164.463 854.818V856.182H149.846V852.943H159.051C159.044 852.474 158.923 852.062 158.689 851.707C158.461 851.345 158.153 851.065 157.762 850.866C157.378 850.66 156.942 850.557 156.452 850.557C155.976 850.557 155.539 850.66 155.141 850.866C154.743 851.065 154.424 851.342 154.182 851.697C153.948 852.052 153.824 852.467 153.809 852.943V856.438C153.809 856.963 153.92 857.432 154.14 857.844C154.36 858.256 154.676 858.579 155.088 858.813C155.5 859.048 155.997 859.165 156.579 859.165C156.984 859.165 157.354 859.108 157.687 858.994C158.028 858.881 158.319 858.717 158.561 858.504C158.802 858.284 158.98 858.021 159.094 857.716H164.463C164.278 858.852 163.841 859.839 163.153 860.678C162.464 861.509 161.551 862.155 160.415 862.616C159.285 863.071 157.964 863.298 156.452 863.298ZM166.863 863V846.636H172.573V849.747H172.743C173.042 848.597 173.514 847.755 174.16 847.222C174.814 846.69 175.577 846.423 176.451 846.423C176.706 846.423 176.958 846.445 177.207 846.487C177.463 846.523 177.708 846.576 177.942 846.647V851.665C177.651 851.565 177.292 851.491 176.866 851.441C176.44 851.391 176.074 851.366 175.769 851.366C175.194 851.366 174.675 851.498 174.213 851.761C173.759 852.016 173.4 852.379 173.137 852.847C172.875 853.309 172.743 853.852 172.743 854.477V863H166.863ZM179.87 863V846.636H185.751V863H179.87ZM182.811 844.932C182.015 844.932 181.333 844.669 180.765 844.143C180.197 843.618 179.913 842.986 179.913 842.247C179.913 841.509 180.197 840.876 180.765 840.351C181.333 839.825 182.015 839.562 182.811 839.562C183.613 839.562 184.295 839.825 184.856 840.351C185.424 840.876 185.708 841.509 185.708 842.247C185.708 842.986 185.424 843.618 184.856 844.143C184.295 844.669 183.613 844.932 182.811 844.932ZM198.548 846.636V850.898H187.597V846.636H198.548ZM189.685 863V846.168C189.685 844.818 189.926 843.7 190.409 842.812C190.892 841.924 191.574 841.26 192.455 840.82C193.335 840.379 194.372 840.159 195.566 840.159C196.311 840.159 197.036 840.216 197.739 840.33C198.449 840.443 198.975 840.543 199.316 840.628L198.463 844.847C198.25 844.783 198.002 844.733 197.718 844.697C197.433 844.655 197.185 844.634 196.972 844.634C196.418 844.634 196.045 844.751 195.853 844.985C195.661 845.219 195.566 845.528 195.566 845.912V863H189.685ZM206.709 863V841.182H212.632V850.003H212.931L219.493 841.182H226.396L219.024 850.898L226.567 863H219.493L214.593 854.818L212.632 857.375V863H206.709ZM228.154 863V841.182H237.572C239.191 841.182 240.608 841.477 241.823 842.066C243.037 842.656 243.982 843.504 244.656 844.612C245.331 845.72 245.669 847.048 245.669 848.597C245.669 850.159 245.32 851.477 244.624 852.549C243.936 853.621 242.966 854.431 241.716 854.978C240.473 855.525 239.021 855.798 237.359 855.798H231.734V851.196H236.166C236.862 851.196 237.455 851.111 237.945 850.94C238.442 850.763 238.822 850.482 239.085 850.099C239.355 849.715 239.49 849.214 239.49 848.597C239.49 847.972 239.355 847.464 239.085 847.073C238.822 846.675 238.442 846.384 237.945 846.2C237.455 846.008 236.862 845.912 236.166 845.912H234.078V863H228.154ZM240.938 852.986L246.393 863H239.958L234.632 852.986H240.938Z" fill="#1A73E8"/>
<path d="M50.5114 529.182H57.1165L61.3778 538.045H61.5483L65.8097 529.182H72.4148L64.4034 544.139V551H58.5227V544.139L50.5114 529.182ZM78.1543 551.298C76.3787 551.298 74.8588 550.947 73.5946 550.244C72.3304 549.533 71.361 548.546 70.6863 547.282C70.0115 546.011 69.6742 544.537 69.6742 542.861C69.6742 541.185 70.0115 539.714 70.6863 538.45C71.361 537.179 72.3304 536.192 73.5946 535.489C74.8588 534.778 76.3787 534.423 78.1543 534.423C79.9299 534.423 81.4498 534.778 82.714 535.489C83.9782 536.192 84.9476 537.179 85.6223 538.45C86.2971 539.714 86.6344 541.185 86.6344 542.861C86.6344 544.537 86.2971 546.011 85.6223 547.282C84.9476 548.546 83.9782 549.533 82.714 550.244C81.4498 550.947 79.9299 551.298 78.1543 551.298ZM78.1969 546.952C78.6941 546.952 79.1238 546.785 79.486 546.451C79.8482 546.117 80.1287 545.641 80.3276 545.023C80.5265 544.406 80.6259 543.67 80.6259 542.818C80.6259 541.959 80.5265 541.224 80.3276 540.613C80.1287 539.995 79.8482 539.519 79.486 539.185C79.1238 538.852 78.6941 538.685 78.1969 538.685C77.6713 538.685 77.2203 538.852 76.8439 539.185C76.4675 539.519 76.1799 539.995 75.981 540.613C75.7821 541.224 75.6827 541.959 75.6827 542.818C75.6827 543.67 75.7821 544.406 75.981 545.023C76.1799 545.641 76.4675 546.117 76.8439 546.451C77.2203 546.785 77.6713 546.952 78.1969 546.952ZM96.9043 551.298C95.1287 551.298 93.6088 550.947 92.3446 550.244C91.0804 549.533 90.111 548.546 89.4363 547.282C88.7615 546.011 88.4242 544.537 88.4242 542.861C88.4242 541.185 88.7615 539.714 89.4363 538.45C90.111 537.179 91.0804 536.192 92.3446 535.489C93.6088 534.778 95.1287 534.423 96.9043 534.423C98.6799 534.423 100.2 534.778 101.464 535.489C102.728 536.192 103.698 537.179 104.372 538.45C105.047 539.714 105.384 541.185 105.384 542.861C105.384 544.537 105.047 546.011 104.372 547.282C103.698 548.546 102.728 549.533 101.464 550.244C100.2 550.947 98.6799 551.298 96.9043 551.298ZM96.9469 546.952C97.4441 546.952 97.8738 546.785 98.236 546.451C98.5982 546.117 98.8787 545.641 99.0776 545.023C99.2765 544.406 99.3759 543.67 99.3759 542.818C99.3759 541.959 99.2765 541.224 99.0776 540.613C98.8787 539.995 98.5982 539.519 98.236 539.185C97.8738 538.852 97.4441 538.685 96.9469 538.685C96.4213 538.685 95.9703 538.852 95.5939 539.185C95.2175 539.519 94.9299 539.995 94.731 540.613C94.5321 541.224 94.4327 541.959 94.4327 542.818C94.4327 543.67 94.5321 544.406 94.731 545.023C94.9299 545.641 95.2175 546.117 95.5939 546.451C95.9703 546.785 96.4213 546.952 96.9469 546.952ZM113.651 541.795V551H107.771V534.636H113.353V537.747H113.524C113.879 536.71 114.504 535.897 115.399 535.308C116.301 534.718 117.352 534.423 118.552 534.423C119.71 534.423 120.715 534.69 121.567 535.222C122.426 535.748 123.09 536.472 123.559 537.396C124.035 538.319 124.269 539.374 124.262 540.56V551H118.382V541.795C118.389 540.986 118.183 540.35 117.764 539.888C117.352 539.427 116.776 539.196 116.038 539.196C115.555 539.196 115.132 539.303 114.77 539.516C114.415 539.722 114.142 540.02 113.95 540.411C113.758 540.794 113.659 541.256 113.651 541.795ZM142.123 539.963H136.711C136.682 539.629 136.565 539.342 136.359 539.1C136.153 538.859 135.887 538.674 135.56 538.546C135.241 538.411 134.885 538.344 134.495 538.344C133.991 538.344 133.557 538.436 133.195 538.621C132.833 538.805 132.655 539.068 132.662 539.409C132.655 539.651 132.758 539.874 132.971 540.08C133.192 540.286 133.614 540.446 134.239 540.56L137.563 541.156C139.239 541.462 140.486 541.977 141.302 542.701C142.126 543.418 142.542 544.381 142.549 545.588C142.542 546.753 142.194 547.765 141.505 548.624C140.823 549.477 139.889 550.137 138.703 550.606C137.524 551.067 136.178 551.298 134.665 551.298C132.165 551.298 130.209 550.787 128.795 549.764C127.389 548.741 126.604 547.392 126.441 545.716H132.279C132.357 546.234 132.613 546.636 133.046 546.92C133.486 547.197 134.04 547.335 134.708 547.335C135.248 547.335 135.692 547.243 136.04 547.058C136.395 546.874 136.576 546.611 136.583 546.27C136.576 545.957 136.42 545.709 136.114 545.524C135.816 545.339 135.347 545.19 134.708 545.077L131.81 544.565C130.141 544.274 128.891 543.72 128.06 542.903C127.229 542.087 126.817 541.036 126.824 539.75C126.817 538.614 127.116 537.651 127.719 536.863C128.33 536.067 129.2 535.464 130.329 535.052C131.466 534.633 132.812 534.423 134.367 534.423C136.732 534.423 138.596 534.913 139.96 535.893C141.331 536.874 142.052 538.23 142.123 539.963ZM152.643 551.298C150.896 551.298 149.39 550.964 148.126 550.297C146.869 549.622 145.899 548.656 145.218 547.399C144.543 546.135 144.205 544.622 144.205 542.861C144.205 541.17 144.546 539.693 145.228 538.429C145.91 537.165 146.872 536.181 148.115 535.478C149.358 534.775 150.825 534.423 152.515 534.423C153.751 534.423 154.869 534.615 155.871 534.999C156.872 535.382 157.728 535.94 158.438 536.671C159.149 537.396 159.695 538.276 160.079 539.313C160.463 540.35 160.654 541.518 160.654 542.818V544.182H146.038V540.943H155.242C155.235 540.474 155.115 540.062 154.88 539.707C154.653 539.345 154.344 539.065 153.953 538.866C153.57 538.66 153.133 538.557 152.643 538.557C152.167 538.557 151.73 538.66 151.333 538.866C150.935 539.065 150.615 539.342 150.374 539.697C150.139 540.052 150.015 540.467 150.001 540.943V544.438C150.001 544.963 150.111 545.432 150.331 545.844C150.551 546.256 150.867 546.579 151.279 546.813C151.691 547.048 152.188 547.165 152.771 547.165C153.176 547.165 153.545 547.108 153.879 546.994C154.22 546.881 154.511 546.717 154.752 546.504C154.994 546.284 155.171 546.021 155.285 545.716H160.654C160.47 546.852 160.033 547.839 159.344 548.678C158.655 549.509 157.742 550.155 156.606 550.616C155.477 551.071 154.156 551.298 152.643 551.298ZM173.665 543.841V534.636H179.545V551H173.963V547.889H173.793C173.438 548.933 172.816 549.75 171.928 550.339C171.04 550.922 169.986 551.213 168.764 551.213C167.621 551.213 166.619 550.95 165.76 550.425C164.908 549.899 164.244 549.175 163.768 548.251C163.299 547.328 163.061 546.27 163.054 545.077V534.636H168.935V543.841C168.942 544.651 169.148 545.286 169.553 545.748C169.964 546.21 170.54 546.44 171.278 546.44C171.768 546.44 172.191 546.337 172.546 546.131C172.908 545.918 173.185 545.62 173.377 545.237C173.576 544.846 173.672 544.381 173.665 543.841ZM188.417 529.182V551H182.536V529.182H188.417ZM197.305 551V529.182H206.765C208.427 529.182 209.822 529.406 210.952 529.853C212.088 530.3 212.944 530.933 213.519 531.749C214.102 532.566 214.393 533.528 214.393 534.636C214.393 535.439 214.215 536.17 213.86 536.831C213.512 537.491 213.022 538.045 212.39 538.493C211.758 538.933 211.019 539.239 210.174 539.409V539.622C211.112 539.658 211.964 539.896 212.731 540.336C213.498 540.769 214.109 541.369 214.563 542.136C215.018 542.896 215.245 543.791 215.245 544.821C215.245 546.014 214.933 547.076 214.308 548.006C213.69 548.937 212.809 549.668 211.665 550.201C210.522 550.734 209.158 551 207.575 551H197.305ZM203.228 546.27H205.998C206.992 546.27 207.738 546.085 208.235 545.716C208.732 545.339 208.981 544.786 208.981 544.054C208.981 543.543 208.864 543.109 208.629 542.754C208.395 542.399 208.061 542.129 207.628 541.945C207.202 541.76 206.687 541.668 206.083 541.668H203.228V546.27ZM203.228 538.003H205.657C206.175 538.003 206.634 537.921 207.031 537.758C207.429 537.594 207.738 537.36 207.958 537.055C208.185 536.742 208.299 536.362 208.299 535.915C208.299 535.24 208.058 534.725 207.575 534.37C207.092 534.008 206.481 533.827 205.742 533.827H203.228V538.003ZM221.989 551.256C220.945 551.256 220.021 551.085 219.219 550.744C218.423 550.396 217.798 549.871 217.344 549.168C216.889 548.464 216.662 547.57 216.662 546.483C216.662 545.588 216.815 544.825 217.12 544.192C217.425 543.553 217.852 543.031 218.398 542.626C218.945 542.222 219.581 541.913 220.305 541.7C221.037 541.487 221.825 541.348 222.67 541.284C223.587 541.213 224.322 541.128 224.876 541.028C225.437 540.922 225.842 540.776 226.09 540.592C226.339 540.4 226.463 540.148 226.463 539.835V539.793C226.463 539.366 226.3 539.04 225.973 538.812C225.646 538.585 225.227 538.472 224.716 538.472C224.155 538.472 223.697 538.596 223.342 538.844C222.994 539.086 222.784 539.459 222.713 539.963H217.301C217.372 538.969 217.688 538.053 218.249 537.214C218.817 536.369 219.645 535.695 220.732 535.19C221.818 534.679 223.175 534.423 224.801 534.423C225.973 534.423 227.024 534.562 227.955 534.839C228.885 535.109 229.677 535.489 230.33 535.979C230.984 536.462 231.481 537.03 231.822 537.683C232.17 538.33 232.344 539.033 232.344 539.793V551H226.847V548.699H226.719C226.392 549.31 225.994 549.803 225.526 550.18C225.064 550.556 224.535 550.83 223.938 551C223.349 551.17 222.699 551.256 221.989 551.256ZM223.906 547.548C224.354 547.548 224.773 547.456 225.163 547.271C225.561 547.087 225.884 546.82 226.133 546.472C226.381 546.124 226.506 545.702 226.506 545.205V543.841C226.349 543.905 226.183 543.965 226.005 544.022C225.835 544.079 225.65 544.132 225.451 544.182C225.259 544.232 225.053 544.278 224.833 544.32C224.62 544.363 224.396 544.402 224.162 544.438C223.707 544.509 223.335 544.626 223.043 544.789C222.759 544.945 222.546 545.141 222.404 545.375C222.269 545.602 222.202 545.858 222.202 546.142C222.202 546.597 222.362 546.945 222.681 547.186C223.001 547.428 223.409 547.548 223.906 547.548ZM244.912 534.636V538.898H234.131V534.636H244.912ZM236.219 530.716H242.1V545.737C242.1 545.964 242.139 546.156 242.217 546.312C242.295 546.462 242.416 546.575 242.579 546.653C242.742 546.724 242.952 546.76 243.208 546.76C243.385 546.76 243.591 546.739 243.825 546.696C244.067 546.653 244.244 546.618 244.358 546.589L245.21 550.723C244.948 550.801 244.571 550.897 244.081 551.011C243.598 551.124 243.023 551.199 242.355 551.234C241.006 551.305 239.873 551.167 238.957 550.819C238.041 550.464 237.352 549.906 236.89 549.146C236.428 548.386 236.205 547.435 236.219 546.291V530.716ZM251.871 551.256C250.827 551.256 249.904 551.085 249.102 550.744C248.306 550.396 247.681 549.871 247.227 549.168C246.772 548.464 246.545 547.57 246.545 546.483C246.545 545.588 246.697 544.825 247.003 544.192C247.308 543.553 247.734 543.031 248.281 542.626C248.828 542.222 249.464 541.913 250.188 541.7C250.92 541.487 251.708 541.348 252.553 541.284C253.469 541.213 254.205 541.128 254.759 541.028C255.32 540.922 255.724 540.776 255.973 540.592C256.222 540.4 256.346 540.148 256.346 539.835V539.793C256.346 539.366 256.183 539.04 255.856 538.812C255.529 538.585 255.11 538.472 254.599 538.472C254.038 538.472 253.58 538.596 253.224 538.844C252.876 539.086 252.667 539.459 252.596 539.963H247.184C247.255 538.969 247.571 538.053 248.132 537.214C248.7 536.369 249.528 535.695 250.614 535.19C251.701 534.679 253.058 534.423 254.684 534.423C255.856 534.423 256.907 534.562 257.837 534.839C258.768 535.109 259.56 535.489 260.213 535.979C260.866 536.462 261.364 537.03 261.705 537.683C262.053 538.33 262.227 539.033 262.227 539.793V551H256.729V548.699H256.602C256.275 549.31 255.877 549.803 255.408 550.18C254.947 550.556 254.418 550.83 253.821 551C253.232 551.17 252.582 551.256 251.871 551.256ZM253.789 547.548C254.237 547.548 254.656 547.456 255.046 547.271C255.444 547.087 255.767 546.82 256.016 546.472C256.264 546.124 256.388 545.702 256.388 545.205V543.841C256.232 543.905 256.065 543.965 255.888 544.022C255.717 544.079 255.533 544.132 255.334 544.182C255.142 544.232 254.936 544.278 254.716 544.32C254.503 544.363 254.279 544.402 254.045 544.438C253.59 544.509 253.217 544.626 252.926 544.789C252.642 544.945 252.429 545.141 252.287 545.375C252.152 545.602 252.085 545.858 252.085 546.142C252.085 546.597 252.244 546.945 252.564 547.186C252.884 547.428 253.292 547.548 253.789 547.548ZM270.917 541.795V551H265.036V534.636H270.619V537.747H270.789C271.144 536.71 271.769 535.897 272.664 535.308C273.566 534.718 274.617 534.423 275.818 534.423C276.975 534.423 277.98 534.69 278.833 535.222C279.692 535.748 280.356 536.472 280.825 537.396C281.301 538.319 281.535 539.374 281.528 540.56V551H275.647V541.795C275.654 540.986 275.448 540.35 275.029 539.888C274.617 539.427 274.042 539.196 273.303 539.196C272.82 539.196 272.398 539.303 272.036 539.516C271.681 539.722 271.407 540.02 271.215 540.411C271.024 540.794 270.924 541.256 270.917 541.795ZM292.314 557.477C290.674 557.477 289.268 557.243 288.096 556.774C286.931 556.312 286.025 555.673 285.379 554.857C284.74 554.047 284.381 553.116 284.303 552.065H289.971C290.028 552.413 290.17 552.694 290.397 552.907C290.624 553.12 290.915 553.273 291.27 553.365C291.633 553.464 292.037 553.514 292.485 553.514C293.245 553.514 293.873 553.33 294.371 552.96C294.875 552.591 295.127 551.923 295.127 550.957V548.188H294.956C294.743 548.741 294.417 549.214 293.976 549.604C293.536 549.988 293.007 550.283 292.389 550.489C291.771 550.687 291.093 550.787 290.354 550.787C289.189 550.787 288.117 550.517 287.137 549.977C286.164 549.437 285.383 548.582 284.793 547.41C284.211 546.238 283.92 544.707 283.92 542.818C283.92 540.844 284.225 539.239 284.836 538.003C285.454 536.767 286.249 535.862 287.222 535.286C288.202 534.711 289.232 534.423 290.312 534.423C291.121 534.423 291.831 534.565 292.442 534.849C293.053 535.126 293.564 535.499 293.976 535.968C294.388 536.43 294.701 536.937 294.914 537.491H295.042V534.636H300.922V550.957C300.922 552.342 300.564 553.518 299.846 554.484C299.136 555.457 298.135 556.199 296.842 556.71C295.55 557.222 294.04 557.477 292.314 557.477ZM292.528 546.611C293.067 546.611 293.529 546.462 293.912 546.163C294.303 545.858 294.601 545.425 294.807 544.864C295.02 544.295 295.127 543.614 295.127 542.818C295.127 542.009 295.02 541.316 294.807 540.741C294.601 540.158 294.303 539.714 293.912 539.409C293.529 539.097 293.067 538.94 292.528 538.94C291.988 538.94 291.526 539.097 291.143 539.409C290.766 539.714 290.475 540.158 290.269 540.741C290.07 541.316 289.971 542.009 289.971 542.818C289.971 543.628 290.07 544.317 290.269 544.885C290.475 545.446 290.766 545.876 291.143 546.174C291.526 546.465 291.988 546.611 292.528 546.611Z" fill="#1A73E8"/>
<path d="M63.1676 228C63.1108 227.29 62.8445 226.736 62.3686 226.338C61.8999 225.94 61.1861 225.741 60.2273 225.741C59.6165 225.741 59.1158 225.816 58.7251 225.965C58.3416 226.107 58.0575 226.303 57.8729 226.551C57.6882 226.8 57.5923 227.084 57.5852 227.403C57.571 227.666 57.6172 227.904 57.7237 228.117C57.8374 228.323 58.0149 228.511 58.2564 228.682C58.4979 228.845 58.8068 228.994 59.1832 229.129C59.5597 229.264 60.0071 229.385 60.5256 229.491L62.3153 229.875C63.5227 230.131 64.5561 230.468 65.4155 230.887C66.2749 231.306 66.978 231.8 67.5249 232.368C68.0717 232.929 68.473 233.561 68.7287 234.264C68.9915 234.967 69.1264 235.734 69.1335 236.565C69.1264 238 68.7678 239.214 68.0575 240.209C67.3473 241.203 66.3317 241.96 65.0107 242.478C63.6967 242.996 62.1165 243.256 60.2699 243.256C58.3736 243.256 56.7188 242.975 55.3054 242.414C53.8991 241.853 52.8054 240.99 52.0241 239.825C51.25 238.653 50.8594 237.155 50.8523 235.33H56.4773C56.5128 235.997 56.6797 236.558 56.978 237.013C57.2763 237.467 57.6953 237.812 58.2351 238.046C58.782 238.281 59.4318 238.398 60.1847 238.398C60.8168 238.398 61.3459 238.32 61.772 238.163C62.1982 238.007 62.5213 237.79 62.7415 237.513C62.9616 237.237 63.0753 236.92 63.0824 236.565C63.0753 236.232 62.9652 235.94 62.7521 235.692C62.5462 235.436 62.2053 235.209 61.7294 235.01C61.2536 234.804 60.6108 234.612 59.8011 234.435L57.6278 233.966C55.696 233.547 54.1726 232.847 53.0575 231.867C51.9496 230.88 51.3991 229.534 51.4062 227.83C51.3991 226.445 51.7685 225.234 52.5142 224.197C53.267 223.153 54.3075 222.339 55.6357 221.757C56.9709 221.175 58.5014 220.884 60.2273 220.884C61.9886 220.884 63.5121 221.178 64.7976 221.768C66.0831 222.357 67.0739 223.188 67.7699 224.261C68.473 225.326 68.8281 226.572 68.8352 228H63.1676ZM71.3867 221.182H78.7589L83.8299 233.54H84.0856L89.1566 221.182H96.5288V243H90.7333V230.386H90.5629L85.7049 242.83H82.2106L77.3526 230.301H77.1822V243H71.3867V221.182ZM117.074 228C117.017 227.29 116.751 226.736 116.275 226.338C115.806 225.94 115.092 225.741 114.134 225.741C113.523 225.741 113.022 225.816 112.631 225.965C112.248 226.107 111.964 226.303 111.779 226.551C111.594 226.8 111.499 227.084 111.491 227.403C111.477 227.666 111.523 227.904 111.63 228.117C111.744 228.323 111.921 228.511 112.163 228.682C112.404 228.845 112.713 228.994 113.089 229.129C113.466 229.264 113.913 229.385 114.432 229.491L116.222 229.875C117.429 230.131 118.462 230.468 119.322 230.887C120.181 231.306 120.884 231.8 121.431 232.368C121.978 232.929 122.379 233.561 122.635 234.264C122.898 234.967 123.033 235.734 123.04 236.565C123.033 238 122.674 239.214 121.964 240.209C121.254 241.203 120.238 241.96 118.917 242.478C117.603 242.996 116.023 243.256 114.176 243.256C112.28 243.256 110.625 242.975 109.212 242.414C107.805 241.853 106.712 240.99 105.93 239.825C105.156 238.653 104.766 237.155 104.759 235.33H110.384C110.419 235.997 110.586 236.558 110.884 237.013C111.183 237.467 111.602 237.812 112.141 238.046C112.688 238.281 113.338 238.398 114.091 238.398C114.723 238.398 115.252 238.32 115.678 238.163C116.104 238.007 116.428 237.79 116.648 237.513C116.868 237.237 116.982 236.92 116.989 236.565C116.982 236.232 116.871 235.94 116.658 235.692C116.452 235.436 116.112 235.209 115.636 235.01C115.16 234.804 114.517 234.612 113.707 234.435L111.534 233.966C109.602 233.547 108.079 232.847 106.964 231.867C105.856 230.88 105.305 229.534 105.312 227.83C105.305 226.445 105.675 225.234 106.42 224.197C107.173 223.153 108.214 222.339 109.542 221.757C110.877 221.175 112.408 220.884 114.134 220.884C115.895 220.884 117.418 221.178 118.704 221.768C119.989 222.357 120.98 223.188 121.676 224.261C122.379 225.326 122.734 226.572 122.741 228H117.074ZM131.259 233.795V243H125.378V221.182H131.046V229.747H131.216C131.586 228.703 132.2 227.89 133.059 227.308C133.919 226.718 134.952 226.423 136.159 226.423C137.317 226.423 138.322 226.686 139.174 227.212C140.034 227.737 140.698 228.462 141.167 229.385C141.642 230.308 141.877 231.366 141.87 232.56V243H135.989V233.795C135.996 232.986 135.794 232.35 135.382 231.888C134.977 231.427 134.398 231.196 133.645 231.196C133.169 231.196 132.75 231.303 132.388 231.516C132.033 231.722 131.756 232.02 131.557 232.411C131.365 232.794 131.266 233.256 131.259 233.795ZM144.773 243V226.636H150.653V243H144.773ZM147.713 224.932C146.918 224.932 146.236 224.669 145.668 224.143C145.099 223.618 144.815 222.986 144.815 222.247C144.815 221.509 145.099 220.876 145.668 220.351C146.236 219.825 146.918 219.562 147.713 219.562C148.516 219.562 149.197 219.825 149.759 220.351C150.327 220.876 150.611 221.509 150.611 222.247C150.611 222.986 150.327 223.618 149.759 224.143C149.197 224.669 148.516 224.932 147.713 224.932ZM159.53 233.795V243H153.65V226.636H159.232V229.747H159.403C159.758 228.71 160.383 227.897 161.278 227.308C162.18 226.718 163.231 226.423 164.431 226.423C165.589 226.423 166.594 226.69 167.446 227.222C168.305 227.748 168.969 228.472 169.438 229.396C169.914 230.319 170.148 231.374 170.141 232.56V243H164.26V233.795C164.268 232.986 164.062 232.35 163.643 231.888C163.231 231.427 162.655 231.196 161.917 231.196C161.434 231.196 161.011 231.303 160.649 231.516C160.294 231.722 160.02 232.02 159.829 232.411C159.637 232.794 159.537 233.256 159.53 233.795ZM173.044 243V226.636H178.627V229.747H178.797C179.138 228.724 179.72 227.915 180.544 227.318C181.368 226.722 182.348 226.423 183.485 226.423C184.635 226.423 185.626 226.729 186.457 227.339C187.288 227.943 187.789 228.746 187.959 229.747H188.129C188.406 228.746 188.996 227.943 189.898 227.339C190.8 226.729 191.858 226.423 193.073 226.423C194.642 226.423 195.914 226.928 196.887 227.936C197.867 228.945 198.357 230.287 198.357 231.963V243H192.476V233.455C192.476 232.737 192.295 232.176 191.933 231.771C191.57 231.359 191.084 231.153 190.473 231.153C189.869 231.153 189.39 231.359 189.035 231.771C188.687 232.176 188.513 232.737 188.513 233.455V243H182.888V233.455C182.888 232.737 182.707 232.176 182.345 231.771C181.982 231.359 181.496 231.153 180.885 231.153C180.48 231.153 180.132 231.246 179.841 231.43C179.55 231.615 179.323 231.881 179.159 232.229C179.003 232.57 178.925 232.979 178.925 233.455V243H173.044ZM204.251 249.136C203.576 249.136 202.933 249.083 202.322 248.977C201.712 248.877 201.175 248.739 200.714 248.561L201.992 244.385C202.475 244.555 202.915 244.665 203.313 244.715C203.718 244.765 204.063 244.737 204.347 244.63C204.638 244.523 204.847 244.321 204.975 244.023L205.103 243.724L199.35 226.636H205.487L208.129 237.972H208.299L210.984 226.636H217.163L211.197 244.364C210.898 245.266 210.465 246.075 209.897 246.793C209.336 247.517 208.597 248.089 207.681 248.508C206.765 248.927 205.621 249.136 204.251 249.136ZM226.178 243.298C224.431 243.298 222.925 242.964 221.661 242.297C220.404 241.622 219.434 240.656 218.753 239.399C218.078 238.135 217.741 236.622 217.741 234.861C217.741 233.17 218.081 231.693 218.763 230.429C219.445 229.165 220.407 228.181 221.65 227.478C222.893 226.775 224.36 226.423 226.05 226.423C227.286 226.423 228.405 226.615 229.406 226.999C230.407 227.382 231.263 227.94 231.974 228.671C232.684 229.396 233.231 230.276 233.614 231.313C233.998 232.35 234.189 233.518 234.189 234.818V236.182H219.573V232.943H228.778C228.77 232.474 228.65 232.062 228.415 231.707C228.188 231.345 227.879 231.065 227.488 230.866C227.105 230.66 226.668 230.557 226.178 230.557C225.702 230.557 225.265 230.66 224.868 230.866C224.47 231.065 224.15 231.342 223.909 231.697C223.675 232.052 223.55 232.467 223.536 232.943V236.438C223.536 236.963 223.646 237.432 223.866 237.844C224.086 238.256 224.403 238.579 224.814 238.813C225.226 239.048 225.724 239.165 226.306 239.165C226.711 239.165 227.08 239.108 227.414 238.994C227.755 238.881 228.046 238.717 228.287 238.504C228.529 238.284 228.706 238.021 228.82 237.716H234.189C234.005 238.852 233.568 239.839 232.879 240.678C232.19 241.509 231.278 242.155 230.141 242.616C229.012 243.071 227.691 243.298 226.178 243.298ZM244.473 243.298C242.697 243.298 241.177 242.947 239.913 242.244C238.649 241.533 237.679 240.546 237.005 239.282C236.33 238.011 235.993 236.537 235.993 234.861C235.993 233.185 236.33 231.714 237.005 230.45C237.679 229.179 238.649 228.192 239.913 227.489C241.177 226.778 242.697 226.423 244.473 226.423C246.248 226.423 247.768 226.778 249.032 227.489C250.297 228.192 251.266 229.179 251.941 230.45C252.615 231.714 252.953 233.185 252.953 234.861C252.953 236.537 252.615 238.011 251.941 239.282C251.266 240.546 250.297 241.533 249.032 242.244C247.768 242.947 246.248 243.298 244.473 243.298ZM244.515 238.952C245.012 238.952 245.442 238.785 245.804 238.451C246.167 238.117 246.447 237.641 246.646 237.023C246.845 236.406 246.944 235.67 246.944 234.818C246.944 233.959 246.845 233.224 246.646 232.613C246.447 231.995 246.167 231.519 245.804 231.185C245.442 230.852 245.012 230.685 244.515 230.685C243.99 230.685 243.539 230.852 243.162 231.185C242.786 231.519 242.498 231.995 242.299 232.613C242.1 233.224 242.001 233.959 242.001 234.818C242.001 235.67 242.1 236.406 242.299 237.023C242.498 237.641 242.786 238.117 243.162 238.451C243.539 238.785 243.99 238.952 244.515 238.952ZM261.22 233.795V243H255.339V226.636H260.922V229.747H261.092C261.447 228.71 262.072 227.897 262.967 227.308C263.869 226.718 264.92 226.423 266.12 226.423C267.278 226.423 268.283 226.69 269.135 227.222C269.995 227.748 270.659 228.472 271.127 229.396C271.603 230.319 271.838 231.374 271.831 232.56V243H265.95V233.795C265.957 232.986 265.751 232.35 265.332 231.888C264.92 231.427 264.345 231.196 263.606 231.196C263.123 231.196 262.701 231.303 262.338 231.516C261.983 231.722 261.71 232.02 261.518 232.411C261.326 232.794 261.227 233.256 261.22 233.795ZM282.617 249.477C280.977 249.477 279.57 249.243 278.398 248.774C277.234 248.312 276.328 247.673 275.682 246.857C275.043 246.047 274.684 245.116 274.606 244.065H280.273C280.33 244.413 280.472 244.694 280.7 244.907C280.927 245.12 281.218 245.273 281.573 245.365C281.935 245.464 282.34 245.514 282.788 245.514C283.548 245.514 284.176 245.33 284.673 244.96C285.178 244.591 285.43 243.923 285.43 242.957V240.188H285.259C285.046 240.741 284.719 241.214 284.279 241.604C283.839 241.988 283.31 242.283 282.692 242.489C282.074 242.687 281.396 242.787 280.657 242.787C279.492 242.787 278.42 242.517 277.44 241.977C276.467 241.437 275.685 240.582 275.096 239.41C274.513 238.238 274.222 236.707 274.222 234.818C274.222 232.844 274.528 231.239 275.138 230.003C275.756 228.767 276.552 227.862 277.525 227.286C278.505 226.711 279.535 226.423 280.614 226.423C281.424 226.423 282.134 226.565 282.745 226.849C283.356 227.126 283.867 227.499 284.279 227.968C284.691 228.43 285.004 228.937 285.217 229.491H285.344V226.636H291.225V242.957C291.225 244.342 290.866 245.518 290.149 246.484C289.439 247.457 288.438 248.199 287.145 248.71C285.852 249.222 284.343 249.477 282.617 249.477ZM282.83 238.611C283.37 238.611 283.832 238.462 284.215 238.163C284.606 237.858 284.904 237.425 285.11 236.864C285.323 236.295 285.43 235.614 285.43 234.818C285.43 234.009 285.323 233.316 285.11 232.741C284.904 232.158 284.606 231.714 284.215 231.409C283.832 231.097 283.37 230.94 282.83 230.94C282.29 230.94 281.829 231.097 281.445 231.409C281.069 231.714 280.778 232.158 280.572 232.741C280.373 233.316 280.273 234.009 280.273 234.818C280.273 235.628 280.373 236.317 280.572 236.885C280.778 237.446 281.069 237.876 281.445 238.174C281.829 238.465 282.29 238.611 282.83 238.611ZM294.714 226.636H300.595V243.554C300.595 244.989 300.293 246.111 299.689 246.92C299.093 247.73 298.255 248.302 297.175 248.636C296.096 248.969 294.835 249.136 293.393 249.136C293.18 249.136 292.985 249.133 292.807 249.126C292.623 249.119 292.42 249.108 292.2 249.094V244.747C292.342 244.761 292.466 244.772 292.573 244.779C292.672 244.786 292.775 244.79 292.882 244.79C293.585 244.79 294.064 244.68 294.32 244.46C294.583 244.246 294.714 243.902 294.714 243.426V226.636ZM297.654 224.932C296.859 224.932 296.177 224.669 295.609 224.143C295.041 223.618 294.757 222.986 294.757 222.247C294.757 221.509 295.041 220.876 295.609 220.351C296.177 219.825 296.859 219.562 297.654 219.562C298.457 219.562 299.139 219.825 299.7 220.351C300.268 220.876 300.552 221.509 300.552 222.247C300.552 222.986 300.268 223.618 299.7 224.143C299.139 224.669 298.457 224.932 297.654 224.932ZM311.475 243.298C309.699 243.298 308.179 242.947 306.915 242.244C305.651 241.533 304.681 240.546 304.007 239.282C303.332 238.011 302.994 236.537 302.994 234.861C302.994 233.185 303.332 231.714 304.007 230.45C304.681 229.179 305.651 228.192 306.915 227.489C308.179 226.778 309.699 226.423 311.475 226.423C313.25 226.423 314.77 226.778 316.034 227.489C317.298 228.192 318.268 229.179 318.943 230.45C319.617 231.714 319.955 233.185 319.955 234.861C319.955 236.537 319.617 238.011 318.943 239.282C318.268 240.546 317.298 241.533 316.034 242.244C314.77 242.947 313.25 243.298 311.475 243.298ZM311.517 238.952C312.014 238.952 312.444 238.785 312.806 238.451C313.169 238.117 313.449 237.641 313.648 237.023C313.847 236.406 313.946 235.67 313.946 234.818C313.946 233.959 313.847 233.224 313.648 232.613C313.449 231.995 313.169 231.519 312.806 231.185C312.444 230.852 312.014 230.685 311.517 230.685C310.992 230.685 310.541 230.852 310.164 231.185C309.788 231.519 309.5 231.995 309.301 232.613C309.102 233.224 309.003 233.959 309.003 234.818C309.003 235.67 309.102 236.406 309.301 237.023C309.5 237.641 309.788 238.117 310.164 238.451C310.541 238.785 310.992 238.952 311.517 238.952Z" fill="#FF6D7F"/>
</svg>
