<svg xmlns="http://www.w3.org/2000/svg" width="1920" height="1080" fill="none"><path fill="#1A73E8" d="M523.907 355.299c-11.038 1.689-19.344 2.534-24.919 2.534-6.251 0-9.377-1.267-9.377-3.801 0-1.07 1.915-1.774 5.744-2.112.169-.056 2.76-.422 7.772-1.098l7.856-1.098c.563-.113 3.773-.648 9.63-1.605l4.899-.761v-4.139c0-18.471-1.323-30.1-3.97-34.887l-1.858-3.379c-.169-.281-.254-.507-.254-.676 0-1.408 1.098-2.111 3.295-2.111 2.872 0 6.11.957 9.714 2.872 3.604 1.914 5.406 3.66 5.406 5.237 0 .507-.281 1.323-.845 2.45-2.646 5.293-4.251 14.135-4.814 26.524l-.338 7.18c2.196-.619 3.66-1.042 4.392-1.267l4.308-1.351c1.69-.564 3.07-.845 4.14-.845 4.843 0 7.32 1.182 7.433 3.548.113 2.421-6.701 4.899-20.442 7.433l.084 4.9-.169 13.346c10.7 2.14 16.05 5.97 16.05 11.489 0 3.547-1.323 5.321-3.97 5.321-2.985 0-7.011-4.308-12.08-12.924v15.628l.085 19.513.169 10.812c0 17.739-1.943 26.609-5.829 26.609-1.408 0-2.957-1.436-4.646-4.308-1.633-2.816-2.45-5.378-2.45-7.687 0-1.689.254-3.773.761-6.251 3.66-17.007 5.49-33.902 5.49-50.684l.338-12.839c-11.206 22.413-22.976 36.802-35.309 43.165l-4.224 2.112c-.788.45-1.549.676-2.281.676-.957 0-1.464-.338-1.52-1.014 0-.45.816-1.408 2.449-2.872 14.811-13.234 27.905-31.114 39.28-53.64Zm39.533-20.696c1.408-.45 2.197-.732 2.366-.845l9.545-3.716c2.534-1.014 4.731-1.521 6.589-1.521 2.928 0 4.393 1.042 4.393 3.125 0 1.465-2 2.957-5.998 4.478-3.998 1.464-8.025 2.196-12.08 2.196-1.408 0-2.984-.141-4.73-.423 0 7.885-.648 14.783-1.943 20.696a604.866 604.866 0 0 0 4.224-2.449c2.984-1.859 4.815-2.957 5.49-3.295 3.773-2.084 6.054-3.435 6.843-4.055 1.576-1.295 3.069-1.942 4.477-1.942.788 0 1.182.281 1.182.844 0 .901-1.689 2.675-5.068 5.322-10.418 8.109-18.105 15.656-23.061 22.639-.957 1.351-1.746 2.027-2.365 2.027-.958 0-1.971-1.295-3.041-3.886-1.07-2.59-1.605-5.012-1.605-7.264 0-1.014.76-2.084 2.28-3.21 3.83-2.816 5.745-9.799 5.745-20.949 0-7.716-.873-13.347-2.619-16.895l-2.196-4.308c-1.07-2.196-1.605-3.689-1.605-4.477 0-1.239.816-1.859 2.449-1.859.676 0 1.493.169 2.45.507l3.295 1.183c4.899 1.802 7.349 4.083 7.349 6.842 0 .338-.169.958-.507 1.859-.845 2.308-1.464 5.434-1.859 9.376Zm6.843 53.133c2.14-.394 3.745-.675 4.815-.844 7.94-1.239 13.6-2.591 16.979-4.055l7.94-3.632c1.239-.564 2.422-.845 3.548-.845 2.534 0 5.66.985 9.376 2.956 3.774 1.971 5.66 3.633 5.66 4.984 0 .282-.282.789-.845 1.521-2.365 3.041-3.548 6.729-3.548 11.066l.338 11.488.254 9.461.169 7.096-.761 8.362c-2.308 10.813-4.702 16.219-7.18 16.219-1.52 0-2.675-1.774-3.463-5.322-2.365-10.756-5.294-16.134-8.785-16.134-2.028 0-6.589.366-13.685 1.098-2.365.282-4.139.423-5.322.423-1.126 0-2.843-.141-5.152-.423l.084 2.534c0 7.716-1.183 11.573-3.548 11.573-1.07 0-2.196-.873-3.379-2.618-1.126-1.746-1.689-3.464-1.689-5.153 0-1.352.253-3.407.76-6.167.676-3.66 1.014-7.856 1.014-12.586 0-14.079-2.112-23.624-6.336-28.636-.506-.564-.816-1.099-.929-1.605-.281-1.352.028-2 .929-1.943l7.181.422c.056 0 .309-.141.76-.422 6.758-4.111 11.038-9.349 12.84-15.712l1.098-3.97c.45-1.634 1.351-2.45 2.703-2.45 1.183 0 3.21 1.098 6.082 3.294 2.872 2.14 4.308 3.661 4.308 4.562 0 .732-.676 1.38-2.027 1.943l-4.224 1.858c-5.575 2.478-10.897 6.364-15.965 11.657Zm-.676 4.815c.507 3.21.76 6.477.76 9.799v2.788c4.505-.451 8.25-1.07 11.235-1.859l7.18-2.027c1.295-.394 2.76-.591 4.393-.591 3.21 0 4.815.957 4.815 2.872 0 1.351-2.197 2.562-6.589 3.632-4.336 1.07-9.292 1.605-14.867 1.605-1.296 0-3.323-.084-6.082-.253v19.597c1.914-.281 3.153-.478 3.716-.591l9.208-2.027 8.363-1.436c1.464-.282 2.59-.423 3.379-.423 2.365 0 4.561 1.633 6.589 4.9.563.957.957 1.436 1.182 1.436.789 0 1.324-2.337 1.605-7.012l.423-6.082-.761-18.837c0-6.364-1.605-9.545-4.815-9.545-.225 0-.675.084-1.351.253-1.352.338-4.224.76-8.616 1.267-2.253.282-5.069.704-8.448 1.267-5.068.845-8.841 1.267-11.319 1.267Zm28.467-59.553c10.587-4.336 17.092-8.391 19.513-12.164l2.704-4.139c.732-1.183 1.436-1.774 2.111-1.774 1.239 0 3.098 1.351 5.576 4.055 2.477 2.703 3.716 4.758 3.716 6.166 0 .901-1.013 1.549-3.041 1.943-5.293.957-15.486 4.393-30.579 10.306l.085 3.041 1.436 10.221c1.802 5.631 6.983 8.447 15.543 8.447 6.194 0 10.221-.816 12.079-2.45 1.859-1.633 3.604-5.856 5.238-12.671l1.351-6.166c.394-1.521.76-2.281 1.098-2.281.958 0 1.605 1.915 1.943 5.744.451 5.97 1.38 10.982 2.788 15.036.619 1.859.929 3.323.929 4.393 0 4.562-8.588 6.842-25.764 6.842-15.543 0-23.315-8.728-23.315-26.186l.169-17.655v-4.73c0-5.181-.816-9.067-2.449-11.658-1.127-1.914-1.69-3.407-1.69-4.477 0-.901.62-1.351 1.859-1.351 2.759 0 5.772.788 9.038 2.365 3.266 1.577 4.9 3.041 4.9 4.393 0 .45-.282 1.154-.845 2.111-2.929 5.294-4.393 12.84-4.393 22.639ZM725.426 379.036v-33.367c-4.28.507-7.434.929-9.461 1.267l-10.222 1.689-2.787.338c-.958.113-1.577.169-1.859.169-1.464 0-3.519-.732-6.166-2.196-2.591-1.52-3.886-2.731-3.886-3.632 0-.62 2.45-.929 7.349-.929 2.365 0 9.067-.676 20.105-2.028l6.673-.845v-8.193c0-14.755-1.999-24.469-5.997-29.143l-2.028-2.366c-.45-.507-.676-.985-.676-1.436 0-1.07.817-1.605 2.45-1.605 4.224 0 8.673 1.07 13.347 3.21 4.73 2.084 7.095 4.083 7.095 5.998 0 .507-.534 2.196-1.604 5.068-1.859 4.843-2.788 11.235-2.788 19.175l-.338 7.856c11.826-1.126 20.189-2.534 25.088-4.223 1.521-.563 2.619-.845 3.295-.845 1.858 0 4.505 1.155 7.94 3.463 3.435 2.309 5.153 4.083 5.153 5.322 0 .563-.394 1.436-1.183 2.619-3.716 5.8-7.602 15.627-11.657 29.481 4.449-.789 7.8-1.436 10.053-1.943 4.674-1.014 7.771-1.521 9.291-1.521 2.873 0 6.308 1.042 10.306 3.126 4.055 2.084 6.082 3.858 6.082 5.322 0 .507-.338 1.154-1.013 1.943-3.154 3.604-5.153 8.278-5.998 14.022-1.239 8.053-3.858 15.712-7.856 22.977-3.998 7.208-7.603 10.812-10.812 10.812-1.634 0-3.802-1.746-6.505-5.237l-6.166-7.856a219.62 219.62 0 0 0-3.548-4.477c-1.408-1.69-2.112-2.647-2.112-2.872.056-.451.479-.676 1.267-.676 1.633 0 4.393.394 8.278 1.183 1.07.225 2.422.337 4.055.337 4.899 0 7.997-1.83 9.292-5.49 2.422-6.702 3.632-13.826 3.632-21.372 0-2.309-1.126-3.463-3.379-3.463-1.689 0-5.012.281-9.967.844l-34.127 3.971v40.8c0 22.132-1.859 33.198-5.575 33.198-1.746 0-2.619-4.731-2.619-14.192l-.169-18.837.169-33.705v-5.997c-12.784 2.027-21.09 3.576-24.92 4.646l-10.136 2.956c-1.464.395-2.76.592-3.886.592-2.703 0-6.054-.958-10.052-2.872-3.999-1.915-5.998-3.492-5.998-4.731 0-1.351 1.267-2.027 3.801-2.027 2.647 0 6.73-.197 12.249-.592l10.897-.844c4.336-.282 13.544-1.239 27.623-2.872Zm8.954-1.267 20.78-2.619c.507-3.041.873-5.097 1.098-6.167l2.45-12.417c1.182-6.026 1.774-10.306 1.774-12.84 0-1.351-.845-2.027-2.535-2.027-1.407 0-3.547.169-6.419.507l-17.148 2.027v33.536Zm32.437-63.186c2.253-.113 4.167-.169 5.744-.169 5.97 0 11.094 1.408 15.374 4.224 4.28 2.759 6.42 6.082 6.42 9.967 0 3.661-2.055 5.491-6.166 5.491-3.267 0-7.209-2.759-11.826-8.278l-7.181-8.363-2.365-2.872ZM880.399 401.336c7.265 5.012 15.374 10.081 24.328 15.206l-.084-7.265-.084-9.715-.254-11.15c0-5.744-.563-10.165-1.689-13.262-13.741 2.534-23.033 4.364-27.876 5.491l-10.982 2.618c-2.083.507-4.026.761-5.828.761-2.872 0-5.942-.592-9.208-1.774-3.266-1.183-4.899-2.281-4.899-3.295 0-1.633 2.844-2.45 8.531-2.45 11.376 0 41.026-5.152 88.95-15.458 2.872-.619 5.181-.929 6.927-.929 5.8 0 8.701 1.886 8.701 5.659 0 1.915-2.309 2.985-6.927 3.21-5.744.282-10.334.676-13.769 1.183l-16.726 2.365c-1.126.113-3.688.423-7.687.929 1.859 2.478 2.788 4.224 2.788 5.238 0 .563-.31 1.83-.929 3.801-.338 1.295-.592 3.323-.761 6.082a344.965 344.965 0 0 1-.338 6.167c4.787-1.127 8.898-2.253 12.333-3.379l6.674-2.197c2.59-.844 4.815-1.267 6.673-1.267 3.379 0 5.068 1.098 5.068 3.295 0 4.223-10.249 6.786-30.748 7.687l-1.013 20.611c9.348 4.449 21.033 8.194 35.056 11.235 14.079 2.985 26.89 4.477 38.435 4.477 2.59 0 3.886.422 3.886 1.267 0 1.183-4.928 3.041-14.783 5.575-9.799 2.591-17.063 3.886-21.794 3.886-6.814 0-17.711-4.139-32.691-12.417-14.923-8.279-28.664-17.796-41.223-28.552-5.181 8.785-12.361 16.697-21.54 23.737-9.123 7.039-16.866 10.559-23.23 10.559-1.802 0-2.703-.31-2.703-.93 0-.45 1.126-1.182 3.379-2.196 9.01-4.111 17.204-10.221 24.581-18.33 7.434-8.11 12.193-16.219 14.276-24.329l.254-1.013-.592-6.336.761-.675c.563-.338 1.013-.507 1.351-.507 1.577 0 3.604.844 6.082 2.534 2.534 1.689 3.801 3.069 3.801 4.139 0 .507-.506 1.802-1.52 3.886l-2.027 4.223c-.057.226-.366.761-.93 1.605Zm40.125-49.247c-2.929.394-4.702.647-5.322.76l-11.911 2.196c-1.182.226-3.801.592-7.856 1.099.057.394.085.703.085.929 0 2.14-.676 3.21-2.027 3.21-1.915 0-3.323-3.041-4.224-9.123-2.365-16.275-6.589-27.764-12.671-34.465-1.014-1.126-1.52-1.915-1.52-2.365 0-1.521 1.07-2.281 3.21-2.281 1.295 0 3.266.338 5.913 1.013.957.226 1.802.338 2.534.338 2.083 0 4.618-.309 7.602-.929l13.094-2.703c6.476-1.351 12.079-2.956 16.81-4.815 1.52-.619 2.675-.929 3.463-.929 2.027 0 5.125 1.295 9.292 3.886 4.224 2.534 6.335 4.42 6.335 5.659 0 .563-.45 1.352-1.351 2.366-3.097 3.491-5.969 10.108-8.616 19.851-2.647 9.63-4.562 15.627-5.744 17.992-1.127 2.366-2.732 3.548-4.815 3.548-1.521 0-2.281-1.746-2.281-5.237Zm-27.792-21.456a198.233 198.233 0 0 0 16.304-3.464c1.689-.45 3.125-.675 4.308-.675 2.815 0 4.223 1.013 4.223 3.041 0 1.802-2.956 3.041-8.869 3.716l-9.377 1.099c-.957.112-2.928.253-5.913.422l1.943 16.81 5.322-.929c2.928-.507 4.984-.901 6.166-1.183 4.055-1.013 6.279-1.52 6.674-1.52l3.97-.254a31.156 31.156 0 0 1 1.267-.084c.394 0 1.014.084 1.858.253 2.084-7.321 3.379-14.501 3.886-21.54.394-5.35.648-8.391.76-9.123.113-.62.169-1.155.169-1.605 0-2.253-.901-3.379-2.703-3.379l-1.436.338-3.463.338-27.2 4.814 2.111 12.925ZM1048.04 379.205c1.52.957 2.43 1.52 2.71 1.689l14.78 8.109c7.04 3.886 10.56 8.983 10.56 15.29 0 3.998-1.38 5.998-4.14 5.998-2.65 0-5.43-2.112-8.36-6.336-1.02-1.408-3.58-4.702-7.69-9.883-2.59-3.21-5.52-7.096-8.79-11.657-7.43 19.485-17.09 32.69-28.97 39.617l-7.35 4.308c-2.08 1.239-3.83 1.859-5.24 1.859-.9 0-1.38-.31-1.43-.929-.06-.395.36-.958 1.27-1.69l3.54-3.21 6.68-5.744c8.05-7.039 15.12-17.767 21.2-32.184 6.14-14.417 9.21-27.595 9.21-39.533 0-6.814-.74-11.545-2.2-14.192-1.18-2.027-1.77-3.491-1.77-4.392 0-1.014.84-1.521 2.53-1.521 3.44 0 7.21 1.352 11.32 4.055 4.11 2.703 6.17 5.209 6.17 7.518 0 .788-.62 2.703-1.86 5.744a103.47 103.47 0 0 0-2.11 5.744l-2.88 9.377-5.74 17.401c-.23.676-.7 2.196-1.44 4.562Zm58.04-11.235c5.97 14.191 12.02 25.313 18.16 33.366l4.39 5.914c5.91 7.771 15.74 14.191 29.48 19.259 8.11 2.985 12.17 5.04 12.17 6.167 0 1.126-1.69 1.689-5.07 1.689-15.26 0-25.32-.676-30.16-2.027-4.79-1.295-8.39-4.336-10.81-9.123l-3.13-6.082c-5.23-10.306-11.09-24.328-17.57-42.068l-1.35 5.576c-4.05 17.626-11.71 31.761-22.98 42.405-11.48 10.869-20.69 16.303-27.62 16.303-1.29 0-1.97-.281-2.03-.845 0-.45 1.58-1.774 4.74-3.97 13.4-9.348 23.45-19.823 30.15-31.424 6.76-11.601 11.1-25.876 13.01-42.827l1.69-15.036c.51-4.337.76-7.744.76-10.222 0-4.73-1.29-9.686-3.89-14.867-.73-1.52-1.09-2.759-1.09-3.717 0-1.182.98-1.774 2.95-1.774 3.49 0 7.27 1.127 11.32 3.379 4.06 2.253 6.08 4.337 6.08 6.251 0 .789-.25 1.859-.76 3.21-1.91 4.731-3.77 12.728-5.57 23.991-.51 2.872-1.1 6.279-1.78 10.221l-1.09 6.251ZM1243.82 348.288v-15.459c-4.06.62-8.17 1.352-12.33 2.196-4.96 1.07-8.28 1.605-9.97 1.605-1.64 0-3.69-.704-6.17-2.111-2.42-1.465-3.63-2.675-3.63-3.633 0-.901 1.41-1.351 4.22-1.351l4.56.084c.12 0 2.68-.169 7.69-.507l9.72-.591c.73-.056 2.64-.282 5.74-.676l-.51-7.18c-.45-7.94-2.08-14.022-4.9-18.246-.39-.563-.59-.986-.59-1.267 0-1.295 1.02-1.943 3.04-1.943 3.33 0 6.68.957 10.05 2.872 3.44 1.915 5.16 3.801 5.16 5.66 0 .563-.2 1.239-.59 2.027l-1.69 3.632c-.79 1.746-1.55 6.308-2.28 13.685 6.92-1.464 11.6-2.591 14.02-3.379l8.28-2.872c1.86-.619 3.38-.929 4.56-.929 2.25 0 5.21 1.098 8.87 3.294 3.66 2.14 5.49 3.858 5.49 5.153 0 .788-.48 1.69-1.44 2.703l-2.36 2.281c-1.92 1.915-3.94 5.35-6.08 10.306l6.84-1.099c3.66-.563 6.02-.985 7.09-1.267l7.61-1.858c1.69-.394 3.46-.591 5.32-.591 3.15 0 5.94.76 8.36 2.28 2.42 1.521 3.63 3.267 3.63 5.238 0 1.858-3.6 2.787-10.81 2.787l-14.61-.338-4.31-.084c-2.2 0-5.55.141-10.05.422-.96 3.492-1.95 7.687-2.96 12.587l-.76 3.801c3.66 2.759 5.49 4.562 5.49 5.406 0 1.408-2.06 2.112-6.17 2.112-4.28 0-11.34.563-21.2 1.69l-5.57.591v6.842c1.12 1.521 1.94 2.675 2.45 3.464 2.08 2.928 5.01 6.25 8.78 9.967 13.63-7.94 21.37-14.163 23.23-18.668l.93-2.365c.51-1.239 1.27-1.859 2.28-1.859 2.08 0 4.76 1.239 8.03 3.717 3.32 2.422 4.98 4.421 4.98 5.998 0 1.013-.93 1.773-2.79 2.28-7.26 1.802-17.57 5.716-30.91 11.742l-3.55 1.521c15.03 13.74 29.34 21.934 42.91 24.581l10.9 2.112c5.57 1.126 8.58 1.717 9.03 1.774 3.95.507 5.92 1.239 5.92 2.196 0 .901-1.83 1.661-5.49 2.281l-9.63 1.774c-7.77 1.351-14.79 2.027-21.04 2.027-3.04 0-5.82-1.042-8.36-3.125-1.86-1.577-6.95-6.758-15.29-15.543-8.33-8.842-13.57-14.614-15.71-17.317l-4.82-6.082c-.16-.169-.73-.845-1.69-2.028 0 2.14.15 5.688.43 10.644.56 9.405.84 16.754.84 22.047 0 8.166-.98 14.98-2.95 20.443-1.92 5.462-4.34 8.194-7.27 8.194-1.18 0-2.59-1.211-4.22-3.633a93.881 93.881 0 0 0-4.14-5.575c-3.16-4.055-4.79-6.195-4.9-6.42-1.24-1.633-2.14-2.759-2.7-3.379-.68-.732-1.02-1.267-1.02-1.605 0-.845.57-1.267 1.69-1.267.96 0 2.14.338 3.55 1.014.39.169 1.83.563 4.31 1.182l3.63.93c.45.112.79.169 1.01.169 1.97 0 3.21-1.831 3.72-5.491l.59-4.815c.34-2.365.51-5.181.51-8.447l.34-10.982-.17-24.919v-2.619c-6.59.957-11.66 1.83-15.21 2.619l-7.6 1.774c-1.63.338-3.1.507-4.39.507-1.41 0-3.18-.564-5.32-1.69-2.09-1.183-3.13-2.14-3.13-2.872 0-1.014 1.72-1.577 5.15-1.689.96-.057 2.48-.226 4.56-.507l10.73-1.436 10.81-1.352c.96-.113 2.43-.281 4.4-.507V353.44l-4.82.761c-16.67 2.365-27.31 4.111-31.93 5.237l-5.57 1.352c-1.75.45-3.3.675-4.65.675-2.48 0-4.84-.788-7.1-2.365l-3.12-2.196c-1.07-.732-1.61-1.239-1.61-1.521 0-1.07 2.31-1.605 6.93-1.605.9 0 2.37-.112 4.39-.338l11.24-1.013 11.06-1.267 18-2.028 7.01-.844Zm6.92 21.709c6.42-.901 13.27-2.253 20.53-4.055.4-1.914.62-3.041.68-3.379l1.18-8.193c.17-1.014.45-2.619.84-4.815-3.09.394-5.18.647-6.25.76l-10.47 1.436c-.85.113-3.01.366-6.51.76v17.486Zm.34-22.639 6.76-.929c5.74-.788 11.26-1.464 16.56-2.027 1.01-5.069 1.52-9.011 1.52-11.826 0-2.366-1.21-3.548-3.63-3.548-1.47 0-4.57.366-9.3 1.098l-8.27 1.183c-.34.056-1.55.225-3.64.506v15.543Zm-13.68 56.006c.84.112 1.41.422 1.69.929v.169l-.93 1.267-3.38 2.788c-1.13.957-3.94 2.9-8.45 5.828a468.89 468.89 0 0 0-21.12 14.53c-3.54 2.59-6.05 3.885-7.51 3.885-1.81 0-4.14-1.295-7.02-3.885-2.87-2.647-4.3-4.787-4.3-6.42 0-1.239 1.21-1.859 3.63-1.859 5.41 0 12.36-1.971 20.86-5.913 4.51-2.084 8.99-4.083 13.44-5.997 3.94-1.69 6.64-2.929 8.1-3.717 2.14-1.183 3.81-1.718 4.99-1.605Zm-26.02-15.628c10.25 0 15.37 3.745 15.37 11.235 0 2.703-1.49 4.055-4.47 4.055-3.49 0-7.46-2.985-11.91-8.954-1.52-2.084-2.37-3.182-2.54-3.295-.95-1.07-1.38-1.745-1.26-2.027.22-.676 1.83-1.014 4.81-1.014ZM1417.97 379.036v-33.367c-4.28.507-7.44.929-9.46 1.267l-10.22 1.689-2.79.338c-.96.113-1.58.169-1.86.169-1.46 0-3.52-.732-6.17-2.196-2.59-1.52-3.88-2.731-3.88-3.632 0-.62 2.45-.929 7.35-.929 2.36 0 9.06-.676 20.1-2.028l6.67-.845v-8.193c0-14.755-2-24.469-5.99-29.143l-2.03-2.366c-.45-.507-.68-.985-.68-1.436 0-1.07.82-1.605 2.45-1.605 4.23 0 8.68 1.07 13.35 3.21 4.73 2.084 7.1 4.083 7.1 5.998 0 .507-.54 2.196-1.61 5.068-1.86 4.843-2.79 11.235-2.79 19.175l-.34 7.856c11.83-1.126 20.19-2.534 25.09-4.223 1.52-.563 2.62-.845 3.3-.845 1.86 0 4.5 1.155 7.94 3.463 3.43 2.309 5.15 4.083 5.15 5.322 0 .563-.39 1.436-1.18 2.619-3.72 5.8-7.6 15.627-11.66 29.481 4.45-.789 7.8-1.436 10.05-1.943 4.68-1.014 7.77-1.521 9.3-1.521 2.87 0 6.3 1.042 10.3 3.126 4.06 2.084 6.08 3.858 6.08 5.322 0 .507-.33 1.154-1.01 1.943-3.15 3.604-5.15 8.278-6 14.022-1.24 8.053-3.86 15.712-7.85 22.977-4 7.208-7.61 10.812-10.82 10.812-1.63 0-3.8-1.746-6.5-5.237l-6.17-7.856a191.636 191.636 0 0 0-3.55-4.477c-1.4-1.69-2.11-2.647-2.11-2.872.06-.451.48-.676 1.27-.676 1.63 0 4.39.394 8.28 1.183 1.07.225 2.42.337 4.05.337 4.9 0 8-1.83 9.29-5.49 2.43-6.702 3.64-13.826 3.64-21.372 0-2.309-1.13-3.463-3.38-3.463-1.69 0-5.01.281-9.97.844l-34.13 3.971v40.8c0 22.132-1.85 33.198-5.57 33.198-1.75 0-2.62-4.731-2.62-14.192l-.17-18.837.17-33.705v-5.997c-12.78 2.027-21.09 3.576-24.92 4.646l-10.14 2.956c-1.46.395-2.76.592-3.88.592-2.71 0-6.06-.958-10.05-2.872-4-1.915-6-3.492-6-4.731 0-1.351 1.27-2.027 3.8-2.027 2.65 0 6.73-.197 12.25-.592l10.89-.844c4.34-.282 13.55-1.239 27.63-2.872Zm8.95-1.267 20.78-2.619c.51-3.041.87-5.097 1.1-6.167l2.45-12.417c1.18-6.026 1.77-10.306 1.77-12.84 0-1.351-.84-2.027-2.53-2.027-1.41 0-3.55.169-6.42.507l-17.15 2.027v33.536Zm32.44-63.186c2.25-.113 4.17-.169 5.74-.169 5.97 0 11.1 1.408 15.38 4.224 4.28 2.759 6.42 6.082 6.42 9.967 0 3.661-2.06 5.491-6.17 5.491-3.27 0-7.21-2.759-11.83-8.278l-7.18-8.363-2.36-2.872ZM1530.03 348.625c6.98 0 12.75 1.324 17.32 3.971 4.56 2.59 6.84 5.885 6.84 9.883 0 3.097-1.52 4.646-4.56 4.646-4.79 0-11.32-6.167-19.6-18.5Zm33.96 24.075c.62-.056.93.507.93 1.69 0 1.239-.4 2.562-1.19 3.97-.5.957-1.35 3.125-2.53 6.504-.85 2.309-2.31 5.885-4.39 10.728-2.88 6.533-4.87 11.573-6 15.121l-3.13 9.545-2.95 8.617c-.57 3.604-1.47 5.406-2.71 5.406-1.4 0-3.6-2.619-6.58-7.856-2.93-5.294-4.4-9.208-4.4-11.742 0-1.52 1.1-2.787 3.3-3.801 2.59-1.239 5.63-4.336 9.12-9.292 1.24-1.746 3.55-5.012 6.93-9.799 2.7-3.829 4.61-6.589 5.74-8.278l4.39-6.505c1.92-2.815 3.07-4.251 3.47-4.308Zm-20.53-59.131c16.95 0 25.43 4.674 25.43 14.023 0 4.336-1.47 6.504-4.4 6.504-3.88 0-10.89-6.842-21.03-20.527Zm48.74 101.114c1.86 0 4.62.986 8.28 2.957 3.72 1.914 5.57 3.35 5.57 4.308 0 1.295-3.15 4.308-9.46 9.038l-12.16 9.123c-9.69 7.265-17.09 10.897-22.22 10.897-1.46 0-2.19-.197-2.19-.591 0-.169.62-.563 1.86-1.183.78-.45 1.91-1.21 3.37-2.28l5.83-4.393c12.9-9.63 19.35-18.19 19.35-25.68 0-1.464.59-2.196 1.77-2.196Zm-3.55-80.418 51.02-7.011c5.47-.732 10.2-2.056 14.2-3.97 1.4-.62 2.47-.93 3.21-.93 2.14 0 5.99 2.112 11.57 6.336 5.63 4.224 8.45 7.18 8.45 8.87 0 .619-.57 1.013-1.69 1.182-.74.057-2.65.507-5.75 1.352l-7.68 1.943-6.42 2.28c-2.37.789-3.95 1.436-4.73 1.943-.68.394-1.3.592-1.86.592-.62 0-.96-.31-1.02-.93 0-.225.09-.506.26-.844l2.78-4.984c1.86-3.435 2.79-5.857 2.79-7.265 0-1.014-.56-1.52-1.69-1.52-.73 0-2.25.14-4.56.422l-59.72 7.518-1.61 3.548c-5.52 11.995-9.6 17.993-12.25 17.993-2.19 0-3.29-2.225-3.29-6.674 0-2.759 1.15-5.941 3.46-9.545 2.09-3.266 3.66-6.307 4.73-9.123l2.29-5.998c.67-1.746 1.32-2.618 1.94-2.618 1.69 0 3.55 2.477 5.57 7.433Zm21.12 33.62c.06-.732.09-1.239.09-1.52 0-2.478-.65-5.35-1.95-8.616l-2.95-.169c-8.06-.451-12.08-1.605-12.08-3.464 0-.957 1.55-1.436 4.64-1.436 3.66 0 10.22-1.436 19.68-4.308l8.71-2.703c1.46-.451 3.06-.676 4.81-.676 5.63 0 8.45 1.07 8.45 3.21 0 3.492-8.79 6.336-26.36 8.532 3.04.901 4.56 2.478 4.56 4.73 0 .958-.28 2.732-.84 5.322 9.23-1.295 16.22-2.703 20.95-4.224 2.14-.675 3.63-1.013 4.48-1.013 2.42 0 5.66 1.323 9.71 3.97 4.05 2.591 6.08 4.674 6.08 6.251 0 .788-1.01 2.534-3.04 5.237-1.97 2.647-3.32 4.787-4.05 6.42l-9.89 23.23c-1.46 3.435-2.93 5.153-4.39 5.153-1.52 0-2.48-2.084-2.87-6.251l-38.61 3.97c-1.35 2.309-2.53 3.464-3.54 3.464-2.37 0-4.54-5.378-6.51-16.135-1.01-5.293-1.83-8.869-2.45-10.728l-3.46-9.545c-.73-2.084-1.38-3.548-1.94-4.393-.51-.788-.76-1.267-.76-1.436 0-1.295 1.01-1.943 3.04-1.943 1.4 0 3.4.31 5.99.93 1.52.338 3.36.506 5.5.506 1.91 0 5.77-.45 11.57-1.351 1.69-.225 4.17-.563 7.43-1.014Zm-21.12 7.265 5.58 29.819 15.79-1.943v-13.093c-3.37.563-5.8.844-7.26.844s-3.24-.394-5.32-1.182c-2.03-.789-3.04-1.464-3.04-2.028 0-.338 1.57-.704 4.73-1.098.5-.056 2.45-.366 5.83-.929 1.18-.225 2.9-.507 5.15-.845V371.94l-21.46 3.21Zm28.05 26.947 6.67-1.014c3.89-.563 7.35-.845 10.39-.845.4-1.013.62-1.548.68-1.605l4.22-13.346c1.52-4.9 2.37-8.926 2.54-12.08.16-2.816-1.69-4.224-5.58-4.224-.39 0-.9.029-1.52.085l-17.4 2.112v11.91c2.14-.338 3.6-.619 4.39-.844l4.65-1.267c.62-.169 1.32-.254 2.11-.254 3.77 0 5.66 1.155 5.66 3.463 0 1.634-3.66 2.788-10.98 3.464-1.3.112-3.24.422-5.83.929v13.516Zm-11.07-102.381c6.31 0 11.77 1.323 16.39 3.97 4.62 2.647 6.93 5.772 6.93 9.376 0 5.688-1.52 8.532-4.56 8.532-2.26 0-5.58-2.534-9.97-7.602-4.34-5.069-7.27-9.827-8.79-14.276Zm13.52 116.319c6.14 0 14.64 3.238 25.51 9.714 8.05 4.787 12.08 10.446 12.08 16.979 0 5.181-1.69 7.772-5.07 7.772-1.41 0-2.65-.535-3.72-1.605l-15.88-19.429-10.3-10.644c-.57-.619-1.44-1.548-2.62-2.787ZM1766.6 414.176c-11.15-8.278-20.04-13.149-26.69-14.614l-4.48-1.013c-1.63-.338-2.45-.732-2.45-1.183 0-1.52 2.88-2.281 8.62-2.281 5.57 0 15.26 4.844 29.06 14.53 3.21-4.562 5.57-8.363 7.09-11.404 1.64-3.21 2.57-5.012 2.79-5.406 1.02-1.69 1.52-3.182 1.52-4.477 0-1.465-.59-2.225-1.77-2.281-.34 0-.96.197-1.86.591-.85.394-2.25.76-4.22 1.098-1.97.338-5.33 1.042-10.06 2.112-8.33 1.915-13.68 2.872-16.05 2.872-1.57 0-3.63-.676-6.16-2.027-2.54-1.352-3.8-2.45-3.8-3.295 0-.844 1.01-1.267 3.04-1.267l6.25.085c1.01 0 2.84-.169 5.49-.507 5.18-.676 8.7-1.211 10.56-1.605l9.04-2.196c3.66-.845 5.85-1.38 6.59-1.605l5.06-1.605c1.19-.394 2.31-.592 3.38-.592 1.97 0 4.62 1.099 7.94 3.295 3.38 2.14 5.07 3.829 5.07 5.068 0 .845-.76 1.746-2.28 2.703-3.88 2.422-8.25 7.462-13.09 15.121l-3.97 6.251c-.34.507-1.16 1.718-2.45 3.632 16.27 11.432 33.93 18.387 52.96 20.865l12.5 1.605c4.34.563 6.51 1.267 6.51 2.112 0 1.013-2.37 2.055-7.1 3.125l-8.53 1.859c-10.14 2.252-17.49 3.379-22.05 3.379-4.78 0-14.41-6.308-28.89-18.922-5.63-4.9-9.18-7.856-10.64-8.87-15.32 12.502-33.42 18.753-54.32 18.753-7.99 0-11.99-.648-11.99-1.943 0-.619 3.01-1.351 9.04-2.196 21.85-3.041 38.63-9.63 50.34-19.767Zm13.27-83.712c1.52 1.014 2.67 1.774 3.46 2.281 1.8 1.182 2.7 2.59 2.7 4.223 0 .676-.05 1.408-.17 2.197l-.5 3.125c-.23 1.408-.34 3.463-.34 6.167l.17 6.926.17 5.829c0 9.742-1.16 14.614-3.47 14.614-1.29 0-2.62-1.127-3.97-3.379-1.29-2.309-1.94-4.59-1.94-6.843 0-.844.06-1.83.17-2.956.62-6.983.93-11.714.93-14.191 0-2.478-.14-5.745-.42-9.799l-.34-4.646c-.11-1.464-.17-2.591-.17-3.379-5.86.676-11.83 1.323-17.91 1.943 2.65 2.759 3.97 5.293 3.97 7.602 0 .845-.11 1.971-.34 3.379-.95 6.533-1.43 12.023-1.43 16.472 0 11.151-1.44 16.726-4.31 16.726-2.82 0-4.22-2.929-4.22-8.785 0-1.521.25-3.802.76-6.843 1.01-5.913 1.52-10.812 1.52-14.698 0-1.915-.12-3.998-.34-6.251l-.51-4.392c-.06-.282-.11-1.07-.17-2.366l-4.47.676a124.65 124.65 0 0 0-14.11 2.788c-5.63 1.408-9.24 2.112-10.81 2.112-2.14 0-4-.648-5.58-1.943l-3.12-2.619c-.79-.676-1.19-1.154-1.19-1.436 0-1.126 2.45-1.689 7.35-1.689 2.76 0 6.34-.282 10.73-.845l61.24-7.687c2.59-.338 4.87-.732 6.84-1.183l8.03-1.858c2.59-.563 4.98-.845 7.18-.845 3.72 0 7.29.957 10.73 2.872 3.43 1.915 5.15 3.914 5.15 5.998 0 1.408-1.75 2.112-5.24 2.112l-6.16-.085-13.52-.591-9.29.253c-4.06 0-9.74.338-17.06 1.014Zm-43.85 16.303c2.14 2.928 3.21 6.026 3.21 9.292 0 4.224-1.77 8.87-5.32 13.938-3.49 5.068-6.73 7.603-9.71 7.603-2.42 0-3.63-1.802-3.63-5.407 0-2.646 1.4-5.462 4.22-8.447 4.34-4.561 8.08-10.221 11.23-16.979Zm21.38-43.503c3.26-.451 5.68-.676 7.26-.676 11.6 0 17.4 4.055 17.4 12.164 0 3.491-1.32 5.237-3.97 5.237-2.81 0-6.87-2.534-12.16-7.602-.11-.113-.57-.507-1.35-1.183a73.89 73.89 0 0 1-7.18-7.94Zm43.92 44.01c6.37 0 11.77 1.577 16.22 4.73 4.45 3.098 6.67 6.871 6.67 11.32 0 3.322-1.21 4.984-3.63 4.984-1.8 0-6.42-2.957-13.85-8.87-7.44-5.969-11.04-9.574-10.81-10.813.16-.901 1.97-1.351 5.4-1.351Z"/><path fill="#FF6D7F" d="M51.406 383v-21.818h5.924v8.821h.298l6.562-8.821h6.904l-7.372 9.716L71.264 383H64.19l-4.9-8.182-1.96 2.557V383h-5.924Zm26.09.256c-1.044 0-1.967-.171-2.77-.512a4.163 4.163 0 0 1-1.874-1.576c-.455-.704-.682-1.598-.682-2.685 0-.895.152-1.658.458-2.291a4.129 4.129 0 0 1 1.278-1.566 6.05 6.05 0 0 1 1.907-.926c.732-.213 1.52-.352 2.365-.416.916-.071 1.651-.156 2.206-.256.56-.106.965-.252 1.214-.436a.91.91 0 0 0 .373-.757v-.042c0-.427-.163-.753-.49-.981-.327-.227-.746-.34-1.257-.34-.561 0-1.02.124-1.375.372-.348.242-.557.615-.628 1.119h-5.412c.071-.994.387-1.91.948-2.749.568-.845 1.396-1.519 2.482-2.024 1.087-.511 2.444-.767 4.07-.767 1.172 0 2.223.139 3.153.416.93.27 1.723.65 2.376 1.14.654.483 1.15 1.051 1.492 1.704.348.647.522 1.35.522 2.11V383h-5.498v-2.301h-.127c-.327.611-.725 1.104-1.194 1.481a4.39 4.39 0 0 1-1.587.82c-.59.17-1.24.256-1.95.256Zm1.918-3.708a2.9 2.9 0 0 0 1.257-.277c.398-.184.721-.451.97-.799.248-.348.372-.77.372-1.267v-1.364a6.85 6.85 0 0 1-.5.181 9.539 9.539 0 0 1-1.172.298c-.213.043-.437.082-.671.118-.455.071-.828.188-1.119.351a1.659 1.659 0 0 0-.64.586 1.473 1.473 0 0 0-.201.767c0 .455.16.803.479 1.044.32.242.728.362 1.225.362ZM90.661 383v-16.364h5.881V383h-5.88Zm2.94-18.068c-.795 0-1.477-.263-2.045-.789-.568-.525-.852-1.157-.852-1.896 0-.738.284-1.371.852-1.896.569-.526 1.25-.789 2.046-.789.802 0 1.484.263 2.045.789.568.525.852 1.158.852 1.896 0 .739-.284 1.371-.852 1.896-.56.526-1.243.789-2.045.789Zm-41.204 44.25h3.995l6.946 16.96h.256l6.946-16.96h3.995V431h-3.132v-15.788H71.2l-6.434 15.756h-2.6l-6.434-15.767h-.203V431h-3.132v-21.818Zm31.43 22.18c-1.037 0-1.974-.192-2.812-.575a4.739 4.739 0 0 1-1.993-1.694c-.482-.739-.724-1.644-.724-2.717 0-.923.178-1.683.533-2.279a3.928 3.928 0 0 1 1.438-1.417 7.528 7.528 0 0 1 2.024-.789 20.174 20.174 0 0 1 2.28-.404l2.386-.277c.611-.079 1.055-.203 1.332-.373.277-.171.416-.448.416-.831v-.075c0-.93-.263-1.651-.789-2.163-.518-.511-1.293-.767-2.322-.767-1.073 0-1.918.238-2.536.714-.61.469-1.033.991-1.268 1.566l-2.993-.682c.355-.994.873-1.796 1.555-2.407a6.309 6.309 0 0 1 2.376-1.343 9.278 9.278 0 0 1 2.823-.426c.654 0 1.346.078 2.078.235a6.075 6.075 0 0 1 2.066.831c.647.404 1.176.983 1.588 1.736.412.746.618 1.715.618 2.909V431h-3.111v-2.237h-.128c-.206.412-.515.817-.927 1.214-.412.398-.941.728-1.587.991-.647.263-1.42.394-2.323.394Zm.693-2.557c.88 0 1.633-.174 2.258-.522.632-.348 1.112-.802 1.438-1.363.334-.568.501-1.176.501-1.822v-2.109c-.114.113-.334.22-.66.319-.32.093-.686.174-1.098.245-.412.064-.813.125-1.204.181l-.98.128a7.93 7.93 0 0 0-1.694.394c-.504.185-.909.451-1.214.799-.298.341-.447.796-.447 1.364 0 .788.29 1.385.873 1.79.582.398 1.325.596 2.227.596Zm18.518 2.525c-1.584 0-2.947-.358-4.09-1.076-1.137-.724-2.01-1.722-2.622-2.993-.61-1.272-.916-2.728-.916-4.368 0-1.662.313-3.129.938-4.4.625-1.279 1.505-2.276 2.642-2.994 1.136-.717 2.475-1.076 4.016-1.076 1.243 0 2.351.231 3.324.693.973.454 1.758 1.094 2.354 1.917.604.824.963 1.787 1.076 2.887h-3.1c-.17-.767-.561-1.427-1.172-1.981-.603-.554-1.413-.831-2.429-.831-.887 0-1.665.234-2.333.703-.66.462-1.175 1.122-1.544 1.982-.37.852-.555 1.86-.555 3.025 0 1.193.182 2.223.544 3.09.362.866.873 1.537 1.534 2.013.668.476 1.452.714 2.354.714.604 0 1.151-.11 1.641-.33a3.352 3.352 0 0 0 1.246-.97c.341-.419.579-.923.714-1.513h3.1a6.017 6.017 0 0 1-1.033 2.834c-.575.831-1.346 1.485-2.312 1.96-.959.476-2.084.714-3.377.714Zm10.129-.33v-16.364h3.185V431h-3.185Zm1.608-18.888a2.026 2.026 0 0 1-1.427-.554c-.391-.377-.586-.824-.586-1.343 0-.525.195-.973.586-1.342a2.001 2.001 0 0 1 1.427-.565c.554 0 1.027.188 1.417.565.398.369.597.817.597 1.342 0 .519-.199.966-.597 1.343-.39.369-.863.554-1.417.554Zm9.048 9.172V431h-3.186v-16.364h3.058v2.664h.202a4.674 4.674 0 0 1 1.769-2.088c.809-.526 1.829-.789 3.057-.789 1.115 0 2.092.235 2.93.703.838.462 1.488 1.151 1.95 2.067.461.916.692 2.049.692 3.399V431h-3.185v-10.025c0-1.186-.309-2.113-.927-2.78-.618-.675-1.467-1.012-2.546-1.012-.739 0-1.396.159-1.971.479-.568.32-1.019.788-1.353 1.406-.327.611-.49 1.35-.49 2.216Zm22.383-6.648v2.557h-8.939v-2.557h8.939Zm-6.542-3.92h3.186v15.479c0 .618.092 1.083.277 1.396.184.305.422.515.714.628.298.107.621.16.969.16.256 0 .479-.017.671-.053l.448-.085.575 2.631a5.396 5.396 0 0 1-.788.213 6.241 6.241 0 0 1-1.279.128 5.622 5.622 0 0 1-2.344-.447 4.025 4.025 0 0 1-1.757-1.449c-.448-.654-.672-1.474-.672-2.461v-16.14Zm16.782 20.614c-1.534 0-2.873-.351-4.016-1.054-1.144-.704-2.031-1.687-2.663-2.951-.633-1.265-.949-2.742-.949-4.432 0-1.698.316-3.182.949-4.453.632-1.272 1.519-2.259 2.663-2.962 1.143-.703 2.482-1.055 4.016-1.055 1.534 0 2.873.352 4.017 1.055 1.143.703 2.031 1.69 2.663 2.962.632 1.271.948 2.755.948 4.453 0 1.69-.316 3.167-.948 4.432-.632 1.264-1.52 2.247-2.663 2.951-1.144.703-2.483 1.054-4.017 1.054Zm.011-2.674c.994 0 1.818-.263 2.471-.788.654-.526 1.137-1.225 1.449-2.099.32-.873.48-1.836.48-2.887 0-1.044-.16-2.003-.48-2.876-.312-.881-.795-1.588-1.449-2.12-.653-.533-1.477-.799-2.471-.799-1.002 0-1.833.266-2.493.799-.653.532-1.14 1.239-1.46 2.12-.312.873-.468 1.832-.468 2.876 0 1.051.156 2.014.468 2.887.32.874.807 1.573 1.46 2.099.66.525 1.491.788 2.493.788Zm23.435-10.025-2.887.512a3.42 3.42 0 0 0-.576-1.055c-.255-.334-.603-.607-1.044-.82-.44-.213-.99-.32-1.651-.32-.902 0-1.655.203-2.259.607-.603.398-.905.913-.905 1.545 0 .547.202.987.607 1.321.405.334 1.058.607 1.96.82l2.6.597c1.506.348 2.628.884 3.366 1.609.739.724 1.108 1.665 1.108 2.823 0 .98-.284 1.854-.852 2.621-.561.76-1.346 1.356-2.354 1.789-1.002.434-2.163.65-3.484.65-1.832 0-3.327-.39-4.485-1.172-1.158-.788-1.868-1.907-2.131-3.355l3.079-.469c.192.802.586 1.41 1.183 1.822.596.404 1.374.607 2.333.607 1.044 0 1.878-.217 2.503-.65.625-.44.938-.977.938-1.609 0-.511-.192-.941-.576-1.289-.376-.348-.955-.611-1.736-.788l-2.77-.607c-1.527-.348-2.656-.902-3.388-1.662-.724-.76-1.086-1.723-1.086-2.887 0-.966.269-1.811.809-2.536.54-.724 1.286-1.289 2.237-1.694.952-.412 2.042-.618 3.271-.618 1.769 0 3.161.384 4.176 1.151 1.016.76 1.687 1.779 2.014 3.057Zm7.007 2.653V431h-3.185v-21.818h3.142v8.118h.203a4.693 4.693 0 0 1 1.758-2.099c.788-.518 1.818-.778 3.089-.778 1.122 0 2.102.231 2.94.693.846.461 1.499 1.15 1.961 2.067.468.909.703 2.045.703 3.409V431h-3.186v-10.025c0-1.2-.309-2.131-.926-2.791-.618-.668-1.478-1.001-2.579-1.001-.752 0-1.427.159-2.024.479a3.46 3.46 0 0 0-1.395 1.406c-.334.611-.501 1.35-.501 2.216Zm35.063-2.653-2.887.512a3.437 3.437 0 0 0-.575-1.055c-.256-.334-.604-.607-1.044-.82-.441-.213-.991-.32-1.652-.32-.902 0-1.654.203-2.258.607-.604.398-.906.913-.906 1.545 0 .547.203.987.608 1.321.404.334 1.058.607 1.96.82l2.599.597c1.506.348 2.628.884 3.367 1.609.738.724 1.108 1.665 1.108 2.823 0 .98-.284 1.854-.853 2.621-.561.76-1.346 1.356-2.354 1.789-1.001.434-2.163.65-3.484.65-1.832 0-3.327-.39-4.485-1.172-1.157-.788-1.868-1.907-2.131-3.355l3.079-.469c.192.802.586 1.41 1.183 1.822.596.404 1.374.607 2.333.607 1.044 0 1.879-.217 2.504-.65.625-.44.937-.977.937-1.609 0-.511-.192-.941-.575-1.289-.377-.348-.956-.611-1.737-.788l-2.77-.607c-1.527-.348-2.656-.902-3.387-1.662-.725-.76-1.087-1.723-1.087-2.887 0-.966.27-1.811.81-2.536.539-.724 1.285-1.289 2.237-1.694.951-.412 2.042-.618 3.27-.618 1.769 0 3.161.384 4.177 1.151 1.015.76 1.686 1.779 2.013 3.057Zm5.835 18.505a6.65 6.65 0 0 1-1.299-.117c-.391-.071-.682-.149-.874-.234l.767-2.61c.583.156 1.101.223 1.556.202a1.863 1.863 0 0 0 1.203-.511c.356-.32.668-.842.938-1.566l.394-1.087-5.987-16.577h3.409l4.144 12.699h.171l4.144-12.699h3.419l-6.743 18.548c-.313.852-.71 1.573-1.193 2.163a4.64 4.64 0 0 1-1.726 1.342c-.668.298-1.442.447-2.323.447Zm27.241-18.505-2.887.512a3.416 3.416 0 0 0-.575-1.055c-.256-.334-.604-.607-1.044-.82-.441-.213-.991-.32-1.651-.32-.902 0-1.655.203-2.259.607-.604.398-.906.913-.906 1.545 0 .547.203.987.608 1.321.405.334 1.058.607 1.96.82l2.599.597c1.506.348 2.628.884 3.367 1.609.738.724 1.108 1.665 1.108 2.823 0 .98-.284 1.854-.852 2.621-.562.76-1.346 1.356-2.355 1.789-1.001.434-2.163.65-3.484.65-1.832 0-3.327-.39-4.485-1.172-1.157-.788-1.868-1.907-2.13-3.355l3.079-.469c.191.802.585 1.41 1.182 1.822.597.404 1.374.607 2.333.607 1.044 0 1.879-.217 2.504-.65.625-.44.937-.977.937-1.609 0-.511-.192-.941-.575-1.289-.377-.348-.955-.611-1.737-.788l-2.769-.607c-1.527-.348-2.657-.902-3.388-1.662-.725-.76-1.087-1.723-1.087-2.887 0-.966.27-1.811.81-2.536.54-.724 1.285-1.289 2.237-1.694.952-.412 2.042-.618 3.271-.618 1.768 0 3.16.384 4.176 1.151 1.015.76 1.686 1.779 2.013 3.057Zm11.461-3.995v2.557h-8.939v-2.557h8.939Zm-6.542-3.92h3.186v15.479c0 .618.092 1.083.277 1.396.184.305.422.515.714.628.298.107.621.16.969.16.256 0 .479-.017.671-.053l.448-.085.575 2.631a5.396 5.396 0 0 1-.788.213 6.25 6.25 0 0 1-1.279.128 5.622 5.622 0 0 1-2.344-.447 4.025 4.025 0 0 1-1.757-1.449c-.448-.654-.672-1.474-.672-2.461v-16.14Zm16.942 20.614c-1.612 0-3.001-.344-4.166-1.033-1.157-.696-2.052-1.673-2.684-2.93-.625-1.264-.938-2.745-.938-4.442 0-1.676.313-3.154.938-4.432.632-1.279 1.513-2.276 2.642-2.994 1.136-.717 2.464-1.076 3.984-1.076a8.03 8.03 0 0 1 2.685.458 6.51 6.51 0 0 1 2.333 1.439c.689.653 1.232 1.502 1.63 2.546.398 1.037.597 2.297.597 3.782v1.129h-13.008v-2.386h9.886c0-.838-.17-1.581-.511-2.227a3.88 3.88 0 0 0-1.438-1.545c-.611-.376-1.329-.564-2.152-.564-.895 0-1.677.22-2.344.66a4.428 4.428 0 0 0-1.534 1.705 4.92 4.92 0 0 0-.533 2.269v1.864c0 1.094.192 2.024.575 2.791.391.768.934 1.353 1.63 1.758.696.398 1.51.597 2.44.597.604 0 1.154-.085 1.651-.256.497-.177.927-.44 1.289-.788.362-.348.639-.778.831-1.289l3.015.543a5.45 5.45 0 0 1-1.3 2.333c-.617.661-1.395 1.176-2.333 1.545-.93.362-1.992.543-3.185.543Zm10.555-.33v-16.364h3.057v2.664h.203c.341-.902.898-1.605 1.672-2.11.775-.511 1.701-.767 2.781-.767 1.094 0 2.01.256 2.748.767.746.512 1.297 1.215 1.652 2.11h.17c.391-.874 1.012-1.57 1.865-2.088.852-.526 1.867-.789 3.046-.789 1.485 0 2.696.465 3.633 1.396.945.93 1.417 2.333 1.417 4.208V431h-3.185v-10.675c0-1.108-.302-1.91-.906-2.407-.603-.498-1.324-.746-2.162-.746-1.037 0-1.843.319-2.419.959-.575.632-.863 1.445-.863 2.439V431h-3.174v-10.877c0-.888-.277-1.602-.831-2.141-.554-.54-1.275-.81-2.163-.81-.604 0-1.161.16-1.673.479a3.53 3.53 0 0 0-1.225 1.311c-.305.561-.458 1.211-.458 1.949V431h-3.185Zm42.241-16.364v2.557h-9.248v-2.557h9.248ZM322.983 431v-18.26c0-1.023.224-1.871.671-2.546a4.123 4.123 0 0 1 1.779-1.524 5.69 5.69 0 0 1 2.408-.511c.639 0 1.186.053 1.641.16a7.45 7.45 0 0 1 1.012.277l-.746 2.578a14.961 14.961 0 0 0-.575-.149 3.283 3.283 0 0 0-.853-.096c-.774 0-1.328.192-1.662.575-.326.384-.49.938-.49 1.662V431h-3.185Zm16.246.33c-1.534 0-2.872-.351-4.016-1.054-1.143-.704-2.031-1.687-2.663-2.951-.632-1.265-.948-2.742-.948-4.432 0-1.698.316-3.182.948-4.453.632-1.272 1.52-2.259 2.663-2.962 1.144-.703 2.482-1.055 4.016-1.055 1.534 0 2.873.352 4.017 1.055 1.143.703 2.031 1.69 2.663 2.962.632 1.271.948 2.755.948 4.453 0 1.69-.316 3.167-.948 4.432-.632 1.264-1.52 2.247-2.663 2.951-1.144.703-2.483 1.054-4.017 1.054Zm.011-2.674c.994 0 1.818-.263 2.472-.788.653-.526 1.136-1.225 1.449-2.099.319-.873.479-1.836.479-2.887 0-1.044-.16-2.003-.479-2.876-.313-.881-.796-1.588-1.449-2.12-.654-.533-1.478-.799-2.472-.799-1.001 0-1.832.266-2.493.799-.653.532-1.14 1.239-1.459 2.12-.313.873-.469 1.832-.469 2.876 0 1.051.156 2.014.469 2.887.319.874.806 1.573 1.459 2.099.661.525 1.492.788 2.493.788Zm14.358-7.372V431h-3.185v-16.364h3.057v2.664h.203a4.671 4.671 0 0 1 1.768-2.088c.81-.526 1.829-.789 3.058-.789 1.115 0 2.091.235 2.929.703.839.462 1.488 1.151 1.95 2.067.462.916.692 2.049.692 3.399V431h-3.185v-10.025c0-1.186-.309-2.113-.927-2.78-.618-.675-1.466-1.012-2.546-1.012-.739 0-1.395.159-1.971.479-.568.32-1.019.788-1.353 1.406-.326.611-.49 1.35-.49 2.216Zm22.383-6.648v2.557h-8.938v-2.557h8.938Zm-6.541-3.92h3.185v15.479c0 .618.093 1.083.277 1.396.185.305.423.515.714.628.298.107.621.16.969.16.256 0 .48-.017.672-.053l.447-.085.575 2.631a5.324 5.324 0 0 1-.788.213 6.239 6.239 0 0 1-1.278.128 5.616 5.616 0 0 1-2.344-.447 4.022 4.022 0 0 1-1.758-1.449c-.447-.654-.671-1.474-.671-2.461v-16.14ZM51.406 707v-21.818h5.924v8.821h.298l6.562-8.821h6.904l-7.372 9.716L71.264 707H64.19l-4.9-8.182-1.96 2.557V707h-5.924Zm26.09.256c-1.044 0-1.967-.171-2.77-.512a4.163 4.163 0 0 1-1.874-1.576c-.455-.704-.682-1.598-.682-2.685 0-.895.152-1.658.458-2.291a4.129 4.129 0 0 1 1.278-1.566 6.05 6.05 0 0 1 1.907-.926c.732-.213 1.52-.352 2.365-.416.916-.071 1.651-.156 2.206-.256.56-.106.965-.252 1.214-.436a.91.91 0 0 0 .373-.757v-.042c0-.427-.163-.753-.49-.981-.327-.227-.746-.34-1.257-.34-.561 0-1.02.124-1.375.372-.348.242-.557.615-.628 1.119h-5.412c.071-.994.387-1.91.948-2.749.568-.845 1.396-1.519 2.482-2.024 1.087-.511 2.444-.767 4.07-.767 1.172 0 2.223.139 3.153.416.93.27 1.723.65 2.376 1.14.654.483 1.15 1.051 1.492 1.704.348.647.522 1.35.522 2.11V707h-5.498v-2.301h-.127c-.327.611-.725 1.104-1.194 1.481a4.39 4.39 0 0 1-1.587.82c-.59.17-1.24.256-1.95.256Zm1.918-3.708a2.9 2.9 0 0 0 1.257-.277c.398-.184.721-.451.97-.799.248-.348.372-.77.372-1.267v-1.364a6.85 6.85 0 0 1-.5.181 9.539 9.539 0 0 1-1.172.298c-.213.043-.437.082-.671.118-.455.071-.828.188-1.119.351a1.659 1.659 0 0 0-.64.586 1.473 1.473 0 0 0-.201.767c0 .455.16.803.479 1.044.32.242.728.362 1.225.362ZM90.661 707v-16.364h5.881V707h-5.88Zm2.94-18.068c-.795 0-1.477-.263-2.045-.789-.568-.525-.852-1.157-.852-1.896 0-.738.284-1.371.852-1.896.569-.526 1.25-.789 2.046-.789.802 0 1.484.263 2.045.789.568.525.852 1.158.852 1.896 0 .739-.284 1.371-.852 1.896-.56.526-1.243.789-2.045.789Zm15.696 1.704v4.262H98.516v-4.262h10.781Zm-8.693-3.92h5.88v15.021c0 .227.039.419.118.575a.76.76 0 0 0 .362.341c.163.071.373.107.628.107.178 0 .384-.021.618-.064.242-.043.419-.078.533-.107l.852 4.134a20.86 20.86 0 0 1-1.129.288 9.953 9.953 0 0 1-1.726.223c-1.349.071-2.482-.067-3.398-.415-.917-.355-1.605-.913-2.067-1.673-.462-.76-.686-1.711-.671-2.855v-15.575ZM111.697 707v-16.364h5.88V707h-5.88Zm2.94-18.068c-.796 0-1.477-.263-2.046-.789-.568-.525-.852-1.157-.852-1.896 0-.738.284-1.371.852-1.896.569-.526 1.25-.789 2.046-.789.802 0 1.484.263 2.045.789.569.525.853 1.158.853 1.896 0 .739-.284 1.371-.853 1.896-.561.526-1.243.789-2.045.789ZM138.226 692c-.057-.71-.323-1.264-.799-1.662-.469-.398-1.182-.597-2.141-.597-.611 0-1.112.075-1.502.224-.384.142-.668.338-.853.586-.184.249-.28.533-.287.852-.014.263.032.501.138.714.114.206.292.394.533.565.241.163.55.312.927.447.376.135.824.256 1.342.362l1.79.384c1.207.256 2.241.593 3.1 1.012.859.419 1.563.913 2.109 1.481a5.272 5.272 0 0 1 1.204 1.896 6.68 6.68 0 0 1 .405 2.301c-.007 1.435-.366 2.649-1.076 3.644-.71.994-1.726 1.751-3.047 2.269-1.314.518-2.894.778-4.741.778-1.896 0-3.551-.281-4.964-.842-1.406-.561-2.5-1.424-3.281-2.589-.774-1.172-1.165-2.67-1.172-4.495h5.625c.035.667.202 1.228.501 1.683.298.454.717.799 1.257 1.033.547.235 1.196.352 1.949.352.632 0 1.161-.078 1.588-.235.426-.156.749-.373.969-.65.22-.276.334-.593.341-.948a1.345 1.345 0 0 0-.33-.873c-.206-.256-.547-.483-1.023-.682-.476-.206-1.119-.398-1.928-.575l-2.174-.469c-1.931-.419-3.455-1.119-4.57-2.099-1.108-.987-1.658-2.333-1.651-4.037-.007-1.385.362-2.596 1.108-3.633.753-1.044 1.793-1.858 3.121-2.44 1.335-.582 2.866-.873 4.592-.873 1.761 0 3.285.294 4.57.884 1.286.589 2.276 1.42 2.972 2.493.704 1.065 1.059 2.311 1.066 3.739h-5.668Zm28.589 1.364h-6.009a4.066 4.066 0 0 0-.341-1.353 3.04 3.04 0 0 0-.746-1.044 3.093 3.093 0 0 0-1.139-.682 4.414 4.414 0 0 0-1.524-.245c-.994 0-1.836.241-2.525.724-.682.483-1.2 1.176-1.555 2.078-.348.902-.522 1.985-.522 3.249 0 1.335.177 2.454.533 3.356.362.895.884 1.569 1.566 2.024.681.447 1.502.671 2.46.671.547 0 1.037-.067 1.471-.202a3.451 3.451 0 0 0 1.129-.608c.32-.262.579-.578.778-.948a3.8 3.8 0 0 0 .415-1.268l6.009.043c-.071.923-.331 1.864-.778 2.823-.448.952-1.083 1.833-1.907 2.642-.817.803-1.829 1.449-3.036 1.939-1.208.49-2.61.735-4.208.735-2.003 0-3.8-.429-5.391-1.289-1.584-.859-2.837-2.123-3.761-3.792-.916-1.669-1.374-3.711-1.374-6.126 0-2.429.469-4.475 1.406-6.136.938-1.669 2.202-2.93 3.793-3.782 1.591-.86 3.366-1.289 5.327-1.289 1.377 0 2.645.188 3.803.564 1.158.377 2.173.927 3.047 1.651a8.163 8.163 0 0 1 2.109 2.653c.533 1.051.856 2.255.97 3.612ZM175.479 707v-21.818h9.417c1.619 0 3.036.295 4.251.884 1.214.59 2.159 1.438 2.834 2.546.674 1.108 1.012 2.436 1.012 3.985 0 1.562-.348 2.88-1.044 3.952-.689 1.072-1.659 1.882-2.909 2.429-1.243.547-2.695.82-4.357.82h-5.625v-4.602h4.432c.696 0 1.289-.085 1.779-.256.497-.177.877-.458 1.14-.841.27-.384.405-.885.405-1.502 0-.625-.135-1.133-.405-1.524-.263-.398-.643-.689-1.14-.873-.49-.192-1.083-.288-1.779-.288h-2.088V707h-5.923Zm12.784-10.014L193.717 707h-6.435l-5.326-10.014h6.307Zm14.829 10.312c-1.747 0-3.253-.334-4.517-1.001a7.02 7.02 0 0 1-2.908-2.898c-.675-1.264-1.012-2.777-1.012-4.538 0-1.691.341-3.168 1.022-4.432a7.316 7.316 0 0 1 2.887-2.951c1.243-.703 2.71-1.055 4.4-1.055 1.236 0 2.355.192 3.356.576a7.033 7.033 0 0 1 2.568 1.672c.71.725 1.257 1.605 1.64 2.642.384 1.037.576 2.205.576 3.505v1.364h-14.617v-3.239h9.205a2.259 2.259 0 0 0-.363-1.236 2.308 2.308 0 0 0-.926-.841 2.73 2.73 0 0 0-1.311-.309c-.476 0-.912.103-1.31.309a2.473 2.473 0 0 0-.959.831c-.234.355-.359.77-.373 1.246v3.495c0 .525.11.994.33 1.406.221.412.537.735.949.969.411.235.909.352 1.491.352.405 0 .774-.057 1.108-.171a2.49 2.49 0 0 0 .874-.49 1.99 1.99 0 0 0 .532-.788h5.37c-.185 1.136-.622 2.123-1.311 2.962-.689.831-1.601 1.477-2.738 1.938-1.129.455-2.45.682-3.963.682Zm18.295 6.179c-1.641 0-3.047-.234-4.219-.703-1.165-.462-2.07-1.101-2.717-1.917a5.006 5.006 0 0 1-1.076-2.792h5.668c.057.348.199.629.426.842.227.213.519.366.874.458.362.099.767.149 1.214.149.76 0 1.389-.184 1.886-.554.504-.369.756-1.037.756-2.003v-2.769h-.17a3.59 3.59 0 0 1-.98 1.416 4.6 4.6 0 0 1-1.588.885 6.639 6.639 0 0 1-2.035.298 6.558 6.558 0 0 1-3.217-.81c-.973-.54-1.754-1.395-2.344-2.567-.582-1.172-.873-2.703-.873-4.592 0-1.974.305-3.579.916-4.815.618-1.236 1.413-2.141 2.386-2.717.981-.575 2.01-.863 3.09-.863.81 0 1.52.142 2.131.426.61.277 1.122.65 1.534 1.119.412.462.724.969.937 1.523h.128v-2.855h5.881v16.321c0 1.385-.359 2.561-1.076 3.527-.711.973-1.712 1.715-3.005 2.226-1.292.512-2.801.767-4.527.767Zm.213-10.866c.54 0 1.001-.149 1.385-.448.39-.305.689-.738.895-1.299.213-.569.319-1.25.319-2.046 0-.809-.106-1.502-.319-2.077-.206-.583-.505-1.027-.895-1.332-.384-.312-.845-.469-1.385-.469s-1.002.157-1.385.469c-.377.305-.668.749-.874 1.332-.199.575-.298 1.268-.298 2.077 0 .81.099 1.499.298 2.067.206.561.497.991.874 1.289.383.291.845.437 1.385.437Zm21.996-2.77v-9.205h5.881V707h-5.582v-3.111h-.171c-.355 1.044-.976 1.861-1.864 2.45-.888.583-1.943.874-3.164.874-1.144 0-2.145-.263-3.004-.788a5.404 5.404 0 0 1-1.993-2.174c-.468-.923-.706-1.981-.713-3.174v-10.441h5.88v9.205c.007.81.213 1.445.618 1.907.412.462.987.692 1.726.692.49 0 .913-.103 1.268-.309.362-.213.639-.511.831-.894.199-.391.295-.856.287-1.396Zm14.753-14.659V707h-5.881v-21.818h5.881Zm7.556 22.074c-1.044 0-1.968-.171-2.77-.512a4.158 4.158 0 0 1-1.875-1.576c-.455-.704-.682-1.598-.682-2.685 0-.895.153-1.658.458-2.291a4.132 4.132 0 0 1 1.278-1.566 6.056 6.056 0 0 1 1.907-.926 11.58 11.58 0 0 1 2.365-.416c.917-.071 1.652-.156 2.206-.256.561-.106.966-.252 1.214-.436a.91.91 0 0 0 .373-.757v-.042c0-.427-.163-.753-.49-.981-.327-.227-.746-.34-1.257-.34-.561 0-1.019.124-1.374.372-.348.242-.558.615-.629 1.119h-5.412c.071-.994.387-1.91.948-2.749.568-.845 1.396-1.519 2.483-2.024 1.086-.511 2.443-.767 4.069-.767 1.172 0 2.223.139 3.154.416.93.27 1.722.65 2.375 1.14.654.483 1.151 1.051 1.492 1.704.348.647.522 1.35.522 2.11V707h-5.497v-2.301h-.128c-.327.611-.725 1.104-1.193 1.481-.462.376-.991.65-1.588.82a7.013 7.013 0 0 1-1.949.256Zm1.917-3.708c.448 0 .867-.092 1.257-.277a2.42 2.42 0 0 0 .97-.799c.248-.348.373-.77.373-1.267v-1.364a6.893 6.893 0 0 1-.501.181 9.603 9.603 0 0 1-1.172.298c-.213.043-.437.082-.671.118-.455.071-.827.188-1.119.351a1.658 1.658 0 0 0-.639.586 1.472 1.472 0 0 0-.202.767c0 .455.16.803.479 1.044.32.242.728.362 1.225.362ZM279.07 707v-16.364h5.71v3.111h.17c.299-1.15.771-1.992 1.417-2.525.654-.532 1.417-.799 2.291-.799.255 0 .507.022.756.064.256.036.501.089.735.16v5.018c-.291-.1-.65-.174-1.076-.224a9.62 9.62 0 0 0-1.097-.075 3.09 3.09 0 0 0-1.556.395 2.781 2.781 0 0 0-1.076 1.086c-.262.462-.394 1.005-.394 1.63V707h-5.88ZM52.397 733.182h3.995l6.946 16.96h.256l6.946-16.96h3.995V755h-3.132v-15.788H71.2l-6.434 15.756h-2.6l-6.434-15.767h-.203V755h-3.132v-21.818Zm31.43 22.18c-1.037 0-1.974-.192-2.812-.575a4.739 4.739 0 0 1-1.993-1.694c-.482-.739-.724-1.644-.724-2.717 0-.923.178-1.683.533-2.279a3.928 3.928 0 0 1 1.438-1.417 7.528 7.528 0 0 1 2.024-.789 20.174 20.174 0 0 1 2.28-.404l2.386-.277c.611-.079 1.055-.203 1.332-.373.277-.171.416-.448.416-.831v-.075c0-.93-.263-1.651-.789-2.163-.518-.511-1.293-.767-2.322-.767-1.073 0-1.918.238-2.536.714-.61.469-1.033.991-1.268 1.566l-2.993-.682c.355-.994.873-1.796 1.555-2.407a6.309 6.309 0 0 1 2.376-1.343 9.278 9.278 0 0 1 2.823-.426c.654 0 1.346.078 2.078.235a6.075 6.075 0 0 1 2.066.831c.647.404 1.176.983 1.588 1.736.412.746.618 1.715.618 2.909V755h-3.111v-2.237h-.128c-.206.412-.515.817-.927 1.214-.412.398-.941.728-1.587.991-.647.263-1.42.394-2.323.394Zm.693-2.557c.88 0 1.633-.174 2.258-.522.632-.348 1.112-.802 1.438-1.363.334-.568.501-1.176.501-1.822v-2.109c-.114.113-.334.22-.66.319-.32.093-.686.174-1.098.245-.412.064-.813.125-1.204.181l-.98.128a7.93 7.93 0 0 0-1.694.394c-.504.185-.909.451-1.214.799-.298.341-.447.796-.447 1.364 0 .788.29 1.385.873 1.79.582.398 1.325.596 2.227.596Zm18.518 2.525c-1.584 0-2.947-.358-4.09-1.076-1.137-.724-2.01-1.722-2.622-2.993-.61-1.272-.916-2.728-.916-4.368 0-1.662.313-3.129.938-4.4.625-1.279 1.505-2.276 2.642-2.994 1.136-.717 2.475-1.076 4.016-1.076 1.243 0 2.351.231 3.324.693.973.454 1.758 1.094 2.354 1.917.604.824.963 1.787 1.076 2.887h-3.1c-.17-.767-.561-1.427-1.172-1.981-.603-.554-1.413-.831-2.429-.831-.887 0-1.665.234-2.333.703-.66.462-1.175 1.122-1.544 1.982-.37.852-.555 1.86-.555 3.025 0 1.193.182 2.223.544 3.09.362.866.873 1.537 1.534 2.013.668.476 1.452.714 2.354.714.604 0 1.151-.11 1.641-.33a3.352 3.352 0 0 0 1.246-.97c.341-.419.579-.923.714-1.513h3.1a6.017 6.017 0 0 1-1.033 2.834c-.575.831-1.346 1.485-2.312 1.96-.959.476-2.084.714-3.377.714Zm10.129-.33v-16.364h3.185V755h-3.185Zm1.608-18.888a2.026 2.026 0 0 1-1.427-.554c-.391-.377-.586-.824-.586-1.343 0-.525.195-.973.586-1.342a2.001 2.001 0 0 1 1.427-.565c.554 0 1.027.188 1.417.565.398.369.597.817.597 1.342 0 .519-.199.966-.597 1.343-.39.369-.863.554-1.417.554Zm9.048 9.172V755h-3.186v-16.364h3.058v2.664h.202a4.674 4.674 0 0 1 1.769-2.088c.809-.526 1.829-.789 3.057-.789 1.115 0 2.092.235 2.93.703.838.462 1.488 1.151 1.95 2.067.461.916.692 2.049.692 3.399V755h-3.185v-10.025c0-1.186-.309-2.113-.927-2.78-.618-.675-1.467-1.012-2.546-1.012-.739 0-1.396.159-1.971.479-.568.32-1.019.788-1.353 1.406-.327.611-.49 1.35-.49 2.216Zm22.383-6.648v2.557h-8.939v-2.557h8.939Zm-6.542-3.92h3.186v15.479c0 .618.092 1.083.277 1.396.184.305.422.515.714.628.298.107.621.16.969.16.256 0 .479-.017.671-.053l.448-.085.575 2.631a5.396 5.396 0 0 1-.788.213 6.241 6.241 0 0 1-1.279.128 5.622 5.622 0 0 1-2.344-.447 4.025 4.025 0 0 1-1.757-1.449c-.448-.654-.672-1.474-.672-2.461v-16.14Zm16.782 20.614c-1.534 0-2.873-.351-4.016-1.054-1.144-.704-2.031-1.687-2.663-2.951-.633-1.265-.949-2.742-.949-4.432 0-1.698.316-3.182.949-4.453.632-1.272 1.519-2.259 2.663-2.962 1.143-.703 2.482-1.055 4.016-1.055 1.534 0 2.873.352 4.017 1.055 1.143.703 2.031 1.69 2.663 2.962.632 1.271.948 2.755.948 4.453 0 1.69-.316 3.167-.948 4.432-.632 1.264-1.52 2.247-2.663 2.951-1.144.703-2.483 1.054-4.017 1.054Zm.011-2.674c.994 0 1.818-.263 2.471-.788.654-.526 1.137-1.225 1.449-2.099.32-.873.48-1.836.48-2.887 0-1.044-.16-2.003-.48-2.876-.312-.881-.795-1.588-1.449-2.12-.653-.533-1.477-.799-2.471-.799-1.002 0-1.833.266-2.493.799-.653.532-1.14 1.239-1.46 2.12-.312.873-.468 1.832-.468 2.876 0 1.051.156 2.014.468 2.887.32.874.807 1.573 1.46 2.099.66.525 1.491.788 2.493.788Zm23.435-10.025-2.887.512a3.42 3.42 0 0 0-.576-1.055c-.255-.334-.603-.607-1.044-.82-.44-.213-.99-.32-1.651-.32-.902 0-1.655.203-2.259.607-.603.398-.905.913-.905 1.545 0 .547.202.987.607 1.321.405.334 1.058.607 1.96.82l2.6.597c1.506.348 2.628.884 3.366 1.609.739.724 1.108 1.665 1.108 2.823 0 .98-.284 1.854-.852 2.621-.561.76-1.346 1.356-2.354 1.789-1.002.434-2.163.65-3.484.65-1.832 0-3.327-.39-4.485-1.172-1.158-.788-1.868-1.907-2.131-3.355l3.079-.469c.192.802.586 1.41 1.183 1.822.596.404 1.374.607 2.333.607 1.044 0 1.878-.217 2.503-.65.625-.44.938-.977.938-1.609 0-.511-.192-.941-.576-1.289-.376-.348-.955-.611-1.736-.788l-2.77-.607c-1.527-.348-2.656-.902-3.388-1.662-.724-.76-1.086-1.723-1.086-2.887 0-.966.269-1.811.809-2.536.54-.724 1.286-1.289 2.237-1.694.952-.412 2.042-.618 3.271-.618 1.769 0 3.161.384 4.176 1.151 1.016.76 1.687 1.779 2.014 3.057Zm7.007 2.653V755h-3.185v-21.818h3.142v8.118h.203a4.693 4.693 0 0 1 1.758-2.099c.788-.518 1.818-.778 3.089-.778 1.122 0 2.102.231 2.94.693.846.461 1.499 1.15 1.961 2.067.468.909.703 2.045.703 3.409V755h-3.186v-10.025c0-1.2-.309-2.131-.926-2.791-.618-.668-1.478-1.001-2.579-1.001-.752 0-1.427.159-2.024.479a3.46 3.46 0 0 0-1.395 1.406c-.334.611-.501 1.35-.501 2.216Zm35.063-2.653-2.887.512a3.437 3.437 0 0 0-.575-1.055c-.256-.334-.604-.607-1.044-.82-.441-.213-.991-.32-1.652-.32-.902 0-1.654.203-2.258.607-.604.398-.906.913-.906 1.545 0 .547.203.987.608 1.321.404.334 1.058.607 1.96.82l2.599.597c1.506.348 2.628.884 3.367 1.609.738.724 1.108 1.665 1.108 2.823 0 .98-.284 1.854-.853 2.621-.561.76-1.346 1.356-2.354 1.789-1.001.434-2.163.65-3.484.65-1.832 0-3.327-.39-4.485-1.172-1.157-.788-1.868-1.907-2.131-3.355l3.079-.469c.192.802.586 1.41 1.183 1.822.596.404 1.374.607 2.333.607 1.044 0 1.879-.217 2.504-.65.625-.44.937-.977.937-1.609 0-.511-.192-.941-.575-1.289-.377-.348-.956-.611-1.737-.788l-2.77-.607c-1.527-.348-2.656-.902-3.387-1.662-.725-.76-1.087-1.723-1.087-2.887 0-.966.27-1.811.81-2.536.539-.724 1.285-1.289 2.237-1.694.951-.412 2.042-.618 3.27-.618 1.769 0 3.161.384 4.177 1.151 1.015.76 1.686 1.779 2.013 3.057Zm5.835 18.505a6.65 6.65 0 0 1-1.299-.117c-.391-.071-.682-.149-.874-.234l.767-2.61c.583.156 1.101.223 1.556.202a1.863 1.863 0 0 0 1.203-.511c.356-.32.668-.842.938-1.566l.394-1.087-5.987-16.577h3.409l4.144 12.699h.171l4.144-12.699h3.419l-6.743 18.548c-.313.852-.71 1.573-1.193 2.163a4.64 4.64 0 0 1-1.726 1.342c-.668.298-1.442.447-2.323.447Zm27.241-18.505-2.887.512a3.416 3.416 0 0 0-.575-1.055c-.256-.334-.604-.607-1.044-.82-.441-.213-.991-.32-1.651-.32-.902 0-1.655.203-2.259.607-.604.398-.906.913-.906 1.545 0 .547.203.987.608 1.321.405.334 1.058.607 1.96.82l2.599.597c1.506.348 2.628.884 3.367 1.609.738.724 1.108 1.665 1.108 2.823 0 .98-.284 1.854-.852 2.621-.562.76-1.346 1.356-2.355 1.789-1.001.434-2.163.65-3.484.65-1.832 0-3.327-.39-4.485-1.172-1.157-.788-1.868-1.907-2.13-3.355l3.079-.469c.191.802.585 1.41 1.182 1.822.597.404 1.374.607 2.333.607 1.044 0 1.879-.217 2.504-.65.625-.44.937-.977.937-1.609 0-.511-.192-.941-.575-1.289-.377-.348-.955-.611-1.737-.788l-2.769-.607c-1.527-.348-2.657-.902-3.388-1.662-.725-.76-1.087-1.723-1.087-2.887 0-.966.27-1.811.81-2.536.54-.724 1.285-1.289 2.237-1.694.952-.412 2.042-.618 3.271-.618 1.768 0 3.16.384 4.176 1.151 1.015.76 1.686 1.779 2.013 3.057Zm11.461-3.995v2.557h-8.939v-2.557h8.939Zm-6.542-3.92h3.186v15.479c0 .618.092 1.083.277 1.396.184.305.422.515.714.628.298.107.621.16.969.16.256 0 .479-.017.671-.053l.448-.085.575 2.631a5.396 5.396 0 0 1-.788.213 6.25 6.25 0 0 1-1.279.128 5.622 5.622 0 0 1-2.344-.447 4.025 4.025 0 0 1-1.757-1.449c-.448-.654-.672-1.474-.672-2.461v-16.14Zm16.942 20.614c-1.612 0-3.001-.344-4.166-1.033-1.157-.696-2.052-1.673-2.684-2.93-.625-1.264-.938-2.745-.938-4.442 0-1.676.313-3.154.938-4.432.632-1.279 1.513-2.276 2.642-2.994 1.136-.717 2.464-1.076 3.984-1.076a8.03 8.03 0 0 1 2.685.458 6.51 6.51 0 0 1 2.333 1.439c.689.653 1.232 1.502 1.63 2.546.398 1.037.597 2.297.597 3.782v1.129h-13.008v-2.386h9.886c0-.838-.17-1.581-.511-2.227a3.88 3.88 0 0 0-1.438-1.545c-.611-.376-1.329-.564-2.152-.564-.895 0-1.677.22-2.344.66a4.428 4.428 0 0 0-1.534 1.705 4.92 4.92 0 0 0-.533 2.269v1.864c0 1.094.192 2.024.575 2.791.391.768.934 1.353 1.63 1.758.696.398 1.51.597 2.44.597.604 0 1.154-.085 1.651-.256.497-.177.927-.44 1.289-.788.362-.348.639-.778.831-1.289l3.015.543a5.45 5.45 0 0 1-1.3 2.333c-.617.661-1.395 1.176-2.333 1.545-.93.362-1.992.543-3.185.543Zm10.555-.33v-16.364h3.057v2.664h.203c.341-.902.898-1.605 1.672-2.11.775-.511 1.701-.767 2.781-.767 1.094 0 2.01.256 2.748.767.746.512 1.297 1.215 1.652 2.11h.17c.391-.874 1.012-1.57 1.865-2.088.852-.526 1.867-.789 3.046-.789 1.485 0 2.696.465 3.633 1.396.945.93 1.417 2.333 1.417 4.208V755h-3.185v-10.675c0-1.108-.302-1.91-.906-2.407-.603-.498-1.324-.746-2.162-.746-1.037 0-1.843.319-2.419.959-.575.632-.863 1.445-.863 2.439V755h-3.174v-10.877c0-.888-.277-1.602-.831-2.141-.554-.54-1.275-.81-2.163-.81-.604 0-1.161.16-1.673.479a3.53 3.53 0 0 0-1.225 1.311c-.305.561-.458 1.211-.458 1.949V755h-3.185Zm42.241-16.364v2.557h-9.248v-2.557h9.248ZM322.983 755v-18.26c0-1.023.224-1.871.671-2.546a4.123 4.123 0 0 1 1.779-1.524 5.69 5.69 0 0 1 2.408-.511c.639 0 1.186.053 1.641.16a7.45 7.45 0 0 1 1.012.277l-.746 2.578a14.961 14.961 0 0 0-.575-.149 3.283 3.283 0 0 0-.853-.096c-.774 0-1.328.192-1.662.575-.326.384-.49.938-.49 1.662V755h-3.185Zm16.246.33c-1.534 0-2.872-.351-4.016-1.054-1.143-.704-2.031-1.687-2.663-2.951-.632-1.265-.948-2.742-.948-4.432 0-1.698.316-3.182.948-4.453.632-1.272 1.52-2.259 2.663-2.962 1.144-.703 2.482-1.055 4.016-1.055 1.534 0 2.873.352 4.017 1.055 1.143.703 2.031 1.69 2.663 2.962.632 1.271.948 2.755.948 4.453 0 1.69-.316 3.167-.948 4.432-.632 1.264-1.52 2.247-2.663 2.951-1.144.703-2.483 1.054-4.017 1.054Zm.011-2.674c.994 0 1.818-.263 2.472-.788.653-.526 1.136-1.225 1.449-2.099.319-.873.479-1.836.479-2.887 0-1.044-.16-2.003-.479-2.876-.313-.881-.796-1.588-1.449-2.12-.654-.533-1.478-.799-2.472-.799-1.001 0-1.832.266-2.493.799-.653.532-1.14 1.239-1.459 2.12-.313.873-.469 1.832-.469 2.876 0 1.051.156 2.014.469 2.887.319.874.806 1.573 1.459 2.099.661.525 1.492.788 2.493.788Zm14.358-7.372V755h-3.185v-16.364h3.057v2.664h.203a4.671 4.671 0 0 1 1.768-2.088c.81-.526 1.829-.789 3.058-.789 1.115 0 2.091.235 2.929.703.839.462 1.488 1.151 1.95 2.067.462.916.692 2.049.692 3.399V755h-3.185v-10.025c0-1.186-.309-2.113-.927-2.78-.618-.675-1.466-1.012-2.546-1.012-.739 0-1.395.159-1.971.479-.568.32-1.019.788-1.353 1.406-.326.611-.49 1.35-.49 2.216Zm22.383-6.648v2.557h-8.938v-2.557h8.938Zm-6.541-3.92h3.185v15.479c0 .618.093 1.083.277 1.396.185.305.423.515.714.628.298.107.621.16.969.16.256 0 .48-.017.672-.053l.447-.085.575 2.631a5.324 5.324 0 0 1-.788.213 6.239 6.239 0 0 1-1.278.128 5.616 5.616 0 0 1-2.344-.447 4.022 4.022 0 0 1-1.758-1.449c-.447-.654-.671-1.474-.671-2.461v-16.14Z"/><path fill="#1A73E8" d="M596.865 680.711c-.116 2.768-.173 5.075-.173 6.92 0 6.343.807 10.38 2.422 12.11 1.73 1.73 4.786 2.595 9.169 2.595 4.498 0 8.304-.519 11.418-1.557 3.114-1.038 5.363-2.595 6.747-4.671 1.499-2.191 2.653-5.305 3.46-9.342.923-4.152 1.615-6.228 2.076-6.228.461 0 .865.923 1.211 2.768 1.384 7.497 2.364 11.879 2.941 13.148.692 1.269 1.038 2.364 1.038 3.287 0 2.653-2.364 5.075-7.093 7.266-4.613 2.076-11.303 3.114-20.068 3.114-4.614 0-7.843-.404-9.688-1.211-1.73-.807-3.46-1.845-5.19-3.114-1.615-1.269-2.826-3.056-3.633-5.363-.692-2.307-1.038-6.055-1.038-11.245l.865-28.891c0-5.767-.635-9.457-1.903-11.072-1.154-1.615-1.73-2.941-1.73-3.979 0-1.153.865-1.73 2.595-1.73 1.845 0 4.382.865 7.612 2.595 3.229 1.615 4.844 3.287 4.844 5.017 0 1.615-.462 3.172-1.384 4.671-.923 1.499-1.788 4.267-2.595 8.304-.807 3.921-1.384 8.131-1.73 12.629 10.149-5.882 15.512-10.438 16.089-13.667.346-1.961 1.269-2.941 2.768-2.941 1.499 0 3.344 1.384 5.536 4.152 2.307 2.653 3.46 4.556 3.46 5.709 0 1.153-1.153 1.961-3.46 2.422-2.999.577-11.187 3.345-24.566 8.304Zm-62.799 4.498c3.806-.807 7.266-1.211 10.38-1.211 3.229 0 5.363.461 6.401 1.384 1.153.807 1.73 1.557 1.73 2.249 0 1.499-2.884 2.826-8.65 3.979a112.668 112.668 0 0 0-10.207 1.903c-.116.115-.231.346-.346.692 0 .231-.116 2.134-.346 5.709l-.519 18.511c-.231 8.881-.346 16.723-.346 23.528l.346 15.224c0 8.304-.577 14.705-1.73 19.203-1.154 4.498-2.48 6.747-3.979 6.747-1.384 0-2.768-1.442-4.152-4.325-1.384-2.768-2.076-5.19-2.076-7.266 0-1.961.519-4.902 1.557-8.823 2.191-9.803 3.748-27.449 4.671-52.938-4.729 8.419-9.977 15.916-15.743 22.49-5.652 6.459-10.669 11.187-15.051 14.186-4.383 2.999-7.209 4.498-8.477 4.498-1.154 0-1.73-.288-1.73-.865 0-.692.461-1.442 1.384-2.249 6.343-5.075 13.321-12.802 20.933-23.182 7.727-10.495 13.321-20.299 16.781-29.41-11.418 2.076-18.511 3.114-21.279 3.114-2.768 0-5.133-.404-7.093-1.211-1.846-.807-2.768-1.672-2.768-2.595 0-.923 1.384-1.499 4.152-1.73 4.728-.231 14.589-2.191 29.583-5.882.115-13.494 0-22.548-.346-27.161-.346-4.613-1.096-7.727-2.249-9.342-1.154-1.73-1.73-3.172-1.73-4.325s.692-1.73 2.076-1.73c1.384 0 4.094.923 8.131 2.768 4.152 1.73 6.228 3.46 6.228 5.19 0 .577-.173 1.442-.519 2.595-2.192 6.113-3.864 16.204-5.017 30.275Zm32.005-5.19c9.226-3.229 14.532-4.844 15.916-4.844 1.499 0 2.653.288 3.46.865.922.461 1.384 1.153 1.384 2.076 0 1.615-1.961 3.056-5.882 4.325-3.922 1.269-6.978 1.903-9.169 1.903-2.192 0-4.152-.173-5.882-.519-.346 5.19-.692 12.11-1.038 20.76 3.114-1.961 6.574-3.691 10.38-5.19 3.921-1.499 6.343-2.249 7.266-2.249 1.038 0 1.557.288 1.557.865s-.635 1.269-1.903 2.076c-10.957 7.381-17.819 12.514-20.587 15.397-2.768 2.883-4.671 4.325-5.709 4.325-.923 0-1.788-.75-2.595-2.249-.692-1.615-1.038-2.941-1.038-3.979 0-2.537 1.038-4.786 3.114-6.747 1.384-1.384 2.306-3.748 2.768-7.093.461-3.46.692-8.189.692-14.186 0-6.113-.346-10.726-1.038-13.84-.692-3.114-1.5-5.305-2.422-6.574-.923-1.269-1.384-2.422-1.384-3.46 0-1.153.692-1.73 2.076-1.73 1.499 0 3.863.923 7.093 2.768 3.229 1.73 4.844 3.633 4.844 5.709 0 .692-.231 1.557-.692 2.595-.346.923-.75 3.921-1.211 8.996Zm9.861 51.381c7.842-1.384 13.09-2.422 15.743-3.114 2.768-.807 5.017-1.615 6.747-2.422 1.845-.923 3.518-1.384 5.017-1.384 1.499 0 4.037.98 7.612 2.941 3.691 1.961 5.536 3.864 5.536 5.709 0 .807-.461 2.134-1.384 3.979-.923 1.845-1.384 4.556-1.384 8.131l.346 9.861c0 13.263-1.5 21.74-4.498 25.431-2.884 3.691-4.96 5.536-6.228 5.536-1.153 0-2.134-1.096-2.941-3.287-.692-2.076-1.384-4.556-2.076-7.439-.577-2.883-.98-4.613-1.211-5.19-.231-.577-1.442-.865-3.633-.865-2.192 0-5.94.231-11.245.692-5.19.461-8.477.692-9.861.692-1.269 0-2.365-.058-3.287-.173.115 3.345-.173 5.824-.865 7.439-.577 1.73-1.442 2.595-2.595 2.595-1.038 0-2.134-1.269-3.287-3.806-1.038-2.422-1.442-4.786-1.211-7.093.23-2.307.346-5.478.346-9.515 0-4.037-.404-8.65-1.211-13.84-.808-5.305-1.73-8.592-2.768-9.861-1.038-1.384-1.557-2.48-1.557-3.287 0-.923.98-1.384 2.941-1.384 1.96 0 4.267.461 6.92 1.384.923-.231 2.306-.461 4.152-.692 3.921-5.305 5.882-9.573 5.882-12.802 0-.923-.116-1.73-.346-2.422-.116-.807-.173-1.442-.173-1.903 0-1.615 1.038-2.422 3.114-2.422 2.076 0 4.383.461 6.92 1.384 2.537.923 3.806 1.903 3.806 2.941 0 1.038-.577 2.018-1.73 2.941-2.653 2.076-6.517 5.824-11.591 11.245Zm-6.92 35.984c11.302-2.768 18.28-4.152 20.933-4.152 2.652 0 4.555.346 5.709 1.038 1.153.577 2.306 1.499 3.46 2.768 1.153 1.269 2.018 1.903 2.595 1.903.576 0 .98-.288 1.211-.865.346-.461.634-2.307.865-5.536.346-3.229.519-6.862.519-10.899 0-4.152-.231-8.073-.692-11.764-.462-3.691-1.038-5.824-1.73-6.401-.692-.692-2.134-1.038-4.325-1.038-2.192 0-6.747.577-13.667 1.73l-15.743 2.249c0 2.653.115 6.978.346 12.975 4.152-.461 8.362-1.384 12.629-2.768 4.267-1.384 7.323-2.076 9.169-2.076 1.845 0 3.402.288 4.671.865 1.269.577 1.903 1.326 1.903 2.249s-.461 1.672-1.384 2.249c-.923.461-3.806 1.153-8.65 2.076-4.729.807-8.535 1.211-11.418 1.211-2.768 0-5.017-.173-6.747-.519.23 6.689.346 11.591.346 14.705Zm-34.081-54.149c2.652 0 5.478.98 8.477 2.941 3.114 1.845 4.671 4.556 4.671 8.131 0 1.269-.289 2.307-.865 3.114-.577.807-1.269 1.211-2.076 1.211-1.846 0-4.383-2.018-7.612-6.055-3.114-4.037-4.671-6.574-4.671-7.612 0-1.153.692-1.73 2.076-1.73ZM768.097 714.1c6.574-.461 11.015-1.153 13.321-2.076 2.422-.923 4.614-1.384 6.574-1.384 2.076 0 5.19 1.153 9.342 3.46 4.268 2.307 6.401 4.267 6.401 5.882 0 1.038-1.153 2.768-3.46 5.19-2.191 2.307-4.901 9.688-8.131 22.144-1.73 6.689-4.498 12.052-8.304 16.089-3.806 3.921-6.574 5.882-8.304 5.882-1.614 0-2.71-.692-3.287-2.076-1.73-4.152-4.209-7.843-7.439-11.072-3.229-3.229-4.844-5.19-4.844-5.882 0-.807.346-1.211 1.038-1.211.692 0 1.442.173 2.249.519 4.844 1.845 8.362 2.768 10.553 2.768 2.192 0 3.806-.692 4.844-2.076 1.038-1.384 2.538-5.017 4.498-10.899 1.961-5.882 2.941-10.957 2.941-15.224 0-2.076-.403-3.46-1.211-4.152-.807-.692-2.249-1.038-4.325-1.038-1.96 0-8.823.75-20.587 2.249l-20.241 2.595-.519 30.967c-.23 10.149-.634 17.415-1.211 21.798-.461 4.498-1.038 8.016-1.73 10.553-.692 2.537-1.384 4.44-2.076 5.709-.692 1.269-1.384 1.903-2.076 1.903-.692 0-1.441-1.096-2.249-3.287-.692-2.076-1.038-5.421-1.038-10.034a1882 1882 0 0 1 .865-56.225c-15.685 2.191-26.353 4.325-32.005 6.401-3.46 1.384-6.401 2.076-8.823 2.076-2.422 0-5.074-1.153-7.958-3.46-2.883-2.307-4.325-3.864-4.325-4.671 0-.923.404-1.442 1.211-1.557.808-.231 2.941-.346 6.401-.346s8.65-.404 15.57-1.211c10.496-1.73 20.472-2.999 29.929-3.806.231-15.109.346-24.681.346-28.718a88.979 88.979 0 0 0-12.456 2.941c-3.921 1.269-6.689 1.903-8.304 1.903-1.499 0-3.517-.865-6.055-2.595-2.537-1.73-3.806-3.114-3.806-4.152 0-1.269 1.096-1.903 3.287-1.903 2.307 0 11.476-.807 27.507-2.422 0-12.917-.23-21.51-.692-25.777-.461-4.383-1.499-7.67-3.114-9.861-1.499-2.191-2.249-3.864-2.249-5.017 0-1.153.808-1.73 2.422-1.73 1.615 0 4.325.75 8.131 2.249 3.922 1.384 6.517 2.595 7.785 3.633 1.384.923 2.076 2.018 2.076 3.287 0 1.153-.288 2.71-.865 4.671-1.96 5.767-3.056 14.878-3.287 27.334 9.573-1.499 15.974-2.826 19.203-3.979 3.23-1.153 5.709-1.73 7.439-1.73 1.73 0 4.556 1.038 8.477 3.114 4.037 2.076 6.055 4.267 6.055 6.574 0 1.499-.519 2.71-1.557 3.633-1.038.807-2.595 3.287-4.671 7.439-1.96 4.037-3.229 6.92-3.806 8.65a22.232 22.232 0 0 1-1.903 4.844c-.807 1.499-1.326 2.537-1.557 3.114Zm-7.439.865c3.806-13.955 5.709-22.663 5.709-26.123 0-2.307-.865-3.46-2.595-3.46-1.614 0-9.457.98-23.528 2.941l-.519 29.064c11.534-1.269 18.511-2.076 20.933-2.422Zm14.705-56.744c4.152 0 9.112.98 14.878 2.941 5.767 1.845 8.65 5.421 8.65 10.726 0 3.921-1.384 5.882-4.152 5.882-2.537 0-6.862-2.71-12.975-8.131-5.997-5.421-8.996-8.65-8.996-9.688 0-1.153.865-1.73 2.595-1.73ZM893.139 654.242c6.92-.807 14.07-1.961 21.452-3.46 7.496-1.615 12.513-2.826 15.051-3.633 2.537-.923 4.613-1.384 6.228-1.384 1.73 0 4.844 1.211 9.342 3.633 4.498 2.422 6.747 4.498 6.747 6.228 0 1.038-.75 2.364-2.249 3.979-2.422 2.653-4.037 5.94-4.844 9.861a168.072 168.072 0 0 1-4.498 14.186c-1.73 4.613-3.114 7.785-4.152 9.515-1.038 1.615-2.249 2.422-3.633 2.422s-2.192-.807-2.422-2.422c-.231-1.615-.808-2.422-1.73-2.422-.923 0-2.711.346-5.363 1.038-7.958 1.499-14.129 2.422-18.511 2.768-.692 2.307-1.557 3.46-2.595 3.46-1.038 0-1.846-.577-2.422-1.73-.462-1.153-1.557-5.017-3.287-11.591-1.73-6.574-3.403-11.822-5.017-15.743-1.5-3.921-3.172-6.92-5.017-8.996-1.73-2.191-2.595-3.748-2.595-4.671 0-1.038.98-1.557 2.941-1.557 2.076 0 4.267.173 6.574.519Zm11.591 36.849c10.034-3.114 15.916-4.671 17.646-4.671 1.845 0 3.229.173 4.152.519 1.038.231 1.787.346 2.249.346.461 0 .922-.634 1.384-1.903.461-1.269 1.211-4.844 2.249-10.726 1.153-5.997 1.73-10.611 1.73-13.84 0-3.345-.519-5.363-1.557-6.055-.923-.692-1.903-1.038-2.941-1.038-1.038 0-5.709.692-14.013 2.076-8.189 1.384-13.84 2.191-16.954 2.422.115 1.615.922 6.286 2.422 14.013 11.302-3.345 17.934-5.017 19.895-5.017 3.575 0 5.363.923 5.363 2.768 0 .807-.346 1.499-1.038 2.076-.692.461-3.057 1.153-7.093 2.076-3.922.807-6.92 1.211-8.996 1.211-1.961 0-4.498-.231-7.612-.692 1.038 4.729 2.076 10.207 3.114 16.435Zm16.608 65.221c19.491 8.996 43.653 14.244 72.487 15.743 3.229.115 4.844.577 4.844 1.384 0 .923-1.096 1.845-3.287 2.768-2.192.923-7.843 2.422-16.954 4.498-8.996 2.076-14.878 3.114-17.646 3.114-2.653 0-4.844-.288-6.574-.865-1.615-.577-7.266-3.46-16.954-8.65-9.688-5.075-18.454-10.149-26.296-15.224a1071.962 1071.962 0 0 1-24.22-16.781c-3.691 6.574-8.42 12.341-14.186 17.3-5.652 4.844-11.822 8.65-18.511 11.418-6.574 2.768-10.553 4.152-11.937 4.152-1.269 0-1.903-.173-1.903-.519 0-.923 1.384-2.191 4.152-3.806 6.458-3.806 11.648-7.266 15.57-10.38 3.921-3.229 7.785-7.439 11.591-12.629 3.806-5.19 6.458-9.4 7.958-12.629 1.499-3.229 2.249-6.17 2.249-8.823 0-2.653.692-3.979 2.076-3.979 1.499 0 3.517.98 6.055 2.941 2.537 1.845 3.806 3.287 3.806 4.325 0 .923-.462 2.018-1.384 3.287-.808 1.153-1.961 2.941-3.46 5.363 4.267 2.999 12.513 7.785 24.739 14.359.23-8.304.346-14.936.346-19.895 0-11.533-.808-18.165-2.422-19.895-6.228 1.038-14.994 2.71-26.296 5.017-11.188 2.307-18.165 3.46-20.933 3.46-2.768 0-5.248-.634-7.439-1.903-2.192-1.384-3.287-2.364-3.287-2.941 0-1.038 3.806-1.73 11.418-2.076 2.768-.231 9.976-1.153 21.625-2.768 11.764-1.73 23.874-3.979 36.33-6.747 12.571-2.768 19.376-4.267 20.414-4.498 4.498-1.269 8.419-1.903 11.764-1.903 3.344 0 6.17.519 8.477 1.557 2.306.923 3.46 2.018 3.46 3.287 0 1.153-.865 2.134-2.595 2.941-1.73.692-3.922 1.153-6.574 1.384-2.538.115-8.074.634-16.608 1.557-8.42.807-15.397 1.557-20.933 2.249 2.422 1.615 3.633 3.172 3.633 4.671s-.289 3.172-.865 5.017c-.462 1.73-.692 5.19-.692 10.38 3.229 0 8.765-1.442 16.608-4.325 3.575-1.038 6.055-1.557 7.439-1.557 1.384 0 2.768.461 4.152 1.384 1.499.807 2.249 1.73 2.249 2.768 0 .923-.519 1.788-1.557 2.595-.923.807-3.922 1.672-8.996 2.595-4.96.923-8.65 1.384-11.072 1.384-2.307 0-5.306-.461-8.996-1.384l-.865 21.279ZM1110.91 704.585c8.42 14.417 15.28 25.258 20.59 32.524 5.3 7.266 10.43 12.86 15.39 16.781 4.96 3.921 11.25 7.727 18.86 11.418 2.88 1.384 4.32 2.537 4.32 3.46s-1.5 1.384-4.49 1.384c-16.73 0-27.11-1.672-31.14-5.017-4.04-3.46-12.34-21.164-24.92-53.111-3.23 14.532-7.43 26.181-12.62 34.946-5.19 8.765-12 15.974-20.42 21.625-8.42 5.651-13.95 8.477-16.61 8.477-.69 0-1.03-.346-1.03-1.038 0-.577 1.21-1.788 3.63-3.633 11.07-7.958 19.78-17.588 26.12-28.891 6.46-11.418 10.61-24.335 12.46-38.752 1.96-14.532 2.94-25.085 2.94-31.659 0-6.574-1.16-11.764-3.46-15.57-.81-1.269-1.21-2.422-1.21-3.46 0-1.845.98-2.768 2.94-2.768 2.07 0 5.42 1.153 10.03 3.46 4.62 2.191 6.92 4.325 6.92 6.401 0 .923-.34 2.018-1.04 3.287-1.38 2.537-2.65 8.362-3.8 17.473-1.16 8.996-2.31 16.55-3.46 22.663Zm-56.05 10.726c18.1 8.189 27.16 16.896 27.16 26.123 0 1.73-.35 3.114-1.04 4.152-.69.923-1.67 1.384-2.94 1.384s-2.65-.692-4.15-2.076c-1.5-1.384-8.19-10.092-20.07-26.123-3.35 10.265-7.9 19.203-13.67 26.815-5.65 7.497-10.96 12.802-15.91 15.916-4.96 3.114-8.14 4.671-9.52 4.671-.46 0-.69-.231-.69-.692 0-.461.75-1.326 2.25-2.595 12.8-11.764 21.91-25.662 27.33-41.693 5.54-16.031 8.31-29.41 8.31-40.136 0-5.651-.7-9.284-2.08-10.899-1.27-1.73-1.9-3.287-1.9-4.671 0-1.384.92-2.076 2.76-2.076 1.96 0 5.08 1.269 9.35 3.806 4.26 2.422 6.4 4.613 6.4 6.574 0 .923-.52 2.191-1.56 3.806-.92 1.615-1.85 5.075-2.77 10.38-1.27 5.997-3.69 15.109-7.26 27.334ZM1274.53 733.995c8.65 7.266 15.8 12.629 21.45 16.089 5.77 3.46 11.42 5.997 16.95 7.612 5.66 1.615 13.5 3.229 23.53 4.844 4.04.577 6.06 1.384 6.06 2.422 0 .461-.81.923-2.42 1.384-1.5.577-5.83 1.384-12.98 2.422-7.03 1.153-12.4 1.73-16.09 1.73-3.57 0-6.57-.519-8.99-1.557-2.43-1.038-4.85-2.71-7.27-5.017-2.42-2.307-7.55-7.554-15.4-15.743-7.72-8.304-13.89-15.051-18.51-20.241l.69 33.735c0 8.65-1.26 15.109-3.8 19.376-2.42 4.383-4.67 6.574-6.75 6.574-1.5 0-3-1.326-4.5-3.979-3.69-6.228-6.63-10.265-8.82-12.11-2.08-1.845-3.11-3.114-3.11-3.806 0-.577.4-.865 1.21-.865.8 0 2.42.231 4.84.692 2.42.577 4.61.865 6.57.865 1.97 0 3.23-.807 3.81-2.422.58-1.615 1.04-6.747 1.38-15.397.47-8.65.7-21.279.7-37.887-6.69.692-12.4 1.615-17.13 2.768-4.61 1.038-7.9 1.557-9.86 1.557-1.85 0-3.63-.519-5.36-1.557-1.62-1.038-2.43-1.961-2.43-2.768 0-.923 1.68-1.499 5.02-1.73 3.46-.231 13.38-1.557 29.76-3.979 0-7.497-.06-13.09-.18-16.781-9.68 1.269-22.37 3.229-38.06 5.882-4.15 1.038-7.38 1.557-9.68 1.557-2.2 0-4.62-.807-7.27-2.422-2.65-1.73-3.98-3.056-3.98-3.979s1.44-1.384 4.33-1.384c6.69 0 24.91-1.73 54.66-5.19l-.17-14.705c-5.77.692-10.67 1.442-14.7 2.249-3.93.807-6.75 1.211-8.48 1.211-1.62 0-3.4-.865-5.36-2.595-1.96-1.73-2.95-2.941-2.95-3.633 0-.807 1.33-1.211 3.98-1.211 5.89 0 15-.75 27.34-2.249-.12-11.303-.98-17.819-2.6-19.549-1.84-2.307-2.77-4.21-2.77-5.709 0-1.615 1.1-2.422 3.29-2.422s5.25.865 9.17 2.595c3.92 1.73 5.88 3.633 5.88 5.709 0 1.038-.57 2.595-1.73 4.671-1.04 2.076-1.73 6.516-2.07 13.321 9.22-1.153 15.39-2.307 18.51-3.46 3.23-1.269 5.76-1.903 7.61-1.903 1.85 0 4.9 1.038 9.17 3.114 4.27 1.961 6.4 3.518 6.4 4.671 0 1.153-1.44 2.883-4.33 5.19-1.15.807-2.88 3.979-5.19 9.515 4.5-.577 9.17-1.326 14.02-2.249 4.96-1.038 9.05-1.557 12.28-1.557 3.23 0 6.06.923 8.48 2.768 2.42 1.73 3.63 3.172 3.63 4.325 0 2.076-2.77 3.114-8.3 3.114l-12.29-.519c-5.53 0-12.22.288-20.06.865-2.43 7.727-3.64 12.052-3.64 12.975 0 1.845.87 3.402 2.6 4.671 1.84 1.269 2.77 2.422 2.77 3.46 0 .923-1.62 1.499-4.85 1.73-5.53.231-14.82 1.153-27.85 2.768.11 2.076.17 5.651.17 10.726l10.21 8.65c6.8-3.921 12.34-7.612 16.61-11.072 4.38-3.46 6.86-6.113 7.44-7.958.69-1.845 1.78-2.768 3.28-2.768 1.62 0 4.21 1.038 7.79 3.114 3.69 1.961 5.53 3.691 5.53 5.19 0 1.384-1.44 2.364-4.32 2.941-.58.115-3.23 1.153-7.96 3.114l-24.91 10.207Zm9.69-53.111c.92-5.997 1.38-9.746 1.38-11.245 0-1.499-.4-2.48-1.21-2.941-.69-.577-2.19-.865-4.5-.865-2.3 0-8.48.807-18.51 2.422-.23 6.113-.35 11.303-.35 15.57l23.19-2.941Zm-1.04 5.882-22.32 2.422v16.608c2.19-.461 5.48-.98 9.86-1.557 4.5-.692 7.27-1.326 8.31-1.903 1.15-.577 2.53-5.767 4.15-15.57Zm-65.57 36.676c4.62 0 8.77.98 12.46 2.941 3.8 1.961 5.71 4.556 5.71 7.785 0 1.384-.41 2.537-1.21 3.46-.81.923-2.02 1.384-3.64 1.384-1.5 0-4.55-2.191-9.17-6.574-4.61-4.383-6.92-6.978-6.92-7.785 0-.807.93-1.211 2.77-1.211Zm30.1 15.57c.81 0 1.21.404 1.21 1.211 0 .692-2.01 2.364-6.05 5.017-14.19 8.996-24.57 15.974-31.14 20.933-1.96 1.615-3.81 2.422-5.54 2.422-1.61 0-4.03-1.326-7.26-3.979-3.23-2.768-4.85-4.786-4.85-6.055 0-1.73 2.2-2.653 6.58-2.768 2.65 0 7.78-1.499 15.39-4.498l22.49-8.996c4.85-2.191 7.91-3.287 9.17-3.287ZM1460.64 714.1c6.57-.461 11.01-1.153 13.32-2.076 2.42-.923 4.61-1.384 6.57-1.384 2.08 0 5.19 1.153 9.35 3.46 4.26 2.307 6.4 4.267 6.4 5.882 0 1.038-1.16 2.768-3.46 5.19-2.19 2.307-4.9 9.688-8.13 22.144-1.73 6.689-4.5 12.052-8.31 16.089-3.8 3.921-6.57 5.882-8.3 5.882-1.62 0-2.71-.692-3.29-2.076-1.73-4.152-4.21-7.843-7.44-11.072-3.23-3.229-4.84-5.19-4.84-5.882 0-.807.34-1.211 1.04-1.211.69 0 1.44.173 2.25.519 4.84 1.845 8.36 2.768 10.55 2.768 2.19 0 3.8-.692 4.84-2.076 1.04-1.384 2.54-5.017 4.5-10.899 1.96-5.882 2.94-10.957 2.94-15.224 0-2.076-.4-3.46-1.21-4.152-.81-.692-2.25-1.038-4.32-1.038-1.97 0-8.83.75-20.59 2.249l-20.24 2.595-.52 30.967c-.23 10.149-.64 17.415-1.21 21.798-.46 4.498-1.04 8.016-1.73 10.553-.69 2.537-1.39 4.44-2.08 5.709-.69 1.269-1.38 1.903-2.07 1.903-.7 0-1.45-1.096-2.25-3.287-.7-2.076-1.04-5.421-1.04-10.034 0-18.223.29-36.964.86-56.225-15.68 2.191-26.35 4.325-32 6.401-3.46 1.384-6.4 2.076-8.82 2.076-2.43 0-5.08-1.153-7.96-3.46-2.89-2.307-4.33-3.864-4.33-4.671 0-.923.41-1.442 1.21-1.557.81-.231 2.94-.346 6.4-.346 3.46 0 8.65-.404 15.57-1.211 10.5-1.73 20.48-2.999 29.93-3.806.23-15.109.35-24.681.35-28.718a89.034 89.034 0 0 0-12.46 2.941c-3.92 1.269-6.69 1.903-8.3 1.903-1.5 0-3.52-.865-6.06-2.595-2.53-1.73-3.8-3.114-3.8-4.152 0-1.269 1.09-1.903 3.29-1.903 2.3 0 11.47-.807 27.5-2.422 0-12.917-.23-21.51-.69-25.777-.46-4.383-1.5-7.67-3.11-9.861-1.5-2.191-2.25-3.864-2.25-5.017 0-1.153.8-1.73 2.42-1.73 1.61 0 4.32.75 8.13 2.249 3.92 1.384 6.52 2.595 7.79 3.633 1.38.923 2.07 2.018 2.07 3.287 0 1.153-.29 2.71-.86 4.671-1.96 5.767-3.06 14.878-3.29 27.334 9.57-1.499 15.97-2.826 19.2-3.979 3.23-1.153 5.71-1.73 7.44-1.73 1.73 0 4.56 1.038 8.48 3.114 4.03 2.076 6.05 4.267 6.05 6.574 0 1.499-.52 2.71-1.55 3.633-1.04.807-2.6 3.287-4.67 7.439-1.97 4.037-3.23 6.92-3.81 8.65-.46 1.73-1.1 3.345-1.9 4.844-.81 1.499-1.33 2.537-1.56 3.114Zm-7.44.865c3.81-13.955 5.71-22.663 5.71-26.123 0-2.307-.87-3.46-2.6-3.46-1.61 0-9.45.98-23.52 2.941l-.52 29.064c11.53-1.269 18.51-2.076 20.93-2.422Zm14.71-56.744c4.15 0 9.11.98 14.87 2.941 5.77 1.845 8.65 5.421 8.65 10.726 0 3.921-1.38 5.882-4.15 5.882-2.54 0-6.86-2.71-12.97-8.131-6-5.421-9-8.65-9-9.688 0-1.153.87-1.73 2.6-1.73ZM1611.63 639.883c1.5 0 4.38.634 8.65 1.903 4.27 1.269 7.04 2.941 8.3 5.017 1.39 1.961 2.08 4.152 2.08 6.574 0 2.307-.46 4.037-1.38 5.19-.93 1.038-1.96 1.557-3.12 1.557-1.04 0-1.96-.231-2.77-.692-.69-.461-2.65-2.537-5.88-6.228s-5.42-6.343-6.57-7.958c-1.04-1.73-1.56-3.056-1.56-3.979s.75-1.384 2.25-1.384Zm-57.26 14.359c4.38 0 8.42 1.269 12.11 3.806 3.8 2.422 5.71 5.421 5.71 8.996 0 2.076-.41 3.748-1.21 5.017-.81 1.269-2.02 1.903-3.64 1.903-1.5 0-4.55-2.768-9.17-8.304-4.61-5.536-6.92-8.823-6.92-9.861 0-1.038 1.04-1.557 3.12-1.557Zm35.98 20.068c3.58 0 12.34-1.384 26.3-4.152l26.12-5.19c3.46-.692 6.17-1.442 8.13-2.249 1.96-.923 3.69-1.384 5.19-1.384 3.81 0 8.31 1.615 13.5 4.844 5.19 3.229 7.78 5.767 7.78 7.612 0 1.845-1.61 2.826-4.84 2.941-5.08.231-10.27 1.788-15.57 4.671-1.96 1.038-3.29 1.557-3.98 1.557s-1.04-.288-1.04-.865c0-.692.58-2.364 1.73-5.017 1.27-2.653 1.9-4.556 1.9-5.709 0-1.269-1.15-1.903-3.46-1.903-2.19 0-9.63 1.096-22.31 3.287-12.69 2.076-21.46 3.633-26.3 4.671-4.84.923-8.02 1.384-9.52 1.384-1.49 0-2.76-.173-3.8-.519-1.5 5.767-3.4 10.841-5.71 15.224-2.19 4.383-4.09 6.574-5.71 6.574-2.08 0-3.11-2.364-3.11-7.093 0-2.883.75-5.594 2.25-8.131 2.42-3.691 4.55-8.073 6.4-13.148.69-2.191 1.55-3.287 2.59-3.287 1.04 0 2.19 1.961 3.46 5.882Zm32.18 31.313c7.04-1.73 11.88-2.999 14.53-3.806 2.65-.923 4.79-1.384 6.4-1.384 1.73 0 4.9 1.211 9.52 3.633 4.61 2.307 6.92 4.498 6.92 6.574 0 .692-.29 1.384-.87 2.076-2.65 3.345-4.67 7.497-6.05 12.456-2.19 6.92-4.38 12.456-6.58 16.608-2.07 4.152-3.69 6.228-4.84 6.228-1.04 0-1.79-.692-2.25-2.076-.35-1.384-.75-2.249-1.21-2.595-.46-.346-1.56-.519-3.29-.519s-5.99.519-12.8 1.557c-6.8 1.038-14.36 2.422-22.66 4.152-.23 1.269-.92 1.903-2.08 1.903-1.15 0-2.25-.98-3.29-2.941a23.195 23.195 0 0 1-1.9-6.228c-1.84-11.418-4.55-20.299-8.13-26.642-1.04-1.961-1.56-3.345-1.56-4.152 0-.923.58-1.384 1.73-1.384 1.27 0 3.35.519 6.23 1.557 7.61-.807 15.51-1.961 23.7-3.46-.11-3.575-1.09-7.093-2.94-10.553-1.15.115-2.54.173-4.15.173-1.61 0-3.4-.231-5.36-.692-1.85-.577-2.77-1.211-2.77-1.903s.86-1.211 2.59-1.557c6.46-1.384 14.36-3.633 23.7-6.747 3.81-1.269 6.98-1.903 9.52-1.903 3.81 0 5.71 1.038 5.71 3.114 0 1.038-.69 1.961-2.08 2.768-1.27.692-8.42 2.595-21.45 5.709 2.19 1.038 3.69 2.191 4.5 3.46.92 1.269 1.33 3.46 1.21 6.574Zm-2.6 34.427c9.23-1.845 14.59-2.537 16.09-2.076.35.115.87.173 1.56.173.69 0 1.33-.461 1.9-1.384.58-1.038 1.56-4.729 2.94-11.072 1.39-6.459 2.08-10.841 2.08-13.148 0-2.307-.4-3.806-1.21-4.498-.69-.692-2.48-1.038-5.36-1.038-2.77 0-8.02.807-15.75 2.422l-.86 11.764c3.46-.923 6.28-1.384 8.48-1.384 4.26 0 6.4.98 6.4 2.941 0 .923-1.1 1.788-3.29 2.595-2.08.692-6.11 1.499-12.11 2.422l-.87 12.283Zm-5.88 1.038v-12.283c-3 .346-5.48.519-7.44.519-3.34 0-5.01-.634-5.01-1.903 0-.807.86-1.384 2.59-1.73 1.85-.346 5.13-1.096 9.86-2.249v-12.456c-6.46 1.384-13.26 2.537-20.41 3.46 1.04 3.806 2.77 13.725 5.19 29.756 4.84-1.038 9.92-2.076 15.22-3.114Zm-73.35-51.381c3.58 0 7.44.98 11.59 2.941 4.15 1.961 6.23 5.421 6.23 10.38 0 3.229-1.21 4.844-3.63 4.844-2.08 0-5.42-2.364-10.04-7.093-4.61-4.844-6.92-7.9-6.92-9.169 0-1.269.93-1.903 2.77-1.903Zm28.37 26.123c0 1.384-.98 4.44-2.94 9.169-1.84 4.729-4.27 11.822-7.26 21.279-3 9.342-4.91 16.031-5.71 20.068-.81 4.152-2.02 6.228-3.64 6.228-1.5 0-3.46-2.71-5.88-8.131-2.3-5.421-3.46-8.823-3.46-10.207 0-1.384.41-2.249 1.21-2.595 2.77-1.038 5.48-3.575 8.13-7.612 2.66-4.037 7.56-12.052 14.71-24.047 2.07-3.46 3.52-5.19 4.32-5.19.35 0 .52.346.52 1.038Zm41.87 44.807c0 .692-.52 1.442-1.56 2.249l-9.34 8.823c-5.65 5.421-11.3 9.573-16.95 12.456-5.54 2.999-8.94 4.498-10.21 4.498-1.15 0-1.73-.346-1.73-1.038 0-.577.81-1.442 2.42-2.595 1.62-1.153 4.5-3.633 8.65-7.439 4.27-3.806 7.67-7.439 10.21-10.899 2.65-3.345 3.98-6.228 3.98-8.65 0-2.422.8-3.633 2.42-3.633 1.61 0 4.04.75 7.26 2.249 3.23 1.499 4.85 2.826 4.85 3.979Zm50.34 18.338c0 1.845-.34 3.46-1.04 4.844-.69 1.499-1.67 2.249-2.94 2.249-2.53 0-5.65-2.422-9.34-7.266-3.69-5.19-9.05-11.072-16.09-17.646-3.34-3.229-5.02-5.132-5.02-5.709 0-.692.41-1.038 1.22-1.038 1.73 0 5.7 1.211 11.93 3.633 6.35 2.307 11.48 5.305 15.4 8.996 3.92 3.691 5.88 7.67 5.88 11.937ZM1792.21 651.474c0 4.267-1.5 6.401-4.5 6.401-2.89 0-6.92-2.48-12.11-7.439-5.19-4.959-7.79-7.958-7.79-8.996 0-1.153.87-1.73 2.6-1.73 4.15 0 8.82.807 14.01 2.422 5.19 1.615 7.79 4.729 7.79 9.342Zm-30.8 20.933c-9.92 1.384-16.84 2.595-20.76 3.633-3.8.923-6.69 1.384-8.65 1.384-1.84 0-3.86-.75-6.05-2.249-2.2-1.499-3.29-2.653-3.29-3.46 0-.807.35-1.269 1.04-1.384.8-.231 2.59-.346 5.36-.346 2.77 0 16.67-1.499 41.69-4.498 25.03-3.114 39.91-5.19 44.64-6.228 4.84-1.153 9.11-1.73 12.8-1.73 3.81 0 7.27.923 10.38 2.768 3.23 1.73 4.84 3.345 4.84 4.844 0 2.422-3.23 3.633-9.68 3.633-1.73 0-3.75-.115-6.06-.346-2.19-.231-6.05-.346-11.59-.346s-13.73.288-24.57.865c3.46 3.114 5.19 5.363 5.19 6.747 0 1.384-.34 3.172-1.03 5.363-.58 2.076-.87 4.671-.87 7.785 0 2.999.06 5.594.17 7.785.23 2.191.35 4.21.35 6.055 0 6.343-1.21 9.515-3.63 9.515-1.39.115-2.77-1.096-4.16-3.633-1.26-2.653-1.9-4.729-1.9-6.228 0-1.615.17-3.056.52-4.325.81-3.806 1.21-8.189 1.21-13.148s-.58-10.149-1.73-15.57l-17.64 2.076c2.3 3.114 3.46 5.421 3.46 6.92 0 1.499-.35 3.46-1.04 5.882-.69 2.307-1.04 6.805-1.04 13.494 0 6.574-.58 10.841-1.73 12.802-1.04 1.961-2.19 2.941-3.46 2.941-1.15 0-2.08-1.557-2.77-4.671-.69-3.229-1.04-5.421-1.04-6.574 0-1.269.18-2.48.52-3.633 1.39-4.498 2.08-8.996 2.08-13.494 0-4.613-.52-8.823-1.56-12.629Zm49.65 13.494c3 0 6.81.692 11.42 2.076 4.61 1.269 8.13 3.402 10.55 6.401 2.43 2.883 3.64 5.651 3.64 8.304 0 3.229-1.33 4.844-3.98 4.844-1.5 0-3.52-.923-6.06-2.768-2.54-1.845-5.59-4.267-9.17-7.266-3.57-3.114-6.11-5.421-7.61-6.92-1.5-1.499-2.25-2.653-2.25-3.46 0-.807 1.16-1.211 3.46-1.211Zm-66.78.865c.93 0 1.62.692 2.08 2.076.46 1.269.69 3.114.69 5.536 0 2.307-.92 5.421-2.77 9.342-1.84 3.806-4.21 6.862-7.09 9.169-2.77 2.191-5.02 3.287-6.75 3.287-1.73 0-2.59-1.961-2.59-5.882 0-2.999 1.15-5.594 3.46-7.785 3.57-3.229 7.03-7.727 10.38-13.494.92-1.499 1.79-2.249 2.59-2.249Zm43.25 65.221c10.38 6.574 18.46 11.303 24.22 14.186 5.89 2.883 11.88 5.017 18 6.401 6.22 1.499 15.39 3.056 27.5 4.671 2.77.346 4.16.98 4.16 1.903 0 1.384-4.96 2.999-14.88 4.844-9.92 1.961-16.78 2.941-20.59 2.941-3.69 0-6.8-.692-9.34-2.076-2.54-1.269-6.75-4.44-12.63-9.515-5.77-4.959-13.09-10.784-21.97-17.473-14.42 13.033-32.7 19.549-54.84 19.549-4.73 0-7.56-.231-8.48-.692-.81-.461-1.21-1.038-1.21-1.73 0-.577.92-1.038 2.77-1.384 25.6-4.152 43.77-11.303 54.49-21.452-9.92-7.151-19.49-12.168-28.72-15.051-2.53-.692-3.8-1.499-3.8-2.422 0-1.038 1.61-1.557 4.84-1.557 3.35 0 5.94.288 7.79.865 1.84.577 6.28 2.768 13.32 6.574 7.03 3.691 10.78 5.767 11.24 6.228 3.46-4.152 6.4-8.419 8.83-12.802 2.42-4.498 3.63-7.324 3.63-8.477 0-.807-.69-1.211-2.08-1.211-1.27 0-6.46 1.038-15.57 3.114-8.99 2.076-14.53 3.114-16.6 3.114-1.97 0-4.16-.577-6.58-1.73s-3.63-2.191-3.63-3.114 1.04-1.384 3.11-1.384c6.35 0 14.36-.865 24.05-2.595 9.69-1.845 15.4-3.229 17.13-4.152 1.84-.923 3.63-1.384 5.36-1.384 1.84 0 4.61 1.038 8.3 3.114 3.69 1.961 5.54 3.46 5.54 4.498 0 1.038-.98 2.134-2.94 3.287s-3.87 2.768-5.71 4.844c-1.73 1.961-3.17 3.979-4.33 6.055-2.19 4.267-5.65 8.938-10.38 14.013Z"/></svg>