<svg xmlns="http://www.w3.org/2000/svg" width="1920" height="1080" fill="none"><path fill="#1A73E8" d="M585.446 270.445c5.19-7.439 11.591-19.03 16.781-28.718l-6.92-2.941c-3.633 8.65-10.38 21.279-15.397 28.891l5.536 2.768Zm-57.263-29.41c5.363 8.477 10.38 19.722 12.11 27.161l6.574-2.768c-1.73-7.093-7.093-18.165-12.629-26.642l-6.055 2.249Zm-13.148 32.697V233.25h46.191v40.482h-46.191Zm99.648 0h-45.326V233.25h45.326v40.482Zm27.334 52.246h-72.66v-19.722h57.609v-7.266h-57.609v-17.819h53.63v-55.187h-115.91v55.187h54.149v17.819H503.79v7.266h57.436v19.722h-71.968v7.612h152.759v-7.612Zm-144.282 50.343c8.477-7.612 15.57-20.068 20.068-30.794l-7.612-2.076c-4.325 10.726-11.764 22.317-19.722 29.064l7.266 3.806Zm41.693-29.583c2.249 8.996 3.633 20.933 3.633 27.853l8.131-1.211c0-6.574-1.73-18.338-3.979-26.988l-7.785.346Zm35.984.173c4.152 8.823 8.304 20.587 10.034 27.68l8.131-2.076c-1.903-6.92-6.228-18.511-10.38-26.988l-7.785 1.384Zm35.638-.519c8.823 8.996 18.857 21.452 23.528 29.237l7.612-3.46c-4.844-7.958-14.878-20.068-23.701-28.545l-7.439 2.768ZM698.723 219.583c-8.996 26.988-23.355 53.803-39.098 71.276 1.557 1.903 4.325 5.709 5.19 7.439 5.882-6.92 11.937-15.051 17.3-24.047v101.205h7.958V260.238c6.228-12.11 11.937-25.258 16.435-38.579l-7.785-2.076Zm117.467 44.634v-7.958h-53.976v-37.022h-8.131v37.022h-51.727v7.958h45.153c-11.245 30.448-30.621 61.069-50.343 76.12 2.076 1.384 4.844 4.152 6.055 6.055 20.068-16.608 39.271-47.921 50.862-80.272v67.816h-31.832v7.785h31.832v33.216h8.131v-33.216h30.448v-7.785h-30.448v-67.989c11.072 32.178 29.929 63.664 49.997 80.099 1.73-2.076 4.498-5.19 6.401-6.747-19.722-14.532-38.925-44.634-49.478-75.082h47.056ZM986.558 255.394v-8.131h-92.382c3.806-8.65 6.747-17.3 9.515-26.123l-8.477-2.249c-2.595 9.515-5.882 19.03-10.034 28.372h-48.094v8.131h44.461c-11.245 23.355-27.161 45.153-47.921 60.377 1.557 1.73 3.806 5.19 4.844 6.92 8.477-6.228 15.916-13.321 22.836-21.279v73.525h8.131v-83.559c8.304-11.245 15.224-23.355 21.279-35.984h95.842Zm-48.267 108.298v-54.495h41.866v-7.958h-41.866v-35.984h-8.304v35.984h-41.001v7.958h41.001v54.495h-47.921v7.958h104.838v-7.958h-48.613ZM1052.26 240.516c-7.27-6.055-21.45-13.84-33.04-18.857l-3.98 5.536c11.59 5.017 25.6 13.321 32.7 19.376l4.32-6.055Zm-9.86 46.537c-6.92-5.709-20.76-13.494-31.66-18.165l-3.98 5.363c11.07 5.19 24.74 13.321 31.66 19.03l3.98-6.228Zm2.25 24.393c-9.69 19.203-23.36 42.904-32.87 56.225l6.4 5.19c10.03-15.57 22.84-38.233 32.18-56.398l-5.71-5.017Zm99.47-70.065c-6.57 33.216-18.68 59.858-34.6 80.445-15.05-22.144-25.43-49.824-32.35-80.445h66.95Zm3.81-8.304-1.56.346h-85.63v7.958h8.65c7.78 33.562 18.85 63.145 34.94 86.673-16.6 19.376-36.67 32.87-58.12 40.828 1.73 1.73 3.8 4.671 5.01 6.92 21.28-8.65 41.35-21.798 58.13-41.001 13.32 17.473 29.93 31.313 50.34 40.309 1.39-2.076 3.64-4.844 5.54-6.401-20.59-8.477-37.37-22.317-50.86-39.963 18.34-23.182 32-53.976 38.75-93.939l-5.19-1.73ZM1195.12 246.052h125.77v24.912h8.48v-32.87h-62.63c-2.25-6.055-7.26-14.186-12.11-20.414l-7.78 2.768c3.8 5.19 7.96 12.11 10.38 17.646h-70.24v32.87h8.13v-24.912Zm136.5 66.259h-69.2v-8.477c15.05-7.785 32-19.722 43.25-31.313l-5.88-4.152-1.91.346h-85.98v7.958h77.68c-9.86 8.823-23.7 18.165-35.81 23.874v11.764h-69.55v8.131h69.55v43.942c0 2.422-.87 3.114-3.81 3.287-2.77.173-12.8.173-25.26 0 1.39 2.249 3.12 5.536 3.81 7.958 14.53 0 22.66 0 27.51-1.557 4.67-1.384 6.4-3.979 6.4-9.861v-43.769h69.2v-8.131ZM1491.26 247.782c-5.19-6.401-15.22-17.3-23.18-25.258l-6.4 3.979c7.95 8.131 18.16 19.549 23.01 26.123l6.57-4.844Zm-15.57 49.132c-6.57 16.954-17.13 30.794-29.58 41.866-13.5-11.591-23.88-25.604-31.32-41.866h60.9Zm5.36-8.65-1.38.519h-62.97a157.248 157.248 0 0 0 7.09-20.933h80.27v-8.131h-77.85c3.29-12.456 5.54-25.604 7.61-39.617l-9.34-1.557c-1.9 14.532-4.32 28.372-7.78 41.174h-35.47c4.85-9.169 9.52-21.279 12.98-33.216l-9-2.076c-2.77 13.148-9.34 27.334-11.42 30.967-1.73 3.46-3.28 6.055-5.53 6.574 1.03 1.903 2.42 6.401 2.94 8.304 1.55-1.557 6.57-2.422 18.34-2.422h24.91c-11.25 37.541-30.8 67.124-62.97 88.057 2.07 1.384 5.01 4.152 6.22 5.882 23.36-15.051 40.14-34.6 52.25-57.955 7.44 15.397 17.65 28.891 29.93 39.963-15.74 12.11-34.26 20.414-52.94 25.258 1.56 1.73 3.46 5.017 4.33 7.093 19.54-5.709 38.75-14.359 55.01-26.988 16.09 12.629 35.64 21.798 58.47 27.161 1.04-2.249 3.29-5.536 5.02-7.266-22.32-4.498-41.69-13.148-57.44-25.258 14.88-13.321 27.17-30.621 34.26-52.765l-5.54-2.768ZM1661.97 235.326v21.452h-110.2v-21.452h110.2Zm8.13 28.891v-36.503h-126.63v50.343c0 27.68-1.56 65.74-19.03 93.247 2.07.865 5.88 2.941 7.09 4.325 17.99-28.199 20.24-68.854 20.24-97.572v-13.84h118.33Zm-74.91 28.372h39.97v21.971h-39.97v-21.971Zm68.69 32.351c-7.27 6.055-19.73 14.186-29.24 19.549-6.75-6.401-12.11-14.013-16.26-22.49h62.97v-7.439h-38.23v-21.971h31.65v-7.439h-31.65v-17.127h-7.96v17.127h-39.97v-17.127h-7.95v17.127h-28.38v7.439h28.38v21.971h-33.74v7.439h21.45v34.081c0 6.92-5.19 10.38-8.13 11.764 1.39 1.73 3.29 5.363 3.98 7.439 2.94-2.076 7.79-3.46 54.5-15.57-.35-1.73-.35-5.017-.18-7.266l-42.04 10.034v-40.482h27.51c11.77 27.334 35.64 46.364 67.3 54.149 1.04-2.422 3.29-5.363 5.02-7.093-16.79-3.633-31.49-10.38-43.25-19.895 9.86-5.363 21.79-12.629 30.62-19.722l-6.4-4.498ZM1781.31 309.543v-51.035h55.87v51.035h-55.87Zm-64.36 0v-51.035h55.88v51.035h-55.88Zm64.36-59.166v-31.313h-8.48v31.313h-64.01v78.715h8.13v-11.418h55.88v57.782h8.48v-57.782h55.87v10.553h8.48v-77.85h-64.35ZM542.715 538.627h-36.33V502.47h36.33v36.157Zm-36.33 52.938v-41.52h36.33v41.52h-36.33Zm14.532-128.712c-1.211 8.131-4.325 19.722-6.92 28.026h-19.376v125.944h11.764v-13.667h48.094V490.879h-28.718c2.941-7.439 6.055-16.954 8.996-25.431l-13.84-2.595Zm118.159 27.507h-51.727c2.941-8.131 5.363-16.435 7.439-24.912l-12.283-2.941c-5.536 23.701-14.878 47.575-26.469 62.799 2.768 1.73 8.304 5.19 10.553 7.266 6.055-8.131 11.418-18.684 16.262-30.275h43.942c-2.249 68.854-4.844 95.15-10.553 101.205-1.73 2.249-3.633 2.595-7.093 2.595-3.979 0-14.359 0-25.604-1.038 2.422 3.633 3.979 8.823 4.325 12.629 9.688.519 19.549.865 25.604.173 5.882-.519 9.861-2.076 13.667-6.92 6.92-8.477 9.169-35.119 11.937-114.007v-6.574Zm-27.334 77.85c-5.536-10.207-17.473-26.815-27.161-39.098l-10.034 5.882c9.515 12.456 21.106 29.583 26.296 39.963l10.899-6.747ZM749.586 521.327c.692-9.169.865-18.684 1.211-28.199h-13.148a727.4 727.4 0 0 1-1.038 28.199h-40.136v12.283h39.271c-3.287 33.735-13.321 61.242-46.537 77.504 2.941 2.076 6.747 6.228 8.477 9.342 35.984-18.338 47.056-49.305 50.862-86.846h44.807c-2.422 47.056-5.19 65.913-10.034 70.411-1.903 1.903-3.979 2.422-7.266 2.249-4.152 0-14.705 0-25.777-1.038 2.595 3.633 4.152 8.823 4.498 12.802 10.38.519 20.587.692 26.123.346 6.228-.519 9.861-1.903 13.494-6.228 6.401-7.093 8.996-27.68 11.937-84.597.173-1.73.346-6.228.346-6.228h-57.09Zm65.74-49.651H672.601v54.841c0 26.123-1.038 61.588-13.667 87.019 3.114 1.211 8.996 5.017 11.245 7.266 13.321-26.988 15.397-66.778 15.397-94.285v-42.558h129.75v-12.283ZM859.576 502.816h46.018v32.178h-46.018v-32.178Zm105.184 0v32.178h-46.191v-32.178h46.191Zm12.975 44.634v-56.917h-59.166v-26.642h-12.975v26.642h-58.647v56.917h58.301c-.865 13.148-3.979 25.777-14.186 36.33-10.034-7.612-17.992-17.473-24.566-30.621l-11.418 4.325c6.92 14.705 15.397 25.777 25.95 34.6-10.553 7.093-25.95 13.148-47.748 17.819 2.595 2.768 6.055 8.131 7.612 11.245 23.355-5.536 39.617-12.802 51.035-21.452 23.009 13.667 53.63 18.684 93.593 21.106.865-4.325 3.46-9.861 5.882-12.975-38.752-1.73-67.989-5.363-89.441-17.127 11.591-12.629 15.224-27.507 16.262-43.25h59.512ZM1059.87 489.495h-47.05v12.629h47.05v25.95h-44.46v12.283h44.46v26.988h-51.03v12.456h51.03v41.347h12.98V464.064h-12.98v25.431Zm103.63 77.85h-51.73v-26.988h45.33v-12.283h-45.33v-25.95h48.79v-12.629h-48.79v-25.258h-13.15v157.084h13.15v-41.347h51.73v-12.629ZM1225.91 523.23h65.23v16.954h-65.23V523.23Zm93.94 40.828h-53.11v-14.186h37.2v-36.33h-90.31v36.33h40.14v14.186h-55.54v49.478h12.81v-37.714h42.73v45.499h12.97v-45.499h40.14v24.22c0 2.076-.87 2.595-3.46 2.768-2.6.173-11.77.173-22.15-.173 1.73 3.46 3.81 8.131 4.5 11.764 13.32 0 21.97 0 27.34-2.076 5.36-1.903 6.74-5.363 6.74-12.11v-36.157Zm-16.78-99.475c-3.28 6.228-9.51 15.397-14.36 21.106l10.38 4.325c5.02-5.19 11.59-13.148 17.3-20.76l-13.32-4.671Zm27.34 25.431h-64.71v-26.815h-12.97v26.815h-36.16l10.73-4.844c-2.94-5.709-9-14.186-14.71-20.241l-11.41 4.671c5.01 6.228 10.89 14.705 13.49 20.414h-27.68v37.022h12.28v-25.777h118.51v25.777h12.63v-37.022ZM1508.21 470.811h-86.5v11.937h86.5v-11.937Zm-19.2 73.179h-49.82v-31.313h49.82v31.313Zm12.46-42.731h-74.22v54.149h74.22v-54.149Zm-46.19 96.707c-1.91-9.688-7.1-24.393-12.46-35.465l-10.73 2.768c5.02 11.245 10.21 26.296 11.77 35.811l11.42-3.114Zm-38.06-7.785c-3.64-5.19-19.03-25.95-25.26-33.562.86-4.498 1.38-8.996 1.73-13.321h24.39v-11.591h-23.7c.17-2.422.17-4.498.17-6.747v-26.815h21.28v-11.591h-39.62c1.56-6.747 2.77-13.84 3.81-21.106l-11.76-2.076c-2.77 20.587-7.79 41.174-15.92 54.841 2.77 1.384 7.96 4.844 9.86 6.747 4.33-7.266 7.79-16.608 10.9-26.815h9.52v26.642c0 2.249 0 4.498-.18 6.92h-29.58v11.591h29.06c-2.07 22.317-8.82 47.402-29.93 66.432 2.25 1.557 6.92 6.228 8.65 8.65 15.06-13.494 23.71-30.621 28.38-47.921 6.92 9.688 15.91 23.182 19.72 30.102l8.48-10.38Zm63.49 13.84c5.53-11.591 11.41-26.988 16.26-39.79l-12.98-2.941c-3.28 12.802-9.86 30.621-15.57 42.731h-53.63v12.11h95.33v-12.11h-29.41ZM1647.96 489.841h-87.02v-11.764h87.02v11.764Zm0 20.933h-87.02v-12.283h87.02v12.283Zm12.63-41.866h-111.93v51.035h111.93v-51.035Zm-105.36 114.18h31.32v10.726a1479.36 1479.36 0 0 1-31.32 3.633v-14.359Zm31.32-42.904v11.591h-31.32v-11.591h31.32Zm-31.32 21.279h31.32v12.11h-31.32v-12.11Zm52.94 40.309v-10.38l-9.34 1.038v-52.246h82.52v-10.726h-154.32v10.726h16.44v58.301c-6.06.692-11.94 1.211-16.96 1.73l1.39 11.418c16.09-1.903 37.19-4.498 58.65-7.093v16.781h12.28v-18.338l9.34-1.211Zm53.46-40.309c-4.67 10.207-11.42 19.03-19.21 26.642-7.95-7.612-14.18-16.608-18.68-26.642h37.89Zm7.61-10.899-2.42.346h-61.24v10.553h10.38l-3.47 1.038c5.19 12.456 12.29 23.701 21.28 32.87-9.51 7.093-20.24 12.456-30.96 15.916 2.25 2.249 5.36 6.574 6.57 9.515 11.42-4.152 22.66-10.034 32.7-17.819 9.86 7.958 21.28 13.84 34.25 17.819 1.73-3.287 5.02-7.785 7.61-10.207-12.45-3.287-23.52-8.477-32.87-15.224 11.25-11.072 20.07-24.739 25.44-41.693l-7.27-3.114ZM1744.11 486.208c-2.94-6.228-9.34-15.916-15.05-23.009l-9.86 5.536c5.36 7.439 11.76 17.473 14.7 24.047l10.21-6.574Zm20.93 79.407c-2.25-2.595-8.3-9.169-14.18-15.397 5.19-4.671 11.24-10.553 16.78-16.089l-8.82-7.266c-3.29 4.844-9.17 11.764-14.02 16.954-2.07-2.422-4.15-4.498-5.88-6.228v-.346c8.48-11.937 16.09-25.431 21.45-38.752l-7.44-5.19-2.42.519h-49.48v11.764h43.08c-10.55 21.971-29.24 44.634-46.54 57.609 2.25 2.076 5.71 8.65 6.92 12.11 7.1-5.709 14.36-12.975 21.46-21.106v66.951h12.97v-68.854c6.75 8.304 14.53 18.338 17.99 23.701l8.13-10.38Zm84.95-87.711h-87.02v12.456h28.2c-1.91 56.744-9 97.226-40.31 121.1 2.94 2.422 8.13 7.439 10.03 10.034 32.53-27.507 40.48-69.373 43.25-131.134h33.22c-2.25 79.234-4.5 108.471-10.21 114.872-2.08 2.422-3.81 3.114-7.09 3.114-3.98 0-13.32-.173-24.05-1.038 2.42 3.46 3.81 8.65 3.98 12.283 9.69.692 19.38.865 25.08.173 6.06-.692 9.69-2.249 13.5-7.439 6.75-8.65 8.99-38.579 11.42-127.328v-7.093ZM633.194 712.292h-88.23v19.03h88.23v-19.03Zm-87.711 117.986c6.574-2.768 15.397-3.806 73.179-9.342 2.249 4.671 4.325 8.996 5.882 12.629l18.511-9.515c-6.401-12.975-19.895-34.6-29.41-50.516l-17.127 7.785c3.979 6.747 8.131 14.359 12.456 21.971l-41.693 3.287c7.612-11.072 15.57-24.22 21.452-37.022h55.706v-19.203H533.373v19.203h30.448c-5.709 14.359-13.148 27.334-16.089 31.313-3.46 4.844-6.401 7.958-10.034 8.996 2.595 5.709 6.228 15.916 7.266 20.414 0-.519.173-.865.519-1.384v1.384ZM533.2 732.36c-7.093-6.055-21.452-15.916-30.794-22.49l-13.494 12.975c9.515 7.439 23.355 17.992 29.756 24.22L533.2 732.36Zm-6.574 29.929h-41.347v19.03h21.106v48.44c-7.439 3.633-15.397 9.688-22.836 17.127l14.186 20.068c7.266-10.38 15.57-21.106 20.933-21.106 3.633 0 9.515 5.19 16.435 8.996 12.283 6.92 26.123 8.996 47.748 8.996 18.857 0 46.191-1.038 59.166-1.73.173-6.055 3.806-16.781 6.228-22.663-17.992 2.595-47.056 4.152-64.529 4.152-18.857 0-34.254-.865-45.845-7.785-4.671-2.768-8.304-5.363-11.245-7.093v-66.432ZM750.796 795.159V773.88h36.503v21.279h-36.503Zm-53.803 0c.346-6.401.519-12.629.519-18.165v-3.114h32.524v21.279h-33.043Zm33.043-60.55v20.068h-32.524v-20.068h32.524Zm57.263 20.068h-36.503v-20.068h36.503v20.068Zm20.414-39.617H677.098v61.761c0 24.22-1.557 55.014-20.414 75.774 4.671 2.422 12.975 9.515 16.262 13.321 12.456-13.494 18.684-32.524 21.798-51.381h35.292v48.267h20.76v-48.267h36.503v25.95c0 3.114-1.211 4.152-4.498 4.152-3.114 0-14.532.173-24.22-.346 2.595 5.363 5.882 14.186 6.574 19.722 15.57.173 26.123-.173 33.216-3.633 6.92-3.114 9.342-8.65 9.342-19.722V715.06ZM920.126 751.563h-17.992v-18.857h17.992v18.857Zm41.866 18.857v24.22c-.692.173-1.557.346-3.114.346h-13.667c-4.844 0-5.536-.519-5.536-6.228V770.42h22.317Zm-98.956 65.221v-25.777c2.768 3.114 5.709 6.747 6.92 8.996 24.393-11.245 30.967-30.275 32.005-48.44h18.165v18.338c0 19.549 3.979 25.431 21.971 25.431h19.895v21.452h-98.956Zm20.587-65.221c-.865 11.591-4.844 22.663-20.587 31.14v-31.14h20.587Zm105.357-37.714v-19.722H834.318v19.722h49.478v18.857h-40.828v112.796h20.068v-9.861h98.956v9.515h20.933v-112.45h-43.25v-18.857h49.305ZM1056.59 727.862c-7.27-6.401-22.15-15.397-33.05-20.933l-12.11 14.359c10.9 6.055 25.61 16.089 32.18 22.663l12.98-16.089Zm-7.62 42.212c-7.61-6.228-23.01-14.532-33.73-19.895l-11.59 14.705c11.07 6.055 26.12 15.397 33.04 21.625l12.28-16.435Zm-23.35 90.652c8.99-17.3 18.16-37.541 25.78-56.225l-16.27-12.283c-8.65 20.414-19.89 42.558-28.02 56.225l18.51 12.283Zm139.96-51.727h-44.81V791.18h35.12v-19.203h-35.12v-17.646h41.52v-19.376h-23.36c4.5-7.785 9.17-16.954 13.5-25.777l-20.24-5.882c-3.12 9.688-8.83 22.49-13.84 31.659h-25.78l9-3.633c-2.6-8.131-9.35-19.722-15.57-28.199l-18.34 7.093c5.19 7.439 10.2 17.127 12.97 24.739h-20.76v19.376h39.45v17.646h-33.57v19.203h33.57v17.819h-44.81v19.722h44.81v36.33h21.45v-36.33h44.81v-19.722ZM1230.07 723.018c-7.44-4.844-22.49-12.456-32.18-17.3l-11.59 14.878c10.03 5.709 24.74 13.84 31.48 19.03l12.29-16.608Zm-8.31 46.71c-7.61-4.671-23.01-12.11-32.52-16.781l-11.07 15.224c10.2 5.536 25.08 13.667 32.17 18.684l11.42-17.127Zm-23.87 93.42c10.55-16.781 21.45-36.503 30.62-54.668l-15.05-13.84c-10.38 20.068-23.7 41.52-32.87 54.495l17.3 14.013Zm112.28-23.874h-52.08v-25.431h52.08v25.431Zm28.19-65.913v-19.722h-43.94v-23.701c13.67-2.595 26.47-5.882 37.72-10.207l-15.92-16.262c-19.03 7.612-51.38 13.321-80.79 16.262 2.25 4.671 5.02 12.629 5.71 17.646 10.9-1.038 22.32-2.249 33.73-3.979v20.241h-46.01v19.722h46.01v21.798h-35.29v69.892h18.51v-7.093h52.08v6.228h19.54v-69.027h-35.29v-21.798h43.94ZM1379.33 786.336c.17-3.979.17-7.958.17-11.591v-7.612h42.21v-18.165h-11.93v-45.499h-18.51v45.499h-11.77v-41.001h-18.86v66.778c0 24.393-1.21 57.436-11.24 78.369 4.15 2.768 11.07 8.996 14.36 12.802 9.51-16.262 13.49-38.925 14.88-61.415h15.74v60.031h18.68v-78.196h-33.73Zm58.47 61.242c6.92-21.452 8.65-47.402 9-69.2 4.32 17.3 9.69 33.216 16.95 47.056-7.44 9.342-15.91 16.954-25.95 22.144Zm48.96-77.85c-2.77 14.013-6.92 26.815-12.28 37.887-5.71-11.591-10.38-24.393-13.67-37.887h25.95Zm9-19.376-3.29.692h-45.67v-20.587c21.97-1.384 45.32-3.979 64.01-8.131l-11.42-17.992c-18.86 4.325-46.88 7.785-72.14 9.515v57.955c0 24.566-1.56 60.723-14.19 83.559 4.85 2.422 12.63 7.958 16.27 11.418 3.11-5.017 5.53-10.38 7.61-16.435 3.8 4.325 8.3 10.899 10.72 15.397 10.38-5.882 19.55-13.321 27.16-22.317 6.75 8.823 14.71 16.435 23.71 22.317 3.28-5.363 9.34-12.802 13.84-16.435-9.87-5.363-18.52-13.148-25.78-22.49 10.9-18.857 18.16-43.077 21.45-73.352l-12.28-3.114ZM1584.64 707.448c-12.63 6.055-32.35 12.283-50.17 16.435v88.057c0 6.92-5.02 10.553-8.99 12.456 3.28 5.363 6.92 16.435 8.13 21.798 5.53-3.287 14.01-5.882 64.87-17.3-.69-4.671-1.38-13.494-1.21-19.376l-41.87 8.304v-36.157h42.22V761.77h-42.22v-24.393c15.4-3.46 31.49-7.958 44.81-13.148l-15.57-16.781Zm93.25 7.785h-70.59v149.645h20.94V735.647h28.72v80.618c0 2.249-.7 3.114-3.29 3.287-2.6 0-10.9 0-18.69-.346 3.12 5.709 6.75 15.743 7.62 21.798 11.76 0 20.41-.519 26.98-4.152 6.41-3.633 8.31-10.207 8.31-20.068V715.233ZM1773.35 728.208v13.84h-48.27v-13.84h48.27Zm19.37 32.178v-50.343h-85.8v56.917c0 24.22-.87 57.955-12.11 81.137 4.15 2.076 12.11 7.958 15.22 11.418 12.97-25.431 15.05-65.74 15.05-92.555v-6.574h67.64Zm.7 17.646h-26.13v-14.359h-17.12v14.359h-24.05v69.546H1741v-52.592h9.17v70.065h17.12v-70.065h9.86v34.081c0 1.384-.34 1.73-1.55 1.903-1.21 0-3.81 0-7.27-.173 2.25 4.498 4.33 11.245 4.84 16.089 6.58 0 11.42-.346 15.23-3.287 4.15-2.768 5.02-7.266 5.02-14.186v-51.381Zm28.19-57.955h-17.99v100.34h17.99v-100.34Zm11.42-13.494v133.556c0 2.941-.86 3.633-3.46 3.633-2.94 0-11.42 0-19.89-.346 2.76 5.882 5.19 14.878 5.88 20.241 12.97 0 22.49-.692 28.54-3.979 6.06-3.287 8.13-8.823 8.13-19.376V706.583h-19.2Z"/><path fill="#FF6D7F" d="M70.284 291.182V313h-4.943l-7.884-11.463h-.127V313h-5.924v-21.818h5.029l7.755 11.42h.17v-11.42h5.924Zm10.77 22.116c-1.775 0-3.295-.351-4.559-1.054a7.26 7.26 0 0 1-2.908-2.962c-.675-1.271-1.012-2.745-1.012-4.421 0-1.676.337-3.147 1.012-4.411a7.169 7.169 0 0 1 2.908-2.961c1.264-.711 2.784-1.066 4.56-1.066 1.775 0 3.295.355 4.56 1.066a7.168 7.168 0 0 1 2.908 2.961c.674 1.264 1.012 2.735 1.012 4.411 0 1.676-.338 3.15-1.012 4.421a7.26 7.26 0 0 1-2.909 2.962c-1.264.703-2.784 1.054-4.56 1.054Zm.043-4.346c.498 0 .927-.167 1.29-.501.362-.334.642-.81.841-1.428.199-.617.298-1.353.298-2.205 0-.859-.1-1.594-.298-2.205-.199-.618-.48-1.094-.842-1.428a1.841 1.841 0 0 0-1.289-.5c-.525 0-.976.167-1.353.5-.376.334-.664.81-.863 1.428-.198.611-.298 1.346-.298 2.205 0 .852.1 1.588.298 2.205.2.618.487 1.094.863 1.428.377.334.828.501 1.353.501Zm20.583-12.316v4.262H90.898v-4.262h10.782Zm-8.694-3.92h5.881v15.021c0 .227.04.419.117.575.079.15.2.263.363.341.163.071.373.107.628.107.178 0 .384-.021.618-.064.242-.043.419-.078.533-.107l.852 4.134a20.86 20.86 0 0 1-1.129.288 9.96 9.96 0 0 1-1.726.223c-1.35.071-2.482-.067-3.399-.415-.916-.355-1.605-.913-2.066-1.673-.462-.76-.686-1.711-.671-2.855v-15.575Zm18.801 20.582c-1.775 0-3.295-.351-4.56-1.054a7.262 7.262 0 0 1-2.908-2.962c-.675-1.271-1.012-2.745-1.012-4.421 0-1.676.337-3.147 1.012-4.411a7.17 7.17 0 0 1 2.908-2.961c1.265-.711 2.785-1.066 4.56-1.066 1.776 0 3.296.355 4.56 1.066a7.17 7.17 0 0 1 2.908 2.961c.675 1.264 1.012 2.735 1.012 4.411 0 1.676-.337 3.15-1.012 4.421a7.262 7.262 0 0 1-2.908 2.962c-1.264.703-2.784 1.054-4.56 1.054Zm.043-4.346c.497 0 .927-.167 1.289-.501.362-.334.643-.81.841-1.428.199-.617.299-1.353.299-2.205 0-.859-.1-1.594-.299-2.205-.198-.618-.479-1.094-.841-1.428a1.84 1.84 0 0 0-1.289-.5c-.526 0-.977.167-1.353.5-.377.334-.664.81-.863 1.428-.199.611-.298 1.346-.298 2.205 0 .852.099 1.588.298 2.205.199.618.486 1.094.863 1.428.376.334.827.501 1.353.501ZM140.306 298c-.057-.71-.323-1.264-.799-1.662-.468-.398-1.182-.597-2.141-.597-.611 0-1.112.075-1.502.224-.384.142-.668.338-.852.586a1.447 1.447 0 0 0-.288.852c-.014.263.032.501.138.714.114.206.292.394.533.565a4.2 4.2 0 0 0 .927.447c.376.135.824.256 1.342.362l1.79.384c1.207.256 2.241.593 3.1 1.012.86.419 1.563.913 2.11 1.481a5.282 5.282 0 0 1 1.203 1.896 6.68 6.68 0 0 1 .405 2.301c-.007 1.435-.366 2.649-1.076 3.644-.71.994-1.726 1.751-3.047 2.269-1.314.518-2.894.778-4.74.778-1.897 0-3.552-.281-4.965-.842-1.406-.561-2.5-1.424-3.281-2.589-.774-1.172-1.165-2.67-1.172-4.495h5.625c.035.667.202 1.228.501 1.683.298.454.717.799 1.257 1.033.547.235 1.196.352 1.949.352.632 0 1.162-.078 1.588-.235.426-.156.749-.373.969-.65.22-.276.334-.593.341-.948a1.345 1.345 0 0 0-.33-.873c-.206-.256-.547-.483-1.023-.682-.476-.206-1.119-.398-1.928-.575l-2.173-.469c-1.932-.419-3.456-1.119-4.571-2.099-1.108-.987-1.658-2.333-1.651-4.037-.007-1.385.362-2.596 1.108-3.633.753-1.044 1.793-1.858 3.121-2.44 1.336-.582 2.866-.873 4.592-.873 1.761 0 3.285.294 4.57.884 1.286.589 2.277 1.42 2.973 2.493.703 1.065 1.058 2.311 1.065 3.739h-5.668Zm12.864 15.256c-1.044 0-1.967-.171-2.77-.512a4.168 4.168 0 0 1-1.875-1.576c-.454-.704-.681-1.598-.681-2.685 0-.895.152-1.658.458-2.291a4.122 4.122 0 0 1 1.278-1.566 6.056 6.056 0 0 1 1.907-.926 11.58 11.58 0 0 1 2.365-.416c.916-.071 1.651-.156 2.205-.256.561-.106.966-.252 1.215-.436a.912.912 0 0 0 .373-.757v-.042c0-.427-.164-.753-.49-.981-.327-.227-.746-.34-1.257-.34-.562 0-1.02.124-1.375.372-.348.242-.557.615-.628 1.119h-5.412c.071-.994.387-1.91.948-2.749.568-.845 1.396-1.519 2.482-2.024 1.087-.511 2.443-.767 4.07-.767 1.172 0 2.223.139 3.153.416.931.27 1.722.65 2.376 1.14.653.483 1.15 1.051 1.491 1.704.348.647.522 1.35.522 2.11V313h-5.497v-2.301h-.128c-.326.611-.724 1.104-1.193 1.481-.461.376-.991.65-1.587.82a7.02 7.02 0 0 1-1.95.256Zm1.918-3.708c.447 0 .866-.092 1.257-.277a2.41 2.41 0 0 0 .969-.799c.249-.348.373-.77.373-1.267v-1.364a6.863 6.863 0 0 1-.5.181 9.603 9.603 0 0 1-1.172.298c-.213.043-.437.082-.671.118-.455.071-.828.188-1.119.351a1.658 1.658 0 0 0-.639.586 1.473 1.473 0 0 0-.203.767c0 .455.16.803.48 1.044.319.242.728.362 1.225.362Zm17.128-5.753V313h-5.881v-16.364h5.583v3.111h.17c.355-1.037.98-1.85 1.875-2.439.902-.59 1.953-.885 3.153-.885 1.158 0 2.163.267 3.015.799a5.308 5.308 0 0 1 1.993 2.174c.475.923.71 1.978.703 3.164V313h-5.881v-9.205c.007-.809-.199-1.445-.618-1.907-.412-.461-.987-.692-1.726-.692-.483 0-.905.107-1.267.32a2.045 2.045 0 0 0-.821.895c-.192.383-.291.845-.298 1.384Zm28.471-1.832h-5.412a1.487 1.487 0 0 0-.351-.863 1.983 1.983 0 0 0-.799-.554 2.715 2.715 0 0 0-1.066-.202c-.504 0-.937.092-1.299.277-.363.184-.54.447-.533.788-.007.242.096.465.309.671.22.206.643.366 1.268.48l3.323.596c1.677.306 2.923.821 3.74 1.545.824.717 1.239 1.68 1.246 2.887-.007 1.165-.355 2.177-1.044 3.036-.682.853-1.616 1.513-2.802 1.982-1.179.461-2.524.692-4.037.692-2.5 0-4.457-.511-5.87-1.534-1.407-1.023-2.191-2.372-2.355-4.048h5.838c.079.518.334.92.767 1.204.441.277.995.415 1.662.415.54 0 .984-.092 1.332-.277.355-.184.536-.447.543-.788-.007-.313-.163-.561-.468-.746-.299-.185-.767-.334-1.407-.447l-2.897-.512c-1.669-.291-2.919-.845-3.75-1.662-.831-.816-1.243-1.867-1.236-3.153-.007-1.136.291-2.099.895-2.887.611-.796 1.481-1.399 2.61-1.811 1.136-.419 2.482-.629 4.037-.629 2.366 0 4.23.49 5.594 1.47 1.37.981 2.091 2.337 2.162 4.07Zm28.94-2.599h-6.008a4.09 4.09 0 0 0-.341-1.353 3.053 3.053 0 0 0-.746-1.044 3.106 3.106 0 0 0-1.14-.682c-.447-.164-.955-.245-1.523-.245-.995 0-1.836.241-2.525.724-.682.483-1.201 1.176-1.556 2.078-.348.902-.522 1.985-.522 3.249 0 1.335.178 2.454.533 3.356.362.895.884 1.569 1.566 2.024.682.447 1.502.671 2.461.671.547 0 1.037-.067 1.47-.202.433-.142.81-.345 1.129-.608.32-.262.579-.578.778-.948.206-.376.345-.799.416-1.268l6.008.043c-.071.923-.33 1.864-.778 2.823-.447.952-1.083 1.833-1.907 2.642-.816.803-1.828 1.449-3.036 1.939-1.207.49-2.61.735-4.208.735-2.003 0-3.8-.429-5.39-1.289-1.584-.859-2.838-2.123-3.761-3.792-.916-1.669-1.374-3.711-1.374-6.126 0-2.429.468-4.475 1.406-6.136.937-1.669 2.202-2.93 3.792-3.782 1.591-.86 3.367-1.289 5.327-1.289 1.378 0 2.646.188 3.803.564 1.158.377 2.174.927 3.047 1.651a8.166 8.166 0 0 1 2.11 2.653c.532 1.051.855 2.255.969 3.612Zm11.679-8.182h5.838v14.957c-.007 1.421-.366 2.671-1.076 3.75-.703 1.073-1.676 1.911-2.919 2.514-1.236.597-2.66.895-4.272.895-1.399 0-2.678-.241-3.835-.724a6.091 6.091 0 0 1-2.77-2.301c-.689-1.051-1.03-2.415-1.023-4.091h5.923c.022.547.114 1.008.277 1.385.171.376.405.66.704.852.305.185.674.277 1.107.277.441 0 .81-.096 1.108-.288.306-.191.537-.475.693-.852.156-.383.238-.856.245-1.417v-14.957ZM249.951 313v-21.818h5.923v8.821h.299l6.562-8.821h6.904l-7.372 9.716L269.809 313h-7.074l-4.9-8.182-1.961 2.557V313h-5.923Zm39.183-15c-.056-.71-.323-1.264-.799-1.662-.468-.398-1.182-.597-2.141-.597-.611 0-1.111.075-1.502.224-.384.142-.668.338-.852.586a1.447 1.447 0 0 0-.288.852c-.014.263.032.501.139.714.113.206.291.394.532.565.242.163.551.312.927.447s.824.256 1.342.362l1.79.384c1.208.256 2.241.593 3.1 1.012.86.419 1.563.913 2.11 1.481a5.269 5.269 0 0 1 1.203 1.896 6.68 6.68 0 0 1 .405 2.301c-.007 1.435-.365 2.649-1.076 3.644-.71.994-1.726 1.751-3.047 2.269-1.313.518-2.894.778-4.74.778-1.897 0-3.551-.281-4.965-.842-1.406-.561-2.5-1.424-3.281-2.589-.774-1.172-1.165-2.67-1.172-4.495h5.625c.036.667.202 1.228.501 1.683.298.454.717.799 1.257 1.033.547.235 1.197.352 1.949.352.633 0 1.162-.078 1.588-.235.426-.156.749-.373.969-.65.22-.276.334-.593.341-.948a1.345 1.345 0 0 0-.33-.873c-.206-.256-.547-.483-1.023-.682-.476-.206-1.118-.398-1.928-.575l-2.173-.469c-1.932-.419-3.456-1.119-4.571-2.099-1.108-.987-1.658-2.333-1.651-4.037-.007-1.385.362-2.596 1.108-3.633.753-1.044 1.793-1.858 3.121-2.44 1.336-.582 2.866-.873 4.592-.873 1.761 0 3.285.294 4.57.884 1.286.589 2.277 1.42 2.973 2.493.703 1.065 1.058 2.311 1.065 3.739h-5.668Zm28.589 1.364h-6.009a4.042 4.042 0 0 0-.341-1.353 3.05 3.05 0 0 0-.745-1.044 3.106 3.106 0 0 0-1.14-.682 4.414 4.414 0 0 0-1.524-.245c-.994 0-1.836.241-2.525.724-.681.483-1.2 1.176-1.555 2.078-.348.902-.522 1.985-.522 3.249 0 1.335.178 2.454.533 3.356.362.895.884 1.569 1.566 2.024.682.447 1.502.671 2.461.671.547 0 1.037-.067 1.47-.202.433-.142.81-.345 1.129-.608.32-.262.579-.578.778-.948a3.8 3.8 0 0 0 .415-1.268l6.009.043c-.071.923-.33 1.864-.778 2.823-.447.952-1.083 1.833-1.907 2.642-.817.803-1.829 1.449-3.036 1.939s-2.61.735-4.208.735c-2.003 0-3.8-.429-5.391-1.289-1.584-.859-2.837-2.123-3.76-3.792-.917-1.669-1.375-3.711-1.375-6.126 0-2.429.469-4.475 1.407-6.136.937-1.669 2.201-2.93 3.792-3.782 1.591-.86 3.367-1.289 5.327-1.289 1.378 0 2.645.188 3.803.564 1.158.377 2.173.927 3.047 1.651a8.15 8.15 0 0 1 2.109 2.653c.533 1.051.856 2.255.97 3.612ZM326.387 313v-21.818h5.923v17.045h8.821V313h-14.744Zm17.224 0v-16.364h5.88V313h-5.88Zm2.94-18.068c-.795 0-1.477-.263-2.045-.789-.569-.525-.853-1.157-.853-1.896 0-.738.284-1.371.853-1.896.568-.526 1.25-.789 2.045-.789.803 0 1.484.263 2.045.789.569.525.853 1.158.853 1.896 0 .739-.284 1.371-.853 1.896-.561.526-1.242.789-2.045.789Zm13.82 24.545c-1.641 0-3.047-.234-4.219-.703-1.164-.462-2.07-1.101-2.716-1.917a5.006 5.006 0 0 1-1.076-2.792h5.667c.057.348.199.629.426.842.228.213.519.366.874.458.362.099.767.149 1.215.149.759 0 1.388-.184 1.885-.554.504-.369.757-1.037.757-2.003v-2.769h-.171a3.59 3.59 0 0 1-.98 1.416c-.44.384-.969.679-1.587.885a6.639 6.639 0 0 1-2.035.298 6.555 6.555 0 0 1-3.217-.81c-.973-.54-1.755-1.395-2.344-2.567-.583-1.172-.874-2.703-.874-4.592 0-1.974.306-3.579.916-4.815.618-1.236 1.414-2.141 2.387-2.717.98-.575 2.01-.863 3.089-.863.81 0 1.52.142 2.131.426.611.277 1.122.65 1.534 1.119.412.462.724.969.938 1.523h.127v-2.855h5.881v16.321c0 1.385-.359 2.561-1.076 3.527-.71.973-1.712 1.715-3.004 2.226-1.293.512-2.802.767-4.528.767Zm.213-10.866c.54 0 1.002-.149 1.385-.448.391-.305.689-.738.895-1.299.213-.569.32-1.25.32-2.046 0-.809-.107-1.502-.32-2.077-.206-.583-.504-1.027-.895-1.332-.383-.312-.845-.469-1.385-.469s-1.001.157-1.385.469c-.376.305-.667.749-.873 1.332-.199.575-.299 1.268-.299 2.077 0 .81.1 1.499.299 2.067.206.561.497.991.873 1.289.384.291.845.437 1.385.437Zm17.267-4.816V313h-5.881v-21.818h5.668v8.565h.17c.369-1.044.984-1.857 1.843-2.439.859-.59 1.893-.885 3.1-.885 1.158 0 2.163.263 3.015.789a5.296 5.296 0 0 1 1.992 2.173c.476.923.711 1.981.703 3.175V313h-5.88v-9.205c.007-.809-.196-1.445-.607-1.907-.405-.461-.984-.692-1.737-.692-.476 0-.895.107-1.257.32a2.114 2.114 0 0 0-.831.895c-.192.383-.291.845-.298 1.384Zm23.272-7.159v4.262h-10.781v-4.262h10.781Zm-8.693-3.92h5.881v15.021c0 .227.039.419.117.575.078.15.199.263.362.341.163.071.373.107.629.107.177 0 .383-.021.617-.064.242-.043.419-.078.533-.107l.852 4.134c-.262.078-.639.174-1.129.288a9.953 9.953 0 0 1-1.726.223c-1.349.071-2.482-.067-3.398-.415-.916-.355-1.605-.913-2.067-1.673-.462-.76-.685-1.711-.671-2.855v-15.575ZM70.284 526.182V548h-4.943l-7.884-11.463h-.127V548h-5.924v-21.818h5.029l7.755 11.42h.17v-11.42h5.924Zm10.77 22.116c-1.775 0-3.295-.351-4.559-1.054a7.26 7.26 0 0 1-2.908-2.962c-.675-1.271-1.012-2.745-1.012-4.421 0-1.676.337-3.147 1.012-4.411a7.169 7.169 0 0 1 2.908-2.961c1.264-.711 2.784-1.066 4.56-1.066 1.775 0 3.295.355 4.56 1.066a7.168 7.168 0 0 1 2.908 2.961c.674 1.264 1.012 2.735 1.012 4.411 0 1.676-.338 3.15-1.012 4.421a7.26 7.26 0 0 1-2.909 2.962c-1.264.703-2.784 1.054-4.56 1.054Zm.043-4.346c.498 0 .927-.167 1.29-.501.362-.334.642-.81.841-1.428.199-.617.298-1.353.298-2.205 0-.859-.1-1.594-.298-2.205-.199-.618-.48-1.094-.842-1.428a1.841 1.841 0 0 0-1.289-.5c-.525 0-.976.167-1.353.5-.376.334-.664.81-.863 1.428-.198.611-.298 1.346-.298 2.205 0 .852.1 1.588.298 2.205.2.618.487 1.094.863 1.428.377.334.828.501 1.353.501Zm20.583-12.316v4.262H90.898v-4.262h10.782Zm-8.694-3.92h5.881v15.021c0 .227.04.419.117.575.079.15.2.263.363.341.163.071.373.107.628.107.178 0 .384-.021.618-.064.242-.043.419-.078.533-.107l.852 4.134a20.86 20.86 0 0 1-1.129.288 9.96 9.96 0 0 1-1.726.223c-1.35.071-2.482-.067-3.399-.415-.916-.355-1.605-.913-2.066-1.673-.462-.76-.686-1.711-.671-2.855v-15.575Zm18.801 20.582c-1.775 0-3.295-.351-4.56-1.054a7.262 7.262 0 0 1-2.908-2.962c-.675-1.271-1.012-2.745-1.012-4.421 0-1.676.337-3.147 1.012-4.411a7.17 7.17 0 0 1 2.908-2.961c1.265-.711 2.785-1.066 4.56-1.066 1.776 0 3.296.355 4.56 1.066a7.17 7.17 0 0 1 2.908 2.961c.675 1.264 1.012 2.735 1.012 4.411 0 1.676-.337 3.15-1.012 4.421a7.262 7.262 0 0 1-2.908 2.962c-1.264.703-2.784 1.054-4.56 1.054Zm.043-4.346c.497 0 .927-.167 1.289-.501.362-.334.643-.81.841-1.428.199-.617.299-1.353.299-2.205 0-.859-.1-1.594-.299-2.205-.198-.618-.479-1.094-.841-1.428a1.84 1.84 0 0 0-1.289-.5c-.526 0-.977.167-1.353.5-.377.334-.664.81-.863 1.428-.199.611-.298 1.346-.298 2.205 0 .852.099 1.588.298 2.205.199.618.486 1.094.863 1.428.376.334.827.501 1.353.501ZM140.306 533c-.057-.71-.323-1.264-.799-1.662-.468-.398-1.182-.597-2.141-.597-.611 0-1.112.075-1.502.224-.384.142-.668.338-.852.586a1.447 1.447 0 0 0-.288.852c-.014.263.032.501.138.714.114.206.292.394.533.565a4.2 4.2 0 0 0 .927.447c.376.135.824.256 1.342.362l1.79.384c1.207.256 2.241.593 3.1 1.012.86.419 1.563.913 2.11 1.481a5.282 5.282 0 0 1 1.203 1.896 6.68 6.68 0 0 1 .405 2.301c-.007 1.435-.366 2.649-1.076 3.644-.71.994-1.726 1.751-3.047 2.269-1.314.518-2.894.778-4.74.778-1.897 0-3.552-.281-4.965-.842-1.406-.561-2.5-1.424-3.281-2.589-.774-1.172-1.165-2.67-1.172-4.495h5.625c.035.667.202 1.228.501 1.683.298.454.717.799 1.257 1.033.547.235 1.196.352 1.949.352.632 0 1.162-.078 1.588-.235.426-.156.749-.373.969-.65.22-.276.334-.593.341-.948a1.345 1.345 0 0 0-.33-.873c-.206-.256-.547-.483-1.023-.682-.476-.206-1.119-.398-1.928-.575l-2.173-.469c-1.932-.419-3.456-1.119-4.571-2.099-1.108-.987-1.658-2.333-1.651-4.037-.007-1.385.362-2.596 1.108-3.633.753-1.044 1.793-1.858 3.121-2.44 1.336-.582 2.866-.873 4.592-.873 1.761 0 3.285.294 4.57.884 1.286.589 2.277 1.42 2.973 2.493.703 1.065 1.058 2.311 1.065 3.739h-5.668Zm12.864 15.256c-1.044 0-1.967-.171-2.77-.512a4.168 4.168 0 0 1-1.875-1.576c-.454-.704-.681-1.598-.681-2.685 0-.895.152-1.658.458-2.291a4.122 4.122 0 0 1 1.278-1.566 6.056 6.056 0 0 1 1.907-.926 11.58 11.58 0 0 1 2.365-.416c.916-.071 1.651-.156 2.205-.256.561-.106.966-.252 1.215-.436a.912.912 0 0 0 .373-.757v-.042c0-.427-.164-.753-.49-.981-.327-.227-.746-.34-1.257-.34-.562 0-1.02.124-1.375.372-.348.242-.557.615-.628 1.119h-5.412c.071-.994.387-1.91.948-2.749.568-.845 1.396-1.519 2.482-2.024 1.087-.511 2.443-.767 4.07-.767 1.172 0 2.223.139 3.153.416.931.27 1.722.65 2.376 1.14.653.483 1.15 1.051 1.491 1.704.348.647.522 1.35.522 2.11V548h-5.497v-2.301h-.128c-.326.611-.724 1.104-1.193 1.481-.461.376-.991.65-1.587.82a7.02 7.02 0 0 1-1.95.256Zm1.918-3.708c.447 0 .866-.092 1.257-.277a2.41 2.41 0 0 0 .969-.799c.249-.348.373-.77.373-1.267v-1.364a6.863 6.863 0 0 1-.5.181 9.603 9.603 0 0 1-1.172.298c-.213.043-.437.082-.671.118-.455.071-.828.188-1.119.351a1.658 1.658 0 0 0-.639.586 1.473 1.473 0 0 0-.203.767c0 .455.16.803.48 1.044.319.242.728.362 1.225.362Zm17.128-5.753V548h-5.881v-16.364h5.583v3.111h.17c.355-1.037.98-1.85 1.875-2.439.902-.59 1.953-.885 3.153-.885 1.158 0 2.163.267 3.015.799a5.308 5.308 0 0 1 1.993 2.174c.475.923.71 1.978.703 3.164V548h-5.881v-9.205c.007-.809-.199-1.445-.618-1.907-.412-.461-.987-.692-1.726-.692-.483 0-.905.107-1.267.32a2.045 2.045 0 0 0-.821.895c-.192.383-.291.845-.298 1.384Zm28.471-1.832h-5.412a1.487 1.487 0 0 0-.351-.863 1.983 1.983 0 0 0-.799-.554 2.715 2.715 0 0 0-1.066-.202c-.504 0-.937.092-1.299.277-.363.184-.54.447-.533.788-.007.242.096.465.309.671.22.206.643.366 1.268.48l3.323.596c1.677.306 2.923.821 3.74 1.545.824.717 1.239 1.68 1.246 2.887-.007 1.165-.355 2.177-1.044 3.036-.682.853-1.616 1.513-2.802 1.982-1.179.461-2.524.692-4.037.692-2.5 0-4.457-.511-5.87-1.534-1.407-1.023-2.191-2.372-2.355-4.048h5.838c.079.518.334.92.767 1.204.441.277.995.415 1.662.415.54 0 .984-.092 1.332-.277.355-.184.536-.447.543-.788-.007-.313-.163-.561-.468-.746-.299-.185-.767-.334-1.407-.447l-2.897-.512c-1.669-.291-2.919-.845-3.75-1.662-.831-.816-1.243-1.867-1.236-3.153-.007-1.136.291-2.099.895-2.887.611-.796 1.481-1.399 2.61-1.811 1.136-.419 2.482-.629 4.037-.629 2.366 0 4.23.49 5.594 1.47 1.37.981 2.091 2.337 2.162 4.07Zm28.94-2.599h-6.008a4.09 4.09 0 0 0-.341-1.353 3.053 3.053 0 0 0-.746-1.044 3.106 3.106 0 0 0-1.14-.682c-.447-.164-.955-.245-1.523-.245-.995 0-1.836.241-2.525.724-.682.483-1.201 1.176-1.556 2.078-.348.902-.522 1.985-.522 3.249 0 1.335.178 2.454.533 3.356.362.895.884 1.569 1.566 2.024.682.447 1.502.671 2.461.671.547 0 1.037-.067 1.47-.202.433-.142.81-.345 1.129-.608.32-.262.579-.578.778-.948.206-.376.345-.799.416-1.268l6.008.043c-.071.923-.33 1.864-.778 2.823-.447.952-1.083 1.833-1.907 2.642-.816.803-1.828 1.449-3.036 1.939-1.207.49-2.61.735-4.208.735-2.003 0-3.8-.429-5.39-1.289-1.584-.859-2.838-2.123-3.761-3.792-.916-1.669-1.374-3.711-1.374-6.126 0-2.429.468-4.475 1.406-6.136.937-1.669 2.202-2.93 3.792-3.782 1.591-.86 3.367-1.289 5.327-1.289 1.378 0 2.646.188 3.803.564 1.158.377 2.174.927 3.047 1.651a8.166 8.166 0 0 1 2.11 2.653c.532 1.051.855 2.255.969 3.612Zm11.679-8.182h5.838v14.957c-.007 1.421-.366 2.671-1.076 3.75-.703 1.073-1.676 1.911-2.919 2.514-1.236.597-2.66.895-4.272.895-1.399 0-2.678-.241-3.835-.724a6.091 6.091 0 0 1-2.77-2.301c-.689-1.051-1.03-2.415-1.023-4.091h5.923c.022.547.114 1.008.277 1.385.171.376.405.66.704.852.305.185.674.277 1.107.277.441 0 .81-.096 1.108-.288.306-.191.537-.475.693-.852.156-.383.238-.856.245-1.417v-14.957ZM249.951 548v-21.818h5.923v8.821h.299l6.562-8.821h6.904l-7.372 9.716L269.809 548h-7.074l-4.9-8.182-1.961 2.557V548h-5.923Zm39.183-15c-.056-.71-.323-1.264-.799-1.662-.468-.398-1.182-.597-2.141-.597-.611 0-1.111.075-1.502.224-.384.142-.668.338-.852.586a1.447 1.447 0 0 0-.288.852c-.014.263.032.501.139.714.113.206.291.394.532.565.242.163.551.312.927.447s.824.256 1.342.362l1.79.384c1.208.256 2.241.593 3.1 1.012.86.419 1.563.913 2.11 1.481a5.269 5.269 0 0 1 1.203 1.896 6.68 6.68 0 0 1 .405 2.301c-.007 1.435-.365 2.649-1.076 3.644-.71.994-1.726 1.751-3.047 2.269-1.313.518-2.894.778-4.74.778-1.897 0-3.551-.281-4.965-.842-1.406-.561-2.5-1.424-3.281-2.589-.774-1.172-1.165-2.67-1.172-4.495h5.625c.036.667.202 1.228.501 1.683.298.454.717.799 1.257 1.033.547.235 1.197.352 1.949.352.633 0 1.162-.078 1.588-.235.426-.156.749-.373.969-.65.22-.276.334-.593.341-.948a1.345 1.345 0 0 0-.33-.873c-.206-.256-.547-.483-1.023-.682-.476-.206-1.118-.398-1.928-.575l-2.173-.469c-1.932-.419-3.456-1.119-4.571-2.099-1.108-.987-1.658-2.333-1.651-4.037-.007-1.385.362-2.596 1.108-3.633.753-1.044 1.793-1.858 3.121-2.44 1.336-.582 2.866-.873 4.592-.873 1.761 0 3.285.294 4.57.884 1.286.589 2.277 1.42 2.973 2.493.703 1.065 1.058 2.311 1.065 3.739h-5.668Zm28.589 1.364h-6.009a4.042 4.042 0 0 0-.341-1.353 3.05 3.05 0 0 0-.745-1.044 3.106 3.106 0 0 0-1.14-.682 4.414 4.414 0 0 0-1.524-.245c-.994 0-1.836.241-2.525.724-.681.483-1.2 1.176-1.555 2.078-.348.902-.522 1.985-.522 3.249 0 1.335.178 2.454.533 3.356.362.895.884 1.569 1.566 2.024.682.447 1.502.671 2.461.671.547 0 1.037-.067 1.47-.202.433-.142.81-.345 1.129-.608.32-.262.579-.578.778-.948a3.8 3.8 0 0 0 .415-1.268l6.009.043c-.071.923-.33 1.864-.778 2.823-.447.952-1.083 1.833-1.907 2.642-.817.803-1.829 1.449-3.036 1.939s-2.61.735-4.208.735c-2.003 0-3.8-.429-5.391-1.289-1.584-.859-2.837-2.123-3.76-3.792-.917-1.669-1.375-3.711-1.375-6.126 0-2.429.469-4.475 1.407-6.136.937-1.669 2.201-2.93 3.792-3.782 1.591-.86 3.367-1.289 5.327-1.289 1.378 0 2.645.188 3.803.564 1.158.377 2.173.927 3.047 1.651a8.15 8.15 0 0 1 2.109 2.653c.533 1.051.856 2.255.97 3.612ZM326.387 548v-21.818h9.417c1.62 0 3.037.295 4.251.884 1.215.59 2.159 1.438 2.834 2.546.675 1.108 1.012 2.436 1.012 3.985 0 1.562-.348 2.88-1.044 3.952-.689 1.072-1.658 1.882-2.908 2.429-1.243.547-2.696.82-4.358.82h-5.625v-4.602h4.432c.696 0 1.289-.085 1.779-.256.497-.177.877-.458 1.14-.841.27-.384.405-.885.405-1.502 0-.625-.135-1.133-.405-1.524-.263-.398-.643-.689-1.14-.873-.49-.192-1.083-.288-1.779-.288h-2.088V548h-5.923Zm12.784-10.014L344.625 548h-6.434l-5.327-10.014h6.307ZM354 548.298c-1.747 0-3.252-.334-4.517-1.001a7.02 7.02 0 0 1-2.908-2.898c-.675-1.264-1.012-2.777-1.012-4.538 0-1.691.341-3.168 1.023-4.432a7.303 7.303 0 0 1 2.887-2.951c1.243-.703 2.709-1.055 4.4-1.055 1.235 0 2.354.192 3.355.576a7.024 7.024 0 0 1 2.568 1.672c.71.725 1.257 1.605 1.64 2.642.384 1.037.576 2.205.576 3.505v1.364h-14.617v-3.239h9.205a2.258 2.258 0 0 0-.362-1.236 2.318 2.318 0 0 0-.927-.841 2.73 2.73 0 0 0-1.311-.309c-.475 0-.912.103-1.31.309a2.48 2.48 0 0 0-.959.831 2.35 2.35 0 0 0-.373 1.246v3.495c0 .525.11.994.331 1.406.22.412.536.735.948.969.412.235.909.352 1.491.352.405 0 .774-.057 1.108-.171a2.49 2.49 0 0 0 .874-.49 1.99 1.99 0 0 0 .532-.788h5.37c-.185 1.136-.622 2.123-1.311 2.962-.689.831-1.601 1.477-2.738 1.938-1.129.455-2.45.682-3.963.682Zm18.295 6.179c-1.641 0-3.047-.234-4.219-.703-1.165-.462-2.07-1.101-2.716-1.917a4.998 4.998 0 0 1-1.076-2.792h5.667c.057.348.199.629.426.842.228.213.519.366.874.458.362.099.767.149 1.214.149.76 0 1.389-.184 1.886-.554.504-.369.756-1.037.756-2.003v-2.769h-.17a3.59 3.59 0 0 1-.98 1.416c-.44.384-.97.679-1.588.885a6.632 6.632 0 0 1-2.034.298 6.559 6.559 0 0 1-3.218-.81c-.973-.54-1.754-1.395-2.343-2.567-.583-1.172-.874-2.703-.874-4.592 0-1.974.305-3.579.916-4.815.618-1.236 1.414-2.141 2.387-2.717.98-.575 2.01-.863 3.089-.863.81 0 1.52.142 2.131.426.611.277 1.122.65 1.534 1.119.412.462.724.969.937 1.523h.128v-2.855h5.881v16.321c0 1.385-.359 2.561-1.076 3.527-.71.973-1.712 1.715-3.004 2.226-1.293.512-2.802.767-4.528.767Zm.213-10.866c.54 0 1.001-.149 1.385-.448.391-.305.689-.738.895-1.299.213-.569.319-1.25.319-2.046 0-.809-.106-1.502-.319-2.077-.206-.583-.504-1.027-.895-1.332-.384-.312-.845-.469-1.385-.469s-1.001.157-1.385.469c-.376.305-.668.749-.874 1.332-.198.575-.298 1.268-.298 2.077 0 .81.1 1.499.298 2.067.206.561.498.991.874 1.289.384.291.845.437 1.385.437Zm21.997-2.77v-9.205h5.88V548h-5.582v-3.111h-.171c-.355 1.044-.976 1.861-1.864 2.45-.888.583-1.942.874-3.164.874-1.143 0-2.145-.263-3.004-.788a5.402 5.402 0 0 1-1.992-2.174c-.469-.923-.707-1.981-.714-3.174v-10.441h5.881v9.205c.007.81.213 1.445.617 1.907.412.462.988.692 1.726.692.49 0 .913-.103 1.268-.309.362-.213.639-.511.831-.894.199-.391.295-.856.288-1.396Zm14.752-14.659V548h-5.881v-21.818h5.881Zm7.556 22.074c-1.044 0-1.967-.171-2.77-.512a4.168 4.168 0 0 1-1.875-1.576c-.455-.704-.682-1.598-.682-2.685 0-.895.153-1.658.458-2.291a4.134 4.134 0 0 1 1.279-1.566 6.045 6.045 0 0 1 1.907-.926c.731-.213 1.52-.352 2.365-.416.916-.071 1.651-.156 2.205-.256.561-.106.966-.252 1.214-.436a.91.91 0 0 0 .373-.757v-.042c0-.427-.163-.753-.49-.981-.326-.227-.746-.34-1.257-.34-.561 0-1.019.124-1.374.372-.348.242-.558.615-.629 1.119h-5.412c.071-.994.387-1.91.949-2.749.568-.845 1.395-1.519 2.482-2.024 1.086-.511 2.443-.767 4.069-.767 1.172 0 2.223.139 3.154.416.93.27 1.722.65 2.375 1.14.654.483 1.151 1.051 1.492 1.704.348.647.522 1.35.522 2.11V548h-5.497v-2.301h-.128c-.327.611-.724 1.104-1.193 1.481-.462.376-.991.65-1.588.82a7.013 7.013 0 0 1-1.949.256Zm1.917-3.708c.448 0 .867-.092 1.258-.277.397-.184.72-.451.969-.799.249-.348.373-.77.373-1.267v-1.364a6.726 6.726 0 0 1-.501.181 9.603 9.603 0 0 1-1.172.298c-.213.043-.436.082-.671.118-.454.071-.827.188-1.118.351a1.654 1.654 0 0 0-.64.586 1.472 1.472 0 0 0-.202.767c0 .455.16.803.479 1.044.32.242.728.362 1.225.362ZM429.978 548v-16.364h5.71v3.111h.17c.299-1.15.771-1.992 1.417-2.525.654-.532 1.417-.799 2.291-.799.256 0 .508.022.756.064.256.036.501.089.735.16v5.018c-.291-.1-.65-.174-1.076-.224a9.62 9.62 0 0 0-1.097-.075c-.575 0-1.094.132-1.555.395a2.768 2.768 0 0 0-1.076 1.086c-.263.462-.395 1.005-.395 1.63V548h-5.88ZM70.284 758.182V780h-4.943l-7.884-11.463h-.127V780h-5.924v-21.818h5.029l7.755 11.42h.17v-11.42h5.924Zm10.77 22.116c-1.775 0-3.295-.351-4.559-1.054a7.26 7.26 0 0 1-2.908-2.962c-.675-1.271-1.012-2.745-1.012-4.421 0-1.676.337-3.147 1.012-4.411a7.169 7.169 0 0 1 2.908-2.961c1.264-.711 2.784-1.066 4.56-1.066 1.775 0 3.295.355 4.56 1.066a7.168 7.168 0 0 1 2.908 2.961c.674 1.264 1.012 2.735 1.012 4.411 0 1.676-.338 3.15-1.012 4.421a7.26 7.26 0 0 1-2.909 2.962c-1.264.703-2.784 1.054-4.56 1.054Zm.043-4.346c.498 0 .927-.167 1.29-.501.362-.334.642-.81.841-1.428.199-.617.298-1.353.298-2.205 0-.859-.1-1.594-.298-2.205-.199-.618-.48-1.094-.842-1.428a1.841 1.841 0 0 0-1.289-.5c-.525 0-.976.167-1.353.5-.376.334-.664.81-.863 1.428-.198.611-.298 1.346-.298 2.205 0 .852.1 1.588.298 2.205.2.618.487 1.094.863 1.428.377.334.828.501 1.353.501Zm20.583-12.316v4.262H90.898v-4.262h10.782Zm-8.694-3.92h5.881v15.021c0 .227.04.419.117.575.079.15.2.263.363.341.163.071.373.107.628.107.178 0 .384-.021.618-.064.242-.043.419-.078.533-.107l.852 4.134a20.86 20.86 0 0 1-1.129.288 9.96 9.96 0 0 1-1.726.223c-1.35.071-2.482-.067-3.399-.415-.916-.355-1.605-.913-2.066-1.673-.462-.76-.686-1.711-.671-2.855v-15.575Zm18.801 20.582c-1.775 0-3.295-.351-4.56-1.054a7.262 7.262 0 0 1-2.908-2.962c-.675-1.271-1.012-2.745-1.012-4.421 0-1.676.337-3.147 1.012-4.411a7.17 7.17 0 0 1 2.908-2.961c1.265-.711 2.785-1.066 4.56-1.066 1.776 0 3.296.355 4.56 1.066a7.17 7.17 0 0 1 2.908 2.961c.675 1.264 1.012 2.735 1.012 4.411 0 1.676-.337 3.15-1.012 4.421a7.262 7.262 0 0 1-2.908 2.962c-1.264.703-2.784 1.054-4.56 1.054Zm.043-4.346c.497 0 .927-.167 1.289-.501.362-.334.643-.81.841-1.428.199-.617.299-1.353.299-2.205 0-.859-.1-1.594-.299-2.205-.198-.618-.479-1.094-.841-1.428a1.84 1.84 0 0 0-1.289-.5c-.526 0-.977.167-1.353.5-.377.334-.664.81-.863 1.428-.199.611-.298 1.346-.298 2.205 0 .852.099 1.588.298 2.205.199.618.486 1.094.863 1.428.376.334.827.501 1.353.501ZM140.306 765c-.057-.71-.323-1.264-.799-1.662-.468-.398-1.182-.597-2.141-.597-.611 0-1.112.075-1.502.224-.384.142-.668.338-.852.586a1.447 1.447 0 0 0-.288.852c-.014.263.032.501.138.714.114.206.292.394.533.565a4.2 4.2 0 0 0 .927.447c.376.135.824.256 1.342.362l1.79.384c1.207.256 2.241.593 3.1 1.012.86.419 1.563.913 2.11 1.481a5.282 5.282 0 0 1 1.203 1.896 6.68 6.68 0 0 1 .405 2.301c-.007 1.435-.366 2.649-1.076 3.644-.71.994-1.726 1.751-3.047 2.269-1.314.518-2.894.778-4.74.778-1.897 0-3.552-.281-4.965-.842-1.406-.561-2.5-1.424-3.281-2.589-.774-1.172-1.165-2.67-1.172-4.495h5.625c.035.667.202 1.228.501 1.683.298.454.717.799 1.257 1.033.547.235 1.196.352 1.949.352.632 0 1.162-.078 1.588-.235.426-.156.749-.373.969-.65.22-.276.334-.593.341-.948a1.345 1.345 0 0 0-.33-.873c-.206-.256-.547-.483-1.023-.682-.476-.206-1.119-.398-1.928-.575l-2.173-.469c-1.932-.419-3.456-1.119-4.571-2.099-1.108-.987-1.658-2.333-1.651-4.037-.007-1.385.362-2.596 1.108-3.633.753-1.044 1.793-1.858 3.121-2.44 1.336-.582 2.866-.873 4.592-.873 1.761 0 3.285.294 4.57.884 1.286.589 2.277 1.42 2.973 2.493.703 1.065 1.058 2.311 1.065 3.739h-5.668Zm12.864 15.256c-1.044 0-1.967-.171-2.77-.512a4.168 4.168 0 0 1-1.875-1.576c-.454-.704-.681-1.598-.681-2.685 0-.895.152-1.658.458-2.291a4.122 4.122 0 0 1 1.278-1.566 6.056 6.056 0 0 1 1.907-.926 11.58 11.58 0 0 1 2.365-.416c.916-.071 1.651-.156 2.205-.256.561-.106.966-.252 1.215-.436a.912.912 0 0 0 .373-.757v-.042c0-.427-.164-.753-.49-.981-.327-.227-.746-.34-1.257-.34-.562 0-1.02.124-1.375.372-.348.242-.557.615-.628 1.119h-5.412c.071-.994.387-1.91.948-2.749.568-.845 1.396-1.519 2.482-2.024 1.087-.511 2.443-.767 4.07-.767 1.172 0 2.223.139 3.153.416.931.27 1.722.65 2.376 1.14.653.483 1.15 1.051 1.491 1.704.348.647.522 1.35.522 2.11V780h-5.497v-2.301h-.128c-.326.611-.724 1.104-1.193 1.481-.461.376-.991.65-1.587.82a7.02 7.02 0 0 1-1.95.256Zm1.918-3.708c.447 0 .866-.092 1.257-.277a2.41 2.41 0 0 0 .969-.799c.249-.348.373-.77.373-1.267v-1.364a6.863 6.863 0 0 1-.5.181 9.603 9.603 0 0 1-1.172.298c-.213.043-.437.082-.671.118-.455.071-.828.188-1.119.351a1.658 1.658 0 0 0-.639.586 1.473 1.473 0 0 0-.203.767c0 .455.16.803.48 1.044.319.242.728.362 1.225.362Zm17.128-5.753V780h-5.881v-16.364h5.583v3.111h.17c.355-1.037.98-1.85 1.875-2.439.902-.59 1.953-.885 3.153-.885 1.158 0 2.163.267 3.015.799a5.308 5.308 0 0 1 1.993 2.174c.475.923.71 1.978.703 3.164V780h-5.881v-9.205c.007-.809-.199-1.445-.618-1.907-.412-.461-.987-.692-1.726-.692-.483 0-.905.107-1.267.32a2.045 2.045 0 0 0-.821.895c-.192.383-.291.845-.298 1.384Zm28.471-1.832h-5.412a1.487 1.487 0 0 0-.351-.863 1.983 1.983 0 0 0-.799-.554 2.715 2.715 0 0 0-1.066-.202c-.504 0-.937.092-1.299.277-.363.184-.54.447-.533.788-.007.242.096.465.309.671.22.206.643.366 1.268.48l3.323.596c1.677.306 2.923.821 3.74 1.545.824.717 1.239 1.68 1.246 2.887-.007 1.165-.355 2.177-1.044 3.036-.682.853-1.616 1.513-2.802 1.982-1.179.461-2.524.692-4.037.692-2.5 0-4.457-.511-5.87-1.534-1.407-1.023-2.191-2.372-2.355-4.048h5.838c.079.518.334.92.767 1.204.441.277.995.415 1.662.415.54 0 .984-.092 1.332-.277.355-.184.536-.447.543-.788-.007-.313-.163-.561-.468-.746-.299-.185-.767-.334-1.407-.447l-2.897-.512c-1.669-.291-2.919-.845-3.75-1.662-.831-.816-1.243-1.867-1.236-3.153-.007-1.136.291-2.099.895-2.887.611-.796 1.481-1.399 2.61-1.811 1.136-.419 2.482-.629 4.037-.629 2.366 0 4.23.49 5.594 1.47 1.37.981 2.091 2.337 2.162 4.07Zm28.94-2.599h-6.008a4.09 4.09 0 0 0-.341-1.353 3.053 3.053 0 0 0-.746-1.044 3.106 3.106 0 0 0-1.14-.682c-.447-.164-.955-.245-1.523-.245-.995 0-1.836.241-2.525.724-.682.483-1.201 1.176-1.556 2.078-.348.902-.522 1.985-.522 3.249 0 1.335.178 2.454.533 3.356.362.895.884 1.569 1.566 2.024.682.447 1.502.671 2.461.671.547 0 1.037-.067 1.47-.202.433-.142.81-.345 1.129-.608.32-.262.579-.578.778-.948.206-.376.345-.799.416-1.268l6.008.043c-.071.923-.33 1.864-.778 2.823-.447.952-1.083 1.833-1.907 2.642-.816.803-1.828 1.449-3.036 1.939-1.207.49-2.61.735-4.208.735-2.003 0-3.8-.429-5.39-1.289-1.584-.859-2.838-2.123-3.761-3.792-.916-1.669-1.374-3.711-1.374-6.126 0-2.429.468-4.475 1.406-6.136.937-1.669 2.202-2.93 3.792-3.782 1.591-.86 3.367-1.289 5.327-1.289 1.378 0 2.646.188 3.803.564 1.158.377 2.174.927 3.047 1.651a8.166 8.166 0 0 1 2.11 2.653c.532 1.051.855 2.255.969 3.612Zm11.679-8.182h5.838v14.957c-.007 1.421-.366 2.671-1.076 3.75-.703 1.073-1.676 1.911-2.919 2.514-1.236.597-2.66.895-4.272.895-1.399 0-2.678-.241-3.835-.724a6.091 6.091 0 0 1-2.77-2.301c-.689-1.051-1.03-2.415-1.023-4.091h5.923c.022.547.114 1.008.277 1.385.171.376.405.66.704.852.305.185.674.277 1.107.277.441 0 .81-.096 1.108-.288.306-.191.537-.475.693-.852.156-.383.238-.856.245-1.417v-14.957ZM249.951 780v-21.818h5.923v8.821h.299l6.562-8.821h6.904l-7.372 9.716L269.809 780h-7.074l-4.9-8.182-1.961 2.557V780h-5.923Zm39.183-15c-.056-.71-.323-1.264-.799-1.662-.468-.398-1.182-.597-2.141-.597-.611 0-1.111.075-1.502.224-.384.142-.668.338-.852.586a1.447 1.447 0 0 0-.288.852c-.014.263.032.501.139.714.113.206.291.394.532.565.242.163.551.312.927.447s.824.256 1.342.362l1.79.384c1.208.256 2.241.593 3.1 1.012.86.419 1.563.913 2.11 1.481a5.269 5.269 0 0 1 1.203 1.896 6.68 6.68 0 0 1 .405 2.301c-.007 1.435-.365 2.649-1.076 3.644-.71.994-1.726 1.751-3.047 2.269-1.313.518-2.894.778-4.74.778-1.897 0-3.551-.281-4.965-.842-1.406-.561-2.5-1.424-3.281-2.589-.774-1.172-1.165-2.67-1.172-4.495h5.625c.036.667.202 1.228.501 1.683.298.454.717.799 1.257 1.033.547.235 1.197.352 1.949.352.633 0 1.162-.078 1.588-.235.426-.156.749-.373.969-.65.22-.276.334-.593.341-.948a1.345 1.345 0 0 0-.33-.873c-.206-.256-.547-.483-1.023-.682-.476-.206-1.118-.398-1.928-.575l-2.173-.469c-1.932-.419-3.456-1.119-4.571-2.099-1.108-.987-1.658-2.333-1.651-4.037-.007-1.385.362-2.596 1.108-3.633.753-1.044 1.793-1.858 3.121-2.44 1.336-.582 2.866-.873 4.592-.873 1.761 0 3.285.294 4.57.884 1.286.589 2.277 1.42 2.973 2.493.703 1.065 1.058 2.311 1.065 3.739h-5.668Zm28.589 1.364h-6.009a4.042 4.042 0 0 0-.341-1.353 3.05 3.05 0 0 0-.745-1.044 3.106 3.106 0 0 0-1.14-.682 4.414 4.414 0 0 0-1.524-.245c-.994 0-1.836.241-2.525.724-.681.483-1.2 1.176-1.555 2.078-.348.902-.522 1.985-.522 3.249 0 1.335.178 2.454.533 3.356.362.895.884 1.569 1.566 2.024.682.447 1.502.671 2.461.671.547 0 1.037-.067 1.47-.202.433-.142.81-.345 1.129-.608.32-.262.579-.578.778-.948a3.8 3.8 0 0 0 .415-1.268l6.009.043c-.071.923-.33 1.864-.778 2.823-.447.952-1.083 1.833-1.907 2.642-.817.803-1.829 1.449-3.036 1.939s-2.61.735-4.208.735c-2.003 0-3.8-.429-5.391-1.289-1.584-.859-2.837-2.123-3.76-3.792-.917-1.669-1.375-3.711-1.375-6.126 0-2.429.469-4.475 1.407-6.136.937-1.669 2.201-2.93 3.792-3.782 1.591-.86 3.367-1.289 5.327-1.289 1.378 0 2.645.188 3.803.564 1.158.377 2.173.927 3.047 1.651a8.15 8.15 0 0 1 2.109 2.653c.533 1.051.856 2.255.97 3.612ZM326.387 780v-21.818h9.46c1.662 0 3.057.224 4.187.671 1.136.447 1.992 1.08 2.567 1.896.583.817.874 1.779.874 2.887 0 .803-.178 1.534-.533 2.195a4.712 4.712 0 0 1-1.47 1.662c-.632.44-1.371.746-2.216.916v.213a5.48 5.48 0 0 1 2.557.714 4.89 4.89 0 0 1 1.832 1.8c.455.76.682 1.655.682 2.685 0 1.193-.312 2.255-.937 3.185-.618.931-1.499 1.662-2.642 2.195-1.144.533-2.508.799-4.091.799h-10.27Zm5.923-4.73h2.77c.994 0 1.74-.185 2.237-.554.497-.377.746-.93.746-1.662 0-.511-.117-.945-.352-1.3a2.186 2.186 0 0 0-1.001-.809c-.426-.185-.941-.277-1.545-.277h-2.855v4.602Zm0-8.267h2.429c.518 0 .977-.082 1.374-.245.398-.164.707-.398.927-.703.227-.313.341-.693.341-1.14 0-.675-.241-1.19-.724-1.545-.483-.362-1.094-.543-1.833-.543h-2.514v4.176Zm22.085 13.295c-1.776 0-3.296-.351-4.56-1.054a7.264 7.264 0 0 1-2.909-2.962c-.674-1.271-1.012-2.745-1.012-4.421 0-1.676.338-3.147 1.012-4.411a7.173 7.173 0 0 1 2.909-2.961c1.264-.711 2.784-1.066 4.56-1.066 1.775 0 3.295.355 4.559 1.066a7.173 7.173 0 0 1 2.909 2.961c.674 1.264 1.012 2.735 1.012 4.411 0 1.676-.338 3.15-1.012 4.421a7.264 7.264 0 0 1-2.909 2.962c-1.264.703-2.784 1.054-4.559 1.054Zm.042-4.346c.497 0 .927-.167 1.289-.501.362-.334.643-.81.842-1.428.199-.617.298-1.353.298-2.205 0-.859-.099-1.594-.298-2.205-.199-.618-.48-1.094-.842-1.428a1.84 1.84 0 0 0-1.289-.5c-.525 0-.976.167-1.353.5-.376.334-.664.81-.863 1.428-.199.611-.298 1.346-.298 2.205 0 .852.099 1.588.298 2.205.199.618.487 1.094.863 1.428.377.334.828.501 1.353.501Zm16.705-17.77V780h-5.881v-21.818h5.881Zm8.919 22.031a5.962 5.962 0 0 1-3.217-.916c-.973-.611-1.754-1.538-2.344-2.781-.582-1.243-.873-2.809-.873-4.698 0-1.974.305-3.579.916-4.815.618-1.236 1.413-2.141 2.386-2.717.98-.575 2.01-.863 3.09-.863.809 0 1.52.142 2.13.426.611.277 1.122.65 1.534 1.119.412.462.725.969.938 1.523h.085v-8.309h5.881V780h-5.838v-2.685h-.128a4.598 4.598 0 0 1-2.514 2.525c-.597.249-1.279.373-2.046.373Zm2.174-4.517c.539 0 1.001-.156 1.384-.469.391-.319.689-.767.895-1.342.213-.582.32-1.271.32-2.067 0-.809-.107-1.502-.32-2.077-.206-.583-.504-1.027-.895-1.332-.383-.312-.845-.469-1.384-.469-.54 0-1.002.157-1.385.469-.377.305-.668.749-.874 1.332-.199.575-.298 1.268-.298 2.077 0 .81.099 1.506.298 2.088.206.576.497 1.019.874 1.332.383.305.845.458 1.385.458ZM54.24 828h-3.494l7.851-21.818h3.804L70.252 828h-3.494l-6.168-17.855h-.171L54.24 828Zm.586-8.544h11.335v2.77H54.826v-2.77Zm30.269-7.82L79.161 828h-3.409l-5.945-16.364h3.42l4.144 12.593h.17l4.134-12.593h3.42Zm7.287 16.726c-1.037 0-1.975-.192-2.813-.575a4.739 4.739 0 0 1-1.992-1.694c-.483-.739-.724-1.644-.724-2.717 0-.923.177-1.683.532-2.279a3.928 3.928 0 0 1 1.439-1.417 7.528 7.528 0 0 1 2.024-.789 20.174 20.174 0 0 1 2.28-.404l2.386-.277c.61-.079 1.055-.203 1.332-.373.277-.171.415-.448.415-.831v-.075c0-.93-.263-1.651-.788-2.163-.519-.511-1.293-.767-2.323-.767-1.072 0-1.917.238-2.535.714-.61.469-1.033.991-1.268 1.566l-2.993-.682c.355-.994.873-1.796 1.555-2.407a6.309 6.309 0 0 1 2.376-1.343 9.278 9.278 0 0 1 2.823-.426c.653 0 1.346.078 2.077.235a6.076 6.076 0 0 1 2.067.831c.646.404 1.175.983 1.587 1.736.412.746.618 1.715.618 2.909V828h-3.11v-2.237h-.128c-.206.412-.515.817-.927 1.214-.412.398-.941.728-1.588.991-.646.263-1.42.394-2.322.394Zm.692-2.557c.881 0 1.634-.174 2.259-.522.632-.348 1.111-.802 1.438-1.363.334-.568.5-1.176.5-1.822v-2.109c-.113.113-.333.22-.66.319-.32.093-.685.174-1.097.245-.412.064-.813.125-1.204.181l-.98.128a7.928 7.928 0 0 0-1.694.394c-.504.185-.909.451-1.214.799-.299.341-.448.796-.448 1.364 0 .788.291 1.385.874 1.79.582.398 1.324.596 2.226.596ZM104.7 828v-16.364h3.185V828H104.7Zm1.609-18.888c-.554 0-1.03-.185-1.428-.554-.391-.377-.586-.824-.586-1.343 0-.525.195-.973.586-1.342a2.004 2.004 0 0 1 1.428-.565c.554 0 1.026.188 1.416.565.398.369.597.817.597 1.342 0 .519-.199.966-.597 1.343-.39.369-.862.554-1.416.554Zm9.047-2.93V828h-3.185v-21.818h3.185Zm9.047 22.18c-1.037 0-1.974-.192-2.812-.575a4.738 4.738 0 0 1-1.992-1.694c-.483-.739-.725-1.644-.725-2.717 0-.923.178-1.683.533-2.279a3.924 3.924 0 0 1 1.438-1.417 7.54 7.54 0 0 1 2.024-.789 20.192 20.192 0 0 1 2.28-.404l2.387-.277c.61-.079 1.054-.203 1.331-.373.277-.171.416-.448.416-.831v-.075c0-.93-.263-1.651-.789-2.163-.518-.511-1.292-.767-2.322-.767-1.073 0-1.918.238-2.536.714-.61.469-1.033.991-1.267 1.566l-2.994-.682c.355-.994.874-1.796 1.555-2.407a6.31 6.31 0 0 1 2.376-1.343 9.278 9.278 0 0 1 2.823-.426c.654 0 1.346.078 2.078.235a6.074 6.074 0 0 1 2.066.831c.647.404 1.176.983 1.588 1.736.412.746.618 1.715.618 2.909V828h-3.111v-2.237h-.128c-.206.412-.515.817-.927 1.214-.412.398-.941.728-1.587.991s-1.421.394-2.323.394Zm.693-2.557c.881 0 1.633-.174 2.258-.522.633-.348 1.112-.802 1.439-1.363.333-.568.5-1.176.5-1.822v-2.109c-.113.113-.333.22-.66.319-.32.093-.686.174-1.097.245-.412.064-.814.125-1.204.181-.391.05-.718.093-.98.128a7.924 7.924 0 0 0-1.694.394c-.505.185-.909.451-1.215.799-.298.341-.447.796-.447 1.364 0 .788.291 1.385.873 1.79.583.398 1.325.596 2.227.596ZM136.977 828v-21.818h3.185v8.107h.192a8.9 8.9 0 0 1 .799-1.182c.348-.448.831-.839 1.449-1.172.618-.341 1.435-.512 2.45-.512 1.321 0 2.5.334 3.537 1.002 1.037.667 1.85 1.63 2.44 2.887.597 1.257.895 2.77.895 4.538 0 1.769-.295 3.285-.884 4.549-.59 1.257-1.4 2.227-2.429 2.909-1.03.674-2.206 1.012-3.527 1.012-.994 0-1.807-.167-2.439-.501-.625-.334-1.115-.725-1.47-1.172a8.795 8.795 0 0 1-.821-1.193h-.266V828h-3.111Zm3.122-8.182c0 1.151.166 2.159.5 3.026.334.866.817 1.544 1.449 2.035.632.483 1.406.724 2.323.724.951 0 1.747-.252 2.386-.756.639-.512 1.122-1.204 1.449-2.078.334-.873.5-1.857.5-2.951 0-1.079-.163-2.049-.49-2.908-.319-.86-.802-1.538-1.448-2.035-.64-.497-1.439-.746-2.397-.746-.924 0-1.705.238-2.344.714-.632.476-1.112 1.14-1.438 1.992-.327.852-.49 1.847-.49 2.983Zm18.587-13.636V828h-3.185v-21.818h3.185Zm11.338 22.148c-1.612 0-3.001-.344-4.166-1.033-1.157-.696-2.052-1.673-2.684-2.93-.625-1.264-.938-2.745-.938-4.442 0-1.676.313-3.154.938-4.432.632-1.279 1.513-2.276 2.642-2.994 1.136-.717 2.464-1.076 3.984-1.076a8.03 8.03 0 0 1 2.685.458 6.51 6.51 0 0 1 2.333 1.439c.689.653 1.232 1.502 1.63 2.546.398 1.037.597 2.297.597 3.782v1.129h-13.008v-2.386h9.886c0-.838-.17-1.581-.511-2.227a3.88 3.88 0 0 0-1.438-1.545c-.611-.376-1.329-.564-2.152-.564-.895 0-1.677.22-2.344.66a4.428 4.428 0 0 0-1.534 1.705 4.92 4.92 0 0 0-.533 2.269v1.864c0 1.094.192 2.024.575 2.791.391.768.934 1.353 1.63 1.758.696.398 1.51.597 2.44.597.604 0 1.154-.085 1.651-.256.497-.177.927-.44 1.289-.788.362-.348.639-.778.831-1.289l3.015.543a5.45 5.45 0 0 1-1.3 2.333c-.617.661-1.395 1.176-2.333 1.545-.93.362-1.992.543-3.185.543Zm25.387 0c-1.534 0-2.873-.351-4.016-1.054-1.144-.704-2.032-1.687-2.664-2.951-.632-1.265-.948-2.742-.948-4.432 0-1.698.316-3.182.948-4.453.632-1.272 1.52-2.259 2.664-2.962 1.143-.703 2.482-1.055 4.016-1.055 1.534 0 2.873.352 4.016 1.055 1.144.703 2.032 1.69 2.664 2.962.632 1.271.948 2.755.948 4.453 0 1.69-.316 3.167-.948 4.432-.632 1.264-1.52 2.247-2.664 2.951-1.143.703-2.482 1.054-4.016 1.054Zm.011-2.674c.994 0 1.818-.263 2.471-.788.654-.526 1.137-1.225 1.449-2.099.32-.873.48-1.836.48-2.887 0-1.044-.16-2.003-.48-2.876-.312-.881-.795-1.588-1.449-2.12-.653-.533-1.477-.799-2.471-.799-1.002 0-1.833.266-2.493.799-.654.532-1.14 1.239-1.46 2.12-.312.873-.468 1.832-.468 2.876 0 1.051.156 2.014.468 2.887.32.874.806 1.573 1.46 2.099.66.525 1.491.788 2.493.788Zm14.358-7.372V828h-3.186v-16.364h3.058v2.664h.202a4.674 4.674 0 0 1 1.769-2.088c.81-.526 1.829-.789 3.057-.789 1.115 0 2.092.235 2.93.703.838.462 1.488 1.151 1.95 2.067.461.916.692 2.049.692 3.399V828h-3.185v-10.025c0-1.186-.309-2.113-.927-2.78-.618-.675-1.467-1.012-2.546-1.012-.739 0-1.396.159-1.971.479-.568.32-1.019.788-1.353 1.406-.327.611-.49 1.35-.49 2.216Zm37.705-5.209a6.648 6.648 0 0 0-.831-1.737 5.314 5.314 0 0 0-1.225-1.321 5.158 5.158 0 0 0-1.63-.842 6.58 6.58 0 0 0-1.992-.287c-1.229 0-2.337.316-3.324.948-.987.632-1.769 1.559-2.344 2.78-.568 1.215-.852 2.703-.852 4.464 0 1.769.287 3.264.863 4.485.575 1.222 1.363 2.149 2.365 2.781 1.001.632 2.141.948 3.419.948 1.187 0 2.22-.241 3.101-.724a5.052 5.052 0 0 0 2.056-2.046c.49-.888.735-1.932.735-3.132l.852.16h-6.243v-2.717h8.576v2.482c0 1.833-.39 3.424-1.172 4.773a7.975 7.975 0 0 1-3.217 3.111c-1.364.732-2.926 1.097-4.688 1.097-1.974 0-3.707-.454-5.198-1.363-1.485-.909-2.642-2.198-3.473-3.868-.831-1.676-1.247-3.664-1.247-5.965 0-1.74.242-3.303.725-4.688.483-1.385 1.161-2.56 2.034-3.526a8.89 8.89 0 0 1 3.101-2.227c1.193-.518 2.496-.777 3.909-.777 1.179 0 2.277.174 3.292.522a8.887 8.887 0 0 1 2.728 1.48 8.373 8.373 0 0 1 3.057 5.189h-3.377Zm14.342 15.255c-1.534 0-2.873-.351-4.016-1.054-1.144-.704-2.032-1.687-2.664-2.951-.632-1.265-.948-2.742-.948-4.432 0-1.698.316-3.182.948-4.453.632-1.272 1.52-2.259 2.664-2.962 1.143-.703 2.482-1.055 4.016-1.055 1.534 0 2.873.352 4.016 1.055 1.144.703 2.032 1.69 2.664 2.962.632 1.271.948 2.755.948 4.453 0 1.69-.316 3.167-.948 4.432-.632 1.264-1.52 2.247-2.664 2.951-1.143.703-2.482 1.054-4.016 1.054Zm.011-2.674c.994 0 1.818-.263 2.471-.788.654-.526 1.137-1.225 1.449-2.099.32-.873.48-1.836.48-2.887 0-1.044-.16-2.003-.48-2.876-.312-.881-.795-1.588-1.449-2.12-.653-.533-1.477-.799-2.471-.799-1.002 0-1.833.266-2.493.799-.654.532-1.14 1.239-1.46 2.12-.312.873-.468 1.832-.468 2.876 0 1.051.156 2.014.468 2.887.32.874.806 1.573 1.46 2.099.66.525 1.491.788 2.493.788Zm18.065 2.674c-1.534 0-2.873-.351-4.016-1.054-1.144-.704-2.031-1.687-2.663-2.951-.633-1.265-.949-2.742-.949-4.432 0-1.698.316-3.182.949-4.453.632-1.272 1.519-2.259 2.663-2.962 1.143-.703 2.482-1.055 4.016-1.055 1.534 0 2.873.352 4.017 1.055 1.143.703 2.031 1.69 2.663 2.962.632 1.271.948 2.755.948 4.453 0 1.69-.316 3.167-.948 4.432-.632 1.264-1.52 2.247-2.663 2.951-1.144.703-2.483 1.054-4.017 1.054Zm.011-2.674c.994 0 1.818-.263 2.471-.788.654-.526 1.137-1.225 1.449-2.099.32-.873.48-1.836.48-2.887 0-1.044-.16-2.003-.48-2.876-.312-.881-.795-1.588-1.449-2.12-.653-.533-1.477-.799-2.471-.799-1.002 0-1.833.266-2.493.799-.653.532-1.14 1.239-1.46 2.12-.312.873-.468 1.832-.468 2.876 0 1.051.156 2.014.468 2.887.32.874.807 1.573 1.46 2.099.66.525 1.491.788 2.493.788Zm18.033 8.821c-1.299 0-2.418-.17-3.355-.511-.931-.341-1.691-.792-2.28-1.353-.59-.561-1.03-1.175-1.321-1.843l2.738-1.129c.191.312.447.642.767.99.326.356.767.657 1.321.906.561.249 1.282.373 2.162.373 1.208 0 2.206-.295 2.994-.884.788-.583 1.183-1.513 1.183-2.792v-3.217h-.203a7.283 7.283 0 0 1-.831 1.161c-.355.426-.845.796-1.47 1.108-.625.313-1.438.469-2.44.469-1.292 0-2.457-.302-3.494-.906-1.03-.61-1.847-1.509-2.45-2.695-.597-1.193-.895-2.66-.895-4.4 0-1.74.295-3.231.884-4.474.597-1.243 1.413-2.195 2.45-2.855 1.037-.668 2.213-1.002 3.527-1.002 1.015 0 1.836.171 2.461.512.625.333 1.111.724 1.459 1.172.355.447.629.841.82 1.182h.235v-2.653h3.121v16.726c0 1.406-.326 2.561-.98 3.463-.653.902-1.537 1.569-2.653 2.002-1.108.434-2.358.65-3.75.65Zm-.032-9.364c.917 0 1.691-.213 2.323-.639.639-.434 1.122-1.051 1.449-1.854.334-.81.501-1.779.501-2.908 0-1.101-.164-2.071-.491-2.909-.326-.838-.806-1.491-1.438-1.96-.632-.476-1.413-.714-2.344-.714-.958 0-1.757.249-2.397.746-.639.49-1.122 1.158-1.448 2.003-.32.845-.48 1.79-.48 2.834 0 1.072.164 2.013.49 2.823.327.809.81 1.442 1.449 1.896.646.455 1.442.682 2.386.682Zm14.873-18.931V828h-3.186v-21.818h3.186Zm11.338 22.148c-1.613 0-3.001-.344-4.166-1.033-1.158-.696-2.053-1.673-2.685-2.93-.625-1.264-.937-2.745-.937-4.442 0-1.676.312-3.154.937-4.432.632-1.279 1.513-2.276 2.642-2.994 1.137-.717 2.465-1.076 3.985-1.076.923 0 1.818.153 2.684.458a6.504 6.504 0 0 1 2.334 1.439c.688.653 1.232 1.502 1.63 2.546.397 1.037.596 2.297.596 3.782v1.129h-13.008v-2.386h9.887c0-.838-.171-1.581-.512-2.227a3.873 3.873 0 0 0-1.438-1.545c-.611-.376-1.328-.564-2.152-.564-.895 0-1.676.22-2.344.66a4.436 4.436 0 0 0-1.534 1.705 4.92 4.92 0 0 0-.532 2.269v1.864c0 1.094.191 2.024.575 2.791.391.768.934 1.353 1.63 1.758.696.398 1.509.597 2.439.597.604 0 1.155-.085 1.652-.256.497-.177.927-.44 1.289-.788.362-.348.639-.778.831-1.289l3.015.543a5.46 5.46 0 0 1-1.3 2.333c-.618.661-1.396 1.176-2.333 1.545-.93.362-1.992.543-3.185.543Zm18.75-.33v-21.818h13.529v2.834h-10.238v6.647h9.269v2.824h-9.269V828h-3.291Zm23.014.33c-1.535 0-2.873-.351-4.017-1.054-1.143-.704-2.031-1.687-2.663-2.951-.632-1.265-.948-2.742-.948-4.432 0-1.698.316-3.182.948-4.453.632-1.272 1.52-2.259 2.663-2.962 1.144-.703 2.482-1.055 4.017-1.055 1.534 0 2.872.352 4.016 1.055 1.143.703 2.031 1.69 2.663 2.962.632 1.271.948 2.755.948 4.453 0 1.69-.316 3.167-.948 4.432-.632 1.264-1.52 2.247-2.663 2.951-1.144.703-2.482 1.054-4.016 1.054Zm.01-2.674c.995 0 1.818-.263 2.472-.788.653-.526 1.136-1.225 1.449-2.099.319-.873.479-1.836.479-2.887 0-1.044-.16-2.003-.479-2.876-.313-.881-.796-1.588-1.449-2.12-.654-.533-1.477-.799-2.472-.799-1.001 0-1.832.266-2.493.799-.653.532-1.14 1.239-1.459 2.12-.313.873-.469 1.832-.469 2.876 0 1.051.156 2.014.469 2.887.319.874.806 1.573 1.459 2.099.661.525 1.492.788 2.493.788Zm14.358-7.372V828h-3.185v-16.364h3.058v2.664h.202a4.671 4.671 0 0 1 1.768-2.088c.81-.526 1.829-.789 3.058-.789 1.115 0 2.092.235 2.93.703.838.462 1.488 1.151 1.949 2.067.462.916.693 2.049.693 3.399V828h-3.186v-10.025c0-1.186-.309-2.113-.927-2.78-.617-.675-1.466-1.012-2.546-1.012-.738 0-1.395.159-1.971.479-.568.32-1.019.788-1.353 1.406-.326.611-.49 1.35-.49 2.216Zm22.383-6.648v2.557h-8.938v-2.557h8.938Zm-6.541-3.92h3.185v15.479c0 .618.093 1.083.277 1.396.185.305.423.515.714.628.298.107.622.16.97.16.255 0 .479-.017.671-.053l.447-.085.575 2.631a5.324 5.324 0 0 1-.788.213 6.239 6.239 0 0 1-1.278.128 5.62 5.62 0 0 1-2.344-.447 4.033 4.033 0 0 1-1.758-1.449c-.447-.654-.671-1.474-.671-2.461v-16.14Zm22.063 7.915-2.887.512a3.416 3.416 0 0 0-.575-1.055c-.256-.334-.604-.607-1.044-.82-.441-.213-.991-.32-1.651-.32-.902 0-1.655.203-2.259.607-.604.398-.906.913-.906 1.545 0 .547.203.987.608 1.321.405.334 1.058.607 1.96.82l2.599.597c1.506.348 2.628.884 3.367 1.609.738.724 1.108 1.665 1.108 2.823 0 .98-.284 1.854-.852 2.621-.562.76-1.346 1.356-2.355 1.789-1.001.434-2.163.65-3.484.65-1.832 0-3.327-.39-4.485-1.172-1.157-.788-1.868-1.907-2.13-3.355l3.079-.469c.191.802.585 1.41 1.182 1.822.597.404 1.374.607 2.333.607 1.044 0 1.879-.217 2.504-.65.625-.44.937-.977.937-1.609 0-.511-.192-.941-.575-1.289-.377-.348-.955-.611-1.737-.788l-2.769-.607c-1.527-.348-2.657-.902-3.388-1.662-.725-.76-1.087-1.723-1.087-2.887 0-.966.27-1.811.81-2.536.54-.724 1.285-1.289 2.237-1.694.952-.412 2.042-.618 3.271-.618 1.768 0 3.16.384 4.176 1.151 1.015.76 1.686 1.779 2.013 3.057Z"/></svg>