<svg xmlns="http://www.w3.org/2000/svg" width="1920" height="1080" fill="none"><path fill="#1A73E8" d="M377.897 270.445c5.19-7.439 11.591-19.03 16.781-28.718l-6.92-2.941c-3.633 8.65-10.38 21.279-15.397 28.891l5.536 2.768Zm-57.263-29.41c5.363 8.477 10.38 19.722 12.11 27.161l6.574-2.768c-1.73-7.093-7.093-18.165-12.629-26.642l-6.055 2.249Zm-13.148 32.697V233.25h46.191v40.482h-46.191Zm99.648 0h-45.326V233.25h45.326v40.482Zm27.334 52.246h-72.66v-19.722h57.609v-7.266h-57.609v-17.819h53.63v-55.187h-115.91v55.187h54.149v17.819h-57.436v7.266h57.436v19.722h-71.968v7.612h152.759v-7.612Zm-144.282 50.343c8.477-7.612 15.57-20.068 20.068-30.794l-7.612-2.076c-4.325 10.726-11.764 22.317-19.722 29.064l7.266 3.806Zm41.693-29.583c2.249 8.996 3.633 20.933 3.633 27.853l8.131-1.211c0-6.574-1.73-18.338-3.979-26.988l-7.785.346Zm35.984.173c4.152 8.823 8.304 20.587 10.034 27.68l8.131-2.076c-1.903-6.92-6.228-18.511-10.38-26.988l-7.785 1.384Zm35.638-.519c8.823 8.996 18.857 21.452 23.528 29.237l7.612-3.46c-4.844-7.958-14.878-20.068-23.701-28.545l-7.439 2.768ZM491.174 219.583c-8.996 26.988-23.355 53.803-39.098 71.276 1.557 1.903 4.325 5.709 5.19 7.439 5.882-6.92 11.937-15.051 17.3-24.047v101.205h7.958V260.238c6.228-12.11 11.937-25.258 16.435-38.579l-7.785-2.076Zm117.467 44.634v-7.958h-53.976v-37.022h-8.131v37.022h-51.727v7.958h45.153c-11.245 30.448-30.621 61.069-50.343 76.12 2.076 1.384 4.844 4.152 6.055 6.055 20.068-16.608 39.271-47.921 50.862-80.272v67.816h-31.832v7.785h31.832v33.216h8.131v-33.216h30.448v-7.785h-30.448v-67.989c11.072 32.178 29.929 63.664 49.997 80.099 1.73-2.076 4.498-5.19 6.401-6.747-19.722-14.532-38.925-44.634-49.478-75.082h47.056ZM779.009 255.394v-8.131h-92.382c3.806-8.65 6.747-17.3 9.515-26.123l-8.477-2.249c-2.595 9.515-5.882 19.03-10.034 28.372h-48.094v8.131h44.461c-11.245 23.355-27.161 45.153-47.921 60.377 1.557 1.73 3.806 5.19 4.844 6.92 8.477-6.228 15.916-13.321 22.836-21.279v73.525h8.131v-83.559c8.304-11.245 15.224-23.355 21.279-35.984h95.842Zm-48.267 108.298v-54.495h41.866v-7.958h-41.866v-35.984h-8.304v35.984h-41.001v7.958h41.001v54.495h-47.921v7.958h104.838v-7.958h-48.613ZM844.711 240.516c-7.266-6.055-21.452-13.84-33.043-18.857l-3.979 5.536c11.591 5.017 25.604 13.321 32.697 19.376l4.325-6.055Zm-9.861 46.537c-6.92-5.709-20.76-13.494-31.659-18.165l-3.979 5.363c11.072 5.19 24.739 13.321 31.659 19.03l3.979-6.228Zm2.249 24.393c-9.688 19.203-23.355 42.904-32.87 56.225l6.401 5.19c10.034-15.57 22.836-38.233 32.178-56.398l-5.709-5.017Zm99.475-70.065c-6.574 33.216-18.684 59.858-34.6 80.445-15.051-22.144-25.431-49.824-32.351-80.445h66.951Zm3.806-8.304-1.557.346h-85.635v7.958h8.65c7.785 33.562 18.857 63.145 34.946 86.673-16.608 19.376-36.676 32.87-58.128 40.828 1.73 1.73 3.806 4.671 5.017 6.92 21.279-8.65 41.347-21.798 58.128-41.001 13.321 17.473 29.929 31.313 50.343 40.309 1.384-2.076 3.633-4.844 5.536-6.401-20.587-8.477-37.368-22.317-50.862-39.963 18.338-23.182 32.005-53.976 38.752-93.939l-5.19-1.73ZM987.572 246.052h125.768v24.912h8.48v-32.87h-62.63c-2.25-6.055-7.26-14.186-12.11-20.414l-7.78 2.768c3.8 5.19 7.96 12.11 10.38 17.646h-70.239v32.87h8.131v-24.912Zm136.498 66.259h-69.2v-8.477c15.05-7.785 32-19.722 43.25-31.313l-5.88-4.152-1.91.346h-85.98v7.958h77.68c-9.86 8.823-23.7 18.165-35.81 23.874v11.764h-69.547v8.131h69.547v43.942c0 2.422-.87 3.114-3.81 3.287-2.77.173-12.8.173-25.26 0 1.39 2.249 3.12 5.536 3.81 7.958 14.53 0 22.66 0 27.51-1.557 4.67-1.384 6.4-3.979 6.4-9.861v-43.769h69.2v-8.131ZM1283.71 247.782c-5.19-6.401-15.22-17.3-23.18-25.258l-6.4 3.979c7.96 8.131 18.16 19.549 23.01 26.123l6.57-4.844Zm-15.57 49.132c-6.57 16.954-17.13 30.794-29.58 41.866-13.5-11.591-23.88-25.604-31.32-41.866h60.9Zm5.36-8.65-1.38.519h-62.97a155.828 155.828 0 0 0 7.09-20.933h80.27v-8.131h-77.85c3.29-12.456 5.54-25.604 7.61-39.617l-9.34-1.557c-1.9 14.532-4.32 28.372-7.78 41.174h-35.47c4.85-9.169 9.52-21.279 12.98-33.216l-9-2.076c-2.77 13.148-9.34 27.334-11.42 30.967-1.73 3.46-3.28 6.055-5.53 6.574 1.04 1.903 2.42 6.401 2.94 8.304 1.56-1.557 6.57-2.422 18.34-2.422h24.91c-11.25 37.541-30.8 67.124-62.97 88.057 2.07 1.384 5.01 4.152 6.22 5.882 23.36-15.051 40.14-34.6 52.25-57.955 7.44 15.397 17.65 28.891 29.93 39.963-15.74 12.11-34.25 20.414-52.94 25.258 1.56 1.73 3.46 5.017 4.33 7.093 19.55-5.709 38.75-14.359 55.01-26.988 16.09 12.629 35.64 21.798 58.47 27.161 1.04-2.249 3.29-5.536 5.02-7.266-22.32-4.498-41.69-13.148-57.43-25.258 14.87-13.321 27.16-30.621 34.25-52.765l-5.54-2.768ZM1454.42 235.326v21.452h-110.2v-21.452h110.2Zm8.13 28.891v-36.503h-126.63v50.343c0 27.68-1.56 65.74-19.03 93.247 2.07.865 5.88 2.941 7.09 4.325 17.99-28.199 20.24-68.854 20.24-97.572v-13.84h118.33Zm-74.9 28.372h39.96v21.971h-39.96v-21.971Zm68.68 32.351c-7.27 6.055-19.73 14.186-29.24 19.549-6.75-6.401-12.11-14.013-16.26-22.49h62.97v-7.439h-38.23v-21.971h31.66v-7.439h-31.66v-17.127h-7.96v17.127h-39.96v-17.127h-7.96v17.127h-28.37v7.439h28.37v21.971h-33.74v7.439h21.45v34.081c0 6.92-5.19 10.38-8.13 11.764 1.39 1.73 3.29 5.363 3.98 7.439 2.94-2.076 7.79-3.46 54.5-15.57-.35-1.73-.35-5.017-.18-7.266l-42.03 10.034v-40.482h27.5c11.77 27.334 35.64 46.364 67.3 54.149 1.04-2.422 3.29-5.363 5.02-7.093-16.78-3.633-31.49-10.38-43.25-19.895 9.86-5.363 21.79-12.629 30.62-19.722l-6.4-4.498ZM1573.76 309.543v-51.035h55.88v51.035h-55.88Zm-64.36 0v-51.035h55.88v51.035h-55.88Zm64.36-59.166v-31.313h-8.48v31.313h-64.01v78.715h8.13v-11.418h55.88v57.782h8.48v-57.782h55.88v10.553h8.47v-77.85h-64.35ZM335.166 538.627h-36.33V502.47h36.33v36.157Zm-36.33 52.938v-41.52h36.33v41.52h-36.33Zm14.532-128.712c-1.211 8.131-4.325 19.722-6.92 28.026h-19.376v125.944h11.764v-13.667h48.094V490.879h-28.718c2.941-7.439 6.055-16.954 8.996-25.431l-13.84-2.595Zm118.159 27.507H379.8c2.941-8.131 5.363-16.435 7.439-24.912l-12.283-2.941c-5.536 23.701-14.878 47.575-26.469 62.799 2.768 1.73 8.304 5.19 10.553 7.266 6.055-8.131 11.418-18.684 16.262-30.275h43.942c-2.249 68.854-4.844 95.15-10.553 101.205-1.73 2.249-3.633 2.595-7.093 2.595-3.979 0-14.359 0-25.604-1.038 2.422 3.633 3.979 8.823 4.325 12.629 9.688.519 19.549.865 25.604.173 5.882-.519 9.861-2.076 13.667-6.92 6.92-8.477 9.169-35.119 11.937-114.007v-6.574Zm-27.334 77.85c-5.536-10.207-17.473-26.815-27.161-39.098l-10.034 5.882c9.515 12.456 21.106 29.583 26.296 39.963l10.899-6.747ZM542.037 521.327c.692-9.169.865-18.684 1.211-28.199H530.1a727.4 727.4 0 0 1-1.038 28.199h-40.136v12.283h39.271c-3.287 33.735-13.321 61.242-46.537 77.504 2.941 2.076 6.747 6.228 8.477 9.342 35.984-18.338 47.056-49.305 50.862-86.846h44.807c-2.422 47.056-5.19 65.913-10.034 70.411-1.903 1.903-3.979 2.422-7.266 2.249-4.152 0-14.705 0-25.777-1.038 2.595 3.633 4.152 8.823 4.498 12.802 10.38.519 20.587.692 26.123.346 6.228-.519 9.861-1.903 13.494-6.228 6.401-7.093 8.996-27.68 11.937-84.597.173-1.73.346-6.228.346-6.228h-57.09Zm65.74-49.651H465.052v54.841c0 26.123-1.038 61.588-13.667 87.019 3.114 1.211 8.996 5.017 11.245 7.266 13.321-26.988 15.397-66.778 15.397-94.285v-42.558h129.75v-12.283ZM652.027 502.816h46.018v32.178h-46.018v-32.178Zm105.184 0v32.178H711.02v-32.178h46.191Zm12.975 44.634v-56.917H711.02v-26.642h-12.975v26.642h-58.647v56.917h58.301c-.865 13.148-3.979 25.777-14.186 36.33-10.034-7.612-17.992-17.473-24.566-30.621l-11.418 4.325c6.92 14.705 15.397 25.777 25.95 34.6-10.553 7.093-25.95 13.148-47.748 17.819 2.595 2.768 6.055 8.131 7.612 11.245 23.355-5.536 39.617-12.802 51.035-21.452 23.009 13.667 53.63 18.684 93.593 21.106.865-4.325 3.46-9.861 5.882-12.975-38.752-1.73-67.989-5.363-89.441-17.127 11.591-12.629 15.224-27.507 16.262-43.25h59.512ZM852.324 489.495h-47.056v12.629h47.056v25.95h-44.461v12.283h44.461v26.988h-51.035v12.456h51.035v41.347h12.975V464.064h-12.975v25.431Zm103.627 77.85h-51.727v-26.988h45.326v-12.283h-45.326v-25.95h48.786v-12.629h-48.786v-25.258h-13.148v157.084h13.148v-41.347h51.727v-12.629ZM1018.37 523.23h65.22v16.954h-65.22V523.23Zm93.94 40.828h-53.12v-14.186h37.2v-36.33h-90.31v36.33h40.14v14.186h-55.534v49.478h12.804v-37.714h42.73v45.499h12.97v-45.499h40.14v24.22c0 2.076-.86 2.595-3.46 2.768-2.59.173-11.76.173-22.14-.173 1.73 3.46 3.8 8.131 4.49 11.764 13.33 0 21.98 0 27.34-2.076 5.36-1.903 6.75-5.363 6.75-12.11v-36.157Zm-16.79-99.475c-3.28 6.228-9.51 15.397-14.35 21.106l10.38 4.325c5.01-5.19 11.59-13.148 17.3-20.76l-13.33-4.671Zm27.34 25.431h-64.7v-26.815h-12.98v26.815h-36.16l10.73-4.844c-2.94-5.709-9-14.186-14.7-20.241l-11.423 4.671c5.017 6.228 10.903 14.705 13.493 20.414h-27.679v37.022h12.283v-25.777h118.506v25.777h12.63v-37.022ZM1300.66 470.811h-86.5v11.937h86.5v-11.937Zm-19.2 73.179h-49.82v-31.313h49.82v31.313Zm12.46-42.731h-74.22v54.149h74.22v-54.149Zm-46.19 96.707c-1.91-9.688-7.1-24.393-12.46-35.465l-10.73 2.768c5.02 11.245 10.21 26.296 11.77 35.811l11.42-3.114Zm-38.06-7.785c-3.64-5.19-19.03-25.95-25.26-33.562.86-4.498 1.38-8.996 1.73-13.321h24.39v-11.591h-23.7c.17-2.422.17-4.498.17-6.747v-26.815h21.28v-11.591h-39.61c1.55-6.747 2.76-13.84 3.8-21.106l-11.76-2.076c-2.77 20.587-7.79 41.174-15.92 54.841 2.77 1.384 7.96 4.844 9.86 6.747 4.33-7.266 7.79-16.608 10.9-26.815h9.52v26.642c0 2.249 0 4.498-.18 6.92h-29.58v11.591h29.06c-2.07 22.317-8.82 47.402-29.92 66.432 2.24 1.557 6.92 6.228 8.65 8.65 15.05-13.494 23.7-30.621 28.37-47.921 6.92 9.688 15.91 23.182 19.72 30.102l8.48-10.38Zm63.49 13.84c5.53-11.591 11.42-26.988 16.26-39.79l-12.98-2.941c-3.28 12.802-9.86 30.621-15.57 42.731h-53.63v12.11h95.33v-12.11h-29.41ZM1440.41 489.841h-87.02v-11.764h87.02v11.764Zm0 20.933h-87.02v-12.283h87.02v12.283Zm12.63-41.866h-111.93v51.035h111.93v-51.035Zm-105.36 114.18H1379v10.726a1479.36 1479.36 0 0 1-31.32 3.633v-14.359Zm31.32-42.904v11.591h-31.32v-11.591H1379Zm-31.32 21.279H1379v12.11h-31.32v-12.11Zm52.94 40.309v-10.38l-9.34 1.038v-52.246h82.52v-10.726h-154.32v10.726h16.44v58.301c-6.06.692-11.94 1.211-16.95 1.73l1.38 11.418c16.09-1.903 37.19-4.498 58.65-7.093v16.781h12.28v-18.338l9.34-1.211Zm53.46-40.309c-4.67 10.207-11.42 19.03-19.2 26.642-7.96-7.612-14.19-16.608-18.69-26.642h37.89Zm7.61-10.899-2.42.346h-61.24v10.553h10.38l-3.46 1.038c5.19 12.456 12.28 23.701 21.28 32.87-9.52 7.093-20.25 12.456-30.97 15.916 2.25 2.249 5.36 6.574 6.57 9.515 11.42-4.152 22.67-10.034 32.7-17.819 9.86 7.958 21.28 13.84 34.25 17.819 1.73-3.287 5.02-7.785 7.62-10.207-12.46-3.287-23.53-8.477-32.87-15.224 11.24-11.072 20.06-24.739 25.43-41.693l-7.27-3.114ZM1536.56 486.208c-2.94-6.228-9.34-15.916-15.05-23.009l-9.86 5.536c5.36 7.439 11.76 17.473 14.7 24.047l10.21-6.574Zm20.93 79.407c-2.24-2.595-8.3-9.169-14.18-15.397 5.19-4.671 11.24-10.553 16.78-16.089l-8.82-7.266c-3.29 4.844-9.17 11.764-14.02 16.954-2.07-2.422-4.15-4.498-5.88-6.228v-.346c8.48-11.937 16.09-25.431 21.45-38.752l-7.44-5.19-2.42.519h-49.48v11.764h43.08c-10.55 21.971-29.24 44.634-46.54 57.609 2.25 2.076 5.71 8.65 6.92 12.11 7.1-5.709 14.36-12.975 21.46-21.106v66.951h12.97v-68.854c6.75 8.304 14.53 18.338 17.99 23.701l8.13-10.38Zm84.95-87.711h-87.02v12.456h28.2c-1.91 56.744-9 97.226-40.31 121.1 2.94 2.422 8.13 7.439 10.03 10.034 32.53-27.507 40.48-69.373 43.25-131.134h33.22c-2.25 79.234-4.5 108.471-10.21 114.872-2.07 2.422-3.8 3.114-7.09 3.114-3.98 0-13.32-.173-24.05-1.038 2.42 3.46 3.81 8.65 3.98 12.283 9.69.692 19.38.865 25.09.173 6.05-.692 9.68-2.249 13.49-7.439 6.75-8.65 9-38.579 11.42-127.328v-7.093ZM425.645 712.292h-88.23v19.03h88.23v-19.03Zm-87.711 117.986c6.574-2.768 15.397-3.806 73.179-9.342 2.249 4.671 4.325 8.996 5.882 12.629l18.511-9.515c-6.401-12.975-19.895-34.6-29.41-50.516l-17.127 7.785c3.979 6.747 8.131 14.359 12.456 21.971l-41.693 3.287c7.612-11.072 15.57-24.22 21.452-37.022h55.706v-19.203H325.824v19.203h30.448c-5.709 14.359-13.148 27.334-16.089 31.313-3.46 4.844-6.401 7.958-10.034 8.996 2.595 5.709 6.228 15.916 7.266 20.414 0-.519.173-.865.519-1.384v1.384Zm-12.283-97.918c-7.093-6.055-21.452-15.916-30.794-22.49l-13.494 12.975c9.515 7.439 23.355 17.992 29.756 24.22l14.532-14.705Zm-6.574 29.929H277.73v19.03h21.106v48.44c-7.439 3.633-15.397 9.688-22.836 17.127l14.186 20.068c7.266-10.38 15.57-21.106 20.933-21.106 3.633 0 9.515 5.19 16.435 8.996 12.283 6.92 26.123 8.996 47.748 8.996 18.857 0 46.191-1.038 59.166-1.73.173-6.055 3.806-16.781 6.228-22.663-17.992 2.595-47.056 4.152-64.529 4.152-18.857 0-34.254-.865-45.845-7.785-4.671-2.768-8.304-5.363-11.245-7.093v-66.432ZM543.247 795.159V773.88h36.503v21.279h-36.503Zm-53.803 0c.346-6.401.519-12.629.519-18.165v-3.114h32.524v21.279h-33.043Zm33.043-60.55v20.068h-32.524v-20.068h32.524Zm57.263 20.068h-36.503v-20.068h36.503v20.068Zm20.414-39.617H469.549v61.761c0 24.22-1.557 55.014-20.414 75.774 4.671 2.422 12.975 9.515 16.262 13.321 12.456-13.494 18.684-32.524 21.798-51.381h35.292v48.267h20.76v-48.267h36.503v25.95c0 3.114-1.211 4.152-4.497 4.152-3.115 0-14.533.173-24.221-.346 2.595 5.363 5.882 14.186 6.575 19.722 15.57.173 26.122-.173 33.215-3.633 6.92-3.114 9.342-8.65 9.342-19.722V715.06ZM712.577 751.563h-17.992v-18.857h17.992v18.857Zm41.866 18.857v24.22c-.692.173-1.557.346-3.114.346h-13.667c-4.844 0-5.536-.519-5.536-6.228V770.42h22.317Zm-98.956 65.221v-25.777c2.768 3.114 5.709 6.747 6.92 8.996 24.393-11.245 30.967-30.275 32.005-48.44h18.165v18.338c0 19.549 3.979 25.431 21.971 25.431h19.895v21.452h-98.956Zm20.587-65.221c-.865 11.591-4.844 22.663-20.587 31.14v-31.14h20.587Zm105.357-37.714v-19.722H626.769v19.722h49.478v18.857h-40.828v112.796h20.068v-9.861h98.956v9.515h20.933v-112.45h-43.25v-18.857h49.305ZM849.036 727.862c-7.266-6.401-22.144-15.397-33.043-20.933l-12.11 14.359c10.899 6.055 25.604 16.089 32.178 22.663l12.975-16.089Zm-7.612 42.212c-7.612-6.228-23.009-14.532-33.735-19.895l-11.591 14.705c11.072 6.055 26.123 15.397 33.043 21.625l12.283-16.435Zm-23.355 90.652c8.996-17.3 18.165-37.541 25.777-56.225l-16.262-12.283c-8.65 20.414-19.895 42.558-28.026 56.225l18.511 12.283Zm139.957-51.727h-44.807V791.18h35.119v-19.203h-35.119v-17.646h41.52v-19.376h-23.355c4.498-7.785 9.169-16.954 13.494-25.777l-20.241-5.882c-3.114 9.688-8.823 22.49-13.84 31.659H885.02l8.996-3.633c-2.594-8.131-9.342-19.722-15.57-28.199l-18.338 7.093c5.19 7.439 10.207 17.127 12.975 24.739h-20.76v19.376h39.444v17.646h-33.562v19.203h33.562v17.819H846.96v19.722h44.807v36.33h21.452v-36.33h44.807v-19.722ZM1022.52 723.018c-7.44-4.844-22.49-12.456-32.18-17.3l-11.591 14.878c10.034 5.709 24.741 13.84 31.481 19.03l12.29-16.608Zm-8.31 46.71c-7.61-4.671-23.005-12.11-32.52-16.781l-11.072 15.224c10.207 5.536 25.085 13.667 32.182 18.684l11.41-17.127Zm-23.87 93.42c10.55-16.781 21.45-36.503 30.62-54.668l-15.05-13.84c-10.38 20.068-23.701 41.52-32.87 54.495l17.3 14.013Zm112.28-23.874h-52.08v-25.431h52.08v25.431Zm28.2-65.913v-19.722h-43.95v-23.701c13.67-2.595 26.47-5.882 37.72-10.207l-15.92-16.262c-19.03 7.612-51.38 13.321-80.79 16.262 2.25 4.671 5.02 12.629 5.71 17.646 10.9-1.038 22.32-2.249 33.73-3.979v20.241h-46.01v19.722h46.01v21.798h-35.29v69.892h18.51v-7.093h52.08v6.228h19.55v-69.027h-35.3v-21.798h43.95ZM1171.78 786.336c.17-3.979.17-7.958.17-11.591v-7.612h42.21v-18.165h-11.93v-45.499h-18.51v45.499h-11.77v-41.001h-18.85v66.778c0 24.393-1.22 57.436-11.25 78.369 4.15 2.768 11.07 8.996 14.36 12.802 9.51-16.262 13.49-38.925 14.88-61.415h15.74v60.031h18.68v-78.196h-33.73Zm58.47 61.242c6.92-21.452 8.65-47.402 9-69.2 4.32 17.3 9.69 33.216 16.95 47.056-7.44 9.342-15.91 16.954-25.95 22.144Zm48.96-77.85c-2.77 14.013-6.92 26.815-12.28 37.887-5.71-11.591-10.38-24.393-13.67-37.887h25.95Zm9-19.376-3.29.692h-45.67v-20.587c21.97-1.384 45.33-3.979 64.01-8.131l-11.42-17.992c-18.86 4.325-46.88 7.785-72.14 9.515v57.955c0 24.566-1.56 60.723-14.19 83.559 4.85 2.422 12.63 7.958 16.27 11.418 3.11-5.017 5.53-10.38 7.61-16.435 3.8 4.325 8.3 10.899 10.72 15.397 10.38-5.882 19.55-13.321 27.17-22.317 6.74 8.823 14.7 16.435 23.7 22.317 3.28-5.363 9.34-12.802 13.84-16.435-9.86-5.363-18.51-13.148-25.78-22.49 10.9-18.857 18.16-43.077 21.45-73.352l-12.28-3.114ZM1377.09 707.448c-12.63 6.055-32.35 12.283-50.17 16.435v88.057c0 6.92-5.01 10.553-8.99 12.456 3.28 5.363 6.92 16.435 8.13 21.798 5.53-3.287 14.01-5.882 64.87-17.3-.69-4.671-1.38-13.494-1.21-19.376l-41.86 8.304v-36.157h42.21V761.77h-42.21v-24.393c15.39-3.46 31.48-7.958 44.8-13.148l-15.57-16.781Zm93.25 7.785h-70.58v149.645h20.93V735.647h28.72v80.618c0 2.249-.7 3.114-3.29 3.287-2.6 0-10.9 0-18.68-.346 3.11 5.709 6.74 15.743 7.61 21.798 11.76 0 20.41-.519 26.99-4.152 6.4-3.633 8.3-10.207 8.3-20.068V715.233ZM1565.8 728.208v13.84h-48.27v-13.84h48.27Zm19.37 32.178v-50.343h-85.8v56.917c0 24.22-.87 57.955-12.11 81.137 4.15 2.076 12.11 7.958 15.22 11.418 12.98-25.431 15.05-65.74 15.05-92.555v-6.574h67.64Zm.7 17.646h-26.13v-14.359h-17.12v14.359h-24.05v69.546h14.88v-52.592h9.17v70.065h17.12v-70.065h9.86v34.081c0 1.384-.34 1.73-1.55 1.903-1.21 0-3.81 0-7.27-.173 2.25 4.498 4.33 11.245 4.85 16.089 6.57 0 11.41-.346 15.22-3.287 4.15-2.768 5.02-7.266 5.02-14.186v-51.381Zm28.2-57.955h-18v100.34h18v-100.34Zm11.41-13.494v133.556c0 2.941-.86 3.633-3.46 3.633-2.94 0-11.41 0-19.89-.346 2.77 5.882 5.19 14.878 5.88 20.241 12.98 0 22.49-.692 28.55-3.979 6.05-3.287 8.13-8.823 8.13-19.376V706.583h-19.21Z"/></svg>