<svg width="1920" height="1080" viewBox="0 0 1920 1080" fill="none" xmlns="http://www.w3.org/2000/svg">
<path d="M377.897 270.445C383.087 263.006 389.488 251.415 394.678 241.727L387.758 238.786C384.125 247.436 377.378 260.065 372.361 267.677L377.897 270.445ZM320.634 241.035C325.997 249.512 331.014 260.757 332.744 268.196L339.318 265.428C337.588 258.335 332.225 247.263 326.689 238.786L320.634 241.035ZM307.486 273.732V233.25H353.677V273.732H307.486ZM407.134 273.732H361.808V233.25H407.134V273.732ZM434.468 325.978H361.808V306.256H419.417V298.99H361.808V281.171H415.438V225.984H299.528V281.171H353.677V298.99H296.241V306.256H353.677V325.978H281.709V333.59H434.468V325.978ZM290.186 376.321C298.663 368.709 305.756 356.253 310.254 345.527L302.642 343.451C298.317 354.177 290.878 365.768 282.92 372.515L290.186 376.321ZM331.879 346.738C334.128 355.734 335.512 367.671 335.512 374.591L343.643 373.38C343.643 366.806 341.913 355.042 339.664 346.392L331.879 346.738ZM367.863 346.911C372.015 355.734 376.167 367.498 377.897 374.591L386.028 372.515C384.125 365.595 379.8 354.004 375.648 345.527L367.863 346.911ZM403.501 346.392C412.324 355.388 422.358 367.844 427.029 375.629L434.641 372.169C429.797 364.211 419.763 352.101 410.94 343.624L403.501 346.392Z" fill="#1A73E8"/>
<path d="M491.174 219.583C482.178 246.571 467.819 273.386 452.076 290.859C453.633 292.762 456.401 296.568 457.266 298.298C463.148 291.378 469.203 283.247 474.566 274.251V375.456H482.524V260.238C488.752 248.128 494.461 234.98 498.959 221.659L491.174 219.583ZM608.641 264.217V256.259H554.665V219.237H546.534V256.259H494.807V264.217H539.96C528.715 294.665 509.339 325.286 489.617 340.337C491.693 341.721 494.461 344.489 495.672 346.392C515.74 329.784 534.943 298.471 546.534 266.12V333.936H514.702V341.721H546.534V374.937H554.665V341.721H585.113V333.936H554.665V265.947C565.737 298.125 584.594 329.611 604.662 346.046C606.392 343.97 609.16 340.856 611.063 339.299C591.341 324.767 572.138 294.665 561.585 264.217H608.641Z" fill="#1A73E8"/>
<path d="M779.009 255.394V247.263H686.627C690.433 238.613 693.374 229.963 696.142 221.14L687.665 218.891C685.07 228.406 681.783 237.921 677.631 247.263H629.537V255.394H673.998C662.753 278.749 646.837 300.547 626.077 315.771C627.634 317.501 629.883 320.961 630.921 322.691C639.398 316.463 646.837 309.37 653.757 301.412V374.937H661.888V291.378C670.192 280.133 677.112 268.023 683.167 255.394H779.009ZM730.742 363.692V309.197H772.608V301.239H730.742V265.255H722.438V301.239H681.437V309.197H722.438V363.692H674.517V371.65H779.355V363.692H730.742Z" fill="#1A73E8"/>
<path d="M844.711 240.516C837.445 234.461 823.259 226.676 811.668 221.659L807.689 227.195C819.28 232.212 833.293 240.516 840.386 246.571L844.711 240.516ZM834.85 287.053C827.93 281.344 814.09 273.559 803.191 268.888L799.212 274.251C810.284 279.441 823.951 287.572 830.871 293.281L834.85 287.053ZM837.099 311.446C827.411 330.649 813.744 354.35 804.229 367.671L810.63 372.861C820.664 357.291 833.466 334.628 842.808 316.463L837.099 311.446ZM936.574 241.381C930 274.597 917.89 301.239 901.974 321.826C886.923 299.682 876.543 272.002 869.623 241.381H936.574ZM940.38 233.077L938.823 233.423H853.188V241.381H861.838C869.623 274.943 880.695 304.526 896.784 328.054C880.176 347.43 860.108 360.924 838.656 368.882C840.386 370.612 842.462 373.553 843.673 375.802C864.952 367.152 885.02 354.004 901.801 334.801C915.122 352.274 931.73 366.114 952.144 375.11C953.528 373.034 955.777 370.266 957.68 368.709C937.093 360.232 920.312 346.392 906.818 328.746C925.156 305.564 938.823 274.77 945.57 234.807L940.38 233.077Z" fill="#1A73E8"/>
<path d="M987.572 246.052H1113.34V270.964H1121.82V238.094H1059.19C1056.94 232.039 1051.93 223.908 1047.08 217.68L1039.3 220.448C1043.1 225.638 1047.26 232.558 1049.68 238.094H979.441V270.964H987.572V246.052ZM1124.07 312.311H1054.87V303.834C1069.92 296.049 1086.87 284.112 1098.12 272.521L1092.24 268.369L1090.33 268.715H1004.35V276.673H1082.03C1072.17 285.496 1058.33 294.838 1046.22 300.547V312.311H976.673V320.442H1046.22V364.384C1046.22 366.806 1045.35 367.498 1042.41 367.671C1039.64 367.844 1029.61 367.844 1017.15 367.671C1018.54 369.92 1020.27 373.207 1020.96 375.629C1035.49 375.629 1043.62 375.629 1048.47 374.072C1053.14 372.688 1054.87 370.093 1054.87 364.211V320.442H1124.07V312.311Z" fill="#1A73E8"/>
<path d="M1283.71 247.782C1278.52 241.381 1268.49 230.482 1260.53 222.524L1254.13 226.503C1262.09 234.634 1272.29 246.052 1277.14 252.626L1283.71 247.782ZM1268.14 296.914C1261.57 313.868 1251.01 327.708 1238.56 338.78C1225.06 327.189 1214.68 313.176 1207.24 296.914H1268.14ZM1273.5 288.264L1272.12 288.783H1209.15C1211.92 282.209 1214.34 275.116 1216.24 267.85H1296.51V259.719H1218.66C1221.95 247.263 1224.2 234.115 1226.27 220.102L1216.93 218.545C1215.03 233.077 1212.61 246.917 1209.15 259.719H1173.68C1178.53 250.55 1183.2 238.44 1186.66 226.503L1177.66 224.427C1174.89 237.575 1168.32 251.761 1166.24 255.394C1164.51 258.854 1162.96 261.449 1160.71 261.968C1161.75 263.871 1163.13 268.369 1163.65 270.272C1165.21 268.715 1170.22 267.85 1181.99 267.85H1206.9C1195.65 305.391 1176.1 334.974 1143.93 355.907C1146 357.291 1148.94 360.059 1150.15 361.789C1173.51 346.738 1190.29 327.189 1202.4 303.834C1209.84 319.231 1220.05 332.725 1232.33 343.797C1216.59 355.907 1198.08 364.211 1179.39 369.055C1180.95 370.785 1182.85 374.072 1183.72 376.148C1203.27 370.439 1222.47 361.789 1238.73 349.16C1254.82 361.789 1274.37 370.958 1297.2 376.321C1298.24 374.072 1300.49 370.785 1302.22 369.055C1279.9 364.557 1260.53 355.907 1244.79 343.797C1259.66 330.476 1271.95 313.176 1279.04 291.032L1273.5 288.264Z" fill="#1A73E8"/>
<path d="M1454.42 235.326V256.778H1344.22V235.326H1454.42ZM1462.55 264.217V227.714H1335.92V278.057C1335.92 305.737 1334.36 343.797 1316.89 371.304C1318.96 372.169 1322.77 374.245 1323.98 375.629C1341.97 347.43 1344.22 306.775 1344.22 278.057V264.217H1462.55ZM1387.65 292.589H1427.61V314.56H1387.65V292.589ZM1456.33 324.94C1449.06 330.995 1436.6 339.126 1427.09 344.489C1420.34 338.088 1414.98 330.476 1410.83 321.999H1473.8V314.56H1435.57V292.589H1467.23V285.15H1435.57V268.023H1427.61V285.15H1387.65V268.023H1379.69V285.15H1351.32V292.589H1379.69V314.56H1345.95V321.999H1367.4V356.08C1367.4 363 1362.21 366.46 1359.27 367.844C1360.66 369.574 1362.56 373.207 1363.25 375.283C1366.19 373.207 1371.04 371.823 1417.75 359.713C1417.4 357.983 1417.4 354.696 1417.57 352.447L1375.54 362.481V321.999H1403.04C1414.81 349.333 1438.68 368.363 1470.34 376.148C1471.38 373.726 1473.63 370.785 1475.36 369.055C1458.58 365.422 1443.87 358.675 1432.11 349.16C1441.97 343.797 1453.9 336.531 1462.73 329.438L1456.33 324.94Z" fill="#1A73E8"/>
<path d="M1573.76 309.543V258.508H1629.64V309.543H1573.76ZM1509.4 309.543V258.508H1565.28V309.543H1509.4ZM1573.76 250.377V219.064H1565.28V250.377H1501.27V329.092H1509.4V317.674H1565.28V375.456H1573.76V317.674H1629.64V328.227H1638.11V250.377H1573.76Z" fill="#1A73E8"/>
<path d="M335.166 538.627H298.836V502.47H335.166V538.627ZM298.836 591.565V550.045H335.166V591.565H298.836ZM313.368 462.853C312.157 470.984 309.043 482.575 306.448 490.879H287.072V616.823H298.836V603.156H346.93V490.879H318.212C321.153 483.44 324.267 473.925 327.208 465.448L313.368 462.853ZM431.527 490.36H379.8C382.741 482.229 385.163 473.925 387.239 465.448L374.956 462.507C369.42 486.208 360.078 510.082 348.487 525.306C351.255 527.036 356.791 530.496 359.04 532.572C365.095 524.441 370.458 513.888 375.302 502.297H419.244C416.995 571.151 414.4 597.447 408.691 603.502C406.961 605.751 405.058 606.097 401.598 606.097C397.619 606.097 387.239 606.097 375.994 605.059C378.416 608.692 379.973 613.882 380.319 617.688C390.007 618.207 399.868 618.553 405.923 617.861C411.805 617.342 415.784 615.785 419.59 610.941C426.51 602.464 428.759 575.822 431.527 496.934V490.36ZM404.193 568.21C398.657 558.003 386.72 541.395 377.032 529.112L366.998 534.994C376.513 547.45 388.104 564.577 393.294 574.957L404.193 568.21Z" fill="#1A73E8"/>
<path d="M542.037 521.327C542.729 512.158 542.902 502.643 543.248 493.128H530.1C529.927 502.816 529.581 512.158 529.062 521.327H488.926V533.61H528.197C524.91 567.345 514.876 594.852 481.66 611.114C484.601 613.19 488.407 617.342 490.137 620.456C526.121 602.118 537.193 571.151 540.999 533.61H585.806C583.384 580.666 580.616 599.523 575.772 604.021C573.869 605.924 571.793 606.443 568.506 606.27C564.354 606.27 553.801 606.27 542.729 605.232C545.324 608.865 546.881 614.055 547.227 618.034C557.607 618.553 567.814 618.726 573.35 618.38C579.578 617.861 583.211 616.477 586.844 612.152C593.245 605.059 595.84 584.472 598.781 527.555C598.954 525.825 599.127 521.327 599.127 521.327H542.037ZM607.777 471.676H465.052V526.517C465.052 552.64 464.014 588.105 451.385 613.536C454.499 614.747 460.381 618.553 462.63 620.802C475.951 593.814 478.027 554.024 478.027 526.517V483.959H607.777V471.676Z" fill="#1A73E8"/>
<path d="M652.027 502.816H698.045V534.994H652.027V502.816ZM757.211 502.816V534.994H711.02V502.816H757.211ZM770.186 547.45V490.533H711.02V463.891H698.045V490.533H639.398V547.45H697.699C696.834 560.598 693.72 573.227 683.513 583.78C673.479 576.168 665.521 566.307 658.947 553.159L647.529 557.484C654.449 572.189 662.926 583.261 673.479 592.084C662.926 599.177 647.529 605.232 625.731 609.903C628.326 612.671 631.786 618.034 633.343 621.148C656.698 615.612 672.96 608.346 684.378 599.696C707.387 613.363 738.008 618.38 777.971 620.802C778.836 616.477 781.431 610.941 783.853 607.827C745.101 606.097 715.864 602.464 694.412 590.7C706.003 578.071 709.636 563.193 710.674 547.45H770.186Z" fill="#1A73E8"/>
<path d="M852.324 489.495H805.268V502.124H852.324V528.074H807.863V540.357H852.324V567.345H801.289V579.801H852.324V621.148H865.299V464.064H852.324V489.495ZM955.951 567.345H904.224V540.357H949.55V528.074H904.224V502.124H953.01V489.495H904.224V464.237H891.076V621.321H904.224V579.974H955.951V567.345Z" fill="#1A73E8"/>
<path d="M1018.37 523.23H1083.59V540.184H1018.37V523.23ZM1112.31 564.058H1059.19V549.872H1096.39V513.542H1006.08V549.872H1046.22V564.058H990.686V613.536H1003.49V575.822H1046.22V621.321H1059.19V575.822H1099.33V600.042C1099.33 602.118 1098.47 602.637 1095.87 602.81C1093.28 602.983 1084.11 602.983 1073.73 602.637C1075.46 606.097 1077.53 610.768 1078.22 614.401C1091.55 614.401 1100.2 614.401 1105.56 612.325C1110.92 610.422 1112.31 606.962 1112.31 600.215V564.058ZM1095.52 464.583C1092.24 470.811 1086.01 479.98 1081.17 485.689L1091.55 490.014C1096.56 484.824 1103.14 476.866 1108.85 469.254L1095.52 464.583ZM1122.86 490.014H1058.16V463.199H1045.18V490.014H1009.02L1019.75 485.17C1016.81 479.461 1010.75 470.984 1005.05 464.929L993.627 469.6C998.644 475.828 1004.53 484.305 1007.12 490.014H979.441V527.036H991.724V501.259H1110.23V527.036H1122.86V490.014Z" fill="#1A73E8"/>
<path d="M1300.66 470.811H1214.16V482.748H1300.66V470.811ZM1281.46 543.99H1231.64V512.677H1281.46V543.99ZM1293.92 501.259H1219.7V555.408H1293.92V501.259ZM1247.73 597.966C1245.82 588.278 1240.63 573.573 1235.27 562.501L1224.54 565.269C1229.56 576.514 1234.75 591.565 1236.31 601.08L1247.73 597.966ZM1209.67 590.181C1206.03 584.991 1190.64 564.231 1184.41 556.619C1185.27 552.121 1185.79 547.623 1186.14 543.298H1210.53V531.707H1186.83C1187 529.285 1187 527.209 1187 524.96V498.145H1208.28V486.554H1168.67C1170.22 479.807 1171.43 472.714 1172.47 465.448L1160.71 463.372C1157.94 483.959 1152.92 504.546 1144.79 518.213C1147.56 519.597 1152.75 523.057 1154.65 524.96C1158.98 517.694 1162.44 508.352 1165.55 498.145H1175.07V524.787C1175.07 527.036 1175.07 529.285 1174.89 531.707H1145.31V543.298H1174.37C1172.3 565.615 1165.55 590.7 1144.45 609.73C1146.69 611.287 1151.37 615.958 1153.1 618.38C1168.15 604.886 1176.8 587.759 1181.47 570.459C1188.39 580.147 1197.38 593.641 1201.19 600.561L1209.67 590.181ZM1273.16 604.021C1278.69 592.43 1284.58 577.033 1289.42 564.231L1276.44 561.29C1273.16 574.092 1266.58 591.911 1260.87 604.021H1207.24V616.131H1302.57V604.021H1273.16Z" fill="#1A73E8"/>
<path d="M1440.41 489.841H1353.39V478.077H1440.41V489.841ZM1440.41 510.774H1353.39V498.491H1440.41V510.774ZM1453.04 468.908H1341.11V519.943H1453.04V468.908ZM1347.68 583.088H1379V593.814C1368.1 595.198 1357.54 596.409 1347.68 597.447V583.088ZM1379 540.184V551.775H1347.68V540.184H1379ZM1347.68 561.463H1379V573.573H1347.68V561.463ZM1400.62 601.772V591.392L1391.28 592.43V540.184H1473.8V529.458H1319.48V540.184H1335.92V598.485C1329.86 599.177 1323.98 599.696 1318.97 600.215L1320.35 611.633C1336.44 609.73 1357.54 607.135 1379 604.54V621.321H1391.28V602.983L1400.62 601.772ZM1454.08 561.463C1449.41 571.67 1442.66 580.493 1434.88 588.105C1426.92 580.493 1420.69 571.497 1416.19 561.463H1454.08ZM1461.69 550.564L1459.27 550.91H1398.03V561.463H1408.41L1404.95 562.501C1410.14 574.957 1417.23 586.202 1426.23 595.371C1416.71 602.464 1405.98 607.827 1395.26 611.287C1397.51 613.536 1400.62 617.861 1401.83 620.802C1413.25 616.65 1424.5 610.768 1434.53 602.983C1444.39 610.941 1455.81 616.823 1468.78 620.802C1470.51 617.515 1473.8 613.017 1476.4 610.595C1463.94 607.308 1452.87 602.118 1443.53 595.371C1454.77 584.299 1463.59 570.632 1468.96 553.678L1461.69 550.564Z" fill="#1A73E8"/>
<path d="M1536.56 486.208C1533.62 479.98 1527.22 470.292 1521.51 463.199L1511.65 468.735C1517.01 476.174 1523.41 486.208 1526.35 492.782L1536.56 486.208ZM1557.49 565.615C1555.25 563.02 1549.19 556.446 1543.31 550.218C1548.5 545.547 1554.55 539.665 1560.09 534.129L1551.27 526.863C1547.98 531.707 1542.1 538.627 1537.25 543.817C1535.18 541.395 1533.1 539.319 1531.37 537.589V537.243C1539.85 525.306 1547.46 511.812 1552.82 498.491L1545.38 493.301L1542.96 493.82H1493.48V505.584H1536.56C1526.01 527.555 1507.32 550.218 1490.02 563.193C1492.27 565.269 1495.73 571.843 1496.94 575.303C1504.04 569.594 1511.3 562.328 1518.4 554.197V621.148H1531.37V552.294C1538.12 560.598 1545.9 570.632 1549.36 575.995L1557.49 565.615ZM1642.44 477.904H1555.42V490.36H1583.62C1581.71 547.104 1574.62 587.586 1543.31 611.46C1546.25 613.882 1551.44 618.899 1553.34 621.494C1585.87 593.987 1593.82 552.121 1596.59 490.36H1629.81C1627.56 569.594 1625.31 598.831 1619.6 605.232C1617.53 607.654 1615.8 608.346 1612.51 608.346C1608.53 608.346 1599.19 608.173 1588.46 607.308C1590.88 610.768 1592.27 615.958 1592.44 619.591C1602.13 620.283 1611.82 620.456 1617.53 619.764C1623.58 619.072 1627.21 617.515 1631.02 612.325C1637.77 603.675 1640.02 573.746 1642.44 484.997V477.904Z" fill="#1A73E8"/>
<path d="M425.645 712.292H337.415V731.322H425.645V712.292ZM337.934 830.278C344.508 827.51 353.331 826.472 411.113 820.936C413.362 825.607 415.438 829.932 416.995 833.565L435.506 824.05C429.105 811.075 415.611 789.45 406.096 773.534L388.969 781.319C392.948 788.066 397.1 795.678 401.425 803.29L359.732 806.577C367.344 795.505 375.302 782.357 381.184 769.555H436.89V750.352H325.824V769.555H356.272C350.563 783.914 343.124 796.889 340.183 800.868C336.723 805.712 333.782 808.826 330.149 809.864C332.744 815.573 336.377 825.78 337.415 830.278C337.415 829.759 337.588 829.413 337.934 828.894V830.278ZM325.651 732.36C318.558 726.305 304.199 716.444 294.857 709.87L281.363 722.845C290.878 730.284 304.718 740.837 311.119 747.065L325.651 732.36ZM319.077 762.289H277.73V781.319H298.836V829.759C291.397 833.392 283.439 839.447 276 846.886L290.186 866.954C297.452 856.574 305.756 845.848 311.119 845.848C314.752 845.848 320.634 851.038 327.554 854.844C339.837 861.764 353.677 863.84 375.302 863.84C394.159 863.84 421.493 862.802 434.468 862.11C434.641 856.055 438.274 845.329 440.696 839.447C422.704 842.042 393.64 843.599 376.167 843.599C357.31 843.599 341.913 842.734 330.322 835.814C325.651 833.046 322.018 830.451 319.077 828.721V762.289Z" fill="#1A73E8"/>
<path d="M543.247 795.159V773.88H579.75V795.159H543.247ZM489.444 795.159C489.79 788.758 489.963 782.53 489.963 776.994V773.88H522.487V795.159H489.444ZM522.487 734.609V754.677H489.963V734.609H522.487ZM579.75 754.677H543.247V734.609H579.75V754.677ZM600.164 715.06H469.549V776.821C469.549 801.041 467.992 831.835 449.135 852.595C453.806 855.017 462.11 862.11 465.397 865.916C477.853 852.422 484.081 833.392 487.195 814.535H522.487V862.802H543.247V814.535H579.75V840.485C579.75 843.599 578.539 844.637 575.253 844.637C572.138 844.637 560.72 844.81 551.032 844.291C553.627 849.654 556.914 858.477 557.607 864.013C573.177 864.186 583.729 863.84 590.822 860.38C597.742 857.266 600.164 851.73 600.164 840.658V715.06Z" fill="#1A73E8"/>
<path d="M712.577 751.563H694.585V732.706H712.577V751.563ZM754.443 770.42V794.64C753.751 794.813 752.886 794.986 751.329 794.986H737.662C732.818 794.986 732.126 794.467 732.126 788.758V770.42H754.443ZM655.487 835.641V809.864C658.255 812.978 661.196 816.611 662.407 818.86C686.8 807.615 693.374 788.585 694.412 770.42H712.577V788.758C712.577 808.307 716.556 814.189 734.548 814.189H753.405H754.443V835.641H655.487ZM676.074 770.42C675.209 782.011 671.23 793.083 655.487 801.56V770.42H676.074ZM781.431 732.706V712.984H626.769V732.706H676.247V751.563H635.419V864.359H655.487V854.498H754.443V864.013H775.376V751.563H732.126V732.706H781.431Z" fill="#1A73E8"/>
<path d="M849.036 727.862C841.77 721.461 826.892 712.465 815.993 706.929L803.883 721.288C814.782 727.343 829.487 737.377 836.061 743.951L849.036 727.862ZM841.424 770.074C833.812 763.846 818.415 755.542 807.689 750.179L796.098 764.884C807.17 770.939 822.221 780.281 829.141 786.509L841.424 770.074ZM818.069 860.726C827.065 843.426 836.234 823.185 843.846 804.501L827.584 792.218C818.934 812.632 807.689 834.776 799.558 848.443L818.069 860.726ZM958.026 808.999H913.219V791.18H948.338V771.977H913.219V754.331H954.739V734.955H931.384C935.882 727.17 940.553 718.001 944.878 709.178L924.637 703.296C921.523 712.984 915.814 725.786 910.797 734.955H885.02L894.016 731.322C891.422 723.191 884.674 711.6 878.446 703.123L860.108 710.216C865.298 717.655 870.315 727.343 873.083 734.955H852.323V754.331H891.767V771.977H858.205V791.18H891.767V808.999H846.96V828.721H891.767V865.051H913.219V828.721H958.026V808.999Z" fill="#1A73E8"/>
<path d="M1022.52 723.018C1015.08 718.174 1000.03 710.562 990.34 705.718L978.749 720.596C988.783 726.305 1003.49 734.436 1010.23 739.626L1022.52 723.018ZM1014.21 769.728C1006.6 765.057 991.205 757.618 981.69 752.947L970.618 768.171C980.825 773.707 995.703 781.838 1002.8 786.855L1014.21 769.728ZM990.34 863.148C1000.89 846.367 1011.79 826.645 1020.96 808.48L1005.91 794.64C995.53 814.708 982.209 836.16 973.04 849.135L990.34 863.148ZM1102.62 839.274H1050.54V813.843H1102.62V839.274ZM1130.82 773.361V753.639H1086.87V729.938C1100.54 727.343 1113.34 724.056 1124.59 719.731L1108.67 703.469C1089.64 711.081 1057.29 716.79 1027.88 719.731C1030.13 724.402 1032.9 732.36 1033.59 737.377C1044.49 736.339 1055.91 735.128 1067.32 733.398V753.639H1021.31V773.361H1067.32V795.159H1032.03V865.051H1050.54V857.958H1102.62V864.186H1122.17V795.159H1086.87V773.361H1130.82Z" fill="#1A73E8"/>
<path d="M1171.78 786.336C1171.95 782.357 1171.95 778.378 1171.95 774.745V767.133H1214.16V748.968H1202.23V703.469H1183.72V748.968H1171.95V707.967H1153.1V774.745C1153.1 799.138 1151.88 832.181 1141.85 853.114C1146 855.882 1152.92 862.11 1156.21 865.916C1165.72 849.654 1169.7 826.991 1171.09 804.501H1186.83V864.532H1205.51V786.336H1171.78ZM1230.25 847.578C1237.17 826.126 1238.9 800.176 1239.25 778.378C1243.57 795.678 1248.94 811.594 1256.2 825.434C1248.76 834.776 1240.29 842.388 1230.25 847.578ZM1279.21 769.728C1276.44 783.741 1272.29 796.543 1266.93 807.615C1261.22 796.024 1256.55 783.222 1253.26 769.728H1279.21ZM1288.21 750.352L1284.92 751.044H1239.25V730.457C1261.22 729.073 1284.58 726.478 1303.26 722.326L1291.84 704.334C1272.98 708.659 1244.96 712.119 1219.7 713.849V771.804C1219.7 796.37 1218.14 832.527 1205.51 855.363C1210.36 857.785 1218.14 863.321 1221.78 866.781C1224.89 861.764 1227.31 856.401 1229.39 850.346C1233.19 854.671 1237.69 861.245 1240.11 865.743C1250.49 859.861 1259.66 852.422 1267.28 843.426C1274.02 852.249 1281.98 859.861 1290.98 865.743C1294.26 860.38 1300.32 852.941 1304.82 849.308C1294.96 843.945 1286.31 836.16 1279.04 826.818C1289.94 807.961 1297.2 783.741 1300.49 753.466L1288.21 750.352Z" fill="#1A73E8"/>
<path d="M1377.09 707.448C1364.46 713.503 1344.74 719.731 1326.92 723.883V811.94C1326.92 818.86 1321.91 822.493 1317.93 824.396C1321.21 829.759 1324.85 840.831 1326.06 846.194C1331.59 842.907 1340.07 840.312 1390.93 828.894C1390.24 824.223 1389.55 815.4 1389.72 809.518L1347.86 817.822V781.665H1390.07V761.77H1347.86V737.377C1363.25 733.917 1379.34 729.419 1392.66 724.229L1377.09 707.448ZM1470.34 715.233H1399.76V864.878H1420.69V735.647H1449.41V816.265C1449.41 818.514 1448.71 819.379 1446.12 819.552C1443.52 819.552 1435.22 819.552 1427.44 819.206C1430.55 824.915 1434.18 834.949 1435.05 841.004C1446.81 841.004 1455.46 840.485 1462.04 836.852C1468.44 833.219 1470.34 826.645 1470.34 816.784V715.233Z" fill="#1A73E8"/>
<path d="M1565.8 728.208V742.048H1517.53V728.208H1565.8ZM1585.17 760.386V710.043H1499.37V766.96C1499.37 791.18 1498.5 824.915 1487.26 848.097C1491.41 850.173 1499.37 856.055 1502.48 859.515C1515.46 834.084 1517.53 793.775 1517.53 766.96V760.386H1585.17ZM1585.87 778.032H1559.74V763.673H1542.62V778.032H1518.57V847.578H1533.45V794.986H1542.62V865.051H1559.74V794.986H1569.6V829.067C1569.6 830.451 1569.26 830.797 1568.05 830.97C1566.84 830.97 1564.24 830.97 1560.78 830.797C1563.03 835.295 1565.11 842.042 1565.63 846.886C1572.2 846.886 1577.04 846.54 1580.85 843.599C1585 840.831 1585.87 836.333 1585.87 829.413V778.032ZM1614.07 720.077H1596.07V820.417H1614.07V720.077ZM1625.48 706.583V840.139C1625.48 843.08 1624.62 843.772 1622.02 843.772C1619.08 843.772 1610.61 843.772 1602.13 843.426C1604.9 849.308 1607.32 858.304 1608.01 863.667C1620.99 863.667 1630.5 862.975 1636.56 859.688C1642.61 856.401 1644.69 850.865 1644.69 840.312V706.583H1625.48Z" fill="#1A73E8"/>
</svg>
