<svg width="1920" height="1080" fill="none" xmlns="http://www.w3.org/2000/svg"><path d="M383.238 419.691c.309-1.08.592-2.417.849-4.011.257-1.595.489-3.575.694-5.941.206-2.366.36-5.169.463-8.409.103-3.292.154-7.123.154-11.495v-50.224c0-4.371-.051-8.177-.154-11.418-.103-3.291-.257-6.12-.463-8.486-.205-2.417-.437-4.423-.694-6.018-.257-1.594-.54-2.931-.849-4.011v-.309h18.439v.309c-.309 1.08-.617 2.417-.926 4.011-.257 1.595-.489 3.601-.694 6.018a465.366 465.366 0 0 0-.463 8.486 365.327 365.327 0 0 0-.155 11.418v50.224c0 4.372.052 8.203.155 11.495.154 3.24.308 6.043.463 8.409.205 2.366.437 4.346.694 5.941.309 1.594.617 2.931.926 4.011V420h-18.439v-.309Zm70.668-110.168c-1.286 0-2.674.232-4.166.695-1.44.463-2.777 1.311-4.011 2.546-1.235 1.234-2.264 2.957-3.086 5.169-.823 2.16-1.235 4.963-1.235 8.409V341c2.726-.051 5.272-.129 7.638-.231 2.417-.103 4.577-.206 6.48-.309 1.903-.103 3.498-.206 4.784-.309 1.285-.154 2.211-.283 2.777-.385l-1.389 7.869c-1.8-.052-3.754-.129-5.863-.232-1.8-.103-3.935-.18-6.403-.231-2.469-.052-5.144-.103-8.024-.154v42.817c0 4.372.052 8.203.154 11.495.155 3.24.309 6.043.463 8.409.206 2.366.438 4.346.695 5.941.308 1.594.617 2.931.926 4.011V420h-17.822v-.309c.309-1.08.592-2.417.849-4.011.257-1.595.488-3.575.694-5.941.206-2.366.36-5.169.463-8.409.103-3.292.154-7.123.154-11.495v-42.817l-12.961.462v-6.789c1.595.103 3.498.18 5.709.232 2.212.051 4.629.077 7.252.077v-12.961c0-3.96.566-7.458 1.698-10.492 1.183-3.086 2.803-5.658 4.86-7.715 2.057-2.109 4.526-3.703 7.406-4.783 2.88-1.08 6.044-1.62 9.49-1.62 1.902 0 3.677.128 5.323.385 1.646.258 3.111.566 4.397.926 1.337.36 2.495.746 3.472 1.157 1.029.36 1.877.695 2.546 1.003l3.009 13.27-.926.463a74.713 74.713 0 0 0-2.7-3.78 22.204 22.204 0 0 0-3.318-3.626 15.809 15.809 0 0 0-4.166-2.623c-1.491-.721-3.214-1.081-5.169-1.081Zm62.953 70.823c0-5.812 1.08-11.187 3.241-16.124 2.16-4.989 5.117-9.31 8.872-12.961 3.806-3.652 8.28-6.506 13.424-8.564 5.143-2.057 10.672-3.086 16.586-3.086 5.812 0 11.264.978 16.356 2.932 5.143 1.903 9.618 4.629 13.424 8.178 3.806 3.549 6.789 7.869 8.949 12.961 2.212 5.091 3.317 10.8 3.317 17.127 0 5.297-.925 10.389-2.777 15.275a37.98 37.98 0 0 1-8.178 12.961c-3.6 3.754-8.023 6.763-13.269 9.026-5.195 2.212-11.187 3.318-17.976 3.318-5.76 0-11.186-.952-16.278-2.855-5.092-1.903-9.541-4.629-13.347-8.178-3.806-3.548-6.815-7.843-9.026-12.883-2.212-5.092-3.318-10.801-3.318-17.127Zm43.744 35.411c3.651 0 6.994-.72 10.029-2.16 3.086-1.44 5.735-3.523 7.946-6.249 2.212-2.726 3.935-6.044 5.169-9.952 1.234-3.909 1.852-8.333 1.852-13.27 0-5.555-.592-10.698-1.775-15.43-1.183-4.783-2.957-8.897-5.323-12.343-2.314-3.498-5.246-6.224-8.795-8.178-3.549-1.955-7.689-2.932-12.421-2.932-3.652 0-6.995.72-10.029 2.16-3.035 1.389-5.683 3.421-7.946 6.095-2.212 2.675-3.935 5.966-5.169 9.875-1.235 3.857-1.852 8.255-1.852 13.192 0 5.555.592 10.724 1.774 15.507 1.235 4.783 3.035 8.949 5.401 12.498 2.366 3.498 5.297 6.249 8.795 8.255 3.549 1.955 7.663 2.932 12.344 2.932Zm110.862-47.755c0-6.789-1.363-11.778-4.089-14.967-2.726-3.189-6.378-4.783-10.955-4.783-1.646 0-3.497.36-5.555 1.08-2.057.669-4.166 1.594-6.326 2.777a55.449 55.449 0 0 0-6.48 4.012 63.663 63.663 0 0 0-6.095 4.938l-.154 10.106v18.67c0 4.372.051 8.203.154 11.495.103 3.24.257 6.043.463 8.409.205 2.366.437 4.346.694 5.941.257 1.594.54 2.931.849 4.011V420h-17.822v-.309c.309-1.08.592-2.417.849-4.011.309-1.595.54-3.575.694-5.941.206-2.366.36-5.169.463-8.409.155-3.292.232-7.123.232-11.495v-18.67c0-4.372-.077-8.178-.232-11.418-.103-3.292-.257-6.12-.463-8.486-.154-2.366-.385-4.346-.694-5.941-.257-1.594-.54-2.931-.849-4.011V341h17.822v.309c-.412 1.285-.746 2.931-1.003 4.937a334.605 334.605 0 0 0-.695 7.715 130.267 130.267 0 0 1 6.789-5.246 61.604 61.604 0 0 1 7.638-4.629 44.708 44.708 0 0 1 8.024-3.317c2.726-.875 5.4-1.312 8.023-1.312 4.012 0 7.406.694 10.184 2.083 2.828 1.389 5.117 3.215 6.866 5.478 1.8 2.263 3.086 4.86 3.857 7.792a31.852 31.852 0 0 1 1.235 8.794v26.231c0 4.372.051 8.203.154 11.495.103 3.24.257 6.043.463 8.409.206 2.366.437 4.346.694 5.941.257 1.594.54 2.931.849 4.011V420h-17.821v-.309c.308-1.08.591-2.417.848-4.011.309-1.595.54-3.575.695-5.941.205-2.366.36-5.169.462-8.409.155-3.292.232-7.123.232-11.495v-21.833Zm37.185-33.174c0-4.372-.077-8.178-.231-11.418-.103-3.292-.257-6.12-.463-8.486-.154-2.366-.386-4.346-.694-5.941-.257-1.594-.54-2.931-.849-4.011v-.309h17.821v.309c-.308 1.08-.591 2.417-.848 4.011-.257 1.595-.489 3.575-.695 5.941-.205 2.366-.36 5.194-.462 8.486-.103 3.24-.155 7.046-.155 11.418v55.007c0 4.372.052 8.203.155 11.495.102 3.24.257 6.043.462 8.409.206 2.366.438 4.346.695 5.941.257 1.594.54 2.931.848 4.011V420h-17.821v-.309c.309-1.08.592-2.417.849-4.011.308-1.595.54-3.575.694-5.941.206-2.366.36-5.169.463-8.409.154-3.292.231-7.123.231-11.495v-55.007Zm62.413 84.246-27.156-59.404a75.666 75.666 0 0 0-3.163-6.481 98.485 98.485 0 0 0-3.24-5.631c-.977-1.646-1.852-3.009-2.623-4.089-.772-1.132-1.286-1.852-1.543-2.16V341h20.213v.309c-.103.257-.18.642-.232 1.157-.051.514-.077.977-.077 1.388 0 1.595.232 3.369.695 5.324.514 1.903 1.44 4.294 2.777 7.175l21.293 46.289 19.441-45.672a113.624 113.624 0 0 0 2.469-6.249c.874-2.263 1.312-4.552 1.312-6.867 0-.668-.052-1.208-.155-1.62-.103-.463-.206-.771-.308-.925V341h13.886v.309c-.925.977-2.108 2.726-3.548 5.246-1.389 2.468-2.881 5.58-4.475 9.335l-36.8 87.64a172.859 172.859 0 0 0-2.546 6.249c-.823 2.263-1.234 4.552-1.234 6.867 0 .668.051 1.208.154 1.62.103.463.206.771.309.925v.309h-14.427v-.309c.977-.977 2.16-2.7 3.549-5.169 1.44-2.417 2.957-5.477 4.552-9.18l10.877-25.768Zm129.687-3.626c1.543 0 3.06-.283 4.552-.848a18.964 18.964 0 0 0 4.397-2.315 31.21 31.21 0 0 0 4.089-3.317 44.95 44.95 0 0 0 3.703-4.012l.772.386-5.015 12.421-2.314 1.157c-.875.411-1.955.797-3.241 1.157-1.234.412-2.7.746-4.397 1.003-1.697.309-3.703.463-6.018.463-6.892 0-12.266-1.852-16.124-5.555-3.806-3.754-5.709-9.592-5.709-17.512v-51.458l-12.961.462v-6.789c1.595.103 3.498.18 5.709.232 2.212.051 4.629.077 7.252.077a236.118 236.118 0 0 0-.308-9.644c-.103-2.828-.257-5.271-.463-7.329-.154-2.108-.36-3.883-.617-5.323-.258-1.44-.515-2.649-.772-3.626v-.308h17.821v.308c-.308.977-.591 2.186-.848 3.626s-.489 3.189-.695 5.246a368.316 368.316 0 0 0-.462 7.329c-.103 2.778-.18 6.018-.232 9.721 3.24-.051 6.403-.103 9.489-.154 3.138-.103 5.967-.206 8.487-.309 2.571-.154 4.731-.283 6.48-.386 1.8-.154 2.983-.283 3.549-.385l-1.389 7.869a519.546 519.546 0 0 1-8.255-.232 334.16 334.16 0 0 0-8.486-.231c-3.189-.052-6.48-.103-9.875-.154v53.078c0 3.189.334 5.786 1.003 7.792.72 1.954 1.62 3.497 2.7 4.629 1.132 1.131 2.392 1.903 3.781 2.314 1.44.412 2.905.617 4.397.617Zm85.789-47.446c0-6.789-1.363-11.778-4.089-14.967-2.726-3.189-6.377-4.783-10.955-4.783-1.697 0-3.6.36-5.709 1.08-2.057.669-4.192 1.594-6.403 2.777a57.268 57.268 0 0 0-6.481 4.166 56.908 56.908 0 0 0-6.017 4.938v28.622c0 4.372.051 8.203.154 11.495.103 3.24.257 6.043.463 8.409.206 2.366.437 4.346.694 5.941.257 1.594.54 2.931.849 4.011V420h-17.821v-.309c.308-1.08.591-2.417.848-4.011.309-1.595.54-3.575.695-5.941.205-2.366.36-5.169.462-8.409.155-3.292.232-7.123.232-11.495v-55.007c0-4.372-.077-8.178-.232-11.418-.102-3.292-.257-6.12-.462-8.486-.155-2.366-.386-4.346-.695-5.941-.257-1.594-.54-2.931-.848-4.011v-.309h17.821v.309c-.309 1.08-.592 2.417-.849 4.011-.257 1.595-.488 3.575-.694 5.941-.206 2.366-.36 5.194-.463 8.486-.103 3.24-.154 7.046-.154 11.418v19.75a85.004 85.004 0 0 1 6.789-5.477 72.471 72.471 0 0 1 7.792-4.861 46.943 46.943 0 0 1 8.178-3.471c2.777-.875 5.503-1.312 8.177-1.312 4.012 0 7.407.694 10.184 2.083 2.829 1.389 5.117 3.215 6.866 5.478 1.8 2.263 3.086 4.86 3.858 7.792a31.888 31.888 0 0 1 1.234 8.794v26.231c0 4.372.047 8.203.157 11.495.1 3.24.25 6.043.46 8.409.21 2.366.44 4.346.69 5.941.26 1.594.54 2.931.85 4.011V420h-17.818v-.309c.308-1.08.591-2.417.848-4.011.309-1.595.54-3.575.695-5.941.205-2.366.36-5.169.463-8.409.154-3.292.231-7.123.231-11.495v-21.833Zm71.281 53.387c-5.7 0-11.05-.9-16.04-2.701-4.99-1.8-9.34-4.423-13.04-7.869-3.7-3.497-6.64-7.792-8.8-12.883-2.1-5.144-3.16-11.007-3.16-17.59 0-5.812.98-11.187 2.93-16.124 1.96-4.989 4.66-9.31 8.1-12.961a37.609 37.609 0 0 1 12.04-8.564c4.63-2.057 9.62-3.086 14.97-3.086 5.29 0 10.2.926 14.73 2.778 4.53 1.8 8.44 4.449 11.73 7.946 3.34 3.446 5.96 7.741 7.87 12.884 1.95 5.092 3.01 10.903 3.16 17.435-5.81-.103-11.62-.18-17.44-.231-5.81-.052-11.85-.077-18.13-.077-4.47 0-8.84.025-13.11.077-4.22.051-8.02.128-11.42.231.31 5.349 1.13 10.184 2.47 14.504 1.39 4.321 3.27 8.024 5.63 11.11 2.42 3.034 5.32 5.374 8.72 7.02 3.45 1.646 7.33 2.469 11.65 2.469 2.98 0 5.78-.334 8.41-1.003 2.67-.72 5.09-1.697 7.25-2.932a28.848 28.848 0 0 0 5.79-4.32 29.47 29.47 0 0 0 4.32-5.478l.92.463-5.71 13.733c-2.77 1.44-6.09 2.674-9.95 3.703-3.86.977-8.49 1.466-13.89 1.466Zm-10.26-47.061h15.43c5.2-.051 9.9-.154 14.12-.308-.46-4.475-1.34-8.487-2.62-12.036-1.29-3.548-2.93-6.557-4.94-9.026-2.01-2.469-4.37-4.372-7.1-5.709-2.72-1.337-5.73-2.006-9.02-2.006-2.99 0-5.74.669-8.26 2.006-2.47 1.286-4.63 3.163-6.48 5.632-1.85 2.469-3.34 5.503-4.47 9.103-1.13 3.549-1.8 7.612-2.01 12.19 2.32.103 4.76.154 7.33.154h8.02Zm61.34-3.163c0-4.372-.08-8.178-.23-11.418-.11-3.292-.26-6.12-.47-8.486-.15-2.366-.38-4.346-.69-5.941-.26-1.594-.54-2.931-.85-4.011V341h17.82v.309c-.41 1.183-.77 2.623-1.08 4.32-.26 1.697-.46 3.883-.62 6.558 1.91-1.595 3.89-3.164 5.94-4.707a53.251 53.251 0 0 1 6.33-4.088 38.46 38.46 0 0 1 6.56-2.855c2.26-.72 4.52-1.08 6.79-1.08 1.39 0 2.59.077 3.62.231 1.03.103 1.96.283 2.78.541.82.205 1.57.462 2.24.771.67.257 1.31.514 1.93.771l-3.78 14.736-1.32-.309c-.61-2.263-1.77-4.063-3.47-5.4-1.69-1.389-4.01-2.083-6.94-2.083-1.6 0-3.27.283-5.02.848-1.74.566-3.52 1.363-5.32 2.392-1.8.977-3.6 2.135-5.4 3.472a80.719 80.719 0 0 0-5.25 4.089c-.1 1.491-.15 3.111-.15 4.86v25.459c0 4.372.05 8.203.15 11.495.11 3.24.26 6.043.47 8.409.2 2.366.43 4.346.69 5.941.26 1.594.54 2.931.85 4.011V420h-17.82v-.309c.31-1.08.59-2.417.85-4.011.31-1.595.54-3.575.69-5.941.21-2.366.36-5.169.47-8.409.15-3.292.23-7.123.23-11.495v-18.67Zm96.59 50.224c-5.71 0-11.06-.9-16.05-2.701-4.99-1.8-9.34-4.423-13.04-7.869-3.7-3.497-6.63-7.792-8.79-12.883-2.11-5.144-3.17-11.007-3.17-17.59 0-5.812.98-11.187 2.94-16.124 1.95-4.989 4.65-9.31 8.1-12.961a37.459 37.459 0 0 1 12.03-8.564c4.63-2.057 9.62-3.086 14.97-3.086 5.3 0 10.21.926 14.73 2.778 4.53 1.8 8.44 4.449 11.73 7.946 3.34 3.446 5.97 7.741 7.87 12.884 1.95 5.092 3.01 10.903 3.16 17.435a1947.99 1947.99 0 0 0-35.56-.308c-4.48 0-8.85.025-13.12.077-4.22.051-8.02.128-11.42.231.31 5.349 1.13 10.184 2.47 14.504 1.39 4.321 3.27 8.024 5.63 11.11 2.42 3.034 5.33 5.374 8.72 7.02 3.45 1.646 7.33 2.469 11.65 2.469 2.98 0 5.79-.334 8.41-1.003 2.67-.72 5.09-1.697 7.25-2.932a28.848 28.848 0 0 0 5.79-4.32 28.661 28.661 0 0 0 4.32-5.478l.92.463-5.7 13.733c-2.78 1.44-6.1 2.674-9.96 3.703-3.85.977-8.48 1.466-13.88 1.466Zm-10.26-47.061h15.43c5.19-.051 9.9-.154 14.11-.308-.46-4.475-1.33-8.487-2.62-12.036-1.29-3.548-2.93-6.557-4.94-9.026-2-2.469-4.37-4.372-7.09-5.709-2.73-1.337-5.74-2.006-9.03-2.006-2.98 0-5.74.669-8.26 2.006-2.46 1.286-4.62 3.163-6.48 5.632-1.85 2.469-3.34 5.503-4.47 9.103-1.13 3.549-1.8 7.612-2.01 12.19 2.32.103 4.76.154 7.33.154h8.03Zm160.77-26.23 20.6 51.843 17.21-42.971c.36-.926.77-1.955 1.23-3.086.46-1.183.87-2.366 1.23-3.549.36-1.234.67-2.392.93-3.472.26-1.131.39-2.134.39-3.009 0-.668-.06-1.208-.16-1.62-.1-.463-.2-.771-.31-.925V341h13.89v.309c-.93.977-2.06 2.597-3.39 4.86-1.29 2.212-2.83 5.452-4.63 9.721l-27.39 65.19h-4.4l-19.9-48.295-19.91 48.295H1327l-25.31-61.41a76.565 76.565 0 0 0-3.01-6.481c-1.03-2.108-2.03-3.986-3.01-5.631a62.12 62.12 0 0 0-2.47-4.089c-.72-1.132-1.2-1.852-1.46-2.16V341h20.52v.309c-.1.257-.18.642-.23 1.157-.05.514-.08.977-.08 1.388 0 1.595.23 3.369.7 5.324.51 1.903 1.33 4.294 2.46 7.175l17.21 43.588 20.75-51.843h2.93Zm60.41 49.143c0-4.063.82-7.586 2.47-10.569a25.08 25.08 0 0 1 6.71-7.638c2.78-2.109 5.94-3.806 9.49-5.092a66.223 66.223 0 0 1 11.03-3.086 87.27 87.27 0 0 1 11.27-1.543c3.7-.308 7.09-.488 10.18-.54v-3.934c0-3.395-.44-6.326-1.31-8.795-.88-2.469-2.11-4.5-3.71-6.095-1.59-1.646-3.52-2.854-5.78-3.626-2.21-.823-4.66-1.234-7.33-1.234-1.85 0-3.68.154-5.48.463-1.8.308-3.68.823-5.63 1.543-1.9.72-3.93 1.697-6.09 2.931-2.11 1.235-4.4 2.803-6.87 4.706l-.77-.462 5.24-10.878c1.7-.772 3.37-1.389 5.02-1.852 1.64-.514 3.32-.926 5.01-1.234 1.7-.309 3.42-.515 5.17-.618 1.8-.154 3.68-.231 5.63-.231 5.4 0 10.01.669 13.81 2.006 3.86 1.286 7 3.086 9.42 5.4 2.46 2.263 4.26 4.938 5.4 8.024 1.13 3.034 1.69 6.3 1.69 9.798v25.15c0 4.372.05 8.203.16 11.495.15 3.24.31 6.043.46 8.409.21 2.366.44 4.346.69 5.941.31 1.594.62 2.931.93 4.011V420h-17.05v-.309c.26-.823.44-1.748.54-2.777.16-1.029.28-2.263.39-3.703-1.08.926-2.37 1.877-3.86 2.854-1.44.978-3.11 1.878-5.02 2.701-1.85.771-3.93 1.388-6.24 1.851-2.27.515-4.76.772-7.49.772-8.95 0-15.86-2.083-20.75-6.249-4.89-4.218-7.33-10.184-7.33-17.899Zm51.15-22.45c-4.68.051-9.18.334-13.5.849-4.32.463-8.15 1.465-11.5 3.008-3.29 1.543-5.94 3.755-7.94 6.635-1.96 2.829-2.93 6.609-2.93 11.341 0 6.069 1.51 10.698 4.55 13.887 3.03 3.189 7.22 4.783 12.57 4.783 2.47 0 4.71-.334 6.71-1.003 2.06-.72 3.86-1.594 5.4-2.623 1.6-1.08 2.94-2.237 4.02-3.472 1.08-1.286 1.9-2.52 2.47-3.703.1-1.954.15-4.114.15-6.48v-23.222Zm71.67-18.284-1.08.154c-.36-1.183-.95-2.443-1.77-3.78-.78-1.337-1.8-2.572-3.09-3.703-1.23-1.132-2.75-2.058-4.55-2.778-1.75-.771-3.78-1.157-6.1-1.157-1.59 0-3.11.232-4.55.695a10.905 10.905 0 0 0-3.7 2.083c-1.03.874-1.85 1.98-2.47 3.317-.62 1.337-.93 2.906-.93 4.706 0 2.52.78 4.937 2.32 7.252 1.59 2.263 3.57 4.526 5.94 6.789 2.36 2.212 4.91 4.449 7.64 6.712a85.354 85.354 0 0 1 7.71 7.098c2.37 2.468 4.32 5.117 5.86 7.946 1.6 2.777 2.4 5.786 2.4 9.026 0 2.623-.47 5.195-1.39 7.715-.93 2.469-2.37 4.68-4.32 6.635-1.91 1.954-4.37 3.549-7.41 4.783-2.98 1.183-6.56 1.774-10.72 1.774-2.47 0-4.79-.231-6.95-.694a44.27 44.27 0 0 1-5.86-1.697 41.269 41.269 0 0 1-4.78-2.315 76.81 76.81 0 0 1-3.71-2.468l.78-14.659h1.23c.51 2.418 1.29 4.629 2.31 6.635 1.03 2.006 2.29 3.729 3.79 5.169a18.487 18.487 0 0 0 5.24 3.317c1.96.772 4.09 1.158 6.4 1.158 3.81 0 6.82-1.055 9.03-3.163 2.26-2.109 3.4-4.861 3.4-8.255 0-2.726-.78-5.221-2.32-7.484-1.49-2.314-3.39-4.526-5.71-6.634a137.595 137.595 0 0 0-7.48-6.327 85.087 85.087 0 0 1-7.41-6.711c-2.31-2.418-4.24-5.041-5.78-7.87-1.5-2.88-2.24-6.146-2.24-9.797 0-2.984.54-5.709 1.62-8.178 1.13-2.52 2.67-4.655 4.63-6.404 2-1.8 4.37-3.188 7.1-4.166 2.72-.977 5.7-1.465 8.94-1.465 4.27 0 7.82.463 10.65 1.388 2.88.875 5.07 1.723 6.56 2.546l.77 12.807ZM412.709 571.241c0-4.063.823-7.586 2.469-10.569 1.697-2.983 3.934-5.529 6.712-7.638 2.777-2.109 5.94-3.806 9.489-5.092a66.058 66.058 0 0 1 11.032-3.086 87.252 87.252 0 0 1 11.264-1.543c3.703-.308 7.097-.488 10.183-.54v-3.934c0-3.395-.437-6.326-1.311-8.795-.874-2.469-2.109-4.5-3.703-6.095-1.595-1.646-3.523-2.854-5.786-3.626-2.212-.823-4.655-1.234-7.329-1.234-1.852 0-3.678.154-5.478.463-1.8.308-3.677.823-5.632 1.543-1.903.72-3.934 1.697-6.095 2.931-2.108 1.235-4.397 2.803-6.866 4.706l-.771-.462 5.246-10.878a35.067 35.067 0 0 1 5.014-1.852 41.935 41.935 0 0 1 5.015-1.234 42.91 42.91 0 0 1 5.169-.618c1.8-.154 3.677-.231 5.632-.231 5.4 0 10.003.669 13.809 2.006 3.858 1.286 6.995 3.086 9.413 5.4 2.468 2.263 4.268 4.938 5.4 8.024 1.131 3.034 1.697 6.3 1.697 9.798v25.15c0 4.372.052 8.203.155 11.495.154 3.24.308 6.043.462 8.409.206 2.366.438 4.346.695 5.941.308 1.594.617 2.931.926 4.011V594h-17.05v-.309c.257-.823.437-1.748.54-2.777.154-1.029.283-2.263.386-3.703-1.081.926-2.366 1.877-3.858 2.854-1.44.978-3.112 1.878-5.015 2.701-1.851.771-3.934 1.388-6.249 1.851-2.263.515-4.757.772-7.483.772-8.949 0-15.867-2.083-20.753-6.249-4.886-4.218-7.329-10.184-7.329-17.899Zm51.149-22.45c-4.68.051-9.18.334-13.501.849-4.32.463-8.152 1.465-11.495 3.008-3.291 1.543-5.94 3.755-7.946 6.635-1.954 2.829-2.932 6.609-2.932 11.341 0 6.069 1.518 10.698 4.552 13.887 3.035 3.189 7.226 4.783 12.575 4.783 2.469 0 4.706-.334 6.712-1.003 2.058-.72 3.858-1.594 5.401-2.623 1.594-1.08 2.931-2.237 4.011-3.472 1.08-1.286 1.903-2.52 2.469-3.703.103-1.954.154-4.114.154-6.48v-23.222Zm136.245-26.693 20.598 51.843 17.204-42.971c.36-.926.772-1.955 1.235-3.086a48.389 48.389 0 0 0 1.234-3.549c.36-1.234.669-2.392.926-3.472.257-1.131.386-2.134.386-3.009 0-.668-.052-1.208-.155-1.62-.103-.463-.205-.771-.308-.925V515h13.886v.309c-.925.977-2.057 2.597-3.394 4.86-1.286 2.212-2.829 5.452-4.629 9.721l-27.388 65.19h-4.397l-19.905-48.295-19.904 48.295h-4.397l-25.305-61.41a75.334 75.334 0 0 0-3.009-6.481c-1.028-2.108-2.031-3.986-3.009-5.631-.925-1.646-1.748-3.009-2.468-4.089-.72-1.132-1.209-1.852-1.466-2.16V515h20.521v.309c-.102.257-.18.642-.231 1.157-.052.514-.077.977-.077 1.388 0 1.595.231 3.369.694 5.324.514 1.903 1.337 4.294 2.469 7.175l17.204 43.588 20.753-51.843h2.932Zm60.407 49.143c0-4.063.823-7.586 2.469-10.569 1.697-2.983 3.934-5.529 6.711-7.638 2.778-2.109 5.941-3.806 9.49-5.092a66.058 66.058 0 0 1 11.032-3.086 87.228 87.228 0 0 1 11.264-1.543c3.703-.308 7.097-.488 10.183-.54v-3.934c0-3.395-.437-6.326-1.311-8.795-.875-2.469-2.109-4.5-3.703-6.095-1.595-1.646-3.524-2.854-5.787-3.626-2.211-.823-4.654-1.234-7.329-1.234-1.851 0-3.677.154-5.477.463-1.8.308-3.678.823-5.632 1.543-1.903.72-3.935 1.697-6.095 2.931-2.109 1.235-4.397 2.803-6.866 4.706l-.771-.462 5.246-10.878a35.023 35.023 0 0 1 5.014-1.852 41.935 41.935 0 0 1 5.015-1.234 42.91 42.91 0 0 1 5.169-.618c1.8-.154 3.677-.231 5.632-.231 5.4 0 10.003.669 13.809 2.006 3.858 1.286 6.995 3.086 9.412 5.4 2.469 2.263 4.269 4.938 5.401 8.024 1.131 3.034 1.697 6.3 1.697 9.798v25.15c0 4.372.051 8.203.154 11.495.155 3.24.309 6.043.463 8.409.206 2.366.437 4.346.695 5.941.308 1.594.617 2.931.925 4.011V594h-17.049v-.309c.257-.823.437-1.748.54-2.777.154-1.029.282-2.263.385-3.703-1.08.926-2.366 1.877-3.857 2.854-1.44.978-3.112 1.878-5.015 2.701-1.851.771-3.934 1.388-6.249 1.851-2.263.515-4.757.772-7.483.772-8.949 0-15.867-2.083-20.753-6.249-4.886-4.218-7.329-10.184-7.329-17.899Zm51.149-22.45c-4.68.051-9.18.334-13.501.849-4.32.463-8.152 1.465-11.495 3.008-3.292 1.543-5.94 3.755-7.946 6.635-1.955 2.829-2.932 6.609-2.932 11.341 0 6.069 1.517 10.698 4.552 13.887 3.034 3.189 7.226 4.783 12.575 4.783 2.469 0 4.706-.334 6.712-1.003 2.057-.72 3.857-1.594 5.4-2.623 1.595-1.08 2.932-2.237 4.012-3.472 1.08-1.286 1.903-2.52 2.469-3.703.103-1.954.154-4.114.154-6.48v-23.222Zm61.565 44.283-27.157-59.404a75.666 75.666 0 0 0-3.163-6.481 98.485 98.485 0 0 0-3.24-5.631c-.977-1.646-1.852-3.009-2.623-4.089-.771-1.132-1.286-1.852-1.543-2.16V515h20.213v.309c-.103.257-.18.642-.232 1.157-.051.514-.077.977-.077 1.388 0 1.595.232 3.369.695 5.324.514 1.903 1.44 4.294 2.777 7.175l21.293 46.289 19.441-45.672a113.624 113.624 0 0 0 2.469-6.249c.874-2.263 1.312-4.552 1.312-6.867 0-.668-.052-1.208-.155-1.62-.102-.463-.205-.771-.308-.925V515h13.886v.309c-.925.977-2.108 2.726-3.548 5.246-1.389 2.468-2.881 5.58-4.475 9.335l-36.8 87.64a172.859 172.859 0 0 0-2.546 6.249c-.823 2.263-1.234 4.552-1.234 6.867 0 .668.051 1.208.154 1.62.103.463.206.771.309.925v.309h-14.427v-.309c.977-.977 2.16-2.7 3.549-5.169 1.44-2.417 2.957-5.477 4.552-9.18l10.878-25.768Zm153.834-70.976 20.598 51.843 17.204-42.971c.36-.926.772-1.955 1.235-3.086a48.389 48.389 0 0 0 1.234-3.549c.36-1.234.669-2.392.926-3.472.257-1.131.386-2.134.386-3.009 0-.668-.052-1.208-.155-1.62-.103-.463-.205-.771-.308-.925V515h13.886v.309c-.925.977-2.057 2.597-3.394 4.86-1.286 2.212-2.829 5.452-4.629 9.721l-27.388 65.19h-4.397l-19.904-48.295-19.905 48.295h-4.397l-25.305-61.41a75.334 75.334 0 0 0-3.009-6.481c-1.028-2.108-2.031-3.986-3.008-5.631-.926-1.646-1.749-3.009-2.469-4.089-.72-1.132-1.209-1.852-1.466-2.16V515h20.521v.309c-.102.257-.18.642-.231 1.157-.051.514-.077.977-.077 1.388 0 1.595.231 3.369.694 5.324.515 1.903 1.337 4.294 2.469 7.175l17.204 43.588 20.753-51.843h2.932Zm101.142 73.291c-5.71 0-11.06-.9-16.05-2.701-4.99-1.8-9.33-4.423-13.036-7.869-3.703-3.497-6.635-7.792-8.795-12.883-2.108-5.144-3.163-11.007-3.163-17.59 0-5.812.977-11.187 2.932-16.124 1.954-4.989 4.655-9.31 8.1-12.961a37.598 37.598 0 0 1 12.032-8.564c4.63-2.057 9.62-3.086 14.97-3.086 5.3 0 10.21.926 14.74 2.778 4.52 1.8 8.43 4.449 11.72 7.946 3.35 3.446 5.97 7.741 7.87 12.884 1.96 5.092 3.01 10.903 3.16 17.435a1947.99 1947.99 0 0 0-35.56-.308c-4.48 0-8.85.025-13.12.077-4.21.051-8.02.128-11.41.231.3 5.349 1.13 10.184 2.46 14.504 1.39 4.321 3.27 8.024 5.64 11.11 2.41 3.034 5.32 5.374 8.71 7.02 3.45 1.646 7.33 2.469 11.65 2.469 2.99 0 5.79-.334 8.41-1.003 2.68-.72 5.09-1.697 7.25-2.932a28.567 28.567 0 0 0 5.79-4.32 28.661 28.661 0 0 0 4.32-5.478l.93.463-5.71 13.733c-2.78 1.44-6.1 2.674-9.95 3.703-3.86.977-8.49 1.466-13.89 1.466Zm-10.26-47.061h15.43c5.19-.051 9.9-.154 14.12-.308-.47-4.475-1.34-8.487-2.63-12.036-1.28-3.548-2.93-6.557-4.93-9.026-2.01-2.469-4.38-4.372-7.1-5.709-2.73-1.337-5.74-2.006-9.03-2.006-2.98 0-5.73.669-8.25 2.006-2.47 1.286-4.63 3.163-6.48 5.632-1.86 2.469-3.35 5.503-4.48 9.103-1.13 3.549-1.8 7.612-2 12.19 2.31.103 4.75.154 7.33.154h8.02Zm172.81 29.239-5.71 13.733c-1.39.617-2.98 1.183-4.78 1.697-1.8.514-3.68.952-5.63 1.312-1.91.36-3.83.617-5.79.771-1.95.206-3.81.309-5.55.309-6.23 0-11.99-.9-17.29-2.701-5.24-1.851-9.79-4.526-13.65-8.023-3.81-3.497-6.79-7.792-8.95-12.884-2.16-5.092-3.24-10.903-3.24-17.435 0-5.812 1.11-11.187 3.32-16.124 2.26-4.989 5.37-9.31 9.33-12.961 4.01-3.652 8.72-6.506 14.12-8.564 5.4-2.057 11.26-3.086 17.59-3.086 2.88 0 5.97.257 9.26.772 3.29.463 6.22 1.08 8.79 1.851l5.48 13.116-.93.54c-1.28-1.595-2.82-3.035-4.62-4.321-1.75-1.337-3.71-2.468-5.87-3.394a35.185 35.185 0 0 0-6.71-2.16 33.929 33.929 0 0 0-7.25-.772c-4.01 0-7.66.72-10.96 2.16a23.215 23.215 0 0 0-8.48 6.095c-2.37 2.675-4.22 5.966-5.56 9.875-1.28 3.857-1.93 8.255-1.93 13.192 0 5.555.62 10.724 1.86 15.507 1.28 4.783 3.16 8.949 5.63 12.498 2.52 3.498 5.66 6.249 9.41 8.255 3.81 1.955 8.25 2.932 13.35 2.932 2.36 0 4.7-.283 7.02-.849a31.245 31.245 0 0 0 6.63-2.546 30.518 30.518 0 0 0 5.79-4.011 22.657 22.657 0 0 0 4.4-5.247l.92.463Zm9.18-23.221c0-5.812 1.08-11.187 3.24-16.124 2.16-4.989 5.12-9.31 8.87-12.961 3.81-3.652 8.28-6.506 13.43-8.564 5.14-2.057 10.67-3.086 16.58-3.086 5.82 0 11.27.978 16.36 2.932 5.14 1.903 9.62 4.629 13.42 8.178 3.81 3.549 6.79 7.869 8.95 12.961 2.21 5.091 3.32 10.8 3.32 17.127 0 5.297-.93 10.389-2.78 15.275-1.85 4.886-4.57 9.206-8.17 12.961-3.6 3.754-8.03 6.763-13.27 9.026-5.2 2.212-11.19 3.318-17.98 3.318-5.76 0-11.19-.952-16.28-2.855-5.09-1.903-9.54-4.629-13.34-8.178-3.81-3.548-6.82-7.843-9.03-12.883-2.21-5.092-3.32-10.801-3.32-17.127Zm43.74 35.411c3.66 0 7-.72 10.03-2.16 3.09-1.44 5.74-3.523 7.95-6.249 2.21-2.726 3.93-6.044 5.17-9.952 1.23-3.909 1.85-8.333 1.85-13.27 0-5.555-.59-10.698-1.77-15.43-1.19-4.783-2.96-8.897-5.33-12.343-2.31-3.498-5.24-6.224-8.79-8.178-3.55-1.955-7.69-2.932-12.42-2.932-3.65 0-7 .72-10.03 2.16-3.04 1.389-5.69 3.421-7.95 6.095-2.21 2.675-3.93 5.966-5.17 9.875-1.23 3.857-1.85 8.255-1.85 13.192 0 5.555.59 10.724 1.78 15.507 1.23 4.783 3.03 8.949 5.4 12.498 2.36 3.498 5.29 6.249 8.79 8.255 3.55 1.955 7.66 2.932 12.34 2.932Zm70.75-22.759c0 6.789 1.34 11.778 4.01 14.967 2.73 3.189 6.38 4.783 10.96 4.783 1.64 0 3.49-.334 5.55-1.003 2.06-.72 4.17-1.646 6.33-2.777a60.051 60.051 0 0 0 6.56-4.089 53.044 53.044 0 0 0 6.09-4.938c.1-1.491.15-3.06.15-4.706v-24.07c0-4.372-.07-8.178-.23-11.418-.1-3.292-.25-6.12-.46-8.486-.15-2.366-.39-4.346-.69-5.941-.26-1.594-.54-2.931-.85-4.011V515h17.82v.309c-.31 1.08-.59 2.417-.85 4.011-.26 1.595-.49 3.575-.69 5.941-.21 2.366-.36 5.194-.47 8.486-.1 3.24-.15 7.046-.15 11.418v18.67c0 4.372.05 8.203.15 11.495.11 3.24.26 6.043.47 8.409.2 2.366.43 4.346.69 5.941.26 1.594.54 2.931.85 4.011V594h-17.82v-.309c.31-1.285.61-2.931.92-4.937.36-2.006.62-4.629.77-7.869-2.1 1.8-4.39 3.574-6.86 5.323a61.409 61.409 0 0 1-7.64 4.706 44.762 44.762 0 0 1-8.02 3.317c-2.68.875-5.33 1.312-7.95 1.312-4.01 0-7.43-.694-10.26-2.083-2.78-1.389-5.07-3.215-6.87-5.478-1.75-2.263-3.03-4.834-3.85-7.714a33.79 33.79 0 0 1-1.16-8.872v-26.231c0-4.372-.05-8.178-.16-11.418-.1-3.292-.25-6.12-.46-8.486-.2-2.366-.44-4.346-.69-5.941-.26-1.594-.54-2.931-.85-4.011V515h17.82v.309c-.31 1.08-.59 2.417-.85 4.011-.26 1.595-.49 3.575-.69 5.941-.21 2.366-.36 5.194-.47 8.486-.1 3.24-.15 7.046-.15 11.418v21.833Zm77.3-58.17c0-4.372-.07-8.178-.23-11.418-.1-3.292-.26-6.12-.46-8.486-.16-2.366-.39-4.346-.7-5.941-.25-1.594-.54-2.931-.84-4.011v-.309h17.82v.309c-.31 1.08-.59 2.417-.85 4.011-.26 1.595-.49 3.575-.7 5.941-.2 2.366-.36 5.194-.46 8.486-.1 3.24-.15 7.046-.15 11.418v55.007c0 4.372.05 8.203.15 11.495.1 3.24.26 6.043.46 8.409.21 2.366.44 4.346.7 5.941.26 1.594.54 2.931.85 4.011V594h-17.82v-.309c.3-1.08.59-2.417.84-4.011.31-1.595.54-3.575.7-5.941.2-2.366.36-5.169.46-8.409.16-3.292.23-7.123.23-11.495v-55.007Zm72.83 4.783c2.11 0 4.22.18 6.33.54 2.11.36 4.16.875 6.17 1.543 2 .669 3.91 1.492 5.71 2.469 1.8.977 3.42 2.083 4.86 3.317v-12.652c0-4.372-.05-8.178-.16-11.418-.1-3.292-.25-6.12-.46-8.486-.2-2.366-.44-4.346-.69-5.941-.26-1.594-.54-2.931-.85-4.011v-.309h17.82v.309c-.31 1.08-.62 2.417-.93 4.011a85.267 85.267 0 0 0-.69 5.941c-.16 2.366-.31 5.194-.46 8.486-.11 3.24-.16 7.046-.16 11.418v55.007c0 4.372.05 8.203.16 11.495.15 3.24.3 6.043.46 8.409.2 2.366.44 4.346.69 5.941.31 1.594.62 2.931.93 4.011V594h-17.05v-.309c.15-.411.28-1.003.39-1.774.1-.823.23-1.826.38-3.009-2.62 1.646-5.91 3.138-9.87 4.475-3.96 1.337-8.57 2.006-13.81 2.006-6.12 0-11.68-.952-16.67-2.855-4.99-1.903-9.26-4.629-12.8-8.178-3.5-3.548-6.2-7.843-8.1-12.883-1.91-5.092-2.86-10.801-2.86-17.127 0-5.812 1.03-11.187 3.09-16.124 2.05-4.989 4.93-9.31 8.64-12.961 3.7-3.652 8.1-6.506 13.19-8.564 5.09-2.057 10.67-3.086 16.74-3.086Zm23.07 21.448c-2.06-5.401-5.02-9.387-8.87-11.958-3.81-2.572-8.1-3.858-12.89-3.858-4.01 0-7.71.72-11.11 2.16-3.39 1.389-6.3 3.421-8.71 6.095-2.42 2.675-4.33 5.966-5.71 9.875-1.34 3.857-2.01 8.255-2.01 13.192 0 5.555.62 10.724 1.85 15.507 1.24 4.783 3.04 8.949 5.4 12.498 2.42 3.498 5.4 6.249 8.95 8.255 3.55 1.955 7.64 2.932 12.27 2.932 2.42 0 4.68-.283 6.79-.849 2.11-.566 4.03-1.286 5.78-2.16 1.75-.874 3.29-1.826 4.63-2.854 1.34-1.081 2.45-2.135 3.32-3.164.1-2.211.18-4.731.23-7.56.05-2.829.08-5.941.08-9.335v-28.776ZM418.264 742.695a3.02 3.02 0 0 1-1.775.54c-.668 0-1.208-.18-1.62-.54-.411-.411-.617-.925-.617-1.543 0-.668.309-1.414.926-2.237.565-.874 1.594-1.749 3.086-2.623l19.518-11.495c1.44-4.063 3.292-7.561 5.555-10.492 2.314-2.983 4.835-5.426 7.56-7.329 2.778-1.955 5.658-3.395 8.641-4.321 3.035-.977 5.966-1.466 8.795-1.466 2.88 0 5.246.772 7.098 2.315 1.903 1.491 2.854 3.832 2.854 7.02 0 1.955-.72 4.012-2.16 6.172-1.389 2.109-3.317 4.218-5.786 6.326-2.417 2.058-5.272 3.986-8.564 5.787a63.935 63.935 0 0 1-10.492 4.551c0 2.469-.051 4.809-.154 7.021a266.303 266.303 0 0 0-.077 6.249c0 1.646.051 3.163.154 4.552.103 1.337.309 2.494.617 3.471.36.926.823 1.672 1.389 2.238.617.514 1.389.771 2.314.771 1.44 0 3.163-.566 5.169-1.697 2.058-1.183 4.629-2.675 7.715-4.475a807.249 807.249 0 0 1 10.647-6.172c4.32-2.468 9.592-5.477 15.815-9.026.206-.154.489-.231.849-.231.565 0 1.054.257 1.466.771.462.463.694 1.054.694 1.774 0 .618-.232 1.286-.694 2.006-.412.72-1.183 1.415-2.315 2.083a406.383 406.383 0 0 0-14.812 9.258 521.224 521.224 0 0 1-13.579 8.486c-4.217 2.521-8.126 4.604-11.726 6.249-3.6 1.595-6.738 2.392-9.412 2.392-1.8 0-3.395-.386-4.783-1.157-1.338-.772-2.495-2.006-3.472-3.703-.926-1.698-1.646-3.909-2.16-6.635-.463-2.777-.695-6.146-.695-10.106 0-.618.026-1.595.078-2.932.102-1.389.231-2.855.385-4.398.206-1.594.437-3.137.695-4.628.257-1.492.565-2.649.925-3.472l-1.62.926c-.668.411-1.466.9-2.391 1.465-.926.515-1.903 1.081-2.932 1.698l-3.086 1.851-8.023 4.706Zm51.689-31.553c.103-.309.154-.643.154-1.003 0-1.286-.231-2.238-.694-2.855-.411-.617-1.131-.926-2.16-.926-1.183 0-2.546.463-4.089 1.389-1.543.874-3.06 2.186-4.552 3.935-1.44 1.748-2.751 3.934-3.934 6.557-1.132 2.623-1.903 5.632-2.315 9.027a54.376 54.376 0 0 0 6.172-3.704c2.006-1.44 3.806-2.88 5.401-4.32 1.645-1.491 2.983-2.931 4.011-4.32 1.08-1.44 1.749-2.7 2.006-3.78Zm196.651 25.15c.669-.257 1.209-.386 1.621-.386.72 0 1.363.18 1.928.54.618.36.926.875.926 1.543 0 .72-.771 1.723-2.314 3.009-1.543 1.234-3.421 2.572-5.632 4.012a269.183 269.183 0 0 1-6.866 4.32 510.107 510.107 0 0 0-6.095 3.626c-2.263 1.492-4.809 3.292-7.638 5.4a187.285 187.285 0 0 1-8.795 6.018c-2.983 1.954-5.94 3.6-8.872 4.938-2.88 1.388-5.503 2.083-7.869 2.083-2.109 0-3.909-.772-5.4-2.315-1.44-1.491-2.16-3.909-2.16-7.252 0-2.006.308-4.346.925-7.02.617-2.726 1.646-5.864 3.086-9.412a931.738 931.738 0 0 0 4.398-11.11c1.285-3.189 2.34-5.915 3.163-8.178.823-2.263 1.44-4.114 1.851-5.554.412-1.492.618-2.649.618-3.472 0-1.749-.643-2.623-1.929-2.623s-3.086.849-5.401 2.546c-2.314 1.646-4.911 3.832-7.792 6.557-2.828 2.726-5.811 5.864-8.949 9.413a181.394 181.394 0 0 0-8.872 10.878c-2.829 3.754-5.375 7.457-7.638 11.109s-3.986 6.969-5.169 9.952c-.205.514-.591 1.029-1.157 1.543-.565.463-1.234.9-2.006 1.312-.72.36-1.517.642-2.391.848a9.014 9.014 0 0 1-2.546.386c-1.389 0-2.597-.386-3.626-1.157-1.029-.823-1.543-2.212-1.543-4.166 0-1.646.309-3.523.926-5.632.668-2.16 1.311-4.192 1.928-6.095a381.28 381.28 0 0 1 2.778-9.335 941.075 941.075 0 0 1 2.854-8.718 596.273 596.273 0 0 1 3.086-8.872c.463-.771.952-1.594 1.466-2.468a24.166 24.166 0 0 0 1.466-2.778c.411-.926.746-1.826 1.003-2.7.308-.926.463-1.749.463-2.469 0-1.286-.592-1.928-1.775-1.928-2.417 0-5.194.874-8.332 2.623-3.086 1.697-6.3 3.934-9.643 6.712-3.292 2.725-6.584 5.837-9.875 9.334a141.21 141.21 0 0 0-9.104 10.493c-2.777 3.497-5.169 6.866-7.175 10.106-2.005 3.189-3.394 5.915-4.166 8.178a67.11 67.11 0 0 1-1.311 3.626c-.36 1.028-.772 1.877-1.235 2.546a4.844 4.844 0 0 1-1.697 1.543c-.668.308-1.543.463-2.623.463-2.16 0-3.626-.592-4.397-1.775-.72-1.234-1.08-2.803-1.08-4.706 0-.874.257-2.211.771-4.012.514-1.851 1.183-3.96 2.006-6.326a1190.7 1190.7 0 0 1 2.854-7.637 1498.91 1498.91 0 0 1 3.086-8.255c1.08-2.778 2.109-5.452 3.086-8.024.978-2.571 1.8-4.86 2.469-6.866l-37.34 21.987c-.668.36-1.311.54-1.928.54-.618 0-1.132-.18-1.543-.54-.463-.36-.695-.848-.695-1.466 0-.668.335-1.44 1.003-2.314.617-.874 1.672-1.749 3.163-2.623l27.542-16.201a22.393 22.393 0 0 1 2.315-1.543 29.358 29.358 0 0 1 2.854-1.389 23.989 23.989 0 0 1 3.086-1.003 12.689 12.689 0 0 1 3.086-.385c1.132 0 2.134.282 3.009.848a7.253 7.253 0 0 1 2.314 2.006 8.035 8.035 0 0 1 1.389 2.623c.36.977.54 1.903.54 2.777 0 .926-.077 1.852-.231 2.778-.103.874-.36 1.98-.772 3.317-.36 1.286-.874 2.88-1.543 4.783a865.651 865.651 0 0 1-2.623 7.329c1.8-2.417 3.677-4.911 5.632-7.483a127.678 127.678 0 0 1 6.326-7.638 92.484 92.484 0 0 1 7.021-7.174 54.093 54.093 0 0 1 7.946-5.941 39.96 39.96 0 0 1 8.795-4.012c3.137-1.028 6.429-1.543 9.875-1.543 1.028 0 2.031.258 3.009.772 1.028.463 1.928 1.209 2.7 2.237.823 1.029 1.466 2.34 1.928 3.935.515 1.594.772 3.471.772 5.632 0 2.52-.386 5.426-1.157 8.717-.72 3.241-1.98 6.944-3.781 11.11 3.652-5.349 7.33-9.824 11.033-13.424 3.754-3.652 7.38-6.661 10.878-9.026 3.548-2.366 6.917-4.166 10.106-5.401 3.189-1.286 6.069-2.237 8.641-2.854 1.44 0 2.957.205 4.551.617 1.595.411 3.035 1.029 4.321 1.851a9.839 9.839 0 0 1 3.163 3.009c.874 1.235 1.311 2.675 1.311 4.321 0 .462-.025.925-.077 1.388a8.289 8.289 0 0 1-.308 1.466c-.618 2.16-1.466 4.5-2.546 7.021a238.926 238.926 0 0 1-3.472 7.56 211.538 211.538 0 0 1-3.857 7.638 176.101 176.101 0 0 0-3.472 7.02c-1.029 2.16-1.877 4.115-2.546 5.864-.669 1.697-1.003 3.034-1.003 4.011 0 1.235.463 1.852 1.389 1.852.771 0 1.954-.489 3.549-1.466 1.645-.977 3.523-2.186 5.631-3.626 2.109-1.491 4.398-3.112 6.867-4.86a153.615 153.615 0 0 1 7.406-4.938l20.058-12.575Zm.078 0 40.888-26.076.618-.849c.36-.514.925-1.157 1.697-1.929a49.461 49.461 0 0 1 2.777-2.545 23.812 23.812 0 0 1 3.858-2.546c1.44-.772 3.034-1.415 4.783-1.929 1.8-.514 3.754-.772 5.863-.772 2.983 0 6.146.309 9.489.926 3.395.566 6.506 1.646 9.335 3.24 2.829 1.543 5.169 3.729 7.021 6.558 1.903 2.777 2.854 6.378 2.854 10.801 0 2.109-.591 4.526-1.774 7.252-1.132 2.674-2.752 5.452-4.861 8.332-2.057 2.88-4.551 5.786-7.483 8.718a89.958 89.958 0 0 1-9.643 8.332l29.084-17.513a2.917 2.917 0 0 1 1.158-.231c.565 0 1.003.205 1.311.617.36.411.54.926.54 1.543 0 .72-.257 1.491-.771 2.314-.463.823-1.209 1.543-2.238 2.16-6.377 3.806-12.112 7.072-17.204 9.798-5.04 2.675-9.617 4.912-13.732 6.712-4.115 1.8-7.869 3.24-11.264 4.32-3.343 1.029-6.532 1.826-9.566 2.392a75.534 75.534 0 0 1-8.718 1.003c-2.829.154-5.76.231-8.795.231a310.135 310.135 0 0 1-6.712 13.81c-2.366 4.629-4.654 9.103-6.866 13.424a683.919 683.919 0 0 0-6.172 12.498c-1.903 4.012-3.446 7.74-4.629 11.186-.154.463-.437 1.106-.848 1.929a22.59 22.59 0 0 1-1.62 2.469 12.733 12.733 0 0 1-1.929 2.083c-.72.617-1.415.926-2.083.926-.875 0-1.775-.103-2.7-.309a11.311 11.311 0 0 1-2.623-.926c-.823-.36-1.492-.823-2.006-1.388a2.525 2.525 0 0 1-.772-1.852c0-.309.026-.489.077-.54.566-2.932 1.698-6.455 3.395-10.569 1.646-4.064 3.677-8.538 6.095-13.424a628.541 628.541 0 0 1 7.792-15.507c2.88-5.452 5.786-10.981 8.717-16.587a730.854 730.854 0 0 0 8.487-16.741c2.777-5.555 5.272-10.878 7.483-15.97.309-.771.72-1.569 1.234-2.392l1.698-2.468a50.87 50.87 0 0 1 1.851-2.469 82.626 82.626 0 0 0 1.62-2.083c-.874.463-2.443 1.389-4.706 2.777a2304.986 2304.986 0 0 0-8.177 4.861 3510.542 3510.542 0 0 0-10.415 6.172 1134.34 1134.34 0 0 1-11.418 6.634c-.309.155-.592.232-.849.232-.566 0-1.08-.232-1.543-.695-.463-.514-.694-1.131-.694-1.851 0-.617.231-1.286.694-2.006.463-.72 1.26-1.414 2.392-2.083Zm65.499-27.696c-2.778 0-5.684 1.388-8.718 4.166-2.983 2.777-6.018 6.532-9.104 11.263-3.086 4.681-6.171 10.158-9.257 16.433-3.086 6.223-6.095 12.807-9.027 19.75 3.035 0 6.249-.437 9.644-1.312 3.446-.874 6.866-2.108 10.26-3.703a66.23 66.23 0 0 0 9.721-5.786c3.138-2.263 5.889-4.757 8.255-7.483 2.417-2.778 4.32-5.735 5.709-8.872 1.44-3.189 2.16-6.481 2.16-9.875 0-2.212-.18-4.192-.54-5.941-.36-1.8-.926-3.343-1.697-4.629-.772-1.285-1.775-2.263-3.009-2.931-1.183-.72-2.649-1.08-4.397-1.08Zm45.054 48.912c0-1.749.077-3.652.232-5.709.206-2.109.437-4.295.694-6.558.309-2.314.669-4.629 1.08-6.943.412-2.366.849-4.68 1.312-6.944l-19.287 11.341c-.515.36-1.08.54-1.698.54-.617 0-1.131-.205-1.543-.617a1.978 1.978 0 0 1-.694-1.543c0-.72.309-1.466.926-2.237.566-.823 1.569-1.672 3.009-2.546l20.058-12.575c.823-2.366 2.006-5.555 3.549-9.567 1.543-4.011 3.446-8.46 5.709-13.346 2.263-4.886 4.886-10.055 7.869-15.507 2.983-5.452 6.352-10.852 10.107-16.201a145.757 145.757 0 0 1 12.343-15.276c4.475-4.886 9.31-9.18 14.504-12.883a70.855 70.855 0 0 1 16.819-8.795c6.017-2.212 12.421-3.318 19.21-3.318 5.76 0 10.775.412 15.044 1.235 4.268.771 7.792 1.877 10.569 3.317 2.777 1.44 4.835 3.137 6.172 5.092 1.388 1.903 2.083 3.986 2.083 6.249 0 3.549-1.543 7.277-4.629 11.186-3.035 3.858-7.586 7.638-13.655 11.341l-87.795 54.081-4.629 29.702 7.869-4.783a717.442 717.442 0 0 0 7.406-4.706c2.366-1.491 4.5-2.854 6.403-4.089 1.955-1.286 3.524-2.366 4.707-3.24.565-.514 1.311-1.106 2.237-1.774a24.244 24.244 0 0 1 3.24-1.852 29.652 29.652 0 0 1 3.935-1.466 15.135 15.135 0 0 1 4.32-.617c1.08 0 2.16.129 3.24.386 1.08.205 2.032.72 2.855 1.543.874.823 1.568 2.006 2.083 3.549.565 1.543.848 3.626.848 6.249v19.904a736.69 736.69 0 0 1 2.855-1.697c1.44-.875 3.163-1.903 5.169-3.086 2.006-1.183 4.191-2.469 6.557-3.858l7.252-4.166 18.67-11.032c1.08-.617 2.006-.926 2.778-.926 1.183 0 1.774.592 1.774 1.775 0 .823-.36 1.723-1.08 2.7-.669.926-1.826 1.877-3.472 2.854a3777.586 3777.586 0 0 1-16.278 9.567 753.617 753.617 0 0 1-14.041 8.1c-4.166 2.366-7.715 4.295-10.647 5.786-2.931 1.441-4.989 2.263-6.171 2.469-.566.103-1.158.18-1.775.232-.617.051-1.234.077-1.851.077-1.852 0-3.369-.257-4.552-.772-1.132-.463-2.032-1.105-2.7-1.928a8.4 8.4 0 0 1-1.312-2.932 18.525 18.525 0 0 1-.309-3.472c0-1.183.206-2.417.618-3.703.463-1.337.797-2.803 1.003-4.397l2.16-16.896c-7.767 5.452-14.864 10.287-21.293 14.504a264.955 264.955 0 0 1-6.712 5.169 228.631 228.631 0 0 1-6.095 4.397c-1.8 1.286-3.369 2.315-4.706 3.086-1.337.72-2.237 1.08-2.7 1.08-.977 0-2.032-.051-3.163-.154a12.344 12.344 0 0 1-3.163-.694 7.244 7.244 0 0 1-2.392-1.697c-.617-.772-.926-1.775-.926-3.009Zm23.376-46.058a2742.931 2742.931 0 0 1 20.213-13.501c6.995-4.68 14.067-9.309 21.216-13.887 7.201-4.577 14.35-9.052 21.447-13.423a710.168 710.168 0 0 1 20.83-12.421c3.909-2.932 6.918-5.658 9.027-8.178 2.108-2.52 3.163-4.783 3.163-6.789 0-2.572-1.955-4.603-5.863-6.095-3.909-1.543-10.107-2.314-18.593-2.314-3.961 0-7.921.771-11.881 2.314-3.96 1.492-7.869 3.549-11.727 6.172-3.806 2.623-7.509 5.709-11.109 9.258a126.366 126.366 0 0 0-10.261 11.264 154.912 154.912 0 0 0-9.103 12.498A189.606 189.606 0 0 0 810.255 689c-2.263 4.166-4.218 8.178-5.863 12.035-1.646 3.858-2.906 7.329-3.781 10.415Zm83.629 31.245c-.36.206-.694.309-1.003.309-.514 0-.9-.206-1.157-.617-.257-.463-.386-1.029-.386-1.698 0-.72.18-1.491.54-2.314.36-.823 1.029-1.517 2.006-2.083l28.545-16.818a73.91 73.91 0 0 1 11.341-5.324 94.574 94.574 0 0 1 12.189-3.626 96.827 96.827 0 0 1 12.344-2.083c4.063-.462 7.895-.694 11.495-.694 2.058 0 3.986.154 5.786.463 1.801.257 3.344.669 4.629 1.234 1.338.515 2.366 1.158 3.086 1.929.772.772 1.157 1.646 1.157 2.623 0 .72-.257 1.234-.771 1.543-.514.309-1.131.54-1.852.694-.668.103-1.388.18-2.16.232-.72.051-1.286.18-1.697.386-.309.977-.797 2.494-1.466 4.551a311.254 311.254 0 0 0-2.006 6.249 398.549 398.549 0 0 1-1.851 5.709c-.515 1.646-.797 2.598-.849 2.855-.668 2.16-1.594 4.912-2.777 8.255-1.132 3.291-2.392 7.715-3.78 13.269.051 0 .617-.283 1.697-.848a546.153 546.153 0 0 0 4.32-2.392c1.8-.977 3.832-2.109 6.095-3.395a721.214 721.214 0 0 1 7.02-3.934l18.439-10.878c.72-.411 1.337-.617 1.851-.617.566 0 1.003.206 1.312.617.309.36.463.823.463 1.389 0 .72-.283 1.568-.849 2.546-.566.925-1.491 1.748-2.777 2.468l-41.043 24.071c-1.029.617-1.98 1.054-2.855 1.311-.874.257-1.671.386-2.391.386-1.029 0-1.903-.232-2.623-.694-.72-.463-1.312-1.106-1.775-1.929a11.146 11.146 0 0 1-1.08-2.778 18.085 18.085 0 0 1-.308-3.394c0-1.286.128-2.572.385-3.857a28.142 28.142 0 0 1 1.003-3.704c-1.491 2.932-3.24 5.478-5.246 7.638-1.954 2.16-4.063 3.986-6.326 5.478-2.212 1.44-4.5 2.52-6.866 3.24-2.366.72-4.681 1.08-6.944 1.08s-4.397-.36-6.403-1.08a15.913 15.913 0 0 1-5.323-3.163c-1.492-1.44-2.675-3.215-3.549-5.323-.874-2.109-1.311-4.552-1.311-7.33 0-1.645.154-3.471.462-5.477a68.76 68.76 0 0 1 1.389-6.095 74.758 74.758 0 0 1 1.929-6.017 63.6 63.6 0 0 1 2.237-5.478l-22.296 13.115Zm70.128-28.39c-4.114 0-8.049.694-11.804 2.083a46.26 46.26 0 0 0-10.492 5.477 52.273 52.273 0 0 0-8.718 7.792c-2.571 2.88-4.783 5.864-6.634 8.949-1.8 3.035-3.215 6.044-4.243 9.027-.978 2.983-1.466 5.657-1.466 8.023 0 2.623.565 4.758 1.697 6.404 1.183 1.594 3.086 2.391 5.709 2.391 1.543 0 3.215-.463 5.015-1.389 1.851-.977 3.703-2.237 5.554-3.78a59.62 59.62 0 0 0 5.555-5.323 87.829 87.829 0 0 0 5.092-6.018c1.543-2.057 2.88-4.037 4.012-5.94 1.182-1.954 2.031-3.652 2.545-5.092l8.178-22.604Zm90.652 4.551c0 2.161.15 3.755.46 4.784.31 1.028.64 1.954 1 2.777.41.771.77 1.646 1.08 2.623.36.926.54 2.392.54 4.398 0 1.388-.15 2.957-.46 4.706-.26 1.697-.77 3.471-1.54 5.323-.77 1.8-1.85 3.6-3.24 5.4-1.39 1.749-3.17 3.318-5.33 4.706l30.25-17.281c.36-.206.72-.309 1.08-.309.56 0 1.05.232 1.46.695.47.411.7.977.7 1.697 0 .566-.26 1.26-.77 2.083-.47.823-1.29 1.569-2.47 2.237-6.33 3.601-11.78 6.738-16.36 9.412-4.53 2.623-8.41 4.886-11.65 6.789a468.176 468.176 0 0 0-7.87 4.784 818.026 818.026 0 0 1-5.17 3.086c-2.47 1.491-4.81 2.494-7.02 3.008-2.21.515-4.39.772-6.55.772-1.65 0-2.86-.283-3.63-.849-.72-.565-1.08-1.183-1.08-1.851.05-.72.46-1.363 1.23-1.929.78-.617 1.88-.926 3.32-.926 2.52 0 4.96-.848 7.33-2.546 2.37-1.748 4.45-4.089 6.25-7.02 1.85-2.983 3.32-6.455 4.4-10.415 1.13-3.961 1.69-8.152 1.69-12.575 0-.669.13-1.955.39-3.858.31-1.903.77-3.96 1.39-6.172a42.693 42.693 0 0 1 2.39-6.48c1.03-2.109 2.24-3.703 3.63-4.783l-47.296 31.553c-.514.36-1.055.54-1.62.54-.566 0-1.029-.205-1.389-.617-.36-.411-.54-.926-.54-1.543 0-.72.283-1.517.849-2.391.514-.875 1.414-1.672 2.7-2.392A2298.472 2298.472 0 0 1 1014 722.328c5.66-3.754 10.26-6.789 13.81-9.103l10.8-7.329c1.6-.669 3.27-1.183 5.02-1.543 1.75-.412 3.37-.618 4.86-.618 1.65 0 2.98.283 4.01.849 1.08.514 1.62 1.363 1.62 2.546 0 .411-.49 1.08-1.46 2.006-.93.926-1.96 1.98-3.09 3.163a47.938 47.938 0 0 0-3.16 3.472c-.93 1.182-1.39 2.211-1.39 3.085Zm109.55 23.839c-7.97 4.578-14.74 8.564-20.29 11.958-5.56 3.343-10.29 6.121-14.2 8.332-3.91 2.161-7.22 3.781-9.95 4.861-2.67 1.028-5.12 1.543-7.33 1.543-2.16 0-4.01-.257-5.55-.772-1.49-.514-2.73-1.208-3.71-2.083a8.055 8.055 0 0 1-2.16-3.163c-.41-1.234-.61-2.572-.61-4.012 0-1.08.23-2.185.69-3.317a29.987 29.987 0 0 1 1.7-3.472c.72-1.183 1.46-2.417 2.24-3.703a47.413 47.413 0 0 0 2.16-4.243l11.72-26.23-41.43 24.301c-.67.257-1.13.386-1.39.386a2.39 2.39 0 0 1-1.62-.617 1.987 1.987 0 0 1-.77-1.62c0-.617.29-1.312.85-2.083.52-.772 1.49-1.595 2.93-2.469l19.98-11.649c2.63-1.543 5.28-3.086 7.95-4.629 2.68-1.543 5.17-2.983 7.48-4.321 2.37-1.337 4.48-2.52 6.33-3.548 1.9-1.081 3.37-1.903 4.4-2.469h9.95c.21.154.39.411.54.771.15.36.23.9.23 1.62 0 1.338-.38 3.241-1.16 5.709-.77 2.418-1.74 5.144-2.93 8.178a205.688 205.688 0 0 1-3.85 9.567c-1.39 3.291-2.7 6.429-3.94 9.412a306.527 306.527 0 0 1-3.86 8.795c-1.33 2.931-2.67 5.94-4.01 9.026 1.39 0 3.58-.694 6.56-2.083 3.03-1.389 6.69-3.266 10.95-5.632 4.32-2.417 9.19-5.22 14.59-8.409 5.45-3.24 11.29-6.686 17.51-10.338.2-.206.59-.309 1.16-.309.61 0 1.18.206 1.69.618.57.411.85.977.85 1.697 0 .617-.28 1.311-.85 2.083-.51.72-1.46 1.491-2.85 2.314Zm-21.29-60.021c.3 0 .87.026 1.69.077a31 31 0 0 1 2.93.154c1.08.103 2.22.283 3.4.54 1.18.206 2.26.54 3.24 1.003.98.412 1.8.952 2.47 1.62.67.669 1.03 1.492 1.08 2.469l-11.19 8.486-5.09 2.392c-.93 0-1.65-.257-2.16-.771-.51-.515-.9-1.055-1.16-1.621l4.79-14.349Zm21.29 60.021c-.67.257-1.13.386-1.39.386-.67 0-1.23-.18-1.7-.54-.51-.411-.77-.977-.77-1.697 0-.566.28-1.235.85-2.006.51-.823 1.52-1.672 3.01-2.546l36.03-21.216c.31-.463.56-.926.77-1.388.2-.463.31-.849.31-1.158.36-1.903.87-3.651 1.54-5.246.72-1.594 1.44-2.983 2.16-4.166.77-1.234 1.49-2.237 2.16-3.009.72-.771 1.29-1.285 1.7-1.543.67-.514 1.46-.771 2.39-.771.82 0 1.52.257 2.08.771.62.515.93 1.183.93 2.006 0 .772-.29 1.569-.85 2.392-.16.206-.36.488-.62.848-.26.309-.51.746-.77 1.312-.26.514-.49 1.183-.69 2.006-.21.771-.31 1.723-.31 2.854 0 .669.02 1.235.07 1.698.06.411.08.9.08 1.465 0 .052.41.515 1.24 1.389.87.823 1.92 1.929 3.16 3.318 1.29 1.388 2.65 3.008 4.09 4.86a52.814 52.814 0 0 1 4.09 5.863c1.28 2.006 2.34 4.063 3.16 6.172.87 2.057 1.31 4.037 1.31 5.94 0 1.595-.44 3.086-1.31 4.475-.87 1.389-2.34 2.597-4.4 3.626-2 .977-4.68 1.774-8.02 2.392-3.34.565-7.48.848-12.42.848h-2.01c4.17 1.698 7.49 3.241 9.95 4.629 2.52 1.337 4.63 2.598 6.33 3.78l39.73-24.147c.21-.154.52-.231.93-.231.56 0 1.13.231 1.7.694.56.463.84 1.054.84 1.774 0 .566-.25 1.209-.77 1.929-.51.72-1.41 1.466-2.7 2.237l-36.64 21.91c2.36 4.012 4.11 8.667 5.24 13.964 1.13 5.349 1.7 11.058 1.7 17.127 0 5.915-.51 12.01-1.54 18.284a115.29 115.29 0 0 1-4.55 18.285c-2.01 5.966-4.45 11.598-7.33 16.895-2.88 5.298-6.2 9.927-9.96 13.887-3.7 3.96-7.79 7.098-12.26 9.412-4.48 2.314-9.29 3.472-14.43 3.472-4.58 0-8.77-.643-12.57-1.929-3.81-1.286-7.05-3.163-9.73-5.632-2.72-2.469-4.83-5.503-6.32-9.103-1.49-3.601-2.24-7.741-2.24-12.421 0-6.326 1.06-12.344 3.16-18.053 2.11-5.658 4.94-11.058 8.49-16.201 3.5-5.092 7.51-9.901 12.04-14.427 4.52-4.526 9.18-8.795 13.96-12.807 4.83-3.96 9.62-7.689 14.35-11.186 4.73-3.446 9.08-6.661 13.04-9.644-.72-.977-1.65-1.954-2.78-2.931-1.13-1.029-2.52-1.955-4.17-2.778-1.64-.823-3.54-1.517-5.7-2.083-2.17-.617-4.66-1.054-7.49-1.311-1.7-.154-3.5-.232-5.4-.232-1.9-.051-3.68-.154-5.32-.308-1.6-.206-2.93-.566-4.01-1.08-1.03-.566-1.55-1.44-1.55-2.623 0-.978.59-1.878 1.78-2.701 1.13-.771 2.9-1.157 5.32-1.157h.46c1.8 0 4.22.103 7.26.309 3.08.206 6.3.308 9.64.308 2.16 0 4.29-.102 6.4-.308 2.16-.257 4.07-.72 5.71-1.389 1.65-.668 2.98-1.594 4.01-2.777 1.03-1.183 1.55-2.726 1.55-4.629 0-2.315-.78-5.118-2.32-8.409-1.49-3.343-4.14-7.432-7.94-12.267l-41.74 24.533Zm-1.93 100.91a49.545 49.545 0 0 0-.23 4.938c0 2.212.18 4.5.54 6.866.31 2.417.92 4.629 1.85 6.635.98 2.006 2.29 3.652 3.93 4.937 1.7 1.286 3.91 1.929 6.64 1.929 4.17 0 8.07-1.389 11.73-4.166 3.65-2.777 6.99-6.48 10.02-11.109 3.04-4.578 5.74-9.85 8.11-15.816a150.751 150.751 0 0 0 6.09-18.438 164.213 164.213 0 0 0 3.78-18.902c.87-6.223 1.31-11.932 1.31-17.126 0-2.829-.13-5.427-.38-7.792-.21-2.366-.6-4.475-1.16-6.327-2.62 1.955-5.68 4.398-9.18 7.329-3.45 2.984-7.05 6.327-10.8 10.03-3.71 3.754-7.38 7.843-11.03 12.266a124.32 124.32 0 0 0-9.96 13.887 99.348 99.348 0 0 0-7.56 15.121c-2 5.195-3.24 10.441-3.7 15.738Zm93.89-100.91c-.52.36-1.11.54-1.78.54-.66 0-1.2-.18-1.62-.54-.41-.411-.61-.925-.61-1.543 0-.668.31-1.414.92-2.237.57-.874 1.6-1.749 3.09-2.623l19.52-11.495c1.44-4.063 3.29-7.561 5.55-10.492 2.32-2.983 4.84-5.426 7.56-7.329 2.78-1.955 5.66-3.395 8.64-4.321 3.04-.977 5.97-1.466 8.8-1.466 2.88 0 5.24.772 7.1 2.315 1.9 1.491 2.85 3.832 2.85 7.02 0 1.955-.72 4.012-2.16 6.172-1.39 2.109-3.32 4.218-5.79 6.326-2.41 2.058-5.27 3.986-8.56 5.787a63.988 63.988 0 0 1-10.49 4.551c0 2.469-.05 4.809-.16 7.021-.05 2.211-.07 4.294-.07 6.249 0 1.646.05 3.163.15 4.552.1 1.337.31 2.494.62 3.471.36.926.82 1.672 1.39 2.238.61.514 1.39.771 2.31.771 1.44 0 3.17-.566 5.17-1.697 2.06-1.183 4.63-2.675 7.72-4.475 2.77-1.646 6.32-3.703 10.64-6.172 4.32-2.468 9.59-5.477 15.82-9.026.2-.154.49-.231.85-.231.56 0 1.05.257 1.46.771.47.463.7 1.054.7 1.774 0 .618-.23 1.286-.7 2.006-.41.72-1.18 1.415-2.31 2.083a405.425 405.425 0 0 0-14.81 9.258 529.764 529.764 0 0 1-13.58 8.486c-4.22 2.521-8.13 4.604-11.73 6.249-3.6 1.595-6.74 2.392-9.41 2.392-1.8 0-3.4-.386-4.78-1.157-1.34-.772-2.5-2.006-3.48-3.703-.92-1.698-1.64-3.909-2.16-6.635-.46-2.777-.69-6.146-.69-10.106 0-.618.02-1.595.08-2.932.1-1.389.23-2.855.38-4.398.21-1.594.44-3.137.7-4.628.25-1.492.56-2.649.92-3.472l-1.62.926c-.67.411-1.46.9-2.39 1.465-.93.515-1.9 1.081-2.93 1.698l-3.09 1.851-8.02 4.706Zm51.69-31.553c.1-.309.15-.643.15-1.003 0-1.286-.23-2.238-.69-2.855-.41-.617-1.13-.926-2.16-.926-1.18 0-2.55.463-4.09 1.389-1.54.874-3.06 2.186-4.55 3.935-1.44 1.748-2.75 3.934-3.94 6.557-1.13 2.623-1.9 5.632-2.31 9.027a54.617 54.617 0 0 0 6.17-3.704c2.01-1.44 3.81-2.88 5.4-4.32 1.65-1.491 2.98-2.931 4.01-4.32 1.08-1.44 1.75-2.7 2.01-3.78Zm84.71 8.023c0-4.372-.08-8.178-.23-11.418-.11-3.292-.26-6.12-.47-8.486-.15-2.366-.38-4.346-.69-5.941-.26-1.594-.54-2.931-.85-4.011V689h17.82v.309c-.31 1.08-.59 2.417-.85 4.011a85.267 85.267 0 0 0-.69 5.941c-.21 2.366-.36 5.194-.46 8.486-.11 3.24-.16 7.046-.16 11.418v18.67c0 4.372.05 8.203.16 11.495.1 3.24.25 6.043.46 8.409.2 2.366.44 4.346.69 5.941.26 1.594.54 2.931.85 4.011V768h-17.82v-.309c.31-1.08.59-2.417.85-4.011.31-1.595.54-3.575.69-5.941.21-2.366.36-5.169.47-8.409.15-3.292.23-7.123.23-11.495v-18.67Zm-1.62-53.541c0-1.131.2-2.186.61-3.163.47-1.029 1.06-1.903 1.78-2.623a7.33 7.33 0 0 1 2.55-1.775 7.95 7.95 0 0 1 3.31-.694c1.19 0 2.27.232 3.24.694a7.2 7.2 0 0 1 2.63 1.775 7.17 7.17 0 0 1 1.77 2.623c.46.977.69 2.032.69 3.163 0 2.366-.79 4.346-2.39 5.94-1.59 1.595-3.57 2.392-5.94 2.392-1.18 0-2.29-.206-3.31-.617a8.996 8.996 0 0 1-2.55-1.775 10.427 10.427 0 0 1-1.78-2.623c-.41-1.028-.61-2.134-.61-3.317Zm67.19 97.824c1.55 0 3.06-.283 4.56-.848 1.54-.566 3-1.338 4.39-2.315a30.827 30.827 0 0 0 4.09-3.317 45.954 45.954 0 0 0 3.71-4.012l.77.386-5.02 12.421c-.62.308-1.39.694-2.31 1.157-.88.411-1.96.797-3.24 1.157-1.24.412-2.7.746-4.4 1.003-1.7.309-3.7.463-6.02.463-6.89 0-12.26-1.852-16.12-5.555-3.81-3.754-5.71-9.592-5.71-17.512v-51.458l-12.96.462v-6.789c1.59.103 3.5.18 5.71.232 2.21.051 4.63.077 7.25.077-.05-3.652-.16-6.866-.31-9.644-.1-2.828-.26-5.271-.46-7.329-.16-2.108-.36-3.883-.62-5.323-.26-1.44-.51-2.649-.77-3.626v-.308h17.82v.308c-.31.977-.59 2.186-.85 3.626s-.49 3.189-.69 5.246c-.16 2.057-.31 4.501-.47 7.329-.1 2.778-.18 6.018-.23 9.721 3.24-.051 6.41-.103 9.49-.154 3.14-.103 5.97-.206 8.49-.309 2.57-.154 4.73-.283 6.48-.386 1.8-.154 2.98-.283 3.55-.385l-1.39 7.869c-2.62-.052-5.38-.129-8.26-.232-2.46-.103-5.29-.18-8.48-.231-3.19-.052-6.48-.103-9.88-.154v53.078c0 3.189.34 5.786 1.01 7.792.72 1.954 1.62 3.497 2.7 4.629 1.13 1.131 2.39 1.903 3.78 2.314 1.44.412 2.9.617 4.39.617Zm28.7-2.237c0-1.132.21-2.186.62-3.163.46-1.029 1.05-1.903 1.77-2.623a8.256 8.256 0 0 1 2.63-1.775 7.83 7.83 0 0 1 3.24-.694c1.18 0 2.26.232 3.24.694a7.161 7.161 0 0 1 2.62 1.775c.77.72 1.36 1.594 1.78 2.623.46.977.69 2.031.69 3.163 0 2.366-.8 4.346-2.39 5.94-1.6 1.595-3.58 2.392-5.94 2.392-1.13 0-2.21-.231-3.24-.694a8.964 8.964 0 0 1-2.63-1.698 10.136 10.136 0 0 1-1.77-2.623 8.875 8.875 0 0 1-.62-3.317Z" fill="#3C4043"/></svg>