<?xml version="1.0" encoding="UTF-8"?>
<svg id="Calque_1" xmlns="http://www.w3.org/2000/svg" version="1.1" viewBox="0 0 1920 1080">
  <!-- Generator: Adobe Illustrator 30.0.0, SVG Export Plug-In . SVG Version: 2.1.1 Build 123)  -->
  <defs>
    <style>
      .st0 {
        fill: #d2e3fc;
      }

      .st1 {
        fill: #1a73e8;
      }

      .st2 {
        fill: #ff6d7f;
      }

      .st3 {
        fill: #3c4043;
      }
    </style>
  </defs>
  <path class="st0" d="M1484,813h168c13.81,0,25,11.19,25,25h0c0,13.81-11.19,25-25,25h-168c-13.81,0-25-11.19-25-25h0c0-13.81,11.19-25,25-25Z"/>
  <path class="st1" d="M1483,813h150c13.81,0,25,11.19,25,25h0c0,13.81-11.19,25-25,25h-150c-13.81,0-25-11.19-25-25h0c0-13.81,11.19-25,25-25Z"/>
  <path class="st0" d="M876,813h168c13.81,0,25,11.19,25,25h0c0,13.81-11.19,25-25,25h-168c-13.81,0-25-11.19-25-25h0c0-13.81,11.19-25,25-25Z"/>
  <path class="st1" d="M875,813h72c13.81,0,25,11.19,25,25h0c0,13.81-11.19,25-25,25h-72c-13.81,0-25-11.19-25-25h0c0-13.81,11.19-25,25-25Z"/>
  <path class="st0" d="M268,813h168c13.81,0,25,11.19,25,25h0c0,13.81-11.19,25-25,25h-168c-13.81,0-25-11.19-25-25h0c0-13.81,11.19-25,25-25Z"/>
  <path class="st1" d="M268,813h0c13.81,0,25,11.19,25,25h0c0,13.81-11.19,25-25,25h0c-13.81,0-25-11.19-25-25h0c0-13.81,11.19-25,25-25Z"/>
  <g>
    <path class="st3" d="M152.14,609.38c-5.78-2.89-10.34-6.9-13.66-12.04-3.33-5.13-4.99-10.81-4.99-17.03,0-10.99,4.52-19.48,13.56-25.48,9.03-6,22.37-9.58,40.02-10.74l26.03-1.74-4.34,4.12v-9.33c0-6.94-2.53-12.36-7.59-16.27-5.06-3.9-11.35-5.86-18.87-5.86-6.8,0-12.94,1.3-18.44,3.9-5.5,2.6-10.49,6.44-14.97,11.5l-14.31-14.32c6.51-7.23,13.56-12.5,21.15-15.83,7.59-3.32,16.59-4.99,27-4.99,8.68,0,16.63,1.7,23.86,5.1,7.23,3.4,12.98,8.28,17.24,14.64,4.26,6.37,6.4,13.88,6.4,22.56v73.09h-20.6v-16.27h-1.3c-3.04,5.35-7.48,9.91-13.34,13.66-5.86,3.76-13.7,5.64-23.53,5.64-7.08,0-13.52-1.45-19.3-4.34ZM193.46,591.27c4.99-2.82,8.79-6.65,11.39-11.49,2.6-4.84,3.91-10.16,3.91-15.94v-8.68l3.9,4.56-23.64,1.52c-11.71.72-20.32,2.53-25.81,5.42-5.5,2.89-8.24,7.09-8.24,12.58,0,5.2,1.81,9.22,5.42,12.04,3.61,2.82,8.89,4.23,15.83,4.23,6.51,0,12.25-1.41,17.24-4.23Z"/>
    <path class="st3" d="M282.92,605.59c-8.82-5.42-15.69-12.65-20.6-21.69-4.92-9.03-7.38-18.9-7.38-29.6s2.42-20.31,7.27-29.28c4.84-8.96,11.6-16.08,20.28-21.36,8.68-5.28,18.51-7.99,29.5-8.13,10.12-.14,19.19,1.73,27.22,5.64,8.02,3.91,14.78,9.47,20.28,16.7l-15.83,12.58c-3.76-5.06-8.1-8.86-13.01-11.39-4.92-2.53-10.77-3.8-17.57-3.8-7.23,0-13.63,1.66-19.19,4.99-5.57,3.33-9.87,7.99-12.9,13.99-3.04,6-4.55,12.69-4.55,20.06s1.55,14.5,4.66,20.5c3.11,6,7.52,10.7,13.23,14.1,5.71,3.4,12.32,5.1,19.84,5.1,6.65,0,12.4-1.23,17.24-3.69,4.84-2.46,9-6.14,12.47-11.06l15.4,12.8c-5.5,7.09-12.11,12.47-19.85,16.16-7.74,3.69-16.67,5.53-26.79,5.53-10.99,0-20.9-2.71-29.71-8.13Z"/>
    <path class="st3" d="M372.28,498.12h80.9v19.3h-80.9v-19.3ZM406.76,603.31c-6.36-6.07-9.54-14.75-9.54-26.03v-105.62l21.26-3.9v107.79c0,6.36,1.63,11.03,4.88,13.99,3.25,2.97,8.06,4.45,14.42,4.45s11.64-.65,16.27-1.95v18.65c-4.77.87-8.5,1.44-11.17,1.73-2.68.29-5.75.43-9.22.43-11.57-.29-20.53-3.47-26.89-9.54Z"/>
    <path class="st3" d="M494.17,608.19c-6.22-3.69-11.14-8.82-14.75-15.4-3.62-6.58-5.42-14.13-5.42-22.67v-72.01h21.47v67.02c0,8.97,2.28,16.05,6.83,21.26,4.55,5.2,10.59,7.81,18.11,7.81,8.68,0,15.65-2.6,20.93-7.81,5.28-5.2,7.92-12.29,7.92-21.26v-67.02h21.25v112.56h-20.39v-16.27h-1.3c-3.47,5.64-7.95,10.27-13.45,13.88-5.5,3.61-12.29,5.42-20.39,5.42-7.67,0-14.61-1.84-20.82-5.53Z"/>
  </g>
  <path class="st3" d="M1370.4,607.38c-8.53-5.13-15.22-12.18-20.06-21.15-4.85-8.96-7.27-19.01-7.27-30.15s2.42-21.44,7.27-30.47c4.84-9.03,11.53-16.12,20.06-21.26,8.53-5.13,18.14-7.7,28.84-7.7,9.11,0,16.99,2.03,23.64,6.07,6.65,4.05,11.64,9.62,14.97,16.7h1.52v-19.95h20.39v112.56h-20.39v-20.39h-1.52c-3.47,7.23-8.42,12.94-14.86,17.13s-14.35,6.29-23.75,6.29c-10.7,0-20.32-2.57-28.84-7.7ZM1421.15,590.14c5.64-3.47,10.01-8.17,13.12-14.1,3.11-5.93,4.66-12.58,4.66-19.95s-1.56-13.67-4.66-19.74c-3.11-6.07-7.52-10.88-13.23-14.42-5.71-3.54-12.18-5.31-19.41-5.31-11.14,0-20.1,3.62-26.89,10.84-6.8,7.23-10.19,16.7-10.19,28.41,0,7.38,1.52,14.1,4.55,20.17,3.04,6.07,7.37,10.81,13.01,14.2,5.64,3.4,12.15,5.1,19.52,5.1s13.88-1.74,19.52-5.21Z"/>
  <path class="st2" d="M1515.28,607.27c-9.26-5.2-16.45-12.32-21.58-21.36-5.13-9.03-7.7-19.12-7.7-30.25s2.53-20.96,7.59-29.93c5.06-8.96,12.18-16.05,21.36-21.26,9.18-5.2,19.63-7.81,31.34-7.81,8.53,0,16.7,1.45,24.51,4.34v22.34c-3.9-2.17-7.66-3.69-11.28-4.56-3.62-.87-7.88-1.3-12.8-1.3-7.67,0-14.5,1.59-20.5,4.77-6,3.18-10.63,7.7-13.88,13.56-3.25,5.86-4.88,12.47-4.88,19.85s1.7,14.42,5.1,20.28c3.4,5.86,8.13,10.41,14.21,13.67,6.07,3.25,12.94,4.88,20.6,4.88,9.25,0,17.21-2.24,23.86-6.72l-1.3,22.56c-7.52,3.18-15.26,4.77-23.21,4.77-11.71,0-22.2-2.6-31.45-7.81Z"/>
  <path class="st2" d="M1581.21,499.48h72.22v19.3h-72.22v-19.3ZM1605.07,469.99h21.25v142.06h-21.25v-142.06Z"/>
  <path class="st3" d="M1686.4,601.85c-8.68-8.68-13.01-20.75-13.01-36.22v-66.15h21.47v64.2c0,10.56,2.31,18.51,6.94,23.86,4.63,5.35,11.35,8.02,20.17,8.02s15.65-2.67,20.06-8.02c4.41-5.35,6.62-13.3,6.62-23.86v-64.2h21.25v66.15c0,15.62-4.23,27.73-12.69,36.33-8.46,8.6-20.21,12.9-35.25,12.9s-26.89-4.34-35.57-13.01Z"/>
  <path class="st2" d="M761.24,607.35c-8.53-5.13-15.22-12.18-20.06-21.15-4.85-8.96-7.27-19.01-7.27-30.15s2.42-21.44,7.27-30.47c4.84-9.03,11.53-16.12,20.06-21.26,8.53-5.13,18.14-7.7,28.84-7.7,9.11,0,16.99,2.03,23.64,6.07,6.65,4.05,11.64,9.62,14.97,16.7h1.52v-19.95h20.39v112.56h-20.39v-20.39h-1.52c-3.47,7.23-8.42,12.94-14.86,17.13s-14.35,6.29-23.75,6.29c-10.7,0-20.32-2.57-28.84-7.7ZM811.99,590.1c5.64-3.47,10.01-8.17,13.12-14.1,3.11-5.93,4.66-12.58,4.66-19.95s-1.56-13.67-4.66-19.74c-3.11-6.07-7.52-10.88-13.23-14.42-5.71-3.54-12.18-5.31-19.41-5.31-11.14,0-20.1,3.62-26.89,10.84-6.8,7.23-10.19,16.7-10.19,28.41,0,7.38,1.52,14.1,4.55,20.17,3.04,6.07,7.37,10.81,13.01,14.2,5.64,3.4,12.15,5.1,19.52,5.1s13.88-1.74,19.52-5.21Z"/>
  <path class="st3" d="M904.82,606.91c-8.82-5.42-15.69-12.65-20.6-21.69-4.92-9.03-7.38-18.9-7.38-29.6s2.42-20.31,7.27-29.28c4.84-8.96,11.6-16.08,20.28-21.36,8.68-5.28,18.51-7.99,29.5-8.13,10.12-.14,19.19,1.73,27.22,5.64,8.02,3.91,14.78,9.47,20.28,16.7l-15.83,12.58c-3.76-5.06-8.1-8.86-13.01-11.39-4.92-2.53-10.77-3.8-17.57-3.8-7.23,0-13.63,1.66-19.19,4.99-5.57,3.33-9.87,7.99-12.9,13.99-3.04,6-4.55,12.69-4.55,20.06s1.55,14.5,4.66,20.5c3.11,6,7.52,10.7,13.23,14.1,5.71,3.4,12.32,5.1,19.84,5.1,6.65,0,12.4-1.23,17.24-3.69,4.84-2.46,9-6.14,12.47-11.06l15.4,12.8c-5.5,7.09-12.11,12.47-19.85,16.16-7.74,3.69-16.67,5.53-26.79,5.53-10.99,0-20.9-2.71-29.71-8.13Z"/>
  <path class="st2" d="M994.18,499.45h80.9v19.3h-80.9v-19.3ZM1028.55,603.66c-6.29-5.56-9.43-13.92-9.43-25.05v-105.62l21.26-3.9v106.06c0,6.37,1.63,11.03,4.88,13.99,3.25,2.97,8.06,4.45,14.42,4.45h16.27v18.44h-20.39c-11.71,0-20.71-2.78-27-8.35Z"/>
  <path class="st2" d="M1108.91,601.82c-8.68-8.68-13.01-20.75-13.01-36.22v-66.15h21.47v64.2c0,10.56,2.31,18.51,6.94,23.86,4.63,5.35,11.35,8.02,20.17,8.02s15.65-2.67,20.06-8.02c4.41-5.35,6.62-13.3,6.62-23.86v-64.2h21.25v66.15c0,15.62-4.23,27.73-12.69,36.33-8.46,8.6-20.21,12.9-35.25,12.9s-26.89-4.34-35.57-13.01Z"/>
</svg>