<svg xmlns="http://www.w3.org/2000/svg" width="1921" height="1081" fill="none"><path fill="#3C4043" d="m248.513 272.744-7.594-22.137h-43.523l-7.568 22.137h-17.823l40.424-110.294h13.457l40.424 110.294h-17.797Zm-28.955-85.343-17.203 48.948h33.915l-16.712-48.948ZM346.019 272.744h-44.608V162.45h42.904c20.457 0 33.32 11.597 33.32 30.195 0 11.933-7.439 20.457-14.878 23.402 8.524 3.409 16.583 11.598 16.583 25.546 0 20.302-13.793 31.151-33.321 31.151Zm-3.099-95.235h-24.771v31.59h24.771c10.693 0 17.952-5.58 17.952-15.782 0-10.203-7.259-15.808-17.952-15.808Zm1.55 46.597h-26.321v33.605h26.321c11.623 0 18.132-7.104 18.132-16.867 0-9.764-6.509-16.738-18.132-16.738ZM459.129 273.674c-11.468 0-21.387-4.185-28.981-11.779-10.823-10.848-10.694-23.092-10.694-44.298 0-21.207-.155-33.45 10.694-44.299 7.594-7.594 17.513-11.778 28.981-11.778 20.302 0 35.465 11.933 39.339 33.915H481.42c-2.634-11.159-10.073-18.882-22.291-18.882-6.509 0-12.398 2.48-16.273 6.664-5.424 5.889-6.664 12.244-6.664 34.38 0 22.136 1.24 28.516 6.664 34.38 3.875 4.184 9.764 6.664 16.273 6.664 12.243 0 19.837-7.749 22.472-18.882h16.867c-3.694 21.981-19.347 33.915-39.339 33.915ZM607.473 262.386c-6.974 6.974-17.048 10.358-28.517 10.358h-38.719V162.45h38.719c11.469 0 21.543 3.409 28.517 10.358 11.933 11.933 11.158 28.051 11.158 43.988-.026 15.989.775 33.656-11.158 45.59Zm-11.469-77.464c-4.649-5.089-10.823-7.413-18.752-7.413h-20.277v80.202h20.277c7.904 0 14.103-2.325 18.752-7.414 5.734-6.354 5.889-18.287 5.889-33.475 0-15.188-.155-25.546-5.889-31.9ZM662.829 272.744V162.45h70.49v15.033h-53.752v32.21h45.848v14.852h-45.848v33.14h53.752v15.033h-70.49v.026ZM792.36 177.508v33.605h45.848v15.033H792.36v46.623h-16.738V162.475h70.49v15.033H792.36ZM948.567 261.119c-8.369 8.834-18.752 12.554-30.35 12.554-11.469 0-21.387-4.185-28.981-11.779-10.823-10.848-10.694-23.092-10.694-44.298 0-21.207-.155-33.45 10.694-44.299 7.594-7.594 17.203-11.778 28.981-11.778 23.376 0 37.014 15.343 40.114 34.225h-16.893c-2.79-12.089-10.848-19.192-23.221-19.192-6.509 0-12.398 2.635-16.273 6.819-5.424 5.889-6.664 12.089-6.664 34.225 0 22.136 1.24 28.516 6.664 34.38 3.875 4.184 9.764 6.664 16.273 6.664 7.284 0 13.638-2.764 17.952-7.749 4.029-4.65 5.579-10.229 5.579-17.358v-6.173h-23.557v-14.259h40.269v16.867c0 14.284-2.635 23.402-9.893 31.151ZM1064 272.744v-48.173h-44.76v48.173h-16.74V162.45h16.74v47.088H1064V162.45h16.71v110.294H1064ZM1128.98 272.744V162.45h16.73v110.294h-16.73ZM1208.28 273.674c-11.31 0-19.22-3.1-26.78-10.694l11.15-11.004c3.88 3.875 7.6 6.664 15.63 6.664 12.4 0 19.99-7.593 19.99-22.007V162.45h16.72v75.423c.02 22.937-16.41 35.801-36.71 35.801ZM1358.03 272.744l-30.99-54.347-18.57 22.292v32.055h-16.74V162.45h16.74v55.431l45.07-55.431H1374l-35.78 43.213 39.5 67.081h-19.69ZM1413.05 272.744V162.45h16.73v95.261h53.14v15.033h-69.87ZM1601.91 272.744v-73.719l-25.39 53.752h-12.4l-26.01-53.752v73.719h-16.74V162.45h16.74l32.21 68.604 31.59-68.604h16.73v110.294h-16.73ZM1734.42 272.744l-50.97-77.594v77.594h-16.73V162.45h15.34l50.96 77.438V162.45h16.71v110.294h-15.31ZM350.105 475.224c-7.595 7.594-17.358 11.778-29.111 11.778-11.778 0-21.387-4.184-28.981-11.778-10.823-10.849-10.694-23.092-10.694-44.299 0-21.206-.155-33.449 10.694-44.298 7.594-7.594 17.203-11.778 28.981-11.778 11.779 0 21.516 4.184 29.111 11.778 10.822 10.849 10.538 23.092 10.538 44.298 0 21.207.31 33.45-10.538 44.299Zm-12.683-78.523c-3.874-4.185-9.919-6.819-16.428-6.819s-12.553 2.634-16.428 6.819c-5.424 5.889-6.509 12.088-6.509 34.224 0 22.137 1.085 28.362 6.509 34.225 3.875 4.185 9.919 6.819 16.428 6.819s12.554-2.634 16.428-6.819c5.399-5.889 6.483-12.088 6.483-34.225 0-22.136-1.084-28.335-6.483-34.224ZM446.646 442.705h-25.107v43.368h-16.712V375.779h41.819c21.542 0 35.309 14.258 35.309 33.45.026 19.243-13.767 33.476-35.309 33.476Zm-.93-51.867h-24.177v36.705h24.177c11.623 0 19.527-6.665 19.527-18.288 0-11.624-7.878-18.417-19.527-18.417ZM591.369 491.032l-11.004-10.978c-6.328 4.494-14.413 6.974-23.092 6.974-11.752 0-21.361-4.184-28.955-11.778-10.849-10.849-10.694-23.092-10.694-44.299 0-21.206-.155-33.449 10.694-44.298 7.594-7.594 17.203-11.778 28.955-11.778 11.779 0 21.542 4.184 29.136 11.778 10.849 10.849 10.513 23.092 10.513 44.298 0 18.753.181 30.196-7.103 40.114l10.849 10.694-9.299 9.273Zm-17.668-94.331c-3.849-4.185-9.919-6.819-16.428-6.819-6.483 0-12.527 2.634-16.402 6.819-5.424 5.889-6.509 12.088-6.509 34.224 0 22.137 1.085 28.362 6.509 34.225 3.849 4.185 9.919 6.819 16.402 6.819 4.185 0 8.085-1.24 11.314-3.564l-11.624-11.624 9.299-9.273 10.668 10.694c2.79-5.579 3.254-13.018 3.254-27.277.026-22.136-1.059-28.335-6.483-34.224ZM702.028 486.073l-23.221-46.468h-20.922v46.468h-16.712V375.779h42.748c20.923 0 34.225 13.458 34.225 32.21 0 15.782-9.609 25.882-22.007 29.291l25.391 48.793h-19.502Zm-19.347-95.235h-24.796v34.535h24.796c11.159 0 18.753-6.354 18.753-17.203 0-10.848-7.594-17.332-18.753-17.332ZM791.318 487.002c-16.583 0-28.517-3.874-39.055-14.542l11.158-11.003c8.085 8.059 16.893 10.512 28.207 10.512 14.413 0 22.782-6.173 22.782-16.867 0-4.804-1.421-8.834-4.34-11.468-2.789-2.635-5.579-3.72-12.088-4.65l-13.018-1.833c-8.989-1.266-16.118-4.34-20.923-8.834-5.424-5.115-8.059-12.089-8.059-21.078 0-19.191 13.923-32.364 36.86-32.364 14.542 0 24.796 3.719 34.224 12.527l-10.693 10.539c-6.819-6.509-14.698-8.524-23.996-8.524-13.019 0-20.148 7.439-20.148 17.203 0 4.029 1.24 7.594 4.185 10.228 2.789 2.48 7.284 4.34 12.372 5.114l12.554 1.834c10.228 1.576 15.937 4.03 20.612 8.214 6.018 5.27 8.989 13.174 8.989 22.602.026 20.328-16.531 32.39-39.623 32.39ZM910.197 390.838v95.261h-16.712v-95.261h-30.377v-15.033h77.464v15.033h-30.375ZM1016.79 487.003c-22.451 0-39.473-15.343-39.473-38.125v-73.099h16.712v72.35c0 14.697 8.991 23.841 22.761 23.841 13.79 0 22.93-9.144 22.93-23.841v-72.35h16.71v73.099c0 22.808-17.17 38.125-39.64 38.125ZM1138.6 486.073h-12.99l-36.24-110.294h17.33l25.42 80.228 25.39-80.228h17.67l-36.58 110.294ZM1299.83 486.073h-14.54l-22.47-77.283-22.29 77.283h-14.55l-28.8-110.294h17.67l19.19 78.833 22.14-78.833h13.46l22.13 78.833 19.22-78.833h17.67l-28.83 110.294ZM1418.39 486.073l-24-42.284-23.87 42.284h-19.21l34.07-56.516-31.9-53.752h19.21l21.7 39.494 21.83-39.494h19.21l-31.9 53.752 34.23 56.516h-19.37ZM1509.16 440.69v45.383h-16.71V440.69l-32.98-64.911h18.26l23.09 48.483 23.09-48.483h18.29l-33.04 64.911ZM1569.8 486.073v-14.387l50.96-80.848h-48.79v-15.033h68.45v13.612l-51.28 81.623h51.28v15.033h-70.62ZM105.524 686.414v-7.103c-5.734 5.734-11.159 8.059-20.922 8.059-9.764 0-16.273-2.325-21.078-7.129-4.03-4.159-6.199-10.229-6.199-16.867 0-13.173 9.144-22.601 27.096-22.601h20.767v-5.605c0-9.919-4.959-14.697-17.203-14.697-8.678 0-12.863 2.014-17.202 7.594l-10.384-9.764c7.439-8.679 15.162-11.314 28.18-11.314 21.517 0 32.365 9.144 32.365 26.941v52.512h-15.42v-.026Zm-.31-34.663H86.797c-9.299 0-14.103 4.158-14.103 11.313 0 7.103 4.494 11.159 14.413 11.159 6.044 0 10.539-.491 14.723-4.495 2.325-2.324 3.41-6.044 3.41-11.623v-6.354h-.026ZM220.241 680.397c-4.313 4.314-11.313 6.974-19.192 6.974-8.523 0-14.878-2.169-20.767-9.299v8.369h-15.498V576.147h15.782v39.649c5.735-6.819 12.244-8.833 20.613-8.833 7.904 0 14.723 2.634 19.036 6.974 7.904 7.904 8.834 21.206 8.834 33.139 0 11.934-.904 25.391-8.808 33.321Zm-23.247-59.331c-14.258 0-16.428 12.088-16.428 26.01 0 13.949 2.17 26.192 16.428 26.192 14.258 0 16.273-12.243 16.273-26.192 0-13.922-2.015-26.01-16.273-26.01ZM300.825 687.371c-17.668 0-35-10.849-35-40.295 0-29.421 17.358-40.114 35-40.114 10.848 0 18.417 3.099 25.856 11.003l-10.849 10.513c-4.959-5.424-8.834-7.413-15.033-7.413-6.044 0-11.159 2.48-14.542 6.974-3.41 4.34-4.65 9.919-4.65 19.037 0 9.144 1.24 14.878 4.65 19.217 3.409 4.495 8.524 6.974 14.542 6.974 6.199 0 10.074-2.014 15.033-7.439l10.849 10.384c-7.414 7.904-15.008 11.159-25.856 11.159ZM407.933 686.416v-8.369c-5.889 7.129-12.244 9.299-20.767 9.299-7.904 0-14.878-2.661-19.218-6.974-7.904-7.93-8.834-21.387-8.834-33.321 0-11.933.93-25.262 8.834-33.14 4.34-4.339 11.159-6.974 19.063-6.974 8.369 0 14.878 2.015 20.586 8.834v-39.649h15.808v110.294h-15.472Zm-16.583-65.35c-14.258 0-16.428 12.089-16.428 26.011 0 13.948 2.17 26.192 16.428 26.192 14.232 0 16.247-12.244 16.247-26.192.026-13.922-1.989-26.011-16.247-26.011ZM479.545 651.751c0 13.457 7.129 21.981 19.966 21.981 8.834 0 13.483-2.479 19.063-8.059l10.073 9.454c-8.059 8.059-15.627 12.244-29.42 12.244-19.682 0-35.335-10.384-35.335-40.295 0-25.391 13.173-40.114 33.32-40.114 21.052 0 33.295 15.498 33.295 37.789v7h-50.962Zm33.139-21.697c-2.479-5.915-8.059-9.919-15.498-9.919s-13.173 4.004-15.627 9.919c-1.55 3.564-1.859 5.889-2.014 10.693h35.309c-.155-4.83-.62-7.154-2.17-10.693ZM589.128 621.376v65.065H573.32v-65.065h-8.989v-12.089h8.989v-12.088c0-11.314 6.819-21.852 21.516-21.852h9.919v13.457h-6.974c-5.889 0-8.679 3.435-8.679 9.144v11.314h15.627v12.088h-15.601v.026ZM667.325 719.115c-11.933 0-19.527-2.789-27.741-10.383l10.074-10.074c4.959 4.649 9.273 6.974 17.022 6.974 13.328 0 18.442-9.428 18.442-19.967v-10.073c-5.734 6.819-12.243 8.988-20.302 8.988-7.904 0-14.413-2.634-18.753-6.974-7.594-7.594-8.834-18.597-8.834-31.9 0-13.302 1.24-24.306 8.834-31.9 4.34-4.339 11.004-6.819 18.882-6.819 8.369 0 14.723 2.17 20.612 9.273v-8.343h15.343v78.058c.052 19.192-12.656 33.14-33.579 33.14Zm1.86-98.05c-14.258 0-16.118 12.243-16.118 24.616 0 12.372 1.86 24.616 16.118 24.616s15.963-12.244 15.963-24.616c0-12.373-1.705-24.616-15.963-24.616ZM793.062 686.416v-48.173c0-11.933-6.974-17.177-15.808-17.177s-15.963 5.424-15.963 17.177v48.173h-15.782V576.122h15.782v39.649c5.424-5.889 12.553-8.834 20.302-8.834 17.513 0 27.277 11.779 27.277 28.801v50.652h-15.808v.026ZM852.103 592.419v-16.738h16.712v16.738h-16.712Zm.464 93.995v-78.523h15.783v78.523h-15.783ZM907.141 718.495h-9.738v-13.458h6.974c6.355 0 8.524-3.1 8.524-9.144v-87.977h15.782v88.881c-.025 11.624-6.509 21.698-21.542 21.698Zm5.27-126.076v-16.738h16.712v16.738h-16.712ZM1022.51 686.416l-21.98-36.24-11.62 13.173v23.092h-15.782V576.147h15.782v68.011l30.53-36.24h19.22l-27.28 30.815 30.69 47.708h-19.56v-.025ZM1098.52 686.416c-15.04 0-21.52-10.074-21.52-21.697v-88.597h15.81v87.667c0 6.044 2.17 9.144 8.52 9.144h6.98v13.457h-9.79v.026ZM1240.73 686.416v-47.863c0-12.269-6.97-17.513-15.8-17.513-8.53 0-16.28 5.424-16.28 16.712v48.638h-15.78v-47.863c0-12.269-6.97-17.513-15.81-17.513-8.83 0-16.27 5.425-16.27 17.513v47.863h-15.78v-78.523h15.5v7.904c5.27-5.734 13.02-8.834 20.92-8.834 9.76 0 17.33 3.849 22.29 11.443 6.35-7.749 14.26-11.443 24.64-11.443 8.06 0 15.19 2.635 19.84 7.103 6.04 5.915 8.37 13.329 8.37 22.137v50.187h-15.84v.052ZM1348.16 686.415v-47.863c0-12.269-6.98-17.513-15.81-17.513s-16.27 5.425-16.27 17.513v47.863h-15.79v-78.523h15.5v7.904c5.43-5.889 13.02-8.834 20.92-8.834 8.06 0 14.73 2.635 19.38 7.103 6.04 5.915 7.9 13.328 7.9 22.136v50.188h-15.83v.026ZM1460.2 678.046c-5.11 5.269-12.86 9.298-23.56 9.298-10.69 0-18.28-4.029-23.37-9.298-7.44-7.749-9.3-17.668-9.3-30.971 0-13.173 1.86-23.092 9.3-30.815 5.11-5.243 12.7-9.273 23.37-9.273 10.7 0 18.45 4.03 23.56 9.273 7.44 7.749 9.3 17.668 9.3 30.815 0 13.329-1.86 23.222-9.3 30.971Zm-11.93-52.487c-2.95-2.945-6.98-4.494-11.63-4.494s-8.52 1.549-11.44 4.494c-4.8 4.804-5.42 13.018-5.42 21.516 0 8.524.62 16.712 5.42 21.543 2.94 2.944 6.82 4.649 11.44 4.649 4.65 0 8.68-1.679 11.63-4.649 4.8-4.831 5.42-13.019 5.42-21.543 0-8.498-.62-16.737-5.42-21.516ZM1565.74 680.396c-4.32 4.314-11.16 6.975-19.04 6.975-8.37 0-14.88-2.17-20.61-8.989v39.804h-15.78V607.892h15.49v8.343c5.89-7.103 12.25-9.273 20.77-9.273 7.9 0 14.88 2.635 19.19 6.974 7.91 7.904 8.84 21.206 8.84 33.14 0 11.933-.96 25.391-8.86 33.32Zm-23.22-59.331c-14.26 0-16.43 12.088-16.43 26.011 0 13.948 2.17 26.191 16.43 26.191 14.25 0 16.27-12.243 16.27-26.191 0-13.923-2.02-26.011-16.27-26.011ZM1660.15 718.186v-39.804c-5.74 6.819-12.25 8.989-20.59 8.989-7.9 0-14.72-2.661-19.06-6.975-7.91-7.929-8.83-21.387-8.83-33.32 0-11.934.92-25.262 8.83-33.14 4.34-4.339 11.31-6.974 19.22-6.974 8.52 0 14.87 2.17 20.76 9.273v-8.343h15.5v110.294h-15.83Zm-16.25-97.121c-14.26 0-16.43 12.088-16.43 26.011 0 13.948 2.17 26.191 16.43 26.191 14.23 0 16.25-12.243 16.25-26.191 0-13.923-2.02-26.011-16.25-26.011ZM1763.65 626.308c-3.57-3.564-6.36-5.243-11.78-5.243-8.53 0-15.66 6.819-15.66 17.667v47.708h-15.78v-78.523h15.5v8.498c4.03-5.579 12.09-9.428 20.92-9.428 7.6 0 13.33 2.015 18.76 7.439l-11.96 11.882ZM1831.71 687.371c-12.84 0-23.69-2.17-32.99-11.314l10.39-10.384c6.35 6.51 14.85 8.214 22.6 8.214 9.61 0 17.2-3.409 17.2-10.848 0-5.27-2.94-8.679-10.54-9.299l-12.52-1.085c-14.7-1.24-23.23-7.904-23.23-21.671 0-15.343 13.18-24.022 29.61-24.022 11.77 0 21.85 2.48 29.11 8.834l-9.92 10.073c-4.94-4.184-11.94-5.734-19.35-5.734-9.45 0-14.26 4.185-14.26 10.074 0 4.649 2.48 8.188 10.85 8.989l12.37 1.084c14.7 1.24 23.38 8.214 23.38 22.137-.03 16.402-13.97 24.952-32.7 24.952ZM154.302 887.743c-14.724 0-21.543-10.538-21.543-21.852v-43.213h-8.988v-12.089h8.988v-23.867h15.782v23.867h15.188v12.089h-15.188v42.438c0 5.76 2.79 9.144 8.679 9.144h6.509v13.457h-9.427v.026ZM250.635 887.745v-7.904c-5.424 5.889-12.993 8.834-20.922 8.834-8.059 0-14.698-2.661-19.347-7.129-6.044-5.89-7.904-13.329-7.904-22.137v-50.161h15.782v47.862c0 12.244 6.974 17.513 15.782 17.513s16.273-5.424 16.273-17.513v-47.862h15.782v78.523h-15.446v-.026ZM340.999 887.745h-12.863l-28.801-78.523h16.712l18.598 55.302 18.442-55.302h16.712l-28.8 78.523ZM479.863 887.745h-13.458l-18.442-54.837-18.262 54.837h-13.638l-24.306-78.523h16.712l15.188 55.302 18.287-55.302h12.244l18.107 55.302 15.188-55.302h16.867l-24.487 78.523ZM580.472 887.745l-16.428-26.785-16.583 26.785h-19.036l26.966-40.114-25.881-38.409h19.036l15.498 25.546 15.343-25.546h19.063l-25.727 38.409 26.812 40.114h-19.063ZM659.525 903.398c-1.576 4.339-3.41 7.439-5.735 9.763-4.339 4.34-10.099 5.735-16.118 5.735h-6.354v-14.258h4.03c6.664 0 8.989-2.015 11.313-8.343l4.34-12.244-27.432-74.803h16.712l18.753 55.301 18.288-55.301h16.866l-34.663 94.15ZM720.933 887.745v-12.527l39.029-51.919h-36.859v-14.077h56.386v12.528l-39.339 51.892h39.339v14.103h-58.556ZM847.482 888.702c-17.487 0-31.745-11.933-31.745-31.616v-48.948c0-19.682 14.258-31.616 31.745-31.616 17.513 0 31.9 11.934 31.9 31.616v48.948c0 19.683-14.387 31.616-31.9 31.616Zm16.118-80.099c0-10.693-6.018-17.952-16.118-17.952-10.073 0-15.937 7.259-15.937 17.952v48.018c0 10.668 5.889 17.952 15.937 17.952 10.1 0 16.118-7.284 16.118-17.952v-48.018ZM947.502 887.746v-93.091l-21.542 18.907V796.05l21.542-18.598h15.782v110.294h-15.782ZM1020 887.745v-14.103l42.43-51.582c4.19-5.089 5.92-9.144 5.92-14.697 0-9.919-5.92-16.713-16.12-16.713-8.34 0-16.27 4.65-16.27 17.022h-15.78c0-18.752 13.32-31.125 32.05-31.125 18.88 0 31.9 11.934 31.9 30.97 0 9.764-3.56 15.498-10.36 23.867l-34.56 42.284h44.92v14.103H1020v-.026ZM1152.51 888.83c-17.67 0-33.17-9.453-33.79-30.97h15.78c.62 11.779 8.84 16.712 17.98 16.712 10.23 0 17.95-6.664 17.95-18.287 0-11.159-6.04-18.107-18.44-18.107h-2.63v-13.793h2.63c11.47 0 16.71-6.665 16.71-16.712 0-11.159-7.26-17.022-16.24-17.022-9.61 0-15.81 6.018-16.59 15.782h-15.81c.93-18.753 14.73-30.04 32.4-30.04 18.75 0 32.05 12.527 32.05 30.815 0 11.778-5.27 19.346-13.79 23.531 9.45 4.184 15.5 12.372 15.5 26.036.02 21.207-15.32 32.055-33.71 32.055ZM1279.58 871.189v16.582h-15.34v-16.582h-44.61v-14.698l38.88-79.013h17.04l-38.72 79.013h27.41v-25.752h15.34v25.727h11.78v14.697h-11.78v.026ZM1381.09 880.152c-4.96 4.959-12.53 8.679-23.22 8.679-10.54 0-18.75-3.72-23.56-8.524-5.89-5.89-7.75-13.174-8.34-21.052h15.78c1.24 9.764 6.2 15.343 16.12 15.343 4.65 0 8.68-1.55 11.44-4.339 4.65-4.65 5.27-11.934 5.27-19.347 0-13.173-3.41-23.092-16.12-23.092-8.98 0-13.92 4.495-15.62 9.919h-14.42v-60.261h59.49v14.103h-45.23v29.11c3.72-3.849 10.23-6.354 18.29-6.354 8.68 0 15.34 2.66 19.84 7.129 8.34 8.343 9.58 19.037 9.58 29.446-.03 11.753-1.24 21.206-9.3 29.24ZM1459.53 888.701c-19.06 0-32.7-12.553-32.7-32.985 0-8.988 3.41-17.512 8.19-27.121l25.1-51.117h16.89l-23.68 47.397c2.94-1.239 6.35-1.704 9.76-1.704 15.94 0 28.96 12.553 28.96 31.9 0 20.302-13.46 33.63-32.52 33.63Zm-.18-52.383c-9.92 0-16.71 7.129-16.71 19.063 0 11.752 6.81 19.191 16.71 19.191 9.89 0 16.89-7.439 16.89-19.191.03-10.823-6.33-19.063-16.89-19.063ZM1558.68 887.746h-17.02l37.02-96.191h-33.61v17.332h-15.19v-31.435h65.66v14.103l-36.86 96.191ZM1663.29 888.701c-18.88 0-33.92-12.088-33.92-32.055 0-13.173 7.42-21.232 15.16-25.882-7.1-4.339-13.32-12.088-13.32-23.686 0-18.442 14.1-30.531 32.05-30.531 17.98 0 32.24 12.089 32.24 30.531 0 11.598-6.2 19.347-13.33 23.686 7.75 4.65 15.16 12.709 15.16 25.882.03 19.967-15.14 32.055-34.04 32.055Zm0-50.807c-10.23 0-18.11 8.188-18.11 18.416 0 10.229 7.9 18.288 18.11 18.288 10.23 0 18.13-8.059 18.13-18.288 0-10.228-7.9-18.416-18.13-18.416Zm0-47.244c-9.59 0-16.25 7.259-16.25 16.867 0 9.764 6.66 16.712 16.25 16.712 9.61 0 16.42-6.974 16.42-16.712 0-9.608-6.81-16.867-16.42-16.867ZM1789.75 836.654l-25.11 51.117h-16.86l23.68-47.398c-2.94 1.24-6.51 1.705-9.92 1.705-15.93 0-28.8-12.553-28.8-31.9 0-20.302 13.46-33.631 32.52-33.631 19.07 0 32.7 12.528 32.7 32.985 0 8.989-3.41 17.513-8.21 27.122Zm-24.49-46.004c-9.92 0-16.71 7.439-16.71 19.192 0 10.849 6.2 19.063 16.71 19.063 9.92 0 16.9-7.129 16.9-19.063 0-11.753-6.98-19.192-16.9-19.192Z"/></svg>