<svg width="1921" height="1081" viewBox="0 0 1921 1081" fill="none" xmlns="http://www.w3.org/2000/svg">
<path d="M248.513 272.744L240.919 250.607H197.396L189.828 272.744H172.005L212.429 162.45H225.886L266.31 272.744H248.513V272.744ZM219.558 187.401L202.355 236.349H236.27L219.558 187.401Z" fill="#3C4043"/>
<path d="M346.019 272.744H301.411V162.45H344.315C364.772 162.45 377.635 174.047 377.635 192.645C377.635 204.578 370.196 213.102 362.757 216.047C371.281 219.456 379.34 227.645 379.34 241.593C379.34 261.895 365.547 272.744 346.019 272.744ZM342.92 177.509H318.149V209.099H342.92C353.613 209.099 360.872 203.519 360.872 193.317C360.872 183.114 353.613 177.509 342.92 177.509ZM344.47 224.106H318.149V257.711H344.47C356.093 257.711 362.602 250.607 362.602 240.844C362.602 231.08 356.093 224.106 344.47 224.106Z" fill="#3C4043"/>
<path d="M459.129 273.674C447.661 273.674 437.742 269.489 430.148 261.895C419.325 251.047 419.454 238.803 419.454 217.597C419.454 196.39 419.299 184.147 430.148 173.298C437.742 165.704 447.661 161.52 459.129 161.52C479.431 161.52 494.594 173.453 498.468 195.435H481.42C478.786 184.276 471.347 176.553 459.129 176.553C452.62 176.553 446.731 179.033 442.856 183.217C437.432 189.106 436.192 195.461 436.192 217.597C436.192 239.733 437.432 246.113 442.856 251.977C446.731 256.161 452.62 258.641 459.129 258.641C471.372 258.641 478.966 250.892 481.601 239.759H498.468C494.774 261.74 479.121 273.674 459.129 273.674Z" fill="#3C4043"/>
<path d="M607.473 262.386C600.499 269.36 590.425 272.744 578.956 272.744H540.237V162.45H578.956C590.425 162.45 600.499 165.859 607.473 172.808C619.406 184.741 618.631 200.859 618.631 216.796C618.605 232.785 619.406 250.452 607.473 262.386ZM596.004 184.922C591.355 179.833 585.181 177.509 577.252 177.509H556.975V257.711H577.252C585.156 257.711 591.355 255.386 596.004 250.297C601.738 243.943 601.893 232.01 601.893 216.822C601.893 201.634 601.738 191.276 596.004 184.922Z" fill="#3C4043"/>
<path d="M662.829 272.744V162.45H733.319V177.483H679.567V209.693H725.415V224.545H679.567V257.685H733.319V272.718H662.829V272.744Z" fill="#3C4043"/>
<path d="M792.36 177.508V211.113H838.208V226.146H792.36V272.769H775.622V162.475H846.112V177.508H792.36Z" fill="#3C4043"/>
<path d="M948.567 261.119C940.198 269.953 929.815 273.673 918.217 273.673C906.748 273.673 896.83 269.488 889.236 261.894C878.413 251.046 878.542 238.802 878.542 217.596C878.542 196.389 878.387 184.146 889.236 173.297C896.83 165.703 906.439 161.519 918.217 161.519C941.593 161.519 955.231 176.862 958.331 195.744H941.438C938.648 183.655 930.59 176.552 918.217 176.552C911.708 176.552 905.819 179.187 901.944 183.371C896.52 189.26 895.28 195.46 895.28 217.596C895.28 239.732 896.52 246.112 901.944 251.976C905.819 256.16 911.708 258.64 918.217 258.64C925.501 258.64 931.855 255.876 936.169 250.891C940.198 246.241 941.748 240.662 941.748 233.533V227.36H918.191V213.101H958.46V229.968C958.46 244.252 955.825 253.37 948.567 261.119Z" fill="#3C4043"/>
<path d="M1064 272.744V224.571H1019.24V272.744H1002.5V162.45H1019.24V209.538H1064V162.45H1080.71V272.744H1064V272.744Z" fill="#3C4043"/>
<path d="M1128.98 272.744V162.45H1145.71V272.744H1128.98V272.744Z" fill="#3C4043"/>
<path d="M1208.28 273.674C1196.97 273.674 1189.06 270.574 1181.5 262.98L1192.65 251.976C1196.53 255.851 1200.25 258.64 1208.28 258.64C1220.68 258.64 1228.27 251.047 1228.27 236.633V162.45H1244.99V237.873C1245.01 260.81 1228.58 273.674 1208.28 273.674Z" fill="#3C4043"/>
<path d="M1358.03 272.744L1327.04 218.397L1308.47 240.689V272.744H1291.73V162.45H1308.47V217.881L1353.54 162.45H1374L1338.22 205.663L1377.72 272.744H1358.03Z" fill="#3C4043"/>
<path d="M1413.05 272.744V162.45H1429.78V257.711H1482.92V272.744H1413.05Z" fill="#3C4043"/>
<path d="M1601.91 272.744V199.025L1576.52 252.777H1564.12L1538.11 199.025V272.744H1521.37V162.45H1538.11L1570.32 231.054L1601.91 162.45H1618.64V272.744H1601.91V272.744Z" fill="#3C4043"/>
<path d="M1734.42 272.744L1683.45 195.15V272.744H1666.72V162.45H1682.06L1733.02 239.888V162.45H1749.73V272.744H1734.42V272.744Z" fill="#3C4043"/>
<path d="M350.105 475.224C342.51 482.818 332.747 487.002 320.994 487.002C309.216 487.002 299.607 482.818 292.013 475.224C281.19 464.375 281.319 452.132 281.319 430.925C281.319 409.719 281.164 397.476 292.013 386.627C299.607 379.033 309.216 374.849 320.994 374.849C332.773 374.849 342.51 379.033 350.105 386.627C360.927 397.476 360.643 409.719 360.643 430.925C360.643 452.132 360.953 464.375 350.105 475.224ZM337.422 396.701C333.548 392.516 327.503 389.882 320.994 389.882C314.485 389.882 308.441 392.516 304.566 396.701C299.142 402.59 298.057 408.789 298.057 430.925C298.057 453.062 299.142 459.287 304.566 465.15C308.441 469.335 314.485 471.969 320.994 471.969C327.503 471.969 333.548 469.335 337.422 465.15C342.821 459.261 343.905 453.062 343.905 430.925C343.905 408.789 342.821 402.59 337.422 396.701Z" fill="#3C4043"/>
<path d="M446.646 442.705H421.539V486.073H404.827V375.779H446.646C468.188 375.779 481.955 390.037 481.955 409.229C481.981 428.472 468.188 442.705 446.646 442.705ZM445.716 390.838H421.539V427.543H445.716C457.339 427.543 465.243 420.878 465.243 409.255C465.243 397.631 457.365 390.838 445.716 390.838Z" fill="#3C4043"/>
<path d="M591.369 491.032L580.365 480.054C574.037 484.548 565.952 487.028 557.273 487.028C545.521 487.028 535.912 482.844 528.318 475.25C517.469 464.401 517.624 452.158 517.624 430.951C517.624 409.745 517.469 397.502 528.318 386.653C535.912 379.059 545.521 374.875 557.273 374.875C569.052 374.875 578.815 379.059 586.409 386.653C597.258 397.502 596.922 409.745 596.922 430.951C596.922 449.704 597.103 461.147 589.819 471.065L600.668 481.759L591.369 491.032ZM573.701 396.701C569.852 392.516 563.782 389.882 557.273 389.882C550.79 389.882 544.746 392.516 540.871 396.701C535.447 402.59 534.362 408.789 534.362 430.925C534.362 453.062 535.447 459.287 540.871 465.15C544.72 469.335 550.79 471.969 557.273 471.969C561.458 471.969 565.358 470.729 568.587 468.405L556.963 456.781L566.262 447.508L576.93 458.202C579.72 452.623 580.184 445.184 580.184 430.925C580.21 408.789 579.125 402.59 573.701 396.701Z" fill="#3C4043"/>
<path d="M702.028 486.073L678.807 439.605H657.885V486.073H641.173V375.779H683.921C704.844 375.779 718.146 389.237 718.146 407.989C718.146 423.771 708.537 433.871 696.139 437.28L721.53 486.073H702.028ZM682.681 390.838H657.885V425.373H682.681C693.84 425.373 701.434 419.019 701.434 408.17C701.434 397.322 693.84 390.838 682.681 390.838Z" fill="#3C4043"/>
<path d="M791.318 487.002C774.735 487.002 762.801 483.128 752.263 472.46L763.421 461.457C771.506 469.516 780.314 471.969 791.628 471.969C806.041 471.969 814.41 465.796 814.41 455.102C814.41 450.298 812.989 446.268 810.07 443.634C807.281 440.999 804.491 439.914 797.982 438.984L784.964 437.151C775.975 435.885 768.846 432.811 764.041 428.317C758.617 423.202 755.982 416.228 755.982 407.239C755.982 388.048 769.905 374.875 792.842 374.875C807.384 374.875 817.638 378.594 827.066 387.402L816.373 397.941C809.554 391.432 801.675 389.417 792.377 389.417C779.358 389.417 772.229 396.856 772.229 406.62C772.229 410.649 773.469 414.214 776.414 416.848C779.203 419.328 783.698 421.188 788.786 421.962L801.34 423.796C811.568 425.372 817.277 427.826 821.952 432.01C827.97 437.28 830.941 445.184 830.941 454.612C830.967 474.94 814.41 487.002 791.318 487.002Z" fill="#3C4043"/>
<path d="M910.197 390.838V486.099H893.485V390.838H863.108V375.805H940.572V390.838H910.197Z" fill="#3C4043"/>
<path d="M1016.79 487.003C994.339 487.003 977.317 471.66 977.317 448.878V375.779H994.029V448.129C994.029 462.826 1003.02 471.97 1016.79 471.97C1030.58 471.97 1039.72 462.826 1039.72 448.129V375.779H1056.43V448.878C1056.43 471.686 1039.26 487.003 1016.79 487.003Z" fill="#3C4043"/>
<path d="M1138.6 486.073H1125.61L1089.37 375.779H1106.7L1132.12 456.007L1157.51 375.779H1175.18L1138.6 486.073Z" fill="#3C4043"/>
<path d="M1299.83 486.073H1285.29L1262.82 408.79L1240.53 486.073H1225.98L1197.18 375.779H1214.85L1234.04 454.612L1256.18 375.779H1269.64L1291.77 454.612L1310.99 375.779H1328.66L1299.83 486.073Z" fill="#3C4043"/>
<path d="M1418.39 486.073L1394.39 443.789L1370.52 486.073H1351.31L1385.38 429.557L1353.48 375.805H1372.69L1394.39 415.299L1416.22 375.805H1435.43L1403.53 429.557L1437.76 486.073H1418.39V486.073Z" fill="#3C4043"/>
<path d="M1509.16 440.69V486.073H1492.45V440.69L1459.47 375.779H1477.73L1500.82 424.262L1523.91 375.779H1542.2L1509.16 440.69Z" fill="#3C4043"/>
<path d="M1569.8 486.073V471.686L1620.76 390.838H1571.97V375.805H1640.42V389.417L1589.14 471.04H1640.42V486.073H1569.8Z" fill="#3C4043"/>
<path d="M105.524 686.414V679.311C99.7896 685.045 94.3654 687.37 84.6016 687.37C74.8379 687.37 68.3288 685.045 63.5244 680.241C59.4949 676.082 57.3252 670.012 57.3252 663.374C57.3252 650.201 66.469 640.773 84.4208 640.773H105.188V635.168C105.188 625.249 100.229 620.471 87.9854 620.471C79.3065 620.471 75.122 622.485 70.7826 628.065L60.399 618.301C67.838 609.622 75.5612 606.987 88.5795 606.987C110.096 606.987 120.944 616.131 120.944 633.928V686.44H105.524V686.414ZM105.214 651.751H86.7972C77.4984 651.751 72.694 655.909 72.694 663.064C72.694 670.167 77.1884 674.223 87.1071 674.223C93.1514 674.223 97.6458 673.732 101.83 669.728C104.155 667.404 105.24 663.684 105.24 658.105V651.751H105.214Z" fill="#3C4043"/>
<path d="M220.241 680.397C215.928 684.711 208.928 687.371 201.049 687.371C192.526 687.371 186.171 685.202 180.282 678.072V686.441H164.784V576.147H180.566V615.796C186.301 608.977 192.81 606.963 201.179 606.963C209.083 606.963 215.902 609.597 220.215 613.937C228.119 621.841 229.049 635.143 229.049 647.076C229.049 659.01 228.145 672.467 220.241 680.397ZM196.994 621.066C182.736 621.066 180.566 633.154 180.566 647.076C180.566 661.025 182.736 673.268 196.994 673.268C211.252 673.268 213.267 661.025 213.267 647.076C213.267 633.154 211.252 621.066 196.994 621.066Z" fill="#3C4043"/>
<path d="M300.825 687.371C283.157 687.371 265.825 676.522 265.825 647.076C265.825 617.655 283.183 606.962 300.825 606.962C311.673 606.962 319.242 610.061 326.681 617.965L315.832 628.478C310.873 623.054 306.998 621.065 300.799 621.065C294.755 621.065 289.64 623.545 286.257 628.039C282.847 632.379 281.607 637.958 281.607 647.076C281.607 656.22 282.847 661.954 286.257 666.293C289.666 670.788 294.781 673.267 300.799 673.267C306.998 673.267 310.873 671.253 315.832 665.828L326.681 676.212C319.267 684.116 311.673 687.371 300.825 687.371Z" fill="#3C4043"/>
<path d="M407.933 686.416V678.047C402.044 685.176 395.689 687.346 387.166 687.346C379.262 687.346 372.288 684.685 367.948 680.372C360.044 672.442 359.114 658.985 359.114 647.051C359.114 635.118 360.044 621.789 367.948 613.911C372.288 609.572 379.107 606.937 387.011 606.937C395.38 606.937 401.889 608.952 407.597 615.771V576.122H423.405V686.416H407.933V686.416ZM391.35 621.066C377.092 621.066 374.922 633.155 374.922 647.077C374.922 661.025 377.092 673.269 391.35 673.269C405.582 673.269 407.597 661.025 407.597 647.077C407.623 633.155 405.608 621.066 391.35 621.066Z" fill="#3C4043"/>
<path d="M479.545 651.751C479.545 665.208 486.674 673.732 499.511 673.732C508.345 673.732 512.994 671.253 518.574 665.673L528.647 675.127C520.588 683.186 513.02 687.371 499.227 687.371C479.545 687.371 463.892 676.987 463.892 647.076C463.892 621.685 477.065 606.962 497.212 606.962C518.264 606.962 530.507 622.46 530.507 644.751V651.751H479.545ZM512.684 630.054C510.205 624.139 504.625 620.135 497.186 620.135C489.747 620.135 484.013 624.139 481.559 630.054C480.009 633.618 479.7 635.943 479.545 640.747H514.854C514.699 635.917 514.234 633.593 512.684 630.054Z" fill="#3C4043"/>
<path d="M589.128 621.376V686.441H573.32V621.376H564.331V609.287H573.32V597.199C573.32 585.885 580.139 575.347 594.836 575.347H604.755V588.804H597.781C591.892 588.804 589.102 592.239 589.102 597.948V609.262H604.729V621.35H589.128V621.376Z" fill="#3C4043"/>
<path d="M667.325 719.115C655.392 719.115 647.798 716.326 639.584 708.732L649.658 698.658C654.617 703.307 658.931 705.632 666.68 705.632C680.008 705.632 685.122 696.204 685.122 685.665V675.592C679.388 682.411 672.879 684.58 664.82 684.58C656.916 684.58 650.407 681.946 646.067 677.606C638.473 670.012 637.233 659.009 637.233 645.706C637.233 632.404 638.473 621.4 646.067 613.806C650.407 609.467 657.071 606.987 664.949 606.987C673.318 606.987 679.672 609.157 685.561 616.26V607.917H700.904V685.975C700.956 705.167 688.248 719.115 667.325 719.115ZM669.185 621.065C654.927 621.065 653.067 633.308 653.067 645.681C653.067 658.053 654.927 670.297 669.185 670.297C683.443 670.297 685.148 658.053 685.148 645.681C685.148 633.308 683.443 621.065 669.185 621.065Z" fill="#3C4043"/>
<path d="M793.062 686.416V638.243C793.062 626.31 786.088 621.066 777.254 621.066C768.42 621.066 761.291 626.49 761.291 638.243V686.416H745.509V576.122H761.291V615.771C766.715 609.882 773.844 606.937 781.593 606.937C799.106 606.937 808.87 618.716 808.87 635.738V686.39H793.062V686.416Z" fill="#3C4043"/>
<path d="M852.103 592.419V575.681H868.815V592.419H852.103ZM852.567 686.414V607.891H868.35V686.414H852.567Z" fill="#3C4043"/>
<path d="M907.141 718.495H897.403V705.037H904.377C910.732 705.037 912.901 701.937 912.901 695.893V607.916H928.683V696.797C928.658 708.421 922.174 718.495 907.141 718.495ZM912.411 592.419V575.681H929.123V592.419H912.411Z" fill="#3C4043"/>
<path d="M1022.51 686.416L1000.53 650.176L988.91 663.349V686.441H973.128V576.147H988.91V644.158L1019.44 607.918H1038.66L1011.38 638.733L1042.07 686.441H1022.51V686.416Z" fill="#3C4043"/>
<path d="M1098.52 686.416C1083.48 686.416 1077 676.342 1077 664.719V576.122H1092.81V663.789C1092.81 669.833 1094.98 672.933 1101.33 672.933H1108.31V686.39H1098.52V686.416Z" fill="#3C4043"/>
<path d="M1240.73 686.416V638.553C1240.73 626.284 1233.76 621.04 1224.93 621.04C1216.4 621.04 1208.65 626.464 1208.65 637.752V686.39H1192.87V638.527C1192.87 626.258 1185.9 621.014 1177.06 621.014C1168.23 621.014 1160.79 626.439 1160.79 638.527V686.39H1145.01V607.867H1160.51V615.771C1165.78 610.037 1173.53 606.937 1181.43 606.937C1191.19 606.937 1198.76 610.786 1203.72 618.38C1210.07 610.631 1217.98 606.937 1228.36 606.937C1236.42 606.937 1243.55 609.572 1248.2 614.04C1254.24 619.955 1256.57 627.369 1256.57 636.177V686.364H1240.73V686.416Z" fill="#3C4043"/>
<path d="M1348.16 686.415V638.552C1348.16 626.283 1341.18 621.039 1332.35 621.039C1323.52 621.039 1316.08 626.464 1316.08 638.552V686.415H1300.29V607.892H1315.79V615.796C1321.22 609.907 1328.81 606.962 1336.71 606.962C1344.77 606.962 1351.44 609.597 1356.09 614.065C1362.13 619.98 1363.99 627.393 1363.99 636.201V686.389H1348.16V686.415Z" fill="#3C4043"/>
<path d="M1460.2 678.046C1455.09 683.315 1447.34 687.344 1436.64 687.344C1425.95 687.344 1418.36 683.315 1413.27 678.046C1405.83 670.297 1403.97 660.378 1403.97 647.075C1403.97 633.902 1405.83 623.983 1413.27 616.26C1418.38 611.017 1425.97 606.987 1436.64 606.987C1447.34 606.987 1455.09 611.017 1460.2 616.26C1467.64 624.009 1469.5 633.928 1469.5 647.075C1469.5 660.404 1467.64 670.297 1460.2 678.046ZM1448.27 625.559C1445.32 622.614 1441.29 621.065 1436.64 621.065C1431.99 621.065 1428.12 622.614 1425.2 625.559C1420.4 630.363 1419.78 638.577 1419.78 647.075C1419.78 655.599 1420.4 663.787 1425.2 668.618C1428.14 671.562 1432.02 673.267 1436.64 673.267C1441.29 673.267 1445.32 671.588 1448.27 668.618C1453.07 663.787 1453.69 655.599 1453.69 647.075C1453.69 638.577 1453.07 630.338 1448.27 625.559Z" fill="#3C4043"/>
<path d="M1565.74 680.396C1561.42 684.71 1554.58 687.371 1546.7 687.371C1538.33 687.371 1531.82 685.201 1526.09 678.382V718.186H1510.31V607.892H1525.8V616.235C1531.69 609.132 1538.05 606.962 1546.57 606.962C1554.47 606.962 1561.45 609.597 1565.76 613.936C1573.67 621.84 1574.6 635.142 1574.6 647.076C1574.6 659.009 1573.64 672.467 1565.74 680.396ZM1542.52 621.065C1528.26 621.065 1526.09 633.153 1526.09 647.076C1526.09 661.024 1528.26 673.267 1542.52 673.267C1556.77 673.267 1558.79 661.024 1558.79 647.076C1558.79 633.153 1556.77 621.065 1542.52 621.065Z" fill="#3C4043"/>
<path d="M1660.15 718.186V678.382C1654.41 685.201 1647.9 687.371 1639.56 687.371C1631.66 687.371 1624.84 684.71 1620.5 680.396C1612.59 672.467 1611.67 659.009 1611.67 647.076C1611.67 635.142 1612.59 621.814 1620.5 613.936C1624.84 609.597 1631.81 606.962 1639.72 606.962C1648.24 606.962 1654.59 609.132 1660.48 616.235V607.892H1675.98V718.186H1660.15ZM1643.9 621.065C1629.64 621.065 1627.47 633.153 1627.47 647.076C1627.47 661.024 1629.64 673.267 1643.9 673.267C1658.13 673.267 1660.15 661.024 1660.15 647.076C1660.15 633.153 1658.13 621.065 1643.9 621.065Z" fill="#3C4043"/>
<path d="M1763.65 626.308C1760.08 622.744 1757.29 621.065 1751.87 621.065C1743.34 621.065 1736.21 627.884 1736.21 638.732V686.44H1720.43V607.917H1735.93V616.415C1739.96 610.836 1748.02 606.987 1756.85 606.987C1764.45 606.987 1770.18 609.002 1775.61 614.426L1763.65 626.308Z" fill="#3C4043"/>
<path d="M1831.71 687.371C1818.87 687.371 1808.02 685.201 1798.72 676.057L1809.11 665.673C1815.46 672.183 1823.96 673.887 1831.71 673.887C1841.32 673.887 1848.91 670.478 1848.91 663.039C1848.91 657.769 1845.97 654.36 1838.37 653.74L1825.85 652.655C1811.15 651.415 1802.62 644.751 1802.62 630.984C1802.62 615.641 1815.8 606.962 1832.23 606.962C1844 606.962 1854.08 609.442 1861.34 615.796L1851.42 625.869C1846.48 621.685 1839.48 620.135 1832.07 620.135C1822.62 620.135 1817.81 624.32 1817.81 630.209C1817.81 634.858 1820.29 638.397 1828.66 639.198L1841.03 640.282C1855.73 641.522 1864.41 648.496 1864.41 662.419C1864.38 678.821 1850.44 687.371 1831.71 687.371Z" fill="#3C4043"/>
<path d="M154.302 887.743C139.578 887.743 132.759 877.205 132.759 865.891V822.678H123.771V810.589H132.759V786.722H148.541V810.589H163.729V822.678H148.541V865.116C148.541 870.876 151.331 874.26 157.22 874.26H163.729V887.717H154.302V887.743Z" fill="#3C4043"/>
<path d="M250.635 887.745V879.841C245.211 885.73 237.642 888.675 229.713 888.675C221.654 888.675 215.015 886.014 210.366 881.546C204.322 875.656 202.462 868.217 202.462 859.409V809.248H218.244V857.11C218.244 869.354 225.218 874.623 234.026 874.623C242.834 874.623 250.299 869.199 250.299 857.11V809.248H266.081V887.771H250.635V887.745Z" fill="#3C4043"/>
<path d="M340.999 887.745H328.136L299.335 809.222H316.047L334.645 864.524L353.087 809.222H369.799L340.999 887.745Z" fill="#3C4043"/>
<path d="M479.863 887.745H466.405L447.963 832.908L429.701 887.745H416.063L391.757 809.222H408.469L423.657 864.524L441.944 809.222H454.188L472.295 864.524L487.483 809.222H504.35L479.863 887.745Z" fill="#3C4043"/>
<path d="M580.472 887.745L564.044 860.96L547.461 887.745H528.425L555.391 847.631L529.51 809.222H548.546L564.044 834.768L579.387 809.222H598.45L572.723 847.631L599.535 887.745H580.472Z" fill="#3C4043"/>
<path d="M659.525 903.398C657.949 907.737 656.115 910.837 653.79 913.161C649.451 917.501 643.691 918.896 637.672 918.896H631.318V904.638H635.348C642.012 904.638 644.337 902.623 646.661 896.295L651.001 884.051L623.569 809.248H640.281L659.034 864.549L677.322 809.248H694.188L659.525 903.398Z" fill="#3C4043"/>
<path d="M720.933 887.745V875.218L759.962 823.299H723.103V809.222H779.489V821.75L740.15 873.642H779.489V887.745H720.933Z" fill="#3C4043"/>
<path d="M847.482 888.702C829.995 888.702 815.737 876.769 815.737 857.086V808.138C815.737 788.456 829.995 776.522 847.482 776.522C864.995 776.522 879.382 788.456 879.382 808.138V857.086C879.382 876.769 864.995 888.702 847.482 888.702ZM863.6 808.603C863.6 797.91 857.582 790.651 847.482 790.651C837.409 790.651 831.545 797.91 831.545 808.603V856.621C831.545 867.289 837.434 874.573 847.482 874.573C857.582 874.573 863.6 867.289 863.6 856.621V808.603Z" fill="#3C4043"/>
<path d="M947.502 887.746V794.655L925.96 813.562V796.05L947.502 777.452H963.284V887.746H947.502V887.746Z" fill="#3C4043"/>
<path d="M1020 887.745V873.642L1062.43 822.06C1066.62 816.971 1068.35 812.916 1068.35 807.363C1068.35 797.444 1062.43 790.65 1052.23 790.65C1043.89 790.65 1035.96 795.3 1035.96 807.672H1020.18C1020.18 788.92 1033.5 776.547 1052.23 776.547C1071.11 776.547 1084.13 788.481 1084.13 807.517C1084.13 817.281 1080.57 823.015 1073.77 831.384L1039.21 873.668H1084.13V887.771H1020V887.745Z" fill="#3C4043"/>
<path d="M1152.51 888.83C1134.84 888.83 1119.34 879.377 1118.72 857.86H1134.5C1135.12 869.639 1143.34 874.572 1152.48 874.572C1162.71 874.572 1170.43 867.908 1170.43 856.285C1170.43 845.126 1164.39 838.178 1151.99 838.178H1149.36V824.385H1151.99C1163.46 824.385 1168.7 817.72 1168.7 807.673C1168.7 796.514 1161.44 790.651 1152.46 790.651C1142.85 790.651 1136.65 796.669 1135.87 806.433H1120.06C1120.99 787.68 1134.79 776.393 1152.46 776.393C1171.21 776.393 1184.51 788.92 1184.51 807.208C1184.51 818.986 1179.24 826.554 1170.72 830.739C1180.17 834.923 1186.22 843.111 1186.22 856.775C1186.24 877.982 1170.9 888.83 1152.51 888.83Z" fill="#3C4043"/>
<path d="M1279.58 871.189V887.771H1264.24V871.189H1219.63V856.491L1258.51 777.478H1275.55L1236.83 856.491H1264.24V830.739H1279.58V856.466H1291.36V871.163H1279.58V871.189Z" fill="#3C4043"/>
<path d="M1381.09 880.152C1376.13 885.111 1368.56 888.831 1357.87 888.831C1347.33 888.831 1339.12 885.111 1334.31 880.307C1328.42 874.417 1326.56 867.133 1325.97 859.255H1341.75C1342.99 869.019 1347.95 874.598 1357.87 874.598C1362.52 874.598 1366.55 873.048 1369.31 870.259C1373.96 865.609 1374.58 858.325 1374.58 850.912C1374.58 837.739 1371.17 827.82 1358.46 827.82C1349.48 827.82 1344.54 832.315 1342.84 837.739H1328.42V777.478H1387.91V791.581H1342.68V820.691C1346.4 816.842 1352.91 814.337 1360.97 814.337C1369.65 814.337 1376.31 816.997 1380.81 821.466C1389.15 829.809 1390.39 840.503 1390.39 850.912C1390.36 862.665 1389.15 872.118 1381.09 880.152Z" fill="#3C4043"/>
<path d="M1459.53 888.701C1440.47 888.701 1426.83 876.148 1426.83 855.716C1426.83 846.728 1430.24 838.204 1435.02 828.595L1460.12 777.478H1477.01L1453.33 824.875C1456.27 823.636 1459.68 823.171 1463.09 823.171C1479.03 823.171 1492.05 835.724 1492.05 855.071C1492.05 875.373 1478.59 888.701 1459.53 888.701ZM1459.35 836.318C1449.43 836.318 1442.64 843.447 1442.64 855.381C1442.64 867.133 1449.45 874.572 1459.35 874.572C1469.24 874.572 1476.24 867.133 1476.24 855.381C1476.27 844.558 1469.91 836.318 1459.35 836.318Z" fill="#3C4043"/>
<path d="M1558.68 887.746H1541.66L1578.68 791.555H1545.07V808.887H1529.88V777.452H1595.54V791.555L1558.68 887.746Z" fill="#3C4043"/>
<path d="M1663.29 888.701C1644.41 888.701 1629.37 876.613 1629.37 856.646C1629.37 843.473 1636.79 835.414 1644.53 830.764C1637.43 826.425 1631.21 818.676 1631.21 807.078C1631.21 788.636 1645.31 776.547 1663.26 776.547C1681.24 776.547 1695.5 788.636 1695.5 807.078C1695.5 818.676 1689.3 826.425 1682.17 830.764C1689.92 835.414 1697.33 843.473 1697.33 856.646C1697.36 876.613 1682.19 888.701 1663.29 888.701ZM1663.29 837.894C1653.06 837.894 1645.18 846.082 1645.18 856.31C1645.18 866.539 1653.08 874.598 1663.29 874.598C1673.52 874.598 1681.42 866.539 1681.42 856.31C1681.42 846.082 1673.52 837.894 1663.29 837.894ZM1663.29 790.65C1653.7 790.65 1647.04 797.909 1647.04 807.517C1647.04 817.281 1653.7 824.229 1663.29 824.229C1672.9 824.229 1679.71 817.255 1679.71 807.517C1679.71 797.909 1672.9 790.65 1663.29 790.65Z" fill="#3C4043"/>
<path d="M1789.75 836.654L1764.64 887.771H1747.78L1771.46 840.373C1768.52 841.613 1764.95 842.078 1761.54 842.078C1745.61 842.078 1732.74 829.525 1732.74 810.178C1732.74 789.876 1746.2 776.547 1765.26 776.547C1784.33 776.547 1797.96 789.075 1797.96 809.532C1797.96 818.521 1794.55 827.045 1789.75 836.654ZM1765.26 790.65C1755.34 790.65 1748.55 798.089 1748.55 809.842C1748.55 820.691 1754.75 828.905 1765.26 828.905C1775.18 828.905 1782.16 821.776 1782.16 809.842C1782.16 798.089 1775.18 790.65 1765.26 790.65Z" fill="#3C4043"/>
</svg>
