<svg xmlns="http://www.w3.org/2000/svg" width="1920" height="1080" fill="none"><path fill="#3C4043" fill-rule="evenodd" d="M218 179.452v13.678h182.38v-27.357H218v13.679Zm561.287 103.501-.469 117.179H645.681l-.476-77.968-.474-77.967H621.06v157.115l11.398 12.615 11.399 12.615 67.716.016 67.716.019 12.075-12.802 12.075-12.799V165.773H779.757l-.47 117.18Zm-548.263-25.534-12.98 13.223-.022 77.967-.022 77.968h25.533V271.554H376.67v155.023h23.71V270.173l-12.026-12.987-12.025-12.989H244.006l-12.982 13.222Zm201.497.274-12.079 13.494.06 65.385.062 65.383 11.778 12.311 11.778 12.311h158.702V401.082l-78.88-.474-78.879-.476v-51.067l78.879-.476 78.88-.474V322.62H444.151v-51.066h158.671v-27.357H444.598l-12.077 13.496Zm188.539 234.54V505h182.379v-25.533H621.06v12.766Z" clip-rule="evenodd"/><path fill="#3C4043" d="M218 602.357V575h182.38v27.357H218ZM420.442 810.538V575h23.709v235.27h158.671v25.533l-79.792-.018-79.791-.016-11.399-12.616-11.398-12.615ZM821.677 835.803V575h25.534v78.423h132.696l12.075 12.802 12.078 12.799v156.779h-23.712V680.78H847.211v155.023h-25.534ZM1625.97 835.803V575h23.71V653.385l78.88.474 78.88.476v25.533l-78.88.476-78.88.475V835.803h-23.71ZM375.759 809.358l.476-77.967.474-77.968h23.671l-.079 78.88-.078 78.879-11.583 12.311-11.583 12.31H218v-25.495l78.879-.474 78.88-.476ZM1180.97 810.27V653.423h23.71V810.58l-11.21 12.612-11.21 12.611H1022.3V810.27H1180.97ZM1425.39 679.868l11.99-13.222 11.99-13.223h158.36v27.357H1449.06v51.067H1607.73v25.495l-78.87.474-78.88.476-.51 25.989-.51 25.989H1607.73v25.533h-159.05l-11.59-12.31-11.58-12.311-.06-65.657-.06-65.657Z"/><path fill="#3C4043" fill-rule="evenodd" d="m634.083 666.646-12.98 13.222-.022 117.18-.021 117.179h25.533v-78.424h134.43l11.207-12.611 11.209-12.612V679.024l-12.075-12.799-12.075-12.802H647.065l-12.982 13.223ZM779.73 810.27V680.78H646.593v129.49H779.73ZM1224.8 693.091l.06 118.091 11.78 12.311 11.78 12.31H1382.59l12.27-12.356 12.26-12.356v-130.57l-12.28-13.549-12.27-13.549h-134.12V575h-23.71l.06 118.091Zm156.78 117.179V680.78h-133.13v129.49h133.13Z" clip-rule="evenodd"/></svg>