<svg xmlns="http://www.w3.org/2000/svg" width="1920" height="1080" fill="none"><path fill="#3C4043" fill-rule="evenodd" d="M176.949 177.713c-2.292 6.106-100.352 296.765-100.352 297.453 0 .446 13.478.807 29.953.802l29.953-.012 8.621-29.097 8.622-29.1H266.44l5.378 16.875c2.958 9.282 6.978 22.38 8.932 29.11l3.552 12.234h30.402c16.723 0 30.012-.635 29.533-1.409-.48-.775-22.631-65.131-49.228-143.015-26.597-77.883-49.482-144.834-50.856-148.778l-2.499-7.172h-31.956c-24.018 0-32.154.525-32.749 2.109Zm198.334 148.078v150.187h50.625v-65.039l15.135-15.065c8.323-8.285 15.422-14.723 15.775-14.308.351.415 14.848 21.828 32.216 47.584l31.576 46.828h62.405l-7.43-10.547c-4.085-5.8-24.198-35.307-44.695-65.569l-37.266-55.024 40.813-40.733 40.814-40.733-32.906.029-32.906.03-41.766 40.617-41.765 40.618V175.604h-50.625v150.187Zm695.247-97.679v52.51l-6.67-6.03c-16.73-15.113-42.94-21.144-70.222-16.159-34.004 6.21-62.574 36.652-73.509 78.327-4.797 18.289-5.2 53.746-.806 70.874 9.602 37.417 33.827 63.062 67.773 71.744 28.574 7.307 57.684 1.175 75.884-15.985 3.48-3.288 6.61-5.978 6.94-5.978.34 0 .61 4.177.61 9.282v9.281H1121.16V175.604H1070.53v52.508Zm-248.623-49.695c-.619.618-1.125 12.388-1.125 26.156v25.031h50.624v-52.313h-24.187c-13.304 0-24.694.507-25.312 1.126Zm-589.988 121.77c10.282 34.644 19.111 64.069 19.617 65.39.781 2.037-5.385 2.401-40.603 2.401-22.839 0-41.524-.55-41.524-1.221 0-.672 6.883-24.024 15.295-51.891 26.438-87.577 25.503-84.78 27.088-81.043.786 1.856 9.843 31.719 20.127 66.364Zm1020.021-42.522c-29.69 4.612-57.25 22.631-72.1 47.127-19.98 32.973-21.61 85.031-3.77 120.646 12.28 24.522 33.64 42.808 60.32 51.65 12.3 4.079 16.41 4.599 36.64 4.627 28.39.041 43.18-3.796 66.66-17.291 11.03-6.34 39.11-33.583 36.84-35.741-.78-.735-10.49-6.604-21.59-13.043l-20.19-11.708-8.01 8.762c-21.14 23.13-62.32 27.082-86.9 8.337-9.63-7.34-17.62-20.99-21.43-36.6l-1.13-4.64h79.34c74.89 0 79.35-.169 79.35-2.997 0-7.904-3.84-32.982-6.85-44.81-9.13-35.798-31.28-60.183-64.03-70.481-10.86-3.416-41.59-5.635-53.15-3.838Zm261.35 1.455c-15.1 3.284-28.35 10.169-37.84 19.662l-8.36 8.357v-23.785h-50.62v212.624h50.62l.04-55.265c.03-58.374 1.21-73.327 6.82-86.368 4.18-9.71 15.17-20.879 24.29-24.675 7.71-3.209 23.09-3.611 30.45-.793 6.71 2.577 13.82 9.47 18.29 17.758 3.54 6.566 3.66 8.695 4.13 78.046l.49 71.297H1602.09l-.01-77.203c-.01-79.027-.85-92.142-6.71-105.819-11.8-27.525-46.1-41.663-82.08-33.836Zm-908.508 26.991v22.756l51.329.447 51.327.446-57.233 63.91-57.235 63.912v38.396h182.249v-43.875h-55.687c-30.628 0-55.687-.386-55.687-.859 0-.472 25.059-29.425 55.687-64.339l55.687-63.478v-40.073H604.782v22.757Zm216 83.555v106.312h50.624V263.354h-50.624v106.312Zm833.618-83.531v22.781h50.63c27.84 0 50.62.383 50.62.851 0 .467-25.41 29.132-56.47 63.702l-56.48 62.853-.05 19.828-.06 19.828h182.25v-43.875h-55.83c-36.12 0-55.63-.591-55.26-1.672.31-.92 25.43-30.102 55.83-64.852l55.26-63.18v-39.045H1654.4v22.781Zm-359.1 17.2c12.45 6.744 22.82 22.284 23.16 34.69l.13 4.641H1219.3l1.74-6.328c5.19-18.856 18.76-32.442 37.65-37.694 9.64-2.679 27.15-.437 36.61 4.691Zm-254.3 5.181c7.96 4.101 16.17 12.434 20.27 20.552 9.83 19.486 11.14 56.752 2.68 76.493-4.52 10.543-16.17 22.922-25.44 27.052-10.22 4.546-27.01 4.532-37.32-.032-21.416-9.472-33.488-36.047-31.484-69.301 2.28-37.855 22.975-60.594 53.574-58.865 6.7.378 13.6 1.973 17.72 4.101Z" clip-rule="evenodd"/><path fill="#3C4043" d="M121.545 653.699c20.22-19.175 42.719-30.024 70.127-33.814 42.616-5.893 87.976 12.305 112.625 45.183 7.14 9.522 18.674 29.821 18.674 32.864 0 .963-47.516 20.27-47.874 19.451-6.077-13.878-14.992-28.505-21.087-34.6-25.388-25.388-71.043-23.741-95.86 3.456-15.876 17.398-23.589 38.404-25.196 68.614-2.662 50.073 18.823 88.176 55.696 98.775 13.255 3.811 35.274 2.707 48.6-2.433 19.113-7.373 34.405-26.872 38.168-48.671l1.53-8.859h-68.824l.471-22.359c.258-12.299 1.041-22.169 1.736-21.938.695.231 26.325.422 56.953.422h55.687v148.601l-21.515-.473-21.516-.472-.498-11.349-.497-11.348-9.11 7.42c-10.583 8.621-26.468 16.477-39.676 19.622-12.806 3.049-42.091 2.626-56.531-.818-44.557-10.627-78.575-46.096-91.487-95.388-3.527-13.466-4.234-20.05-4.265-39.764-.076-47.842 14.001-83.985 43.669-112.122ZM1385.72 641.22c15.87-11.652 39.6-19.956 62.81-21.985 12.46-1.086 37.21.63 48.94 3.394 6.03 1.422 18.06 5.989 26.74 10.147 13.22 6.34 18.33 10.062 31.64 23.053 8.73 8.521 15.85 16.252 15.82 17.18-.03.928-9.25 8.448-20.51 16.711l-20.45 15.024-3.42-4.899c-12.66-18.132-33.19-31.011-54.64-34.274-38.29-5.826-69.72 13.434-62.96 38.567 3.76 13.937 12.98 18.007 69.21 30.559 35.14 7.84 50.64 13.249 64.67 22.557 19.69 13.069 29.42 29.776 31.03 53.286 1.76 25.572-5.17 44.992-21.87 61.367-24.63 24.142-66.58 36.079-110.82 31.539-35.88-3.682-60.55-14.021-82.19-34.443-7.3-6.897-14.62-14.841-16.26-17.654l-2.97-5.117 21.09-14.533 21.08-14.531 10.93 11.588c17.34 18.377 36.36 26.48 66.75 28.438 26.11 1.679 45.58-5.209 55.24-19.545 5.36-7.943 5.34-22.669-.02-30.631-7.3-10.827-10.3-11.873-79.69-27.785-29.46-6.755-44.66-12.723-55.94-21.971-34.81-28.527-31.82-88.43 5.79-116.042ZM884.907 672.283v-47.368h199.123v47.375l-37.11-.484-37.12-.484-.43 113.062-.43 113.062-24.881.467-24.879.466-.433-113.233-.434-113.234-36.703.186-36.703.185ZM1121.56 763.29c-.24-73.786-.07-135.111.38-136.279.64-1.679 20.87-2.031 96.62-1.687l95.81.435.47 22.36.48 22.359h-143.54v64.125h131.63v43.874h-131.63v73.406h152.72v45.563H1122l-.44-134.156ZM1618.97 898.289V624.915h48.89l.45 62.701.44 62.701 54.82-62.701 54.82-62.701h29.27c16.1 0 29.02.613 28.71 1.361-.31.749-19.92 23.592-43.59 50.763-23.67 27.17-43.23 49.946-43.48 50.611-.38 1.016 84.52 153.835 91.71 165.096 1.32 2.055 2.39 4.161 2.39 4.679 0 .52-13.03.736-28.96.483l-28.96-.462-35.89-63.281c-19.74-34.805-36.42-63.175-37.07-63.045-.64.13-10.94 11.52-22.89 25.312l-21.72 25.076v38.391l-.01 38.39h-48.93Z"/><path fill="#3C4043" fill-rule="evenodd" d="M725.648 620c-52.356 7.091-93.928 46.578-107.679 102.282-5.243 21.237-5.208 57.532.076 78.977 9.387 38.1 36.861 74.695 67.803 90.314 18.03 9.101 33.548 12.354 58.153 12.194 25.729-.169 41.86-3.706 59.722-13.091 48.549-25.512 76.41-84.814 69.552-148.043-5.473-50.456-29.683-88.531-69.447-109.219-22.748-11.833-52.346-16.912-78.18-13.414Zm97.039 142.446c-.177-42.536-17.104-75.012-46.73-89.655-11.102-5.486-14.149-6.22-28.11-6.76-25.991-1.007-40.794 4.882-57.434 22.857-15.187 16.403-22.444 35.363-24.278 63.433-2.83 43.29 15.392 82.185 45.427 96.972 29.948 14.744 64.13 8.51 86.918-15.851 17.423-18.626 24.341-38.911 24.207-70.996ZM378.659 761.449v136.84h48.937V796.947l23.756.469 23.757.468 25.603 48.13c14.082 26.472 26.217 49.064 26.968 50.203 1.726 2.621 56.853 3.002 56.853.393 0-.923-13.188-25.928-29.305-55.567l-29.305-53.887 11.164-5.496c28.376-13.967 44.506-43.976 41.59-77.368-3.334-38.171-25.01-64.624-61.865-75.499-7.342-2.166-21.299-2.816-73.607-3.429l-64.546-.754v136.839Zm139.621-76.872c-7.101-8.087-16.038-12.233-30.387-14.098-18.926-2.458-58.535-2.156-59.538.454-.452 1.178-.617 20.353-.369 42.61l.454 40.466 15.187.501c8.353.275 24.187-.265 35.186-1.2 17.098-1.453 21.259-2.408 28.687-6.586 12.316-6.926 18.521-17.314 19.375-32.437.767-13.578-1.593-21.735-8.595-29.71Z" clip-rule="evenodd"/></svg>