<svg width="1920" height="1080" viewBox="0 0 1920 1080" fill="none" xmlns="http://www.w3.org/2000/svg">
<rect x="646" y="50" width="627.091" height="980" fill="#D2E3FC"/>
<path d="M775.615 138.694H780.572L793.218 170.162L805.837 138.694H810.821L795.127 177.293H791.256L775.615 138.694ZM773.998 138.694H778.372L779.088 162.235V177.293H773.998V138.694ZM808.037 138.694H812.412V177.293H807.322V162.235L808.037 138.694ZM819.357 163.269V162.66C819.357 160.592 819.658 158.674 820.259 156.907C820.86 155.122 821.726 153.575 822.857 152.267C823.988 150.942 825.358 149.917 826.966 149.192C828.574 148.45 830.377 148.079 832.374 148.079C834.389 148.079 836.2 148.45 837.809 149.192C839.435 149.917 840.813 150.942 841.944 152.267C843.093 153.575 843.968 155.122 844.569 156.907C845.17 158.674 845.47 160.592 845.47 162.66V163.269C845.47 165.337 845.17 167.255 844.569 169.022C843.968 170.79 843.093 172.336 841.944 173.662C840.813 174.969 839.444 175.994 837.835 176.737C836.245 177.461 834.442 177.824 832.427 177.824C830.412 177.824 828.601 177.461 826.992 176.737C825.384 175.994 824.006 174.969 822.857 173.662C821.726 172.336 820.86 170.79 820.259 169.022C819.658 167.255 819.357 165.337 819.357 163.269ZM824.262 162.66V163.269C824.262 164.701 824.43 166.053 824.766 167.325C825.101 168.58 825.605 169.694 826.277 170.666C826.966 171.638 827.823 172.407 828.848 172.972C829.873 173.52 831.066 173.794 832.427 173.794C833.77 173.794 834.946 173.52 835.953 172.972C836.978 172.407 837.826 171.638 838.498 170.666C839.17 169.694 839.673 168.58 840.009 167.325C840.363 166.053 840.539 164.701 840.539 163.269V162.66C840.539 161.246 840.363 159.911 840.009 158.657C839.673 157.384 839.161 156.262 838.472 155.29C837.8 154.3 836.952 153.522 835.927 152.957C834.919 152.391 833.735 152.108 832.374 152.108C831.031 152.108 829.847 152.391 828.822 152.957C827.814 153.522 826.966 154.3 826.277 155.29C825.605 156.262 825.101 157.384 824.766 158.657C824.43 159.911 824.262 161.246 824.262 162.66ZM856.525 153.116V177.293H851.621V148.609H856.393L856.525 153.116ZM865.486 148.45L865.459 153.01C865.053 152.921 864.664 152.868 864.293 152.851C863.939 152.815 863.533 152.798 863.073 152.798C861.942 152.798 860.944 152.974 860.078 153.328C859.212 153.681 858.478 154.176 857.877 154.813C857.276 155.449 856.799 156.209 856.446 157.092C856.11 157.958 855.889 158.913 855.783 159.956L854.404 160.751C854.404 159.019 854.572 157.393 854.908 155.873C855.262 154.353 855.801 153.01 856.525 151.843C857.25 150.659 858.169 149.74 859.282 149.086C860.413 148.415 861.757 148.079 863.312 148.079C863.665 148.079 864.072 148.123 864.531 148.211C864.991 148.282 865.309 148.362 865.486 148.45ZM881.392 177.824C879.395 177.824 877.583 177.488 875.957 176.816C874.349 176.127 872.962 175.164 871.795 173.927C870.647 172.689 869.763 171.223 869.144 169.526C868.526 167.829 868.216 165.973 868.216 163.959V162.845C868.216 160.512 868.561 158.436 869.25 156.615C869.94 154.777 870.876 153.222 872.06 151.949C873.245 150.677 874.588 149.714 876.09 149.06C877.592 148.406 879.148 148.079 880.756 148.079C882.806 148.079 884.573 148.432 886.058 149.139C887.56 149.846 888.789 150.836 889.743 152.108C890.697 153.363 891.404 154.848 891.864 156.562C892.323 158.259 892.553 160.115 892.553 162.129V164.33H871.133V160.327H887.649V159.956C887.578 158.683 887.313 157.446 886.853 156.244C886.411 155.042 885.705 154.053 884.732 153.275C883.76 152.497 882.435 152.108 880.756 152.108C879.642 152.108 878.617 152.347 877.681 152.824C876.744 153.284 875.94 153.973 875.268 154.892C874.597 155.811 874.075 156.933 873.704 158.259C873.333 159.584 873.147 161.113 873.147 162.845V163.959C873.147 165.32 873.333 166.601 873.704 167.803C874.093 168.987 874.65 170.03 875.374 170.931C876.117 171.832 877.009 172.539 878.052 173.052C879.112 173.564 880.314 173.821 881.657 173.821C883.389 173.821 884.856 173.467 886.058 172.76C887.26 172.053 888.311 171.108 889.213 169.924L892.182 172.283C891.563 173.22 890.777 174.112 889.823 174.961C888.868 175.809 887.693 176.498 886.297 177.028C884.918 177.559 883.283 177.824 881.392 177.824ZM919.064 177.293H914.159V145.587C914.159 143.519 914.53 141.778 915.273 140.364C916.033 138.933 917.12 137.855 918.533 137.13C919.947 136.388 921.626 136.017 923.57 136.017C924.136 136.017 924.702 136.052 925.267 136.123C925.85 136.193 926.416 136.299 926.964 136.441L926.699 140.444C926.328 140.355 925.903 140.294 925.426 140.258C924.967 140.223 924.507 140.205 924.048 140.205C923.005 140.205 922.104 140.417 921.344 140.841C920.601 141.248 920.036 141.849 919.647 142.644C919.258 143.439 919.064 144.42 919.064 145.587V177.293ZM925.161 148.609V152.374H909.626V148.609H925.161ZM929.323 163.269V162.66C929.323 160.592 929.624 158.674 930.225 156.907C930.825 155.122 931.692 153.575 932.823 152.267C933.954 150.942 935.323 149.917 936.932 149.192C938.54 148.45 940.343 148.079 942.34 148.079C944.355 148.079 946.166 148.45 947.775 149.192C949.401 149.917 950.779 150.942 951.91 152.267C953.059 153.575 953.934 155.122 954.535 156.907C955.136 158.674 955.436 160.592 955.436 162.66V163.269C955.436 165.337 955.136 167.255 954.535 169.022C953.934 170.79 953.059 172.336 951.91 173.662C950.779 174.969 949.409 175.994 947.801 176.737C946.21 177.461 944.408 177.824 942.393 177.824C940.378 177.824 938.567 177.461 936.958 176.737C935.35 175.994 933.971 174.969 932.823 173.662C931.692 172.336 930.825 170.79 930.225 169.022C929.624 167.255 929.323 165.337 929.323 163.269ZM934.228 162.66V163.269C934.228 164.701 934.396 166.053 934.731 167.325C935.067 168.58 935.571 169.694 936.242 170.666C936.932 171.638 937.789 172.407 938.814 172.972C939.839 173.52 941.032 173.794 942.393 173.794C943.736 173.794 944.911 173.52 945.919 172.972C946.944 172.407 947.792 171.638 948.464 170.666C949.135 169.694 949.639 168.58 949.975 167.325C950.328 166.053 950.505 164.701 950.505 163.269V162.66C950.505 161.246 950.328 159.911 949.975 158.657C949.639 157.384 949.127 156.262 948.437 155.29C947.766 154.3 946.917 153.522 945.892 152.957C944.885 152.391 943.701 152.108 942.34 152.108C940.997 152.108 939.813 152.391 938.788 152.957C937.78 153.522 936.932 154.3 936.242 155.29C935.571 156.262 935.067 157.384 934.731 158.657C934.396 159.911 934.228 161.246 934.228 162.66ZM966.491 154.733V177.293H961.587V148.609H966.226L966.491 154.733ZM965.325 161.864L963.283 161.785C963.301 159.823 963.593 158.011 964.158 156.35C964.724 154.671 965.519 153.213 966.544 151.976C967.569 150.739 968.789 149.784 970.203 149.113C971.634 148.423 973.216 148.079 974.948 148.079C976.362 148.079 977.634 148.273 978.765 148.662C979.897 149.033 980.86 149.634 981.655 150.465C982.468 151.295 983.087 152.374 983.511 153.699C983.935 155.007 984.147 156.606 984.147 158.497V177.293H979.216V158.444C979.216 156.942 978.995 155.74 978.553 154.839C978.112 153.92 977.466 153.257 976.618 152.851C975.77 152.427 974.727 152.214 973.49 152.214C972.27 152.214 971.157 152.471 970.15 152.983C969.16 153.496 968.303 154.203 967.578 155.104C966.871 156.005 966.314 157.039 965.908 158.206C965.519 159.355 965.325 160.574 965.325 161.864ZM1003.61 148.609V152.374H988.097V148.609H1003.61ZM993.346 141.637H998.251V170.189C998.251 171.161 998.401 171.894 998.701 172.389C999.002 172.884 999.391 173.211 999.868 173.37C1000.35 173.529 1000.86 173.608 1001.41 173.608C1001.81 173.608 1002.24 173.573 1002.68 173.502C1003.14 173.414 1003.48 173.343 1003.71 173.29L1003.74 177.293C1003.35 177.417 1002.84 177.532 1002.2 177.638C1001.58 177.762 1000.83 177.824 999.947 177.824C998.746 177.824 997.641 177.585 996.634 177.108C995.626 176.631 994.822 175.835 994.221 174.722C993.638 173.591 993.346 172.071 993.346 170.162V141.637ZM1026.06 169.685C1026.06 168.978 1025.9 168.324 1025.58 167.723C1025.28 167.105 1024.66 166.548 1023.7 166.053C1022.76 165.54 1021.35 165.099 1019.46 164.727C1017.87 164.392 1016.43 163.994 1015.14 163.534C1013.87 163.075 1012.78 162.518 1011.88 161.864C1010.99 161.21 1010.31 160.442 1009.84 159.558C1009.36 158.674 1009.12 157.64 1009.12 156.456C1009.12 155.325 1009.37 154.256 1009.86 153.248C1010.37 152.241 1011.09 151.348 1012.01 150.571C1012.95 149.793 1014.07 149.183 1015.38 148.742C1016.68 148.3 1018.14 148.079 1019.75 148.079C1022.05 148.079 1024.01 148.485 1025.64 149.298C1027.26 150.111 1028.51 151.198 1029.37 152.559C1030.24 153.902 1030.67 155.396 1030.67 157.039H1025.77C1025.77 156.244 1025.53 155.475 1025.05 154.733C1024.59 153.973 1023.91 153.346 1023.01 152.851C1022.13 152.356 1021.04 152.108 1019.75 152.108C1018.39 152.108 1017.29 152.321 1016.44 152.745C1015.61 153.151 1015 153.673 1014.61 154.309C1014.24 154.945 1014.05 155.617 1014.05 156.324C1014.05 156.854 1014.14 157.331 1014.32 157.755C1014.51 158.162 1014.85 158.542 1015.32 158.895C1015.8 159.231 1016.47 159.549 1017.34 159.85C1018.2 160.15 1019.31 160.45 1020.65 160.751C1023 161.281 1024.94 161.917 1026.46 162.66C1027.98 163.402 1029.11 164.312 1029.85 165.39C1030.59 166.468 1030.96 167.776 1030.96 169.314C1030.96 170.569 1030.7 171.717 1030.17 172.76C1029.66 173.803 1028.91 174.704 1027.92 175.464C1026.94 176.207 1025.78 176.79 1024.42 177.214C1023.07 177.62 1021.56 177.824 1019.88 177.824C1017.36 177.824 1015.22 177.373 1013.47 176.472C1011.72 175.57 1010.39 174.404 1009.49 172.972C1008.59 171.541 1008.14 170.03 1008.14 168.439H1013.07C1013.14 169.782 1013.53 170.851 1014.24 171.647C1014.94 172.424 1015.81 172.981 1016.83 173.317C1017.86 173.635 1018.88 173.794 1019.88 173.794C1021.23 173.794 1022.35 173.617 1023.25 173.264C1024.17 172.91 1024.87 172.424 1025.34 171.806C1025.82 171.187 1026.06 170.48 1026.06 169.685ZM773.998 465.694H786.776C789.674 465.694 792.122 466.136 794.119 467.02C796.134 467.903 797.663 469.211 798.706 470.943C799.766 472.658 800.296 474.77 800.296 477.279C800.296 479.047 799.934 480.664 799.209 482.131C798.502 483.58 797.477 484.817 796.134 485.842C794.809 486.85 793.218 487.601 791.362 488.096L789.931 488.652H777.921L777.868 484.49H786.935C788.773 484.49 790.302 484.172 791.521 483.536C792.741 482.882 793.66 482.007 794.278 480.911C794.897 479.815 795.206 478.605 795.206 477.279C795.206 475.795 794.915 474.496 794.331 473.382C793.748 472.269 792.829 471.412 791.574 470.811C790.337 470.192 788.738 469.883 786.776 469.883H779.114V504.293H773.998V465.694ZM796.558 504.293L787.174 486.796L792.502 486.77L802.02 503.975V504.293H796.558ZM805.413 490.269V489.66C805.413 487.592 805.713 485.674 806.314 483.907C806.915 482.122 807.781 480.575 808.912 479.267C810.043 477.942 811.413 476.917 813.021 476.192C814.63 475.45 816.432 475.079 818.43 475.079C820.444 475.079 822.256 475.45 823.864 476.192C825.49 476.917 826.869 477.942 828 479.267C829.149 480.575 830.024 482.122 830.624 483.907C831.225 485.674 831.526 487.592 831.526 489.66V490.269C831.526 492.337 831.225 494.255 830.624 496.022C830.024 497.79 829.149 499.336 828 500.662C826.869 501.969 825.499 502.994 823.891 503.737C822.3 504.461 820.497 504.824 818.483 504.824C816.468 504.824 814.656 504.461 813.048 503.737C811.44 502.994 810.061 501.969 808.912 500.662C807.781 499.336 806.915 497.79 806.314 496.022C805.713 494.255 805.413 492.337 805.413 490.269ZM810.317 489.66V490.269C810.317 491.701 810.485 493.053 810.821 494.325C811.157 495.58 811.661 496.694 812.332 497.666C813.021 498.638 813.879 499.407 814.904 499.972C815.929 500.52 817.122 500.794 818.483 500.794C819.826 500.794 821.001 500.52 822.008 499.972C823.034 499.407 823.882 498.638 824.554 497.666C825.225 496.694 825.729 495.58 826.065 494.325C826.418 493.053 826.595 491.701 826.595 490.269V489.66C826.595 488.246 826.418 486.911 826.065 485.657C825.729 484.384 825.216 483.262 824.527 482.29C823.855 481.3 823.007 480.522 821.982 479.957C820.975 479.391 819.79 479.108 818.43 479.108C817.086 479.108 815.902 479.391 814.877 479.957C813.87 480.522 813.021 481.3 812.332 482.29C811.661 483.262 811.157 484.384 810.821 485.657C810.485 486.911 810.317 488.246 810.317 489.66ZM837.65 463.573H842.581V498.726L842.157 504.293H837.65V463.573ZM861.96 489.713V490.269C861.96 492.355 861.712 494.29 861.218 496.075C860.723 497.843 859.998 499.38 859.044 500.688C858.089 501.996 856.923 503.012 855.544 503.737C854.166 504.461 852.584 504.824 850.799 504.824C848.979 504.824 847.379 504.514 846.001 503.896C844.64 503.26 843.491 502.349 842.554 501.165C841.617 499.981 840.866 498.55 840.301 496.87C839.753 495.191 839.373 493.3 839.161 491.197V488.758C839.373 486.637 839.753 484.737 840.301 483.058C840.866 481.379 841.617 479.948 842.554 478.764C843.491 477.562 844.64 476.652 846.001 476.033C847.361 475.397 848.943 475.079 850.746 475.079C852.549 475.079 854.148 475.432 855.544 476.139C856.941 476.829 858.107 477.818 859.044 479.108C859.998 480.399 860.723 481.945 861.218 483.748C861.712 485.533 861.96 487.521 861.96 489.713ZM857.029 490.269V489.713C857.029 488.281 856.896 486.938 856.631 485.683C856.366 484.411 855.942 483.297 855.359 482.343C854.776 481.371 854.007 480.611 853.052 480.063C852.098 479.497 850.923 479.214 849.526 479.214C848.289 479.214 847.211 479.427 846.292 479.851C845.391 480.275 844.622 480.849 843.986 481.574C843.349 482.281 842.828 483.094 842.422 484.013C842.033 484.914 841.741 485.851 841.547 486.823V493.212C841.83 494.449 842.289 495.642 842.925 496.791C843.579 497.922 844.445 498.85 845.523 499.575C846.619 500.299 847.971 500.662 849.579 500.662C850.905 500.662 852.036 500.396 852.973 499.866C853.927 499.318 854.696 498.567 855.279 497.613C855.88 496.658 856.322 495.554 856.605 494.299C856.888 493.044 857.029 491.701 857.029 490.269ZM866.864 490.269V489.66C866.864 487.592 867.165 485.674 867.766 483.907C868.367 482.122 869.233 480.575 870.364 479.267C871.495 477.942 872.865 476.917 874.473 476.192C876.081 475.45 877.884 475.079 879.881 475.079C881.896 475.079 883.707 475.45 885.316 476.192C886.942 476.917 888.32 477.942 889.451 479.267C890.6 480.575 891.475 482.122 892.076 483.907C892.677 485.674 892.977 487.592 892.977 489.66V490.269C892.977 492.337 892.677 494.255 892.076 496.022C891.475 497.79 890.6 499.336 889.451 500.662C888.32 501.969 886.951 502.994 885.342 503.737C883.752 504.461 881.949 504.824 879.934 504.824C877.919 504.824 876.108 504.461 874.499 503.737C872.891 502.994 871.513 501.969 870.364 500.662C869.233 499.336 868.367 497.79 867.766 496.022C867.165 494.255 866.864 492.337 866.864 490.269ZM871.769 489.66V490.269C871.769 491.701 871.937 493.053 872.273 494.325C872.608 495.58 873.112 496.694 873.784 497.666C874.473 498.638 875.33 499.407 876.355 499.972C877.38 500.52 878.573 500.794 879.934 500.794C881.277 500.794 882.453 500.52 883.46 499.972C884.485 499.407 885.333 498.638 886.005 497.666C886.677 496.694 887.18 495.58 887.516 494.325C887.87 493.053 888.046 491.701 888.046 490.269V489.66C888.046 488.246 887.87 486.911 887.516 485.657C887.18 484.384 886.668 483.262 885.978 482.29C885.307 481.3 884.459 480.522 883.433 479.957C882.426 479.391 881.242 479.108 879.881 479.108C878.538 479.108 877.354 479.391 876.329 479.957C875.321 480.522 874.473 481.3 873.784 482.29C873.112 483.262 872.608 484.384 872.273 485.657C871.937 486.911 871.769 488.246 871.769 489.66ZM911.137 475.609V479.374H895.628V475.609H911.137ZM900.877 468.637H905.782V497.189C905.782 498.161 905.932 498.894 906.233 499.389C906.533 499.884 906.922 500.211 907.399 500.37C907.876 500.529 908.389 500.608 908.937 500.608C909.343 500.608 909.767 500.573 910.209 500.502C910.669 500.414 911.013 500.343 911.243 500.29L911.27 504.293C910.881 504.417 910.368 504.532 909.732 504.638C909.113 504.762 908.362 504.824 907.479 504.824C906.277 504.824 905.172 504.585 904.165 504.108C903.157 503.631 902.353 502.835 901.752 501.722C901.169 500.591 900.877 499.071 900.877 497.162V468.637ZM915.061 490.269V489.66C915.061 487.592 915.361 485.674 915.962 483.907C916.563 482.122 917.429 480.575 918.56 479.267C919.691 477.942 921.061 476.917 922.669 476.192C924.277 475.45 926.08 475.079 928.077 475.079C930.092 475.079 931.904 475.45 933.512 476.192C935.138 476.917 936.516 477.942 937.648 479.267C938.796 480.575 939.671 482.122 940.272 483.907C940.873 485.674 941.173 487.592 941.173 489.66V490.269C941.173 492.337 940.873 494.255 940.272 496.022C939.671 497.79 938.796 499.336 937.648 500.662C936.516 501.969 935.147 502.994 933.538 503.737C931.948 504.461 930.145 504.824 928.13 504.824C926.115 504.824 924.304 504.461 922.696 503.737C921.087 502.994 919.709 501.969 918.56 500.662C917.429 499.336 916.563 497.79 915.962 496.022C915.361 494.255 915.061 492.337 915.061 490.269ZM919.965 489.66V490.269C919.965 491.701 920.133 493.053 920.469 494.325C920.805 495.58 921.308 496.694 921.98 497.666C922.669 498.638 923.526 499.407 924.551 499.972C925.576 500.52 926.769 500.794 928.13 500.794C929.473 500.794 930.649 500.52 931.656 499.972C932.681 499.407 933.53 498.638 934.201 497.666C934.873 496.694 935.376 495.58 935.712 494.325C936.066 493.053 936.242 491.701 936.242 490.269V489.66C936.242 488.246 936.066 486.911 935.712 485.657C935.376 484.384 934.864 483.262 934.175 482.29C933.503 481.3 932.655 480.522 931.63 479.957C930.622 479.391 929.438 479.108 928.077 479.108C926.734 479.108 925.55 479.391 924.525 479.957C923.517 480.522 922.669 481.3 921.98 482.29C921.308 483.262 920.805 484.384 920.469 485.657C920.133 486.911 919.965 488.246 919.965 489.66ZM786.909 597.546L794.491 613.293H799.66L799.687 612.975L791.495 596.486C792.555 596.026 793.527 595.47 794.411 594.816C795.295 594.162 796.055 593.411 796.691 592.562C797.327 591.714 797.822 590.768 798.175 589.726C798.547 588.683 798.732 587.534 798.732 586.279C798.732 584.335 798.388 582.647 797.698 581.216C797.027 579.766 796.099 578.565 794.915 577.61C793.713 576.656 792.317 575.94 790.726 575.463C789.135 574.986 787.439 574.729 785.636 574.694H774.316V613.293H779.194V597.546H786.909ZM779.194 593.517V578.724H785.636C786.82 578.741 787.907 578.909 788.897 579.227C789.904 579.546 790.77 580.014 791.495 580.632C792.219 581.269 792.785 582.055 793.192 582.992C793.598 583.911 793.801 584.989 793.801 586.226C793.801 587.393 793.589 588.427 793.165 589.328C792.741 590.212 792.166 590.963 791.442 591.581C790.7 592.2 789.842 592.677 788.87 593.013C787.898 593.331 786.864 593.499 785.769 593.517H779.194ZM805.36 598.686V599.269C805.36 601.337 805.66 603.255 806.261 605.022C806.862 606.79 807.728 608.327 808.859 609.635C809.973 610.943 811.334 611.968 812.942 612.71C814.568 613.453 816.397 613.824 818.43 613.824C820.444 613.824 822.256 613.453 823.864 612.71C825.473 611.968 826.842 610.943 827.973 609.635C829.087 608.327 829.944 606.79 830.545 605.022C831.146 603.255 831.446 601.337 831.446 599.269V598.686C831.446 596.618 831.146 594.701 830.545 592.933C829.944 591.148 829.087 589.602 827.973 588.294C826.842 586.986 825.464 585.961 823.838 585.219C822.229 584.459 820.409 584.079 818.377 584.079C816.362 584.079 814.55 584.459 812.942 585.219C811.334 585.961 809.973 586.986 808.859 588.294C807.728 589.602 806.862 591.148 806.261 592.933C805.66 594.701 805.36 596.618 805.36 598.686ZM810.264 599.269V598.686C810.264 597.29 810.432 595.956 810.768 594.683C811.104 593.393 811.616 592.262 812.306 591.29C812.977 590.318 813.817 589.549 814.824 588.983C815.832 588.4 817.016 588.108 818.377 588.108C819.737 588.108 820.922 588.4 821.929 588.983C822.954 589.549 823.811 590.318 824.5 591.29C825.172 592.262 825.676 593.393 826.012 594.683C826.365 595.956 826.542 597.29 826.542 598.686V599.269C826.542 600.683 826.374 602.035 826.038 603.325C825.702 604.598 825.199 605.72 824.527 606.692C823.838 607.664 822.981 608.433 821.955 608.999C820.948 609.564 819.773 609.847 818.43 609.847C817.069 609.847 815.876 609.564 814.851 608.999C813.826 608.433 812.977 607.664 812.306 606.692C811.616 605.72 811.104 604.598 810.768 603.325C810.432 602.035 810.264 600.683 810.264 599.269ZM863.657 599.269V598.713C863.657 597.21 863.533 595.788 863.285 594.444C863.038 593.084 862.676 591.846 862.198 590.733C861.739 589.743 861.209 588.851 860.608 588.055C860.007 587.242 859.327 586.553 858.567 585.988C857.718 585.387 856.773 584.918 855.73 584.583C854.687 584.247 853.547 584.079 852.31 584.079C851.32 584.079 850.401 584.176 849.553 584.37C848.705 584.565 847.927 584.848 847.22 585.219C846.654 585.519 846.124 585.882 845.629 586.306C845.135 586.712 844.684 587.172 844.277 587.684V572.573H839.373V613.293H843.88L844.118 610.033C844.436 610.439 844.772 610.81 845.126 611.146C845.479 611.482 845.85 611.791 846.239 612.074C847.052 612.64 847.962 613.073 848.97 613.373C849.995 613.673 851.126 613.824 852.363 613.824C853.441 613.824 854.44 613.691 855.359 613.426C856.295 613.161 857.153 612.79 857.93 612.313C859.008 611.623 859.927 610.757 860.687 609.715C861.465 608.654 862.092 607.461 862.57 606.136C862.923 605.128 863.188 604.05 863.365 602.901C863.559 601.735 863.657 600.524 863.657 599.269ZM858.752 598.713V599.269C858.752 600.118 858.699 600.948 858.593 601.761C858.487 602.574 858.319 603.334 858.089 604.041C857.807 604.978 857.427 605.826 856.949 606.586C856.472 607.346 855.88 607.974 855.173 608.469C854.643 608.857 854.042 609.158 853.37 609.37C852.699 609.564 851.957 609.662 851.144 609.662C850.295 609.662 849.518 609.555 848.811 609.343C848.104 609.114 847.467 608.795 846.902 608.389C846.336 607.983 845.833 607.514 845.391 606.984C844.967 606.436 844.595 605.844 844.277 605.208V592.668C844.578 592.032 844.94 591.449 845.364 590.919C845.806 590.371 846.31 589.893 846.875 589.487C847.423 589.098 848.051 588.798 848.758 588.586C849.465 588.356 850.242 588.241 851.091 588.241C851.868 588.241 852.575 588.329 853.211 588.506C853.848 588.683 854.422 588.93 854.935 589.248C855.677 589.69 856.304 590.3 856.817 591.078C857.329 591.855 857.745 592.712 858.063 593.649C858.293 594.409 858.461 595.222 858.567 596.088C858.69 596.936 858.752 597.811 858.752 598.713ZM870.576 598.686V599.269C870.576 601.337 870.876 603.255 871.477 605.022C872.078 606.79 872.944 608.327 874.075 609.635C875.189 610.943 876.55 611.968 878.158 612.71C879.784 613.453 881.613 613.824 883.646 613.824C885.66 613.824 887.472 613.453 889.08 612.71C890.689 611.968 892.058 610.943 893.189 609.635C894.303 608.327 895.16 606.79 895.761 605.022C896.362 603.255 896.662 601.337 896.662 599.269V598.686C896.662 596.618 896.362 594.701 895.761 592.933C895.16 591.148 894.303 589.602 893.189 588.294C892.058 586.986 890.68 585.961 889.054 585.219C887.445 584.459 885.625 584.079 883.593 584.079C881.578 584.079 879.766 584.459 878.158 585.219C876.55 585.961 875.189 586.986 874.075 588.294C872.944 589.602 872.078 591.148 871.477 592.933C870.876 594.701 870.576 596.618 870.576 598.686ZM875.48 599.269V598.686C875.48 597.29 875.648 595.956 875.984 594.683C876.32 593.393 876.832 592.262 877.522 591.29C878.193 590.318 879.033 589.549 880.04 588.983C881.048 588.4 882.232 588.108 883.593 588.108C884.953 588.108 886.138 588.4 887.145 588.983C888.17 589.549 889.027 590.318 889.716 591.29C890.388 592.262 890.892 593.393 891.228 594.683C891.581 595.956 891.758 597.29 891.758 598.686V599.269C891.758 600.683 891.59 602.035 891.254 603.325C890.918 604.598 890.415 605.72 889.743 606.692C889.054 607.664 888.197 608.433 887.171 608.999C886.164 609.564 884.989 609.847 883.646 609.847C882.285 609.847 881.092 609.564 880.067 608.999C879.042 608.433 878.193 607.664 877.522 606.692C876.832 605.72 876.32 604.598 875.984 603.325C875.648 602.035 875.48 600.683 875.48 599.269ZM916.174 577.663H911.243V584.609H903.714V588.4H911.243V603.988C911.243 605.756 911.473 607.267 911.932 608.522C912.41 609.759 913.055 610.766 913.868 611.544C914.681 612.339 915.635 612.922 916.731 613.293C917.844 613.647 919.037 613.824 920.31 613.824C921.07 613.824 921.83 613.788 922.59 613.718C923.367 613.647 924.101 613.541 924.79 613.399C925.479 613.276 926.115 613.126 926.699 612.949C927.282 612.754 927.777 612.533 928.183 612.286L927.494 608.813C927.194 608.884 926.805 608.972 926.328 609.078C925.868 609.167 925.373 609.255 924.843 609.343C924.295 609.432 923.738 609.511 923.173 609.582C922.607 609.635 922.059 609.662 921.529 609.662C920.805 609.662 920.115 609.573 919.461 609.396C918.825 609.22 918.259 608.91 917.765 608.469C917.27 608.044 916.881 607.47 916.598 606.745C916.315 606.021 916.174 605.102 916.174 603.988V588.4H927.096V584.609H916.174V577.663ZM935.792 598.686V599.269C935.792 601.337 936.092 603.255 936.693 605.022C937.294 606.79 938.16 608.327 939.291 609.635C940.405 610.943 941.766 611.968 943.374 612.71C945 613.453 946.829 613.824 948.862 613.824C950.876 613.824 952.688 613.453 954.296 612.71C955.904 611.968 957.274 610.943 958.405 609.635C959.519 608.327 960.376 606.79 960.977 605.022C961.578 603.255 961.878 601.337 961.878 599.269V598.686C961.878 596.618 961.578 594.701 960.977 592.933C960.376 591.148 959.519 589.602 958.405 588.294C957.274 586.986 955.896 585.961 954.27 585.219C952.661 584.459 950.841 584.079 948.808 584.079C946.794 584.079 944.982 584.459 943.374 585.219C941.766 585.961 940.405 586.986 939.291 588.294C938.16 589.602 937.294 591.148 936.693 592.933C936.092 594.701 935.792 596.618 935.792 598.686ZM940.696 599.269V598.686C940.696 597.29 940.864 595.956 941.2 594.683C941.536 593.393 942.048 592.262 942.738 591.29C943.409 590.318 944.249 589.549 945.256 588.983C946.263 588.4 947.448 588.108 948.808 588.108C950.169 588.108 951.354 588.4 952.361 588.983C953.386 589.549 954.243 590.318 954.932 591.29C955.604 592.262 956.108 593.393 956.444 594.683C956.797 595.956 956.974 597.29 956.974 598.686V599.269C956.974 600.683 956.806 602.035 956.47 603.325C956.134 604.598 955.631 605.72 954.959 606.692C954.27 607.664 953.413 608.433 952.387 608.999C951.38 609.564 950.205 609.847 948.862 609.847C947.501 609.847 946.308 609.564 945.283 608.999C944.258 608.433 943.409 607.664 942.738 606.692C942.048 605.72 941.536 604.598 941.2 603.325C940.864 602.035 940.696 600.683 940.696 599.269ZM1007.77 574.694H1001.7V613.293H1006.47V597.891L1006.07 582.329L1012.62 602.557H1015.43L1022.56 581.772L1022.16 597.891V613.293H1026.94V574.694H1020.84L1014.05 593.994L1007.77 574.694ZM1033.62 598.686V599.269C1033.62 601.337 1033.92 603.255 1034.52 605.022C1035.12 606.79 1035.98 608.327 1037.12 609.635C1038.23 610.943 1039.59 611.968 1041.2 612.71C1042.82 613.453 1044.65 613.824 1046.69 613.824C1048.7 613.824 1050.51 613.453 1052.12 612.71C1053.73 611.968 1055.1 610.943 1056.23 609.635C1057.34 608.327 1058.2 606.79 1058.8 605.022C1059.4 603.255 1059.7 601.337 1059.7 599.269V598.686C1059.7 596.618 1059.4 594.701 1058.8 592.933C1058.2 591.148 1057.34 589.602 1056.23 588.294C1055.1 586.986 1053.72 585.961 1052.09 585.219C1050.49 584.459 1048.66 584.079 1046.63 584.079C1044.62 584.079 1042.81 584.459 1041.2 585.219C1039.59 585.961 1038.23 586.986 1037.12 588.294C1035.98 589.602 1035.12 591.148 1034.52 592.933C1033.92 594.701 1033.62 596.618 1033.62 598.686ZM1038.52 599.269V598.686C1038.52 597.29 1038.69 595.956 1039.02 594.683C1039.36 593.393 1039.87 592.262 1040.56 591.29C1041.23 590.318 1042.07 589.549 1043.08 588.983C1044.09 588.4 1045.27 588.108 1046.63 588.108C1047.99 588.108 1049.18 588.4 1050.18 588.983C1051.21 589.549 1052.07 590.318 1052.76 591.29C1053.43 592.262 1053.93 593.393 1054.27 594.683C1054.62 595.956 1054.8 597.29 1054.8 598.686V599.269C1054.8 600.683 1054.63 602.035 1054.29 603.325C1053.96 604.598 1053.45 605.72 1052.78 606.692C1052.09 607.664 1051.24 608.433 1050.21 608.999C1049.2 609.564 1048.03 609.847 1046.69 609.847C1045.32 609.847 1044.13 609.564 1043.11 608.999C1042.08 608.433 1041.23 607.664 1040.56 606.692C1039.87 605.72 1039.36 604.598 1039.02 603.325C1038.69 602.035 1038.52 600.683 1038.52 599.269ZM1067.6 613.293H1072.51V592.721C1072.84 592.103 1073.23 591.537 1073.67 591.025C1074.13 590.512 1074.63 590.061 1075.16 589.673C1075.81 589.231 1076.53 588.886 1077.31 588.639C1078.08 588.374 1078.92 588.241 1079.82 588.241C1080.87 588.241 1081.79 588.365 1082.58 588.612C1083.39 588.86 1084.08 589.257 1084.65 589.805C1085.2 590.353 1085.61 591.069 1085.89 591.952C1086.18 592.836 1086.32 593.914 1086.32 595.187V613.293H1091.22V595.081C1091.22 593.172 1090.98 591.528 1090.51 590.15C1090.05 588.754 1089.39 587.605 1088.52 586.703C1087.65 585.802 1086.6 585.139 1085.36 584.715C1084.14 584.291 1082.78 584.079 1081.28 584.079C1080.17 584.096 1079.11 584.264 1078.1 584.583C1077.11 584.883 1076.19 585.316 1075.34 585.882C1074.78 586.253 1074.24 586.695 1073.73 587.207C1073.23 587.702 1072.77 588.25 1072.35 588.851L1072 584.609H1067.6V613.293ZM1098.83 598.686V599.269C1098.83 601.337 1099.13 603.255 1099.73 605.022C1100.33 606.79 1101.2 608.327 1102.33 609.635C1103.44 610.943 1104.81 611.968 1106.41 612.71C1108.04 613.453 1109.87 613.824 1111.9 613.824C1113.92 613.824 1115.73 613.453 1117.34 612.71C1118.94 611.968 1120.31 610.943 1121.45 609.635C1122.56 608.327 1123.42 606.79 1124.02 605.022C1124.62 603.255 1124.92 601.337 1124.92 599.269V598.686C1124.92 596.618 1124.62 594.701 1124.02 592.933C1123.42 591.148 1122.56 589.602 1121.45 588.294C1120.31 586.986 1118.94 585.961 1117.31 585.219C1115.7 584.459 1113.88 584.079 1111.85 584.079C1109.83 584.079 1108.02 584.459 1106.41 585.219C1104.81 585.961 1103.44 586.986 1102.33 588.294C1101.2 589.602 1100.33 591.148 1099.73 592.933C1099.13 594.701 1098.83 596.618 1098.83 598.686ZM1103.74 599.269V598.686C1103.74 597.29 1103.9 595.956 1104.24 594.683C1104.58 593.393 1105.09 592.262 1105.78 591.29C1106.45 590.318 1107.29 589.549 1108.3 588.983C1109.3 588.4 1110.49 588.108 1111.85 588.108C1113.21 588.108 1114.39 588.4 1115.4 588.983C1116.43 589.549 1117.28 590.318 1117.97 591.29C1118.64 592.262 1119.15 593.393 1119.48 594.683C1119.84 595.956 1120.01 597.29 1120.01 598.686V599.269C1120.01 600.683 1119.85 602.035 1119.51 603.325C1119.17 604.598 1118.67 605.72 1118 606.692C1117.31 607.664 1116.45 608.433 1115.43 608.999C1114.42 609.564 1113.24 609.847 1111.9 609.847C1110.54 609.847 1109.35 609.564 1108.32 608.999C1107.3 608.433 1106.45 607.664 1105.78 606.692C1105.09 605.72 1104.58 604.598 1104.24 603.325C1103.9 602.035 1103.74 600.683 1103.74 599.269ZM788.249 704.594L797.262 722.293H805.406V720.339H805.134C804.446 720.339 803.849 720.321 803.343 720.285C802.872 720.212 802.456 720.049 802.094 719.796C801.768 719.543 801.46 719.181 801.171 718.71L793.027 703.779L788.249 704.594ZM781.516 719.796V686.134H787C788.955 686.134 790.584 686.478 791.887 687.165C793.19 687.853 794.167 688.83 794.818 690.097C795.47 691.328 795.796 692.812 795.796 694.549C795.796 696.287 795.488 697.807 794.873 699.11C794.257 700.377 793.28 701.354 791.941 702.042C790.638 702.73 788.919 703.074 786.783 703.074H780.431V705.3H786.729C787.163 705.3 787.561 705.281 787.923 705.245C788.321 705.209 788.701 705.173 789.063 705.137C789.461 705.1 789.841 705.064 790.203 705.028C792.448 704.702 794.384 704.069 796.013 703.128C797.642 702.151 798.89 700.938 799.759 699.49C800.664 698.042 801.116 696.395 801.116 694.549C801.116 692.414 800.555 690.532 799.433 688.903C798.311 687.274 796.701 686.007 794.601 685.102C792.538 684.197 790.041 683.745 787.109 683.745H771.635V685.7H772.069C773.3 685.7 774.35 685.826 775.218 686.08C776.087 686.333 776.521 686.858 776.521 687.654V718.384C776.521 719.181 776.087 719.705 775.218 719.959C774.35 720.212 773.3 720.339 772.069 720.339H771.635V722.293H786.511V720.339H785.914C785.408 720.339 784.901 720.339 784.394 720.339C783.887 720.303 783.417 720.266 782.982 720.23C782.548 720.158 782.186 720.104 781.897 720.067C781.643 719.995 781.516 719.905 781.516 719.796ZM836.194 708.394C836.194 711.218 835.578 713.715 834.348 715.887C833.117 718.059 831.434 719.76 829.298 720.99C827.163 722.221 824.719 722.836 821.969 722.836C819.254 722.836 816.811 722.239 814.639 721.045C812.503 719.814 810.82 718.113 809.59 715.941C808.395 713.733 807.798 711.218 807.798 708.394C807.798 706.259 808.142 704.304 808.83 702.531C809.517 700.721 810.495 699.182 811.761 697.916C813.064 696.613 814.567 695.617 816.268 694.929C818.005 694.206 819.905 693.844 821.969 693.844C824.032 693.844 825.914 694.206 827.615 694.929C829.353 695.617 830.855 696.613 832.122 697.916C833.425 699.182 834.42 700.721 835.108 702.531C835.832 704.304 836.194 706.259 836.194 708.394ZM812.902 708.34C812.902 710.765 813.245 712.901 813.933 714.747C814.657 716.593 815.689 718.04 817.028 719.09C818.403 720.104 820.05 720.61 821.969 720.61C823.959 720.61 825.624 720.104 826.964 719.09C828.303 718.04 829.316 716.611 830.004 714.801C830.728 712.955 831.09 710.801 831.09 708.34C831.09 705.915 830.728 703.779 830.004 701.933C829.316 700.051 828.303 698.603 826.964 697.59C825.624 696.54 823.959 696.015 821.969 696.015C820.05 696.015 818.403 696.54 817.028 697.59C815.689 698.64 814.657 700.087 813.933 701.933C813.245 703.779 812.902 705.915 812.902 708.34ZM857.185 722.836C855.52 722.836 854.018 722.565 852.679 722.022C851.376 721.443 850.181 720.556 849.095 719.362C848.046 718.167 846.996 716.611 845.946 714.692L846.815 712.575C847.648 714.385 848.553 715.869 849.53 717.027C850.507 718.185 851.593 719.054 852.787 719.633C853.982 720.176 855.285 720.447 856.697 720.447C858.108 720.447 859.339 720.158 860.389 719.579C861.474 719 862.361 718.167 863.049 717.081C863.773 715.995 864.316 714.71 864.678 713.226C865.04 711.706 865.221 710.005 865.221 708.123C865.221 706.313 865.04 704.684 864.678 703.236C864.316 701.752 863.791 700.486 863.103 699.436C862.416 698.386 861.565 697.59 860.551 697.047C859.574 696.504 858.416 696.233 857.077 696.233C855.484 696.233 854.072 696.558 852.842 697.21C851.611 697.861 850.507 698.821 849.53 700.087C848.589 701.354 847.684 702.893 846.815 704.702L846.109 702.639C847.159 700.685 848.227 699.056 849.313 697.753C850.399 696.413 851.611 695.436 852.95 694.821C854.326 694.169 855.918 693.844 857.728 693.844C860.153 693.844 862.307 694.441 864.189 695.635C866.108 696.794 867.61 698.44 868.695 700.576C869.781 702.712 870.324 705.227 870.324 708.123C870.324 711.018 869.763 713.57 868.641 715.778C867.555 717.986 866.017 719.724 864.026 720.99C862.072 722.221 859.791 722.836 857.185 722.836ZM843.395 686.351C843.395 685.808 843.25 685.392 842.96 685.102C842.671 684.813 842.236 684.577 841.657 684.397C841.114 684.216 840.39 684.053 839.486 683.908L838.888 683.799V681.845H848.227V716.484L847.792 716.647L845.729 722.619H843.395V686.351ZM903.318 708.394C903.318 711.218 902.703 713.715 901.472 715.887C900.242 718.059 898.559 719.76 896.423 720.99C894.287 722.221 891.844 722.836 889.093 722.836C886.379 722.836 883.935 722.239 881.764 721.045C879.628 719.814 877.945 718.113 876.714 715.941C875.52 713.733 874.923 711.218 874.923 708.394C874.923 706.259 875.267 704.304 875.954 702.531C876.642 700.721 877.619 699.182 878.886 697.916C880.189 696.613 881.691 695.617 883.393 694.929C885.13 694.206 887.03 693.844 889.093 693.844C891.157 693.844 893.039 694.206 894.74 694.929C896.477 695.617 897.979 696.613 899.246 697.916C900.549 699.182 901.545 700.721 902.232 702.531C902.956 704.304 903.318 706.259 903.318 708.394ZM880.026 708.34C880.026 710.765 880.37 712.901 881.058 714.747C881.782 716.593 882.813 718.04 884.153 719.09C885.528 720.104 887.175 720.61 889.093 720.61C891.084 720.61 892.749 720.104 894.088 719.09C895.428 718.04 896.441 716.611 897.129 714.801C897.853 712.955 898.215 710.801 898.215 708.34C898.215 705.915 897.853 703.779 897.129 701.933C896.441 700.051 895.428 698.603 894.088 697.59C892.749 696.54 891.084 696.015 889.093 696.015C887.175 696.015 885.528 696.54 884.153 697.59C882.813 698.64 881.782 700.087 881.058 701.933C880.37 703.779 880.026 705.915 880.026 708.34ZM906.489 696.558V694.549H906.706C907.828 694.549 908.769 694.441 909.529 694.224C910.326 694.006 910.923 693.645 911.321 693.138C911.755 692.595 911.991 691.853 912.027 690.912L914.47 694.387H923.591V696.558H906.489ZM915.882 713.987C915.882 715.579 916.081 716.846 916.479 717.787C916.877 718.728 917.438 719.416 918.162 719.85C918.886 720.248 919.7 720.447 920.605 720.447C921.474 720.447 922.234 720.339 922.886 720.122C923.573 719.905 924.062 719.76 924.352 719.687V721.968C924.026 722.112 923.61 722.257 923.103 722.402C922.632 722.547 922.126 722.655 921.583 722.728C921.076 722.8 920.515 722.836 919.899 722.836C918.307 722.836 916.841 722.565 915.502 722.022C914.162 721.443 913.077 720.52 912.244 719.253C911.448 717.95 911.05 716.194 911.05 713.987V694.549L911.864 694.278L912.244 687.165H915.882V713.987ZM955.65 708.394C955.65 711.218 955.035 713.715 953.804 715.887C952.574 718.059 950.89 719.76 948.755 720.99C946.619 722.221 944.176 722.836 941.425 722.836C938.711 722.836 936.267 722.239 934.096 721.045C931.96 719.814 930.277 718.113 929.046 715.941C927.852 713.733 927.255 711.218 927.255 708.394C927.255 706.259 927.598 704.304 928.286 702.531C928.974 700.721 929.951 699.182 931.218 697.916C932.521 696.613 934.023 695.617 935.724 694.929C937.462 694.206 939.362 693.844 941.425 693.844C943.488 693.844 945.371 694.206 947.072 694.929C948.809 695.617 950.311 696.613 951.578 697.916C952.881 699.182 953.877 700.721 954.564 702.531C955.288 704.304 955.65 706.259 955.65 708.394ZM932.358 708.34C932.358 710.765 932.702 712.901 933.39 714.747C934.114 716.593 935.145 718.04 936.484 719.09C937.86 720.104 939.507 720.61 941.425 720.61C943.416 720.61 945.081 720.104 946.42 719.09C947.759 718.04 948.773 716.611 949.461 714.801C950.185 712.955 950.547 710.801 950.547 708.34C950.547 705.915 950.185 703.779 949.461 701.933C948.773 700.051 947.759 698.603 946.42 697.59C945.081 696.54 943.416 696.015 941.425 696.015C939.507 696.015 937.86 696.54 936.484 697.59C935.145 698.64 934.114 700.087 933.39 701.933C932.702 703.779 932.358 705.915 932.358 708.34ZM988.112 720.393C989.813 720.393 991.297 720.158 992.564 719.687C993.867 719.181 994.88 718.384 995.604 717.298C996.328 716.176 996.69 714.729 996.69 712.955C996.69 711.543 996.383 710.385 995.767 709.48C995.188 708.539 994.392 707.779 993.378 707.2C992.365 706.584 991.207 706.06 989.903 705.625C988.6 705.191 987.261 704.775 985.886 704.377C984.474 703.942 983.062 703.454 981.651 702.911C980.275 702.368 979.027 701.68 977.905 700.847C976.819 700.015 975.95 698.983 975.298 697.753C974.647 696.486 974.321 694.929 974.321 693.083C974.321 691.093 974.828 689.373 975.841 687.926C976.855 686.442 978.212 685.283 979.913 684.451C981.651 683.618 983.569 683.202 985.669 683.202C987.623 683.202 989.324 683.51 990.772 684.125C992.22 684.704 993.469 685.573 994.518 686.731C995.604 687.889 996.473 689.337 997.125 691.075L995.224 689.989L995.876 683.745H998.319V693.735H995.821C995.387 692.07 994.718 690.622 993.813 689.392C992.908 688.161 991.786 687.22 990.446 686.568C989.143 685.917 987.696 685.591 986.103 685.591C984.474 685.591 983.081 685.862 981.922 686.405C980.8 686.912 979.95 687.672 979.371 688.686C978.791 689.663 978.502 690.821 978.502 692.16C978.502 693.464 978.773 694.549 979.316 695.418C979.859 696.287 980.619 697.011 981.597 697.59C982.574 698.169 983.678 698.658 984.908 699.056C986.139 699.454 987.46 699.852 988.872 700.25C990.356 700.685 991.804 701.173 993.215 701.716C994.663 702.223 995.966 702.893 997.125 703.725C998.319 704.558 999.26 705.625 999.948 706.928C1000.64 708.231 1000.98 709.824 1000.98 711.706C1000.98 714.059 1000.38 716.068 999.188 717.733C998.029 719.398 996.491 720.665 994.573 721.533C992.691 722.402 990.609 722.836 988.329 722.836C986.157 722.836 984.148 722.511 982.302 721.859C980.456 721.171 978.864 720.14 977.525 718.764C976.221 717.389 975.262 715.597 974.647 713.389L976.439 714.801L975.841 722.293H973.235V710.457H975.787C976.402 712.593 977.253 714.421 978.339 715.941C979.461 717.425 980.836 718.547 982.465 719.307C984.094 720.031 985.976 720.393 988.112 720.393ZM1011.41 708.557C1011.41 710.512 1011.64 712.231 1012.11 713.715C1012.58 715.199 1013.25 716.466 1014.12 717.516C1014.99 718.529 1016 719.307 1017.16 719.85C1018.36 720.357 1019.66 720.61 1021.07 720.61C1022.56 720.61 1023.84 720.357 1024.93 719.85C1026.05 719.307 1027.01 718.601 1027.8 717.733C1028.6 716.864 1029.27 715.941 1029.81 714.964L1031.66 716.538C1031.01 717.805 1030.14 718.927 1029.05 719.905C1028 720.846 1026.79 721.57 1025.42 722.076C1024.04 722.583 1022.48 722.836 1020.75 722.836C1018.14 722.836 1015.75 722.257 1013.58 721.099C1011.41 719.905 1009.69 718.24 1008.42 716.104C1007.15 713.932 1006.52 711.38 1006.52 708.449C1006.52 705.553 1007.1 703.019 1008.26 700.847C1009.45 698.64 1011.06 696.92 1013.09 695.69C1015.12 694.459 1017.38 693.844 1019.88 693.844C1021.76 693.844 1023.44 694.151 1024.93 694.767C1026.41 695.382 1027.66 696.305 1028.67 697.536C1029.72 698.73 1030.52 700.232 1031.06 702.042C1031.6 703.852 1031.88 705.951 1031.88 708.34H1010.1V706.168H1028.46L1026.94 706.983C1026.9 705.173 1026.74 703.598 1026.45 702.259C1026.16 700.884 1025.7 699.744 1025.09 698.839C1024.51 697.898 1023.79 697.192 1022.92 696.721C1022.05 696.251 1021.04 696.015 1019.88 696.015C1018.65 696.015 1017.51 696.305 1016.46 696.884C1015.44 697.463 1014.56 698.296 1013.8 699.382C1013.04 700.467 1012.44 701.789 1012 703.345C1011.61 704.901 1011.41 706.639 1011.41 708.557ZM1054.51 694.006V698.676C1054.3 698.603 1054.01 698.549 1053.65 698.513C1053.32 698.44 1052.96 698.386 1052.56 698.35C1052.2 698.278 1051.82 698.241 1051.42 698.241C1050.51 698.241 1049.72 698.368 1049.03 698.621C1048.34 698.875 1047.73 699.273 1047.18 699.816C1046.64 700.323 1046.13 700.974 1045.66 701.77C1045.23 702.567 1044.78 703.526 1044.31 704.648L1043.93 702.205C1044.61 700.504 1045.37 699.038 1046.21 697.807C1047.08 696.54 1048.05 695.563 1049.14 694.875C1050.22 694.187 1051.42 693.844 1052.72 693.844C1053.12 693.844 1053.46 693.862 1053.75 693.898C1054.08 693.898 1054.33 693.934 1054.51 694.006ZM1035.73 722.293V720.393H1035.78C1037.01 720.393 1038.04 720.266 1038.88 720.013C1039.71 719.76 1040.13 719.235 1040.13 718.439V698.839C1040.13 698.296 1039.98 697.898 1039.69 697.644C1039.4 697.355 1038.97 697.119 1038.39 696.938C1037.85 696.757 1037.14 696.576 1036.27 696.395L1035.73 696.287V694.387H1044.52V702.042L1044.96 701.553V719.362C1044.96 719.615 1045.16 719.814 1045.56 719.959C1045.99 720.104 1046.53 720.212 1047.18 720.285C1047.87 720.357 1048.54 720.393 1049.19 720.393H1050.28V722.293H1035.73ZM1064.52 687.871C1063.57 687.871 1062.78 687.582 1062.13 687.003C1061.48 686.387 1061.15 685.573 1061.15 684.559C1061.15 683.546 1061.48 682.75 1062.13 682.17C1062.78 681.591 1063.57 681.302 1064.52 681.302C1065.46 681.302 1066.24 681.591 1066.85 682.17C1067.5 682.75 1067.83 683.546 1067.83 684.559C1067.83 685.573 1067.5 686.387 1066.85 687.003C1066.24 687.582 1065.46 687.871 1064.52 687.871ZM1067.07 694.387V718.439C1067.07 719.235 1067.47 719.76 1068.26 720.013C1069.06 720.266 1070.07 720.393 1071.3 720.393H1071.41V722.293H1057.84V720.393H1057.95C1059.18 720.393 1060.19 720.266 1060.99 720.013C1061.82 719.76 1062.24 719.235 1062.24 718.439V698.839C1062.24 698.042 1061.91 697.499 1061.26 697.21C1060.64 696.92 1059.7 696.649 1058.44 696.395L1057.84 696.287V694.387H1067.07ZM1074.38 694.387H1092.19V696.558H1074.38V694.387ZM1093.87 681.736V684.234C1093.43 684.089 1092.89 683.944 1092.24 683.799C1091.62 683.618 1090.88 683.528 1090.01 683.528C1088.82 683.528 1087.81 683.763 1086.97 684.234C1086.18 684.704 1085.58 685.482 1085.18 686.568C1084.82 687.618 1084.64 689.066 1084.64 690.912V719.362C1084.64 719.615 1084.86 719.832 1085.29 720.013C1085.76 720.158 1086.39 720.266 1087.19 720.339C1088.02 720.375 1088.93 720.393 1089.9 720.393H1090.39V722.293H1074.43V720.393H1074.87C1076.39 720.393 1077.58 720.266 1078.45 720.013C1079.35 719.76 1079.81 719.235 1079.81 718.439V690.912C1079.81 688.668 1080.24 686.84 1081.11 685.428C1081.98 684.016 1083.17 682.967 1084.69 682.279C1086.25 681.591 1088 681.247 1089.96 681.247C1090.79 681.247 1091.55 681.302 1092.24 681.41C1092.96 681.483 1093.51 681.591 1093.87 681.736ZM773.101 831.565C772.63 831.565 772.25 831.511 771.961 831.402C771.671 831.33 771.526 831.185 771.526 830.968C771.526 830.533 772.124 830.208 773.318 829.99C774.694 829.737 775.707 829.321 776.359 828.742C777.01 828.163 777.336 827.221 777.336 825.918V801.486C777.336 800.183 777.064 799.26 776.521 798.717C776.015 798.174 775.074 797.776 773.698 797.523C773.083 797.414 772.63 797.269 772.341 797.088C772.051 796.907 771.906 796.69 771.906 796.437C771.906 796.22 772.051 796.075 772.341 796.003C772.63 795.894 773.01 795.84 773.481 795.84C774.856 795.84 776.015 795.858 776.956 795.894C777.933 795.93 778.874 795.966 779.779 796.003C780.72 796.003 781.824 796.003 783.091 796.003C784.285 796.003 785.534 796.003 786.837 796.003C788.176 795.966 789.407 795.948 790.529 795.948C791.76 795.912 792.791 795.894 793.624 795.894C794.493 795.858 794.999 795.84 795.144 795.84C795.325 795.84 795.524 795.876 795.741 795.948C795.959 796.021 796.085 796.147 796.121 796.328C796.302 797.342 796.483 798.355 796.664 799.369C796.845 800.346 796.936 801.197 796.936 801.921C796.936 802.246 796.845 802.464 796.664 802.572C796.52 802.681 796.357 802.735 796.176 802.735C795.995 802.735 795.868 802.699 795.796 802.626C795.723 802.518 795.651 802.373 795.579 802.192C795.398 801.577 795.217 800.998 795.036 800.455C794.855 799.876 794.637 799.459 794.384 799.206C793.877 798.627 793.316 798.247 792.701 798.066C792.086 797.849 791.434 797.74 790.746 797.74H783.634C783.344 797.74 782.946 797.903 782.439 798.229C781.933 798.554 781.679 798.971 781.679 799.477V810.988C781.679 811.313 781.77 811.603 781.951 811.856C782.168 812.074 782.403 812.182 782.657 812.182H788.032C789.081 812.182 789.805 812.001 790.203 811.639C790.602 811.241 790.927 810.535 791.181 809.522C791.398 808.725 791.724 808.327 792.158 808.327C792.303 808.327 792.448 808.4 792.592 808.544C792.773 808.689 792.864 808.906 792.864 809.196C792.864 809.341 792.846 809.666 792.81 810.173C792.81 810.68 792.791 811.205 792.755 811.748C792.719 812.291 792.701 812.707 792.701 812.997C792.701 813.358 792.701 813.847 792.701 814.462C792.737 815.042 792.755 815.603 792.755 816.146C792.791 816.688 792.81 817.032 792.81 817.177C792.81 817.43 792.773 817.648 792.701 817.829C792.665 818.01 792.538 818.1 792.321 818.1C791.778 818.1 791.362 817.521 791.072 816.363C790.855 815.53 790.565 814.915 790.203 814.517C789.841 814.119 789.299 813.919 788.575 813.919H783.525C782.91 813.919 782.439 814.01 782.114 814.191C781.824 814.336 781.679 814.716 781.679 815.331V825.756C781.679 827.131 781.969 828.09 782.548 828.633C783.127 829.14 784.032 829.393 785.263 829.393H789.28C790.439 829.393 791.398 829.339 792.158 829.23C792.954 829.086 793.642 828.832 794.221 828.47C794.8 828.072 795.307 827.547 795.741 826.896C796.212 826.244 796.737 825.375 797.316 824.29C797.425 824.072 797.551 823.891 797.696 823.747C797.841 823.602 798.004 823.548 798.185 823.584C798.366 823.62 798.51 823.71 798.619 823.855C798.728 823.964 798.782 824.127 798.782 824.344C798.782 824.67 798.691 825.249 798.51 826.081C798.329 826.878 798.094 827.71 797.805 828.579C797.551 829.447 797.316 830.135 797.099 830.642C796.99 830.895 796.882 831.112 796.773 831.293C796.701 831.474 796.556 831.565 796.339 831.565C794.601 831.565 792.991 831.547 791.506 831.511C790.022 831.474 788.611 831.438 787.272 831.402C785.932 831.366 784.611 831.33 783.308 831.293C782.041 831.257 780.72 831.239 779.345 831.239C778.548 831.239 777.861 831.257 777.282 831.293C776.702 831.366 776.105 831.42 775.49 831.456C774.875 831.529 774.078 831.565 773.101 831.565ZM814.226 832.054C813.43 832.054 812.633 831.981 811.837 831.836C811.041 831.692 810.28 831.529 809.557 831.348C808.76 831.131 808.054 830.931 807.439 830.751C806.86 830.57 806.48 830.479 806.299 830.479C806.082 830.479 805.865 830.551 805.647 830.696C805.466 830.841 805.285 831.004 805.105 831.185C804.924 831.366 804.761 831.456 804.616 831.456C804.471 831.456 804.308 831.402 804.127 831.293C803.946 831.149 803.856 830.986 803.856 830.805C803.856 830.479 803.91 829.918 804.019 829.122C804.163 828.325 804.236 827.583 804.236 826.896V800.563C804.236 799.622 804.001 798.808 803.53 798.12C803.059 797.432 802.462 796.926 801.738 796.6C801.594 796.527 801.431 796.437 801.25 796.328C801.105 796.184 801.032 796.003 801.032 795.785C801.032 795.604 801.105 795.478 801.25 795.405C801.394 795.333 801.539 795.279 801.684 795.242C802.155 795.134 802.788 794.935 803.584 794.645C804.417 794.356 805.195 794.066 805.919 793.777C806.643 793.487 807.131 793.288 807.385 793.179C807.602 793.071 807.765 793.016 807.873 793.016C807.946 793.016 808.018 793.053 808.091 793.125C808.163 793.197 808.199 793.288 808.199 793.397C808.199 793.541 808.163 794.157 808.091 795.242C808.054 796.292 808.036 797.577 808.036 799.097V810.228C808.036 810.915 808.073 811.386 808.145 811.639C808.217 811.856 808.344 811.983 808.525 812.019C809.647 811.078 810.95 810.318 812.434 809.739C813.918 809.124 815.257 808.816 816.452 808.816C818.298 808.816 819.945 809.286 821.393 810.228C822.877 811.169 824.053 812.454 824.922 814.082C825.79 815.675 826.225 817.485 826.225 819.512C826.225 821.973 825.718 824.163 824.705 826.081C823.691 827.963 822.279 829.429 820.47 830.479C818.696 831.529 816.615 832.054 814.226 832.054ZM815.475 830.37C816.85 830.37 818.026 829.954 819.004 829.122C820.017 828.253 820.795 827.095 821.338 825.647C821.881 824.163 822.153 822.516 822.153 820.706C822.153 819.295 821.881 817.847 821.338 816.363C820.832 814.879 820.017 813.63 818.895 812.616C817.809 811.603 816.398 811.096 814.66 811.096C813.212 811.096 811.946 811.331 810.86 811.802C809.774 812.273 808.833 812.87 808.036 813.594V824.127C808.036 825.394 808.38 826.498 809.068 827.439C809.792 828.38 810.715 829.104 811.837 829.61C812.995 830.117 814.208 830.37 815.475 830.37ZM860.258 832.054C857.761 832.054 855.372 831.619 853.092 830.751C850.847 829.846 848.839 828.597 847.065 827.004C845.328 825.412 843.952 823.548 842.939 821.412C841.925 819.24 841.418 816.906 841.418 814.408C841.418 811.73 841.943 809.232 842.993 806.916C844.043 804.599 845.49 802.572 847.336 800.835C849.182 799.097 851.3 797.74 853.689 796.763C856.114 795.785 858.684 795.297 861.399 795.297C862.014 795.297 862.846 795.369 863.896 795.514C864.982 795.623 866.086 795.767 867.208 795.948C868.366 796.129 869.398 796.328 870.303 796.546C871.244 796.727 871.895 796.907 872.257 797.088C872.438 797.161 872.547 797.251 872.583 797.36C872.655 797.432 872.71 797.559 872.746 797.74C872.891 798.79 873.017 799.839 873.126 800.889C873.235 801.903 873.289 802.771 873.289 803.495C873.289 803.748 873.198 804.002 873.017 804.255C872.873 804.472 872.692 804.581 872.474 804.581C872.112 804.581 871.841 804.418 871.66 804.092C871.479 803.767 871.334 803.441 871.226 803.115C871.008 802.536 870.773 802.047 870.52 801.649C870.303 801.215 869.977 800.744 869.543 800.237C869.325 799.948 868.855 799.586 868.131 799.152C867.443 798.681 866.502 798.265 865.308 797.903C864.113 797.541 862.647 797.36 860.91 797.36C858.811 797.36 856.892 797.812 855.155 798.717C853.417 799.586 851.915 800.799 850.648 802.355C849.418 803.875 848.459 805.613 847.771 807.567C847.119 809.522 846.794 811.567 846.794 813.702C846.794 816.272 847.192 818.571 847.988 820.598C848.784 822.625 849.852 824.344 851.191 825.756C852.531 827.167 854.051 828.235 855.752 828.959C857.453 829.683 859.209 830.045 861.018 830.045C863.118 830.045 864.656 829.791 865.633 829.285C866.647 828.778 867.317 828.362 867.642 828.036C868.04 827.638 868.402 827.077 868.728 826.353C869.09 825.629 869.271 824.796 869.271 823.855C869.271 823.529 869.271 823.186 869.271 822.824C869.307 822.462 869.325 822.1 869.325 821.738C869.362 821.376 869.38 821.032 869.38 820.706C869.38 820.308 869.362 819.982 869.325 819.729C869.289 819.439 869.217 819.222 869.108 819.077C868.819 818.679 868.312 818.353 867.588 818.1C866.864 817.847 866.14 817.666 865.416 817.557C864.692 817.449 864.149 817.394 863.787 817.394C863.643 817.394 863.425 817.304 863.136 817.123C862.846 816.942 862.702 816.725 862.702 816.471C862.702 816.182 862.846 815.965 863.136 815.82C863.425 815.639 863.643 815.548 863.787 815.548C864.692 815.548 865.471 815.566 866.122 815.603C866.774 815.639 867.443 815.675 868.131 815.711C868.819 815.747 869.651 815.765 870.628 815.765C871.57 815.765 872.366 815.729 873.017 815.657C873.669 815.584 874.483 815.548 875.461 815.548C875.605 815.548 875.823 815.603 876.112 815.711C876.438 815.82 876.601 816.055 876.601 816.417C876.601 816.67 876.438 816.888 876.112 817.069C875.823 817.25 875.605 817.358 875.461 817.394C874.664 817.611 874.103 817.937 873.777 818.372C873.488 818.77 873.289 819.331 873.18 820.055C873.072 820.851 872.999 821.557 872.963 822.172C872.927 822.787 872.909 823.439 872.909 824.127V825.593C872.909 825.774 872.945 825.918 873.017 826.027C873.09 826.136 873.162 826.28 873.235 826.461C873.343 826.642 873.488 826.805 873.669 826.95C873.85 827.095 873.94 827.24 873.94 827.384C873.94 827.529 873.904 827.728 873.832 827.982C873.796 828.199 873.578 828.344 873.18 828.416C872.927 828.452 872.42 828.669 871.66 829.067C870.936 829.429 870.013 829.846 868.891 830.316C867.769 830.787 866.484 831.185 865.036 831.511C863.588 831.873 861.996 832.054 860.258 832.054ZM884.881 832.054C884.23 832.054 883.56 831.8 882.872 831.293C882.221 830.787 881.66 830.171 881.189 829.447C880.755 828.724 880.538 828.036 880.538 827.384C880.538 826.226 880.846 825.321 881.461 824.67C882.076 824.018 883.053 823.421 884.393 822.878L889.931 820.598C890.655 820.308 891.071 820.055 891.179 819.838C891.324 819.62 891.415 819.15 891.451 818.426L891.559 814.951C891.596 814.01 891.324 813.196 890.745 812.508C890.202 811.82 889.406 811.476 888.356 811.476C887.813 811.476 887.27 811.567 886.727 811.748C886.184 811.929 885.732 812.164 885.37 812.454C885.153 812.598 885.008 812.816 884.936 813.105C884.863 813.395 884.827 813.702 884.827 814.028C884.827 814.173 884.827 814.336 884.827 814.517C884.863 814.698 884.881 814.861 884.881 815.005C884.881 815.186 884.646 815.44 884.176 815.765C883.741 816.055 883.234 816.327 882.655 816.58C882.112 816.797 881.66 816.906 881.298 816.906C881.117 816.906 880.972 816.869 880.864 816.797C880.755 816.688 880.701 816.562 880.701 816.417C880.701 815.838 880.882 815.223 881.244 814.571C881.642 813.883 882.185 813.25 882.872 812.671C883.705 811.911 884.61 811.241 885.587 810.662C886.564 810.083 887.524 809.63 888.465 809.305C889.406 808.979 890.238 808.816 890.962 808.816C892.265 808.816 893.333 809.286 894.166 810.228C895.034 811.132 895.451 812.273 895.414 813.648L895.143 826.678C895.107 827.439 895.27 828.054 895.632 828.524C896.03 828.995 896.518 829.23 897.097 829.23C898.002 829.23 898.672 829.031 899.106 828.633C899.287 828.452 899.432 828.362 899.541 828.362C899.722 828.362 899.866 828.416 899.975 828.524C900.084 828.633 900.138 828.778 900.138 828.959C900.138 829.357 899.939 829.755 899.541 830.153C898.962 830.732 898.328 831.185 897.64 831.511C896.989 831.873 896.374 832.054 895.794 832.054C894.129 832.054 892.808 831.112 891.831 829.23H891.668C890.474 830.208 889.333 830.913 888.248 831.348C887.162 831.818 886.04 832.054 884.881 832.054ZM887.433 829.447C888.157 829.447 888.772 829.339 889.279 829.122C889.786 828.868 890.238 828.543 890.636 828.144C890.817 827.963 890.962 827.728 891.071 827.439C891.216 827.113 891.306 826.606 891.342 825.918L891.451 823.258C891.487 822.86 891.469 822.57 891.397 822.389C891.324 822.208 891.179 822.118 890.962 822.118C890.89 822.118 890.763 822.136 890.582 822.172C890.401 822.208 890.166 822.281 889.876 822.389C887.958 823.077 886.619 823.801 885.859 824.561C885.135 825.285 884.773 825.955 884.773 826.57C884.773 827.511 885.044 828.235 885.587 828.742C886.166 829.212 886.782 829.447 887.433 829.447ZM902.875 831.456C902.513 831.456 902.242 831.402 902.061 831.293C901.88 831.221 901.789 831.076 901.789 830.859C901.789 830.57 901.898 830.389 902.115 830.316C902.332 830.208 902.64 830.099 903.038 829.99C903.726 829.809 904.232 829.556 904.558 829.23C904.92 828.868 905.101 828.434 905.101 827.927V816.254C905.101 815.277 904.956 814.426 904.667 813.702C904.377 812.978 903.78 812.526 902.875 812.345C902.73 812.309 902.604 812.218 902.495 812.074C902.386 811.929 902.332 811.784 902.332 811.639C902.332 811.277 902.495 811.06 902.821 810.988C903.762 810.698 904.739 810.282 905.753 809.739C906.802 809.16 907.617 808.689 908.196 808.327C908.413 808.182 908.576 808.092 908.684 808.056C908.829 807.983 908.938 807.947 909.01 807.947C909.191 807.947 909.282 808.074 909.282 808.327C909.282 808.436 909.264 808.707 909.227 809.142C909.227 809.576 909.209 810.083 909.173 810.662C909.173 811.241 909.155 811.82 909.119 812.399C909.119 812.472 909.155 812.508 909.227 812.508C909.807 811.784 910.44 811.151 911.128 810.608C911.852 810.065 912.575 809.63 913.299 809.305C914.06 808.979 914.783 808.816 915.471 808.816C916.231 808.816 916.847 808.979 917.317 809.305C917.824 809.63 918.077 810.047 918.077 810.553C918.077 810.915 917.969 811.313 917.751 811.748C917.571 812.182 917.317 812.562 916.991 812.888C916.666 813.214 916.322 813.377 915.96 813.377C915.743 813.377 915.507 813.34 915.254 813.268C915.001 813.159 914.729 813.033 914.44 812.888C914.15 812.779 913.86 812.671 913.571 812.562C913.281 812.454 912.992 812.399 912.702 812.399C911.833 812.399 910.983 812.707 910.15 813.322C909.354 813.938 908.956 815.15 908.956 816.96V827.927C908.956 828.398 909.209 828.796 909.716 829.122C910.223 829.411 910.929 829.701 911.833 829.99C912.232 830.099 912.539 830.208 912.756 830.316C912.974 830.425 913.082 830.606 913.082 830.859C913.082 831.257 912.72 831.456 911.996 831.456C910.91 831.456 910.078 831.402 909.499 831.293C908.956 831.221 908.214 831.185 907.273 831.185C906.657 831.185 906.151 831.203 905.753 831.239C905.391 831.275 904.992 831.312 904.558 831.348C904.16 831.42 903.599 831.456 902.875 831.456ZM924.7 832.054C924.049 832.054 923.379 831.8 922.691 831.293C922.04 830.787 921.479 830.171 921.008 829.447C920.574 828.724 920.357 828.036 920.357 827.384C920.357 826.226 920.664 825.321 921.28 824.67C921.895 824.018 922.872 823.421 924.212 822.878L929.75 820.598C930.473 820.308 930.89 820.055 930.998 819.838C931.143 819.62 931.234 819.15 931.27 818.426L931.378 814.951C931.415 814.01 931.143 813.196 930.564 812.508C930.021 811.82 929.225 811.476 928.175 811.476C927.632 811.476 927.089 811.567 926.546 811.748C926.003 811.929 925.551 812.164 925.189 812.454C924.972 812.598 924.827 812.816 924.755 813.105C924.682 813.395 924.646 813.702 924.646 814.028C924.646 814.173 924.646 814.336 924.646 814.517C924.682 814.698 924.7 814.861 924.7 815.005C924.7 815.186 924.465 815.44 923.994 815.765C923.56 816.055 923.053 816.327 922.474 816.58C921.931 816.797 921.479 816.906 921.117 816.906C920.936 816.906 920.791 816.869 920.682 816.797C920.574 816.688 920.52 816.562 920.52 816.417C920.52 815.838 920.701 815.223 921.063 814.571C921.461 813.883 922.004 813.25 922.691 812.671C923.524 811.911 924.429 811.241 925.406 810.662C926.383 810.083 927.343 809.63 928.284 809.305C929.225 808.979 930.057 808.816 930.781 808.816C932.084 808.816 933.152 809.286 933.984 810.228C934.853 811.132 935.269 812.273 935.233 813.648L934.962 826.678C934.926 827.439 935.088 828.054 935.45 828.524C935.849 828.995 936.337 829.23 936.916 829.23C937.821 829.23 938.491 829.031 938.925 828.633C939.106 828.452 939.251 828.362 939.36 828.362C939.54 828.362 939.685 828.416 939.794 828.524C939.902 828.633 939.957 828.778 939.957 828.959C939.957 829.357 939.758 829.755 939.36 830.153C938.78 830.732 938.147 831.185 937.459 831.511C936.808 831.873 936.192 832.054 935.613 832.054C933.948 832.054 932.627 831.112 931.65 829.23H931.487C930.292 830.208 929.152 830.913 928.066 831.348C926.981 831.818 925.858 832.054 924.7 832.054ZM927.252 829.447C927.976 829.447 928.591 829.339 929.098 829.122C929.605 828.868 930.057 828.543 930.455 828.144C930.636 827.963 930.781 827.728 930.89 827.439C931.034 827.113 931.125 826.606 931.161 825.918L931.27 823.258C931.306 822.86 931.288 822.57 931.215 822.389C931.143 822.208 930.998 822.118 930.781 822.118C930.709 822.118 930.582 822.136 930.401 822.172C930.22 822.208 929.985 822.281 929.695 822.389C927.777 823.077 926.438 823.801 925.678 824.561C924.954 825.285 924.592 825.955 924.592 826.57C924.592 827.511 924.863 828.235 925.406 828.742C925.985 829.212 926.601 829.447 927.252 829.447ZM942.422 831.456C942.133 831.456 941.879 831.42 941.662 831.348C941.445 831.275 941.337 831.112 941.337 830.859C941.337 830.606 941.445 830.425 941.662 830.316C941.916 830.208 942.223 830.099 942.585 829.99C943.092 829.809 943.599 829.61 944.106 829.393C944.648 829.14 944.92 828.651 944.92 827.927V816.254C944.92 815.277 944.811 814.426 944.594 813.702C944.377 812.942 943.798 812.49 942.857 812.345C942.712 812.309 942.585 812.236 942.477 812.128C942.404 812.019 942.368 811.856 942.368 811.639C942.368 811.277 942.513 811.06 942.802 810.988C943.78 810.734 944.558 810.481 945.137 810.228C945.716 809.938 946.223 809.63 946.657 809.305C947.128 808.943 947.689 808.563 948.34 808.164C948.413 808.128 948.485 808.092 948.558 808.056C948.63 807.983 948.72 807.947 948.829 807.947C949.046 807.947 949.155 808.074 949.155 808.327C949.155 808.581 949.101 809.105 948.992 809.902C948.92 810.662 948.883 811.295 948.883 811.802C948.883 812.164 948.92 812.381 948.992 812.454H949.101C949.933 811.657 951.019 810.861 952.358 810.065C953.734 809.232 955.471 808.816 957.57 808.816C958.873 808.816 959.959 809.105 960.828 809.685C961.697 810.228 962.421 811.187 963 812.562H963.163C964.321 811.512 965.642 810.626 967.126 809.902C968.61 809.178 970.239 808.816 972.012 808.816C973.207 808.816 974.202 809.178 974.999 809.902C975.795 810.626 976.392 811.567 976.79 812.725C977.225 813.883 977.442 815.096 977.442 816.363V827.927C977.442 828.651 977.695 829.14 978.202 829.393C978.709 829.61 979.234 829.809 979.776 829.99C980.138 830.099 980.428 830.208 980.645 830.316C980.899 830.425 981.025 830.606 981.025 830.859C981.025 831.076 980.935 831.221 980.754 831.293C980.609 831.402 980.337 831.456 979.939 831.456C979.215 831.456 978.654 831.42 978.256 831.348C977.858 831.312 977.478 831.275 977.116 831.239C976.79 831.203 976.302 831.185 975.65 831.185C975.035 831.185 974.528 831.203 974.13 831.239C973.732 831.275 973.316 831.312 972.881 831.348C972.447 831.42 971.868 831.456 971.144 831.456C970.818 831.456 970.547 831.402 970.329 831.293C970.148 831.221 970.058 831.076 970.058 830.859C970.058 830.57 970.166 830.37 970.384 830.262C970.637 830.153 970.945 830.063 971.307 829.99C971.886 829.846 972.411 829.647 972.881 829.393C973.388 829.14 973.641 828.651 973.641 827.927V816.526C973.641 815.657 973.442 814.842 973.044 814.082C972.646 813.286 972.121 812.635 971.47 812.128C970.818 811.621 970.094 811.368 969.298 811.368C968.393 811.368 967.542 811.476 966.746 811.693C965.986 811.911 965.262 812.291 964.574 812.834C963.561 813.63 963.054 814.933 963.054 816.743V827.927C963.054 828.651 963.325 829.14 963.868 829.393C964.411 829.647 964.954 829.846 965.497 829.99C965.859 830.063 966.149 830.171 966.366 830.316C966.619 830.425 966.746 830.606 966.746 830.859C966.746 831.076 966.655 831.221 966.475 831.293C966.294 831.402 966.022 831.456 965.66 831.456C964.936 831.456 964.357 831.42 963.923 831.348C963.525 831.312 963.126 831.275 962.728 831.239C962.366 831.203 961.86 831.185 961.208 831.185C960.593 831.185 960.086 831.203 959.688 831.239C959.29 831.275 958.873 831.312 958.439 831.348C958.005 831.42 957.426 831.456 956.702 831.456C956.412 831.456 956.159 831.402 955.942 831.293C955.724 831.221 955.616 831.076 955.616 830.859C955.616 830.57 955.742 830.389 955.996 830.316C956.285 830.208 956.575 830.099 956.865 829.99C957.407 829.809 957.932 829.61 958.439 829.393C958.982 829.14 959.253 828.651 959.253 827.927V816.526C959.253 815.657 959.054 814.842 958.656 814.082C958.258 813.286 957.733 812.635 957.082 812.128C956.43 811.621 955.706 811.368 954.91 811.368C954.005 811.368 953.154 811.476 952.358 811.693C951.598 811.911 950.874 812.291 950.186 812.834C949.209 813.558 948.72 814.861 948.72 816.743V827.927C948.72 828.651 948.974 829.14 949.481 829.393C949.987 829.61 950.512 829.809 951.055 829.99C951.345 830.099 951.616 830.208 951.87 830.316C952.159 830.389 952.304 830.57 952.304 830.859C952.304 831.076 952.195 831.221 951.978 831.293C951.797 831.402 951.544 831.456 951.218 831.456C950.494 831.456 949.915 831.42 949.481 831.348C949.082 831.312 948.702 831.275 948.34 831.239C947.978 831.203 947.472 831.185 946.82 831.185C946.205 831.185 945.698 831.203 945.3 831.239C944.938 831.275 944.54 831.312 944.106 831.348C943.707 831.42 943.146 831.456 942.422 831.456ZM994.996 832.054C992.969 832.054 991.141 831.583 989.512 830.642C987.884 829.701 986.581 828.416 985.603 826.787C984.662 825.122 984.192 823.24 984.192 821.141C984.192 819.62 984.481 818.136 985.06 816.688C985.676 815.241 986.526 813.919 987.612 812.725C988.698 811.531 989.965 810.589 991.413 809.902C992.86 809.178 994.417 808.816 996.082 808.816C998.181 808.816 1000.06 809.323 1001.73 810.336C1003.43 811.35 1004.77 812.689 1005.75 814.354C1006.76 815.983 1007.27 817.774 1007.27 819.729C1007.27 821.828 1006.8 823.819 1005.85 825.701C1004.95 827.583 1003.59 829.122 1001.78 830.316C999.973 831.474 997.711 832.054 994.996 832.054ZM996.136 830.425C997.367 830.425 998.471 830.189 999.448 829.719C1000.43 829.248 1001.19 828.488 1001.73 827.439C1002.16 826.606 1002.45 825.593 1002.6 824.398C1002.74 823.204 1002.81 822.082 1002.81 821.032C1002.81 819.295 1002.49 817.63 1001.84 816.037C1001.22 814.408 1000.33 813.087 999.177 812.074C998.055 811.024 996.715 810.499 995.159 810.499C994.182 810.499 993.295 810.662 992.499 810.988C991.738 811.277 991.033 811.838 990.381 812.671C989.657 813.576 989.187 814.68 988.969 815.983C988.752 817.286 988.644 818.589 988.644 819.892C988.644 821.665 988.969 823.367 989.621 824.995C990.273 826.588 991.159 827.891 992.281 828.905C993.403 829.918 994.688 830.425 996.136 830.425ZM1011.56 831.456C1011.24 831.456 1010.96 831.402 1010.75 831.293C1010.57 831.221 1010.48 831.076 1010.48 830.859C1010.48 830.57 1010.58 830.389 1010.8 830.316C1011.02 830.208 1011.33 830.099 1011.72 829.99C1012.27 829.846 1012.79 829.647 1013.3 829.393C1013.81 829.14 1014.06 828.651 1014.06 827.927V816.254C1014.06 815.277 1013.95 814.444 1013.73 813.757C1013.55 813.069 1012.99 812.598 1012.05 812.345C1011.91 812.273 1011.78 812.2 1011.67 812.128C1011.56 812.019 1011.51 811.856 1011.51 811.639C1011.51 811.241 1011.67 811.024 1012 810.988C1013.26 810.662 1014.29 810.264 1015.09 809.793C1015.89 809.323 1016.67 808.798 1017.43 808.219C1017.53 808.146 1017.62 808.092 1017.7 808.056C1017.81 807.983 1017.91 807.947 1018.02 807.947C1018.1 807.947 1018.15 807.983 1018.19 808.056C1018.26 808.128 1018.29 808.219 1018.29 808.327C1018.29 808.581 1018.24 809.105 1018.13 809.902C1018.06 810.662 1018.02 811.295 1018.02 811.802C1018.02 811.947 1018.02 812.092 1018.02 812.236C1018.06 812.345 1018.1 812.417 1018.13 812.454C1019.4 811.259 1020.74 810.354 1022.15 809.739C1023.6 809.124 1025.17 808.816 1026.87 808.816C1028.65 808.816 1030.11 809.54 1031.27 810.988C1032.43 812.435 1033.01 814.227 1033.01 816.363V827.927C1033.01 828.651 1033.26 829.14 1033.77 829.393C1034.27 829.61 1034.8 829.809 1035.34 829.99C1035.63 830.099 1035.9 830.226 1036.16 830.37C1036.45 830.479 1036.59 830.678 1036.59 830.968C1036.59 831.185 1036.46 831.312 1036.21 831.348C1035.96 831.42 1035.72 831.456 1035.51 831.456C1034.78 831.456 1034.22 831.42 1033.82 831.348C1033.42 831.312 1033.04 831.275 1032.68 831.239C1032.32 831.203 1031.81 831.185 1031.16 831.185C1030.55 831.185 1030.04 831.203 1029.64 831.239C1029.24 831.275 1028.83 831.312 1028.39 831.348C1027.99 831.42 1027.43 831.456 1026.71 831.456C1026.53 831.456 1026.29 831.42 1026 831.348C1025.75 831.312 1025.62 831.185 1025.62 830.968C1025.62 830.678 1025.75 830.479 1026 830.37C1026.29 830.226 1026.58 830.099 1026.87 829.99C1027.42 829.809 1027.94 829.61 1028.45 829.393C1028.95 829.14 1029.21 828.651 1029.21 827.927V816.526C1029.21 814.933 1028.75 813.702 1027.85 812.834C1026.98 811.929 1025.8 811.458 1024.32 811.422C1023.02 811.422 1021.88 811.639 1020.9 812.074C1019.92 812.472 1019.05 812.978 1018.29 813.594C1018.15 813.739 1018.04 813.938 1017.97 814.191C1017.9 814.408 1017.86 814.625 1017.86 814.842V827.927C1017.86 828.651 1018.11 829.14 1018.62 829.393C1019.13 829.647 1019.65 829.846 1020.19 829.99C1021.03 830.208 1021.44 830.497 1021.44 830.859C1021.44 831.076 1021.35 831.221 1021.17 831.293C1020.99 831.402 1020.72 831.456 1020.36 831.456C1019.63 831.456 1019.05 831.42 1018.62 831.348C1018.22 831.312 1017.84 831.275 1017.48 831.239C1017.12 831.203 1016.61 831.185 1015.96 831.185C1015.34 831.185 1014.84 831.203 1014.44 831.239C1014.08 831.275 1013.68 831.312 1013.25 831.348C1012.85 831.42 1012.29 831.456 1011.56 831.456ZM1057.24 832.325C1057.17 832.325 1057.04 832.253 1056.86 832.108C1056.72 831.963 1056.64 831.854 1056.64 831.782C1056.64 831.42 1056.68 830.913 1056.75 830.262C1056.86 829.574 1056.91 828.995 1056.91 828.524V828.199C1056.37 829.031 1055.5 829.882 1054.31 830.751C1053.11 831.619 1051.61 832.054 1049.8 832.054C1047.74 832.054 1045.95 831.511 1044.43 830.425C1042.94 829.339 1041.78 827.945 1040.95 826.244C1040.16 824.543 1039.76 822.787 1039.76 820.978C1039.76 818.878 1040.25 816.906 1041.22 815.06C1042.2 813.214 1043.59 811.712 1045.4 810.553C1047.25 809.395 1049.44 808.816 1051.97 808.816C1052.7 808.816 1053.42 808.888 1054.15 809.033C1054.91 809.142 1055.48 809.268 1055.88 809.413C1056.21 809.522 1056.44 809.576 1056.59 809.576C1056.84 809.576 1056.97 809.142 1056.97 808.273V800.563C1056.97 799.079 1056.73 798.084 1056.26 797.577C1055.79 797.07 1055.12 796.745 1054.25 796.6C1053.93 796.527 1053.77 796.292 1053.77 795.894C1053.77 795.568 1053.91 795.351 1054.2 795.242C1055.79 794.844 1057.04 794.464 1057.95 794.102C1058.85 793.74 1059.56 793.451 1060.06 793.234C1060.21 793.161 1060.34 793.125 1060.44 793.125C1060.59 793.089 1060.7 793.071 1060.77 793.071C1060.99 793.071 1061.11 793.179 1061.15 793.397C1061.15 793.614 1061.11 793.994 1061.04 794.537C1061 795.043 1060.95 795.804 1060.88 796.817C1060.81 797.83 1060.77 799.152 1060.77 800.78V825.321C1060.77 826.552 1060.86 827.457 1061.04 828.036C1061.22 828.579 1061.51 828.85 1061.91 828.85C1062.09 828.85 1062.4 828.832 1062.83 828.796C1063.3 828.76 1063.77 828.724 1064.24 828.687C1064.9 828.651 1065.22 828.814 1065.22 829.176C1065.22 829.429 1065.13 829.665 1064.95 829.882C1064.81 830.063 1064.64 830.153 1064.46 830.153C1063.45 830.298 1062.45 830.515 1061.48 830.805C1060.5 831.058 1059.38 831.456 1058.11 831.999C1057.82 832.144 1057.62 832.235 1057.51 832.271C1057.44 832.307 1057.35 832.325 1057.24 832.325ZM1051.76 829.23C1052.7 829.23 1053.62 828.995 1054.53 828.524C1055.43 828.018 1056.23 827.366 1056.91 826.57L1056.97 816.797C1056.97 815.82 1056.68 814.861 1056.1 813.919C1055.56 812.978 1054.78 812.218 1053.77 811.639C1052.79 811.024 1051.63 810.716 1050.29 810.716C1049.46 810.716 1048.52 810.97 1047.47 811.476C1046.42 811.983 1045.51 812.888 1044.75 814.191C1043.99 815.458 1043.61 817.304 1043.61 819.729C1043.61 821.792 1043.92 823.457 1044.54 824.724C1045.15 825.955 1045.89 826.896 1046.76 827.547C1047.67 828.199 1048.57 828.651 1049.48 828.905C1050.42 829.122 1051.18 829.23 1051.76 829.23ZM798.308 940.293V901.694H793.351L793.271 930.485L778.293 901.694H773.309V940.293H778.266L778.346 911.45L793.324 940.293H798.308ZM805.36 925.686V926.269C805.36 928.337 805.66 930.255 806.261 932.022C806.862 933.79 807.728 935.327 808.859 936.635C809.973 937.943 811.334 938.968 812.942 939.71C814.568 940.453 816.397 940.824 818.43 940.824C820.444 940.824 822.256 940.453 823.864 939.71C825.473 938.968 826.842 937.943 827.973 936.635C829.087 935.327 829.944 933.79 830.545 932.022C831.146 930.255 831.446 928.337 831.446 926.269V925.686C831.446 923.618 831.146 921.701 830.545 919.933C829.944 918.148 829.087 916.602 827.973 915.294C826.842 913.986 825.464 912.961 823.838 912.219C822.229 911.459 820.409 911.079 818.377 911.079C816.362 911.079 814.55 911.459 812.942 912.219C811.334 912.961 809.973 913.986 808.859 915.294C807.728 916.602 806.862 918.148 806.261 919.933C805.66 921.701 805.36 923.618 805.36 925.686ZM810.264 926.269V925.686C810.264 924.29 810.432 922.956 810.768 921.683C811.104 920.393 811.616 919.262 812.306 918.29C812.977 917.318 813.817 916.549 814.824 915.983C815.832 915.4 817.016 915.108 818.377 915.108C819.737 915.108 820.922 915.4 821.929 915.983C822.954 916.549 823.811 917.318 824.5 918.29C825.172 919.262 825.676 920.393 826.012 921.683C826.365 922.956 826.542 924.29 826.542 925.686V926.269C826.542 927.683 826.374 929.035 826.038 930.325C825.702 931.598 825.199 932.72 824.527 933.692C823.838 934.664 822.981 935.433 821.955 935.999C820.948 936.564 819.773 936.847 818.43 936.847C817.069 936.847 815.876 936.564 814.851 935.999C813.826 935.433 812.977 934.664 812.306 933.692C811.616 932.72 811.104 931.598 810.768 930.325C810.432 929.035 810.264 927.683 810.264 926.269ZM850.958 904.663H846.027V911.609H838.498V915.4H846.027V930.988C846.027 932.756 846.257 934.267 846.716 935.522C847.194 936.759 847.839 937.766 848.652 938.544C849.465 939.339 850.419 939.922 851.515 940.293C852.628 940.647 853.821 940.824 855.094 940.824C855.854 940.824 856.614 940.788 857.374 940.718C858.151 940.647 858.885 940.541 859.574 940.399C860.263 940.276 860.899 940.126 861.483 939.949C862.066 939.754 862.561 939.533 862.967 939.286L862.278 935.813C861.978 935.884 861.589 935.972 861.112 936.078C860.652 936.167 860.157 936.255 859.627 936.343C859.079 936.432 858.522 936.511 857.957 936.582C857.391 936.635 856.843 936.662 856.313 936.662C855.589 936.662 854.899 936.573 854.245 936.396C853.609 936.22 853.044 935.91 852.549 935.469C852.054 935.044 851.665 934.47 851.382 933.745C851.099 933.021 850.958 932.102 850.958 930.988V915.4H861.88V911.609H850.958V904.663ZM870.576 925.686V926.269C870.576 928.337 870.876 930.255 871.477 932.022C872.078 933.79 872.944 935.327 874.075 936.635C875.189 937.943 876.55 938.968 878.158 939.71C879.784 940.453 881.613 940.824 883.646 940.824C885.66 940.824 887.472 940.453 889.08 939.71C890.689 938.968 892.058 937.943 893.189 936.635C894.303 935.327 895.16 933.79 895.761 932.022C896.362 930.255 896.662 928.337 896.662 926.269V925.686C896.662 923.618 896.362 921.701 895.761 919.933C895.16 918.148 894.303 916.602 893.189 915.294C892.058 913.986 890.68 912.961 889.054 912.219C887.445 911.459 885.625 911.079 883.593 911.079C881.578 911.079 879.766 911.459 878.158 912.219C876.55 912.961 875.189 913.986 874.075 915.294C872.944 916.602 872.078 918.148 871.477 919.933C870.876 921.701 870.576 923.618 870.576 925.686ZM875.48 926.269V925.686C875.48 924.29 875.648 922.956 875.984 921.683C876.32 920.393 876.832 919.262 877.522 918.29C878.193 917.318 879.033 916.549 880.04 915.983C881.048 915.4 882.232 915.108 883.593 915.108C884.953 915.108 886.138 915.4 887.145 915.983C888.17 916.549 889.027 917.318 889.716 918.29C890.388 919.262 890.892 920.393 891.228 921.683C891.581 922.956 891.758 924.29 891.758 925.686V926.269C891.758 927.683 891.59 929.035 891.254 930.325C890.918 931.598 890.415 932.72 889.743 933.692C889.054 934.664 888.197 935.433 887.171 935.999C886.164 936.564 884.989 936.847 883.646 936.847C882.285 936.847 881.092 936.564 880.067 935.999C879.042 935.433 878.193 934.664 877.522 933.692C876.832 932.72 876.32 931.598 875.984 930.325C875.648 929.035 875.48 927.683 875.48 926.269ZM958.405 922.452V918.29H942.287V905.883H960.844V901.694H937.382V940.293H961.083V936.131H942.287V922.452H958.405ZM972.032 911.609H967.631V940.293H972.297V917.468C972.403 917.185 972.535 916.92 972.695 916.673C972.871 916.425 973.075 916.204 973.304 916.01C973.605 915.762 973.967 915.577 974.391 915.453C974.833 915.312 975.346 915.241 975.929 915.241C976.459 915.241 976.919 915.312 977.307 915.453C977.714 915.577 978.05 915.78 978.315 916.063C978.598 916.363 978.801 916.743 978.925 917.203C979.066 917.662 979.137 918.192 979.137 918.793V940.293H983.802V918.82C983.802 918.714 983.802 918.625 983.802 918.555C983.802 918.466 983.802 918.378 983.802 918.29C983.855 917.848 983.962 917.45 984.121 917.097C984.28 916.726 984.501 916.399 984.783 916.116C985.066 915.851 985.42 915.639 985.844 915.48C986.268 915.321 986.772 915.241 987.355 915.241C987.903 915.241 988.38 915.312 988.786 915.453C989.211 915.594 989.564 915.807 989.847 916.089C990.112 916.39 990.315 916.77 990.457 917.229C990.598 917.689 990.669 918.219 990.669 918.82V940.293H995.335V918.873C995.335 917.494 995.175 916.301 994.857 915.294C994.539 914.269 994.08 913.438 993.479 912.802C992.931 912.236 992.259 911.812 991.464 911.529C990.669 911.229 989.776 911.079 988.786 911.079C988.062 911.096 987.39 911.194 986.772 911.37C986.171 911.547 985.623 911.786 985.128 912.086C984.739 912.351 984.377 912.661 984.041 913.014C983.705 913.368 983.414 913.748 983.166 914.154C982.972 913.712 982.733 913.315 982.45 912.961C982.185 912.608 981.885 912.307 981.549 912.06C981.09 911.742 980.55 911.503 979.932 911.344C979.331 911.167 978.651 911.079 977.891 911.079C976.547 911.096 975.399 911.388 974.444 911.954C973.508 912.519 972.748 913.306 972.164 914.313L972.032 911.609ZM1001.01 925.686V926.269C1001.01 928.337 1001.31 930.255 1001.91 932.022C1002.51 933.79 1003.38 935.327 1004.51 936.635C1005.62 937.943 1006.98 938.968 1008.59 939.71C1010.22 940.453 1012.05 940.824 1014.08 940.824C1016.09 940.824 1017.9 940.453 1019.51 939.71C1021.12 938.968 1022.49 937.943 1023.62 936.635C1024.73 935.327 1025.59 933.79 1026.19 932.022C1026.79 930.255 1027.09 928.337 1027.09 926.269V925.686C1027.09 923.618 1026.79 921.701 1026.19 919.933C1025.59 918.148 1024.73 916.602 1023.62 915.294C1022.49 913.986 1021.11 912.961 1019.49 912.219C1017.88 911.459 1016.06 911.079 1014.02 911.079C1012.01 911.079 1010.2 911.459 1008.59 912.219C1006.98 912.961 1005.62 913.986 1004.51 915.294C1003.38 916.602 1002.51 918.148 1001.91 919.933C1001.31 921.701 1001.01 923.618 1001.01 925.686ZM1005.91 926.269V925.686C1005.91 924.29 1006.08 922.956 1006.42 921.683C1006.75 920.393 1007.26 919.262 1007.95 918.29C1008.63 917.318 1009.46 916.549 1010.47 915.983C1011.48 915.4 1012.66 915.108 1014.02 915.108C1015.39 915.108 1016.57 915.4 1017.58 915.983C1018.6 916.549 1019.46 917.318 1020.15 918.29C1020.82 919.262 1021.32 920.393 1021.66 921.683C1022.01 922.956 1022.19 924.29 1022.19 925.686V926.269C1022.19 927.683 1022.02 929.035 1021.69 930.325C1021.35 931.598 1020.85 932.72 1020.17 933.692C1019.49 934.664 1018.63 935.433 1017.6 935.999C1016.6 936.564 1015.42 936.847 1014.08 936.847C1012.72 936.847 1011.52 936.564 1010.5 935.999C1009.47 935.433 1008.63 934.664 1007.95 933.692C1007.26 932.72 1006.75 931.598 1006.42 930.325C1006.08 929.035 1005.91 927.683 1005.91 926.269ZM1038.31 911.609V915.877H1047.88V940.479C1047.88 941.84 1047.7 942.98 1047.35 943.899C1047.01 944.836 1046.54 945.587 1045.94 946.152C1045.34 946.718 1044.64 947.116 1043.82 947.345C1043.01 947.593 1042.14 947.716 1041.22 947.716C1040.98 947.716 1040.63 947.708 1040.19 947.69C1039.77 947.69 1039.32 947.672 1038.86 947.637C1038.39 947.619 1037.92 947.584 1037.46 947.531C1037 947.495 1036.62 947.451 1036.32 947.398L1035.98 951.428C1036.42 951.499 1036.84 951.56 1037.25 951.613C1037.65 951.684 1038.06 951.737 1038.47 951.773C1038.96 951.808 1039.47 951.834 1039.98 951.852C1040.49 951.87 1041.02 951.879 1041.57 951.879C1043.34 951.879 1044.91 951.622 1046.29 951.11C1047.68 950.615 1048.87 949.881 1049.84 948.909C1050.79 947.955 1051.52 946.771 1052.01 945.357C1052.53 943.943 1052.78 942.317 1052.78 940.479V911.609H1038.31ZM1047.19 904.054C1047.19 904.849 1047.43 905.52 1047.9 906.068C1048.38 906.599 1049.12 906.864 1050.11 906.864C1051.1 906.864 1051.84 906.599 1052.33 906.068C1052.83 905.52 1053.07 904.849 1053.07 904.054C1053.07 903.258 1052.83 902.587 1052.33 902.039C1051.84 901.473 1051.1 901.19 1050.11 901.19C1049.12 901.19 1048.38 901.473 1047.9 902.039C1047.43 902.587 1047.19 903.258 1047.19 904.054ZM1068.37 911.609V915.877H1078.13V936.052H1068.37V940.293H1092.39V936.052H1083.03V911.609H1068.37ZM1077.49 904.08C1077.49 904.875 1077.73 905.538 1078.21 906.068C1078.7 906.599 1079.44 906.864 1080.43 906.864C1081.41 906.864 1082.14 906.599 1082.63 906.068C1083.13 905.538 1083.38 904.875 1083.38 904.08C1083.38 903.638 1083.31 903.232 1083.16 902.861C1083.02 902.489 1082.81 902.18 1082.53 901.933C1082.3 901.703 1082.01 901.526 1081.65 901.402C1081.3 901.261 1080.89 901.19 1080.43 901.19C1079.97 901.19 1079.56 901.261 1079.19 901.402C1078.83 901.526 1078.54 901.703 1078.31 901.933C1078.03 902.198 1077.82 902.516 1077.68 902.887C1077.55 903.258 1077.49 903.656 1077.49 904.08Z" fill="#3C4043"/>
<path d="M706.719 349.095H714.911C716.671 349.095 718.172 349.36 719.413 349.891C720.653 350.421 721.602 351.205 722.26 352.245C722.928 353.273 723.262 354.546 723.262 356.062C723.262 357.218 723.05 358.236 722.626 359.116C722.202 359.996 721.602 360.739 720.828 361.343C720.054 361.937 719.132 362.398 718.061 362.727L716.852 363.316H709.487L709.455 360.15H714.975C715.929 360.15 716.724 359.98 717.361 359.641C717.997 359.302 718.474 358.841 718.792 358.257C719.121 357.663 719.285 356.995 719.285 356.253C719.285 355.447 719.126 354.747 718.808 354.153C718.501 353.549 718.023 353.088 717.377 352.77C716.73 352.441 715.908 352.277 714.911 352.277H710.712V372.255H706.719V349.095ZM719.938 372.255L714.498 361.852L718.681 361.836L724.2 372.048V372.255H719.938ZM742.397 369.09V372.255H730.102V369.09H742.397ZM731.231 349.095V372.255H727.239V349.095H731.231ZM740.791 358.766V361.884H730.102V358.766H740.791ZM742.318 349.095V352.277H730.102V349.095H742.318ZM759.338 364.715H763.314C763.187 366.232 762.763 367.584 762.042 368.771C761.321 369.948 760.308 370.876 759.003 371.555C757.699 372.234 756.114 372.573 754.248 372.573C752.816 372.573 751.528 372.319 750.382 371.81C749.237 371.29 748.256 370.558 747.44 369.614C746.623 368.66 745.997 367.509 745.563 366.163C745.138 364.816 744.926 363.31 744.926 361.645V359.721C744.926 358.056 745.144 356.55 745.579 355.203C746.024 353.857 746.66 352.706 747.487 351.752C748.314 350.787 749.306 350.05 750.462 349.541C751.628 349.032 752.938 348.777 754.391 348.777C756.236 348.777 757.795 349.116 759.067 349.795C760.34 350.474 761.326 351.412 762.026 352.611C762.736 353.809 763.171 355.182 763.33 356.73H759.353C759.247 355.734 759.014 354.88 758.654 354.169C758.304 353.459 757.784 352.918 757.095 352.547C756.405 352.165 755.504 351.974 754.391 351.974C753.479 351.974 752.683 352.144 752.005 352.483C751.326 352.823 750.759 353.321 750.303 353.979C749.847 354.636 749.502 355.447 749.269 356.412C749.046 357.367 748.935 358.459 748.935 359.689V361.645C748.935 362.812 749.036 363.872 749.237 364.827C749.449 365.77 749.767 366.582 750.191 367.26C750.626 367.939 751.178 368.464 751.846 368.835C752.514 369.206 753.314 369.392 754.248 369.392C755.382 369.392 756.299 369.211 756.999 368.851C757.71 368.49 758.245 367.965 758.606 367.276C758.977 366.576 759.221 365.723 759.338 364.715ZM782.099 369.09V372.255H769.804V369.09H782.099ZM770.933 349.095V372.255H766.941V349.095H770.933ZM780.493 358.766V361.884H769.804V358.766H780.493ZM782.02 349.095V352.277H769.804V349.095H782.02ZM803.732 349.095V372.255H799.74L789.353 355.665V372.255H785.36V349.095H789.353L799.771 365.717V349.095H803.732ZM817.539 349.095V372.255H813.578V349.095H817.539ZM824.808 349.095V352.277H806.373V349.095H824.808Z" fill="#3C4043"/>
<line x1="707.08" y1="263.103" x2="1205.22" y2="263.103" stroke="#1A73E8" stroke-width="2.71468"/>
<mask id="mask0_3613_15957" style="mask-type:alpha" maskUnits="userSpaceOnUse" x="705" y="128" width="66" height="66">
<rect x="705.723" y="128.726" width="65.1524" height="65.1524" fill="#D9D9D9"/>
</mask>
<g mask="url(#mask0_3613_15957)">
<path d="M705.518 179.015L721.535 140.942H730.018L745.56 179.015H736.872L733.479 169.853H717.26L713.798 179.015H705.518ZM719.296 164.219H731.512L725.539 148.203H725.335L719.296 164.219Z" fill="#1A73E8"/>
<path d="M730.154 172.161H736.331V178.336V180.779H738.774H745.154H747.597V178.336V172.161H753.772H756.215V169.718V163.406V160.963H753.772H747.597V154.786V152.343H745.154H738.774H736.331V154.786V160.963H730.154H727.711V163.406V169.718V172.161H730.154Z" fill="#1A73E8" stroke="#D2E3FC" stroke-width="4.88643"/>
</g>
</svg>
