<svg width="1920" height="1080" fill="none" xmlns="http://www.w3.org/2000/svg"><path fill="#D2E3FC" d="M476 287h190v500H476zM1216 287h227v500h-227z"/><path fill="#1A73E8" d="M51 654h897v20H51zM973 592h897v20H973z"/><path d="m572.484 621.07 49.219-158.398h38.672l-84.961 243.945c-13.151 35.156-34.049 52.735-62.695 52.735l-6.836-.586-13.477-2.539V726.93l9.766.781c12.239 0 21.745-2.474 28.516-7.422 6.901-4.948 12.565-13.997 16.992-27.148l8.008-21.485-75.391-208.984h39.453l52.734 158.398ZM1280 601c-9.33 0-16.67-2-22-6-5.33-4-8-10-8-18 0-13.333 8-33 24-59 16.67-26.667 36.67-58 60-94 2.67-3.333 4.67-5.667 6-7 2-2 4-3.667 6-5 3.33-.667 7.67-1.333 13-2 6-1.333 9.67-2 11-2 2.67 0 4 1 4 3-24 42-44.33 76.333-61 103-16 26-24 46.333-24 61 0 8 3.67 12 11 12 3.33 0 7.67-1 13-3s11-4.667 17-8 11.67-6.667 17-10c5.33-4 9.33-7.667 12-11 6-6 14.67-20 26-42 12-22.667 26.33-49 43-79 8-14.667 15.33-27 22-37 7.33-10 13.33-15 18-15 2.67 1.333 5 4.667 7 10 2.67 5.333 4 10.667 4 16 0 2.667-3 9-9 19-6 9.333-13.67 20.667-23 34-9.33 12.667-19.67 26.333-31 41-10.67 14.667-21 28.333-31 41-24 36.667-48.33 74.333-73 113-24 39.333-48.33 77-73 113-24.67 36.667-50 71-76 103-26 32.667-52.67 61-80 85-28 24-56.67 43-86 57-30 14-61.333 21-94 21-19.333 0-36.667-4.67-52-14-15.333-9.33-23-25.667-23-49 0-5.333.667-11 2-17 .667-5.333 1.667-9.667 3-13 .667-2 1.667-3.333 3-4 1.333-.667 2 .333 2 3 0 18 6.667 34.333 20 49 13.333 14.67 37 22 71 22 27.333 0 54.667-7 82-21 26.67-13.333 53-31.333 79-54 25.33-22.667 50-49 74-79s47-61.333 69-94c22.67-32.667 44-65.667 64-99 20-32.667 38.33-63.667 55-93 1.33-2.667 1.33-3.667 0-3-1.33.667-2.33 1.333-3 2-7.33 6-17.33 12.667-30 20-12.67 6.667-25.67 10-39 10Z" fill="#3C4043"/></svg>