<svg width="1920" height="1080" fill="none" xmlns="http://www.w3.org/2000/svg"><path fill="#D2E3FC" d="M50 597h897v20H50zM50 459h897v20H50zM50 387h897v20H50zM50 650h897v20H50z"/><path d="M494.354 617h-26.676c-2.288 0-4.108-.572-5.46-1.716a19.2 19.2 0 0 1-3.12-4.056l-39.78-61.932a70.886 70.886 0 0 1-1.404 4.368 12.645 12.645 0 0 1-1.872 3.744l-36.816 53.82a32.155 32.155 0 0 1-3.432 4.056c-1.144 1.144-2.756 1.716-4.836 1.716h-24.804l55.38-81.12-53.196-76.908h26.676c2.288 0 3.952.364 4.992 1.092 1.04.728 1.976 1.768 2.808 3.12l38.844 59.28c.832-3.016 2.132-5.928 3.9-8.736l34.008-49.92c.936-1.456 1.924-2.6 2.964-3.432 1.144-.936 2.496-1.404 4.056-1.404h25.584l-53.196 75.504L494.354 617Zm53.523-38.064c5.096 6.864 10.66 11.7 16.692 14.508s12.792 4.212 20.28 4.212c14.768 0 26.104-5.252 34.008-15.756 7.904-10.504 11.856-25.48 11.856-44.928 0-10.296-.936-19.136-2.808-26.52-1.768-7.384-4.368-13.416-7.8-18.096-3.432-4.784-7.644-8.268-12.636-10.452-4.992-2.184-10.66-3.276-17.004-3.276-9.048 0-17.004 2.08-23.868 6.24-6.76 4.16-13 10.036-18.72 17.628v76.44Zm-1.404-95.472c6.656-8.216 14.352-14.82 23.088-19.812 8.736-4.992 18.72-7.488 29.952-7.488 9.152 0 17.42 1.768 24.804 5.304 7.384 3.432 13.676 8.58 18.876 15.444 5.2 6.76 9.204 15.184 12.012 25.272s4.212 21.684 4.212 34.788c0 11.648-1.56 22.516-4.68 32.604-3.12 9.984-7.644 18.668-13.572 26.052-5.824 7.28-13 13.052-21.528 17.316-8.424 4.16-17.94 6.24-28.548 6.24-9.672 0-17.992-1.612-24.96-4.836-6.864-3.328-12.948-7.904-18.252-13.728v69.888h-27.924V458.972h16.692c3.952 0 6.396 1.924 7.332 5.772l2.496 18.72Zm251.331 13.104c-5.2-6.968-10.816-11.804-16.848-14.508-6.032-2.808-12.792-4.212-20.28-4.212-14.664 0-25.948 5.252-33.852 15.756-7.904 10.504-11.856 25.48-11.856 44.928 0 10.296.884 19.136 2.652 26.52 1.768 7.28 4.368 13.312 7.8 18.096 3.432 4.68 7.644 8.112 12.636 10.296 4.992 2.184 10.66 3.276 17.004 3.276 9.152 0 17.108-2.08 23.868-6.24 6.864-4.16 13.156-10.036 18.876-17.628v-76.284Zm27.768-109.356V617h-16.536c-3.952 0-6.448-1.924-7.488-5.772l-2.496-19.188c-6.76 8.112-14.456 14.664-23.088 19.656-8.632 4.992-18.616 7.488-29.952 7.488-9.048 0-17.264-1.716-24.648-5.148-7.384-3.536-13.676-8.684-18.876-15.444-5.2-6.76-9.204-15.184-12.012-25.272s-4.212-21.684-4.212-34.788c0-11.648 1.56-22.464 4.68-32.448 3.12-10.088 7.592-18.824 13.416-26.208 5.824-7.384 12.948-13.156 21.372-17.316 8.528-4.264 18.096-6.396 28.704-6.396 9.672 0 17.94 1.664 24.804 4.992 6.968 3.224 13.156 7.748 18.564 13.572v-87.516h27.768Z" fill="#3C4043"/><path fill="#D2E3FC" d="M973 597h897v20H973zM973 495h897v20H973zM973 408h897v20H973zM973 699h897v20H973z"/><path d="m1209.41 602.527-28.18-35.953-3.05-4.265c-.71 1.218-5.33 8.226-13.86 21.023-8.43 12.797-12.7 19.703-12.8 20.719 0 2.336 3.41 4.062 10.21 5.179l7.92 1.372V617h-55.76v-6.246l11.89-2.438c4.06-.812 8.27-3.961 12.64-9.445 4.37-5.586 8.94-11.883 13.71-18.891l19.35-28.335-4.57-6.399c-19.2-27.422-32.5-41.844-39.91-43.266l-7.47-1.218v-6.246h59.11v6.55l-8.23 1.524c-5.28.812-8.12 1.726-8.53 2.742-.4 1.016-.61 1.828-.61 2.438 0 3.453 3.56 10.003 10.67 19.652l9.9 13.406c2.64-3.047 7.31-8.937 14.02-17.672 6.7-8.836 10.05-13.965 10.05-15.386-.2-2.844-4.42-4.825-12.64-5.942l-4.88-.762v-6.55h55.76v6.246l-6.4 1.218c-8.02 1.625-17.21 8.735-27.57 21.329-.31.406-2.8 3.453-7.47 9.14a347.074 347.074 0 0 0-13.41 17.52l17.98 22.851 2.9 3.657c16.65 21.429 27.82 32.55 33.51 33.363l7.16.914V617h-58.96v-6.398l10.36-2.286c5.29-1.117 7.98-2.132 8.08-3.046.1-.915-.21-1.829-.92-2.743Zm82.42 15.539v69.469c0 8.633.97 14.32 2.9 17.063 2.03 2.742 6.75 5.129 14.16 7.16l3.81 1.066v5.485h-57.89v-5.637c8.13-1.422 13.26-3.555 15.39-6.399 2.13-2.843 3.2-6.347 3.2-10.511V525.137c0-6.907-.36-11.172-1.07-12.797-1.52-3.555-7.21-5.332-17.06-5.332l-.76-5.18 37.32-9.445v10.664c10.46-7.617 22.29-11.426 35.5-11.426 14.52 0 26.96 5.383 37.32 16.149 10.36 10.664 15.54 26.05 15.54 46.16 0 20.008-5.84 36.105-17.52 48.293-12.49 13.101-27.17 19.703-44.03 19.804-8.53 0-17.46-1.32-26.81-3.961Zm0-15.234c7.42 4.977 15.9 7.465 25.44 7.465 11.18 0 21.33-3.91 30.47-11.731 9.24-7.921 13.87-20.718 13.87-38.39 0-15.844-3.05-27.676-9.15-35.496-5.99-7.922-11.93-13.102-17.82-15.539-5.89-2.539-11.78-3.657-17.67-3.352-8.23.406-16.56 3.606-24.99 9.598l-.15 87.445Zm103.44-40.219c0-28.945 9.7-49.41 29.1-61.394 10.46-6.399 22.04-9.598 34.74-9.598 7.51 0 15.13 1.574 22.85 4.723l3.65 1.523v-57.89c0-7.008-.3-11.274-.91-12.797-1.42-3.555-7.11-5.332-17.06-5.332l-.76-5.18 37.47-9.445v191.343c0 6.907 3.51 10.36 10.51 10.36.51 0 2.59-.203 6.25-.61 3.76-.507 5.79-.761 6.09-.761v6.246l-35.34 8.226-5.48-15.386c-.21.101-.72.507-1.53 1.218-11.47 9.446-22.85 14.168-34.12 14.168-23.46 0-39.77-9.597-48.91-28.793-4.36-9.343-6.55-19.55-6.55-30.621Zm19.66-7.617c0 21.125 4.92 36.309 14.77 45.551 6.4 5.891 14.32 8.887 23.77 8.988 9.55 0 17.26-2.691 23.15-8.074 2.75-2.539 5.59-5.789 8.54-9.75v-78.305c-2.34-4.773-7.21-8.176-14.63-10.207-3.45-.914-7.16-1.371-11.12-1.371-15.54 0-27.52 7.567-35.95 22.699-5.49 10.157-8.33 20.313-8.53 30.469Z" fill="#3C4043"/></svg>