<svg width="1920" height="1080" fill="none" xmlns="http://www.w3.org/2000/svg"><path fill="#F3F7FE" d="M0 0h1920v1080H0z"/><path d="M306.727 502.12c-5.494 0-16.068-.687-31.724-2.06-15.656-1.099-27.467-2.197-35.432-3.296l.824-46.968h10.3l5.356 32.96c27.192 3.296 43.672 4.944 49.44 4.944 3.021 0 6.454-1.785 10.3-5.356 4.12-3.571 7.553-7.965 10.3-13.184 2.746-5.219 4.12-10.163 4.12-14.832 0-7.141-1.786-13.047-5.356-17.716-3.296-4.944-7.142-8.789-11.536-11.536-4.12-2.747-12.635-7.965-25.544-15.656-11.262-6.867-19.914-12.497-25.956-16.892-5.768-4.395-10.575-9.476-14.42-15.244-3.571-5.768-5.356-12.497-5.356-20.188 0-6.317.824-11.399 2.472-15.244 3.021-6.043 8.789-12.497 17.304-19.364 8.514-7.141 14.969-10.712 19.364-10.712 5.493 0 14.832.549 28.016 1.648 13.184.824 24.308 1.785 33.372 2.884l-.824 42.436h-11.536l-2.884-28.016c-7.142-1.099-15.382-2.06-24.72-2.884-9.064-.824-16.48-1.373-22.248-1.648-1.923 0-4.67 1.236-8.24 3.708-3.296 2.197-6.318 5.219-9.064 9.064-2.472 3.845-3.708 7.965-3.708 12.36 0 8.515 2.334 15.244 7.004 20.188 4.669 4.669 12.497 10.437 23.484 17.304l7.416 4.532 7.828 4.944c14.557 8.515 25.544 16.48 32.96 23.896 7.416 7.141 11.124 16.205 11.124 27.192 0 5.493-.687 10.437-2.06 14.832-3.022 7.965-8.927 16.343-17.716 25.132-8.79 8.515-16.343 12.772-22.66 12.772Zm95.069 0c-.824 0-2.61-1.236-5.356-3.708-2.747-2.472-4.12-4.12-4.12-4.944v-243.08l-21.424-1.236v-9.064c17.578-3.571 27.604-5.356 30.076-5.356.824 0 2.609 1.236 5.356 3.708 3.021 2.197 4.532 3.845 4.532 4.944l-1.236 99.292 1.236.412c7.69-6.317 16.342-13.047 25.956-20.188 9.613-7.416 14.832-11.124 15.656-11.124 15.106 0 26.917 2.197 35.432 6.592 8.789 4.12 15.106 11.399 18.952 21.836 4.12 10.163 6.18 24.445 6.18 42.848v103l21.424 1.648v9.064c-17.579 3.571-27.604 5.356-30.076 5.356-1.099 0-3.022-1.236-5.768-3.708-2.747-2.472-4.12-4.12-4.12-4.944V378.932c0-15.107-1.923-26.231-5.768-33.372-3.846-7.416-8.652-12.085-14.42-14.008-5.494-2.197-12.36-3.296-20.6-3.296-1.099 0-6.592 3.296-16.48 9.888-9.614 6.592-18.403 12.772-26.368 18.54v129.368l21.424 1.648v9.064c-17.854 3.571-28.016 5.356-30.488 5.356Zm227.417 0c-22.523 0-39.14-7.965-49.852-23.896-10.712-15.931-16.068-36.668-16.068-62.212 0-14.008 1.099-26.643 3.296-37.904 2.472-11.536 5.631-20.875 9.476-28.016 4.395-6.592 10.163-12.772 17.304-18.54 7.141-6.043 14.008-10.849 20.6-14.42 6.592-3.571 11.399-5.356 14.42-5.356 4.395 0 24.445 2.609 60.152 7.828v166.448l21.424 1.648v9.064c-17.853 3.571-27.879 5.356-30.076 5.356-.549 0-2.335-1.236-5.356-3.708-2.747-2.472-4.12-4.12-4.12-4.944l.412-23.072-14.42 11.536c-1.923 1.373-6.592 5.081-14.008 11.124-7.416 6.043-11.811 9.064-13.184 9.064Zm-1.236-16.068c1.648 0 7.004-3.296 16.068-9.888a2166.304 2166.304 0 0 0 25.956-19.364V332.376c-18.128-4.395-31.175-6.592-39.14-6.592-4.669 0-8.103.549-10.3 1.648-14.008 6.043-23.896 15.931-29.664 29.664-5.768 13.459-8.652 32.136-8.652 56.032 0 25.819 4.257 44.496 12.772 56.032 8.789 11.261 19.776 16.892 32.96 16.892Zm134.528 16.068c-.55 0-2.335-1.236-5.356-3.708-2.747-2.472-4.12-4.12-4.12-4.944V327.432l-21.424-1.236v-9.064c17.029-3.571 26.78-5.356 29.252-5.356.824 0 2.746 1.373 5.768 4.12 3.296 2.472 4.944 4.12 4.944 4.944l-.824 22.66c6.042-6.317 13.184-13.459 21.424-21.424s12.909-11.948 14.008-11.948c3.845 0 8.377.549 13.596 1.648 5.493 1.099 9.476 2.06 11.948 2.884 1.373 2.747 2.06 5.081 2.06 7.004 0 .824-.824 2.609-2.472 5.356-1.374 2.472-2.61 4.12-3.708 4.944-8.79-2.747-15.382-4.12-19.776-4.12-1.923 0-10.85 7.004-26.78 21.012l-9.476 8.24V485.64l25.956 1.648v9.476c-20.6 3.571-32.274 5.356-35.02 5.356Zm114.542 68.804c-.824 0-2.746-1.236-5.768-3.708-2.746-2.197-4.12-3.845-4.12-4.944l1.648-69.216V327.844l-21.424-1.648v-9.064c4.67-1.099 9.888-2.197 15.656-3.296 6.043-1.099 10.712-1.785 14.008-2.06.824 0 2.61 1.236 5.356 3.708 3.022 2.472 4.532 4.12 4.532 4.944l-.824 23.484 15.244-12.36c15.931-13.184 24.72-19.776 26.368-19.776 22.523 0 39.14 7.965 49.852 23.896 10.987 15.656 16.48 36.119 16.48 61.388 0 14.008-1.236 26.78-3.708 38.316-2.472 11.536-5.493 21.012-9.064 28.428-4.394 6.592-10.162 12.909-17.304 18.952-7.141 5.768-14.145 10.437-21.012 14.008-6.592 3.571-11.398 5.356-14.42 5.356-3.57 0-17.578-1.785-42.024-5.356v57.68l22.248 1.648v9.476c-3.021.824-8.24 1.785-15.656 2.884-7.141 1.373-12.497 2.197-16.068 2.472Zm59.328-84.46c14.008-6.317 23.896-16.205 29.664-29.664 5.768-13.459 8.652-32.136 8.652-56.032 0-25.819-4.257-44.359-12.772-55.62-8.514-11.536-19.364-17.304-32.548-17.304-2.472 0-14.008 7.828-34.608 23.484l-8.24 6.18.824 123.6c16.206 4.395 29.39 6.592 39.552 6.592 3.846 0 7.004-.412 9.476-1.236Zm160.485 15.656c-21.15 0-37.49-7.553-49.03-22.66-11.54-15.381-17.3-37.217-17.3-65.508 0-13.459 1.1-25.819 3.29-37.08 2.2-11.261 5.22-20.188 9.07-26.78 4.39-6.867 10.16-13.184 17.3-18.952 7.14-6.043 14.15-10.849 21.01-14.42 7.14-3.571 12.23-5.356 15.25-5.356 20.05 0 34.88 6.592 44.49 19.776 9.89 13.184 14.97 35.981 15.25 68.392l-106.71 9.888c0 51.637 17.44 77.456 52.32 77.456 2.47 0 18.41-1.373 47.79-4.12v9.888c-28.01 6.317-45.59 9.476-52.73 9.476Zm39.96-113.3c-.82-42.299-14.14-63.448-39.96-63.448-2.75 0-6.32 1.099-10.71 3.296-4.4 1.923-8.79 4.532-13.19 7.828-14.28 10.987-21.97 31.312-23.07 60.976l86.93-8.652Zm73.2 113.3c-.55 0-2.33-1.236-5.35-3.708-2.75-2.472-4.12-4.12-4.12-4.944V327.844l-21.43-1.648v-9.064c17.58-3.571 27.61-5.356 30.08-5.356.82 0 2.61 1.236 5.36 3.708 2.74 2.472 4.12 4.12 4.12 4.944l-.42 23.072c26.37-21.149 40.52-31.724 42.44-31.724 15.11 0 26.92 2.197 35.43 6.592 8.79 4.12 15.11 11.399 18.95 21.836 4.12 10.163 6.18 24.445 6.18 42.848v103l21.43 1.648v9.064c-17.58 3.571-27.61 5.356-30.08 5.356-1.1 0-3.02-1.236-5.77-3.708-2.74-2.472-4.12-4.12-4.12-4.944V378.932c0-15.107-1.92-26.231-5.76-33.372-3.85-7.416-8.66-12.085-14.42-14.008-5.5-2.197-12.36-3.296-20.6-3.296-3.03 0-17.31 9.476-42.85 28.428v129.368l21.42 1.648v9.064c-17.85 3.571-28.01 5.356-30.49 5.356Zm227.83 0c-21.15 0-37.49-7.553-49.02-22.66-11.54-15.381-17.31-37.217-17.31-65.508 0-13.459 1.1-25.819 3.3-37.08 2.19-11.261 5.22-20.188 9.06-26.78 4.4-6.867 10.16-13.184 17.31-18.952 7.14-6.043 14.14-10.849 21.01-14.42 7.14-3.571 12.22-5.356 15.24-5.356 20.05 0 34.88 6.592 44.5 19.776 9.89 13.184 14.97 35.981 15.24 68.392l-106.71 9.888c0 51.637 17.44 77.456 52.33 77.456 2.47 0 18.4-1.373 47.79-4.12v9.888c-28.02 6.317-45.6 9.476-52.74 9.476Zm39.97-113.3c-.83-42.299-14.15-63.448-39.97-63.448-2.74 0-6.31 1.099-10.71 3.296-4.39 1.923-8.79 4.532-13.18 7.828-14.29 10.987-21.98 31.312-23.07 60.976l86.93-8.652Zm115.63 113.3c-22.24 0-38.86-7.828-49.85-23.484-10.71-15.931-16.07-36.531-16.07-61.8 0-14.283 1.1-27.192 3.3-38.728 2.47-11.536 5.63-20.875 9.48-28.016 4.39-6.592 10.16-12.772 17.3-18.54 7.14-6.043 14.01-10.849 20.6-14.42 6.59-3.571 11.4-5.356 14.42-5.356 5.49 0 19.5 1.785 42.02 5.356v-66.744l-21.42-1.236v-9.064c18.4-3.571 28.7-5.356 30.9-5.356.82 0 2.61 1.236 5.36 3.708 3.02 2.197 4.53 3.845 4.53 4.944l-1.24 77.868v164.8l21.43 1.648v9.064c-17.86 3.571-27.88 5.356-30.08 5.356-.55 0-2.33-1.236-5.36-3.708-2.74-2.472-4.12-4.12-4.12-4.944v-22.66l-11.94 9.476c-2.48 1.923-7.69 6.043-15.66 12.36-7.97 6.317-12.5 9.476-13.6 9.476Zm-1.23-16.068c1.92 0 7.69-3.433 17.3-10.3 9.89-7.141 18.13-13.459 24.72-18.952V332.788c-17.03-4.669-30.07-7.004-39.14-7.004-4.67 0-8.1.549-10.3 1.648-14.01 6.043-23.89 15.931-29.66 29.664-5.77 13.459-8.65 32.136-8.65 56.032 0 25.819 4.25 44.496 12.77 56.032 8.79 11.261 19.77 16.892 32.96 16.892ZM237.48 678.313l46.084-37.458 52.229 24.46c-6.145 5.357-9.256 11.384-9.335 18.08l-.473 39.112c0 2.678 1.379 5.711 4.136 9.098 2.836 3.388 5.514 6.106 8.035 8.154l-23.869 24.578-18.315-18.788a186.379 186.379 0 0 1-13.353 9.807c-4.49 2.915-8.508 5.987-12.053 9.217-11.816-4.411-22.845-11.225-33.086-20.442 2.915-3.703 4.609-9.099 5.082-16.189l-.355-35.685v-.945c0-4.648-1.575-8.981-4.727-12.999Zm40.531-9.098c-4.569 6.853-6.854 12.959-6.854 18.315v28.95c0 5.909 1.064 10.123 3.191 12.644 1.812 2.6 3.466 4.924 4.963 6.972 1.575 2.048 4.057 3.545 7.444 4.49l9.689-6.972v-54.355l-18.433-10.044Zm111.783-11.58 13.825-17.252 37.694 27.296-3.544 13.943-1.537 38.049v.709c0 3.86 1.182 7.05 3.545 9.571 2.364 2.442 5.042 4.293 8.035 5.554l-23.632 28.832c-5.83-4.569-10.32-8.626-13.471-12.171-3.072-3.545-4.608-10.832-4.608-21.86v-2.482l.827-43.72c0-3.309-5.042-8.823-15.125-16.543l-4.727 7.444-2.245 44.666v.709c0 3.86 1.182 7.05 3.545 9.571 2.363 2.442 5.081 4.293 8.153 5.554l-23.633 28.832-24.932-20.206c4.49-5.436 6.735-10.871 6.735-16.307l.946-53.646c0-3.782-2.915-7.563-8.745-11.344l17.843-22.451 25.051 17.252Zm104.339-10.753c-6.066-10.32-14.062-21.191-23.987-32.613l31.313-16.425c28.359 34.582 44.115 75.388 47.266 122.418-9.847 7.405-18.198 14.258-25.051 20.56-6.775 6.302-12.368 14.141-16.779 23.515-8.666-3.86-17.331-7.76-25.997-11.698-8.586-4.018-16.503-9.335-23.751-15.952-.315-11.896-.551-23.83-.709-35.804l-.472-35.922c18.906-8.665 31.628-14.692 38.167-18.079Zm24.223 87.323v-2.481c0-26.469-6.223-51.638-18.669-75.507-8.587 4.096-13.708 11.501-15.362 22.215-.551 4.175-.827 9.492-.827 15.952 0 6.459.788 14.81 2.363 25.051 11.029 8.744 21.861 13.667 32.495 14.77Zm95.832-119.109 1.299-5.554c15.677-5.514 32.574-13.156 50.693-22.924l7.444 4.609c-11.186 6.696-16.819 19.339-16.897 37.93l-.119 24.342 19.616-15.598c5.987 2.521 11.501 7.405 16.543 14.653 10.319 14.81 16.346 30.525 18.079 47.147.236 1.97.354 4.53.354 7.681s-.866 5.829-2.599 8.035l-39.113 50.929-50.692-25.169c1.969-4.254 3.821-8.784 5.554-13.589 1.733-4.884 2.599-10.162 2.599-15.834l-.945-82.006c0-5.829-3.939-10.713-11.816-14.652Zm42.42 52.465-.354 51.165c.709 3.938 3.387 7.011 8.035 9.216 4.727 2.127 7.878 3.191 9.453 3.191 1.654 0 2.797-.079 3.427-.237 6.775-1.733 10.162-6.144 10.162-13.234 0-1.733-.197-3.624-.591-5.672-2.678-13.234-6.578-23.239-11.698-30.013-5.042-6.775-11.186-11.581-18.434-14.416Zm104.339-9.926 15.362-15.598c15.834 10.95 26.547 22.057 32.14 33.322l-18.906 25.287c-2.127-6.223-5.042-11.698-8.744-16.424-3.624-4.727-9.69-9.572-18.197-14.534l-3.9 5.317-2.245 40.294c-.236 4.096 2.363 8.35 7.799 12.762 5.435 4.411 9.65 7.247 12.643 8.507l-19.615 27.769-36.631-28.478c4.412-5.278 6.696-10.713 6.854-16.306l-.236-45.375c-.237-3.782-3.152-7.563-8.745-11.344l17.843-22.451 24.578 17.252Zm58.728 15.716c18.355-12.289 33.598-23.436 45.729-33.441 6.066 2.6 12.171 7.248 18.316 13.944 13.313 14.258 21.19 29.147 23.633 44.666.315 1.811.472 3.544.472 5.199 0 5.199-1.457 9.413-4.372 12.643l-39.23 49.984-50.575-24.933c5.357-11.107 8.036-20.718 8.036-28.832l-.237-27.532c-.236-5.672-.827-9.571-1.772-11.698Zm31.786-4.136-.355 50.22c.709 3.86 3.427 6.892 8.154 9.098 4.726 2.127 7.838 3.191 9.335 3.191 1.575 0 2.639-.079 3.19-.237 6.932-1.575 10.399-5.947 10.399-13.116 0-1.654-.197-3.505-.591-5.554-2.679-12.998-6.578-22.805-11.698-29.422-5.042-6.696-11.187-11.423-18.434-14.18Zm65.227 9.098 46.083-37.458 52.229 24.46c-6.14 5.357-9.26 11.384-9.33 18.08l-.48 39.112c0 2.678 1.38 5.711 4.14 9.098 2.83 3.388 5.51 6.106 8.03 8.154l-23.866 24.578-18.315-18.788a186.379 186.379 0 0 1-13.353 9.807c-4.49 2.915-8.508 5.987-12.053 9.217-11.816-4.411-22.845-11.225-33.085-20.442 2.914-3.703 4.608-9.099 5.081-16.189l-.355-35.685v-.945c0-4.648-1.575-8.981-4.726-12.999Zm40.53-9.098c-4.569 6.853-6.854 12.959-6.854 18.315v28.95c0 5.909 1.064 10.123 3.191 12.644 1.812 2.6 3.466 4.924 4.963 6.972 1.575 2.048 4.057 3.545 7.444 4.49l9.689-6.972v-54.355l-18.433-10.044Zm106.232-22.333c-6.07-10.32-14.06-21.191-23.99-32.613l31.31-16.425c28.36 34.582 44.12 75.388 47.27 122.418-9.85 7.405-18.2 14.258-25.05 20.56-6.78 6.302-12.37 14.141-16.78 23.515-8.67-3.86-17.33-7.76-26-11.698-8.58-4.018-16.5-9.335-23.75-15.952-.31-11.896-.55-23.83-.71-35.804-.15-11.974-.31-23.948-.47-35.922 18.91-8.665 31.63-14.692 38.17-18.079Zm24.22 87.323v-2.481c0-26.469-6.22-51.638-18.67-75.507-8.59 4.096-13.71 11.501-15.36 22.215-.55 4.175-.83 9.492-.83 15.952 0 6.459.79 14.81 2.37 25.051 11.02 8.744 21.86 13.667 32.49 14.77Zm101.62-60.854c18.36-12.289 33.6-23.436 45.73-33.441 6.07 2.6 12.17 7.248 18.32 13.944 13.31 14.258 21.19 29.147 23.63 44.666.31 1.811.47 3.544.47 5.199 0 5.199-1.45 9.413-4.37 12.643l-39.23 49.984-50.57-24.933c5.35-11.107 8.03-20.718 8.03-28.832l-.24-27.532c-.23-5.672-.82-9.571-1.77-11.698Zm31.79-4.136-.36 50.22c.71 3.86 3.43 6.892 8.16 9.098 4.72 2.127 7.84 3.191 9.33 3.191 1.58 0 2.64-.079 3.19-.237 6.93-1.575 10.4-5.947 10.4-13.116 0-1.654-.2-3.505-.59-5.554-2.68-12.998-6.58-22.805-11.7-29.422-5.04-6.696-11.18-11.423-18.43-14.18Zm130.1-43.248c-5.91-3.545-12.84-5.79-20.8-6.736-1.42 2.127-3.51 5.16-6.26 9.099 1.49 3.23 2.64 7.208 3.42 11.935h19.26v29.777h-17.48c0 7.405-.16 14.928-.48 22.569-.23 7.563-.43 14.653-.59 21.27-.39 14.967-11.22 48.565-32.49 100.794-2.92-2.915-6.15-4.845-9.69-5.79 5.43-19.379 8.66-40.215 9.69-62.509 1.1-22.372 1.65-40.964 1.65-55.773 0-14.81-.16-28.045-.47-39.704-.16-6.38-3.35-12.092-9.57-17.133 6.77-7.169 12.96-14.259 18.55-21.27 5.67-7.011 11.9-14.14 18.67-21.388 7.33.867 15.12 2.127 23.4 3.782 8.35 1.654 16.5 3.269 24.46 4.844a970.983 970.983 0 0 1-10.64 13.235c-3.54 4.332-7.09 8.665-10.63 12.998Zm103.27 31.668 13.83-17.252 37.69 27.296-3.54 13.943-1.54 38.049v.709c0 3.86 1.18 7.05 3.55 9.571 2.36 2.442 5.04 4.293 8.03 5.554l-23.63 28.832c-5.83-4.569-10.32-8.626-13.47-12.171-3.08-3.545-4.61-10.832-4.61-21.86v-2.482l.83-43.72c0-3.309-5.05-8.823-15.13-16.543l-4.73 7.444-2.24 44.666v.709c0 3.86 1.18 7.05 3.54 9.571 2.37 2.442 5.09 4.293 8.16 5.554l-23.64 28.832-24.93-20.206c4.49-5.436 6.74-10.871 6.74-16.307l.94-53.646c0-3.782-2.91-7.563-8.74-11.344l17.84-22.451 25.05 17.252Zm65.58 5.199 17.85-22.451 26.46 12.407c-.94 3.23-1.96 6.381-3.07 9.453a27.84 27.84 0 0 0-1.65 9.453l-1.66 47.975v1.063c0 3.703 1.19 6.775 3.55 9.217s5.08 4.293 8.15 5.554l-23.63 28.832-25.05-20.206c4.57-5.436 6.85-10.871 6.85-16.307l.83-53.646c0-3.782-2.88-7.563-8.63-11.344Zm3.55-23.515 9.45-46.674 35.1 14.061-44.55 32.613Zm52.23-24.223 1.3-5.554c15.67-5.514 32.57-13.156 50.69-22.924l7.44 4.609c-11.18 6.696-16.82 19.339-16.89 37.93l-.12 24.342 19.61-15.598c5.99 2.521 11.5 7.405 16.55 14.653 10.32 14.81 16.34 30.525 18.07 47.147.24 1.97.36 4.53.36 7.681s-.87 5.829-2.6 8.035l-39.11 50.929-50.69-25.169c1.96-4.254 3.82-8.784 5.55-13.589 1.73-4.884 2.6-10.162 2.6-15.834l-.95-82.006c0-5.829-3.94-10.713-11.81-14.652Zm42.42 52.465-.36 51.165c.71 3.938 3.39 7.011 8.04 9.216 4.72 2.127 7.88 3.191 9.45 3.191 1.66 0 2.8-.079 3.43-.237 6.77-1.733 10.16-6.144 10.16-13.234 0-1.733-.2-3.624-.59-5.672-2.68-13.234-6.58-23.239-11.7-30.013-5.04-6.775-11.19-11.581-18.43-14.416Z" fill="#3C4043"/></svg>