<svg width="1920" height="1080" viewBox="0 0 1920 1080" fill="none" xmlns="http://www.w3.org/2000/svg">
<g clip-path="url(#clip0_3302_15486)">
<path d="M125.173 342.22C133.055 331.185 141.856 322.909 151.577 317.392C161.43 311.875 172.202 309.116 183.893 309.116C197.161 309.116 208.13 311.875 216.8 317.392C225.601 322.909 231.316 329.74 233.943 337.885C236.57 345.898 237.884 358.969 237.884 377.097V421.63C237.884 440.546 238.212 452.041 238.869 456.113C239.657 460.185 241.825 463.207 245.372 465.177C248.919 467.016 255.487 467.936 265.076 467.936V477H181.726V467.936H185.469C195.059 467.936 201.233 466.557 203.992 463.798C206.882 461.039 208.524 457.821 208.918 454.143C209.444 450.333 209.706 439.495 209.706 421.63V373.156C209.706 359.757 208.918 349.839 207.342 343.402C205.765 336.965 202.021 331.645 196.11 327.441C190.33 323.238 183.039 321.136 174.238 321.136C163.991 321.136 154.796 324.157 146.651 330.2C138.507 336.111 131.347 345.044 125.173 356.998V421.63C125.173 439.758 125.436 450.924 125.961 455.128C126.618 459.331 128.654 462.55 132.07 464.783C135.485 466.885 141.725 467.936 150.789 467.936V477H68.8176V467.936H72.9556C82.4139 467.936 88.5223 466.622 91.281 463.995C94.171 461.236 95.8131 458.018 96.2072 454.34C96.7326 450.53 96.9954 439.627 96.9954 421.63V260.839C96.9954 244.55 95.419 234.238 92.2662 229.903C89.2448 225.568 81.8884 223.401 70.197 223.401V214.336C90.5585 214.336 107.505 211.578 121.035 206.06H125.173V342.22ZM451.483 447.443H458.774C457.591 469.906 446.557 481.138 425.67 481.138C416.737 481.138 409.643 478.773 404.389 474.044C399.265 469.315 395.916 462.287 394.339 452.96C381.203 462.287 369.183 469.315 358.28 474.044C347.508 478.773 337.852 481.138 329.314 481.138C318.41 481.138 309.018 477.985 301.136 471.68C293.254 465.374 289.313 457.033 289.313 446.655C289.313 433.124 295.881 421.301 309.018 411.186C322.286 401.071 340.545 391.219 363.797 381.629L394.339 369.215V361.333C394.339 350.167 393.617 342.088 392.172 337.097C390.727 332.105 386.983 327.638 380.94 323.697C374.897 319.756 366.95 317.786 357.097 317.786C337.393 317.786 326.424 324.354 324.191 337.491C322.089 350.89 316.571 357.59 307.639 357.59C299.625 357.59 295.619 353.78 295.619 346.161C295.619 338.673 300.939 330.66 311.58 322.121C322.22 313.451 338.772 309.116 361.235 309.116C377.919 309.116 390.858 311.743 400.054 316.998C409.249 322.252 415.292 328.23 418.182 334.929C421.203 341.629 422.714 351.875 422.714 365.668V430.891C422.714 446.129 423.502 455.916 425.079 460.251C426.655 464.586 430.07 466.754 435.325 466.754C443.995 466.754 449.381 460.317 451.483 447.443ZM394.339 378.477L372.861 387.147C338.969 400.94 322.023 418.28 322.023 439.167C322.023 447.443 324.191 454.143 328.526 459.266C332.861 464.258 338.509 466.754 345.472 466.754C351.646 466.754 358.805 464.717 366.95 460.645C375.094 456.573 384.224 450.464 394.339 442.32V378.477ZM519.464 309.116H521.435C525.244 317.917 527.149 329.215 527.149 343.008C535.95 331.711 545.409 323.238 555.524 317.589C565.77 311.94 576.739 309.116 588.431 309.116C601.698 309.116 612.47 312.137 620.746 318.18C629.022 324.223 634.802 333.287 638.086 345.373C648.07 333.287 658.317 324.223 668.826 318.18C679.335 312.137 690.041 309.116 700.944 309.116C713.424 309.116 723.999 312.006 732.669 317.786C741.339 323.566 746.594 330.134 748.433 337.491C750.272 344.847 751.191 356.736 751.191 373.156V421.63C751.191 440.415 751.52 451.844 752.177 455.916C752.965 459.988 755.067 463.01 758.482 464.98C762.029 466.951 768.532 467.936 777.99 467.936V477H697.398V467.936C705.936 467.936 711.913 467.016 715.329 465.177C718.876 463.207 721.043 460.317 721.831 456.507C722.62 452.566 723.014 440.94 723.014 421.63V367.836C723.014 356.933 722.357 348.722 721.043 343.205C719.861 337.688 716.642 332.959 711.388 329.018C706.133 325.077 699.302 323.106 690.895 323.106C682.356 323.106 673.752 325.996 665.082 331.776C656.543 337.556 647.939 346.292 639.269 357.984V421.63C639.269 438.839 639.466 449.676 639.86 454.143C640.385 458.478 642.224 461.893 645.377 464.389C648.661 466.754 654.441 467.936 662.717 467.936V477H584.687V467.936C593.488 467.936 599.597 467.016 603.012 465.177C606.559 463.338 608.726 460.514 609.515 456.704C610.434 452.895 610.894 441.203 610.894 421.63V376.9C610.894 362.713 610.303 352.466 609.12 346.161C608.07 339.724 604.72 334.272 599.071 329.806C593.422 325.208 586.394 322.909 577.987 322.909C569.842 322.909 561.501 325.537 552.962 330.791C544.555 336.046 535.95 343.928 527.149 354.437V421.63C527.149 439.364 527.412 450.399 527.937 454.734C528.463 459.069 530.433 462.353 533.849 464.586C537.264 466.819 543.372 467.936 552.174 467.936V477H473.158V467.936C481.828 467.936 487.871 467.016 491.286 465.177C494.833 463.207 497.001 460.317 497.789 456.507C498.577 452.698 498.971 441.072 498.971 421.63V373.353C498.971 354.962 498.643 343.731 497.986 339.658C497.461 335.455 495.424 332.302 491.878 330.2C488.462 328.098 482.222 327.047 473.158 327.047V317.983C491.812 316.144 507.247 313.188 519.464 309.116ZM825.675 483.503H817.99V267.539C817.99 251.775 817.531 241.595 816.611 236.997C815.823 232.399 813.655 228.984 810.108 226.75C806.693 224.517 800.65 223.401 791.98 223.401V214.336C799.731 214.336 809.058 213.417 819.961 211.578C830.864 209.739 838.286 207.899 842.227 206.06H846.365V333.747C855.561 325.471 864.887 319.297 874.346 315.224C883.804 311.152 893.394 309.116 903.115 309.116C926.366 309.116 945.414 317.195 960.258 333.353C975.102 349.511 982.525 370.135 982.525 395.225C982.525 420.448 974.905 441.466 959.667 458.281C944.429 475.095 924.658 483.503 900.356 483.503C888.402 483.503 877.893 481.007 868.828 476.015C859.896 471.023 852.408 463.601 846.365 453.748C837.826 462.287 830.93 472.205 825.675 483.503ZM846.365 345.373V408.625C846.365 424.914 847.416 436.671 849.518 443.896C851.751 450.99 857.006 457.821 865.282 464.389C873.558 470.957 883.213 474.241 894.247 474.241C911.194 474.241 924.658 467.279 934.642 453.354C944.757 439.43 949.815 419.397 949.815 393.255C949.815 369.215 945.086 350.956 935.627 338.476C926.3 325.865 913.821 319.559 898.188 319.559C889.256 319.559 880.454 321.727 871.784 326.062C863.245 330.266 854.772 336.703 846.365 345.373ZM1164.79 315.619V421.433C1164.79 439.036 1165.06 450.07 1165.58 454.537C1166.11 459.003 1168.01 462.353 1171.3 464.586C1174.71 466.819 1180.75 467.936 1189.42 467.936V477C1169.46 477.263 1154.87 479.365 1145.68 483.306H1143.31C1139.11 476.08 1136.88 463.601 1136.62 445.867C1128.6 458.346 1119.41 467.739 1109.03 474.044C1098.78 480.35 1087.42 483.503 1074.94 483.503C1064.17 483.503 1054.64 481.072 1046.37 476.212C1038.09 471.22 1032.38 465.177 1029.22 458.083C1026.2 450.99 1024.69 440.284 1024.69 425.965V370.989C1024.69 352.335 1024.36 340.972 1023.71 336.9C1023.05 332.696 1020.95 329.609 1017.4 327.638C1013.99 325.668 1007.62 324.683 998.288 324.683V315.619H1053.07V427.541C1053.07 438.576 1053.72 446.589 1055.04 451.581C1056.35 456.573 1059.7 460.974 1065.09 464.783C1070.47 468.461 1076.71 470.3 1083.81 470.3C1093.92 470.3 1103.58 467.016 1112.77 460.448C1121.97 453.748 1128.21 446.72 1131.49 439.364C1134.91 431.876 1136.62 421.236 1136.62 407.442V370.989C1136.62 353.386 1136.42 342.68 1136.02 338.87C1135.63 335.06 1133.92 331.776 1130.9 329.018C1128.01 326.128 1121.9 324.683 1112.58 324.683H1108.44V315.619H1164.79ZM1267.06 350.299C1271.53 338.607 1278.75 328.821 1288.74 320.939C1298.85 313.057 1308.7 309.116 1318.29 309.116C1326.96 309.116 1333.79 311.809 1338.79 317.195C1343.78 322.581 1346.27 328.098 1346.27 333.747C1346.27 337.556 1344.96 340.841 1342.33 343.599C1339.84 346.358 1336.75 347.737 1333.07 347.737C1326.5 347.737 1321.51 342.877 1318.1 333.156C1315.73 326.587 1312.18 323.303 1307.46 323.303C1301.81 323.303 1295.04 327.179 1287.16 334.929C1279.28 342.548 1274.22 350.496 1271.99 358.772C1269.75 367.048 1268.64 378.411 1268.64 392.861V421.63C1268.64 438.839 1268.83 449.676 1269.23 454.143C1269.75 458.609 1271.66 462.024 1274.94 464.389C1278.23 466.754 1284.07 467.936 1292.48 467.936H1298V477H1212.28V467.936H1216.42C1224.3 467.936 1229.88 466.885 1233.17 464.783C1236.58 462.55 1238.62 459.463 1239.28 455.522C1239.93 451.581 1240.26 440.284 1240.26 421.63V376.112C1240.26 358.772 1240 347.934 1239.47 343.599C1239.08 339.133 1237.24 335.717 1233.96 333.353C1230.67 330.857 1224.83 329.609 1216.42 329.609H1212.28V320.742C1224.63 319.297 1240.79 315.421 1260.75 309.116C1264.56 319.494 1266.67 333.221 1267.06 350.299ZM1481.64 329.806C1492.81 317.195 1504.11 310.889 1515.54 310.889C1521.84 310.889 1526.7 312.597 1530.12 316.013C1533.67 319.428 1535.44 323.172 1535.44 327.244C1535.44 335.914 1531.5 340.249 1523.62 340.249C1519.28 340.249 1515.54 337.556 1512.38 332.17C1509.49 327.179 1506.47 324.683 1503.32 324.683C1498.33 324.683 1492.81 328.098 1486.77 334.929C1493.6 345.701 1497.01 357.13 1497.01 369.215C1497.01 384.979 1491.37 398.904 1480.07 410.989C1468.77 423.206 1449.72 429.774 1422.92 430.694C1395.08 431.614 1381.15 437.262 1381.15 447.64C1381.15 452.5 1384.3 455.916 1390.61 457.886C1396.78 459.988 1409.79 461.565 1429.62 462.616C1451.3 463.666 1467.98 465.703 1479.67 468.724C1491.37 471.614 1500.69 477.525 1507.65 486.458C1514.62 495.391 1518.1 506.032 1518.1 518.38C1518.1 535.72 1511 549.71 1496.82 560.351C1482.63 570.991 1462.2 576.312 1435.54 576.312C1411.1 576.312 1391.53 571.583 1376.82 562.124C1362.1 552.666 1354.75 540.712 1354.75 526.262C1354.75 518.249 1356.85 511.68 1361.05 506.557C1365.26 501.434 1371.23 498.872 1378.98 498.872C1381.08 498.872 1382.99 499.201 1384.7 499.857C1376.55 508.79 1372.48 518.249 1372.48 528.232C1372.48 539.792 1377.87 549.316 1388.64 556.804C1399.54 564.423 1415.77 568.233 1437.31 568.233C1456.49 568.233 1471.4 564.358 1482.04 556.607C1492.81 548.988 1498.2 539.201 1498.2 527.247C1498.2 514.111 1493.4 504.849 1483.81 499.463C1474.22 494.209 1457.15 491.056 1432.58 490.005C1404.34 488.823 1386.01 485.342 1377.6 479.562C1369.2 473.913 1364.99 466.622 1364.99 457.689C1364.99 440.481 1377.01 429.643 1401.05 425.177C1388.57 417.82 1379.18 409.413 1372.87 399.955C1366.57 390.496 1363.42 379.922 1363.42 368.23C1363.42 351.809 1369.85 337.885 1382.73 326.456C1395.73 314.896 1411.1 309.116 1428.84 309.116C1450.77 309.116 1468.38 316.013 1481.64 329.806ZM1392.97 372.762C1392.97 389.708 1396.45 402.122 1403.42 410.004C1410.38 417.886 1419.25 421.827 1430.02 421.827C1440 421.827 1448.54 417.952 1455.63 410.201C1462.86 402.319 1466.47 388.723 1466.47 369.412C1466.47 349.97 1462.66 336.571 1455.04 329.215C1447.42 321.858 1438.82 318.18 1429.23 318.18C1417.14 318.18 1408.08 322.712 1402.04 331.776C1395.99 340.841 1392.97 354.502 1392.97 372.762ZM1693.67 370.201H1581.15C1580.63 377.951 1580.37 383.731 1580.37 387.541C1580.37 415.915 1584.77 437.262 1593.57 451.581C1602.5 465.768 1615.77 472.862 1633.37 472.862C1657.28 472.862 1674.23 462.156 1684.21 440.743H1693.67C1689.46 454.143 1681.12 464.652 1668.64 472.271C1656.16 479.759 1642.57 483.503 1627.85 483.503C1614.19 483.503 1601.25 480.087 1589.04 473.256C1576.95 466.294 1567.03 456.507 1559.28 443.896C1551.53 431.285 1547.66 415.981 1547.66 397.984C1547.66 372.499 1555.14 351.35 1570.12 334.535C1585.09 317.589 1603.81 309.116 1626.28 309.116C1647.43 309.116 1663.78 315.553 1675.34 328.427C1686.9 341.3 1693.01 355.225 1693.67 370.201ZM1659.18 362.319C1659.58 359.297 1659.78 356.604 1659.78 354.24C1659.78 342.68 1656.36 333.747 1649.53 327.441C1642.83 321.004 1634.55 317.786 1624.7 317.786C1600.79 317.786 1586.54 332.63 1581.94 362.319H1659.18ZM1776.23 350.299C1780.7 338.607 1787.92 328.821 1797.91 320.939C1808.02 313.057 1817.87 309.116 1827.46 309.116C1836.13 309.116 1842.96 311.809 1847.95 317.195C1852.95 322.581 1855.44 328.098 1855.44 333.747C1855.44 337.556 1854.13 340.841 1851.5 343.599C1849.01 346.358 1845.92 347.737 1842.24 347.737C1835.67 347.737 1830.68 342.877 1827.27 333.156C1824.9 326.587 1821.35 323.303 1816.62 323.303C1810.98 323.303 1804.21 327.179 1796.33 334.929C1788.45 342.548 1783.39 350.496 1781.16 358.772C1778.92 367.048 1777.81 378.411 1777.81 392.861V421.63C1777.81 438.839 1778 449.676 1778.4 454.143C1778.92 458.609 1780.83 462.024 1784.11 464.389C1787.4 466.754 1793.24 467.936 1801.65 467.936H1807.17V477H1721.45V467.936H1725.59C1733.47 467.936 1739.05 466.885 1742.34 464.783C1745.75 462.55 1747.79 459.463 1748.45 455.522C1749.1 451.581 1749.43 440.284 1749.43 421.63V376.112C1749.43 358.772 1749.17 347.934 1748.64 343.599C1748.25 339.133 1746.41 335.717 1743.13 333.353C1739.84 330.857 1734 329.609 1725.59 329.609H1721.45V320.742C1733.8 319.297 1749.96 315.421 1769.92 309.116C1773.73 319.494 1775.84 333.221 1776.23 350.299ZM70.7087 862V861.291H92.166V596.709H70.7087V596H123.909V861.291H145.189V862H70.7087ZM179.059 862V861.291H200.162V752.763C200.162 742.714 199.748 733.493 198.921 725.099C198.093 716.587 196.142 709.73 193.069 704.528C190.113 699.326 185.325 696.725 178.705 696.725C166.055 696.725 156.006 699.681 148.558 705.592C141.228 711.503 135.79 719.01 132.243 728.113C128.697 737.098 126.391 746.497 125.327 756.309C124.382 766.122 123.909 774.988 123.909 782.909L123.199 784.683C123.199 776.289 123.672 767.008 124.618 756.841C125.564 746.556 127.81 736.744 131.357 727.404C135.022 718.065 140.814 710.38 148.735 704.351C156.774 698.321 167.769 695.307 181.719 695.307C195.551 695.307 206.073 697.612 213.285 702.223C220.614 706.833 225.58 713.217 228.181 721.375C230.9 729.414 232.259 738.576 232.259 748.861V861.291H253.539V862H179.059ZM413.353 865.547C407.796 865.547 402.535 864.778 397.57 863.241C392.605 861.823 388.526 858.926 385.334 854.552C382.26 850.178 380.723 843.794 380.723 835.4V754.004C380.723 745.492 380.073 736.921 378.773 728.291C377.59 719.542 374.753 712.272 370.261 706.479C365.886 700.686 358.97 697.789 349.513 697.789C342.892 697.789 336.331 698.617 329.829 700.272C323.326 701.927 317.356 704.292 311.918 707.365C306.598 710.321 302.283 713.927 298.973 718.183C295.781 722.321 294.185 726.99 294.185 732.192H293.83C293.83 726.163 295.781 721.434 299.682 718.005C303.701 714.459 308.076 712.685 312.805 712.685C317.888 712.685 322.499 714.341 326.637 717.651C330.893 720.843 333.021 725.453 333.021 731.483C333.021 738.576 330.833 743.719 326.459 746.911C322.203 750.103 317.652 751.699 312.805 751.699C307.366 751.699 302.756 750.044 298.973 746.733C295.308 743.423 293.475 738.576 293.475 732.192C293.475 726.636 295.189 721.67 298.618 717.296C302.165 712.804 306.893 709.021 312.805 705.947C318.834 702.755 325.632 700.331 333.198 698.676C340.764 696.903 348.567 696.016 356.606 696.016C372.921 696.016 385.038 698.853 392.959 704.528C400.998 710.203 406.259 717.473 408.742 726.34C411.343 735.207 412.643 744.428 412.643 754.004V845.863C412.643 850.119 413.471 853.843 415.126 857.035C416.899 860.108 420.328 861.645 425.411 861.645C429.549 861.645 434.101 859.636 439.066 855.616C444.149 851.596 448.169 846.217 451.124 839.479L451.656 839.833C448.583 847.4 443.617 853.606 436.76 858.453C429.904 863.182 422.101 865.547 413.353 865.547ZM331.602 865.547C316.233 865.547 303.938 861.645 294.717 853.843C285.613 845.922 281.062 835.223 281.062 821.745C281.062 805.904 287.682 793.786 300.923 785.392C314.282 776.88 333.553 772.624 358.734 772.624H397.215V773.333H358.734C348.33 773.333 340.114 775.934 334.085 781.136C328.173 786.22 323.917 792.367 321.317 799.579C318.834 806.79 317.593 813.647 317.593 820.149C317.593 826.06 318.302 832.267 319.721 838.769C321.139 845.153 323.622 850.592 327.169 855.084C330.715 859.458 335.562 861.645 341.71 861.645C348.803 861.645 355.305 859.517 361.217 855.261C367.128 850.887 371.857 844.03 375.403 834.691C378.95 825.351 380.723 813.115 380.723 797.983H381.433C381.433 811.46 379.777 823.282 376.467 833.449C373.157 843.616 367.837 851.537 360.507 857.212C353.296 862.768 343.661 865.547 331.602 865.547ZM514.942 698.853V861.291H536.222V862H461.742V861.291H483.2V699.563H461.742V698.853H514.942ZM616.2 748.861V861.291H637.48V862H563V861.291H584.28V752.763C584.28 742.832 583.984 733.611 583.393 725.099C582.92 716.587 581.265 709.73 578.428 704.528C575.708 699.326 571.039 696.725 564.418 696.725C553.542 696.725 544.793 699.681 538.173 705.592C531.671 711.503 526.705 719.01 523.277 728.113C519.967 737.098 517.721 746.497 516.538 756.309C515.474 766.122 514.942 774.988 514.942 782.909L514.233 784.683C514.233 776.289 514.706 767.008 515.652 756.841C516.716 746.556 518.962 736.744 522.39 727.404C525.937 718.065 531.257 710.38 538.35 704.351C545.562 698.321 555.256 695.307 567.433 695.307C579.846 695.307 589.6 697.612 596.693 702.223C603.786 706.833 608.811 713.217 611.766 721.375C614.722 729.414 616.2 738.576 616.2 748.861ZM717.28 748.861V861.291H738.382V862H663.902V861.291H685.182V752.763C685.182 742.832 684.887 733.611 684.296 725.099C683.823 716.587 682.227 709.73 679.508 704.528C676.788 699.326 672.119 696.725 665.498 696.725C654.622 696.725 645.873 699.681 639.253 705.592C632.751 711.503 627.844 719.01 624.534 728.113C621.224 737.098 618.978 746.497 617.796 756.309C616.732 766.122 616.2 774.988 616.2 782.909L615.49 784.683C615.49 776.289 615.963 767.008 616.909 756.841C617.973 746.556 620.219 736.744 623.648 727.404C627.076 718.065 632.337 710.38 639.43 704.351C646.642 698.321 656.336 695.307 668.513 695.307C680.926 695.307 690.68 697.612 697.773 702.223C704.866 706.833 709.891 713.217 712.846 721.375C715.802 729.414 717.28 738.576 717.28 748.861ZM869.697 865.547C853.737 865.547 840.969 859.576 831.393 847.636C821.936 835.696 816.202 818.849 814.192 797.096V862H760.992V861.291H782.449V596.709H760.992V596H814.192V763.757C816.202 741.886 821.936 725.099 831.393 713.395C840.969 701.573 853.737 695.661 869.697 695.661C882.584 695.661 894.761 699.031 906.228 705.769C917.696 712.508 926.976 722.202 934.069 734.852C941.281 747.502 944.887 762.693 944.887 780.427C944.887 798.16 941.281 813.411 934.069 826.179C926.976 838.828 917.696 848.582 906.228 855.439C894.761 862.177 882.584 865.547 869.697 865.547ZM864.2 863.064C874.131 863.064 882.288 859.517 888.672 852.424C895.056 845.212 899.785 835.4 902.859 822.987C906.051 810.455 907.647 796.268 907.647 780.427C907.647 764.585 906.051 750.457 902.859 738.044C899.785 725.631 895.056 715.877 888.672 708.784C882.288 701.691 874.131 698.144 864.2 698.144C854.979 698.144 846.585 701.218 839.019 707.365C831.453 713.513 825.423 722.675 820.931 734.852C816.438 747.029 814.192 762.221 814.192 780.427C814.192 798.633 816.438 813.884 820.931 826.179C825.423 838.356 831.453 847.577 839.019 853.843C846.585 859.99 854.979 863.064 864.2 863.064ZM1044.43 865.547C1030.6 865.547 1020.08 863.241 1012.87 858.631C1005.66 853.902 1000.69 847.518 997.973 839.479C995.372 831.44 994.072 822.277 994.072 811.992V699.563H972.614V698.853H1025.81V808.091C1025.81 818.021 1026.23 827.243 1027.06 835.755C1027.88 844.267 1029.83 851.124 1032.91 856.325C1035.98 861.527 1040.83 864.128 1047.45 864.128C1060.1 864.128 1070.09 861.172 1077.42 855.261C1084.87 849.35 1090.3 841.902 1093.73 832.917C1097.28 823.814 1099.53 814.356 1100.47 804.544C1101.54 794.732 1102.07 785.865 1102.07 777.944L1102.95 776.171C1102.95 784.564 1102.48 793.904 1101.54 804.189C1100.59 814.356 1098.28 824.11 1094.62 833.449C1091.07 842.789 1085.34 850.473 1077.42 856.503C1069.5 862.532 1058.5 865.547 1044.43 865.547ZM1102.07 862V699.563H1077.24V698.853H1134.16V861.291H1155.44V862H1102.07ZM1230.49 782.909C1230.49 771.796 1231.14 761.038 1232.44 750.635C1233.74 740.231 1236.05 730.892 1239.36 722.616C1242.67 714.222 1247.34 707.602 1253.37 702.755C1259.4 697.789 1267.08 695.307 1276.42 695.307C1283.04 695.307 1288.72 696.666 1293.45 699.385C1298.29 701.986 1302.02 705.474 1304.62 709.848C1307.22 714.222 1308.52 719.01 1308.52 724.212C1308.52 730.241 1306.69 735.325 1303.02 739.463C1299.48 743.601 1294.45 745.669 1287.95 745.669C1281.21 745.669 1275.95 743.837 1272.17 740.172C1268.5 736.507 1266.67 732.015 1266.67 726.695C1266.67 719.72 1268.92 714.459 1273.41 710.912C1277.9 707.365 1282.69 705.592 1287.77 705.592C1291.67 705.592 1295.16 706.479 1298.23 708.252C1301.43 709.907 1303.91 712.153 1305.68 714.991C1307.46 717.71 1308.34 720.784 1308.34 724.212H1307.81C1307.81 719.129 1306.51 714.459 1303.91 710.203C1301.43 705.947 1297.82 702.518 1293.09 699.917C1288.48 697.317 1282.92 696.016 1276.42 696.016C1267.08 696.016 1259.46 698.499 1253.55 703.464C1247.64 708.429 1243.02 715.109 1239.71 723.503C1236.52 731.778 1234.28 741.118 1232.98 751.521C1231.79 761.807 1231.2 772.269 1231.2 782.909H1230.49ZM1231.2 698.853V861.291H1252.48V862H1178V861.291H1199.46V699.563H1178V698.853H1231.2ZM1404.57 954.213C1394.41 954.213 1384.71 953.268 1375.49 951.376C1366.27 949.603 1358.05 946.765 1350.84 942.864C1343.75 938.963 1338.13 933.997 1333.99 927.968C1329.98 921.939 1327.97 914.727 1327.97 906.333C1327.97 898.294 1329.8 891.556 1333.46 886.117C1337.25 880.797 1341.92 876.541 1347.47 873.349C1353.15 870.157 1358.82 867.852 1364.5 866.433C1370.29 865.133 1375.19 864.483 1379.21 864.483H1379.75C1371.83 869.448 1366.98 874.945 1365.21 880.975C1363.43 887.004 1362.55 894.216 1362.55 902.609C1362.55 910.057 1364.14 917.683 1367.33 925.485C1370.53 933.288 1375.49 939.849 1382.23 945.169C1388.97 950.489 1397.66 953.149 1408.3 953.149C1417.75 953.149 1426.56 951.79 1434.72 949.071C1442.88 946.47 1450.03 942.746 1456.18 937.899C1462.32 933.17 1467.11 927.554 1470.54 921.052C1474.09 914.55 1475.86 907.456 1475.86 899.772C1475.86 892.206 1473.67 885.881 1469.3 880.797C1464.93 875.714 1459.25 871.812 1452.28 869.093C1445.42 866.492 1438.15 865.192 1430.46 865.192C1427.98 865.192 1424.14 865.192 1418.94 865.192C1413.85 865.192 1408.71 865.192 1403.51 865.192C1398.43 865.192 1394.58 865.192 1391.98 865.192C1376.02 865.192 1363.25 862.946 1353.68 858.453C1344.1 853.961 1339.31 846.69 1339.31 836.641C1339.31 830.612 1340.91 825.41 1344.1 821.036C1347.29 816.662 1351.67 813.115 1357.23 810.396C1362.9 807.559 1369.4 805.49 1376.73 804.189C1384.06 802.771 1391.92 802.061 1400.32 802.061V802.771C1396.53 802.771 1392.51 803.184 1388.26 804.012C1384 804.721 1379.98 805.963 1376.2 807.736C1372.42 809.509 1369.34 811.756 1366.98 814.475C1364.61 817.194 1363.43 820.504 1363.43 824.405C1363.43 830.553 1366.74 834.277 1373.36 835.577C1379.98 836.76 1388.14 837.351 1397.83 837.351C1401.97 837.351 1405.34 837.351 1407.94 837.351C1410.66 837.232 1413.26 837.173 1415.75 837.173C1418.23 837.055 1421.12 836.996 1424.43 836.996C1431.05 836.996 1437.62 837.587 1444.12 838.769C1450.62 839.952 1456.47 842.375 1461.67 846.04C1466.99 849.705 1471.19 855.084 1474.27 862.177C1477.46 869.389 1479.05 879.024 1479.05 891.083C1479.05 901.604 1477.04 910.767 1473.02 918.569C1469.12 926.49 1463.68 933.052 1456.71 938.253C1449.73 943.573 1441.75 947.534 1432.77 950.135C1423.9 952.854 1414.5 954.213 1404.57 954.213ZM1400.32 802.771C1393.11 802.771 1385.78 801.825 1378.33 799.933C1370.88 797.924 1364.02 794.85 1357.76 790.712C1351.49 786.456 1346.41 780.9 1342.51 774.043C1338.72 767.186 1336.83 758.851 1336.83 749.039C1336.83 739.226 1338.72 730.951 1342.51 724.212C1346.41 717.355 1351.49 711.858 1357.76 707.72C1364.02 703.464 1370.88 700.39 1378.33 698.499C1385.78 696.489 1393.11 695.484 1400.32 695.484C1407.53 695.484 1414.74 696.489 1421.95 698.499C1429.28 700.39 1435.96 703.464 1441.99 707.72C1448.02 711.858 1452.87 717.355 1456.53 724.212C1460.2 730.951 1462.03 739.226 1462.03 749.039C1462.03 758.851 1460.2 767.186 1456.53 774.043C1452.87 780.9 1448.02 786.456 1441.99 790.712C1435.96 794.85 1429.28 797.924 1421.95 799.933C1414.74 801.825 1407.53 802.771 1400.32 802.771ZM1400.32 802.061C1407.29 802.061 1412.97 799.46 1417.34 794.259C1421.72 789.057 1424.91 782.436 1426.92 774.397C1429.05 766.24 1430.11 757.787 1430.11 749.039C1430.11 740.29 1429.05 731.897 1426.92 723.857C1424.91 715.7 1421.72 709.08 1417.34 703.996C1412.97 698.794 1407.29 696.193 1400.32 696.193C1393.34 696.193 1387.67 698.794 1383.29 703.996C1378.92 709.08 1375.67 715.7 1373.54 723.857C1371.53 731.897 1370.53 740.29 1370.53 749.039C1370.53 757.787 1371.06 766.24 1372.12 774.397C1373.19 782.436 1375.79 789.057 1379.92 794.259C1384.18 799.46 1390.98 802.061 1400.32 802.061ZM1494.84 743.364C1490.46 743.364 1486.38 741.827 1482.6 738.753C1478.82 735.68 1476.93 731.246 1476.93 725.453C1476.93 719.542 1478.82 715.345 1482.6 712.863C1486.5 710.262 1490.58 708.961 1494.84 708.961C1499.21 708.961 1503.35 710.262 1507.25 712.863C1511.27 715.345 1513.28 719.01 1513.28 723.857H1512.92C1512.92 717.592 1510.62 711.681 1506.01 706.124C1501.52 700.568 1494.84 697.789 1485.97 697.789C1481 697.789 1475.51 699.031 1469.48 701.513C1463.57 703.878 1458.07 708.075 1452.99 714.104C1447.9 720.015 1444.18 728.291 1441.81 738.931H1441.1C1443.47 727.936 1447.31 719.424 1452.63 713.395C1457.95 707.365 1463.63 703.169 1469.65 700.804C1475.8 698.321 1481.24 697.08 1485.97 697.08C1491.76 697.08 1496.73 698.381 1500.87 700.981C1505 703.582 1508.14 706.952 1510.26 711.089C1512.51 715.109 1513.63 719.365 1513.63 723.857C1513.63 731.424 1511.62 736.566 1507.6 739.285C1503.58 742.005 1499.33 743.364 1494.84 743.364ZM1622.54 865.547C1607.05 865.547 1593.04 862.177 1580.51 855.439C1568.09 848.582 1558.22 838.828 1550.89 826.179C1543.56 813.411 1539.9 798.16 1539.9 780.427C1539.9 762.693 1543.44 747.502 1550.54 734.852C1557.75 722.084 1567.5 712.331 1579.8 705.592C1592.09 698.735 1605.98 695.307 1621.47 695.307C1639.09 695.307 1653.27 698.853 1664.03 705.947C1674.79 712.922 1682.59 722.084 1687.44 733.433C1692.4 744.783 1694.89 756.901 1694.89 769.787H1563.66V769.077H1657.29C1657.41 762.102 1657.06 754.477 1656.23 746.201C1655.4 737.808 1653.75 729.828 1651.26 722.261C1648.9 714.577 1645.29 708.311 1640.45 703.464C1635.72 698.499 1629.39 696.016 1621.47 696.016C1612.72 696.016 1605.45 698.499 1599.66 703.464C1593.98 708.311 1589.49 714.873 1586.18 723.148C1582.87 731.305 1580.51 740.349 1579.09 750.28C1577.79 760.211 1577.14 770.26 1577.14 780.427C1577.14 790.476 1577.79 800.524 1579.09 810.573C1580.51 820.504 1582.93 829.548 1586.36 837.705C1589.91 845.744 1594.75 852.247 1600.9 857.212C1607.17 862.059 1615.15 864.483 1624.84 864.483C1643.28 864.483 1658.42 859.281 1670.24 848.877C1682.06 838.474 1690.16 825.942 1694.53 811.283H1695.24C1690.63 826.652 1682.3 839.538 1670.24 849.941C1658.18 860.345 1642.28 865.547 1622.54 865.547ZM1773.92 782.909C1773.92 771.796 1774.57 761.038 1775.87 750.635C1777.17 740.231 1779.48 730.892 1782.79 722.616C1786.1 714.222 1790.77 707.602 1796.8 702.755C1802.83 697.789 1810.51 695.307 1819.85 695.307C1826.47 695.307 1832.15 696.666 1836.88 699.385C1841.72 701.986 1845.45 705.474 1848.05 709.848C1850.65 714.222 1851.95 719.01 1851.95 724.212C1851.95 730.241 1850.12 735.325 1846.45 739.463C1842.9 743.601 1837.88 745.669 1831.38 745.669C1824.64 745.669 1819.38 743.837 1815.6 740.172C1811.93 736.507 1810.1 732.015 1810.1 726.695C1810.1 719.72 1812.34 714.459 1816.84 710.912C1821.33 707.365 1826.12 705.592 1831.2 705.592C1835.1 705.592 1838.59 706.479 1841.66 708.252C1844.86 709.907 1847.34 712.153 1849.11 714.991C1850.88 717.71 1851.77 720.784 1851.77 724.212H1851.24C1851.24 719.129 1849.94 714.459 1847.34 710.203C1844.86 705.947 1841.25 702.518 1836.52 699.917C1831.91 697.317 1826.35 696.016 1819.85 696.016C1810.51 696.016 1802.89 698.499 1796.98 703.464C1791.06 708.429 1786.45 715.109 1783.14 723.503C1779.95 731.778 1777.71 741.118 1776.4 751.521C1775.22 761.807 1774.63 772.269 1774.63 782.909H1773.92ZM1774.63 698.853V861.291H1795.91V862H1721.43V861.291H1742.89V699.563H1721.43V698.853H1774.63Z" fill="#3C4043"/>
</g>
<defs>
<clipPath id="clip0_3302_15486">
<rect width="1920" height="1080" fill="white"/>
</clipPath>
</defs>
</svg>
