<svg width="1920" height="1080" fill="none" xmlns="http://www.w3.org/2000/svg"><g clip-path="url(#a)"><path opacity=".5" fill-rule="evenodd" clip-rule="evenodd" d="M1585.42 819.578c0-1.257.01-2.516.01-3.775 0-345.353-279.97-625.317-625.32-625.317-345.353 0-625.317 279.964-625.317 625.317 0 1.255.004 2.509.011 3.762L958.482 618.76l626.938 200.818Z" fill="#D2E3FC"/><path fill-rule="evenodd" clip-rule="evenodd" d="M541.584 351.195 957.01 626.502l418.19-278.385c-110.41-98.068-255.79-157.631-415.087-157.631-160.953 0-307.703 60.81-418.529 160.709Z" fill="#1A73E8"/><path d="M1068.15 709.224s-10.4-4.735-11.35 9.468c-.96 14.186 0 26.499-7.57 25.545-7.56-.954-7.56-22.701-28.38-37.84-20.81-15.139-33.127-24.608-64.342-22.7v285.741s105.972 6.625 133.412-108.803l3.85-20.307s6.43 8.515 12.66 2.116c6.21-6.399 9.99-22.493-2.31-38.568-12.29-16.094-8.24-7.822-8.24-7.822l-27.73-86.83Z" fill="#E8F1FD"/><path d="M846.242 709.224s10.405-4.735 11.359 9.468c.954 14.186 0 26.499 7.561 25.545 7.561-.954 7.561-22.701 28.389-37.84 20.81-15.139 33.123-24.608 64.338-22.7v285.741s-105.976 6.625-133.411-108.803l-3.85-20.307s-6.433 8.515-12.659 2.116c-6.226-6.399-9.989-22.493 2.306-38.568 12.296-16.076 8.238-7.822 8.238-7.822l27.729-86.83Z" fill="#E8F1FD"/><path d="M1013.81 641.069s-9.38-10.092-23.796-17.307c-5.775-12.989-15.868-40.389-30.296-40.389h-2.879c-14.428 0-24.521 27.4-30.296 40.389-14.428 7.215-23.793 17.307-23.793 17.307" fill="#fff"/><path d="M1013.81 641.069s-9.38-10.092-23.796-17.307c-5.775-12.989-15.868-40.389-30.296-40.389h-2.879c-14.428 0-24.521 27.4-30.296 40.389-14.428 7.215-23.793 17.307-23.793 17.307M785.833 683.453s-87.021 65.934-137.139 68.57c-50.101 2.636-105.491 44.828-94.947 110.762 10.544 65.934 39.557 94.947 68.57 105.491 29.013 10.544 58.026 0 92.31 23.741 34.285 23.743 58.026 42.193 118.671 36.923 60.661-5.27 126.595-7.91 126.595-7.91" stroke="#3C4043" stroke-width="7.431" stroke-miterlimit="10" stroke-linecap="round" stroke-linejoin="round"/><path d="M1130.57 683.453s87.02 65.934 137.14 68.57c50.12 2.636 105.49 44.828 94.94 110.762-10.54 65.934-39.55 94.947-68.57 105.491-29.01 10.544-58.02 0-92.31 23.741-34.28 23.743-58.02 42.193-118.67 36.923-60.66-5.27-126.592-7.91-126.592-7.91" stroke="#3C4043" stroke-width="7.431" stroke-miterlimit="10" stroke-linecap="round" stroke-linejoin="round"/><path d="M949.024 618.854s2.116 25.301-37.961 23.203c-40.077-2.098-61.148 59.049-67.477 75.905-6.33 16.857-25.302 63.263-25.302 78.021-14.758 8.428-21.851 40.32-10.544 46.39 6.26 3.364 10.977-.677 12.66-2.116 0 0 14.758 126.526 128.624 128.625h17.55c113.866-2.116 128.626-128.625 128.626-128.625 1.66 1.439 6.38 5.463 12.66 2.116 11.3-6.07 4.21-37.962-10.55-46.39 0-14.758-18.97-61.147-25.3-78.021-6.33-16.873-27.42-78.021-67.47-75.905-40.064 2.116-37.966-23.203-37.966-23.203" stroke="#3C4043" stroke-width="7.431" stroke-miterlimit="10" stroke-linecap="round" stroke-linejoin="round"/><path d="m239.01 850.713 680.4-219.559m762.64 219.559L997.769 631.154M1458.61 291.93 986.906 606.327M456.243 294.658 929.16 607.166" stroke="#3C4043" stroke-width="4.092"/><path opacity=".5" d="m195.819 869.04 10.635-21.094-23.586 1.336 12.951 19.758Zm1528.061 0 12.95-19.758-23.59-1.336 10.64 21.094ZM196.046 815.847c0-421.836 341.965-763.801 763.801-763.801v-4.092c-424.095 0-767.893 343.798-767.893 767.893h4.092ZM959.847 52.046c421.833 0 763.803 341.965 763.803 763.801h4.09c0-424.095-343.8-767.893-767.893-767.893v4.092ZM196.821 850.563a776.433 776.433 0 0 1-.775-34.716h-4.092c0 11.696.262 23.331.779 34.899l4.088-.183Zm1526.829-34.716c0 11.635-.26 23.209-.78 34.716l4.09.183c.52-11.568.78-23.203.78-34.899h-4.09Z" fill="#3C4043"/><path d="m642.053 410.689 23.349-3.592-14.786-18.425-8.563 22.017Zm633.547-2.816-8.76-21.94-14.62 18.554 23.38 3.386Zm-617.929-7.095c83.766-64.719 188.813-103.224 302.86-103.224v-4.092c-114.984 0-220.905 38.825-305.362 104.078l2.502 3.238Zm302.86-103.224c112.469 0 216.189 37.447 299.369 100.554l2.47-3.26c-83.87-63.628-188.45-101.386-301.839-101.386v4.092Z" fill="#fff" fill-opacity=".5"/><path d="m631.072 722.42 6.009-5.091-7.413-2.658 1.404 7.749Zm658.918 0 1.4-7.749-7.41 2.658 6.01 5.091Zm-653.952-11.387a340.416 340.416 0 0 1 3.112-7.656l-1.258-.529a347.902 347.902 0 0 0-3.124 7.686l1.27.499Zm6.403-15.229a346.48 346.48 0 0 1 3.472-7.496l-1.231-.588a351.873 351.873 0 0 0-3.486 7.526l1.245.558Zm7.122-14.907a345.336 345.336 0 0 1 3.823-7.318l-1.202-.646a350.326 350.326 0 0 0-3.838 7.347l1.217.617Zm7.822-14.549a346.37 346.37 0 0 1 4.167-7.131l-1.169-.702a349.122 349.122 0 0 0-4.184 7.159l1.186.674Zm8.502-14.161a352.175 352.175 0 0 1 4.502-6.927l-1.135-.756a351.933 351.933 0 0 0-4.519 6.954l1.152.729Zm9.165-13.743a346.92 346.92 0 0 1 4.824-6.706l-1.098-.81a357.233 357.233 0 0 0-4.843 6.732l1.117.784Zm9.805-13.296a344.188 344.188 0 0 1 5.134-6.469l-1.059-.861a351.09 351.09 0 0 0-5.154 6.495l1.079.835Zm10.42-12.818a349.322 349.322 0 0 1 5.434-6.22l-1.017-.91a355.684 355.684 0 0 0-5.455 6.245l1.038.885Zm11.013-12.312a357.289 357.289 0 0 1 5.721-5.958l-.973-.956a356.172 356.172 0 0 0-5.743 5.981l.995.933Zm11.581-11.78a353.46 353.46 0 0 1 5.995-5.682l-.926-1.001a352.336 352.336 0 0 0-6.019 5.705l.95.978Zm12.123-11.221a349.53 349.53 0 0 1 6.257-5.394l-.879-1.043a347.631 347.631 0 0 0-6.281 5.415l.903 1.022Zm12.638-10.638a351.77 351.77 0 0 1 6.503-5.092l-.828-1.084a354.57 354.57 0 0 0-6.529 5.112l.854 1.064Zm13.126-10.03a346.854 346.854 0 0 1 6.736-4.779l-.776-1.121a349.515 349.515 0 0 0-6.762 4.797l.802 1.103Zm13.585-9.398a349.15 349.15 0 0 1 6.954-4.456l-.722-1.157a350.298 350.298 0 0 0-6.982 4.473l.75 1.14Zm14.013-8.745a346.776 346.776 0 0 1 7.161-4.122l-.667-1.19a347.541 347.541 0 0 0-7.189 4.138l.695 1.174Zm14.412-8.071a343.403 343.403 0 0 1 7.347-3.776l-.609-1.221a353.34 353.34 0 0 0-7.376 3.792l.638 1.205Zm14.782-7.377a344.11 344.11 0 0 1 7.515-3.421l-.55-1.248a351.687 351.687 0 0 0-7.545 3.434l.58 1.235Zm15.116-6.665a344.749 344.749 0 0 1 7.669-3.059l-.49-1.273a347.531 347.531 0 0 0-7.7 3.071l.521 1.261Zm15.412-5.935a350.74 350.74 0 0 1 7.813-2.692l-.429-1.294c-2.628.87-5.243 1.771-7.844 2.702l.46 1.284Zm15.679-5.193a345.752 345.752 0 0 1 7.933-2.315l-.367-1.314a348.377 348.377 0 0 0-7.963 2.324l.397 1.305Zm15.913-4.439a344.997 344.997 0 0 1 8.029-1.932l-.304-1.33a343.822 343.822 0 0 0-8.06 1.94l.335 1.322Zm16.111-3.675a343.74 343.74 0 0 1 8.104-1.546l-.239-1.343a351.777 351.777 0 0 0-8.137 1.552l.272 1.337Zm16.257-2.902c2.715-.418 5.441-.805 8.176-1.16l-.176-1.353c-2.746.357-5.482.746-8.208 1.165l.208 1.348Zm16.376-2.126c2.736-.29 5.48-.548 8.234-.774l-.112-1.359c-2.764.227-5.519.486-8.265.776l.143 1.357Zm16.462-1.352a352.33 352.33 0 0 1 8.259-.385l-.047-1.363c-2.772.097-5.536.226-8.291.387l.079 1.361Zm16.511-.577c1.38-.016 2.761-.025 4.144-.025v-1.363c-1.389 0-2.775.008-4.16.024l.016 1.364Zm4.144-.025c1.383 0 2.764.009 4.143.025l.016-1.364a359.991 359.991 0 0 0-4.159-.024v1.363Zm12.395.217c2.762.096 5.515.225 8.259.385l.08-1.361c-2.755-.161-5.519-.29-8.291-.387l-.048 1.363Zm16.487.963c2.754.226 5.499.484 8.234.774l.144-1.357a356.75 356.75 0 0 0-8.266-.776l-.112 1.359Zm16.437 1.74c2.73.355 5.46.742 8.17 1.16l.21-1.348c-2.72-.419-5.46-.808-8.21-1.165l-.17 1.353Zm16.33 2.516c2.71.484 5.41 1 8.1 1.546l.27-1.337c-2.7-.548-5.41-1.066-8.13-1.552l-.24 1.343Zm16.18 3.289c2.69.613 5.37 1.257 8.03 1.932l.34-1.322a360.27 360.27 0 0 0-8.06-1.94l-.31 1.33Zm16.01 4.056c2.66.741 5.3 1.513 7.93 2.315l.4-1.305c-2.64-.805-5.29-1.58-7.96-2.324l-.37 1.314Zm15.8 4.816c2.62.868 5.22 1.765 7.81 2.692l.46-1.284c-2.6-.931-5.21-1.832-7.84-2.702l-.43 1.294Zm15.56 5.568c2.57.99 5.12 2.01 7.67 3.059l.52-1.261a368.225 368.225 0 0 0-7.7-3.071l-.49 1.273Zm15.27 6.303c2.52 1.111 5.02 2.252 7.51 3.421l.58-1.235c-2.5-1.173-5.01-2.318-7.54-3.434l-.55 1.248Zm14.95 7.022c2.46 1.23 4.91 2.489 7.34 3.776l.64-1.205c-2.44-1.292-4.9-2.556-7.37-3.792l-.61 1.221Zm14.59 7.725a337.2 337.2 0 0 1 7.17 4.122l.69-1.174a334.957 334.957 0 0 0-7.19-4.138l-.67 1.19Zm14.22 8.411a343.89 343.89 0 0 1 6.96 4.456l.75-1.14a371.603 371.603 0 0 0-6.98-4.473l-.73 1.157Zm13.81 9.075c2.26 1.567 4.51 3.16 6.73 4.779l.81-1.103a350.073 350.073 0 0 0-6.77-4.797l-.77 1.121Zm13.36 9.717c2.18 1.672 4.35 3.37 6.5 5.092l.85-1.064a326.61 326.61 0 0 0-6.53-5.112l-.82 1.084Zm12.88 10.336c2.11 1.774 4.19 3.572 6.26 5.394l.9-1.022c-2.07-1.83-4.17-3.635-6.28-5.415l-.88 1.043Zm12.39 10.933c2.02 1.871 4.01 3.765 5.99 5.682l.95-.979a338.237 338.237 0 0 0-6.02-5.704l-.92 1.001Zm11.85 11.504a338.22 338.22 0 0 1 5.72 5.958l1-.933c-1.89-2.016-3.81-4.01-5.75-5.981l-.97.956Zm11.3 12.05c1.84 2.051 3.65 4.125 5.43 6.22l1.04-.885a347.283 347.283 0 0 0-5.45-6.245l-1.02.91Zm10.72 12.569c1.74 2.135 3.45 4.292 5.13 6.469l1.08-.835a350.883 350.883 0 0 0-5.15-6.495l-1.06.861Zm10.12 13.059c1.63 2.215 3.24 4.451 4.82 6.706l1.12-.783a358.918 358.918 0 0 0-4.85-6.733l-1.09.81Zm9.48 13.522c1.53 2.29 3.03 4.6 4.5 6.927l1.16-.729a366.112 366.112 0 0 0-4.52-6.954l-1.14.756Zm8.84 13.957a325.12 325.12 0 0 1 4.17 7.131l1.18-.674a327.426 327.426 0 0 0-4.18-7.159l-1.17.702Zm8.17 14.362c1.3 2.423 2.57 4.862 3.82 7.318l1.21-.617a378.047 378.047 0 0 0-3.83-7.346l-1.2.645Zm7.47 14.729c1.18 2.483 2.34 4.982 3.47 7.496l1.24-.558a337.573 337.573 0 0 0-3.48-7.526l-1.23.588Zm6.76 15.069a298.95 298.95 0 0 1 3.11 7.656l1.27-.499a340.975 340.975 0 0 0-3.12-7.685l-1.26.528ZM631.072 722.42l12.017-10.181-14.825-5.316 2.808 15.497Zm658.918 0 2.81-15.497-14.83 5.316 12.02 10.181Zm-653.318-11.138a348.747 348.747 0 0 1 3.106-7.641l-2.514-1.057a349.287 349.287 0 0 0-3.131 7.701l2.539.997Zm6.391-15.199a349.93 349.93 0 0 1 3.465-7.481l-2.461-1.176a353.2 353.2 0 0 0-3.493 7.54l2.489 1.117Zm7.108-14.877a353.514 353.514 0 0 1 3.815-7.304l-2.402-1.291a349.214 349.214 0 0 0-3.846 7.361l2.433 1.234Zm7.806-14.521a347.733 347.733 0 0 1 4.16-7.117l-2.339-1.404a350.481 350.481 0 0 0-4.192 7.173l2.371 1.348Zm8.486-14.133a347.824 347.824 0 0 1 4.493-6.913l-2.269-1.514a348.857 348.857 0 0 0-4.528 6.968l2.304 1.459Zm9.147-13.717a348.63 348.63 0 0 1 4.815-6.692l-2.196-1.619a350.964 350.964 0 0 0-4.852 6.745l2.233 1.566Zm9.786-13.269a347.002 347.002 0 0 1 5.124-6.457l-2.117-1.721a352.413 352.413 0 0 0-5.164 6.507l2.157 1.671Zm10.4-12.793a351.564 351.564 0 0 1 5.423-6.209l-2.033-1.818a349.936 349.936 0 0 0-5.466 6.257l2.076 1.77Zm10.991-12.288a352.114 352.114 0 0 1 5.71-5.947l-1.945-1.912a353.608 353.608 0 0 0-5.754 5.993l1.989 1.866Zm11.559-11.757a351.86 351.86 0 0 1 5.983-5.671l-1.853-2.002a357.378 357.378 0 0 0-6.03 5.715l1.9 1.958Zm12.099-11.2a351.684 351.684 0 0 1 6.245-5.383l-1.757-2.087a352.996 352.996 0 0 0-6.293 5.425l1.805 2.045Zm12.613-10.617a350.442 350.442 0 0 1 6.491-5.082l-1.656-2.168a351.743 351.743 0 0 0-6.542 5.123l1.707 2.127Zm13.101-10.01a345.527 345.527 0 0 1 6.723-4.77l-1.552-2.243a346.655 346.655 0 0 0-6.776 4.807l1.605 2.206Zm13.558-9.381a350.676 350.676 0 0 1 6.941-4.446l-1.444-2.314a351.589 351.589 0 0 0-6.995 4.481l1.498 2.279Zm13.986-8.727a345.424 345.424 0 0 1 7.147-4.114l-1.333-2.38a346.276 346.276 0 0 0-7.203 4.146l1.389 2.348Zm14.384-8.055a349.2 349.2 0 0 1 7.333-3.769l-1.218-2.441a352.271 352.271 0 0 0-7.391 3.799l1.276 2.411Zm14.753-7.363a344.895 344.895 0 0 1 7.5-3.414l-1.1-2.496a348.227 348.227 0 0 0-7.56 3.441l1.16 2.469Zm15.086-6.652a348.309 348.309 0 0 1 7.654-3.053l-.98-2.545a348.887 348.887 0 0 0-7.715 3.077l1.041 2.521Zm15.381-5.923a344.44 344.44 0 0 1 7.799-2.686l-.858-2.59a349.871 349.871 0 0 0-7.86 2.708l.919 2.568Zm15.649-5.183c2.626-.8 5.265-1.571 7.917-2.31l-.733-2.628a348.302 348.302 0 0 0-7.979 2.329l.795 2.609Zm15.882-4.43a348.697 348.697 0 0 1 8.012-1.929l-.606-2.659a349.057 349.057 0 0 0-8.076 1.944l.67 2.644Zm16.079-3.668c2.685-.545 5.381-1.06 8.088-1.543l-.479-2.685a347.906 347.906 0 0 0-8.153 1.555l.544 2.673Zm16.225-2.896c2.71-.417 5.43-.803 8.16-1.158l-.351-2.705a352.16 352.16 0 0 0-8.225 1.167l.416 2.696Zm16.344-2.122c2.73-.289 5.469-.547 8.218-.772l-.223-2.719c-2.77.227-5.531.487-8.282.778l.287 2.713Zm16.43-1.349c2.739-.16 5.487-.288 8.243-.385l-.095-2.726a355.92 355.92 0 0 0-8.307.388l.159 2.723Zm16.479-.576c1.377-.017 2.755-.025 4.136-.025v-2.727c-1.391 0-2.78.008-4.168.024l.032 2.728Zm4.136-.025c1.38 0 2.759.008 4.135.025l.032-2.728a361.248 361.248 0 0 0-4.167-.024v2.727Zm12.371.216c2.756.097 5.504.225 8.243.385l.16-2.723c-2.761-.161-5.53-.291-8.307-.388l-.096 2.726Zm16.456.962c2.748.225 5.487.483 8.217.772l.288-2.713a352.681 352.681 0 0 0-8.282-.778l-.223 2.719Zm16.402 1.736c2.73.355 5.45.741 8.16 1.158l.42-2.696c-2.74-.42-5.48-.81-8.23-1.167l-.35 2.705Zm16.3 2.511c2.7.483 5.4.998 8.08 1.543l.55-2.673c-2.71-.55-5.43-1.068-8.15-1.555l-.48 2.685Zm16.15 3.282c2.68.613 5.35 1.256 8.01 1.929l.67-2.644c-2.68-.679-5.37-1.327-8.07-1.944l-.61 2.659Zm15.98 4.049c2.65.739 5.29 1.51 7.92 2.31l.79-2.609c-2.65-.807-5.31-1.583-7.98-2.329l-.73 2.628Zm15.77 4.807c2.61.865 5.21 1.761 7.79 2.686l.92-2.568c-2.6-.933-5.22-1.835-7.86-2.708l-.85 2.59Zm15.52 5.556c2.57.989 5.12 2.006 7.66 3.053l1.04-2.521a349.285 349.285 0 0 0-7.72-3.077l-.98 2.545Zm15.24 6.291c2.52 1.109 5.02 2.247 7.5 3.414l1.16-2.469c-2.5-1.176-5.02-2.323-7.56-3.441l-1.1 2.496Zm14.92 7.008c2.46 1.228 4.91 2.485 7.33 3.769l1.28-2.411a362.334 362.334 0 0 0-7.39-3.799l-1.22 2.441Zm14.57 7.71c2.4 1.344 4.78 2.715 7.15 4.114l1.39-2.348c-2.39-1.41-4.79-2.792-7.21-4.146l-1.33 2.38Zm14.19 8.395c2.34 1.455 4.65 2.938 6.94 4.446l1.5-2.279a338.498 338.498 0 0 0-6.99-4.481l-1.45 2.314Zm13.78 9.057c2.26 1.564 4.5 3.154 6.72 4.77l1.61-2.206a346.93 346.93 0 0 0-6.78-4.807l-1.55 2.243Zm13.33 9.698a322.68 322.68 0 0 1 6.49 5.082l1.71-2.128c-2.16-1.732-4.34-3.44-6.54-5.122l-1.66 2.168Zm12.86 10.316c2.1 1.77 4.19 3.565 6.25 5.383l1.8-2.045a329.683 329.683 0 0 0-6.29-5.425l-1.76 2.087Zm12.36 10.912c2.02 1.867 4.01 3.757 5.99 5.671l1.9-1.958c-1.99-1.929-4-3.834-6.04-5.715l-1.85 2.002Zm11.83 11.481c1.93 1.96 3.83 3.942 5.71 5.947l1.99-1.866a338.51 338.51 0 0 0-5.75-5.993l-1.95 1.912Zm11.28 12.026c1.83 2.048 3.64 4.118 5.43 6.209l2.07-1.77c-1.8-2.108-3.62-4.194-5.46-6.257l-2.04 1.818Zm10.7 12.545c1.73 2.131 3.44 4.284 5.13 6.457l2.15-1.671c-1.69-2.19-3.42-4.359-5.16-6.507l-2.12 1.721Zm10.1 13.034c1.63 2.211 3.23 4.442 4.81 6.693l2.23-1.567c-1.59-2.268-3.2-4.517-4.85-6.745l-2.19 1.619Zm9.46 13.496c1.53 2.285 3.03 4.59 4.5 6.913l2.3-1.459a324.23 324.23 0 0 0-4.53-6.968l-2.27 1.514Zm8.82 13.929c1.42 2.355 2.8 4.727 4.16 7.117l2.38-1.348c-1.37-2.409-2.77-4.8-4.2-7.173l-2.34 1.404Zm8.16 14.334c1.29 2.418 2.57 4.853 3.81 7.304l2.43-1.234a331.161 331.161 0 0 0-3.84-7.361l-2.4 1.291Zm7.45 14.7c1.19 2.478 2.34 4.972 3.47 7.481l2.49-1.117c-1.14-2.529-2.3-5.042-3.5-7.54l-2.46 1.176Zm6.75 15.04a337.22 337.22 0 0 1 3.11 7.64l2.54-.997a399.796 399.796 0 0 0-3.13-7.701l-2.52 1.058Z" fill="#FF6D7F"/></g><defs><clipPath id="a"><path fill="#fff" d="M0 0h1920v1080H0z"/></clipPath></defs></svg>