<svg width="1920" height="1080" fill="none" xmlns="http://www.w3.org/2000/svg"><rect x="1216" y="813" width="218" height="50" rx="25" fill="#D2E3FC"/><rect x="1215" y="813" width="196" height="50" rx="25" fill="#1A73E8"/><rect x="486" y="813" width="218" height="50" rx="25" fill="#D2E3FC"/><rect x="486" y="813" width="50" height="50" rx="25" fill="#1A73E8"/><path d="M342.777 627.939c-5.99 0-11.393-.822-16.209-2.584-4.815-1.644-9.044-4.111-12.802-7.165-3.759-3.054-7.165-6.695-10.102-10.806h-3.641l-7.282 16.092h-48.628v-206.96l62.605-4.581v82.925h4.463c2.35-4.111 5.051-7.517 8.105-10.101 3.054-2.584 6.46-4.464 10.336-5.638 3.876-1.175 8.105-1.762 12.803-1.762 11.981 0 21.965 3.406 29.834 10.101 7.87 6.695 13.743 15.739 17.619 27.133 3.876 11.393 5.755 24.079 5.755 38.056 0 13.038-1.879 25.371-5.52 36.764-3.759 11.511-9.514 20.79-17.266 27.838-7.753 7.047-17.854 10.688-30.187 10.688h.117Zm-25.605-52.151c3.054 0 5.755-1.057 7.987-3.289 2.232-2.231 3.876-5.05 5.051-8.457 1.174-3.406 1.644-7.047 1.644-10.806a39.06 39.06 0 0 0-1.644-11.276c-1.058-3.523-2.819-6.225-4.934-8.339-2.114-2.114-4.815-3.171-7.987-3.171-1.409 0-2.819.234-4.111.704a15.304 15.304 0 0 0-3.641 1.88c-1.057.704-1.997 1.644-2.701 2.584v32.418a12.462 12.462 0 0 0 2.114 3.876c.939 1.175 2.114 2.114 3.523 2.936 1.41.705 3.054 1.175 4.816 1.175l-.117-.235ZM411.26 623.362V481.826l51.916-2.819 2.819 22.786h4.816c3.523-6.577 7.165-11.628 10.923-15.152 3.759-3.523 7.752-5.99 11.746-7.282 3.993-1.292 7.987-1.997 12.098-1.997 1.644 0 3.759.235 6.46.588 2.702.352 5.286 1.174 7.635 2.231l-5.403 60.021h-21.377c-2.584 0-4.816.235-6.813.587-1.997.353-3.759.94-5.285 1.645-1.527.704-2.819 1.644-3.994 2.584a13.592 13.592 0 0 0-2.819 3.054v75.29H411.26ZM564.18 471.725c-10.806 0-19.38-2.349-25.606-7.164-6.225-4.699-9.396-12.568-9.396-23.609 0-9.514 3.171-16.797 9.396-22.082 6.226-5.168 14.917-7.87 25.841-7.87 10.923 0 19.498 2.702 25.606 8.222 6.225 5.403 9.279 12.685 9.279 21.73 0 11.041-3.172 18.91-9.397 23.609-6.225 4.698-14.917 7.164-25.84 7.164h.117Zm-31.126 151.638V481.827l62.605-1.645v143.181h-62.605ZM695.154 627.943c-19.733 0-35.707-3.172-47.923-9.632-12.215-6.46-21.142-15.269-26.78-26.545-5.638-11.276-8.457-24.314-8.457-39.114 0-14.799 2.584-27.837 7.635-39.113s12.92-20.202 23.491-26.545c10.572-6.343 24.197-9.632 40.758-9.632 13.86 0 25.723 2.232 35.472 6.813 9.749 4.463 17.266 11.511 22.435 21.025 5.168 9.514 7.752 21.847 7.752 36.999 0 3.993 0 7.635-.353 10.688a111.96 111.96 0 0 1-1.057 9.045l-52.738-17.149c.235-1.175.352-2.349.47-3.524 0-1.174.117-2.349.117-3.289 0-6.342-1.057-11.511-3.289-15.269-2.114-3.759-4.933-5.638-8.339-5.638-2.349 0-4.581.822-6.695 2.584-2.114 1.644-3.876 4.346-5.168 8.105-1.292 3.758-1.997 8.574-1.997 14.682v11.041c0 5.403 1.057 9.749 3.289 13.272 2.231 3.524 5.755 6.226 10.453 7.987 4.816 1.762 11.041 2.702 18.911 2.702 3.054 0 6.93-.352 11.863-1.057s10.102-1.762 15.505-3.054c5.403-1.41 10.336-3.054 14.917-5.168l1.996 51.329c-3.758 1.409-8.221 2.819-13.272 4.111-5.051 1.292-10.924 2.349-17.384 3.171-6.577.822-13.742 1.175-21.729 1.175h.117Zm-59.786-66.011v-23.139l76.935-2.819 35.824 3.406v22.552H635.368ZM758.586 527.868v-45.926h111.35v45.926h-111.35Zm19.733 95.61v-150.58c0-12.45 1.762-22.552 5.168-30.421 3.406-7.87 8.222-14.095 14.095-18.441 5.873-4.464 12.568-7.517 20.085-9.162 7.517-1.644 15.152-2.584 23.139-2.584 5.403 0 10.336.235 15.035.822 4.698.47 8.809 1.175 12.45 1.997 3.641.822 6.46 1.644 8.692 2.584l-4.463 49.919c-3.642-1.409-7.283-2.584-10.806-3.406a38.88 38.88 0 0 0-9.984-1.292c-3.994 0-7.165.822-9.749 2.584-2.584 1.762-3.759 4.816-3.759 9.279v7.283l2.819 9.044v132.492h-62.605l-.117-.118ZM1138.53 627.941c-4.35 0-8.69-.704-13.27-2.231-4.47-1.41-8.93-3.641-13.39-6.695-4.47-3.054-8.58-6.93-12.57-11.746h-3.64l-7.28 16.092h-53.56c1.64-9.749 2.81-19.263 3.75-28.425.94-9.162 1.3-19.733 1.3-31.596v-78.931c0-11.159-.71-22.317-2.24-33.358-1.4-11.041-3.99-22.435-7.63-34.063l79.17-5.638c-1.77 10.806-3.41 22.317-4.7 34.415-1.29 12.098-2 25.019-2 38.526v10.454h4.46c2.94-3.876 6.11-7.048 9.4-9.632 3.41-2.584 6.93-4.581 10.57-5.873 3.64-1.292 7.4-1.996 11.28-1.996 11.98 0 21.96 3.406 29.83 10.101 7.87 6.695 13.74 15.739 17.62 27.133 3.88 11.393 5.76 24.078 5.76 38.056 0 13.038-1.88 25.371-5.52 36.764-3.76 11.511-9.52 20.79-17.27 27.837-7.75 7.048-17.85 10.689-30.19 10.689l.12.117Zm-25.61-52.151c3.06-.234 5.76-1.527 7.99-3.641 2.23-2.114 3.88-4.933 5.05-8.222 1.18-3.289 1.65-6.93 1.65-10.688 0-3.994-.59-7.753-1.65-11.041-1.17-3.289-2.82-6.108-4.93-8.222-2.11-2.115-4.82-3.289-7.99-3.642-1.41 0-2.7.353-3.99.823a16.314 16.314 0 0 0-3.52 1.761c-1.06.705-2 1.645-2.94 2.585v32.418c.7 1.409 1.41 2.701 2.35 3.758a12.815 12.815 0 0 0 3.4 2.702c1.3.705 2.82 1.175 4.7 1.527l-.12-.118ZM1204.55 623.359c1.64-9.749 2.81-19.263 3.75-28.425.94-9.161 1.3-19.732 1.3-31.596v-14.094c0-11.159-.71-22.317-2-33.358-1.41-11.041-3.88-22.435-7.52-34.063l61.43-2.819 2.82 22.787h4.82c3.87-5.403 7.63-9.984 11.39-13.625 3.76-3.641 7.52-6.343 11.39-8.222 3.88-1.88 7.76-2.702 11.87-2.702 1.64 0 3.76.118 6.46.47 2.7.235 5.28 1.057 7.63 2.349l-5.4 64.837c-3.76-1.175-7.64-2.232-11.75-3.289-3.99-1.057-7.28-1.527-9.75-1.527-1.76 0-3.64.235-5.52.587-1.88.47-3.76 1.057-5.52 1.879-1.76.823-3.29 1.645-4.7 2.585-1.4.939-2.46 1.879-3.17 2.936v18.911c0 9.984.47 19.38 1.3 28.307.82 8.927 2.11 18.323 3.75 28.072h-72.7.12ZM1327.17 623.36c1.64-9.749 2.81-19.263 3.75-28.424.94-9.162 1.3-19.733 1.3-31.596v-14.095c0-10.337-.24-19.381-.83-27.016a315.624 315.624 0 0 0-1.99-21.024 599.841 599.841 0 0 0-2.82-19.263l73.88-1.645c-1.18 6.578-2.12 13.155-2.94 19.733a335.68 335.68 0 0 0-1.99 21.612c-.47 7.87-.71 17.031-.71 27.72v14.095c0 11.863.47 22.317 1.29 31.596.83 9.279 2.12 18.676 3.76 28.425h-72.7v-.118Zm36.17-151.637c-12.21 0-21.14-2.232-26.66-6.578-5.52-4.463-8.34-13.038-8.34-25.84 0-9.045 2.82-15.975 8.34-20.908 5.52-4.933 14.56-7.282 26.9-7.282 12.33 0 21.26 2.584 26.66 7.869 5.52 5.286 8.22 12.686 8.22 22.317 0 11.863-2.82 19.851-8.34 24.079-5.52 4.229-14.56 6.343-26.9 6.343h.12ZM1494.55 627.943c-19.73 0-35.7-3.172-47.92-9.632-12.22-6.46-21.14-15.269-26.78-26.545-5.64-11.276-8.46-24.314-8.46-39.114 0-14.799 2.59-27.837 7.64-39.113s12.92-20.202 23.49-26.545c10.57-6.343 24.2-9.632 40.76-9.632 13.86 0 25.72 2.232 35.47 6.813 9.75 4.463 17.26 11.511 22.43 21.025 5.17 9.514 7.76 21.847 7.76 36.999 0 3.993 0 7.635-.36 10.688-.23 3.054-.58 6.108-1.05 9.045l-52.74-17.149c.23-1.175.23-2.232.23-3.289v-2.936c0-6.343-1.05-11.511-3.29-15.27-2.23-3.758-4.81-5.873-7.98-6.108-2.35.353-4.58 1.645-6.7 3.759-2.11 2.114-3.87 5.168-5.17 9.279-1.29 3.994-1.99 9.162-1.99 15.27v8.222c0 5.403 1.05 9.749 3.29 13.272 2.23 3.524 5.75 6.226 10.45 7.987 4.81 1.762 11.04 2.702 18.91 2.702 2.94 0 6.81-.47 11.75-1.527 4.93-1.057 10.1-2.232 15.62-3.641 5.52-1.41 10.45-2.819 14.91-4.229l2 51.916c-4.11.94-8.69 1.997-13.86 3.289-5.05 1.175-10.81 2.349-17.15 3.289-6.34.94-13.51 1.41-21.49 1.41l.23-.235Zm-59.78-66.011v-23.139l76.93-2.819 35.83 3.406v22.552h-112.76ZM1557.98 532.918v-51.094h111.35v50.977c-8.22-1.879-15.85-3.289-23.02-4.346-7.16-.94-14.56-1.644-22.08-1.879h-28.78l-37.47 6.225v.117Zm14.69 90.443c1.64-9.749 2.82-19.263 3.76-28.425.93-9.162 1.29-19.733 1.29-31.596v-14.095c0-5.403-.12-11.511-.47-18.441s-.71-13.977-1.18-21.26c-.47-7.282-.82-14.095-1.17-20.555-.35-6.46-.47-11.863-.47-16.326 0-12.451 1.88-22.552 5.75-30.422 3.88-7.869 8.93-14.095 15.27-18.441 6.35-4.463 13.51-7.517 21.26-9.161 7.76-1.645 15.74-2.584 23.73-2.584 4.11 0 8.57.117 13.39.47 4.82.234 9.28.587 13.27 1.057 4.11.469 7.17.822 9.4 1.057l-4.46 52.738c-3.53-1.174-7.76-2.232-12.81-3.289-5.05-1.057-8.69-1.527-10.8-1.527-4 0-7.52.588-10.57 1.645-3.06 1.057-4.7 3.876-4.7 8.222 0 1.762.82 3.641 2.46 5.403 1.65 1.762 3.88 3.171 6.82 3.876l-2 9.044v72.471c0 11.864.47 22.317 1.29 31.596.82 9.162 2.12 18.676 3.76 28.425h-72.71l-.11.118Z" fill="#3C4043"/></svg>