<svg width="1920" height="1080" fill="none" xmlns="http://www.w3.org/2000/svg"><rect x="1216" y="813" width="218" height="50" rx="25" fill="#D2E3FC"/><rect x="1215" y="813" width="197" height="50" rx="25" fill="#1A73E8"/><rect x="486" y="813" width="218" height="50" rx="25" fill="#D2E3FC"/><rect x="486" y="813" width="50" height="50" rx="25" fill="#1A73E8"/><path d="M971.027 650.371a27.949 27.949 0 0 1 8.508-21.331 68.663 68.663 0 0 1 22.285-13.742l11.19 7.63a49.843 49.843 0 0 0-11.15 9.028 18.55 18.55 0 0 0-4.509 12.823c0 6.444 3.999 11.77 11.979 15.978 7.99 4.208 20.58 6.391 37.75 6.551 17.74 0 30.64-1.877 38.71-5.552s11.98-9.188 11.98-16.459a9.495 9.495 0 0 0-1.56-5.599 9.49 9.49 0 0 0-4.55-3.628c-4.07-1.784-18.57-2.69-43.5-2.716a122.817 122.817 0 0 1-49.251-8.548c-12.969-5.699-19.467-15.167-19.494-28.402a30.672 30.672 0 0 1 9.867-23.369 54.587 54.587 0 0 1 23.208-13.022l9.07 13.502a67.645 67.645 0 0 0-13.66 7.989 13.22 13.22 0 0 0-3.74 4.851 13.367 13.367 0 0 0-1.14 6.014c0 4.594 2.88 7.59 8.63 8.908 5.75 1.319 19.06 2.038 39.95 2.038 26.63 0 46.24 2.996 58.84 8.988 12.59 5.991 18.92 15.019 18.97 27.082 0 13.555-6.18 25.033-18.53 34.434-12.36 9.4-33.98 14.128-64.87 14.181-25.33 0-44.2-3.409-56.608-10.227-12.144-6.591-18.375-15.778-18.375-27.402Zm11.664-130.703a57.597 57.597 0 0 1 17.339-43.382c11.53-11.158 26.88-16.737 46.05-16.737 19.18 0 34.62 5.206 46.34 15.619 11.67 10.386 17.51 25.033 17.54 43.94a63.9 63.9 0 0 1-17.18 45.059c-11.48 12.357-26.8 18.522-45.98 18.495-19.17-.026-34.67-5.725-46.49-17.097-11.747-11.531-17.619-26.83-17.619-45.897Zm29.759-.879c0 13.542 3.08 23.968 9.27 30.998a30.575 30.575 0 0 0 10.96 8.136 30.618 30.618 0 0 0 13.4 2.569c4.65.272 9.3-.474 13.62-2.185a31.907 31.907 0 0 0 11.43-7.721c5.83-6.631 8.75-16.751 8.75-30.359a37.975 37.975 0 0 0-9.19-27.084 31.54 31.54 0 0 0-11.07-7.57 31.624 31.624 0 0 0-13.22-2.296c-4.56-.283-9.13.36-13.43 1.891a33.897 33.897 0 0 0-11.61 7.017c-5.94 5.938-8.91 14.807-8.91 26.604Zm49.45-38.109-2.15-17.975h71.9v26.604l-69.75-8.629ZM1139.28 613.581v-19.693l23.29-5.033.28-51.051-.28-113.886-26.73-4.314v-21.731l48.9-4.873 5.31.279 3.31 4.474-.28 140.051.28 51.051 22.69 5.033v19.693h-76.77ZM1229.43 573.635c0-14.674 7.67-27.23 23.01-37.67 15.34-10.439 44.01-16.231 86-17.376l1.44 17.816c-28.36.48-48.64 3.542-60.84 9.187-11.98 5.673-18.25 13.662-18.25 23.968-.28 3.651.4 7.311 1.96 10.622a21.179 21.179 0 0 0 6.95 8.272 37.56 37.56 0 0 0 21.45 5.952 36.493 36.493 0 0 0 21.25-6.87 50.216 50.216 0 0 0 13.7-12.823l.4-60.957c0-12.463-1.92-21.212-6.11-26.165-4.2-4.953-11.31-7.51-21.49-7.51-6.4-.042-12.78.547-19.06 1.758a32.173 32.173 0 0 0-12.3 4.314 17.495 17.495 0 0 1 6.63 5.792 14.996 14.996 0 0 1 2.28 8.269 13.437 13.437 0 0 1-4 9.347 15.19 15.19 0 0 1-5.41 3.507c-2.03.772-4.2 1.101-6.37.967a18.355 18.355 0 0 1-12.66-4.593 17.936 17.936 0 0 1-4.12-6.489 18.09 18.09 0 0 1-1.04-7.612 29.546 29.546 0 0 1 4.26-15.46 29.497 29.497 0 0 1 11.72-10.945 78.254 78.254 0 0 1 40.55-9.547c17.73 0 31.51 4.554 41.34 13.662 9.83 9.107 14.85 24.74 15.06 46.897l.72 68.866 21.25 5.034v19.733h-41.82l-6.47-7.191-2.04-14.5a46.031 46.031 0 0 1-17.62 15.978 64.758 64.758 0 0 1-33.55 7.989 51.461 51.461 0 0 1-33.16-10.705c-9.06-7.15-13.66-17.616-13.66-31.517ZM1391.66 613.582v-18.096l86.12-109.012h-57.52l-4 20.692h-20.69v-44.58h119.08v17.976l-86.44 110.171h63.27l4-20.732h21.57v43.581h-125.39ZM1536.18 538.203a80.943 80.943 0 0 1 20.33-55.925 68.586 68.586 0 0 1 24.32-17.413 68.492 68.492 0 0 1 29.41-5.396c20.4 0 36.38 5.486 47.94 16.458 11.55 10.972 18.21 27.11 19.97 48.415v15.978h-113.01v-20.692h84.85c-1.84-12.676-6.25-21.997-13.22-27.962a40.706 40.706 0 0 0-27.05-8.828c-5.8-.265-11.58.845-16.87 3.24a36.857 36.857 0 0 0-13.57 10.541c-7.32 9.214-10.93 21.917-10.82 38.108 0 17.87 4.89 31.877 14.66 42.024a48.291 48.291 0 0 0 16.63 11.515 48.303 48.303 0 0 0 19.88 3.704c8.35.228 16.69-.81 24.73-3.076a57.338 57.338 0 0 0 17.13-8.548l11.67 15.379a55.937 55.937 0 0 1-21.17 14.86 86.505 86.505 0 0 1-34.64 6.112c-24.37 0-43.95-7.204-58.76-21.611-14.81-14.407-22.27-33.368-22.41-56.883Z" fill="#D2E3FC"/><path d="M241.568 650.371a27.949 27.949 0 0 1 8.508-21.331 68.632 68.632 0 0 1 22.29-13.742l11.185 7.63a49.793 49.793 0 0 0-11.145 9.028 18.53 18.53 0 0 0-4.514 12.823c0 6.444 3.994 11.77 11.984 15.978 7.989 4.208 20.572 6.391 37.748 6.551 17.736 0 30.639-1.877 38.708-5.552 8.069-3.675 11.984-9.188 11.984-16.459a9.465 9.465 0 0 0-6.112-9.227c-4.074-1.784-18.575-2.69-43.501-2.716a122.817 122.817 0 0 1-49.253-8.548c-12.969-5.699-19.467-15.167-19.494-28.402a30.672 30.672 0 0 1 9.867-23.369 54.573 54.573 0 0 1 23.209-13.022l9.067 13.502a67.873 67.873 0 0 0-13.661 7.989 13.181 13.181 0 0 0-4.874 10.865c0 4.594 2.876 7.59 8.628 8.908 5.753 1.319 19.055 2.038 39.946 2.038 26.631 0 46.245 2.996 58.841 8.988 12.596 5.991 18.921 15.019 18.974 27.082 0 13.555-6.178 25.033-18.535 34.434-12.356 9.4-33.98 14.128-64.872 14.181-25.325 0-44.193-3.409-56.603-10.227-12.144-6.591-18.375-15.778-18.375-27.402Zm11.664-130.703a57.597 57.597 0 0 1 17.336-43.382c11.531-11.158 26.884-16.737 46.058-16.737s34.62 5.206 46.337 15.619c11.665 10.386 17.51 25.033 17.536 43.94a63.91 63.91 0 0 1-17.176 45.059c-11.478 12.357-26.804 18.522-45.978 18.495-19.174-.026-34.673-5.725-46.497-17.097-11.744-11.531-17.616-26.83-17.616-45.897Zm29.76-.879c0 13.542 3.075 23.968 9.267 30.998a30.632 30.632 0 0 0 24.367 10.705 31.951 31.951 0 0 0 25.046-9.906c5.832-6.631 8.748-16.751 8.748-30.359a37.99 37.99 0 0 0-9.187-27.084 31.61 31.61 0 0 0-24.287-9.866 33.839 33.839 0 0 0-25.047 8.908c-5.938 5.938-8.907 14.807-8.907 26.604Zm49.453-38.109-2.158-17.975h71.903v26.604l-69.745-8.629ZM409.818 613.581v-19.693l23.288-5.033.28-51.051-.28-113.886-26.723-4.314v-21.731L455.277 393l5.312.279 3.316 4.474-.28 140.051.28 51.051 22.689 5.033v19.693h-76.776ZM499.973 573.635c0-14.674 7.669-27.23 23.009-37.67 15.339-10.439 44.007-16.231 86.003-17.376l1.438 17.816c-28.361.48-48.64 3.542-60.837 9.187-11.984 5.673-18.256 13.662-18.256 23.968a21.168 21.168 0 0 0 8.908 18.894 37.582 37.582 0 0 0 21.451 5.952 36.505 36.505 0 0 0 21.251-6.87 50.18 50.18 0 0 0 13.702-12.823l.399-60.957c0-12.463-1.917-21.212-6.111-26.165-4.195-4.953-11.305-7.51-21.491-7.51a97.243 97.243 0 0 0-19.055 1.758 32.199 32.199 0 0 0-12.303 4.314 17.528 17.528 0 0 1 6.631 5.792 14.935 14.935 0 0 1 2.277 8.269 13.466 13.466 0 0 1-3.994 9.347 15.295 15.295 0 0 1-11.784 4.474 18.372 18.372 0 0 1-12.663-4.593 18.007 18.007 0 0 1-5.154-14.101 29.489 29.489 0 0 1 15.979-26.405 78.22 78.22 0 0 1 40.545-9.547c17.736 0 31.517 4.554 41.344 13.662 9.827 9.107 14.847 24.74 15.06 46.897l.719 68.866 21.251 5.034v19.733h-41.823l-6.472-7.191-2.037-14.5a46.013 46.013 0 0 1-17.616 15.978 64.792 64.792 0 0 1-33.555 7.989 51.45 51.45 0 0 1-33.155-10.705c-9.067-7.15-13.661-17.616-13.661-31.517ZM662.197 613.582v-18.096l86.124-109.012h-57.522l-3.995 20.692h-20.692v-44.58h119.079v17.976l-86.443 110.171h63.274l3.995-20.732h21.571v43.581H662.197ZM806.723 538.203a80.893 80.893 0 0 1 20.332-55.925 68.516 68.516 0 0 1 53.728-22.809c20.399 0 36.377 5.486 47.935 16.458 11.558 10.972 18.215 27.11 19.973 48.415v15.978H835.684v-20.692h84.845c-1.838-12.676-6.245-21.997-13.222-27.962a40.702 40.702 0 0 0-27.043-8.828 36.836 36.836 0 0 0-30.439 13.781c-7.324 9.214-10.932 21.917-10.826 38.108 0 17.87 4.887 31.877 14.661 42.024a48.332 48.332 0 0 0 36.51 15.219 82.81 82.81 0 0 0 24.726-3.076 57.399 57.399 0 0 0 17.137-8.548l11.665 15.379a55.921 55.921 0 0 1-21.172 14.86 86.447 86.447 0 0 1-34.633 6.112c-24.367 0-43.954-7.204-58.76-21.611-14.807-14.407-22.277-33.368-22.41-56.883ZM1062 648.933a25.57 25.57 0 0 1 2.3-10.719 25.562 25.562 0 0 1 6.57-8.775 98.757 98.757 0 0 1 18.61-13.582l2.44 2.597a45.243 45.243 0 0 0-12.78 12.783 33.163 33.163 0 0 0-4.76 18.295 26.355 26.355 0 0 0 3.17 12.592 26.353 26.353 0 0 0 8.82 9.538c7.99 5.752 20.4 8.628 37.23 8.628 14.66 0 25.56-3.156 32.63-9.427a28.676 28.676 0 0 0 7.82-9.826 28.752 28.752 0 0 0 2.85-12.224c.23-3.245-.36-6.495-1.72-9.45a19.351 19.351 0 0 0-6.07-7.447c-5.17-3.702-16.62-6.365-34.35-7.99a236.388 236.388 0 0 1-41.55-7.31c-11.24-3.275-16.86-9.028-16.86-17.256.01-3.708.95-7.354 2.72-10.611a22.284 22.284 0 0 1 7.43-8.044 86.836 86.836 0 0 1 18.06-10.546l2.15 2.876c-3.99 1.998-7.99 4.435-12.3 7.271a12.008 12.008 0 0 0-4.54 3.998 11.952 11.952 0 0 0-2.01 5.708c0 4.314 3.99 7.111 12.54 8.389 8.55 1.278 20.61 2.956 36.79 4.953 17.92 2.237 31.49 5.766 40.71 10.586 9.18 4.833 13.82 13.222 13.82 25.086a41.485 41.485 0 0 1-3.97 17.659 41.554 41.554 0 0 1-11.09 14.298c-9.99 9.001-24.25 13.502-42.78 13.502a87.264 87.264 0 0 1-44.22-10.147c-11.77-6.951-17.66-15.419-17.66-25.405Zm6.07-120.198a47.306 47.306 0 0 1 2.88-19.858 47.082 47.082 0 0 1 10.85-16.88 47.23 47.23 0 0 1 16.87-10.863 47.241 47.241 0 0 1 19.85-2.89 52.2 52.2 0 0 1 37.27 13.142c9.27 8.788 13.92 20.998 13.94 36.63a54.677 54.677 0 0 1-13.74 38.229 46.95 46.95 0 0 1-36.75 15.539 49.613 49.613 0 0 1-37.23-14.301c-9.29-9.534-13.94-22.45-13.94-38.748Zm23.97-2.476c0 18.641 2.58 31.956 7.75 39.946a23.381 23.381 0 0 0 8.53 8.732 23.375 23.375 0 0 0 11.76 3.251 21.09 21.09 0 0 0 19.06-11.065c4.43-7.39 6.67-20.452 6.67-39.266 0-17.124-2.67-28.988-7.99-35.592a25.05 25.05 0 0 0-8.84-7.25 25.049 25.049 0 0 0-11.13-2.577 21.856 21.856 0 0 0-18.86 9.547c-4.61 6.285-6.91 17.709-6.91 34.274h-.04Zm48.45-39.547-1.71-3.275 40.82.719v7.989l-39.11-5.433ZM1188.71 613.579v-2.996l19.14-5.033.28-67.908-.28-130.703-22.17-5.752v-3.316l37.11-1.718h4.31l3.04 4.435-.32 137.054.32 67.908 19.41 5.033v2.996h-60.84ZM1261.33 582.941c0-11.611 6.42-21.491 19.26-29.64 12.83-8.149 34.26-15.246 64.27-21.291l.6 3.196c-24.85 5.326-41.17 11.078-48.97 17.256a30.07 30.07 0 0 0-11.71 25.286c0 10.333 2.11 17.723 6.31 22.17a22.199 22.199 0 0 0 7.65 5.065 22.153 22.153 0 0 0 9.05 1.526 33.227 33.227 0 0 0 18.26-5.592 25.843 25.843 0 0 0 11.22-15.539l.4-49.773c.21-20.505-2.22-34.327-7.31-41.464a22.924 22.924 0 0 0-8.33-7.855 22.916 22.916 0 0 0-11.08-2.85c-6.1-.158-12.16.986-17.78 3.355a21.387 21.387 0 0 0-9.83 7.55 28.32 28.32 0 0 1 8.83 7.47 17.016 17.016 0 0 1 3.52 9.347 9.783 9.783 0 0 1-.61 4.352 9.78 9.78 0 0 1-2.47 3.637 11.453 11.453 0 0 1-7.99 3.076c-1.62.008-3.23-.346-4.7-1.037a11.053 11.053 0 0 1-3.81-2.957 17.626 17.626 0 0 1-3.59-11.984c0-7.27 3.99-13.741 11.98-19.414a48.727 48.727 0 0 1 28.88-8.468c15.13 0 26.54 4.168 34.24 12.503 7.69 8.335 11.69 22.716 11.98 43.141l.72 71.624 17.14 5.033v2.996h-34.4l-3.71-3.995-1.32-15.539a37.298 37.298 0 0 1-15.02 14.66 50.641 50.641 0 0 1-26.68 6.631 35.959 35.959 0 0 1-25.45-8.628 31.11 31.11 0 0 1-7.36-10.89 31.194 31.194 0 0 1-2.19-12.958ZM1388.6 613.58v-2.717l71.9-125.55h-46.14l-13.22 33.355h-3.99v-37.389h86.28v3.475l-71.38 124.831h58.52l14.94-32.636h3.75v36.631H1388.6ZM1502.04 546.99c0-21.491 5.78-38.321 17.34-50.492a54.374 54.374 0 0 1 40.79-18.255c16.93 0 30.36 5.326 40.26 15.979 9.91 10.652 15.23 25.152 15.98 43.501v3.595h-94.79v-5.313h71.18a96.844 96.844 0 0 0-9.19-37.709 26.196 26.196 0 0 0-10.02-11.863 26.278 26.278 0 0 0-14.98-4.115c-9.11 0-16.81 4.647-23.09 13.941-6.29 9.294-9.43 25.885-9.43 49.772 0 23.968 4.53 40.24 13.58 48.815a44.702 44.702 0 0 0 31.72 12.862c8.1-.07 16.04-2.201 23.09-6.192a57.188 57.188 0 0 0 18.06-14.939l2.43 1.877a58.428 58.428 0 0 1-19.41 19.973 52.823 52.823 0 0 1-29.64 8.668 60.954 60.954 0 0 1-24.87-4.518 60.985 60.985 0 0 1-20.91-14.216c-12.06-12.703-18.1-29.827-18.1-51.371Z" fill="#3C4043"/></svg>