<svg width="1920" height="1080" fill="none" xmlns="http://www.w3.org/2000/svg"><rect x="1459" y="813" width="218" height="50" rx="25" fill="#D2E3FC"/><rect x="1458" y="813" width="218" height="50" rx="25" fill="#1A73E8"/><rect x="851" y="813" width="218" height="50" rx="25" fill="#D2E3FC"/><rect x="851" y="813" width="122" height="50" rx="25" fill="#1A73E8"/><rect x="244" y="813" width="218" height="50" rx="25" fill="#D2E3FC"/><rect x="244" y="813" width="50" height="50" rx="25" fill="#1A73E8"/><path fill="#FF6D7F" d="M1320 411h550v21h-550z"/><path fill="#FF6D7F" d="M50 426h1820v10H50z"/><path fill="#FF6D7F" d="M50 431h550v58H50z"/><path d="M168 488.55h32.196v73.071H319.18V488.55h31.075v177.496H319.18v-78.389H200.196v78.389h-31.355L168 488.55ZM400.649 414.923h30.515v101.346a64.658 64.658 0 0 1 21.837-17.918 62.705 62.705 0 0 1 27.996-6.439 57.949 57.949 0 0 1 41.714 14.557 66.061 66.061 0 0 1 12.618 23.234 66.058 66.058 0 0 1 2.501 26.319v110.025h-29.677V555.742a40.878 40.878 0 0 0-8.957-29.676 36.12 36.12 0 0 0-26.038-8.678 42.275 42.275 0 0 0-25.478 7.838 50.392 50.392 0 0 0-17.077 20.438v120.383h-30.515l.561-251.124ZM771 431.163h31.636v101.066H923.02V431.163h31.356v234.888H923.02V557.986H802.636v108.065H771V431.163ZM1006.73 414.076h30.51v100.785a65.414 65.414 0 0 1 23.24-17.916 69.68 69.68 0 0 1 30.51-6.721 56.014 56.014 0 0 1 39.76 14.839 67.444 67.444 0 0 1 12.88 23.331 67.36 67.36 0 0 1 2.8 26.503v111.984h-30.52V554.897a39.479 39.479 0 0 0-9.24-27.996 35.859 35.859 0 0 0-26.32-8.959 42.541 42.541 0 0 0-25.75 7.838 51.223 51.223 0 0 0-17.36 20.436V668h-30.51V414.076ZM1379 411h31.92v110.305h120.1V411h31.92v255.044h-31.92V547.621H1411.2v118.423h-31.92L1379 411ZM1615.01 414.076h31.08v100.785a64.932 64.932 0 0 1 23.03-18.343 64.943 64.943 0 0 1 28.76-6.294c7.59-.412 15.19.688 22.35 3.235a57.323 57.323 0 0 1 19.36 11.604 67.286 67.286 0 0 1 12.74 23.362 67.169 67.169 0 0 1 2.66 26.472v111.984h-30.79V554.897a39.479 39.479 0 0 0-9.24-27.996 35.88 35.88 0 0 0-12.13-7.081 35.783 35.783 0 0 0-13.91-1.878 42.571 42.571 0 0 0-25.48 8.118 50.648 50.648 0 0 0-17.35 20.156V667.72h-31.08V414.076Z" fill="#3C4043"/></svg>