<svg xmlns="http://www.w3.org/2000/svg" width="1920" height="1080" fill="none"><path fill="#1A73E8" d="M676 63.805c-2.602-2.211-3.903-4.098-3.903-5.659 0-2.08 2.081-3.121 6.244-3.121 5.203 0 11.577 1.69 19.122 5.073 8.715 3.902 13.073 8.13 13.073 12.683-.39 3.252-.585 6.178-.585 8.78v68.098c2.862 0 6.309-.651 10.341-1.952 4.163-1.43 7.22-2.146 9.171-2.146 2.862 0 5.789.911 8.781 2.732 2.991 1.691 4.487 3.902 4.487 6.634 0 1.821-.65 3.382-1.951 4.683-1.171 1.171-2.992 1.756-5.463 1.756-.521 0-4.748-.65-12.683-1.951-4.813-.781-9.041-1.171-12.683-1.171-.13 5.854-.26 10.472-.39 13.854-.521 9.105-1.236 16.26-2.147 21.463-.91 5.203-2.471 11.187-4.683 17.951-2.992 9.106-5.203 13.659-6.634 13.659-.39 0-.65-.521-.78-1.561-.13-1.041-.195-2.537-.195-4.488v-5.659c0-4.292-.131-10.146-.391-17.56-.26-7.415-.39-12.423-.39-15.025l-.39-96.39c-.52-3.252-3.447-7.48-8.781-12.683-2.341-2.342-5.398-5.008-9.17-8Zm-80.196 33.756c5.074-3.902 11.773-5.854 20.098-5.854 9.886 0 18.407 3.383 25.561 10.147 7.285 6.634 10.927 14.569 10.927 23.805 1.951 2.211 3.512 4.748 4.683 7.609 1.301 2.862 1.951 5.724 1.951 8.586 0 4.683-1.561 7.284-4.683 7.805-3.122.52-5.073.975-5.854 1.365-12.227 5.334-22.959 9.692-32.195 13.074-15.74 5.853-26.341 8.78-31.805 8.78-3.252 0-4.878-.715-4.878-2.146 0-.521 1.431-1.106 4.293-1.756 2.862-.781 5.463-1.496 7.805-2.147 7.675-3.122 17.171-8.26 28.488-15.414 12.748-8.195 21.333-15.025 25.756-20.488-4.163-11.707-14.309-18.342-30.439-19.903-16.13-1.691-24.195-4.097-24.195-7.219 0-2.081 1.496-4.163 4.487-6.244ZM884.146 152.585c-9.886.911-20.943 2.602-33.171 5.074-15.74 3.252-27.772 6.894-36.098 10.926l-2.731.586c-2.992 0-5.659-1.496-8-4.488-2.342-2.992-3.512-6.959-3.512-11.902v-3.513c.39-1.3.65-2.211.78-2.731 0-7.025-2.471-13.984-7.415-20.878a1658.975 1658.975 0 0 0-15.219-20.878c0-2.602 1.691-3.903 5.073-3.903 5.073 0 10.862 1.561 17.366 4.683 7.675 3.642 11.512 7.675 11.512 12.098 0 1.17-.195 2.861-.585 5.073-.39 2.211-.586 3.837-.586 4.878v14.829c0 2.472.521 4.163 1.561 5.073 1.041.911 2.472 1.366 4.293 1.366l4.683-.39c8.846-.911 18.862-2.211 30.049-3.903a6565.628 6565.628 0 0 1 32-5.073L883.755 80c-1.04-2.341-3.447-5.398-7.219-9.17-7.935-7.805-11.902-12.163-11.902-13.074 0-1.821 2.081-2.731 6.244-2.731 5.203 0 11.186 1.82 17.951 5.463 7.674 4.162 11.512 8.52 11.512 13.073l-.585 6.44-.391 70.243c2.992 0 6.765-.78 11.317-2.341 4.683-1.692 8.13-2.537 10.342-2.537 2.992 0 5.723.78 8.195 2.341 2.471 1.431 3.707 3.513 3.707 6.244 0 1.952-.65 3.578-1.951 4.878-1.171 1.171-2.992 1.756-5.463 1.756-.391 0-3.708-.26-9.952-.78-6.243-.65-11.642-.976-16.195-.976-.13 5.204-.26 9.366-.39 12.488-.52 8.976-1.301 16.325-2.341 22.049-.911 5.593-2.277 11.642-4.098 18.146-2.732 9.366-4.878 14.049-6.439 14.049-.52 0-.846-.715-.976-2.146s-.195-3.317-.195-5.659l-.78-65.171ZM1073.95 156.683c-10.28.911-22.18 2.472-35.71 4.683-17.3 2.862-28.74 5.528-34.34 8-2.99 2.081-5.722 3.122-8.193 3.122-3.383 0-6.114-1.626-8.196-4.878-1.951-3.252-2.926-6.699-2.926-10.342 0-1.951.26-3.447.78-4.487 1.301-2.212 2.342-5.529 3.122-9.952.911-4.552 1.366-10.276 1.366-17.17l-.195-5.269c-1.041-1.561-4.553-3.967-10.537-7.219-5.984-3.252-8.975-5.724-8.975-7.415 0-2.341 2.731-3.512 8.195-3.512l8.585.195c11.187 0 19.704-.65 25.564-1.951 2.08-.39 5.79-1.691 11.12-3.903 1.69-.65 3.45-1.365 5.27-2.146 1.95-.78 3.96-1.17 6.05-1.17 3.25 0 6.11.715 8.58 2.146 2.47 1.3 3.71 3.447 3.71 6.439 0 2.081-.65 3.902-1.95 5.463-1.17 1.561-2.93 2.472-5.27 2.732l-40.586 6.634v30.049c0 3.902 1.036 5.853 3.126 5.853l71.41-9.951V80c-.65-1.43-4.42-6.504-11.32-15.22-2.86-3.642-4.29-6.048-4.29-7.219 0-1.691 1.3-2.536 3.9-2.536 4.3 0 10.02 2.21 17.17 6.634 7.16 4.292 10.74 8.325 10.74 12.097l-.59 6.244v70.829c3.25 0 7.02-.715 11.32-2.146 4.29-1.431 7.61-2.146 9.95-2.146 2.99 0 5.79.845 8.39 2.536 2.73 1.691 4.1 3.968 4.1 6.83 0 1.821-.65 3.382-1.95 4.682-1.18 1.171-3 1.757-5.47 1.757-.13 0-4.55-.651-13.27-1.952-4.42-.65-8.78-.975-13.07-.975-.26 5.203-.46 9.366-.59 12.488-.65 9.235-1.49 16.52-2.53 21.853-.91 5.334-2.47 11.447-4.68 18.342-2.87 9.105-4.95 13.658-6.25 13.658-.52 0-.84-.715-.97-2.146s-.2-3.382-.2-5.854v-37.073c0-7.675-.06-13.138-.19-16.39 0-3.252-.07-5.789-.2-7.61ZM1263.76 162.342c-12.75 1.3-25.44 2.536-38.05 3.707-18.48 2.211-30.51 4.683-36.1 7.414-2.73 1.301-5.27 1.952-7.61 1.952-3.12 0-5.53-1.106-7.22-3.317-1.56-2.342-2.34-5.074-2.34-8.195 0-2.602.71-5.464 2.14-8.586 3.26-7.284 4.88-12.553 4.88-15.805 0-1.691-2.6-4.097-7.8-7.219-5.21-3.122-7.81-5.529-7.81-7.22 0-2.211 2.21-3.317 6.64-3.317 12.09 0 21-.455 26.73-1.366 5.85-1.04 11.06-2.471 15.61-4.292v-23.22c-4.55 0-8.52.26-11.9.78-3.39.39-7.35 1.431-11.91 3.123-.78.26-1.88.715-3.31 1.365-1.43.52-2.54.78-3.32.78-2.08 0-5.92-1.495-11.51-4.487-5.6-3.122-8.39-5.463-8.39-7.024s1.95-2.342 5.85-2.342h11.12c5.47 0 9.5-.065 12.1-.195 2.6-.26 7.02-.845 13.27-1.756 1.3-.13 2.73-.65 4.29-1.56 3.38-1.822 5.53-2.733 6.44-2.733 1.56 0 4.42 1.626 8.59 4.878 4.16 3.122 6.24 5.399 6.24 6.83 0 .78-.46 1.886-1.37 3.317-.91 1.3-1.49 2.276-1.75 2.927-.65 1.69-1.82 5.138-3.51 10.341-.92 2.602-1.76 5.203-2.54 7.805 1.69 1.561 2.86 2.667 3.51 3.317 1.3 1.431 1.95 2.927 1.95 4.488 0 1.561-.58 2.927-1.75 4.097-1.17 1.171-3.06 2.017-5.66 2.537-7.16 1.041-12.88 1.886-17.17 2.537-4.17.65-8.46 1.365-12.88 2.146v17.366c0 2.341.19 3.967.58 4.878.52.78 1.43 1.171 2.74 1.171l7.22-.976c21.33-2.081 42.66-4.228 64-6.439V79.805c-1.44-2.732-5.01-6.894-10.74-12.488-4.81-4.683-7.22-7.87-7.22-9.56 0-1.952 1.43-2.928 4.3-2.928 4.68 0 10.86 2.082 18.53 6.244 7.68 4.033 11.52 8.065 11.52 12.098 0 .52-.13 1.496-.39 2.927-.26 1.43-.4 2.666-.4 3.707v77.854c3.39 0 8-.976 13.86-2.927 3.12-1.041 5.66-1.561 7.61-1.561 2.86 0 5.66.91 8.39 2.732 2.73 1.691 4.1 3.902 4.1 6.634 0 4.292-2.48 6.439-7.42 6.439-1.82 0-4.29-.26-7.41-.781-7.68-1.301-14.05-1.951-19.13-1.951-.26 3.512-.45 6.374-.58 8.585-.65 6.765-1.43 12.813-2.34 18.147-.91 5.333-2.54 11.642-4.88 18.927-2.99 9.365-5.07 14.048-6.24 14.048-.39 0-.65-1.04-.78-3.122-.13-1.951-.2-3.252-.2-3.902l-.58-56.585ZM1437.95 64c-3.12-2.602-4.68-4.683-4.68-6.244 0-1.821 1.82-2.731 5.46-2.731 5.2 0 11.38 1.69 18.54 5.073 8.32 3.902 12.48 8.13 12.48 12.683l-.58 6.634v70.049c2.73 0 7.15-.976 13.27-2.927 2.86-.911 5.33-1.366 7.41-1.366 2.99 0 6.05.91 9.17 2.732 3.13 1.691 4.69 3.902 4.69 6.634 0 2.081-.65 3.772-1.96 5.073-1.17 1.301-3.05 1.951-5.65 1.951-1.43 0-4.95-.585-10.54-1.756-5.59-1.171-11.06-1.756-16.39-1.756-.26 5.333-.52 9.626-.78 12.878-.78 8.976-1.69 16.52-2.73 22.634a147.926 147.926 0 0 1-4.3 17.951c-2.6 8.976-4.55 13.464-5.85 13.464-.65 0-1.04-1.106-1.17-3.317-.13-2.212-.19-3.903-.19-5.074l-.59-36.487-.39-98.732c-1.04-2.472-2.8-5.138-5.27-8-2.47-2.862-5.79-5.984-9.95-9.366Zm-33.76 36.683c.78-.39 1.76-1.04 2.93-1.951 1.3-.91 2.41-1.366 3.32-1.366 2.08 0 5.14 1.821 9.17 5.463 4.16 3.513 6.24 6.244 6.24 8.195 0 .651-.19 1.431-.58 2.342-1.04 2.471-1.63 3.902-1.76 4.293a993.93 993.93 0 0 0-2.15 18.731c-.91 4.943-2.34 9.366-4.29 13.269 1.3.91 2.67 1.951 4.1 3.122 1.56 1.17 2.34 2.341 2.34 3.512 0 2.731-2.86 4.813-8.58 6.244-5.73 1.431-13.4 2.146-23.03 2.146-2.73 0-4.88-.065-6.44-.195-1.56-.13-3.84-.39-6.83-.781-.78 1.691-1.43 2.927-1.95 3.708-1.56 1.951-3.12 2.927-4.68 2.927-1.3 0-2.41-.716-3.32-2.147-.91-1.431-1.62-3.967-2.14-7.61-1.05-6.504-1.96-11.837-2.74-16-1.43-7.024-2.86-12.357-4.29-16-.39-.91-1.69-3.382-3.9-7.414-4.29-7.675-6.44-11.903-6.44-12.683 0-1.431 1.24-2.146 3.71-2.146 4.29 0 8.97 1.43 14.05 4.292 5.85 3.382 8.78 6.96 8.78 10.732l-.59 5.073c.39 4.943.78 9.821 1.17 14.634.39 4.683.98 9.821 1.76 15.415 3.25 0 6.96-.325 11.12-.976 4.29-.65 11.06-1.951 20.29-3.902v-38.439h-4.49c-2.86 0-5.65.325-8.39.975-2.86.911-5.72 1.757-8.58 2.537-1.69 0-4.68-.911-8.98-2.732-4.16-1.951-6.24-3.577-6.24-4.878 0-.52.52-.91 1.56-1.17 1.17-.391 2.73-.716 4.68-.976 7.29-.65 12.43-1.366 15.42-2.146 2.99-.911 6.24-2.277 9.75-4.098ZM1628.73 63.61c-3.12-2.602-4.68-4.618-4.68-6.049 0-1.691 1.95-2.536 5.85-2.536 5.2 0 11.19 1.626 17.95 4.878 7.94 3.772 11.9 7.87 11.9 12.292l-.58 4.878v72.391c2.34 0 6.11-.846 11.32-2.537 2.86-.911 5.13-1.366 6.83-1.366 3.25 0 6.37.846 9.36 2.537 2.99 1.561 4.49 3.837 4.49 6.829 0 2.081-.65 3.772-1.95 5.073-1.17 1.301-3.12 1.951-5.86 1.951-.13 0-4.09-.65-11.9-1.951-3.9-.65-8-.976-12.29-.976-.26 4.944-.52 8.911-.78 11.903-.78 8.585-1.69 16.13-2.73 22.634-.52 3.772-2.02 9.821-4.49 18.146-2.47 8.326-4.36 12.488-5.66 12.488-.52 0-.84-.78-.97-2.341-.13-1.431-.2-3.447-.2-6.049l-.59-36.488c0-25.106-.06-44.878-.19-59.317s-.26-28.293-.39-41.56c-1.43-2.993-4.42-6.44-8.98-10.342-2.73-2.212-4.55-3.708-5.46-4.488Zm-21.27 29.463c1.95 1.561 3.25 2.992 3.9 4.293a6.895 6.895 0 0 1 1.18 3.902c0 .781-.2 2.082-.59 3.903-.39 1.821-.59 3.382-.59 4.683 0 6.894-.19 12.813-.58 17.756-.91 11.057-2.54 18.992-4.88 23.805a57.387 57.387 0 0 1 1.95 4.292c.65 1.171.98 2.147.98 2.927 0 2.992-4.29 4.943-12.88 5.854-3.77.39-7.61.585-11.51.585h-3.9c-3 0-5.47-.065-7.42-.195-1.95-.13-4.55-.325-7.8-.585-1.04 5.073-2.67 7.61-4.88 7.61-1.04 0-2.02-.521-2.93-1.561-.78-1.171-1.3-2.537-1.56-4.098-1.04-8.325-1.82-15.089-2.34-20.293-1.17-9.366-2.15-15.609-2.93-18.731-.78-3.252-3.25-7.675-7.41-13.269-4.04-5.593-6.05-8.975-6.05-10.146 0-1.691 1.3-2.537 3.9-2.537 4.16 0 9.3 1.887 15.42 5.659 6.11 3.642 9.17 7.284 9.17 10.927l-.59 3.317c1.95 0 4.03-.521 6.24-1.561 5.21-2.472 8.59-3.707 10.15-3.707 2.6 0 5.07.585 7.42 1.756 2.34 1.17 3.51 2.991 3.51 5.463 0 3.382-3.77 5.724-11.32 7.024-3.9.651-9.04.976-15.41.976v25.561c3.9 0 8.71-.455 14.44-1.366 5.72-1.04 11.64-2.536 17.75-4.488v-40.195c-.52-1.301-2.34-5.268-5.46-11.902-3.12-6.764-4.69-10.537-4.69-11.317 0-1.561.98-2.342 2.93-2.342 2.86 0 5.86.846 8.98 2.537 2.21 1.17 4.81 2.992 7.8 5.463ZM1816.58 64c-2.73-2.341-4.09-4.358-4.09-6.049 0-1.82 1.75-2.731 5.26-2.731 5.47 0 11.84 1.886 19.13 5.658 8.45 4.423 12.68 8.976 12.68 13.659l-.59 7.024v62.244c2.48 0 5.21-.455 8.2-1.366 7.28-2.211 11.77-3.317 13.46-3.317 2.86 0 5.66.781 8.39 2.342 2.86 1.43 4.3 3.447 4.3 6.048 0 1.952-.65 3.643-1.96 5.073-1.17 1.301-2.86 1.952-5.07 1.952-3.25 0-6.63-.26-10.15-.781-9.49-1.431-15.21-2.146-17.17-2.146a535.74 535.74 0 0 1-.39 9.366c-.78 14.309-1.75 24.585-2.92 30.829-1.04 6.114-2.54 12.488-4.49 19.122-2.73 9.106-4.68 13.658-5.85 13.658-.52 0-.85-.78-.98-2.341-.13-1.561-.2-3.642-.2-6.244l-.58-36.683c0-24.715-.07-43.967-.2-57.756-.13-13.789-.26-26.992-.39-39.61-1.3-2.861-3.9-6.244-7.8-10.146-2.21-2.211-5.07-4.813-8.59-7.805Zm-44.09 22.83c2.73.91 6.44 3.837 11.12 8.78 4.68 4.943 7.02 8.845 7.02 11.707 0 1.041-.45 2.146-1.36 3.317-.78 1.171-1.43 2.082-1.95 2.732l-11.71 11.122c5.98 2.992 12.16 6.049 18.53 9.171 6.38 2.991 9.57 7.87 9.57 14.634 0 2.731-.52 5.073-1.57 7.024-.91 1.821-2.21 2.732-3.9 2.732-1.56 0-3.12-.716-4.68-2.146-1.95-1.822-3.9-4.423-5.85-7.805a65.027 65.027 0 0 0-6.64-9.756c-3.25-3.903-6.76-7.155-10.53-9.757-8.72 7.285-16.53 12.683-23.42 16.196-9.24 4.813-18.41 7.219-27.51 7.219l-1.17-.195c.65-.39 1.1-.65 1.36-.781 1.17-.65 2.21-1.105 3.13-1.365 7.8-2.602 16.58-8.13 26.34-16.586 9.75-8.585 17.1-17.04 22.05-25.366v-1.17c0-2.342-.85-5.139-2.54-8.39-1.56-3.253-3.19-6.57-4.88-9.952 0-1.56 1.11-2.341 3.32-2.341 1.17 0 2.92.325 5.27.975ZM697.658 370.39c-2.341 2.862-3.837 4.293-4.488 4.293-.91 0-1.366-1.886-1.366-5.659v-12.487c0-10.667-.39-18.082-1.17-22.244-.651-4.293-1.821-7.155-3.512-8.586-8.976 0-19.903.586-32.781 1.757-12.748 1.17-21.723 2.861-26.927 5.073-1.431.52-3.187 1.431-5.268 2.731-1.561.911-2.862 1.366-3.902 1.366-2.732 0-7.87-1.886-15.415-5.658-7.545-3.773-11.317-6.699-11.317-8.781 0-.78.65-1.431 1.951-1.951 1.431-.65 3.772-.976 7.024-.976l11.317.391c9.887 0 24.196-.716 42.927-2.147 6.244-.39 14.634-1.105 25.171-2.146 6.764-7.805 11.642-14.244 14.634-19.317 3.122-5.073 4.683-9.041 4.683-11.903 0-1.951-1.171-4.357-3.512-7.219-2.211-2.862-4.228-4.293-6.049-4.293-4.293 0-10.081 2.147-17.366 6.439-7.284 4.293-12.357 6.439-15.219 6.439-2.992 0-7.155-1.366-12.488-4.097-5.333-2.732-8-5.269-8-7.61 0-1.171.78-2.146 2.341-2.927 1.561-.78 4.098-1.171 7.61-1.171 4.293 0 8.26-.325 11.903-.975 3.772-.781 8.13-2.016 13.073-3.708 6.894-2.991 11.512-4.943 13.853-5.853 3.773-1.561 6.7-2.342 8.781-2.342 3.122 0 7.415 3.382 12.878 10.147 5.594 6.634 8.39 11.577 8.39 14.829 0 4.553-6.374 12.032-19.122 22.439-7.154 5.593-11.512 8.976-13.073 10.146 6.634 0 12.098-.455 16.39-1.366a797.04 797.04 0 0 1 14.83-4.097c2.601-.651 4.422-1.041 5.463-1.171 1.041-.26 2.211-.39 3.512-.39 3.122 0 6.179 1.106 9.171 3.317 2.992 2.211 4.488 4.813 4.488 7.805 0 2.081-.651 3.772-1.951 5.073-1.171 1.171-2.992 1.756-5.464 1.756-2.862 0-7.61-.26-14.244-.78-6.634-.521-10.992-.781-13.073-.781.52 1.951 1.236 4.163 2.146 6.634.911 2.472 1.366 4.488 1.366 6.049 0 6.504-.585 12.748-1.756 18.732s-3.317 11.057-6.439 15.219Zm-20.488 3.708c9.106 0 16.586 2.666 22.439 8 5.984 5.203 8.976 11.707 8.976 19.512 0 6.764-2.341 12.878-7.024 18.341-5.334 6.244-12.293 9.366-20.878 9.366-8.846 0-16.456-3.057-22.83-9.171-6.374-6.113-9.561-12.943-9.561-20.487 0-9.106 3.122-15.87 9.366-20.293 4.943-3.512 11.447-5.268 19.512-5.268ZM679.317 386c-5.724 0-10.537 1.561-14.439 4.683-3.773 2.992-5.659 6.504-5.659 10.537 0 3.902 1.691 7.284 5.073 10.146 3.512 2.862 8.26 4.293 14.244 4.293 4.683 0 8.781-1.041 12.293-3.122 4.553-2.602 6.829-6.179 6.829-10.732 0-4.813-1.691-8.65-5.073-11.512-3.382-2.862-7.805-4.293-13.268-4.293ZM825.609 286.293c2.862.78 6.699 3.772 11.512 8.975 4.813 5.204 7.22 9.236 7.22 12.098 0 1.041-.52 2.146-1.561 3.317l-2.146 2.146-11.903 9.756c4.943 2.732 8.651 5.204 11.122 7.415 3.122 2.862 4.683 5.724 4.683 8.585 0 8.456-.26 15.22-.781 20.293-.52 5.073-1.235 8.911-2.146 11.512-2.471 6.765-4.488 10.147-6.049 10.147-1.821 0-2.731-2.862-2.731-8.586 0-6.244-.781-13.463-2.342-21.658-2.211-11.577-5.203-18.537-8.975-20.878-6.765 5.463-13.204 9.561-19.317 12.292-7.545 3.383-15.025 5.074-22.439 5.074-.261 0-.586-.065-.976-.196-.13 0-.26-.065-.39-.195.26-.13.455-.195.585-.195 1.951-1.04 3.187-1.626 3.707-1.756 5.984-2.081 14.114-7.61 24.391-16.585 11.187-9.756 16.78-17.106 16.78-22.049 0-2.732-.78-5.659-2.341-8.781l-4.878-9.756c0-1.3 1.105-1.951 3.317-1.951 1.691 0 3.577.325 5.658.976Zm52.878 48.195c-2.341 1.561-4.162 2.341-5.463 2.341-2.082 0-5.724-1.431-10.927-4.292-5.203-2.992-7.805-5.204-7.805-6.634 0-1.301 2.407-2.147 7.22-2.537 7.935-1.041 12.683-1.756 14.244-2.146 5.073-1.041 9.626-2.602 13.658-4.683v-33.366c-.911-2.212-5.203-7.545-12.878-16-3.382-3.773-5.073-6.114-5.073-7.025 0-2.081 2.406-3.122 7.219-3.122 4.033 0 9.626 2.082 16.781 6.244 7.284 4.033 10.927 7.935 10.927 11.708 0 .78-.195 2.146-.586 4.097-.39 1.951-.585 3.643-.585 5.073v86.83c0 14.048-.976 25.235-2.927 33.561-1.171 5.073-3.317 10.796-6.439 17.17-1.561 3.643-2.797 5.464-3.707 5.464-.521 0-.911-.911-1.171-2.732a38.603 38.603 0 0 1-.39-5.463l-1.171-88.195c-1.821.26-3.187.52-4.097.78-2.862.781-5.139 1.756-6.83 2.927ZM1074.15 365.707c-11.32 1.301-24.65 3.448-40 6.439-19.52 3.773-32.33 7.09-38.443 9.952-3.122 2.211-5.854 3.317-8.196 3.317-2.601 0-4.617-1.106-6.048-3.317-1.301-2.212-1.952-5.008-1.952-8.391 0-3.382.716-6.699 2.147-9.951 1.561-2.211 2.862-5.073 3.902-8.585a33.722 33.722 0 0 0 1.756-10.732c0-2.602-2.666-5.333-8-8.195-5.203-2.862-7.805-5.073-7.805-6.634 0-1.691 2.537-2.537 7.61-2.537 7.285 0 14.829-.975 22.639-2.927 4.42-1.04 9.43-2.666 15.02-4.878 1.82-.78 3.19-1.365 4.1-1.756 1.82-.78 3.31-1.17 4.49-1.17 2.47 0 5.13 1.3 8 3.902 2.99 2.472 4.48 4.943 4.48 7.415 0 2.601-1.88 4.162-5.66 4.683l-35.118 6.048v20.683c0 4.033 1.496 6.049 4.488 6.049.78 0 2.02-.13 3.71-.39 1.69-.39 3.05-.651 4.1-.781l64.78-10.927v-69.853c0-3.122-3.45-7.48-10.35-13.073-6.76-5.724-10.14-9.041-10.14-9.952 0-2.211 2.14-3.317 6.44-3.317 4.94 0 11.05 1.821 18.34 5.464 8.19 4.162 12.29 8.39 12.29 12.683 0 .91-.19 2.341-.58 4.292-.26 1.952-.39 3.252-.39 3.903v78.634c2.34 0 5.13-.455 8.39-1.366 7.28-2.081 11.96-3.122 14.04-3.122 3 0 5.66.781 8 2.342 2.48 1.561 3.71 3.837 3.71 6.829 0 1.951-.71 3.707-2.14 5.268-1.31 1.431-3.19 2.147-5.66 2.147-.13 0-4.56-.781-13.27-2.342-4.42-.78-8.78-1.171-13.07-1.171 0 2.992-.13 6.374-.39 10.147-.27 3.642-1.11 8.845-2.54 15.609-.91 4.423-2.6 10.212-5.07 17.366-3.13 9.366-5.4 14.049-6.83 14.049-.26 0-.46-.52-.59-1.561a25.155 25.155 0 0 1-.19-3.122v-57.171Zm-88.004-59.902c-3.383-1.561-6.114-2.992-8.196-4.293-4.032-2.471-6.048-4.422-6.048-5.853 0-1.561 2.471-2.342 7.414-2.342 8.716 0 16.521-.585 23.414-1.756 7.03-1.171 12.49-2.732 16.39-4.683l3.51-1.561c1.17-.65 2.28-.975 3.32-.975 1.95 0 4.36 1.17 7.22 3.512 2.99 2.211 4.49 4.227 4.49 6.049 0 2.601-7.29 5.138-21.86 7.609-8.19 1.301-13.46 2.537-15.801 3.708-2.211 1.04-3.772 1.756-4.683 2.146-.91.39-1.756.585-2.536.585-1.171 0-3.382-.715-6.634-2.146ZM1283.07 364.146c1.43 1.301 2.15 2.862 2.15 4.683 0 .391-.26 1.626-.78 3.708-.39 1.951-.59 3.512-.59 4.683 0 6.504-.39 11.707-1.17 15.609-.78 3.903-2.21 9.106-4.29 15.61 1.17 1.691 1.95 2.797 2.34 3.317.91 1.431 1.37 2.732 1.37 3.903 0 1.821-1.76 3.252-5.27 4.292-3.51 1.171-9.24 1.756-17.17 1.756h-5.08c-6.63 0-13.13-.65-19.51-1.951-.78 1.821-1.95 3.447-3.51 4.878-1.43 1.431-2.73 2.147-3.9 2.147-1.82 0-2.93-1.561-3.32-4.683-.91-8.195-1.56-13.529-1.95-16-.91-6.114-1.82-10.992-2.73-14.634-.78-3.643-3.19-7.87-7.22-12.683-3.9-4.944-5.86-8-5.86-9.171 0-1.561 1.37-2.342 4.1-2.342 5.08 0 10.08 1.561 15.03 4.683 5.07 2.992 7.61 6.895 7.61 11.708 4.16 0 7.87-.976 11.12-2.927 3.25-2.081 5.79-3.122 7.61-3.122 2.21 0 4.55.845 7.02 2.536 2.47 1.561 3.71 3.448 3.71 5.659 0 3.122-5.01 5.138-15.02 6.049-4.56.39-8.53.585-11.91.585h-1.95l.98 20.488c7.41 0 13.66-.26 18.73-.781 5.07-.39 10.73-1.561 16.97-3.512v-33.366c-.52-2.211-2.47-5.528-5.85-9.951-3.25-4.423-4.88-7.089-4.88-8 0-1.431 1.17-2.146 3.51-2.146 3.52 0 7.09.91 10.74 2.732 2.73 1.3 5.72 3.382 8.97 6.243Zm-83.51-81.365c11.84 0 20.81 3.772 26.93 11.317 4.68 5.723 7.02 12.292 7.02 19.707 0 7.805-2.93 14.504-8.78 20.098-5.85 5.593-12.75 8.39-20.68 8.39-8.98 0-16.78-2.862-23.42-8.586-7.02-6.113-10.53-13.723-10.53-22.829 0-8.585 2.86-15.415 8.58-20.488 5.73-5.073 12.68-7.609 20.88-7.609ZM1272.34 354l-.78-71.024c-.52-2.992-4.03-7.285-10.54-12.878-6.37-5.724-9.56-9.171-9.56-10.342 0-1.821 1.82-2.732 5.47-2.732 4.68 0 10.73 1.822 18.14 5.464 7.55 3.512 11.32 7.219 11.32 11.122 0 .65-.13 1.756-.39 3.317-.26 1.561-.39 2.862-.39 3.902v40.391c0 5.593-.78 11.122-2.34 16.585-1.43 5.463-3.38 9.886-5.86 13.268-1.56 2.342-2.4 3.643-2.53 3.903-.91 1.17-1.5 1.756-1.76 1.756-.26-.26-.39-.455-.39-.586-.26-.52-.39-1.235-.39-2.146Zm-69.66-58.732c-5.46 0-10.08 1.106-13.85 3.317-4.81 2.862-7.22 7.09-7.22 12.683 0 5.074 2.02 9.236 6.05 12.488 4.03 3.252 9.1 4.878 15.22 4.878 5.46 0 10.08-1.431 13.85-4.292 3.9-2.862 5.85-6.179 5.85-9.952 0-5.463-1.75-10.016-5.26-13.658-3.52-3.642-8.39-5.464-14.64-5.464ZM1446.15 264.829c-1.96-2.211-2.93-4.032-2.93-5.463 0-1.691 1.23-2.537 3.71-2.537 4.16 0 9.95 2.342 17.36 7.025 7.42 4.553 11.12 8.715 11.12 12.488 0 .52-.13 1.821-.39 3.902-.26 2.081-.39 3.967-.39 5.659v73.951c0 8.325-.13 15.154-.39 20.488-.13 5.333-.58 10.276-1.36 14.829-.78 4.553-2.28 10.406-4.49 17.561-2.99 9.496-5.27 14.244-6.83 14.244-.78 0-1.17-1.691-1.17-5.073v-134.83c0-2.731-1.82-6.634-5.46-11.707a95.39 95.39 0 0 0-8.78-10.537Zm-72.79 48.586-8.19-5.464c-2.08-1.691-3.12-2.992-3.12-3.902 0-1.691 2.14-2.537 6.44-2.537 8.84 0 14.83-.325 17.95-.975 3.12-.651 7.35-2.212 12.68-4.683 1.56-.911 2.67-1.496 3.32-1.756 1.17-.651 2.27-.976 3.31-.976 1.83 0 3.91.976 6.25 2.927s3.51 3.837 3.51 5.658c0 2.992-3.97 5.269-11.9 6.83-11.06 2.081-17.24 3.447-18.54 4.097a82.449 82.449 0 0 0-3.32 1.951c-1.04.651-1.95.976-2.73.976-1.3 0-3.18-.715-5.66-2.146Zm-1.36 18.146c-.78-2.211-1.17-4.097-1.17-5.658 0-2.212.84-3.318 2.53-3.318 3 0 6.25 1.692 9.76 5.074 3.51 3.252 5.27 6.439 5.27 9.561 0 3.642-1.3 9.04-3.9 16.195-1.56 4.292-2.93 6.439-4.1 6.439-.26-.26-.46-.456-.59-.586-.52-.65-.84-1.431-.97-2.341-.91-5.073-1.95-9.756-3.12-14.049-.52-1.951-1.76-5.723-3.71-11.317Zm51.12 28.293c1.56 1.17 2.34 2.276 2.34 3.317 0 2.211-1.95 3.837-5.85 4.878-8.2 1.951-15.22 3.707-21.07 5.268-5.86 1.561-10.87 2.992-15.03 4.293-1.3.39-2.86 1.301-4.68 2.732-1.82 1.3-3.32 1.951-4.49 1.951-2.47 0-6.63-2.016-12.49-6.049-3.25-2.211-4.88-3.902-4.88-5.073 0-1.431 3.91-2.537 11.71-3.317 7.94-.781 18.8-2.797 32.59-6.049v-5.073c0-4.293-.07-9.301-.2-15.025 0-5.853-.52-11.056-1.56-15.609-.52-2.342-.78-4.163-.78-5.464 0-1.951.72-2.927 2.15-2.927 2.86 0 5.79 1.366 8.78 4.098 2.99 2.732 4.49 5.593 4.49 8.585v2.342l6.04.585c3.26 0 7.29-1.106 12.1-3.317v-27.902c0-4.033-1.95-8.456-5.85-13.269-3.9-4.813-5.86-7.87-5.86-9.17 0-1.691 1.44-2.537 4.3-2.537 4.03 0 8.78 1.626 14.24 4.878 5.46 3.252 8.2 6.699 8.2 10.342l-.59 6.829v57.561c0 4.553-1.24 12.032-3.71 22.439-2.86 11.837-5.4 17.756-7.61 17.756-.52 0-.78-1.366-.78-4.098v-4.487c0-4.944-.26-11.383-.78-19.318-.52-7.934-1.04-16.52-1.56-25.756-2.08 0-3.84.456-5.27 1.366-1.43.781-2.34 1.171-2.73 1.171-.91 0-2.21-.39-3.9-1.171-1.56-.91-3.84-2.406-6.83-4.488l-3.51 9.366c-1.43 4.293-2.67 8-3.71 11.122 2.86 0 5.53-.39 8-1.17 2.6-.911 4.03-1.366 4.29-1.366 1.3 0 2.8.585 4.49 1.756ZM1633.41 265.415c-2.34-2.212-3.51-4.033-3.51-5.464 0-1.691 1.76-2.536 5.27-2.536 4.94 0 11.06 1.886 18.34 5.658 8.33 4.293 12.49 8.651 12.49 13.073 0 .781-.13 1.952-.39 3.513s-.39 2.796-.39 3.707v68.878c-.13 3.772-.2 6.894-.2 9.366-.65 14.179-1.69 25.041-3.12 32.585-.78 4.293-2.41 10.407-4.88 18.342-2.99 9.756-5.14 14.634-6.44 14.634-.26 0-.45-.521-.58-1.561-.13-1.041-.2-2.146-.2-3.317l-.78-139.903c-1.3-2.861-3.7-6.048-7.22-9.561-2.08-2.081-4.87-4.553-8.39-7.414Zm-53.26 30.829c12.22 0 21.46 3.902 27.7 11.707 5.21 6.504 7.81 14.83 7.81 24.976 0 7.284-2.86 13.984-8.59 20.097-5.59 5.984-12.42 8.976-20.49 8.976-10.79 0-19.9-3.447-27.31-10.341-7.42-6.895-11.12-15.155-11.12-24.781 0-8.845 3.25-16.13 9.75-21.854 6.64-5.853 14.05-8.78 22.25-8.78Zm2.73 13.073c-5.6 0-10.87 1.886-15.81 5.659-4.81 3.642-7.22 7.935-7.22 12.878 0 5.203 2.8 9.821 8.39 13.853 5.6 3.903 11.58 5.854 17.95 5.854 5.21 0 9.63-1.821 13.27-5.463 3.77-3.773 5.66-7.74 5.66-11.903 0-5.333-2.15-10.146-6.44-14.439-4.29-4.292-9.56-6.439-15.8-6.439ZM1803.71 277.707c3.38.781 7.74 3.317 13.07 7.61 5.98 4.813 8.97 8.781 8.97 11.903 0 1.951-1.04 3.837-3.12 5.658l-7.02 8.195c3.64.651 7.35 1.106 11.12 1.366 3.77.26 7.22.39 10.34.39l10.73-.195c3.91 0 7.74 1.496 11.52 4.488 3.77 2.992 5.65 6.374 5.65 10.146 0 3.773-2.14 5.659-6.43 5.659-3.26 0-7.03-1.236-11.32-3.707-4.16-2.602-9.82-5.139-16.98-7.61-7.02-2.602-13.72-4.618-20.1-6.049-9.1 7.415-18.08 13.203-26.92 17.366-10.54 4.943-20.88 7.415-31.03 7.415-.52 0-.97-.065-1.36-.196-.13 0-.26-.065-.39-.195.65-.39 1.1-.65 1.36-.78 1.04-.52 2.02-.911 2.93-1.171 9.11-2.211 18.08-6.634 26.93-13.268 10.01-7.415 17.95-16.195 23.8-26.342-.52-2.471-2.92-7.024-7.22-13.658-1.95-3.122-2.92-5.008-2.92-5.659 0-1.301 1.17-1.951 3.51-1.951l4.88.585Zm-72 106.732c-2.48-1.951-3.71-3.382-3.71-4.293 0-1.3 2.41-1.951 7.22-1.951s12.75.13 23.8.39c11.19.261 17.17.391 17.95.391 16.65 0 31.74-.456 45.27-1.366 13.66-.911 24.33-2.537 32-4.878 4.17-1.171 7.35-1.756 9.56-1.756 3 0 6.31 1.366 9.95 4.097 3.78 2.732 5.66 5.529 5.66 8.391 0 1.951-.84 3.642-2.53 5.073-1.56 1.3-3.58 1.951-6.05 1.951l-2.15-.195c-3.12-.651-7.54-1.171-13.27-1.561-5.72-.39-10.53-.586-14.44-.586-14.43 0-29.07.521-43.9 1.561-14.7 1.041-25.04 2.342-31.02 3.903-2.21.65-4.3 1.301-6.25 1.951-1.82.65-3.18.976-4.09.976-1.96 0-6.05-1.691-12.3-5.073-5.33-2.862-9.23-5.204-11.7-7.025ZM689.853 465.854c-1.821-2.082-2.731-3.643-2.731-4.683 0-1.301 1.3-1.951 3.902-1.951 4.293 0 9.626 2.081 16 6.244 6.504 4.032 9.756 7.999 9.756 11.902 0 .13-.26 1.431-.78 3.902-.391 2.472-.586 4.618-.586 6.439v22.635c0 5.203-.065 10.991-.195 17.365 0 6.374-.52 12.293-1.561 17.757-.91 5.333-2.406 11.382-4.488 18.146-2.861 9.106-5.008 13.658-6.439 13.658-.65 0-.975-1.496-.975-4.487l-.586-88.586c0-2.211-1.235-5.203-3.707-8.975-1.951-2.992-4.488-6.114-7.61-9.366Zm-62.634 80.39c-7.415 0-14.439-3.317-21.073-9.951-6.504-6.764-9.756-13.984-9.756-21.659 0-8.065 2.667-14.374 8-18.927 5.463-4.683 12.097-7.024 19.902-7.024 6.244 0 11.903 1.886 16.976 5.659 4.032 2.991 7.154 6.699 9.366 11.122 2.471 0 5.853-.586 10.146-1.757 4.293-1.17 8.26-2.666 11.903-4.487v-6.439c0-2.342-2.277-6.57-6.83-12.683-2.081-2.732-3.122-4.748-3.122-6.049 0-1.431 1.171-2.146 3.513-2.146 3.772 0 8.26 1.56 13.463 4.682 5.333 2.992 8 6.049 8 9.171 0 .651-.13 1.756-.39 3.317-.26 1.561-.391 2.862-.391 3.903v30.048c0 4.293-1.105 11.318-3.317 21.074-2.601 11.187-4.878 16.78-6.829 16.78-.13-.26-.195-.455-.195-.585-.52-1.301-.781-2.602-.781-3.903 0-2.341-.39-4.748-1.17-7.219-1.041-2.472-1.756-4.293-2.147-5.464-1.821 0-3.512.196-5.073.586-1.561.39-2.471.585-2.731.585-1.171 0-2.602-.585-4.293-1.756-1.561-1.301-5.008-4.358-10.342-9.171-2.211 3.643-5.333 6.634-9.365 8.976-3.903 2.211-8.391 3.317-13.464 3.317Zm46.244 18.537c3.122.52 6.699 2.406 10.732 5.658 4.162 3.252 6.244 6.374 6.244 9.366a7.323 7.323 0 0 1-.781 3.317c-.13.39-.845 1.431-2.146 3.122l-4.098 4.293c.13.13 6.83 3.577 20.098 10.341 7.935 4.033 11.902 9.496 11.902 16.39 0 2.472-.455 4.488-1.366 6.049-.78 1.691-1.951 2.537-3.512 2.537s-3.317-.846-5.268-2.537c-1.951-1.691-4.163-4.488-6.634-8.39-1.951-2.732-4.943-6.244-8.976-10.537-4.553-4.813-8-8.065-10.341-9.756-10.667 11.187-20.488 19.382-29.464 24.586-5.073 2.991-12.357 5.983-21.853 8.975l-6.049 1.366-.586-.39c.521-.39.911-.651 1.171-.781 1.171-.78 2.082-1.3 2.732-1.561 9.236-3.772 18.732-10.406 28.488-19.902 9.366-8.976 15.74-17.366 19.122-25.171 0-2.211-.586-4.618-1.756-7.219a353.783 353.783 0 0 0-3.318-8c0-1.301 1.106-1.952 3.318-1.952l2.341.196ZM652 530.049c2.861.65 5.268 1.171 7.219 1.561 2.081.39 4.033.585 5.854.585 2.471 0 5.008-.26 7.61-.78v-21.073c-2.732 0-5.139.52-7.22 1.561-2.081 1.04-3.577 1.561-4.488 1.561-1.04 0-2.211-.196-3.512-.586-1.171-.39-2.992-1.301-5.463-2.732a72.63 72.63 0 0 1 1.17 4.488c.391 1.691.586 3.643.586 5.854 0 2.992-.586 6.179-1.756 9.561Zm-27.708-29.268c-5.203 0-9.431 1.691-12.683 5.073-3.252 3.382-4.878 7.284-4.878 11.707 0 4.033 1.887 7.805 5.659 11.317 3.902 3.382 8.78 5.073 14.634 5.073 5.203 0 9.366-1.561 12.488-4.683s4.683-6.764 4.683-10.926c0-4.683-1.431-8.586-4.293-11.708-3.512-3.902-8.715-5.853-15.61-5.853ZM884.341 528.293c-20.033 1.821-35.772 3.772-47.22 5.853-11.317 1.952-20.357 4.358-27.122 7.22-1.691.911-3.317 1.366-4.878 1.366-5.203 0-7.805-3.903-7.805-11.708 0-2.341.261-4.747.781-7.219-.911-5.854-3.122-11.252-6.634-16.195l-10.147-15.22c0-2.081 1.757-3.122 5.269-3.122 4.032 0 8.585 1.236 13.658 3.708 5.984 2.992 8.976 6.179 8.976 9.561 0 .78-.195 2.016-.585 3.707-.391 1.691-.586 2.992-.586 3.902v8.196c0 2.081.39 3.512 1.171 4.292.911.651 2.341.976 4.293.976l5.073-.39c24.455-2.602 46.309-5.334 65.561-8.196v-32.975c-.911-1.821-3.187-4.488-6.829-8-7.415-7.025-11.122-11.187-11.122-12.488 0-1.691 1.756-2.537 5.268-2.537 4.813 0 10.601 1.496 17.366 4.488 7.805 3.512 11.707 7.285 11.707 11.317 0 .521-.13 1.626-.39 3.317-.26 1.691-.39 3.122-.39 4.293v38.634c2.341 0 5.463-.78 9.365-2.341 3.903-1.691 6.83-2.537 8.781-2.537 2.992 0 6.049.846 9.171 2.537 3.122 1.691 4.682 3.902 4.682 6.634 0 1.951-.65 3.577-1.951 4.878-1.3 1.301-3.122 1.951-5.463 1.951a461.937 461.937 0 0 0-12.683-1.951c-3.772-.65-7.87-.976-12.293-.976-2.601 4.813-4.357 8-5.268 9.561-2.992 5.074-4.943 7.61-5.854 7.61-.78 0-1.366-1.496-1.756-4.488-.26-2.992-.455-4.943-.585-5.853l-1.561-7.805Zm3.902 24.39a44.964 44.964 0 0 1 6.049 4.098c2.732 2.211 4.098 4.097 4.098 5.658 0 .26-1.626 3.577-4.878 9.951-1.691 3.252-2.537 5.919-2.537 8a37.892 37.892 0 0 1 3.122 3.513c1.041 1.04 1.561 2.146 1.561 3.317 0 1.691-.65 3.187-1.951 4.487-1.301 1.301-2.992 1.952-5.073 1.952L851.951 596v12.293c0 2.081.52 3.382 1.561 3.902 1.17.651 2.796.976 4.878.976h7.805c3.642 0 8.975-.846 16-2.537 3.772-.91 6.439-1.366 8-1.366 2.081 0 3.707.586 4.878 1.756 1.17 1.171 1.756 2.537 1.756 4.098 0 6.244-6.179 10.472-18.537 12.683-4.423.78-9.041 1.171-13.854 1.171-4.032 0-8.325-1.821-12.878-5.464-4.943-4.032-7.414-8.13-7.414-12.292v-7.805c0-2.992-2.667-6.049-8-9.171-5.334-3.122-8-5.333-8-6.634 0-2.081 2.146-3.122 6.439-3.122 9.626 0 17.626-.195 24-.585 6.374-.521 13.918-1.561 22.634-3.122v-15.61h-2.537c-5.333 0-9.951.195-13.853.585-3.903.26-7.35.976-10.342 2.147a567.1 567.1 0 0 1-6.049 2.341 8.837 8.837 0 0 1-3.121.585c-2.212 0-6.309-1.431-12.293-4.292-5.984-2.992-8.976-5.269-8.976-6.83 0-1.3 1.821-1.951 5.464-1.951l9.17.195c7.935 0 15.48-.26 22.635-.78 7.284-.521 12.292-1.236 15.024-2.146 1.041-.391 2.471-1.041 4.293-1.952 1.951-.91 3.447-1.366 4.487-1.366.781 0 1.822.326 3.122.976ZM1077.27 572.39c-2.34 2.862-3.84 4.293-4.49 4.293-.91 0-1.37-1.886-1.37-5.659v-12.487c0-10.667-.39-18.082-1.17-22.244-.65-4.293-1.82-7.155-3.51-8.586-8.97 0-19.9.586-32.78 1.757-12.75 1.17-21.72 2.861-26.93 5.073-1.43.52-3.18 1.431-5.26 2.731-1.57.911-2.866 1.366-3.907 1.366-2.732 0-7.87-1.886-15.415-5.658-7.544-3.773-11.317-6.699-11.317-8.781 0-.78.651-1.431 1.951-1.951 1.431-.65 3.773-.976 7.025-.976l11.317.391c9.886 0 24.196-.716 42.926-2.147 6.24-.39 14.63-1.105 25.17-2.146 6.77-7.805 11.64-14.244 14.64-19.317 3.12-5.073 4.68-9.041 4.68-11.903 0-1.951-1.17-4.357-3.51-7.219-2.22-2.862-4.23-4.293-6.05-4.293-4.3 0-10.08 2.147-17.37 6.439-7.28 4.293-12.36 6.439-15.22 6.439-2.99 0-7.15-1.366-12.49-4.097-5.33-2.732-8-5.269-8-7.61 0-1.171.78-2.146 2.35-2.927 1.56-.78 4.09-1.171 7.61-1.171 4.29 0 8.26-.325 11.9-.975 3.77-.781 8.13-2.016 13.07-3.708 6.9-2.991 11.51-4.943 13.85-5.853 3.78-1.561 6.7-2.342 8.79-2.342 3.12 0 7.41 3.382 12.87 10.147 5.6 6.634 8.39 11.577 8.39 14.829 0 4.553-6.37 12.032-19.12 22.439-7.15 5.593-11.51 8.976-13.07 10.146 6.63 0 12.1-.455 16.39-1.366a794.9 794.9 0 0 1 14.83-4.097c2.6-.65 4.42-1.041 5.46-1.171 1.04-.26 2.21-.39 3.51-.39 3.13 0 6.18 1.106 9.17 3.317 3 2.211 4.49 4.813 4.49 7.805 0 2.081-.65 3.772-1.95 5.073-1.17 1.171-2.99 1.756-5.46 1.756-2.86 0-7.61-.26-14.25-.78-6.63-.521-10.99-.781-13.07-.781.52 1.951 1.24 4.163 2.15 6.634.91 2.472 1.36 4.488 1.36 6.049 0 6.504-.58 12.748-1.75 18.732s-3.32 11.057-6.44 15.219Zm-20.49 3.708c9.11 0 16.59 2.666 22.44 8 5.98 5.203 8.97 11.707 8.97 19.512 0 6.764-2.34 12.878-7.02 18.341-5.33 6.244-12.29 9.366-20.88 9.366-8.84 0-16.45-3.057-22.83-9.171-6.37-6.113-9.56-12.943-9.56-20.487 0-9.106 3.12-15.87 9.37-20.293 4.94-3.512 11.44-5.268 19.51-5.268Zm2.15 11.902c-5.73 0-10.54 1.561-14.44 4.683-3.78 2.992-5.66 6.504-5.66 10.537 0 3.902 1.69 7.284 5.07 10.146 3.51 2.862 8.26 4.293 14.25 4.293 4.68 0 8.78-1.041 12.29-3.122 4.55-2.602 6.83-6.179 6.83-10.732 0-4.813-1.69-8.65-5.08-11.512-3.38-2.862-7.8-4.293-13.26-4.293ZM1246 574.342c8.97 0 16.39 2.796 22.24 8.39 5.86 5.593 8.78 12.358 8.78 20.292 0 6.765-2.21 12.618-6.63 17.561-5.07 5.594-11.71 8.391-19.9 8.391-8.85 0-16.59-2.862-23.22-8.586-6.51-5.723-9.76-12.292-9.76-19.707 0-9.236 3.06-16.13 9.17-20.683 5.08-3.772 11.51-5.658 19.32-5.658Zm-80.59-46.83c2.08 0 7.87.13 17.37.391 9.5.26 17.56.39 24.19.39 17.31 0 32.98-.325 47.03-.976 14.18-.78 24-2.081 29.46-3.902 3.77-1.171 6.7-1.756 8.78-1.756 2.86 0 6.05 1.105 9.56 3.317 3.65 2.211 5.47 4.683 5.47 7.414 0 3.773-2.28 5.659-6.83 5.659-3.77 0-9.04-.195-15.81-.585-6.63-.521-10.92-.781-12.87-.781a94.816 94.816 0 0 0 2.14 5.463c.91 1.822 1.37 3.252 1.37 4.293 0 2.732-1.76 8.52-5.27 17.366-3.51 8.845-6.31 13.268-8.39 13.268-.52 0-.78-.91-.78-2.731v-3.122c0-7.935-.26-15.025-.78-21.269-.52-6.244-1.63-10.341-3.32-12.292h-9.76c-13.91 0-24.97.195-33.17.585-8.19.39-14.5 1.366-18.92 2.927a914.405 914.405 0 0 1-6.05 2.732c-1.17.52-2.41.78-3.71.78-2.47 0-7.41-2.081-14.83-6.244-7.41-4.293-11.12-7.349-11.12-9.171 0-1.17 1.56-1.756 4.68-1.756h1.56Zm94.05-48.39.39 1.561c0 1.431-.71 3.057-2.14 4.878-1.43 1.821-3 3.447-4.69 4.878 1.17.26 6.77.911 16.78 1.951 10.15.911 15.22 5.204 15.22 12.878 0 4.293-1.95 6.439-5.85 6.439-1.95 0-3.84-.715-5.66-2.146-2.6-2.211-5.85-4.423-9.75-6.634a124.598 124.598 0 0 0-15.61-7.61c-6.9 4.813-14.44 8.911-22.64 12.293-9.49 3.902-17.88 5.854-25.17 5.854-1.69 0-3.12-.066-4.29-.196-1.04-.26-1.89-.52-2.54-.78.39-.26.72-.455.98-.585 1.04-.391 2.27-.781 3.7-1.171 6.12-1.431 14.9-5.789 26.35-13.073 12.87-8.195 19.31-14.7 19.31-19.513 0-1.04-.52-2.211-1.56-3.512-5.72 0-10.21.39-13.46 1.171a329.265 329.265 0 0 1-8.39 2.927c-2.08 0-6.18-1.821-12.29-5.464-6.12-3.772-9.18-6.439-9.18-8 0-.91 1.11-1.365 3.32-1.365 2.73 0 7.22.13 13.47.39 6.24.26 9.56.39 9.95.39 8.06 0 15.48-.325 22.24-.976 6.89-.78 12.1-2.016 15.61-3.707 3.51-1.821 6.31-2.732 8.39-2.732 2.6 0 5.4.911 8.39 2.732 3.12 1.821 4.68 3.903 4.68 6.244 0 1.821-.65 3.447-1.95 4.878-1.17 1.301-2.6 1.951-4.29 1.951-1.43 0-3.58-.13-6.44-.39-2.86-.26-5.07-.39-6.63-.39l-8.98.585c0 1.171.26 2.146.78 2.927 1.04 1.691 1.69 2.797 1.95 3.317Zm-11.9 107.122c-6.11 0-10.6 1.496-13.46 4.488-2.74 2.862-4.1 6.374-4.1 10.536 0 3.643 1.56 6.83 4.68 9.561 3.25 2.862 7.81 4.293 13.66 4.293 4.42 0 8.07-.845 10.93-2.537 3.9-2.341 5.85-5.918 5.85-10.731 0-4.163-1.62-7.805-4.88-10.927-3.25-3.122-7.48-4.683-12.68-4.683ZM1448.1 466.829c-1.95-2.341-2.93-4.162-2.93-5.463 0-1.561 1.3-2.342 3.9-2.342 4.68 0 10.28 1.952 16.78 5.854 6.64 3.772 9.95 7.74 9.95 11.903 0 .52-.19 2.081-.58 4.683-.39 2.601-.59 5.073-.59 7.414v74.147c0 8.325-.13 15.154-.39 20.487-.13 5.334-.58 10.212-1.36 14.634-.78 4.423-2.15 10.147-4.1 17.171-2.6 9.236-4.62 13.854-6.05 13.854-.52 0-.84-.651-.98-1.951-.13-1.171-.19-2.797-.19-4.878l-.59-132.488c0-2.732-1.04-5.919-3.12-9.561-1.95-3.642-5.2-8.13-9.75-13.464Zm-61.66 97.952c-7.81 0-14.9-2.732-21.27-8.196-7.02-6.113-10.54-13.658-10.54-22.634 0-8.195 2.6-14.634 7.81-19.317 5.33-4.813 11.97-7.219 19.9-7.219 8.98 0 16.07 3.057 21.27 9.17 3.64 4.293 5.79 8.911 6.44 13.854l7.41.39c2.86 0 5.34-.325 7.42-.975.52-.13 2.21-.846 5.07-2.147v-23.024c-.78-3.902-3.38-9.106-7.8-15.61-4.3-6.504-6.44-10.146-6.44-10.927 0-1.561 1.75-2.341 5.26-2.341 3.65 0 8.59 2.146 14.83 6.439 6.25 4.293 9.37 8.195 9.37 11.707 0 .911-.2 2.342-.59 4.293-.26 1.821-.39 3.057-.39 3.707v12.488c0 18.342-.06 28.943-.19 31.805-.13 2.862-.65 7.935-1.56 15.22-.39 4.292-1.76 10.796-4.1 19.512-2.73 10.276-4.81 15.414-6.24 15.414-.39 0-.65-.715-.78-2.146-.13-1.561-.2-3.382-.2-5.463v-1.366c0-4.033-.19-11.903-.58-23.61-.39-11.707-.59-19.382-.59-23.024-3.12 0-5.59.26-7.41.78-1.83.39-3.65.846-5.47 1.366-.52 0-1.17-.26-1.95-.781-.52-.39-1.76-1.495-3.71-3.317-1.3 7.025-3.9 12.878-7.8 17.561-4.68 5.594-10.41 8.391-17.17 8.391Zm-3.9-45.854c-4.95 0-9.18 1.756-12.69 5.268-3.38 3.382-5.07 7.025-5.07 10.927 0 3.772 1.5 7.35 4.49 10.732 3.64 4.162 8.19 6.244 13.66 6.244 5.07 0 9.23-1.691 12.48-5.074 3.39-3.512 5.08-7.349 5.08-11.512 0-4.032-1.11-7.479-3.32-10.341-3.25-4.163-8.13-6.244-14.63-6.244ZM1584.83 488.293c2.86.78 6.7 3.772 11.51 8.975 4.81 5.204 7.22 9.236 7.22 12.098 0 1.041-.52 2.146-1.56 3.317-1.04 1.041-1.76 1.756-2.15 2.146l-11.9 9.756c4.94 2.732 8.65 5.204 11.12 7.415 3.12 2.862 4.68 5.724 4.68 8.585 0 8.456-.26 15.22-.78 20.293-.52 5.073-1.23 8.911-2.14 11.512-2.47 6.765-4.49 10.147-6.05 10.147-1.82 0-2.73-2.862-2.73-8.586 0-6.244-.78-13.463-2.34-21.658-2.22-11.577-5.21-18.537-8.98-20.878-6.76 5.463-13.2 9.561-19.32 12.292-7.54 3.383-15.02 5.074-22.44 5.074-.26 0-.58-.065-.97-.196-.13 0-.26-.065-.39-.195.26-.13.45-.195.58-.195 1.96-1.04 3.19-1.626 3.71-1.756 5.98-2.081 14.11-7.61 24.39-16.585 11.19-9.756 16.78-17.106 16.78-22.049 0-2.732-.78-5.659-2.34-8.781-1.56-3.121-3.19-6.374-4.88-9.756 0-1.3 1.11-1.951 3.32-1.951 1.69 0 3.58.325 5.66.976Zm52.88 48.195c-2.35 1.561-4.17 2.341-5.47 2.341-2.08 0-5.72-1.431-10.92-4.292-5.21-2.992-7.81-5.204-7.81-6.634 0-1.301 2.41-2.147 7.22-2.537 7.94-1.041 12.68-1.756 14.24-2.146 5.08-1.041 9.63-2.602 13.66-4.683v-33.366c-.91-2.212-5.2-7.545-12.88-16-3.38-3.773-5.07-6.114-5.07-7.025 0-2.081 2.41-3.122 7.22-3.122 4.03 0 9.63 2.082 16.78 6.244 7.29 4.033 10.93 7.935 10.93 11.708 0 .78-.2 2.146-.59 4.097-.39 1.951-.58 3.643-.58 5.073v86.83c0 14.048-.98 25.235-2.93 33.561-1.17 5.073-3.32 10.796-6.44 17.17-1.56 3.643-2.79 5.464-3.71 5.464-.52 0-.91-.911-1.17-2.732a38.603 38.603 0 0 1-.39-5.463l-1.17-88.195c-1.82.26-3.18.52-4.09.78-2.87.781-5.14 1.756-6.83 2.927ZM1773.85 583.317c-1.69-1.691-2.53-3.187-2.53-4.488 0-1.691 1.62-2.536 4.87-2.536 4.56 0 9.24.975 14.05 2.927 6.25 2.601 9.37 5.723 9.37 9.365l-.59 6.83v9.951c0 2.602.46 4.293 1.37 5.073.91.781 2.47 1.171 4.68 1.171h3.32c8.32 0 15.54-.521 21.66-1.561 4.29-.911 8.58-1.756 12.88-2.537h1.17c4.03 0 6.04 1.496 6.04 4.488 0 4.683-4.74 8.846-14.24 12.488-7.93 2.992-14.63 4.488-20.1 4.488-5.07 0-9.75-1.756-14.05-5.269-5.07-4.162-9.43-10.536-13.07-19.122-1.04-2.601-3.25-6.244-6.63-10.926-2.73-3.773-5.47-7.22-8.2-10.342Zm-43.31-27.707c-2.48-1.561-3.71-2.927-3.71-4.098 0-1.691 2.34-2.536 7.02-2.536 24.59 0 43.58-.195 56.98-.586 30.83-.91 50.27-2.666 58.34-5.268 4.94-1.821 9.1-2.732 12.49-2.732 3.38 0 6.89 1.106 10.53 3.317 3.65 2.212 5.47 4.878 5.47 8 0 2.082-.78 3.838-2.34 5.269-1.44 1.431-3.39 2.146-5.86 2.146-2.73 0-6.11-.26-10.14-.78-9.24-1.171-15.03-1.757-17.37-1.757-16 0-31.02.651-45.07 1.952-14.05 1.17-24.78 2.861-32.2 5.073-1.56.52-3.25 1.171-5.07 1.951-1.82.781-3.19 1.171-4.1 1.171-1.95 0-6.18-1.561-12.68-4.683-4.69-2.212-8.78-4.358-12.29-6.439Zm100.68-94.829c3.51 1.04 7.54 3.772 12.1 8.195 4.55 4.292 6.82 8.065 6.82 11.317 0 .91-.19 1.821-.58 2.731-.39.781-.98 1.757-1.76 2.927l-8.78 11.903c.91.26 5.66 1.17 14.25 2.731 8.71 1.561 13.07 5.399 13.07 11.513 0 3.122-.72 5.658-2.15 7.609-1.3 1.822-2.99 2.732-5.07 2.732-1.69 0-4.16-1.561-7.41-4.683-8.59-8.325-14.05-13.073-16.39-14.244-6.51 8.195-11.84 14.114-16 17.756-7.94 7.025-16.85 12.033-26.74 15.025l-5.46 1.366-.58-.391c.52-.52.91-.845 1.17-.975 1.04-.911 1.82-1.496 2.34-1.756 8.97-5.464 17.1-13.464 24.39-24 5.59-8.195 10.99-18.537 16.19-31.025-.39-1.951-1.69-5.268-3.9-9.951-2.21-4.813-3.32-7.545-3.32-8.195 0-1.171.78-1.756 2.34-1.756 1.05 0 2.87.39 5.47 1.171Zm-53.47 7.024c2.61 1.041 5.79 3.642 9.57 7.805 3.77 4.032 5.65 7.414 5.65 10.146 0 1.171-.65 2.537-1.95 4.098l-4.09 5.658a359.84 359.84 0 0 0 12.68 2.927c3.77 1.301 5.66 4.748 5.66 10.342 0 2.601-.52 4.617-1.56 6.048-.91 1.301-2.28 1.952-4.1 1.952-1.69 0-3.64-1.171-5.86-3.513-6.24-6.764-10.27-10.666-12.09-11.707-5.34 5.594-10.99 10.342-16.98 14.244-7.8 5.073-14.63 7.61-20.49 7.61l-.58-.195c.39-.391.71-.651.97-.781 1.17-1.041 1.89-1.626 2.15-1.756 5.33-3.902 10.47-8.585 15.41-14.049 6.51-7.284 11.06-14.179 13.66-20.683-.26-1.17-1.62-5.138-4.09-11.902-1.04-2.862-1.57-4.683-1.57-5.464 0-1.3.79-1.951 2.35-1.951 1.69 0 3.44.39 5.26 1.171ZM675.414 772.439c2.472 1.561 5.008 3.707 7.61 6.439 3.382 3.512 5.073 6.374 5.073 8.586 0 1.17-.39 2.341-1.171 3.512-2.211 2.471-3.967 4.552-5.268 6.244 10.146 3.512 17.626 6.243 22.439 8.195 8.586 3.642 12.878 9.431 12.878 17.366 0 3.642-1.236 5.463-3.707 5.463-1.431 0-3.317-.846-5.659-2.537-2.211-1.691-4.813-4.357-7.804-8-1.561-2.081-4.553-4.878-8.976-8.39-4.423-3.512-8.585-6.504-12.488-8.975-9.886 9.626-18.927 16.78-27.122 21.463-10.797 6.114-21.854 9.171-33.171 9.171-.78 0-1.3-.065-1.561-.195l-.39-.391c.26-.26.455-.39.586-.39 1.3-.65 2.471-1.106 3.512-1.366 8.715-2.341 18.536-8 29.463-16.975 10.927-8.976 18.212-17.431 21.854-25.366v-1.171c0-1.301-.39-3.252-1.171-5.854-.78-2.601-1.171-4.683-1.171-6.244 0-1.691.586-2.536 1.756-2.536.911 0 2.407.65 4.488 1.951Zm-34.927-29.073c19.252 0 34.732-.26 46.439-.781 11.708-.65 20.618-1.691 26.732-3.121a90.39 90.39 0 0 1 6.439-1.561c1.951-.391 3.512-.586 4.683-.586 2.602 0 5.333 1.041 8.195 3.122 2.992 1.951 4.488 4.228 4.488 6.829 0 4.033-2.472 6.049-7.415 6.049-2.731 0-5.918-.195-9.561-.585-8.585-.911-14.048-1.366-16.39-1.366 0 1.301.455 3.057 1.366 5.268 1.041 2.212 1.561 3.773 1.561 4.683 0 3.382-1.106 8.455-3.317 15.22-2.602 7.935-5.203 11.902-7.805 11.902-1.041 0-1.561-1.626-1.561-4.878 0-15.74-1.301-26.211-3.902-31.415-10.017 0-21.919.391-35.708 1.171-13.788.781-22.894 2.212-27.317 4.293-4.292 1.951-7.349 2.927-9.17 2.927-2.472 0-7.675-2.147-15.61-6.439-7.935-4.423-11.903-7.545-11.903-9.366 0-1.301 1.626-1.951 4.878-1.951l44.878.585Zm68.878-78.049c2.342 1.561 3.513 3.317 3.513 5.268 0 .781-.195 2.082-.586 3.903-.26 1.821-.39 3.187-.39 4.097v.781c0 8.455-.39 15.545-1.171 21.268-.78 5.724-2.146 10.667-4.097 14.83 1.04 1.3 1.691 2.081 1.951 2.341.65 1.041.976 2.081.976 3.122 0 3.512-5.269 5.723-15.805 6.634-4.293.39-8.651.585-13.073.585h-2.732c-7.545 0-13.789-.585-18.732-1.756-1.951 3.252-3.772 4.878-5.463 4.878-2.342 0-4.163-5.333-5.464-16a990.242 990.242 0 0 1-2.146-20.487c-.65-2.862-2.927-6.765-6.829-11.708-3.773-5.073-5.659-8.065-5.659-8.975 0-1.561 1.236-2.342 3.707-2.342 3.903 0 8.586 1.496 14.049 4.488 5.464 2.862 8.195 5.919 8.195 9.171l-.39 4.097c3.642 0 7.09-.585 10.342-1.756 3.382-1.171 6.894-2.406 10.536-3.707 1.561 0 3.252.975 5.073 2.927 1.952 1.821 2.927 3.512 2.927 5.073 0 2.341-1.756 3.902-5.268 4.683-3.382.78-7.285 1.17-11.707 1.17h-11.513v21.854c6.504 0 13.074-.39 19.708-1.171 6.634-.91 12.878-2.341 18.731-4.292V678c0-2.732-1.886-6.829-5.658-12.293-1.821-2.601-2.732-4.422-2.732-5.463 0-1.301.976-1.951 2.927-1.951 2.602 0 5.528.78 8.78 2.341 2.472 1.171 5.139 2.732 8 4.683ZM881.999 664.342c4.033 2.861 8.065 6.699 12.098 11.512 4.943 5.983 7.415 10.861 7.415 14.634 0 4.943-5.984 12.618-17.952 23.024-4.422 3.773-8.78 7.48-13.073 11.122 9.366 0 16.195-.455 20.488-1.366 4.813-1.431 9.041-2.601 12.683-3.512 3.772-1.04 7.024-1.561 9.756-1.561 3.642 0 7.155.976 10.537 2.927 3.382 1.821 5.073 4.423 5.073 7.805 0 1.951-.651 3.642-1.951 5.073-1.301 1.431-3.122 2.146-5.464 2.146-2.601 0-5.658-.325-9.171-.975-9.235-1.691-15.284-2.537-18.146-2.537-11.057 0-25.821.716-44.293 2.147-18.471 1.43-30.894 3.317-37.268 5.658-.91.26-2.536.976-4.878 2.146-1.431.651-2.602.976-3.512.976-2.732 0-7.675-1.821-14.829-5.463-7.155-3.643-10.732-6.504-10.732-8.586 0-1.561 2.602-2.341 7.805-2.341h7.219c13.529 0 31.87-.325 55.025-.976 4.162 0 9.626-.195 16.39-.585 7.284-8.065 12.553-14.634 15.805-19.707 2.862-4.553 4.293-8.261 4.293-11.122 0-2.862-1.822-6.439-5.464-10.732-3.512-4.423-6.569-6.634-9.171-6.634-1.04 0-5.658 3.252-13.853 9.756-3.903 3.122-7.48 4.683-10.732 4.683-2.862 0-6.244-.716-10.146-2.147-4.813-1.821-7.22-3.837-7.22-6.048 0-2.342 6.829-6.7 20.488-13.074 13.658-6.374 21.854-9.561 24.585-9.561 2.472 0 5.204 1.106 8.195 3.318Zm9.952 85.463c1.821 1.041 3.642 2.406 5.463 4.098 2.472 2.211 3.707 4.032 3.707 5.463a576.422 576.422 0 0 0-4.878 10.341c-1.431 3.122-2.146 6.049-2.146 8.781l3.122 3.122c1.041 1.04 1.561 2.211 1.561 3.512 0 1.561-.846 3.122-2.537 4.683-1.561 1.431-3.577 2.146-6.048 2.146-7.155 0-13.724.456-19.708 1.366-5.853.911-11.512 1.756-16.975 2.537v9.951c0 3.772.26 6.309.78 7.61.52 1.3 2.081 1.951 4.683 1.951h9.366c4.032 0 7.415-.26 10.146-.781l14.049-2.731c4.033 0 6.049 1.756 6.049 5.268 0 4.553-4.163 8.195-12.488 10.927-6.374 2.081-12.293 3.122-17.756 3.122-5.203 0-9.886-1.561-14.049-4.683-4.032-2.992-6.569-7.025-7.61-12.098l-1.17-7.024c-.651-3.903-1.366-6.569-2.147-8-.65-1.561-3.187-3.707-7.609-6.439-4.423-2.862-6.635-5.138-6.635-6.829 0-1.041.586-1.822 1.756-2.342 1.171-.65 3.253-.975 6.244-.975h2.732c12.488 0 21.529-.261 27.122-.781 5.724-.52 11.642-1.431 17.756-2.732v-17.365c-5.593 0-10.732.195-15.414.585-4.553.26-9.106 1.106-13.659 2.536-1.041.261-2.667.976-4.878 2.147-2.081 1.171-3.707 1.756-4.878 1.756-2.081 0-5.854-1.496-11.317-4.488-5.464-2.992-8.195-5.398-8.195-7.219 0-1.301 1.691-1.952 5.073-1.952l11.317.196c7.805 0 14.049-.131 18.732-.391 4.683-.39 10.276-1.171 16.78-2.341l10.537-3.903c1.04 0 2.081.326 3.122.976ZM1064.97 668.439c-2.08-1.951-3.12-3.512-3.12-4.683 0-1.821 2.02-2.732 6.05-2.732 4.81 0 10.67 2.212 17.56 6.635 7.03 4.292 10.54 8.715 10.54 13.268l-.39 6.829v71.805c0 9.106-.2 16.65-.59 22.634-.26 5.854-1.1 12.293-2.53 19.317-.78 4.423-2.28 10.016-4.49 16.781-2.99 9.105-5.33 13.658-7.03 13.658-.65 0-1.1-.78-1.36-2.341-.13-1.431-.2-3.447-.2-6.049V688.146c-.39-2.601-2.4-6.178-6.04-10.731-2.74-3.382-5.53-6.374-8.4-8.976Zm-23.02 24.976c3.25 1.3 6.96 4.032 11.12 8.195 4.69 4.683 7.03 8.585 7.03 11.707 0 1.041-.26 2.212-.78 3.512a71.868 71.868 0 0 1-1.37 2.927l-10.93 20.683 8.78 4.098c4.56 1.561 7.74 2.992 9.57 4.292 2.99 2.212 4.48 5.269 4.48 9.171 0 3.252-.78 6.114-2.34 8.585-1.43 2.472-3.25 3.708-5.46 3.708-2.47 0-4.81-2.017-7.03-6.049-5.98-11.317-9.49-17.301-10.53-17.951-7.68 11.057-13.27 18.276-16.78 21.658-5.73 5.464-11.97 9.561-18.74 12.293l-6.63 1.756 2.93-2.536c8.97-7.415 16.97-18.212 24-32.391 2.86-5.853 7.02-16.26 12.49-31.219v-.976c0-2.862-1.31-6.634-3.91-11.317-2.47-4.683-3.7-7.61-3.7-8.78 0-1.561.97-2.342 2.92-2.342 1.43 0 3.06.325 4.88.976Zm-40.19 4.878c2.99.91 6.56 4.032 10.73 9.366 4.16 5.203 6.24 9.365 6.24 12.487 0 1.041-.32 1.952-.97 2.732-.53.651-1.31 1.366-2.35 2.146l-8.97 8.391c5.2 2.471 8.97 4.292 11.32 5.463 4.29 2.211 6.43 5.008 6.43 8.39 0 2.602-.71 5.008-2.14 7.22-1.3 2.211-2.93 3.317-4.88 3.317-1.95 0-4.94-3.447-8.98-10.341-2.34-3.903-4.42-6.7-6.24-8.391-4.682 3.512-9.951 6.764-15.804 9.756-7.545 3.903-13.334 5.854-17.366 5.854l-.586-.195.586-.585c.65-.651 1.301-1.171 1.951-1.562 5.073-3.121 11.057-8.455 17.951-15.999 7.935-8.716 11.898-15.35 11.898-19.903 0-2.732-1.166-5.984-3.508-9.756-2.211-3.772-3.317-6.114-3.317-7.024 0-1.561.976-2.342 2.927-2.342l5.078.976ZM1203.66 681.512c11.83 0 20.81 3.708 26.92 11.122 4.95 5.984 7.42 13.138 7.42 21.464 0 7.024-2.6 13.008-7.81 17.951-5.2 4.943-12.03 7.415-20.48 7.415-9.89 0-18.28-2.862-25.17-8.586-6.9-5.723-10.35-12.228-10.35-19.512 0-8.976 2.8-16.195 8.39-21.659 5.6-5.463 12.62-8.195 21.08-8.195Zm66.92 76.683V686.39c-.91-3.642-4.09-8.065-9.56-13.268-5.33-5.333-8-8.52-8-9.561 0-1.691 1.5-2.537 4.49-2.537 5.07 0 10.99 1.822 17.76 5.464 7.67 4.162 11.51 8.455 11.51 12.878 0 1.041-.2 2.471-.59 4.293-.39 1.821-.58 3.122-.58 3.902v16.195c0 11.707-.07 25.041-.2 40 0 14.829-.13 26.081-.39 33.756-.13 7.545-.52 13.984-1.17 19.317-.65 5.204-1.62 9.887-2.92 14.049-1.17 4.293-2.87 9.301-5.08 15.025-.52 1.3-1.17 2.666-1.95 4.097-.13.39-.39.846-.78 1.366-.26 0-.45-.585-.58-1.756-.13-1.171-.2-2.407-.2-3.707v-5.269c0-6.114-.19-13.788-.58-23.024a914.07 914.07 0 0 0-1.18-27.512c-7.54 0-19.25.78-35.12 2.341-21.85 2.211-35.64 4.813-41.36 7.805a202.111 202.111 0 0 1-4.49 2.341 5.81 5.81 0 0 1-2.93.781c-2.34 0-7.28-2.016-14.83-6.049-7.54-4.162-11.31-7.024-11.31-8.585 0-.911 1.04-1.561 3.12-1.951 2.08-.391 4.36-.586 6.83-.586 7.54 0 21.46-.91 41.75-2.731 20.3-1.822 39.74-3.578 58.34-5.269ZM1206 694c-4.55 0-8.59 1.106-12.1 3.317-4.81 2.992-7.22 7.35-7.22 13.073 0 4.033 2.15 7.675 6.44 10.927 4.29 3.122 9.43 4.683 15.42 4.683 5.2 0 9.43-1.301 12.68-3.902 3.25-2.602 4.88-5.854 4.88-9.756 0-5.594-1.89-10.017-5.66-13.269-3.64-3.382-8.46-5.073-14.44-5.073ZM1451.41 664.342c4.04 2.861 8.07 6.699 12.1 11.512 4.94 5.983 7.42 10.861 7.42 14.634 0 4.943-5.99 12.618-17.96 23.024-4.42 3.773-8.78 7.48-13.07 11.122 9.37 0 16.2-.455 20.49-1.366 4.81-1.431 9.04-2.601 12.68-3.512 3.77-1.04 7.03-1.561 9.76-1.561 3.64 0 7.15.976 10.53 2.927 3.39 1.821 5.08 4.423 5.08 7.805 0 1.951-.65 3.642-1.95 5.073-1.3 1.431-3.13 2.146-5.47 2.146-2.6 0-5.66-.325-9.17-.975-9.23-1.691-15.28-2.537-18.14-2.537-11.06 0-25.82.716-44.3 2.147-18.47 1.43-30.89 3.317-37.26 5.658-.92.26-2.54.976-4.88 2.146-1.43.651-2.6.976-3.52.976-2.73 0-7.67-1.821-14.82-5.463-7.16-3.643-10.74-6.504-10.74-8.586 0-1.561 2.61-2.341 7.81-2.341h7.22c13.53 0 31.87-.325 55.02-.976 4.17 0 9.63-.195 16.39-.585 7.29-8.065 12.56-14.634 15.81-19.707 2.86-4.553 4.29-8.261 4.29-11.122 0-2.862-1.82-6.439-5.46-10.732-3.52-4.423-6.57-6.634-9.17-6.634-1.04 0-5.66 3.252-13.86 9.756-3.9 3.122-7.48 4.683-10.73 4.683-2.86 0-6.24-.716-10.15-2.147-4.81-1.821-7.21-3.837-7.21-6.048 0-2.342 6.82-6.7 20.48-13.074s21.86-9.561 24.59-9.561c2.47 0 5.2 1.106 8.19 3.318Zm9.95 85.463c1.83 1.041 3.65 2.406 5.47 4.098 2.47 2.211 3.71 4.032 3.71 5.463a515.495 515.495 0 0 0-4.88 10.341c-1.43 3.122-2.15 6.049-2.15 8.781l3.12 3.122c1.04 1.04 1.56 2.211 1.56 3.512 0 1.561-.84 3.122-2.53 4.683-1.56 1.431-3.58 2.146-6.05 2.146-7.16 0-13.72.456-19.71 1.366-5.85.911-11.51 1.756-16.97 2.537v9.951c0 3.772.26 6.309.78 7.61.52 1.3 2.08 1.951 4.68 1.951h9.36c4.04 0 7.42-.26 10.15-.781l14.05-2.731c4.03 0 6.05 1.756 6.05 5.268 0 4.553-4.16 8.195-12.49 10.927-6.37 2.081-12.29 3.122-17.76 3.122-5.2 0-9.88-1.561-14.04-4.683-4.04-2.992-6.57-7.025-7.61-12.098l-1.17-7.024c-.65-3.903-1.37-6.569-2.15-8-.65-1.561-3.19-3.707-7.61-6.439-4.42-2.862-6.63-5.138-6.63-6.829 0-1.041.58-1.822 1.75-2.342 1.17-.65 3.25-.975 6.25-.975h2.73c12.48 0 21.53-.261 27.12-.781 5.72-.52 11.64-1.431 17.76-2.732v-17.365c-5.6 0-10.74.195-15.42.585-4.55.26-9.11 1.106-13.66 2.536-1.04.261-2.66.976-4.88 2.147-2.08 1.171-3.7 1.756-4.87 1.756-2.09 0-5.86-1.496-11.32-4.488-5.46-2.992-8.2-5.398-8.2-7.219 0-1.301 1.69-1.952 5.08-1.952l11.31.196c7.81 0 14.05-.131 18.74-.391 4.68-.39 10.27-1.171 16.78-2.341l10.53-3.903c1.04 0 2.08.326 3.12.976ZM1629.71 669.61c-2.61-2.342-3.91-4.228-3.91-5.659 0-1.821 1.76-2.731 5.27-2.731 4.94 0 10.73 1.821 17.37 5.463 7.54 4.163 11.31 8.39 11.31 12.683l-.58 6.829v72.39c2.08 0 5.85-1.04 11.32-3.121 3.12-1.171 5.52-1.757 7.22-1.757 2.99 0 5.78.781 8.39 2.342 2.6 1.561 3.9 3.707 3.9 6.439 0 1.821-.65 3.447-1.95 4.878-1.17 1.301-2.8 1.951-4.88 1.951-2.99 0-5.98-.195-8.98-.585-8.97-1.171-13.98-1.756-15.02-1.756 0 9.886-.91 19.512-2.73 28.878-1.82 9.366-4.62 19.252-8.39 29.658a13.299 13.299 0 0 1-1.76 3.903c-.13.26-.39.65-.78 1.17-.26 0-.52-.52-.78-1.561-.13-1.04-.19-2.796-.19-5.268l-1.37-137.561a36.492 36.492 0 0 0-4.29-7.219c-2.6-3.382-5.66-6.504-9.17-9.366Zm-32.78 51.122c.78 1.17 1.17 2.406 1.17 3.707 0 2.342-1.04 5.008-3.13 8-1.95 2.992-4.16 5.659-6.63 8 8.72 1.691 14.89 3.122 18.54 4.293 6.5 2.081 9.75 6.634 9.75 13.658 0 3.513-.52 6.244-1.56 8.195-1.04 1.952-2.4 2.927-4.1 2.927-1.17 0-3.44-2.081-6.82-6.244-8.2-10.276-14.77-16.585-19.71-18.926-7.68 7.154-15.81 13.138-24.39 17.951-10.8 6.114-20.43 9.171-28.88 9.171l-.78-.196c.52-.39 1.04-.715 1.56-.975s1.63-.716 3.32-1.366c6.89-2.732 16.19-9.691 27.9-20.878 12.62-12.098 18.93-21.138 18.93-27.122 0-1.431-.33-2.927-.98-4.488-.65-1.691-1.3-2.862-1.95-3.512-3.38 0-5.85.325-7.42.976-1.43.65-2.92 1.365-4.48 2.146-2.21 0-6.38-1.496-12.49-4.488-5.98-3.122-8.98-5.463-8.98-7.024 0-1.171 1.24-1.756 3.71-1.756h3.32c7.02 0 13.66-.391 19.9-1.171 9.63-1.171 17.11-3.187 22.44-6.049 1.56-.78 3.32-1.691 5.27-2.732 2.08-1.04 3.97-1.561 5.66-1.561 2.73 0 5.46.976 8.19 2.927 2.86 1.951 4.29 4.228 4.29 6.829 0 3.513-3.7 5.984-11.12 7.415a705.33 705.33 0 0 1-16.39 2.537c0 1.17.65 2.666 1.95 4.488 1.3 1.821 2.6 3.577 3.91 5.268ZM1735.22 736.927c-2.73-1.951-4.1-3.512-4.1-4.683 0-1.041 1.37-1.561 4.1-1.561 4.42 0 10.99.195 19.71.585 8.71.391 15.28.586 19.7.586l39.42-.39v-2.537c0-4.163-1.04-8.65-3.12-13.463-1.96-4.814-2.93-7.805-2.93-8.976 0-1.821.91-2.732 2.73-2.732 2.99 0 6.31 1.236 9.95 3.708 3.77 2.471 5.66 5.138 5.66 8 0 1.04-.26 2.731-.78 5.073-.52 2.341-.78 4.032-.78 5.073v5.463h2.93c4.68 0 8.45-.065 11.31-.195 2.86-.26 6.44-.976 10.73-2.146 4.3-1.301 7.68-1.951 10.15-1.951 2.99 0 6.18 1.04 9.56 3.122 3.51 2.081 5.27 4.487 5.27 7.219 0 3.642-2.28 5.463-6.83 5.463-3.51 0-7.67-.195-12.49-.585-11.18-.911-18.21-1.366-21.07-1.366h-8.39c-22.63 0-37.72.26-45.27.781-7.54.52-13.14 1.431-16.78 2.731-.78.261-2.54.976-5.27 2.147-1.56.65-2.86.975-3.9.975-2.21 0-5.59-1.366-10.15-4.097-2.47-1.561-5.59-3.642-9.36-6.244ZM1840 754.293c2.21 1.691 4.1 3.317 5.66 4.878 2.6 2.601 3.9 4.618 3.9 6.049 0 .91-.33 1.951-.98 3.122-.26.39-1.23 1.886-2.92 4.487-.65.911-1.17 2.472-1.56 4.683-.39 2.082-.72 4.098-.98 6.049.91.781 1.69 1.626 2.34 2.537.78.91 1.17 1.756 1.17 2.536 0 1.561-.78 2.992-2.34 4.293-1.56 1.301-3.64 1.951-6.24 1.951-5.86 0-12.88.39-21.08 1.171-8.19.78-13.91 1.171-17.17 1.171v11.512c0 2.992.33 4.813.98 5.463.65.651 2.21.976 4.68.976h5.08c3.51 0 9.36-.781 17.56-2.342 4.16-.78 7.41-1.17 9.75-1.17 2.47 0 4.36.65 5.66 1.951 1.3 1.301 1.95 2.862 1.95 4.683 0 4.292-3.9 7.609-11.71 9.951-5.59 1.691-11.18 2.537-16.78 2.537-5.72 0-10.99-1.496-15.8-4.488-5.59-3.382-8.59-7.74-8.98-13.073v-7.415c0-5.073-2.73-9.366-8.19-12.878-5.33-3.512-8-5.854-8-7.024 0-1.561 1.88-2.342 5.66-2.342h12.48c10.15 0 18.15-.195 24-.585 5.86-.391 10.74-.976 14.64-1.756v-16.196c-6.9 0-12.49.131-16.78.391-4.16.26-8.59.975-13.27 2.146-1.43.39-2.93.976-4.49 1.756-1.56.781-2.79 1.171-3.7 1.171-2.48 0-6.51-1.431-12.1-4.293-5.47-2.862-8.2-5.203-8.2-7.024 0-1.431 1.63-2.147 4.88-2.147l20.49.391c7.15 0 12.23-.065 15.22-.195 3.12-.261 7.09-.716 11.9-1.366 3.25-.911 6.5-1.821 9.76-2.732 1.17 0 2.34.39 3.51 1.171Zm-24.39-82.537 11.71.39c1.43 0 3.05-.065 4.87-.195 1.82-.13 3.71-.325 5.66-.585 1.95-.39 3.97-1.171 6.05-2.342 2.08-1.3 3.58-1.951 4.49-1.951 1.43 0 3.9 1.561 7.41 4.683 3.65 2.992 5.47 5.203 5.47 6.634 0 .911-.26 1.821-.78 2.732-1.69 2.862-2.54 4.358-2.54 4.488a110.681 110.681 0 0 1-4.88 17.366c-3.12 8.715-5.98 13.073-8.58 13.073-1.04 0-1.56-1.496-1.56-4.488v-29.854c-1.96 0-3.97.065-6.05.196-1.95.13-3.84.52-5.66 1.17a74.81 74.81 0 0 1-4.68 2.147c-1.7 0-4.82-1.561-9.37-4.683-4.55-3.252-6.83-5.594-6.83-7.025 0-1.17 1.43-1.756 4.29-1.756h.98Zm-54.64 1.561 9.17.39c2.09 0 3.71-.065 4.88-.195 1.3-.13 4.23-.715 8.78-1.756 1.3-.26 2.6-.845 3.91-1.756 1.43-.911 2.47-1.366 3.12-1.366 1.43 0 3.84 1.236 7.22 3.707 3.38 2.472 5.07 4.358 5.07 5.659 0 1.041-.52 2.537-1.56 4.488-.91 1.821-1.43 2.927-1.56 3.317a905.014 905.014 0 0 0-4.49 17.951c-2.86 9.366-5.72 14.049-8.58 14.049-.92 0-1.37-1.236-1.37-3.707v-30.634h-.98c-2.47 0-5.33.52-8.58 1.56-3.25 1.041-5.27 1.561-6.05 1.561-1.69 0-4.75-1.561-9.17-4.682-4.42-3.253-6.64-5.594-6.64-7.025 0-1.041 1.57-1.561 4.69-1.561h2.14ZM634.244 883.512c11.837 0 20.813 3.708 26.926 11.122 4.943 5.984 7.415 13.138 7.415 21.464 0 7.024-2.602 13.008-7.805 17.951-5.203 4.943-12.032 7.415-20.488 7.415-9.886 0-18.276-2.862-25.17-8.586-6.895-5.723-10.342-12.228-10.342-19.512 0-8.976 2.797-16.195 8.39-21.659 5.594-5.463 12.618-8.195 21.074-8.195Zm66.926 76.683V888.39c-.91-3.642-4.097-8.065-9.561-13.268-5.333-5.333-8-8.52-8-9.561 0-1.691 1.496-2.537 4.488-2.537 5.073 0 10.992 1.822 17.756 5.464 7.675 4.162 11.512 8.455 11.512 12.878 0 1.041-.195 2.471-.585 4.293-.39 1.821-.585 3.122-.585 3.902v16.195c0 11.707-.065 25.041-.195 40 0 14.829-.13 26.081-.391 33.756-.13 7.545-.52 13.984-1.17 19.317-.651 5.201-1.626 9.891-2.927 14.051-1.171 4.29-2.862 9.3-5.073 15.02a38.406 38.406 0 0 1-1.952 4.1c-.13.39-.39.85-.78 1.37-.26 0-.455-.59-.585-1.76a33.423 33.423 0 0 1-.196-3.71v-5.27c0-6.11-.195-13.78-.585-23.02a911.16 911.16 0 0 0-1.171-27.512c-7.544 0-19.252.78-35.122 2.341-21.853 2.211-35.642 4.813-41.365 7.805a207.563 207.563 0 0 1-4.488 2.341 5.798 5.798 0 0 1-2.927.781c-2.342 0-7.285-2.016-14.829-6.049-7.545-4.162-11.317-7.024-11.317-8.585 0-.911 1.04-1.561 3.122-1.951 2.081-.391 4.357-.586 6.829-.586 7.545 0 21.463-.91 41.756-2.731 20.293-1.822 39.74-3.578 58.341-5.269ZM636.585 896c-4.553 0-8.585 1.106-12.098 3.317-4.813 2.992-7.219 7.35-7.219 13.073 0 4.033 2.146 7.675 6.439 10.927C628 926.439 633.138 928 639.122 928c5.203 0 9.43-1.301 12.682-3.902 3.253-2.602 4.879-5.854 4.879-9.756 0-5.594-1.887-10.017-5.659-13.269-3.642-3.382-8.455-5.073-14.439-5.073ZM890.39 965.073c-11.317 1.041-24.391 2.732-39.22 5.073-19.252 3.122-31.805 5.984-37.658 8.586-2.992 2.081-5.724 3.122-8.196 3.122-3.252 0-5.918-1.561-8-4.683-2.081-3.252-3.121-6.634-3.121-10.147 0-1.821.26-3.252.78-4.292 2.992-4.293 5.203-11.968 6.634-23.025.39-3.642.781-8.78 1.171-15.414-.911-1.561-4.358-3.838-10.342-6.829-5.983-3.122-8.975-5.854-8.975-8.196 0-2.991 2.927-4.487 8.78-4.487l8.391.195c11.056 0 19.512-.651 25.365-1.952 2.082-.52 5.789-1.821 11.122-3.902a274.703 274.703 0 0 1 5.074-2.341c2.211-1.041 4.162-1.561 5.853-1.561 2.862 0 5.529.975 8 2.926 2.602 1.822 3.903 4.163 3.903 7.025 0 2.211-.716 4.227-2.147 6.049-1.431 1.821-3.382 2.926-5.853 3.317-8.716 1.3-15.675 2.406-20.878 3.317-5.204.78-10.732 1.821-16.586 3.122 0 4.162-.78 10.406-2.341 18.731-1.561 8.326-2.342 14.569-2.342 18.732 0 1.821.976 2.732 2.927 2.732 1.301 0 2.862-.13 4.683-.39 1.951-.391 4.033-.781 6.244-1.171l66.732-8.586v-61.073c-.651-1.431-5.073-6.959-13.269-16.585-3.382-4.033-5.073-6.699-5.073-8 0-1.691 1.236-2.537 3.708-2.537 4.682 0 11.056 2.147 19.122 6.439 8.065 4.163 12.097 8.326 12.097 12.488 0 .651-.195 1.886-.585 3.708-.391 1.821-.586 3.317-.586 4.487v68.293c-.13 7.154-.26 12.813-.39 16.976-.52 11.837-1.366 21.073-2.536 27.71-.651 3.38-2.277 9.1-4.879 17.17-2.991 9.1-5.008 13.66-6.048 13.66-.521 0-.846-.72-.976-2.15s-.195-3.38-.195-5.85v-37.077c0-7.675-.065-13.073-.195-16.195 0-3.252-.065-5.724-.195-7.415ZM1065.95 871.22c-2.73-2.342-4.1-4.293-4.1-5.854s1.63-2.342 4.88-2.342c4.68 0 10.86 2.082 18.54 6.244 7.67 4.033 11.51 8.13 11.51 12.293 0 .911-.2 2.211-.59 3.903-.26 1.691-.39 2.796-.39 3.317v69.073c0 13.788-.71 25.821-2.14 36.097-1.43 10.149-4.16 20.939-8.2 32.389-.65 2.08-1.36 3.77-2.14 5.07-.26.39-.59.85-.98 1.37-.13-.52-.26-1.24-.39-2.15-.13-.91-.19-1.62-.19-2.14v-3.71c0-6.11-.13-18.6-.39-37.463-.27-18.992-.53-36.878-.79-53.658-.26-16.781-.45-32.13-.58-46.049-1.04-2.212-2.6-4.618-4.68-7.22-2.74-3.252-5.86-6.309-9.37-9.17Zm-34.34 49.951c.91 1.04 1.36 2.276 1.36 3.707 0 1.561-.58 3.252-1.75 5.073-1.04 1.821-3.71 5.139-8 9.952 3.51 1.691 5.59 2.666 6.24 2.926 1.95.781 4.04 1.431 6.25 1.952 7.67 1.951 12.35 3.967 14.05 6.048 1.82 2.082 2.73 5.204 2.73 9.366 0 3.382-.52 5.984-1.56 7.805-1.04 1.821-2.41 2.732-4.1 2.732-1.56 0-4.03-2.147-7.42-6.439-8.84-10.927-15.61-17.561-20.29-19.903-10.67 9.886-16.91 15.545-18.73 16.976-7.025 5.463-14.635 9.236-22.83 11.317-2.992.65-5.918 1.236-8.78 1.756l-.586-.195c.391-.39.716-.65.976-.78.911-.521 2.146-1.171 3.707-1.952 7.415-3.642 15.935-10.797 25.561-21.463 10.662-11.838 16.002-21.203 16.002-28.098 0-3.512-.85-6.114-2.54-7.805-2.47 0-4.55.326-6.24.976-1.69.52-3.38 1.041-5.08 1.561-2.207 0-6.044-1.626-11.508-4.878-5.463-3.382-8.195-5.854-8.195-7.415 0-1.04 1.171-1.561 3.512-1.561h5.659c7.675 0 14.052-.325 19.122-.975 8.33-1.041 15.48-2.992 21.46-5.854 1.43-.911 2.47-1.496 3.13-1.756 1.95-1.041 3.83-1.561 5.65-1.561 2.74 0 5.34.845 7.81 2.537 2.6 1.691 3.9 3.837 3.9 6.439 0 3.252-3.25 5.463-9.75 6.634-5.21.78-10.41 1.496-15.61 2.146 0 1.301.58 2.927 1.75 4.878a53.33 53.33 0 0 0 4.1 5.854ZM1272.34 958.829c2.86 1.821 5.07 3.382 6.63 4.683 3.13 2.602 4.69 4.683 4.69 6.244a480.84 480.84 0 0 1-4.69 9.171c-1.3 2.602-1.95 5.008-1.95 7.219 1.69 1.431 2.74 2.407 3.13 2.927 1.17 1.301 1.75 2.537 1.75 3.708 0 1.3-.65 2.471-1.95 3.512-1.3 1.04-3.06 1.691-5.27 1.951-8.97 1.171-15.09 1.956-18.34 2.346-3.12.39-8.45.97-16 1.75v12.68c0 2.22.2 3.52.59 3.91.52.52 1.75.78 3.7.78h2.93c7.02 0 12.62-.39 16.78-1.17 4.29-.65 8.07-1.24 11.32-1.76h1.56c3.51 0 5.27 1.24 5.27 3.71 0 4.42-4.23 7.8-12.69 10.14-5.98 1.7-11.83 2.54-17.56 2.54-4.03 0-8.19-1.76-12.48-5.27-4.82-3.9-7.22-8.32-7.22-13.27v-4.68c0-1.82-3.06-4.55-9.18-8.19-6.11-3.646-9.17-6.313-9.17-8.004 0-1.691 1.83-2.536 5.47-2.536 9.1 0 18.34-.456 27.7-1.366 9.37-1.041 16.27-2.212 20.69-3.512v-16c-10.15 0-17.95.585-23.42 1.756-1.95.39-5.2 1.496-9.75 3.317-.65.26-1.63.715-2.93 1.366-1.3.65-2.34.975-3.12.975-2.08 0-5.86-1.496-11.32-4.488-5.33-2.991-8-5.268-8-6.829 0-1.301 1.69-1.951 5.07-1.951h6.25c9.36 0 17.56-.13 24.58-.39 7.16-.391 12.04-.911 14.64-1.561 2.6-.651 4.68-1.561 6.24-2.732 1.56-1.171 2.73-1.756 3.51-1.756.78 0 1.63.26 2.54.78Zm-18.93-87.414c-2.73-2.212-4.09-4.098-4.09-5.659 0-1.821 1.88-2.732 5.65-2.732 4.3 0 10.41 1.822 18.35 5.464 8.06 3.512 12.09 7.154 12.09 10.927 0 .65-.13 1.886-.39 3.707s-.39 3.252-.39 4.293v32.78c0 6.764-.91 12.943-2.73 18.537-1.17 3.642-2.99 7.675-5.46 12.097-2.34 4.293-3.9 6.439-4.68 6.439-.53 0-.79-1.105-.79-3.317v-3.317c0-4.943-.19-9.626-.58-14.049-.26-4.552-.65-8.78-1.17-12.682-2.99 0-6.18.975-9.56 2.926-3.38 1.952-5.27 2.927-5.66 2.927-1.3 0-4.42-1.756-9.37-5.268-4.81-3.642-7.22-6.114-7.22-7.415 0-.65.39-1.17 1.17-1.561.78-.39 2.15-.585 4.1-.585l7.42.195c3.9 0 6.96-.26 9.17-.78 3.64-1.171 6.83-2.212 9.56-3.122v-24.976c-1.17-2.342-3.45-5.008-6.83-8-2.6-2.342-5.46-4.618-8.59-6.829Zm-78.24 50.536c-2.6-1.561-3.9-3.057-3.9-4.487 0-2.082 2.47-3.122 7.41-3.122 7.16 0 12.75-.456 16.78-1.366 4.17-1.041 8.72-2.537 13.66-4.488 2.47-1.301 4.23-2.212 5.27-2.732 1.82-.91 3.45-1.366 4.88-1.366 2.08 0 4.55 1.171 7.41 3.513 2.86 2.211 4.29 4.227 4.29 6.048 0 2.342-5.91 4.683-17.75 7.025-11.71 2.341-18.47 3.642-20.29 3.902v16c0 2.211.13 3.577.39 4.098.52.91 1.69 1.366 3.51 1.366 4.42 0 10.21-1.431 17.36-4.293 7.16-2.992 11.84-4.488 14.05-4.488h.78c2.21 0 3.32.976 3.32 2.927 0 5.463-5.14 10.341-15.41 14.634-8.33 3.512-15.55 5.268-21.66 5.268-3.51 0-6.7-1.561-9.56-4.683-2.74-3.252-4.1-6.959-4.1-11.122 0-1.561.39-3.967 1.17-7.219.78-3.252 1.17-5.789 1.17-7.61 0-1.951-1.04-3.577-3.12-4.878a401.246 401.246 0 0 0-5.66-2.927Zm7.02-24.39c-2.34-.78-4.81-2.016-7.41-3.707-3.64-2.342-5.46-4.163-5.46-5.464 0-1.561 2.47-2.341 7.41-2.341 7.42 0 14.5-.911 21.27-2.732a71.42 71.42 0 0 0 14.05-5.463c.78-.391 1.75-.911 2.92-1.561 1.31-.651 2.54-.976 3.71-.976 1.82 0 4.23 1.236 7.22 3.707 3.12 2.342 4.68 4.423 4.68 6.244 0 2.212-7.02 4.683-21.07 7.415-7.67 1.561-13.01 3.122-16 4.683-2.99 1.431-4.88 2.146-5.66 2.146-.52 0-.97-.065-1.36-.195-1.56-.78-2.99-1.366-4.3-1.756ZM1396.78 985.951c-2.34-2.211-3.51-3.902-3.51-5.073 0-1.691 2.08-2.536 6.24-2.536 3.51 0 7.81 1.3 12.88 3.902 5.07 2.472 7.61 5.333 7.61 8.585l-.59 5.854v10.147c0 3.25.91 5.46 2.74 6.63 1.95 1.17 4.48 1.76 7.61 1.76 5.98 0 11.57-.39 16.78-1.17 5.2-1.04 9.04-1.76 11.51-2.15l2.73-.19c4.29 0 6.44 1.82 6.44 5.46 0 4.55-4.03 8.07-12.1 10.54-5.98 1.82-11.84 2.73-17.56 2.73-5.85 0-10.8-1.5-14.83-4.49-4.81-3.64-8.58-9.49-11.32-17.56-1.17-3.38-3.38-7.41-6.63-12.097-3.12-4.683-5.79-8.13-8-10.342Zm-40-21.463c-4.16-2.472-6.24-4.488-6.24-6.049 0-1.171 1.49-1.756 4.48-1.756l20.49.39c10.54 0 20.75-.13 30.64-.39 10.01-.26 18.99-.52 26.92-.78 0-3.513-.91-6.895-2.73-10.147a897.299 897.299 0 0 0-5.66-10.341c0-1.431 1.17-2.147 3.51-2.147 3.91 0 7.94.911 12.1 2.732 4.16 1.691 6.25 4.163 6.25 7.415 0 1.17-.2 3.122-.59 5.853-.26 2.602-.39 4.358-.39 5.269 3.9 0 7.67-.261 11.32-.781 3.64-.65 8.39-1.691 14.24-3.122 2.21-.52 4.29-1.04 6.24-1.561 1.96-.52 3.78-.78 5.47-.78 2.86 0 5.72 1.04 8.58 3.122 2.87 2.081 4.3 4.488 4.3 7.219 0 1.821-.72 3.382-2.15 4.683-1.43 1.171-3.38 1.756-5.85 1.756-3.26 0-6.25-.13-8.98-.39-9.37-.911-14.37-1.366-15.02-1.366-8.07 0-21.6.846-40.59 2.537-18.86 1.691-31.28 3.577-37.27 5.658-1.17.391-2.6.911-4.29 1.561-1.69.651-3.06.976-4.1.976-1.56 0-4.1-.781-7.61-2.342-3.51-1.691-7.87-4.097-13.07-7.219Zm45.07-77.073c-4.29-2.472-7.28-4.228-8.97-5.269-4.56-2.991-6.83-5.268-6.83-6.829 0-1.171 1.3-1.756 3.9-1.756l21.27.195c11.71 0 20.88-.26 27.51-.78 6.76-.651 12.1-1.952 16-3.903 4.03-2.081 7.22-3.122 9.56-3.122 2.6 0 5.6 1.041 8.98 3.122 3.38 2.082 5.07 4.358 5.07 6.829 0 2.992-1.89 4.683-5.66 5.074-16 1.04-29.01 1.951-39.02 2.731-10.02.781-16 1.626-17.95 2.537-1.82.78-3.45 1.496-4.88 2.146-1.43.521-2.54.781-3.32.781-1.04 0-2.93-.586-5.66-1.756Zm8.2 32.195c-.52-4.683-1.11-8.065-1.76-10.146-.52-2.082-1.49-5.139-2.93-9.171-.52-1.431-.78-2.732-.78-3.903 0-1.561.78-2.341 2.35-2.341 2.99 0 6.11 1.106 9.36 3.317 3.38 2.211 5.07 4.683 5.07 7.415 0 1.821-.52 4.422-1.56 7.804-.91 3.383-1.36 5.464-1.36 6.244 2.73-.26 5.01-.39 6.83-.39 11.31-.65 20.55-.975 27.7-.975 0-4.553-1.1-10.277-3.31-17.171-2.08-7.025-3.12-11.447-3.12-13.269 0-1.951.78-2.926 2.34-2.926 2.86 0 6.44 1.821 10.73 5.463 4.29 3.642 6.44 6.829 6.44 9.561 0 1.301-.78 4.748-2.34 10.342-.78 2.861-1.17 5.073-1.17 6.634 1.95 0 3.57-.195 4.87-.586 1.43-.39 2.67-.78 3.71-1.17 1.3 0 2.8 1.17 4.49 3.512 1.82 2.211 2.73 4.032 2.73 5.463 0 2.472-2.28 3.707-6.83 3.707-6.5 0-16.78.456-30.83 1.366-13.92.911-23.22 2.212-27.9 3.903-2.34 1.04-4.03 1.756-5.07 2.146-1.04.39-2.09.585-3.13.585-2.21 0-6.24-1.821-12.09-5.463-5.86-3.772-8.78-6.569-8.78-8.39 0-1.171 1.23-1.756 3.7-1.756l22.64.195ZM1543.85 1000.39c-3.64-2.081-5.46-3.837-5.46-5.268 0-1.431 2.21-2.146 6.63-2.146l27.13.195c19.25 0 35.38-.456 48.39-1.366 17.95-1.301 30.89-3.447 38.82-6.439 2.74-1.041 4.95-1.756 6.64-2.146a23.33 23.33 0 0 1 5.27-.586c3.38 0 6.96 1.366 10.73 4.098 3.9 2.731 5.85 5.723 5.85 8.975 0 4.033-2.73 6.053-8.19 6.053l-1.76-.2c-4.03-.52-9.23-.84-15.61-.97-6.24-.26-10.34-.39-12.29-.39-13.79 0-27.9.71-42.34 2.14-14.44 1.43-24.85 2.99-31.22 4.68-1.69.39-3.84 1.18-6.44 2.35-1.82.78-3.32 1.17-4.49 1.17-1.95 0-5.46-1.24-10.54-3.71-4.94-2.6-8.65-4.75-11.12-6.44Zm35.71-72.195c-3.9-2.081-5.85-3.967-5.85-5.658 0-2.472 3.31-3.708 9.95-3.708 14.05 0 25.43-.65 34.14-1.951 4.95-.78 10.08-2.016 15.42-3.707 1.43-.39 3.25-1.106 5.46-2.147 2.34-1.17 4.23-1.756 5.66-1.756 2.73 0 5.85 1.171 9.37 3.513 3.51 2.211 5.26 4.617 5.26 7.219 0 2.732-2.4 4.358-7.22 4.878l-51.7 6.439v17.171c0 2.992.39 4.813 1.17 5.463.78.651 3.12.976 7.02.976 8.98 0 17.24-1.301 24.78-3.903 7.55-2.601 11.97-3.902 13.27-3.902 2.6 0 5.27.911 8 2.732 2.86 1.821 4.29 3.902 4.29 6.244 0 3.382-2.47 5.658-7.41 6.829-8.2.91-15.87 1.756-23.02 2.537-14.05 1.56-22.44 2.666-25.18 3.317-2.6.65-4.48.975-5.65.975-3.13 0-5.73-1.04-7.81-3.122-2.08-2.081-3.12-5.528-3.12-10.341l.39-5.269c1.04-1.17 1.89-2.991 2.54-5.463.65-2.472.97-5.268.97-8.39 0-1.301-1.49-2.992-4.49-5.073-1.56-1.041-3.64-2.342-6.24-3.903Zm7.41-28.683c-3.51-1.951-6.17-3.577-8-4.878-4.03-2.731-6.04-4.748-6.04-6.049 0-1.691 2.53-2.536 7.61-2.536 15.21 0 27.18-.716 35.9-2.146 8.84-1.561 16.19-3.838 22.05-6.83 1.69-.78 2.92-1.301 3.7-1.561 2.09-.78 4.04-1.171 5.86-1.171 2.6 0 5.53 1.366 8.78 4.098 3.38 2.602 5.07 5.203 5.07 7.805 0 2.992-2.34 4.683-7.02 5.073-12.23 1.041-21.73 1.951-28.49 2.732-13.92 1.561-22.44 3.057-25.56 4.488-1.3.52-2.73 1.17-4.29 1.951-1.44.78-2.54 1.171-3.32 1.171-1.3 0-3.38-.716-6.25-2.147ZM1833.17 964.683c-10.28.911-22.18 2.472-35.71 4.683-17.3 2.862-28.75 5.528-34.34 8-2.99 2.081-5.72 3.122-8.19 3.122-3.39 0-6.12-1.626-8.2-4.878-1.95-3.252-2.93-6.699-2.93-10.342 0-1.951.26-3.447.78-4.487 1.3-2.212 2.35-5.529 3.13-9.952.91-4.552 1.36-10.276 1.36-17.17l-.19-5.269c-1.04-1.561-4.56-3.967-10.54-7.219-5.98-3.252-8.98-5.724-8.98-7.415 0-2.341 2.74-3.512 8.2-3.512l8.58.195c11.19 0 19.71-.65 25.57-1.951 2.08-.39 5.78-1.691 11.12-3.903 1.69-.65 3.44-1.365 5.27-2.146a16.11 16.11 0 0 1 6.04-1.171c3.26 0 6.12.716 8.59 2.147 2.47 1.3 3.71 3.447 3.71 6.439 0 2.081-.65 3.902-1.95 5.463-1.17 1.561-2.93 2.472-5.27 2.732l-40.59 6.634v30.049c0 3.902 1.04 5.853 3.12 5.853l71.42-9.951V888c-.65-1.431-4.42-6.504-11.32-15.219-2.86-3.643-4.29-6.049-4.29-7.22 0-1.691 1.3-2.537 3.9-2.537 4.29 0 10.02 2.212 17.17 6.635 7.16 4.292 10.73 8.325 10.73 12.097l-.58 6.244v70.829c3.25 0 7.02-.715 11.32-2.146 4.29-1.431 7.61-2.146 9.95-2.146 2.99 0 5.79.845 8.39 2.536 2.73 1.691 4.1 3.968 4.1 6.83 0 1.821-.66 3.382-1.96 4.682-1.17 1.171-2.99 1.757-5.46 1.757-.13 0-4.55-.651-13.27-1.952-4.42-.65-8.78-.975-13.07-.975-.26 5.203-.46 9.366-.59 12.488-.65 9.235-1.49 16.52-2.53 21.857-.91 5.33-2.47 11.44-4.69 18.34-2.86 9.1-4.94 13.66-6.24 13.66-.52 0-.85-.72-.98-2.15s-.19-3.38-.19-5.85v-37.077c0-7.675-.07-13.138-.2-16.39 0-3.252-.06-5.789-.19-7.61Z"/><path fill="#FF6D7F" d="M121.025 422.005h-6.695v-47.32h6.695v47.32Zm11.635-26.65c0 1.3-.455 2.34-1.3 3.25-.845.91-1.95 1.3-3.25 1.3-1.365 0-2.47-.39-3.315-1.3-.845-.91-1.235-1.95-1.235-3.25 0-1.235.39-2.275 1.235-3.185.845-.91 1.95-1.3 3.315-1.3 1.3 0 2.405.39 3.25 1.3.845.91 1.3 1.95 1.3 3.185Zm-29.9-15.6V414.4h-6.695v-28.34h-21.71v-6.305h28.405ZM185.025 422.005h-6.695v-47.32h6.695v47.32Zm11.57-26.65c0 1.3-.39 2.34-1.235 3.25-.91.91-1.95 1.3-3.25 1.3-1.43 0-2.47-.39-3.315-1.3-.845-.91-1.235-1.95-1.235-3.25 0-1.235.39-2.275 1.235-3.185.845-.91 1.885-1.3 3.315-1.3 1.3 0 2.34.39 3.25 1.3.845.91 1.235 1.95 1.235 3.185ZM140.89 414.4v-34.645h6.695v28.34h21.06v6.305H140.89ZM204.24 414.4v-28.34h-3.77v-6.305h29.64v6.305h-19.175v22.035h20.41v6.305H204.24Zm44.135 7.605h-6.695v-47.32h6.695v47.32Zm11.57-26.65c0 1.3-.39 2.34-1.235 3.25-.91.91-1.95 1.3-3.25 1.3-1.43 0-2.47-.39-3.315-1.3-.845-.91-1.235-1.95-1.235-3.25 0-1.235.39-2.275 1.235-3.185.845-.91 1.885-1.3 3.315-1.3 1.3 0 2.34.39 3.25 1.3.845.91 1.235 1.95 1.235 3.185ZM311.724 422.005h-6.695v-47.32h6.695v47.32Zm11.57-26c0 1.3-.39 2.34-1.235 3.25-.91.845-1.95 1.3-3.25 1.3-1.43 0-2.47-.455-3.315-1.3-.845-.91-1.235-1.95-1.235-3.25 0-1.235.39-2.34 1.235-3.185.845-.91 1.885-1.365 3.315-1.365 1.3 0 2.34.455 3.25 1.365.845.845 1.235 1.95 1.235 3.185Zm-29.25-16.25v20.15h-21.06v8.84h22.36v6.305h-28.99V393.6h20.995v-7.54h-20.995v-6.305h27.69ZM329.704 414.4v-34.645h27.69V414.4h-27.69Zm6.63-6.305h14.365V386.06h-14.365v22.035Zm38.74 13.91h-6.695v-47.32h6.695v47.32Zm11.57-26.65c0 1.3-.39 2.34-1.235 3.25-.91.91-1.95 1.3-3.25 1.3-1.43 0-2.47-.39-3.315-1.3-.845-.91-1.235-1.95-1.235-3.25 0-1.235.39-2.275 1.235-3.185.845-.91 1.885-1.3 3.315-1.3 1.3 0 2.34.39 3.25 1.3.845.91 1.235 1.95 1.235 3.185ZM438.423 422.005h-6.694v-47.32h6.694v47.32Zm11.57-26.65c0 1.3-.389 2.34-1.234 3.25-.91.91-1.95 1.3-3.25 1.3-1.43 0-2.47-.39-3.315-1.3-.845-.91-1.236-1.95-1.236-3.25 0-1.235.391-2.275 1.236-3.185.845-.91 1.885-1.3 3.315-1.3 1.3 0 2.34.39 3.25 1.3.845.91 1.234 1.95 1.234 3.185Zm-56.94 19.045v-34.645h6.631v9.425h14.69v-9.425h6.695V414.4h-28.016Zm6.631-6.305h14.69v-12.61h-14.69v12.61ZM501.773 422.005h-6.695v-47.32h6.695v47.32Zm11.57-26.65c0 1.3-.39 2.34-1.235 3.25-.91.91-1.95 1.3-3.25 1.3-1.43 0-2.47-.39-3.315-1.3-.845-.91-1.235-1.95-1.235-3.25 0-1.235.39-2.275 1.235-3.185.845-.91 1.885-1.3 3.315-1.3 1.3 0 2.34.39 3.25 1.3.845.91 1.235 1.95 1.235 3.185Zm-42.445-17.485 18.265 33.41-5.655 3.77-12.61-23.985-12.025 23.985-5.655-3.77 17.68-33.41ZM74.356 471.02v-5.98h54.274v5.98h-23.985c.65.78.975 1.495.975 2.21 0 1.3-.65 2.275-1.82 2.925 1.82.26 3.445.585 4.94 1.235 1.43.65 2.73 1.43 3.835 2.405 1.04 1.04 1.885 2.08 2.535 3.25.585 1.3.91 2.665.91 4.095 0 1.625-.39 3.055-1.105 4.355-.78 1.43-1.82 2.535-3.055 3.575-1.365.975-2.86 1.82-4.615 2.34-1.755.585-3.705.845-5.72.845-2.145 0-4.03-.26-5.785-.845a14.695 14.695 0 0 1-4.614-2.34c-1.3-1.04-2.276-2.145-2.99-3.575-.78-1.3-1.17-2.73-1.17-4.355 0-1.43.325-2.795.975-4.095.584-1.17 1.364-2.21 2.534-3.25.976-.975 2.34-1.755 3.836-2.405 1.43-.65 3.054-.975 4.874-1.235-1.234-.65-1.82-1.625-1.82-2.925 0-.715.326-1.43.976-2.21H74.356Zm49.204-23.335v14.82h-6.695v-8.84h-37.44v-5.98h44.135ZM93.4 487.14c0 1.495.78 2.73 2.275 3.705 1.496.975 3.446 1.495 5.85 1.495 2.34 0 4.29-.52 5.85-1.495 1.43-.975 2.21-2.21 2.21-3.705 0-1.56-.78-2.795-2.21-3.835-1.56-.91-3.51-1.43-5.85-1.43-2.404 0-4.355.52-5.85 1.43-1.495 1.04-2.275 2.275-2.275 3.835ZM188.795 495.005H182.1v-47.32h6.695v47.32Zm-8.905-26.65c0 1.3-.39 2.34-1.235 3.25-.91.91-1.95 1.3-3.315 1.3s-2.405-.39-3.25-1.3c-.91-.91-1.235-1.95-1.235-3.25 0-1.235.325-2.275 1.235-3.185.845-.91 1.885-1.3 3.25-1.3s2.405.39 3.315 1.3c.845.91 1.235 1.95 1.235 3.185Zm-25.155-17.485 18.33 33.41-5.72 3.77-12.61-23.985-11.96 23.985-5.655-3.77 17.615-33.41ZM248.375 495.005h-6.695v-47.32h6.695v47.32Zm11.57-26c0 1.3-.39 2.34-1.235 3.25-.91.845-1.95 1.3-3.25 1.3-1.43 0-2.47-.455-3.315-1.3-.845-.91-1.235-1.95-1.235-3.25 0-1.235.39-2.34 1.235-3.185.845-.91 1.885-1.365 3.315-1.365 1.3 0 2.34.455 3.25 1.365.845.845 1.235 1.95 1.235 3.185ZM204.24 488.05v-28.99h-3.77v-6.305h30.225v6.305h-19.76v7.54h19.76v6.305h-19.76v8.84h21.645v6.305h-28.34ZM315.494 472.905h-6.695V446.45h6.695v26.455Zm-47.905 23.335v-20.15h6.695v3.445h34.515v-3.445h6.695v20.15h-47.905Zm41.21-6.305v-4.095h-34.515v4.095h34.515Zm-35.945-29.64c0 1.885.715 3.38 2.21 4.355 1.43 1.04 3.38 1.56 5.785 1.56 2.34 0 4.29-.52 5.785-1.56 1.365-.975 2.145-2.47 2.145-4.355 0-1.885-.78-3.315-2.145-4.355-1.495-.975-3.445-1.495-5.785-1.495-2.405 0-4.355.52-5.785 1.495-1.495 1.04-2.21 2.47-2.21 4.355Zm-6.5 0c0-1.69.325-3.25 1.105-4.745.715-1.495 1.69-2.73 3.055-3.9 1.235-.975 2.795-1.82 4.55-2.405 1.755-.585 3.705-.91 5.785-.91 2.015 0 3.965.325 5.72.91s3.25 1.43 4.615 2.405c1.235 1.17 2.34 2.405 3.055 3.9.715 1.495 1.105 3.055 1.105 4.745 0 1.755-.39 3.38-1.105 4.81-.715 1.495-1.82 2.795-3.055 3.77-1.365 1.17-2.86 1.95-4.615 2.535-1.755.65-3.705.91-5.72.91-2.08 0-4.03-.26-5.785-.91-1.755-.585-3.315-1.365-4.55-2.535-1.365-.975-2.34-2.275-3.055-3.77-.78-1.43-1.105-3.055-1.105-4.81ZM356.809 487.4h-29.055v-6.305h4.095V459.06h-4.095v-6.305h27.755v6.305h-4.095v22.035h5.395v6.305Zm11.96 7.605h-6.695v-25.09c-.195 1.105-.65 2.015-1.365 2.6-.845.715-1.82 1.04-2.99 1.04-1.365 0-2.47-.39-3.185-1.235-.845-.845-1.235-1.95-1.235-3.185s.39-2.275 1.235-3.12c.715-.845 1.82-1.3 3.185-1.3 1.17 0 2.145.39 2.99 1.04.715.65 1.17 1.56 1.365 2.6v-20.67h6.695v47.32Zm11.96 0h-6.695v-47.32h6.695v47.32Zm-35.88-13.91V459.06h-6.435v22.035h6.435ZM442.194 495.005h-6.695v-47.32h6.695v47.32Zm-51.09-25.87c0-2.405.39-4.68 1.3-6.825.715-2.015 1.95-3.835 3.445-5.33 1.43-1.495 3.249-2.73 5.329-3.575 2.015-.845 4.226-1.3 6.631-1.3 2.405 0 4.68.455 6.76 1.3 2.015.845 3.704 2.08 5.264 3.575 1.43 1.495 2.601 3.315 3.511 5.33.845 2.145 1.234 4.42 1.234 6.825 0 2.47-.389 4.745-1.234 6.76-.91 2.145-2.081 3.9-3.511 5.395-1.56 1.56-3.249 2.73-5.264 3.575-2.08.845-4.355 1.3-6.76 1.3-2.405 0-4.616-.455-6.631-1.3-2.08-.845-3.899-2.015-5.329-3.575-1.495-1.495-2.73-3.25-3.445-5.395-.91-2.015-1.3-4.29-1.3-6.76Zm6.694 0c0 1.495.196 2.99.716 4.225.39 1.3 1.04 2.47 1.95 3.38.845 1.04 1.884 1.82 3.119 2.275 1.235.585 2.601.845 4.226.845 1.56 0 2.99-.26 4.225-.845 1.235-.455 2.275-1.235 3.185-2.275.91-.91 1.495-2.08 2.015-3.38.455-1.235.715-2.73.715-4.225 0-1.495-.26-2.925-.715-4.225-.52-1.235-1.105-2.405-2.015-3.38-.91-.975-1.95-1.69-3.185-2.275a10.88 10.88 0 0 0-4.225-.845c-1.625 0-2.991.325-4.226.845-1.235.585-2.274 1.3-3.119 2.275a8.854 8.854 0 0 0-1.95 3.38c-.52 1.3-.716 2.73-.716 4.225ZM454.453 490.585v-6.305h54.275v6.305h-54.275Zm27.17-39.715 23.92 21.32-4.42 4.485-19.5-17.29-19.565 17.29-4.42-4.485 23.985-21.32ZM75.656 534.27c0-1.885.325-3.575.974-5.2.65-1.495 1.56-2.795 2.666-3.965 1.17-1.04 2.47-1.95 4.03-2.6a15.143 15.143 0 0 1 4.94-.845c1.754 0 3.38.325 4.94.845 1.56.65 2.86 1.56 4.03 2.6 1.105 1.17 2.014 2.47 2.664 3.965.65 1.625.975 3.315.975 5.2 0 1.885-.325 3.64-.975 5.135-.65 1.625-1.56 2.925-2.665 3.965-1.17 1.17-2.47 2.015-4.03 2.535-1.56.65-3.184.975-4.94.975-1.755 0-3.445-.325-4.94-.975-1.56-.52-2.86-1.365-4.03-2.535-1.105-1.04-2.014-2.34-2.665-3.965-.65-1.495-.974-3.25-.974-5.135Zm26.454 14.82 24.635 15.405-4.42 4.745-20.215-12.61-20.15 12.61-4.42-4.745 24.57-15.405Zm13.26-2.535h-6.695v-5.265a4.995 4.995 0 0 1-1.43 1.43 4.743 4.743 0 0 1-2.275.585c-1.365 0-2.34-.39-3.12-1.3-.78-.715-1.17-1.755-1.17-2.99 0-1.235.39-2.21 1.17-3.12.78-.78 1.755-1.17 3.12-1.17.78 0 1.56.195 2.275.52.585.39 1.04.91 1.43 1.56v-6.89c-.39.65-.845 1.04-1.43 1.43a4.743 4.743 0 0 1-2.275.585c-1.365 0-2.34-.39-3.12-1.235-.78-.78-1.17-1.82-1.17-3.055 0-1.17.39-2.21 1.17-3.12.78-.715 1.755-1.17 3.12-1.17.78 0 1.56.195 2.275.585.585.39 1.04.845 1.43 1.495v-5.98h6.695v27.105Zm11.375 1.885h-6.695v-28.99h6.695v28.99ZM82.22 534.27c0 1.885.456 3.445 1.56 4.615.975 1.235 2.47 1.82 4.486 1.82 1.95 0 3.444-.585 4.55-1.82.974-1.17 1.495-2.73 1.495-4.615 0-1.885-.52-3.445-1.496-4.68-1.105-1.105-2.6-1.755-4.55-1.755-2.014 0-3.51.65-4.484 1.755-1.106 1.235-1.56 2.795-1.56 4.68ZM185.025 543.37h-6.695v-23.92h6.695v23.92Zm-2.925 11.895V552.6h-41.21v-6.045h47.905v14.625h-41.21v2.665h41.21v6.045H140.89v-14.625h41.21Zm14.495-23.335c0 1.235-.39 2.34-1.235 3.185-.91.91-1.95 1.365-3.25 1.365-1.43 0-2.47-.455-3.315-1.365-.845-.845-1.235-1.95-1.235-3.185s.39-2.34 1.235-3.25c.845-.845 1.885-1.3 3.315-1.3 1.3 0 2.34.455 3.25 1.3.845.91 1.235 2.015 1.235 3.25Zm-55.705 10.855v-20.8h6.695v14.625h21.06v6.175H140.89ZM201.055 544.02v-5.98h54.275v5.98h-23.985c.65.78.975 1.495.975 2.21 0 1.3-.65 2.275-1.82 2.925 1.82.26 3.445.585 4.94 1.235 1.43.65 2.73 1.43 3.835 2.405 1.04 1.04 1.885 2.08 2.535 3.25.585 1.3.91 2.665.91 4.095 0 1.625-.39 3.055-1.105 4.355-.78 1.43-1.82 2.535-3.055 3.575-1.365.975-2.86 1.82-4.615 2.34-1.755.585-3.705.845-5.72.845-2.145 0-4.03-.26-5.785-.845a14.695 14.695 0 0 1-4.615-2.34c-1.3-1.04-2.275-2.145-2.99-3.575-.78-1.3-1.17-2.73-1.17-4.355 0-1.43.325-2.795.975-4.095.585-1.17 1.365-2.21 2.535-3.25.975-.975 2.34-1.755 3.835-2.405 1.43-.65 3.055-.975 4.875-1.235-1.235-.65-1.82-1.625-1.82-2.925 0-.715.325-1.43.975-2.21h-23.985Zm49.205-23.335v14.82h-6.695v-8.84h-37.44v-5.98h44.135ZM220.1 560.14c0 1.495.78 2.73 2.275 3.705 1.495.975 3.445 1.495 5.85 1.495 2.34 0 4.29-.52 5.85-1.495 1.43-.975 2.21-2.21 2.21-3.705 0-1.56-.78-2.795-2.21-3.835-1.56-.91-3.51-1.43-5.85-1.43-2.405 0-4.355.52-5.85 1.43-1.495 1.04-2.275 2.275-2.275 3.835ZM264.404 544.67v-5.98h54.275v5.98h-24.375c.91.715 1.365 1.495 1.365 2.535 0 1.105-.52 2.08-1.56 2.665 1.69.26 3.315.65 4.81 1.235 1.43.65 2.73 1.365 3.77 2.275 1.04.91 1.82 2.015 2.47 3.12.585 1.3.91 2.535.91 3.9 0 1.69-.39 3.12-1.105 4.355-.78 1.365-1.82 2.47-3.055 3.445a16.749 16.749 0 0 1-4.615 2.145c-1.755.52-3.705.78-5.72.78-2.145 0-4.03-.26-5.785-.78s-3.315-1.235-4.615-2.145c-1.3-.975-2.275-2.08-2.99-3.445-.78-1.235-1.17-2.665-1.17-4.355 0-1.365.26-2.6.91-3.9.585-1.105 1.365-2.21 2.47-3.12.975-.91 2.275-1.625 3.77-2.275 1.365-.585 2.99-.975 4.745-1.235-1.04-.585-1.495-1.56-1.495-2.665 0-.52.13-.975.39-1.43.195-.325.52-.715.91-1.105h-24.31Zm48.88-18.07h-17.485l19.37 5.46-3.445 5.005-20.15-5.655-20.215 5.655-3.445-5.005 19.37-5.46h-17.485v-5.915h43.485v5.915Zm-29.835 33.8c0 1.56.78 2.73 2.275 3.64 1.495.845 3.445 1.3 5.85 1.3 2.34 0 4.29-.455 5.85-1.3 1.43-.91 2.21-2.08 2.21-3.64 0-1.495-.78-2.665-2.21-3.575-1.56-.845-3.51-1.3-5.85-1.3-2.405 0-4.355.455-5.85 1.3-1.495.91-2.275 2.08-2.275 3.575ZM327.169 542.135c0-2.34.325-4.42 1.04-6.24.65-1.755 1.56-3.25 2.86-4.55a11.55 11.55 0 0 1 4.355-2.73c1.625-.65 3.38-.975 5.265-.975 1.755 0 3.51.325 5.07.845 1.495.52 2.86 1.365 4.16 2.405 1.105 1.17 2.145 2.47 2.86 4.095.78 1.625 1.235 3.445 1.43 5.525.26-.845.715-1.495 1.495-2.015.715-.52 1.56-.78 2.665-.78.78 0 1.56.195 2.21.52.65.39 1.105.91 1.495 1.43v-18.98h6.695v47.32h-6.695V544.67c-.845 1.235-2.08 1.885-3.705 1.885-1.105 0-1.95-.26-2.665-.78-.78-.455-1.235-1.105-1.495-2.015-.195 2.145-.65 3.965-1.43 5.59-.715 1.625-1.755 2.925-2.86 4.03-1.3 1.105-2.665 1.95-4.16 2.47-1.56.52-3.315.78-5.07.78a15.44 15.44 0 0 1-5.265-.91c-1.69-.65-3.185-1.56-4.355-2.795-1.3-1.17-2.21-2.73-2.86-4.55-.715-1.755-1.04-3.835-1.04-6.24Zm53.56 25.87h-6.695v-47.32h6.695v47.32Zm-46.995-25.87c0 1.17.13 2.145.325 3.185.26.975.65 1.885 1.3 2.6.52.78 1.235 1.43 2.145 1.82.845.52 1.95.715 3.185.715 1.3 0 2.34-.195 3.25-.715.845-.39 1.56-1.04 2.21-1.82.455-.715.91-1.625 1.17-2.6.26-1.04.39-2.015.39-3.185 0-1.04-.13-2.145-.39-3.12a9.162 9.162 0 0 0-1.17-2.665 7.358 7.358 0 0 0-2.21-1.82c-.91-.455-1.95-.715-3.25-.715-1.235 0-2.34.26-3.185.715-.91.455-1.625 1.04-2.145 1.82-.65.715-1.04 1.625-1.3 2.665a16.38 16.38 0 0 0-.325 3.12ZM442.194 568.005h-6.695v-47.32h6.695v47.32Zm-8.905-26.65c0 1.3-.391 2.34-1.236 3.25-.91.91-1.95 1.3-3.315 1.3s-2.405-.39-3.25-1.3c-.91-.91-1.234-1.95-1.234-3.25 0-1.235.324-2.275 1.234-3.185.845-.91 1.885-1.3 3.25-1.3s2.405.39 3.315 1.3c.845.91 1.236 1.95 1.236 3.185Zm-25.155-17.485 18.33 33.41-5.721 3.77-12.609-23.985-11.961 23.985-5.655-3.77 17.616-33.41ZM470.248 519.775l11.375 13.78 11.31-13.78 13.26 16.055-4.745 3.77-8.515-10.725-8.515 10.725-2.795-2.275-2.86 2.275-8.515-10.725-8.515 10.725-4.745-3.77 13.26-16.055Zm-12.61 48.23V552.86h6.695v8.97h41.21v6.175h-47.905Zm-3.185-18.72v-6.175h54.275v6.175h-54.275ZM79.425 612.015V593.36h6.696v2.73h30.744v-2.73h6.695v18.655H79.425Zm17.94 11.31c0-.65.26-1.235.846-1.885H74.355v-5.98h54.274v5.98h-23.92c.585.65.91 1.235.91 1.885 0 .65-.26 1.235-.65 1.69a4.71 4.71 0 0 1-1.625 1.17l22.75 11.31L122 642.24l-20.475-9.945-20.54 9.945-4.094-4.745 22.75-11.31c-.65-.26-1.236-.65-1.626-1.17-.454-.455-.65-1.04-.65-1.69Zm-11.244-17.42h30.744v-3.9H86.121v3.9ZM137.705 617.02v-5.98h54.275v5.98h-54.275Zm44.395 12.09v-2.6h-41.21v-5.72h47.905v13.91h-41.21v2.535h41.21v5.655H140.89v-13.78h41.21Zm4.81-35.75v14.235h-6.695v-8.19h-37.44v-6.045h44.135ZM211.195 596.87l9.1 27.95 9.165-27.95 11.375 34.645-6.045 2.535-5.33-18.915-5.395 18.915-3.77-1.56-3.77 1.56-5.33-18.915-5.395 18.915-5.98-2.535 11.375-34.645Zm40.95 44.135h-6.695v-47.32h6.695v47.32ZM315.494 641.005h-6.695v-47.32h6.695v47.32Zm-50.44-4.42v-6.305h39.715v6.305h-39.715Zm4.42-28.08c0-1.495.325-3.055 1.04-4.615.585-1.43 1.56-2.73 2.73-3.9 1.17-1.105 2.6-2.015 4.225-2.73 1.56-.65 3.38-1.04 5.265-1.04 1.885 0 3.64.39 5.265 1.04 1.56.715 2.99 1.625 4.16 2.73 1.17 1.17 2.08 2.47 2.795 3.9.65 1.56.975 3.12.975 4.615 0 1.885-.325 3.64-.975 5.135-.715 1.495-1.625 2.795-2.795 3.835a11.244 11.244 0 0 1-4.16 2.47c-1.625.65-3.38.845-5.265.845-1.885 0-3.705-.195-5.265-.845a11.003 11.003 0 0 1-4.225-2.47c-1.17-1.04-2.145-2.34-2.73-3.835-.715-1.495-1.04-3.25-1.04-5.135Zm6.5 0c0 .91.195 1.69.585 2.47.26.78.78 1.43 1.43 2.015.585.65 1.235 1.105 2.145 1.365.78.39 1.625.52 2.6.52.845 0 1.755-.13 2.6-.52.78-.26 1.56-.715 2.145-1.365.585-.585 1.105-1.235 1.495-2.015.325-.78.455-1.56.455-2.47 0-.845-.13-1.69-.455-2.47-.39-.715-.91-1.365-1.495-2.015-.585-.52-1.365-.975-2.145-1.365-.845-.325-1.755-.52-2.6-.52-.975 0-1.82.195-2.6.52-.91.39-1.56.845-2.145 1.365-.65.65-1.17 1.3-1.43 2.015a5.518 5.518 0 0 0-.585 2.47ZM327.754 617.02v-5.98h54.275v5.98h-54.275Zm44.395 12.09v-2.6h-41.21v-5.72h47.905v13.91h-41.21v2.535h41.21v5.655h-47.905v-13.78h41.21Zm4.81-35.75v14.235h-6.695v-8.19h-37.44v-6.045h44.135ZM422.629 605.06h-13.585l15.534 25.22-5.46 3.77-11.57-19.565-11.634 19.565-5.396-3.77 15.405-25.22h-13.519v-6.305h30.225v6.305Zm15.794 35.945h-6.694v-47.32h6.694v47.32Zm11.57-26.65c0 1.3-.389 2.34-1.234 3.25-.91.91-1.95 1.3-3.25 1.3-1.43 0-2.47-.39-3.315-1.3-.845-.91-1.236-1.95-1.236-3.25 0-1.235.391-2.275 1.236-3.185.845-.91 1.885-1.3 3.315-1.3 1.3 0 2.34.39 3.25 1.3.845.91 1.234 1.95 1.234 3.185ZM498.848 629.11v-2.6h-41.21v-5.72h47.905v13.91h-41.21v2.535h41.21v5.655h-47.905v-13.78h41.21Zm-21.515-20.93c0-.195 0-.455.065-.585h-5.005v-8.19h-14.105v-6.045h20.8v11.83c.325-.195.65-.39 1.17-.585.39-.13.845-.195 1.365-.195 1.105 0 2.08.39 2.99 1.105.845.715 1.235 1.625 1.235 2.665 0 1.105-.325 1.95-1.105 2.6-.845.78-1.755 1.17-2.86 1.235h26.845v5.98h-54.275v-5.98h26.78c-1.17-.065-2.015-.455-2.795-1.235-.78-.65-1.105-1.495-1.105-2.6Zm26.325-14.82v15.47h-6.695v-9.425h-14.755v-6.045h21.45ZM125.445 714.005h-6.695v-47.32h6.695v47.32Zm-50.44-4.42v-6.305h39.715v6.305H75.005Zm4.42-28.08c0-1.495.326-3.055 1.04-4.615.585-1.43 1.56-2.73 2.73-3.9 1.17-1.105 2.6-2.015 4.226-2.73 1.56-.65 3.38-1.04 5.264-1.04 1.885 0 3.64.39 5.266 1.04 1.56.715 2.989 1.625 4.159 2.73 1.17 1.17 2.08 2.47 2.795 3.9.65 1.56.975 3.12.975 4.615 0 1.885-.325 3.64-.975 5.135-.715 1.495-1.625 2.795-2.795 3.835a11.242 11.242 0 0 1-4.16 2.47c-1.624.65-3.38.845-5.264.845-1.886 0-3.706-.195-5.266-.845a11.003 11.003 0 0 1-4.225-2.47c-1.17-1.04-2.144-2.34-2.73-3.835-.715-1.495-1.04-3.25-1.04-5.135Zm6.5 0c0 .91.196 1.69.585 2.47.26.78.78 1.43 1.43 2.015.585.65 1.236 1.105 2.145 1.365.78.39 1.626.52 2.6.52.846 0 1.755-.13 2.6-.52.78-.26 1.56-.715 2.145-1.365.585-.585 1.105-1.235 1.495-2.015.326-.78.456-1.56.456-2.47 0-.845-.13-1.69-.456-2.47-.39-.715-.91-1.365-1.495-2.015-.585-.52-1.365-.975-2.145-1.365-.844-.325-1.754-.52-2.6-.52-.975 0-1.82.195-2.6.52-.91.39-1.56.845-2.144 1.365-.65.65-1.17 1.3-1.43 2.015a5.518 5.518 0 0 0-.585 2.47ZM142.125 706.4v-28.34h-3.77v-6.305h30.875v6.305h-20.41v22.035h21.71v6.305h-28.405Zm46.67 7.605H182.1v-47.32h6.695v47.32ZM234.53 678.06h-14.235l16.12 25.22-5.395 3.77-12.285-19.695-12.285 19.695-5.395-3.77 16.055-25.22h-14.105v-6.305h31.525v6.305Zm17.615 35.945h-6.695v-47.32h6.695v47.32ZM306.654 677.93c0 1.235-.39 2.34-1.235 3.185-.91.91-1.95 1.365-3.315 1.365s-2.405-.455-3.25-1.365c-.91-.845-1.235-1.95-1.235-3.185s.325-2.34 1.235-3.25c.845-.845 1.885-1.3 3.25-1.3s2.405.455 3.315 1.3c.845.91 1.235 2.015 1.235 3.25Zm2.145 23.855v-2.73h-41.21v-5.85h47.905v13.845h-41.21v2.99h41.21v5.85h-47.905v-14.105h41.21Zm-40.56-11.765v-16.38h-3.835v-5.98h30.29v5.98h-19.825v2.08h19.825v5.915h-19.825v2.405h21.71v5.98h-28.34Zm47.255.65h-6.695v-25.22h6.695v25.22ZM350.634 686.9c0-1.17.39-2.08 1.365-2.86h-19.175v-6.175h7.54v-5.005h-7.54v-6.175h44.135v6.175h-7.54v5.005h7.54v6.175h-19.24c.975.78 1.43 1.69 1.43 2.86 0 .715-.13 1.3-.455 1.82-.39.585-.845.975-1.43 1.3h24.765v6.175h-54.275v-6.175h24.765c-.65-.325-1.105-.715-1.43-1.3-.39-.52-.455-1.105-.455-1.82Zm-19.695 27.105V699.51h6.695v8.32h41.21v6.175h-47.905Zm31.915-36.14v-5.005h-15.925v5.005h15.925ZM391.104 709.585v-6.305h54.275v6.305h-54.275Zm6.305-14.43v-18.46h-3.77v-6.24h46.67v6.24h-36.205v2.925h36.205v6.11h-36.205v3.25h36.205v6.175h-42.9ZM457.638 706.4v-28.34h-3.77v-6.305h29.64v6.305h-19.175v22.035h20.41v6.305h-27.105Zm44.135 7.605h-6.695v-47.32h6.695v47.32Zm11.57-26.65c0 1.3-.39 2.34-1.235 3.25-.91.91-1.95 1.3-3.25 1.3-1.43 0-2.47-.39-3.315-1.3-.845-.91-1.235-1.95-1.235-3.25 0-1.235.39-2.275 1.235-3.185.845-.91 1.885-1.3 3.315-1.3 1.3 0 2.34.39 3.25 1.3.845.91 1.235 1.95 1.235 3.185Z"/></svg>