<svg width="1920" height="1080" fill="none" xmlns="http://www.w3.org/2000/svg"><path d="M312.872 560.772H281.83V630h-38.965V440.891h70.267c22.34 0 39.571 4.978 51.693 14.936 12.123 9.958 18.184 24.028 18.184 42.212 0 12.902-2.814 23.682-8.443 32.341-5.541 8.572-13.984 15.413-25.327 20.521l40.913 77.281V630H348.33l-35.458-69.228Zm-31.042-31.561h31.432c9.784 0 17.361-2.468 22.729-7.403 5.369-5.023 8.053-11.906 8.053-20.652 0-8.918-2.554-15.932-7.663-21.041-5.022-5.108-12.772-7.663-23.249-7.663H281.83v56.759Zm122.609 29.224c0-13.941 2.685-26.367 8.053-37.277 5.369-10.91 13.075-19.352 23.119-25.327 10.131-5.975 21.864-8.962 35.199-8.962 18.962 0 34.419 5.802 46.368 17.404 12.036 11.603 18.746 27.362 20.132 47.278l.259 9.611c0 21.561-6.018 38.878-18.053 51.953-12.036 12.989-28.185 19.483-48.447 19.483-20.261 0-36.453-6.494-48.576-19.483-12.036-12.988-18.054-30.652-18.054-52.992v-1.688Zm37.537 2.727c0 13.335 2.511 23.552 7.533 30.652 5.022 7.014 12.209 10.521 21.56 10.521 9.092 0 16.192-3.464 21.301-10.391 5.109-7.013 7.663-18.183 7.663-33.509 0-13.075-2.554-23.206-7.663-30.393-5.109-7.187-12.295-10.78-21.56-10.78-9.179 0-16.279 3.593-21.301 10.78-5.022 7.1-7.533 18.14-7.533 33.12Zm245.348-.13c0 22.513-4.805 40.091-14.417 52.733-9.611 12.555-23.032 18.833-40.263 18.833-15.24 0-27.406-5.845-36.498-17.535L594.458 630h-33.77V430.5h37.537v71.565c8.658-10.13 20.045-15.196 34.159-15.196 17.144 0 30.566 6.321 40.263 18.963 9.785 12.555 14.677 30.263 14.677 53.122v2.078Zm-37.536-2.727c0-14.201-2.251-24.548-6.754-31.042-4.502-6.581-11.213-9.871-20.132-9.871-11.949 0-20.175 4.892-24.677 14.676v55.46c4.589 9.871 12.901 14.807 24.937 14.807 12.123 0 20.089-5.975 23.899-17.924 1.818-5.715 2.727-14.417 2.727-26.106Zm54.941.13c0-13.941 2.684-26.367 8.052-37.277 5.369-10.91 13.075-19.352 23.119-25.327 10.131-5.975 21.864-8.962 35.199-8.962 18.963 0 34.419 5.802 46.368 17.404 12.036 11.603 18.746 27.362 20.132 47.278l.259 9.611c0 21.561-6.018 38.878-18.053 51.953-12.036 12.989-28.185 19.483-48.447 19.483-20.261 0-36.453-6.494-48.576-19.483-12.036-12.988-18.053-30.652-18.053-52.992v-1.688Zm37.536 2.727c0 13.335 2.511 23.552 7.533 30.652 5.022 7.014 12.209 10.521 21.56 10.521 9.092 0 16.192-3.464 21.301-10.391 5.109-7.013 7.663-18.183 7.663-33.509 0-13.075-2.554-23.206-7.663-30.393-5.109-7.187-12.295-10.78-21.56-10.78-9.179 0-16.279 3.593-21.301 10.78-5.022 7.1-7.533 18.14-7.533 33.12Zm163.652-106.244v34.549h24.028v27.535h-24.028v70.137c0 5.195.996 8.918 2.987 11.17 1.992 2.251 5.802 3.377 11.43 3.377 4.156 0 7.836-.304 11.04-.91v28.445c-7.36 2.251-14.936 3.377-22.729 3.377-26.323 0-39.745-13.292-40.264-39.874v-75.722h-20.522v-27.535h20.522v-34.549h37.536Zm35.198 103.517c0-13.941 2.684-26.367 8.053-37.277 5.368-10.91 13.075-19.352 23.119-25.327 10.131-5.975 21.864-8.962 35.203-8.962 18.96 0 34.41 5.802 46.36 17.404 12.04 11.603 18.75 27.362 20.14 47.278l.26 9.611c0 21.561-6.02 38.878-18.06 51.953-12.03 12.989-28.18 19.483-48.44 19.483-20.267 0-36.459-6.494-48.581-19.483-12.036-12.988-18.054-30.652-18.054-52.992v-1.688Zm37.536 2.727c0 13.335 2.511 23.552 7.534 30.652 5.022 7.014 12.209 10.521 21.565 10.521 9.09 0 16.19-3.464 21.3-10.391 5.1-7.013 7.66-18.183 7.66-33.509 0-13.075-2.56-23.206-7.66-30.393-5.11-7.187-12.3-10.78-21.56-10.78-9.183 0-16.283 3.593-21.305 10.78-5.023 7.1-7.534 18.14-7.534 33.12Z" fill="#3C4043"/><path d="M1166.07 630V440.891h66.24c22.95 0 40.35 4.416 52.22 13.248 11.86 8.745 17.79 21.604 17.79 38.575 0 9.265-2.38 17.447-7.14 24.548-4.77 7.013-11.39 12.165-19.88 15.456 9.7 2.424 17.32 7.317 22.86 14.677 5.63 7.36 8.45 16.365 8.45 27.015 0 18.184-5.81 31.951-17.41 41.303-11.6 9.351-28.14 14.114-49.61 14.287h-73.52Zm38.97-82.346v51.044h33.38c9.18 0 16.32-2.164 21.43-6.494 5.19-4.416 7.79-10.477 7.79-18.183 0-17.318-8.96-26.107-26.89-26.367h-35.71Zm0-27.535h28.83c19.66-.346 29.48-8.182 29.48-23.509 0-8.572-2.51-14.72-7.53-18.443-4.93-3.81-12.77-5.715-23.51-5.715h-27.27v47.667Zm122.61 38.316c0-13.941 2.68-26.367 8.05-37.277 5.37-10.91 13.07-19.352 23.12-25.327 10.13-5.975 21.86-8.962 35.2-8.962 18.96 0 34.42 5.802 46.36 17.404 12.04 11.603 18.75 27.362 20.14 47.278l.26 9.611c0 21.561-6.02 38.878-18.06 51.953-12.03 12.989-28.18 19.483-48.44 19.483-20.27 0-36.46-6.494-48.58-19.483-12.04-12.988-18.05-30.652-18.05-52.992v-1.688Zm37.53 2.727c0 13.335 2.51 23.552 7.54 30.652 5.02 7.014 12.2 10.521 21.56 10.521 9.09 0 16.19-3.464 21.3-10.391 5.11-7.013 7.66-18.183 7.66-33.509 0-13.075-2.55-23.206-7.66-30.393-5.11-7.187-12.3-10.78-21.56-10.78-9.18 0-16.28 3.593-21.3 10.78-5.03 7.1-7.54 18.14-7.54 33.12ZM1523.51 630h-37.67V430.5h37.67V630Zm25.2-71.306c0-21.907 4.89-39.354 14.67-52.342 9.87-12.989 23.34-19.483 40.4-19.483 13.68 0 24.98 5.109 33.9 15.326V430.5h37.66V630h-33.9l-1.82-14.937c-9.35 11.69-21.38 17.535-36.1 17.535-16.54 0-29.83-6.494-39.88-19.483-9.95-13.075-14.93-31.215-14.93-54.421Zm37.53 2.728c0 13.161 2.3 23.249 6.89 30.263 4.59 7.013 11.25 10.52 20 10.52 11.6 0 19.78-4.892 24.55-14.677v-55.46c-4.68-9.784-12.78-14.676-24.29-14.676-18.1 0-27.15 14.676-27.15 44.03Z" fill="#D2E3FC"/><path stroke="#D2E3FC" stroke-width="20" stroke-linecap="square" d="M1666 852.999h-490M1176 833.999v-30M1666 833.999v-30"/><path stroke="#1A73E8" stroke-width="20" stroke-linecap="square" d="M1063 853H253M253 832.999v-30M1063 833v-30"/></svg>