<svg width="1920" height="1080" xmlns="http://www.w3.org/2000/svg" viewBox="0 0 1920 1080" fill="none">
  <style>
  path {
    fill: black;
  }
  @media (prefers-color-scheme: dark) {
    path {
      fill: white;
    }
  }
  </style>
  <g>
    <path d="m618.05,577.44v-74.68c0-1.06.58-1.73,1.63-1.73h16.51c1.06,0,1.73.67,1.73,1.73v57.6h34.27c.96,0,1.63.58,1.63,1.54v15.55c0,1.06-.67,1.73-1.63,1.73h-52.51c-1.06,0-1.63-.67-1.63-1.73Z"/>
    <path d="m684.39,577.44v-74.68c0-1.06.58-1.73,1.63-1.73h16.51c1.06,0,1.73.67,1.73,1.73v74.68c0,1.06-.67,1.73-1.73,1.73h-16.51c-1.06,0-1.63-.67-1.63-1.73Z"/>
    <path d="m719.43,577.44v-74.68c0-1.06.58-1.73,1.63-1.73h17.28c.96,0,1.54.38,2.02,1.15l27.93,46.46v-45.88c0-1.06.58-1.73,1.73-1.73h15.65c1.06,0,1.63.67,1.63,1.73v74.68c0,1.06-.58,1.73-1.63,1.73h-17.18c-.96,0-1.63-.38-2.02-1.15l-28.03-46.65v46.08c0,1.06-.58,1.73-1.63,1.73h-15.74c-1.06,0-1.63-.67-1.63-1.73Z"/>
    <path d="m802.47,577.44v-74.68c0-1.06.58-1.73,1.63-1.73h51.45c.96,0,1.73.67,1.73,1.73v13.73c0,1.06-.77,1.73-1.73,1.73h-33.41v12.77h29.47c1.06,0,1.73.58,1.73,1.63v13.25c0,1.06-.67,1.73-1.73,1.73h-29.47v14.4h34.65c.96,0,1.73.67,1.73,1.73v13.73c0,1.06-.77,1.73-1.73,1.73h-52.7c-1.06,0-1.63-.67-1.63-1.73Z"/>
    <path d="m888.39,559.87c-.1-.29-.1-.48-.1-.67,0-.67.48-1.25,1.25-1.44l14.78-3.65c.19,0,.38-.1.58-.1.67,0,1.25.38,1.54,1.15,2.3,5.66,6.24,8.06,12.58,8.06,5.09,0,8.64-1.73,8.64-5.38,0-3.94-3.46-5.86-9.89-8.16l-8.16-2.88c-11.9-4.13-19.49-11.9-19.49-23.52,0-14.01,12.48-23.81,28.03-23.81,13.06,0,23.52,6.05,27.93,19.29.1.19.1.48.1.67,0,.77-.48,1.25-1.25,1.44l-15.46,4.22c-.29.1-.48.1-.67.1-.77,0-1.15-.38-1.54-1.15-2.3-5.57-5.47-7.1-9.41-7.1-4.32,0-7.49,1.92-7.49,5.28s2.88,5.47,10.85,8.16l5.86,1.92c13.82,4.7,20.64,11.71,20.64,24.57,0,13.82-12,23.81-29.28,23.81-14.78,0-25.73-7.39-30.05-20.83Z"/>
    <path d="m954.34,550.85c0-17.28,11.62-29.28,29.66-29.28s28.99,13.34,27.93,32.54c-.1,1.06-.67,1.63-1.82,1.63h-36.38c1.44,5.57,4.99,8.64,10.37,8.64,4.13,0,7.3-1.25,9.31-4.03.67-.77,1.44-.96,2.3-.77l13.63,4.61c.67.29,1.06.67,1.06,1.25,0,.29-.1.58-.29.96-5.18,9.7-15.36,13.82-26.11,13.82-18.05,0-29.66-12-29.66-29.37Zm29.37-14.3c-5.28,0-8.83,2.98-9.98,8.74h19.39c-1.06-5.57-4.32-8.74-9.41-8.74Z"/>
    <path d="m1018.18,550.85c0-17.28,11.61-29.28,29.66-29.28s28.99,13.34,27.93,32.54c-.1,1.06-.67,1.63-1.82,1.63h-36.38c1.44,5.57,4.99,8.64,10.37,8.64,4.13,0,7.3-1.25,9.31-4.03.67-.77,1.44-.96,2.3-.77l13.63,4.61c.67.29,1.06.67,1.06,1.25,0,.29-.1.58-.29.96-5.18,9.7-15.36,13.82-26.11,13.82-18.05,0-29.66-12-29.66-29.37Zm29.37-14.3c-5.28,0-8.83,2.98-9.98,8.74h19.39c-1.06-5.57-4.32-8.74-9.41-8.74Z"/>
    <path d="m1082.02,550.85c0-17.57,10.56-29.28,26.3-29.28,5.95,0,11.04,1.92,14.78,5.47v-26.01c0-1.06.67-1.73,1.73-1.73h15.74c1.06,0,1.73.67,1.73,1.73v76.41c0,1.06-.67,1.73-1.73,1.73h-13.34c-.96,0-1.73-.67-1.73-1.73l-.19-4.99c-4.13,4.99-9.79,7.78-16.99,7.78-15.74,0-26.3-11.81-26.3-29.37Zm31.01,12.58c6.91,0,11.62-5.18,11.62-12.58s-4.7-12.48-11.62-12.48-11.62,5.09-11.62,12.48,4.7,12.58,11.62,12.58Z"/>
    <path d="m1172.83,560.45c-.1-.29-.1-.48-.1-.67,0-.77.38-1.25,1.25-1.44l14.59-3.94c.19-.1.48-.1.67-.1.67,0,1.25.48,1.44,1.25,1.25,3.46,3.65,5.86,7.68,5.86,6.53,0,8.54-4.99,8.54-12.19v-29.57h-19.58c-1.06,0-1.73-.67-1.73-1.63v-15.26c0-1.06.67-1.73,1.73-1.73h37.73c1.06,0,1.73.67,1.73,1.73v47.9c0,21.5-10.94,30.05-28.03,30.05-14.01,0-22.85-8.06-25.92-20.25Z"/>
    <path d="m1241.37,577.44v-74.68c0-1.06.58-1.73,1.63-1.73h26.11c21.6,0,32.83,9.79,32.83,28.61s-11.23,28.7-32.83,28.7h-8.16v19.1c0,1.06-.67,1.73-1.73,1.73h-16.22c-1.06,0-1.63-.67-1.63-1.73Zm40.32-48c0-8.54-4.99-11.81-13.05-11.81h-7.68v24.09h7.68c8.06,0,13.05-3.36,13.05-12.29Z"/>
  </g>
</svg>
