<svg width="1920" height="1080" fill="none" xmlns="http://www.w3.org/2000/svg"><mask id="a" style="mask-type:alpha" maskUnits="userSpaceOnUse" x="50" y="50" width="1820" height="980"><path fill="#C4C4C4" d="M50 50h1820v980H50z"/></mask><g mask="url(#a)"><mask id="b" style="mask-type:alpha" maskUnits="userSpaceOnUse" x="869" y="-148" width="1235" height="1349"><path transform="rotate(10 1074.76 -147.417)" fill="#F3F7FE" d="M1074.76-147.417h1045.06v1184.34H1074.76z"/></mask><g mask="url(#b)" fill="#3C4043"><path d="M907.058 296.25v120.426a23.291 23.291 0 0 0 .976 7.189 8.873 8.873 0 0 0 2.84 4.437 7.98 7.98 0 0 0 4.703 1.42 23.789 23.789 0 0 0 9.274-2.219 315.097 315.097 0 0 0 11.359-5.28 408.064 408.064 0 0 1 12.602-5.902l-1.908 21.077a70.993 70.993 0 0 1-16.152 22.675 83.341 83.341 0 0 1-22.807 15.663 59.535 59.535 0 0 1-24.937 5.768 49.656 49.656 0 0 1-24.449-5.591 36.17 36.17 0 0 1-15.176-16.151 58.838 58.838 0 0 1-5.014-25.603v-87.458a11.935 11.935 0 0 0-1.775-7.188 9.8 9.8 0 0 0-6.212-3.328l-3.194-.665v-39.27h79.87Zm101.612 0v136.711c-.06 1.781.15 3.561.62 5.28a5.837 5.837 0 0 0 2.4 3.195c1.39.861 2.88 1.56 4.43 2.086l2.27.621v33.856h-66.916l-7.676-40.867-3.816-4.792v-85.639a8.384 8.384 0 0 0-3.683-7.321 17.76 17.76 0 0 0-7.499-3.195l-3.861-.665v-39.27h83.731ZM1133 361.078v29.063a114.331 114.331 0 0 0-18.5 6.39 41.32 41.32 0 0 0-9.89 6.079 13.318 13.318 0 0 0-4.18 5.901c-.63 2.067-.84 4.24-.62 6.39 0 2.263.31 4.659.31 7.188a34.71 34.71 0 0 0 1.29 10.871c.3 1.114.81 2.156 1.52 3.063.71.908 1.6 1.662 2.61 2.218a15.37 15.37 0 0 0 7.05 1.42h7.19c2.49-.138 4.92-.739 7.19-1.775a18.344 18.344 0 0 0 6.39-5.103l8.87 5.103a98.509 98.509 0 0 1-14.37 25.736 48.953 48.953 0 0 1-17.75 14.066 54.286 54.286 0 0 1-21.92 4.437 73.15 73.15 0 0 1-28.89-4.792 29.642 29.642 0 0 1-15.84-15.353 65.9 65.9 0 0 1-4.79-27.156 78.85 78.85 0 0 1 4.44-27.777c3-7.906 8.21-14.788 14.99-19.834a99.302 99.302 0 0 1 28.93-14.377 383.147 383.147 0 0 1 45.97-11.758Zm10.56 116.92-6.39-34.166-5.1-3.816v-88.212a88.39 88.39 0 0 0-.49-9.895 8.772 8.772 0 0 0-1.18-3.688 8.815 8.815 0 0 0-2.63-2.835 21.836 21.836 0 0 0-11.98-2.396c-6.25-.056-12.5.211-18.73.798-5.01.533-8.03.799-8.87.799-.42.142-.87.195-1.31.157a3.13 3.13 0 0 1-1.25-.382 3.186 3.186 0 0 1-1.57-2.038c-.63-2.277-.48-4.701.44-6.878a15.052 15.052 0 0 1 5.15-6.833 12.965 12.965 0 0 1 9.72-2.263v39.625h-53.03v-45.038c4.9-2.726 9.97-5.127 15.18-7.189 8.37-3.331 17.03-5.9 25.87-7.676a170.793 170.793 0 0 1 35.5-3.372c11.36-.138 22.71.933 33.85 3.195a67.325 67.325 0 0 1 23.83 9.761 41.577 41.577 0 0 1 14.07 16.285 54.04 54.04 0 0 1 4.43 23.162v87.857c-.03 1.781.18 3.558.63 5.281a5.781 5.781 0 0 0 2.39 3.195 23.39 23.39 0 0 0 4.66 2.085l2.22.621v33.856h-65.41ZM1220.78 337.427v-39.58h1.95c3.46.054 6.9-.441 10.2-1.465 1.56-.538 3-1.38 4.24-2.476a12.6 12.6 0 0 0 2.95-3.913 31.655 31.655 0 0 0 2.71-14.865l38.03 21.121h71.57v41.178h-131.65Zm89.45 75.433a35.646 35.646 0 0 0 2.57 15.175 13.331 13.331 0 0 0 7.01 7.011 28.391 28.391 0 0 0 10.25 1.774 67.5 67.5 0 0 0 12.3-.976c2.26-.499 4.56-.825 6.87-.976v42.509c-3.01.621-6.83 1.331-11.49 2.085-4.66.755-9.94 1.331-15.66 1.731-5.73.399-11.85.665-18.24.665a117.422 117.422 0 0 1-33.06-4.171 39.312 39.312 0 0 1-22.18-15.485c-5.21-7.544-7.81-18.459-7.81-32.747V301.663l1.91-2.885v-55.421h67.4l.13 169.503ZM1447.61 296.25v125.529a44.898 44.898 0 0 0 2.08 16.64 7.289 7.289 0 0 0 2.89 3.368 7.248 7.248 0 0 0 4.3 1.069h.62v35.143h-88.48v-34.965h.62c1.52.1 3.02-.274 4.31-1.069a7.214 7.214 0 0 0 2.88-3.369 44.07 44.07 0 0 0 2.09-16.639v-75.256c.19-2.444-.37-4.889-1.6-7.01a10.625 10.625 0 0 0-6.08-3.506l-2.22-.665v-39.27h78.59Zm-36.43-18.237a46.985 46.985 0 0 1-28.58-7.499 26.656 26.656 0 0 1-7.8-10.125 26.56 26.56 0 0 1-2.18-12.593c-.3-4.36.46-8.726 2.21-12.728a27.154 27.154 0 0 1 7.86-10.257 57.112 57.112 0 0 1 57.2 0c3.4 2.736 6.1 6.255 7.85 10.257a27.005 27.005 0 0 1 2.22 12.728c.32 4.342-.44 8.696-2.19 12.68a26.65 26.65 0 0 1-7.88 10.171 47.084 47.084 0 0 1-28.71 7.366ZM1652.38 387.614a120.471 120.471 0 0 1-9.89 51.25 70.354 70.354 0 0 1-29.69 32.436 113.866 113.866 0 0 1-98.42 0 70.13 70.13 0 0 1-29.72-32.436 121 121 0 0 1-9.99-51.25 132.758 132.758 0 0 1 5.59-40.245 78.14 78.14 0 0 1 16.77-29.73 72.76 72.76 0 0 1 27.83-18.547c25.06-8.52 52.23-8.52 77.29 0a72.529 72.529 0 0 1 27.78 18.547 78.008 78.008 0 0 1 16.77 29.73 132.485 132.485 0 0 1 5.68 40.245Zm-107.33 0c0 12.336.4 22.497 1.11 30.484a37.875 37.875 0 0 0 5.14 17.749 16.18 16.18 0 0 0 5.55 4.262 16.142 16.142 0 0 0 13.66 0 16.087 16.087 0 0 0 5.55-4.262 38.72 38.72 0 0 0 4.79-17.749c.63-7.987.94-18.148.94-30.484 0-12.335-.31-22.289-.94-29.862a41.146 41.146 0 0 0-4.79-18.06 15.832 15.832 0 0 0-5.5-4.41 15.846 15.846 0 0 0-6.88-1.575c-2.38 0-4.73.539-6.87 1.575a15.776 15.776 0 0 0-5.51 4.41 38.917 38.917 0 0 0-5.14 17.749c-.49 7.943-1.11 18.015-1.11 30.173ZM1672.84 477.999v-34.966h.97a6.63 6.63 0 0 0 2.78-.465 6.67 6.67 0 0 0 2.33-1.576 14.716 14.716 0 0 0 2.88-6.877c.71-4.401 1.02-8.856.93-13.312v-74.102a17.94 17.94 0 0 0-.62-5.103 6.566 6.566 0 0 0-2.4-3.505 11.933 11.933 0 0 0-4.43-1.908l-2.27-.666V296.25h70.11l7.68 40.867.62 4.792v98.107c0 .621.44 1.154 1.29 1.597.97.461 2 .775 3.06.932.99.198 2 .302 3.02.311h1.28v35.143h-87.23Zm192.97 0h-87.54v-34.966h.97c1.18-.002 2.35-.106 3.51-.31 1.1-.146 2.18-.46 3.19-.932.85-.444 1.29-.976 1.29-1.598v-82.931c.06-2.501-.31-4.994-1.11-7.366a8.883 8.883 0 0 0-3.37-4.437 10.399 10.399 0 0 0-5.77-1.42c-3.29.103-6.54.794-9.59 2.041-3.59 1.42-7.54 3.106-11.8 5.147l-13.09 6.212 1.91-21.076a70.304 70.304 0 0 1 16.28-22.675 84.657 84.657 0 0 1 23.34-15.663 61.503 61.503 0 0 1 25.56-5.769 54.05 54.05 0 0 1 25.38 5.458 35.113 35.113 0 0 1 15.67 16.107 58.876 58.876 0 0 1 5.28 26.047v80.491c-.08 4.451.19 8.902.8 13.312a13.294 13.294 0 0 0 2.7 6.878 6.63 6.63 0 0 0 5.11 2.041h1.28v35.409ZM778.336 797.481v-34.965h.932a7.1 7.1 0 0 0 6.878-4.792 50.3 50.3 0 0 0 2.085-17.749v-73.791a17.746 17.746 0 0 0-.666-5.281 6.03 6.03 0 0 0-2.396-3.328 12.004 12.004 0 0 0-4.437-1.908l-2.219-.665v-39.27h68.689l7.632 40.867.665 4.793v98.107c0 .621.4 1.153 1.287 1.597.953.461 1.97.775 3.017.932.994.198 2.004.302 3.018.31h1.287v35.143h-85.772Zm187.207 0H880.88v-34.965h.621a20.097 20.097 0 0 0 3.506-.311 10.907 10.907 0 0 0 3.195-.932c.843-.443 1.286-.976 1.286-1.597v-82.932a24.41 24.41 0 0 0-.931-7.365 8.525 8.525 0 0 0-3.062-4.438 9.499 9.499 0 0 0-5.591-1.42 44.357 44.357 0 0 0-9.096 1.11 65.467 65.467 0 0 0-11.493 3.683 63.625 63.625 0 0 0-12.956 7.321l1.908-19.79a71.924 71.924 0 0 1 16.151-22.674 82.834 82.834 0 0 1 22.985-15.664 59.818 59.818 0 0 1 25.115-5.768 48.804 48.804 0 0 1 24.094 5.458 35.237 35.237 0 0 1 14.865 16.107 60.084 60.084 0 0 1 5.102 26.046v100.015c0 .622.444 1.154 1.287 1.598 1.011.472 2.089.786 3.195.932a20.59 20.59 0 0 0 3.505.31h.977v35.276Zm102.057 0h-86.084v-34.965h1.287a20.913 20.913 0 0 0 3.506-.311 11.34 11.34 0 0 0 3.194-.932c.843-.443 1.287-.976 1.287-1.597v-82.932a24.234 24.234 0 0 0-.976-7.365 8.432 8.432 0 0 0-3.017-4.438 9.675 9.675 0 0 0-5.591-1.42c-3.062.043-6.118.31-9.141.799a46.456 46.456 0 0 0-11.492 3.505 45.819 45.819 0 0 0-12.913 8.875l1.908-21.077a70.995 70.995 0 0 1 16.108-22.674 82.378 82.378 0 0 1 23.029-15.663 59.581 59.581 0 0 1 25.075-5.769 48.765 48.765 0 0 1 24.13 5.458 34.881 34.881 0 0 1 14.82 16.107 60.005 60.005 0 0 1 5.15 26.047v80.491c-.38 5.99.31 12 2.04 17.749a7.088 7.088 0 0 0 2.66 3.519 7.075 7.075 0 0 0 4.22 1.273h.98l-.18 35.32ZM1262.67 707.094a120.46 120.46 0 0 1-9.85 51.25 70.101 70.101 0 0 1-29.69 32.436 113.88 113.88 0 0 1-49.21 11.183 113.88 113.88 0 0 1-49.21-11.183 70.132 70.132 0 0 1-29.68-32.436 120.346 120.346 0 0 1-9.94-51.25 132.454 132.454 0 0 1 5.59-40.246 78.136 78.136 0 0 1 16.77-29.729 72.802 72.802 0 0 1 27.82-18.548c25.07-8.52 52.24-8.52 77.3 0a72.727 72.727 0 0 1 27.82 18.548 77.873 77.873 0 0 1 16.77 29.729 132.733 132.733 0 0 1 5.51 40.246Zm-107.38 0c0 12.335.38 22.497 1.15 30.484a37.368 37.368 0 0 0 5.1 17.749 16.156 16.156 0 0 0 24.76 0 38.72 38.72 0 0 0 4.79-17.749c.63-7.987.94-18.149.94-30.484 0-12.336-.31-22.29-.94-29.863a41.142 41.142 0 0 0-4.79-18.059 15.821 15.821 0 0 0-5.5-4.41 15.832 15.832 0 0 0-6.88-1.575c-2.38 0-4.73.538-6.87 1.575a15.765 15.765 0 0 0-5.51 4.41 38.494 38.494 0 0 0-5.1 17.749c-.83 7.957-1.24 18.015-1.24 30.173h.09ZM1283.07 797.481v-34.965h.8c.95.046 1.89-.113 2.77-.465a6.58 6.58 0 0 0 2.33-1.576 14.27 14.27 0 0 0 2.89-6.878c.72-4.398 1.05-8.854.97-13.311v-74.102c.03-1.724-.2-3.442-.66-5.103a6.156 6.156 0 0 0-2.4-3.505 11.933 11.933 0 0 0-4.43-1.908l-2.27-.666v-39.269h70.29l7.67 40.867.67 4.792v98.107c0 .621.4 1.153 1.24 1.597.97.454 2 .768 3.06.932 1 .198 2.01.302 3.02.311h1.29v35.142h-87.24Zm192.98 0h-87.55v-34.965h.98c1.17-.003 2.35-.107 3.5-.311 1.11-.145 2.19-.459 3.2-.931.84-.444 1.28-.977 1.28-1.598v-82.932a20.27 20.27 0 0 0-1.11-7.365 8.827 8.827 0 0 0-3.37-4.437 10.25 10.25 0 0 0-5.72-1.42c-3.29.094-6.54.786-9.59 2.041a174.18 174.18 0 0 0-11.84 5.147l-13.32 6.212 2.36-20.899a70.982 70.982 0 0 1 16.28-22.674 84.49 84.49 0 0 1 23.34-15.664 61.452 61.452 0 0 1 25.56-5.768 53.904 53.904 0 0 1 25.38 5.457 35.043 35.043 0 0 1 15.66 16.107 58.6 58.6 0 0 1 5.28 26.047v80.491c-.07 4.452.2 8.902.8 13.312a13.39 13.39 0 0 0 2.71 6.878 6.609 6.609 0 0 0 2.15 1.657c.83.397 1.73.618 2.64.65h1.29l.09 34.965ZM1615.02 761.716l-23.65 25.248-23.96 26.624-54.62-143.101a62.56 62.56 0 0 0-5.73-9.274 13.782 13.782 0 0 0-6.07-4.437 29.228 29.228 0 0 0-9.59-1.287h-2.26v-39.58h102.05v38.338h-13.71c-1.06 0-1.73.31-1.9.665-.26.427-.39.922-.36 1.42l39.8 105.384Zm2.89 31.061a378.577 378.577 0 0 1-16.78 39.314 98.031 98.031 0 0 1-17.74 25.558 58.703 58.703 0 0 1-22.55 13.889 93.743 93.743 0 0 1-30.04 4.437c-8.42.185-16.84-.665-25.07-2.529a106.28 106.28 0 0 1-13.31-3.994v-39.935a46.95 46.95 0 0 0 8.43 3.062c3.9 1.008 7.86 1.75 11.85 2.219 4.42.537 8.86.803 13.31.798 5.17.095 10.32-.762 15.18-2.529a28.529 28.529 0 0 0 11.49-8.874 57.726 57.726 0 0 0 8.87-16.773 168.56 168.56 0 0 0 6.7-27.289l16.95-11.847 37.37-110.532v-2.396c0-.532-.45-.887-1.29-1.109-1.89-.286-3.81-.39-5.72-.311h-5.46v-38.337h64.25v39.58h-2.53a6.054 6.054 0 0 0-2.38.351 6.15 6.15 0 0 0-2.06 1.246 14.072 14.072 0 0 0-2.88 5.28c-.85 2.441-2.13 6.035-3.82 10.694l-42.77 120.027Z"/></g><mask id="c" style="mask-type:alpha" maskUnits="userSpaceOnUse" x="1082" y="375" width="150" height="150"><circle cx="1157" cy="450" r="75" fill="#C4C4C4"/></mask><g mask="url(#c)"><mask id="d" style="mask-type:alpha" maskUnits="userSpaceOnUse" x="869" y="-148" width="1235" height="1349"><path transform="rotate(10 1074.76 -147.417)" fill="#F3F7FE" d="M1074.76-147.417h1045.06v1184.34H1074.76z"/></mask><g mask="url(#d)" fill="#1A73E8"><path d="M1133 361.078v29.063a114.331 114.331 0 0 0-18.5 6.39 41.32 41.32 0 0 0-9.89 6.079 13.318 13.318 0 0 0-4.18 5.901c-.63 2.067-.84 4.24-.62 6.39 0 2.263.31 4.659.31 7.188a34.71 34.71 0 0 0 1.29 10.871c.3 1.114.81 2.156 1.52 3.063.71.908 1.6 1.662 2.61 2.218a15.37 15.37 0 0 0 7.05 1.42h7.19c2.49-.138 4.92-.739 7.19-1.775a18.344 18.344 0 0 0 6.39-5.103l8.87 5.103a98.509 98.509 0 0 1-14.37 25.736 48.953 48.953 0 0 1-17.75 14.066 54.286 54.286 0 0 1-21.92 4.437 73.15 73.15 0 0 1-28.89-4.792 29.642 29.642 0 0 1-15.84-15.353 65.9 65.9 0 0 1-4.79-27.156 78.85 78.85 0 0 1 4.44-27.777c3-7.906 8.21-14.788 14.99-19.834a99.302 99.302 0 0 1 28.93-14.377 383.147 383.147 0 0 1 45.97-11.758Zm10.56 116.92-6.39-34.166-5.1-3.816v-88.212a88.39 88.39 0 0 0-.49-9.895 8.772 8.772 0 0 0-1.18-3.688 8.815 8.815 0 0 0-2.63-2.835 21.836 21.836 0 0 0-11.98-2.396c-6.25-.056-12.5.211-18.73.798-5.01.533-8.03.799-8.87.799-.42.142-.87.195-1.31.157a3.13 3.13 0 0 1-1.25-.382 3.186 3.186 0 0 1-1.57-2.038c-.63-2.277-.48-4.701.44-6.878a15.052 15.052 0 0 1 5.15-6.833 12.965 12.965 0 0 1 9.72-2.263v39.625h-53.03v-45.038c4.9-2.726 9.97-5.127 15.18-7.189 8.37-3.331 17.03-5.9 25.87-7.676a170.793 170.793 0 0 1 35.5-3.372c11.36-.138 22.71.933 33.85 3.195a67.325 67.325 0 0 1 23.83 9.761 41.577 41.577 0 0 1 14.07 16.285 54.04 54.04 0 0 1 4.43 23.162v87.857c-.03 1.781.18 3.558.63 5.281a5.781 5.781 0 0 0 2.39 3.195 23.39 23.39 0 0 0 4.66 2.085l2.22.621v33.856h-65.41ZM1220.78 337.427v-39.58h1.95c3.46.054 6.9-.441 10.2-1.465 1.56-.538 3-1.38 4.24-2.476a12.6 12.6 0 0 0 2.95-3.913 31.655 31.655 0 0 0 2.71-14.865l38.03 21.121h71.57v41.178h-131.65Zm89.45 75.433a35.646 35.646 0 0 0 2.57 15.175 13.331 13.331 0 0 0 7.01 7.011 28.391 28.391 0 0 0 10.25 1.774 67.5 67.5 0 0 0 12.3-.976c2.26-.499 4.56-.825 6.87-.976v42.509c-3.01.621-6.83 1.331-11.49 2.085-4.66.755-9.94 1.331-15.66 1.731-5.73.399-11.85.665-18.24.665a117.422 117.422 0 0 1-33.06-4.171 39.312 39.312 0 0 1-22.18-15.485c-5.21-7.544-7.81-18.459-7.81-32.747V301.663l1.91-2.885v-55.421h67.4l.13 169.503Z"/></g></g><mask id="e" style="mask-type:alpha" maskUnits="userSpaceOnUse" x="-187" y="-85" width="1222" height="1346"><path transform="rotate(10 18.66 -84.686)" fill="#F3F7FE" d="M18.659-84.686h1031.06v1184.34H18.659z"/></mask><g mask="url(#e)" fill="#3C4043"><path d="M242.63 392.407v60.701a150.813 150.813 0 0 1-18.504 12.912 117.831 117.831 0 0 1-21.254 9.94 157.374 157.374 0 0 1-23.473 6.212 136.129 136.129 0 0 1-24.937 2.219 107.051 107.051 0 0 1-40.246-7.322 82.705 82.705 0 0 1-31.46-22.186 106.05 106.05 0 0 1-20.633-37.539 170.433 170.433 0 0 1-7.321-52.581 160.678 160.678 0 0 1 7.81-52.537 107.728 107.728 0 0 1 21.253-37.361 87.154 87.154 0 0 1 31.061-22.187 94.362 94.362 0 0 1 37.228-7.543 72.288 72.288 0 0 1 31.061 6.878 61.32 61.32 0 0 1 24.76 22.186 97.935 97.935 0 0 1 13.711 41.532l-6.035-15.352 2.529-48.81h21.432v69.354h-26.668a128.656 128.656 0 0 0-14.554-34.522 66.944 66.944 0 0 0-17.261-19.168 28.526 28.526 0 0 0-15.485-6.079 33.458 33.458 0 0 0-17.261 3.993 27.642 27.642 0 0 0-10.694 14.865 123.27 123.27 0 0 0-5.591 31.327c-1.065 13.607-1.597 31.489-1.597 53.646 0 21.298.488 38.766 1.464 52.403a161.366 161.366 0 0 0 4.437 31.638 28.446 28.446 0 0 0 8.875 15.486 23.16 23.16 0 0 0 14.376 4.437 42.364 42.364 0 0 0 8.875-.799 17.752 17.752 0 0 0 5.901-2.218 7.327 7.327 0 0 0 2.885-3.018v-70.507c0-5.325-1.332-8.786-3.994-10.383a17.999 17.999 0 0 0-9.451-2.396h-7.277v-14.377h100.325v14.377h-6.079a7.193 7.193 0 0 0-6.212 2.396 20.05 20.05 0 0 0-1.996 10.383ZM281.939 478.002v-9.585h.977a7.008 7.008 0 0 0 6.833-4.792 50.271 50.271 0 0 0 2.086-17.749v-124.73a19.555 19.555 0 0 0-.622-5.281 6.474 6.474 0 0 0-2.396-3.327 12.195 12.195 0 0 0-4.659-1.909l-2.219-.665v-13.711h69.887l7.41 44.727 1.287-.976v125.573c0 .622.577 1.154 1.775 1.598 1.823.518 3.698.83 5.591.932 2.529.222 5.857.31 9.895.31h-.311v9.585h-95.534ZM417.719 294.3v49.52l-6.212-.799c-3.107-.31-6.479-.577-10.073-.798a166.973 166.973 0 0 0-10.25-.311h-12.602c-3.949 0-7.499.31-10.693.621a44.357 44.357 0 0 0-8.165 1.464 10.871 10.871 0 0 0-4.925 2.53l-1.598-5.414c5.739-10.265 10.842-19.05 15.309-26.357a57.684 57.684 0 0 1 14.864-16.95 35.765 35.765 0 0 1 21.699-5.635 35.16 35.16 0 0 1 8.297.798 27.09 27.09 0 0 1 4.349 1.331ZM526.35 367.604v12.779a93.195 93.195 0 0 0-16.95 6.701 32.491 32.491 0 0 0-9.717 7.676 23.46 23.46 0 0 0-4.659 9.274 52.474 52.474 0 0 0-1.42 11.492v14.377a73.277 73.277 0 0 0 1.286 15.663 12.293 12.293 0 0 0 4.171 7.499 11.722 11.722 0 0 0 7.011 2.086 14.604 14.604 0 0 0 7.189-2.086 26.1 26.1 0 0 0 7.188-6.389 45.58 45.58 0 0 0 6.39-11.005l6.7 6.079a99.107 99.107 0 0 1-13.711 23.162 46.548 46.548 0 0 1-16.64 12.913 51.383 51.383 0 0 1-21.387 4.171 73.53 73.53 0 0 1-28.931-4.792 29.735 29.735 0 0 1-15.797-15.353 65.918 65.918 0 0 1-4.792-27.156 62.121 62.121 0 0 1 4.438-24.272 42.542 42.542 0 0 1 14.997-17.748 107.515 107.515 0 0 1 28.931-13.578 405.1 405.1 0 0 1 45.703-11.493Zm7.411 110.398-6.39-34.166-1.908-3.816v-123a11.407 11.407 0 0 0-3.372-8.875 20.857 20.857 0 0 0-12.78-2.751c-6.305-.066-12.607.32-18.858 1.154a18.594 18.594 0 0 0-10.205 3.638 11.516 11.516 0 0 1-4.438-1.42c-.754-.532-.798-1.153 0-1.908a8.438 8.438 0 0 1 4.438-1.908 81.725 81.725 0 0 1 9.451-1.464V349.5H439.78v-39.314a113.848 113.848 0 0 1 15.175-7.011 156.478 156.478 0 0 1 25.87-7.365 180.885 180.885 0 0 1 35.497-3.195 160.75 160.75 0 0 1 33.856 3.195 66.777 66.777 0 0 1 23.784 9.762 41.215 41.215 0 0 1 14.066 16.284 53.25 53.25 0 0 1 4.659 23.163v112.217c-.059 1.781.15 3.562.621 5.28a5.324 5.324 0 0 0 2.396 3.195 19.725 19.725 0 0 0 4.438 2.086l2.263.621v9.584h-68.644ZM687.993 292.703a49.882 49.882 0 0 1 26.358 6.877 62.978 62.978 0 0 1 19.346 18.681 90.845 90.845 0 0 1 12.113 26.624l.666 5.457a4718.634 4718.634 0 0 1-13.312-19.834 58.431 58.431 0 0 0-10.072-12.114 16.419 16.419 0 0 0-11.182-4.171 14.772 14.772 0 0 0-8.874 2.574 19.298 19.298 0 0 0-6.213 9.895 93.182 93.182 0 0 0-3.86 21.565c-.828 9.436-1.257 21.846-1.287 37.228 0 14.022 0 25.647.666 34.788.182 7.302.984 14.576 2.396 21.743a20.85 20.85 0 0 0 5.28 11.181 12.688 12.688 0 0 0 8.875 3.195 27.294 27.294 0 0 0 10.871-2.085 33.729 33.729 0 0 0 10.871-8.875 183.409 183.409 0 0 0 15.309-21.565l-.311 4.127a148.785 148.785 0 0 1-14.066 27.466 61.224 61.224 0 0 1-19.479 19.169 52.088 52.088 0 0 1-27.778 7.055 53.245 53.245 0 0 1-35.497-11.847 68.294 68.294 0 0 1-20.767-32.747 156.906 156.906 0 0 1-6.744-48.055 147.465 147.465 0 0 1 7.676-49.209 79.253 79.253 0 0 1 22.541-34.521 53.601 53.601 0 0 1 36.474-12.602Zm111.996 165.819a12.377 12.377 0 0 0 1.597 7.055 11.094 11.094 0 0 0 6.079 3.506l2.219.621v8.297h-69.176l-7.987-31.06-1.598 3.195V252.768a9.767 9.767 0 0 0-1.109-5.236 9.392 9.392 0 0 0-2.884-2.884 44.304 44.304 0 0 0-4.437-2.396l-1.908-.666v-12.779h79.204v229.715ZM906.833 296.252v145.985a23.285 23.285 0 0 0 .976 7.188 8.871 8.871 0 0 0 2.84 4.437 7.982 7.982 0 0 0 4.792 1.42 19.92 19.92 0 0 0 9.274-2.706 56.236 56.236 0 0 0 11.359-8.476 90.459 90.459 0 0 0 12.602-14.997l-1.908 8.297a71.004 71.004 0 0 1-16.152 22.675 83.341 83.341 0 0 1-22.807 15.663 59.535 59.535 0 0 1-24.937 5.768 49.656 49.656 0 0 1-24.449-5.591 36.17 36.17 0 0 1-15.176-16.151 58.845 58.845 0 0 1-5.102-25.603V321.145a11.945 11.945 0 0 0-1.775-7.189 9.81 9.81 0 0 0-6.212-3.327l-3.195-.666v-13.711h79.87Zm101.617 0v160.983c-.06 1.781.15 3.561.62 5.28a5.642 5.642 0 0 0 2.39 3.195c1.39.877 2.88 1.578 4.44 2.085l2.26.621v9.585h-70.105l-6.39-34.477-1.908-1.287V321.145a8.38 8.38 0 0 0-3.683-7.322 17.74 17.74 0 0 0-7.499-3.194l-3.86-.666v-13.711h83.735ZM160.228 580.233a23.155 23.155 0 0 0-14.687 4.437 30.349 30.349 0 0 0-9.141 15.663 147.857 147.857 0 0 0-4.437 31.46c-.858 13.549-1.287 30.957-1.287 52.227 0 20.707.532 37.805 1.597 51.294a137.587 137.587 0 0 0 5.458 31.771 30.447 30.447 0 0 0 10.516 16.151 28.49 28.49 0 0 0 16.64 4.437 47.747 47.747 0 0 0 25.558-6.7 55.24 55.24 0 0 0 18.681-20.899 152.436 152.436 0 0 0 13.312-36.297l14.021 4.437a137.91 137.91 0 0 1-14.376 40.912 64.612 64.612 0 0 1-25.869 25.691 87.052 87.052 0 0 1-41.533 8.875 107.043 107.043 0 0 1-40.245-7.322 82.706 82.706 0 0 1-31.46-22.186 106.049 106.049 0 0 1-20.633-37.539 192.308 192.308 0 0 1 0-105.118 105.157 105.157 0 0 1 20.455-37.361 85.441 85.441 0 0 1 30.218-22.186 88.746 88.746 0 0 1 36.252-7.544 70.996 70.996 0 0 1 32.259 7.056 56.482 56.482 0 0 1 23.339 22.851 113.73 113.73 0 0 1 12.78 42.331l-4.793-10.25 5.103-55.598h19.169v75.078h-28.443a148.441 148.441 0 0 0-13.578-36.563 72.266 72.266 0 0 0-17.26-21.742 28.483 28.483 0 0 0-17.616-7.366ZM321.25 708.028c0 16.418.443 29.729 1.42 39.935a74.933 74.933 0 0 0 5.28 23.65 21.742 21.742 0 0 0 10.383 11.36 41.365 41.365 0 0 0 17.083 3.017 58.667 58.667 0 0 0 19.48-2.884 38.124 38.124 0 0 0 15.353-10.383 89.344 89.344 0 0 0 13.711-20.589l14.731 9.584a85.676 85.676 0 0 1-16.329 22.187 58.654 58.654 0 0 1-22.807 13.311 105.711 105.711 0 0 1-33.102 4.438 112.308 112.308 0 0 1-50.628-10.206 66.555 66.555 0 0 1-30.484-31.061 117.98 117.98 0 0 1-10.25-52.359 115.675 115.675 0 0 1 10.383-50.673 78.404 78.404 0 0 1 29.729-33.546 85.813 85.813 0 0 1 46.148-11.98 94.294 94.294 0 0 1 37.095 6.922 58.621 58.621 0 0 1 24.582 19.346 83.938 83.938 0 0 1 13.755 31.061 180.688 180.688 0 0 1 4.438 41.532H288.947v-15.974h75.433l-3.861 8.298c0-15.767-.31-28.709-.932-38.826a144.893 144.893 0 0 0-3.061-23.606 24.537 24.537 0 0 0-5.591-11.847 12.015 12.015 0 0 0-8.608-3.328 13.307 13.307 0 0 0-9.762 3.816 28.577 28.577 0 0 0-6.523 12.957 129.365 129.365 0 0 0-3.683 25.203c-.74 10.738-1.109 24.286-1.109 40.645ZM441.367 797.482v-9.585h.932a7.101 7.101 0 0 0 6.878-4.792 50.27 50.27 0 0 0 2.085-17.749v-124.73a19.582 19.582 0 0 0-.621-5.28 6.472 6.472 0 0 0-2.396-3.328 12.523 12.523 0 0 0-4.659-1.909l-2.219-.665v-13.711h69.62l7.677 44.727 1.287-.976v125.574c0 .621.576 1.153 1.774 1.597 1.824.518 3.699.831 5.591.932 2.529.222 5.857.31 9.895.31h-.31v9.585h-95.534ZM577.146 613.78v49.52l-6.256-.799c-3.062-.31-6.434-.576-10.028-.798a166.973 166.973 0 0 0-10.25-.311H538.01c-3.949 0-7.499.31-10.694.621a43.849 43.849 0 0 0-8.164 1.464 11.32 11.32 0 0 0-4.97 2.53l-1.597-5.414c5.768-10.264 10.886-19.05 15.353-26.357a57.054 57.054 0 0 1 14.864-16.95 35.76 35.76 0 0 1 21.565-5.635 35.168 35.168 0 0 1 8.298.798c1.529.314 3.029.759 4.481 1.331ZM657.994 708.026c0 16.418.488 29.729 1.464 39.935a73.758 73.758 0 0 0 5.281 23.651 21.743 21.743 0 0 0 10.383 11.359 41.213 41.213 0 0 0 17.083 3.017 58.665 58.665 0 0 0 19.479-2.884 38.117 38.117 0 0 0 15.353-10.383 90.746 90.746 0 0 0 13.711-20.589l14.688 9.585a85.577 85.577 0 0 1-16.285 22.186 58.829 58.829 0 0 1-22.852 13.311 105.368 105.368 0 0 1-33.057 4.438 112.312 112.312 0 0 1-50.629-10.206 66.556 66.556 0 0 1-30.528-31.061 118.596 118.596 0 0 1-10.206-52.359 115.676 115.676 0 0 1 10.384-50.673 78.588 78.588 0 0 1 29.685-33.546 86.087 86.087 0 0 1 46.191-11.98 94.292 94.292 0 0 1 37.228 6.567 58.939 58.939 0 0 1 24.583 19.346 83.97 83.97 0 0 1 13.755 31.061 180.742 180.742 0 0 1 4.437 41.532H625.691V694.36h75.433l-3.816 8.297c0-15.767-.325-28.709-.976-38.826a140.958 140.958 0 0 0-3.018-23.606 24.535 24.535 0 0 0-5.59-11.847 12.115 12.115 0 0 0-8.609-3.328 13.305 13.305 0 0 0-9.762 3.816 29.026 29.026 0 0 0-6.567 12.957 129.878 129.878 0 0 0-3.638 25.203c-.769 10.975-1.154 24.641-1.154 41ZM778.111 797.481v-9.585h.932a7.101 7.101 0 0 0 6.878-4.792 50.27 50.27 0 0 0 2.085-17.749v-124.73a17.735 17.735 0 0 0-.665-5.28 6.037 6.037 0 0 0-2.396-3.328 11.994 11.994 0 0 0-4.438-1.909l-2.218-.665v-13.711h68.688l6.035 35.498 2.263-.666v134.537a1.955 1.955 0 0 0 .931 1.597 8.41 8.41 0 0 0 2.397.932c.902.208 1.825.312 2.751.311h1.242v9.584l-84.485-.044Zm185.92 0h-82.089v-9.585h.622a15.573 15.573 0 0 0 3.194-.31 8.24 8.24 0 0 0 2.574-.932 2.217 2.217 0 0 0 .932-1.952V651.185a24.41 24.41 0 0 0-.932-7.365 8.52 8.52 0 0 0-3.062-4.438 9.497 9.497 0 0 0-5.413-1.109 21.791 21.791 0 0 0-9.096 2.529 50.341 50.341 0 0 0-11.493 8.298 96.157 96.157 0 0 0-12.957 15.353l1.908-8.298a71.927 71.927 0 0 1 16.152-22.674 82.83 82.83 0 0 1 22.985-15.663 59.803 59.803 0 0 1 25.114-5.769 47.702 47.702 0 0 1 24.095 5.591 44.64 44.64 0 0 1 14.864 13.312 25.195 25.195 0 0 1 5.103 13.933v140.571a1.872 1.872 0 0 0 .976 1.597 7.54 7.54 0 0 0 2.53.932c1.051.213 2.122.318 3.194.311h.932l-.133 9.185Zm103.519 0h-84.971v-9.585h1.242a15.576 15.576 0 0 0 3.195-.31 8.235 8.235 0 0 0 2.573-.932 2.26 2.26 0 0 0 1.199-1.952V651.185a24.3 24.3 0 0 0-.976-7.365 8.434 8.434 0 0 0-3.018-4.438 9.682 9.682 0 0 0-5.591-1.42 22.198 22.198 0 0 0-9.14 2.53 51.264 51.264 0 0 0-11.493 8.297 96.152 96.152 0 0 0-12.912 15.353l1.908-8.297a70.996 70.996 0 0 1 16.107-22.675 82.414 82.414 0 0 1 23.029-15.663 59.6 59.6 0 0 1 25.068-5.768 48.813 48.813 0 0 1 24.14 5.457 34.933 34.933 0 0 1 14.82 16.107 60.008 60.008 0 0 1 5.15 26.047V765.4c-.38 5.99.31 12 2.04 17.749a7.088 7.088 0 0 0 2.66 3.519 7.075 7.075 0 0 0 4.22 1.273h.97l-.22 9.54Z"/></g><mask id="f" style="mask-type:alpha" maskUnits="userSpaceOnUse" x="469" y="375" width="150" height="150"><circle cx="544" cy="450" r="75" fill="#C4C4C4"/></mask><g mask="url(#f)"><mask id="g" style="mask-type:alpha" maskUnits="userSpaceOnUse" x="-187" y="-85" width="1222" height="1346"><path transform="rotate(10 18.66 -84.686)" fill="#F3F7FE" d="M18.659-84.686h1031.06v1184.34H18.659z"/></mask><g mask="url(#g)"><path d="M526.35 367.604v12.779a93.195 93.195 0 0 0-16.95 6.701 32.491 32.491 0 0 0-9.717 7.676 23.46 23.46 0 0 0-4.659 9.274 52.474 52.474 0 0 0-1.42 11.492v14.377a73.277 73.277 0 0 0 1.286 15.663 12.293 12.293 0 0 0 4.171 7.499 11.722 11.722 0 0 0 7.011 2.086 14.604 14.604 0 0 0 7.189-2.086 26.1 26.1 0 0 0 7.188-6.389 45.58 45.58 0 0 0 6.39-11.005l6.7 6.079a99.107 99.107 0 0 1-13.711 23.162 46.548 46.548 0 0 1-16.64 12.913 51.383 51.383 0 0 1-21.387 4.171 73.53 73.53 0 0 1-28.931-4.792 29.735 29.735 0 0 1-15.797-15.353 65.918 65.918 0 0 1-4.792-27.156 62.121 62.121 0 0 1 4.438-24.272 42.542 42.542 0 0 1 14.997-17.748 107.515 107.515 0 0 1 28.931-13.578 405.1 405.1 0 0 1 45.703-11.493Zm7.411 110.398-6.39-34.166-1.908-3.816v-123a11.407 11.407 0 0 0-3.372-8.875 20.857 20.857 0 0 0-12.78-2.751c-6.305-.066-12.607.32-18.858 1.154a18.594 18.594 0 0 0-10.205 3.638 11.516 11.516 0 0 1-4.438-1.42c-.754-.532-.798-1.153 0-1.908a8.438 8.438 0 0 1 4.438-1.908 81.725 81.725 0 0 1 9.451-1.464V349.5H439.78v-39.314a113.848 113.848 0 0 1 15.175-7.011 156.478 156.478 0 0 1 25.87-7.365 180.885 180.885 0 0 1 35.497-3.195 160.75 160.75 0 0 1 33.856 3.195 66.777 66.777 0 0 1 23.784 9.762 41.215 41.215 0 0 1 14.066 16.284 53.25 53.25 0 0 1 4.659 23.163v112.217c-.059 1.781.15 3.562.621 5.28a5.324 5.324 0 0 0 2.396 3.195 19.725 19.725 0 0 0 4.438 2.086l2.263.621v9.584h-68.644Z" fill="#1A73E8"/></g></g><path fill="#FF6D7F" d="m1041.54 6.467 19.696 3.473-187.54 1063.592L854 1070.06z"/><circle cx="1157" cy="450" r="80" stroke="#1A73E8" stroke-width="10"/><circle cx="544" cy="450" r="80" stroke="#1A73E8" stroke-width="10"/></g></svg>