<svg width="1920" height="1080" fill="none" xmlns="http://www.w3.org/2000/svg"><g clip-path="url(#a)"><path stroke="#FF6D7F" stroke-width="5" d="M1073.5 621v409"/><rect x="243" y="433" width="320" height="120" rx="8" fill="#D2E3FC"/><path d="M243 514h320v31a8 8 0 0 1-8 8H251a8 8 0 0 1-8-8v-31Z" fill="#B6D3FF"/><path d="M278.33 494h-3.956V468.792c.031-.613.061-1.181.092-1.702.031-.552.061-1.119.092-1.702-.491.491-.935.905-1.334 1.242a706.6 706.6 0 0 0-1.518 1.288l-3.496 2.852-2.116-2.714 8.878-6.9h3.358V494Zm32.672-25.162c0 1.472-.276 2.745-.828 3.818a6.773 6.773 0 0 1-2.392 2.622c-1.012.675-2.208 1.15-3.588 1.426v.184c2.638.307 4.6 1.135 5.888 2.484 1.288 1.349 1.932 3.113 1.932 5.29 0 1.901-.444 3.603-1.334 5.106-.889 1.472-2.269 2.622-4.14 3.45-1.84.828-4.216 1.242-7.13 1.242-1.717 0-3.312-.138-4.784-.414a14.871 14.871 0 0 1-4.232-1.38v-3.772a22.63 22.63 0 0 0 4.462 1.61c1.595.368 3.128.552 4.6.552 2.944 0 5.06-.567 6.348-1.702 1.319-1.165 1.978-2.76 1.978-4.784 0-1.38-.368-2.484-1.104-3.312-.705-.859-1.748-1.487-3.128-1.886-1.38-.399-3.036-.598-4.968-.598h-3.174v-3.45h3.22c1.81 0 3.312-.261 4.508-.782 1.227-.521 2.147-1.242 2.76-2.162.644-.951.966-2.039.966-3.266 0-1.595-.536-2.821-1.61-3.68-1.073-.889-2.53-1.334-4.37-1.334-1.165 0-2.223.123-3.174.368a11.1 11.1 0 0 0-2.668.966c-.797.399-1.61.874-2.438 1.426l-2.024-2.76a17.87 17.87 0 0 1 2.714-1.702 16.406 16.406 0 0 1 3.45-1.242c1.258-.307 2.622-.46 4.094-.46 3.435 0 5.98.767 7.636 2.3 1.687 1.533 2.53 3.481 2.53 5.842ZM338.568 494h-21.712v-3.358l8.602-8.694c1.656-1.656 3.052-3.128 4.186-4.416 1.135-1.288 1.994-2.545 2.576-3.772.583-1.257.874-2.622.874-4.094 0-1.809-.536-3.174-1.61-4.094-1.073-.951-2.468-1.426-4.186-1.426-1.594 0-3.005.276-4.232.828-1.196.552-2.422 1.319-3.68 2.3l-2.162-2.714a18.466 18.466 0 0 1 2.806-1.978 15.43 15.43 0 0 1 3.358-1.38 14.703 14.703 0 0 1 3.91-.506c2.055 0 3.818.353 5.29 1.058 1.472.705 2.607 1.717 3.404 3.036.828 1.288 1.242 2.837 1.242 4.646a11.28 11.28 0 0 1-.598 3.68 15.024 15.024 0 0 1-1.702 3.358 27.736 27.736 0 0 1-2.668 3.358 89.93 89.93 0 0 1-3.45 3.542l-6.854 6.762v.184h16.606V494Zm45.312-25.116c2.791 0 4.876.721 6.256 2.162 1.38 1.411 2.07 3.711 2.07 6.9V494h-4.002v-15.87c0-1.932-.414-3.389-1.242-4.37-.797-.981-2.055-1.472-3.772-1.472-2.392 0-4.109.69-5.152 2.07-1.012 1.38-1.518 3.389-1.518 6.026V494h-4.002v-15.87c0-1.288-.184-2.361-.552-3.22-.368-.889-.92-1.549-1.656-1.978-.736-.429-1.687-.644-2.852-.644-1.656 0-2.959.353-3.91 1.058-.951.675-1.641 1.671-2.07 2.99-.399 1.319-.598 2.944-.598 4.876V494h-4.048v-24.656h3.266l.598 3.358h.23c.521-.859 1.15-1.564 1.886-2.116a7.897 7.897 0 0 1 2.53-1.288 9.873 9.873 0 0 1 2.852-.414c1.901 0 3.481.337 4.738 1.012 1.288.675 2.223 1.717 2.806 3.128h.23c.828-1.411 1.947-2.453 3.358-3.128a10.608 10.608 0 0 1 4.554-1.012ZM277.432 543h-2.16v-7.992h-8.784V543h-2.16v-17.136h2.16v7.248h8.784v-7.248h2.16V543Zm9.365-13.104c1.104 0 2.048.24 2.832.72.8.48 1.408 1.16 1.824 2.04.432.864.648 1.88.648 3.048v1.272h-8.808c.032 1.456.4 2.568 1.104 3.336.72.752 1.72 1.128 3 1.128.816 0 1.536-.072 2.16-.216.64-.16 1.296-.384 1.968-.672v1.848a9.446 9.446 0 0 1-1.944.624c-.64.144-1.4.216-2.28.216-1.216 0-2.296-.248-3.24-.744-.928-.496-1.656-1.232-2.184-2.208-.512-.992-.768-2.2-.768-3.624 0-1.408.232-2.616.696-3.624.48-1.008 1.144-1.784 1.992-2.328.864-.544 1.864-.816 3-.816Zm-.024 1.728c-1.008 0-1.808.328-2.4.984-.576.64-.92 1.536-1.032 2.688h6.552c0-.736-.112-1.376-.336-1.92a2.712 2.712 0 0 0-1.032-1.272c-.448-.32-1.032-.48-1.752-.48Zm14.603-1.728c.24 0 .496.016.768.048.288.016.536.048.744.096l-.264 1.944a6.94 6.94 0 0 0-.696-.12 5.267 5.267 0 0 0-.696-.048c-.496 0-.968.104-1.416.312a3.777 3.777 0 0 0-1.2.888 4.082 4.082 0 0 0-.84 1.344 5.17 5.17 0 0 0-.288 1.776V543h-2.112v-12.864h1.728l.24 2.352h.096c.272-.48.6-.912.984-1.296.384-.4.824-.712 1.32-.936.496-.24 1.04-.36 1.632-.36Zm6.026.24V543h-2.112v-12.864h2.112Zm-1.032-4.824c.32 0 .6.112.84.336.256.208.384.544.384 1.008 0 .448-.128.784-.384 1.008-.24.224-.52.336-.84.336-.352 0-.648-.112-.888-.336-.24-.224-.36-.56-.36-1.008 0-.464.12-.8.36-1.008.24-.224.536-.336.888-.336Zm9.403 16.2c.321 0 .649-.024.985-.072.336-.064.608-.128.816-.192v1.608c-.224.112-.544.2-.96.264-.416.08-.816.12-1.2.12a5.12 5.12 0 0 1-1.872-.336c-.56-.24-1.016-.648-1.368-1.224-.352-.576-.528-1.384-.528-2.424v-7.488h-1.824v-1.008l1.848-.84.84-2.736h1.248v2.952h3.72v1.632h-3.72v7.44c0 .784.184 1.368.552 1.752.384.368.872.552 1.463.552Zm9.248-11.592c1.568 0 2.728.344 3.48 1.032.752.688 1.128 1.784 1.128 3.288V543h-1.536l-.408-1.824h-.096a7.32 7.32 0 0 1-1.152 1.176 3.792 3.792 0 0 1-1.344.672c-.496.144-1.104.216-1.824.216-.768 0-1.464-.136-2.088-.408a3.214 3.214 0 0 1-1.44-1.248c-.352-.576-.528-1.296-.528-2.16 0-1.28.504-2.264 1.512-2.952 1.008-.704 2.56-1.088 4.656-1.152l2.184-.072v-.768c0-1.072-.232-1.816-.696-2.232-.464-.416-1.12-.624-1.968-.624a5.89 5.89 0 0 0-1.92.312c-.608.192-1.176.416-1.704.672l-.648-1.584c.56-.304 1.224-.56 1.992-.768a8.528 8.528 0 0 1 2.4-.336Zm.624 6.864c-1.6.064-2.712.32-3.336.768-.608.448-.912 1.08-.912 1.896 0 .72.216 1.248.648 1.584.448.336 1.016.504 1.704.504 1.088 0 1.992-.296 2.712-.888.72-.608 1.08-1.536 1.08-2.784v-1.152l-1.896.072Zm12.518-6.888c.848 0 1.608.16 2.28.48.688.32 1.272.808 1.752 1.464h.12l.288-1.704h1.68v13.08c0 1.216-.208 2.232-.624 3.048a4.06 4.06 0 0 1-1.896 1.872c-.848.416-1.928.624-3.24.624a14.24 14.24 0 0 1-2.568-.216 8.44 8.44 0 0 1-2.064-.6V546c.416.208.872.384 1.368.528.496.16 1.032.28 1.608.36.576.08 1.168.12 1.776.12 1.104 0 1.968-.328 2.592-.984.64-.64.96-1.52.96-2.64v-.504c0-.192.008-.464.024-.816.016-.368.032-.624.048-.768h-.096a4.207 4.207 0 0 1-1.68 1.464c-.656.32-1.424.48-2.304.48-1.664 0-2.968-.584-3.912-1.752-.928-1.168-1.392-2.8-1.392-4.896 0-1.376.208-2.56.624-3.552.432-1.008 1.04-1.784 1.824-2.328.784-.544 1.728-.816 2.832-.816Zm.288 1.776c-.72 0-1.336.192-1.848.576-.496.384-.88.944-1.152 1.68-.256.736-.384 1.632-.384 2.688 0 1.584.288 2.8.864 3.648.592.832 1.448 1.248 2.568 1.248.656 0 1.216-.08 1.68-.24.464-.176.848-.44 1.152-.792.304-.368.528-.832.672-1.392.144-.56.216-1.224.216-1.992v-.504c0-1.168-.136-2.112-.408-2.832-.256-.72-.664-1.248-1.224-1.584-.56-.336-1.272-.504-2.136-.504Zm14.885-1.776c1.104 0 2.048.24 2.832.72.8.48 1.408 1.16 1.824 2.04.432.864.648 1.88.648 3.048v1.272h-8.808c.032 1.456.4 2.568 1.104 3.336.72.752 1.72 1.128 3 1.128.816 0 1.536-.072 2.16-.216.64-.16 1.296-.384 1.968-.672v1.848a9.446 9.446 0 0 1-1.944.624c-.64.144-1.4.216-2.28.216-1.216 0-2.296-.248-3.24-.744-.928-.496-1.656-1.232-2.184-2.208-.512-.992-.768-2.2-.768-3.624 0-1.408.232-2.616.696-3.624.48-1.008 1.144-1.784 1.992-2.328.864-.544 1.864-.816 3-.816Zm-.024 1.728c-1.008 0-1.808.328-2.4.984-.576.64-.92 1.536-1.032 2.688h6.552c0-.736-.112-1.376-.336-1.92a2.712 2.712 0 0 0-1.032-1.272c-.448-.32-1.032-.48-1.752-.48Zm22.469-4.104c-.912 0-1.736.16-2.472.48-.736.304-1.36.76-1.872 1.368-.512.592-.904 1.32-1.176 2.184-.272.848-.408 1.808-.408 2.88 0 1.408.216 2.632.648 3.672.448 1.04 1.104 1.84 1.968 2.4.88.56 1.976.84 3.288.84.752 0 1.464-.064 2.136-.192a19.62 19.62 0 0 0 1.968-.48v1.872c-.64.24-1.304.416-1.992.528-.672.112-1.48.168-2.424.168-1.744 0-3.2-.36-4.368-1.08-1.168-.72-2.048-1.744-2.64-3.072-.576-1.328-.864-2.888-.864-4.68 0-1.296.176-2.48.528-3.552.368-1.072.896-2 1.584-2.784a6.937 6.937 0 0 1 2.592-1.8c1.024-.432 2.2-.648 3.528-.648.88 0 1.728.088 2.544.264a9.213 9.213 0 0 1 2.184.744l-.864 1.824c-.528-.24-1.12-.456-1.776-.648a7.327 7.327 0 0 0-2.112-.288Zm12.404 2.4c1.568 0 2.728.344 3.48 1.032.752.688 1.128 1.784 1.128 3.288V543h-1.536l-.408-1.824h-.096a7.32 7.32 0 0 1-1.152 1.176 3.792 3.792 0 0 1-1.344.672c-.496.144-1.104.216-1.824.216-.768 0-1.464-.136-2.088-.408a3.214 3.214 0 0 1-1.44-1.248c-.352-.576-.528-1.296-.528-2.16 0-1.28.504-2.264 1.512-2.952 1.008-.704 2.56-1.088 4.656-1.152l2.184-.072v-.768c0-1.072-.232-1.816-.696-2.232-.464-.416-1.12-.624-1.968-.624a5.89 5.89 0 0 0-1.92.312c-.608.192-1.176.416-1.704.672l-.648-1.584c.56-.304 1.224-.56 1.992-.768a8.528 8.528 0 0 1 2.4-.336Zm.624 6.864c-1.6.064-2.712.32-3.336.768-.608.448-.912 1.08-.912 1.896 0 .72.216 1.248.648 1.584.448.336 1.016.504 1.704.504 1.088 0 1.992-.296 2.712-.888.72-.608 1.08-1.536 1.08-2.784v-1.152l-1.896.072Zm13.886-5.016h-3.24V543h-2.112v-11.232h-2.256v-.984l2.256-.72v-.744c0-1.104.16-2 .48-2.688.336-.688.816-1.192 1.44-1.512.624-.32 1.376-.48 2.256-.48.512 0 .976.048 1.392.144.432.08.8.176 1.104.288l-.552 1.656c-.256-.08-.552-.16-.888-.24a4.44 4.44 0 0 0-1.032-.12c-.704 0-1.232.24-1.584.72-.336.464-.504 1.2-.504 2.208v.84h3.24v1.632Zm7.29-1.872c1.104 0 2.048.24 2.832.72.8.48 1.408 1.16 1.824 2.04.432.864.648 1.88.648 3.048v1.272h-8.808c.032 1.456.4 2.568 1.104 3.336.72.752 1.72 1.128 3 1.128.816 0 1.536-.072 2.16-.216.64-.16 1.296-.384 1.968-.672v1.848a9.446 9.446 0 0 1-1.944.624c-.64.144-1.4.216-2.28.216-1.216 0-2.296-.248-3.24-.744-.928-.496-1.656-1.232-2.184-2.208-.512-.992-.768-2.2-.768-3.624 0-1.408.232-2.616.696-3.624.48-1.008 1.144-1.784 1.992-2.328.864-.544 1.864-.816 3-.816Zm-.024 1.728c-1.008 0-1.808.328-2.4.984-.576.64-.92 1.536-1.032 2.688h6.552c0-.736-.112-1.376-.336-1.92a2.712 2.712 0 0 0-1.032-1.272c-.448-.32-1.032-.48-1.752-.48Z" fill="#1A73E8"/><path d="M515 494v-42M494 473l21-21 21 21" stroke="#1A73E8" stroke-width="8" stroke-linecap="round" stroke-linejoin="round"/><path stroke="#FF6D7F" stroke-width="5" d="M288.5 552v297"/><circle cx="288.5" cy="854" r="10" fill="#FF6D7F"/><rect x="973.176" y="360" width="703.157" height="263.684" rx="18.933" fill="#D2E3FC"/><path d="M973.176 537.987h703.154v66.764c0 10.457-8.47 18.934-18.93 18.934H992.109c-10.456 0-18.933-8.477-18.933-18.934v-66.764Z" fill="#B6D3FF"/><g filter="url(#b)" fill="#1A73E8"><path d="M1050.81 490.906a4 4 0 0 1-4 4h-.69a4 4 0 0 1-4-4v-51.392c.06-1.347.13-2.594.2-3.739.07-1.316-1.53-2.039-2.53-1.18-.07.057-.14.113-.2.169-.88.741-1.99 1.684-3.34 2.83l-4.72 3.852a3.738 3.738 0 0 1-5.31-.598 3.729 3.729 0 0 1 .66-5.247l15.47-12.024c.7-.545 1.56-.842 2.45-.842h2.01a4 4 0 0 1 4 4v64.171ZM1122.6 439.616c0 3.234-.61 6.031-1.82 8.389-1.21 2.359-2.96 4.279-5.25 5.762-2.18 1.451-4.75 2.483-7.7 3.094a.237.237 0 0 0 .02.468c5.69.693 9.93 2.505 12.73 5.434 2.83 2.965 4.24 6.839 4.24 11.624 0 4.178-.97 7.918-2.93 11.219-1.95 3.235-4.98 5.762-9.09 7.581-4.05 1.82-9.27 2.73-15.67 2.73-3.77 0-7.28-.304-10.51-.91a32.741 32.741 0 0 1-7.21-2.072c-1.3-.544-2.09-1.854-2.09-3.268 0-2.761 2.91-4.596 5.52-3.703 1.39.473 2.81.893 4.28 1.26 3.51.808 6.88 1.213 10.11 1.213 6.47 0 11.12-1.247 13.95-3.74 2.9-2.561 4.35-6.065 4.35-10.512 0-3.033-.81-5.459-2.43-7.278-1.55-1.887-3.84-3.268-6.87-4.144-3.04-.876-6.68-1.314-10.92-1.314h-3.18c-2.1 0-3.79-1.697-3.79-3.791 0-2.093 1.69-3.79 3.79-3.79h3.28c3.98 0 7.28-.573 9.91-1.719 2.69-1.145 4.71-2.729 6.06-4.75 1.42-2.089 2.12-4.482 2.12-7.177 0-3.504-1.18-6.199-3.53-8.086-2.36-1.954-5.56-2.932-9.61-2.932-2.56 0-4.88.27-6.97.809a24.267 24.267 0 0 0-5.86 2.123c-.73.363-1.46.755-2.2 1.176-1.81 1.031-4.13.636-5.36-1.042-1.25-1.704-.92-4.11.88-5.215.9-.55 1.85-1.08 2.84-1.59 2.29-1.146 4.81-2.056 7.58-2.73 2.76-.673 5.76-1.01 8.99-1.01 7.55 0 13.14 1.684 16.78 5.054 3.71 3.369 5.56 7.648 5.56 12.837ZM1183.17 490.906a4 4 0 0 1-4 4h-39.71c-2.2 0-4-1.791-4-4v-1.735c0-1.053.42-2.064 1.16-2.813l17.75-17.935c3.64-3.639 6.7-6.873 9.19-9.704 2.5-2.83 4.38-5.593 5.66-8.288 1.29-2.763 1.93-5.761 1.93-8.996 0-3.976-1.18-6.974-3.54-8.996-2.36-2.089-5.43-3.133-9.2-3.133-3.5 0-6.6.606-9.3 1.819-1.63.751-3.28 1.682-4.96 2.793-1.78 1.182-4.2.913-5.53-.76-1.31-1.642-1.09-4.042.62-5.251a42.171 42.171 0 0 1 3.2-2.038 33.967 33.967 0 0 1 7.38-3.033c2.69-.741 5.56-1.111 8.59-1.111 4.51 0 8.39.775 11.62 2.324 3.24 1.55 5.73 3.774 7.48 6.672 1.82 2.83 2.73 6.233 2.73 10.209 0 2.83-.44 5.525-1.31 8.086-.88 2.493-2.12 4.953-3.74 7.379-1.62 2.426-3.57 4.885-5.86 7.378-2.3 2.494-4.82 5.088-7.58 7.784l-14.98 14.774a.27.27 0 0 0-.09.203c0 .158.13.285.29.285h32.2a4 4 0 0 1 4 4v.087ZM1282.74 439.717c6.13 0 10.71 1.583 13.75 4.75 3.03 3.1 4.55 8.154 4.55 15.162v31.277c0 2.209-1.8 4-4 4h-.8a4 4 0 0 1-4-4v-30.872c0-4.246-.91-7.447-2.73-9.603-1.75-2.156-4.51-3.235-8.29-3.235-5.25 0-9.03 1.517-11.32 4.549-2.22 3.032-3.33 7.446-3.33 13.241v25.92a4 4 0 0 1-4 4h-.8a4 4 0 0 1-4-4v-30.872c0-2.831-.4-5.189-1.21-7.076-.81-1.954-2.02-3.403-3.64-4.346-1.62-.944-3.7-1.416-6.27-1.416-3.63 0-6.5.775-8.59 2.325-2.09 1.483-3.6 3.673-4.55 6.57-.87 2.898-1.31 6.469-1.31 10.715v24.1a4 4 0 0 1-4 4h-.89a4 4 0 0 1-4-4v-46.273a3.9 3.9 0 0 1 3.9-3.906 3.92 3.92 0 0 1 3.85 3.221l.68 3.861c.03.172.18.297.36.297.12 0 .24-.066.31-.173 1.12-1.809 2.47-3.301 4.04-4.476a17.282 17.282 0 0 1 5.55-2.831c2.03-.606 4.12-.909 6.27-.909 4.18 0 7.65.741 10.41 2.223 2.76 1.443 4.78 3.65 6.06 6.623.07.151.22.251.38.251.15 0 .28-.077.35-.201 1.81-2.998 4.23-5.222 7.26-6.673a23.368 23.368 0 0 1 10.01-2.223Z"/></g><g filter="url(#c)" fill="#1A73E8"><path d="M1048.84 600.358a2.38 2.38 0 0 1-2.38 2.373 2.37 2.37 0 0 1-2.37-2.373V589.17a4 4 0 0 0-4-4h-11.3a4 4 0 0 0-4 4v11.188a2.38 2.38 0 0 1-2.38 2.373 2.37 2.37 0 0 1-2.37-2.373V567.45c0-1.31 1.06-2.373 2.37-2.373a2.38 2.38 0 0 1 2.38 2.373v9.554a4 4 0 0 0 4 4h11.3a4 4 0 0 0 4-4v-9.554c0-1.31 1.06-2.373 2.37-2.373a2.38 2.38 0 0 1 2.38 2.373v32.908ZM1069.41 573.937c2.43 0 4.5.527 6.23 1.582 1.75 1.055 3.09 2.549 4 4.483.95 1.898 1.43 4.131 1.43 6.697a2.795 2.795 0 0 1-2.8 2.795h-12.47c-2.24 0-4.15 1.889-3.49 4.033.4 1.309 1.01 2.408 1.83 3.298 1.58 1.652 3.78 2.478 6.59 2.478 1.8 0 3.38-.158 4.75-.474a26.07 26.07 0 0 0 1.67-.478c1.28-.412 2.65.496 2.65 1.84 0 .742-.43 1.422-1.13 1.684-1.05.399-2.1.702-3.14.909-1.41.317-3.08.475-5.01.475-2.67 0-5.04-.545-7.12-1.635-2.04-1.09-3.64-2.707-4.8-4.852-1.12-2.18-1.68-4.834-1.68-7.963 0-3.094.5-5.748 1.52-7.963 1.06-2.215 2.52-3.921 4.38-5.116 1.9-1.195 4.1-1.793 6.59-1.793Zm-.05 3.797c-2.21 0-3.97.721-5.27 2.162-.44.49-.82 1.047-1.14 1.673-1.07 2.107.92 4.234 3.28 4.234h5.99c2.21 0 4.14-1.857 3.37-3.93a3.063 3.063 0 0 0-.11-.289c-.49-1.195-1.25-2.127-2.27-2.795-.98-.703-2.27-1.055-3.85-1.055ZM1101.45 573.937c.53 0 1.09.035 1.69.106.93.051 1.54.919 1.41 1.846l-.15 1.098c-.11.826-.91 1.378-1.74 1.274-.53-.07-1.04-.105-1.53-.105-1.09 0-2.12.229-3.11.686a8.43 8.43 0 0 0-2.64 1.951c-.77.808-1.38 1.793-1.84 2.953-.42 1.16-.63 2.461-.63 3.903v12.762c0 1.281-1.04 2.32-2.32 2.32a2.323 2.323 0 0 1-2.33-2.32V576.46c0-1.102.9-1.996 2-1.996 1.02 0 1.88.775 1.98 1.793l.34 3.248c0 .073.06.128.14.128.05 0 .1-.028.12-.072.59-1.026 1.3-1.952 2.12-2.776a9.356 9.356 0 0 1 2.9-2.057c1.09-.527 2.29-.791 3.59-.791ZM1112.37 574.464c1.28 0 2.32 1.039 2.32 2.321v23.626a2.321 2.321 0 0 1-4.64 0v-23.626a2.321 2.321 0 0 1 2.32-2.321Zm.05-10.6c.71 0 1.32.246 1.85.739.56.457.84 1.195.84 2.215 0 .984-.28 1.722-.84 2.215-.53.492-1.14.738-1.85.738-.77 0-1.42-.246-1.95-.738-.53-.493-.79-1.231-.79-2.215 0-1.02.26-1.758.79-2.215.53-.493 1.18-.739 1.95-.739ZM1133.09 599.462c.7 0 1.42-.053 2.16-.159.9-.171 1.79.506 1.79 1.421v.584c0 .678-.38 1.308-1.04 1.475-.32.081-.67.151-1.07.212-.91.176-1.79.264-2.64.264-1.47 0-2.84-.246-4.11-.739-1.23-.527-2.23-1.423-3-2.689-.78-1.266-1.17-3.041-1.17-5.327v-14.449c0-1.107-.89-2.004-2-2.004h-.66a1.348 1.348 0 0 1-.55-2.574l1.63-.742a4.02 4.02 0 0 0 2.17-2.467l.97-3.176a1.58 1.58 0 0 1 3.09.463v1.666a3.241 3.241 0 0 0 3.24 3.243h3.14c.99 0 1.79.803 1.79 1.793 0 .991-.8 1.794-1.79 1.794h-2.38c-2.21 0-4 1.79-4 4v12.348c0 1.723.4 3.006 1.21 3.85.84.808 1.91 1.213 3.22 1.213ZM1153.41 573.99c3.44 0 5.99.756 7.64 2.267 1.66 1.512 2.48 3.921 2.48 7.225v17.375a1.871 1.871 0 0 1-3.7.409l-.54-2.414a.164.164 0 0 0-.29-.066c-.79.992-1.62 1.833-2.48 2.521a8.37 8.37 0 0 1-2.96 1.477c-1.09.317-2.42.475-4 .475-1.69 0-3.22-.299-4.59-.897a7.088 7.088 0 0 1-3.17-2.742c-.77-1.266-1.16-2.848-1.16-4.746 0-2.813 1.11-4.975 3.33-6.487 2.21-1.547 5.62-2.391 10.23-2.531l3.11-.103a1.747 1.747 0 0 0 1.69-1.743c0-2.356-.51-3.991-1.53-4.905-1.02-.914-2.46-1.371-4.33-1.371-1.47 0-2.88.229-4.22.686-.64.203-1.27.423-1.87.66-1.03.403-2.22-.05-2.64-1.074-.37-.905-.01-1.952.9-2.327.85-.356 1.8-.673 2.82-.951 1.69-.492 3.45-.738 5.28-.738Zm1.37 15.083c-3.52.14-5.96.703-7.33 1.687-1.34.985-2.01 2.373-2.01 4.166 0 1.582.48 2.743 1.43 3.481.98.738 2.23 1.107 3.74 1.107 2.39 0 4.38-.65 5.96-1.951 1.58-1.336 2.37-3.375 2.37-6.117a2.433 2.433 0 0 0-2.53-2.436l-1.63.063ZM1182.28 573.937c1.87 0 3.54.352 5.01 1.055 1.49.69 2.75 1.736 3.79 3.137.04.05.1.08.16.08.1 0 .18-.069.19-.163l.33-1.914c.16-.963.99-1.668 1.97-1.668 1.1 0 2 .896 2 2.001v26.741c0 2.672-.46 4.905-1.37 6.698-.91 1.828-2.3 3.199-4.17 4.113-1.86.914-4.23 1.371-7.12 1.371-2.04 0-3.92-.158-5.64-.474a19.68 19.68 0 0 1-3.4-.865c-.7-.25-1.13-.932-1.13-1.676 0-1.401 1.49-2.341 2.83-1.939l.17.05c1.09.351 2.27.615 3.53.791 1.27.176 2.57.263 3.91.263 2.42 0 4.32-.72 5.69-2.162 1.41-1.406 2.11-3.34 2.11-5.801v-1.107c0-.422.02-1.02.06-1.793.03-.699.06-1.214.09-1.546 0-.076-.06-.142-.13-.142-.05 0-.08.021-.11.056-.98 1.413-2.19 2.467-3.65 3.161-1.44.703-3.13 1.055-5.06 1.055-3.66 0-6.53-1.284-8.6-3.85-2.04-2.567-3.06-6.153-3.06-10.758 0-3.024.46-5.626 1.37-7.805.95-2.215 2.29-3.921 4.01-5.116 1.72-1.195 3.8-1.793 6.22-1.793Zm.64 3.903c-1.59 0-2.94.421-4.07 1.265-1.09.844-1.93 2.075-2.53 3.692-.56 1.617-.84 3.586-.84 5.906 0 3.481.63 6.153 1.9 8.016 1.3 1.829 3.18 2.743 5.64 2.743 1.44 0 2.67-.176 3.69-.528 1.02-.386 1.87-.967 2.53-1.74.67-.809 1.16-1.828 1.48-3.059.32-1.23.48-2.689.48-4.377v-1.107c0-2.567-.3-4.641-.9-6.223-.56-1.582-1.46-2.743-2.69-3.481s-2.8-1.107-4.69-1.107ZM1215.62 573.937c2.43 0 4.5.527 6.23 1.582 1.76 1.055 3.09 2.549 4.01 4.483.94 1.898 1.42 4.131 1.42 6.697a2.795 2.795 0 0 1-2.8 2.795h-12.47c-2.24 0-4.15 1.889-3.49 4.033.41 1.309 1.02 2.408 1.83 3.298 1.58 1.652 3.78 2.478 6.59 2.478 1.8 0 3.38-.158 4.75-.474a26.07 26.07 0 0 0 1.67-.478c1.28-.412 2.65.496 2.65 1.84 0 .742-.43 1.422-1.13 1.684-1.05.399-2.1.702-3.14.909-1.4.317-3.07.475-5.01.475-2.67 0-5.04-.545-7.12-1.635-2.04-1.09-3.64-2.707-4.8-4.852-1.12-2.18-1.68-4.834-1.68-7.963 0-3.094.51-5.748 1.53-7.963 1.05-2.215 2.51-3.921 4.37-5.116 1.9-1.195 4.1-1.793 6.59-1.793Zm-.05 3.797c-2.21 0-3.97.721-5.27 2.162-.44.49-.82 1.047-1.14 1.673-1.07 2.107.92 4.234 3.28 4.234h5.99c2.21 0 4.14-1.857 3.37-3.93a3.063 3.063 0 0 0-.11-.289c-.49-1.195-1.25-2.127-2.27-2.795-.98-.703-2.27-1.055-3.85-1.055ZM1264.94 568.716c-2 0-3.81.352-5.43 1.055-1.61.668-2.99 1.67-4.11 3.006-1.13 1.301-1.99 2.9-2.58 4.799-.6 1.863-.9 3.973-.9 6.328 0 3.094.47 5.784 1.42 8.069.99 2.285 2.43 4.043 4.33 5.274 1.93 1.23 4.34 1.846 7.22 1.846 1.65 0 3.22-.141 4.7-.422.57-.109 1.14-.229 1.7-.359 1.32-.306 2.62.665 2.62 2.018 0 .842-.52 1.604-1.32 1.85-1 .303-2.01.54-3.06.71-1.47.246-3.25.369-5.32.369-3.84 0-7.03-.791-9.6-2.373-2.57-1.583-4.5-3.833-5.8-6.751-1.27-2.918-1.9-6.346-1.9-10.283 0-2.848.39-5.45 1.16-7.805.81-2.356 1.97-4.395 3.48-6.118 1.55-1.723 3.45-3.041 5.7-3.955 2.25-.949 4.83-1.424 7.75-1.424 1.93 0 3.79.193 5.59.58.98.211 1.9.469 2.76.775 1.16.409 1.62 1.748 1.09 2.858-.53 1.115-1.85 1.594-3.01 1.18a36.23 36.23 0 0 0-1.84-.594c-1.41-.422-2.96-.633-4.65-.633ZM1292.2 573.99c3.45 0 6 .756 7.65 2.267 1.65 1.512 2.48 3.921 2.48 7.225v17.375c0 1.035-.84 1.874-1.88 1.874-.87 0-1.63-.608-1.83-1.465l-.54-2.414c-.01-.075-.08-.129-.16-.129-.05 0-.09.023-.13.063-.79.992-1.62 1.833-2.48 2.521-.84.668-1.83 1.161-2.95 1.477-1.09.317-2.43.475-4.01.475-1.69 0-3.22-.299-4.59-.897a7.062 7.062 0 0 1-3.16-2.742c-.77-1.266-1.16-2.848-1.16-4.746 0-2.813 1.11-4.975 3.32-6.487 2.22-1.547 5.63-2.391 10.23-2.531l3.11-.103a1.74 1.74 0 0 0 1.69-1.743c0-2.356-.51-3.991-1.53-4.905-1.02-.914-2.46-1.371-4.32-1.371-1.48 0-2.89.229-4.22.686-.65.203-1.27.423-1.87.66-1.03.403-2.23-.05-2.65-1.074-.37-.905 0-1.952.9-2.327.86-.356 1.8-.673 2.83-.951 1.69-.492 3.44-.738 5.27-.738Zm1.37 15.083c-3.51.14-5.96.703-7.33 1.687-1.33.985-2 2.373-2 4.166 0 1.582.47 2.743 1.42 3.481.99.738 2.23 1.107 3.75 1.107 2.39 0 4.37-.65 5.96-1.951 1.58-1.336 2.37-3.375 2.37-6.117a2.439 2.439 0 0 0-2.53-2.436l-1.64.063ZM1324.08 576.257c0 .991-.8 1.794-1.79 1.794h-1.77a3.563 3.563 0 0 0-3.56 3.559v18.801a2.321 2.321 0 0 1-4.64 0v-19.882a2.479 2.479 0 0 0-2.48-2.478h-1.22c-.7 0-1.25-.56-1.25-1.25 0-.544.35-1.025.87-1.19l2.53-.808a2.24 2.24 0 0 0 1.55-2.132c0-2.426.35-4.394 1.06-5.906.74-1.512 1.79-2.619 3.16-3.323 1.37-.703 3.03-1.054 4.96-1.054 1.12 0 2.14.105 3.06.316.2.038.4.077.59.118 1.04.223 1.57 1.315 1.23 2.323-.34 1.017-1.43 1.575-2.47 1.325l-.09-.022a9.788 9.788 0 0 0-2.27-.263c-1.55 0-2.71.527-3.48 1.582-.74 1.019-1.11 2.637-1.11 4.852 0 1.019.83 1.845 1.85 1.845h3.48c.99 0 1.79.803 1.79 1.793ZM1340.1 573.937c2.43 0 4.5.527 6.22 1.582 1.76 1.055 3.1 2.549 4.01 4.483.95 1.898 1.43 4.131 1.43 6.697a2.795 2.795 0 0 1-2.8 2.795h-12.47c-2.24 0-4.16 1.889-3.49 4.033.4 1.309 1.01 2.408 1.83 3.298 1.58 1.652 3.78 2.478 6.59 2.478 1.79 0 3.38-.158 4.75-.474.55-.138 1.1-.297 1.67-.478 1.27-.412 2.65.496 2.65 1.84 0 .742-.44 1.422-1.13 1.684-1.06.399-2.1.702-3.14.909-1.41.317-3.08.475-5.01.475-2.67 0-5.05-.545-7.12-1.635-2.04-1.09-3.64-2.707-4.8-4.852-1.12-2.18-1.69-4.834-1.69-7.963 0-3.094.51-5.748 1.53-7.963 1.06-2.215 2.52-3.921 4.38-5.116 1.9-1.195 4.1-1.793 6.59-1.793Zm-.05 3.797c-2.22 0-3.97.721-5.27 2.162-.44.49-.82 1.047-1.14 1.673-1.07 2.107.91 4.234 3.28 4.234h5.99c2.2 0 4.13-1.857 3.37-3.93-.04-.098-.07-.194-.11-.289-.5-1.195-1.25-2.127-2.27-2.795-.99-.703-2.27-1.055-3.85-1.055Z"/></g><path d="M1570.86 494.04v-92.289M1524.71 447.896l46.15-46.145 46.14 46.145" stroke="#1A73E8" stroke-width="18.933" stroke-linecap="round" stroke-linejoin="round"/></g><defs><filter id="b" x="1018.43" y="414.725" width="289.604" height="88.192" filterUnits="userSpaceOnUse" color-interpolation-filters="sRGB"><feFlood flood-opacity="0" result="BackgroundImageFix"/><feBlend in="SourceGraphic" in2="BackgroundImageFix" result="shape"/><feGaussianBlur stdDeviation="3.5" result="effect1_foregroundBlur_2855_8368"/></filter><filter id="c" x="1013.04" y="555.388" width="345.716" height="67.001" filterUnits="userSpaceOnUse" color-interpolation-filters="sRGB"><feFlood flood-opacity="0" result="BackgroundImageFix"/><feBlend in="SourceGraphic" in2="BackgroundImageFix" result="shape"/><feGaussianBlur stdDeviation="3.5" result="effect1_foregroundBlur_2855_8368"/></filter><clipPath id="a"><path fill="#fff" d="M0 0h1920v1080H0z"/></clipPath></defs></svg>