<svg width="1920" height="1080" fill="none" xmlns="http://www.w3.org/2000/svg"><g clip-path="url(#a)"><path d="M616.211 356.358c43.328 0 76.05 10.606 98.165 31.819 22.115 20.761 33.173 54.611 33.173 101.55V726H688.65V493.789c0-29.337-6.544-51.226-19.633-65.669-13.089-14.443-33.624-21.664-61.607-21.664-40.169 0-67.926 11.283-83.271 33.85-15.345 22.567-23.018 55.063-23.018 97.488V726h-59.576V363.128h48.067l8.801 49.421h3.385c8.124-12.637 18.053-23.018 29.788-31.142 12.186-8.575 25.5-14.894 39.943-18.956 14.443-4.062 29.337-6.093 44.682-6.093ZM1353.21 356.358c43.33 0 76.05 10.607 98.17 31.819 22.11 20.762 33.17 54.612 33.17 101.55V726h-58.9V493.789c0-29.336-6.54-51.226-19.63-65.669-13.09-14.442-33.63-21.664-61.61-21.664-40.17 0-67.93 11.284-83.27 33.85-15.35 22.567-23.02 55.063-23.02 97.488V726h-59.58V363.128h48.07l8.8 49.421h3.39c8.12-12.637 18.05-23.018 29.79-31.142 12.18-8.575 25.5-14.894 39.94-18.956 14.44-4.062 29.34-6.093 44.68-6.093Z" fill="#3C4043"/><path d="M1484.55 729.5c1.93 0 3.5-1.567 3.5-3.5V489.727c0-47.374-11.15-82.377-34.27-104.089-22.99-22.048-56.72-32.78-100.57-32.78-15.66 0-30.87 2.073-45.63 6.224-14.82 4.167-28.49 10.654-41 19.455-11.09 7.679-20.6 17.298-28.54 28.827l-7.98-44.849a3.504 3.504 0 0 0-3.45-2.887h-48.07c-1.93 0-3.5 1.567-3.5 3.5V726c0 1.933 1.57 3.5 3.5 3.5h59.58c1.93 0 3.5-1.567 3.5-3.5V537.794c0-42.084 7.63-73.773 22.41-95.52 14.43-21.211 40.79-32.318 80.38-32.318 27.43 0 46.84 7.076 59.01 20.515 12.27 13.54 18.73 34.424 18.73 63.318V726c0 1.933 1.57 3.5 3.5 3.5h58.9Z" stroke="#3C4043" stroke-opacity=".8" stroke-width="7" stroke-linejoin="round"/><path d="M1353.21 356.358c43.33 0 76.05 10.607 98.17 31.819 22.11 20.762 33.17 54.612 33.17 101.55V726h-58.9V493.789c0-29.336-6.54-51.226-19.63-65.669-13.09-14.442-33.63-21.664-61.61-21.664-40.17 0-67.93 11.284-83.27 33.85-15.35 22.567-23.02 55.063-23.02 97.488V726h-59.58V363.128h48.07l8.8 49.421h3.39c8.12-12.637 18.05-23.018 29.79-31.142 12.18-8.575 25.5-14.894 39.94-18.956 14.44-4.062 29.34-6.093 44.68-6.093Z" fill="#3C4043"/><path d="M1484.55 733c3.86 0 7-3.134 7-7V489.727c0-47.81-11.24-83.965-35.35-106.627-23.88-22.883-58.62-33.742-102.99-33.742-15.97 0-31.5 2.115-46.58 6.355-15.19 4.273-29.22 10.927-42.05 19.954-9.24 6.403-17.42 14.104-24.52 23.073l-6.56-36.839a6.997 6.997 0 0 0-6.89-5.773h-48.07c-3.86 0-7 3.134-7 7V726c0 3.866 3.14 7 7 7h59.58c3.87 0 7-3.134 7-7V537.794c0-41.743 7.58-72.626 21.81-93.551 13.5-19.856 38.47-30.787 77.48-30.787 26.89 0 45.15 6.931 56.42 19.365 11.45 12.638 17.82 32.516 17.82 60.968V726c0 3.866 3.13 7 7 7h58.9Z" stroke="#3C4043" stroke-opacity=".6" stroke-width="14" stroke-linejoin="round"/><path d="M1353.21 356.358c43.33 0 76.05 10.607 98.17 31.819 22.11 20.762 33.17 54.612 33.17 101.55V726h-58.9V493.789c0-29.336-6.54-51.226-19.63-65.669-13.09-14.442-33.63-21.664-61.61-21.664-40.17 0-67.93 11.284-83.27 33.85-15.35 22.567-23.02 55.063-23.02 97.488V726h-59.58V363.128h48.07l8.8 49.421h3.39c8.12-12.637 18.05-23.018 29.79-31.142 12.18-8.575 25.5-14.894 39.94-18.956 14.44-4.062 29.34-6.093 44.68-6.093Z" fill="#3C4043"/><path d="M1484.55 736.5c5.8 0 10.5-4.701 10.5-10.5V489.727c0-48.247-11.33-85.554-36.45-109.166-24.75-23.718-60.5-34.703-105.39-34.703-16.28 0-32.13 2.157-47.52 6.486-15.57 4.378-29.96 11.2-43.11 20.453a116.557 116.557 0 0 0-20.38 17.981l-5.25-29.491a10.5 10.5 0 0 0-10.34-8.659h-48.07c-5.79 0-10.5 4.701-10.5 10.5V726c0 5.799 4.71 10.5 10.5 10.5h59.58c5.8 0 10.5-4.701 10.5-10.5V537.794c0-41.402 7.53-71.478 21.2-91.583 12.58-18.501 36.15-29.255 74.59-29.255 26.34 0 43.47 6.786 53.83 18.215 10.63 11.736 16.91 30.607 16.91 58.618V726c0 5.799 4.7 10.5 10.5 10.5h58.9Z" stroke="#3C4043" stroke-opacity=".4" stroke-width="21" stroke-linejoin="round"/><path d="M1353.21 356.358c43.33 0 76.05 10.607 98.17 31.819 22.11 20.762 33.17 54.612 33.17 101.55V726h-58.9V493.789c0-29.336-6.54-51.226-19.63-65.669-13.09-14.442-33.63-21.664-61.61-21.664-40.17 0-67.93 11.284-83.27 33.85-15.35 22.567-23.02 55.063-23.02 97.488V726h-59.58V363.128h48.07l8.8 49.421h3.39c8.12-12.637 18.05-23.018 29.79-31.142 12.18-8.575 25.5-14.894 39.94-18.956 14.44-4.062 29.34-6.093 44.68-6.093Z" fill="#3C4043"/><path d="M1484.55 740c7.73 0 14-6.268 14-14V489.727c0-48.684-11.42-87.142-37.54-111.703-25.63-24.554-62.39-35.666-107.8-35.666-16.6 0-32.77 2.199-48.47 6.616-15.94 4.484-30.69 11.475-44.17 20.953a119.643 119.643 0 0 0-16.14 13.427l-4.03-22.68c-1.19-6.68-7-11.546-13.79-11.546h-48.07c-7.73 0-14 6.268-14 14V726c0 7.732 6.27 14 14 14h59.58c7.73 0 14-6.268 14-14V537.794c0-41.061 7.48-70.33 20.6-89.615 11.65-17.145 33.83-27.723 71.69-27.723 25.79 0 41.79 6.641 51.23 17.066 9.82 10.833 16.01 28.698 16.01 56.267V726c0 7.732 6.27 14 14 14h58.9Z" stroke="#3C4043" stroke-opacity=".2" stroke-width="28" stroke-linejoin="round"/><path d="M1353.21 356.358c43.33 0 76.05 10.607 98.17 31.819 22.11 20.762 33.17 54.612 33.17 101.55V726h-58.9V493.789c0-29.336-6.54-51.226-19.63-65.669-13.09-14.442-33.63-21.664-61.61-21.664-40.17 0-67.93 11.284-83.27 33.85-15.35 22.567-23.02 55.063-23.02 97.488V726h-59.58V363.128h48.07l8.8 49.421h3.39c8.12-12.637 18.05-23.018 29.79-31.142 12.18-8.575 25.5-14.894 39.94-18.956 14.44-4.062 29.34-6.093 44.68-6.093Z" fill="#3C4043"/><path d="M1484.55 743.5c9.66 0 17.5-7.835 17.5-17.5V489.727c0-49.123-11.51-88.734-38.63-114.244-26.51-25.387-64.28-36.625-110.21-36.625-16.91 0-33.4 2.241-49.42 6.747-16.32 4.589-31.42 11.748-45.22 21.452a123.318 123.318 0 0 0-11.82 9.316l-2.91-16.313c-1.49-8.35-8.75-14.432-17.23-14.432h-48.07c-9.66 0-17.5 7.835-17.5 17.5V726c0 9.665 7.84 17.5 17.5 17.5h59.58c9.67 0 17.5-7.835 17.5-17.5V537.794c0-40.72 7.43-69.183 19.99-87.647 10.74-15.789 31.52-26.191 68.8-26.191 25.24 0 40.1 6.495 48.64 15.916 9 9.932 15.1 26.79 15.1 53.917V726c0 9.665 7.83 17.5 17.5 17.5h58.9Z" stroke="#3C4043" stroke-opacity=".05" stroke-width="35" stroke-linejoin="round"/><path d="M1353.21 356.358c43.33 0 76.05 10.607 98.17 31.819 22.11 20.762 33.17 54.612 33.17 101.55V726h-58.9V493.789c0-29.336-6.54-51.226-19.63-65.669-13.09-14.442-33.63-21.664-61.61-21.664-40.17 0-67.93 11.284-83.27 33.85-15.35 22.567-23.02 55.063-23.02 97.488V726h-59.58V363.128h48.07l8.8 49.421h3.39c8.12-12.637 18.05-23.018 29.79-31.142 12.18-8.575 25.5-14.894 39.94-18.956 14.44-4.062 29.34-6.093 44.68-6.093Z" fill="#3C4043"/><circle cx="1168" cy="341" r="74.5" fill="#1A73E8" fill-opacity=".2" stroke="#1A73E8" stroke-width="3"/></g><defs><clipPath id="a"><path fill="#fff" d="M0 0h1920v1080H0z"/></clipPath></defs></svg>