<svg width="1920" height="1080" fill="none" xmlns="http://www.w3.org/2000/svg"><rect x="1216" y="813" width="218" height="50" rx="25" fill="#D2E3FC"/><rect x="1215" y="813" width="193" height="50" rx="25" fill="#1A73E8"/><rect x="486" y="813" width="218" height="50" rx="25" fill="#D2E3FC"/><rect x="486" y="813" width="52" height="50" rx="25" fill="#1A73E8"/><path d="M1127.77 515.642a20.305 20.305 0 0 1-5.2 14.579 19.162 19.162 0 0 1-6.7 4.24c-2.5.93-5.17 1.326-7.84 1.161-2.73.149-5.47-.277-8.03-1.249a19.528 19.528 0 0 1-6.83-4.396 23.161 23.161 0 0 1-5.36-16.528v-12.182c.24-3.851-.61-7.692-2.44-11.087a7.351 7.351 0 0 0-2.72-2.765 7.355 7.355 0 0 0-3.74-1.011c-1.47.03-2.92.415-4.21 1.122a9.198 9.198 0 0 0-3.22 2.939 30.754 30.754 0 0 0-4.83 12.182 102.062 102.062 0 0 0-1.63 19.817 74.284 74.284 0 0 0 4.07 26.315 35.364 35.364 0 0 0 11.33 16.244 27.069 27.069 0 0 0 16.77 5.482 38.722 38.722 0 0 0 18.15-4.061 17.757 17.757 0 0 0 6.07-5.164 17.841 17.841 0 0 0 3.19-7.303c.03-.322.18-.623.4-.853.11-.06.23-.092.35-.092.12 0 .24.032.34.092a.876.876 0 0 1 .53.488c.11.315.11.658 0 .974a52.272 52.272 0 0 1-8.89 22.904 45.163 45.163 0 0 1-17.62 14.619c-8.17 3.519-17 5.26-25.89 5.106a62.654 62.654 0 0 1-25.69-6 43.717 43.717 0 0 1-18.39-18.03 60.388 60.388 0 0 1-6.7-29.807 62.816 62.816 0 0 1 7.55-31.187 55.867 55.867 0 0 1 20.75-21.279 59.54 59.54 0 0 1 30.42-7.716 67.922 67.922 0 0 1 25.5 4.061 34.343 34.343 0 0 1 15.31 11.492 27.907 27.907 0 0 1 5.2 16.893ZM1187.46 486.162v99.979c0 1.037.29 2.052.85 2.924.25.426.59.797.99 1.09.39.293.85.502 1.33.615l11.9 2.437c.36.028.71.154 1.01.365a.745.745 0 0 1 .24.609.786.786 0 0 1-.09.426.767.767 0 0 1-.31.306 1.76 1.76 0 0 1-1.06.243h-66.51c-.41.034-.82-.081-1.14-.325a.892.892 0 0 1-.24-.288 1.113 1.113 0 0 1-.09-.362c.02-.151.08-.296.16-.423.09-.127.2-.232.33-.307.35-.258.75-.425 1.18-.488l4.43-.975c.45-.06.9-.214 1.29-.451.4-.238.75-.554 1.02-.929.39-.781.59-1.645.57-2.518v-88.202a3.229 3.229 0 0 0-.41-1.747 1.63 1.63 0 0 0-.66-.544 1.644 1.644 0 0 0-.84-.146h-5.4c-.3.011-.59-.09-.81-.284a.994.994 0 0 1-.27-.303 1.03 1.03 0 0 1-.1-.387c.01-.14.05-.277.11-.403a.98.98 0 0 1 .26-.328c.3-.274.69-.445 1.09-.488l46.09-10.639 1.79-.366c.47-.041.95-.041 1.42 0 .26-.026.52.017.75.124.24.107.44.275.59.486.28.385.46.83.53 1.299Zm-1.95 43.127a58.897 58.897 0 0 1 4.79-25.259 37.147 37.147 0 0 1 12.19-15.35 27.402 27.402 0 0 1 15.71-5.198 18.442 18.442 0 0 1 15.23 6.578 31.983 31.983 0 0 1 5.24 19.98 26.878 26.878 0 0 1-6.22 19.492 20.872 20.872 0 0 1-7.13 4.802 20.904 20.904 0 0 1-8.46 1.533c-2.31.221-4.64-.088-6.82-.905a15.336 15.336 0 0 1-5.73-3.806 22.35 22.35 0 0 1-4.38-13.563l-.25-4.629a9.704 9.704 0 0 0-1.09-4.386 3.79 3.79 0 0 0-3.54-1.706 5.078 5.078 0 0 0-4.06 2.437 19.66 19.66 0 0 0-2.72 7.675 76.538 76.538 0 0 0-.97 13.523l-1.79-1.218ZM1353.14 534.648a2.95 2.95 0 0 1-.81 2.071 3.38 3.38 0 0 1-1.21.699c-.45.147-.92.199-1.39.155h-76.26v-2.925h33.87c1.46 0 2.19-.893 2.19-2.679 0-16.244-1.5-28.021-4.47-35.168-2.96-7.147-6.01-10.639-9.18-10.639a8.144 8.144 0 0 0-3.44 1.053 8.18 8.18 0 0 0-2.65 2.439 29.244 29.244 0 0 0-4.59 12.183 121.845 121.845 0 0 0-1.74 23.512c0 16.812 3.37 29.036 10.11 36.548a38.096 38.096 0 0 0 23.5 11.242 38.097 38.097 0 0 0 25.23-6.491 22.032 22.032 0 0 0 6.41-8.04 22.023 22.023 0 0 0 2.08-10.071.923.923 0 0 1 .28-.812h.45c.24.002.47.088.65.243.12.129.21.283.27.452.05.168.07.346.05.523a45.608 45.608 0 0 1-7.02 24.934 49.91 49.91 0 0 1-19.05 17.421 57.318 57.318 0 0 1-27.29 6.375 59.695 59.695 0 0 1-29.36-7.066 51.824 51.824 0 0 1-20.3-19.613 56.24 56.24 0 0 1-7.31-28.873 63.98 63.98 0 0 1 7.19-31.351 48.71 48.71 0 0 1 20.3-20.304 64.976 64.976 0 0 1 31.15-7.025 54.271 54.271 0 0 1 27.57 6.7 46.578 46.578 0 0 1 17.99 18.274 53.639 53.639 0 0 1 6.78 26.233ZM1359.23 570.708c-.14-4.57.91-9.099 3.04-13.142a26.465 26.465 0 0 1 9.14-9.923c8.13-5.55 21.84-8.339 41.14-8.366 2.9-.104 5.8.295 8.57 1.178 2.09.77 4.04 1.852 5.81 3.208l-1.22.975a20.374 20.374 0 0 0-5.48-2.315 26.031 26.031 0 0 0-5.97-.609 9.546 9.546 0 0 0-8.53 5.604 36.501 36.501 0 0 0-3.17 17.299 29.136 29.136 0 0 0 3.29 15.838 9.868 9.868 0 0 0 3.56 3.548 9.81 9.81 0 0 0 4.85 1.325c2.06-.08 4.05-.772 5.72-1.99a14.94 14.94 0 0 0 4.63-5.076l1.71.975a32.477 32.477 0 0 1-14.34 13.604 45.098 45.098 0 0 1-20.3 4.67 35.4 35.4 0 0 1-23.23-7.554 23.783 23.783 0 0 1-9.22-19.249Zm63.59 13.036v-1.665l-2.19 2.071v-88.933c.13-2.517-.68-4.992-2.27-6.944a7.1 7.1 0 0 0-2.47-1.905c-.96-.442-2-.666-3.06-.654a8.613 8.613 0 0 0-6.57 2.559 9.63 9.63 0 0 0-2.44 6.944v12.914c0 2.688-.55 5.347-1.61 7.814a19.658 19.658 0 0 1-4.6 6.52 21.97 21.97 0 0 1-7.5 4.736 21.996 21.996 0 0 1-8.75 1.396 16.224 16.224 0 0 1-11.04-3.776 14.396 14.396 0 0 1-3.44-5.307 14.544 14.544 0 0 1-.87-6.267 21.146 21.146 0 0 1 5.85-13.563 43.56 43.56 0 0 1 17.46-11.533 78.849 78.849 0 0 1 28.96-4.63c15.59 0 27.26 3.005 35 9.015a31.054 31.054 0 0 1 9.01 11.615 31.224 31.224 0 0 1 2.65 14.456v60.183a6.494 6.494 0 0 0 1.25 4.386c.39.458.86.827 1.41 1.079.54.253 1.13.384 1.72.383a5.966 5.966 0 0 0 3.58-1.381 7.708 7.708 0 0 0 2.27-5.198c0-.283.1-.557.28-.772a.657.657 0 0 1 .45 0c.17-.07.36-.07.53 0v.772a15.58 15.58 0 0 1-2.89 7.431 24.943 24.943 0 0 1-9.5 8.325 36.513 36.513 0 0 1-18.07 3.736c-6.28.55-12.59-.869-18.03-4.061a11.92 11.92 0 0 1-3.75-4.245 11.98 11.98 0 0 1-1.37-5.501ZM1534.65 484.618v102.578a6.11 6.11 0 0 0 .65 3.087c.25.407.58.757.97 1.023.39.267.84.444 1.31.52l4.63 1.096c.97.244 1.46.609 1.46 1.096 0 .488-.41.813-1.22.975h-59.57a1.52 1.52 0 0 1-.86-.243.858.858 0 0 1-.28-.317.843.843 0 0 1-.08-.415c0-.257.1-.504.28-.69.36-.228.76-.368 1.18-.406l4.63-1.096a3.07 3.07 0 0 0 2.31-1.543c.46-.964.67-2.024.61-3.087v-86.74c.02-.264-.01-.529-.09-.78a2.178 2.178 0 0 0-.39-.682 2.22 2.22 0 0 0-1.59-.487h-4.75c-.41.052-.83-.049-1.18-.285a1.09 1.09 0 0 1-.22-.377 1.07 1.07 0 0 1-.06-.435.847.847 0 0 1 .08-.415.863.863 0 0 1 .28-.316c.27-.17.55-.293.86-.365l46.17-12.792 1.99-.487a6.01 6.01 0 0 1 1.3 0c.23-.017.47.018.68.103.22.084.42.215.58.384.22.32.34.705.32 1.096Zm-4.06 27.655-1.7-1.827 4.87-4.264a111.78 111.78 0 0 1 25.14-17.34 49.26 49.26 0 0 1 20.54-5.442 25.4 25.4 0 0 1 9.89 1.562 25.348 25.348 0 0 1 8.51 5.26c4.71 4.549 7.07 11.939 7.07 22.173v74.801a5.908 5.908 0 0 0 .65 3.087 3.225 3.225 0 0 0 2.27 1.543l4.63 1.096c.97.244 1.46.609 1.46 1.096 0 .488-.41.813-1.22.975h-59.69c-.81 0-1.22-.325-1.22-.975 0-.649.49-1.014 1.46-1.096l4.63-1.096a3.07 3.07 0 0 0 1.34-.496c.4-.268.74-.627.98-1.047.45-.964.66-2.024.6-3.087v-70.091c.33-3.877-.69-7.747-2.88-10.964a10.433 10.433 0 0 0-3.89-2.695 10.499 10.499 0 0 0-4.68-.716c-2.5.014-4.99.511-7.31 1.462a24.87 24.87 0 0 0-6.82 4.06l-4.63 4.021Zm70.05 0-1.7-1.827 4.87-4.264a111.78 111.78 0 0 1 25.14-17.34 49.26 49.26 0 0 1 20.54-5.442 25.4 25.4 0 0 1 9.89 1.562 25.348 25.348 0 0 1 8.51 5.26c4.71 4.549 7.07 11.939 7.07 22.173v74.801a5.908 5.908 0 0 0 .65 3.087 3.225 3.225 0 0 0 2.27 1.543l4.63 1.096c.41.036.8.176 1.14.406.18.184.3.429.32.69a.925.925 0 0 1-.07.404c-.06.127-.15.239-.25.328-.26.181-.58.267-.9.243h-59.69c-.81 0-1.22-.325-1.22-.975 0-.649.49-1.014 1.46-1.096l4.63-1.096a3.07 3.07 0 0 0 1.34-.496c.4-.268.74-.627.98-1.047.45-.964.66-2.024.6-3.087v-70.091c.33-3.877-.69-7.747-2.88-10.964a10.433 10.433 0 0 0-3.89-2.695 10.499 10.499 0 0 0-4.68-.716c-2.5.014-4.99.511-7.31 1.462a24.87 24.87 0 0 0-6.82 4.06l-4.63 4.021Z" fill="#D2E3FC"/><path d="M1124.33 517.471c.17 2.943-.29 5.89-1.35 8.642a20.597 20.597 0 0 1-4.79 7.317 22.965 22.965 0 0 1-16.24 5.726 19.697 19.697 0 0 1-15.39-5.645 21.119 21.119 0 0 1-5.08-14.579v-3.533c.19-2.471-.5-4.929-1.95-6.944a7.162 7.162 0 0 0-2.65-1.826 7.255 7.255 0 0 0-3.19-.488c-2.56-.012-5.05.8-7.11 2.314a15.424 15.424 0 0 0-5.12 7.066 33.23 33.23 0 0 0-1.91 12.183 41.804 41.804 0 0 0 4.07 19.492 27.426 27.426 0 0 0 10.96 11.655 30.767 30.767 0 0 0 15.27 3.817c4.11.093 8.21-.399 12.18-1.462a27.345 27.345 0 0 0 9.54-5.238 24.498 24.498 0 0 1 5.2-3.533 8.712 8.712 0 0 1 3.33-.731c.68-.006 1.34.145 1.95.441a4.21 4.21 0 0 1 1.54 1.264 8.873 8.873 0 0 1 1.39 5.604 32.869 32.869 0 0 1-6.1 19.127 43.125 43.125 0 0 1-17.21 14.132 65.002 65.002 0 0 1-54.91-1.462 50.98 50.98 0 0 1-20.3-19.37 57.266 57.266 0 0 1-7.43-29.726 60.939 60.939 0 0 1 7.14-29.482 53.634 53.634 0 0 1 20.31-20.913 60.539 60.539 0 0 1 31.06-7.716 61.502 61.502 0 0 1 24.98 4.629 39.006 39.006 0 0 1 16.24 12.386 28.108 28.108 0 0 1 5.57 16.853ZM1185.72 495.055l2.81 21.807v45.807c-.17 2.773.29 5.548 1.34 8.121a6.043 6.043 0 0 0 1.84 2.2c.79.573 1.7.947 2.66 1.09l6.46 1.097c1.21.135 2.39.51 3.45 1.103a9.095 9.095 0 0 1 2.76 2.348 11.203 11.203 0 0 1 1.95 6.66 9.52 9.52 0 0 1-.62 3.844 9.822 9.822 0 0 1-2.06 3.303c-1.04.962-2.27 1.7-3.61 2.168-1.35.468-2.77.656-4.18.553h-55.19c-1.34.072-2.67-.12-3.94-.566a10.11 10.11 0 0 1-3.41-2.033 9.738 9.738 0 0 1-2.15-3.345 9.716 9.716 0 0 1-.61-3.924c-.08-2.02.38-4.025 1.34-5.807a17.134 17.134 0 0 1 4.06-4.304l1.22-1.097a7.522 7.522 0 0 0 2.03-3.29c.56-2.667.78-5.397.65-8.121v-35.452c.14-2.27-.16-4.547-.9-6.7a8.064 8.064 0 0 0-3-3.289l-1.1-.732a13.795 13.795 0 0 1-4.06-4.06 9.293 9.293 0 0 1-1.22-4.995 9.443 9.443 0 0 1 2.15-6.132 17.809 17.809 0 0 1 7.23-4.711l22.91-9.38a61.905 61.905 0 0 1 8.48-2.965c1.83-.561 3.73-.875 5.65-.934a5.561 5.561 0 0 1 4.75 2.315 21.72 21.72 0 0 1 2.31 9.421Zm-1.95 40.609a91.447 91.447 0 0 1 4.07-29.848 36.026 36.026 0 0 1 11.12-17.055 25.704 25.704 0 0 1 16.25-5.482c3.19-.163 6.38.42 9.31 1.702a20.586 20.586 0 0 1 7.58 5.688 34.526 34.526 0 0 1 6.01 22.213c0 9.828-1.83 17.056-5.52 21.604a17.845 17.845 0 0 1-6.46 5.204 17.77 17.77 0 0 1-8.12 1.7c-5.1.524-10.2-.897-14.3-3.98a15.672 15.672 0 0 1-3.71-5.569 15.716 15.716 0 0 1-1.04-6.614v-4.994a7.852 7.852 0 0 0-.97-4.427 3.338 3.338 0 0 0-2.93-1.421 4.345 4.345 0 0 0-3.45 2.03c-1.21 1.805-2 3.859-2.31 6.011a53.539 53.539 0 0 0-.81 10.111l-4.72 3.127ZM1352.15 524.902a21.794 21.794 0 0 1-5.28 15.675 19.537 19.537 0 0 1-6.82 4.328 19.572 19.572 0 0 1-8 1.194h-58.96v-16.243h25.34c4.71 0 7.06-2.477 7.06-7.431.4-4.432-.64-8.875-2.96-12.671a8.702 8.702 0 0 0-6.9-3.776 9.048 9.048 0 0 0-5.77 2.071 14.075 14.075 0 0 0-4.06 6.701 39.558 39.558 0 0 0-1.59 12.426c0 12.507 2.71 21.793 8.13 27.857a27.583 27.583 0 0 0 9.85 6.955 27.632 27.632 0 0 0 11.87 2.101 40.94 40.94 0 0 0 12.55-2.071 35.507 35.507 0 0 0 11.69-6.335 26.731 26.731 0 0 1 4.88-3.37 9 9 0 0 1 3.53-.894 4.496 4.496 0 0 1 3.53 1.706 8.578 8.578 0 0 1 1.47 5.604 32.05 32.05 0 0 1-6.22 18.802 44.044 44.044 0 0 1-17.7 14.335 62.882 62.882 0 0 1-27.25 5.482 64.13 64.13 0 0 1-30.58-6.944 49.75 49.75 0 0 1-20.3-19.533 58.425 58.425 0 0 1-7.19-29.442 63.99 63.99 0 0 1 6.78-29.725 50.048 50.048 0 0 1 20.3-20.792 65.74 65.74 0 0 1 32.82-7.594 59.095 59.095 0 0 1 26.92 5.685c7 3.348 12.94 8.561 17.18 15.066a38.078 38.078 0 0 1 5.68 20.833ZM1358.73 569.897a29.733 29.733 0 0 1 13.48-25.949c8.99-6.172 21.35-9.259 37.08-9.259a69.46 69.46 0 0 1 9.5.609c2.43.275 4.81.89 7.07 1.828l-4.51 13.766a13.331 13.331 0 0 0-3.54-1.827 12.87 12.87 0 0 0-3.77-.487 8.135 8.135 0 0 0-3.7.829 8.137 8.137 0 0 0-2.92 2.42 13.594 13.594 0 0 0-2.52 8.568 12.5 12.5 0 0 0 2.64 8.406 9.13 9.13 0 0 0 3.33 2.365c1.27.527 2.65.76 4.02.68 1.73.032 3.44-.343 5-1.096a8.093 8.093 0 0 0 3.04-2.315l2.68 13.401a29.421 29.421 0 0 1-14.05 11.574 51.487 51.487 0 0 1-20.67 4.061 33.694 33.694 0 0 1-23.63-7.797 25.66 25.66 0 0 1-8.53-19.777Zm64.2 5.726v-3.411l-4.06-.244v-62.619c.13-2.322-.48-4.625-1.75-6.578a6.007 6.007 0 0 0-2.28-1.879 6.025 6.025 0 0 0-2.91-.558c-1.45-.01-2.87.43-4.06 1.259a4.05 4.05 0 0 0-1.83 3.614v5.726a18.742 18.742 0 0 1-5.97 15.026 25.266 25.266 0 0 1-17.18 5.197 22.296 22.296 0 0 1-15.35-4.426 15.903 15.903 0 0 1-3.76-5.563 15.77 15.77 0 0 1-1.11-6.62 21.995 21.995 0 0 1 6.45-14.984 46.076 46.076 0 0 1 19.38-11.493 98.693 98.693 0 0 1 32.16-4.467c15.67 0 27 2.884 33.99 8.65a29.213 29.213 0 0 1 8.03 10.648 29.218 29.218 0 0 1 2.44 13.108v47.634c.01 1.056.29 2.092.82 3.005a3.067 3.067 0 0 0 2.96 1.381 4.58 4.58 0 0 0 1.91-.365c.52-.245 1.02-.53 1.5-.853.46-.254.94-.485 1.42-.691a5.89 5.89 0 0 1 1.75-.284c.78-.024 1.55.177 2.22.58.67.404 1.21.992 1.56 1.695a10.163 10.163 0 0 1 1.34 5.279c-.07 4.037-1.3 7.97-3.54 11.33a27.333 27.333 0 0 1-10.03 9.259 31.345 31.345 0 0 1-15.55 3.654 32.048 32.048 0 0 1-20.3-6.213 19.01 19.01 0 0 1-6.05-6.906 19.123 19.123 0 0 1-2.12-8.931l-.08.04ZM1538.42 493.593v69.035c-.09 2.933.08 5.867.49 8.772.22 1.436.9 2.761 1.94 3.777l1.47 1.34a11.274 11.274 0 0 1 4.06 8.65c0 6.578-3.01 9.867-9.02 9.867h-43.98c-1.33.073-2.67-.119-3.93-.565a10.25 10.25 0 0 1-3.42-2.033 9.567 9.567 0 0 1-2.14-3.345 9.557 9.557 0 0 1-.62-3.924c-.08-2.021.39-4.026 1.34-5.808a17.315 17.315 0 0 1 4.06-4.304l1.22-1.097a6.448 6.448 0 0 0 2.03-3.248 32.1 32.1 0 0 0 .65-8.122v-35.452c.14-2.27-.16-4.547-.89-6.7a8.157 8.157 0 0 0-3.01-3.289l-1.09-.732a13.678 13.678 0 0 1-4.06-4.06 10.338 10.338 0 0 1-1.19-5.667c.15-1.964.86-3.844 2.04-5.42a18.55 18.55 0 0 1 7.31-4.75l21.8-8.894a73.595 73.595 0 0 1 9.75-3.452 24.7 24.7 0 0 1 6.58-.934 8.081 8.081 0 0 1 3.72.592 8.117 8.117 0 0 1 3.06 2.21 11.335 11.335 0 0 1 1.83 7.553Zm-3.78 32.163-8.12-9.99 4.63-4.995a103.445 103.445 0 0 1 25.42-21.441 44.664 44.664 0 0 1 20.75-5.848 26.398 26.398 0 0 1 21.57 9.503 40.658 40.658 0 0 1 7.79 26.557v43.127c-.08 2.932.08 5.867.49 8.772a6.71 6.71 0 0 0 1.95 3.777l1.46 1.339a11.232 11.232 0 0 1 2.99 3.872 11.13 11.13 0 0 1 1.07 4.778c0 6.579-3 9.868-9.01 9.868h-43.74c-6.01 0-9.02-3.289-9.02-9.868a11.43 11.43 0 0 1 1.07-4.778 11.26 11.26 0 0 1 3-3.872l1.46-1.339a6.772 6.772 0 0 0 1.95-3.777c.4-2.905.57-5.84.48-8.772v-31.431c.25-3.653-.65-7.291-2.59-10.396a8.919 8.919 0 0 0-7.64-3.614c-2.19.002-4.36.458-6.37 1.34a19.615 19.615 0 0 0-5.81 4.061l-3.78 3.127Zm68.22 0-8.12-9.99 4.63-4.995a103.445 103.445 0 0 1 25.42-21.441 44.664 44.664 0 0 1 20.75-5.848 26.363 26.363 0 0 1 21.57 9.503 40.545 40.545 0 0 1 7.79 26.557v43.127c-.14 2.728.1 5.464.74 8.122a8.635 8.635 0 0 0 1.94 3.289l1.22 1.097a21.66 21.66 0 0 1 4.06 4.385c1 1.738 1.48 3.725 1.38 5.726a9.69 9.69 0 0 1-.59 3.92 9.585 9.585 0 0 1-2.13 3.349 10.264 10.264 0 0 1-7.39 2.599h-44.02c-6.01 0-9.01-3.289-9.01-9.868 0-1.651.36-3.282 1.06-4.777a11.363 11.363 0 0 1 3-3.872l1.46-1.341a6.766 6.766 0 0 0 1.95-3.776c.41-2.905.57-5.839.49-8.772v-31.431c.25-3.652-.66-7.291-2.6-10.396a8.964 8.964 0 0 0-3.36-2.771 8.924 8.924 0 0 0-4.28-.843c-2.19.003-4.36.459-6.37 1.34a19.744 19.744 0 0 0-5.81 4.061l-3.78 3.046ZM345.047 515.642a20.303 20.303 0 0 1-5.198 14.579 19.132 19.132 0 0 1-14.538 5.401 19.613 19.613 0 0 1-14.863-5.645 23.189 23.189 0 0 1-5.36-16.528v-12.182a20.598 20.598 0 0 0-2.437-11.087 7.397 7.397 0 0 0-6.456-3.776 9.169 9.169 0 0 0-7.432 4.061 30.728 30.728 0 0 0-4.832 12.182 101.98 101.98 0 0 0-1.625 19.817 74.344 74.344 0 0 0 4.061 26.315 35.497 35.497 0 0 0 11.33 16.244 27.086 27.086 0 0 0 16.772 5.482 38.736 38.736 0 0 0 18.152-4.061 17.716 17.716 0 0 0 9.259-12.467 1.42 1.42 0 0 1 .406-.853.693.693 0 0 1 .69 0 .89.89 0 0 1 .528.488c.108.315.108.658 0 .974a52.339 52.339 0 0 1-8.894 22.904 45.153 45.153 0 0 1-17.624 14.619 62.665 62.665 0 0 1-51.573-.894 43.731 43.731 0 0 1-18.396-18.03 60.464 60.464 0 0 1-6.7-29.807 62.86 62.86 0 0 1 7.553-31.187 55.833 55.833 0 0 1 20.751-21.279 59.525 59.525 0 0 1 30.416-7.716 67.94 67.94 0 0 1 25.503 4.061 34.356 34.356 0 0 1 15.309 11.492 27.852 27.852 0 0 1 5.198 16.893ZM404.741 486.162v99.979a5.364 5.364 0 0 0 .853 2.924 3.643 3.643 0 0 0 2.315 1.705l11.898 2.437a2.03 2.03 0 0 1 1.015.365.811.811 0 0 1 .244.609.773.773 0 0 1-.406.732 1.745 1.745 0 0 1-1.056.243h-66.517a1.666 1.666 0 0 1-1.137-.325.841.841 0 0 1-.325-.65.967.967 0 0 1 .487-.73 2.606 2.606 0 0 1 1.178-.488l4.426-.975a3.4 3.4 0 0 0 2.315-1.38 5.352 5.352 0 0 0 .568-2.518v-88.202a3.165 3.165 0 0 0-.406-1.747 1.66 1.66 0 0 0-1.502-.69h-5.401a1.176 1.176 0 0 1-.812-.284.901.901 0 0 1-.366-.69 1.051 1.051 0 0 1 .366-.731 1.947 1.947 0 0 1 1.096-.488l46.091-10.639 1.787-.366a8.224 8.224 0 0 1 1.421 0 1.46 1.46 0 0 1 1.34.61 3 3 0 0 1 .528 1.299Zm-1.949 43.127a58.87 58.87 0 0 1 4.792-25.259 37.153 37.153 0 0 1 12.182-15.35 27.445 27.445 0 0 1 15.716-5.198 18.434 18.434 0 0 1 15.228 6.578 32.001 32.001 0 0 1 5.239 19.98 26.881 26.881 0 0 1-6.213 19.492 20.942 20.942 0 0 1-15.594 6.335 15.26 15.26 0 0 1-12.548-4.711 22.375 22.375 0 0 1-4.386-13.563l-.243-4.629a9.673 9.673 0 0 0-1.097-4.386 3.777 3.777 0 0 0-3.533-1.706 5.084 5.084 0 0 0-4.061 2.437 19.504 19.504 0 0 0-2.721 7.675 76.353 76.353 0 0 0-.974 13.523l-1.787-1.218ZM570.424 534.648a2.965 2.965 0 0 1-.812 2.071 3.415 3.415 0 0 1-2.599.854h-76.264v-2.925h33.868c1.462 0 2.193-.893 2.193-2.679 0-16.244-1.503-28.021-4.467-35.168-2.965-7.147-6.01-10.639-9.178-10.639a8.118 8.118 0 0 0-6.091 3.492 29.161 29.161 0 0 0-4.589 12.183 122.168 122.168 0 0 0-1.746 23.512c0 16.812 3.371 29.036 10.112 36.548a38.09 38.09 0 0 0 48.73 4.751 22.086 22.086 0 0 0 8.487-18.111.931.931 0 0 1 .285-.812h.447c.238.002.468.088.65.243a1.225 1.225 0 0 1 .324.975 45.638 45.638 0 0 1-7.025 24.934 49.957 49.957 0 0 1-19.046 17.421 57.328 57.328 0 0 1-27.289 6.375 59.69 59.69 0 0 1-29.36-7.066 51.848 51.848 0 0 1-20.304-19.613 56.28 56.28 0 0 1-7.31-28.873 64.067 64.067 0 0 1 7.188-31.351 48.725 48.725 0 0 1 20.304-20.304 64.967 64.967 0 0 1 31.147-7.025 54.285 54.285 0 0 1 27.573 6.7 46.572 46.572 0 0 1 17.99 18.274 53.64 53.64 0 0 1 6.782 26.233ZM576.513 570.708a26.39 26.39 0 0 1 12.182-23.065c8.122-5.55 21.834-8.339 41.137-8.366a25.212 25.212 0 0 1 8.568 1.178 22.02 22.02 0 0 1 5.807 3.208l-1.218.975a20.292 20.292 0 0 0-5.482-2.315 25.991 25.991 0 0 0-5.97-.609 9.538 9.538 0 0 0-5.075 1.567 9.533 9.533 0 0 0-3.452 4.037 36.536 36.536 0 0 0-3.168 17.299 29.154 29.154 0 0 0 3.29 15.838 9.824 9.824 0 0 0 8.405 4.873 10.392 10.392 0 0 0 5.726-1.99 14.97 14.97 0 0 0 4.63-5.076l1.705.975a32.486 32.486 0 0 1-14.335 13.604 45.118 45.118 0 0 1-20.304 4.67 35.413 35.413 0 0 1-23.229-7.554 23.799 23.799 0 0 1-9.217-19.249Zm63.593 13.036v-1.665l-2.193 2.071v-88.933a10.155 10.155 0 0 0-2.274-6.944 7.071 7.071 0 0 0-5.523-2.559 8.645 8.645 0 0 0-6.579 2.559 9.666 9.666 0 0 0-2.436 6.944v12.914a19.593 19.593 0 0 1-1.614 7.814 19.583 19.583 0 0 1-4.599 6.52 22.005 22.005 0 0 1-16.244 6.132 16.243 16.243 0 0 1-11.045-3.776 14.54 14.54 0 0 1-4.305-11.574 21.118 21.118 0 0 1 5.848-13.563 43.53 43.53 0 0 1 17.461-11.533 78.826 78.826 0 0 1 28.955-4.63c15.593 0 27.262 3.005 35.004 9.015a31.02 31.02 0 0 1 11.655 26.071v60.183a6.5 6.5 0 0 0 1.259 4.386c.382.458.86.827 1.401 1.079.54.253 1.13.384 1.726.383a5.937 5.937 0 0 0 3.574-1.381 7.68 7.68 0 0 0 2.274-5.198c-.001-.283.1-.557.284-.772a.648.648 0 0 1 .447 0 .69.69 0 0 1 .528 0v.772a15.633 15.633 0 0 1-2.884 7.431 24.978 24.978 0 0 1-9.502 8.325 36.542 36.542 0 0 1-18.071 3.736 30.407 30.407 0 0 1-18.031-4.061 11.9 11.9 0 0 1-5.116-9.746ZM751.934 484.618v102.578a6.007 6.007 0 0 0 .65 3.087 3.252 3.252 0 0 0 2.274 1.543l4.629 1.096c.975.244 1.462.609 1.462 1.096 0 .488-.406.813-1.218.975h-59.573c-.303.007-.6-.078-.853-.243a.821.821 0 0 1-.366-.732 1.02 1.02 0 0 1 .285-.69 2.61 2.61 0 0 1 1.177-.406l4.629-1.096a3.088 3.088 0 0 0 2.315-1.543 6.498 6.498 0 0 0 .61-3.087v-86.74a1.985 1.985 0 0 0-.488-1.462 2.191 2.191 0 0 0-1.583-.487h-4.752a1.709 1.709 0 0 1-1.178-.285 1.103 1.103 0 0 1-.284-.812.808.808 0 0 1 .366-.731c.261-.17.55-.293.853-.365l46.172-12.792 1.99-.487a6.001 6.001 0 0 1 1.299 0 1.576 1.576 0 0 1 1.259.487c.226.32.34.705.325 1.096Zm-4.061 27.655-1.706-1.827 4.874-4.264a111.869 111.869 0 0 1 25.136-17.34 49.292 49.292 0 0 1 20.549-5.442 25.374 25.374 0 0 1 18.396 6.822c4.71 4.549 7.065 11.939 7.065 22.173v74.801a6.007 6.007 0 0 0 .65 3.087 3.244 3.244 0 0 0 2.274 1.543l4.63 1.096c.974.244 1.461.609 1.461 1.096 0 .488-.406.813-1.218.975h-59.695c-.812 0-1.218-.325-1.218-.975 0-.649.487-1.014 1.462-1.096l4.629-1.096a3.084 3.084 0 0 0 2.315-1.543 6.497 6.497 0 0 0 .609-3.087v-70.091a16.975 16.975 0 0 0-2.883-10.964 10.525 10.525 0 0 0-8.569-3.411 19.562 19.562 0 0 0-7.309 1.462 24.782 24.782 0 0 0-6.823 4.06l-4.629 4.021Zm70.05 0-1.705-1.827 4.873-4.264a111.852 111.852 0 0 1 25.137-17.34 49.288 49.288 0 0 1 20.548-5.442 25.374 25.374 0 0 1 18.396 6.822c4.71 4.549 7.066 11.939 7.066 22.173v74.801a6.016 6.016 0 0 0 .649 3.087 3.244 3.244 0 0 0 2.274 1.543l4.63 1.096c.407.036.798.176 1.137.406a1.1 1.1 0 0 1 .325.69.898.898 0 0 1-.325.732 1.386 1.386 0 0 1-.894.243h-59.695c-.812 0-1.218-.325-1.218-.975 0-.649.487-1.014 1.462-1.096l4.629-1.096a3.088 3.088 0 0 0 2.315-1.543 6.497 6.497 0 0 0 .609-3.087v-70.091a16.975 16.975 0 0 0-2.883-10.964 10.521 10.521 0 0 0-8.568-3.411c-2.508.014-4.99.511-7.31 1.462a24.777 24.777 0 0 0-6.822 4.06l-4.63 4.021Z" fill="#3C4043"/></svg>