<svg width="1920" height="1080" fill="none" xmlns="http://www.w3.org/2000/svg"><g clip-path="url(#a)" fill="#3C4043"><path d="M240.719 581.609c0 17.579 5.403 30.86 16.211 39.844 10.937 8.985 25.781 13.477 44.531 13.477 19.792 0 36.068-4.102 48.828-12.305 12.891-8.203 21.354-18.099 25.391-29.687a121.917 121.917 0 0 0 2.734 21.679c1.693 7.162 3.581 12.956 5.664 17.383h6.445v-1.367c-2.213-4.818-4.166-11.263-5.859-19.336-1.693-8.203-2.539-16.927-2.539-26.172v-84.57c0-20.313-5.404-35.222-16.211-44.727-10.807-9.635-26.758-14.453-47.852-14.453-21.223 0-37.89 4.818-50 14.453-12.109 9.505-18.164 21.094-18.164 34.766v8.398h6.446v-8.203c0-11.979 5.143-22.2 15.429-30.664 10.287-8.464 25.651-12.695 46.094-12.695 20.052 0 34.636 4.492 43.75 13.476 9.245 8.854 13.867 22.591 13.867 41.211v23.047h-59.765c-23.959 0-42.448 4.948-55.469 14.844-13.021 9.896-19.531 23.763-19.531 41.601Zm6.64 0c0-16.015 5.795-28.45 17.383-37.304 11.719-8.985 28.776-13.477 51.172-13.477h59.57v43.36c0 15.364-6.966 28.32-20.898 38.867-13.802 10.547-30.99 15.82-51.563 15.82-18.099 0-31.901-4.036-41.406-12.109-9.505-8.073-14.258-19.792-14.258-35.157ZM576.82 396.266c0 18.75 4.102 32.617 12.305 41.601 8.203 8.985 19.336 13.477 33.398 13.477 12.11 0 22.071-2.604 29.883-7.813 7.943-5.338 13.542-11.719 16.797-19.14a99.383 99.383 0 0 0 2.149 13.671c1.171 4.428 2.539 8.073 4.101 10.938h16.992v-2.539c-1.953-4.427-3.45-9.831-4.492-16.211-1.042-6.38-1.562-13.607-1.562-21.68v-98.632c0-17.839-4.297-30.73-12.891-38.672-8.594-8.073-20.833-12.11-36.719-12.11-16.146 0-28.906 4.232-38.281 12.696-9.245 8.333-13.867 19.01-13.867 32.031v11.914h17.969v-11.914c0-8.334 2.799-15.169 8.398-20.508 5.599-5.339 14.062-8.008 25.391-8.008 11.328 0 19.466 2.995 24.414 8.985 5.078 5.859 7.617 14.388 7.617 25.586v28.32h-33.399c-17.838 0-32.031 4.883-42.578 14.648-10.416 9.636-15.625 24.089-15.625 43.36Zm17.969.195c0-14.714 3.516-25.586 10.547-32.617 7.031-7.032 17.708-10.547 32.031-10.547h31.055v44.336c0 10.807-4.167 19.857-12.5 27.148-8.333 7.162-18.099 10.742-29.297 10.742-10.547 0-18.49-2.994-23.828-8.984-5.339-5.99-8.008-16.016-8.008-30.078ZM545.883 771.484c0 18.23 6.25 32.292 18.75 42.188 12.5 9.766 30.273 14.648 53.32 14.648 21.354 0 38.932-3.776 52.735-11.328 13.802-7.682 23.177-16.666 28.124-26.953.391 7.813 1.303 14.714 2.735 20.703 1.562 5.86 3.32 10.612 5.273 14.258h18.75v-2.539c-2.474-5.208-4.362-11.719-5.664-19.531-1.302-7.813-1.953-16.081-1.953-24.805v-82.617c0-21.745-6.51-37.435-19.531-47.07-13.021-9.766-32.552-14.649-58.594-14.649-25.651 0-45.508 5.013-59.57 15.039-13.932 9.896-20.899 22.526-20.899 37.891v6.64H578.5v-5.468c0-11.459 5.013-20.508 15.039-27.149 10.156-6.771 25.391-10.156 45.703-10.156 21.354 0 36.524 3.581 45.508 10.742 9.115 7.162 13.672 18.164 13.672 33.008v19.922l-70.313-.196c-26.562-.13-46.94 4.883-61.132 15.04-14.063 10.026-21.094 24.153-21.094 42.382Zm19.336-.39c0-13.542 5.403-23.828 16.211-30.86 10.937-7.161 27.604-10.742 50-10.742l66.992.196v28.71c0 14.844-7.813 27.54-23.438 38.086-15.494 10.417-33.593 15.625-54.296 15.625-18.881 0-32.878-3.515-41.993-10.547-8.984-7.161-13.476-17.317-13.476-30.468ZM873.367 578.484c0 18.36 5.729 32.357 17.188 41.993 11.458 9.635 26.562 14.453 45.312 14.453 16.016 0 29.232-3.06 39.649-9.18 10.546-6.25 18.033-13.346 22.461-21.289a98.166 98.166 0 0 0 2.733 15.234c1.3 4.948 2.93 9.05 4.88 12.305h37.11v-3.125c-2.6-5.339-4.49-11.654-5.66-18.945-1.17-7.422-1.76-15.235-1.76-23.438V503.68c0-22.006-6.38-37.891-19.14-47.657-12.63-9.895-30.729-14.843-54.296-14.843-23.959 0-42.904 5.208-56.836 15.625-13.802 10.416-20.703 23.307-20.703 38.672v5.078l36.914.195v-3.711c0-8.854 3.255-15.82 9.765-20.898 6.511-5.209 16.211-7.813 29.102-7.813 13.151 0 22.526 2.995 28.125 8.984 5.729 5.99 8.594 14.519 8.594 25.586v15.43h-43.946c-23.828 0-43.033 5.404-57.617 16.211-14.583 10.677-21.875 25.326-21.875 43.945Zm38.281-2.148c0-10.807 4.037-19.076 12.11-24.805 8.203-5.859 20.768-8.789 37.695-8.789h35.352v23.633c0 10.547-5.078 20.117-15.235 28.711-10.026 8.594-21.354 12.891-33.984 12.891-11.719 0-20.638-2.67-26.758-8.008-6.12-5.469-9.18-13.347-9.18-23.633ZM847.195 931.336c0 18.359 6.706 32.747 20.117 43.164 13.542 10.286 33.139 15.43 58.79 15.43 23.177 0 42.057-3.321 56.64-9.961 14.714-6.771 24.938-14.584 30.668-23.438.65 7.162 1.62 13.216 2.93 18.164 1.43 4.948 3.12 9.05 5.07 12.305h38.48v-3.125c-2.6-5.208-4.56-11.523-5.86-18.945-1.3-7.422-1.95-15.235-1.95-23.438v-81.25c0-23.047-7.62-39.713-22.85-50-15.24-10.416-38.675-15.625-70.316-15.625-30.469 0-53.971 5.404-70.508 16.211-16.406 10.677-24.609 24.219-24.609 40.625v6.25h37.109v-4.883c0-9.375 4.492-16.731 13.477-22.07 8.984-5.469 23.112-8.203 42.383-8.203 20.963 0 35.546 2.864 43.754 8.594 8.33 5.599 12.5 13.932 12.5 25v18.164l-77.739-.782c-29.557-.13-51.627 4.818-66.211 14.844-14.583 10.026-21.875 24.349-21.875 42.969Zm38.867-1.758c0-11.068 4.623-19.075 13.868-24.023 9.244-5.078 24.153-7.617 44.726-7.617l68.554.39v17.383c0 13.932-7.94 25.456-23.827 34.57-15.755 8.985-33.334 13.477-52.735 13.477-17.968 0-30.924-2.995-38.867-8.985-7.812-5.989-11.719-14.388-11.719-25.195ZM907.547 224.312c0 19.922 3.255 34.376 9.765 43.36 6.641 8.984 15.43 13.476 26.368 13.476 7.291 0 13.346-1.497 18.164-4.492 4.948-3.125 8.724-7.161 11.328-12.109.26 2.604.781 5.273 1.562 8.008.782 2.604 1.628 4.752 2.539 6.445h32.817v-2.93c-1.57-3.776-2.74-8.138-3.52-13.086-.65-4.948-.98-10.807-.98-17.578V137.008c0-17.057-4.03-29.232-12.106-36.524-7.942-7.421-18.945-11.132-33.007-11.132-14.193 0-25.521 3.906-33.985 11.718-8.333 7.683-12.5 18.295-12.5 31.836v14.649h32.813v-16.797c0-4.297.976-7.813 2.929-10.547 1.954-2.865 5.144-4.297 9.571-4.297s7.552 1.693 9.375 5.078c1.953 3.255 2.929 7.813 2.929 13.672v31.055h-15.234c-15.625 0-27.669 4.557-36.133 13.672-8.463 9.114-12.695 24.088-12.695 44.921Zm33.984-.195c0-13.932 1.498-23.177 4.492-27.734 2.995-4.557 7.618-6.836 13.868-6.836h11.914v45.508c0 6.64-1.628 11.718-4.883 15.234s-7.227 5.273-11.914 5.273c-4.688 0-8.138-1.822-10.352-5.468-2.083-3.776-3.125-12.435-3.125-25.977ZM1446.45 577.508c0 19.271 6.05 33.659 18.16 43.164 12.24 9.505 28.78 14.258 49.61 14.258 17.06 0 31.38-2.604 42.97-7.813 11.59-5.338 19.46-11.198 23.63-17.578.52 4.297 1.24 8.399 2.15 12.305.91 3.776 2.34 7.161 4.3 10.156h97.07v-2.539c-2.87-4.557-5.02-9.961-6.45-16.211-1.43-6.38-2.15-13.151-2.15-20.312v-81.446c0-24.739-8.59-42.773-25.78-54.101-17.06-11.459-43.23-17.188-78.51-17.188-34.12 0-61.27 5.729-81.45 17.188-20.18 11.458-30.27 27.343-30.27 47.656v3.515l89.06.391v-3.906c0-4.297 1.24-7.682 3.71-10.156 2.47-2.474 6.25-3.711 11.33-3.711 5.34 0 9.05 1.432 11.13 4.297 2.21 2.864 3.32 6.901 3.32 12.109v6.641h-44.73c-26.04 0-47.07 5.599-63.08 16.796-16.02 11.068-24.02 26.563-24.02 46.485Zm96.28-8.203c0-5.209 1.7-9.115 5.08-11.719 3.39-2.734 8.73-4.102 16.02-4.102h14.45v9.766c0 6.12-1.95 11.263-5.86 15.43-3.77 4.166-8.53 6.25-14.26 6.25-5.2 0-9.11-1.368-11.71-4.102-2.48-2.734-3.72-6.575-3.72-11.523ZM1184.71 394.703c0 19.271 5.01 33.594 15.04 42.969 10.16 9.375 23.31 14.062 39.45 14.062 12.76 0 23.44-2.278 32.03-6.836 8.6-4.557 14.65-9.83 18.17-15.82a80.47 80.47 0 0 0 1.95 10.938c1.04 3.515 2.22 6.51 3.52 8.984h56.44v-2.93c-2.08-4.166-3.64-9.179-4.69-15.039-1.04-5.859-1.56-12.304-1.56-19.336v-92.773c0-21.484-6.38-36.979-19.14-46.484-12.76-9.506-30.92-14.258-54.49-14.258s-42.38 4.948-56.45 14.843c-13.93 9.896-20.83 23.047-20.7 39.454v8.007l53.52.196v-8.594c0-5.469 1.62-9.766 4.88-12.891 3.39-3.255 8.59-4.883 15.62-4.883 7.04 0 12.05 1.889 15.04 5.665 3 3.776 4.5 9.049 4.5 15.82v18.359h-30.67c-22.78 0-40.56 5.209-53.32 15.625-12.76 10.287-19.14 25.261-19.14 44.922Zm56.64-3.711c0-10.026 2.22-16.732 6.64-20.117 4.56-3.385 11.53-5.078 20.9-5.078h18.95v25c0 7.161-2.67 13.216-8.01 18.164-5.21 4.948-11.33 7.422-18.36 7.422-6.64 0-11.65-1.823-15.04-5.469-3.39-3.776-5.08-10.417-5.08-19.922ZM1160.63 769.727c0 18.619 6.51 33.007 19.53 43.164 13.02 10.026 31.38 15.039 55.08 15.039 20.97 0 38.15-3.06 51.56-9.18 13.55-6.12 22.92-13.151 28.13-21.094.52 5.99 1.37 11.263 2.54 15.821 1.3 4.427 2.93 8.268 4.88 11.523h60.74v-2.93c-2.73-4.948-4.81-10.872-6.25-17.773-1.3-7.031-1.95-14.453-1.95-22.266v-81.445c0-23.568-8.01-40.755-24.02-51.563-15.89-10.937-40.37-16.406-73.44-16.406-31.9 0-56.84 5.534-74.81 16.602-17.83 11.067-26.75 25.586-26.75 43.554v4.883l56.64.196v-4.297c0-7.422 3.32-13.216 9.96-17.383 6.64-4.297 16.93-6.445 30.86-6.445 14.97 0 25.45 2.343 31.44 7.031 6.12 4.557 9.18 11.198 9.18 19.922v14.258l-65.62-.391c-28.39-.13-50.13 4.948-65.24 15.234-14.97 10.287-22.46 24.935-22.46 43.946Zm60.55-4.297c0-8.724 3.52-14.844 10.55-18.36 7.16-3.515 18.42-5.273 33.79-5.273l48.43.195v12.696c0 10.937-5.66 19.986-16.99 27.148-11.33 7.161-24.09 10.742-38.28 10.742-13.15 0-22.72-2.344-28.71-7.031-5.86-4.688-8.79-11.393-8.79-20.117Z"/></g><defs><clipPath id="a"><path fill="#fff" d="M0 0h1920v1080H0z"/></clipPath></defs></svg>