<svg width="760" height="506" viewBox="0 0 760 506" fill="none" xmlns="http://www.w3.org/2000/svg">
<g clip-path="url(#clip0_21_748)">
<rect width="760" height="506" fill="#2FBA78"/>
<rect width="760" height="506" fill="#2FBA78"/>
<rect width="63.6404" height="6" fill="#0B322C"/>
<rect x="63.3047" width="63.6404" height="6" fill="#0B322C"/>
<rect x="126.611" width="63.6404" height="6" fill="#FE7B3F"/>
<rect x="189.916" width="63.6404" height="6" fill="#2FBA78"/>
<rect x="253.223" width="63.6404" height="6" fill="#2FBA78"/>
<rect x="316.527" width="63.6404" height="6" fill="#2FBA78"/>
<rect x="379.832" width="63.6404" height="6" fill="#2FBA78"/>
<rect x="443.139" width="63.6404" height="6" fill="#2FBA78"/>
<rect x="506.443" width="63.6404" height="6" fill="#EFEFEF"/>
<rect x="569.748" width="63.6404" height="6" fill="#2453FF"/>
<rect x="633.055" width="63.6404" height="6" fill="#2453FF"/>
<rect x="696.359" width="63.6404" height="6" fill="#2453FF"/>
<path d="M-120.287 63.0754V48.7257H-82.3842V63.0754H-93.3692V103.65H-82.3842V118H-120.287V103.65H-109.302V63.0754H-120.287ZM-74.0613 118V69.2111H-59.7116V74.0603C-55.7531 69.2111 -50.2111 68.2215 -46.3515 68.2215C-35.4656 68.2215 -28.4392 75.9406 -28.4392 88.6079V118H-43.2837V91.082C-43.2837 84.5504 -46.1536 81.6805 -50.7059 81.6805C-55.6541 81.6805 -59.2168 85.1442 -59.2168 91.4778V118H-74.0613ZM-17.428 118V69.2111H-3.07829V74.0603C0.880239 69.2111 6.42219 68.2215 10.2818 68.2215C21.1677 68.2215 28.1941 75.9406 28.1941 88.6079V118H13.3496V91.082C13.3496 84.5504 10.4797 81.6805 5.92737 81.6805C0.979203 81.6805 -2.58348 85.1442 -2.58348 91.4778V118H-17.428ZM62.3627 118.99C47.7162 118.99 36.4344 108.697 36.4344 94.0509V93.0612C36.4344 78.5136 47.7162 68.2215 62.3627 68.2215C76.9103 68.2215 88.1922 78.5136 88.1922 93.0612V94.0509C88.1922 108.697 76.9103 118.99 62.3627 118.99ZM62.3627 106.025C68.8943 106.025 73.3477 101.077 73.3477 94.0509V93.0612C73.3477 86.1338 68.8943 81.1856 62.3627 81.1856C55.8312 81.1856 51.2789 86.1338 51.2789 93.0612V94.0509C51.2789 101.077 55.8312 106.025 62.3627 106.025ZM108.112 118L89.9031 69.2111H105.341L115.93 100.088L126.421 69.2111H141.859L123.749 118H108.112ZM174.974 118V112.755C172.599 116.812 168.245 118.99 161.614 118.99C150.827 118.99 143.702 113.052 143.702 104.541C143.702 95.6343 150.827 89.4986 163.792 89.4986C167.552 89.4986 170.719 90.0923 173.193 91.082V87.6183C173.193 82.7691 169.729 80.9877 165.375 80.9877C160.823 80.9877 155.281 82.868 151.52 85.9359L144.989 76.1385C149.343 71.4872 157.656 68.2215 166.365 68.2215C178.933 68.2215 187.84 74.852 187.84 86.7276V102.661C187.84 107.807 187.84 112.854 188.137 118H174.974ZM165.87 108.302C170.224 108.302 173.292 106.421 173.292 103.65C173.292 100.978 170.224 99.098 165.87 99.098C161.614 99.098 158.547 100.978 158.547 103.65C158.547 106.421 161.614 108.302 165.87 108.302ZM218.96 118C211.636 118 202.334 115.526 202.334 102.364V81.6805H194.714V69.2111H202.334V57.4344H217.178V69.2111H227.174V81.6805H217.178V103.551C217.178 104.64 218.069 105.531 219.158 105.531H227.174V118H218.96ZM241.008 118V81.6805H232.794V69.2111H255.852V118H241.008ZM240.315 60.4034V45.7568H256.743V60.4034H240.315ZM290.442 118.99C275.796 118.99 264.514 108.697 264.514 94.0509V93.0612C264.514 78.5136 275.796 68.2215 290.442 68.2215C304.99 68.2215 316.272 78.5136 316.272 93.0612V94.0509C316.272 108.697 304.99 118.99 290.442 118.99ZM290.442 106.025C296.974 106.025 301.427 101.077 301.427 94.0509V93.0612C301.427 86.1338 296.974 81.1856 290.442 81.1856C283.911 81.1856 279.358 86.1338 279.358 93.0612V94.0509C279.358 101.077 283.911 106.025 290.442 106.025ZM324.981 118V69.2111H339.331V74.0603C343.289 69.2111 348.831 68.2215 352.691 68.2215C363.577 68.2215 370.603 75.9406 370.603 88.6079V118H355.759V91.082C355.759 84.5504 352.889 81.6805 348.337 81.6805C343.388 81.6805 339.826 85.1442 339.826 91.4778V118H324.981ZM415.456 118C408.43 118 403.383 112.953 403.383 105.926V48.7257H419.217V101.176C419.217 102.265 420.107 103.156 421.196 103.156H449.302V118H415.456ZM457.49 118V81.6805H449.276V69.2111H472.334V118H457.49ZM456.797 60.4034V45.7568H473.225V60.4034H456.797ZM483.767 118V69.2111H498.117V74.0603C502.075 69.2111 507.617 68.2215 511.477 68.2215C522.363 68.2215 529.389 75.9406 529.389 88.6079V118H514.545V91.082C514.545 84.5504 511.675 81.6805 507.122 81.6805C502.174 81.6805 498.612 85.1442 498.612 91.4778V118H483.767ZM558.709 118.99C547.922 118.99 539.906 112.26 539.906 99.5928V69.2111H554.75V96.6239C554.75 103.156 557.719 105.531 562.172 105.531C567.022 105.531 570.287 102.562 570.287 96.2281V69.2111H585.132V118H572.366V113.25C568.308 118 562.568 118.99 558.709 118.99ZM591.204 118L607.236 93.655L591.699 69.2111H609.018L617.231 84.1545L625.346 69.2111H642.368L626.831 93.5561L642.566 118H625.149L616.638 103.254L608.325 118H591.204ZM670.897 118V48.7257H692.175L706.227 82.4722L720.181 48.7257H741.458V118H726.02V70.2007L711.967 105.135H700.388L686.336 70.2007V118H670.897ZM781.318 118V112.755C778.943 116.812 774.589 118.99 767.958 118.99C757.171 118.99 750.046 113.052 750.046 104.541C750.046 95.6343 757.171 89.4986 770.135 89.4986C773.896 89.4986 777.063 90.0923 779.537 91.082V87.6183C779.537 82.7691 776.073 80.9877 771.719 80.9877C767.166 80.9877 761.624 82.868 757.864 85.9359L751.332 76.1385C755.687 71.4872 763.999 68.2215 772.708 68.2215C785.277 68.2215 794.183 74.852 794.183 86.7276V102.661C794.183 107.807 794.183 112.854 794.48 118H781.318ZM772.213 108.302C776.568 108.302 779.636 106.421 779.636 103.65C779.636 100.978 776.568 99.098 772.213 99.098C767.958 99.098 764.89 100.978 764.89 103.65C764.89 106.421 767.958 108.302 772.213 108.302ZM805.301 118V69.2111H819.651V74.0603C823.609 69.2111 829.151 68.2215 833.011 68.2215C843.897 68.2215 850.923 75.9406 850.923 88.6079V118H836.079V91.082C836.079 84.5504 833.209 81.6805 828.656 81.6805C823.708 81.6805 820.146 85.1442 820.146 91.4778V118H805.301ZM890.139 118V112.755C887.764 116.812 883.409 118.99 876.779 118.99C865.992 118.99 858.867 113.052 858.867 104.541C858.867 95.6343 865.992 89.4986 878.956 89.4986C882.717 89.4986 885.884 90.0923 888.358 91.082V87.6183C888.358 82.7691 884.894 80.9877 880.54 80.9877C875.987 80.9877 870.445 82.868 866.685 85.9359L860.153 76.1385C864.507 71.4872 872.82 68.2215 881.529 68.2215C894.098 68.2215 903.004 74.852 903.004 86.7276V102.661C903.004 107.807 903.004 112.854 903.301 118H890.139ZM881.034 108.302C885.389 108.302 888.457 106.421 888.457 103.65C888.457 100.978 885.389 99.098 881.034 99.098C876.779 99.098 873.711 100.978 873.711 103.65C873.711 106.421 876.779 108.302 881.034 108.302ZM-4.93929 232.287C-14.4398 232.287 -22.8517 228.031 -27.6019 221.104L-18.8931 214.176C-14.8356 219.718 -9.09575 222.291 -4.14759 222.291C2.87881 222.291 7.62905 218.135 7.62905 211.999C7.62905 198.639 -17.1118 202.301 -17.1118 182.112C-17.1118 169.247 -7.31441 160.439 6.63941 160.439C15.6451 160.439 23.0673 164.398 27.0259 169.94L18.3171 176.867C14.9523 172.612 10.7959 170.434 6.1446 170.434C-0.782834 170.434 -5.43411 174.492 -5.43411 180.43C-5.43411 193.493 19.7026 189.336 19.7026 210.02C19.7026 223.182 9.60831 232.287 -4.93929 232.287ZM45.474 231.99C36.1715 231.99 27.0668 225.854 27.0668 211.306C27.0668 196.462 39.1404 181.914 55.3704 181.914C63.9802 181.914 69.6211 186.467 69.6211 193.493C69.6211 206.952 57.2507 212.098 38.1507 212.593C38.5466 220.213 42.802 222.588 47.5523 222.588C51.9066 222.588 55.2714 221.005 58.5372 218.531L63.9802 226.151C59.3289 230.01 52.9952 231.99 45.474 231.99ZM39.1404 204.676C52.2035 204.181 58.5372 200.717 58.5372 195.274C58.5372 192.503 56.36 190.623 53.0942 190.623C46.3647 190.623 41.2186 197.352 39.1404 204.676ZM93.9251 231.99C84.1277 231.99 74.5283 226.25 74.5283 211.504C74.5283 194.977 85.909 181.914 100.951 181.914C107.978 181.914 113.916 185.081 116.885 190.326L108.77 196.858C106.691 193.592 103.821 192.008 100.457 192.008C91.9458 192.008 85.6121 199.728 85.6121 209.921C85.6121 218.828 90.5603 221.796 95.4095 221.796C98.6753 221.796 102.04 220.51 105.702 217.442L111.442 225.26C106.889 229.318 100.754 231.99 93.9251 231.99ZM135.281 231.99C123.801 231.99 118.556 223.479 121.525 211.405L128.551 182.904H139.734L132.807 211.108C131.223 217.541 133.994 221.895 140.13 221.895C145.276 221.895 149.037 218.432 150.62 212.989L158.141 182.904H169.225L160.615 218.234C160.022 220.609 161.209 221.697 163.584 221.697H167.642L165.267 231H160.121C153.787 231 150.323 228.922 149.334 224.765C145.276 230.406 139.635 231.99 135.281 231.99ZM173.519 231L185.394 182.904H196.082L194.4 189.534C197.765 184.19 202.218 182.508 207.76 182.508H211.026L208.354 193.493H204.197C196.775 193.493 192.816 197.451 190.936 204.874L184.603 231H173.519ZM223.666 231C215.848 231 212.186 226.25 214.067 218.63L220.598 192.305H211.889L214.165 182.904H233.958L225.249 218.234C224.656 220.609 225.546 221.697 227.822 221.697H231.88L229.505 231H223.666ZM224.656 173.106L227.723 160.241H239.995L236.927 173.106H224.656ZM254.926 231C245.92 231 241.17 224.963 243.248 216.353L249.186 192.305H241.962L244.238 182.904H251.462L254.332 171.127H265.317L262.447 182.904H272.739L270.463 192.305H260.171L253.936 217.838C253.343 220.015 254.629 221.598 256.707 221.598H263.239L260.963 231H254.926ZM268.462 250.793L270.738 241.49H292.906C295.676 241.49 297.557 240.006 298.151 237.631L301.119 225.854C297.359 229.516 293.301 230.604 289.046 230.604C277.863 230.604 272.123 222.489 275.191 210.218L281.921 182.904H293.004L286.374 209.921C284.791 216.452 287.66 220.51 293.499 220.51C299.041 220.51 303 216.65 304.484 210.515L311.313 182.904H322.397L308.938 237.532C306.859 246.042 300.328 250.793 290.926 250.793H268.462ZM356.496 231L370.845 172.414H351.943L354.615 161.726H404.394L401.722 172.414H382.721L368.272 231H356.496ZM407.985 231.99C398.683 231.99 389.578 225.854 389.578 211.306C389.578 196.462 401.651 181.914 417.881 181.914C426.491 181.914 432.132 186.467 432.132 193.493C432.132 206.952 419.762 212.098 400.662 212.593C401.058 220.213 405.313 222.588 410.063 222.588C414.418 222.588 417.782 221.005 421.048 218.531L426.491 226.151C421.84 230.01 415.506 231.99 407.985 231.99ZM401.651 204.676C414.715 204.181 421.048 200.717 421.048 195.274C421.048 192.503 418.871 190.623 415.605 190.623C408.876 190.623 403.73 197.352 401.651 204.676ZM456.436 231.99C446.639 231.99 437.039 226.25 437.039 211.504C437.039 194.977 448.42 181.914 463.463 181.914C470.489 181.914 476.427 185.081 479.396 190.326L471.281 196.858C469.202 193.592 466.332 192.008 462.968 192.008C454.457 192.008 448.123 199.728 448.123 209.921C448.123 218.828 453.071 221.796 457.921 221.796C461.186 221.796 464.551 220.51 468.213 217.442L473.953 225.26C469.4 229.318 463.265 231.99 456.436 231.99ZM480.073 231L497.787 158.757H508.475L501.35 187.654C505.408 183.201 510.158 181.914 514.71 181.914C525.596 181.914 531.039 189.93 527.674 203.587L524.112 218.333C523.617 220.312 524.409 221.697 526.982 221.697H531.138L528.763 231H522.924C514.71 231 510.95 226.25 512.83 218.729L516.491 203.389C518.273 196.264 515.601 192.008 509.465 192.008C503.428 192.008 499.767 196.165 497.985 203.389L491.256 231H480.073ZM535.16 231L547.036 182.904H557.625L556.437 187.654C560.495 183.201 565.245 181.914 569.797 181.914C580.683 181.914 586.126 189.93 582.761 203.587L579.199 218.333C578.704 220.312 579.495 221.697 582.069 221.697H586.225L583.85 231H578.011C569.797 231 566.036 226.25 567.917 218.729L571.578 203.389C573.36 196.264 570.688 192.008 564.354 192.008C558.515 192.008 554.854 196.165 553.072 203.389L546.343 231H535.16ZM612.523 231.99C601.043 231.99 592.829 224.172 592.829 211.009C592.829 194.384 604.21 181.914 619.252 181.914C630.534 181.914 638.55 189.831 638.55 201.707C638.55 221.994 624.992 231.99 612.523 231.99ZM613.315 221.895C620.836 221.895 627.466 214.374 627.466 202.301C627.466 195.868 623.904 192.008 618.461 192.008C610.346 192.008 603.913 200.024 603.913 210.317C603.913 218.036 607.872 221.895 613.315 221.895ZM655.686 231C647.868 231 643.91 226.25 645.889 218.333L658.16 168.158H650.144L652.421 158.757H671.619L657.072 217.937C656.379 220.51 657.369 221.697 659.843 221.697H664.89L662.515 231H655.686ZM691.964 231.99C680.484 231.99 672.271 224.172 672.271 211.009C672.271 194.384 683.651 181.914 698.694 181.914C709.976 181.914 717.992 189.831 717.992 201.707C717.992 221.994 704.434 231.99 691.964 231.99ZM692.756 221.895C700.277 221.895 706.908 214.374 706.908 202.301C706.908 195.868 703.345 192.008 697.902 192.008C689.787 192.008 683.354 200.024 683.354 210.317C683.354 218.036 687.313 221.895 692.756 221.895ZM721.669 250.793L724.044 241.49H747.399C749.873 241.49 751.655 240.006 752.248 237.631L755.019 226.25C751.16 229.812 746.607 231.99 741.362 231.99C733.148 231.99 725.033 226.25 725.033 212.593C725.033 195.868 736.117 181.914 749.082 181.914C756.009 181.914 760.561 184.982 762.837 190.227L764.619 182.904H775.703L762.343 237.532C760.165 246.141 753.931 250.793 744.727 250.793H721.669ZM745.618 222.093C754.03 222.093 759.671 212.593 759.671 203.092C759.671 196.165 756.9 191.712 750.467 191.712C742.253 191.712 735.919 200.816 735.919 210.218C735.919 219.619 740.571 222.093 745.618 222.093ZM774.585 250.793L776.862 241.49H799.029C801.8 241.49 803.681 240.006 804.274 237.631L807.243 225.854C803.483 229.516 799.425 230.604 795.17 230.604C783.987 230.604 778.247 222.489 781.315 210.218L788.044 182.904H799.128L792.498 209.921C790.914 216.452 793.784 220.51 799.623 220.51C805.165 220.51 809.124 216.65 810.608 210.515L817.437 182.904H828.52L815.061 237.532C812.983 246.042 806.452 250.793 797.05 250.793H774.585ZM-20.7723 345.188C-40.1691 345.188 -54.2219 330.64 -54.2219 309.561V308.67C-54.2219 287.789 -40.1691 273.538 -20.7723 273.538C-1.37547 273.538 12.6773 287.789 12.6773 308.67V309.561C12.6773 330.64 -1.37547 345.188 -20.7723 345.188ZM-20.7723 336.974C-6.32363 336.974 4.06752 326.088 4.06752 309.561V308.67C4.06752 292.44 -6.32363 281.752 -20.7723 281.752C-35.3199 281.752 -45.6121 292.44 -45.6121 308.67V309.561C-45.6121 326.088 -35.3199 336.974 -20.7723 336.974ZM24.3132 363.793V296.399H31.8345V304.613C35.5951 298.873 41.6318 295.409 48.8561 295.409C61.7214 295.409 71.2219 305.305 71.2219 319.556V320.447C71.2219 335.093 61.8203 344.99 48.8561 344.99C41.8297 344.99 36.0899 341.823 32.3293 336.281V363.793H24.3132ZM47.6686 337.864C56.5753 337.864 63.2058 331.036 63.2058 320.447V319.556C63.2058 309.264 56.5753 302.534 47.6686 302.534C38.564 302.534 31.8345 309.561 31.8345 320.249C31.8345 330.937 38.564 337.864 47.6686 337.864ZM103.563 344.99C89.411 344.99 79.7126 334.994 79.7126 320.447V319.457C79.7126 305.701 88.6193 295.409 101.979 295.409C115.636 295.409 124.048 306.097 122.168 322.624H87.7286C88.3224 330.937 94.3592 337.666 103.86 337.666C108.808 337.666 112.667 336.578 115.636 333.906L120.189 338.854C116.527 342.812 110.49 344.99 103.563 344.99ZM87.8276 316.092H114.548C114.449 307.384 109.303 302.336 101.979 302.336C93.9633 302.336 88.9162 307.68 87.8276 316.092ZM133.617 344V296.399H141.337V303.92C145.196 297.388 152.025 295.409 157.072 295.409C167.661 295.409 175.083 302.336 175.083 315.993V344H167.067V317.181C167.067 306.988 162.02 302.732 154.994 302.732C147.67 302.732 141.633 307.779 141.633 317.28V344H133.617ZM230.693 345.188C220.994 345.188 213.671 341.526 208.624 335.39L213.968 330.046C218.817 335.489 224.359 337.963 230.99 337.963C240.292 337.963 245.933 332.916 245.933 325.494C245.933 306.988 210.108 317.577 210.108 293.628C210.108 281.356 219.213 273.538 233.167 273.538C241.48 273.538 248.308 276.507 252.564 281.257L247.121 286.7C243.261 282.742 238.808 280.762 233.167 280.762C224.26 280.762 218.52 285.612 218.52 292.836C218.52 310.451 254.642 299.17 254.642 324.306C254.642 337.073 244.844 345.188 230.693 345.188ZM286.505 344.99C272.947 344.99 262.853 334.895 262.853 320.447V319.556C262.853 305.404 272.947 295.409 286.505 295.409C300.162 295.409 310.157 305.404 310.157 319.358V320.447C310.157 334.895 300.162 344.99 286.505 344.99ZM286.505 337.864C295.807 337.864 302.141 330.739 302.141 320.447V319.358C302.141 309.462 295.807 302.534 286.505 302.534C277.301 302.534 270.77 309.561 270.77 319.556V320.447C270.77 330.739 277.301 337.864 286.505 337.864ZM339.594 344.99C329.005 344.99 321.187 339.052 321.187 325.395V296.399H329.203V324.009C329.203 334.203 334.25 337.666 341.177 337.666C348.303 337.666 354.34 333.015 354.34 323.317V296.399H362.257V344H355.131V336.776C351.173 343.109 344.542 344.99 339.594 344.99ZM377.063 344V296.399H384.783V304.118C387.158 297.982 392.106 296.201 397.945 296.201H402.002V304.118H397.351C389.632 304.118 385.079 307.878 385.079 315.795V344H377.063ZM430.134 344.99C415.982 344.99 405.789 334.994 405.789 320.744V319.556C405.789 305.305 416.081 295.409 430.134 295.409C437.061 295.409 442.999 298.081 446.958 302.732L442.01 307.68C439.041 304.514 434.983 302.831 430.134 302.831C420.633 302.831 413.706 309.462 413.706 319.556V320.744C413.706 330.838 420.732 337.567 430.233 337.567C434.983 337.567 439.041 335.984 442.207 332.817L447.057 337.666C443.098 342.318 437.061 344.99 430.134 344.99ZM476.705 344.99C462.553 344.99 452.855 334.994 452.855 320.447V319.457C452.855 305.701 461.761 295.409 475.121 295.409C488.778 295.409 497.19 306.097 495.31 322.624H460.871C461.464 330.937 467.501 337.666 477.002 337.666C481.95 337.666 485.809 336.578 488.778 333.906L493.331 338.854C489.669 342.812 483.632 344.99 476.705 344.99ZM460.97 316.092H487.69C487.591 307.384 482.445 302.336 475.121 302.336C467.105 302.336 462.058 307.68 460.97 316.092ZM526.295 282.445V274.726H559.249V282.445H546.978V336.281H559.249V344H526.295V336.281H538.467V282.445H526.295ZM569.191 344V296.399H576.91V303.92C580.77 297.388 587.598 295.409 592.646 295.409C603.235 295.409 610.657 302.336 610.657 315.993V344H602.641V317.181C602.641 306.988 597.594 302.732 590.567 302.732C583.244 302.732 577.207 307.779 577.207 317.28V344H569.191ZM658.034 344V303.326H635.371V344H627.355V303.326H618.647V296.399H627.355V284.424C627.355 276.705 632.699 271.757 640.715 271.757H649.622V278.585H640.617C637.648 278.585 635.371 280.762 635.371 283.83V296.399H666.05V344H658.034ZM657.737 285.909V274.429H666.446V285.909H657.737ZM680.912 344V296.399H688.631V303.92C692.49 297.388 699.319 295.409 704.366 295.409C714.955 295.409 722.377 302.336 722.377 315.993V344H714.361V317.181C714.361 306.988 709.314 302.732 702.288 302.732C694.964 302.732 688.928 307.779 688.928 317.28V344H680.912ZM739.469 344V303.326H730.167V296.399H747.386V344H739.469ZM738.974 285.909V274.429H747.881V285.909H738.974ZM778.516 344C771.984 344 765.354 340.536 765.354 331.333V303.326H756.744V296.399H765.354V284.622H773.271V296.399H785.839V303.326H773.271V331.828C773.271 334.895 775.646 337.172 778.615 337.172H785.839V344H778.516ZM815.731 344.99C801.58 344.99 791.881 334.994 791.881 320.447V319.457C791.881 305.701 800.788 295.409 814.148 295.409C827.805 295.409 836.217 306.097 834.336 322.624H799.897C800.491 330.937 806.528 337.666 816.028 337.666C820.976 337.666 824.836 336.578 827.805 333.906L832.357 338.854C828.696 342.812 822.659 344.99 815.731 344.99ZM799.996 316.092H826.716C826.617 307.384 821.471 302.336 814.148 302.336C806.132 302.336 801.085 307.68 799.996 316.092ZM-36.359 456L-19.3373 386.726H-5.38346C6.39317 386.726 13.8154 394.049 13.8154 403.747C13.8154 417.305 4.71079 425.717 -11.8161 425.717H-26.0668L-33.489 456H-36.359ZM-25.3741 423.045H-11.5192C3.52323 423.045 11.0444 415.524 11.0444 403.846C11.0444 395.632 4.90872 389.497 -5.87828 389.497H-17.1601L-25.3741 423.045ZM32.0865 456.99C23.4767 456.99 15.3617 451.151 15.3617 437.989C15.3617 421.066 25.8518 408.3 39.8057 408.3C49.4051 408.3 56.1346 415.326 56.1346 426.113C56.1346 447.093 43.4673 456.99 32.0865 456.99ZM32.1855 454.219C43.2694 454.219 53.2647 444.025 53.2647 426.113C53.2647 417.008 47.5248 411.071 39.7067 411.071C27.3363 411.071 18.2317 422.649 18.2317 437.89C18.2317 449.567 25.258 454.219 32.1855 454.219ZM74.9307 456C68.9929 456 65.6281 451.448 67.1126 445.312L75.3265 412.06H66.9147L67.6074 409.289H76.0193L78.8892 397.513H81.6602L78.7903 409.289H91.9524L91.2596 412.06H78.0975L69.7846 445.708C68.696 450.062 71.1701 453.328 75.6234 453.328H81.1654L80.4726 456H74.9307ZM109.008 456.99C100.596 456.99 92.3822 451.745 92.3822 437.89C92.3822 421.264 105.247 408.3 118.212 408.3C125.832 408.3 130.384 412.06 130.384 418.394C130.384 428.686 118.212 435.91 95.3511 435.713C95.2522 436.504 95.2522 437.197 95.2522 437.89C95.2522 449.864 102.476 454.219 109.206 454.219C114.847 454.219 118.904 452.14 122.368 449.666L123.655 452.239C119.894 455.01 115.045 456.99 109.008 456.99ZM95.648 433.139C116.628 433.337 127.514 426.905 127.514 418.493C127.514 413.743 123.853 411.071 118.113 411.071C108.216 411.071 97.7263 420.472 95.648 433.139ZM135.052 456L146.532 409.289H149.204L147.027 418.196C150.986 411.269 155.934 408.3 162.663 408.3C173.648 408.3 178.794 416.909 175.726 429.379L171.57 446.598C170.58 450.656 172.56 453.328 176.617 453.328H179.091L178.398 456H176.221C170.184 456 167.216 452.041 168.7 446.104L172.856 429.181C175.528 418.295 171.57 411.071 162.069 411.071C152.371 411.071 147.225 417.8 144.454 429.181L137.922 456H135.052ZM197.572 456C191.634 456 188.269 451.448 189.754 445.312L197.968 412.06H189.556L190.248 409.289H198.66L201.53 397.513H204.301L201.431 409.289H214.593L213.901 412.06H200.739L192.426 445.708C191.337 450.062 193.811 453.328 198.264 453.328H203.806L203.114 456H197.572ZM226.965 456C220.929 456 217.96 452.041 219.444 446.104L227.856 412.06H218.059L218.751 409.289H231.419L222.314 446.598C221.324 450.656 223.304 453.328 227.361 453.328H229.835L229.143 456H226.965ZM231.221 397.612L233.398 388.408H236.664L234.487 397.612H231.221ZM257.083 456.99C248.77 456.99 240.061 451.052 240.061 437.89C240.061 420.67 251.046 408.3 264.109 408.3C272.422 408.3 278.36 413.545 279.646 422.748L282.912 409.289H285.881L276.677 446.598C275.688 450.755 277.667 453.328 281.725 453.328H284.199L283.506 456H281.329C275.589 456 272.818 452.437 273.709 447.093C270.245 453.031 263.812 456.99 257.083 456.99ZM257.38 454.318C270.74 454.318 277.865 439.473 277.865 427.993C277.865 417.305 272.719 411.071 264.307 411.071C252.431 411.071 242.931 422.254 242.931 437.494C242.931 449.468 250.452 454.318 257.38 454.318ZM303.077 456C297.04 456 293.279 451.547 294.863 445.213L309.311 386.429H299.415L300.108 383.757H312.874L297.634 445.609C296.347 450.26 298.722 453.328 303.473 453.328H306.936L306.243 456H303.077ZM339.682 456L356.704 386.726H371.647C388.966 386.726 400.545 397.315 400.545 413.248C400.545 442.442 378.476 456 359.574 456H339.682ZM343.245 453.13H360.168C377.585 453.13 397.576 440.265 397.576 413.545C397.576 399.195 387.284 389.596 371.548 389.596H358.881L343.245 453.13ZM418.127 456C412.09 456 409.121 452.041 410.606 446.104L419.018 412.06H409.22L409.913 409.289H422.58L413.476 446.598C412.486 450.656 414.465 453.328 418.523 453.328H420.997L420.304 456H418.127ZM422.382 397.612L424.56 388.408H427.825L425.648 397.612H422.382ZM427.658 475.793L428.35 473.121H450.221C454.872 473.121 459.227 469.558 460.414 464.907L464.769 447.291C460.612 453.229 455.268 456.99 447.351 456.99C439.335 456.99 431.22 452.437 431.22 437.89C431.22 421.462 442.304 408.3 454.971 408.3C463.779 408.3 469.42 413.644 470.707 422.649L473.972 409.289H476.941L463.185 465.303C461.602 471.636 456.357 475.793 450.023 475.793H427.658ZM447.945 454.318C461.8 454.318 468.925 439.473 468.925 427.993C468.925 417.305 463.977 411.071 455.07 411.071C443.888 411.071 434.09 422.748 434.09 437.494C434.09 450.359 441.314 454.318 447.945 454.318ZM494.862 456C488.825 456 485.857 452.041 487.341 446.104L495.753 412.06H485.955L486.648 409.289H499.316L490.211 446.598C489.221 450.656 491.201 453.328 495.258 453.328H497.732L497.039 456H494.862ZM499.118 397.612L501.295 388.408H504.561L502.383 397.612H499.118ZM518.236 456C512.298 456 508.933 451.448 510.418 445.312L518.632 412.06H510.22L510.913 409.289H519.325L522.195 397.513H524.966L522.096 409.289H535.258L534.565 412.06H521.403L513.09 445.708C512.001 450.062 514.475 453.328 518.929 453.328H524.471L523.778 456H518.236ZM553.296 456.99C544.983 456.99 536.274 451.052 536.274 437.89C536.274 420.67 547.259 408.3 560.323 408.3C568.635 408.3 574.573 413.545 575.86 422.748L579.126 409.289H582.094L572.891 446.598C571.901 450.755 573.881 453.328 577.938 453.328H580.412L579.719 456H577.542C571.802 456 569.031 452.437 569.922 447.093C566.458 453.031 560.026 456.99 553.296 456.99ZM553.593 454.318C566.953 454.318 574.078 439.473 574.078 427.993C574.078 417.305 568.932 411.071 560.52 411.071C548.645 411.071 539.144 422.254 539.144 437.494C539.144 449.468 546.666 454.318 553.593 454.318ZM599.29 456C593.253 456 589.493 451.547 591.076 445.213L605.525 386.429H595.628L596.321 383.757H609.087L593.847 445.609C592.561 450.26 594.936 453.328 599.686 453.328H603.15L602.457 456H599.29ZM652.423 456.99C644.308 456.99 637.182 453.724 633.422 447.984L635.698 446.104C638.865 451.349 645.891 454.318 652.818 454.318C664.1 454.318 671.621 447.588 671.621 437.494C671.621 419.68 644.506 423.837 644.506 404.935C644.506 393.455 653.214 385.736 666.178 385.736C673.007 385.736 679.044 388.111 682.408 392.268L680.231 394.148C677.163 390.585 671.918 388.408 665.882 388.408C654.798 388.408 647.375 394.841 647.375 404.539C647.375 421.858 674.491 417.206 674.491 437.098C674.491 449.073 665.684 456.99 652.423 456.99ZM709.939 456.99C694.6 456.99 686.287 446.5 690.146 430.665L700.933 386.726H703.704L692.917 430.665C689.453 444.817 696.579 454.219 710.236 454.219C722.309 454.219 729.83 447.192 733.195 433.436L744.576 386.726H747.347L735.867 433.535C732.107 448.875 723.794 456.99 709.939 456.99ZM765.882 456.99C757.767 456.99 750.642 453.724 746.881 447.984L749.158 446.104C752.324 451.349 759.351 454.318 766.278 454.318C777.56 454.318 785.081 447.588 785.081 437.494C785.081 419.68 757.965 423.837 757.965 404.935C757.965 393.455 766.674 385.736 779.638 385.736C786.467 385.736 792.504 388.111 795.868 392.268L793.691 394.148C790.623 390.585 785.378 388.408 779.341 388.408C768.258 388.408 760.835 394.841 760.835 404.539C760.835 421.858 787.951 417.206 787.951 437.098C787.951 449.073 779.144 456.99 765.882 456.99ZM808.455 456C801.726 456 798.361 451.646 800.043 444.916L811.82 396.919C813.206 391.08 818.55 386.726 824.487 386.726H851.504L850.812 389.497H824.586C819.737 389.497 815.68 392.861 814.492 397.612L808.95 419.977H841.212L840.618 422.748H808.356L802.715 445.51C801.627 449.864 804.101 453.229 808.554 453.229H835.175L834.483 456H808.455Z" fill="#0B322C"/>
<rect width="760" height="506" fill="#2FBA78"/>
<rect width="63.6404" height="6" fill="#0B322C"/>
<rect x="63.3047" width="63.6404" height="6" fill="#0B322C"/>
<rect x="126.611" width="63.6404" height="6" fill="#FE7B3F"/>
<rect x="189.916" width="63.6404" height="6" fill="#2FBA78"/>
<rect x="253.223" width="63.6404" height="6" fill="#2FBA78"/>
<rect x="316.527" width="63.6404" height="6" fill="#2FBA78"/>
<rect x="379.832" width="63.6404" height="6" fill="#2FBA78"/>
<rect x="443.139" width="63.6404" height="6" fill="#2FBA78"/>
<rect x="506.443" width="63.6404" height="6" fill="#EFEFEF"/>
<rect x="569.748" width="63.6404" height="6" fill="#2453FF"/>
<rect x="633.055" width="63.6404" height="6" fill="#2453FF"/>
<rect x="696.359" width="63.6404" height="6" fill="#2453FF"/>
<path d="M765.882 456.99C757.767 456.99 750.641 453.724 746.881 447.984L749.157 446.104C752.324 451.349 759.35 454.318 766.278 454.318C777.56 454.318 785.081 447.588 785.081 437.494C785.081 419.681 757.965 423.837 757.965 404.935C757.965 393.455 766.674 385.736 779.638 385.736C786.466 385.736 792.503 388.111 795.868 392.268L793.691 394.148C790.623 390.585 785.378 388.408 779.341 388.408C768.257 388.408 760.835 394.841 760.835 404.539C760.835 421.858 787.951 417.206 787.951 437.098C787.951 449.073 779.143 456.99 765.882 456.99Z" fill="#0B322C"/>
<path d="M709.939 456.99C694.6 456.99 686.287 446.5 690.146 430.665L700.933 386.726H703.704L692.917 430.665C689.454 444.817 696.579 454.219 710.236 454.219C722.31 454.219 729.831 447.192 733.196 433.436L744.576 386.726H747.347L735.868 433.535C732.107 448.875 723.794 456.99 709.939 456.99Z" fill="#0B322C"/>
<path d="M652.423 456.99C644.308 456.99 637.182 453.724 633.422 447.984L635.698 446.104C638.865 451.349 645.891 454.318 652.819 454.318C664.101 454.318 671.622 447.588 671.622 437.494C671.622 419.681 644.506 423.837 644.506 404.935C644.506 393.455 653.215 385.736 666.179 385.736C673.007 385.736 679.044 388.111 682.409 392.268L680.232 394.148C677.164 390.585 671.919 388.408 665.882 388.408C654.798 388.408 647.376 394.841 647.376 404.539C647.376 421.858 674.492 417.206 674.492 437.098C674.492 449.073 665.684 456.99 652.423 456.99Z" fill="#0B322C"/>
<path d="M599.289 456C593.253 456 589.492 451.547 591.075 445.213L605.524 386.429H595.628L596.32 383.757H609.087L593.846 445.609C592.56 450.26 594.935 453.328 599.685 453.328H603.149L602.456 456H599.289Z" fill="#0B322C"/>
<path d="M553.297 456.99C544.984 456.99 536.275 451.052 536.275 437.89C536.275 420.67 547.26 408.3 560.323 408.3C568.636 408.3 574.574 413.545 575.861 422.748L579.126 409.289H582.095L572.892 446.598C571.902 450.755 573.881 453.328 577.939 453.328H580.413L579.72 456H577.543C571.803 456 569.032 452.437 569.923 447.093C566.459 453.031 560.027 456.99 553.297 456.99ZM553.594 454.318C566.954 454.318 574.079 439.473 574.079 427.993C574.079 417.305 568.933 411.071 560.521 411.071C548.646 411.071 539.145 422.254 539.145 437.494C539.145 449.468 546.667 454.318 553.594 454.318Z" fill="#0B322C"/>
<path d="M518.236 456C512.298 456 508.933 451.448 510.418 445.312L518.632 412.06H510.22L510.913 409.289H519.324L522.194 397.513H524.965L522.095 409.289H535.258L534.565 412.06H521.403L513.09 445.708C512.001 450.062 514.475 453.328 518.929 453.328H524.471L523.778 456H518.236Z" fill="#0B322C"/>
<path d="M494.862 456C488.825 456 485.856 452.041 487.341 446.104L495.752 412.06H485.955L486.648 409.289H499.315L490.21 446.599C489.221 450.656 491.2 453.328 495.258 453.328H497.732L497.039 456H494.862ZM499.117 397.612L501.294 388.408H504.56L502.383 397.612H499.117Z" fill="#0B322C"/>
<path d="M427.658 475.793L428.351 473.121H450.222C454.873 473.121 459.228 469.558 460.415 464.907L464.769 447.291C460.613 453.229 455.269 456.99 447.352 456.99C439.336 456.99 431.221 452.437 431.221 437.89C431.221 421.462 442.305 408.3 454.972 408.3C463.78 408.3 469.421 413.644 470.707 422.649L473.973 409.289H476.942L463.186 465.303C461.603 471.636 456.358 475.793 450.024 475.793H427.658ZM447.946 454.318C461.801 454.318 468.926 439.473 468.926 427.993C468.926 417.305 463.978 411.071 455.071 411.071C443.888 411.071 434.091 422.748 434.091 437.494C434.091 450.359 441.315 454.318 447.946 454.318Z" fill="#0B322C"/>
<path d="M418.127 456C412.091 456 409.122 452.041 410.606 446.104L419.018 412.06H409.221L409.913 409.289H422.581L413.476 446.599C412.486 450.656 414.466 453.328 418.523 453.328H420.997L420.305 456H418.127ZM422.383 397.612L424.56 388.408H427.826L425.649 397.612H422.383Z" fill="#0B322C"/>
<path d="M339.682 456L356.703 386.726H371.647C388.965 386.726 400.544 397.315 400.544 413.248C400.544 442.442 378.475 456 359.573 456H339.682ZM343.244 453.13H360.167C377.585 453.13 397.575 440.265 397.575 413.545C397.575 399.195 387.283 389.596 371.548 389.596H358.881L343.244 453.13Z" fill="#0B322C"/>
<path d="M303.076 456C297.04 456 293.279 451.547 294.863 445.213L309.311 386.429H299.415L300.108 383.757H312.874L297.633 445.609C296.347 450.26 298.722 453.328 303.472 453.328H306.936L306.243 456H303.076Z" fill="#0B322C"/>
<path d="M257.082 456.99C248.769 456.99 240.061 451.052 240.061 437.89C240.061 420.67 251.045 408.3 264.109 408.3C272.422 408.3 278.359 413.545 279.646 422.748L282.912 409.289H285.881L276.677 446.598C275.687 450.755 277.667 453.328 281.724 453.328H284.198L283.505 456H281.328C275.588 456 272.817 452.437 273.708 447.093C270.244 453.031 263.812 456.99 257.082 456.99ZM257.379 454.318C270.739 454.318 277.865 439.473 277.865 427.993C277.865 417.305 272.718 411.071 264.307 411.071C252.431 411.071 242.93 422.254 242.93 437.494C242.93 449.468 250.452 454.318 257.379 454.318Z" fill="#0B322C"/>
<path d="M226.965 456C220.929 456 217.96 452.041 219.444 446.104L227.856 412.06H218.059L218.751 409.289H231.419L222.314 446.599C221.324 450.656 223.304 453.328 227.361 453.328H229.835L229.142 456H226.965ZM231.221 397.612L233.398 388.408H236.664L234.486 397.612H231.221Z" fill="#0B322C"/>
<path d="M197.572 456C191.634 456 188.269 451.448 189.754 445.312L197.968 412.06H189.556L190.249 409.289H198.66L201.53 397.513H204.301L201.431 409.289H214.594L213.901 412.06H200.739L192.426 445.708C191.337 450.062 193.811 453.328 198.265 453.328H203.807L203.114 456H197.572Z" fill="#0B322C"/>
<path d="M135.053 456L146.532 409.289H149.205L147.027 418.196C150.986 411.269 155.934 408.3 162.664 408.3C173.648 408.3 178.795 416.91 175.727 429.379L171.57 446.598C170.581 450.656 172.56 453.328 176.617 453.328H179.091L178.399 456H176.221C170.185 456 167.216 452.041 168.7 446.104L172.857 429.181C175.529 418.295 171.57 411.071 162.07 411.071C152.371 411.071 147.225 417.8 144.454 429.181L137.923 456H135.053Z" fill="#0B322C"/>
<path d="M109.009 456.99C100.597 456.99 92.3828 451.745 92.3828 437.89C92.3828 421.264 105.248 408.3 118.212 408.3C125.832 408.3 130.385 412.06 130.385 418.394C130.385 428.686 118.212 435.91 95.3517 435.713C95.2528 436.504 95.2528 437.197 95.2528 437.89C95.2528 449.864 102.477 454.219 109.207 454.219C114.847 454.219 118.905 452.14 122.369 449.666L123.655 452.239C119.895 455.01 115.045 456.99 109.009 456.99ZM95.6486 433.139C116.629 433.337 127.515 426.905 127.515 418.493C127.515 413.743 123.853 411.071 118.113 411.071C108.217 411.071 97.7268 420.472 95.6486 433.139Z" fill="#0B322C"/>
<path d="M74.9312 456C68.9934 456 65.6287 451.448 67.1131 445.312L75.3271 412.06H66.9152L67.6079 409.289H76.0198L78.8898 397.513H81.6607L78.7908 409.289H91.9529L91.2602 412.06H78.098L69.7852 445.708C68.6966 450.062 71.1706 453.328 75.624 453.328H81.1659L80.4732 456H74.9312Z" fill="#0B322C"/>
<path d="M32.0861 456.99C23.4763 456.99 15.3613 451.151 15.3613 437.989C15.3613 421.066 25.8514 408.3 39.8053 408.3C49.4047 408.3 56.1342 415.326 56.1342 426.113C56.1342 447.093 43.4669 456.99 32.0861 456.99ZM32.1851 454.219C43.269 454.219 53.2643 444.025 53.2643 426.113C53.2643 417.008 47.5244 411.071 39.7063 411.071C27.3359 411.071 18.2313 422.649 18.2313 437.89C18.2313 449.567 25.2577 454.219 32.1851 454.219Z" fill="#0B322C"/>
<path d="M-36.3594 456L-19.3377 386.726H-5.38385C6.39279 386.726 13.815 394.049 13.815 403.747C13.815 417.305 4.71041 425.717 -11.8165 425.717H-26.0672L-33.4894 456H-36.3594ZM-25.3745 423.045H-11.5196C3.52283 423.045 11.044 415.524 11.044 403.846C11.044 395.632 4.90831 389.497 -5.87869 389.497H-17.1605L-25.3745 423.045Z" fill="#0B322C"/>
<path d="M778.516 344C771.985 344 765.354 340.536 765.354 331.333V303.326H756.744V296.399H765.354V284.622H773.271V296.399H785.839V303.326H773.271V331.828C773.271 334.895 775.646 337.172 778.615 337.172H785.839V344H778.516Z" fill="#0B322C"/>
<path d="M739.469 344V303.326H730.166V296.399H747.386V344H739.469ZM738.974 285.908V274.429H747.88V285.908H738.974Z" fill="#0B322C"/>
<path d="M680.912 344V296.399H688.631V303.92C692.491 297.388 699.319 295.409 704.366 295.409C714.956 295.409 722.378 302.336 722.378 315.993V344H714.362V317.181C714.362 306.988 709.315 302.732 702.288 302.732C694.965 302.732 688.928 307.779 688.928 317.28V344H680.912Z" fill="#0B322C"/>
<path d="M658.034 344V303.326H635.371V344H627.355V303.326H618.646V296.399H627.355V284.424C627.355 276.705 632.699 271.757 640.715 271.757H649.622V278.585H640.616C637.647 278.585 635.371 280.762 635.371 283.83V296.399H666.05V344H658.034ZM657.737 285.909V274.429H666.446V285.909H657.737Z" fill="#0B322C"/>
<path d="M569.191 344V296.399H576.911V303.92C580.77 297.388 587.599 295.409 592.646 295.409C603.235 295.409 610.657 302.336 610.657 315.993V344H602.641V317.181C602.641 306.988 597.594 302.732 590.568 302.732C583.244 302.732 577.207 307.779 577.207 317.28V344H569.191Z" fill="#0B322C"/>
<path d="M526.295 282.445V274.726H559.25V282.445H546.978V336.281H559.25V344H526.295V336.281H538.467V282.445H526.295Z" fill="#0B322C"/>
<path d="M476.706 344.99C462.554 344.99 452.855 334.994 452.855 320.447V319.457C452.855 305.701 461.762 295.409 475.122 295.409C488.779 295.409 497.191 306.097 495.311 322.624H460.871C461.465 330.937 467.502 337.666 477.003 337.666C481.951 337.666 485.81 336.578 488.779 333.906L493.331 338.854C489.67 342.812 483.633 344.99 476.706 344.99ZM460.97 316.092H487.691C487.592 307.384 482.445 302.336 475.122 302.336C467.106 302.336 462.059 307.68 460.97 316.092Z" fill="#0B322C"/>
<path d="M430.134 344.99C415.982 344.99 405.789 334.994 405.789 320.744V319.556C405.789 305.305 416.081 295.409 430.134 295.409C437.061 295.409 442.999 298.081 446.958 302.732L442.01 307.68C439.041 304.514 434.983 302.831 430.134 302.831C420.634 302.831 413.706 309.462 413.706 319.556V320.744C413.706 330.838 420.732 337.567 430.233 337.567C434.983 337.567 439.041 335.984 442.208 332.817L447.057 337.666C443.098 342.318 437.061 344.99 430.134 344.99Z" fill="#0B322C"/>
<path d="M377.062 344V296.399H384.782V304.118C387.157 297.982 392.105 296.201 397.944 296.201H402.001V304.118H397.35C389.631 304.118 385.079 307.878 385.079 315.795V344H377.062Z" fill="#0B322C"/>
<path d="M339.595 344.99C329.006 344.99 321.188 339.052 321.188 325.395V296.399H329.204V324.009C329.204 334.203 334.251 337.666 341.178 337.666C348.303 337.666 354.34 333.015 354.34 323.317V296.399H362.257V344H355.132V336.776C351.173 343.109 344.543 344.99 339.595 344.99Z" fill="#0B322C"/>
<path d="M286.506 344.99C272.948 344.99 262.854 334.895 262.854 320.447V319.556C262.854 305.404 272.948 295.409 286.506 295.409C300.163 295.409 310.158 305.404 310.158 319.358V320.447C310.158 334.895 300.163 344.99 286.506 344.99ZM286.506 337.864C295.808 337.864 302.142 330.739 302.142 320.447V319.358C302.142 309.462 295.808 302.534 286.506 302.534C277.302 302.534 270.771 309.561 270.771 319.556V320.447C270.771 330.739 277.302 337.864 286.506 337.864Z" fill="#0B322C"/>
<path d="M230.692 345.188C220.993 345.188 213.67 341.526 208.623 335.39L213.967 330.046C218.816 335.489 224.358 337.963 230.989 337.963C240.291 337.963 245.932 332.916 245.932 325.494C245.932 306.988 210.107 317.577 210.107 293.628C210.107 281.356 219.212 273.538 233.166 273.538C241.479 273.538 248.307 276.507 252.563 281.257L247.12 286.7C243.26 282.742 238.807 280.762 233.166 280.762C224.259 280.762 218.519 285.612 218.519 292.836C218.519 310.451 254.641 299.17 254.641 324.306C254.641 337.073 244.844 345.188 230.692 345.188Z" fill="#0B322C"/>
<path d="M133.617 344V296.399H141.336V303.92C145.196 297.388 152.024 295.409 157.071 295.409C167.661 295.409 175.083 302.336 175.083 315.993V344H167.067V317.181C167.067 306.988 162.02 302.732 154.993 302.732C147.67 302.732 141.633 307.779 141.633 317.28V344H133.617Z" fill="#0B322C"/>
<path d="M103.563 344.99C89.4113 344.99 79.7129 334.994 79.7129 320.447V319.457C79.7129 305.701 88.6196 295.409 101.98 295.409C115.637 295.409 124.048 306.097 122.168 322.624H87.7289C88.3227 330.937 94.3595 337.666 103.86 337.666C108.808 337.666 112.668 336.578 115.637 333.906L120.189 338.854C116.527 342.812 110.49 344.99 103.563 344.99ZM87.8279 316.092H114.548C114.449 307.384 109.303 302.336 101.98 302.336C93.9636 302.336 88.9165 307.68 87.8279 316.092Z" fill="#0B322C"/>
<path d="M24.3125 363.793V296.399H31.8337V304.613C35.5943 298.873 41.6311 295.409 48.8554 295.409C61.7206 295.409 71.2211 305.305 71.2211 319.556V320.447C71.2211 335.093 61.8196 344.99 48.8554 344.99C41.829 344.99 36.0891 341.823 32.3285 336.281V363.793H24.3125ZM47.6678 337.864C56.5745 337.864 63.2051 331.036 63.2051 320.447V319.556C63.2051 309.264 56.5745 302.534 47.6678 302.534C38.5632 302.534 31.8337 309.561 31.8337 320.249C31.8337 330.937 38.5632 337.864 47.6678 337.864Z" fill="#0B322C"/>
<path d="M-20.7731 345.188C-40.1699 345.188 -54.2227 330.64 -54.2227 309.561V308.67C-54.2227 287.789 -40.1699 273.538 -20.7731 273.538C-1.37626 273.538 12.6765 287.789 12.6765 308.67V309.561C12.6765 330.64 -1.37626 345.188 -20.7731 345.188ZM-20.7731 336.974C-6.32443 336.974 4.06671 326.088 4.06671 309.561V308.67C4.06671 292.44 -6.32443 281.752 -20.7731 281.752C-35.3207 281.752 -45.6129 292.44 -45.6129 308.67V309.561C-45.6129 326.088 -35.3207 336.974 -20.7731 336.974Z" fill="#0B322C"/>
<path d="M721.668 250.793L724.043 241.49H747.398C749.873 241.49 751.654 240.006 752.248 237.631L755.019 226.25C751.159 229.812 746.607 231.99 741.362 231.99C733.148 231.99 725.033 226.25 725.033 212.593C725.033 195.868 736.117 181.914 749.081 181.914C756.008 181.914 760.561 184.982 762.837 190.227L764.618 182.904H775.702L762.342 237.532C760.165 246.141 753.93 250.793 744.726 250.793H721.668ZM745.617 222.093C754.029 222.093 759.67 212.593 759.67 203.092C759.67 196.165 756.899 191.712 750.466 191.712C742.252 191.712 735.919 200.816 735.919 210.218C735.919 219.619 740.57 222.093 745.617 222.093Z" fill="#0B322C"/>
<path d="M691.963 231.99C680.484 231.99 672.27 224.172 672.27 211.009C672.27 194.384 683.65 181.914 698.693 181.914C709.975 181.914 717.991 189.831 717.991 201.707C717.991 221.994 704.433 231.99 691.963 231.99ZM692.755 221.895C700.276 221.895 706.907 214.374 706.907 202.301C706.907 195.868 703.344 192.008 697.901 192.008C689.786 192.008 683.353 200.024 683.353 210.317C683.353 218.036 687.312 221.895 692.755 221.895Z" fill="#0B322C"/>
<path d="M655.687 231C647.869 231 643.91 226.25 645.89 218.333L658.161 168.158H650.145L652.421 158.757H671.62L657.073 217.937C656.38 220.51 657.369 221.697 659.844 221.697H664.891L662.516 231H655.687Z" fill="#0B322C"/>
<path d="M612.524 231.99C601.044 231.99 592.83 224.172 592.83 211.009C592.83 194.384 604.211 181.914 619.253 181.914C630.535 181.914 638.551 189.831 638.551 201.707C638.551 221.994 624.993 231.99 612.524 231.99ZM613.316 221.895C620.837 221.895 627.467 214.374 627.467 202.301C627.467 195.868 623.905 192.008 618.462 192.008C610.347 192.008 603.914 200.024 603.914 210.317C603.914 218.036 607.873 221.895 613.316 221.895Z" fill="#0B322C"/>
<path d="M535.16 231L547.036 182.904H557.625L556.437 187.654C560.495 183.201 565.245 181.914 569.797 181.914C580.683 181.914 586.126 189.93 582.762 203.587L579.199 218.333C578.704 220.312 579.496 221.697 582.069 221.697H586.225L583.85 231H578.011C569.797 231 566.037 226.25 567.917 218.729L571.579 203.389C573.36 196.264 570.688 192.008 564.354 192.008C558.515 192.008 554.854 196.165 553.073 203.389L546.343 231H535.16Z" fill="#0B322C"/>
<path d="M480.072 231L497.787 158.757H508.475L501.349 187.654C505.407 183.201 510.157 181.914 514.709 181.914C525.595 181.914 531.038 189.93 527.674 203.587L524.111 218.333C523.616 220.312 524.408 221.697 526.981 221.697H531.137L528.762 231H522.923C514.709 231 510.949 226.25 512.829 218.729L516.491 203.389C518.272 196.264 515.6 192.008 509.464 192.008C503.428 192.008 499.766 196.165 497.985 203.389L491.255 231H480.072Z" fill="#0B322C"/>
<path d="M456.436 231.99C446.639 231.99 437.039 226.25 437.039 211.504C437.039 194.977 448.42 181.914 463.462 181.914C470.489 181.914 476.426 185.081 479.395 190.326L471.28 196.858C469.202 193.592 466.332 192.008 462.967 192.008C454.457 192.008 448.123 199.728 448.123 209.921C448.123 218.827 453.071 221.796 457.92 221.796C461.186 221.796 464.551 220.51 468.213 217.442L473.952 225.26C469.4 229.318 463.264 231.99 456.436 231.99Z" fill="#0B322C"/>
<path d="M407.985 231.99C398.683 231.99 389.578 225.854 389.578 211.306C389.578 196.462 401.652 181.914 417.882 181.914C426.491 181.914 432.132 186.466 432.132 193.493C432.132 206.952 419.762 212.098 400.662 212.593C401.058 220.213 405.313 222.588 410.064 222.588C414.418 222.588 417.783 221.005 421.048 218.531L426.491 226.151C421.84 230.01 415.507 231.99 407.985 231.99ZM401.652 204.676C414.715 204.181 421.048 200.717 421.048 195.274C421.048 192.503 418.871 190.623 415.605 190.623C408.876 190.623 403.73 197.352 401.652 204.676Z" fill="#0B322C"/>
<path d="M356.496 231L370.845 172.414H351.943L354.615 161.726H404.394L401.722 172.414H382.721L368.272 231H356.496Z" fill="#0B322C"/>
<path d="M268.461 250.793L270.737 241.49H292.905C295.676 241.49 297.556 240.006 298.15 237.631L301.119 225.854C297.358 229.516 293.301 230.604 289.045 230.604C277.862 230.604 272.123 222.489 275.19 210.218L281.92 182.904H293.004L286.373 209.921C284.79 216.452 287.66 220.51 293.499 220.51C299.041 220.51 302.999 216.65 304.484 210.515L311.312 182.904H322.396L308.937 237.532C306.859 246.042 300.327 250.793 290.926 250.793H268.461Z" fill="#0B322C"/>
<path d="M254.925 231C245.919 231 241.169 224.963 243.247 216.353L249.185 192.305H241.961L244.237 182.904H251.461L254.331 171.127H265.316L262.446 182.904H272.739L270.462 192.305H260.17L253.935 217.838C253.342 220.015 254.628 221.598 256.706 221.598H263.238L260.962 231H254.925Z" fill="#0B322C"/>
<path d="M223.665 231C215.847 231 212.186 226.25 214.066 218.63L220.597 192.305H211.889L214.165 182.904H233.957L225.249 218.234C224.655 220.609 225.546 221.697 227.822 221.697H231.879L229.504 231H223.665ZM224.655 173.106L227.723 160.241H239.994L236.926 173.106H224.655Z" fill="#0B322C"/>
<path d="M173.52 231L185.395 182.904H196.083L194.401 189.534C197.766 184.19 202.219 182.508 207.761 182.508H211.027L208.355 193.493H204.198C196.776 193.493 192.817 197.451 190.937 204.874L184.603 231H173.52Z" fill="#0B322C"/>
<path d="M135.282 231.99C123.802 231.99 118.557 223.479 121.526 211.405L128.552 182.904H139.735L132.808 211.108C131.224 217.541 133.995 221.895 140.131 221.895C145.277 221.895 149.038 218.432 150.621 212.989L158.142 182.904H169.226L160.616 218.234C160.023 220.609 161.21 221.697 163.585 221.697H167.643L165.268 231H160.122C153.788 231 150.324 228.922 149.335 224.765C145.277 230.406 139.636 231.99 135.282 231.99Z" fill="#0B322C"/>
<path d="M93.9241 231.99C84.1268 231.99 74.5273 226.25 74.5273 211.504C74.5273 194.977 85.9081 181.914 100.951 181.914C107.977 181.914 113.915 185.081 116.884 190.326L108.769 196.858C106.69 193.592 103.821 192.008 100.456 192.008C91.9449 192.008 85.6112 199.728 85.6112 209.921C85.6112 218.827 90.5594 221.796 95.4086 221.796C98.6744 221.796 102.039 220.51 105.701 217.442L111.441 225.26C106.888 229.318 100.753 231.99 93.9241 231.99Z" fill="#0B322C"/>
<path d="M45.4736 231.99C36.1711 231.99 27.0664 225.854 27.0664 211.306C27.0664 196.462 39.14 181.914 55.3699 181.914C63.9797 181.914 69.6206 186.466 69.6206 193.493C69.6206 206.952 57.2502 212.098 38.1503 212.593C38.5462 220.213 42.8016 222.588 47.5518 222.588C51.9062 222.588 55.271 221.005 58.5367 218.531L63.9797 226.151C59.3285 230.01 52.9948 231.99 45.4736 231.99ZM39.14 204.676C52.2031 204.181 58.5367 200.717 58.5367 195.274C58.5367 192.503 56.3596 190.623 53.0938 190.623C46.3643 190.623 41.2182 197.352 39.14 204.676Z" fill="#0B322C"/>
<path d="M-4.93896 232.287C-14.4394 232.287 -22.8513 228.031 -27.6016 221.104L-18.8928 214.176C-14.8353 219.718 -9.09541 222.291 -4.14725 222.291C2.87915 222.291 7.62939 218.135 7.62939 211.999C7.62939 198.639 -17.1115 202.301 -17.1115 182.112C-17.1115 169.247 -7.31409 160.439 6.63974 160.439C15.6454 160.439 23.0676 164.398 27.0262 169.94L18.3174 176.867C14.9527 172.612 10.7962 170.435 6.14493 170.435C-0.782503 170.435 -5.43378 174.492 -5.43378 180.43C-5.43378 193.493 19.7029 189.337 19.7029 210.02C19.7029 223.182 9.60864 232.287 -4.93896 232.287Z" fill="#0B322C"/>
<path d="M781.317 118V112.755C778.942 116.812 774.588 118.99 767.957 118.99C757.17 118.99 750.045 113.052 750.045 104.541C750.045 95.6343 757.17 89.4985 770.135 89.4985C773.895 89.4985 777.062 90.0923 779.536 91.082V87.6182C779.536 82.769 776.072 80.9877 771.718 80.9877C767.166 80.9877 761.624 82.868 757.863 85.9359L751.331 76.1385C755.686 71.4872 763.999 68.2214 772.708 68.2214C785.276 68.2214 794.183 74.852 794.183 86.7276V102.661C794.183 107.807 794.183 112.854 794.479 118H781.317ZM772.213 108.302C776.567 108.302 779.635 106.421 779.635 103.65C779.635 100.978 776.567 99.098 772.213 99.098C767.957 99.098 764.889 100.978 764.889 103.65C764.889 106.421 767.957 108.302 772.213 108.302Z" fill="#0B322C"/>
<path d="M670.898 118V48.7257H692.176L706.228 82.4722L720.182 48.7257H741.459V118H726.021V70.2008L711.968 105.135H700.389L686.337 70.2008V118H670.898Z" fill="#0B322C"/>
<path d="M591.203 118L607.235 93.655L591.698 69.2111H609.016L617.23 84.1545L625.345 69.2111H642.367L626.83 93.556L642.565 118H625.148L616.637 103.254L608.324 118H591.203Z" fill="#0B322C"/>
<path d="M558.709 118.99C547.922 118.99 539.906 112.26 539.906 99.5928V69.2111H554.751V96.6239C554.751 103.155 557.72 105.531 562.173 105.531C567.022 105.531 570.288 102.562 570.288 96.228V69.2111H585.133V118H572.366V113.25C568.309 118 562.569 118.99 558.709 118.99Z" fill="#0B322C"/>
<path d="M483.768 118V69.2111H498.117V74.0603C502.076 69.2111 507.618 68.2214 511.477 68.2214C522.363 68.2214 529.39 75.9406 529.39 88.6079V118H514.545V91.082C514.545 84.5504 511.675 81.6804 507.123 81.6804C502.175 81.6804 498.612 85.1442 498.612 91.4778V118H483.768Z" fill="#0B322C"/>
<path d="M457.489 118V81.6805H449.275V69.2111H472.334V118H457.489ZM456.797 60.4033V45.7568H473.224V60.4033H456.797Z" fill="#0B322C"/>
<path d="M415.456 118C408.43 118 403.383 112.953 403.383 105.927V48.7257H419.217V101.176C419.217 102.265 420.108 103.156 421.196 103.156H449.302V118H415.456Z" fill="#0B322C"/>
<path d="M324.98 118V69.2111H339.33V74.0603C343.289 69.2111 348.831 68.2214 352.69 68.2214C363.576 68.2214 370.603 75.9406 370.603 88.6079V118H355.758V91.082C355.758 84.5504 352.888 81.6804 348.336 81.6804C343.388 81.6804 339.825 85.1442 339.825 91.4778V118H324.98Z" fill="#0B322C"/>
<path d="M290.442 118.99C275.796 118.99 264.514 108.697 264.514 94.0509V93.0612C264.514 78.5136 275.796 68.2214 290.442 68.2214C304.99 68.2214 316.271 78.5136 316.271 93.0612V94.0509C316.271 108.697 304.99 118.99 290.442 118.99ZM290.442 106.025C296.974 106.025 301.427 101.077 301.427 94.0509V93.0612C301.427 86.1338 296.974 81.1856 290.442 81.1856C283.91 81.1856 279.358 86.1338 279.358 93.0612V94.0509C279.358 101.077 283.91 106.025 290.442 106.025Z" fill="#0B322C"/>
<path d="M241.007 118V81.6805H232.793V69.2111H255.851V118H241.007ZM240.314 60.4033V45.7568H256.742V60.4033H240.314Z" fill="#0B322C"/>
<path d="M218.959 118C211.636 118 202.333 115.526 202.333 102.364V81.6805H194.713V69.2111H202.333V57.4344H217.178V69.2111H227.173V81.6805H217.178V103.551C217.178 104.64 218.068 105.531 219.157 105.531H227.173V118H218.959Z" fill="#0B322C"/>
<path d="M174.974 118V112.755C172.598 116.812 168.244 118.99 161.614 118.99C150.827 118.99 143.701 113.052 143.701 104.541C143.701 95.6343 150.827 89.4985 163.791 89.4985C167.551 89.4985 170.718 90.0923 173.192 91.082V87.6182C173.192 82.769 169.729 80.9877 165.374 80.9877C160.822 80.9877 155.28 82.868 151.519 85.9359L144.988 76.1385C149.342 71.4872 157.655 68.2214 166.364 68.2214C178.932 68.2214 187.839 74.852 187.839 86.7276V102.661C187.839 107.807 187.839 112.854 188.136 118H174.974ZM165.869 108.302C170.223 108.302 173.291 106.421 173.291 103.65C173.291 100.978 170.223 99.098 165.869 99.098C161.614 99.098 158.546 100.978 158.546 103.65C158.546 106.421 161.614 108.302 165.869 108.302Z" fill="#0B322C"/>
<path d="M108.112 118L89.9023 69.2111H105.341L115.93 100.088L126.42 69.2111H141.858L123.748 118H108.112Z" fill="#0B322C"/>
<path d="M62.362 118.99C47.7154 118.99 36.4336 108.697 36.4336 94.0509V93.0612C36.4336 78.5136 47.7154 68.2214 62.362 68.2214C76.9096 68.2214 88.1914 78.5136 88.1914 93.0612V94.0509C88.1914 108.697 76.9096 118.99 62.362 118.99ZM62.362 106.025C68.8935 106.025 73.3469 101.077 73.3469 94.0509V93.0612C73.3469 86.1338 68.8935 81.1856 62.362 81.1856C55.8304 81.1856 51.2781 86.1338 51.2781 93.0612V94.0509C51.2781 101.077 55.8304 106.025 62.362 106.025Z" fill="#0B322C"/>
<path d="M-17.4277 118V69.2111H-3.07806V74.0603C0.880469 69.2111 6.42244 68.2214 10.282 68.2214C21.168 68.2214 28.1944 75.9406 28.1944 88.6079V118H13.3499V91.082C13.3499 84.5504 10.4799 81.6804 5.92761 81.6804C0.979449 81.6804 -2.58322 85.1442 -2.58322 91.4778V118H-17.4277Z" fill="#0B322C"/>
</g>
<defs>
<clipPath id="clip0_21_748">
<rect width="760" height="506" fill="white"/>
</clipPath>
</defs>
</svg>
