<?xml version="1.0" encoding="UTF-8"?>
<svg width="760px" height="506px" viewBox="0 0 760 506" version="1.1" xmlns="http://www.w3.org/2000/svg" xmlns:xlink="http://www.w3.org/1999/xlink">
    <title>Google-Fonts-SUSE-Specimen-03</title>
    <g id="Google-Fonts-SUSE-Specimen-03" stroke="none" stroke-width="1" fill="none" fill-rule="evenodd">
        <rect fill="#2FBA78" x="0" y="0" width="760" height="506"></rect>
        <g id="Group-2" transform="translate(-232.000000, 0.000000)">
            <rect id="bg" fill="#2FBA78" x="232" y="0" width="760" height="506"></rect>
            <g id="Group" transform="translate(232.000000, 0.000000)">
                <rect id="Rectangle" fill="#0B322C" x="0" y="0" width="63.6403702" height="6"></rect>
                <rect id="Rectangle" fill="#0B322C" x="63.3054209" y="0" width="63.6403702" height="6"></rect>
                <rect id="Rectangle" fill="#FE7B3F" x="126.610842" y="0" width="63.6403702" height="6"></rect>
                <rect id="Rectangle" fill="#2FBA78" x="189.916263" y="0" width="63.6403702" height="6"></rect>
                <rect id="Rectangle" fill="#2FBA78" x="253.221684" y="0" width="63.6403702" height="6"></rect>
                <rect id="Rectangle" fill="#2FBA78" x="316.527104" y="0" width="63.6403702" height="6"></rect>
                <rect id="Rectangle" fill="#2FBA78" x="379.832525" y="0" width="63.6403702" height="6"></rect>
                <rect id="Rectangle" fill="#2FBA78" x="443.137946" y="0" width="63.6403702" height="6"></rect>
                <rect id="Rectangle" fill="#EFEFEF" x="506.443367" y="0" width="63.6403702" height="6"></rect>
                <rect id="Rectangle" fill="#2453FF" x="569.748788" y="0" width="63.6403702" height="6"></rect>
                <rect id="Rectangle" fill="#2453FF" x="633.054209" y="0" width="63.6403702" height="6"></rect>
                <rect id="Rectangle" fill="#2453FF" x="696.35963" y="0" width="63.6403702" height="6"></rect>
            </g>
            <text id="Innovation-Linux-Sec" font-family="SUSE20240618-ExtraBold, SUSE 20240618" font-size="99.5126674" font-weight="700" line-spacing="113.4" fill="#0B322C">
                <tspan x="211.013707" y="112.872713">Innovation Linux</tspan>
                <tspan x="982.833955" y="113.370276" font-family="SUSE20240618-Bold, SUSE 20240618" font-weight="bold"> </tspan>
                <tspan x="143.593874" y="227.267839" font-family="SUSE20240618-SemiBold, SUSE 20240618" font-weight="500"> Security Technology</tspan>
                <tspan x="1065.08117" y="231.4" font-family="SUSE20240618-Bold, SUSE 20240618" font-weight="bold"></tspan>
                <tspan x="145.484615" y="341.662966" font-family="SUSE20240618-Regular, SUSE 20240618" font-weight="normal">Open Source Infinite</tspan>
                <tspan x="1062.99141" y="344.8" font-family="SUSE20240618-Bold, SUSE 20240618" font-weight="bold"></tspan>
                <tspan x="135.135298" y="456.058093" font-family="SUSE20240618-Thin, SUSE 20240618" font-weight="300">Potential Digital SUSE</tspan>
            </text>
        </g>
        <g id="Group-2-Copy" transform="translate(-71.488972, 0.000000)">
            <rect id="bg" fill="#2FBA78" x="71.4889722" y="0" width="760" height="506"></rect>
            <g id="Group" transform="translate(71.488972, 0.000000)">
                <rect id="Rectangle" fill="#0B322C" x="0" y="0" width="63.6403702" height="6"></rect>
                <rect id="Rectangle" fill="#0B322C" x="63.3054209" y="0" width="63.6403702" height="6"></rect>
                <rect id="Rectangle" fill="#FE7B3F" x="126.610842" y="0" width="63.6403702" height="6"></rect>
                <rect id="Rectangle" fill="#2FBA78" x="189.916263" y="0" width="63.6403702" height="6"></rect>
                <rect id="Rectangle" fill="#2FBA78" x="253.221684" y="0" width="63.6403702" height="6"></rect>
                <rect id="Rectangle" fill="#2FBA78" x="316.527104" y="0" width="63.6403702" height="6"></rect>
                <rect id="Rectangle" fill="#2FBA78" x="379.832525" y="0" width="63.6403702" height="6"></rect>
                <rect id="Rectangle" fill="#2FBA78" x="443.137946" y="0" width="63.6403702" height="6"></rect>
                <rect id="Rectangle" fill="#EFEFEF" x="506.443367" y="0" width="63.6403702" height="6"></rect>
                <rect id="Rectangle" fill="#2453FF" x="569.748788" y="0" width="63.6403702" height="6"></rect>
                <rect id="Rectangle" fill="#2453FF" x="633.054209" y="0" width="63.6403702" height="6"></rect>
                <rect id="Rectangle" fill="#2453FF" x="696.35963" y="0" width="63.6403702" height="6"></rect>
            </g>
            <g id="Innovation-Linux-Sec" transform="translate(0.000000, 41.755753)" fill="#0B322C" fill-rule="nonzero">
                <polygon id="Path" points="70.0071616 17.4147168 81.0530676 17.4147168 81.0530676 58.2149105 70.0071616 58.2149105 70.0071616 72.6442472 108.120513 72.6442472 108.120513 58.2149105 97.0746071 58.2149105 97.0746071 17.4147168 108.120513 17.4147168 108.120513 2.98538002 70.0071616 2.98538002"></polygon>
                <path d="M116.380065,72.6442472 L131.306965,72.6442472 L131.306965,45.9748524 C131.306965,39.6060416 134.889421,36.1230983 139.865054,36.1230983 C144.442637,36.1230983 147.328504,39.0089656 147.328504,45.5768017 L147.328504,72.6442472 L162.255404,72.6442472 L162.255404,43.088985 C162.255404,30.3513636 155.190005,22.5893755 144.243611,22.5893755 C140.362617,22.5893755 134.690395,23.6840149 130.809401,28.4606229 L130.809401,23.5845022 L116.380065,23.5845022 L116.380065,72.6442472 Z" id="Path"></path>
                <path d="M173.30131,72.6442472 L188.22821,72.6442472 L188.22821,45.9748524 C188.22821,39.6060416 191.810667,36.1230983 196.7863,36.1230983 C201.363883,36.1230983 204.24975,39.0089656 204.24975,45.5768017 L204.24975,72.6442472 L219.17665,72.6442472 L219.17665,43.088985 C219.17665,30.3513636 212.111251,22.5893755 201.164857,22.5893755 C197.283863,22.5893755 191.611641,23.6840149 187.730647,28.4606229 L187.730647,23.5845022 L173.30131,23.5845022 L173.30131,72.6442472 Z" id="Path"></path>
                <path d="M253.50852,73.6393739 C268.136882,73.6393739 279.481327,63.2900565 279.481327,48.5621817 L279.481327,47.567055 C279.481327,32.9386929 268.136882,22.5893755 253.50852,22.5893755 C238.780646,22.5893755 227.436201,32.9386929 227.436201,47.567055 L227.436201,48.5621817 C227.436201,63.2900565 238.780646,73.6393739 253.50852,73.6393739 Z M242.363102,48.5621817 L242.363102,47.567055 C242.363102,40.6011683 246.940684,35.6255349 253.50852,35.6255349 C260.076356,35.6255349 264.653939,40.6011683 264.653939,47.567055 L264.653939,48.5621817 C264.653939,55.6275811 260.076356,60.6032145 253.50852,60.6032145 C246.940684,60.6032145 242.363102,55.6275811 242.363102,48.5621817 Z" id="Shape"></path>
                <polygon id="Path" points="299.483373 72.6442472 315.206374 72.6442472 333.417192 23.5845022 317.893216 23.5845022 307.344873 54.6324544 296.697018 23.5845022 281.173042 23.5845022"></polygon>
                <path d="M366.654423,72.6442472 L379.889608,72.6442472 C379.59107,67.4695885 379.59107,62.3944425 379.59107,57.2197838 L379.59107,41.1982443 C379.59107,29.2567242 370.63493,22.5893755 357.996821,22.5893755 C349.239706,22.5893755 340.880642,25.8732935 336.502085,30.5503889 L343.069921,40.402143 C346.851402,37.3172503 352.424112,35.4265096 357.001694,35.4265096 C361.380252,35.4265096 364.863195,37.2177376 364.863195,42.0938583 L364.863195,45.5768017 C362.275866,44.581675 359.190973,43.984599 355.409492,43.984599 C342.373332,43.984599 335.20842,50.1543844 335.20842,59.1105245 C335.20842,67.6686139 342.373332,73.6393739 353.220213,73.6393739 C359.887562,73.6393739 364.266119,71.4500952 366.654423,67.3700759 L366.654423,72.6442472 Z M350.13532,58.2149105 C350.13532,55.5280684 353.220213,53.6373278 357.499258,53.6373278 C361.877815,53.6373278 364.962708,55.5280684 364.962708,58.2149105 C364.962708,61.0012651 361.877815,62.8920058 357.499258,62.8920058 C353.220213,62.8920058 350.13532,61.0012651 350.13532,58.2149105 Z" id="Shape"></path>
                <path d="M410.838048,72.6442472 L419.097599,72.6442472 L419.097599,60.1056511 L411.037073,60.1056511 C409.942434,60.1056511 409.04682,59.2100371 409.04682,58.1153978 L409.04682,36.1230983 L419.097599,36.1230983 L419.097599,23.5845022 L409.04682,23.5845022 L409.04682,11.7424948 L394.119919,11.7424948 L394.119919,23.5845022 L386.457444,23.5845022 L386.457444,36.1230983 L394.119919,36.1230983 L394.119919,56.9212458 C394.119919,70.1564306 403.47411,72.6442472 410.838048,72.6442472 Z" id="Path"></path>
                <path d="M433.029372,72.6442472 L447.956273,72.6442472 L447.956273,23.5845022 L424.769821,23.5845022 L424.769821,36.1230983 L433.029372,36.1230983 L433.029372,72.6442472 Z M432.332784,14.7278748 L448.851887,14.7278748 L448.851887,0 L432.332784,0 L432.332784,14.7278748 Z" id="Shape"></path>
                <path d="M482.785706,73.6393739 C497.414068,73.6393739 508.758512,63.2900565 508.758512,48.5621817 L508.758512,47.567055 C508.758512,32.9386929 497.414068,22.5893755 482.785706,22.5893755 C468.057831,22.5893755 456.713387,32.9386929 456.713387,47.567055 L456.713387,48.5621817 C456.713387,63.2900565 468.057831,73.6393739 482.785706,73.6393739 Z M471.640287,48.5621817 L471.640287,47.567055 C471.640287,40.6011683 476.21787,35.6255349 482.785706,35.6255349 C489.353542,35.6255349 493.931125,40.6011683 493.931125,47.567055 L493.931125,48.5621817 C493.931125,55.6275811 489.353542,60.6032145 482.785706,60.6032145 C476.21787,60.6032145 471.640287,55.6275811 471.640287,48.5621817 Z" id="Shape"></path>
                <path d="M517.515627,72.6442472 L532.442527,72.6442472 L532.442527,45.9748524 C532.442527,39.6060416 536.024983,36.1230983 541.000617,36.1230983 C545.578199,36.1230983 548.464067,39.0089656 548.464067,45.5768017 L548.464067,72.6442472 L563.390967,72.6442472 L563.390967,43.088985 C563.390967,30.3513636 556.325567,22.5893755 545.379174,22.5893755 C541.49818,22.5893755 535.825958,23.6840149 531.944964,28.4606229 L531.944964,23.5845022 L517.515627,23.5845022 L517.515627,72.6442472 Z" id="Path"></path>
                <path d="M608.569718,72.6442472 L642.60305,72.6442472 L642.60305,57.7173471 L614.341453,57.7173471 C613.246813,57.7173471 612.351199,56.8217331 612.351199,55.7270938 L612.351199,2.98538002 L596.429172,2.98538002 L596.429172,60.5037018 C596.429172,67.5691012 601.504318,72.6442472 608.569718,72.6442472 Z" id="Path"></path>
                <path d="M650.763089,72.6442472 L665.689989,72.6442472 L665.689989,23.5845022 L642.503537,23.5845022 L642.503537,36.1230983 L650.763089,36.1230983 L650.763089,72.6442472 Z M650.0665,14.7278748 L666.585603,14.7278748 L666.585603,0 L650.0665,0 L650.0665,14.7278748 Z" id="Shape"></path>
                <path d="M677.233458,72.6442472 L692.160358,72.6442472 L692.160358,45.9748524 C692.160358,39.6060416 695.742814,36.1230983 700.718448,36.1230983 C705.296031,36.1230983 708.181898,39.0089656 708.181898,45.5768017 L708.181898,72.6442472 L723.108798,72.6442472 L723.108798,43.088985 C723.108798,30.3513636 716.043399,22.5893755 705.097005,22.5893755 C701.216011,22.5893755 695.543789,23.6840149 691.662795,28.4606229 L691.662795,23.5845022 L677.233458,23.5845022 L677.233458,72.6442472 Z" id="Path"></path>
                <path d="M752.564548,73.6393739 C756.445542,73.6393739 762.217276,72.6442472 766.297296,67.8676392 L766.297296,72.6442472 L779.13443,72.6442472 L779.13443,23.5845022 L764.20753,23.5845022 L764.20753,50.7514604 C764.20753,57.1202711 760.923612,60.1056511 756.047491,60.1056511 C751.569421,60.1056511 748.584041,57.7173471 748.584041,51.1495111 L748.584041,23.5845022 L733.657141,23.5845022 L733.657141,54.1348911 C733.657141,66.8725125 741.717667,73.6393739 752.564548,73.6393739 Z" id="Path"></path>
                <polygon id="Path" points="785.204703 72.6442472 802.420394 72.6442472 810.779458 57.8168598 819.337547 72.6442472 836.851777 72.6442472 821.029263 48.0646184 836.652752 23.5845022 819.536573 23.5845022 811.376534 38.610915 803.116983 23.5845022 785.702266 23.5845022 801.325755 48.164131"></polygon>
                <path d="M46.969979,187.437425 C62.0959045,187.437425 72.3457092,178.779823 72.3457092,165.445125 C72.3457092,140.26842 37.3172503,150.120174 37.3172503,134.994249 C37.3172503,129.123001 42.0938583,125.34152 49.3582831,125.34152 C54.7319671,125.34152 58.7124738,127.431286 62.7924932,131.511305 L70.5544812,123.749317 C65.8773859,118.475146 58.4139358,114.992203 49.4577957,114.992203 C34.8294336,114.992203 25.1767049,123.251754 25.1767049,136.188401 C25.1767049,160.270466 59.9066258,151.214814 59.9066258,167.236353 C59.9066258,173.1076 55.2295304,177.088107 47.3680297,177.088107 C41.4967823,177.088107 36.521149,174.799316 31.1474649,169.326119 L23.5845022,176.889082 C28.9581862,183.257893 36.521149,187.437425 46.969979,187.437425 Z" id="Path"></path>
                <path d="M103.692199,187.039374 C111.354675,187.039374 117.723486,184.65107 121.60448,179.874462 L115.136156,173.1076 C112.349802,175.69493 109.165396,177.088107 104.289275,177.088107 C96.3282621,177.088107 91.5516541,172.411012 90.65604,165.345612 L123.594733,165.345612 C125.784012,147.930896 116.927384,136.586452 102.299022,136.586452 C88.3672487,136.586452 79.2120833,147.234307 79.2120833,161.066568 L79.2120833,162.061694 C79.2120833,176.988595 89.16335,187.039374 103.692199,187.039374 Z M90.8550654,157.185574 C91.8501921,150.418712 95.7311861,145.84113 102.398535,145.84113 C108.269782,145.84113 112.548827,149.921149 112.747852,157.185574 L90.8550654,157.185574 Z" id="Shape"></path>
                <path d="M156.135375,187.039374 C163.300287,187.039374 170.067149,183.954481 173.948143,178.978848 L167.081769,172.112474 C164.096389,175.197366 160.314907,176.491031 156.334401,176.491031 C148.4729,176.491031 142.303114,171.017834 142.303114,162.360232 L142.303114,161.265593 C142.303114,152.607991 148.273875,147.134794 156.234888,147.134794 C160.314907,147.134794 164.096389,148.627484 166.783231,151.712377 L173.749117,144.646978 C169.868123,139.671344 163.300287,136.586452 156.135375,136.586452 C141.706038,136.586452 130.859158,146.537718 130.859158,161.265593 L130.859158,162.360232 C130.859158,176.889082 141.606526,187.039374 156.135375,187.039374 Z" id="Path"></path>
                <path d="M200.816563,187.039374 C205.394146,187.039374 211.563931,185.546684 215.64395,179.973975 L215.64395,186.044247 L225.495704,186.044247 L225.495704,137.581578 L214.051748,137.581578 L214.051748,164.748536 C214.051748,172.70955 209.474165,176.590544 203.403892,176.590544 C197.73167,176.590544 193.651651,173.605164 193.651651,165.2461 L193.651651,137.581578 L182.207694,137.581578 L182.207694,167.435378 C182.207694,180.670563 190.168707,187.039374 200.816563,187.039374 Z" id="Path"></path>
                <path d="M238.830402,186.044247 L250.274359,186.044247 L250.274359,158.678264 C250.274359,152.010915 254.453891,148.527972 262.016853,148.527972 L266.892974,148.527972 L266.892974,137.183528 L262.912467,137.183528 C257.140733,137.183528 252.165099,139.074268 249.876308,144.74649 L249.876308,137.581578 L238.830402,137.581578 L238.830402,186.044247 Z" id="Path"></path>
                <path d="M279.531083,186.044247 L290.97504,186.044247 L290.97504,137.581578 L270.674455,137.581578 L270.674455,147.33382 L279.531083,147.33382 L279.531083,186.044247 Z M278.934007,127.928849 L291.671628,127.928849 L291.671628,114.693665 L278.934007,114.693665 L278.934007,127.928849 Z" id="Shape"></path>
                <path d="M322.620068,186.044247 L330.481569,186.044247 L330.481569,176.292006 L322.819093,176.292006 C320.729327,176.292006 319.137125,174.699803 319.137125,172.70955 L319.137125,147.33382 L330.481569,147.33382 L330.481569,137.581578 L319.137125,137.581578 L319.137125,125.739571 L307.693168,125.739571 L307.693168,137.581578 L299.533129,137.581578 L299.533129,147.33382 L307.693168,147.33382 L307.693168,171.813936 C307.693168,183.058867 315.654181,186.044247 322.620068,186.044247 Z" id="Path"></path>
                <path d="M336.850379,205.946781 L346.801646,205.946781 C356.852425,205.946781 360.235856,199.378945 362.425135,193.806235 L384.815485,137.581578 L372.077864,137.581578 L360.036831,172.70955 L347.000671,137.581578 L334.26305,137.581578 L353.966558,186.840349 L350.981178,193.308672 C350.284589,195.000387 349.18995,196.194539 347.398722,196.194539 L336.850379,196.194539 L336.850379,205.946781 Z" id="Path"></path>
                <polygon id="Path" points="423.923963 186.044247 436.263534 186.044247 436.263534 127.530799 456.365093 127.530799 456.365093 116.38538 404.120943 116.38538 404.120943 127.530799 423.923963 127.530799"></polygon>
                <path d="M476.466652,187.039374 C484.129127,187.039374 490.497938,184.65107 494.378932,179.874462 L487.910609,173.1076 C485.124254,175.69493 481.939848,177.088107 477.063728,177.088107 C469.102714,177.088107 464.326106,172.411012 463.430492,165.345612 L496.369185,165.345612 C498.558464,147.930896 489.701837,136.586452 475.073474,136.586452 C461.141701,136.586452 451.986536,147.234307 451.986536,161.066568 L451.986536,162.061694 C451.986536,176.988595 461.937802,187.039374 476.466652,187.039374 Z M463.629518,157.185574 C464.624644,150.418712 468.505638,145.84113 475.172987,145.84113 C481.044234,145.84113 485.323279,149.921149 485.522304,157.185574 L463.629518,157.185574 Z" id="Shape"></path>
                <path d="M528.909827,187.039374 C536.07474,187.039374 542.841601,183.954481 546.722595,178.978848 L539.856221,172.112474 C536.870841,175.197366 533.08936,176.491031 529.108853,176.491031 C521.247352,176.491031 515.077567,171.017834 515.077567,162.360232 L515.077567,161.265593 C515.077567,152.607991 521.048327,147.134794 529.00934,147.134794 C533.08936,147.134794 536.870841,148.627484 539.557683,151.712377 L546.52357,144.646978 C542.642576,139.671344 536.07474,136.586452 528.909827,136.586452 C514.480491,136.586452 503.63361,146.537718 503.63361,161.265593 L503.63361,162.360232 C503.63361,176.889082 514.380978,187.039374 528.909827,187.039374 Z" id="Path"></path>
                <path d="M555.579222,186.044247 L567.023179,186.044247 L567.023179,159.27534 C567.023179,151.314326 571.8993,147.035282 578.069085,147.035282 C583.84082,147.035282 587.821327,150.617738 587.821327,159.076314 L587.821327,186.044247 L599.265283,186.044247 L599.265283,157.185574 C599.265283,143.950389 592.100371,136.586452 581.253491,136.586452 C576.775421,136.586452 570.605635,138.079142 566.625128,143.751364 L566.625128,113.4 L555.579222,113.4 L555.579222,186.044247 Z" id="Path"></path>
                <path d="M612.002905,186.044247 L623.446862,186.044247 L623.446862,159.27534 C623.446862,151.314326 628.322982,147.035282 634.492768,147.035282 C640.264502,147.035282 644.245009,150.617738 644.245009,159.076314 L644.245009,186.044247 L655.688966,186.044247 L655.688966,157.185574 C655.688966,143.950389 648.524054,136.586452 637.677173,136.586452 C633.199103,136.586452 627.029318,138.079142 623.048811,143.751364 L623.048811,137.581578 L612.002905,137.581578 L612.002905,186.044247 Z" id="Path"></path>
                <path d="M690.319374,187.039374 C704.450173,187.039374 715.197541,176.789569 715.197541,162.161207 L715.197541,161.16608 C715.197541,146.736744 704.450173,136.586452 690.319374,136.586452 C676.089063,136.586452 665.341695,146.836256 665.341695,161.265593 L665.341695,162.161207 C665.341695,176.789569 676.089063,187.039374 690.319374,187.039374 Z M676.885164,162.161207 L676.885164,161.265593 C676.885164,152.707504 682.457873,146.736744 690.319374,146.736744 C698.280387,146.736744 703.753584,152.707504 703.753584,161.16608 L703.753584,162.161207 C703.753584,170.818809 698.280387,176.988595 690.319374,176.988595 C682.457873,176.988595 676.885164,170.818809 676.885164,162.161207 Z" id="Shape"></path>
                <path d="M739.77717,186.044247 L745.548905,186.044247 L745.548905,176.491031 L740.473758,176.491031 C738.383992,176.491031 736.79179,174.898828 736.79179,172.809062 L736.79179,113.4 L717.287307,113.4 L717.287307,123.152241 L725.347833,123.152241 L725.347833,172.610037 C725.347833,180.969101 731.020055,186.044247 739.77717,186.044247 Z" id="Path"></path>
                <path d="M775.203679,187.039374 C789.334478,187.039374 800.081846,176.789569 800.081846,162.161207 L800.081846,161.16608 C800.081846,146.736744 789.334478,136.586452 775.203679,136.586452 C760.973368,136.586452 750.226,146.836256 750.226,161.265593 L750.226,162.161207 C750.226,176.789569 760.973368,187.039374 775.203679,187.039374 Z M761.769469,162.161207 L761.769469,161.265593 C761.769469,152.707504 767.342179,146.736744 775.203679,146.736744 C783.164693,146.736744 788.63789,152.707504 788.63789,161.16608 L788.63789,162.161207 C788.63789,170.818809 783.164693,176.988595 775.203679,176.988595 C767.342179,176.988595 761.769469,170.818809 761.769469,162.161207 Z" id="Shape"></path>
                <path d="M806.55017,205.946781 L837.100559,205.946781 C845.658648,205.946781 851.529895,200.175046 851.529895,192.313545 C851.529895,183.257893 845.857673,179.078361 837.598122,179.078361 L823.467323,179.078361 C821.576582,179.078361 821.576582,177.585671 822.173658,176.590544 L824.163912,172.510524 C825.656602,172.70955 827.149292,172.809062 828.741495,172.809062 C841.280091,172.809062 850.136718,165.445125 850.136718,154.896782 L850.136718,153.901656 C850.136718,146.935769 845.957186,141.462572 839.38935,138.576705 L845.658648,127.132748 L834.115179,127.132748 L829.736621,136.586452 L828.741495,136.586452 C816.103386,136.586452 807.246758,143.751364 807.246758,154.001168 L807.246758,154.896782 C807.246758,160.967055 810.132626,165.942688 815.008746,169.127094 L811.923854,175.296879 C808.838961,181.466665 810.729702,188.034501 818.292664,188.034501 L835.906407,188.034501 C839.190325,188.034501 840.782527,189.427678 840.782527,192.11452 C840.782527,194.900875 839.190325,196.493077 835.906407,196.493077 L806.55017,196.493077 L806.55017,205.946781 Z M818.49169,154.996295 L818.49169,154.498732 C818.49169,149.324073 822.671222,145.84113 828.741495,145.84113 C834.712255,145.84113 838.891787,149.324073 838.891787,154.399219 L838.891787,154.996295 C838.891787,160.369979 834.712255,164.051948 828.741495,164.051948 C822.671222,164.051948 818.49169,160.369979 818.49169,154.996295 Z" id="Shape"></path>
                <path d="M39.0089656,300.638399 C58.5134485,300.638399 72.6442472,286.010037 72.6442472,264.813839 L72.6442472,263.918225 C72.6442472,242.921052 58.5134485,228.591228 39.0089656,228.591228 C19.5044828,228.591228 5.37368404,242.921052 5.37368404,263.918225 L5.37368404,264.813839 C5.37368404,286.010037 19.5044828,300.638399 39.0089656,300.638399 Z M14.0312861,264.813839 L14.0312861,263.918225 C14.0312861,247.598147 24.3806035,236.850779 39.0089656,236.850779 C53.5378151,236.850779 63.9866452,247.598147 63.9866452,263.918225 L63.9866452,264.813839 C63.9866452,281.432454 53.5378151,292.378848 39.0089656,292.378848 C24.3806035,292.378848 14.0312861,281.432454 14.0312861,264.813839 Z" id="Shape"></path>
                <path d="M84.1877167,319.346781 L92.2482427,319.346781 L92.2482427,291.682259 C95.9302114,297.055943 101.801459,300.439374 108.866858,300.439374 C121.903018,300.439374 131.356721,290.488107 131.356721,275.760232 L131.356721,274.864618 C131.356721,260.534794 121.803505,250.583528 108.866858,250.583528 C101.602433,250.583528 95.5321608,254.165984 91.7506794,259.838206 L91.7506794,251.578654 L84.1877167,251.578654 L84.1877167,319.346781 Z M91.7506794,275.561207 C91.7506794,264.813839 98.5175408,257.74844 107.672706,257.74844 C116.628846,257.74844 123.296195,264.515301 123.296195,274.864618 L123.296195,275.760232 C123.296195,286.408088 116.628846,293.274462 107.672706,293.274462 C98.5175408,293.274462 91.7506794,286.308575 91.7506794,275.561207 Z" id="Shape"></path>
                <path d="M163.897363,300.439374 C170.86325,300.439374 176.933523,298.250095 180.615491,294.269589 L176.037909,289.293955 C173.152041,291.881285 169.271047,293.075437 164.295414,293.075437 C154.941223,293.075437 148.870951,286.806138 147.975336,277.949511 L182.605745,277.949511 C184.496485,261.430408 176.037909,250.583528 162.305161,250.583528 C148.870951,250.583528 139.91481,260.932845 139.91481,274.765106 L139.91481,275.760232 C139.91481,290.388595 149.667052,300.439374 163.897363,300.439374 Z M148.074849,271.381675 C149.169489,263.022611 154.344147,257.549414 162.404673,257.549414 C169.768611,257.549414 174.843757,262.62456 174.943269,271.381675 L148.074849,271.381675 Z" id="Shape"></path>
                <path d="M194.149214,299.444247 L202.20974,299.444247 L202.20974,272.575827 C202.20974,263.022611 208.280013,257.947465 215.64395,257.947465 C222.70935,257.947465 227.784496,262.22651 227.784496,272.476314 L227.784496,299.444247 L235.845022,299.444247 L235.845022,271.282162 C235.845022,257.549414 228.381572,250.583528 217.733716,250.583528 C212.65857,250.583528 205.792196,252.573781 201.911202,259.141617 L201.911202,251.578654 L194.149214,251.578654 L194.149214,299.444247 Z" id="Path"></path>
                <path d="M291.771141,300.638399 C306.001452,300.638399 315.853206,292.478361 315.853206,279.641226 C315.853206,254.365009 279.531083,265.709453 279.531083,247.996198 C279.531083,240.731773 285.302818,235.855653 294.258958,235.855653 C299.93118,235.855653 304.40925,237.845906 308.290244,241.826413 L313.76344,236.353216 C309.384883,231.576608 302.618022,228.591228 294.258958,228.591228 C280.227672,228.591228 271.072506,236.452729 271.072506,248.7923 C271.072506,272.874365 307.096092,262.22651 307.096092,280.835378 C307.096092,288.298828 301.42387,293.373975 292.069679,293.373975 C285.40233,293.373975 279.730108,290.886158 274.9535,285.412961 L269.579816,290.786645 C274.555449,296.856918 282.0189,300.638399 291.771141,300.638399 Z" id="Path"></path>
                <path d="M347.69726,300.439374 C361.430008,300.439374 371.480788,290.289082 371.480788,275.760232 L371.480788,274.665593 C371.480788,260.634307 361.430008,250.583528 347.69726,250.583528 C334.064025,250.583528 323.913733,260.634307 323.913733,274.864618 L323.913733,275.760232 C323.913733,290.289082 334.064025,300.439374 347.69726,300.439374 Z M331.874746,275.760232 L331.874746,274.864618 C331.874746,264.813839 338.442582,257.74844 347.69726,257.74844 C357.051451,257.74844 363.519774,264.714326 363.519774,274.665593 L363.519774,275.760232 C363.519774,286.10955 357.051451,293.274462 347.69726,293.274462 C338.442582,293.274462 331.874746,286.10955 331.874746,275.760232 Z" id="Shape"></path>
                <path d="M401.03605,300.439374 C406.111196,300.439374 412.878057,298.449121 416.759051,292.08031 L416.759051,299.444247 L423.824451,299.444247 L423.824451,251.578654 L415.863437,251.578654 L415.863437,278.6461 C415.863437,288.298828 409.793165,293.075437 402.628253,293.075437 C395.662366,293.075437 390.58722,289.592493 390.58722,279.342688 L390.58722,251.578654 L382.526694,251.578654 L382.526694,280.735866 C382.526694,294.468614 390.388194,300.439374 401.03605,300.439374 Z" id="Path"></path>
                <path d="M438.751351,299.444247 L446.811877,299.444247 L446.811877,271.083137 C446.811877,263.122124 451.38946,259.340642 459.151448,259.340642 L463.828543,259.340642 L463.828543,251.379629 L459.748524,251.379629 C453.877276,251.379629 448.80213,253.170857 446.513339,259.24113 L446.513339,251.578654 L438.751351,251.578654 L438.751351,299.444247 Z" id="Path"></path>
                <path d="M492.189653,300.439374 C499.15554,300.439374 505.325325,297.752532 509.206319,293.075437 L504.330199,288.199316 C501.145793,291.483234 497.065774,292.975924 492.289166,292.975924 C482.73595,292.975924 475.67055,286.209062 475.67055,276.05877 L475.67055,274.864618 C475.67055,264.714326 482.636437,258.046978 492.189653,258.046978 C497.065774,258.046978 501.145793,259.738693 504.131173,262.923098 L509.106807,257.947465 C505.1263,253.27037 499.15554,250.583528 492.189653,250.583528 C478.058854,250.583528 467.709537,260.534794 467.709537,274.864618 L467.709537,276.05877 C467.709537,290.388595 477.959342,300.439374 492.189653,300.439374 Z" id="Path"></path>
                <path d="M538.960607,300.439374 C545.926494,300.439374 551.996766,298.250095 555.678735,294.269589 L551.101152,289.293955 C548.215285,291.881285 544.334291,293.075437 539.358658,293.075437 C530.004467,293.075437 523.934194,286.806138 523.03858,277.949511 L557.668988,277.949511 C559.559729,261.430408 551.101152,250.583528 537.368404,250.583528 C523.934194,250.583528 514.978054,260.932845 514.978054,274.765106 L514.978054,275.760232 C514.978054,290.388595 524.730295,300.439374 538.960607,300.439374 Z M523.138093,271.381675 C524.232732,263.022611 529.407391,257.549414 537.467917,257.549414 C544.831854,257.549414 549.907,262.62456 550.006513,271.381675 L523.138093,271.381675 Z" id="Shape"></path>
                <polygon id="Path" points="588.816453 237.547368 601.056511 237.547368 601.056511 291.682259 588.816453 291.682259 588.816453 299.444247 622.053684 299.444247 622.053684 291.682259 609.614601 291.682259 609.614601 237.547368 622.053684 237.547368 622.053684 229.78538 588.816453 229.78538"></polygon>
                <path d="M631.805926,299.444247 L639.866452,299.444247 L639.866452,272.575827 C639.866452,263.022611 645.936724,257.947465 653.300662,257.947465 C660.366061,257.947465 665.441207,262.22651 665.441207,272.476314 L665.441207,299.444247 L673.501733,299.444247 L673.501733,271.282162 C673.501733,257.549414 666.038283,250.583528 655.390428,250.583528 C650.315282,250.583528 643.448908,252.573781 639.567914,259.141617 L639.567914,251.578654 L631.805926,251.578654 L631.805926,299.444247 Z" id="Path"></path>
                <path d="M721.168301,299.444247 L729.228827,299.444247 L729.228827,251.578654 L698.3799,251.578654 L698.3799,238.940545 C698.3799,235.855653 700.668692,233.666374 703.654072,233.666374 L712.709724,233.666374 L712.709724,226.8 L703.753584,226.8 C695.693058,226.8 690.319374,231.775633 690.319374,239.537621 L690.319374,251.578654 L681.562259,251.578654 L681.562259,258.544541 L690.319374,258.544541 L690.319374,299.444247 L698.3799,299.444247 L698.3799,258.544541 L721.168301,258.544541 L721.168301,299.444247 Z M720.869763,241.030311 L729.626878,241.030311 L729.626878,229.486842 L720.869763,229.486842 L720.869763,241.030311 Z" id="Shape"></path>
                <path d="M744.155727,299.444247 L752.216253,299.444247 L752.216253,272.575827 C752.216253,263.022611 758.286526,257.947465 765.650463,257.947465 C772.715863,257.947465 777.791009,262.22651 777.791009,272.476314 L777.791009,299.444247 L785.851535,299.444247 L785.851535,271.282162 C785.851535,257.549414 778.388085,250.583528 767.740229,250.583528 C762.665083,250.583528 755.798709,252.573781 751.917715,259.141617 L751.917715,251.578654 L744.155727,251.578654 L744.155727,299.444247 Z" id="Path"></path>
                <path d="M802.967714,299.444247 L811.02824,299.444247 L811.02824,251.578654 L793.713036,251.578654 L793.713036,258.544541 L802.967714,258.544541 L802.967714,299.444247 Z M802.669176,241.030311 L811.42629,241.030311 L811.42629,229.486842 L802.669176,229.486842 L802.669176,241.030311 Z" id="Shape"></path>
                <path d="M842.275217,299.444247 L849.639155,299.444247 L849.639155,292.577873 L842.37473,292.577873 C839.38935,292.577873 837.100559,290.289082 837.100559,287.204189 L837.100559,258.544541 L849.639155,258.544541 L849.639155,251.578654 L837.100559,251.578654 L837.100559,239.736647 L829.139545,239.736647 L829.139545,251.578654 L820.38243,251.578654 L820.38243,258.544541 L829.139545,258.544541 L829.139545,286.706626 C829.139545,295.961304 835.707381,299.444247 842.275217,299.444247 Z" id="Path"></path>
                <path d="M70.2559432,413.839374 C83.3916153,413.839374 92.8453187,403.689082 92.8453187,389.359258 L92.8453187,388.264618 C92.8453187,374.432358 83.3916153,364.580604 70.2559432,364.580604 C57.0207584,364.580604 47.4675424,374.53187 47.4675424,388.563156 L47.4675424,389.359258 C47.4675424,403.689082 57.0207584,413.839374 70.2559432,413.839374 Z M52.0451251,389.359258 L52.0451251,388.563156 C52.0451251,377.019687 59.6080878,368.859648 70.2559432,368.859648 C80.804286,368.859648 88.267736,376.820662 88.267736,388.264618 L88.267736,389.359258 C88.267736,401.300778 80.804286,409.659842 70.2559432,409.659842 C59.6080878,409.659842 52.0451251,401.300778 52.0451251,389.359258 Z" id="Shape"></path>
                <path d="M119.514714,412.844247 L126.381088,412.844247 L126.381088,408.764228 L119.514714,408.764228 C115.534207,408.764228 112.548827,405.778848 112.548827,401.798341 L112.548827,369.755262 L126.381088,369.755262 L126.381088,365.57573 L112.548827,365.57573 L112.548827,353.733723 L107.971244,353.733723 L107.971244,365.57573 L98.8160788,365.57573 L98.8160788,369.755262 L107.971244,369.755262 L107.971244,401.599316 C107.971244,408.963253 113.344928,412.844247 119.514714,412.844247 Z" id="Path"></path>
                <path d="M156.135375,413.839374 C162.404673,413.839374 168.176408,411.849121 171.659351,408.565203 L168.972509,405.48031 C165.987129,408.067639 161.310034,409.560329 156.234888,409.560329 C145.089469,409.560329 137.526506,401.499803 137.227968,390.055846 L173.649605,390.055846 C175.241807,374.929921 167.181281,364.580604 154.344147,364.580604 C141.4075,364.580604 132.650386,374.53187 132.650386,388.364131 L132.650386,389.359258 C132.650386,403.788595 142.303114,413.839374 156.135375,413.839374 Z M137.327481,386.174852 C138.123582,375.825535 144.691418,368.760136 154.344147,368.760136 C163.3998,368.760136 169.569585,375.526997 169.271047,386.174852 L137.327481,386.174852 Z" id="Shape"></path>
                <path d="M186.486739,412.844247 L191.064322,412.844247 L191.064322,385.975827 C191.064322,374.730896 198.428259,368.959161 206.986348,368.959161 C215.2459,368.959161 221.415685,373.835282 221.415685,385.975827 L221.415685,412.844247 L225.993268,412.844247 L225.993268,385.478264 C225.993268,371.14844 218.430305,364.580604 207.881962,364.580604 C202.110228,364.580604 194.646778,367.167933 190.865296,374.730896 L190.865296,365.57573 L186.486739,365.57573 L186.486739,412.844247 Z" id="Path"></path>
                <path d="M255.249992,412.844247 L262.116366,412.844247 L262.116366,408.764228 L255.249992,408.764228 C251.269485,408.764228 248.284105,405.778848 248.284105,401.798341 L248.284105,369.755262 L262.116366,369.755262 L262.116366,365.57573 L248.284105,365.57573 L248.284105,353.733723 L243.706523,353.733723 L243.706523,365.57573 L234.551357,365.57573 L234.551357,369.755262 L243.706523,369.755262 L243.706523,401.599316 C243.706523,408.963253 249.080207,412.844247 255.249992,412.844247 Z" id="Path"></path>
                <path d="M276.943754,412.844247 L281.521336,412.844247 L281.521336,365.57573 L267.091999,365.57573 L267.091999,369.755262 L276.943754,369.755262 L276.943754,412.844247 Z M276.744728,354.231286 L281.720362,354.231286 L281.720362,344.180507 L276.744728,344.180507 L276.744728,354.231286 Z" id="Shape"></path>
                <path d="M327.396676,412.844247 L331.576208,412.844247 C331.377183,407.470563 331.27767,402.295904 331.27767,396.92222 L331.27767,381.99532 C331.27767,370.252826 324.411296,364.580604 313.862953,364.580604 C307.295117,364.580604 300.428743,366.869395 296.050186,371.845028 L298.43849,375.128946 C302.319484,370.849902 308.389756,368.859648 313.76344,368.859648 C322.022992,368.859648 326.700087,372.939668 326.700087,381.99532 L326.700087,391.050973 C323.81422,388.065593 319.137125,386.274365 312.668801,386.274365 C301.125332,386.274365 294.258958,392.145612 294.258958,400.106626 C294.258958,408.366177 301.224844,413.839374 312.370263,413.839374 C319.833713,413.839374 324.809347,411.351557 327.297163,407.172025 L327.396676,412.844247 Z M298.936053,400.007113 C298.936053,394.036353 304.210224,390.055846 313.066852,390.055846 C321.823967,390.055846 326.700087,394.036353 326.700087,400.106626 C326.700087,406.077386 321.823967,410.157405 313.066852,410.157405 C304.309737,410.157405 298.936053,405.977873 298.936053,400.007113 Z" id="Shape"></path>
                <path d="M358.544141,412.844247 L362.723673,412.844247 L362.723673,408.764228 L358.743166,408.764228 C354.762659,408.764228 351.777279,405.778848 351.777279,401.897854 L351.777279,340.2 L337.646481,340.2 L337.646481,344.280019 L347.199697,344.280019 L347.199697,401.798341 C347.199697,408.366177 351.876792,412.844247 358.544141,412.844247 Z" id="Path"></path>
                <path d="M396.55798,412.844247 L418.450767,412.844247 C437.457686,412.844247 451.887023,398.315398 451.887023,377.616763 L451.887023,376.422611 C451.887023,356.918128 437.557199,343.18538 418.450767,343.18538 L396.55798,343.18538 L396.55798,412.844247 Z M401.334588,408.266665 L401.334588,347.762963 L418.152229,347.762963 C434.770844,347.762963 447.110415,359.505457 447.110415,376.422611 L447.110415,377.616763 C447.110415,395.628556 434.671331,408.266665 418.152229,408.266665 L401.334588,408.266665 Z" id="Shape"></path>
                <path d="M469.102714,412.844247 L473.680297,412.844247 L473.680297,365.57573 L459.25096,365.57573 L459.25096,369.755262 L469.102714,369.755262 L469.102714,412.844247 Z M468.903689,354.231286 L473.879322,354.231286 L473.879322,344.180507 L468.903689,344.180507 L468.903689,354.231286 Z" id="Shape"></path>
                <path d="M484.527178,432.746781 L512.58975,432.746781 C520.849301,432.746781 526.222985,427.87066 526.222985,420.506723 C526.222985,413.142785 520.948814,408.963253 512.788775,408.963253 L499.056027,408.963253 C494.179907,408.963253 494.378932,405.082259 495.772109,402.693955 L498.558464,397.220758 C500.946768,398.01686 503.534097,398.41491 506.320452,398.41491 C517.764409,398.41491 525.824935,391.449024 525.824935,381.59727 L525.824935,380.50263 C525.824935,373.337718 520.948814,367.765009 513.485364,365.57573 L519.555637,354.032261 L514.878541,354.032261 L509.504857,364.779629 C508.509731,364.680116 507.415091,364.580604 506.320452,364.580604 C494.776983,364.580604 486.716456,371.247952 486.716456,380.801168 L486.716456,381.59727 C486.716456,387.667542 489.801349,392.643176 494.776983,395.529043 L491.393552,402.196392 C489.005248,406.873487 490.1994,412.844247 497.66285,412.844247 L512.291212,412.844247 C518.162459,412.844247 521.844428,415.730115 521.844428,420.40721 C521.844428,425.581869 518.162459,428.766274 512.291212,428.766274 L484.527178,428.766274 L484.527178,432.746781 Z M491.194527,381.696782 L491.194527,380.900681 C491.194527,373.636256 497.364312,368.56111 506.320452,368.56111 C515.077567,368.56111 521.247352,373.536744 521.247352,380.602143 L521.247352,381.696782 C521.247352,389.259745 515.077567,394.533916 506.320452,394.533916 C497.364312,394.533916 491.194527,389.259745 491.194527,381.696782 Z" id="Shape"></path>
                <path d="M541.746962,412.844247 L546.324544,412.844247 L546.324544,365.57573 L531.895208,365.57573 L531.895208,369.755262 L541.746962,369.755262 L541.746962,412.844247 Z M541.547936,354.231286 L546.52357,354.231286 L546.52357,344.180507 L541.547936,344.180507 L541.547936,354.231286 Z" id="Shape"></path>
                <path d="M577.173471,412.844247 L584.039845,412.844247 L584.039845,408.764228 L577.173471,408.764228 C573.192965,408.764228 570.207584,405.778848 570.207584,401.798341 L570.207584,369.755262 L584.039845,369.755262 L584.039845,365.57573 L570.207584,365.57573 L570.207584,353.733723 L565.630002,353.733723 L565.630002,365.57573 L556.474836,365.57573 L556.474836,369.755262 L565.630002,369.755262 L565.630002,401.599316 C565.630002,408.963253 571.003686,412.844247 577.173471,412.844247 Z" id="Path"></path>
                <path d="M624.740526,412.844247 L628.920058,412.844247 C628.721033,407.470563 628.62152,402.295904 628.62152,396.92222 L628.62152,381.99532 C628.62152,370.252826 621.755146,364.580604 611.206803,364.580604 C604.638967,364.580604 597.772593,366.869395 593.394036,371.845028 L595.78234,375.128946 C599.663334,370.849902 605.733607,368.859648 611.107291,368.859648 C619.366842,368.859648 624.043938,372.939668 624.043938,381.99532 L624.043938,391.050973 C621.15807,388.065593 616.480975,386.274365 610.012651,386.274365 C598.469182,386.274365 591.602808,392.145612 591.602808,400.106626 C591.602808,408.366177 598.568695,413.839374 609.714113,413.839374 C617.177564,413.839374 622.153197,411.351557 624.641014,407.172025 L624.740526,412.844247 Z M596.279903,400.007113 C596.279903,394.036353 601.554075,390.055846 610.410702,390.055846 C619.167817,390.055846 624.043938,394.036353 624.043938,400.106626 C624.043938,406.077386 619.167817,410.157405 610.410702,410.157405 C601.653587,410.157405 596.279903,405.977873 596.279903,400.007113 Z" id="Shape"></path>
                <path d="M655.887991,412.844247 L660.067523,412.844247 L660.067523,408.764228 L656.087016,408.764228 C652.10651,408.764228 649.12113,405.778848 649.12113,401.897854 L649.12113,340.2 L634.990331,340.2 L634.990331,344.280019 L644.543547,344.280019 L644.543547,401.798341 C644.543547,408.366177 649.220642,412.844247 655.887991,412.844247 Z" id="Path"></path>
                <path d="M709.823857,413.938887 C723.258067,413.938887 732.512745,406.276411 732.512745,393.837328 C732.512745,368.56111 694.896957,381.199219 694.896957,360.998147 C694.896957,352.241033 701.862844,346.369785 712.311674,346.369785 C718.481459,346.369785 723.258067,348.360039 727.039548,352.14152 L730.124441,348.957115 C726.143934,344.578557 719.974149,342.090741 712.411186,342.090741 C698.976976,342.090741 690.219861,349.753216 690.219861,361.495711 C690.219861,385.378751 727.636624,373.238206 727.636624,394.434404 C727.636624,403.589569 720.77025,409.659842 709.92337,409.659842 C702.559432,409.659842 696.290134,406.873487 691.911577,401.599316 L688.926197,404.684209 C693.503779,410.455943 700.668692,413.938887 709.823857,413.938887 Z" id="Path"></path>
                <path d="M770.825122,413.938887 C786.05056,413.938887 795.802802,405.082259 795.802802,389.856821 L795.802802,343.18538 L791.125706,343.18538 L791.125706,389.558283 C791.125706,401.997366 783.264205,409.361304 770.825122,409.361304 C758.485551,409.361304 750.624051,401.997366 750.624051,389.558283 L750.624051,343.18538 L745.946955,343.18538 L745.946955,389.856821 C745.946955,405.082259 755.599684,413.938887 770.825122,413.938887 Z" id="Path"></path>
                <path d="M830.234185,413.938887 C843.668395,413.938887 852.923073,406.276411 852.923073,393.837328 C852.923073,368.56111 815.307284,381.199219 815.307284,360.998147 C815.307284,352.241033 822.273171,346.369785 832.722001,346.369785 C838.891787,346.369785 843.668395,348.360039 847.449876,352.14152 L850.534769,348.957115 C846.554262,344.578557 840.384477,342.090741 832.821514,342.090741 C819.387304,342.090741 810.630189,349.753216 810.630189,361.495711 C810.630189,385.378751 848.046952,373.238206 848.046952,394.434404 C848.046952,403.589569 841.180578,409.659842 830.333697,409.659842 C822.96976,409.659842 816.700462,406.873487 812.321904,401.599316 L809.336524,404.684209 C813.914107,410.455943 821.079019,413.938887 830.234185,413.938887 Z" id="Path"></path>
            </g>
        </g>
    </g>
</svg>