<svg xmlns="http://www.w3.org/2000/svg" width="1920" height="1080" fill="none"><path fill="#FF6D7F" d="M466.672 963.813h220.455V790.004H466.672v173.809ZM1078.55 963.562h357.67V789.753h-357.67v173.809Z"/><mask id="a" width="1195" height="862" x="355" y="102" maskUnits="userSpaceOnUse" style="mask-type:luminance"><path fill="#fff" d="M355 963.81h1194.46V102.84H355v860.97Z"/></mask><g mask="url(#a)"><path fill="#1A73E8" d="M1257.12 102.84c-211.73 0-292.343 107.809-292.343 316.622v338.957h92.293V424.315c0-152.479 33.02-239.889 200.05-239.889s200.05 87.41 200.05 239.889v334.104h92.29V419.462c0-208.813-80.61-316.622-292.34-316.622Z"/><path fill="#D2E3FC" d="M1078.42 758.422h357.41V424.318c0-171.929-48.56-218.527-178.7-218.527-146.66 0-178.71 72.845-178.71 218.527v334.104Z"/><path fill="#1A73E8" d="M798.849 758.424V441.802c0-135.969-59.244-216.582-190.359-216.582-115.578 0-185.507 76.725-207.842 180.646l44.702 48.565c0-93.243 67.992-144.717 140.829-144.717 63.132 0 122.375 39.825 122.375 138.885v309.825h90.295Z"/></g><path fill="#1A73E8" d="M355 758.418h90.327V238.807H355v519.611Z"/><mask id="b" width="1195" height="862" x="355" y="104" maskUnits="userSpaceOnUse" style="mask-type:luminance"><path fill="#fff" d="M355 965.159h1194.46V104.188H355v860.971Z"/></mask><g mask="url(#b)"><path fill="#D2E3FC" d="M466.688 759.769h220.47V449.944c0-74.781-39.825-117.514-101.012-117.514-68.956 0-119.458 49.53-119.458 125.259v302.08Z"/></g></svg>