<svg xmlns="http://www.w3.org/2000/svg" width="1920" height="1080" fill="none"><path fill="#FF6D7F" d="M387.46 379.26h69.56V306h-69.56v73.26Zm158.36 0h69.56V306h-69.56v73.26Zm-45.14 75.48c-97.68 0-168.72 71.78-168.72 184.26v48.84c0 119.88 78.44 184.26 183.52 184.26 62.16 0 101.38-9.62 145.04-34.78V775.9c-51.06 31.08-88.06 35.52-138.38 35.52-69.56 0-119.88-42.92-121.36-118.4h269.36V631.6c0-119.88-71.78-176.86-169.46-176.86Zm0 60.68c63.64 0 100.64 37 100.64 112.48v6.66H400.78c0-74.74 36.26-119.14 99.9-119.14ZM1341.46 379.26h69.56V306h-69.56v73.26Zm158.36 0h69.56V306h-69.56v73.26Zm-45.14 75.48c-97.68 0-168.72 71.78-168.72 184.26v48.84c0 119.88 78.44 184.26 183.52 184.26 62.16 0 101.38-9.62 145.04-34.78V775.9c-51.06 31.08-88.06 35.52-138.38 35.52-69.56 0-119.88-42.92-121.36-118.4h269.36V631.6c0-119.88-71.78-176.86-169.46-176.86Zm0 60.68c63.64 0 100.64 37 100.64 112.48v6.66h-200.54c0-74.74 36.26-119.14 99.9-119.14Z"/><path fill="#1A73E8" d="m958.72 554.68 37.62-42.46c11.66 5.06 11.44 19.8 4.84 27.94l-11.44 14.08 4.18 3.08h93.28c14.52 0 14.96 22.44-.44 22.44H992.6v5.28h65.56v17.38H992.6v4.84h65.56c0 8.58-1.76 15.18-9.24 15.18H992.6v4.84h50.82c0 11.66-2.86 17.16-10.34 17.16h-55.22c-7.26 0-13.86-.44-19.58-2.86l-62.26-27.06v5.28l58.3 25.74c4.84 2.2 11.66 3.96 21.12 3.96h55c14.52 0 18.48-9.02 18.48-22.44 10.34 0 14.74-7.92 14.74-20.24v-21.78H1085c9.68 0 18.7-4.62 18.7-16.5 0-10.12-6.82-16.5-18.48-16.5h-87.56l5.94-6.82c10.12-11.44 10.56-27.5-3.52-36.52h-7.48l-36.08 40.48h-60.28v5.5h62.48ZM439 378.72h57.72l73.26-113.22h-65.86L439 378.72ZM1410 265.72h57.72l73.26-113.22h-65.86L1410 265.72Z"/></svg>