<svg width="1920" height="1080" fill="none" xmlns="http://www.w3.org/2000/svg"><mask id="a" style="mask-type:alpha" maskUnits="userSpaceOnUse" x="50" y="50" width="1820" height="980"><path fill="#C4C4C4" d="M50 50h1820v980H50z"/></mask><g mask="url(#a)" fill="#3C4043"><path d="m-268.84 986.12 19.68 46.32 17.28-46.32h32.64l-47.28 111.12-33.6-69.6-30.72 69.6-47.76-111.12h32.64l19.44 44.4 14.64-32.4-5.52-12h28.56Zm89.183 0h33.6V1091h-33.6V986.12Zm-.72-37.2c0-4.96 1.92-9.04 5.76-12.24 4-3.2 8.24-4.8 12.72-4.8s8.56 1.6 12.24 4.8c3.84 3.2 5.76 7.28 5.76 12.24s-1.92 9.04-5.76 12.24c-3.68 3.04-7.76 4.56-12.24 4.56s-8.72-1.52-12.72-4.56c-3.84-3.2-5.76-7.28-5.76-12.24Zm78.763-8.88h33.6v45.6h25.44v26.16h-25.44v79.2h-33.6v-79.2h-16.32v-26.16h16.32v-45.6ZM-17.001 1091V901.64h32.88v101.04c3.68-6.4 8.88-11.6 15.6-15.6 6.72-4 14.88-6 24.48-6 9.92 0 18.16 2.96 24.72 8.88 6.72 5.76 10.16 13.28 10.32 22.56V1091h-33.6v-66c-.16-4.64-1.44-8.32-3.84-11.04-2.24-2.88-6.08-4.32-11.52-4.32-7.84 0-14.08 3.68-18.72 11.04-4.48 7.2-6.72 16.4-6.72 27.6V1091h-33.6Zm134.34-53.76c0-10.72 2.48-20.32 7.44-28.8 5.12-8.48 12.24-15.12 21.36-19.92 9.12-4.96 19.6-7.44 31.44-7.44 12 0 22.4 2.48 31.2 7.44 8.8 4.8 15.52 11.44 20.16 19.92 4.8 8.48 7.2 18.08 7.2 28.8 0 10.72-2.4 20.4-7.2 29.04-4.64 8.48-11.36 15.2-20.16 20.16-8.8 4.96-19.36 7.44-31.68 7.44-11.52 0-21.84-2.24-30.96-6.72-8.96-4.48-16-10.96-21.12-19.44-5.12-8.48-7.68-18.64-7.68-30.48Zm33.84.24c0 8.32 2.4 15.28 7.2 20.88 4.8 5.44 10.88 8.16 18.24 8.16 7.84 0 14.08-2.72 18.72-8.16 4.64-5.6 6.96-12.56 6.96-20.88 0-8.32-2.32-15.2-6.96-20.64-4.64-5.6-10.88-8.4-18.72-8.4-7.36 0-13.44 2.8-18.24 8.4-4.8 5.44-7.2 12.32-7.2 20.64Zm145.269 58.56c-9.44 0-17.36-2.88-23.76-8.64-6.4-5.92-9.76-13.52-10.08-22.8v-78.48h33.6v66c.32 4.64 1.52 8.4 3.6 11.28 2.08 2.72 5.6 4.08 10.56 4.08 7.52 0 13.44-3.6 17.76-10.8 4.32-7.36 6.48-16.64 6.48-27.84v-42.72h33.6V1091h-30.48l-2.4-16.8c-3.52 6.56-8.56 11.84-15.12 15.84-6.56 4-14.48 6-23.76 6Zm116.156-156h33.6v45.6h25.44v26.16h-25.44v79.2h-33.6v-79.2h-16.32v-26.16h16.32v-45.6ZM547.091 1091h15.682l31.022-107.301h1.62L626.438 1091h15.681l39.546-130.909h-16.023l-31.023 107.729h-1.193l-30.682-107.729h-16.108l-30.937 107.979h-1.108l-31.023-107.979h-16.023L547.091 1091Zm164.233 0h15.256V960.091h-15.256V1091Zm7.756-153.409c6.221 0 11.42-4.943 11.42-10.909 0-5.966-5.199-10.909-11.42-10.909-6.222 0-11.336 4.943-11.336 10.909 0 5.966 5.114 10.909 11.336 10.909Zm99.183 22.5h-27.699v-31.364h-15.256v31.364h-19.517v13.21h19.517v87.099c0 21.4 16.875 32.56 33.665 32.56 6.307 0 10.568-1.19 13.466-2.3l-3.239-13.72c-2.13.59-4.858 1.19-8.863 1.19-10.313 0-19.773-4.86-19.773-21.31v-83.519h27.699v-13.21Zm52.436 49.089c0-22.839 15.341-36.902 36.307-36.902 20.284 0 33.238 13.296 33.238 34.862V1091H955.5v-84.8c0-31.194-18.068-47.814-44.659-47.814-19.773 0-32.642 8.694-38.779 22.245h-1.363v-64.176h-15.171V1091h15.171v-81.82Zm175.631 84.55c33.92 0 57.61-27.7 57.61-67.59 0-40.14-23.69-67.839-57.61-67.839S988.717 986 988.717 1026.14c0 39.89 23.693 67.59 57.613 67.59Zm0-13.89c-27.19 0-42.36-24.38-42.36-53.7 0-29.316 15.17-54.032 42.36-54.032 27.19 0 42.36 24.716 42.36 54.032 0 29.32-15.17 53.7-42.36 53.7Zm174.1-38.87c0 24.04-18.07 36.99-35.8 36.99-18.92 0-32.21-13.55-32.21-34.01v-83.859h-15.17v84.799c0 31.02 17.89 47.81 43.04 47.81 19.17 0 32.81-9.97 38.95-23.43h1.19V1091h15.17V960.091h-15.17v80.879Zm106.9-80.879h-27.7v-31.364h-15.26v31.364h-19.52v13.21h19.52v87.099c0 21.4 16.88 32.56 33.67 32.56 6.3 0 10.56-1.19 13.46-2.3l-3.24-13.72c-2.13.59-4.86 1.19-8.86 1.19-10.31 0-19.77-4.86-19.77-21.31v-83.519h27.7v-13.21ZM1364.88 973.4h25.44l22.56 93.84 24.96-90.24h22.32l25.2 90.24 22.56-93.84h25.44l-35.52 117.6h-24.24l-24.48-86.88-24.72 86.88h-24.24l-35.28-117.6Zm185.67-50.4h21.6v24h-21.6v-24Zm0 50.4h21.6V1091h-21.6V973.4Zm91.42 120c-10.4 0-18.16-2.72-23.28-8.16-4.96-5.44-7.44-12.08-7.44-19.92V990.2h-20.16l1.92-16.8h18.24v-29.04l21.6-2.16v31.2h30.96v16.8h-30.96v61.92c0 8.16.48 13.76 1.44 16.8.96 3.04 2.96 5.04 6 6 3.2.8 8.96 1.2 17.28 1.2h5.52l-1.68 17.28h-19.44Zm96.46-122.4c14.88 0 26.24 4.88 34.08 14.64 7.84 9.76 11.76 23.04 11.76 39.84V1091h-21.6v-62.88c0-12.96-2.4-22.48-7.2-28.56-4.64-6.24-11.92-9.36-21.84-9.36-6.08 0-11.68 1.44-16.8 4.32-5.12 2.72-9.44 6.64-12.96 11.76V1091h-21.84V911h21.84v73.68c4.64-4.48 9.68-7.84 15.12-10.08 5.6-2.4 12.08-3.6 19.44-3.6Zm125.27 122.4c-12 0-22.4-2.64-31.2-7.92-8.8-5.44-15.52-12.8-20.16-22.08-4.64-9.28-6.96-19.68-6.96-31.2s2.32-21.92 6.96-31.2c4.64-9.28 11.36-16.56 20.16-21.84 8.8-5.44 19.2-8.16 31.2-8.16 11.84 0 22.16 2.72 30.96 8.16 8.96 5.28 15.76 12.56 20.4 21.84 4.64 9.28 6.96 19.68 6.96 31.2s-2.32 21.92-6.96 31.2c-4.64 9.28-11.44 16.64-20.4 22.08-8.8 5.28-19.12 7.92-30.96 7.92Zm0-19.2c11.52 0 20.4-3.68 26.64-11.04 6.4-7.36 9.6-17.68 9.6-30.96 0-13.28-3.2-23.6-9.6-30.96-6.24-7.36-15.12-11.04-26.64-11.04-11.52 0-20.48 3.68-26.88 11.04-6.24 7.36-9.36 17.68-9.36 30.96 0 13.28 3.12 23.6 9.36 30.96 6.4 7.36 15.36 11.04 26.88 11.04Zm177.08-100.8V1091h-19.2l-2.4-12.96c-3.84 5.28-8.4 9.2-13.68 11.76-5.12 2.4-11.44 3.6-18.96 3.6-14.08 0-24.88-4.24-32.4-12.72-7.36-8.64-11.04-21.6-11.04-38.88v-68.4h21.6v62.4c0 12.8 2.16 22.4 6.48 28.8 4.48 6.4 11.44 9.6 20.88 9.6 5.6 0 10.8-1.12 15.6-3.36 4.96-2.24 8.8-5.52 11.52-9.84v-87.6h21.6Zm69.94 120c-10.4 0-18.16-2.72-23.28-8.16-4.96-5.44-7.44-12.08-7.44-19.92V990.2h-20.16l1.92-16.8H2080v-29.04l21.6-2.16v31.2h30.96v16.8h-30.96v61.92c0 8.16.48 13.76 1.44 16.8.96 3.04 2.96 5.04 6 6 3.2.8 8.96 1.2 17.28 1.2h5.52l-1.68 17.28h-19.44ZM-378.4 70.08c-.8-3.04-1.76-6.8-2.88-11.28-1.12-4.64-2.32-9.44-3.6-14.4-1.12-4.96-2.16-9.52-3.12-13.68s-1.68-7.36-2.16-9.6h-.96c-.48 2.24-1.2 5.44-2.16 9.6-.96 4.16-2 8.8-3.12 13.92-1.12 4.96-2.32 9.76-3.6 14.4-1.12 4.48-2.08 8.24-2.88 11.28L-418 126h-33.12L-487.6-4.32h30.48l16.08 62.16c1.12 4.32 2.16 9.12 3.12 14.4 1.12 5.12 2 10.16 2.64 15.12.8 4.8 1.44 8.72 1.92 11.76h.96c.32-2.88.88-6.8 1.68-11.76.96-4.96 1.92-9.76 2.88-14.4.96-4.8 1.76-8.4 2.4-10.8l18.72-66.48h33.12l18 66.48a820.9 820.9 0 0 1 2.4 11.28c1.12 4.64 2.08 9.36 2.88 14.16.8 4.64 1.28 8.4 1.44 11.28h.96c.32-2.56.88-6.24 1.68-11.04.8-4.8 1.76-9.92 2.88-15.36 1.12-5.44 2.32-10.32 3.6-14.64l16.32-62.16h30L-330.4 126H-364l-14.4-55.92Zm122.179-124.32c4.64 0 8.56 1.2 11.76 3.6 3.36 2.24 5.04 6.32 5.04 12.24s-1.68 10.08-5.04 12.48c-3.2 2.4-7.12 3.6-11.76 3.6s-8.64-1.2-12-3.6c-3.2-2.4-4.8-6.56-4.8-12.48 0-5.92 1.6-10 4.8-12.24 3.36-2.4 7.36-3.6 12-3.6Zm15.12 50.16V126h-30.24V-4.08h30.24Zm89.066 108.24c3.68 0 7.28-.32 10.8-.96 3.68-.8 7.04-1.68 10.08-2.64v22.56c-3.2 1.44-7.36 2.64-12.48 3.6-5.12 1.12-10.48 1.68-16.08 1.68-7.36 0-14.08-1.2-20.16-3.6-6.08-2.56-10.88-6.88-14.4-12.96-3.52-6.08-5.28-14.56-5.28-25.44V18.72h-17.52V5.52l19.2-10.56 9.6-27.6h18.96v28.56h36.96v22.8h-36.96v67.44c0 6.08 1.6 10.64 4.8 13.68 3.2 2.88 7.36 4.32 12.48 4.32Zm77.34-117.12c0 5.12-.24 10.16-.72 15.12-.32 4.8-.64 8.4-.96 10.8h1.92c4.16-6.56 9.6-11.44 16.32-14.64 6.72-3.2 14.16-4.8 22.32-4.8 14.72 0 26.24 3.76 34.56 11.28 8.32 7.52 12.48 19.68 12.48 36.48V126h-30.24V47.28c0-19.52-8-29.28-24-29.28-12.16 0-20.48 3.84-24.96 11.52s-6.72 18.64-6.72 32.88V126h-30.24V-56.4h30.24v43.44Zm239.904 73.68c0 21.6-5.6 38.32-16.8 50.16-11.2 11.68-26.4 17.52-45.6 17.52-11.84 0-22.4-2.64-31.68-7.92-9.28-5.28-16.56-12.96-21.84-23.04-5.28-10.08-7.92-22.32-7.92-36.72 0-21.6 5.52-38.16 16.56-49.68 11.2-11.68 26.4-17.52 45.6-17.52 12 0 22.64 2.64 31.92 7.92 9.28 5.12 16.56 12.72 21.84 22.8 5.28 9.92 7.92 22.08 7.92 36.48Zm-92.88 0c0 13.76 2.4 24.4 7.2 31.92 4.96 7.52 12.88 11.28 23.76 11.28s18.72-3.76 23.52-11.28c4.96-7.52 7.44-18.16 7.44-31.92 0-13.76-2.48-24.32-7.44-31.68-4.8-7.36-12.72-11.04-23.76-11.04-10.72 0-18.56 3.68-23.52 11.04-4.8 7.36-7.2 17.92-7.2 31.68Zm239.582-64.8V126h-23.76l-4.08-16.8h-1.44c-4.32 6.72-10.16 11.6-17.52 14.64-7.2 3.04-14.88 4.56-23.04 4.56-14.56 0-26-3.76-34.32-11.28-8.16-7.52-12.24-19.6-12.24-36.24V-4.08h30.24v78.96c0 19.36 8 29.04 24 29.04 12.16 0 20.48-3.76 24.96-11.28 4.64-7.68 6.96-18.72 6.96-33.12v-63.6h30.24Zm88.945 108.24c3.68 0 7.28-.32 10.8-.96 3.68-.8 7.04-1.68 10.08-2.64v22.56c-3.2 1.44-7.36 2.64-12.48 3.6-5.12 1.12-10.48 1.68-16.08 1.68-7.36 0-14.08-1.2-20.16-3.6-6.08-2.56-10.88-6.88-14.4-12.96-3.52-6.08-5.28-14.56-5.28-25.44V18.72h-17.52V5.52l19.2-10.56 9.6-27.6h18.96v28.56h36.96v22.8h-36.96v67.44c0 6.08 1.6 10.64 4.8 13.68 3.2 2.88 7.36 4.32 12.48 4.32ZM486.92 126h20.52L539 16.08 570.92 126h20.4L620-1.44h-15.48l-23.64 114.6-33.6-114.6H530.6l-33.24 114.6-24-114.6h-15.48L486.92 126Zm171-159.6c6.12 0 11.28-3.84 11.28-9.96 0-5.88-5.16-9.84-11.28-9.84-6.24 0-11.4 3.96-11.4 9.84 0 6 5.16 9.96 11.4 9.96ZM650.48 126h14.64V-1.44h-14.64V126Zm101.216 1.92c5.64 0 10.8-.96 13.44-2.04v-12.96c-2.28.96-7.08 1.92-11.52 1.92-11.88 0-15.24-8.52-15.24-23.04V11.64h40.8V-1.44h-40.8V-42.6h-14.88v31.08c0 9.72-.24 10.08-8.64 10.08h-22.08v13.08h30.72V97.2c0 24.84 13.68 30.72 28.2 30.72Zm55.673-1.92h14.88V47.64c0-20.04 17.28-36.84 41.52-36.84 24 0 35.4 14.4 35.4 40.56V126h14.76V48.72c0-32.4-17.16-51.96-47.64-51.96-18.96 0-34.56 8.04-44.04 20.16v-78.48h-14.88V126Zm204.331 2.16c37.44 0 63.84-28.2 63.84-66 0-37.92-26.4-65.28-63.84-65.28-37.441 0-63.841 27.36-63.841 65.28 0 37.8 26.4 66 63.841 66Zm0-13.56c-28.561 0-48.841-21.84-48.841-52.44 0-30.72 20.28-51.72 48.841-51.72 28.56 0 48.84 21 48.84 51.72 0 30.6-20.28 52.44-48.84 52.44Zm144.55 13.56c19.32 0 34.08-9.96 42.72-23.4V126h14.88V-1.44h-14.88v72.36c0 21.12-16.56 43.56-40.08 43.56-25.44 0-33.24-19.08-33.24-39.6V-1.44h-15v79.56c0 20.64 8.88 50.04 45.6 50.04Zm141.77-.24c5.64 0 10.8-.96 13.44-2.04v-12.96c-2.28.96-7.08 1.92-11.52 1.92-11.88 0-15.24-8.52-15.24-23.04V11.64h40.8V-1.44h-40.8V-42.6h-14.88v31.08c0 9.72-.24 10.08-8.64 10.08h-22.08v13.08h30.72V97.2c0 24.84 13.68 30.72 28.2 30.72ZM1557.79-7.594l-41.72 135.469h-32.58l-21.33-71.133-5.15-25.547-5.28 25.547-20.97 71.133h-33.87L1356.11-7.594h36.56l16.64 64.57 6.1 32.344 6.68-32.226 19.33-64.688h34.1l19.34 64.57 6.09 32.11 5.98-31.758 15.47-64.922h35.39Zm59.18 0V126h-36.56V-7.594h36.56Zm-41.02-39.492c0-3.906 1.1-7.539 3.28-10.898 2.19-3.36 5.08-6.016 8.68-7.97 3.59-2.03 7.38-3.046 11.36-3.046 6.41 0 11.53 1.875 15.35 5.625 3.83 3.672 5.75 8.438 5.75 14.297 0 3.906-1.1 7.578-3.28 11.016-2.11 3.359-4.97 6.054-8.56 8.085-3.51 1.954-7.3 2.93-11.37 2.93-3.98 0-7.57-.86-10.78-2.578-3.2-1.719-5.74-4.102-7.61-7.148-1.88-3.047-2.82-6.485-2.82-10.313Zm86.14 64.805h-16.06V-2.086c5.16-1.484 8.87-2.617 11.13-3.398 2.35-.86 4.42-1.993 6.22-3.399 1.79-1.484 3.2-3.437 4.21-5.86 1.64-3.905 4.57-11.679 8.79-23.32h22.27v30.47h36.21v25.312h-36.21V71.39c0 8.906.47 15.39 1.4 19.453.94 4.062 2.43 6.68 4.46 7.851 2.03 1.094 5.15 1.641 9.37 1.641 3.28 0 7.03-.547 11.25-1.64 4.3-1.173 7.46-2.5 9.49-3.985l4.46 20.508c-3.67 3.281-9.18 6.211-16.53 8.789-7.26 2.578-15.11 3.867-23.55 3.867-8.98 0-16.17-1.367-21.56-4.102-5.32-2.812-9.22-7.226-11.72-13.242-2.42-6.093-3.63-14.18-3.63-24.258V17.72Zm177.42-27.54c10-.312 18.24 1.25 24.72 4.688 6.57 3.438 11.45 9.063 14.65 16.875 3.28 7.813 4.92 18.164 4.92 31.055V126h-36.56V50.062c0-7.187-.62-12.851-1.87-16.992-1.17-4.218-3.13-7.265-5.86-9.14-2.66-1.875-6.37-2.813-11.13-2.813-3.99 0-8.64.82-13.95 2.461-5.23 1.64-9.81 4.18-13.71 7.617V126h-36.56V-68.766h36.56v51.329l-1.99 23.671c5-4.14 11.29-7.773 18.86-10.898 7.66-3.203 14.96-4.922 21.92-5.156Zm74.65 67.735c0-14.297 2.81-26.484 8.43-36.562 5.63-10.157 13.44-17.813 23.44-22.97 10-5.234 21.49-7.85 34.45-7.85 14.77 0 26.92 3.124 36.45 9.374 9.53 6.172 16.45 14.492 20.74 24.961 4.38 10.39 6.56 22.149 6.56 35.274 0 14.375-2.81 26.64-8.43 36.797-5.63 10.156-13.44 17.851-23.44 23.085-10 5.235-21.45 7.852-34.34 7.852-14.84 0-27.03-3.125-36.56-9.375-9.53-6.25-16.48-14.609-20.86-25.078-4.3-10.547-6.44-22.383-6.44-35.508Zm92.22 2.344c0-12.5-2.22-22.89-6.68-31.172-4.45-8.36-11.21-12.54-20.27-12.54-18.28 0-27.42 13.595-27.42 40.782 0 8.203.94 15.703 2.81 22.5 1.95 6.719 4.96 12.11 9.02 16.172 4.14 4.062 9.3 6.094 15.47 6.094 18.05 0 27.07-13.946 27.07-41.836Zm184.1-67.852v135.469h-24.14c-3.12 0-5.39-.469-6.79-1.406-1.41-.86-2.11-2.657-2.11-5.391v-6.094c-5.08 3.594-11.29 6.641-18.64 9.141-7.26 2.5-14.06 3.75-20.39 3.75-12.18 0-21.48-2.305-27.89-6.914-6.4-4.609-10.7-10.977-12.89-19.102-2.11-8.125-3.16-18.593-3.16-31.406V-7.594h36.56v77.696c0 8.359.7 14.687 2.11 18.984 1.48 4.219 3.63 7.07 6.45 8.555 2.89 1.484 6.87 2.226 11.95 2.226 3.91 0 8.05-.82 12.42-2.46 4.38-1.641 7.7-3.36 9.96-5.157V-7.594h36.56Zm45.12 25.313h-16.05V-2.086c5.15-1.484 8.86-2.617 11.13-3.398 2.34-.86 4.41-1.993 6.21-3.399 1.8-1.484 3.2-3.437 4.22-5.86 1.64-3.905 4.57-11.679 8.79-23.32h22.26v30.47h36.22v25.312h-36.22V71.39c0 8.906.47 15.39 1.41 19.453.94 4.062 2.42 6.68 4.45 7.851 2.03 1.094 5.16 1.641 9.38 1.641 3.28 0 7.03-.547 11.25-1.64 4.3-1.173 7.46-2.5 9.49-3.985l4.45 20.508c-3.67 3.281-9.18 6.211-16.52 8.789-7.27 2.578-15.12 3.867-23.55 3.867-8.99 0-16.18-1.367-21.57-4.102-5.31-2.812-9.22-7.226-11.72-13.242-2.42-6.093-3.63-14.18-3.63-24.258V17.72ZM1606.24 251l27.6 70.08 6 23.04h.48l4.56-23.52 21.36-69.6h18.24l-40.32 122.64h-9.36l-31.44-79.2-4.56-19.68h-.72l-4.8 19.92-30.24 78.96h-9.36L1511.92 251h20.88l23.76 69.84 4.08 23.28h.24l5.76-23.76 25.68-69.36h13.92Zm102.8 0h19.2v120h-19.2V251Zm-4.08-36.48c0-3.68 1.2-6.8 3.6-9.36 2.56-2.72 5.76-4.08 9.6-4.08s7.12 1.36 9.84 4.08c2.72 2.56 4.08 5.68 4.08 9.36 0 3.68-1.36 6.72-4.08 9.12-2.72 2.4-6 3.6-9.84 3.6s-7.04-1.2-9.6-3.6c-2.4-2.4-3.6-5.44-3.6-9.12Zm48.38 36.48h18.72v-23.76l19.2-5.52V251h32.64v16.8h-32.64v66.48c0 8.32 1.04 14.24 3.12 17.76 2.08 3.36 5.6 5.04 10.56 5.04 4.16 0 7.68-.4 10.56-1.2 2.88-.96 6.08-2.16 9.6-3.6l4.32 14.64c-4.32 2.08-9.04 3.76-14.16 5.04-5.12 1.28-10.64 1.92-16.56 1.92-9.76 0-16.64-2.72-20.64-8.16-4-5.6-6-14.88-6-27.84V267.8h-18.72V251Zm174.21 120v-68.4c0-6.24-.4-11.68-1.2-16.32-.64-4.8-1.92-8.72-3.84-11.76-1.92-3.2-4.56-5.6-7.92-7.2-3.2-1.6-7.44-2.4-12.72-2.4-7.52 0-14.32 2.48-20.4 7.44-6.08 4.8-10 11.04-11.76 18.72V371h-19.2V203h19.2v61.44h.96c4.16-4.96 9.12-8.88 14.88-11.76 5.92-3.04 13.2-4.56 21.84-4.56 6.72 0 12.56.8 17.52 2.4 4.96 1.44 9.04 4.08 12.24 7.92 3.36 3.84 5.76 9.04 7.2 15.6 1.6 6.4 2.4 14.56 2.4 24.48V371h-19.2Zm47.49-60c0-20.32 4.48-35.84 13.44-46.56 9.12-10.88 22.16-16.32 39.12-16.32 8.96 0 16.72 1.52 23.28 4.56 6.72 2.88 12.24 7.12 16.56 12.72 4.32 5.44 7.52 12.08 9.6 19.92 2.08 7.68 3.12 16.24 3.12 25.68 0 20.32-4.56 35.92-13.68 46.8-8.96 10.72-21.92 16.08-38.88 16.08-8.96 0-16.8-1.44-23.52-4.32-6.56-3.04-12-7.28-16.32-12.72-4.32-5.6-7.52-12.24-9.6-19.92-2.08-7.84-3.12-16.48-3.12-25.92Zm19.92 0c0 6.08.56 11.92 1.68 17.52 1.28 5.6 3.2 10.48 5.76 14.64a30.36 30.36 0 0 0 10.08 10.08c4.16 2.56 9.2 3.84 15.12 3.84 21.76.16 32.64-15.2 32.64-46.08 0-6.24-.64-12.16-1.92-17.76-1.12-5.6-2.96-10.48-5.52-14.64-2.56-4.16-5.92-7.44-10.08-9.84-4.16-2.56-9.2-3.84-15.12-3.84-21.76-.16-32.64 15.2-32.64 46.08Zm132.75-60v68.4c0 6.24.32 11.76.96 16.56.8 4.64 2.08 8.56 3.84 11.76 1.76 3.04 4.16 5.36 7.2 6.96 3.04 1.6 6.88 2.4 11.52 2.4 4.32 0 8.16-.64 11.52-1.92 3.36-1.44 6.32-3.36 8.88-5.76 2.72-2.4 5.04-5.12 6.96-8.16 2.08-3.2 3.76-6.56 5.04-10.08V251h19.2v85.92c0 5.76.16 11.76.48 18 .48 6.08 1.2 11.44 2.16 16.08h-13.2l-4.8-18.96h-1.2c-3.68 6.24-8.64 11.44-14.88 15.6s-14.16 6.24-23.76 6.24c-6.4 0-12.08-.8-17.04-2.4-4.8-1.44-8.88-4.08-12.24-7.92-3.2-3.84-5.68-8.96-7.44-15.36-1.6-6.56-2.4-14.8-2.4-24.72V251h19.2Zm96.26 0h18.72v-23.76l19.2-5.52V251h32.64v16.8h-32.64v66.48c0 8.32 1.04 14.24 3.12 17.76 2.08 3.36 5.6 5.04 10.56 5.04 4.16 0 7.68-.4 10.56-1.2 2.88-.96 6.08-2.16 9.6-3.6l4.32 14.64c-4.32 2.08-9.04 3.76-14.16 5.04-5.12 1.28-10.64 1.92-16.56 1.92-9.76 0-16.64-2.72-20.64-8.16-4-5.6-6-14.88-6-27.84V267.8h-18.72V251ZM79.96 245.72 51.88 371h-14.4l-26.4-114.96L-15.32 371h-14.4l-28.8-125.28h11.28l24.96 115.92L4.84 245.72H17.8l26.88 116.16L69.4 245.72h10.56Zm41.001 0V371h-10.8V245.72h10.8Zm-5.76-53.04c2.56 0 4.56.8 6 2.4 1.6 1.6 2.4 3.52 2.4 5.76 0 2.4-.8 4.4-2.4 6-1.44 1.44-3.44 2.16-6 2.16-2.4 0-4.4-.8-6-2.4-1.44-1.6-2.16-3.52-2.16-5.76 0-2.24.72-4.16 2.16-5.76 1.6-1.6 3.6-2.4 6-2.4Zm102.77 173.28c-6.88 5.12-14.64 7.68-23.28 7.68-8.48 0-15.12-2.56-19.92-7.68-4.8-5.12-7.2-12.4-7.2-21.84v-89.28h-18.48v-9.12h18.48v-30.48l10.8-1.2v31.68h29.76l-1.44 9.12h-28.32v88.8c0 13.6 5.76 20.4 17.28 20.4 6.08 0 12-1.84 17.76-5.52l4.56 7.44Zm71.937-122.64c9.92 0 17.52 3.28 22.8 9.84 5.44 6.56 8.16 15.68 8.16 27.36V371h-10.8v-89.04c0-19.68-7.28-29.52-21.84-29.52-7.36 0-14.08 2.4-20.16 7.2-5.92 4.8-11.44 11.6-16.56 20.4V371h-10.8V194.6l10.8-1.44v74.88c5.12-7.84 10.72-13.92 16.8-18.24 6.24-4.32 13.44-6.48 21.6-6.48Zm114.813 0c14.88 0 26.4 5.52 34.56 16.56 8.32 10.88 12.48 26.88 12.48 48 0 20.96-4.24 37.2-12.72 48.72-8.32 11.36-19.84 17.04-34.56 17.04-14.72 0-26.24-5.68-34.56-17.04-8.32-11.52-12.48-27.52-12.48-48 0-20.8 4.24-36.88 12.72-48.24s20-17.04 34.56-17.04Zm0 9.36c-11.36 0-20.24 4.64-26.64 13.92-6.24 9.28-9.36 23.28-9.36 42 0 18.24 3.12 32.08 9.36 41.52 6.24 9.28 15.04 13.92 26.4 13.92 11.52 0 20.4-4.64 26.64-13.92 6.24-9.44 9.36-23.52 9.36-42.24 0-18.4-3.12-32.16-9.36-41.28-6.08-9.28-14.88-13.92-26.4-13.92ZM567.379 371h-9.36l-.48-22.56c-9.12 16.8-21.44 25.2-36.96 25.2-10.24 0-18.24-3.2-24-9.6-5.6-6.4-8.4-15.28-8.4-26.64v-91.68h10.8v90.72c0 18.56 7.76 27.84 23.28 27.84 7.36 0 13.76-2.32 19.2-6.96 5.6-4.8 10.64-11.52 15.12-20.16v-91.44h10.8V371Zm97.077-5.04c-6.88 5.12-14.64 7.68-23.28 7.68-8.48 0-15.12-2.56-19.92-7.68-4.8-5.12-7.2-12.4-7.2-21.84v-89.28h-18.48v-9.12h18.48v-30.48l10.8-1.2v31.68h29.76l-1.44 9.12h-28.32v88.8c0 13.6 5.76 20.4 17.28 20.4 6.08 0 12-1.84 17.76-5.52l4.56 7.44ZM-103.92 730.2h8.4L-149.76 855h-7.2L-186 787.32-215.28 855h-7.2l-54.24-124.8h8.4l49.68 114.96 27.84-65.28-20.88-49.44h7.92L-186 772.2l17.76-41.76h7.68l-20.88 49.44 28.08 65.28 49.44-114.96Zm33.313-30.24V679.8h8.16v20.16h-8.16Zm0 155.04V730.2h8.16V855h-8.16Zm99.184-5.76c-.32.16-1.6.88-3.84 2.16-2.24 1.12-5.12 2.24-8.64 3.36-3.52.96-7.44 1.44-11.76 1.44-6.24 0-11.68-1.76-16.32-5.28-4.48-3.68-6.72-8.8-6.72-15.36V737.4h-17.76v-7.2h17.76v-42.96h8.16v42.96h29.52v7.2h-29.52v96.96c.32 4.64 2.08 8.16 5.28 10.56 3.2 2.4 6.88 3.6 11.04 3.6 5.28 0 9.76-.88 13.44-2.64 3.84-1.76 5.92-2.88 6.24-3.36l3.12 6.72ZM149.69 855h-8.16v-69.6c0-32.96-10.96-49.44-32.88-49.44-7.36 0-14.48 1.84-21.36 5.52-6.88 3.52-12.88 8.4-18 14.64-5.12 6.08-8.72 13.04-10.8 20.88v78h-8.16V679.8h8.16v81.6c5.12-10.08 12.32-18.08 21.6-24 9.44-6.08 19.44-9.12 30-9.12 13.28 0 23.2 4.88 29.76 14.64 6.56 9.76 9.84 23.6 9.84 41.52V855Zm88.635 2.4c-11.2 0-21.36-2.96-30.48-8.88-9.12-5.92-16.32-13.76-21.6-23.52-5.28-9.76-7.92-20.4-7.92-31.92 0-8.8 1.52-17.12 4.56-24.96 3.2-7.84 7.52-14.72 12.96-20.64 5.6-5.92 12-10.56 19.2-13.92 7.2-3.52 14.96-5.28 23.28-5.28s16.08 1.76 23.28 5.28c7.36 3.36 13.76 8 19.2 13.92 5.6 5.92 9.92 12.8 12.96 20.64 3.2 7.84 4.8 16.16 4.8 24.96 0 8.64-1.6 16.88-4.8 24.72-3.04 7.68-7.28 14.48-12.72 20.4-5.44 5.92-11.84 10.64-19.2 14.16-7.2 3.36-15.04 5.04-23.52 5.04Zm-51.84-64.08c0 10.4 2.32 19.92 6.96 28.56 4.8 8.48 11.04 15.28 18.72 20.4 7.84 4.96 16.48 7.44 25.92 7.44 9.6 0 18.32-2.56 26.16-7.68 7.84-5.12 14.08-12 18.72-20.64 4.8-8.8 7.2-18.32 7.2-28.56 0-10.4-2.4-19.84-7.2-28.32-4.64-8.64-10.88-15.52-18.72-20.64-7.84-5.28-16.48-7.92-25.92-7.92-9.28 0-17.92 2.64-25.92 7.92-7.84 5.12-14.16 12.08-18.96 20.88-4.64 8.64-6.96 18.16-6.96 28.56Zm140.848 7.92V730.2h8.16v70.08c0 32.96 11.12 49.44 33.36 49.44 7.52 0 14.72-1.68 21.6-5.04 7.04-3.52 13.12-8.32 18.24-14.4 5.28-6.08 9.2-13.04 11.76-20.88v-79.2h8.16v112.32c0 3.52 1.44 5.28 4.32 5.28v7.2c-2.24.16-3.76.08-4.56-.24-2.08-.48-3.84-1.6-5.28-3.36-1.28-1.92-1.92-4.08-1.92-6.48l-.24-20.64c-5.28 10.24-12.8 18.32-22.56 24.24-9.6 5.92-20 8.88-31.2 8.88-26.56 0-39.84-18.72-39.84-56.16Zm192.493 48c-.32.16-1.6.88-3.84 2.16-2.24 1.12-5.12 2.24-8.64 3.36-3.52.96-7.44 1.44-11.76 1.44-6.24 0-11.68-1.76-16.32-5.28-4.48-3.68-6.72-8.8-6.72-15.36V737.4h-17.76v-7.2h17.76v-42.96h8.16v42.96h29.52v7.2h-29.52v96.96c.32 4.64 2.08 8.16 5.28 10.56 3.2 2.4 6.88 3.6 11.04 3.6 5.28 0 9.76-.88 13.44-2.64 3.84-1.76 5.92-2.88 6.24-3.36l3.12 6.72ZM-371.8 486l-30.24 97.68-32.64-97.68h-19.2l-32.64 97.68-30.24-97.68h-21.36l41.76 120h19.2l31.92-95.52L-411.4 606h19.2l41.76-120h-21.36Zm62.267-23.04c8.64 0 14.4-5.76 14.4-14.4s-5.76-14.4-14.4-14.4-14.4 5.76-14.4 14.4 5.76 14.4 14.4 14.4Zm9.6 23.04h-19.2v120h19.2V486Zm111.27 95.52c-5.52 5.52-11.76 8.88-20.4 8.88-10.56 0-18-5.76-18-17.52v-70.32h44.4V486h-44.4v-34.08l-19.2 5.28V486h-24v16.56h24v73.68c.24 23.28 15.6 32.16 33.36 32.16 13.2 0 23.52-4.08 30.96-10.8l-6.72-16.08Zm92.147-97.92c-16.32 0-30.72 6-39.12 20.4v-73.2h-19.2V606h19.2v-63.6c0-30.72 19.68-42 37.2-42 16.56 0 29.52 8.88 29.52 35.52V606h19.2v-76.8c0-30.96-21.12-45.6-46.8-45.6Zm140.913 0c-36.24 0-58.08 23.52-58.08 62.4 0 38.88 21.84 62.4 58.08 62.4 36.24 0 58.081-23.52 58.081-62.4 0-38.88-21.84-62.4-58.08-62.4Zm0 16.56c24.24 0 38.88 17.28 38.88 45.84 0 28.56-14.64 45.84-38.88 45.84-24.24 0-38.88-17.28-38.88-45.84 0-28.56 14.64-45.84 38.88-45.84ZM224.494 486v65.28c0 28.32-18 40.32-38.4 40.32-17.28 0-28.32-7.44-28.32-32.16V486h-19.2v78.48c0 31.68 20.4 43.92 44.16 43.92 19.2 0 34.56-6.24 42.96-20.64l1.2 18.24h16.8V486h-19.2Zm130.594 95.52c-5.52 5.52-11.76 8.88-20.4 8.88-10.56 0-18-5.76-18-17.52v-70.32h44.4V486h-44.4v-34.08l-19.2 5.28V486h-24v16.56h24v73.68c.24 23.28 15.6 32.16 33.36 32.16 13.2 0 23.52-4.08 30.96-10.8l-6.72-16.08ZM421.56 606l-28.8-120h40.8l9.12 50.4c.96 6.08 1.76 12.16 2.4 18.24.64 5.92 1.44 12 2.4 18.24h.96c.96-6.24 1.92-12.4 2.88-18.48 1.12-6.24 2.4-12.24 3.84-18L466.2 486h35.04l11.52 50.4c1.44 6.08 2.64 12.16 3.6 18.24 1.12 5.92 2.32 12 3.6 18.24h.96c.96-6.24 1.76-12.32 2.4-18.24.64-6.08 1.44-12.16 2.4-18.24l9.12-50.4h37.92L545.4 606h-48l-8.64-41.76-2.88-16.8c-.96-5.6-1.92-11.76-2.88-18.48h-.96l-2.64 18.48c-.8 5.6-1.68 11.2-2.64 16.8L468.6 606h-47.04Zm170.844 0V486h41.28v120h-41.28Zm20.64-134.88c-6.72 0-12.24-1.92-16.56-5.76-4.32-3.84-6.48-8.8-6.48-14.88s2.16-11.04 6.48-14.88c4.32-3.84 9.84-5.76 16.56-5.76 6.72 0 12.24 1.92 16.56 5.76 4.32 3.84 6.48 8.8 6.48 14.88s-2.16 11.04-6.48 14.88c-4.32 3.84-9.84 5.76-16.56 5.76Zm97.941 137.76c-7.84 0-14.56-1.12-20.16-3.36-5.44-2.4-10-5.76-13.68-10.08-3.52-4.32-6.16-9.44-7.92-15.36-1.6-6.08-2.4-12.8-2.4-20.16v-41.76h-15.84v-30.72l18.24-1.44 4.8-31.2h34.08V486h27.36v32.16h-27.36v41.04c0 6.72 1.44 11.36 4.32 13.92 2.88 2.4 6.24 3.6 10.08 3.6 1.92 0 3.76-.16 5.52-.48 1.92-.48 3.6-.96 5.04-1.44l6.24 29.76c-3.2.96-7.04 1.92-11.52 2.88-4.48.96-10.08 1.44-16.8 1.44Zm46.654-2.88V438.96h41.28v38.88l-1.92 20.64c4.16-3.68 9.12-7.12 14.88-10.32 5.92-3.36 12.96-5.04 21.12-5.04 13.12 0 22.64 4.48 28.56 13.44 5.92 8.8 8.88 20.64 8.88 35.52V606h-41.28v-68.64c0-7.68-.96-12.8-2.88-15.36-1.92-2.56-4.96-3.84-9.12-3.84-3.84 0-7.04.8-9.6 2.4-2.56 1.6-5.44 3.84-8.64 6.72V606h-41.28Zm192.967 2.88a62.65 62.65 0 0 1-22.32-4.08c-7.2-2.88-13.6-6.96-19.2-12.24-5.44-5.44-9.84-12.08-13.2-19.92-3.2-7.84-4.8-16.72-4.8-26.64 0-9.92 1.6-18.8 4.8-26.64 3.36-7.84 7.76-14.4 13.2-19.68 5.6-5.44 12-9.52 19.2-12.24 7.2-2.88 14.64-4.32 22.32-4.32s15.04 1.44 22.08 4.32c7.2 2.72 13.52 6.8 18.96 12.24 5.6 5.28 10.084 11.84 13.444 19.68 3.36 7.84 5.04 16.72 5.04 26.64 0 9.92-1.68 18.8-5.04 26.64-3.36 7.84-7.844 14.48-13.444 19.92-5.44 5.28-11.76 9.36-18.96 12.24-7.04 2.72-14.4 4.08-22.08 4.08Zm0-33.12c6.24 0 10.64-2.64 13.2-7.92 2.72-5.44 4.08-12.72 4.08-21.84s-1.36-16.32-4.08-21.6c-2.56-5.44-6.96-8.16-13.2-8.16-6.24 0-10.72 2.72-13.44 8.16-2.56 5.28-3.84 12.48-3.84 21.6 0 9.12 1.28 16.4 3.84 21.84 2.72 5.28 7.2 7.92 13.44 7.92Zm117.494 33.12c-6.56 0-12.24-1.12-17.04-3.36-4.64-2.4-8.48-5.68-11.52-9.84-3.04-4.32-5.28-9.44-6.72-15.36-1.44-6.08-2.16-12.88-2.16-20.4V486h41.28v68.64c0 7.68.96 12.8 2.88 15.36 1.92 2.56 4.96 3.84 9.12 3.84 3.84 0 6.96-.8 9.36-2.4 2.56-1.6 5.2-4.32 7.92-8.16V486h41.28v120h-33.6l-2.88-15.84h-.96c-4.8 5.76-10.16 10.32-16.08 13.68-5.76 3.36-12.72 5.04-20.88 5.04Zm151.71 0c-7.84 0-14.56-1.12-20.16-3.36-5.44-2.4-10-5.76-13.68-10.08-3.52-4.32-6.16-9.44-7.92-15.36-1.6-6.08-2.4-12.8-2.4-20.16v-41.76h-15.84v-30.72l18.24-1.44 4.8-31.2h34.08V486h27.36v32.16h-27.36v41.04c0 6.72 1.44 11.36 4.32 13.92 2.88 2.4 6.24 3.6 10.08 3.6 1.92 0 3.76-.16 5.52-.48 1.92-.48 3.6-.96 5.04-1.44l6.24 29.76c-3.2.96-7.04 1.92-11.52 2.88-4.48.96-10.08 1.44-16.8 1.44ZM1487.32 478.8 1439.8 606h-22.08L1381 509.52 1343.8 606h-22.08l-47.28-127.2h21.84l36.96 101.28 38.4-101.28h19.44l37.68 101.76 37.92-101.76h20.64Zm23.38 0h23.04V606h-23.04V478.8Zm11.52-24.48c-4.48 0-8.24-1.44-11.28-4.32-2.88-2.88-4.32-6.4-4.32-10.56s1.44-7.68 4.32-10.56c3.04-3.04 6.8-4.56 11.28-4.56 4.48 0 8.16 1.44 11.04 4.32 3.04 2.72 4.56 6.16 4.56 10.32 0 4.32-1.52 8-4.56 11.04-2.88 2.88-6.56 4.32-11.04 4.32Zm127.03 144.24c-3.36 2.88-7.52 5.12-12.48 6.72-4.96 1.44-10.08 2.16-15.36 2.16-12.8 0-22.72-3.44-29.76-10.32-7.04-6.88-10.56-16.72-10.56-29.52v-69.84h-21.6V478.8h21.6v-27.84h23.04v27.84h36.48v18.96h-36.48v68.88c0 6.88 1.68 12.16 5.04 15.84 3.52 3.68 8.48 5.52 14.88 5.52 7.04 0 13.04-2 18-6l7.2 16.56Zm95.78-120.96c16.16 0 28.96 4.72 38.4 14.16 9.6 9.28 14.4 22.96 14.4 41.04V606h-23.04v-70.56c0-12.32-2.96-21.6-8.88-27.84-5.92-6.24-14.4-9.36-25.44-9.36-12.48 0-22.32 3.68-29.52 11.04-7.2 7.2-10.8 17.6-10.8 31.2V606h-23.04V427.92h23.04v68.88c4.8-6.08 11.04-10.8 18.72-14.16 7.84-3.36 16.56-5.04 26.16-5.04Zm150.62 129.84c-12.64 0-24-2.8-34.08-8.4-10.08-5.6-18-13.28-23.76-23.04-5.6-9.92-8.4-21.12-8.4-33.6s2.8-23.6 8.4-33.36c5.76-9.92 13.68-17.6 23.76-23.04 10.08-5.6 21.44-8.4 34.08-8.4 12.64 0 23.92 2.8 33.84 8.4 10.08 5.44 17.92 13.12 23.52 23.04 5.76 9.76 8.64 20.88 8.64 33.36s-2.88 23.68-8.64 33.6c-5.6 9.76-13.44 17.44-23.52 23.04-9.92 5.6-21.2 8.4-33.84 8.4Zm0-20.16c8.16 0 15.44-1.84 21.84-5.52 6.56-3.84 11.68-9.12 15.36-15.84 3.68-6.88 5.52-14.72 5.52-23.52 0-8.8-1.84-16.56-5.52-23.28-3.68-6.88-8.8-12.16-15.36-15.84-6.4-3.68-13.68-5.52-21.84-5.52s-15.52 1.84-22.08 5.52c-6.4 3.68-11.52 8.96-15.36 15.84-3.68 6.72-5.52 14.48-5.52 23.28s1.84 16.64 5.52 23.52c3.84 6.72 8.96 12 15.36 15.84 6.56 3.68 13.92 5.52 22.08 5.52Zm216.42-108.48V606h-21.84v-19.2c-4.64 6.56-10.8 11.68-18.48 15.36-7.52 3.52-15.76 5.28-24.72 5.28-16.96 0-30.32-4.64-40.08-13.92-9.76-9.44-14.64-23.28-14.64-41.52v-73.2h23.04v70.56c0 12.32 2.96 21.68 8.88 28.08 5.92 6.24 14.4 9.36 25.44 9.36 12.16 0 21.76-3.68 28.8-11.04 7.04-7.36 10.56-17.76 10.56-31.2V478.8h23.04Zm115.38 119.76c-3.36 2.88-7.52 5.12-12.48 6.72-4.96 1.44-10.08 2.16-15.36 2.16-12.8 0-22.72-3.44-29.76-10.32-7.04-6.88-10.56-16.72-10.56-29.52v-69.84h-21.6V478.8h21.6v-27.84h23.04v27.84h36.48v18.96h-36.48v68.88c0 6.88 1.68 12.16 5.04 15.84 3.52 3.68 8.48 5.52 14.88 5.52 7.04 0 13.04-2 18-6l7.2 16.56ZM1638.72 729.56 1600.08 854h-30.24c-1.6 0-2.96-.48-4.08-1.44s-2-2.56-2.64-4.8l-17.76-62.04c-.88-2.8-1.68-5.56-2.4-8.28-.64-2.72-1.24-5.48-1.8-8.28-.56 2.8-1.2 5.6-1.92 8.4-.64 2.8-1.4 5.6-2.28 8.4l-18 61.8c-1.2 4.16-3.84 6.24-7.92 6.24h-28.8l-38.64-124.44h29.76c2.64 0 4.84.64 6.6 1.92 1.84 1.2 3.08 2.72 3.72 4.56l12.48 55.8c1.04 4.24 1.96 8.36 2.76 12.36.8 3.92 1.52 7.88 2.16 11.88 1.04-4 2.12-7.96 3.24-11.88 1.2-4 2.48-8.12 3.84-12.36l15.6-55.92c.64-1.84 1.84-3.36 3.6-4.56 1.76-1.28 3.84-1.92 6.24-1.92h16.56c2.64 0 4.84.64 6.6 1.92 1.84 1.2 3.08 2.72 3.72 4.56l14.88 55.92c1.2 4.24 2.36 8.36 3.48 12.36 1.2 4 2.28 8.04 3.24 12.12.64-4 1.4-8 2.28-12 .88-4 1.88-8.16 3-12.48l13.2-55.8c.64-1.84 1.84-3.36 3.6-4.56 1.76-1.28 3.84-1.92 6.24-1.92h28.32Zm51.33 0V854h-37.2V729.56h37.2Zm3.84-34.08c0 2.96-.6 5.76-1.8 8.4-1.2 2.56-2.84 4.84-4.92 6.84-2.08 1.92-4.52 3.48-7.32 4.68-2.72 1.12-5.64 1.68-8.76 1.68-3.04 0-5.88-.56-8.52-1.68-2.64-1.2-5-2.76-7.08-4.68-2-2-3.6-4.28-4.8-6.84-1.12-2.64-1.68-5.44-1.68-8.4 0-3.04.56-5.88 1.68-8.52 1.2-2.64 2.8-4.96 4.8-6.96 2.08-2 4.44-3.56 7.08-4.68 2.64-1.12 5.48-1.68 8.52-1.68 3.12 0 6.04.56 8.76 1.68 2.8 1.12 5.24 2.68 7.32 4.68 2.08 2 3.72 4.32 4.92 6.96 1.2 2.64 1.8 5.48 1.8 8.52Zm66.62 160.44c-5.92 0-11.16-.84-15.72-2.52-4.48-1.76-8.28-4.2-11.4-7.32-3.04-3.2-5.36-7.04-6.96-11.52-1.6-4.48-2.4-9.48-2.4-15v-64.32h-10.56c-1.92 0-3.56-.6-4.92-1.8-1.36-1.28-2.04-3.12-2.04-5.52V733.4l19.8-3.84 7.32-30.36c.96-3.84 3.68-5.76 8.16-5.76h19.44v36.36h30.84v25.44h-30.84v61.8c0 2.88.68 5.28 2.04 7.2 1.44 1.84 3.48 2.76 6.12 2.76 1.36 0 2.48-.12 3.36-.36.96-.32 1.76-.64 2.4-.96.72-.4 1.36-.72 1.92-.96.64-.32 1.36-.48 2.16-.48 1.12 0 2 .28 2.64.84.72.48 1.44 1.28 2.16 2.4l11.28 17.64c-4.8 3.6-10.2 6.32-16.2 8.16-6 1.76-12.2 2.64-18.6 2.64Zm84.79-115.44c4.48-3.84 9.32-6.92 14.52-9.24 5.28-2.4 11.56-3.6 18.84-3.6 6.8 0 12.8 1.2 18 3.6 5.28 2.32 9.72 5.6 13.32 9.84 3.6 4.16 6.32 9.16 8.16 15 1.84 5.76 2.76 12.04 2.76 18.84V854h-37.2v-79.08c0-6.08-1.4-10.8-4.2-14.16-2.8-3.44-6.92-5.16-12.36-5.16-4.08 0-7.92.88-11.52 2.64-3.52 1.68-6.96 4-10.32 6.96V854h-37.2V674.36h37.2v66.12Zm157.04-12.84c9.44 0 18.04 1.48 25.8 4.44 7.76 2.96 14.4 7.2 19.92 12.72 5.6 5.52 9.92 12.24 12.96 20.16 3.12 7.84 4.68 16.68 4.68 26.52 0 9.92-1.56 18.88-4.68 26.88-3.04 7.92-7.36 14.68-12.96 20.28-5.52 5.52-12.16 9.8-19.92 12.84-7.76 2.96-16.36 4.44-25.8 4.44-9.52 0-18.2-1.48-26.04-4.44-7.76-3.04-14.48-7.32-20.16-12.84-5.6-5.6-9.96-12.36-13.08-20.28-3.04-8-4.56-16.96-4.56-26.88 0-9.84 1.52-18.68 4.56-26.52 3.12-7.92 7.48-14.64 13.08-20.16 5.68-5.52 12.4-9.76 20.16-12.72 7.84-2.96 16.52-4.44 26.04-4.44Zm0 100.68c8.56 0 14.84-3 18.84-9 4.08-6.08 6.12-15.28 6.12-27.6 0-12.32-2.04-21.48-6.12-27.48-4-6-10.28-9-18.84-9-8.8 0-15.24 3-19.32 9s-6.12 15.16-6.12 27.48 2.04 21.52 6.12 27.6c4.08 6 10.52 9 19.32 9Zm193.69-98.76V854h-23.04c-4.64 0-7.68-2.08-9.12-6.24l-2.16-7.2c-2.4 2.32-4.88 4.44-7.44 6.36a49.688 49.688 0 0 1-8.28 4.8c-2.88 1.28-6.04 2.28-9.48 3-3.36.8-7.04 1.2-11.04 1.2-6.8 0-12.84-1.16-18.12-3.48-5.2-2.4-9.6-5.72-13.2-9.96-3.6-4.24-6.32-9.24-8.16-15-1.84-5.76-2.76-12.08-2.76-18.96v-78.96h37.2v78.96c0 6.16 1.4 10.92 4.2 14.28 2.8 3.36 6.92 5.04 12.36 5.04 4.08 0 7.88-.84 11.4-2.52 3.6-1.76 7.08-4.12 10.44-7.08v-88.68h37.2Zm69.79 126.36c-5.92 0-11.16-.84-15.72-2.52-4.48-1.76-8.28-4.2-11.4-7.32-3.04-3.2-5.36-7.04-6.96-11.52-1.6-4.48-2.4-9.48-2.4-15v-64.32h-10.56c-1.92 0-3.56-.6-4.92-1.8-1.36-1.28-2.04-3.12-2.04-5.52V733.4l19.8-3.84 7.32-30.36c.96-3.84 3.68-5.76 8.16-5.76h19.44v36.36h30.84v25.44h-30.84v61.8c0 2.88.68 5.28 2.04 7.2 1.44 1.84 3.48 2.76 6.12 2.76 1.36 0 2.48-.12 3.36-.36.96-.32 1.76-.64 2.4-.96.72-.4 1.36-.72 1.92-.96.64-.32 1.36-.48 2.16-.48 1.12 0 2 .28 2.64.84.72.48 1.44 1.28 2.16 2.4l11.28 17.64c-4.8 3.6-10.2 6.32-16.2 8.16-6 1.76-12.2 2.64-18.6 2.64ZM809.977 331.742l20.156-87.539h27.773L823.336 371h-23.438l-27.187-87.07L745.992 371h-23.437l-34.688-126.797h27.774l20.507 86.602 26.016-86.602h21.445l26.368 87.539ZM907.242 371h-28.476V244.203h28.476V371Zm-30.234-159.727c0-4.375 1.367-8.007 4.101-10.898 2.813-2.891 6.797-4.336 11.953-4.336 5.157 0 9.141 1.445 11.954 4.336 2.812 2.891 4.218 6.523 4.218 10.898 0 4.297-1.406 7.891-4.218 10.782-2.813 2.812-6.797 4.218-11.954 4.218-5.156 0-9.14-1.406-11.953-4.218-2.734-2.891-4.101-6.485-4.101-10.782Zm97.031 2.11v30.82h22.383v21.094h-22.383v70.781c0 4.844.938 8.36 2.813 10.547 1.953 2.109 5.39 3.164 10.312 3.164 3.281 0 6.602-.391 9.961-1.172v22.031c-6.484 1.797-12.734 2.696-18.75 2.696-21.875 0-32.813-12.071-32.813-36.211v-71.836h-20.859v-21.094h20.859v-30.82h28.477Zm72.301 44.648c9.3-10.781 21.06-16.172 35.28-16.172 27.03 0 40.74 15.43 41.13 46.289V371h-28.48v-81.797c0-8.75-1.91-14.922-5.74-18.515-3.75-3.672-9.3-5.508-16.64-5.508-11.41 0-19.92 5.078-25.55 15.234V371h-28.47V191h28.47v67.031Zm99.96 48.399c0-12.422 2.47-23.594 7.39-33.516 4.92-10 11.83-17.656 20.74-22.969 8.91-5.39 19.14-8.086 30.7-8.086 17.11 0 30.98 5.508 41.6 16.524 10.71 11.015 16.49 25.625 17.35 43.828l.12 6.68c0 12.5-2.43 23.671-7.27 33.515-4.77 9.844-11.64 17.461-20.63 22.852-8.9 5.39-19.21 8.086-30.93 8.086-17.89 0-32.23-5.938-43.01-17.813-10.7-11.953-16.06-27.851-16.06-47.695v-1.406Zm28.48 2.461c0 13.047 2.7 23.281 8.09 30.703 5.39 7.344 12.89 11.015 22.5 11.015s17.07-3.75 22.38-11.25c5.39-7.5 8.09-18.476 8.09-32.929 0-12.813-2.78-22.969-8.32-30.469-5.47-7.5-12.93-11.25-22.39-11.25-9.29 0-16.68 3.711-22.15 11.133-5.46 7.344-8.2 18.359-8.2 33.047Zm190.31 49.687c-8.36 9.844-20.23 14.766-35.62 14.766-13.75 0-24.18-4.024-31.29-12.071-7.03-8.046-10.55-19.687-10.55-34.921v-82.149h28.48V326c0 16.094 6.68 24.141 20.04 24.141 13.83 0 23.16-4.961 28.01-14.883v-91.055h28.47V371h-26.83l-.71-12.422Zm92.23-145.195v30.82h22.38v21.094h-22.38v70.781c0 4.844.94 8.36 2.81 10.547 1.96 2.109 5.39 3.164 10.32 3.164 3.28 0 6.6-.391 9.96-1.172v22.031c-6.49 1.797-12.74 2.696-18.75 2.696-21.88 0-32.82-12.071-32.82-36.211v-71.836h-20.86v-21.094h20.86v-30.82h28.48ZM735 723.96 693.96 855h-16.8l-36.24-109.92L604.68 855h-17.04L546.6 723.96h17.04l32.64 114 36.72-114h16.8l36.24 114.24 32.4-114.24H735Zm31.303-24.72c-3.36 0-6.24-1.2-8.64-3.6-2.4-2.4-3.6-5.36-3.6-8.88 0-3.52 1.2-6.4 3.6-8.64 2.4-2.4 5.28-3.6 8.64-3.6 3.36 0 6.24 1.2 8.64 3.6 2.4 2.24 3.6 5.12 3.6 8.64 0 3.52-1.2 6.48-3.6 8.88-2.4 2.4-5.28 3.6-8.64 3.6Zm8.4 24.72V855h-16.8V723.96h16.8Zm59.884 14.16v81.36c0 8 1.52 13.52 4.56 16.56 3.04 3.04 8.4 4.56 16.08 4.56h15.36V855h-18c-11.84 0-20.64-2.72-26.4-8.16-5.76-5.6-8.64-14.72-8.64-27.36v-81.36h-18.24v-14.16h18.24v-32.88h17.04v32.88h36v14.16h-36Zm126.107-16.56c9.92 0 18.8 2.08 26.64 6.24 8 4.16 14.236 10.56 18.716 19.2 4.64 8.48 6.96 18.88 6.96 31.2V855h-16.556v-74.88c0-14.24-3.6-25.12-10.8-32.64-7.04-7.52-16.72-11.28-29.04-11.28-12.64 0-22.72 4-30.24 12s-11.28 19.76-11.28 35.28V855h-16.8V677.4h16.8v68.88c4.16-7.84 10.24-13.92 18.24-18.24 8.16-4.32 17.28-6.48 27.36-6.48Zm146.836 135.36c-12.32 0-23.44-2.72-33.36-8.16-9.76-5.6-17.52-13.44-23.28-23.52-5.6-10.24-8.4-22.16-8.4-35.76 0-13.6 2.88-25.44 8.64-35.52 5.76-10.24 13.6-18.08 23.52-23.52 9.92-5.6 21.04-8.4 33.36-8.4s23.44 2.8 33.36 8.4c10.08 5.44 17.92 13.28 23.52 23.52 5.76 10.08 8.64 21.92 8.64 35.52 0 13.44-2.88 25.28-8.64 35.52-5.76 10.24-13.68 18.16-23.76 23.76-10.08 5.44-21.28 8.16-33.6 8.16Zm0-14.64c8.64 0 16.64-1.92 24-5.76 7.36-4 13.28-9.92 17.76-17.76 4.64-8 6.96-17.76 6.96-29.28s-2.24-21.2-6.72-29.04c-4.48-8-10.4-13.92-17.76-17.76-7.36-4-15.36-6-24-6s-16.64 2-24 6c-7.36 3.84-13.28 9.76-17.76 17.76-4.32 7.84-6.48 17.52-6.48 29.04s2.16 21.28 6.48 29.28c4.48 7.84 10.32 13.76 17.52 17.76 7.36 3.84 15.36 5.76 24 5.76Zm210.14-118.32V855h-16.8v-23.04c-3.84 8.16-9.76 14.4-17.76 18.72-8 4.32-16.96 6.48-26.88 6.48-15.68 0-28.48-4.8-38.4-14.4-9.92-9.76-14.88-23.84-14.88-42.24v-76.56h16.56v74.64c0 14.24 3.52 25.12 10.56 32.64 7.2 7.52 16.96 11.28 29.28 11.28 12.64 0 22.72-4 30.24-12s11.28-19.76 11.28-35.28v-71.28h16.8Zm60.2 14.16v81.36c0 8 1.52 13.52 4.56 16.56 3.04 3.04 8.4 4.56 16.08 4.56h15.36V855h-18c-11.84 0-20.64-2.72-26.4-8.16-5.76-5.6-8.64-14.72-8.64-27.36v-81.36h-18.24v-14.16h18.24v-32.88h17.04v32.88h36v14.16h-36Z"/></g></svg>