<svg width="1920" height="1080" fill="none" xmlns="http://www.w3.org/2000/svg"><path d="M304.925 449.85c-17.197 0-31.442-5.005-42.735-15.015-11.293-10.01-16.94-25.538-16.94-46.585 0-20.533 7.187-35.677 21.56-45.43 14.63-9.753 36.703-15.143 66.22-16.17l31.955-1.155v-23.1c0-9.24-.77-17.325-2.31-24.255-1.54-7.187-4.877-12.833-10.01-16.94-5.133-4.107-12.962-6.16-23.485-6.16-9.753 0-17.197 1.797-22.33 5.39-5.133 3.593-8.598 8.598-10.395 15.015-1.54 6.16-2.31 13.347-2.31 21.56-10.78 0-18.993-1.797-24.64-5.39-5.39-3.85-8.085-10.138-8.085-18.865 0-8.983 3.08-16.17 9.24-21.56 6.417-5.39 14.887-9.24 25.41-11.55 10.523-2.567 22.073-3.85 34.65-3.85 23.613 0 41.195 5.005 52.745 15.015 11.807 10.01 17.71 27.207 17.71 51.59v99.715c0 10.78 1.797 18.095 5.39 21.945 3.593 3.85 9.753 5.775 18.48 5.775h1.155V446h-51.975l-6.16-33.11h-3.08c-5.39 7.187-10.652 13.603-15.785 19.25-5.133 5.39-11.165 9.753-18.095 13.09-6.673 3.08-15.4 4.62-26.18 4.62Zm8.855-23.87c15.657 0 28.105-4.748 37.345-14.245 9.24-9.753 13.86-22.843 13.86-39.27V341.28l-24.64 1.155c-21.817 1.027-36.96 5.518-45.43 13.475-8.213 7.7-12.32 19.122-12.32 34.265 0 23.87 10.395 35.805 31.185 35.805Zm239.653 23.87c-27.976 0-49.921-9.24-65.835-27.72-15.656-18.48-23.485-44.403-23.485-77.77 0-35.933 7.444-63.012 22.33-81.235 14.887-18.223 35.934-27.335 63.14-27.335 24.897 0 44.404 7.7 58.52 23.1 14.374 15.4 21.56 38.372 21.56 68.915v17.71H501.458c.514 27.977 5.519 48.382 15.015 61.215 9.754 12.577 23.87 18.865 42.35 18.865 13.347 0 24.64-2.695 33.88-8.085 9.497-5.647 16.555-11.935 21.175-18.865 1.797.77 3.465 2.31 5.005 4.62s2.31 5.133 2.31 8.47c0 5.133-2.438 10.652-7.315 16.555-4.876 5.903-12.32 11.037-22.33 15.4-10.01 4.107-22.715 6.16-38.115 6.16Zm37.345-125.125c0-20.533-3.208-36.96-9.625-49.28-6.16-12.577-16.94-18.865-32.34-18.865-14.116 0-25.153 5.903-33.11 17.71-7.7 11.55-12.191 28.362-13.475 50.435h88.55ZM737.909 538.4c-26.694 0-46.714-5.005-60.06-15.015-13.347-9.753-20.02-23.485-20.02-41.195 0-15.143 4.876-26.565 14.63-34.265 9.753-7.7 20.918-12.705 33.495-15.015-5.134-2.31-10.01-6.032-14.63-11.165-4.364-5.39-6.545-12.192-6.545-20.405 0-7.7 1.925-14.373 5.775-20.02 4.106-5.647 10.523-11.037 19.25-16.17-11.037-4.62-19.635-12.192-25.795-22.715-5.904-10.78-8.855-22.587-8.855-35.42 0-22.073 6.031-39.398 18.095-51.975 12.063-12.833 30.158-19.25 54.285-19.25 9.24 0 17.966 1.283 26.18 3.85 8.213 2.567 14.116 5.518 17.71 8.855 3.593-4.107 8.598-8.598 15.015-13.475 6.416-4.877 13.86-7.315 22.33-7.315 7.7 0 13.346 2.053 16.94 6.16 3.85 3.85 5.775 8.47 5.775 13.86 0 5.39-1.669 10.138-5.005 14.245-3.08 3.85-8.214 5.775-15.4 5.775 0-2.823-.899-5.647-2.695-8.47-1.54-3.08-4.877-4.62-10.01-4.62-5.904 0-11.422 1.54-16.555 4.62 4.363 5.39 7.956 11.807 10.78 19.25 2.823 7.187 4.235 16.298 4.235 27.335 0 18.993-5.775 34.778-17.325 47.355-11.294 12.577-28.619 18.865-51.975 18.865-3.08 0-6.674-.128-10.78-.385-3.85-.513-7.059-1.027-9.625-1.54-4.877 2.567-9.112 5.775-12.705 9.625-3.594 3.85-5.39 8.727-5.39 14.63 0 4.62 1.411 8.213 4.235 10.78 3.08 2.567 9.625 3.85 19.635 3.85h43.505c22.843 0 39.141 5.39 48.895 16.17 9.753 10.78 14.63 24.512 14.63 41.195 0 22.073-8.342 39.527-25.025 52.36-16.427 13.09-42.094 19.635-77 19.635Zm8.47-184.8c12.576 0 21.431-3.85 26.565-11.55 5.133-7.7 7.7-19.892 7.7-36.575 0-17.453-2.695-30.287-8.085-38.5-5.134-8.213-13.989-12.32-26.565-12.32-12.32 0-21.175 4.235-26.565 12.705-5.39 8.47-8.085 21.303-8.085 38.5 0 16.427 2.695 28.49 8.085 36.19 5.646 7.7 14.63 11.55 26.95 11.55Zm-7.7 165.935c18.48 0 32.725-2.053 42.735-6.16 10.01-3.85 16.94-9.368 20.79-16.555 4.106-6.93 6.16-14.887 6.16-23.87 0-11.807-3.337-19.763-10.01-23.87-6.674-3.85-16.427-5.775-29.26-5.775h-37.73c-7.187 0-13.989.898-20.405 2.695-6.417 2.053-11.679 5.647-15.785 10.78-4.107 5.133-6.16 12.833-6.16 23.1 0 7.443 1.411 14.117 4.235 20.02 2.823 6.16 7.828 10.908 15.015 14.245 7.186 3.593 17.325 5.39 30.415 5.39ZM866.917 446v-16.17h5.005c8.726 0 15.785-1.54 21.175-4.62 5.646-3.337 8.47-11.037 8.47-23.1V281.99c0-11.293-2.824-18.48-8.47-21.56-5.647-3.08-12.705-4.62-21.175-4.62h-1.155v-16.17h60.445l5.005 31.185h1.925c7.7-14.373 16.298-23.742 25.795-28.105 9.753-4.62 20.533-6.93 32.34-6.93 12.323 0 23.483 2.695 33.493 8.085 10.01 5.133 17.46 14.117 22.33 26.95h3.08c7.7-14.373 16.69-23.742 26.95-28.105 10.53-4.62 21.69-6.93 33.5-6.93 19.76 0 35.16 6.032 46.2 18.095 11.03 11.807 16.55 30.928 16.55 57.365v90.86c0 12.063 2.7 19.763 8.09 23.1 5.64 3.08 12.83 4.62 21.56 4.62h1.15V446h-66.99V313.175c0-16.683-3.08-29.645-9.24-38.885-5.9-9.24-16.3-13.86-31.18-13.86-10.53 0-19 2.695-25.41 8.085-6.16 5.133-10.65 12.063-13.48 20.79-2.56 8.727-3.85 18.223-3.85 28.49v84.315c0 12.063 2.7 19.763 8.09 23.1 5.64 3.08 12.83 4.62 21.56 4.62h1.15V446h-66.99V313.175c0-16.683-3.08-29.645-9.24-38.885-5.9-9.24-16.297-13.86-31.183-13.86-11.037 0-19.892 2.952-26.565 8.855-6.417 5.647-11.037 13.218-13.86 22.715-2.824 9.497-4.235 19.763-4.235 30.8v81.235c0 11.293 3.08 18.48 9.24 21.56 6.416 2.823 13.86 4.235 22.33 4.235h1.155V446H866.917Zm363.943 0v-16.17h3.08c8.73 0 16.17-1.54 22.33-4.62 6.16-3.337 9.24-11.037 9.24-23.1V281.99c0-11.293-3.08-18.48-9.24-21.56-5.9-3.08-13.09-4.62-21.56-4.62h-1.92v-16.17h62.37l5 31.185h1.93c7.95-14.373 16.81-23.742 26.56-28.105 10.01-4.62 21.18-6.93 33.5-6.93 20.27 0 36.06 6.032 47.35 18.095 11.55 11.807 17.33 30.928 17.33 57.365v90.86c0 12.063 2.56 19.763 7.7 23.1 5.39 3.08 12.45 4.62 21.17 4.62h1.93V446h-66.99V313.175c0-16.683-3.21-29.645-9.63-38.885-6.16-9.24-17.07-13.86-32.72-13.86-11.55 0-20.79 2.952-27.72 8.855-6.68 5.647-11.55 13.218-14.63 22.715-2.83 9.497-4.24 19.763-4.24 30.8v81.235c0 11.293 2.95 18.48 8.86 21.56 6.16 2.823 13.47 4.235 21.94 4.235h1.93V446h-103.57Zm244.48 74.305c17.45 0 31.7-3.337 42.73-10.01 11.3-6.673 20.41-15.785 27.34-27.335 6.93-11.293 12.45-24.127 16.55-38.5l-71.22-168.245c-3.34-7.957-6.93-13.347-10.78-16.17-3.6-2.823-9.11-4.235-16.56-4.235h-1.15v-16.17h92.4v16.17h-1.16c-15.4 0-23.1 6.16-23.1 18.48 0 4.363 1.03 9.112 3.08 14.245l28.11 68.53c2.56 5.903 5 12.448 7.31 19.635 2.57 6.93 4.88 13.603 6.93 20.02 2.06 6.417 3.47 11.807 4.24 16.17 1.79-7.443 4.1-15.143 6.93-23.1a529.24 529.24 0 0 0 8.47-23.485l25.79-75.075c2.31-6.16 3.47-11.678 3.47-16.555 0-12.577-8.47-18.865-25.41-18.865h-1.16v-16.17h80.08v16.17h-1.15c-7.45 0-13.09 1.925-16.94 5.775-3.85 3.85-7.96 11.935-12.32 24.255l-58.52 161.7c-6.68 18.737-13.09 34.008-19.25 45.815-6.16 11.807-13.09 20.918-20.79 27.335-7.45 6.673-16.81 11.293-28.11 13.86-11.29 2.567-25.41 3.85-42.35 3.85h-3.46v-18.095ZM292.22 849.85c-11.293 0-20.662-3.08-28.105-9.24-7.443-6.16-12.962-14.502-16.555-25.025-3.337-10.78-5.005-22.843-5.005-36.19 0-12.063 1.54-24.64 4.62-37.73 3.337-13.347 8.213-26.18 14.63-38.5 6.417-12.577 14.245-23.87 23.485-33.88 9.24-10.267 19.892-18.352 31.955-24.255 12.063-6.16 25.41-9.24 40.04-9.24 9.24 0 17.71 1.283 25.41 3.85 7.957 2.567 14.502 5.903 19.635 10.01l16.94-9.625h12.32l-26.18 123.2c-.513 2.823-1.283 6.93-2.31 12.32a317.964 317.964 0 0 0-2.695 16.555c-.513 5.647-.77 10.267-.77 13.86 0 13.09 4.235 19.635 12.705 19.635 4.363 0 8.855-.898 13.475-2.695 4.62-2.053 9.368-4.492 14.245-7.315l6.93 11.165c-3.593 3.337-8.47 6.802-14.63 10.395s-12.705 6.545-19.635 8.855c-6.93 2.567-13.603 3.85-20.02 3.85-9.24 0-16.555-2.823-21.945-8.47-5.39-5.647-8.085-13.475-8.085-23.485 0-5.133.257-9.753.77-13.86.77-4.363 1.797-9.753 3.08-16.17h-2.31c-8.727 19.763-19.122 35.035-31.185 45.815-12.063 10.78-25.667 16.17-40.81 16.17Zm13.86-24.255c6.673 0 13.475-2.567 20.405-7.7 7.187-5.133 13.86-12.063 20.02-20.79 6.417-8.727 12.063-18.48 16.94-29.26 4.877-10.78 8.47-21.688 10.78-32.725l14.245-68.145c-2.823-4.62-6.93-8.085-12.32-10.395-5.39-2.31-11.037-3.465-16.94-3.465-10.267 0-19.507 2.952-27.72 8.855-8.213 5.647-15.4 13.218-21.56 22.715-6.16 9.497-11.422 19.892-15.785 31.185-4.107 11.293-7.187 22.715-9.24 34.265-2.053 11.293-3.08 21.56-3.08 30.8 0 15.913 2.31 27.335 6.93 34.265 4.62 6.93 10.395 10.395 17.325 10.395Zm234.504 24.255c-13.603 0-26.18-2.952-37.73-8.855-11.293-5.903-20.405-14.63-27.335-26.18-6.673-11.807-10.01-26.693-10.01-44.66 0-14.373 2.438-29.26 7.315-44.66 4.877-15.657 12.192-30.287 21.945-43.89 9.753-13.603 21.688-24.64 35.805-33.11 14.373-8.47 30.928-12.705 49.665-12.705 16.17 0 28.747 3.978 37.73 11.935 8.983 7.7 13.475 18.48 13.475 32.34 0 13.347-4.877 25.923-14.63 37.73-9.497 11.807-22.715 21.303-39.655 28.49-16.683 7.187-35.805 10.78-57.365 10.78h-13.475l-.77 8.47v7.7c0 16.427 3.593 29.26 10.78 38.5 7.187 9.24 17.71 13.86 31.57 13.86 12.32 0 23.228-2.952 32.725-8.855 9.753-5.903 17.325-12.192 22.715-18.865 2.567 1.797 3.85 5.005 3.85 9.625 0 5.647-2.438 11.807-7.315 18.48-4.62 6.417-11.807 12.063-21.56 16.94-9.753 4.62-22.33 6.93-37.73 6.93Zm-26.95-110.495c15.143 0 28.49-2.438 40.04-7.315 11.807-5.133 21.047-12.063 27.72-20.79 6.93-8.983 10.395-19.378 10.395-31.185 0-17.197-7.443-25.795-22.33-25.795-7.187 0-13.988 2.567-20.405 7.7-6.417 4.877-12.192 11.55-17.325 20.02-5.133 8.213-9.625 17.325-13.475 27.335-3.593 10.01-6.417 20.02-8.47 30.03h3.85ZM709.277 938.4c-27.976 0-49.023-4.363-63.14-13.09-13.86-8.47-20.79-20.79-20.79-36.96 0-10.78 3.08-19.892 9.24-27.335 5.904-7.443 13.604-13.475 23.1-18.095a128.083 128.083 0 0 1 30.415-10.01c-4.876-2.31-9.24-5.775-13.09-10.395-3.593-4.62-5.39-10.01-5.39-16.17 0-8.213 2.695-15.015 8.085-20.405 5.39-5.647 14.887-11.935 28.49-18.865-8.47-3.85-15.143-9.625-20.02-17.325-4.62-7.7-6.93-17.068-6.93-28.105 0-8.983 1.797-18.48 5.39-28.49 3.594-10.01 8.984-19.378 16.17-28.105 7.444-8.727 16.812-15.785 28.105-21.175 11.294-5.39 24.512-8.085 39.655-8.085 7.7 0 14.887 1.027 21.56 3.08 6.93 1.797 12.962 4.877 18.095 9.24 5.134-7.443 11.165-13.86 18.095-19.25 6.93-5.39 14.759-8.085 23.485-8.085 6.417 0 11.165 1.668 14.245 5.005 3.337 3.337 5.005 7.572 5.005 12.705 0 5.647-1.668 11.037-5.005 16.17-3.08 5.133-8.983 7.7-17.71 7.7 0-3.85-.898-7.058-2.695-9.625-1.796-2.823-4.491-4.235-8.085-4.235-3.593 0-6.93 1.027-10.01 3.08a105.22 105.22 0 0 0-8.855 5.775c5.647 7.957 8.47 17.838 8.47 29.645 0 8.727-1.796 18.095-5.39 28.105-3.336 9.753-8.598 19.122-15.785 28.105-7.186 8.727-16.426 15.913-27.72 21.56-11.036 5.647-24.126 8.47-39.27 8.47h-6.16l-6.16-.77c-5.646 2.567-11.678 5.775-18.095 9.625-6.16 3.85-9.24 8.727-9.24 14.63 0 4.107 1.797 6.93 5.39 8.47 3.85 1.54 8.599 2.567 14.245 3.08l36.96 3.85c18.994 1.797 33.624 6.802 43.89 15.015 10.524 8.213 15.785 20.02 15.785 35.42 0 23.1-8.726 41.452-26.18 55.055-17.453 13.86-43.505 20.79-78.155 20.79Zm31.955-183.645c8.727 0 16.17-2.31 22.33-6.93 6.16-4.877 11.165-10.908 15.015-18.095 4.107-7.443 7.059-15.143 8.855-23.1 1.797-7.957 2.695-15.143 2.695-21.56 0-11.037-2.438-18.993-7.315-23.87-4.62-5.133-11.036-7.7-19.25-7.7-8.726 0-16.17 2.438-22.33 7.315-6.16 4.62-11.293 10.652-15.4 18.095a89.757 89.757 0 0 0-8.47 22.715c-1.796 7.957-2.695 15.143-2.695 21.56 0 11.037 2.439 19.122 7.315 24.255 4.877 4.877 11.294 7.315 19.25 7.315Zm-30.415 164.78c16.94 0 30.415-2.182 40.425-6.545 10.267-4.107 17.582-9.753 21.945-16.94 4.62-6.93 6.93-14.502 6.93-22.715s-2.823-14.758-8.47-19.635c-5.646-4.877-14.758-7.828-27.335-8.855l-37.345-3.465c-8.726 1.027-16.94 3.208-24.64 6.545-7.7 3.593-13.988 8.47-18.865 14.63-4.62 6.417-6.93 14.245-6.93 23.485 0 9.753 3.85 17.71 11.55 23.87 7.957 6.417 22.202 9.625 42.735 9.625ZM1144.2 849.85c-11.3 0-20.02-3.593-26.18-10.78-5.91-7.443-8.86-16.683-8.86-27.72 0-11.807 2.44-29.132 7.32-51.975l6.54-30.03c.77-3.593 1.8-8.085 3.08-13.475 1.29-5.39 2.44-11.037 3.47-16.94 1.02-5.903 1.54-11.037 1.54-15.4 0-5.133-1.16-10.138-3.47-15.015-2.05-5.133-6.8-7.7-14.24-7.7-7.45 0-14.89 2.567-22.33 7.7-7.19 4.877-13.99 11.293-20.41 19.25-6.41 7.957-12.06 16.555-16.94 25.795-4.62 8.983-8.21 17.453-10.78 25.41l-6.16 27.72c-.77 3.593-1.79 9.112-3.08 16.555-1.28 7.443-2.56 15.528-3.85 24.255-1.02 8.47-2.05 16.298-3.08 23.485-.77 7.187-1.15 12.192-1.15 15.015h-36.577c0-3.08.385-8.085 1.155-15.015a6024.32 6024.32 0 0 1 3.465-23.87 698.473 698.473 0 0 1 4.235-26.18c1.54-8.47 2.952-15.657 4.232-21.56l6.55-30.03c.77-3.593 1.79-8.085 3.08-13.475 1.28-5.39 2.44-11.037 3.46-16.94 1.03-5.903 1.54-11.037 1.54-15.4 0-5.133-1.15-10.138-3.46-15.015-2.06-5.133-6.8-7.7-14.247-7.7-7.957 0-15.913 2.952-23.87 8.855-7.957 5.903-15.4 13.475-22.33 22.715-6.673 9.24-12.448 18.865-17.325 28.875-4.62 9.753-7.7 18.48-9.24 26.18L905.498 846h-35.805l32.34-154.77c.77-3.593 1.283-7.058 1.54-10.395.513-3.593.77-5.903.77-6.93 0-7.7-2.695-12.577-8.085-14.63-5.133-2.31-11.422-3.465-18.865-3.465h-3.08l3.465-16.17h71.225l-10.395 48.51h3.85c10.523-16.94 21.175-29.773 31.955-38.5 11.037-8.983 23.742-13.475 38.117-13.475 15.14 0 25.79 4.363 31.95 13.09 6.16 8.47 9.24 18.352 9.24 29.645 0 1.54-.13 3.08-.38 4.62 0 1.54-.13 3.08-.39 4.62h3.85c10.53-16.94 21.18-29.773 31.96-38.5 11.03-8.983 23.74-13.475 38.11-13.475 15.15 0 25.8 4.363 31.96 13.09 6.16 8.47 9.24 18.352 9.24 29.645 0 6.417-.9 13.475-2.7 21.175-1.54 7.443-2.95 14.502-4.23 21.175l-10.01 45.43c-1.54 7.187-2.83 14.245-3.85 21.175-.77 6.93-1.16 13.347-1.16 19.25 0 12.32 4.49 18.48 13.48 18.48 7.44 0 15.65-2.952 24.64-8.855l6.93 11.165c-6.16 5.133-13.09 10.138-20.79 15.015-7.45 4.62-16.17 6.93-26.18 6.93Zm230.8 0c-11.29 0-20.02-3.593-26.18-10.78-5.9-7.443-8.86-16.683-8.86-27.72 0-11.807 2.44-29.132 7.32-51.975l6.54-30.03c.77-3.593 1.8-8.085 3.08-13.475 1.29-5.39 2.44-11.037 3.47-16.94 1.03-5.903 1.54-11.037 1.54-15.4 0-5.133-1.16-10.138-3.47-15.015-2.05-5.133-6.8-7.7-14.24-7.7-7.96 0-15.91 2.952-23.87 8.855-7.96 5.903-15.4 13.475-22.33 22.715-6.67 9.24-12.45 18.865-17.33 28.875-4.62 9.753-7.7 18.48-9.24 26.18L1250.64 846h-35.8l32.34-154.77c.77-3.593 1.28-7.058 1.54-10.395.51-3.593.77-5.903.77-6.93 0-7.7-2.7-12.577-8.09-14.63-5.13-2.31-11.42-3.465-18.86-3.465h-3.08l3.46-16.17h71.23l-10.4 48.51h3.85c10.53-16.94 21.18-29.773 31.96-38.5 11.04-8.983 23.74-13.475 38.11-13.475 15.15 0 25.8 4.363 31.96 13.09 6.16 8.47 9.24 18.352 9.24 29.645 0 6.417-.9 13.475-2.7 21.175-1.54 7.443-2.95 14.502-4.23 21.175l-10.01 45.43a338.784 338.784 0 0 0-3.85 21.175c-.77 6.93-1.16 13.347-1.16 19.25 0 12.32 4.5 18.48 13.48 18.48 7.44 0 15.66-2.952 24.64-8.855l6.93 11.165c-6.16 5.133-13.09 10.138-20.79 15.015-7.44 4.62-16.17 6.93-26.18 6.93Zm19.67 88.55c-13.6 0-25.66-2.31-36.19-6.93l5.78-19.25c3.08 1.027 6.93 1.925 11.55 2.695 4.36 1.027 10.52 1.54 18.48 1.54 12.58 0 24.13-2.31 34.65-6.93 10.78-4.363 20.66-10.138 29.64-17.325 8.99-6.93 17.07-14.502 24.26-22.715 7.44-7.957 13.99-15.657 19.63-23.1l-50.82-170.17c-2.31-7.7-5.51-12.962-9.62-15.785-3.85-3.08-9.5-4.62-16.94-4.62h-3.85l3.08-16.17h56.21l30.03 103.95c2.05 6.673 4.23 14.63 6.54 23.87 2.31 9.24 4.37 18.095 6.16 26.565 2.06 8.47 3.21 14.887 3.47 19.25h1.15c9.76-14.887 18.48-29.902 26.18-45.045 7.96-15.143 14.25-29.773 18.87-43.89 4.62-14.373 6.93-27.335 6.93-38.885 0-5.39-1.41-10.138-4.24-14.245-2.56-4.363-7.44-6.545-14.63-6.545 0-9.24 2.57-16.298 7.7-21.175 5.39-4.877 11.17-7.315 17.33-7.315 8.21 0 14.63 2.695 19.25 8.085 4.62 5.39 6.93 13.475 6.93 24.255 0 20.02-6.16 43.12-18.48 69.3s-28.75 54.927-49.28 86.24c-12.58 19.507-24.26 36.447-35.04 50.82-10.52 14.373-21.17 26.18-31.95 35.42-10.78 9.497-22.84 16.555-36.19 21.175-13.09 4.62-28.62 6.93-46.59 6.93Z" fill="#3C4043"/></svg>