<svg width="1920" height="1080" viewBox="0 0 1920 1080" fill="none" xmlns="http://www.w3.org/2000/svg">
<rect x="236" y="368" width="683" height="97" fill="#D2E3FC"/>
<rect x="931" y="368" width="361" height="97" fill="#D2E3FC"/>
<rect x="1311" y="368" width="375" height="97" fill="#D2E3FC"/>
<rect x="236" y="231" width="583" height="75" fill="#D2E3FC"/>
<rect x="830" y="231" width="287" height="75" fill="#D2E3FC"/>
<rect x="1135" y="231" width="324" height="75" fill="#D2E3FC"/>
<rect x="1318" y="231" width="49" height="100" fill="#D2E3FC"/>
<rect x="1185" y="208" width="43" height="98" fill="#D2E3FC"/>
<rect x="1069" y="208" width="43" height="98" fill="#D2E3FC"/>
<rect x="649" y="208" width="43" height="98" fill="#D2E3FC"/>
<rect x="438" y="208" width="43" height="98" fill="#D2E3FC"/>
<rect x="398" y="218" width="43" height="88" fill="#D2E3FC"/>
<rect x="608" y="218" width="43" height="88" fill="#D2E3FC"/>
<rect x="271" y="208" width="79" height="98" fill="#D2E3FC"/>
<rect x="236" y="766" width="683" height="97" fill="#FF6D7F"/>
<rect x="931" y="766" width="361" height="97" fill="#FF6D7F"/>
<rect x="1311" y="766" width="375" height="97" fill="#FF6D7F"/>
<rect x="236" y="629" width="583" height="75" fill="#1A73E8"/>
<rect x="830" y="629" width="287" height="75" fill="#1A73E8"/>
<rect x="1135" y="629" width="324" height="75" fill="#1A73E8"/>
<rect x="1318" y="629" width="49" height="100" fill="#1A73E8"/>
<rect x="1185" y="606" width="43" height="98" fill="#1A73E8"/>
<rect x="1069" y="606" width="43" height="98" fill="#1A73E8"/>
<rect x="649" y="606" width="43" height="98" fill="#1A73E8"/>
<rect x="438" y="606" width="43" height="98" fill="#1A73E8"/>
<rect x="398" y="616" width="43" height="88" fill="#1A73E8"/>
<rect x="608" y="616" width="43" height="88" fill="#1A73E8"/>
<rect x="271" y="606" width="79" height="98" fill="#1A73E8"/>
<path d="M298.344 287.328C298.344 288.853 299.107 289.859 300.632 290.344C302.227 290.829 304.307 291.211 306.872 291.488L307.392 291.592V297H290.752L289.504 284.832L289.088 284.728V228.464C289.088 227.424 288.776 226.661 288.152 226.176C287.597 225.621 286.696 225.171 285.448 224.824C284.269 224.477 282.744 224.131 280.872 223.784L279.832 223.576V218.168H298.344V287.328ZM270.784 240.112C273.835 240.112 276.539 240.632 278.896 241.672C281.323 242.712 283.507 244.203 285.448 246.144C287.459 248.085 289.296 250.512 290.96 253.424L290.648 260.288C288.915 257.168 287.077 254.603 285.136 252.592C283.195 250.512 281.08 248.987 278.792 248.016C276.573 247.045 274.077 246.56 271.304 246.56C268.6 246.56 266.208 247.08 264.128 248.12C262.048 249.091 260.315 250.547 258.928 252.488C257.541 254.429 256.501 256.856 255.808 259.768C255.115 262.611 254.768 265.869 254.768 269.544C254.768 273.08 255.08 276.235 255.704 279.008C256.397 281.781 257.368 284.139 258.616 286.08C259.933 287.952 261.597 289.373 263.608 290.344C265.619 291.315 267.976 291.8 270.68 291.8C273.592 291.8 276.227 291.315 278.584 290.344C280.941 289.304 283.125 287.779 285.136 285.768C287.147 283.688 289.053 281.123 290.856 278.072L290.96 284.416C289.157 287.328 287.251 289.824 285.24 291.904C283.229 293.915 280.941 295.475 278.376 296.584C275.88 297.624 273.037 298.144 269.848 298.144C264.579 298.144 260.107 296.965 256.432 294.608C252.757 292.181 249.915 288.819 247.904 284.52C245.963 280.221 244.992 275.229 244.992 269.544C244.992 263.789 245.997 258.728 248.008 254.36C250.088 249.923 253.069 246.456 256.952 243.96C260.835 241.395 265.445 240.112 270.784 240.112ZM327.345 229.712C325.334 229.712 323.705 229.157 322.457 228.048C321.209 226.939 320.585 225.275 320.585 223.056C320.585 220.907 321.209 219.277 322.457 218.168C323.705 217.059 325.334 216.504 327.345 216.504C329.286 216.504 330.881 217.059 332.129 218.168C333.446 219.277 334.105 220.907 334.105 223.056C334.105 225.275 333.446 226.939 332.129 228.048C330.881 229.157 329.286 229.712 327.345 229.712ZM332.649 241.152V286.704C332.649 288.853 333.446 290.275 335.041 290.968C336.635 291.661 338.785 292.008 341.489 292.008H341.801V297H314.345V292.008H314.657C317.361 292.008 319.51 291.661 321.105 290.968C322.699 290.275 323.497 288.853 323.497 286.704V251.448C323.497 249.923 322.838 248.917 321.521 248.432C320.203 247.877 318.158 247.323 315.385 246.768L314.345 246.56V241.152H332.649ZM385.256 282.336C385.256 280.672 384.84 279.285 384.008 278.176C383.246 277.067 382.171 276.165 380.784 275.472C379.398 274.779 377.803 274.189 376 273.704C374.267 273.219 372.464 272.768 370.592 272.352C368.304 271.867 366.051 271.277 363.832 270.584C361.614 269.821 359.603 268.851 357.8 267.672C355.998 266.493 354.542 264.968 353.432 263.096C352.392 261.224 351.872 258.832 351.872 255.92C351.872 252.731 352.67 249.957 354.264 247.6C355.859 245.243 358.182 243.405 361.232 242.088C364.283 240.771 367.958 240.112 372.256 240.112C375.654 240.112 378.6 240.32 381.096 240.736C383.662 241.083 385.776 241.568 387.44 242.192C389.174 242.747 390.456 243.267 391.288 243.752V256.752H382.136V246.04C382.83 246.04 383.419 246.144 383.904 246.352C384.459 246.491 384.875 246.768 385.152 247.184C385.499 247.6 385.742 248.12 385.88 248.744C386.088 249.299 386.158 249.992 386.088 250.824C385.256 249.784 384.147 248.952 382.76 248.328C381.374 247.635 379.779 247.115 377.976 246.768C376.243 246.421 374.336 246.248 372.256 246.248C368.166 246.248 365.15 247.045 363.208 248.64C361.336 250.165 360.4 252.245 360.4 254.88C360.4 256.544 360.782 257.965 361.544 259.144C362.376 260.253 363.486 261.155 364.872 261.848C366.259 262.541 367.854 263.131 369.656 263.616C371.528 264.101 373.47 264.587 375.48 265.072C377.699 265.557 379.918 266.147 382.136 266.84C384.355 267.533 386.331 268.469 388.064 269.648C389.867 270.827 391.288 272.387 392.328 274.328C393.438 276.2 393.992 278.557 393.992 281.4C393.992 284.589 393.16 287.467 391.496 290.032C389.832 292.528 387.371 294.504 384.112 295.96C380.854 297.416 376.832 298.144 372.048 298.144C368.582 298.144 365.462 297.901 362.688 297.416C359.984 296.931 357.558 296.307 355.408 295.544C353.328 294.781 351.526 293.915 350 292.944V279.32H359.36V293.672C358.251 293.187 357.384 292.667 356.76 292.112C356.206 291.557 355.824 291.003 355.616 290.448C355.408 289.824 355.304 289.235 355.304 288.68C355.304 288.056 355.374 287.432 355.512 286.808C356.622 287.779 357.974 288.645 359.568 289.408C361.232 290.171 363.104 290.795 365.184 291.28C367.264 291.696 369.552 291.904 372.048 291.904C374.96 291.904 377.387 291.557 379.328 290.864C381.27 290.171 382.726 289.131 383.696 287.744C384.736 286.288 385.256 284.485 385.256 282.336ZM400.097 247.392V241.672H401.241C403.598 241.672 405.574 241.533 407.169 241.256C408.763 240.909 409.942 240.251 410.705 239.28C411.537 238.309 411.953 236.853 411.953 234.912L418.713 241.152H438.577V247.392H400.097ZM420.481 280.048C420.481 282.96 420.897 285.248 421.729 286.912C422.561 288.576 423.774 289.755 425.369 290.448C426.963 291.141 428.87 291.488 431.089 291.488C432.891 291.488 434.555 291.384 436.081 291.176C437.606 290.899 438.646 290.691 439.201 290.552V296.792C438.507 297 437.641 297.208 436.601 297.416C435.561 297.624 434.486 297.797 433.377 297.936C432.267 298.075 431.123 298.144 429.945 298.144C426.686 298.144 423.635 297.659 420.793 296.688C417.95 295.717 415.627 293.949 413.825 291.384C412.091 288.749 411.225 285.005 411.225 280.152V242.712L411.953 241.88V225.24H420.481V280.048ZM460.29 229.712C458.279 229.712 456.65 229.157 455.402 228.048C454.154 226.939 453.53 225.275 453.53 223.056C453.53 220.907 454.154 219.277 455.402 218.168C456.65 217.059 458.279 216.504 460.29 216.504C462.231 216.504 463.826 217.059 465.074 218.168C466.391 219.277 467.05 220.907 467.05 223.056C467.05 225.275 466.391 226.939 465.074 228.048C463.826 229.157 462.231 229.712 460.29 229.712ZM465.594 241.152V286.704C465.594 288.853 466.391 290.275 467.986 290.968C469.581 291.661 471.73 292.008 474.434 292.008H474.746V297H447.29V292.008H447.602C450.306 292.008 452.455 291.661 454.05 290.968C455.645 290.275 456.442 288.853 456.442 286.704V251.448C456.442 249.923 455.783 248.917 454.466 248.432C453.149 247.877 451.103 247.323 448.33 246.768L447.29 246.56V241.152H465.594ZM482.126 297V292.008H482.438C484.24 292.008 485.8 291.869 487.118 291.592C488.435 291.245 489.44 290.656 490.134 289.824C490.827 288.923 491.174 287.709 491.174 286.184V251.448C491.174 250.408 490.862 249.645 490.238 249.16C489.683 248.605 488.816 248.155 487.638 247.808C486.459 247.461 484.968 247.115 483.166 246.768L482.126 246.56V241.152H498.766L500.014 253.008L500.43 253.528V290.968C500.43 291.176 500.846 291.384 501.678 291.592C502.51 291.731 503.515 291.835 504.694 291.904C505.872 291.973 506.947 292.008 507.918 292.008H508.334V297H482.126ZM545.15 297H518.942V292.008H519.254C520.224 292.008 521.299 291.973 522.478 291.904C523.656 291.835 524.662 291.731 525.494 291.592C526.395 291.384 526.846 291.176 526.846 290.968V256.96C526.846 254.672 526.534 252.8 525.91 251.344C525.355 249.888 524.419 248.813 523.102 248.12C521.784 247.357 520.016 246.976 517.798 246.976C515.51 246.976 513.256 247.427 511.038 248.328C508.888 249.229 506.774 250.581 504.694 252.384C502.683 254.187 500.638 256.509 498.558 259.352V253.736C500.568 250.755 502.683 248.259 504.902 246.248C507.12 244.237 509.478 242.712 511.974 241.672C514.539 240.632 517.278 240.112 520.19 240.112C523.587 240.112 526.43 240.701 528.718 241.88C531.075 242.989 532.878 244.723 534.126 247.08C535.443 249.368 536.102 252.28 536.102 255.816V286.184C536.102 287.709 536.448 288.923 537.142 289.824C537.835 290.656 538.84 291.245 540.158 291.592C541.475 291.869 543.035 292.008 544.838 292.008H545.15V297ZM581.634 291.904C584.684 291.904 587.284 291.384 589.434 290.344C591.652 289.304 593.524 287.987 595.05 286.392C596.644 284.728 598.031 282.995 599.21 281.192L604.098 285.248C602.711 287.744 600.908 289.997 598.69 292.008C596.54 293.949 594.01 295.475 591.098 296.584C588.255 297.624 585.031 298.144 581.426 298.144C575.532 298.144 570.436 296.965 566.138 294.608C561.908 292.181 558.65 288.819 556.362 284.52C554.074 280.152 552.93 275.021 552.93 269.128C552.93 263.165 554.108 258.035 556.466 253.736C558.823 249.368 562.151 246.005 566.45 243.648C570.818 241.291 575.983 240.112 581.946 240.112C585.551 240.112 588.74 240.424 591.514 241.048C594.287 241.672 596.61 242.4 598.482 243.232C600.354 243.995 601.706 244.688 602.538 245.312V261.12H593.178V247.704C593.871 247.773 594.53 247.947 595.154 248.224C595.778 248.432 596.298 248.744 596.714 249.16C597.13 249.576 597.442 250.027 597.65 250.512C597.858 250.997 597.962 251.517 597.962 252.072C596.436 250.477 594.252 249.16 591.41 248.12C588.567 247.011 585.412 246.456 581.946 246.456C577.578 246.456 573.972 247.357 571.13 249.16C568.287 250.893 566.172 253.459 564.786 256.856C563.399 260.253 562.706 264.344 562.706 269.128C562.706 272.803 563.087 276.061 563.85 278.904C564.612 281.747 565.756 284.139 567.282 286.08C568.876 288.021 570.852 289.477 573.21 290.448C575.567 291.419 578.375 291.904 581.634 291.904ZM609.823 247.392V241.672H610.967C613.325 241.672 615.301 241.533 616.895 241.256C618.49 240.909 619.669 240.251 620.431 239.28C621.263 238.309 621.679 236.853 621.679 234.912L628.439 241.152H648.303V247.392H609.823ZM630.207 280.048C630.207 282.96 630.623 285.248 631.455 286.912C632.287 288.576 633.501 289.755 635.095 290.448C636.69 291.141 638.597 291.488 640.815 291.488C642.618 291.488 644.282 291.384 645.807 291.176C647.333 290.899 648.373 290.691 648.927 290.552V296.792C648.234 297 647.367 297.208 646.327 297.416C645.287 297.624 644.213 297.797 643.103 297.936C641.994 298.075 640.85 298.144 639.671 298.144C636.413 298.144 633.362 297.659 630.519 296.688C627.677 295.717 625.354 293.949 623.551 291.384C621.818 288.749 620.951 285.005 620.951 280.152V242.712L621.679 241.88V225.24H630.207V280.048ZM670.016 229.712C668.006 229.712 666.376 229.157 665.128 228.048C663.88 226.939 663.256 225.275 663.256 223.056C663.256 220.907 663.88 219.277 665.128 218.168C666.376 217.059 668.006 216.504 670.016 216.504C671.958 216.504 673.552 217.059 674.8 218.168C676.118 219.277 676.776 220.907 676.776 223.056C676.776 225.275 676.118 226.939 674.8 228.048C673.552 229.157 671.958 229.712 670.016 229.712ZM675.32 241.152V286.704C675.32 288.853 676.118 290.275 677.712 290.968C679.307 291.661 681.456 292.008 684.16 292.008H684.472V297H657.016V292.008H657.328C660.032 292.008 662.182 291.661 663.776 290.968C665.371 290.275 666.168 288.853 666.168 286.704V251.448C666.168 249.923 665.51 248.917 664.192 248.432C662.875 247.877 660.83 247.323 658.056 246.768L657.016 246.56V241.152H675.32ZM736.572 248.952C736.503 248.536 736.052 248.155 735.22 247.808C734.388 247.392 733.348 247.115 732.1 246.976C730.852 246.768 729.535 246.664 728.148 246.664H727.628V241.152H751.34V246.664H750.924C749.607 246.664 748.394 246.803 747.284 247.08C746.244 247.357 745.308 247.877 744.476 248.64C743.714 249.333 743.055 250.408 742.5 251.864L725.132 297.624H715.044L697.676 251.24C697.26 249.992 696.671 249.056 695.908 248.432C695.146 247.739 694.21 247.288 693.1 247.08C692.06 246.803 690.778 246.664 689.252 246.664H688.836V241.152H715.044V246.664H714.524C712.999 246.664 711.543 246.699 710.156 246.768C708.839 246.768 707.73 246.837 706.828 246.976C705.996 247.045 705.58 247.219 705.58 247.496L722.116 293.048L720.66 292.008L736.572 248.952ZM765.417 269.648C765.417 273.669 765.868 277.101 766.769 279.944C767.74 282.787 769.092 285.075 770.825 286.808C772.558 288.541 774.534 289.824 776.753 290.656C779.041 291.488 781.502 291.904 784.137 291.904C787.049 291.904 789.58 291.384 791.729 290.344C793.878 289.304 795.716 287.987 797.241 286.392C798.836 284.797 800.188 283.099 801.297 281.296L806.289 285.352C804.972 287.779 803.238 289.997 801.089 292.008C798.94 293.949 796.409 295.475 793.497 296.584C790.654 297.624 787.465 298.144 783.929 298.144C778.66 298.144 773.91 297.035 769.681 294.816C765.452 292.597 762.089 289.339 759.593 285.04C757.166 280.741 755.953 275.576 755.953 269.544C755.953 263.651 757.062 258.52 759.281 254.152C761.569 249.715 764.654 246.283 768.537 243.856C772.489 241.36 776.996 240.112 782.057 240.112C786.148 240.112 789.684 240.771 792.665 242.088C795.646 243.405 798.142 245.381 800.153 248.016C802.164 250.651 803.689 253.944 804.729 257.896C805.769 261.848 806.289 266.459 806.289 271.728H763.233V265.696H799.425L796.721 267.984C796.582 264.032 796.201 260.704 795.577 258C795.022 255.227 794.156 253.008 792.977 251.344C791.868 249.611 790.412 248.363 788.609 247.6C786.806 246.837 784.622 246.456 782.057 246.456C779.63 246.456 777.377 246.941 775.297 247.912C773.286 248.813 771.518 250.235 769.993 252.176C768.537 254.117 767.393 256.544 766.561 259.456C765.798 262.368 765.417 265.765 765.417 269.648ZM885.842 248.12L883.658 248.848L898.01 297.624H908.098L921.41 251.864C921.826 250.477 922.416 249.437 923.178 248.744C924.01 247.981 924.981 247.461 926.09 247.184C927.269 246.837 928.517 246.664 929.834 246.664H930.25V241.152H906.33V246.664H906.85C908.376 246.664 909.762 246.768 911.01 246.976C912.258 247.115 913.264 247.357 914.026 247.704C914.858 248.051 915.274 248.467 915.274 248.952L903.522 291.696L904.77 292.736L890.21 241.152H881.162L866.498 291.696L867.954 292.84L855.786 247.496C855.786 247.219 856.202 247.045 857.034 246.976C857.866 246.837 858.941 246.768 860.258 246.768C861.645 246.699 863.136 246.664 864.73 246.664H865.25V241.152H839.25V246.664H839.666C841.053 246.664 842.266 246.803 843.306 247.08C844.416 247.288 845.352 247.704 846.114 248.328C846.877 248.952 847.432 249.888 847.778 251.136L860.882 297.624H870.97L885.842 248.12ZM990.861 269.128C990.861 275.021 989.682 280.152 987.325 284.52C985.037 288.888 981.778 292.251 977.549 294.608C973.389 296.965 968.501 298.144 962.885 298.144C957.199 298.144 952.242 296.965 948.013 294.608C943.853 292.251 940.594 288.888 938.237 284.52C935.949 280.152 934.805 275.021 934.805 269.128C934.805 264.691 935.463 260.704 936.781 257.168C938.098 253.563 940.005 250.512 942.501 248.016C944.997 245.451 947.943 243.509 951.341 242.192C954.807 240.805 958.655 240.112 962.885 240.112C967.114 240.112 970.927 240.805 974.325 242.192C977.722 243.509 980.669 245.451 983.165 248.016C985.661 250.512 987.567 253.563 988.885 257.168C990.202 260.704 990.861 264.691 990.861 269.128ZM944.581 269.128C944.581 274.12 945.274 278.315 946.661 281.712C948.047 285.109 950.093 287.675 952.797 289.408C955.501 291.072 958.863 291.904 962.885 291.904C966.906 291.904 970.269 291.072 972.973 289.408C975.677 287.675 977.687 285.109 979.005 281.712C980.391 278.315 981.085 274.12 981.085 269.128C981.085 264.275 980.391 260.184 979.005 256.856C977.687 253.459 975.677 250.893 972.973 249.16C970.269 247.357 966.906 246.456 962.885 246.456C958.863 246.456 955.501 247.357 952.797 249.16C950.093 250.893 948.047 253.459 946.661 256.856C945.274 260.184 944.581 264.275 944.581 269.128ZM1039.4 240.424V250.408C1038.92 250.269 1038.33 250.165 1037.64 250.096C1036.94 250.027 1036.21 249.957 1035.45 249.888C1034.76 249.819 1034.07 249.784 1033.37 249.784C1031.43 249.784 1029.7 249.992 1028.17 250.408C1026.65 250.755 1025.23 251.344 1023.91 252.176C1022.66 252.939 1021.45 253.944 1020.27 255.192C1019.16 256.44 1017.95 257.965 1016.63 259.768V254.984C1018.36 251.725 1020.13 248.987 1021.93 246.768C1023.8 244.549 1025.85 242.885 1028.07 241.776C1030.29 240.597 1032.78 240.008 1035.56 240.008C1036.39 240.008 1037.15 240.043 1037.84 240.112C1038.61 240.181 1039.13 240.285 1039.4 240.424ZM1000.2 297V292.008H1000.51C1003.21 292.008 1005.33 291.627 1006.85 290.864C1008.45 290.101 1009.24 288.541 1009.24 286.184V251.448C1009.24 250.408 1008.93 249.645 1008.31 249.16C1007.75 248.605 1006.89 248.155 1005.71 247.808C1004.53 247.461 1003.04 247.115 1001.24 246.768L1000.2 246.56V241.152H1016.84L1018.08 255.088L1018.5 254.672V289.72C1018.5 290.344 1018.99 290.829 1019.96 291.176C1020.93 291.523 1022.07 291.765 1023.39 291.904C1024.71 291.973 1025.85 292.008 1026.82 292.008H1029.11V297H1000.2ZM1099.77 287.328C1099.77 288.853 1100.54 289.859 1102.06 290.344C1103.66 290.829 1105.74 291.211 1108.3 291.488L1108.82 291.592V297H1092.18L1090.93 284.832L1090.52 284.728V228.464C1090.52 227.424 1090.21 226.661 1089.58 226.176C1089.03 225.621 1088.13 225.171 1086.88 224.824C1085.7 224.477 1084.17 224.131 1082.3 223.784L1081.26 223.576V218.168H1099.77V287.328ZM1072.21 240.112C1075.26 240.112 1077.97 240.632 1080.33 241.672C1082.75 242.712 1084.94 244.203 1086.88 246.144C1088.89 248.085 1090.73 250.512 1092.39 253.424L1092.08 260.288C1090.34 257.168 1088.51 254.603 1086.57 252.592C1084.62 250.512 1082.51 248.987 1080.22 248.016C1078 247.045 1075.51 246.56 1072.73 246.56C1070.03 246.56 1067.64 247.08 1065.56 248.12C1063.48 249.091 1061.74 250.547 1060.36 252.488C1058.97 254.429 1057.93 256.856 1057.24 259.768C1056.54 262.611 1056.2 265.869 1056.2 269.544C1056.2 273.08 1056.51 276.235 1057.13 279.008C1057.83 281.781 1058.8 284.139 1060.05 286.08C1061.36 287.952 1063.03 289.373 1065.04 290.344C1067.05 291.315 1069.41 291.8 1072.11 291.8C1075.02 291.8 1077.66 291.315 1080.01 290.344C1082.37 289.304 1084.56 287.779 1086.57 285.768C1088.58 283.688 1090.48 281.123 1092.29 278.072L1092.39 284.416C1090.59 287.328 1088.68 289.824 1086.67 291.904C1084.66 293.915 1082.37 295.475 1079.81 296.584C1077.31 297.624 1074.47 298.144 1071.28 298.144C1066.01 298.144 1061.54 296.965 1057.86 294.608C1054.19 292.181 1051.34 288.819 1049.33 284.52C1047.39 280.221 1046.42 275.229 1046.42 269.544C1046.42 263.789 1047.43 258.728 1049.44 254.36C1051.52 249.923 1054.5 246.456 1058.38 243.96C1062.26 241.395 1066.88 240.112 1072.21 240.112ZM1178.36 282.336C1178.36 280.672 1177.94 279.285 1177.11 278.176C1176.35 277.067 1175.27 276.165 1173.89 275.472C1172.5 274.779 1170.9 274.189 1169.1 273.704C1167.37 273.219 1165.57 272.768 1163.69 272.352C1161.41 271.867 1159.15 271.277 1156.93 270.584C1154.72 269.821 1152.7 268.851 1150.9 267.672C1149.1 266.493 1147.64 264.968 1146.53 263.096C1145.49 261.224 1144.97 258.832 1144.97 255.92C1144.97 252.731 1145.77 249.957 1147.37 247.6C1148.96 245.243 1151.28 243.405 1154.33 242.088C1157.38 240.771 1161.06 240.112 1165.36 240.112C1168.76 240.112 1171.7 240.32 1174.2 240.736C1176.76 241.083 1178.88 241.568 1180.54 242.192C1182.28 242.747 1183.56 243.267 1184.39 243.752V256.752H1175.24V246.04C1175.93 246.04 1176.52 246.144 1177.01 246.352C1177.56 246.491 1177.98 246.768 1178.25 247.184C1178.6 247.6 1178.84 248.12 1178.98 248.744C1179.19 249.299 1179.26 249.992 1179.19 250.824C1178.36 249.784 1177.25 248.952 1175.86 248.328C1174.48 247.635 1172.88 247.115 1171.08 246.768C1169.34 246.421 1167.44 246.248 1165.36 246.248C1161.27 246.248 1158.25 247.045 1156.31 248.64C1154.44 250.165 1153.5 252.245 1153.5 254.88C1153.5 256.544 1153.88 257.965 1154.65 259.144C1155.48 260.253 1156.59 261.155 1157.97 261.848C1159.36 262.541 1160.96 263.131 1162.76 263.616C1164.63 264.101 1166.57 264.587 1168.58 265.072C1170.8 265.557 1173.02 266.147 1175.24 266.84C1177.46 267.533 1179.43 268.469 1181.17 269.648C1182.97 270.827 1184.39 272.387 1185.43 274.328C1186.54 276.2 1187.09 278.557 1187.09 281.4C1187.09 284.589 1186.26 287.467 1184.6 290.032C1182.93 292.528 1180.47 294.504 1177.21 295.96C1173.96 297.416 1169.93 298.144 1165.15 298.144C1161.68 298.144 1158.56 297.901 1155.79 297.416C1153.09 296.931 1150.66 296.307 1148.51 295.544C1146.43 294.781 1144.63 293.915 1143.1 292.944V279.32H1152.46V293.672C1151.35 293.187 1150.49 292.667 1149.86 292.112C1149.31 291.557 1148.93 291.003 1148.72 290.448C1148.51 289.824 1148.41 289.235 1148.41 288.68C1148.41 288.056 1148.48 287.432 1148.61 286.808C1149.72 287.779 1151.08 288.645 1152.67 289.408C1154.33 290.171 1156.21 290.795 1158.29 291.28C1160.37 291.696 1162.65 291.904 1165.15 291.904C1168.06 291.904 1170.49 291.557 1172.43 290.864C1174.37 290.171 1175.83 289.131 1176.8 287.744C1177.84 286.288 1178.36 284.485 1178.36 282.336ZM1214.52 218.168V290.968C1214.52 291.176 1214.93 291.384 1215.77 291.592C1216.6 291.731 1217.6 291.835 1218.78 291.904C1219.96 291.973 1221.04 292.008 1222.01 292.008H1222.42V297H1196.11V292.008H1196.42C1198.22 292.008 1199.78 291.869 1201.1 291.592C1202.42 291.245 1203.42 290.656 1204.12 289.824C1204.88 288.923 1205.26 287.709 1205.26 286.184V228.464C1205.26 227.424 1204.95 226.661 1204.33 226.176C1203.77 225.621 1202.9 225.171 1201.73 224.824C1200.55 224.477 1199.02 224.131 1197.15 223.784L1196.11 223.576V218.168H1214.52ZM1259.24 297H1232.93V292.008H1233.34C1234.31 292.008 1235.39 291.973 1236.57 291.904C1237.74 291.835 1238.75 291.731 1239.58 291.592C1240.41 291.384 1240.83 291.176 1240.83 290.968V256.96C1240.83 254.672 1240.55 252.8 1240 251.344C1239.44 249.888 1238.51 248.813 1237.19 248.12C1235.87 247.357 1234.07 246.976 1231.78 246.976C1229.49 246.976 1227.24 247.427 1225.02 248.328C1222.87 249.229 1220.76 250.581 1218.68 252.384C1216.67 254.187 1214.62 256.475 1212.54 259.248V253.736C1214.55 250.755 1216.67 248.259 1218.89 246.248C1221.1 244.237 1223.46 242.712 1225.96 241.672C1228.52 240.632 1231.26 240.112 1234.17 240.112C1237.57 240.112 1240.45 240.701 1242.81 241.88C1245.16 242.989 1246.97 244.723 1248.21 247.08C1249.46 249.368 1250.09 252.28 1250.09 255.816V286.184C1250.09 288.541 1250.88 290.101 1252.48 290.864C1254.07 291.627 1256.22 292.008 1258.93 292.008H1259.24V297ZM1304.25 262.992V268.504C1300.02 269.059 1296.38 269.683 1293.33 270.376C1290.28 271.069 1287.75 271.832 1285.74 272.664C1283.73 273.496 1282.13 274.432 1280.95 275.472C1279.78 276.512 1278.94 277.691 1278.46 279.008C1277.97 280.325 1277.73 281.747 1277.73 283.272C1277.73 285.213 1278.11 286.843 1278.87 288.16C1279.71 289.477 1280.85 290.483 1282.31 291.176C1283.76 291.8 1285.46 292.112 1287.4 292.112C1289.62 292.112 1291.67 291.592 1293.54 290.552C1295.41 289.512 1297.21 287.952 1298.95 285.872C1300.68 283.792 1302.38 281.192 1304.04 278.072L1304.15 284.208C1302.76 287.051 1301.13 289.512 1299.26 291.592C1297.46 293.672 1295.38 295.301 1293.02 296.48C1290.73 297.589 1288.13 298.144 1285.22 298.144C1281.89 298.144 1278.94 297.589 1276.38 296.48C1273.81 295.301 1271.8 293.603 1270.35 291.384C1268.89 289.165 1268.16 286.496 1268.16 283.376C1268.16 280.464 1268.82 277.933 1270.14 275.784C1271.46 273.635 1273.54 271.763 1276.38 270.168C1279.29 268.573 1283.03 267.187 1287.61 266.008C1292.19 264.829 1297.73 263.824 1304.25 262.992ZM1304.04 297L1302.79 284.936L1302.27 284.312V257.168C1302.27 254.533 1301.93 252.419 1301.23 250.824C1300.54 249.229 1299.36 248.085 1297.7 247.392C1296.1 246.699 1293.92 246.352 1291.15 246.352C1286.99 246.352 1283.59 246.941 1280.95 248.12C1278.32 249.299 1276.34 250.547 1275.03 251.864C1275.03 251.309 1275.16 250.755 1275.44 250.2C1275.72 249.576 1276.1 249.021 1276.59 248.536C1277.07 247.981 1277.63 247.531 1278.25 247.184C1278.94 246.837 1279.71 246.595 1280.54 246.456V258.52H1271.39V245.832C1272.36 245.069 1273.74 244.272 1275.55 243.44C1277.42 242.539 1279.71 241.776 1282.41 241.152C1285.11 240.459 1288.16 240.112 1291.56 240.112C1294.34 240.112 1296.94 240.389 1299.36 240.944C1301.79 241.499 1303.9 242.4 1305.71 243.648C1307.51 244.896 1308.93 246.525 1309.97 248.536C1311.01 250.547 1311.53 253.008 1311.53 255.92V287.328C1311.53 288.299 1311.88 289.061 1312.57 289.616C1313.26 290.171 1314.23 290.587 1315.48 290.864C1316.73 291.072 1318.26 291.28 1320.06 291.488L1320.58 291.592V297H1304.04ZM1355.73 320.192H1326.92V315.2H1327.23C1328.97 315.2 1330.46 315.027 1331.71 314.68C1333.02 314.403 1334.03 313.813 1334.72 312.912C1335.42 312.08 1335.76 310.901 1335.76 309.376V251.448C1335.76 250.408 1335.45 249.645 1334.83 249.16C1334.27 248.605 1333.37 248.155 1332.12 247.808C1330.94 247.461 1329.45 247.115 1327.65 246.768L1326.61 246.56V241.152H1343.25L1344.5 254.048L1345.02 254.672V314.16C1345.02 314.368 1345.47 314.541 1346.37 314.68C1347.27 314.888 1348.35 315.027 1349.59 315.096C1350.84 315.165 1351.95 315.2 1352.92 315.2H1355.73V320.192ZM1363.32 298.144C1360.27 298.144 1357.53 297.624 1355.11 296.584C1352.75 295.544 1350.57 294.053 1348.55 292.112C1346.61 290.101 1344.78 287.675 1343.04 284.832L1343.35 278.072C1345.16 281.123 1347.03 283.653 1348.97 285.664C1350.91 287.675 1353.03 289.2 1355.31 290.24C1357.6 291.28 1360.1 291.8 1362.8 291.8C1365.51 291.8 1367.9 291.315 1369.98 290.344C1372.06 289.304 1373.76 287.813 1375.07 285.872C1376.46 283.861 1377.5 281.435 1378.19 278.592C1378.89 275.749 1379.23 272.491 1379.23 268.816C1379.23 265.211 1378.92 262.056 1378.3 259.352C1377.67 256.579 1376.7 254.256 1375.39 252.384C1374.14 250.443 1372.51 248.987 1370.5 248.016C1368.49 247.045 1366.13 246.56 1363.43 246.56C1360.58 246.56 1357.98 247.08 1355.63 248.12C1353.27 249.091 1351.09 250.616 1349.07 252.696C1347.06 254.707 1345.12 257.237 1343.25 260.288L1343.04 253.84C1344.91 250.928 1346.86 248.467 1348.87 246.456C1350.88 244.376 1353.13 242.816 1355.63 241.776C1358.19 240.667 1361.1 240.112 1364.36 240.112C1369.56 240.112 1374 241.325 1377.67 243.752C1381.35 246.179 1384.16 249.541 1386.1 253.84C1388.04 258.069 1389.01 263.061 1389.01 268.816C1389.01 274.501 1388.01 279.563 1385.99 284C1383.98 288.368 1381.04 291.835 1377.15 294.4C1373.34 296.896 1368.73 298.144 1363.32 298.144ZM1408.41 269.648C1408.41 273.669 1408.86 277.101 1409.76 279.944C1410.73 282.787 1412.08 285.075 1413.82 286.808C1415.55 288.541 1417.53 289.824 1419.75 290.656C1422.03 291.488 1424.49 291.904 1427.13 291.904C1430.04 291.904 1432.57 291.384 1434.72 290.344C1436.87 289.304 1438.71 287.987 1440.23 286.392C1441.83 284.797 1443.18 283.099 1444.29 281.296L1449.28 285.352C1447.96 287.779 1446.23 289.997 1444.08 292.008C1441.93 293.949 1439.4 295.475 1436.49 296.584C1433.65 297.624 1430.46 298.144 1426.92 298.144C1421.65 298.144 1416.9 297.035 1412.67 294.816C1408.44 292.597 1405.08 289.339 1402.59 285.04C1400.16 280.741 1398.95 275.576 1398.95 269.544C1398.95 263.651 1400.05 258.52 1402.27 254.152C1404.56 249.715 1407.65 246.283 1411.53 243.856C1415.48 241.36 1419.99 240.112 1425.05 240.112C1429.14 240.112 1432.68 240.771 1435.66 242.088C1438.64 243.405 1441.13 245.381 1443.15 248.016C1445.16 250.651 1446.68 253.944 1447.72 257.896C1448.76 261.848 1449.28 266.459 1449.28 271.728H1406.23V265.696H1442.42L1439.71 267.984C1439.57 264.032 1439.19 260.704 1438.57 258C1438.01 255.227 1437.15 253.008 1435.97 251.344C1434.86 249.611 1433.4 248.363 1431.6 247.6C1429.8 246.837 1427.61 246.456 1425.05 246.456C1422.62 246.456 1420.37 246.941 1418.29 247.912C1416.28 248.813 1414.51 250.235 1412.99 252.176C1411.53 254.117 1410.39 256.544 1409.55 259.456C1408.79 262.368 1408.41 265.765 1408.41 269.648ZM255.912 443.536V388.52C255.912 386.995 255.08 385.989 253.416 385.504C251.752 385.019 249.637 384.776 247.072 384.776H245.512V379.16H276.088V384.776H274.424C271.859 384.776 269.744 385.019 268.08 385.504C266.416 385.989 265.584 386.995 265.584 388.52V443.536C265.584 445.061 266.416 446.067 268.08 446.552C269.744 447.037 271.859 447.28 274.424 447.28H276.088V453H245.512V447.28H247.072C249.637 447.28 251.752 447.037 253.416 446.552C255.08 446.067 255.912 445.061 255.912 443.536ZM287.155 453V447.28H288.299C290.032 447.28 291.558 447.176 292.875 446.968C294.192 446.691 295.232 446.275 295.995 445.72C296.758 445.096 297.139 444.299 297.139 443.328V388.52C297.139 387.48 296.758 386.717 295.995 386.232C295.232 385.677 294.192 385.296 292.875 385.088C291.558 384.88 290.032 384.776 288.299 384.776H287.155V379.16H310.451L346.955 443.328L345.707 443.848V386.128C345.707 385.851 345.222 385.643 344.251 385.504C343.35 385.296 342.206 385.123 340.819 384.984C339.432 384.845 338.046 384.776 336.659 384.776H335.203V379.16H362.763V384.776H361.515C359.851 384.776 358.326 384.915 356.939 385.192C355.622 385.469 354.582 385.885 353.819 386.44C353.056 386.995 352.675 387.792 352.675 388.832V453H342.275L302.651 383.528L304.107 383.112V446.032C304.107 446.24 304.592 446.448 305.563 446.656C306.534 446.864 307.712 447.037 309.099 447.176C310.555 447.245 311.907 447.28 313.155 447.28H314.611V453H287.155ZM372.77 384.776V379.16H404.698C410.799 379.16 416.276 379.957 421.13 381.552C425.983 383.147 430.108 385.504 433.506 388.624C436.972 391.675 439.607 395.488 441.41 400.064C443.282 404.64 444.218 409.875 444.218 415.768C444.218 421.592 443.282 426.827 441.41 431.472C439.607 436.048 436.972 439.965 433.506 443.224C430.108 446.413 425.983 448.84 421.13 450.504C416.276 452.168 410.799 453 404.698 453H372.77V447.28H373.914C376.479 447.28 378.594 447.037 380.258 446.552C381.922 446.067 382.754 445.061 382.754 443.536V388.52C382.754 387.064 381.922 386.093 380.258 385.608C378.594 385.053 376.479 384.776 373.914 384.776H372.77ZM404.698 385.4H392.426V446.656H404.698C409.412 446.656 413.572 446.032 417.178 444.784C420.783 443.467 423.799 441.525 426.226 438.96C428.722 436.325 430.594 433.067 431.842 429.184C433.159 425.301 433.818 420.829 433.818 415.768C433.818 410.637 433.159 406.165 431.842 402.352C430.594 398.539 428.722 395.384 426.226 392.888C423.799 390.392 420.783 388.52 417.178 387.272C413.572 386.024 409.412 385.4 404.698 385.4ZM465.74 443.536V388.52C465.74 386.995 464.908 385.989 463.244 385.504C461.58 385.019 459.465 384.776 456.9 384.776H455.34V379.16H485.916V384.776H484.252C481.687 384.776 479.572 385.019 477.908 385.504C476.244 385.989 475.412 386.995 475.412 388.52V443.536C475.412 445.061 476.244 446.067 477.908 446.552C479.572 447.037 481.687 447.28 484.252 447.28H485.916V453H455.34V447.28H456.9C459.465 447.28 461.58 447.037 463.244 446.552C464.908 446.067 465.74 445.061 465.74 443.536ZM528.391 448.424C531.927 448.424 534.839 448.008 537.127 447.176C539.485 446.275 541.218 444.853 542.327 442.912C543.506 440.971 544.095 438.405 544.095 435.216C544.095 432.373 543.506 430.051 542.327 428.248C541.149 426.376 539.554 424.885 537.543 423.776C535.533 422.597 533.279 421.627 530.783 420.864C528.287 420.101 525.722 419.408 523.087 418.784C520.037 417.952 517.09 417.085 514.247 416.184C511.474 415.213 508.978 413.965 506.759 412.44C504.541 410.845 502.773 408.8 501.455 406.304C500.207 403.739 499.583 400.515 499.583 396.632C499.583 392.68 500.485 389.283 502.287 386.44C504.159 383.528 506.794 381.275 510.191 379.68C513.589 378.085 517.575 377.288 522.151 377.288C525.826 377.288 529.085 377.843 531.927 378.952C534.839 380.061 537.335 381.933 539.415 384.568C541.495 387.133 543.055 390.704 544.095 395.28L541.599 393.096L542.847 378.64H549.295V399.856H542.327C541.287 396.32 539.831 393.339 537.959 390.912C536.157 388.485 533.973 386.648 531.407 385.4C528.842 384.152 525.895 383.528 522.567 383.528C519.239 383.528 516.501 384.013 514.351 384.984C512.271 385.955 510.746 387.376 509.775 389.248C508.805 391.051 508.319 393.235 508.319 395.8C508.319 398.365 508.839 400.48 509.879 402.144C510.989 403.739 512.479 405.056 514.351 406.096C516.223 407.067 518.407 407.933 520.903 408.696C523.399 409.389 526.069 410.117 528.911 410.88C531.893 411.643 534.805 412.509 537.647 413.48C540.559 414.451 543.194 415.733 545.551 417.328C547.978 418.923 549.885 421.003 551.271 423.568C552.658 426.064 553.351 429.219 553.351 433.032C553.351 437.955 552.242 442.045 550.023 445.304C547.874 448.493 544.927 450.885 541.183 452.48C537.509 454.005 533.314 454.768 528.599 454.768C524.231 454.768 520.21 454.109 516.535 452.792C512.93 451.405 509.845 449.187 507.279 446.136C504.783 443.016 503.05 438.821 502.079 433.552L505.303 436.464L504.055 453.52H497.295V429.08H504.367C505.407 433.309 507.037 436.88 509.255 439.792C511.474 442.704 514.178 444.888 517.367 446.344C520.626 447.731 524.301 448.424 528.391 448.424ZM589.512 443.536V385.296H583.584C580.394 385.296 577.829 385.435 575.888 385.712C573.946 385.989 572.525 386.509 571.624 387.272C570.722 388.035 570.202 389.04 570.064 390.288L568.92 401.936H562.68V379.16H626.016V401.936H619.776L618.632 390.288C618.493 389.04 617.938 388.035 616.968 387.272C616.066 386.509 614.645 385.989 612.704 385.712C610.762 385.435 608.232 385.296 605.112 385.296H599.184V443.536C599.184 445.061 600.05 446.067 601.784 446.552C603.517 447.037 605.666 447.28 608.232 447.28H610.104V453H578.488V447.28H580.36C582.925 447.28 585.074 447.037 586.808 446.552C588.61 446.067 589.512 445.061 589.512 443.536ZM646.826 443.536V388.52C646.826 386.995 645.994 385.989 644.33 385.504C642.666 385.019 640.551 384.776 637.986 384.776H636.426V379.16H667.002V384.776H665.338C662.773 384.776 660.658 385.019 658.994 385.504C657.33 385.989 656.498 386.995 656.498 388.52V443.536C656.498 445.061 657.33 446.067 658.994 446.552C660.658 447.037 662.773 447.28 665.338 447.28H667.002V453H636.426V447.28H637.986C640.551 447.28 642.666 447.037 644.33 446.552C645.994 446.067 646.826 445.061 646.826 443.536ZM678.069 453V447.28H679.213C680.946 447.28 682.472 447.176 683.789 446.968C685.106 446.691 686.146 446.275 686.909 445.72C687.672 445.096 688.053 444.299 688.053 443.328V388.52C688.053 387.48 687.672 386.717 686.909 386.232C686.146 385.677 685.106 385.296 683.789 385.088C682.472 384.88 680.946 384.776 679.213 384.776H678.069V379.16H701.365L737.869 443.328L736.621 443.848V386.128C736.621 385.851 736.136 385.643 735.165 385.504C734.264 385.296 733.12 385.123 731.733 384.984C730.346 384.845 728.96 384.776 727.573 384.776H726.117V379.16H753.677V384.776H752.429C750.765 384.776 749.24 384.915 747.853 385.192C746.536 385.469 745.496 385.885 744.733 386.44C743.97 386.995 743.589 387.792 743.589 388.832V453H733.189L693.565 383.528L695.021 383.112V446.032C695.021 446.24 695.506 446.448 696.477 446.656C697.448 446.864 698.626 447.037 700.013 447.176C701.469 447.245 702.821 447.28 704.069 447.28H705.525V453H678.069ZM799.044 383.84C795.3 383.84 791.903 384.533 788.852 385.92C785.871 387.307 783.271 389.352 781.052 392.056C778.903 394.76 777.239 398.123 776.06 402.144C774.881 406.165 774.292 410.811 774.292 416.08C774.292 421.349 774.847 425.995 775.956 430.016C777.135 433.968 778.833 437.296 781.052 440C783.271 442.704 785.975 444.749 789.164 446.136C792.423 447.523 796.132 448.216 800.292 448.216C804.868 448.216 808.82 447.28 812.148 445.408C815.476 443.536 818.215 441.005 820.364 437.816C822.583 434.557 824.281 430.952 825.46 427L831.908 429.6C830.452 434.661 828.268 439.099 825.356 442.912C822.444 446.656 818.839 449.568 814.54 451.648C810.241 453.728 805.319 454.768 799.772 454.768C794.433 454.768 789.545 453.901 785.108 452.168C780.74 450.435 776.961 447.904 773.772 444.576C770.583 441.179 768.121 437.088 766.388 432.304C764.724 427.52 763.892 422.112 763.892 416.08C763.892 409.979 764.759 404.536 766.492 399.752C768.295 394.968 770.791 390.912 773.98 387.584C777.169 384.256 780.879 381.725 785.108 379.992C789.407 378.189 794.017 377.288 798.94 377.288C803.793 377.288 807.988 378.12 811.524 379.784C815.06 381.379 817.972 383.736 820.26 386.856C822.548 389.976 824.143 393.824 825.044 398.4L822.028 395.696L823.484 378.64H830.244V403.392H822.964C821.785 399.371 820.121 395.904 817.972 392.992C815.823 390.08 813.153 387.827 809.964 386.232C806.844 384.637 803.204 383.84 799.044 383.84ZM869.824 443.536V385.296H863.896C860.707 385.296 858.141 385.435 856.2 385.712C854.259 385.989 852.837 386.509 851.936 387.272C851.035 388.035 850.515 389.04 850.376 390.288L849.232 401.936H842.992V379.16H906.328V401.936H900.088L898.944 390.288C898.805 389.04 898.251 388.035 897.28 387.272C896.379 386.509 894.957 385.989 893.016 385.712C891.075 385.435 888.544 385.296 885.424 385.296H879.496V443.536C879.496 445.061 880.363 446.067 882.096 446.552C883.829 447.037 885.979 447.28 888.544 447.28H890.416V453H858.8V447.28H860.672C863.237 447.28 865.387 447.037 867.12 446.552C868.923 446.067 869.824 445.061 869.824 443.536ZM939.698 379.16H966.426V384.776H964.658C963.48 384.776 962.232 384.845 960.914 384.984C959.666 385.053 958.592 385.157 957.69 385.296C956.789 385.435 956.338 385.643 956.338 385.92L971.938 447.8H970.69L987.746 379.16H998.77L1016.45 447.488H1015.2L1030.07 386.96C1030.07 386.544 1029.62 386.163 1028.72 385.816C1027.89 385.469 1026.85 385.227 1025.6 385.088C1024.35 384.88 1023.14 384.776 1021.96 384.776H1020.4V379.16H1044.11V384.776H1043.49C1041.62 384.776 1040.02 385.123 1038.71 385.816C1037.46 386.509 1036.63 387.688 1036.21 389.352L1020.4 453H1009.17L991.49 385.296H992.634L975.89 453H964.554L947.498 388.416C947.013 386.683 946.181 385.643 945.002 385.296C943.893 384.949 942.333 384.776 940.322 384.776H939.698V379.16ZM1086.91 454.768C1081.57 454.768 1076.68 453.901 1072.24 452.168C1067.8 450.365 1063.92 447.8 1060.59 444.472C1057.34 441.075 1054.8 436.984 1053 432.2C1051.2 427.416 1050.3 422.043 1050.3 416.08C1050.3 410.048 1051.2 404.64 1053 399.856C1054.8 395.072 1057.34 391.016 1060.59 387.688C1063.92 384.291 1067.8 381.725 1072.24 379.992C1076.68 378.189 1081.57 377.288 1086.91 377.288C1092.24 377.288 1097.13 378.189 1101.57 379.992C1106.01 381.725 1109.86 384.291 1113.11 387.688C1116.44 391.016 1119.01 395.072 1120.81 399.856C1122.61 404.64 1123.51 410.048 1123.51 416.08C1123.51 422.043 1122.61 427.416 1120.81 432.2C1119.01 436.984 1116.44 441.075 1113.11 444.472C1109.86 447.8 1106.01 450.365 1101.57 452.168C1097.13 453.901 1092.24 454.768 1086.91 454.768ZM1086.91 448.32C1090.93 448.32 1094.53 447.627 1097.72 446.24C1100.98 444.853 1103.75 442.808 1106.04 440.104C1108.33 437.4 1110.06 434.037 1111.24 430.016C1112.49 425.925 1113.11 421.28 1113.11 416.08C1113.11 410.811 1112.49 406.165 1111.24 402.144C1110.06 398.123 1108.33 394.76 1106.04 392.056C1103.75 389.283 1100.98 387.203 1097.72 385.816C1094.53 384.429 1090.93 383.736 1086.91 383.736C1082.88 383.736 1079.24 384.429 1075.99 385.816C1072.73 387.203 1069.95 389.283 1067.67 392.056C1065.45 394.76 1063.71 398.123 1062.47 402.144C1061.29 406.165 1060.7 410.811 1060.7 416.08C1060.7 421.28 1061.29 425.925 1062.47 430.016C1063.71 434.037 1065.45 437.4 1067.67 440.104C1069.95 442.808 1072.73 444.853 1075.99 446.24C1079.24 447.627 1082.88 448.32 1086.91 448.32ZM1168.49 419.616L1186.8 453H1202.4V447.28H1201.46C1200.07 447.28 1198.83 447.176 1197.72 446.968C1196.61 446.76 1195.6 446.309 1194.7 445.616C1193.87 444.923 1193.04 443.952 1192.2 442.704L1177.54 417.328L1168.49 419.616ZM1154.24 446.24V385.4H1167.04C1170.64 385.4 1173.62 385.989 1175.98 387.168C1178.34 388.277 1180.07 389.941 1181.18 392.16C1182.36 394.379 1182.95 397.083 1182.95 400.272C1182.95 403.461 1182.36 406.235 1181.18 408.592C1180.07 410.88 1178.3 412.648 1175.88 413.896C1173.45 415.144 1170.33 415.768 1166.52 415.768H1152.68V421.696H1168.7C1169.39 421.696 1170.05 421.627 1170.68 421.488C1171.37 421.349 1172.06 421.176 1172.76 420.968C1173.45 420.76 1174.14 420.517 1174.84 420.24C1178.65 419.339 1181.91 417.952 1184.61 416.08C1187.39 414.139 1189.53 411.816 1191.06 409.112C1192.59 406.339 1193.35 403.184 1193.35 399.648C1193.35 395.349 1192.31 391.675 1190.23 388.624C1188.15 385.573 1185.17 383.251 1181.28 381.656C1177.4 379.992 1172.72 379.16 1167.24 379.16H1134.69V384.776H1135.84C1138.4 384.776 1140.52 385.019 1142.18 385.504C1143.84 385.989 1144.68 386.995 1144.68 388.52V443.536C1144.68 445.061 1143.84 446.067 1142.18 446.552C1140.52 447.037 1138.4 447.28 1135.84 447.28H1134.69V453H1164.96V447.28H1163.19C1162.15 447.28 1161.07 447.28 1159.96 447.28C1158.92 447.211 1157.95 447.141 1157.05 447.072C1156.22 446.933 1155.53 446.829 1154.97 446.76C1154.49 446.621 1154.24 446.448 1154.24 446.24ZM1210.97 384.776V379.16H1242.89C1248.99 379.16 1254.47 379.957 1259.33 381.552C1264.18 383.147 1268.3 385.504 1271.7 388.624C1275.17 391.675 1277.8 395.488 1279.61 400.064C1281.48 404.64 1282.41 409.875 1282.41 415.768C1282.41 421.592 1281.48 426.827 1279.61 431.472C1277.8 436.048 1275.17 439.965 1271.7 443.224C1268.3 446.413 1264.18 448.84 1259.33 450.504C1254.47 452.168 1248.99 453 1242.89 453H1210.97V447.28H1212.11C1214.67 447.28 1216.79 447.037 1218.45 446.552C1220.12 446.067 1220.95 445.061 1220.95 443.536V388.52C1220.95 387.064 1220.12 386.093 1218.45 385.608C1216.79 385.053 1214.67 384.776 1212.11 384.776H1210.97ZM1242.89 385.4H1230.62V446.656H1242.89C1247.61 446.656 1251.77 446.032 1255.37 444.784C1258.98 443.467 1261.99 441.525 1264.42 438.96C1266.92 436.325 1268.79 433.067 1270.04 429.184C1271.35 425.301 1272.01 420.829 1272.01 415.768C1272.01 410.637 1271.35 406.165 1270.04 402.352C1268.79 398.539 1266.92 395.384 1264.42 392.888C1261.99 390.392 1258.98 388.52 1255.37 387.272C1251.77 386.024 1247.61 385.4 1242.89 385.4ZM1352.06 448.424C1355.6 448.424 1358.51 448.008 1360.8 447.176C1363.16 446.275 1364.89 444.853 1366 442.912C1367.18 440.971 1367.77 438.405 1367.77 435.216C1367.77 432.373 1367.18 430.051 1366 428.248C1364.82 426.376 1363.23 424.885 1361.22 423.776C1359.2 422.597 1356.95 421.627 1354.46 420.864C1351.96 420.101 1349.39 419.408 1346.76 418.784C1343.71 417.952 1340.76 417.085 1337.92 416.184C1335.15 415.213 1332.65 413.965 1330.43 412.44C1328.21 410.845 1326.44 408.8 1325.13 406.304C1323.88 403.739 1323.26 400.515 1323.26 396.632C1323.26 392.68 1324.16 389.283 1325.96 386.44C1327.83 383.528 1330.47 381.275 1333.86 379.68C1337.26 378.085 1341.25 377.288 1345.82 377.288C1349.5 377.288 1352.76 377.843 1355.6 378.952C1358.51 380.061 1361.01 381.933 1363.09 384.568C1365.17 387.133 1366.73 390.704 1367.77 395.28L1365.27 393.096L1366.52 378.64H1372.97V399.856H1366C1364.96 396.32 1363.5 393.339 1361.63 390.912C1359.83 388.485 1357.64 386.648 1355.08 385.4C1352.51 384.152 1349.57 383.528 1346.24 383.528C1342.91 383.528 1340.17 384.013 1338.02 384.984C1335.94 385.955 1334.42 387.376 1333.45 389.248C1332.48 391.051 1331.99 393.235 1331.99 395.8C1331.99 398.365 1332.51 400.48 1333.55 402.144C1334.66 403.739 1336.15 405.056 1338.02 406.096C1339.9 407.067 1342.08 407.933 1344.58 408.696C1347.07 409.389 1349.74 410.117 1352.58 410.88C1355.56 411.643 1358.48 412.509 1361.32 413.48C1364.23 414.451 1366.87 415.733 1369.22 417.328C1371.65 418.923 1373.56 421.003 1374.94 423.568C1376.33 426.064 1377.02 429.219 1377.02 433.032C1377.02 437.955 1375.91 442.045 1373.7 445.304C1371.55 448.493 1368.6 450.885 1364.86 452.48C1361.18 454.005 1356.99 454.768 1352.27 454.768C1347.9 454.768 1343.88 454.109 1340.21 452.792C1336.6 451.405 1333.52 449.187 1330.95 446.136C1328.46 443.016 1326.72 438.821 1325.75 433.552L1328.98 436.464L1327.73 453.52H1320.97V429.08H1328.04C1329.08 433.309 1330.71 436.88 1332.93 439.792C1335.15 442.704 1337.85 444.888 1341.04 446.344C1344.3 447.731 1347.97 448.424 1352.06 448.424ZM1404.84 411.816H1448.73V418.056H1404.84V411.816ZM1387.89 453V447.28H1389.03C1391.6 447.28 1393.71 447.037 1395.38 446.552C1397.04 446.067 1397.87 445.061 1397.87 443.536V388.52C1397.87 386.995 1397.04 385.989 1395.38 385.504C1393.71 385.019 1391.6 384.776 1389.03 384.776H1387.89V379.16H1417.53V384.776H1416.59C1415.62 384.776 1414.58 384.811 1413.47 384.88C1412.43 384.88 1411.46 384.949 1410.56 385.088C1409.66 385.157 1408.93 385.261 1408.38 385.4C1407.82 385.469 1407.54 385.608 1407.54 385.816V446.344C1407.54 446.552 1407.82 446.725 1408.38 446.864C1408.93 446.933 1409.66 447.037 1410.56 447.176C1411.46 447.245 1412.43 447.28 1413.47 447.28C1414.58 447.28 1415.62 447.28 1416.59 447.28H1417.53V453H1387.89ZM1436.04 453V447.384H1436.98C1437.95 447.384 1438.95 447.349 1439.99 447.28C1441.1 447.211 1442.11 447.141 1443.01 447.072C1443.91 447.003 1444.64 446.933 1445.19 446.864C1445.75 446.725 1446.02 446.552 1446.02 446.344V385.816C1446.02 385.608 1445.75 385.469 1445.19 385.4C1444.64 385.261 1443.91 385.157 1443.01 385.088C1442.11 384.949 1441.1 384.88 1439.99 384.88C1438.95 384.811 1437.95 384.776 1436.98 384.776H1436.04V379.16H1465.68V384.776H1464.54C1461.97 384.776 1459.86 385.019 1458.19 385.504C1456.53 385.989 1455.7 386.995 1455.7 388.52V443.536C1455.7 445.061 1456.53 446.067 1458.19 446.552C1459.86 447.037 1461.97 447.28 1464.54 447.28H1465.68V453H1436.04ZM1492.05 422.112H1521.79L1522.83 428.144H1490.7L1492.05 422.112ZM1505.67 382.696L1507.34 384.672L1487.16 445.2C1487.16 445.547 1487.58 445.893 1488.41 446.24C1489.24 446.587 1490.35 446.864 1491.74 447.072C1493.12 447.211 1494.61 447.28 1496.21 447.28H1497.56V453H1472.5V447.28H1473.12C1475.13 447.28 1476.76 446.968 1478.01 446.344C1479.32 445.651 1480.4 444.125 1481.23 441.768L1502.45 378.536H1513.58L1535.42 442.496C1536.18 444.576 1537.18 445.893 1538.43 446.448C1539.75 447.003 1541.38 447.28 1543.32 447.28H1543.84V453H1516.38V447.28H1517.84C1519.43 447.28 1520.92 447.245 1522.31 447.176C1523.7 447.107 1524.81 447.003 1525.64 446.864C1526.54 446.656 1526.99 446.448 1526.99 446.24L1505.67 382.696ZM1570.55 446.344V385.4H1583.76C1587.44 385.4 1590.45 386.024 1592.81 387.272C1595.24 388.451 1597.04 390.184 1598.22 392.472C1599.4 394.76 1599.99 397.637 1599.99 401.104C1599.99 404.571 1599.4 407.517 1598.22 409.944C1597.04 412.371 1595.24 414.243 1592.81 415.56C1590.38 416.808 1587.3 417.432 1583.55 417.432H1567.64V423.568H1583.66C1589.07 423.568 1593.75 422.667 1597.7 420.864C1601.72 419.061 1604.8 416.496 1606.95 413.168C1609.17 409.771 1610.28 405.715 1610.28 401C1610.28 393.928 1607.96 388.52 1603.31 384.776C1598.67 381.032 1592.19 379.16 1583.87 379.16H1550.9V384.776H1552.04C1554.61 384.776 1556.72 385.019 1558.39 385.504C1560.05 385.989 1560.88 386.995 1560.88 388.52V443.536C1560.88 445.061 1560.05 446.067 1558.39 446.552C1556.72 447.037 1554.61 447.28 1552.04 447.28H1550.9V453H1581.89V447.28H1579.5C1578.39 447.28 1577.31 447.28 1576.27 447.28C1575.23 447.211 1574.26 447.141 1573.36 447.072C1572.53 447.003 1571.84 446.933 1571.28 446.864C1570.8 446.725 1570.55 446.552 1570.55 446.344ZM1678.1 429.912V453H1619.86V447.28H1621C1623.57 447.28 1625.68 447.037 1627.34 446.552C1629.01 446.067 1629.84 445.061 1629.84 443.536V388.52C1629.84 386.995 1629.01 385.989 1627.34 385.504C1625.68 385.019 1623.57 384.776 1621 384.776H1619.86V379.16H1675.5V399.648H1669.26L1668.11 389.976C1667.97 388.728 1667.45 387.792 1666.55 387.168C1665.65 386.475 1664.26 386.024 1662.39 385.816C1660.52 385.539 1658.09 385.4 1655.11 385.4H1639.41V446.656H1657.4C1659.62 446.656 1661.53 446.621 1663.12 446.552C1664.78 446.413 1666.14 446.171 1667.18 445.824C1668.22 445.477 1668.98 444.992 1669.46 444.368C1670.02 443.744 1670.33 442.981 1670.4 442.08L1671.65 429.912H1678.1ZM1637.02 412.232C1640.14 412.024 1643.26 411.885 1646.38 411.816C1649.5 411.677 1652.62 411.539 1655.74 411.4C1658.86 411.261 1661.98 411.123 1665.1 410.984V419.2C1661.98 419.061 1658.86 418.923 1655.74 418.784C1652.62 418.645 1649.5 418.507 1646.38 418.368C1643.26 418.229 1640.14 418.091 1637.02 417.952V412.232Z" fill="#3C4043"/>
</svg>
