<svg width="1920" height="1080" viewBox="0 0 1920 1080" fill="none" xmlns="http://www.w3.org/2000/svg">
<mask id="mask0_3328_15624" style="mask-type:alpha" maskUnits="userSpaceOnUse" x="-4" y="413" width="157" height="243">
<rect x="93.1367" y="413" width="83.6087" height="137.373" transform="rotate(45 93.1367 413)" fill="#D9D9D9"/>
<rect x="152.34" y="596.537" width="83.6087" height="137.373" transform="rotate(135 152.34 596.537)" fill="#D9D9D9"/>
</mask>
<g mask="url(#mask0_3328_15624)">
<circle cx="193.449" cy="538.449" r="143.957" fill="#FF6D7F"/>
</g>
<circle cx="194.5" cy="539.5" r="129.5" fill="white" stroke="#3C4043" stroke-width="10"/>
<ellipse cx="293.693" cy="539.5" rx="35.3062" ry="79.0187" fill="#1A73E8"/>
<ellipse cx="307.984" cy="539.5" rx="21.0156" ry="47.075" fill="#3C4043"/>
<path d="M556 398.348L704 334V778L556 713.652V398.348Z" fill="#D2E3FC"/>
<path d="M649.905 425.436L649.905 435.39L656.31 433.655L656.31 423.701L649.905 425.436ZM649.905 435.089L649.905 445.042L656.31 443.307L656.31 433.353L649.905 435.089ZM649.905 444.741L649.905 454.695L656.31 452.959L656.31 443.005L649.905 444.741ZM649.905 454.393L649.905 464.347L656.31 462.611L656.31 452.658L649.905 454.393ZM649.905 464.045L649.905 473.999L656.31 472.264L656.31 462.31L649.905 464.045ZM649.905 473.697L649.905 483.651L656.31 481.916L656.31 471.962L649.905 473.697ZM649.905 483.349L649.905 493.303L656.31 491.568L656.31 481.614L649.905 483.349ZM649.905 493.002L649.905 502.955L656.31 501.22L656.31 491.266L649.905 493.002ZM649.905 502.654L649.905 512.608L656.31 510.872L656.31 500.918L649.905 502.654ZM649.905 512.306L649.905 522.26L656.31 520.524L656.31 510.571L649.905 512.306ZM649.905 521.958L649.905 531.912L656.31 530.177L656.31 520.223L649.905 521.958ZM649.905 531.61L649.905 541.564L656.31 539.829L656.31 529.875L649.905 531.61ZM649.905 541.262L649.905 551.216L656.31 549.481L656.31 539.527L649.905 541.262ZM649.905 550.915L649.905 560.868L656.31 559.133L656.31 549.179L649.905 550.915ZM649.905 579.932L649.905 589.885L656.31 588.15L656.31 578.196L649.905 579.932ZM649.905 589.584L649.905 599.537L656.31 597.802L656.31 587.848L649.905 589.584ZM649.905 599.236L649.905 609.19L656.31 607.454L656.31 597.5L649.905 599.236ZM649.905 608.888L649.905 618.842L656.31 617.106L656.31 607.153L649.905 608.888ZM649.905 618.54L649.905 628.494L656.31 626.759L656.31 616.805L649.905 618.54ZM649.905 628.192L649.905 638.146L656.31 636.411L656.31 626.457L649.905 628.192ZM649.905 637.845L649.905 647.798L656.31 646.063L656.31 636.109L649.905 637.845ZM630.601 430.667L630.601 440.621L637.006 438.885L637.006 428.931L630.601 430.667ZM630.601 440.319L630.601 450.273L637.006 448.537L637.006 438.584L630.601 440.319ZM630.601 449.971L630.601 459.925L637.006 458.189L637.006 448.236L630.601 449.971ZM630.601 459.623L630.601 469.577L637.006 467.842L637.006 457.888L630.601 459.623ZM630.601 469.275L630.601 479.229L637.006 477.494L637.006 467.54L630.601 469.275ZM630.601 478.928L630.601 488.881L637.006 487.146L637.006 477.192L630.601 478.928ZM630.601 488.58L630.601 498.534L637.006 496.798L637.006 486.844L630.601 488.58ZM630.601 498.232L630.601 508.186L637.006 506.45L637.006 496.497L630.601 498.232ZM630.601 507.884L630.601 517.838L637.006 516.103L637.006 506.149L630.601 507.884ZM630.601 536.901L630.601 546.855L637.006 545.119L637.006 535.166L630.601 536.901ZM630.601 546.553L630.601 556.507L637.006 554.772L637.006 544.818L630.601 546.553ZM630.601 556.205L630.601 566.159L637.006 564.424L637.006 554.47L630.601 556.205ZM630.601 565.857L630.601 575.811L637.006 574.076L637.006 564.122L630.601 565.857ZM630.601 575.51L630.601 585.463L637.006 583.728L637.006 573.774L630.601 575.51ZM630.601 585.162L630.601 595.116L637.006 593.38L637.006 583.426L630.601 585.162ZM630.601 594.814L630.601 604.768L637.006 603.032L637.006 593.079L630.601 594.814ZM630.601 604.466L630.601 614.42L637.006 612.685L637.006 602.731L630.601 604.466ZM611.297 435.897L611.297 445.851L617.702 444.115L617.702 434.162L611.297 435.897ZM611.297 445.549L611.297 455.503L617.702 453.768L617.702 443.814L611.297 445.549ZM611.297 455.201L611.297 465.155L617.702 463.42L617.702 453.466L611.297 455.201ZM611.297 464.854L611.297 474.807L617.702 473.072L617.702 463.118L611.297 464.854ZM611.297 474.506L611.297 484.46L617.702 482.724L617.702 472.77L611.297 474.506ZM611.297 484.158L611.297 494.112L617.702 492.376L617.702 482.423L611.297 484.158ZM611.297 493.81L611.297 503.764L617.702 502.028L617.702 492.075L611.297 493.81ZM611.297 503.462L611.297 513.416L617.702 511.681L617.702 501.727L611.297 503.462ZM611.297 513.114L611.297 523.068L617.702 521.333L617.702 511.379L611.297 513.114ZM611.297 522.767L611.297 532.72L617.702 530.985L617.702 521.031L611.297 522.767ZM611.297 532.419L611.297 542.373L617.702 540.637L617.702 530.683L611.297 532.419ZM611.297 542.071L611.297 552.025L617.702 550.289L617.702 540.336L611.297 542.071ZM611.297 571.088L611.297 581.042L617.702 579.306L617.702 569.352L611.297 571.088ZM611.297 580.74L611.297 590.694L617.702 588.958L617.702 579.005L611.297 580.74ZM611.297 609.757L611.297 619.711L617.702 617.975L617.702 608.021L611.297 609.757ZM611.297 619.409L611.297 629.363L617.702 627.627L617.702 617.674L611.297 619.409ZM611.297 629.061L611.297 639.015L617.702 637.28L617.702 627.326L611.297 629.061ZM591.993 441.127L591.993 451.081L598.398 449.346L598.398 439.392L591.993 441.127ZM591.993 450.779L591.993 460.733L598.398 458.998L598.398 449.044L591.993 450.779ZM591.993 460.432L591.993 470.385L598.398 468.65L598.398 458.696L591.993 460.432ZM591.993 470.084L591.993 480.038L598.398 478.302L598.398 468.348L591.993 470.084ZM591.993 479.736L591.993 489.69L598.398 487.954L598.398 478.001L591.993 479.736ZM591.993 489.388L591.993 499.342L598.398 497.607L598.398 487.653L591.993 489.388ZM591.993 499.04L591.993 508.994L598.398 507.259L598.398 497.305L591.993 499.04ZM591.993 508.693L591.993 518.646L598.398 516.911L598.398 506.957L591.993 508.693ZM591.993 518.345L591.993 528.299L598.398 526.563L598.398 516.609L591.993 518.345ZM591.993 527.997L591.993 537.951L598.398 536.215L598.398 526.262L591.993 527.997ZM591.993 537.649L591.993 547.603L598.398 545.867L598.398 535.914L591.993 537.649ZM591.993 547.301L591.993 557.255L598.398 555.52L598.398 545.566L591.993 547.301ZM591.993 556.953L591.993 566.907L598.398 565.172L598.398 555.218L591.993 556.953ZM591.993 566.606L591.993 576.559L598.398 574.824L598.398 564.87L591.993 566.606ZM591.993 595.622L591.993 605.576L598.398 603.841L598.398 593.887L591.993 595.622ZM591.993 605.275L591.993 615.228L598.398 613.493L598.398 603.539L591.993 605.275ZM591.993 614.927L591.993 624.881L598.398 623.145L598.398 613.191L591.993 614.927ZM591.993 624.579L591.993 634.533L598.398 632.797L598.398 622.844L591.993 624.579ZM572.689 446.358L572.689 456.311L579.094 454.576L579.094 444.622L572.689 446.358ZM572.689 456.01L572.689 465.964L579.094 464.228L579.094 454.274L572.689 456.01ZM572.689 465.662L572.689 475.616L579.094 473.88L579.094 463.927L572.689 465.662ZM572.689 494.679L572.689 504.633L579.094 502.897L579.094 492.943L572.689 494.679ZM572.689 504.331L572.689 514.285L579.094 512.549L579.094 502.596L572.689 504.331ZM572.689 513.983L572.689 523.937L579.094 522.202L579.094 512.248L572.689 513.983ZM572.689 523.635L572.689 533.589L579.094 531.854L579.094 521.9L572.689 523.635ZM572.689 533.288L572.689 543.241L579.094 541.506L579.094 531.552L572.689 533.288ZM572.689 542.94L572.689 552.893L579.094 551.158L579.094 541.204L572.689 542.94ZM572.689 552.592L572.689 562.546L579.094 560.81L579.094 550.856L572.689 552.592ZM572.689 562.244L572.689 572.198L579.094 570.462L579.094 560.509L572.689 562.244ZM572.689 571.896L572.689 581.85L579.094 580.115L579.094 570.161L572.689 571.896ZM572.689 581.548L572.689 591.502L579.094 589.767L579.094 579.813L572.689 581.548ZM572.689 591.201L572.689 601.154L579.094 599.419L579.094 589.465L572.689 591.201ZM572.689 600.853L572.689 610.807L579.094 609.071L579.094 599.117L572.689 600.853ZM572.689 610.505L572.689 620.459L579.094 618.723L579.094 608.77L572.689 610.505ZM572.689 620.157L572.689 630.111L579.094 628.376L579.094 618.422L572.689 620.157Z" fill="#F3F7FE"/>
<path d="M800 398.348L948 334V778L800 713.652V398.348Z" fill="#D2E3FC"/>
<path d="M893.905 425.436L893.905 435.39L900.31 433.655L900.31 423.701L893.905 425.436ZM893.905 435.089L893.905 445.042L900.31 443.307L900.31 433.353L893.905 435.089ZM893.905 444.741L893.905 454.695L900.31 452.959L900.31 443.005L893.905 444.741ZM893.905 454.393L893.905 464.347L900.31 462.611L900.31 452.658L893.905 454.393ZM893.905 464.045L893.905 473.999L900.31 472.264L900.31 462.31L893.905 464.045ZM893.905 473.697L893.905 483.651L900.31 481.916L900.31 471.962L893.905 473.697ZM893.905 483.349L893.905 493.303L900.31 491.568L900.31 481.614L893.905 483.349ZM893.905 493.002L893.905 502.955L900.31 501.22L900.31 491.266L893.905 493.002ZM893.905 502.654L893.905 512.608L900.31 510.872L900.31 500.918L893.905 502.654ZM893.905 512.306L893.905 522.26L900.31 520.524L900.31 510.571L893.905 512.306ZM893.905 521.958L893.905 531.912L900.31 530.177L900.31 520.223L893.905 521.958ZM893.905 531.61L893.905 541.564L900.31 539.829L900.31 529.875L893.905 531.61ZM893.905 541.262L893.905 551.216L900.31 549.481L900.31 539.527L893.905 541.262ZM893.905 550.915L893.905 560.868L900.31 559.133L900.31 549.179L893.905 550.915ZM893.905 579.932L893.905 589.885L900.31 588.15L900.31 578.196L893.905 579.932ZM893.905 589.584L893.905 599.537L900.31 597.802L900.31 587.848L893.905 589.584ZM893.905 599.236L893.905 609.19L900.31 607.454L900.31 597.5L893.905 599.236ZM893.905 608.888L893.905 618.842L900.31 617.106L900.31 607.153L893.905 608.888ZM893.905 618.54L893.905 628.494L900.31 626.759L900.31 616.805L893.905 618.54ZM893.905 628.192L893.905 638.146L900.31 636.411L900.31 626.457L893.905 628.192ZM893.905 637.845L893.905 647.798L900.31 646.063L900.31 636.109L893.905 637.845ZM874.601 430.667L874.601 440.621L881.006 438.885L881.006 428.931L874.601 430.667ZM874.601 440.319L874.601 450.273L881.006 448.537L881.006 438.584L874.601 440.319ZM874.601 449.971L874.601 459.925L881.006 458.189L881.006 448.236L874.601 449.971ZM874.601 459.623L874.601 469.577L881.006 467.842L881.006 457.888L874.601 459.623ZM874.601 469.275L874.601 479.229L881.006 477.494L881.006 467.54L874.601 469.275ZM874.601 478.928L874.601 488.881L881.006 487.146L881.006 477.192L874.601 478.928ZM874.601 488.58L874.601 498.534L881.006 496.798L881.006 486.844L874.601 488.58ZM874.601 498.232L874.601 508.186L881.006 506.45L881.006 496.497L874.601 498.232ZM874.601 507.884L874.601 517.838L881.006 516.103L881.006 506.149L874.601 507.884ZM874.601 536.901L874.601 546.855L881.006 545.119L881.006 535.166L874.601 536.901ZM874.601 546.553L874.601 556.507L881.006 554.772L881.006 544.818L874.601 546.553ZM874.601 556.205L874.601 566.159L881.006 564.424L881.006 554.47L874.601 556.205ZM874.601 565.857L874.601 575.811L881.006 574.076L881.006 564.122L874.601 565.857ZM874.601 575.51L874.601 585.463L881.006 583.728L881.006 573.774L874.601 575.51ZM874.601 585.162L874.601 595.116L881.006 593.38L881.006 583.426L874.601 585.162ZM874.601 594.814L874.601 604.768L881.006 603.032L881.006 593.079L874.601 594.814ZM874.601 604.466L874.601 614.42L881.006 612.685L881.006 602.731L874.601 604.466ZM855.297 435.897L855.297 445.851L861.702 444.115L861.702 434.162L855.297 435.897ZM855.297 445.549L855.297 455.503L861.702 453.768L861.702 443.814L855.297 445.549ZM855.297 455.201L855.297 465.155L861.702 463.42L861.702 453.466L855.297 455.201ZM855.297 464.854L855.297 474.807L861.702 473.072L861.702 463.118L855.297 464.854ZM855.297 474.506L855.297 484.46L861.702 482.724L861.702 472.77L855.297 474.506ZM855.297 484.158L855.297 494.112L861.702 492.376L861.702 482.423L855.297 484.158ZM855.297 493.81L855.297 503.764L861.702 502.028L861.702 492.075L855.297 493.81ZM855.297 503.462L855.297 513.416L861.702 511.681L861.702 501.727L855.297 503.462ZM855.297 513.114L855.297 523.068L861.702 521.333L861.702 511.379L855.297 513.114ZM855.297 522.767L855.297 532.72L861.702 530.985L861.702 521.031L855.297 522.767ZM855.297 532.419L855.297 542.373L861.702 540.637L861.702 530.683L855.297 532.419ZM855.297 542.071L855.297 552.025L861.702 550.289L861.702 540.336L855.297 542.071ZM855.297 571.088L855.297 581.042L861.702 579.306L861.702 569.352L855.297 571.088ZM855.297 580.74L855.297 590.694L861.702 588.958L861.702 579.005L855.297 580.74ZM855.297 609.757L855.297 619.711L861.702 617.975L861.702 608.021L855.297 609.757ZM855.297 619.409L855.297 629.363L861.702 627.627L861.702 617.674L855.297 619.409ZM855.297 629.061L855.297 639.015L861.702 637.28L861.702 627.326L855.297 629.061ZM835.993 441.127L835.993 451.081L842.398 449.346L842.398 439.392L835.993 441.127ZM835.993 450.779L835.993 460.733L842.398 458.998L842.398 449.044L835.993 450.779ZM835.993 460.432L835.993 470.385L842.398 468.65L842.398 458.696L835.993 460.432ZM835.993 470.084L835.993 480.038L842.398 478.302L842.398 468.348L835.993 470.084ZM835.993 479.736L835.993 489.69L842.398 487.954L842.398 478.001L835.993 479.736ZM835.993 489.388L835.993 499.342L842.398 497.607L842.398 487.653L835.993 489.388ZM835.993 499.04L835.993 508.994L842.398 507.259L842.398 497.305L835.993 499.04ZM835.993 508.693L835.993 518.646L842.398 516.911L842.398 506.957L835.993 508.693ZM835.993 518.345L835.993 528.299L842.398 526.563L842.398 516.609L835.993 518.345ZM835.993 527.997L835.993 537.951L842.398 536.215L842.398 526.262L835.993 527.997ZM835.993 537.649L835.993 547.603L842.398 545.867L842.398 535.914L835.993 537.649ZM835.993 547.301L835.993 557.255L842.398 555.52L842.398 545.566L835.993 547.301ZM835.993 556.953L835.993 566.907L842.398 565.172L842.398 555.218L835.993 556.953ZM835.993 566.606L835.993 576.559L842.398 574.824L842.398 564.87L835.993 566.606ZM835.993 595.622L835.993 605.576L842.398 603.841L842.398 593.887L835.993 595.622ZM835.993 605.275L835.993 615.228L842.398 613.493L842.398 603.539L835.993 605.275ZM835.993 614.927L835.993 624.881L842.398 623.145L842.398 613.191L835.993 614.927ZM835.993 624.579L835.993 634.533L842.398 632.797L842.398 622.844L835.993 624.579ZM816.689 446.358L816.689 456.311L823.094 454.576L823.094 444.622L816.689 446.358ZM816.689 456.01L816.689 465.964L823.094 464.228L823.094 454.274L816.689 456.01ZM816.689 465.662L816.689 475.616L823.094 473.88L823.094 463.927L816.689 465.662ZM816.689 494.679L816.689 504.633L823.094 502.897L823.094 492.943L816.689 494.679ZM816.689 504.331L816.689 514.285L823.094 512.549L823.094 502.596L816.689 504.331ZM816.689 513.983L816.689 523.937L823.094 522.202L823.094 512.248L816.689 513.983ZM816.689 523.635L816.689 533.589L823.094 531.854L823.094 521.9L816.689 523.635ZM816.689 533.288L816.689 543.241L823.094 541.506L823.094 531.552L816.689 533.288ZM816.689 542.94L816.689 552.893L823.094 551.158L823.094 541.204L816.689 542.94ZM816.689 552.592L816.689 562.546L823.094 560.81L823.094 550.856L816.689 552.592ZM816.689 562.244L816.689 572.198L823.094 570.462L823.094 560.509L816.689 562.244ZM816.689 571.896L816.689 581.85L823.094 580.115L823.094 570.161L816.689 571.896ZM816.689 581.548L816.689 591.502L823.094 589.767L823.094 579.813L816.689 581.548ZM816.689 591.201L816.689 601.154L823.094 599.419L823.094 589.465L816.689 591.201ZM816.689 600.853L816.689 610.807L823.094 609.071L823.094 599.117L816.689 600.853ZM816.689 610.505L816.689 620.459L823.094 618.723L823.094 608.77L816.689 610.505ZM816.689 620.157L816.689 630.111L823.094 628.376L823.094 618.422L816.689 620.157Z" fill="#F3F7FE"/>
<line x1="88.7614" y1="575.934" x2="653.935" y2="423.239" stroke="#1A73E8" stroke-width="5" stroke-linecap="round" stroke-dasharray="14 23"/>
<path d="M84 558L902.5 434" stroke="#FF6D7F" stroke-width="5" stroke-linecap="round" stroke-dasharray="14 23"/>
<line x1="2.5" y1="-2.5" x2="587.937" y2="-2.5" transform="matrix(0.965386 0.260824 0.260824 -0.965386 87 500)" stroke="#1A73E8" stroke-width="5" stroke-linecap="round" stroke-dasharray="14 23"/>
<path d="M84 521L902.5 645" stroke="#FF6D7F" stroke-width="5" stroke-linecap="round" stroke-dasharray="14 23"/>
<mask id="mask1_3328_15624" style="mask-type:alpha" maskUnits="userSpaceOnUse" x="1235" y="476" width="156" height="127">
<path d="M1253.33 549.273L1235.44 516.004L1378.61 476.725L1390.83 553.195L1253.33 549.273Z" fill="#D9D9D9"/>
<path d="M1253.35 530.169L1235.44 563.425L1378.58 602.812L1390.85 526.352L1253.35 530.169Z" fill="#D9D9D9"/>
</mask>
<g mask="url(#mask1_3328_15624)">
<circle cx="1241.98" cy="540" r="135" transform="rotate(-180 1241.98 540)" fill="#D2E3FC"/>
</g>
<mask id="mask2_3328_15624" style="mask-type:alpha" maskUnits="userSpaceOnUse" x="918" y="413" width="157" height="243">
<rect x="1015.14" y="413" width="83.6087" height="137.373" transform="rotate(45 1015.14 413)" fill="#D9D9D9"/>
<rect x="1074.34" y="596.537" width="83.6087" height="137.373" transform="rotate(135 1074.34 596.537)" fill="#D9D9D9"/>
</mask>
<g mask="url(#mask2_3328_15624)">
<circle cx="1115.45" cy="538.449" r="143.957" fill="#FF6D7F"/>
</g>
<circle cx="1116.5" cy="539.5" r="129.5" fill="white" stroke="#3C4043" stroke-width="10"/>
<ellipse cx="1215.69" cy="539.5" rx="35.3062" ry="79.0187" fill="#1A73E8"/>
<ellipse cx="1229.98" cy="539.5" rx="21.0156" ry="47.075" fill="#3C4043"/>
<path d="M1478 398.348L1626 334V778L1478 713.652V398.348Z" fill="#D2E3FC"/>
<path d="M1571.9 425.436L1571.9 435.39L1578.31 433.655L1578.31 423.701L1571.9 425.436ZM1571.9 435.089L1571.9 445.042L1578.31 443.307L1578.31 433.353L1571.9 435.089ZM1571.9 444.741L1571.9 454.695L1578.31 452.959L1578.31 443.005L1571.9 444.741ZM1571.9 454.393L1571.9 464.347L1578.31 462.611L1578.31 452.658L1571.9 454.393ZM1571.9 464.045L1571.9 473.999L1578.31 472.264L1578.31 462.31L1571.9 464.045ZM1571.9 473.697L1571.9 483.651L1578.31 481.916L1578.31 471.962L1571.9 473.697ZM1571.9 483.349L1571.9 493.303L1578.31 491.568L1578.31 481.614L1571.9 483.349ZM1571.9 493.002L1571.9 502.955L1578.31 501.22L1578.31 491.266L1571.9 493.002ZM1571.9 502.654L1571.9 512.608L1578.31 510.872L1578.31 500.918L1571.9 502.654ZM1571.9 512.306L1571.9 522.26L1578.31 520.524L1578.31 510.571L1571.9 512.306ZM1571.9 521.958L1571.9 531.912L1578.31 530.177L1578.31 520.223L1571.9 521.958ZM1571.9 531.61L1571.9 541.564L1578.31 539.829L1578.31 529.875L1571.9 531.61ZM1571.9 541.262L1571.9 551.216L1578.31 549.481L1578.31 539.527L1571.9 541.262ZM1571.9 550.915L1571.9 560.868L1578.31 559.133L1578.31 549.179L1571.9 550.915ZM1571.9 579.932L1571.9 589.885L1578.31 588.15L1578.31 578.196L1571.9 579.932ZM1571.9 589.584L1571.9 599.537L1578.31 597.802L1578.31 587.848L1571.9 589.584ZM1571.9 599.236L1571.9 609.19L1578.31 607.454L1578.31 597.5L1571.9 599.236ZM1571.9 608.888L1571.9 618.842L1578.31 617.106L1578.31 607.153L1571.9 608.888ZM1571.9 618.54L1571.9 628.494L1578.31 626.759L1578.31 616.805L1571.9 618.54ZM1571.9 628.192L1571.9 638.146L1578.31 636.411L1578.31 626.457L1571.9 628.192ZM1571.9 637.845L1571.9 647.798L1578.31 646.063L1578.31 636.109L1571.9 637.845ZM1552.6 430.667L1552.6 440.621L1559.01 438.885L1559.01 428.931L1552.6 430.667ZM1552.6 440.319L1552.6 450.273L1559.01 448.537L1559.01 438.584L1552.6 440.319ZM1552.6 449.971L1552.6 459.925L1559.01 458.189L1559.01 448.236L1552.6 449.971ZM1552.6 459.623L1552.6 469.577L1559.01 467.842L1559.01 457.888L1552.6 459.623ZM1552.6 469.275L1552.6 479.229L1559.01 477.494L1559.01 467.54L1552.6 469.275ZM1552.6 478.928L1552.6 488.881L1559.01 487.146L1559.01 477.192L1552.6 478.928ZM1552.6 488.58L1552.6 498.534L1559.01 496.798L1559.01 486.844L1552.6 488.58ZM1552.6 498.232L1552.6 508.186L1559.01 506.45L1559.01 496.497L1552.6 498.232ZM1552.6 507.884L1552.6 517.838L1559.01 516.103L1559.01 506.149L1552.6 507.884ZM1552.6 536.901L1552.6 546.855L1559.01 545.119L1559.01 535.166L1552.6 536.901ZM1552.6 546.553L1552.6 556.507L1559.01 554.772L1559.01 544.818L1552.6 546.553ZM1552.6 556.205L1552.6 566.159L1559.01 564.424L1559.01 554.47L1552.6 556.205ZM1552.6 565.857L1552.6 575.811L1559.01 574.076L1559.01 564.122L1552.6 565.857ZM1552.6 575.51L1552.6 585.463L1559.01 583.728L1559.01 573.774L1552.6 575.51ZM1552.6 585.162L1552.6 595.116L1559.01 593.38L1559.01 583.426L1552.6 585.162ZM1552.6 594.814L1552.6 604.768L1559.01 603.032L1559.01 593.079L1552.6 594.814ZM1552.6 604.466L1552.6 614.42L1559.01 612.685L1559.01 602.731L1552.6 604.466ZM1533.3 435.897L1533.3 445.851L1539.7 444.115L1539.7 434.162L1533.3 435.897ZM1533.3 445.549L1533.3 455.503L1539.7 453.768L1539.7 443.814L1533.3 445.549ZM1533.3 455.201L1533.3 465.155L1539.7 463.42L1539.7 453.466L1533.3 455.201ZM1533.3 464.854L1533.3 474.807L1539.7 473.072L1539.7 463.118L1533.3 464.854ZM1533.3 474.506L1533.3 484.46L1539.7 482.724L1539.7 472.77L1533.3 474.506ZM1533.3 484.158L1533.3 494.112L1539.7 492.376L1539.7 482.423L1533.3 484.158ZM1533.3 493.81L1533.3 503.764L1539.7 502.028L1539.7 492.075L1533.3 493.81ZM1533.3 503.462L1533.3 513.416L1539.7 511.681L1539.7 501.727L1533.3 503.462ZM1533.3 513.114L1533.3 523.068L1539.7 521.333L1539.7 511.379L1533.3 513.114ZM1533.3 522.767L1533.3 532.72L1539.7 530.985L1539.7 521.031L1533.3 522.767ZM1533.3 532.419L1533.3 542.373L1539.7 540.637L1539.7 530.683L1533.3 532.419ZM1533.3 542.071L1533.3 552.025L1539.7 550.289L1539.7 540.336L1533.3 542.071ZM1533.3 571.088L1533.3 581.042L1539.7 579.306L1539.7 569.352L1533.3 571.088ZM1533.3 580.74L1533.3 590.694L1539.7 588.958L1539.7 579.005L1533.3 580.74ZM1533.3 609.757L1533.3 619.711L1539.7 617.975L1539.7 608.021L1533.3 609.757ZM1533.3 619.409L1533.3 629.363L1539.7 627.627L1539.7 617.674L1533.3 619.409ZM1533.3 629.061L1533.3 639.015L1539.7 637.28L1539.7 627.326L1533.3 629.061ZM1513.99 441.127L1513.99 451.081L1520.4 449.346L1520.4 439.392L1513.99 441.127ZM1513.99 450.779L1513.99 460.733L1520.4 458.998L1520.4 449.044L1513.99 450.779ZM1513.99 460.432L1513.99 470.385L1520.4 468.65L1520.4 458.696L1513.99 460.432ZM1513.99 470.084L1513.99 480.038L1520.4 478.302L1520.4 468.348L1513.99 470.084ZM1513.99 479.736L1513.99 489.69L1520.4 487.954L1520.4 478.001L1513.99 479.736ZM1513.99 489.388L1513.99 499.342L1520.4 497.607L1520.4 487.653L1513.99 489.388ZM1513.99 499.04L1513.99 508.994L1520.4 507.259L1520.4 497.305L1513.99 499.04ZM1513.99 508.693L1513.99 518.646L1520.4 516.911L1520.4 506.957L1513.99 508.693ZM1513.99 518.345L1513.99 528.299L1520.4 526.563L1520.4 516.609L1513.99 518.345ZM1513.99 527.997L1513.99 537.951L1520.4 536.215L1520.4 526.262L1513.99 527.997ZM1513.99 537.649L1513.99 547.603L1520.4 545.867L1520.4 535.914L1513.99 537.649ZM1513.99 547.301L1513.99 557.255L1520.4 555.52L1520.4 545.566L1513.99 547.301ZM1513.99 556.953L1513.99 566.907L1520.4 565.172L1520.4 555.218L1513.99 556.953ZM1513.99 566.606L1513.99 576.559L1520.4 574.824L1520.4 564.87L1513.99 566.606ZM1513.99 595.622L1513.99 605.576L1520.4 603.841L1520.4 593.887L1513.99 595.622ZM1513.99 605.275L1513.99 615.228L1520.4 613.493L1520.4 603.539L1513.99 605.275ZM1513.99 614.927L1513.99 624.881L1520.4 623.145L1520.4 613.191L1513.99 614.927ZM1513.99 624.579L1513.99 634.533L1520.4 632.797L1520.4 622.844L1513.99 624.579ZM1494.69 446.358L1494.69 456.311L1501.09 454.576L1501.09 444.622L1494.69 446.358ZM1494.69 456.01L1494.69 465.964L1501.09 464.228L1501.09 454.274L1494.69 456.01ZM1494.69 465.662L1494.69 475.616L1501.09 473.88L1501.09 463.927L1494.69 465.662ZM1494.69 494.679L1494.69 504.633L1501.09 502.897L1501.09 492.943L1494.69 494.679ZM1494.69 504.331L1494.69 514.285L1501.09 512.549L1501.09 502.596L1494.69 504.331ZM1494.69 513.983L1494.69 523.937L1501.09 522.202L1501.09 512.248L1494.69 513.983ZM1494.69 523.635L1494.69 533.589L1501.09 531.854L1501.09 521.9L1494.69 523.635ZM1494.69 533.288L1494.69 543.241L1501.09 541.506L1501.09 531.552L1494.69 533.288ZM1494.69 542.94L1494.69 552.893L1501.09 551.158L1501.09 541.204L1494.69 542.94ZM1494.69 552.592L1494.69 562.546L1501.09 560.81L1501.09 550.856L1494.69 552.592ZM1494.69 562.244L1494.69 572.198L1501.09 570.462L1501.09 560.509L1494.69 562.244ZM1494.69 571.896L1494.69 581.85L1501.09 580.115L1501.09 570.161L1494.69 571.896ZM1494.69 581.548L1494.69 591.502L1501.09 589.767L1501.09 579.813L1494.69 581.548ZM1494.69 591.201L1494.69 601.154L1501.09 599.419L1501.09 589.465L1494.69 591.201ZM1494.69 600.853L1494.69 610.807L1501.09 609.071L1501.09 599.117L1494.69 600.853ZM1494.69 610.505L1494.69 620.459L1501.09 618.723L1501.09 608.77L1494.69 610.505ZM1494.69 620.157L1494.69 630.111L1501.09 628.376L1501.09 618.422L1494.69 620.157Z" fill="#F3F7FE"/>
<line x1="1010.76" y1="575.934" x2="1575.93" y2="423.239" stroke="#1A73E8" stroke-width="5" stroke-linecap="round" stroke-dasharray="14 23"/>
<line x1="2.5" y1="-2.5" x2="587.937" y2="-2.5" transform="matrix(0.965386 0.260824 0.260824 -0.965386 1009 500)" stroke="#1A73E8" stroke-width="5" stroke-linecap="round" stroke-dasharray="14 23"/>
<path d="M65.9 243H62.876V234.576C62.876 233.952 62.732 233.472 62.444 233.136C62.156 232.8 61.652 232.632 60.932 232.632H53.084V243H50.06V217.8H59.06C60.356 217.8 61.484 217.992 62.444 218.376C63.404 218.736 64.196 219.228 64.82 219.852C65.468 220.476 65.948 221.208 66.26 222.048C66.596 222.864 66.764 223.728 66.764 224.64V225.72C66.764 226.656 66.5 227.592 65.972 228.528C65.468 229.464 64.676 230.184 63.596 230.688V231.12C64.316 231.24 64.88 231.528 65.288 231.984C65.696 232.44 65.9 233.088 65.9 233.928V243ZM53.084 229.824H58.7C60.404 229.824 61.664 229.464 62.48 228.744C63.32 228 63.74 226.92 63.74 225.504V224.856C63.74 223.584 63.32 222.564 62.48 221.796C61.664 221.004 60.404 220.608 58.7 220.608H53.084V229.824ZM72.427 217.8H87.691V220.608H75.451V228.96H87.475V231.768H75.451V240.192H87.907V243H72.427V217.8ZM93.2459 217.8H110.958V220.608H103.614V243H100.59V220.608H93.2459V217.8ZM116.153 217.8H132.137V220.608H125.657V240.192H132.137V243H116.153V240.192H122.633V220.608H116.153V217.8ZM151.12 241.704H151.552V217.8H154.576V243H148.528L141.256 219.096H140.824V243H137.8V217.8H143.848L151.12 241.704ZM173.631 236.736H162.831L160.995 243H157.755L165.387 217.8H171.075L178.707 243H175.467L173.631 236.736ZM168.015 219.096L163.659 233.928H172.803L168.447 219.096H168.015Z" fill="#FF6D7F"/>
<path d="M1241.97 217.8H1245.21L1251.8 241.704H1252.23L1258.82 217.8H1262.06L1254.93 243H1249.1L1241.97 217.8ZM1266.07 217.8H1282.05V220.608H1275.57V240.192H1282.05V243H1266.07V240.192H1272.55V220.608H1266.07V217.8ZM1288.47 217.8H1303.73V220.608H1291.49V228.96H1303.52V231.768H1291.49V240.192H1303.95V243H1288.47V217.8ZM1326.21 243H1320.7L1318.36 219.096H1317.93L1315.59 243H1310.08L1307.52 217.8H1310.26L1312.67 241.704H1313.1L1315.37 217.8H1320.92L1323.18 241.704H1323.62L1326.03 217.8H1328.76L1326.21 243ZM1332.2 217.8H1348.18V220.608H1341.7V240.192H1348.18V243H1332.2V240.192H1338.68V220.608H1332.2V217.8ZM1367.16 241.704H1367.59V217.8H1370.62V243H1364.57L1357.3 219.096H1356.87V243H1353.84V217.8H1359.89L1367.16 241.704ZM1381.86 230.904H1393.09V243H1390.29V239.976H1389.85C1389.45 241.032 1388.73 241.884 1387.69 242.532C1386.66 243.18 1385.46 243.504 1384.09 243.504C1381.38 243.504 1379.25 242.628 1377.69 240.876C1376.15 239.124 1375.38 236.568 1375.38 233.208V227.592C1375.38 224.328 1376.16 221.796 1377.72 219.996C1379.28 218.196 1381.45 217.296 1384.24 217.296C1385.68 217.296 1386.95 217.536 1388.05 218.016C1389.16 218.472 1390.08 219.12 1390.83 219.96C1391.57 220.776 1392.13 221.748 1392.52 222.876C1392.9 223.98 1393.09 225.168 1393.09 226.44V226.872H1390.07V226.44C1390.07 225.624 1389.95 224.832 1389.71 224.064C1389.49 223.296 1389.15 222.624 1388.67 222.048C1388.21 221.448 1387.61 220.98 1386.87 220.644C1386.15 220.284 1385.27 220.104 1384.24 220.104C1382.29 220.104 1380.83 220.812 1379.85 222.228C1378.89 223.644 1378.41 225.504 1378.41 227.808V232.992C1378.41 235.464 1378.89 237.372 1379.85 238.716C1380.83 240.036 1382.32 240.696 1384.31 240.696C1386.11 240.696 1387.51 240.12 1388.52 238.968C1389.55 237.816 1390.07 236.208 1390.07 234.144V233.712H1381.86V230.904ZM1257.42 284.736H1246.62L1244.78 291H1241.54L1249.17 265.8H1254.86L1262.49 291H1259.25L1257.42 284.736ZM1251.8 267.096L1247.44 281.928H1256.59L1252.23 267.096H1251.8ZM1278.99 289.704H1279.42V265.8H1282.45V291H1276.4L1269.13 267.096H1268.69V291H1265.67V265.8H1271.72L1278.99 289.704ZM1293.69 278.904H1304.92V291H1302.11V287.976H1301.68C1301.27 289.032 1300.55 289.884 1299.52 290.532C1298.49 291.18 1297.29 291.504 1295.92 291.504C1293.21 291.504 1291.07 290.628 1289.51 288.876C1287.98 287.124 1287.21 284.568 1287.21 281.208V275.592C1287.21 272.328 1287.99 269.796 1289.55 267.996C1291.11 266.196 1293.28 265.296 1296.07 265.296C1297.51 265.296 1298.78 265.536 1299.88 266.016C1300.99 266.472 1301.91 267.12 1302.65 267.96C1303.4 268.776 1303.96 269.748 1304.35 270.876C1304.73 271.98 1304.92 273.168 1304.92 274.44V274.872H1301.9V274.44C1301.9 273.624 1301.78 272.832 1301.54 272.064C1301.32 271.296 1300.97 270.624 1300.49 270.048C1300.04 269.448 1299.44 268.98 1298.69 268.644C1297.97 268.284 1297.1 268.104 1296.07 268.104C1294.12 268.104 1292.66 268.812 1291.67 270.228C1290.71 271.644 1290.23 273.504 1290.23 275.808V280.992C1290.23 283.464 1290.71 285.372 1291.67 286.716C1292.66 288.036 1294.15 288.696 1296.14 288.696C1297.94 288.696 1299.34 288.12 1300.35 286.968C1301.38 285.816 1301.9 284.208 1301.9 282.144V281.712H1293.69V278.904ZM1310.26 265.8H1313.28V288.192H1326.46V291H1310.26V265.8ZM1332.56 265.8H1347.82V268.608H1335.58V276.96H1347.6V279.768H1335.58V288.192H1348.04V291H1332.56V265.8Z" fill="#FF6D7F"/>
<path d="M1716.96 536.072C1716.96 535.256 1716.79 534.536 1716.45 533.912C1716.14 533.288 1715.71 532.772 1715.16 532.364C1714.6 531.956 1713.97 531.644 1713.25 531.428C1712.53 531.212 1711.77 531.104 1710.98 531.104C1710.28 531.104 1709.62 531.2 1709 531.392C1708.38 531.56 1707.81 531.812 1707.31 532.148C1706.83 532.484 1706.44 532.904 1706.16 533.408C1705.87 533.888 1705.72 534.452 1705.72 535.1V535.316C1705.72 536.012 1705.87 536.612 1706.16 537.116C1706.44 537.596 1706.86 538.016 1707.42 538.376C1707.99 538.712 1708.7 539 1709.54 539.24C1710.38 539.456 1711.36 539.648 1712.49 539.816C1715.13 540.224 1717.08 541.004 1718.32 542.156C1719.57 543.284 1720.2 544.808 1720.2 546.728V547.16C1720.2 548.24 1720 549.236 1719.62 550.148C1719.26 551.036 1718.71 551.804 1717.96 552.452C1717.24 553.1 1716.34 553.604 1715.26 553.964C1714.18 554.324 1712.94 554.504 1711.52 554.504C1709.91 554.504 1708.48 554.276 1707.24 553.82C1706.01 553.34 1704.98 552.692 1704.14 551.876C1703.32 551.036 1702.7 550.064 1702.27 548.96C1701.84 547.832 1701.62 546.608 1701.62 545.288V544.208H1704.64V545.072C1704.64 547.28 1705.24 548.936 1706.44 550.04C1707.67 551.144 1709.36 551.696 1711.52 551.696C1713.39 551.696 1714.8 551.288 1715.73 550.472C1716.69 549.632 1717.17 548.528 1717.17 547.16V546.944C1717.17 545.624 1716.68 544.616 1715.7 543.92C1714.74 543.224 1713.16 542.72 1710.98 542.408C1709.71 542.24 1708.56 541.988 1707.52 541.652C1706.52 541.292 1705.65 540.836 1704.93 540.284C1704.21 539.708 1703.66 539.024 1703.28 538.232C1702.89 537.44 1702.7 536.504 1702.7 535.424V534.992C1702.7 534.008 1702.9 533.108 1703.31 532.292C1703.72 531.476 1704.28 530.768 1705 530.168C1705.75 529.568 1706.62 529.112 1707.63 528.8C1708.66 528.464 1709.79 528.296 1711.02 528.296C1712.43 528.296 1713.69 528.5 1714.8 528.908C1715.92 529.316 1716.87 529.868 1717.64 530.564C1718.41 531.236 1718.98 532.04 1719.37 532.976C1719.78 533.888 1719.98 534.848 1719.98 535.856V537.368H1716.96V536.072ZM1725.07 528.8H1741.05V531.608H1734.57V551.192H1741.05V554H1725.07V551.192H1731.55V531.608H1725.07V528.8ZM1746.86 528.8H1763.71V533.336L1748.59 550.76V551.192H1764.14V554H1745.99V549.464L1761.11 532.04V531.608H1746.86V528.8ZM1769.51 528.8H1784.78V531.608H1772.54V539.96H1784.56V542.768H1772.54V551.192H1784.99V554H1769.51V528.8Z" fill="#FF6D7F"/>
<path d="M567.16 240.696C568.192 240.696 569.068 240.528 569.788 240.192C570.532 239.832 571.132 239.364 571.588 238.788C572.068 238.188 572.416 237.516 572.632 236.772C572.872 236.004 572.992 235.2 572.992 234.36V233.928H576.016V234.36C576.016 235.632 575.824 236.832 575.44 237.96C575.056 239.064 574.492 240.036 573.748 240.876C573.004 241.692 572.08 242.34 570.976 242.82C569.872 243.276 568.6 243.504 567.16 243.504C564.376 243.504 562.204 242.628 560.644 240.876C559.084 239.124 558.304 236.568 558.304 233.208V227.592C558.304 224.328 559.084 221.796 560.644 219.996C562.204 218.196 564.376 217.296 567.16 217.296C568.6 217.296 569.872 217.536 570.976 218.016C572.08 218.472 573.004 219.12 573.748 219.96C574.492 220.776 575.056 221.748 575.44 222.876C575.824 223.98 576.016 225.168 576.016 226.44V226.872H572.992V226.44C572.968 225.624 572.836 224.832 572.596 224.064C572.38 223.296 572.032 222.624 571.552 222.048C571.096 221.448 570.508 220.98 569.788 220.644C569.068 220.284 568.192 220.104 567.16 220.104C565.216 220.104 563.752 220.812 562.768 222.228C561.808 223.644 561.328 225.504 561.328 227.808V232.992C561.328 235.464 561.808 237.372 562.768 238.716C563.752 240.036 565.216 240.696 567.16 240.696ZM581.175 217.8H584.199V240.192H597.375V243H581.175V217.8ZM602.246 227.592C602.246 224.328 603.026 221.796 604.586 219.996C606.146 218.196 608.318 217.296 611.102 217.296C613.886 217.296 616.058 218.196 617.618 219.996C619.178 221.796 619.958 224.328 619.958 227.592V233.208C619.958 236.568 619.178 239.124 617.618 240.876C616.058 242.628 613.886 243.504 611.102 243.504C608.318 243.504 606.146 242.628 604.586 240.876C603.026 239.124 602.246 236.568 602.246 233.208V227.592ZM611.102 240.696C613.046 240.696 614.498 240.036 615.458 238.716C616.442 237.372 616.934 235.464 616.934 232.992V227.808C616.934 225.504 616.442 223.644 615.458 222.228C614.498 220.812 613.046 220.104 611.102 220.104C609.158 220.104 607.694 220.812 606.71 222.228C605.75 223.644 605.27 225.504 605.27 227.808V232.992C605.27 235.464 605.75 237.372 606.71 238.716C607.694 240.036 609.158 240.696 611.102 240.696ZM639.085 225.072C639.085 224.256 638.917 223.536 638.581 222.912C638.269 222.288 637.837 221.772 637.285 221.364C636.733 220.956 636.097 220.644 635.377 220.428C634.657 220.212 633.901 220.104 633.109 220.104C632.413 220.104 631.753 220.2 631.129 220.392C630.505 220.56 629.941 220.812 629.437 221.148C628.957 221.484 628.573 221.904 628.285 222.408C627.997 222.888 627.853 223.452 627.853 224.1V224.316C627.853 225.012 627.997 225.612 628.285 226.116C628.573 226.596 628.993 227.016 629.545 227.376C630.121 227.712 630.829 228 631.669 228.24C632.509 228.456 633.493 228.648 634.621 228.816C637.261 229.224 639.205 230.004 640.453 231.156C641.701 232.284 642.325 233.808 642.325 235.728V236.16C642.325 237.24 642.133 238.236 641.749 239.148C641.389 240.036 640.837 240.804 640.093 241.452C639.373 242.1 638.473 242.604 637.393 242.964C636.313 243.324 635.065 243.504 633.649 243.504C632.041 243.504 630.613 243.276 629.365 242.82C628.141 242.34 627.109 241.692 626.269 240.876C625.453 240.036 624.829 239.064 624.397 237.96C623.965 236.832 623.749 235.608 623.749 234.288V233.208H626.773V234.072C626.773 236.28 627.373 237.936 628.573 239.04C629.797 240.144 631.489 240.696 633.649 240.696C635.521 240.696 636.925 240.288 637.861 239.472C638.821 238.632 639.301 237.528 639.301 236.16V235.944C639.301 234.624 638.809 233.616 637.825 232.92C636.865 232.224 635.293 231.72 633.109 231.408C631.837 231.24 630.685 230.988 629.653 230.652C628.645 230.292 627.781 229.836 627.061 229.284C626.341 228.708 625.789 228.024 625.405 227.232C625.021 226.44 624.829 225.504 624.829 224.424V223.992C624.829 223.008 625.033 222.108 625.441 221.292C625.849 220.476 626.413 219.768 627.133 219.168C627.877 218.568 628.753 218.112 629.761 217.8C630.793 217.464 631.921 217.296 633.145 217.296C634.561 217.296 635.821 217.5 636.925 217.908C638.053 218.316 639.001 218.868 639.769 219.564C640.537 220.236 641.113 221.04 641.497 221.976C641.905 222.888 642.109 223.848 642.109 224.856V226.368H639.085V225.072ZM647.556 217.8H662.82V220.608H650.58V228.96H662.604V231.768H650.58V240.192H663.036V243H647.556V217.8ZM558.628 265.8H566.908C570.028 265.8 572.308 266.544 573.748 268.032C575.188 269.52 575.908 271.896 575.908 275.16V281.64C575.908 284.904 575.188 287.28 573.748 288.768C572.308 290.256 570.028 291 566.908 291H558.628V288.156H560.788V268.608H558.628V265.8ZM566.476 288.192C567.58 288.192 568.528 288.084 569.32 287.868C570.136 287.652 570.808 287.292 571.336 286.788C571.864 286.26 572.248 285.564 572.488 284.7C572.752 283.836 572.884 282.744 572.884 281.424V275.376C572.884 274.056 572.752 272.964 572.488 272.1C572.248 271.236 571.864 270.552 571.336 270.048C570.808 269.52 570.136 269.148 569.32 268.932C568.528 268.716 567.58 268.608 566.476 268.608H563.812V288.192H566.476ZM581.067 265.8H597.051V268.608H590.571V288.192H597.051V291H581.067V288.192H587.547V268.608H581.067V265.8ZM617.042 273.072C617.042 272.256 616.874 271.536 616.538 270.912C616.226 270.288 615.794 269.772 615.242 269.364C614.69 268.956 614.054 268.644 613.334 268.428C612.614 268.212 611.858 268.104 611.066 268.104C610.37 268.104 609.71 268.2 609.086 268.392C608.462 268.56 607.898 268.812 607.394 269.148C606.914 269.484 606.53 269.904 606.242 270.408C605.954 270.888 605.81 271.452 605.81 272.1V272.316C605.81 273.012 605.954 273.612 606.242 274.116C606.53 274.596 606.95 275.016 607.502 275.376C608.078 275.712 608.786 276 609.626 276.24C610.466 276.456 611.45 276.648 612.578 276.816C615.218 277.224 617.162 278.004 618.41 279.156C619.658 280.284 620.282 281.808 620.282 283.728V284.16C620.282 285.24 620.09 286.236 619.706 287.148C619.346 288.036 618.794 288.804 618.05 289.452C617.33 290.1 616.43 290.604 615.35 290.964C614.27 291.324 613.022 291.504 611.606 291.504C609.998 291.504 608.57 291.276 607.322 290.82C606.098 290.34 605.066 289.692 604.226 288.876C603.41 288.036 602.786 287.064 602.354 285.96C601.922 284.832 601.706 283.608 601.706 282.288V281.208H604.73V282.072C604.73 284.28 605.33 285.936 606.53 287.04C607.754 288.144 609.446 288.696 611.606 288.696C613.478 288.696 614.882 288.288 615.818 287.472C616.778 286.632 617.258 285.528 617.258 284.16V283.944C617.258 282.624 616.766 281.616 615.782 280.92C614.822 280.224 613.25 279.72 611.066 279.408C609.794 279.24 608.642 278.988 607.61 278.652C606.602 278.292 605.738 277.836 605.018 277.284C604.298 276.708 603.746 276.024 603.362 275.232C602.978 274.44 602.786 273.504 602.786 272.424V271.992C602.786 271.008 602.99 270.108 603.398 269.292C603.806 268.476 604.37 267.768 605.09 267.168C605.834 266.568 606.71 266.112 607.718 265.8C608.75 265.464 609.878 265.296 611.102 265.296C612.518 265.296 613.778 265.5 614.882 265.908C616.01 266.316 616.958 266.868 617.726 267.564C618.494 268.236 619.07 269.04 619.454 269.976C619.862 270.888 620.066 271.848 620.066 272.856V274.368H617.042V273.072ZM624.289 265.8H642.001V268.608H634.657V291H631.633V268.608H624.289V265.8ZM660.588 284.736H649.788L647.952 291H644.712L652.344 265.8H658.032L665.664 291H662.424L660.588 284.736ZM654.972 267.096L650.616 281.928H659.76L655.404 267.096H654.972ZM682.163 289.704H682.595V265.8H685.619V291H679.571L672.299 267.096H671.867V291H668.843V265.8H674.891L682.163 289.704ZM699.418 288.696C700.45 288.696 701.326 288.528 702.046 288.192C702.79 287.832 703.39 287.364 703.846 286.788C704.326 286.188 704.674 285.516 704.89 284.772C705.13 284.004 705.25 283.2 705.25 282.36V281.928H708.274V282.36C708.274 283.632 708.082 284.832 707.698 285.96C707.314 287.064 706.75 288.036 706.006 288.876C705.262 289.692 704.338 290.34 703.234 290.82C702.13 291.276 700.858 291.504 699.418 291.504C696.634 291.504 694.462 290.628 692.902 288.876C691.342 287.124 690.562 284.568 690.562 281.208V275.592C690.562 272.328 691.342 269.796 692.902 267.996C694.462 266.196 696.634 265.296 699.418 265.296C700.858 265.296 702.13 265.536 703.234 266.016C704.338 266.472 705.262 267.12 706.006 267.96C706.75 268.776 707.314 269.748 707.698 270.876C708.082 271.98 708.274 273.168 708.274 274.44V274.872H705.25V274.44C705.226 273.624 705.094 272.832 704.854 272.064C704.638 271.296 704.29 270.624 703.81 270.048C703.354 269.448 702.766 268.98 702.046 268.644C701.326 268.284 700.45 268.104 699.418 268.104C697.474 268.104 696.01 268.812 695.026 270.228C694.066 271.644 693.586 273.504 693.586 275.808V280.992C693.586 283.464 694.066 285.372 695.026 286.716C696.01 288.036 697.474 288.696 699.418 288.696ZM713.685 265.8H728.949V268.608H716.709V276.96H728.733V279.768H716.709V288.192H729.165V291H713.685V265.8Z" fill="#FF6D7F"/>
<path d="M803.42 217.8H818.9V220.608H806.444V228.96H818.684V231.768H806.444V243H803.42V217.8ZM838.459 236.736H827.659L825.823 243H822.583L830.215 217.8H835.903L843.535 243H840.295L838.459 236.736ZM832.843 219.096L828.487 233.928H837.631L833.275 219.096H832.843ZM862.986 243H859.962V234.576C859.962 233.952 859.818 233.472 859.53 233.136C859.242 232.8 858.738 232.632 858.018 232.632H850.17V243H847.146V217.8H856.146C857.442 217.8 858.57 217.992 859.53 218.376C860.49 218.736 861.282 219.228 861.906 219.852C862.554 220.476 863.034 221.208 863.346 222.048C863.682 222.864 863.85 223.728 863.85 224.64V225.72C863.85 226.656 863.586 227.592 863.058 228.528C862.554 229.464 861.762 230.184 860.682 230.688V231.12C861.402 231.24 861.966 231.528 862.374 231.984C862.782 232.44 862.986 233.088 862.986 233.928V243ZM850.17 229.824H855.786C857.49 229.824 858.75 229.464 859.566 228.744C860.406 228 860.826 226.92 860.826 225.504V224.856C860.826 223.584 860.406 222.564 859.566 221.796C858.75 221.004 857.49 220.608 855.786 220.608H850.17V229.824ZM802.628 265.8H810.908C814.028 265.8 816.308 266.544 817.748 268.032C819.188 269.52 819.908 271.896 819.908 275.16V281.64C819.908 284.904 819.188 287.28 817.748 288.768C816.308 290.256 814.028 291 810.908 291H802.628V288.156H804.788V268.608H802.628V265.8ZM810.476 288.192C811.58 288.192 812.528 288.084 813.32 287.868C814.136 287.652 814.808 287.292 815.336 286.788C815.864 286.26 816.248 285.564 816.488 284.7C816.752 283.836 816.884 282.744 816.884 281.424V275.376C816.884 274.056 816.752 272.964 816.488 272.1C816.248 271.236 815.864 270.552 815.336 270.048C814.808 269.52 814.136 269.148 813.32 268.932C812.528 268.716 811.58 268.608 810.476 268.608H807.812V288.192H810.476ZM825.067 265.8H841.051V268.608H834.571V288.192H841.051V291H825.067V288.192H831.547V268.608H825.067V265.8ZM861.042 273.072C861.042 272.256 860.874 271.536 860.538 270.912C860.226 270.288 859.794 269.772 859.242 269.364C858.69 268.956 858.054 268.644 857.334 268.428C856.614 268.212 855.858 268.104 855.066 268.104C854.37 268.104 853.71 268.2 853.086 268.392C852.462 268.56 851.898 268.812 851.394 269.148C850.914 269.484 850.53 269.904 850.242 270.408C849.954 270.888 849.81 271.452 849.81 272.1V272.316C849.81 273.012 849.954 273.612 850.242 274.116C850.53 274.596 850.95 275.016 851.502 275.376C852.078 275.712 852.786 276 853.626 276.24C854.466 276.456 855.45 276.648 856.578 276.816C859.218 277.224 861.162 278.004 862.41 279.156C863.658 280.284 864.282 281.808 864.282 283.728V284.16C864.282 285.24 864.09 286.236 863.706 287.148C863.346 288.036 862.794 288.804 862.05 289.452C861.33 290.1 860.43 290.604 859.35 290.964C858.27 291.324 857.022 291.504 855.606 291.504C853.998 291.504 852.57 291.276 851.322 290.82C850.098 290.34 849.066 289.692 848.226 288.876C847.41 288.036 846.786 287.064 846.354 285.96C845.922 284.832 845.706 283.608 845.706 282.288V281.208H848.73V282.072C848.73 284.28 849.33 285.936 850.53 287.04C851.754 288.144 853.446 288.696 855.606 288.696C857.478 288.696 858.882 288.288 859.818 287.472C860.778 286.632 861.258 285.528 861.258 284.16V283.944C861.258 282.624 860.766 281.616 859.782 280.92C858.822 280.224 857.25 279.72 855.066 279.408C853.794 279.24 852.642 278.988 851.61 278.652C850.602 278.292 849.738 277.836 849.018 277.284C848.298 276.708 847.746 276.024 847.362 275.232C846.978 274.44 846.786 273.504 846.786 272.424V271.992C846.786 271.008 846.99 270.108 847.398 269.292C847.806 268.476 848.37 267.768 849.09 267.168C849.834 266.568 850.71 266.112 851.718 265.8C852.75 265.464 853.878 265.296 855.102 265.296C856.518 265.296 857.778 265.5 858.882 265.908C860.01 266.316 860.958 266.868 861.726 267.564C862.494 268.236 863.07 269.04 863.454 269.976C863.862 270.888 864.066 271.848 864.066 272.856V274.368H861.042V273.072ZM868.289 265.8H886.001V268.608H878.657V291H875.633V268.608H868.289V265.8ZM904.588 284.736H893.788L891.952 291H888.712L896.344 265.8H902.032L909.664 291H906.424L904.588 284.736ZM898.972 267.096L894.616 281.928H903.76L899.404 267.096H898.972ZM926.163 289.704H926.595V265.8H929.619V291H923.571L916.299 267.096H915.867V291H912.843V265.8H918.891L926.163 289.704ZM943.418 288.696C944.45 288.696 945.326 288.528 946.046 288.192C946.79 287.832 947.39 287.364 947.846 286.788C948.326 286.188 948.674 285.516 948.89 284.772C949.13 284.004 949.25 283.2 949.25 282.36V281.928H952.274V282.36C952.274 283.632 952.082 284.832 951.698 285.96C951.314 287.064 950.75 288.036 950.006 288.876C949.262 289.692 948.338 290.34 947.234 290.82C946.13 291.276 944.858 291.504 943.418 291.504C940.634 291.504 938.462 290.628 936.902 288.876C935.342 287.124 934.562 284.568 934.562 281.208V275.592C934.562 272.328 935.342 269.796 936.902 267.996C938.462 266.196 940.634 265.296 943.418 265.296C944.858 265.296 946.13 265.536 947.234 266.016C948.338 266.472 949.262 267.12 950.006 267.96C950.75 268.776 951.314 269.748 951.698 270.876C952.082 271.98 952.274 273.168 952.274 274.44V274.872H949.25V274.44C949.226 273.624 949.094 272.832 948.854 272.064C948.638 271.296 948.29 270.624 947.81 270.048C947.354 269.448 946.766 268.98 946.046 268.644C945.326 268.284 944.45 268.104 943.418 268.104C941.474 268.104 940.01 268.812 939.026 270.228C938.066 271.644 937.586 273.504 937.586 275.808V280.992C937.586 283.464 938.066 285.372 939.026 286.716C940.01 288.036 941.474 288.696 943.418 288.696ZM957.685 265.8H972.949V268.608H960.709V276.96H972.733V279.768H960.709V288.192H973.165V291H957.685V265.8Z" fill="#FF6D7F"/>
<path d="M1236.63 837.8H1244.91C1248.03 837.8 1250.31 838.544 1251.75 840.032C1253.19 841.52 1253.91 843.896 1253.91 847.16V853.64C1253.91 856.904 1253.19 859.28 1251.75 860.768C1250.31 862.256 1248.03 863 1244.91 863H1236.63V860.156H1238.79V840.608H1236.63V837.8ZM1244.48 860.192C1245.58 860.192 1246.53 860.084 1247.32 859.868C1248.14 859.652 1248.81 859.292 1249.34 858.788C1249.86 858.26 1250.25 857.564 1250.49 856.7C1250.75 855.836 1250.88 854.744 1250.88 853.424V847.376C1250.88 846.056 1250.75 844.964 1250.49 844.1C1250.25 843.236 1249.86 842.552 1249.34 842.048C1248.81 841.52 1248.14 841.148 1247.32 840.932C1246.53 840.716 1245.58 840.608 1244.48 840.608H1241.81V860.192H1244.48ZM1259.07 837.8H1275.05V840.608H1268.57V860.192H1275.05V863H1259.07V860.192H1265.55V840.608H1259.07V837.8ZM1295.04 845.072C1295.04 844.256 1294.87 843.536 1294.54 842.912C1294.23 842.288 1293.79 841.772 1293.24 841.364C1292.69 840.956 1292.05 840.644 1291.33 840.428C1290.61 840.212 1289.86 840.104 1289.07 840.104C1288.37 840.104 1287.71 840.2 1287.09 840.392C1286.46 840.56 1285.9 840.812 1285.39 841.148C1284.91 841.484 1284.53 841.904 1284.24 842.408C1283.95 842.888 1283.81 843.452 1283.81 844.1V844.316C1283.81 845.012 1283.95 845.612 1284.24 846.116C1284.53 846.596 1284.95 847.016 1285.5 847.376C1286.08 847.712 1286.79 848 1287.63 848.24C1288.47 848.456 1289.45 848.648 1290.58 848.816C1293.22 849.224 1295.16 850.004 1296.41 851.156C1297.66 852.284 1298.28 853.808 1298.28 855.728V856.16C1298.28 857.24 1298.09 858.236 1297.71 859.148C1297.35 860.036 1296.79 860.804 1296.05 861.452C1295.33 862.1 1294.43 862.604 1293.35 862.964C1292.27 863.324 1291.02 863.504 1289.61 863.504C1288 863.504 1286.57 863.276 1285.32 862.82C1284.1 862.34 1283.07 861.692 1282.23 860.876C1281.41 860.036 1280.79 859.064 1280.35 857.96C1279.92 856.832 1279.71 855.608 1279.71 854.288V853.208H1282.73V854.072C1282.73 856.28 1283.33 857.936 1284.53 859.04C1285.75 860.144 1287.45 860.696 1289.61 860.696C1291.48 860.696 1292.88 860.288 1293.82 859.472C1294.78 858.632 1295.26 857.528 1295.26 856.16V855.944C1295.26 854.624 1294.77 853.616 1293.78 852.92C1292.82 852.224 1291.25 851.72 1289.07 851.408C1287.79 851.24 1286.64 850.988 1285.61 850.652C1284.6 850.292 1283.74 849.836 1283.02 849.284C1282.3 848.708 1281.75 848.024 1281.36 847.232C1280.98 846.44 1280.79 845.504 1280.79 844.424V843.992C1280.79 843.008 1280.99 842.108 1281.4 841.292C1281.81 840.476 1282.37 839.768 1283.09 839.168C1283.83 838.568 1284.71 838.112 1285.72 837.8C1286.75 837.464 1287.88 837.296 1289.1 837.296C1290.52 837.296 1291.78 837.5 1292.88 837.908C1294.01 838.316 1294.96 838.868 1295.73 839.564C1296.49 840.236 1297.07 841.04 1297.45 841.976C1297.86 842.888 1298.07 843.848 1298.07 844.856V846.368H1295.04V845.072ZM1302.29 837.8H1320V840.608H1312.66V863H1309.63V840.608H1302.29V837.8ZM1338.59 856.736H1327.79L1325.95 863H1322.71L1330.34 837.8H1336.03L1343.66 863H1340.42L1338.59 856.736ZM1332.97 839.096L1328.62 853.928H1337.76L1333.4 839.096H1332.97ZM1360.16 861.704H1360.59V837.8H1363.62V863H1357.57L1350.3 839.096H1349.87V863H1346.84V837.8H1352.89L1360.16 861.704ZM1377.42 860.696C1378.45 860.696 1379.33 860.528 1380.05 860.192C1380.79 859.832 1381.39 859.364 1381.85 858.788C1382.33 858.188 1382.67 857.516 1382.89 856.772C1383.13 856.004 1383.25 855.2 1383.25 854.36V853.928H1386.27V854.36C1386.27 855.632 1386.08 856.832 1385.7 857.96C1385.31 859.064 1384.75 860.036 1384.01 860.876C1383.26 861.692 1382.34 862.34 1381.23 862.82C1380.13 863.276 1378.86 863.504 1377.42 863.504C1374.63 863.504 1372.46 862.628 1370.9 860.876C1369.34 859.124 1368.56 856.568 1368.56 853.208V847.592C1368.56 844.328 1369.34 841.796 1370.9 839.996C1372.46 838.196 1374.63 837.296 1377.42 837.296C1378.86 837.296 1380.13 837.536 1381.23 838.016C1382.34 838.472 1383.26 839.12 1384.01 839.96C1384.75 840.776 1385.31 841.748 1385.7 842.876C1386.08 843.98 1386.27 845.168 1386.27 846.44V846.872H1383.25V846.44C1383.23 845.624 1383.09 844.832 1382.85 844.064C1382.64 843.296 1382.29 842.624 1381.81 842.048C1381.35 841.448 1380.77 840.98 1380.05 840.644C1379.33 840.284 1378.45 840.104 1377.42 840.104C1375.47 840.104 1374.01 840.812 1373.03 842.228C1372.07 843.644 1371.59 845.504 1371.59 847.808V852.992C1371.59 855.464 1372.07 857.372 1373.03 858.716C1374.01 860.036 1375.47 860.696 1377.42 860.696ZM1391.68 837.8H1406.95V840.608H1394.71V848.96H1406.73V851.768H1394.71V860.192H1407.16V863H1391.68V837.8Z" fill="#FF6D7F"/>
<path d="M1647 422L1672 422L1672 667L1647 667" stroke="#FF6D7F" stroke-width="10"/>
<path d="M1579 744L1579 769L1242 769L1242 744" stroke="#FF6D7F" stroke-width="10"/>
<path d="M1307 525.667C1299.64 525.667 1293.67 531.636 1293.67 539C1293.67 546.364 1299.64 552.333 1307 552.333C1314.36 552.333 1320.33 546.364 1320.33 539C1320.33 531.636 1314.36 525.667 1307 525.667ZM1304.5 319L1304.5 539L1309.5 539L1309.5 319L1304.5 319Z" fill="#FF6D7F"/>
<path d="M871 391.667C863.636 391.667 857.667 397.636 857.667 405C857.667 412.364 863.636 418.333 871 418.333C878.364 418.333 884.333 412.364 884.333 405C884.333 397.636 878.364 391.667 871 391.667ZM868.5 319L868.5 405L873.5 405L873.5 319L868.5 319Z" fill="#FF6D7F"/>
<path d="M628 391.667C620.636 391.667 614.667 397.636 614.667 405C614.667 412.364 620.636 418.333 628 418.333C635.364 418.333 641.333 412.364 641.333 405C641.333 397.636 635.364 391.667 628 391.667ZM625.5 319L625.5 405L630.5 405L630.5 319L625.5 319Z" fill="#FF6D7F"/>
<path d="M61 391.667C53.6362 391.667 47.6667 397.636 47.6667 405C47.6667 412.364 53.6362 418.333 61 418.333C68.3638 418.333 74.3333 412.364 74.3333 405C74.3333 397.636 68.3638 391.667 61 391.667ZM58.5 267L58.5 405L63.5 405L63.5 267L58.5 267Z" fill="#FF6D7F"/>
</svg>
