<svg width="1920" height="1080" viewBox="0 0 1920 1080" fill="none" xmlns="http://www.w3.org/2000/svg">
<path d="M247 858C244.239 858 242 860.239 242 863C242 865.761 244.239 868 247 868V858ZM1676.54 866.536C1678.49 864.583 1678.49 861.417 1676.54 859.464L1644.72 827.645C1642.76 825.692 1639.6 825.692 1637.64 827.645C1635.69 829.597 1635.69 832.763 1637.64 834.716L1665.93 863L1637.64 891.284C1635.69 893.237 1635.69 896.403 1637.64 898.355C1639.6 900.308 1642.76 900.308 1644.72 898.355L1676.54 866.536ZM247 868H1673V858H247V868Z" fill="#1A73E8"/>
<mask id="mask0_3328_15631" style="mask-type:alpha" maskUnits="userSpaceOnUse" x="386" y="337" width="172" height="172">
<rect x="386" y="337" width="171.549" height="171.549" fill="#D9D9D9"/>
</mask>
<g mask="url(#mask0_3328_15631)">
<path d="M462.661 501.402C458.73 501.402 455.365 500.27 452.565 498.006C449.766 495.743 447.889 492.884 446.936 489.429L440.682 466.734C433.891 462.565 428.381 456.608 424.152 448.865C419.923 441.121 417.809 432.425 417.809 422.775C417.809 413.125 419.923 404.399 424.152 396.596C428.381 388.793 433.891 382.807 440.682 378.637L446.936 355.942C447.889 352.607 449.766 349.807 452.565 347.544C455.365 345.28 458.73 344.148 462.661 344.148H481.067C484.879 344.148 488.185 345.28 490.985 347.544C493.785 349.807 495.72 352.607 496.793 355.942L502.868 378.637C509.659 382.807 515.198 388.793 519.487 396.596C523.776 404.399 525.92 413.125 525.92 422.775C525.92 432.425 523.776 441.121 519.487 448.865C515.198 456.608 509.659 462.565 502.868 466.734L496.793 489.429C495.72 492.884 493.785 495.743 490.985 498.006C488.185 500.27 484.879 501.402 481.067 501.402H462.661ZM471.775 460.48C482.378 460.48 491.313 456.847 498.58 449.58C505.847 442.313 509.48 433.378 509.48 422.775C509.48 412.172 505.847 403.238 498.58 395.971C491.313 388.704 482.378 385.07 471.775 385.07C461.172 385.07 452.238 388.704 444.971 395.971C437.704 403.238 434.07 412.172 434.07 422.775C434.07 433.378 437.704 442.313 444.971 449.58C452.238 456.847 461.172 460.48 471.775 460.48ZM457.837 371.31C462.364 370 467.01 369.345 471.775 369.345C476.54 369.345 481.186 370 485.713 371.31L482.676 358.444H460.875L457.837 371.31ZM460.875 487.106H482.676L485.713 474.24C481.186 475.431 476.54 476.027 471.775 476.027C467.01 476.027 462.364 475.431 457.837 474.24L460.875 487.106ZM460.875 487.106H457.837H485.713H482.676H460.875Z" fill="#3C4043"/>
</g>
<mask id="mask1_3328_15631" style="mask-type:alpha" maskUnits="userSpaceOnUse" x="386" y="570" width="172" height="173">
<rect x="386" y="570.672" width="171.549" height="171.549" fill="#D9D9D9"/>
</mask>
<g mask="url(#mask1_3328_15631)">
<path d="M404.586 722.206C401.489 722.206 399.106 720.806 397.438 718.007C395.771 715.207 395.771 712.438 397.438 709.698L464.628 593.723C466.296 590.983 468.679 589.613 471.776 589.613C474.874 589.613 477.256 590.983 478.924 593.723L546.114 709.698C547.782 712.438 547.782 715.207 546.114 718.007C544.446 720.806 542.123 722.206 539.145 722.206H404.586ZM472.491 641.435C471.061 641.435 469.84 641.912 468.828 642.865C467.815 643.818 467.309 645.009 467.309 646.439V674.852C467.309 676.281 467.845 677.502 468.917 678.515C469.989 679.528 471.181 680.034 472.491 680.034C473.921 680.034 475.112 679.528 476.065 678.515C477.018 677.502 477.495 676.281 477.495 674.852V646.439C477.495 645.009 477.018 643.818 476.065 642.865C475.112 641.912 473.921 641.435 472.491 641.435ZM472.491 698.797C474.159 698.797 475.529 698.231 476.601 697.099C477.673 695.968 478.209 694.627 478.209 693.079C478.209 691.53 477.643 690.19 476.512 689.058C475.38 687.926 474.04 687.36 472.491 687.36C470.942 687.36 469.572 687.926 468.381 689.058C467.19 690.19 466.594 691.53 466.594 693.079C466.594 694.747 467.19 696.117 468.381 697.189C469.572 698.261 470.942 698.797 472.491 698.797ZM415.308 707.732H528.244L471.776 609.985L415.308 707.732Z" fill="#3C4043"/>
</g>
<mask id="mask2_3328_15631" style="mask-type:alpha" maskUnits="userSpaceOnUse" x="874" y="337" width="172" height="172">
<rect x="874" y="337" width="171.549" height="171.549" fill="#D9D9D9"/>
</mask>
<g mask="url(#mask2_3328_15631)">
<path d="M880.969 483.173C879.063 483.173 877.544 482.578 876.412 481.386C875.281 480.195 874.715 478.766 874.715 477.098C874.715 475.192 875.281 473.673 876.412 472.541C877.544 471.409 879.063 470.843 880.969 470.843H887.045V371.309C887.045 366.663 888.623 362.762 891.78 359.605C894.937 356.448 898.779 354.869 903.306 354.869H1016.24C1020.77 354.869 1024.61 356.448 1027.77 359.605C1030.93 362.762 1032.5 366.663 1032.5 371.309V470.843H1038.76C1040.55 470.843 1042 471.409 1043.14 472.541C1044.27 473.673 1044.83 475.132 1044.83 476.919C1044.83 478.825 1044.27 480.344 1043.14 481.476C1042 482.608 1040.55 483.173 1038.76 483.173H880.969ZM948.517 470.843H971.39C972.462 470.843 973.355 470.486 974.07 469.771C974.785 469.056 975.142 468.163 975.142 467.091C975.142 466.019 974.785 465.155 974.07 464.5C973.355 463.844 972.462 463.517 971.39 463.517H948.517C947.444 463.517 946.551 463.844 945.836 464.5C945.121 465.155 944.764 466.019 944.764 467.091C944.764 468.163 945.121 469.056 945.836 469.771C946.551 470.486 947.444 470.843 948.517 470.843ZM904.021 451.365H1016.96V371.309H904.021V451.365Z" fill="#3C4043"/>
</g>
<mask id="mask3_3328_15631" style="mask-type:alpha" maskUnits="userSpaceOnUse" x="874" y="570" width="172" height="173">
<rect x="874.168" y="570.672" width="171.549" height="171.549" fill="#D9D9D9"/>
</mask>
<g mask="url(#mask3_3328_15631)">
<path d="M949.041 717.56H971.02C971.973 717.56 972.777 717.203 973.433 716.488C974.088 715.773 974.415 714.999 974.415 714.165C974.415 713.093 974.088 712.199 973.433 711.484C972.777 710.769 971.973 710.412 971.02 710.412H949.041C947.968 710.412 947.105 710.769 946.449 711.484C945.794 712.199 945.467 713.093 945.467 714.165C945.467 714.999 945.794 715.773 946.449 716.488C947.105 717.203 947.968 717.56 949.041 717.56ZM922.593 738.467C918.186 738.467 914.373 736.859 911.157 733.643C907.94 730.426 906.332 726.614 906.332 722.206V590.685C906.332 586.277 907.94 582.465 911.157 579.249C914.373 576.032 918.186 574.424 922.593 574.424H997.289C1001.7 574.424 1005.51 576.032 1008.73 579.249C1011.94 582.465 1013.55 586.277 1013.55 590.685V722.206C1013.55 726.614 1011.94 730.426 1008.73 733.643C1005.51 736.859 1001.7 738.467 997.289 738.467H922.593ZM922.593 695.759H997.289V606.411H922.593V695.759ZM922.593 705.945V722.206H997.289V705.945H922.593ZM922.593 596.225H997.289V590.685H922.593V596.225Z" fill="#3C4043"/>
</g>
<mask id="mask4_3328_15631" style="mask-type:alpha" maskUnits="userSpaceOnUse" x="1361" y="337" width="172" height="172">
<rect x="1361" y="337" width="171.549" height="171.549" fill="#D9D9D9"/>
</mask>
<g mask="url(#mask4_3328_15631)">
<path d="M1401.56 501.759C1394.53 501.759 1388.7 499.376 1384.05 494.611C1379.41 489.845 1377.08 484.068 1377.08 477.277V459.586C1377.08 457.203 1377.83 455.208 1379.32 453.6C1380.8 451.991 1382.86 451.187 1385.48 451.187H1401.92V355.763C1401.92 353.619 1402.52 352.517 1403.71 352.457C1404.9 352.398 1406.15 352.964 1407.46 354.155L1413.54 360.231L1422.11 351.832C1422.59 351.117 1423.48 350.76 1424.79 350.76C1426.1 350.76 1427.24 351.117 1428.19 351.832L1436.41 360.231L1444.81 351.832C1445.28 351.117 1446.15 350.76 1447.4 350.76C1448.65 350.76 1449.81 351.117 1450.88 351.832L1459.28 360.231L1467.5 351.832C1468.1 351.117 1469.02 350.76 1470.27 350.76C1471.52 350.76 1472.63 351.117 1473.58 351.832L1482.16 360.231L1490.55 351.832C1491.15 351.117 1492.01 350.76 1493.15 350.76C1494.28 350.76 1495.38 351.117 1496.45 351.832L1504.85 360.231L1510.75 354.155C1511.94 352.845 1513.22 352.249 1514.59 352.368C1515.96 352.487 1516.64 353.619 1516.64 355.763V477.277C1516.64 484.068 1514.26 489.845 1509.5 494.611C1504.73 499.376 1498.95 501.759 1492.16 501.759H1401.56ZM1492.34 485.318C1494.49 485.318 1496.33 484.544 1497.88 482.995C1499.43 481.447 1500.2 479.541 1500.2 477.277V372.918H1418.18V451.187H1475.9C1478.28 451.187 1480.25 452.021 1481.8 453.689C1483.35 455.357 1484.12 457.263 1484.12 459.407V477.277C1484.12 479.541 1484.9 481.447 1486.44 482.995C1487.99 484.544 1489.96 485.318 1492.34 485.318ZM1432.66 401.867C1431.23 401.867 1430.07 401.331 1429.17 400.259C1428.28 399.187 1427.83 397.995 1427.83 396.685C1427.83 395.374 1428.34 394.213 1429.35 393.2C1430.36 392.188 1431.52 391.681 1432.84 391.681H1461.78C1463.21 391.681 1464.43 392.188 1465.45 393.2C1466.46 394.213 1466.97 395.434 1466.97 396.864C1466.97 398.293 1466.46 399.484 1465.45 400.437C1464.43 401.391 1463.21 401.867 1461.78 401.867H1432.66ZM1432.66 425.455C1431.23 425.455 1430.07 424.919 1429.17 423.847C1428.28 422.775 1427.83 421.583 1427.83 420.273C1427.83 418.843 1428.34 417.652 1429.35 416.699C1430.36 415.746 1431.52 415.269 1432.84 415.269H1461.78C1463.21 415.269 1464.43 415.776 1465.45 416.788C1466.46 417.801 1466.97 418.962 1466.97 420.273C1466.97 421.702 1466.46 422.923 1465.45 423.936C1464.43 424.949 1463.21 425.455 1461.78 425.455H1432.66ZM1483.59 401.867C1482.27 401.867 1481.11 401.331 1480.1 400.259C1479.09 399.187 1478.58 398.055 1478.58 396.864C1478.58 395.553 1479.09 394.362 1480.1 393.29C1481.11 392.217 1482.27 391.681 1483.59 391.681C1485.01 391.681 1486.24 392.217 1487.25 393.29C1488.26 394.362 1488.77 395.553 1488.77 396.864C1488.77 398.174 1488.26 399.336 1487.25 400.348C1486.24 401.361 1485.01 401.867 1483.59 401.867ZM1483.59 424.562C1482.27 424.562 1481.11 424.025 1480.1 422.953C1479.09 421.881 1478.58 420.69 1478.58 419.379C1478.58 418.069 1479.09 416.907 1480.1 415.895C1481.11 414.882 1482.27 414.376 1483.59 414.376C1485.01 414.376 1486.24 414.882 1487.25 415.895C1488.26 416.907 1488.77 418.069 1488.77 419.379C1488.77 420.69 1488.26 421.881 1487.25 422.953C1486.24 424.025 1485.01 424.562 1483.59 424.562ZM1401.38 485.318H1467.86V467.627H1393.52V477.277C1393.52 479.541 1394.27 481.447 1395.76 482.995C1397.24 484.544 1399.12 485.318 1401.38 485.318Z" fill="#3C4043"/>
</g>
<mask id="mask5_3328_15631" style="mask-type:alpha" maskUnits="userSpaceOnUse" x="1361" y="570" width="172" height="173">
<rect x="1361.34" y="570.672" width="171.549" height="171.549" fill="#D9D9D9"/>
</mask>
<g mask="url(#mask5_3328_15631)">
<path d="M1461.41 637.861C1461.41 637.385 1461.65 636.878 1462.13 636.342C1462.6 635.806 1463.08 635.3 1463.56 634.823C1467.13 633.632 1470.77 632.679 1474.46 631.964C1478.15 631.249 1482.08 630.892 1486.25 630.892C1488.87 630.892 1491.46 631.041 1494.03 631.339C1496.59 631.637 1499.12 632.083 1501.62 632.679C1502.33 632.798 1502.96 633.215 1503.5 633.93C1504.03 634.645 1504.3 635.3 1504.3 635.896C1504.3 637.444 1503.82 638.576 1502.87 639.291C1501.92 640.006 1500.85 640.125 1499.65 639.648C1497.51 639.172 1495.34 638.785 1493.13 638.487C1490.93 638.189 1488.69 638.04 1486.43 638.04C1482.98 638.04 1479.67 638.368 1476.51 639.023C1473.36 639.678 1470.29 640.542 1467.31 641.614C1465.64 642.329 1464.24 642.269 1463.11 641.435C1461.98 640.601 1461.41 639.41 1461.41 637.861ZM1461.41 677.353C1461.41 676.758 1461.65 676.162 1462.13 675.566C1462.6 674.971 1463.08 674.435 1463.56 673.958C1467.13 672.767 1470.77 671.843 1474.46 671.188C1478.15 670.533 1482.08 670.205 1486.25 670.205C1488.87 670.205 1491.46 670.354 1494.03 670.652C1496.59 670.95 1499.12 671.397 1501.62 671.992C1502.33 672.111 1502.96 672.528 1503.5 673.243C1504.03 673.958 1504.3 674.613 1504.3 675.209C1504.3 676.758 1503.82 677.889 1502.87 678.604C1501.92 679.319 1500.85 679.438 1499.65 678.962C1497.51 678.485 1495.34 678.098 1493.13 677.8C1490.93 677.502 1488.69 677.353 1486.43 677.353C1482.98 677.353 1479.67 677.651 1476.51 678.247C1473.36 678.842 1470.29 679.676 1467.31 680.748C1465.64 681.463 1464.24 681.493 1463.11 680.838C1461.98 680.183 1461.41 679.021 1461.41 677.353ZM1461.41 657.518C1461.41 657.041 1461.65 656.535 1462.13 655.999C1462.6 655.463 1463.08 654.957 1463.56 654.48C1467.13 653.289 1470.77 652.336 1474.46 651.621C1478.15 650.906 1482.08 650.549 1486.25 650.549C1488.87 650.549 1491.46 650.698 1494.03 650.995C1496.59 651.293 1499.12 651.74 1501.62 652.336C1502.33 652.455 1502.96 652.872 1503.5 653.587C1504.03 654.301 1504.3 654.957 1504.3 655.552C1504.3 657.101 1503.82 658.233 1502.87 658.947C1501.92 659.662 1500.85 659.781 1499.65 659.305C1497.51 658.828 1495.34 658.441 1493.13 658.143C1490.93 657.846 1488.69 657.697 1486.43 657.697C1482.98 657.697 1479.67 658.024 1476.51 658.679C1473.36 659.335 1470.29 660.198 1467.31 661.271C1465.64 661.985 1464.24 661.926 1463.11 661.092C1461.98 660.258 1461.41 659.067 1461.41 657.518ZM1405.66 693.436C1412.09 693.436 1418.35 694.181 1424.42 695.67C1430.5 697.159 1436.4 699.393 1442.11 702.371V626.246C1436.87 622.672 1431.09 619.902 1424.78 617.937C1418.47 615.971 1412.09 614.988 1405.66 614.988C1401.13 614.988 1396.73 615.554 1392.44 616.686C1388.15 617.817 1383.8 619.217 1379.39 620.885V698.261C1382.97 696.712 1387.11 695.521 1391.81 694.687C1396.52 693.853 1401.13 693.436 1405.66 693.436ZM1452.66 702.371C1458.61 699.393 1464.48 697.159 1470.26 695.67C1476.04 694.181 1482.14 693.436 1488.58 693.436C1493.1 693.436 1497.78 693.793 1502.6 694.508C1507.43 695.223 1511.51 696.176 1514.84 697.367V620.706C1510.79 618.562 1506.53 617.073 1502.07 616.239C1497.6 615.405 1493.1 614.988 1488.58 614.988C1482.14 614.988 1475.89 615.971 1469.81 617.937C1463.74 619.902 1458.02 622.672 1452.66 626.246V702.371ZM1448.01 720.598C1447.06 720.598 1446.05 720.479 1444.97 720.24C1443.9 720.002 1442.89 719.645 1441.94 719.168C1436.46 715.594 1430.65 712.854 1424.51 710.948C1418.38 709.042 1412.09 708.089 1405.66 708.089C1401.73 708.089 1397.8 708.655 1393.87 709.787C1389.93 710.918 1386.06 712.08 1382.25 713.271C1378.44 715.297 1374.57 715.237 1370.64 713.093C1366.7 710.948 1364.74 707.434 1364.74 702.55V620.349C1364.74 617.49 1365.39 614.78 1366.7 612.218C1368.01 609.657 1369.98 607.721 1372.6 606.411C1377.72 604.147 1383.05 602.539 1388.59 601.586C1394.13 600.633 1399.7 600.156 1405.3 600.156C1412.81 600.156 1420.16 601.199 1427.37 603.283C1434.58 605.368 1441.28 608.615 1447.47 613.022C1453.67 608.734 1460.25 605.517 1467.22 603.373C1474.19 601.228 1481.43 600.156 1488.93 600.156C1494.53 600.156 1500.07 600.722 1505.55 601.854C1511.03 602.986 1516.33 604.505 1521.46 606.411C1524.08 607.721 1526.07 609.657 1527.44 612.218C1528.81 614.78 1529.5 617.549 1529.5 620.528V704.515C1529.5 708.923 1527.5 712.08 1523.51 713.986C1519.52 715.892 1515.62 715.654 1511.81 713.271C1508.11 711.961 1504.33 710.77 1500.46 709.697C1496.59 708.625 1492.69 708.089 1488.75 708.089C1482.32 708.089 1476.19 709.072 1470.35 711.038C1464.51 713.003 1458.97 715.713 1453.73 719.168C1452.9 719.645 1451.94 720.002 1450.87 720.24C1449.8 720.479 1448.84 720.598 1448.01 720.598Z" fill="#3C4043"/>
</g>
<path d="M1526.83 940.8H1529.86V963.192H1543.03V966H1526.83V940.8ZM1547.9 950.592C1547.9 947.328 1548.68 944.796 1550.24 942.996C1551.8 941.196 1553.97 940.296 1556.76 940.296C1559.54 940.296 1561.71 941.196 1563.27 942.996C1564.83 944.796 1565.61 947.328 1565.61 950.592V956.208C1565.61 959.568 1564.83 962.124 1563.27 963.876C1561.71 965.628 1559.54 966.504 1556.76 966.504C1553.97 966.504 1551.8 965.628 1550.24 963.876C1548.68 962.124 1547.9 959.568 1547.9 956.208V950.592ZM1556.76 963.696C1558.7 963.696 1560.15 963.036 1561.11 961.716C1562.1 960.372 1562.59 958.464 1562.59 955.992V950.808C1562.59 948.504 1562.1 946.644 1561.11 945.228C1560.15 943.812 1558.7 943.104 1556.76 943.104C1554.81 943.104 1553.35 943.812 1552.37 945.228C1551.41 946.644 1550.93 948.504 1550.93 950.808V955.992C1550.93 958.464 1551.41 960.372 1552.37 961.716C1553.35 963.036 1554.81 963.696 1556.76 963.696ZM1583.73 964.704H1584.17V940.8H1587.19V966H1581.14L1573.87 942.096H1573.44V966H1570.41V940.8H1576.46L1583.73 964.704ZM1598.43 953.904H1609.66V966H1606.86V962.976H1606.42C1606.02 964.032 1605.3 964.884 1604.26 965.532C1603.23 966.18 1602.03 966.504 1600.66 966.504C1597.95 966.504 1595.82 965.628 1594.26 963.876C1592.72 962.124 1591.95 959.568 1591.95 956.208V950.592C1591.95 947.328 1592.73 944.796 1594.29 942.996C1595.85 941.196 1598.02 940.296 1600.81 940.296C1602.25 940.296 1603.52 940.536 1604.62 941.016C1605.73 941.472 1606.65 942.12 1607.4 942.96C1608.14 943.776 1608.7 944.748 1609.09 945.876C1609.47 946.98 1609.66 948.168 1609.66 949.44V949.872H1606.64V949.44C1606.64 948.624 1606.52 947.832 1606.28 947.064C1606.06 946.296 1605.72 945.624 1605.24 945.048C1604.78 944.448 1604.18 943.98 1603.44 943.644C1602.72 943.284 1601.84 943.104 1600.81 943.104C1598.86 943.104 1597.4 943.812 1596.42 945.228C1595.46 946.644 1594.98 948.504 1594.98 950.808V955.992C1594.98 958.464 1595.46 960.372 1596.42 961.716C1597.4 963.036 1598.89 963.696 1600.88 963.696C1602.68 963.696 1604.08 963.12 1605.09 961.968C1606.12 960.816 1606.64 959.208 1606.64 957.144V956.712H1598.43V953.904ZM1615.26 940.8H1630.52V943.608H1618.28V951.96H1630.3V954.768H1618.28V963.192H1630.74V966H1615.26V940.8ZM1650.87 948.072C1650.87 947.256 1650.7 946.536 1650.37 945.912C1650.05 945.288 1649.62 944.772 1649.07 944.364C1648.52 943.956 1647.88 943.644 1647.16 943.428C1646.44 943.212 1645.69 943.104 1644.89 943.104C1644.2 943.104 1643.54 943.2 1642.91 943.392C1642.29 943.56 1641.73 943.812 1641.22 944.148C1640.74 944.484 1640.36 944.904 1640.07 945.408C1639.78 945.888 1639.64 946.452 1639.64 947.1V947.316C1639.64 948.012 1639.78 948.612 1640.07 949.116C1640.36 949.596 1640.78 950.016 1641.33 950.376C1641.91 950.712 1642.61 951 1643.45 951.24C1644.29 951.456 1645.28 951.648 1646.41 951.816C1649.05 952.224 1650.99 953.004 1652.24 954.156C1653.49 955.284 1654.11 956.808 1654.11 958.728V959.16C1654.11 960.24 1653.92 961.236 1653.53 962.148C1653.17 963.036 1652.62 963.804 1651.88 964.452C1651.16 965.1 1650.26 965.604 1649.18 965.964C1648.1 966.324 1646.85 966.504 1645.43 966.504C1643.83 966.504 1642.4 966.276 1641.15 965.82C1639.93 965.34 1638.89 964.692 1638.05 963.876C1637.24 963.036 1636.61 962.064 1636.18 960.96C1635.75 959.832 1635.53 958.608 1635.53 957.288V956.208H1638.56V957.072C1638.56 959.28 1639.16 960.936 1640.36 962.04C1641.58 963.144 1643.27 963.696 1645.43 963.696C1647.31 963.696 1648.71 963.288 1649.65 962.472C1650.61 961.632 1651.09 960.528 1651.09 959.16V958.944C1651.09 957.624 1650.59 956.616 1649.61 955.92C1648.65 955.224 1647.08 954.72 1644.89 954.408C1643.62 954.24 1642.47 953.988 1641.44 953.652C1640.43 953.292 1639.57 952.836 1638.85 952.284C1638.13 951.708 1637.57 951.024 1637.19 950.232C1636.81 949.44 1636.61 948.504 1636.61 947.424V946.992C1636.61 946.008 1636.82 945.108 1637.23 944.292C1637.63 943.476 1638.2 942.768 1638.92 942.168C1639.66 941.568 1640.54 941.112 1641.55 940.8C1642.58 940.464 1643.71 940.296 1644.93 940.296C1646.35 940.296 1647.61 940.5 1648.71 940.908C1649.84 941.316 1650.79 941.868 1651.55 942.564C1652.32 943.236 1652.9 944.04 1653.28 944.976C1653.69 945.888 1653.89 946.848 1653.89 947.856V949.368H1650.87V948.072ZM1658.12 940.8H1675.83V943.608H1668.49V966H1665.46V943.608H1658.12V940.8Z" fill="#1A73E8"/>
<path d="M257.956 948.072C257.956 947.256 257.788 946.536 257.452 945.912C257.14 945.288 256.708 944.772 256.156 944.364C255.604 943.956 254.968 943.644 254.248 943.428C253.528 943.212 252.772 943.104 251.98 943.104C251.284 943.104 250.624 943.2 250 943.392C249.376 943.56 248.812 943.812 248.308 944.148C247.828 944.484 247.444 944.904 247.156 945.408C246.868 945.888 246.724 946.452 246.724 947.1V947.316C246.724 948.012 246.868 948.612 247.156 949.116C247.444 949.596 247.864 950.016 248.416 950.376C248.992 950.712 249.7 951 250.54 951.24C251.38 951.456 252.364 951.648 253.492 951.816C256.132 952.224 258.076 953.004 259.324 954.156C260.572 955.284 261.196 956.808 261.196 958.728V959.16C261.196 960.24 261.004 961.236 260.62 962.148C260.26 963.036 259.708 963.804 258.964 964.452C258.244 965.1 257.344 965.604 256.264 965.964C255.184 966.324 253.936 966.504 252.52 966.504C250.912 966.504 249.484 966.276 248.236 965.82C247.012 965.34 245.98 964.692 245.14 963.876C244.324 963.036 243.7 962.064 243.268 960.96C242.836 959.832 242.62 958.608 242.62 957.288V956.208H245.644V957.072C245.644 959.28 246.244 960.936 247.444 962.04C248.668 963.144 250.36 963.696 252.52 963.696C254.392 963.696 255.796 963.288 256.732 962.472C257.692 961.632 258.172 960.528 258.172 959.16V958.944C258.172 957.624 257.68 956.616 256.696 955.92C255.736 955.224 254.164 954.72 251.98 954.408C250.708 954.24 249.556 953.988 248.524 953.652C247.516 953.292 246.652 952.836 245.932 952.284C245.212 951.708 244.66 951.024 244.276 950.232C243.892 949.44 243.7 948.504 243.7 947.424V946.992C243.7 946.008 243.904 945.108 244.312 944.292C244.72 943.476 245.284 942.768 246.004 942.168C246.748 941.568 247.624 941.112 248.632 940.8C249.664 940.464 250.792 940.296 252.016 940.296C253.432 940.296 254.692 940.5 255.796 940.908C256.924 941.316 257.872 941.868 258.64 942.564C259.408 943.236 259.984 944.04 260.368 944.976C260.776 945.888 260.98 946.848 260.98 947.856V949.368H257.956V948.072ZM265.671 940.8H268.695V951.96H279.423V940.8H282.447V966H279.423V954.768H268.695V966H265.671V940.8ZM287.246 950.592C287.246 947.328 288.026 944.796 289.586 942.996C291.146 941.196 293.318 940.296 296.102 940.296C298.886 940.296 301.058 941.196 302.618 942.996C304.178 944.796 304.958 947.328 304.958 950.592V956.208C304.958 959.568 304.178 962.124 302.618 963.876C301.058 965.628 298.886 966.504 296.102 966.504C293.318 966.504 291.146 965.628 289.586 963.876C288.026 962.124 287.246 959.568 287.246 956.208V950.592ZM296.102 963.696C298.046 963.696 299.498 963.036 300.458 961.716C301.442 960.372 301.934 958.464 301.934 955.992V950.808C301.934 948.504 301.442 946.644 300.458 945.228C299.498 943.812 298.046 943.104 296.102 943.104C294.158 943.104 292.694 943.812 291.71 945.228C290.75 946.644 290.27 948.504 290.27 950.808V955.992C290.27 958.464 290.75 960.372 291.71 961.716C292.694 963.036 294.158 963.696 296.102 963.696ZM326.029 966H323.005V957.576C323.005 956.952 322.861 956.472 322.573 956.136C322.285 955.8 321.781 955.632 321.061 955.632H313.213V966H310.189V940.8H319.189C320.485 940.8 321.613 940.992 322.573 941.376C323.533 941.736 324.325 942.228 324.949 942.852C325.597 943.476 326.077 944.208 326.389 945.048C326.725 945.864 326.893 946.728 326.893 947.64V948.72C326.893 949.656 326.629 950.592 326.101 951.528C325.597 952.464 324.805 953.184 323.725 953.688V954.12C324.445 954.24 325.009 954.528 325.417 954.984C325.825 955.44 326.029 956.088 326.029 956.928V966ZM313.213 952.824H318.829C320.533 952.824 321.793 952.464 322.609 951.744C323.449 951 323.869 949.92 323.869 948.504V947.856C323.869 946.584 323.449 945.564 322.609 944.796C321.793 944.004 320.533 943.608 318.829 943.608H313.213V952.824ZM331.332 940.8H349.044V943.608H341.7V966H338.676V943.608H331.332V940.8ZM354.599 940.8H369.863V943.608H357.623V951.96H369.647V954.768H357.623V963.192H370.079V966H354.599V940.8ZM390.214 948.072C390.214 947.256 390.046 946.536 389.71 945.912C389.398 945.288 388.966 944.772 388.414 944.364C387.862 943.956 387.226 943.644 386.506 943.428C385.786 943.212 385.03 943.104 384.238 943.104C383.542 943.104 382.882 943.2 382.258 943.392C381.634 943.56 381.07 943.812 380.566 944.148C380.086 944.484 379.702 944.904 379.414 945.408C379.126 945.888 378.982 946.452 378.982 947.1V947.316C378.982 948.012 379.126 948.612 379.414 949.116C379.702 949.596 380.122 950.016 380.674 950.376C381.25 950.712 381.958 951 382.798 951.24C383.638 951.456 384.622 951.648 385.75 951.816C388.39 952.224 390.334 953.004 391.582 954.156C392.83 955.284 393.454 956.808 393.454 958.728V959.16C393.454 960.24 393.262 961.236 392.878 962.148C392.518 963.036 391.966 963.804 391.222 964.452C390.502 965.1 389.602 965.604 388.522 965.964C387.442 966.324 386.194 966.504 384.778 966.504C383.17 966.504 381.742 966.276 380.494 965.82C379.27 965.34 378.238 964.692 377.398 963.876C376.582 963.036 375.958 962.064 375.526 960.96C375.094 959.832 374.878 958.608 374.878 957.288V956.208H377.902V957.072C377.902 959.28 378.502 960.936 379.702 962.04C380.926 963.144 382.618 963.696 384.778 963.696C386.65 963.696 388.054 963.288 388.99 962.472C389.95 961.632 390.43 960.528 390.43 959.16V958.944C390.43 957.624 389.938 956.616 388.954 955.92C387.994 955.224 386.422 954.72 384.238 954.408C382.966 954.24 381.814 953.988 380.782 953.652C379.774 953.292 378.91 952.836 378.19 952.284C377.47 951.708 376.918 951.024 376.534 950.232C376.15 949.44 375.958 948.504 375.958 947.424V946.992C375.958 946.008 376.162 945.108 376.57 944.292C376.978 943.476 377.542 942.768 378.262 942.168C379.006 941.568 379.882 941.112 380.89 940.8C381.922 940.464 383.05 940.296 384.274 940.296C385.69 940.296 386.95 940.5 388.054 940.908C389.182 941.316 390.13 941.868 390.898 942.564C391.666 943.236 392.242 944.04 392.626 944.976C393.034 945.888 393.238 946.848 393.238 947.856V949.368H390.214V948.072ZM397.461 940.8H415.173V943.608H407.829V966H404.805V943.608H397.461V940.8Z" fill="#1A73E8"/>
<path d="M248.604 230.904H259.836V243H257.028V239.976H256.596C256.188 241.032 255.468 241.884 254.436 242.532C253.404 243.18 252.204 243.504 250.836 243.504C248.124 243.504 245.988 242.628 244.428 240.876C242.892 239.124 242.124 236.568 242.124 233.208V227.592C242.124 224.328 242.904 221.796 244.464 219.996C246.024 218.196 248.196 217.296 250.98 217.296C252.42 217.296 253.692 217.536 254.796 218.016C255.9 218.472 256.824 219.12 257.568 219.96C258.312 220.776 258.876 221.748 259.26 222.876C259.644 223.98 259.836 225.168 259.836 226.44V226.872H256.812V226.44C256.812 225.624 256.692 224.832 256.452 224.064C256.236 223.296 255.888 222.624 255.408 222.048C254.952 221.448 254.352 220.98 253.608 220.644C252.888 220.284 252.012 220.104 250.98 220.104C249.036 220.104 247.572 220.812 246.588 222.228C245.628 223.644 245.148 225.504 245.148 227.808V232.992C245.148 235.464 245.628 237.372 246.588 238.716C247.572 240.036 249.06 240.696 251.052 240.696C252.852 240.696 254.256 240.12 255.264 238.968C256.296 237.816 256.812 236.208 256.812 234.144V233.712H248.604V230.904ZM265.175 217.8H268.199V240.192H281.375V243H265.175V217.8ZM300.502 236.736H289.702L287.866 243H284.626L292.258 217.8H297.946L305.578 243H302.338L300.502 236.736ZM294.886 219.096L290.53 233.928H299.674L295.318 219.096H294.886ZM322.077 241.704H322.509V217.8H325.533V243H319.485L312.213 219.096H311.781V243H308.757V217.8H314.805L322.077 241.704ZM339.332 240.696C340.364 240.696 341.24 240.528 341.96 240.192C342.704 239.832 343.304 239.364 343.76 238.788C344.24 238.188 344.588 237.516 344.804 236.772C345.044 236.004 345.164 235.2 345.164 234.36V233.928H348.188V234.36C348.188 235.632 347.996 236.832 347.612 237.96C347.228 239.064 346.664 240.036 345.92 240.876C345.176 241.692 344.252 242.34 343.148 242.82C342.044 243.276 340.772 243.504 339.332 243.504C336.548 243.504 334.376 242.628 332.816 240.876C331.256 239.124 330.476 236.568 330.476 233.208V227.592C330.476 224.328 331.256 221.796 332.816 219.996C334.376 218.196 336.548 217.296 339.332 217.296C340.772 217.296 342.044 217.536 343.148 218.016C344.252 218.472 345.176 219.12 345.92 219.96C346.664 220.776 347.228 221.748 347.612 222.876C347.996 223.98 348.188 225.168 348.188 226.44V226.872H345.164V226.44C345.14 225.624 345.008 224.832 344.768 224.064C344.552 223.296 344.204 222.624 343.724 222.048C343.268 221.448 342.68 220.98 341.96 220.644C341.24 220.284 340.364 220.104 339.332 220.104C337.388 220.104 335.924 220.812 334.94 222.228C333.98 223.644 333.5 225.504 333.5 227.808V232.992C333.5 235.464 333.98 237.372 334.94 238.716C335.924 240.036 337.388 240.696 339.332 240.696ZM353.599 217.8H368.863V220.608H356.623V228.96H368.647V231.768H356.623V240.192H369.079V243H353.599V217.8ZM388.674 236.736H377.874L376.038 243H372.798L380.43 217.8H386.118L393.75 243H390.51L388.674 236.736ZM383.058 219.096L378.702 233.928H387.846L383.49 219.096H383.058ZM396.353 240.192H398.513V220.608H396.353V217.8H406.541C407.741 217.8 408.797 217.968 409.709 218.304C410.645 218.64 411.425 219.096 412.049 219.672C412.697 220.248 413.177 220.944 413.489 221.76C413.825 222.552 413.993 223.416 413.993 224.352V224.784C413.993 225.48 413.885 226.116 413.669 226.692C413.453 227.268 413.153 227.784 412.769 228.24C412.385 228.696 411.929 229.092 411.401 229.428C410.897 229.74 410.345 229.98 409.745 230.148V230.58C410.945 230.916 411.953 231.564 412.769 232.524C413.585 233.46 413.993 234.612 413.993 235.98V236.412C413.993 237.348 413.825 238.224 413.489 239.04C413.177 239.832 412.697 240.528 412.049 241.128C411.425 241.704 410.645 242.16 409.709 242.496C408.797 242.832 407.741 243 406.541 243H396.353V240.192ZM401.537 240.192H406.325C407.741 240.192 408.893 239.844 409.781 239.148C410.669 238.428 411.113 237.444 411.113 236.196V235.98C411.113 234.684 410.693 233.664 409.853 232.92C409.013 232.152 407.873 231.768 406.433 231.768H401.537V240.192ZM401.537 228.96H406.433C407.873 228.96 409.013 228.588 409.853 227.844C410.693 227.1 411.113 226.08 411.113 224.784V224.568C411.113 223.344 410.669 222.384 409.781 221.688C408.893 220.968 407.741 220.608 406.325 220.608H401.537V228.96ZM419.476 217.8H422.5V240.192H435.676V243H419.476V217.8ZM441.771 217.8H457.035V220.608H444.795V228.96H456.819V231.768H444.795V240.192H457.251V243H441.771V217.8ZM501.373 243H498.349V234.576C498.349 233.952 498.205 233.472 497.917 233.136C497.629 232.8 497.125 232.632 496.405 232.632H488.557V243H485.533V217.8H494.533C495.829 217.8 496.957 217.992 497.917 218.376C498.877 218.736 499.669 219.228 500.293 219.852C500.941 220.476 501.421 221.208 501.733 222.048C502.069 222.864 502.237 223.728 502.237 224.64V225.72C502.237 226.656 501.973 227.592 501.445 228.528C500.941 229.464 500.149 230.184 499.069 230.688V231.12C499.789 231.24 500.353 231.528 500.761 231.984C501.169 232.44 501.373 233.088 501.373 233.928V243ZM488.557 229.824H494.173C495.877 229.824 497.137 229.464 497.953 228.744C498.793 228 499.213 226.92 499.213 225.504V224.856C499.213 223.584 498.793 222.564 497.953 221.796C497.137 221.004 495.877 220.608 494.173 220.608H488.557V229.824ZM507.9 217.8H523.164V220.608H510.924V228.96H522.948V231.768H510.924V240.192H523.38V243H507.9V217.8ZM542.975 236.736H532.175L530.339 243H527.099L534.731 217.8H540.419L548.051 243H544.811L542.975 236.736ZM537.359 219.096L533.003 233.928H542.147L537.791 219.096H537.359ZM551.23 217.8H559.51C562.63 217.8 564.91 218.544 566.35 220.032C567.79 221.52 568.51 223.896 568.51 227.16V233.64C568.51 236.904 567.79 239.28 566.35 240.768C564.91 242.256 562.63 243 559.51 243H551.23V240.156H553.39V220.608H551.23V217.8ZM559.078 240.192C560.182 240.192 561.13 240.084 561.922 239.868C562.738 239.652 563.41 239.292 563.938 238.788C564.466 238.26 564.85 237.564 565.09 236.7C565.354 235.836 565.486 234.744 565.486 233.424V227.376C565.486 226.056 565.354 224.964 565.09 224.1C564.85 223.236 564.466 222.552 563.938 222.048C563.41 221.52 562.738 221.148 561.922 220.932C561.13 220.716 560.182 220.608 559.078 220.608H556.414V240.192H559.078ZM573.669 217.8H589.653V220.608H583.173V240.192H589.653V243H573.669V240.192H580.149V220.608H573.669V217.8ZM608.636 241.704H609.068V217.8H612.092V243H606.044L598.772 219.096H598.34V243H595.316V217.8H601.364L608.636 241.704ZM623.334 230.904H634.566V243H631.758V239.976H631.326C630.918 241.032 630.198 241.884 629.166 242.532C628.134 243.18 626.934 243.504 625.566 243.504C622.854 243.504 620.718 242.628 619.158 240.876C617.622 239.124 616.854 236.568 616.854 233.208V227.592C616.854 224.328 617.634 221.796 619.194 219.996C620.754 218.196 622.926 217.296 625.71 217.296C627.15 217.296 628.422 217.536 629.526 218.016C630.63 218.472 631.554 219.12 632.298 219.96C633.042 220.776 633.606 221.748 633.99 222.876C634.374 223.98 634.566 225.168 634.566 226.44V226.872H631.542V226.44C631.542 225.624 631.422 224.832 631.182 224.064C630.966 223.296 630.618 222.624 630.138 222.048C629.682 221.448 629.082 220.98 628.338 220.644C627.618 220.284 626.742 220.104 625.71 220.104C623.766 220.104 622.302 220.812 621.318 222.228C620.358 223.644 619.878 225.504 619.878 227.808V232.992C619.878 235.464 620.358 237.372 621.318 238.716C622.302 240.036 623.79 240.696 625.782 240.696C627.582 240.696 628.986 240.12 629.994 238.968C631.026 237.816 631.542 236.208 631.542 234.144V233.712H623.334V230.904Z" fill="#FF6D7F"/>
<path d="M775.659 217.8H791.643V220.608H785.163V240.192H791.643V243H775.659V240.192H782.139V220.608H775.659V217.8ZM810.626 241.704H811.058V217.8H814.082V243H808.034L800.762 219.096H800.33V243H797.306V217.8H803.354L810.626 241.704ZM818.881 217.8H836.593V220.608H829.249V243H826.225V220.608H818.881V217.8ZM842.148 217.8H857.412V220.608H845.172V228.96H857.196V231.768H845.172V240.192H857.628V243H842.148V217.8ZM879.707 243H876.683V234.576C876.683 233.952 876.539 233.472 876.251 233.136C875.963 232.8 875.459 232.632 874.739 232.632H866.891V243H863.867V217.8H872.867C874.163 217.8 875.291 217.992 876.251 218.376C877.211 218.736 878.003 219.228 878.627 219.852C879.275 220.476 879.755 221.208 880.067 222.048C880.403 222.864 880.571 223.728 880.571 224.64V225.72C880.571 226.656 880.307 227.592 879.779 228.528C879.275 229.464 878.483 230.184 877.403 230.688V231.12C878.123 231.24 878.687 231.528 879.095 231.984C879.503 232.44 879.707 233.088 879.707 233.928V243ZM866.891 229.824H872.507C874.211 229.824 875.471 229.464 876.287 228.744C877.127 228 877.547 226.92 877.547 225.504V224.856C877.547 223.584 877.127 222.564 876.287 221.796C875.471 221.004 874.211 220.608 872.507 220.608H866.891V229.824ZM885.982 217.8H889.006V240.192H902.182V243H885.982V217.8ZM910.293 217.8V234.504C910.293 236.544 910.761 238.092 911.697 239.148C912.657 240.18 914.061 240.696 915.909 240.696C917.757 240.696 919.149 240.18 920.085 239.148C921.045 238.092 921.525 236.544 921.525 234.504V217.8H924.549V234.504C924.549 237.432 923.781 239.664 922.245 241.2C920.709 242.736 918.597 243.504 915.909 243.504C913.221 243.504 911.109 242.736 909.573 241.2C908.037 239.664 907.269 237.432 907.269 234.504V217.8H910.293ZM929.564 217.8H937.844C940.964 217.8 943.244 218.544 944.684 220.032C946.124 221.52 946.844 223.896 946.844 227.16V233.64C946.844 236.904 946.124 239.28 944.684 240.768C943.244 242.256 940.964 243 937.844 243H929.564V240.156H931.724V220.608H929.564V217.8ZM937.412 240.192C938.516 240.192 939.464 240.084 940.256 239.868C941.072 239.652 941.744 239.292 942.272 238.788C942.8 238.26 943.184 237.564 943.424 236.7C943.688 235.836 943.82 234.744 943.82 233.424V227.376C943.82 226.056 943.688 224.964 943.424 224.1C943.184 223.236 942.8 222.552 942.272 222.048C941.744 221.52 941.072 221.148 940.256 220.932C939.464 220.716 938.516 220.608 937.412 220.608H934.748V240.192H937.412ZM952.363 217.8H967.627V220.608H955.387V228.96H967.411V231.768H955.387V240.192H967.843V243H952.363V217.8ZM1011.96 243H1008.94V234.576C1008.94 233.952 1008.8 233.472 1008.51 233.136C1008.22 232.8 1007.72 232.632 1007 232.632H999.148V243H996.124V217.8H1005.12C1006.42 217.8 1007.55 217.992 1008.51 218.376C1009.47 218.736 1010.26 219.228 1010.88 219.852C1011.53 220.476 1012.01 221.208 1012.32 222.048C1012.66 222.864 1012.83 223.728 1012.83 224.64V225.72C1012.83 226.656 1012.56 227.592 1012.04 228.528C1011.53 229.464 1010.74 230.184 1009.66 230.688V231.12C1010.38 231.24 1010.94 231.528 1011.35 231.984C1011.76 232.44 1011.96 233.088 1011.96 233.928V243ZM999.148 229.824H1004.76C1006.47 229.824 1007.73 229.464 1008.54 228.744C1009.38 228 1009.8 226.92 1009.8 225.504V224.856C1009.8 223.584 1009.38 222.564 1008.54 221.796C1007.73 221.004 1006.47 220.608 1004.76 220.608H999.148V229.824ZM1018.49 217.8H1033.76V220.608H1021.52V228.96H1033.54V231.768H1021.52V240.192H1033.97V243H1018.49V217.8ZM1053.57 236.736H1042.77L1040.93 243H1037.69L1045.32 217.8H1051.01L1058.64 243H1055.4L1053.57 236.736ZM1047.95 219.096L1043.59 233.928H1052.74L1048.38 219.096H1047.95ZM1061.82 217.8H1070.1C1073.22 217.8 1075.5 218.544 1076.94 220.032C1078.38 221.52 1079.1 223.896 1079.1 227.16V233.64C1079.1 236.904 1078.38 239.28 1076.94 240.768C1075.5 242.256 1073.22 243 1070.1 243H1061.82V240.156H1063.98V220.608H1061.82V217.8ZM1069.67 240.192C1070.77 240.192 1071.72 240.084 1072.51 239.868C1073.33 239.652 1074 239.292 1074.53 238.788C1075.06 238.26 1075.44 237.564 1075.68 236.7C1075.95 235.836 1076.08 234.744 1076.08 233.424V227.376C1076.08 226.056 1075.95 224.964 1075.68 224.1C1075.44 223.236 1075.06 222.552 1074.53 222.048C1074 221.52 1073.33 221.148 1072.51 220.932C1071.72 220.716 1070.77 220.608 1069.67 220.608H1067.01V240.192H1069.67ZM1084.26 217.8H1100.24V220.608H1093.76V240.192H1100.24V243H1084.26V240.192H1090.74V220.608H1084.26V217.8ZM1119.23 241.704H1119.66V217.8H1122.68V243H1116.64L1109.36 219.096H1108.93V243H1105.91V217.8H1111.96L1119.23 241.704ZM1133.93 230.904H1145.16V243H1142.35V239.976H1141.92C1141.51 241.032 1140.79 241.884 1139.76 242.532C1138.73 243.18 1137.53 243.504 1136.16 243.504C1133.45 243.504 1131.31 242.628 1129.75 240.876C1128.21 239.124 1127.45 236.568 1127.45 233.208V227.592C1127.45 224.328 1128.23 221.796 1129.79 219.996C1131.35 218.196 1133.52 217.296 1136.3 217.296C1137.74 217.296 1139.01 217.536 1140.12 218.016C1141.22 218.472 1142.15 219.12 1142.89 219.96C1143.63 220.776 1144.2 221.748 1144.58 222.876C1144.97 223.98 1145.16 225.168 1145.16 226.44V226.872H1142.13V226.44C1142.13 225.624 1142.01 224.832 1141.77 224.064C1141.56 223.296 1141.21 222.624 1140.73 222.048C1140.27 221.448 1139.67 220.98 1138.93 220.644C1138.21 220.284 1137.33 220.104 1136.3 220.104C1134.36 220.104 1132.89 220.812 1131.91 222.228C1130.95 223.644 1130.47 225.504 1130.47 227.808V232.992C1130.47 235.464 1130.95 237.372 1131.91 238.716C1132.89 240.036 1134.38 240.696 1136.37 240.696C1138.17 240.696 1139.58 240.12 1140.59 238.968C1141.62 237.816 1142.13 236.208 1142.13 234.144V233.712H1133.93V230.904Z" fill="#FF6D7F"/>
<path d="M1306.4 217.8H1309.43V240.192H1322.6V243H1306.4V217.8ZM1327.47 227.592C1327.47 224.328 1328.25 221.796 1329.81 219.996C1331.37 218.196 1333.54 217.296 1336.33 217.296C1339.11 217.296 1341.28 218.196 1342.84 219.996C1344.4 221.796 1345.18 224.328 1345.18 227.592V233.208C1345.18 236.568 1344.4 239.124 1342.84 240.876C1341.28 242.628 1339.11 243.504 1336.33 243.504C1333.54 243.504 1331.37 242.628 1329.81 240.876C1328.25 239.124 1327.47 236.568 1327.47 233.208V227.592ZM1336.33 240.696C1338.27 240.696 1339.72 240.036 1340.68 238.716C1341.67 237.372 1342.16 235.464 1342.16 232.992V227.808C1342.16 225.504 1341.67 223.644 1340.68 222.228C1339.72 220.812 1338.27 220.104 1336.33 220.104C1334.38 220.104 1332.92 220.812 1331.94 222.228C1330.98 223.644 1330.5 225.504 1330.5 227.808V232.992C1330.5 235.464 1330.98 237.372 1331.94 238.716C1332.92 240.036 1334.38 240.696 1336.33 240.696ZM1363.3 241.704H1363.74V217.8H1366.76V243H1360.71L1353.44 219.096H1353.01V243H1349.98V217.8H1356.03L1363.3 241.704ZM1378 230.904H1389.23V243H1386.43V239.976H1385.99C1385.59 241.032 1384.87 241.884 1383.83 242.532C1382.8 243.18 1381.6 243.504 1380.23 243.504C1377.52 243.504 1375.39 242.628 1373.83 240.876C1372.29 239.124 1371.52 236.568 1371.52 233.208V227.592C1371.52 224.328 1372.3 221.796 1373.86 219.996C1375.42 218.196 1377.59 217.296 1380.38 217.296C1381.82 217.296 1383.09 217.536 1384.19 218.016C1385.3 218.472 1386.22 219.12 1386.97 219.96C1387.71 220.776 1388.27 221.748 1388.66 222.876C1389.04 223.98 1389.23 225.168 1389.23 226.44V226.872H1386.21V226.44C1386.21 225.624 1386.09 224.832 1385.85 224.064C1385.63 223.296 1385.29 222.624 1384.81 222.048C1384.35 221.448 1383.75 220.98 1383.01 220.644C1382.29 220.284 1381.41 220.104 1380.38 220.104C1378.43 220.104 1376.97 220.812 1375.99 222.228C1375.03 223.644 1374.55 225.504 1374.55 227.808V232.992C1374.55 235.464 1375.03 237.372 1375.99 238.716C1376.97 240.036 1378.46 240.696 1380.45 240.696C1382.25 240.696 1383.65 240.12 1384.66 238.968C1385.69 237.816 1386.21 236.208 1386.21 234.144V233.712H1378V230.904ZM1416.9 217.8H1432.38V220.608H1419.93V228.96H1432.17V231.768H1419.93V243H1416.9V217.8ZM1437.69 227.592C1437.69 224.328 1438.47 221.796 1440.03 219.996C1441.59 218.196 1443.76 217.296 1446.54 217.296C1449.33 217.296 1451.5 218.196 1453.06 219.996C1454.62 221.796 1455.4 224.328 1455.4 227.592V233.208C1455.4 236.568 1454.62 239.124 1453.06 240.876C1451.5 242.628 1449.33 243.504 1446.54 243.504C1443.76 243.504 1441.59 242.628 1440.03 240.876C1438.47 239.124 1437.69 236.568 1437.69 233.208V227.592ZM1446.54 240.696C1448.49 240.696 1449.94 240.036 1450.9 238.716C1451.88 237.372 1452.38 235.464 1452.38 232.992V227.808C1452.38 225.504 1451.88 223.644 1450.9 222.228C1449.94 220.812 1448.49 220.104 1446.54 220.104C1444.6 220.104 1443.14 220.812 1442.15 222.228C1441.19 223.644 1440.71 225.504 1440.71 227.808V232.992C1440.71 235.464 1441.19 237.372 1442.15 238.716C1443.14 240.036 1444.6 240.696 1446.54 240.696ZM1476.47 243H1473.45V234.576C1473.45 233.952 1473.3 233.472 1473.01 233.136C1472.73 232.8 1472.22 232.632 1471.5 232.632H1463.65V243H1460.63V217.8H1469.63C1470.93 217.8 1472.05 217.992 1473.01 218.376C1473.97 218.736 1474.77 219.228 1475.39 219.852C1476.04 220.476 1476.52 221.208 1476.83 222.048C1477.17 222.864 1477.33 223.728 1477.33 224.64V225.72C1477.33 226.656 1477.07 227.592 1476.54 228.528C1476.04 229.464 1475.25 230.184 1474.17 230.688V231.12C1474.89 231.24 1475.45 231.528 1475.86 231.984C1476.27 232.44 1476.47 233.088 1476.47 233.928V243ZM1463.65 229.824H1469.27C1470.97 229.824 1472.23 229.464 1473.05 228.744C1473.89 228 1474.31 226.92 1474.31 225.504V224.856C1474.31 223.584 1473.89 222.564 1473.05 221.796C1472.23 221.004 1470.97 220.608 1469.27 220.608H1463.65V229.824ZM1481.27 217.8H1487.03L1490.41 241.704H1490.85L1494.23 217.8H1499.99V243H1497.18V219.096H1496.75L1493.37 243H1487.89L1484.51 219.096H1484.08V243H1481.27V217.8ZM1542.6 243H1539.58V234.576C1539.58 233.952 1539.43 233.472 1539.14 233.136C1538.86 232.8 1538.35 232.632 1537.63 232.632H1529.78V243H1526.76V217.8H1535.76C1537.06 217.8 1538.18 217.992 1539.14 218.376C1540.1 218.736 1540.9 219.228 1541.52 219.852C1542.17 220.476 1542.65 221.208 1542.96 222.048C1543.3 222.864 1543.46 223.728 1543.46 224.64V225.72C1543.46 226.656 1543.2 227.592 1542.67 228.528C1542.17 229.464 1541.38 230.184 1540.3 230.688V231.12C1541.02 231.24 1541.58 231.528 1541.99 231.984C1542.4 232.44 1542.6 233.088 1542.6 233.928V243ZM1529.78 229.824H1535.4C1537.1 229.824 1538.36 229.464 1539.18 228.744C1540.02 228 1540.44 226.92 1540.44 225.504V224.856C1540.44 223.584 1540.02 222.564 1539.18 221.796C1538.36 221.004 1537.1 220.608 1535.4 220.608H1529.78V229.824ZM1549.13 217.8H1564.39V220.608H1552.15V228.96H1564.17V231.768H1552.15V240.192H1564.61V243H1549.13V217.8ZM1584.2 236.736H1573.4L1571.57 243H1568.33L1575.96 217.8H1581.65L1589.28 243H1586.04L1584.2 236.736ZM1578.59 219.096L1574.23 233.928H1583.37L1579.02 219.096H1578.59ZM1592.46 217.8H1600.74C1603.86 217.8 1606.14 218.544 1607.58 220.032C1609.02 221.52 1609.74 223.896 1609.74 227.16V233.64C1609.74 236.904 1609.02 239.28 1607.58 240.768C1606.14 242.256 1603.86 243 1600.74 243H1592.46V240.156H1594.62V220.608H1592.46V217.8ZM1600.3 240.192C1601.41 240.192 1602.36 240.084 1603.15 239.868C1603.96 239.652 1604.64 239.292 1605.16 238.788C1605.69 238.26 1606.08 237.564 1606.32 236.7C1606.58 235.836 1606.71 234.744 1606.71 233.424V227.376C1606.71 226.056 1606.58 224.964 1606.32 224.1C1606.08 223.236 1605.69 222.552 1605.16 222.048C1604.64 221.52 1603.96 221.148 1603.15 220.932C1602.36 220.716 1601.41 220.608 1600.3 220.608H1597.64V240.192H1600.3ZM1614.9 217.8H1630.88V220.608H1624.4V240.192H1630.88V243H1614.9V240.192H1621.38V220.608H1614.9V217.8ZM1649.86 241.704H1650.29V217.8H1653.32V243H1647.27L1640 219.096H1639.57V243H1636.54V217.8H1642.59L1649.86 241.704ZM1664.56 230.904H1675.79V243H1672.99V239.976H1672.55C1672.15 241.032 1671.43 241.884 1670.39 242.532C1669.36 243.18 1668.16 243.504 1666.79 243.504C1664.08 243.504 1661.95 242.628 1660.39 240.876C1658.85 239.124 1658.08 236.568 1658.08 233.208V227.592C1658.08 224.328 1658.86 221.796 1660.42 219.996C1661.98 218.196 1664.15 217.296 1666.94 217.296C1668.38 217.296 1669.65 217.536 1670.75 218.016C1671.86 218.472 1672.78 219.12 1673.53 219.96C1674.27 220.776 1674.83 221.748 1675.22 222.876C1675.6 223.98 1675.79 225.168 1675.79 226.44V226.872H1672.77V226.44C1672.77 225.624 1672.65 224.832 1672.41 224.064C1672.19 223.296 1671.85 222.624 1671.37 222.048C1670.91 221.448 1670.31 220.98 1669.57 220.644C1668.85 220.284 1667.97 220.104 1666.94 220.104C1664.99 220.104 1663.53 220.812 1662.55 222.228C1661.59 223.644 1661.11 225.504 1661.11 227.808V232.992C1661.11 235.464 1661.59 237.372 1662.55 238.716C1663.53 240.036 1665.02 240.696 1667.01 240.696C1668.81 240.696 1670.21 240.12 1671.22 238.968C1672.25 237.816 1672.77 236.208 1672.77 234.144V233.712H1664.56V230.904Z" fill="#FF6D7F"/>
</svg>
