<svg width="1920" height="1080" viewBox="0 0 1920 1080" fill="none" xmlns="http://www.w3.org/2000/svg">
<g clip-path="url(#clip0_3328_15626)">
<path d="M261.924 853.024L262.04 788.064H258.56C256.781 788.064 255.351 788.296 254.268 788.76C253.185 789.147 252.373 789.881 251.832 790.964C251.368 792.047 251.02 793.632 250.788 795.72L249.512 805.464H241.856V780.64H302.06V805.464H294.52L293.244 795.72C293.089 793.632 292.703 792.047 292.084 790.964C291.543 789.881 290.731 789.147 289.648 788.76C288.565 788.296 287.173 788.064 285.472 788.064H281.992V853.024C281.992 854.493 282.417 855.46 283.268 855.924C284.119 856.388 285.201 856.62 286.516 856.62H288.024V863H255.892V856.62H257.516C258.753 856.62 259.797 856.388 260.648 855.924C261.499 855.46 261.924 854.493 261.924 853.024ZM329.4 777.16V855.808C329.4 856.117 329.593 856.388 329.98 856.62C330.366 856.775 330.83 856.891 331.372 856.968C331.913 857.045 332.416 857.084 332.88 857.084H333.112V863H306.432V857.084H306.548C307.321 857.084 307.978 857.007 308.52 856.852C309.138 856.697 309.602 856.388 309.912 855.924C310.221 855.46 310.376 854.803 310.376 853.952V787.252C310.376 786.401 310.26 785.783 310.028 785.396C309.873 784.932 309.564 784.545 309.1 784.236C308.636 783.927 307.978 783.656 307.128 783.424L306.432 783.192V777.16H329.4ZM365.244 863H338.448V857.084H338.564C339.105 857.084 339.646 857.084 340.188 857.084C340.729 857.007 341.193 856.891 341.58 856.736C341.966 856.504 342.16 856.272 342.16 856.04V819.5C342.16 817.721 341.966 816.329 341.58 815.324C341.193 814.241 340.652 813.468 339.956 813.004C339.337 812.54 338.486 812.308 337.404 812.308C336.166 812.308 334.968 812.695 333.808 813.468C332.648 814.164 331.526 815.324 330.444 816.948C329.438 818.572 328.51 820.815 327.66 823.676V815.092C328.588 812.463 329.902 810.181 331.604 808.248C333.305 806.315 335.316 804.845 337.636 803.84C339.956 802.757 342.546 802.216 345.408 802.216C348.501 802.216 351.208 802.835 353.528 804.072C355.925 805.232 357.781 807.088 359.096 809.64C360.488 812.115 361.184 815.401 361.184 819.5V853.952C361.184 855.189 361.532 856.04 362.228 856.504C362.924 856.891 363.852 857.084 365.012 857.084H365.244V863ZM388.111 833.304C388.111 837.789 388.382 841.54 388.923 844.556C389.464 847.572 390.238 849.969 391.243 851.748C392.248 853.527 393.447 854.803 394.839 855.576C396.308 856.349 397.932 856.736 399.711 856.736C401.799 856.736 403.616 856.272 405.163 855.344C406.71 854.416 408.063 853.063 409.223 851.284C410.383 849.505 411.427 847.417 412.355 845.02L418.387 848.036C417.227 851.207 415.719 854.029 413.863 856.504C412.007 858.901 409.648 860.796 406.787 862.188C403.926 863.503 400.484 864.16 396.463 864.16C390.74 864.16 385.83 862.961 381.731 860.564C377.71 858.167 374.616 854.687 372.451 850.124C370.286 845.484 369.203 839.877 369.203 833.304C369.203 826.576 370.247 820.931 372.335 816.368C374.5 811.728 377.516 808.209 381.383 805.812C385.327 803.415 389.967 802.216 395.303 802.216C399.015 802.216 402.34 802.835 405.279 804.072C408.218 805.309 410.654 807.243 412.587 809.872C414.598 812.501 416.106 815.904 417.111 820.08C418.116 824.256 418.619 829.283 418.619 835.16H385.095V828.548H403.771L401.915 830.984C401.915 826.653 401.76 823.096 401.451 820.312C401.219 817.451 400.832 815.247 400.291 813.7C399.827 812.076 399.17 810.955 398.319 810.336C397.546 809.717 396.579 809.408 395.419 809.408C394.182 809.408 393.099 809.795 392.171 810.568C391.243 811.341 390.47 812.656 389.851 814.512C389.31 816.291 388.884 818.727 388.575 821.82C388.266 824.913 388.111 828.741 388.111 833.304ZM483.597 819.152L482.089 818.456L490.441 863H506.681L516.541 814.28C516.773 813.043 517.083 812.076 517.469 811.38C517.933 810.607 518.436 810.065 518.977 809.756C519.519 809.447 520.099 809.292 520.717 809.292H521.065V803.376H505.405V809.292H505.521C506.295 809.292 506.991 809.408 507.609 809.64C508.228 809.795 508.731 810.065 509.117 810.452C509.581 810.761 509.775 811.148 509.697 811.612L501.461 853.488L504.941 851.052L495.313 803.376H480.813L470.373 853.952L473.737 851.4L466.313 810.336C466.313 810.027 466.545 809.833 467.009 809.756C467.473 809.601 468.053 809.485 468.749 809.408C469.523 809.331 470.296 809.292 471.069 809.292H471.301V803.376H443.925V809.292H444.157C444.931 809.292 445.588 809.408 446.129 809.64C446.671 809.872 447.135 810.259 447.521 810.8C447.908 811.341 448.179 812.115 448.333 813.12L458.541 863H474.897L483.597 819.152ZM576.291 833.188C576.291 839.607 575.247 845.136 573.159 849.776C571.071 854.416 568.017 857.973 563.995 860.448C560.051 862.923 555.218 864.16 549.495 864.16C543.85 864.16 539.017 862.923 534.995 860.448C531.051 857.973 527.997 854.416 525.831 849.776C523.743 845.136 522.699 839.607 522.699 833.188C522.699 828.316 523.279 823.985 524.439 820.196C525.677 816.329 527.417 813.081 529.659 810.452C531.979 807.745 534.802 805.696 538.127 804.304C541.453 802.912 545.242 802.216 549.495 802.216C553.749 802.216 557.538 802.912 560.863 804.304C564.189 805.696 566.973 807.745 569.215 810.452C571.535 813.081 573.275 816.329 574.435 820.196C575.673 823.985 576.291 828.316 576.291 833.188ZM541.955 833.188C541.955 838.988 542.187 843.667 542.651 847.224C543.193 850.704 544.005 853.217 545.087 854.764C546.247 856.233 547.717 856.968 549.495 856.968C551.351 856.968 552.821 856.233 553.903 854.764C554.986 853.217 555.759 850.704 556.223 847.224C556.765 843.667 557.035 838.988 557.035 833.188C557.035 827.233 556.765 822.516 556.223 819.036C555.759 815.556 554.986 813.081 553.903 811.612C552.821 810.065 551.351 809.292 549.495 809.292C547.717 809.292 546.247 810.065 545.087 811.612C544.005 813.081 543.193 815.556 542.651 819.036C542.187 822.516 541.955 827.233 541.955 833.188ZM619.654 803.144V819.848C619.112 819.693 618.532 819.577 617.914 819.5C617.295 819.423 616.638 819.345 615.942 819.268C615.246 819.191 614.472 819.152 613.622 819.152C612.23 819.152 610.954 819.307 609.794 819.616C608.634 819.848 607.59 820.273 606.662 820.892C605.734 821.433 604.883 822.168 604.11 823.096C603.414 824.024 602.795 825.184 602.254 826.576L602.37 820.196C603.143 816.329 604.071 813.081 605.154 810.452C606.236 807.823 607.628 805.851 609.33 804.536C611.108 803.144 613.312 802.448 615.942 802.448C616.87 802.448 617.643 802.525 618.262 802.68C618.88 802.835 619.344 802.989 619.654 803.144ZM581.142 863V857.084H581.258C582.418 857.084 583.346 856.891 584.042 856.504C584.738 856.04 585.086 855.189 585.086 853.952V813.352C585.086 812.579 584.97 811.96 584.738 811.496C584.583 811.032 584.274 810.684 583.81 810.452C583.346 810.143 582.727 809.872 581.954 809.64L581.142 809.408V803.376H602.95V819.964L604.11 819.848L603.994 855.46C603.994 855.924 604.264 856.272 604.806 856.504C605.424 856.736 606.12 856.891 606.894 856.968C607.744 857.045 608.518 857.084 609.214 857.084H609.91V863H581.142ZM676.987 853.836C676.987 854.841 677.258 855.537 677.799 855.924C678.341 856.311 679.23 856.62 680.467 856.852L681.047 856.968V863H659.123V851.168L657.963 850.472V787.252C657.963 786.479 657.809 785.899 657.499 785.512C657.267 785.048 656.881 784.661 656.339 784.352C655.798 784.043 655.063 783.811 654.135 783.656L652.975 783.308V777.16H676.987V853.836ZM644.739 802.216C647.523 802.216 649.959 802.603 652.047 803.376C654.135 804.149 655.953 805.348 657.499 806.972C659.123 808.519 660.593 810.529 661.907 813.004L660.747 822.284C659.897 819.964 658.969 817.992 657.963 816.368C656.958 814.744 655.837 813.507 654.599 812.656C653.439 811.805 652.009 811.38 650.307 811.38C648.993 811.38 647.871 811.767 646.943 812.54C646.015 813.236 645.281 814.435 644.739 816.136C644.198 817.837 643.773 820.119 643.463 822.98C643.231 825.764 643.115 829.283 643.115 833.536C643.115 837.635 643.231 841.037 643.463 843.744C643.773 846.451 644.198 848.616 644.739 850.24C645.358 851.864 646.093 853.024 646.943 853.72C647.871 854.416 648.954 854.764 650.191 854.764C651.661 854.687 652.975 854.223 654.135 853.372C655.295 852.521 656.417 851.168 657.499 849.312C658.582 847.379 659.665 844.981 660.747 842.12L661.095 851.632C659.781 854.493 658.311 856.852 656.687 858.708C655.141 860.564 653.323 861.956 651.235 862.884C649.147 863.735 646.711 864.16 643.927 864.16C640.061 864.16 636.619 863.116 633.603 861.028C630.587 858.863 628.19 855.537 626.411 851.052C624.71 846.567 623.859 840.728 623.859 833.536C623.859 826.421 624.749 820.544 626.527 815.904C628.306 811.264 630.742 807.823 633.835 805.58C637.006 803.337 640.641 802.216 644.739 802.216ZM735.312 888.868H705.964V882.952H706.312C707.085 882.952 707.781 882.875 708.4 882.72C709.019 882.565 709.483 882.256 709.792 881.792C710.179 881.405 710.372 880.787 710.372 879.936V813.352C710.372 812.579 710.256 811.96 710.024 811.496C709.792 811.032 709.444 810.684 708.98 810.452C708.593 810.143 707.975 809.872 707.124 809.64L706.312 809.408V803.376H728.12V815.092L729.396 816.02V881.908C729.396 882.14 729.628 882.333 730.092 882.488C730.633 882.643 731.329 882.759 732.18 882.836C733.031 882.913 733.959 882.952 734.964 882.952H735.312V888.868ZM742.62 864.16C739.836 864.16 737.4 863.735 735.312 862.884C733.301 862.033 731.523 860.68 729.976 858.824C728.507 856.968 727.192 854.493 726.032 851.4L727.424 842.236C728.12 845.175 728.893 847.611 729.744 849.544C730.672 851.4 731.716 852.792 732.876 853.72C734.036 854.571 735.351 854.996 736.82 854.996C738.212 854.996 739.372 854.648 740.3 853.952C741.228 853.179 741.963 851.941 742.504 850.24C743.123 848.539 743.548 846.257 743.78 843.396C744.012 840.535 744.128 837.016 744.128 832.84C744.128 828.741 744.012 825.339 743.78 822.632C743.548 819.848 743.123 817.683 742.504 816.136C741.963 814.512 741.228 813.352 740.3 812.656C739.449 811.96 738.367 811.612 737.052 811.612C735.66 811.612 734.345 812.076 733.108 813.004C731.948 813.855 730.827 815.208 729.744 817.064C728.739 818.92 727.695 821.317 726.612 824.256L726.148 814.628C727.463 811.844 728.893 809.524 730.44 807.668C732.064 805.812 733.92 804.459 736.008 803.608C738.173 802.68 740.648 802.216 743.432 802.216C747.299 802.216 750.74 803.26 753.756 805.348C756.772 807.436 759.131 810.723 760.832 815.208C762.533 819.693 763.384 825.571 763.384 832.84C763.384 839.877 762.495 845.755 760.716 850.472C758.937 855.112 756.501 858.553 753.408 860.796C750.315 863.039 746.719 864.16 742.62 864.16ZM806.794 803.144V819.848C806.253 819.693 805.673 819.577 805.054 819.5C804.435 819.423 803.778 819.345 803.082 819.268C802.386 819.191 801.613 819.152 800.762 819.152C799.37 819.152 798.094 819.307 796.934 819.616C795.774 819.848 794.73 820.273 793.802 820.892C792.874 821.433 792.023 822.168 791.25 823.096C790.554 824.024 789.935 825.184 789.394 826.576L789.51 820.196C790.283 816.329 791.211 813.081 792.294 810.452C793.377 807.823 794.769 805.851 796.47 804.536C798.249 803.144 800.453 802.448 803.082 802.448C804.01 802.448 804.783 802.525 805.402 802.68C806.021 802.835 806.485 802.989 806.794 803.144ZM768.282 863V857.084H768.398C769.558 857.084 770.486 856.891 771.182 856.504C771.878 856.04 772.226 855.189 772.226 853.952V813.352C772.226 812.579 772.11 811.96 771.878 811.496C771.723 811.032 771.414 810.684 770.95 810.452C770.486 810.143 769.867 809.872 769.094 809.64L768.282 809.408V803.376H790.09V819.964L791.25 819.848L791.134 855.46C791.134 855.924 791.405 856.272 791.946 856.504C792.565 856.736 793.261 856.891 794.034 856.968C794.885 857.045 795.658 857.084 796.354 857.084H797.05V863H768.282ZM824.213 795.372C820.965 795.372 818.374 794.521 816.441 792.82C814.508 791.119 813.541 788.76 813.541 785.744C813.541 782.728 814.508 780.408 816.441 778.784C818.374 777.083 820.965 776.232 824.213 776.232C827.538 776.232 830.168 777.083 832.101 778.784C834.034 780.408 835.001 782.728 835.001 785.744C835.001 788.76 834.034 791.119 832.101 792.82C830.168 794.521 827.538 795.372 824.213 795.372ZM834.073 803.376V854.068C834.073 855.228 834.421 856.04 835.117 856.504C835.89 856.891 836.857 857.084 838.017 857.084H838.133V863H810.989V857.084H811.105C812.265 857.084 813.193 856.891 813.889 856.504C814.662 856.04 815.049 855.228 815.049 854.068V813.352C815.049 812.192 814.817 811.38 814.353 810.916C813.889 810.452 813.038 810.027 811.801 809.64L811.105 809.408V803.376H834.073ZM841.915 863V857.084H842.031C842.804 857.084 843.462 857.007 844.003 856.852C844.622 856.697 845.086 856.388 845.395 855.924C845.704 855.46 845.859 854.803 845.859 853.952V813.352C845.859 812.501 845.743 811.883 845.511 811.496C845.356 811.032 845.047 810.684 844.583 810.452C844.119 810.143 843.5 809.872 842.727 809.64L841.915 809.408V803.376H863.723V815.092L864.883 816.136V856.04C864.883 856.272 865.038 856.465 865.347 856.62C865.734 856.775 866.198 856.891 866.739 856.968C867.28 857.045 867.783 857.084 868.247 857.084H868.595V863H841.915ZM900.727 863H873.931V857.084H874.047C874.588 857.084 875.091 857.084 875.555 857.084C876.096 857.007 876.56 856.891 876.947 856.736C877.411 856.504 877.643 856.272 877.643 856.04V819.5C877.643 817.721 877.45 816.329 877.063 815.324C876.676 814.241 876.135 813.468 875.439 813.004C874.82 812.54 874.008 812.308 873.003 812.308C871.688 812.308 870.412 812.695 869.175 813.468C868.015 814.164 866.932 815.324 865.927 816.948C864.922 818.572 863.955 820.815 863.027 823.676L862.679 815.556C863.607 812.695 864.883 810.297 866.507 808.364C868.208 806.353 870.258 804.845 872.655 803.84C875.052 802.757 877.798 802.216 880.891 802.216C883.984 802.216 886.691 802.835 889.011 804.072C891.408 805.232 893.264 807.088 894.579 809.64C895.971 812.115 896.667 815.401 896.667 819.5V853.952C896.667 854.803 896.822 855.46 897.131 855.924C897.44 856.388 897.866 856.697 898.407 856.852C899.026 857.007 899.722 857.084 900.495 857.084H900.727V863ZM902.016 810.22V803.956H902.364C903.678 803.956 904.8 803.801 905.728 803.492C906.656 803.105 907.39 802.525 907.932 801.752C908.473 800.979 908.782 799.857 908.86 798.388L916.98 803.376H938.092V810.22H902.016ZM926.724 846.992C926.724 849.389 926.956 851.284 927.42 852.676C927.961 853.991 928.696 854.919 929.624 855.46C930.552 856.001 931.712 856.272 933.104 856.272C934.264 856.272 935.308 856.117 936.236 855.808C937.241 855.421 937.976 855.151 938.44 854.996V862.072C937.976 862.381 937.202 862.691 936.12 863C935.114 863.387 933.877 863.657 932.408 863.812C931.016 864.044 929.353 864.16 927.42 864.16C923.476 864.16 920.034 863.619 917.096 862.536C914.157 861.376 911.876 859.52 910.252 856.968C908.628 854.339 907.816 850.781 907.816 846.296V805.232L908.628 804.188L909.208 787.368H926.724V846.992ZM960.181 833.304C960.181 837.789 960.452 841.54 960.993 844.556C961.535 847.572 962.308 849.969 963.313 851.748C964.319 853.527 965.517 854.803 966.909 855.576C968.379 856.349 970.003 856.736 971.781 856.736C973.869 856.736 975.687 856.272 977.233 855.344C978.78 854.416 980.133 853.063 981.293 851.284C982.453 849.505 983.497 847.417 984.425 845.02L990.457 848.036C989.297 851.207 987.789 854.029 985.933 856.504C984.077 858.901 981.719 860.796 978.857 862.188C975.996 863.503 972.555 864.16 968.533 864.16C962.811 864.16 957.9 862.961 953.801 860.564C949.78 858.167 946.687 854.687 944.521 850.124C942.356 845.484 941.273 839.877 941.273 833.304C941.273 826.576 942.317 820.931 944.405 816.368C946.571 811.728 949.587 808.209 953.453 805.812C957.397 803.415 962.037 802.216 967.373 802.216C971.085 802.216 974.411 802.835 977.349 804.072C980.288 805.309 982.724 807.243 984.657 809.872C986.668 812.501 988.176 815.904 989.181 820.08C990.187 824.256 990.689 829.283 990.689 835.16H957.165V828.548H975.841L973.985 830.984C973.985 826.653 973.831 823.096 973.521 820.312C973.289 817.451 972.903 815.247 972.361 813.7C971.897 812.076 971.24 810.955 970.389 810.336C969.616 809.717 968.649 809.408 967.489 809.408C966.252 809.408 965.169 809.795 964.241 810.568C963.313 811.341 962.54 812.656 961.921 814.512C961.38 816.291 960.955 818.727 960.645 821.82C960.336 824.913 960.181 828.741 960.181 833.304ZM1049.23 853.836C1049.23 854.841 1049.5 855.537 1050.04 855.924C1050.58 856.311 1051.47 856.62 1052.71 856.852L1053.29 856.968V863H1031.37V851.168L1030.21 850.472V787.252C1030.21 786.479 1030.05 785.899 1029.74 785.512C1029.51 785.048 1029.12 784.661 1028.58 784.352C1028.04 784.043 1027.31 783.811 1026.38 783.656L1025.22 783.308V777.16H1049.23V853.836ZM1016.98 802.216C1019.77 802.216 1022.2 802.603 1024.29 803.376C1026.38 804.149 1028.19 805.348 1029.74 806.972C1031.37 808.519 1032.83 810.529 1034.15 813.004L1032.99 822.284C1032.14 819.964 1031.21 817.992 1030.21 816.368C1029.2 814.744 1028.08 813.507 1026.84 812.656C1025.68 811.805 1024.25 811.38 1022.55 811.38C1021.23 811.38 1020.11 811.767 1019.19 812.54C1018.26 813.236 1017.52 814.435 1016.98 816.136C1016.44 817.837 1016.01 820.119 1015.71 822.98C1015.47 825.764 1015.36 829.283 1015.36 833.536C1015.36 837.635 1015.47 841.037 1015.71 843.744C1016.01 846.451 1016.44 848.616 1016.98 850.24C1017.6 851.864 1018.33 853.024 1019.19 853.72C1020.11 854.416 1021.2 854.764 1022.43 854.764C1023.9 854.687 1025.22 854.223 1026.38 853.372C1027.54 852.521 1028.66 851.168 1029.74 849.312C1030.82 847.379 1031.91 844.981 1032.99 842.12L1033.34 851.632C1032.02 854.493 1030.55 856.852 1028.93 858.708C1027.38 860.564 1025.57 861.956 1023.48 862.884C1021.39 863.735 1018.95 864.16 1016.17 864.16C1012.3 864.16 1008.86 863.116 1005.85 861.028C1002.83 858.863 1000.43 855.537 998.654 851.052C996.952 846.567 996.102 840.728 996.102 833.536C996.102 826.421 996.991 820.544 998.77 815.904C1000.55 811.264 1002.98 807.823 1006.08 805.58C1009.25 803.337 1012.88 802.216 1016.98 802.216ZM1132.84 833.188C1132.84 839.607 1131.8 845.136 1129.71 849.776C1127.62 854.416 1124.57 857.973 1120.55 860.448C1116.6 862.923 1111.77 864.16 1106.05 864.16C1100.4 864.16 1095.57 862.923 1091.55 860.448C1087.6 857.973 1084.55 854.416 1082.38 849.776C1080.29 845.136 1079.25 839.607 1079.25 833.188C1079.25 828.316 1079.83 823.985 1080.99 820.196C1082.23 816.329 1083.97 813.081 1086.21 810.452C1088.53 807.745 1091.35 805.696 1094.68 804.304C1098 802.912 1101.79 802.216 1106.05 802.216C1110.3 802.216 1114.09 802.912 1117.41 804.304C1120.74 805.696 1123.52 807.745 1125.77 810.452C1128.09 813.081 1129.83 816.329 1130.99 820.196C1132.22 823.985 1132.84 828.316 1132.84 833.188ZM1098.51 833.188C1098.51 838.988 1098.74 843.667 1099.2 847.224C1099.74 850.704 1100.56 853.217 1101.64 854.764C1102.8 856.233 1104.27 856.968 1106.05 856.968C1107.9 856.968 1109.37 856.233 1110.45 854.764C1111.54 853.217 1112.31 850.704 1112.77 847.224C1113.32 843.667 1113.59 838.988 1113.59 833.188C1113.59 827.233 1113.32 822.516 1112.77 819.036C1112.31 815.556 1111.54 813.081 1110.45 811.612C1109.37 810.065 1107.9 809.292 1106.05 809.292C1104.27 809.292 1102.8 810.065 1101.64 811.612C1100.56 813.081 1099.74 815.556 1099.2 819.036C1098.74 822.516 1098.51 827.233 1098.51 833.188ZM1137.69 863V857.084H1137.81C1138.58 857.084 1139.24 857.007 1139.78 856.852C1140.4 856.697 1140.86 856.388 1141.17 855.924C1141.48 855.46 1141.64 854.803 1141.64 853.952V813.352C1141.64 812.501 1141.52 811.883 1141.29 811.496C1141.13 811.032 1140.82 810.684 1140.36 810.452C1139.9 810.143 1139.28 809.872 1138.5 809.64L1137.69 809.408V803.376H1159.5V815.092L1160.66 816.136V856.04C1160.66 856.272 1160.81 856.465 1161.12 856.62C1161.51 856.775 1161.97 856.891 1162.52 856.968C1163.06 857.045 1163.56 857.084 1164.02 857.084H1164.37V863H1137.69ZM1196.5 863H1169.71V857.084H1169.82C1170.37 857.084 1170.87 857.084 1171.33 857.084C1171.87 857.007 1172.34 856.891 1172.72 856.736C1173.19 856.504 1173.42 856.272 1173.42 856.04V819.5C1173.42 817.721 1173.23 816.329 1172.84 815.324C1172.45 814.241 1171.91 813.468 1171.22 813.004C1170.6 812.54 1169.79 812.308 1168.78 812.308C1167.47 812.308 1166.19 812.695 1164.95 813.468C1163.79 814.164 1162.71 815.324 1161.7 816.948C1160.7 818.572 1159.73 820.815 1158.8 823.676L1158.46 815.556C1159.38 812.695 1160.66 810.297 1162.28 808.364C1163.99 806.353 1166.03 804.845 1168.43 803.84C1170.83 802.757 1173.57 802.216 1176.67 802.216C1179.76 802.216 1182.47 802.835 1184.79 804.072C1187.19 805.232 1189.04 807.088 1190.36 809.64C1191.75 812.115 1192.44 815.401 1192.44 819.5V853.952C1192.44 854.803 1192.6 855.46 1192.91 855.924C1193.22 856.388 1193.64 856.697 1194.18 856.852C1194.8 857.007 1195.5 857.084 1196.27 857.084H1196.5V863ZM1219.66 810.22V803.956H1220C1221.32 803.956 1222.44 803.801 1223.37 803.492C1224.3 803.105 1225.03 802.525 1225.57 801.752C1226.11 800.979 1226.42 799.857 1226.5 798.388L1234.62 803.376H1255.73V810.22H1219.66ZM1244.36 846.992C1244.36 849.389 1244.6 851.284 1245.06 852.676C1245.6 853.991 1246.34 854.919 1247.26 855.46C1248.19 856.001 1249.35 856.272 1250.74 856.272C1251.9 856.272 1252.95 856.117 1253.88 855.808C1254.88 855.421 1255.62 855.151 1256.08 854.996V862.072C1255.62 862.381 1254.84 862.691 1253.76 863C1252.75 863.387 1251.52 863.657 1250.05 863.812C1248.66 864.044 1246.99 864.16 1245.06 864.16C1241.12 864.16 1237.67 863.619 1234.74 862.536C1231.8 861.376 1229.52 859.52 1227.89 856.968C1226.27 854.339 1225.46 850.781 1225.46 846.296V805.232L1226.27 804.188L1226.85 787.368H1244.36V846.992ZM1283.11 777.16V855.808C1283.11 856.117 1283.31 856.388 1283.69 856.62C1284.08 856.775 1284.55 856.891 1285.09 856.968C1285.63 857.045 1286.13 857.084 1286.59 857.084H1286.83V863H1260.15V857.084H1260.26C1261.04 857.084 1261.69 857.007 1262.23 856.852C1262.85 856.697 1263.32 856.388 1263.63 855.924C1263.94 855.46 1264.09 854.803 1264.09 853.952V787.252C1264.09 786.401 1263.97 785.783 1263.74 785.396C1263.59 784.932 1263.28 784.545 1262.81 784.236C1262.35 783.927 1261.69 783.656 1260.84 783.424L1260.15 783.192V777.16H1283.11ZM1318.96 863H1292.16V857.084H1292.28C1292.82 857.084 1293.36 857.084 1293.9 857.084C1294.44 857.007 1294.91 856.891 1295.29 856.736C1295.68 856.504 1295.87 856.272 1295.87 856.04V819.5C1295.87 817.721 1295.68 816.329 1295.29 815.324C1294.91 814.241 1294.37 813.468 1293.67 813.004C1293.05 812.54 1292.2 812.308 1291.12 812.308C1289.88 812.308 1288.68 812.695 1287.52 813.468C1286.36 814.164 1285.24 815.324 1284.16 816.948C1283.15 818.572 1282.23 820.815 1281.37 823.676V815.092C1282.3 812.463 1283.62 810.181 1285.32 808.248C1287.02 806.315 1289.03 804.845 1291.35 803.84C1293.67 802.757 1296.26 802.216 1299.12 802.216C1302.22 802.216 1304.92 802.835 1307.24 804.072C1309.64 805.232 1311.5 807.088 1312.81 809.64C1314.2 812.115 1314.9 815.401 1314.9 819.5V853.952C1314.9 855.189 1315.25 856.04 1315.94 856.504C1316.64 856.891 1317.57 857.084 1318.73 857.084H1318.96V863ZM1341.83 833.304C1341.83 837.789 1342.1 841.54 1342.64 844.556C1343.18 847.572 1343.95 849.969 1344.96 851.748C1345.96 853.527 1347.16 854.803 1348.55 855.576C1350.02 856.349 1351.65 856.736 1353.43 856.736C1355.51 856.736 1357.33 856.272 1358.88 855.344C1360.42 854.416 1361.78 853.063 1362.94 851.284C1364.1 849.505 1365.14 847.417 1366.07 845.02L1372.1 848.036C1370.94 851.207 1369.43 854.029 1367.58 856.504C1365.72 858.901 1363.36 860.796 1360.5 862.188C1357.64 863.503 1354.2 864.16 1350.18 864.16C1344.46 864.16 1339.54 862.961 1335.45 860.564C1331.42 858.167 1328.33 854.687 1326.17 850.124C1324 845.484 1322.92 839.877 1322.92 833.304C1322.92 826.576 1323.96 820.931 1326.05 816.368C1328.22 811.728 1331.23 808.209 1335.1 805.812C1339.04 803.415 1343.68 802.216 1349.02 802.216C1352.73 802.216 1356.06 802.835 1358.99 804.072C1361.93 805.309 1364.37 807.243 1366.3 809.872C1368.31 812.501 1369.82 815.904 1370.83 820.08C1371.83 824.256 1372.33 829.283 1372.33 835.16H1338.81V828.548H1357.49L1355.63 830.984C1355.63 826.653 1355.48 823.096 1355.17 820.312C1354.93 817.451 1354.55 815.247 1354.01 813.7C1353.54 812.076 1352.88 810.955 1352.03 810.336C1351.26 809.717 1350.29 809.408 1349.13 809.408C1347.9 809.408 1346.81 809.795 1345.89 810.568C1344.96 811.341 1344.18 812.656 1343.57 814.512C1343.02 816.291 1342.6 818.727 1342.29 821.82C1341.98 824.913 1341.83 828.741 1341.83 833.304ZM1427.8 888.868H1398.45V882.952H1398.8C1399.57 882.952 1400.27 882.875 1400.89 882.72C1401.51 882.565 1401.97 882.256 1402.28 881.792C1402.67 881.405 1402.86 880.787 1402.86 879.936V813.352C1402.86 812.579 1402.74 811.96 1402.51 811.496C1402.28 811.032 1401.93 810.684 1401.47 810.452C1401.08 810.143 1400.46 809.872 1399.61 809.64L1398.8 809.408V803.376H1420.61V815.092L1421.88 816.02V881.908C1421.88 882.14 1422.12 882.333 1422.58 882.488C1423.12 882.643 1423.82 882.759 1424.67 882.836C1425.52 882.913 1426.45 882.952 1427.45 882.952H1427.8V888.868ZM1435.11 864.16C1432.32 864.16 1429.89 863.735 1427.8 862.884C1425.79 862.033 1424.01 860.68 1422.46 858.824C1420.99 856.968 1419.68 854.493 1418.52 851.4L1419.91 842.236C1420.61 845.175 1421.38 847.611 1422.23 849.544C1423.16 851.4 1424.2 852.792 1425.36 853.72C1426.52 854.571 1427.84 854.996 1429.31 854.996C1430.7 854.996 1431.86 854.648 1432.79 853.952C1433.72 853.179 1434.45 851.941 1434.99 850.24C1435.61 848.539 1436.04 846.257 1436.27 843.396C1436.5 840.535 1436.62 837.016 1436.62 832.84C1436.62 828.741 1436.5 825.339 1436.27 822.632C1436.04 819.848 1435.61 817.683 1434.99 816.136C1434.45 814.512 1433.72 813.352 1432.79 812.656C1431.94 811.96 1430.85 811.612 1429.54 811.612C1428.15 811.612 1426.83 812.076 1425.6 813.004C1424.44 813.855 1423.31 815.208 1422.23 817.064C1421.23 818.92 1420.18 821.317 1419.1 824.256L1418.64 814.628C1419.95 811.844 1421.38 809.524 1422.93 807.668C1424.55 805.812 1426.41 804.459 1428.5 803.608C1430.66 802.68 1433.14 802.216 1435.92 802.216C1439.79 802.216 1443.23 803.26 1446.24 805.348C1449.26 807.436 1451.62 810.723 1453.32 815.208C1455.02 819.693 1455.87 825.571 1455.87 832.84C1455.87 839.877 1454.98 845.755 1453.2 850.472C1451.43 855.112 1448.99 858.553 1445.9 860.796C1442.8 863.039 1439.21 864.16 1435.11 864.16ZM1491.63 827.272V833.072C1489.62 833.381 1487.84 833.807 1486.3 834.348C1484.83 834.889 1483.51 835.547 1482.35 836.32C1481.27 837.093 1480.38 838.021 1479.68 839.104C1479.07 840.187 1478.6 841.463 1478.29 842.932C1477.98 844.324 1477.83 845.909 1477.83 847.688C1477.83 849.699 1478.06 851.323 1478.52 852.56C1478.99 853.72 1479.61 854.571 1480.38 855.112C1481.15 855.576 1482.04 855.808 1483.05 855.808C1484.29 855.808 1485.41 855.421 1486.41 854.648C1487.49 853.797 1488.42 852.56 1489.2 850.936C1490.05 849.235 1490.82 847.224 1491.52 844.904L1492.44 851.516C1491.52 854.377 1490.28 856.736 1488.73 858.592C1487.19 860.448 1485.33 861.84 1483.16 862.768C1481.08 863.696 1478.72 864.16 1476.09 864.16C1472.69 864.16 1469.79 863.58 1467.39 862.42C1465.07 861.183 1463.29 859.404 1462.05 857.084C1460.89 854.764 1460.31 851.941 1460.31 848.616C1460.31 845.445 1460.93 842.7 1462.17 840.38C1463.41 838.06 1465.3 836.088 1467.85 834.464C1470.4 832.84 1473.65 831.448 1477.6 830.288C1481.54 829.128 1486.22 828.123 1491.63 827.272ZM1490.94 863V852.096L1489.78 851.98V818.456C1489.78 816.136 1489.54 814.319 1489.08 813.004C1488.62 811.612 1487.92 810.645 1486.99 810.104C1486.06 809.563 1484.83 809.292 1483.28 809.292C1481.19 809.292 1479.49 809.756 1478.18 810.684C1476.86 811.535 1475.78 812.656 1474.93 814.048C1474.54 813.507 1474.31 812.965 1474.23 812.424C1474.23 811.805 1474.39 811.225 1474.7 810.684C1475.08 810.065 1475.55 809.563 1476.09 809.176C1476.71 808.789 1477.4 808.519 1478.18 808.364V821.24H1463.33V809.408C1464.49 808.325 1466.07 807.243 1468.08 806.16C1470.09 805 1472.57 804.072 1475.51 803.376C1478.45 802.603 1481.85 802.216 1485.72 802.216C1489.12 802.216 1492.21 802.564 1495 803.26C1497.86 803.879 1500.29 804.923 1502.3 806.392C1504.39 807.784 1505.98 809.64 1507.06 811.96C1508.14 814.203 1508.68 816.871 1508.68 819.964V853.488C1508.68 854.339 1508.8 854.996 1509.03 855.46C1509.26 855.847 1509.65 856.156 1510.19 856.388C1510.73 856.62 1511.35 856.775 1512.05 856.852L1512.74 856.968V863H1490.94ZM1544.71 888.868H1515.36V882.952H1515.71C1516.48 882.952 1517.18 882.875 1517.79 882.72C1518.41 882.565 1518.88 882.256 1519.19 881.792C1519.57 881.405 1519.77 880.787 1519.77 879.936V813.352C1519.77 812.579 1519.65 811.96 1519.42 811.496C1519.19 811.032 1518.84 810.684 1518.37 810.452C1517.99 810.143 1517.37 809.872 1516.52 809.64L1515.71 809.408V803.376H1537.51V815.092L1538.79 816.02V881.908C1538.79 882.14 1539.02 882.333 1539.49 882.488C1540.03 882.643 1540.72 882.759 1541.57 882.836C1542.43 882.913 1543.35 882.952 1544.36 882.952H1544.71V888.868ZM1552.01 864.16C1549.23 864.16 1546.79 863.735 1544.71 862.884C1542.7 862.033 1540.92 860.68 1539.37 858.824C1537.9 856.968 1536.59 854.493 1535.43 851.4L1536.82 842.236C1537.51 845.175 1538.29 847.611 1539.14 849.544C1540.07 851.4 1541.11 852.792 1542.27 853.72C1543.43 854.571 1544.75 854.996 1546.21 854.996C1547.61 854.996 1548.77 854.648 1549.69 853.952C1550.62 853.179 1551.36 851.941 1551.9 850.24C1552.52 848.539 1552.94 846.257 1553.17 843.396C1553.41 840.535 1553.52 837.016 1553.52 832.84C1553.52 828.741 1553.41 825.339 1553.17 822.632C1552.94 819.848 1552.52 817.683 1551.9 816.136C1551.36 814.512 1550.62 813.352 1549.69 812.656C1548.84 811.96 1547.76 811.612 1546.45 811.612C1545.05 811.612 1543.74 812.076 1542.5 813.004C1541.34 813.855 1540.22 815.208 1539.14 817.064C1538.13 818.92 1537.09 821.317 1536.01 824.256L1535.54 814.628C1536.86 811.844 1538.29 809.524 1539.83 807.668C1541.46 805.812 1543.31 804.459 1545.4 803.608C1547.57 802.68 1550.04 802.216 1552.83 802.216C1556.69 802.216 1560.13 803.26 1563.15 805.348C1566.17 807.436 1568.53 810.723 1570.23 815.208C1571.93 819.693 1572.78 825.571 1572.78 832.84C1572.78 839.877 1571.89 845.755 1570.11 850.472C1568.33 855.112 1565.9 858.553 1562.8 860.796C1559.71 863.039 1556.11 864.16 1552.01 864.16ZM1597.16 833.304C1597.16 837.789 1597.43 841.54 1597.97 844.556C1598.52 847.572 1599.29 849.969 1600.29 851.748C1601.3 853.527 1602.5 854.803 1603.89 855.576C1605.36 856.349 1606.98 856.736 1608.76 856.736C1610.85 856.736 1612.67 856.272 1614.21 855.344C1615.76 854.416 1617.11 853.063 1618.27 851.284C1619.43 849.505 1620.48 847.417 1621.41 845.02L1627.44 848.036C1626.28 851.207 1624.77 854.029 1622.91 856.504C1621.06 858.901 1618.7 860.796 1615.84 862.188C1612.98 863.503 1609.54 864.16 1605.51 864.16C1599.79 864.16 1594.88 862.961 1590.78 860.564C1586.76 858.167 1583.67 854.687 1581.5 850.124C1579.34 845.484 1578.25 839.877 1578.25 833.304C1578.25 826.576 1579.3 820.931 1581.39 816.368C1583.55 811.728 1586.57 808.209 1590.43 805.812C1594.38 803.415 1599.02 802.216 1604.35 802.216C1608.07 802.216 1611.39 802.835 1614.33 804.072C1617.27 805.309 1619.7 807.243 1621.64 809.872C1623.65 812.501 1625.16 815.904 1626.16 820.08C1627.17 824.256 1627.67 829.283 1627.67 835.16H1594.15V828.548H1612.82L1610.97 830.984C1610.97 826.653 1610.81 823.096 1610.5 820.312C1610.27 817.451 1609.88 815.247 1609.34 813.7C1608.88 812.076 1608.22 810.955 1607.37 810.336C1606.6 809.717 1605.63 809.408 1604.47 809.408C1603.23 809.408 1602.15 809.795 1601.22 810.568C1600.29 811.341 1599.52 812.656 1598.9 814.512C1598.36 816.291 1597.94 818.727 1597.63 821.82C1597.32 824.913 1597.16 828.741 1597.16 833.304ZM1671.02 803.144V819.848C1670.48 819.693 1669.9 819.577 1669.28 819.5C1668.66 819.423 1668 819.345 1667.3 819.268C1666.61 819.191 1665.84 819.152 1664.98 819.152C1663.59 819.152 1662.32 819.307 1661.16 819.616C1660 819.848 1658.95 820.273 1658.02 820.892C1657.1 821.433 1656.25 822.168 1655.47 823.096C1654.78 824.024 1654.16 825.184 1653.62 826.576L1653.73 820.196C1654.51 816.329 1655.43 813.081 1656.52 810.452C1657.6 807.823 1658.99 805.851 1660.69 804.536C1662.47 803.144 1664.68 802.448 1667.3 802.448C1668.23 802.448 1669.01 802.525 1669.62 802.68C1670.24 802.835 1670.71 802.989 1671.02 803.144ZM1632.5 863V857.084H1632.62C1633.78 857.084 1634.71 856.891 1635.4 856.504C1636.1 856.04 1636.45 855.189 1636.45 853.952V813.352C1636.45 812.579 1636.33 811.96 1636.1 811.496C1635.95 811.032 1635.64 810.684 1635.17 810.452C1634.71 810.143 1634.09 809.872 1633.32 809.64L1632.5 809.408V803.376H1654.31V819.964L1655.47 819.848L1655.36 855.46C1655.36 855.924 1655.63 856.272 1656.17 856.504C1656.79 856.736 1657.48 856.891 1658.26 856.968C1659.11 857.045 1659.88 857.084 1660.58 857.084H1661.27V863H1632.5Z" fill="#3C4043"/>
<path d="M263.416 641.736H252.616L250.78 648H247.54L255.172 622.8H260.86L268.492 648H265.252L263.416 641.736ZM257.8 624.096L253.444 638.928H262.588L258.232 624.096H257.8ZM287.943 648H284.919V639.576C284.919 638.952 284.775 638.472 284.487 638.136C284.199 637.8 283.695 637.632 282.975 637.632H275.127V648H272.103V622.8H281.103C282.399 622.8 283.527 622.992 284.487 623.376C285.447 623.736 286.239 624.228 286.863 624.852C287.511 625.476 287.991 626.208 288.303 627.048C288.639 627.864 288.807 628.728 288.807 629.64V630.72C288.807 631.656 288.543 632.592 288.015 633.528C287.511 634.464 286.719 635.184 285.639 635.688V636.12C286.359 636.24 286.923 636.528 287.331 636.984C287.739 637.44 287.943 638.088 287.943 638.928V648ZM275.127 634.824H280.743C282.447 634.824 283.707 634.464 284.523 633.744C285.363 633 285.783 631.92 285.783 630.504V629.856C285.783 628.584 285.363 627.564 284.523 626.796C283.707 626.004 282.447 625.608 280.743 625.608H275.127V634.824ZM293.246 622.8H310.958V625.608H303.614V648H300.59V625.608H293.246V622.8ZM316.153 622.8H332.137V625.608H325.657V645.192H332.137V648H316.153V645.192H322.633V625.608H316.153V622.8ZM346.332 645.696C347.364 645.696 348.24 645.528 348.96 645.192C349.704 644.832 350.304 644.364 350.76 643.788C351.24 643.188 351.588 642.516 351.804 641.772C352.044 641.004 352.164 640.2 352.164 639.36V638.928H355.188V639.36C355.188 640.632 354.996 641.832 354.612 642.96C354.228 644.064 353.664 645.036 352.92 645.876C352.176 646.692 351.252 647.34 350.148 647.82C349.044 648.276 347.772 648.504 346.332 648.504C343.548 648.504 341.376 647.628 339.816 645.876C338.256 644.124 337.476 641.568 337.476 638.208V632.592C337.476 629.328 338.256 626.796 339.816 624.996C341.376 623.196 343.548 622.296 346.332 622.296C347.772 622.296 349.044 622.536 350.148 623.016C351.252 623.472 352.176 624.12 352.92 624.96C353.664 625.776 354.228 626.748 354.612 627.876C354.996 628.98 355.188 630.168 355.188 631.44V631.872H352.164V631.44C352.14 630.624 352.008 629.832 351.768 629.064C351.552 628.296 351.204 627.624 350.724 627.048C350.268 626.448 349.68 625.98 348.96 625.644C348.24 625.284 347.364 625.104 346.332 625.104C344.388 625.104 342.924 625.812 341.94 627.228C340.98 628.644 340.5 630.504 340.5 632.808V637.992C340.5 640.464 340.98 642.372 341.94 643.716C342.924 645.036 344.388 645.696 346.332 645.696ZM360.347 622.8H363.371V645.192H376.547V648H360.347V622.8ZM382.642 622.8H397.906V625.608H385.666V633.96H397.69V636.768H385.666V645.192H398.122V648H382.642V622.8Z" fill="#FF6D7F"/>
<path d="M337.948 484.704H338.38V460.8H341.404V486H335.356L328.084 462.096H327.652V486H324.628V460.8H330.676L337.948 484.704ZM346.203 470.592C346.203 467.328 346.983 464.796 348.543 462.996C350.103 461.196 352.275 460.296 355.059 460.296C357.843 460.296 360.015 461.196 361.575 462.996C363.135 464.796 363.915 467.328 363.915 470.592V476.208C363.915 479.568 363.135 482.124 361.575 483.876C360.015 485.628 357.843 486.504 355.059 486.504C352.275 486.504 350.103 485.628 348.543 483.876C346.983 482.124 346.203 479.568 346.203 476.208V470.592ZM355.059 483.696C357.003 483.696 358.455 483.036 359.415 481.716C360.399 480.372 360.891 478.464 360.891 475.992V470.808C360.891 468.504 360.399 466.644 359.415 465.228C358.455 463.812 357.003 463.104 355.059 463.104C353.115 463.104 351.651 463.812 350.667 465.228C349.707 466.644 349.227 468.504 349.227 470.808V475.992C349.227 478.464 349.707 480.372 350.667 481.716C351.651 483.036 353.115 483.696 355.059 483.696ZM371.486 460.8V477.504C371.486 479.544 371.954 481.092 372.89 482.148C373.85 483.18 375.254 483.696 377.102 483.696C378.95 483.696 380.342 483.18 381.278 482.148C382.238 481.092 382.718 479.544 382.718 477.504V460.8H385.742V477.504C385.742 480.432 384.974 482.664 383.438 484.2C381.902 485.736 379.79 486.504 377.102 486.504C374.414 486.504 372.302 485.736 370.766 484.2C369.23 482.664 368.462 480.432 368.462 477.504V460.8H371.486ZM404.077 484.704H404.509V460.8H407.533V486H401.485L394.213 462.096H393.781V486H390.757V460.8H396.805L404.077 484.704ZM438.299 475.632V486H435.275V460.8H444.275C445.571 460.8 446.699 460.992 447.659 461.376C448.619 461.736 449.411 462.228 450.035 462.852C450.683 463.476 451.163 464.208 451.475 465.048C451.811 465.864 451.979 466.728 451.979 467.64V468.72C451.979 469.632 451.811 470.508 451.475 471.348C451.163 472.188 450.683 472.932 450.035 473.58C449.387 474.204 448.583 474.708 447.623 475.092C446.663 475.452 445.547 475.632 444.275 475.632H438.299ZM438.299 472.824H443.915C447.275 472.824 448.955 471.384 448.955 468.504V467.856C448.955 466.584 448.535 465.564 447.695 464.796C446.879 464.004 445.619 463.608 443.915 463.608H438.299V472.824ZM456.886 460.8H459.91V471.96H470.638V460.8H473.662V486H470.638V474.768H459.91V486H456.886V460.8ZM495.201 486H492.177V477.576C492.177 476.952 492.033 476.472 491.745 476.136C491.457 475.8 490.953 475.632 490.233 475.632H482.385V486H479.361V460.8H488.361C489.657 460.8 490.785 460.992 491.745 461.376C492.705 461.736 493.497 462.228 494.121 462.852C494.769 463.476 495.249 464.208 495.561 465.048C495.897 465.864 496.065 466.728 496.065 467.64V468.72C496.065 469.656 495.801 470.592 495.273 471.528C494.769 472.464 493.977 473.184 492.897 473.688V474.12C493.617 474.24 494.181 474.528 494.589 474.984C494.997 475.44 495.201 476.088 495.201 476.928V486ZM482.385 472.824H488.001C489.705 472.824 490.965 472.464 491.781 471.744C492.621 471 493.041 469.92 493.041 468.504V467.856C493.041 466.584 492.621 465.564 491.781 464.796C490.965 464.004 489.705 463.608 488.001 463.608H482.385V472.824ZM514.76 479.736H503.96L502.124 486H498.884L506.516 460.8H512.204L519.836 486H516.596L514.76 479.736ZM509.144 462.096L504.788 476.928H513.932L509.576 462.096H509.144ZM537.343 468.072C537.343 467.256 537.175 466.536 536.839 465.912C536.527 465.288 536.095 464.772 535.543 464.364C534.991 463.956 534.355 463.644 533.635 463.428C532.915 463.212 532.159 463.104 531.367 463.104C530.671 463.104 530.011 463.2 529.387 463.392C528.763 463.56 528.199 463.812 527.695 464.148C527.215 464.484 526.831 464.904 526.543 465.408C526.255 465.888 526.111 466.452 526.111 467.1V467.316C526.111 468.012 526.255 468.612 526.543 469.116C526.831 469.596 527.251 470.016 527.803 470.376C528.379 470.712 529.087 471 529.927 471.24C530.767 471.456 531.751 471.648 532.879 471.816C535.519 472.224 537.463 473.004 538.711 474.156C539.959 475.284 540.583 476.808 540.583 478.728V479.16C540.583 480.24 540.391 481.236 540.007 482.148C539.647 483.036 539.095 483.804 538.351 484.452C537.631 485.1 536.731 485.604 535.651 485.964C534.571 486.324 533.323 486.504 531.907 486.504C530.299 486.504 528.871 486.276 527.623 485.82C526.399 485.34 525.367 484.692 524.527 483.876C523.711 483.036 523.087 482.064 522.655 480.96C522.223 479.832 522.007 478.608 522.007 477.288V476.208H525.031V477.072C525.031 479.28 525.631 480.936 526.831 482.04C528.055 483.144 529.747 483.696 531.907 483.696C533.779 483.696 535.183 483.288 536.119 482.472C537.079 481.632 537.559 480.528 537.559 479.16V478.944C537.559 477.624 537.067 476.616 536.083 475.92C535.123 475.224 533.551 474.72 531.367 474.408C530.095 474.24 528.943 473.988 527.911 473.652C526.903 473.292 526.039 472.836 525.319 472.284C524.599 471.708 524.047 471.024 523.663 470.232C523.279 469.44 523.087 468.504 523.087 467.424V466.992C523.087 466.008 523.291 465.108 523.699 464.292C524.107 463.476 524.671 462.768 525.391 462.168C526.135 461.568 527.011 461.112 528.019 460.8C529.051 460.464 530.179 460.296 531.403 460.296C532.819 460.296 534.079 460.5 535.183 460.908C536.311 461.316 537.259 461.868 538.027 462.564C538.795 463.236 539.371 464.04 539.755 464.976C540.163 465.888 540.367 466.848 540.367 467.856V469.368H537.343V468.072ZM545.814 460.8H561.078V463.608H548.838V471.96H560.862V474.768H548.838V483.192H561.294V486H545.814V460.8Z" fill="#FF6D7F"/>
<path d="M1300.95 484.704H1301.38V460.8H1304.4V486H1298.36L1291.08 462.096H1290.65V486H1287.63V460.8H1293.68L1300.95 484.704ZM1309.2 470.592C1309.2 467.328 1309.98 464.796 1311.54 462.996C1313.1 461.196 1315.27 460.296 1318.06 460.296C1320.84 460.296 1323.01 461.196 1324.57 462.996C1326.13 464.796 1326.91 467.328 1326.91 470.592V476.208C1326.91 479.568 1326.13 482.124 1324.57 483.876C1323.01 485.628 1320.84 486.504 1318.06 486.504C1315.27 486.504 1313.1 485.628 1311.54 483.876C1309.98 482.124 1309.2 479.568 1309.2 476.208V470.592ZM1318.06 483.696C1320 483.696 1321.45 483.036 1322.41 481.716C1323.4 480.372 1323.89 478.464 1323.89 475.992V470.808C1323.89 468.504 1323.4 466.644 1322.41 465.228C1321.45 463.812 1320 463.104 1318.06 463.104C1316.11 463.104 1314.65 463.812 1313.67 465.228C1312.71 466.644 1312.23 468.504 1312.23 470.808V475.992C1312.23 478.464 1312.71 480.372 1313.67 481.716C1314.65 483.036 1316.11 483.696 1318.06 483.696ZM1334.49 460.8V477.504C1334.49 479.544 1334.95 481.092 1335.89 482.148C1336.85 483.18 1338.25 483.696 1340.1 483.696C1341.95 483.696 1343.34 483.18 1344.28 482.148C1345.24 481.092 1345.72 479.544 1345.72 477.504V460.8H1348.74V477.504C1348.74 480.432 1347.97 482.664 1346.44 484.2C1344.9 485.736 1342.79 486.504 1340.1 486.504C1337.41 486.504 1335.3 485.736 1333.77 484.2C1332.23 482.664 1331.46 480.432 1331.46 477.504V460.8H1334.49ZM1367.08 484.704H1367.51V460.8H1370.53V486H1364.48L1357.21 462.096H1356.78V486H1353.76V460.8H1359.8L1367.08 484.704ZM1401.3 475.632V486H1398.27V460.8H1407.27C1408.57 460.8 1409.7 460.992 1410.66 461.376C1411.62 461.736 1412.41 462.228 1413.03 462.852C1413.68 463.476 1414.16 464.208 1414.47 465.048C1414.81 465.864 1414.98 466.728 1414.98 467.64V468.72C1414.98 469.632 1414.81 470.508 1414.47 471.348C1414.16 472.188 1413.68 472.932 1413.03 473.58C1412.39 474.204 1411.58 474.708 1410.62 475.092C1409.66 475.452 1408.55 475.632 1407.27 475.632H1401.3ZM1401.3 472.824H1406.91C1410.27 472.824 1411.95 471.384 1411.95 468.504V467.856C1411.95 466.584 1411.53 465.564 1410.69 464.796C1409.88 464.004 1408.62 463.608 1406.91 463.608H1401.3V472.824ZM1419.89 460.8H1422.91V471.96H1433.64V460.8H1436.66V486H1433.64V474.768H1422.91V486H1419.89V460.8ZM1458.2 486H1455.18V477.576C1455.18 476.952 1455.03 476.472 1454.74 476.136C1454.46 475.8 1453.95 475.632 1453.23 475.632H1445.38V486H1442.36V460.8H1451.36C1452.66 460.8 1453.78 460.992 1454.74 461.376C1455.7 461.736 1456.5 462.228 1457.12 462.852C1457.77 463.476 1458.25 464.208 1458.56 465.048C1458.9 465.864 1459.06 466.728 1459.06 467.64V468.72C1459.06 469.656 1458.8 470.592 1458.27 471.528C1457.77 472.464 1456.98 473.184 1455.9 473.688V474.12C1456.62 474.24 1457.18 474.528 1457.59 474.984C1458 475.44 1458.2 476.088 1458.2 476.928V486ZM1445.38 472.824H1451C1452.7 472.824 1453.96 472.464 1454.78 471.744C1455.62 471 1456.04 469.92 1456.04 468.504V467.856C1456.04 466.584 1455.62 465.564 1454.78 464.796C1453.96 464.004 1452.7 463.608 1451 463.608H1445.38V472.824ZM1477.76 479.736H1466.96L1465.12 486H1461.88L1469.52 460.8H1475.2L1482.84 486H1479.6L1477.76 479.736ZM1472.14 462.096L1467.79 476.928H1476.93L1472.58 462.096H1472.14ZM1500.34 468.072C1500.34 467.256 1500.17 466.536 1499.84 465.912C1499.53 465.288 1499.09 464.772 1498.54 464.364C1497.99 463.956 1497.35 463.644 1496.63 463.428C1495.91 463.212 1495.16 463.104 1494.37 463.104C1493.67 463.104 1493.01 463.2 1492.39 463.392C1491.76 463.56 1491.2 463.812 1490.69 464.148C1490.21 464.484 1489.83 464.904 1489.54 465.408C1489.25 465.888 1489.11 466.452 1489.11 467.1V467.316C1489.11 468.012 1489.25 468.612 1489.54 469.116C1489.83 469.596 1490.25 470.016 1490.8 470.376C1491.38 470.712 1492.09 471 1492.93 471.24C1493.77 471.456 1494.75 471.648 1495.88 471.816C1498.52 472.224 1500.46 473.004 1501.71 474.156C1502.96 475.284 1503.58 476.808 1503.58 478.728V479.16C1503.58 480.24 1503.39 481.236 1503.01 482.148C1502.65 483.036 1502.09 483.804 1501.35 484.452C1500.63 485.1 1499.73 485.604 1498.65 485.964C1497.57 486.324 1496.32 486.504 1494.91 486.504C1493.3 486.504 1491.87 486.276 1490.62 485.82C1489.4 485.34 1488.37 484.692 1487.53 483.876C1486.71 483.036 1486.09 482.064 1485.65 480.96C1485.22 479.832 1485.01 478.608 1485.01 477.288V476.208H1488.03V477.072C1488.03 479.28 1488.63 480.936 1489.83 482.04C1491.05 483.144 1492.75 483.696 1494.91 483.696C1496.78 483.696 1498.18 483.288 1499.12 482.472C1500.08 481.632 1500.56 480.528 1500.56 479.16V478.944C1500.56 477.624 1500.07 476.616 1499.08 475.92C1498.12 475.224 1496.55 474.72 1494.37 474.408C1493.09 474.24 1491.94 473.988 1490.91 473.652C1489.9 473.292 1489.04 472.836 1488.32 472.284C1487.6 471.708 1487.05 471.024 1486.66 470.232C1486.28 469.44 1486.09 468.504 1486.09 467.424V466.992C1486.09 466.008 1486.29 465.108 1486.7 464.292C1487.11 463.476 1487.67 462.768 1488.39 462.168C1489.13 461.568 1490.01 461.112 1491.02 460.8C1492.05 460.464 1493.18 460.296 1494.4 460.296C1495.82 460.296 1497.08 460.5 1498.18 460.908C1499.31 461.316 1500.26 461.868 1501.03 462.564C1501.79 463.236 1502.37 464.04 1502.75 464.976C1503.16 465.888 1503.37 466.848 1503.37 467.856V469.368H1500.34V468.072ZM1508.81 460.8H1524.08V463.608H1511.84V471.96H1523.86V474.768H1511.84V483.192H1524.29V486H1508.81V460.8Z" fill="#FF6D7F"/>
<path d="M1137.31 313.632V324H1134.29V298.8H1143.29C1144.58 298.8 1145.71 298.992 1146.67 299.376C1147.63 299.736 1148.42 300.228 1149.05 300.852C1149.69 301.476 1150.17 302.208 1150.49 303.048C1150.82 303.864 1150.99 304.728 1150.99 305.64V306.72C1150.99 307.632 1150.82 308.508 1150.49 309.348C1150.17 310.188 1149.69 310.932 1149.05 311.58C1148.4 312.204 1147.59 312.708 1146.63 313.092C1145.67 313.452 1144.56 313.632 1143.29 313.632H1137.31ZM1137.31 310.824H1142.93C1146.29 310.824 1147.97 309.384 1147.97 306.504V305.856C1147.97 304.584 1147.55 303.564 1146.71 302.796C1145.89 302.004 1144.63 301.608 1142.93 301.608H1137.31V310.824ZM1172.17 324H1169.15V315.576C1169.15 314.952 1169 314.472 1168.71 314.136C1168.43 313.8 1167.92 313.632 1167.2 313.632H1159.35V324H1156.33V298.8H1165.33C1166.63 298.8 1167.75 298.992 1168.71 299.376C1169.67 299.736 1170.47 300.228 1171.09 300.852C1171.74 301.476 1172.22 302.208 1172.53 303.048C1172.87 303.864 1173.03 304.728 1173.03 305.64V306.72C1173.03 307.656 1172.77 308.592 1172.24 309.528C1171.74 310.464 1170.95 311.184 1169.87 311.688V312.12C1170.59 312.24 1171.15 312.528 1171.56 312.984C1171.97 313.44 1172.17 314.088 1172.17 314.928V324ZM1159.35 310.824H1164.97C1166.67 310.824 1167.93 310.464 1168.75 309.744C1169.59 309 1170.01 307.92 1170.01 306.504V305.856C1170.01 304.584 1169.59 303.564 1168.75 302.796C1167.93 302.004 1166.67 301.608 1164.97 301.608H1159.35V310.824ZM1178.7 298.8H1193.96V301.608H1181.72V309.96H1193.74V312.768H1181.72V321.192H1194.18V324H1178.7V298.8ZM1203.44 313.632V324H1200.42V298.8H1209.42C1210.71 298.8 1211.84 298.992 1212.8 299.376C1213.76 299.736 1214.55 300.228 1215.18 300.852C1215.82 301.476 1216.3 302.208 1216.62 303.048C1216.95 303.864 1217.12 304.728 1217.12 305.64V306.72C1217.12 307.632 1216.95 308.508 1216.62 309.348C1216.3 310.188 1215.82 310.932 1215.18 311.58C1214.53 312.204 1213.72 312.708 1212.76 313.092C1211.8 313.452 1210.69 313.632 1209.42 313.632H1203.44ZM1203.44 310.824H1209.06C1212.42 310.824 1214.1 309.384 1214.1 306.504V305.856C1214.1 304.584 1213.68 303.564 1212.84 302.796C1212.02 302.004 1210.76 301.608 1209.06 301.608H1203.44V310.824ZM1221.56 308.592C1221.56 305.328 1222.34 302.796 1223.9 300.996C1225.46 299.196 1227.63 298.296 1230.41 298.296C1233.2 298.296 1235.37 299.196 1236.93 300.996C1238.49 302.796 1239.27 305.328 1239.27 308.592V314.208C1239.27 317.568 1238.49 320.124 1236.93 321.876C1235.37 323.628 1233.2 324.504 1230.41 324.504C1227.63 324.504 1225.46 323.628 1223.9 321.876C1222.34 320.124 1221.56 317.568 1221.56 314.208V308.592ZM1230.41 321.696C1232.36 321.696 1233.81 321.036 1234.77 319.716C1235.75 318.372 1236.25 316.464 1236.25 313.992V308.808C1236.25 306.504 1235.75 304.644 1234.77 303.228C1233.81 301.812 1232.36 301.104 1230.41 301.104C1228.47 301.104 1227.01 301.812 1226.02 303.228C1225.06 304.644 1224.58 306.504 1224.58 308.808V313.992C1224.58 316.464 1225.06 318.372 1226.02 319.716C1227.01 321.036 1228.47 321.696 1230.41 321.696ZM1258.4 306.072C1258.4 305.256 1258.23 304.536 1257.89 303.912C1257.58 303.288 1257.15 302.772 1256.6 302.364C1256.05 301.956 1255.41 301.644 1254.69 301.428C1253.97 301.212 1253.21 301.104 1252.42 301.104C1251.73 301.104 1251.07 301.2 1250.44 301.392C1249.82 301.56 1249.25 301.812 1248.75 302.148C1248.27 302.484 1247.89 302.904 1247.6 303.408C1247.31 303.888 1247.17 304.452 1247.17 305.1V305.316C1247.17 306.012 1247.31 306.612 1247.6 307.116C1247.89 307.596 1248.31 308.016 1248.86 308.376C1249.43 308.712 1250.14 309 1250.98 309.24C1251.82 309.456 1252.81 309.648 1253.93 309.816C1256.57 310.224 1258.52 311.004 1259.77 312.156C1261.01 313.284 1261.64 314.808 1261.64 316.728V317.16C1261.64 318.24 1261.45 319.236 1261.06 320.148C1260.7 321.036 1260.15 321.804 1259.41 322.452C1258.69 323.1 1257.79 323.604 1256.71 323.964C1255.63 324.324 1254.38 324.504 1252.96 324.504C1251.35 324.504 1249.93 324.276 1248.68 323.82C1247.45 323.34 1246.42 322.692 1245.58 321.876C1244.77 321.036 1244.14 320.064 1243.71 318.96C1243.28 317.832 1243.06 316.608 1243.06 315.288V314.208H1246.09V315.072C1246.09 317.28 1246.69 318.936 1247.89 320.04C1249.11 321.144 1250.8 321.696 1252.96 321.696C1254.83 321.696 1256.24 321.288 1257.17 320.472C1258.13 319.632 1258.61 318.528 1258.61 317.16V316.944C1258.61 315.624 1258.12 314.616 1257.14 313.92C1256.18 313.224 1254.61 312.72 1252.42 312.408C1251.15 312.24 1250 311.988 1248.97 311.652C1247.96 311.292 1247.09 310.836 1246.37 310.284C1245.65 309.708 1245.1 309.024 1244.72 308.232C1244.33 307.44 1244.14 306.504 1244.14 305.424V304.992C1244.14 304.008 1244.35 303.108 1244.75 302.292C1245.16 301.476 1245.73 300.768 1246.45 300.168C1247.19 299.568 1248.07 299.112 1249.07 298.8C1250.11 298.464 1251.23 298.296 1252.46 298.296C1253.87 298.296 1255.13 298.5 1256.24 298.908C1257.37 299.316 1258.31 299.868 1259.08 300.564C1259.85 301.236 1260.43 302.04 1260.81 302.976C1261.22 303.888 1261.42 304.848 1261.42 305.856V307.368H1258.4V306.072ZM1266.51 298.8H1282.49V301.608H1276.01V321.192H1282.49V324H1266.51V321.192H1272.99V301.608H1266.51V298.8ZM1287.69 298.8H1305.4V301.608H1298.06V324H1295.03V301.608H1287.69V298.8ZM1310.59 298.8H1326.58V301.608H1320.1V321.192H1326.58V324H1310.59V321.192H1317.07V301.608H1310.59V298.8ZM1331.77 308.592C1331.77 305.328 1332.55 302.796 1334.11 300.996C1335.67 299.196 1337.85 298.296 1340.63 298.296C1343.41 298.296 1345.59 299.196 1347.15 300.996C1348.71 302.796 1349.49 305.328 1349.49 308.592V314.208C1349.49 317.568 1348.71 320.124 1347.15 321.876C1345.59 323.628 1343.41 324.504 1340.63 324.504C1337.85 324.504 1335.67 323.628 1334.11 321.876C1332.55 320.124 1331.77 317.568 1331.77 314.208V308.592ZM1340.63 321.696C1342.57 321.696 1344.03 321.036 1344.99 319.716C1345.97 318.372 1346.46 316.464 1346.46 313.992V308.808C1346.46 306.504 1345.97 304.644 1344.99 303.228C1344.03 301.812 1342.57 301.104 1340.63 301.104C1338.69 301.104 1337.22 301.812 1336.24 303.228C1335.28 304.644 1334.8 306.504 1334.8 308.808V313.992C1334.8 316.464 1335.28 318.372 1336.24 319.716C1337.22 321.036 1338.69 321.696 1340.63 321.696ZM1367.6 322.704H1368.04V298.8H1371.06V324H1365.01L1357.74 300.096H1357.31V324H1354.28V298.8H1360.33L1367.6 322.704ZM1401.83 313.632V324H1398.8V298.8H1407.8C1409.1 298.8 1410.23 298.992 1411.19 299.376C1412.15 299.736 1412.94 300.228 1413.56 300.852C1414.21 301.476 1414.69 302.208 1415 303.048C1415.34 303.864 1415.51 304.728 1415.51 305.64V306.72C1415.51 307.632 1415.34 308.508 1415 309.348C1414.69 310.188 1414.21 310.932 1413.56 311.58C1412.91 312.204 1412.11 312.708 1411.15 313.092C1410.19 313.452 1409.07 313.632 1407.8 313.632H1401.83ZM1401.83 310.824H1407.44C1410.8 310.824 1412.48 309.384 1412.48 306.504V305.856C1412.48 304.584 1412.06 303.564 1411.22 302.796C1410.41 302.004 1409.15 301.608 1407.44 301.608H1401.83V310.824ZM1420.41 298.8H1423.44V309.96H1434.17V298.8H1437.19V324H1434.17V312.768H1423.44V324H1420.41V298.8ZM1458.73 324H1455.7V315.576C1455.7 314.952 1455.56 314.472 1455.27 314.136C1454.98 313.8 1454.48 313.632 1453.76 313.632H1445.91V324H1442.89V298.8H1451.89C1453.18 298.8 1454.31 298.992 1455.27 299.376C1456.23 299.736 1457.02 300.228 1457.65 300.852C1458.3 301.476 1458.78 302.208 1459.09 303.048C1459.42 303.864 1459.59 304.728 1459.59 305.64V306.72C1459.59 307.656 1459.33 308.592 1458.8 309.528C1458.3 310.464 1457.5 311.184 1456.42 311.688V312.12C1457.14 312.24 1457.71 312.528 1458.12 312.984C1458.52 313.44 1458.73 314.088 1458.73 314.928V324ZM1445.91 310.824H1451.53C1453.23 310.824 1454.49 310.464 1455.31 309.744C1456.15 309 1456.57 307.92 1456.57 306.504V305.856C1456.57 304.584 1456.15 303.564 1455.31 302.796C1454.49 302.004 1453.23 301.608 1451.53 301.608H1445.91V310.824ZM1478.29 317.736H1467.49L1465.65 324H1462.41L1470.04 298.8H1475.73L1483.36 324H1480.12L1478.29 317.736ZM1472.67 300.096L1468.32 314.928H1477.46L1473.1 300.096H1472.67ZM1500.87 306.072C1500.87 305.256 1500.7 304.536 1500.37 303.912C1500.05 303.288 1499.62 302.772 1499.07 302.364C1498.52 301.956 1497.88 301.644 1497.16 301.428C1496.44 301.212 1495.69 301.104 1494.89 301.104C1494.2 301.104 1493.54 301.2 1492.91 301.392C1492.29 301.56 1491.73 301.812 1491.22 302.148C1490.74 302.484 1490.36 302.904 1490.07 303.408C1489.78 303.888 1489.64 304.452 1489.64 305.1V305.316C1489.64 306.012 1489.78 306.612 1490.07 307.116C1490.36 307.596 1490.78 308.016 1491.33 308.376C1491.91 308.712 1492.61 309 1493.45 309.24C1494.29 309.456 1495.28 309.648 1496.41 309.816C1499.05 310.224 1500.99 311.004 1502.24 312.156C1503.49 313.284 1504.11 314.808 1504.11 316.728V317.16C1504.11 318.24 1503.92 319.236 1503.53 320.148C1503.17 321.036 1502.62 321.804 1501.88 322.452C1501.16 323.1 1500.26 323.604 1499.18 323.964C1498.1 324.324 1496.85 324.504 1495.43 324.504C1493.83 324.504 1492.4 324.276 1491.15 323.82C1489.93 323.34 1488.89 322.692 1488.05 321.876C1487.24 321.036 1486.61 320.064 1486.18 318.96C1485.75 317.832 1485.53 316.608 1485.53 315.288V314.208H1488.56V315.072C1488.56 317.28 1489.16 318.936 1490.36 320.04C1491.58 321.144 1493.27 321.696 1495.43 321.696C1497.31 321.696 1498.71 321.288 1499.65 320.472C1500.61 319.632 1501.09 318.528 1501.09 317.16V316.944C1501.09 315.624 1500.59 314.616 1499.61 313.92C1498.65 313.224 1497.08 312.72 1494.89 312.408C1493.62 312.24 1492.47 311.988 1491.44 311.652C1490.43 311.292 1489.57 310.836 1488.85 310.284C1488.13 309.708 1487.57 309.024 1487.19 308.232C1486.81 307.44 1486.61 306.504 1486.61 305.424V304.992C1486.61 304.008 1486.82 303.108 1487.23 302.292C1487.63 301.476 1488.2 300.768 1488.92 300.168C1489.66 299.568 1490.54 299.112 1491.55 298.8C1492.58 298.464 1493.71 298.296 1494.93 298.296C1496.35 298.296 1497.61 298.5 1498.71 298.908C1499.84 299.316 1500.79 299.868 1501.55 300.564C1502.32 301.236 1502.9 302.04 1503.28 302.976C1503.69 303.888 1503.89 304.848 1503.89 305.856V307.368H1500.87V306.072ZM1509.34 298.8H1524.61V301.608H1512.37V309.96H1524.39V312.768H1512.37V321.192H1524.82V324H1509.34V298.8Z" fill="#FF6D7F"/>
<path d="M778.569 144.072C778.569 143.256 778.401 142.536 778.065 141.912C777.753 141.288 777.321 140.772 776.769 140.364C776.217 139.956 775.581 139.644 774.861 139.428C774.141 139.212 773.385 139.104 772.593 139.104C771.897 139.104 771.237 139.2 770.613 139.392C769.989 139.56 769.425 139.812 768.921 140.148C768.441 140.484 768.057 140.904 767.769 141.408C767.481 141.888 767.337 142.452 767.337 143.1V143.316C767.337 144.012 767.481 144.612 767.769 145.116C768.057 145.596 768.477 146.016 769.029 146.376C769.605 146.712 770.313 147 771.153 147.24C771.993 147.456 772.977 147.648 774.105 147.816C776.745 148.224 778.689 149.004 779.937 150.156C781.185 151.284 781.809 152.808 781.809 154.728V155.16C781.809 156.24 781.617 157.236 781.233 158.148C780.873 159.036 780.321 159.804 779.577 160.452C778.857 161.1 777.957 161.604 776.877 161.964C775.797 162.324 774.549 162.504 773.133 162.504C771.525 162.504 770.097 162.276 768.849 161.82C767.625 161.34 766.593 160.692 765.753 159.876C764.937 159.036 764.313 158.064 763.881 156.96C763.449 155.832 763.233 154.608 763.233 153.288V152.208H766.257V153.072C766.257 155.28 766.857 156.936 768.057 158.04C769.281 159.144 770.973 159.696 773.133 159.696C775.005 159.696 776.409 159.288 777.345 158.472C778.305 157.632 778.785 156.528 778.785 155.16V154.944C778.785 153.624 778.293 152.616 777.309 151.92C776.349 151.224 774.777 150.72 772.593 150.408C771.321 150.24 770.169 149.988 769.137 149.652C768.129 149.292 767.265 148.836 766.545 148.284C765.825 147.708 765.273 147.024 764.889 146.232C764.505 145.44 764.313 144.504 764.313 143.424V142.992C764.313 142.008 764.517 141.108 764.925 140.292C765.333 139.476 765.897 138.768 766.617 138.168C767.361 137.568 768.237 137.112 769.245 136.8C770.277 136.464 771.405 136.296 772.629 136.296C774.045 136.296 775.305 136.5 776.409 136.908C777.537 137.316 778.485 137.868 779.253 138.564C780.021 139.236 780.597 140.04 780.981 140.976C781.389 141.888 781.593 142.848 781.593 143.856V145.368H778.569V144.072ZM789.056 136.8V153.504C789.056 155.544 789.524 157.092 790.46 158.148C791.42 159.18 792.824 159.696 794.672 159.696C796.52 159.696 797.912 159.18 798.848 158.148C799.808 157.092 800.288 155.544 800.288 153.504V136.8H803.312V153.504C803.312 156.432 802.544 158.664 801.008 160.2C799.472 161.736 797.36 162.504 794.672 162.504C791.984 162.504 789.872 161.736 788.336 160.2C786.8 158.664 786.032 156.432 786.032 153.504V136.8H789.056ZM823.879 154.44C823.879 157.056 823.231 159.06 821.935 160.452C820.663 161.82 818.791 162.504 816.319 162.504C813.847 162.504 811.891 161.82 810.451 160.452C809.035 159.06 808.327 157.056 808.327 154.44V152.496H811.351V154.44C811.351 156.024 811.759 157.296 812.575 158.256C813.391 159.216 814.639 159.696 816.319 159.696C817.999 159.696 819.175 159.216 819.847 158.256C820.519 157.296 820.855 156.024 820.855 154.44V139.608H818.263V136.8H826.039V139.608H823.879V154.44ZM831.126 136.8H846.39V139.608H834.15V147.96H846.174V150.768H834.15V159.192H846.606V162H831.126V136.8ZM860.945 159.696C861.977 159.696 862.853 159.528 863.573 159.192C864.317 158.832 864.917 158.364 865.373 157.788C865.853 157.188 866.201 156.516 866.417 155.772C866.657 155.004 866.777 154.2 866.777 153.36V152.928H869.801V153.36C869.801 154.632 869.609 155.832 869.225 156.96C868.841 158.064 868.277 159.036 867.533 159.876C866.789 160.692 865.865 161.34 864.761 161.82C863.657 162.276 862.385 162.504 860.945 162.504C858.161 162.504 855.989 161.628 854.429 159.876C852.869 158.124 852.089 155.568 852.089 152.208V146.592C852.089 143.328 852.869 140.796 854.429 138.996C855.989 137.196 858.161 136.296 860.945 136.296C862.385 136.296 863.657 136.536 864.761 137.016C865.865 137.472 866.789 138.12 867.533 138.96C868.277 139.776 868.841 140.748 869.225 141.876C869.609 142.98 869.801 144.168 869.801 145.44V145.872H866.777V145.44C866.753 144.624 866.621 143.832 866.381 143.064C866.165 142.296 865.817 141.624 865.337 141.048C864.881 140.448 864.293 139.98 863.573 139.644C862.853 139.284 861.977 139.104 860.945 139.104C859.001 139.104 857.537 139.812 856.553 141.228C855.593 142.644 855.113 144.504 855.113 146.808V151.992C855.113 154.464 855.593 156.372 856.553 157.716C857.537 159.036 859.001 159.696 860.945 159.696ZM873.988 136.8H891.7V139.608H884.356V162H881.332V139.608H873.988V136.8ZM908.883 132.984L911.403 133.776L900.927 165.816L898.371 165.024L908.883 132.984ZM916.886 136.8H920.126L926.714 160.704H927.146L933.734 136.8H936.974L929.846 162H924.014L916.886 136.8ZM941.341 136.8H956.605V139.608H944.365V147.96H956.389V150.768H944.365V159.192H956.821V162H941.341V136.8ZM978.9 162H975.876V153.576C975.876 152.952 975.732 152.472 975.444 152.136C975.156 151.8 974.652 151.632 973.932 151.632H966.084V162H963.06V136.8H972.06C973.356 136.8 974.484 136.992 975.444 137.376C976.404 137.736 977.196 138.228 977.82 138.852C978.468 139.476 978.948 140.208 979.26 141.048C979.596 141.864 979.764 142.728 979.764 143.64V144.72C979.764 145.656 979.5 146.592 978.972 147.528C978.468 148.464 977.676 149.184 976.596 149.688V150.12C977.316 150.24 977.88 150.528 978.288 150.984C978.696 151.44 978.9 152.088 978.9 152.928V162ZM966.084 148.824H971.7C973.404 148.824 974.664 148.464 975.48 147.744C976.32 147 976.74 145.92 976.74 144.504V143.856C976.74 142.584 976.32 141.564 975.48 140.796C974.664 140.004 973.404 139.608 971.7 139.608H966.084V148.824ZM984.095 159.192H986.255V139.608H984.095V136.8H994.283C995.483 136.8 996.539 136.968 997.451 137.304C998.387 137.64 999.167 138.096 999.791 138.672C1000.44 139.248 1000.92 139.944 1001.23 140.76C1001.57 141.552 1001.73 142.416 1001.73 143.352V143.784C1001.73 144.48 1001.63 145.116 1001.41 145.692C1001.19 146.268 1000.89 146.784 1000.51 147.24C1000.13 147.696 999.671 148.092 999.143 148.428C998.639 148.74 998.087 148.98 997.487 149.148V149.58C998.687 149.916 999.695 150.564 1000.51 151.524C1001.33 152.46 1001.73 153.612 1001.73 154.98V155.412C1001.73 156.348 1001.57 157.224 1001.23 158.04C1000.92 158.832 1000.44 159.528 999.791 160.128C999.167 160.704 998.387 161.16 997.451 161.496C996.539 161.832 995.483 162 994.283 162H984.095V159.192ZM989.279 159.192H994.067C995.483 159.192 996.635 158.844 997.523 158.148C998.411 157.428 998.855 156.444 998.855 155.196V154.98C998.855 153.684 998.435 152.664 997.595 151.92C996.755 151.152 995.615 150.768 994.175 150.768H989.279V159.192ZM989.279 147.96H994.175C995.615 147.96 996.755 147.588 997.595 146.844C998.435 146.1 998.855 145.08 998.855 143.784V143.568C998.855 142.344 998.411 141.384 997.523 140.688C996.635 139.968 995.483 139.608 994.067 139.608H989.279V147.96ZM1032.21 151.632V162H1029.19V136.8H1038.19C1039.48 136.8 1040.61 136.992 1041.57 137.376C1042.53 137.736 1043.32 138.228 1043.95 138.852C1044.6 139.476 1045.08 140.208 1045.39 141.048C1045.72 141.864 1045.89 142.728 1045.89 143.64V144.72C1045.89 145.632 1045.72 146.508 1045.39 147.348C1045.08 148.188 1044.6 148.932 1043.95 149.58C1043.3 150.204 1042.5 150.708 1041.54 151.092C1040.58 151.452 1039.46 151.632 1038.19 151.632H1032.21ZM1032.21 148.824H1037.83C1041.19 148.824 1042.87 147.384 1042.87 144.504V143.856C1042.87 142.584 1042.45 141.564 1041.61 140.796C1040.79 140.004 1039.53 139.608 1037.83 139.608H1032.21V148.824ZM1050.8 136.8H1053.82V147.96H1064.55V136.8H1067.58V162H1064.55V150.768H1053.82V162H1050.8V136.8ZM1089.11 162H1086.09V153.576C1086.09 152.952 1085.95 152.472 1085.66 152.136C1085.37 151.8 1084.87 151.632 1084.15 151.632H1076.3V162H1073.27V136.8H1082.27C1083.57 136.8 1084.7 136.992 1085.66 137.376C1086.62 137.736 1087.41 138.228 1088.03 138.852C1088.68 139.476 1089.16 140.208 1089.47 141.048C1089.81 141.864 1089.98 142.728 1089.98 143.64V144.72C1089.98 145.656 1089.71 146.592 1089.19 147.528C1088.68 148.464 1087.89 149.184 1086.81 149.688V150.12C1087.53 150.24 1088.09 150.528 1088.5 150.984C1088.91 151.44 1089.11 152.088 1089.11 152.928V162ZM1076.3 148.824H1081.91C1083.62 148.824 1084.88 148.464 1085.69 147.744C1086.53 147 1086.95 145.92 1086.95 144.504V143.856C1086.95 142.584 1086.53 141.564 1085.69 140.796C1084.88 140.004 1083.62 139.608 1081.91 139.608H1076.3V148.824ZM1108.67 155.736H1097.87L1096.04 162H1092.8L1100.43 136.8H1106.12L1113.75 162H1110.51L1108.67 155.736ZM1103.06 138.096L1098.7 152.928H1107.85L1103.49 138.096H1103.06ZM1131.26 144.072C1131.26 143.256 1131.09 142.536 1130.75 141.912C1130.44 141.288 1130.01 140.772 1129.46 140.364C1128.9 139.956 1128.27 139.644 1127.55 139.428C1126.83 139.212 1126.07 139.104 1125.28 139.104C1124.58 139.104 1123.92 139.2 1123.3 139.392C1122.68 139.56 1122.11 139.812 1121.61 140.148C1121.13 140.484 1120.74 140.904 1120.46 141.408C1120.17 141.888 1120.02 142.452 1120.02 143.1V143.316C1120.02 144.012 1120.17 144.612 1120.46 145.116C1120.74 145.596 1121.16 146.016 1121.72 146.376C1122.29 146.712 1123 147 1123.84 147.24C1124.68 147.456 1125.66 147.648 1126.79 147.816C1129.43 148.224 1131.38 149.004 1132.62 150.156C1133.87 151.284 1134.5 152.808 1134.5 154.728V155.16C1134.5 156.24 1134.3 157.236 1133.92 158.148C1133.56 159.036 1133.01 159.804 1132.26 160.452C1131.54 161.1 1130.64 161.604 1129.56 161.964C1128.48 162.324 1127.24 162.504 1125.82 162.504C1124.21 162.504 1122.78 162.276 1121.54 161.82C1120.31 161.34 1119.28 160.692 1118.44 159.876C1117.62 159.036 1117 158.064 1116.57 156.96C1116.14 155.832 1115.92 154.608 1115.92 153.288V152.208H1118.94V153.072C1118.94 155.28 1119.54 156.936 1120.74 158.04C1121.97 159.144 1123.66 159.696 1125.82 159.696C1127.69 159.696 1129.1 159.288 1130.03 158.472C1130.99 157.632 1131.47 156.528 1131.47 155.16V154.944C1131.47 153.624 1130.98 152.616 1130 151.92C1129.04 151.224 1127.46 150.72 1125.28 150.408C1124.01 150.24 1122.86 149.988 1121.82 149.652C1120.82 149.292 1119.95 148.836 1119.23 148.284C1118.51 147.708 1117.96 147.024 1117.58 146.232C1117.19 145.44 1117 144.504 1117 143.424V142.992C1117 142.008 1117.2 141.108 1117.61 140.292C1118.02 139.476 1118.58 138.768 1119.3 138.168C1120.05 137.568 1120.92 137.112 1121.93 136.8C1122.96 136.464 1124.09 136.296 1125.32 136.296C1126.73 136.296 1127.99 136.5 1129.1 136.908C1130.22 137.316 1131.17 137.868 1131.94 138.564C1132.71 139.236 1133.28 140.04 1133.67 140.976C1134.08 141.888 1134.28 142.848 1134.28 143.856V145.368H1131.26V144.072ZM1139.73 136.8H1154.99V139.608H1142.75V147.96H1154.78V150.768H1142.75V159.192H1155.21V162H1139.73V136.8Z" fill="#FF6D7F"/>
<path d="M535.948 646.704H536.38V622.8H539.404V648H533.356L526.084 624.096H525.652V648H522.628V622.8H528.676L535.948 646.704ZM544.203 632.592C544.203 629.328 544.983 626.796 546.543 624.996C548.103 623.196 550.275 622.296 553.059 622.296C555.843 622.296 558.015 623.196 559.575 624.996C561.135 626.796 561.915 629.328 561.915 632.592V638.208C561.915 641.568 561.135 644.124 559.575 645.876C558.015 647.628 555.843 648.504 553.059 648.504C550.275 648.504 548.103 647.628 546.543 645.876C544.983 644.124 544.203 641.568 544.203 638.208V632.592ZM553.059 645.696C555.003 645.696 556.455 645.036 557.415 643.716C558.399 642.372 558.891 640.464 558.891 637.992V632.808C558.891 630.504 558.399 628.644 557.415 627.228C556.455 625.812 555.003 625.104 553.059 625.104C551.115 625.104 549.651 625.812 548.667 627.228C547.707 628.644 547.227 630.504 547.227 632.808V637.992C547.227 640.464 547.707 642.372 548.667 643.716C549.651 645.036 551.115 645.696 553.059 645.696ZM569.486 622.8V639.504C569.486 641.544 569.954 643.092 570.89 644.148C571.85 645.18 573.254 645.696 575.102 645.696C576.95 645.696 578.342 645.18 579.278 644.148C580.238 643.092 580.718 641.544 580.718 639.504V622.8H583.742V639.504C583.742 642.432 582.974 644.664 581.438 646.2C579.902 647.736 577.79 648.504 575.102 648.504C572.414 648.504 570.302 647.736 568.766 646.2C567.23 644.664 566.462 642.432 566.462 639.504V622.8H569.486ZM602.077 646.704H602.509V622.8H605.533V648H599.485L592.213 624.096H591.781V648H588.757V622.8H594.805L602.077 646.704Z" fill="#FF6D7F"/>
<path d="M836.972 622.8H840.212L846.8 646.704H847.232L853.82 622.8H857.06L849.932 648H844.1L836.972 622.8ZM861.427 622.8H876.691V625.608H864.451V633.96H876.475V636.768H864.451V645.192H876.907V648H861.427V622.8ZM898.986 648H895.962V639.576C895.962 638.952 895.818 638.472 895.53 638.136C895.242 637.8 894.738 637.632 894.018 637.632H886.17V648H883.146V622.8H892.146C893.442 622.8 894.57 622.992 895.53 623.376C896.49 623.736 897.282 624.228 897.906 624.852C898.554 625.476 899.034 626.208 899.346 627.048C899.682 627.864 899.85 628.728 899.85 629.64V630.72C899.85 631.656 899.586 632.592 899.058 633.528C898.554 634.464 897.762 635.184 896.682 635.688V636.12C897.402 636.24 897.966 636.528 898.374 636.984C898.782 637.44 898.986 638.088 898.986 638.928V648ZM886.17 634.824H891.786C893.49 634.824 894.75 634.464 895.566 633.744C896.406 633 896.826 631.92 896.826 630.504V629.856C896.826 628.584 896.406 627.564 895.566 626.796C894.75 626.004 893.49 625.608 891.786 625.608H886.17V634.824ZM904.181 645.192H906.341V625.608H904.181V622.8H914.369C915.569 622.8 916.625 622.968 917.537 623.304C918.473 623.64 919.253 624.096 919.877 624.672C920.525 625.248 921.005 625.944 921.317 626.76C921.653 627.552 921.821 628.416 921.821 629.352V629.784C921.821 630.48 921.713 631.116 921.497 631.692C921.281 632.268 920.981 632.784 920.597 633.24C920.213 633.696 919.757 634.092 919.229 634.428C918.725 634.74 918.173 634.98 917.573 635.148V635.58C918.773 635.916 919.781 636.564 920.597 637.524C921.413 638.46 921.821 639.612 921.821 640.98V641.412C921.821 642.348 921.653 643.224 921.317 644.04C921.005 644.832 920.525 645.528 919.877 646.128C919.253 646.704 918.473 647.16 917.537 647.496C916.625 647.832 915.569 648 914.369 648H904.181V645.192ZM909.365 645.192H914.153C915.569 645.192 916.721 644.844 917.609 644.148C918.497 643.428 918.941 642.444 918.941 641.196V640.98C918.941 639.684 918.521 638.664 917.681 637.92C916.841 637.152 915.701 636.768 914.261 636.768H909.365V645.192ZM909.365 633.96H914.261C915.701 633.96 916.841 633.588 917.681 632.844C918.521 632.1 918.941 631.08 918.941 629.784V629.568C918.941 628.344 918.497 627.384 917.609 626.688C916.721 625.968 915.569 625.608 914.153 625.608H909.365V633.96Z" fill="#FF6D7F"/>
<path d="M1096.08 637.632V648H1093.06V622.8H1102.06C1103.36 622.8 1104.48 622.992 1105.44 623.376C1106.4 623.736 1107.2 624.228 1107.82 624.852C1108.47 625.476 1108.95 626.208 1109.26 627.048C1109.6 627.864 1109.76 628.728 1109.76 629.64V630.72C1109.76 631.632 1109.6 632.508 1109.26 633.348C1108.95 634.188 1108.47 634.932 1107.82 635.58C1107.17 636.204 1106.37 636.708 1105.41 637.092C1104.45 637.452 1103.33 637.632 1102.06 637.632H1096.08ZM1096.08 634.824H1101.7C1105.06 634.824 1106.74 633.384 1106.74 630.504V629.856C1106.74 628.584 1106.32 627.564 1105.48 626.796C1104.66 626.004 1103.4 625.608 1101.7 625.608H1096.08V634.824ZM1130.94 648H1127.92V639.576C1127.92 638.952 1127.77 638.472 1127.49 638.136C1127.2 637.8 1126.69 637.632 1125.97 637.632H1118.13V648H1115.1V622.8H1124.1C1125.4 622.8 1126.53 622.992 1127.49 623.376C1128.45 623.736 1129.24 624.228 1129.86 624.852C1130.51 625.476 1130.99 626.208 1131.3 627.048C1131.64 627.864 1131.81 628.728 1131.81 629.64V630.72C1131.81 631.656 1131.54 632.592 1131.01 633.528C1130.51 634.464 1129.72 635.184 1128.64 635.688V636.12C1129.36 636.24 1129.92 636.528 1130.33 636.984C1130.74 637.44 1130.94 638.088 1130.94 638.928V648ZM1118.13 634.824H1123.74C1125.45 634.824 1126.71 634.464 1127.52 633.744C1128.36 633 1128.78 631.92 1128.78 630.504V629.856C1128.78 628.584 1128.36 627.564 1127.52 626.796C1126.71 626.004 1125.45 625.608 1123.74 625.608H1118.13V634.824ZM1137.47 622.8H1152.73V625.608H1140.49V633.96H1152.52V636.768H1140.49V645.192H1152.95V648H1137.47V622.8ZM1162.21 637.632V648H1159.19V622.8H1168.19C1169.48 622.8 1170.61 622.992 1171.57 623.376C1172.53 623.736 1173.32 624.228 1173.95 624.852C1174.6 625.476 1175.08 626.208 1175.39 627.048C1175.72 627.864 1175.89 628.728 1175.89 629.64V630.72C1175.89 631.632 1175.72 632.508 1175.39 633.348C1175.08 634.188 1174.6 634.932 1173.95 635.58C1173.3 636.204 1172.5 636.708 1171.54 637.092C1170.58 637.452 1169.46 637.632 1168.19 637.632H1162.21ZM1162.21 634.824H1167.83C1171.19 634.824 1172.87 633.384 1172.87 630.504V629.856C1172.87 628.584 1172.45 627.564 1171.61 626.796C1170.79 626.004 1169.53 625.608 1167.83 625.608H1162.21V634.824ZM1186.67 645.984C1186.67 645.288 1186.91 644.7 1187.39 644.22C1187.89 643.716 1188.49 643.464 1189.19 643.464C1189.88 643.464 1190.47 643.716 1190.95 644.22C1191.46 644.7 1191.71 645.288 1191.71 645.984C1191.71 646.68 1191.46 647.28 1190.95 647.784C1190.47 648.264 1189.88 648.504 1189.19 648.504C1188.49 648.504 1187.89 648.264 1187.39 647.784C1186.91 647.28 1186.67 646.68 1186.67 645.984Z" fill="#FF6D7F"/>
<path d="M1234.42 641.736H1223.62L1221.78 648H1218.54L1226.17 622.8H1231.86L1239.49 648H1236.25L1234.42 641.736ZM1228.8 624.096L1224.44 638.928H1233.59L1229.23 624.096H1228.8ZM1258.94 648H1255.92V639.576C1255.92 638.952 1255.77 638.472 1255.49 638.136C1255.2 637.8 1254.69 637.632 1253.97 637.632H1246.13V648H1243.1V622.8H1252.1C1253.4 622.8 1254.53 622.992 1255.49 623.376C1256.45 623.736 1257.24 624.228 1257.86 624.852C1258.51 625.476 1258.99 626.208 1259.3 627.048C1259.64 627.864 1259.81 628.728 1259.81 629.64V630.72C1259.81 631.656 1259.54 632.592 1259.01 633.528C1258.51 634.464 1257.72 635.184 1256.64 635.688V636.12C1257.36 636.24 1257.92 636.528 1258.33 636.984C1258.74 637.44 1258.94 638.088 1258.94 638.928V648ZM1246.13 634.824H1251.74C1253.45 634.824 1254.71 634.464 1255.52 633.744C1256.36 633 1256.78 631.92 1256.78 630.504V629.856C1256.78 628.584 1256.36 627.564 1255.52 626.796C1254.71 626.004 1253.45 625.608 1251.74 625.608H1246.13V634.824ZM1264.25 622.8H1281.96V625.608H1274.61V648H1271.59V625.608H1264.25V622.8ZM1287.15 622.8H1303.14V625.608H1296.66V645.192H1303.14V648H1287.15V645.192H1293.63V625.608H1287.15V622.8ZM1317.33 645.696C1318.36 645.696 1319.24 645.528 1319.96 645.192C1320.7 644.832 1321.3 644.364 1321.76 643.788C1322.24 643.188 1322.59 642.516 1322.8 641.772C1323.04 641.004 1323.16 640.2 1323.16 639.36V638.928H1326.19V639.36C1326.19 640.632 1326 641.832 1325.61 642.96C1325.23 644.064 1324.66 645.036 1323.92 645.876C1323.18 646.692 1322.25 647.34 1321.15 647.82C1320.04 648.276 1318.77 648.504 1317.33 648.504C1314.55 648.504 1312.38 647.628 1310.82 645.876C1309.26 644.124 1308.48 641.568 1308.48 638.208V632.592C1308.48 629.328 1309.26 626.796 1310.82 624.996C1312.38 623.196 1314.55 622.296 1317.33 622.296C1318.77 622.296 1320.04 622.536 1321.15 623.016C1322.25 623.472 1323.18 624.12 1323.92 624.96C1324.66 625.776 1325.23 626.748 1325.61 627.876C1326 628.98 1326.19 630.168 1326.19 631.44V631.872H1323.16V631.44C1323.14 630.624 1323.01 629.832 1322.77 629.064C1322.55 628.296 1322.2 627.624 1321.72 627.048C1321.27 626.448 1320.68 625.98 1319.96 625.644C1319.24 625.284 1318.36 625.104 1317.33 625.104C1315.39 625.104 1313.92 625.812 1312.94 627.228C1311.98 628.644 1311.5 630.504 1311.5 632.808V637.992C1311.5 640.464 1311.98 642.372 1312.94 643.716C1313.92 645.036 1315.39 645.696 1317.33 645.696ZM1331.35 622.8H1334.37V645.192H1347.55V648H1331.35V622.8ZM1353.64 622.8H1368.91V625.608H1356.67V633.96H1368.69V636.768H1356.67V645.192H1369.12V648H1353.64V622.8Z" fill="#FF6D7F"/>
<path d="M1497.95 646.704H1498.38V622.8H1501.4V648H1495.36L1488.08 624.096H1487.65V648H1484.63V622.8H1490.68L1497.95 646.704ZM1506.2 632.592C1506.2 629.328 1506.98 626.796 1508.54 624.996C1510.1 623.196 1512.27 622.296 1515.06 622.296C1517.84 622.296 1520.01 623.196 1521.57 624.996C1523.13 626.796 1523.91 629.328 1523.91 632.592V638.208C1523.91 641.568 1523.13 644.124 1521.57 645.876C1520.01 647.628 1517.84 648.504 1515.06 648.504C1512.27 648.504 1510.1 647.628 1508.54 645.876C1506.98 644.124 1506.2 641.568 1506.2 638.208V632.592ZM1515.06 645.696C1517 645.696 1518.45 645.036 1519.41 643.716C1520.4 642.372 1520.89 640.464 1520.89 637.992V632.808C1520.89 630.504 1520.4 628.644 1519.41 627.228C1518.45 625.812 1517 625.104 1515.06 625.104C1513.11 625.104 1511.65 625.812 1510.67 627.228C1509.71 628.644 1509.23 630.504 1509.23 632.808V637.992C1509.23 640.464 1509.71 642.372 1510.67 643.716C1511.65 645.036 1513.11 645.696 1515.06 645.696ZM1531.49 622.8V639.504C1531.49 641.544 1531.95 643.092 1532.89 644.148C1533.85 645.18 1535.25 645.696 1537.1 645.696C1538.95 645.696 1540.34 645.18 1541.28 644.148C1542.24 643.092 1542.72 641.544 1542.72 639.504V622.8H1545.74V639.504C1545.74 642.432 1544.97 644.664 1543.44 646.2C1541.9 647.736 1539.79 648.504 1537.1 648.504C1534.41 648.504 1532.3 647.736 1530.77 646.2C1529.23 644.664 1528.46 642.432 1528.46 639.504V622.8H1531.49ZM1564.08 646.704H1564.51V622.8H1567.53V648H1561.48L1554.21 624.096H1553.78V648H1550.76V622.8H1556.8L1564.08 646.704Z" fill="#FF6D7F"/>
<line x1="327.5" y1="676.5" x2="327.5" y2="751.5" stroke="#FF6D7F" stroke-width="5" stroke-linecap="round"/>
<line x1="563.5" y1="676.5" x2="563.5" y2="751.5" stroke="#FF6D7F" stroke-width="5" stroke-linecap="round"/>
<line x1="883.5" y1="676.5" x2="883.5" y2="751.5" stroke="#FF6D7F" stroke-width="5" stroke-linecap="round"/>
<line x1="1137.5" y1="676.5" x2="1137.5" y2="751.5" stroke="#FF6D7F" stroke-width="5" stroke-linecap="round"/>
<line x1="1298.5" y1="676.5" x2="1298.5" y2="751.5" stroke="#FF6D7F" stroke-width="5" stroke-linecap="round"/>
<line x1="1530.5" y1="676.5" x2="1530.5" y2="751.5" stroke="#FF6D7F" stroke-width="5" stroke-linecap="round"/>
<line x1="1402.47" y1="506.325" x2="1527.33" y2="590.529" stroke="#FF6D7F" stroke-width="5" stroke-linecap="round"/>
<line x1="435.471" y1="506.325" x2="560.325" y2="590.529" stroke="#FF6D7F" stroke-width="5" stroke-linecap="round"/>
<line x1="1333.51" y1="344.439" x2="1400.44" y2="430.492" stroke="#FF6D7F" stroke-width="5" stroke-linecap="round"/>
<line x1="1401.76" y1="506.528" x2="1301.53" y2="594.235" stroke="#FF6D7F" stroke-width="5" stroke-linecap="round"/>
<line x1="434.765" y1="506.528" x2="334.528" y2="594.235" stroke="#FF6D7F" stroke-width="5" stroke-linecap="round"/>
<line x1="1333.43" y1="344.51" x2="1138.51" y2="593.572" stroke="#FF6D7F" stroke-width="5" stroke-linecap="round"/>
<line x1="931.76" y1="190.311" x2="435.311" y2="416.24" stroke="#FF6D7F" stroke-width="5" stroke-linecap="round"/>
<line x1="932.169" y1="190.792" x2="883.792" y2="575.831" stroke="#FF6D7F" stroke-width="5" stroke-linecap="round"/>
<line x1="932.884" y1="189.954" x2="1327.95" y2="257.116" stroke="#FF6D7F" stroke-width="5" stroke-linecap="round"/>
</g>
<defs>
<clipPath id="clip0_3328_15626">
<rect width="1920" height="1080" fill="white"/>
</clipPath>
</defs>
</svg>
