<svg width="1920" height="1080" fill="none" xmlns="http://www.w3.org/2000/svg"><path fill="#D2E3FC" d="M243 321h1434v116H243z"/><path fill="#1A73E8" d="M243 418h1434v20H243z"/><path d="M253.499 281h-2.663v-71.805h2.663V281Zm26.286-67.761v14.401h12.132v2.712h-12.132v37.875c0 3.781.608 6.576 1.824 8.384 1.25 1.808 3.321 2.712 6.214 2.712 1.447 0 3.206-.148 5.277-.444l.444 2.516c-1.085.394-2.943.591-5.573.591-3.879 0-6.658-1.068-8.334-3.205-1.677-2.17-2.532-5.573-2.565-10.209v-38.22h-9.863v-2.712h9.863v-14.401h2.713ZM333.244 281h-2.663v-53.36h2.663V281Zm-4.044-70.029c0-.756.263-1.398.789-1.924.526-.559 1.167-.838 1.923-.838s1.397.279 1.923.838c.559.526.839 1.168.839 1.924s-.28 1.397-.839 1.923a2.617 2.617 0 0 1-1.923.789 2.617 2.617 0 0 1-1.923-.789 2.617 2.617 0 0 1-.789-1.923Zm54.445 56.96c0-6.477-5.523-10.882-16.57-13.217-6.642-1.413-11.261-3.222-13.858-5.424-2.598-2.236-3.896-5.294-3.896-9.173 0-3.913 1.644-7.135 4.931-9.666 3.321-2.532 7.628-3.798 12.921-3.798 5.754 0 10.373 1.381 13.858 4.143 3.485 2.729 5.228 6.427 5.228 11.096h-2.713c0-3.584-1.512-6.575-4.537-8.975-3.024-2.401-6.97-3.601-11.836-3.601-4.668 0-8.367 1.02-11.096 3.058-2.729 2.038-4.093 4.586-4.093 7.644 0 2.4.509 4.291 1.529 5.671 1.019 1.348 2.679 2.581 4.981 3.699 2.301 1.085 5.655 2.137 10.06 3.156 4.406 1.02 7.891 2.22 10.455 3.601 2.565 1.38 4.422 3.024 5.573 4.931 1.151 1.874 1.726 4.176 1.726 6.904 0 4.209-1.726 7.595-5.178 10.16-3.452 2.564-7.973 3.846-13.562 3.846-5.984 0-10.817-1.348-14.499-4.044-3.65-2.728-5.474-6.23-5.474-10.504h2.663c.263 3.748 1.907 6.674 4.931 8.778 3.058 2.072 7.184 3.107 12.379 3.107 4.767 0 8.63-1.101 11.589-3.304 2.992-2.236 4.488-4.932 4.488-8.088Zm44.237-27.864c1.742-4.142 4.307-7.414 7.693-9.814 3.387-2.4 7.135-3.6 11.244-3.6 5.721 0 9.962 1.628 12.724 4.883 2.795 3.222 4.208 8.104 4.241 14.647V281h-2.663v-34.916c-.033-5.721-1.2-9.945-3.501-12.674-2.302-2.762-5.951-4.143-10.949-4.143-4.602 0-8.597 1.644-11.983 4.932-3.354 3.255-5.623 7.463-6.806 12.625V281h-2.663v-53.36h2.663v12.427Zm48.626 13.217c0-5.096.97-9.666 2.909-13.71 1.973-4.077 4.735-7.249 8.286-9.518 3.583-2.268 7.627-3.403 12.131-3.403 4.472 0 8.483 1.102 12.034 3.305 3.55 2.202 6.312 5.326 8.285 9.37 2.005 4.044 3.025 8.597 3.057 13.66v2.367c0 5.129-.969 9.716-2.909 13.76-1.94 4.044-4.702 7.2-8.285 9.468-3.551 2.269-7.579 3.403-12.083 3.403-4.504 0-8.548-1.118-12.132-3.353-3.551-2.236-6.312-5.359-8.285-9.37-1.973-4.044-2.975-8.581-3.008-13.612v-2.367Zm2.663 2.071c0 4.439.871 8.516 2.614 12.231 1.775 3.682 4.224 6.559 7.348 8.63 3.156 2.072 6.756 3.107 10.8 3.107 6.082 0 11.031-2.285 14.844-6.855 3.847-4.57 5.77-10.455 5.77-17.655v-1.529c0-4.373-.887-8.416-2.663-12.132-1.775-3.715-4.241-6.608-7.397-8.679-3.124-2.105-6.674-3.157-10.653-3.157-6.082 0-11.046 2.318-14.893 6.954-3.847 4.636-5.77 10.472-5.77 17.507v1.578Zm62.977-42.116v14.401h12.132v2.712h-12.132v37.875c0 3.781.608 6.576 1.825 8.384 1.249 1.808 3.32 2.712 6.214 2.712 1.446 0 3.205-.148 5.276-.444l.444 2.516c-1.085.394-2.942.591-5.573.591-3.879 0-6.657-1.068-8.334-3.205-1.677-2.17-2.532-5.573-2.564-10.209v-38.22h-9.864v-2.712h9.864v-14.401h2.712Zm90.939 41.574c0 8.318-1.791 14.926-5.375 19.825-3.584 4.899-8.466 7.348-14.647 7.348-4.044 0-7.644-.822-10.8-2.465-3.157-1.644-5.622-3.913-7.398-6.806v28.801h-2.663V227.64h2.663v9.518c1.841-3.387 4.324-5.984 7.447-7.792 3.123-1.809 6.674-2.713 10.652-2.713 6.247 0 11.162 2.4 14.746 7.201 3.584 4.767 5.375 11.474 5.375 20.121v.838Zm-2.712-1.036c0-7.66-1.529-13.644-4.586-17.951-3.025-4.34-7.283-6.51-12.773-6.51-4.472 0-8.269 1.168-11.392 3.502-3.124 2.301-5.376 5.622-6.757 9.962v24.954c1.381 3.682 3.633 6.543 6.757 8.581 3.156 2.005 6.986 3.008 11.49 3.008 5.458 0 9.699-2.17 12.724-6.51 3.025-4.339 4.537-10.685 4.537-19.036Zm13.217-.493c0-5.096.97-9.666 2.909-13.71 1.973-4.077 4.735-7.249 8.286-9.518 3.583-2.268 7.627-3.403 12.131-3.403 4.472 0 8.483 1.102 12.034 3.305 3.55 2.202 6.312 5.326 8.285 9.37 2.005 4.044 3.025 8.597 3.057 13.66v2.367c0 5.129-.969 9.716-2.909 13.76-1.94 4.044-4.702 7.2-8.285 9.468-3.551 2.269-7.579 3.403-12.083 3.403-4.504 0-8.548-1.118-12.132-3.353-3.551-2.236-6.312-5.359-8.285-9.37-1.973-4.044-2.975-8.581-3.008-13.612v-2.367Zm2.663 2.071c0 4.439.871 8.516 2.614 12.231 1.775 3.682 4.224 6.559 7.348 8.63 3.156 2.072 6.756 3.107 10.8 3.107 6.082 0 11.031-2.285 14.844-6.855 3.847-4.57 5.77-10.455 5.77-17.655v-1.529c0-4.373-.887-8.416-2.663-12.132-1.775-3.715-4.241-6.608-7.397-8.679-3.124-2.105-6.674-3.157-10.653-3.157-6.082 0-11.046 2.318-14.893 6.954-3.847 4.636-5.77 10.472-5.77 17.507v1.578Zm89.904 12.576c0-6.477-5.524-10.882-16.571-13.217-6.641-1.413-11.26-3.222-13.858-5.424-2.597-2.236-3.896-5.294-3.896-9.173 0-3.913 1.644-7.135 4.932-9.666 3.321-2.532 7.628-3.798 12.921-3.798 5.754 0 10.373 1.381 13.858 4.143 3.485 2.729 5.227 6.427 5.227 11.096h-2.712c0-3.584-1.512-6.575-4.537-8.975-3.025-2.401-6.97-3.601-11.836-3.601-4.669 0-8.367 1.02-11.096 3.058-2.729 2.038-4.093 4.586-4.093 7.644 0 2.4.509 4.291 1.528 5.671 1.02 1.348 2.68 2.581 4.981 3.699 2.302 1.085 5.655 2.137 10.061 3.156 4.405 1.02 7.89 2.22 10.455 3.601 2.564 1.38 4.422 3.024 5.573 4.931 1.15 1.874 1.726 4.176 1.726 6.904 0 4.209-1.726 7.595-5.178 10.16-3.453 2.564-7.973 3.846-13.562 3.846-5.984 0-10.817-1.348-14.499-4.044-3.65-2.728-5.475-6.23-5.475-10.504h2.663c.264 3.748 1.907 6.674 4.932 8.778 3.058 2.072 7.184 3.107 12.379 3.107 4.767 0 8.63-1.101 11.589-3.304 2.992-2.236 4.488-4.932 4.488-8.088Zm50.302 0c0-6.477-5.523-10.882-16.57-13.217-6.641-1.413-11.26-3.222-13.858-5.424-2.597-2.236-3.896-5.294-3.896-9.173 0-3.913 1.644-7.135 4.932-9.666 3.32-2.532 7.627-3.798 12.921-3.798 5.753 0 10.373 1.381 13.858 4.143 3.485 2.729 5.227 6.427 5.227 11.096h-2.712c0-3.584-1.513-6.575-4.537-8.975-3.025-2.401-6.97-3.601-11.836-3.601-4.669 0-8.368 1.02-11.096 3.058-2.729 2.038-4.094 4.586-4.094 7.644 0 2.4.51 4.291 1.529 5.671 1.019 1.348 2.68 2.581 4.981 3.699 2.301 1.085 5.655 2.137 10.061 3.156 4.405 1.02 7.89 2.22 10.455 3.601 2.564 1.38 4.422 3.024 5.572 4.931 1.151 1.874 1.727 4.176 1.727 6.904 0 4.209-1.727 7.595-5.179 10.16-3.452 2.564-7.973 3.846-13.562 3.846-5.983 0-10.816-1.348-14.499-4.044-3.649-2.728-5.474-6.23-5.474-10.504h2.663c.263 3.748 1.907 6.674 4.932 8.778 3.057 2.072 7.184 3.107 12.378 3.107 4.768 0 8.631-1.101 11.59-3.304 2.991-2.236 4.487-4.932 4.487-8.088ZM807.174 281h-2.663v-53.36h2.663V281Zm-4.044-70.029c0-.756.263-1.398.789-1.924.526-.559 1.168-.838 1.924-.838s1.397.279 1.923.838c.559.526.838 1.168.838 1.924s-.279 1.397-.838 1.923a2.617 2.617 0 0 1-1.923.789 2.62 2.62 0 0 1-1.924-.789 2.617 2.617 0 0 1-.789-1.923Zm62.336 43.842c0 8.318-1.792 14.926-5.375 19.825-3.584 4.899-8.466 7.348-14.647 7.348-4.011 0-7.595-.822-10.751-2.465-3.156-1.677-5.639-3.995-7.447-6.954V281h-2.663v-75.75h2.663v32.105c1.874-3.518 4.34-6.181 7.398-7.989 3.09-1.809 6.657-2.713 10.701-2.713 6.247 0 11.162 2.4 14.746 7.201 3.583 4.767 5.375 11.474 5.375 20.121v.838Zm-2.761-1.036c0-7.66-1.529-13.644-4.587-17.951-3.025-4.34-7.266-6.51-12.723-6.51-4.472 0-8.269 1.151-11.393 3.453-3.09 2.301-5.342 5.72-6.756 10.257v24.461c1.414 3.781 3.666 6.707 6.756 8.779 3.124 2.038 6.954 3.057 11.491 3.057 5.491 0 9.732-2.186 12.724-6.559 2.992-4.373 4.488-10.702 4.488-18.987ZM883.319 281h-2.663v-75.75h2.663V281Zm36.691.986c-4.307 0-8.268-1.15-11.885-3.452-3.584-2.334-6.395-5.523-8.433-9.567-2.039-4.044-3.058-8.532-3.058-13.464v-2.219c0-4.931.987-9.452 2.959-13.562 1.973-4.11 4.685-7.315 8.137-9.617 3.453-2.301 7.217-3.452 11.294-3.452 5.951 0 10.817 2.121 14.598 6.362 3.781 4.241 5.671 9.814 5.671 16.718v2.811h-39.996v2.91c0 4.34.904 8.367 2.713 12.083 1.841 3.682 4.356 6.575 7.545 8.679 3.222 2.104 6.707 3.157 10.455 3.157 3.584 0 6.625-.592 9.124-1.776 2.531-1.216 4.767-3.074 6.707-5.573l1.874 1.332c-3.978 5.754-9.88 8.63-17.705 8.63Zm-.986-52.67c-5.195 0-9.6 1.94-13.217 5.82-3.616 3.846-5.737 8.762-6.362 14.745h37.185v-.641c0-3.616-.773-6.97-2.318-10.06-1.512-3.124-3.617-5.54-6.312-7.25-2.664-1.742-5.655-2.614-8.976-2.614ZM979.93 281v-50.648h-9.272v-2.712h9.272v-7.792c.033-4.932 1.265-8.762 3.698-11.491 2.466-2.762 5.886-4.143 10.258-4.143 2.433 0 4.537.28 6.314.839l-.396 2.564c-1.709-.493-3.666-.74-5.868-.74-3.518 0-6.297 1.151-8.335 3.453-2.005 2.268-3.008 5.507-3.008 9.715v7.595h14.104v2.712h-14.104V281h-2.663Zm23.77-27.716c0-5.096.97-9.666 2.91-13.71 1.97-4.077 4.73-7.249 8.29-9.518 3.58-2.268 7.62-3.403 12.13-3.403 4.47 0 8.48 1.102 12.03 3.305 3.55 2.202 6.31 5.326 8.29 9.37 2 4.044 3.02 8.597 3.05 13.66v2.367c0 5.129-.97 9.716-2.91 13.76-1.94 4.044-4.7 7.2-8.28 9.468-3.55 2.269-7.58 3.403-12.08 3.403-4.51 0-8.55-1.118-12.14-3.353-3.55-2.236-6.31-5.359-8.28-9.37-1.97-4.044-2.98-8.581-3.01-13.612v-2.367Zm2.66 2.071c0 4.439.87 8.516 2.62 12.231 1.77 3.682 4.22 6.559 7.35 8.63 3.15 2.072 6.75 3.107 10.8 3.107 6.08 0 11.03-2.285 14.84-6.855 3.85-4.57 5.77-10.455 5.77-17.655v-1.529c0-4.373-.89-8.416-2.66-12.132-1.78-3.715-4.24-6.608-7.4-8.679-3.12-2.105-6.67-3.157-10.65-3.157-6.09 0-11.05 2.318-14.9 6.954-3.84 4.636-5.77 10.472-5.77 17.507v1.578Zm80.54-25.792-3.46-.296c-4.53 0-8.33 1.48-11.39 4.439-3.05 2.926-5.06 7.035-6.01 12.329V281h-2.67v-53.36h2.67v11.096c1.44-3.715 3.61-6.658 6.51-8.828 2.89-2.17 6.52-3.255 10.89-3.255 1.55 0 2.8.181 3.75.543l-.29 2.367Zm37.13 10.504c1.74-4.142 4.31-7.414 7.7-9.814 3.38-2.4 7.13-3.6 11.24-3.6 5.72 0 9.96 1.628 12.72 4.883 2.8 3.222 4.21 8.104 4.24 14.647V281h-2.66v-34.916c-.03-5.721-1.2-9.945-3.5-12.674-2.3-2.762-5.95-4.143-10.95-4.143-4.6 0-8.6 1.644-11.98 4.932-3.36 3.255-5.62 7.463-6.81 12.625V281h-2.66v-53.36h2.66v12.427Zm71.86 41.919c-4.31 0-8.27-1.15-11.89-3.452-3.58-2.334-6.39-5.523-8.43-9.567-2.04-4.044-3.06-8.532-3.06-13.464v-2.219c0-4.931.99-9.452 2.96-13.562 1.97-4.11 4.68-7.315 8.14-9.617 3.45-2.301 7.21-3.452 11.29-3.452 5.95 0 10.82 2.121 14.6 6.362 3.78 4.241 5.67 9.814 5.67 16.718v2.811h-40v2.91c0 4.34.91 8.367 2.72 12.083 1.84 3.682 4.35 6.575 7.54 8.679 3.22 2.104 6.71 3.157 10.46 3.157 3.58 0 6.62-.592 9.12-1.776 2.53-1.216 4.77-3.074 6.71-5.573l1.87 1.332c-3.98 5.754-9.88 8.63-17.7 8.63Zm-.99-52.67c-5.19 0-9.6 1.94-13.22 5.82-3.61 3.846-5.73 8.762-6.36 14.745h37.19v-.641c0-3.616-.78-6.97-2.32-10.06-1.51-3.124-3.62-5.54-6.31-7.25-2.67-1.742-5.66-2.614-8.98-2.614Zm38.66-16.077v14.401h12.14v2.712h-12.14v37.875c0 3.781.61 6.576 1.83 8.384 1.25 1.808 3.32 2.712 6.21 2.712 1.45 0 3.21-.148 5.28-.444l.44 2.516c-1.08.394-2.94.591-5.57.591-3.88 0-6.66-1.068-8.33-3.205-1.68-2.17-2.54-5.573-2.57-10.209v-38.22h-9.86v-2.712h9.86v-14.401h2.71Zm35.56 52.325 2.91 11.491 15.63-49.415h2.72l15.53 49.415 3.01-11.491 10.85-37.924h3.11L1307.34 281h-2.66l-13.17-40.094-2.51-9.568-2.72 9.568L1273.31 281h-2.66l-15.49-53.36h3.06l10.9 37.924Zm62.83-12.28c0-5.096.97-9.666 2.91-13.71 1.97-4.077 4.73-7.249 8.29-9.518 3.58-2.268 7.62-3.403 12.13-3.403 4.47 0 8.48 1.102 12.03 3.305 3.55 2.202 6.31 5.326 8.29 9.37 2 4.044 3.02 8.597 3.05 13.66v2.367c0 5.129-.97 9.716-2.91 13.76-1.94 4.044-4.7 7.2-8.28 9.468-3.55 2.269-7.58 3.403-12.08 3.403-4.51 0-8.55-1.118-12.14-3.353-3.55-2.236-6.31-5.359-8.28-9.37-1.97-4.044-2.98-8.581-3.01-13.612v-2.367Zm2.66 2.071c0 4.439.87 8.516 2.62 12.231 1.77 3.682 4.22 6.559 7.35 8.63 3.15 2.072 6.75 3.107 10.8 3.107 6.08 0 11.03-2.285 14.84-6.855 3.85-4.57 5.77-10.455 5.77-17.655v-1.529c0-4.373-.89-8.416-2.66-12.132-1.78-3.715-4.24-6.608-7.4-8.679-3.12-2.105-6.67-3.157-10.65-3.157-6.09 0-11.05 2.318-14.9 6.954-3.84 4.636-5.77 10.472-5.77 17.507v1.578Zm80.54-25.792-3.46-.296c-4.53 0-8.33 1.48-11.39 4.439-3.05 2.926-5.06 7.035-6.01 12.329V281h-2.67v-53.36h2.67v11.096c1.44-3.715 3.61-6.658 6.51-8.828 2.89-2.17 6.52-3.255 10.89-3.255 1.55 0 2.8.181 3.75.543l-.29 2.367Zm20.81 22.587-.1.099-7.74 6.657V281h-2.67v-75.75h2.67v50.747l6.26-5.918 24.26-22.439h3.8l-24.51 22.735L1463.97 281h-3.45l-24.56-28.85Zm70.23 15.781c0-6.477-5.53-10.882-16.58-13.217-6.64-1.413-11.26-3.222-13.85-5.424-2.6-2.236-3.9-5.294-3.9-9.173 0-3.913 1.64-7.135 4.93-9.666 3.32-2.532 7.63-3.798 12.92-3.798 5.76 0 10.38 1.381 13.86 4.143 3.49 2.729 5.23 6.427 5.23 11.096h-2.71c0-3.584-1.52-6.575-4.54-8.975-3.03-2.401-6.97-3.601-11.84-3.601-4.67 0-8.36 1.02-11.09 3.058-2.73 2.038-4.1 4.586-4.1 7.644 0 2.4.51 4.291 1.53 5.671 1.02 1.348 2.68 2.581 4.98 3.699 2.31 1.085 5.66 2.137 10.06 3.156 4.41 1.02 7.89 2.22 10.46 3.601 2.56 1.38 4.42 3.024 5.57 4.931 1.15 1.874 1.73 4.176 1.73 6.904 0 4.209-1.73 7.595-5.18 10.16-3.45 2.564-7.97 3.846-13.56 3.846-5.99 0-10.82-1.348-14.5-4.044-3.65-2.728-5.48-6.23-5.48-10.504h2.67c.26 3.748 1.9 6.674 4.93 8.778 3.06 2.072 7.18 3.107 12.38 3.107 4.77 0 8.63-1.101 11.59-3.304 2.99-2.236 4.49-4.932 4.49-8.088Zm47.54-54.692v14.401h12.13v2.712h-12.13v37.875c0 3.781.6 6.576 1.82 8.384 1.25 1.808 3.32 2.712 6.21 2.712 1.45 0 3.21-.148 5.28-.444l.45 2.516c-1.09.394-2.95.591-5.58.591-3.88 0-6.66-1.068-8.33-3.205-1.68-2.17-2.53-5.573-2.57-10.209v-38.22h-9.86v-2.712h9.86v-14.401h2.72Zm20.96 40.045c0-5.096.97-9.666 2.91-13.71 1.97-4.077 4.73-7.249 8.28-9.518 3.58-2.268 7.63-3.403 12.13-3.403 4.47 0 8.48 1.102 12.04 3.305 3.55 2.202 6.31 5.326 8.28 9.37 2.01 4.044 3.03 8.597 3.06 13.66v2.367c0 5.129-.97 9.716-2.91 13.76-1.94 4.044-4.7 7.2-8.29 9.468-3.55 2.269-7.57 3.403-12.08 3.403-4.5 0-8.55-1.118-12.13-3.353-3.55-2.236-6.31-5.359-8.29-9.37-1.97-4.044-2.97-8.581-3-13.612v-2.367Zm2.66 2.071c0 4.439.87 8.516 2.61 12.231 1.78 3.682 4.23 6.559 7.35 8.63 3.16 2.072 6.76 3.107 10.8 3.107 6.08 0 11.03-2.285 14.85-6.855 3.84-4.57 5.77-10.455 5.77-17.655v-1.529c0-4.373-.89-8.416-2.67-12.132-1.77-3.715-4.24-6.608-7.4-8.679-3.12-2.105-6.67-3.157-10.65-3.157-6.08 0-11.04 2.318-14.89 6.954-3.85 4.636-5.77 10.472-5.77 17.507v1.578ZM244.967 369.777c0-8.515 1.792-15.156 5.376-19.923 3.583-4.801 8.499-7.201 14.745-7.201 3.979 0 7.513.921 10.603 2.762 3.091 1.808 5.573 4.471 7.447 7.989v-9.764h2.713v52.423c0 7.036-1.809 12.526-5.425 16.472-3.617 3.978-8.532 5.967-14.746 5.967-3.583 0-6.871-.773-9.863-2.318-2.959-1.545-5.491-3.764-7.595-6.658l1.874-1.775c2.071 2.63 4.34 4.636 6.806 6.017 2.466 1.413 5.359 2.12 8.68 2.12 5.49 0 9.764-1.677 12.822-5.03 3.057-3.321 4.636-8.022 4.734-14.105v-8.186c-1.841 3.025-4.34 5.359-7.496 7.003-3.123 1.611-6.674 2.416-10.652 2.416-6.181 0-11.064-2.449-14.647-7.348-3.584-4.899-5.376-11.622-5.376-20.17v-.691Zm2.713 1.036c0 7.628 1.512 13.628 4.537 18 3.025 4.34 7.266 6.51 12.723 6.51 4.505 0 8.335-1.035 11.491-3.107 3.156-2.104 5.392-5.046 6.707-8.827v-24.215c-2.893-9.238-8.926-13.858-18.099-13.858-5.49 0-9.765 2.154-12.822 6.461-3.025 4.307-4.537 10.652-4.537 19.036Zm74.418 27.173c-4.307 0-8.269-1.15-11.885-3.452-3.584-2.334-6.395-5.523-8.433-9.567-2.039-4.044-3.058-8.532-3.058-13.464v-2.219c0-4.931.986-9.452 2.959-13.562 1.973-4.11 4.685-7.315 8.137-9.617 3.453-2.301 7.217-3.452 11.294-3.452 5.951 0 10.817 2.121 14.597 6.362 3.781 4.241 5.672 9.814 5.672 16.718v2.811h-39.996v2.91c0 4.34.904 8.367 2.713 12.083 1.841 3.682 4.356 6.575 7.545 8.679 3.222 2.104 6.707 3.157 10.455 3.157 3.584 0 6.625-.592 9.124-1.776 2.531-1.216 4.767-3.074 6.707-5.573l1.874 1.332c-3.978 5.754-9.88 8.63-17.705 8.63Zm-.986-52.67c-5.195 0-9.6 1.94-13.217 5.82-3.617 3.846-5.737 8.762-6.362 14.745h37.185v-.641c0-3.616-.773-6.97-2.318-10.06-1.512-3.124-3.617-5.54-6.313-7.25-2.663-1.742-5.655-2.614-8.975-2.614Zm35.36 10.751c1.742-4.142 4.307-7.414 7.693-9.814 3.386-2.4 7.134-3.6 11.244-3.6 5.721 0 9.962 1.628 12.724 4.883 2.794 3.222 4.208 8.104 4.241 14.647V397h-2.663v-34.916c-.033-5.721-1.2-9.945-3.502-12.674-2.301-2.762-5.95-4.143-10.948-4.143-4.603 0-8.597 1.644-11.984 4.932-3.353 3.255-5.622 7.463-6.805 12.625V397h-2.663v-53.36h2.663v12.427Zm71.854 41.919c-4.307 0-8.269-1.15-11.886-3.452-3.583-2.334-6.394-5.523-8.433-9.567-2.038-4.044-3.057-8.532-3.057-13.464v-2.219c0-4.931.986-9.452 2.959-13.562 1.972-4.11 4.685-7.315 8.137-9.617 3.452-2.301 7.217-3.452 11.293-3.452 5.951 0 10.817 2.121 14.598 6.362 3.781 4.241 5.671 9.814 5.671 16.718v2.811h-39.995v2.91c0 4.34.904 8.367 2.712 12.083 1.841 3.682 4.356 6.575 7.546 8.679 3.222 2.104 6.707 3.157 10.455 3.157 3.583 0 6.625-.592 9.123-1.776 2.532-1.216 4.767-3.074 6.707-5.573l1.874 1.332c-3.978 5.754-9.879 8.63-17.704 8.63Zm-.987-52.67c-5.194 0-9.6 1.94-13.216 5.82-3.617 3.846-5.738 8.762-6.362 14.745h37.184v-.641c0-3.616-.772-6.97-2.318-10.06-1.512-3.124-3.616-5.54-6.312-7.25-2.663-1.742-5.655-2.614-8.976-2.614Zm56.221.247-3.452-.296c-4.537 0-8.335 1.48-11.392 4.439-3.058 2.926-5.063 7.035-6.017 12.329V397h-2.663v-53.36h2.663v11.096c1.447-3.715 3.617-6.658 6.51-8.828 2.893-2.17 6.526-3.255 10.899-3.255 1.545 0 2.795.181 3.748.543l-.296 2.367ZM526.367 397c-.658-2.269-.987-5.523-.987-9.765-2.104 3.42-4.981 6.066-8.63 7.94-3.649 1.874-7.776 2.811-12.378 2.811-4.932 0-8.91-1.331-11.935-3.994-2.992-2.696-4.488-6.198-4.488-10.505 0-4.898 2.203-8.811 6.609-11.737 4.438-2.959 10.323-4.471 17.655-4.537h13.167v-7.792c0-4.471-1.413-7.94-4.241-10.406-2.794-2.466-6.806-3.699-12.033-3.699-4.866 0-8.926 1.25-12.181 3.748-3.255 2.499-4.883 5.59-4.883 9.272l-2.663-.099c0-4.34 1.907-8.022 5.721-11.047 3.814-3.024 8.483-4.537 14.006-4.537 5.754 0 10.324 1.447 13.71 4.34 3.386 2.861 5.129 6.904 5.227 12.132v25.497c0 5.852.461 9.83 1.381 11.934V397h-3.057Zm-21.995-1.627c4.997 0 9.288-1.118 12.871-3.354 3.617-2.236 6.329-5.375 8.137-9.419v-12.675h-12.329c-7.627 0-13.463 1.513-17.507 4.537-3.288 2.466-4.932 5.54-4.932 9.223 0 3.254 1.299 6.016 3.896 8.285 2.598 2.268 5.885 3.403 9.864 3.403Zm46.85-66.134v14.401h12.132v2.712h-12.132v37.875c0 3.781.608 6.576 1.825 8.384 1.249 1.808 3.321 2.712 6.214 2.712 1.446 0 3.205-.148 5.277-.444l.443 2.516c-1.085.394-2.942.591-5.572.591-3.88 0-6.658-1.068-8.335-3.205-1.677-2.17-2.531-5.573-2.564-10.209v-38.22h-9.864v-2.712h9.864v-14.401h2.712Zm45.174 68.747c-4.307 0-8.269-1.15-11.885-3.452-3.584-2.334-6.395-5.523-8.433-9.567-2.039-4.044-3.058-8.532-3.058-13.464v-2.219c0-4.931.986-9.452 2.959-13.562 1.973-4.11 4.685-7.315 8.137-9.617 3.452-2.301 7.217-3.452 11.294-3.452 5.951 0 10.816 2.121 14.597 6.362 3.781 4.241 5.672 9.814 5.672 16.718v2.811h-39.996v2.91c0 4.34.904 8.367 2.713 12.083 1.841 3.682 4.356 6.575 7.545 8.679 3.222 2.104 6.707 3.157 10.455 3.157 3.584 0 6.625-.592 9.124-1.776 2.531-1.216 4.767-3.074 6.707-5.573l1.874 1.332c-3.979 5.754-9.88 8.63-17.705 8.63Zm-.986-52.67c-5.195 0-9.601 1.94-13.217 5.82-3.617 3.846-5.737 8.762-6.362 14.745h37.185v-.641c0-3.616-.773-6.97-2.318-10.06-1.513-3.124-3.617-5.54-6.313-7.25-2.663-1.742-5.655-2.614-8.975-2.614Zm62.829-16.077v14.401h12.132v2.712h-12.132v37.875c0 3.781.608 6.576 1.824 8.384 1.25 1.808 3.321 2.712 6.214 2.712 1.447 0 3.206-.148 5.277-.444l.444 2.516c-1.085.394-2.942.591-5.573.591-3.879 0-6.657-1.068-8.334-3.205-1.677-2.17-2.532-5.573-2.565-10.209v-38.22h-9.863v-2.712h9.863v-14.401h2.713Zm28.653 26.828c1.742-4.142 4.307-7.414 7.693-9.814 3.386-2.4 7.134-3.6 11.244-3.6 5.721 0 9.962 1.628 12.724 4.883 2.794 3.222 4.208 8.104 4.241 14.647V397h-2.663v-34.916c-.033-5.721-1.2-9.945-3.502-12.674-2.301-2.762-5.95-4.143-10.948-4.143-4.603 0-8.597 1.644-11.984 4.932-3.353 3.255-5.622 7.463-6.805 12.625V397h-2.663v-75.75h2.663v34.817Zm71.854 41.919c-4.307 0-8.269-1.15-11.886-3.452-3.583-2.334-6.394-5.523-8.433-9.567-2.038-4.044-3.057-8.532-3.057-13.464v-2.219c0-4.931.986-9.452 2.959-13.562 1.972-4.11 4.685-7.315 8.137-9.617 3.452-2.301 7.216-3.452 11.293-3.452 5.951 0 10.817 2.121 14.598 6.362 3.781 4.241 5.671 9.814 5.671 16.718v2.811h-39.995v2.91c0 4.34.904 8.367 2.712 12.083 1.841 3.682 4.356 6.575 7.546 8.679 3.222 2.104 6.707 3.157 10.455 3.157 3.583 0 6.624-.592 9.123-1.776 2.532-1.216 4.767-3.074 6.707-5.573l1.874 1.332c-3.978 5.754-9.88 8.63-17.704 8.63Zm-.987-52.67c-5.194 0-9.6 1.94-13.217 5.82-3.616 3.846-5.737 8.762-6.361 14.745h37.184v-.641c0-3.616-.772-6.97-2.318-10.06-1.512-3.124-3.616-5.54-6.312-7.25-2.663-1.742-5.655-2.614-8.976-2.614ZM793.76 397h-2.663v-53.36h2.663V397Zm-4.044-70.029c0-.756.263-1.398.789-1.924.526-.559 1.168-.838 1.924-.838s1.397.279 1.923.838c.559.526.838 1.168.838 1.924s-.279 1.397-.838 1.923a2.617 2.617 0 0 1-1.923.789 2.62 2.62 0 0 1-1.924-.789 2.617 2.617 0 0 1-.789-1.923Zm45.076 18.592-3.453-.296c-4.537 0-8.334 1.48-11.392 4.439-3.057 2.926-5.063 7.035-6.016 12.329V397h-2.663v-53.36h2.663v11.096c1.446-3.715 3.616-6.658 6.509-8.828 2.894-2.17 6.527-3.255 10.899-3.255 1.546 0 2.795.181 3.748.543l-.295 2.367Zm30.428 23.721c0-5.096.97-9.666 2.909-13.71 1.973-4.077 4.735-7.249 8.286-9.518 3.583-2.268 7.627-3.403 12.131-3.403 4.472 0 8.483 1.102 12.034 3.305 3.55 2.202 6.312 5.326 8.285 9.37 2.005 4.044 3.024 8.597 3.057 13.66v2.367c0 5.129-.97 9.716-2.909 13.76-1.94 4.044-4.702 7.2-8.285 9.468-3.551 2.269-7.579 3.403-12.083 3.403-4.504 0-8.548-1.118-12.132-3.353-3.551-2.236-6.312-5.359-8.285-9.37-1.973-4.044-2.975-8.581-3.008-13.612v-2.367Zm2.663 2.071c0 4.439.871 8.516 2.614 12.231 1.775 3.682 4.224 6.559 7.348 8.63 3.156 2.072 6.756 3.107 10.8 3.107 6.082 0 11.03-2.285 14.844-6.855 3.847-4.57 5.77-10.455 5.77-17.655v-1.529c0-4.373-.887-8.416-2.663-12.132-1.775-3.715-4.241-6.608-7.397-8.679-3.124-2.105-6.674-3.157-10.653-3.157-6.082 0-11.046 2.318-14.893 6.954-3.847 4.636-5.77 10.472-5.77 17.507v1.578Zm66.577 10.209 2.91 11.491 15.633-49.415h2.712l15.535 49.415 3.008-11.491 10.85-37.924h3.107L972.68 397h-2.663l-13.167-40.094-2.516-9.568-2.712 9.568L938.652 397h-2.663l-15.486-53.36h3.058l10.899 37.924Zm69.54-25.497c1.74-4.142 4.3-7.414 7.69-9.814 3.39-2.4 7.13-3.6 11.24-3.6 5.72 0 9.97 1.628 12.73 4.883 2.79 3.222 4.21 8.104 4.24 14.647V397h-2.66v-34.916c-.04-5.721-1.2-9.945-3.51-12.674-2.3-2.762-5.95-4.143-10.94-4.143-4.61 0-8.6 1.644-11.99 4.932-3.35 3.255-5.62 7.463-6.8 12.625V397h-2.67v-53.36h2.67v12.427Zm79.49 0c1.75-4.142 4.31-7.414 7.7-9.814 3.38-2.4 7.13-3.6 11.24-3.6 5.72 0 9.96 1.628 12.73 4.883 2.79 3.222 4.2 8.104 4.24 14.647V397h-2.67v-34.916c-.03-5.721-1.2-9.945-3.5-12.674-2.3-2.762-5.95-4.143-10.95-4.143-4.6 0-8.59 1.644-11.98 4.932-3.35 3.255-5.62 7.463-6.81 12.625V397h-2.66v-53.36h2.66v12.427Zm48.63 13.217c0-5.096.97-9.666 2.91-13.71 1.97-4.077 4.73-7.249 8.28-9.518 3.59-2.268 7.63-3.403 12.14-3.403 4.47 0 8.48 1.102 12.03 3.305 3.55 2.202 6.31 5.326 8.29 9.37 2 4.044 3.02 8.597 3.05 13.66v2.367c0 5.129-.97 9.716-2.91 13.76-1.94 4.044-4.7 7.2-8.28 9.468-3.55 2.269-7.58 3.403-12.08 3.403-4.51 0-8.55-1.118-12.14-3.353-3.55-2.236-6.31-5.359-8.28-9.37-1.97-4.044-2.98-8.581-3.01-13.612v-2.367Zm2.66 2.071c0 4.439.87 8.516 2.62 12.231 1.77 3.682 4.22 6.559 7.35 8.63 3.15 2.072 6.75 3.107 10.8 3.107 6.08 0 11.03-2.285 14.84-6.855 3.85-4.57 5.77-10.455 5.77-17.655v-1.529c0-4.373-.89-8.416-2.66-12.132-1.78-3.715-4.24-6.608-7.4-8.679-3.12-2.105-6.68-3.157-10.65-3.157-6.09 0-11.05 2.318-14.9 6.954-3.84 4.636-5.77 10.472-5.77 17.507v1.578Zm54.55-1.578c0-8.515 1.79-15.156 5.37-19.923 3.59-4.801 8.5-7.201 14.75-7.201 4.01 0 7.54.904 10.6 2.713 3.09 1.808 5.59 4.504 7.5 8.088V321.25h2.66V397h-2.66v-8.532c-1.81 3.025-4.29 5.376-7.45 7.053-3.16 1.643-6.74 2.465-10.75 2.465-6.18 0-11.06-2.449-14.65-7.348-3.58-4.899-5.37-11.622-5.37-20.17v-.691Zm2.76 1.036c0 7.562 1.49 13.546 4.49 17.951 2.99 4.373 7.23 6.559 12.72 6.559 4.41 0 8.17-.97 11.29-2.909 3.13-1.973 5.44-4.85 6.96-8.631V358.78c-3.06-8.976-9.11-13.464-18.15-13.464-5.46 0-9.72 2.154-12.77 6.461-3.03 4.307-4.54 10.652-4.54 19.036Zm74.22 27.173c-4.31 0-8.27-1.15-11.89-3.452-3.58-2.334-6.39-5.523-8.43-9.567-2.04-4.044-3.06-8.532-3.06-13.464v-2.219c0-4.931.99-9.452 2.96-13.562 1.98-4.11 4.69-7.315 8.14-9.617 3.45-2.301 7.22-3.452 11.29-3.452 5.95 0 10.82 2.121 14.6 6.362 3.78 4.241 5.67 9.814 5.67 16.718v2.811h-39.99v2.91c0 4.34.9 8.367 2.71 12.083 1.84 3.682 4.36 6.575 7.54 8.679 3.23 2.104 6.71 3.157 10.46 3.157 3.58 0 6.62-.592 9.12-1.776 2.54-1.216 4.77-3.074 6.71-5.573l1.87 1.332c-3.97 5.754-9.88 8.63-17.7 8.63Zm-.99-52.67c-5.19 0-9.6 1.94-13.21 5.82-3.62 3.846-5.74 8.762-6.36 14.745h37.18v-.641c0-3.616-.77-6.97-2.32-10.06-1.51-3.124-3.61-5.54-6.31-7.25-2.66-1.742-5.66-2.614-8.98-2.614Zm65.59 38.615c0-6.477-5.52-10.882-16.57-13.217-6.64-1.413-11.26-3.222-13.85-5.424-2.6-2.236-3.9-5.294-3.9-9.173 0-3.913 1.64-7.135 4.93-9.666 3.32-2.532 7.63-3.798 12.92-3.798 5.76 0 10.38 1.381 13.86 4.143 3.49 2.729 5.23 6.427 5.23 11.096h-2.71c0-3.584-1.52-6.575-4.54-8.975-3.03-2.401-6.97-3.601-11.84-3.601-4.67 0-8.36 1.02-11.09 3.058-2.73 2.038-4.1 4.586-4.1 7.644 0 2.4.51 4.291 1.53 5.671 1.02 1.348 2.68 2.581 4.98 3.699 2.3 1.085 5.66 2.137 10.06 3.156 4.41 1.02 7.89 2.22 10.46 3.601 2.56 1.38 4.42 3.024 5.57 4.931 1.15 1.874 1.73 4.176 1.73 6.904 0 4.209-1.73 7.595-5.18 10.16-3.45 2.564-7.97 3.846-13.56 3.846-5.99 0-10.82-1.348-14.5-4.044-3.65-2.728-5.48-6.23-5.48-10.504h2.67c.26 3.748 1.9 6.674 4.93 8.778 3.06 2.072 7.18 3.107 12.38 3.107 4.76 0 8.63-1.101 11.59-3.304 2.99-2.236 4.48-4.932 4.48-8.088Zm15.29 25.645-1.82-1.578c2.66-3.42 4.11-6.954 4.34-10.603l.05-8.236h2.66v7.2c-.13 5.227-1.87 9.633-5.23 13.217Zm86.01-38.763c0 8.318-1.79 14.926-5.38 19.825-3.58 4.899-8.46 7.348-14.64 7.348-4.01 0-7.6-.822-10.75-2.465-3.16-1.677-5.64-3.995-7.45-6.954V397h-2.66v-75.75h2.66v32.105c1.87-3.518 4.34-6.181 7.4-7.989 3.09-1.809 6.66-2.713 10.7-2.713 6.25 0 11.16 2.4 14.74 7.201 3.59 4.767 5.38 11.474 5.38 20.121v.838Zm-2.76-1.036c0-7.66-1.53-13.644-4.59-17.951-3.02-4.34-7.26-6.51-12.72-6.51-4.47 0-8.27 1.151-11.39 3.453-3.09 2.301-5.35 5.72-6.76 10.257v24.461c1.41 3.781 3.67 6.707 6.76 8.779 3.12 2.038 6.95 3.057 11.49 3.057 5.49 0 9.73-2.186 12.72-6.559s4.49-10.702 4.49-18.987ZM1482.51 397v-8.63c-1.57 2.959-3.88 5.309-6.9 7.052-3.03 1.71-6.86 2.564-11.49 2.564-5.82 0-10.19-1.693-13.12-5.079-2.89-3.42-4.37-8.384-4.44-14.894V343.64h2.66v34.472c.07 5.655 1.35 9.945 3.85 12.871 2.5 2.894 6.15 4.34 10.95 4.34 5.1 0 9.24-1.2 12.43-3.6 3.19-2.4 5.21-5.918 6.06-10.554V343.64h2.72V397h-2.72Zm25.55-67.761v14.401h12.13v2.712h-12.13v37.875c0 3.781.61 6.576 1.82 8.384 1.25 1.808 3.32 2.712 6.22 2.712 1.44 0 3.2-.148 5.27-.444l.45 2.516c-1.09.394-2.94.591-5.57.591-3.88 0-6.66-1.068-8.34-3.205-1.68-2.17-2.53-5.573-2.56-10.209v-38.22h-9.87v-2.712h9.87v-14.401h2.71ZM263.806 508.857l.345-.986 18.445-48.231h2.959l-23.869 62.631-1.184 2.959c-2.564 6.214-6.806 9.321-12.724 9.321-1.907 0-3.222-.181-3.945-.542l-.049-2.515c1.052.296 2.252.444 3.6.444 2.794 0 5.112-.822 6.953-2.466 1.842-1.611 3.436-4.258 4.784-7.94l3.255-8.828-21.255-53.064h2.909l19.776 49.217Zm27.075-23.573c0-5.096.97-9.666 2.91-13.71 1.972-4.077 4.734-7.249 8.285-9.518 3.583-2.268 7.627-3.403 12.132-3.403 4.471 0 8.482 1.102 12.033 3.305 3.551 2.202 6.312 5.326 8.285 9.37 2.005 4.044 3.025 8.597 3.057 13.66v2.367c0 5.129-.969 9.716-2.909 13.76-1.94 4.044-4.702 7.2-8.285 9.468-3.551 2.269-7.579 3.403-12.083 3.403-4.504 0-8.548-1.118-12.132-3.353-3.55-2.236-6.312-5.359-8.285-9.37-1.972-4.044-2.975-8.581-3.008-13.612v-2.367Zm2.663 2.071c0 4.439.871 8.516 2.614 12.231 1.775 3.682 4.224 6.559 7.348 8.63 3.156 2.072 6.756 3.107 10.8 3.107 6.083 0 11.031-2.285 14.844-6.855 3.847-4.57 5.77-10.455 5.77-17.655v-1.529c0-4.373-.887-8.416-2.663-12.132-1.775-3.715-4.241-6.608-7.397-8.679-3.124-2.105-6.674-3.157-10.652-3.157-6.083 0-11.047 2.318-14.894 6.954-3.847 4.636-5.77 10.472-5.77 17.507v1.578ZM386.308 513v-8.63c-1.578 2.959-3.879 5.309-6.904 7.052-3.025 1.71-6.855 2.564-11.491 2.564-5.819 0-10.192-1.693-13.118-5.079-2.893-3.42-4.373-8.384-4.439-14.894V459.64h2.664v34.472c.065 5.655 1.348 9.945 3.846 12.871 2.499 2.894 6.148 4.34 10.948 4.34 5.096 0 9.239-1.2 12.428-3.6 3.189-2.4 5.211-5.918 6.066-10.554V459.64h2.713V513h-2.713Zm78.216 0c-.658-2.269-.986-5.523-.986-9.765-2.105 3.42-4.981 6.066-8.631 7.94-3.649 1.874-7.775 2.811-12.378 2.811-4.932 0-8.91-1.331-11.935-3.994-2.992-2.696-4.488-6.198-4.488-10.505 0-4.898 2.203-8.811 6.609-11.737 4.438-2.959 10.323-4.471 17.655-4.537h13.168v-7.792c0-4.471-1.414-7.94-4.242-10.406-2.794-2.466-6.805-3.699-12.033-3.699-4.866 0-8.926 1.25-12.181 3.748-3.255 2.499-4.882 5.59-4.882 9.272l-2.663-.099c0-4.34 1.907-8.022 5.72-11.047 3.814-3.024 8.483-4.537 14.006-4.537 5.754 0 10.324 1.447 13.71 4.34 3.387 2.861 5.129 6.904 5.228 12.132v25.497c0 5.852.46 9.83 1.381 11.934V513h-3.058Zm-21.995-1.627c4.997 0 9.288-1.118 12.871-3.354 3.617-2.236 6.329-5.375 8.138-9.419v-12.675h-12.33c-7.627 0-13.463 1.513-17.507 4.537-3.288 2.466-4.931 5.54-4.931 9.223 0 3.254 1.298 6.016 3.896 8.285 2.597 2.268 5.885 3.403 9.863 3.403Zm64.407-49.81-3.452-.296c-4.537 0-8.335 1.48-11.392 4.439-3.058 2.926-5.063 7.035-6.017 12.329V513h-2.663v-53.36h2.663v11.096c1.447-3.715 3.617-6.658 6.51-8.828 2.893-2.17 6.526-3.255 10.899-3.255 1.545 0 2.794.181 3.748.543l-.296 2.367Zm28.505 52.423c-4.307 0-8.269-1.15-11.885-3.452-3.584-2.334-6.395-5.523-8.433-9.567-2.039-4.044-3.058-8.532-3.058-13.464v-2.219c0-4.931.986-9.452 2.959-13.562 1.973-4.11 4.685-7.315 8.137-9.617 3.452-2.301 7.217-3.452 11.294-3.452 5.95 0 10.816 2.121 14.597 6.362 3.781 4.241 5.672 9.814 5.672 16.718v2.811h-39.996v2.91c0 4.34.904 8.367 2.712 12.083 1.842 3.682 4.357 6.575 7.546 8.679 3.222 2.104 6.707 3.157 10.455 3.157 3.584 0 6.625-.592 9.123-1.776 2.532-1.216 4.768-3.074 6.707-5.573l1.875 1.332c-3.979 5.754-9.88 8.63-17.705 8.63Zm-.986-52.67c-5.195 0-9.601 1.94-13.217 5.82-3.617 3.846-5.737 8.762-6.362 14.745h37.185v-.641c0-3.616-.773-6.97-2.318-10.06-1.513-3.124-3.617-5.54-6.313-7.25-2.663-1.742-5.655-2.614-8.975-2.614ZM653.652 513h-2.663v-35.853c-.033-5.359-1.216-9.337-3.551-11.935-2.301-2.63-5.983-3.945-11.046-3.945-5.853 0-10.636 2.581-14.351 7.743a25.943 25.943 0 0 0-4.39 10.258V513h-2.712v-53.36h2.712v12.625c1.809-4.34 4.39-7.694 7.743-10.061 3.354-2.367 7.069-3.551 11.146-3.551 4.471 0 8.12.987 10.948 2.959 2.86 1.973 4.734 5.195 5.622 9.666 1.578-3.846 4.142-6.904 7.693-9.173 3.551-2.301 7.529-3.452 11.935-3.452 5.753 0 10.027 1.628 12.822 4.883 2.828 3.255 4.258 8.137 4.291 14.647V513h-2.663v-34.62c0-5.852-1.184-10.176-3.551-12.97-2.335-2.828-6.017-4.209-11.047-4.143-6.477.099-11.606 2.68-15.387 7.743-2.17 2.926-3.353 5.753-3.551 8.482V513Zm48.33-27.716c0-5.096.97-9.666 2.91-13.71 1.973-4.077 4.734-7.249 8.285-9.518 3.584-2.268 7.628-3.403 12.132-3.403 4.471 0 8.483 1.102 12.033 3.305 3.551 2.202 6.313 5.326 8.285 9.37 2.006 4.044 3.025 8.597 3.058 13.66v2.367c0 5.129-.97 9.716-2.91 13.76-1.939 4.044-4.701 7.2-8.285 9.468-3.551 2.269-7.578 3.403-12.082 3.403-4.505 0-8.548-1.118-12.132-3.353-3.551-2.236-6.313-5.359-8.285-9.37-1.973-4.044-2.976-8.581-3.009-13.612v-2.367Zm2.664 2.071c0 4.439.871 8.516 2.613 12.231 1.776 3.682 4.225 6.559 7.348 8.63 3.157 2.072 6.757 3.107 10.801 3.107 6.082 0 11.03-2.285 14.844-6.855 3.847-4.57 5.77-10.455 5.77-17.655v-1.529c0-4.373-.888-8.416-2.663-12.132-1.776-3.715-4.241-6.608-7.398-8.679-3.123-2.105-6.674-3.157-10.652-3.157-6.082 0-11.047 2.318-14.893 6.954-3.847 4.636-5.77 10.472-5.77 17.507v1.578Zm80.533-25.792-3.452-.296c-4.537 0-8.334 1.48-11.392 4.439-3.058 2.926-5.063 7.035-6.017 12.329V513h-2.663v-53.36h2.663v11.096c1.447-3.715 3.617-6.658 6.51-8.828 2.893-2.17 6.526-3.255 10.899-3.255 1.545 0 2.795.181 3.748.543l-.296 2.367Zm28.505 52.423c-4.307 0-8.269-1.15-11.885-3.452-3.584-2.334-6.395-5.523-8.433-9.567-2.039-4.044-3.058-8.532-3.058-13.464v-2.219c0-4.931.986-9.452 2.959-13.562 1.973-4.11 4.685-7.315 8.137-9.617 3.452-2.301 7.217-3.452 11.294-3.452 5.951 0 10.816 2.121 14.597 6.362 3.781 4.241 5.672 9.814 5.672 16.718v2.811h-39.996v2.91c0 4.34.904 8.367 2.713 12.083 1.841 3.682 4.356 6.575 7.545 8.679 3.222 2.104 6.707 3.157 10.455 3.157 3.584 0 6.625-.592 9.124-1.776 2.531-1.216 4.767-3.074 6.707-5.573l1.874 1.332c-3.979 5.754-9.88 8.63-17.705 8.63Zm-.986-52.67c-5.195 0-9.601 1.94-13.217 5.82-3.617 3.846-5.737 8.762-6.362 14.745h37.185v-.641c0-3.616-.773-6.97-2.318-10.06-1.513-3.124-3.617-5.54-6.313-7.25-2.663-1.742-5.655-2.614-8.975-2.614Zm62.829-16.077v14.401h12.132v2.712h-12.132v37.875c0 3.781.608 6.576 1.825 8.384 1.249 1.808 3.32 2.712 6.213 2.712 1.447 0 3.206-.148 5.277-.444l.444 2.516c-1.085.394-2.942.591-5.573.591-3.879 0-6.657-1.068-8.334-3.205-1.677-2.17-2.532-5.573-2.565-10.209v-38.22h-9.863v-2.712h9.863v-14.401h2.713Zm28.653 26.828c1.742-4.142 4.307-7.414 7.693-9.814 3.386-2.4 7.134-3.6 11.244-3.6 5.721 0 9.962 1.628 12.724 4.883 2.794 3.222 4.208 8.104 4.241 14.647V513h-2.663v-34.916c-.033-5.721-1.2-9.945-3.502-12.674-2.301-2.762-5.95-4.143-10.948-4.143-4.603 0-8.597 1.644-11.984 4.932-3.353 3.255-5.622 7.463-6.805 12.625V513h-2.663v-75.75h2.663v34.817ZM991.322 513c-.658-2.269-.987-5.523-.987-9.765-2.104 3.42-4.981 6.066-8.63 7.94-3.649 1.874-7.775 2.811-12.378 2.811-4.932 0-8.91-1.331-11.935-3.994-2.992-2.696-4.488-6.198-4.488-10.505 0-4.898 2.203-8.811 6.609-11.737 4.438-2.959 10.323-4.471 17.655-4.537h13.167v-7.792c0-4.471-1.413-7.94-4.241-10.406-2.794-2.466-6.805-3.699-12.033-3.699-4.866 0-8.926 1.25-12.181 3.748-3.255 2.499-4.882 5.59-4.882 9.272l-2.664-.099c0-4.34 1.907-8.022 5.721-11.047 3.814-3.024 8.483-4.537 14.006-4.537 5.754 0 10.324 1.447 13.71 4.34 3.386 2.861 5.129 6.904 5.228 12.132v25.497c0 5.852.46 9.83 1.38 11.934V513h-3.057Zm-21.995-1.627c4.997 0 9.288-1.118 12.871-3.354 3.617-2.236 6.329-5.375 8.137-9.419v-12.675h-12.329c-7.627 0-13.463 1.513-17.507 4.537-3.288 2.466-4.932 5.54-4.932 9.223 0 3.254 1.299 6.016 3.896 8.285 2.598 2.268 5.885 3.403 9.864 3.403Zm43.543-39.306c1.75-4.142 4.31-7.414 7.7-9.814 3.38-2.4 7.13-3.6 11.24-3.6 5.72 0 9.96 1.628 12.72 4.883 2.8 3.222 4.21 8.104 4.25 14.647V513h-2.67v-34.916c-.03-5.721-1.2-9.945-3.5-12.674-2.3-2.762-5.95-4.143-10.95-4.143-4.6 0-8.59 1.644-11.98 4.932-3.35 3.255-5.62 7.463-6.81 12.625V513h-2.66v-53.36h2.66v12.427Zm86.41 25.497 2.91 11.491 15.63-49.415h2.71l15.54 49.415 3-11.491 10.85-37.924h3.11L1137.5 513h-2.67l-13.16-40.094-2.52-9.568-2.71 9.568L1103.47 513h-2.67l-15.48-53.36h3.06l10.9 37.924Zm86.05 16.422c-4.3 0-8.27-1.15-11.88-3.452-3.59-2.334-6.4-5.523-8.44-9.567-2.03-4.044-3.05-8.532-3.05-13.464v-2.219c0-4.931.98-9.452 2.96-13.562 1.97-4.11 4.68-7.315 8.13-9.617 3.45-2.301 7.22-3.452 11.3-3.452 5.95 0 10.81 2.121 14.59 6.362 3.78 4.241 5.68 9.814 5.68 16.718v2.811h-40v2.91c0 4.34.9 8.367 2.71 12.083 1.84 3.682 4.36 6.575 7.55 8.679 3.22 2.104 6.7 3.157 10.45 3.157 3.59 0 6.63-.592 9.13-1.776 2.53-1.216 4.76-3.074 6.7-5.573l1.88 1.332c-3.98 5.754-9.88 8.63-17.71 8.63Zm-.98-52.67c-5.2 0-9.6 1.94-13.22 5.82-3.62 3.846-5.74 8.762-6.36 14.745h37.18v-.641c0-3.616-.77-6.97-2.32-10.06-1.51-3.124-3.61-5.54-6.31-7.25-2.66-1.742-5.65-2.614-8.97-2.614Zm36 51.684h-2.67v-75.75h2.67V513Zm35.6-1.677c4.84 0 8.81-1.282 11.94-3.846 3.15-2.565 4.88-6.116 5.18-10.653h2.66c-.26 5.162-2.25 9.321-5.97 12.477-3.71 3.124-8.32 4.685-13.81 4.685-6.67 0-11.98-2.416-15.93-7.249-3.91-4.833-5.86-11.392-5.86-19.677v-1.776c0-8.088 1.95-14.548 5.86-19.381 3.95-4.833 9.23-7.25 15.83-7.25 5.66 0 10.33 1.694 14.01 5.08 3.68 3.386 5.64 7.891 5.87 13.513h-2.66c-.23-4.801-1.93-8.647-5.08-11.54-3.13-2.927-7.17-4.39-12.14-4.39-5.95 0-10.61 2.154-14 6.461-3.35 4.274-5.03 10.225-5.03 17.852v1.726c0 7.464 1.69 13.332 5.08 17.606 3.42 4.242 8.1 6.362 14.05 6.362Zm29.15-26.039c0-5.096.97-9.666 2.91-13.71 1.97-4.077 4.73-7.249 8.28-9.518 3.59-2.268 7.63-3.403 12.14-3.403 4.47 0 8.48 1.102 12.03 3.305 3.55 2.202 6.31 5.326 8.28 9.37 2.01 4.044 3.03 8.597 3.06 13.66v2.367c0 5.129-.97 9.716-2.91 13.76-1.94 4.044-4.7 7.2-8.28 9.468-3.55 2.269-7.58 3.403-12.09 3.403-4.5 0-8.54-1.118-12.13-3.353-3.55-2.236-6.31-5.359-8.28-9.37-1.97-4.044-2.98-8.581-3.01-13.612v-2.367Zm2.66 2.071c0 4.439.87 8.516 2.62 12.231 1.77 3.682 4.22 6.559 7.34 8.63 3.16 2.072 6.76 3.107 10.8 3.107 6.09 0 11.04-2.285 14.85-6.855 3.85-4.57 5.77-10.455 5.77-17.655v-1.529c0-4.373-.89-8.416-2.66-12.132-1.78-3.715-4.25-6.608-7.4-8.679-3.12-2.105-6.68-3.157-10.65-3.157-6.09 0-11.05 2.318-14.9 6.954-3.84 4.636-5.77 10.472-5.77 17.507v1.578ZM1382.94 513h-2.66v-35.853c-.03-5.359-1.22-9.337-3.55-11.935-2.3-2.63-5.98-3.945-11.05-3.945-5.85 0-10.63 2.581-14.35 7.743-2.2 3.09-3.66 6.51-4.39 10.258V513h-2.71v-53.36h2.71v12.625c1.81-4.34 4.39-7.694 7.75-10.061 3.35-2.367 7.06-3.551 11.14-3.551 4.47 0 8.12.987 10.95 2.959 2.86 1.973 4.73 5.195 5.62 9.666 1.58-3.846 4.14-6.904 7.69-9.173 3.56-2.301 7.53-3.452 11.94-3.452 5.75 0 10.03 1.628 12.82 4.883 2.83 3.255 4.26 8.137 4.29 14.647V513h-2.66v-34.62c0-5.852-1.19-10.176-3.55-12.97-2.34-2.828-6.02-4.209-11.05-4.143-6.48.099-11.6 2.68-15.39 7.743-2.17 2.926-3.35 5.753-3.55 8.482V513Zm71.56.986c-4.31 0-8.27-1.15-11.88-3.452-3.59-2.334-6.4-5.523-8.44-9.567-2.04-4.044-3.05-8.532-3.05-13.464v-2.219c0-4.931.98-9.452 2.95-13.562 1.98-4.11 4.69-7.315 8.14-9.617 3.45-2.301 7.22-3.452 11.3-3.452 5.95 0 10.81 2.121 14.59 6.362 3.78 4.241 5.67 9.814 5.67 16.718v2.811h-39.99v2.91c0 4.34.9 8.367 2.71 12.083 1.84 3.682 4.36 6.575 7.55 8.679 3.22 2.104 6.7 3.157 10.45 3.157 3.59 0 6.63-.592 9.12-1.776 2.54-1.216 4.77-3.074 6.71-5.573l1.88 1.332c-3.98 5.754-9.88 8.63-17.71 8.63Zm-.98-52.67c-5.2 0-9.61 1.94-13.22 5.82-3.62 3.846-5.74 8.762-6.36 14.745h37.18v-.641c0-3.616-.77-6.97-2.32-10.06-1.51-3.124-3.61-5.54-6.31-7.25-2.66-1.742-5.65-2.614-8.97-2.614Zm62.82-16.077v14.401h12.14v2.712h-12.14v37.875c0 3.781.61 6.576 1.83 8.384 1.25 1.808 3.32 2.712 6.21 2.712 1.45 0 3.21-.148 5.28-.444l.44 2.516c-1.08.394-2.94.591-5.57.591-3.88 0-6.66-1.068-8.33-3.205-1.68-2.17-2.54-5.573-2.57-10.209v-38.22h-9.86v-2.712h9.86v-14.401h2.71Zm20.96 40.045c0-5.096.97-9.666 2.91-13.71 1.98-4.077 4.74-7.249 8.29-9.518 3.58-2.268 7.63-3.403 12.13-3.403 4.47 0 8.48 1.102 12.03 3.305 3.55 2.202 6.32 5.326 8.29 9.37 2 4.044 3.02 8.597 3.06 13.66v2.367c0 5.129-.97 9.716-2.91 13.76-1.94 4.044-4.7 7.2-8.29 9.468-3.55 2.269-7.58 3.403-12.08 3.403-4.51 0-8.55-1.118-12.13-3.353-3.55-2.236-6.32-5.359-8.29-9.37-1.97-4.044-2.97-8.581-3.01-13.612v-2.367Zm2.67 2.071c0 4.439.87 8.516 2.61 12.231 1.78 3.682 4.23 6.559 7.35 8.63 3.15 2.072 6.76 3.107 10.8 3.107 6.08 0 11.03-2.285 14.84-6.855 3.85-4.57 5.77-10.455 5.77-17.655v-1.529c0-4.373-.88-8.416-2.66-12.132-1.78-3.715-4.24-6.608-7.4-8.679-3.12-2.105-6.67-3.157-10.65-3.157-6.08 0-11.05 2.318-14.89 6.954-3.85 4.636-5.77 10.472-5.77 17.507v1.578ZM250.836 575.64v59.722c0 4.931-1.233 8.696-3.699 11.293-2.466 2.598-5.918 3.896-10.356 3.896-1.611 0-3.222-.329-4.833-.986l.148-2.565c1.578.592 3.14.888 4.685.888 3.682 0 6.493-1.101 8.433-3.304 1.973-2.17 2.959-5.244 2.959-9.222V575.64h2.663Zm-3.797-16.669c0-.756.263-1.398.789-1.924.526-.559 1.167-.838 1.923-.838s1.397.279 1.923.838c.559.526.839 1.168.839 1.924s-.28 1.397-.839 1.923a2.617 2.617 0 0 1-1.923.789 2.617 2.617 0 0 1-1.923-.789 2.617 2.617 0 0 1-.789-1.923Zm18.395 42.313c0-5.096.969-9.666 2.909-13.71 1.973-4.077 4.735-7.249 8.285-9.518 3.584-2.268 7.628-3.403 12.132-3.403 4.472 0 8.483 1.102 12.033 3.305 3.551 2.202 6.313 5.326 8.286 9.37 2.005 4.044 3.024 8.597 3.057 13.66v2.367c0 5.129-.97 9.716-2.909 13.76-1.94 4.044-4.702 7.2-8.286 9.468-3.55 2.269-7.578 3.403-12.082 3.403-4.504 0-8.548-1.118-12.132-3.353-3.551-2.236-6.312-5.359-8.285-9.37-1.973-4.044-2.976-8.581-3.008-13.612v-2.367Zm2.663 2.071c0 4.439.871 8.516 2.613 12.231 1.776 3.682 4.225 6.559 7.349 8.63 3.156 2.072 6.756 3.107 10.8 3.107 6.082 0 11.03-2.285 14.844-6.855 3.847-4.57 5.77-10.455 5.77-17.655v-1.529c0-4.373-.888-8.416-2.663-12.132-1.775-3.715-4.241-6.608-7.397-8.679-3.124-2.105-6.675-3.157-10.653-3.157-6.082 0-11.047 2.318-14.893 6.954-3.847 4.636-5.77 10.472-5.77 17.507v1.578ZM328.411 629h-2.663v-53.36h2.663V629Zm-4.044-70.029c0-.756.263-1.398.789-1.924.526-.559 1.167-.838 1.923-.838s1.397.279 1.923.838c.559.526.839 1.168.839 1.924s-.28 1.397-.839 1.923a2.617 2.617 0 0 1-1.923.789 2.617 2.617 0 0 1-1.923-.789 2.617 2.617 0 0 1-.789-1.923Zm24.214 29.096c1.743-4.142 4.307-7.414 7.693-9.814 3.387-2.4 7.135-3.6 11.245-3.6 5.72 0 9.961 1.628 12.723 4.883 2.795 3.222 4.209 8.104 4.241 14.647V629h-2.663v-34.916c-.033-5.721-1.2-9.945-3.501-12.674-2.302-2.762-5.951-4.143-10.948-4.143-4.603 0-8.598 1.644-11.984 4.932-3.354 3.255-5.622 7.463-6.806 12.625V629h-2.663v-53.36h2.663v12.427Zm72.791 13.217c0-5.096.97-9.666 2.91-13.71 1.972-4.077 4.734-7.249 8.285-9.518 3.584-2.268 7.627-3.403 12.132-3.403 4.471 0 8.482 1.102 12.033 3.305 3.551 2.202 6.312 5.326 8.285 9.37 2.006 4.044 3.025 8.597 3.058 13.66v2.367c0 5.129-.97 9.716-2.91 13.76-1.94 4.044-4.701 7.2-8.285 9.468-3.551 2.269-7.578 3.403-12.083 3.403-4.504 0-8.548-1.118-12.131-3.353-3.551-2.236-6.313-5.359-8.286-9.37-1.972-4.044-2.975-8.581-3.008-13.612v-2.367Zm2.663 2.071c0 4.439.871 8.516 2.614 12.231 1.775 3.682 4.225 6.559 7.348 8.63 3.156 2.072 6.756 3.107 10.8 3.107 6.083 0 11.031-2.285 14.845-6.855 3.846-4.57 5.77-10.455 5.77-17.655v-1.529c0-4.373-.888-8.416-2.663-12.132-1.776-3.715-4.242-6.608-7.398-8.679-3.123-2.105-6.674-3.157-10.652-3.157-6.083 0-11.047 2.318-14.894 6.954-3.847 4.636-5.77 10.472-5.77 17.507v1.578Zm59.673-15.288c1.743-4.142 4.307-7.414 7.693-9.814 3.387-2.4 7.135-3.6 11.245-3.6 5.72 0 9.961 1.628 12.723 4.883 2.795 3.222 4.208 8.104 4.241 14.647V629h-2.663v-34.916c-.033-5.721-1.2-9.945-3.501-12.674-2.302-2.762-5.951-4.143-10.948-4.143-4.603 0-8.598 1.644-11.984 4.932-3.354 3.255-5.622 7.463-6.806 12.625V629h-2.663v-53.36h2.663v12.427Zm71.854 41.919c-4.307 0-8.269-1.15-11.885-3.452-3.584-2.334-6.395-5.523-8.433-9.567-2.039-4.044-3.058-8.532-3.058-13.464v-2.219c0-4.931.986-9.452 2.959-13.562 1.973-4.11 4.685-7.315 8.137-9.617 3.452-2.301 7.217-3.452 11.294-3.452 5.951 0 10.816 2.121 14.597 6.362 3.781 4.241 5.672 9.814 5.672 16.718v2.811h-39.996v2.91c0 4.34.904 8.367 2.713 12.083 1.841 3.682 4.356 6.575 7.545 8.679 3.222 2.104 6.707 3.157 10.455 3.157 3.584 0 6.625-.592 9.124-1.776 2.531-1.216 4.767-3.074 6.707-5.573l1.874 1.332c-3.979 5.754-9.88 8.63-17.705 8.63Zm-.986-52.67c-5.195 0-9.601 1.94-13.217 5.82-3.617 3.846-5.737 8.762-6.362 14.745h37.185v-.641c0-3.616-.773-6.97-2.318-10.06-1.513-3.124-3.617-5.54-6.313-7.25-2.663-1.742-5.655-2.614-8.975-2.614Zm52.818 23.968c0-5.096.969-9.666 2.909-13.71 1.973-4.077 4.735-7.249 8.285-9.518 3.584-2.268 7.628-3.403 12.132-3.403 4.472 0 8.483 1.102 12.033 3.305 3.551 2.202 6.313 5.326 8.286 9.37 2.005 4.044 3.024 8.597 3.057 13.66v2.367c0 5.129-.97 9.716-2.909 13.76-1.94 4.044-4.702 7.2-8.286 9.468-3.55 2.269-7.578 3.403-12.082 3.403-4.504 0-8.548-1.118-12.132-3.353-3.551-2.236-6.312-5.359-8.285-9.37-1.973-4.044-2.976-8.581-3.008-13.612v-2.367Zm2.663 2.071c0 4.439.871 8.516 2.613 12.231 1.776 3.682 4.225 6.559 7.349 8.63 3.156 2.072 6.756 3.107 10.8 3.107 6.082 0 11.03-2.285 14.844-6.855 3.847-4.57 5.77-10.455 5.77-17.655v-1.529c0-4.373-.888-8.416-2.663-12.132-1.775-3.715-4.241-6.608-7.397-8.679-3.124-2.105-6.675-3.157-10.653-3.157-6.082 0-11.047 2.318-14.893 6.954-3.847 4.636-5.77 10.472-5.77 17.507v1.578ZM671.11 629v-50.648h-9.271v-2.712h9.271v-7.792c.033-4.932 1.266-8.762 3.699-11.491 2.466-2.762 5.885-4.143 10.258-4.143 2.433 0 4.537.28 6.312.839l-.394 2.564c-1.71-.493-3.666-.74-5.869-.74-3.518 0-6.296 1.151-8.334 3.453-2.006 2.268-3.009 5.507-3.009 9.715v7.595h14.105v2.712h-14.105V629h-2.663Zm47.936-27.716c0-5.096.97-9.666 2.91-13.71 1.972-4.077 4.734-7.249 8.285-9.518 3.583-2.268 7.627-3.403 12.132-3.403 4.471 0 8.482 1.102 12.033 3.305 3.551 2.202 6.312 5.326 8.285 9.37 2.005 4.044 3.025 8.597 3.058 13.66v2.367c0 5.129-.97 9.716-2.91 13.76-1.94 4.044-4.702 7.2-8.285 9.468-3.551 2.269-7.579 3.403-12.083 3.403-4.504 0-8.548-1.118-12.132-3.353-3.55-2.236-6.312-5.359-8.285-9.37-1.972-4.044-2.975-8.581-3.008-13.612v-2.367Zm2.663 2.071c0 4.439.871 8.516 2.614 12.231 1.775 3.682 4.225 6.559 7.348 8.63 3.156 2.072 6.756 3.107 10.8 3.107 6.083 0 11.031-2.285 14.844-6.855 3.847-4.57 5.77-10.455 5.77-17.655v-1.529c0-4.373-.887-8.416-2.663-12.132-1.775-3.715-4.241-6.608-7.397-8.679-3.123-2.105-6.674-3.157-10.652-3.157-6.083 0-11.047 2.318-14.894 6.954-3.847 4.636-5.77 10.472-5.77 17.507v1.578ZM814.473 629v-8.63c-1.578 2.959-3.879 5.309-6.904 7.052-3.025 1.71-6.855 2.564-11.491 2.564-5.819 0-10.192-1.693-13.118-5.079-2.893-3.42-4.373-8.384-4.439-14.894V575.64h2.664v34.472c.065 5.655 1.348 9.945 3.846 12.871 2.499 2.894 6.148 4.34 10.948 4.34 5.097 0 9.239-1.2 12.428-3.6 3.189-2.4 5.211-5.918 6.066-10.554V575.64h2.713V629h-2.713Zm43.103-51.437-3.452-.296c-4.538 0-8.335 1.48-11.393 4.439-3.057 2.926-5.063 7.035-6.016 12.329V629h-2.663v-53.36h2.663v11.096c1.446-3.715 3.616-6.658 6.51-8.828 2.893-2.17 6.526-3.255 10.899-3.255 1.545 0 2.794.181 3.748.543l-.296 2.367Zm52.571 49.76c4.833 0 8.811-1.282 11.935-3.846 3.156-2.565 4.882-6.116 5.178-10.653h2.663c-.263 5.162-2.252 9.321-5.967 12.477-3.716 3.124-8.318 4.685-13.809 4.685-6.674 0-11.984-2.416-15.929-7.249-3.913-4.833-5.869-11.392-5.869-19.677v-1.776c0-8.088 1.956-14.548 5.869-19.381 3.945-4.833 9.222-7.25 15.83-7.25 5.655 0 10.324 1.694 14.006 5.08 3.682 3.386 5.639 7.891 5.869 13.513h-2.663c-.23-4.801-1.924-8.647-5.08-11.54-3.123-2.927-7.167-4.39-12.132-4.39-5.951 0-10.619 2.154-14.006 6.461-3.353 4.274-5.03 10.225-5.03 17.852v1.726c0 7.464 1.693 13.332 5.08 17.606 3.419 4.242 8.104 6.362 14.055 6.362Zm29.146-26.039c0-5.096.97-9.666 2.91-13.71 1.972-4.077 4.734-7.249 8.285-9.518 3.583-2.268 7.627-3.403 12.132-3.403 4.471 0 8.482 1.102 12.033 3.305 3.551 2.202 6.312 5.326 8.285 9.37 2.006 4.044 3.025 8.597 3.058 13.66v2.367c0 5.129-.97 9.716-2.91 13.76-1.94 4.044-4.702 7.2-8.285 9.468-3.551 2.269-7.579 3.403-12.083 3.403-4.504 0-8.548-1.118-12.132-3.353-3.55-2.236-6.312-5.359-8.285-9.37-1.972-4.044-2.975-8.581-3.008-13.612v-2.367Zm2.663 2.071c0 4.439.871 8.516 2.614 12.231 1.775 3.682 4.225 6.559 7.348 8.63 3.156 2.072 6.756 3.107 10.8 3.107 6.083 0 11.031-2.285 14.844-6.855 3.847-4.57 5.771-10.455 5.771-17.655v-1.529c0-4.373-.888-8.416-2.664-12.132-1.775-3.715-4.241-6.608-7.397-8.679-3.123-2.105-6.674-3.157-10.652-3.157-6.083 0-11.047 2.318-14.894 6.954-3.847 4.636-5.77 10.472-5.77 17.507v1.578ZM1034.72 629v-8.63c-1.58 2.959-3.88 5.309-6.9 7.052-3.03 1.71-6.86 2.564-11.49 2.564-5.82 0-10.2-1.693-13.12-5.079-2.9-3.42-4.376-8.384-4.441-14.894V575.64h2.661v34.472c.07 5.655 1.35 9.945 3.85 12.871 2.5 2.894 6.15 4.34 10.95 4.34 5.09 0 9.24-1.2 12.42-3.6 3.19-2.4 5.22-5.918 6.07-10.554V575.64h2.71V629h-2.71Zm43.1-51.437-3.45-.296c-4.54 0-8.33 1.48-11.39 4.439-3.06 2.926-5.06 7.035-6.02 12.329V629h-2.66v-53.36h2.66v11.096c1.45-3.715 3.62-6.658 6.51-8.828 2.89-2.17 6.53-3.255 10.9-3.255 1.55 0 2.8.181 3.75.543l-.3 2.367Zm43.2 38.368c0-6.477-5.52-10.882-16.57-13.217-6.64-1.413-11.26-3.222-13.85-5.424-2.6-2.236-3.9-5.294-3.9-9.173 0-3.913 1.64-7.135 4.93-9.666 3.32-2.532 7.63-3.798 12.92-3.798 5.76 0 10.38 1.381 13.86 4.143 3.49 2.729 5.23 6.427 5.23 11.096h-2.71c0-3.584-1.52-6.575-4.54-8.975-3.03-2.401-6.97-3.601-11.84-3.601-4.67 0-8.37 1.02-11.09 3.058-2.73 2.038-4.1 4.586-4.1 7.644 0 2.4.51 4.291 1.53 5.671 1.02 1.348 2.68 2.581 4.98 3.699 2.3 1.085 5.66 2.137 10.06 3.156 4.41 1.02 7.89 2.22 10.46 3.601 2.56 1.38 4.42 3.024 5.57 4.931 1.15 1.874 1.73 4.176 1.73 6.904 0 4.209-1.73 7.595-5.18 10.16-3.45 2.564-7.97 3.846-13.56 3.846-5.99 0-10.82-1.348-14.5-4.044-3.65-2.728-5.48-6.23-5.48-10.504h2.67c.26 3.748 1.9 6.674 4.93 8.778 3.06 2.072 7.18 3.107 12.38 3.107 4.76 0 8.63-1.101 11.59-3.304 2.99-2.236 4.48-4.932 4.48-8.088Zm36.6 14.055c-4.31 0-8.27-1.15-11.89-3.452-3.58-2.334-6.39-5.523-8.43-9.567-2.04-4.044-3.06-8.532-3.06-13.464v-2.219c0-4.931.99-9.452 2.96-13.562 1.97-4.11 4.68-7.315 8.14-9.617 3.45-2.301 7.21-3.452 11.29-3.452 5.95 0 10.82 2.121 14.6 6.362 3.78 4.241 5.67 9.814 5.67 16.718v2.811h-40v2.91c0 4.34.91 8.367 2.72 12.083 1.84 3.682 4.35 6.575 7.54 8.679 3.22 2.104 6.71 3.157 10.46 3.157 3.58 0 6.62-.592 9.12-1.776 2.53-1.216 4.77-3.074 6.71-5.573l1.87 1.332c-3.98 5.754-9.88 8.63-17.7 8.63Zm-.99-52.67c-5.19 0-9.6 1.94-13.22 5.82-3.61 3.846-5.73 8.762-6.36 14.745h37.19v-.641c0-3.616-.78-6.97-2.32-10.06-1.51-3.124-3.62-5.54-6.31-7.25-2.67-1.742-5.66-2.614-8.98-2.614Zm65.59 38.615c0-6.477-5.52-10.882-16.57-13.217-6.64-1.413-11.26-3.222-13.86-5.424-2.59-2.236-3.89-5.294-3.89-9.173 0-3.913 1.64-7.135 4.93-9.666 3.32-2.532 7.63-3.798 12.92-3.798 5.75 0 10.37 1.381 13.86 4.143 3.48 2.729 5.22 6.427 5.22 11.096h-2.71c0-3.584-1.51-6.575-4.53-8.975-3.03-2.401-6.97-3.601-11.84-3.601-4.67 0-8.37 1.02-11.1 3.058-2.73 2.038-4.09 4.586-4.09 7.644 0 2.4.51 4.291 1.53 5.671 1.02 1.348 2.68 2.581 4.98 3.699 2.3 1.085 5.65 2.137 10.06 3.156 4.41 1.02 7.89 2.22 10.46 3.601 2.56 1.38 4.42 3.024 5.57 4.931 1.15 1.874 1.72 4.176 1.72 6.904 0 4.209-1.72 7.595-5.17 10.16-3.46 2.564-7.98 3.846-13.57 3.846-5.98 0-10.81-1.348-14.49-4.044-3.65-2.728-5.48-6.23-5.48-10.504h2.66c.27 3.748 1.91 6.674 4.94 8.778 3.05 2.072 7.18 3.107 12.37 3.107 4.77 0 8.63-1.101 11.59-3.304 3-2.236 4.49-4.932 4.49-8.088Zm16.18 10.652c0-.756.26-1.397.79-1.923a2.519 2.519 0 0 1 1.92-.838c.76 0 1.4.279 1.92.838.56.526.84 1.167.84 1.923 0 .757-.28 1.398-.84 1.924-.52.526-1.16.789-1.92.789s-1.4-.263-1.92-.789c-.53-.526-.79-1.167-.79-1.924Zm94.29-66.725h-26.14V629h-2.66v-69.142h-26.14v-2.663h54.94v2.663Zm13.86 28.209c1.74-4.142 4.3-7.414 7.69-9.814 3.39-2.4 7.14-3.6 11.25-3.6 5.72 0 9.96 1.628 12.72 4.883 2.79 3.222 4.21 8.104 4.24 14.647V629h-2.66v-34.916c-.04-5.721-1.2-9.945-3.5-12.674-2.31-2.762-5.96-4.143-10.95-4.143-4.61 0-8.6 1.644-11.99 4.932-3.35 3.255-5.62 7.463-6.8 12.625V629h-2.67v-75.75h2.67v34.817Zm71.85 41.919c-4.31 0-8.27-1.15-11.88-3.452-3.59-2.334-6.4-5.523-8.44-9.567-2.03-4.044-3.05-8.532-3.05-13.464v-2.219c0-4.931.98-9.452 2.95-13.562 1.98-4.11 4.69-7.315 8.14-9.617 3.45-2.301 7.22-3.452 11.3-3.452 5.95 0 10.81 2.121 14.59 6.362 3.78 4.241 5.67 9.814 5.67 16.718v2.811h-39.99v2.91c0 4.34.9 8.367 2.71 12.083 1.84 3.682 4.36 6.575 7.55 8.679 3.22 2.104 6.7 3.157 10.45 3.157 3.59 0 6.63-.592 9.13-1.776 2.53-1.216 4.76-3.074 6.7-5.573l1.88 1.332c-3.98 5.754-9.88 8.63-17.71 8.63Zm-.98-52.67c-5.2 0-9.6 1.94-13.22 5.82-3.62 3.846-5.74 8.762-6.36 14.745h37.18v-.641c0-3.616-.77-6.97-2.32-10.06-1.51-3.124-3.61-5.54-6.31-7.25-2.66-1.742-5.65-2.614-8.97-2.614ZM271.006 693.563l-3.452-.296c-4.537 0-8.334 1.48-11.392 4.439-3.058 2.926-5.063 7.035-6.016 12.329V745h-2.664v-53.36h2.664v11.096c1.446-3.715 3.616-6.658 6.509-8.828 2.894-2.17 6.526-3.255 10.899-3.255 1.545 0 2.795.181 3.748.543l-.296 2.367Zm28.505 52.423c-4.307 0-8.268-1.15-11.885-3.452-3.584-2.334-6.395-5.523-8.433-9.567-2.039-4.044-3.058-8.532-3.058-13.464v-2.219c0-4.931.987-9.452 2.959-13.562 1.973-4.11 4.685-7.315 8.137-9.617 3.453-2.301 7.217-3.452 11.294-3.452 5.951 0 10.817 2.121 14.598 6.362 3.78 4.241 5.671 9.814 5.671 16.718v2.811h-39.996v2.91c0 4.34.904 8.367 2.713 12.083 1.841 3.682 4.356 6.575 7.545 8.679 3.222 2.104 6.707 3.157 10.455 3.157 3.584 0 6.625-.592 9.124-1.776 2.531-1.216 4.767-3.074 6.707-5.573l1.874 1.332c-3.978 5.754-9.88 8.63-17.705 8.63Zm-.986-52.67c-5.195 0-9.6 1.94-13.217 5.82-3.616 3.846-5.737 8.762-6.362 14.745h37.185v-.641c0-3.616-.773-6.97-2.318-10.06-1.512-3.124-3.617-5.54-6.313-7.25-2.663-1.742-5.654-2.614-8.975-2.614ZM334.526 745h-2.663v-75.75h2.663V745Zm51.979 0c-.657-2.269-.986-5.523-.986-9.765-2.104 3.42-4.981 6.066-8.63 7.94-3.65 1.874-7.776 2.811-12.379 2.811-4.931 0-8.91-1.331-11.934-3.994-2.992-2.696-4.488-6.198-4.488-10.505 0-4.898 2.203-8.811 6.608-11.737 4.439-2.959 10.324-4.471 17.656-4.537h13.167v-7.792c0-4.471-1.414-7.94-4.241-10.406-2.795-2.466-6.806-3.699-12.033-3.699-4.866 0-8.927 1.25-12.182 3.748-3.254 2.499-4.882 5.59-4.882 9.272l-2.663-.099c0-4.34 1.907-8.022 5.721-11.047 3.814-3.024 8.482-4.537 14.006-4.537 5.753 0 10.323 1.447 13.71 4.34 3.386 2.861 5.128 6.904 5.227 12.132v25.497c0 5.852.46 9.83 1.381 11.934V745h-3.058Zm-21.995-1.627c4.998 0 9.288-1.118 12.872-3.354 3.616-2.236 6.329-5.375 8.137-9.419v-12.675H373.19c-7.628 0-13.463 1.513-17.507 4.537-3.288 2.466-4.932 5.54-4.932 9.223 0 3.254 1.299 6.016 3.896 8.285 2.597 2.268 5.885 3.403 9.863 3.403Zm46.851-66.134v14.401h12.132v2.712h-12.132v37.875c0 3.781.608 6.576 1.825 8.384 1.249 1.808 3.32 2.712 6.213 2.712 1.447 0 3.206-.148 5.277-.444l.444 2.516c-1.085.394-2.942.591-5.573.591-3.879 0-6.657-1.068-8.334-3.205-1.677-2.17-2.532-5.573-2.565-10.209v-38.22h-9.863v-2.712h9.863v-14.401h2.713ZM440.655 745h-2.663v-53.36h2.663V745Zm-4.044-70.029c0-.756.263-1.398.789-1.924.526-.559 1.167-.838 1.923-.838s1.398.279 1.924.838c.559.526.838 1.168.838 1.924s-.279 1.397-.838 1.923a2.62 2.62 0 0 1-1.924.789 2.617 2.617 0 0 1-1.923-.789 2.617 2.617 0 0 1-.789-1.923Zm17.507 42.313c0-5.096.97-9.666 2.91-13.71 1.972-4.077 4.734-7.249 8.285-9.518 3.584-2.268 7.628-3.403 12.132-3.403 4.471 0 8.482 1.102 12.033 3.305 3.551 2.202 6.313 5.326 8.285 9.37 2.006 4.044 3.025 8.597 3.058 13.66v2.367c0 5.129-.97 9.716-2.91 13.76-1.94 4.044-4.701 7.2-8.285 9.468-3.551 2.269-7.578 3.403-12.083 3.403-4.504 0-8.548-1.118-12.131-3.353-3.551-2.236-6.313-5.359-8.286-9.37-1.972-4.044-2.975-8.581-3.008-13.612v-2.367Zm2.663 2.071c0 4.439.872 8.516 2.614 12.231 1.775 3.682 4.225 6.559 7.348 8.63 3.156 2.072 6.757 3.107 10.8 3.107 6.083 0 11.031-2.285 14.845-6.855 3.846-4.57 5.77-10.455 5.77-17.655v-1.529c0-4.373-.888-8.416-2.663-12.132-1.776-3.715-4.242-6.608-7.398-8.679-3.123-2.105-6.674-3.157-10.652-3.157-6.083 0-11.047 2.318-14.894 6.954-3.846 4.636-5.77 10.472-5.77 17.507v1.578Zm59.673-15.288c1.743-4.142 4.307-7.414 7.693-9.814 3.387-2.4 7.135-3.6 11.245-3.6 5.72 0 9.962 1.628 12.723 4.883 2.795 3.222 4.209 8.104 4.241 14.647V745h-2.663v-34.916c-.033-5.721-1.2-9.945-3.501-12.674-2.302-2.762-5.951-4.143-10.948-4.143-4.603 0-8.598 1.644-11.984 4.932-3.354 3.255-5.622 7.463-6.806 12.625V745h-2.663v-53.36h2.663v12.427Zm85.564 27.864c0-6.477-5.523-10.882-16.57-13.217-6.642-1.413-11.261-3.222-13.858-5.424-2.597-2.236-3.896-5.294-3.896-9.173 0-3.913 1.644-7.135 4.931-9.666 3.321-2.532 7.628-3.798 12.921-3.798 5.754 0 10.373 1.381 13.858 4.143 3.485 2.729 5.228 6.427 5.228 11.096h-2.713c0-3.584-1.512-6.575-4.537-8.975-3.024-2.401-6.97-3.601-11.836-3.601-4.668 0-8.367 1.02-11.096 3.058-2.729 2.038-4.093 4.586-4.093 7.644 0 2.4.51 4.291 1.529 5.671 1.019 1.348 2.679 2.581 4.981 3.699 2.301 1.085 5.655 2.137 10.06 3.156 4.406 1.02 7.891 2.22 10.455 3.601 2.565 1.38 4.422 3.024 5.573 4.931 1.151 1.874 1.726 4.176 1.726 6.904 0 4.209-1.726 7.595-5.178 10.16-3.452 2.564-7.973 3.846-13.562 3.846-5.984 0-10.817-1.348-14.499-4.044-3.65-2.728-5.474-6.23-5.474-10.504h2.663c.263 3.748 1.907 6.674 4.931 8.778 3.058 2.072 7.184 3.107 12.379 3.107 4.767 0 8.63-1.101 11.589-3.304 2.992-2.236 4.488-4.932 4.488-8.088Zm20.072-27.864c1.742-4.142 4.307-7.414 7.693-9.814 3.387-2.4 7.135-3.6 11.244-3.6 5.721 0 9.962 1.628 12.724 4.883 2.795 3.222 4.208 8.104 4.241 14.647V745h-2.663v-34.916c-.033-5.721-1.2-9.945-3.501-12.674-2.302-2.762-5.951-4.143-10.949-4.143-4.602 0-8.597 1.644-11.983 4.932-3.354 3.255-5.623 7.463-6.806 12.625V745h-2.663v-75.75h2.663v34.817ZM678.064 745h-2.663v-53.36h2.663V745Zm-4.044-70.029c0-.756.263-1.398.789-1.924.526-.559 1.167-.838 1.923-.838.757 0 1.398.279 1.924.838.559.526.838 1.168.838 1.924s-.279 1.397-.838 1.923a2.617 2.617 0 0 1-1.924.789 2.617 2.617 0 0 1-1.923-.789 2.617 2.617 0 0 1-.789-1.923Zm62.336 43.842c0 8.318-1.792 14.926-5.376 19.825-3.583 4.899-8.466 7.348-14.647 7.348-4.043 0-7.644-.822-10.8-2.465-3.156-1.644-5.622-3.913-7.397-6.806v28.801h-2.663V691.64h2.663v9.518c1.841-3.387 4.323-5.984 7.447-7.792 3.123-1.809 6.674-2.713 10.652-2.713 6.247 0 11.162 2.4 14.745 7.201 3.584 4.767 5.376 11.474 5.376 20.121v.838Zm-2.712-1.036c0-7.66-1.529-13.644-4.587-17.951-3.025-4.34-7.282-6.51-12.773-6.51-4.471 0-8.269 1.168-11.392 3.502-3.123 2.301-5.375 5.622-6.756 9.962v24.954c1.381 3.682 3.633 6.543 6.756 8.581 3.156 2.005 6.987 3.008 11.491 3.008 5.457 0 9.699-2.17 12.723-6.51 3.025-4.339 4.538-10.685 4.538-19.036Zm82.21 1.036c0 8.318-1.792 14.926-5.375 19.825-3.584 4.899-8.466 7.348-14.647 7.348-4.012 0-7.595-.822-10.751-2.465-3.157-1.677-5.639-3.995-7.447-6.954V745h-2.663v-75.75h2.663v32.105c1.874-3.518 4.34-6.181 7.397-7.989 3.091-1.809 6.658-2.713 10.702-2.713 6.247 0 11.162 2.4 14.746 7.201 3.583 4.767 5.375 11.474 5.375 20.121v.838Zm-2.762-1.036c0-7.66-1.529-13.644-4.586-17.951-3.025-4.34-7.266-6.51-12.724-6.51-4.471 0-8.268 1.151-11.392 3.453-3.09 2.301-5.342 5.72-6.756 10.257v24.461c1.414 3.781 3.666 6.707 6.756 8.779 3.124 2.038 6.954 3.057 11.491 3.057 5.49 0 9.732-2.186 12.723-6.559 2.992-4.373 4.488-10.702 4.488-18.987Zm36.494 28.209c-4.307 0-8.268-1.15-11.885-3.452-3.583-2.334-6.395-5.523-8.433-9.567-2.038-4.044-3.058-8.532-3.058-13.464v-2.219c0-4.931.987-9.452 2.959-13.562 1.973-4.11 4.685-7.315 8.138-9.617 3.452-2.301 7.216-3.452 11.293-3.452 5.951 0 10.817 2.121 14.598 6.362 3.781 4.241 5.671 9.814 5.671 16.718v2.811h-39.995v2.91c0 4.34.904 8.367 2.712 12.083 1.841 3.682 4.356 6.575 7.545 8.679 3.222 2.104 6.707 3.157 10.455 3.157 3.584 0 6.625-.592 9.124-1.776 2.532-1.216 4.767-3.074 6.707-5.573l1.874 1.332c-3.978 5.754-9.88 8.63-17.705 8.63Zm-.986-52.67c-5.195 0-9.6 1.94-13.217 5.82-3.616 3.846-5.737 8.762-6.362 14.745h37.185v-.641c0-3.616-.773-6.97-2.318-10.06-1.512-3.124-3.616-5.54-6.312-7.25-2.663-1.742-5.655-2.614-8.976-2.614Zm38.664-16.077v14.401h12.132v2.712h-12.132v37.875c0 3.781.608 6.576 1.825 8.384 1.249 1.808 3.321 2.712 6.214 2.712 1.446 0 3.205-.148 5.277-.444l.443 2.516c-1.085.394-2.942.591-5.572.591-3.88 0-6.658-1.068-8.335-3.205-1.677-2.17-2.531-5.573-2.564-10.209v-38.22h-9.864v-2.712h9.864v-14.401h2.712Zm35.557 52.325 2.91 11.491 15.633-49.415h2.713l15.534 49.415 3.009-11.491 10.849-37.924h3.107L961.042 745h-2.664l-13.167-40.094-2.515-9.568-2.713 9.568L927.013 745h-2.663l-15.485-53.36h3.057l10.899 37.924Zm86.059 16.422c-4.31 0-8.27-1.15-11.887-3.452-3.583-2.334-6.395-5.523-8.433-9.567-2.038-4.044-3.058-8.532-3.058-13.464v-2.219c0-4.931.987-9.452 2.959-13.562 1.973-4.11 4.685-7.315 8.138-9.617 3.451-2.301 7.221-3.452 11.291-3.452 5.95 0 10.82 2.121 14.6 6.362 3.78 4.241 5.67 9.814 5.67 16.718v2.811h-39.994v2.91c0 4.34.904 8.367 2.712 12.083 1.841 3.682 4.356 6.575 7.545 8.679 3.227 2.104 6.707 3.157 10.457 3.157 3.58 0 6.62-.592 9.12-1.776 2.53-1.216 4.77-3.074 6.71-5.573l1.87 1.332c-3.98 5.754-9.88 8.63-17.7 8.63Zm-.99-52.67c-5.19 0-9.598 1.94-13.215 5.82-3.616 3.846-5.737 8.762-6.362 14.745h37.187v-.641c0-3.616-.77-6.97-2.32-10.06-1.51-3.124-3.62-5.54-6.31-7.25-2.67-1.742-5.66-2.614-8.98-2.614Zm51.88 52.67c-4.3 0-8.27-1.15-11.88-3.452-3.59-2.334-6.4-5.523-8.44-9.567-2.03-4.044-3.05-8.532-3.05-13.464v-2.219c0-4.931.98-9.452 2.96-13.562 1.97-4.11 4.68-7.315 8.13-9.617 3.46-2.301 7.22-3.452 11.3-3.452 5.95 0 10.81 2.121 14.59 6.362 3.79 4.241 5.68 9.814 5.68 16.718v2.811h-40v2.91c0 4.34.9 8.367 2.71 12.083 1.84 3.682 4.36 6.575 7.55 8.679 3.22 2.104 6.7 3.157 10.45 3.157 3.59 0 6.63-.592 9.13-1.776 2.53-1.216 4.76-3.074 6.7-5.573l1.88 1.332c-3.98 5.754-9.88 8.63-17.71 8.63Zm-.98-52.67c-5.2 0-9.6 1.94-13.22 5.82-3.62 3.846-5.74 8.762-6.36 14.745h37.18v-.641c0-3.616-.77-6.97-2.32-10.06-1.51-3.124-3.61-5.54-6.31-7.25-2.66-1.742-5.65-2.614-8.97-2.614Zm35.36 10.751c1.74-4.142 4.3-7.414 7.69-9.814 3.39-2.4 7.13-3.6 11.24-3.6 5.72 0 9.97 1.628 12.73 4.883 2.79 3.222 4.21 8.104 4.24 14.647V745h-2.66v-34.916c-.04-5.721-1.2-9.945-3.51-12.674-2.3-2.762-5.95-4.143-10.94-4.143-4.61 0-8.6 1.644-11.99 4.932-3.35 3.255-5.62 7.463-6.8 12.625V745h-2.67v-53.36h2.67v12.427Zm115 40.933h-2.66v-35.853c-.03-5.359-1.22-9.337-3.55-11.935-2.3-2.63-5.99-3.945-11.05-3.945-5.85 0-10.63 2.581-14.35 7.743-2.2 3.09-3.67 6.51-4.39 10.258V745h-2.71v-53.36h2.71v12.625c1.81-4.34 4.39-7.694 7.74-10.061 3.36-2.367 7.07-3.551 11.15-3.551 4.47 0 8.12.987 10.95 2.959 2.86 1.973 4.73 5.195 5.62 9.666 1.58-3.846 4.14-6.904 7.69-9.173 3.55-2.301 7.53-3.452 11.94-3.452 5.75 0 10.03 1.628 12.82 4.883 2.83 3.255 4.26 8.137 4.29 14.647V745h-2.66v-34.62c0-5.852-1.19-10.176-3.55-12.97-2.34-2.828-6.02-4.209-11.05-4.143-6.48.099-11.61 2.68-15.39 7.743-2.17 2.926-3.35 5.753-3.55 8.482V745Zm68.7-4.143.35-.986 18.44-48.231h2.96l-23.87 62.631-1.18 2.959c-2.57 6.214-6.81 9.321-12.73 9.321-1.9 0-3.22-.181-3.94-.542l-.05-2.515c1.05.296 2.25.444 3.6.444 2.79 0 5.11-.822 6.95-2.466 1.84-1.611 3.44-4.258 4.79-7.94l3.25-8.828-21.26-53.064h2.91l19.78 49.217Zm49.32 2.466c4.83 0 8.81-1.282 11.93-3.846 3.16-2.565 4.88-6.116 5.18-10.653h2.66c-.26 5.162-2.25 9.321-5.96 12.477-3.72 3.124-8.32 4.685-13.81 4.685-6.68 0-11.99-2.416-15.93-7.249-3.92-4.833-5.87-11.392-5.87-19.677v-1.776c0-8.088 1.95-14.548 5.87-19.381 3.94-4.833 9.22-7.25 15.83-7.25 5.65 0 10.32 1.694 14 5.08 3.69 3.386 5.64 7.891 5.87 13.513h-2.66c-.23-4.801-1.92-8.647-5.08-11.54-3.12-2.927-7.17-4.39-12.13-4.39-5.95 0-10.62 2.154-14.01 6.461-3.35 4.274-5.03 10.225-5.03 17.852v1.726c0 7.464 1.69 13.332 5.08 17.606 3.42 4.242 8.11 6.362 14.06 6.362Zm29.14-26.039c0-5.096.97-9.666 2.91-13.71 1.97-4.077 4.74-7.249 8.29-9.518 3.58-2.268 7.62-3.403 12.13-3.403 4.47 0 8.48 1.102 12.03 3.305 3.55 2.202 6.31 5.326 8.29 9.37 2 4.044 3.02 8.597 3.06 13.66v2.367c0 5.129-.97 9.716-2.91 13.76-1.94 4.044-4.71 7.2-8.29 9.468-3.55 2.269-7.58 3.403-12.08 3.403-4.51 0-8.55-1.118-12.13-3.353-3.55-2.236-6.32-5.359-8.29-9.37-1.97-4.044-2.97-8.581-3.01-13.612v-2.367Zm2.67 2.071c0 4.439.87 8.516 2.61 12.231 1.77 3.682 4.22 6.559 7.35 8.63 3.15 2.072 6.75 3.107 10.8 3.107 6.08 0 11.03-2.285 14.84-6.855 3.85-4.57 5.77-10.455 5.77-17.655v-1.529c0-4.373-.89-8.416-2.66-12.132-1.78-3.715-4.24-6.608-7.4-8.679-3.12-2.105-6.67-3.157-10.65-3.157-6.08 0-11.05 2.318-14.89 6.954-3.85 4.636-5.77 10.472-5.77 17.507v1.578Zm80.53-25.792-3.45-.296c-4.54 0-8.34 1.48-11.39 4.439-3.06 2.926-5.07 7.035-6.02 12.329V745h-2.66v-53.36h2.66v11.096c1.45-3.715 3.61-6.658 6.51-8.828 2.89-2.17 6.52-3.255 10.9-3.255 1.54 0 2.79.181 3.75.543l-.3 2.367Zm33.83 0-3.45-.296c-4.54 0-8.34 1.48-11.39 4.439-3.06 2.926-5.07 7.035-6.02 12.329V745h-2.66v-53.36h2.66v11.096c1.45-3.715 3.62-6.658 6.51-8.828 2.89-2.17 6.53-3.255 10.9-3.255 1.54 0 2.79.181 3.75.543l-.3 2.367Zm12.97 10.504c1.74-4.142 4.31-7.414 7.69-9.814 3.39-2.4 7.14-3.6 11.25-3.6 5.72 0 9.96 1.628 12.72 4.883 2.8 3.222 4.21 8.104 4.24 14.647V745h-2.66v-34.916c-.03-5.721-1.2-9.945-3.5-12.674-2.3-2.762-5.95-4.143-10.95-4.143-4.6 0-8.6 1.644-11.98 4.932-3.36 3.255-5.63 7.463-6.81 12.625V745h-2.66v-75.75h2.66v34.817ZM1542.28 745h-2.66v-53.36h2.66V745Zm-4.04-70.029c0-.756.26-1.398.79-1.924.53-.559 1.17-.838 1.92-.838.76 0 1.4.279 1.93.838.56.526.83 1.168.83 1.924a2.53 2.53 0 0 1-.83 1.923c-.53.526-1.17.789-1.93.789-.75 0-1.39-.263-1.92-.789s-.79-1.167-.79-1.923Zm20.96 67.366h37.97V745h-41.57v-2.17l35.06-48.478h-33.53v-2.712h37.13v2.367l-35.06 48.33Zm83.3 2.663c-.66-2.269-.99-5.523-.99-9.765-2.1 3.42-4.98 6.066-8.63 7.94-3.65 1.874-7.78 2.811-12.38 2.811-4.93 0-8.91-1.331-11.93-3.994-3-2.696-4.49-6.198-4.49-10.505 0-4.898 2.2-8.811 6.61-11.737 4.43-2.959 10.32-4.471 17.65-4.537h13.17v-7.792c0-4.471-1.41-7.94-4.24-10.406-2.8-2.466-6.81-3.699-12.04-3.699-4.86 0-8.92 1.25-12.18 3.748-3.25 2.499-4.88 5.59-4.88 9.272l-2.66-.099c0-4.34 1.91-8.022 5.72-11.047 3.81-3.024 8.48-4.537 14-4.537 5.76 0 10.33 1.447 13.71 4.34 3.39 2.861 5.13 6.904 5.23 12.132v25.497c0 5.852.46 9.83 1.38 11.934V745h-3.05Zm-22-1.627c5 0 9.29-1.118 12.87-3.354 3.62-2.236 6.33-5.375 8.14-9.419v-12.675h-12.33c-7.63 0-13.46 1.513-17.51 4.537-3.28 2.466-4.93 5.54-4.93 9.223 0 3.254 1.3 6.016 3.9 8.285 2.59 2.268 5.88 3.403 9.86 3.403Zm44.19 1.627h-2.67v-75.75h2.67V745ZM281.955 861c-.658-2.269-.987-5.523-.987-9.765-2.104 3.42-4.981 6.066-8.63 7.94-3.65 1.874-7.776 2.811-12.379 2.811-4.931 0-8.909-1.331-11.934-3.994-2.992-2.696-4.488-6.198-4.488-10.505 0-4.898 2.203-8.811 6.609-11.737 4.438-2.959 10.323-4.471 17.655-4.537h13.167v-7.792c0-4.471-1.413-7.94-4.241-10.406-2.795-2.466-6.806-3.699-12.033-3.699-4.866 0-8.926 1.25-12.181 3.748-3.255 2.499-4.883 5.59-4.883 9.272l-2.663-.099c0-4.34 1.907-8.022 5.721-11.047 3.814-3.024 8.482-4.537 14.006-4.537 5.753 0 10.323 1.447 13.71 4.34 3.386 2.861 5.129 6.904 5.227 12.132v25.497c0 5.852.461 9.83 1.381 11.934V861h-3.057Zm-21.996-1.627c4.998 0 9.288-1.118 12.872-3.354 3.617-2.236 6.329-5.375 8.137-9.419v-12.675h-12.329c-7.627 0-13.463 1.513-17.507 4.537-3.288 2.466-4.932 5.54-4.932 9.223 0 3.254 1.299 6.016 3.896 8.285 2.598 2.268 5.885 3.403 9.863 3.403ZM336.597 861v-8.63c-1.578 2.959-3.879 5.309-6.904 7.052-3.025 1.71-6.855 2.564-11.491 2.564-5.819 0-10.192-1.693-13.118-5.079-2.893-3.42-4.373-8.384-4.438-14.894V807.64h2.663v34.472c.065 5.655 1.348 9.945 3.846 12.871 2.499 2.894 6.148 4.34 10.949 4.34 5.096 0 9.238-1.2 12.427-3.6 3.189-2.4 5.211-5.918 6.066-10.554V807.64h2.713V861h-2.713Zm25.546-67.761v14.401h12.132v2.712h-12.132v37.875c0 3.781.608 6.576 1.825 8.384 1.249 1.808 3.32 2.712 6.214 2.712 1.446 0 3.205-.148 5.276-.444l.444 2.516c-1.085.394-2.942.591-5.572.591-3.88 0-6.658-1.068-8.335-3.205-1.677-2.17-2.531-5.573-2.564-10.209v-38.22h-9.864v-2.712h9.864v-14.401h2.712Zm20.96 40.045c0-5.096.969-9.666 2.909-13.71 1.973-4.077 4.735-7.249 8.285-9.518 3.584-2.268 7.628-3.403 12.132-3.403 4.472 0 8.483 1.102 12.033 3.305 3.551 2.202 6.313 5.326 8.286 9.37 2.005 4.044 3.024 8.597 3.057 13.66v2.367c0 5.129-.97 9.716-2.909 13.76-1.94 4.044-4.702 7.2-8.286 9.468-3.55 2.269-7.578 3.403-12.082 3.403-4.504 0-8.548-1.118-12.132-3.353-3.551-2.236-6.313-5.359-8.285-9.37-1.973-4.044-2.976-8.581-3.008-13.612v-2.367Zm2.663 2.071c0 4.439.871 8.516 2.613 12.231 1.776 3.682 4.225 6.559 7.349 8.63 3.156 2.072 6.756 3.107 10.8 3.107 6.082 0 11.03-2.285 14.844-6.855 3.847-4.57 5.77-10.455 5.77-17.655v-1.529c0-4.373-.888-8.416-2.663-12.132-1.775-3.715-4.241-6.608-7.397-8.679-3.124-2.105-6.675-3.157-10.653-3.157-6.082 0-11.047 2.318-14.893 6.954-3.847 4.636-5.77 10.472-5.77 17.507v1.578Zm74.714-5.868h-23.179v-2.663h23.179v2.663ZM476.804 861v-50.648h-9.272v-2.712h9.272v-7.792c.033-4.932 1.265-8.762 3.698-11.491 2.466-2.762 5.886-4.143 10.258-4.143 2.433 0 4.537.28 6.313.839l-.395 2.564c-1.709-.493-3.666-.74-5.868-.74-3.518 0-6.296 1.151-8.335 3.453-2.005 2.268-3.008 5.507-3.008 9.715v7.595h14.104v2.712h-14.104V861h-2.663Zm63.569 0v-8.63c-1.579 2.959-3.88 5.309-6.905 7.052-3.024 1.71-6.855 2.564-11.49 2.564-5.82 0-10.193-1.693-13.119-5.079-2.893-3.42-4.372-8.384-4.438-14.894V807.64h2.663v34.472c.066 5.655 1.348 9.945 3.847 12.871 2.498 2.894 6.148 4.34 10.948 4.34 5.096 0 9.239-1.2 12.428-3.6 3.189-2.4 5.211-5.918 6.066-10.554V807.64h2.712V861h-2.712Zm22.241-40.933c1.743-4.142 4.307-7.414 7.694-9.814 3.386-2.4 7.134-3.6 11.244-3.6 5.72 0 9.962 1.628 12.723 4.883 2.795 3.222 4.209 8.104 4.242 14.647V861h-2.663v-34.916c-.033-5.721-1.201-9.945-3.502-12.674-2.301-2.762-5.951-4.143-10.948-4.143-4.603 0-8.598 1.644-11.984 4.932-3.354 3.255-5.622 7.463-6.806 12.625V861h-2.663v-53.36h2.663v12.427Zm50.155 13.71c0-8.515 1.792-15.156 5.376-19.923 3.583-4.801 8.498-7.201 14.745-7.201 3.978 0 7.513.921 10.603 2.762 3.091 1.808 5.573 4.471 7.447 7.989v-9.764h2.712v52.423c0 7.036-1.808 12.526-5.424 16.472-3.617 3.978-8.532 5.967-14.746 5.967-3.584 0-6.871-.773-9.863-2.318-2.959-1.545-5.491-3.764-7.595-6.658l1.874-1.775c2.071 2.63 4.34 4.636 6.806 6.017 2.465 1.413 5.359 2.12 8.679 2.12 5.491 0 9.765-1.677 12.823-5.03 3.057-3.321 4.635-8.022 4.734-14.105v-8.186c-1.841 3.025-4.34 5.359-7.496 7.003-3.124 1.611-6.674 2.416-10.652 2.416-6.181 0-11.064-2.449-14.647-7.348-3.584-4.899-5.376-11.622-5.376-20.17v-.691Zm2.712 1.036c0 7.628 1.513 13.628 4.538 18 3.024 4.34 7.266 6.51 12.723 6.51 4.504 0 8.335-1.035 11.491-3.107 3.156-2.104 5.392-5.046 6.707-8.827v-24.215c-2.893-9.238-8.926-13.858-18.099-13.858-5.491 0-9.765 2.154-12.822 6.461-3.025 4.307-4.538 10.652-4.538 19.036ZM674.02 861h-2.663v-53.36h2.663V861Zm-4.044-70.029c0-.756.263-1.398.789-1.924.526-.559 1.167-.838 1.923-.838.757 0 1.398.279 1.924.838.559.526.838 1.168.838 1.924s-.279 1.397-.838 1.923a2.617 2.617 0 0 1-1.924.789 2.617 2.617 0 0 1-1.923-.789 2.617 2.617 0 0 1-.789-1.923ZM750.165 861c-.658-2.269-.987-5.523-.987-9.765-2.104 3.42-4.981 6.066-8.63 7.94-3.65 1.874-7.776 2.811-12.379 2.811-4.931 0-8.909-1.331-11.934-3.994-2.992-2.696-4.488-6.198-4.488-10.505 0-4.898 2.203-8.811 6.608-11.737 4.439-2.959 10.324-4.471 17.656-4.537h13.167v-7.792c0-4.471-1.414-7.94-4.241-10.406-2.795-2.466-6.806-3.699-12.033-3.699-4.866 0-8.926 1.25-12.181 3.748-3.255 2.499-4.883 5.59-4.883 9.272l-2.663-.099c0-4.34 1.907-8.022 5.721-11.047 3.814-3.024 8.482-4.537 14.006-4.537 5.753 0 10.323 1.447 13.71 4.34 3.386 2.861 5.129 6.904 5.227 12.132v25.497c0 5.852.461 9.83 1.381 11.934V861h-3.057Zm-21.996-1.627c4.998 0 9.288-1.118 12.872-3.354 3.617-2.236 6.329-5.375 8.137-9.419v-12.675h-12.329c-7.627 0-13.463 1.513-17.507 4.537-3.288 2.466-4.932 5.54-4.932 9.223 0 3.254 1.299 6.016 3.896 8.285 2.597 2.268 5.885 3.403 9.863 3.403Zm43.547-39.306c1.742-4.142 4.307-7.414 7.693-9.814 3.387-2.4 7.135-3.6 11.244-3.6 5.721 0 9.962 1.628 12.724 4.883 2.795 3.222 4.208 8.104 4.241 14.647V861h-2.663v-34.916c-.033-5.721-1.2-9.945-3.501-12.674-2.302-2.762-5.951-4.143-10.949-4.143-4.602 0-8.597 1.644-11.984 4.932-3.353 3.255-5.622 7.463-6.805 12.625V861h-2.663v-53.36h2.663v12.427Zm50.204 13.71c0-8.515 1.792-15.156 5.375-19.923 3.584-4.801 8.499-7.201 14.746-7.201 4.011 0 7.545.904 10.603 2.713 3.091 1.808 5.589 4.504 7.496 8.088V785.25h2.663V861h-2.663v-8.532c-1.808 3.025-4.29 5.376-7.447 7.053-3.156 1.643-6.74 2.465-10.751 2.465-6.181 0-11.063-2.449-14.647-7.348-3.583-4.899-5.375-11.622-5.375-20.17v-.691Zm2.762 1.036c0 7.562 1.496 13.546 4.487 17.951 2.992 4.373 7.234 6.559 12.724 6.559 4.406 0 8.17-.97 11.294-2.909 3.123-1.973 5.441-4.85 6.953-8.631V822.78c-3.057-8.976-9.107-13.464-18.148-13.464-5.458 0-9.716 2.154-12.773 6.461-3.025 4.307-4.537 10.652-4.537 19.036Zm81.865-14.746c1.742-4.142 4.307-7.414 7.693-9.814 3.387-2.4 7.135-3.6 11.244-3.6 5.721 0 9.962 1.628 12.724 4.883 2.795 3.222 4.208 8.104 4.241 14.647V861h-2.663v-34.916c-.033-5.721-1.2-9.945-3.501-12.674-2.302-2.762-5.951-4.143-10.949-4.143-4.602 0-8.597 1.644-11.983 4.932-3.354 3.255-5.623 7.463-6.806 12.625V861h-2.663v-53.36h2.663v12.427Zm71.854 41.919c-4.307 0-8.269-1.15-11.885-3.452-3.584-2.334-6.395-5.523-8.433-9.567-2.039-4.044-3.058-8.532-3.058-13.464v-2.219c0-4.931.986-9.452 2.959-13.562 1.973-4.11 4.685-7.315 8.137-9.617 3.452-2.301 7.217-3.452 11.294-3.452 5.95 0 10.816 2.121 14.597 6.362 3.781 4.241 5.672 9.814 5.672 16.718v2.811h-39.996v2.91c0 4.34.904 8.367 2.712 12.083 1.842 3.682 4.357 6.575 7.546 8.679 3.222 2.104 6.707 3.157 10.455 3.157 3.584 0 6.625-.592 9.123-1.776 2.532-1.216 4.768-3.074 6.707-5.573l1.874 1.332c-3.978 5.754-9.879 8.63-17.704 8.63Zm-.986-52.67c-5.195 0-9.601 1.94-13.217 5.82-3.617 3.846-5.737 8.762-6.362 14.745h37.185v-.641c0-3.616-.773-6.97-2.318-10.06-1.513-3.124-3.617-5.54-6.313-7.25-2.663-1.742-5.655-2.614-8.975-2.614Zm28.655 23.968c0-5.096.97-9.666 2.91-13.71 1.97-4.077 4.73-7.249 8.28-9.518 3.59-2.268 7.63-3.403 12.13-3.403 4.48 0 8.49 1.102 12.04 3.305 3.55 2.202 6.31 5.326 8.28 9.37 2.01 4.044 3.03 8.597 3.06 13.66v2.367c0 5.129-.97 9.716-2.91 13.76-1.94 4.044-4.7 7.2-8.28 9.468-3.56 2.269-7.58 3.403-12.09 3.403-4.5 0-8.55-1.118-12.13-3.353-3.55-2.236-6.31-5.359-8.28-9.37-1.98-4.044-2.98-8.581-3.01-13.612v-2.367Zm2.66 2.071c0 4.439.87 8.516 2.61 12.231 1.78 3.682 4.23 6.559 7.35 8.63 3.16 2.072 6.76 3.107 10.8 3.107 6.09 0 11.03-2.285 14.85-6.855 3.84-4.57 5.77-10.455 5.77-17.655v-1.529c0-4.373-.89-8.416-2.67-12.132-1.77-3.715-4.24-6.608-7.39-8.679-3.13-2.105-6.68-3.157-10.66-3.157-6.08 0-11.04 2.318-14.89 6.954-3.85 4.636-5.77 10.472-5.77 17.507v1.578Zm74.71-5.868h-23.17v-2.663h23.17v2.663Zm14.95-9.42c1.74-4.142 4.3-7.414 7.69-9.814 3.39-2.4 7.14-3.6 11.25-3.6 5.72 0 9.96 1.628 12.72 4.883 2.79 3.222 4.21 8.104 4.24 14.647V861h-2.66v-34.916c-.04-5.721-1.2-9.945-3.5-12.674-2.31-2.762-5.96-4.143-10.95-4.143-4.61 0-8.6 1.644-11.99 4.932-3.35 3.255-5.62 7.463-6.8 12.625V861h-2.67v-53.36h2.67v12.427Zm48.62 13.217c0-5.096.97-9.666 2.91-13.71 1.98-4.077 4.74-7.249 8.29-9.518 3.58-2.268 7.63-3.403 12.13-3.403 4.47 0 8.48 1.102 12.03 3.305 3.55 2.202 6.32 5.326 8.29 9.37 2 4.044 3.02 8.597 3.06 13.66v2.367c0 5.129-.97 9.716-2.91 13.76-1.94 4.044-4.7 7.2-8.29 9.468-3.55 2.269-7.58 3.403-12.08 3.403-4.51 0-8.55-1.118-12.13-3.353-3.55-2.236-6.32-5.359-8.29-9.37-1.97-4.044-2.97-8.581-3.01-13.612v-2.367Zm2.67 2.071c0 4.439.87 8.516 2.61 12.231 1.78 3.682 4.23 6.559 7.35 8.63 3.15 2.072 6.76 3.107 10.8 3.107 6.08 0 11.03-2.285 14.84-6.855 3.85-4.57 5.77-10.455 5.77-17.655v-1.529c0-4.373-.88-8.416-2.66-12.132-1.78-3.715-4.24-6.608-7.4-8.679-3.12-2.105-6.67-3.157-10.65-3.157-6.08 0-11.05 2.318-14.89 6.954-3.85 4.636-5.77 10.472-5.77 17.507v1.578Zm54.54-1.578c0-8.515 1.79-15.156 5.38-19.923 3.58-4.801 8.5-7.201 14.74-7.201 4.01 0 7.55.904 10.6 2.713 3.1 1.808 5.59 4.504 7.5 8.088V785.25h2.66V861h-2.66v-8.532c-1.81 3.025-4.29 5.376-7.45 7.053-3.15 1.643-6.74 2.465-10.75 2.465-6.18 0-11.06-2.449-14.64-7.348-3.59-4.899-5.38-11.622-5.38-20.17v-.691Zm2.76 1.036c0 7.562 1.5 13.546 4.49 17.951 2.99 4.373 7.23 6.559 12.72 6.559 4.41 0 8.17-.97 11.3-2.909 3.12-1.973 5.44-4.85 6.95-8.631V822.78c-3.06-8.976-9.11-13.464-18.15-13.464-5.46 0-9.71 2.154-12.77 6.461-3.03 4.307-4.54 10.652-4.54 19.036Zm74.22 27.173c-4.3 0-8.27-1.15-11.88-3.452-3.59-2.334-6.4-5.523-8.43-9.567-2.04-4.044-3.06-8.532-3.06-13.464v-2.219c0-4.931.98-9.452 2.96-13.562 1.97-4.11 4.68-7.315 8.13-9.617 3.46-2.301 7.22-3.452 11.3-3.452 5.95 0 10.81 2.121 14.59 6.362 3.79 4.241 5.68 9.814 5.68 16.718v2.811h-40v2.91c0 4.34.9 8.367 2.71 12.083 1.84 3.682 4.36 6.575 7.55 8.679 3.22 2.104 6.71 3.157 10.45 3.157 3.59 0 6.63-.592 9.13-1.776 2.53-1.216 4.76-3.074 6.7-5.573l1.88 1.332c-3.98 5.754-9.88 8.63-17.71 8.63Zm-.98-52.67c-5.2 0-9.6 1.94-13.22 5.82-3.62 3.846-5.74 8.762-6.36 14.745h37.18v-.641c0-3.616-.77-6.97-2.31-10.06-1.52-3.124-3.62-5.54-6.32-7.25-2.66-1.742-5.65-2.614-8.97-2.614Zm65.59 38.615c0-6.477-5.53-10.882-16.57-13.217-6.64-1.413-11.26-3.222-13.86-5.424-2.6-2.236-3.9-5.294-3.9-9.173 0-3.913 1.65-7.135 4.94-9.666 3.32-2.532 7.62-3.798 12.92-3.798 5.75 0 10.37 1.381 13.85 4.143 3.49 2.729 5.23 6.427 5.23 11.096h-2.71c0-3.584-1.51-6.575-4.54-8.975-3.02-2.401-6.97-3.601-11.83-3.601-4.67 0-8.37 1.02-11.1 3.058-2.73 2.038-4.09 4.586-4.09 7.644 0 2.4.51 4.291 1.53 5.671 1.01 1.348 2.68 2.581 4.98 3.699 2.3 1.085 5.65 2.137 10.06 3.156 4.4 1.02 7.89 2.22 10.45 3.601 2.57 1.38 4.42 3.024 5.58 4.931 1.15 1.874 1.72 4.176 1.72 6.904 0 4.209-1.72 7.595-5.18 10.16-3.45 2.564-7.97 3.846-13.56 3.846-5.98 0-10.82-1.348-14.5-4.044-3.65-2.728-5.47-6.23-5.47-10.504h2.66c.26 3.748 1.91 6.674 4.93 8.778 3.06 2.072 7.19 3.107 12.38 3.107 4.77 0 8.63-1.101 11.59-3.304 2.99-2.236 4.49-4.932 4.49-8.088ZM1390.69 861h-2.67v-53.36h2.67V861Zm-4.05-70.029c0-.756.27-1.398.79-1.924.53-.559 1.17-.838 1.92-.838.76 0 1.4.279 1.93.838.56.526.84 1.168.84 1.924s-.28 1.397-.84 1.923c-.53.526-1.17.789-1.93.789-.75 0-1.39-.263-1.92-.789a2.641 2.641 0 0 1-.79-1.923Zm54.45 56.96c0-6.477-5.53-10.882-16.57-13.217-6.64-1.413-11.26-3.222-13.86-5.424-2.6-2.236-3.9-5.294-3.9-9.173 0-3.913 1.65-7.135 4.93-9.666 3.33-2.532 7.63-3.798 12.93-3.798 5.75 0 10.37 1.381 13.85 4.143 3.49 2.729 5.23 6.427 5.23 11.096h-2.71c0-3.584-1.51-6.575-4.54-8.975-3.02-2.401-6.97-3.601-11.83-3.601-4.67 0-8.37 1.02-11.1 3.058-2.73 2.038-4.09 4.586-4.09 7.644 0 2.4.51 4.291 1.53 5.671 1.01 1.348 2.67 2.581 4.98 3.699 2.3 1.085 5.65 2.137 10.06 3.156 4.4 1.02 7.89 2.22 10.45 3.601 2.57 1.38 4.42 3.024 5.57 4.931 1.16 1.874 1.73 4.176 1.73 6.904 0 4.209-1.73 7.595-5.18 10.16-3.45 2.564-7.97 3.846-13.56 3.846-5.98 0-10.82-1.348-14.5-4.044-3.65-2.728-5.47-6.23-5.47-10.504h2.66c.26 3.748 1.91 6.674 4.93 8.778 3.06 2.072 7.19 3.107 12.38 3.107 4.77 0 8.63-1.101 11.59-3.304 2.99-2.236 4.49-4.932 4.49-8.088Z" fill="#3C4043"/></svg>