<svg width="1920" height="1080" fill="none" xmlns="http://www.w3.org/2000/svg"><mask id="a" style="mask-type:alpha" maskUnits="userSpaceOnUse" x="50" y="50" width="1820" height="980"><path fill="#C4C4C4" d="M50 50h1820v980H50z"/></mask><g mask="url(#a)"><path fill="#D2E3FC" d="M0 681h937v10H0zM0 465h1146v10H0zM0 384h1152v10H0zM0 367h1184v10H0zM0 775h906v10H0z"/><mask id="b" style="mask-type:alpha" maskUnits="userSpaceOnUse" x="355" y="104" width="880" height="589"><path d="m940.156 104 294.154 294.156-294.154 294.157-584.656-3.657L940.156 104Z" fill="#C4C4C4"/></mask><g mask="url(#b)"><path d="m1166.72 669.5 36.12 13.33V691h-187.48v-8.17l38.48-9.245-19.56-256.925 4.3.645L942.255 691H873.67l-91.59-274.77 4.3-.43-15.05 259.29 33.97 7.74V691h-85.785v-8.17l32.68-7.74 15.265-264.45-38.7-18.705v-8.385h160.82l68.585 220.805-4.945-.215 76.54-220.59h153.73v8.385l-38.49 11.61 21.72 265.955Z" fill="#3C4043"/></g><path d="M1048 637.416v46.751c0 4.306 3.38 7.69 7.69 7.69h46.75c2 0 4-.769 5.38-2.307l167.94-167.783-57.67-57.67-167.78 167.782c-1.54 1.538-2.31 3.384-2.31 5.537Zm272.36-160.247c6-5.998 6-15.687 0-21.684l-35.99-35.987a15.312 15.312 0 0 0-21.68 0l-28.15 28.143 57.68 57.671 28.14-28.143Z" fill="#1A73E8"/></g></svg>