<svg width="1920" height="1080" fill="none" xmlns="http://www.w3.org/2000/svg"><path d="M258.705 454.645V451h30.42v3.645h-30.42Zm41.625 19.485 6.75 2.25V478h-22.995v-1.62l7.92-2.16-21.375-50.085h2.385L253.35 474.13l7.74 2.25V478h-18.81v-1.62l6.885-2.295 23.805-58.635h1.98l25.38 58.68Zm21.708-29.7v30.15l6.795 1.89V478h-20.61v-1.53l6.705-1.89v-29.655c-.48-.42-1.2-.885-2.16-1.395-.93-.51-2.415-1.2-4.455-2.07v-1.035l12.15-4.41h.675l.9 8.415Zm13.095 32.04 6.795-1.89v-23.805c0-1.77-.345-3.27-1.035-4.5s-1.725-2.175-3.105-2.835c-1.38-.66-3.105-.99-5.175-.99-2.37 0-4.59.405-6.66 1.215-2.04.81-3.555 1.74-4.545 2.79l-1.395-1.305c1.86-1.71 3.54-3.135 5.04-4.275 1.53-1.17 2.97-2.1 4.32-2.79 1.38-.69 2.745-1.17 4.095-1.44 1.38-.3 2.82-.45 4.32-.45 3.9 0 6.75 1.17 8.55 3.51 1.83 2.31 2.745 6 2.745 11.07v23.805l6.75 1.89V478h-20.7v-1.53Zm63.387-11.655c0 1.89.285 3.42.855 4.59.57 1.14 1.5 1.98 2.79 2.52s3.015.81 5.175.81c2.16 0 4.23-.375 6.21-1.125 1.98-.78 3.45-1.71 4.41-2.79l1.35 1.485c-1.77 1.65-3.375 3.03-4.815 4.14-1.44 1.11-2.805 1.995-4.095 2.655-1.26.66-2.52 1.125-3.78 1.395-1.26.27-2.625.405-4.095.405-3.84 0-6.66-1.155-8.46-3.465-1.8-2.34-2.7-5.88-2.7-10.62v-23.58l-6.93-2.295v-1.755l14.49-.675-.405 4.68v23.625Zm18.765 14.04-.45-8.28v-29.34l-6.93-2.295v-1.755l14.58-.675-.45 4.68v31.095c.27.24.645.495 1.125.765.51.27 1.065.54 1.665.81.6.27 1.185.525 1.755.765.6.21 1.14.36 1.62.45v1.215l-12.24 2.565h-.675Zm30.483-34.425v30.15l6.795 1.89V478h-20.61v-1.53l6.705-1.89v-29.655c-.48-.42-1.2-.885-2.16-1.395-.93-.51-2.415-1.2-4.455-2.07v-1.035l12.15-4.41h.675l.9 8.415Zm13.095 32.04 6.795-1.89v-23.805c0-1.77-.345-3.27-1.035-4.5s-1.725-2.175-3.105-2.835c-1.38-.66-3.105-.99-5.175-.99-2.37 0-4.59.405-6.66 1.215-2.04.81-3.555 1.74-4.545 2.79l-1.395-1.305c1.86-1.71 3.54-3.135 5.04-4.275 1.53-1.17 2.97-2.1 4.32-2.79 1.38-.69 2.745-1.17 4.095-1.44 1.38-.3 2.82-.45 4.32-.45 3.9 0 6.75 1.17 8.55 3.51 1.83 2.31 2.745 6 2.745 11.07v23.805l6.75 1.89V478h-20.7v-1.53Zm50.218-24.75.675 2.745c-3.78.96-6.855 1.92-9.225 2.88-2.37.96-4.215 1.935-5.535 2.925-1.29.96-2.19 1.995-2.7 3.105-.48 1.08-.72 2.265-.72 3.555 0 2.22.645 3.915 1.935 5.085 1.32 1.14 2.925 1.71 4.815 1.71 1.5 0 2.85-.345 4.05-1.035a8.157 8.157 0 0 0 2.925-2.88c.72-1.23 1.08-2.61 1.08-4.14v-17.685c0-2.46-.63-4.38-1.89-5.76-1.23-1.41-3.21-2.115-5.94-2.115-1.11 0-2.31.135-3.6.405-1.26.27-2.4.66-3.42 1.17l2.34-1.98a32.23 32.23 0 0 1-.405 2.835c-.18.96-.39 1.83-.63 2.61-.24.75-.54 1.32-.9 1.71-.45.51-1.05.885-1.8 1.125-.72.24-1.47.36-2.25.36-.96 0-1.74-.21-2.34-.63-.57-.45-.855-1.05-.855-1.8 0-1.02.51-2.085 1.53-3.195 1.02-1.11 2.34-2.13 3.96-3.06 1.65-.96 3.465-1.725 5.445-2.295 1.98-.6 3.945-.9 5.895-.9 2.88 0 5.19.435 6.93 1.305 1.77.84 3.045 2.07 3.825 3.69.81 1.62 1.215 3.585 1.215 5.895v22.59c0 .96.135 1.755.405 2.385.3.6.72 1.05 1.26 1.35.54.3 1.2.45 1.98.45s1.605-.15 2.475-.45c.87-.3 1.74-.72 2.61-1.26v1.8c-1.56 1.77-3.09 2.985-4.59 3.645-1.47.66-2.895.99-4.275.99-1.56 0-2.85-.345-3.87-1.035-1.02-.72-1.785-1.725-2.295-3.015-.51-1.32-.78-2.88-.81-4.68l.225-.315a11.775 11.775 0 0 1-2.295 4.725 11.858 11.858 0 0 1-3.915 3.195c-1.53.78-3.18 1.17-4.95 1.17-3.24 0-5.925-.885-8.055-2.655-2.13-1.8-3.195-4.38-3.195-7.74 0-1.77.33-3.36.99-4.77.69-1.44 1.92-2.79 3.69-4.05 1.8-1.29 4.335-2.565 7.605-3.825 3.27-1.29 7.47-2.67 12.6-4.14Zm50.515-11.295-15.84 38.565h-1.845l-17.865-38.16-5.67-1.98v-1.755h19.485v1.755l-6.075 1.8 13.77 29.565h-1.125l11.52-29.79-6.075-1.575v-1.755h14.715v1.755l-4.995 1.575Zm27.021 35.505c2.49 0 4.65-.63 6.48-1.89 1.83-1.29 3.255-3.24 4.275-5.85 1.02-2.64 1.53-5.94 1.53-9.9 0-4.17-.51-7.665-1.53-10.485-.99-2.85-2.415-4.995-4.275-6.435-1.83-1.47-4.02-2.205-6.57-2.205-2.49 0-4.65.645-6.48 1.935-1.83 1.26-3.255 3.195-4.275 5.805-1.02 2.61-1.53 5.91-1.53 9.9 0 4.14.495 7.635 1.485 10.485 1.02 2.85 2.445 5.01 4.275 6.48 1.86 1.44 4.065 2.16 6.615 2.16Zm-.18 2.97c-3.9 0-7.38-.885-10.44-2.655-3.03-1.8-5.415-4.29-7.155-7.47-1.74-3.18-2.61-6.825-2.61-10.935 0-4.2.9-7.935 2.7-11.205 1.83-3.27 4.275-5.82 7.335-7.65 3.09-1.86 6.57-2.79 10.44-2.79 3.93 0 7.41.9 10.44 2.7 3.03 1.77 5.415 4.245 7.155 7.425 1.74 3.15 2.61 6.795 2.61 10.935 0 4.2-.915 7.935-2.745 11.205-1.8 3.24-4.245 5.79-7.335 7.65-3.09 1.86-6.555 2.79-10.395 2.79Zm35.853-54.36c-1.68 0-3.045-.555-4.095-1.665-1.02-1.14-1.53-2.475-1.53-4.005 0-1.53.51-2.82 1.53-3.87 1.05-1.08 2.415-1.62 4.095-1.62 1.71 0 3.06.54 4.05 1.62 1.02 1.05 1.53 2.34 1.53 3.87 0 1.53-.51 2.865-1.53 4.005-.99 1.11-2.34 1.665-4.05 1.665Zm4.32 11.475-.18 7.785v30.78l6.795 1.89V478H614.57v-1.53l6.705-1.89v-30.015c-.33-.3-.84-.66-1.53-1.08-.69-.45-1.47-.9-2.34-1.35-.87-.45-1.77-.87-2.7-1.26v-1.17l13.275-3.69h.63Zm43.023 12.555c0-2.64-.96-4.83-2.88-6.57-1.89-1.74-4.5-2.61-7.83-2.61-2.76 0-5.115.705-7.065 2.115-1.95 1.41-3.42 3.42-4.41 6.03-.99 2.61-1.485 5.76-1.485 9.45 0 3.63.525 6.69 1.575 9.18 1.05 2.46 2.55 4.32 4.5 5.58 1.98 1.23 4.335 1.845 7.065 1.845 2.37 0 4.62-.39 6.75-1.17 2.16-.78 4.245-2.04 6.255-3.78l.225 2.43c-2.07 1.56-3.885 2.865-5.445 3.915-1.53 1.02-2.925 1.815-4.185 2.385-1.23.57-2.385.96-3.465 1.17-1.08.24-2.19.36-3.33.36-3.81 0-7.065-.81-9.765-2.43-2.67-1.62-4.71-3.885-6.12-6.795-1.38-2.91-2.07-6.27-2.07-10.08 0-3.66.57-6.93 1.71-9.81 1.14-2.91 2.73-5.37 4.77-7.38a20.405 20.405 0 0 1 7.11-4.635c2.7-1.05 5.58-1.575 8.64-1.575 1.56 0 3.09.12 4.59.36 1.53.24 3.075.615 4.635 1.125 1.56.51 3.135 1.185 4.725 2.025l-4.5 2.115v-20.925c-.36-.36-.87-.735-1.53-1.125s-1.41-.78-2.25-1.17c-.81-.39-1.65-.78-2.52-1.17v-.81l13.275-3.465h.63l-.495 7.2v51.93c.27.24.66.495 1.17.765.51.27 1.065.54 1.665.81.6.27 1.185.525 1.755.765.6.21 1.14.36 1.62.45v1.215l-12.24 2.565h-.675l-.405-6.66V448.57Zm43.178 3.15.675 2.745c-3.78.96-6.855 1.92-9.225 2.88-2.37.96-4.215 1.935-5.535 2.925-1.29.96-2.19 1.995-2.7 3.105-.48 1.08-.72 2.265-.72 3.555 0 2.22.645 3.915 1.935 5.085 1.32 1.14 2.925 1.71 4.815 1.71 1.5 0 2.85-.345 4.05-1.035a8.157 8.157 0 0 0 2.925-2.88c.72-1.23 1.08-2.61 1.08-4.14v-17.685c0-2.46-.63-4.38-1.89-5.76-1.23-1.41-3.21-2.115-5.94-2.115-1.11 0-2.31.135-3.6.405-1.26.27-2.4.66-3.42 1.17l2.34-1.98a32.23 32.23 0 0 1-.405 2.835c-.18.96-.39 1.83-.63 2.61-.24.75-.54 1.32-.9 1.71-.45.51-1.05.885-1.8 1.125-.72.24-1.47.36-2.25.36-.96 0-1.74-.21-2.34-.63-.57-.45-.855-1.05-.855-1.8 0-1.02.51-2.085 1.53-3.195 1.02-1.11 2.34-2.13 3.96-3.06 1.65-.96 3.465-1.725 5.445-2.295 1.98-.6 3.945-.9 5.895-.9 2.88 0 5.19.435 6.93 1.305 1.77.84 3.045 2.07 3.825 3.69.81 1.62 1.215 3.585 1.215 5.895v22.59c0 .96.135 1.755.405 2.385.3.6.72 1.05 1.26 1.35.54.3 1.2.45 1.98.45s1.605-.15 2.475-.45c.87-.3 1.74-.72 2.61-1.26v1.8c-1.56 1.77-3.09 2.985-4.59 3.645-1.47.66-2.895.99-4.275.99-1.56 0-2.85-.345-3.87-1.035-1.02-.72-1.785-1.725-2.295-3.015-.51-1.32-.78-2.88-.81-4.68l.225-.315a11.775 11.775 0 0 1-2.295 4.725 11.858 11.858 0 0 1-3.915 3.195c-1.53.78-3.18 1.17-4.95 1.17-3.24 0-5.925-.885-8.055-2.655-2.13-1.8-3.195-4.38-3.195-7.74 0-1.77.33-3.36.99-4.77.69-1.44 1.92-2.79 3.69-4.05 1.8-1.29 4.335-2.565 7.605-3.825 3.27-1.29 7.47-2.67 12.6-4.14Zm21.738 23.67 4.995-.45-7.74 4.05-1.125-.45 1.26-10.08v-46.485c-.39-.39-.915-.81-1.575-1.26-.63-.48-1.395-.975-2.295-1.485a56.85 56.85 0 0 0-3.105-1.62v-.81l13.815-3.645h.765l-.495 7.29v46.08c0 1.74.45 3.3 1.35 4.68.93 1.38 2.22 2.475 3.87 3.285 1.68.81 3.615 1.215 5.805 1.215 2.67 0 4.95-.705 6.84-2.115 1.89-1.41 3.33-3.435 4.32-6.075.99-2.64 1.485-5.775 1.485-9.405 0-3.63-.525-6.675-1.575-9.135-1.05-2.49-2.565-4.365-4.545-5.625-1.95-1.26-4.29-1.89-7.02-1.89-1.74 0-3.39.165-4.95.495-1.56.33-3.03.84-4.41 1.53-1.38.66-2.685 1.545-3.915 2.655l-.225-2.43c1.74-1.38 3.375-2.535 4.905-3.465 1.56-.96 3.015-1.74 4.365-2.34 1.38-.6 2.7-1.035 3.96-1.305 1.26-.27 2.46-.405 3.6-.405 3.84 0 7.08.81 9.72 2.43 2.64 1.62 4.65 3.885 6.03 6.795 1.38 2.88 2.07 6.225 2.07 10.035 0 3.6-.555 6.84-1.665 9.72-1.11 2.88-2.685 5.34-4.725 7.38-2.01 2.04-4.395 3.615-7.155 4.725-2.73 1.08-5.745 1.62-9.045 1.62-1.41 0-2.865-.12-4.365-.36a30.416 30.416 0 0 1-4.545-1.125 31.092 31.092 0 0 1-4.68-2.025Zm54.942-.81 6.795 1.89V478h-20.655v-1.53l6.705-1.89v-52.83c-.39-.39-.915-.795-1.575-1.215-.63-.42-1.41-.87-2.34-1.35-.93-.48-1.98-.975-3.15-1.485v-.855l13.86-3.69h.675l-.315 7.425v54Zm30.712-38.385c2.97 0 5.55.645 7.74 1.935 2.22 1.29 3.975 3.18 5.265 5.67 1.32 2.49 2.13 5.55 2.43 9.18h-28.305l.09-2.88 23.67-.72-3.195 1.845c-.24-2.52-.705-4.665-1.395-6.435-.69-1.77-1.62-3.12-2.79-4.05-1.17-.96-2.64-1.44-4.41-1.44-2.22 0-4.155.615-5.805 1.845-1.62 1.23-2.88 3.045-3.78 5.445-.9 2.37-1.35 5.25-1.35 8.64 0 3.9.645 7.185 1.935 9.855 1.32 2.67 3.165 4.68 5.535 6.03 2.4 1.35 5.235 2.025 8.505 2.025 1.32 0 2.61-.165 3.87-.495 1.26-.36 2.475-.885 3.645-1.575 1.2-.72 2.295-1.59 3.285-2.61l.99.99c-1.62 2.22-3.27 4.035-4.95 5.445-1.65 1.38-3.405 2.4-5.265 3.06-1.83.63-3.81.945-5.94.945-3.63 0-6.87-.855-9.72-2.565-2.85-1.71-5.1-4.11-6.75-7.2-1.65-3.12-2.475-6.78-2.475-10.98 0-3.99.765-7.65 2.295-10.98 1.53-3.33 3.72-5.985 6.57-7.965 2.88-2.01 6.315-3.015 10.305-3.015Zm84.452 21.915c0-5.46-1.17-9.6-3.51-12.42-2.34-2.82-5.55-4.23-9.63-4.23-1.71 0-3.345.165-4.905.495-1.56.33-3.045.84-4.455 1.53-1.38.66-2.685 1.545-3.915 2.655l-.225-2.43c1.77-1.41 3.435-2.595 4.995-3.555 1.59-.96 3.075-1.725 4.455-2.295 1.41-.6 2.73-1.02 3.96-1.26 1.23-.27 2.37-.405 3.42-.405 3.84 0 7.08.81 9.72 2.43 2.64 1.62 4.65 3.885 6.03 6.795 1.38 2.88 2.07 6.225 2.07 10.035 0 4.86-.99 9.045-2.97 12.555-1.98 3.51-4.65 6.21-8.01 8.1-3.36 1.86-7.11 2.79-11.25 2.79-1.56 0-3.105-.12-4.635-.36a30.06 30.06 0 0 1-4.59-1.125 30.257 30.257 0 0 1-4.725-2.025h4.5v21.195l7.56 1.89v1.485H869.17v-1.485l6.705-1.89v-51.66c-.39-.36-.885-.705-1.485-1.035-.6-.33-1.335-.69-2.205-1.08-.84-.42-1.815-.87-2.925-1.35v-1.035l12.15-4.41h.675l.9 6.12v24.39c0 1.74.465 3.315 1.395 4.725.93 1.38 2.22 2.475 3.87 3.285 1.65.78 3.57 1.17 5.76 1.17 2.67 0 4.95-.705 6.84-2.115 1.89-1.41 3.33-3.435 4.32-6.075.99-2.64 1.485-5.775 1.485-9.405Zm40.059-6.39.675 2.745c-3.78.96-6.855 1.92-9.225 2.88-2.37.96-4.215 1.935-5.535 2.925-1.29.96-2.19 1.995-2.7 3.105-.48 1.08-.72 2.265-.72 3.555 0 2.22.645 3.915 1.935 5.085 1.32 1.14 2.925 1.71 4.815 1.71 1.5 0 2.85-.345 4.05-1.035a8.157 8.157 0 0 0 2.925-2.88c.72-1.23 1.08-2.61 1.08-4.14v-17.685c0-2.46-.63-4.38-1.89-5.76-1.23-1.41-3.21-2.115-5.94-2.115-1.11 0-2.31.135-3.6.405-1.26.27-2.4.66-3.42 1.17l2.34-1.98a32.23 32.23 0 0 1-.405 2.835c-.18.96-.39 1.83-.63 2.61-.24.75-.54 1.32-.9 1.71-.45.51-1.05.885-1.8 1.125-.72.24-1.47.36-2.25.36-.96 0-1.74-.21-2.34-.63-.57-.45-.855-1.05-.855-1.8 0-1.02.51-2.085 1.53-3.195 1.02-1.11 2.34-2.13 3.96-3.06 1.65-.96 3.465-1.725 5.445-2.295 1.98-.6 3.945-.9 5.895-.9 2.88 0 5.19.435 6.93 1.305 1.77.84 3.045 2.07 3.825 3.69.81 1.62 1.215 3.585 1.215 5.895v22.59c0 .96.135 1.755.405 2.385.3.6.72 1.05 1.26 1.35.54.3 1.2.45 1.98.45s1.605-.15 2.475-.45c.87-.3 1.74-.72 2.61-1.26v1.8c-1.56 1.77-3.09 2.985-4.59 3.645-1.47.66-2.895.99-4.275.99-1.56 0-2.85-.345-3.87-1.035-1.02-.72-1.785-1.725-2.295-3.015-.51-1.32-.78-2.88-.81-4.68l.225-.315a11.775 11.775 0 0 1-2.295 4.725 11.858 11.858 0 0 1-3.915 3.195c-1.53.78-3.18 1.17-4.95 1.17-3.24 0-5.925-.885-8.055-2.655-2.13-1.8-3.195-4.38-3.195-7.74 0-1.77.33-3.36.99-4.77.69-1.44 1.92-2.79 3.69-4.05 1.8-1.29 4.335-2.565 7.605-3.825 3.27-1.29 7.47-2.67 12.6-4.14Zm41.943-15.3c1.47 0 2.565.375 3.285 1.125.72.72 1.08 1.68 1.08 2.88 0 1.44-.465 2.595-1.395 3.465-.9.87-2.1 1.305-3.6 1.305-.66 0-1.335-.105-2.025-.315-.66-.24-1.365-.465-2.115-.675-.72-.21-1.53-.315-2.43-.315-.75 0-1.53.12-2.34.36-.81.24-1.62.57-2.43.99-.78.42-1.5.915-2.16 1.485l-.675-1.71c1.92-1.68 3.63-3.06 5.13-4.14 1.53-1.11 2.88-1.995 4.05-2.655 1.17-.66 2.205-1.125 3.105-1.395.93-.27 1.77-.405 2.52-.405Zm-13.41 8.01v30.15l7.11 1.89V478h-20.925v-1.53l6.705-1.89v-29.655c-.39-.36-.885-.705-1.485-1.035-.6-.33-1.335-.69-2.205-1.08-.84-.42-1.815-.87-2.925-1.35v-1.035l12.735-4.41h.72l.27 8.415Zm33.053 22.455c0 2.07.63 3.63 1.89 4.68 1.29 1.05 3.06 1.575 5.31 1.575 1.14 0 2.36-.105 3.65-.315 1.32-.24 2.77-.6 4.36-1.08v1.845c-2.07 1.38-3.84 2.445-5.31 3.195-1.44.75-2.71 1.275-3.82 1.575-1.11.3-2.22.45-3.33.45-1.89 0-3.59-.375-5.09-1.125-1.47-.75-2.64-1.89-3.51-3.42-.87-1.56-1.3-3.51-1.3-5.85v-25.38l-5.135-3.42v-.72c.54-.39 1.125-.81 1.755-1.26.63-.48 1.305-.975 2.025-1.485.725-.51 1.475-1.05 2.255-1.62.78-.6 1.6-1.215 2.47-1.845.87-.63 1.77-1.275 2.7-1.935h1.08V466.885Zm-2.65-25.425v-4.365h16.6l-.72 4.365h-15.88Zm69.1 34.47c2.49 0 4.65-.63 6.48-1.89 1.83-1.29 3.25-3.24 4.27-5.85 1.02-2.64 1.53-5.94 1.53-9.9 0-4.17-.51-7.665-1.53-10.485-.99-2.85-2.41-4.995-4.27-6.435-1.83-1.47-4.02-2.205-6.57-2.205-2.49 0-4.65.645-6.48 1.935-1.83 1.26-3.26 3.195-4.28 5.805-1.02 2.61-1.53 5.91-1.53 9.9 0 4.14.5 7.635 1.49 10.485 1.02 2.85 2.44 5.01 4.27 6.48 1.86 1.44 4.07 2.16 6.62 2.16Zm-.18 2.97c-3.9 0-7.38-.885-10.44-2.655-3.03-1.8-5.42-4.29-7.16-7.47-1.74-3.18-2.61-6.825-2.61-10.935 0-4.2.9-7.935 2.7-11.205 1.83-3.27 4.28-5.82 7.34-7.65 3.09-1.86 6.57-2.79 10.44-2.79 3.93 0 7.41.9 10.44 2.7 3.03 1.77 5.41 4.245 7.15 7.425 1.74 3.15 2.61 6.795 2.61 10.935 0 4.2-.91 7.935-2.74 11.205-1.8 3.24-4.25 5.79-7.34 7.65-3.09 1.86-6.55 2.79-10.39 2.79Zm35.08-37.44-1.8.945-7.83-1.305v-1.395l8.42-2.7 2.16.09h17.19l-.77 4.365h-17.37Zm5.18 33.12 7.6 1.89V478h-21.51v-1.53l6.71-1.89v-38.475c0-3.9.63-7.29 1.89-10.17 1.26-2.88 2.97-5.265 5.13-7.155 2.19-1.89 4.63-3.3 7.33-4.23 2.73-.93 5.54-1.395 8.42-1.395 1.56 0 2.89.135 4 .405 1.11.24 2.03.585 2.75 1.035.72.45 1.24.96 1.57 1.53.33.57.5 1.185.5 1.845 0 1.17-.39 2.16-1.17 2.97-.78.78-1.76 1.17-2.93 1.17-.78 0-1.53-.255-2.25-.765s-1.47-1.08-2.25-1.71a14.7 14.7 0 0 0-2.61-1.755c-.96-.51-2.08-.765-3.37-.765-1.8 0-3.45.435-4.95 1.305-1.47.87-2.66 2.28-3.56 4.23-.87 1.92-1.3 4.515-1.3 7.785v44.145Zm59.13 0 6.79 1.89V478h-20.65v-1.53l6.7-1.89v-52.83c-.39-.39-.91-.795-1.57-1.215-.63-.42-1.41-.87-2.34-1.35-.93-.48-1.98-.975-3.15-1.485v-.855l13.86-3.69h.67l-.31 7.425v54Zm20.18-50.04c-1.68 0-3.05-.555-4.1-1.665-1.02-1.14-1.53-2.475-1.53-4.005 0-1.53.51-2.82 1.53-3.87 1.05-1.08 2.42-1.62 4.1-1.62 1.71 0 3.06.54 4.05 1.62 1.02 1.05 1.53 2.34 1.53 3.87 0 1.53-.51 2.865-1.53 4.005-.99 1.11-2.34 1.665-4.05 1.665Zm4.32 11.475-.18 7.785v30.78l6.79 1.89V478h-20.65v-1.53l6.7-1.89v-30.015c-.33-.3-.84-.66-1.53-1.08-.69-.45-1.47-.9-2.34-1.35-.87-.45-1.77-.87-2.7-1.26v-1.17l13.28-3.69h.63Zm19.17 5.445-1.8.945-7.83-1.305v-1.395l8.42-2.7 2.16.09h17.19l-.77 4.365h-17.37Zm5.18 33.12 7.6 1.89V478h-21.51v-1.53l6.71-1.89v-38.475c0-3.9.63-7.29 1.89-10.17 1.26-2.88 2.97-5.265 5.13-7.155 2.19-1.89 4.63-3.3 7.33-4.23 2.73-.93 5.54-1.395 8.42-1.395 1.56 0 2.89.135 4 .405 1.11.24 2.03.585 2.75 1.035.72.45 1.24.96 1.57 1.53.33.57.5 1.185.5 1.845 0 1.17-.39 2.16-1.17 2.97-.78.78-1.76 1.17-2.93 1.17-.78 0-1.53-.255-2.25-.765s-1.47-1.08-2.25-1.71a14.7 14.7 0 0 0-2.61-1.755c-.96-.51-2.08-.765-3.37-.765-1.8 0-3.45.435-4.95 1.305-1.47.87-2.66 2.28-3.56 4.23-.87 1.92-1.3 4.515-1.3 7.785v44.145Zm34.33-38.385c2.97 0 5.55.645 7.74 1.935 2.22 1.29 3.97 3.18 5.26 5.67 1.32 2.49 2.13 5.55 2.43 9.18h-28.3l.09-2.88 23.67-.72-3.2 1.845c-.24-2.52-.7-4.665-1.39-6.435-.69-1.77-1.62-3.12-2.79-4.05-1.17-.96-2.64-1.44-4.41-1.44-2.22 0-4.16.615-5.81 1.845-1.62 1.23-2.88 3.045-3.78 5.445-.9 2.37-1.35 5.25-1.35 8.64 0 3.9.65 7.185 1.94 9.855 1.32 2.67 3.16 4.68 5.53 6.03 2.4 1.35 5.24 2.025 8.51 2.025 1.32 0 2.61-.165 3.87-.495 1.26-.36 2.47-.885 3.64-1.575 1.2-.72 2.3-1.59 3.29-2.61l.99.99c-1.62 2.22-3.27 4.035-4.95 5.445-1.65 1.38-3.41 2.4-5.27 3.06-1.83.63-3.81.945-5.94.945-3.63 0-6.87-.855-9.72-2.565-2.85-1.71-5.1-4.11-6.75-7.2-1.65-3.12-2.47-6.78-2.47-10.98 0-3.99.76-7.65 2.29-10.98s3.72-5.985 6.57-7.965c2.88-2.01 6.32-3.015 10.31-3.015Zm74.24 15.525.67 2.745c-3.78.96-6.85 1.92-9.22 2.88-2.37.96-4.22 1.935-5.54 2.925-1.29.96-2.19 1.995-2.7 3.105-.48 1.08-.72 2.265-.72 3.555 0 2.22.65 3.915 1.94 5.085 1.32 1.14 2.92 1.71 4.81 1.71 1.5 0 2.85-.345 4.05-1.035a8.17 8.17 0 0 0 2.93-2.88c.72-1.23 1.08-2.61 1.08-4.14v-17.685c0-2.46-.63-4.38-1.89-5.76-1.23-1.41-3.21-2.115-5.94-2.115-1.11 0-2.31.135-3.6.405-1.26.27-2.4.66-3.42 1.17l2.34-1.98c-.09.93-.23 1.875-.41 2.835-.18.96-.39 1.83-.63 2.61-.24.75-.54 1.32-.9 1.71-.45.51-1.05.885-1.8 1.125-.72.24-1.47.36-2.25.36-.96 0-1.74-.21-2.34-.63-.57-.45-.85-1.05-.85-1.8 0-1.02.51-2.085 1.53-3.195 1.02-1.11 2.34-2.13 3.96-3.06 1.65-.96 3.46-1.725 5.44-2.295 1.98-.6 3.95-.9 5.9-.9 2.88 0 5.19.435 6.93 1.305 1.77.84 3.04 2.07 3.82 3.69.81 1.62 1.22 3.585 1.22 5.895v22.59c0 .96.13 1.755.4 2.385.3.6.72 1.05 1.26 1.35.54.3 1.2.45 1.98.45s1.61-.15 2.48-.45c.87-.3 1.74-.72 2.61-1.26v1.8c-1.56 1.77-3.09 2.985-4.59 3.645-1.47.66-2.9.99-4.28.99-1.56 0-2.85-.345-3.87-1.035-1.02-.72-1.78-1.725-2.29-3.015-.51-1.32-.78-2.88-.81-4.68l.22-.315c-.42 1.77-1.18 3.345-2.29 4.725a11.876 11.876 0 0 1-3.92 3.195c-1.53.78-3.18 1.17-4.95 1.17-3.24 0-5.92-.885-8.05-2.655-2.13-1.8-3.2-4.38-3.2-7.74 0-1.77.33-3.36.99-4.77.69-1.44 1.92-2.79 3.69-4.05 1.8-1.29 4.34-2.565 7.61-3.825 3.27-1.29 7.47-2.67 12.6-4.14Zm30.91-15.525c1.8 0 3.44.18 4.91.54 1.47.36 3.07.975 4.81 1.845l.9 11.205h-1.75l-4.86-11.385 3.19 3.87c-1.29-1.17-2.5-2.01-3.64-2.52-1.11-.54-2.4-.81-3.87-.81-2.37 0-4.23.54-5.58 1.62-1.35 1.05-2.03 2.535-2.03 4.455 0 1.41.35 2.595 1.04 3.555.72.96 1.77 1.845 3.15 2.655 1.38.78 3.1 1.605 5.17 2.475 1.53.66 2.93 1.38 4.19 2.16 1.26.78 2.32 1.665 3.19 2.655.9.99 1.59 2.13 2.07 3.42.51 1.29.77 2.79.77 4.5 0 2.58-.68 4.815-2.03 6.705-1.32 1.86-3.1 3.285-5.35 4.275-2.25.99-4.79 1.485-7.61 1.485-1.92 0-3.64-.165-5.17-.495-1.5-.3-2.99-.795-4.46-1.485l-2.2-11.97h1.93l6.53 12.375-4.41-3.15c1.02.54 1.92.975 2.7 1.305.81.3 1.57.51 2.29.63.72.09 1.46.135 2.21.135 2.76 0 5.02-.615 6.79-1.845 1.8-1.26 2.7-3.15 2.7-5.67 0-1.2-.25-2.235-.76-3.105-.51-.9-1.23-1.695-2.16-2.385-.93-.69-2.03-1.335-3.29-1.935-1.23-.63-2.56-1.26-4-1.89-1.92-.87-3.56-1.83-4.91-2.88a11.006 11.006 0 0 1-3.1-3.87c-.69-1.5-1.04-3.27-1.04-5.31 0-2.37.6-4.38 1.8-6.03 1.23-1.68 2.88-2.955 4.95-3.825 2.07-.87 4.38-1.305 6.93-1.305Zm71.09 15.525.67 2.745c-3.78.96-6.85 1.92-9.22 2.88-2.37.96-4.22 1.935-5.54 2.925-1.29.96-2.19 1.995-2.7 3.105-.48 1.08-.72 2.265-.72 3.555 0 2.22.65 3.915 1.94 5.085 1.32 1.14 2.92 1.71 4.81 1.71 1.5 0 2.85-.345 4.05-1.035a8.17 8.17 0 0 0 2.93-2.88c.72-1.23 1.08-2.61 1.08-4.14v-17.685c0-2.46-.63-4.38-1.89-5.76-1.23-1.41-3.21-2.115-5.94-2.115-1.11 0-2.31.135-3.6.405-1.26.27-2.4.66-3.42 1.17l2.34-1.98c-.09.93-.23 1.875-.41 2.835-.18.96-.39 1.83-.63 2.61-.24.75-.54 1.32-.9 1.71-.45.51-1.05.885-1.8 1.125-.72.24-1.47.36-2.25.36-.96 0-1.74-.21-2.34-.63-.57-.45-.85-1.05-.85-1.8 0-1.02.51-2.085 1.53-3.195 1.02-1.11 2.34-2.13 3.96-3.06 1.65-.96 3.46-1.725 5.44-2.295 1.98-.6 3.95-.9 5.9-.9 2.88 0 5.19.435 6.93 1.305 1.77.84 3.04 2.07 3.82 3.69.81 1.62 1.22 3.585 1.22 5.895v22.59c0 .96.13 1.755.4 2.385.3.6.72 1.05 1.26 1.35.54.3 1.2.45 1.98.45s1.61-.15 2.48-.45c.87-.3 1.74-.72 2.61-1.26v1.8c-1.56 1.77-3.09 2.985-4.59 3.645-1.47.66-2.9.99-4.28.99-1.56 0-2.85-.345-3.87-1.035-1.02-.72-1.78-1.725-2.29-3.015-.51-1.32-.78-2.88-.81-4.68l.22-.315c-.42 1.77-1.18 3.345-2.29 4.725a11.876 11.876 0 0 1-3.92 3.195c-1.53.78-3.18 1.17-4.95 1.17-3.24 0-5.92-.885-8.05-2.655-2.13-1.8-3.2-4.38-3.2-7.74 0-1.77.33-3.36.99-4.77.69-1.44 1.92-2.79 3.69-4.05 1.8-1.29 4.34-2.565 7.61-3.825 3.27-1.29 7.47-2.67 12.6-4.14Zm-860.586 75.82c-1.68 0-3.045-.555-4.095-1.665-1.02-1.14-1.53-2.475-1.53-4.005 0-1.53.51-2.82 1.53-3.87 1.05-1.08 2.415-1.62 4.095-1.62 1.71 0 3.06.54 4.05 1.62 1.02 1.05 1.53 2.34 1.53 3.87 0 1.53-.51 2.865-1.53 4.005-.99 1.11-2.34 1.665-4.05 1.665Zm4.32 11.475-.18 7.785v30.78l6.795 1.89V581h-20.655v-1.53l6.705-1.89v-30.015c-.33-.3-.84-.66-1.53-1.08-.69-.45-1.47-.9-2.34-1.35-.87-.45-1.77-.87-2.7-1.26v-1.17l13.275-3.69h.63Zm26.328.18c1.8 0 3.435.18 4.905.54 1.47.36 3.075.975 4.815 1.845l.9 11.205h-1.755l-4.86-11.385 3.195 3.87c-1.29-1.17-2.505-2.01-3.645-2.52-1.11-.54-2.4-.81-3.87-.81-2.37 0-4.23.54-5.58 1.62-1.35 1.05-2.025 2.535-2.025 4.455 0 1.41.345 2.595 1.035 3.555.72.96 1.77 1.845 3.15 2.655 1.38.78 3.105 1.605 5.175 2.475 1.53.66 2.925 1.38 4.185 2.16 1.26.78 2.325 1.665 3.195 2.655.9.99 1.59 2.13 2.07 3.42.51 1.29.765 2.79.765 4.5 0 2.58-.675 4.815-2.025 6.705-1.32 1.86-3.105 3.285-5.355 4.275-2.25.99-4.785 1.485-7.605 1.485-1.92 0-3.645-.165-5.175-.495-1.5-.3-2.985-.795-4.455-1.485l-2.205-11.97h1.935l6.525 12.375-4.41-3.15c1.02.54 1.92.975 2.7 1.305.81.3 1.575.51 2.295.63.72.09 1.455.135 2.205.135 2.76 0 5.025-.615 6.795-1.845 1.8-1.26 2.7-3.15 2.7-5.67 0-1.2-.255-2.235-.765-3.105-.51-.9-1.23-1.695-2.16-2.385-.93-.69-2.025-1.335-3.285-1.935a72.885 72.885 0 0 0-4.005-1.89c-1.92-.87-3.555-1.83-4.905-2.88-1.35-1.08-2.385-2.37-3.105-3.87-.69-1.5-1.035-3.27-1.035-5.31 0-2.37.6-4.38 1.8-6.03 1.23-1.68 2.88-2.955 4.95-3.825 2.07-.87 4.38-1.305 6.93-1.305Zm55.597 30.69c0 2.07.63 3.63 1.89 4.68 1.29 1.05 3.06 1.575 5.31 1.575 1.14 0 2.355-.105 3.645-.315 1.32-.24 2.775-.6 4.365-1.08v1.845c-2.07 1.38-3.84 2.445-5.31 3.195-1.44.75-2.715 1.275-3.825 1.575-1.11.3-2.22.45-3.33.45-1.89 0-3.585-.375-5.085-1.125-1.47-.75-2.64-1.89-3.51-3.42-.87-1.56-1.305-3.51-1.305-5.85v-25.38l-5.13-3.42v-.72c.54-.39 1.125-.81 1.755-1.26.63-.48 1.305-.975 2.025-1.485.72-.51 1.47-1.05 2.25-1.62.78-.6 1.605-1.215 2.475-1.845.87-.63 1.77-1.275 2.7-1.935h1.08V569.885Zm-2.655-25.425v-4.365h16.605l-.72 4.365h-15.885ZM703 579.47l6.795-1.89v-23.805c0-1.77-.345-3.27-1.035-4.5s-1.725-2.175-3.105-2.835c-1.38-.66-3.105-.99-5.175-.99-2.37 0-4.59.405-6.66 1.215-2.07.81-3.6 1.74-4.59 2.79l-1.35-1.305c1.83-1.71 3.51-3.135 5.04-4.275 1.53-1.17 2.97-2.1 4.32-2.79 1.38-.69 2.745-1.17 4.095-1.44 1.35-.3 2.79-.45 4.32-.45 3.87 0 6.72 1.17 8.55 3.51 1.83 2.31 2.745 6 2.745 11.07v23.805l6.75 1.89V581H703v-1.53Zm-6.3 1.53h-20.655v-1.53l6.705-1.89v-52.83c-.39-.39-.915-.795-1.575-1.215-.63-.42-1.41-.87-2.34-1.35-.93-.48-1.98-.975-3.15-1.485v-.855l13.86-3.69h.675l-.315 14.175v47.25l6.795 1.89V581Zm50.419-41.805c2.97 0 5.55.645 7.74 1.935 2.22 1.29 3.975 3.18 5.265 5.67 1.32 2.49 2.13 5.55 2.43 9.18h-28.305l.09-2.88 23.67-.72-3.195 1.845c-.24-2.52-.705-4.665-1.395-6.435-.69-1.77-1.62-3.12-2.79-4.05-1.17-.96-2.64-1.44-4.41-1.44-2.22 0-4.155.615-5.805 1.845-1.62 1.23-2.88 3.045-3.78 5.445-.9 2.37-1.35 5.25-1.35 8.64 0 3.9.645 7.185 1.935 9.855 1.32 2.67 3.165 4.68 5.535 6.03 2.4 1.35 5.235 2.025 8.505 2.025 1.32 0 2.61-.165 3.87-.495 1.26-.36 2.475-.885 3.645-1.575 1.2-.72 2.295-1.59 3.285-2.61l.99.99c-1.62 2.22-3.27 4.035-4.95 5.445-1.65 1.38-3.405 2.4-5.265 3.06-1.83.63-3.81.945-5.94.945-3.63 0-6.87-.855-9.72-2.565-2.85-1.71-5.1-4.11-6.75-7.2-1.65-3.12-2.475-6.78-2.475-10.98 0-3.99.765-7.65 2.295-10.98 1.53-3.33 3.72-5.985 6.57-7.965 2.88-2.01 6.315-3.015 10.305-3.015Zm68.022 39.735c2.49 0 4.65-.63 6.48-1.89 1.83-1.29 3.255-3.24 4.275-5.85 1.02-2.64 1.53-5.94 1.53-9.9 0-4.17-.51-7.665-1.53-10.485-.99-2.85-2.415-4.995-4.275-6.435-1.83-1.47-4.02-2.205-6.57-2.205-2.49 0-4.65.645-6.48 1.935-1.83 1.26-3.255 3.195-4.275 5.805-1.02 2.61-1.53 5.91-1.53 9.9 0 4.14.495 7.635 1.485 10.485 1.02 2.85 2.445 5.01 4.275 6.48 1.86 1.44 4.065 2.16 6.615 2.16Zm-.18 2.97c-3.9 0-7.38-.885-10.44-2.655-3.03-1.8-5.415-4.29-7.155-7.47-1.74-3.18-2.61-6.825-2.61-10.935 0-4.2.9-7.935 2.7-11.205 1.83-3.27 4.275-5.82 7.335-7.65 3.09-1.86 6.57-2.79 10.44-2.79 3.93 0 7.41.9 10.44 2.7 3.03 1.77 5.415 4.245 7.155 7.425 1.74 3.15 2.61 6.795 2.61 10.935 0 4.2-.915 7.935-2.745 11.205-1.8 3.24-4.245 5.79-7.335 7.65-3.09 1.86-6.555 2.79-10.395 2.79Zm49.218-42.705c2.58 0 4.665.285 6.255.855 1.59.57 2.745 1.29 3.465 2.16.72.87 1.08 1.755 1.08 2.655 0 .87-.18 1.635-.54 2.295-.36.63-.87 1.125-1.53 1.485-.63.36-1.365.54-2.205.54-.66 0-1.305-.225-1.935-.675a15.55 15.55 0 0 1-1.935-1.665c-.63-.66-1.29-1.32-1.98-1.98-.69-.66-1.44-1.2-2.25-1.62a5.376 5.376 0 0 0-2.655-.675c-1.83 0-3.54.54-5.13 1.62-1.59 1.05-2.88 2.685-3.87 4.905-.99 2.22-1.485 5.025-1.485 8.415 0 4.05.6 7.47 1.8 10.26 1.2 2.76 2.91 4.845 5.13 6.255 2.25 1.41 4.95 2.115 8.1 2.115 1.89 0 3.72-.39 5.49-1.17 1.8-.81 3.435-1.98 4.905-3.51l.945.99c-1.53 2.22-3.105 4.035-4.725 5.445-1.59 1.38-3.285 2.4-5.085 3.06-1.77.63-3.69.945-5.76.945-3.51 0-6.63-.84-9.36-2.52-2.7-1.71-4.83-4.095-6.39-7.155-1.56-3.06-2.34-6.63-2.34-10.71 0-3.09.495-5.985 1.485-8.685 1.02-2.7 2.475-5.07 4.365-7.11 1.92-2.04 4.23-3.63 6.93-4.77 2.73-1.17 5.805-1.755 9.225-1.755Zm38.672 0c2.58 0 4.665.285 6.255.855 1.59.57 2.745 1.29 3.465 2.16.72.87 1.08 1.755 1.08 2.655 0 .87-.18 1.635-.54 2.295-.36.63-.87 1.125-1.53 1.485-.63.36-1.365.54-2.205.54-.66 0-1.305-.225-1.935-.675a15.55 15.55 0 0 1-1.935-1.665c-.63-.66-1.29-1.32-1.98-1.98-.69-.66-1.44-1.2-2.25-1.62a5.376 5.376 0 0 0-2.655-.675c-1.83 0-3.54.54-5.13 1.62-1.59 1.05-2.88 2.685-3.87 4.905-.99 2.22-1.485 5.025-1.485 8.415 0 4.05.6 7.47 1.8 10.26 1.2 2.76 2.91 4.845 5.13 6.255 2.25 1.41 4.95 2.115 8.1 2.115 1.89 0 3.72-.39 5.49-1.17 1.8-.81 3.435-1.98 4.905-3.51l.945.99c-1.53 2.22-3.105 4.035-4.725 5.445-1.59 1.38-3.285 2.4-5.085 3.06-1.77.63-3.69.945-5.76.945-3.51 0-6.63-.84-9.36-2.52-2.7-1.71-4.83-4.095-6.39-7.155-1.56-3.06-2.34-6.63-2.34-10.71 0-3.09.495-5.985 1.485-8.685 1.02-2.7 2.475-5.07 4.365-7.11 1.92-2.04 4.23-3.63 6.93-4.77 2.73-1.17 5.805-1.755 9.225-1.755Zm42.263 15.525.675 2.745c-3.78.96-6.855 1.92-9.225 2.88-2.37.96-4.215 1.935-5.535 2.925-1.29.96-2.19 1.995-2.7 3.105-.48 1.08-.72 2.265-.72 3.555 0 2.22.645 3.915 1.935 5.085 1.32 1.14 2.925 1.71 4.815 1.71 1.5 0 2.85-.345 4.05-1.035a8.157 8.157 0 0 0 2.925-2.88c.72-1.23 1.08-2.61 1.08-4.14v-17.685c0-2.46-.63-4.38-1.89-5.76-1.23-1.41-3.21-2.115-5.94-2.115-1.11 0-2.31.135-3.6.405-1.26.27-2.4.66-3.42 1.17l2.34-1.98a32.23 32.23 0 0 1-.405 2.835c-.18.96-.39 1.83-.63 2.61-.24.75-.54 1.32-.9 1.71-.45.51-1.05.885-1.8 1.125-.72.24-1.47.36-2.25.36-.96 0-1.74-.21-2.34-.63-.57-.45-.855-1.05-.855-1.8 0-1.02.51-2.085 1.53-3.195 1.02-1.11 2.34-2.13 3.96-3.06 1.65-.96 3.465-1.725 5.445-2.295 1.98-.6 3.945-.9 5.895-.9 2.88 0 5.19.435 6.93 1.305 1.77.84 3.045 2.07 3.825 3.69.81 1.62 1.215 3.585 1.215 5.895v22.59c0 .96.135 1.755.405 2.385.3.6.72 1.05 1.26 1.35.54.3 1.2.45 1.98.45s1.605-.15 2.475-.45c.87-.3 1.74-.72 2.61-1.26v1.8c-1.56 1.77-3.09 2.985-4.59 3.645-1.47.66-2.895.99-4.275.99-1.56 0-2.85-.345-3.87-1.035-1.02-.72-1.785-1.725-2.295-3.015-.51-1.32-.78-2.88-.81-4.68l.225-.315a11.775 11.775 0 0 1-2.295 4.725 11.858 11.858 0 0 1-3.915 3.195c-1.53.78-3.18 1.17-4.95 1.17-3.24 0-5.925-.885-8.055-2.655-2.13-1.8-3.195-4.38-3.195-7.74 0-1.77.33-3.36.99-4.77.69-1.44 1.92-2.79 3.69-4.05 1.8-1.29 4.335-2.565 7.605-3.825 3.27-1.29 7.47-2.67 12.6-4.14Zm30.918-15.525c1.8 0 3.435.18 4.905.54 1.47.36 3.075.975 4.815 1.845l.9 11.205h-1.755l-4.86-11.385 3.195 3.87c-1.29-1.17-2.505-2.01-3.645-2.52-1.11-.54-2.4-.81-3.87-.81-2.37 0-4.23.54-5.58 1.62-1.35 1.05-2.025 2.535-2.025 4.455 0 1.41.345 2.595 1.035 3.555.72.96 1.77 1.845 3.15 2.655 1.38.78 3.105 1.605 5.175 2.475 1.53.66 2.925 1.38 4.185 2.16 1.26.78 2.325 1.665 3.195 2.655.9.99 1.59 2.13 2.07 3.42.51 1.29.765 2.79.765 4.5 0 2.58-.675 4.815-2.025 6.705-1.32 1.86-3.105 3.285-5.355 4.275-2.25.99-4.785 1.485-7.605 1.485-1.92 0-3.645-.165-5.175-.495-1.5-.3-2.985-.795-4.455-1.485l-2.205-11.97h1.935l6.525 12.375-4.41-3.15c1.02.54 1.92.975 2.7 1.305.81.3 1.575.51 2.295.63.72.09 1.455.135 2.205.135 2.76 0 5.025-.615 6.795-1.845 1.8-1.26 2.7-3.15 2.7-5.67 0-1.2-.255-2.235-.765-3.105-.51-.9-1.23-1.695-2.16-2.385-.93-.69-2.025-1.335-3.285-1.935a72.885 72.885 0 0 0-4.005-1.89c-1.92-.87-3.555-1.83-4.905-2.88-1.35-1.08-2.385-2.37-3.105-3.87-.69-1.5-1.035-3.27-1.035-5.31 0-2.37.6-4.38 1.8-6.03 1.23-1.68 2.88-2.955 4.95-3.825 2.07-.87 4.38-1.305 6.93-1.305Zm27.448-11.655c-1.68 0-3.05-.555-4.095-1.665-1.02-1.14-1.53-2.475-1.53-4.005 0-1.53.51-2.82 1.53-3.87 1.045-1.08 2.415-1.62 4.095-1.62 1.71 0 3.06.54 4.05 1.62 1.02 1.05 1.53 2.34 1.53 3.87 0 1.53-.51 2.865-1.53 4.005-.99 1.11-2.34 1.665-4.05 1.665Zm4.32 11.475-.18 7.785v30.78l6.79 1.89V581h-20.65v-1.53l6.7-1.89v-30.015c-.33-.3-.835-.66-1.525-1.08-.69-.45-1.47-.9-2.34-1.35-.87-.45-1.77-.87-2.7-1.26v-1.17l13.275-3.69h.63Zm31.64 39.915c2.49 0 4.65-.63 6.48-1.89 1.83-1.29 3.25-3.24 4.27-5.85 1.02-2.64 1.53-5.94 1.53-9.9 0-4.17-.51-7.665-1.53-10.485-.99-2.85-2.41-4.995-4.27-6.435-1.83-1.47-4.02-2.205-6.57-2.205-2.49 0-4.65.645-6.48 1.935-1.83 1.26-3.26 3.195-4.28 5.805-1.02 2.61-1.53 5.91-1.53 9.9 0 4.14.5 7.635 1.49 10.485 1.02 2.85 2.44 5.01 4.27 6.48 1.86 1.44 4.07 2.16 6.62 2.16Zm-.18 2.97c-3.9 0-7.38-.885-10.44-2.655-3.03-1.8-5.42-4.29-7.16-7.47-1.74-3.18-2.61-6.825-2.61-10.935 0-4.2.9-7.935 2.7-11.205 1.83-3.27 4.28-5.82 7.34-7.65 3.09-1.86 6.57-2.79 10.44-2.79 3.93 0 7.41.9 10.44 2.7 3.03 1.77 5.41 4.245 7.15 7.425 1.74 3.15 2.61 6.795 2.61 10.935 0 4.2-.91 7.935-2.74 11.205-1.8 3.24-4.25 5.79-7.34 7.65-3.09 1.86-6.55 2.79-10.39 2.79Zm39.86-34.47v30.15l6.79 1.89V581h-20.61v-1.53l6.71-1.89v-29.655c-.48-.42-1.2-.885-2.16-1.395-.93-.51-2.42-1.2-4.46-2.07v-1.035l12.15-4.41h.68l.9 8.415Zm13.09 32.04 6.8-1.89v-23.805c0-1.77-.35-3.27-1.04-4.5-.69-1.23-1.72-2.175-3.1-2.835-1.38-.66-3.11-.99-5.18-.99-2.37 0-4.59.405-6.66 1.215-2.04.81-3.55 1.74-4.54 2.79l-1.4-1.305c1.86-1.71 3.54-3.135 5.04-4.275 1.53-1.17 2.97-2.1 4.32-2.79 1.38-.69 2.75-1.17 4.1-1.44 1.38-.3 2.82-.45 4.32-.45 3.9 0 6.75 1.17 8.55 3.51 1.83 2.31 2.74 6 2.74 11.07v23.805l6.75 1.89V581h-20.7v-1.53Zm50.22-24.75.67 2.745c-3.78.96-6.85 1.92-9.22 2.88-2.37.96-4.22 1.935-5.54 2.925-1.29.96-2.19 1.995-2.7 3.105-.48 1.08-.72 2.265-.72 3.555 0 2.22.65 3.915 1.94 5.085 1.32 1.14 2.92 1.71 4.81 1.71 1.5 0 2.85-.345 4.05-1.035a8.17 8.17 0 0 0 2.93-2.88c.72-1.23 1.08-2.61 1.08-4.14v-17.685c0-2.46-.63-4.38-1.89-5.76-1.23-1.41-3.21-2.115-5.94-2.115-1.11 0-2.31.135-3.6.405-1.26.27-2.4.66-3.42 1.17l2.34-1.98c-.09.93-.23 1.875-.41 2.835-.18.96-.39 1.83-.63 2.61-.24.75-.54 1.32-.9 1.71-.45.51-1.05.885-1.8 1.125-.72.24-1.47.36-2.25.36-.96 0-1.74-.21-2.34-.63-.57-.45-.85-1.05-.85-1.8 0-1.02.51-2.085 1.53-3.195 1.02-1.11 2.34-2.13 3.96-3.06 1.65-.96 3.46-1.725 5.44-2.295 1.98-.6 3.95-.9 5.9-.9 2.88 0 5.19.435 6.93 1.305 1.77.84 3.04 2.07 3.82 3.69.81 1.62 1.22 3.585 1.22 5.895v22.59c0 .96.13 1.755.4 2.385.3.6.72 1.05 1.26 1.35.54.3 1.2.45 1.98.45s1.61-.15 2.48-.45c.87-.3 1.74-.72 2.61-1.26v1.8c-1.56 1.77-3.09 2.985-4.59 3.645-1.47.66-2.9.99-4.28.99-1.56 0-2.85-.345-3.87-1.035-1.02-.72-1.78-1.725-2.29-3.015-.51-1.32-.78-2.88-.81-4.68l.22-.315c-.42 1.77-1.18 3.345-2.29 4.725a11.876 11.876 0 0 1-3.92 3.195c-1.53.78-3.18 1.17-4.95 1.17-3.24 0-5.92-.885-8.05-2.655-2.13-1.8-3.2-4.38-3.2-7.74 0-1.77.33-3.36.99-4.77.69-1.44 1.92-2.79 3.69-4.05 1.8-1.29 4.34-2.565 7.61-3.825 3.27-1.29 7.47-2.67 12.6-4.14Zm27.81 22.86 6.8 1.89V581h-20.66v-1.53l6.71-1.89v-52.83c-.39-.39-.92-.795-1.58-1.215-.63-.42-1.41-.87-2.34-1.35-.93-.48-1.98-.975-3.15-1.485v-.855l13.86-3.69h.68l-.32 7.425v54Zm49.91-30.15v30.15l6.79 1.89V581h-20.61v-1.53l6.71-1.89v-29.655c-.48-.42-1.2-.885-2.16-1.395-.93-.51-2.42-1.2-4.46-2.07v-1.035l12.15-4.41h.68l.9 8.415Zm13.09 32.04 6.8-1.89v-23.805c0-1.77-.35-3.27-1.04-4.5-.69-1.23-1.72-2.175-3.1-2.835-1.38-.66-3.11-.99-5.18-.99-2.37 0-4.59.405-6.66 1.215-2.04.81-3.55 1.74-4.54 2.79l-1.4-1.305c1.86-1.71 3.54-3.135 5.04-4.275 1.53-1.17 2.97-2.1 4.32-2.79 1.38-.69 2.75-1.17 4.1-1.44 1.38-.3 2.82-.45 4.32-.45 3.9 0 6.75 1.17 8.55 3.51 1.83 2.31 2.74 6 2.74 11.07v23.805l6.75 1.89V581h-20.7v-1.53Zm44.14-40.275c2.97 0 5.55.645 7.74 1.935 2.22 1.29 3.98 3.18 5.27 5.67 1.32 2.49 2.13 5.55 2.43 9.18h-28.31l.09-2.88 23.67-.72-3.19 1.845c-.24-2.52-.71-4.665-1.4-6.435-.69-1.77-1.62-3.12-2.79-4.05-1.17-.96-2.64-1.44-4.41-1.44-2.22 0-4.15.615-5.8 1.845-1.62 1.23-2.88 3.045-3.78 5.445-.9 2.37-1.35 5.25-1.35 8.64 0 3.9.64 7.185 1.93 9.855 1.32 2.67 3.17 4.68 5.54 6.03 2.4 1.35 5.23 2.025 8.5 2.025 1.32 0 2.61-.165 3.87-.495 1.26-.36 2.48-.885 3.65-1.575 1.2-.72 2.29-1.59 3.28-2.61l.99.99c-1.62 2.22-3.27 4.035-4.95 5.445-1.65 1.38-3.4 2.4-5.26 3.06-1.83.63-3.81.945-5.94.945-3.63 0-6.87-.855-9.72-2.565-2.85-1.71-5.1-4.11-6.75-7.2-1.65-3.12-2.48-6.78-2.48-10.98 0-3.99.77-7.65 2.3-10.98 1.53-3.33 3.72-5.985 6.57-7.965 2.88-2.01 6.31-3.015 10.3-3.015Zm41.14 0c2.97 0 5.55.645 7.74 1.935 2.22 1.29 3.97 3.18 5.26 5.67 1.32 2.49 2.13 5.55 2.43 9.18h-28.3l.09-2.88 23.67-.72-3.2 1.845c-.24-2.52-.7-4.665-1.39-6.435-.69-1.77-1.62-3.12-2.79-4.05-1.17-.96-2.64-1.44-4.41-1.44-2.22 0-4.16.615-5.81 1.845-1.62 1.23-2.88 3.045-3.78 5.445-.9 2.37-1.35 5.25-1.35 8.64 0 3.9.65 7.185 1.94 9.855 1.32 2.67 3.16 4.68 5.53 6.03 2.4 1.35 5.24 2.025 8.51 2.025 1.32 0 2.61-.165 3.87-.495 1.26-.36 2.47-.885 3.64-1.575 1.2-.72 2.3-1.59 3.29-2.61l.99.99c-1.62 2.22-3.27 4.035-4.95 5.445-1.65 1.38-3.41 2.4-5.27 3.06-1.83.63-3.81.945-5.94.945-3.63 0-6.87-.855-9.72-2.565-2.85-1.71-5.1-4.11-6.75-7.2-1.65-3.12-2.47-6.78-2.47-10.98 0-3.99.76-7.65 2.29-10.98s3.72-5.985 6.57-7.965c2.88-2.01 6.32-3.015 10.31-3.015Zm53.69 12.375c0-2.64-.96-4.83-2.88-6.57-1.89-1.74-4.5-2.61-7.83-2.61-2.76 0-5.12.705-7.07 2.115-1.95 1.41-3.42 3.42-4.41 6.03-.99 2.61-1.48 5.76-1.48 9.45 0 3.63.52 6.69 1.57 9.18 1.05 2.46 2.55 4.32 4.5 5.58 1.98 1.23 4.34 1.845 7.07 1.845 2.37 0 4.62-.39 6.75-1.17 2.16-.78 4.24-2.04 6.25-3.78l.23 2.43a127.87 127.87 0 0 1-5.45 3.915c-1.53 1.02-2.92 1.815-4.18 2.385-1.23.57-2.39.96-3.47 1.17-1.08.24-2.19.36-3.33.36-3.81 0-7.06-.81-9.76-2.43-2.67-1.62-4.71-3.885-6.12-6.795-1.38-2.91-2.07-6.27-2.07-10.08 0-3.66.57-6.93 1.71-9.81 1.14-2.91 2.73-5.37 4.77-7.38a20.405 20.405 0 0 1 7.11-4.635c2.7-1.05 5.58-1.575 8.64-1.575 1.56 0 3.09.12 4.59.36 1.53.24 3.07.615 4.63 1.125s3.14 1.185 4.73 2.025l-4.5 2.115v-20.925c-.36-.36-.87-.735-1.53-1.125s-1.41-.78-2.25-1.17c-.81-.39-1.65-.78-2.52-1.17v-.81l13.27-3.465h.63l-.49 7.2v51.93c.27.24.66.495 1.17.765.51.27 1.06.54 1.66.81.6.27 1.19.525 1.76.765.6.21 1.14.36 1.62.45v1.215l-12.24 2.565h-.68l-.4-6.66V551.57Zm54.72 18.315c0 2.07.63 3.63 1.89 4.68 1.29 1.05 3.06 1.575 5.31 1.575 1.14 0 2.35-.105 3.64-.315 1.32-.24 2.78-.6 4.37-1.08v1.845c-2.07 1.38-3.84 2.445-5.31 3.195-1.44.75-2.72 1.275-3.83 1.575-1.11.3-2.22.45-3.33.45-1.89 0-3.58-.375-5.08-1.125-1.47-.75-2.64-1.89-3.51-3.42-.87-1.56-1.31-3.51-1.31-5.85v-25.38l-5.13-3.42v-.72c.54-.39 1.13-.81 1.76-1.26.63-.48 1.3-.975 2.02-1.485.72-.51 1.47-1.05 2.25-1.62.78-.6 1.61-1.215 2.48-1.845.87-.63 1.77-1.275 2.7-1.935h1.08V569.885Zm-2.66-25.425v-4.365h16.61l-.72 4.365h-15.89Zm41.37 34.47c2.49 0 4.65-.63 6.48-1.89 1.83-1.29 3.26-3.24 4.28-5.85 1.02-2.64 1.53-5.94 1.53-9.9 0-4.17-.51-7.665-1.53-10.485-.99-2.85-2.42-4.995-4.28-6.435-1.83-1.47-4.02-2.205-6.57-2.205-2.49 0-4.65.645-6.48 1.935-1.83 1.26-3.25 3.195-4.27 5.805-1.02 2.61-1.53 5.91-1.53 9.9 0 4.14.49 7.635 1.48 10.485 1.02 2.85 2.45 5.01 4.28 6.48 1.86 1.44 4.06 2.16 6.61 2.16Zm-.18 2.97c-3.9 0-7.38-.885-10.44-2.655-3.03-1.8-5.41-4.29-7.15-7.47-1.74-3.18-2.61-6.825-2.61-10.935 0-4.2.9-7.935 2.7-11.205 1.83-3.27 4.27-5.82 7.33-7.65 3.09-1.86 6.57-2.79 10.44-2.79 3.93 0 7.41.9 10.44 2.7 3.03 1.77 5.42 4.245 7.16 7.425 1.74 3.15 2.61 6.795 2.61 10.935 0 4.2-.92 7.935-2.75 11.205-1.8 3.24-4.24 5.79-7.33 7.65-3.09 1.86-6.56 2.79-10.4 2.79Zm67.96-42.705c1.8 0 3.44.18 4.91.54 1.47.36 3.07.975 4.81 1.845l.9 11.205h-1.75l-4.86-11.385 3.19 3.87c-1.29-1.17-2.5-2.01-3.64-2.52-1.11-.54-2.4-.81-3.87-.81-2.37 0-4.23.54-5.58 1.62-1.35 1.05-2.03 2.535-2.03 4.455 0 1.41.35 2.595 1.04 3.555.72.96 1.77 1.845 3.15 2.655 1.38.78 3.1 1.605 5.17 2.475 1.53.66 2.93 1.38 4.19 2.16 1.26.78 2.32 1.665 3.19 2.655.9.99 1.59 2.13 2.07 3.42.51 1.29.77 2.79.77 4.5 0 2.58-.68 4.815-2.03 6.705-1.32 1.86-3.1 3.285-5.35 4.275-2.25.99-4.79 1.485-7.61 1.485-1.92 0-3.64-.165-5.17-.495-1.5-.3-2.99-.795-4.46-1.485l-2.2-11.97h1.93l6.53 12.375-4.41-3.15c1.02.54 1.92.975 2.7 1.305.81.3 1.57.51 2.29.63.72.09 1.46.135 2.21.135 2.76 0 5.02-.615 6.79-1.845 1.8-1.26 2.7-3.15 2.7-5.67 0-1.2-.25-2.235-.76-3.105-.51-.9-1.23-1.695-2.16-2.385-.93-.69-2.03-1.335-3.29-1.935-1.23-.63-2.56-1.26-4-1.89-1.92-.87-3.56-1.83-4.91-2.88a11.006 11.006 0 0 1-3.1-3.87c-.69-1.5-1.04-3.27-1.04-5.31 0-2.37.6-4.38 1.8-6.03 1.23-1.68 2.88-2.955 4.95-3.825 2.07-.87 4.38-1.305 6.93-1.305Zm54.27 21.915c0-5.46-1.17-9.6-3.51-12.42-2.34-2.82-5.55-4.23-9.63-4.23a23.6 23.6 0 0 0-4.9.495c-1.56.33-3.05.84-4.46 1.53-1.38.66-2.68 1.545-3.91 2.655l-.23-2.43c1.77-1.41 3.44-2.595 5-3.555 1.59-.96 3.07-1.725 4.45-2.295 1.41-.6 2.73-1.02 3.96-1.26 1.23-.27 2.37-.405 3.42-.405 3.84 0 7.08.81 9.72 2.43 2.64 1.62 4.65 3.885 6.03 6.795 1.38 2.88 2.07 6.225 2.07 10.035 0 4.86-.99 9.045-2.97 12.555-1.98 3.51-4.65 6.21-8.01 8.1-3.36 1.86-7.11 2.79-11.25 2.79-1.56 0-3.1-.12-4.63-.36a30.06 30.06 0 0 1-9.32-3.15h4.5v21.195l7.56 1.89v1.485h-21.37v-1.485l6.7-1.89v-51.66c-.39-.36-.88-.705-1.48-1.035-.6-.33-1.34-.69-2.21-1.08-.84-.42-1.81-.87-2.92-1.35v-1.035l12.15-4.41h.67l.9 6.12v24.39c0 1.74.47 3.315 1.4 4.725.93 1.38 2.22 2.475 3.87 3.285 1.65.78 3.57 1.17 5.76 1.17 2.67 0 4.95-.705 6.84-2.115 1.89-1.41 3.33-3.435 4.32-6.075.99-2.64 1.48-5.775 1.48-9.405Zm26.74 16.47 6.79 1.89V581h-20.65v-1.53l6.7-1.89v-52.83c-.39-.39-.91-.795-1.57-1.215-.63-.42-1.41-.87-2.34-1.35-.93-.48-1.98-.975-3.15-1.485v-.855l13.86-3.69h.67l-.31 7.425v54Zm20.18-50.04c-1.68 0-3.04-.555-4.09-1.665-1.02-1.14-1.53-2.475-1.53-4.005 0-1.53.51-2.82 1.53-3.87 1.05-1.08 2.41-1.62 4.09-1.62 1.71 0 3.06.54 4.05 1.62 1.02 1.05 1.53 2.34 1.53 3.87 0 1.53-.51 2.865-1.53 4.005-.99 1.11-2.34 1.665-4.05 1.665Zm4.32 11.475-.18 7.785v30.78l6.8 1.89V581h-20.66v-1.53l6.71-1.89v-30.015c-.33-.3-.84-.66-1.53-1.08-.69-.45-1.47-.9-2.34-1.35-.87-.45-1.77-.87-2.7-1.26v-1.17l13.27-3.69h.63Zm22.37 30.87c0 2.07.63 3.63 1.89 4.68 1.29 1.05 3.06 1.575 5.31 1.575 1.14 0 2.35-.105 3.64-.315 1.32-.24 2.78-.6 4.37-1.08v1.845c-2.07 1.38-3.84 2.445-5.31 3.195-1.44.75-2.72 1.275-3.83 1.575-1.11.3-2.22.45-3.33.45-1.89 0-3.58-.375-5.08-1.125-1.47-.75-2.64-1.89-3.51-3.42-.87-1.56-1.31-3.51-1.31-5.85v-25.38l-5.13-3.42v-.72c.54-.39 1.13-.81 1.76-1.26.63-.48 1.3-.975 2.02-1.485.72-.51 1.47-1.05 2.25-1.62.78-.6 1.61-1.215 2.48-1.845.87-.63 1.77-1.275 2.7-1.935h1.08V569.885Zm-2.66-25.425v-4.365h16.61l-.72 4.365h-15.89ZM266.715 681.93c2.49 0 4.65-.63 6.48-1.89 1.83-1.29 3.255-3.24 4.275-5.85 1.02-2.64 1.53-5.94 1.53-9.9 0-4.17-.51-7.665-1.53-10.485-.99-2.85-2.415-4.995-4.275-6.435-1.83-1.47-4.02-2.205-6.57-2.205-2.49 0-4.65.645-6.48 1.935-1.83 1.26-3.255 3.195-4.275 5.805-1.02 2.61-1.53 5.91-1.53 9.9 0 4.14.495 7.635 1.485 10.485 1.02 2.85 2.445 5.01 4.275 6.48 1.86 1.44 4.065 2.16 6.615 2.16Zm-.18 2.97c-3.9 0-7.38-.885-10.44-2.655-3.03-1.8-5.415-4.29-7.155-7.47-1.74-3.18-2.61-6.825-2.61-10.935 0-4.2.9-7.935 2.7-11.205 1.83-3.27 4.275-5.82 7.335-7.65 3.09-1.86 6.57-2.79 10.44-2.79 3.93 0 7.41.9 10.44 2.7 3.03 1.77 5.415 4.245 7.155 7.425 1.74 3.15 2.61 6.795 2.61 10.935 0 4.2-.915 7.935-2.745 11.205-1.8 3.24-4.245 5.79-7.335 7.65-3.09 1.86-6.555 2.79-10.395 2.79Zm39.858-34.47v30.15l6.795 1.89V684h-20.61v-1.53l6.705-1.89v-29.655c-.48-.42-1.2-.885-2.16-1.395-.93-.51-2.415-1.2-4.455-2.07v-1.035l12.15-4.41h.675l.9 8.415Zm13.095 32.04 6.795-1.89v-23.805c0-1.77-.345-3.27-1.035-4.5s-1.725-2.175-3.105-2.835c-1.38-.66-3.105-.99-5.175-.99-2.37 0-4.59.405-6.66 1.215-2.04.81-3.555 1.74-4.545 2.79l-1.395-1.305c1.86-1.71 3.54-3.135 5.04-4.275 1.53-1.17 2.97-2.1 4.32-2.79 1.38-.69 2.745-1.17 4.095-1.44 1.38-.3 2.82-.45 4.32-.45 3.9 0 6.75 1.17 8.55 3.51 1.83 2.31 2.745 6 2.745 11.07v23.805l6.75 1.89V684h-20.7v-1.53Zm44.143-40.275c2.97 0 5.55.645 7.74 1.935 2.22 1.29 3.975 3.18 5.265 5.67 1.32 2.49 2.13 5.55 2.43 9.18h-28.305l.09-2.88 23.67-.72-3.195 1.845c-.24-2.52-.705-4.665-1.395-6.435-.69-1.77-1.62-3.12-2.79-4.05-1.17-.96-2.64-1.44-4.41-1.44-2.22 0-4.155.615-5.805 1.845-1.62 1.23-2.88 3.045-3.78 5.445-.9 2.37-1.35 5.25-1.35 8.64 0 3.9.645 7.185 1.935 9.855 1.32 2.67 3.165 4.68 5.535 6.03 2.4 1.35 5.235 2.025 8.505 2.025 1.32 0 2.61-.165 3.87-.495 1.26-.36 2.475-.885 3.645-1.575 1.2-.72 2.295-1.59 3.285-2.61l.99.99c-1.62 2.22-3.27 4.035-4.95 5.445-1.65 1.38-3.405 2.4-5.265 3.06-1.83.63-3.81.945-5.94.945-3.63 0-6.87-.855-9.72-2.565-2.85-1.71-5.1-4.11-6.75-7.2-1.65-3.12-2.475-6.78-2.475-10.98 0-3.99.765-7.65 2.295-10.98 1.53-3.33 3.72-5.985 6.57-7.965 2.88-2.01 6.315-3.015 10.305-3.015Zm122.565 4.23-6.12-1.575v-1.755h15.03v1.755l-5.175 1.575-12.015 38.565h-1.8l-14.805-33.3h1.98l-13.905 33.3h-1.8l-12.6-38.16-5.625-1.98v-1.755h19.26v1.755l-6.075 1.8 9.315 29.025-1.8.54 13.41-34.2h1.485l14.805 33.435-1.845.765 8.28-29.79Zm31.126 35.505c2.49 0 4.65-.63 6.48-1.89 1.83-1.29 3.255-3.24 4.275-5.85 1.02-2.64 1.53-5.94 1.53-9.9 0-4.17-.51-7.665-1.53-10.485-.99-2.85-2.415-4.995-4.275-6.435-1.83-1.47-4.02-2.205-6.57-2.205-2.49 0-4.65.645-6.48 1.935-1.83 1.26-3.255 3.195-4.275 5.805-1.02 2.61-1.53 5.91-1.53 9.9 0 4.14.495 7.635 1.485 10.485 1.02 2.85 2.445 5.01 4.275 6.48 1.86 1.44 4.065 2.16 6.615 2.16Zm-.18 2.97c-3.9 0-7.38-.885-10.44-2.655-3.03-1.8-5.415-4.29-7.155-7.47-1.74-3.18-2.61-6.825-2.61-10.935 0-4.2.9-7.935 2.7-11.205 1.83-3.27 4.275-5.82 7.335-7.65 3.09-1.86 6.57-2.79 10.44-2.79 3.93 0 7.41.9 10.44 2.7 3.03 1.77 5.415 4.245 7.155 7.425 1.74 3.15 2.61 6.795 2.61 10.935 0 4.2-.915 7.935-2.745 11.205-1.8 3.24-4.245 5.79-7.335 7.65-3.09 1.86-6.555 2.79-10.395 2.79Zm53.268-42.48c1.47 0 2.565.375 3.285 1.125.72.72 1.08 1.68 1.08 2.88 0 1.44-.465 2.595-1.395 3.465-.9.87-2.1 1.305-3.6 1.305-.66 0-1.335-.105-2.025-.315-.66-.24-1.365-.465-2.115-.675-.72-.21-1.53-.315-2.43-.315-.75 0-1.53.12-2.34.36-.81.24-1.62.57-2.43.99-.78.42-1.5.915-2.16 1.485l-.675-1.71c1.92-1.68 3.63-3.06 5.13-4.14 1.53-1.11 2.88-1.995 4.05-2.655 1.17-.66 2.205-1.125 3.105-1.395.93-.27 1.77-.405 2.52-.405ZM557 650.43v30.15l7.11 1.89V684h-20.925v-1.53l6.705-1.89v-29.655c-.39-.36-.885-.705-1.485-1.035-.6-.33-1.335-.69-2.205-1.08-.84-.42-1.815-.87-2.925-1.35v-1.035l12.735-4.41h.72l.27 8.415Zm51.687 4.14c0-2.64-.96-4.83-2.88-6.57-1.89-1.74-4.5-2.61-7.83-2.61-2.76 0-5.115.705-7.065 2.115-1.95 1.41-3.42 3.42-4.41 6.03-.99 2.61-1.485 5.76-1.485 9.45 0 3.63.525 6.69 1.575 9.18 1.05 2.46 2.55 4.32 4.5 5.58 1.98 1.23 4.335 1.845 7.065 1.845 2.37 0 4.62-.39 6.75-1.17 2.16-.78 4.245-2.04 6.255-3.78l.225 2.43c-2.07 1.56-3.885 2.865-5.445 3.915-1.53 1.02-2.925 1.815-4.185 2.385-1.23.57-2.385.96-3.465 1.17-1.08.24-2.19.36-3.33.36-3.81 0-7.065-.81-9.765-2.43-2.67-1.62-4.71-3.885-6.12-6.795-1.38-2.91-2.07-6.27-2.07-10.08 0-3.66.57-6.93 1.71-9.81 1.14-2.91 2.73-5.37 4.77-7.38a20.405 20.405 0 0 1 7.11-4.635c2.7-1.05 5.58-1.575 8.64-1.575 1.56 0 3.09.12 4.59.36 1.53.24 3.075.615 4.635 1.125 1.56.51 3.135 1.185 4.725 2.025l-4.5 2.115v-20.925c-.36-.36-.87-.735-1.53-1.125s-1.41-.78-2.25-1.17c-.81-.39-1.65-.78-2.52-1.17v-.81l13.275-3.465h.63l-.495 7.2v51.93c.27.24.66.495 1.17.765.51.27 1.065.54 1.665.81.6.27 1.185.525 1.755.765.6.21 1.14.36 1.62.45v1.215l-12.24 2.565h-.675l-.405-6.66V654.57Zm87.347 27.36c2.49 0 4.65-.63 6.48-1.89 1.83-1.29 3.255-3.24 4.275-5.85 1.02-2.64 1.53-5.94 1.53-9.9 0-4.17-.51-7.665-1.53-10.485-.99-2.85-2.415-4.995-4.275-6.435-1.83-1.47-4.02-2.205-6.57-2.205-2.49 0-4.65.645-6.48 1.935-1.83 1.26-3.255 3.195-4.275 5.805-1.02 2.61-1.53 5.91-1.53 9.9 0 4.14.495 7.635 1.485 10.485 1.02 2.85 2.445 5.01 4.275 6.48 1.86 1.44 4.065 2.16 6.615 2.16Zm-.18 2.97c-3.9 0-7.38-.885-10.44-2.655-3.03-1.8-5.415-4.29-7.155-7.47-1.74-3.18-2.61-6.825-2.61-10.935 0-4.2.9-7.935 2.7-11.205 1.83-3.27 4.275-5.82 7.335-7.65 3.09-1.86 6.57-2.79 10.44-2.79 3.93 0 7.41.9 10.44 2.7 3.03 1.77 5.415 4.245 7.155 7.425 1.74 3.15 2.61 6.795 2.61 10.935 0 4.2-.915 7.935-2.745 11.205-1.8 3.24-4.245 5.79-7.335 7.65-3.09 1.86-6.555 2.79-10.395 2.79Zm62.895-38.475-15.84 38.565h-1.845l-17.865-38.16-5.67-1.98v-1.755h19.485v1.755l-6.075 1.8 13.77 29.565h-1.125l11.52-29.79-6.075-1.575v-1.755h14.715v1.755l-4.995 1.575Zm25.851-4.23c2.97 0 5.55.645 7.74 1.935 2.22 1.29 3.975 3.18 5.265 5.67 1.32 2.49 2.13 5.55 2.43 9.18H771.73l.09-2.88 23.67-.72-3.195 1.845c-.24-2.52-.705-4.665-1.395-6.435-.69-1.77-1.62-3.12-2.79-4.05-1.17-.96-2.64-1.44-4.41-1.44-2.22 0-4.155.615-5.805 1.845-1.62 1.23-2.88 3.045-3.78 5.445-.9 2.37-1.35 5.25-1.35 8.64 0 3.9.645 7.185 1.935 9.855 1.32 2.67 3.165 4.68 5.535 6.03 2.4 1.35 5.235 2.025 8.505 2.025 1.32 0 2.61-.165 3.87-.495 1.26-.36 2.475-.885 3.645-1.575 1.2-.72 2.295-1.59 3.285-2.61l.99.99c-1.62 2.22-3.27 4.035-4.95 5.445-1.65 1.38-3.405 2.4-5.265 3.06-1.83.63-3.81.945-5.94.945-3.63 0-6.87-.855-9.72-2.565-2.85-1.71-5.1-4.11-6.75-7.2-1.65-3.12-2.475-6.78-2.475-10.98 0-3.99.765-7.65 2.295-10.98 1.53-3.33 3.72-5.985 6.57-7.965 2.88-2.01 6.315-3.015 10.305-3.015Zm48.018.225c1.47 0 2.565.375 3.285 1.125.72.72 1.08 1.68 1.08 2.88 0 1.44-.465 2.595-1.395 3.465-.9.87-2.1 1.305-3.6 1.305-.66 0-1.335-.105-2.025-.315-.66-.24-1.365-.465-2.115-.675-.72-.21-1.53-.315-2.43-.315-.75 0-1.53.12-2.34.36-.81.24-1.62.57-2.43.99-.78.42-1.5.915-2.16 1.485l-.675-1.71c1.92-1.68 3.63-3.06 5.13-4.14 1.53-1.11 2.88-1.995 4.05-2.655 1.17-.66 2.205-1.125 3.105-1.395.93-.27 1.77-.405 2.52-.405Zm-13.41 8.01v30.15l7.11 1.89V684h-20.925v-1.53l6.705-1.89v-29.655c-.39-.36-.885-.705-1.485-1.035-.6-.33-1.335-.69-2.205-1.08-.84-.42-1.815-.87-2.925-1.35v-1.035l12.735-4.41h.72l.27 8.415Zm80.018 22.455c0 2.07.63 3.63 1.89 4.68 1.29 1.05 3.06 1.575 5.31 1.575 1.14 0 2.355-.105 3.645-.315 1.32-.24 2.775-.6 4.365-1.08v1.845c-2.07 1.38-3.84 2.445-5.31 3.195-1.44.75-2.715 1.275-3.825 1.575-1.11.3-2.22.45-3.33.45-1.89 0-3.585-.375-5.085-1.125-1.47-.75-2.64-1.89-3.51-3.42-.87-1.56-1.305-3.51-1.305-5.85v-25.38l-5.13-3.42v-.72c.54-.39 1.125-.81 1.755-1.26.63-.48 1.305-.975 2.025-1.485.72-.51 1.47-1.05 2.25-1.62.78-.6 1.605-1.215 2.475-1.845.87-.63 1.77-1.275 2.7-1.935h1.08V672.885Zm-2.655-25.425v-4.365h16.605l-.72 4.365h-15.885Zm75.281-1.035-6.12-1.575v-1.755h15.03v1.755l-5.175 1.575-12.015 38.565h-1.8l-14.805-33.3h1.98l-13.905 33.3h-1.8l-12.6-38.16-5.625-1.98v-1.755h19.26v1.755l-6.075 1.8 9.315 29.025-1.8.54 13.41-34.2h1.485l14.805 33.435-1.845.765 8.28-29.79Zm31.128 35.505c2.49 0 4.65-.63 6.48-1.89 1.83-1.29 3.25-3.24 4.27-5.85 1.02-2.64 1.53-5.94 1.53-9.9 0-4.17-.51-7.665-1.53-10.485-.99-2.85-2.41-4.995-4.27-6.435-1.83-1.47-4.02-2.205-6.57-2.205-2.49 0-4.652.645-6.482 1.935-1.83 1.26-3.255 3.195-4.275 5.805-1.02 2.61-1.53 5.91-1.53 9.9 0 4.14.495 7.635 1.485 10.485 1.02 2.85 2.445 5.01 4.275 6.48 1.86 1.44 4.067 2.16 6.617 2.16Zm-.18 2.97c-3.902 0-7.382-.885-10.442-2.655-3.03-1.8-5.415-4.29-7.155-7.47-1.74-3.18-2.61-6.825-2.61-10.935 0-4.2.9-7.935 2.7-11.205 1.83-3.27 4.275-5.82 7.335-7.65 3.09-1.86 6.57-2.79 10.442-2.79 3.93 0 7.41.9 10.44 2.7 3.03 1.77 5.41 4.245 7.15 7.425 1.74 3.15 2.61 6.795 2.61 10.935 0 4.2-.91 7.935-2.74 11.205-1.8 3.24-4.25 5.79-7.34 7.65-3.09 1.86-6.55 2.79-10.39 2.79Zm88.21-4.32 6.79 1.89V684h-20.65v-1.53l6.7-1.89v-52.83c-.39-.39-.91-.795-1.57-1.215-.63-.42-1.41-.87-2.34-1.35-.93-.48-1.98-.975-3.15-1.485v-.855l13.86-3.69h.67l-.31 7.425v54Zm20.18-50.04c-1.68 0-3.04-.555-4.09-1.665-1.02-1.14-1.53-2.475-1.53-4.005 0-1.53.51-2.82 1.53-3.87 1.05-1.08 2.41-1.62 4.09-1.62 1.71 0 3.06.54 4.05 1.62 1.02 1.05 1.53 2.34 1.53 3.87 0 1.53-.51 2.865-1.53 4.005-.99 1.11-2.34 1.665-4.05 1.665Zm4.32 11.475-.18 7.785v30.78l6.8 1.89V684h-20.66v-1.53l6.71-1.89v-30.015c-.33-.3-.84-.66-1.53-1.08-.69-.45-1.47-.9-2.34-1.35-.87-.45-1.77-.87-2.7-1.26v-1.17l13.27-3.69h.63Zm23.94 8.415v30.15l6.8 1.89V684h-20.61v-1.53l6.7-1.89v-29.655c-.48-.42-1.2-.885-2.16-1.395-.93-.51-2.41-1.2-4.45-2.07v-1.035l12.15-4.41h.67l.9 8.415Zm13.1 32.04 6.79-1.89v-23.805c0-1.77-.34-3.27-1.03-4.5s-1.73-2.175-3.11-2.835c-1.38-.66-3.1-.99-5.17-.99-2.37 0-4.59.405-6.66 1.215-2.04.81-3.56 1.74-4.55 2.79l-1.39-1.305c1.86-1.71 3.54-3.135 5.04-4.275 1.53-1.17 2.97-2.1 4.32-2.79 1.38-.69 2.74-1.17 4.09-1.44 1.38-.3 2.82-.45 4.32-.45 3.9 0 6.75 1.17 8.55 3.51 1.83 2.31 2.75 6 2.75 11.07v23.805l6.75 1.89V684h-20.7v-1.53Zm44.14-40.275c2.97 0 5.55.645 7.74 1.935 2.22 1.29 3.98 3.18 5.27 5.67 1.32 2.49 2.13 5.55 2.43 9.18h-28.31l.09-2.88 23.67-.72-3.19 1.845c-.24-2.52-.71-4.665-1.4-6.435-.69-1.77-1.62-3.12-2.79-4.05-1.17-.96-2.64-1.44-4.41-1.44-2.22 0-4.15.615-5.8 1.845-1.62 1.23-2.88 3.045-3.78 5.445-.9 2.37-1.35 5.25-1.35 8.64 0 3.9.64 7.185 1.93 9.855 1.32 2.67 3.17 4.68 5.54 6.03 2.4 1.35 5.23 2.025 8.5 2.025 1.32 0 2.61-.165 3.87-.495 1.26-.36 2.48-.885 3.65-1.575 1.2-.72 2.29-1.59 3.28-2.61l.99.99c-1.62 2.22-3.27 4.035-4.95 5.445-1.65 1.38-3.4 2.4-5.26 3.06-1.83.63-3.81.945-5.94.945-3.63 0-6.87-.855-9.72-2.565-2.85-1.71-5.1-4.11-6.75-7.2-1.65-3.12-2.48-6.78-2.48-10.98 0-3.99.77-7.65 2.3-10.98 1.53-3.33 3.72-5.985 6.57-7.965 2.88-2.01 6.31-3.015 10.3-3.015Zm36.82 0c1.8 0 3.43.18 4.9.54 1.47.36 3.08.975 4.82 1.845l.9 11.205h-1.76l-4.86-11.385 3.2 3.87c-1.29-1.17-2.51-2.01-3.65-2.52-1.11-.54-2.4-.81-3.87-.81-2.37 0-4.23.54-5.58 1.62-1.35 1.05-2.02 2.535-2.02 4.455 0 1.41.34 2.595 1.03 3.555.72.96 1.77 1.845 3.15 2.655 1.38.78 3.11 1.605 5.18 2.475 1.53.66 2.92 1.38 4.18 2.16 1.26.78 2.33 1.665 3.2 2.655.9.99 1.59 2.13 2.07 3.42.51 1.29.76 2.79.76 4.5 0 2.58-.67 4.815-2.02 6.705-1.32 1.86-3.11 3.285-5.36 4.275-2.25.99-4.78 1.485-7.6 1.485-1.92 0-3.65-.165-5.18-.495a19.4 19.4 0 0 1-4.45-1.485l-2.21-11.97h1.94l6.52 12.375-4.41-3.15c1.02.54 1.92.975 2.7 1.305.81.3 1.58.51 2.3.63.72.09 1.45.135 2.2.135 2.76 0 5.03-.615 6.8-1.845 1.8-1.26 2.7-3.15 2.7-5.67 0-1.2-.26-2.235-.77-3.105-.51-.9-1.23-1.695-2.16-2.385-.93-.69-2.02-1.335-3.28-1.935-1.23-.63-2.57-1.26-4.01-1.89-1.92-.87-3.55-1.83-4.9-2.88-1.35-1.08-2.39-2.37-3.11-3.87-.69-1.5-1.03-3.27-1.03-5.31 0-2.37.6-4.38 1.8-6.03 1.23-1.68 2.88-2.955 4.95-3.825 2.07-.87 4.38-1.305 6.93-1.305Zm17.7 55.26c2.58-2.1 4.5-4.095 5.76-5.985 1.26-1.89 1.89-3.705 1.89-5.445 0-.96-.32-1.74-.95-2.34-.6-.63-1.3-1.155-2.11-1.575-.81-.45-1.53-.885-2.16-1.305-.6-.42-.9-.9-.9-1.44 0-1.68.51-3.06 1.53-4.14 1.05-1.08 2.47-1.62 4.27-1.62 1.74 0 3.2.63 4.37 1.89 1.17 1.23 1.75 3.015 1.75 5.355 0 1.53-.21 3.03-.63 4.5-.42 1.47-1.09 2.955-2.02 4.455-.9 1.53-2.09 3.075-3.56 4.635-1.47 1.56-3.27 3.195-5.4 4.905l-1.84-1.89Zm87.28-55.26c2.97 0 5.55.645 7.74 1.935 2.22 1.29 3.98 3.18 5.27 5.67 1.32 2.49 2.13 5.55 2.43 9.18h-28.31l.09-2.88 23.67-.72-3.19 1.845c-.24-2.52-.71-4.665-1.4-6.435-.69-1.77-1.62-3.12-2.79-4.05-1.17-.96-2.64-1.44-4.41-1.44-2.22 0-4.15.615-5.8 1.845-1.62 1.23-2.88 3.045-3.78 5.445-.9 2.37-1.35 5.25-1.35 8.64 0 3.9.64 7.185 1.93 9.855 1.32 2.67 3.17 4.68 5.54 6.03 2.4 1.35 5.23 2.025 8.5 2.025 1.32 0 2.61-.165 3.87-.495 1.26-.36 2.48-.885 3.65-1.575 1.2-.72 2.29-1.59 3.28-2.61l.99.99c-1.62 2.22-3.27 4.035-4.95 5.445-1.65 1.38-3.4 2.4-5.26 3.06-1.83.63-3.81.945-5.94.945-3.63 0-6.87-.855-9.72-2.565-2.85-1.71-5.1-4.11-6.75-7.2-1.65-3.12-2.48-6.78-2.48-10.98 0-3.99.77-7.65 2.3-10.98 1.53-3.33 3.72-5.985 6.57-7.965 2.88-2.01 6.31-3.015 10.3-3.015Zm36.82 0c1.8 0 3.43.18 4.9.54 1.47.36 3.08.975 4.82 1.845l.9 11.205h-1.76l-4.86-11.385 3.2 3.87c-1.29-1.17-2.51-2.01-3.65-2.52-1.11-.54-2.4-.81-3.87-.81-2.37 0-4.23.54-5.58 1.62-1.35 1.05-2.02 2.535-2.02 4.455 0 1.41.34 2.595 1.03 3.555.72.96 1.77 1.845 3.15 2.655 1.38.78 3.11 1.605 5.18 2.475 1.53.66 2.92 1.38 4.18 2.16 1.26.78 2.33 1.665 3.2 2.655.9.99 1.59 2.13 2.07 3.42.51 1.29.76 2.79.76 4.5 0 2.58-.67 4.815-2.02 6.705-1.32 1.86-3.11 3.285-5.36 4.275-2.25.99-4.78 1.485-7.6 1.485-1.92 0-3.65-.165-5.18-.495a19.4 19.4 0 0 1-4.45-1.485l-2.21-11.97h1.94l6.52 12.375-4.41-3.15c1.02.54 1.92.975 2.7 1.305.81.3 1.58.51 2.3.63.72.09 1.45.135 2.2.135 2.76 0 5.03-.615 6.8-1.845 1.8-1.26 2.7-3.15 2.7-5.67 0-1.2-.26-2.235-.77-3.105-.51-.9-1.23-1.695-2.16-2.385-.93-.69-2.02-1.335-3.28-1.935-1.23-.63-2.57-1.26-4.01-1.89-1.92-.87-3.55-1.83-4.9-2.88-1.35-1.08-2.39-2.37-3.11-3.87-.69-1.5-1.03-3.27-1.03-5.31 0-2.37.6-4.38 1.8-6.03 1.23-1.68 2.88-2.955 4.95-3.825 2.07-.87 4.38-1.305 6.93-1.305Zm54.27 21.915c0-5.46-1.17-9.6-3.51-12.42-2.34-2.82-5.55-4.23-9.63-4.23-1.71 0-3.35.165-4.91.495-1.56.33-3.04.84-4.45 1.53a16.44 16.44 0 0 0-3.92 2.655l-.22-2.43c1.77-1.41 3.43-2.595 4.99-3.555 1.59-.96 3.08-1.725 4.46-2.295 1.41-.6 2.73-1.02 3.96-1.26 1.23-.27 2.37-.405 3.42-.405 3.84 0 7.08.81 9.72 2.43 2.64 1.62 4.65 3.885 6.03 6.795 1.38 2.88 2.07 6.225 2.07 10.035 0 4.86-.99 9.045-2.97 12.555-1.98 3.51-4.65 6.21-8.01 8.1-3.36 1.86-7.11 2.79-11.25 2.79-1.56 0-3.11-.12-4.64-.36a30.06 30.06 0 0 1-4.59-1.125 30.21 30.21 0 0 1-4.72-2.025h4.5v21.195l7.56 1.89v1.485h-21.38v-1.485l6.71-1.89v-51.66c-.39-.36-.89-.705-1.49-1.035-.6-.33-1.33-.69-2.2-1.08-.84-.42-1.82-.87-2.93-1.35v-1.035l12.15-4.41h.68l.9 6.12v24.39c0 1.74.46 3.315 1.39 4.725.93 1.38 2.22 2.475 3.87 3.285 1.65.78 3.57 1.17 5.76 1.17 2.67 0 4.95-.705 6.84-2.115 1.89-1.41 3.33-3.435 4.32-6.075.99-2.64 1.49-5.775 1.49-9.405Zm33.98-21.915c2.97 0 5.55.645 7.74 1.935 2.22 1.29 3.97 3.18 5.26 5.67 1.32 2.49 2.13 5.55 2.43 9.18h-28.3l.09-2.88 23.67-.72-3.2 1.845c-.24-2.52-.7-4.665-1.39-6.435-.69-1.77-1.62-3.12-2.79-4.05-1.17-.96-2.64-1.44-4.41-1.44-2.22 0-4.16.615-5.81 1.845-1.62 1.23-2.88 3.045-3.78 5.445-.9 2.37-1.35 5.25-1.35 8.64 0 3.9.65 7.185 1.94 9.855 1.32 2.67 3.16 4.68 5.53 6.03 2.4 1.35 5.24 2.025 8.51 2.025 1.32 0 2.61-.165 3.87-.495 1.26-.36 2.47-.885 3.64-1.575 1.2-.72 2.3-1.59 3.29-2.61l.99.99c-1.62 2.22-3.27 4.035-4.95 5.445-1.65 1.38-3.41 2.4-5.27 3.06-1.83.63-3.81.945-5.94.945-3.63 0-6.87-.855-9.72-2.565-2.85-1.71-5.1-4.11-6.75-7.2-1.65-3.12-2.47-6.78-2.47-10.98 0-3.99.76-7.65 2.29-10.98s3.72-5.985 6.57-7.965c2.88-2.01 6.32-3.015 10.31-3.015Zm43.97 0c2.58 0 4.66.285 6.25.855 1.59.57 2.75 1.29 3.47 2.16.72.87 1.08 1.755 1.08 2.655 0 .87-.18 1.635-.54 2.295-.36.63-.87 1.125-1.53 1.485-.63.36-1.37.54-2.21.54-.66 0-1.3-.225-1.93-.675-.63-.45-1.28-1.005-1.94-1.665-.63-.66-1.29-1.32-1.98-1.98-.69-.66-1.44-1.2-2.25-1.62a5.357 5.357 0 0 0-2.65-.675c-1.83 0-3.54.54-5.13 1.62-1.59 1.05-2.88 2.685-3.87 4.905-.99 2.22-1.49 5.025-1.49 8.415 0 4.05.6 7.47 1.8 10.26 1.2 2.76 2.91 4.845 5.13 6.255 2.25 1.41 4.95 2.115 8.1 2.115 1.89 0 3.72-.39 5.49-1.17 1.8-.81 3.44-1.98 4.91-3.51l.94.99c-1.53 2.22-3.1 4.035-4.72 5.445-1.59 1.38-3.29 2.4-5.09 3.06-1.77.63-3.69.945-5.76.945-3.51 0-6.63-.84-9.36-2.52-2.7-1.71-4.83-4.095-6.39-7.155-1.56-3.06-2.34-6.63-2.34-10.71 0-3.09.5-5.985 1.49-8.685 1.02-2.7 2.47-5.07 4.36-7.11 1.92-2.04 4.23-3.63 6.93-4.77 2.73-1.17 5.81-1.755 9.23-1.755Zm25.65-11.655c-1.68 0-3.04-.555-4.09-1.665-1.02-1.14-1.53-2.475-1.53-4.005 0-1.53.51-2.82 1.53-3.87 1.05-1.08 2.41-1.62 4.09-1.62 1.71 0 3.06.54 4.05 1.62 1.02 1.05 1.53 2.34 1.53 3.87 0 1.53-.51 2.865-1.53 4.005-.99 1.11-2.34 1.665-4.05 1.665Zm4.32 11.475-.18 7.785v30.78l6.8 1.89V684h-20.66v-1.53l6.71-1.89v-30.015c-.33-.3-.84-.66-1.53-1.08-.69-.45-1.47-.9-2.34-1.35-.87-.45-1.77-.87-2.7-1.26v-1.17l13.27-3.69h.63Zm36.55 15.705.67 2.745c-3.78.96-6.85 1.92-9.22 2.88-2.37.96-4.22 1.935-5.54 2.925-1.29.96-2.19 1.995-2.7 3.105-.48 1.08-.72 2.265-.72 3.555 0 2.22.65 3.915 1.94 5.085 1.32 1.14 2.92 1.71 4.81 1.71 1.5 0 2.85-.345 4.05-1.035a8.17 8.17 0 0 0 2.93-2.88c.72-1.23 1.08-2.61 1.08-4.14v-17.685c0-2.46-.63-4.38-1.89-5.76-1.23-1.41-3.21-2.115-5.94-2.115-1.11 0-2.31.135-3.6.405-1.26.27-2.4.66-3.42 1.17l2.34-1.98c-.09.93-.23 1.875-.41 2.835-.18.96-.39 1.83-.63 2.61-.24.75-.54 1.32-.9 1.71-.45.51-1.05.885-1.8 1.125-.72.24-1.47.36-2.25.36-.96 0-1.74-.21-2.34-.63-.57-.45-.85-1.05-.85-1.8 0-1.02.51-2.085 1.53-3.195 1.02-1.11 2.34-2.13 3.96-3.06 1.65-.96 3.46-1.725 5.44-2.295 1.98-.6 3.95-.9 5.9-.9 2.88 0 5.19.435 6.93 1.305 1.77.84 3.04 2.07 3.82 3.69.81 1.62 1.22 3.585 1.22 5.895v22.59c0 .96.13 1.755.4 2.385.3.6.72 1.05 1.26 1.35.54.3 1.2.45 1.98.45s1.61-.15 2.48-.45c.87-.3 1.74-.72 2.61-1.26v1.8c-1.56 1.77-3.09 2.985-4.59 3.645-1.47.66-2.9.99-4.28.99-1.56 0-2.85-.345-3.87-1.035-1.02-.72-1.78-1.725-2.29-3.015-.51-1.32-.78-2.88-.81-4.68l.22-.315c-.42 1.77-1.18 3.345-2.29 4.725a11.876 11.876 0 0 1-3.92 3.195c-1.53.78-3.18 1.17-4.95 1.17-3.24 0-5.92-.885-8.05-2.655-2.13-1.8-3.2-4.38-3.2-7.74 0-1.77.33-3.36.99-4.77.69-1.44 1.92-2.79 3.69-4.05 1.8-1.29 4.34-2.565 7.61-3.825 3.27-1.29 7.47-2.67 12.6-4.14Zm27.81 22.86 6.8 1.89V684H1588v-1.53l6.71-1.89v-52.83c-.39-.39-.92-.795-1.58-1.215-.63-.42-1.41-.87-2.34-1.35-.93-.48-1.98-.975-3.15-1.485v-.855l13.86-3.69h.68l-.32 7.425v54Zm23.47 0 6.79 1.89V684h-20.65v-1.53l6.7-1.89v-52.83c-.39-.39-.91-.795-1.57-1.215-.63-.42-1.41-.87-2.34-1.35-.93-.48-1.98-.975-3.15-1.485v-.855l13.86-3.69h.67l-.31 7.425v54Zm34.69-3.915-3.82 8.82-17.91-38.655-5.63-1.98v-1.755h19.49v1.755l-6.08 1.8 13.95 30.015Zm-17.28 30.195c-1.65 0-3.03-.45-4.14-1.35-1.08-.87-1.62-2.1-1.62-3.69 0-.81.15-1.515.45-2.115.3-.57.71-1.02 1.22-1.35.54-.3 1.08-.45 1.62-.45s1.08.15 1.62.45c.54.3 1.14.6 1.8.9.66.3 1.41.45 2.25.45.87 0 1.65-.165 2.34-.495.72-.3 1.39-.885 2.02-1.755.63-.84 1.26-2.04 1.89-3.6l4.77-11.88 2.07-5.445 10.53-30.105-6.16-1.575v-1.755h15.12v1.755l-5.09 1.575-17.64 46.485c-1.35 3.6-2.7 6.405-4.05 8.415-1.32 2.04-2.71 3.465-4.18 4.275-1.44.84-3.05 1.26-4.82 1.26ZM299.925 749.425l-6.12-1.575v-1.755h15.03v1.755l-5.175 1.575-12.015 38.565h-1.8l-14.805-33.3h1.98l-13.905 33.3h-1.8l-12.6-38.16-5.625-1.98v-1.755h19.26v1.755l-6.075 1.8 9.315 29.025-1.8.54 13.41-34.2h1.485l14.805 33.435-1.845.765 8.28-29.79Zm36.638 36.045 6.795-1.89v-23.805c0-1.77-.345-3.27-1.035-4.5s-1.725-2.175-3.105-2.835c-1.38-.66-3.105-.99-5.175-.99-2.37 0-4.59.405-6.66 1.215-2.07.81-3.6 1.74-4.59 2.79l-1.35-1.305c1.83-1.71 3.51-3.135 5.04-4.275 1.53-1.17 2.97-2.1 4.32-2.79 1.38-.69 2.745-1.17 4.095-1.44 1.35-.3 2.79-.45 4.32-.45 3.87 0 6.72 1.17 8.55 3.51 1.83 2.31 2.745 6 2.745 11.07v23.805l6.75 1.89V787h-20.7v-1.53Zm-6.3 1.53h-20.655v-1.53l6.705-1.89v-52.83c-.39-.39-.915-.795-1.575-1.215-.63-.42-1.41-.87-2.34-1.35-.93-.48-1.98-.975-3.15-1.485v-.855l13.86-3.69h.675l-.315 14.175v47.25l6.795 1.89V787Zm50.419-41.805c2.97 0 5.55.645 7.74 1.935 2.22 1.29 3.975 3.18 5.265 5.67 1.32 2.49 2.13 5.55 2.43 9.18h-28.305l.09-2.88 23.67-.72-3.195 1.845c-.24-2.52-.705-4.665-1.395-6.435-.69-1.77-1.62-3.12-2.79-4.05-1.17-.96-2.64-1.44-4.41-1.44-2.22 0-4.155.615-5.805 1.845-1.62 1.23-2.88 3.045-3.78 5.445-.9 2.37-1.35 5.25-1.35 8.64 0 3.9.645 7.185 1.935 9.855 1.32 2.67 3.165 4.68 5.535 6.03 2.4 1.35 5.235 2.025 8.505 2.025 1.32 0 2.61-.165 3.87-.495 1.26-.36 2.475-.885 3.645-1.575 1.2-.72 2.295-1.59 3.285-2.61l.99.99c-1.62 2.22-3.27 4.035-4.95 5.445-1.65 1.38-3.405 2.4-5.265 3.06-1.83.63-3.81.945-5.94.945-3.63 0-6.87-.855-9.72-2.565-2.85-1.71-5.1-4.11-6.75-7.2-1.65-3.12-2.475-6.78-2.475-10.98 0-3.99.765-7.65 2.295-10.98 1.53-3.33 3.72-5.985 6.57-7.965 2.88-2.01 6.315-3.015 10.305-3.015Zm34.608 8.235v30.15l6.795 1.89V787h-20.61v-1.53l6.705-1.89v-29.655c-.48-.42-1.2-.885-2.16-1.395-.93-.51-2.415-1.2-4.455-2.07v-1.035l12.15-4.41h.675l.9 8.415Zm13.095 32.04 6.795-1.89v-23.805c0-1.77-.345-3.27-1.035-4.5s-1.725-2.175-3.105-2.835c-1.38-.66-3.105-.99-5.175-.99-2.37 0-4.59.405-6.66 1.215-2.04.81-3.555 1.74-4.545 2.79l-1.395-1.305c1.86-1.71 3.54-3.135 5.04-4.275 1.53-1.17 2.97-2.1 4.32-2.79 1.38-.69 2.745-1.17 4.095-1.44 1.38-.3 2.82-.45 4.32-.45 3.9 0 6.75 1.17 8.55 3.51 1.83 2.31 2.745 6 2.745 11.07v23.805l6.75 1.89V787h-20.7v-1.53Zm96.804-36.045-6.12-1.575v-1.755h15.03v1.755l-5.175 1.575-12.015 38.565h-1.8l-14.805-33.3h1.98l-13.905 33.3h-1.8l-12.6-38.16-5.625-1.98v-1.755h19.26v1.755l-6.075 1.8 9.315 29.025-1.8.54 13.41-34.2h1.485l14.805 33.435-1.845.765 8.28-29.79Zm31.126 35.505c2.49 0 4.65-.63 6.48-1.89 1.83-1.29 3.255-3.24 4.275-5.85 1.02-2.64 1.53-5.94 1.53-9.9 0-4.17-.51-7.665-1.53-10.485-.99-2.85-2.415-4.995-4.275-6.435-1.83-1.47-4.02-2.205-6.57-2.205-2.49 0-4.65.645-6.48 1.935-1.83 1.26-3.255 3.195-4.275 5.805-1.02 2.61-1.53 5.91-1.53 9.9 0 4.14.495 7.635 1.485 10.485 1.02 2.85 2.445 5.01 4.275 6.48 1.86 1.44 4.065 2.16 6.615 2.16Zm-.18 2.97c-3.9 0-7.38-.885-10.44-2.655-3.03-1.8-5.415-4.29-7.155-7.47-1.74-3.18-2.61-6.825-2.61-10.935 0-4.2.9-7.935 2.7-11.205 1.83-3.27 4.275-5.82 7.335-7.65 3.09-1.86 6.57-2.79 10.44-2.79 3.93 0 7.41.9 10.44 2.7 3.03 1.77 5.415 4.245 7.155 7.425 1.74 3.15 2.61 6.795 2.61 10.935 0 4.2-.915 7.935-2.745 11.205-1.8 3.24-4.245 5.79-7.335 7.65-3.09 1.86-6.555 2.79-10.395 2.79Zm53.268-42.48c1.47 0 2.565.375 3.285 1.125.72.72 1.08 1.68 1.08 2.88 0 1.44-.465 2.595-1.395 3.465-.9.87-2.1 1.305-3.6 1.305-.66 0-1.335-.105-2.025-.315-.66-.24-1.365-.465-2.115-.675-.72-.21-1.53-.315-2.43-.315-.75 0-1.53.12-2.34.36-.81.24-1.62.57-2.43.99-.78.42-1.5.915-2.16 1.485l-.675-1.71c1.92-1.68 3.63-3.06 5.13-4.14 1.53-1.11 2.88-1.995 4.05-2.655 1.17-.66 2.205-1.125 3.105-1.395.93-.27 1.77-.405 2.52-.405Zm-13.41 8.01v30.15l7.11 1.89V787h-20.925v-1.53l6.705-1.89v-29.655c-.39-.36-.885-.705-1.485-1.035-.6-.33-1.335-.69-2.205-1.08-.84-.42-1.815-.87-2.925-1.35v-1.035l12.735-4.41h.72l.27 8.415Zm40.633 10.575 1.08-1.845 19.395 21.465 5.4 1.845V787h-19.845v-1.53l5.58-1.665-16.02-17.73h-4.59v-3.06h5.895l14.715-13.59-6.075-1.575v-1.755h16.74v1.755l-6.03 1.62-16.245 14.535Zm-7.65 19.575 6.795 1.89V787h-20.655v-1.53l6.705-1.89v-52.83c-.39-.39-.915-.795-1.575-1.215-.63-.42-1.41-.87-2.34-1.35-.93-.48-1.98-.975-3.15-1.485v-.855l13.86-3.69h.675l-.315 7.29v54.135Zm44.838-50.04c-1.68 0-3.045-.555-4.095-1.665-1.02-1.14-1.53-2.475-1.53-4.005 0-1.53.51-2.82 1.53-3.87 1.05-1.08 2.415-1.62 4.095-1.62 1.71 0 3.06.54 4.05 1.62 1.02 1.05 1.53 2.34 1.53 3.87 0 1.53-.51 2.865-1.53 4.005-.99 1.11-2.34 1.665-4.05 1.665Zm4.32 11.475-.18 7.785v30.78l6.795 1.89V787h-20.655v-1.53l6.705-1.89v-30.015c-.33-.3-.84-.66-1.53-1.08-.69-.45-1.47-.9-2.34-1.35-.87-.45-1.77-.87-2.7-1.26v-1.17l13.275-3.69h.63Zm23.943 8.415v30.15l6.795 1.89V787h-20.61v-1.53l6.705-1.89v-29.655c-.48-.42-1.2-.885-2.16-1.395-.93-.51-2.415-1.2-4.455-2.07v-1.035l12.15-4.41h.675l.9 8.415Zm13.095 32.04 6.795-1.89v-23.805c0-1.77-.345-3.27-1.035-4.5s-1.725-2.175-3.105-2.835c-1.38-.66-3.105-.99-5.175-.99-2.37 0-4.59.405-6.66 1.215-2.04.81-3.555 1.74-4.545 2.79l-1.395-1.305c1.86-1.71 3.54-3.135 5.04-4.275 1.53-1.17 2.97-2.1 4.32-2.79 1.38-.69 2.745-1.17 4.095-1.44 1.38-.3 2.82-.45 4.32-.45 3.9 0 6.75 1.17 8.55 3.51 1.83 2.31 2.745 6 2.745 11.07v23.805l6.75 1.89V787h-20.7v-1.53Zm40.948 24.39c-3.09 0-5.805-.255-8.145-.765-2.31-.48-4.245-1.185-5.805-2.115-1.56-.93-2.73-2.04-3.51-3.33-.78-1.29-1.17-2.745-1.17-4.365 0-1.2.3-2.34.9-3.42.63-1.08 1.605-2.1 2.925-3.06 1.32-.93 3.03-1.8 5.13-2.61 2.13-.78 4.695-1.485 7.695-2.115h2.52v.99c-3.21.51-5.73 1.23-7.56 2.16-1.83.93-3.135 2.01-3.915 3.24a7.865 7.865 0 0 0-1.125 4.095c0 1.8.48 3.33 1.44 4.59.99 1.29 2.46 2.265 4.41 2.925 1.98.69 4.425 1.035 7.335 1.035 3.03 0 5.64-.42 7.83-1.26 2.19-.84 3.87-1.98 5.04-3.42 1.17-1.41 1.755-2.955 1.755-4.635 0-1.23-.285-2.28-.855-3.15-.57-.84-1.5-1.56-2.79-2.16-1.26-.57-2.925-1.035-4.995-1.395-2.07-.33-4.62-.6-7.65-.81-2.79-.21-5.085-.585-6.885-1.125-1.8-.54-3.21-1.215-4.23-2.025-1.02-.78-1.74-1.665-2.16-2.655a8.994 8.994 0 0 1-.585-3.24c0-2.13.975-3.93 2.925-5.4 1.95-1.47 4.575-2.58 7.875-3.33l.99.9c-1.8.18-3.135.705-4.005 1.575-.84.84-1.26 1.86-1.26 3.06 0 .75.135 1.425.405 2.025.3.6.855 1.125 1.665 1.575.81.45 2.01.84 3.6 1.17 1.62.3 3.75.555 6.39.765 2.88.21 5.43.585 7.65 1.125 2.22.51 4.095 1.23 5.625 2.16 1.56.9 2.73 2.01 3.51 3.33.81 1.35 1.215 2.955 1.215 4.815 0 2.58-.87 4.995-2.61 7.245-1.71 2.28-4.23 4.11-7.56 5.49-3.3 1.41-7.305 2.115-12.015 2.115Zm.36-35.64c-3.03 0-5.775-.615-8.235-1.845-2.46-1.26-4.41-2.985-5.85-5.175-1.44-2.19-2.16-4.68-2.16-7.47 0-2.85.72-5.37 2.16-7.56 1.44-2.19 3.39-3.9 5.85-5.13 2.46-1.23 5.205-1.845 8.235-1.845 2.31 0 4.455.36 6.435 1.08 1.98.69 3.705 1.695 5.175 3.015a13.733 13.733 0 0 1 3.465 4.635c.84 1.74 1.26 3.66 1.26 5.76 0 2.82-.72 5.325-2.16 7.515-1.44 2.19-3.39 3.915-5.85 5.175-2.46 1.23-5.235 1.845-8.325 1.845Zm.72-2.52c2.7-.12 4.74-1.275 6.12-3.465 1.41-2.22 2.04-5.1 1.89-8.64-.15-3.72-1.08-6.645-2.79-8.775-1.68-2.16-3.9-3.195-6.66-3.105-2.58.09-4.59 1.23-6.03 3.42-1.41 2.19-2.055 5.07-1.935 8.64.15 3.66 1.065 6.585 2.745 8.775 1.71 2.19 3.93 3.24 6.66 3.15Zm4.905-23.805-1.575-2.16c2.61.3 4.845.435 6.705.405 1.89-.03 3.495-.135 4.815-.315 1.32-.21 2.46-.405 3.42-.585.99-.21 1.89-.315 2.7-.315.87 0 1.545.255 2.025.765s.72 1.305.72 2.385c0 1.35-.42 2.445-1.26 3.285-.81.84-1.74 1.26-2.79 1.26-.78 0-1.545-.225-2.295-.675-.75-.48-1.635-1.02-2.655-1.62-.99-.6-2.28-1.14-3.87-1.62-1.56-.48-3.54-.75-5.94-.81Zm93.64 1.53-6.12-1.575v-1.755h15.03v1.755l-5.175 1.575-12.015 38.565h-1.8l-14.805-33.3h1.98l-13.905 33.3h-1.8l-12.6-38.16-5.625-1.98v-1.755h19.26v1.755l-6.075 1.8 9.315 29.025-1.8.54 13.41-34.2h1.485l14.805 33.435-1.845.765 8.28-29.79Zm21.624-15.885c-1.68 0-3.045-.555-4.095-1.665-1.02-1.14-1.53-2.475-1.53-4.005 0-1.53.51-2.82 1.53-3.87 1.05-1.08 2.415-1.62 4.095-1.62 1.71 0 3.06.54 4.05 1.62 1.02 1.05 1.53 2.34 1.53 3.87 0 1.53-.51 2.865-1.53 4.005-.99 1.11-2.34 1.665-4.05 1.665Zm4.32 11.475-.18 7.785v30.78l6.795 1.89V787h-20.655v-1.53l6.705-1.89v-30.015c-.33-.3-.84-.66-1.53-1.08-.69-.45-1.47-.9-2.34-1.35-.87-.45-1.77-.87-2.7-1.26v-1.17l13.275-3.69h.63Zm22.367 30.87c0 2.07.63 3.63 1.89 4.68 1.29 1.05 3.06 1.575 5.31 1.575 1.14 0 2.355-.105 3.645-.315 1.32-.24 2.775-.6 4.365-1.08v1.845c-2.07 1.38-3.84 2.445-5.31 3.195-1.44.75-2.715 1.275-3.825 1.575-1.11.3-2.22.45-3.33.45-1.89 0-3.585-.375-5.085-1.125-1.47-.75-2.64-1.89-3.51-3.42-.87-1.56-1.305-3.51-1.305-5.85v-25.38l-5.13-3.42v-.72c.54-.39 1.125-.81 1.755-1.26.63-.48 1.305-.975 2.025-1.485.72-.51 1.47-1.05 2.25-1.62.78-.6 1.605-1.215 2.475-1.845.87-.63 1.77-1.275 2.7-1.935h1.08V775.885Zm-2.655-25.425v-4.365h16.605l-.72 4.365h-15.885Zm46.617 35.01 6.795-1.89v-23.805c0-1.77-.345-3.27-1.035-4.5s-1.725-2.175-3.105-2.835c-1.38-.66-3.105-.99-5.175-.99-2.37 0-4.59.405-6.66 1.215-2.07.81-3.6 1.74-4.59 2.79l-1.35-1.305c1.83-1.71 3.51-3.135 5.04-4.275 1.53-1.17 2.97-2.1 4.32-2.79 1.38-.69 2.745-1.17 4.095-1.44 1.35-.3 2.79-.45 4.32-.45 3.87 0 6.72 1.17 8.55 3.51 1.83 2.31 2.745 6 2.745 11.07v23.805l6.75 1.89V787h-20.7v-1.53Zm-6.3 1.53h-20.655v-1.53l6.705-1.89v-52.83c-.39-.39-.915-.795-1.575-1.215-.63-.42-1.41-.87-2.34-1.35-.93-.48-1.98-.975-3.15-1.485v-.855l13.86-3.69h.675l-.315 14.175v47.25l6.795 1.89V787Zm59.292-53.46c-1.68 0-3.045-.555-4.095-1.665-1.02-1.14-1.53-2.475-1.53-4.005 0-1.53.51-2.82 1.53-3.87 1.05-1.08 2.415-1.62 4.095-1.62 1.68 0 3.03.54 4.05 1.62 1.02 1.05 1.53 2.34 1.53 3.87 0 1.53-.51 2.865-1.53 4.005-1.02 1.11-2.37 1.665-4.05 1.665Zm-3.015 20.025c-.33-.3-.84-.66-1.53-1.08-.69-.45-1.47-.9-2.34-1.35-.87-.45-1.77-.87-2.7-1.26v-1.17l13.275-3.69h.63l-.18 7.785v36.405c0 1.74-.08 3.24-.23 4.5-.12 1.26-.42 2.43-.9 3.51-.45 1.08-1.15 2.19-2.11 3.33-.96 1.14-2.265 2.445-3.915 3.915-1.62 1.5-3.675 3.3-6.165 5.4l-1.71-1.845c1.8-1.92 3.225-3.555 4.275-4.905 1.05-1.32 1.83-2.55 2.34-3.69.51-1.11.84-2.28.99-3.51.18-1.23.27-2.715.27-4.455v-37.89Zm28.285 20.25c0 1.89.28 3.42.85 4.59.57 1.14 1.5 1.98 2.79 2.52s3.02.81 5.18.81c2.16 0 4.23-.375 6.21-1.125 1.98-.78 3.45-1.71 4.41-2.79l1.35 1.485c-1.77 1.65-3.38 3.03-4.82 4.14-1.44 1.11-2.8 1.995-4.09 2.655-1.26.66-2.52 1.125-3.78 1.395-1.26.27-2.63.405-4.1.405-3.84 0-6.66-1.155-8.46-3.465-1.8-2.34-2.7-5.88-2.7-10.62v-23.58l-6.93-2.295v-1.755l14.49-.675-.4 4.68v23.625Zm18.76 14.04-.45-8.28v-29.34l-6.93-2.295v-1.755l14.58-.675-.45 4.68v31.095c.27.24.65.495 1.13.765.51.27 1.06.54 1.66.81.6.27 1.19.525 1.76.765.6.21 1.14.36 1.62.45v1.215l-12.24 2.565h-.68Zm32.69-42.66c1.8 0 3.44.18 4.91.54 1.47.36 3.07.975 4.81 1.845l.9 11.205h-1.75l-4.86-11.385 3.19 3.87c-1.29-1.17-2.5-2.01-3.64-2.52-1.11-.54-2.4-.81-3.87-.81-2.37 0-4.23.54-5.58 1.62-1.35 1.05-2.03 2.535-2.03 4.455 0 1.41.35 2.595 1.04 3.555.72.96 1.77 1.845 3.15 2.655 1.38.78 3.1 1.605 5.17 2.475 1.53.66 2.93 1.38 4.19 2.16 1.26.78 2.32 1.665 3.19 2.655.9.99 1.59 2.13 2.07 3.42.51 1.29.77 2.79.77 4.5 0 2.58-.68 4.815-2.03 6.705-1.32 1.86-3.1 3.285-5.35 4.275-2.25.99-4.79 1.485-7.61 1.485-1.92 0-3.64-.165-5.17-.495-1.5-.3-2.99-.795-4.46-1.485l-2.2-11.97h1.93l6.53 12.375-4.41-3.15c1.02.54 1.92.975 2.7 1.305.81.3 1.57.51 2.29.63.72.09 1.46.135 2.21.135 2.76 0 5.02-.615 6.79-1.845 1.8-1.26 2.7-3.15 2.7-5.67 0-1.2-.25-2.235-.76-3.105-.51-.9-1.23-1.695-2.16-2.385-.93-.69-2.03-1.335-3.29-1.935-1.23-.63-2.56-1.26-4-1.89-1.92-.87-3.56-1.83-4.91-2.88a11.006 11.006 0 0 1-3.1-3.87c-.69-1.5-1.04-3.27-1.04-5.31 0-2.37.6-4.38 1.8-6.03 1.23-1.68 2.88-2.955 4.95-3.825 2.07-.87 4.38-1.305 6.93-1.305Zm29.88 30.69c0 2.07.63 3.63 1.89 4.68 1.29 1.05 3.06 1.575 5.31 1.575 1.14 0 2.36-.105 3.65-.315 1.32-.24 2.77-.6 4.36-1.08v1.845c-2.07 1.38-3.84 2.445-5.31 3.195-1.44.75-2.71 1.275-3.82 1.575-1.11.3-2.22.45-3.33.45-1.89 0-3.59-.375-5.09-1.125-1.47-.75-2.64-1.89-3.51-3.42-.87-1.56-1.3-3.51-1.3-5.85v-25.38l-5.13-3.42v-.72c.54-.39 1.12-.81 1.75-1.26.63-.48 1.31-.975 2.03-1.485.72-.51 1.47-1.05 2.25-1.62.78-.6 1.6-1.215 2.47-1.845.87-.63 1.77-1.275 2.7-1.935h1.08V775.885Zm-2.65-25.425v-4.365h16.6l-.72 4.365h-15.88Zm30.37-16.92c-1.68 0-3.05-.555-4.1-1.665-1.02-1.14-1.53-2.475-1.53-4.005 0-1.53.51-2.82 1.53-3.87 1.05-1.08 2.42-1.62 4.1-1.62 1.71 0 3.06.54 4.05 1.62 1.02 1.05 1.53 2.34 1.53 3.87 0 1.53-.51 2.865-1.53 4.005-.99 1.11-2.34 1.665-4.05 1.665Zm4.32 11.475-.18 7.785v30.78l6.79 1.89V787h-20.65v-1.53l6.7-1.89v-30.015c-.33-.3-.84-.66-1.53-1.08-.69-.45-1.47-.9-2.34-1.35-.87-.45-1.77-.87-2.7-1.26v-1.17l13.28-3.69h.63Zm45.68 5.445h-26.51l-1.8.945-7.83-1.305v-1.395l8.42-2.7 1.75.09h19.89l10.4-1.08h.58l-.18 7.785v30.78l6.8 1.89V787h-20.66v-1.53l6.71-1.89v-35.1l2.43 1.98ZM1164 783.58l7.29 1.89V787h-21.2v-1.53l6.71-1.89v-38.475c0-3.9.63-7.29 1.89-10.17 1.26-2.88 2.98-5.265 5.17-7.155 2.19-1.89 4.65-3.3 7.38-4.23 2.76-.93 5.6-1.395 8.51-1.395 2.13 0 3.84.225 5.13.675 1.32.45 2.29 1.065 2.92 1.845.63.75.95 1.575.95 2.475 0 .81-.18 1.53-.54 2.16a4.28 4.28 0 0 1-1.49 1.53c-.63.36-1.33.54-2.11.54-.78 0-1.55-.255-2.3-.765-.75-.54-1.54-1.155-2.38-1.845-.81-.69-1.71-1.305-2.7-1.845-.99-.54-2.13-.81-3.42-.81-1.8 0-3.45.435-4.95 1.305-1.47.87-2.66 2.28-3.56 4.23-.87 1.92-1.3 4.515-1.3 7.785v44.145Zm56.83-38.385c2.97 0 5.55.645 7.74 1.935 2.22 1.29 3.97 3.18 5.26 5.67 1.32 2.49 2.13 5.55 2.43 9.18h-28.3l.09-2.88 23.67-.72-3.2 1.845c-.24-2.52-.7-4.665-1.39-6.435-.69-1.77-1.62-3.12-2.79-4.05-1.17-.96-2.64-1.44-4.41-1.44-2.22 0-4.16.615-5.81 1.845-1.62 1.23-2.88 3.045-3.78 5.445-.9 2.37-1.35 5.25-1.35 8.64 0 3.9.65 7.185 1.94 9.855 1.32 2.67 3.16 4.68 5.53 6.03 2.4 1.35 5.24 2.025 8.51 2.025 1.32 0 2.61-.165 3.87-.495 1.26-.36 2.47-.885 3.64-1.575 1.2-.72 2.3-1.59 3.29-2.61l.99.99c-1.62 2.22-3.27 4.035-4.95 5.445-1.65 1.38-3.41 2.4-5.27 3.06-1.83.63-3.81.945-5.94.945-3.63 0-6.87-.855-9.72-2.565-2.85-1.71-5.1-4.11-6.75-7.2-1.65-3.12-2.47-6.78-2.47-10.98 0-3.99.76-7.65 2.29-10.98s3.72-5.985 6.57-7.965c2.88-2.01 6.32-3.015 10.31-3.015Zm53.69 12.375c0-2.64-.96-4.83-2.88-6.57-1.89-1.74-4.5-2.61-7.83-2.61-2.76 0-5.12.705-7.07 2.115-1.95 1.41-3.42 3.42-4.41 6.03-.99 2.61-1.48 5.76-1.48 9.45 0 3.63.52 6.69 1.57 9.18 1.05 2.46 2.55 4.32 4.5 5.58 1.98 1.23 4.34 1.845 7.07 1.845 2.37 0 4.62-.39 6.75-1.17 2.16-.78 4.24-2.04 6.25-3.78l.23 2.43a127.87 127.87 0 0 1-5.45 3.915c-1.53 1.02-2.92 1.815-4.18 2.385-1.23.57-2.39.96-3.47 1.17-1.08.24-2.19.36-3.33.36-3.81 0-7.06-.81-9.76-2.43-2.67-1.62-4.71-3.885-6.12-6.795-1.38-2.91-2.07-6.27-2.07-10.08 0-3.66.57-6.93 1.71-9.81 1.14-2.91 2.73-5.37 4.77-7.38a20.405 20.405 0 0 1 7.11-4.635c2.7-1.05 5.58-1.575 8.64-1.575 1.56 0 3.09.12 4.59.36 1.53.24 3.07.615 4.63 1.125s3.14 1.185 4.73 2.025l-4.5 2.115v-20.925c-.36-.36-.87-.735-1.53-1.125s-1.41-.78-2.25-1.17c-.81-.39-1.65-.78-2.52-1.17v-.81l13.27-3.465h.63l-.49 7.2v51.93c.27.24.66.495 1.17.765.51.27 1.06.54 1.66.81.6.27 1.19.525 1.76.765.6.21 1.14.36 1.62.45v1.215l-12.24 2.565h-.68l-.4-6.66V757.57Zm49.3 18.315c0 2.07.63 3.63 1.89 4.68 1.29 1.05 3.06 1.575 5.31 1.575 1.14 0 2.36-.105 3.65-.315 1.32-.24 2.77-.6 4.36-1.08v1.845c-2.07 1.38-3.84 2.445-5.31 3.195-1.44.75-2.71 1.275-3.82 1.575-1.11.3-2.22.45-3.33.45-1.89 0-3.59-.375-5.09-1.125-1.47-.75-2.64-1.89-3.51-3.42-.87-1.56-1.3-3.51-1.3-5.85v-25.38l-5.13-3.42v-.72c.54-.39 1.12-.81 1.75-1.26.63-.48 1.31-.975 2.03-1.485.72-.51 1.47-1.05 2.25-1.62.78-.6 1.6-1.215 2.47-1.845.87-.63 1.77-1.275 2.7-1.935h1.08V775.885Zm-2.65-25.425v-4.365h16.6l-.72 4.365h-15.88Zm40.2-5.265c2.97 0 5.55.645 7.74 1.935 2.22 1.29 3.97 3.18 5.26 5.67 1.32 2.49 2.13 5.55 2.43 9.18h-28.3l.09-2.88 23.67-.72-3.2 1.845c-.24-2.52-.7-4.665-1.39-6.435-.69-1.77-1.62-3.12-2.79-4.05-1.17-.96-2.64-1.44-4.41-1.44-2.22 0-4.16.615-5.81 1.845-1.62 1.23-2.88 3.045-3.78 5.445-.9 2.37-1.35 5.25-1.35 8.64 0 3.9.65 7.185 1.94 9.855 1.32 2.67 3.16 4.68 5.53 6.03 2.4 1.35 5.24 2.025 8.51 2.025 1.32 0 2.61-.165 3.87-.495 1.26-.36 2.47-.885 3.64-1.575 1.2-.72 2.3-1.59 3.29-2.61l.99.99c-1.62 2.22-3.27 4.035-4.95 5.445-1.65 1.38-3.41 2.4-5.27 3.06-1.83.63-3.81.945-5.94.945-3.63 0-6.87-.855-9.72-2.565-2.85-1.71-5.1-4.11-6.75-7.2-1.65-3.12-2.47-6.78-2.47-10.98 0-3.99.76-7.65 2.29-10.98s3.72-5.985 6.57-7.965c2.88-2.01 6.32-3.015 10.31-3.015Zm56.6 38.115 5.85 1.89v1.8h-19.67v-1.8l5.9-1.755L1399.56 769l-.81-.945-13.14-18.18-5.85-2.025v-1.755h19.53v1.755l-5.8 1.8 9.54 13.23.85.945 14.09 19.485Zm-16.52-15.705-12.91 16.065 5.44 1.53v1.8h-14.76v-1.8l5.18-1.53 15.48-18.45 1.3-.99 12.02-14.85-5.49-1.53v-1.755h14.62v1.755l-5.04 1.53-14.53 17.28-1.31.945Zm36.28 8.28c0 2.07.63 3.63 1.89 4.68 1.29 1.05 3.06 1.575 5.31 1.575 1.14 0 2.35-.105 3.64-.315 1.32-.24 2.78-.6 4.37-1.08v1.845c-2.07 1.38-3.84 2.445-5.31 3.195-1.44.75-2.72 1.275-3.83 1.575-1.11.3-2.22.45-3.33.45-1.89 0-3.58-.375-5.08-1.125-1.47-.75-2.64-1.89-3.51-3.42-.87-1.56-1.31-3.51-1.31-5.85v-25.38l-5.13-3.42v-.72c.54-.39 1.13-.81 1.76-1.26.63-.48 1.3-.975 2.02-1.485.72-.51 1.47-1.05 2.25-1.62.78-.6 1.61-1.215 2.48-1.845.87-.63 1.77-1.275 2.7-1.935h1.08V775.885Zm-2.66-25.425v-4.365h16.61l-.72 4.365h-15.89Zm28.44 25.92c1.68 0 3.06.555 4.14 1.665 1.08 1.08 1.62 2.415 1.62 4.005 0 1.56-.54 2.895-1.62 4.005-1.08 1.11-2.46 1.665-4.14 1.665-1.65 0-3.02-.555-4.1-1.665-1.08-1.11-1.62-2.445-1.62-4.005 0-1.59.54-2.925 1.62-4.005 1.08-1.11 2.45-1.665 4.1-1.665Z" fill="#3C4043"/><path d="M1486.66 466.885c0 2.07.63 3.63 1.89 4.68 1.29 1.05 3.06 1.575 5.31 1.575 1.14 0 2.35-.105 3.64-.315 1.32-.24 2.78-.6 4.37-1.08v1.845c-2.07 1.38-3.84 2.445-5.31 3.195-1.44.75-2.72 1.275-3.83 1.575-1.11.3-2.22.45-3.33.45-1.89 0-3.58-.375-5.08-1.125-1.47-.75-2.64-1.89-3.51-3.42-.87-1.56-1.31-3.51-1.31-5.85v-25.38l-5.13-3.42v-.72c.54-.39 1.13-.81 1.76-1.26.63-.48 1.3-.975 2.02-1.485.72-.51 1.47-1.05 2.25-1.62.78-.6 1.61-1.215 2.48-1.845.87-.63 1.77-1.275 2.7-1.935h1.08V466.885ZM1484 441.46v-4.365h16.61l-.72 4.365H1484Zm45.86 29.205-3.83 8.82-17.91-38.655-5.62-1.98v-1.755h19.48v1.755l-6.07 1.8 13.95 30.015Zm-17.28 30.195c-1.65 0-3.03-.45-4.14-1.35-1.08-.87-1.62-2.1-1.62-3.69 0-.81.15-1.515.45-2.115.3-.57.7-1.02 1.21-1.35.54-.3 1.08-.45 1.62-.45s1.08.15 1.62.45c.54.3 1.14.6 1.8.9.66.3 1.41.45 2.25.45.87 0 1.65-.165 2.34-.495.72-.3 1.4-.885 2.03-1.755.63-.84 1.26-2.04 1.89-3.6l4.77-11.88 2.07-5.445 10.53-30.105-6.17-1.575v-1.755h15.12v1.755l-5.08 1.575-17.64 46.485c-1.35 3.6-2.7 6.405-4.05 8.415-1.32 2.04-2.72 3.465-4.19 4.275-1.44.84-3.04 1.26-4.81 1.26Zm75.2-42.75c0-5.46-1.17-9.6-3.51-12.42-2.34-2.82-5.55-4.23-9.63-4.23-1.71 0-3.35.165-4.91.495-1.56.33-3.04.84-4.45 1.53a16.44 16.44 0 0 0-3.92 2.655l-.22-2.43c1.77-1.41 3.43-2.595 4.99-3.555 1.59-.96 3.08-1.725 4.46-2.295 1.41-.6 2.73-1.02 3.96-1.26 1.23-.27 2.37-.405 3.42-.405 3.84 0 7.08.81 9.72 2.43 2.64 1.62 4.65 3.885 6.03 6.795 1.38 2.88 2.07 6.225 2.07 10.035 0 4.86-.99 9.045-2.97 12.555-1.98 3.51-4.65 6.21-8.01 8.1-3.36 1.86-7.11 2.79-11.25 2.79-1.56 0-3.11-.12-4.64-.36a30.06 30.06 0 0 1-4.59-1.125 30.21 30.21 0 0 1-4.72-2.025h4.5v21.195l7.56 1.89v1.485h-21.38v-1.485l6.71-1.89v-51.66c-.39-.36-.89-.705-1.49-1.035-.6-.33-1.33-.69-2.2-1.08-.84-.42-1.82-.87-2.93-1.35v-1.035l12.15-4.41h.68l.9 6.12v24.39c0 1.74.46 3.315 1.39 4.725.93 1.38 2.22 2.475 3.87 3.285 1.65.78 3.57 1.17 5.76 1.17 2.67 0 4.95-.705 6.84-2.115 1.89-1.41 3.33-3.435 4.32-6.075.99-2.64 1.49-5.775 1.49-9.405Zm35.15 17.82c2.49 0 4.65-.63 6.48-1.89 1.83-1.29 3.26-3.24 4.28-5.85 1.02-2.64 1.53-5.94 1.53-9.9 0-4.17-.51-7.665-1.53-10.485-.99-2.85-2.42-4.995-4.28-6.435-1.83-1.47-4.02-2.205-6.57-2.205-2.49 0-4.65.645-6.48 1.935-1.83 1.26-3.25 3.195-4.27 5.805-1.02 2.61-1.53 5.91-1.53 9.9 0 4.14.49 7.635 1.48 10.485 1.02 2.85 2.45 5.01 4.28 6.48 1.86 1.44 4.06 2.16 6.61 2.16Zm-.18 2.97c-3.9 0-7.38-.885-10.44-2.655-3.03-1.8-5.41-4.29-7.15-7.47-1.74-3.18-2.61-6.825-2.61-10.935 0-4.2.9-7.935 2.7-11.205 1.83-3.27 4.27-5.82 7.33-7.65 3.09-1.86 6.57-2.79 10.44-2.79 3.93 0 7.41.9 10.44 2.7 3.03 1.77 5.42 4.245 7.16 7.425 1.74 3.15 2.61 6.795 2.61 10.935 0 4.2-.92 7.935-2.75 11.205-1.8 3.24-4.24 5.79-7.33 7.65-3.09 1.86-6.56 2.79-10.4 2.79Zm29.37-24.57h19.31V460h-19.31v-5.67ZM262.35 603.86c-3.09 0-5.805-.255-8.145-.765-2.31-.48-4.245-1.185-5.805-2.115-1.56-.93-2.73-2.04-3.51-3.33-.78-1.29-1.17-2.745-1.17-4.365 0-1.2.3-2.34.9-3.42.63-1.08 1.605-2.1 2.925-3.06 1.32-.93 3.03-1.8 5.13-2.61 2.13-.78 4.695-1.485 7.695-2.115h2.52v.99c-3.21.51-5.73 1.23-7.56 2.16-1.83.93-3.135 2.01-3.915 3.24a7.865 7.865 0 0 0-1.125 4.095c0 1.8.48 3.33 1.44 4.59.99 1.29 2.46 2.265 4.41 2.925 1.98.69 4.425 1.035 7.335 1.035 3.03 0 5.64-.42 7.83-1.26 2.19-.84 3.87-1.98 5.04-3.42 1.17-1.41 1.755-2.955 1.755-4.635 0-1.23-.285-2.28-.855-3.15-.57-.84-1.5-1.56-2.79-2.16-1.26-.57-2.925-1.035-4.995-1.395-2.07-.33-4.62-.6-7.65-.81-2.79-.21-5.085-.585-6.885-1.125-1.8-.54-3.21-1.215-4.23-2.025-1.02-.78-1.74-1.665-2.16-2.655a8.994 8.994 0 0 1-.585-3.24c0-2.13.975-3.93 2.925-5.4 1.95-1.47 4.575-2.58 7.875-3.33l.99.9c-1.8.18-3.135.705-4.005 1.575-.84.84-1.26 1.86-1.26 3.06 0 .75.135 1.425.405 2.025.3.6.855 1.125 1.665 1.575.81.45 2.01.84 3.6 1.17 1.62.3 3.75.555 6.39.765 2.88.21 5.43.585 7.65 1.125 2.22.51 4.095 1.23 5.625 2.16 1.56.9 2.73 2.01 3.51 3.33.81 1.35 1.215 2.955 1.215 4.815 0 2.58-.87 4.995-2.61 7.245-1.71 2.28-4.23 4.11-7.56 5.49-3.3 1.41-7.305 2.115-12.015 2.115Zm.36-35.64c-3.03 0-5.775-.615-8.235-1.845-2.46-1.26-4.41-2.985-5.85-5.175-1.44-2.19-2.16-4.68-2.16-7.47 0-2.85.72-5.37 2.16-7.56 1.44-2.19 3.39-3.9 5.85-5.13 2.46-1.23 5.205-1.845 8.235-1.845 2.31 0 4.455.36 6.435 1.08 1.98.69 3.705 1.695 5.175 3.015a13.733 13.733 0 0 1 3.465 4.635c.84 1.74 1.26 3.66 1.26 5.76 0 2.82-.72 5.325-2.16 7.515-1.44 2.19-3.39 3.915-5.85 5.175-2.46 1.23-5.235 1.845-8.325 1.845Zm.72-2.52c2.7-.12 4.74-1.275 6.12-3.465 1.41-2.22 2.04-5.1 1.89-8.64-.15-3.72-1.08-6.645-2.79-8.775-1.68-2.16-3.9-3.195-6.66-3.105-2.58.09-4.59 1.23-6.03 3.42-1.41 2.19-2.055 5.07-1.935 8.64.15 3.66 1.065 6.585 2.745 8.775 1.71 2.19 3.93 3.24 6.66 3.15Zm4.905-23.805-1.575-2.16c2.61.3 4.845.435 6.705.405 1.89-.03 3.495-.135 4.815-.315 1.32-.21 2.46-.405 3.42-.585.99-.21 1.89-.315 2.7-.315.87 0 1.545.255 2.025.765s.72 1.305.72 2.385c0 1.35-.42 2.445-1.26 3.285-.81.84-1.74 1.26-2.79 1.26-.78 0-1.545-.225-2.295-.675-.75-.48-1.635-1.02-2.655-1.62-.99-.6-2.28-1.14-3.87-1.62-1.56-.48-3.54-.75-5.94-.81Zm47.865-2.475c1.47 0 2.565.375 3.285 1.125.72.72 1.08 1.68 1.08 2.88 0 1.44-.465 2.595-1.395 3.465-.9.87-2.1 1.305-3.6 1.305-.66 0-1.335-.105-2.025-.315-.66-.24-1.365-.465-2.115-.675-.72-.21-1.53-.315-2.43-.315-.75 0-1.53.12-2.34.36-.81.24-1.62.57-2.43.99-.78.42-1.5.915-2.16 1.485l-.675-1.71c1.92-1.68 3.63-3.06 5.13-4.14 1.53-1.11 2.88-1.995 4.05-2.655 1.17-.66 2.205-1.125 3.105-1.395.93-.27 1.77-.405 2.52-.405Zm-13.41 8.01v30.15l7.11 1.89V581h-20.925v-1.53l6.705-1.89v-29.655c-.39-.36-.885-.705-1.485-1.035-.6-.33-1.335-.69-2.205-1.08-.84-.42-1.815-.87-2.925-1.35v-1.035l12.735-4.41h.72l.27 8.415Zm45.998 7.29.675 2.745c-3.78.96-6.855 1.92-9.225 2.88-2.37.96-4.215 1.935-5.535 2.925-1.29.96-2.19 1.995-2.7 3.105-.48 1.08-.72 2.265-.72 3.555 0 2.22.645 3.915 1.935 5.085 1.32 1.14 2.925 1.71 4.815 1.71 1.5 0 2.85-.345 4.05-1.035a8.157 8.157 0 0 0 2.925-2.88c.72-1.23 1.08-2.61 1.08-4.14v-17.685c0-2.46-.63-4.38-1.89-5.76-1.23-1.41-3.21-2.115-5.94-2.115-1.11 0-2.31.135-3.6.405-1.26.27-2.4.66-3.42 1.17l2.34-1.98a32.23 32.23 0 0 1-.405 2.835c-.18.96-.39 1.83-.63 2.61-.24.75-.54 1.32-.9 1.71-.45.51-1.05.885-1.8 1.125-.72.24-1.47.36-2.25.36-.96 0-1.74-.21-2.34-.63-.57-.45-.855-1.05-.855-1.8 0-1.02.51-2.085 1.53-3.195 1.02-1.11 2.34-2.13 3.96-3.06 1.65-.96 3.465-1.725 5.445-2.295 1.98-.6 3.945-.9 5.895-.9 2.88 0 5.19.435 6.93 1.305 1.77.84 3.045 2.07 3.825 3.69.81 1.62 1.215 3.585 1.215 5.895v22.59c0 .96.135 1.755.405 2.385.3.6.72 1.05 1.26 1.35.54.3 1.2.45 1.98.45s1.605-.15 2.475-.45c.87-.3 1.74-.72 2.61-1.26v1.8c-1.56 1.77-3.09 2.985-4.59 3.645-1.47.66-2.895.99-4.275.99-1.56 0-2.85-.345-3.87-1.035-1.02-.72-1.785-1.725-2.295-3.015-.51-1.32-.78-2.88-.81-4.68l.225-.315a11.775 11.775 0 0 1-2.295 4.725 11.858 11.858 0 0 1-3.915 3.195c-1.53.78-3.18 1.17-4.95 1.17-3.24 0-5.925-.885-8.055-2.655-2.13-1.8-3.195-4.38-3.195-7.74 0-1.77.33-3.36.99-4.77.69-1.44 1.92-2.79 3.69-4.05 1.8-1.29 4.335-2.565 7.605-3.825 3.27-1.29 7.47-2.67 12.6-4.14Zm51.348 6.39c0-5.46-1.17-9.6-3.51-12.42-2.34-2.82-5.55-4.23-9.63-4.23-1.71 0-3.345.165-4.905.495-1.56.33-3.045.84-4.455 1.53-1.38.66-2.685 1.545-3.915 2.655l-.225-2.43c1.77-1.41 3.435-2.595 4.995-3.555 1.59-.96 3.075-1.725 4.455-2.295 1.41-.6 2.73-1.02 3.96-1.26 1.23-.27 2.37-.405 3.42-.405 3.84 0 7.08.81 9.72 2.43 2.64 1.62 4.65 3.885 6.03 6.795 1.38 2.88 2.07 6.225 2.07 10.035 0 4.86-.99 9.045-2.97 12.555-1.98 3.51-4.65 6.21-8.01 8.1-3.36 1.86-7.11 2.79-11.25 2.79-1.56 0-3.105-.12-4.635-.36a30.06 30.06 0 0 1-4.59-1.125 30.257 30.257 0 0 1-4.725-2.025h4.5v21.195l7.56 1.89v1.485h-21.375v-1.485l6.705-1.89v-51.66c-.39-.36-.885-.705-1.485-1.035-.6-.33-1.335-.69-2.205-1.08-.84-.42-1.815-.87-2.925-1.35v-1.035l12.15-4.41h.675l.9 6.12v24.39c0 1.74.465 3.315 1.395 4.725.93 1.38 2.22 2.475 3.87 3.285 1.65.78 3.57 1.17 5.76 1.17 2.67 0 4.95-.705 6.84-2.115 1.89-1.41 3.33-3.435 4.32-6.075.99-2.64 1.485-5.775 1.485-9.405Zm39.698 18.36 6.795-1.89v-23.805c0-1.77-.345-3.27-1.035-4.5s-1.725-2.175-3.105-2.835c-1.38-.66-3.105-.99-5.175-.99-2.37 0-4.59.405-6.66 1.215-2.07.81-3.6 1.74-4.59 2.79l-1.35-1.305c1.83-1.71 3.51-3.135 5.04-4.275 1.53-1.17 2.97-2.1 4.32-2.79 1.38-.69 2.745-1.17 4.095-1.44 1.35-.3 2.79-.45 4.32-.45 3.87 0 6.72 1.17 8.55 3.51 1.83 2.31 2.745 6 2.745 11.07v23.805l6.75 1.89V581h-20.7v-1.53Zm-6.3 1.53h-20.655v-1.53l6.705-1.89v-52.83c-.39-.39-.915-.795-1.575-1.215-.63-.42-1.41-.87-2.34-1.35-.93-.48-1.98-.975-3.15-1.485v-.855l13.86-3.69h.675l-.315 14.175v47.25l6.795 1.89V581Zm50.419-41.805c2.97 0 5.55.645 7.74 1.935 2.22 1.29 3.975 3.18 5.265 5.67 1.32 2.49 2.13 5.55 2.43 9.18h-28.305l.09-2.88 23.67-.72-3.195 1.845c-.24-2.52-.705-4.665-1.395-6.435-.69-1.77-1.62-3.12-2.79-4.05-1.17-.96-2.64-1.44-4.41-1.44-2.22 0-4.155.615-5.805 1.845-1.62 1.23-2.88 3.045-3.78 5.445-.9 2.37-1.35 5.25-1.35 8.64 0 3.9.645 7.185 1.935 9.855 1.32 2.67 3.165 4.68 5.535 6.03 2.4 1.35 5.235 2.025 8.505 2.025 1.32 0 2.61-.165 3.87-.495 1.26-.36 2.475-.885 3.645-1.575 1.2-.72 2.295-1.59 3.285-2.61l.99.99c-1.62 2.22-3.27 4.035-4.95 5.445-1.65 1.38-3.405 2.4-5.265 3.06-1.83.63-3.81.945-5.94.945-3.63 0-6.87-.855-9.72-2.565-2.85-1.71-5.1-4.11-6.75-7.2-1.65-3.12-2.475-6.78-2.475-10.98 0-3.99.765-7.65 2.295-10.98 1.53-3.33 3.72-5.985 6.57-7.965 2.88-2.01 6.315-3.015 10.305-3.015Zm48.018.225c1.47 0 2.565.375 3.285 1.125.72.72 1.08 1.68 1.08 2.88 0 1.44-.465 2.595-1.395 3.465-.9.87-2.1 1.305-3.6 1.305-.66 0-1.335-.105-2.025-.315-.66-.24-1.365-.465-2.115-.675-.72-.21-1.53-.315-2.43-.315-.75 0-1.53.12-2.34.36-.81.24-1.62.57-2.43.99-.78.42-1.5.915-2.16 1.485l-.675-1.71c1.92-1.68 3.63-3.06 5.13-4.14 1.53-1.11 2.88-1.995 4.05-2.655 1.17-.66 2.205-1.125 3.105-1.395.93-.27 1.77-.405 2.52-.405Zm-13.41 8.01v30.15l7.11 1.89V581h-20.925v-1.53l6.705-1.89v-29.655c-.39-.36-.885-.705-1.485-1.035-.6-.33-1.335-.69-2.205-1.08-.84-.42-1.815-.87-2.925-1.35v-1.035l12.735-4.41h.72l.27 8.415Z" fill="#1A73E8"/><path d="M286.065 328.88c2.04 0 4.05-.195 6.03-.585 2.01-.39 4.11-1.035 6.3-1.935l-4.995 3.69 8.235-14.805h4.095l-2.07 17.415c-2.88 1.14-6.09 2.01-9.63 2.61-3.51.6-7.275.9-11.295.9-5.79 0-10.92-.66-15.39-1.98-4.44-1.35-8.19-3.345-11.25-5.985-3.06-2.64-5.385-5.91-6.975-9.81-1.56-3.9-2.34-8.4-2.34-13.5 0-6.48 1.44-12.15 4.32-17.01 2.88-4.89 7.065-8.685 12.555-11.385 5.52-2.73 12.21-4.095 20.07-4.095 2.28 0 4.53.15 6.75.45 2.25.3 4.725.795 7.425 1.485l-3.96.765 5.715-4.95h3.33l2.115 23.85-4.68.405-8.145-15.525 4.815 5.355c-2.46-1.65-4.83-2.79-7.11-3.42-2.25-.63-4.665-.945-7.245-.945-3.3 0-6.195.435-8.685 1.305-2.46.87-4.515 2.205-6.165 4.005-1.65 1.77-2.91 4.005-3.78 6.705-.84 2.67-1.26 5.82-1.26 9.45-.03 4.68.495 8.745 1.575 12.195 1.11 3.45 2.685 6.315 4.725 8.595a19.587 19.587 0 0 0 7.335 5.085c2.88 1.11 6.075 1.665 9.585 1.665Zm44.575-8.595c0 1.35.21 2.43.63 3.24.42.78 1.08 1.35 1.98 1.71.93.36 2.16.54 3.69.54 1.5 0 2.97-.18 4.41-.54 1.44-.39 2.685-.915 3.735-1.575l1.485 2.745c-2.28 2.16-4.23 3.885-5.85 5.175-1.59 1.29-3.015 2.28-4.275 2.97-1.23.66-2.415 1.095-3.555 1.305-1.11.21-2.325.315-3.645.315-4.26 0-7.425-1.17-9.495-3.51-2.04-2.37-3.06-5.88-3.06-10.53v-21.645l-6.255-3.33v-3.015l20.925-1.35-.72 6.48v21.015Zm14.895 15.66-2.07-9.225v-26.955l-4.185-2.79v-3.015l18.765-1.08-.585 6.75v26.01c.3.3.705.645 1.215 1.035.51.36 1.065.735 1.665 1.125.6.36 1.2.705 1.8 1.035.63.33 1.23.615 1.8.855v2.25l-16.605 4.005h-1.8Zm41.233-14.445c0 1.92.615 3.345 1.845 4.275 1.23.9 3.12 1.35 5.67 1.35 1.23 0 2.565-.12 4.005-.36s3-.6 4.68-1.08v3.87c-2.58 1.59-4.86 2.88-6.84 3.87-1.95.96-3.705 1.65-5.265 2.07-1.56.45-3.03.675-4.41.675-2.76 0-5.16-.435-7.2-1.305-2.04-.9-3.615-2.265-4.725-4.095-1.11-1.86-1.665-4.185-1.665-6.975V302.33l-6.93-4.995v-2.565c.87-.48 1.86-1.035 2.97-1.665 1.11-.66 2.28-1.365 3.51-2.115 1.26-.75 2.52-1.515 3.78-2.295 1.26-.81 2.475-1.605 3.645-2.385a76.3 76.3 0 0 0 3.285-2.25h3.645v37.44Zm-5.67-20.835.09-7.155h20.295l-.585 7.155h-19.8Zm43.99 20.835c0 1.92.615 3.345 1.845 4.275 1.23.9 3.12 1.35 5.67 1.35 1.23 0 2.565-.12 4.005-.36s3-.6 4.68-1.08v3.87c-2.58 1.59-4.86 2.88-6.84 3.87-1.95.96-3.705 1.65-5.265 2.07-1.56.45-3.03.675-4.41.675-2.76 0-5.16-.435-7.2-1.305-2.04-.9-3.615-2.265-4.725-4.095-1.11-1.86-1.665-4.185-1.665-6.975V302.33l-6.93-4.995v-2.565c.87-.48 1.86-1.035 2.97-1.665 1.11-.66 2.28-1.365 3.51-2.115 1.26-.75 2.52-1.515 3.78-2.295 1.26-.81 2.475-1.605 3.645-2.385a76.3 76.3 0 0 0 3.285-2.25h3.645v37.44Zm-5.67-20.835.09-7.155h20.295l-.585 7.155h-19.8Zm37.646-16.335c-2.64 0-4.71-.66-6.21-1.98-1.47-1.35-2.205-3.12-2.205-5.31 0-2.16.735-3.885 2.205-5.175 1.5-1.32 3.57-1.98 6.21-1.98 2.67 0 4.74.66 6.21 1.98 1.5 1.29 2.25 3.015 2.25 5.175 0 2.19-.75 3.96-2.25 5.31-1.47 1.32-3.54 1.98-6.21 1.98Zm7.965 7.965-.675 11.025v26.685l5.715 2.115V335h-25.47v-2.88l5.76-2.115V304.13c-.39-.48-.93-.99-1.62-1.53-.66-.54-1.41-1.08-2.25-1.62-.81-.57-1.65-1.095-2.52-1.575v-2.52l18-4.59h3.06Zm29.338 9.63v28.44l4.59 1.755V335h-24.3v-2.88l5.76-2.115V304.76c-.63-.78-1.455-1.53-2.475-2.25-.99-.75-2.295-1.59-3.915-2.52v-2.34l15.21-5.355h2.07l3.06 9.63Zm9.81 30.195 4.545-1.755V308.63c0-1.35-.24-2.46-.72-3.33-.45-.87-1.17-1.515-2.16-1.935-.99-.42-2.295-.63-3.915-.63-1.68 0-3.3.21-4.86.63-1.56.42-2.895.975-4.005 1.665l-1.53-2.52c2.37-2.25 4.395-4.05 6.075-5.4 1.68-1.35 3.165-2.37 4.455-3.06 1.32-.69 2.58-1.155 3.78-1.395 1.23-.24 2.52-.36 3.87-.36 4.41 0 7.68 1.23 9.81 3.69 2.13 2.43 3.195 6.09 3.195 10.98v23.04l5.805 2.115V335h-24.345v-2.88Zm48.38 25.74c-3.87 0-7.17-.225-9.9-.675-2.73-.45-4.95-1.095-6.66-1.935-1.68-.84-2.91-1.86-3.69-3.06-.78-1.17-1.17-2.49-1.17-3.96 0-1.17.27-2.25.81-3.24.57-.96 1.53-1.845 2.88-2.655 1.38-.78 3.255-1.485 5.625-2.115 2.4-.6 5.43-1.125 9.09-1.575l4.275-.045v.855c-3.12.36-5.52.84-7.2 1.44-1.68.63-2.835 1.38-3.465 2.25-.63.9-.945 1.92-.945 3.06 0 1.35.42 2.505 1.26 3.465.84.96 2.16 1.695 3.96 2.205 1.83.51 4.215.765 7.155.765 3 0 5.505-.285 7.515-.855 2.04-.54 3.555-1.305 4.545-2.295 1.02-.99 1.53-2.085 1.53-3.285 0-.87-.225-1.62-.675-2.25-.42-.6-1.23-1.11-2.43-1.53-1.17-.42-2.865-.765-5.085-1.035-2.22-.27-5.115-.495-8.685-.675-3.57-.21-6.495-.615-8.775-1.215-2.28-.57-4.05-1.335-5.31-2.295-1.23-.93-2.085-1.98-2.565-3.15-.48-1.2-.705-2.49-.675-3.87.06-2.67 1.17-4.83 3.33-6.48 2.16-1.65 5.46-2.715 9.9-3.195l1.17 1.62c-1.8.15-3.045.495-3.735 1.035-.69.54-1.035 1.275-1.035 2.205 0 .66.15 1.215.45 1.665.33.45.975.84 1.935 1.17.99.3 2.475.54 4.455.72 1.98.18 4.62.33 7.92.45 3.57.15 6.615.48 9.135.99 2.52.51 4.575 1.26 6.165 2.25 1.59.96 2.76 2.175 3.51 3.645.75 1.5 1.125 3.3 1.125 5.4 0 3.18-.99 5.985-2.97 8.415-1.95 2.43-4.845 4.335-8.685 5.715-3.81 1.38-8.505 2.07-14.085 2.07Zm.045-35.01c-4.11 0-7.62-.615-10.53-1.845-2.91-1.26-5.13-3.03-6.66-5.31-1.5-2.28-2.25-4.965-2.25-8.055 0-3.24.81-6 2.43-8.28 1.65-2.28 3.93-4.02 6.84-5.22 2.94-1.23 6.345-1.845 10.215-1.845 3.15 0 5.925.42 8.325 1.26 2.43.84 4.455 1.98 6.075 3.42 1.65 1.44 2.895 3.075 3.735 4.905.84 1.8 1.26 3.69 1.26 5.67 0 3.21-.81 5.97-2.43 8.28-1.62 2.28-3.9 4.02-6.84 5.22-2.91 1.2-6.3 1.8-10.17 1.8Zm.36-5.31c1.8 0 3.225-.705 4.275-2.115 1.05-1.44 1.575-3.885 1.575-7.335 0-3.84-.57-6.57-1.71-8.19-1.11-1.65-2.685-2.475-4.725-2.475-1.8 0-3.24.72-4.32 2.16-1.05 1.41-1.575 3.855-1.575 7.335 0 3.81.57 6.54 1.71 8.19 1.14 1.62 2.73 2.43 4.77 2.43Zm6.48-21.06-1.125-3.375c2.28.24 4.365.345 6.255.315 1.89-.06 3.6-.165 5.13-.315 1.56-.18 2.94-.345 4.14-.495 1.23-.18 2.31-.27 3.24-.27.96 0 1.665.27 2.115.81.48.51.72 1.44.72 2.79 0 1.89-.345 3.24-1.035 4.05-.66.81-1.425 1.215-2.295 1.215-.84 0-1.695-.255-2.565-.765-.84-.51-1.875-1.08-3.105-1.71-1.2-.66-2.715-1.215-4.545-1.665-1.83-.48-4.14-.675-6.93-.585Zm76.547-4.185c4.05 0 7.425.795 10.125 2.385 2.73 1.56 4.83 3.885 6.3 6.975 1.47 3.09 2.34 6.93 2.61 11.52h-30.96l-.045-4.815 22.905-.81-5.085 2.475c-.06-2.85-.345-5.145-.855-6.885-.51-1.74-1.26-3.015-2.25-3.825s-2.235-1.215-3.735-1.215c-1.56 0-2.91.405-4.05 1.215-1.14.78-2.025 2.13-2.655 4.05-.6 1.89-.9 4.5-.9 7.83 0 3.48.54 6.345 1.62 8.595 1.11 2.25 2.73 3.93 4.86 5.04 2.13 1.11 4.74 1.665 7.83 1.665 1.53 0 2.955-.105 4.275-.315 1.35-.21 2.655-.525 3.915-.945 1.26-.45 2.52-1.02 3.78-1.71l1.08 3.42c-2.1 1.92-4.17 3.57-6.21 4.95-2.04 1.38-4.11 2.43-6.21 3.15a18.62 18.62 0 0 1-6.39 1.125c-4.44 0-8.265-.885-11.475-2.655-3.21-1.77-5.7-4.245-7.47-7.425-1.74-3.21-2.61-6.93-2.61-11.16 0-4.32.825-8.175 2.475-11.565 1.68-3.42 4.125-6.12 7.335-8.1 3.24-1.98 7.17-2.97 11.79-2.97Zm56.079 14.67c0-2.61-.585-4.665-1.755-6.165-1.17-1.53-2.985-2.295-5.445-2.295-2.04 0-3.78.525-5.22 1.575-1.41 1.02-2.505 2.64-3.285 4.86-.75 2.19-1.125 5.055-1.125 8.595 0 3.33.39 6.06 1.17 8.19.81 2.13 1.965 3.705 3.465 4.725 1.53.99 3.36 1.485 5.49 1.485 1.47 0 3-.18 4.59-.54 1.62-.39 3.18-1.005 4.68-1.845v3.555c-2.22 1.5-4.125 2.73-5.715 3.69-1.56.93-2.91 1.65-4.05 2.16-1.14.48-2.175.795-3.105.945-.93.18-1.86.27-2.79.27-3.96 0-7.275-.825-9.945-2.475-2.67-1.65-4.695-3.975-6.075-6.975-1.35-3.03-2.025-6.54-2.025-10.53 0-3.84.645-7.23 1.935-10.17 1.32-2.97 3.12-5.475 5.4-7.515a23.653 23.653 0 0 1 7.74-4.635c2.91-1.05 5.97-1.575 9.18-1.575 1.83 0 3.555.135 5.175.405 1.62.24 3.255.645 4.905 1.215 1.65.57 3.45 1.335 5.4 2.295l-8.595.855V281.63c-.42-.45-1.005-.9-1.755-1.35-.75-.48-1.605-.945-2.565-1.395-.93-.48-1.89-.93-2.88-1.35v-3.015l19.665-4.635h2.385l-.855 10.44v45.315c.33.3.735.645 1.215 1.035.51.36 1.065.735 1.665 1.125.63.36 1.245.705 1.845 1.035.63.33 1.215.615 1.755.855v2.25l-16.425 4.23h-1.755l-2.295-8.235v-20.97Zm44.117 50.895c-3.87 0-7.17-.225-9.9-.675-2.73-.45-4.95-1.095-6.66-1.935-1.68-.84-2.91-1.86-3.69-3.06-.78-1.17-1.17-2.49-1.17-3.96 0-1.17.27-2.25.81-3.24.57-.96 1.53-1.845 2.88-2.655 1.38-.78 3.255-1.485 5.625-2.115 2.4-.6 5.43-1.125 9.09-1.575l4.275-.045v.855c-3.12.36-5.52.84-7.2 1.44-1.68.63-2.835 1.38-3.465 2.25-.63.9-.945 1.92-.945 3.06 0 1.35.42 2.505 1.26 3.465.84.96 2.16 1.695 3.96 2.205 1.83.51 4.215.765 7.155.765 3 0 5.505-.285 7.515-.855 2.04-.54 3.555-1.305 4.545-2.295 1.02-.99 1.53-2.085 1.53-3.285 0-.87-.225-1.62-.675-2.25-.42-.6-1.23-1.11-2.43-1.53-1.17-.42-2.865-.765-5.085-1.035-2.22-.27-5.115-.495-8.685-.675-3.57-.21-6.495-.615-8.775-1.215-2.28-.57-4.05-1.335-5.31-2.295-1.23-.93-2.085-1.98-2.565-3.15-.48-1.2-.705-2.49-.675-3.87.06-2.67 1.17-4.83 3.33-6.48 2.16-1.65 5.46-2.715 9.9-3.195l1.17 1.62c-1.8.15-3.045.495-3.735 1.035-.69.54-1.035 1.275-1.035 2.205 0 .66.15 1.215.45 1.665.33.45.975.84 1.935 1.17.99.3 2.475.54 4.455.72 1.98.18 4.62.33 7.92.45 3.57.15 6.615.48 9.135.99 2.52.51 4.575 1.26 6.165 2.25 1.59.96 2.76 2.175 3.51 3.645.75 1.5 1.125 3.3 1.125 5.4 0 3.18-.99 5.985-2.97 8.415-1.95 2.43-4.845 4.335-8.685 5.715-3.81 1.38-8.505 2.07-14.085 2.07Zm.045-35.01c-4.11 0-7.62-.615-10.53-1.845-2.91-1.26-5.13-3.03-6.66-5.31-1.5-2.28-2.25-4.965-2.25-8.055 0-3.24.81-6 2.43-8.28 1.65-2.28 3.93-4.02 6.84-5.22 2.94-1.23 6.345-1.845 10.215-1.845 3.15 0 5.925.42 8.325 1.26 2.43.84 4.455 1.98 6.075 3.42 1.65 1.44 2.895 3.075 3.735 4.905.84 1.8 1.26 3.69 1.26 5.67 0 3.21-.81 5.97-2.43 8.28-1.62 2.28-3.9 4.02-6.84 5.22-2.91 1.2-6.3 1.8-10.17 1.8Zm.36-5.31c1.8 0 3.225-.705 4.275-2.115 1.05-1.44 1.575-3.885 1.575-7.335 0-3.84-.57-6.57-1.71-8.19-1.11-1.65-2.685-2.475-4.725-2.475-1.8 0-3.24.72-4.32 2.16-1.05 1.41-1.575 3.855-1.575 7.335 0 3.81.57 6.54 1.71 8.19 1.14 1.62 2.73 2.43 4.77 2.43Zm6.48-21.06-1.125-3.375c2.28.24 4.365.345 6.255.315 1.89-.06 3.6-.165 5.13-.315 1.56-.18 2.94-.345 4.14-.495 1.23-.18 2.31-.27 3.24-.27.96 0 1.665.27 2.115.81.48.51.72 1.44.72 2.79 0 1.89-.345 3.24-1.035 4.05-.66.81-1.425 1.215-2.295 1.215-.84 0-1.695-.255-2.565-.765-.84-.51-1.875-1.08-3.105-1.71-1.2-.66-2.715-1.215-4.545-1.665-1.83-.48-4.14-.675-6.93-.585Zm43.827-4.185c4.05 0 7.425.795 10.125 2.385 2.73 1.56 4.83 3.885 6.3 6.975 1.47 3.09 2.34 6.93 2.61 11.52h-30.96l-.045-4.815 22.905-.81-5.085 2.475c-.06-2.85-.345-5.145-.855-6.885-.51-1.74-1.26-3.015-2.25-3.825s-2.235-1.215-3.735-1.215c-1.56 0-2.91.405-4.05 1.215-1.14.78-2.025 2.13-2.655 4.05-.6 1.89-.9 4.5-.9 7.83 0 3.48.54 6.345 1.62 8.595 1.11 2.25 2.73 3.93 4.86 5.04 2.13 1.11 4.74 1.665 7.83 1.665 1.53 0 2.955-.105 4.275-.315 1.35-.21 2.655-.525 3.915-.945 1.26-.45 2.52-1.02 3.78-1.71l1.08 3.42c-2.1 1.92-4.17 3.57-6.21 4.95-2.04 1.38-4.11 2.43-6.21 3.15a18.62 18.62 0 0 1-6.39 1.125c-4.44 0-8.265-.885-11.475-2.655-3.21-1.77-5.7-4.245-7.47-7.425-1.74-3.21-2.61-6.93-2.61-11.16 0-4.32.825-8.175 2.475-11.565 1.68-3.42 4.125-6.12 7.335-8.1 3.24-1.98 7.17-2.97 11.79-2.97Z" fill="#3C4043"/><path d="M582.229 309.35h23.94v9.045h-23.94v-9.045Z" fill="#1A73E8"/></svg>