<svg width="1920" height="1080" fill="none" xmlns="http://www.w3.org/2000/svg"><mask id="a" style="mask-type:alpha" maskUnits="userSpaceOnUse" x="52" y="51" width="1818" height="979"><path fill="#C4C4C4" d="M52 51h1818v979H52z"/></mask><g mask="url(#a)"><path fill="#1A73E8" d="M794 218h54v134h-54zM794 473h24v134h-24zM794 729h14v134h-14zM944 218h54v134h-54zM913 473h24v134h-24zM903 729h14v134h-14z"/><path d="M301.38 347.104c-8.568 0-16.592-1.564-24.072-4.692-7.344-3.264-13.872-7.752-19.584-13.464-5.576-5.712-9.996-12.24-13.26-19.584-3.128-7.48-4.692-15.504-4.692-24.072s1.564-16.524 4.692-23.868c3.264-7.48 7.752-14.076 13.464-19.788 5.712-5.712 12.24-10.132 19.584-13.26 7.48-3.264 15.504-4.896 24.072-4.896s16.524 1.632 23.868 4.896c7.48 3.128 14.076 7.548 19.788 13.26s10.132 12.308 13.26 19.788c3.264 7.344 4.896 15.3 4.896 23.868 0 8.568-1.632 16.592-4.896 24.072-3.128 7.344-7.548 13.872-13.26 19.584s-12.308 10.2-19.788 13.464c-7.48 3.128-15.504 4.692-24.072 4.692Zm2.856-26.52c-6.392 0-12.24-1.7-17.544-5.1-5.304-3.4-9.52-7.82-12.648-13.26-3.128-5.44-4.692-11.152-4.692-17.136 0-6.8 1.836-12.716 5.508-17.748 3.808-5.032 8.704-8.976 14.688-11.832s12.308-4.284 18.972-4.284c2.448 0 5.168.272 8.16.816 3.128.544 5.848 1.156 8.16 1.836 1.088.272 1.836.544 2.244.816.544.136.884.748 1.02 1.836.408 1.632.612 3.74.612 6.324 0 2.448-.068 4.352-.204 5.712 0 .408-.204.952-.612 1.632-.408.544-.884.748-1.428.612-.544 0-1.02-.272-1.428-.816a11.275 11.275 0 0 1-1.02-2.244c-.544-1.496-1.292-2.788-2.244-3.876-.816-1.224-1.972-2.312-3.468-3.264-1.496-1.088-3.264-1.904-5.304-2.448-1.904-.544-4.012-.816-6.324-.816-6.936 0-12.512 2.652-16.728 7.956-4.216 5.304-6.324 11.696-6.324 19.176 0 4.896.884 9.656 2.652 14.28 1.904 4.624 4.624 8.432 8.16 11.424 3.536 2.856 7.956 4.284 13.26 4.284 3.808 0 7.276-.544 10.404-1.632 3.128-1.224 5.508-3.468 7.14-6.732.544-1.088 1.156-1.836 1.836-2.244.68-.544 1.224-.816 1.632-.816.68 0 1.02.884 1.02 2.652 0 .952-.34 2.38-1.02 4.284-.68 1.768-1.36 3.264-2.04 4.488-.816 1.224-1.292 1.904-1.428 2.04-.136 0-.816.476-2.04 1.428-2.176.952-5.032 1.632-8.568 2.04-3.4.408-6.868.612-10.404.612Zm-2.856 19.584c7.48 0 14.484-1.428 21.012-4.284 6.528-2.856 12.24-6.8 17.136-11.832 4.896-5.168 8.704-11.016 11.424-17.544 2.856-6.664 4.284-13.736 4.284-21.216 0-7.344-1.428-14.28-4.284-20.808-2.72-6.664-6.528-12.512-11.424-17.544a52.181 52.181 0 0 0-17.136-12.036c-6.528-2.992-13.464-4.488-20.808-4.488-7.344 0-14.28 1.496-20.808 4.488a52.181 52.181 0 0 0-17.136 12.036c-4.896 5.032-8.772 10.88-11.628 17.544-2.72 6.528-4.08 13.464-4.08 20.808 0 7.48 1.36 14.552 4.08 21.216 2.72 6.528 6.528 12.376 11.424 17.544a54.358 54.358 0 0 0 16.932 11.832c6.528 2.856 13.532 4.284 21.012 4.284Zm191.604 12.444c-.952 0-2.448-.068-4.488-.204-2.04-.136-4.352-.272-6.936-.408-2.584-.136-5.304-.272-8.16-.408a159.38 159.38 0 0 0-7.956-.204c-2.584 0-6.256.068-11.016.204-4.76.136-9.792.272-15.096.408-5.168 0-9.724.068-13.668.204-3.944.136-6.46.204-7.548.204-.544 0-1.36-.408-2.448-1.224-1.088-.952-1.632-1.7-1.632-2.244 0-.68.136-1.156.408-1.428l1.224-1.224 34.884-36.108a100.26 100.26 0 0 0 16.932-23.664c4.488-8.84 6.732-17.748 6.732-26.724 0-7.208-2.176-12.852-6.528-16.932-4.352-4.216-9.452-6.324-15.3-6.324-5.576 0-10.744 1.564-15.504 4.692-4.76 2.992-8.568 6.936-11.424 11.832a6.021 6.021 0 0 1-1.632 2.04c-.544.544-1.156.816-1.836.816-.544 0-1.224-.544-2.04-1.632-.68-1.224-1.02-2.72-1.02-4.488 0-1.632.952-3.876 2.856-6.732 2.04-2.856 4.828-5.78 8.364-8.772 3.536-2.992 7.752-5.508 12.648-7.548 4.896-2.176 10.2-3.264 15.912-3.264 6.8 0 12.648 1.428 17.544 4.284 4.896 2.856 8.636 6.8 11.22 11.832 2.584 5.032 3.876 10.88 3.876 17.544 0 3.672-.68 7.616-2.04 11.832-1.224 4.216-2.992 8.364-5.304 12.444a72.222 72.222 0 0 1-7.548 11.424c-1.768 2.176-4.42 5.1-7.956 8.772-3.4 3.536-7.14 7.344-11.22 11.424a963.257 963.257 0 0 1-11.424 11.628c-3.536 3.536-6.46 6.528-8.772 8.976-2.312 2.312-3.468 3.604-3.468 3.876 0 .68.952 1.156 2.856 1.428 2.312.136 4.896.272 7.752.408 2.992.136 6.392.204 10.2.204 3.944 0 7.888-.068 11.832-.204 3.944-.136 7.752-.272 11.424-.408 3.944-.272 7.004-.612 9.18-1.02 2.176-.408 4.012-1.224 5.508-2.448 1.496-1.36 3.06-3.4 4.692-6.12a64.516 64.516 0 0 1 2.04-2.856c.952-1.224 1.972-1.836 3.06-1.836.68 0 1.088.272 1.224.816.136.544.204 1.088.204 1.632 0 .68-.408 2.04-1.224 4.08a365.49 365.49 0 0 0-2.448 7.14c-.952 2.856-1.768 5.984-2.448 9.384-.408 2.176-1.088 3.536-2.04 4.08s-1.768.816-2.448.816Zm62.519 2.244c-6.936 0-12.988-1.904-18.156-5.712-5.032-3.808-9.248-8.84-12.648-15.096-3.4-6.392-5.916-13.396-7.548-21.012-1.632-7.616-2.448-15.164-2.448-22.644 0-7.752.816-15.572 2.448-23.46 1.632-7.888 4.148-15.096 7.548-21.624 3.536-6.528 8.024-11.764 13.464-15.708 5.44-4.08 11.9-6.12 19.38-6.12 6.936 0 12.92 1.904 17.952 5.712 5.168 3.808 9.452 8.908 12.852 15.3 3.4 6.256 5.916 13.192 7.548 20.808 1.632 7.48 2.448 14.892 2.448 22.236 0 7.616-.816 15.368-2.448 23.256-1.632 7.888-4.216 15.164-7.752 21.828-3.4 6.664-7.82 12.036-13.26 16.116-5.304 4.08-11.764 6.12-19.38 6.12Zm3.468-5.304c5.44 0 9.792-2.72 13.056-8.16 3.4-5.576 5.848-12.784 7.344-21.624 1.496-8.84 2.244-18.36 2.244-28.56 0-7.616-.612-15.096-1.836-22.44-1.088-7.344-2.856-14.008-5.304-19.992-2.312-5.984-5.236-10.744-8.772-14.28-3.4-3.536-7.412-5.304-12.036-5.304-5.44 0-9.792 2.652-13.056 7.956-3.128 5.304-5.44 12.376-6.936 21.216-1.36 8.704-2.04 18.156-2.04 28.356 0 7.616.544 15.164 1.632 22.644 1.224 7.48 2.924 14.28 5.1 20.4 2.312 5.984 5.168 10.812 8.568 14.484 3.4 3.536 7.412 5.304 12.036 5.304Zm94.548 5.304c-6.936 0-12.988-1.904-18.156-5.712-5.032-3.808-9.248-8.84-12.648-15.096-3.4-6.392-5.916-13.396-7.548-21.012-1.632-7.616-2.448-15.164-2.448-22.644 0-7.752.816-15.572 2.448-23.46 1.632-7.888 4.148-15.096 7.548-21.624 3.536-6.528 8.024-11.764 13.464-15.708 5.44-4.08 11.9-6.12 19.38-6.12 6.936 0 12.92 1.904 17.952 5.712 5.168 3.808 9.452 8.908 12.852 15.3 3.4 6.256 5.916 13.192 7.548 20.808 1.632 7.48 2.448 14.892 2.448 22.236 0 7.616-.816 15.368-2.448 23.256-1.632 7.888-4.216 15.164-7.752 21.828-3.4 6.664-7.82 12.036-13.26 16.116-5.304 4.08-11.764 6.12-19.38 6.12Zm3.468-5.304c5.44 0 9.792-2.72 13.056-8.16 3.4-5.576 5.848-12.784 7.344-21.624 1.496-8.84 2.244-18.36 2.244-28.56 0-7.616-.612-15.096-1.836-22.44-1.088-7.344-2.856-14.008-5.304-19.992-2.312-5.984-5.236-10.744-8.772-14.28-3.4-3.536-7.412-5.304-12.036-5.304-5.44 0-9.792 2.652-13.056 7.956-3.128 5.304-5.44 12.376-6.936 21.216-1.36 8.704-2.04 18.156-2.04 28.356 0 7.616.544 15.164 1.632 22.644 1.224 7.48 2.924 14.28 5.1 20.4 2.312 5.984 5.168 10.812 8.568 14.484 3.4 3.536 7.412 5.304 12.036 5.304Zm66.804 10.2c-1.496 0-3.128-.204-4.896-.612-1.768-.272-2.652-.884-2.652-1.836 0-1.088.884-2.04 2.652-2.856 1.904-.68 3.468-1.02 4.692-1.02 10.744 0 19.584-1.904 26.52-5.712 7.072-3.944 12.308-8.84 15.708-14.688 3.536-5.848 5.304-11.696 5.304-17.544 0-5.304-1.564-9.996-4.692-14.076s-8.296-7.82-15.504-11.22c-7.072-3.4-16.66-6.664-28.764-9.792-1.768-1.496-3.06-2.992-3.876-4.488-.68-1.496-1.02-3.128-1.02-4.896 0-1.904.34-4.216 1.02-6.936.816-2.72 1.768-5.576 2.856-8.568a694.434 694.434 0 0 1 3.264-9.18c1.088-2.992 1.972-5.576 2.652-7.752.68-2.04 1.7-3.604 3.06-4.692 1.36-1.224 3.128-2.108 5.304-2.652a197.81 197.81 0 0 1 9.588-2.244c3.264-.68 6.664-1.292 10.2-1.836 3.536-.68 7.14-1.224 10.812-1.632 3.808-.544 7.684-1.02 11.628-1.428 1.088-.136 1.836.204 2.244 1.02.544.68.544 1.496 0 2.448a90.642 90.642 0 0 1-1.836 3.468l-1.632 3.264c-.952 2.04-2.04 3.604-3.264 4.692-1.088.952-2.516 1.564-4.284 1.836-2.584.272-5.576.612-8.976 1.02-3.4.272-6.8.612-10.2 1.02-3.4.272-6.528.544-9.384.816-2.856.272-5.032.544-6.528.816-.952.136-2.108 1.36-3.468 3.672-1.36 2.176-2.584 4.556-3.672 7.14-1.088 2.448-1.7 4.216-1.836 5.304-.136.952-.068 1.768.204 2.448.408.68 1.224 1.156 2.448 1.428 7.616 2.176 14.552 4.42 20.808 6.732 6.256 2.176 11.696 4.488 16.32 6.936 7.616 3.944 13.26 8.636 16.932 14.076 3.808 5.304 5.712 12.104 5.712 20.4 0 7.48-2.244 14.484-6.732 21.012-4.488 6.528-10.54 11.968-18.156 16.32a68.463 68.463 0 0 1-11.628 5.1c-4.08 1.496-8.364 2.652-12.852 3.468-4.488.816-9.18 1.224-14.076 1.224Zm129.675-45.492c-.68 0-1.36-.272-2.04-.816-.544-.544-.816-1.088-.816-1.632 0-.68.136-1.7.408-3.06.272-1.36.748-2.584 1.428-3.672.816-1.224 1.836-1.836 3.06-1.836h84.252c.68 0 1.292.272 1.836.816.544.408.816.952.816 1.632 0 2.04-.68 4.012-2.04 5.916-1.224 1.768-2.652 2.652-4.284 2.652h-82.62Zm225.424 38.352c-.96 0-2.45-.068-4.49-.204-2.04-.136-4.35-.272-6.94-.408-2.58-.136-5.3-.272-8.16-.408-2.72-.136-5.37-.204-7.95-.204-2.59 0-6.26.068-11.02.204-4.76.136-9.79.272-15.1.408-5.16 0-9.72.068-13.66.204-3.95.136-6.46.204-7.55.204-.55 0-1.36-.408-2.45-1.224-1.09-.952-1.632-1.7-1.632-2.244 0-.68.132-1.156.412-1.428.27-.272.68-.68 1.22-1.224l34.88-36.108c6.8-7.072 12.45-14.96 16.94-23.664 4.48-8.84 6.73-17.748 6.73-26.724 0-7.208-2.18-12.852-6.53-16.932-4.35-4.216-9.45-6.324-15.3-6.324-5.58 0-10.74 1.564-15.5 4.692-4.76 2.992-8.57 6.936-11.43 11.832a6.04 6.04 0 0 1-1.63 2.04c-.54.544-1.16.816-1.84.816-.54 0-1.22-.544-2.04-1.632-.68-1.224-1.02-2.72-1.02-4.488 0-1.632.96-3.876 2.86-6.732 2.04-2.856 4.83-5.78 8.36-8.772 3.54-2.992 7.76-5.508 12.65-7.548 4.9-2.176 10.2-3.264 15.91-3.264 6.8 0 12.65 1.428 17.55 4.284 4.89 2.856 8.63 6.8 11.22 11.832 2.58 5.032 3.87 10.88 3.87 17.544 0 3.672-.68 7.616-2.04 11.832-1.22 4.216-2.99 8.364-5.3 12.444a72.233 72.233 0 0 1-7.55 11.424c-1.77 2.176-4.42 5.1-7.95 8.772-3.4 3.536-7.14 7.344-11.22 11.424-3.95 4.08-7.76 7.956-11.43 11.628-3.53 3.536-6.46 6.528-8.77 8.976-2.31 2.312-3.47 3.604-3.47 3.876 0 .68.95 1.156 2.86 1.428 2.31.136 4.89.272 7.75.408 2.99.136 6.39.204 10.2.204 3.94 0 7.89-.068 11.83-.204 3.95-.136 7.75-.272 11.43-.408 3.94-.272 7-.612 9.18-1.02 2.17-.408 4.01-1.224 5.5-2.448 1.5-1.36 3.06-3.4 4.7-6.12.54-.816 1.22-1.768 2.04-2.856.95-1.224 1.97-1.836 3.06-1.836.68 0 1.08.272 1.22.816.14.544.2 1.088.2 1.632 0 .68-.4 2.04-1.22 4.08-.68 1.904-1.5 4.284-2.45 7.14-.95 2.856-1.77 5.984-2.45 9.384-.4 2.176-1.08 3.536-2.04 4.08-.95.544-1.76.816-2.44.816Zm62.52 2.244c-6.94 0-12.99-1.904-18.16-5.712-5.03-3.808-9.25-8.84-12.65-15.096-3.4-6.392-5.91-13.396-7.55-21.012-1.63-7.616-2.44-15.164-2.44-22.644 0-7.752.81-15.572 2.44-23.46 1.64-7.888 4.15-15.096 7.55-21.624 3.54-6.528 8.03-11.764 13.47-15.708 5.44-4.08 11.9-6.12 19.38-6.12 6.93 0 12.92 1.904 17.95 5.712 5.17 3.808 9.45 8.908 12.85 15.3 3.4 6.256 5.92 13.192 7.55 20.808 1.63 7.48 2.45 14.892 2.45 22.236 0 7.616-.82 15.368-2.45 23.256-1.63 7.888-4.22 15.164-7.75 21.828-3.4 6.664-7.82 12.036-13.26 16.116-5.31 4.08-11.77 6.12-19.38 6.12Zm3.46-5.304c5.44 0 9.8-2.72 13.06-8.16 3.4-5.576 5.85-12.784 7.34-21.624 1.5-8.84 2.25-18.36 2.25-28.56 0-7.616-.61-15.096-1.84-22.44-1.09-7.344-2.85-14.008-5.3-19.992-2.31-5.984-5.24-10.744-8.77-14.28-3.4-3.536-7.42-5.304-12.04-5.304-5.44 0-9.79 2.652-13.06 7.956-3.12 5.304-5.44 12.376-6.93 21.216-1.36 8.704-2.04 18.156-2.04 28.356 0 7.616.54 15.164 1.63 22.644 1.22 7.48 2.92 14.28 5.1 20.4 2.31 5.984 5.17 10.812 8.57 14.484 3.4 3.536 7.41 5.304 12.03 5.304Zm130.05 3.06c-.95 0-2.45-.068-4.49-.204-2.04-.136-4.35-.272-6.94-.408-2.58-.136-5.3-.272-8.16-.408-2.72-.136-5.37-.204-7.95-.204-2.59 0-6.26.068-11.02.204-4.76.136-9.79.272-15.09.408-5.17 0-9.73.068-13.67.204-3.95.136-6.46.204-7.55.204-.54 0-1.36-.408-2.45-1.224-1.09-.952-1.63-1.7-1.63-2.244 0-.68.14-1.156.41-1.428.27-.272.68-.68 1.22-1.224l34.89-36.108c6.8-7.072 12.44-14.96 16.93-23.664 4.49-8.84 6.73-17.748 6.73-26.724 0-7.208-2.18-12.852-6.53-16.932-4.35-4.216-9.45-6.324-15.3-6.324-5.57 0-10.74 1.564-15.5 4.692-4.76 2.992-8.57 6.936-11.43 11.832-.4.816-.95 1.496-1.63 2.04-.54.544-1.15.816-1.83.816-.55 0-1.23-.544-2.04-1.632-.68-1.224-1.02-2.72-1.02-4.488 0-1.632.95-3.876 2.85-6.732 2.04-2.856 4.83-5.78 8.37-8.772 3.53-2.992 7.75-5.508 12.64-7.548 4.9-2.176 10.2-3.264 15.92-3.264 6.8 0 12.64 1.428 17.54 4.284 4.9 2.856 8.64 6.8 11.22 11.832 2.58 5.032 3.88 10.88 3.88 17.544 0 3.672-.68 7.616-2.04 11.832-1.23 4.216-3 8.364-5.31 12.444a71.548 71.548 0 0 1-7.55 11.424c-1.76 2.176-4.42 5.1-7.95 8.772-3.4 3.536-7.14 7.344-11.22 11.424-3.95 4.08-7.75 7.956-11.43 11.628-3.53 3.536-6.46 6.528-8.77 8.976-2.31 2.312-3.47 3.604-3.47 3.876 0 .68.96 1.156 2.86 1.428 2.31.136 4.9.272 7.75.408 2.99.136 6.39.204 10.2.204 3.95 0 7.89-.068 11.83-.204 3.95-.136 7.76-.272 11.43-.408 3.94-.272 7-.612 9.18-1.02 2.17-.408 4.01-1.224 5.51-2.448 1.49-1.36 3.06-3.4 4.69-6.12.54-.816 1.22-1.768 2.04-2.856.95-1.224 1.97-1.836 3.06-1.836.68 0 1.09.272 1.22.816.14.544.21 1.088.21 1.632 0 .68-.41 2.04-1.23 4.08-.68 1.904-1.49 4.284-2.45 7.14-.95 2.856-1.76 5.984-2.44 9.384-.41 2.176-1.09 3.536-2.04 4.08-.96.544-1.77.816-2.45.816Zm34.37 0c-.96 0-1.7-.272-2.25-.816-.54-.544-.81-1.088-.81-1.632 0-1.224 1.02-2.108 3.06-2.652 5.16-1.36 9.38-2.584 12.64-3.672 3.4-1.224 5.85-2.856 7.35-4.896 1.63-2.176 2.45-5.236 2.45-9.18v-77.928c0-2.584-.82-4.556-2.45-5.916-1.63-1.36-3.74-2.312-6.33-2.856-2.58-.544-5.37-.884-8.36-1.02-1.36-.136-2.58-.476-3.67-1.02-1.09-.544-1.63-1.36-1.63-2.448 0-.952.47-1.768 1.42-2.448 1.09-.68 2.32-1.088 3.68-1.224 6.12-.952 11.56-2.108 16.32-3.468 4.89-1.496 9.65-4.556 14.28-9.18.13-.136.27-.204.4-.204h.62c.68 0 1.29.204 1.83.612.55.272.75.68.61 1.224-.27 2.04-.47 4.284-.61 6.732-.13 2.312-.2 4.896-.2 7.752v93.84c0 3.4.61 5.984 1.83 7.752 1.36 1.768 3.61 3.196 6.74 4.284 3.12.952 7.48 2.108 13.05 3.468.82.136 1.57.476 2.25 1.02.81.408 1.22.952 1.22 1.632 0 1.496-.95 2.244-2.86 2.244-3.8 0-7.34-.136-10.6-.408l-9.39-.408a221.54 221.54 0 0 0-9.99-.204c-3.68 0-7.14.068-10.41.204l-9.79.408c-3.26.272-6.73.408-10.4.408Zm99.64 2.244c-2.99 0-5.64-1.088-7.95-3.264-2.18-2.312-3.27-4.964-3.27-7.956 0-3.128 1.09-5.78 3.27-7.956 2.31-2.176 4.96-3.264 7.95-3.264 3.13 0 5.78 1.088 7.96 3.264 2.17 2.176 3.26 4.828 3.26 7.956 0 2.992-1.09 5.644-3.26 7.956-2.18 2.176-4.83 3.264-7.96 3.264Zm69.91-1.836c-1.77 0-3.2-.272-4.29-.816-1.09-.408-1.63-1.02-1.63-1.836 0-.952.54-1.768 1.63-2.448 1.23-.816 2.93-1.564 5.1-2.244 3.54-1.088 6.8-2.72 9.79-4.896 3-2.176 5.58-5.78 7.76-10.812 3.8-8.704 7.27-16.864 10.4-24.48a733.168 733.168 0 0 0 9.18-22.44c2.86-7.344 5.78-14.96 8.77-22.848 3.13-8.024 6.39-16.728 9.79-26.112.68-1.904 1.3-3.808 1.84-5.712s.88-3.944 1.02-6.12c1.22-.408 2.45-.816 3.67-1.224 1.23-.408 2.45-1.02 3.67-1.836 1.23-.816 2.04-2.04 2.45-3.672.55-1.632 1.02-2.72 1.43-3.264.14-.136.27-.204.41-.204.27 0 .47.136.61.408.27.544.48 1.224.61 2.04.27.816.55 1.632.82 2.448 3.26 10.336 6.66 20.876 10.2 31.62 3.53 10.744 6.93 21.148 10.2 31.212 3.4 9.928 6.46 18.904 9.18 26.928 2.85 7.888 5.1 14.28 6.73 19.176 1.9 5.44 3.94 9.52 6.12 12.24 2.18 2.72 4.42 4.624 6.73 5.712a36.803 36.803 0 0 0 7.75 2.448c2.32.408 4.02 1.088 5.1 2.04 1.09.816 1.64 1.7 1.64 2.652 0 .816-.55 1.36-1.64 1.632-1.08.272-2.51.408-4.28.408-1.9 0-4.49-.136-7.75-.408-3.27-.136-6.73-.34-10.41-.612-3.67-.136-7.07-.204-10.2-.204h-7.95c-2.72 0-5.24.068-7.55.204h-5.92c-1.76 0-3.19-.204-4.28-.612-1.09-.408-1.63-1.02-1.63-1.836 0-.952.68-1.768 2.04-2.448 1.36-.68 2.92-1.156 4.69-1.428 4.49-.68 7.68-1.836 9.59-3.468 1.9-1.632 2.85-3.536 2.85-5.712 0-2.04-.47-4.964-1.42-8.772-.82-3.944-1.84-8.092-3.06-12.444-1.23-4.488-2.38-8.432-3.47-11.832-.27-1.088-.82-1.7-1.63-1.836-.68-.272-1.98-.408-3.88-.408h-38.56c-.54 0-1.15.272-1.83.816-.55.408-1.09 1.36-1.63 2.856-.41 1.36-1.09 3.536-2.04 6.528-.96 2.856-1.91 5.916-2.86 9.18-.95 3.264-1.77 6.188-2.45 8.772-.68 2.584-1.02 4.216-1.02 4.896 0 2.992 1.16 5.508 3.47 7.548 2.31 1.904 5.1 3.264 8.36 4.08 4.49 1.224 6.74 2.584 6.74 4.08 0 .816-.55 1.428-1.64 1.836-1.08.272-2.51.408-4.28.408-1.77 0-4.35-.068-7.75-.204-3.4-.136-7.01-.204-10.81-.204-4.49 0-8.84.204-13.06.612-4.22.408-8.02.612-11.42.612Zm47.73-58.548h31.62c1.91 0 2.86-.34 2.86-1.02 0-.272-.07-.544-.21-.816 0-.408-.06-.816-.2-1.224l-15.91-49.776c-.82-2.448-1.43-3.672-1.84-3.672-.27 0-.81 1.156-1.63 3.468l-18.56 49.98c-.28.816-.41 1.36-.41 1.632 0 .68.34 1.088 1.02 1.224.81.136 1.9.204 3.26.204Zm95.96 58.14c-.68 0-1.56-.136-2.65-.408-.95-.136-1.43-.612-1.43-1.428 0-1.088.48-1.836 1.43-2.244 1.09-.544 2.17-1.02 3.26-1.428 2.04-.68 4.01-1.428 5.92-2.244 1.9-.952 2.85-2.788 2.85-5.508V236.536c0-3.944-.74-7.208-2.24-9.792-1.36-2.72-3.74-4.42-7.14-5.1-1.09-.272-1.63-1.156-1.63-2.652 0-1.36.47-2.176 1.43-2.448 3.53-.816 6.59-1.632 9.18-2.448 2.58-.952 4.96-1.904 7.14-2.856 2.31-.952 4.55-1.836 6.73-2.652.54-.272.95-.408 1.22-.408s.48.204.61.612c.28.272.41.544.41.816 0 1.224-.27 3.876-.81 7.956-.41 3.944-.62 10.54-.62 19.788v102c0 2.72.96 4.556 2.86 5.508 1.9.816 3.88 1.564 5.92 2.244 1.08.408 2.1.884 3.06 1.428 1.08.408 1.63 1.156 1.63 2.244 0 .816-.55 1.292-1.63 1.428-.96.272-1.77.408-2.45.408-2.59 0-4.69-.136-6.33-.408l-4.48-.408c-1.36-.136-3.27-.204-5.72-.204-2.31 0-4.21.068-5.71.204l-4.49.408c-1.49.272-3.6.408-6.32.408Zm49.01 0c-.68 0-1.57-.136-2.65-.408-.96-.136-1.43-.612-1.43-1.428 0-1.088.47-1.836 1.43-2.244 1.08-.544 2.17-1.02 3.26-1.428 2.04-.68 4.01-1.428 5.92-2.244 1.9-.952 2.85-2.788 2.85-5.508V236.536c0-3.944-.75-7.208-2.24-9.792-1.36-2.72-3.74-4.42-7.14-5.1-1.09-.272-1.63-1.156-1.63-2.652 0-1.36.47-2.176 1.42-2.448 3.54-.816 6.6-1.632 9.18-2.448a126.22 126.22 0 0 0 7.14-2.856c2.32-.952 4.56-1.836 6.74-2.652.54-.272.95-.408 1.22-.408s.48.204.61.612c.27.272.41.544.41.816 0 1.224-.27 3.876-.82 7.956-.4 3.944-.61 10.54-.61 19.788v102c0 2.72.95 4.556 2.86 5.508 1.9.816 3.87 1.564 5.91 2.244 1.09.408 2.11.884 3.06 1.428 1.09.408 1.64 1.156 1.64 2.244 0 .816-.55 1.292-1.64 1.428-.95.272-1.76.408-2.44.408-2.59 0-4.7-.136-6.33-.408l-4.49-.408c-1.36-.136-3.26-.204-5.71-.204-2.31 0-4.21.068-5.71.204l-4.49.408c-1.49.272-3.6.408-6.32.408Zm91.89 0c-1.36 0-2.38-.204-3.06-.612-.68-.272-1.02-.816-1.02-1.632 0-1.088.4-1.768 1.22-2.04.82-.408 1.97-.816 3.47-1.224 2.58-.68 4.49-1.632 5.71-2.856 1.36-1.36 2.04-2.992 2.04-4.896v-43.86c0-3.672-.54-6.868-1.63-9.588-1.09-2.72-3.33-4.42-6.73-5.1-.55-.136-1.02-.476-1.43-1.02-.41-.544-.61-1.088-.61-1.632 0-1.36.61-2.176 1.83-2.448 3.54-1.088 7.21-2.652 11.02-4.692 3.94-2.176 7-3.944 9.18-5.304.81-.544 1.43-.884 1.83-1.02.55-.272.96-.408 1.23-.408.68 0 1.02.476 1.02 1.428 0 .408-.07 1.428-.21 3.06 0 1.632-.06 3.536-.2 5.712 0 2.176-.07 4.352-.2 6.528 0 .272.13.408.4.408 2.18-2.72 4.56-5.1 7.14-7.14 2.72-2.04 5.44-3.672 8.16-4.896 2.86-1.224 5.58-1.836 8.16-1.836 2.86 0 5.17.612 6.94 1.836 1.9 1.224 2.86 2.788 2.86 4.692 0 1.36-.41 2.856-1.23 4.488a13.189 13.189 0 0 1-2.85 4.284c-1.23 1.224-2.52 1.836-3.88 1.836-.82 0-1.7-.136-2.65-.408-.95-.408-1.97-.884-3.06-1.428l-3.27-1.224a9.177 9.177 0 0 0-3.26-.612c-3.26 0-6.46 1.156-9.59 3.468-2.99 2.312-4.49 6.868-4.49 13.668v41.208c0 1.768.96 3.264 2.86 4.488 1.9 1.088 4.56 2.176 7.96 3.264 1.49.408 2.65.816 3.46 1.224.82.408 1.23 1.088 1.23 2.04 0 1.496-1.36 2.244-4.08 2.244-4.08 0-7.21-.204-9.39-.612-2.04-.272-4.82-.408-8.36-.408-2.31 0-4.22.068-5.71.204-1.36.136-2.86.272-4.49.408-1.5.272-3.6.408-6.32.408Zm67.11 0c-1.23 0-2.25-.204-3.06-.612-.68-.272-1.02-.816-1.02-1.632 0-1.088.47-1.836 1.43-2.244 1.08-.408 2.17-.748 3.26-1.02 2.86-.68 5.03-1.496 6.53-2.448 1.49-1.088 2.24-2.856 2.24-5.304v-44.268c0-3.672-.68-6.936-2.04-9.792-1.22-2.856-3.6-4.556-7.14-5.1-.68-.136-1.22-.408-1.63-.816-.27-.408-.41-1.02-.41-1.836 0-1.496.61-2.312 1.84-2.448 5.44-1.224 9.93-2.856 13.46-4.896 3.54-2.176 6.19-3.944 7.96-5.304 1.22-.952 2.17-1.428 2.85-1.428.82 0 1.23.34 1.23 1.02 0 1.088-.21 3.264-.61 6.528-.28 3.128-.55 6.664-.82 10.608-.27 3.808-.41 7.276-.41 10.404v47.328c0 2.312.75 4.012 2.25 5.1 1.63 1.088 3.8 1.972 6.52 2.652 1.09.272 2.11.612 3.06 1.02 1.09.408 1.64 1.156 1.64 2.244 0 1.496-1.36 2.244-4.08 2.244-2.59 0-4.7-.136-6.33-.408l-4.49-.408c-1.36-.136-3.26-.204-5.71-.204-2.31 0-4.21.068-5.71.204l-4.49.408c-1.49.272-3.6.408-6.32.408Zm16.32-105.876c-2.86 0-5.31-.952-7.35-2.856-1.9-2.04-2.85-4.488-2.85-7.344 0-2.992.95-5.44 2.85-7.344 2.04-2.04 4.49-3.06 7.35-3.06 2.99 0 5.44 1.02 7.34 3.06 2.04 1.904 3.06 4.352 3.06 7.344 0 2.856-1.02 5.304-3.06 7.344-1.9 1.904-4.35 2.856-7.34 2.856Zm64.49 164.424c-11.56 0-20.74-2.244-27.54-6.732-6.67-4.352-10-10.268-10-17.748 0-3.536.54-6.528 1.63-8.976 1.09-2.448 2.79-4.556 5.1-6.324 1.91-1.632 4.42-3.74 7.55-6.324 3.26-2.448 6.6-5.032 10-7.752l8.56.408c-6.52 4.216-11.08 8.228-13.66 12.036-2.59 3.808-3.88 8.432-3.88 13.872 0 5.44 2.38 9.996 7.14 13.668 4.9 3.808 10.88 5.712 17.95 5.712 8.03 0 14.49-1.836 19.38-5.508 3.4-2.584 6.05-5.984 7.96-10.2 1.9-4.08 2.85-8.432 2.85-13.056 0-2.992-1.08-5.508-3.26-7.548-2.04-1.904-5.3-3.468-9.79-4.692-4.49-1.224-10.34-2.04-17.55-2.448-12.78-.952-21.69-2.652-26.72-5.1-4.9-2.448-7.34-6.256-7.34-11.424 0-1.36.34-2.584 1.02-3.672.81-1.224 2.04-2.516 3.67-3.876 3.13-2.448 5.44-4.216 6.93-5.304 1.5-1.224 2.59-2.244 3.27-3.06.81-.816 1.56-1.836 2.24-3.06l6.94 3.468c-2.99 1.088-5.51 2.584-7.55 4.488-2.04 1.768-3.06 3.4-3.06 4.896 0 1.904 1.02 3.604 3.06 5.1 2.04 1.36 5.03 2.448 8.98 3.264 3.94.816 8.77 1.428 14.48 1.836 12.51.68 21.83 2.72 27.95 6.12 6.12 3.4 9.18 8.228 9.18 14.484 0 5.304-1.36 10.472-4.08 15.504-2.59 5.168-6.05 9.86-10.41 14.076-4.35 4.216-9.24 7.548-14.68 9.996-5.31 2.584-10.75 3.876-16.32 3.876Zm2.44-87.924c5.17 0 9.46-2.584 12.86-7.752 3.4-5.304 5.1-11.832 5.1-19.584 0-3.944-.96-7.616-2.86-11.016-1.77-3.536-4.15-6.324-7.14-8.364-2.86-2.176-5.98-3.264-9.38-3.264-3.13 0-6.12 1.156-8.98 3.468-2.72 2.176-4.96 5.032-6.73 8.568-1.63 3.536-2.45 7.412-2.45 11.628 0 4.76.88 9.18 2.65 13.26 1.77 3.944 4.15 7.14 7.14 9.588 2.99 2.312 6.26 3.468 9.79 3.468Zm-1.22 7.14c-5.58 0-10.88-1.428-15.91-4.284-5.03-2.856-9.18-6.596-12.45-11.22-3.12-4.76-4.69-9.928-4.69-15.504 0-6.392 1.63-11.968 4.9-16.728 3.4-4.896 7.82-8.704 13.26-11.424 5.44-2.72 11.22-4.08 17.34-4.08 3.94 0 7.34.544 10.2 1.632 2.99.952 5.91 1.836 8.77 2.652 3.26.952 5.85 1.564 7.75 1.836 1.91.136 3.88.204 5.92.204 1.63 0 3.67-.068 6.12-.204 2.45-.272 4.15-.408 5.1-.408 1.77 0 2.65 1.02 2.65 3.06 0 1.224-.68 2.516-2.04 3.876-.68.68-1.22 1.02-1.63 1.02h-5.51c-3.67 0-5.71.544-6.12 1.632-.14.544-.34 1.36-.61 2.448-.14.952-.27 2.04-.41 3.264-.14 1.224-.2 2.448-.2 3.672 0 6.936-1.5 13.328-4.49 19.176-2.99 5.848-6.94 10.54-11.83 14.076-4.9 3.536-10.27 5.304-16.12 5.304Zm55.6 22.236c-2.72 0-4.08-.748-4.08-2.244 0-1.224 1.57-2.312 4.7-3.264a27.4 27.4 0 0 0 5.71-2.652c1.9-1.088 2.92-2.992 3.06-5.712V236.536c0-3.672-.61-6.868-1.84-9.588-1.22-2.856-3.6-4.556-7.14-5.1-1.22-.272-1.83-1.224-1.83-2.856 0-1.224.54-2.04 1.63-2.448 1.9-.68 4.15-1.428 6.73-2.244 2.72-.816 5.51-1.7 8.36-2.652 2.86-1.088 5.38-2.108 7.55-3.06.55-.272.95-.408 1.23-.408.4 0 .74.136 1.02.408.27.272.4.612.4 1.02 0 .816-.2 1.972-.61 3.468-.27 1.496-.54 4.08-.81 7.752-.28 3.672-.41 9.18-.41 16.524v35.496c0 2.176.07 3.74.2 4.692.27.952.68 1.904 1.23 2.856 2.17-1.632 4.82-3.4 7.95-5.304 3.27-2.04 6.87-3.808 10.81-5.304a34.28 34.28 0 0 1 12.24-2.244c6.67 0 12.18 2.652 16.53 7.956 4.49 5.168 6.73 11.764 6.73 19.788v42.84c0 2.72.88 4.76 2.65 6.12a22.486 22.486 0 0 0 5.71 2.856c1.5.408 2.66.884 3.47 1.428.82.408 1.23 1.02 1.23 1.836 0 1.496-1.36 2.244-4.08 2.244-2.72 0-4.83-.136-6.33-.408l-4.08-.408c-1.22-.136-3.06-.204-5.51-.204-2.31 0-4.14.068-5.5.204-1.36.136-2.79.272-4.29.408-1.36.272-3.4.408-6.12.408s-4.08-.748-4.08-2.244c0-.952.41-1.564 1.23-1.836.81-.408 1.97-.884 3.46-1.428 2.04-.68 3.88-1.632 5.51-2.856 1.63-1.36 2.45-3.4 2.45-6.12v-41.616c0-3.4-1.02-6.46-3.06-9.18-1.9-2.856-4.28-5.1-7.14-6.732-2.86-1.632-5.78-2.448-8.77-2.448-2.59 0-5.58.408-8.98 1.224-3.4.68-6.05 1.768-7.95 3.264-2.18 1.768-3.68 3.604-4.49 5.508-.68 1.904-1.02 4.964-1.02 9.18v41.412c.13 2.72.95 4.624 2.45 5.712 1.63 1.088 3.46 1.972 5.5 2.652 1.5.408 2.59.884 3.27 1.428.81.408 1.22 1.02 1.22 1.836 0 1.496-1.36 2.244-4.08 2.244-2.72 0-4.76-.136-6.12-.408-1.36-.136-2.65-.272-3.87-.408-1.23-.136-3.06-.204-5.51-.204-2.31 0-4.22.068-5.71.204-1.36.136-2.86.272-4.49.408-1.5.272-3.61.408-6.33.408Zm135.59 2.244c-6.66 0-11.9-2.04-15.7-6.12-3.68-4.08-5.51-10.132-5.51-18.156v-47.328c0-1.088-.41-1.836-1.23-2.244-.81-.544-2.58-.816-5.3-.816h-1.22c-.68 0-1.3-.408-1.84-1.224a7.162 7.162 0 0 1-.61-2.856c0-.272.2-.68.61-1.224.41-.544.68-.884.82-1.02 2.72-1.904 5.16-3.808 7.34-5.712 2.31-1.904 4.35-3.74 6.12-5.508 1.9-1.904 3.47-3.604 4.69-5.1.68-.68 1.23-1.224 1.63-1.632.55-.544 1.16-.816 1.84-.816.68 0 1.29.136 1.84.408.68.272.95.884.81 1.836l-1.02 9.18c-.13 1.496.21 2.516 1.02 3.06.82.544 2.11.816 3.88.816h23.25c.55 0 1.02.476 1.43 1.428.41.816.61 1.836.61 3.06s-.2 2.448-.61 3.672c-.41 1.088-.88 1.632-1.43 1.632h-20.19c-3.4 0-5.65.272-6.73.816-.96.544-1.43 2.176-1.43 4.896v40.188c0 5.44 1.15 9.724 3.47 12.852 2.31 3.128 5.64 4.692 9.99 4.692 3.95 0 7.01-.272 9.18-.816 2.18-.68 4.15-1.632 5.92-2.856.27-.272.54-.408.81-.408.55 0 .89.34 1.02 1.02.28.544.41 1.156.41 1.836 0 .68-1.15 2.04-3.47 4.08-2.17 2.04-5.1 3.944-8.77 5.712-3.53 1.768-7.41 2.652-11.63 2.652Zm54.97 0c-4.21 0-8.16-.68-11.83-2.04-3.67-1.224-6.8-2.992-9.38-5.304-.68-1.496-1.23-4.012-1.64-7.548-.27-3.536-.47-6.46-.61-8.772 0-1.224.89-1.836 2.65-1.836.55 0 1.02.136 1.43.408.55.136.89.476 1.02 1.02 1.77 6.664 4.56 11.424 8.37 14.28 3.94 2.856 7.88 4.284 11.83 4.284 3.94 0 7.27-1.292 9.99-3.876 2.86-2.72 4.29-6.052 4.29-9.996 0-3.672-1.23-6.8-3.67-9.384-2.45-2.72-6.74-5.984-12.86-9.792-4.62-2.856-8.36-5.576-11.22-8.16-2.85-2.584-4.96-5.236-6.32-7.956-1.22-2.72-1.84-5.78-1.84-9.18 0-4.352 1.02-8.296 3.06-11.832 2.04-3.536 5.1-6.324 9.18-8.364 4.08-2.176 9.18-3.264 15.3-3.264 4.08 0 7.48.408 10.2 1.224 2.72.816 4.76 1.7 6.12 2.652 1.09 1.496 1.98 3.876 2.66 7.14.81 3.128 1.22 6.12 1.22 8.976 0 .952-.68 1.428-2.04 1.428-.82 0-1.63-.136-2.45-.408-.68-.408-1.15-.884-1.43-1.428-1.76-4.488-4.01-7.888-6.73-10.2-2.58-2.448-5.85-3.672-9.79-3.672-3.4 0-6.46 1.02-9.18 3.06-2.58 2.04-3.88 5.032-3.88 8.976 0 3.128.96 5.916 2.86 8.364 2.04 2.448 5.78 5.236 11.22 8.364 7.89 4.488 13.74 8.704 17.54 12.648 3.95 3.808 5.92 8.908 5.92 15.3 0 7.344-2.79 13.328-8.36 17.952-5.58 4.624-12.79 6.936-21.63 6.936ZM301.38 602.104c-8.568 0-16.592-1.564-24.072-4.692-7.344-3.264-13.872-7.752-19.584-13.464-5.576-5.712-9.996-12.24-13.26-19.584-3.128-7.48-4.692-15.504-4.692-24.072s1.564-16.524 4.692-23.868c3.264-7.48 7.752-14.076 13.464-19.788 5.712-5.712 12.24-10.132 19.584-13.26 7.48-3.264 15.504-4.896 24.072-4.896s16.524 1.632 23.868 4.896c7.48 3.128 14.076 7.548 19.788 13.26s10.132 12.308 13.26 19.788c3.264 7.344 4.896 15.3 4.896 23.868 0 8.568-1.632 16.592-4.896 24.072-3.128 7.344-7.548 13.872-13.26 19.584s-12.308 10.2-19.788 13.464c-7.48 3.128-15.504 4.692-24.072 4.692Zm2.856-26.52c-6.392 0-12.24-1.7-17.544-5.1-5.304-3.4-9.52-7.82-12.648-13.26-3.128-5.44-4.692-11.152-4.692-17.136 0-6.8 1.836-12.716 5.508-17.748 3.808-5.032 8.704-8.976 14.688-11.832s12.308-4.284 18.972-4.284c2.448 0 5.168.272 8.16.816 3.128.544 5.848 1.156 8.16 1.836 1.088.272 1.836.544 2.244.816.544.136.884.748 1.02 1.836.408 1.632.612 3.74.612 6.324 0 2.448-.068 4.352-.204 5.712 0 .408-.204.952-.612 1.632-.408.544-.884.748-1.428.612-.544 0-1.02-.272-1.428-.816a11.275 11.275 0 0 1-1.02-2.244c-.544-1.496-1.292-2.788-2.244-3.876-.816-1.224-1.972-2.312-3.468-3.264-1.496-1.088-3.264-1.904-5.304-2.448-1.904-.544-4.012-.816-6.324-.816-6.936 0-12.512 2.652-16.728 7.956-4.216 5.304-6.324 11.696-6.324 19.176 0 4.896.884 9.656 2.652 14.28 1.904 4.624 4.624 8.432 8.16 11.424 3.536 2.856 7.956 4.284 13.26 4.284 3.808 0 7.276-.544 10.404-1.632 3.128-1.224 5.508-3.468 7.14-6.732.544-1.088 1.156-1.836 1.836-2.244.68-.544 1.224-.816 1.632-.816.68 0 1.02.884 1.02 2.652 0 .952-.34 2.38-1.02 4.284-.68 1.768-1.36 3.264-2.04 4.488-.816 1.224-1.292 1.904-1.428 2.04-.136 0-.816.476-2.04 1.428-2.176.952-5.032 1.632-8.568 2.04-3.4.408-6.868.612-10.404.612Zm-2.856 19.584c7.48 0 14.484-1.428 21.012-4.284 6.528-2.856 12.24-6.8 17.136-11.832 4.896-5.168 8.704-11.016 11.424-17.544 2.856-6.664 4.284-13.736 4.284-21.216 0-7.344-1.428-14.28-4.284-20.808-2.72-6.664-6.528-12.512-11.424-17.544a52.181 52.181 0 0 0-17.136-12.036c-6.528-2.992-13.464-4.488-20.808-4.488-7.344 0-14.28 1.496-20.808 4.488a52.181 52.181 0 0 0-17.136 12.036c-4.896 5.032-8.772 10.88-11.628 17.544-2.72 6.528-4.08 13.464-4.08 20.808 0 7.48 1.36 14.552 4.08 21.216 2.72 6.528 6.528 12.376 11.424 17.544a54.358 54.358 0 0 0 16.932 11.832c6.528 2.856 13.532 4.284 21.012 4.284Zm191.604 12.444c-.952 0-2.448-.068-4.488-.204-2.04-.136-4.352-.272-6.936-.408-2.584-.136-5.304-.272-8.16-.408a159.38 159.38 0 0 0-7.956-.204c-2.584 0-6.256.068-11.016.204-4.76.136-9.792.272-15.096.408-5.168 0-9.724.068-13.668.204-3.944.136-6.46.204-7.548.204-.544 0-1.36-.408-2.448-1.224-1.088-.952-1.632-1.7-1.632-2.244 0-.68.136-1.156.408-1.428l1.224-1.224 34.884-36.108a100.26 100.26 0 0 0 16.932-23.664c4.488-8.84 6.732-17.748 6.732-26.724 0-7.208-2.176-12.852-6.528-16.932-4.352-4.216-9.452-6.324-15.3-6.324-5.576 0-10.744 1.564-15.504 4.692-4.76 2.992-8.568 6.936-11.424 11.832a6.021 6.021 0 0 1-1.632 2.04c-.544.544-1.156.816-1.836.816-.544 0-1.224-.544-2.04-1.632-.68-1.224-1.02-2.72-1.02-4.488 0-1.632.952-3.876 2.856-6.732 2.04-2.856 4.828-5.78 8.364-8.772 3.536-2.992 7.752-5.508 12.648-7.548 4.896-2.176 10.2-3.264 15.912-3.264 6.8 0 12.648 1.428 17.544 4.284 4.896 2.856 8.636 6.8 11.22 11.832 2.584 5.032 3.876 10.88 3.876 17.544 0 3.672-.68 7.616-2.04 11.832-1.224 4.216-2.992 8.364-5.304 12.444a72.222 72.222 0 0 1-7.548 11.424c-1.768 2.176-4.42 5.1-7.956 8.772-3.4 3.536-7.14 7.344-11.22 11.424a963.257 963.257 0 0 1-11.424 11.628c-3.536 3.536-6.46 6.528-8.772 8.976-2.312 2.312-3.468 3.604-3.468 3.876 0 .68.952 1.156 2.856 1.428 2.312.136 4.896.272 7.752.408 2.992.136 6.392.204 10.2.204 3.944 0 7.888-.068 11.832-.204 3.944-.136 7.752-.272 11.424-.408 3.944-.272 7.004-.612 9.18-1.02 2.176-.408 4.012-1.224 5.508-2.448 1.496-1.36 3.06-3.4 4.692-6.12a64.516 64.516 0 0 1 2.04-2.856c.952-1.224 1.972-1.836 3.06-1.836.68 0 1.088.272 1.224.816.136.544.204 1.088.204 1.632 0 .68-.408 2.04-1.224 4.08a365.49 365.49 0 0 0-2.448 7.14c-.952 2.856-1.768 5.984-2.448 9.384-.408 2.176-1.088 3.536-2.04 4.08s-1.768.816-2.448.816Zm62.519 2.244c-6.936 0-12.988-1.904-18.156-5.712-5.032-3.808-9.248-8.84-12.648-15.096-3.4-6.392-5.916-13.396-7.548-21.012-1.632-7.616-2.448-15.164-2.448-22.644 0-7.752.816-15.572 2.448-23.46 1.632-7.888 4.148-15.096 7.548-21.624 3.536-6.528 8.024-11.764 13.464-15.708 5.44-4.08 11.9-6.12 19.38-6.12 6.936 0 12.92 1.904 17.952 5.712 5.168 3.808 9.452 8.908 12.852 15.3 3.4 6.256 5.916 13.192 7.548 20.808 1.632 7.48 2.448 14.892 2.448 22.236 0 7.616-.816 15.368-2.448 23.256-1.632 7.888-4.216 15.164-7.752 21.828-3.4 6.664-7.82 12.036-13.26 16.116-5.304 4.08-11.764 6.12-19.38 6.12Zm3.468-5.304c5.44 0 9.792-2.72 13.056-8.16 3.4-5.576 5.848-12.784 7.344-21.624 1.496-8.84 2.244-18.36 2.244-28.56 0-7.616-.612-15.096-1.836-22.44-1.088-7.344-2.856-14.008-5.304-19.992-2.312-5.984-5.236-10.744-8.772-14.28-3.4-3.536-7.412-5.304-12.036-5.304-5.44 0-9.792 2.652-13.056 7.956-3.128 5.304-5.44 12.376-6.936 21.216-1.36 8.704-2.04 18.156-2.04 28.356 0 7.616.544 15.164 1.632 22.644 1.224 7.48 2.924 14.28 5.1 20.4 2.312 5.984 5.168 10.812 8.568 14.484 3.4 3.536 7.412 5.304 12.036 5.304Zm94.548 5.304c-6.936 0-12.988-1.904-18.156-5.712-5.032-3.808-9.248-8.84-12.648-15.096-3.4-6.392-5.916-13.396-7.548-21.012-1.632-7.616-2.448-15.164-2.448-22.644 0-7.752.816-15.572 2.448-23.46 1.632-7.888 4.148-15.096 7.548-21.624 3.536-6.528 8.024-11.764 13.464-15.708 5.44-4.08 11.9-6.12 19.38-6.12 6.936 0 12.92 1.904 17.952 5.712 5.168 3.808 9.452 8.908 12.852 15.3 3.4 6.256 5.916 13.192 7.548 20.808 1.632 7.48 2.448 14.892 2.448 22.236 0 7.616-.816 15.368-2.448 23.256-1.632 7.888-4.216 15.164-7.752 21.828-3.4 6.664-7.82 12.036-13.26 16.116-5.304 4.08-11.764 6.12-19.38 6.12Zm3.468-5.304c5.44 0 9.792-2.72 13.056-8.16 3.4-5.576 5.848-12.784 7.344-21.624 1.496-8.84 2.244-18.36 2.244-28.56 0-7.616-.612-15.096-1.836-22.44-1.088-7.344-2.856-14.008-5.304-19.992-2.312-5.984-5.236-10.744-8.772-14.28-3.4-3.536-7.412-5.304-12.036-5.304-5.44 0-9.792 2.652-13.056 7.956-3.128 5.304-5.44 12.376-6.936 21.216-1.36 8.704-2.04 18.156-2.04 28.356 0 7.616.544 15.164 1.632 22.644 1.224 7.48 2.924 14.28 5.1 20.4 2.312 5.984 5.168 10.812 8.568 14.484 3.4 3.536 7.412 5.304 12.036 5.304Zm66.804 10.2c-1.496 0-3.128-.204-4.896-.612-1.768-.272-2.652-.884-2.652-1.836 0-1.088.884-2.04 2.652-2.856 1.904-.68 3.468-1.02 4.692-1.02 10.744 0 19.584-1.904 26.52-5.712 7.072-3.944 12.308-8.84 15.708-14.688 3.536-5.848 5.304-11.696 5.304-17.544 0-5.304-1.564-9.996-4.692-14.076s-8.296-7.82-15.504-11.22c-7.072-3.4-16.66-6.664-28.764-9.792-1.768-1.496-3.06-2.992-3.876-4.488-.68-1.496-1.02-3.128-1.02-4.896 0-1.904.34-4.216 1.02-6.936.816-2.72 1.768-5.576 2.856-8.568a694.434 694.434 0 0 1 3.264-9.18c1.088-2.992 1.972-5.576 2.652-7.752.68-2.04 1.7-3.604 3.06-4.692 1.36-1.224 3.128-2.108 5.304-2.652a197.81 197.81 0 0 1 9.588-2.244c3.264-.68 6.664-1.292 10.2-1.836 3.536-.68 7.14-1.224 10.812-1.632 3.808-.544 7.684-1.02 11.628-1.428 1.088-.136 1.836.204 2.244 1.02.544.68.544 1.496 0 2.448a90.642 90.642 0 0 1-1.836 3.468l-1.632 3.264c-.952 2.04-2.04 3.604-3.264 4.692-1.088.952-2.516 1.564-4.284 1.836-2.584.272-5.576.612-8.976 1.02-3.4.272-6.8.612-10.2 1.02-3.4.272-6.528.544-9.384.816-2.856.272-5.032.544-6.528.816-.952.136-2.108 1.36-3.468 3.672-1.36 2.176-2.584 4.556-3.672 7.14-1.088 2.448-1.7 4.216-1.836 5.304-.136.952-.068 1.768.204 2.448.408.68 1.224 1.156 2.448 1.428 7.616 2.176 14.552 4.42 20.808 6.732 6.256 2.176 11.696 4.488 16.32 6.936 7.616 3.944 13.26 8.636 16.932 14.076 3.808 5.304 5.712 12.104 5.712 20.4 0 7.48-2.244 14.484-6.732 21.012-4.488 6.528-10.54 11.968-18.156 16.32a68.463 68.463 0 0 1-11.628 5.1c-4.08 1.496-8.364 2.652-12.852 3.468-4.488.816-9.18 1.224-14.076 1.224Zm99.075-45.492c-.68 0-1.36-.272-2.04-.816-.544-.544-.816-1.088-.816-1.632 0-.68.136-1.7.408-3.06.272-1.36.748-2.584 1.428-3.672.816-1.224 1.836-1.836 3.06-1.836h84.252c.68 0 1.292.272 1.836.816.544.408.816.952.816 1.632 0 2.04-.68 4.012-2.04 5.916-1.224 1.768-2.652 2.652-4.284 2.652h-82.62Zm194.824 38.352c-.96 0-2.45-.068-4.49-.204-2.04-.136-4.35-.272-6.94-.408-2.58-.136-5.3-.272-8.158-.408a159.38 159.38 0 0 0-7.956-.204c-2.584 0-6.256.068-11.016.204-4.76.136-9.792.272-15.096.408-5.168 0-9.724.068-13.668.204-3.944.136-6.46.204-7.548.204-.544 0-1.36-.408-2.448-1.224-1.088-.952-1.632-1.7-1.632-2.244 0-.68.136-1.156.408-1.428l1.224-1.224 34.884-36.108a100.26 100.26 0 0 0 16.932-23.664c4.488-8.84 6.732-17.748 6.732-26.724 0-7.208-2.176-12.852-6.528-16.932-4.352-4.216-9.452-6.324-15.3-6.324-5.576 0-10.744 1.564-15.504 4.692-4.76 2.992-8.568 6.936-11.424 11.832a6.021 6.021 0 0 1-1.632 2.04c-.544.544-1.156.816-1.836.816-.544 0-1.224-.544-2.04-1.632-.68-1.224-1.02-2.72-1.02-4.488 0-1.632.952-3.876 2.856-6.732 2.04-2.856 4.828-5.78 8.364-8.772 3.536-2.992 7.752-5.508 12.648-7.548 4.896-2.176 10.2-3.264 15.912-3.264 6.8 0 12.648 1.428 17.546 4.284 4.89 2.856 8.63 6.8 11.22 11.832 2.58 5.032 3.87 10.88 3.87 17.544 0 3.672-.68 7.616-2.04 11.832-1.22 4.216-2.99 8.364-5.3 12.444a72.233 72.233 0 0 1-7.55 11.424c-1.766 2.176-4.418 5.1-7.954 8.772-3.4 3.536-7.14 7.344-11.22 11.424a963.257 963.257 0 0 1-11.424 11.628c-3.536 3.536-6.46 6.528-8.772 8.976-2.312 2.312-3.468 3.604-3.468 3.876 0 .68.952 1.156 2.856 1.428 2.312.136 4.896.272 7.752.408 2.992.136 6.392.204 10.2.204 3.944 0 7.888-.068 11.832-.204 3.944-.136 7.752-.272 11.428-.408 3.94-.272 7-.612 9.18-1.02 2.17-.408 4.01-1.224 5.5-2.448 1.5-1.36 3.06-3.4 4.7-6.12.54-.816 1.22-1.768 2.04-2.856.95-1.224 1.97-1.836 3.06-1.836.68 0 1.08.272 1.22.816.14.544.2 1.088.2 1.632 0 .68-.4 2.04-1.22 4.08-.68 1.904-1.5 4.284-2.45 7.14-.95 2.856-1.77 5.984-2.45 9.384-.4 2.176-1.08 3.536-2.04 4.08-.95.544-1.76.816-2.44.816Zm62.52 2.244c-6.94 0-12.99-1.904-18.16-5.712-5.03-3.808-9.25-8.84-12.65-15.096-3.4-6.392-5.91-13.396-7.55-21.012-1.63-7.616-2.44-15.164-2.44-22.644 0-7.752.81-15.572 2.44-23.46 1.64-7.888 4.15-15.096 7.55-21.624 3.54-6.528 8.03-11.764 13.47-15.708 5.44-4.08 11.9-6.12 19.38-6.12 6.93 0 12.92 1.904 17.95 5.712 5.17 3.808 9.45 8.908 12.85 15.3 3.4 6.256 5.92 13.192 7.55 20.808 1.63 7.48 2.45 14.892 2.45 22.236 0 7.616-.82 15.368-2.45 23.256-1.63 7.888-4.22 15.164-7.75 21.828-3.4 6.664-7.82 12.036-13.26 16.116-5.31 4.08-11.77 6.12-19.38 6.12Zm3.46-5.304c5.44 0 9.8-2.72 13.06-8.16 3.4-5.576 5.85-12.784 7.34-21.624 1.5-8.84 2.25-18.36 2.25-28.56 0-7.616-.61-15.096-1.84-22.44-1.09-7.344-2.85-14.008-5.3-19.992-2.31-5.984-5.24-10.744-8.77-14.28-3.4-3.536-7.42-5.304-12.04-5.304-5.44 0-9.79 2.652-13.06 7.956-3.12 5.304-5.44 12.376-6.93 21.216-1.36 8.704-2.04 18.156-2.04 28.356 0 7.616.54 15.164 1.63 22.644 1.22 7.48 2.92 14.28 5.1 20.4 2.31 5.984 5.17 10.812 8.57 14.484 3.4 3.536 7.41 5.304 12.03 5.304Zm130.05 3.06c-.95 0-2.45-.068-4.49-.204-2.04-.136-4.35-.272-6.94-.408-2.58-.136-5.3-.272-8.16-.408-2.72-.136-5.37-.204-7.95-.204-2.59 0-6.26.068-11.02.204-4.76.136-9.79.272-15.09.408-5.17 0-9.73.068-13.67.204-3.95.136-6.46.204-7.55.204-.54 0-1.36-.408-2.45-1.224-1.09-.952-1.63-1.7-1.63-2.244 0-.68.14-1.156.41-1.428.27-.272.68-.68 1.22-1.224l34.89-36.108c6.8-7.072 12.44-14.96 16.93-23.664 4.49-8.84 6.73-17.748 6.73-26.724 0-7.208-2.18-12.852-6.53-16.932-4.35-4.216-9.45-6.324-15.3-6.324-5.57 0-10.74 1.564-15.5 4.692-4.76 2.992-8.57 6.936-11.43 11.832-.4.816-.95 1.496-1.63 2.04-.54.544-1.15.816-1.83.816-.55 0-1.23-.544-2.04-1.632-.68-1.224-1.02-2.72-1.02-4.488 0-1.632.95-3.876 2.85-6.732 2.04-2.856 4.83-5.78 8.37-8.772 3.53-2.992 7.75-5.508 12.64-7.548 4.9-2.176 10.2-3.264 15.92-3.264 6.8 0 12.64 1.428 17.54 4.284 4.9 2.856 8.64 6.8 11.22 11.832 2.58 5.032 3.88 10.88 3.88 17.544 0 3.672-.68 7.616-2.04 11.832-1.23 4.216-3 8.364-5.31 12.444a71.548 71.548 0 0 1-7.55 11.424c-1.76 2.176-4.42 5.1-7.95 8.772-3.4 3.536-7.14 7.344-11.22 11.424-3.95 4.08-7.75 7.956-11.43 11.628-3.53 3.536-6.46 6.528-8.77 8.976-2.31 2.312-3.47 3.604-3.47 3.876 0 .68.96 1.156 2.86 1.428 2.31.136 4.9.272 7.75.408 2.99.136 6.39.204 10.2.204 3.95 0 7.89-.068 11.83-.204 3.95-.136 7.76-.272 11.43-.408 3.94-.272 7-.612 9.18-1.02 2.17-.408 4.01-1.224 5.51-2.448 1.49-1.36 3.06-3.4 4.69-6.12.54-.816 1.22-1.768 2.04-2.856.95-1.224 1.97-1.836 3.06-1.836.68 0 1.09.272 1.22.816.14.544.21 1.088.21 1.632 0 .68-.41 2.04-1.23 4.08-.68 1.904-1.49 4.284-2.45 7.14-.95 2.856-1.76 5.984-2.44 9.384-.41 2.176-1.09 3.536-2.04 4.08-.96.544-1.77.816-2.45.816Zm34.37 0c-.96 0-1.7-.272-2.25-.816-.54-.544-.81-1.088-.81-1.632 0-1.224 1.02-2.108 3.06-2.652 5.16-1.36 9.38-2.584 12.64-3.672 3.4-1.224 5.85-2.856 7.35-4.896 1.63-2.176 2.45-5.236 2.45-9.18v-77.928c0-2.584-.82-4.556-2.45-5.916-1.63-1.36-3.74-2.312-6.33-2.856-2.58-.544-5.37-.884-8.36-1.02-1.36-.136-2.58-.476-3.67-1.02-1.09-.544-1.63-1.36-1.63-2.448 0-.952.47-1.768 1.42-2.448 1.09-.68 2.32-1.088 3.68-1.224 6.12-.952 11.56-2.108 16.32-3.468 4.89-1.496 9.65-4.556 14.28-9.18.13-.136.27-.204.4-.204h.62c.68 0 1.29.204 1.83.612.55.272.75.68.61 1.224-.27 2.04-.47 4.284-.61 6.732-.13 2.312-.2 4.896-.2 7.752v93.84c0 3.4.61 5.984 1.83 7.752 1.36 1.768 3.61 3.196 6.74 4.284 3.12.952 7.48 2.108 13.05 3.468.82.136 1.57.476 2.25 1.02.81.408 1.22.952 1.22 1.632 0 1.496-.95 2.244-2.86 2.244-3.8 0-7.34-.136-10.6-.408l-9.39-.408a221.54 221.54 0 0 0-9.99-.204c-3.68 0-7.14.068-10.41.204l-9.79.408c-3.26.272-6.73.408-10.4.408Zm99.64 2.244c-2.99 0-5.64-1.088-7.95-3.264-2.18-2.312-3.27-4.964-3.27-7.956 0-3.128 1.09-5.78 3.27-7.956 2.31-2.176 4.96-3.264 7.95-3.264 3.13 0 5.78 1.088 7.96 3.264 2.17 2.176 3.26 4.828 3.26 7.956 0 2.992-1.09 5.644-3.26 7.956-2.18 2.176-4.83 3.264-7.96 3.264Zm69.91-1.836c-1.77 0-3.2-.272-4.29-.816-1.09-.408-1.63-1.02-1.63-1.836 0-.952.54-1.768 1.63-2.448 1.23-.816 2.93-1.564 5.1-2.244 3.54-1.088 6.8-2.72 9.79-4.896 3-2.176 5.58-5.78 7.76-10.812 3.8-8.704 7.27-16.864 10.4-24.48a733.168 733.168 0 0 0 9.18-22.44c2.86-7.344 5.78-14.96 8.77-22.848 3.13-8.024 6.39-16.728 9.79-26.112.68-1.904 1.3-3.808 1.84-5.712s.88-3.944 1.02-6.12c1.22-.408 2.45-.816 3.67-1.224 1.23-.408 2.45-1.02 3.67-1.836 1.23-.816 2.04-2.04 2.45-3.672.55-1.632 1.02-2.72 1.43-3.264.14-.136.27-.204.41-.204.27 0 .47.136.61.408.27.544.48 1.224.61 2.04.27.816.55 1.632.82 2.448 3.26 10.336 6.66 20.876 10.2 31.62 3.53 10.744 6.93 21.148 10.2 31.212 3.4 9.928 6.46 18.904 9.18 26.928 2.85 7.888 5.1 14.28 6.73 19.176 1.9 5.44 3.94 9.52 6.12 12.24 2.18 2.72 4.42 4.624 6.73 5.712a36.803 36.803 0 0 0 7.75 2.448c2.32.408 4.02 1.088 5.1 2.04 1.09.816 1.64 1.7 1.64 2.652 0 .816-.55 1.36-1.64 1.632-1.08.272-2.51.408-4.28.408-1.9 0-4.49-.136-7.75-.408-3.27-.136-6.73-.34-10.41-.612-3.67-.136-7.07-.204-10.2-.204h-7.95c-2.72 0-5.24.068-7.55.204h-5.92c-1.76 0-3.19-.204-4.28-.612-1.09-.408-1.63-1.02-1.63-1.836 0-.952.68-1.768 2.04-2.448 1.36-.68 2.92-1.156 4.69-1.428 4.49-.68 7.68-1.836 9.59-3.468 1.9-1.632 2.85-3.536 2.85-5.712 0-2.04-.47-4.964-1.42-8.772-.82-3.944-1.84-8.092-3.06-12.444-1.23-4.488-2.38-8.432-3.47-11.832-.27-1.088-.82-1.7-1.63-1.836-.68-.272-1.98-.408-3.88-.408h-38.56c-.54 0-1.15.272-1.83.816-.55.408-1.09 1.36-1.63 2.856-.41 1.36-1.09 3.536-2.04 6.528-.96 2.856-1.91 5.916-2.86 9.18-.95 3.264-1.77 6.188-2.45 8.772-.68 2.584-1.02 4.216-1.02 4.896 0 2.992 1.16 5.508 3.47 7.548 2.31 1.904 5.1 3.264 8.36 4.08 4.49 1.224 6.74 2.584 6.74 4.08 0 .816-.55 1.428-1.64 1.836-1.08.272-2.51.408-4.28.408-1.77 0-4.35-.068-7.75-.204-3.4-.136-7.01-.204-10.81-.204-4.49 0-8.84.204-13.06.612-4.22.408-8.02.612-11.42.612Zm47.73-58.548h31.62c1.91 0 2.86-.34 2.86-1.02 0-.272-.07-.544-.21-.816 0-.408-.06-.816-.2-1.224l-15.91-49.776c-.82-2.448-1.43-3.672-1.84-3.672-.27 0-.81 1.156-1.63 3.468l-18.56 49.98c-.28.816-.41 1.36-.41 1.632 0 .68.34 1.088 1.02 1.224.81.136 1.9.204 3.26.204Zm95.96 58.14c-.68 0-1.56-.136-2.65-.408-.95-.136-1.43-.612-1.43-1.428 0-1.088.48-1.836 1.43-2.244 1.09-.544 2.17-1.02 3.26-1.428 2.04-.68 4.01-1.428 5.92-2.244 1.9-.952 2.85-2.788 2.85-5.508V491.536c0-3.944-.74-7.208-2.24-9.792-1.36-2.72-3.74-4.42-7.14-5.1-1.09-.272-1.63-1.156-1.63-2.652 0-1.36.47-2.176 1.43-2.448 3.53-.816 6.59-1.632 9.18-2.448 2.58-.952 4.96-1.904 7.14-2.856 2.31-.952 4.55-1.836 6.73-2.652.54-.272.95-.408 1.22-.408s.48.204.61.612c.28.272.41.544.41.816 0 1.224-.27 3.876-.81 7.956-.41 3.944-.62 10.54-.62 19.788v102c0 2.72.96 4.556 2.86 5.508 1.9.816 3.88 1.564 5.92 2.244 1.08.408 2.1.884 3.06 1.428 1.08.408 1.63 1.156 1.63 2.244 0 .816-.55 1.292-1.63 1.428-.96.272-1.77.408-2.45.408-2.59 0-4.69-.136-6.33-.408l-4.48-.408c-1.36-.136-3.27-.204-5.72-.204-2.31 0-4.21.068-5.71.204l-4.49.408c-1.49.272-3.6.408-6.32.408Zm49.01 0c-.68 0-1.57-.136-2.65-.408-.96-.136-1.43-.612-1.43-1.428 0-1.088.47-1.836 1.43-2.244 1.08-.544 2.17-1.02 3.26-1.428 2.04-.68 4.01-1.428 5.92-2.244 1.9-.952 2.85-2.788 2.85-5.508V491.536c0-3.944-.75-7.208-2.24-9.792-1.36-2.72-3.74-4.42-7.14-5.1-1.09-.272-1.63-1.156-1.63-2.652 0-1.36.47-2.176 1.42-2.448 3.54-.816 6.6-1.632 9.18-2.448a126.22 126.22 0 0 0 7.14-2.856c2.32-.952 4.56-1.836 6.74-2.652.54-.272.95-.408 1.22-.408s.48.204.61.612c.27.272.41.544.41.816 0 1.224-.27 3.876-.82 7.956-.4 3.944-.61 10.54-.61 19.788v102c0 2.72.95 4.556 2.86 5.508 1.9.816 3.87 1.564 5.91 2.244 1.09.408 2.11.884 3.06 1.428 1.09.408 1.64 1.156 1.64 2.244 0 .816-.55 1.292-1.64 1.428-.95.272-1.76.408-2.44.408-2.59 0-4.7-.136-6.33-.408l-4.49-.408c-1.36-.136-3.26-.204-5.71-.204-2.31 0-4.21.068-5.71.204l-4.49.408c-1.49.272-3.6.408-6.32.408Zm91.89 0c-1.36 0-2.38-.204-3.06-.612-.68-.272-1.02-.816-1.02-1.632 0-1.088.4-1.768 1.22-2.04.82-.408 1.97-.816 3.47-1.224 2.58-.68 4.49-1.632 5.71-2.856 1.36-1.36 2.04-2.992 2.04-4.896v-43.86c0-3.672-.54-6.868-1.63-9.588-1.09-2.72-3.33-4.42-6.73-5.1-.55-.136-1.02-.476-1.43-1.02-.41-.544-.61-1.088-.61-1.632 0-1.36.61-2.176 1.83-2.448 3.54-1.088 7.21-2.652 11.02-4.692 3.94-2.176 7-3.944 9.18-5.304.81-.544 1.43-.884 1.83-1.02.55-.272.96-.408 1.23-.408.68 0 1.02.476 1.02 1.428 0 .408-.07 1.428-.21 3.06 0 1.632-.06 3.536-.2 5.712 0 2.176-.07 4.352-.2 6.528 0 .272.13.408.4.408 2.18-2.72 4.56-5.1 7.14-7.14 2.72-2.04 5.44-3.672 8.16-4.896 2.86-1.224 5.58-1.836 8.16-1.836 2.86 0 5.17.612 6.94 1.836 1.9 1.224 2.86 2.788 2.86 4.692 0 1.36-.41 2.856-1.23 4.488a13.189 13.189 0 0 1-2.85 4.284c-1.23 1.224-2.52 1.836-3.88 1.836-.82 0-1.7-.136-2.65-.408-.95-.408-1.97-.884-3.06-1.428l-3.27-1.224a9.177 9.177 0 0 0-3.26-.612c-3.26 0-6.46 1.156-9.59 3.468-2.99 2.312-4.49 6.868-4.49 13.668v41.208c0 1.768.96 3.264 2.86 4.488 1.9 1.088 4.56 2.176 7.96 3.264 1.49.408 2.65.816 3.46 1.224.82.408 1.23 1.088 1.23 2.04 0 1.496-1.36 2.244-4.08 2.244-4.08 0-7.21-.204-9.39-.612-2.04-.272-4.82-.408-8.36-.408-2.31 0-4.22.068-5.71.204-1.36.136-2.86.272-4.49.408-1.5.272-3.6.408-6.32.408Zm67.11 0c-1.23 0-2.25-.204-3.06-.612-.68-.272-1.02-.816-1.02-1.632 0-1.088.47-1.836 1.43-2.244 1.08-.408 2.17-.748 3.26-1.02 2.86-.68 5.03-1.496 6.53-2.448 1.49-1.088 2.24-2.856 2.24-5.304v-44.268c0-3.672-.68-6.936-2.04-9.792-1.22-2.856-3.6-4.556-7.14-5.1-.68-.136-1.22-.408-1.63-.816-.27-.408-.41-1.02-.41-1.836 0-1.496.61-2.312 1.84-2.448 5.44-1.224 9.93-2.856 13.46-4.896 3.54-2.176 6.19-3.944 7.96-5.304 1.22-.952 2.17-1.428 2.85-1.428.82 0 1.23.34 1.23 1.02 0 1.088-.21 3.264-.61 6.528-.28 3.128-.55 6.664-.82 10.608-.27 3.808-.41 7.276-.41 10.404v47.328c0 2.312.75 4.012 2.25 5.1 1.63 1.088 3.8 1.972 6.52 2.652 1.09.272 2.11.612 3.06 1.02 1.09.408 1.64 1.156 1.64 2.244 0 1.496-1.36 2.244-4.08 2.244-2.59 0-4.7-.136-6.33-.408l-4.49-.408c-1.36-.136-3.26-.204-5.71-.204-2.31 0-4.21.068-5.71.204l-4.49.408c-1.49.272-3.6.408-6.32.408Zm16.32-105.876c-2.86 0-5.31-.952-7.35-2.856-1.9-2.04-2.85-4.488-2.85-7.344 0-2.992.95-5.44 2.85-7.344 2.04-2.04 4.49-3.06 7.35-3.06 2.99 0 5.44 1.02 7.34 3.06 2.04 1.904 3.06 4.352 3.06 7.344 0 2.856-1.02 5.304-3.06 7.344-1.9 1.904-4.35 2.856-7.34 2.856Zm64.49 164.424c-11.56 0-20.74-2.244-27.54-6.732-6.67-4.352-10-10.268-10-17.748 0-3.536.54-6.528 1.63-8.976 1.09-2.448 2.79-4.556 5.1-6.324 1.91-1.632 4.42-3.74 7.55-6.324 3.26-2.448 6.6-5.032 10-7.752l8.56.408c-6.52 4.216-11.08 8.228-13.66 12.036-2.59 3.808-3.88 8.432-3.88 13.872 0 5.44 2.38 9.996 7.14 13.668 4.9 3.808 10.88 5.712 17.95 5.712 8.03 0 14.49-1.836 19.38-5.508 3.4-2.584 6.05-5.984 7.96-10.2 1.9-4.08 2.85-8.432 2.85-13.056 0-2.992-1.08-5.508-3.26-7.548-2.04-1.904-5.3-3.468-9.79-4.692-4.49-1.224-10.34-2.04-17.55-2.448-12.78-.952-21.69-2.652-26.72-5.1-4.9-2.448-7.34-6.256-7.34-11.424 0-1.36.34-2.584 1.02-3.672.81-1.224 2.04-2.516 3.67-3.876 3.13-2.448 5.44-4.216 6.93-5.304 1.5-1.224 2.59-2.244 3.27-3.06.81-.816 1.56-1.836 2.24-3.06l6.94 3.468c-2.99 1.088-5.51 2.584-7.55 4.488-2.04 1.768-3.06 3.4-3.06 4.896 0 1.904 1.02 3.604 3.06 5.1 2.04 1.36 5.03 2.448 8.98 3.264 3.94.816 8.77 1.428 14.48 1.836 12.51.68 21.83 2.72 27.95 6.12 6.12 3.4 9.18 8.228 9.18 14.484 0 5.304-1.36 10.472-4.08 15.504-2.59 5.168-6.05 9.86-10.41 14.076-4.35 4.216-9.24 7.548-14.68 9.996-5.31 2.584-10.75 3.876-16.32 3.876Zm2.44-87.924c5.17 0 9.46-2.584 12.86-7.752 3.4-5.304 5.1-11.832 5.1-19.584 0-3.944-.96-7.616-2.86-11.016-1.77-3.536-4.15-6.324-7.14-8.364-2.86-2.176-5.98-3.264-9.38-3.264-3.13 0-6.12 1.156-8.98 3.468-2.72 2.176-4.96 5.032-6.73 8.568-1.63 3.536-2.45 7.412-2.45 11.628 0 4.76.88 9.18 2.65 13.26 1.77 3.944 4.15 7.14 7.14 9.588 2.99 2.312 6.26 3.468 9.79 3.468Zm-1.22 7.14c-5.58 0-10.88-1.428-15.91-4.284-5.03-2.856-9.18-6.596-12.45-11.22-3.12-4.76-4.69-9.928-4.69-15.504 0-6.392 1.63-11.968 4.9-16.728 3.4-4.896 7.82-8.704 13.26-11.424 5.44-2.72 11.22-4.08 17.34-4.08 3.94 0 7.34.544 10.2 1.632 2.99.952 5.91 1.836 8.77 2.652 3.26.952 5.85 1.564 7.75 1.836 1.91.136 3.88.204 5.92.204 1.63 0 3.67-.068 6.12-.204 2.45-.272 4.15-.408 5.1-.408 1.77 0 2.65 1.02 2.65 3.06 0 1.224-.68 2.516-2.04 3.876-.68.68-1.22 1.02-1.63 1.02h-5.51c-3.67 0-5.71.544-6.12 1.632-.14.544-.34 1.36-.61 2.448-.14.952-.27 2.04-.41 3.264-.14 1.224-.2 2.448-.2 3.672 0 6.936-1.5 13.328-4.49 19.176-2.99 5.848-6.94 10.54-11.83 14.076-4.9 3.536-10.27 5.304-16.12 5.304Zm55.6 22.236c-2.72 0-4.08-.748-4.08-2.244 0-1.224 1.57-2.312 4.7-3.264a27.4 27.4 0 0 0 5.71-2.652c1.9-1.088 2.92-2.992 3.06-5.712V491.536c0-3.672-.61-6.868-1.84-9.588-1.22-2.856-3.6-4.556-7.14-5.1-1.22-.272-1.83-1.224-1.83-2.856 0-1.224.54-2.04 1.63-2.448 1.9-.68 4.15-1.428 6.73-2.244 2.72-.816 5.51-1.7 8.36-2.652 2.86-1.088 5.38-2.108 7.55-3.06.55-.272.95-.408 1.23-.408.4 0 .74.136 1.02.408.27.272.4.612.4 1.02 0 .816-.2 1.972-.61 3.468-.27 1.496-.54 4.08-.81 7.752-.28 3.672-.41 9.18-.41 16.524v35.496c0 2.176.07 3.74.2 4.692.27.952.68 1.904 1.23 2.856 2.17-1.632 4.82-3.4 7.95-5.304 3.27-2.04 6.87-3.808 10.81-5.304a34.28 34.28 0 0 1 12.24-2.244c6.67 0 12.18 2.652 16.53 7.956 4.49 5.168 6.73 11.764 6.73 19.788v42.84c0 2.72.88 4.76 2.65 6.12a22.486 22.486 0 0 0 5.71 2.856c1.5.408 2.66.884 3.47 1.428.82.408 1.23 1.02 1.23 1.836 0 1.496-1.36 2.244-4.08 2.244-2.72 0-4.83-.136-6.33-.408l-4.08-.408c-1.22-.136-3.06-.204-5.51-.204-2.31 0-4.14.068-5.5.204-1.36.136-2.79.272-4.29.408-1.36.272-3.4.408-6.12.408s-4.08-.748-4.08-2.244c0-.952.41-1.564 1.23-1.836.81-.408 1.97-.884 3.46-1.428 2.04-.68 3.88-1.632 5.51-2.856 1.63-1.36 2.45-3.4 2.45-6.12v-41.616c0-3.4-1.02-6.46-3.06-9.18-1.9-2.856-4.28-5.1-7.14-6.732-2.86-1.632-5.78-2.448-8.77-2.448-2.59 0-5.58.408-8.98 1.224-3.4.68-6.05 1.768-7.95 3.264-2.18 1.768-3.68 3.604-4.49 5.508-.68 1.904-1.02 4.964-1.02 9.18v41.412c.13 2.72.95 4.624 2.45 5.712 1.63 1.088 3.46 1.972 5.5 2.652 1.5.408 2.59.884 3.27 1.428.81.408 1.22 1.02 1.22 1.836 0 1.496-1.36 2.244-4.08 2.244-2.72 0-4.76-.136-6.12-.408-1.36-.136-2.65-.272-3.87-.408-1.23-.136-3.06-.204-5.51-.204-2.31 0-4.22.068-5.71.204-1.36.136-2.86.272-4.49.408-1.5.272-3.61.408-6.33.408Zm135.59 2.244c-6.66 0-11.9-2.04-15.7-6.12-3.68-4.08-5.51-10.132-5.51-18.156v-47.328c0-1.088-.41-1.836-1.23-2.244-.81-.544-2.58-.816-5.3-.816h-1.22c-.68 0-1.3-.408-1.84-1.224a7.162 7.162 0 0 1-.61-2.856c0-.272.2-.68.61-1.224.41-.544.68-.884.82-1.02 2.72-1.904 5.16-3.808 7.34-5.712 2.31-1.904 4.35-3.74 6.12-5.508 1.9-1.904 3.47-3.604 4.69-5.1.68-.68 1.23-1.224 1.63-1.632.55-.544 1.16-.816 1.84-.816.68 0 1.29.136 1.84.408.68.272.95.884.81 1.836l-1.02 9.18c-.13 1.496.21 2.516 1.02 3.06.82.544 2.11.816 3.88.816h23.25c.55 0 1.02.476 1.43 1.428.41.816.61 1.836.61 3.06s-.2 2.448-.61 3.672c-.41 1.088-.88 1.632-1.43 1.632h-20.19c-3.4 0-5.65.272-6.73.816-.96.544-1.43 2.176-1.43 4.896v40.188c0 5.44 1.15 9.724 3.47 12.852 2.31 3.128 5.64 4.692 9.99 4.692 3.95 0 7.01-.272 9.18-.816 2.18-.68 4.15-1.632 5.92-2.856.27-.272.54-.408.81-.408.55 0 .89.34 1.02 1.02.28.544.41 1.156.41 1.836 0 .68-1.15 2.04-3.47 4.08-2.17 2.04-5.1 3.944-8.77 5.712-3.53 1.768-7.41 2.652-11.63 2.652Zm54.97 0c-4.21 0-8.16-.68-11.83-2.04-3.67-1.224-6.8-2.992-9.38-5.304-.68-1.496-1.23-4.012-1.64-7.548-.27-3.536-.47-6.46-.61-8.772 0-1.224.89-1.836 2.65-1.836.55 0 1.02.136 1.43.408.55.136.89.476 1.02 1.02 1.77 6.664 4.56 11.424 8.37 14.28 3.94 2.856 7.88 4.284 11.83 4.284 3.94 0 7.27-1.292 9.99-3.876 2.86-2.72 4.29-6.052 4.29-9.996 0-3.672-1.23-6.8-3.67-9.384-2.45-2.72-6.74-5.984-12.86-9.792-4.62-2.856-8.36-5.576-11.22-8.16-2.85-2.584-4.96-5.236-6.32-7.956-1.22-2.72-1.84-5.78-1.84-9.18 0-4.352 1.02-8.296 3.06-11.832 2.04-3.536 5.1-6.324 9.18-8.364 4.08-2.176 9.18-3.264 15.3-3.264 4.08 0 7.48.408 10.2 1.224 2.72.816 4.76 1.7 6.12 2.652 1.09 1.496 1.98 3.876 2.66 7.14.81 3.128 1.22 6.12 1.22 8.976 0 .952-.68 1.428-2.04 1.428-.82 0-1.63-.136-2.45-.408-.68-.408-1.15-.884-1.43-1.428-1.76-4.488-4.01-7.888-6.73-10.2-2.58-2.448-5.85-3.672-9.79-3.672-3.4 0-6.46 1.02-9.18 3.06-2.58 2.04-3.88 5.032-3.88 8.976 0 3.128.96 5.916 2.86 8.364 2.04 2.448 5.78 5.236 11.22 8.364 7.89 4.488 13.74 8.704 17.54 12.648 3.95 3.808 5.92 8.908 5.92 15.3 0 7.344-2.79 13.328-8.36 17.952-5.58 4.624-12.79 6.936-21.63 6.936ZM301.38 857.104c-8.568 0-16.592-1.564-24.072-4.692-7.344-3.264-13.872-7.752-19.584-13.464-5.576-5.712-9.996-12.24-13.26-19.584-3.128-7.48-4.692-15.504-4.692-24.072s1.564-16.524 4.692-23.868c3.264-7.48 7.752-14.076 13.464-19.788 5.712-5.712 12.24-10.132 19.584-13.26 7.48-3.264 15.504-4.896 24.072-4.896s16.524 1.632 23.868 4.896c7.48 3.128 14.076 7.548 19.788 13.26s10.132 12.308 13.26 19.788c3.264 7.344 4.896 15.3 4.896 23.868 0 8.568-1.632 16.592-4.896 24.072-3.128 7.344-7.548 13.872-13.26 19.584s-12.308 10.2-19.788 13.464c-7.48 3.128-15.504 4.692-24.072 4.692Zm2.856-26.52c-6.392 0-12.24-1.7-17.544-5.1-5.304-3.4-9.52-7.82-12.648-13.26-3.128-5.44-4.692-11.152-4.692-17.136 0-6.8 1.836-12.716 5.508-17.748 3.808-5.032 8.704-8.976 14.688-11.832s12.308-4.284 18.972-4.284c2.448 0 5.168.272 8.16.816 3.128.544 5.848 1.156 8.16 1.836 1.088.272 1.836.544 2.244.816.544.136.884.748 1.02 1.836.408 1.632.612 3.74.612 6.324 0 2.448-.068 4.352-.204 5.712 0 .408-.204.952-.612 1.632-.408.544-.884.748-1.428.612-.544 0-1.02-.272-1.428-.816a11.275 11.275 0 0 1-1.02-2.244c-.544-1.496-1.292-2.788-2.244-3.876-.816-1.224-1.972-2.312-3.468-3.264-1.496-1.088-3.264-1.904-5.304-2.448-1.904-.544-4.012-.816-6.324-.816-6.936 0-12.512 2.652-16.728 7.956-4.216 5.304-6.324 11.696-6.324 19.176 0 4.896.884 9.656 2.652 14.28 1.904 4.624 4.624 8.432 8.16 11.424 3.536 2.856 7.956 4.284 13.26 4.284 3.808 0 7.276-.544 10.404-1.632 3.128-1.224 5.508-3.468 7.14-6.732.544-1.088 1.156-1.836 1.836-2.244.68-.544 1.224-.816 1.632-.816.68 0 1.02.884 1.02 2.652 0 .952-.34 2.38-1.02 4.284-.68 1.768-1.36 3.264-2.04 4.488-.816 1.224-1.292 1.904-1.428 2.04-.136 0-.816.476-2.04 1.428-2.176.952-5.032 1.632-8.568 2.04-3.4.408-6.868.612-10.404.612Zm-2.856 19.584c7.48 0 14.484-1.428 21.012-4.284 6.528-2.856 12.24-6.8 17.136-11.832 4.896-5.168 8.704-11.016 11.424-17.544 2.856-6.664 4.284-13.736 4.284-21.216 0-7.344-1.428-14.28-4.284-20.808-2.72-6.664-6.528-12.512-11.424-17.544a52.181 52.181 0 0 0-17.136-12.036c-6.528-2.992-13.464-4.488-20.808-4.488-7.344 0-14.28 1.496-20.808 4.488a52.181 52.181 0 0 0-17.136 12.036c-4.896 5.032-8.772 10.88-11.628 17.544-2.72 6.528-4.08 13.464-4.08 20.808 0 7.48 1.36 14.552 4.08 21.216 2.72 6.528 6.528 12.376 11.424 17.544a54.358 54.358 0 0 0 16.932 11.832c6.528 2.856 13.532 4.284 21.012 4.284Zm191.604 12.444c-.952 0-2.448-.068-4.488-.204-2.04-.136-4.352-.272-6.936-.408-2.584-.136-5.304-.272-8.16-.408a159.38 159.38 0 0 0-7.956-.204c-2.584 0-6.256.068-11.016.204-4.76.136-9.792.272-15.096.408-5.168 0-9.724.068-13.668.204-3.944.136-6.46.204-7.548.204-.544 0-1.36-.408-2.448-1.224-1.088-.952-1.632-1.7-1.632-2.244 0-.68.136-1.156.408-1.428l1.224-1.224 34.884-36.108a100.26 100.26 0 0 0 16.932-23.664c4.488-8.84 6.732-17.748 6.732-26.724 0-7.208-2.176-12.852-6.528-16.932-4.352-4.216-9.452-6.324-15.3-6.324-5.576 0-10.744 1.564-15.504 4.692-4.76 2.992-8.568 6.936-11.424 11.832a6.021 6.021 0 0 1-1.632 2.04c-.544.544-1.156.816-1.836.816-.544 0-1.224-.544-2.04-1.632-.68-1.224-1.02-2.72-1.02-4.488 0-1.632.952-3.876 2.856-6.732 2.04-2.856 4.828-5.78 8.364-8.772 3.536-2.992 7.752-5.508 12.648-7.548 4.896-2.176 10.2-3.264 15.912-3.264 6.8 0 12.648 1.428 17.544 4.284 4.896 2.856 8.636 6.8 11.22 11.832 2.584 5.032 3.876 10.88 3.876 17.544 0 3.672-.68 7.616-2.04 11.832-1.224 4.216-2.992 8.364-5.304 12.444a72.222 72.222 0 0 1-7.548 11.424c-1.768 2.176-4.42 5.1-7.956 8.772-3.4 3.536-7.14 7.344-11.22 11.424a963.257 963.257 0 0 1-11.424 11.628c-3.536 3.536-6.46 6.528-8.772 8.976-2.312 2.312-3.468 3.604-3.468 3.876 0 .68.952 1.156 2.856 1.428 2.312.136 4.896.272 7.752.408 2.992.136 6.392.204 10.2.204 3.944 0 7.888-.068 11.832-.204 3.944-.136 7.752-.272 11.424-.408 3.944-.272 7.004-.612 9.18-1.02 2.176-.408 4.012-1.224 5.508-2.448 1.496-1.36 3.06-3.4 4.692-6.12a64.516 64.516 0 0 1 2.04-2.856c.952-1.224 1.972-1.836 3.06-1.836.68 0 1.088.272 1.224.816.136.544.204 1.088.204 1.632 0 .68-.408 2.04-1.224 4.08a365.49 365.49 0 0 0-2.448 7.14c-.952 2.856-1.768 5.984-2.448 9.384-.408 2.176-1.088 3.536-2.04 4.08s-1.768.816-2.448.816Zm62.519 2.244c-6.936 0-12.988-1.904-18.156-5.712-5.032-3.808-9.248-8.84-12.648-15.096-3.4-6.392-5.916-13.396-7.548-21.012-1.632-7.616-2.448-15.164-2.448-22.644 0-7.752.816-15.572 2.448-23.46 1.632-7.888 4.148-15.096 7.548-21.624 3.536-6.528 8.024-11.764 13.464-15.708 5.44-4.08 11.9-6.12 19.38-6.12 6.936 0 12.92 1.904 17.952 5.712 5.168 3.808 9.452 8.908 12.852 15.3 3.4 6.256 5.916 13.192 7.548 20.808 1.632 7.48 2.448 14.892 2.448 22.236 0 7.616-.816 15.368-2.448 23.256-1.632 7.888-4.216 15.164-7.752 21.828-3.4 6.664-7.82 12.036-13.26 16.116-5.304 4.08-11.764 6.12-19.38 6.12Zm3.468-5.304c5.44 0 9.792-2.72 13.056-8.16 3.4-5.576 5.848-12.784 7.344-21.624 1.496-8.84 2.244-18.36 2.244-28.56 0-7.616-.612-15.096-1.836-22.44-1.088-7.344-2.856-14.008-5.304-19.992-2.312-5.984-5.236-10.744-8.772-14.28-3.4-3.536-7.412-5.304-12.036-5.304-5.44 0-9.792 2.652-13.056 7.956-3.128 5.304-5.44 12.376-6.936 21.216-1.36 8.704-2.04 18.156-2.04 28.356 0 7.616.544 15.164 1.632 22.644 1.224 7.48 2.924 14.28 5.1 20.4 2.312 5.984 5.168 10.812 8.568 14.484 3.4 3.536 7.412 5.304 12.036 5.304Zm94.548 5.304c-6.936 0-12.988-1.904-18.156-5.712-5.032-3.808-9.248-8.84-12.648-15.096-3.4-6.392-5.916-13.396-7.548-21.012-1.632-7.616-2.448-15.164-2.448-22.644 0-7.752.816-15.572 2.448-23.46 1.632-7.888 4.148-15.096 7.548-21.624 3.536-6.528 8.024-11.764 13.464-15.708 5.44-4.08 11.9-6.12 19.38-6.12 6.936 0 12.92 1.904 17.952 5.712 5.168 3.808 9.452 8.908 12.852 15.3 3.4 6.256 5.916 13.192 7.548 20.808 1.632 7.48 2.448 14.892 2.448 22.236 0 7.616-.816 15.368-2.448 23.256-1.632 7.888-4.216 15.164-7.752 21.828-3.4 6.664-7.82 12.036-13.26 16.116-5.304 4.08-11.764 6.12-19.38 6.12Zm3.468-5.304c5.44 0 9.792-2.72 13.056-8.16 3.4-5.576 5.848-12.784 7.344-21.624 1.496-8.84 2.244-18.36 2.244-28.56 0-7.616-.612-15.096-1.836-22.44-1.088-7.344-2.856-14.008-5.304-19.992-2.312-5.984-5.236-10.744-8.772-14.28-3.4-3.536-7.412-5.304-12.036-5.304-5.44 0-9.792 2.652-13.056 7.956-3.128 5.304-5.44 12.376-6.936 21.216-1.36 8.704-2.04 18.156-2.04 28.356 0 7.616.544 15.164 1.632 22.644 1.224 7.48 2.924 14.28 5.1 20.4 2.312 5.984 5.168 10.812 8.568 14.484 3.4 3.536 7.412 5.304 12.036 5.304Zm66.804 10.2c-1.496 0-3.128-.204-4.896-.612-1.768-.272-2.652-.884-2.652-1.836 0-1.088.884-2.04 2.652-2.856 1.904-.68 3.468-1.02 4.692-1.02 10.744 0 19.584-1.904 26.52-5.712 7.072-3.944 12.308-8.84 15.708-14.688 3.536-5.848 5.304-11.696 5.304-17.544 0-5.304-1.564-9.996-4.692-14.076s-8.296-7.82-15.504-11.22c-7.072-3.4-16.66-6.664-28.764-9.792-1.768-1.496-3.06-2.992-3.876-4.488-.68-1.496-1.02-3.128-1.02-4.896 0-1.904.34-4.216 1.02-6.936.816-2.72 1.768-5.576 2.856-8.568a694.434 694.434 0 0 1 3.264-9.18c1.088-2.992 1.972-5.576 2.652-7.752.68-2.04 1.7-3.604 3.06-4.692 1.36-1.224 3.128-2.108 5.304-2.652a197.81 197.81 0 0 1 9.588-2.244c3.264-.68 6.664-1.292 10.2-1.836 3.536-.68 7.14-1.224 10.812-1.632 3.808-.544 7.684-1.02 11.628-1.428 1.088-.136 1.836.204 2.244 1.02.544.68.544 1.496 0 2.448a90.642 90.642 0 0 1-1.836 3.468l-1.632 3.264c-.952 2.04-2.04 3.604-3.264 4.692-1.088.952-2.516 1.564-4.284 1.836-2.584.272-5.576.612-8.976 1.02-3.4.272-6.8.612-10.2 1.02-3.4.272-6.528.544-9.384.816-2.856.272-5.032.544-6.528.816-.952.136-2.108 1.36-3.468 3.672-1.36 2.176-2.584 4.556-3.672 7.14-1.088 2.448-1.7 4.216-1.836 5.304-.136.952-.068 1.768.204 2.448.408.68 1.224 1.156 2.448 1.428 7.616 2.176 14.552 4.42 20.808 6.732 6.256 2.176 11.696 4.488 16.32 6.936 7.616 3.944 13.26 8.636 16.932 14.076 3.808 5.304 5.712 12.104 5.712 20.4 0 7.48-2.244 14.484-6.732 21.012-4.488 6.528-10.54 11.968-18.156 16.32a68.463 68.463 0 0 1-11.628 5.1c-4.08 1.496-8.364 2.652-12.852 3.468-4.488.816-9.18 1.224-14.076 1.224Zm88.835-45.492c-.68 0-1.36-.272-2.04-.816-.544-.544-.816-1.088-.816-1.632 0-.68.136-1.7.408-3.06.272-1.36.748-2.584 1.428-3.672.816-1.224 1.836-1.836 3.06-1.836h84.252c.68 0 1.292.272 1.836.816.544.408.816.952.816 1.632 0 2.04-.68 4.012-2.04 5.916-1.224 1.768-2.652 2.652-4.284 2.652h-82.62Zm184.58 38.352c-.952 0-2.448-.068-4.488-.204-2.04-.136-4.352-.272-6.936-.408-2.584-.136-5.304-.272-8.16-.408a159.38 159.38 0 0 0-7.956-.204c-2.584 0-6.256.068-11.016.204-4.76.136-9.792.272-15.096.408-5.168 0-9.724.068-13.668.204-3.944.136-6.46.204-7.548.204-.544 0-1.36-.408-2.448-1.224-1.088-.952-1.632-1.7-1.632-2.244 0-.68.136-1.156.408-1.428l1.224-1.224 34.884-36.108a100.26 100.26 0 0 0 16.932-23.664c4.488-8.84 6.732-17.748 6.732-26.724 0-7.208-2.176-12.852-6.528-16.932-4.352-4.216-9.452-6.324-15.3-6.324-5.576 0-10.744 1.564-15.504 4.692-4.76 2.992-8.568 6.936-11.424 11.832a6.021 6.021 0 0 1-1.632 2.04c-.544.544-1.156.816-1.836.816-.544 0-1.224-.544-2.04-1.632-.68-1.224-1.02-2.72-1.02-4.488 0-1.632.952-3.876 2.856-6.732 2.04-2.856 4.828-5.78 8.364-8.772 3.536-2.992 7.752-5.508 12.648-7.548 4.896-2.176 10.2-3.264 15.912-3.264 6.8 0 12.648 1.428 17.544 4.284 4.896 2.856 8.636 6.8 11.22 11.832 2.584 5.032 3.876 10.88 3.876 17.544 0 3.672-.68 7.616-2.04 11.832-1.224 4.216-2.992 8.364-5.304 12.444a72.222 72.222 0 0 1-7.548 11.424c-1.768 2.176-4.42 5.1-7.956 8.772-3.4 3.536-7.14 7.344-11.22 11.424a963.257 963.257 0 0 1-11.424 11.628c-3.536 3.536-6.46 6.528-8.772 8.976-2.312 2.312-3.468 3.604-3.468 3.876 0 .68.952 1.156 2.856 1.428 2.312.136 4.896.272 7.752.408 2.992.136 6.392.204 10.2.204 3.944 0 7.888-.068 11.832-.204 3.944-.136 7.752-.272 11.424-.408 3.944-.272 7.004-.612 9.18-1.02 2.176-.408 4.012-1.224 5.508-2.448 1.496-1.36 3.06-3.4 4.696-6.12.54-.816 1.22-1.768 2.04-2.856.95-1.224 1.97-1.836 3.06-1.836.68 0 1.08.272 1.22.816.14.544.2 1.088.2 1.632 0 .68-.4 2.04-1.22 4.08-.68 1.904-1.5 4.284-2.45 7.14-.95 2.856-1.77 5.984-2.45 9.384-.4 2.176-1.08 3.536-2.036 4.08-.952.544-1.768.816-2.448.816Zm62.524 2.244c-6.94 0-12.99-1.904-18.16-5.712-5.03-3.808-9.25-8.84-12.65-15.096-3.4-6.392-5.91-13.396-7.55-21.012-1.63-7.616-2.44-15.164-2.44-22.644 0-7.752.81-15.572 2.44-23.46 1.64-7.888 4.15-15.096 7.55-21.624 3.54-6.528 8.03-11.764 13.47-15.708 5.44-4.08 11.9-6.12 19.38-6.12 6.93 0 12.92 1.904 17.95 5.712 5.17 3.808 9.45 8.908 12.85 15.3 3.4 6.256 5.92 13.192 7.55 20.808 1.63 7.48 2.45 14.892 2.45 22.236 0 7.616-.82 15.368-2.45 23.256-1.63 7.888-4.22 15.164-7.75 21.828-3.4 6.664-7.82 12.036-13.26 16.116-5.31 4.08-11.77 6.12-19.38 6.12Zm3.46-5.304c5.44 0 9.8-2.72 13.06-8.16 3.4-5.576 5.85-12.784 7.34-21.624 1.5-8.84 2.25-18.36 2.25-28.56 0-7.616-.61-15.096-1.84-22.44-1.09-7.344-2.85-14.008-5.3-19.992-2.31-5.984-5.24-10.744-8.77-14.28-3.4-3.536-7.42-5.304-12.04-5.304-5.44 0-9.79 2.652-13.06 7.956-3.12 5.304-5.44 12.376-6.93 21.216-1.36 8.704-2.04 18.156-2.04 28.356 0 7.616.54 15.164 1.63 22.644 1.22 7.48 2.92 14.28 5.1 20.4 2.31 5.984 5.17 10.812 8.57 14.484 3.4 3.536 7.41 5.304 12.03 5.304Zm130.05 3.06c-.95 0-2.45-.068-4.49-.204-2.04-.136-4.35-.272-6.94-.408-2.58-.136-5.3-.272-8.16-.408-2.72-.136-5.37-.204-7.95-.204-2.59 0-6.26.068-11.02.204-4.76.136-9.79.272-15.09.408-5.17 0-9.73.068-13.67.204-3.95.136-6.46.204-7.55.204-.54 0-1.36-.408-2.45-1.224-1.09-.952-1.63-1.7-1.63-2.244 0-.68.14-1.156.41-1.428.27-.272.68-.68 1.22-1.224l34.89-36.108c6.8-7.072 12.44-14.96 16.93-23.664 4.49-8.84 6.73-17.748 6.73-26.724 0-7.208-2.18-12.852-6.53-16.932-4.35-4.216-9.45-6.324-15.3-6.324-5.57 0-10.74 1.564-15.5 4.692-4.76 2.992-8.57 6.936-11.43 11.832-.4.816-.95 1.496-1.63 2.04-.54.544-1.15.816-1.83.816-.55 0-1.23-.544-2.04-1.632-.68-1.224-1.02-2.72-1.02-4.488 0-1.632.95-3.876 2.85-6.732 2.04-2.856 4.83-5.78 8.37-8.772 3.53-2.992 7.75-5.508 12.64-7.548 4.9-2.176 10.2-3.264 15.92-3.264 6.8 0 12.64 1.428 17.54 4.284 4.9 2.856 8.64 6.8 11.22 11.832 2.58 5.032 3.88 10.88 3.88 17.544 0 3.672-.68 7.616-2.04 11.832-1.23 4.216-3 8.364-5.31 12.444a71.548 71.548 0 0 1-7.55 11.424c-1.76 2.176-4.42 5.1-7.95 8.772-3.4 3.536-7.14 7.344-11.22 11.424-3.95 4.08-7.75 7.956-11.43 11.628-3.53 3.536-6.46 6.528-8.77 8.976-2.31 2.312-3.47 3.604-3.47 3.876 0 .68.96 1.156 2.86 1.428 2.31.136 4.9.272 7.75.408 2.99.136 6.39.204 10.2.204 3.95 0 7.89-.068 11.83-.204 3.95-.136 7.76-.272 11.43-.408 3.94-.272 7-.612 9.18-1.02 2.17-.408 4.01-1.224 5.51-2.448 1.49-1.36 3.06-3.4 4.69-6.12.54-.816 1.22-1.768 2.04-2.856.95-1.224 1.97-1.836 3.06-1.836.68 0 1.09.272 1.22.816.14.544.21 1.088.21 1.632 0 .68-.41 2.04-1.23 4.08-.68 1.904-1.49 4.284-2.45 7.14-.95 2.856-1.76 5.984-2.44 9.384-.41 2.176-1.09 3.536-2.04 4.08-.96.544-1.77.816-2.45.816Zm34.37 0c-.96 0-1.7-.272-2.25-.816-.54-.544-.81-1.088-.81-1.632 0-1.224 1.02-2.108 3.06-2.652 5.16-1.36 9.38-2.584 12.64-3.672 3.4-1.224 5.85-2.856 7.35-4.896 1.63-2.176 2.45-5.236 2.45-9.18v-77.928c0-2.584-.82-4.556-2.45-5.916-1.63-1.36-3.74-2.312-6.33-2.856-2.58-.544-5.37-.884-8.36-1.02-1.36-.136-2.58-.476-3.67-1.02-1.09-.544-1.63-1.36-1.63-2.448 0-.952.47-1.768 1.42-2.448 1.09-.68 2.32-1.088 3.68-1.224 6.12-.952 11.56-2.108 16.32-3.468 4.89-1.496 9.65-4.556 14.28-9.18.13-.136.27-.204.4-.204h.62c.68 0 1.29.204 1.83.612.55.272.75.68.61 1.224-.27 2.04-.47 4.284-.61 6.732-.13 2.312-.2 4.896-.2 7.752v93.84c0 3.4.61 5.984 1.83 7.752 1.36 1.768 3.61 3.196 6.74 4.284 3.12.952 7.48 2.108 13.05 3.468.82.136 1.57.476 2.25 1.02.81.408 1.22.952 1.22 1.632 0 1.496-.95 2.244-2.86 2.244-3.8 0-7.34-.136-10.6-.408l-9.39-.408a221.54 221.54 0 0 0-9.99-.204c-3.68 0-7.14.068-10.41.204l-9.79.408c-3.26.272-6.73.408-10.4.408Zm99.64 2.244c-2.99 0-5.64-1.088-7.95-3.264-2.18-2.312-3.27-4.964-3.27-7.956 0-3.128 1.09-5.78 3.27-7.956 2.31-2.176 4.96-3.264 7.95-3.264 3.13 0 5.78 1.088 7.96 3.264 2.17 2.176 3.26 4.828 3.26 7.956 0 2.992-1.09 5.644-3.26 7.956-2.18 2.176-4.83 3.264-7.96 3.264Zm69.91-1.836c-1.77 0-3.2-.272-4.29-.816-1.09-.408-1.63-1.02-1.63-1.836 0-.952.54-1.768 1.63-2.448 1.23-.816 2.93-1.564 5.1-2.244 3.54-1.088 6.8-2.72 9.79-4.896 3-2.176 5.58-5.78 7.76-10.812 3.8-8.704 7.27-16.864 10.4-24.48a733.168 733.168 0 0 0 9.18-22.44c2.86-7.344 5.78-14.96 8.77-22.848 3.13-8.024 6.39-16.728 9.79-26.112.68-1.904 1.3-3.808 1.84-5.712s.88-3.944 1.02-6.12c1.22-.408 2.45-.816 3.67-1.224 1.23-.408 2.45-1.02 3.67-1.836 1.23-.816 2.04-2.04 2.45-3.672.55-1.632 1.02-2.72 1.43-3.264.14-.136.27-.204.41-.204.27 0 .47.136.61.408.27.544.48 1.224.61 2.04.27.816.55 1.632.82 2.448 3.26 10.336 6.66 20.876 10.2 31.62 3.53 10.744 6.93 21.148 10.2 31.212 3.4 9.928 6.46 18.904 9.18 26.928 2.85 7.888 5.1 14.28 6.73 19.176 1.9 5.44 3.94 9.52 6.12 12.24 2.18 2.72 4.42 4.624 6.73 5.712a36.803 36.803 0 0 0 7.75 2.448c2.32.408 4.02 1.088 5.1 2.04 1.09.816 1.64 1.7 1.64 2.652 0 .816-.55 1.36-1.64 1.632-1.08.272-2.51.408-4.28.408-1.9 0-4.49-.136-7.75-.408-3.27-.136-6.73-.34-10.41-.612-3.67-.136-7.07-.204-10.2-.204h-7.95c-2.72 0-5.24.068-7.55.204h-5.92c-1.76 0-3.19-.204-4.28-.612-1.09-.408-1.63-1.02-1.63-1.836 0-.952.68-1.768 2.04-2.448 1.36-.68 2.92-1.156 4.69-1.428 4.49-.68 7.68-1.836 9.59-3.468 1.9-1.632 2.85-3.536 2.85-5.712 0-2.04-.47-4.964-1.42-8.772-.82-3.944-1.84-8.092-3.06-12.444-1.23-4.488-2.38-8.432-3.47-11.832-.27-1.088-.82-1.7-1.63-1.836-.68-.272-1.98-.408-3.88-.408h-38.56c-.54 0-1.15.272-1.83.816-.55.408-1.09 1.36-1.63 2.856-.41 1.36-1.09 3.536-2.04 6.528-.96 2.856-1.91 5.916-2.86 9.18-.95 3.264-1.77 6.188-2.45 8.772-.68 2.584-1.02 4.216-1.02 4.896 0 2.992 1.16 5.508 3.47 7.548 2.31 1.904 5.1 3.264 8.36 4.08 4.49 1.224 6.74 2.584 6.74 4.08 0 .816-.55 1.428-1.64 1.836-1.08.272-2.51.408-4.28.408-1.77 0-4.35-.068-7.75-.204-3.4-.136-7.01-.204-10.81-.204-4.49 0-8.84.204-13.06.612-4.22.408-8.02.612-11.42.612Zm47.73-58.548h31.62c1.91 0 2.86-.34 2.86-1.02 0-.272-.07-.544-.21-.816 0-.408-.06-.816-.2-1.224l-15.91-49.776c-.82-2.448-1.43-3.672-1.84-3.672-.27 0-.81 1.156-1.63 3.468l-18.56 49.98c-.28.816-.41 1.36-.41 1.632 0 .68.34 1.088 1.02 1.224.81.136 1.9.204 3.26.204Zm95.96 58.14c-.68 0-1.56-.136-2.65-.408-.95-.136-1.43-.612-1.43-1.428 0-1.088.48-1.836 1.43-2.244 1.09-.544 2.17-1.02 3.26-1.428 2.04-.68 4.01-1.428 5.92-2.244 1.9-.952 2.85-2.788 2.85-5.508V746.536c0-3.944-.74-7.208-2.24-9.792-1.36-2.72-3.74-4.42-7.14-5.1-1.09-.272-1.63-1.156-1.63-2.652 0-1.36.47-2.176 1.43-2.448 3.53-.816 6.59-1.632 9.18-2.448 2.58-.952 4.96-1.904 7.14-2.856 2.31-.952 4.55-1.836 6.73-2.652.54-.272.95-.408 1.22-.408s.48.204.61.612c.28.272.41.544.41.816 0 1.224-.27 3.876-.81 7.956-.41 3.944-.62 10.54-.62 19.788v102c0 2.72.96 4.556 2.86 5.508 1.9.816 3.88 1.564 5.92 2.244 1.08.408 2.1.884 3.06 1.428 1.08.408 1.63 1.156 1.63 2.244 0 .816-.55 1.292-1.63 1.428-.96.272-1.77.408-2.45.408-2.59 0-4.69-.136-6.33-.408l-4.48-.408c-1.36-.136-3.27-.204-5.72-.204-2.31 0-4.21.068-5.71.204l-4.49.408c-1.49.272-3.6.408-6.32.408Zm49.01 0c-.68 0-1.57-.136-2.65-.408-.96-.136-1.43-.612-1.43-1.428 0-1.088.47-1.836 1.43-2.244 1.08-.544 2.17-1.02 3.26-1.428 2.04-.68 4.01-1.428 5.92-2.244 1.9-.952 2.85-2.788 2.85-5.508V746.536c0-3.944-.75-7.208-2.24-9.792-1.36-2.72-3.74-4.42-7.14-5.1-1.09-.272-1.63-1.156-1.63-2.652 0-1.36.47-2.176 1.42-2.448 3.54-.816 6.6-1.632 9.18-2.448a126.22 126.22 0 0 0 7.14-2.856c2.32-.952 4.56-1.836 6.74-2.652.54-.272.95-.408 1.22-.408s.48.204.61.612c.27.272.41.544.41.816 0 1.224-.27 3.876-.82 7.956-.4 3.944-.61 10.54-.61 19.788v102c0 2.72.95 4.556 2.86 5.508 1.9.816 3.87 1.564 5.91 2.244 1.09.408 2.11.884 3.06 1.428 1.09.408 1.64 1.156 1.64 2.244 0 .816-.55 1.292-1.64 1.428-.95.272-1.76.408-2.44.408-2.59 0-4.7-.136-6.33-.408l-4.49-.408c-1.36-.136-3.26-.204-5.71-.204-2.31 0-4.21.068-5.71.204l-4.49.408c-1.49.272-3.6.408-6.32.408Zm91.89 0c-1.36 0-2.38-.204-3.06-.612-.68-.272-1.02-.816-1.02-1.632 0-1.088.4-1.768 1.22-2.04.82-.408 1.97-.816 3.47-1.224 2.58-.68 4.49-1.632 5.71-2.856 1.36-1.36 2.04-2.992 2.04-4.896v-43.86c0-3.672-.54-6.868-1.63-9.588-1.09-2.72-3.33-4.42-6.73-5.1-.55-.136-1.02-.476-1.43-1.02-.41-.544-.61-1.088-.61-1.632 0-1.36.61-2.176 1.83-2.448 3.54-1.088 7.21-2.652 11.02-4.692 3.94-2.176 7-3.944 9.18-5.304.81-.544 1.43-.884 1.83-1.02.55-.272.96-.408 1.23-.408.68 0 1.02.476 1.02 1.428 0 .408-.07 1.428-.21 3.06 0 1.632-.06 3.536-.2 5.712 0 2.176-.07 4.352-.2 6.528 0 .272.13.408.4.408 2.18-2.72 4.56-5.1 7.14-7.14 2.72-2.04 5.44-3.672 8.16-4.896 2.86-1.224 5.58-1.836 8.16-1.836 2.86 0 5.17.612 6.94 1.836 1.9 1.224 2.86 2.788 2.86 4.692 0 1.36-.41 2.856-1.23 4.488a13.189 13.189 0 0 1-2.85 4.284c-1.23 1.224-2.52 1.836-3.88 1.836-.82 0-1.7-.136-2.65-.408-.95-.408-1.97-.884-3.06-1.428l-3.27-1.224a9.177 9.177 0 0 0-3.26-.612c-3.26 0-6.46 1.156-9.59 3.468-2.99 2.312-4.49 6.868-4.49 13.668v41.208c0 1.768.96 3.264 2.86 4.488 1.9 1.088 4.56 2.176 7.96 3.264 1.49.408 2.65.816 3.46 1.224.82.408 1.23 1.088 1.23 2.04 0 1.496-1.36 2.244-4.08 2.244-4.08 0-7.21-.204-9.39-.612-2.04-.272-4.82-.408-8.36-.408-2.31 0-4.22.068-5.71.204-1.36.136-2.86.272-4.49.408-1.5.272-3.6.408-6.32.408Zm67.11 0c-1.23 0-2.25-.204-3.06-.612-.68-.272-1.02-.816-1.02-1.632 0-1.088.47-1.836 1.43-2.244 1.08-.408 2.17-.748 3.26-1.02 2.86-.68 5.03-1.496 6.53-2.448 1.49-1.088 2.24-2.856 2.24-5.304v-44.268c0-3.672-.68-6.936-2.04-9.792-1.22-2.856-3.6-4.556-7.14-5.1-.68-.136-1.22-.408-1.63-.816-.27-.408-.41-1.02-.41-1.836 0-1.496.61-2.312 1.84-2.448 5.44-1.224 9.93-2.856 13.46-4.896 3.54-2.176 6.19-3.944 7.96-5.304 1.22-.952 2.17-1.428 2.85-1.428.82 0 1.23.34 1.23 1.02 0 1.088-.21 3.264-.61 6.528-.28 3.128-.55 6.664-.82 10.608-.27 3.808-.41 7.276-.41 10.404v47.328c0 2.312.75 4.012 2.25 5.1 1.63 1.088 3.8 1.972 6.52 2.652 1.09.272 2.11.612 3.06 1.02 1.09.408 1.64 1.156 1.64 2.244 0 1.496-1.36 2.244-4.08 2.244-2.59 0-4.7-.136-6.33-.408l-4.49-.408c-1.36-.136-3.26-.204-5.71-.204-2.31 0-4.21.068-5.71.204l-4.49.408c-1.49.272-3.6.408-6.32.408Zm16.32-105.876c-2.86 0-5.31-.952-7.35-2.856-1.9-2.04-2.85-4.488-2.85-7.344 0-2.992.95-5.44 2.85-7.344 2.04-2.04 4.49-3.06 7.35-3.06 2.99 0 5.44 1.02 7.34 3.06 2.04 1.904 3.06 4.352 3.06 7.344 0 2.856-1.02 5.304-3.06 7.344-1.9 1.904-4.35 2.856-7.34 2.856Zm64.49 164.424c-11.56 0-20.74-2.244-27.54-6.732-6.67-4.352-10-10.268-10-17.748 0-3.536.54-6.528 1.63-8.976 1.09-2.448 2.79-4.556 5.1-6.324 1.91-1.632 4.42-3.74 7.55-6.324 3.26-2.448 6.6-5.032 10-7.752l8.56.408c-6.52 4.216-11.08 8.228-13.66 12.036-2.59 3.808-3.88 8.432-3.88 13.872 0 5.44 2.38 9.996 7.14 13.668 4.9 3.808 10.88 5.712 17.95 5.712 8.03 0 14.49-1.836 19.38-5.508 3.4-2.584 6.05-5.984 7.96-10.2 1.9-4.08 2.85-8.432 2.85-13.056 0-2.992-1.08-5.508-3.26-7.548-2.04-1.904-5.3-3.468-9.79-4.692-4.49-1.224-10.34-2.04-17.55-2.448-12.78-.952-21.69-2.652-26.72-5.1-4.9-2.448-7.34-6.256-7.34-11.424 0-1.36.34-2.584 1.02-3.672.81-1.224 2.04-2.516 3.67-3.876 3.13-2.448 5.44-4.216 6.93-5.304 1.5-1.224 2.59-2.244 3.27-3.06.81-.816 1.56-1.836 2.24-3.06l6.94 3.468c-2.99 1.088-5.51 2.584-7.55 4.488-2.04 1.768-3.06 3.4-3.06 4.896 0 1.904 1.02 3.604 3.06 5.1 2.04 1.36 5.03 2.448 8.98 3.264 3.94.816 8.77 1.428 14.48 1.836 12.51.68 21.83 2.72 27.95 6.12 6.12 3.4 9.18 8.228 9.18 14.484 0 5.304-1.36 10.472-4.08 15.504-2.59 5.168-6.05 9.86-10.41 14.076-4.35 4.216-9.24 7.548-14.68 9.996-5.31 2.584-10.75 3.876-16.32 3.876Zm2.44-87.924c5.17 0 9.46-2.584 12.86-7.752 3.4-5.304 5.1-11.832 5.1-19.584 0-3.944-.96-7.616-2.86-11.016-1.77-3.536-4.15-6.324-7.14-8.364-2.86-2.176-5.98-3.264-9.38-3.264-3.13 0-6.12 1.156-8.98 3.468-2.72 2.176-4.96 5.032-6.73 8.568-1.63 3.536-2.45 7.412-2.45 11.628 0 4.76.88 9.18 2.65 13.26 1.77 3.944 4.15 7.14 7.14 9.588 2.99 2.312 6.26 3.468 9.79 3.468Zm-1.22 7.14c-5.58 0-10.88-1.428-15.91-4.284-5.03-2.856-9.18-6.596-12.45-11.22-3.12-4.76-4.69-9.928-4.69-15.504 0-6.392 1.63-11.968 4.9-16.728 3.4-4.896 7.82-8.704 13.26-11.424 5.44-2.72 11.22-4.08 17.34-4.08 3.94 0 7.34.544 10.2 1.632 2.99.952 5.91 1.836 8.77 2.652 3.26.952 5.85 1.564 7.75 1.836 1.91.136 3.88.204 5.92.204 1.63 0 3.67-.068 6.12-.204 2.45-.272 4.15-.408 5.1-.408 1.77 0 2.65 1.02 2.65 3.06 0 1.224-.68 2.516-2.04 3.876-.68.68-1.22 1.02-1.63 1.02h-5.51c-3.67 0-5.71.544-6.12 1.632-.14.544-.34 1.36-.61 2.448-.14.952-.27 2.04-.41 3.264-.14 1.224-.2 2.448-.2 3.672 0 6.936-1.5 13.328-4.49 19.176-2.99 5.848-6.94 10.54-11.83 14.076-4.9 3.536-10.27 5.304-16.12 5.304Zm55.61 22.236c-2.72 0-4.08-.748-4.08-2.244 0-1.224 1.56-2.312 4.69-3.264a27.4 27.4 0 0 0 5.71-2.652c1.9-1.088 2.92-2.992 3.06-5.712V746.536c0-3.672-.61-6.868-1.84-9.588-1.22-2.856-3.6-4.556-7.14-5.1-1.22-.272-1.83-1.224-1.83-2.856 0-1.224.54-2.04 1.63-2.448 1.9-.68 4.15-1.428 6.73-2.244 2.72-.816 5.51-1.7 8.37-2.652 2.85-1.088 5.37-2.108 7.54-3.06.55-.272.96-.408 1.23-.408.41 0 .75.136 1.02.408.27.272.41.612.41 1.02 0 .816-.21 1.972-.62 3.468-.27 1.496-.54 4.08-.81 7.752-.27 3.672-.41 9.18-.41 16.524v35.496c0 2.176.07 3.74.2 4.692.28.952.68 1.904 1.23 2.856 2.17-1.632 4.83-3.4 7.95-5.304 3.27-2.04 6.87-3.808 10.82-5.304a34.2 34.2 0 0 1 12.24-2.244c6.66 0 12.17 2.652 16.52 7.956 4.49 5.168 6.73 11.764 6.73 19.788v42.84c0 2.72.89 4.76 2.65 6.12a22.549 22.549 0 0 0 5.72 2.856c1.49.408 2.65.884 3.46 1.428.82.408 1.23 1.02 1.23 1.836 0 1.496-1.36 2.244-4.08 2.244-2.72 0-4.83-.136-6.33-.408l-4.08-.408c-1.22-.136-3.06-.204-5.5-.204-2.32 0-4.15.068-5.51.204-1.36.136-2.79.272-4.29.408-1.36.272-3.4.408-6.12.408s-4.08-.748-4.08-2.244c0-.952.41-1.564 1.23-1.836.81-.408 1.97-.884 3.47-1.428 2.04-.68 3.87-1.632 5.5-2.856 1.64-1.36 2.45-3.4 2.45-6.12v-41.616c0-3.4-1.02-6.46-3.06-9.18-1.9-2.856-4.28-5.1-7.14-6.732-2.85-1.632-5.78-2.448-8.77-2.448-2.58 0-5.58.408-8.98 1.224-3.4.68-6.05 1.768-7.95 3.264-2.18 1.768-3.67 3.604-4.49 5.508-.68 1.904-1.02 4.964-1.02 9.18v41.412c.14 2.72.95 4.624 2.45 5.712 1.63 1.088 3.47 1.972 5.51 2.652 1.49.408 2.58.884 3.26 1.428.82.408 1.22 1.02 1.22 1.836 0 1.496-1.36 2.244-4.08 2.244-2.72 0-4.76-.136-6.12-.408-1.36-.136-2.65-.272-3.87-.408-1.23-.136-3.06-.204-5.51-.204-2.31 0-4.22.068-5.71.204-1.36.136-2.86.272-4.49.408-1.5.272-3.6.408-6.32.408Zm135.58 2.244c-6.66 0-11.9-2.04-15.7-6.12-3.68-4.08-5.51-10.132-5.51-18.156v-47.328c0-1.088-.41-1.836-1.23-2.244-.81-.544-2.58-.816-5.3-.816h-1.22c-.68 0-1.3-.408-1.84-1.224a7.162 7.162 0 0 1-.61-2.856c0-.272.2-.68.61-1.224.41-.544.68-.884.82-1.02 2.72-1.904 5.16-3.808 7.34-5.712 2.31-1.904 4.35-3.74 6.12-5.508 1.9-1.904 3.47-3.604 4.69-5.1.68-.68 1.23-1.224 1.63-1.632.55-.544 1.16-.816 1.84-.816.68 0 1.29.136 1.84.408.68.272.95.884.81 1.836l-1.02 9.18c-.13 1.496.21 2.516 1.02 3.06.82.544 2.11.816 3.88.816h23.25c.55 0 1.02.476 1.43 1.428.41.816.61 1.836.61 3.06s-.2 2.448-.61 3.672c-.41 1.088-.88 1.632-1.43 1.632h-20.19c-3.4 0-5.65.272-6.73.816-.96.544-1.43 2.176-1.43 4.896v40.188c0 5.44 1.15 9.724 3.47 12.852 2.31 3.128 5.64 4.692 9.99 4.692 3.95 0 7.01-.272 9.18-.816 2.18-.68 4.15-1.632 5.92-2.856.27-.272.54-.408.81-.408.55 0 .89.34 1.02 1.02.28.544.41 1.156.41 1.836 0 .68-1.15 2.04-3.47 4.08-2.17 2.04-5.1 3.944-8.77 5.712-3.53 1.768-7.41 2.652-11.63 2.652Zm54.97 0c-4.21 0-8.16-.68-11.83-2.04-3.67-1.224-6.8-2.992-9.38-5.304-.68-1.496-1.23-4.012-1.64-7.548-.27-3.536-.47-6.46-.61-8.772 0-1.224.89-1.836 2.65-1.836.55 0 1.02.136 1.43.408.55.136.89.476 1.02 1.02 1.77 6.664 4.56 11.424 8.37 14.28 3.94 2.856 7.88 4.284 11.83 4.284 3.94 0 7.27-1.292 9.99-3.876 2.86-2.72 4.29-6.052 4.29-9.996 0-3.672-1.23-6.8-3.67-9.384-2.45-2.72-6.74-5.984-12.86-9.792-4.62-2.856-8.36-5.576-11.22-8.16-2.85-2.584-4.96-5.236-6.32-7.956-1.22-2.72-1.84-5.78-1.84-9.18 0-4.352 1.02-8.296 3.06-11.832 2.04-3.536 5.1-6.324 9.18-8.364 4.08-2.176 9.18-3.264 15.3-3.264 4.08 0 7.48.408 10.2 1.224 2.72.816 4.76 1.7 6.12 2.652 1.09 1.496 1.98 3.876 2.66 7.14.81 3.128 1.22 6.12 1.22 8.976 0 .952-.68 1.428-2.04 1.428-.82 0-1.63-.136-2.45-.408-.68-.408-1.15-.884-1.43-1.428-1.76-4.488-4.01-7.888-6.73-10.2-2.58-2.448-5.85-3.672-9.79-3.672-3.4 0-6.46 1.02-9.18 3.06-2.58 2.04-3.88 5.032-3.88 8.976 0 3.128.96 5.916 2.86 8.364 2.04 2.448 5.78 5.236 11.22 8.364 7.89 4.488 13.74 8.704 17.54 12.648 3.95 3.808 5.92 8.908 5.92 15.3 0 7.344-2.79 13.328-8.36 17.952-5.58 4.624-12.79 6.936-21.63 6.936Z" fill="#D2E3FC"/></g></svg>