<svg width="1920" height="1080" fill="none" xmlns="http://www.w3.org/2000/svg"><g clip-path="url(#a)"><path fill="#FF6D7F" d="M1595 219h179v644h-179z"/><path d="M1717.97 664H1652V296.032h65.97V664Z" fill="#3C4043"/><path fill="#FF6D7F" d="M1056 218.798h466.538V863H1056z"/><path d="M1435.68 664h-65.96V500.63h-161.83V664h-65.96V296.032h65.96v148.424h161.83V296.032h65.96V664Z" fill="#3C4043"/><path fill="#FF6D7F" d="M429.157 179.183 549.362 110 935.11 332.013l-120.205 69.183z"/><path d="m761.249 246.898-34.37 19.842-191.722-110.681 34.371-19.842 191.721 110.681Z" fill="#3C4043"/><path d="M535.504 195.173v-39l191.5 110.5v39l-191.5-110.5Z" fill="#D2E3FC"/><path d="M727.157 305.484V266.7l34-19.5v39l-34 19.284ZM814.66 401.321l120.092-70.877L928.5 710.2l-113.84 63.5V401.321Z" fill="#B1CBF1"/><path d="m429.34 179.7 385.5 222.052v373L429.34 552.7v-373Z" fill="#D2E3FC"/><path fill="#FF6D7F" d="M118.157 368.483 374.409 221l385.748 222.013-256.252 147.483z"/><path d="M342.848 315.848v-39l191.719 110.027.047 39.648-191.766-110.675Z" fill="#D2E3FC"/><path d="M449.158 377.5V339l-84.5 48.5 30 21.5 54.5-31.5Z" fill="#B1CBF1"/><path d="m568.934 367.681-34.37 19.842-85.12-49.14-84.315 48.675 85.12 49.14-34.37 19.842-191.722-110.681 34.371-19.842 77.333 44.644 84.314-48.674-77.333-44.645L377.212 257l191.722 110.681Z" fill="#3C4043"/><path d="M224.176 384.352v-38.985l191.828 110.606v39L224.176 384.352Z" fill="#D2E3FC"/><path d="M416.004 494.953v-38.981l34.234-19.77.002 39.298-34.236 19.453ZM534.612 426.476v-38.938l34.305-19.854.003 40.126-34.308 18.666ZM503.66 590.621 760.173 443l-6.252 379.756L503.66 963.092V590.621Z" fill="#B1CBF1"/><path d="m118.34 369 385.5 222.052v373L118.34 742V369Z" fill="#D2E3FC"/></g><defs><clipPath id="a"><path fill="#fff" d="M0 0h1920v1080H0z"/></clipPath></defs></svg>