<svg width="1920" height="1080" fill="none" xmlns="http://www.w3.org/2000/svg"><g clip-path="url(#a)"><path fill="#fff" d="M243 218h705v906H243z"/><path d="M289 339h23.203v-15.469H289V339Zm22.5 0h23.203v-15.469H311.5V339Zm22.5 0h23.203v-15.469H334V339Zm22.5 0h23.203v-15.469H356.5V339Zm22.5 0h23.203v-15.469H379V339Zm67.641 0h23.203v-15.469h-23.203V339Zm22.5 0h23.203v-15.469h-23.203V339Zm22.5 0h23.203v-15.469h-23.203V339Zm22.5 0h23.203v-15.469h-23.203V339Zm22.5 0h23.203v-15.469h-23.203V339Zm22.5 0h23.203v-15.469h-23.203V339Zm22.5 0h23.203v-15.469h-23.203V339Zm22.5 0h23.203v-15.469h-23.203V339Zm22.5 0h23.203v-15.469h-23.203V339Zm67.64 0h23.203v-15.469h-23.203V339Zm22.5 0h23.203v-15.469h-23.203V339Zm22.5 0h23.203v-15.469h-23.203V339Zm22.5 0h23.203v-15.469h-23.203V339Zm67.641 0h23.203v-15.469h-23.203V339Zm22.5 0h23.203v-15.469h-23.203V339Zm22.5 0h23.203v-15.469h-23.203V339ZM289 375h23.203v-15.469H289V375Zm22.5 0h23.203v-15.469H311.5V375Zm22.5 0h23.203v-15.469H334V375Zm22.5 0h23.203v-15.469H356.5V375Zm22.5 0h23.203v-15.469H379V375Zm22.5 0h23.203v-15.469H401.5V375Zm22.5 0h23.203v-15.469H424V375Zm22.5 0h23.203v-15.469H446.5V375Zm22.5 0h23.203v-15.469H469V375Zm22.5 0h23.203v-15.469H491.5V375Zm22.5 0h23.203v-15.469H514V375Zm22.5 0h23.203v-15.469H536.5V375Zm22.5 0h23.203v-15.469H559V375Zm22.5 0h23.203v-15.469H581.5V375Zm67.641 0h23.203v-15.469h-23.203V375Zm22.5 0h23.203v-15.469h-23.203V375Zm22.5 0h23.203v-15.469h-23.203V375Zm22.5 0h23.203v-15.469h-23.203V375Zm22.5 0h23.203v-15.469h-23.203V375Zm22.5 0h23.203v-15.469h-23.203V375Zm22.5 0h23.203v-15.469h-23.203V375ZM289 411h23.203v-15.469H289V411Zm22.5 0h23.203v-15.469H311.5V411Zm22.5 0h23.203v-15.469H334V411Zm22.5 0h23.203v-15.469H356.5V411Zm22.5 0h23.203v-15.469H379V411Zm22.5 0h23.203v-15.469H401.5V411Zm22.5 0h23.203v-15.469H424V411Zm22.5 0h23.203v-15.469H446.5V411Zm22.5 0h23.203v-15.469H469V411Zm67.641 0h23.203v-15.469h-23.203V411Zm22.5 0h23.203v-15.469h-23.203V411Zm22.5 0h23.203v-15.469h-23.203V411Zm22.5 0h23.203v-15.469h-23.203V411Zm22.5 0h23.203v-15.469h-23.203V411Zm22.5 0h23.203v-15.469h-23.203V411Zm67.64 0h23.203v-15.469h-23.203V411Zm22.5 0h23.203v-15.469h-23.203V411Zm22.5 0h23.203v-15.469h-23.203V411Zm22.5 0h23.203v-15.469h-23.203V411Zm22.5 0h23.203v-15.469h-23.203V411Zm22.5 0h23.203v-15.469h-23.203V411ZM289 447h23.203v-15.469H289V447Zm22.5 0h23.203v-15.469H311.5V447Zm22.5 0h23.203v-15.469H334V447Zm67.641 0h23.203v-15.469h-23.203V447Zm22.5 0h23.203v-15.469h-23.203V447Zm22.5 0h23.203v-15.469h-23.203V447Zm22.5 0h23.203v-15.469h-23.203V447Zm22.5 0h23.203v-15.469h-23.203V447Zm22.5 0h23.203v-15.469h-23.203V447Zm22.5 0h23.203v-15.469h-23.203V447Zm22.5 0h23.203v-15.469h-23.203V447Zm22.5 0h23.203v-15.469h-23.203V447Zm67.64 0h23.203v-15.469h-23.203V447Zm22.5 0h23.203v-15.469h-23.203V447Zm22.5 0h23.203v-15.469h-23.203V447Zm22.5 0h23.203v-15.469h-23.203V447Zm22.5 0h23.203v-15.469h-23.203V447Zm22.5 0h23.203v-15.469h-23.203V447Zm22.5 0h23.203v-15.469h-23.203V447Zm22.5 0h23.203v-15.469h-23.203V447Zm22.5 0h23.203v-15.469h-23.203V447Zm22.5 0h23.203v-15.469h-23.203V447Zm22.5 0h23.203v-15.469h-23.203V447ZM289 483h23.203v-15.469H289V483Zm22.5 0h23.203v-15.469H311.5V483Zm67.641 0h23.203v-15.469h-23.203V483Zm67.64 0h23.203v-15.469h-23.203V483Zm22.5 0h23.203v-15.469h-23.203V483Zm22.5 0h23.203v-15.469h-23.203V483Zm22.5 0h23.203v-15.469h-23.203V483Zm22.5 0h23.203v-15.469h-23.203V483Zm22.5 0h23.203v-15.469h-23.203V483Zm22.5 0h23.203v-15.469h-23.203V483Zm22.5 0h23.203v-15.469h-23.203V483Zm22.5 0h23.203v-15.469h-23.203V483Zm22.5 0h23.203v-15.469h-23.203V483Zm22.5 0h23.203v-15.469h-23.203V483Zm22.5 0h23.203v-15.469h-23.203V483Zm22.5 0h23.203v-15.469h-23.203V483Zm67.641 0h23.203v-15.469h-23.203V483Zm22.5 0h23.203v-15.469h-23.203V483Zm22.5 0h23.203v-15.469h-23.203V483Zm22.5 0h23.203v-15.469h-23.203V483ZM289 519h23.203v-15.469H289V519Zm22.5 0h23.203v-15.469H311.5V519Zm22.5 0h23.203v-15.469H334V519Zm22.5 0h23.203v-15.469H356.5V519Zm22.5 0h23.203v-15.469H379V519Zm22.5 0h23.203v-15.469H401.5V519Zm22.5 0h23.203v-15.469H424V519Zm67.641 0h23.203v-15.469h-23.203V519Zm22.5 0h23.203v-15.469h-23.203V519Zm67.64 0h23.203v-15.469h-23.203V519Zm22.5 0h23.203v-15.469h-23.203V519Zm67.641 0h23.203v-15.469h-23.203V519Zm22.5 0h23.203v-15.469h-23.203V519Zm22.5 0h23.203v-15.469h-23.203V519Zm22.5 0h23.203v-15.469h-23.203V519Zm67.64 0h23.204v-15.469h-23.204V519Zm22.5 0h23.204v-15.469h-23.204V519ZM289 555h23.203v-15.469H289V555Zm22.5 0h23.203v-15.469H311.5V555Zm22.5 0h23.203v-15.469H334V555Zm22.5 0h23.203v-15.469H356.5V555Zm22.5 0h23.203v-15.469H379V555Zm22.5 0h23.203v-15.469H401.5V555Zm67.641 0h23.203v-15.469h-23.203V555Zm22.5 0h23.203v-15.469h-23.203V555Zm22.5 0h23.203v-15.469h-23.203V555Zm22.5 0h23.203v-15.469h-23.203V555Zm22.5 0h23.203v-15.469h-23.203V555Zm67.64 0h23.203v-15.469h-23.203V555Zm67.641 0h23.203v-15.469h-23.203V555Zm22.5 0h23.203v-15.469h-23.203V555Zm22.5 0h23.203v-15.469h-23.203V555Zm22.5 0h23.203v-15.469h-23.203V555Zm22.5 0h23.203v-15.469h-23.203V555Zm22.5 0h23.203v-15.469h-23.203V555Zm22.5 0h23.203v-15.469h-23.203V555ZM289 591h23.203v-15.469H289V591Zm22.5 0h23.203v-15.469H311.5V591Zm67.641 0h23.203v-15.469h-23.203V591Zm22.5 0h23.203v-15.469h-23.203V591Zm22.5 0h23.203v-15.469h-23.203V591Zm22.5 0h23.203v-15.469h-23.203V591Zm22.5 0h23.203v-15.469h-23.203V591Zm22.5 0h23.203v-15.469h-23.203V591Zm22.5 0h23.203v-15.469h-23.203V591Zm22.5 0h23.203v-15.469h-23.203V591Zm67.64 0h23.203v-15.469h-23.203V591Zm22.5 0h23.203v-15.469h-23.203V591Zm22.5 0h23.203v-15.469h-23.203V591Zm22.5 0h23.203v-15.469h-23.203V591Zm22.5 0h23.203v-15.469h-23.203V591Zm22.5 0h23.203v-15.469h-23.203V591Zm22.5 0h23.203v-15.469h-23.203V591Zm22.5 0h23.203v-15.469h-23.203V591Zm22.5 0h23.203v-15.469h-23.203V591Zm22.5 0h23.203v-15.469h-23.203V591ZM289 627h23.203v-15.469H289V627Zm22.5 0h23.203v-15.469H311.5V627Zm22.5 0h23.203v-15.469H334V627Zm22.5 0h23.203v-15.469H356.5V627Zm67.641 0h23.203v-15.469h-23.203V627Zm22.5 0h23.203v-15.469h-23.203V627Zm22.5 0h23.203v-15.469h-23.203V627Zm22.5 0h23.203v-15.469h-23.203V627Zm22.5 0h23.203v-15.469h-23.203V627Zm22.5 0h23.203v-15.469h-23.203V627Zm22.5 0h23.203v-15.469h-23.203V627Zm22.5 0h23.203v-15.469h-23.203V627Zm22.5 0h23.203v-15.469h-23.203V627Zm22.5 0h23.203v-15.469h-23.203V627Zm22.5 0h23.203v-15.469h-23.203V627Zm67.64 0h23.203v-15.469h-23.203V627Zm22.5 0h23.203v-15.469h-23.203V627Zm22.5 0h23.203v-15.469h-23.203V627Zm22.5 0h23.203v-15.469h-23.203V627ZM289 663h23.203v-15.469H289V663Zm22.5 0h23.203v-15.469H311.5V663Zm22.5 0h23.203v-15.469H334V663Zm22.5 0h23.203v-15.469H356.5V663Zm22.5 0h23.203v-15.469H379V663Zm22.5 0h23.203v-15.469H401.5V663Zm22.5 0h23.203v-15.469H424V663Zm22.5 0h23.203v-15.469H446.5V663Zm22.5 0h23.203v-15.469H469V663Zm22.5 0h23.203v-15.469H491.5V663Zm22.5 0h23.203v-15.469H514V663Zm22.5 0h23.203v-15.469H536.5V663Zm22.5 0h23.203v-15.469H559V663Zm22.5 0h23.203v-15.469H581.5V663Zm22.5 0h23.203v-15.469H604V663Zm67.641 0h23.203v-15.469h-23.203V663Zm22.5 0h23.203v-15.469h-23.203V663Zm22.5 0h23.203v-15.469h-23.203V663Zm22.5 0h23.203v-15.469h-23.203V663Zm67.64 0h23.203v-15.469h-23.203V663Zm22.5 0h23.203v-15.469h-23.203V663Zm22.5 0h23.203v-15.469h-23.203V663ZM289 699h23.203v-15.469H289V699Zm22.5 0h23.203v-15.469H311.5V699Zm22.5 0h23.203v-15.469H334V699Zm22.5 0h23.203v-15.469H356.5V699Zm22.5 0h23.203v-15.469H379V699Zm67.641 0h23.203v-15.469h-23.203V699Zm22.5 0h23.203v-15.469h-23.203V699Zm22.5 0h23.203v-15.469h-23.203V699Zm22.5 0h23.203v-15.469h-23.203V699Zm22.5 0h23.203v-15.469h-23.203V699Zm22.5 0h23.203v-15.469h-23.203V699Zm22.5 0h23.203v-15.469h-23.203V699Zm67.64 0h23.203v-15.469h-23.203V699Zm22.5 0h23.203v-15.469h-23.203V699Zm22.5 0h23.203v-15.469h-23.203V699Zm22.5 0h23.203v-15.469h-23.203V699Zm22.5 0h23.203v-15.469h-23.203V699Zm22.5 0h23.203v-15.469h-23.203V699Zm22.5 0h23.203v-15.469h-23.203V699ZM289 735h23.203v-15.469H289V735Zm22.5 0h23.203v-15.469H311.5V735Zm22.5 0h23.203v-15.469H334V735Zm22.5 0h23.203v-15.469H356.5V735Zm67.641 0h23.203v-15.469h-23.203V735Zm22.5 0h23.203v-15.469h-23.203V735Zm22.5 0h23.203v-15.469h-23.203V735Zm22.5 0h23.203v-15.469h-23.203V735Zm22.5 0h23.203v-15.469h-23.203V735Zm22.5 0h23.203v-15.469h-23.203V735Zm22.5 0h23.203v-15.469h-23.203V735Zm22.5 0h23.203v-15.469h-23.203V735Zm22.5 0h23.203v-15.469h-23.203V735Zm22.5 0h23.203v-15.469h-23.203V735Zm67.64 0h23.203v-15.469h-23.203V735Zm22.5 0h23.203v-15.469h-23.203V735Zm22.5 0h23.203v-15.469h-23.203V735Zm22.5 0h23.203v-15.469h-23.203V735Zm22.5 0h23.203v-15.469h-23.203V735Zm22.5 0h23.203v-15.469h-23.203V735Zm22.5 0h23.203v-15.469h-23.203V735ZM289 771h23.203v-15.469H289V771Zm22.5 0h23.203v-15.469H311.5V771Zm22.5 0h23.203v-15.469H334V771Zm22.5 0h23.203v-15.469H356.5V771Zm22.5 0h23.203v-15.469H379V771Zm22.5 0h23.203v-15.469H401.5V771Zm22.5 0h23.203v-15.469H424V771Zm22.5 0h23.203v-15.469H446.5V771Zm67.641 0h23.203v-15.469h-23.203V771Zm22.5 0h23.203v-15.469h-23.203V771Zm22.5 0h23.203v-15.469h-23.203V771Zm22.5 0h23.203v-15.469h-23.203V771Zm22.5 0h23.203v-15.469h-23.203V771Zm22.5 0h23.203v-15.469h-23.203V771Zm67.64 0h23.203v-15.469h-23.203V771Zm22.5 0h23.203v-15.469h-23.203V771Zm67.641 0h23.203v-15.469h-23.203V771Zm22.5 0h23.203v-15.469h-23.203V771Zm22.5 0h23.203v-15.469h-23.203V771ZM289 807h23.203v-15.469H289V807Zm67.641 0h23.203v-15.469h-23.203V807Zm22.5 0h23.203v-15.469h-23.203V807Zm22.5 0h23.203v-15.469h-23.203V807Zm22.5 0h23.203v-15.469h-23.203V807Zm22.5 0h23.203v-15.469h-23.203V807Zm22.5 0h23.203v-15.469h-23.203V807Zm22.5 0h23.203v-15.469h-23.203V807Zm22.5 0h23.203v-15.469h-23.203V807Zm22.5 0h23.203v-15.469h-23.203V807Zm22.5 0h23.203v-15.469h-23.203V807Zm22.5 0h23.203v-15.469h-23.203V807Zm67.64 0h23.203v-15.469h-23.203V807Zm22.5 0h23.203v-15.469h-23.203V807Zm22.5 0h23.203v-15.469h-23.203V807Zm22.5 0h23.203v-15.469h-23.203V807Zm22.5 0h23.203v-15.469h-23.203V807Zm22.5 0h23.203v-15.469h-23.203V807Zm22.5 0h23.203v-15.469h-23.203V807ZM289 843h23.203v-15.469H289V843Zm22.5 0h23.203v-15.469H311.5V843Zm22.5 0h23.203v-15.469H334V843Zm22.5 0h23.203v-15.469H356.5V843Zm22.5 0h23.203v-15.469H379V843Zm22.5 0h23.203v-15.469H401.5V843Zm67.641 0h23.203v-15.469h-23.203V843Zm22.5 0h23.203v-15.469h-23.203V843Zm22.5 0h23.203v-15.469h-23.203V843Zm67.64 0h23.203v-15.469h-23.203V843Zm22.5 0h23.203v-15.469h-23.203V843Zm22.5 0h23.203v-15.469h-23.203V843Zm22.5 0h23.203v-15.469h-23.203V843Zm22.5 0h23.203v-15.469h-23.203V843Zm22.5 0h23.203v-15.469h-23.203V843Zm22.5 0h23.203v-15.469h-23.203V843Zm22.5 0h23.203v-15.469h-23.203V843Zm22.5 0h23.203v-15.469h-23.203V843ZM289 879h23.203v-15.469H289V879Zm22.5 0h23.203v-15.469H311.5V879Zm22.5 0h23.203v-15.469H334V879Zm22.5 0h23.203v-15.469H356.5V879Zm22.5 0h23.203v-15.469H379V879Zm22.5 0h23.203v-15.469H401.5V879Zm22.5 0h23.203v-15.469H424V879Zm22.5 0h23.203v-15.469H446.5V879Zm22.5 0h23.203v-15.469H469V879Zm22.5 0h23.203v-15.469H491.5V879Zm22.5 0h23.203v-15.469H514V879Zm22.5 0h23.203v-15.469H536.5V879Zm22.5 0h23.203v-15.469H559V879Zm67.641 0h23.203v-15.469h-23.203V879Zm22.5 0h23.203v-15.469h-23.203V879Zm22.5 0h23.203v-15.469h-23.203V879Zm22.5 0h23.203v-15.469h-23.203V879Zm22.5 0h23.203v-15.469h-23.203V879Zm22.5 0h23.203v-15.469h-23.203V879Zm22.5 0h23.203v-15.469h-23.203V879Zm67.64 0h23.203v-15.469h-23.203V879Zm22.5 0h23.203v-15.469h-23.203V879ZM289 915h23.203v-15.469H289V915Zm22.5 0h23.203v-15.469H311.5V915Zm67.641 0h23.203v-15.469h-23.203V915Zm22.5 0h23.203v-15.469h-23.203V915Zm22.5 0h23.203v-15.469h-23.203V915Zm22.5 0h23.203v-15.469h-23.203V915Zm22.5 0h23.203v-15.469h-23.203V915Zm22.5 0h23.203v-15.469h-23.203V915Zm22.5 0h23.203v-15.469h-23.203V915Zm22.5 0h23.203v-15.469h-23.203V915Zm22.5 0h23.203v-15.469h-23.203V915Zm22.5 0h23.203v-15.469h-23.203V915Zm22.5 0h23.203v-15.469h-23.203V915Zm22.5 0h23.203v-15.469h-23.203V915Zm22.5 0h23.203v-15.469h-23.203V915Zm67.64 0h23.203v-15.469h-23.203V915Zm22.5 0h23.203v-15.469h-23.203V915Zm22.5 0h23.203v-15.469h-23.203V915Zm22.5 0h23.203v-15.469h-23.203V915Zm22.5 0h23.203v-15.469h-23.203V915Zm22.5 0h23.203v-15.469h-23.203V915ZM289 951h23.203v-15.469H289V951Zm22.5 0h23.203v-15.469H311.5V951Zm22.5 0h23.203v-15.469H334V951Zm22.5 0h23.203v-15.469H356.5V951Zm22.5 0h23.203v-15.469H379V951Zm22.5 0h23.203v-15.469H401.5V951Zm22.5 0h23.203v-15.469H424V951Zm22.5 0h23.203v-15.469H446.5V951Zm22.5 0h23.203v-15.469H469V951Zm22.5 0h23.203v-15.469H491.5V951Zm22.5 0h23.203v-15.469H514V951Zm22.5 0h23.203v-15.469H536.5V951Zm67.641 0h23.203v-15.469h-23.203V951Zm22.5 0h23.203v-15.469h-23.203V951Zm22.5 0h23.203v-15.469h-23.203V951Zm22.5 0h23.203v-15.469h-23.203V951Zm67.64 0h23.203v-15.469h-23.203V951Zm22.5 0h23.203v-15.469h-23.203V951Zm22.5 0h23.203v-15.469h-23.203V951Zm22.5 0h23.203v-15.469h-23.203V951Zm22.5 0h23.203v-15.469h-23.203V951Zm22.5 0h23.203v-15.469h-23.203V951ZM289 987h23.203v-15.469H289V987Zm22.5 0h23.203v-15.469H311.5V987Zm22.5 0h23.203v-15.469H334V987Zm22.5 0h23.203v-15.469H356.5V987Zm22.5 0h23.203v-15.469H379V987Zm22.5 0h23.203v-15.469H401.5V987Zm22.5 0h23.203v-15.469H424V987Zm22.5 0h23.203v-15.469H446.5V987Zm67.641 0h23.203v-15.469h-23.203V987Zm22.5 0h23.203v-15.469h-23.203V987Zm22.5 0h23.203v-15.469h-23.203V987Zm67.64 0h23.203v-15.469h-23.203V987Zm22.5 0h23.203v-15.469h-23.203V987Zm22.5 0h23.203v-15.469h-23.203V987Zm22.5 0h23.203v-15.469h-23.203V987Zm22.5 0h23.203v-15.469h-23.203V987Zm22.5 0h23.203v-15.469h-23.203V987Zm22.5 0h23.203v-15.469h-23.203V987Z" fill="#3C4043"/><path fill="#fff" d="M973 218h705v906H973z"/><path d="M1019 349h30.94v-20.625H1019V349Zm30 0h30.94v-20.625H1049V349Zm30 0h30.94v-20.625H1079V349Zm30 0h30.94v-20.625H1109V349Zm90.19 0h30.93v-20.625h-30.93V349Zm30 0h30.93v-20.625h-30.93V349Zm30 0h30.93v-20.625h-30.93V349Zm30 0h30.93v-20.625h-30.93V349Zm30 0h30.93v-20.625h-30.93V349Zm30 0h30.93v-20.625h-30.93V349Zm30 0h30.93v-20.625h-30.93V349Zm30 0h30.93v-20.625h-30.93V349Zm30 0h30.93v-20.625h-30.93V349Zm30 0h30.93v-20.625h-30.93V349Zm30 0h30.93v-20.625h-30.93V349Zm30 0h30.93v-20.625h-30.93V349ZM1019 397h30.94v-20.625H1019V397Zm30 0h30.94v-20.625H1049V397Zm30 0h30.94v-20.625H1079V397Zm30 0h30.94v-20.625H1109V397Zm30 0h30.94v-20.625H1139V397Zm30 0h30.94v-20.625H1169V397Zm30 0h30.94v-20.625H1199V397Zm30 0h30.94v-20.625H1229V397Zm30 0h30.94v-20.625H1259V397Zm30 0h30.94v-20.625H1289V397Zm90.19 0h30.93v-20.625h-30.93V397Zm30 0h30.93v-20.625h-30.93V397Zm30 0h30.93v-20.625h-30.93V397Zm30 0h30.93v-20.625h-30.93V397Zm30 0h30.93v-20.625h-30.93V397ZM1019 517h15.47v-10.312H1019V517Zm15 0h15.47v-10.312H1034V517Zm15 0h15.47v-10.312H1049V517Zm15 0h15.47v-10.312H1064V517Zm15 0h15.47v-10.312H1079V517Zm45.09 0h15.47v-10.312h-15.47V517Zm15 0h15.47v-10.312h-15.47V517Zm15 0h15.47v-10.312h-15.47V517Zm15 0h15.47v-10.312h-15.47V517Zm15 0h15.47v-10.312h-15.47V517Zm15 0h15.47v-10.312h-15.47V517Zm15 0h15.47v-10.312h-15.47V517Zm15 0h15.47v-10.312h-15.47V517Zm15 0h15.47v-10.312h-15.47V517Zm45.1 0h15.47v-10.312h-15.47V517Zm15 0h15.47v-10.312h-15.47V517Zm15 0h15.47v-10.312h-15.47V517Zm15 0h15.47v-10.312h-15.47V517Zm45.09 0h15.47v-10.312h-15.47V517Zm15 0h15.47v-10.312h-15.47V517Zm15 0h15.47v-10.312h-15.47V517Zm15 0h15.47v-10.312h-15.47V517Zm15 0h15.47v-10.312h-15.47V517Zm15 0h15.47v-10.312h-15.47V517Zm15 0h15.47v-10.312h-15.47V517Zm15 0h15.47v-10.312h-15.47V517ZM1019 553h15.47v-10.312H1019V553Zm15 0h15.47v-10.312H1034V553Zm15 0h15.47v-10.312H1049V553Zm15 0h15.47v-10.312H1064V553Zm15 0h15.47v-10.312H1079V553Zm15 0h15.47v-10.312H1094V553Zm15 0h15.47v-10.312H1109V553Zm15 0h15.47v-10.312H1124V553Zm15 0h15.47v-10.312H1139V553Zm15 0h15.47v-10.312H1154V553Zm15 0h15.47v-10.312H1169V553Zm15 0h15.47v-10.312H1184V553Zm15 0h15.47v-10.312H1199V553Zm15 0h15.47v-10.312H1214V553Zm45.09 0h15.47v-10.312h-15.47V553Zm15 0h15.47v-10.312h-15.47V553Zm15 0h15.47v-10.312h-15.47V553Zm15 0h15.47v-10.312h-15.47V553Zm15 0h15.47v-10.312h-15.47V553Zm15 0h15.47v-10.312h-15.47V553Zm15 0h15.47v-10.312h-15.47V553Zm45.1 0h15.47v-10.312h-15.47V553Zm15 0h15.47v-10.312h-15.47V553Zm15 0h15.47v-10.312h-15.47V553Zm45.09 0h15.47v-10.312h-15.47V553Zm15 0h15.47v-10.312h-15.47V553Zm15 0h15.47v-10.312h-15.47V553Zm15 0h15.47v-10.312h-15.47V553Zm15 0h15.47v-10.312h-15.47V553Zm15 0h15.47v-10.312h-15.47V553ZM1019 589h15.47v-10.312H1019V589Zm15 0h15.47v-10.312H1034V589Zm15 0h15.47v-10.312H1049V589Zm15 0h15.47v-10.312H1064V589Zm15 0h15.47v-10.312H1079V589Zm15 0h15.47v-10.312H1094V589Zm45.09 0h15.47v-10.312h-15.47V589Zm15 0h15.47v-10.312h-15.47V589Zm15 0h15.47v-10.312h-15.47V589Zm45.1 0h15.47v-10.312h-15.47V589Zm15 0h15.47v-10.312h-15.47V589Zm15 0h15.47v-10.312h-15.47V589Zm15 0h15.47v-10.312h-15.47V589Zm15 0h15.47v-10.312h-15.47V589Zm15 0h15.47v-10.312h-15.47V589Zm15 0h15.47v-10.312h-15.47V589Zm15 0h15.47v-10.312h-15.47V589Zm15 0h15.47v-10.312h-15.47V589Zm45.09 0h15.47v-10.312h-15.47V589Zm15 0h15.47v-10.312h-15.47V589Zm15 0h15.47v-10.312h-15.47V589Zm15 0h15.47v-10.312h-15.47V589Zm15 0h15.47v-10.312h-15.47V589Zm15 0h15.47v-10.312h-15.47V589Zm15 0h15.47v-10.312h-15.47V589Zm15 0h15.47v-10.312h-15.47V589Zm15 0h15.47v-10.312h-15.47V589Zm15 0h15.47v-10.312h-15.47V589Zm15 0h15.47v-10.312h-15.47V589Zm15 0h15.47v-10.312h-15.47V589Zm15 0h15.47v-10.312h-15.47V589ZM1019 625h15.47v-10.312H1019V625Zm15 0h15.47v-10.312H1034V625Zm15 0h15.47v-10.312H1049V625Zm15 0h15.47v-10.312H1064V625Zm15 0h15.47v-10.312H1079V625Zm15 0h15.47v-10.312H1094V625Zm15 0h15.47v-10.312H1109V625Zm15 0h15.47v-10.312H1124V625Zm15 0h15.47v-10.312H1139V625Zm15 0h15.47v-10.312H1154V625Zm15 0h15.47v-10.312H1169V625Zm15 0h15.47v-10.312H1184V625Zm15 0h15.47v-10.312H1199V625Zm15 0h15.47v-10.312H1214V625Zm45.09 0h15.47v-10.312h-15.47V625Zm15 0h15.47v-10.312h-15.47V625Zm15 0h15.47v-10.312h-15.47V625Zm15 0h15.47v-10.312h-15.47V625Zm45.1 0h15.47v-10.312h-15.47V625Zm15 0h15.47v-10.312h-15.47V625Zm15 0h15.47v-10.312h-15.47V625Zm15 0h15.47v-10.312h-15.47V625Zm15 0h15.47v-10.312h-15.47V625Zm15 0h15.47v-10.312h-15.47V625Zm15 0h15.47v-10.312h-15.47V625Zm45.09 0h15.47v-10.312h-15.47V625Zm15 0h15.47v-10.312h-15.47V625Zm45.1 0h15.46v-10.312h-15.46V625Zm15 0h15.46v-10.312h-15.46V625ZM1019 661h15.47v-10.312H1019V661Zm15 0h15.47v-10.312H1034V661Zm15 0h15.47v-10.312H1049V661Zm15 0h15.47v-10.312H1064V661Zm45.09 0h15.47v-10.312h-15.47V661Zm15 0h15.47v-10.312h-15.47V661Zm45.1 0h15.47v-10.312h-15.47V661Zm15 0h15.47v-10.312h-15.47V661Zm15 0h15.47v-10.312h-15.47V661Zm15 0h15.47v-10.312h-15.47V661Zm15 0h15.47v-10.312h-15.47V661Zm15 0h15.47v-10.312h-15.47V661Zm45.09 0h15.47v-10.312h-15.47V661Zm15 0h15.47v-10.312h-15.47V661Zm15 0h15.47v-10.312h-15.47V661Zm15 0h15.47v-10.312h-15.47V661Zm15 0h15.47v-10.312h-15.47V661Zm45.1 0h15.46v-10.312h-15.46V661Zm45.09 0h15.47v-10.312h-15.47V661Zm15 0h15.47v-10.312h-15.47V661Zm15 0h15.47v-10.312h-15.47V661Zm15 0h15.47v-10.312h-15.47V661Zm15 0h15.47v-10.312h-15.47V661Zm15 0h15.47v-10.312h-15.47V661Zm15 0h15.47v-10.312h-15.47V661Zm15 0h15.47v-10.312h-15.47V661Zm15 0h15.47v-10.312h-15.47V661ZM1019 697h15.47v-10.312H1019V697Zm15 0h15.47v-10.312H1034V697Zm15 0h15.47v-10.312H1049V697Zm15 0h15.47v-10.312H1064V697Zm15 0h15.47v-10.312H1079V697Zm15 0h15.47v-10.312H1094V697Zm15 0h15.47v-10.312H1109V697Zm15 0h15.47v-10.312H1124V697Zm45.09 0h15.47v-10.312h-15.47V697Zm15 0h15.47v-10.312h-15.47V697Zm15 0h15.47v-10.312h-15.47V697Zm15 0h15.47v-10.312h-15.47V697Zm15 0h15.47v-10.312h-15.47V697Zm15 0h15.47v-10.312h-15.47V697Zm15 0h15.47v-10.312h-15.47V697Zm15 0h15.47v-10.312h-15.47V697Zm15 0h15.47v-10.312h-15.47V697Zm15 0h15.47v-10.312h-15.47V697Zm45.1 0h15.47v-10.312h-15.47V697Zm15 0h15.47v-10.312h-15.47V697Zm15 0h15.47v-10.312h-15.47V697Zm15 0h15.47v-10.312h-15.47V697Zm45.09 0h15.47v-10.312h-15.47V697Zm15 0h15.47v-10.312h-15.47V697Zm15 0h15.47v-10.312h-15.47V697Zm15 0h15.47v-10.312h-15.47V697Zm15 0h15.47v-10.312h-15.47V697Zm15 0h15.47v-10.312h-15.47V697Zm15 0h15.47v-10.312h-15.47V697Zm15 0h15.47v-10.312h-15.47V697Zm15 0h15.47v-10.312h-15.47V697Zm15 0h15.47v-10.312h-15.47V697Zm15 0h15.47v-10.312h-15.47V697ZM1019 733h15.47v-10.312H1019V733Zm45.09 0h15.47v-10.312h-15.47V733Zm15 0h15.47v-10.312h-15.47V733Zm15 0h15.47v-10.312h-15.47V733Zm15 0h15.47v-10.312h-15.47V733Zm15 0h15.47v-10.312h-15.47V733Zm15 0h15.47v-10.312h-15.47V733Zm15 0h15.47v-10.312h-15.47V733Zm15 0h15.47v-10.312h-15.47V733Zm15 0h15.47v-10.312h-15.47V733Zm15 0h15.47v-10.312h-15.47V733Zm15 0h15.47v-10.312h-15.47V733Zm15 0h15.47v-10.312h-15.47V733Zm15 0h15.47v-10.312h-15.47V733Zm15 0h15.47v-10.312h-15.47V733Zm15 0h15.47v-10.312h-15.47V733Zm45.1 0h15.47v-10.312h-15.47V733Zm15 0h15.47v-10.312h-15.47V733Zm15 0h15.47v-10.312h-15.47V733Zm15 0h15.47v-10.312h-15.47V733Zm45.09 0h15.47v-10.312h-15.47V733Zm15 0h15.47v-10.312h-15.47V733Zm15 0h15.47v-10.312h-15.47V733Zm45.1 0h15.46v-10.312h-15.46V733Zm15 0h15.46v-10.312h-15.46V733Zm15 0h15.46v-10.312h-15.46V733Zm15 0h15.46v-10.312h-15.46V733Zm15 0h15.46v-10.312h-15.46V733ZM1019 769h15.47v-10.312H1019V769Zm15 0h15.47v-10.312H1034V769Zm15 0h15.47v-10.312H1049V769Zm15 0h15.47v-10.312H1064V769Zm15 0h15.47v-10.312H1079V769Zm15 0h15.47v-10.312H1094V769Zm15 0h15.47v-10.312H1109V769Zm45.09 0h15.47v-10.312h-15.47V769Zm15 0h15.47v-10.312h-15.47V769Zm15 0h15.47v-10.312h-15.47V769Zm15 0h15.47v-10.312h-15.47V769Zm15 0h15.47v-10.312h-15.47V769Zm15 0h15.47v-10.312h-15.47V769Zm15 0h15.47v-10.312h-15.47V769Zm75.19 0h15.47v-10.312h-15.47V769Zm15 0h15.47v-10.312h-15.47V769Zm15 0h15.47v-10.312h-15.47V769Zm15 0h15.47v-10.312h-15.47V769Zm45.1 0h15.46v-10.312h-15.46V769Zm15 0h15.46v-10.312h-15.46V769Zm15 0h15.46v-10.312h-15.46V769Zm15 0h15.46v-10.312h-15.46V769Zm15 0h15.46v-10.312h-15.46V769Zm15 0h15.46v-10.312h-15.46V769Zm15 0h15.46v-10.312h-15.46V769Zm15 0h15.46v-10.312h-15.46V769Zm15 0h15.46v-10.312h-15.46V769Zm15 0h15.46v-10.312h-15.46V769ZM1019 805h15.47v-10.312H1019V805Zm15 0h15.47v-10.312H1034V805Zm15 0h15.47v-10.312H1049V805Zm15 0h15.47v-10.312H1064V805Zm15 0h15.47v-10.312H1079V805Zm15 0h15.47v-10.312H1094V805Zm15 0h15.47v-10.312H1109V805Zm45.09 0h15.47v-10.312h-15.47V805Zm15 0h15.47v-10.312h-15.47V805Zm15 0h15.47v-10.312h-15.47V805Zm15 0h15.47v-10.312h-15.47V805Zm15 0h15.47v-10.312h-15.47V805Zm15 0h15.47v-10.312h-15.47V805Zm15 0h15.47v-10.312h-15.47V805Zm15 0h15.47v-10.312h-15.47V805Zm45.1 0h15.47v-10.312h-15.47V805Zm15 0h15.47v-10.312h-15.47V805Zm15 0h15.47v-10.312h-15.47V805Zm15 0h15.47v-10.312h-15.47V805Zm15 0h15.47v-10.312h-15.47V805Zm15 0h15.47v-10.312h-15.47V805Zm45.09 0h15.47v-10.312h-15.47V805Zm15 0h15.47v-10.312h-15.47V805Zm75.19 0h15.47v-10.312h-15.47V805Zm15 0h15.47v-10.312h-15.47V805Zm15 0h15.47v-10.312h-15.47V805Zm15 0h15.47v-10.312h-15.47V805ZM1019 841h15.47v-10.312H1019V841Zm15 0h15.47v-10.312H1034V841Zm15 0h15.47v-10.312H1049V841Zm15 0h15.47v-10.312H1064V841Zm15 0h15.47v-10.312H1079V841Zm15 0h15.47v-10.312H1094V841Zm15 0h15.47v-10.312H1109V841Zm15 0h15.47v-10.312H1124V841Zm15 0h15.47v-10.312H1139V841Zm15 0h15.47v-10.312H1154V841Zm15 0h15.47v-10.312H1169V841Zm45.09 0h15.47v-10.312h-15.47V841Zm15 0h15.47v-10.312h-15.47V841Zm15 0h15.47v-10.312h-15.47V841Zm15 0h15.47v-10.312h-15.47V841Zm15 0h15.47v-10.312h-15.47V841Zm15 0h15.47v-10.312h-15.47V841Zm15 0h15.47v-10.312h-15.47V841Zm45.1 0h15.47v-10.312h-15.47V841Zm15 0h15.47v-10.312h-15.47V841Zm15 0h15.47v-10.312h-15.47V841Zm15 0h15.47v-10.312h-15.47V841Zm15 0h15.47v-10.312h-15.47V841Zm15 0h15.47v-10.312h-15.47V841Zm45.09 0h15.47v-10.312h-15.47V841Zm15 0h15.47v-10.312h-15.47V841Zm15 0h15.47v-10.312h-15.47V841Zm15 0h15.47v-10.312h-15.47V841Zm15 0h15.47v-10.312h-15.47V841Zm15 0h15.47v-10.312h-15.47V841ZM1019 877h15.47v-10.312H1019V877Zm15 0h15.47v-10.312H1034V877Zm15 0h15.47v-10.312H1049V877Zm15 0h15.47v-10.312H1064V877Zm15 0h15.47v-10.312H1079V877Zm15 0h15.47v-10.312H1094V877Zm15 0h15.47v-10.312H1109V877Zm15 0h15.47v-10.312H1124V877Zm15 0h15.47v-10.312H1139V877Zm75.19 0h15.47v-10.312h-15.47V877Zm15 0h15.47v-10.312h-15.47V877Zm15 0h15.47v-10.312h-15.47V877Zm15 0h15.47v-10.312h-15.47V877Zm15 0h15.47v-10.312h-15.47V877Zm15 0h15.47v-10.312h-15.47V877Zm15 0h15.47v-10.312h-15.47V877Zm15 0h15.47v-10.312h-15.47V877Zm15 0h15.47v-10.312h-15.47V877Zm15 0h15.47v-10.312h-15.47V877Zm15 0h15.47v-10.312h-15.47V877Zm15 0h15.47v-10.312h-15.47V877Zm15 0h15.47v-10.312h-15.47V877Zm45.09 0h15.47v-10.312h-15.47V877Zm15 0h15.47v-10.312h-15.47V877Zm15 0h15.47v-10.312h-15.47V877Zm15 0h15.47v-10.312h-15.47V877Zm15 0h15.47v-10.312h-15.47V877Zm15 0h15.47v-10.312h-15.47V877Zm15 0h15.47v-10.312h-15.47V877Zm15 0h15.47v-10.312h-15.47V877Zm15 0h15.47v-10.312h-15.47V877Zm15 0h15.47v-10.312h-15.47V877Zm15 0h15.47v-10.312h-15.47V877ZM1019 913h15.47v-10.312H1019V913Zm15 0h15.47v-10.312H1034V913Zm15 0h15.47v-10.312H1049V913Zm15 0h15.47v-10.312H1064V913Zm15 0h15.47v-10.312H1079V913Zm15 0h15.47v-10.312H1094V913Zm15 0h15.47v-10.312H1109V913Zm15 0h15.47v-10.312H1124V913Zm15 0h15.47v-10.312H1139V913Zm15 0h15.47v-10.312H1154V913Zm15 0h15.47v-10.312H1169V913Zm15 0h15.47v-10.312H1184V913Zm15 0h15.47v-10.312H1199V913Zm45.09 0h15.47v-10.312h-15.47V913Zm15 0h15.47v-10.312h-15.47V913Zm15 0h15.47v-10.312h-15.47V913Zm15 0h15.47v-10.312h-15.47V913Zm15 0h15.47v-10.312h-15.47V913Zm15 0h15.47v-10.312h-15.47V913Zm45.1 0h15.47v-10.312h-15.47V913Zm15 0h15.47v-10.312h-15.47V913Zm15 0h15.47v-10.312h-15.47V913Zm15 0h15.47v-10.312h-15.47V913Zm15 0h15.47v-10.312h-15.47V913Zm15 0h15.47v-10.312h-15.47V913Zm15 0h15.47v-10.312h-15.47V913Zm15 0h15.47v-10.312h-15.47V913Zm15 0h15.47v-10.312h-15.47V913Zm15 0h15.47v-10.312h-15.47V913Zm15 0h15.47v-10.312h-15.47V913Zm15 0h15.47v-10.312h-15.47V913Zm45.09 0h15.47v-10.312h-15.47V913Zm15 0h15.47v-10.312h-15.47V913Zm15 0h15.47v-10.312h-15.47V913Zm15 0h15.47v-10.312h-15.47V913ZM1019 949h15.47v-10.312H1019V949Zm15 0h15.47v-10.312H1034V949Zm15 0h15.47v-10.312H1049V949Zm15 0h15.47v-10.312H1064V949Zm15 0h15.47v-10.312H1079V949Zm15 0h15.47v-10.312H1094V949Zm75.19 0h15.47v-10.312h-15.47V949Zm15 0h15.47v-10.312h-15.47V949Zm15 0h15.47v-10.312h-15.47V949Zm15 0h15.47v-10.312h-15.47V949Zm15 0h15.47v-10.312h-15.47V949Zm15 0h15.47v-10.312h-15.47V949Zm15 0h15.47v-10.312h-15.47V949Zm15 0h15.47v-10.312h-15.47V949Zm45.09 0h15.47v-10.312h-15.47V949Zm15 0h15.47v-10.312h-15.47V949Zm15 0h15.47v-10.312h-15.47V949Zm45.1 0h15.46v-10.312h-15.46V949Zm15 0h15.46v-10.312h-15.46V949Zm15 0h15.46v-10.312h-15.46V949Zm15 0h15.46v-10.312h-15.46V949Zm15 0h15.46v-10.312h-15.46V949Zm15 0h15.46v-10.312h-15.46V949Zm15 0h15.46v-10.312h-15.46V949Z" fill="#3C4043"/><path fill="#fff" d="M0 1030h1920v50H0z"/></g><defs><clipPath id="a"><path fill="#fff" d="M0 0h1920v1080H0z"/></clipPath></defs></svg>