<svg width="1920" height="1080" viewBox="0 0 1920 1080" fill="none" xmlns="http://www.w3.org/2000/svg">
<g clip-path="url(#clip0_4029_6493)">
<rect x="1459" y="813" width="218" height="50" rx="25" fill="#D2E3FC"/>
<rect x="1458" y="813" width="200" height="50" rx="25" fill="#1A73E8"/>
<rect x="851" y="813" width="218" height="50" rx="25" fill="#D2E3FC"/>
<rect x="850" y="813" width="122" height="50" rx="25" fill="#1A73E8"/>
<rect x="243" y="813" width="218" height="50" rx="25" fill="#D2E3FC"/>
<rect x="243" y="813" width="50" height="50" rx="25" fill="#1A73E8"/>
<path d="M198.458 620.7C190.538 620.7 183.878 619.71 178.478 617.73C173.078 615.75 169.028 613.23 166.328 610.17C163.808 607.11 162.548 603.96 162.548 600.72C162.548 598.02 163.358 595.77 164.978 593.97C166.598 592.17 168.938 591.27 171.998 591.27C173.798 591.27 175.238 591.63 176.318 592.35C177.578 593.07 178.928 593.88 180.368 594.78C181.988 595.68 184.148 596.49 186.848 597.21C189.548 597.75 193.238 598.02 197.918 598.02C209.438 598.02 219.518 596.67 228.158 593.97C236.978 591.09 243.008 586.23 246.248 579.39C244.988 575.43 242.198 572.28 237.878 569.94C233.738 567.6 228.698 565.62 222.758 564C216.818 562.2 210.608 560.4 204.128 558.6C197.828 556.62 191.978 554.37 186.578 551.85C181.178 549.33 176.678 545.91 173.078 541.59C169.658 537.27 167.948 531.78 167.948 525.12C167.948 518.82 169.928 513.06 173.888 507.84C177.848 502.44 183.068 497.85 189.548 494.07C196.208 490.11 203.498 487.14 211.418 485.16C219.338 483.18 227.348 482.19 235.448 482.19C240.308 482.19 244.358 483 247.598 484.62C250.838 486.24 253.268 488.22 254.888 490.56C256.688 492.72 257.588 494.97 257.588 497.31C257.588 500.01 256.778 502.17 255.158 503.79C253.718 505.41 251.468 506.22 248.408 506.22C247.328 506.22 246.248 506.13 245.168 505.95C244.088 505.77 242.738 505.68 241.118 505.68C239.678 505.5 237.878 505.41 235.718 505.41C224.918 505.41 215.468 507.12 207.368 510.54C199.448 513.78 193.508 518.73 189.548 525.39C190.448 528.99 192.968 531.96 197.108 534.3C201.428 536.64 206.558 538.62 212.498 540.24C218.618 541.86 224.918 543.66 231.398 545.64C237.878 547.44 243.908 549.69 249.488 552.39C255.248 554.91 259.928 558.33 263.528 562.65C267.128 566.97 268.928 572.46 268.928 579.12C268.928 588.66 265.598 596.58 258.938 602.88C252.458 609 243.908 613.5 233.288 616.38C222.668 619.26 211.058 620.7 198.458 620.7ZM314.948 620.43C311.888 620.43 309.098 619.35 306.578 617.19C304.238 615.03 302.348 611.7 300.908 607.2C299.468 602.7 298.748 597.03 298.748 590.19C298.748 571.29 299.828 554.37 301.988 539.43C304.148 524.49 306.488 510.9 309.008 498.66C311.708 486.24 313.598 474.9 314.678 464.64C315.218 459.24 315.398 454.2 315.218 449.52C315.218 444.84 315.128 440.43 314.948 436.29C314.948 431.97 315.128 428.01 315.488 424.41C315.848 421.35 316.838 418.65 318.458 416.31C320.078 413.97 322.688 412.8 326.288 412.8C330.248 412.8 333.308 414.33 335.468 417.39C337.628 420.45 339.068 425.4 339.788 432.24C340.688 438.9 340.508 447.99 339.248 459.51C337.988 470.85 336.008 483.09 333.308 496.23C330.788 509.37 328.448 523.32 326.288 538.08C324.308 552.66 323.498 567.78 323.858 583.44L317.918 578.85C326.918 555.09 335.198 536.19 342.758 522.15C350.498 508.11 357.968 498.03 365.168 491.91C372.368 485.61 379.568 482.46 386.768 482.46C394.688 482.46 400.718 484.98 404.858 490.02C408.998 495.06 412.148 502.35 414.308 511.89C416.468 521.25 418.088 532.5 419.168 545.64C420.428 557.16 421.598 566.43 422.678 573.45C423.938 580.29 425.288 585.78 426.728 589.92C428.168 593.88 429.698 597.39 431.318 600.45C432.218 601.89 432.938 603.42 433.478 605.04C434.018 606.66 434.288 608.37 434.288 610.17C434.288 613.23 433.208 615.75 431.048 617.73C429.068 619.71 426.458 620.7 423.218 620.7C418.718 620.7 414.668 618.18 411.068 613.14C407.468 607.92 404.498 601.08 402.158 592.62C399.818 583.98 398.198 574.71 397.298 564.81C396.398 553.47 395.408 544.2 394.328 537C393.248 529.8 391.988 523.95 390.548 519.45C389.288 514.77 387.578 510.72 385.418 507.3C381.638 507.66 376.508 511.98 370.028 520.26C363.728 528.54 356.888 540.24 349.508 555.36C342.308 570.48 335.378 588.57 328.718 609.63C327.278 613.95 325.388 616.83 323.048 618.27C320.888 619.71 318.188 620.43 314.948 620.43ZM499.453 620.7C491.353 620.7 484.243 618.81 478.123 615.03C472.183 611.25 467.593 605.94 464.353 599.1C461.113 592.26 459.493 584.25 459.493 575.07C459.493 566.43 460.843 557.7 463.543 548.88C466.243 540.06 470.023 531.69 474.883 523.77C479.743 515.85 485.503 508.83 492.163 502.71C499.003 496.59 506.473 491.82 514.573 488.4C522.673 484.8 531.313 483 540.493 483C544.633 483 548.053 484.08 550.753 486.24C553.453 488.4 554.803 491.64 554.803 495.96C554.803 498.12 554.083 500.01 552.643 501.63C551.383 503.07 549.403 503.97 546.703 504.33C534.103 505.95 523.033 510.36 513.493 517.56C504.133 524.76 496.843 533.49 491.623 543.75C486.403 554.01 483.793 564.72 483.793 575.88C483.793 581.1 484.243 585.87 485.143 590.19C486.043 594.33 488.023 599.73 491.083 606.39L477.043 587.76C481.183 591.9 484.603 594.6 487.303 595.86C490.183 597.12 494.053 597.75 498.913 597.75C510.433 597.75 520.693 590.91 529.693 577.23C538.873 563.55 545.533 543.66 549.673 517.56C550.393 514.14 551.653 511.53 553.453 509.73C555.253 507.75 557.683 506.76 560.743 506.76C565.063 506.76 568.753 508.47 571.813 511.89C574.873 515.13 576.763 519.45 577.483 524.85C579.103 535.29 580.813 544.65 582.613 552.93C584.593 561.03 587.383 568.77 590.983 576.15C594.583 583.35 599.443 591 605.563 599.1C607.183 600.9 608.083 602.97 608.263 605.31C608.443 607.65 608.083 609.99 607.183 612.33C606.463 614.49 605.203 616.29 603.403 617.73C601.783 619.17 599.803 619.89 597.463 619.89C594.943 619.89 592.873 619.35 591.253 618.27C589.633 617.19 588.103 615.84 586.663 614.22C583.243 609.36 580.003 604.59 576.943 599.91C573.883 595.05 571.093 589.56 568.573 583.44C566.053 577.14 563.893 569.76 562.093 561.3C560.293 552.66 559.033 542.49 558.313 530.79L567.223 530.52C563.983 552.66 558.763 570.39 551.563 583.71C544.363 596.85 536.173 606.3 526.993 612.06C517.813 617.82 508.633 620.7 499.453 620.7Z" fill="#D2E3FC"/>
<path d="M1393.46 620.7C1385.54 620.7 1378.88 619.71 1373.48 617.73C1368.08 615.75 1364.03 613.23 1361.33 610.17C1358.81 607.11 1357.55 603.96 1357.55 600.72C1357.55 598.02 1358.36 595.77 1359.98 593.97C1361.6 592.17 1363.94 591.27 1367 591.27C1368.8 591.27 1370.24 591.63 1371.32 592.35C1372.58 593.07 1373.93 593.88 1375.37 594.78C1376.99 595.68 1379.15 596.49 1381.85 597.21C1384.55 597.75 1388.24 598.02 1392.92 598.02C1404.44 598.02 1414.52 596.67 1423.16 593.97C1431.98 591.09 1438.01 586.23 1441.25 579.39C1439.99 575.43 1437.2 572.28 1432.88 569.94C1428.74 567.6 1423.7 565.62 1417.76 564C1411.82 562.2 1405.61 560.4 1399.13 558.6C1392.83 556.62 1386.98 554.37 1381.58 551.85C1376.18 549.33 1371.68 545.91 1368.08 541.59C1364.66 537.27 1362.95 531.78 1362.95 525.12C1362.95 518.82 1364.93 513.06 1368.89 507.84C1372.85 502.44 1378.07 497.85 1384.55 494.07C1391.21 490.11 1398.5 487.14 1406.42 485.16C1414.34 483.18 1422.35 482.19 1430.45 482.19C1435.31 482.19 1439.36 483 1442.6 484.62C1445.84 486.24 1448.27 488.22 1449.89 490.56C1451.69 492.72 1452.59 494.97 1452.59 497.31C1452.59 500.01 1451.78 502.17 1450.16 503.79C1448.72 505.41 1446.47 506.22 1443.41 506.22C1442.33 506.22 1441.25 506.13 1440.17 505.95C1439.09 505.77 1437.74 505.68 1436.12 505.68C1434.68 505.5 1432.88 505.41 1430.72 505.41C1419.92 505.41 1410.47 507.12 1402.37 510.54C1394.45 513.78 1388.51 518.73 1384.55 525.39C1385.45 528.99 1387.97 531.96 1392.11 534.3C1396.43 536.64 1401.56 538.62 1407.5 540.24C1413.62 541.86 1419.92 543.66 1426.4 545.64C1432.88 547.44 1438.91 549.69 1444.49 552.39C1450.25 554.91 1454.93 558.33 1458.53 562.65C1462.13 566.97 1463.93 572.46 1463.93 579.12C1463.93 588.66 1460.6 596.58 1453.94 602.88C1447.46 609 1438.91 613.5 1428.29 616.38C1417.67 619.26 1406.06 620.7 1393.46 620.7ZM1509.95 620.43C1506.89 620.43 1504.1 619.35 1501.58 617.19C1499.24 615.03 1497.35 611.7 1495.91 607.2C1494.47 602.7 1493.75 597.03 1493.75 590.19C1493.75 571.29 1494.83 554.37 1496.99 539.43C1499.15 524.49 1501.49 510.9 1504.01 498.66C1506.71 486.24 1508.6 474.9 1509.68 464.64C1510.22 459.24 1510.4 454.2 1510.22 449.52C1510.22 444.84 1510.13 440.43 1509.95 436.29C1509.95 431.97 1510.13 428.01 1510.49 424.41C1510.85 421.35 1511.84 418.65 1513.46 416.31C1515.08 413.97 1517.69 412.8 1521.29 412.8C1525.25 412.8 1528.31 414.33 1530.47 417.39C1532.63 420.45 1534.07 425.4 1534.79 432.24C1535.69 438.9 1535.51 447.99 1534.25 459.51C1532.99 470.85 1531.01 483.09 1528.31 496.23C1525.79 509.37 1523.45 523.32 1521.29 538.08C1519.31 552.66 1518.5 567.78 1518.86 583.44L1512.92 578.85C1521.92 555.09 1530.2 536.19 1537.76 522.15C1545.5 508.11 1552.97 498.03 1560.17 491.91C1567.37 485.61 1574.57 482.46 1581.77 482.46C1589.69 482.46 1595.72 484.98 1599.86 490.02C1604 495.06 1607.15 502.35 1609.31 511.89C1611.47 521.25 1613.09 532.5 1614.17 545.64C1615.43 557.16 1616.6 566.43 1617.68 573.45C1618.94 580.29 1620.29 585.78 1621.73 589.92C1623.17 593.88 1624.7 597.39 1626.32 600.45C1627.22 601.89 1627.94 603.42 1628.48 605.04C1629.02 606.66 1629.29 608.37 1629.29 610.17C1629.29 613.23 1628.21 615.75 1626.05 617.73C1624.07 619.71 1621.46 620.7 1618.22 620.7C1613.72 620.7 1609.67 618.18 1606.07 613.14C1602.47 607.92 1599.5 601.08 1597.16 592.62C1594.82 583.98 1593.2 574.71 1592.3 564.81C1591.4 553.47 1590.41 544.2 1589.33 537C1588.25 529.8 1586.99 523.95 1585.55 519.45C1584.29 514.77 1582.58 510.72 1580.42 507.3C1576.64 507.66 1571.51 511.98 1565.03 520.26C1558.73 528.54 1551.89 540.24 1544.51 555.36C1537.31 570.48 1530.38 588.57 1523.72 609.63C1522.28 613.95 1520.39 616.83 1518.05 618.27C1515.89 619.71 1513.19 620.43 1509.95 620.43ZM1694.45 620.7C1686.35 620.7 1679.24 618.81 1673.12 615.03C1667.18 611.25 1662.59 605.94 1659.35 599.1C1656.11 592.26 1654.49 584.25 1654.49 575.07C1654.49 566.43 1655.84 557.7 1658.54 548.88C1661.24 540.06 1665.02 531.69 1669.88 523.77C1674.74 515.85 1680.5 508.83 1687.16 502.71C1694 496.59 1701.47 491.82 1709.57 488.4C1717.67 484.8 1726.31 483 1735.49 483C1739.63 483 1743.05 484.08 1745.75 486.24C1748.45 488.4 1749.8 491.64 1749.8 495.96C1749.8 498.12 1749.08 500.01 1747.64 501.63C1746.38 503.07 1744.4 503.97 1741.7 504.33C1729.1 505.95 1718.03 510.36 1708.49 517.56C1699.13 524.76 1691.84 533.49 1686.62 543.75C1681.4 554.01 1678.79 564.72 1678.79 575.88C1678.79 581.1 1679.24 585.87 1680.14 590.19C1681.04 594.33 1683.02 599.73 1686.08 606.39L1672.04 587.76C1676.18 591.9 1679.6 594.6 1682.3 595.86C1685.18 597.12 1689.05 597.75 1693.91 597.75C1705.43 597.75 1715.69 590.91 1724.69 577.23C1733.87 563.55 1740.53 543.66 1744.67 517.56C1745.39 514.14 1746.65 511.53 1748.45 509.73C1750.25 507.75 1752.68 506.76 1755.74 506.76C1760.06 506.76 1763.75 508.47 1766.81 511.89C1769.87 515.13 1771.76 519.45 1772.48 524.85C1774.1 535.29 1775.81 544.65 1777.61 552.93C1779.59 561.03 1782.38 568.77 1785.98 576.15C1789.58 583.35 1794.44 591 1800.56 599.1C1802.18 600.9 1803.08 602.97 1803.26 605.31C1803.44 607.65 1803.08 609.99 1802.18 612.33C1801.46 614.49 1800.2 616.29 1798.4 617.73C1796.78 619.17 1794.8 619.89 1792.46 619.89C1789.94 619.89 1787.87 619.35 1786.25 618.27C1784.63 617.19 1783.1 615.84 1781.66 614.22C1778.24 609.36 1775 604.59 1771.94 599.91C1768.88 595.05 1766.09 589.56 1763.57 583.44C1761.05 577.14 1758.89 569.76 1757.09 561.3C1755.29 552.66 1754.03 542.49 1753.31 530.79L1762.22 530.52C1758.98 552.66 1753.76 570.39 1746.56 583.71C1739.36 596.85 1731.17 606.3 1721.99 612.06C1712.81 617.82 1703.63 620.7 1694.45 620.7Z" fill="#D2E3FC"/>
<path d="M50 618H1870" stroke="#FF6D7F" stroke-width="5" stroke-linecap="round"/>
<path d="M196.458 654.45C188.538 654.45 181.878 653.46 176.478 651.48C171.078 649.5 167.028 646.98 164.328 643.92C161.808 640.86 160.548 637.71 160.548 634.47C160.548 631.77 161.358 629.52 162.978 627.72C164.598 625.92 166.938 625.02 169.998 625.02C171.798 625.02 173.238 625.38 174.318 626.1C175.578 626.82 176.928 627.63 178.368 628.53C179.988 629.43 182.148 630.15 184.848 630.69C187.548 631.41 191.238 631.77 195.918 631.77C207.438 631.77 217.518 630.33 226.158 627.45C234.978 624.75 241.008 619.98 244.248 613.14C242.988 609.18 240.198 606.03 235.878 603.69C231.738 601.35 226.698 599.37 220.758 597.75C214.818 595.95 208.608 594.15 202.128 592.35C195.828 590.37 189.978 588.12 184.578 585.6C179.178 583.08 174.678 579.66 171.078 575.34C167.658 571.02 165.948 565.53 165.948 558.87C165.948 552.57 167.928 546.81 171.888 541.59C175.848 536.19 181.068 531.6 187.548 527.82C194.208 523.86 201.498 520.89 209.418 518.91C217.338 516.93 225.348 515.94 233.448 515.94C238.308 515.94 242.358 516.75 245.598 518.37C248.838 519.99 251.268 521.97 252.888 524.31C254.688 526.47 255.588 528.72 255.588 531.06C255.588 533.76 254.778 535.92 253.158 537.54C251.718 539.16 249.468 539.97 246.408 539.97C245.328 539.97 244.248 539.88 243.168 539.7C242.088 539.52 240.738 539.43 239.118 539.43C237.678 539.25 235.878 539.16 233.718 539.16C222.918 539.16 213.468 540.87 205.368 544.29C197.448 547.53 191.508 552.48 187.548 559.14C188.448 562.74 190.968 565.71 195.108 568.05C199.428 570.39 204.558 572.37 210.498 573.99C216.618 575.61 222.918 577.41 229.398 579.39C235.878 581.19 241.908 583.44 247.488 586.14C253.248 588.66 257.928 592.08 261.528 596.4C265.128 600.72 266.928 606.21 266.928 612.87C266.928 622.59 263.598 630.51 256.938 636.63C250.458 642.75 241.908 647.25 231.288 650.13C220.668 653.01 209.058 654.45 196.458 654.45ZM312.948 611.25C309.888 611.25 307.098 610.17 304.578 608.01C302.238 605.85 300.348 602.61 298.908 598.29C297.468 593.79 296.748 588.03 296.748 581.01C296.748 562.29 297.828 545.46 299.988 530.52C302.148 515.4 304.488 501.72 307.008 489.48C309.708 477.24 311.598 465.9 312.678 455.46C313.218 450.06 313.398 445.02 313.218 440.34C313.218 435.66 313.128 431.25 312.948 427.11C312.948 422.97 313.128 419.01 313.488 415.23C313.848 412.35 314.838 409.74 316.458 407.4C318.078 404.88 320.688 403.62 324.288 403.62C328.248 403.8 331.308 405.42 333.468 408.48C335.628 411.36 337.068 416.22 337.788 423.06C338.688 429.9 338.508 438.99 337.248 450.33C335.988 461.67 334.008 473.91 331.308 487.05C328.788 500.19 326.448 514.14 324.288 528.9C322.308 543.48 321.498 558.6 321.858 574.26L315.918 569.67C324.918 545.91 333.198 527.01 340.758 512.97C348.498 498.93 355.968 488.85 363.168 482.73C370.368 476.43 377.568 473.28 384.768 473.28C392.688 473.28 398.718 475.8 402.858 480.84C406.998 485.88 410.148 493.17 412.308 502.71C414.468 512.07 416.088 523.32 417.168 536.46C418.428 547.98 419.598 557.25 420.678 564.27C421.938 571.11 423.288 576.6 424.728 580.74C426.168 584.88 427.698 588.39 429.318 591.27C430.218 592.89 430.938 594.51 431.478 596.13C432.018 597.57 432.288 599.19 432.288 600.99C432.288 604.05 431.208 606.57 429.048 608.55C427.068 610.53 424.458 611.52 421.218 611.52C416.718 611.52 412.668 609 409.068 603.96C405.468 598.74 402.498 591.9 400.158 583.44C397.818 574.8 396.198 565.53 395.298 555.63C394.398 544.29 393.408 535.02 392.328 527.82C391.248 520.62 389.988 514.77 388.548 510.27C387.288 505.77 385.578 501.72 383.418 498.12C379.638 498.48 374.508 502.8 368.028 511.08C361.728 519.36 354.888 531.06 347.508 546.18C340.308 561.3 333.378 579.39 326.718 600.45C325.278 604.95 323.388 607.92 321.048 609.36C318.888 610.62 316.188 611.25 312.948 611.25ZM497.453 591.54C489.353 591.54 482.243 589.74 476.123 586.14C470.183 582.36 465.593 577.05 462.353 570.21C459.113 563.37 457.493 555.27 457.493 545.91C457.493 537.27 458.843 528.63 461.543 519.99C464.243 511.17 468.023 502.8 472.883 494.88C477.743 486.96 483.503 479.94 490.163 473.82C497.003 467.7 504.473 462.84 512.573 459.24C520.673 455.64 529.313 453.84 538.493 453.84C542.633 453.84 546.053 455.01 548.753 457.35C551.453 459.51 552.803 462.66 552.803 466.8C552.803 469.14 552.083 471.12 550.643 472.74C549.383 474.18 547.403 474.99 544.703 475.17C532.103 476.97 521.033 481.47 511.493 488.67C502.133 495.69 494.843 504.33 489.623 514.59C484.403 524.85 481.793 535.56 481.793 546.72C481.793 552.12 482.243 556.89 483.143 561.03C484.043 565.17 486.023 570.57 489.083 577.23L475.043 558.6C479.183 562.74 482.603 565.44 485.303 566.7C488.183 567.96 492.053 568.59 496.913 568.59C508.433 568.59 518.693 561.84 527.693 548.34C536.873 534.66 543.533 514.68 547.673 488.4C548.393 484.98 549.653 482.37 551.453 480.57C553.253 478.59 555.683 477.6 558.743 477.6C563.063 477.6 566.753 479.31 569.813 482.73C572.873 485.97 574.763 490.29 575.483 495.69C577.103 506.31 578.813 515.67 580.613 523.77C582.593 531.87 585.383 539.61 588.983 546.99C592.583 554.37 597.443 562.02 603.563 569.94C605.183 571.74 606.083 573.81 606.263 576.15C606.443 578.49 606.083 580.83 605.183 583.17C604.463 585.33 603.203 587.13 601.403 588.57C599.783 590.01 597.803 590.73 595.463 590.73C592.943 590.73 590.873 590.28 589.253 589.38C587.633 588.3 586.103 586.86 584.663 585.06C581.243 580.38 578.003 575.61 574.943 570.75C571.883 565.89 569.093 560.4 566.573 554.28C564.053 547.98 561.893 540.6 560.093 532.14C558.293 523.5 557.033 513.33 556.313 501.63L565.223 501.36C561.983 523.68 556.763 541.41 549.563 554.55C542.363 567.69 534.173 577.14 524.993 582.9C515.813 588.66 506.633 591.54 497.453 591.54Z" fill="#3C4043"/>
<path d="M776.458 620.7C768.538 620.7 761.878 619.71 756.478 617.73C751.078 615.75 747.028 613.23 744.328 610.17C741.808 607.11 740.548 603.96 740.548 600.72C740.548 598.02 741.358 595.77 742.978 593.97C744.598 592.17 746.938 591.27 749.998 591.27C751.798 591.27 753.238 591.63 754.318 592.35C755.578 593.07 756.928 593.88 758.368 594.78C759.988 595.68 762.148 596.49 764.848 597.21C767.548 597.75 771.238 598.02 775.918 598.02C787.438 598.02 797.518 596.67 806.158 593.97C814.978 591.09 821.008 586.23 824.248 579.39C822.988 575.43 820.198 572.28 815.878 569.94C811.738 567.6 806.698 565.62 800.758 564C794.818 562.2 788.608 560.4 782.128 558.6C775.828 556.62 769.978 554.37 764.578 551.85C759.178 549.33 754.678 545.91 751.078 541.59C747.658 537.27 745.948 531.78 745.948 525.12C745.948 518.82 747.928 513.06 751.888 507.84C755.848 502.44 761.068 497.85 767.548 494.07C774.208 490.11 781.498 487.14 789.418 485.16C797.338 483.18 805.348 482.19 813.448 482.19C818.308 482.19 822.358 483 825.598 484.62C828.838 486.24 831.268 488.22 832.888 490.56C834.688 492.72 835.588 494.97 835.588 497.31C835.588 500.01 834.778 502.17 833.158 503.79C831.718 505.41 829.468 506.22 826.408 506.22C825.328 506.22 824.248 506.13 823.168 505.95C822.088 505.77 820.738 505.68 819.118 505.68C817.678 505.5 815.878 505.41 813.718 505.41C802.918 505.41 793.468 507.12 785.368 510.54C777.448 513.78 771.508 518.73 767.548 525.39C768.448 528.99 770.968 531.96 775.108 534.3C779.428 536.64 784.558 538.62 790.498 540.24C796.618 541.86 802.918 543.66 809.398 545.64C815.878 547.44 821.908 549.69 827.488 552.39C833.248 554.91 837.928 558.33 841.528 562.65C845.128 566.97 846.928 572.46 846.928 579.12C846.928 588.66 843.598 596.58 836.938 602.88C830.458 609 821.908 613.5 811.288 616.38C800.668 619.26 789.058 620.7 776.458 620.7ZM892.948 620.43C889.888 620.43 887.098 619.35 884.578 617.19C882.238 615.03 880.348 611.7 878.908 607.2C877.468 602.7 876.748 597.03 876.748 590.19C876.748 571.29 877.828 554.37 879.988 539.43C882.148 524.49 884.488 510.9 887.008 498.66C889.708 486.24 891.598 474.9 892.678 464.64C893.218 459.24 893.398 454.2 893.218 449.52C893.218 444.84 893.128 440.43 892.948 436.29C892.948 431.97 893.128 428.01 893.488 424.41C893.848 421.35 894.838 418.65 896.458 416.31C898.078 413.97 900.688 412.8 904.288 412.8C908.248 412.8 911.308 414.33 913.468 417.39C915.628 420.45 917.068 425.4 917.788 432.24C918.688 438.9 918.508 447.99 917.248 459.51C915.988 470.85 914.008 483.09 911.308 496.23C908.788 509.37 906.448 523.32 904.288 538.08C902.308 552.66 901.498 567.78 901.858 583.44L895.918 578.85C904.918 555.09 913.198 536.19 920.758 522.15C928.498 508.11 935.968 498.03 943.168 491.91C950.368 485.61 957.568 482.46 964.768 482.46C972.688 482.46 978.718 484.98 982.858 490.02C986.998 495.06 990.148 502.35 992.308 511.89C994.468 521.25 996.088 532.5 997.168 545.64C998.428 557.16 999.598 566.43 1000.68 573.45C1001.94 580.29 1003.29 585.78 1004.73 589.92C1006.17 593.88 1007.7 597.39 1009.32 600.45C1010.22 601.89 1010.94 603.42 1011.48 605.04C1012.02 606.66 1012.29 608.37 1012.29 610.17C1012.29 613.23 1011.21 615.75 1009.05 617.73C1007.07 619.71 1004.46 620.7 1001.22 620.7C996.718 620.7 992.668 618.18 989.068 613.14C985.468 607.92 982.498 601.08 980.158 592.62C977.818 583.98 976.198 574.71 975.298 564.81C974.398 553.47 973.408 544.2 972.328 537C971.248 529.8 969.988 523.95 968.548 519.45C967.288 514.77 965.578 510.72 963.418 507.3C959.638 507.66 954.508 511.98 948.028 520.26C941.728 528.54 934.888 540.24 927.508 555.36C920.308 570.48 913.378 588.57 906.718 609.63C905.278 613.95 903.388 616.83 901.048 618.27C898.888 619.71 896.188 620.43 892.948 620.43ZM1077.45 620.7C1069.35 620.7 1062.24 618.81 1056.12 615.03C1050.18 611.25 1045.59 605.94 1042.35 599.1C1039.11 592.26 1037.49 584.25 1037.49 575.07C1037.49 566.43 1038.84 557.7 1041.54 548.88C1044.24 540.06 1048.02 531.69 1052.88 523.77C1057.74 515.85 1063.5 508.83 1070.16 502.71C1077 496.59 1084.47 491.82 1092.57 488.4C1100.67 484.8 1109.31 483 1118.49 483C1122.63 483 1126.05 484.08 1128.75 486.24C1131.45 488.4 1132.8 491.64 1132.8 495.96C1132.8 498.12 1132.08 500.01 1130.64 501.63C1129.38 503.07 1127.4 503.97 1124.7 504.33C1112.1 505.95 1101.03 510.36 1091.49 517.56C1082.13 524.76 1074.84 533.49 1069.62 543.75C1064.4 554.01 1061.79 564.72 1061.79 575.88C1061.79 581.1 1062.24 585.87 1063.14 590.19C1064.04 594.33 1066.02 599.73 1069.08 606.39L1055.04 587.76C1059.18 591.9 1062.6 594.6 1065.3 595.86C1068.18 597.12 1072.05 597.75 1076.91 597.75C1088.43 597.75 1098.69 590.91 1107.69 577.23C1116.87 563.55 1123.53 543.66 1127.67 517.56C1128.39 514.14 1129.65 511.53 1131.45 509.73C1133.25 507.75 1135.68 506.76 1138.74 506.76C1143.06 506.76 1146.75 508.47 1149.81 511.89C1152.87 515.13 1154.76 519.45 1155.48 524.85C1157.1 535.29 1158.81 544.65 1160.61 552.93C1162.59 561.03 1165.38 568.77 1168.98 576.15C1172.58 583.35 1177.44 591 1183.56 599.1C1185.18 600.9 1186.08 602.97 1186.26 605.31C1186.44 607.65 1186.08 609.99 1185.18 612.33C1184.46 614.49 1183.2 616.29 1181.4 617.73C1179.78 619.17 1177.8 619.89 1175.46 619.89C1172.94 619.89 1170.87 619.35 1169.25 618.27C1167.63 617.19 1166.1 615.84 1164.66 614.22C1161.24 609.36 1158 604.59 1154.94 599.91C1151.88 595.05 1149.09 589.56 1146.57 583.44C1144.05 577.14 1141.89 569.76 1140.09 561.3C1138.29 552.66 1137.03 542.49 1136.31 530.79L1145.22 530.52C1141.98 552.66 1136.76 570.39 1129.56 583.71C1122.36 596.85 1114.17 606.3 1104.99 612.06C1095.81 617.82 1086.63 620.7 1077.45 620.7Z" fill="#3C4043"/>
<path d="M1393.96 586.95C1386.04 586.95 1379.38 585.96 1373.98 583.98C1368.58 582 1364.53 579.48 1361.83 576.42C1359.31 573.36 1358.05 570.21 1358.05 566.97C1358.05 564.27 1358.86 562.02 1360.48 560.22C1362.1 558.42 1364.44 557.52 1367.5 557.52C1369.3 557.52 1370.74 557.88 1371.82 558.6C1373.08 559.32 1374.43 560.13 1375.87 561.03C1377.49 561.93 1379.65 562.74 1382.35 563.46C1385.05 564 1388.74 564.27 1393.42 564.27C1404.94 564.27 1415.02 562.92 1423.66 560.22C1432.48 557.34 1438.51 552.48 1441.75 545.64C1440.49 541.68 1437.7 538.53 1433.38 536.19C1429.24 533.85 1424.2 531.87 1418.26 530.25C1412.32 528.45 1406.11 526.65 1399.63 524.85C1393.33 522.87 1387.48 520.62 1382.08 518.1C1376.68 515.58 1372.18 512.16 1368.58 507.84C1365.16 503.52 1363.45 498.03 1363.45 491.37C1363.45 485.07 1365.43 479.31 1369.39 474.09C1373.35 468.69 1378.57 464.1 1385.05 460.32C1391.71 456.36 1399 453.39 1406.92 451.41C1414.84 449.43 1422.85 448.44 1430.95 448.44C1435.81 448.44 1439.86 449.25 1443.1 450.87C1446.34 452.49 1448.77 454.47 1450.39 456.81C1452.19 458.97 1453.09 461.22 1453.09 463.56C1453.09 466.26 1452.28 468.42 1450.66 470.04C1449.22 471.66 1446.97 472.47 1443.91 472.47C1442.83 472.47 1441.75 472.38 1440.67 472.2C1439.59 472.02 1438.24 471.93 1436.62 471.93C1435.18 471.75 1433.38 471.66 1431.22 471.66C1420.42 471.66 1410.97 473.37 1402.87 476.79C1394.95 480.03 1389.01 484.98 1385.05 491.64C1385.95 495.24 1388.47 498.21 1392.61 500.55C1396.93 502.89 1402.06 504.87 1408 506.49C1414.12 508.11 1420.42 509.91 1426.9 511.89C1433.38 513.69 1439.41 515.94 1444.99 518.64C1450.75 521.16 1455.43 524.58 1459.03 528.9C1462.63 533.22 1464.43 538.71 1464.43 545.37C1464.43 554.91 1461.1 562.83 1454.44 569.13C1447.96 575.25 1439.41 579.75 1428.79 582.63C1418.17 585.51 1406.56 586.95 1393.96 586.95ZM1510.45 629.61C1507.39 629.61 1504.6 628.44 1502.08 626.1C1499.74 623.94 1497.85 620.7 1496.41 616.38C1494.97 611.88 1494.25 606.21 1494.25 599.37C1494.25 580.47 1495.33 563.55 1497.49 548.61C1499.65 533.49 1501.99 519.81 1504.51 507.57C1507.21 495.33 1509.1 484.08 1510.18 473.82C1510.72 468.42 1510.9 463.38 1510.72 458.7C1510.72 453.84 1510.63 449.34 1510.45 445.2C1510.45 441.06 1510.63 437.19 1510.99 433.59C1511.35 430.53 1512.34 427.83 1513.96 425.49C1515.58 423.15 1518.19 421.98 1521.79 421.98C1525.75 421.98 1528.81 423.51 1530.97 426.57C1533.13 429.63 1534.57 434.58 1535.29 441.42C1536.19 448.08 1536.01 457.17 1534.75 468.69C1533.49 480.03 1531.51 492.27 1528.81 505.41C1526.29 518.55 1523.95 532.5 1521.79 547.26C1519.81 561.84 1519 576.96 1519.36 592.62L1513.42 588.03C1522.42 564.27 1530.7 545.37 1538.26 531.33C1546 517.29 1553.47 507.21 1560.67 501.09C1567.87 494.79 1575.07 491.64 1582.27 491.64C1590.19 491.64 1596.22 494.16 1600.36 499.2C1604.5 504.24 1607.65 511.53 1609.81 521.07C1611.97 530.43 1613.59 541.68 1614.67 554.82C1615.93 566.34 1617.1 575.61 1618.18 582.63C1619.44 589.47 1620.79 594.96 1622.23 599.1C1623.67 603.06 1625.2 606.57 1626.82 609.63C1627.72 611.07 1628.44 612.6 1628.98 614.22C1629.52 615.84 1629.79 617.55 1629.79 619.35C1629.79 622.41 1628.71 624.93 1626.55 626.91C1624.57 628.89 1621.96 629.88 1618.72 629.88C1614.22 629.88 1610.17 627.27 1606.57 622.05C1602.97 616.83 1600 609.99 1597.66 601.53C1595.32 593.07 1593.7 583.89 1592.8 573.99C1591.9 562.65 1590.91 553.38 1589.83 546.18C1588.75 538.98 1587.49 533.13 1586.05 528.63C1584.79 523.95 1583.08 519.9 1580.92 516.48C1577.14 516.84 1572.01 521.16 1565.53 529.44C1559.23 537.72 1552.39 549.42 1545.01 564.54C1537.81 579.66 1530.88 597.75 1524.22 618.81C1522.78 623.13 1520.89 626.01 1518.55 627.45C1516.39 628.89 1513.69 629.61 1510.45 629.61ZM1694.95 649.59C1686.85 649.59 1679.74 647.7 1673.62 643.92C1667.68 640.32 1663.09 635.1 1659.85 628.26C1656.61 621.42 1654.99 613.32 1654.99 603.96C1654.99 595.32 1656.34 586.68 1659.04 578.04C1661.74 569.22 1665.52 560.85 1670.38 552.93C1675.24 545.01 1681 537.99 1687.66 531.87C1694.5 525.75 1701.97 520.89 1710.07 517.29C1718.17 513.69 1726.81 511.89 1735.99 511.89C1740.13 511.89 1743.55 513.06 1746.25 515.4C1748.95 517.56 1750.3 520.71 1750.3 524.85C1750.3 527.19 1749.58 529.17 1748.14 530.79C1746.88 532.23 1744.9 533.04 1742.2 533.22C1729.6 535.02 1718.53 539.52 1708.99 546.72C1699.63 553.74 1692.34 562.38 1687.12 572.64C1681.9 582.9 1679.29 593.61 1679.29 604.77C1679.29 610.17 1679.74 614.94 1680.64 619.08C1681.54 623.22 1683.52 628.62 1686.58 635.28L1672.54 616.65C1676.68 620.79 1680.1 623.49 1682.8 624.75C1685.68 626.01 1689.55 626.64 1694.41 626.64C1705.93 626.64 1716.19 619.89 1725.19 606.39C1734.37 592.71 1741.03 572.73 1745.17 546.45C1745.89 543.03 1747.15 540.42 1748.95 538.62C1750.75 536.64 1753.18 535.65 1756.24 535.65C1760.56 535.65 1764.25 537.36 1767.31 540.78C1770.37 544.02 1772.26 548.34 1772.98 553.74C1774.6 564.36 1776.31 573.72 1778.11 581.82C1780.09 589.92 1782.88 597.66 1786.48 605.04C1790.08 612.42 1794.94 620.07 1801.06 627.99C1802.68 629.79 1803.58 631.86 1803.76 634.2C1803.94 636.54 1803.58 638.79 1802.68 640.95C1801.96 643.29 1800.7 645.18 1798.9 646.62C1797.28 648.06 1795.3 648.78 1792.96 648.78C1790.44 648.78 1788.37 648.24 1786.75 647.16C1785.13 646.26 1783.6 644.91 1782.16 643.11C1778.74 638.43 1775.5 633.66 1772.44 628.8C1769.38 623.94 1766.59 618.45 1764.07 612.33C1761.55 606.03 1759.39 598.65 1757.59 590.19C1755.79 581.55 1754.53 571.38 1753.81 559.68L1762.72 559.41C1759.48 581.73 1754.26 599.46 1747.06 612.6C1739.86 625.74 1731.67 635.19 1722.49 640.95C1713.31 646.71 1704.13 649.59 1694.95 649.59Z" fill="#3C4043"/>
</g>
<defs>
<clipPath id="clip0_4029_6493">
<rect width="1920" height="1080" fill="white"/>
</clipPath>
</defs>
</svg>
