<svg width="1920" height="1080" fill="none" xmlns="http://www.w3.org/2000/svg"><g clip-path="url(#a)"><path d="M243 218h704v200H243V218Z" fill="#FF6D7F"/><path d="M947 218h243v200H947V218Z" fill="#3C4043"/><path d="M1190 218h486v200h-486V218Z" fill="#1A73E8"/><path d="M243 440.5h383.55v200H243v-200Z" fill="#FF6D7F"/><path d="M595 440.5h352v200H595v-200Z" fill="#3C4043"/><path d="M947 440.5h178.26v200H947v-200Z" fill="#1A73E8"/><path d="M243 663h528v200H243V663Z" fill="#FF6D7F"/><path d="M771 663h538.43v200H771V663Z" fill="#3C4043"/><path d="M1276.9 663h249.9v200h-249.9V663Z" fill="#1A73E8"/></g><defs><clipPath id="a"><path fill="#fff" d="M0 0h1920v1080H0z"/></clipPath></defs></svg>