<svg width="1920" height="1080" fill="none" xmlns="http://www.w3.org/2000/svg"><path d="M1443.89 214.94c38.18 0 67.51 2.767 87.98 8.3 20.48 5.533 40.12 13.833 58.93 24.9 9.96 6.087 18.54 14.94 25.73 26.56 7.75 11.62 11.62 23.793 11.62 36.52 0 47.033-31.54 70.55-94.62 70.55-30.98 0-54.5-5.81-70.55-17.43-16.04-12.173-24.07-29.327-24.07-51.46 0-17.707 6.37-32.647 19.09-44.82 12.73-12.727 30.71-21.857 53.95-27.39-4.42-2.213-11.34-4.15-20.75-5.81-9.4-2.213-18.81-3.32-28.22-3.32-44.26 0-77.19 19.92-98.77 59.76-8.3 14.387-14.11 32.093-17.43 53.12-3.32 20.473-4.98 50.353-4.98 89.64h75.53c51.46 0 91.58-.553 120.35-1.66 28.78-1.66 56.72-4.427 83.83-8.3v362.71c0 22.687 3.88 38.457 11.62 47.31 8.3 8.3 22.69 12.45 43.16 12.45V864c-64.18-2.213-105.96-3.32-125.33-3.32-19.36 0-61.14 1.107-125.33 3.32v-17.43c17.16 0 29.05-4.15 35.69-12.45 7.2-8.853 10.79-24.623 10.79-47.31V523.7c0-25.453-4.15-43.99-12.45-55.61-7.74-11.62-21.85-17.43-42.33-17.43h-75.53v336.15c0 22.687 4.98 38.457 14.94 47.31 10.52 8.3 26.56 12.45 48.14 12.45V864l-22.41-.83c-58.1-1.66-95.17-2.49-111.22-2.49-18.81 0-57.27.83-115.37 2.49-4.42.553-10.51.83-18.26.83v-17.43c20.48 0 34.59-4.15 42.33-12.45 8.3-8.853 12.45-24.623 12.45-47.31V450.66h-58.1v-16.6h58.1c0-64.187 23.24-118.137 69.72-161.85 20.48-19.367 47.04-33.753 79.68-43.16 32.65-9.407 66.68-14.11 102.09-14.11Z" fill="#3C4043"/><path d="M471.125 214.94c39.84 0 73.04 10.237 99.6 30.71 8.854 6.64 16.047 16.047 21.58 28.22 6.087 12.173 9.13 25.73 9.13 40.67 0 17.707-6.64 33.477-19.92 47.31-12.726 13.28-29.05 19.92-48.97 19.92-23.24 0-41.5-6.087-54.78-18.26-13.28-12.173-19.92-29.05-19.92-50.63 0-16.6 4.704-31.54 14.11-44.82 9.96-13.28 24.347-22.963 43.16-29.05-3.873-4.98-11.343-7.47-22.41-7.47-17.153 0-30.156 5.257-39.01 15.77-5.533 6.64-9.683 15.77-12.45 27.39-2.213 11.067-3.32 27.113-3.32 48.14v111.22h88.81v16.6h-88.81v327.85c0 25.453 5.81 43.16 17.43 53.12 12.174 9.96 30.157 14.94 53.95 14.94V864l-24.07-.83c-66.4-1.66-109.283-2.49-128.65-2.49-16.6 0-54.78 1.107-114.54 3.32v-17.43c17.154 0 29.05-4.15 35.69-12.45 7.194-8.853 10.79-24.623 10.79-47.31V450.66h-49.8v-16.6h49.8c0-48.14 4.15-84.937 12.45-110.39 8.854-26.007 24.347-48.417 46.48-67.23 13.834-11.62 31.817-21.303 53.95-29.05 22.134-8.3 45.374-12.45 69.72-12.45Zm191.095 0c28.773 0 50.907 6.087 66.4 18.26 16.047 12.173 24.07 29.88 24.07 53.12s-8.023 40.947-24.07 53.12c-15.493 12.173-37.627 18.26-66.4 18.26-29.327 0-51.737-6.087-67.23-18.26-15.493-12.173-23.24-29.88-23.24-53.12s7.747-40.947 23.24-53.12c15.493-12.173 37.903-18.26 67.23-18.26Zm79.68 571.87c0 22.687 3.32 38.457 9.96 47.31 7.193 8.3 19.367 12.45 36.52 12.45V864c-59.76-2.213-99.047-3.32-117.86-3.32-18.813 0-60.313 1.107-124.5 3.32v-17.43c17.153 0 29.05-4.15 35.69-12.45 7.193-8.853 10.79-24.623 10.79-47.31V523.7c0-25.453-3.597-43.99-10.79-55.61-6.64-11.62-18.537-17.43-35.69-17.43v-17.43c17.707 1.66 34.86 2.49 51.46 2.49 57.547 0 105.687-3.873 144.42-11.62v362.71Z" fill="#D2E3FC"/></svg>