<svg width="1920" height="1080" fill="none" xmlns="http://www.w3.org/2000/svg"><path d="m146.9 656 23.2-110.2h-57.42a497.082 497.082 0 0 0-13.92 33.06c-4.253 11.02-7.927 21.943-11.02 32.77-3.093 10.633-5.51 20.88-7.25 30.74-1.74 9.86-2.61 18.85-2.61 26.97 0 7.733.87 14.307 2.61 19.72-3.673 0-7.443-.387-11.31-1.16-3.867-.58-7.443-2.03-10.73-4.35-3.093-2.127-5.607-5.22-7.54-9.28-2.127-3.867-3.19-9.183-3.19-15.95 0-9.667 2.223-21.75 6.67-36.25 4.253-14.693 10.15-30.16 17.69-46.4 7.54-16.24 16.337-32.48 26.39-48.72 10.053-16.433 20.783-31.127 32.19-44.08 11.407-13.147 23.103-23.78 35.09-31.9 12.18-8.313 24.167-12.47 35.96-12.47 2.9 0 6.477.29 10.73.87 4.253.58 8.12 1.643 11.6 3.19L178.51 656H146.9Zm42.92-203.29c-5.22.387-10.827 2.803-16.82 7.25-5.993 4.253-12.18 10.15-18.56 17.69-6.187 7.347-12.373 15.95-18.56 25.81-6.187 9.667-12.083 20.107-17.69 31.32h54.23l17.4-82.07ZM265.845 511l-4.64 21.75c3.674-5.027 7.347-9.087 11.02-12.18 3.674-3.093 7.154-5.413 10.44-6.96 3.48-1.74 6.67-2.803 9.57-3.19 3.094-.58 5.897-.87 8.41-.87 5.8 0 10.634.87 14.5 2.61 3.867 1.74 6.96 4.157 9.28 7.25 2.32 2.9 3.867 6.38 4.64 10.44.967 3.867 1.45 8.023 1.45 12.47 0 6.38-.773 13.05-2.32 20.01a353.66 353.66 0 0 1-4.64 20.59 1004.077 1004.077 0 0 0-4.93 20.01c-1.353 6.573-2.03 12.76-2.03 18.56 0 4.06.58 7.443 1.74 10.15 1.16 2.707 3.48 4.06 6.96 4.06 9.087 0 18.174-10.537 27.26-31.61h10.73c-4.64 12.18-9.28 21.847-13.92 29-4.64 7.153-9.183 12.567-13.63 16.24-4.253 3.48-8.313 5.703-12.18 6.67-3.673 1.16-6.96 1.74-9.86 1.74-10.053 0-17.206-3.093-21.46-9.28-4.253-6.38-6.38-14.21-6.38-23.49 0-6.38.677-13.05 2.03-20.01a642.309 642.309 0 0 1 4.93-20.59 550.066 550.066 0 0 0 4.64-19.43c1.547-6.38 2.32-12.18 2.32-17.4 0-4.833-.87-8.7-2.61-11.6-1.74-2.9-5.123-4.35-10.15-4.35-11.986 0-22.716 10.343-32.19 31.03L234.815 656h-29l30.74-145h29.29Zm135.371 0-21.17 98.6a39.321 39.321 0 0 0-1.16 9.57c0 5.607 1.257 9.763 3.77 12.47 2.514 2.707 5.607 4.06 9.28 4.06 5.607 0 11.31-2.707 17.11-8.12 5.994-5.607 10.054-13.437 12.18-23.49l19.72-93.09h29l-29.58 139.2c5.22-1.74 9.957-3.673 14.21-5.8 4.447-2.32 8.41-5.22 11.89-8.7 3.48-3.673 6.67-8.023 9.57-13.05 2.9-5.027 5.607-11.213 8.12-18.56h10.73c-3.48 10.247-7.153 18.657-11.02 25.23-3.673 6.38-7.83 11.697-12.47 15.95-4.64 4.06-9.763 7.25-15.37 9.57-5.413 2.32-11.406 4.253-17.98 5.8l-3.77 18.56c-2.126 10.44-4.543 18.85-7.25 25.23-2.513 6.38-5.413 11.31-8.7 14.79-3.093 3.673-6.573 6.09-10.44 7.25-3.866 1.353-8.216 2.03-13.05 2.03-8.893 0-16.433-2.03-22.62-6.09-6.186-3.867-9.28-10.537-9.28-20.01 0-4.833 1.354-9.377 4.06-13.63 2.9-4.06 6.574-7.927 11.02-11.6 4.447-3.673 9.377-6.96 14.79-9.86 5.607-2.9 11.117-5.413 16.53-7.54l3.77-18.27c-4.833 5.607-9.956 9.763-15.37 12.47-5.22 2.513-10.343 3.77-15.37 3.77-4.446 0-8.603-.87-12.47-2.61-3.866-1.933-7.25-4.543-10.15-7.83-2.9-3.287-5.22-7.347-6.96-12.18-1.546-4.833-2.32-10.247-2.32-16.24 0-4.64.58-9.57 1.74-14.79l19.72-93.09h29.29Zm-16.24 202.42c5.414 0 9.57-3.093 12.47-9.28 2.9-6.187 5.414-14.307 7.54-24.36l2.03-9.28c-10.826 4.64-19.043 9.763-24.65 15.37-5.413 5.607-8.12 11.02-8.12 16.24 0 3.287.87 5.993 2.61 8.12 1.934 2.127 4.64 3.19 8.12 3.19ZM532.906 511l-21.17 98.6a39.321 39.321 0 0 0-1.16 9.57c0 5.607 1.257 9.763 3.77 12.47 2.513 2.707 5.607 4.06 9.28 4.06 5.607 0 11.31-2.707 17.11-8.12 5.993-5.607 10.053-13.437 12.18-23.49l19.72-93.09h29l-20.88 98.6a39.321 39.321 0 0 0-1.16 9.57c0 4.833.967 8.797 2.9 11.89 1.933 3.093 5.123 4.64 9.57 4.64 5.413 0 10.343-1.837 14.79-5.51 4.64-3.673 8.7-8.507 12.18-14.5 3.673-5.993 6.863-12.663 9.57-20.01a200.03 200.03 0 0 0 6.67-22.62c1.933-7.733 3.287-15.08 4.06-22.04.967-7.153 1.45-13.243 1.45-18.27-1.353 1.16-3.093 1.837-5.22 2.03-2.127.193-3.77.29-4.93.29-2.707 0-4.833-1.257-6.38-3.77-1.547-2.513-2.32-5.413-2.32-8.7 0-3.867 1.257-7.637 3.77-11.31 2.513-3.673 6.187-5.51 11.02-5.51 6.187 0 10.73 2.127 13.63 6.38 3.093 4.253 4.64 10.343 4.64 18.27 0 8.507-.773 17.593-2.32 27.26-1.547 9.473-3.77 18.947-6.67 28.42-2.9 9.473-6.477 18.56-10.73 27.26-4.06 8.507-8.603 16.047-13.63 22.62-5.027 6.573-10.633 11.89-16.82 15.95-5.993 3.867-12.277 5.8-18.85 5.8-9.473 0-17.303-2.03-23.49-6.09-5.993-4.06-9.763-10.247-11.31-18.56-5.607 8.7-11.697 14.983-18.27 18.85-6.38 3.867-12.663 5.8-18.85 5.8-4.447 0-8.603-.87-12.47-2.61-3.867-1.933-7.25-4.543-10.15-7.83-2.9-3.287-5.22-7.347-6.96-12.18-1.547-4.833-2.32-10.247-2.32-16.24 0-4.64.58-9.57 1.74-14.79l19.72-93.09h29.29Zm258.693 0-21.17 98.6c-.966 3.867-1.45 8.217-1.45 13.05 0 3.287.58 6.283 1.74 8.99 1.16 2.707 3.577 4.06 7.25 4.06 4.64 0 9.28-2.803 13.92-8.41 4.834-5.607 9.377-13.34 13.63-23.2h10.73c-4.64 12.18-9.28 21.847-13.92 29-4.64 6.96-9.183 12.277-13.63 15.95-4.253 3.673-8.41 5.993-12.47 6.96-3.866 1.16-7.346 1.74-10.44 1.74-6.38 0-11.696-2.223-15.95-6.67-4.06-4.447-6.476-11.697-7.25-21.75-4.446 7.927-10.633 14.693-18.56 20.3-7.733 5.413-16.24 8.12-25.52 8.12-4.64 0-9.183-.773-13.63-2.32-4.446-1.74-8.41-4.447-11.89-8.12-3.48-3.867-6.283-8.7-8.41-14.5-2.126-5.993-3.19-13.243-3.19-21.75 0-6.573.677-13.63 2.03-21.17 1.547-7.54 3.674-15.08 6.38-22.62a118.27 118.27 0 0 1 10.44-21.75c4.254-6.96 9.087-13.05 14.5-18.27 5.414-5.413 11.504-9.667 18.27-12.76 6.96-3.287 14.5-4.93 22.62-4.93 4.64 0 9.377 1.063 14.21 3.19 4.834 2.127 8.024 6.187 9.57 12.18l2.9-13.92h29.29Zm-80.91 124.7c3.094 0 6.284-.773 9.57-2.32 3.287-1.74 6.38-3.963 9.28-6.67 3.094-2.9 5.8-6.283 8.12-10.15a40.981 40.981 0 0 0 4.93-12.47l13.92-65.83c-.58-3.287-2.03-6.187-4.35-8.7-2.32-2.707-5.703-4.06-10.15-4.06-7.926 0-14.983 2.9-21.17 8.7-6.186 5.8-11.406 12.857-15.66 21.17-4.253 8.313-7.443 17.207-9.57 26.68-2.126 9.473-3.19 17.787-3.19 24.94 0 11.02 1.644 18.56 4.93 22.62 3.287 4.06 7.734 6.09 13.34 6.09ZM854.341 511l-21.17 98.6a39.321 39.321 0 0 0-1.16 9.57c0 5.607 1.257 9.763 3.77 12.47 2.514 2.707 5.607 4.06 9.28 4.06 5.607 0 11.31-2.707 17.11-8.12 5.994-5.607 10.054-13.437 12.18-23.49l19.72-93.09h29l-35.67 168.2c-2.126 10.44-4.543 18.85-7.25 25.23-2.513 6.38-5.413 11.31-8.7 14.79-3.093 3.673-6.573 6.09-10.44 7.25-3.866 1.353-8.216 2.03-13.05 2.03-8.893 0-16.433-2.03-22.62-6.09-6.186-3.867-9.28-10.537-9.28-20.01 0-4.833 1.354-9.377 4.06-13.63 2.9-4.06 6.574-7.927 11.02-11.6 4.447-3.673 9.377-6.96 14.79-9.86 5.607-2.9 11.117-5.413 16.53-7.54l3.77-18.27c-4.833 5.607-9.956 9.763-15.37 12.47-5.22 2.513-10.343 3.77-15.37 3.77-4.446 0-8.603-.87-12.47-2.61-3.866-1.933-7.25-4.543-10.15-7.83-2.9-3.287-5.22-7.347-6.96-12.18-1.546-4.833-2.32-10.247-2.32-16.24 0-4.64.58-9.57 1.74-14.79l19.72-93.09h29.29Zm-16.24 202.42c5.414 0 9.57-3.093 12.47-9.28 2.9-6.187 5.414-14.307 7.54-24.36l2.03-9.28c-10.826 4.64-19.043 9.763-24.65 15.37-5.413 5.607-8.12 11.02-8.12 16.24 0 3.287.87 5.993 2.61 8.12 1.934 2.127 4.64 3.19 8.12 3.19ZM951.654 677.04c-9.28-2.707-15.756-5.413-19.43-8.12-3.48-2.707-5.22-6.09-5.22-10.15 0-3.093.87-7.443 2.61-13.05 1.74-5.607 4.254-12.18 7.54-19.72 3.48-7.733 7.54-16.24 12.18-25.52 4.834-9.28 10.247-19.237 16.24-29.87-5.026-.193-9.57-.29-13.63-.29-3.866-.193-7.056-.29-9.57-.29 1.16-2.9 4.447-5.413 9.86-7.54 5.414-2.127 12.567-3.963 21.46-5.51 7.54-12.567 15.564-24.553 24.07-35.96 8.696-11.407 17.396-21.847 26.096-31.32 8.7-9.667 17.4-18.077 26.1-25.23 8.7-7.347 17.02-13.147 24.94-17.4.2-1.353.29-2.513.29-3.48.2-.967.29-1.643.29-2.03 2.71 0 6.29.677 10.73 2.03a99.38 99.38 0 0 1 13.34 4.93c4.45 1.933 8.32 3.963 11.6 6.09 3.48 1.933 5.42 3.577 5.8 4.93-6.38 11.213-12.66 28.033-18.85 50.46-6.18 22.233-11.31 48.913-15.37 80.04-.96 7.733-1.83 16.53-2.61 26.39-.58 9.86-.87 20.88-.87 33.06v13.05c0 4.447.2 9.087.58 13.92-.38.193-.77.29-1.16.29h-2.32c-2.7 0-5.89-.483-9.57-1.45a71.709 71.709 0 0 1-10.44-3.19c-3.28-1.16-6.18-2.513-8.7-4.06-2.32-1.547-3.77-2.9-4.35-4.06a99.997 99.997 0 0 1-.29-7.54v-7.54c0-11.987.39-24.167 1.16-36.54.97-12.373 2.52-25.133 4.64-38.28-2.7-.193-6.28-.387-10.73-.58-4.44-.387-9.47-.677-15.08-.87-5.41-.193-11.31-.387-17.69-.58a603.059 603.059 0 0 0-18.266-.87c-4.64 8.7-8.99 17.4-13.05 26.1a225.33 225.33 0 0 0-10.44 25.81c-3.286 9.28-5.993 18.56-8.12 27.84-1.933 9.28-3.19 17.98-3.77 26.1Zm111.936-174.29c.78-2.707 1.65-6.38 2.61-11.02 1.16-4.833 2.23-9.86 3.19-15.08-4.83 1.74-10.24 4.93-16.24 9.57-5.8 4.64-11.89 10.44-18.27 17.4-6.18 6.767-12.56 14.5-19.14 23.2-6.38 8.507-12.56 17.593-18.556 27.26 16.236-1.353 34.706-2.223 55.386-2.61 1.55-8.12 3.19-16.143 4.93-24.07 1.94-8.12 3.97-16.337 6.09-24.65Zm98.97 11.6c5.03 1.547 9.76 5.027 14.21 10.44 4.45 5.22 7.73 11.02 9.86 17.4-2.13 5.22-5.41 11.503-9.86 18.85-4.45 7.347-8.89 14.887-13.34 22.62-4.45 7.54-8.51 14.79-12.18 21.75-3.48 6.767-5.51 12.373-6.09 16.82 3.09-3.287 6.48-7.057 10.15-11.31 3.87-4.447 7.54-8.797 11.02-13.05 3.67-4.447 7.06-8.41 10.15-11.89 3.09-3.673 5.51-6.38 7.25-8.12 3.67-3.867 8.02-8.313 13.05-13.34a184.093 184.093 0 0 1 15.66-14.5c5.61-4.64 11.21-8.507 16.82-11.6 5.61-3.287 10.73-4.93 15.37-4.93 5.03 0 9.18 1.74 12.47 5.22 3.48 3.287 6.19 6.767 8.12 10.44 0 .387-.77.967-2.32 1.74-1.35.58-3.38 2.417-6.09 5.51-2.71 3.48-5.8 8.313-9.28 14.5-3.29 5.993-6.57 12.567-9.86 19.72a168.34 168.34 0 0 0-7.83 21.46c-2.13 7.347-3.19 14.017-3.19 20.01 0 4.833.58 7.927 1.74 9.28 1.35 1.353 3.19 2.03 5.51 2.03 2.13 0 4.35-.483 6.67-1.45 2.32-.967 4.16-1.45 5.51-1.45.77.387 1.35 1.257 1.74 2.61.58 1.16.87 2.223.87 3.19-1.55 1.353-3.38 2.707-5.51 4.06a74.87 74.87 0 0 1-6.67 3.77 53.104 53.104 0 0 1-6.96 2.9c-2.13.773-4.06 1.16-5.8 1.16-5.61 0-10.25-.87-13.92-2.61-3.48-1.547-6.28-3.673-8.41-6.38-1.93-2.707-3.29-5.897-4.06-9.57-.77-3.867-1.16-7.927-1.16-12.18 0-2.32.19-4.93.58-7.83.39-2.9 1.16-6.283 2.32-10.15 1.16-4.06 2.8-8.797 4.93-14.21 2.13-5.607 4.83-12.277 8.12-20.01-.39 0-3 1.353-7.83 4.06s-10.05 6.863-15.66 12.47c-9.09 8.7-17.3 17.303-24.65 25.81-7.15 8.507-14.5 17.98-22.04 28.42-4.25 5.993-8.02 11.02-11.31 15.08-3.09 4.253-5.8 7.057-8.12 8.41-4.06-2.32-7.06-5.607-8.99-9.86a58.808 58.808 0 0 1-4.35-12.76c0-3.673.48-8.313 1.45-13.92 1.16-5.607 2.61-11.793 4.35-18.56 1.93-6.96 4.25-14.21 6.96-21.75a366.5 366.5 0 0 1 8.99-22.62c7.35-17.013 14.02-30.353 20.01-40.02 6.19-9.667 10.05-14.887 11.6-15.66Zm218.67 95.7c-4.45 14.113-8.89 26.97-13.34 38.57-4.45 11.6-9.18 22.233-14.21 31.9-5.03 9.86-10.44 18.85-16.24 26.97a203.03 203.03 0 0 1-19.14 23.49c-8.89 9.28-18.08 16.337-27.55 21.17-9.47 5.027-18.95 7.54-28.42 7.54-4.83 0-9.67-.58-14.5-1.74-4.64-.967-8.99-2.417-13.05-4.35-4.25-1.74-7.93-3.867-11.02-6.38-3.29-2.32-5.61-4.833-6.96-7.54 0-2.32 1.35-4.35 4.06-6.09 2.32 2.127 4.25 3.77 5.8 4.93 1.55 1.16 3.09 2.127 4.64 2.9 1.35.773 2.9 1.257 4.64 1.45 1.55.193 3.38.29 5.51.29 11.02 0 21.75-3.287 32.19-9.86 10.63-6.38 20.59-15.563 29.87-27.55 9.47-11.793 18.08-26.197 25.81-43.21 7.73-16.82 14.31-35.67 19.72-56.55-2.51 3.867-5.61 8.603-9.28 14.21-3.67 5.607-7.73 11.213-12.18 16.82-4.45 5.413-9.09 10.343-13.92 14.79-4.64 4.447-9.18 7.443-13.63 8.99-3.09-.193-6.38-.87-9.86-2.03-3.29-.967-6.48-2.417-9.57-4.35a38.136 38.136 0 0 1-7.83-6.96 21.042 21.042 0 0 1-4.64-9.28c0-5.607.19-10.053.58-13.34.39-3.48 1.06-7.25 2.03-11.31 1.74-7.347 4.25-15.66 7.54-24.94 3.48-9.28 7.44-18.367 11.89-27.26 4.64-9.087 9.67-17.497 15.08-25.23 5.61-7.927 11.41-14.113 17.4-18.56 1.55 0 3.48.193 5.8.58 2.32.193 4.74.677 7.25 1.45 2.51.773 4.93 1.74 7.25 2.9 2.32.967 4.35 2.32 6.09 4.06-2.13 1.933-6.77 8.41-13.92 19.43s-15.08 26.873-23.78 47.56c-.97 2.127-2.13 5.22-3.48 9.28s-2.71 8.313-4.06 12.76a434.317 434.317 0 0 0-3.19 13.05c-.97 4.253-1.45 7.637-1.45 10.15 0 1.547.19 2.707.58 3.48.58.773 1.06 1.353 1.45 1.74 3.48-.58 8.12-3.383 13.92-8.41 5.8-5.22 12.37-13.243 19.72-24.07 4.64-6.96 8.89-13.823 12.76-20.59 3.87-6.96 7.64-13.92 11.31-20.88 3.87-6.96 7.83-14.113 11.89-21.46a734.317 734.317 0 0 1 13.05-22.62c2.51 0 5.22.29 8.12.87 2.9.58 5.7 1.353 8.41 2.32 2.71.773 5.03 1.74 6.96 2.9 2.13.967 3.67 2.03 4.64 3.19-5.99 12.76-11.6 25.23-16.82 37.41a412.116 412.116 0 0 0-13.92 37.41Zm35.46 33.06c0-3.867.38-9.28 1.16-16.24.96-6.96 2.12-14.5 3.48-22.62 1.54-8.12 3.19-16.433 4.93-24.94 1.93-8.507 3.86-16.143 5.8-22.91 2.51-9.087 6.38-16.047 11.6-20.88 5.41-5.027 12.08-7.54 20.01-7.54 4.25 0 8.41.677 12.47 2.03 4.25 1.353 6.76 3.093 7.54 5.22-5.61 4.64-10.15 10.44-13.63 17.4-3.29 6.767-6 14.113-8.12 22.04-1.94 7.733-3.48 15.757-4.64 24.07-.97 8.12-2.03 15.757-3.19 22.91 6.38-8.507 12.37-16.143 17.98-22.91 5.8-6.96 10.92-12.47 15.37-16.53 5.99-5.607 10.05-10.247 12.18-13.92 2.12-3.867 3.96-8.023 5.51-12.47 1.16-3.48 2.51-7.54 4.06-12.18 1.74-4.64 4.54-8.893 8.41-12.76.77-.193 2.41-.29 4.93-.29 1.93 0 3.96.097 6.09.29 2.32.193 4.44.58 6.38 1.16 1.93.58 3.57 1.257 4.93 2.03 1.35.773 2.12 1.74 2.32 2.9-3.1 4.06-6 10.44-8.7 19.14-2.71 8.507-5.13 17.883-7.25 28.13a851.227 851.227 0 0 0-5.8 30.74c-1.74 10.053-3.29 18.56-4.64 25.52.77-.387 2.51-1.933 5.22-4.64 2.7-2.707 5.7-6.09 8.99-10.15 3.48-4.06 7.05-8.507 10.73-13.34 3.86-4.833 7.25-9.57 10.15-14.21 3.67-5.607 6.67-10.827 8.99-15.66 2.51-5.027 4.64-10.343 6.38-15.95 1.93-5.607 3.67-11.793 5.22-18.56 1.54-6.96 3.19-15.177 4.93-24.65 1.16-1.547 3.67-2.803 7.54-3.77 4.06-1.16 7.73-1.74 11.02-1.74 2.9 0 5.02.483 6.38 1.45-.97 10.827-2.81 20.493-5.51 29-2.52 8.507-6 16.82-10.44 24.94-4.45 7.927-9.96 15.95-16.53 24.07-6.58 7.927-14.31 16.627-23.2 26.1-3.68 3.867-7.74 8.12-12.18 12.76a278.75 278.75 0 0 1-12.76 13.05c-4.06 3.867-7.93 7.153-11.6 9.86-3.48 2.707-6.19 4.06-8.12 4.06-4.45 0-8.12-1.74-11.02-5.22-2.9-3.48-4.35-7.927-4.35-13.34 0-5.607.19-10.44.58-14.5.58-4.253 1.45-8.7 2.61-13.34 1.16-4.253 2.03-7.83 2.61-10.73.77-2.9 1.35-5.413 1.74-7.54.58-2.127.96-3.963 1.16-5.51.19-1.547.38-3.093.58-4.64-1.55.773-3.58 2.417-6.09 4.93-2.52 2.32-5.13 5.123-7.83 8.41a394.37 394.37 0 0 0-8.12 9.57c-2.71 3.287-4.93 6.09-6.67 8.41a744.456 744.456 0 0 0-9.57 13.34c-2.71 3.867-5.32 7.54-7.83 11.02-2.32 3.48-4.64 7.057-6.96 10.73-2.32 3.48-5.03 7.25-8.12 11.31-6.19-1.933-10.64-4.833-13.34-8.7-2.52-3.867-3.77-8.603-3.77-14.21Zm281.52-105.27c1.93 0 4.15.387 6.67 1.16 2.7.58 5.12 1.45 7.25 2.61 2.12.967 3.86 2.03 5.22 3.19 1.54 1.16 2.32 2.223 2.32 3.19a389.95 389.95 0 0 0-10.73 24.65c-3.29 8.12-6.09 15.95-8.41 23.49-2.32 7.54-4.16 14.597-5.51 21.17-1.16 6.573-1.74 12.277-1.74 17.11 0 5.413.58 9.957 1.74 13.63 1.16 3.48 3.09 5.993 5.8 7.54-2.32 1.547-5.32 2.803-8.99 3.77-3.68.967-6.96 1.45-9.86 1.45-10.44 0-15.66-7.153-15.66-21.46 0-11.02 3.67-26.1 11.02-45.24-3.87 8.893-8.32 17.303-13.34 25.23-5.03 7.733-10.15 14.597-15.37 20.59-5.22 5.993-10.54 10.923-15.95 14.79-5.22 3.673-10.06 5.897-14.5 6.67-7.16-.387-12.96-3.77-17.4-10.15-4.45-6.573-6.67-14.887-6.67-24.94 0-10.827 2.32-22.233 6.96-34.22 4.64-11.987 10.53-23.103 17.69-33.35 7.34-10.247 15.27-18.753 23.78-25.52 8.5-6.96 16.72-10.633 24.65-11.02 1.93.58 4.06 1.74 6.38 3.48 2.51 1.74 4.83 3.77 6.96 6.09 2.32 2.32 4.25 4.737 5.8 7.25 1.54 2.32 2.41 4.35 2.61 6.09-7.74 1.16-15.76 4.93-24.07 11.31-8.12 6.38-15.57 14.113-22.33 23.2a135.092 135.092 0 0 0-16.24 28.71c-4.26 10.247-6.38 19.817-6.38 28.71 0 3.673 1.35 5.993 4.06 6.96 5.6-1.16 12.08-5.897 19.43-14.21 7.34-8.507 16.24-21.557 26.68-39.15 1.93-3.48 4.06-7.347 6.38-11.6 2.51-4.253 5.02-8.7 7.54-13.34 2.51-4.64 4.93-9.28 7.25-13.92 2.51-4.833 4.83-9.473 6.96-13.92Zm144.08 72.21c-4.45 14.113-8.9 26.97-13.34 38.57-4.45 11.6-9.19 22.233-14.21 31.9-5.03 9.86-10.44 18.85-16.24 26.97a203.03 203.03 0 0 1-19.14 23.49c-8.9 9.28-18.08 16.337-27.55 21.17-9.48 5.027-18.95 7.54-28.42 7.54-4.84 0-9.67-.58-14.5-1.74-4.64-.967-8.99-2.417-13.05-4.35-4.26-1.74-7.93-3.867-11.02-6.38-3.29-2.32-5.61-4.833-6.96-7.54 0-2.32 1.35-4.35 4.06-6.09 2.32 2.127 4.25 3.77 5.8 4.93a29.968 29.968 0 0 0 4.64 2.9c1.35.773 2.9 1.257 4.64 1.45 1.54.193 3.38.29 5.51.29 11.02 0 21.75-3.287 32.19-9.86 10.63-6.38 20.59-15.563 29.87-27.55 9.47-11.793 18.07-26.197 25.81-43.21 7.73-16.82 14.3-35.67 19.72-56.55-2.52 3.867-5.61 8.603-9.28 14.21-3.68 5.607-7.74 11.213-12.18 16.82-4.45 5.413-9.09 10.343-13.92 14.79-4.64 4.447-9.19 7.443-13.63 8.99-3.1-.193-6.38-.87-9.86-2.03-3.29-.967-6.48-2.417-9.57-4.35a38.136 38.136 0 0 1-7.83-6.96 21.042 21.042 0 0 1-4.64-9.28c0-5.607.19-10.053.58-13.34.38-3.48 1.06-7.25 2.03-11.31 1.74-7.347 4.25-15.66 7.54-24.94 3.48-9.28 7.44-18.367 11.89-27.26 4.64-9.087 9.66-17.497 15.08-25.23 5.6-7.927 11.4-14.113 17.4-18.56 1.54 0 3.48.193 5.8.58 2.32.193 4.73.677 7.25 1.45 2.51.773 4.93 1.74 7.25 2.9 2.32.967 4.35 2.32 6.09 4.06-2.13 1.933-6.77 8.41-13.92 19.43-7.16 11.02-15.08 26.873-23.78 47.56-.97 2.127-2.13 5.22-3.48 9.28-1.36 4.06-2.71 8.313-4.06 12.76a405.854 405.854 0 0 0-3.19 13.05c-.97 4.253-1.45 7.637-1.45 10.15 0 1.547.19 2.707.58 3.48.58.773 1.06 1.353 1.45 1.74 3.48-.58 8.12-3.383 13.92-8.41 5.8-5.22 12.37-13.243 19.72-24.07 4.64-6.96 8.89-13.823 12.76-20.59 3.86-6.96 7.63-13.92 11.31-20.88 3.86-6.96 7.83-14.113 11.89-21.46a734.317 734.317 0 0 1 13.05-22.62c2.51 0 5.22.29 8.12.87 2.9.58 5.7 1.353 8.41 2.32 2.7.773 5.02 1.74 6.96 2.9 2.12.967 3.67 2.03 4.64 3.19-6 12.76-11.6 25.23-16.82 37.41a412.116 412.116 0 0 0-13.92 37.41Z" fill="#3C4043"/></svg>