<svg width="1920" height="1080" fill="none" xmlns="http://www.w3.org/2000/svg"><path d="M83.89 643h55.18V520.24h42.935v-41.85H139.07v-6.665c0-18.29 6.82-30.07 29.45-30.07 7.285 0 14.57 1.55 17.05 2.325v-42.16c-2.48-1.085-8.68-3.255-23.405-3.255-30.535 0-78.275 11.47-78.275 71.765v8.06H50.255v41.85H83.89V643Zm120.784 0h55.335v-73.625c0-22.165 11.005-45.88 43.71-45.88 9.61 0 16.275 2.945 18.135 4.03l8.215-48.825c-1.86-.93-8.835-3.565-22.165-3.565-21.855 0-37.975 9.765-47.895 25.885v-22.63h-55.335V643Zm319.067-52.08h-54.56c-.93 6.975-9.765 15.345-32.705 15.345-21.855 0-34.255-10.695-38.44-29.76h127.41c.31-2.48.62-7.44.62-13.02 0-53.63-35.185-88.35-91.915-88.35-55.025 0-92.38 34.41-92.38 85.87 0 50.53 35.96 85.87 92.38 85.87 54.87 0 86.645-27.28 89.59-55.955Zm-88.815-75.795c23.095 0 33.635 13.64 35.03 26.815h-71.3c4.805-17.205 17.205-26.815 36.27-26.815Zm187.502 131.75c37.82 0 78.895-14.725 78.895-54.405 0-37.355-41.85-46.655-67.425-50.685-19.53-3.1-33.635-6.51-33.635-14.725 0-8.99 13.485-11.47 22.475-11.47 10.385 0 22.01 4.495 22.01 14.88v1.705h54.25v-1.86c0-34.1-36.425-55.18-75.95-55.18-41.695 0-76.88 18.135-76.88 53.01 0 34.1 37.665 45.88 66.805 50.53 24.955 4.03 34.875 6.355 34.875 15.345 0 8.68-13.485 11.935-23.87 11.935-15.5 0-25.11-4.185-25.11-14.57v-1.86h-54.87v2.17c0 37.045 39.525 55.18 78.43 55.18ZM727.799 643h55.18v-85.56c0-22.165 9.92-35.96 31.775-35.96 22.32 0 28.21 13.64 28.21 36.735V643h55.18V542.25c0-42.16-18.755-67.115-59.365-67.115-24.18 0-43.865 9.765-55.8 26.66v-101.06h-55.18V643ZM961.774 643h61.536V501.175h48.2V459.17h-48.36l.16-3.565c0-6.51 3.41-11.005 10.23-13.485 6.82-2.48 20.3-3.72 40.14-3.72h5.74v-40.3h-7.44c-38.29 0-66.19 4.65-83.856 13.64-17.515 8.99-26.35 23.715-26.35 43.71l.31 3.72h-37.975v42.005h37.665V643Zm132.606 0h61.53V534.81c6.2-4.34 16.59-9.145 31.16-14.415 17.36-6.355 32.86-10.23 46.65-11.78v-51.46c-17.36 4.34-33.79 10.23-48.98 17.67-12.86 6.2-22.63 11.935-29.14 17.205l-2.32-32.86h-58.9V643Zm254.34 1.86c44.48 0 83.39-12.09 90.67-45.415L1384.37 581c-3.72 16.585-19.22 24.025-35.5 24.025-12.09 0-21.85-3.255-29.29-9.92-5.12-4.65-8.53-13.02-10.08-25.11h135.32c.77-5.27 1.24-11.625 1.24-18.91 0-28.21-6.98-50.84-20.93-68.045-13.95-17.05-39.83-25.73-77.65-25.73-36.74 0-62.31 8.525-76.88 25.265-14.57 16.74-21.7 39.99-21.7 69.44 0 28.985 7.13 51.77 21.7 68.2s40.61 24.645 78.12 24.645Zm-39.22-112.53c1.55-12.09 4.81-20.46 9.77-25.11 7.28-6.975 16.74-10.385 28.36-10.385 11.78 0 20.93 3.1 27.44 9.145 5.73 5.425 8.99 14.26 9.76 26.35h-75.33Zm256.15 112.22c28.06 0 50.69-4.495 67.89-13.485 17.21-8.835 25.73-24.18 25.73-45.725 0-18.445-6.51-31.775-19.53-39.525-12.86-7.905-33.48-13.33-61.69-16.43-16.43-2.17-28.67-3.72-36.73-5.115-8.06-1.395-11.94-5.115-11.94-11.16 0-4.65 2.95-8.215 8.84-11.005 6.04-2.635 14.1-4.03 24.18-4.03 10.85 0 19.99 1.86 27.12 5.735 7.29 3.875 12.09 9.92 14.57 18.29l52.08-19.53c-4.96-15.655-14.88-27.125-29.76-34.255-14.72-6.975-35.8-10.54-62.93-10.54-28.21 0-50.99 4.34-68.51 13.02-17.51 8.525-26.35 22.94-26.35 43.09 0 19.065 6.2 32.55 18.45 40.3 12.24 7.905 33.32 13.64 63.08 17.05 17.21 2.17 29.45 4.185 37.05 5.89 7.44 1.55 11.31 5.425 11.31 11.625 0 4.805-3.1 8.68-9.3 11.315-6.04 2.635-14.26 3.875-24.64 3.875-10.39 0-19.53-1.86-27.59-5.89-8.06-3.875-13.33-10.385-15.81-19.53l-53.94 19.995c5.58 16.275 16.74 27.9 33.79 35.185 16.89 7.285 38.44 10.85 64.63 10.85Zm116.86-1.55h61.85V533.415c1.39-8.215 4.49-15.19 9.14-20.77 6.98-8.525 15.35-12.71 25.11-12.71 9.15 0 15.97 3.255 20.31 9.61 4.34 6.355 6.66 19.685 6.66 39.68V643h61.54v-96.875c0-26.66-4.65-48.05-13.95-64.17-9.3-16.12-26.35-24.18-51-24.18-23.25 0-42.47 6.355-57.81 19.22V399.65h-61.85V643Z" fill="#3C4043"/></svg>