<svg width="1920" height="1080" fill="none" xmlns="http://www.w3.org/2000/svg"><path d="m1216.89 370.828 4.62 1.168c.27-.269.55-.517.83-.741.3-.225.63-.419.97-.584.36-.165.77-.3 1.23-.404a7.602 7.602 0 0 1 1.64-.158c.95 0 1.76.158 2.45.472.71.3 1.3.719 1.78 1.258.46.554.81 1.213 1.03 1.976.24.764.36 1.595.36 2.494 0 .928-.1 1.789-.29 2.583-.18.793-.47 1.482-.86 2.066-.4.569-.92 1.018-1.55 1.348-.62.314-1.37.471-2.24.471-1.45 0-2.64-.404-3.57-1.213-.92-.823-1.46-1.991-1.64-3.503h-5.69c.06 1.512.41 2.852 1.04 4.02.63 1.168 1.44 2.149 2.45 2.942.98.794 2.12 1.401 3.41 1.82 1.29.404 2.63.606 4.02.606 1.83 0 3.41-.284 4.76-.853 1.35-.584 2.47-1.378 3.35-2.381a9.802 9.802 0 0 0 1.98-3.459c.43-1.318.65-2.725.65-4.223 0-1.707-.23-3.234-.68-4.582-.45-1.362-1.09-2.515-1.93-3.459-.85-.943-1.89-1.669-3.12-2.179-1.23-.509-2.62-.763-4.18-.763-1.12 0-2.12.142-2.99.427-.85.284-1.53.576-2.04.876l.81-7.525h13.07v-5.031h-17.85l-1.82 16.531Zm38.18-14.06h-5.82v5.929h-5.73v4.313h5.73v11.5c0 1.587.2 2.942.61 4.065.42 1.123 1.01 2.044 1.77 2.763a6.846 6.846 0 0 0 2.7 1.617c1.06.344 2.23.517 3.5.517.69 0 1.38-.038 2.07-.113.7-.06 1.38-.149 2.02-.269.64-.12 1.24-.27 1.8-.449a7.63 7.63 0 0 0 1.48-.629l-.61-4.021c-.27.075-.6.15-1.01.225-.39.075-.81.142-1.26.202-.46.075-.95.142-1.46.202a15.7 15.7 0 0 1-1.43.068 6.62 6.62 0 0 1-1.78-.225c-.54-.15-1-.412-1.39-.786-.37-.345-.67-.809-.88-1.393-.21-.599-.31-1.347-.31-2.246V367.01h9.1v-4.313h-9.1v-5.929Zm22.3 9.343V352.5h-5.79V387h5.79v-17.564c.26-.345.54-.659.86-.944a5.66 5.66 0 0 1 1.03-.741c.43-.255.91-.442 1.41-.562a7.677 7.677 0 0 1 1.69-.179c.75-.015 1.42.082 2.02.292.6.194 1.11.501 1.53.921.4.419.72.951.94 1.594.23.644.34 1.415.34 2.314V387h5.79v-14.824c0-1.752-.21-3.25-.63-4.492-.41-1.258-1.01-2.291-1.77-3.1a6.727 6.727 0 0 0-2.72-1.752c-1.06-.389-2.23-.584-3.5-.584-.89 0-1.72.135-2.52.404-.79.255-1.52.614-2.18 1.078-.43.315-.84.674-1.23 1.079-.38.389-.73.823-1.06 1.302Zm68.96 6.402v-4.695h-13.48v-8.714h15.66v-4.807h-21.54V387h21.63v-4.762h-15.75v-9.725h13.48Zm7.46 2.156v.472c0 1.752.21 3.384.65 4.896.45 1.498 1.08 2.8 1.91 3.908a8.76 8.76 0 0 0 2.98 2.583c1.19.614 2.51.921 3.98.921 1.39 0 2.61-.262 3.66-.786a8.098 8.098 0 0 0 2.74-2.201L1370 387h5.26v-34.5h-5.82v12.421a8.117 8.117 0 0 0-2.63-1.977c-.99-.464-2.14-.696-3.46-.696-1.49 0-2.83.3-4.02.898-1.18.599-2.18 1.445-3.01 2.539-.82 1.093-1.45 2.403-1.88 3.93-.44 1.528-.65 3.212-.65 5.054Zm5.79.472v-.472c0-1.063.1-2.059.29-2.987.2-.929.5-1.745.92-2.449a4.66 4.66 0 0 1 1.62-1.617c.67-.404 1.48-.606 2.43-.606 1.12 0 2.05.247 2.8.741s1.35 1.168 1.8 2.021v10.13c-.45.869-1.05 1.55-1.8 2.044s-1.7.742-2.85.742c-.94 0-1.74-.195-2.4-.584a4.52 4.52 0 0 1-1.6-1.618 7.313 7.313 0 0 1-.94-2.403c-.18-.913-.27-1.894-.27-2.942Zm23.94-12.444v4.784h7.21v14.757h-7.21V387h19.95v-4.762h-6.87v-19.541h-13.08Zm6.74-6.244c0 .509.11.973.34 1.393.22.419.55.741.96.966.42.239.85.381 1.28.426.45.03.89-.03 1.31-.179.88-.075 1.56-.39 2.04-.944.5-.554.72-1.235.68-2.044-.05-.823-.36-1.49-.95-1.999-.57-.509-1.33-.763-2.29-.763-.51 0-.97.074-1.39.224-.41.15-.75.36-1.03.629-.3.285-.54.622-.7 1.011a3.16 3.16 0 0 0-.25 1.28Zm30.57.315h-5.82v5.929h-5.72v4.313h5.72v11.5c0 1.587.21 2.942.61 4.065.42 1.123 1.01 2.044 1.77 2.763a6.846 6.846 0 0 0 2.7 1.617c1.06.344 2.23.517 3.5.517.69 0 1.38-.038 2.07-.113.7-.06 1.38-.149 2.02-.269.65-.12 1.24-.27 1.8-.449a7.63 7.63 0 0 0 1.48-.629l-.61-4.021c-.27.075-.6.15-1.01.225-.39.075-.8.142-1.25.202-.47.075-.95.142-1.46.202-.5.045-.98.068-1.44.068a6.62 6.62 0 0 1-1.78-.225c-.53-.15-1-.412-1.39-.786-.37-.345-.66-.809-.87-1.393-.21-.599-.32-1.347-.32-2.246V367.01h9.1v-4.313h-9.1v-5.929Zm17.95 5.929v4.784h7.21v14.757h-7.21V387h19.94v-4.762h-6.87v-19.541h-13.07Zm6.74-6.244c0 .509.11.973.33 1.393.23.419.55.741.97.966.42.239.84.381 1.28.426.45.03.88-.03 1.3-.179.88-.075 1.57-.39 2.05-.944.49-.554.71-1.235.67-2.044-.05-.823-.36-1.49-.94-1.999-.57-.509-1.34-.763-2.3-.763-.5 0-.97.074-1.39.224-.4.15-.75.36-1.03.629-.3.285-.53.622-.7 1.011-.16.389-.24.816-.24 1.28Zm18.53 18.171v.472c0 1.782.25 3.429.76 4.941.51 1.498 1.26 2.8 2.25 3.908.95 1.108 2.14 1.977 3.54 2.606 1.43.614 3.04.921 4.86.921 1.79 0 3.4-.307 4.8-.921 1.41-.629 2.6-1.498 3.57-2.606.96-1.108 1.7-2.41 2.21-3.908.5-1.512.76-3.159.76-4.941v-.472c0-1.767-.26-3.399-.76-4.896-.51-1.513-1.25-2.823-2.21-3.931-.98-1.108-2.18-1.977-3.59-2.606-1.41-.629-3.02-.943-4.83-.943-1.8 0-3.4.314-4.81.943-1.4.629-2.59 1.498-3.54 2.606-.99 1.108-1.74 2.418-2.25 3.931-.51 1.497-.76 3.129-.76 4.896Zm5.79.472v-.472c0-1.033.11-2.006.32-2.92.22-.928.56-1.744 1.01-2.448a4.86 4.86 0 0 1 1.73-1.685c.7-.404 1.54-.606 2.51-.606.99 0 1.84.202 2.54.606.7.405 1.28.966 1.73 1.685.43.704.75 1.52.96 2.448.23.914.34 1.887.34 2.92v.472c0 1.063-.11 2.059-.34 2.987-.21.928-.53 1.737-.96 2.426a4.93 4.93 0 0 1-1.73 1.684c-.7.405-1.54.607-2.49.607-.99 0-1.85-.202-2.56-.607a4.849 4.849 0 0 1-1.73-1.684c-.45-.689-.79-1.498-1.01-2.426a13.51 13.51 0 0 1-.32-2.987ZM1492.59 387h5.82v-17.295c.23-.374.48-.711.76-1.011.29-.314.6-.584.95-.808a4.92 4.92 0 0 1 1.41-.652 6.661 6.661 0 0 1 1.78-.224c.75 0 1.41.075 2 .224.6.15 1.1.42 1.52.809.42.374.75.891.97 1.55.22.644.34 1.46.34 2.448V387h5.79v-15.049c0-1.737-.2-3.219-.6-4.447-.41-1.228-.98-2.231-1.71-3.01a6.728 6.728 0 0 0-2.67-1.707c-1.02-.359-2.15-.539-3.37-.539-.96 0-1.87.135-2.72.404-.86.27-1.64.659-2.36 1.168-.43.3-.85.644-1.24 1.034-.37.374-.72.793-1.05 1.257l-.36-3.414h-5.26V387Zm-272.38 205.297h-3.46V625h2.63v-14.487l-.18-14.061 6.69 18.71h1.75l7.26-19.047-.18 14.398V625h2.63v-32.703h-3.53l-7.03 18.44-6.58-18.44Zm40.83 7.951c-2.2-.015-4.11.442-5.75 1.37-1.61.929-2.89 2.224-3.84 3.886l-.02-1.078-.16-3.729h-2.56V625h2.79l-.05-15.565c.3-1.109.73-2.067 1.28-2.875a8.194 8.194 0 0 1 2-2.044c.8-.554 1.69-.959 2.68-1.213 1-.27 2.07-.405 3.21-.405.66 0 1.3.038 1.93.113.63.075 1.25.179 1.86.314l.36-2.605c-.46-.15-1.04-.262-1.73-.337-.67-.09-1.34-.135-2-.135Zm19.41 22.82c0 .614.2 1.138.61 1.573.4.419.95.629 1.66.629.7 0 1.26-.21 1.68-.629.44-.435.65-.959.65-1.573 0-.644-.2-1.183-.62-1.617-.42-.449-.99-.674-1.71-.674-.71 0-1.26.225-1.66.674-.41.449-.61.988-.61 1.617Zm67.76-7.996h-2.67a14.547 14.547 0 0 1-.87 3.167 8.8 8.8 0 0 1-1.55 2.583 6.994 6.994 0 0 1-2.41 1.73c-.93.404-2.01.606-3.25.606-1.08 0-2.03-.179-2.86-.539a6.906 6.906 0 0 1-2.15-1.46 8.616 8.616 0 0 1-1.6-2.089c-.42-.808-.76-1.669-1.03-2.583-.29-.883-.49-1.797-.61-2.74a26.39 26.39 0 0 1-.2-2.74v-4.762c.02-.883.08-1.789.2-2.718.12-.943.32-1.864.61-2.762.27-.899.62-1.745 1.06-2.538a8.36 8.36 0 0 1 1.57-2.112 6.8 6.8 0 0 1 2.15-1.415c.84-.359 1.79-.546 2.86-.561 1.24 0 2.32.217 3.25.651.93.419 1.72.996 2.38 1.73a8.773 8.773 0 0 1 1.58 2.605c.4.988.69 2.044.87 3.167h2.67a14.254 14.254 0 0 0-1.1-4.155 10.688 10.688 0 0 0-2.15-3.347c-.92-.928-2-1.655-3.26-2.179-1.26-.524-2.67-.778-4.24-.763-1.32 0-2.5.202-3.55.606a9.194 9.194 0 0 0-2.79 1.617c-.82.689-1.53 1.505-2.13 2.449-.6.928-1.09 1.924-1.48 2.987a18.175 18.175 0 0 0-.88 3.347 22.33 22.33 0 0 0-.31 3.436v4.717c.01 1.153.12 2.306.31 3.459.19 1.138.49 2.246.88 3.324.39 1.063.87 2.059 1.46 2.987a10.18 10.18 0 0 0 2.15 2.426 9.594 9.594 0 0 0 2.79 1.64c1.06.404 2.24.606 3.55.606 1.55 0 2.95-.262 4.2-.786a9.653 9.653 0 0 0 3.25-2.201c.9-.913 1.63-2.007 2.18-3.279.57-1.273.95-2.643 1.12-4.111Zm23.72 9.928h2.52v-24.303h-2.72v17.115a7.356 7.356 0 0 1-.94 2.157c-.41.629-.91 1.16-1.51 1.594-.64.495-1.39.876-2.24 1.146-.86.255-1.81.382-2.86.382-1 0-1.87-.157-2.6-.472a4.61 4.61 0 0 1-1.84-1.415c-.5-.629-.86-1.4-1.1-2.313-.24-.929-.36-1.999-.36-3.212v-14.982h-2.7v14.937c.02 1.557.2 2.95.56 4.178.36 1.212.89 2.231 1.6 3.054.7.839 1.56 1.483 2.58 1.932 1.03.434 2.22.651 3.57.651 1.83 0 3.41-.374 4.74-1.123a8.622 8.622 0 0 0 3.19-3.167l.11 3.841Zm27.25-24.752c-2.2-.015-4.12.442-5.75 1.37-1.62.929-2.9 2.224-3.84 3.886l-.02-1.078-.16-3.729h-2.56V625h2.78l-.04-15.565c.3-1.109.72-2.067 1.28-2.875a8.026 8.026 0 0 1 2-2.044 8.12 8.12 0 0 1 2.67-1.213c1-.27 2.07-.405 3.21-.405.66 0 1.3.038 1.93.113.63.075 1.25.179 1.87.314l.36-2.605c-.47-.15-1.04-.262-1.73-.337-.68-.09-1.34-.135-2-.135Zm20.53-5.772h-2.74v6.221h-6.76v2.224h6.76v15.228c.01 1.333.21 2.464.58 3.392.39.913.92 1.662 1.6 2.246a6 6 0 0 0 2.38 1.258c.93.269 1.93.404 3.01.404.52 0 1.05-.022 1.57-.067.54-.03 1.06-.083 1.55-.157.39-.06.76-.135 1.1-.225.36-.105.68-.217.97-.337l-.43-2.044c-.23.03-.49.075-.79.135-.3.045-.61.09-.94.135a19.036 19.036 0 0 1-2.58.179c-.74 0-1.43-.082-2.07-.247a4.316 4.316 0 0 1-1.66-.831c-.48-.374-.86-.868-1.15-1.482-.27-.629-.41-1.415-.42-2.359v-15.228h9v-2.224h-9l.02-6.221Zm19.27 6.221v2.404h8.6v19.496h-8.6V625h19.56v-2.403h-8.29v-21.9h-11.27Zm7.82-6.648c0 .539.15 1.003.47 1.392.31.39.83.584 1.55.584.72 0 1.23-.194 1.55-.584.33-.389.49-.853.49-1.392 0-.3-.04-.577-.13-.831a1.755 1.755 0 0 0-.39-.674c-.16-.165-.37-.3-.62-.404a2.39 2.39 0 0 0-.9-.158c-.35 0-.65.053-.9.158-.26.104-.47.239-.63.404-.18.195-.31.427-.38.696-.08.255-.11.524-.11.809Zm36.14 24.752a3.12 3.12 0 0 1-.39 1.55c-.24.464-.58.876-1.03 1.235-.69.524-1.5.921-2.45 1.19-.94.255-1.94.382-3.01.382-.81 0-1.64-.075-2.49-.224a7.828 7.828 0 0 1-2.31-.831 5.786 5.786 0 0 1-1.8-1.528c-.48-.644-.76-1.445-.85-2.403h-2.7c.05 1.108.33 2.111.85 3.01.54.898 1.28 1.662 2.2 2.291.9.614 1.97 1.1 3.19 1.46 1.23.344 2.53.516 3.91.516 1.28 0 2.53-.157 3.75-.471 1.23-.315 2.31-.802 3.24-1.46a6.805 6.805 0 0 0 1.86-2.044c.48-.824.72-1.76.72-2.808 0-1.108-.25-2.051-.76-2.83a6.643 6.643 0 0 0-2-2.022c-.86-.554-1.84-1.01-2.97-1.37a39.59 39.59 0 0 0-3.52-.943c-.96-.195-1.88-.412-2.77-.651-.86-.255-1.61-.569-2.24-.944-.63-.344-1.11-.771-1.44-1.28-.33-.524-.49-1.138-.49-1.842 0-.704.18-1.318.56-1.842a4.4 4.4 0 0 1 1.46-1.325c.6-.359 1.28-.621 2.04-.786.78-.18 1.58-.269 2.41-.269.86 0 1.7.112 2.51.336.82.225 1.56.547 2.2.966.63.42 1.14.936 1.53 1.55.4.614.61 1.31.63 2.089h2.72c-.05-1.153-.33-2.179-.86-3.077a7.317 7.317 0 0 0-2.04-2.291c-.85-.614-1.86-1.078-3.01-1.393-1.14-.329-2.37-.494-3.68-.494-1.17 0-2.31.15-3.42.449-1.09.3-2.05.719-2.87 1.258-.87.584-1.57 1.288-2.09 2.111-.51.824-.77 1.76-.77 2.808 0 1.108.26 2.051.77 2.83.52.764 1.2 1.393 2.04 1.887.9.524 1.87.951 2.9 1.28 1.03.33 2.17.622 3.41.876.99.21 1.94.464 2.86.764.91.299 1.69.659 2.33 1.078.59.374 1.04.831 1.37 1.37.33.524.5 1.138.5 1.842Zm-254.62 230.52 7.16 13.679h2.81l.02-.292-7.48-14.016c.95-.389 1.81-.861 2.59-1.415a9.658 9.658 0 0 0 2.04-1.909 8.738 8.738 0 0 0 1.33-2.448c.33-.899.49-1.902.49-3.01 0-1.527-.28-2.882-.83-4.065a8.59 8.59 0 0 0-2.22-2.988 9.817 9.817 0 0 0-3.35-1.864 13.389 13.389 0 0 0-4.07-.696h-9.23V863h2.65v-13.679h8.09Zm-8.09-2.313V832.61h6.58c1.1.015 2.11.188 3.06.517.96.329 1.78.801 2.47 1.415.7.629 1.25 1.393 1.64 2.291.4.898.6 1.917.6 3.055 0 1.048-.18 2.006-.56 2.875a6.53 6.53 0 0 1-1.5 2.201 7.32 7.32 0 0 1-2.31 1.482c-.87.36-1.82.547-2.83.562h-7.15Zm24.73-16.711v2.426h7.95v27.874h-7.95V863h18.94v-2.403h-8.2v-27.874h8.2v-2.426h-18.94Zm30.84 19.226h7.62c1.42-.015 2.75-.239 3.99-.673 1.26-.435 2.36-1.064 3.3-1.887a8.744 8.744 0 0 0 2.21-2.965c.55-1.183.83-2.523.83-4.02 0-1.513-.27-2.86-.81-4.043a8.945 8.945 0 0 0-2.23-3.033c-.92-.823-2.02-1.452-3.27-1.886-1.26-.45-2.6-.689-4.02-.719h-10.29V863h2.67v-13.477Zm0-2.313v-14.6h7.62c1.07.015 2.08.202 3 .562.95.344 1.76.838 2.45 1.482a6.902 6.902 0 0 1 1.6 2.336c.39.899.58 1.909.58 3.032 0 1.109-.2 2.104-.6 2.988a6.454 6.454 0 0 1-1.62 2.246 7.557 7.557 0 0 1-2.43 1.437c-.93.33-1.92.502-2.98.517h-7.62ZM244.483 387v-8.251l18.943-.697V226.745l-18.943-.697v-8.251h124.579v35.56h-9.065l-.581-26.612h-85.88v69.843h72.051v9.181h-72.051v72.283l18.943.697V387h-47.996Zm145.613 0v-8.251l18.942-.697V214.659l-18.942-.697v-8.251h29.052v172.341l18.943.697V387h-47.995Zm109.122 2.44c-11.544 0-20.647-3.137-27.31-9.413-6.663-6.353-9.994-14.836-9.994-25.45 0-7.592 2.247-14.294 6.74-20.104 4.494-5.811 10.885-10.343 19.175-13.597 8.29-3.254 18.052-4.881 29.285-4.881h27.426v-15.224c0-9.761-2.866-17.664-8.6-23.707-5.733-6.12-14.526-9.18-26.379-9.18-6.431 0-12.28 1.123-17.548 3.37-5.269 2.247-9.801 5.036-13.597 8.367l-.465 19.872h-8.948v-25.101c5.268-4.726 11.234-8.484 17.896-11.273 6.663-2.789 14.256-4.183 22.778-4.183 14.72 0 25.876 3.757 33.469 11.272 7.669 7.438 11.504 17.703 11.504 30.796v60.662c0 2.867.078 5.694.233 8.483.232 2.789.62 5.579 1.162 8.368l16.269.232V387h-25.217c-.93-5.036-1.589-8.987-1.976-11.854-.387-2.866-.581-6.159-.581-9.877-4.648 7.127-10.924 12.938-18.826 17.431-7.825 4.494-16.657 6.74-26.496 6.74Zm.697-9.18c9.142 0 17.858-2.479 26.147-7.438 8.29-4.958 14.449-11.66 18.478-20.104v-28.239h-27.426c-13.79 0-24.753 2.905-32.887 8.715-8.135 5.811-12.203 13.093-12.203 21.848 0 7.283 2.557 13.326 7.67 18.129 5.191 4.726 11.931 7.089 20.221 7.089Zm138.059 9.18c-8.987 0-17.316-1.317-24.986-3.951-7.592-2.711-14.332-6.469-20.22-11.272l-.117-24.172h8.832l1.046 18.826c4.494 4.106 9.801 7.089 15.921 8.948 6.121 1.86 12.628 2.789 19.524 2.789 11.078 0 19.678-2.479 25.798-7.437 6.198-5.036 9.297-10.885 9.297-17.548 0-6.275-2.673-11.892-8.018-16.851-5.268-5.035-14.604-9.025-28.007-11.969-14.875-3.177-25.566-7.36-32.074-12.551-6.508-5.268-9.762-12.706-9.762-22.313 0-6.275 1.704-11.892 5.113-16.85 3.409-4.958 8.251-8.871 14.527-11.737 6.353-2.944 13.829-4.416 22.428-4.416 9.142 0 17.122 1.433 23.94 4.299 6.818 2.867 12.628 6.741 17.431 11.621l.233 24.637h-8.716l-.93-19.523c-3.718-3.874-8.134-6.857-13.248-8.949-5.035-2.091-11.272-3.137-18.71-3.137-10.381 0-18.322 2.401-23.823 7.205-5.423 4.803-8.135 10.304-8.135 16.502 0 4.106.891 7.747 2.673 10.924 1.782 3.099 5.113 5.888 9.994 8.367 4.881 2.402 12.048 4.687 21.499 6.856 14.875 3.332 25.877 7.98 33.004 13.946 7.128 5.888 10.692 13.751 10.692 23.59 0 10.072-4.029 18.284-12.086 24.637-7.98 6.353-19.02 9.529-33.12 9.529Zm67.17-2.44v-8.251l18.942-.697V214.659l-18.942-.697v-8.251h29.052v79.837c3.951-8.445 9.53-14.991 16.735-19.64 7.282-4.648 15.998-6.972 26.147-6.972 13.171 0 23.204 4.144 30.099 12.434 6.972 8.212 10.459 21.073 10.459 38.582v68.1l18.942.697V387h-48.111v-8.251l18.942-.697V309.72c0-15.03-2.866-25.722-8.599-32.074-5.656-6.431-13.442-9.646-23.359-9.646-11.853 0-21.15 3.486-27.89 10.459-6.741 6.895-11.195 15.805-13.365 26.729v72.864l18.943.697V387h-47.995ZM296.546 625l-41.139-160.604-12.434-.348v-8.251h41.371v8.251l-18.362.581 29.053 117.373 6.857 25.45h.697l7.205-25.45 40.325-126.205h10.11l40.209 126.205 7.089 25.799h.698l7.205-25.799 28.82-117.373-18.594-.581v-8.251h41.023v8.251l-12.202.348L413.803 625h-10.459l-42.533-135.502-5.346-16.967h-.697l-5.23 16.967L306.772 625h-10.226Zm236.373 2.44c-10.459 0-19.717-2.595-27.774-7.786-8.058-5.19-14.411-12.357-19.059-21.499-4.571-9.219-6.857-19.833-6.857-31.842v-6.856c0-12.008 2.247-22.7 6.741-32.074 4.571-9.452 10.769-16.89 18.593-22.313 7.825-5.423 16.619-8.134 26.38-8.134 9.84 0 18.362 2.169 25.567 6.507 7.282 4.339 12.86 10.421 16.734 18.245 3.874 7.825 5.811 17.083 5.811 27.775v10.691h-89.483l-.116 6.973c.078 9.839 1.937 18.632 5.578 26.38 3.641 7.747 8.716 13.868 15.224 18.361 6.508 4.416 14.061 6.624 22.661 6.624 7.902 0 14.875-1.317 20.918-3.951 6.12-2.634 11.544-6.198 16.269-10.691l4.649 7.205c-5.036 4.803-10.963 8.754-17.78 11.853-6.741 3.022-14.759 4.532-24.056 4.532Zm-42.185-76.234h78.21v-3.719c0-7.902-1.549-14.991-4.648-21.266-3.022-6.276-7.399-11.234-13.132-14.875-5.656-3.642-12.396-5.462-20.221-5.462-7.282 0-13.867 1.975-19.755 5.927-5.811 3.873-10.576 9.18-14.294 15.92-3.642 6.741-5.811 14.333-6.508 22.778l.348.697Zm170.83 76.234c-9.529 0-17.819-1.898-24.869-5.694-7.05-3.874-12.589-9.181-16.618-15.921L618.915 625h-8.6V452.659l-18.942-.697v-8.251h29.053v76.583c4.106-7.283 9.568-12.977 16.386-17.083 6.895-4.184 15.068-6.275 24.52-6.275 9.994 0 18.555 2.711 25.683 8.134 7.127 5.346 12.589 12.938 16.385 22.778 3.874 9.839 5.811 21.421 5.811 34.747v2.44c0 12.706-1.898 23.746-5.694 33.12-3.797 9.297-9.259 16.502-16.386 21.616-7.05 5.113-15.572 7.669-25.567 7.669Zm-1.162-9.064c12.629 0 22.197-4.803 28.704-14.41 6.508-9.684 9.762-22.661 9.762-38.931v-2.44c0-11.157-1.472-20.957-4.416-29.402-2.866-8.522-7.205-15.185-13.015-19.988-5.734-4.803-12.822-7.205-21.267-7.205-11.079 0-19.756 2.828-26.031 8.483-6.276 5.579-10.847 12.512-13.713 20.802v57.176c3.021 7.825 7.863 14.1 14.526 18.826 6.74 4.726 15.224 7.089 25.45 7.089ZM244.483 863v-8.251l18.943-.697V702.745l-18.943-.697v-8.251H309.678c14.1 0 26.573 3.602 37.42 10.807 10.923 7.128 19.484 16.967 25.682 29.518 6.276 12.473 9.413 26.845 9.413 43.114v2.441c0 16.114-3.099 30.447-9.297 42.998-6.12 12.551-14.603 22.429-25.45 29.634C336.6 859.436 324.088 863 309.91 863h-65.427Zm29.053-8.948h36.142c12.163 0 22.932-3.254 32.306-9.762 9.375-6.508 16.735-15.379 22.08-26.612 5.346-11.234 8.019-23.901 8.019-38.001v-2.789c0-14.178-2.673-26.845-8.019-38.001-5.345-11.157-12.705-19.95-22.08-26.38-9.374-6.508-20.143-9.762-32.306-9.762h-36.142v151.307ZM462.03 865.44c-10.459 0-19.717-2.595-27.774-7.786-8.057-5.19-14.41-12.357-19.059-21.499-4.571-9.219-6.856-19.833-6.856-31.842v-6.856c0-12.008 2.247-22.7 6.74-32.074 4.571-9.452 10.769-16.89 18.594-22.313 7.825-5.423 16.618-8.134 26.38-8.134 9.839 0 18.361 2.169 25.566 6.507 7.283 4.339 12.861 10.421 16.734 18.245 3.874 7.825 5.811 17.083 5.811 27.775v10.691h-89.482l-.117 6.973c.078 9.839 1.937 18.632 5.579 26.38 3.641 7.747 8.715 13.868 15.223 18.361 6.508 4.416 14.062 6.624 22.661 6.624 7.903 0 14.875-1.317 20.918-3.951 6.121-2.634 11.544-6.198 16.27-10.691l4.648 7.205c-5.036 4.803-10.962 8.754-17.78 11.853-6.74 3.022-14.759 4.532-24.056 4.532Zm-42.184-76.234h78.21v-3.719c0-7.902-1.55-14.991-4.649-21.266-3.021-6.276-7.399-11.234-13.132-14.875-5.655-3.642-12.395-5.462-20.22-5.462-7.283 0-13.868 1.975-19.756 5.927-5.811 3.873-10.575 9.18-14.294 15.92-3.641 6.741-5.811 14.333-6.508 22.778l.349.697Zm159.325 76.234c-8.987 0-17.316-1.317-24.985-3.951-7.593-2.711-14.333-6.469-20.221-11.272l-.116-24.172h8.832l1.046 18.826c4.493 4.106 9.8 7.089 15.92 8.948 6.121 1.86 12.629 2.789 19.524 2.789 11.079 0 19.678-2.479 25.799-7.437 6.198-5.036 9.297-10.885 9.297-17.548 0-6.275-2.673-11.892-8.019-16.851-5.268-5.035-14.604-9.025-28.007-11.969-14.875-3.177-25.566-7.36-32.074-12.551-6.508-5.268-9.762-12.706-9.762-22.313 0-6.275 1.705-11.892 5.114-16.85 3.408-4.958 8.251-8.871 14.526-11.737 6.353-2.944 13.829-4.416 22.429-4.416 9.142 0 17.121 1.433 23.939 4.299 6.818 2.867 12.628 6.741 17.432 11.621l.232 24.637h-8.716l-.929-19.523c-3.719-3.874-8.135-6.857-13.248-8.949-5.036-2.091-11.273-3.137-18.71-3.137-10.382 0-18.323 2.401-23.824 7.205-5.423 4.803-8.134 10.304-8.134 16.502 0 4.106.891 7.747 2.672 10.924 1.782 3.099 5.114 5.888 9.995 8.367 4.88 2.402 12.047 4.687 21.499 6.856 14.875 3.332 25.876 7.98 33.004 13.946 7.127 5.888 10.691 13.751 10.691 23.59 0 10.072-4.029 18.284-12.086 24.637-7.98 6.353-19.02 9.529-33.12 9.529Zm70.075-2.44v-8.251l18.942-.697V746.208l-18.942-.697v-8.251h29.053v116.792l18.942.697V863h-47.995Zm17.083-163.16v-18.129h11.97v18.129h-11.97Zm106.798 213.944c-6.12 0-12.551-.697-19.291-2.092-6.74-1.317-12.628-3.176-17.664-5.578l2.789-8.948c5.346 2.402 10.691 4.222 16.037 5.462 5.423 1.317 11.389 1.976 17.897 1.976 12.628 0 22.196-3.835 28.704-11.505 6.585-7.67 9.878-18.245 9.878-31.726v-16.851c-4.107 6.508-9.607 11.622-16.502 15.34-6.896 3.719-14.992 5.578-24.288 5.578-9.917 0-18.478-2.556-25.683-7.669-7.128-5.114-12.59-12.358-16.386-21.732-3.796-9.374-5.694-20.376-5.694-33.004v-2.44c0-13.403 1.898-24.986 5.694-34.747 3.796-9.84 9.258-17.432 16.386-22.778 7.205-5.423 15.843-8.134 25.915-8.134 9.452 0 17.625 2.13 24.52 6.391 6.896 4.184 12.396 9.994 16.502 17.432l1.279-21.499h8.483v124.113c0 10.691-1.937 19.95-5.81 27.774-3.874 7.903-9.452 13.985-16.735 18.246-7.205 4.261-15.882 6.391-26.031 6.391Zm-1.278-57.408c10.226 0 18.632-2.324 25.217-6.973 6.586-4.726 11.389-11.04 14.411-18.942v-57.292c-2.944-8.29-7.515-15.224-13.713-20.802-6.121-5.578-14.682-8.367-25.683-8.367-8.445 0-15.572 2.402-21.383 7.205-5.81 4.803-10.188 11.466-13.132 19.988-2.944 8.445-4.416 18.245-4.416 29.402v2.44c0 16.27 3.254 29.247 9.762 38.931 6.585 9.607 16.231 14.41 28.937 14.41Zm47.297-109.936-2.672-9.18h21.615v8.251l-18.943.929ZM855.869 863v-8.251l18.943-.697V746.208l-18.943-.697v-8.251h27.775l.929 24.288c3.874-8.445 9.336-14.991 16.386-19.64 7.128-4.648 15.727-6.972 25.799-6.972 13.635 0 23.939 4.261 30.912 12.783 7.05 8.444 10.575 21.77 10.575 39.976v66.357l18.943.697V863h-47.996v-8.251l18.943-.697v-66.357c0-15.959-2.906-27.232-8.716-33.817-5.811-6.585-13.868-9.878-24.172-9.878-11.931 0-21.15 3.486-27.658 10.459-6.508 6.973-10.73 15.96-12.667 26.961v72.632l18.942.697V863h-47.995Z" fill="#3C4043"/></svg>