<svg width="1920" height="1080" fill="none" xmlns="http://www.w3.org/2000/svg"><g clip-path="url(#a)"><path fill="#D2E3FC" d="M50 588h1820v10H50zM50 474h1820v10H50zM50 430h1820v10H50zM50 418h1820v10H50zM50 637h1820v10H50z"/><path d="M330.378 589.53h23.958V438.038h-48.884v29.766h-12.584v-38.72h137.698v38.72h-12.584v-29.766h-48.884V589.53h23.958V598h-62.678v-8.47Zm275.594 59.774c-7.26 0-12.503-1.613-15.73-4.84-3.226-3.065-4.84-6.776-4.84-11.132 0-3.388.888-6.131 2.662-8.228 1.775-1.936 4.356-2.904 7.744-2.904 2.904 0 5.163.887 6.776 2.662 1.775 1.775 2.662 4.195 2.662 7.26 0 2.259-.645 4.114-1.936 5.566-1.129 1.452-2.5 2.501-4.114 3.146v.484c1.775.645 4.114.968 7.018.968 5.163 0 9.761-2.017 13.794-6.05 4.195-4.033 7.986-10.648 11.374-19.844l5.566-15.004-45.496-118.822H579.11v-8.47h48.158v8.47h-20.57l36.784 99.704h.968l36.058-99.704h-20.57v-8.47h43.318v8.47h-12.342l-51.546 135.278c-3.71 9.841-8.308 17.505-13.794 22.99-5.324 5.647-11.858 8.47-19.602 8.47ZM828.59 637.93h18.876V485.712l-18.876-2.42V477l32.912-5.324v22.022h.968c2.742-6.131 7.179-11.374 13.31-15.73 6.13-4.517 14.358-6.776 24.684-6.776 15.81 0 28.233 5.485 37.268 16.456 9.196 10.971 13.794 27.104 13.794 48.4s-4.598 37.429-13.794 48.4c-9.035 10.971-21.458 16.456-37.268 16.456-10.164 0-18.392-2.178-24.684-6.534-6.292-4.517-10.729-9.761-13.31-15.73h-.968v59.29h23.716v8.47H828.59v-8.47Zm68.244-47.19c12.584 0 22.264-4.114 29.04-12.342 6.937-8.389 10.406-19.683 10.406-33.88v-16.94c0-14.197-3.469-25.41-10.406-33.638-6.776-8.389-16.456-12.584-29.04-12.584-4.518 0-8.874.645-13.068 1.936-4.195 1.291-7.986 3.146-11.374 5.566a31.587 31.587 0 0 0-7.986 8.712c-1.936 3.388-2.904 7.26-2.904 11.616v53.724c0 4.356.968 8.228 2.904 11.616a31.587 31.587 0 0 0 7.986 8.712c3.388 2.42 7.179 4.275 11.374 5.566 4.194 1.291 8.55 1.936 13.068 1.936Zm273.686 10.164c-16.78 0-30.09-5.647-39.93-16.94-9.84-11.293-14.76-27.265-14.76-47.916 0-9.841 1.29-18.795 3.87-26.862 2.74-8.067 6.54-14.843 11.38-20.328 4.84-5.647 10.56-10.003 17.18-13.068 6.61-3.065 13.87-4.598 21.78-4.598 7.74 0 14.68 1.452 20.81 4.356 6.29 2.904 11.62 6.937 15.97 12.1 4.36 5.001 7.67 11.132 9.92 18.392 2.42 7.099 3.63 14.843 3.63 23.232v4.114h-89.05v7.744c0 15.649 3.79 27.669 11.37 36.058 7.58 8.389 17.51 12.584 29.77 12.584 10.16 0 18.39-2.259 24.68-6.776 6.46-4.517 11.38-10.083 14.76-16.698l6.05 3.63c-1.61 3.872-3.79 7.663-6.53 11.374-2.74 3.711-6.13 7.018-10.16 9.922-3.88 2.904-8.39 5.243-13.56 7.018-5 1.775-10.72 2.662-17.18 2.662Zm-39.2-75.746h74.29v-1.452c0-6.292-.72-12.1-2.18-17.424-1.45-5.324-3.71-9.922-6.77-13.794-2.91-4.033-6.62-7.099-11.13-9.196-4.36-2.259-9.52-3.388-15.49-3.388-5.97 0-11.38 1.049-16.22 3.146a34.926 34.926 0 0 0-12.1 8.954c-3.38 3.872-5.97 8.47-7.74 13.794-1.77 5.324-2.66 11.213-2.66 17.666v1.694Zm296.5 75.746c-15.82 0-28.32-5.485-37.51-16.456-9.04-10.971-13.56-27.104-13.56-48.4s4.52-37.429 13.56-48.4c9.19-10.971 21.69-16.456 37.51-16.456 10.16 0 18.39 2.259 24.68 6.776 6.29 4.356 10.73 9.519 13.31 15.488h.97V428.6l-18.88-2.42v-6.292l32.91-5.324v171.82l18.88 2.42v6.292l-32.91 5.324v-22.022h-.97c-2.74 6.131-7.18 11.455-13.31 15.972-6.13 4.356-14.36 6.534-24.68 6.534Zm3.63-10.164c4.51 0 8.87-.645 13.06-1.936 4.2-1.291 7.91-3.146 11.14-5.566 3.38-2.42 6.05-5.324 7.98-8.712 2.1-3.388 3.15-7.26 3.15-11.616v-53.724c0-4.356-1.05-8.228-3.15-11.616-1.93-3.388-4.6-6.292-7.98-8.712-3.23-2.42-6.94-4.275-11.14-5.566-4.19-1.291-8.55-1.936-13.06-1.936-12.59 0-22.35 4.195-29.29 12.584-6.77 8.228-10.16 19.441-10.16 33.638v16.94c0 14.197 3.39 25.491 10.16 33.88 6.94 8.228 16.7 12.342 29.29 12.342Z" fill="#1A73E8"/><path d="M516.103 441.91V598h-14.52V441.91h-56.628v-12.826h127.776v12.826h-56.628Zm285.258 32.186h14.036l-57.354 158.752c-1.936 5.163-4.276 8.712-7.018 10.648-2.743 1.936-7.26 2.904-13.552 2.904h-14.036v-12.1h20.812l11.858-32.67-45.98-127.534h14.52l37.994 109.142h.968l37.752-109.142Zm185.672 0h13.797v19.844h.72c3.07-6.937 7.75-12.423 14.04-16.456 6.29-4.195 14.2-6.292 23.72-6.292 15.97 0 28.47 5.647 37.51 16.94 9.03 11.293 13.55 27.265 13.55 47.916 0 20.651-4.52 36.623-13.55 47.916-9.04 11.293-21.54 16.94-37.51 16.94-9.52 0-17.35-2.017-23.48-6.05-6.13-4.195-10.89-9.761-14.28-16.698h-.72V646.4h-13.797V474.096Zm49.127 114.466c12.42 0 22.1-3.953 29.04-11.858 6.94-7.905 10.41-18.553 10.41-31.944v-17.424c0-13.391-3.47-24.039-10.41-31.944-6.94-7.905-16.62-11.858-29.04-11.858-4.84 0-9.44.726-13.79 2.178-4.2 1.291-7.91 3.146-11.14 5.566-3.22 2.42-5.8 5.324-7.74 8.712-1.78 3.388-2.66 7.099-2.66 11.132v49.126c0 4.356.88 8.309 2.66 11.858 1.94 3.388 4.52 6.373 7.74 8.954 3.23 2.42 6.94 4.275 11.14 5.566 4.35 1.291 8.95 1.936 13.79 1.936Zm262.92 12.342c-8.23 0-15.73-1.452-22.51-4.356-6.61-2.904-12.34-7.099-17.18-12.584-4.68-5.647-8.31-12.503-10.89-20.57-2.42-8.067-3.63-17.182-3.63-27.346 0-10.164 1.21-19.199 3.63-27.104 2.58-8.067 6.21-14.843 10.89-20.328 4.84-5.647 10.57-9.922 17.18-12.826 6.62-3.065 14.04-4.598 22.27-4.598 7.9 0 15.08 1.533 21.54 4.598 6.45 2.904 11.93 7.018 16.45 12.342 4.52 5.324 7.99 11.777 10.41 19.36 2.58 7.421 3.87 15.649 3.87 24.684v6.534h-91.72v6.05c0 6.453.89 12.423 2.66 17.908 1.94 5.324 4.6 9.922 7.99 13.794 3.55 3.872 7.82 6.937 12.83 9.196 5 2.097 10.64 3.146 16.94 3.146 18.06 0 30.57-8.309 37.51-24.926l10.16 6.776c-3.87 9.196-10 16.537-18.39 22.022-8.23 5.485-18.23 8.228-30.01 8.228Zm-.24-118.096c-5.97 0-11.38 1.129-16.22 3.388a36.634 36.634 0 0 0-12.58 8.954c-3.39 3.872-6.05 8.551-7.99 14.036-1.77 5.324-2.66 11.213-2.66 17.666v1.21h76.72v-1.936c0-6.453-.89-12.342-2.67-17.666-1.77-5.485-4.35-10.083-7.74-13.794-3.23-3.711-7.18-6.615-11.86-8.712-4.52-2.097-9.52-3.146-15-3.146Zm311.38 95.348h-.73c-3.23 6.937-7.98 12.503-14.28 16.698-6.13 4.033-13.95 6.05-23.47 6.05-15.97 0-28.48-5.647-37.51-16.94-9.04-11.293-13.55-27.265-13.55-47.916 0-20.651 4.51-36.623 13.55-47.916 9.03-11.293 21.54-16.94 37.51-16.94 9.52 0 17.42 2.097 23.72 6.292 6.29 4.033 10.97 9.519 14.03 16.456h.73v-75.02h13.79V598h-13.79v-19.844Zm-35.33 10.406c4.84 0 9.35-.645 13.55-1.936 4.35-1.291 8.14-3.146 11.37-5.566 3.23-2.581 5.73-5.566 7.5-8.954 1.94-3.549 2.91-7.502 2.91-11.858v-49.126c0-4.033-.97-7.744-2.91-11.132-1.77-3.388-4.27-6.292-7.5-8.712-3.23-2.42-7.02-4.275-11.37-5.566-4.2-1.452-8.71-2.178-13.55-2.178-12.43 0-22.11 3.953-29.04 11.858-6.94 7.905-10.41 18.553-10.41 31.944v17.424c0 13.391 3.47 24.039 10.41 31.944 6.93 7.905 16.61 11.858 29.04 11.858Z" fill="#FF6D7F"/></g><defs><clipPath id="a"><path fill="#fff" d="M0 0h1920v1080H0z"/></clipPath></defs></svg>