<svg width="1920" height="1080" fill="none" xmlns="http://www.w3.org/2000/svg"><path d="M640.93 863v-15.228h-3.456v-2.268h3.456v-.612c0-2.328.576-4.092 1.728-5.292 1.176-1.2 2.976-1.872 5.4-2.016l1.404-.072.252 2.232-1.656.108c-1.488.12-2.568.564-3.24 1.332-.648.768-.972 1.884-.972 3.348v.972h5.04v2.268h-5.04V863h-2.916Zm11.052 0v-17.496h2.844v3.132c.936-2.112 2.856-3.276 5.76-3.492l1.044-.108.216 2.52-1.836.216c-1.656.144-2.916.672-3.78 1.584-.864.888-1.296 2.112-1.296 3.672V863h-2.952Zm20.576.324c-2.76 0-4.944-.804-6.552-2.412-1.608-1.632-2.412-3.84-2.412-6.624 0-1.8.36-3.384 1.08-4.752.72-1.392 1.704-2.46 2.952-3.204 1.272-.768 2.736-1.152 4.392-1.152 2.376 0 4.236.768 5.58 2.304 1.344 1.512 2.016 3.6 2.016 6.264v1.116h-13.176c.096 1.992.672 3.516 1.728 4.572 1.056 1.032 2.52 1.548 4.392 1.548a9.722 9.722 0 0 0 3.024-.468c.96-.336 1.872-.876 2.736-1.62l1.008 2.052c-.792.744-1.8 1.332-3.024 1.764a11.766 11.766 0 0 1-3.744.612Zm-.468-15.984c-1.656 0-2.964.516-3.924 1.548s-1.524 2.388-1.692 4.068h10.62c-.072-1.776-.54-3.156-1.404-4.14-.84-.984-2.04-1.476-3.6-1.476Zm19.628 15.984c-2.76 0-4.944-.804-6.552-2.412-1.608-1.632-2.412-3.84-2.412-6.624 0-1.8.36-3.384 1.08-4.752.72-1.392 1.704-2.46 2.952-3.204 1.272-.768 2.736-1.152 4.392-1.152 2.376 0 4.236.768 5.58 2.304 1.344 1.512 2.016 3.6 2.016 6.264v1.116h-13.176c.096 1.992.672 3.516 1.728 4.572 1.056 1.032 2.52 1.548 4.392 1.548a9.722 9.722 0 0 0 3.024-.468c.96-.336 1.872-.876 2.736-1.62l1.008 2.052c-.792.744-1.8 1.332-3.024 1.764a11.766 11.766 0 0 1-3.744.612Zm-.468-15.984c-1.656 0-2.964.516-3.924 1.548s-1.524 2.388-1.692 4.068h10.62c-.072-1.776-.54-3.156-1.404-4.14-.84-.984-2.04-1.476-3.6-1.476ZM713.176 863v-15.228h-3.456v-2.268h3.456v-.612c0-2.328.576-4.092 1.728-5.292 1.176-1.2 2.976-1.872 5.4-2.016l1.404-.072.252 2.232-1.656.108c-1.488.12-2.568.564-3.24 1.332-.648.768-.972 1.884-.972 3.348v.972h5.04v2.268h-5.04V863h-2.916Zm11.052 0v-17.496h2.844v3.132c.936-2.112 2.856-3.276 5.76-3.492l1.044-.108.216 2.52-1.836.216c-1.656.144-2.916.672-3.78 1.584-.864.888-1.296 2.112-1.296 3.672V863h-2.952Zm19.964.324c-1.704 0-3.18-.372-4.428-1.116-1.248-.744-2.22-1.788-2.916-3.132-.672-1.368-1.008-2.976-1.008-4.824 0-1.848.336-3.444 1.008-4.788.696-1.368 1.668-2.424 2.916-3.168 1.248-.744 2.724-1.116 4.428-1.116 1.68 0 3.144.372 4.392 1.116 1.272.744 2.244 1.8 2.916 3.168.696 1.344 1.044 2.94 1.044 4.788 0 1.848-.348 3.456-1.044 4.824-.672 1.344-1.644 2.388-2.916 3.132-1.248.744-2.712 1.116-4.392 1.116Zm0-2.34c1.632 0 2.94-.576 3.924-1.728.984-1.176 1.476-2.844 1.476-5.004 0-2.184-.492-3.852-1.476-5.004-.984-1.152-2.292-1.728-3.924-1.728-1.656 0-2.976.576-3.96 1.728-.96 1.152-1.44 2.82-1.44 5.004 0 2.16.48 3.828 1.44 5.004.984 1.152 2.304 1.728 3.96 1.728ZM756.996 863v-17.496h2.844v2.952c.528-1.056 1.26-1.86 2.196-2.412.936-.576 2.028-.864 3.276-.864 2.736 0 4.488 1.188 5.256 3.564a5.973 5.973 0 0 1 2.34-2.592c1.032-.648 2.22-.972 3.564-.972 3.888 0 5.832 2.304 5.832 6.912V863h-2.916v-10.764c0-1.608-.288-2.784-.864-3.528-.552-.768-1.476-1.152-2.772-1.152-1.416 0-2.544.504-3.385 1.512-.839 1.008-1.259 2.352-1.259 4.032v9.9h-2.916v-10.764c0-1.608-.288-2.784-.864-3.528-.552-.768-1.476-1.152-2.772-1.152-1.44 0-2.58.504-3.42 1.512-.816 1.008-1.224 2.352-1.224 4.032v9.9h-2.916Zm40.006 6.48v-23.976h2.844v3.132a5.795 5.795 0 0 1 2.34-2.52c1.056-.624 2.28-.936 3.672-.936 1.56 0 2.916.372 4.068 1.116 1.176.72 2.076 1.764 2.7 3.132.648 1.344.972 2.952.972 4.824 0 1.848-.324 3.456-.972 4.824-.624 1.344-1.524 2.388-2.7 3.132-1.152.744-2.508 1.116-4.068 1.116-1.344 0-2.544-.3-3.6-.9-1.056-.6-1.836-1.428-2.34-2.484v9.54h-2.916Zm8.244-8.496c1.632 0 2.94-.576 3.924-1.728.984-1.176 1.476-2.844 1.476-5.004 0-2.184-.492-3.852-1.476-5.004-.984-1.152-2.292-1.728-3.924-1.728-1.632 0-2.94.576-3.924 1.728-.984 1.152-1.476 2.82-1.476 5.004 0 2.16.492 3.828 1.476 5.004.984 1.152 2.292 1.728 3.924 1.728Zm18.252 2.34c-1.2 0-2.28-.228-3.24-.684-.936-.48-1.68-1.128-2.232-1.944a4.774 4.774 0 0 1-.828-2.736c0-1.272.324-2.28.972-3.024.672-.744 1.764-1.272 3.276-1.584 1.536-.336 3.624-.504 6.264-.504h1.152v-1.116c0-1.488-.312-2.556-.936-3.204-.6-.672-1.572-1.008-2.916-1.008-1.056 0-2.076.156-3.06.468-.984.288-1.992.768-3.024 1.44l-1.008-2.124c.912-.648 2.016-1.164 3.312-1.548 1.32-.384 2.58-.576 3.78-.576 2.256 0 3.924.552 5.004 1.656 1.104 1.104 1.656 2.82 1.656 5.148V863h-2.736v-3.024a5.4 5.4 0 0 1-2.124 2.448c-.936.6-2.04.9-3.312.9Zm.468-2.196c1.44 0 2.616-.492 3.528-1.476.912-1.008 1.368-2.28 1.368-3.816v-1.08h-1.116c-1.944 0-3.48.096-4.608.288-1.104.168-1.884.48-2.34.936-.432.432-.648 1.032-.648 1.8 0 .984.336 1.788 1.008 2.412.696.624 1.632.936 2.808.936ZM837.08 863v-17.496h2.844v3.132c.936-2.112 2.856-3.276 5.76-3.492l1.044-.108.216 2.52-1.836.216c-1.656.144-2.916.672-3.78 1.584-.864.888-1.296 2.112-1.296 3.672V863h-2.952Zm18.234.324c-1.2 0-2.28-.228-3.24-.684-.936-.48-1.68-1.128-2.232-1.944a4.774 4.774 0 0 1-.828-2.736c0-1.272.324-2.28.972-3.024.672-.744 1.764-1.272 3.276-1.584 1.536-.336 3.624-.504 6.264-.504h1.152v-1.116c0-1.488-.312-2.556-.936-3.204-.6-.672-1.572-1.008-2.916-1.008-1.056 0-2.076.156-3.06.468-.984.288-1.992.768-3.024 1.44l-1.008-2.124c.912-.648 2.016-1.164 3.312-1.548 1.32-.384 2.58-.576 3.78-.576 2.256 0 3.924.552 5.004 1.656 1.104 1.104 1.656 2.82 1.656 5.148V863h-2.736v-3.024a5.4 5.4 0 0 1-2.124 2.448c-.936.6-2.04.9-3.312.9Zm.468-2.196c1.44 0 2.616-.492 3.528-1.476.912-1.008 1.368-2.28 1.368-3.816v-1.08h-1.116c-1.944 0-3.48.096-4.608.288-1.104.168-1.884.48-2.34.936-.432.432-.648 1.032-.648 1.8 0 .984.336 1.788 1.008 2.412.696.624 1.632.936 2.808.936Zm21.97 2.196c-1.392 0-2.616-.312-3.672-.936a6.017 6.017 0 0 1-2.34-2.556V863h-2.844v-25.38h2.916v10.908c.504-1.032 1.284-1.848 2.34-2.448 1.056-.6 2.256-.9 3.6-.9 1.56 0 2.916.372 4.068 1.116 1.176.72 2.076 1.764 2.7 3.132.648 1.344.972 2.952.972 4.824 0 1.848-.324 3.456-.972 4.824-.624 1.344-1.524 2.388-2.7 3.132-1.152.744-2.508 1.116-4.068 1.116Zm-.612-2.34c1.632 0 2.94-.576 3.924-1.728.984-1.176 1.476-2.844 1.476-5.004 0-2.184-.492-3.852-1.476-5.004-.984-1.152-2.292-1.728-3.924-1.728-1.632 0-2.94.576-3.924 1.728-.984 1.152-1.476 2.82-1.476 5.004 0 2.16.492 3.828 1.476 5.004.984 1.152 2.292 1.728 3.924 1.728Zm20.628 2.34c-2.76 0-4.944-.804-6.552-2.412-1.608-1.632-2.412-3.84-2.412-6.624 0-1.8.36-3.384 1.08-4.752.72-1.392 1.704-2.46 2.952-3.204 1.272-.768 2.736-1.152 4.392-1.152 2.376 0 4.236.768 5.58 2.304 1.344 1.512 2.016 3.6 2.016 6.264v1.116h-13.176c.096 1.992.672 3.516 1.728 4.572 1.056 1.032 2.52 1.548 4.392 1.548a9.722 9.722 0 0 0 3.024-.468c.96-.336 1.872-.876 2.736-1.62l1.008 2.052c-.792.744-1.8 1.332-3.024 1.764a11.766 11.766 0 0 1-3.744.612Zm-.468-15.984c-1.656 0-2.964.516-3.924 1.548s-1.524 2.388-1.692 4.068h10.62c-.072-1.776-.54-3.156-1.404-4.14-.84-.984-2.04-1.476-3.6-1.476ZM909.045 863v-17.496h2.844v2.988c.576-1.104 1.392-1.932 2.448-2.484s2.244-.828 3.564-.828c4.152 0 6.228 2.304 6.228 6.912V863h-2.916v-10.728c0-1.632-.324-2.82-.972-3.564-.624-.768-1.632-1.152-3.024-1.152-1.608 0-2.892.504-3.852 1.512-.936.984-1.404 2.304-1.404 3.96V863h-2.916Zm26.365.324c-1.368 0-2.664-.192-3.888-.576-1.224-.384-2.232-.924-3.024-1.62l.936-2.052a8.888 8.888 0 0 0 2.844 1.548c1.056.312 2.124.468 3.204.468 1.368 0 2.4-.252 3.096-.756.696-.504 1.044-1.188 1.044-2.052 0-.672-.228-1.2-.684-1.584-.456-.408-1.176-.72-2.16-.936l-3.276-.72c-2.976-.648-4.464-2.184-4.464-4.608 0-1.584.624-2.856 1.872-3.816 1.272-.96 2.928-1.44 4.968-1.44 1.2 0 2.34.192 3.42.576 1.104.36 2.016.9 2.736 1.62l-.972 2.052a7.037 7.037 0 0 0-2.448-1.476 7.404 7.404 0 0 0-2.736-.54c-1.344 0-2.364.264-3.06.792-.696.528-1.044 1.224-1.044 2.088 0 1.344.888 2.208 2.664 2.592l3.276.684c1.536.336 2.7.876 3.492 1.62.792.72 1.188 1.704 1.188 2.952 0 1.608-.636 2.88-1.908 3.816-1.272.912-2.964 1.368-5.076 1.368Zm12.296 3.78-1.368-1.044c.528-.552.9-1.08 1.116-1.584.24-.48.396-.972.468-1.476h-1.728v-3.672h3.672v2.592c0 .984-.156 1.896-.468 2.736-.312.84-.876 1.656-1.692 2.448Zm22.297-3.78c-1.368 0-2.664-.192-3.888-.576-1.224-.384-2.232-.924-3.024-1.62l.936-2.052a8.888 8.888 0 0 0 2.844 1.548c1.056.312 2.124.468 3.204.468 1.368 0 2.4-.252 3.096-.756.696-.504 1.044-1.188 1.044-2.052 0-.672-.228-1.2-.684-1.584-.456-.408-1.176-.72-2.16-.936l-3.276-.72c-2.976-.648-4.464-2.184-4.464-4.608 0-1.584.624-2.856 1.872-3.816 1.272-.96 2.928-1.44 4.968-1.44 1.2 0 2.34.192 3.42.576 1.104.36 2.016.9 2.736 1.62l-.972 2.052a7.037 7.037 0 0 0-2.448-1.476 7.404 7.404 0 0 0-2.736-.54c-1.344 0-2.364.264-3.06.792-.696.528-1.044 1.224-1.044 2.088 0 1.344.888 2.208 2.664 2.592l3.276.684c1.536.336 2.7.876 3.492 1.62.792.72 1.188 1.704 1.188 2.952 0 1.608-.636 2.88-1.908 3.816-1.272.912-2.964 1.368-5.076 1.368Zm17.62 0c-4.2 0-6.3-2.316-6.3-6.948v-10.872h2.916v10.836c0 1.56.312 2.712.936 3.456.648.744 1.656 1.116 3.024 1.116 1.488 0 2.7-.492 3.636-1.476.936-1.008 1.404-2.34 1.404-3.996v-9.936h2.916V863h-2.844v-2.952a5.904 5.904 0 0 1-2.34 2.448c-.984.552-2.1.828-3.348.828Zm19.357 0c-1.78 0-3.12-.516-4.04-1.548-.88-1.056-1.33-2.58-1.33-4.572V837.62h2.92v19.368c0 2.568 1.02 3.852 3.06 3.852.6 0 1.14-.072 1.62-.216l-.07 2.448a9.88 9.88 0 0 1-2.16.252Zm5.28 6.156v-23.976h2.85v3.132a5.818 5.818 0 0 1 2.34-2.52c1.05-.624 2.28-.936 3.67-.936 1.56 0 2.92.372 4.07 1.116 1.17.72 2.07 1.764 2.7 3.132.65 1.344.97 2.952.97 4.824 0 1.848-.32 3.456-.97 4.824-.63 1.344-1.53 2.388-2.7 3.132-1.15.744-2.51 1.116-4.07 1.116-1.34 0-2.54-.3-3.6-.9-1.06-.6-1.84-1.428-2.34-2.484v9.54h-2.92Zm8.25-8.496c1.63 0 2.94-.576 3.92-1.728.99-1.176 1.48-2.844 1.48-5.004 0-2.184-.49-3.852-1.48-5.004-.98-1.152-2.29-1.728-3.92-1.728s-2.94.576-3.93 1.728c-.98 1.152-1.47 2.82-1.47 5.004 0 2.16.49 3.828 1.47 5.004.99 1.152 2.3 1.728 3.93 1.728Zm12.74 2.016v-25.38h2.92v10.764a5.593 5.593 0 0 1 2.41-2.376c1.06-.552 2.23-.828 3.53-.828 4.15 0 6.23 2.304 6.23 6.912V863h-2.92v-10.728c0-1.632-.32-2.82-.97-3.564-.63-.768-1.63-1.152-3.03-1.152-1.6 0-2.89.504-3.85 1.512-.93.984-1.4 2.304-1.4 3.96V863h-2.92Zm25.97.324c-1.2 0-2.28-.228-3.24-.684-.94-.48-1.68-1.128-2.23-1.944a4.79 4.79 0 0 1-.83-2.736c0-1.272.32-2.28.97-3.024.67-.744 1.77-1.272 3.28-1.584 1.53-.336 3.62-.504 6.26-.504h1.15v-1.116c0-1.488-.31-2.556-.93-3.204-.6-.672-1.57-1.008-2.92-1.008-1.05 0-2.07.156-3.06.468-.98.288-1.99.768-3.02 1.44l-1.01-2.124c.91-.648 2.02-1.164 3.31-1.548 1.32-.384 2.58-.576 3.78-.576 2.26 0 3.93.552 5.01 1.656 1.1 1.104 1.65 2.82 1.65 5.148V863h-2.73v-3.024a5.436 5.436 0 0 1-2.13 2.448c-.93.6-2.04.9-3.31.9Zm.47-2.196c1.44 0 2.61-.492 3.53-1.476.91-1.008 1.36-2.28 1.36-3.816v-1.08h-1.11c-1.95 0-3.48.096-4.61.288-1.1.168-1.88.48-2.34.936-.43.432-.65 1.032-.65 1.8 0 .984.34 1.788 1.01 2.412.7.624 1.63.936 2.81.936Zm20.13 2.196c-2.06 0-3.61-.54-4.64-1.62-1.03-1.104-1.55-2.688-1.55-4.752v-9.18h-3.42v-2.268h3.42v-5.364h2.92v5.364h5.54v2.268h-5.54v8.892c0 1.368.28 2.412.86 3.132.58.696 1.51 1.044 2.81 1.044.38 0 .77-.048 1.15-.144.38-.096.73-.192 1.04-.288l.51 2.232c-.31.168-.77.324-1.37.468-.6.144-1.18.216-1.73.216Zm13.28 0c-2.76 0-4.95-.804-6.56-2.412-1.6-1.632-2.41-3.84-2.41-6.624 0-1.8.36-3.384 1.08-4.752.72-1.392 1.71-2.46 2.95-3.204 1.28-.768 2.74-1.152 4.4-1.152 2.37 0 4.23.768 5.58 2.304 1.34 1.512 2.01 3.6 2.01 6.264v1.116h-13.17c.09 1.992.67 3.516 1.72 4.572 1.06 1.032 2.52 1.548 4.4 1.548 1.05 0 2.06-.156 3.02-.468.96-.336 1.87-.876 2.74-1.62l1 2.052c-.79.744-1.8 1.332-3.02 1.764-1.22.408-2.47.612-3.74.612Zm-.47-15.984c-1.66 0-2.97.516-3.93 1.548s-1.52 2.388-1.69 4.068h10.62c-.07-1.776-.54-3.156-1.4-4.14-.84-.984-2.04-1.476-3.6-1.476Zm17.65 15.984a12.9 12.9 0 0 1-3.89-.576c-1.23-.384-2.23-.924-3.03-1.62l.94-2.052a8.848 8.848 0 0 0 2.84 1.548c1.06.312 2.13.468 3.21.468 1.37 0 2.4-.252 3.09-.756.7-.504 1.05-1.188 1.05-2.052 0-.672-.23-1.2-.69-1.584-.45-.408-1.17-.72-2.16-.936l-3.27-.72c-2.98-.648-4.47-2.184-4.47-4.608 0-1.584.63-2.856 1.88-3.816 1.27-.96 2.92-1.44 4.96-1.44 1.2 0 2.34.192 3.42.576 1.11.36 2.02.9 2.74 1.62l-.97 2.052a7.045 7.045 0 0 0-2.45-1.476c-.91-.36-1.82-.54-2.74-.54-1.34 0-2.36.264-3.06.792-.69.528-1.04 1.224-1.04 2.088 0 1.344.89 2.208 2.66 2.592l3.28.684c1.54.336 2.7.876 3.49 1.62.79.72 1.19 1.704 1.19 2.952 0 1.608-.64 2.88-1.91 3.816-1.27.912-2.96 1.368-5.07 1.368Zm12.29 3.78-1.37-1.044c.53-.552.9-1.08 1.12-1.584.24-.48.4-.972.47-1.476h-1.73v-3.672h3.67v2.592c0 .984-.15 1.896-.47 2.736-.31.84-.87 1.656-1.69 2.448Zm21.9-3.78c-1.2 0-2.28-.228-3.24-.684-.93-.48-1.68-1.128-2.23-1.944a4.79 4.79 0 0 1-.83-2.736c0-1.272.33-2.28.98-3.024.67-.744 1.76-1.272 3.27-1.584 1.54-.336 3.63-.504 6.27-.504h1.15v-1.116c0-1.488-.31-2.556-.94-3.204-.6-.672-1.57-1.008-2.91-1.008-1.06 0-2.08.156-3.06.468-.99.288-2 .768-3.03 1.44l-1.01-2.124c.92-.648 2.02-1.164 3.32-1.548 1.32-.384 2.58-.576 3.78-.576 2.25 0 3.92.552 5 1.656 1.1 1.104 1.66 2.82 1.66 5.148V863h-2.74v-3.024a5.414 5.414 0 0 1-2.12 2.448c-.94.6-2.04.9-3.32.9Zm.47-2.196c1.44 0 2.62-.492 3.53-1.476.91-1.008 1.37-2.28 1.37-3.816v-1.08h-1.12c-1.94 0-3.48.096-4.61.288-1.1.168-1.88.48-2.34.936-.43.432-.64 1.032-.64 1.8 0 .984.33 1.788 1 2.412.7.624 1.64.936 2.81.936Zm13.12 1.872v-17.496h2.84v2.988c.58-1.104 1.39-1.932 2.45-2.484 1.05-.552 2.24-.828 3.56-.828 4.15 0 6.23 2.304 6.23 6.912V863h-2.92v-10.728c0-1.632-.32-2.82-.97-3.564-.62-.768-1.63-1.152-3.02-1.152-1.61 0-2.89.504-3.85 1.512-.94.984-1.41 2.304-1.41 3.96V863h-2.91Zm27.12.324c-1.56 0-2.93-.372-4.11-1.116-1.15-.744-2.05-1.788-2.7-3.132-.62-1.368-.93-2.976-.93-4.824 0-1.872.31-3.48.93-4.824.65-1.368 1.55-2.412 2.7-3.132 1.18-.744 2.55-1.116 4.11-1.116 1.37 0 2.57.3 3.6.9 1.05.6 1.83 1.428 2.34 2.484V837.62h2.91V863h-2.84v-3.204a5.651 5.651 0 0 1-2.34 2.592c-1.06.624-2.28.936-3.67.936Zm.61-2.34c1.63 0 2.94-.576 3.92-1.728.99-1.176 1.48-2.844 1.48-5.004 0-2.184-.49-3.852-1.48-5.004-.98-1.152-2.29-1.728-3.92-1.728-1.66 0-2.98.576-3.96 1.728-.96 1.152-1.44 2.82-1.44 5.004 0 2.16.48 3.828 1.44 5.004.98 1.152 2.3 1.728 3.96 1.728Zm29.62 2.34c-1.56 0-2.93-.372-4.1-1.116-1.15-.744-2.05-1.788-2.7-3.132-.63-1.368-.94-2.976-.94-4.824 0-1.872.31-3.48.94-4.824.65-1.368 1.55-2.412 2.7-3.132 1.17-.744 2.54-1.116 4.1-1.116 1.37 0 2.57.3 3.6.9 1.06.6 1.84 1.428 2.34 2.484V837.62h2.92V863h-2.85v-3.204a5.651 5.651 0 0 1-2.34 2.592c-1.05.624-2.28.936-3.67.936Zm.61-2.34c1.64 0 2.94-.576 3.93-1.728.98-1.176 1.47-2.844 1.47-5.004 0-2.184-.49-3.852-1.47-5.004-.99-1.152-2.29-1.728-3.93-1.728-1.65 0-2.97.576-3.96 1.728-.96 1.152-1.44 2.82-1.44 5.004 0 2.16.48 3.828 1.44 5.004.99 1.152 2.31 1.728 3.96 1.728Zm15.74 8.496 2.98-6.768-7.38-17.208h3.17l5.8 14.184 5.83-14.184h3.06l-10.4 23.976h-3.06Zm24.11-6.156c-2.76 0-4.94-.804-6.55-2.412-1.61-1.632-2.41-3.84-2.41-6.624 0-1.8.36-3.384 1.08-4.752.72-1.392 1.7-2.46 2.95-3.204 1.27-.768 2.73-1.152 4.39-1.152 2.38 0 4.24.768 5.58 2.304 1.34 1.512 2.02 3.6 2.02 6.264v1.116h-13.18c.1 1.992.67 3.516 1.73 4.572 1.05 1.032 2.52 1.548 4.39 1.548 1.06 0 2.06-.156 3.02-.468.96-.336 1.88-.876 2.74-1.62l1.01 2.052c-.79.744-1.8 1.332-3.03 1.764-1.22.408-2.47.612-3.74.612Zm-.47-15.984c-1.65 0-2.96.516-3.92 1.548s-1.53 2.388-1.69 4.068h10.62c-.08-1.776-.54-3.156-1.41-4.14-.84-.984-2.04-1.476-3.6-1.476Zm17.65 15.984c-1.37 0-2.66-.192-3.89-.576-1.22-.384-2.23-.924-3.02-1.62l.93-2.052a9.001 9.001 0 0 0 2.85 1.548c1.05.312 2.12.468 3.2.468 1.37 0 2.4-.252 3.1-.756.69-.504 1.04-1.188 1.04-2.052 0-.672-.23-1.2-.68-1.584-.46-.408-1.18-.72-2.16-.936l-3.28-.72c-2.97-.648-4.46-2.184-4.46-4.608 0-1.584.62-2.856 1.87-3.816 1.27-.96 2.93-1.44 4.97-1.44 1.2 0 2.34.192 3.42.576 1.1.36 2.01.9 2.73 1.62l-.97 2.052a6.955 6.955 0 0 0-2.45-1.476c-.91-.36-1.82-.54-2.73-.54-1.35 0-2.37.264-3.06.792-.7.528-1.05 1.224-1.05 2.088 0 1.344.89 2.208 2.67 2.592l3.27.684c1.54.336 2.7.876 3.5 1.62.79.72 1.18 1.704 1.18 2.952 0 1.608-.63 2.88-1.9 3.816-1.28.912-2.97 1.368-5.08 1.368ZM520.959 531.416c-7.906 0-14.573-.59-20.001-1.77-5.428-1.18-10.207-3.068-14.337-5.664-1.652-.826-2.95-2.242-3.894-4.248-.944-2.006-1.416-4.248-1.416-6.726 0-3.186.826-5.782 2.478-7.788 1.77-2.124 3.953-3.186 6.549-3.186 1.77 0 3.422.236 4.956.708 1.534.354 3.422 1.003 5.664 1.947 3.776 1.298 7.08 2.301 9.912 3.009 2.95.708 6.667 1.062 11.151 1.062 3.186 0 5.664-.413 7.434-1.239 1.888-.944 2.832-2.242 2.832-3.894 0-1.298-.472-2.301-1.416-3.009-.826-.708-2.478-1.357-4.956-1.947-2.478-.708-6.667-1.652-12.567-2.832-10.502-2.006-18.113-5.015-22.833-9.027-4.602-4.13-6.903-9.912-6.903-17.346 0-5.428 1.652-10.325 4.956-14.691 3.422-4.366 8.083-7.788 13.983-10.266 5.9-2.478 12.508-3.717 19.824-3.717 5.31 0 10.443.649 15.399 1.947 5.074 1.298 9.558 3.127 13.452 5.487 3.658 2.124 5.487 5.546 5.487 10.266 0 3.304-.885 6.077-2.655 8.319-1.77 2.242-3.953 3.363-6.549 3.363-3.068 0-6.726-1.003-10.974-3.009-2.832-1.298-5.369-2.242-7.611-2.832-2.124-.708-4.661-1.062-7.611-1.062s-5.251.472-6.903 1.416c-1.652.826-2.478 2.065-2.478 3.717 0 1.888 1.121 3.363 3.363 4.425 2.36 1.062 6.962 2.242 13.806 3.54 11.446 2.006 19.529 5.074 24.249 9.204 4.72 4.012 7.08 9.853 7.08 17.523 0 8.614-3.599 15.517-10.797 20.709-7.08 5.074-16.638 7.611-28.674 7.611Zm96.329 0c-9.558 0-17.995-1.829-25.311-5.487-7.198-3.776-12.803-9.086-16.815-15.93-3.894-6.844-5.841-14.868-5.841-24.072 0-9.204 1.947-17.169 5.841-23.895 4.012-6.844 9.617-12.095 16.815-15.753 7.198-3.658 15.635-5.487 25.311-5.487s18.113 1.829 25.311 5.487c7.198 3.658 12.744 8.909 16.638 15.753 4.012 6.726 6.018 14.691 6.018 23.895 0 9.204-2.006 17.228-6.018 24.072-3.894 6.844-9.44 12.154-16.638 15.93-7.198 3.658-15.635 5.487-25.311 5.487Zm0-23.541c11.21 0 16.815-7.316 16.815-21.948 0-14.632-5.605-21.948-16.815-21.948s-16.815 7.316-16.815 21.948c0 14.632 5.605 21.948 16.815 21.948Zm102.768-67.083c13.452 0 23.364 3.245 29.736 9.735 6.49 6.372 9.735 16.107 9.735 29.205v36.993c0 4.484-1.357 8.024-4.071 10.62-2.596 2.478-6.254 3.717-10.974 3.717-4.13 0-7.552-1.18-10.266-3.54-2.596-2.36-4.012-5.546-4.248-9.558-1.652 4.248-4.425 7.552-8.319 9.912-3.894 2.36-8.555 3.54-13.983 3.54-6.018 0-11.446-1.18-16.284-3.54-4.838-2.478-8.673-5.841-11.505-10.089-2.714-4.366-4.071-9.263-4.071-14.691 0-6.254 1.593-11.21 4.779-14.868 3.304-3.776 8.496-6.49 15.576-8.142 7.08-1.652 16.638-2.478 28.674-2.478h4.779v-2.124c0-4.13-.944-7.08-2.832-8.85-1.888-1.888-5.074-2.832-9.558-2.832-4.838 0-11.918 1.652-21.24 4.956-2.714.944-5.015 1.416-6.903 1.416-2.95 0-5.31-1.062-7.08-3.186-1.77-2.124-2.655-4.897-2.655-8.319 0-2.596.531-4.72 1.593-6.372 1.062-1.652 2.773-3.127 5.133-4.425 4.13-2.124 9.322-3.835 15.576-5.133 6.254-1.298 12.39-1.947 18.408-1.947Zm-4.956 69.561c4.248 0 7.729-1.475 10.443-4.425 2.714-3.068 4.071-6.962 4.071-11.682v-2.124h-2.832c-7.552 0-12.921.708-16.107 2.124-3.186 1.298-4.779 3.54-4.779 6.726 0 2.714.826 4.956 2.478 6.726 1.77 1.77 4.012 2.655 6.726 2.655Zm119.786-69.561c7.434 0 14.042 1.947 19.824 5.841 5.9 3.776 10.443 9.145 13.629 16.107 3.304 6.962 4.956 14.927 4.956 23.895s-1.652 16.874-4.956 23.718c-3.186 6.726-7.67 11.918-13.452 15.576-5.782 3.658-12.449 5.487-20.001 5.487-5.546 0-10.679-1.121-15.399-3.363-4.602-2.242-8.201-5.251-10.797-9.027v30.09c0 4.13-1.416 7.434-4.248 9.912-2.832 2.478-6.549 3.717-11.151 3.717-4.838 0-8.732-1.357-11.682-4.071-2.95-2.596-4.425-5.959-4.425-10.089V455.66c0-4.366 1.357-7.847 4.071-10.443 2.832-2.714 6.608-4.071 11.328-4.071 4.484 0 8.083 1.18 10.797 3.54 2.832 2.36 4.425 5.487 4.779 9.381 2.478-4.13 6.077-7.375 10.797-9.735 4.838-2.36 10.148-3.54 15.93-3.54Zm-9.558 67.083c5.428 0 9.558-1.829 12.39-5.487 2.95-3.658 4.425-8.909 4.425-15.753 0-7.198-1.475-12.685-4.425-16.461-2.95-3.894-7.139-5.841-12.567-5.841s-9.617 1.888-12.567 5.664c-2.95 3.776-4.425 9.204-4.425 16.284 0 6.962 1.475 12.331 4.425 16.107 2.95 3.658 7.198 5.487 12.744 5.487Zm78.703-13.098c-9.794 0-14.691-4.13-14.691-12.39 0-8.142 4.897-12.213 14.691-12.213h33.276c4.956 0 8.614 1.062 10.974 3.186 2.478 2.124 3.717 5.133 3.717 9.027 0 3.894-1.239 6.962-3.717 9.204-2.36 2.124-6.018 3.186-10.974 3.186h-33.276Zm137.399-53.631c4.84 0 8.68 1.298 11.51 3.894s4.25 6.136 4.25 10.62v61.242c0 4.13-1.48 7.552-4.43 10.266-2.95 2.596-6.78 3.894-11.5 3.894-4.25 0-7.73-1.121-10.45-3.363-2.71-2.36-4.13-5.487-4.24-9.381-2.72 4.248-6.2 7.493-10.45 9.735-4.13 2.242-8.91 3.363-14.33 3.363-11.214 0-19.533-3.068-24.961-9.204-5.428-6.254-8.142-15.694-8.142-28.32V455.66c0-4.484 1.416-8.024 4.248-10.62 2.832-2.596 6.667-3.894 11.505-3.894 4.838 0 8.673 1.298 11.505 3.894 2.832 2.596 4.245 6.136 4.245 10.62v38.94c0 8.496 3.66 12.744 10.98 12.744 4.25 0 7.73-1.534 10.44-4.602 2.71-3.068 4.07-7.08 4.07-12.036V455.66c0-4.484 1.42-8.024 4.25-10.62s6.67-3.894 11.5-3.894Zm47.73 53.631c-9.8 0-14.7-4.13-14.7-12.39 0-8.142 4.9-12.213 14.7-12.213h33.27c4.96 0 8.62 1.062 10.98 3.186 2.47 2.124 3.71 5.133 3.71 9.027 0 3.894-1.24 6.962-3.71 9.204-2.36 2.124-6.02 3.186-10.98 3.186h-33.27Zm81.11 36.285c-4.48 0-8.26-1.18-11.33-3.54-2.95-2.478-4.42-6.136-4.42-10.974v-97.527c0-4.838 1.47-8.496 4.42-10.974 3.07-2.478 6.85-3.717 11.33-3.717 4.49 0 8.2 1.239 11.15 3.717 3.07 2.478 4.61 6.136 4.61 10.974v97.527c0 4.838-1.54 8.496-4.61 10.974-2.95 2.36-6.66 3.54-11.15 3.54Zm49.78 0c-4.48 0-8.26-1.18-11.32-3.54-2.95-2.478-4.43-6.136-4.43-10.974V455.66c0-4.838 1.48-8.437 4.43-10.797 3.06-2.478 6.84-3.717 11.32-3.717 4.49 0 8.2 1.239 11.15 3.717 3.07 2.36 4.61 5.959 4.61 10.797v60.888c0 4.838-1.54 8.496-4.61 10.974-2.95 2.36-6.66 3.54-11.15 3.54Zm0-102.306c-5.31 0-9.55-1.357-12.74-4.071-3.07-2.832-4.6-6.549-4.6-11.151 0-4.602 1.53-8.26 4.6-10.974 3.19-2.714 7.43-4.071 12.74-4.071 5.2 0 9.38 1.357 12.57 4.071 3.19 2.714 4.78 6.372 4.78 10.974s-1.59 8.319-4.78 11.151c-3.07 2.714-7.26 4.071-12.57 4.071Zm120.94 76.818c3.07 2.95 4.6 6.372 4.6 10.266s-1.42 7.375-4.25 10.443c-2.71 3.068-6.02 4.602-9.91 4.602-3.3 0-6.61-1.475-9.91-4.425l-35.93-34.161v23.895c0 4.838-1.54 8.496-4.6 10.974-2.95 2.478-6.67 3.717-11.16 3.717-4.48 0-8.26-1.239-11.32-3.717-2.95-2.478-4.43-6.136-4.43-10.974v-97.173c0-4.838 1.48-8.496 4.43-10.974 3.06-2.478 6.84-3.717 11.32-3.717 4.49 0 8.21 1.239 11.16 3.717 3.06 2.478 4.6 6.136 4.6 10.974v60.003l32.74-33.276c2.95-3.068 6.37-4.602 10.27-4.602 3.77 0 7.08 1.475 9.91 4.425 2.95 2.832 4.43 6.077 4.43 9.735 0 3.658-1.54 7.021-4.61 10.089l-19.29 19.116 21.95 21.063Zm85.87-3.54c2.72 0 4.9 1.062 6.55 3.186 1.77 2.124 2.66 4.897 2.66 8.319 0 4.72-2.3 8.319-6.9 10.797-4.02 2.006-8.8 3.717-14.34 5.133-5.43 1.298-10.44 1.947-15.05 1.947-9.67 0-18.11-1.829-25.31-5.487-7.2-3.658-12.74-8.909-16.64-15.753-3.89-6.844-5.84-14.868-5.84-24.072 0-8.732 1.83-16.52 5.49-23.364 3.78-6.962 8.97-12.331 15.58-16.107 6.72-3.894 14.27-5.841 22.65-5.841 8.14 0 15.28 1.77 21.42 5.31 6.14 3.54 10.86 8.555 14.16 15.045 3.42 6.49 5.13 14.101 5.13 22.833 0 2.714-.65 4.838-1.94 6.372-1.18 1.416-2.95 2.124-5.31 2.124h-46.73c.82 5.664 2.65 9.735 5.48 12.213 2.84 2.478 7.03 3.717 12.57 3.717 2.95 0 5.67-.295 8.14-.885 2.48-.708 5.25-1.652 8.32-2.832a52.59 52.59 0 0 1 5.14-1.77c1.77-.59 3.36-.885 4.77-.885Zm-30.26-40.002c-4.13 0-7.44 1.357-9.91 4.071-2.48 2.596-3.96 6.431-4.43 11.505h27.79c-.71-10.384-5.19-15.576-13.45-15.576ZM515.747 599.104c4.224 0 7.953 1.023 11.187 3.069 3.234 2.046 5.742 4.983 7.524 8.811 1.848 3.762 2.772 8.151 2.772 13.167s-.924 9.471-2.772 13.365c-1.782 3.894-4.323 6.93-7.623 9.108-3.234 2.112-6.93 3.168-11.088 3.168-3.234 0-6.204-.66-8.91-1.98-2.64-1.32-4.653-3.135-6.039-5.445-.198 2.244-1.089 4.026-2.673 5.346-1.518 1.254-3.531 1.881-6.039 1.881-2.64 0-4.752-.726-6.336-2.178-1.518-1.518-2.277-3.498-2.277-5.94V586.63c0-2.31.825-4.191 2.475-5.643 1.65-1.518 3.828-2.277 6.534-2.277 2.574 0 4.653.693 6.237 2.079 1.584 1.386 2.376 3.234 2.376 5.544v19.701c1.452-2.112 3.465-3.795 6.039-5.049 2.64-1.254 5.511-1.881 8.613-1.881Zm-5.445 37.521c3.036 0 5.379-1.056 7.029-3.168 1.65-2.178 2.475-5.28 2.475-9.306 0-3.828-.825-6.765-2.475-8.811-1.584-2.046-3.894-3.069-6.93-3.069-3.102 0-5.478 1.056-7.128 3.168-1.65 2.046-2.475 5.016-2.475 8.91 0 3.96.825 6.996 2.475 9.108 1.65 2.112 3.993 3.168 7.029 3.168Zm75.339-37.323c2.706 0 4.851.726 6.435 2.178 1.584 1.452 2.376 3.432 2.376 5.94v34.254c0 2.31-.825 4.224-2.475 5.742-1.65 1.452-3.795 2.178-6.435 2.178-2.376 0-4.323-.627-5.841-1.881-1.518-1.32-2.31-3.069-2.376-5.247-1.518 2.376-3.465 4.191-5.841 5.445-2.31 1.254-4.983 1.881-8.019 1.881-6.27 0-10.923-1.716-13.959-5.148-3.036-3.498-4.554-8.778-4.554-15.84V607.42c0-2.508.792-4.488 2.376-5.94 1.584-1.452 3.729-2.178 6.435-2.178 2.706 0 4.851.726 6.435 2.178 1.584 1.452 2.376 3.432 2.376 5.94v21.78c0 4.752 2.046 7.128 6.138 7.128 2.376 0 4.323-.858 5.841-2.574 1.518-1.716 2.277-3.96 2.277-6.732V607.42c0-2.508.792-4.488 2.376-5.94 1.584-1.452 3.729-2.178 6.435-2.178Zm51.343-.198c4.224 0 7.953 1.023 11.187 3.069 3.234 2.046 5.742 4.983 7.524 8.811 1.848 3.762 2.772 8.151 2.772 13.167s-.924 9.471-2.772 13.365c-1.782 3.894-4.323 6.93-7.623 9.108-3.234 2.112-6.93 3.168-11.088 3.168-3.234 0-6.204-.66-8.91-1.98-2.64-1.32-4.653-3.135-6.039-5.445-.198 2.244-1.089 4.026-2.673 5.346-1.518 1.254-3.531 1.881-6.039 1.881-2.64 0-4.752-.726-6.336-2.178-1.518-1.518-2.277-3.498-2.277-5.94V586.63c0-2.31.825-4.191 2.475-5.643 1.65-1.518 3.828-2.277 6.534-2.277 2.574 0 4.653.693 6.237 2.079 1.584 1.386 2.376 3.234 2.376 5.544v19.701c1.452-2.112 3.465-3.795 6.039-5.049 2.64-1.254 5.511-1.881 8.613-1.881Zm-5.445 37.521c3.036 0 5.379-1.056 7.029-3.168 1.65-2.178 2.475-5.28 2.475-9.306 0-3.828-.825-6.765-2.475-8.811-1.584-2.046-3.894-3.069-6.93-3.069-3.102 0-5.478 1.056-7.128 3.168-1.65 2.046-2.475 5.016-2.475 8.91 0 3.96.825 6.996 2.475 9.108 1.65 2.112 3.993 3.168 7.029 3.168Zm67.32-37.521c4.224 0 7.953 1.023 11.187 3.069 3.234 2.046 5.742 4.983 7.524 8.811 1.848 3.762 2.772 8.151 2.772 13.167s-.924 9.471-2.772 13.365c-1.782 3.894-4.323 6.93-7.623 9.108-3.234 2.112-6.93 3.168-11.088 3.168-3.234 0-6.204-.66-8.91-1.98-2.64-1.32-4.653-3.135-6.039-5.445-.198 2.244-1.089 4.026-2.673 5.346-1.518 1.254-3.531 1.881-6.039 1.881-2.64 0-4.752-.726-6.336-2.178-1.518-1.518-2.277-3.498-2.277-5.94V586.63c0-2.31.825-4.191 2.475-5.643 1.65-1.518 3.828-2.277 6.534-2.277 2.574 0 4.653.693 6.237 2.079 1.584 1.386 2.376 3.234 2.376 5.544v19.701c1.452-2.112 3.465-3.795 6.039-5.049 2.64-1.254 5.511-1.881 8.613-1.881Zm-5.445 37.521c3.036 0 5.379-1.056 7.029-3.168 1.65-2.178 2.475-5.28 2.475-9.306 0-3.828-.825-6.765-2.475-8.811-1.584-2.046-3.894-3.069-6.93-3.069-3.102 0-5.478 1.056-7.128 3.168-1.65 2.046-2.475 5.016-2.475 8.91 0 3.96.825 6.996 2.475 9.108 1.65 2.112 3.993 3.168 7.029 3.168Zm43.857 12.969c-2.508 0-4.62-.66-6.336-1.98-1.65-1.386-2.475-3.432-2.475-6.138v-54.549c0-2.706.825-4.752 2.475-6.138 1.716-1.386 3.828-2.079 6.336-2.079 2.508 0 4.587.693 6.237 2.079 1.716 1.386 2.574 3.432 2.574 6.138v54.549c0 2.706-.858 4.752-2.574 6.138-1.65 1.32-3.729 1.98-6.237 1.98Zm58.632-16.236c1.518 0 2.739.594 3.663 1.782.99 1.188 1.485 2.739 1.485 4.653 0 2.64-1.287 4.653-3.861 6.039-2.244 1.122-4.917 2.079-8.019 2.871-3.036.726-5.841 1.089-8.415 1.089-5.412 0-10.131-1.023-14.157-3.069-4.026-2.046-7.128-4.983-9.306-8.811-2.178-3.828-3.267-8.316-3.267-13.464 0-4.884 1.023-9.24 3.069-13.068 2.112-3.894 5.016-6.897 8.712-9.009 3.762-2.178 7.986-3.267 12.672-3.267 4.554 0 8.547.99 11.979 2.97 3.432 1.98 6.072 4.785 7.92 8.415 1.914 3.63 2.871 7.887 2.871 12.771 0 1.518-.363 2.706-1.089 3.564-.66.792-1.65 1.188-2.97 1.188h-26.136c.462 3.168 1.485 5.445 3.069 6.831 1.584 1.386 3.927 2.079 7.029 2.079 1.65 0 3.168-.165 4.554-.495a55.914 55.914 0 0 0 4.653-1.584c.99-.396 1.947-.726 2.871-.99.99-.33 1.881-.495 2.673-.495Zm-16.929-22.374c-2.31 0-4.158.759-5.544 2.277-1.386 1.452-2.211 3.597-2.475 6.435h15.543c-.396-5.808-2.904-8.712-7.524-8.712Zm90.911-11.88c4.224 0 7.953 1.023 11.187 3.069 3.234 2.046 5.742 4.983 7.524 8.811 1.848 3.762 2.772 8.151 2.772 13.167s-.924 9.471-2.772 13.365c-1.782 3.894-4.323 6.93-7.623 9.108-3.234 2.112-6.93 3.168-11.088 3.168-3.234 0-6.204-.66-8.91-1.98-2.64-1.32-4.653-3.135-6.039-5.445-.198 2.244-1.089 4.026-2.673 5.346-1.518 1.254-3.531 1.881-6.039 1.881-2.64 0-4.752-.726-6.336-2.178-1.518-1.518-2.277-3.498-2.277-5.94V586.63c0-2.31.825-4.191 2.475-5.643 1.65-1.518 3.828-2.277 6.534-2.277 2.574 0 4.653.693 6.237 2.079 1.584 1.386 2.376 3.234 2.376 5.544v19.701c1.452-2.112 3.465-3.795 6.039-5.049 2.64-1.254 5.511-1.881 8.613-1.881Zm-5.445 37.521c3.036 0 5.379-1.056 7.029-3.168 1.65-2.178 2.475-5.28 2.475-9.306 0-3.828-.825-6.765-2.475-8.811-1.584-2.046-3.894-3.069-6.93-3.069-3.102 0-5.478 1.056-7.128 3.168-1.65 2.046-2.475 5.016-2.475 8.91 0 3.96.825 6.996 2.475 9.108 1.65 2.112 3.993 3.168 7.029 3.168Zm57.717-37.521c7.524 0 13.068 1.815 16.632 5.445 3.63 3.564 5.445 9.009 5.445 16.335v20.691c0 2.508-.759 4.488-2.277 5.94-1.452 1.386-3.498 2.079-6.138 2.079-2.31 0-4.224-.66-5.742-1.98-1.452-1.32-2.244-3.102-2.376-5.346-.924 2.376-2.475 4.224-4.653 5.544-2.178 1.32-4.785 1.98-7.821 1.98-3.366 0-6.402-.66-9.108-1.98-2.706-1.386-4.851-3.267-6.435-5.643-1.518-2.442-2.277-5.181-2.277-8.217 0-3.498.891-6.27 2.673-8.316 1.848-2.112 4.752-3.63 8.712-4.554 3.96-.924 9.306-1.386 16.038-1.386h2.673v-1.188c0-2.31-.528-3.96-1.584-4.95-1.056-1.056-2.838-1.584-5.346-1.584-2.706 0-6.666.924-11.88 2.772-1.518.528-2.805.792-3.861.792-1.65 0-2.97-.594-3.96-1.782-.99-1.188-1.485-2.739-1.485-4.653 0-1.452.297-2.64.891-3.564.594-.924 1.551-1.749 2.871-2.475 2.31-1.188 5.214-2.145 8.712-2.871 3.498-.726 6.93-1.089 10.296-1.089Zm-2.772 38.907c2.376 0 4.323-.825 5.841-2.475 1.518-1.716 2.277-3.894 2.277-6.534v-1.188h-1.584c-4.224 0-7.227.396-9.009 1.188-1.782.726-2.673 1.98-2.673 3.762 0 1.518.462 2.772 1.386 3.762.99.99 2.244 1.485 3.762 1.485Zm63.534-.99c4.422.264 6.633 2.244 6.633 5.94 0 2.31-.891 4.026-2.673 5.148-1.782 1.122-4.323 1.584-7.623 1.386l-2.772-.198c-5.94-.462-10.461-2.244-13.563-5.346-3.036-3.168-4.554-7.557-4.554-13.167v-17.523h-2.871c-5.28 0-7.92-2.178-7.92-6.534 0-4.29 2.64-6.435 7.92-6.435h2.871v-6.435c0-2.508.792-4.488 2.376-5.94 1.584-1.518 3.729-2.277 6.435-2.277 2.706 0 4.851.759 6.435 2.277 1.584 1.452 2.376 3.432 2.376 5.94v6.435h5.445c5.28 0 7.92 2.145 7.92 6.435 0 4.356-2.64 6.534-7.92 6.534h-5.445v19.008c0 1.254.363 2.31 1.089 3.168.792.858 1.782 1.32 2.97 1.386l2.871.198Zm44.481-37.917c5.67 0 9.9 1.749 12.67 5.247 2.77 3.432 4.16 8.679 4.16 15.741v21.384c0 2.508-.8 4.488-2.38 5.94-1.58 1.452-3.73 2.178-6.43 2.178-2.71 0-4.86-.726-6.44-2.178s-2.38-3.432-2.38-5.94v-21.78c0-4.752-2.04-7.128-6.13-7.128-2.64 0-4.76.858-6.34 2.574-1.52 1.65-2.28 3.894-2.28 6.732v19.602c0 2.508-.79 4.488-2.37 5.94-1.59 1.452-3.73 2.178-6.44 2.178-2.7 0-4.848-.726-6.432-2.178-1.584-1.452-2.376-3.432-2.376-5.94V586.63c0-2.31.825-4.191 2.475-5.643 1.65-1.518 3.823-2.277 6.533-2.277 2.57 0 4.65.693 6.24 2.079 1.58 1.386 2.37 3.234 2.37 5.544v19.8c1.79-2.31 4-4.059 6.64-5.247 2.64-1.188 5.61-1.782 8.91-1.782Zm83.41-7.326c-2.37.198-4.05.957-5.04 2.277-.93 1.254-1.39 2.937-1.39 5.049v1.188h5.44c5.28 0 7.92 2.145 7.92 6.435 0 4.356-2.64 6.534-7.92 6.534h-5.44v28.017c0 2.706-.86 4.752-2.57 6.138-1.65 1.386-3.73 2.079-6.24 2.079-2.51 0-4.62-.693-6.34-2.079-1.65-1.386-2.47-3.432-2.47-6.138v-28.017h-2.87c-5.28 0-7.92-2.178-7.92-6.534 0-4.29 2.64-6.435 7.92-6.435h2.87c.13-6.336 2.01-11.286 5.64-14.85 3.7-3.63 8.68-5.676 14.95-6.138l2.57-.198c.53-.066 1.22-.099 2.08-.099 2.84 0 4.89.528 6.14 1.584s1.88 2.574 1.88 4.554c0 1.98-.59 3.531-1.78 4.653-1.19 1.056-2.81 1.65-4.85 1.782l-2.58.198Zm34.72 58.014c-5.34 0-10.06-1.023-14.16-3.069-4.02-2.112-7.16-5.082-9.4-8.91-2.18-3.828-3.27-8.316-3.27-13.464s1.09-9.603 3.27-13.365c2.24-3.828 5.38-6.765 9.4-8.811 4.03-2.046 8.75-3.069 14.16-3.069s10.13 1.023 14.16 3.069c4.02 2.046 7.13 4.983 9.3 8.811 2.25 3.762 3.37 8.217 3.37 13.365s-1.12 9.636-3.37 13.464c-2.17 3.828-5.28 6.798-9.3 8.91-4.03 2.046-8.75 3.069-14.16 3.069Zm0-13.167c6.27 0 9.41-4.092 9.41-12.276 0-8.184-3.14-12.276-9.41-12.276s-9.4 4.092-9.4 12.276c0 8.184 3.13 12.276 9.4 12.276Zm65.7-37.323c2.24-.198 4.02.33 5.34 1.584 1.32 1.188 1.98 2.97 1.98 5.346 0 2.64-.62 4.554-1.88 5.742-1.18 1.188-3.36 1.947-6.53 2.277l-2.97.297c-3.3.396-5.68 1.452-7.13 3.168-1.38 1.65-2.08 3.927-2.08 6.831v16.929c0 2.706-.86 4.752-2.57 6.138-1.65 1.32-3.73 1.98-6.24 1.98-2.51 0-4.62-.66-6.33-1.98-1.65-1.386-2.48-3.432-2.48-6.138v-34.254c0-2.508.83-4.455 2.48-5.841 1.71-1.386 3.76-2.079 6.13-2.079 2.45 0 4.39.66 5.84 1.98 1.52 1.32 2.28 3.168 2.28 5.544v1.881c1.06-2.904 2.77-5.148 5.15-6.732 2.44-1.584 4.98-2.442 7.62-2.574l1.39-.099Zm87.52 36.036c1.72 1.65 2.58 3.564 2.58 5.742s-.8 4.125-2.38 5.841c-1.52 1.716-3.37 2.574-5.54 2.574-1.85 0-3.7-.825-5.55-2.475l-20.09-19.107v13.365c0 2.706-.86 4.752-2.58 6.138-1.65 1.386-3.73 2.079-6.24 2.079-2.5 0-4.62-.693-6.33-2.079-1.65-1.386-2.48-3.432-2.48-6.138v-54.351c0-2.706.83-4.752 2.48-6.138 1.71-1.386 3.83-2.079 6.33-2.079 2.51 0 4.59.693 6.24 2.079 1.72 1.386 2.58 3.432 2.58 6.138v33.561l18.31-18.612c1.65-1.716 3.56-2.574 5.74-2.574 2.11 0 3.96.825 5.55 2.475 1.65 1.584 2.47 3.399 2.47 5.445 0 2.046-.86 3.927-2.57 5.643l-10.79 10.692 12.27 11.781Zm17.63 14.256c-2.51 0-4.62-.66-6.33-1.98-1.65-1.386-2.48-3.432-2.48-6.138V607.42c0-2.706.83-4.719 2.48-6.039 1.71-1.386 3.82-2.079 6.33-2.079 2.51 0 4.59.693 6.24 2.079 1.71 1.32 2.57 3.333 2.57 6.039v34.056c0 2.706-.86 4.752-2.57 6.138-1.65 1.32-3.73 1.98-6.24 1.98Zm0-57.222c-2.97 0-5.34-.759-7.13-2.277-1.71-1.584-2.57-3.663-2.57-6.237 0-2.574.86-4.62 2.57-6.138 1.79-1.518 4.16-2.277 7.13-2.277 2.91 0 5.25.759 7.03 2.277 1.78 1.518 2.67 3.564 2.67 6.138s-.89 4.653-2.67 6.237c-1.72 1.518-4.06 2.277-7.03 2.277Zm61.6-13.662c2.64 0 4.79.759 6.44 2.277 1.72 1.452 2.57 3.333 2.57 5.643v54.846c0 2.508-.79 4.488-2.37 5.94-1.59 1.452-3.7 2.178-6.34 2.178-2.44 0-4.45-.627-6.04-1.881-1.52-1.32-2.37-3.102-2.57-5.346-1.39 2.31-3.43 4.125-6.14 5.445-2.64 1.32-5.58 1.98-8.81 1.98-4.16 0-7.89-1.056-11.19-3.168-3.23-2.178-5.77-5.214-7.62-9.108-1.85-3.894-2.77-8.349-2.77-13.365s.89-9.405 2.67-13.167c1.85-3.828 4.39-6.765 7.62-8.811 3.3-2.046 7.07-3.069 11.29-3.069 3.1 0 5.94.627 8.51 1.881 2.64 1.254 4.69 2.937 6.14 5.049v-19.701c0-2.31.76-4.158 2.28-5.544 1.58-1.386 3.69-2.079 6.33-2.079Zm-17.91 57.915c3.1 0 5.47-1.056 7.12-3.168 1.65-2.112 2.48-5.148 2.48-9.108 0-3.894-.83-6.864-2.48-8.91-1.65-2.112-4.02-3.168-7.12-3.168-3.04 0-5.38 1.023-7.03 3.069-1.65 2.046-2.48 4.983-2.48 8.811 0 3.96.83 7.029 2.48 9.207 1.71 2.178 4.06 3.267 7.03 3.267Zm56.43 13.167c-4.43 0-8.16-.33-11.19-.99-3.04-.66-5.71-1.716-8.02-3.168-.92-.462-1.65-1.254-2.18-2.376-.53-1.122-.79-2.376-.79-3.762 0-1.782.46-3.234 1.39-4.356.99-1.188 2.21-1.782 3.66-1.782.99 0 1.91.132 2.77.396.86.198 1.91.561 3.17 1.089 2.11.726 3.96 1.287 5.54 1.683 1.65.396 3.73.594 6.24.594 1.78 0 3.17-.231 4.16-.693 1.05-.528 1.58-1.254 1.58-2.178 0-.726-.26-1.287-.79-1.683-.46-.396-1.39-.759-2.77-1.089-1.39-.396-3.73-.924-7.03-1.584-5.88-1.122-10.13-2.805-12.77-5.049-2.58-2.31-3.86-5.544-3.86-9.702 0-3.036.92-5.775 2.77-8.217 1.91-2.442 4.52-4.356 7.82-5.742 3.3-1.386 7-2.079 11.09-2.079 2.97 0 5.84.363 8.61 1.089 2.84.726 5.35 1.749 7.52 3.069 2.05 1.188 3.07 3.102 3.07 5.742 0 1.848-.49 3.399-1.48 4.653-.99 1.254-2.21 1.881-3.66 1.881-1.72 0-3.77-.561-6.14-1.683-1.59-.726-3.01-1.254-4.26-1.584-1.19-.396-2.61-.594-4.26-.594s-2.93.264-3.86.792c-.92.462-1.38 1.155-1.38 2.079 0 1.056.62 1.881 1.88 2.475 1.32.594 3.89 1.254 7.72 1.98 6.4 1.122 10.92 2.838 13.56 5.148 2.64 2.244 3.96 5.511 3.96 9.801 0 4.818-2.01 8.679-6.04 11.583-3.96 2.838-9.3 4.257-16.03 4.257Z" fill="#3C4043"/></svg>