<svg width="1920" height="1080" fill="none" xmlns="http://www.w3.org/2000/svg">
  <g clip-path="url(#a)">
    <path d="m348.784 679.552-2.916 4.062.024.017.025.017 2.867-4.096Zm-27.984-34.32 4.676-1.769-1.222-3.231H320.8v5Zm-2.64 0v-5h-2.287l-1.496 1.731 3.783 3.269ZM281.2 688v5h2.287l1.496-1.731L281.2 688Zm-36.96 0h-5v5h5v-5Zm0-341.616h5v-4.033l-3.941-.854-1.059 4.887Zm-31.68-6.864h-5v4.033l3.941.854 1.059-4.887Zm0-30.096-.994-4.9-4.006.812v4.088h5Zm111.936-22.704h5v-6.116l-5.994 1.216.994 4.9Zm0 165.792h-5v5h5v-5Zm3.168 0v5h3.385l1.257-3.143-4.642-1.857Zm25.872-32.736 3.054 3.959.035-.027.034-.028-3.123-3.904Zm92.4-4.224-2.329 4.425.069.036.07.034 2.19-4.495Zm34.848 29.04-4 3 4-3Zm21.648 45.936-4.822 1.324.016.056.017.057 4.789-1.437Zm0 118.8-4.797-1.411-.009.031-.009.032 4.815 1.348Zm-21.648 45.408-4-3 4 3Zm-34.848 29.568 2.236 4.472.023-.011.023-.012-2.282-4.449Zm-35.376-53.856 3.597 3.473-3.597-3.473Zm0-162.096-3.597 3.473 3.597-3.473Zm-72.336-2.112-3.397-3.669-.035.032-.034.033 3.466 3.604Zm0 166.32-3.466 3.604.034.033.035.032 3.397-3.669Zm62.304 56.776c-19.587 0-35.785-4.716-48.877-13.88l-5.734 8.192c15.068 10.548 33.366 15.688 54.611 15.688v-10ZM351.7 675.49c-13.101-9.405-21.712-20.105-26.224-32.027l-9.352 3.538c5.344 14.126 15.389 26.306 29.744 36.613l5.832-8.124Zm-30.9-35.258h-2.64v10h2.64v-10Zm-6.423 1.731-36.96 42.768 7.566 6.538 36.96-42.768-7.566-6.538ZM281.2 683h-36.96v10h36.96v-10Zm-31.96 5V346.384h-10V688h10Zm-3.941-346.503-31.68-6.864-2.118 9.774 31.68 6.864 2.118-9.774Zm-27.739-1.977v-30.096h-10v30.096h10Zm-4.006-25.196L325.49 291.62l-1.988-9.8-111.936 22.704 1.988 9.8Zm105.942-27.604v165.792h10V286.72h-10Zm5 170.792h3.168v-10h-3.168v10Zm7.81-3.143c4.543-11.356 12.548-21.581 24.284-30.634l-6.108-7.918c-12.904 9.955-22.147 21.554-27.46 34.838l9.284 3.714Zm24.353-30.689c11.263-9.009 25.756-13.688 43.869-13.688v-10c-19.903 0-36.738 5.177-50.115 15.88l6.246 7.808Zm43.869-13.688c16.182 0 30.503 3.365 43.079 9.985l4.658-8.85c-14.175-7.46-30.127-11.135-47.737-11.135v10Zm43.218 10.055c12.988 6.327 23.992 15.483 33.038 27.545l8-6c-9.962-13.282-22.19-23.486-36.658-30.535l-4.38 8.99Zm33.038 27.545c9.067 12.09 16.036 26.809 20.826 44.26l9.644-2.648c-5.066-18.453-12.529-34.358-22.47-47.612l-8 6Zm20.859 44.373c5.117 17.056 7.709 36.273 7.709 57.699h10c0-22.222-2.688-42.429-8.131-60.573l-9.578 2.874Zm7.709 57.699c0 21.424-2.592 40.828-7.717 58.253l9.594 2.822c5.435-18.479 8.123-38.851 8.123-61.075h-10Zm-7.735 58.316c-4.786 17.094-11.753 31.649-20.833 43.756l8 6c9.928-13.237 17.393-28.954 22.463-47.06l-9.63-2.696Zm-20.833 43.756c-9.061 12.082-20.095 21.435-33.13 28.119l4.564 8.898c14.421-7.396 26.619-17.755 36.566-31.017l-8-6ZM443.7 679.832c-12.596 6.298-26.951 9.504-43.172 9.504v10c17.571 0 33.488-3.482 47.644-10.56l-4.472-8.944Zm-70.1-29.072c16.077 0 29.715-5.61 40.557-16.839l-7.194-6.946c-8.87 9.187-19.872 13.785-33.363 13.785v10Zm40.557-16.839c11.057-11.452 16.187-27.856 16.187-48.353h-10c0 18.927-4.726 32.443-13.381 41.407l7.194 6.946Zm16.187-48.353v-72.336h-10v72.336h10Zm0-72.336c0-20.497-5.13-36.901-16.187-48.353l-7.194 6.946c8.655 8.964 13.381 22.48 13.381 41.407h10Zm-16.187-48.353c-10.842-11.229-24.48-16.839-40.557-16.839v10c13.491 0 24.493 4.598 33.363 13.785l7.194-6.946ZM373.6 448.04c-15.22 0-28.261 4.798-38.773 14.531l6.794 7.338c8.496-7.867 19.039-11.869 31.979-11.869v-10Zm-38.842 14.596c-10.294 9.899-15.262 23.079-15.262 38.98h10c0-13.667 4.184-24.071 12.194-31.772l-6.932-7.208Zm-15.262 38.98v95.568h10v-95.568h-10Zm0 95.568c0 15.901 4.968 29.081 15.262 38.98l6.932-7.208c-8.01-7.701-12.194-18.105-12.194-31.772h-10Zm15.331 39.045c10.512 9.733 23.553 14.531 38.773 14.531v-10c-12.94 0-23.483-4.002-31.979-11.869l-6.794 7.338Zm285.865 48.603-1.909 4.621.06.025.06.023 1.789-4.669Zm-42.24-28.512-3.638 3.43.025.027.026.027 3.587-3.484Zm-26.928-45.408 4.715-1.664-4.715 1.664Zm26.928-167.904-3.587-3.484-.026.027-.025.027 3.638 3.43Zm42.24-27.984 1.822 4.656.026-.01.026-.01-1.874-4.636Zm109.296 0-1.909 4.621.06.025.06.023 1.789-4.669Zm42.24 27.984-3.638 3.43.025.027.026.027 3.587-3.484Zm27.456 167.904-4.715-1.664 4.715 1.664Zm-27.456 45.408-3.587-3.484-.026.027-.025.027 3.638 3.43Zm-42.24 28.512 1.822 4.656.026-.01.026-.01-1.874-4.636Zm-54.384-23.512c17.22 0 30.965-5.19 40.267-16.312 9.159-10.951 13.309-26.833 13.309-46.768h-10c0 18.785-3.947 31.943-10.98 40.352-6.89 8.238-17.433 12.728-32.596 12.728v10Zm53.576-63.08v-97.152h-10v97.152h10Zm0-97.152c0-19.935-4.15-35.817-13.309-46.768-9.302-11.122-23.047-16.312-40.267-16.312v10c15.163 0 25.706 4.49 32.596 12.728 7.033 8.409 10.98 21.567 10.98 40.352h10Zm-53.576-63.08c-17.221 0-30.966 5.19-40.268 16.312-9.159 10.951-13.308 26.833-13.308 46.768h10c0-18.785 3.946-31.943 10.979-40.352 6.89-8.238 17.433-12.728 32.597-12.728v-10Zm-53.576 63.08v97.152h10v-97.152h-10Zm0 97.152c0 19.935 4.149 35.817 13.308 46.768 9.302 11.122 23.047 16.312 40.268 16.312v-10c-15.164 0-25.707-4.49-32.597-12.728-7.033-8.409-10.979-21.567-10.979-40.352h-10Zm53.576 91.096c-19.533 0-37.221-3.083-53.124-9.173l-3.577 9.338c17.186 6.582 36.106 9.835 56.701 9.835v-10Zm-53.004-9.125c-15.574-6.433-29.079-15.555-40.562-27.375l-7.173 6.968c12.454 12.82 27.108 22.706 43.918 29.649l3.817-9.242Zm-40.51-27.321c-11.082-11.753-19.719-26.266-25.851-43.642l-9.43 3.328c6.539 18.528 15.854 34.287 28.005 47.174l7.276-6.86Zm-25.851-43.642c-6.114-17.322-9.219-37.16-9.219-59.584h-10c0 23.336 3.23 44.33 9.789 62.912l9.43-3.328Zm-9.219-59.584c0-22.424 3.105-42.262 9.219-59.584l-9.43-3.328c-6.559 18.582-9.789 39.576-9.789 62.912h10Zm9.219-59.584c6.132-17.376 14.769-31.889 25.851-43.642l-7.276-6.86c-12.151 12.887-21.466 28.646-28.005 47.174l9.43 3.328Zm25.799-43.588c11.464-11.801 24.94-20.733 40.476-26.812l-3.644-9.312c-16.849 6.593-31.533 16.317-44.005 29.156l7.173 6.968Zm40.528-26.832c15.879-6.42 33.536-9.668 53.038-9.668v-10c-20.627 0-39.577 3.44-56.786 10.396l3.748 9.272Zm53.038-9.668c19.503 0 36.97 3.249 52.475 9.653l3.817-9.242c-16.878-6.972-35.668-10.411-56.292-10.411v10Zm52.595 9.701c15.876 6.08 29.314 14.997 40.391 26.745l7.276-6.86c-12.156-12.892-26.878-22.631-44.09-29.223l-3.577 9.338Zm40.442 26.799c11.413 11.748 20.206 26.243 26.328 43.588l9.43-3.328c-6.551-18.559-16.062-34.336-28.585-47.228l-7.173 6.968Zm26.328 43.588c6.113 17.322 9.219 37.16 9.219 59.584h10c0-23.336-3.231-44.33-9.789-62.912l-9.43 3.328Zm9.219 59.584c0 22.424-3.106 42.262-9.219 59.584l9.43 3.328c6.558-18.582 9.789-39.576 9.789-62.912h-10Zm-9.219 59.584c-6.122 17.345-14.915 31.84-26.328 43.588l7.173 6.968c12.523-12.892 22.034-28.669 28.585-47.228l-9.43-3.328ZM768.59 652.89c-11.096 11.768-24.564 20.874-40.476 27.306l3.748 9.272c17.175-6.944 31.867-16.846 44.004-29.718l-7.276-6.86Zm-40.424 27.286c-15.53 6.076-33.027 9.16-52.562 9.16v10c20.592 0 39.351-3.252 56.206-9.848l-3.644-9.312Zm95.294-27.024v-5h-5v5h5Zm31.68 0v5h5v-5h-5Zm0-188.496h5v-4.033l-3.941-.854-1.059 4.887Zm-31.68-6.864h-5v4.033l3.941.854 1.059-4.887Zm0-30.096-1.007-4.897-3.993.821v4.076h5Zm110.352-22.704h5v-6.133l-6.007 1.236 1.007 4.897Zm0 52.272h-5v5h5v-5Zm2.64 0v5H940l1.171-3.348-4.719-1.652Zm26.4-36.432 3.137 3.894.032-.026.032-.027-3.201-3.841Zm123.548 10.032-3.91 3.114.04.044.03.043 3.84-3.201Zm21.12 222.288h-5v5h5v-5Zm31.68 0h5v-5h-5v5Zm0 34.848v5h5v-5h-5Zm-140.972 0h-5v5h5v-5Zm0-34.848v-5h-5v5h5Zm29.042 0v5h5v-5h-5Zm-10.03-182.688-3.94 3.082.07.095.08.091 3.79-3.268Zm-50.692-9.504 1.145 4.867.134-.031.132-.039-1.411-4.797Zm-15.84 7.392 2.846 4.111.103-.071.1-.077-3.049-3.963Zm-11.088 12.672 4.341 2.481.037-.064.034-.064-4.412-2.353Zm-4.224 172.128h-5v5h5v-5Zm29.04 0h5v-5h-5v5Zm0 34.848v5h5v-5h-5Zm-140.976 0h-5v5h5v-5Zm0-29.848h31.68v-10h-31.68v10Zm36.68-5V464.656h-10v188.496h10Zm-3.941-193.383-31.68-6.864-2.118 9.774 31.68 6.864 2.118-9.774Zm-27.739-1.977v-30.096h-10v30.096h10Zm-3.992-25.199 110.352-22.704-2.015-9.794-110.352 22.704 2.015 9.794Zm104.344-27.601v52.272h10v-52.272h-10Zm5 57.272h2.64v-10h-2.64v10Zm7.359-3.348c4.593-13.121 12.804-24.512 24.818-34.19l-6.273-7.788c-13.33 10.738-22.719 23.635-27.983 38.674l9.438 3.304Zm24.882-34.243c11.505-9.588 27.661-14.681 49.067-14.681v-10c-22.937 0-41.63 5.467-55.469 16.999l6.402 7.682Zm49.067-14.681c33.1 0 55.01 8.453 67.37 23.986l7.83-6.228c-15.1-18.963-40.71-27.758-75.2-27.758v10Zm67.44 24.073c13.02 15.618 19.96 39.771 19.96 73.359h10c0-34.7-7.13-61.587-22.27-79.761l-7.69 6.402Zm19.96 73.359v145.728h10V507.424h-10Zm5 150.728h31.68v-10h-31.68v10Zm26.68-5V688h10v-34.848h-10Zm5 29.848H998.228v10H1139.2v-10Zm-135.97 5v-34.848h-10.002V688h10.002Zm-5.002-29.848h29.042v-10h-29.042v10Zm34.042-5V510.064h-10v143.088h10Zm0-143.088c0-18.977-3.35-33.72-11.25-42.868l-7.57 6.536c5.48 6.34 8.82 17.997 8.82 36.332h10Zm-11.1-42.682c-7.68-9.821-20.44-14.062-36.67-14.062v10c14.75 0 23.81 3.855 28.8 10.226l7.87-6.164ZM984.5 453.32c-6.481 0-12.94.954-19.363 2.843l2.822 9.594c5.545-1.631 11.055-2.437 16.541-2.437v-10Zm-19.097 2.773c-6.63 1.56-12.568 4.315-17.743 8.296l6.097 7.926c3.977-3.059 8.598-5.232 13.936-6.488l-2.29-9.734Zm-17.541 8.148c-5.279 3.655-9.492 8.502-12.654 14.43l8.824 4.706c2.47-4.632 5.649-8.233 9.522-10.914l-5.692-8.222Zm-12.583 14.302c-3.359 5.879-4.883 12.955-4.883 20.961h10c0-6.778 1.293-12.022 3.565-15.999l-8.682-4.962Zm-4.883 20.961v153.648h10V499.504h-10Zm5 158.648h29.04v-10h-29.04v10Zm24.04-5V688h10v-34.848h-10Zm5 29.848H823.46v10h140.976v-10Zm-135.976 5v-34.848h-10V688h10Zm402.15-4.224-2.04 4.565.05.026.06.024 1.93-4.615Zm-42.24-30.096-3.79 3.271.05.054.05.054 3.69-3.379Zm-25.88-45.936-4.74 1.581.01.014v.015l4.73-1.61Zm0-118.8-4.71-1.664-.02.041-.01.042 4.74 1.581Zm26.4-45.408-3.63-3.43-.03.028-.03.028 3.69 3.374Zm41.19-28.512-1.91-4.621-.02.007-.02.008 1.95 4.606Zm107.18-1.056 1.77-4.677-1.77 4.677Zm40.13 25.872-3.59 3.479.05.057.06.055 3.48-3.591Zm25.87 40.128 4.68-1.767-4.68 1.767Zm8.98 70.752v5h5v-5h-5Zm-173.71 0v-5h-5v5h5Zm18.48 74.448-3.49 3.586 3.49-3.586Zm95.04 5.28 2.94 4.044.04-.029.04-.03-3.02-3.985Zm24.81-31.68 2.57-4.287-5.03-3.021-2.18 5.451 4.64 1.857Zm29.04 17.424 4.71 1.694 1.39-3.867-3.53-2.114-2.57 4.287Zm-13.73 26.928-4.18-2.736 4.18 2.736Zm-23.23 25.344 3.07 3.947.05-.035.04-.036-3.16-3.876Zm-34.32 18.48-1.73-4.692 1.73 4.692Zm-96.09-169.488h-5v5h5v-5Zm90.81 0v5h5v-5h-5Zm-12.14-60.72 3.92-3.107-3.92 3.107Zm-66.53 0-3.92-3.107 3.92 3.107Zm38.02 232.6c-21.29 0-39.98-3.433-56.16-10.175l-3.85 9.23c17.61 7.338 37.65 10.945 60.01 10.945v-10Zm-56.04-10.125c-15.96-7.129-29.47-16.768-40.6-28.91l-7.37 6.758c12.1 13.202 26.75 23.627 43.89 31.282l4.08-9.13Zm-40.5-28.802c-10.81-12.499-19.13-27.236-24.92-44.275l-9.47 3.22c6.17 18.16 15.11 34.048 26.82 47.597l7.57-6.542Zm-24.91-44.246c-5.8-17.387-8.72-36.383-8.72-57.027h-10c0 21.596 3.06 41.672 9.23 60.189l9.49-3.162Zm-8.72-57.027c0-21.729 2.93-41.248 8.72-58.611l-9.49-3.162c-6.18 18.541-9.23 39.15-9.23 61.773h10Zm8.69-58.528c6.14-17.407 14.62-31.938 25.37-43.698l-7.38-6.748c-11.77 12.88-20.89 28.621-27.42 47.118l9.43 3.328Zm25.32-43.642c11.13-11.807 24.28-20.914 39.49-27.336l-3.89-9.212c-16.47 6.954-30.77 16.855-42.87 29.688l7.27 6.86Zm39.46-27.321c15.51-6.408 32.81-9.653 51.94-9.653v-10c-20.28 0-38.89 3.443-55.76 10.411l3.82 9.242Zm51.94-9.653c19.21 0 36.37 2.915 51.56 8.653l3.54-9.354c-16.49-6.23-34.88-9.299-55.1-9.299v10Zm51.56 8.653c15.21 5.745 27.95 13.98 38.31 24.674l7.18-6.958c-11.46-11.834-25.48-20.847-41.95-27.07l-3.54 9.354Zm38.42 24.786c10.69 10.36 18.93 23.097 24.67 38.304l9.36-3.534c-6.22-16.473-15.24-30.488-27.07-41.952l-6.96 7.182Zm24.67 38.304c5.75 15.2 8.66 32.191 8.66 51.033h10c0-19.878-3.08-38.087-9.3-54.567l-9.36 3.534Zm8.66 51.033v17.952h10v-17.952h-10Zm5 12.952h-173.71v10h173.71v-10Zm-178.71 5v21.12h10v-21.12h-10Zm0 21.12c0 24.418 6.39 43.697 19.99 56.914l6.97-7.172c-11.03-10.719-16.96-26.992-16.96-49.742h-10Zm19.99 56.914c13.43 13.043 31.14 19.366 52.59 19.366v-10c-19.38 0-34.41-5.645-45.62-16.538l-6.97 7.172Zm52.59 19.366c19.73 0 36.17-4.385 48.88-13.628l-5.88-8.088c-10.53 7.653-24.71 11.716-43 11.716v10Zm48.96-13.687c12.26-9.293 21.14-20.563 26.43-33.808l-9.28-3.714c-4.56 11.395-12.23 21.245-23.19 29.552l6.04 7.97Zm19.22-31.378 29.04 17.424 5.14-8.574-29.04-17.424-5.14 8.574Zm26.91 11.443c-3.02 8.378-7.41 17.006-13.21 25.886l8.37 5.472c6.16-9.424 10.93-18.748 14.25-27.97l-9.41-3.388Zm-13.21 25.886c-5.67 8.673-13.05 16.746-22.21 24.204l6.32 7.752c9.86-8.03 17.96-16.853 24.26-26.484l-8.37-5.472Zm-22.12 24.133c-9.03 7.025-20 12.953-32.98 17.735l3.46 9.384c13.77-5.074 25.68-11.466 35.66-19.225l-6.14-7.894Zm-32.98 17.735c-12.72 4.687-27.43 7.084-44.2 7.084v10c17.71 0 33.63-2.531 47.66-7.7l-3.46-9.384Zm-94.36-159.796h90.81v-10h-90.81v10Zm95.81-5v-7.392h-10v7.392h10Zm0-7.392c0-25.562-4.02-44.827-13.22-56.435l-7.84 6.214c6.99 8.808 11.06 25.095 11.06 50.221h10Zm-13.22-56.435c-9.13-11.51-21.72-17.205-37.19-17.205v10c12.7 0 22.29 4.513 29.35 13.419l7.84-6.214Zm-37.19-17.205c-15.46 0-28.05 5.695-37.18 17.205l7.84 6.214c7.06-8.906 16.65-13.419 29.34-13.419v-10Zm-37.18 17.205c-9.2 11.608-13.22 30.873-13.22 56.435h10c0-25.126 4.07-41.413 11.06-50.221l-7.84-6.214Zm-13.22 56.435v7.392h10v-7.392h-10Zm289.8 173.712-2.93 4.05.05.033.04.033 2.84-4.116Zm-19.53-24.288 4.76-1.524-1.11-3.476h-3.65v5Zm-2.12 0v-5h-5v5h5Zm0 28.512v5h5v-5h-5Zm-51.74 0h-5v5h5v-5Zm0-82.368v-5h-5v5h5Zm51.74 0h5v-5h-5v5Zm12.68 39.6-3.2 3.841 3.2-3.841Zm78.14 2.64 2.82 4.131-2.82-4.131Zm3.17-44.352-3.29 3.763.06.06.08.058 3.15-3.881Zm-27.99-13.2 1.43-4.793-.05-.013-.04-.013-1.34 4.819Zm-24.81-6.864 1.33-4.819v-.001l-1.33 4.82Zm-68.11-33.792-3.54 3.536.04.043.05.042 3.45-3.621Zm5.8-121.968 3.15 3.89.02-.018.02-.019-3.19-3.853Zm115.11-12.144 2.9-4.069-2.9 4.069Zm19.01 23.76-4.77 1.524 1.12 3.476h3.65v-5Zm2.11 0v5h5v-5h-5Zm0-27.984v-5h-5v5h5Zm51.74 0h5v-5h-5v5Zm0 82.368v5h5v-5h-5Zm-51.74 0h-5v5h5v-5Zm-12.67-39.6-3.28 3.773.08.076.09.071 3.11-3.92Zm-72.34 40.656-3.65 3.42.06.059.05.057 3.54-3.536Zm30.1 13.728 1.24-4.844-.03-.007-.03-.007-1.18 4.858Zm22.7 5.808 1.27-4.837-.02-.003-.01-.004-1.24 4.844Zm39.07 13.2-2 4.581 2-4.581Zm27.99 17.952-3.45 3.621.09.084.09.079 3.27-3.784Zm17.42 24.816-4.65 1.828.01.029.01.029 4.63-1.886Zm-23.76 101.376 3.05 3.966.02-.017.02-.017-3.09-3.932Zm-77.62 17.704c-18.87 0-32.48-3.452-41.51-9.676l-5.68 8.232c11.39 7.856 27.35 11.444 47.19 11.444v-10Zm-41.42-9.61c-9.65-6.99-15.31-14.289-17.7-21.762l-9.53 3.048c3.24 10.127 10.61 19.02 21.37 26.814l5.86-8.1Zm-22.46-25.238h-2.12v10h2.12v-10Zm-7.12 5V688h10v-28.512h-10Zm5 23.512h-51.74v10h51.74v-10Zm-46.74 5v-82.368h-10V688h10Zm-5-77.368h51.74v-10h-51.74v10Zm46.74-5v8.448h10v-8.448h-10Zm0 8.448c0 14.811 4.61 26.773 14.48 34.993l6.4-7.682c-7.03-5.86-10.88-14.666-10.88-27.311h-10Zm14.48 34.993c9.8 8.167 24.98 11.719 44.38 11.719v-10c-18.61 0-30.89-3.488-37.98-9.401l-6.4 7.682Zm44.38 11.719c17.2 0 30.77-2.646 39.78-8.789l-5.64-8.262c-6.48 4.417-17.55 7.051-34.14 7.051v10Zm39.78-8.789c9.35-6.375 13.8-16.167 13.8-28.419h-10c0 9.572-3.3 15.972-9.44 20.157l5.64 8.262Zm13.8-28.419c0-9.952-3.25-18.217-10.3-23.945l-6.3 7.762c4.21 3.424 6.6 8.535 6.6 16.183h10Zm-10.16-23.827c-6.45-5.644-16.61-10.293-29.85-14.23l-2.85 9.586c12.81 3.807 21.3 7.958 26.12 12.17l6.58-7.526Zm-29.94-14.256-24.82-6.864-2.66 9.638 24.81 6.864 2.67-9.638Zm-24.82-6.865c-30.23-8.339-52.05-19.311-66-32.593l-6.89 7.242c15.62 14.878 39.21 26.434 70.23 34.991l2.66-9.64Zm-65.91-32.508c-13.32-13.319-20.18-31.312-20.18-54.544h-10c0 25.344 7.57 46.071 23.11 61.616l7.07-7.072Zm-20.18-54.544c0-26.604 8.69-46.341 25.6-59.998l-6.29-7.78c-19.7 15.911-29.31 38.766-29.31 67.778h10Zm25.64-60.035c17.2-14.219 40.08-21.557 69.15-21.557v-10c-30.77 0-56.11 7.798-75.52 23.851l6.37 7.706Zm69.15-21.557c18.14 0 31.2 3.442 39.86 9.629l5.81-8.138c-11.05-7.893-26.5-11.491-45.67-11.491v10Zm39.86 9.629c9.25 6.608 14.76 13.719 17.15 21.215l9.53-3.048c-3.23-10.104-10.4-18.833-20.87-26.305l-5.81 8.138Zm21.92 24.691h2.11v-10h-2.11v10Zm7.11-5v-27.984h-10v27.984h10Zm-5-22.984h51.74v-10h-51.74v10Zm46.74-5v82.368h10v-82.368h-10Zm5 77.368h-51.74v10h51.74v-10Zm-46.74 5v-9.504h-10v9.504h10Zm0-9.504c0-14.498-4.64-26.154-14.57-34.016l-6.21 7.84c6.97 5.514 10.78 13.922 10.78 26.176h10Zm-14.39-33.869c-9.48-8.237-24.36-11.787-43.41-11.787v10c18.26 0 30.13 3.49 36.85 9.333l6.56-7.546Zm-43.41-11.787c-13.83 0-25.11 2.475-33.03 8.209-8.22 5.951-12.1 14.863-12.1 25.831h10c0-8.392 2.81-14 7.96-17.729 5.46-3.946 14.25-6.311 27.17-6.311v-10Zm-45.13 34.04c0 10.172 2.97 18.869 9.27 25.596l7.3-6.84c-4.26-4.537-6.57-10.624-6.57-18.756h-10Zm9.38 25.712c6.63 6.63 17.78 11.472 32.45 15.05l2.37-9.716c-14.19-3.462-23.11-7.772-27.74-12.406l-7.08 7.072Zm32.4 15.036 22.7 5.808 2.48-9.688-22.7-5.808-2.48 9.688Zm22.67 5.801c14.59 3.821 27.36 8.142 38.34 12.944l4.01-9.162c-11.56-5.054-24.83-9.533-39.81-13.456l-2.54 9.674Zm38.34 12.944c10.83 4.741 19.64 10.426 26.54 16.992l6.89-7.242c-7.89-7.514-17.73-13.797-29.42-18.912l-4.01 9.162Zm26.72 17.155c7.11 6.139 12.45 13.732 16.04 22.86l9.3-3.656c-4.15-10.584-10.43-19.535-18.81-26.772l-6.53 7.568Zm16.06 22.918c3.57 8.754 5.44 19.518 5.44 32.434h10c0-13.836-2-25.952-6.18-36.206l-9.26 3.772Zm5.44 32.434c0 27.967-9.36 48.748-27.66 63.124l6.18 7.864c21.13-16.6 31.48-40.523 31.48-70.988h-10Zm-27.61 63.09c-18.62 14.294-43.32 21.67-74.58 21.67v10c32.82 0 59.86-7.76 80.67-23.738l-6.09-7.932Z" fill="#1A73E8"/>
    <path d="M244.225 299.5v-5h-5v5h5Zm77.7 0h5v-5h-5v5Zm0 159.075h-5v5h5v-5Zm2.625 0v5h3.904l.947-3.787-4.851-1.213Zm26.25-37.8-2.867-4.096-.025.017-.024.017 2.916 4.062Zm127.05 22.05-4.041 2.944 4.041-2.944Zm0 214.725 4.041 2.944.01-.013.01-.014-4.061-2.917Zm-105 32.55 1.643-4.722-.093-.033-.094-.028-1.456 4.783Zm-22.05-10.5-3.07 3.947.121.093.126.087 2.823-4.127Zm-16.275-16.8-4.127 2.823.036.053.038.051 4.053-2.927Zm-9.975-21 4.808-1.374-1.036-3.626h-3.772v5Zm-2.625 0v-5h-5v5h5Zm0 46.2v5h5v-5h-5Zm-77.7 0h-5v5h5v-5Zm164.85-71.925-3.655-3.412-.004.005 3.659 3.407Zm0-131.25-3.716 3.345.058.065.061.063 3.597-3.473ZM336.1 480.1l2.976 4.018.012-.009.012-.009-3-4Zm0 140.7-3.07 3.947.081.062.083.06 2.906-4.069Zm-91.875-316.3h77.7v-10h-77.7v10Zm72.7-5v159.075h10V299.5h-10Zm5 164.075h2.625v-10h-2.625v10Zm7.476-3.787c3.545-14.181 11.566-25.798 24.315-34.951l-5.832-8.124c-14.551 10.447-24.03 24.03-28.185 40.649l9.702 2.426Zm24.266-34.917c13.121-9.184 28.035-13.796 44.908-13.796v-10c-18.827 0-35.763 5.188-50.642 15.604l5.734 8.192Zm44.908-13.796c33.684 0 58.48 11.699 75.234 34.694l8.082-5.888c-18.946-26.005-47-38.806-83.316-38.806v10Zm75.234 34.694c16.969 23.292 25.816 57.772 25.816 104.156h10c0-47.416-9.003-84.336-27.734-110.044l-8.082 5.888Zm25.816 104.156c0 46.376-8.844 81.052-25.836 104.708l8.122 5.834c18.708-26.044 27.714-63.118 27.714-110.542h-10Zm-25.816 104.681c-16.754 22.995-41.55 34.694-75.234 34.694v10c36.316 0 64.37-12.801 83.316-38.806l-8.082-5.888ZM398.575 689.3c-8.579 0-16.595-1.318-24.082-3.922l-3.286 9.444c8.613 2.996 17.747 4.478 27.368 4.478v-10Zm-24.269-3.983c-7.585-2.309-14.471-5.593-20.683-9.844l-5.646 8.254c7.088 4.849 14.902 8.565 23.417 11.156l2.912-9.566Zm-20.436-9.664c-5.936-4.616-11.027-9.876-15.292-15.78l-8.106 5.854c4.835 6.696 10.594 12.636 17.258 17.82l6.14-7.894Zm-15.218-15.676c-4.264-6.231-7.35-12.745-9.294-19.551l-9.616 2.748c2.256 7.894 5.82 15.38 10.656 22.449l8.254-5.646ZM324.55 636.8h-2.625v10h2.625v-10Zm-7.625 5V688h10v-46.2h-10Zm5 41.2h-77.7v10h77.7v-10Zm-72.7 5V299.5h-10V688h10Zm123.625-51.7c15.995 0 29.427-5.586 39.884-16.818l-7.318-6.814c-8.443 9.068-19.161 13.632-32.566 13.632v10Zm39.88-16.813c10.845-11.619 16.045-26.937 16.045-45.412h-10c0 16.525-4.6 29.207-13.355 38.588l7.31 6.824Zm16.045-45.412V526.3h-10v47.775h10Zm0-47.775c0-18.468-5.198-33.654-16.103-44.948l-7.194 6.946c8.695 9.006 13.297 21.47 13.297 38.002h10Zm-15.984-44.82c-10.441-11.601-23.889-17.405-39.941-17.405v10c13.348 0 24.05 4.696 32.509 14.095l7.432-6.69Zm-39.941-17.405c-15.559 0-28.922 3.904-39.75 12.025l6 8c8.772-6.579 19.909-10.025 33.75-10.025v-10Zm-39.726 12.007c-10.826 8.019-16.199 19.366-16.199 33.418h10c0-11.148 4.077-19.401 12.151-25.382l-5.952-8.036ZM316.925 509.5v81.375h10V509.5h-10Zm0 81.375c0 14.049 5.365 25.518 16.105 33.872l6.14-7.894c-8.16-6.346-12.245-14.827-12.245-25.978h-10Zm16.269 33.994c10.82 7.728 24.148 11.431 39.656 11.431v-10c-13.892 0-25.064-3.297-33.844-9.569l-5.812 8.138Zm287.665 59.456-1.945 4.606.018.008.018.007 1.909-4.621Zm-40.425-28.875-3.789 3.263.026.029.026.03 3.737-3.322Zm-25.2-45.675 4.744-1.581-4.744 1.581Zm0-119.7 4.744 1.581-4.744-1.581Zm25.2-45.15-3.737-3.322-.006.007 3.743 3.315Zm40.425-28.875-1.909-4.621-.018.007-.018.008 1.945 4.606Zm108.675 0-1.945 4.606.018.008.018.007 1.909-4.621Zm40.425 28.875-3.789 3.263.049.056.05.055 3.69-3.374Zm25.725 45.15 4.744-1.581-4.744 1.581Zm0 119.7 4.744 1.581-4.744-1.581Zm-25.725 45.675-3.737-3.322-.026.03-.026.029 3.789 3.263Zm-40.425 28.875-1.909-4.621-.018.007-.018.008 1.945 4.606ZM711.159 618.7l3.737 3.322-3.737-3.322Zm0-137.025 3.737-3.322-3.737 3.322Zm-71.4 0 3.737 3.322-3.737-3.322Zm0 137.025 3.737-3.322-3.737 3.322Zm35.7 70.6c-19.752 0-37.288-3.234-52.691-9.596l-3.818 9.242c16.797 6.938 35.661 10.354 56.509 10.354v-10Zm-52.655-9.581c-15.074-6.365-27.934-15.555-38.633-27.591l-7.474 6.644c11.702 13.164 25.792 23.224 42.217 30.159l3.89-9.212Zm-38.581-27.532c-10.373-12.046-18.474-26.68-24.245-43.993l-9.487 3.162c6.129 18.387 14.828 34.203 26.154 47.357l7.578-6.526Zm-24.245-43.993c-5.754-17.261-8.669-36.666-8.669-58.269h-10c0 22.497 3.035 42.992 9.182 61.431l9.487-3.162Zm-8.669-58.269c0-21.603 2.915-41.008 8.669-58.269l-9.487-3.162c-6.147 18.439-9.182 38.934-9.182 61.431h10Zm8.669-58.269c5.768-17.305 13.858-31.74 24.199-43.416l-7.486-6.63c-11.359 12.824-20.069 28.489-26.2 46.884l9.487 3.162Zm24.193-43.409c10.699-12.036 23.559-21.226 38.633-27.591l-3.89-9.212c-16.425 6.935-30.515 16.995-42.217 30.159l7.474 6.644Zm38.597-27.576c15.403-6.362 32.939-9.596 52.691-9.596v-10c-20.848 0-39.712 3.416-56.509 10.354l3.818 9.242Zm52.691-9.596c19.755 0 37.1 3.235 52.13 9.581l3.89-9.212c-16.469-6.954-35.175-10.369-56.02-10.369v10Zm52.166 9.596c15.411 6.366 28.231 15.539 38.545 27.517l7.578-6.526c-11.386-13.222-25.516-23.299-42.305-30.233l-3.818 9.242Zm38.644 27.628c10.668 11.668 18.914 26.083 24.672 43.357l9.487-3.162c-6.142-18.426-15.047-34.111-26.779-46.943l-7.38 6.748Zm24.672 43.357c5.753 17.261 8.668 36.666 8.668 58.269h10c0-22.497-3.035-42.992-9.181-61.431l-9.487 3.162Zm8.668 58.269c0 21.603-2.915 41.008-8.668 58.269l9.487 3.162c6.146-18.439 9.181-38.934 9.181-61.431h-10Zm-8.668 58.269c-5.761 17.282-14.018 31.896-24.719 43.934l7.474 6.644c11.7-13.162 20.592-28.998 26.732-47.416l-9.487-3.162Zm-24.771 43.993c-10.314 11.978-23.134 21.151-38.545 27.517l3.818 9.242c16.789-6.934 30.919-17.011 42.305-30.233l-7.578-6.526Zm-38.581 27.532c-15.03 6.346-32.375 9.581-52.13 9.581v10c20.845 0 39.551-3.415 56.02-10.369l-3.89-9.212Zm-52.13-41.844c16.49 0 29.885-5.107 39.437-15.853l-7.474-6.644c-7.247 8.154-17.653 12.497-31.963 12.497v10Zm39.437-15.853c9.48-10.665 13.863-25.494 13.863-43.747h-10c0 16.747-4.017 28.868-11.337 37.103l7.474 6.644Zm13.863-43.747V522.1h-10v56.175h10Zm0-56.175c0-18.253-4.383-33.082-13.863-43.747l-7.474 6.644c7.32 8.235 11.337 20.356 11.337 37.103h10Zm-13.863-43.747c-9.552-10.746-22.947-15.853-39.437-15.853v10c14.31 0 24.716 4.343 31.963 12.497l7.474-6.644ZM675.459 462.5c-16.49 0-29.884 5.107-39.437 15.853l7.474 6.644c7.248-8.154 17.653-12.497 31.963-12.497v-10Zm-39.437 15.853c-9.48 10.665-13.863 25.494-13.863 43.747h10c0-16.747 4.017-28.868 11.337-37.103l-7.474-6.644ZM622.159 522.1v56.175h10V522.1h-10Zm0 56.175c0 18.253 4.383 33.082 13.863 43.747l7.474-6.644c-7.32-8.235-11.337-20.356-11.337-37.103h-10Zm13.863 43.747c9.553 10.746 22.947 15.853 39.437 15.853v-10c-14.31 0-24.715-4.343-31.963-12.497l-7.474 6.644ZM859.972 688h-5v5h5v-5Zm0-275.625v-5h-5v5h5Zm77.7 0h5v-5h-5v5Zm0 46.725h-5v5h5v-5Zm3.15 0v5h3.576l1.156-3.384-4.732-1.616Zm25.725-37.275-3.254-3.796 3.254 3.796Zm114.973 12.6-3.98 3.024.02.023.02.023 3.94-3.07ZM1103.57 688v5h5v-5h-5Zm-77.7 0h-5v5h5v-5Zm-8.4-205.8-4.21 2.695.03.04.02.038 4.16-2.773Zm-48.298-10.5 1.145 4.867.134-.031.132-.039-1.411-4.797Zm-16.275 7.35-2.906-4.069-.072.052-.07.054 3.048 3.963Zm-11.025 13.125 4.341 2.481.036-.064.035-.064-4.412-2.353ZM937.672 688v5h5v-5h-5Zm-72.7 0V412.375h-10V688h10Zm-5-270.625h77.7v-10h-77.7v10Zm72.7-5V459.1h10v-46.725h-10Zm5 51.725h3.15v-10h-3.15v10Zm7.882-3.384c4.592-13.45 12.631-25.138 24.247-35.095l-6.508-7.592c-12.883 11.043-21.995 24.205-27.203 39.455l9.464 3.232Zm24.247-35.095c11.072-9.49 26.75-14.546 47.669-14.546v-10c-22.477 0-40.749 5.444-54.177 16.954l6.508 7.592Zm47.669-14.546c27.13 0 46.85 8.968 60.07 26.374l7.96-6.048c-15.48-20.394-38.46-30.326-68.03-30.326v10Zm60.11 26.42c13.76 17.698 20.99 43.397 20.99 77.78h10c0-35.617-7.47-63.818-23.1-83.92l-7.89 6.14Zm20.99 77.78V688h10V515.275h-10Zm5 167.725h-77.7v10h77.7v-10Zm-72.7 5V521.575h-10V688h10Zm0-166.425c0-18.173-2.81-32.509-9.24-42.149l-8.32 5.547c4.78 7.161 7.56 19.075 7.56 36.602h10Zm-9.19-42.07c-6.84-10.7-18.79-15.43-34.133-15.43v10c13.363 0 21.363 4.02 25.713 10.82l8.42-5.39Zm-34.133-15.43c-6.77 0-13.37.941-19.786 2.828l2.822 9.594c5.484-1.613 11.134-2.422 16.964-2.422v-10Zm-19.52 2.758c-6.574 1.547-12.599 4.264-18.036 8.148l5.812 8.138c4.363-3.116 9.188-5.299 14.514-6.552l-2.29-9.734Zm-18.178 8.254c-5.135 3.949-9.267 8.881-12.389 14.735l8.824 4.706c2.478-4.646 5.696-8.464 9.662-11.515l-6.097-7.926Zm-12.318 14.607c-3.303 5.781-4.859 12.442-4.859 19.806h10c0-5.936 1.244-10.825 3.541-14.844l-8.682-4.962Zm-4.859 19.806V688h10V509.5h-10Zm5 173.5h-77.7v10h77.7v-10Zm293.848 1.325-1.96 4.601.04.018.04.017 1.88-4.636Zm-42-28.875-3.74 3.322.05.055.05.053 3.64-3.43Zm-25.73-45.675-4.77 1.497.01.042.02.042 4.74-1.581Zm0-118.65 4.76 1.524.01-.014v-.013l-4.77-1.497Zm24.68-45.675-3.74-3.322-.03.03-.02.029 3.79 3.263Zm40.95-28.875 1.91 4.621.04-.017.04-.019-1.99-4.585Zm113.4 1.05-2.16 4.511.02.009.02.008 2.12-4.528Zm39.9 30.975-3.94 3.084.03.033.02.032 3.89-3.149Zm22.57 45.15-4.83 1.282.01.059.02.059 4.8-1.4Zm7.35 76.125v5h5v-5h-5Zm-176.92 0v-5h-5v5h5Zm14.7 47.775-3.71 3.351.02.031.03.03 3.66-3.412Zm85.57 6.3 2.64 4.248.05-.032.05-.034-2.74-4.182Zm28.35-23.625 3.9-3.134-3.56-4.428-3.94 4.096 3.6 3.466Zm38.85 48.3 3.8 3.246 2.69-3.151-2.59-3.229-3.9 3.134Zm-48.3 33.6-1.87-4.637-.01.006-.02.006 1.9 4.625ZM1248.84 479.05l-3.78-3.275-.01.01 3.79 3.265Zm-13.12 45.15h-5v5h5v-5Zm96.6 0v5h5v-5h-5Zm-11.55-45.15-4.1 2.867.05.079.06.076 3.99-3.022Zm-33.08 210.25c-20.47 0-38.54-3.241-54.3-9.611l-3.75 9.272c17.15 6.93 36.52 10.339 58.05 10.339v-10Zm-54.22-9.576c-15.85-6.747-29.27-15.987-40.32-27.704l-7.27 6.86c12.05 12.783 26.63 22.793 43.68 30.046l3.91-9.202Zm-40.22-27.596c-10.7-12.038-18.95-26.652-24.72-43.934l-9.48 3.162c6.14 18.418 15.03 34.254 26.73 47.416l7.47-6.644Zm-24.69-43.85c-5.42-17.288-8.17-36.722-8.17-58.353h-10c0 22.469 2.85 42.935 8.63 61.347l9.54-2.994Zm-8.17-58.353c0-21.274 2.75-40.349 8.16-57.276l-9.52-3.048c-5.78 18.073-8.64 38.198-8.64 60.324h10Zm8.17-57.303c5.42-17.282 13.34-31.886 23.7-43.909l-7.58-6.526c-11.35 13.177-19.88 29.023-25.66 47.441l9.54 2.994Zm23.64-43.85c10.68-12.015 23.7-21.205 39.13-27.576l-3.82-9.242c-16.78 6.929-31.06 16.989-42.78 30.174l7.47 6.644Zm39.21-27.612c15.37-6.682 33.05-10.085 53.13-10.085v-10c-21.22 0-40.29 3.597-57.12 10.915l3.99 9.17Zm53.13-10.085c22.2 0 40.85 3.759 56.12 11.061l4.31-9.022c-16.93-8.098-37.13-12.039-60.43-12.039v10Zm56.16 11.078c15.81 7.403 28.46 17.26 38.08 29.531l7.87-6.168c-10.68-13.629-24.63-24.422-41.71-32.419l-4.24 9.056Zm38.13 29.596c10.03 12.367 17.25 26.771 21.63 43.283l9.66-2.564c-4.72-17.788-12.55-33.484-23.52-47.017l-7.77 6.298Zm21.66 43.401c4.76 16.319 7.15 33.52 7.15 51.625h10c0-18.995-2.51-37.144-7.55-54.425l-9.6 2.8Zm7.15 51.625v23.1h10v-23.1h-10Zm5 18.1h-176.92v10h176.92v-10Zm-181.92 5v4.2h10v-4.2h-10Zm0 4.2c0 19.122 5.17 34.947 15.99 46.926l7.42-6.702c-8.78-9.721-13.41-22.946-13.41-40.224h-10Zm16.04 46.987c11.11 11.904 28.12 17.338 49.86 17.338v-10c-20.26 0-34.06-5.066-42.55-14.162l-7.31 6.824Zm49.86 17.338c16.71 0 30.84-3.268 42.01-10.202l-5.28-8.496c-9.12 5.666-21.25 8.698-36.73 8.698v10Zm42.11-10.268c10.48-6.864 20.22-14.982 29.22-24.341l-7.21-6.932c-8.5 8.841-17.67 16.473-27.49 22.909l5.48 8.364Zm21.72-24.673 38.85 48.3 7.79-6.268-38.85-48.3-7.79 6.268Zm38.94 41.92c-11.66 13.656-27.06 24.418-46.37 32.209l3.74 9.274c20.59-8.309 37.39-19.947 50.23-34.991l-7.6-6.492Zm-46.4 32.221c-18.89 7.76-40.63 11.7-65.3 11.7v10c25.73 0 48.8-4.11 69.1-12.45l-3.8-9.25Zm-66.87-219.3c-16.99 0-30.87 5.726-41.06 17.475l7.56 6.55c8.02-9.251 18.98-14.025 33.5-14.025v-10Zm-41.07 17.485c-9.73 11.288-14.33 26.21-14.33 44.215h10c0-16.295 4.14-28.673 11.91-37.685l-7.58-6.53ZM1230.72 520v4.2h10V520h-10Zm5 9.2h96.6v-10h-96.6v10Zm101.6-5v-4.725h-10v4.725h10Zm0-4.725c0-17.544-4.03-32.187-12.57-43.447l-7.97 6.044c6.86 9.04 10.54 21.347 10.54 37.403h10Zm-12.46-43.292c-8.5-12.149-21.78-17.883-38.74-17.883v10c14.54 0 24.35 4.766 30.55 13.617l8.19-5.734ZM1493.77 681.7l-2.17 4.506.04.017.03.017 2.1-4.54Zm-48.83-36.75-3.55-3.515-3.34 3.375 3.2 3.507 3.69-3.367Zm45.68-46.2 3.71-3.351-3.55-3.927-3.72 3.763 3.56 3.515Zm32.55 25.725 2.34-4.419-2.34 4.419Zm72.45 2.625 3.03 3.972.07-.055.07-.057-3.17-3.86Zm-18.9-42.525.65-4.957-.02-.003-.02-.003-.61 4.963Zm-29.93-3.675-.62 4.962.01.001.61-4.963Zm-85.57-121.275-4.53-2.122-.02.032-.01.032 4.56 2.058Zm21.52-28.35 3.23 3.817.01-.005v-.006l-3.24-3.806Zm33.6-18.375 1.54 4.756.04-.012.04-.013-1.62-4.731Zm82.43-3.675-.95 4.909.08.017.09.014.78-4.94Zm29.4 8.4-2.09 4.545.11.052.12.045 1.86-4.642Zm23.62 13.65-3.12 3.904.1.085.11.08 2.91-4.069Zm21.53 17.85 3.57 3.494 3.55-3.627-3.68-3.492-3.44 3.625Zm-44.63 45.675-3.53 3.536 3.57 3.576 3.54-3.618-3.58-3.494Zm-29.92-20.475-2.18 4.501.08.041.09.039 2.01-4.581Zm-64.58 32.55-3.68 3.379.14.16.16.147 3.38-3.686Zm23.1 8.4-.77 4.94.05.008.05.007.67-4.955Zm30.98 4.2-.68 4.955.02.001.66-4.956Zm58.27 149.1 3.11 3.917.01-.006v-.007l-3.12-3.904Zm-37.27 18.9-1.48-4.776-.02.005-.02.005 1.52 4.766Zm-48.3 1.825c-26.11 0-47.74-4.125-65.11-12.14l-4.19 9.08c19.04 8.785 42.2 13.06 69.3 13.06v-10Zm-65.04-12.106c-17.59-8.457-33.35-20.309-47.29-35.611l-7.39 6.734c14.75 16.198 31.54 28.846 50.35 37.889l4.33-9.012Zm-47.43-28.729 45.67-46.2-7.11-7.03-45.67 46.2 7.11 7.03Zm38.41-46.364c10.15 11.246 21.46 20.197 33.92 26.793l4.68-8.838c-11.35-6.004-21.74-14.203-31.18-24.657l-7.42 6.702Zm33.92 26.793c12.7 6.725 26.99 10.031 42.76 10.031v-10c-14.33 0-26.99-2.994-38.08-8.869l-4.68 8.838Zm42.76 10.031c15.54 0 27.7-2.225 35.06-7.853l-6.07-7.944c-4.54 3.472-13.73 5.797-28.99 5.797v10Zm35.2-7.965c7.17-5.898 10.75-13.817 10.75-23.285h-10c0 6.632-2.36 11.663-7.1 15.565l6.35 7.72Zm10.75-23.285c0-7.836-2.89-14.457-8.76-19.335-5.66-4.698-13.67-7.436-23.41-8.722l-1.31 9.914c8.82 1.164 14.71 3.501 18.33 6.503 3.4 2.822 5.15 6.526 5.15 11.64h10Zm-32.21-28.063-29.93-3.675-1.22 9.926 29.93 3.675 1.22-9.926Zm-29.92-3.674c-30.42-3.781-52.5-12.555-66.94-25.764-14.27-13.067-21.6-30.97-21.6-54.324h-10c0 25.646 8.15 46.418 24.85 61.701 16.54 15.141 40.92 24.392 72.45 28.311l1.24-9.924Zm-88.54-80.088c0-12.674 2.33-24.036 6.9-34.167l-9.11-4.116c-5.23 11.569-7.79 24.357-7.79 38.283h10Zm6.87-34.103c4.96-10.573 11.7-19.438 20.23-26.655l-6.46-7.634c-9.67 8.183-17.28 18.218-22.82 30.045l9.05 4.244Zm20.24-26.666c8.91-7.585 19.52-13.407 31.9-17.425l-3.08-9.512c-13.51 4.382-25.31 10.81-35.3 19.325l6.48 7.612Zm31.98-17.45c12.7-4.345 27.02-6.556 43.01-6.556v-10c-16.91 0-32.35 2.339-46.25 7.094l3.24 9.462Zm43.01-6.556c14.12 0 26.39 1.034 36.85 3.059l1.9-9.818c-11.24-2.175-24.17-3.241-38.75-3.241v10Zm37.02 3.09c10.85 1.695 20.19 4.384 28.09 8.005l4.17-9.09c-8.9-4.079-19.16-6.99-30.71-8.795l-1.55 9.88Zm28.32 8.102c8.32 3.327 15.76 7.635 22.36 12.912l6.24-7.808c-7.4-5.923-15.7-10.715-24.89-14.388l-3.71 9.284Zm22.57 13.077c7.15 5.106 14.15 10.905 20.99 17.406l6.89-7.25c-7.16-6.799-14.51-12.9-22.06-18.294l-5.82 8.138Zm20.86 10.287-44.63 45.675 7.16 6.988 44.62-45.675-7.15-6.988Zm-37.51 45.633c-9.19-9.185-19.68-16.367-31.46-21.52l-4.01 9.162c10.62 4.647 20.08 11.115 28.4 19.43l7.07-7.072Zm-31.29-21.44c-11.49-5.564-23.44-8.374-35.77-8.374v10c10.76 0 21.22 2.44 31.42 7.376l4.35-9.002Zm-35.77-8.374c-13.55 0-24.4 2.084-31.35 7.3l6 8c4.24-3.184 12.29-5.3 25.35-5.3v-10Zm-31.35 7.3c-6.86 5.144-10.4 12.226-10.4 20.8h10c0-5.426 2.06-9.544 6.4-12.8l-6-8Zm-10.4 20.8c0 8.227 2.17 15.338 7.09 20.704l7.37-6.758c-2.79-3.034-4.46-7.473-4.46-13.946h-10Zm7.39 21.011c5.36 4.907 14.33 7.877 25.71 9.654l1.54-9.88c-11.02-1.723-17.44-4.353-20.49-7.146l-6.76 7.372Zm25.81 9.669 30.97 4.2 1.35-9.91-30.98-4.2-1.34 9.91Zm30.99 4.201c29.73 3.953 51.31 12.636 65.4 25.511 13.94 12.73 21.08 30.027 21.08 52.483h10c0-24.794-8-44.947-24.33-59.867-16.18-14.775-40.02-23.942-70.84-28.039l-1.31 9.912Zm86.48 77.994c0 12.573-2.64 24.051-7.87 34.514l8.94 4.472c5.97-11.937 8.93-24.959 8.93-38.986h-10Zm-7.87 34.514c-5.25 10.506-12.82 19.75-22.8 27.732l6.24 7.808c11.03-8.818 19.56-19.174 25.5-31.068l-8.94-4.472Zm-22.79 27.719c-9.58 7.6-21.43 13.64-35.64 18.041l2.95 9.552c15.19-4.699 28.19-11.259 38.91-19.759l-6.22-7.834Zm-35.68 18.051c-13.78 4.369-29.35 6.591-46.78 6.591v10c18.27 0 34.89-2.328 49.81-7.059l-3.03-9.532Z" fill="#FF6D7F"/>
  </g>
  <defs>
    <clipPath id="a">
      <path fill="#fff" d="M0 0h1920v1080H0z"/>
    </clipPath>
  </defs>
</svg>
