<svg width="1920" height="1080" fill="none" xmlns="http://www.w3.org/2000/svg"><mask id="a" style="mask-type:alpha" maskUnits="userSpaceOnUse" x="0" y="0" width="948" height="1080"><path fill="#C4C4C4" d="M0 0h948v1080H0z"/></mask><g mask="url(#a)"><path d="M54.32 153 91.472 52.2h12.816L141.296 153H128.48l-9.216-25.92H76.352L66.992 153H54.32Zm25.632-35.712h35.712L97.808 67.464l-17.856 49.824ZM155.561 153V49.32h12.096V153h-12.096Zm31.922 0V81.576h10.944l.864 10.368c2.304-3.84 5.376-6.816 9.216-8.928 3.84-2.112 8.16-3.168 12.96-3.168 5.664 0 10.512 1.152 14.544 3.456 4.128 2.304 7.296 5.808 9.504 10.512 2.496-4.32 5.904-7.728 10.224-10.224 4.416-2.496 9.168-3.744 14.256-3.744 8.544 0 15.36 2.592 20.448 7.776 5.088 5.088 7.632 12.96 7.632 23.616V153h-11.952v-40.464c0-7.392-1.488-12.96-4.464-16.704-2.976-3.744-7.248-5.616-12.816-5.616-5.76 0-10.56 2.256-14.4 6.768-3.744 4.416-5.616 10.752-5.616 19.008V153h-12.096v-40.464c0-7.392-1.488-12.96-4.464-16.704-2.976-3.744-7.248-5.616-12.816-5.616-5.664 0-10.416 2.256-14.256 6.768-3.744 4.416-5.616 10.752-5.616 19.008V153h-12.096Zm161.356 1.728c-6.72 0-12.768-1.536-18.144-4.608-5.376-3.072-9.648-7.392-12.816-12.96-3.072-5.664-4.608-12.288-4.608-19.872s1.584-14.16 4.752-19.728c3.168-5.664 7.44-10.032 12.816-13.104 5.472-3.072 11.568-4.608 18.288-4.608 6.72 0 12.768 1.536 18.144 4.608 5.376 3.072 9.6 7.44 12.672 13.104 3.168 5.568 4.752 12.144 4.752 19.728 0 7.584-1.584 14.208-4.752 19.872-3.168 5.568-7.488 9.888-12.96 12.96-5.376 3.072-11.424 4.608-18.144 4.608Zm0-10.368c4.128 0 7.968-1.008 11.52-3.024 3.552-2.016 6.432-5.04 8.64-9.072 2.208-4.032 3.312-9.024 3.312-14.976 0-5.952-1.104-10.944-3.312-14.976-2.112-4.032-4.944-7.056-8.496-9.072-3.552-2.016-7.344-3.024-11.376-3.024-4.128 0-7.968 1.008-11.52 3.024-3.552 2.016-6.432 5.04-8.64 9.072-2.208 4.032-3.312 9.024-3.312 14.976 0 5.952 1.104 10.944 3.312 14.976 2.208 4.032 5.04 7.056 8.496 9.072 3.552 2.016 7.344 3.024 11.376 3.024Zm80.035 10.368c-8.544 0-15.648-2.16-21.312-6.48-5.664-4.32-8.976-10.176-9.936-17.568h12.384c.768 3.744 2.736 7.008 5.904 9.792 3.264 2.688 7.632 4.032 13.104 4.032 5.088 0 8.832-1.056 11.232-3.168 2.4-2.208 3.6-4.8 3.6-7.776 0-4.32-1.584-7.2-4.752-8.64-3.072-1.44-7.44-2.736-13.104-3.888a74.268 74.268 0 0 1-11.52-3.312c-3.84-1.44-7.056-3.456-9.648-6.048-2.592-2.688-3.888-6.192-3.888-10.512 0-6.24 2.304-11.328 6.912-15.264 4.704-4.032 11.04-6.048 19.008-6.048 7.584 0 13.776 1.92 18.576 5.76 4.896 3.744 7.728 9.12 8.496 16.128h-11.952c-.48-3.648-2.064-6.48-4.752-8.496-2.592-2.112-6.096-3.168-10.512-3.168-4.32 0-7.68.912-10.08 2.736-2.304 1.824-3.456 4.224-3.456 7.2 0 2.88 1.488 5.136 4.464 6.768 3.072 1.632 7.2 3.024 12.384 4.176 4.416.96 8.592 2.16 12.528 3.6 4.032 1.344 7.296 3.408 9.792 6.192 2.592 2.688 3.888 6.624 3.888 11.808.096 6.432-2.352 11.76-7.344 15.984-4.896 4.128-11.568 6.192-20.016 6.192Zm69.63-1.728c-6.528 0-11.664-1.584-15.408-4.752-3.744-3.168-5.616-8.88-5.616-17.136V91.8h-12.384V81.576h12.384l1.584-17.136h10.512v17.136H510.6V91.8h-21.024v39.312c0 4.512.912 7.584 2.736 9.216 1.824 1.536 5.04 2.304 9.648 2.304h7.488V153h-10.944Zm103.733 1.728c-5.856 0-11.088-1.2-15.696-3.6-4.512-2.4-7.968-5.76-10.368-10.08L575.021 153h-10.944V49.32h12.096v44.064c2.304-3.456 5.568-6.576 9.792-9.36 4.32-2.784 9.792-4.176 16.416-4.176 7.104 0 13.296 1.632 18.576 4.896 5.28 3.264 9.36 7.728 12.24 13.392 2.976 5.664 4.464 12.096 4.464 19.296 0 7.2-1.488 13.632-4.464 19.296-2.88 5.568-7.008 9.984-12.384 13.248-5.28 3.168-11.472 4.752-18.576 4.752Zm-1.296-10.512c4.8 0 9.024-1.104 12.672-3.312 3.648-2.304 6.528-5.472 8.64-9.504 2.112-4.032 3.168-8.736 3.168-14.112 0-5.376-1.056-10.08-3.168-14.112s-4.992-7.152-8.64-9.36c-3.648-2.304-7.872-3.456-12.672-3.456-4.8 0-9.024 1.152-12.672 3.456-3.648 2.208-6.528 5.328-8.64 9.36-2.112 4.032-3.168 8.736-3.168 14.112 0 5.376 1.056 10.08 3.168 14.112s4.992 7.2 8.64 9.504c3.648 2.208 7.872 3.312 12.672 3.312Zm85.67 10.512c-6.816 0-12.864-1.536-18.144-4.608-5.28-3.168-9.456-7.536-12.528-13.104-2.976-5.568-4.464-12.144-4.464-19.728 0-7.488 1.488-14.016 4.464-19.584 2.976-5.664 7.104-10.032 12.384-13.104 5.376-3.168 11.568-4.752 18.575-4.752 6.913 0 12.865 1.584 17.857 4.752 5.088 3.072 8.976 7.152 11.664 12.24 2.688 5.088 4.032 10.56 4.032 16.416 0 1.056-.048 2.112-.144 3.168v3.6h-56.88c.288 5.472 1.536 10.032 3.744 13.68 2.304 3.552 5.136 6.24 8.496 8.064 3.456 1.824 7.104 2.736 10.944 2.736 4.992 0 9.168-1.152 12.528-3.456 3.36-2.304 5.808-5.424 7.344-9.36h11.952c-1.92 6.624-5.616 12.144-11.088 16.56-5.376 4.32-12.288 6.48-20.736 6.48Zm0-64.656c-5.76 0-10.896 1.776-15.408 5.328-4.416 3.456-6.96 8.544-7.633 15.264h44.929c-.288-6.432-2.496-11.472-6.624-15.12-4.128-3.648-9.216-5.472-15.264-5.472ZM740.371 153V91.8h-10.8V81.576h10.8V69.192c0-6.912 1.728-11.952 5.184-15.12 3.456-3.168 8.496-4.752 15.12-4.752h7.2v10.368h-5.328c-3.648 0-6.24.768-7.776 2.304-1.536 1.44-2.304 3.936-2.304 7.488v12.096h17.568V91.8h-17.568V153h-12.096Zm73.797 1.728c-6.72 0-12.768-1.536-18.144-4.608-5.376-3.072-9.648-7.392-12.816-12.96-3.072-5.664-4.608-12.288-4.608-19.872s1.584-14.16 4.752-19.728c3.168-5.664 7.44-10.032 12.816-13.104 5.472-3.072 11.568-4.608 18.288-4.608 6.72 0 12.768 1.536 18.144 4.608 5.376 3.072 9.6 7.44 12.672 13.104 3.168 5.568 4.752 12.144 4.752 19.728 0 7.584-1.584 14.208-4.752 19.872-3.168 5.568-7.488 9.888-12.96 12.96-5.376 3.072-11.424 4.608-18.144 4.608Zm0-10.368c4.128 0 7.968-1.008 11.52-3.024 3.552-2.016 6.432-5.04 8.64-9.072 2.208-4.032 3.312-9.024 3.312-14.976 0-5.952-1.104-10.944-3.312-14.976-2.112-4.032-4.944-7.056-8.496-9.072-3.552-2.016-7.344-3.024-11.376-3.024-4.128 0-7.968 1.008-11.52 3.024-3.552 2.016-6.432 5.04-8.64 9.072-2.208 4.032-3.312 9.024-3.312 14.976 0 5.952 1.104 10.944 3.312 14.976 2.208 4.032 5.04 7.056 8.496 9.072 3.552 2.016 7.344 3.024 11.376 3.024Zm52.674 8.64V81.576h10.944l1.008 13.68c2.208-4.704 5.568-8.448 10.08-11.232 4.512-2.784 10.08-4.176 16.704-4.176V92.52h-3.312c-4.224 0-8.112.768-11.664 2.304-3.552 1.44-6.384 3.936-8.496 7.488-2.112 3.552-3.168 8.448-3.168 14.688v36h-12.096Zm81.753 1.728c-6.816 0-12.864-1.536-18.144-4.608-5.28-3.168-9.456-7.536-12.528-13.104-2.976-5.568-4.464-12.144-4.464-19.728 0-7.488 1.488-14.016 4.464-19.584 2.976-5.664 7.104-10.032 12.384-13.104 5.376-3.168 11.568-4.752 18.576-4.752 6.912 0 12.864 1.584 17.856 4.752 5.088 3.072 8.976 7.152 11.664 12.24 2.688 5.088 4.032 10.56 4.032 16.416 0 1.056-.048 2.112-.144 3.168v3.6h-56.88c.288 5.472 1.536 10.032 3.744 13.68 2.304 3.552 5.136 6.24 8.496 8.064 3.456 1.824 7.104 2.736 10.944 2.736 4.992 0 9.168-1.152 12.528-3.456 3.36-2.304 5.808-5.424 7.344-9.36h11.952c-1.92 6.624-5.616 12.144-11.088 16.56-5.376 4.32-12.288 6.48-20.736 6.48Zm0-64.656c-5.76 0-10.896 1.776-15.408 5.328-4.416 3.456-6.96 8.544-7.632 15.264h44.928c-.288-6.432-2.496-11.472-6.624-15.12-4.128-3.648-9.216-5.472-15.264-5.472ZM47.984 445l55.008-100.8h12.816L134.96 445h-12.528l-4.752-25.92H74.768L60.944 445h-12.96Zm31.824-35.424h36.144l-9.216-50.976-26.928 50.976ZM149.225 445l18.432-103.68h12.096L161.321 445h-12.096Zm32.207 0 12.528-71.424h10.8l-1.008 11.664c2.784-4.128 6.24-7.392 10.368-9.792 4.128-2.4 8.592-3.6 13.392-3.6 5.28 0 9.84 1.2 13.68 3.6 3.84 2.4 6.48 6.048 7.92 10.944 3.072-4.512 6.96-8.064 11.664-10.656 4.8-2.592 9.696-3.888 14.688-3.888 5.28 0 9.792 1.152 13.536 3.456 3.84 2.208 6.576 5.664 8.208 10.368 1.728 4.608 1.92 10.464.576 17.568L290.44 445h-12.096l7.056-40.464c1.344-7.392.816-12.96-1.584-16.704-2.304-3.744-6.048-5.616-11.232-5.616-5.088 0-9.84 2.016-14.256 6.048-4.417 3.936-7.536 9.648-9.36 17.136l-7.056 39.6H229.96l7.056-40.464c1.248-7.392.672-12.96-1.728-16.704-2.304-3.744-6.048-5.616-11.232-5.616-5.28 0-10.272 2.256-14.976 6.768-4.608 4.416-7.632 10.752-9.072 19.008L193.528 445h-12.096Zm160.382 1.728c-5.952 0-11.232-1.344-15.84-4.032-4.608-2.688-8.208-6.384-10.8-11.088-2.592-4.704-3.888-10.032-3.888-15.984 0-6.336 1.104-12.144 3.312-17.424 2.208-5.28 5.232-9.888 9.072-13.824 3.84-3.936 8.304-7.008 13.392-9.216 5.088-2.208 10.608-3.312 16.56-3.312 5.952 0 11.232 1.296 15.84 3.888 4.608 2.592 8.208 6.192 10.8 10.8 2.592 4.608 3.888 9.936 3.888 15.984 0 6.24-1.104 12.048-3.312 17.424-2.112 5.376-5.136 10.08-9.072 14.112-3.84 3.936-8.304 7.056-13.392 9.36-5.088 2.208-10.608 3.312-16.56 3.312Zm1.584-10.368c5.376 0 10.176-1.44 14.4-4.32 4.32-2.88 7.728-6.816 10.224-11.808 2.496-4.992 3.744-10.608 3.744-16.848 0-6.72-1.968-11.904-5.904-15.552-3.84-3.744-8.448-5.616-13.824-5.616-5.28 0-10.032 1.44-14.256 4.32-4.224 2.88-7.584 6.816-10.08 11.808-2.496 4.992-3.744 10.608-3.744 16.848 0 4.512.864 8.352 2.592 11.52 1.824 3.072 4.224 5.472 7.2 7.2 2.976 1.632 6.192 2.448 9.648 2.448Zm78.303 10.368c-8.928 0-15.888-2.256-20.88-6.768-4.992-4.608-7.152-10.8-6.48-18.576h12.24c-.192 4.032 1.008 7.584 3.6 10.656 2.592 2.976 7.008 4.464 13.248 4.464 5.088 0 9.168-1.104 12.24-3.312 3.072-2.304 4.608-5.472 4.608-9.504 0-3.168-1.44-5.472-4.32-6.912-2.784-1.44-6.528-2.64-11.232-3.6a64.66 64.66 0 0 1-10.368-3.168c-3.36-1.44-6.192-3.408-8.496-5.904-2.208-2.496-3.312-5.664-3.312-9.504 0-4.32 1.248-8.16 3.744-11.52 2.496-3.456 5.904-6.192 10.224-8.208 4.416-2.016 9.408-3.024 14.976-3.024 7.584 0 13.632 1.92 18.144 5.76 4.608 3.744 6.72 9.12 6.336 16.128h-12.096c.192-3.552-.96-6.384-3.456-8.496-2.4-2.112-5.808-3.168-10.224-3.168s-8.064 1.056-10.944 3.168c-2.784 2.016-4.176 4.512-4.176 7.488 0 2.88 1.344 5.04 4.032 6.48 2.784 1.44 6.48 2.688 11.088 3.744 3.936.864 7.632 2.016 11.088 3.456 3.456 1.44 6.24 3.408 8.352 5.904 2.208 2.496 3.312 5.76 3.312 9.792 0 4.992-1.344 9.36-4.032 13.104-2.688 3.648-6.384 6.48-11.088 8.496-4.704 2.016-10.08 3.024-16.128 3.024ZM491.129 445c-5.952 0-10.56-1.152-13.824-3.456-3.264-2.4-4.896-6.432-4.896-12.096 0-.96.048-1.968.144-3.024.096-1.152.24-2.352.432-3.6l6.912-39.024h-11.088l1.872-10.224h11.088l4.608-17.136h10.656l-3.168 17.136h21.168l-1.872 10.224h-21.024l-7.056 39.024c-.192 1.536-.288 2.88-.288 4.032 0 2.976.768 5.04 2.304 6.192 1.632 1.056 4.224 1.584 7.776 1.584h9.36L502.361 445h-11.232Zm106.74 1.728c-3.936 0-7.536-.672-10.8-2.016-3.168-1.344-5.904-3.072-8.208-5.184-2.208-2.112-3.84-4.32-4.896-6.624L570.653 445h-10.944l18.288-103.68h12.096l-7.632 43.344c2.88-3.36 6.48-6.336 10.8-8.928 4.416-2.592 9.888-3.888 16.416-3.888 6.144 0 11.376 1.344 15.696 4.032 4.416 2.688 7.776 6.336 10.08 10.944 2.4 4.608 3.6 9.84 3.6 15.696 0 8.352-1.824 15.888-5.472 22.608-3.552 6.624-8.448 11.904-14.688 15.84-6.24 3.84-13.248 5.76-21.024 5.76Zm.576-10.512c5.472 0 10.32-1.392 14.544-4.176 4.224-2.784 7.536-6.576 9.936-11.376 2.4-4.8 3.6-10.272 3.6-16.416 0-6.336-1.824-11.568-5.472-15.696-3.552-4.128-8.4-6.192-14.544-6.192-5.472 0-10.368 1.44-14.688 4.32-4.32 2.88-7.728 6.816-10.224 11.808-2.4 4.896-3.6 10.368-3.6 16.416 0 6.432 1.824 11.616 5.472 15.552 3.744 3.84 8.736 5.76 14.976 5.76Zm82.245 10.512c-8.832 0-15.936-2.736-21.312-8.208-5.28-5.472-7.92-12.816-7.92-22.032 0-8.256 1.824-15.744 5.472-22.464 3.648-6.816 8.64-12.192 14.976-16.128 6.432-4.032 13.728-6.048 21.888-6.048 6.24 0 11.472 1.248 15.696 3.744 4.32 2.4 7.536 5.664 9.648 9.792 2.208 4.128 3.312 8.688 3.312 13.68 0 1.92-.24 4.128-.72 6.624a133.6 133.6 0 0 1-1.152 6.336h-57.024c-.192 1.632-.288 3.072-.288 4.32 0 6.816 1.92 11.904 5.76 15.264 3.84 3.264 8.352 4.896 13.536 4.896 4.992 0 9.36-1.152 13.104-3.456 3.84-2.4 6.816-5.52 8.928-9.36h11.952c-2.976 6.624-7.584 12.144-13.824 16.56-6.24 4.32-13.584 6.48-22.032 6.48Zm11.52-64.656c-5.76 0-11.184 1.776-16.272 5.328-5.088 3.456-8.592 8.544-10.512 15.264h44.928a9.695 9.695 0 0 0 .144-1.584 9.695 9.695 0 0 0 .144-1.584c0-5.472-1.68-9.744-5.04-12.816-3.36-3.072-7.824-4.608-13.392-4.608ZM734.597 445l10.8-61.2h-10.656l1.728-10.224h10.656l2.16-12.384c1.248-6.912 3.888-11.952 7.92-15.12 4.032-3.168 9.408-4.752 16.128-4.752h7.056l-1.872 10.368h-5.184c-3.648 0-6.384.768-8.208 2.304-1.824 1.44-3.072 3.936-3.744 7.488l-2.16 12.096h17.712l-1.872 10.224h-17.568l-10.8 61.2h-12.096Zm77.326 1.728c-5.952 0-11.232-1.344-15.84-4.032-4.608-2.688-8.208-6.384-10.8-11.088-2.592-4.704-3.888-10.032-3.888-15.984 0-6.336 1.104-12.144 3.312-17.424 2.208-5.28 5.232-9.888 9.072-13.824 3.84-3.936 8.304-7.008 13.392-9.216 5.088-2.208 10.608-3.312 16.56-3.312 5.952 0 11.232 1.296 15.84 3.888 4.608 2.592 8.208 6.192 10.8 10.8 2.592 4.608 3.888 9.936 3.888 15.984 0 6.24-1.104 12.048-3.312 17.424-2.112 5.376-5.136 10.08-9.072 14.112-3.84 3.936-8.304 7.056-13.392 9.36-5.088 2.208-10.608 3.312-16.56 3.312Zm1.584-10.368c5.376 0 10.176-1.44 14.4-4.32 4.32-2.88 7.728-6.816 10.224-11.808 2.496-4.992 3.744-10.608 3.744-16.848 0-6.72-1.968-11.904-5.904-15.552-3.84-3.744-8.448-5.616-13.824-5.616-5.28 0-10.032 1.44-14.256 4.32-4.224 2.88-7.584 6.816-10.08 11.808-2.496 4.992-3.744 10.608-3.744 16.848 0 4.512.864 8.352 2.592 11.52 1.824 3.072 4.224 5.472 7.2 7.2 2.976 1.632 6.192 2.448 9.648 2.448Zm50.8 8.64 12.528-71.424h11.088l-1.296 12.672c3.072-4.416 7.104-7.92 12.096-10.512 5.088-2.592 10.848-3.888 17.28-3.888l-2.16 12.672h-3.312c-4.32 0-8.4.672-12.24 2.016-3.744 1.344-6.96 3.648-9.648 6.912-2.688 3.168-4.512 7.536-5.472 13.104L876.403 445h-12.096Zm82.164 1.728c-8.832 0-15.936-2.736-21.312-8.208-5.28-5.472-7.92-12.816-7.92-22.032 0-8.256 1.824-15.744 5.472-22.464 3.648-6.816 8.64-12.192 14.976-16.128 6.432-4.032 13.728-6.048 21.888-6.048 6.24 0 11.472 1.248 15.696 3.744 4.32 2.4 7.536 5.664 9.648 9.792 2.208 4.128 3.312 8.688 3.312 13.68 0 1.92-.24 4.128-.72 6.624a133.6 133.6 0 0 1-1.152 6.336h-57.024c-.192 1.632-.288 3.072-.288 4.32 0 6.816 1.92 11.904 5.76 15.264 3.84 3.264 8.352 4.896 13.536 4.896 4.992 0 9.36-1.152 13.104-3.456 3.84-2.4 6.816-5.52 8.928-9.36h11.952c-2.976 6.624-7.584 12.144-13.824 16.56-6.24 4.32-13.584 6.48-22.032 6.48Zm11.52-64.656c-5.76 0-11.184 1.776-16.272 5.328-5.088 3.456-8.592 8.544-10.512 15.264h44.928a9.695 9.695 0 0 0 .144-1.584 9.695 9.695 0 0 0 .144-1.584c0-5.472-1.68-9.744-5.04-12.816-3.36-3.072-7.824-4.608-13.392-4.608ZM53.312 737l36.864-100.8h20.736L147.776 737h-19.584l-8.064-23.328H80.816L72.608 737H53.312Zm32.544-37.728h29.232L100.4 657.368l-14.544 41.904ZM160.329 737V633.32h18.432V737h-18.432Zm37.265 0v-71.424h16.272l1.584 9.648c2.304-3.456 5.328-6.192 9.072-8.208 3.84-2.112 8.256-3.168 13.248-3.168 11.04 0 18.864 4.272 23.472 12.816 2.592-3.936 6.048-7.056 10.368-9.36 4.416-2.304 9.216-3.456 14.4-3.456 9.312 0 16.464 2.784 21.456 8.352 4.992 5.568 7.488 13.728 7.488 24.48V737h-18.432v-38.592c0-6.144-1.2-10.848-3.6-14.112-2.304-3.264-5.904-4.896-10.8-4.896-4.992 0-9.024 1.824-12.096 5.472-2.976 3.648-4.464 8.736-4.464 15.264V737H247.13v-38.592c0-6.144-1.2-10.848-3.6-14.112-2.4-3.264-6.096-4.896-11.088-4.896-4.896 0-8.88 1.824-11.952 5.472-2.976 3.648-4.464 8.736-4.464 15.264V737h-18.432Zm169.132 1.728c-6.912 0-13.152-1.584-18.72-4.752-5.472-3.168-9.84-7.536-13.104-13.104-3.168-5.664-4.752-12.192-4.752-19.584 0-7.392 1.632-13.872 4.896-19.44 3.264-5.664 7.632-10.08 13.104-13.248 5.568-3.168 11.808-4.752 18.72-4.752 6.816 0 12.96 1.584 18.432 4.752 5.568 3.168 9.936 7.584 13.104 13.248 3.264 5.568 4.896 12.048 4.896 19.44 0 7.392-1.632 13.92-4.896 19.584-3.168 5.568-7.536 9.936-13.104 13.104-5.568 3.168-11.76 4.752-18.576 4.752Zm0-15.984c4.8 0 8.976-1.776 12.528-5.328 3.552-3.648 5.328-9.024 5.328-16.128 0-7.104-1.776-12.432-5.328-15.984-3.552-3.648-7.68-5.472-12.384-5.472-4.896 0-9.12 1.824-12.672 5.472-3.456 3.552-5.184 8.88-5.184 15.984 0 7.104 1.728 12.48 5.184 16.128 3.552 3.552 7.728 5.328 12.528 5.328Zm82.576 15.984c-6.336 0-11.904-1.008-16.704-3.024-4.8-2.112-8.64-4.992-11.52-8.64-2.88-3.648-4.608-7.872-5.184-12.672h18.576c.576 2.784 2.112 5.184 4.608 7.2 2.592 1.92 5.904 2.88 9.936 2.88s6.96-.816 8.784-2.448c1.92-1.632 2.88-3.504 2.88-5.616 0-3.072-1.344-5.136-4.032-6.192-2.688-1.152-6.432-2.256-11.232-3.312a122.702 122.702 0 0 1-9.36-2.448c-3.168-.96-6.096-2.16-8.784-3.6-2.592-1.536-4.704-3.456-6.336-5.76-1.632-2.4-2.448-5.328-2.448-8.784 0-6.336 2.496-11.664 7.488-15.984 5.088-4.32 12.192-6.48 21.312-6.48 8.448 0 15.168 1.968 20.16 5.904 5.088 3.936 8.112 9.36 9.072 16.272h-17.424c-1.056-5.28-5.04-7.92-11.952-7.92-3.456 0-6.144.672-8.064 2.016-1.824 1.344-2.736 3.024-2.736 5.04 0 2.112 1.392 3.792 4.176 5.04 2.784 1.248 6.48 2.4 11.088 3.456 4.992 1.152 9.552 2.448 13.68 3.888 4.224 1.344 7.584 3.408 10.08 6.192 2.496 2.688 3.744 6.576 3.744 11.664.096 4.416-1.056 8.4-3.456 11.952-2.4 3.552-5.856 6.336-10.368 8.352-4.512 2.016-9.84 3.024-15.984 3.024Zm75.71-1.728c-7.488 0-13.488-1.824-18-5.472-4.512-3.648-6.768-10.128-6.768-19.44v-31.104h-12.24v-15.408h12.24l2.16-19.152h16.272v19.152h19.296v15.408h-19.296v31.248c0 3.456.72 5.856 2.16 7.2 1.536 1.248 4.128 1.872 7.776 1.872h8.928V737h-12.528Zm105.434 1.728c-5.376 0-10.08-1.008-14.112-3.024s-7.296-4.848-9.792-8.496L604.526 737H588.11V633.32h18.432v42.48c2.304-3.168 5.328-5.952 9.072-8.352 3.84-2.4 8.784-3.6 14.832-3.6 6.72 0 12.72 1.632 18 4.896 5.28 3.264 9.456 7.728 12.528 13.392 3.072 5.664 4.608 12.096 4.608 19.296 0 7.2-1.536 13.632-4.608 19.296-3.072 5.568-7.248 9.984-12.528 13.248-5.28 3.168-11.28 4.752-18 4.752Zm-3.888-16.128c5.856 0 10.704-1.968 14.544-5.904s5.76-9.024 5.76-15.264-1.92-11.376-5.76-15.408-8.688-6.048-14.544-6.048c-5.952 0-10.848 2.016-14.688 6.048-3.744 3.936-5.616 9.024-5.616 15.264s1.872 11.376 5.616 15.408c3.84 3.936 8.736 5.904 14.688 5.904Zm90.194 16.128c-7.2 0-13.584-1.536-19.152-4.608-5.568-3.072-9.936-7.392-13.104-12.96-3.168-5.568-4.752-12-4.752-19.296 0-7.392 1.536-13.968 4.608-19.728 3.168-5.76 7.488-10.224 12.96-13.392 5.568-3.264 12.096-4.896 19.584-4.896 7.008 0 13.2 1.536 18.576 4.608 5.376 3.072 9.552 7.296 12.528 12.672 3.072 5.28 4.608 11.184 4.608 17.712 0 1.056-.048 2.16-.144 3.312 0 1.152-.048 2.352-.144 3.6h-54.288c.384 5.568 2.304 9.936 5.76 13.104 3.552 3.168 7.824 4.752 12.816 4.752 3.744 0 6.864-.816 9.36-2.448 2.592-1.728 4.512-3.936 5.76-6.624h18.72c-1.344 4.512-3.6 8.64-6.768 12.384-3.072 3.648-6.912 6.528-11.52 8.64-4.512 2.112-9.648 3.168-15.408 3.168Zm.144-59.904c-4.512 0-8.496 1.296-11.952 3.888-3.456 2.496-5.664 6.336-6.624 11.52h35.568c-.288-4.704-2.016-8.448-5.184-11.232-3.168-2.784-7.104-4.176-11.808-4.176ZM771.422 737v-56.016h-9.792v-15.408h9.792v-8.352c0-8.64 2.16-14.784 6.48-18.432 4.416-3.648 10.368-5.472 17.856-5.472h7.92v15.696h-5.04c-3.168 0-5.424.624-6.768 1.872-1.344 1.248-2.016 3.36-2.016 6.336v8.352h15.408v15.408h-15.408V737h-18.432Zm79.898 1.728c-6.912 0-13.152-1.584-18.72-4.752-5.472-3.168-9.84-7.536-13.104-13.104-3.168-5.664-4.752-12.192-4.752-19.584 0-7.392 1.632-13.872 4.896-19.44 3.264-5.664 7.632-10.08 13.104-13.248 5.568-3.168 11.808-4.752 18.72-4.752 6.816 0 12.96 1.584 18.432 4.752 5.568 3.168 9.936 7.584 13.104 13.248 3.264 5.568 4.896 12.048 4.896 19.44 0 7.392-1.632 13.92-4.896 19.584-3.168 5.568-7.536 9.936-13.104 13.104-5.568 3.168-11.76 4.752-18.576 4.752Zm0-15.984c4.8 0 8.976-1.776 12.528-5.328 3.552-3.648 5.328-9.024 5.328-16.128 0-7.104-1.776-12.432-5.328-15.984-3.552-3.648-7.68-5.472-12.384-5.472-4.896 0-9.12 1.824-12.672 5.472-3.456 3.552-5.184 8.88-5.184 15.984 0 7.104 1.728 12.48 5.184 16.128 3.552 3.552 7.728 5.328 12.528 5.328ZM904.376 737v-71.424h16.416l1.728 13.392c2.592-4.608 6.096-8.256 10.512-10.944 4.512-2.784 9.792-4.176 15.84-4.176v19.44h-5.184c-4.032 0-7.632.624-10.8 1.872-3.168 1.248-5.664 3.408-7.488 6.48-1.728 3.072-2.592 7.344-2.592 12.816V737h-18.432Zm90.532 1.728c-7.2 0-13.584-1.536-19.152-4.608-5.568-3.072-9.936-7.392-13.104-12.96-3.168-5.568-4.752-12-4.752-19.296 0-7.392 1.536-13.968 4.608-19.728 3.168-5.76 7.488-10.224 12.96-13.392 5.568-3.264 12.096-4.896 19.584-4.896 7.008 0 13.198 1.536 18.578 4.608 5.37 3.072 9.55 7.296 12.53 12.672 3.07 5.28 4.6 11.184 4.6 17.712 0 1.056-.04 2.16-.14 3.312 0 1.152-.05 2.352-.14 3.6h-54.292c.384 5.568 2.304 9.936 5.76 13.104 3.552 3.168 7.824 4.752 12.816 4.752 3.744 0 6.866-.816 9.356-2.448 2.6-1.728 4.52-3.936 5.76-6.624h18.72c-1.34 4.512-3.6 8.64-6.76 12.384-3.08 3.648-6.92 6.528-11.52 8.64-4.52 2.112-9.65 3.168-15.412 3.168Zm.144-59.904c-4.512 0-8.496 1.296-11.952 3.888-3.456 2.496-5.664 6.336-6.624 11.52h35.564c-.28-4.704-2.01-8.448-5.18-11.232-3.17-2.784-7.104-4.176-11.808-4.176ZM46.976 1029l54.576-100.8h20.88L141.44 1029H122l-4.032-23.33H78.656L66.416 1029h-19.44ZM86 991.56h29.664l-7.344-42.624L86 991.56Zm67.993 37.44 18.432-103.68h18.432L172.425 1029h-18.432Zm37.55 0 12.528-71.424h16.272l-.144 10.08c2.784-3.648 6.096-6.528 9.936-8.64 3.84-2.112 8.208-3.168 13.104-3.168 5.28 0 9.792 1.104 13.536 3.312 3.744 2.208 6.48 5.472 8.208 9.792 3.168-4.032 7.008-7.2 11.52-9.504 4.512-2.4 9.312-3.6 14.4-3.6 8.928 0 15.6 2.784 20.016 8.352 4.416 5.568 5.664 13.728 3.744 24.48l-7.2 40.32h-18.288l6.768-38.592c1.056-6.144.576-10.848-1.44-14.112-2.016-3.264-5.328-4.896-9.936-4.896-4.32 0-8.208 1.632-11.664 4.896-3.456 3.168-5.856 7.728-7.2 13.68L258.791 1029h-18.432l6.768-38.592c1.152-6.144.72-10.848-1.296-14.112-1.92-3.264-5.232-4.896-9.936-4.896-4.608 0-8.688 1.824-12.24 5.472-3.552 3.648-5.952 8.736-7.2 15.264l-6.48 36.864h-18.432Zm168.298 1.73c-6.24 0-11.712-1.39-16.416-4.18-4.704-2.78-8.4-6.53-11.088-11.23-2.592-4.8-3.888-10.27-3.888-16.416 0-6.048 1.056-11.664 3.168-16.848 2.208-5.28 5.232-9.888 9.072-13.824a41.057 41.057 0 0 1 13.68-9.072c5.184-2.208 10.752-3.312 16.704-3.312 6.336 0 11.856 1.344 16.56 4.032 4.8 2.688 8.544 6.384 11.232 11.088 2.688 4.704 4.032 10.176 4.032 16.416 0 6.144-1.104 11.856-3.312 17.136-2.208 5.18-5.28 9.74-9.216 13.68-3.84 3.94-8.4 7.01-13.68 9.22-5.184 2.2-10.8 3.31-16.848 3.31Zm2.448-15.99c4.128 0 7.824-1.15 11.088-3.45 3.264-2.31 5.856-5.43 7.776-9.36 1.92-4.034 2.88-8.546 2.88-13.538 0-5.28-1.488-9.36-4.464-12.24-2.88-2.88-6.384-4.32-10.512-4.32-4.032 0-7.728 1.152-11.088 3.456-3.264 2.304-5.856 5.472-7.776 9.504-1.92 3.936-2.88 8.4-2.88 13.392 0 5.276 1.44 9.356 4.32 12.236 2.976 2.88 6.528 4.32 10.656 4.32Zm80.269 15.99c-6.528 0-12.096-1.11-16.704-3.31-4.512-2.21-7.92-5.24-10.224-9.08-2.304-3.84-3.264-8.2-2.88-13.1h18.432c-.096 3.36 1.008 6.1 3.312 8.21 2.304 2.11 5.76 3.17 10.368 3.17 4.032 0 7.152-.87 9.36-2.6 2.304-1.72 3.456-3.93 3.456-6.62 0-2.4-1.2-4.13-3.6-5.18-2.4-1.16-5.472-2.16-9.216-3.028a80.67 80.67 0 0 1-11.52-3.744c-3.744-1.536-6.864-3.552-9.36-6.048-2.4-2.496-3.6-5.712-3.6-9.648 0-4.608 1.344-8.688 4.032-12.24 2.784-3.648 6.576-6.48 11.376-8.496 4.8-2.112 10.32-3.168 16.56-3.168 8.448 0 15.12 2.016 20.016 6.048 4.896 4.032 7.248 9.504 7.056 16.416H461.71c-.096-2.496-1.2-4.512-3.312-6.048-2.016-1.536-4.704-2.304-8.064-2.304-3.456 0-6.288.768-8.496 2.304-2.112 1.44-3.168 3.264-3.168 5.472 0 2.112 1.248 3.744 3.744 4.896 2.592 1.056 5.952 2.064 10.08 3.024 4.512 1.056 8.544 2.352 12.096 3.888 3.648 1.536 6.528 3.552 8.64 6.048 2.208 2.4 3.312 5.568 3.312 9.508 0 5.18-1.488 9.69-4.464 13.53-2.976 3.84-7.056 6.82-12.24 8.93-5.088 2.11-10.848 3.17-17.28 3.17Zm75.107-1.73c-6.528 0-11.76-1.34-15.696-4.03-3.84-2.69-5.76-7.35-5.76-13.97 0-2.11.24-4.46.72-7.06l5.472-30.956h-11.52l2.736-15.408h11.52l5.472-19.152h16.416l-3.456 19.152h19.44l-2.88 15.408h-19.152l-5.616 31.106c-.192.96-.288 1.92-.288 2.88 0 2.3.624 3.93 1.872 4.89 1.344.96 3.504 1.44 6.48 1.44h9.792l-2.88 15.7h-12.672Zm107.989 1.73c-5.28 0-9.84-1.11-13.68-3.31-3.744-2.31-6.528-5.04-8.352-8.21l-3.744 9.79h-16.416l18.288-103.68h18.432l-7.2 41.328c2.688-2.976 6.048-5.52 10.08-7.632 4.128-2.112 9.072-3.168 14.832-3.168 5.856 0 10.944 1.344 15.263 4.032 4.321 2.688 7.681 6.384 10.081 11.088 2.496 4.608 3.744 9.84 3.744 15.696 0 6.144-1.056 11.904-3.168 17.276-2.112 5.28-5.04 9.94-8.784 13.97a41.52 41.52 0 0 1-13.104 9.51c-4.992 2.2-10.416 3.31-16.272 3.31Zm-1.008-16.13c4.416 0 8.352-1.06 11.808-3.17 3.552-2.21 6.336-5.18 8.352-8.93 2.016-3.74 3.024-7.964 3.024-12.668 0-5.088-1.536-9.312-4.608-12.672-3.072-3.456-7.248-5.184-12.528-5.184-4.416 0-8.4 1.104-11.952 3.312-3.456 2.208-6.192 5.232-8.208 9.072-2.016 3.84-3.024 8.16-3.024 12.96 0 4.99 1.536 9.12 4.608 12.38 3.168 3.27 7.344 4.9 12.528 4.9Zm85.903 16.13c-9.504 0-17.088-2.74-22.752-8.21-5.568-5.47-8.352-12.86-8.352-22.18 0-6.044 1.056-11.756 3.168-17.132 2.112-5.376 5.136-10.08 9.072-14.112 3.936-4.128 8.592-7.344 13.968-9.648 5.472-2.4 11.472-3.6 18-3.6 6.336 0 11.76 1.248 16.272 3.744 4.512 2.4 7.968 5.76 10.368 10.08 2.496 4.224 3.744 9.072 3.744 14.544 0 2.304-.24 4.704-.72 7.2-.384 2.4-.864 4.512-1.44 6.336h-54.288v2.448c0 4.8 1.44 8.59 4.32 11.38 2.88 2.68 6.624 4.03 11.232 4.03 3.648 0 6.864-.82 9.648-2.45 2.88-1.73 5.232-3.94 7.056-6.62h18.72c-2.208 4.6-5.232 8.73-9.072 12.38-3.744 3.65-8.112 6.53-13.104 8.64-4.896 2.11-10.176 3.17-15.84 3.17Zm10.656-59.906c-4.416 0-8.592 1.296-12.528 3.888-3.936 2.496-6.816 6.336-8.64 11.52h35.568c.096-.768.144-1.296.144-1.584.096-4.224-1.2-7.584-3.888-10.08-2.688-2.496-6.24-3.744-10.656-3.744ZM765.371 1029l9.792-56.016h-9.792l2.736-15.408h9.792l1.44-8.352c1.536-8.64 4.8-14.784 9.792-18.432 5.088-3.648 11.424-5.472 19.008-5.472h7.776l-2.88 15.696h-4.896c-3.168 0-5.568.624-7.2 1.872-1.536 1.248-2.592 3.36-3.168 6.336l-1.44 8.352h15.408l-2.736 15.408h-15.408L783.803 1029h-18.432Zm83.423 1.73c-6.24 0-11.712-1.39-16.416-4.18-4.704-2.78-8.4-6.53-11.088-11.23-2.592-4.8-3.888-10.27-3.888-16.416 0-6.048 1.056-11.664 3.168-16.848 2.208-5.28 5.232-9.888 9.072-13.824a41.057 41.057 0 0 1 13.68-9.072c5.184-2.208 10.752-3.312 16.704-3.312 6.336 0 11.856 1.344 16.56 4.032 4.8 2.688 8.544 6.384 11.232 11.088 2.688 4.704 4.032 10.176 4.032 16.416 0 6.144-1.104 11.856-3.312 17.136-2.208 5.18-5.28 9.74-9.216 13.68-3.84 3.94-8.4 7.01-13.68 9.22-5.184 2.2-10.8 3.31-16.848 3.31Zm2.448-15.99c4.128 0 7.824-1.15 11.088-3.45 3.264-2.31 5.856-5.43 7.776-9.36 1.92-4.034 2.88-8.546 2.88-13.538 0-5.28-1.488-9.36-4.464-12.24-2.88-2.88-6.384-4.32-10.512-4.32-4.032 0-7.728 1.152-11.088 3.456-3.264 2.304-5.856 5.472-7.776 9.504-1.92 3.936-2.88 8.4-2.88 13.392 0 5.276 1.44 9.356 4.32 12.236 2.976 2.88 6.528 4.32 10.656 4.32Zm50.317 14.26 12.528-71.424h16.56l-.576 12.96c3.36-4.416 7.488-7.968 12.384-10.656 4.992-2.688 10.512-4.032 16.56-4.032l-3.456 19.44h-5.04c-6.144 0-11.424 1.44-15.84 4.32-4.416 2.784-7.296 7.968-8.64 15.552l-6.048 33.84h-18.432Zm91.084 1.73c-9.504 0-17.088-2.74-22.752-8.21-5.568-5.47-8.352-12.86-8.352-22.18 0-6.044 1.056-11.756 3.168-17.132 2.112-5.376 5.136-10.08 9.072-14.112 3.936-4.128 8.592-7.344 13.968-9.648 5.472-2.4 11.472-3.6 18.003-3.6 6.33 0 11.76 1.248 16.27 3.744 4.51 2.4 7.97 5.76 10.37 10.08 2.49 4.224 3.74 9.072 3.74 14.544 0 2.304-.24 4.704-.72 7.2-.38 2.4-.86 4.512-1.44 6.336h-54.287v2.448c0 4.8 1.44 8.59 4.32 11.38 2.88 2.68 6.624 4.03 11.232 4.03 3.648 0 6.865-.82 9.645-2.45 2.88-1.73 5.24-3.94 7.06-6.62h18.72c-2.21 4.6-5.23 8.73-9.07 12.38-3.75 3.65-8.11 6.53-13.11 8.64-4.89 2.11-10.173 3.17-15.837 3.17Zm10.657-59.906c-4.417 0-8.593 1.296-12.529 3.888-3.936 2.496-6.816 6.336-8.64 11.52h35.569c.1-.768.14-1.296.14-1.584.1-4.224-1.2-7.584-3.88-10.08-2.69-2.496-6.24-3.744-10.66-3.744Z" fill="#D2E3FC"/></g><path d="M1076.41 274v-47.256h15.97c5.02 0 9.33 1.012 12.94 3.036 3.65 1.98 6.45 4.752 8.38 8.316 1.98 3.52 2.97 7.612 2.97 12.276s-.99 8.778-2.97 12.342c-1.93 3.564-4.73 6.336-8.38 8.316-3.61 1.98-7.92 2.97-12.94 2.97h-15.97Zm8.91-8.448h6.67c5.23 0 9.15-1.386 11.75-4.158 2.64-2.772 3.96-6.446 3.96-11.022 0-4.576-1.32-8.25-3.96-11.022-2.6-2.772-6.52-4.158-11.75-4.158h-6.67v30.36Zm39.82 8.448v-47.256h11.48l12.54 33.198h.53l12.54-33.198h11.55V274h-8.84v-23.298l.52-7.854h-.52L1152.92 274h-6.93l-12.07-31.152h-.53l.53 7.854V274h-8.78Zm87.22 1.056c-4.05 0-7.68-1.144-10.89-3.432-3.22-2.288-5.46-5.61-6.74-9.966l8.39-3.3c.61 2.332 1.69 4.29 3.23 5.874 1.54 1.584 3.56 2.376 6.07 2.376 1.85 0 3.5-.462 4.95-1.386 1.5-.968 2.25-2.376 2.25-4.224 0-1.76-.69-3.212-2.05-4.356-1.32-1.144-3.7-2.332-7.13-3.564l-2.9-1.056c-1.67-.616-3.37-1.474-5.08-2.574a15.215 15.215 0 0 1-4.29-4.29c-1.1-1.76-1.65-3.828-1.65-6.204 0-2.464.63-4.686 1.91-6.666 1.28-2.024 3.06-3.63 5.35-4.818 2.28-1.188 4.95-1.782 7.98-1.782 3.17 0 5.79.55 7.86 1.65 2.06 1.056 3.67 2.354 4.81 3.894 1.19 1.54 2.03 3.036 2.51 4.488l-7.85 3.3c-.44-1.32-1.26-2.508-2.44-3.564-1.15-1.056-2.73-1.584-4.76-1.584-1.89 0-3.47.462-4.75 1.386-1.27.88-1.91 2.046-1.91 3.498 0 1.408.59 2.618 1.78 3.63 1.23 1.012 3.19 1.958 5.87 2.838l2.97.99c2.25.748 4.32 1.716 6.21 2.904a13.619 13.619 0 0 1 4.68 4.554c1.19 1.892 1.79 4.29 1.79 7.194 0 2.42-.49 4.532-1.46 6.336-.96 1.804-2.24 3.278-3.82 4.422a17.467 17.467 0 0 1-5.28 2.574c-1.9.572-3.77.858-5.61.858Zm33.71 0c-2.37 0-4.49-.462-6.33-1.386-1.81-.968-3.24-2.31-4.29-4.026-1.06-1.716-1.59-3.696-1.59-5.94 0-2.332.6-4.334 1.78-6.006 1.24-1.672 2.86-2.97 4.89-3.894 2.07-.924 4.35-1.386 6.86-1.386 2.07 0 3.85.176 5.35.528 1.49.308 2.68.638 3.56.99v-1.452c0-1.804-.68-3.278-2.04-4.422-1.37-1.188-3.24-1.782-5.61-1.782-1.59 0-3.13.374-4.62 1.122-1.46.704-2.67 1.65-3.63 2.838l-5.55-4.356c1.63-2.112 3.68-3.74 6.14-4.884 2.46-1.144 5.15-1.716 8.05-1.716 5.15 0 9.07 1.188 11.75 3.564 2.68 2.376 4.03 5.852 4.03 10.428V274h-8.52v-3.432h-.53c-.92 1.232-2.2 2.288-3.82 3.168-1.59.88-3.55 1.32-5.88 1.32Zm2.05-6.732c1.76 0 3.23-.374 4.42-1.122 1.23-.792 2.16-1.804 2.77-3.036.66-1.232.99-2.53.99-3.894-.97-.484-2.07-.858-3.3-1.122a15.4 15.4 0 0 0-3.76-.462c-2.55 0-4.31.484-5.28 1.452-.97.968-1.45 2.156-1.45 3.564 0 1.32.46 2.42 1.38 3.3.97.88 2.38 1.32 4.23 1.32Zm24.65 5.676v-33.66h8.12v4.224h.53c1.01-1.628 2.44-2.904 4.29-3.828 1.85-.968 3.85-1.452 6-1.452 4.14 0 7.24 1.254 9.31 3.762 2.07 2.508 3.1 5.852 3.1 10.032V274h-8.64v-19.866c0-2.2-.58-3.872-1.72-5.016-1.1-1.188-2.62-1.782-4.55-1.782-2.42 0-4.34.924-5.75 2.772-1.36 1.848-2.04 4.092-2.04 6.732V274h-8.65Zm51.99 1.056c-2.9 0-5.39-.418-7.45-1.254-2.03-.836-3.68-1.936-4.95-3.3-1.28-1.364-2.23-2.86-2.84-4.488l7.72-3.366c1.45 3.212 3.96 4.818 7.52 4.818 1.41 0 2.69-.22 3.83-.66 1.15-.484 1.72-1.342 1.72-2.574 0-.88-.31-1.562-.93-2.046-.57-.528-1.29-.924-2.17-1.188-.88-.308-1.79-.55-2.71-.726l-3.96-.858a14.92 14.92 0 0 1-4.62-1.848c-1.45-.924-2.64-2.068-3.56-3.432-.88-1.408-1.32-3.014-1.32-4.818 0-2.024.57-3.784 1.71-5.28 1.19-1.496 2.77-2.662 4.75-3.498 2.03-.836 4.25-1.254 6.67-1.254 3.34 0 6.2.594 8.58 1.782 2.38 1.188 4.16 3.036 5.35 5.544l-7.4 3.234c-.7-1.32-1.62-2.244-2.77-2.772a8.13 8.13 0 0 0-3.56-.792c-1.5 0-2.69.286-3.57.858-.88.572-1.32 1.254-1.32 2.046 0 .836.44 1.562 1.32 2.178.88.616 1.94 1.078 3.17 1.386l4.95 1.188c3.35.792 5.85 2.068 7.53 3.828 1.71 1.76 2.57 3.872 2.57 6.336 0 2.2-.64 4.136-1.91 5.808-1.28 1.628-3 2.904-5.15 3.828-2.16.88-4.56 1.32-7.2 1.32Z" fill="#1A73E8"/><path d="M1076.28 459v-47.256h15.97c2.64 0 5.06.594 7.26 1.782 2.25 1.188 4.03 2.838 5.35 4.95 1.36 2.068 2.04 4.488 2.04 7.26 0 2.244-.5 4.312-1.51 6.204a14.473 14.473 0 0 1-4.1 4.686 14.411 14.411 0 0 1-5.74 2.574l-.13.198 13.33 19.338V459h-6.6l-12.87-19.272h-7.39V459h-5.61Zm5.61-24.486h10.03c1.63 0 3.15-.374 4.56-1.122a9.367 9.367 0 0 0 3.43-3.102c.88-1.32 1.32-2.838 1.32-4.554 0-1.408-.38-2.772-1.12-4.092-.71-1.32-1.72-2.398-3.04-3.234-1.32-.88-2.9-1.32-4.75-1.32h-10.43v17.424Zm46.28 25.542c-3.26 0-6.16-.77-8.71-2.31-2.51-1.54-4.49-3.652-5.94-6.336-1.41-2.684-2.12-5.742-2.12-9.174 0-3.212.66-6.182 1.98-8.91 1.37-2.728 3.26-4.906 5.68-6.534 2.46-1.672 5.35-2.508 8.65-2.508 3.34 0 6.2.748 8.58 2.244 2.42 1.452 4.26 3.476 5.54 6.072 1.32 2.596 1.98 5.566 1.98 8.91 0 .308-.02.616-.07.924 0 .308-.02.572-.06.792h-26.67c.18 2.64.82 4.84 1.92 6.6 1.14 1.716 2.55 3.014 4.22 3.894 1.67.836 3.41 1.254 5.22 1.254 2.46 0 4.48-.572 6.07-1.716a13.629 13.629 0 0 0 3.89-4.356l4.75 2.31c-1.32 2.552-3.21 4.664-5.67 6.336-2.47 1.672-5.55 2.508-9.24 2.508Zm-.46-30.69c-2.73 0-5 .858-6.8 2.574-1.81 1.716-2.99 3.938-3.57 6.666h20.53c-.04-1.276-.42-2.618-1.12-4.026-.66-1.452-1.72-2.684-3.17-3.696s-3.41-1.518-5.87-1.518Zm37.77 44.946c-2.86 0-5.32-.484-7.39-1.452-2.02-.924-3.67-2.112-4.95-3.564-1.23-1.452-2.11-2.926-2.64-4.422l5.15-2.178c.7 1.848 1.89 3.388 3.56 4.62 1.72 1.276 3.81 1.914 6.27 1.914 3.52 0 6.23-1.034 8.12-3.102 1.89-2.024 2.84-4.862 2.84-8.514v-3.762h-.27c-1.05 1.628-2.57 3.014-4.55 4.158-1.98 1.1-4.29 1.65-6.93 1.65-2.9 0-5.57-.748-7.99-2.244-2.37-1.496-4.26-3.564-5.67-6.204-1.41-2.684-2.11-5.764-2.11-9.24s.7-6.534 2.11-9.174c1.41-2.684 3.3-4.774 5.67-6.27 2.42-1.496 5.09-2.244 7.99-2.244 2.64 0 4.95.572 6.93 1.716 1.98 1.1 3.5 2.486 4.55 4.158h.27v-4.818h5.34v32.34c0 3.74-.72 6.842-2.17 9.306-1.41 2.464-3.35 4.29-5.81 5.478-2.42 1.232-5.19 1.848-8.32 1.848Zm0-19.734c1.98 0 3.81-.484 5.48-1.452 1.67-1.012 2.99-2.464 3.96-4.356 1.01-1.892 1.52-4.158 1.52-6.798 0-2.728-.51-5.016-1.52-6.864-.97-1.892-2.29-3.322-3.96-4.29s-3.5-1.452-5.48-1.452c-1.98 0-3.8.506-5.48 1.518-1.67.968-3.01 2.398-4.02 4.29-1.01 1.848-1.52 4.114-1.52 6.798s.51 4.972 1.52 6.864c1.01 1.848 2.35 3.278 4.02 4.29 1.68.968 3.5 1.452 5.48 1.452Zm36.49 5.478c-4.14 0-7.26-1.21-9.38-3.63-2.06-2.42-3.1-5.72-3.1-9.9V425.34h5.61v20.328c0 3.344.77 5.742 2.31 7.194 1.54 1.408 3.46 2.112 5.74 2.112 1.98 0 3.7-.506 5.15-1.518a10.686 10.686 0 0 0 3.37-4.026c.79-1.628 1.19-3.322 1.19-5.082V425.34h5.61V459h-5.35v-4.884h-.26c-.88 1.584-2.34 2.97-4.36 4.158-1.98 1.188-4.16 1.782-6.53 1.782Zm24.78-1.056v-47.256h5.61V459h-5.61Zm24.36 1.056c-2.51 0-4.71-.484-6.6-1.452-1.89-.968-3.39-2.288-4.49-3.96-1.05-1.716-1.58-3.652-1.58-5.808 0-2.464.64-4.532 1.91-6.204 1.28-1.716 2.99-2.992 5.15-3.828 2.16-.88 4.53-1.32 7.13-1.32 2.24 0 4.22.242 5.94.726 1.71.484 2.95.968 3.69 1.452v-2.046c0-2.552-.9-4.576-2.7-6.072-1.81-1.496-4.01-2.244-6.6-2.244-1.85 0-3.59.418-5.22 1.254-1.58.792-2.83 1.914-3.76 3.366l-4.22-3.168c1.32-1.98 3.12-3.542 5.41-4.686 2.33-1.188 4.93-1.782 7.79-1.782 4.57 0 8.16 1.21 10.76 3.63 2.59 2.42 3.89 5.676 3.89 9.768V459h-5.35v-4.818h-.26c-.88 1.496-2.27 2.86-4.16 4.092-1.89 1.188-4.13 1.782-6.73 1.782Zm.53-4.95c1.93 0 3.69-.484 5.28-1.452a10.994 10.994 0 0 0 3.89-3.894c.97-1.628 1.45-3.41 1.45-5.346-1.01-.704-2.28-1.276-3.82-1.716-1.5-.44-3.15-.66-4.95-.66-3.22 0-5.57.66-7.07 1.98-1.49 1.32-2.24 2.948-2.24 4.884 0 1.848.7 3.344 2.11 4.488 1.41 1.144 3.19 1.716 5.35 1.716Zm23.77 3.894v-33.66h5.35v5.412h.26a7.912 7.912 0 0 1 2.18-3.3 11.697 11.697 0 0 1 3.57-2.244c1.36-.572 2.7-.858 4.02-.858 1.01 0 1.81.066 2.38.198.57.088 1.1.242 1.58.462v6.072c-1.41-.704-2.99-1.056-4.75-1.056-1.63 0-3.12.462-4.49 1.386-1.36.924-2.46 2.156-3.3 3.696-.79 1.54-1.19 3.234-1.19 5.082V459h-5.61Zm60.55 0v-9.702h-21.64v-4.224l21.12-31.218h6.07v30.162h5.81v5.28h-5.81V459h-5.55Zm-15.24-14.982h15.24V422.04h-.26l-14.98 21.978Zm51 16.038c-3.7 0-6.89-1.056-9.57-3.168-2.68-2.112-4.77-4.95-6.27-8.514-1.45-3.608-2.18-7.59-2.18-11.946 0-4.4.73-8.382 2.18-11.946 1.5-3.564 3.59-6.402 6.27-8.514 2.68-2.112 5.87-3.168 9.57-3.168s6.89 1.056 9.57 3.168c2.73 2.112 4.82 4.95 6.27 8.514 1.5 3.564 2.24 7.546 2.24 11.946 0 4.356-.74 8.338-2.24 11.946-1.45 3.564-3.54 6.402-6.27 8.514-2.68 2.112-5.87 3.168-9.57 3.168Zm0-5.346c2.55 0 4.75-.814 6.6-2.442 1.85-1.628 3.26-3.828 4.22-6.6 1.02-2.772 1.52-5.852 1.52-9.24 0-3.432-.5-6.534-1.52-9.306-.96-2.772-2.37-4.95-4.22-6.534-1.85-1.628-4.05-2.442-6.6-2.442s-4.75.814-6.6 2.442c-1.8 1.584-3.21 3.762-4.22 6.534-.97 2.772-1.46 5.874-1.46 9.306 0 3.388.49 6.468 1.46 9.24 1.01 2.772 2.42 4.972 4.22 6.6 1.85 1.628 4.05 2.442 6.6 2.442Zm42.54 5.346c-3.7 0-6.89-1.056-9.57-3.168-2.68-2.112-4.77-4.95-6.27-8.514-1.45-3.608-2.18-7.59-2.18-11.946 0-4.4.73-8.382 2.18-11.946 1.5-3.564 3.59-6.402 6.27-8.514 2.68-2.112 5.87-3.168 9.57-3.168s6.89 1.056 9.57 3.168c2.73 2.112 4.82 4.95 6.27 8.514 1.5 3.564 2.24 7.546 2.24 11.946 0 4.356-.74 8.338-2.24 11.946-1.45 3.564-3.54 6.402-6.27 8.514-2.68 2.112-5.87 3.168-9.57 3.168Zm0-5.346c2.55 0 4.75-.814 6.6-2.442 1.85-1.628 3.26-3.828 4.22-6.6 1.02-2.772 1.52-5.852 1.52-9.24 0-3.432-.5-6.534-1.52-9.306-.96-2.772-2.37-4.95-4.22-6.534-1.85-1.628-4.05-2.442-6.6-2.442s-4.75.814-6.6 2.442c-1.8 1.584-3.21 3.762-4.22 6.534-.97 2.772-1.46 5.874-1.46 9.306 0 3.388.49 6.468 1.46 9.24 1.01 2.772 2.42 4.972 4.22 6.6 1.85 1.628 4.05 2.442 6.6 2.442ZM1076.28 591v-47.256h15.97c2.64 0 5.06.594 7.26 1.782 2.25 1.188 4.03 2.838 5.35 4.95 1.36 2.068 2.04 4.488 2.04 7.26 0 2.244-.5 4.312-1.51 6.204a14.473 14.473 0 0 1-4.1 4.686 14.411 14.411 0 0 1-5.74 2.574l-.13.198 13.33 19.338V591h-6.6l-12.87-19.272h-7.39V591h-5.61Zm5.61-24.486h10.03c1.63 0 3.15-.374 4.56-1.122a9.367 9.367 0 0 0 3.43-3.102c.88-1.32 1.32-2.838 1.32-4.554 0-1.408-.38-2.772-1.12-4.092-.71-1.32-1.72-2.398-3.04-3.234-1.32-.88-2.9-1.32-4.75-1.32h-10.43v17.424Zm46.28 25.542c-3.26 0-6.16-.77-8.71-2.31-2.51-1.54-4.49-3.652-5.94-6.336-1.41-2.684-2.12-5.742-2.12-9.174 0-3.212.66-6.182 1.98-8.91 1.37-2.728 3.26-4.906 5.68-6.534 2.46-1.672 5.35-2.508 8.65-2.508 3.34 0 6.2.748 8.58 2.244 2.42 1.452 4.26 3.476 5.54 6.072 1.32 2.596 1.98 5.566 1.98 8.91 0 .308-.02.616-.07.924 0 .308-.02.572-.06.792h-26.67c.18 2.64.82 4.84 1.92 6.6 1.14 1.716 2.55 3.014 4.22 3.894 1.67.836 3.41 1.254 5.22 1.254 2.46 0 4.48-.572 6.07-1.716a13.629 13.629 0 0 0 3.89-4.356l4.75 2.31c-1.32 2.552-3.21 4.664-5.67 6.336-2.47 1.672-5.55 2.508-9.24 2.508Zm-.46-30.69c-2.73 0-5 .858-6.8 2.574-1.81 1.716-2.99 3.938-3.57 6.666h20.53c-.04-1.276-.42-2.618-1.12-4.026-.66-1.452-1.72-2.684-3.17-3.696s-3.41-1.518-5.87-1.518Zm37.77 44.946c-2.86 0-5.32-.484-7.39-1.452-2.02-.924-3.67-2.112-4.95-3.564-1.23-1.452-2.11-2.926-2.64-4.422l5.15-2.178c.7 1.848 1.89 3.388 3.56 4.62 1.72 1.276 3.81 1.914 6.27 1.914 3.52 0 6.23-1.034 8.12-3.102 1.89-2.024 2.84-4.862 2.84-8.514v-3.762h-.27c-1.05 1.628-2.57 3.014-4.55 4.158-1.98 1.1-4.29 1.65-6.93 1.65-2.9 0-5.57-.748-7.99-2.244-2.37-1.496-4.26-3.564-5.67-6.204-1.41-2.684-2.11-5.764-2.11-9.24s.7-6.534 2.11-9.174c1.41-2.684 3.3-4.774 5.67-6.27 2.42-1.496 5.09-2.244 7.99-2.244 2.64 0 4.95.572 6.93 1.716 1.98 1.1 3.5 2.486 4.55 4.158h.27v-4.818h5.34v32.34c0 3.74-.72 6.842-2.17 9.306-1.41 2.464-3.35 4.29-5.81 5.478-2.42 1.232-5.19 1.848-8.32 1.848Zm0-19.734c1.98 0 3.81-.484 5.48-1.452 1.67-1.012 2.99-2.464 3.96-4.356 1.01-1.892 1.52-4.158 1.52-6.798 0-2.728-.51-5.016-1.52-6.864-.97-1.892-2.29-3.322-3.96-4.29s-3.5-1.452-5.48-1.452c-1.98 0-3.8.506-5.48 1.518-1.67.968-3.01 2.398-4.02 4.29-1.01 1.848-1.52 4.114-1.52 6.798s.51 4.972 1.52 6.864c1.01 1.848 2.35 3.278 4.02 4.29 1.68.968 3.5 1.452 5.48 1.452Zm36.49 5.478c-4.14 0-7.26-1.21-9.38-3.63-2.06-2.42-3.1-5.72-3.1-9.9V557.34h5.61v20.328c0 3.344.77 5.742 2.31 7.194 1.54 1.408 3.46 2.112 5.74 2.112 1.98 0 3.7-.506 5.15-1.518a10.686 10.686 0 0 0 3.37-4.026c.79-1.628 1.19-3.322 1.19-5.082V557.34h5.61V591h-5.35v-4.884h-.26c-.88 1.584-2.34 2.97-4.36 4.158-1.98 1.188-4.16 1.782-6.53 1.782Zm24.78-1.056v-47.256h5.61V591h-5.61Zm24.36 1.056c-2.51 0-4.71-.484-6.6-1.452-1.89-.968-3.39-2.288-4.49-3.96-1.05-1.716-1.58-3.652-1.58-5.808 0-2.464.64-4.532 1.91-6.204 1.28-1.716 2.99-2.992 5.15-3.828 2.16-.88 4.53-1.32 7.13-1.32 2.24 0 4.22.242 5.94.726 1.71.484 2.95.968 3.69 1.452v-2.046c0-2.552-.9-4.576-2.7-6.072-1.81-1.496-4.01-2.244-6.6-2.244-1.85 0-3.59.418-5.22 1.254-1.58.792-2.83 1.914-3.76 3.366l-4.22-3.168c1.32-1.98 3.12-3.542 5.41-4.686 2.33-1.188 4.93-1.782 7.79-1.782 4.57 0 8.16 1.21 10.76 3.63 2.59 2.42 3.89 5.676 3.89 9.768V591h-5.35v-4.818h-.26c-.88 1.496-2.27 2.86-4.16 4.092-1.89 1.188-4.13 1.782-6.73 1.782Zm.53-4.95c1.93 0 3.69-.484 5.28-1.452a10.994 10.994 0 0 0 3.89-3.894c.97-1.628 1.45-3.41 1.45-5.346-1.01-.704-2.28-1.276-3.82-1.716-1.5-.44-3.15-.66-4.95-.66-3.22 0-5.57.66-7.07 1.98-1.49 1.32-2.24 2.948-2.24 4.884 0 1.848.7 3.344 2.11 4.488 1.41 1.144 3.19 1.716 5.35 1.716Zm23.77 3.894v-33.66h5.35v5.412h.26a7.912 7.912 0 0 1 2.18-3.3 11.697 11.697 0 0 1 3.57-2.244c1.36-.572 2.7-.858 4.02-.858 1.01 0 1.81.066 2.38.198.57.088 1.1.242 1.58.462v6.072c-1.41-.704-2.99-1.056-4.75-1.056-1.63 0-3.12.462-4.49 1.386-1.36.924-2.46 2.156-3.3 3.696-.79 1.54-1.19 3.234-1.19 5.082V591h-5.61Zm60.55 0v-9.702h-21.64v-4.224l21.12-31.218h6.07v30.162h5.81v5.28h-5.81V591h-5.55Zm-15.24-14.982h15.24V554.04h-.26l-14.98 21.978Zm51 16.038c-3.7 0-6.89-1.056-9.57-3.168-2.68-2.112-4.77-4.95-6.27-8.514-1.45-3.608-2.18-7.59-2.18-11.946 0-4.4.73-8.382 2.18-11.946 1.5-3.564 3.59-6.402 6.27-8.514 2.68-2.112 5.87-3.168 9.57-3.168s6.89 1.056 9.57 3.168c2.73 2.112 4.82 4.95 6.27 8.514 1.5 3.564 2.24 7.546 2.24 11.946 0 4.356-.74 8.338-2.24 11.946-1.45 3.564-3.54 6.402-6.27 8.514-2.68 2.112-5.87 3.168-9.57 3.168Zm0-5.346c2.55 0 4.75-.814 6.6-2.442 1.85-1.628 3.26-3.828 4.22-6.6 1.02-2.772 1.52-5.852 1.52-9.24 0-3.432-.5-6.534-1.52-9.306-.96-2.772-2.37-4.95-4.22-6.534-1.85-1.628-4.05-2.442-6.6-2.442s-4.75.814-6.6 2.442c-1.8 1.584-3.21 3.762-4.22 6.534-.97 2.772-1.46 5.874-1.46 9.306 0 3.388.49 6.468 1.46 9.24 1.01 2.772 2.42 4.972 4.22 6.6 1.85 1.628 4.05 2.442 6.6 2.442Zm42.54 5.346c-3.7 0-6.89-1.056-9.57-3.168-2.68-2.112-4.77-4.95-6.27-8.514-1.45-3.608-2.18-7.59-2.18-11.946 0-4.4.73-8.382 2.18-11.946 1.5-3.564 3.59-6.402 6.27-8.514 2.68-2.112 5.87-3.168 9.57-3.168s6.89 1.056 9.57 3.168c2.73 2.112 4.82 4.95 6.27 8.514 1.5 3.564 2.24 7.546 2.24 11.946 0 4.356-.74 8.338-2.24 11.946-1.45 3.564-3.54 6.402-6.27 8.514-2.68 2.112-5.87 3.168-9.57 3.168Zm0-5.346c2.55 0 4.75-.814 6.6-2.442 1.85-1.628 3.26-3.828 4.22-6.6 1.02-2.772 1.52-5.852 1.52-9.24 0-3.432-.5-6.534-1.52-9.306-.96-2.772-2.37-4.95-4.22-6.534-1.85-1.628-4.05-2.442-6.6-2.442s-4.75.814-6.6 2.442c-1.8 1.584-3.21 3.762-4.22 6.534-.97 2.772-1.46 5.874-1.46 9.306 0 3.388.49 6.468 1.46 9.24 1.01 2.772 2.42 4.972 4.22 6.6 1.85 1.628 4.05 2.442 6.6 2.442Zm44.08-35.574c-1.1 0-2.04-.396-2.83-1.188-.8-.792-1.19-1.738-1.19-2.838 0-1.144.39-2.09 1.19-2.838.79-.792 1.73-1.188 2.83-1.188 1.15 0 2.09.396 2.84 1.188.79.748 1.19 1.694 1.19 2.838 0 1.1-.4 2.046-1.19 2.838-.75.792-1.69 1.188-2.84 1.188ZM1455.57 591v-33.66h5.61V591h-5.61Zm26.98.528c-2.82 0-5.08-.814-6.8-2.442-1.72-1.672-2.57-3.982-2.57-6.93v-19.734h-5.88v-5.082h5.88v-9.504h5.61v9.504h8.25v5.082h-8.25v18.348c0 1.76.35 3.124 1.05 4.092.75.968 1.96 1.452 3.63 1.452.75 0 1.43-.11 2.05-.33.61-.22 1.16-.484 1.65-.792v5.478a8.06 8.06 0 0 1-1.92.594c-.66.176-1.56.264-2.7.264Zm21.34.528c-2.5 0-4.7-.484-6.6-1.452-1.89-.968-3.38-2.288-4.48-3.96-1.06-1.716-1.59-3.652-1.59-5.808 0-2.464.64-4.532 1.92-6.204 1.27-1.716 2.99-2.992 5.14-3.828 2.16-.88 4.54-1.32 7.13-1.32 2.25 0 4.23.242 5.94.726 1.72.484 2.95.968 3.7 1.452v-2.046c0-2.552-.9-4.576-2.71-6.072-1.8-1.496-4-2.244-6.6-2.244-1.85 0-3.58.418-5.21 1.254-1.59.792-2.84 1.914-3.76 3.366l-4.23-3.168c1.32-1.98 3.13-3.542 5.41-4.686 2.34-1.188 4.93-1.782 7.79-1.782 4.58 0 8.16 1.21 10.76 3.63 2.6 2.42 3.89 5.676 3.89 9.768V591h-5.34v-4.818h-.27c-.88 1.496-2.26 2.86-4.15 4.092-1.9 1.188-4.14 1.782-6.74 1.782Zm.53-4.95c1.94 0 3.7-.484 5.28-1.452a11.022 11.022 0 0 0 3.9-3.894c.96-1.628 1.45-3.41 1.45-5.346-1.01-.704-2.29-1.276-3.83-1.716-1.5-.44-3.15-.66-4.95-.66-3.21 0-5.57.66-7.06 1.98-1.5 1.32-2.25 2.948-2.25 4.884 0 1.848.71 3.344 2.12 4.488 1.4 1.144 3.19 1.716 5.34 1.716ZM1528.2 591v-47.256h5.61V591h-5.61Zm17.22-39.864c-1.1 0-2.05-.396-2.84-1.188-.79-.792-1.19-1.738-1.19-2.838 0-1.144.4-2.09 1.19-2.838.79-.792 1.74-1.188 2.84-1.188 1.14 0 2.09.396 2.84 1.188.79.748 1.19 1.694 1.19 2.838 0 1.1-.4 2.046-1.19 2.838-.75.792-1.7 1.188-2.84 1.188ZM1542.65 591v-33.66h5.61V591h-5.61Zm29.28 1.056c-3.3 0-6.24-.77-8.84-2.31-2.55-1.584-4.55-3.718-6.01-6.402-1.45-2.728-2.17-5.786-2.17-9.174 0-3.432.72-6.49 2.17-9.174 1.46-2.684 3.46-4.796 6.01-6.336 2.6-1.584 5.54-2.376 8.84-2.376 3.79 0 6.89.88 9.31 2.64 2.46 1.716 4.2 3.938 5.21 6.666l-5.08 2.112c-.83-2.068-2.09-3.63-3.76-4.686-1.63-1.1-3.61-1.65-5.94-1.65-1.98 0-3.83.528-5.54 1.584-1.68 1.056-3.04 2.552-4.1 4.488-1.05 1.892-1.58 4.136-1.58 6.732 0 2.552.53 4.796 1.58 6.732 1.06 1.936 2.42 3.432 4.1 4.488 1.71 1.056 3.56 1.584 5.54 1.584 2.38 0 4.42-.55 6.14-1.65 1.71-1.1 2.99-2.662 3.83-4.686l5.01 2.112c-1.1 2.596-2.88 4.796-5.34 6.6-2.47 1.804-5.59 2.706-9.38 2.706ZM1076.28 723v-47.256h16.96c2.42 0 4.64.55 6.67 1.65 2.07 1.056 3.72 2.552 4.95 4.488 1.27 1.892 1.91 4.092 1.91 6.6 0 2.332-.59 4.356-1.78 6.072-1.19 1.716-2.75 3.014-4.69 3.894v.264c2.34.748 4.25 2.09 5.75 4.026 1.54 1.936 2.31 4.224 2.31 6.864 0 2.64-.66 4.972-1.98 6.996-1.32 1.98-3.06 3.542-5.22 4.686-2.15 1.144-4.49 1.716-6.99 1.716h-17.89Zm5.61-26.862h11.35c1.67 0 3.1-.374 4.29-1.122 1.19-.792 2.09-1.76 2.71-2.904.66-1.144.99-2.31.99-3.498 0-1.188-.31-2.354-.93-3.498-.61-1.144-1.49-2.09-2.64-2.838-1.14-.792-2.53-1.188-4.15-1.188h-11.62v15.048Zm0 21.516h12.61c1.67 0 3.12-.396 4.35-1.188 1.23-.836 2.18-1.87 2.84-3.102.66-1.276.99-2.552.99-3.828 0-1.32-.35-2.596-1.06-3.828-.66-1.232-1.62-2.244-2.9-3.036-1.23-.792-2.73-1.188-4.49-1.188h-12.34v16.17Zm48.8 6.402c-3.38 0-6.38-.792-8.97-2.376-2.6-1.584-4.64-3.718-6.14-6.402-1.45-2.728-2.18-5.764-2.18-9.108 0-3.344.73-6.358 2.18-9.042 1.5-2.728 3.54-4.884 6.14-6.468 2.59-1.584 5.59-2.376 8.97-2.376 3.39 0 6.38.814 8.98 2.442 2.6 1.584 4.62 3.74 6.07 6.468 1.5 2.684 2.25 5.676 2.25 8.976 0 3.344-.75 6.38-2.25 9.108-1.45 2.684-3.47 4.818-6.07 6.402-2.6 1.584-5.59 2.376-8.98 2.376Zm0-5.082c2.03 0 3.92-.506 5.68-1.518 1.8-1.012 3.26-2.464 4.36-4.356 1.1-1.936 1.65-4.246 1.65-6.93 0-2.684-.55-4.972-1.65-6.864-1.1-1.936-2.56-3.41-4.36-4.422a11.197 11.197 0 0 0-5.68-1.518c-2.02 0-3.93.506-5.74 1.518-1.8 1.012-3.25 2.486-4.35 4.422-1.1 1.892-1.65 4.18-1.65 6.864s.55 4.994 1.65 6.93c1.1 1.892 2.55 3.344 4.35 4.356 1.81 1.012 3.72 1.518 5.74 1.518Zm23.49 4.026v-47.256h5.61V723h-5.61Zm27.92 1.056c-3.04 0-5.79-.77-8.25-2.31-2.42-1.54-4.33-3.652-5.74-6.336-1.41-2.684-2.11-5.764-2.11-9.24s.7-6.556 2.11-9.24 3.32-4.796 5.74-6.336c2.46-1.54 5.21-2.31 8.25-2.31 2.73 0 5.08.616 7.06 1.848 1.98 1.232 3.46 2.64 4.42 4.224h.27l-.27-4.686v-13.926h5.61V723h-5.34v-4.95h-.27c-.96 1.54-2.44 2.926-4.42 4.158-1.98 1.232-4.33 1.848-7.06 1.848Zm.59-5.082c1.94 0 3.74-.506 5.42-1.518 1.71-1.056 3.1-2.53 4.15-4.422 1.06-1.936 1.59-4.224 1.59-6.864 0-2.64-.53-4.906-1.59-6.798-1.05-1.936-2.44-3.41-4.15-4.422-1.68-1.056-3.48-1.584-5.42-1.584-1.93 0-3.76.528-5.47 1.584-1.68 1.012-3.04 2.486-4.1 4.422-1.05 1.892-1.58 4.158-1.58 6.798 0 2.596.53 4.862 1.58 6.798 1.06 1.936 2.42 3.432 4.1 4.488 1.71 1.012 3.54 1.518 5.47 1.518Zm46.07 5.082-5.02-2.574 10.56-19.14c3.52-6.38 7.02-12.76 10.5-19.14h-23.17v-5.346h29.04v5.742a8452.39 8452.39 0 0 0-10.95 20.262c-3.66 6.732-7.31 13.464-10.96 20.196Zm45.44 0c-3.69 0-6.88-1.056-9.57-3.168-2.68-2.112-4.77-4.95-6.27-8.514-1.45-3.608-2.17-7.59-2.17-11.946 0-4.4.72-8.382 2.17-11.946 1.5-3.564 3.59-6.402 6.27-8.514 2.69-2.112 5.88-3.168 9.57-3.168 3.7 0 6.89 1.056 9.57 3.168 2.73 2.112 4.82 4.95 6.27 8.514 1.5 3.564 2.25 7.546 2.25 11.946 0 4.356-.75 8.338-2.25 11.946-1.45 3.564-3.54 6.402-6.27 8.514-2.68 2.112-5.87 3.168-9.57 3.168Zm0-5.346c2.56 0 4.76-.814 6.6-2.442 1.85-1.628 3.26-3.828 4.23-6.6 1.01-2.772 1.52-5.852 1.52-9.24 0-3.432-.51-6.534-1.52-9.306-.97-2.772-2.38-4.95-4.23-6.534-1.84-1.628-4.04-2.442-6.6-2.442-2.55 0-4.75.814-6.6 2.442-1.8 1.584-3.21 3.762-4.22 6.534-.97 2.772-1.45 5.874-1.45 9.306 0 3.388.48 6.468 1.45 9.24 1.01 2.772 2.42 4.972 4.22 6.6 1.85 1.628 4.05 2.442 6.6 2.442Zm42.54 5.346c-3.69 0-6.88-1.056-9.57-3.168-2.68-2.112-4.77-4.95-6.27-8.514-1.45-3.608-2.18-7.59-2.18-11.946 0-4.4.73-8.382 2.18-11.946 1.5-3.564 3.59-6.402 6.27-8.514 2.69-2.112 5.88-3.168 9.57-3.168 3.7 0 6.89 1.056 9.57 3.168 2.73 2.112 4.82 4.95 6.27 8.514 1.5 3.564 2.25 7.546 2.25 11.946 0 4.356-.75 8.338-2.25 11.946-1.45 3.564-3.54 6.402-6.27 8.514-2.68 2.112-5.87 3.168-9.57 3.168Zm0-5.346c2.55 0 4.75-.814 6.6-2.442 1.85-1.628 3.26-3.828 4.23-6.6 1.01-2.772 1.51-5.852 1.51-9.24 0-3.432-.5-6.534-1.51-9.306-.97-2.772-2.38-4.95-4.23-6.534-1.85-1.628-4.05-2.442-6.6-2.442s-4.75.814-6.6 2.442c-1.8 1.584-3.21 3.762-4.22 6.534-.97 2.772-1.45 5.874-1.45 9.306 0 3.388.48 6.468 1.45 9.24 1.01 2.772 2.42 4.972 4.22 6.6 1.85 1.628 4.05 2.442 6.6 2.442ZM1076.28 855v-47.256h16.96c2.42 0 4.64.55 6.67 1.65 2.07 1.056 3.72 2.552 4.95 4.488 1.27 1.892 1.91 4.092 1.91 6.6 0 2.332-.59 4.356-1.78 6.072-1.19 1.716-2.75 3.014-4.69 3.894v.264c2.34.748 4.25 2.09 5.75 4.026 1.54 1.936 2.31 4.224 2.31 6.864 0 2.64-.66 4.972-1.98 6.996-1.32 1.98-3.06 3.542-5.22 4.686-2.15 1.144-4.49 1.716-6.99 1.716h-17.89Zm5.61-26.862h11.35c1.67 0 3.1-.374 4.29-1.122 1.19-.792 2.09-1.76 2.71-2.904.66-1.144.99-2.31.99-3.498 0-1.188-.31-2.354-.93-3.498-.61-1.144-1.49-2.09-2.64-2.838-1.14-.792-2.53-1.188-4.15-1.188h-11.62v15.048Zm0 21.516h12.61c1.67 0 3.12-.396 4.35-1.188 1.23-.836 2.18-1.87 2.84-3.102.66-1.276.99-2.552.99-3.828 0-1.32-.35-2.596-1.06-3.828-.66-1.232-1.62-2.244-2.9-3.036-1.23-.792-2.73-1.188-4.49-1.188h-12.34v16.17Zm48.8 6.402c-3.38 0-6.38-.792-8.97-2.376-2.6-1.584-4.64-3.718-6.14-6.402-1.45-2.728-2.18-5.764-2.18-9.108 0-3.344.73-6.358 2.18-9.042 1.5-2.728 3.54-4.884 6.14-6.468 2.59-1.584 5.59-2.376 8.97-2.376 3.39 0 6.38.814 8.98 2.442 2.6 1.584 4.62 3.74 6.07 6.468 1.5 2.684 2.25 5.676 2.25 8.976 0 3.344-.75 6.38-2.25 9.108-1.45 2.684-3.47 4.818-6.07 6.402-2.6 1.584-5.59 2.376-8.98 2.376Zm0-5.082c2.03 0 3.92-.506 5.68-1.518 1.8-1.012 3.26-2.464 4.36-4.356 1.1-1.936 1.65-4.246 1.65-6.93 0-2.684-.55-4.972-1.65-6.864-1.1-1.936-2.56-3.41-4.36-4.422a11.197 11.197 0 0 0-5.68-1.518c-2.02 0-3.93.506-5.74 1.518-1.8 1.012-3.25 2.486-4.35 4.422-1.1 1.892-1.65 4.18-1.65 6.864s.55 4.994 1.65 6.93c1.1 1.892 2.55 3.344 4.35 4.356 1.81 1.012 3.72 1.518 5.74 1.518Zm23.49 4.026v-47.256h5.61V855h-5.61Zm27.92 1.056c-3.04 0-5.79-.77-8.25-2.31-2.42-1.54-4.33-3.652-5.74-6.336-1.41-2.684-2.11-5.764-2.11-9.24s.7-6.556 2.11-9.24 3.32-4.796 5.74-6.336c2.46-1.54 5.21-2.31 8.25-2.31 2.73 0 5.08.616 7.06 1.848 1.98 1.232 3.46 2.64 4.42 4.224h.27l-.27-4.686v-13.926h5.61V855h-5.34v-4.95h-.27c-.96 1.54-2.44 2.926-4.42 4.158-1.98 1.232-4.33 1.848-7.06 1.848Zm.59-5.082c1.94 0 3.74-.506 5.42-1.518 1.71-1.056 3.1-2.53 4.15-4.422 1.06-1.936 1.59-4.224 1.59-6.864 0-2.64-.53-4.906-1.59-6.798-1.05-1.936-2.44-3.41-4.15-4.422-1.68-1.056-3.48-1.584-5.42-1.584-1.93 0-3.76.528-5.47 1.584-1.68 1.012-3.04 2.486-4.1 4.422-1.05 1.892-1.58 4.158-1.58 6.798 0 2.596.53 4.862 1.58 6.798 1.06 1.936 2.42 3.432 4.1 4.488 1.71 1.012 3.54 1.518 5.47 1.518Zm46.07 5.082-5.02-2.574 10.56-19.14c3.52-6.38 7.02-12.76 10.5-19.14h-23.17v-5.346h29.04v5.742a8452.39 8452.39 0 0 0-10.95 20.262c-3.66 6.732-7.31 13.464-10.96 20.196Zm45.44 0c-3.69 0-6.88-1.056-9.57-3.168-2.68-2.112-4.77-4.95-6.27-8.514-1.45-3.608-2.17-7.59-2.17-11.946 0-4.4.72-8.382 2.17-11.946 1.5-3.564 3.59-6.402 6.27-8.514 2.69-2.112 5.88-3.168 9.57-3.168 3.7 0 6.89 1.056 9.57 3.168 2.73 2.112 4.82 4.95 6.27 8.514 1.5 3.564 2.25 7.546 2.25 11.946 0 4.356-.75 8.338-2.25 11.946-1.45 3.564-3.54 6.402-6.27 8.514-2.68 2.112-5.87 3.168-9.57 3.168Zm0-5.346c2.56 0 4.76-.814 6.6-2.442 1.85-1.628 3.26-3.828 4.23-6.6 1.01-2.772 1.52-5.852 1.52-9.24 0-3.432-.51-6.534-1.52-9.306-.97-2.772-2.38-4.95-4.23-6.534-1.84-1.628-4.04-2.442-6.6-2.442-2.55 0-4.75.814-6.6 2.442-1.8 1.584-3.21 3.762-4.22 6.534-.97 2.772-1.45 5.874-1.45 9.306 0 3.388.48 6.468 1.45 9.24 1.01 2.772 2.42 4.972 4.22 6.6 1.85 1.628 4.05 2.442 6.6 2.442Zm42.54 5.346c-3.69 0-6.88-1.056-9.57-3.168-2.68-2.112-4.77-4.95-6.27-8.514-1.45-3.608-2.18-7.59-2.18-11.946 0-4.4.73-8.382 2.18-11.946 1.5-3.564 3.59-6.402 6.27-8.514 2.69-2.112 5.88-3.168 9.57-3.168 3.7 0 6.89 1.056 9.57 3.168 2.73 2.112 4.82 4.95 6.27 8.514 1.5 3.564 2.25 7.546 2.25 11.946 0 4.356-.75 8.338-2.25 11.946-1.45 3.564-3.54 6.402-6.27 8.514-2.68 2.112-5.87 3.168-9.57 3.168Zm0-5.346c2.55 0 4.75-.814 6.6-2.442 1.85-1.628 3.26-3.828 4.23-6.6 1.01-2.772 1.51-5.852 1.51-9.24 0-3.432-.5-6.534-1.51-9.306-.97-2.772-2.38-4.95-4.23-6.534-1.85-1.628-4.05-2.442-6.6-2.442s-4.75.814-6.6 2.442c-1.8 1.584-3.21 3.762-4.22 6.534-.97 2.772-1.45 5.874-1.45 9.306 0 3.388.48 6.468 1.45 9.24 1.01 2.772 2.42 4.972 4.22 6.6 1.85 1.628 4.05 2.442 6.6 2.442Zm44.09-35.574c-1.1 0-2.05-.396-2.84-1.188-.79-.792-1.19-1.738-1.19-2.838 0-1.144.4-2.09 1.19-2.838.79-.792 1.74-1.188 2.84-1.188 1.14 0 2.09.396 2.84 1.188.79.748 1.18 1.694 1.18 2.838 0 1.1-.39 2.046-1.18 2.838-.75.792-1.7 1.188-2.84 1.188ZM1358.06 855v-33.66h5.61V855h-5.61Zm26.97.528c-2.82 0-5.08-.814-6.8-2.442-1.71-1.672-2.57-3.982-2.57-6.93v-19.734h-5.88v-5.082h5.88v-9.504h5.61v9.504h8.25v5.082h-8.25v18.348c0 1.76.35 3.124 1.05 4.092.75.968 1.96 1.452 3.63 1.452.75 0 1.43-.11 2.05-.33.62-.22 1.17-.484 1.65-.792v5.478c-.57.264-1.21.462-1.91.594-.66.176-1.57.264-2.71.264Zm21.35.528c-2.51 0-4.71-.484-6.6-1.452-1.9-.968-3.39-2.288-4.49-3.96-1.06-1.716-1.59-3.652-1.59-5.808 0-2.464.64-4.532 1.92-6.204 1.27-1.716 2.99-2.992 5.15-3.828 2.15-.88 4.53-1.32 7.12-1.32 2.25 0 4.23.242 5.94.726 1.72.484 2.95.968 3.7 1.452v-2.046c0-2.552-.9-4.576-2.71-6.072-1.8-1.496-4-2.244-6.6-2.244-1.84 0-3.58.418-5.21 1.254-1.58.792-2.84 1.914-3.76 3.366l-4.23-3.168c1.32-1.98 3.13-3.542 5.42-4.686 2.33-1.188 4.92-1.782 7.78-1.782 4.58 0 8.17 1.21 10.76 3.63 2.6 2.42 3.9 5.676 3.9 9.768V855h-5.35v-4.818h-.26c-.88 1.496-2.27 2.86-4.16 4.092-1.89 1.188-4.14 1.782-6.73 1.782Zm.52-4.95c1.94 0 3.7-.484 5.28-1.452a11.022 11.022 0 0 0 3.9-3.894c.97-1.628 1.45-3.41 1.45-5.346-1.01-.704-2.29-1.276-3.83-1.716-1.49-.44-3.14-.66-4.95-.66-3.21 0-5.56.66-7.06 1.98-1.5 1.32-2.24 2.948-2.24 4.884 0 1.848.7 3.344 2.11 4.488 1.41 1.144 3.19 1.716 5.34 1.716Zm23.78 3.894v-47.256h5.61V855h-5.61Zm17.22-39.864c-1.1 0-2.04-.396-2.83-1.188-.8-.792-1.19-1.738-1.19-2.838 0-1.144.39-2.09 1.19-2.838.79-.792 1.73-1.188 2.83-1.188 1.15 0 2.09.396 2.84 1.188.79.748 1.19 1.694 1.19 2.838 0 1.1-.4 2.046-1.19 2.838-.75.792-1.69 1.188-2.84 1.188ZM1445.13 855v-33.66h5.61V855h-5.61Zm29.29 1.056c-3.3 0-6.25-.77-8.85-2.31-2.55-1.584-4.55-3.718-6-6.402-1.46-2.728-2.18-5.786-2.18-9.174 0-3.432.72-6.49 2.18-9.174 1.45-2.684 3.45-4.796 6-6.336 2.6-1.584 5.55-2.376 8.85-2.376 3.78 0 6.88.88 9.3 2.64 2.47 1.716 4.2 3.938 5.22 6.666l-5.09 2.112c-.83-2.068-2.09-3.63-3.76-4.686-1.63-1.1-3.61-1.65-5.94-1.65-1.98 0-3.83.528-5.54 1.584-1.67 1.056-3.04 2.552-4.09 4.488-1.06 1.892-1.59 4.136-1.59 6.732 0 2.552.53 4.796 1.59 6.732 1.05 1.936 2.42 3.432 4.09 4.488 1.71 1.056 3.56 1.584 5.54 1.584 2.38 0 4.42-.55 6.14-1.65 1.72-1.1 2.99-2.662 3.83-4.686l5.01 2.112c-1.1 2.596-2.88 4.796-5.34 6.6-2.47 1.804-5.59 2.706-9.37 2.706Z" fill="#3C4043"/><path fill="url(#b)" d="M729 50h219v980H729z"/><defs><linearGradient id="b" x1="938" y1="64.5" x2="729" y2="64.5" gradientUnits="userSpaceOnUse"><stop stop-color="#D2E3FC"/><stop offset="1" stop-color="#D2E3FC" stop-opacity="0"/></linearGradient></defs></svg>