<svg width="1920" height="1080" fill="none" xmlns="http://www.w3.org/2000/svg"><path d="m375.2 532.8-.8 12.8c-13.6 1.067-25.867 2.667-36.8 4.8-10.667 2.133-20 4.933-28 8.4-7.733 3.2-14.267 7.067-19.6 11.6-5.333 4.267-9.333 9.333-12 15.2-2.4 5.6-3.6 12-3.6 19.2 0 8.8 1.467 16.133 4.4 22 2.933 5.6 7.067 9.867 12.4 12.8 5.6 2.933 11.867 4.4 18.8 4.4 9.6 0 17.867-1.867 24.8-5.6 7.2-4 13.467-9.467 18.8-16.4 5.333-6.933 10-14.667 14-23.2l8 3.6c-4.533 11.467-10.4 21.467-17.6 30-6.933 8.267-15.067 14.667-24.4 19.2-9.333 4.267-19.867 6.4-31.6 6.4-11.467 0-22-2.133-31.6-6.4-9.333-4.267-16.8-10.4-22.4-18.4-5.6-8-8.4-17.467-8.4-28.4s2.933-20.267 8.8-28c5.867-8 14.533-14.8 26-20.4 11.467-5.6 25.6-10.267 42.4-14 17.067-3.733 36.533-6.933 58.4-9.6ZM366.8 654v-39.6l-3.2 1.6V508c0-12.533-1.6-22.667-4.8-30.4-2.933-7.733-7.6-13.333-14-16.8-6.4-3.467-14.4-5.2-24-5.2-14.667 0-26.533 3.067-35.6 9.2-9.067 5.867-16.533 13.2-22.4 22 .533-5.067 1.333-9.333 2.4-12.8 1.333-3.733 2.933-6.8 4.8-9.2 2.133-2.4 4.4-4 6.8-4.8 2.667-1.067 5.333-1.467 8-1.2V502h-32.4v-36.4c3.733-2.933 8.933-6.133 15.6-9.6 6.933-3.467 15.067-6.533 24.4-9.2 9.6-2.667 20.133-4 31.6-4 11.2 0 21.333 1.333 30.4 4 9.333 2.4 17.333 6.267 24 11.6 6.667 5.067 11.733 11.733 15.2 20 3.733 8 5.6 17.6 5.6 28.8v120.4c0 3.733 1.333 6.667 4 8.8 2.667 2.133 6.267 3.6 10.8 4.4 4.533.8 9.6 1.2 15.2 1.2h.4v12h-62.8Zm298.519-182c-11.467-1.067-21.067-1.467-28.8-1.2-7.467.267-13.6 1.6-18.4 4-4.8 2.4-8.934 6.267-12.4 11.6l-5.2-6c4-6.933 8.266-12.933 12.8-18 4.533-5.067 9.466-9.2 14.8-12.4a56.531 56.531 0 0 1 17.2-6.8c6.133-1.333 12.8-1.733 20-1.2v30Zm-118.4 117.6c-15.2 0-28.934-2.933-41.2-8.8-12-6.133-21.467-14.667-28.4-25.6-6.934-10.933-10.4-23.733-10.4-38.4 0-14.667 3.466-27.467 10.4-38.4 6.933-11.2 16.4-19.867 28.4-26 12.266-6.4 26-9.6 41.2-9.6 15.466 0 29.2 3.2 41.2 9.6 12 6.133 21.466 14.8 28.4 26 7.2 10.933 10.8 23.733 10.8 38.4 0 14.667-3.6 27.467-10.8 38.4-6.934 10.933-16.4 19.467-28.4 25.6-12 5.867-25.734 8.8-41.2 8.8Zm0-12.8c8.8 0 16.533-2.267 23.2-6.8 6.933-4.8 12.266-11.6 16-20.4 4-9.067 6-20 6-32.8 0-12.8-2-23.733-6-32.8-3.734-9.067-8.934-16-15.6-20.8-6.667-5.067-14.534-7.6-23.6-7.6-8.8 0-16.534 2.533-23.2 7.6-6.667 4.8-12 11.733-16 20.8-3.734 9.067-5.6 20-5.6 32.8 0 12.8 1.866 23.733 5.6 32.8 4 8.8 9.333 15.6 16 20.4 6.666 4.533 14.4 6.8 23.2 6.8Zm-5.6 178c-17.867 0-34.267-2-49.2-6-14.667-4-26.4-10-35.2-18-8.8-8-13.2-18-13.2-30 0-6.933 1.733-13.333 5.2-19.2 3.733-5.6 9.2-10.933 16.4-16 7.466-5.067 16.533-10 27.2-14.8l6 7.2c-7.2 3.2-12.934 7.067-17.2 11.6-4 4.533-6.934 9.333-8.8 14.4-1.6 5.333-2.4 10.8-2.4 16.4 0 7.733 2.533 14.667 7.6 20.8 5.066 6.133 12.8 10.933 23.2 14.4 10.666 3.733 24.266 5.6 40.8 5.6h11.6c14.933 0 28-2.133 39.2-6.4 11.2-4.267 20-10.267 26.4-18 6.4-7.467 9.6-16 9.6-25.6 0-8.8-2.934-15.467-8.8-20-5.867-4.533-17.067-6.8-33.6-6.8h-103.6l2.4-3.6c-6.4-3.467-11.6-7.067-15.6-10.8-3.734-4-6.4-8.133-8-12.4-1.6-4.533-2.4-8.933-2.4-13.2 0-6.933 1.6-13.2 4.8-18.8 3.2-5.867 7.866-11.333 14-16.4 6.133-5.067 13.733-9.867 22.8-14.4l10.4 6c-5.6 3.2-10.534 6.4-14.8 9.6-4 3.2-7.2 6.667-9.6 10.4-2.4 3.467-3.6 7.733-3.6 12.8 0 6.133 2.8 10.533 8.4 13.2 5.866 2.667 14.133 4 24.8 4h70.4c15.2 0 28 1.867 38.4 5.6 10.4 3.467 18.266 8.933 23.6 16.4 5.333 7.467 8 16.933 8 28.4 0 15.2-4.8 28.267-14.4 39.2-9.334 11.2-21.734 19.733-37.2 25.6-15.467 5.867-32.534 8.8-51.2 8.8h-12.4Z" fill="#3C4043"/><path d="m883.446 535.013-3.218 12.57c-13.802 1.047-26.371 2.619-37.707 4.713-11.07 2.095-20.932 4.845-29.587 8.249-8.338 3.143-15.602 6.94-21.792 11.391-6.139 4.19-11.096 9.166-14.871 14.927-3.458 5.499-5.867 11.783-7.228 18.854-1.662 8.641-1.581 15.843.244 21.604 1.875 5.499 5.203 9.689 9.982 12.569 5.046 2.881 11.035 4.321 17.969 4.321 9.6 0 18.219-1.833 25.858-5.499 7.955-3.928 15.255-9.296 21.898-16.105 6.643-6.808 12.771-14.402 18.383-22.782l7.32 3.535c-6.7 11.26-14.456 21.08-23.268 29.46-8.495 8.118-17.837 14.402-28.027 18.854-10.14 4.19-21.076 6.285-32.809 6.285-11.467 0-21.597-2.095-30.391-6.285-8.528-4.19-14.835-10.213-18.924-18.069-4.089-7.856-5.1-17.152-3.035-27.888 2.066-10.737 6.763-19.902 14.09-27.496 7.378-7.856 17.33-14.533 29.854-20.033 12.525-5.499 27.54-10.081 45.045-13.747 17.772-3.667 37.843-6.809 60.214-9.428Zm-31.298 119.018 7.482-38.887-3.503 1.571 20.404-106.055c2.368-12.308 2.682-22.258.944-29.853-1.473-7.594-5.081-13.093-10.827-16.497-5.745-3.404-13.417-5.106-23.017-5.106-14.667 0-27.113 3.011-37.338 9.034-10.175 5.761-19.027 12.962-26.557 21.604 1.491-4.976 3.097-9.165 4.819-12.57 2.038-3.666 4.218-6.677 6.538-9.034 2.586-2.357 5.155-3.928 7.707-4.714 2.868-1.047 5.61-1.44 8.226-1.178l-8.161 42.422h-32.4l6.877-35.744c4.287-2.881 10.092-6.023 17.413-9.428 7.589-3.404 16.301-6.415 26.138-9.034 10.104-2.619 20.889-3.928 32.356-3.928 11.2 0 21.082 1.309 29.644 3.928 8.88 2.357 16.15 6.154 21.809 11.391 5.709 4.976 9.516 11.522 11.421 19.64 2.222 7.856 2.275 17.283.159 28.281l-22.746 118.232c-.705 3.666.074 6.547 2.337 8.642 2.264 2.095 5.587 3.535 9.969 4.321 4.382.785 9.373 1.178 14.973 1.178h.4l-2.267 11.784h-62.8Zm332.902-178.723c-11.26-1.047-20.79-1.44-28.57-1.178-7.52.262-13.9 1.571-19.16 3.928-5.25 2.357-10.12 6.154-14.59 11.391l-4.07-5.892c5.31-6.808 10.71-12.7 16.2-17.676 5.5-4.975 11.21-9.034 17.15-12.177 5.94-3.142 12.1-5.368 18.48-6.677 6.39-1.309 13.13-1.702 20.23-1.178l-5.67 29.459Zm-140.62 115.483c-15.2 0-28.38-2.881-39.53-8.642-10.845-6.023-18.699-14.403-23.567-25.139-4.868-10.736-5.916-23.306-3.146-37.708 2.771-14.403 8.656-26.973 17.655-37.709 9.048-10.998 20.158-19.509 33.308-25.532 13.48-6.284 27.82-9.427 43.02-9.427 15.46 0 28.59 3.143 39.38 9.427 10.85 6.023 18.67 14.534 23.49 25.532 5.14 10.736 6.32 23.306 3.55 37.709-2.77 14.402-8.79 26.972-18.06 37.708-9 10.736-20.07 19.116-33.23 25.139-13.11 5.761-27.4 8.642-42.87 8.642Zm2.42-12.57c8.8 0 16.96-2.226 24.49-6.678 7.84-4.713 14.45-11.391 19.85-20.032 5.71-8.904 9.78-19.64 12.2-32.209 2.42-12.57 2.48-23.306.19-32.21-2.02-8.903-5.91-15.712-11.67-20.425-5.71-4.976-13.09-7.463-22.16-7.463-8.8 0-17.01 2.487-24.64 7.463-7.57 4.713-14.21 11.522-19.93 20.425-5.44 8.904-9.37 19.64-11.79 32.21-2.42 12.569-2.62 23.305-.6 32.209 2.34 8.641 6.39 15.319 12.15 20.032 5.81 4.452 13.11 6.678 21.91 6.678Zm-39.23 174.795c-17.863 0-33.885-1.964-48.063-5.892-13.911-3.928-24.511-9.82-31.799-17.676-7.289-7.856-9.8-17.676-7.533-29.46 1.31-6.808 4.253-13.093 8.828-18.854 4.791-5.499 11.265-10.737 19.423-15.712 8.423-4.976 18.422-9.82 29.996-14.534l4.639 7.071c-7.804 3.142-14.268 6.939-19.391 11.391-4.857 4.452-8.697 9.165-11.521 14.141-2.607 5.237-4.44 10.605-5.498 16.104-1.461 7.594-.238 14.403 3.67 20.426 3.908 6.023 10.735 10.736 20.48 14.14 9.961 3.666 23.209 5.499 39.739 5.499h11.6c14.94 0 28.41-2.094 40.41-6.284 12.01-4.19 21.94-10.082 29.8-17.676 7.81-7.332 12.63-15.712 14.44-25.139 1.66-8.642-.01-15.188-5.02-19.64s-15.78-6.677-32.32-6.677H965.902l3.08-3.536c-5.745-3.404-10.265-6.939-13.559-10.605-2.978-3.928-4.864-7.987-5.658-12.177-.743-4.452-.712-8.772.094-12.962 1.31-6.809 4.094-12.962 8.352-18.462 4.308-5.761 10.008-11.129 17.098-16.104 7.091-4.976 15.598-9.689 25.521-14.141l9.27 5.892c-6.21 3.142-11.746 6.285-16.617 9.427-4.605 3.142-8.46 6.547-11.565 10.213-3.055 3.404-5.061 7.594-6.018 12.569-1.159 6.023.81 10.344 5.906 12.963 5.363 2.618 13.377 3.928 24.044 3.928h70.4c15.2 0 27.65 1.833 37.34 5.499 9.75 3.404 16.58 8.772 20.5 16.104 3.93 7.333 4.8 16.629 2.64 27.889-2.87 14.926-10.14 27.758-21.81 38.494-11.45 10.998-25.46 19.378-42.03 25.139-16.58 5.761-34.2 8.642-52.87 8.642h-12.4Z" fill="#FF6D7F"/><path d="m1425.6 487.4-6 12c-4.8-9.333-10.13-17.2-16-23.6-5.87-6.4-12.4-11.2-19.6-14.4-6.93-3.2-14.93-4.8-24-4.8-9.87 0-18.93 2.533-27.2 7.6-8 4.8-15.2 11.467-21.6 20-6.13 8.533-11.33 18.267-15.6 29.2-4.27 10.667-7.6 22-10 34-2.13 12-3.2 23.867-3.2 35.6 0 13.067 1.47 23.867 4.4 32.4 3.2 8.533 7.47 14.933 12.8 19.2 5.6 4.267 12 6.4 19.2 6.4 11.73 0 21.87-4.133 30.4-12.4 8.8-8.267 16.67-19.067 23.6-32.4 7.2-13.333 14-27.467 20.4-42.4l9.6 7.6c-8.53 17.867-16.93 34-25.2 48.4-8.27 14.4-17.47 25.867-27.6 34.4-10.13 8.533-22.53 12.8-37.2 12.8-12.27 0-23.6-3.067-34-9.2-10.4-6.133-18.67-15.067-24.8-26.8-6.13-11.733-9.2-26.133-9.2-43.2 0-12.533 1.6-25.2 4.8-38 3.2-12.8 7.87-24.933 14-36.4 6.13-11.733 13.73-22.267 22.8-31.6 9.33-9.333 20-16.667 32-22 12.27-5.333 25.87-8 40.8-8 10.13 0 19.47 2 28 6 8.53 3.733 16 9.067 22.4 16 6.4 6.667 11.73 14.533 16 23.6Zm14-43.2-30.4 171.6c-.27 1.333-.53 2.667-.8 4 0 1.333-.13 2.533-.4 3.6v3.2c0 5.067 1.07 8.8 3.2 11.2 2.4 2.133 6 3.2 10.8 3.2 6.13 0 11.87-1.467 17.2-4.4 5.6-2.933 10.27-5.467 14-7.6l-3.2 12.8c-2.4 2.4-5.6 4.8-9.6 7.2-4 2.4-8.4 4.267-13.2 5.6-4.8 1.6-10 2.4-15.6 2.4-7.47 0-14-1.333-19.6-4-5.6-2.667-10-6.667-13.2-12-2.93-5.6-4.4-12.533-4.4-20.8 0-2.133.4-4.667 1.2-7.6 1.07-2.933 2.13-5.733 3.2-8.4l-2.8-.4 24-136.8 4.8-1.2 20-21.6h14.8Zm167.27 205.2 31.6-180.4 6.4-1.2 18.8-23.6h14.8l-36 204.8c-3.47 20.267-10 37.467-19.6 51.6-9.6 14.4-21.73 25.333-36.4 32.8-14.67 7.467-31.6 11.2-50.8 11.2-12.27 0-23.6-1.467-34-4.4-10.4-2.933-19.47-6.933-27.2-12-7.47-4.8-13.07-10-16.8-15.6l5.6-31.6h36.4l-8 43.2c-3.2-.267-5.87-.933-8-2-1.87-.8-3.2-2.133-4-4-.8-1.6-1.07-3.6-.8-6s.93-5.2 2-8.4c1.07 5.333 4.13 10 9.2 14 5.07 4.267 11.6 7.6 19.6 10 8 2.667 17.07 4 27.2 4 12.53 0 23.33-2.933 32.4-8.8 9.33-5.867 17.07-14.933 23.2-27.2 6.4-12 11.2-27.467 14.4-46.4Zm54.4-162.4-7.2 11.2c-5.87-9.867-12.13-17.867-18.8-24-6.67-6.133-13.73-10.533-21.2-13.2-7.2-2.933-15.2-4.4-24-4.4-9.87 0-18.93 2.533-27.2 7.6-8.27 4.8-15.47 11.467-21.6 20-6.13 8.533-11.33 18.267-15.6 29.2s-7.47 22.4-9.6 34.4c-2.13 11.733-3.2 23.467-3.2 35.2 0 11.467 1.47 21.6 4.4 30.4 2.93 8.533 7.47 15.333 13.6 20.4 6.13 4.8 13.73 7.2 22.8 7.2 12.27 0 22.53-3.733 30.8-11.2 8.53-7.733 16.13-17.867 22.8-30.4 6.67-12.533 13.2-25.867 19.6-40l8 8c-7.73 17.067-15.47 32.4-23.2 46-7.73 13.6-16.67 24.267-26.8 32-9.87 7.733-22.53 11.6-38 11.6-14.13 0-26.67-3.333-37.6-10-10.67-6.667-19.07-16-25.2-28-5.87-12-8.8-25.733-8.8-41.2 0-12.267 1.47-24.8 4.4-37.6a166.32 166.32 0 0 1 14-36.8c6.13-11.733 13.73-22.267 22.8-31.6 9.33-9.333 20.13-16.667 32.4-22 12.27-5.333 26-8 41.2-8 8 0 15.47 1.2 22.4 3.6 7.2 2.133 13.73 5.333 19.6 9.6 6.13 4 11.6 8.8 16.4 14.4a82.515 82.515 0 0 1 12.8 17.6Z" fill="#1A73E8"/></svg>