<svg width="1920" height="1080" fill="none" xmlns="http://www.w3.org/2000/svg"><path fill="#1A73E8" d="M973 218h703v645H973z"/><path d="M379.775 598.516v-10.16l6.608-1.578v-50.401l-7.496-1.578V524.64h23.721l.592 6.016c1.447-2.235 3.189-3.962 5.228-5.178 2.038-1.216 4.537-1.825 7.496-1.825 4.208 0 7.825 1.167 10.849 3.502 3.025 2.301 5.343 5.54 6.954 9.715 1.644 4.176 2.466 9.025 2.466 14.548v1.036c0 5.326-.822 9.995-2.466 14.006-1.611 3.978-3.945 7.069-7.003 9.271-3.057 2.203-6.74 3.305-11.047 3.305-2.63 0-4.948-.494-6.953-1.48-1.973-.986-3.683-2.433-5.129-4.34v13.562l6.016 1.578v10.16h-29.836Zm30.773-32.648c3.124 0 5.294-1.167 6.51-3.501 1.217-2.367 1.825-5.672 1.825-9.913v-1.036c0-2.926-.28-5.474-.839-7.644-.558-2.17-1.463-3.846-2.712-5.03-1.216-1.216-2.844-1.825-4.882-1.825-1.48 0-2.828.329-4.044.987-1.184.657-2.121 1.644-2.811 2.959v21.748c.69 1.085 1.644 1.907 2.86 2.466 1.217.526 2.581.789 4.093.789Zm57.503 13.168c-5.49 0-10.192-1.135-14.104-3.403-3.88-2.302-6.855-5.491-8.926-9.568-2.039-4.109-3.058-8.86-3.058-14.252v-.986c0-5.327 1.019-10.028 3.058-14.105 2.071-4.077 5.046-7.266 8.926-9.567 3.879-2.335 8.548-3.502 14.006-3.502 5.49 0 10.159 1.151 14.005 3.452 3.88 2.302 6.839 5.491 8.877 9.568 2.072 4.077 3.107 8.795 3.107 14.154v.986c0 5.359-1.035 10.093-3.107 14.203-2.038 4.077-4.997 7.266-8.877 9.567-3.846 2.302-8.482 3.453-13.907 3.453Zm0-13.168c2.104 0 3.781-.559 5.031-1.677 1.282-1.15 2.202-2.778 2.761-4.882.592-2.104.888-4.603.888-7.496v-.986c0-2.795-.296-5.228-.888-7.299-.559-2.104-1.479-3.732-2.761-4.882-1.283-1.184-2.992-1.776-5.129-1.776-2.105 0-3.798.592-5.08 1.776-1.282 1.15-2.203 2.778-2.762 4.882-.559 2.071-.838 4.504-.838 7.299v.986c0 2.926.279 5.441.838 7.545.559 2.105 1.48 3.716 2.762 4.833 1.282 1.118 3.008 1.677 5.178 1.677Zm55.284 13.168c-4.208 0-8.137-.378-11.787-1.135-3.616-.789-6.888-1.857-9.814-3.205l-.197-16.62h11.688l1.973 7.743c.69.427 1.578.805 2.663 1.134 1.085.296 2.383.444 3.896.444 2.794 0 4.718-.378 5.77-1.134 1.052-.756 1.578-1.71 1.578-2.861 0-1.117-.608-2.137-1.825-3.057-1.183-.954-3.731-1.792-7.644-2.515-6.247-1.217-10.849-3.288-13.808-6.214-2.959-2.959-4.439-6.642-4.439-11.047 0-2.992.691-5.754 2.071-8.285 1.381-2.532 3.633-4.57 6.757-6.116 3.156-1.578 7.364-2.367 12.625-2.367 4.011 0 7.825.345 11.441 1.036 3.65.69 6.641 1.562 8.976 2.614l-.05 16.077h-11.638l-1.48-6.904a8.308 8.308 0 0 0-2.564-1.184c-.954-.263-2.022-.395-3.206-.395-2.203 0-3.814.395-4.833 1.184-1.019.789-1.529 1.808-1.529 3.058 0 .723.214 1.446.642 2.17.46.723 1.348 1.413 2.663 2.071 1.315.657 3.238 1.266 5.77 1.825 6.082 1.348 10.652 3.222 13.71 5.622 3.09 2.4 4.635 6.049 4.635 10.948 0 5.26-1.89 9.436-5.671 12.526-3.748 3.058-9.206 4.587-16.373 4.587ZM550.558 578v-10.11l6.263-1.578v-29.935l-7.447-1.578V524.64h24.757v41.672l6.214 1.578V578h-29.787Zm5.77-63.47v-13.464h17.803v13.464h-17.803Zm49.957 64.604c-5.589 0-9.847-1.479-12.773-4.438-2.893-2.992-4.34-7.71-4.34-14.154v-23.968h-6.657V524.64h6.657v-13.168h17.212v13.168h8.729v11.934h-8.729v23.919c0 1.742.394 2.959 1.183 3.649.789.691 1.874 1.036 3.255 1.036.592 0 1.184-.033 1.776-.099a33.922 33.922 0 0 0 1.775-.246l1.184 12.92a36.674 36.674 0 0 1-4.587.987 27.299 27.299 0 0 1-4.685.394ZM621.869 578v-10.11l6.263-1.578v-29.935l-7.446-1.578V524.64h24.756v41.672l6.214 1.578V578h-29.787Zm5.77-63.47v-13.464h17.803v13.464h-17.803Zm46.16 63.47-14.351-42.215-5.918-.986V524.64h28.061v10.11l-4.783.986 5.671 20.368 1.085 4.043h.296l1.331-4.043 7.447-20.319-6.164-1.035v-10.11h28.011v10.159l-6.115 1.183L692.194 578h-18.395Zm69.684 1.036c-5.227 0-9.797-1.118-13.71-3.354-3.879-2.268-6.904-5.359-9.074-9.271-2.137-3.913-3.205-8.335-3.205-13.266v-1.825c0-5.425.953-10.225 2.86-14.401 1.907-4.175 4.702-7.43 8.384-9.764 3.682-2.367 8.203-3.535 13.562-3.502 4.833 0 8.91.937 12.23 2.811 3.354 1.842 5.902 4.57 7.644 8.187 1.743 3.584 2.614 8.006 2.614 13.266v8.926h-29.343l-.049.345c.263 1.677.821 3.173 1.676 4.488.888 1.282 2.104 2.302 3.65 3.058 1.545.756 3.452 1.134 5.72 1.134 2.236 0 4.422-.246 6.559-.74 2.17-.526 4.455-1.348 6.855-2.465l3.946 10.455c-2.4 1.709-5.326 3.123-8.779 4.241-3.452 1.118-7.298 1.677-11.54 1.677Zm-8.038-32.894h13.562v-1.283c0-1.907-.197-3.501-.592-4.783-.362-1.283-1.003-2.252-1.923-2.91-.921-.658-2.187-.986-3.798-.986-1.742 0-3.139.427-4.192 1.282-1.019.822-1.775 1.973-2.268 3.452-.46 1.447-.789 3.107-.986 4.981l.197.247Zm58.933 32.894c-4.208 0-8.137-.378-11.787-1.135-3.616-.789-6.888-1.857-9.814-3.205l-.197-16.62h11.688l1.973 7.743c.69.427 1.578.805 2.663 1.134 1.085.296 2.383.444 3.896.444 2.794 0 4.718-.378 5.77-1.134 1.052-.756 1.578-1.71 1.578-2.861 0-1.117-.608-2.137-1.825-3.057-1.183-.954-3.731-1.792-7.644-2.515-6.247-1.217-10.849-3.288-13.808-6.214-2.959-2.959-4.439-6.642-4.439-11.047 0-2.992.691-5.754 2.071-8.285 1.381-2.532 3.633-4.57 6.757-6.116 3.156-1.578 7.364-2.367 12.625-2.367 4.011 0 7.825.345 11.441 1.036 3.65.69 6.641 1.562 8.976 2.614l-.05 16.077h-11.638l-1.48-6.904a8.308 8.308 0 0 0-2.564-1.184c-.954-.263-2.022-.395-3.206-.395-2.203 0-3.814.395-4.833 1.184-1.019.789-1.529 1.808-1.529 3.058 0 .723.214 1.446.642 2.17.46.723 1.348 1.413 2.663 2.071 1.315.657 3.238 1.266 5.77 1.825 6.082 1.348 10.652 3.222 13.71 5.622 3.09 2.4 4.635 6.049 4.635 10.948 0 5.26-1.89 9.436-5.671 12.526-3.748 3.058-9.206 4.587-16.373 4.587Z" fill="#3C4043"/><path d="M1093.52 578v-10.11l6.22-1.578v-29.935l-7.4-1.578V524.64h23.77l.59 7.446c1.78-2.663 3.95-4.734 6.51-6.213 2.6-1.48 5.54-2.22 8.83-2.22 5 0 8.94 1.694 11.83 5.08 2.9 3.386 4.34 8.762 4.34 16.126v21.453l6.22 1.578V578h-28.61v-10.11l5.03-1.578V544.81c0-2.86-.57-4.882-1.72-6.066-1.15-1.216-2.8-1.825-4.93-1.825-1.61 0-2.99.296-4.15.888-1.15.559-2.15 1.414-3 2.565v25.94l4.43 1.578V578h-27.96Zm90.25 1.036c-5.23 0-9.8-1.118-13.71-3.354-3.88-2.268-6.9-5.359-9.07-9.271-2.14-3.913-3.21-8.335-3.21-13.266v-1.825c0-5.425.96-10.225 2.86-14.401 1.91-4.175 4.7-7.43 8.39-9.764 3.68-2.367 8.2-3.535 13.56-3.502 4.83 0 8.91.937 12.23 2.811 3.35 1.842 5.9 4.57 7.64 8.187 1.74 3.584 2.62 8.006 2.62 13.266v8.926h-29.35l-.05.345c.27 1.677.83 3.173 1.68 4.488.89 1.282 2.1 2.302 3.65 3.058 1.55.756 3.45 1.134 5.72 1.134 2.24 0 4.42-.246 6.56-.74 2.17-.526 4.45-1.348 6.85-2.465l3.95 10.455c-2.4 1.709-5.33 3.123-8.78 4.241-3.45 1.118-7.3 1.677-11.54 1.677Zm-8.04-32.894h13.56v-1.283c0-1.907-.19-3.501-.59-4.783-.36-1.283-1-2.252-1.92-2.91-.92-.658-2.19-.986-3.8-.986-1.74 0-3.14.427-4.19 1.282-1.02.822-1.77 1.973-2.27 3.452-.46 1.447-.79 3.107-.98 4.981l.19.247Zm57.8 53.409c-2.79 0-5.98-.345-9.57-1.035-3.58-.691-6.74-1.694-9.46-3.009l2.76-11.934a46.109 46.109 0 0 0 7.84 2.318c2.66.559 5.08.838 7.25.838 3.55 0 6.15-.986 7.79-2.959 1.68-1.94 2.52-4.603 2.52-7.989v-2.515c-1.48 1.841-3.21 3.271-5.18 4.29-1.94.986-4.18 1.48-6.71 1.48-4.34 0-8.05-1.102-11.15-3.305-3.09-2.202-5.45-5.293-7.1-9.271-1.61-4.011-2.41-8.68-2.41-14.006v-1.036c0-5.556.8-10.405 2.41-14.548 1.61-4.175 3.92-7.414 6.91-9.715 3.02-2.335 6.62-3.502 10.8-3.502 3.09 0 5.72.674 7.89 2.022 2.17 1.348 4.03 3.239 5.57 5.672l1.09-6.707h15.23v51.239c0 4.735-1.08 8.877-3.25 12.428-2.14 3.551-5.19 6.313-9.17 8.285-3.95 1.973-8.63 2.959-14.06 2.959Zm2.32-33.781c1.45 0 2.76-.231 3.94-.691 1.19-.493 2.14-1.233 2.87-2.219v-22.34c-.73-1.184-1.68-2.072-2.87-2.664-1.18-.624-2.49-.937-3.94-.937-2.07 0-3.73.609-4.98 1.825-1.22 1.184-2.11 2.86-2.66 5.03-.53 2.17-.79 4.718-.79 7.644v1.036c0 4.241.6 7.529 1.82 9.863 1.22 2.302 3.42 3.453 6.61 3.453Zm22.14-29.196-7.79-11.934h15.88v10.208l-8.09 1.726Zm30.53 42.462c-5.16 0-9.37-1.463-12.63-4.39-3.25-2.926-4.88-6.822-4.88-11.688 0-3.32.89-6.263 2.67-8.827 1.8-2.565 4.5-4.57 8.08-6.017 3.62-1.479 8.14-2.219 13.57-2.219h5.57v-3.156c0-2.137-.61-3.946-1.83-5.425-1.21-1.512-3.14-2.269-5.77-2.269-1.11 0-2.17.148-3.15.444-.96.263-1.83.658-2.62 1.184l-1.18 6.806h-12.18l-.25-14.845a79.152 79.152 0 0 1 9.47-3.501c3.32-.987 7.02-1.48 11.1-1.48 7.26 0 13.03 1.677 17.31 5.031 4.27 3.32 6.41 8.071 6.41 14.252v21.897c.03.723.11 1.413.24 2.071l5.77.986V578H1304c-.42-.592-.88-1.381-1.38-2.367-.49-.987-.83-1.973-1.03-2.959-1.61 2.005-3.42 3.567-5.43 4.685-2 1.118-4.55 1.677-7.64 1.677Zm5.33-12.231c1.25 0 2.49-.246 3.74-.74a8.948 8.948 0 0 0 3.31-2.317v-7.694h-5.38c-2.33 0-4.14.51-5.42 1.529-1.25 1.019-1.88 2.367-1.88 4.044 0 1.611.53 2.877 1.58 3.797 1.05.921 2.4 1.381 4.05 1.381Zm53.45 12.329c-5.58 0-9.84-1.479-12.77-4.438-2.89-2.992-4.34-7.71-4.34-14.154v-23.968h-6.66V524.64h6.66v-13.168h17.21v13.168h8.73v11.934h-8.73v23.919c0 1.742.4 2.959 1.19 3.649.79.691 1.87 1.036 3.25 1.036.59 0 1.19-.033 1.78-.099a33.59 33.59 0 0 0 1.77-.246l1.19 12.92c-1.52.428-3.05.757-4.59.987-1.51.263-3.07.394-4.69.394Zm15.59-1.134v-10.11l6.26-1.578v-29.935l-7.44-1.578V524.64h24.75v41.672l6.22 1.578V578h-29.79Zm5.77-63.47v-13.464h17.8v13.464h-17.8Zm46.16 63.47-14.35-42.215-5.92-.986V524.64h28.06v10.11l-4.78.986 5.67 20.368 1.08 4.043h.3l1.33-4.043 7.45-20.319-6.17-1.035v-10.11h28.01v10.159l-6.11 1.183L1433.21 578h-18.39Zm69.68 1.036c-5.22 0-9.79-1.118-13.71-3.354-3.88-2.268-6.9-5.359-9.07-9.271-2.14-3.913-3.21-8.335-3.21-13.266v-1.825c0-5.425.96-10.225 2.86-14.401 1.91-4.175 4.71-7.43 8.39-9.764 3.68-2.367 8.2-3.535 13.56-3.502 4.83 0 8.91.937 12.23 2.811 3.35 1.842 5.9 4.57 7.64 8.187 1.75 3.584 2.62 8.006 2.62 13.266v8.926h-29.35l-.04.345c.26 1.677.82 3.173 1.67 4.488.89 1.282 2.11 2.302 3.65 3.058 1.55.756 3.45 1.134 5.72 1.134 2.24 0 4.42-.246 6.56-.74 2.17-.526 4.46-1.348 6.86-2.465l3.94 10.455c-2.4 1.709-5.32 3.123-8.78 4.241-3.45 1.118-7.3 1.677-11.54 1.677Zm-8.04-32.894h13.57v-1.283c0-1.907-.2-3.501-.6-4.783-.36-1.283-1-2.252-1.92-2.91-.92-.658-2.19-.986-3.8-.986-1.74 0-3.14.427-4.19 1.282-1.02.822-1.77 1.973-2.27 3.452-.46 1.447-.79 3.107-.98 4.981l.19.247Zm58.94 32.894c-4.21 0-8.14-.378-11.79-1.135-3.62-.789-6.89-1.857-9.81-3.205l-.2-16.62h11.69l1.97 7.743c.69.427 1.58.805 2.66 1.134 1.09.296 2.39.444 3.9.444 2.79 0 4.72-.378 5.77-1.134 1.05-.756 1.58-1.71 1.58-2.861 0-1.117-.61-2.137-1.83-3.057-1.18-.954-3.73-1.792-7.64-2.515-6.25-1.217-10.85-3.288-13.81-6.214-2.96-2.959-4.44-6.642-4.44-11.047 0-2.992.69-5.754 2.07-8.285 1.38-2.532 3.64-4.57 6.76-6.116 3.16-1.578 7.36-2.367 12.62-2.367 4.02 0 7.83.345 11.45 1.036 3.65.69 6.64 1.562 8.97 2.614l-.05 16.077h-11.64l-1.48-6.904a8.253 8.253 0 0 0-2.56-1.184c-.95-.263-2.02-.395-3.21-.395-2.2 0-3.81.395-4.83 1.184-1.02.789-1.53 1.808-1.53 3.058 0 .723.22 1.446.64 2.17.46.723 1.35 1.413 2.67 2.071 1.31.657 3.23 1.266 5.77 1.825 6.08 1.348 10.65 3.222 13.71 5.622 3.09 2.4 4.63 6.049 4.63 10.948 0 5.26-1.89 9.436-5.67 12.526-3.75 3.058-9.21 4.587-16.37 4.587Z" fill="#fff"/></svg>