<svg xmlns="http://www.w3.org/2000/svg" width="1920" height="1080" fill="none"><path fill="#1A73E8" d="M244.752 350.914c15.552 0 28.224-12.6 28.224-28.152 0-15.552-12.672-28.224-28.224-28.224S216.6 307.21 216.6 322.762s12.6 28.152 28.152 28.152Zm-2.088-14.904v-19.8l-5.4 2.664v-5.184l6.48-3.528h4.32v25.848h-5.4ZM888.752 294.538c-15.552 0-28.152 12.672-28.152 28.224s12.6 28.152 28.152 28.152c15.552 0 28.224-12.6 28.224-28.152 0-15.552-12.672-28.224-28.224-28.224Zm9.072 41.112h-17.496v-3.6l9-9.936c1.44-1.584 2.304-3.024 2.304-4.608 0-2.16-1.584-3.456-4.68-3.456-2.016 0-4.104.576-6.336 1.944v-4.824c2.016-1.296 4.608-1.872 7.344-1.872 5.544 0 9.288 2.304 9.288 7.128 0 3.24-1.584 5.832-4.032 8.28l-6.192 6.48h10.8v4.464ZM284.96 525h22.32v-70.32c0-23.04 16.8-40.56 34.8-40.56 1.92 0 3.6.24 5.28.48v-21.36c-17.76 0-31.2 9.36-40.08 22.56v-19.2h-22.32V525Zm73.993 0h152.16v-20.16l-61.68-138.48h-25.68l-64.8 138.48V525Zm25.2-21.12 51.84-115.2 48.72 115.2h-100.56Zm147.263-13.92h19.68v-88.8h-19.68v88.8Zm534.924-88.8v35.04h-33.6v18.72h33.6v35.04h21.12v-35.04h33.6V436.2h-33.6v-35.04h-21.12Zm225.67-34.8h-21.36l-124.32 66.48v25.68L1270.65 525h21.36V366.36Zm-124.56 79.2 101.76-52.8v105.36l-101.76-52.56Zm217.4-3.12v6c0 18.48-10.32 22.56-21.36 22.56h-31.92v18.96h32.4c24.48 0 42-10.32 42-41.52v-6c0-30.96-17.52-41.28-42-41.28h-32.4v18.96h31.92c11.04 0 21.36 4.32 21.36 22.32Zm150.65 86.16c31.92 0 46.8-19.68 46.8-42.48 0-21.36-9.12-35.28-31.68-40.8 22.56-5.76 31.68-19.92 31.68-40.8 0-22.56-14.88-41.52-46.8-41.52-30 0-43.2 21.12-66.48 21.12-8.64 0-11.76-5.28-11.76-12 0-1.68.24-3.6.48-5.76h-20.4c-.72 2.88-1.44 6-1.44 10.56 0 17.76 11.76 27.6 32.64 27.6 25.68 0 43.44-21.12 66.96-21.12 14.16 0 24 6.96 24 22.32 0 16.8-9.84 26.16-30.24 28.8-3.84-6.48-11.04-11.04-19.2-11.04-8.4 0-15.84 4.8-19.68 11.76h-53.28v20.16h52.56c3.6 7.68 11.28 12.72 20.4 12.72 8.64 0 16.32-4.8 20.16-12 19.68 2.64 29.28 11.76 29.28 28.8 0 15.6-9.84 23.28-24 23.28-22.8 0-40.56-21.36-66.96-21.36-20.88 0-32.64 9.84-32.64 27.6 0 4.56.72 7.68 1.44 10.56h20.4c-.24-2.16-.48-4.08-.48-5.76 0-6.72 3.12-12 11.76-12 23.28 0 36.48 21.36 66.48 21.36Zm77.81-45.12c5.52 3.84 18.96 7.92 32.88 7.92 22.32 0 39.36-7.68 39.36-29.52 0-16.56-9.84-22.56-29.76-24.72l-8.4-.96c-5.28-.72-14.88-2.16-14.88-9.6 0-6.48 5.52-9.36 16.08-9.36 11.76 0 23.52 3.84 33.84 9.84V407.4c-7.68-4.8-20.88-7.92-33.12-7.92-21.84 0-36.96 8.16-36.96 27.36 0 18.72 12.96 24.24 29.52 26.16l8.4.96c8.4.96 15.12 3.12 15.12 9.84 0 6-4.8 9.84-18.24 9.84-14.64 0-23.52-4.32-33.84-9.36v19.2Z"/><path fill="#FF6D7F" d="M584.731 401.4v32.64c0 20.16 7.2 35.28 29.76 35.28 11.28 0 19.2-3.12 23.76-8.64v29.52h21.12v-88.8h-21.12v28.56c0 11.28-2.64 21.36-17.52 21.36-11.76 0-14.88-6.48-14.88-19.68V401.4h-21.12Zm344.532 0v32.64c0 20.16 7.2 35.28 29.76 35.28 11.28 0 19.2-3.12 23.76-8.64v29.52h21.117v-88.8h-21.117v28.56c0 11.28-2.64 21.36-17.52 21.36-11.76 0-14.88-6.48-14.88-19.68V401.4h-21.12Z"/><path fill="#1A73E8" d="M267.08 776.16c0-5.12-3.28-9.36-10.16-9.36h-11.56V797h5.68v-11.04h5.72l4.88 11.04h6.4l-5.84-12.16c3.24-1.64 4.88-4.88 4.88-8.68Zm-11.76-4.6c4.04 0 6 1.24 6 4.84 0 3-1.44 4.88-5.56 4.88h-4.72v-9.72h4.28Zm25.352 3.12c-5.8 0-9.8 3.72-9.8 10.16v2.64c0 6.56 3.84 10.12 10.56 10.12 3.6 0 6-.52 8.64-2v-4.28c-2.96 1.56-5.12 1.76-7.76 1.76-3.48 0-5.64-1.48-5.88-4.96h14.12v-3.52c0-6.64-4.08-9.92-9.88-9.92Zm0 4.36c2.88 0 4.28 1.64 4.32 5.32h-8.56c.08-3.52 1.56-5.32 4.24-5.32Zm14.519 26.84h5.48V794.6c1.32 1.8 3.28 3 6.08 3 5.72 0 9-3.36 9-9.96v-3c0-6.16-3.04-9.96-8.84-9.96-2.88 0-4.92 1.2-6.24 3.04v-2.48h-5.48v30.64Zm5.48-18.04v-4c.24-3 2.32-4.8 4.76-4.8 2.88 0 4.64 1.84 4.64 5.4v3.4c0 3.56-1.72 5.44-4.56 5.44s-4.84-2.4-4.84-5.44Zm19.754 9.16h5.48v-10c.04-4.16 2.24-6.96 5.6-6.96.4 0 .76.04 1.12.12v-5.48c-3.08 0-5.32 1.68-6.72 4.04v-3.48h-5.48V797Zm24.232-22.32c-5.8 0-9.8 3.72-9.8 10.16v2.64c0 6.56 3.84 10.12 10.56 10.12 3.6 0 6-.52 8.64-2v-4.28c-2.96 1.56-5.12 1.76-7.76 1.76-3.48 0-5.64-1.48-5.88-4.96h14.12v-3.52c0-6.64-4.08-9.92-9.88-9.92Zm0 4.36c2.88 0 4.28 1.64 4.32 5.32h-8.56c.08-3.52 1.56-5.32 4.24-5.32Zm13.878 16.8c2.08 1.08 5.52 1.68 8.04 1.68 4.56 0 9.72-1.88 9.72-7.24 0-4.36-2.72-6.04-6.76-6.4l-2.68-.24c-2.08-.2-3.56-.56-3.56-2.2 0-1.56 1.48-2.4 4.16-2.4 2.48 0 5.44.8 7.76 2.16v-4.84c-1.84-1.08-4.96-1.68-7.96-1.68-4.48 0-9.08 2.04-9.08 6.92 0 4.68 3.24 6.12 6.64 6.44l2.8.32c2.2.2 3.48.72 3.48 2.4 0 1.72-1.8 2.48-4.36 2.48-3.04 0-5.8-.8-8.2-2v4.6Zm31.043-21.16c-5.8 0-9.8 3.72-9.8 10.16v2.64c0 6.56 3.84 10.12 10.56 10.12 3.6 0 6-.52 8.64-2v-4.28c-2.96 1.56-5.12 1.76-7.76 1.76-3.48 0-5.64-1.48-5.88-4.96h14.12v-3.52c0-6.64-4.08-9.92-9.88-9.92Zm0 4.36c2.88 0 4.28 1.64 4.32 5.32h-8.56c.08-3.52 1.56-5.32 4.24-5.32ZM404.097 797h5.48v-11.88c0-4 1.92-5.52 4.68-5.52 2.6 0 4.24 1.64 4.24 5.36V797h5.48v-13.56c0-5.6-2.56-8.76-7.64-8.76-3.2 0-5.32 1.36-6.76 3.44v-2.88h-5.48V797Zm26.598-6.8c0 4.72 2.52 7.4 7.32 7.4 1.24 0 2.8-.2 3.72-.44v-4.48c-.72.2-1.72.28-2.52.28-2.12 0-3.04-.84-3.04-3.56v-9.88h5.24v-4.28h-5.24V769h-5.48v6.24h-3.48v4.28h3.48v10.68Zm32.762 6.8v-13.64c0-4.68-1.64-8.68-9.4-8.68-3.6 0-6.24.84-8.32 2.32v4.96c2.44-1.8 4.84-2.4 7.4-2.4 4.56 0 4.84 2.16 4.84 4.8h-4.4c-4.12 0-9.04 1.04-9.04 6.84 0 3.96 2.56 6.4 7.16 6.4 3 0 5-.96 6.28-3v2.4h5.48Zm-5.48-8.32c0 3.84-2.36 4.88-4.84 4.88-2.2 0-3.28-.88-3.28-2.68 0-2.52 1.84-2.84 4.4-2.84h3.72v.64Zm12.249 1.52c0 4.72 2.52 7.4 7.32 7.4 1.24 0 2.8-.2 3.72-.44v-4.48c-.72.2-1.72.28-2.52.28-2.12 0-3.04-.84-3.04-3.56v-9.88h5.24v-4.28h-5.24V769h-5.48v6.24h-3.48v4.28h3.48v10.68Zm15.002-18.72h5.64v-5.44h-5.64v5.44Zm.08 25.52h5.48v-21.76h-5.48V797Zm10.174-9.52c0 6.8 4.48 10.12 10.28 10.12 5.8 0 10.36-3.32 10.36-10.12v-2.64c0-6.84-4.56-10.16-10.36-10.16s-10.28 3.32-10.28 10.16v2.64Zm5.6-2.68c0-3.92 1.76-5.76 4.68-5.76s4.72 1.84 4.72 5.76v2.68c0 3.92-1.8 5.8-4.72 5.8s-4.68-1.88-4.68-5.8v-2.68Zm19.695 12.2h5.48v-11.88c0-4 1.92-5.52 4.68-5.52 2.6 0 4.24 1.64 4.24 5.36V797h5.48v-13.56c0-5.6-2.56-8.76-7.64-8.76-3.2 0-5.32 1.36-6.76 3.44v-2.88h-5.48V797Zm33.767-9.52c0 6.8 4.48 10.12 10.28 10.12 5.8 0 10.36-3.32 10.36-10.12v-2.64c0-6.84-4.56-10.16-10.36-10.16s-10.28 3.32-10.28 10.16v2.64Zm5.6-2.68c0-3.92 1.76-5.76 4.68-5.76s4.72 1.84 4.72 5.76v2.68c0 3.92-1.8 5.8-4.72 5.8s-4.68-1.88-4.68-5.8v-2.68Zm20.542 12.2h5.48v-17.48h5.04v-4.28h-5.04v-1.12c0-2.76 1.32-3.6 3.56-3.6.76 0 1.44.16 2 .32v-4.24c-.84-.24-2.08-.36-3.2-.36-4.92 0-7.84 2.64-7.84 7.36v1.64h-2.4v4.28h2.4V797Zm19.837-20.28h4.76l1.72-9.92h-4.36l-2.12 9.92Zm8.52 0h4.76l1.76-9.92h-4.4l-2.12 9.92ZM621.076 797h5.48v-17.48h5.04v-4.28h-5.04v-1.12c0-2.76 1.32-3.6 3.56-3.6.76 0 1.44.16 2 .32v-4.24c-.84-.24-2.08-.36-3.2-.36-4.92 0-7.84 2.64-7.84 7.36v1.64h-2.4v4.28h2.4V797Zm13.636-20.28h4.36l1.92-9.92h-4.96l-1.32 9.92Zm8.52 0h4.36l1.92-9.92h-4.96l-1.32 9.92Zm27.578-2.04c-7.08 0-10.68 4-10.68 10.16v2.64c0 6.4 3.68 10.12 10.4 10.12 2.84 0 5.12-.64 6.76-1.72v-4.52c-2.24 1.32-4.24 1.76-6.24 1.76-3.24 0-5.28-1.88-5.28-5.44v-3c0-3.76 2-5.52 5.32-5.52 1.92 0 4.08.44 6.32 1.8v-4.8c-2.12-1.12-4.52-1.48-6.6-1.48Zm10.14 12.8c0 6.8 4.48 10.12 10.28 10.12 5.8 0 10.36-3.32 10.36-10.12v-2.64c0-6.84-4.56-10.16-10.36-10.16s-10.28 3.32-10.28 10.16v2.64Zm5.6-2.68c0-3.92 1.76-5.76 4.68-5.76s4.72 1.84 4.72 5.76v2.68c0 3.92-1.8 5.8-4.72 5.8s-4.68-1.88-4.68-5.8v-2.68Zm19.695 12.2h5.48v-11.88c0-4 1.92-5.52 4.68-5.52 2.6 0 4.24 1.64 4.24 5.36V797h5.48v-13.56c0-5.6-2.56-8.76-7.64-8.76-3.2 0-5.32 1.36-6.76 3.44v-2.88h-5.48V797Zm24.634-1.16c2.08 1.08 5.52 1.68 8.04 1.68 4.56 0 9.72-1.88 9.72-7.24 0-4.36-2.72-6.04-6.76-6.4l-2.68-.24c-2.08-.2-3.56-.56-3.56-2.2 0-1.56 1.48-2.4 4.16-2.4 2.48 0 5.44.8 7.76 2.16v-4.84c-1.84-1.08-4.96-1.68-7.96-1.68-4.48 0-9.08 2.04-9.08 6.92 0 4.68 3.24 6.12 6.64 6.44l2.8.32c2.2.2 3.48.72 3.48 2.4 0 1.72-1.8 2.48-4.36 2.48-3.04 0-5.8-.8-8.2-2v4.6Zm21.243-8.36c0 6.8 4.48 10.12 10.28 10.12 5.8 0 10.36-3.32 10.36-10.12v-2.64c0-6.84-4.56-10.16-10.36-10.16s-10.28 3.32-10.28 10.16v2.64Zm5.6-2.68c0-3.92 1.76-5.76 4.68-5.76s4.72 1.84 4.72 5.76v2.68c0 3.92-1.8 5.8-4.72 5.8s-4.68-1.88-4.68-5.8v-2.68Zm19.695 12.2h5.48v-11.88c0-4 1.92-5.52 4.68-5.52 2.6 0 4.24 1.64 4.24 5.36V797h5.48v-13.56c0-5.6-2.56-8.76-7.64-8.76-3.2 0-5.32 1.36-6.76 3.44v-2.88h-5.48V797Zm42.954 0v-13.64c0-4.68-1.64-8.68-9.4-8.68-3.6 0-6.24.84-8.32 2.32v4.96c2.44-1.8 4.84-2.4 7.4-2.4 4.56 0 4.84 2.16 4.84 4.8h-4.4c-4.12 0-9.04 1.04-9.04 6.84 0 3.96 2.56 6.4 7.16 6.4 3 0 5-.96 6.28-3v2.4h5.48Zm-5.48-8.32c0 3.84-2.36 4.88-4.84 4.88-2.2 0-3.28-.88-3.28-2.68 0-2.52 1.84-2.84 4.4-2.84h3.72v.64Zm10.925 8.32h5.48v-11.88c0-4 1.92-5.52 4.68-5.52 2.6 0 4.24 1.64 4.24 5.36V797h5.48v-13.56c0-5.6-2.56-8.76-7.64-8.76-3.2 0-5.32 1.36-6.76 3.44v-2.88h-5.48V797Zm26.598-6.8c0 4.72 2.52 7.4 7.32 7.4 1.24 0 2.8-.2 3.72-.44v-4.48c-.72.2-1.72.28-2.52.28-2.12 0-3.04-.84-3.04-3.56v-9.88h5.24v-4.28h-5.24V769h-5.48v6.24h-3.48v4.28h3.48v10.68Zm25.615 6.8h5.48v-17.48h5.04v-4.28h-5.04v-1.12c0-2.76 1.32-3.6 3.56-3.6.76 0 1.44.16 2 .32v-4.24c-.84-.24-2.08-.36-3.2-.36-4.92 0-7.84 2.64-7.84 7.36v1.64h-2.4v4.28h2.4V797Zm13.996-25.52h5.64v-5.44h-5.64v5.44Zm.08 25.52h5.48v-21.76h-5.48V797Zm11.093 0h5.48v-11.88c0-4 1.92-5.52 4.68-5.52 2.6 0 4.24 1.64 4.24 5.36V797h5.48v-13.56c0-5.6-2.56-8.76-7.64-8.76-3.2 0-5.32 1.36-6.76 3.44v-2.88h-5.48V797Zm42.954 0v-13.64c0-4.68-1.64-8.68-9.4-8.68-3.6 0-6.24.84-8.32 2.32v4.96c2.44-1.8 4.84-2.4 7.4-2.4 4.56 0 4.84 2.16 4.84 4.8h-4.4c-4.12 0-9.04 1.04-9.04 6.84 0 3.96 2.56 6.4 7.16 6.4 3 0 5-.96 6.28-3v2.4h5.48Zm-5.48-8.32c0 3.84-2.36 4.88-4.84 4.88-2.2 0-3.28-.88-3.28-2.68 0-2.52 1.84-2.84 4.4-2.84h3.72v.64Zm10.805 2.52c0 4.44 2.04 6.4 6.24 6.4 1.12 0 2.44-.2 3.28-.48v-4.44c-.44.2-1.16.32-1.96.32-1.68 0-2.08-.84-2.08-3.28V766.8h-5.48v24.4Zm23.427 5.8h5.48v-17.48h5.04v-4.28h-5.04v-1.12c0-2.76 1.32-3.6 3.56-3.6.76 0 1.44.16 2 .32v-4.24c-.84-.24-2.08-.36-3.2-.36-4.92 0-7.84 2.64-7.84 7.36v1.64h-2.4v4.28h2.4V797Zm12.687-9.52c0 6.8 4.48 10.12 10.28 10.12 5.799 0 10.359-3.32 10.359-10.12v-2.64c0-6.84-4.56-10.16-10.359-10.16-5.8 0-10.28 3.32-10.28 10.16v2.64Zm5.6-2.68c0-3.92 1.76-5.76 4.68-5.76 2.919 0 4.719 1.84 4.719 5.76v2.68c0 3.92-1.8 5.8-4.719 5.8-2.92 0-4.68-1.88-4.68-5.8v-2.68Zm19.699 12.2h5.48v-10c.04-4.16 2.24-6.96 5.6-6.96.4 0 .76.04 1.12.12v-5.48c-3.08 0-5.32 1.68-6.72 4.04v-3.48h-5.48V797Zm15.86 0h5.48v-11.92c0-3.64 1.64-5.48 4.44-5.48 2.6 0 4.08 1.64 4.08 5.36V797h5.48v-11.92c0-3.68 1.72-5.48 4.44-5.48 2.6 0 4.04 1.64 4.04 5.36V797h5.48v-13.56c0-5.6-2.36-8.76-7.44-8.76-3.6 0-5.88 1.36-7.4 3.88-1.08-2.52-3.24-3.88-6.6-3.88-3.12 0-5.16 1.28-6.52 3.32v-2.76h-5.48V797Zm48.2-25.52h5.64v-5.44h-5.64v5.44Zm.08 25.52h5.48v-21.76h-5.48V797Zm11.09 0h5.48v-11.88c0-4 1.92-5.52 4.68-5.52 2.6 0 4.24 1.64 4.24 5.36V797h5.48v-13.56c0-5.6-2.56-8.76-7.64-8.76-3.2 0-5.32 1.36-6.76 3.44v-2.88h-5.48V797Zm35.25 0h10.36c7.4 0 12.68-4.04 12.68-13.12v-3.68c0-9.08-5.28-13.4-12.68-13.4h-10.36V797Zm10.36-25.24c4.32 0 6.96 2.76 6.96 8.16v4.24c0 5.88-2.6 7.84-6.96 7.84h-4.68v-20.24h4.68ZM1169 797v-13.64c0-4.68-1.64-8.68-9.4-8.68-3.6 0-6.24.84-8.32 2.32v4.96c2.44-1.8 4.84-2.4 7.4-2.4 4.56 0 4.84 2.16 4.84 4.8h-4.4c-4.12 0-9.04 1.04-9.04 6.84 0 3.96 2.56 6.4 7.16 6.4 3 0 5-.96 6.28-3v2.4h5.48Zm-5.48-8.32c0 3.84-2.36 4.88-4.84 4.88-2.2 0-3.28-.88-3.28-2.68 0-2.52 1.84-2.84 4.4-2.84h3.72v.64Zm10.93 8.32h5.48v-9.12h2.68l5.2 9.12h6.2l-7.16-11.84 6.84-9.92h-6.24l-4.76 8.44h-2.76V766.8h-5.48V797Zm30.83-22.32c-5.8 0-9.8 3.72-9.8 10.16v2.64c0 6.56 3.84 10.12 10.56 10.12 3.6 0 6-.52 8.64-2v-4.28c-2.96 1.56-5.12 1.76-7.76 1.76-3.48 0-5.64-1.48-5.88-4.96h14.12v-3.52c0-6.64-4.08-9.92-9.88-9.92Zm0 4.36c2.88 0 4.28 1.64 4.32 5.32h-8.56c.08-3.52 1.56-5.32 4.24-5.32Zm14.4 12.16c0 4.44 2.04 6.4 6.24 6.4 1.12 0 2.44-.2 3.28-.48v-4.44c-.44.2-1.16.32-1.96.32-1.68 0-2.08-.84-2.08-3.28V766.8h-5.48v24.4Zm12.89 5.8h5.48v-11.8c0-4 1.84-5.6 4.68-5.6 2.6 0 4.24 1.64 4.24 5.36V797h5.48v-13.56c0-5.6-2.56-8.76-7.64-8.76-3.2 0-5.32 1.36-6.76 3.44V766.8h-5.48V797Zm34.29-1.8c2.92 1.6 6 2.24 9.36 2.24 6.36 0 11.72-2.8 11.72-9.32 0-5.04-2.96-7.92-8.36-8.6l-2.8-.36c-3.36-.44-4.6-1.32-4.6-3.96 0-2.8 1.96-4.08 5.68-4.08 3.04 0 6.16 1.04 8.72 2.8v-5.44c-2.2-1.52-5.72-2.16-9-2.16-5.96 0-11.08 2.84-11.08 9.12 0 4.92 2.64 7.84 7.64 8.52l3 .4c3.68.44 5.08 1.32 5.08 4.08s-2.04 4.24-5.6 4.24c-3.48 0-6.84-1.08-9.76-2.92v5.44Zm34.32 10.68 2.92-8.88 8-21.76h-5.64l-5.4 16.12-5.48-16.12h-5.8l8.68 22.76-2.84 7.88h5.56Zm14.01-14.68c0 4.44 2.04 6.4 6.24 6.4 1.12 0 2.44-.2 3.28-.48v-4.44c-.44.2-1.16.32-1.96.32-1.68 0-2.08-.84-2.08-3.28V766.8h-5.48v24.4Zm12.77 0c0 4.44 2.04 6.4 6.24 6.4 1.12 0 2.44-.2 3.28-.48v-4.44c-.44.2-1.16.32-1.96.32-1.68 0-2.08-.84-2.08-3.28V766.8h-5.48v24.4Zm30.57 5.8v-13.64c0-4.68-1.64-8.68-9.4-8.68-3.6 0-6.24.84-8.32 2.32v4.96c2.44-1.8 4.84-2.4 7.4-2.4 4.56 0 4.84 2.16 4.84 4.8h-4.4c-4.12 0-9.04 1.04-9.04 6.84 0 3.96 2.56 6.4 7.16 6.4 3 0 5-.96 6.28-3v2.4h5.48Zm-5.48-8.32c0 3.84-2.36 4.88-4.84 4.88-2.2 0-3.28-.88-3.28-2.68 0-2.52 1.84-2.84 4.4-2.84h3.72v.64Zm10.93 8.32h5.48v-2.72c1.32 1.96 3.32 3.32 6.24 3.32 5.72 0 8.84-3.36 8.84-9.96v-3c0-6.16-3.04-9.96-8.84-9.96-2.88 0-4.92 1.2-6.24 3.04V766.8h-5.48V797Zm5.48-9.16v-4c.24-3 2.32-4.8 4.76-4.8 2.88 0 4.64 1.84 4.64 5.4v3.4c0 3.56-1.72 5.44-4.56 5.44s-4.84-2.4-4.84-5.44Zm19.67-16.36h5.64v-5.44h-5.64v5.44Zm.08 25.52h5.48v-21.76h-5.48V797Zm20.86-22.32c-7.08 0-10.68 4-10.68 10.16v2.64c0 6.4 3.68 10.12 10.4 10.12 2.84 0 5.12-.64 6.76-1.72v-4.52c-2.24 1.32-4.24 1.76-6.24 1.76-3.24 0-5.28-1.88-5.28-5.44v-3c0-3.76 2-5.52 5.32-5.52 1.92 0 4.08.44 6.32 1.8v-4.8c-2.12-1.12-4.52-1.48-6.6-1.48Zm10.5 21.16c2.08 1.08 5.52 1.68 8.04 1.68 4.56 0 9.72-1.88 9.72-7.24 0-4.36-2.72-6.04-6.76-6.4l-2.68-.24c-2.08-.2-3.56-.56-3.56-2.2 0-1.56 1.48-2.4 4.16-2.4 2.48 0 5.44.8 7.76 2.16v-4.84c-1.84-1.08-4.96-1.68-7.96-1.68-4.48 0-9.08 2.04-9.08 6.92 0 4.68 3.24 6.12 6.64 6.44l2.8.32c2.2.2 3.48.72 3.48 2.4 0 1.72-1.8 2.48-4.36 2.48-3.04 0-5.8-.8-8.2-2v4.6ZM281.74 662h5.58v-17.58c0-5.76 4.2-10.14 8.7-10.14.48 0 .9.06 1.32.12v-5.34c-4.44 0-7.8 2.34-10.02 5.64v-4.8h-5.58V662Zm34.8-18.18c0 5.1 4.08 9.18 9.18 9.18s9.24-4.08 9.24-9.18-4.14-9.24-9.24-9.24c-5.1 0-9.18 4.14-9.18 9.24ZM382.785 662v-19.8c0-5.34 0-13.14-13.08-13.14-5.34 0-8.52 1.32-11.04 3.36v5.46c3.18-2.88 6.6-3.9 10.32-3.9 8.22 0 8.22 4.98 8.22 8.52v1.08h-6.6c-3.78 0-13.74 0-13.74 10.02 0 5.88 3.42 9.3 10.44 9.3 4.5 0 7.8-1.44 9.9-4.44V662h5.58Zm-5.58-11.94c0 6.18-4.86 8.1-9.06 8.1-3.78 0-5.7-1.56-5.7-4.92 0-4.92 4.2-4.92 7.86-4.92h6.9v1.74Zm29.335-6.24c0 5.1 4.08 9.18 9.18 9.18s9.24-4.08 9.24-9.18-4.14-9.24-9.24-9.24c-5.1 0-9.18 4.14-9.18 9.24Zm42.245 9.48c0 6.3 1.5 9.6 7.98 9.6 1.44 0 2.88-.36 3.66-.72v-4.8c-.66.3-1.68.54-3 .54-2.46 0-3.06-1.38-3.06-4.98V616.7h-5.58v36.6Zm31.994-9.48c0 5.1 4.08 9.18 9.18 9.18s9.24-4.08 9.24-9.18-4.14-9.24-9.24-9.24c-5.1 0-9.18 4.14-9.18 9.24Zm86.838 31.5h5.76c-4.38-6.24-8.82-23.16-8.82-34.8 0-11.58 3.9-25.56 8.82-31.8h-5.76c-5.28 6.84-9.24 19.44-9.24 31.8 0 12.42 4.14 28.68 9.24 34.8Zm42.456-45.48c0-7.44-4.74-13.14-15.06-13.14h-15.42V662h5.88v-18.18H596.453l8.7 18.18h6.96l-9.96-19.32c5.34-2.04 7.92-6.72 7.92-12.84Zm-15.78-7.86c6.54 0 9.72 2.28 9.72 8.4 0 4.44-1.86 8.28-9.06 8.28h-9.48v-16.68h8.82ZM642.707 662v-19.8c0-5.34 0-13.14-13.08-13.14-5.34 0-8.52 1.32-11.04 3.36v5.46c3.18-2.88 6.6-3.9 10.32-3.9 8.22 0 8.22 4.98 8.22 8.52v1.08h-6.6c-3.78 0-13.74 0-13.74 10.02 0 5.88 3.42 9.3 10.44 9.3 4.5 0 7.8-1.44 9.9-4.44V662h5.58Zm-5.58-11.94c0 6.18-4.86 8.1-9.06 8.1-3.78 0-5.7-1.56-5.7-4.92 0-4.92 4.2-4.92 7.86-4.92h6.9v1.74Zm14.51 3.24c0 6.3 1.5 9.6 7.98 9.6 1.44 0 2.88-.36 3.66-.72v-4.8c-.66.3-1.68.54-3 .54-2.46 0-3.06-1.38-3.06-4.98V616.7h-5.58v36.6Zm17.408 22.02h5.58v-18.06c2.1 3.24 5.28 5.64 9.9 5.64 8.58 0 13.08-5.82 13.08-14.94V644c0-8.46-4.38-14.94-13.08-14.94-4.5 0-7.8 2.04-9.9 5.04v-4.2h-5.58v45.42Zm5.58-27.06v-5.7c.54-4.8 4.62-8.58 9-8.58 5.16 0 8.4 3.6 8.4 9.72v4.56c0 6.12-3.12 9.72-8.28 9.72-5.1 0-9.12-4.92-9.12-9.72ZM705.607 662h5.58v-18.78c0-6.66 4.2-8.94 8.7-8.94 3.9 0 7.56 2.46 7.56 8.58V662h5.58v-19.56c0-8.4-3.66-13.38-11.76-13.38-4.5 0-7.86 1.86-10.08 4.86V616.7h-5.58V662Zm36.835-53.28h-5.76c4.38 6.24 8.82 20.16 8.82 31.8 0 11.58-3.9 28.56-8.82 34.8h5.76c5.28-6.84 9.24-22.44 9.24-34.8 0-12.42-4.14-25.68-9.24-31.8Zm245.583 35.1c0 5.1 4.08 9.18 9.18 9.18 5.095 0 9.235-4.08 9.235-9.18s-4.14-9.24-9.235-9.24c-5.1 0-9.18 4.14-9.18 9.24ZM1030.51 662h5.58v-17.58c0-5.76 4.2-10.14 8.7-10.14.48 0 .9.06 1.32.12v-5.34c-4.44 0-7.8 2.34-10.02 5.64v-4.8h-5.58V662Zm34.8-18.18c0 5.1 4.08 9.18 9.18 9.18s9.24-4.08 9.24-9.18-4.14-9.24-9.24-9.24c-5.1 0-9.18 4.14-9.18 9.24Zm66.24 18.18v-19.8c0-5.34 0-13.14-13.08-13.14-5.34 0-8.52 1.32-11.04 3.36v5.46c3.18-2.88 6.6-3.9 10.32-3.9 8.22 0 8.22 4.98 8.22 8.52v1.08h-6.6c-3.78 0-13.74 0-13.74 10.02 0 5.88 3.42 9.3 10.44 9.3 4.5 0 7.8-1.44 9.9-4.44V662h5.58Zm-5.58-11.94c0 6.18-4.86 8.1-9.06 8.1-3.78 0-5.7-1.56-5.7-4.92 0-4.92 4.2-4.92 7.86-4.92h6.9v1.74Zm29.34-6.24c0 5.1 4.08 9.18 9.18 9.18s9.24-4.08 9.24-9.18-4.14-9.24-9.24-9.24c-5.1 0-9.18 4.14-9.18 9.24Zm42.48 18.18h5.58v-18.78c0-6.66 4.2-8.94 8.7-8.94 3.9 0 7.56 2.46 7.56 8.58V662h5.58v-19.56c0-8.4-3.66-13.38-11.76-13.38-4.5 0-7.86 1.86-10.08 4.86v-4.02h-5.58V662Zm51.21-18.18c0 5.1 4.08 9.18 9.18 9.18s9.24-4.08 9.24-9.18-4.14-9.24-9.24-9.24c-5.1 0-9.18 4.14-9.18 9.24Zm41.23 16.56c2.76 1.5 7.68 2.46 11.16 2.46 6.18 0 13.62-3 13.62-10.14 0-6.6-4.14-8.82-9.54-9.24l-3.6-.3c-3.18-.24-6.72-.84-6.72-4.32 0-3.24 2.76-4.8 7.44-4.8 3.06 0 7.44.96 11.04 3v-5.58c-2.76-1.5-6.72-2.46-11.64-2.46-6.3 0-12.18 3.42-12.18 9.54 0 7.08 4.8 9 9.84 9.36l3.18.24c3.9.3 6.72 1.5 6.72 4.92 0 3.48-3.24 4.92-7.92 4.92-4.2 0-7.74-1.32-11.4-3.12v5.52Zm31.95-37.44h6V617h-6v5.94Zm.24 39.06h5.58v-32.1h-5.58V662Zm29.65-18.18c0 5.1 4.08 9.18 9.18 9.18s9.24-4.08 9.24-9.18-4.14-9.24-9.24-9.24c-5.1 0-9.18 4.14-9.18 9.24Zm41.22 16.56c2.76 1.5 7.68 2.46 11.16 2.46 6.18 0 13.62-3 13.62-10.14 0-6.6-4.14-8.82-9.54-9.24l-3.6-.3c-3.18-.24-6.72-.84-6.72-4.32 0-3.24 2.76-4.8 7.44-4.8 3.06 0 7.44.96 11.04 3v-5.58c-2.76-1.5-6.72-2.46-11.64-2.46-6.3 0-12.18 3.42-12.18 9.54 0 7.08 4.8 9 9.84 9.36l3.18.24c3.9.3 6.72 1.5 6.72 4.92 0 3.48-3.24 4.92-7.92 4.92-4.2 0-7.74-1.32-11.4-3.12v5.52Zm56.87 14.94h5.76c-4.38-6.24-8.82-23.16-8.82-34.8 0-11.58 3.9-25.56 8.82-31.8h-5.76c-5.28 6.84-9.24 19.44-9.24 31.8 0 12.42 4.14 28.68 9.24 34.8Zm37.53-39.06h-19.68v-14.28h21.42v-5.28h-27.3V662h5.88v-20.58h19.68v-5.16Zm8.05 25.74h5.58v-17.58c0-5.76 4.2-10.14 8.7-10.14.48 0 .9.06 1.32.12v-5.34c-4.44 0-7.8 2.34-10.02 5.64v-4.8h-5.58V662Zm45.03 0v-19.8c0-5.34 0-13.14-13.08-13.14-5.34 0-8.52 1.32-11.04 3.36v5.46c3.18-2.88 6.6-3.9 10.32-3.9 8.22 0 8.22 4.98 8.22 8.52v1.08h-6.6c-3.78 0-13.74 0-13.74 10.02 0 5.88 3.42 9.3 10.44 9.3 4.5 0 7.8-1.44 9.9-4.44V662h5.58Zm-5.58-11.94c0 6.18-4.86 8.1-9.06 8.1-3.78 0-5.7-1.56-5.7-4.92 0-4.92 4.2-4.92 7.86-4.92h6.9v1.74Zm14.75 11.94h5.58v-18.78c0-6.66 4.2-8.94 8.7-8.94 3.9 0 7.56 2.46 7.56 8.58V662h5.58v-19.56c0-8.4-3.66-13.38-11.76-13.38-4.5 0-7.86 1.86-10.08 4.86v-4.02h-5.58V662Zm49.82-32.94c-10.14 0-14.7 6.6-14.7 14.94v3.96c0 9.12 5.76 14.94 14.28 14.94 4.02 0 7.38-1.08 9.66-2.64v-5.28c-3.54 2.22-6.48 3-9.54 3-5.52 0-8.82-3.6-8.82-9.72v-4.56c0-6.42 3.36-9.72 9.06-9.72 3.12 0 6.18.78 9.36 3v-5.76c-2.58-1.44-5.64-2.16-9.3-2.16Zm16.62-6.12h6V617h-6v5.94Zm.24 39.06h5.58v-32.1h-5.58V662Zm13.8-1.62c2.76 1.5 7.68 2.46 11.16 2.46 6.18 0 13.62-3 13.62-10.14 0-6.6-4.14-8.82-9.54-9.24l-3.6-.3c-3.18-.24-6.72-.84-6.72-4.32 0-3.24 2.76-4.8 7.44-4.8 3.06 0 7.44.96 11.04 3v-5.58c-2.76-1.5-6.72-2.46-11.64-2.46-6.3 0-12.18 3.42-12.18 9.54 0 7.08 4.8 9 9.84 9.36l3.18.24c3.9.3 6.72 1.5 6.72 4.92 0 3.48-3.24 4.92-7.92 4.92-4.2 0-7.74-1.32-11.4-3.12v5.52Zm32.47-51.66h-5.76c4.38 6.24 8.82 20.16 8.82 31.8 0 11.58-3.9 28.56-8.82 34.8h5.76c5.28-6.84 9.24-22.44 9.24-34.8 0-12.42-4.14-25.68-9.24-31.8Z"/><path fill="#FF6D7F" d="M524.463 662h5.58v-27.36h8.4v-4.74h-8.4v-2.28c0-4.8 2.34-6.78 6.24-6.78 1.32 0 2.34.24 3 .54v-5.1c-.78-.24-1.56-.42-3-.42-7.86 0-11.82 4.32-11.82 11.4v2.64h-3.3v4.74h3.3V662Zm430.489 0h5.58v-27.36h8.4v-4.74h-8.4v-2.28c0-4.8 2.34-6.78 6.24-6.78 1.32 0 2.34.24 3 .54v-5.1c-.78-.24-1.56-.42-3-.42-7.86 0-11.82 4.32-11.82 11.4v2.64h-3.3v4.74h3.3V662Z"/></svg>