<svg xmlns="http://www.w3.org/2000/svg" width="1920" height="1080" fill="none"><path stroke="#D2E3FC" stroke-width="4" d="M50 452h1820M50 628h1820"/><path fill="#3C4043" d="M233.06 605.518c-2.083.095-3.692-.284-4.828-1.136-1.231-.852-1.657-2.461-1.278-4.828 0-.284.095-.71.284-1.278.189-.568.426-.947.71-1.136-.095 2.367.189 4.023.852 4.97.663.947 1.751 1.42 3.266 1.42 3.692 0 7.479-1.183 11.36-3.55 3.976-2.367 7.905-5.538 11.786-9.514-.947-.284-2.177-.852-3.692-1.704-1.42-.757-2.509-1.373-3.266-1.846-3.787-2.745-5.68-5.917-5.68-9.514 0-2.745 1.231-5.727 3.692-8.946 2.461-3.219 6.485-6.485 12.07-9.798 3.597-2.177 7.763-4.118 12.496-5.822 4.733-1.704 9.135-3.077 13.206-4.118a653.743 653.743 0 0 0 4.118-8.094 306.818 306.818 0 0 0 3.834-7.952c.473-1.041 1.325-3.029 2.556-5.964 1.231-2.935 2.603-6.39 4.118-10.366a179.026 179.026 0 0 0 4.26-12.638 162.722 162.722 0 0 0 3.55-13.206c.947-4.26 1.42-8.047 1.42-11.36 0-3.219-.568-5.727-1.704-7.526-1.041-1.799-2.935-2.698-5.68-2.698h-.142c-.757 0-1.136-.237-1.136-.71s.473-.805 1.42-.994c4.544-.473 7.715.615 9.514 3.266 1.799 2.651 2.698 6.153 2.698 10.508 0 .757-.047 1.562-.142 2.414 0 .852-.047 1.751-.142 2.698.568.473.947 1.278 1.136 2.414.568 3.029 1.136 7.005 1.704 11.928.663 4.923 1.42 10.319 2.272 16.188a440.632 440.632 0 0 0 2.982 17.892c1.231 5.964 2.651 11.597 4.26 16.898 1.704 5.207 3.692 9.609 5.964 13.206a80.38 80.38 0 0 0 1.988 2.982c.852 1.136 1.893 2.177 3.124 3.124 1.231.947 2.603 1.42 4.118 1.42 1.609 0 3.266-.663 4.97-1.988 1.515-1.231 2.935-2.935 4.26-5.112a68.963 68.963 0 0 0 3.692-6.958c.568-1.041 1.089-1.562 1.562-1.562.473 0 .805.284.994.852.284.473.379.947.284 1.42-.379 1.231-1.183 2.698-2.414 4.402a57.99 57.99 0 0 1-3.55 4.544c-1.231 1.325-2.225 2.272-2.982 2.84-1.704 1.325-3.361 2.272-4.97 2.84-1.515.663-2.935.994-4.26.994-3.124 0-5.869-1.183-8.236-3.55-2.272-2.461-4.26-5.017-5.964-7.668-2.367-3.787-4.26-8.567-5.68-14.342-1.325-5.775-2.367-12.023-3.124-18.744a500.845 500.845 0 0 1-1.846-19.88 612.602 612.602 0 0 0-1.278-17.892c-1.136 5.301-2.698 10.745-4.686 16.33-1.988 5.585-4.023 10.745-6.106 15.478-1.988 4.639-3.645 8.236-4.97 10.792a209.708 209.708 0 0 1-6.816 12.78 246.544 246.544 0 0 1 13.632-2.84 439.906 439.906 0 0 0 12.496-2.414h.426c.379 0 .568.142.568.426 0 .284-.237.663-.71 1.136-.473.473-1.089.805-1.846.994a414.91 414.91 0 0 0-13.206 2.698c-4.733.947-9.183 1.988-13.348 3.124a436.751 436.751 0 0 1-13.206 21.3c-4.449 6.721-9.325 12.685-14.626 17.892 3.597 1.136 8.189 1.704 13.774 1.704h.284c.757 0 1.136.189 1.136.568 0 .568-.568.852-1.704.852a42.708 42.708 0 0 1-7.81-.426c-2.556-.284-4.923-.757-7.1-1.42-4.165 4.071-8.378 7.337-12.638 9.798-4.165 2.556-8.189 4.023-12.07 4.402Zm23.572-16.472c4.544-4.733 8.946-10.271 13.206-16.614a232.384 232.384 0 0 0 12.212-19.88 91.543 91.543 0 0 0-3.834 1.278 27.744 27.744 0 0 0-3.834 1.704c-1.609.757-3.787 1.846-6.532 3.266a178.245 178.245 0 0 0-8.236 4.544c-2.651 1.515-4.686 2.887-6.106 4.118-1.893 1.704-3.266 3.361-4.118 4.97-.852 1.609-1.278 3.171-1.278 4.686a10.6 10.6 0 0 0 .71 3.834 26.152 26.152 0 0 0 1.988 3.55c.473.568 1.325 1.325 2.556 2.272 1.325 1.041 2.414 1.799 3.266 2.272ZM311.728 459.4c-2.083 0-3.929-.663-5.538-1.988-1.515-1.42-2.272-3.266-2.272-5.538 0-2.745.994-5.017 2.982-6.816 1.988-1.799 4.26-2.698 6.816-2.698 2.177 0 4.071.71 5.68 2.13 1.704 1.325 2.556 3.124 2.556 5.396 0 2.745-1.041 5.017-3.124 6.816-2.083 1.799-4.449 2.698-7.1 2.698Zm.142-1.988c1.42 0 2.698-.757 3.834-2.272 1.136-1.515 1.704-3.313 1.704-5.396 0-1.515-.379-2.745-1.136-3.692-.663-1.041-1.515-1.562-2.556-1.562-1.42 0-2.698.757-3.834 2.272-1.041 1.515-1.562 3.266-1.562 5.254 0 1.515.331 2.793.994 3.834.757 1.041 1.609 1.562 2.556 1.562Zm46.847 114.452c-1.704 0-2.935-.71-3.692-2.13-.758-1.515-1.136-3.266-1.136-5.254 0-2.556.426-5.538 1.278-8.946.946-3.408 2.177-6.911 3.692-10.508 1.514-3.692 3.218-7.053 5.112-10.082 1.988-3.124 4.07-5.633 6.248-7.526 2.177-1.988 4.307-2.982 6.39-2.982 1.893 0 3.502.852 4.828 2.556 1.42 1.609 2.13 3.455 2.13 5.538 0 1.231-.19 2.272-.568 3.124-.379.757-.805 1.136-1.278 1.136-.379 0-.71-.284-.994-.852-.947-2.177-1.988-3.739-3.124-4.686-1.042-.947-2.13-1.42-3.266-1.42-1.894 0-3.787 1.089-5.68 3.266-1.799 2.083-3.266 4.497-4.402 7.242-.947 2.083-1.846 4.591-2.698 7.526-.758 2.84-1.42 5.68-1.988 8.52-.474 2.745-.71 5.017-.71 6.816 0 3.219.757 4.828 2.272 4.828 1.893 0 4.307-2.083 7.242-6.248 2.177-3.029 4.118-6.532 5.822-10.508a418.714 418.714 0 0 0 4.544-10.366c.473-.947.994-1.562 1.562-1.846.568-.284 1.088-.426 1.562-.426 1.136 0 1.846.473 2.13 1.42.378.947.568 1.751.568 2.414 0 2.461-.237 4.686-.71 6.674-.474 1.893-.71 4.213-.71 6.958 0 1.988.142 3.834.426 5.538.378 1.609.994 2.414 1.846 2.414 1.041 0 2.366-1.325 3.976-3.976.378-.757.946-1.136 1.704-1.136.852 0 1.278.426 1.278 1.278 0 1.231-.852 2.556-2.556 3.976-1.704 1.325-3.408 1.988-5.112 1.988-2.272 0-3.882-.947-4.828-2.84-1.61-3.124-2.414-5.917-2.414-8.378 0-2.556-.048-4.307-.142-5.254-.474 1.136-1.373 2.935-2.698 5.396-1.326 2.367-2.888 4.875-4.686 7.526-1.799 2.556-3.692 4.733-5.68 6.532-1.988 1.799-3.834 2.698-5.538 2.698Zm77.062 54.386c-4.354 0-8.567-1.799-12.638-5.396-3.976-3.597-7.336-8.804-10.082-15.62-2.65-6.816-4.212-15.052-4.686-24.708-2.934.284-5.632.426-8.094.426-5.49 0-9.514-.71-12.07-2.13-2.461-1.42-3.692-3.266-3.692-5.538 0-2.272 1.089-4.781 3.266-7.526 2.178-2.745 5.207-5.491 9.088-8.236 3.882-2.84 8.426-5.396 13.632-7.668 1.799-9.656 4.686-20.069 8.662-31.24 4.071-11.265 9.514-23.193 16.33-35.784.663-1.231 1.657-1.846 2.982-1.846.852 0 1.61.284 2.272.852.663.568.994 1.325.994 2.272 0 .473-.142 1.089-.426 1.846-6.058 12.212-11.123 23.43-15.194 33.654-3.976 10.129-7.1 19.407-9.372 27.832 4.26-1.609 8.804-2.935 13.632-3.976a85.139 85.139 0 0 1 14.768-1.846c1.326 0 1.988.189 1.988.568 0 .379-.473.757-1.42 1.136-.852.284-2.319.473-4.402.568-4.638.284-9.088.947-13.348 1.988-4.165.947-8.094 2.13-11.786 3.55-1.42 5.491-2.508 10.603-3.266 15.336-.757 4.639-1.23 8.946-1.42 12.922 9.751-2.083 18.602-5.112 26.554-9.088 8.047-4.071 15.147-8.757 21.3-14.058 6.154-5.301 11.313-10.792 15.478-16.472 2.651-3.597 4.544-6.769 5.68-9.514 1.231-2.84 1.846-5.301 1.846-7.384 0-3.029-.946-5.396-2.84-7.1-1.893-1.799-4.402-3.077-7.526-3.834-3.124-.852-6.532-1.278-10.224-1.278-3.881 0-7.81.379-11.786 1.136-3.976.663-7.573 1.609-10.792 2.84-.757.189-1.278.284-1.562.284-1.23 0-1.846-.426-1.846-1.278 0-.852.521-1.515 1.562-1.988 11.644-6.627 19.928-12.638 24.85-18.034 4.923-5.396 7.384-9.94 7.384-13.632 0-3.219-1.514-5.68-4.544-7.384-2.934-1.799-6.816-2.698-11.644-2.698-3.786 0-8.046.615-12.78 1.846-4.733 1.231-9.608 3.219-14.626 5.964a57.443 57.443 0 0 0-11.36 8.094c-3.313 3.029-6.153 6.201-8.52 9.514-2.272 3.219-3.976 6.295-5.112 9.23-1.136 2.84-1.562 5.254-1.278 7.242v.71c.095.189.142.379.142.568 0 2.367-.71 3.55-2.13 3.55-.662 0-1.372-.473-2.13-1.42-.662-.947-.994-2.367-.994-4.26 0-2.84.852-5.869 2.556-9.088 1.799-3.219 4.166-6.437 7.1-9.656a78.394 78.394 0 0 1 10.082-9.23c3.692-2.935 7.526-5.443 11.502-7.526 5.112-2.745 10.13-4.781 15.052-6.106 5.018-1.325 9.609-1.988 13.774-1.988 5.775 0 10.461 1.136 14.058 3.408 3.598 2.272 5.396 5.443 5.396 9.514 0 3.787-1.846 8.189-5.538 13.206-3.692 5.017-9.892 10.555-18.602 16.614 2.935-.473 5.68-.805 8.236-.994 2.556-.284 4.923-.426 7.1-.426 8.142 0 14.011 1.373 17.608 4.118 3.692 2.651 5.538 6.106 5.538 10.366 0 3.124-.899 6.532-2.698 10.224-1.704 3.597-4.118 7.337-7.242 11.218-4.544 5.585-10.271 10.981-17.182 16.188-6.816 5.207-14.484 9.703-23.004 13.49-8.425 3.787-17.418 6.343-26.98 7.668-.189 8.425.568 15.383 2.272 20.874 1.799 5.491 4.071 9.751 6.816 12.78 2.746 3.124 5.491 5.301 8.236 6.532 2.746 1.325 5.018 1.988 6.816 1.988 1.326 0 2.225-.237 2.698-.71.379-.473.947-.71 1.704-.71.758 0 1.468.284 2.13.852.663.568.994 1.183.994 1.846 0 .568-.331.994-.994 1.278-2.082.852-4.165 1.278-6.248 1.278Zm-34.932-47.144c1.042 0 2.178-.095 3.408-.284a72.599 72.599 0 0 0 3.976-.426c-.094-3.976 0-8.141.284-12.496s.805-8.899 1.562-13.632c-6.058 3.124-10.839 6.627-14.342 10.508-3.502 3.787-5.254 7.147-5.254 10.082 0 1.799.852 3.266 2.556 4.402 1.704 1.231 4.308 1.846 7.81 1.846Zm97.876 6.39c-.568 0-1.041-.473-1.42-1.42-.947-1.988-1.657-4.97-2.13-8.946-.473-3.881-.71-8.283-.71-13.206 0-5.775.284-11.786.852-18.034a148.057 148.057 0 0 0-3.55 4.544c-1.041 1.42-1.893 2.461-2.556 3.124-.379.379-.757.568-1.136.568-.757 0-1.136-.521-1.136-1.562 0-.947.521-2.083 1.562-3.408a49.746 49.746 0 0 1 3.834-3.976c1.42-1.42 2.556-2.509 3.408-3.266a263.363 263.363 0 0 1 2.698-20.306c1.136-6.532 2.414-12.212 3.834-17.04 1.515-4.923 3.124-8.331 4.828-10.224.852-.852 1.846-1.278 2.982-1.278 1.041 0 1.893.331 2.556.994.663.568.994 1.373.994 2.414 0 1.231-.568 2.982-1.704 5.254a483.116 483.116 0 0 1-3.692 7.526c-1.42 2.745-2.793 6.769-4.118 12.07-1.325 5.301-2.509 11.029-3.55 17.182a19.023 19.023 0 0 1 9.088-2.272c3.787 0 6.532 1.183 8.236 3.55 1.799 2.272 2.698 5.065 2.698 8.378 0 3.029-.615 6.201-1.846 9.514-1.136 3.313-2.556 6.39-4.26 9.23-1.704 2.84-3.361 5.112-4.97 6.816l-2.982 2.982c-1.041 1.041-2.367 1.562-3.976 1.562-1.231 0-2.13-.473-2.698-1.42a5.96 5.96 0 0 1-.852-3.124c0-.852.331-2.177.994-3.976a86.084 86.084 0 0 1 2.414-5.822 171.342 171.342 0 0 1 3.124-5.964c1.041-1.893 1.941-3.408 2.698-4.544.379-.663.899-1.467 1.562-2.414.757-1.041 1.325-1.562 1.704-1.562.189 0 .284.142.284.426 0 .379-.237 1.041-.71 1.988a54.265 54.265 0 0 1-1.42 2.414 208.913 208.913 0 0 0-3.266 6.532 88.66 88.66 0 0 0-3.266 7.668c-.947 2.461-1.42 4.497-1.42 6.106 0 .757.237 1.136.71 1.136s1.041-.331 1.704-.994a56.26 56.26 0 0 0 2.272-2.414 96.563 96.563 0 0 0 1.562-1.988c2.177-3.029 3.929-6.532 5.254-10.508 1.325-3.976 1.988-7.668 1.988-11.076 0-2.935-.521-5.349-1.562-7.242-1.041-1.988-2.793-2.982-5.254-2.982-2.272 0-5.065 1.041-8.378 3.124a271.993 271.993 0 0 0-1.846 15.052c-.473 4.923-.71 9.467-.71 13.632 0 2.651.095 5.017.284 7.1.284 2.083.663 3.787 1.136 5.112.284.663.473 1.231.568 1.704.095.568.142 1.089.142 1.562 0 1.136-.284 1.704-.852 1.704Zm67.48 3.692c-7.289 0-13.774-1.846-19.454-5.538-5.68-3.597-10.508-8.425-14.484-14.484-3.881-6.059-6.863-12.78-8.946-20.164-1.988-7.479-2.982-15.005-2.982-22.578 0-6.627.805-13.017 2.414-19.17 1.609-6.153 4.118-11.644 7.526-16.472 3.408-4.923 7.668-8.804 12.78-11.644 5.207-2.84 11.36-4.26 18.46-4.26 6.816 0 12.354 1.231 16.614 3.692 4.355 2.461 7.573 5.633 9.656 9.514 2.083 3.881 3.124 7.952 3.124 12.212s-.994 8.425-2.982 12.496c-1.988 3.976-4.875 7.289-8.662 9.94-3.692 2.556-8.236 3.929-13.632 4.118-.852 0-1.278-.189-1.278-.568 0-.757.899-1.231 2.698-1.42 3.881-.095 7.195-1.231 9.94-3.408 2.745-2.272 4.828-5.112 6.248-8.52a28.835 28.835 0 0 0 2.13-10.934c0-4.071-.899-7.999-2.698-11.786-1.704-3.787-4.402-6.911-8.094-9.372-3.692-2.461-8.425-3.692-14.2-3.692-5.775 0-10.745 1.278-14.91 3.834-4.165 2.556-7.621 6.059-10.366 10.508-2.651 4.355-4.639 9.325-5.964 14.91-1.325 5.585-1.988 11.455-1.988 17.608 0 7.479.899 14.91 2.698 22.294 1.893 7.384 4.591 14.153 8.094 20.306 3.503 6.059 7.763 10.887 12.78 14.484 5.017 3.692 10.745 5.538 17.182 5.538 4.355 0 8.378-.994 12.07-2.982 3.692-1.893 6.674-4.828 8.946-8.804 2.367-3.881 3.55-8.757 3.55-14.626 0-2.083-.142-4.26-.426-6.532-.284-2.272-.805-4.686-1.562-7.242a3.136 3.136 0 0 1-.142-.994c0-.663.189-.994.568-.994.473 0 .899.473 1.278 1.42 1.799 5.396 2.698 10.461 2.698 15.194 0 5.585-1.183 10.461-3.55 14.626-2.367 4.26-5.68 7.573-9.94 9.94-4.26 2.367-9.325 3.55-15.194 3.55Zm-10.65 25.276c-1.704 0-3.266-.284-4.686-.852-1.325-.568-2.272-1.467-2.84-2.698 0-.379.284-.568.852-.568.284 0 .521.047.71.142.284.189.473.379.568.568.757.757 1.704 1.231 2.84 1.42 1.231.284 2.367.426 3.408.426 2.651 0 4.591-.899 5.822-2.698 1.231-1.704 1.846-3.503 1.846-5.396 0-1.515-.379-2.84-1.136-3.976-.663-1.136-1.751-1.704-3.266-1.704-1.231 0-2.225.284-2.982.852-.663.663-1.231.994-1.704.994-.379 0-.757-.142-1.136-.426-.284-.189-.426-.473-.426-.852s.142-.71.426-.994c.189-.189.71-.805 1.562-1.846a162.527 162.527 0 0 0 3.124-3.55 193.11 193.11 0 0 1 2.982-3.408c.852-.947 1.325-1.42 1.42-1.42h.994c.568.095.805.189.71.284-.095.095-.521.568-1.278 1.42s-1.562 1.751-2.414 2.698a47.748 47.748 0 0 0-1.846 2.698c-.473.852-.521 1.373-.142 1.562.379-.095.994-.142 1.846-.142 1.893 0 3.787.615 5.68 1.846 1.893 1.231 2.84 2.982 2.84 5.254 0 2.177-.71 4.023-2.13 5.538-1.42 1.609-3.219 2.793-5.396 3.55-2.083.852-4.165 1.278-6.248 1.278Zm51.71-38.624c-2.366 0-4.449-.852-6.248-2.556-1.704-1.609-2.556-4.402-2.556-8.378 0-2.083.426-4.639 1.278-7.668.852-3.124 1.988-6.39 3.408-9.798 1.515-3.408 3.219-6.579 5.112-9.514 1.894-2.935 3.882-5.349 5.964-7.242 2.083-1.893 4.118-2.84 6.106-2.84 1.61 0 2.746.568 3.408 1.704.758 1.136 1.136 2.367 1.136 3.692 0 1.136-.236 2.177-.71 3.124-.378.852-.946 1.278-1.704 1.278-.757 0-1.325-.331-1.704-.994a50.216 50.216 0 0 0-.852-2.13c-.189-.757-.71-1.136-1.562-1.136-1.704 0-3.408 1.136-5.112 3.408-1.704 2.177-3.266 4.97-4.686 8.378a68.066 68.066 0 0 0-3.408 10.508c-.852 3.597-1.278 6.769-1.278 9.514 0 2.367.284 4.118.852 5.254.663 1.041 1.846 1.562 3.55 1.562 2.178 0 4.26-.615 6.248-1.846a27.437 27.437 0 0 0 5.68-4.828c1.704-1.893 3.124-3.692 4.26-5.396 1.231-1.704 2.083-2.982 2.556-3.834 1.136-2.177 2.036-3.266 2.698-3.266.284 0 .426.379.426 1.136a7.59 7.59 0 0 1-.568 2.84 57.346 57.346 0 0 1-1.136 2.414c-1.325 2.84-3.124 5.538-5.396 8.094-2.272 2.461-4.78 4.497-7.526 6.106-2.65 1.609-5.396 2.414-8.236 2.414Z"/><path stroke="#FF6D7F" stroke-width="4" d="M245 452h376v176H245z"/><path fill="#3C4043" d="M762.58 580h-23.714l-2.698-13.916h-16.756L716.714 580h-22.578l16.188-88.182h36.068L762.58 580Zm-29.11-30.53-4.97-31.524h-.994l-4.97 31.524h10.934Zm-17.182-73.272c0-3.313 1.089-5.917 3.266-7.81 2.177-1.988 5.017-2.982 8.52-2.982 3.503 0 6.295.947 8.378 2.84 2.083 1.799 3.124 4.355 3.124 7.668 0 3.313-1.041 5.964-3.124 7.952-2.083 1.893-4.875 2.84-8.378 2.84s-6.343-.947-8.52-2.84c-2.177-1.893-3.266-4.449-3.266-7.668Zm14.626-.284c0-2.651-.994-3.976-2.982-3.976-1.988 0-2.982 1.325-2.982 3.976s.994 3.976 2.982 3.976c1.988 0 2.982-1.325 2.982-3.976Zm88.331 53.818-.71 29.394c0 1.799.426 3.029 1.278 3.692.946.568 2.508.852 4.686.852l-2.13 17.182c-5.491.379-8.52.568-9.088.568-7.006 0-11.455-2.414-13.348-7.242h-.71c-3.503 4.828-8.899 7.242-16.188 7.242-5.586 0-9.893-1.799-12.922-5.396-2.935-3.597-4.402-8.52-4.402-14.768 0-7.857 2.414-13.301 7.242-16.33 4.922-3.029 12.638-5.017 23.146-5.964v-3.408c0-2.651-1.326-3.976-3.976-3.976-4.544 0-11.644 1.373-21.3 4.118l-3.55-20.732c12.117-3.124 22.199-4.686 30.246-4.686 8.046 0 13.679 1.562 16.898 4.686 3.218 3.124 4.828 8.047 4.828 14.768Zm-27.406 35.074c3.502 0 5.254-1.846 5.254-5.538v-6.958c-3.503.473-6.012 1.231-7.526 2.272-1.42.947-2.13 2.603-2.13 4.97 0 3.503 1.467 5.254 4.402 5.254Zm102.033-10.224c0 16.945-9.088 25.418-27.264 25.418h-34.79v-88.182h34.08c8.994 0 15.668 1.846 20.022 5.538 4.355 3.597 6.532 9.372 6.532 17.324 0 7.952-3.266 14.011-9.798 18.176v.852c7.479 2.935 11.218 9.893 11.218 20.874Zm-32.944 9.656c2.84 0 4.734-.615 5.68-1.846 1.042-1.325 1.562-3.976 1.562-7.952 0-4.071-.52-6.911-1.562-8.52-1.041-1.704-2.934-2.556-5.68-2.556h-4.544v20.874h4.544Zm.142-34.648c2.178 0 3.692-.663 4.544-1.988.852-1.325 1.278-3.645 1.278-6.958 0-3.408-.473-5.775-1.42-7.1-.852-1.42-2.366-2.13-4.544-2.13h-4.544v18.176h4.686Zm75.419-19.17c8.899 0 14.815 2.603 17.75 7.81 2.935 5.112 4.402 13.963 4.402 26.554 0 12.496-1.562 21.726-4.686 27.69-3.124 5.964-9.23 8.946-18.318 8.946-7.1 0-12.07-1.846-14.91-5.538h-.568l-1.42 4.118h-18.602v-91.022h23.714v24.566h.568c3.124-2.083 7.147-3.124 12.07-3.124Zm-2.556 48.28c.379-1.704.615-3.361.71-4.97.095-1.609.142-4.639.142-9.088 0-4.544-.331-7.999-.994-10.366-.663-2.461-2.035-3.692-4.118-3.692-1.988 0-3.976.568-5.964 1.704v29.394c1.799.852 3.503 1.278 5.112 1.278 1.704 0 2.887-.284 3.55-.852.757-.663 1.278-1.799 1.562-3.408Zm73.387 25.986c1.52.757 2.98 1.846 4.4 3.266 1.52 1.42 2.28 3.455 2.28 6.106s-1.24 4.97-3.7 6.958c-2.36 1.988-5.96 2.982-10.789 2.982-4.733 0-9.135-1.515-13.206-4.544l5.112-9.94c3.314 3.124 6.296 4.686 8.943 4.686.76 0 1.14-.379 1.14-1.136 0-.663-.52-1.278-1.563-1.846l-2.982-1.704c-1.988-1.231-2.982-2.698-2.982-4.402 0-1.704.568-3.124 1.704-4.26-8.993-1.42-16.282-5.917-21.868-13.49-5.49-7.573-8.236-18.129-8.236-31.666 0-13.632 3.55-24.897 10.65-33.796 7.195-8.899 16.141-13.348 26.837-13.348 10.7 0 18.7 2.793 24 8.378l-7.95 21.3c-1.8-1.799-3.27-3.171-4.4-4.118-3.13-2.745-6.73-4.118-10.8-4.118-3.973 0-7.191 2.414-9.653 7.242-2.461 4.828-3.692 10.934-3.692 18.318 0 7.384 1.231 13.443 3.692 18.176 2.556 4.733 5.913 7.1 10.083 7.1 5.58 0 10.55-2.414 14.91-7.242l7.95 20.164c-5.68 4.449-12.78 6.958-21.3 7.526-.47.663-.71 1.231-.71 1.704 0 .473.71 1.041 2.13 1.704Zm54.79-53.676c-2.75 0-4.59 1.278-5.54 3.834-.95 2.461-1.42 6.343-1.42 11.644s.43 9.135 1.28 11.502c.94 2.367 2.84 3.55 5.68 3.55 2.93 0 6.72-.521 11.36-1.562l2.55 18.176c-6.53 2.177-12.35 3.266-17.46 3.266-9 0-15.81-3.029-20.45-9.088-4.54-6.059-6.82-14.531-6.82-25.418 0-10.887 2.37-19.691 7.1-26.412 4.74-6.816 11.6-10.224 20.59-10.224 6.73 0 12.78 1.136 18.18 3.408l-2.56 20.874c-5.49-2.367-9.65-3.55-12.49-3.55Z"/><path stroke="#FF6D7F" stroke-width="4" d="M695 464h381v152H695z"/><path fill="#3C4043" d="M1191.88 489.68h8.38l41.89 100.82h-10.51l-13.07-31.524h-45.29l-12.93 31.524h-10.65l42.18-100.82Zm24.42 61.486-20.3-49.842-20.59 49.842h40.89Zm-32.94-82.36c0-3.503 1.18-6.343 3.55-8.52 2.46-2.272 5.49-3.408 9.09-3.408 3.69 0 6.72 1.136 9.08 3.408 2.37 2.177 3.55 5.017 3.55 8.52 0 3.503-1.18 6.343-3.55 8.52-2.36 2.177-5.39 3.266-9.08 3.266-3.6 0-6.63-1.089-9.09-3.266-2.37-2.177-3.55-5.017-3.55-8.52Zm12.64-6.958c-1.9 0-3.55.615-4.97 1.846-1.33 1.231-1.99 2.935-1.99 5.112 0 1.988.66 3.645 1.99 4.97 1.32 1.325 2.98 1.988 4.97 1.988 1.79 0 3.4-.615 4.82-1.846 1.52-1.325 2.28-3.029 2.28-5.112 0-2.177-.71-3.881-2.13-5.112-1.42-1.231-3.08-1.846-4.97-1.846Zm51.54 107.352c0-4.639 1.32-8.615 3.97-11.928 2.65-3.408 6.3-6.011 10.94-7.81 4.73-1.893 10.17-2.84 16.33-2.84 3.59 0 7.33.284 11.22.852 3.88.568 7.33 1.42 10.36 2.556v-6.248c0-6.248-1.84-11.218-5.54-14.91-3.69-3.692-8.8-5.538-15.33-5.538-3.98 0-7.91.757-11.79 2.272-3.79 1.42-7.76 3.55-11.93 6.39l-3.69-6.816c4.83-3.313 9.56-5.775 14.2-7.384 4.64-1.704 9.37-2.556 14.2-2.556 9.09 0 16.28 2.603 21.59 7.81 5.3 5.207 7.95 12.401 7.95 21.584v34.222c0 1.325.28 2.319.85 2.982.57.568 1.47.899 2.7.994v7.668a83.39 83.39 0 0 0-2.7.284c-.76.095-1.33.095-1.7 0-2.37-.095-4.17-.852-5.4-2.272-1.23-1.42-1.89-2.935-1.99-4.544l-.14-5.396c-3.31 4.26-7.62 7.573-12.92 9.94-5.3 2.272-10.7 3.408-16.19 3.408-4.73 0-9.04-.994-12.92-2.982-3.79-2.083-6.77-4.828-8.95-8.236-2.08-3.503-3.12-7.337-3.12-11.502Zm49.56 5.68c1.04-1.325 1.84-2.603 2.41-3.834.57-1.231.85-2.319.85-3.266v-10.792a58.825 58.825 0 0 0-10.08-2.84 54.157 54.157 0 0 0-10.37-.994c-6.91 0-12.49 1.373-16.75 4.118s-6.39 6.485-6.39 11.218c0 2.745.71 5.349 2.13 7.81 1.42 2.367 3.5 4.355 6.25 5.964 2.74 1.515 5.96 2.272 9.65 2.272 4.64 0 8.95-.899 12.92-2.698 4.07-1.799 7.2-4.118 9.38-6.958Zm111.6-10.366c0 5.017-1.28 9.514-3.84 13.49-2.55 3.881-6.01 6.958-10.36 9.23-4.26 2.177-8.95 3.266-14.06 3.266h-47.57V489.68h48.56c4.74 0 8.81 1.278 12.21 3.834 3.51 2.461 6.16 5.68 7.96 9.656 1.89 3.881 2.84 7.952 2.84 12.212 0 5.017-1.28 9.656-3.84 13.916-2.55 4.26-6.1 7.431-10.65 9.514 5.78 1.704 10.32 4.875 13.63 9.514 3.41 4.639 5.12 10.035 5.12 16.188Zm-9.94-1.704c0-3.408-.76-6.532-2.28-9.372-1.51-2.935-3.59-5.301-6.24-7.1-2.56-1.799-5.49-2.698-8.81-2.698h-38.62v38.198h37.63c3.41 0 6.48-.899 9.23-2.698a20.044 20.044 0 0 0 6.53-6.958c1.7-2.935 2.56-6.059 2.56-9.372Zm-55.95-64.468v37.204h34.65c3.31 0 6.24-.852 8.8-2.556 2.56-1.799 4.59-4.118 6.11-6.958a19.079 19.079 0 0 0 2.27-9.088c0-3.408-.71-6.485-2.13-9.23-1.42-2.84-3.36-5.112-5.82-6.816-2.46-1.704-5.26-2.556-8.38-2.556h-35.5Zm118.85 93.578c-5.77 0-11.12-1.467-16.04-4.402-4.92-3.029-8.76-6.816-11.5-11.36V590.5h-8.67V486.84h9.66v45.156c3.31-5.017 7.29-9.041 11.93-12.07 4.64-3.124 10.03-4.686 16.19-4.686 5.2 0 9.84 1.089 13.91 3.266a32.876 32.876 0 0 1 10.65 8.804c2.94 3.597 5.16 7.715 6.68 12.354a44.295 44.295 0 0 1 2.27 14.058c0 5.207-.9 10.082-2.7 14.626a38.235 38.235 0 0 1-7.38 12.212 37.465 37.465 0 0 1-11.22 8.378c-4.17 1.988-8.76 2.982-13.78 2.982Zm-2.27-8.52c3.98 0 7.67-.805 11.08-2.414a26.442 26.442 0 0 0 8.8-6.674 31.283 31.283 0 0 0 5.68-9.514 31.691 31.691 0 0 0 1.99-11.076c0-5.207-1.14-10.082-3.41-14.626-2.17-4.639-5.25-8.331-9.23-11.076-3.88-2.84-8.47-4.26-13.77-4.26-3.79 0-7.34.852-10.65 2.556-3.22 1.704-6.11 3.976-8.66 6.816a39.294 39.294 0 0 0-6.11 9.088v23.004c.38 2.556 1.37 4.97 2.98 7.242 1.61 2.177 3.6 4.071 5.97 5.68 2.46 1.609 5.01 2.887 7.66 3.834 2.66.947 5.21 1.42 7.67 1.42Zm49.02-44.02c0-6.153 1.04-12.165 3.12-18.034 2.18-5.964 5.3-11.36 9.38-16.188 4.07-4.923 9.08-8.804 15.05-11.644 5.96-2.935 12.73-4.402 20.3-4.402 9 0 16.66 2.083 23.01 6.248 6.43 4.071 11.17 9.325 14.2 15.762l-7.81 4.828c-2.18-4.449-4.93-7.952-8.24-10.508-3.31-2.651-6.86-4.544-10.65-5.68-3.69-1.136-7.38-1.704-11.07-1.704-6.06 0-11.41 1.231-16.05 3.692a35.318 35.318 0 0 0-11.79 9.656c-3.12 3.976-5.49 8.473-7.1 13.49a48.127 48.127 0 0 0-2.41 15.052c0 5.585.95 10.934 2.84 16.046s4.54 9.656 7.95 13.632a40.976 40.976 0 0 0 11.93 9.372c4.64 2.272 9.66 3.408 15.05 3.408 3.79 0 7.67-.663 11.65-1.988 3.97-1.325 7.66-3.361 11.07-6.106 3.5-2.745 6.3-6.295 8.38-10.65l8.24 4.26c-2.09 5.017-5.31 9.277-9.66 12.78-4.36 3.503-9.23 6.153-14.63 7.952-5.3 1.799-10.5 2.698-15.62 2.698-6.91 0-13.25-1.467-19.02-4.402a51.116 51.116 0 0 1-15.06-11.928 56.94 56.94 0 0 1-9.65-16.756c-2.27-6.248-3.41-12.543-3.41-18.886Zm45.58 76.68c-2.37 0-5.02-.331-7.95-.994a37.379 37.379 0 0 1-8.24-2.982l2.84-5.538c1.99.947 3.88 1.704 5.68 2.272 1.8.568 3.84.852 6.11.852 3.12 0 5.54-.615 7.24-1.846 1.71-1.136 2.56-2.935 2.56-5.396s-.85-4.639-2.56-6.532c-1.7-1.799-4.16-3.597-7.38-5.396l4.12-2.698c3.69 2.272 6.67 4.591 8.94 6.958 2.27 2.461 3.41 5.538 3.41 9.23 0 3.787-1.33 6.721-3.98 8.804-2.65 2.177-6.24 3.266-10.79 3.266Zm88.54-24.14c-5.39 0-10.36-.994-14.91-2.982a38.834 38.834 0 0 1-11.78-8.52c-3.31-3.597-5.92-7.715-7.81-12.354-1.8-4.639-2.7-9.561-2.7-14.768 0-7.005 1.56-13.395 4.69-19.17 3.12-5.775 7.48-10.366 13.06-13.774 5.59-3.408 12.02-5.112 19.31-5.112 6.91 0 13.02 1.609 18.32 4.828 5.3 3.124 9.23 7.384 11.79 12.78l-9.38 2.982c-2.08-3.787-5.01-6.721-8.8-8.804-3.69-2.177-7.81-3.266-12.35-3.266-4.93 0-9.42 1.278-13.49 3.834s-7.34 6.059-9.8 10.508c-2.37 4.449-3.55 9.514-3.55 15.194 0 5.585 1.23 10.65 3.69 15.194 2.46 4.544 5.73 8.189 9.8 10.934 4.07 2.651 8.57 3.976 13.49 3.976 3.22 0 6.29-.568 9.23-1.704 3.03-1.136 5.63-2.651 7.81-4.544 2.27-1.988 3.79-4.118 4.54-6.39l9.52 2.84c-1.33 3.503-3.55 6.674-6.68 9.514-3.03 2.745-6.62 4.923-10.79 6.532-4.07 1.515-8.47 2.272-13.21 2.272Z"/><path stroke="#FF6D7F" stroke-width="4" d="M1150 458.5h526v163h-526z"/></svg>