<svg width="1920" height="1080" viewBox="0 0 1920 1080" fill="none" xmlns="http://www.w3.org/2000/svg">
<line x1="50" y1="452" x2="1870" y2="452" stroke="#D2E3FC" stroke-width="4"/>
<line x1="50" y1="628" x2="1870" y2="628" stroke="#D2E3FC" stroke-width="4"/>
<path d="M233.06 605.518C230.977 605.613 229.368 605.234 228.232 604.382C227.001 603.53 226.575 601.921 226.954 599.554C226.954 599.27 227.049 598.844 227.238 598.276C227.427 597.708 227.664 597.329 227.948 597.14C227.853 599.507 228.137 601.163 228.8 602.11C229.463 603.057 230.551 603.53 232.066 603.53C235.758 603.53 239.545 602.347 243.426 599.98C247.402 597.613 251.331 594.442 255.212 590.466C254.265 590.182 253.035 589.614 251.52 588.762C250.1 588.005 249.011 587.389 248.254 586.916C244.467 584.171 242.574 580.999 242.574 577.402C242.574 574.657 243.805 571.675 246.266 568.456C248.727 565.237 252.751 561.971 258.336 558.658C261.933 556.481 266.099 554.54 270.832 552.836C275.565 551.132 279.967 549.759 284.038 548.718C285.458 545.973 286.831 543.275 288.156 540.624C289.481 537.973 290.759 535.323 291.99 532.672C292.463 531.631 293.315 529.643 294.546 526.708C295.777 523.773 297.149 520.318 298.664 516.342C300.179 512.366 301.599 508.153 302.924 503.704C304.344 499.16 305.527 494.758 306.474 490.498C307.421 486.238 307.894 482.451 307.894 479.138C307.894 475.919 307.326 473.411 306.19 471.612C305.149 469.813 303.255 468.914 300.51 468.914H300.368C299.611 468.914 299.232 468.677 299.232 468.204C299.232 467.731 299.705 467.399 300.652 467.21C305.196 466.737 308.367 467.825 310.166 470.476C311.965 473.127 312.864 476.629 312.864 480.984C312.864 481.741 312.817 482.546 312.722 483.398C312.722 484.25 312.675 485.149 312.58 486.096C313.148 486.569 313.527 487.374 313.716 488.51C314.284 491.539 314.852 495.515 315.42 500.438C316.083 505.361 316.84 510.757 317.692 516.626C318.544 522.495 319.538 528.459 320.674 534.518C321.905 540.482 323.325 546.115 324.934 551.416C326.638 556.623 328.626 561.025 330.898 564.622C331.371 565.379 332.034 566.373 332.886 567.604C333.738 568.74 334.779 569.781 336.01 570.728C337.241 571.675 338.613 572.148 340.128 572.148C341.737 572.148 343.394 571.485 345.098 570.16C346.613 568.929 348.033 567.225 349.358 565.048C350.683 562.871 351.914 560.551 353.05 558.09C353.618 557.049 354.139 556.528 354.612 556.528C355.085 556.528 355.417 556.812 355.606 557.38C355.89 557.853 355.985 558.327 355.89 558.8C355.511 560.031 354.707 561.498 353.476 563.202C352.34 564.811 351.157 566.326 349.926 567.746C348.695 569.071 347.701 570.018 346.944 570.586C345.24 571.911 343.583 572.858 341.974 573.426C340.459 574.089 339.039 574.42 337.714 574.42C334.59 574.42 331.845 573.237 329.478 570.87C327.206 568.409 325.218 565.853 323.514 563.202C321.147 559.415 319.254 554.635 317.834 548.86C316.509 543.085 315.467 536.837 314.71 530.116C313.953 523.395 313.337 516.768 312.864 510.236C312.485 503.704 312.059 497.74 311.586 492.344C310.45 497.645 308.888 503.089 306.9 508.674C304.912 514.259 302.877 519.419 300.794 524.152C298.806 528.791 297.149 532.388 295.824 534.944C293.741 539.204 291.469 543.464 289.008 547.724C293.363 546.683 297.907 545.736 302.64 544.884C307.373 544.032 311.539 543.227 315.136 542.47H315.562C315.941 542.47 316.13 542.612 316.13 542.896C316.13 543.18 315.893 543.559 315.42 544.032C314.947 544.505 314.331 544.837 313.574 545.026C309.503 545.783 305.101 546.683 300.368 547.724C295.635 548.671 291.185 549.712 287.02 550.848C282.665 558.327 278.263 565.427 273.814 572.148C269.365 578.869 264.489 584.833 259.188 590.04C262.785 591.176 267.377 591.744 272.962 591.744H273.246C274.003 591.744 274.382 591.933 274.382 592.312C274.382 592.88 273.814 593.164 272.678 593.164C270.027 593.259 267.424 593.117 264.868 592.738C262.312 592.454 259.945 591.981 257.768 591.318C253.603 595.389 249.39 598.655 245.13 601.116C240.965 603.672 236.941 605.139 233.06 605.518ZM256.632 589.046C261.176 584.313 265.578 578.775 269.838 572.432C274.193 566.089 278.263 559.463 282.05 552.552C280.819 552.931 279.541 553.357 278.216 553.83C276.891 554.303 275.613 554.871 274.382 555.534C272.773 556.291 270.595 557.38 267.85 558.8C265.105 560.22 262.359 561.735 259.614 563.344C256.963 564.859 254.928 566.231 253.508 567.462C251.615 569.166 250.242 570.823 249.39 572.432C248.538 574.041 248.112 575.603 248.112 577.118C248.112 578.443 248.349 579.721 248.822 580.952C249.39 582.183 250.053 583.366 250.81 584.502C251.283 585.07 252.135 585.827 253.366 586.774C254.691 587.815 255.78 588.573 256.632 589.046ZM311.728 459.4C309.645 459.4 307.799 458.737 306.19 457.412C304.675 455.992 303.918 454.146 303.918 451.874C303.918 449.129 304.912 446.857 306.9 445.058C308.888 443.259 311.16 442.36 313.716 442.36C315.893 442.36 317.787 443.07 319.396 444.49C321.1 445.815 321.952 447.614 321.952 449.886C321.952 452.631 320.911 454.903 318.828 456.702C316.745 458.501 314.379 459.4 311.728 459.4ZM311.87 457.412C313.29 457.412 314.568 456.655 315.704 455.14C316.84 453.625 317.408 451.827 317.408 449.744C317.408 448.229 317.029 446.999 316.272 446.052C315.609 445.011 314.757 444.49 313.716 444.49C312.296 444.49 311.018 445.247 309.882 446.762C308.841 448.277 308.32 450.028 308.32 452.016C308.32 453.531 308.651 454.809 309.314 455.85C310.071 456.891 310.923 457.412 311.87 457.412ZM358.717 571.864C357.013 571.864 355.782 571.154 355.025 569.734C354.267 568.219 353.889 566.468 353.889 564.48C353.889 561.924 354.315 558.942 355.167 555.534C356.113 552.126 357.344 548.623 358.859 545.026C360.373 541.334 362.077 537.973 363.971 534.944C365.959 531.82 368.041 529.311 370.219 527.418C372.396 525.43 374.526 524.436 376.609 524.436C378.502 524.436 380.111 525.288 381.437 526.992C382.857 528.601 383.567 530.447 383.567 532.53C383.567 533.761 383.377 534.802 382.999 535.654C382.62 536.411 382.194 536.79 381.721 536.79C381.342 536.79 381.011 536.506 380.727 535.938C379.78 533.761 378.739 532.199 377.603 531.252C376.561 530.305 375.473 529.832 374.337 529.832C372.443 529.832 370.55 530.921 368.657 533.098C366.858 535.181 365.391 537.595 364.255 540.34C363.308 542.423 362.409 544.931 361.557 547.866C360.799 550.706 360.137 553.546 359.569 556.386C359.095 559.131 358.859 561.403 358.859 563.202C358.859 566.421 359.616 568.03 361.131 568.03C363.024 568.03 365.438 565.947 368.373 561.782C370.55 558.753 372.491 555.25 374.195 551.274C375.993 547.298 377.508 543.843 378.739 540.908C379.212 539.961 379.733 539.346 380.301 539.062C380.869 538.778 381.389 538.636 381.863 538.636C382.999 538.636 383.709 539.109 383.993 540.056C384.371 541.003 384.561 541.807 384.561 542.47C384.561 544.931 384.324 547.156 383.851 549.144C383.377 551.037 383.141 553.357 383.141 556.102C383.141 558.09 383.283 559.936 383.567 561.64C383.945 563.249 384.561 564.054 385.413 564.054C386.454 564.054 387.779 562.729 389.389 560.078C389.767 559.321 390.335 558.942 391.093 558.942C391.945 558.942 392.371 559.368 392.371 560.22C392.371 561.451 391.519 562.776 389.815 564.196C388.111 565.521 386.407 566.184 384.703 566.184C382.431 566.184 380.821 565.237 379.875 563.344C378.265 560.22 377.461 557.427 377.461 554.966C377.461 552.41 377.413 550.659 377.319 549.712C376.845 550.848 375.946 552.647 374.621 555.108C373.295 557.475 371.733 559.983 369.935 562.634C368.136 565.19 366.243 567.367 364.255 569.166C362.267 570.965 360.421 571.864 358.717 571.864ZM435.779 626.25C431.425 626.25 427.212 624.451 423.141 620.854C419.165 617.257 415.805 612.05 413.059 605.234C410.409 598.418 408.847 590.182 408.373 580.526C405.439 580.81 402.741 580.952 400.279 580.952C394.789 580.952 390.765 580.242 388.209 578.822C385.748 577.402 384.517 575.556 384.517 573.284C384.517 571.012 385.606 568.503 387.783 565.758C389.961 563.013 392.99 560.267 396.871 557.522C400.753 554.682 405.297 552.126 410.503 549.854C412.302 540.198 415.189 529.785 419.165 518.614C423.236 507.349 428.679 495.421 435.495 482.83C436.158 481.599 437.152 480.984 438.477 480.984C439.329 480.984 440.087 481.268 440.749 481.836C441.412 482.404 441.743 483.161 441.743 484.108C441.743 484.581 441.601 485.197 441.317 485.954C435.259 498.166 430.194 509.384 426.123 519.608C422.147 529.737 419.023 539.015 416.751 547.44C421.011 545.831 425.555 544.505 430.383 543.464C435.211 542.423 440.134 541.807 445.151 541.618C446.477 541.618 447.139 541.807 447.139 542.186C447.139 542.565 446.666 542.943 445.719 543.322C444.867 543.606 443.4 543.795 441.317 543.89C436.679 544.174 432.229 544.837 427.969 545.878C423.804 546.825 419.875 548.008 416.183 549.428C414.763 554.919 413.675 560.031 412.917 564.764C412.16 569.403 411.687 573.71 411.497 577.686C421.248 575.603 430.099 572.574 438.051 568.598C446.098 564.527 453.198 559.841 459.351 554.54C465.505 549.239 470.664 543.748 474.829 538.068C477.48 534.471 479.373 531.299 480.509 528.554C481.74 525.714 482.355 523.253 482.355 521.17C482.355 518.141 481.409 515.774 479.515 514.07C477.622 512.271 475.113 510.993 471.989 510.236C468.865 509.384 465.457 508.958 461.765 508.958C457.884 508.958 453.955 509.337 449.979 510.094C446.003 510.757 442.406 511.703 439.187 512.934C438.43 513.123 437.909 513.218 437.625 513.218C436.395 513.218 435.779 512.792 435.779 511.94C435.779 511.088 436.3 510.425 437.341 509.952C448.985 503.325 457.269 497.314 462.191 491.918C467.114 486.522 469.575 481.978 469.575 478.286C469.575 475.067 468.061 472.606 465.031 470.902C462.097 469.103 458.215 468.204 453.387 468.204C449.601 468.204 445.341 468.819 440.607 470.05C435.874 471.281 430.999 473.269 425.981 476.014C421.816 478.286 418.029 480.984 414.621 484.108C411.308 487.137 408.468 490.309 406.101 493.622C403.829 496.841 402.125 499.917 400.989 502.852C399.853 505.692 399.427 508.106 399.711 510.094C399.711 510.283 399.711 510.52 399.711 510.804C399.806 510.993 399.853 511.183 399.853 511.372C399.853 513.739 399.143 514.922 397.723 514.922C397.061 514.922 396.351 514.449 395.593 513.502C394.931 512.555 394.599 511.135 394.599 509.242C394.599 506.402 395.451 503.373 397.155 500.154C398.954 496.935 401.321 493.717 404.255 490.498C407.285 487.185 410.645 484.108 414.337 481.268C418.029 478.333 421.863 475.825 425.839 473.742C430.951 470.997 435.969 468.961 440.891 467.636C445.909 466.311 450.5 465.648 454.665 465.648C460.44 465.648 465.126 466.784 468.723 469.056C472.321 471.328 474.119 474.499 474.119 478.57C474.119 482.357 472.273 486.759 468.581 491.776C464.889 496.793 458.689 502.331 449.979 508.39C452.914 507.917 455.659 507.585 458.215 507.396C460.771 507.112 463.138 506.97 465.315 506.97C473.457 506.97 479.326 508.343 482.923 511.088C486.615 513.739 488.461 517.194 488.461 521.454C488.461 524.578 487.562 527.986 485.763 531.678C484.059 535.275 481.645 539.015 478.521 542.896C473.977 548.481 468.25 553.877 461.339 559.084C454.523 564.291 446.855 568.787 438.335 572.574C429.91 576.361 420.917 578.917 411.355 580.242C411.166 588.667 411.923 595.625 413.627 601.116C415.426 606.607 417.698 610.867 420.443 613.896C423.189 617.02 425.934 619.197 428.679 620.428C431.425 621.753 433.697 622.416 435.495 622.416C436.821 622.416 437.72 622.179 438.193 621.706C438.572 621.233 439.14 620.996 439.897 620.996C440.655 620.996 441.365 621.28 442.027 621.848C442.69 622.416 443.021 623.031 443.021 623.694C443.021 624.262 442.69 624.688 442.027 624.972C439.945 625.824 437.862 626.25 435.779 626.25ZM400.847 579.106C401.889 579.106 403.025 579.011 404.255 578.822C405.486 578.727 406.811 578.585 408.231 578.396C408.137 574.42 408.231 570.255 408.515 565.9C408.799 561.545 409.32 557.001 410.077 552.268C404.019 555.392 399.238 558.895 395.735 562.776C392.233 566.563 390.481 569.923 390.481 572.858C390.481 574.657 391.333 576.124 393.037 577.26C394.741 578.491 397.345 579.106 400.847 579.106ZM498.723 585.496C498.155 585.496 497.682 585.023 497.303 584.076C496.356 582.088 495.646 579.106 495.173 575.13C494.7 571.249 494.463 566.847 494.463 561.924C494.463 556.149 494.747 550.138 495.315 543.89C494.084 545.405 492.901 546.919 491.765 548.434C490.724 549.854 489.872 550.895 489.209 551.558C488.83 551.937 488.452 552.126 488.073 552.126C487.316 552.126 486.937 551.605 486.937 550.564C486.937 549.617 487.458 548.481 488.499 547.156C489.635 545.831 490.913 544.505 492.333 543.18C493.753 541.76 494.889 540.671 495.741 539.914C496.404 532.909 497.303 526.14 498.439 519.608C499.575 513.076 500.853 507.396 502.273 502.568C503.788 497.645 505.397 494.237 507.101 492.344C507.953 491.492 508.947 491.066 510.083 491.066C511.124 491.066 511.976 491.397 512.639 492.06C513.302 492.628 513.633 493.433 513.633 494.474C513.633 495.705 513.065 497.456 511.929 499.728C510.888 501.905 509.657 504.414 508.237 507.254C506.817 509.999 505.444 514.023 504.119 519.324C502.794 524.625 501.61 530.353 500.569 536.506C503.409 534.991 506.438 534.234 509.657 534.234C513.444 534.234 516.189 535.417 517.893 537.784C519.692 540.056 520.591 542.849 520.591 546.162C520.591 549.191 519.976 552.363 518.745 555.676C517.609 558.989 516.189 562.066 514.485 564.906C512.781 567.746 511.124 570.018 509.515 571.722C508.568 572.669 507.574 573.663 506.533 574.704C505.492 575.745 504.166 576.266 502.557 576.266C501.326 576.266 500.427 575.793 499.859 574.846C499.291 573.899 499.007 572.858 499.007 571.722C499.007 570.87 499.338 569.545 500.001 567.746C500.664 565.947 501.468 564.007 502.415 561.924C503.456 559.841 504.498 557.853 505.539 555.96C506.58 554.067 507.48 552.552 508.237 551.416C508.616 550.753 509.136 549.949 509.799 549.002C510.556 547.961 511.124 547.44 511.503 547.44C511.692 547.44 511.787 547.582 511.787 547.866C511.787 548.245 511.55 548.907 511.077 549.854C510.604 550.706 510.13 551.511 509.657 552.268C508.71 554.067 507.622 556.244 506.391 558.8C505.16 561.356 504.072 563.912 503.125 566.468C502.178 568.929 501.705 570.965 501.705 572.574C501.705 573.331 501.942 573.71 502.415 573.71C502.888 573.71 503.456 573.379 504.119 572.716C504.876 571.959 505.634 571.154 506.391 570.302C507.148 569.355 507.669 568.693 507.953 568.314C510.13 565.285 511.882 561.782 513.207 557.806C514.532 553.83 515.195 550.138 515.195 546.73C515.195 543.795 514.674 541.381 513.633 539.488C512.592 537.5 510.84 536.506 508.379 536.506C506.107 536.506 503.314 537.547 500.001 539.63C499.244 544.647 498.628 549.665 498.155 554.682C497.682 559.605 497.445 564.149 497.445 568.314C497.445 570.965 497.54 573.331 497.729 575.414C498.013 577.497 498.392 579.201 498.865 580.526C499.149 581.189 499.338 581.757 499.433 582.23C499.528 582.798 499.575 583.319 499.575 583.792C499.575 584.928 499.291 585.496 498.723 585.496ZM566.203 589.188C558.914 589.188 552.429 587.342 546.749 583.65C541.069 580.053 536.241 575.225 532.265 569.166C528.384 563.107 525.402 556.386 523.319 549.002C521.331 541.523 520.337 533.997 520.337 526.424C520.337 519.797 521.142 513.407 522.751 507.254C524.36 501.101 526.869 495.61 530.277 490.782C533.685 485.859 537.945 481.978 543.057 479.138C548.264 476.298 554.417 474.878 561.517 474.878C568.333 474.878 573.871 476.109 578.131 478.57C582.486 481.031 585.704 484.203 587.787 488.084C589.87 491.965 590.911 496.036 590.911 500.296C590.911 504.556 589.917 508.721 587.929 512.792C585.941 516.768 583.054 520.081 579.267 522.732C575.575 525.288 571.031 526.661 565.635 526.85C564.783 526.85 564.357 526.661 564.357 526.282C564.357 525.525 565.256 525.051 567.055 524.862C570.936 524.767 574.25 523.631 576.995 521.454C579.74 519.182 581.823 516.342 583.243 512.934C584.663 509.431 585.373 505.787 585.373 502C585.373 497.929 584.474 494.001 582.675 490.214C580.971 486.427 578.273 483.303 574.581 480.842C570.889 478.381 566.156 477.15 560.381 477.15C554.606 477.15 549.636 478.428 545.471 480.984C541.306 483.54 537.85 487.043 535.105 491.492C532.454 495.847 530.466 500.817 529.141 506.402C527.816 511.987 527.153 517.857 527.153 524.01C527.153 531.489 528.052 538.92 529.851 546.304C531.744 553.688 534.442 560.457 537.945 566.61C541.448 572.669 545.708 577.497 550.725 581.094C555.742 584.786 561.47 586.632 567.907 586.632C572.262 586.632 576.285 585.638 579.977 583.65C583.669 581.757 586.651 578.822 588.923 574.846C591.29 570.965 592.473 566.089 592.473 560.22C592.473 558.137 592.331 555.96 592.047 553.688C591.763 551.416 591.242 549.002 590.485 546.446C590.39 546.162 590.343 545.831 590.343 545.452C590.343 544.789 590.532 544.458 590.911 544.458C591.384 544.458 591.81 544.931 592.189 545.878C593.988 551.274 594.887 556.339 594.887 561.072C594.887 566.657 593.704 571.533 591.337 575.698C588.97 579.958 585.657 583.271 581.397 585.638C577.137 588.005 572.072 589.188 566.203 589.188ZM555.553 614.464C553.849 614.464 552.287 614.18 550.867 613.612C549.542 613.044 548.595 612.145 548.027 610.914C548.027 610.535 548.311 610.346 548.879 610.346C549.163 610.346 549.4 610.393 549.589 610.488C549.873 610.677 550.062 610.867 550.157 611.056C550.914 611.813 551.861 612.287 552.997 612.476C554.228 612.76 555.364 612.902 556.405 612.902C559.056 612.902 560.996 612.003 562.227 610.204C563.458 608.5 564.073 606.701 564.073 604.808C564.073 603.293 563.694 601.968 562.937 600.832C562.274 599.696 561.186 599.128 559.671 599.128C558.44 599.128 557.446 599.412 556.689 599.98C556.026 600.643 555.458 600.974 554.985 600.974C554.606 600.974 554.228 600.832 553.849 600.548C553.565 600.359 553.423 600.075 553.423 599.696C553.423 599.317 553.565 598.986 553.849 598.702C554.038 598.513 554.559 597.897 555.411 596.856C556.358 595.815 557.399 594.631 558.535 593.306C559.671 591.981 560.665 590.845 561.517 589.898C562.369 588.951 562.842 588.478 562.937 588.478C563.126 588.478 563.458 588.478 563.931 588.478C564.499 588.573 564.736 588.667 564.641 588.762C564.546 588.857 564.12 589.33 563.363 590.182C562.606 591.034 561.801 591.933 560.949 592.88C560.192 593.921 559.576 594.821 559.103 595.578C558.63 596.43 558.582 596.951 558.961 597.14C559.34 597.045 559.955 596.998 560.807 596.998C562.7 596.998 564.594 597.613 566.487 598.844C568.38 600.075 569.327 601.826 569.327 604.098C569.327 606.275 568.617 608.121 567.197 609.636C565.777 611.245 563.978 612.429 561.801 613.186C559.718 614.038 557.636 614.464 555.553 614.464ZM607.263 575.84C604.897 575.84 602.814 574.988 601.015 573.284C599.311 571.675 598.459 568.882 598.459 564.906C598.459 562.823 598.885 560.267 599.737 557.238C600.589 554.114 601.725 550.848 603.145 547.44C604.66 544.032 606.364 540.861 608.257 537.926C610.151 534.991 612.139 532.577 614.221 530.684C616.304 528.791 618.339 527.844 620.327 527.844C621.937 527.844 623.073 528.412 623.735 529.548C624.493 530.684 624.871 531.915 624.871 533.24C624.871 534.376 624.635 535.417 624.161 536.364C623.783 537.216 623.215 537.642 622.457 537.642C621.7 537.642 621.132 537.311 620.753 536.648C620.469 535.891 620.185 535.181 619.901 534.518C619.712 533.761 619.191 533.382 618.339 533.382C616.635 533.382 614.931 534.518 613.227 536.79C611.523 538.967 609.961 541.76 608.541 545.168C607.121 548.576 605.985 552.079 605.133 555.676C604.281 559.273 603.855 562.445 603.855 565.19C603.855 567.557 604.139 569.308 604.707 570.444C605.37 571.485 606.553 572.006 608.257 572.006C610.435 572.006 612.517 571.391 614.505 570.16C616.588 568.835 618.481 567.225 620.185 565.332C621.889 563.439 623.309 561.64 624.445 559.936C625.676 558.232 626.528 556.954 627.001 556.102C628.137 553.925 629.037 552.836 629.699 552.836C629.983 552.836 630.125 553.215 630.125 553.972C630.125 554.919 629.936 555.865 629.557 556.812C629.179 557.664 628.8 558.469 628.421 559.226C627.096 562.066 625.297 564.764 623.025 567.32C620.753 569.781 618.245 571.817 615.499 573.426C612.849 575.035 610.103 575.84 607.263 575.84Z" fill="#3C4043"/>
<rect x="245" y="452" width="376" height="176" stroke="#FF6D7F" stroke-width="4"/>
<path d="M762.58 580H738.866L736.168 566.084H719.412L716.714 580H694.136L710.324 491.818H746.392L762.58 580ZM733.47 549.47L728.5 517.946H727.506L722.536 549.47H733.47ZM716.288 476.198C716.288 472.885 717.377 470.281 719.554 468.388C721.731 466.4 724.571 465.406 728.074 465.406C731.577 465.406 734.369 466.353 736.452 468.246C738.535 470.045 739.576 472.601 739.576 475.914C739.576 479.227 738.535 481.878 736.452 483.866C734.369 485.759 731.577 486.706 728.074 486.706C724.571 486.706 721.731 485.759 719.554 483.866C717.377 481.973 716.288 479.417 716.288 476.198ZM730.914 475.914C730.914 473.263 729.92 471.938 727.932 471.938C725.944 471.938 724.95 473.263 724.95 475.914C724.95 478.565 725.944 479.89 727.932 479.89C729.92 479.89 730.914 478.565 730.914 475.914ZM819.245 529.732L818.535 559.126C818.535 560.925 818.961 562.155 819.813 562.818C820.759 563.386 822.321 563.67 824.499 563.67L822.369 580.852C816.878 581.231 813.849 581.42 813.281 581.42C806.275 581.42 801.826 579.006 799.933 574.178H799.223C795.72 579.006 790.324 581.42 783.035 581.42C777.449 581.42 773.142 579.621 770.113 576.024C767.178 572.427 765.711 567.504 765.711 561.256C765.711 553.399 768.125 547.955 772.953 544.926C777.875 541.897 785.591 539.909 796.099 538.962V535.554C796.099 532.903 794.773 531.578 792.123 531.578C787.579 531.578 780.479 532.951 770.823 535.696L767.273 514.964C779.39 511.84 789.472 510.278 797.519 510.278C805.565 510.278 811.198 511.84 814.417 514.964C817.635 518.088 819.245 523.011 819.245 529.732ZM791.839 564.806C795.341 564.806 797.093 562.96 797.093 559.268V552.31C793.59 552.783 791.081 553.541 789.567 554.582C788.147 555.529 787.437 557.185 787.437 559.552C787.437 563.055 788.904 564.806 791.839 564.806ZM893.872 554.582C893.872 571.527 884.784 580 866.608 580H831.818V491.818H865.898C874.892 491.818 881.566 493.664 885.92 497.356C890.275 500.953 892.452 506.728 892.452 514.68C892.452 522.632 889.186 528.691 882.654 532.856V533.708C890.133 536.643 893.872 543.601 893.872 554.582ZM860.928 564.238C863.768 564.238 865.662 563.623 866.608 562.392C867.65 561.067 868.17 558.416 868.17 554.44C868.17 550.369 867.65 547.529 866.608 545.92C865.567 544.216 863.674 543.364 860.928 543.364H856.384V564.238H860.928ZM861.07 529.59C863.248 529.59 864.762 528.927 865.614 527.602C866.466 526.277 866.892 523.957 866.892 520.644C866.892 517.236 866.419 514.869 865.472 513.544C864.62 512.124 863.106 511.414 860.928 511.414H856.384V529.59H861.07ZM936.489 510.42C945.388 510.42 951.304 513.023 954.239 518.23C957.174 523.342 958.641 532.193 958.641 544.784C958.641 557.28 957.079 566.51 953.955 572.474C950.831 578.438 944.725 581.42 935.637 581.42C928.537 581.42 923.567 579.574 920.727 575.882H920.159L918.739 580H900.137V488.978H923.851V513.544H924.419C927.543 511.461 931.566 510.42 936.489 510.42ZM933.933 558.7C934.312 556.996 934.548 555.339 934.643 553.73C934.738 552.121 934.785 549.091 934.785 544.642C934.785 540.098 934.454 536.643 933.791 534.276C933.128 531.815 931.756 530.584 929.673 530.584C927.685 530.584 925.697 531.152 923.709 532.288V561.682C925.508 562.534 927.212 562.96 928.821 562.96C930.525 562.96 931.708 562.676 932.371 562.108C933.128 561.445 933.649 560.309 933.933 558.7ZM1007.32 584.686C1008.84 585.443 1010.3 586.532 1011.72 587.952C1013.24 589.372 1014 591.407 1014 594.058C1014 596.709 1012.76 599.028 1010.3 601.016C1007.94 603.004 1004.34 603.998 999.511 603.998C994.778 603.998 990.376 602.483 986.305 599.454L991.417 589.514C994.731 592.638 997.713 594.2 1000.36 594.2C1001.12 594.2 1001.5 593.821 1001.5 593.064C1001.5 592.401 1000.98 591.786 999.937 591.218L996.955 589.514C994.967 588.283 993.973 586.816 993.973 585.112C993.973 583.408 994.541 581.988 995.677 580.852C986.684 579.432 979.395 574.935 973.809 567.362C968.319 559.789 965.573 549.233 965.573 535.696C965.573 522.064 969.123 510.799 976.223 501.9C983.418 493.001 992.364 488.552 1003.06 488.552C1013.76 488.552 1021.76 491.345 1027.06 496.93L1019.11 518.23C1017.31 516.431 1015.84 515.059 1014.71 514.112C1011.58 511.367 1007.98 509.994 1003.91 509.994C999.937 509.994 996.719 512.408 994.257 517.236C991.796 522.064 990.565 528.17 990.565 535.554C990.565 542.938 991.796 548.997 994.257 553.73C996.813 558.463 1000.17 560.83 1004.34 560.83C1009.92 560.83 1014.89 558.416 1019.25 553.588L1027.2 573.752C1021.52 578.201 1014.42 580.71 1005.9 581.278C1005.43 581.941 1005.19 582.509 1005.19 582.982C1005.19 583.455 1005.9 584.023 1007.32 584.686ZM1062.11 531.01C1059.36 531.01 1057.52 532.288 1056.57 534.844C1055.62 537.305 1055.15 541.187 1055.15 546.488C1055.15 551.789 1055.58 555.623 1056.43 557.99C1057.37 560.357 1059.27 561.54 1062.11 561.54C1065.04 561.54 1068.83 561.019 1073.47 559.978L1076.02 578.154C1069.49 580.331 1063.67 581.42 1058.56 581.42C1049.56 581.42 1042.75 578.391 1038.11 572.332C1033.57 566.273 1031.29 557.801 1031.29 546.914C1031.29 536.027 1033.66 527.223 1038.39 520.502C1043.13 513.686 1049.99 510.278 1058.98 510.278C1065.71 510.278 1071.76 511.414 1077.16 513.686L1074.6 534.56C1069.11 532.193 1064.95 531.01 1062.11 531.01Z" fill="#3C4043"/>
<rect x="695" y="464" width="381" height="152" stroke="#FF6D7F" stroke-width="4"/>
<path d="M1191.88 489.68H1200.26L1242.15 590.5H1231.64L1218.57 558.976H1173.28L1160.35 590.5H1149.7L1191.88 489.68ZM1216.3 551.166L1196 501.324L1175.41 551.166H1216.3ZM1183.36 468.806C1183.36 465.303 1184.54 462.463 1186.91 460.286C1189.37 458.014 1192.4 456.878 1196 456.878C1199.69 456.878 1202.72 458.014 1205.08 460.286C1207.45 462.463 1208.63 465.303 1208.63 468.806C1208.63 472.309 1207.45 475.149 1205.08 477.326C1202.72 479.503 1199.69 480.592 1196 480.592C1192.4 480.592 1189.37 479.503 1186.91 477.326C1184.54 475.149 1183.36 472.309 1183.36 468.806ZM1196 461.848C1194.1 461.848 1192.45 462.463 1191.03 463.694C1189.7 464.925 1189.04 466.629 1189.04 468.806C1189.04 470.794 1189.7 472.451 1191.03 473.776C1192.35 475.101 1194.01 475.764 1196 475.764C1197.79 475.764 1199.4 475.149 1200.82 473.918C1202.34 472.593 1203.1 470.889 1203.1 468.806C1203.1 466.629 1202.39 464.925 1200.97 463.694C1199.55 462.463 1197.89 461.848 1196 461.848ZM1247.54 569.2C1247.54 564.561 1248.86 560.585 1251.51 557.272C1254.16 553.864 1257.81 551.261 1262.45 549.462C1267.18 547.569 1272.62 546.622 1278.78 546.622C1282.37 546.622 1286.11 546.906 1290 547.474C1293.88 548.042 1297.33 548.894 1300.36 550.03V543.782C1300.36 537.534 1298.52 532.564 1294.82 528.872C1291.13 525.18 1286.02 523.334 1279.49 523.334C1275.51 523.334 1271.58 524.091 1267.7 525.606C1263.91 527.026 1259.94 529.156 1255.77 531.996L1252.08 525.18C1256.91 521.867 1261.64 519.405 1266.28 517.796C1270.92 516.092 1275.65 515.24 1280.48 515.24C1289.57 515.24 1296.76 517.843 1302.07 523.05C1307.37 528.257 1310.02 535.451 1310.02 544.634V578.856C1310.02 580.181 1310.3 581.175 1310.87 581.838C1311.44 582.406 1312.34 582.737 1313.57 582.832V590.5C1312.53 590.595 1311.63 590.689 1310.87 590.784C1310.11 590.879 1309.54 590.879 1309.17 590.784C1306.8 590.689 1305 589.932 1303.77 588.512C1302.54 587.092 1301.88 585.577 1301.78 583.968L1301.64 578.572C1298.33 582.832 1294.02 586.145 1288.72 588.512C1283.42 590.784 1278.02 591.92 1272.53 591.92C1267.8 591.92 1263.49 590.926 1259.61 588.938C1255.82 586.855 1252.84 584.11 1250.66 580.702C1248.58 577.199 1247.54 573.365 1247.54 569.2ZM1297.1 574.88C1298.14 573.555 1298.94 572.277 1299.51 571.046C1300.08 569.815 1300.36 568.727 1300.36 567.78V556.988C1297.14 555.757 1293.78 554.811 1290.28 554.148C1286.87 553.485 1283.42 553.154 1279.91 553.154C1273 553.154 1267.42 554.527 1263.16 557.272C1258.9 560.017 1256.77 563.757 1256.77 568.49C1256.77 571.235 1257.48 573.839 1258.9 576.3C1260.32 578.667 1262.4 580.655 1265.15 582.264C1267.89 583.779 1271.11 584.536 1274.8 584.536C1279.44 584.536 1283.75 583.637 1287.72 581.838C1291.79 580.039 1294.92 577.72 1297.1 574.88ZM1408.7 564.514C1408.7 569.531 1407.42 574.028 1404.86 578.004C1402.31 581.885 1398.85 584.962 1394.5 587.234C1390.24 589.411 1385.55 590.5 1380.44 590.5H1332.87V489.68H1381.43C1386.17 489.68 1390.24 490.958 1393.64 493.514C1397.15 495.975 1399.8 499.194 1401.6 503.17C1403.49 507.051 1404.44 511.122 1404.44 515.382C1404.44 520.399 1403.16 525.038 1400.6 529.298C1398.05 533.558 1394.5 536.729 1389.95 538.812C1395.73 540.516 1400.27 543.687 1403.58 548.326C1406.99 552.965 1408.7 558.361 1408.7 564.514ZM1398.76 562.81C1398.76 559.402 1398 556.278 1396.48 553.438C1394.97 550.503 1392.89 548.137 1390.24 546.338C1387.68 544.539 1384.75 543.64 1381.43 543.64H1342.81V581.838H1380.44C1383.85 581.838 1386.92 580.939 1389.67 579.14C1392.41 577.341 1394.59 575.022 1396.2 572.182C1397.9 569.247 1398.76 566.123 1398.76 562.81ZM1342.81 498.342V535.546H1377.46C1380.77 535.546 1383.7 534.694 1386.26 532.99C1388.82 531.191 1390.85 528.872 1392.37 526.032C1393.88 523.192 1394.64 520.163 1394.64 516.944C1394.64 513.536 1393.93 510.459 1392.51 507.714C1391.09 504.874 1389.15 502.602 1386.69 500.898C1384.23 499.194 1381.43 498.342 1378.31 498.342H1342.81ZM1461.66 591.92C1455.89 591.92 1450.54 590.453 1445.62 587.518C1440.7 584.489 1436.86 580.702 1434.12 576.158V590.5H1425.45V486.84H1435.11V531.996C1438.42 526.979 1442.4 522.955 1447.04 519.926C1451.68 516.802 1457.07 515.24 1463.23 515.24C1468.43 515.24 1473.07 516.329 1477.14 518.506C1481.31 520.683 1484.86 523.618 1487.79 527.31C1490.73 530.907 1492.95 535.025 1494.47 539.664C1495.98 544.208 1496.74 548.894 1496.74 553.722C1496.74 558.929 1495.84 563.804 1494.04 568.348C1492.34 572.892 1489.88 576.963 1486.66 580.56C1483.44 584.063 1479.7 586.855 1475.44 588.938C1471.27 590.926 1466.68 591.92 1461.66 591.92ZM1459.39 583.4C1463.37 583.4 1467.06 582.595 1470.47 580.986C1473.88 579.377 1476.81 577.152 1479.27 574.312C1481.73 571.472 1483.63 568.301 1484.95 564.798C1486.28 561.201 1486.94 557.509 1486.94 553.722C1486.94 548.515 1485.8 543.64 1483.53 539.096C1481.36 534.457 1478.28 530.765 1474.3 528.02C1470.42 525.18 1465.83 523.76 1460.53 523.76C1456.74 523.76 1453.19 524.612 1449.88 526.316C1446.66 528.02 1443.77 530.292 1441.22 533.132C1438.76 535.877 1436.72 538.907 1435.11 542.22V565.224C1435.49 567.78 1436.48 570.194 1438.09 572.466C1439.7 574.643 1441.69 576.537 1444.06 578.146C1446.52 579.755 1449.07 581.033 1451.72 581.98C1454.38 582.927 1456.93 583.4 1459.39 583.4ZM1508.41 539.38C1508.41 533.227 1509.45 527.215 1511.53 521.346C1513.71 515.382 1516.83 509.986 1520.91 505.158C1524.98 500.235 1529.99 496.354 1535.96 493.514C1541.92 490.579 1548.69 489.112 1556.26 489.112C1565.26 489.112 1572.92 491.195 1579.27 495.36C1585.7 499.431 1590.44 504.685 1593.47 511.122L1585.66 515.95C1583.48 511.501 1580.73 507.998 1577.42 505.442C1574.11 502.791 1570.56 500.898 1566.77 499.762C1563.08 498.626 1559.39 498.058 1555.7 498.058C1549.64 498.058 1544.29 499.289 1539.65 501.75C1535.01 504.117 1531.08 507.335 1527.86 511.406C1524.74 515.382 1522.37 519.879 1520.76 524.896C1519.15 529.819 1518.35 534.836 1518.35 539.948C1518.35 545.533 1519.3 550.882 1521.19 555.994C1523.08 561.106 1525.73 565.65 1529.14 569.626C1532.55 573.507 1536.53 576.631 1541.07 578.998C1545.71 581.27 1550.73 582.406 1556.12 582.406C1559.91 582.406 1563.79 581.743 1567.77 580.418C1571.74 579.093 1575.43 577.057 1578.84 574.312C1582.34 571.567 1585.14 568.017 1587.22 563.662L1595.46 567.922C1593.37 572.939 1590.15 577.199 1585.8 580.702C1581.44 584.205 1576.57 586.855 1571.17 588.654C1565.87 590.453 1560.67 591.352 1555.55 591.352C1548.64 591.352 1542.3 589.885 1536.53 586.95C1530.75 583.921 1525.73 579.945 1521.47 575.022C1517.31 570.005 1514.09 564.419 1511.82 558.266C1509.55 552.018 1508.41 545.723 1508.41 539.38ZM1553.99 616.06C1551.62 616.06 1548.97 615.729 1546.04 615.066C1543.2 614.403 1540.45 613.409 1537.8 612.084L1540.64 606.546C1542.63 607.493 1544.52 608.25 1546.32 608.818C1548.12 609.386 1550.16 609.67 1552.43 609.67C1555.55 609.67 1557.97 609.055 1559.67 607.824C1561.38 606.688 1562.23 604.889 1562.23 602.428C1562.23 599.967 1561.38 597.789 1559.67 595.896C1557.97 594.097 1555.51 592.299 1552.29 590.5L1556.41 587.802C1560.1 590.074 1563.08 592.393 1565.35 594.76C1567.62 597.221 1568.76 600.298 1568.76 603.99C1568.76 607.777 1567.43 610.711 1564.78 612.794C1562.13 614.971 1558.54 616.06 1553.99 616.06ZM1642.53 591.92C1637.14 591.92 1632.17 590.926 1627.62 588.938C1623.18 586.855 1619.25 584.015 1615.84 580.418C1612.53 576.821 1609.92 572.703 1608.03 568.064C1606.23 563.425 1605.33 558.503 1605.33 553.296C1605.33 546.291 1606.89 539.901 1610.02 534.126C1613.14 528.351 1617.5 523.76 1623.08 520.352C1628.67 516.944 1635.1 515.24 1642.39 515.24C1649.3 515.24 1655.41 516.849 1660.71 520.068C1666.01 523.192 1669.94 527.452 1672.5 532.848L1663.12 535.83C1661.04 532.043 1658.11 529.109 1654.32 527.026C1650.63 524.849 1646.51 523.76 1641.97 523.76C1637.04 523.76 1632.55 525.038 1628.48 527.594C1624.41 530.15 1621.14 533.653 1618.68 538.102C1616.31 542.551 1615.13 547.616 1615.13 553.296C1615.13 558.881 1616.36 563.946 1618.82 568.49C1621.28 573.034 1624.55 576.679 1628.62 579.424C1632.69 582.075 1637.19 583.4 1642.11 583.4C1645.33 583.4 1648.4 582.832 1651.34 581.696C1654.37 580.56 1656.97 579.045 1659.15 577.152C1661.42 575.164 1662.94 573.034 1663.69 570.762L1673.21 573.602C1671.88 577.105 1669.66 580.276 1666.53 583.116C1663.5 585.861 1659.91 588.039 1655.74 589.648C1651.67 591.163 1647.27 591.92 1642.53 591.92Z" fill="#3C4043"/>
<rect x="1150" y="458.5" width="526" height="163" stroke="#FF6D7F" stroke-width="4"/>
</svg>
