<svg width="1920" height="1080" viewBox="0 0 1920 1080" fill="none" xmlns="http://www.w3.org/2000/svg">
<rect x="243" y="415" width="340" height="100" rx="24" fill="#1A73E8"/>
<path d="M364.932 460H361.409C361.201 458.987 360.836 458.097 360.315 457.33C359.804 456.562 359.179 455.919 358.44 455.398C357.711 454.867 356.902 454.47 356.011 454.205C355.121 453.939 354.193 453.807 353.227 453.807C351.466 453.807 349.87 454.252 348.44 455.142C347.02 456.032 345.888 457.344 345.045 459.077C344.212 460.81 343.795 462.936 343.795 465.455C343.795 467.973 344.212 470.099 345.045 471.832C345.888 473.565 347.02 474.877 348.44 475.767C349.87 476.657 351.466 477.102 353.227 477.102C354.193 477.102 355.121 476.97 356.011 476.705C356.902 476.439 357.711 476.046 358.44 475.526C359.179 474.995 359.804 474.347 360.315 473.58C360.836 472.803 361.201 471.913 361.409 470.909H364.932C364.667 472.396 364.184 473.726 363.483 474.901C362.782 476.075 361.911 477.074 360.869 477.898C359.828 478.712 358.658 479.332 357.361 479.759C356.073 480.185 354.695 480.398 353.227 480.398C350.746 480.398 348.54 479.792 346.608 478.58C344.676 477.367 343.156 475.644 342.048 473.409C340.94 471.174 340.386 468.523 340.386 465.455C340.386 462.386 340.94 459.735 342.048 457.5C343.156 455.265 344.676 453.542 346.608 452.33C348.54 451.117 350.746 450.511 353.227 450.511C354.695 450.511 356.073 450.724 357.361 451.151C358.658 451.577 359.828 452.202 360.869 453.026C361.911 453.84 362.782 454.834 363.483 456.009C364.184 457.173 364.667 458.504 364.932 460ZM379.033 480.455C377.064 480.455 375.335 479.986 373.849 479.048C372.371 478.111 371.216 476.799 370.383 475.114C369.559 473.428 369.147 471.458 369.147 469.205C369.147 466.932 369.559 464.948 370.383 463.253C371.216 461.558 372.371 460.241 373.849 459.304C375.335 458.366 377.064 457.898 379.033 457.898C381.003 457.898 382.727 458.366 384.204 459.304C385.691 460.241 386.846 461.558 387.67 463.253C388.503 464.948 388.92 466.932 388.92 469.205C388.92 471.458 388.503 473.428 387.67 475.114C386.846 476.799 385.691 478.111 384.204 479.048C382.727 479.986 381.003 480.455 379.033 480.455ZM379.033 477.443C380.53 477.443 381.761 477.06 382.727 476.293C383.692 475.526 384.407 474.517 384.871 473.267C385.335 472.017 385.567 470.663 385.567 469.205C385.567 467.746 385.335 466.387 384.871 465.128C384.407 463.868 383.692 462.85 382.727 462.074C381.761 461.297 380.53 460.909 379.033 460.909C377.537 460.909 376.306 461.297 375.34 462.074C374.374 462.85 373.659 463.868 373.195 465.128C372.731 466.387 372.499 467.746 372.499 469.205C372.499 470.663 372.731 472.017 373.195 473.267C373.659 474.517 374.374 475.526 375.34 476.293C376.306 477.06 377.537 477.443 379.033 477.443ZM397.389 466.875V480H394.037V458.182H397.276V461.591H397.56C398.071 460.483 398.848 459.593 399.889 458.92C400.931 458.239 402.276 457.898 403.923 457.898C405.401 457.898 406.693 458.201 407.801 458.807C408.909 459.403 409.771 460.312 410.386 461.534C411.002 462.746 411.31 464.28 411.31 466.136V480H407.957V466.364C407.957 464.65 407.512 463.314 406.622 462.358C405.732 461.392 404.51 460.909 402.957 460.909C401.887 460.909 400.931 461.141 400.088 461.605C399.255 462.069 398.597 462.746 398.114 463.636C397.631 464.527 397.389 465.606 397.389 466.875ZM427.151 458.182V461.023H415.39V458.182H427.151ZM418.913 480V455.17C418.913 453.92 419.206 452.879 419.793 452.045C420.38 451.212 421.143 450.587 422.08 450.17C423.018 449.754 424.007 449.545 425.049 449.545C425.873 449.545 426.545 449.612 427.066 449.744C427.587 449.877 427.975 450 428.231 450.114L427.265 453.011C427.094 452.955 426.858 452.884 426.555 452.798C426.261 452.713 425.873 452.67 425.39 452.67C424.282 452.67 423.482 452.95 422.989 453.509C422.506 454.067 422.265 454.886 422.265 455.966V480H418.913ZM431.849 480V458.182H435.202V480H431.849ZM433.554 454.545C432.901 454.545 432.337 454.323 431.864 453.878C431.4 453.433 431.168 452.898 431.168 452.273C431.168 451.648 431.4 451.113 431.864 450.668C432.337 450.223 432.901 450 433.554 450C434.207 450 434.766 450.223 435.23 450.668C435.704 451.113 435.94 451.648 435.94 452.273C435.94 452.898 435.704 453.433 435.23 453.878C434.766 454.323 434.207 454.545 433.554 454.545ZM441.342 480V458.182H444.58V461.477H444.808C445.205 460.398 445.925 459.522 446.967 458.849C448.008 458.177 449.183 457.841 450.489 457.841C450.736 457.841 451.043 457.846 451.413 457.855C451.782 457.865 452.061 457.879 452.251 457.898V461.307C452.137 461.278 451.877 461.236 451.469 461.179C451.072 461.113 450.65 461.08 450.205 461.08C449.145 461.08 448.198 461.302 447.364 461.747C446.54 462.183 445.887 462.789 445.404 463.565C444.931 464.332 444.694 465.208 444.694 466.193V480H441.342ZM456.224 480V458.182H459.463V461.591H459.747C460.202 460.426 460.936 459.522 461.949 458.878C462.962 458.224 464.179 457.898 465.599 457.898C467.039 457.898 468.237 458.224 469.193 458.878C470.159 459.522 470.912 460.426 471.452 461.591H471.679C472.238 460.464 473.076 459.569 474.193 458.906C475.311 458.234 476.651 457.898 478.213 457.898C480.164 457.898 481.759 458.509 483 459.73C484.241 460.942 484.861 462.831 484.861 465.398V480H481.509V465.398C481.509 463.788 481.068 462.637 480.188 461.946C479.307 461.255 478.27 460.909 477.077 460.909C475.543 460.909 474.354 461.373 473.511 462.301C472.669 463.22 472.247 464.384 472.247 465.795V480H468.838V465.057C468.838 463.816 468.436 462.817 467.631 462.06C466.826 461.293 465.789 460.909 464.52 460.909C463.649 460.909 462.834 461.141 462.077 461.605C461.329 462.069 460.723 462.713 460.259 463.537C459.804 464.351 459.577 465.294 459.577 466.364V480H456.224Z" fill="white"/>
<rect x="243" y="563" width="340" height="100" rx="24" fill="#1A73E8"/>
<path d="M357.445 593.809V590.566H361.195V600H357.367C356.404 598.112 355.082 596.641 353.402 595.586C351.723 594.531 349.88 594.004 347.875 594.004C345.935 594.004 344.203 594.518 342.68 595.547C341.156 596.562 339.965 597.93 339.105 599.648C338.259 601.354 337.836 603.19 337.836 605.156C337.836 607.188 338.279 609.062 339.164 610.781C340.062 612.5 341.293 613.874 342.855 614.902C344.418 615.931 346.156 616.445 348.07 616.445C350.427 616.445 352.51 615.729 354.32 614.297C356.13 612.852 357.452 610.807 358.285 608.164L362.035 610.156C361.02 613.438 359.223 615.983 356.645 617.793C354.079 619.59 351.065 620.488 347.602 620.488C344.75 620.488 342.217 619.811 340.004 618.457C337.79 617.09 336.065 615.26 334.828 612.969C333.604 610.664 332.992 608.138 332.992 605.391C332.992 602.409 333.617 599.753 334.867 597.422C336.13 595.091 337.868 593.288 340.082 592.012C342.296 590.723 344.828 590.078 347.68 590.078C349.594 590.078 351.358 590.397 352.973 591.035C354.587 591.673 356.078 592.598 357.445 593.809ZM387.055 609.766C387.055 611.758 386.579 613.581 385.629 615.234C384.678 616.888 383.383 618.197 381.742 619.16C380.102 620.124 378.285 620.605 376.293 620.605C374.236 620.605 372.38 620.124 370.727 619.16C369.073 618.197 367.784 616.888 366.859 615.234C365.948 613.581 365.492 611.758 365.492 609.766C365.492 607.682 365.948 605.82 366.859 604.18C367.784 602.539 369.066 601.257 370.707 600.332C372.348 599.395 374.21 598.926 376.293 598.926C378.311 598.926 380.141 599.421 381.781 600.41C383.422 601.387 384.711 602.702 385.648 604.355C386.586 606.009 387.055 607.812 387.055 609.766ZM376.293 616.68C377.491 616.68 378.591 616.367 379.594 615.742C380.596 615.117 381.378 614.277 381.938 613.223C382.497 612.168 382.777 611.016 382.777 609.766C382.777 608.542 382.497 607.402 381.938 606.348C381.378 605.293 380.596 604.447 379.594 603.809C378.591 603.158 377.478 602.832 376.254 602.832C375.056 602.832 373.956 603.151 372.953 603.789C371.951 604.414 371.163 605.26 370.59 606.328C370.017 607.396 369.73 608.542 369.73 609.766C369.73 610.99 370.017 612.135 370.59 613.203C371.163 614.271 371.957 615.117 372.973 615.742C373.988 616.367 375.095 616.68 376.293 616.68ZM409.652 606.191V616.406H413.09V620H405.609V606.445C405.609 605.156 405.421 604.232 405.043 603.672C404.678 603.112 404.073 602.832 403.227 602.832C401.43 602.832 399.411 603.717 397.172 605.488V616.406H400.707V620H389.574V616.406H393.188V603.086H389.574V599.473H397.172V601.953C399.685 600.117 402.048 599.199 404.262 599.199C406.098 599.199 407.452 599.766 408.324 600.898C409.21 602.031 409.652 603.796 409.652 606.191ZM428.773 594.688L425.18 595.234C425.062 593.906 424.555 593.242 423.656 593.242C423.122 593.242 422.719 593.438 422.445 593.828C422.185 594.206 422.055 594.98 422.055 596.152V599.473H435.043V616.406H438.168V620H427.816V616.406H431.02V603.047H422.055V616.406H425.922V620H415.004V616.406H418.012V603.047H415.004V599.473H418.012V596.23C418.012 594.421 418.435 592.923 419.281 591.738C420.141 590.553 421.501 589.961 423.363 589.961C426.488 589.961 428.292 591.536 428.773 594.688ZM435.336 592.559C435.336 593.223 435.095 593.796 434.613 594.277C434.132 594.759 433.559 595 432.895 595C432.23 595 431.658 594.766 431.176 594.297C430.694 593.828 430.453 593.249 430.453 592.559C430.453 591.868 430.694 591.289 431.176 590.82C431.658 590.352 432.23 590.117 432.895 590.117C433.559 590.117 434.132 590.358 434.613 590.84C435.095 591.322 435.336 591.895 435.336 592.559ZM448.051 611.758V616.406H452.523V620H439.926V616.406H444.047V603.086H439.926V599.473H447.25V604.121C448.07 602.285 449.086 601.009 450.297 600.293C451.521 599.564 453.266 599.199 455.531 599.199H456.449V603.281H455.57C453.383 603.281 451.755 603.568 450.688 604.141C449.62 604.714 448.91 605.579 448.559 606.738C448.22 607.897 448.051 609.57 448.051 611.758ZM461.781 616.406V603.086H458.324V599.473H465.805V602.07C468.214 600.156 470.577 599.199 472.895 599.199C475.264 599.199 476.892 600.267 477.777 602.402C480.408 600.267 482.888 599.199 485.219 599.199C486.872 599.199 488.188 599.688 489.164 600.664C490.154 601.641 490.648 603.138 490.648 605.156V616.406H494.242V620H486.645V606.992C486.645 606.094 486.599 605.365 486.508 604.805C486.417 604.245 486.176 603.77 485.785 603.379C485.408 602.988 484.802 602.793 483.969 602.793C483.227 602.793 482.361 603.014 481.371 603.457C480.382 603.9 479.34 604.564 478.246 605.449V616.406H481.723V620H474.203V606.484C474.203 605.169 474.001 604.225 473.598 603.652C473.207 603.079 472.556 602.793 471.645 602.793C470.16 602.793 468.214 603.678 465.805 605.449V616.406H469.418V620H458.09V616.406H461.781Z" fill="white"/>
<rect x="631" y="415" width="340" height="100" rx="24" fill="#1A73E8"/>
<path d="M718.001 456.667C717.084 456.667 716.334 457.417 716.334 458.334V463.334H711.334C710.417 463.334 709.667 464.084 709.667 465.001C709.667 465.917 710.417 466.667 711.334 466.667H716.334V471.667C716.334 472.584 717.084 473.334 718.001 473.334C718.917 473.334 719.667 472.584 719.667 471.667V466.667H724.667C725.584 466.667 726.334 465.917 726.334 465.001C726.334 464.084 725.584 463.334 724.667 463.334H719.667V458.334C719.667 457.417 718.917 456.667 718.001 456.667ZM718.001 448.334C708.801 448.334 701.334 455.801 701.334 465.001C701.334 474.201 708.801 481.667 718.001 481.667C727.201 481.667 734.667 474.201 734.667 465.001C734.667 455.801 727.201 448.334 718.001 448.334ZM718.001 478.334C710.651 478.334 704.667 472.351 704.667 465.001C704.667 457.651 710.651 451.667 718.001 451.667C725.351 451.667 731.334 457.651 731.334 465.001C731.334 472.351 725.351 478.334 718.001 478.334Z" fill="white"/>
<path d="M780.932 460H777.409C777.201 458.987 776.836 458.097 776.315 457.33C775.804 456.562 775.179 455.919 774.44 455.398C773.711 454.867 772.902 454.47 772.011 454.205C771.121 453.939 770.193 453.807 769.227 453.807C767.466 453.807 765.87 454.252 764.44 455.142C763.02 456.032 761.888 457.344 761.045 459.077C760.212 460.81 759.795 462.936 759.795 465.455C759.795 467.973 760.212 470.099 761.045 471.832C761.888 473.565 763.02 474.877 764.44 475.767C765.87 476.657 767.466 477.102 769.227 477.102C770.193 477.102 771.121 476.97 772.011 476.705C772.902 476.439 773.711 476.046 774.44 475.526C775.179 474.995 775.804 474.347 776.315 473.58C776.836 472.803 777.201 471.913 777.409 470.909H780.932C780.667 472.396 780.184 473.726 779.483 474.901C778.782 476.075 777.911 477.074 776.869 477.898C775.828 478.712 774.658 479.332 773.361 479.759C772.073 480.185 770.695 480.398 769.227 480.398C766.746 480.398 764.54 479.792 762.608 478.58C760.676 477.367 759.156 475.644 758.048 473.409C756.94 471.174 756.386 468.523 756.386 465.455C756.386 462.386 756.94 459.735 758.048 457.5C759.156 455.265 760.676 453.542 762.608 452.33C764.54 451.117 766.746 450.511 769.227 450.511C770.695 450.511 772.073 450.724 773.361 451.151C774.658 451.577 775.828 452.202 776.869 453.026C777.911 453.84 778.782 454.834 779.483 456.009C780.184 457.173 780.667 458.504 780.932 460ZM795.033 480.455C793.064 480.455 791.335 479.986 789.849 479.048C788.371 478.111 787.216 476.799 786.383 475.114C785.559 473.428 785.147 471.458 785.147 469.205C785.147 466.932 785.559 464.948 786.383 463.253C787.216 461.558 788.371 460.241 789.849 459.304C791.335 458.366 793.064 457.898 795.033 457.898C797.003 457.898 798.727 458.366 800.204 459.304C801.691 460.241 802.846 461.558 803.67 463.253C804.503 464.948 804.92 466.932 804.92 469.205C804.92 471.458 804.503 473.428 803.67 475.114C802.846 476.799 801.691 478.111 800.204 479.048C798.727 479.986 797.003 480.455 795.033 480.455ZM795.033 477.443C796.53 477.443 797.761 477.06 798.727 476.293C799.692 475.526 800.407 474.517 800.871 473.267C801.335 472.017 801.567 470.663 801.567 469.205C801.567 467.746 801.335 466.387 800.871 465.128C800.407 463.868 799.692 462.85 798.727 462.074C797.761 461.297 796.53 460.909 795.033 460.909C793.537 460.909 792.306 461.297 791.34 462.074C790.374 462.85 789.659 463.868 789.195 465.128C788.731 466.387 788.499 467.746 788.499 469.205C788.499 470.663 788.731 472.017 789.195 473.267C789.659 474.517 790.374 475.526 791.34 476.293C792.306 477.06 793.537 477.443 795.033 477.443ZM813.389 466.875V480H810.037V458.182H813.276V461.591H813.56C814.071 460.483 814.848 459.593 815.889 458.92C816.931 458.239 818.276 457.898 819.923 457.898C821.401 457.898 822.693 458.201 823.801 458.807C824.909 459.403 825.771 460.312 826.386 461.534C827.002 462.746 827.31 464.28 827.31 466.136V480H823.957V466.364C823.957 464.65 823.512 463.314 822.622 462.358C821.732 461.392 820.51 460.909 818.957 460.909C817.887 460.909 816.931 461.141 816.088 461.605C815.255 462.069 814.597 462.746 814.114 463.636C813.631 464.527 813.389 465.606 813.389 466.875ZM843.151 458.182V461.023H831.39V458.182H843.151ZM834.913 480V455.17C834.913 453.92 835.206 452.879 835.793 452.045C836.38 451.212 837.143 450.587 838.08 450.17C839.018 449.754 840.007 449.545 841.049 449.545C841.873 449.545 842.545 449.612 843.066 449.744C843.587 449.877 843.975 450 844.231 450.114L843.265 453.011C843.094 452.955 842.858 452.884 842.555 452.798C842.261 452.713 841.873 452.67 841.39 452.67C840.282 452.67 839.482 452.95 838.989 453.509C838.506 454.067 838.265 454.886 838.265 455.966V480H834.913ZM847.849 480V458.182H851.202V480H847.849ZM849.554 454.545C848.901 454.545 848.337 454.323 847.864 453.878C847.4 453.433 847.168 452.898 847.168 452.273C847.168 451.648 847.4 451.113 847.864 450.668C848.337 450.223 848.901 450 849.554 450C850.207 450 850.766 450.223 851.23 450.668C851.704 451.113 851.94 451.648 851.94 452.273C851.94 452.898 851.704 453.433 851.23 453.878C850.766 454.323 850.207 454.545 849.554 454.545ZM857.342 480V458.182H860.58V461.477H860.808C861.205 460.398 861.925 459.522 862.967 458.849C864.008 458.177 865.183 457.841 866.489 457.841C866.736 457.841 867.043 457.846 867.413 457.855C867.782 457.865 868.061 457.879 868.251 457.898V461.307C868.137 461.278 867.877 461.236 867.469 461.179C867.072 461.113 866.65 461.08 866.205 461.08C865.145 461.08 864.198 461.302 863.364 461.747C862.54 462.183 861.887 462.789 861.404 463.565C860.931 464.332 860.694 465.208 860.694 466.193V480H857.342ZM872.224 480V458.182H875.463V461.591H875.747C876.202 460.426 876.936 459.522 877.949 458.878C878.962 458.224 880.179 457.898 881.599 457.898C883.039 457.898 884.237 458.224 885.193 458.878C886.159 459.522 886.912 460.426 887.452 461.591H887.679C888.238 460.464 889.076 459.569 890.193 458.906C891.311 458.234 892.651 457.898 894.213 457.898C896.164 457.898 897.759 458.509 899 459.73C900.241 460.942 900.861 462.831 900.861 465.398V480H897.509V465.398C897.509 463.788 897.068 462.637 896.188 461.946C895.307 461.255 894.27 460.909 893.077 460.909C891.543 460.909 890.354 461.373 889.511 462.301C888.669 463.22 888.247 464.384 888.247 465.795V480H884.838V465.057C884.838 463.816 884.436 462.817 883.631 462.06C882.826 461.293 881.789 460.909 880.52 460.909C879.649 460.909 878.834 461.141 878.077 461.605C877.329 462.069 876.723 462.713 876.259 463.537C875.804 464.351 875.577 465.294 875.577 466.364V480H872.224Z" fill="white"/>
<rect x="631" y="563" width="340" height="100" rx="24" fill="#1A73E8"/>
<path d="M711.001 604.667C710.084 604.667 709.334 605.417 709.334 606.334V611.334H704.334C703.417 611.334 702.667 612.084 702.667 613.001C702.667 613.917 703.417 614.667 704.334 614.667H709.334V619.667C709.334 620.584 710.084 621.334 711.001 621.334C711.917 621.334 712.667 620.584 712.667 619.667V614.667H717.667C718.584 614.667 719.334 613.917 719.334 613.001C719.334 612.084 718.584 611.334 717.667 611.334H712.667V606.334C712.667 605.417 711.917 604.667 711.001 604.667ZM711.001 596.334C701.801 596.334 694.334 603.801 694.334 613.001C694.334 622.201 701.801 629.667 711.001 629.667C720.201 629.667 727.667 622.201 727.667 613.001C727.667 603.801 720.201 596.334 711.001 596.334ZM711.001 626.334C703.651 626.334 697.667 620.351 697.667 613.001C697.667 605.651 703.651 599.667 711.001 599.667C718.351 599.667 724.334 605.651 724.334 613.001C724.334 620.351 718.351 626.334 711.001 626.334Z" fill="white"/>
<path d="M773.445 593.809V590.566H777.195V600H773.367C772.404 598.112 771.082 596.641 769.402 595.586C767.723 594.531 765.88 594.004 763.875 594.004C761.935 594.004 760.203 594.518 758.68 595.547C757.156 596.562 755.965 597.93 755.105 599.648C754.259 601.354 753.836 603.19 753.836 605.156C753.836 607.188 754.279 609.062 755.164 610.781C756.062 612.5 757.293 613.874 758.855 614.902C760.418 615.931 762.156 616.445 764.07 616.445C766.427 616.445 768.51 615.729 770.32 614.297C772.13 612.852 773.452 610.807 774.285 608.164L778.035 610.156C777.02 613.438 775.223 615.983 772.645 617.793C770.079 619.59 767.065 620.488 763.602 620.488C760.75 620.488 758.217 619.811 756.004 618.457C753.79 617.09 752.065 615.26 750.828 612.969C749.604 610.664 748.992 608.138 748.992 605.391C748.992 602.409 749.617 599.753 750.867 597.422C752.13 595.091 753.868 593.288 756.082 592.012C758.296 590.723 760.828 590.078 763.68 590.078C765.594 590.078 767.358 590.397 768.973 591.035C770.587 591.673 772.078 592.598 773.445 593.809ZM803.055 609.766C803.055 611.758 802.579 613.581 801.629 615.234C800.678 616.888 799.383 618.197 797.742 619.16C796.102 620.124 794.285 620.605 792.293 620.605C790.236 620.605 788.38 620.124 786.727 619.16C785.073 618.197 783.784 616.888 782.859 615.234C781.948 613.581 781.492 611.758 781.492 609.766C781.492 607.682 781.948 605.82 782.859 604.18C783.784 602.539 785.066 601.257 786.707 600.332C788.348 599.395 790.21 598.926 792.293 598.926C794.311 598.926 796.141 599.421 797.781 600.41C799.422 601.387 800.711 602.702 801.648 604.355C802.586 606.009 803.055 607.812 803.055 609.766ZM792.293 616.68C793.491 616.68 794.591 616.367 795.594 615.742C796.596 615.117 797.378 614.277 797.938 613.223C798.497 612.168 798.777 611.016 798.777 609.766C798.777 608.542 798.497 607.402 797.938 606.348C797.378 605.293 796.596 604.447 795.594 603.809C794.591 603.158 793.478 602.832 792.254 602.832C791.056 602.832 789.956 603.151 788.953 603.789C787.951 604.414 787.163 605.26 786.59 606.328C786.017 607.396 785.73 608.542 785.73 609.766C785.73 610.99 786.017 612.135 786.59 613.203C787.163 614.271 787.957 615.117 788.973 615.742C789.988 616.367 791.095 616.68 792.293 616.68ZM825.652 606.191V616.406H829.09V620H821.609V606.445C821.609 605.156 821.421 604.232 821.043 603.672C820.678 603.112 820.073 602.832 819.227 602.832C817.43 602.832 815.411 603.717 813.172 605.488V616.406H816.707V620H805.574V616.406H809.188V603.086H805.574V599.473H813.172V601.953C815.685 600.117 818.048 599.199 820.262 599.199C822.098 599.199 823.452 599.766 824.324 600.898C825.21 602.031 825.652 603.796 825.652 606.191ZM844.773 594.688L841.18 595.234C841.062 593.906 840.555 593.242 839.656 593.242C839.122 593.242 838.719 593.438 838.445 593.828C838.185 594.206 838.055 594.98 838.055 596.152V599.473H851.043V616.406H854.168V620H843.816V616.406H847.02V603.047H838.055V616.406H841.922V620H831.004V616.406H834.012V603.047H831.004V599.473H834.012V596.23C834.012 594.421 834.435 592.923 835.281 591.738C836.141 590.553 837.501 589.961 839.363 589.961C842.488 589.961 844.292 591.536 844.773 594.688ZM851.336 592.559C851.336 593.223 851.095 593.796 850.613 594.277C850.132 594.759 849.559 595 848.895 595C848.23 595 847.658 594.766 847.176 594.297C846.694 593.828 846.453 593.249 846.453 592.559C846.453 591.868 846.694 591.289 847.176 590.82C847.658 590.352 848.23 590.117 848.895 590.117C849.559 590.117 850.132 590.358 850.613 590.84C851.095 591.322 851.336 591.895 851.336 592.559ZM864.051 611.758V616.406H868.523V620H855.926V616.406H860.047V603.086H855.926V599.473H863.25V604.121C864.07 602.285 865.086 601.009 866.297 600.293C867.521 599.564 869.266 599.199 871.531 599.199H872.449V603.281H871.57C869.383 603.281 867.755 603.568 866.688 604.141C865.62 604.714 864.91 605.579 864.559 606.738C864.22 607.897 864.051 609.57 864.051 611.758ZM877.781 616.406V603.086H874.324V599.473H881.805V602.07C884.214 600.156 886.577 599.199 888.895 599.199C891.264 599.199 892.892 600.267 893.777 602.402C896.408 600.267 898.888 599.199 901.219 599.199C902.872 599.199 904.188 599.688 905.164 600.664C906.154 601.641 906.648 603.138 906.648 605.156V616.406H910.242V620H902.645V606.992C902.645 606.094 902.599 605.365 902.508 604.805C902.417 604.245 902.176 603.77 901.785 603.379C901.408 602.988 900.802 602.793 899.969 602.793C899.227 602.793 898.361 603.014 897.371 603.457C896.382 603.9 895.34 604.564 894.246 605.449V616.406H897.723V620H890.203V606.484C890.203 605.169 890.001 604.225 889.598 603.652C889.207 603.079 888.556 602.793 887.645 602.793C886.16 602.793 884.214 603.678 881.805 605.449V616.406H885.418V620H874.09V616.406H877.781Z" fill="white"/>
<line x1="219" y1="465" x2="995" y2="465" stroke="#FF6D7F" stroke-width="2" stroke-dasharray="16 16"/>
<line x1="219" y1="613" x2="995" y2="613" stroke="#FF6D7F" stroke-width="2" stroke-dasharray="16 16"/>
<path d="M175.599 600.419C174.819 599.639 173.559 599.639 172.779 600.419L162.999 610.179L153.219 600.399C152.439 599.619 151.179 599.619 150.399 600.399C149.619 601.179 149.619 602.439 150.399 603.219L160.179 612.999L150.399 622.779C149.619 623.559 149.619 624.819 150.399 625.599C151.179 626.379 152.439 626.379 153.219 625.599L162.999 615.819L172.779 625.599C173.559 626.379 174.819 626.379 175.599 625.599C176.379 624.819 176.379 623.559 175.599 622.779L165.819 612.999L175.599 603.219C176.359 602.459 176.359 601.179 175.599 600.419V600.419Z" fill="#FF6D7F"/>
<path d="M156.999 473.341L150.059 466.401C149.279 465.621 148.019 465.621 147.239 466.401C146.459 467.181 146.459 468.441 147.239 469.221L155.599 477.581C156.379 478.361 157.639 478.361 158.419 477.581L179.579 456.421C180.359 455.641 180.359 454.381 179.579 453.601C178.799 452.821 177.539 452.821 176.759 453.601L156.999 473.341Z" fill="#1A73E8"/>
<path d="M1131.6 643.419C1130.82 642.639 1129.56 642.639 1128.78 643.419L1119 653.179L1109.22 643.399C1108.44 642.619 1107.18 642.619 1106.4 643.399C1105.62 644.179 1105.62 645.439 1106.4 646.219L1116.18 655.999L1106.4 665.779C1105.62 666.559 1105.62 667.819 1106.4 668.599C1107.18 669.379 1108.44 669.379 1109.22 668.599L1119 658.819L1128.78 668.599C1129.56 669.379 1130.82 669.379 1131.6 668.599C1132.38 667.819 1132.38 666.559 1131.6 665.779L1121.82 655.999L1131.6 646.219C1132.36 645.459 1132.36 644.179 1131.6 643.419V643.419Z" fill="#FF6D7F"/>
<path d="M1113 432.341L1106.06 425.401C1105.28 424.621 1104.02 424.621 1103.24 425.401C1102.46 426.181 1102.46 427.441 1103.24 428.221L1111.6 436.581C1112.38 437.361 1113.64 437.361 1114.42 436.581L1135.58 415.421C1136.36 414.641 1136.36 413.381 1135.58 412.601C1134.8 411.821 1133.54 411.821 1132.76 412.601L1113 432.341Z" fill="#1A73E8"/>
<rect x="1222" y="332" width="439" height="184" rx="24" fill="#F3F7FE"/>
<path d="M1282.67 375.001H1274.68L1267.38 364.067C1267.07 363.601 1266.53 363.367 1266 363.367C1265.47 363.367 1264.93 363.601 1264.62 364.084L1257.32 375.001H1249.33C1248.42 375.001 1247.67 375.751 1247.67 376.667C1247.67 376.817 1247.68 376.967 1247.73 377.117L1251.97 392.567C1252.35 393.967 1253.63 395.001 1255.17 395.001H1276.83C1278.37 395.001 1279.65 393.967 1280.05 392.567L1284.28 377.117L1284.33 376.667C1284.33 375.751 1283.58 375.001 1282.67 375.001ZM1266 368.001L1270.67 375.001H1261.33L1266 368.001ZM1276.83 391.667L1255.18 391.684L1251.52 378.334H1280.5L1276.83 391.667ZM1266 381.667C1264.17 381.667 1262.67 383.167 1262.67 385.001C1262.67 386.834 1264.17 388.334 1266 388.334C1267.83 388.334 1269.33 386.834 1269.33 385.001C1269.33 383.167 1267.83 381.667 1266 381.667Z" fill="#1A73E8"/>
<path d="M1320.31 374.276C1320.2 373.13 1319.71 372.24 1318.85 371.605C1317.98 370.971 1316.82 370.653 1315.34 370.653C1314.33 370.653 1313.49 370.795 1312.8 371.08C1312.1 371.354 1311.57 371.738 1311.2 372.23C1310.84 372.723 1310.66 373.281 1310.66 373.906C1310.65 374.427 1310.75 374.882 1310.99 375.27C1311.24 375.658 1311.57 375.994 1312 376.278C1312.43 376.553 1312.92 376.795 1313.48 377.003C1314.04 377.202 1314.63 377.372 1315.27 377.514L1317.88 378.139C1319.15 378.423 1320.31 378.802 1321.38 379.276C1322.44 379.749 1323.35 380.331 1324.13 381.023C1324.91 381.714 1325.51 382.528 1325.93 383.466C1326.37 384.403 1326.59 385.478 1326.6 386.69C1326.59 388.471 1326.14 390.014 1325.24 391.321C1324.35 392.618 1323.06 393.627 1321.38 394.347C1319.7 395.057 1317.68 395.412 1315.31 395.412C1312.96 395.412 1310.92 395.052 1309.17 394.332C1307.44 393.613 1306.09 392.547 1305.11 391.136C1304.14 389.716 1303.64 387.959 1303.59 385.866H1309.54C1309.61 386.842 1309.89 387.656 1310.38 388.31C1310.88 388.954 1311.55 389.441 1312.38 389.773C1313.23 390.095 1314.18 390.256 1315.24 390.256C1316.28 390.256 1317.18 390.104 1317.95 389.801C1318.73 389.498 1319.33 389.077 1319.76 388.537C1320.18 387.997 1320.39 387.377 1320.39 386.676C1320.39 386.023 1320.2 385.473 1319.81 385.028C1319.43 384.583 1318.88 384.205 1318.14 383.892C1317.41 383.58 1316.51 383.295 1315.45 383.04L1312.28 382.244C1309.83 381.648 1307.89 380.715 1306.47 379.446C1305.05 378.177 1304.35 376.468 1304.36 374.318C1304.35 372.557 1304.82 371.018 1305.76 369.702C1306.72 368.385 1308.03 367.358 1309.7 366.619C1311.37 365.881 1313.26 365.511 1315.38 365.511C1317.54 365.511 1319.42 365.881 1321.03 366.619C1322.65 367.358 1323.91 368.385 1324.81 369.702C1325.71 371.018 1326.18 372.543 1326.2 374.276H1320.31ZM1336.68 382.386V395H1330.63V365.909H1336.51V377.031H1336.76C1337.25 375.743 1338.05 374.735 1339.15 374.006C1340.25 373.267 1341.62 372.898 1343.28 372.898C1344.8 372.898 1346.12 373.229 1347.25 373.892C1348.38 374.545 1349.26 375.488 1349.89 376.719C1350.52 377.94 1350.83 379.403 1350.82 381.108V395H1344.77V382.188C1344.78 380.843 1344.44 379.796 1343.75 379.048C1343.07 378.3 1342.11 377.926 1340.88 377.926C1340.06 377.926 1339.33 378.101 1338.69 378.452C1338.07 378.802 1337.58 379.313 1337.22 379.986C1336.87 380.649 1336.69 381.449 1336.68 382.386ZM1365.44 395.426C1363.24 395.426 1361.33 394.957 1359.72 394.02C1358.12 393.073 1356.88 391.757 1356.01 390.071C1355.14 388.376 1354.71 386.411 1354.71 384.176C1354.71 381.922 1355.14 379.953 1356.01 378.267C1356.88 376.572 1358.12 375.256 1359.72 374.318C1361.33 373.371 1363.24 372.898 1365.44 372.898C1367.65 372.898 1369.55 373.371 1371.15 374.318C1372.76 375.256 1374.01 376.572 1374.88 378.267C1375.75 379.953 1376.18 381.922 1376.18 384.176C1376.18 386.411 1375.75 388.376 1374.88 390.071C1374.01 391.757 1372.76 393.073 1371.15 394.02C1369.55 394.957 1367.65 395.426 1365.44 395.426ZM1365.47 390.739C1366.48 390.739 1367.31 390.455 1367.99 389.886C1368.66 389.309 1369.17 388.523 1369.51 387.528C1369.86 386.534 1370.03 385.402 1370.03 384.134C1370.03 382.865 1369.86 381.733 1369.51 380.739C1369.17 379.744 1368.66 378.958 1367.99 378.381C1367.31 377.803 1366.48 377.514 1365.47 377.514C1364.46 377.514 1363.61 377.803 1362.92 378.381C1362.23 378.958 1361.72 379.744 1361.37 380.739C1361.03 381.733 1360.86 382.865 1360.86 384.134C1360.86 385.402 1361.03 386.534 1361.37 387.528C1361.72 388.523 1362.23 389.309 1362.92 389.886C1363.61 390.455 1364.46 390.739 1365.47 390.739ZM1380.12 403.182V373.182H1386.08V376.847H1386.35C1386.62 376.259 1387 375.663 1387.5 375.057C1388.02 374.441 1388.68 373.93 1389.49 373.523C1390.32 373.106 1391.34 372.898 1392.56 372.898C1394.15 372.898 1395.62 373.314 1396.96 374.148C1398.31 374.972 1399.38 376.217 1400.19 377.884C1400.99 379.541 1401.4 381.619 1401.4 384.119C1401.4 386.553 1401 388.608 1400.22 390.284C1399.44 391.951 1398.38 393.215 1397.04 394.077C1395.7 394.929 1394.2 395.355 1392.55 395.355C1391.37 395.355 1390.37 395.161 1389.55 394.773C1388.74 394.384 1388.07 393.897 1387.55 393.31C1387.03 392.713 1386.63 392.112 1386.35 391.506H1386.17V403.182H1380.12ZM1386.04 384.091C1386.04 385.388 1386.22 386.52 1386.58 387.486C1386.94 388.452 1387.46 389.205 1388.14 389.744C1388.83 390.275 1389.65 390.54 1390.63 390.54C1391.61 390.54 1392.45 390.27 1393.13 389.73C1393.81 389.181 1394.33 388.423 1394.68 387.457C1395.04 386.482 1395.22 385.36 1395.22 384.091C1395.22 382.831 1395.04 381.723 1394.69 380.767C1394.34 379.811 1393.83 379.062 1393.14 378.523C1392.46 377.983 1391.62 377.713 1390.63 377.713C1389.64 377.713 1388.81 377.973 1388.13 378.494C1387.46 379.015 1386.94 379.754 1386.58 380.71C1386.22 381.667 1386.04 382.794 1386.04 384.091ZM1405.43 403.182V373.182H1411.4V376.847H1411.67C1411.93 376.259 1412.31 375.663 1412.82 375.057C1413.33 374.441 1413.99 373.93 1414.81 373.523C1415.63 373.106 1416.65 372.898 1417.87 372.898C1419.46 372.898 1420.93 373.314 1422.28 374.148C1423.62 374.972 1424.7 376.217 1425.5 377.884C1426.31 379.541 1426.71 381.619 1426.71 384.119C1426.71 386.553 1426.32 388.608 1425.53 390.284C1424.75 391.951 1423.69 393.215 1422.35 394.077C1421.01 394.929 1419.52 395.355 1417.86 395.355C1416.69 395.355 1415.69 395.161 1414.86 394.773C1414.05 394.384 1413.38 393.897 1412.86 393.31C1412.34 392.713 1411.94 392.112 1411.67 391.506H1411.48V403.182H1405.43ZM1411.35 384.091C1411.35 385.388 1411.53 386.52 1411.89 387.486C1412.25 388.452 1412.77 389.205 1413.46 389.744C1414.14 390.275 1414.97 390.54 1415.94 390.54C1416.93 390.54 1417.76 390.27 1418.44 389.73C1419.12 389.181 1419.64 388.423 1419.99 387.457C1420.35 386.482 1420.53 385.36 1420.53 384.091C1420.53 382.831 1420.35 381.723 1420 380.767C1419.65 379.811 1419.14 379.062 1418.46 378.523C1417.77 377.983 1416.94 377.713 1415.94 377.713C1414.96 377.713 1414.12 377.973 1413.44 378.494C1412.77 379.015 1412.25 379.754 1411.89 380.71C1411.53 381.667 1411.35 382.794 1411.35 384.091ZM1430.74 395V373.182H1436.79V395H1430.74ZM1433.78 370.369C1432.88 370.369 1432.11 370.071 1431.47 369.474C1430.83 368.868 1430.52 368.144 1430.52 367.301C1430.52 366.468 1430.83 365.753 1431.47 365.156C1432.11 364.55 1432.88 364.247 1433.78 364.247C1434.68 364.247 1435.45 364.55 1436.08 365.156C1436.73 365.753 1437.05 366.468 1437.05 367.301C1437.05 368.144 1436.73 368.868 1436.08 369.474C1435.45 370.071 1434.68 370.369 1433.78 370.369ZM1447.69 382.386V395H1441.64V373.182H1447.41V377.031H1447.66C1448.15 375.762 1448.96 374.759 1450.09 374.02C1451.23 373.272 1452.61 372.898 1454.23 372.898C1455.74 372.898 1457.06 373.229 1458.19 373.892C1459.32 374.555 1460.19 375.502 1460.82 376.733C1461.44 377.955 1461.75 379.413 1461.75 381.108V395H1455.7V382.188C1455.71 380.852 1455.37 379.811 1454.68 379.062C1453.99 378.305 1453.04 377.926 1451.83 377.926C1451.01 377.926 1450.29 378.101 1449.67 378.452C1449.05 378.802 1448.57 379.313 1448.22 379.986C1447.88 380.649 1447.7 381.449 1447.69 382.386ZM1476.35 403.636C1474.39 403.636 1472.71 403.366 1471.31 402.827C1469.92 402.296 1468.81 401.572 1467.99 400.653C1467.16 399.735 1466.63 398.703 1466.38 397.557L1471.98 396.804C1472.15 397.24 1472.42 397.647 1472.79 398.026C1473.16 398.404 1473.65 398.707 1474.25 398.935C1474.87 399.171 1475.62 399.29 1476.5 399.29C1477.81 399.29 1478.9 398.968 1479.75 398.324C1480.61 397.689 1481.04 396.624 1481.04 395.128V391.136H1480.79C1480.52 391.742 1480.12 392.315 1479.59 392.855C1479.06 393.395 1478.38 393.835 1477.55 394.176C1476.71 394.517 1475.72 394.688 1474.56 394.688C1472.93 394.688 1471.43 394.309 1470.09 393.551C1468.75 392.784 1467.69 391.615 1466.89 390.043C1466.11 388.461 1465.71 386.463 1465.71 384.048C1465.71 381.577 1466.12 379.512 1466.92 377.855C1467.73 376.198 1468.8 374.957 1470.13 374.134C1471.48 373.31 1472.95 372.898 1474.55 372.898C1475.77 372.898 1476.79 373.106 1477.62 373.523C1478.44 373.93 1479.1 374.441 1479.61 375.057C1480.12 375.663 1480.51 376.259 1480.79 376.847H1481.01V373.182H1487.02V395.213C1487.02 397.069 1486.57 398.622 1485.66 399.872C1484.75 401.122 1483.49 402.06 1481.88 402.685C1480.28 403.319 1478.44 403.636 1476.35 403.636ZM1476.48 390.142C1477.46 390.142 1478.28 389.901 1478.95 389.418C1479.63 388.925 1480.16 388.224 1480.52 387.315C1480.88 386.397 1481.07 385.298 1481.07 384.02C1481.07 382.741 1480.89 381.634 1480.53 380.696C1480.17 379.749 1479.65 379.015 1478.97 378.494C1478.29 377.973 1477.46 377.713 1476.48 377.713C1475.49 377.713 1474.65 377.983 1473.97 378.523C1473.29 379.053 1472.77 379.792 1472.42 380.739C1472.07 381.686 1471.89 382.779 1471.89 384.02C1471.89 385.279 1472.07 386.368 1472.42 387.287C1472.78 388.196 1473.29 388.902 1473.97 389.403C1474.65 389.896 1475.49 390.142 1476.48 390.142ZM1501.21 395V365.909H1507.26V376.847H1507.44C1507.71 376.259 1508.09 375.663 1508.59 375.057C1509.11 374.441 1509.77 373.93 1510.58 373.523C1511.41 373.106 1512.43 372.898 1513.65 372.898C1515.24 372.898 1516.71 373.314 1518.05 374.148C1519.4 374.972 1520.47 376.217 1521.28 377.884C1522.08 379.541 1522.49 381.619 1522.49 384.119C1522.49 386.553 1522.09 388.608 1521.31 390.284C1520.53 391.951 1519.47 393.215 1518.13 394.077C1516.79 394.929 1515.29 395.355 1513.64 395.355C1512.46 395.355 1511.46 395.161 1510.64 394.773C1509.83 394.384 1509.16 393.897 1508.64 393.31C1508.12 392.713 1507.72 392.112 1507.44 391.506H1507.17V395H1501.21ZM1507.13 384.091C1507.13 385.388 1507.31 386.52 1507.67 387.486C1508.03 388.452 1508.55 389.205 1509.23 389.744C1509.92 390.275 1510.74 390.54 1511.72 390.54C1512.7 390.54 1513.54 390.27 1514.22 389.73C1514.9 389.181 1515.42 388.423 1515.77 387.457C1516.13 386.482 1516.31 385.36 1516.31 384.091C1516.31 382.831 1516.13 381.723 1515.78 380.767C1515.43 379.811 1514.92 379.062 1514.23 378.523C1513.55 377.983 1512.71 377.713 1511.72 377.713C1510.73 377.713 1509.9 377.973 1509.22 378.494C1508.55 379.015 1508.03 379.754 1507.67 380.71C1507.31 381.667 1507.13 382.794 1507.13 384.091ZM1532.75 395.412C1531.35 395.412 1530.11 395.17 1529.02 394.688C1527.94 394.195 1527.07 393.471 1526.44 392.514C1525.81 391.548 1525.5 390.346 1525.5 388.906C1525.5 387.694 1525.72 386.676 1526.17 385.852C1526.61 385.028 1527.22 384.366 1527.99 383.864C1528.75 383.362 1529.63 382.983 1530.6 382.727C1531.59 382.472 1532.62 382.292 1533.7 382.188C1534.97 382.055 1535.99 381.932 1536.77 381.818C1537.54 381.695 1538.11 381.515 1538.46 381.278C1538.81 381.042 1538.98 380.691 1538.98 380.227V380.142C1538.98 379.242 1538.7 378.546 1538.13 378.054C1537.57 377.562 1536.78 377.315 1535.74 377.315C1534.65 377.315 1533.79 377.557 1533.14 378.04C1532.5 378.513 1532.07 379.11 1531.87 379.83L1526.27 379.375C1526.55 378.049 1527.11 376.903 1527.94 375.938C1528.78 374.962 1529.85 374.214 1531.17 373.693C1532.49 373.163 1534.03 372.898 1535.77 372.898C1536.98 372.898 1538.14 373.04 1539.25 373.324C1540.37 373.608 1541.36 374.048 1542.22 374.645C1543.09 375.241 1543.78 376.009 1544.28 376.946C1544.78 377.874 1545.03 378.987 1545.03 380.284V395H1539.29V391.974H1539.12C1538.77 392.656 1538.3 393.258 1537.72 393.778C1537.13 394.29 1536.42 394.692 1535.6 394.986C1534.78 395.27 1533.83 395.412 1532.75 395.412ZM1534.48 391.236C1535.37 391.236 1536.15 391.061 1536.84 390.71C1537.52 390.35 1538.05 389.867 1538.44 389.261C1538.83 388.655 1539.02 387.969 1539.02 387.202V384.886C1538.83 385.009 1538.57 385.123 1538.24 385.227C1537.92 385.322 1537.56 385.412 1537.15 385.497C1536.74 385.573 1536.33 385.644 1535.93 385.71C1535.52 385.767 1535.15 385.819 1534.82 385.866C1534.11 385.971 1533.49 386.136 1532.96 386.364C1532.43 386.591 1532.02 386.899 1531.72 387.287C1531.43 387.666 1531.28 388.139 1531.28 388.707C1531.28 389.531 1531.58 390.161 1532.18 390.597C1532.78 391.023 1533.55 391.236 1534.48 391.236ZM1567.88 379.403L1562.34 379.744C1562.25 379.271 1562.04 378.845 1561.73 378.466C1561.42 378.078 1561.01 377.77 1560.49 377.543C1559.99 377.306 1559.39 377.188 1558.69 377.188C1557.75 377.188 1556.96 377.386 1556.32 377.784C1555.67 378.172 1555.35 378.693 1555.35 379.347C1555.35 379.867 1555.56 380.308 1555.98 380.668C1556.39 381.027 1557.11 381.316 1558.12 381.534L1562.07 382.33C1564.19 382.765 1565.77 383.466 1566.82 384.432C1567.86 385.398 1568.38 386.667 1568.38 388.239C1568.38 389.669 1567.96 390.923 1567.11 392.003C1566.28 393.082 1565.13 393.925 1563.68 394.531C1562.23 395.128 1560.56 395.426 1558.66 395.426C1555.77 395.426 1553.47 394.825 1551.76 393.622C1550.05 392.41 1549.05 390.762 1548.76 388.679L1554.71 388.366C1554.89 389.247 1555.33 389.92 1556.02 390.384C1556.71 390.838 1557.6 391.065 1558.68 391.065C1559.74 391.065 1560.59 390.862 1561.23 390.455C1561.89 390.038 1562.22 389.503 1562.23 388.849C1562.22 388.3 1561.99 387.85 1561.53 387.5C1561.08 387.14 1560.38 386.866 1559.43 386.676L1555.65 385.923C1553.52 385.497 1551.93 384.759 1550.89 383.707C1549.86 382.656 1549.34 381.316 1549.34 379.688C1549.34 378.286 1549.72 377.079 1550.48 376.065C1551.25 375.052 1552.32 374.271 1553.7 373.722C1555.1 373.172 1556.73 372.898 1558.59 372.898C1561.35 372.898 1563.52 373.48 1565.1 374.645C1566.69 375.81 1567.62 377.396 1567.88 379.403ZM1577.67 388.722L1577.69 381.463H1578.57L1585.55 373.182H1592.5L1583.11 384.148H1581.68L1577.67 388.722ZM1572.19 395V365.909H1578.24V395H1572.19ZM1585.82 395L1579.4 385.497L1583.44 381.222L1592.91 395H1585.82ZM1604.51 395.426C1602.27 395.426 1600.34 394.972 1598.72 394.062C1597.11 393.144 1595.87 391.847 1595 390.17C1594.13 388.485 1593.69 386.491 1593.69 384.19C1593.69 381.946 1594.13 379.976 1595 378.281C1595.87 376.586 1597.09 375.265 1598.68 374.318C1600.27 373.371 1602.13 372.898 1604.27 372.898C1605.71 372.898 1607.05 373.13 1608.29 373.594C1609.54 374.048 1610.63 374.735 1611.56 375.653C1612.5 376.572 1613.23 377.727 1613.75 379.119C1614.27 380.502 1614.53 382.121 1614.53 383.977V385.639H1596.11V381.889H1608.83C1608.83 381.018 1608.64 380.246 1608.26 379.574C1607.89 378.902 1607.36 378.376 1606.69 377.997C1606.02 377.609 1605.25 377.415 1604.37 377.415C1603.45 377.415 1602.64 377.628 1601.93 378.054C1601.23 378.471 1600.68 379.034 1600.28 379.744C1599.88 380.445 1599.68 381.226 1599.67 382.088V385.653C1599.67 386.733 1599.87 387.666 1600.27 388.452C1600.67 389.238 1601.25 389.844 1601.99 390.27C1602.72 390.696 1603.6 390.909 1604.61 390.909C1605.29 390.909 1605.9 390.814 1606.46 390.625C1607.02 390.436 1607.5 390.152 1607.89 389.773C1608.29 389.394 1608.6 388.93 1608.8 388.381L1614.4 388.75C1614.12 390.095 1613.53 391.269 1612.65 392.273C1611.78 393.267 1610.66 394.044 1609.27 394.602C1607.9 395.152 1606.31 395.426 1604.51 395.426ZM1630.08 373.182V377.727H1616.94V373.182H1630.08ZM1619.93 367.955H1625.98V388.295C1625.98 388.854 1626.06 389.29 1626.23 389.602C1626.4 389.905 1626.64 390.118 1626.94 390.241C1627.26 390.365 1627.62 390.426 1628.02 390.426C1628.31 390.426 1628.59 390.402 1628.88 390.355C1629.16 390.298 1629.38 390.256 1629.53 390.227L1630.48 394.73C1630.18 394.825 1629.75 394.934 1629.2 395.057C1628.65 395.189 1627.98 395.27 1627.2 395.298C1625.74 395.355 1624.46 395.161 1623.36 394.716C1622.27 394.271 1621.43 393.58 1620.82 392.642C1620.21 391.705 1619.92 390.521 1619.93 389.091V367.955Z" fill="#1A73E8"/>
<line x1="1293" y1="423.5" x2="1637" y2="423.5" stroke="#D2E3FC"/>
<path d="M1275.68 455.451C1275.55 455.451 1275.42 455.417 1275.3 455.351C1272.1 453.701 1269.33 453.001 1266.02 453.001C1262.72 453.001 1259.58 453.784 1256.73 455.351C1256.33 455.567 1255.83 455.417 1255.6 455.017C1255.38 454.617 1255.53 454.101 1255.93 453.884C1259.03 452.201 1262.43 451.334 1266.02 451.334C1269.57 451.334 1272.67 452.117 1276.07 453.867C1276.48 454.084 1276.63 454.584 1276.42 454.984C1276.27 455.284 1275.98 455.451 1275.68 455.451V455.451ZM1251.83 464.201C1251.67 464.201 1251.5 464.151 1251.35 464.051C1250.97 463.784 1250.88 463.267 1251.15 462.884C1252.8 460.551 1254.9 458.717 1257.4 457.434C1262.63 454.734 1269.33 454.717 1274.58 457.417C1277.08 458.701 1279.18 460.517 1280.83 462.834C1281.1 463.201 1281.02 463.734 1280.63 464.001C1280.25 464.267 1279.73 464.184 1279.47 463.801C1277.97 461.701 1276.07 460.051 1273.82 458.901C1269.03 456.451 1262.92 456.451 1258.15 458.917C1255.88 460.084 1253.98 461.751 1252.48 463.851C1252.35 464.084 1252.1 464.201 1251.83 464.201V464.201ZM1262.25 484.317C1262.03 484.317 1261.82 484.234 1261.67 484.067C1260.22 482.617 1259.43 481.684 1258.32 479.667C1257.17 477.617 1256.57 475.117 1256.57 472.434C1256.57 467.484 1260.8 463.451 1266 463.451C1271.2 463.451 1275.43 467.484 1275.43 472.434C1275.43 472.901 1275.07 473.267 1274.6 473.267C1274.13 473.267 1273.77 472.901 1273.77 472.434C1273.77 468.401 1270.28 465.117 1266 465.117C1261.72 465.117 1258.23 468.401 1258.23 472.434C1258.23 474.834 1258.77 477.051 1259.78 478.851C1260.85 480.767 1261.58 481.584 1262.87 482.884C1263.18 483.217 1263.18 483.734 1262.87 484.067C1262.68 484.234 1262.47 484.317 1262.25 484.317ZM1274.2 481.234C1272.22 481.234 1270.47 480.734 1269.03 479.751C1266.55 478.067 1265.07 475.334 1265.07 472.434C1265.07 471.967 1265.43 471.601 1265.9 471.601C1266.37 471.601 1266.73 471.967 1266.73 472.434C1266.73 474.784 1267.93 477.001 1269.97 478.367C1271.15 479.167 1272.53 479.551 1274.2 479.551C1274.6 479.551 1275.27 479.501 1275.93 479.384C1276.38 479.301 1276.82 479.601 1276.9 480.067C1276.98 480.517 1276.68 480.951 1276.22 481.034C1275.27 481.217 1274.43 481.234 1274.2 481.234V481.234ZM1270.85 484.667C1270.78 484.667 1270.7 484.651 1270.63 484.634C1267.98 483.901 1266.25 482.917 1264.43 481.134C1262.1 478.817 1260.82 475.734 1260.82 472.434C1260.82 469.734 1263.12 467.534 1265.95 467.534C1268.78 467.534 1271.08 469.734 1271.08 472.434C1271.08 474.217 1272.63 475.667 1274.55 475.667C1276.47 475.667 1278.02 474.217 1278.02 472.434C1278.02 466.151 1272.6 461.051 1265.93 461.051C1261.2 461.051 1256.87 463.684 1254.92 467.767C1254.27 469.117 1253.93 470.701 1253.93 472.434C1253.93 473.734 1254.05 475.784 1255.05 478.451C1255.22 478.884 1255 479.367 1254.57 479.517C1254.13 479.684 1253.65 479.451 1253.5 479.034C1252.68 476.851 1252.28 474.684 1252.28 472.434C1252.28 470.434 1252.67 468.617 1253.42 467.034C1255.63 462.384 1260.55 459.367 1265.93 459.367C1273.52 459.367 1279.68 465.217 1279.68 472.417C1279.68 475.117 1277.38 477.317 1274.55 477.317C1271.72 477.317 1269.42 475.117 1269.42 472.417C1269.42 470.634 1267.87 469.184 1265.95 469.184C1264.03 469.184 1262.48 470.634 1262.48 472.417C1262.48 475.267 1263.58 477.934 1265.6 479.934C1267.18 481.501 1268.7 482.367 1271.05 483.017C1271.5 483.134 1271.75 483.601 1271.63 484.034C1271.55 484.417 1271.2 484.667 1270.85 484.667V484.667Z" fill="#1A73E8"/>
<path d="M1320.31 462.276C1320.2 461.13 1319.71 460.24 1318.85 459.605C1317.98 458.971 1316.82 458.653 1315.34 458.653C1314.33 458.653 1313.49 458.795 1312.8 459.08C1312.1 459.354 1311.57 459.738 1311.2 460.23C1310.84 460.723 1310.66 461.281 1310.66 461.906C1310.65 462.427 1310.75 462.882 1310.99 463.27C1311.24 463.658 1311.57 463.994 1312 464.278C1312.43 464.553 1312.92 464.795 1313.48 465.003C1314.04 465.202 1314.63 465.372 1315.27 465.514L1317.88 466.139C1319.15 466.423 1320.31 466.802 1321.38 467.276C1322.44 467.749 1323.35 468.331 1324.13 469.023C1324.91 469.714 1325.51 470.528 1325.93 471.466C1326.37 472.403 1326.59 473.478 1326.6 474.69C1326.59 476.471 1326.14 478.014 1325.24 479.321C1324.35 480.618 1323.06 481.627 1321.38 482.347C1319.7 483.057 1317.68 483.412 1315.31 483.412C1312.96 483.412 1310.92 483.052 1309.17 482.332C1307.44 481.613 1306.09 480.547 1305.11 479.136C1304.14 477.716 1303.64 475.959 1303.59 473.866H1309.54C1309.61 474.842 1309.89 475.656 1310.38 476.31C1310.88 476.954 1311.55 477.441 1312.38 477.773C1313.23 478.095 1314.18 478.256 1315.24 478.256C1316.28 478.256 1317.18 478.104 1317.95 477.801C1318.73 477.498 1319.33 477.077 1319.76 476.537C1320.18 475.997 1320.39 475.377 1320.39 474.676C1320.39 474.023 1320.2 473.473 1319.81 473.028C1319.43 472.583 1318.88 472.205 1318.14 471.892C1317.41 471.58 1316.51 471.295 1315.45 471.04L1312.28 470.244C1309.83 469.648 1307.89 468.715 1306.47 467.446C1305.05 466.177 1304.35 464.468 1304.36 462.318C1304.35 460.557 1304.82 459.018 1305.76 457.702C1306.72 456.385 1308.03 455.358 1309.7 454.619C1311.37 453.881 1313.26 453.511 1315.38 453.511C1317.54 453.511 1319.42 453.881 1321.03 454.619C1322.65 455.358 1323.91 456.385 1324.81 457.702C1325.71 459.018 1326.18 460.543 1326.2 462.276H1320.31ZM1340.57 483.426C1338.32 483.426 1336.39 482.972 1334.77 482.062C1333.16 481.144 1331.92 479.847 1331.05 478.17C1330.18 476.485 1329.75 474.491 1329.75 472.19C1329.75 469.946 1330.18 467.976 1331.05 466.281C1331.92 464.586 1333.15 463.265 1334.73 462.318C1336.32 461.371 1338.19 460.898 1340.33 460.898C1341.77 460.898 1343.11 461.13 1344.35 461.594C1345.6 462.048 1346.69 462.735 1347.61 463.653C1348.55 464.572 1349.28 465.727 1349.8 467.119C1350.32 468.502 1350.58 470.121 1350.58 471.977V473.639H1332.16V469.889H1344.89C1344.89 469.018 1344.7 468.246 1344.32 467.574C1343.94 466.902 1343.41 466.376 1342.74 465.997C1342.08 465.609 1341.31 465.415 1340.43 465.415C1339.51 465.415 1338.69 465.628 1337.98 466.054C1337.28 466.471 1336.73 467.034 1336.34 467.744C1335.94 468.445 1335.73 469.226 1335.73 470.088V473.653C1335.73 474.733 1335.92 475.666 1336.32 476.452C1336.73 477.238 1337.3 477.844 1338.04 478.27C1338.78 478.696 1339.66 478.909 1340.67 478.909C1341.34 478.909 1341.96 478.814 1342.51 478.625C1343.07 478.436 1343.55 478.152 1343.95 477.773C1344.35 477.394 1344.65 476.93 1344.86 476.381L1350.46 476.75C1350.17 478.095 1349.59 479.269 1348.71 480.273C1347.84 481.267 1346.71 482.044 1345.33 482.602C1343.95 483.152 1342.37 483.426 1340.57 483.426ZM1364.39 483.426C1362.16 483.426 1360.23 482.953 1358.62 482.006C1357.02 481.049 1355.79 479.723 1354.93 478.028C1354.08 476.333 1353.65 474.383 1353.65 472.176C1353.65 469.941 1354.08 467.981 1354.94 466.295C1355.82 464.6 1357.05 463.279 1358.65 462.332C1360.25 461.376 1362.16 460.898 1364.36 460.898C1366.26 460.898 1367.93 461.243 1369.36 461.935C1370.79 462.626 1371.92 463.597 1372.76 464.847C1373.59 466.097 1374.05 467.564 1374.13 469.25H1368.42C1368.26 468.161 1367.84 467.285 1367.15 466.622C1366.46 465.95 1365.57 465.614 1364.46 465.614C1363.52 465.614 1362.7 465.869 1362 466.381C1361.31 466.883 1360.77 467.616 1360.38 468.582C1360 469.548 1359.8 470.718 1359.8 472.091C1359.8 473.483 1359.99 474.667 1360.37 475.642C1360.76 476.617 1361.3 477.361 1362 477.872C1362.7 478.384 1363.52 478.639 1364.46 478.639C1365.15 478.639 1365.77 478.497 1366.32 478.213C1366.88 477.929 1367.34 477.517 1367.7 476.977C1368.07 476.428 1368.31 475.77 1368.42 475.003H1374.13C1374.04 476.67 1373.58 478.137 1372.77 479.406C1371.97 480.666 1370.85 481.651 1369.43 482.361C1368.01 483.071 1366.33 483.426 1364.39 483.426ZM1392 473.71V461.182H1398.05V483H1392.24V479.037H1392.01C1391.52 480.315 1390.7 481.343 1389.56 482.119C1388.42 482.896 1387.03 483.284 1385.39 483.284C1383.94 483.284 1382.65 482.953 1381.55 482.29C1380.44 481.627 1379.57 480.685 1378.95 479.463C1378.33 478.241 1378.02 476.778 1378.01 475.074V461.182H1384.06V473.994C1384.07 475.282 1384.41 476.3 1385.1 477.048C1385.78 477.796 1386.69 478.17 1387.84 478.17C1388.57 478.17 1389.25 478.005 1389.88 477.673C1390.52 477.332 1391.03 476.83 1391.42 476.168C1391.82 475.505 1392.01 474.686 1392 473.71ZM1402.89 483V461.182H1408.76V464.989H1408.99C1409.38 463.634 1410.05 462.612 1410.99 461.92C1411.93 461.22 1413 460.869 1414.23 460.869C1414.53 460.869 1414.86 460.888 1415.21 460.926C1415.56 460.964 1415.86 461.016 1416.13 461.082V466.452C1415.85 466.366 1415.45 466.291 1414.95 466.224C1414.45 466.158 1413.99 466.125 1413.57 466.125C1412.68 466.125 1411.89 466.319 1411.19 466.707C1410.5 467.086 1409.95 467.616 1409.54 468.298C1409.14 468.98 1408.94 469.766 1408.94 470.656V483H1402.89ZM1419.26 483V461.182H1425.31V483H1419.26ZM1422.3 458.369C1421.4 458.369 1420.63 458.071 1419.98 457.474C1419.35 456.868 1419.03 456.144 1419.03 455.301C1419.03 454.468 1419.35 453.753 1419.98 453.156C1420.63 452.55 1421.4 452.247 1422.3 452.247C1423.2 452.247 1423.96 452.55 1424.6 453.156C1425.24 453.753 1425.57 454.468 1425.57 455.301C1425.57 456.144 1425.24 456.868 1424.6 457.474C1423.96 458.071 1423.2 458.369 1422.3 458.369ZM1441.76 461.182V465.727H1428.62V461.182H1441.76ZM1431.61 455.955H1437.66V476.295C1437.66 476.854 1437.74 477.29 1437.91 477.602C1438.08 477.905 1438.32 478.118 1438.62 478.241C1438.94 478.365 1439.3 478.426 1439.7 478.426C1439.99 478.426 1440.27 478.402 1440.55 478.355C1440.84 478.298 1441.06 478.256 1441.21 478.227L1442.16 482.73C1441.86 482.825 1441.43 482.934 1440.88 483.057C1440.33 483.189 1439.66 483.27 1438.88 483.298C1437.42 483.355 1436.14 483.161 1435.04 482.716C1433.95 482.271 1433.11 481.58 1432.5 480.642C1431.89 479.705 1431.6 478.521 1431.61 477.091V455.955ZM1449.44 491.182C1448.67 491.182 1447.95 491.12 1447.28 490.997C1446.62 490.884 1446.07 490.737 1445.63 490.557L1447 486.04C1447.71 486.258 1448.35 486.376 1448.91 486.395C1449.49 486.414 1449.99 486.281 1450.41 485.997C1450.83 485.713 1451.18 485.23 1451.44 484.548L1451.8 483.625L1443.97 461.182H1450.33L1454.85 477.205H1455.08L1459.64 461.182H1466.04L1457.56 485.358C1457.16 486.532 1456.6 487.555 1455.9 488.426C1455.21 489.307 1454.34 489.984 1453.27 490.457C1452.21 490.94 1450.94 491.182 1449.44 491.182ZM1496.55 467.403L1491.01 467.744C1490.92 467.271 1490.71 466.845 1490.4 466.466C1490.09 466.078 1489.68 465.77 1489.17 465.543C1488.66 465.306 1488.06 465.188 1487.36 465.188C1486.42 465.188 1485.63 465.386 1484.99 465.784C1484.35 466.172 1484.02 466.693 1484.02 467.347C1484.02 467.867 1484.23 468.308 1484.65 468.668C1485.07 469.027 1485.78 469.316 1486.79 469.534L1490.74 470.33C1492.86 470.765 1494.45 471.466 1495.49 472.432C1496.53 473.398 1497.05 474.667 1497.05 476.239C1497.05 477.669 1496.63 478.923 1495.79 480.003C1494.95 481.082 1493.81 481.925 1492.35 482.531C1490.9 483.128 1489.23 483.426 1487.33 483.426C1484.45 483.426 1482.14 482.825 1480.43 481.622C1478.73 480.41 1477.73 478.762 1477.43 476.679L1483.38 476.366C1483.56 477.247 1484 477.92 1484.69 478.384C1485.38 478.838 1486.27 479.065 1487.35 479.065C1488.41 479.065 1489.26 478.862 1489.9 478.455C1490.56 478.038 1490.89 477.503 1490.9 476.849C1490.89 476.3 1490.66 475.85 1490.2 475.5C1489.75 475.14 1489.05 474.866 1488.1 474.676L1484.32 473.923C1482.19 473.497 1480.61 472.759 1479.56 471.707C1478.53 470.656 1478.02 469.316 1478.02 467.688C1478.02 466.286 1478.39 465.079 1479.15 464.065C1479.92 463.052 1480.99 462.271 1482.38 461.722C1483.77 461.172 1485.4 460.898 1487.26 460.898C1490.02 460.898 1492.19 461.48 1493.77 462.645C1495.36 463.81 1496.29 465.396 1496.55 467.403ZM1510.8 483.426C1508.56 483.426 1506.63 482.972 1505.01 482.062C1503.4 481.144 1502.16 479.847 1501.29 478.17C1500.42 476.485 1499.98 474.491 1499.98 472.19C1499.98 469.946 1500.42 467.976 1501.29 466.281C1502.16 464.586 1503.38 463.265 1504.97 462.318C1506.56 461.371 1508.42 460.898 1510.56 460.898C1512 460.898 1513.34 461.13 1514.58 461.594C1515.83 462.048 1516.92 462.735 1517.85 463.653C1518.79 464.572 1519.52 465.727 1520.04 467.119C1520.56 468.502 1520.82 470.121 1520.82 471.977V473.639H1502.39V469.889H1515.12C1515.12 469.018 1514.93 468.246 1514.55 467.574C1514.17 466.902 1513.65 466.376 1512.98 465.997C1512.31 465.609 1511.54 465.415 1510.66 465.415C1509.74 465.415 1508.93 465.628 1508.22 466.054C1507.52 466.471 1506.97 467.034 1506.57 467.744C1506.17 468.445 1505.97 469.226 1505.96 470.088V473.653C1505.96 474.733 1506.16 475.666 1506.56 476.452C1506.96 477.238 1507.54 477.844 1508.27 478.27C1509.01 478.696 1509.89 478.909 1510.9 478.909C1511.58 478.909 1512.19 478.814 1512.75 478.625C1513.31 478.436 1513.79 478.152 1514.18 477.773C1514.58 477.394 1514.88 476.93 1515.09 476.381L1520.69 476.75C1520.41 478.095 1519.82 479.269 1518.94 480.273C1518.07 481.267 1516.94 482.044 1515.56 482.602C1514.19 483.152 1512.6 483.426 1510.8 483.426ZM1536.37 461.182V465.727H1523.23V461.182H1536.37ZM1526.22 455.955H1532.27V476.295C1532.27 476.854 1532.35 477.29 1532.52 477.602C1532.69 477.905 1532.93 478.118 1533.23 478.241C1533.54 478.365 1533.9 478.426 1534.31 478.426C1534.6 478.426 1534.88 478.402 1535.16 478.355C1535.45 478.298 1535.67 478.256 1535.82 478.227L1536.77 482.73C1536.47 482.825 1536.04 482.934 1535.49 483.057C1534.94 483.189 1534.27 483.27 1533.49 483.298C1532.03 483.355 1530.75 483.161 1529.65 482.716C1528.56 482.271 1527.72 481.58 1527.11 480.642C1526.5 479.705 1526.21 478.521 1526.22 477.091V455.955ZM1551.92 461.182V465.727H1538.78V461.182H1551.92ZM1541.76 455.955H1547.81V476.295C1547.81 476.854 1547.9 477.29 1548.07 477.602C1548.24 477.905 1548.48 478.118 1548.78 478.241C1549.09 478.365 1549.45 478.426 1549.86 478.426C1550.14 478.426 1550.43 478.402 1550.71 478.355C1551 478.298 1551.21 478.256 1551.36 478.227L1552.32 482.73C1552.01 482.825 1551.59 482.934 1551.04 483.057C1550.49 483.189 1549.82 483.27 1549.03 483.298C1547.58 483.355 1546.3 483.161 1545.2 482.716C1544.11 482.271 1543.26 481.58 1542.66 480.642C1542.05 479.705 1541.75 478.521 1541.76 477.091V455.955ZM1555.86 483V461.182H1561.91V483H1555.86ZM1558.9 458.369C1558 458.369 1557.23 458.071 1556.58 457.474C1555.95 456.868 1555.63 456.144 1555.63 455.301C1555.63 454.468 1555.95 453.753 1556.58 453.156C1557.23 452.55 1558 452.247 1558.9 452.247C1559.8 452.247 1560.57 452.55 1561.2 453.156C1561.84 453.753 1562.17 454.468 1562.17 455.301C1562.17 456.144 1561.84 456.868 1561.2 457.474C1560.57 458.071 1559.8 458.369 1558.9 458.369ZM1572.81 470.386V483H1566.76V461.182H1572.53V465.031H1572.78C1573.26 463.762 1574.07 462.759 1575.21 462.02C1576.35 461.272 1577.72 460.898 1579.34 460.898C1580.86 460.898 1582.18 461.229 1583.31 461.892C1584.43 462.555 1585.31 463.502 1585.93 464.733C1586.56 465.955 1586.87 467.413 1586.87 469.108V483H1580.82V470.188C1580.83 468.852 1580.49 467.811 1579.8 467.062C1579.11 466.305 1578.16 465.926 1576.94 465.926C1576.13 465.926 1575.41 466.101 1574.78 466.452C1574.17 466.802 1573.69 467.313 1573.34 467.986C1572.99 468.649 1572.82 469.449 1572.81 470.386ZM1601.47 491.636C1599.51 491.636 1597.83 491.366 1596.43 490.827C1595.04 490.296 1593.93 489.572 1593.1 488.653C1592.28 487.735 1591.75 486.703 1591.5 485.557L1597.1 484.804C1597.27 485.24 1597.54 485.647 1597.91 486.026C1598.27 486.404 1598.76 486.707 1599.37 486.935C1599.98 487.171 1600.73 487.29 1601.61 487.29C1602.93 487.29 1604.01 486.968 1604.87 486.324C1605.73 485.689 1606.16 484.624 1606.16 483.128V479.136H1605.9C1605.64 479.742 1605.24 480.315 1604.71 480.855C1604.18 481.395 1603.5 481.835 1602.66 482.176C1601.83 482.517 1600.84 482.688 1599.68 482.688C1598.04 482.688 1596.55 482.309 1595.21 481.551C1593.87 480.784 1592.81 479.615 1592.01 478.043C1591.22 476.461 1590.83 474.463 1590.83 472.048C1590.83 469.577 1591.23 467.512 1592.04 465.855C1592.84 464.198 1593.91 462.957 1595.25 462.134C1596.59 461.31 1598.07 460.898 1599.67 460.898C1600.89 460.898 1601.91 461.106 1602.74 461.523C1603.56 461.93 1604.22 462.441 1604.72 463.057C1605.24 463.663 1605.63 464.259 1605.9 464.847H1606.13V461.182H1612.14V483.213C1612.14 485.069 1611.68 486.622 1610.77 487.872C1609.87 489.122 1608.61 490.06 1607 490.685C1605.4 491.319 1603.55 491.636 1601.47 491.636ZM1601.6 478.142C1602.57 478.142 1603.4 477.901 1604.07 477.418C1604.75 476.925 1605.27 476.224 1605.63 475.315C1606 474.397 1606.19 473.298 1606.19 472.02C1606.19 470.741 1606.01 469.634 1605.65 468.696C1605.29 467.749 1604.77 467.015 1604.08 466.494C1603.4 465.973 1602.57 465.713 1601.6 465.713C1600.6 465.713 1599.77 465.983 1599.08 466.523C1598.4 467.053 1597.89 467.792 1597.54 468.739C1597.19 469.686 1597.01 470.779 1597.01 472.02C1597.01 473.279 1597.19 474.368 1597.54 475.287C1597.9 476.196 1598.41 476.902 1599.08 477.403C1599.77 477.896 1600.6 478.142 1601.6 478.142ZM1635.11 467.403L1629.57 467.744C1629.47 467.271 1629.27 466.845 1628.96 466.466C1628.64 466.078 1628.23 465.77 1627.72 465.543C1627.22 465.306 1626.62 465.188 1625.92 465.188C1624.98 465.188 1624.19 465.386 1623.54 465.784C1622.9 466.172 1622.58 466.693 1622.58 467.347C1622.58 467.867 1622.79 468.308 1623.2 468.668C1623.62 469.027 1624.34 469.316 1625.35 469.534L1629.3 470.33C1631.42 470.765 1633 471.466 1634.04 472.432C1635.08 473.398 1635.6 474.667 1635.6 476.239C1635.6 477.669 1635.18 478.923 1634.34 480.003C1633.51 481.082 1632.36 481.925 1630.9 482.531C1629.45 483.128 1627.78 483.426 1625.89 483.426C1623 483.426 1620.7 482.825 1618.99 481.622C1617.28 480.41 1616.28 478.762 1615.99 476.679L1621.94 476.366C1622.12 477.247 1622.56 477.92 1623.25 478.384C1623.94 478.838 1624.82 479.065 1625.9 479.065C1626.96 479.065 1627.82 478.862 1628.46 478.455C1629.11 478.038 1629.44 477.503 1629.45 476.849C1629.44 476.3 1629.21 475.85 1628.76 475.5C1628.3 475.14 1627.6 474.866 1626.66 474.676L1622.88 473.923C1620.75 473.497 1619.16 472.759 1618.12 471.707C1617.09 470.656 1616.57 469.316 1616.57 467.688C1616.57 466.286 1616.95 465.079 1617.71 464.065C1618.47 463.052 1619.55 462.271 1620.93 461.722C1622.32 461.172 1623.95 460.898 1625.82 460.898C1628.57 460.898 1630.74 461.48 1632.32 462.645C1633.91 463.81 1634.84 465.396 1635.11 467.403Z" fill="#1A73E8"/>
<rect x="1222" y="564" width="454" height="184" rx="24" fill="#F3F7FE"/>
<path d="M1282.67 607.001H1274.68L1267.38 596.067C1267.07 595.601 1266.53 595.367 1266 595.367C1265.47 595.367 1264.93 595.601 1264.62 596.084L1257.32 607.001H1249.33C1248.42 607.001 1247.67 607.751 1247.67 608.667C1247.67 608.817 1247.68 608.967 1247.73 609.117L1251.97 624.567C1252.35 625.967 1253.63 627.001 1255.17 627.001H1276.83C1278.37 627.001 1279.65 625.967 1280.05 624.567L1284.28 609.117L1284.33 608.667C1284.33 607.751 1283.58 607.001 1282.67 607.001ZM1266 600.001L1270.67 607.001H1261.33L1266 600.001ZM1276.83 623.667L1255.18 623.684L1251.52 610.334H1280.5L1276.83 623.667ZM1266 613.667C1264.17 613.667 1262.67 615.167 1262.67 617.001C1262.67 618.834 1264.17 620.334 1266 620.334C1267.83 620.334 1269.33 618.834 1269.33 617.001C1269.33 615.167 1267.83 613.667 1266 613.667Z" fill="#1A73E8"/>
<path d="M1316.96 592.008V589.566H1321.96V598.473H1316.96C1316.75 597.04 1316.28 595.966 1315.55 595.25C1314.84 594.521 1313.91 594.156 1312.76 594.156C1311.95 594.156 1311.26 594.384 1310.69 594.84C1310.12 595.296 1309.83 595.868 1309.83 596.559C1309.83 597.171 1310.01 597.698 1310.38 598.141C1310.74 598.583 1311.21 598.961 1311.79 599.273C1312.36 599.573 1313.22 599.977 1314.36 600.484L1315.55 600.992C1318.15 602.112 1320.1 603.427 1321.41 604.938C1322.74 606.448 1323.41 608.336 1323.41 610.602C1323.41 613.297 1322.63 615.432 1321.08 617.008C1319.53 618.57 1317.45 619.352 1314.83 619.352C1312.28 619.352 1310.29 618.395 1308.88 616.48V619H1303.88V609H1308.88C1308.98 610.732 1309.42 612.053 1310.2 612.965C1311 613.863 1312.07 614.312 1313.41 614.312C1314.3 614.312 1315.06 614.007 1315.67 613.395C1316.3 612.783 1316.61 612.04 1316.61 611.168C1316.61 610.283 1316.25 609.475 1315.54 608.746C1314.83 608.004 1313.63 607.262 1311.92 606.52C1309.02 605.243 1306.91 603.87 1305.59 602.398C1304.29 600.927 1303.64 599.234 1303.64 597.32C1303.64 595.823 1303.99 594.456 1304.68 593.219C1305.37 591.982 1306.32 591.012 1307.53 590.309C1308.75 589.592 1310.08 589.234 1311.51 589.234C1312.66 589.234 1313.7 589.469 1314.64 589.938C1315.57 590.406 1316.35 591.096 1316.96 592.008ZM1341.57 598.004C1343.65 598.004 1345.22 598.635 1346.26 599.898C1347.31 601.161 1347.84 602.997 1347.84 605.406V614.273H1350.89V619H1341.28V605.719C1341.28 604.872 1341.11 604.267 1340.79 603.902C1340.48 603.538 1339.95 603.355 1339.21 603.355C1338.19 603.355 1337.05 603.772 1335.77 604.605V614.273H1338.64V619H1325.93V614.273H1329.25V594.273H1325.93V589.566H1335.77V600.152C1337.88 598.72 1339.81 598.004 1341.57 598.004ZM1374.23 608.727C1374.23 610.771 1373.74 612.613 1372.78 614.254C1371.82 615.895 1370.52 617.177 1368.88 618.102C1367.23 619.026 1365.43 619.488 1363.46 619.488C1361.38 619.488 1359.52 619.026 1357.88 618.102C1356.24 617.177 1354.96 615.895 1354.03 614.254C1353.12 612.613 1352.66 610.771 1352.66 608.727C1352.66 606.695 1353.13 604.866 1354.07 603.238C1355.02 601.611 1356.32 600.335 1357.98 599.41C1359.63 598.473 1361.46 598.004 1363.46 598.004C1365.51 598.004 1367.35 598.473 1368.99 599.41C1370.63 600.335 1371.92 601.611 1372.84 603.238C1373.76 604.866 1374.23 606.695 1374.23 608.727ZM1363.43 614.391C1364.7 614.391 1365.7 613.896 1366.41 612.906C1367.14 611.904 1367.51 610.471 1367.51 608.609C1367.51 606.865 1367.14 605.504 1366.41 604.527C1365.7 603.538 1364.69 603.043 1363.39 603.043C1362.07 603.043 1361.08 603.531 1360.4 604.508C1359.72 605.471 1359.38 606.93 1359.38 608.883C1359.38 610.536 1359.75 611.871 1360.48 612.887C1361.22 613.889 1362.2 614.391 1363.43 614.391ZM1400.4 608.961C1400.4 610.966 1400.04 612.77 1399.32 614.371C1398.61 615.96 1397.57 617.21 1396.22 618.121C1394.88 619.033 1393.33 619.488 1391.57 619.488C1389.41 619.488 1387.41 618.635 1385.57 616.93V623.512H1389.64V628.238H1375.57V623.512H1379.05V603.277H1376.12V598.473H1385.57V601.031C1387.38 599.143 1389.41 598.199 1391.65 598.199C1393.46 598.199 1395.02 598.674 1396.34 599.625C1397.66 600.562 1398.67 601.845 1399.36 603.473C1400.05 605.1 1400.4 606.93 1400.4 608.961ZM1389.68 614.312C1390.96 614.312 1391.95 613.837 1392.64 612.887C1393.33 611.923 1393.68 610.562 1393.68 608.805C1393.68 607.125 1393.33 605.816 1392.62 604.879C1391.92 603.941 1390.91 603.473 1389.6 603.473C1388.35 603.473 1387.35 603.961 1386.59 604.938C1385.85 605.914 1385.48 607.229 1385.48 608.883C1385.48 610.432 1385.86 611.728 1386.63 612.77C1387.41 613.798 1388.43 614.312 1389.68 614.312ZM1426.57 608.961C1426.57 610.966 1426.21 612.77 1425.5 614.371C1424.78 615.96 1423.74 617.21 1422.39 618.121C1421.05 619.033 1419.5 619.488 1417.74 619.488C1415.58 619.488 1413.58 618.635 1411.75 616.93V623.512H1415.81V628.238H1401.75V623.512H1405.22V603.277H1402.29V598.473H1411.75V601.031C1413.56 599.143 1415.58 598.199 1417.82 598.199C1419.63 598.199 1421.19 598.674 1422.51 599.625C1423.84 600.562 1424.85 601.845 1425.54 603.473C1426.23 605.1 1426.57 606.93 1426.57 608.961ZM1415.85 614.312C1417.14 614.312 1418.13 613.837 1418.82 612.887C1419.51 611.923 1419.85 610.562 1419.85 608.805C1419.85 607.125 1419.5 605.816 1418.8 604.879C1418.09 603.941 1417.08 603.473 1415.77 603.473C1414.52 603.473 1413.52 603.961 1412.76 604.938C1412.02 605.914 1411.65 607.229 1411.65 608.883C1411.65 610.432 1412.03 611.728 1412.8 612.77C1413.58 613.798 1414.6 614.312 1415.85 614.312ZM1438.72 592.633C1438.72 593.674 1438.36 594.54 1437.64 595.23C1436.94 595.908 1436.1 596.246 1435.12 596.246C1434.14 596.246 1433.28 595.895 1432.57 595.191C1431.86 594.475 1431.51 593.622 1431.51 592.633C1431.51 591.656 1431.86 590.816 1432.57 590.113C1433.28 589.397 1434.14 589.039 1435.12 589.039C1436.1 589.039 1436.94 589.397 1437.64 590.113C1438.36 590.816 1438.72 591.656 1438.72 592.633ZM1441.36 614.273V619H1428.68V614.273H1431.8V603.277H1428.68V598.473H1438.31V614.273H1441.36ZM1465.67 605.914V614.273H1468.76V619H1459.11V606.441C1459.11 605.478 1458.96 604.781 1458.66 604.352C1458.37 603.909 1457.89 603.688 1457.2 603.688C1455.95 603.688 1454.69 604.137 1453.43 605.035V614.273H1456.63V619H1443.8V614.273H1446.92V603.277H1443.8V598.473H1453.43V600.406C1455.38 598.935 1457.38 598.199 1459.44 598.199C1461.49 598.199 1463.04 598.85 1464.09 600.152C1465.14 601.441 1465.67 603.362 1465.67 605.914ZM1485.4 600.992V598.473H1495.3V603.277H1491.9V618.609C1491.9 621.826 1491.02 624.28 1489.27 625.973C1487.51 627.665 1484.8 628.512 1481.14 628.512C1477.09 628.512 1474.07 627.77 1472.08 626.285L1475.26 621.969C1476.94 622.997 1478.6 623.512 1480.22 623.512C1481.59 623.512 1482.64 623.303 1483.39 622.887C1484.14 622.483 1484.66 621.852 1484.95 620.992C1485.25 620.146 1485.4 619 1485.4 617.555V616.441C1483.24 618.355 1481.14 619.312 1479.11 619.312C1477.43 619.312 1475.94 618.87 1474.64 617.984C1473.35 617.086 1472.35 615.836 1471.65 614.234C1470.95 612.633 1470.59 610.797 1470.59 608.727C1470.59 606.695 1470.96 604.879 1471.71 603.277C1472.46 601.676 1473.52 600.432 1474.89 599.547C1476.26 598.648 1477.78 598.199 1479.46 598.199C1481.9 598.199 1483.88 599.13 1485.4 600.992ZM1481.32 614C1482.51 614 1483.5 613.544 1484.27 612.633C1485.05 611.708 1485.44 610.432 1485.44 608.805C1485.44 607.151 1485.07 605.849 1484.32 604.898C1483.6 603.948 1482.59 603.473 1481.32 603.473C1480.08 603.473 1479.1 603.961 1478.39 604.938C1477.67 605.914 1477.31 607.19 1477.31 608.766C1477.31 610.276 1477.67 611.526 1478.39 612.516C1479.1 613.505 1480.08 614 1481.32 614ZM1523.41 598.004C1525.16 598.004 1526.72 598.492 1528.07 599.469C1529.44 600.432 1530.49 601.728 1531.22 603.355C1531.96 604.983 1532.33 606.747 1532.33 608.648C1532.33 610.562 1531.97 612.34 1531.24 613.98C1530.52 615.621 1529.5 616.923 1528.17 617.887C1526.86 618.837 1525.33 619.312 1523.6 619.312C1521.44 619.312 1519.44 618.421 1517.61 616.637V619H1507.53V614.273H1511.08V594.273H1507.53V589.566H1517.61V600.836C1519.26 598.948 1521.19 598.004 1523.41 598.004ZM1521.61 614.234C1522.86 614.234 1523.84 613.72 1524.54 612.691C1525.26 611.65 1525.61 610.27 1525.61 608.551C1525.61 606.845 1525.26 605.549 1524.54 604.664C1523.84 603.766 1522.87 603.316 1521.65 603.316C1520.37 603.316 1519.37 603.824 1518.64 604.84C1517.92 605.855 1517.57 607.203 1517.57 608.883C1517.57 610.458 1517.93 611.747 1518.66 612.75C1519.4 613.74 1520.39 614.234 1521.61 614.234ZM1554.75 606.676V614.273H1558.07V619H1548.23V617.398C1546.37 618.674 1544.51 619.312 1542.64 619.312C1540.39 619.312 1538.59 618.733 1537.23 617.574C1535.88 616.415 1535.2 614.853 1535.2 612.887C1535.2 610.803 1535.96 609.137 1537.47 607.887C1538.99 606.624 1541.01 605.992 1543.52 605.992C1544.4 605.992 1545.17 606.09 1545.85 606.285C1546.54 606.467 1547.33 606.786 1548.23 607.242V605.602C1548.23 604.56 1547.9 603.727 1547.25 603.102C1546.6 602.477 1545.63 602.164 1544.32 602.164C1542.9 602.164 1541.65 602.711 1540.55 603.805L1535.28 602.848C1536.88 599.618 1540.19 598.004 1545.2 598.004C1548.64 598.004 1551.09 598.714 1552.55 600.133C1554.02 601.539 1554.75 603.72 1554.75 606.676ZM1544.11 615.23C1545.28 615.23 1546.65 614.527 1548.23 613.121V611.285C1546.82 610.374 1545.54 609.918 1544.36 609.918C1543.43 609.918 1542.71 610.139 1542.21 610.582C1541.72 611.025 1541.47 611.656 1541.47 612.477C1541.47 614.312 1542.35 615.23 1544.11 615.23ZM1572.76 599.195V598.473H1577.43V604.488H1572.76C1572.36 603.043 1570.86 602.32 1568.27 602.32C1566.41 602.32 1565.48 602.841 1565.48 603.883C1565.48 604.339 1565.72 604.677 1566.22 604.898C1566.71 605.12 1567.44 605.302 1568.39 605.445C1571.06 605.784 1573.16 606.272 1574.7 606.91C1576.23 607.535 1577.31 608.316 1577.92 609.254C1578.53 610.178 1578.84 611.305 1578.84 612.633C1578.84 614.794 1578.09 616.48 1576.61 617.691C1575.14 618.889 1573.13 619.488 1570.59 619.488C1568.12 619.488 1566.44 618.993 1565.55 618.004V619H1560.79V611.93H1565.55C1565.68 612.906 1566.15 613.674 1566.96 614.234C1567.78 614.794 1568.79 615.074 1569.99 615.074C1571.16 615.074 1572.03 614.944 1572.59 614.684C1573.15 614.41 1573.43 613.941 1573.43 613.277C1573.43 612.822 1573.31 612.47 1573.07 612.223C1572.84 611.962 1572.38 611.734 1571.71 611.539C1571.04 611.344 1570.02 611.122 1568.64 610.875C1565.57 610.393 1563.35 609.618 1562 608.551C1560.66 607.47 1559.99 606.018 1559.99 604.195C1559.99 602.333 1560.68 600.868 1562.08 599.801C1563.48 598.733 1565.33 598.199 1567.62 598.199C1569.47 598.199 1571.19 598.531 1572.76 599.195ZM1593.02 614.488V619H1580.69V614.273H1583.97V594.273H1580.69V589.566H1590.54V614.488H1593.02ZM1593.21 598.473H1605.61V602.633H1603.58L1597.53 607.77L1603.02 614.273H1605.85V619H1599.32L1590.57 608.16L1597.53 602.438H1593.21V598.473ZM1628.48 610.113H1613.17C1613.33 611.689 1613.87 612.939 1614.79 613.863C1615.73 614.775 1616.93 615.23 1618.41 615.23C1620.03 615.23 1621.62 614.423 1623.17 612.809L1628.25 614.449C1627.13 616.129 1625.74 617.392 1624.09 618.238C1622.44 619.072 1620.48 619.488 1618.21 619.488C1615.95 619.488 1613.94 619.065 1612.2 618.219C1610.46 617.359 1609.12 616.148 1608.15 614.586C1607.2 613.023 1606.73 611.188 1606.73 609.078C1606.73 606.995 1607.22 605.107 1608.21 603.414C1609.21 601.721 1610.56 600.4 1612.25 599.449C1613.96 598.486 1615.81 598.004 1617.8 598.004C1619.96 598.004 1621.84 598.505 1623.45 599.508C1625.05 600.497 1626.28 601.91 1627.14 603.746C1628.01 605.569 1628.46 607.691 1628.48 610.113ZM1617.49 602.359C1616.32 602.359 1615.37 602.698 1614.66 603.375C1613.95 604.052 1613.51 605.087 1613.33 606.48H1621.88C1621.7 605.257 1621.2 604.267 1620.38 603.512C1619.57 602.743 1618.61 602.359 1617.49 602.359ZM1643.82 598.473V603.277H1640.03V612.242C1640.03 612.88 1640.15 613.362 1640.4 613.688C1640.65 614 1641.11 614.156 1641.79 614.156C1642.35 614.156 1643.02 614.013 1643.82 613.727V618.277C1642.06 618.967 1640.4 619.312 1638.86 619.312C1637.07 619.312 1635.73 618.863 1634.83 617.965C1633.95 617.053 1633.5 615.771 1633.5 614.117V603.277H1630.91V598.473H1633.5V595.289L1640.03 590.602V598.473H1643.82Z" fill="#1A73E8"/>
<line x1="1308" y1="655.5" x2="1652" y2="655.5" stroke="#D2E3FC"/>
<path d="M1275.68 687.451C1275.55 687.451 1275.42 687.417 1275.3 687.351C1272.1 685.701 1269.33 685.001 1266.02 685.001C1262.72 685.001 1259.58 685.784 1256.73 687.351C1256.33 687.567 1255.83 687.417 1255.6 687.017C1255.38 686.617 1255.53 686.101 1255.93 685.884C1259.03 684.201 1262.43 683.334 1266.02 683.334C1269.57 683.334 1272.67 684.117 1276.07 685.867C1276.48 686.084 1276.63 686.584 1276.42 686.984C1276.27 687.284 1275.98 687.451 1275.68 687.451V687.451ZM1251.83 696.201C1251.67 696.201 1251.5 696.151 1251.35 696.051C1250.97 695.784 1250.88 695.267 1251.15 694.884C1252.8 692.551 1254.9 690.717 1257.4 689.434C1262.63 686.734 1269.33 686.717 1274.58 689.417C1277.08 690.701 1279.18 692.517 1280.83 694.834C1281.1 695.201 1281.02 695.734 1280.63 696.001C1280.25 696.267 1279.73 696.184 1279.47 695.801C1277.97 693.701 1276.07 692.051 1273.82 690.901C1269.03 688.451 1262.92 688.451 1258.15 690.917C1255.88 692.084 1253.98 693.751 1252.48 695.851C1252.35 696.084 1252.1 696.201 1251.83 696.201V696.201ZM1262.25 716.317C1262.03 716.317 1261.82 716.234 1261.67 716.067C1260.22 714.617 1259.43 713.684 1258.32 711.667C1257.17 709.617 1256.57 707.117 1256.57 704.434C1256.57 699.484 1260.8 695.451 1266 695.451C1271.2 695.451 1275.43 699.484 1275.43 704.434C1275.43 704.901 1275.07 705.267 1274.6 705.267C1274.13 705.267 1273.77 704.901 1273.77 704.434C1273.77 700.401 1270.28 697.117 1266 697.117C1261.72 697.117 1258.23 700.401 1258.23 704.434C1258.23 706.834 1258.77 709.051 1259.78 710.851C1260.85 712.767 1261.58 713.584 1262.87 714.884C1263.18 715.217 1263.18 715.734 1262.87 716.067C1262.68 716.234 1262.47 716.317 1262.25 716.317ZM1274.2 713.234C1272.22 713.234 1270.47 712.734 1269.03 711.751C1266.55 710.067 1265.07 707.334 1265.07 704.434C1265.07 703.967 1265.43 703.601 1265.9 703.601C1266.37 703.601 1266.73 703.967 1266.73 704.434C1266.73 706.784 1267.93 709.001 1269.97 710.367C1271.15 711.167 1272.53 711.551 1274.2 711.551C1274.6 711.551 1275.27 711.501 1275.93 711.384C1276.38 711.301 1276.82 711.601 1276.9 712.067C1276.98 712.517 1276.68 712.951 1276.22 713.034C1275.27 713.217 1274.43 713.234 1274.2 713.234V713.234ZM1270.85 716.667C1270.78 716.667 1270.7 716.651 1270.63 716.634C1267.98 715.901 1266.25 714.917 1264.43 713.134C1262.1 710.817 1260.82 707.734 1260.82 704.434C1260.82 701.734 1263.12 699.534 1265.95 699.534C1268.78 699.534 1271.08 701.734 1271.08 704.434C1271.08 706.217 1272.63 707.667 1274.55 707.667C1276.47 707.667 1278.02 706.217 1278.02 704.434C1278.02 698.151 1272.6 693.051 1265.93 693.051C1261.2 693.051 1256.87 695.684 1254.92 699.767C1254.27 701.117 1253.93 702.701 1253.93 704.434C1253.93 705.734 1254.05 707.784 1255.05 710.451C1255.22 710.884 1255 711.367 1254.57 711.517C1254.13 711.684 1253.65 711.451 1253.5 711.034C1252.68 708.851 1252.28 706.684 1252.28 704.434C1252.28 702.434 1252.67 700.617 1253.42 699.034C1255.63 694.384 1260.55 691.367 1265.93 691.367C1273.52 691.367 1279.68 697.217 1279.68 704.417C1279.68 707.117 1277.38 709.317 1274.55 709.317C1271.72 709.317 1269.42 707.117 1269.42 704.417C1269.42 702.634 1267.87 701.184 1265.95 701.184C1264.03 701.184 1262.48 702.634 1262.48 704.417C1262.48 707.267 1263.58 709.934 1265.6 711.934C1267.18 713.501 1268.7 714.367 1271.05 715.017C1271.5 715.134 1271.75 715.601 1271.63 716.034C1271.55 716.417 1271.2 716.667 1270.85 716.667V716.667Z" fill="#1A73E8"/>
<path d="M1316.96 680.008V677.566H1321.96V686.473H1316.96C1316.75 685.04 1316.28 683.966 1315.55 683.25C1314.84 682.521 1313.91 682.156 1312.76 682.156C1311.95 682.156 1311.26 682.384 1310.69 682.84C1310.12 683.296 1309.83 683.868 1309.83 684.559C1309.83 685.171 1310.01 685.698 1310.38 686.141C1310.74 686.583 1311.21 686.961 1311.79 687.273C1312.36 687.573 1313.22 687.977 1314.36 688.484L1315.55 688.992C1318.15 690.112 1320.1 691.427 1321.41 692.938C1322.74 694.448 1323.41 696.336 1323.41 698.602C1323.41 701.297 1322.63 703.432 1321.08 705.008C1319.53 706.57 1317.45 707.352 1314.83 707.352C1312.28 707.352 1310.29 706.395 1308.88 704.48V707H1303.88V697H1308.88C1308.98 698.732 1309.42 700.053 1310.2 700.965C1311 701.863 1312.07 702.312 1313.41 702.312C1314.3 702.312 1315.06 702.007 1315.67 701.395C1316.3 700.783 1316.61 700.04 1316.61 699.168C1316.61 698.283 1316.25 697.475 1315.54 696.746C1314.83 696.004 1313.63 695.262 1311.92 694.52C1309.02 693.243 1306.91 691.87 1305.59 690.398C1304.29 688.927 1303.64 687.234 1303.64 685.32C1303.64 683.823 1303.99 682.456 1304.68 681.219C1305.37 679.982 1306.32 679.012 1307.53 678.309C1308.75 677.592 1310.08 677.234 1311.51 677.234C1312.66 677.234 1313.7 677.469 1314.64 677.938C1315.57 678.406 1316.35 679.096 1316.96 680.008ZM1348.33 698.113H1333.02C1333.17 699.689 1333.71 700.939 1334.64 701.863C1335.57 702.775 1336.78 703.23 1338.25 703.23C1339.88 703.23 1341.47 702.423 1343.02 700.809L1348.09 702.449C1346.97 704.129 1345.59 705.392 1343.93 706.238C1342.28 707.072 1340.32 707.488 1338.05 707.488C1335.79 707.488 1333.78 707.065 1332.04 706.219C1330.31 705.359 1328.96 704.148 1328 702.586C1327.05 701.023 1326.57 699.188 1326.57 697.078C1326.57 694.995 1327.07 693.107 1328.05 691.414C1329.06 689.721 1330.4 688.4 1332.1 687.449C1333.8 686.486 1335.65 686.004 1337.64 686.004C1339.81 686.004 1341.69 686.505 1343.29 687.508C1344.89 688.497 1346.12 689.91 1346.98 691.746C1347.85 693.569 1348.3 695.691 1348.33 698.113ZM1337.33 690.359C1336.16 690.359 1335.22 690.698 1334.5 691.375C1333.8 692.052 1333.35 693.087 1333.17 694.48H1341.73C1341.54 693.257 1341.04 692.267 1340.22 691.512C1339.42 690.743 1338.45 690.359 1337.33 690.359ZM1367.55 688.191V686.473H1372.02V694.793H1367.39C1366.3 692.527 1364.63 691.395 1362.39 691.395C1361.02 691.395 1359.89 691.896 1358.99 692.898C1358.11 693.901 1357.66 695.151 1357.66 696.648C1357.66 698.302 1358.09 699.663 1358.93 700.73C1359.79 701.785 1360.93 702.312 1362.35 702.312C1363.38 702.312 1364.36 702.026 1365.28 701.453C1366.21 700.88 1366.96 700.073 1367.55 699.031L1372.62 701.277C1371.51 703.387 1370.16 704.949 1368.58 705.965C1367.01 706.98 1364.88 707.488 1362.21 707.488C1358.75 707.488 1356 706.544 1353.97 704.656C1351.95 702.755 1350.95 700.125 1350.95 696.766C1350.95 694.76 1351.41 692.957 1352.33 691.355C1353.27 689.754 1354.53 688.497 1356.12 687.586C1357.71 686.661 1359.45 686.199 1361.34 686.199C1363.5 686.199 1365.57 686.863 1367.55 688.191ZM1386.2 701.922C1387.32 701.922 1388.53 701.427 1389.83 700.438V691.277H1386.69V686.473H1396.36V702.273H1399.71V707H1389.83V705.281C1387.79 706.635 1385.8 707.312 1383.88 707.312C1381.88 707.312 1380.33 706.759 1379.23 705.652C1378.12 704.546 1377.57 703.022 1377.57 701.082V691.277H1374.48V686.473H1384.05V699.402C1384.05 700.366 1384.2 701.03 1384.5 701.395C1384.81 701.746 1385.38 701.922 1386.2 701.922ZM1419.36 686.238V692.391C1417.57 692.508 1416.13 692.794 1415.07 693.25C1414.01 693.693 1413.19 694.461 1412.61 695.555C1412.03 696.648 1411.75 698.211 1411.75 700.242V702.273H1415.83V707H1401.43V702.273H1405.2V691.277H1401.63V686.473H1411.2V691.688C1411.68 690.112 1412.57 688.803 1413.88 687.762C1415.18 686.72 1416.79 686.199 1418.72 686.199C1419.01 686.199 1419.22 686.212 1419.36 686.238ZM1431.77 680.633C1431.77 681.674 1431.41 682.54 1430.69 683.23C1429.99 683.908 1429.15 684.246 1428.17 684.246C1427.18 684.246 1426.33 683.895 1425.61 683.191C1424.91 682.475 1424.56 681.622 1424.56 680.633C1424.56 679.656 1424.91 678.816 1425.61 678.113C1426.33 677.397 1427.18 677.039 1428.17 677.039C1429.15 677.039 1429.99 677.397 1430.69 678.113C1431.41 678.816 1431.77 679.656 1431.77 680.633ZM1434.4 702.273V707H1421.73V702.273H1424.85V691.277H1421.73V686.473H1431.36V702.273H1434.4ZM1447.61 686.473V691.277H1443.82V700.242C1443.82 700.88 1443.94 701.362 1444.19 701.688C1444.43 702 1444.9 702.156 1445.57 702.156C1446.13 702.156 1446.81 702.013 1447.61 701.727V706.277C1445.85 706.967 1444.19 707.312 1442.64 707.312C1440.86 707.312 1439.52 706.863 1438.62 705.965C1437.74 705.053 1437.29 703.771 1437.29 702.117V691.277H1434.7V686.473H1437.29V683.289L1443.82 678.602V686.473H1447.61ZM1459.44 691.277L1462.88 700.438L1466.51 691.277H1463.84V686.473H1474.64V691.277H1471.67L1461.88 716.238H1454.71V711.512H1458.64L1459.99 707.879L1452.55 691.277H1449.56V686.473H1461.88V691.277H1459.44ZM1499.99 687.195V686.473H1504.66V692.488H1499.99C1499.58 691.043 1498.09 690.32 1495.5 690.32C1493.63 690.32 1492.7 690.841 1492.7 691.883C1492.7 692.339 1492.95 692.677 1493.45 692.898C1493.94 693.12 1494.66 693.302 1495.61 693.445C1498.28 693.784 1500.39 694.272 1501.92 694.91C1503.46 695.535 1504.53 696.316 1505.14 697.254C1505.76 698.178 1506.06 699.305 1506.06 700.633C1506.06 702.794 1505.32 704.48 1503.84 705.691C1502.36 706.889 1500.36 707.488 1497.82 707.488C1495.35 707.488 1493.67 706.993 1492.78 706.004V707H1488.02V699.93H1492.78C1492.91 700.906 1493.38 701.674 1494.19 702.234C1495.01 702.794 1496.02 703.074 1497.21 703.074C1498.39 703.074 1499.25 702.944 1499.81 702.684C1500.37 702.41 1500.65 701.941 1500.65 701.277C1500.65 700.822 1500.54 700.47 1500.3 700.223C1500.07 699.962 1499.61 699.734 1498.93 699.539C1498.27 699.344 1497.25 699.122 1495.87 698.875C1492.79 698.393 1490.58 697.618 1489.23 696.551C1487.89 695.47 1487.21 694.018 1487.21 692.195C1487.21 690.333 1487.91 688.868 1489.3 687.801C1490.71 686.733 1492.56 686.199 1494.85 686.199C1496.7 686.199 1498.41 686.531 1499.99 687.195ZM1530.32 698.113H1515.01C1515.16 699.689 1515.7 700.939 1516.63 701.863C1517.57 702.775 1518.77 703.23 1520.24 703.23C1521.87 703.23 1523.46 702.423 1525.01 700.809L1530.09 702.449C1528.97 704.129 1527.58 705.392 1525.93 706.238C1524.27 707.072 1522.31 707.488 1520.05 707.488C1517.78 707.488 1515.78 707.065 1514.03 706.219C1512.3 705.359 1510.95 704.148 1509.99 702.586C1509.04 701.023 1508.56 699.188 1508.56 697.078C1508.56 694.995 1509.06 693.107 1510.05 691.414C1511.05 689.721 1512.4 688.4 1514.09 687.449C1515.8 686.486 1517.64 686.004 1519.64 686.004C1521.8 686.004 1523.68 686.505 1525.28 687.508C1526.88 688.497 1528.11 689.91 1528.97 691.746C1529.85 693.569 1530.29 695.691 1530.32 698.113ZM1519.32 690.359C1518.15 690.359 1517.21 690.698 1516.49 691.375C1515.79 692.052 1515.35 693.087 1515.16 694.48H1523.72C1523.54 693.257 1523.04 692.267 1522.21 691.512C1521.41 690.743 1520.44 690.359 1519.32 690.359ZM1545.65 686.473V691.277H1541.86V700.242C1541.86 700.88 1541.99 701.362 1542.23 701.688C1542.48 702 1542.94 702.156 1543.62 702.156C1544.18 702.156 1544.86 702.013 1545.65 701.727V706.277C1543.89 706.967 1542.24 707.312 1540.69 707.312C1538.91 707.312 1537.57 706.863 1536.67 705.965C1535.78 705.053 1535.34 703.771 1535.34 702.117V691.277H1532.74V686.473H1535.34V683.289L1541.86 678.602V686.473H1545.65ZM1561.2 686.473V691.277H1557.41V700.242C1557.41 700.88 1557.53 701.362 1557.78 701.688C1558.03 702 1558.49 702.156 1559.17 702.156C1559.73 702.156 1560.4 702.013 1561.2 701.727V706.277C1559.44 706.967 1557.79 707.312 1556.24 707.312C1554.45 707.312 1553.11 706.863 1552.21 705.965C1551.33 705.053 1550.89 703.771 1550.89 702.117V691.277H1548.29V686.473H1550.89V683.289L1557.41 678.602V686.473H1561.2ZM1574.03 680.633C1574.03 681.674 1573.67 682.54 1572.96 683.23C1572.25 683.908 1571.41 684.246 1570.44 684.246C1569.45 684.246 1568.6 683.895 1567.88 683.191C1567.18 682.475 1566.82 681.622 1566.82 680.633C1566.82 679.656 1567.18 678.816 1567.88 678.113C1568.6 677.397 1569.45 677.039 1570.44 677.039C1571.41 677.039 1572.25 677.397 1572.96 678.113C1573.67 678.816 1574.03 679.656 1574.03 680.633ZM1576.67 702.273V707H1563.99V702.273H1567.12V691.277H1563.99V686.473H1573.62V702.273H1576.67ZM1600.98 693.914V702.273H1604.07V707H1594.42V694.441C1594.42 693.478 1594.27 692.781 1593.97 692.352C1593.69 691.909 1593.2 691.688 1592.51 691.688C1591.26 691.688 1590 692.137 1588.74 693.035V702.273H1591.94V707H1579.11V702.273H1582.23V691.277H1579.11V686.473H1588.74V688.406C1590.69 686.935 1592.7 686.199 1594.75 686.199C1596.8 686.199 1598.35 686.85 1599.4 688.152C1600.46 689.441 1600.98 691.362 1600.98 693.914ZM1620.71 688.992V686.473H1630.61V691.277H1627.21V706.609C1627.21 709.826 1626.34 712.28 1624.58 713.973C1622.82 715.665 1620.11 716.512 1616.45 716.512C1612.4 716.512 1609.38 715.77 1607.39 714.285L1610.57 709.969C1612.25 710.997 1613.91 711.512 1615.54 711.512C1616.9 711.512 1617.96 711.303 1618.7 710.887C1619.45 710.483 1619.98 709.852 1620.26 708.992C1620.56 708.146 1620.71 707 1620.71 705.555V704.441C1618.55 706.355 1616.45 707.312 1614.42 707.312C1612.74 707.312 1611.25 706.87 1609.95 705.984C1608.66 705.086 1607.66 703.836 1606.96 702.234C1606.26 700.633 1605.91 698.797 1605.91 696.727C1605.91 694.695 1606.28 692.879 1607.02 691.277C1607.77 689.676 1608.84 688.432 1610.2 687.547C1611.57 686.648 1613.09 686.199 1614.77 686.199C1617.21 686.199 1619.19 687.13 1620.71 688.992ZM1616.63 702C1617.83 702 1618.81 701.544 1619.58 700.633C1620.36 699.708 1620.75 698.432 1620.75 696.805C1620.75 695.151 1620.38 693.849 1619.64 692.898C1618.91 691.948 1617.9 691.473 1616.63 691.473C1615.39 691.473 1614.42 691.961 1613.7 692.938C1612.98 693.914 1612.62 695.19 1612.62 696.766C1612.62 698.276 1612.98 699.526 1613.7 700.516C1614.42 701.505 1615.39 702 1616.63 702ZM1644.95 687.195V686.473H1649.62V692.488H1644.95C1644.55 691.043 1643.05 690.32 1640.46 690.32C1638.6 690.32 1637.66 690.841 1637.66 691.883C1637.66 692.339 1637.91 692.677 1638.41 692.898C1638.9 693.12 1639.62 693.302 1640.57 693.445C1643.24 693.784 1645.35 694.272 1646.88 694.91C1648.42 695.535 1649.49 696.316 1650.11 697.254C1650.72 698.178 1651.02 699.305 1651.02 700.633C1651.02 702.794 1650.28 704.48 1648.8 705.691C1647.33 706.889 1645.32 707.488 1642.78 707.488C1640.31 707.488 1638.63 706.993 1637.74 706.004V707H1632.98V699.93H1637.74C1637.87 700.906 1638.34 701.674 1639.15 702.234C1639.97 702.794 1640.98 703.074 1642.18 703.074C1643.35 703.074 1644.21 702.944 1644.77 702.684C1645.33 702.41 1645.61 701.941 1645.61 701.277C1645.61 700.822 1645.5 700.47 1645.26 700.223C1645.03 699.962 1644.57 699.734 1643.89 699.539C1643.23 699.344 1642.21 699.122 1640.83 698.875C1637.76 698.393 1635.54 697.618 1634.19 696.551C1632.85 695.47 1632.18 694.018 1632.18 692.195C1632.18 690.333 1632.87 688.868 1634.27 687.801C1635.67 686.733 1637.52 686.199 1639.81 686.199C1641.66 686.199 1643.37 686.531 1644.95 687.195Z" fill="#1A73E8"/>
<line x1="1206" y1="380" x2="1677" y2="380" stroke="#FF6D7F" stroke-width="2" stroke-dasharray="16 16"/>
<line x1="1206" y1="612" x2="1677" y2="612" stroke="#FF6D7F" stroke-width="2" stroke-dasharray="16 16"/>
<line x1="1206" y1="468" x2="1677" y2="468" stroke="#FF6D7F" stroke-width="2" stroke-dasharray="16 16"/>
<line x1="1206" y1="700" x2="1677" y2="700" stroke="#FF6D7F" stroke-width="2" stroke-dasharray="16 16"/>
</svg>
