<svg xmlns="http://www.w3.org/2000/svg" width="1920" height="1080" fill="none"><rect width="340" height="100" x="243" y="415" fill="#1A73E8" rx="24"/><path fill="#fff" d="M364.932 460h-3.523c-.208-1.013-.573-1.903-1.094-2.67a7.261 7.261 0 0 0-1.875-1.932 7.928 7.928 0 0 0-2.429-1.193 9.67 9.67 0 0 0-2.784-.398c-1.761 0-3.357.445-4.787 1.335-1.42.89-2.552 2.202-3.395 3.935-.833 1.733-1.25 3.859-1.25 6.378 0 2.518.417 4.644 1.25 6.377.843 1.733 1.975 3.045 3.395 3.935 1.43.89 3.026 1.335 4.787 1.335.966 0 1.894-.132 2.784-.397a8.176 8.176 0 0 0 2.429-1.179 7.484 7.484 0 0 0 1.875-1.946c.521-.777.886-1.667 1.094-2.671h3.523c-.265 1.487-.748 2.817-1.449 3.992a10.915 10.915 0 0 1-2.614 2.997 11.467 11.467 0 0 1-3.508 1.861c-1.288.426-2.666.639-4.134.639-2.481 0-4.687-.606-6.619-1.818-1.932-1.213-3.452-2.936-4.56-5.171-1.108-2.235-1.662-4.886-1.662-7.954 0-3.069.554-5.72 1.662-7.955 1.108-2.235 2.628-3.958 4.56-5.17 1.932-1.213 4.138-1.819 6.619-1.819 1.468 0 2.846.213 4.134.64a11.269 11.269 0 0 1 3.508 1.875 10.699 10.699 0 0 1 2.614 2.983c.701 1.164 1.184 2.495 1.449 3.991Zm14.101 20.455c-1.969 0-3.698-.469-5.184-1.407-1.478-.937-2.633-2.249-3.466-3.934-.824-1.686-1.236-3.656-1.236-5.909 0-2.273.412-4.257 1.236-5.952.833-1.695 1.988-3.012 3.466-3.949 1.486-.938 3.215-1.406 5.184-1.406 1.97 0 3.694.468 5.171 1.406 1.487.937 2.642 2.254 3.466 3.949.833 1.695 1.25 3.679 1.25 5.952 0 2.253-.417 4.223-1.25 5.909-.824 1.685-1.979 2.997-3.466 3.934-1.477.938-3.201 1.407-5.171 1.407Zm0-3.012c1.497 0 2.728-.383 3.694-1.15.965-.767 1.68-1.776 2.144-3.026.464-1.25.696-2.604.696-4.062 0-1.459-.232-2.818-.696-4.077-.464-1.26-1.179-2.278-2.144-3.054-.966-.777-2.197-1.165-3.694-1.165-1.496 0-2.727.388-3.693 1.165-.966.776-1.681 1.794-2.145 3.054-.464 1.259-.696 2.618-.696 4.077 0 1.458.232 2.812.696 4.062.464 1.25 1.179 2.259 2.145 3.026.966.767 2.197 1.15 3.693 1.15Zm18.356-10.568V480h-3.352v-21.818h3.239v3.409h.284a6.236 6.236 0 0 1 2.329-2.671c1.042-.681 2.387-1.022 4.034-1.022 1.478 0 2.77.303 3.878.909 1.108.596 1.97 1.505 2.585 2.727.616 1.212.924 2.746.924 4.602V480h-3.353v-13.636c0-1.714-.445-3.05-1.335-4.006-.89-.966-2.112-1.449-3.665-1.449-1.07 0-2.026.232-2.869.696-.833.464-1.491 1.141-1.974 2.031-.483.891-.725 1.97-.725 3.239Zm29.762-8.693v2.841H415.39v-2.841h11.761ZM418.913 480v-24.83c0-1.25.293-2.291.88-3.125a5.465 5.465 0 0 1 2.287-1.875 7.241 7.241 0 0 1 2.969-.625c.824 0 1.496.067 2.017.199.521.133.909.256 1.165.37l-.966 2.897a19.549 19.549 0 0 0-.71-.213c-.294-.085-.682-.128-1.165-.128-1.108 0-1.908.28-2.401.839-.483.558-.724 1.377-.724 2.457V480h-3.352Zm12.936 0v-21.818h3.353V480h-3.353Zm1.705-25.455a2.382 2.382 0 0 1-1.69-.667c-.464-.445-.696-.98-.696-1.605s.232-1.16.696-1.605a2.383 2.383 0 0 1 1.69-.668c.653 0 1.212.223 1.676.668.474.445.71.98.71 1.605s-.236 1.16-.71 1.605a2.335 2.335 0 0 1-1.676.667ZM441.342 480v-21.818h3.238v3.295h.228c.397-1.079 1.117-1.955 2.159-2.628 1.041-.672 2.216-1.008 3.522-1.008.247 0 .554.005.924.014.369.01.648.024.838.043v3.409a9.724 9.724 0 0 0-.782-.128 7.713 7.713 0 0 0-1.264-.099c-1.06 0-2.007.222-2.841.667a5.041 5.041 0 0 0-1.96 1.818c-.473.767-.71 1.643-.71 2.628V480h-3.352Zm14.882 0v-21.818h3.239v3.409h.284c.455-1.165 1.189-2.069 2.202-2.713 1.013-.654 2.23-.98 3.65-.98 1.44 0 2.638.326 3.594.98.966.644 1.719 1.548 2.259 2.713h.227c.559-1.127 1.397-2.022 2.514-2.685 1.118-.672 2.458-1.008 4.02-1.008 1.951 0 3.546.611 4.787 1.832 1.241 1.212 1.861 3.101 1.861 5.668V480h-3.352v-14.602c0-1.61-.441-2.761-1.321-3.452-.881-.691-1.918-1.037-3.111-1.037-1.534 0-2.723.464-3.566 1.392-.842.919-1.264 2.083-1.264 3.494V480h-3.409v-14.943c0-1.241-.402-2.24-1.207-2.997-.805-.767-1.842-1.151-3.111-1.151-.871 0-1.686.232-2.443.696-.748.464-1.354 1.108-1.818 1.932-.455.814-.682 1.757-.682 2.827V480h-3.353Z"/><rect width="340" height="100" x="243" y="563" fill="#1A73E8" rx="24"/><path fill="#fff" d="M357.445 593.809v-3.243h3.75V600h-3.828c-.963-1.888-2.285-3.359-3.965-4.414-1.679-1.055-3.522-1.582-5.527-1.582-1.94 0-3.672.514-5.195 1.543-1.524 1.015-2.715 2.383-3.575 4.101-.846 1.706-1.269 3.542-1.269 5.508 0 2.032.443 3.906 1.328 5.625.898 1.719 2.129 3.093 3.691 4.121 1.563 1.029 3.301 1.543 5.215 1.543 2.357 0 4.44-.716 6.25-2.148 1.81-1.445 3.132-3.49 3.965-6.133l3.75 1.992c-1.015 3.282-2.812 5.827-5.39 7.637-2.566 1.797-5.58 2.695-9.043 2.695-2.852 0-5.385-.677-7.598-2.031a14.359 14.359 0 0 1-5.176-5.488c-1.224-2.305-1.836-4.831-1.836-7.578 0-2.982.625-5.638 1.875-7.969 1.263-2.331 3.001-4.134 5.215-5.41 2.214-1.289 4.746-1.934 7.598-1.934 1.914 0 3.678.319 5.293.957 1.614.638 3.105 1.563 4.472 2.774Zm29.61 15.957c0 1.992-.476 3.815-1.426 5.468a10.602 10.602 0 0 1-3.887 3.926c-1.64.964-3.457 1.445-5.449 1.445-2.057 0-3.913-.481-5.566-1.445a10.27 10.27 0 0 1-3.868-3.926c-.911-1.653-1.367-3.476-1.367-5.468 0-2.084.456-3.946 1.367-5.586a9.939 9.939 0 0 1 3.848-3.848c1.641-.937 3.503-1.406 5.586-1.406 2.018 0 3.848.495 5.488 1.484a10.606 10.606 0 0 1 3.867 3.945c.938 1.654 1.407 3.457 1.407 5.411Zm-10.762 6.914a6.12 6.12 0 0 0 3.301-.938 6.524 6.524 0 0 0 2.344-2.519c.559-1.055.839-2.207.839-3.457 0-1.224-.28-2.364-.839-3.418a6.664 6.664 0 0 0-2.344-2.539 6.006 6.006 0 0 0-3.34-.977 6.028 6.028 0 0 0-3.301.957 6.627 6.627 0 0 0-2.363 2.539 7.162 7.162 0 0 0-.86 3.438c0 1.224.287 2.369.86 3.437a6.572 6.572 0 0 0 2.383 2.539 6.214 6.214 0 0 0 3.32.938Zm33.359-10.489v10.215h3.438V620h-7.481v-13.555c0-1.289-.188-2.213-.566-2.773-.365-.56-.97-.84-1.816-.84-1.797 0-3.816.885-6.055 2.656v10.918h3.535V620h-11.133v-3.594h3.614v-13.32h-3.614v-3.613h7.598v2.48c2.513-1.836 4.876-2.754 7.09-2.754 1.836 0 3.19.567 4.062 1.699.886 1.133 1.328 2.898 1.328 5.293Zm19.121-11.503-3.593.546c-.118-1.328-.625-1.992-1.524-1.992-.534 0-.937.196-1.211.586-.26.378-.39 1.152-.39 2.324v3.321h12.988v16.933h3.125V620h-10.352v-3.594h3.204v-13.359h-8.965v13.359h3.867V620h-10.918v-3.594h3.008v-13.359h-3.008v-3.574h3.008v-3.243c0-1.809.423-3.307 1.269-4.492.86-1.185 2.22-1.777 4.082-1.777 3.125 0 4.929 1.575 5.41 4.727Zm6.563-2.129c0 .664-.241 1.237-.723 1.718a2.344 2.344 0 0 1-1.718.723 2.378 2.378 0 0 1-1.719-.703c-.482-.469-.723-1.048-.723-1.738 0-.691.241-1.27.723-1.739a2.382 2.382 0 0 1 1.719-.703c.664 0 1.237.241 1.718.723.482.482.723 1.055.723 1.719Zm12.715 19.199v4.648h4.472V620h-12.597v-3.594h4.121v-13.32h-4.121v-3.613h7.324v4.648c.82-1.836 1.836-3.112 3.047-3.828 1.224-.729 2.969-1.094 5.234-1.094h.918v4.082h-.879c-2.187 0-3.815.287-4.882.86-1.068.573-1.778 1.438-2.129 2.597-.339 1.159-.508 2.832-.508 5.02Zm13.73 4.648v-13.32h-3.457v-3.613h7.481v2.597c2.409-1.914 4.772-2.871 7.09-2.871 2.369 0 3.997 1.068 4.882 3.203 2.631-2.135 5.111-3.203 7.442-3.203 1.653 0 2.969.489 3.945 1.465.99.977 1.484 2.474 1.484 4.492v11.25h3.594V620h-7.597v-13.008c0-.898-.046-1.627-.137-2.187a2.541 2.541 0 0 0-.723-1.426c-.377-.391-.983-.586-1.816-.586-.742 0-1.608.221-2.598.664-.989.443-2.031 1.107-3.125 1.992v10.957h3.477V620h-7.52v-13.516c0-1.315-.202-2.259-.605-2.832-.391-.573-1.042-.859-1.953-.859-1.485 0-3.431.885-5.84 2.656v10.957h3.613V620H458.09v-3.594h3.691Z"/><rect width="340" height="100" x="631" y="415" fill="#1A73E8" rx="24"/><path fill="#fff" d="M718.001 456.667c-.917 0-1.667.75-1.667 1.667v5h-5c-.917 0-1.667.75-1.667 1.667 0 .916.75 1.666 1.667 1.666h5v5c0 .917.75 1.667 1.667 1.667.916 0 1.666-.75 1.666-1.667v-5h5c.917 0 1.667-.75 1.667-1.666 0-.917-.75-1.667-1.667-1.667h-5v-5c0-.917-.75-1.667-1.666-1.667Zm0-8.333c-9.2 0-16.667 7.467-16.667 16.667 0 9.2 7.467 16.666 16.667 16.666 9.2 0 16.666-7.466 16.666-16.666s-7.466-16.667-16.666-16.667Zm0 30c-7.35 0-13.334-5.983-13.334-13.333 0-7.35 5.984-13.334 13.334-13.334s13.333 5.984 13.333 13.334-5.983 13.333-13.333 13.333ZM780.932 460h-3.523c-.208-1.013-.573-1.903-1.094-2.67a7.261 7.261 0 0 0-1.875-1.932 7.928 7.928 0 0 0-2.429-1.193 9.67 9.67 0 0 0-2.784-.398c-1.761 0-3.357.445-4.787 1.335-1.42.89-2.552 2.202-3.395 3.935-.833 1.733-1.25 3.859-1.25 6.378 0 2.518.417 4.644 1.25 6.377.843 1.733 1.975 3.045 3.395 3.935 1.43.89 3.026 1.335 4.787 1.335.966 0 1.894-.132 2.784-.397a8.176 8.176 0 0 0 2.429-1.179 7.484 7.484 0 0 0 1.875-1.946c.521-.777.886-1.667 1.094-2.671h3.523c-.265 1.487-.748 2.817-1.449 3.992a10.915 10.915 0 0 1-2.614 2.997 11.467 11.467 0 0 1-3.508 1.861c-1.288.426-2.666.639-4.134.639-2.481 0-4.687-.606-6.619-1.818-1.932-1.213-3.452-2.936-4.56-5.171-1.108-2.235-1.662-4.886-1.662-7.954 0-3.069.554-5.72 1.662-7.955 1.108-2.235 2.628-3.958 4.56-5.17 1.932-1.213 4.138-1.819 6.619-1.819 1.468 0 2.846.213 4.134.64a11.269 11.269 0 0 1 3.508 1.875 10.699 10.699 0 0 1 2.614 2.983c.701 1.164 1.184 2.495 1.449 3.991Zm14.101 20.455c-1.969 0-3.698-.469-5.184-1.407-1.478-.937-2.633-2.249-3.466-3.934-.824-1.686-1.236-3.656-1.236-5.909 0-2.273.412-4.257 1.236-5.952.833-1.695 1.988-3.012 3.466-3.949 1.486-.938 3.215-1.406 5.184-1.406 1.97 0 3.694.468 5.171 1.406 1.487.937 2.642 2.254 3.466 3.949.833 1.695 1.25 3.679 1.25 5.952 0 2.253-.417 4.223-1.25 5.909-.824 1.685-1.979 2.997-3.466 3.934-1.477.938-3.201 1.407-5.171 1.407Zm0-3.012c1.497 0 2.728-.383 3.694-1.15.965-.767 1.68-1.776 2.144-3.026.464-1.25.696-2.604.696-4.062 0-1.459-.232-2.818-.696-4.077-.464-1.26-1.179-2.278-2.144-3.054-.966-.777-2.197-1.165-3.694-1.165-1.496 0-2.727.388-3.693 1.165-.966.776-1.681 1.794-2.145 3.054-.464 1.259-.696 2.618-.696 4.077 0 1.458.232 2.812.696 4.062.464 1.25 1.179 2.259 2.145 3.026.966.767 2.197 1.15 3.693 1.15Zm18.356-10.568V480h-3.352v-21.818h3.239v3.409h.284a6.236 6.236 0 0 1 2.329-2.671c1.042-.681 2.387-1.022 4.034-1.022 1.478 0 2.77.303 3.878.909 1.108.596 1.97 1.505 2.585 2.727.616 1.212.924 2.746.924 4.602V480h-3.353v-13.636c0-1.714-.445-3.05-1.335-4.006-.89-.966-2.112-1.449-3.665-1.449-1.07 0-2.026.232-2.869.696-.833.464-1.491 1.141-1.974 2.031-.483.891-.725 1.97-.725 3.239Zm29.762-8.693v2.841H831.39v-2.841h11.761ZM834.913 480v-24.83c0-1.25.293-2.291.88-3.125a5.465 5.465 0 0 1 2.287-1.875 7.241 7.241 0 0 1 2.969-.625c.824 0 1.496.067 2.017.199.521.133.909.256 1.165.37l-.966 2.897a19.549 19.549 0 0 0-.71-.213c-.294-.085-.682-.128-1.165-.128-1.108 0-1.908.28-2.401.839-.483.558-.724 1.377-.724 2.457V480h-3.352Zm12.936 0v-21.818h3.353V480h-3.353Zm1.705-25.455a2.382 2.382 0 0 1-1.69-.667c-.464-.445-.696-.98-.696-1.605s.232-1.16.696-1.605a2.383 2.383 0 0 1 1.69-.668c.653 0 1.212.223 1.676.668.474.445.71.98.71 1.605s-.236 1.16-.71 1.605a2.335 2.335 0 0 1-1.676.667ZM857.342 480v-21.818h3.238v3.295h.228c.397-1.079 1.117-1.955 2.159-2.628 1.041-.672 2.216-1.008 3.522-1.008.247 0 .554.005.924.014.369.01.648.024.838.043v3.409a9.724 9.724 0 0 0-.782-.128 7.713 7.713 0 0 0-1.264-.099c-1.06 0-2.007.222-2.841.667a5.041 5.041 0 0 0-1.96 1.818c-.473.767-.71 1.643-.71 2.628V480h-3.352Zm14.882 0v-21.818h3.239v3.409h.284c.455-1.165 1.189-2.069 2.202-2.713 1.013-.654 2.23-.98 3.65-.98 1.44 0 2.638.326 3.594.98.966.644 1.719 1.548 2.259 2.713h.227c.559-1.127 1.397-2.022 2.514-2.685 1.118-.672 2.458-1.008 4.02-1.008 1.951 0 3.546.611 4.787 1.832 1.241 1.212 1.861 3.101 1.861 5.668V480h-3.352v-14.602c0-1.61-.441-2.761-1.321-3.452-.881-.691-1.918-1.037-3.111-1.037-1.534 0-2.723.464-3.566 1.392-.842.919-1.264 2.083-1.264 3.494V480h-3.409v-14.943c0-1.241-.402-2.24-1.207-2.997-.805-.767-1.842-1.151-3.111-1.151-.871 0-1.686.232-2.443.696-.748.464-1.354 1.108-1.818 1.932-.455.814-.682 1.757-.682 2.827V480h-3.353Z"/><rect width="340" height="100" x="631" y="563" fill="#1A73E8" rx="24"/><path fill="#fff" d="M711.001 604.667c-.917 0-1.667.75-1.667 1.667v5h-5c-.917 0-1.667.75-1.667 1.667 0 .916.75 1.666 1.667 1.666h5v5c0 .917.75 1.667 1.667 1.667.916 0 1.666-.75 1.666-1.667v-5h5c.917 0 1.667-.75 1.667-1.666 0-.917-.75-1.667-1.667-1.667h-5v-5c0-.917-.75-1.667-1.666-1.667Zm0-8.333c-9.2 0-16.667 7.467-16.667 16.667 0 9.2 7.467 16.666 16.667 16.666 9.2 0 16.666-7.466 16.666-16.666s-7.466-16.667-16.666-16.667Zm0 30c-7.35 0-13.334-5.983-13.334-13.333 0-7.35 5.984-13.334 13.334-13.334s13.333 5.984 13.333 13.334-5.983 13.333-13.333 13.333ZM773.445 593.809v-3.243h3.75V600h-3.828c-.963-1.888-2.285-3.359-3.965-4.414-1.679-1.055-3.522-1.582-5.527-1.582-1.94 0-3.672.514-5.195 1.543-1.524 1.015-2.715 2.383-3.575 4.101-.846 1.706-1.269 3.542-1.269 5.508 0 2.032.443 3.906 1.328 5.625.898 1.719 2.129 3.093 3.691 4.121 1.563 1.029 3.301 1.543 5.215 1.543 2.357 0 4.44-.716 6.25-2.148 1.81-1.445 3.132-3.49 3.965-6.133l3.75 1.992c-1.015 3.282-2.812 5.827-5.39 7.637-2.566 1.797-5.58 2.695-9.043 2.695-2.852 0-5.385-.677-7.598-2.031a14.359 14.359 0 0 1-5.176-5.488c-1.224-2.305-1.836-4.831-1.836-7.578 0-2.982.625-5.638 1.875-7.969 1.263-2.331 3.001-4.134 5.215-5.41 2.214-1.289 4.746-1.934 7.598-1.934 1.914 0 3.678.319 5.293.957 1.614.638 3.105 1.563 4.472 2.774Zm29.61 15.957c0 1.992-.476 3.815-1.426 5.468a10.602 10.602 0 0 1-3.887 3.926c-1.64.964-3.457 1.445-5.449 1.445-2.057 0-3.913-.481-5.566-1.445a10.27 10.27 0 0 1-3.868-3.926c-.911-1.653-1.367-3.476-1.367-5.468 0-2.084.456-3.946 1.367-5.586a9.939 9.939 0 0 1 3.848-3.848c1.641-.937 3.503-1.406 5.586-1.406 2.018 0 3.848.495 5.488 1.484a10.606 10.606 0 0 1 3.867 3.945c.938 1.654 1.407 3.457 1.407 5.411Zm-10.762 6.914a6.12 6.12 0 0 0 3.301-.938 6.524 6.524 0 0 0 2.344-2.519c.559-1.055.839-2.207.839-3.457 0-1.224-.28-2.364-.839-3.418a6.664 6.664 0 0 0-2.344-2.539 6.006 6.006 0 0 0-3.34-.977 6.028 6.028 0 0 0-3.301.957 6.627 6.627 0 0 0-2.363 2.539 7.162 7.162 0 0 0-.86 3.438c0 1.224.287 2.369.86 3.437a6.572 6.572 0 0 0 2.383 2.539 6.214 6.214 0 0 0 3.32.938Zm33.359-10.489v10.215h3.438V620h-7.481v-13.555c0-1.289-.188-2.213-.566-2.773-.365-.56-.97-.84-1.816-.84-1.797 0-3.816.885-6.055 2.656v10.918h3.535V620h-11.133v-3.594h3.614v-13.32h-3.614v-3.613h7.598v2.48c2.513-1.836 4.876-2.754 7.09-2.754 1.836 0 3.19.567 4.062 1.699.886 1.133 1.328 2.898 1.328 5.293Zm19.121-11.503-3.593.546c-.118-1.328-.625-1.992-1.524-1.992-.534 0-.937.196-1.211.586-.26.378-.39 1.152-.39 2.324v3.321h12.988v16.933h3.125V620h-10.352v-3.594h3.204v-13.359h-8.965v13.359h3.867V620h-10.918v-3.594h3.008v-13.359h-3.008v-3.574h3.008v-3.243c0-1.809.423-3.307 1.269-4.492.86-1.185 2.22-1.777 4.082-1.777 3.125 0 4.929 1.575 5.41 4.727Zm6.563-2.129c0 .664-.241 1.237-.723 1.718a2.344 2.344 0 0 1-1.718.723 2.378 2.378 0 0 1-1.719-.703c-.482-.469-.723-1.048-.723-1.738 0-.691.241-1.27.723-1.739a2.382 2.382 0 0 1 1.719-.703c.664 0 1.237.241 1.718.723.482.482.723 1.055.723 1.719Zm12.715 19.199v4.648h4.472V620h-12.597v-3.594h4.121v-13.32h-4.121v-3.613h7.324v4.648c.82-1.836 1.836-3.112 3.047-3.828 1.224-.729 2.969-1.094 5.234-1.094h.918v4.082h-.879c-2.187 0-3.815.287-4.882.86-1.068.573-1.778 1.438-2.129 2.597-.339 1.159-.508 2.832-.508 5.02Zm13.73 4.648v-13.32h-3.457v-3.613h7.481v2.597c2.409-1.914 4.772-2.871 7.09-2.871 2.369 0 3.997 1.068 4.882 3.203 2.631-2.135 5.111-3.203 7.442-3.203 1.653 0 2.969.489 3.945 1.465.99.977 1.484 2.474 1.484 4.492v11.25h3.594V620h-7.597v-13.008c0-.898-.046-1.627-.137-2.187a2.541 2.541 0 0 0-.723-1.426c-.377-.391-.983-.586-1.816-.586-.742 0-1.608.221-2.598.664-.989.443-2.031 1.107-3.125 1.992v10.957h3.477V620h-7.52v-13.516c0-1.315-.202-2.259-.605-2.832-.391-.573-1.042-.859-1.953-.859-1.485 0-3.431.885-5.84 2.656v10.957h3.613V620H874.09v-3.594h3.691Z"/><path stroke="#FF6D7F" stroke-dasharray="16 16" stroke-width="2" d="M219 465h776M219 613h776"/><path fill="#FF6D7F" d="M175.599 600.419c-.78-.78-2.04-.78-2.82 0l-9.78 9.76-9.78-9.78c-.78-.78-2.04-.78-2.82 0-.78.78-.78 2.04 0 2.82l9.78 9.78-9.78 9.78c-.78.78-.78 2.04 0 2.82.78.78 2.04.78 2.82 0l9.78-9.78 9.78 9.78c.78.78 2.04.78 2.82 0 .78-.78.78-2.04 0-2.82l-9.78-9.78 9.78-9.78c.76-.76.76-2.04 0-2.8Z"/><path fill="#1A73E8" d="m156.999 473.341-6.94-6.94c-.78-.78-2.04-.78-2.82 0-.78.78-.78 2.04 0 2.82l8.36 8.36c.78.78 2.04.78 2.82 0l21.16-21.16c.78-.78.78-2.04 0-2.82-.78-.78-2.04-.78-2.82 0l-19.76 19.74Z"/><path fill="#FF6D7F" d="M1131.6 643.419c-.78-.78-2.04-.78-2.82 0l-9.78 9.76-9.78-9.78c-.78-.78-2.04-.78-2.82 0-.78.78-.78 2.04 0 2.82l9.78 9.78-9.78 9.78c-.78.78-.78 2.04 0 2.82.78.78 2.04.78 2.82 0l9.78-9.78 9.78 9.78c.78.78 2.04.78 2.82 0 .78-.78.78-2.04 0-2.82l-9.78-9.78 9.78-9.78c.76-.76.76-2.04 0-2.8Z"/><path fill="#1A73E8" d="m1113 432.341-6.94-6.94c-.78-.78-2.04-.78-2.82 0-.78.78-.78 2.04 0 2.82l8.36 8.36c.78.78 2.04.78 2.82 0l21.16-21.16c.78-.78.78-2.04 0-2.82-.78-.78-2.04-.78-2.82 0l-19.76 19.74Z"/><rect width="439" height="184" x="1222" y="332" fill="#F3F7FE" rx="24"/><path fill="#1A73E8" d="M1282.67 375.001h-7.99l-7.3-10.934c-.31-.466-.85-.7-1.38-.7-.53 0-1.07.234-1.38.717l-7.3 10.917h-7.99c-.91 0-1.66.75-1.66 1.666 0 .15.01.3.06.45l4.24 15.45a3.306 3.306 0 0 0 3.2 2.434h21.66c1.54 0 2.82-1.034 3.22-2.434l4.23-15.45.05-.45a1.67 1.67 0 0 0-1.66-1.666Zm-16.67-7 4.67 7h-9.34l4.67-7Zm10.83 23.666-21.65.017-3.66-13.35h28.98l-3.67 13.333Zm-10.83-10c-1.83 0-3.33 1.5-3.33 3.334 0 1.833 1.5 3.333 3.33 3.333s3.33-1.5 3.33-3.333c0-1.834-1.5-3.334-3.33-3.334ZM1320.31 374.276c-.11-1.146-.6-2.036-1.46-2.671-.87-.634-2.03-.952-3.51-.952-1.01 0-1.85.142-2.54.427-.7.274-1.23.658-1.6 1.15a2.77 2.77 0 0 0-.54 1.676c-.01.521.09.976.33 1.364.25.388.58.724 1.01 1.008.43.275.92.517 1.48.725.56.199 1.15.369 1.79.511l2.61.625c1.27.284 2.43.663 3.5 1.137 1.06.473 1.97 1.055 2.75 1.747a7.116 7.116 0 0 1 1.8 2.443c.44.937.66 2.012.67 3.224-.01 1.781-.46 3.324-1.36 4.631-.89 1.297-2.18 2.306-3.86 3.026-1.68.71-3.7 1.065-6.07 1.065-2.35 0-4.39-.36-6.14-1.08-1.73-.719-3.08-1.785-4.06-3.196-.97-1.42-1.47-3.177-1.52-5.27h5.95c.07.976.35 1.79.84 2.444.5.644 1.17 1.131 2 1.463.85.322 1.8.483 2.86.483 1.04 0 1.94-.152 2.71-.455.78-.303 1.38-.724 1.81-1.264.42-.54.63-1.16.63-1.861 0-.653-.19-1.203-.58-1.648-.38-.445-.93-.823-1.67-1.136-.73-.312-1.63-.597-2.69-.852l-3.17-.796c-2.45-.596-4.39-1.529-5.81-2.798-1.42-1.269-2.12-2.978-2.11-5.128-.01-1.761.46-3.3 1.4-4.616.96-1.317 2.27-2.344 3.94-3.083 1.67-.738 3.56-1.108 5.68-1.108 2.16 0 4.04.37 5.65 1.108 1.62.739 2.88 1.766 3.78 3.083.9 1.316 1.37 2.841 1.39 4.574h-5.89Zm16.37 8.11V395h-6.05v-29.091h5.88v11.122h.25c.49-1.288 1.29-2.296 2.39-3.025 1.1-.739 2.47-1.108 4.13-1.108 1.52 0 2.84.331 3.97.994 1.13.653 2.01 1.596 2.64 2.827.63 1.221.94 2.684.93 4.389V395h-6.05v-12.812c.01-1.345-.33-2.392-1.02-3.14-.68-.748-1.64-1.122-2.87-1.122-.82 0-1.55.175-2.19.526-.62.35-1.11.861-1.47 1.534-.35.663-.53 1.463-.54 2.4Zm28.76 13.04c-2.2 0-4.11-.469-5.72-1.406-1.6-.947-2.84-2.263-3.71-3.949-.87-1.695-1.3-3.66-1.3-5.895 0-2.254.43-4.223 1.3-5.909.87-1.695 2.11-3.011 3.71-3.949 1.61-.947 3.52-1.42 5.72-1.42 2.21 0 4.11.473 5.71 1.42a9.497 9.497 0 0 1 3.73 3.949c.87 1.686 1.3 3.655 1.3 5.909 0 2.235-.43 4.2-1.3 5.895a9.604 9.604 0 0 1-3.73 3.949c-1.6.937-3.5 1.406-5.71 1.406Zm.03-4.687c1.01 0 1.84-.284 2.52-.853.67-.577 1.18-1.363 1.52-2.358.35-.994.52-2.126.52-3.394 0-1.269-.17-2.401-.52-3.395-.34-.995-.85-1.781-1.52-2.358-.68-.578-1.51-.867-2.52-.867s-1.86.289-2.55.867c-.69.577-1.2 1.363-1.55 2.358-.34.994-.51 2.126-.51 3.395 0 1.268.17 2.4.51 3.394.35.995.86 1.781 1.55 2.358.69.569 1.54.853 2.55.853Zm14.65 12.443v-30h5.96v3.665h.27c.27-.588.65-1.184 1.15-1.79.52-.616 1.18-1.127 1.99-1.534.83-.417 1.85-.625 3.07-.625 1.59 0 3.06.416 4.4 1.25 1.35.824 2.42 2.069 3.23 3.736.8 1.657 1.21 3.735 1.21 6.235 0 2.434-.4 4.489-1.18 6.165-.78 1.667-1.84 2.931-3.18 3.793-1.34.852-2.84 1.278-4.49 1.278-1.18 0-2.18-.194-3-.582-.81-.389-1.48-.876-2-1.463-.52-.597-.92-1.198-1.2-1.804h-.18v11.676h-6.05Zm5.92-19.091c0 1.297.18 2.429.54 3.395.36.966.88 1.719 1.56 2.258.69.531 1.51.796 2.49.796.98 0 1.82-.27 2.5-.81.68-.549 1.2-1.307 1.55-2.273.36-.975.54-2.097.54-3.366 0-1.26-.18-2.368-.53-3.324-.35-.956-.86-1.705-1.55-2.244-.68-.54-1.52-.81-2.51-.81-.99 0-1.82.26-2.5.781-.67.521-1.19 1.26-1.55 2.216-.36.957-.54 2.084-.54 3.381Zm19.39 19.091v-30h5.97v3.665h.27c.26-.588.64-1.184 1.15-1.79.51-.616 1.17-1.127 1.99-1.534.82-.417 1.84-.625 3.06-.625 1.59 0 3.06.416 4.41 1.25 1.34.824 2.42 2.069 3.22 3.736.81 1.657 1.21 3.735 1.21 6.235 0 2.434-.39 4.489-1.18 6.165-.78 1.667-1.84 2.931-3.18 3.793-1.34.852-2.83 1.278-4.49 1.278-1.17 0-2.17-.194-3-.582-.81-.389-1.48-.876-2-1.463-.52-.597-.92-1.198-1.19-1.804h-.19v11.676h-6.05Zm5.92-19.091c0 1.297.18 2.429.54 3.395.36.966.88 1.719 1.57 2.258.68.531 1.51.796 2.48.796.99 0 1.82-.27 2.5-.81.68-.549 1.2-1.307 1.55-2.273.36-.975.54-2.097.54-3.366 0-1.26-.18-2.368-.53-3.324-.35-.956-.86-1.705-1.54-2.244-.69-.54-1.52-.81-2.52-.81-.98 0-1.82.26-2.5.781-.67.521-1.19 1.26-1.55 2.216-.36.957-.54 2.084-.54 3.381ZM1430.74 395v-21.818h6.05V395h-6.05Zm3.04-24.631c-.9 0-1.67-.298-2.31-.895-.64-.606-.95-1.33-.95-2.173 0-.833.31-1.548.95-2.145.64-.606 1.41-.909 2.31-.909.9 0 1.67.303 2.3.909.65.597.97 1.312.97 2.145 0 .843-.32 1.567-.97 2.173-.63.597-1.4.895-2.3.895Zm13.91 12.017V395h-6.05v-21.818h5.77v3.849h.25a6.162 6.162 0 0 1 2.43-3.011c1.14-.748 2.52-1.122 4.14-1.122 1.51 0 2.83.331 3.96.994s2 1.61 2.63 2.841c.62 1.222.93 2.68.93 4.375V395h-6.05v-12.812c.01-1.336-.33-2.377-1.02-3.126-.69-.757-1.64-1.136-2.85-1.136-.82 0-1.54.175-2.16.526-.62.35-1.1.861-1.45 1.534-.34.663-.52 1.463-.53 2.4Zm28.66 21.25c-1.96 0-3.64-.27-5.04-.809-1.39-.531-2.5-1.255-3.32-2.174a6.664 6.664 0 0 1-1.61-3.096l5.6-.753c.17.436.44.843.81 1.222.37.378.86.681 1.46.909.62.236 1.37.355 2.25.355 1.31 0 2.4-.322 3.25-.966.86-.635 1.29-1.7 1.29-3.196v-3.992h-.25c-.27.606-.67 1.179-1.2 1.719-.53.54-1.21.98-2.04 1.321-.84.341-1.83.512-2.99.512-1.63 0-3.13-.379-4.47-1.137-1.34-.767-2.4-1.936-3.2-3.508-.78-1.582-1.18-3.58-1.18-5.995 0-2.471.41-4.536 1.21-6.193.81-1.657 1.88-2.898 3.21-3.721a8.317 8.317 0 0 1 4.42-1.236c1.22 0 2.24.208 3.07.625.82.407 1.48.918 1.99 1.534.51.606.9 1.202 1.18 1.79h.22v-3.665h6.01v22.031c0 1.856-.45 3.409-1.36 4.659-.91 1.25-2.17 2.188-3.78 2.813-1.6.634-3.44.951-5.53.951Zm.13-13.494c.98 0 1.8-.241 2.47-.724.68-.493 1.21-1.194 1.57-2.103.36-.918.55-2.017.55-3.295 0-1.279-.18-2.386-.54-3.324-.36-.947-.88-1.681-1.56-2.202-.68-.521-1.51-.781-2.49-.781-.99 0-1.83.27-2.51.81-.68.53-1.2 1.269-1.55 2.216-.35.947-.53 2.04-.53 3.281 0 1.259.18 2.348.53 3.267.36.909.87 1.615 1.55 2.116.68.493 1.52.739 2.51.739Zm24.73 4.858v-29.091h6.05v10.938h.18c.27-.588.65-1.184 1.15-1.79.52-.616 1.18-1.127 1.99-1.534.83-.417 1.85-.625 3.07-.625 1.59 0 3.06.416 4.4 1.25 1.35.824 2.42 2.069 3.23 3.736.8 1.657 1.21 3.735 1.21 6.235 0 2.434-.4 4.489-1.18 6.165-.78 1.667-1.84 2.931-3.18 3.793-1.34.852-2.84 1.278-4.49 1.278-1.18 0-2.18-.194-3-.582-.81-.389-1.48-.876-2-1.463-.52-.597-.92-1.198-1.2-1.804h-.27V395h-5.96Zm5.92-10.909c0 1.297.18 2.429.54 3.395.36.966.88 1.719 1.56 2.258.69.531 1.51.796 2.49.796.98 0 1.82-.27 2.5-.81.68-.549 1.2-1.307 1.55-2.273.36-.975.54-2.097.54-3.366 0-1.26-.18-2.368-.53-3.324-.35-.956-.86-1.705-1.55-2.244-.68-.54-1.52-.81-2.51-.81-.99 0-1.82.26-2.5.781-.67.521-1.19 1.26-1.55 2.216-.36.957-.54 2.084-.54 3.381Zm25.62 11.321c-1.4 0-2.64-.242-3.73-.724-1.08-.493-1.95-1.217-2.58-2.174-.63-.966-.94-2.168-.94-3.608 0-1.212.22-2.23.67-3.054a5.34 5.34 0 0 1 1.82-1.988c.76-.502 1.64-.881 2.61-1.137.99-.255 2.02-.435 3.1-.539 1.27-.133 2.29-.256 3.07-.37.77-.123 1.34-.303 1.69-.54.35-.236.52-.587.52-1.051v-.085c0-.9-.28-1.596-.85-2.088-.56-.492-1.35-.739-2.39-.739-1.09 0-1.95.242-2.6.725-.64.473-1.07 1.07-1.27 1.79l-5.6-.455c.28-1.326.84-2.472 1.67-3.437.84-.976 1.91-1.724 3.23-2.245 1.32-.53 2.86-.795 4.6-.795 1.21 0 2.37.142 3.48.426 1.12.284 2.11.724 2.97 1.321a6.414 6.414 0 0 1 2.06 2.301c.5.928.75 2.041.75 3.338V395h-5.74v-3.026h-.17a6.238 6.238 0 0 1-1.4 1.804c-.59.512-1.3.914-2.12 1.208-.82.284-1.77.426-2.85.426Zm1.73-4.176c.89 0 1.67-.175 2.36-.526a4.19 4.19 0 0 0 1.6-1.449c.39-.606.58-1.292.58-2.059v-2.316c-.19.123-.45.237-.78.341-.32.095-.68.185-1.09.27-.41.076-.82.147-1.22.213l-1.11.156c-.71.105-1.33.27-1.86.498-.53.227-.94.535-1.24.923-.29.379-.44.852-.44 1.42 0 .824.3 1.454.9 1.89.6.426 1.37.639 2.3.639Zm33.4-11.833-5.54.341c-.09-.473-.3-.899-.61-1.278a3.173 3.173 0 0 0-1.24-.923c-.5-.237-1.1-.355-1.8-.355-.94 0-1.73.198-2.37.596-.65.388-.97.909-.97 1.563 0 .52.21.961.63 1.321.41.359 1.13.648 2.14.866l3.95.796c2.12.435 3.7 1.136 4.75 2.102 1.04.966 1.56 2.235 1.56 3.807 0 1.43-.42 2.684-1.27 3.764-.83 1.079-1.98 1.922-3.43 2.528-1.45.597-3.12.895-5.02.895-2.89 0-5.19-.601-6.9-1.804-1.71-1.212-2.71-2.86-3-4.943l5.95-.313c.18.881.62 1.554 1.31 2.018.69.454 1.58.681 2.66.681 1.06 0 1.91-.203 2.55-.61.66-.417.99-.952 1-1.606-.01-.549-.24-.999-.7-1.349-.45-.36-1.15-.634-2.1-.824l-3.78-.753c-2.13-.426-3.72-1.164-4.76-2.216-1.03-1.051-1.55-2.391-1.55-4.019 0-1.402.38-2.609 1.14-3.623.77-1.013 1.84-1.794 3.22-2.343 1.4-.55 3.03-.824 4.89-.824 2.76 0 4.93.582 6.51 1.747 1.59 1.165 2.52 2.751 2.78 4.758Zm9.79 9.319.02-7.259h.88l6.98-8.281h6.95l-9.39 10.966h-1.43l-4.01 4.574Zm-5.48 6.278v-29.091h6.05V395h-6.05Zm13.63 0-6.42-9.503 4.04-4.275 9.47 13.778h-7.09Zm18.69.426c-2.24 0-4.17-.454-5.79-1.364-1.61-.918-2.85-2.215-3.72-3.892-.87-1.685-1.31-3.679-1.31-5.98 0-2.244.44-4.214 1.31-5.909.87-1.695 2.09-3.016 3.68-3.963 1.59-.947 3.45-1.42 5.59-1.42 1.44 0 2.78.232 4.02.696a8.944 8.944 0 0 1 3.27 2.059c.94.919 1.67 2.074 2.19 3.466.52 1.383.78 3.002.78 4.858v1.662h-18.42v-3.75h12.72c0-.871-.19-1.643-.57-2.315a4.015 4.015 0 0 0-1.57-1.577c-.67-.388-1.44-.582-2.32-.582-.92 0-1.73.213-2.44.639-.7.417-1.25.98-1.65 1.69-.4.701-.6 1.482-.61 2.344v3.565c0 1.08.2 2.013.6 2.799.4.786.98 1.392 1.72 1.818.73.426 1.61.639 2.62.639.68 0 1.29-.095 1.85-.284a3.736 3.736 0 0 0 1.43-.852c.4-.379.71-.843.91-1.392l5.6.369a7.614 7.614 0 0 1-1.75 3.523c-.87.994-1.99 1.771-3.38 2.329-1.37.55-2.96.824-4.76.824Zm25.57-22.244v4.545h-13.14v-4.545h13.14Zm-10.15-5.227h6.05v20.34c0 .559.08.995.25 1.307.17.303.41.516.71.639.32.124.68.185 1.08.185.29 0 .57-.024.86-.071.28-.057.5-.099.65-.128l.95 4.503c-.3.095-.73.204-1.28.327-.55.132-1.22.213-2 .241-1.46.057-2.74-.137-3.84-.582-1.09-.445-1.93-1.136-2.54-2.074-.61-.937-.9-2.121-.89-3.551v-21.136Z"/><path stroke="#D2E3FC" d="M1293 423.5h344"/><path fill="#1A73E8" d="M1275.68 455.451a.788.788 0 0 1-.38-.1c-3.2-1.65-5.97-2.35-9.28-2.35-3.3 0-6.44.783-9.29 2.35-.4.216-.9.066-1.13-.334a.84.84 0 0 1 .33-1.133c3.1-1.683 6.5-2.55 10.09-2.55 3.55 0 6.65.783 10.05 2.533.41.217.56.717.35 1.117-.15.3-.44.467-.74.467Zm-23.85 8.75a.832.832 0 0 1-.68-1.317c1.65-2.333 3.75-4.167 6.25-5.45 5.23-2.7 11.93-2.717 17.18-.017 2.5 1.284 4.6 3.1 6.25 5.417.27.367.19.9-.2 1.167a.824.824 0 0 1-1.16-.2c-1.5-2.1-3.4-3.75-5.65-4.9-4.79-2.45-10.9-2.45-15.67.016-2.27 1.167-4.17 2.834-5.67 4.934-.13.233-.38.35-.65.35Zm10.42 20.116a.768.768 0 0 1-.58-.25c-1.45-1.45-2.24-2.383-3.35-4.4-1.15-2.05-1.75-4.55-1.75-7.233 0-4.95 4.23-8.983 9.43-8.983 5.2 0 9.43 4.033 9.43 8.983a.82.82 0 0 1-.83.833.82.82 0 0 1-.83-.833c0-4.033-3.49-7.317-7.77-7.317-4.28 0-7.77 3.284-7.77 7.317 0 2.4.54 4.617 1.55 6.417 1.07 1.916 1.8 2.733 3.09 4.033.31.333.31.85 0 1.183-.19.167-.4.25-.62.25Zm11.95-3.083c-1.98 0-3.73-.5-5.17-1.483-2.48-1.684-3.96-4.417-3.96-7.317a.82.82 0 0 1 .83-.833c.47 0 .83.366.83.833 0 2.35 1.2 4.567 3.24 5.933 1.18.8 2.56 1.184 4.23 1.184.4 0 1.07-.05 1.73-.167.45-.083.89.217.97.683.08.45-.22.884-.68.967-.95.183-1.79.2-2.02.2Zm-3.35 3.433a.984.984 0 0 1-.22-.033c-2.65-.733-4.38-1.717-6.2-3.5a12.169 12.169 0 0 1-3.61-8.7c0-2.7 2.3-4.9 5.13-4.9s5.13 2.2 5.13 4.9c0 1.783 1.55 3.233 3.47 3.233 1.92 0 3.47-1.45 3.47-3.233 0-6.283-5.42-11.383-12.09-11.383-4.73 0-9.06 2.633-11.01 6.716-.65 1.35-.99 2.934-.99 4.667 0 1.3.12 3.35 1.12 6.017a.811.811 0 0 1-.48 1.066.827.827 0 0 1-1.07-.483c-.82-2.183-1.22-4.35-1.22-6.6 0-2 .39-3.817 1.14-5.4 2.21-4.65 7.13-7.667 12.51-7.667 7.59 0 13.75 5.85 13.75 13.05 0 2.7-2.3 4.9-5.13 4.9s-5.13-2.2-5.13-4.9c0-1.783-1.55-3.233-3.47-3.233-1.92 0-3.47 1.45-3.47 3.233 0 2.85 1.1 5.517 3.12 7.517 1.58 1.567 3.1 2.433 5.45 3.083.45.117.7.584.58 1.017a.807.807 0 0 1-.78.633ZM1320.31 462.276c-.11-1.146-.6-2.036-1.46-2.671-.87-.634-2.03-.952-3.51-.952-1.01 0-1.85.142-2.54.427-.7.274-1.23.658-1.6 1.15a2.77 2.77 0 0 0-.54 1.676c-.01.521.09.976.33 1.364.25.388.58.724 1.01 1.008.43.275.92.517 1.48.725.56.199 1.15.369 1.79.511l2.61.625c1.27.284 2.43.663 3.5 1.137 1.06.473 1.97 1.055 2.75 1.747a7.116 7.116 0 0 1 1.8 2.443c.44.937.66 2.012.67 3.224-.01 1.781-.46 3.324-1.36 4.631-.89 1.297-2.18 2.306-3.86 3.026-1.68.71-3.7 1.065-6.07 1.065-2.35 0-4.39-.36-6.14-1.08-1.73-.719-3.08-1.785-4.06-3.196-.97-1.42-1.47-3.177-1.52-5.27h5.95c.07.976.35 1.79.84 2.444.5.644 1.17 1.131 2 1.463.85.322 1.8.483 2.86.483 1.04 0 1.94-.152 2.71-.455.78-.303 1.38-.724 1.81-1.264.42-.54.63-1.16.63-1.861 0-.653-.19-1.203-.58-1.648-.38-.445-.93-.823-1.67-1.136-.73-.312-1.63-.597-2.69-.852l-3.17-.796c-2.45-.596-4.39-1.529-5.81-2.798-1.42-1.269-2.12-2.978-2.11-5.128-.01-1.761.46-3.3 1.4-4.616.96-1.317 2.27-2.344 3.94-3.083 1.67-.738 3.56-1.108 5.68-1.108 2.16 0 4.04.37 5.65 1.108 1.62.739 2.88 1.766 3.78 3.083.9 1.316 1.37 2.841 1.39 4.574h-5.89Zm20.26 21.15c-2.25 0-4.18-.454-5.8-1.364-1.61-.918-2.85-2.215-3.72-3.892-.87-1.685-1.3-3.679-1.3-5.98 0-2.244.43-4.214 1.3-5.909.87-1.695 2.1-3.016 3.68-3.963 1.59-.947 3.46-1.42 5.6-1.42 1.44 0 2.78.232 4.02.696a8.823 8.823 0 0 1 3.26 2.059c.94.919 1.67 2.074 2.19 3.466.52 1.383.78 3.002.78 4.858v1.662h-18.42v-3.75h12.73c0-.871-.19-1.643-.57-2.315a4.107 4.107 0 0 0-1.58-1.577c-.66-.388-1.43-.582-2.31-.582-.92 0-1.74.213-2.45.639-.7.417-1.25.98-1.64 1.69-.4.701-.61 1.482-.61 2.344v3.565c0 1.08.19 2.013.59 2.799.41.786.98 1.392 1.72 1.818.74.426 1.62.639 2.63.639.67 0 1.29-.095 1.84-.284a3.854 3.854 0 0 0 1.44-.852c.4-.379.7-.843.91-1.392l5.6.369c-.29 1.345-.87 2.519-1.75 3.523-.87.994-2 1.771-3.38 2.329-1.38.55-2.96.824-4.76.824Zm23.82 0c-2.23 0-4.16-.473-5.77-1.42-1.6-.957-2.83-2.283-3.69-3.978-.85-1.695-1.28-3.645-1.28-5.852 0-2.235.43-4.195 1.29-5.881.88-1.695 2.11-3.016 3.71-3.963 1.6-.956 3.51-1.434 5.71-1.434 1.9 0 3.57.345 5 1.037 1.43.691 2.56 1.662 3.4 2.912.83 1.25 1.29 2.717 1.37 4.403h-5.71c-.16-1.089-.58-1.965-1.27-2.628-.69-.672-1.58-1.008-2.69-1.008-.94 0-1.76.255-2.46.767-.69.502-1.23 1.235-1.62 2.201-.38.966-.58 2.136-.58 3.509 0 1.392.19 2.576.57 3.551.39.975.93 1.719 1.63 2.23.7.512 1.52.767 2.46.767.69 0 1.31-.142 1.86-.426a3.59 3.59 0 0 0 1.38-1.236c.37-.549.61-1.207.72-1.974h5.71c-.09 1.667-.55 3.134-1.36 4.403-.8 1.26-1.92 2.245-3.34 2.955s-3.1 1.065-5.04 1.065Zm27.61-9.716v-12.528h6.05V483h-5.81v-3.963h-.23a6.446 6.446 0 0 1-2.45 3.082c-1.14.777-2.53 1.165-4.17 1.165-1.45 0-2.74-.331-3.84-.994-1.11-.663-1.98-1.605-2.6-2.827-.62-1.222-.93-2.685-.94-4.389v-13.892h6.05v12.812c.01 1.288.35 2.306 1.04 3.054.68.748 1.59 1.122 2.74 1.122.73 0 1.41-.165 2.04-.497.64-.341 1.15-.843 1.54-1.505.4-.663.59-1.482.58-2.458Zm10.89 9.29v-21.818h5.87v3.807h.23c.39-1.355 1.06-2.377 2-3.069.94-.7 2.01-1.051 3.24-1.051.3 0 .63.019.98.057.35.038.65.09.92.156v5.37c-.28-.086-.68-.161-1.18-.228-.5-.066-.96-.099-1.38-.099-.89 0-1.68.194-2.38.582-.69.379-1.24.909-1.65 1.591-.4.682-.6 1.468-.6 2.358V483h-6.05Zm16.37 0v-21.818h6.05V483h-6.05Zm3.04-24.631c-.9 0-1.67-.298-2.32-.895-.63-.606-.95-1.33-.95-2.173 0-.833.32-1.548.95-2.145a3.28 3.28 0 0 1 2.32-.909c.9 0 1.66.303 2.3.909.64.597.97 1.312.97 2.145 0 .843-.33 1.567-.97 2.173-.64.597-1.4.895-2.3.895Zm19.46 2.813v4.545h-13.14v-4.545h13.14Zm-10.15-5.227h6.05v20.34c0 .559.08.995.25 1.307.17.303.41.516.71.639.32.124.68.185 1.08.185.29 0 .57-.024.85-.071l.66-.128.95 4.503c-.3.095-.73.204-1.28.327-.55.132-1.22.213-2 .241-1.46.057-2.74-.137-3.84-.582-1.09-.445-1.93-1.136-2.54-2.074-.61-.937-.9-2.121-.89-3.551v-21.136Zm17.83 35.227c-.77 0-1.49-.062-2.16-.185-.66-.113-1.21-.26-1.65-.44l1.37-4.517c.71.218 1.35.336 1.91.355.58.019 1.08-.114 1.5-.398.42-.284.77-.767 1.03-1.449l.36-.923-7.83-22.443h6.36l4.52 16.023h.23l4.56-16.023h6.4l-8.48 24.176a10.01 10.01 0 0 1-1.66 3.068 6.733 6.733 0 0 1-2.63 2.031c-1.06.483-2.33.725-3.83.725Zm47.11-23.779-5.54.341c-.09-.473-.3-.899-.61-1.278a3.212 3.212 0 0 0-1.23-.923c-.51-.237-1.11-.355-1.81-.355-.94 0-1.73.198-2.37.596-.64.388-.97.909-.97 1.563 0 .52.21.961.63 1.321.42.359 1.13.648 2.14.866l3.95.796c2.12.435 3.71 1.136 4.75 2.102s1.56 2.235 1.56 3.807c0 1.43-.42 2.684-1.26 3.764-.84 1.079-1.98 1.922-3.44 2.528-1.45.597-3.12.895-5.02.895-2.88 0-5.19-.601-6.9-1.804-1.7-1.212-2.7-2.86-3-4.943l5.95-.313c.18.881.62 1.554 1.31 2.018.69.454 1.58.681 2.66.681 1.06 0 1.91-.203 2.55-.61.66-.417.99-.952 1-1.606-.01-.549-.24-.999-.7-1.349-.45-.36-1.15-.634-2.1-.824l-3.78-.753c-2.13-.426-3.71-1.164-4.76-2.216-1.03-1.051-1.54-2.391-1.54-4.019 0-1.402.37-2.609 1.13-3.623.77-1.013 1.84-1.794 3.23-2.343 1.39-.55 3.02-.824 4.88-.824 2.76 0 4.93.582 6.51 1.747 1.59 1.165 2.52 2.751 2.78 4.758Zm14.25 16.023c-2.24 0-4.17-.454-5.79-1.364-1.61-.918-2.85-2.215-3.72-3.892-.87-1.685-1.31-3.679-1.31-5.98 0-2.244.44-4.214 1.31-5.909.87-1.695 2.09-3.016 3.68-3.963 1.59-.947 3.45-1.42 5.59-1.42 1.44 0 2.78.232 4.02.696a8.944 8.944 0 0 1 3.27 2.059c.94.919 1.67 2.074 2.19 3.466.52 1.383.78 3.002.78 4.858v1.662h-18.43v-3.75h12.73c0-.871-.19-1.643-.57-2.315a4.081 4.081 0 0 0-1.57-1.577c-.67-.388-1.44-.582-2.32-.582-.92 0-1.73.213-2.44.639-.7.417-1.25.98-1.65 1.69-.4.701-.6 1.482-.61 2.344v3.565c0 1.08.2 2.013.6 2.799.4.786.98 1.392 1.71 1.818.74.426 1.62.639 2.63.639.68 0 1.29-.095 1.85-.284a3.736 3.736 0 0 0 1.43-.852c.4-.379.7-.843.91-1.392l5.6.369a7.614 7.614 0 0 1-1.75 3.523c-.87.994-2 1.771-3.38 2.329-1.37.55-2.96.824-4.76.824Zm25.57-22.244v4.545h-13.14v-4.545h13.14Zm-10.15-5.227h6.05v20.34c0 .559.08.995.25 1.307.17.303.41.516.71.639.31.124.67.185 1.08.185.29 0 .57-.024.85-.071l.66-.128.95 4.503c-.3.095-.73.204-1.28.327-.55.132-1.22.213-2 .241-1.46.057-2.74-.137-3.84-.582-1.09-.445-1.93-1.136-2.54-2.074-.61-.937-.9-2.121-.89-3.551v-21.136Zm25.7 5.227v4.545h-13.14v-4.545h13.14Zm-10.16-5.227h6.05v20.34c0 .559.09.995.26 1.307.17.303.41.516.71.639.31.124.67.185 1.08.185.28 0 .57-.024.85-.071l.65-.128.96 4.503c-.31.095-.73.204-1.28.327-.55.132-1.22.213-2.01.241-1.45.057-2.73-.137-3.83-.582-1.09-.445-1.94-1.136-2.54-2.074-.61-.937-.91-2.121-.9-3.551v-21.136Zm14.1 27.045v-21.818h6.05V483h-6.05Zm3.04-24.631c-.9 0-1.67-.298-2.32-.895-.63-.606-.95-1.33-.95-2.173 0-.833.32-1.548.95-2.145a3.28 3.28 0 0 1 2.32-.909c.9 0 1.67.303 2.3.909.64.597.97 1.312.97 2.145 0 .843-.33 1.567-.97 2.173-.63.597-1.4.895-2.3.895Zm13.91 12.017V483h-6.05v-21.818h5.77v3.849h.25a6.054 6.054 0 0 1 2.43-3.011c1.14-.748 2.51-1.122 4.13-1.122 1.52 0 2.84.331 3.97.994 1.12.663 2 1.61 2.62 2.841.63 1.222.94 2.68.94 4.375V483h-6.05v-12.812c.01-1.336-.33-2.377-1.02-3.126-.69-.757-1.64-1.136-2.86-1.136-.81 0-1.53.175-2.16.526-.61.35-1.09.861-1.44 1.534-.35.663-.52 1.463-.53 2.4Zm28.66 21.25c-1.96 0-3.64-.27-5.04-.809-1.39-.531-2.5-1.255-3.33-2.174-.82-.918-1.35-1.95-1.6-3.096l5.6-.753c.17.436.44.843.81 1.222.36.378.85.681 1.46.909.61.236 1.36.355 2.24.355 1.32 0 2.4-.322 3.26-.966.86-.635 1.29-1.7 1.29-3.196v-3.992h-.26c-.26.606-.66 1.179-1.19 1.719-.53.54-1.21.98-2.05 1.321-.83.341-1.82.512-2.98.512-1.64 0-3.13-.379-4.47-1.137-1.34-.767-2.4-1.936-3.2-3.508-.79-1.582-1.18-3.58-1.18-5.995 0-2.471.4-4.536 1.21-6.193.8-1.657 1.87-2.898 3.21-3.721a8.292 8.292 0 0 1 4.42-1.236c1.22 0 2.24.208 3.07.625.82.407 1.48.918 1.98 1.534.52.606.91 1.202 1.18 1.79h.23v-3.665h6.01v22.031c0 1.856-.46 3.409-1.37 4.659-.9 1.25-2.16 2.188-3.77 2.813-1.6.634-3.45.951-5.53.951Zm.13-13.494c.97 0 1.8-.241 2.47-.724.68-.493 1.2-1.194 1.56-2.103.37-.918.56-2.017.56-3.295 0-1.279-.18-2.386-.54-3.324-.36-.947-.88-1.681-1.57-2.202-.68-.521-1.51-.781-2.48-.781-1 0-1.83.27-2.52.81-.68.53-1.19 1.269-1.54 2.216-.35.947-.53 2.04-.53 3.281 0 1.259.18 2.348.53 3.267.36.909.87 1.615 1.54 2.116.69.493 1.52.739 2.52.739Zm33.51-10.739-5.54.341a2.95 2.95 0 0 0-.61-1.278 3.326 3.326 0 0 0-1.24-.923c-.5-.237-1.1-.355-1.8-.355-.94 0-1.73.198-2.38.596-.64.388-.96.909-.96 1.563 0 .52.21.961.62 1.321.42.359 1.14.648 2.15.866l3.95.796c2.12.435 3.7 1.136 4.74 2.102s1.56 2.235 1.56 3.807c0 1.43-.42 2.684-1.26 3.764-.83 1.079-1.98 1.922-3.44 2.528-1.45.597-3.12.895-5.01.895-2.89 0-5.19-.601-6.9-1.804-1.71-1.212-2.71-2.86-3-4.943l5.95-.313c.18.881.62 1.554 1.31 2.018.69.454 1.57.681 2.65.681 1.06 0 1.92-.203 2.56-.61.65-.417.98-.952.99-1.606-.01-.549-.24-.999-.69-1.349-.46-.36-1.16-.634-2.1-.824l-3.78-.753c-2.13-.426-3.72-1.164-4.76-2.216-1.03-1.051-1.55-2.391-1.55-4.019 0-1.402.38-2.609 1.14-3.623.76-1.013 1.84-1.794 3.22-2.343 1.39-.55 3.02-.824 4.89-.824 2.75 0 4.92.582 6.5 1.747 1.59 1.165 2.52 2.751 2.79 4.758Z"/><rect width="454" height="184" x="1222" y="564" fill="#F3F7FE" rx="24"/><path fill="#1A73E8" d="M1282.67 607.001h-7.99l-7.3-10.934c-.31-.466-.85-.7-1.38-.7-.53 0-1.07.234-1.38.717l-7.3 10.917h-7.99c-.91 0-1.66.75-1.66 1.666 0 .15.01.3.06.45l4.24 15.45a3.306 3.306 0 0 0 3.2 2.434h21.66c1.54 0 2.82-1.034 3.22-2.434l4.23-15.45.05-.45a1.67 1.67 0 0 0-1.66-1.666Zm-16.67-7 4.67 7h-9.34l4.67-7Zm10.83 23.666-21.65.017-3.66-13.35h28.98l-3.67 13.333Zm-10.83-10c-1.83 0-3.33 1.5-3.33 3.334 0 1.833 1.5 3.333 3.33 3.333s3.33-1.5 3.33-3.333c0-1.834-1.5-3.334-3.33-3.334ZM1316.96 592.008v-2.442h5v8.907h-5c-.21-1.433-.68-2.507-1.41-3.223-.71-.729-1.64-1.094-2.79-1.094-.81 0-1.5.228-2.07.684-.57.456-.86 1.028-.86 1.719 0 .612.18 1.139.55 1.582.36.442.83.82 1.41 1.132.57.3 1.43.704 2.57 1.211l1.19.508c2.6 1.12 4.55 2.435 5.86 3.946 1.33 1.51 2 3.398 2 5.664 0 2.695-.78 4.83-2.33 6.406-1.55 1.562-3.63 2.344-6.25 2.344-2.55 0-4.54-.957-5.95-2.872V619h-5v-10h5c.1 1.732.54 3.053 1.32 3.965.8.898 1.87 1.347 3.21 1.347.89 0 1.65-.305 2.26-.917.63-.612.94-1.355.94-2.227 0-.885-.36-1.693-1.07-2.422-.71-.742-1.91-1.484-3.62-2.226-2.9-1.277-5.01-2.65-6.33-4.122-1.3-1.471-1.95-3.164-1.95-5.078 0-1.497.35-2.864 1.04-4.101a7.561 7.561 0 0 1 2.85-2.91 7.725 7.725 0 0 1 3.98-1.075c1.15 0 2.19.235 3.13.704a6.02 6.02 0 0 1 2.32 2.07Zm24.61 5.996c2.08 0 3.65.631 4.69 1.894 1.05 1.263 1.58 3.099 1.58 5.508v8.867h3.05V619h-9.61v-13.281c0-.847-.17-1.452-.49-1.817-.31-.364-.84-.547-1.58-.547-1.02 0-2.16.417-3.44 1.25v9.668h2.87V619h-12.71v-4.727h3.32v-20h-3.32v-4.707h9.84v10.586c2.11-1.432 4.04-2.148 5.8-2.148Zm32.66 10.723c0 2.044-.49 3.886-1.45 5.527a10.32 10.32 0 0 1-3.9 3.848c-1.65.924-3.45 1.386-5.42 1.386-2.08 0-3.94-.462-5.58-1.386a9.984 9.984 0 0 1-3.85-3.848c-.91-1.641-1.37-3.483-1.37-5.527 0-2.032.47-3.861 1.41-5.489a10.185 10.185 0 0 1 3.91-3.828c1.65-.937 3.48-1.406 5.48-1.406 2.05 0 3.89.469 5.53 1.406 1.64.925 2.93 2.201 3.85 3.828.92 1.628 1.39 3.457 1.39 5.489Zm-10.8 5.664c1.27 0 2.27-.495 2.98-1.485.73-1.002 1.1-2.435 1.1-4.297 0-1.744-.37-3.105-1.1-4.082-.71-.989-1.72-1.484-3.02-1.484-1.32 0-2.31.488-2.99 1.465-.68.963-1.02 2.422-1.02 4.375 0 1.653.37 2.988 1.1 4.004.74 1.002 1.72 1.504 2.95 1.504Zm36.97-5.43c0 2.005-.36 3.809-1.08 5.41-.71 1.589-1.75 2.839-3.1 3.75-1.34.912-2.89 1.367-4.65 1.367-2.16 0-4.16-.853-6-2.558v6.582h4.07v4.726h-14.07v-4.726h3.48v-20.235h-2.93v-4.804h9.45v2.558c1.81-1.888 3.84-2.832 6.08-2.832 1.81 0 3.37.475 4.69 1.426 1.32.937 2.33 2.22 3.02 3.848.69 1.627 1.04 3.457 1.04 5.488Zm-10.72 5.351c1.28 0 2.27-.475 2.96-1.425.69-.964 1.04-2.325 1.04-4.082 0-1.68-.35-2.989-1.06-3.926-.7-.938-1.71-1.406-3.02-1.406-1.25 0-2.25.488-3.01 1.465-.74.976-1.11 2.291-1.11 3.945 0 1.549.38 2.845 1.15 3.887.78 1.028 1.8 1.542 3.05 1.542Zm36.89-5.351c0 2.005-.36 3.809-1.07 5.41-.72 1.589-1.76 2.839-3.11 3.75-1.34.912-2.89 1.367-4.65 1.367-2.16 0-4.16-.853-5.99-2.558v6.582h4.06v4.726h-14.06v-4.726h3.47v-20.235h-2.93v-4.804h9.46v2.558c1.81-1.888 3.83-2.832 6.07-2.832 1.81 0 3.37.475 4.69 1.426 1.33.937 2.34 2.22 3.03 3.848.69 1.627 1.03 3.457 1.03 5.488Zm-10.72 5.351c1.29 0 2.28-.475 2.97-1.425.69-.964 1.03-2.325 1.03-4.082 0-1.68-.35-2.989-1.05-3.926-.71-.938-1.72-1.406-3.03-1.406-1.25 0-2.25.488-3.01 1.465-.74.976-1.11 2.291-1.11 3.945 0 1.549.38 2.845 1.15 3.887.78 1.028 1.8 1.542 3.05 1.542Zm22.87-21.679c0 1.041-.36 1.907-1.08 2.597a3.492 3.492 0 0 1-2.52 1.016 3.51 3.51 0 0 1-2.55-1.055c-.71-.716-1.06-1.569-1.06-2.558 0-.977.35-1.817 1.06-2.52.71-.716 1.57-1.074 2.55-1.074.98 0 1.82.358 2.52 1.074.72.703 1.08 1.543 1.08 2.52Zm2.64 21.64V619h-12.68v-4.727h3.12v-10.996h-3.12v-4.804h9.63v15.8h3.05Zm24.31-8.359v8.359h3.09V619h-9.65v-12.559c0-.963-.15-1.66-.45-2.089-.29-.443-.77-.664-1.46-.664-1.25 0-2.51.449-3.77 1.347v9.238h3.2V619h-12.83v-4.727h3.12v-10.996h-3.12v-4.804h9.63v1.933c1.95-1.471 3.95-2.207 6.01-2.207 2.05 0 3.6.651 4.65 1.953 1.05 1.289 1.58 3.21 1.58 5.762Zm19.73-4.922v-2.519h9.9v4.804h-3.4v15.332c0 3.217-.88 5.671-2.63 7.364-1.76 1.692-4.47 2.539-8.13 2.539-4.05 0-7.07-.742-9.06-2.227l3.18-4.316c1.68 1.028 3.34 1.543 4.96 1.543 1.37 0 2.42-.209 3.17-.625.75-.404 1.27-1.035 1.56-1.895.3-.846.45-1.992.45-3.437v-1.114c-2.16 1.914-4.26 2.871-6.29 2.871-1.68 0-3.17-.442-4.47-1.328-1.29-.898-2.29-2.148-2.99-3.75-.7-1.601-1.06-3.437-1.06-5.507 0-2.032.37-3.848 1.12-5.45.75-1.601 1.81-2.845 3.18-3.73 1.37-.899 2.89-1.348 4.57-1.348 2.44 0 4.42.931 5.94 2.793ZM1481.32 614c1.19 0 2.18-.456 2.95-1.367.78-.925 1.17-2.201 1.17-3.828 0-1.654-.37-2.956-1.12-3.907-.72-.95-1.73-1.425-3-1.425-1.24 0-2.22.488-2.93 1.465-.72.976-1.08 2.252-1.08 3.828 0 1.51.36 2.76 1.08 3.75.71.989 1.69 1.484 2.93 1.484Zm42.09-15.996c1.75 0 3.31.488 4.66 1.465 1.37.963 2.42 2.259 3.15 3.886.74 1.628 1.11 3.392 1.11 5.293 0 1.914-.36 3.692-1.09 5.332-.72 1.641-1.74 2.943-3.07 3.907-1.31.95-2.84 1.425-4.57 1.425-2.16 0-4.16-.891-5.99-2.675V619h-10.08v-4.727h3.55v-20h-3.55v-4.707h10.08v11.27c1.65-1.888 3.58-2.832 5.8-2.832Zm-1.8 16.23c1.25 0 2.23-.514 2.93-1.543.72-1.041 1.07-2.421 1.07-4.14 0-1.706-.35-3.002-1.07-3.887-.7-.898-1.67-1.348-2.89-1.348-1.28 0-2.28.508-3.01 1.524-.72 1.015-1.07 2.363-1.07 4.043 0 1.575.36 2.864 1.09 3.867.74.99 1.73 1.484 2.95 1.484Zm33.14-7.558v7.597h3.32V619h-9.84v-1.602c-1.86 1.276-3.72 1.914-5.59 1.914-2.25 0-4.05-.579-5.41-1.738-1.35-1.159-2.03-2.721-2.03-4.687 0-2.084.76-3.75 2.27-5 1.52-1.263 3.54-1.895 6.05-1.895.88 0 1.65.098 2.33.293.69.182 1.48.501 2.38.957v-1.64c0-1.042-.33-1.875-.98-2.5-.65-.625-1.62-.938-2.93-.938-1.42 0-2.67.547-3.77 1.641l-5.27-.957c1.6-3.23 4.91-4.844 9.92-4.844 3.44 0 5.89.71 7.35 2.129 1.47 1.406 2.2 3.587 2.2 6.543Zm-10.64 8.554c1.17 0 2.54-.703 4.12-2.109v-1.836c-1.41-.911-2.69-1.367-3.87-1.367-.93 0-1.65.221-2.15.664-.49.443-.74 1.074-.74 1.895 0 1.835.88 2.753 2.64 2.753Zm28.65-16.035v-.722h4.67v6.015h-4.67c-.4-1.445-1.9-2.168-4.49-2.168-1.86 0-2.79.521-2.79 1.563 0 .456.24.794.74 1.015.49.222 1.22.404 2.17.547 2.67.339 4.77.827 6.31 1.465 1.53.625 2.61 1.406 3.22 2.344.61.924.92 2.051.92 3.379 0 2.161-.75 3.847-2.23 5.058-1.47 1.198-3.48 1.797-6.02 1.797-2.47 0-4.15-.495-5.04-1.484V619h-4.76v-7.07h4.76c.13.976.6 1.744 1.41 2.304.82.56 1.83.84 3.03.84 1.17 0 2.04-.13 2.6-.39.56-.274.84-.743.84-1.407 0-.455-.12-.807-.36-1.054-.23-.261-.69-.489-1.36-.684-.67-.195-1.69-.417-3.07-.664-3.07-.482-5.29-1.257-6.64-2.324-1.34-1.081-2.01-2.533-2.01-4.356 0-1.862.69-3.327 2.09-4.394 1.4-1.068 3.25-1.602 5.54-1.602 1.85 0 3.57.332 5.14.996Zm20.26 15.293V619h-12.33v-4.727h3.28v-20h-3.28v-4.707h9.85v24.922h2.48Zm.19-16.015h12.4v4.16h-2.03l-6.05 5.137 5.49 6.503h2.83V619h-6.53l-8.75-10.84 6.96-5.722h-4.32v-3.965Zm35.27 11.64h-15.31c.16 1.576.7 2.826 1.62 3.75.94.912 2.14 1.367 3.62 1.367 1.62 0 3.21-.807 4.76-2.421l5.08 1.64c-1.12 1.68-2.51 2.943-4.16 3.789-1.65.834-3.61 1.25-5.88 1.25-2.26 0-4.27-.423-6.01-1.269-1.74-.86-3.08-2.071-4.05-3.633-.95-1.563-1.42-3.398-1.42-5.508 0-2.083.49-3.971 1.48-5.664 1-1.693 2.35-3.014 4.04-3.965a11.124 11.124 0 0 1 5.55-1.445c2.16 0 4.04.501 5.65 1.504 1.6.989 2.83 2.402 3.69 4.238.87 1.823 1.32 3.945 1.34 6.367Zm-10.99-7.754c-1.17 0-2.12.339-2.83 1.016s-1.15 1.712-1.33 3.105h8.55c-.18-1.223-.68-2.213-1.5-2.968a4.048 4.048 0 0 0-2.89-1.153Zm26.33-3.886v4.804h-3.79v8.965c0 .638.12 1.12.37 1.446.25.312.71.468 1.39.468.56 0 1.23-.143 2.03-.429v4.55c-1.76.69-3.42 1.035-4.96 1.035-1.79 0-3.13-.449-4.03-1.347-.88-.912-1.33-2.194-1.33-3.848v-10.84h-2.59v-4.804h2.59v-3.184l6.53-4.687v7.871h3.79Z"/><path stroke="#D2E3FC" d="M1308 655.5h344"/><path fill="#1A73E8" d="M1275.68 687.451a.788.788 0 0 1-.38-.1c-3.2-1.65-5.97-2.35-9.28-2.35-3.3 0-6.44.783-9.29 2.35-.4.216-.9.066-1.13-.334a.84.84 0 0 1 .33-1.133c3.1-1.683 6.5-2.55 10.09-2.55 3.55 0 6.65.783 10.05 2.533.41.217.56.717.35 1.117-.15.3-.44.467-.74.467Zm-23.85 8.75a.832.832 0 0 1-.68-1.317c1.65-2.333 3.75-4.167 6.25-5.45 5.23-2.7 11.93-2.717 17.18-.017 2.5 1.284 4.6 3.1 6.25 5.417.27.367.19.9-.2 1.167a.824.824 0 0 1-1.16-.2c-1.5-2.1-3.4-3.75-5.65-4.9-4.79-2.45-10.9-2.45-15.67.016-2.27 1.167-4.17 2.834-5.67 4.934-.13.233-.38.35-.65.35Zm10.42 20.116a.768.768 0 0 1-.58-.25c-1.45-1.45-2.24-2.383-3.35-4.4-1.15-2.05-1.75-4.55-1.75-7.233 0-4.95 4.23-8.983 9.43-8.983 5.2 0 9.43 4.033 9.43 8.983a.82.82 0 0 1-.83.833.82.82 0 0 1-.83-.833c0-4.033-3.49-7.317-7.77-7.317-4.28 0-7.77 3.284-7.77 7.317 0 2.4.54 4.617 1.55 6.417 1.07 1.916 1.8 2.733 3.09 4.033.31.333.31.85 0 1.183-.19.167-.4.25-.62.25Zm11.95-3.083c-1.98 0-3.73-.5-5.17-1.483-2.48-1.684-3.96-4.417-3.96-7.317a.82.82 0 0 1 .83-.833c.47 0 .83.366.83.833 0 2.35 1.2 4.567 3.24 5.933 1.18.8 2.56 1.184 4.23 1.184.4 0 1.07-.05 1.73-.167.45-.083.89.217.97.683.08.45-.22.884-.68.967-.95.183-1.79.2-2.02.2Zm-3.35 3.433a.984.984 0 0 1-.22-.033c-2.65-.733-4.38-1.717-6.2-3.5a12.169 12.169 0 0 1-3.61-8.7c0-2.7 2.3-4.9 5.13-4.9s5.13 2.2 5.13 4.9c0 1.783 1.55 3.233 3.47 3.233 1.92 0 3.47-1.45 3.47-3.233 0-6.283-5.42-11.383-12.09-11.383-4.73 0-9.06 2.633-11.01 6.716-.65 1.35-.99 2.934-.99 4.667 0 1.3.12 3.35 1.12 6.017a.811.811 0 0 1-.48 1.066.827.827 0 0 1-1.07-.483c-.82-2.183-1.22-4.35-1.22-6.6 0-2 .39-3.817 1.14-5.4 2.21-4.65 7.13-7.667 12.51-7.667 7.59 0 13.75 5.85 13.75 13.05 0 2.7-2.3 4.9-5.13 4.9s-5.13-2.2-5.13-4.9c0-1.783-1.55-3.233-3.47-3.233-1.92 0-3.47 1.45-3.47 3.233 0 2.85 1.1 5.517 3.12 7.517 1.58 1.567 3.1 2.433 5.45 3.083.45.117.7.584.58 1.017a.807.807 0 0 1-.78.633ZM1316.96 680.008v-2.442h5v8.907h-5c-.21-1.433-.68-2.507-1.41-3.223-.71-.729-1.64-1.094-2.79-1.094-.81 0-1.5.228-2.07.684-.57.456-.86 1.028-.86 1.719 0 .612.18 1.139.55 1.582.36.442.83.82 1.41 1.132.57.3 1.43.704 2.57 1.211l1.19.508c2.6 1.12 4.55 2.435 5.86 3.946 1.33 1.51 2 3.398 2 5.664 0 2.695-.78 4.83-2.33 6.406-1.55 1.562-3.63 2.344-6.25 2.344-2.55 0-4.54-.957-5.95-2.872V707h-5v-10h5c.1 1.732.54 3.053 1.32 3.965.8.898 1.87 1.347 3.21 1.347.89 0 1.65-.305 2.26-.917.63-.612.94-1.355.94-2.227 0-.885-.36-1.693-1.07-2.422-.71-.742-1.91-1.484-3.62-2.226-2.9-1.277-5.01-2.65-6.33-4.122-1.3-1.471-1.95-3.164-1.95-5.078 0-1.497.35-2.864 1.04-4.101a7.561 7.561 0 0 1 2.85-2.91 7.725 7.725 0 0 1 3.98-1.075c1.15 0 2.19.235 3.13.704a6.02 6.02 0 0 1 2.32 2.07Zm31.37 18.105h-15.31c.15 1.576.69 2.826 1.62 3.75.93.912 2.14 1.367 3.61 1.367 1.63 0 3.22-.807 4.77-2.421l5.07 1.64c-1.12 1.68-2.5 2.943-4.16 3.789-1.65.834-3.61 1.25-5.88 1.25-2.26 0-4.27-.423-6.01-1.269-1.73-.86-3.08-2.071-4.04-3.633-.95-1.563-1.43-3.398-1.43-5.508 0-2.083.5-3.971 1.48-5.664 1.01-1.693 2.35-3.014 4.05-3.965 1.7-.963 3.55-1.445 5.54-1.445 2.17 0 4.05.501 5.65 1.504 1.6.989 2.83 2.402 3.69 4.238.87 1.823 1.32 3.945 1.35 6.367Zm-11-7.754c-1.17 0-2.11.339-2.83 1.016-.7.677-1.15 1.712-1.33 3.105h8.56c-.19-1.223-.69-2.213-1.51-2.968-.8-.769-1.77-1.153-2.89-1.153Zm30.22-2.168v-1.718h4.47v8.32h-4.63c-1.09-2.266-2.76-3.398-5-3.398-1.37 0-2.5.501-3.4 1.503-.88 1.003-1.33 2.253-1.33 3.75 0 1.654.43 3.015 1.27 4.082.86 1.055 2 1.582 3.42 1.582 1.03 0 2.01-.286 2.93-.859.93-.573 1.68-1.38 2.27-2.422l5.07 2.246c-1.11 2.11-2.46 3.672-4.04 4.688-1.57 1.015-3.7 1.523-6.37 1.523-3.46 0-6.21-.944-8.24-2.832-2.02-1.901-3.02-4.531-3.02-7.89 0-2.006.46-3.809 1.38-5.411.94-1.601 2.2-2.858 3.79-3.769 1.59-.925 3.33-1.387 5.22-1.387 2.16 0 4.23.664 6.21 1.992Zm18.65 13.731c1.12 0 2.33-.495 3.63-1.484v-9.161h-3.14v-4.804h9.67v15.8h3.35V707h-9.88v-1.719c-2.04 1.354-4.03 2.031-5.95 2.031-2 0-3.55-.553-4.65-1.66-1.11-1.106-1.66-2.63-1.66-4.57v-9.805h-3.09v-4.804h9.57v12.929c0 .964.15 1.628.45 1.993.31.351.88.527 1.7.527Zm33.16-15.684v6.153c-1.79.117-3.23.403-4.29.859-1.06.443-1.88 1.211-2.46 2.305-.58 1.093-.86 2.656-.86 4.687v2.031h4.08V707h-14.4v-4.727h3.77v-10.996h-3.57v-4.804h9.57v5.215a7.815 7.815 0 0 1 2.68-3.926c1.3-1.042 2.91-1.563 4.84-1.563.29 0 .5.013.64.039Zm12.41-5.605c0 1.041-.36 1.907-1.08 2.597a3.492 3.492 0 0 1-2.52 1.016c-.99 0-1.84-.351-2.56-1.055-.7-.716-1.05-1.569-1.05-2.558 0-.977.35-1.817 1.05-2.52.72-.716 1.57-1.074 2.56-1.074.98 0 1.82.358 2.52 1.074.72.703 1.08 1.543 1.08 2.52Zm2.63 21.64V707h-12.67v-4.727h3.12v-10.996h-3.12v-4.804h9.63v15.8h3.04Zm13.21-15.8v4.804h-3.79v8.965c0 .638.12 1.12.37 1.446.24.312.71.468 1.38.468.56 0 1.24-.143 2.04-.429v4.55c-1.76.69-3.42 1.035-4.97 1.035-1.78 0-3.12-.449-4.02-1.347-.88-.912-1.33-2.194-1.33-3.848v-10.84h-2.59v-4.804h2.59v-3.184l6.53-4.687v7.871h3.79Zm11.83 4.804 3.44 9.161 3.63-9.161h-2.67v-4.804h10.8v4.804h-2.97l-9.79 24.961h-7.17v-4.726h3.93l1.35-3.633-7.44-16.602h-2.99v-4.804h12.32v4.804h-2.44Zm40.55-4.082v-.722h4.67v6.015h-4.67c-.41-1.445-1.9-2.168-4.49-2.168-1.87 0-2.8.521-2.8 1.563 0 .456.25.794.75 1.015.49.222 1.21.404 2.16.547 2.67.339 4.78.827 6.31 1.465 1.54.625 2.61 1.406 3.22 2.344.62.924.92 2.051.92 3.379 0 2.161-.74 3.847-2.22 5.058-1.48 1.198-3.48 1.797-6.02 1.797-2.47 0-4.15-.495-5.04-1.484V707h-4.76v-7.07h4.76c.13.976.6 1.744 1.41 2.304.82.56 1.83.84 3.02.84 1.18 0 2.04-.13 2.6-.39.56-.274.84-.743.84-1.407 0-.455-.11-.807-.35-1.054-.23-.261-.69-.489-1.37-.684-.66-.195-1.68-.417-3.06-.664-3.08-.482-5.29-1.257-6.64-2.324-1.34-1.081-2.02-2.533-2.02-4.356 0-1.862.7-3.327 2.09-4.394 1.41-1.068 3.26-1.602 5.55-1.602 1.85 0 3.56.332 5.14.996Zm30.33 10.918h-15.31c.15 1.576.69 2.826 1.62 3.75.94.912 2.14 1.367 3.61 1.367 1.63 0 3.22-.807 4.77-2.421l5.08 1.64c-1.12 1.68-2.51 2.943-4.16 3.789-1.66.834-3.62 1.25-5.88 1.25-2.27 0-4.27-.423-6.02-1.269-1.73-.86-3.08-2.071-4.04-3.633-.95-1.563-1.43-3.398-1.43-5.508 0-2.083.5-3.971 1.49-5.664 1-1.693 2.35-3.014 4.04-3.965a11.097 11.097 0 0 1 5.55-1.445c2.16 0 4.04.501 5.64 1.504 1.6.989 2.83 2.402 3.69 4.238.88 1.823 1.32 3.945 1.35 6.367Zm-11-7.754c-1.17 0-2.11.339-2.83 1.016-.7.677-1.14 1.712-1.33 3.105h8.56c-.18-1.223-.68-2.213-1.51-2.968-.8-.769-1.77-1.153-2.89-1.153Zm26.33-3.886v4.804h-3.79v8.965c0 .638.13 1.12.37 1.446.25.312.71.468 1.39.468.56 0 1.24-.143 2.03-.429v4.55c-1.76.69-3.41 1.035-4.96 1.035-1.78 0-3.12-.449-4.02-1.347-.89-.912-1.33-2.194-1.33-3.848v-10.84h-2.6v-4.804h2.6v-3.184l6.52-4.687v7.871h3.79Zm15.55 0v4.804h-3.79v8.965c0 .638.12 1.12.37 1.446.25.312.71.468 1.39.468.56 0 1.23-.143 2.03-.429v4.55c-1.76.69-3.41 1.035-4.96 1.035-1.79 0-3.13-.449-4.03-1.347-.88-.912-1.32-2.194-1.32-3.848v-10.84h-2.6v-4.804h2.6v-3.184l6.52-4.687v7.871h3.79Zm12.83-5.84c0 1.041-.36 1.907-1.07 2.597-.71.678-1.55 1.016-2.52 1.016-.99 0-1.84-.351-2.56-1.055-.7-.716-1.06-1.569-1.06-2.558 0-.977.36-1.817 1.06-2.52.72-.716 1.57-1.074 2.56-1.074.97 0 1.81.358 2.52 1.074.71.703 1.07 1.543 1.07 2.52Zm2.64 21.64V707h-12.68v-4.727h3.13v-10.996h-3.13v-4.804h9.63v15.8h3.05Zm24.31-8.359v8.359h3.09V707h-9.65v-12.559c0-.963-.15-1.66-.45-2.089-.28-.443-.77-.664-1.46-.664-1.25 0-2.51.449-3.77 1.347v9.238h3.2V707h-12.83v-4.727h3.12v-10.996h-3.12v-4.804h9.63v1.933c1.95-1.471 3.96-2.207 6.01-2.207s3.6.651 4.65 1.953c1.06 1.289 1.58 3.21 1.58 5.762Zm19.73-4.922v-2.519h9.9v4.804h-3.4v15.332c0 3.217-.87 5.671-2.63 7.364-1.76 1.692-4.47 2.539-8.13 2.539-4.05 0-7.07-.742-9.06-2.227l3.18-4.316c1.68 1.028 3.34 1.543 4.97 1.543 1.36 0 2.42-.209 3.16-.625.75-.404 1.28-1.035 1.56-1.895.3-.846.45-1.992.45-3.437v-1.114c-2.16 1.914-4.26 2.871-6.29 2.871-1.68 0-3.17-.442-4.47-1.328-1.29-.898-2.29-2.148-2.99-3.75-.7-1.601-1.05-3.437-1.05-5.507 0-2.032.37-3.848 1.11-5.45.75-1.601 1.82-2.845 3.18-3.73 1.37-.899 2.89-1.348 4.57-1.348 2.44 0 4.42.931 5.94 2.793ZM1616.63 702c1.2 0 2.18-.456 2.95-1.367.78-.925 1.17-2.201 1.17-3.828 0-1.654-.37-2.956-1.11-3.907-.73-.95-1.74-1.425-3.01-1.425-1.24 0-2.21.488-2.93 1.465-.72.976-1.08 2.252-1.08 3.828 0 1.51.36 2.76 1.08 3.75.72.989 1.69 1.484 2.93 1.484Zm28.32-14.805v-.722h4.67v6.015h-4.67c-.4-1.445-1.9-2.168-4.49-2.168-1.86 0-2.8.521-2.8 1.563 0 .456.25.794.75 1.015.49.222 1.21.404 2.16.547 2.67.339 4.78.827 6.31 1.465 1.54.625 2.61 1.406 3.23 2.344.61.924.91 2.051.91 3.379 0 2.161-.74 3.847-2.22 5.058-1.47 1.198-3.48 1.797-6.02 1.797-2.47 0-4.15-.495-5.04-1.484V707h-4.76v-7.07h4.76c.13.976.6 1.744 1.41 2.304.82.56 1.83.84 3.03.84 1.17 0 2.03-.13 2.59-.39.56-.274.84-.743.84-1.407 0-.455-.11-.807-.35-1.054-.23-.261-.69-.489-1.37-.684-.66-.195-1.68-.417-3.06-.664-3.07-.482-5.29-1.257-6.64-2.324-1.34-1.081-2.01-2.533-2.01-4.356 0-1.862.69-3.327 2.09-4.394 1.4-1.068 3.25-1.602 5.54-1.602 1.85 0 3.56.332 5.14.996Z"/><path stroke="#FF6D7F" stroke-dasharray="16 16" stroke-width="2" d="M1206 380h471M1206 612h471M1206 468h471M1206 700h471"/></svg>