<svg width="1920" height="1080" viewBox="0 0 1920 1080" fill="none" xmlns="http://www.w3.org/2000/svg">
<rect x="486" y="199" width="1191" height="124" fill="#D2E3FC"/>
<rect width="1191" height="31" transform="matrix(1 0 0 -1 486 199)" fill="#FF6D7F"/>
<rect width="1191" height="30" transform="matrix(1 0 0 -1 486 353)" fill="#FF6D7F"/>
<rect x="486" y="384" width="1191" height="124" fill="#D2E3FC"/>
<mask id="path-5-inside-1_3306_18525" fill="white">
<path d="M486 384H1677V353H486V384Z"/>
</mask>
<path d="M486 384H1677V353H486V384Z" fill="#FF6D7F"/>
<path d="M1677 354H486V352H1677V354Z" fill="white" mask="url(#path-5-inside-1_3306_18525)"/>
<rect width="1191" height="30" transform="matrix(1 0 0 -1 486 538)" fill="#FF6D7F"/>
<rect x="486" y="569" width="1191" height="124" fill="#D2E3FC"/>
<mask id="path-9-inside-2_3306_18525" fill="white">
<path d="M486 569H1677V538H486V569Z"/>
</mask>
<path d="M486 569H1677V538H486V569Z" fill="#FF6D7F"/>
<path d="M1677 539H486V537H1677V539Z" fill="white" mask="url(#path-9-inside-2_3306_18525)"/>
<rect width="1191" height="30" transform="matrix(1 0 0 -1 486 723)" fill="#FF6D7F"/>
<rect x="486" y="754" width="1191" height="124" fill="#D2E3FC"/>
<mask id="path-13-inside-3_3306_18525" fill="white">
<path d="M486 754H1677V723H486V754Z"/>
</mask>
<path d="M486 754H1677V723H486V754Z" fill="#FF6D7F"/>
<path d="M1677 724H486V722H1677V724Z" fill="white" mask="url(#path-13-inside-3_3306_18525)"/>
<rect width="1191" height="30" transform="matrix(1 0 0 -1 486 908)" fill="#FF6D7F"/>
<path d="M567.314 309H555.447L507.191 234.648H506.707C506.828 236.626 506.969 238.887 507.131 241.43C507.292 243.932 507.413 246.617 507.494 249.482C507.615 252.308 507.676 255.194 507.676 258.141V309H498.109V220.48H509.916L557.99 294.59H558.414C558.333 293.177 558.232 291.179 558.111 288.596C557.99 285.972 557.869 283.167 557.748 280.18C557.667 277.152 557.627 274.347 557.627 271.764V220.48H567.314V309ZM647.176 275.699C647.176 281.148 646.469 286.012 645.057 290.291C643.644 294.57 641.605 298.182 638.941 301.129C636.277 304.076 633.048 306.336 629.254 307.91C625.5 309.444 621.242 310.211 616.479 310.211C612.038 310.211 607.962 309.444 604.248 307.91C600.575 306.336 597.386 304.076 594.682 301.129C592.018 298.182 589.939 294.57 588.445 290.291C586.992 286.012 586.266 281.148 586.266 275.699C586.266 268.434 587.497 262.258 589.959 257.172C592.421 252.046 595.933 248.15 600.494 245.486C605.096 242.782 610.565 241.43 616.902 241.43C622.957 241.43 628.245 242.782 632.766 245.486C637.327 248.191 640.859 252.106 643.361 257.232C645.904 262.318 647.176 268.474 647.176 275.699ZM596.68 275.699C596.68 281.027 597.386 285.649 598.799 289.564C600.212 293.48 602.391 296.507 605.338 298.646C608.285 300.786 612.079 301.855 616.721 301.855C621.322 301.855 625.096 300.786 628.043 298.646C631.03 296.507 633.23 293.48 634.643 289.564C636.055 285.649 636.762 281.027 636.762 275.699C636.762 270.411 636.055 265.85 634.643 262.016C633.23 258.141 631.05 255.154 628.104 253.055C625.157 250.956 621.342 249.906 616.66 249.906C609.758 249.906 604.692 252.187 601.463 256.748C598.274 261.309 596.68 267.626 596.68 275.699ZM753.98 275.699C753.98 281.148 753.274 286.012 751.861 290.291C750.449 294.57 748.41 298.182 745.746 301.129C743.082 304.076 739.853 306.336 736.059 307.91C732.305 309.444 728.046 310.211 723.283 310.211C718.843 310.211 714.766 309.444 711.053 307.91C707.38 306.336 704.191 304.076 701.486 301.129C698.822 298.182 696.743 294.57 695.25 290.291C693.797 286.012 693.07 281.148 693.07 275.699C693.07 268.434 694.301 262.258 696.764 257.172C699.226 252.046 702.738 248.15 707.299 245.486C711.9 242.782 717.37 241.43 723.707 241.43C729.762 241.43 735.049 242.782 739.57 245.486C744.132 248.191 747.663 252.106 750.166 257.232C752.709 262.318 753.98 268.474 753.98 275.699ZM703.484 275.699C703.484 281.027 704.191 285.649 705.604 289.564C707.016 293.48 709.196 296.507 712.143 298.646C715.089 300.786 718.883 301.855 723.525 301.855C728.127 301.855 731.901 300.786 734.848 298.646C737.835 296.507 740.035 293.48 741.447 289.564C742.86 285.649 743.566 281.027 743.566 275.699C743.566 270.411 742.86 265.85 741.447 262.016C740.035 258.141 737.855 255.154 734.908 253.055C731.962 250.956 728.147 249.906 723.465 249.906C716.562 249.906 711.497 252.187 708.268 256.748C705.079 261.309 703.484 267.626 703.484 275.699ZM802.781 241.43C810.652 241.43 816.606 243.367 820.643 247.242C824.679 251.077 826.697 257.253 826.697 265.77V309H816.768V266.436C816.768 260.906 815.496 256.768 812.953 254.023C810.451 251.279 806.596 249.906 801.389 249.906C794.042 249.906 788.876 251.985 785.889 256.143C782.902 260.3 781.408 266.335 781.408 274.246V309H771.357V242.641H779.471L780.984 252.207H781.529C782.942 249.866 784.738 247.908 786.918 246.334C789.098 244.719 791.54 243.508 794.244 242.701C796.949 241.854 799.794 241.43 802.781 241.43ZM872.955 241.43C878.606 241.43 883.45 242.681 887.486 245.184C891.523 247.686 894.611 251.198 896.75 255.719C898.889 260.199 899.959 265.447 899.959 271.461V277.697H854.125C854.246 285.488 856.184 291.421 859.938 295.498C863.691 299.575 868.979 301.613 875.801 301.613C879.999 301.613 883.712 301.23 886.941 300.463C890.171 299.696 893.521 298.566 896.992 297.072V305.912C893.642 307.406 890.312 308.495 887.002 309.182C883.732 309.868 879.857 310.211 875.377 310.211C868.999 310.211 863.429 308.919 858.666 306.336C853.943 303.712 850.27 299.878 847.646 294.832C845.023 289.786 843.711 283.611 843.711 276.305C843.711 269.16 844.902 262.984 847.283 257.777C849.705 252.53 853.096 248.493 857.455 245.668C861.855 242.842 867.021 241.43 872.955 241.43ZM872.834 249.664C867.465 249.664 863.187 251.42 859.998 254.932C856.809 258.443 854.912 263.348 854.307 269.645H889.424C889.383 265.689 888.758 262.217 887.547 259.23C886.376 256.203 884.58 253.862 882.158 252.207C879.736 250.512 876.628 249.664 872.834 249.664ZM992.172 290.836C992.172 295.074 991.102 298.646 988.963 301.553C986.864 304.419 983.837 306.578 979.881 308.031C975.965 309.484 971.283 310.211 965.834 310.211C961.192 310.211 957.176 309.848 953.785 309.121C950.395 308.395 947.428 307.365 944.885 306.033V296.77C947.589 298.102 950.818 299.312 954.572 300.402C958.326 301.492 962.161 302.037 966.076 302.037C971.808 302.037 975.965 301.109 978.549 299.252C981.132 297.395 982.424 294.872 982.424 291.684C982.424 289.867 981.899 288.273 980.85 286.9C979.84 285.488 978.125 284.135 975.703 282.844C973.281 281.512 969.931 280.059 965.652 278.484C961.414 276.87 957.741 275.275 954.633 273.701C951.565 272.087 949.184 270.129 947.488 267.828C945.833 265.527 945.006 262.54 945.006 258.867C945.006 253.257 947.266 248.958 951.787 245.971C956.348 242.943 962.322 241.43 969.709 241.43C973.705 241.43 977.439 241.833 980.91 242.641C984.422 243.408 987.691 244.457 990.719 245.789L987.328 253.842C984.583 252.671 981.657 251.682 978.549 250.875C975.441 250.068 972.272 249.664 969.043 249.664C964.401 249.664 960.829 250.431 958.326 251.965C955.864 253.499 954.633 255.598 954.633 258.262C954.633 260.32 955.198 262.016 956.328 263.348C957.499 264.68 959.355 265.931 961.898 267.102C964.441 268.272 967.792 269.645 971.949 271.219C976.107 272.753 979.699 274.347 982.727 276.002C985.754 277.617 988.075 279.594 989.689 281.936C991.344 284.236 992.172 287.203 992.172 290.836ZM1018.39 214.789V242.943C1018.39 244.558 1018.35 246.193 1018.27 247.848C1018.19 249.462 1018.05 250.956 1017.84 252.328H1018.51C1019.88 249.987 1021.62 248.029 1023.72 246.455C1025.86 244.84 1028.28 243.63 1030.98 242.822C1033.69 241.975 1036.55 241.551 1039.58 241.551C1044.91 241.551 1049.35 242.398 1052.9 244.094C1056.49 245.789 1059.18 248.413 1060.95 251.965C1062.77 255.517 1063.68 260.118 1063.68 265.77V309H1053.75V266.436C1053.75 260.906 1052.48 256.768 1049.93 254.023C1047.43 251.279 1043.58 249.906 1038.37 249.906C1033.44 249.906 1029.51 250.855 1026.56 252.752C1023.66 254.609 1021.56 257.354 1020.27 260.986C1019.01 264.619 1018.39 269.059 1018.39 274.307V309H1008.34V214.789H1018.39ZM1109.21 241.551C1117.12 241.551 1122.99 243.327 1126.83 246.879C1130.66 250.431 1132.58 256.102 1132.58 263.893V309H1125.25L1123.32 299.191H1122.83C1120.98 301.613 1119.04 303.652 1117.02 305.307C1115 306.921 1112.66 308.152 1110 309C1107.37 309.807 1104.14 310.211 1100.31 310.211C1096.27 310.211 1092.68 309.505 1089.53 308.092C1086.42 306.679 1083.96 304.54 1082.14 301.674C1080.37 298.808 1079.48 295.175 1079.48 290.775C1079.48 284.156 1082.1 279.07 1087.35 275.518C1092.6 271.965 1100.59 270.028 1111.33 269.705L1122.77 269.221V265.164C1122.77 259.432 1121.54 255.416 1119.08 253.115C1116.62 250.814 1113.14 249.664 1108.66 249.664C1105.19 249.664 1101.88 250.169 1098.73 251.178C1095.59 252.187 1092.6 253.378 1089.77 254.75L1086.69 247.121C1089.67 245.587 1093.1 244.275 1096.98 243.186C1100.85 242.096 1104.93 241.551 1109.21 241.551ZM1122.65 276.305L1112.54 276.729C1104.26 277.051 1098.43 278.404 1095.04 280.785C1091.65 283.167 1089.96 286.537 1089.96 290.896C1089.96 294.691 1091.11 297.496 1093.41 299.312C1095.71 301.129 1098.75 302.037 1102.55 302.037C1108.44 302.037 1113.27 300.402 1117.02 297.133C1120.77 293.863 1122.65 288.959 1122.65 282.42V276.305ZM1163.4 309H1153.29V214.789H1163.4V309ZM1194.76 309H1184.65V214.789H1194.76V309ZM1258.28 214.789V238.342C1258.28 241.046 1258.19 243.67 1258.03 246.213C1257.91 248.756 1257.81 250.734 1257.73 252.146H1258.28C1260.09 249.16 1262.72 246.637 1266.15 244.578C1269.58 242.52 1273.96 241.49 1279.29 241.49C1287.6 241.49 1294.22 244.376 1299.14 250.148C1304.11 255.88 1306.59 264.417 1306.59 275.76C1306.59 283.227 1305.46 289.524 1303.2 294.65C1300.94 299.777 1297.75 303.652 1293.63 306.275C1289.52 308.899 1284.65 310.211 1279.04 310.211C1273.8 310.211 1269.48 309.242 1266.09 307.305C1262.74 305.327 1260.15 302.925 1258.34 300.1H1257.55L1255.49 309H1248.22V214.789H1258.28ZM1277.65 249.906C1272.85 249.906 1269.03 250.855 1266.21 252.752C1263.38 254.609 1261.34 257.434 1260.09 261.229C1258.88 264.982 1258.28 269.745 1258.28 275.518V276.062C1258.28 284.418 1259.67 290.816 1262.45 295.256C1265.24 299.656 1270.3 301.855 1277.65 301.855C1283.83 301.855 1288.45 299.595 1291.52 295.074C1294.62 290.553 1296.18 284.095 1296.18 275.699C1296.18 267.142 1294.64 260.704 1291.58 256.385C1288.55 252.066 1283.91 249.906 1277.65 249.906ZM1349.7 241.43C1355.35 241.43 1360.2 242.681 1364.23 245.184C1368.27 247.686 1371.36 251.198 1373.5 255.719C1375.64 260.199 1376.71 265.447 1376.71 271.461V277.697H1330.87C1330.99 285.488 1332.93 291.421 1336.68 295.498C1340.44 299.575 1345.73 301.613 1352.55 301.613C1356.74 301.613 1360.46 301.23 1363.69 300.463C1366.92 299.696 1370.27 298.566 1373.74 297.072V305.912C1370.39 307.406 1367.06 308.495 1363.75 309.182C1360.48 309.868 1356.6 310.211 1352.12 310.211C1345.75 310.211 1340.18 308.919 1335.41 306.336C1330.69 303.712 1327.02 299.878 1324.39 294.832C1321.77 289.786 1320.46 283.611 1320.46 276.305C1320.46 269.16 1321.65 262.984 1324.03 257.777C1326.45 252.53 1329.84 248.493 1334.2 245.668C1338.6 242.842 1343.77 241.43 1349.7 241.43ZM1349.58 249.664C1344.21 249.664 1339.93 251.42 1336.74 254.932C1333.56 258.443 1331.66 263.348 1331.05 269.645H1366.17C1366.13 265.689 1365.5 262.217 1364.29 259.23C1363.12 256.203 1361.33 253.862 1358.9 252.207C1356.48 250.512 1353.37 249.664 1349.58 249.664ZM539.523 476.836C539.523 481.074 538.454 484.646 536.314 487.553C534.215 490.419 531.188 492.578 527.232 494.031C523.317 495.484 518.635 496.211 513.186 496.211C508.544 496.211 504.527 495.848 501.137 495.121C497.746 494.395 494.779 493.365 492.236 492.033V482.77C494.941 484.102 498.17 485.312 501.924 486.402C505.678 487.492 509.512 488.037 513.428 488.037C519.16 488.037 523.317 487.109 525.9 485.252C528.484 483.395 529.775 480.872 529.775 477.684C529.775 475.867 529.251 474.273 528.201 472.9C527.192 471.488 525.477 470.135 523.055 468.844C520.633 467.512 517.283 466.059 513.004 464.484C508.766 462.87 505.092 461.275 501.984 459.701C498.917 458.087 496.535 456.129 494.84 453.828C493.185 451.527 492.357 448.54 492.357 444.867C492.357 439.257 494.618 434.958 499.139 431.971C503.7 428.943 509.674 427.43 517.061 427.43C521.057 427.43 524.79 427.833 528.262 428.641C531.773 429.408 535.043 430.457 538.07 431.789L534.68 439.842C531.935 438.671 529.008 437.682 525.9 436.875C522.792 436.068 519.624 435.664 516.395 435.664C511.753 435.664 508.18 436.431 505.678 437.965C503.215 439.499 501.984 441.598 501.984 444.262C501.984 446.32 502.549 448.016 503.68 449.348C504.85 450.68 506.707 451.931 509.25 453.102C511.793 454.272 515.143 455.645 519.301 457.219C523.458 458.753 527.051 460.347 530.078 462.002C533.105 463.617 535.426 465.594 537.041 467.936C538.696 470.236 539.523 473.203 539.523 476.836ZM610.484 428.641V495H602.25L600.797 485.676H600.252C598.88 487.977 597.104 489.914 594.924 491.488C592.744 493.062 590.282 494.233 587.537 495C584.833 495.807 581.947 496.211 578.879 496.211C573.632 496.211 569.232 495.363 565.68 493.668C562.128 491.973 559.443 489.349 557.627 485.797C555.851 482.245 554.963 477.684 554.963 472.113V428.641H565.135V471.387C565.135 476.917 566.386 481.054 568.889 483.799C571.391 486.503 575.206 487.855 580.332 487.855C585.257 487.855 589.172 486.927 592.078 485.07C595.025 483.214 597.144 480.489 598.436 476.896C599.727 473.264 600.373 468.824 600.373 463.576V428.641H610.484ZM641.787 400.789V424.342C641.787 427.046 641.706 429.67 641.545 432.213C641.424 434.756 641.323 436.734 641.242 438.146H641.787C643.604 435.16 646.227 432.637 649.658 430.578C653.089 428.52 657.469 427.49 662.797 427.49C671.112 427.49 677.732 430.376 682.656 436.148C687.621 441.88 690.104 450.417 690.104 461.76C690.104 469.227 688.973 475.524 686.713 480.65C684.452 485.777 681.264 489.652 677.146 492.275C673.029 494.899 668.165 496.211 662.555 496.211C657.307 496.211 652.988 495.242 649.598 493.305C646.247 491.327 643.664 488.925 641.848 486.1H641.061L639.002 495H631.736V400.789H641.787ZM661.162 435.906C656.359 435.906 652.544 436.855 649.719 438.752C646.893 440.609 644.855 443.434 643.604 447.229C642.393 450.982 641.787 455.745 641.787 461.518V462.062C641.787 470.418 643.18 476.816 645.965 481.256C648.75 485.656 653.816 487.855 661.162 487.855C667.338 487.855 671.96 485.595 675.027 481.074C678.135 476.553 679.689 470.095 679.689 461.699C679.689 453.142 678.156 446.704 675.088 442.385C672.061 438.066 667.419 435.906 661.162 435.906ZM699.67 524.789C697.611 524.789 695.815 524.628 694.281 524.305C692.747 524.022 691.415 523.679 690.285 523.275V515.102C691.536 515.505 692.808 515.808 694.1 516.01C695.391 516.252 696.844 516.373 698.459 516.373C701.204 516.373 703.424 515.606 705.119 514.072C706.814 512.538 707.662 509.753 707.662 505.717V428.641H717.713V505.475C717.713 509.511 717.067 512.962 715.775 515.828C714.484 518.734 712.506 520.954 709.842 522.488C707.178 524.022 703.787 524.789 699.67 524.789ZM706.754 410.416C706.754 408.156 707.319 406.501 708.449 405.451C709.62 404.361 711.073 403.816 712.809 403.816C714.464 403.816 715.876 404.361 717.047 405.451C718.258 406.501 718.863 408.156 718.863 410.416C718.863 412.636 718.258 414.291 717.047 415.381C715.876 416.471 714.464 417.016 712.809 417.016C711.073 417.016 709.62 416.471 708.449 415.381C707.319 414.291 706.754 412.636 706.754 410.416ZM764.576 427.43C770.227 427.43 775.071 428.681 779.107 431.184C783.144 433.686 786.232 437.198 788.371 441.719C790.51 446.199 791.58 451.447 791.58 457.461V463.697H745.746C745.867 471.488 747.805 477.421 751.559 481.498C755.312 485.575 760.6 487.613 767.422 487.613C771.62 487.613 775.333 487.23 778.562 486.463C781.792 485.696 785.142 484.566 788.613 483.072V491.912C785.263 493.406 781.933 494.495 778.623 495.182C775.354 495.868 771.479 496.211 766.998 496.211C760.62 496.211 755.05 494.919 750.287 492.336C745.564 489.712 741.891 485.878 739.268 480.832C736.644 475.786 735.332 469.611 735.332 462.305C735.332 455.16 736.523 448.984 738.904 443.777C741.326 438.53 744.717 434.493 749.076 431.668C753.476 428.842 758.643 427.43 764.576 427.43ZM764.455 435.664C759.087 435.664 754.808 437.42 751.619 440.932C748.43 444.443 746.533 449.348 745.928 455.645H781.045C781.005 451.689 780.379 448.217 779.168 445.23C777.997 442.203 776.201 439.862 773.779 438.207C771.357 436.512 768.249 435.664 764.455 435.664ZM835.234 496.211C829.26 496.211 823.993 494.98 819.432 492.518C814.87 490.055 811.318 486.301 808.775 481.256C806.232 476.21 804.961 469.853 804.961 462.184C804.961 454.151 806.293 447.592 808.957 442.506C811.661 437.38 815.375 433.585 820.098 431.123C824.82 428.661 830.189 427.43 836.203 427.43C839.513 427.43 842.702 427.773 845.77 428.459C848.878 429.105 851.421 429.932 853.398 430.941L850.371 439.357C848.353 438.55 846.012 437.824 843.348 437.178C840.724 436.532 838.262 436.209 835.961 436.209C831.359 436.209 827.525 437.198 824.457 439.176C821.43 441.154 819.149 444.06 817.615 447.895C816.122 451.729 815.375 456.452 815.375 462.062C815.375 467.431 816.102 472.012 817.555 475.807C819.048 479.601 821.248 482.507 824.154 484.525C827.101 486.503 830.774 487.492 835.174 487.492C838.686 487.492 841.854 487.129 844.68 486.402C847.505 485.635 850.068 484.747 852.369 483.738V492.699C850.149 493.829 847.667 494.697 844.922 495.303C842.217 495.908 838.988 496.211 835.234 496.211ZM889.545 487.977C891.2 487.977 892.895 487.835 894.631 487.553C896.367 487.27 897.779 486.927 898.869 486.523V494.334C897.699 494.859 896.064 495.303 893.965 495.666C891.906 496.029 889.888 496.211 887.91 496.211C884.398 496.211 881.21 495.605 878.344 494.395C875.478 493.143 873.177 491.044 871.441 488.098C869.746 485.151 868.898 481.074 868.898 475.867V436.512H859.453V431.607L868.959 427.672L872.955 413.262H879.01V428.641H898.445V436.512H879.01V475.564C879.01 479.722 879.958 482.83 881.855 484.889C883.793 486.947 886.356 487.977 889.545 487.977ZM937.861 427.43C943.512 427.43 948.356 428.681 952.393 431.184C956.429 433.686 959.517 437.198 961.656 441.719C963.796 446.199 964.865 451.447 964.865 457.461V463.697H919.031C919.152 471.488 921.09 477.421 924.844 481.498C928.598 485.575 933.885 487.613 940.707 487.613C944.905 487.613 948.618 487.23 951.848 486.463C955.077 485.696 958.427 484.566 961.898 483.072V491.912C958.548 493.406 955.218 494.495 951.908 495.182C948.639 495.868 944.764 496.211 940.283 496.211C933.906 496.211 928.335 494.919 923.572 492.336C918.85 489.712 915.176 485.878 912.553 480.832C909.929 475.786 908.617 469.611 908.617 462.305C908.617 455.16 909.808 448.984 912.189 443.777C914.611 438.53 918.002 434.493 922.361 431.668C926.761 428.842 931.928 427.43 937.861 427.43ZM937.74 435.664C932.372 435.664 928.093 437.42 924.904 440.932C921.715 444.443 919.818 449.348 919.213 455.645H954.33C954.29 451.689 953.664 448.217 952.453 445.23C951.283 442.203 949.486 439.862 947.064 438.207C944.643 436.512 941.535 435.664 937.74 435.664ZM1005.55 496.211C997.157 496.211 990.497 493.345 985.572 487.613C980.688 481.882 978.246 473.365 978.246 462.062C978.246 450.639 980.749 442.021 985.754 436.209C990.759 430.356 997.419 427.43 1005.73 427.43C1009.25 427.43 1012.31 427.894 1014.94 428.822C1017.56 429.751 1019.82 431.002 1021.72 432.576C1023.62 434.11 1025.21 435.866 1026.5 437.844H1027.23C1027.07 436.592 1026.91 434.877 1026.74 432.697C1026.58 430.518 1026.5 428.742 1026.5 427.369V400.789H1036.55V495H1028.44L1026.93 485.555H1026.5C1025.25 487.533 1023.66 489.329 1021.72 490.943C1019.82 492.558 1017.54 493.85 1014.88 494.818C1012.25 495.747 1009.15 496.211 1005.55 496.211ZM1007.13 487.855C1014.23 487.855 1019.26 485.837 1022.2 481.801C1025.15 477.764 1026.62 471.77 1026.62 463.818V462.002C1026.62 453.566 1025.21 447.087 1022.38 442.566C1019.6 438.046 1014.51 435.785 1007.13 435.785C1000.95 435.785 996.329 438.167 993.262 442.93C990.194 447.652 988.66 454.111 988.66 462.305C988.66 470.458 990.174 476.755 993.201 481.195C996.269 485.635 1000.91 487.855 1007.13 487.855ZM1111.51 487.977C1113.16 487.977 1114.86 487.835 1116.6 487.553C1118.33 487.27 1119.74 486.927 1120.83 486.523V494.334C1119.66 494.859 1118.03 495.303 1115.93 495.666C1113.87 496.029 1111.85 496.211 1109.88 496.211C1106.36 496.211 1103.17 495.605 1100.31 494.395C1097.44 493.143 1095.14 491.044 1093.41 488.098C1091.71 485.151 1090.86 481.074 1090.86 475.867V436.512H1081.42V431.607L1090.92 427.672L1094.92 413.262H1100.97V428.641H1120.41V436.512H1100.97V475.564C1100.97 479.722 1101.92 482.83 1103.82 484.889C1105.76 486.947 1108.32 487.977 1111.51 487.977ZM1191.49 461.699C1191.49 467.148 1190.79 472.012 1189.37 476.291C1187.96 480.57 1185.92 484.182 1183.26 487.129C1180.59 490.076 1177.36 492.336 1173.57 493.91C1169.82 495.444 1165.56 496.211 1160.79 496.211C1156.35 496.211 1152.28 495.444 1148.56 493.91C1144.89 492.336 1141.7 490.076 1139 487.129C1136.33 484.182 1134.26 480.57 1132.76 476.291C1131.31 472.012 1130.58 467.148 1130.58 461.699C1130.58 454.434 1131.81 448.258 1134.28 443.172C1136.74 438.046 1140.25 434.15 1144.81 431.486C1149.41 428.782 1154.88 427.43 1161.22 427.43C1167.27 427.43 1172.56 428.782 1177.08 431.486C1181.64 434.191 1185.18 438.106 1187.68 443.232C1190.22 448.318 1191.49 454.474 1191.49 461.699ZM1141 461.699C1141 467.027 1141.7 471.649 1143.12 475.564C1144.53 479.48 1146.71 482.507 1149.65 484.646C1152.6 486.786 1156.4 487.855 1161.04 487.855C1165.64 487.855 1169.41 486.786 1172.36 484.646C1175.35 482.507 1177.55 479.48 1178.96 475.564C1180.37 471.649 1181.08 467.027 1181.08 461.699C1181.08 456.411 1180.37 451.85 1178.96 448.016C1177.55 444.141 1175.37 441.154 1172.42 439.055C1169.47 436.956 1165.66 435.906 1160.98 435.906C1154.07 435.906 1149.01 438.187 1145.78 442.748C1142.59 447.309 1141 453.626 1141 461.699ZM521.42 613.551C529.331 613.551 535.204 615.327 539.039 618.879C542.874 622.431 544.791 628.102 544.791 635.893V681H537.465L535.527 671.191H535.043C533.186 673.613 531.249 675.652 529.23 677.307C527.212 678.921 524.871 680.152 522.207 681C519.583 681.807 516.354 682.211 512.52 682.211C508.483 682.211 504.891 681.505 501.742 680.092C498.634 678.679 496.172 676.54 494.355 673.674C492.579 670.808 491.691 667.175 491.691 662.775C491.691 656.156 494.315 651.07 499.562 647.518C504.81 643.965 512.802 642.028 523.539 641.705L534.982 641.221V637.164C534.982 631.432 533.751 627.416 531.289 625.115C528.827 622.814 525.355 621.664 520.875 621.664C517.404 621.664 514.094 622.169 510.945 623.178C507.797 624.187 504.81 625.378 501.984 626.75L498.896 619.121C501.883 617.587 505.314 616.275 509.189 615.186C513.064 614.096 517.141 613.551 521.42 613.551ZM534.861 648.305L524.75 648.729C516.475 649.051 510.643 650.404 507.252 652.785C503.861 655.167 502.166 658.537 502.166 662.896C502.166 666.691 503.316 669.496 505.617 671.312C507.918 673.129 510.965 674.037 514.76 674.037C520.653 674.037 525.477 672.402 529.23 669.133C532.984 665.863 534.861 660.959 534.861 654.42V648.305ZM595.65 613.43C596.982 613.43 598.375 613.51 599.828 613.672C601.281 613.793 602.573 613.975 603.703 614.217L602.432 623.541C601.342 623.258 600.131 623.036 598.799 622.875C597.467 622.714 596.215 622.633 595.045 622.633C592.381 622.633 589.858 623.178 587.477 624.268C585.135 625.317 583.077 626.851 581.301 628.869C579.525 630.847 578.132 633.249 577.123 636.074C576.114 638.859 575.609 641.967 575.609 645.398V681H565.498V614.641H573.854L574.943 626.871H575.367C576.74 624.409 578.395 622.169 580.332 620.15C582.27 618.092 584.51 616.457 587.053 615.246C589.636 614.035 592.502 613.43 595.65 613.43ZM626.287 586.789V610.342C626.287 613.046 626.206 615.67 626.045 618.213C625.924 620.756 625.823 622.734 625.742 624.146H626.287C628.104 621.16 630.727 618.637 634.158 616.578C637.589 614.52 641.969 613.49 647.297 613.49C655.612 613.49 662.232 616.376 667.156 622.148C672.121 627.88 674.604 636.417 674.604 647.76C674.604 655.227 673.473 661.524 671.213 666.65C668.952 671.777 665.764 675.652 661.646 678.275C657.529 680.899 652.665 682.211 647.055 682.211C641.807 682.211 637.488 681.242 634.098 679.305C630.747 677.327 628.164 674.925 626.348 672.1H625.561L623.502 681H616.236V586.789H626.287ZM645.662 621.906C640.859 621.906 637.044 622.855 634.219 624.752C631.393 626.609 629.355 629.434 628.104 633.229C626.893 636.982 626.287 641.745 626.287 647.518V648.062C626.287 656.418 627.68 662.816 630.465 667.256C633.25 671.656 638.316 673.855 645.662 673.855C651.838 673.855 656.46 671.595 659.527 667.074C662.635 662.553 664.189 656.095 664.189 647.699C664.189 639.142 662.656 632.704 659.588 628.385C656.561 624.066 651.919 621.906 645.662 621.906ZM702.213 614.641V681H692.162V614.641H702.213ZM697.309 589.816C698.964 589.816 700.376 590.361 701.547 591.451C702.758 592.501 703.363 594.156 703.363 596.416C703.363 598.636 702.758 600.291 701.547 601.381C700.376 602.471 698.964 603.016 697.309 603.016C695.573 603.016 694.12 602.471 692.949 601.381C691.819 600.291 691.254 598.636 691.254 596.416C691.254 594.156 691.819 592.501 692.949 591.451C694.12 590.361 695.573 589.816 697.309 589.816ZM744.959 673.977C746.614 673.977 748.309 673.835 750.045 673.553C751.781 673.27 753.193 672.927 754.283 672.523V680.334C753.113 680.859 751.478 681.303 749.379 681.666C747.32 682.029 745.302 682.211 743.324 682.211C739.812 682.211 736.624 681.605 733.758 680.395C730.892 679.143 728.591 677.044 726.855 674.098C725.16 671.151 724.312 667.074 724.312 661.867V622.512H714.867V617.607L724.373 613.672L728.369 599.262H734.424V614.641H753.859V622.512H734.424V661.564C734.424 665.722 735.372 668.83 737.27 670.889C739.207 672.947 741.77 673.977 744.959 673.977ZM797.877 613.43C799.209 613.43 800.602 613.51 802.055 613.672C803.508 613.793 804.799 613.975 805.93 614.217L804.658 623.541C803.568 623.258 802.357 623.036 801.025 622.875C799.693 622.714 798.442 622.633 797.271 622.633C794.607 622.633 792.085 623.178 789.703 624.268C787.362 625.317 785.303 626.851 783.527 628.869C781.751 630.847 780.359 633.249 779.35 636.074C778.34 638.859 777.836 641.967 777.836 645.398V681H767.725V614.641H776.08L777.17 626.871H777.594C778.966 624.409 780.621 622.169 782.559 620.15C784.496 618.092 786.736 616.457 789.279 615.246C791.863 614.035 794.729 613.43 797.877 613.43ZM843.287 613.551C851.199 613.551 857.072 615.327 860.906 618.879C864.741 622.431 866.658 628.102 866.658 635.893V681H859.332L857.395 671.191H856.91C855.053 673.613 853.116 675.652 851.098 677.307C849.079 678.921 846.738 680.152 844.074 681C841.451 681.807 838.221 682.211 834.387 682.211C830.35 682.211 826.758 681.505 823.609 680.092C820.501 678.679 818.039 676.54 816.223 673.674C814.447 670.808 813.559 667.175 813.559 662.775C813.559 656.156 816.182 651.07 821.43 647.518C826.677 643.965 834.669 642.028 845.406 641.705L856.85 641.221V637.164C856.85 631.432 855.618 627.416 853.156 625.115C850.694 622.814 847.223 621.664 842.742 621.664C839.271 621.664 835.961 622.169 832.812 623.178C829.664 624.187 826.677 625.378 823.852 626.75L820.764 619.121C823.751 617.587 827.182 616.275 831.057 615.186C834.932 614.096 839.008 613.551 843.287 613.551ZM856.729 648.305L846.617 648.729C838.342 649.051 832.51 650.404 829.119 652.785C825.729 655.167 824.033 658.537 824.033 662.896C824.033 666.691 825.184 669.496 827.484 671.312C829.785 673.129 832.833 674.037 836.627 674.037C842.52 674.037 847.344 672.402 851.098 669.133C854.852 665.863 856.729 660.959 856.729 654.42V648.305ZM917.518 613.43C918.85 613.43 920.242 613.51 921.695 613.672C923.148 613.793 924.44 613.975 925.57 614.217L924.299 623.541C923.209 623.258 921.998 623.036 920.666 622.875C919.334 622.714 918.083 622.633 916.912 622.633C914.248 622.633 911.725 623.178 909.344 624.268C907.003 625.317 904.944 626.851 903.168 628.869C901.392 630.847 899.999 633.249 898.99 636.074C897.981 638.859 897.477 641.967 897.477 645.398V681H887.365V614.641H895.721L896.811 626.871H897.234C898.607 624.409 900.262 622.169 902.199 620.15C904.137 618.092 906.377 616.457 908.92 615.246C911.503 614.035 914.369 613.43 917.518 613.43ZM927.629 614.641H938.406L953.059 653.148C953.906 655.409 954.693 657.589 955.42 659.688C956.146 661.746 956.792 663.724 957.357 665.621C957.923 667.518 958.367 669.355 958.689 671.131H959.113C959.678 669.113 960.486 666.469 961.535 663.199C962.585 659.889 963.715 656.519 964.926 653.088L978.791 614.641H989.629L960.748 690.748C959.214 694.825 957.418 698.377 955.359 701.404C953.341 704.432 950.879 706.753 947.973 708.367C945.066 710.022 941.555 710.85 937.438 710.85C935.54 710.85 933.865 710.729 932.412 710.486C930.959 710.285 929.708 710.042 928.658 709.76V701.707C929.546 701.909 930.616 702.09 931.867 702.252C933.159 702.413 934.491 702.494 935.863 702.494C938.366 702.494 940.525 702.01 942.342 701.041C944.199 700.113 945.793 698.74 947.125 696.924C948.457 695.107 949.607 692.948 950.576 690.445L954.209 681.121L927.629 614.641ZM1057.26 613.551C1065.17 613.551 1071.04 615.327 1074.88 618.879C1078.71 622.431 1080.63 628.102 1080.63 635.893V681H1073.3L1071.37 671.191H1070.88C1069.03 673.613 1067.09 675.652 1065.07 677.307C1063.05 678.921 1060.71 680.152 1058.05 681C1055.42 681.807 1052.19 682.211 1048.36 682.211C1044.32 682.211 1040.73 681.505 1037.58 680.092C1034.47 678.679 1032.01 676.54 1030.2 673.674C1028.42 670.808 1027.53 667.175 1027.53 662.775C1027.53 656.156 1030.15 651.07 1035.4 647.518C1040.65 643.965 1048.64 642.028 1059.38 641.705L1070.82 641.221V637.164C1070.82 631.432 1069.59 627.416 1067.13 625.115C1064.67 622.814 1061.2 621.664 1056.71 621.664C1053.24 621.664 1049.93 622.169 1046.79 623.178C1043.64 624.187 1040.65 625.378 1037.82 626.75L1034.74 619.121C1037.72 617.587 1041.15 616.275 1045.03 615.186C1048.9 614.096 1052.98 613.551 1057.26 613.551ZM1070.7 648.305L1060.59 648.729C1052.32 649.051 1046.48 650.404 1043.09 652.785C1039.7 655.167 1038.01 658.537 1038.01 662.896C1038.01 666.691 1039.16 669.496 1041.46 671.312C1043.76 673.129 1046.81 674.037 1050.6 674.037C1056.49 674.037 1061.32 672.402 1065.07 669.133C1068.82 665.863 1070.7 660.959 1070.7 654.42V648.305ZM1131.49 613.43C1132.82 613.43 1134.21 613.51 1135.67 613.672C1137.12 613.793 1138.41 613.975 1139.54 614.217L1138.27 623.541C1137.18 623.258 1135.97 623.036 1134.64 622.875C1133.31 622.714 1132.06 622.633 1130.88 622.633C1128.22 622.633 1125.7 623.178 1123.32 624.268C1120.98 625.317 1118.92 626.851 1117.14 628.869C1115.36 630.847 1113.97 633.249 1112.96 636.074C1111.95 638.859 1111.45 641.967 1111.45 645.398V681H1101.34V614.641H1109.69L1110.78 626.871H1111.21C1112.58 624.409 1114.23 622.169 1116.17 620.15C1118.11 618.092 1120.35 616.457 1122.89 615.246C1125.48 614.035 1128.34 613.43 1131.49 613.43ZM1182.23 613.43C1183.56 613.43 1184.95 613.51 1186.41 613.672C1187.86 613.793 1189.15 613.975 1190.28 614.217L1189.01 623.541C1187.92 623.258 1186.71 623.036 1185.38 622.875C1184.04 622.714 1182.79 622.633 1181.62 622.633C1178.96 622.633 1176.44 623.178 1174.05 624.268C1171.71 625.317 1169.65 626.851 1167.88 628.869C1166.1 630.847 1164.71 633.249 1163.7 636.074C1162.69 638.859 1162.19 641.967 1162.19 645.398V681H1152.08V614.641H1160.43L1161.52 626.871H1161.95C1163.32 624.409 1164.97 622.169 1166.91 620.15C1168.85 618.092 1171.09 616.457 1173.63 615.246C1176.21 614.035 1179.08 613.43 1182.23 613.43ZM1228.37 613.43C1234.02 613.43 1238.86 614.681 1242.9 617.184C1246.93 619.686 1250.02 623.198 1252.16 627.719C1254.3 632.199 1255.37 637.447 1255.37 643.461V649.697H1209.54C1209.66 657.488 1211.59 663.421 1215.35 667.498C1219.1 671.575 1224.39 673.613 1231.21 673.613C1235.41 673.613 1239.12 673.23 1242.35 672.463C1245.58 671.696 1248.93 670.566 1252.4 669.072V677.912C1249.05 679.406 1245.72 680.495 1242.41 681.182C1239.14 681.868 1235.27 682.211 1230.79 682.211C1224.41 682.211 1218.84 680.919 1214.08 678.336C1209.35 675.712 1205.68 671.878 1203.06 666.832C1200.43 661.786 1199.12 655.611 1199.12 648.305C1199.12 641.16 1200.31 634.984 1202.69 629.777C1205.12 624.53 1208.51 620.493 1212.87 617.668C1217.26 614.842 1222.43 613.43 1228.37 613.43ZM1228.24 621.664C1222.88 621.664 1218.6 623.42 1215.41 626.932C1212.22 630.443 1210.32 635.348 1209.72 641.645H1244.83C1244.79 637.689 1244.17 634.217 1242.96 631.23C1241.79 628.203 1239.99 625.862 1237.57 624.207C1235.15 622.512 1232.04 621.664 1228.24 621.664ZM1315.37 662.836C1315.37 667.074 1314.3 670.646 1312.16 673.553C1310.06 676.419 1307.04 678.578 1303.08 680.031C1299.16 681.484 1294.48 682.211 1289.03 682.211C1284.39 682.211 1280.38 681.848 1276.98 681.121C1273.59 680.395 1270.63 679.365 1268.08 678.033V668.77C1270.79 670.102 1274.02 671.312 1277.77 672.402C1281.53 673.492 1285.36 674.037 1289.28 674.037C1295.01 674.037 1299.16 673.109 1301.75 671.252C1304.33 669.395 1305.62 666.872 1305.62 663.684C1305.62 661.867 1305.1 660.273 1304.05 658.9C1303.04 657.488 1301.32 656.135 1298.9 654.844C1296.48 653.512 1293.13 652.059 1288.85 650.484C1284.61 648.87 1280.94 647.275 1277.83 645.701C1274.76 644.087 1272.38 642.129 1270.69 639.828C1269.03 637.527 1268.21 634.54 1268.21 630.867C1268.21 625.257 1270.47 620.958 1274.99 617.971C1279.55 614.943 1285.52 613.43 1292.91 613.43C1296.9 613.43 1300.64 613.833 1304.11 614.641C1307.62 615.408 1310.89 616.457 1313.92 617.789L1310.53 625.842C1307.78 624.671 1304.86 623.682 1301.75 622.875C1298.64 622.068 1295.47 621.664 1292.24 621.664C1287.6 621.664 1284.03 622.431 1281.53 623.965C1279.06 625.499 1277.83 627.598 1277.83 630.262C1277.83 632.32 1278.4 634.016 1279.53 635.348C1280.7 636.68 1282.55 637.931 1285.1 639.102C1287.64 640.272 1290.99 641.645 1295.15 643.219C1299.31 644.753 1302.9 646.347 1305.93 648.002C1308.95 649.617 1311.27 651.594 1312.89 653.936C1314.54 656.236 1315.37 659.203 1315.37 662.836ZM1352.97 673.977C1354.63 673.977 1356.32 673.835 1358.06 673.553C1359.79 673.27 1361.21 672.927 1362.29 672.523V680.334C1361.12 680.859 1359.49 681.303 1357.39 681.666C1355.33 682.029 1353.31 682.211 1351.34 682.211C1347.82 682.211 1344.64 681.605 1341.77 680.395C1338.9 679.143 1336.6 677.044 1334.87 674.098C1333.17 671.151 1332.32 667.074 1332.32 661.867V622.512H1322.88V617.607L1332.38 613.672L1336.38 599.262H1342.44V614.641H1361.87V622.512H1342.44V661.564C1342.44 665.722 1343.38 668.83 1345.28 670.889C1347.22 672.947 1349.78 673.977 1352.97 673.977ZM1387.24 666.59L1388.03 667.982C1387.3 670.929 1386.37 674.077 1385.24 677.428C1384.15 680.778 1382.94 684.128 1381.61 687.479C1380.32 690.869 1379.01 694.038 1377.67 696.984H1370.17C1371.01 693.755 1371.84 690.344 1372.65 686.752C1373.46 683.2 1374.18 679.688 1374.83 676.217C1375.51 672.705 1376.06 669.496 1376.46 666.59H1387.24ZM520.209 868.211C511.813 868.211 505.153 865.345 500.229 859.613C495.344 853.882 492.902 845.365 492.902 834.062C492.902 822.639 495.405 814.021 500.41 808.209C505.415 802.356 512.076 799.43 520.391 799.43C523.902 799.43 526.97 799.894 529.594 800.822C532.217 801.751 534.478 803.002 536.375 804.576C538.272 806.11 539.867 807.866 541.158 809.844H541.885C541.723 808.592 541.562 806.877 541.4 804.697C541.239 802.518 541.158 800.742 541.158 799.369V772.789H551.209V867H543.096L541.582 857.555H541.158C539.907 859.533 538.312 861.329 536.375 862.943C534.478 864.558 532.197 865.85 529.533 866.818C526.91 867.747 523.801 868.211 520.209 868.211ZM521.783 859.855C528.887 859.855 533.913 857.837 536.859 853.801C539.806 849.764 541.279 843.77 541.279 835.818V834.002C541.279 825.566 539.867 819.087 537.041 814.566C534.256 810.046 529.17 807.785 521.783 807.785C515.607 807.785 510.986 810.167 507.918 814.93C504.85 819.652 503.316 826.111 503.316 834.305C503.316 842.458 504.83 848.755 507.857 853.195C510.925 857.635 515.567 859.855 521.783 859.855ZM598.072 799.43C603.723 799.43 608.567 800.681 612.604 803.184C616.64 805.686 619.728 809.198 621.867 813.719C624.007 818.199 625.076 823.447 625.076 829.461V835.697H579.242C579.363 843.488 581.301 849.421 585.055 853.498C588.809 857.575 594.096 859.613 600.918 859.613C605.116 859.613 608.829 859.23 612.059 858.463C615.288 857.696 618.638 856.566 622.109 855.072V863.912C618.759 865.406 615.429 866.495 612.119 867.182C608.85 867.868 604.975 868.211 600.494 868.211C594.117 868.211 588.546 866.919 583.783 864.336C579.061 861.712 575.387 857.878 572.764 852.832C570.14 847.786 568.828 841.611 568.828 834.305C568.828 827.16 570.019 820.984 572.4 815.777C574.822 810.53 578.213 806.493 582.572 803.668C586.972 800.842 592.139 799.43 598.072 799.43ZM597.951 807.664C592.583 807.664 588.304 809.42 585.115 812.932C581.926 816.443 580.029 821.348 579.424 827.645H614.541C614.501 823.689 613.875 820.217 612.664 817.23C611.493 814.203 609.697 811.862 607.275 810.207C604.854 808.512 601.745 807.664 597.951 807.664ZM663.584 859.977C665.239 859.977 666.934 859.835 668.67 859.553C670.406 859.27 671.818 858.927 672.908 858.523V866.334C671.738 866.859 670.103 867.303 668.004 867.666C665.945 868.029 663.927 868.211 661.949 868.211C658.438 868.211 655.249 867.605 652.383 866.395C649.517 865.143 647.216 863.044 645.48 860.098C643.785 857.151 642.938 853.074 642.938 847.867V808.512H633.492V803.607L642.998 799.672L646.994 785.262H653.049V800.641H672.484V808.512H653.049V847.564C653.049 851.722 653.997 854.83 655.895 856.889C657.832 858.947 660.395 859.977 663.584 859.977ZM711.9 799.43C717.551 799.43 722.395 800.681 726.432 803.184C730.468 805.686 733.556 809.198 735.695 813.719C737.835 818.199 738.904 823.447 738.904 829.461V835.697H693.07C693.191 843.488 695.129 849.421 698.883 853.498C702.637 857.575 707.924 859.613 714.746 859.613C718.944 859.613 722.658 859.23 725.887 858.463C729.116 857.696 732.466 856.566 735.938 855.072V863.912C732.587 865.406 729.257 866.495 725.947 867.182C722.678 867.868 718.803 868.211 714.322 868.211C707.945 868.211 702.374 866.919 697.611 864.336C692.889 861.712 689.215 857.878 686.592 852.832C683.968 847.786 682.656 841.611 682.656 834.305C682.656 827.16 683.847 820.984 686.229 815.777C688.65 810.53 692.041 806.493 696.4 803.668C700.8 800.842 705.967 799.43 711.9 799.43ZM711.779 807.664C706.411 807.664 702.132 809.42 698.943 812.932C695.755 816.443 693.857 821.348 693.252 827.645H728.369C728.329 823.689 727.703 820.217 726.492 817.23C725.322 814.203 723.525 811.862 721.104 810.207C718.682 808.512 715.574 807.664 711.779 807.664ZM787.402 799.43C795.273 799.43 801.227 801.367 805.264 805.242C809.3 809.077 811.318 815.253 811.318 823.77V867H801.389V824.436C801.389 818.906 800.117 814.768 797.574 812.023C795.072 809.279 791.217 807.906 786.01 807.906C778.663 807.906 773.497 809.985 770.51 814.143C767.523 818.3 766.029 824.335 766.029 832.246V867H755.979V800.641H764.092L765.605 810.207H766.15C767.563 807.866 769.359 805.908 771.539 804.334C773.719 802.719 776.161 801.508 778.865 800.701C781.57 799.854 784.415 799.43 787.402 799.43ZM853.459 859.977C855.114 859.977 856.809 859.835 858.545 859.553C860.281 859.27 861.693 858.927 862.783 858.523V866.334C861.613 866.859 859.978 867.303 857.879 867.666C855.82 868.029 853.802 868.211 851.824 868.211C848.312 868.211 845.124 867.605 842.258 866.395C839.392 865.143 837.091 863.044 835.355 860.098C833.66 857.151 832.812 853.074 832.812 847.867V808.512H823.367V803.607L832.873 799.672L836.869 785.262H842.924V800.641H862.359V808.512H842.924V847.564C842.924 851.722 843.872 854.83 845.77 856.889C847.707 858.947 850.27 859.977 853.459 859.977ZM886.275 800.641V867H876.225V800.641H886.275ZM881.371 775.816C883.026 775.816 884.439 776.361 885.609 777.451C886.82 778.501 887.426 780.156 887.426 782.416C887.426 784.636 886.82 786.291 885.609 787.381C884.439 788.471 883.026 789.016 881.371 789.016C879.635 789.016 878.182 788.471 877.012 787.381C875.882 786.291 875.316 784.636 875.316 782.416C875.316 780.156 875.882 778.501 877.012 777.451C878.182 776.361 879.635 775.816 881.371 775.816ZM964.805 833.699C964.805 839.148 964.098 844.012 962.686 848.291C961.273 852.57 959.234 856.182 956.57 859.129C953.906 862.076 950.677 864.336 946.883 865.91C943.129 867.444 938.87 868.211 934.107 868.211C929.667 868.211 925.59 867.444 921.877 865.91C918.204 864.336 915.015 862.076 912.311 859.129C909.646 856.182 907.568 852.57 906.074 848.291C904.621 844.012 903.895 839.148 903.895 833.699C903.895 826.434 905.126 820.258 907.588 815.172C910.05 810.046 913.562 806.15 918.123 803.486C922.725 800.782 928.194 799.43 934.531 799.43C940.586 799.43 945.874 800.782 950.395 803.486C954.956 806.191 958.488 810.106 960.99 815.232C963.533 820.318 964.805 826.474 964.805 833.699ZM914.309 833.699C914.309 839.027 915.015 843.649 916.428 847.564C917.84 851.48 920.02 854.507 922.967 856.646C925.913 858.786 929.708 859.855 934.35 859.855C938.951 859.855 942.725 858.786 945.672 856.646C948.659 854.507 950.859 851.48 952.271 847.564C953.684 843.649 954.391 839.027 954.391 833.699C954.391 828.411 953.684 823.85 952.271 820.016C950.859 816.141 948.679 813.154 945.732 811.055C942.786 808.956 938.971 807.906 934.289 807.906C927.387 807.906 922.321 810.187 919.092 814.748C915.903 819.309 914.309 825.626 914.309 833.699ZM1013.61 799.43C1021.48 799.43 1027.43 801.367 1031.47 805.242C1035.5 809.077 1037.52 815.253 1037.52 823.77V867H1027.59V824.436C1027.59 818.906 1026.32 814.768 1023.78 812.023C1021.27 809.279 1017.42 807.906 1012.21 807.906C1004.87 807.906 999.7 809.985 996.713 814.143C993.726 818.3 992.232 824.335 992.232 832.246V867H982.182V800.641H990.295L991.809 810.207H992.354C993.766 807.866 995.562 805.908 997.742 804.334C999.922 802.719 1002.36 801.508 1005.07 800.701C1007.77 799.854 1010.62 799.43 1013.61 799.43ZM1147.66 833.699C1147.66 839.148 1146.95 844.012 1145.54 848.291C1144.12 852.57 1142.09 856.182 1139.42 859.129C1136.76 862.076 1133.53 864.336 1129.73 865.91C1125.98 867.444 1121.72 868.211 1116.96 868.211C1112.52 868.211 1108.44 867.444 1104.73 865.91C1101.06 864.336 1097.87 862.076 1095.16 859.129C1092.5 856.182 1090.42 852.57 1088.93 848.291C1087.47 844.012 1086.75 839.148 1086.75 833.699C1086.75 826.434 1087.98 820.258 1090.44 815.172C1092.9 810.046 1096.41 806.15 1100.97 803.486C1105.58 800.782 1111.05 799.43 1117.38 799.43C1123.44 799.43 1128.73 800.782 1133.25 803.486C1137.81 806.191 1141.34 810.106 1143.84 815.232C1146.38 820.318 1147.66 826.474 1147.66 833.699ZM1097.16 833.699C1097.16 839.027 1097.87 843.649 1099.28 847.564C1100.69 851.48 1102.87 854.507 1105.82 856.646C1108.76 858.786 1112.56 859.855 1117.2 859.855C1121.8 859.855 1125.58 858.786 1128.52 856.646C1131.51 854.507 1133.71 851.48 1135.12 847.564C1136.54 843.649 1137.24 839.027 1137.24 833.699C1137.24 828.411 1136.54 823.85 1135.12 820.016C1133.71 816.141 1131.53 813.154 1128.58 811.055C1125.64 808.956 1121.82 807.906 1117.14 807.906C1110.24 807.906 1105.17 810.187 1101.94 814.748C1098.75 819.309 1097.16 825.626 1097.16 833.699ZM1195.19 799.43C1196.52 799.43 1197.91 799.51 1199.36 799.672C1200.82 799.793 1202.11 799.975 1203.24 800.217L1201.97 809.541C1200.88 809.258 1199.67 809.036 1198.33 808.875C1197 808.714 1195.75 808.633 1194.58 808.633C1191.92 808.633 1189.39 809.178 1187.01 810.268C1184.67 811.317 1182.61 812.851 1180.84 814.869C1179.06 816.847 1177.67 819.249 1176.66 822.074C1175.65 824.859 1175.14 827.967 1175.14 831.398V867H1165.03V800.641H1173.39L1174.48 812.871H1174.9C1176.27 810.409 1177.93 808.169 1179.87 806.15C1181.8 804.092 1184.04 802.457 1186.59 801.246C1189.17 800.035 1192.04 799.43 1195.19 799.43ZM1273.53 799.43C1279.18 799.43 1284.03 800.681 1288.06 803.184C1292.1 805.686 1295.19 809.198 1297.33 813.719C1299.47 818.199 1300.54 823.447 1300.54 829.461V835.697H1254.7C1254.82 843.488 1256.76 849.421 1260.52 853.498C1264.27 857.575 1269.56 859.613 1276.38 859.613C1280.58 859.613 1284.29 859.23 1287.52 858.463C1290.75 857.696 1294.1 856.566 1297.57 855.072V863.912C1294.22 865.406 1290.89 866.495 1287.58 867.182C1284.31 867.868 1280.44 868.211 1275.96 868.211C1269.58 868.211 1264.01 866.919 1259.24 864.336C1254.52 861.712 1250.85 857.878 1248.22 852.832C1245.6 847.786 1244.29 841.611 1244.29 834.305C1244.29 827.16 1245.48 820.984 1247.86 815.777C1250.28 810.53 1253.67 806.493 1258.03 803.668C1262.43 800.842 1267.6 799.43 1273.53 799.43ZM1273.41 807.664C1268.04 807.664 1263.76 809.42 1260.58 812.932C1257.39 816.443 1255.49 821.348 1254.88 827.645H1290C1289.96 823.689 1289.34 820.217 1288.12 817.23C1286.95 814.203 1285.16 811.862 1282.74 810.207C1280.31 808.512 1277.21 807.664 1273.41 807.664ZM1333.41 833.033L1310.47 800.641H1321.97L1339.47 826.191L1356.91 800.641H1368.29L1345.34 833.033L1369.56 867H1358.06L1339.47 839.936L1320.76 867H1309.38L1333.41 833.033ZM1392.57 800.641V867H1382.52V800.641H1392.57ZM1387.66 775.816C1389.32 775.816 1390.73 776.361 1391.9 777.451C1393.11 778.501 1393.72 780.156 1393.72 782.416C1393.72 784.636 1393.11 786.291 1391.9 787.381C1390.73 788.471 1389.32 789.016 1387.66 789.016C1385.93 789.016 1384.48 788.471 1383.3 787.381C1382.17 786.291 1381.61 784.636 1381.61 782.416C1381.61 780.156 1382.17 778.501 1383.3 777.451C1384.48 776.361 1385.93 775.816 1387.66 775.816ZM1423.99 867H1413.88V772.789H1423.99V867ZM1470.79 799.43C1476.45 799.43 1481.29 800.681 1485.33 803.184C1489.36 805.686 1492.45 809.198 1494.59 813.719C1496.73 818.199 1497.8 823.447 1497.8 829.461V835.697H1451.96C1452.09 843.488 1454.02 849.421 1457.78 853.498C1461.53 857.575 1466.82 859.613 1473.64 859.613C1477.84 859.613 1481.55 859.23 1484.78 858.463C1488.01 857.696 1491.36 856.566 1494.83 855.072V863.912C1491.48 865.406 1488.15 866.495 1484.84 867.182C1481.57 867.868 1477.7 868.211 1473.22 868.211C1466.84 868.211 1461.27 866.919 1456.51 864.336C1451.78 861.712 1448.11 857.878 1445.49 852.832C1442.86 847.786 1441.55 841.611 1441.55 834.305C1441.55 827.16 1442.74 820.984 1445.12 815.777C1447.54 810.53 1450.94 806.493 1455.29 803.668C1459.69 800.842 1464.86 799.43 1470.79 799.43ZM1470.67 807.664C1465.31 807.664 1461.03 809.42 1457.84 812.932C1454.65 816.443 1452.75 821.348 1452.15 827.645H1487.26C1487.22 823.689 1486.6 820.217 1485.39 817.23C1484.22 814.203 1482.42 811.862 1480 810.207C1477.58 808.512 1474.47 807.664 1470.67 807.664ZM1513.36 860.703C1513.36 857.878 1514.05 855.88 1515.42 854.709C1516.79 853.498 1518.47 852.893 1520.44 852.893C1522.5 852.893 1524.24 853.498 1525.65 854.709C1527.06 855.88 1527.77 857.878 1527.77 860.703C1527.77 863.488 1527.06 865.527 1525.65 866.818C1524.24 868.07 1522.5 868.695 1520.44 868.695C1518.47 868.695 1516.79 868.07 1515.42 866.818C1514.05 865.527 1513.36 863.488 1513.36 860.703Z" fill="black"/>
<path d="M319.566 267H316.851V259.564C316.851 259.359 316.854 259.107 316.859 258.809C316.865 258.504 316.874 258.193 316.886 257.877C316.897 257.555 316.909 257.265 316.921 257.007C316.856 257.083 316.725 257.215 316.525 257.402C316.332 257.584 316.15 257.748 315.98 257.895L314.504 259.081L313.194 257.446L317.334 254.15H319.566V267ZM332.064 260.575C332.064 261.612 331.982 262.538 331.818 263.353C331.66 264.167 331.402 264.858 331.045 265.427C330.693 265.995 330.23 266.429 329.656 266.728C329.082 267.026 328.385 267.176 327.564 267.176C326.533 267.176 325.687 266.915 325.024 266.394C324.362 265.866 323.873 265.11 323.557 264.126C323.24 263.136 323.082 261.952 323.082 260.575C323.082 259.187 323.226 258 323.513 257.016C323.806 256.025 324.28 255.267 324.937 254.739C325.593 254.212 326.469 253.948 327.564 253.948C328.59 253.948 329.434 254.212 330.096 254.739C330.764 255.261 331.259 256.017 331.581 257.007C331.903 257.991 332.064 259.181 332.064 260.575ZM325.78 260.575C325.78 261.554 325.833 262.371 325.938 263.027C326.05 263.678 326.234 264.167 326.492 264.495C326.75 264.823 327.107 264.987 327.564 264.987C328.016 264.987 328.37 264.826 328.628 264.504C328.892 264.176 329.079 263.687 329.19 263.036C329.302 262.38 329.357 261.56 329.357 260.575C329.357 259.597 329.302 258.779 329.19 258.123C329.079 257.467 328.892 256.975 328.628 256.646C328.37 256.312 328.016 256.146 327.564 256.146C327.107 256.146 326.75 256.312 326.492 256.646C326.234 256.975 326.05 257.467 325.938 258.123C325.833 258.779 325.78 259.597 325.78 260.575ZM342.365 260.575C342.365 261.612 342.283 262.538 342.119 263.353C341.961 264.167 341.703 264.858 341.346 265.427C340.994 265.995 340.531 266.429 339.957 266.728C339.383 267.026 338.686 267.176 337.865 267.176C336.834 267.176 335.987 266.915 335.325 266.394C334.663 265.866 334.174 265.11 333.857 264.126C333.541 263.136 333.383 261.952 333.383 260.575C333.383 259.187 333.526 258 333.813 257.016C334.106 256.025 334.581 255.267 335.237 254.739C335.894 254.212 336.77 253.948 337.865 253.948C338.891 253.948 339.734 254.212 340.396 254.739C341.064 255.261 341.56 256.017 341.882 257.007C342.204 257.991 342.365 259.181 342.365 260.575ZM336.081 260.575C336.081 261.554 336.134 262.371 336.239 263.027C336.351 263.678 336.535 264.167 336.793 264.495C337.051 264.823 337.408 264.987 337.865 264.987C338.316 264.987 338.671 264.826 338.929 264.504C339.192 264.176 339.38 263.687 339.491 263.036C339.603 262.38 339.658 261.56 339.658 260.575C339.658 259.597 339.603 258.779 339.491 258.123C339.38 257.467 339.192 256.975 338.929 256.646C338.671 256.312 338.316 256.146 337.865 256.146C337.408 256.146 337.051 256.312 336.793 256.646C336.535 256.975 336.351 257.467 336.239 258.123C336.134 258.779 336.081 259.597 336.081 260.575ZM346.619 253.966C347.627 253.966 348.392 254.317 348.913 255.021C349.435 255.724 349.695 256.711 349.695 257.982C349.695 259.254 349.449 260.247 348.957 260.962C348.465 261.677 347.686 262.034 346.619 262.034C345.629 262.034 344.876 261.677 344.36 260.962C343.845 260.247 343.587 259.254 343.587 257.982C343.587 256.711 343.827 255.724 344.308 255.021C344.794 254.317 345.564 253.966 346.619 253.966ZM346.637 255.803C346.35 255.803 346.139 255.984 346.004 256.348C345.869 256.711 345.802 257.262 345.802 258C345.802 258.738 345.869 259.292 346.004 259.661C346.139 260.03 346.35 260.215 346.637 260.215C346.924 260.215 347.135 260.033 347.27 259.67C347.41 259.301 347.48 258.744 347.48 258C347.48 257.262 347.41 256.711 347.27 256.348C347.135 255.984 346.924 255.803 346.637 255.803ZM355.742 254.15L348.614 267H346.505L353.633 254.15H355.742ZM355.619 259.099C356.627 259.099 357.392 259.45 357.913 260.153C358.435 260.856 358.695 261.844 358.695 263.115C358.695 264.381 358.449 265.371 357.957 266.086C357.465 266.801 356.686 267.158 355.619 267.158C354.629 267.158 353.876 266.801 353.36 266.086C352.845 265.371 352.587 264.381 352.587 263.115C352.587 261.844 352.827 260.856 353.308 260.153C353.794 259.45 354.564 259.099 355.619 259.099ZM355.637 260.936C355.35 260.936 355.139 261.117 355.004 261.48C354.869 261.844 354.802 262.395 354.802 263.133C354.802 263.871 354.869 264.425 355.004 264.794C355.139 265.163 355.35 265.348 355.637 265.348C355.924 265.348 356.135 265.166 356.27 264.803C356.41 264.434 356.48 263.877 356.48 263.133C356.48 262.395 356.41 261.844 356.27 261.48C356.135 261.117 355.924 260.936 355.637 260.936ZM368.021 267H365.34V253.324H368.021V267ZM373.522 257.174V267H370.842V257.174H373.522ZM372.187 253.324C372.585 253.324 372.928 253.418 373.215 253.605C373.502 253.787 373.646 254.13 373.646 254.634C373.646 255.132 373.502 255.478 373.215 255.671C372.928 255.858 372.585 255.952 372.187 255.952C371.782 255.952 371.437 255.858 371.149 255.671C370.868 255.478 370.728 255.132 370.728 254.634C370.728 254.13 370.868 253.787 371.149 253.605C371.437 253.418 371.782 253.324 372.187 253.324ZM381.925 256.989C382.974 256.989 383.817 257.276 384.456 257.851C385.095 258.419 385.414 259.333 385.414 260.593V267H382.733V261.261C382.733 260.558 382.604 260.027 382.347 259.67C382.095 259.312 381.696 259.134 381.151 259.134C380.331 259.134 379.771 259.412 379.473 259.969C379.174 260.525 379.024 261.328 379.024 262.377V267H376.344V257.174H378.392L378.752 258.431H378.901C379.112 258.091 379.373 257.815 379.684 257.604C380 257.394 380.349 257.238 380.729 257.139C381.116 257.039 381.515 256.989 381.925 256.989ZM392.226 256.989C393.134 256.989 393.916 257.165 394.572 257.517C395.229 257.862 395.735 258.366 396.093 259.028C396.45 259.69 396.629 260.499 396.629 261.454V262.755H390.292C390.321 263.511 390.547 264.105 390.969 264.539C391.396 264.967 391.988 265.181 392.744 265.181C393.371 265.181 393.945 265.116 394.467 264.987C394.988 264.858 395.524 264.665 396.075 264.407V266.481C395.589 266.722 395.079 266.897 394.546 267.009C394.019 267.12 393.377 267.176 392.621 267.176C391.637 267.176 390.764 266.994 390.002 266.631C389.246 266.268 388.651 265.714 388.218 264.97C387.79 264.226 387.576 263.288 387.576 262.157C387.576 261.009 387.77 260.054 388.156 259.292C388.549 258.524 389.094 257.95 389.791 257.569C390.488 257.183 391.3 256.989 392.226 256.989ZM392.243 258.896C391.722 258.896 391.288 259.063 390.942 259.397C390.603 259.731 390.406 260.256 390.354 260.971H394.115C394.109 260.572 394.036 260.218 393.896 259.907C393.761 259.597 393.556 259.351 393.28 259.169C393.011 258.987 392.665 258.896 392.243 258.896ZM397.938 263.273V261.076H402.658V263.273H397.938ZM407.29 253.324V256.11C407.29 256.597 407.272 257.06 407.237 257.499C407.208 257.938 407.185 258.249 407.167 258.431H407.308C407.519 258.091 407.768 257.815 408.055 257.604C408.348 257.394 408.67 257.238 409.021 257.139C409.373 257.039 409.751 256.989 410.155 256.989C410.864 256.989 411.482 257.115 412.01 257.367C412.537 257.613 412.947 258.003 413.24 258.536C413.533 259.063 413.68 259.749 413.68 260.593V267H410.999V261.261C410.999 260.558 410.87 260.027 410.612 259.67C410.354 259.312 409.956 259.134 409.417 259.134C408.878 259.134 408.453 259.26 408.143 259.512C407.832 259.758 407.612 260.124 407.483 260.61C407.354 261.091 407.29 261.68 407.29 262.377V267H404.609V253.324H407.29ZM420.491 256.989C421.399 256.989 422.182 257.165 422.838 257.517C423.494 257.862 424.001 258.366 424.358 259.028C424.716 259.69 424.895 260.499 424.895 261.454V262.755H418.558C418.587 263.511 418.812 264.105 419.234 264.539C419.662 264.967 420.254 265.181 421.01 265.181C421.637 265.181 422.211 265.116 422.732 264.987C423.254 264.858 423.79 264.665 424.341 264.407V266.481C423.854 266.722 423.345 266.897 422.812 267.009C422.284 267.12 421.643 267.176 420.887 267.176C419.902 267.176 419.029 266.994 418.268 266.631C417.512 266.268 416.917 265.714 416.483 264.97C416.056 264.226 415.842 263.288 415.842 262.157C415.842 261.009 416.035 260.054 416.422 259.292C416.814 258.524 417.359 257.95 418.057 257.569C418.754 257.183 419.565 256.989 420.491 256.989ZM420.509 258.896C419.987 258.896 419.554 259.063 419.208 259.397C418.868 259.731 418.672 260.256 418.619 260.971H422.381C422.375 260.572 422.302 260.218 422.161 259.907C422.026 259.597 421.821 259.351 421.546 259.169C421.276 258.987 420.931 258.896 420.509 258.896ZM429.755 257.174V267H427.074V257.174H429.755ZM428.419 253.324C428.817 253.324 429.16 253.418 429.447 253.605C429.734 253.787 429.878 254.13 429.878 254.634C429.878 255.132 429.734 255.478 429.447 255.671C429.16 255.858 428.817 255.952 428.419 255.952C428.015 255.952 427.669 255.858 427.382 255.671C427.101 255.478 426.96 255.132 426.96 254.634C426.96 254.13 427.101 253.787 427.382 253.605C427.669 253.418 428.015 253.324 428.419 253.324ZM435.45 271.324C434.079 271.324 433.03 271.084 432.304 270.604C431.583 270.129 431.223 269.461 431.223 268.6C431.223 268.008 431.407 267.513 431.776 267.114C432.146 266.716 432.688 266.432 433.402 266.262C433.127 266.145 432.887 265.954 432.682 265.69C432.477 265.421 432.374 265.137 432.374 264.838C432.374 264.463 432.482 264.152 432.699 263.906C432.916 263.654 433.229 263.408 433.64 263.168C433.124 262.945 432.714 262.588 432.409 262.096C432.11 261.604 431.961 261.023 431.961 260.355C431.961 259.641 432.116 259.034 432.427 258.536C432.743 258.032 433.2 257.648 433.798 257.385C434.401 257.121 435.134 256.989 435.995 256.989C436.177 256.989 436.388 257.001 436.628 257.024C436.868 257.048 437.088 257.074 437.287 257.104C437.492 257.133 437.63 257.156 437.7 257.174H441.128V258.536L439.59 258.932C439.73 259.148 439.836 259.38 439.906 259.626C439.977 259.872 440.012 260.133 440.012 260.408C440.012 261.463 439.643 262.286 438.904 262.878C438.172 263.464 437.152 263.757 435.846 263.757C435.535 263.739 435.242 263.716 434.967 263.687C434.832 263.792 434.729 263.903 434.659 264.021C434.589 264.138 434.554 264.261 434.554 264.39C434.554 264.519 434.606 264.627 434.712 264.715C434.823 264.797 434.987 264.861 435.204 264.908C435.427 264.949 435.702 264.97 436.03 264.97H437.7C438.778 264.97 439.599 265.201 440.161 265.664C440.729 266.127 441.014 266.807 441.014 267.703C441.014 268.852 440.533 269.742 439.572 270.375C438.617 271.008 437.243 271.324 435.45 271.324ZM435.564 269.575C436.203 269.575 436.751 269.514 437.208 269.391C437.671 269.273 438.025 269.104 438.271 268.881C438.518 268.664 438.641 268.403 438.641 268.099C438.641 267.853 438.567 267.656 438.421 267.51C438.28 267.369 438.063 267.27 437.771 267.211C437.483 267.152 437.114 267.123 436.663 267.123H435.274C434.946 267.123 434.65 267.176 434.387 267.281C434.129 267.387 433.924 267.533 433.771 267.721C433.619 267.914 433.543 268.137 433.543 268.389C433.543 268.758 433.719 269.048 434.07 269.259C434.428 269.47 434.926 269.575 435.564 269.575ZM435.995 262.122C436.499 262.122 436.868 261.967 437.103 261.656C437.337 261.346 437.454 260.924 437.454 260.391C437.454 259.799 437.331 259.356 437.085 259.063C436.845 258.765 436.481 258.615 435.995 258.615C435.503 258.615 435.134 258.765 434.888 259.063C434.642 259.356 434.519 259.799 434.519 260.391C434.519 260.924 434.639 261.346 434.879 261.656C435.125 261.967 435.497 262.122 435.995 262.122ZM445.435 253.324V256.11C445.435 256.597 445.417 257.06 445.382 257.499C445.353 257.938 445.329 258.249 445.312 258.431H445.452C445.663 258.091 445.912 257.815 446.199 257.604C446.492 257.394 446.814 257.238 447.166 257.139C447.518 257.039 447.896 256.989 448.3 256.989C449.009 256.989 449.627 257.115 450.154 257.367C450.682 257.613 451.092 258.003 451.385 258.536C451.678 259.063 451.824 259.749 451.824 260.593V267H449.144V261.261C449.144 260.558 449.015 260.027 448.757 259.67C448.499 259.312 448.101 259.134 447.562 259.134C447.022 259.134 446.598 259.26 446.287 259.512C445.977 259.758 445.757 260.124 445.628 260.61C445.499 261.091 445.435 261.68 445.435 262.377V267H442.754V253.324H445.435ZM458.724 265.04C459.017 265.04 459.301 265.011 459.576 264.952C459.857 264.894 460.136 264.82 460.411 264.732V266.728C460.124 266.856 459.767 266.962 459.339 267.044C458.917 267.132 458.454 267.176 457.95 267.176C457.364 267.176 456.837 267.082 456.368 266.895C455.905 266.701 455.539 266.37 455.27 265.901C455.006 265.427 454.874 264.768 454.874 263.924V259.187H453.591V258.053L455.067 257.156L455.841 255.082H457.555V257.174H460.306V259.187H457.555V263.924C457.555 264.299 457.66 264.58 457.871 264.768C458.088 264.949 458.372 265.04 458.724 265.04Z" fill="#FF6D7F"/>
<path d="M358.177 173.324V176.11C358.177 176.597 358.159 177.06 358.124 177.499C358.095 177.938 358.071 178.249 358.054 178.431H358.194C358.405 178.091 358.654 177.815 358.941 177.604C359.234 177.394 359.557 177.238 359.908 177.139C360.26 177.039 360.638 176.989 361.042 176.989C361.751 176.989 362.369 177.115 362.896 177.367C363.424 177.613 363.834 178.003 364.127 178.536C364.42 179.063 364.566 179.749 364.566 180.593V187H361.886V181.261C361.886 180.558 361.757 180.027 361.499 179.67C361.241 179.312 360.843 179.134 360.304 179.134C359.765 179.134 359.34 179.26 359.029 179.512C358.719 179.758 358.499 180.124 358.37 180.61C358.241 181.091 358.177 181.68 358.177 182.377V187H355.496V173.324H358.177ZM371.352 176.972C372.67 176.972 373.681 177.259 374.384 177.833C375.087 178.407 375.438 179.28 375.438 180.452V187H373.566L373.048 185.664H372.978C372.696 186.016 372.409 186.303 372.116 186.525C371.823 186.748 371.486 186.912 371.105 187.018C370.725 187.123 370.262 187.176 369.717 187.176C369.137 187.176 368.615 187.064 368.152 186.842C367.695 186.619 367.335 186.279 367.071 185.822C366.808 185.359 366.676 184.773 366.676 184.064C366.676 183.021 367.042 182.254 367.774 181.762C368.507 181.264 369.605 180.988 371.07 180.936L372.775 180.883V180.452C372.775 179.937 372.641 179.559 372.371 179.318C372.102 179.078 371.727 178.958 371.246 178.958C370.771 178.958 370.306 179.025 369.849 179.16C369.392 179.295 368.935 179.465 368.478 179.67L367.59 177.859C368.111 177.584 368.694 177.367 369.339 177.209C369.989 177.051 370.66 176.972 371.352 176.972ZM372.775 182.447L371.738 182.482C370.871 182.506 370.268 182.661 369.928 182.948C369.594 183.235 369.427 183.613 369.427 184.082C369.427 184.492 369.547 184.785 369.787 184.961C370.027 185.131 370.341 185.216 370.728 185.216C371.302 185.216 371.785 185.046 372.178 184.706C372.576 184.366 372.775 183.883 372.775 183.256V182.447ZM380.888 187H378.207V173.324H380.888V187ZM389.141 179.187H386.82V187H384.14V179.187H382.663V177.895L384.14 177.174V176.453C384.14 175.615 384.28 174.965 384.562 174.502C384.849 174.033 385.25 173.705 385.766 173.518C386.287 173.324 386.902 173.228 387.611 173.228C388.133 173.228 388.607 173.271 389.035 173.359C389.463 173.441 389.812 173.535 390.081 173.641L389.396 175.609C389.19 175.545 388.968 175.486 388.728 175.434C388.487 175.381 388.212 175.354 387.901 175.354C387.526 175.354 387.251 175.469 387.075 175.697C386.905 175.92 386.82 176.207 386.82 176.559V177.174H389.141V179.187ZM389.817 183.273V181.076H394.537V183.273H389.817ZM399.169 187H396.488V173.324H399.169V187ZM406.042 176.989C406.95 176.989 407.732 177.165 408.389 177.517C409.045 177.862 409.552 178.366 409.909 179.028C410.267 179.69 410.445 180.499 410.445 181.454V182.755H404.108C404.138 183.511 404.363 184.105 404.785 184.539C405.213 184.967 405.805 185.181 406.561 185.181C407.188 185.181 407.762 185.116 408.283 184.987C408.805 184.858 409.341 184.665 409.892 184.407V186.481C409.405 186.722 408.896 186.897 408.362 187.009C407.835 187.12 407.193 187.176 406.438 187.176C405.453 187.176 404.58 186.994 403.818 186.631C403.062 186.268 402.468 185.714 402.034 184.97C401.606 184.226 401.393 183.288 401.393 182.157C401.393 181.009 401.586 180.054 401.973 179.292C402.365 178.524 402.91 177.95 403.607 177.569C404.305 177.183 405.116 176.989 406.042 176.989ZM406.06 178.896C405.538 178.896 405.104 179.063 404.759 179.397C404.419 179.731 404.223 180.256 404.17 180.971H407.932C407.926 180.572 407.853 180.218 407.712 179.907C407.577 179.597 407.372 179.351 407.097 179.169C406.827 178.987 406.481 178.896 406.06 178.896ZM416.65 176.972C417.969 176.972 418.979 177.259 419.683 177.833C420.386 178.407 420.737 179.28 420.737 180.452V187H418.865L418.347 185.664H418.276C417.995 186.016 417.708 186.303 417.415 186.525C417.122 186.748 416.785 186.912 416.404 187.018C416.023 187.123 415.561 187.176 415.016 187.176C414.436 187.176 413.914 187.064 413.451 186.842C412.994 186.619 412.634 186.279 412.37 185.822C412.106 185.359 411.975 184.773 411.975 184.064C411.975 183.021 412.341 182.254 413.073 181.762C413.806 181.264 414.904 180.988 416.369 180.936L418.074 180.883V180.452C418.074 179.937 417.939 179.559 417.67 179.318C417.4 179.078 417.025 178.958 416.545 178.958C416.07 178.958 415.604 179.025 415.147 179.16C414.69 179.295 414.233 179.465 413.776 179.67L412.889 177.859C413.41 177.584 413.993 177.367 414.638 177.209C415.288 177.051 415.959 176.972 416.65 176.972ZM418.074 182.447L417.037 182.482C416.17 182.506 415.566 182.661 415.227 182.948C414.893 183.235 414.726 183.613 414.726 184.082C414.726 184.492 414.846 184.785 415.086 184.961C415.326 185.131 415.64 185.216 416.026 185.216C416.601 185.216 417.084 185.046 417.477 184.706C417.875 184.366 418.074 183.883 418.074 183.256V182.447ZM426.617 187.176C425.521 187.176 424.628 186.748 423.937 185.893C423.251 185.031 422.908 183.769 422.908 182.104C422.908 180.423 423.257 179.151 423.954 178.29C424.651 177.423 425.562 176.989 426.688 176.989C427.156 176.989 427.569 177.054 427.927 177.183C428.284 177.312 428.592 177.484 428.85 177.701C429.113 177.918 429.336 178.161 429.518 178.431H429.605C429.57 178.243 429.526 177.968 429.474 177.604C429.427 177.235 429.403 176.857 429.403 176.471V173.324H432.093V187H430.036L429.518 185.726H429.403C429.233 185.995 429.02 186.241 428.762 186.464C428.51 186.681 428.208 186.854 427.856 186.982C427.505 187.111 427.092 187.176 426.617 187.176ZM427.558 185.04C428.29 185.04 428.806 184.823 429.104 184.39C429.409 183.95 429.57 183.291 429.588 182.412V182.122C429.588 181.167 429.441 180.438 429.148 179.934C428.855 179.424 428.311 179.169 427.514 179.169C426.922 179.169 426.459 179.424 426.125 179.934C425.791 180.443 425.624 181.179 425.624 182.14C425.624 183.101 425.791 183.824 426.125 184.311C426.465 184.797 426.942 185.04 427.558 185.04ZM437.577 177.174V187H434.896V177.174H437.577ZM436.241 173.324C436.64 173.324 436.982 173.418 437.27 173.605C437.557 173.787 437.7 174.13 437.7 174.634C437.7 175.132 437.557 175.478 437.27 175.671C436.982 175.858 436.64 175.952 436.241 175.952C435.837 175.952 435.491 175.858 435.204 175.671C434.923 175.478 434.782 175.132 434.782 174.634C434.782 174.13 434.923 173.787 435.204 173.605C435.491 173.418 435.837 173.324 436.241 173.324ZM445.979 176.989C447.028 176.989 447.872 177.276 448.511 177.851C449.149 178.419 449.469 179.333 449.469 180.593V187H446.788V181.261C446.788 180.558 446.659 180.027 446.401 179.67C446.149 179.312 445.751 179.134 445.206 179.134C444.386 179.134 443.826 179.412 443.527 179.969C443.229 180.525 443.079 181.328 443.079 182.377V187H440.398V177.174H442.446L442.807 178.431H442.956C443.167 178.091 443.428 177.815 443.738 177.604C444.055 177.394 444.403 177.238 444.784 177.139C445.171 177.039 445.569 176.989 445.979 176.989ZM455.103 191.324C453.731 191.324 452.683 191.084 451.956 190.604C451.235 190.129 450.875 189.461 450.875 188.6C450.875 188.008 451.06 187.513 451.429 187.114C451.798 186.716 452.34 186.432 453.055 186.262C452.779 186.145 452.539 185.954 452.334 185.69C452.129 185.421 452.026 185.137 452.026 184.838C452.026 184.463 452.135 184.152 452.352 183.906C452.568 183.654 452.882 183.408 453.292 183.168C452.776 182.945 452.366 182.588 452.062 182.096C451.763 181.604 451.613 181.023 451.613 180.355C451.613 179.641 451.769 179.034 452.079 178.536C452.396 178.032 452.853 177.648 453.45 177.385C454.054 177.121 454.786 176.989 455.647 176.989C455.829 176.989 456.04 177.001 456.28 177.024C456.521 177.048 456.74 177.074 456.939 177.104C457.145 177.133 457.282 177.156 457.353 177.174H460.78V178.536L459.242 178.932C459.383 179.148 459.488 179.38 459.559 179.626C459.629 179.872 459.664 180.133 459.664 180.408C459.664 181.463 459.295 182.286 458.557 182.878C457.824 183.464 456.805 183.757 455.498 183.757C455.188 183.739 454.895 183.716 454.619 183.687C454.484 183.792 454.382 183.903 454.312 184.021C454.241 184.138 454.206 184.261 454.206 184.39C454.206 184.519 454.259 184.627 454.364 184.715C454.476 184.797 454.64 184.861 454.856 184.908C455.079 184.949 455.354 184.97 455.683 184.97H457.353C458.431 184.97 459.251 185.201 459.813 185.664C460.382 186.127 460.666 186.807 460.666 187.703C460.666 188.852 460.186 189.742 459.225 190.375C458.27 191.008 456.896 191.324 455.103 191.324ZM455.217 189.575C455.855 189.575 456.403 189.514 456.86 189.391C457.323 189.273 457.678 189.104 457.924 188.881C458.17 188.664 458.293 188.403 458.293 188.099C458.293 187.853 458.22 187.656 458.073 187.51C457.933 187.369 457.716 187.27 457.423 187.211C457.136 187.152 456.767 187.123 456.315 187.123H454.927C454.599 187.123 454.303 187.176 454.039 187.281C453.781 187.387 453.576 187.533 453.424 187.721C453.271 187.914 453.195 188.137 453.195 188.389C453.195 188.758 453.371 189.048 453.723 189.259C454.08 189.47 454.578 189.575 455.217 189.575ZM455.647 182.122C456.151 182.122 456.521 181.967 456.755 181.656C456.989 181.346 457.106 180.924 457.106 180.391C457.106 179.799 456.983 179.356 456.737 179.063C456.497 178.765 456.134 178.615 455.647 178.615C455.155 178.615 454.786 178.765 454.54 179.063C454.294 179.356 454.171 179.799 454.171 180.391C454.171 180.924 454.291 181.346 454.531 181.656C454.777 181.967 455.149 182.122 455.647 182.122Z" fill="#FF6D7F"/>
<path d="M358.177 328.324V331.11C358.177 331.597 358.159 332.06 358.124 332.499C358.095 332.938 358.071 333.249 358.054 333.431H358.194C358.405 333.091 358.654 332.815 358.941 332.604C359.234 332.394 359.557 332.238 359.908 332.139C360.26 332.039 360.638 331.989 361.042 331.989C361.751 331.989 362.369 332.115 362.896 332.367C363.424 332.613 363.834 333.003 364.127 333.536C364.42 334.063 364.566 334.749 364.566 335.593V342H361.886V336.261C361.886 335.558 361.757 335.027 361.499 334.67C361.241 334.312 360.843 334.134 360.304 334.134C359.765 334.134 359.34 334.26 359.029 334.512C358.719 334.758 358.499 335.124 358.37 335.61C358.241 336.091 358.177 336.68 358.177 337.377V342H355.496V328.324H358.177ZM371.352 331.972C372.67 331.972 373.681 332.259 374.384 332.833C375.087 333.407 375.438 334.28 375.438 335.452V342H373.566L373.048 340.664H372.978C372.696 341.016 372.409 341.303 372.116 341.525C371.823 341.748 371.486 341.912 371.105 342.018C370.725 342.123 370.262 342.176 369.717 342.176C369.137 342.176 368.615 342.064 368.152 341.842C367.695 341.619 367.335 341.279 367.071 340.822C366.808 340.359 366.676 339.773 366.676 339.064C366.676 338.021 367.042 337.254 367.774 336.762C368.507 336.264 369.605 335.988 371.07 335.936L372.775 335.883V335.452C372.775 334.937 372.641 334.559 372.371 334.318C372.102 334.078 371.727 333.958 371.246 333.958C370.771 333.958 370.306 334.025 369.849 334.16C369.392 334.295 368.935 334.465 368.478 334.67L367.59 332.859C368.111 332.584 368.694 332.367 369.339 332.209C369.989 332.051 370.66 331.972 371.352 331.972ZM372.775 337.447L371.738 337.482C370.871 337.506 370.268 337.661 369.928 337.948C369.594 338.235 369.427 338.613 369.427 339.082C369.427 339.492 369.547 339.785 369.787 339.961C370.027 340.131 370.341 340.216 370.728 340.216C371.302 340.216 371.785 340.046 372.178 339.706C372.576 339.366 372.775 338.883 372.775 338.256V337.447ZM380.888 342H378.207V328.324H380.888V342ZM389.141 334.187H386.82V342H384.14V334.187H382.663V332.895L384.14 332.174V331.453C384.14 330.615 384.28 329.965 384.562 329.502C384.849 329.033 385.25 328.705 385.766 328.518C386.287 328.324 386.902 328.228 387.611 328.228C388.133 328.228 388.607 328.271 389.035 328.359C389.463 328.441 389.812 328.535 390.081 328.641L389.396 330.609C389.19 330.545 388.968 330.486 388.728 330.434C388.487 330.381 388.212 330.354 387.901 330.354C387.526 330.354 387.251 330.469 387.075 330.697C386.905 330.92 386.82 331.207 386.82 331.559V332.174H389.141V334.187ZM389.817 338.273V336.076H394.537V338.273H389.817ZM399.169 342H396.488V328.324H399.169V342ZM406.042 331.989C406.95 331.989 407.732 332.165 408.389 332.517C409.045 332.862 409.552 333.366 409.909 334.028C410.267 334.69 410.445 335.499 410.445 336.454V337.755H404.108C404.138 338.511 404.363 339.105 404.785 339.539C405.213 339.967 405.805 340.181 406.561 340.181C407.188 340.181 407.762 340.116 408.283 339.987C408.805 339.858 409.341 339.665 409.892 339.407V341.481C409.405 341.722 408.896 341.897 408.362 342.009C407.835 342.12 407.193 342.176 406.438 342.176C405.453 342.176 404.58 341.994 403.818 341.631C403.062 341.268 402.468 340.714 402.034 339.97C401.606 339.226 401.393 338.288 401.393 337.157C401.393 336.009 401.586 335.054 401.973 334.292C402.365 333.524 402.91 332.95 403.607 332.569C404.305 332.183 405.116 331.989 406.042 331.989ZM406.06 333.896C405.538 333.896 405.104 334.063 404.759 334.397C404.419 334.731 404.223 335.256 404.17 335.971H407.932C407.926 335.572 407.853 335.218 407.712 334.907C407.577 334.597 407.372 334.351 407.097 334.169C406.827 333.987 406.481 333.896 406.06 333.896ZM416.65 331.972C417.969 331.972 418.979 332.259 419.683 332.833C420.386 333.407 420.737 334.28 420.737 335.452V342H418.865L418.347 340.664H418.276C417.995 341.016 417.708 341.303 417.415 341.525C417.122 341.748 416.785 341.912 416.404 342.018C416.023 342.123 415.561 342.176 415.016 342.176C414.436 342.176 413.914 342.064 413.451 341.842C412.994 341.619 412.634 341.279 412.37 340.822C412.106 340.359 411.975 339.773 411.975 339.064C411.975 338.021 412.341 337.254 413.073 336.762C413.806 336.264 414.904 335.988 416.369 335.936L418.074 335.883V335.452C418.074 334.937 417.939 334.559 417.67 334.318C417.4 334.078 417.025 333.958 416.545 333.958C416.07 333.958 415.604 334.025 415.147 334.16C414.69 334.295 414.233 334.465 413.776 334.67L412.889 332.859C413.41 332.584 413.993 332.367 414.638 332.209C415.288 332.051 415.959 331.972 416.65 331.972ZM418.074 337.447L417.037 337.482C416.17 337.506 415.566 337.661 415.227 337.948C414.893 338.235 414.726 338.613 414.726 339.082C414.726 339.492 414.846 339.785 415.086 339.961C415.326 340.131 415.64 340.216 416.026 340.216C416.601 340.216 417.084 340.046 417.477 339.706C417.875 339.366 418.074 338.883 418.074 338.256V337.447ZM426.617 342.176C425.521 342.176 424.628 341.748 423.937 340.893C423.251 340.031 422.908 338.769 422.908 337.104C422.908 335.423 423.257 334.151 423.954 333.29C424.651 332.423 425.562 331.989 426.688 331.989C427.156 331.989 427.569 332.054 427.927 332.183C428.284 332.312 428.592 332.484 428.85 332.701C429.113 332.918 429.336 333.161 429.518 333.431H429.605C429.57 333.243 429.526 332.968 429.474 332.604C429.427 332.235 429.403 331.857 429.403 331.471V328.324H432.093V342H430.036L429.518 340.726H429.403C429.233 340.995 429.02 341.241 428.762 341.464C428.51 341.681 428.208 341.854 427.856 341.982C427.505 342.111 427.092 342.176 426.617 342.176ZM427.558 340.04C428.29 340.04 428.806 339.823 429.104 339.39C429.409 338.95 429.57 338.291 429.588 337.412V337.122C429.588 336.167 429.441 335.438 429.148 334.934C428.855 334.424 428.311 334.169 427.514 334.169C426.922 334.169 426.459 334.424 426.125 334.934C425.791 335.443 425.624 336.179 425.624 337.14C425.624 338.101 425.791 338.824 426.125 339.311C426.465 339.797 426.942 340.04 427.558 340.04ZM437.577 332.174V342H434.896V332.174H437.577ZM436.241 328.324C436.64 328.324 436.982 328.418 437.27 328.605C437.557 328.787 437.7 329.13 437.7 329.634C437.7 330.132 437.557 330.478 437.27 330.671C436.982 330.858 436.64 330.952 436.241 330.952C435.837 330.952 435.491 330.858 435.204 330.671C434.923 330.478 434.782 330.132 434.782 329.634C434.782 329.13 434.923 328.787 435.204 328.605C435.491 328.418 435.837 328.324 436.241 328.324ZM445.979 331.989C447.028 331.989 447.872 332.276 448.511 332.851C449.149 333.419 449.469 334.333 449.469 335.593V342H446.788V336.261C446.788 335.558 446.659 335.027 446.401 334.67C446.149 334.312 445.751 334.134 445.206 334.134C444.386 334.134 443.826 334.412 443.527 334.969C443.229 335.525 443.079 336.328 443.079 337.377V342H440.398V332.174H442.446L442.807 333.431H442.956C443.167 333.091 443.428 332.815 443.738 332.604C444.055 332.394 444.403 332.238 444.784 332.139C445.171 332.039 445.569 331.989 445.979 331.989ZM455.103 346.324C453.731 346.324 452.683 346.084 451.956 345.604C451.235 345.129 450.875 344.461 450.875 343.6C450.875 343.008 451.06 342.513 451.429 342.114C451.798 341.716 452.34 341.432 453.055 341.262C452.779 341.145 452.539 340.954 452.334 340.69C452.129 340.421 452.026 340.137 452.026 339.838C452.026 339.463 452.135 339.152 452.352 338.906C452.568 338.654 452.882 338.408 453.292 338.168C452.776 337.945 452.366 337.588 452.062 337.096C451.763 336.604 451.613 336.023 451.613 335.355C451.613 334.641 451.769 334.034 452.079 333.536C452.396 333.032 452.853 332.648 453.45 332.385C454.054 332.121 454.786 331.989 455.647 331.989C455.829 331.989 456.04 332.001 456.28 332.024C456.521 332.048 456.74 332.074 456.939 332.104C457.145 332.133 457.282 332.156 457.353 332.174H460.78V333.536L459.242 333.932C459.383 334.148 459.488 334.38 459.559 334.626C459.629 334.872 459.664 335.133 459.664 335.408C459.664 336.463 459.295 337.286 458.557 337.878C457.824 338.464 456.805 338.757 455.498 338.757C455.188 338.739 454.895 338.716 454.619 338.687C454.484 338.792 454.382 338.903 454.312 339.021C454.241 339.138 454.206 339.261 454.206 339.39C454.206 339.519 454.259 339.627 454.364 339.715C454.476 339.797 454.64 339.861 454.856 339.908C455.079 339.949 455.354 339.97 455.683 339.97H457.353C458.431 339.97 459.251 340.201 459.813 340.664C460.382 341.127 460.666 341.807 460.666 342.703C460.666 343.852 460.186 344.742 459.225 345.375C458.27 346.008 456.896 346.324 455.103 346.324ZM455.217 344.575C455.855 344.575 456.403 344.514 456.86 344.391C457.323 344.273 457.678 344.104 457.924 343.881C458.17 343.664 458.293 343.403 458.293 343.099C458.293 342.853 458.22 342.656 458.073 342.51C457.933 342.369 457.716 342.27 457.423 342.211C457.136 342.152 456.767 342.123 456.315 342.123H454.927C454.599 342.123 454.303 342.176 454.039 342.281C453.781 342.387 453.576 342.533 453.424 342.721C453.271 342.914 453.195 343.137 453.195 343.389C453.195 343.758 453.371 344.048 453.723 344.259C454.08 344.47 454.578 344.575 455.217 344.575ZM455.647 337.122C456.151 337.122 456.521 336.967 456.755 336.656C456.989 336.346 457.106 335.924 457.106 335.391C457.106 334.799 456.983 334.356 456.737 334.063C456.497 333.765 456.134 333.615 455.647 333.615C455.155 333.615 454.786 333.765 454.54 334.063C454.294 334.356 454.171 334.799 454.171 335.391C454.171 335.924 454.291 336.346 454.531 336.656C454.777 336.967 455.149 337.122 455.647 337.122Z" fill="#FF6D7F"/>
</svg>
