<svg xmlns="http://www.w3.org/2000/svg" width="1920" height="1080" fill="none"><path fill="#3C4043" d="M140.786 365.149h254.689l4.897 101.876h-8.816c-12.081-35.265-26.122-59.264-42.121-71.999-15.674-12.734-39.183-19.101-70.53-19.101h-13.714v159.18h22.041c15.673 0 28.734-5.714 39.183-17.142 10.448-11.429 17.632-27.102 21.55-47.02h7.347V615.92h-8.326c-5.225-24.489-12.571-41.958-22.041-52.407-9.142-10.449-21.714-15.673-37.713-15.673h-22.041v149.385h60.734V708H140.786v-10.775h28.897v-321.3h-28.897v-10.776ZM516.016 592.9h14.204v-37.713c0-31.02-1.796-51.755-5.388-62.203-3.265-10.776-9.796-16.163-19.592-16.163-5.877 0-11.265 1.632-16.163 4.898-4.571 2.938-6.857 7.183-6.857 12.734 0 5.224.98 10.612 2.939 16.163h12.245c2.612 6.857 3.918 15.183 3.918 24.979 0 9.469-4.081 17.796-12.245 24.979-8.163 6.857-18.448 10.286-30.856 10.286-28.081 0-42.122-13.551-42.122-40.653 0-40.162 34.122-60.243 102.366-60.243 38.856 0 65.631 6.693 80.325 20.081 15.02 13.061 22.53 37.224 22.53 72.488v99.427c0 16.979 4.734 25.469 14.204 25.469 11.102 0 17.632-16.816 19.591-50.448l7.347.49c-1.306 28.734-6.694 48.489-16.163 59.264-9.469 10.775-24.979 16.163-46.53 16.163-39.183 0-61.713-12.082-67.59-36.244-4.245 12.408-10.612 21.55-19.102 27.428-8.49 5.877-20.898 8.816-37.224 8.816-48.325 0-72.488-19.755-72.488-59.264 0-23.184 9.142-39.02 27.428-47.51 18.612-8.816 47.019-13.224 85.223-13.224Zm-19.592 60.244c0 16.979.817 27.918 2.449 32.816 1.959 4.897 5.388 7.346 10.286 7.346 5.224 0 9.959-4.081 14.204-12.244 4.571-8.49 6.857-20.082 6.857-34.775v-45.55h-3.429c-20.244 0-30.367 14.857-30.367 44.57v7.837ZM684.59 637.96V483.678h-26.938v-8.816h26.938v-63.183l91.101-22.53v85.713h63.672v8.816h-63.672v165.058c0 15.346 1.469 26.612 4.408 33.795 3.265 7.184 9.795 10.775 19.591 10.775 9.796 0 18.286-4.897 25.469-14.693 7.51-9.796 12.408-23.183 14.694-40.163l8.326.98c-2.612 22.53-9.796 40.489-21.551 53.876-11.754 13.061-31.183 19.592-58.284 19.592-27.102 0-47.836-5.388-62.203-16.163-14.367-10.775-21.551-30.367-21.551-58.775Zm316.67-300.239c-12.404 0-20.567 4.735-24.485 14.204-3.918 9.143-5.878 24-5.878 44.571v78.366h64.653v8.816h-64.653v215.506h59.753V708H852.859v-8.816h26.938V483.678H851.39v-8.816h28.407v-1.96c0-47.019 8.98-82.61 26.938-106.773 17.959-24.489 48-36.734 90.121-36.734 27.754 0 47.674 5.551 59.754 16.653 12.08 10.775 18.12 23.346 18.12 37.713s-3.75 25.143-11.26 32.326c-7.51 7.184-17.47 10.775-29.88 10.775s-22.04-3.102-28.9-9.306c-6.528-6.53-9.793-13.877-9.793-22.04 0-8.49.98-16.653 2.939-24.489h18.614c6.53-22.204 1.47-33.306-15.19-33.306ZM1153.12 592.9h14.2v-37.713c0-31.02-1.79-51.755-5.38-62.203-3.27-10.776-9.8-16.163-19.59-16.163-5.88 0-11.27 1.632-16.17 4.898-4.57 2.938-6.85 7.183-6.85 12.734 0 5.224.98 10.612 2.93 16.163h12.25c2.61 6.857 3.92 15.183 3.92 24.979 0 9.469-4.08 17.796-12.25 24.979-8.16 6.857-18.45 10.286-30.85 10.286-28.08 0-42.13-13.551-42.13-40.653 0-40.162 34.13-60.243 102.37-60.243 38.86 0 65.63 6.693 80.33 20.081 15.02 13.061 22.53 37.224 22.53 72.488v99.427c0 16.979 4.73 25.469 14.2 25.469 11.1 0 17.63-16.816 19.59-50.448l7.35.49c-1.31 28.734-6.7 48.489-16.17 59.264-9.46 10.775-24.97 16.163-46.53 16.163-39.18 0-61.71-12.082-67.59-36.244-4.24 12.408-10.61 21.55-19.1 27.428-8.49 5.877-20.9 8.816-37.22 8.816-48.33 0-72.49-19.755-72.49-59.264 0-23.184 9.14-39.02 27.43-47.51 18.61-8.816 47.02-13.224 85.22-13.224Zm-19.59 60.244c0 16.979.82 27.918 2.45 32.816 1.96 4.897 5.39 7.346 10.28 7.346 5.23 0 9.96-4.081 14.21-12.244 4.57-8.49 6.85-20.082 6.85-34.775v-45.55h-3.42c-20.25 0-30.37 14.857-30.37 44.57v7.837Zm307.99-174.364c-14.37 0-24.65 7.836-30.86 23.51-6.2 15.673-9.3 41.631-9.3 77.876v25.469c0 32.325 3.59 55.509 10.77 69.549 7.19 14.041 20.41 21.061 39.68 21.061 19.26 0 34.61-6.53 46.04-19.591s18.77-27.918 22.04-44.571l8.81.98c-6.2 28.081-17.63 48.325-34.28 60.733-16.98 12.735-40.33 19.102-70.04 19.102-37.88 0-66.94-10.122-87.18-30.367-20.25-20.571-30.37-50.448-30.37-89.631 0-39.509 11.43-69.876 34.29-91.1 23.18-21.224 55.34-31.836 96.48-31.836 29.06 0 51.27 5.714 66.61 17.142 15.35 11.102 23.02 25.143 23.02 42.122s-3.75 29.387-11.26 37.224c-7.18 7.836-17.31 11.755-30.37 11.755-12.73 0-23.02-3.429-30.85-10.286-7.84-6.857-11.76-16.979-11.76-30.367 0-5.877.82-11.755 2.45-17.632h16.16c2.29-6.531 3.43-12.408 3.43-17.632 0-15.674-7.84-23.51-23.51-23.51Zm228.44 234.118c-42.12 0-73.8-10.775-95.02-32.326-20.9-21.877-31.35-52.081-31.35-90.611 0-38.856 11.76-68.57 35.27-89.141 23.83-20.571 54.04-30.856 90.61-30.856 74.12 0 109.71 37.223 106.77 111.671h-138.12v19.102c0 31.999 4.08 56.162 12.25 72.488 8.16 16.326 22.36 24.489 42.61 24.489 37.87 0 62.69-20.244 74.44-60.733l8.82 1.469c-6.2 23.51-17.47 41.795-33.79 54.856-16 13.061-40.17 19.592-72.49 19.592Zm-31.35-141.059h50.45V547.84c0-26.449-1.63-44.408-4.9-53.877-2.94-9.796-9.14-14.693-18.61-14.693-9.14 0-16 5.224-20.57 15.673-4.25 10.122-6.37 27.754-6.37 52.897v23.999Z"/></svg>