<svg xmlns="http://www.w3.org/2000/svg" width="1920" height="1080" fill="none"><path fill="#3C4043" fill-rule="evenodd" d="M748.579 141.802c-8.041.221-41.683.464-74.759.541-50.146.115-60.254.278-60.834.976-.505.609-.596 6.12-.334 20.194.199 10.647.506 32.106.684 47.687.335 29.316.752 44.663 1.261 46.383.45 1.523 8.096 1.835 36.344 1.48 13.649-.171 25.164-.178 25.588-.016 1.167.447.797 70.38-.377 71.264-1.006.757-124.914.851-125.672.095-.28-.279-.509-16.389-.509-35.8v-35.293l29.838-.265c33.671-.301 31.403.073 31.373-5.166-.008-1.528-.269-10.042-.579-18.922-.31-8.879-.717-28.07-.903-42.646-.418-32.59-.879-48.3-1.433-48.861-.231-.235-1.791-.49-3.466-.566-3.219-.148-81.268.588-130.07 1.225l-28.938.378-.305 5.483c-.167 3.015-.131 13.159.082 22.541.599 26.476 1.132 58.962 1.211 73.8.04 7.416.245 13.765.456 14.106.261.423 6.155.426 18.356.013 28.392-.963 41.897-.894 43.009.218 1.106 1.105 1.784 36.481 2.366 123.57.255 38.05.571 54.783 1.076 56.86.593 2.441.56 3.221-.195 4.569-.864 1.545-1.215 1.646-6.982 2.012-3.339.211-17.09.417-30.557.457-16.289.047-24.617.284-24.879.708-.455.737-.394 115.823.062 116.279.168.167 5.023.347 10.791.4 40.541.371 95.355.932 119.539 1.224 24.793.3 28.797.225 29.852-.562 1.204-.897 1.219-1.605 1.199-58.764-.017-46.921-.172-58.039-.822-58.823-.709-.853-4.221-.986-30.007-1.135-25.172-.146-29.285-.296-29.783-1.083-.345-.547-.581-14.317-.587-34.248-.009-32.79.011-33.345 1.218-33.99 1.364-.73 45.865-1.523 73.404-1.308 9.047.071 24.125-.116 33.507-.416 9.382-.3 17.402-.415 17.82-.258 1.153.437 1.018 37.943-.191 53.161-.519 6.534-.791 12.977-.606 14.317.622 4.489 2.532 4.232-30.236 4.07-17.316-.086-29.782.086-30.281.418-.692.461-.759 1.944-.369 8.09.623 9.804.625 12.408.032 64.499-.477 41.938-.448 44.224.58 45.076 1.388 1.152 2.477 1.172 83.156 1.513 35.685.151 65.568.308 66.406.349 3.942.193 14.579-.88 14.795-1.494.131-.371.024-3.006-.238-5.854-.262-2.848-.772-18.475-1.132-34.726-.361-16.251-.921-34.756-1.247-41.123-.325-6.366-.598-16.784-.607-23.15-.007-6.367-.216-11.891-.462-12.277-.327-.511-6.045-.654-21.162-.53-11.392.094-23.817-.001-27.61-.213l-6.897-.383.13-84.683c.153-100.333.169-103.071.578-103.48.174-.175 3.95-.459 8.389-.632 4.439-.172 8.409-.532 8.821-.799.412-.267 8.883-.623 18.823-.79 9.941-.168 18.302-.534 18.582-.814.472-.472.341-56.333-.134-57.111-.225-.368-.628-13.481-1.257-40.969-.261-11.367-.585-16.406-1.065-16.55-1.762-.53-10.446-.623-23.843-.256Zm-329.592 1.775c-9.047.168-41.26.373-71.585.455-51.634.14-72.157.361-101.132 1.088-6.534.164-41.488.458-77.676.654l-65.797.356.185 57.056c.102 31.382.406 57.279.677 57.551.27.271 12.275.469 26.678.439 14.403-.029 26.622.113 27.153.317.816.313.981 1.766 1.057 9.308.049 4.916.287 15.928.529 24.473.241 8.544.496 39.523.565 68.843.069 29.319.302 59.399.516 66.845.447 15.519.456 15.483-3.995 15.394-1.54-.031-13.765.111-27.168.315l-24.369.371.087 52.816c.048 29.048.286 55.694.53 59.212l.443 6.397 32.977.129c18.138.071 46.274.143 62.525.16 48.832.051 242.116-.664 242.868-.898.512-.161.64-5.156.477-18.691-.122-10.16-.379-35.47-.571-56.245-.192-20.774-.475-40.65-.628-44.169-.155-3.518-.406-25.142-.56-48.053-.154-22.91-.443-41.818-.641-42.016-.762-.762-75.975-.083-98.081.887-4.356.19-9.918.391-12.36.445-3.101.068-4.602.36-4.976.966-.295.477-.529 3.293-.519 6.258.012 4.123.251 5.649 1.016 6.494 1.462 1.616 9.545 8.537 13.946 11.94 2.094 1.62 3.809 3.11 3.812 3.313.002.201 1.03 1.042 2.284 1.868 1.255.826 3.261 2.334 4.46 3.351 4.634 3.931 6.973 5.818 17.925 14.457.335.264 2.117 1.631 3.96 3.038 1.843 1.406 4.31 3.443 5.483 4.526 1.173 1.082 4.737 3.906 7.92 6.275 6.27 4.665 9.378 7.126 10.905 8.631.536.529 3.031 2.577 5.544 4.551 2.513 1.974 4.844 3.819 5.179 4.099.335.28 2.528 1.826 4.874 3.436 2.744 1.883 4.264 3.337 4.264 4.078 0 1.119-1.304 1.151-46.91 1.13-25.801-.012-56.369-.117-67.929-.233-11.561-.116-39.531.005-62.158.269-31.421.366-41.459.308-42.493-.246l-1.355-.725v-37.161c0-29.197.163-37.211.761-37.396 1.389-.429 27.748-.985 60.162-1.269 17.591-.154 33.251-.423 34.801-.598 2.937-.331 4.798.055 4.798.995 0 .303-1.576 1.541-3.503 2.749a497.61 497.61 0 0 0-8.445 5.476c-2.718 1.803-5.147 3.278-5.397 3.278-.432 0-8.814 5.891-9.461 6.649-.575.674-4.215 3.098-4.652 3.098-.561 0-6.052 3.714-11.259 7.616-2.236 1.675-6.303 4.417-9.037 6.092a507.356 507.356 0 0 0-8.037 5.026c-1.686 1.089-3.208 1.98-3.381 1.98-.175 0-1.316.779-2.536 1.732-2.216 1.729-13.064 8.44-16.842 10.419-.67.351-3.138 1.862-5.483 3.357-2.346 1.495-4.591 2.729-4.99 2.744-1.019.035-1.554 1.078-2.192 4.267-.81 4.056-.756 6.515.168 7.629.747.9 5.674.955 56.614.626 30.688-.198 57.237-.507 58.997-.685 2.163-.219 3.36-.656 3.692-1.347.499-1.038-.057-60.284-.742-79.085-.206-5.651-.504-21.515-.662-35.253-.158-13.739-.467-32.608-.686-41.932l-.4-16.952-1.479-.563c-.867-.329-25.166-.562-58.633-.562-47.881 0-57.267.136-57.852.842-.976 1.175-.979 9.321-.004 10.496.427.514 1.754 1.44 2.95 2.057 1.195.618 4.9 2.928 8.233 5.134 3.334 2.207 6.385 4.012 6.78 4.012.395 0 1.072.426 1.505.947.705.851 6.364 4.52 10.787 6.996.921.516 2.834 1.68 4.251 2.589 1.418.909 2.727 1.653 2.911 1.653.184 0 3.236 1.919 6.782 4.264 3.545 2.346 6.558 4.265 6.695 4.265.138 0 1.409.748 2.827 1.663 2.904 1.874 2.656 1.724 10.244 6.19 3.069 1.806 8.585 5.301 12.26 7.767 3.675 2.467 6.911 4.484 7.193 4.484.282 0 .875.346 1.318.769.442.423 1.49 1.111 2.328 1.529.838.419 2.346 1.307 3.351 1.975 1.005.667 2.672 1.608 3.704 2.09 2.339 1.094 3.685 2.639 2.941 3.375-.754.747-100.061.963-100.805.22-.324-.324-.727-12.36-.936-27.957-.482-35.949-.61-40.873-1.148-44.184-.365-2.241-.247-2.989.603-3.839.995-.995 5.454-1.035 76.678-.683 41.591.206 83.297.44 92.679.521 9.383.082 23.879-.083 32.213-.367 8.335-.283 15.277-.393 15.426-.244.47.47-1.08 2.463-3.168 4.076-1.994 1.538-12.494 11.086-16.717 15.2-1.205 1.172-3.966 3.636-6.137 5.475a457.182 457.182 0 0 0-6.702 5.787 6509.941 6509.941 0 0 1-7.576 6.71c-2.652 2.345-5.259 4.676-5.793 5.178-.534.503-2.463 2.148-4.287 3.656-1.824 1.507-3.747 3.152-4.273 3.655-.527.503-2.961 2.696-5.411 4.874a768.915 768.915 0 0 0-5.834 5.227c-.759.697-3.061 2.588-5.115 4.202-2.055 1.614-3.736 3.132-3.736 3.374 0 .24-1.028 1.134-2.285 1.986-1.256.851-3.998 3.199-6.092 5.218l-3.808 3.671v5.183c0 2.851.262 5.346.583 5.544.685.423 101.378.402 109.309-.023 2.975-.16 5.665-.448 5.976-.641.349-.215.386-23.155.096-59.54-.495-62.428-.623-114.114-.329-133.669.103-6.861-.071-12.172-.419-12.794-.686-1.227.591-1.184-22.308-.758Zm301.668 456.698c-.055.046-27.241.249-60.414.451-109.25.668-151.062 1.036-153.069 1.347l-1.98.308-.028 10.481c-.073 26.772.11 66.161.318 68.358.208 2.198.961 45.637 1.162 67.015.045 4.691.316 8.899.605 9.35.347.542 1.169.699 2.432.463 1.05-.197 23.292-.446 49.428-.555l47.52-.196.19-1.6c.263-2.233-2.432-4.524-15.116-12.853-4.188-2.75-8.575-5.681-9.748-6.514-15.066-10.701-23.206-16.723-29.837-22.074-3.798-3.064-17.565-13.777-25.428-19.786-2.082-1.591-3.795-3.093-3.807-3.338-.013-.245.594-.575 1.348-.733.754-.158 19.739-.453 42.189-.656 22.45-.202 42.052-.421 43.56-.485 2.566-.11 2.811.019 3.827 2.015.999 1.961 1.077 4.31.977 29.243-.137 34.321.494 75.923 1.433 94.43.991 19.535.975 21.074-.238 22.287-.871.87-3.595 1.075-20.105 1.511-22.722.6-30.138 1.083-30.909 2.013-.357.43-.365 8.284-.023 20.795.303 11.057.817 30.326 1.143 42.818.326 12.493.772 23.004.991 23.358.575.932 122.496.523 123.779-.415.802-.586.939-3.768.998-23.168.104-34.265-.403-62.997-1.128-63.982-.523-.71-4.741-.866-24.493-.908l-23.861-.05-.618-1.62c-.373-.977-.785-15.296-1.038-36.042-.488-40.031-.526-41.981-1.195-60.923-.279-7.874-.528-22.363-.554-32.196-.044-16.171.05-17.933.979-18.43.564-.302 6.869-.521 14.012-.486 14.478.071 44.443-.434 60.963-1.028 11.937-.428 12.218-.333 8.833 2.992-1.088 1.07-2.383 2.56-2.876 3.31-.493.75-1.128 1.364-1.411 1.364-.83 0-4.502 2.912-12.298 9.748a5910.338 5910.338 0 0 1-8.529 7.472c-1.62 1.41-7.099 5.699-10.62 8.315-1.54 1.143-2.936 2.266-3.104 2.494-.168.227-1.675 1.444-3.351 2.704-1.675 1.259-3.868 3.017-4.874 3.906-1.005.889-3.335 2.773-5.178 4.188-1.843 1.415-4.173 3.256-5.178 4.092a368.189 368.189 0 0 1-5.484 4.406c-2.01 1.587-5.214 4.367-7.119 6.177-1.906 1.811-4.03 3.688-4.722 4.173-1.364.956-1.733 3.842-.495 3.882 14.131.469 74.737-.667 85.949-1.61 2.288-.193 5.964-.036 8.169.348 3.472.604 4.137.568 4.977-.273.873-.875.96-6.019.865-51.667-.133-64.052-.844-101.481-1.963-103.291-.25-.404-5.066-.71-13.076-.829-6.974-.103-12.725-.151-12.78-.106Zm-305.425 1.441c-24.517.167-44.804.533-45.083.812-1.04 1.039-.023 83.731 1.055 85.763.797 1.505 4.918 1.752 29.32 1.758 17.216.004 22.463.18 22.832.767.736 1.168.099 146.345-.649 147.995-.254.561-.92 1.239-1.481 1.509-.56.268-11.848.58-25.083.692-13.236.112-24.274.41-24.529.662-.556.549-.695 85.24-.142 86.681.553 1.442 14.004 1.947 38.378 1.442 10.723-.223 25.527-.516 32.899-.651 7.371-.135 15.417-.321 17.878-.413 2.461-.091 4.769.016 5.128.237.358.222 1.278.166 2.044-.126.766-.291 8.798-.57 17.851-.621 12.972-.073 16.604-.267 17.14-.914.375-.451.543-1.045.374-1.319-.169-.274-.49-19.271-.713-42.216-.222-22.945-.531-41.844-.685-41.998-.155-.155-11.671-.33-25.591-.39-18.239-.079-25.509-.306-26.018-.815-.805-.803-2.153-115.075-1.621-137.419l.305-12.793 25.405-.305c16.739-.2 25.626-.526 26.053-.953.442-.442.693-14.217.792-43.459.121-36.133.01-42.922-.712-43.521-.979-.813-15.44-.882-85.147-.405Zm-101.64.374c-.67.114-16.626.283-35.458.374-25.456.123-34.424.352-34.963.89-.843.845-.815 12.703.073 31.26.314 6.534.579 21.75.59 33.812.011 12.063.258 22.309.549 22.767.438.692 3.954.77 20.552.454 24.798-.473 26.51-.449 27.505.377.643.533.756 4.725.567 21.128-.13 11.254-.414 21.421-.631 22.594-.218 1.173-.498 3.737-.622 5.698-.124 1.961-.551 3.768-.95 4.014-.398.246-19.505.502-42.458.568-23.689.068-43.074.374-44.833.708-5.573 1.057-9.555.75-12.475-.961-1.453-.852-2.636-1.88-2.628-2.285.007-.404-.05-11.905-.128-25.556-.087-15.255.084-25.032.443-25.369.321-.302 11.82-.704 25.552-.894 21.178-.294 25.07-.485 25.635-1.257.406-.555.572-2.885.425-5.965-.132-2.78-.428-22.326-.655-43.436l-.416-38.381-33.812.053c-57.187.091-90.654.611-91.634 1.424-.734.609-.871 6.696-.891 39.526-.013 21.343.17 40.451.406 42.461l.43 3.655 3.96.413c2.178.227 6.427.704 9.443 1.061s11.866.651 19.667.654c10.801.004 14.245.186 14.438.766.426 1.273.825 147.679.404 148.348-.252.4-8.633.707-23.419.855-19.485.197-23.122.371-23.638 1.135-.876 1.296-.44 86.245.447 87.132.635.635 9.439.678 97.188.474 13.291-.03 24.461-.238 24.823-.463.462-.285.678-13.721.723-44.846l.065-44.44h-48.557v-23.455c0-23.84.332-30.549 1.583-32.057.572-.689 4.834-.841 23.452-.841 12.513 0 29.683-.325 38.154-.721 8.471-.397 20.611-.739 26.977-.762l11.576-.041.189 12.185c.208 13.327-.871 43.571-1.579 44.279-.244.244-10.815.699-23.49 1.01-12.676.312-23.301.82-23.61 1.129-.479.479-1.173 86.971-.708 88.367.235.708 80.235.292 100.982-.525 10.052-.396 19.419-.762 20.814-.814 3.029-.112 4.557-1.203 4.19-2.988-.147-.716-.445-19.669-.661-42.119-.216-22.449-.52-41.023-.676-41.275-.156-.251-10.926-.458-23.933-.458-19.975 0-23.764-.138-24.386-.888-.886-1.068-.443-36.826.868-70.087.159-4.021.321-23.212.36-42.646.063-30.739.193-35.47 1.001-36.371.839-.936 2.982-1.039 22.237-1.072 14.396-.025 21.718-.257 22.573-.714l1.265-.677-.379-43.283c-.301-34.338-.541-43.386-1.165-43.781-.733-.465-48.684-.599-51.351-.143Z" clip-rule="evenodd"/><path fill="#3C4043" d="m1642.73 142.793 16-.43c8.79-.237 42.07-.509 73.95-.606l57.95-.176.38 1.818c.83 3.914 1.32 87.062.52 88.55-.74 1.381-2.12 1.514-17.2 1.647-9.01.079-20.94.222-26.49.318l-10.1.173-.27 8.887c-.15 4.887.13 13.976.63 20.197.5 6.221 1.29 24.036 1.76 39.588.46 15.552.98 31.003 1.15 34.336.17 3.333.43 13.694.58 23.026.28 17.284.73 19.859 3.68 20.992.61.233 11.39.466 23.96.519 12.58.053 23.29.359 23.81.681 1.67 1.03 2.34 14.838 2.61 53.631l.26 37.852-64.57-.122c-35.52-.067-64.81-.265-65.09-.441-.29-.176-.6-4.975-.69-10.665-.1-5.69-.51-16.89-.93-24.888-.4-7.998-.82-21.814-.92-30.701-.1-8.887-.46-17.43-.8-18.985-.35-1.555-.37-3.063-.06-3.352.31-.289 11.21-1.186 24.23-1.993 13.01-.807 24-1.68 24.42-1.938.69-.424-.05-32.333-1.1-47.655-.2-2.889-.65-18.158-.99-33.933-.34-15.774-.7-30.68-.8-33.124-.1-2.444-.42-10.26-.72-17.37-.63-15.328-1.02-18.391-2.29-17.969-.51.173-1.23 1.741-1.58 3.486-.36 1.745-1.19 4.318-1.84 5.718-.66 1.4-1.2 3.169-1.2 3.931s-.54 3.07-1.2 5.13c-.66 2.059-2.26 7.016-3.55 11.015-1.29 3.999-3.13 9.998-4.09 13.33-.96 3.333-2.27 7.254-2.92 8.713-.64 1.459-1.18 3.277-1.19 4.039-.02.763-.73 2.841-1.59 4.618-.86 1.778-1.58 3.777-1.59 4.444-.02.666-.58 2.253-1.24 3.525-.67 1.274-1.21 3.019-1.21 3.878 0 .86-.51 2.558-1.14 3.773-.63 1.215-1.41 3.652-1.72 5.414-.32 1.762-.84 3.567-1.16 4.011-.32.445-1.41 3.535-2.42 6.868-1.01 3.332-2.31 7.331-2.89 8.887-.58 1.555-1.86 5.372-2.84 8.483-.98 3.11-2.24 6.746-2.81 8.079-.56 1.333-1.83 5.15-2.81 8.483-.99 3.333-2.28 7.332-2.86 8.887-.59 1.555-1.31 4.034-1.6 5.507-.29 1.475-1.03 3.656-1.66 4.848-.62 1.192-1.13 2.609-1.13 3.15 0 .54-.52 2.176-1.16 3.636-.63 1.459-1.97 5.379-2.98 8.712s-2.31 6.968-2.89 8.079c-.57 1.111-1.05 2.462-1.05 3.002 0 .541-.51 2.177-1.12 3.636-.62 1.459-1.75 4.653-2.53 7.097-.78 2.444-1.88 5.534-2.44 6.867-.56 1.333-1.83 4.969-2.83 8.079-1.97 6.13-4.47 13.119-6.07 16.966-.55 1.333-1.25 3.601-1.55 5.041-.31 1.439-.89 2.823-1.3 3.077-.41.253-.75 1.362-.75 2.465 0 1.102-.72 3.43-1.61 5.171-.89 1.742-1.62 3.888-1.62 4.768 0 .88-.33 1.808-.74 2.061-.41.254-.99 1.548-1.28 2.876-.67 3.044-3.77 4.081-6.05 2.021-.84-.765-2.53-4.535-3.74-8.377-1.21-3.841-2.46-7.53-2.78-8.196-.31-.667-1.36-3.393-2.32-6.059-.96-2.667-2.28-5.877-2.92-7.135-.65-1.258-1.17-2.657-1.17-3.11 0-.452-.53-1.968-1.18-3.368-1.57-3.392-3.62-9.159-4.5-12.645-.39-1.555-1.75-5.372-3.02-8.483-1.28-3.11-3.17-8.382-4.2-11.714-1.04-3.333-2.2-6.405-2.58-6.827-.37-.422-.68-1.336-.68-2.032 0-.695-.73-2.621-1.62-4.279-.89-1.658-1.61-3.549-1.61-4.202 0-1.098-.92-3.508-3.69-9.725-.59-1.333-1.44-3.696-1.88-5.252-1.22-4.331-3.24-9.94-4.13-11.501-.45-.772-.82-2.044-.83-2.828-.02-.783-.73-2.879-1.59-4.657-.86-1.777-1.58-3.761-1.59-4.41-.03-1.07-4.11-11.411-6.87-17.403-.62-1.333-2.27-5.696-3.68-9.695-3.45-9.804-6.49-17.6-7.25-18.582-.34-.444-.89-2.08-1.21-3.636-.33-1.555-1-3.324-1.49-3.931-1.08-1.343-2.79-5.846-3.87-10.207-.44-1.777-1.14-3.577-1.56-3.999-.42-.422-.77-1.331-.79-2.02-.01-.688-.73-2.706-1.59-4.484-.85-1.777-1.57-3.691-1.58-4.253-.02-.561-.39-1.652-.83-2.423-.44-.772-1.31-2.857-1.94-4.635-2.65-7.582-3.2-8.997-4.24-11.031-.61-1.179-1.1-2.695-1.1-3.368s-.52-2.253-1.16-3.511c-2.05-4.033-4.5-10.621-4.51-12.132-.01-.806-.37-2.011-.81-2.678-1.6-2.437-2.38 1.082-2.4 10.73 0 7.707-.24 9.607-1.22 9.983-1.6.614-1.53 1.522.32 4.163 1.33 1.895 1.6 4.252 2.02 17.539.26 8.443.82 19.35 1.25 24.238.69 8.021 1.03 19.742 2.07 71.904l.33 16.158 20.84.263c11.46.146 21.09.509 21.4.808.78.748 1.38 22.317 1.63 57.906l.21 29.893-50.08.533c-27.54.293-66.99.656-87.65.808-20.66.151-38.11.544-38.78.872-3.26 1.608-3.31.98-3.2-41.063.06-22.179.06-42.089.01-44.244-.06-2.156.32-4.429.84-5.05.75-.91 4.67-1.133 20.02-1.142 10.5-.008 19.59-.329 20.2-.716.92-.583 1.08-7.439.95-40.181-.1-21.713-.51-53.293-.94-70.179-.42-16.885-.74-32.192-.71-34.015.02-1.865-.44-3.713-1.06-4.227-.73-.614-7.95-.984-22.02-1.13l-20.92-.215-.18-16.159c-.09-8.887-.38-28.391-.63-43.344-.29-16.965-.16-27.968.33-29.268l.8-2.082 64.19-.028 64.19-.027 2.17 4.654c3.08 6.611 4.18 9.345 8.41 20.813.98 2.666 2.3 5.812 2.94 6.992.63 1.179 1.15 2.648 1.15 3.263 0 .615.73 2.544 1.62 4.287.88 1.744 1.62 3.729 1.64 4.412.01.685.56 1.95 1.21 2.812.65.863 1.19 2.08 1.19 2.706 0 .625.49 2.283 1.1 3.683 5.95 13.707 9.43 22.073 9.44 22.743.01.445.71 2.262 1.57 4.04.86 1.777 1.58 3.846 1.59 4.598.02.751.36 1.573.78 1.826.41.254 1 1.637 1.32 3.074.56 2.591 1.6 5.275 4.42 11.507 2.65 5.841 4.01 9.123 4.01 9.667 0 .295.96 2.603 2.14 5.129 2.45 5.292 4.92 11.529 6.03 15.258.43 1.422 1.3 3.603 1.95 4.847.65 1.245 1.19 2.688 1.19 3.208 0 .519.53 1.973 1.18 3.231 1.67 3.248 6.9 16.696 6.9 17.732 0 1.452 3.2 3.903 4.01 3.078.41-.411 1.12-2.203 1.57-3.98 1.78-7.056 3.22-12.233 4.03-14.542 2.15-6.077 4.13-12.63 4.13-13.673 0-.628.5-2.172 1.11-3.43.62-1.258 1.66-4.105 2.33-6.327.66-2.222 2.02-6.766 3.02-10.099.99-3.332 2.26-7.331 2.81-8.887 2.75-7.73 6.28-18.525 6.99-21.378.43-1.759 1.09-3.577 1.46-4.039.37-.462.94-2.1 1.27-3.641.33-1.541.88-3.358 1.21-4.039.34-.681 1.32-3.238 2.19-5.682.87-2.444 2.04-5.716 2.59-7.272.56-1.555 1.36-4.267 1.79-6.027.43-1.76 1.07-3.578 1.42-4.04.36-.461 1.5-3.566 2.54-6.899 1.04-3.332 2.22-6.494 2.61-7.025.39-.532 1.19-2.895 1.78-5.252 1.13-4.554 2.37-8.277 4.17-12.593.6-1.46 1.1-3.096 1.11-3.636 0-.541.89-3.164 1.97-5.83l1.98-4.847ZM868.882 152.463c9.606-3.774 25.215-6.78 39.539-7.614 20.051-1.168 38.544-.62 48.879 1.448 7.09 1.419 23.964 11.435 30.275 17.971 7.474 7.739 16.315 18.593 20.015 24.576 2.53 4.092 5.93 12.336 8.23 19.948 1.39 4.581 3.1 10.13 3.8 12.332.71 2.202 1.58 5.838 1.95 8.08 1.38 8.503 1.89 9.73 4.03 9.73 1.49 0 2.06-.491 2.27-1.975.31-2.219-1.4-11.317-2.36-12.577-.35-.45-1.22-3.177-1.94-6.059-2.47-9.91-2.77-10.917-5.27-17.362-6.51-16.764-12.91-26.067-29.147-42.345-4.043-4.054-10.522-8.956-11.837-8.956-.458 0-1.267-.524-1.799-1.164-.53-.64-1.91-1.276-3.066-1.414-1.155-.138-2.251-.71-2.435-1.273-.48-1.458 74.874-1.417 76.844.042 1.15.848 1.43 4.269 2.11 25.219.43 13.33.98 28.418 1.22 33.528.64 13.754.7 68.383.07 69.406-.35.556-4.05.882-10.02.882-9.94 0-11.8-.549-14.67-4.313-2.93-3.848-13.42-13.665-15.42-14.433-.71-.271-4.71-2.811-8.89-5.646-7.961-5.396-18.953-11.156-21.289-11.156-.753 0-2.099-.391-2.993-.87-.894-.478-3.324-1.348-5.4-1.932-2.076-.584-6.502-1.855-9.835-2.824-12.764-3.714-17.539-4.298-37.971-4.639-20.122-.336-21.592-.198-31.818 3.012-4.374 1.372-14.479 7.65-18.064 11.223-5.03 5.013-7.744 11.229-7.792 17.844-.045 6.269 1.113 8.757 6.634 14.246 4.007 3.985 16.303 10.799 19.486 10.799.884 0 2.8.51 4.259 1.133 5.089 2.173 19.911 3.661 36.989 3.71 20.902.061 37.368 1.527 54.534 4.856 5.938 1.152 15.45 3.975 18.18 5.397 1.11.579 2.44 1.054 2.96 1.057.81.004 5.1 2.06 10.17 4.875.77.432 1.93 1.058 2.56 1.391 7.68 4.063 23.16 18.571 28.61 26.813 4.43 6.687 10.96 20.091 12.82 26.307 1.2 3.998 1.45 7.822 1.45 21.814 0 17.125-.62 22.297-4.02 33.528-.6 2-1.31 4.635-1.58 5.858-.27 1.222-.85 2.221-1.28 2.221-.44 0-.79.509-.79 1.132 0 1.327-3.02 7.843-5.35 11.568-4.47 7.128-14.48 17.47-22.16 22.897-5.61 3.966-18.35 10.454-20.53 10.454-.73 0-2.31.5-3.51 1.109-1.2.61-4.36 1.362-7.027 1.67-2.666.309-6.12.871-7.675 1.249-1.555.378-7.19.892-12.523 1.142-15.887.745-68.48.597-71.096-.2-3.943-1.203-7.035-2.75-11.1-5.557-2.107-1.454-4.14-2.644-4.52-2.644-.38 0-5.086-4.507-10.459-10.015-10.128-10.384-15.045-16.843-19.129-25.13-1.314-2.666-2.586-5.029-2.828-5.251-.241-.222-.926-1.676-1.523-3.232a841.333 841.333 0 0 0-2.687-6.867c-.88-2.222-1.931-5.13-2.336-6.463-.404-1.333-1.071-3.151-1.483-4.04-2.05-4.43-5.061-16.353-5.674-22.468-.036-.36-1.429-.542-3.095-.404-2.771.229-3.052.477-3.285 2.894-.139 1.453.315 4.599 1.01 6.991.696 2.392 1.265 5.329 1.265 6.527 0 1.197.529 3.322 1.175 4.723 1.414 3.06 3.535 8.906 4.442 12.24.363 1.333 2.889 6.849 5.614 12.256 4.23 8.394 6.966 12.514 15.421 23.223 3.926 4.974 17.091 17.87 20.004 19.597 1.889 1.119 3.434 2.637 3.434 3.372 0 1.221-2.657 1.338-30.499 1.338-16.773 0-32.018.315-33.874.699-3.011.625-3.592.485-5.369-1.292l-1.991-1.991-.139-58.494c-.076-32.171-.29-61.109-.475-64.307-.476-8.215-.23-8.385 11.78-8.18l9.587.165 4.271 5.702c5.264 7.029 11.536 13.18 18.432 18.077 2.889 2.051 5.433 3.956 5.656 4.234 2.01 2.512 25.736 13.17 33.124 14.88 2.444.567 5.352 1.384 6.463 1.817 1.98.771 8.403 2.082 23.114 4.717 8.617 1.543 25.175 1.244 39.499-.714 12.469-1.705 19.066-4.221 28.843-10.999 9.963-6.91 16.543-19.947 15.493-30.707-.29-2.913-.79-5.66-1.11-6.105-.32-.444-.81-1.717-1.08-2.827-.79-3.271-10.98-12.927-13.629-12.927-.843 0-2.515-.508-3.716-1.129-4.298-2.223-26.35-5.933-38.939-6.551-5.11-.251-11.654-.62-14.543-.821-2.888-.2-12.522-.728-21.409-1.174-18.382-.921-28.871-1.659-29.553-2.08-.257-.158-2.97-.688-6.028-1.176-3.058-.489-5.938-1.183-6.399-1.543-.462-.359-1.854-.896-3.093-1.192-1.241-.297-4.951-1.801-8.244-3.343-3.295-1.543-6.225-2.805-6.511-2.805-.68 0-9.256-5.221-14.847-9.039-6.683-4.563-16.946-16.449-20.596-23.851-5.639-11.437-5.231-10.373-7.673-20.028-2.708-10.703-2.969-21.427-.925-37.971 1.064-8.612 2.352-11.886 9.949-25.276 2.111-3.72 3.838-6.98 3.838-7.244 0-.264 1.818-2.57 4.039-5.123 2.222-2.555 4.061-4.946 4.087-5.315.025-.368 2.417-2.669 5.314-5.113 2.898-2.444 5.876-4.995 6.619-5.668 2.569-2.326 12.778-8.074 17.961-10.111ZM1552.45 539.268c.02-14.549.21-26.726.41-27.061.42-.693 86.17-.766 87.97-.074.64.248 1.18.867 1.18 1.375.01.508 1.62 4.869 3.59 9.692 1.97 4.824 3.82 9.847 4.11 11.164.29 1.316 1.03 3.369 1.66 4.561.62 1.192 1.13 2.575 1.13 3.075.01.782 1.18 3.793 4.04 10.403 1.37 3.144 3.02 7.33 4.78 12.119.98 2.666 2.29 5.938 2.92 7.271 1.67 3.595 6.84 17.028 6.88 17.861.01.396.73 2.175 1.58 3.953.86 1.777 1.58 3.595 1.6 4.039.04 1.067 3.68 9.989 4.35 10.656.28.286.52 1.299.52 2.251s.46 2.365 1.03 3.14c.96 1.318 1.13 1.289 2.66-.452.89-1.023 2.5-4.587 3.58-7.92 1.08-3.332 2.43-6.633 3-7.335.57-.701 1.04-1.719 1.04-2.263 0-.812 2.35-6.751 7.23-18.275.37-.888 1.46-3.615 2.42-6.059 1.94-4.949 2.42-6.079 4.75-11.311a285.24 285.24 0 0 0 3.4-8.079c.98-2.444 2.79-6.625 4.02-9.291 1.23-2.666 2.96-6.483 3.84-8.483.87-1.999 2.19-4.963 2.91-6.585.73-1.622 1.32-3.203 1.32-3.514 0-.31.52-1.709 1.16-3.109.64-1.4 1.71-3.909 2.38-5.576l1.23-3.029h44.83c24.66 0 45 .273 45.2.606.2.332.6 12.239.88 26.459.27 14.219.7 27.761.94 30.094.48 4.571.53 4.525-4.24 4.268-1.41-.075-7.23-.204-12.93-.284l-10.37-.146v100.989l13.05.221c9.4.16 13.15.498 13.4 1.212.64 1.762-.38 50.479-1.08 51.606-.55.887-7.6 1.117-37.74 1.232l-37.07.141-.53-15.823c-.29-8.703-.53-20.855-.53-27.005v-11.18h12.07c8.1 0 12.26-.301 12.64-.912.31-.502.68-19.316.83-41.81.15-22.494.57-43.738.94-47.209.68-6.372.05-8.685-1.43-5.249-.44 1.026-1.15 2.411-1.56 3.078-1.63 2.595-3.4 7.021-4.15 10.322-.42 1.899-1.65 5.277-2.73 7.506-1.07 2.228-2.2 5.218-2.5 6.644-.31 1.426-1.02 3.502-1.58 4.613-3.46 6.813-9.3 21.408-9.3 23.243 0 .675-1.62 4.773-3.61 9.105-1.98 4.332-4.9 11.46-6.48 15.839s-3.59 9.307-4.47 10.95c-.88 1.643-1.59 3.438-1.59 3.986 0 .55-.75 2.659-1.67 4.688-4.82 10.673-9.64 23.224-9.64 25.092 0 .84-.34 1.734-.75 1.986-.41.253-1.89 3.638-3.29 7.521-3.88 10.753-4.97 12.683-7.28 12.952-1.67.195-2.25-.318-3.43-3.035-.78-1.799-1.41-3.784-1.41-4.412 0-.627-.51-2.17-1.14-3.428-2.28-4.623-3.71-8.44-3.71-9.944 0-.848-1.26-4.663-2.79-8.476-1.54-3.812-3.04-8.199-3.33-9.749-.29-1.549-.85-3.016-1.24-3.259-.4-.243-.73-1.058-.75-1.809-.01-.751-.73-2.82-1.58-4.598-.86-1.777-1.58-3.769-1.59-4.428-.02-.658-.8-3.202-1.75-5.655a846.343 846.343 0 0 1-5.15-13.75c-.57-1.555-2.04-5.168-3.26-8.028-1.22-2.86-2.68-6.859-3.25-8.887-1.5-5.378-3.67-11.364-6.9-19.037-.92-2.177-3.07-8.293-4.03-11.472-.44-1.422-1.32-3.603-1.97-4.847-.65-1.245-1.18-2.878-1.18-3.629-.01-.752-.32-1.56-.71-1.797-.38-.238-1.16-2.086-1.72-4.108-.57-2.023-1.35-3.871-1.73-4.108-.38-.237-.7-.977-.7-1.645 0-1.548-3.97-10.002-4.7-10.002-.3 0-.55 21.1-.55 46.888 0 37.312.21 47.019 1.04 47.53.57.353 6.65 1.128 13.5 1.724 6.86.595 12.88 1.336 13.39 1.648 1.09.677 1.96 50.3.91 52.179-.88 1.557-13.89 1.918-74.49 2.068l-46.45.115-.52-6.797c-.61-8.015-.28-48.274.4-48.959.26-.259 6.39-.416 13.63-.348 7.23.068 13.58-.162 14.1-.509.97-.646 1.36-11.776 2.28-66.05.22-13.33.63-27.049.89-30.487l.49-6.249-2.3-.935c-1.27-.514-7.76-1.107-14.43-1.318-6.66-.211-12.73-.708-13.49-1.103-1.25-.656-1.37-3.073-1.33-27.173ZM1232.11 516.677c43.48-.189 79.42-.484 79.86-.656 1.16-.448 7.85.463 9.36 1.275 1.13.602 1.35 4.727 1.82 33.582.87 53.586.73 69.432-.62 70.557-.87.719-8.06.864-28.47.575-31.92-.452-31.71-.396-24.87-6.81 6.05-5.671 16.54-15.019 19.76-17.614 2.7-2.176 9.4-8.524 20.66-19.58 2.85-2.804 5.19-5.401 5.19-5.771 0-1.238-1.96-1.361-11.31-.708-5.11.357-20.56.296-34.34-.135-48.4-1.517-68.98-1.595-70.31-.268-1.47 1.471-1.4.272-1.21 22.079.11 12.715.44 18.476 1.11 19.171.71.738 7.51 1.032 26.46 1.144 14.02.084 25.92-.113 26.44-.436 1.1-.677-.16-3.721-1.54-3.721-.44 0-3.14-1.727-5.99-3.838-2.84-2.111-7.01-5.11-9.26-6.665-4.42-3.052-10.63-7.463-15.79-11.209-1.77-1.291-5.18-3.387-7.56-4.658-4.41-2.355-8.15-6.413-6.88-7.457.39-.318 7.43-.286 15.65.071l28.69 1.246 13.73.597v15.351c0 8.442-.25 17.35-.55 19.793-.3 2.444-.73 14.941-.97 27.772-.24 12.829-.66 23.554-.94 23.833-.27.278-13 .618-28.27.756-27.07.243-32-.122-30.67-2.272.25-.402 5.26-3.913 11.13-7.805 5.88-3.891 12.14-8.214 13.91-9.608 1.78-1.393 3.78-2.785 4.45-3.094 1.31-.608 2.54-1.344 8.08-4.853 8.82-5.59 10.8-7.027 11.95-8.665 1.19-1.698 1.15-1.729-1.53-1.254-1.51.267-13.76.737-27.22 1.045-13.79.316-24.68.893-24.94 1.322-.26.418-.66 9.977-.88 21.24l-.41 20.478 1.92.398c1.68.347 69.19 1.472 101.3 1.688 6.22.042 12.07.344 13.01.67 2.03.711 3.82-1.021 3.07-2.974-.28-.724-.74-1.315-1.04-1.315-.29 0-2.21-1.363-4.25-3.03-2.05-1.665-4.59-3.575-5.64-4.24-1.06-.667-5.01-4.188-8.79-7.824-3.78-3.637-7.59-7.283-8.48-8.101-.89-.819-2.53-2.57-3.65-3.892-1.12-1.321-3.57-3.45-5.45-4.73-4.34-2.961-10.1-9.169-9.67-10.437.4-1.173 53.58-1.247 54.69-.076.37.397.9 17.992 1.16 39.098.27 21.107.71 42.975.99 48.595l.49 10.221-2.28 1.494c-2.13 1.401-5.32 1.521-50.38 1.9-26.46.222-63.56.404-82.45.404h-34.33l.14-27.663c.09-15.214.38-28.029.66-28.478.29-.474 4.38-.817 9.73-.817 8.92 0 9.24-.061 9.6-1.818.66-3.199 1.14-98.354.5-98.748-.34-.209-5.21-.422-10.82-.475-5.62-.053-10.41-.419-10.66-.813-1.09-1.773-3.6-51.155-2.67-52.656.36-.577 25.66-.956 79.58-1.191ZM860.755 521.866c6.753-3.158 10.512-4.008 20.197-4.567 25.932-1.499 41.62.769 51.087 7.384 4.42 3.088 14.174 12.18 16.38 15.269 1.157 1.62 3.839 5.702 4.997 7.604 1.89 3.105 5.096 10.309 5.096 11.451 0 .633.502 2.133 1.116 3.334.614 1.199 1.383 3.817 1.71 5.816.788 4.834 1.735 6.464 3.754 6.464 1.439 0 1.615-.37 1.249-2.626-1.395-8.583-6.185-22.391-8.855-25.524-.628-.736-2.477-3.578-4.11-6.313-3.057-5.122-9.642-11.773-15.872-16.032-1.951-1.333-4.436-3.24-5.523-4.238l-1.976-1.814 24.426.398c13.434.219 24.756.602 25.16.852.404.25.734 2.668.734 5.374 0 2.705.561 14.408 1.245 26.007.685 11.598 1.139 27.814 1.01 36.034l-.235 14.947-10.288.073-10.287.075-2.37-2.498c-7.669-8.08-11.265-10.677-19.02-13.735-12.19-4.806-17.406-6.132-24.185-6.15-3.609-.009-8.776-.48-11.48-1.048-3.422-.717-7.357-.844-12.927-.418-25.906 1.982-33.133 5.635-34.063 17.214l-.407 5.075 4.215 3.331c2.317 1.833 4.927 3.332 5.797 3.332.871 0 2.619.535 3.883 1.189 1.264.654 6.427 1.577 11.472 2.052 5.046.475 11.537 1.206 14.425 1.624 2.889.417 9.069.773 13.735.79 4.666.018 10.846.409 13.734.87 2.889.459 8.042 1.152 11.453 1.538 3.41.386 6.931 1.093 7.823 1.571.893.478 2.284.871 3.091.874.807.003 2.376.488 3.487 1.078 8.988 4.772 11.999 6.532 15.574 9.1 5.586 4.013 11.895 10.004 11.895 11.297 0 .583 1.051 2.624 2.335 4.535 3.286 4.887 5.05 9.225 5.849 14.38a301.564 301.564 0 0 0 1.455 8.484c1.254 6.599 1.022 19.881-.43 24.75a5528.9 5528.9 0 0 1-2.998 9.99c-2.496 8.281-12.421 20.346-19.934 24.23-1.497.774-4.472 2.638-6.61 4.141-2.139 1.504-4.251 2.733-4.693 2.733-.442 0-2.9 1.066-5.461 2.368-3.536 1.798-6.603 2.582-12.737 3.255-12.963 1.424-24.734 1.796-29.084.921-2.222-.447-6.403-1.187-9.291-1.643-9.758-1.543-16.24-3.043-17.171-3.974-.51-.51-1.565-.927-2.345-.927-1.354 0-5.192-2.272-8.2-4.855-1.789-1.535-9.803-11.288-13.602-16.554-3.491-4.838-5.432-8.61-8.316-16.159-1.189-3.11-2.699-6.874-3.356-8.365-.656-1.49-1.418-4.34-1.691-6.332-.542-3.954-2.301-5.39-3.909-3.191-.79 1.081-.774 1.977.082 4.372.591 1.658 1.091 3.762 1.11 4.677.02.915.57 2.369 1.222 3.232.653.862 1.198 2.477 1.213 3.588.014 1.11 1.292 4.564 2.839 7.675 1.548 3.11 2.82 5.896 2.827 6.19.008.294 1.538 3.203 3.4 6.463 2.243 3.928 5.949 8.463 10.979 13.437 4.434 4.382 7.422 7.958 7.18 8.589-.228.595-1.624 1.215-3.103 1.379-4.667.517-38.838-.789-39.56-1.511-1.541-1.542-2.513-20.07-2.595-49.494-.085-30.664.388-39.144 2.22-39.847.513-.197 3.54-.172 6.727.056 5.326.382 5.863.586 6.634 2.531 1.158 2.923 6.061 9.676 9.252 12.745 8.223 7.91 30.721 18.379 43.001 20.011 2.172.288 5.404.779 7.181 1.092 5.458.958 31.18.606 35.005-.479 7.606-2.158 14.399-6.768 18.132-12.303 3.959-5.871 4.666-10.558 2.629-17.422-1.726-5.81-6.077-9.468-15.37-12.92-3.097-1.151-5.11-1.559-17.774-3.601-3.111-.501-11.058-.874-17.66-.828-6.603.046-14.419-.29-17.37-.747-2.952-.455-7.911-1.23-11.021-1.72-3.111-.492-8.336-1.939-11.612-3.219-3.276-1.279-6.512-2.326-7.19-2.326-2.034 0-14.124-7.011-17.011-9.865-3.296-3.258-7.28-8.721-9.892-13.564-1.08-2-2.416-4.117-2.972-4.703-.555-.588-1.01-1.907-1.01-2.931 0-1.026-.583-3.261-1.296-4.968-.95-2.274-1.316-5.931-1.37-13.678-.074-10.957.454-13.4 4.972-23.003 5.301-11.268 18.221-24.921 27.587-29.149 1.555-.703 4.1-1.872 5.656-2.6ZM1040.23 519.584c27.71-.058 57.83-.377 66.94-.708 18.76-.684 39.59-.208 40.8.932.51.485.89 16.581 1.04 44.148.13 23.862.54 44.935.91 46.83.38 1.894.44 3.592.15 3.772-.29.18-8.7.571-18.68.867-26.09.775-29.56.958-36.62 1.943-3.48.486-6.66.68-7.07.431-1.25-.777-.8-2.687.84-3.568.87-.463 3.21-2.202 5.21-3.866 3.59-2.994 11.42-8.967 16.39-12.504 2.44-1.736 12.63-9.488 14.44-10.988 1.04-.863 8.49-6.121 12.97-9.155 3.86-2.612 5.62-4.53 4.86-5.288-.3-.296-3.78-.079-7.73.481-3.96.561-17.96 1.159-31.11 1.33-13.15.171-24.25.515-24.65.764-.42.26-.73 14.662-.72 33.765.01 32.587-.65 63.483-1.42 66.166-.21.74.02 1.594.51 1.897.5.304 7.33.521 15.19.483 7.85-.039 14.71.2 15.22.531.8.509 1.56 20.324 1.94 50.665.05 3.352-.96 3.444-39.72 3.595-22.11.086-38.06.468-39.3.942-4.57 1.737-4.48 2.334-4.01-27.359.24-14.989.46-27.304.5-27.366.04-.063 6.78-.246 14.98-.409 10.22-.202 15.22-.602 15.89-1.271.54-.536.95-2.897.91-5.246-.08-4.898-.04-26.109.1-68.904l.11-29.893-28.48-.095c-26.14-.087-28.48.017-28.48 1.26 0 1.236 9.22 9.168 17.31 14.895 1.81 1.279 5.84 4.492 8.95 7.141 3.11 2.649 6.38 5.119 7.27 5.489.89.37 2.53 1.519 3.64 2.554 1.11 1.034 3.78 3.295 5.93 5.024 5.15 4.146 7.9 7.174 7.18 7.885-.97.937-58.969 1.208-59.898.28-.461-.462-1.034-8.648-1.33-18.986-.286-9.997-.634-20.539-.774-23.427-.14-2.889-.466-13.977-.724-24.642-.258-10.664-.661-21.635-.896-24.381-.235-2.745-.093-5.198.315-5.45.408-.252 23.407-.506 51.117-.564ZM1666.65 771.092c7.04-3.672 11.26-4.963 18.98-5.808 10.22-1.118 29.61-.348 34.74 1.38 5.2 1.749 8.08 3.471 8.08 4.823 0 .53.67 1.174 1.48 1.432.81.259 2.54 1.816 3.84 3.462 1.29 1.646 2.9 3.58 3.57 4.298 2.61 2.823 8.05 13.437 8.07 15.754 0 .91.41 2.058.9 2.55.49.492 1.14 2.11 1.45 3.595.77 3.761 2.12 2.988 2.01-1.149-.12-4.201-2.28-10.424-5.12-14.732-1.18-1.777-2.38-3.867-2.68-4.645-.3-.778-.89-1.414-1.32-1.414-.43 0-.98-.636-1.23-1.414-.45-1.382-1.76-2.834-7.97-8.796-1.68-1.616-2.93-3.344-2.76-3.837.2-.604 4.96-.972 14.46-1.12 12.58-.196 14.35-.06 15.85 1.212 1.64 1.392 1.69 2.202 1.93 28.497l.24 27.065-4.2.243c-3.19.185-4.56-.107-5.68-1.211-1.79-1.76-8.4-5.091-10.1-5.091-.68 0-1.65-.506-2.16-1.124-.52-.618-1.92-1.304-3.13-1.524-1.21-.219-3.29-.787-4.62-1.262-7.31-2.6-14.48-3.559-29.59-3.955-14.73-.386-16.22-.293-21.11 1.335-7.21 2.399-11.92 6.832-11.92 11.224 0 3.051 2.68 7.883 5.8 10.444 3.62 2.979 15.79 5.159 39.45 7.067 18.5 1.493 23.78 2.661 33.53 7.429 6.14 3.003 6.9 3.551 11.55 8.328 9.84 10.094 13.26 23.774 10.86 43.461l-.91 7.5-5.23 6.639c-2.87 3.651-6.25 7.446-7.52 8.432-5.8 4.536-6.7 5.074-8.52 5.074-1.07 0-3.74 1.182-5.93 2.625l-4 2.626-23.02.238c-12.67.132-23.87.028-24.91-.231-2.34-.588-15.47-13.888-19.41-19.671-4.58-6.706-6.44-10.033-7.02-12.504-.29-1.253-1.03-3.252-1.65-4.444-.63-1.192-1.14-2.959-1.14-3.928-.01-1.921-2.15-4.526-3.39-4.113-.98.326-.97.528.24 5.923.55 2.457 1.3 4.654 1.67 4.883.37.228.67.994.67 1.703 0 1.465 3.76 9.709 5.14 11.265a42.15 42.15 0 0 1 1.73 2.094c2.89 3.813 8.16 9.947 8.77 10.201 2.95 1.238 5.11 7.241 3.07 8.507-.96.592-30.29-1.207-31.06-1.906-.34-.314-.84-6.54-1.09-13.837-.26-7.295-.56-13.371-.69-13.501-.12-.131-.48 6.143-.81 13.942-.32 7.799-.94 14.4-1.38 14.67-.44.27-17.58.825-38.09 1.233-20.51.407-40.93.872-45.37 1.033-4.44.161-16.16.488-26.03.726l-17.95.434-2.04-2.43c-2.01-2.385-2.05-2.693-2.13-16.305-.04-7.631-.13-16.225-.2-19.098-.11-4.816.03-5.302 1.9-6.249 1.16-.589 4.96-1.032 8.93-1.038 9.77-.017 10.02-.28 8.96-9.35-.73-6.326-1.1-22.014-1.28-55.295-.05-8.979-.59-11.82-2.09-10.898-.39.243-4.06.471-8.16.51-5.94.056-7.65-.191-8.4-1.214-.97-1.322-3.25-32.795-2.7-37.276l.29-2.424 15.35-.498c8.45-.274 38.08-.783 65.85-1.131 47.8-.6 50.56-.558 51.69.799 1 1.205 1.22 7.256 1.44 37.991l.25 36.559-1.85.494c-3.39.909-40.08.587-40.67-.355-.47-.768 14.52-16.126 28.17-28.864 2.53-2.358 4.59-4.743 4.59-5.301 0-.803-8.52-.961-41-.76-22.55.139-41.82.441-42.82.67-1.8.416-1.81.501-1.81 16.058 0 12.985.2 15.813 1.22 16.655.97.807 3.43.827 11.92.097 5.88-.505 14.6-.918 19.37-.917 5.73.002 8.69-.297 8.69-.878 0-1.319-2.82-3.454-11.31-8.577-4.22-2.545-10.85-6.912-14.72-9.703-3.88-2.793-7.38-5.076-7.78-5.076-.4 0-1.17-.53-1.71-1.179-1.57-1.896 1.12-2.124 22.19-1.877l19.39.228.62 19.794c.94 29.681.89 41.557-.16 43.522-.9 1.673-1.4 1.721-18.16 1.721-9.48 0-18.37.226-19.76.502-1.86.373-2.63.176-3-.77-.53-1.399 2.94-4.804 8.98-8.805 1.97-1.307 5.32-3.892 7.43-5.745 2.12-1.852 6.03-4.797 8.7-6.544 4.75-3.114 8.48-6.347 8.48-7.349 0-.496-3.74-.253-18.18 1.185-4 .398-10.44.756-14.31.794-5.85.059-7.16.31-7.76 1.484-.85 1.682.01 29.225.96 30.743.48.771 2.09.93 6.04.595 2.96-.25 22.61-.614 43.68-.808 37.94-.35 39.64-.473 39.64-2.859 0-1.019-1.74-2.525-9.27-8.027-4.44-3.247-9.53-7.314-11.31-9.037-1.78-1.724-6.14-5.328-9.69-8.01-3.56-2.681-6.47-5.317-6.47-5.856 0-.717 3.05-1.018 11.31-1.118 6.22-.074 14.68-.354 18.78-.622 4.11-.267 8.38-.258 9.5.021 1.97.495 2.02.691 2.03 7.893.02 8.614.85 10.797 3.05 7.964 1.29-1.659 1.88-1.793 5.85-1.326 3.82.449 4.71.899 6.44 3.266 3.74 5.087 14.62 12.357 23.68 15.823 7.02 2.686 18.22 4.668 26.41 4.673 7.88.007 20.12-2.003 26.66-4.376 8.14-2.953 13.55-13.738 10.16-20.265-1.95-3.755-8.3-9.149-11.99-10.171-1.88-.523-4.98-1.445-6.88-2.049-1.91-.605-4.67-1.099-6.14-1.099-1.48 0-3.74-.362-5.02-.805-1.29-.443-8.71-1.144-16.48-1.557-8-.425-16.25-1.318-18.99-2.054-10.91-2.93-16.26-4.903-18.57-6.852-3.95-3.334-11.73-11.184-11.73-11.836 0-.331-.63-1.305-1.41-2.164-1.24-1.37-1.41-3.414-1.41-16.65 0-15.723.17-16.758 4.23-24.735 2.24-4.41 9.33-10.954 15.16-13.989ZM1306.65 787.608c-.07-10.662.19-17.049.71-17.37 1.18-.729 64.18-.256 64.82.488.29.341 1.7 3.711 3.13 7.488 1.43 3.777 3.12 7.832 3.77 9.012.64 1.179 1.16 3.044 1.16 4.142 0 1.099.55 2.451 1.21 3.004.67.554 1.21 1.53 1.21 2.171 0 1.22 2.64 8.102 4.43 11.564.57 1.111 1.3 3.197 1.6 4.636.31 1.439.9 2.824 1.31 3.078.41.253.74 1.122.74 1.931 0 .809 1.27 3.969 2.82 7.022 1.54 3.052 2.82 5.907 2.82 6.343.02.923 2.82 8.18 5.08 13.172 1.98 4.353 3.04 3.66 4.99-3.25 1.47-5.206 2.27-7.499 5.27-15.158 1.84-4.684 3.53-8.595 5.38-12.386.61-1.258 1.11-2.826 1.11-3.486 0-.658 1.68-5.082 3.73-9.831 2.05-4.748 4.21-10.269 4.8-12.269 1.65-5.585 5.64-16.862 6.15-17.368.71-.71 68.72-.545 69.41.168.83.872 1.26 39.157.44 40.465-.47.768-3.01 1.012-9.5.915-4.87-.072-8.99.002-9.15.165-.16.163-.55 16.754-.86 36.867-.44 28.457-.34 36.838.43 37.77.78.93 3.04 1.199 10.09 1.199 7.11 0 9.32.266 10.1 1.214 1.22 1.462 2.28 40.304 1.13 40.986-1.18.696-20.32 1.393-42.18 1.536-18.06.119-20.61-.022-21.79-1.202-1.2-1.201-1.21-1.604-.15-3.96.91-2.027 1.18-6.355 1.18-19.086l.01-16.463 1.94-1.291c1.49-.987 4.08-1.296 10.98-1.311 6.46-.014 9.43-.337 10.38-1.128 1.51-1.256 1.75-5.364.51-8.647-.57-1.499-.57-4.114 0-8.333 1.1-8.042 1.83-52.76.9-55.177-.66-1.737-.84-1.583-2.48 2.17-.97 2.221-2.49 6.402-3.39 9.291a740.72 740.72 0 0 1-2.81 8.887c-.65 1.999-1.47 4.726-1.82 6.059-.35 1.333-1.54 4.423-2.64 6.867-1.11 2.444-2.82 6.625-3.82 9.291-.99 2.666-2.33 6.042-2.96 7.501-.64 1.459-1.16 3.095-1.16 3.635-.01.541-.53 1.981-1.16 3.2-.64 1.219-2.13 5.036-3.31 8.483-1.19 3.446-2.44 6.63-2.78 7.074-.34.444-.88 2.262-1.2 4.039-.32 1.778-.87 3.596-1.23 4.04-.7.868-2.6 7.513-4.4 15.35-.61 2.666-1.87 7.108-2.8 9.871-.94 2.764-1.7 5.954-1.7 7.09 0 2.657-3.66 4.365-5.47 2.553-.64-.635-3.6-8.406-6.57-17.269-2.98-8.863-6.4-18.185-7.6-20.714-1.19-2.531-2.17-4.792-2.17-5.026 0-.235-.67-1.952-1.48-3.816-2.33-5.363-3.82-9.4-5.86-15.912-1.05-3.332-2.37-6.777-2.94-7.653-.57-.876-1.03-2.275-1.03-3.109 0-.834-.5-2.662-1.1-4.062-.6-1.4-1.83-4.364-2.74-6.585-.9-2.222-2.09-5.131-2.64-6.464-.55-1.333-1.3-3.514-1.65-4.847-.87-3.259-2.97-9.103-4.42-12.321-2.72-6.014-3.53-7.971-4.02-9.695-.28-1-.83-1.818-1.23-1.818-1.35 0-1.74 5.48-1.26 17.879.27 6.83.69 23.136.93 36.235.33 17.05.73 23.998 1.41 24.453.53.349 4.88.538 9.67.42 6.52-.161 8.88.052 9.37.849 1.05 1.682 2.24 21.043 1.85 30.04-.09 2-.06 5.272.06 7.271l.21 3.636-9.29.499c-5.11.276-25.02.548-44.24.606l-34.94.107-.1-11.917c-.06-6.554-.15-16.097-.2-21.207l-.1-9.291 8.48-.623c4.67-.342 8.99-.804 9.61-1.027.9-.326 1.01-1.863.56-7.86-.3-4.101-.71-14.728-.91-23.615-.2-8.887-.51-22.884-.69-31.104-.17-8.221-.36-15.25-.41-15.622-.04-.372-3.87-.515-8.5-.319s-8.76.136-9.18-.133c-1.34-.874-1.74-5.855-1.86-23.007ZM1068.32 774.389c.05-.762 5.56-1.048 23.29-1.212 12.78-.118 25.88-.312 29.12-.431 9.6-.354 9.06-1.556 9.06 19.94 0 13.802-.26 18.655-1.01 19.249-.62.487-3.19.553-6.67.171-7.73-.851-13.15-.163-13.76 1.744-.34 1.081-.07 51.832.41 77.27.02.758 2.83 1.009 11.31 1.009 9.92 0 11.37.171 12.02 1.414.4.778.79 5.05.86 9.493.07 4.444.45 10.079.85 12.523.4 2.444.84 7.878.98 12.076.25 7.391.2 7.647-1.6 8.08-1.02.244-14.83.264-30.7.042-28.28-.396-28.84-.436-28.58-2.02.4-2.48.39-5.934-.08-23.644-.52-19.525-1.12-18.473 10.13-17.674 10.76.764 10.23 1.583 9.97-15.311-.25-15.321-.49-16.14-4.53-15.295-2.32.484-20.58 1.233-35.95 1.472l-10.5.164.16 14.064c.11 9.898.44 14.241 1.12 14.662.54.328 5.77.462 11.64.297 7.57-.213 11.03-.015 11.94.688 1.11.849 1.32 3.903 1.52 21.591l.23 20.602-31.39.256c-22.33.181-31.65-.004-32.29-.646-1.35-1.344-1.79-39.263-.48-40.843.78-.93 3.29-1.183 11.81-1.183 10.67 0 10.84-.028 11.72-1.956.66-1.455.64-2.648-.09-4.646-1.21-3.305-2.36-27.475-2.41-50.8-.03-12.417-.32-17.688-1.01-18.38-.66-.653-4.35-.969-11.33-.969h-10.37l-.79-2.078c-.82-2.164-1.38-37.178-.61-37.953 1.05-1.049 16.35-1.884 36.99-2.019 12.22-.079 22.62-.103 23.11-.053.58.06.93 3.489 1.02 9.988.07 5.444.4 14.215.73 19.491.59 9.522.58 9.606-1.37 11.139-1.08.85-2.52 1.335-3.19 1.077-.67-.257-4.84-.813-9.27-1.235-6.14-.585-8.34-.53-9.25.23-1.02.842-1.12 3.013-.67 13.93.29 7.113.83 14.023 1.19 15.356l.67 2.424 16.89-.209c27.48-.339 32.87-.717 34.11-2.389.66-.894.85-2.21.49-3.462-.32-1.111-.72-7.097-.9-13.301-.2-6.92-.69-11.72-1.26-12.415-.76-.914-2.76-1.023-10.42-.566-13.09.781-12.69 1.004-12.56-7.079.06-3.647 0-12.266-.13-19.153-.12-6.887-.2-12.972-.17-13.52ZM927.811 775.739c17.552-.504 34.276-1.189 37.164-1.521 2.888-.333 10.783-.661 17.544-.728 11.528-.116 12.345-.023 13.156 1.491.884 1.652 1.103 6.049 2.12 42.469.684 24.468.539 30.402-.763 31.23-.524.333-2.77.612-4.992.619-2.222.007-7.13.558-10.907 1.223-7.244 1.277-24.67 1.664-25.35.565-.379-.614 4.506-5.008 5.568-5.008.814 0 23.337-19.837 26.117-23.003 3.747-4.268 3.406-4.912-2.497-4.714-2.777.093-11.773.384-19.991.648-8.217.263-15.268.805-15.669 1.206-1.063 1.063-.985 10.486.167 20.207.587 4.955.99 17.904.969 31.137-.028 17.589.204 22.983 1.035 24.12.942 1.288 2.286 1.455 11.12 1.377 5.526-.049 10.458.186 10.959.521 1.144.767 2.33 36.465 1.263 38.035-1.261 1.857-9.23 2.436-37.88 2.754-14.479.161-19.802-.036-20.53-.762-.713-.709-1.003-6.262-1.054-20.198l-.072-19.218 10.286-.226c9.413-.207 10.36-.366 11.17-1.88.585-1.093.729-5.266.423-12.297-.254-5.853-.666-22.276-.915-36.496-.25-14.314-.79-26.193-1.209-26.615-1.054-1.06-46.823-1.105-46.807-.046.02 1.325 1.077 2.523 3.219 3.643 1.111.581 4.924 3.271 8.475 5.978 3.55 2.707 7.046 5.285 7.769 5.73.723.444 3.931 2.625 7.13 4.847 3.199 2.222 6.792 4.549 7.985 5.171 1.193.623 2.46 1.623 2.816 2.222.355.6 1.11 1.09 1.676 1.09.567 0 1.904.928 2.968 2.063 1.495 1.591 1.696 2.211.881 2.715-1.433.886-49.313.481-50.186-.424-.381-.395-.932-16.351-1.225-35.458-.302-19.735-.888-35.898-1.358-37.42-.454-1.474-.627-2.879-.385-3.122.484-.483 2.995-.58 49.81-1.925Z"/><path fill="#3C4043" fill-rule="evenodd" d="M1219.71 144.005c-12.04.239-20.65.734-21.06 1.211-.69.792-2.42 4.883-4.8 11.311-.66 1.778-1.66 4.322-2.22 5.656-.56 1.333-1.98 5.332-3.14 8.887-3.12 9.549-4.62 13.623-5.35 14.535-.36.448-.91 2.021-1.22 3.495-.32 1.474-1.09 3.655-1.71 4.847-.62 1.193-1.13 2.836-1.13 3.653-.01.816-1.04 3.725-2.31 6.463-1.26 2.738-2.75 6.888-3.31 9.222-.56 2.334-1.34 4.446-1.74 4.693-.4.248-.73 1.009-.73 1.694 0 .684-.49 2.39-1.09 3.79-.6 1.4-1.81 4.545-2.7 6.989-.39 1.081-.83 2.324-1.26 3.509-.54 1.494-1.05 2.895-1.36 3.762-.56 1.555-2.62 7.372-4.56 12.927-1.95 5.554-3.89 10.826-4.31 11.714-.73 1.524-4.96 14.106-6.53 19.39-1.55 5.223-3.39 10.568-4.09 11.889-.41.763-1.08 2.763-1.5 4.444-.98 3.934-3.09 9.934-4.11 11.731-.44.771-.8 1.807-.8 2.302 0 .494-.53 2.044-1.18 3.444-1.36 2.941-3.47 8.734-4.47 12.241-.38 1.333-1.86 5.332-3.29 8.887-3.05 7.601-3.9 9.946-6.68 18.582-1.15 3.555-2.46 7.554-2.92 8.887-.45 1.333-1.54 4.658-2.42 7.39-2.09 6.459-4.92 12.238-6.24 12.746-.58.223-9.15.802-19.04 1.287-9.9.487-18.84 1.235-19.89 1.664-1.89.78-1.89.785-1.38 11.872.28 6.101.65 17.272.83 24.826.67 29.162 1.5 49.625 2.06 50.517.56.919 26.72 1.029 145.29.611 30.27-.107 38.15.32 39.91-2.755.83-1.458.29-3.705.11-7.169-.18-3.555-.71-22.823-1.17-42.817-.48-20.85-1.17-36.683-1.61-37.127-.43-.433-9.22-.893-19.96-1.045-10.55-.15-20-.447-21-.659-2.37-.504-2.46-4.426-.2-8.645.89-1.659 1.61-3.731 1.61-4.606 0-.876.5-2.786 1.11-4.245.61-1.459 1.93-5.38 2.92-8.712 1.54-5.161 2.04-7.695 3.58-8.955 1.75-1.424 4.82-1.22 12.22-1.34 6.65-.108 21.89.074 33.87.404l21.79.6 1.83 3.232c1.01 1.777 1.84 4.21 1.85 5.405 0 1.196.34 2.382.75 2.635.41.254 1 1.638 1.3 3.077.3 1.44 1.04 3.708 1.64 5.041 1.45 3.216 3.5 8.959 4.57 12.805.68 2.404.64 3.255-.16 3.747-1.51.934-17.47 1.77-29.12 1.525-5.57-.117-10.58.064-11.12.403-.77.477-.98 9.017-.89 37.523.05 20.298.33 39.972.61 43.719.51 6.723.55 6.821 2.94 7.466 2.91.786 117.43 1.059 118.2.282.3-.297.56-6.967.58-14.822.01-7.854.12-27.284.24-43.177.13-15.893.03-29.206-.2-29.585-.24-.379-5.76-.754-12.28-.833-6.52-.078-17.14-.647-23.61-1.266-10.62-1.016-11.89-1.303-13.21-2.992-.8-1.028-1.66-2.778-1.9-3.888-.24-1.111-.94-3.111-1.56-4.444-2.84-6.192-4.46-10.419-4.46-11.663 0-.747-.53-2.064-1.18-2.927-.65-.862-1.2-2.025-1.21-2.584-.04-1.254-5.29-15.111-6.92-18.238-.65-1.257-1.19-2.893-1.19-3.635-.01-.742-.48-2.257-1.06-3.368-.58-1.111-1.89-4.565-2.92-7.675-2.06-6.241-3.63-10.387-5.86-15.508-.81-1.864-1.48-4.045-1.49-4.848-.02-.802-.56-2.164-1.22-3.026-.65-.863-1.19-2.135-1.19-2.828 0-.693-.55-2.301-1.21-3.573-.66-1.274-1.22-2.91-1.23-3.636-.02-.727-.73-2.776-1.59-4.553-.86-1.778-1.58-3.674-1.59-4.214-.03-.968-1.2-3.898-4.17-10.417-.83-1.826-1.51-3.895-1.51-4.598 0-.702-.34-1.485-.75-1.738-.41-.254-.99-1.639-1.3-3.077-.3-1.44-1.04-3.708-1.64-5.041-1.49-3.325-3.56-9.154-4.37-12.343-.37-1.457-1-3.093-1.39-3.636-.4-.543-1.55-3.168-2.56-5.835-1.01-2.666-2.36-6.041-3-7.5-.63-1.459-1.15-3.287-1.15-4.062 0-.774-.5-2.126-1.11-3.002-.61-.876-1.38-2.866-1.72-4.421-.34-1.556-1.11-3.546-1.72-4.422-.61-.876-1.11-2.11-1.11-2.741 0-1.121-4.59-13.354-6.91-18.409-.64-1.4-1.17-2.98-1.17-3.511 0-.531-.51-1.93-1.15-3.109-.63-1.18-1.98-4.326-3-6.992-1.01-2.666-2.31-5.565-2.89-6.442-.57-.875-1.04-2.376-1.04-3.334 0-.957-.54-2.193-1.21-2.747-.66-.553-1.21-1.678-1.21-2.501 0-.822-.77-3.232-1.71-5.354l-2.78-6.283c-.59-1.333-1.19-3.151-1.33-4.04-.37-2.28-3.22-2.493-27.06-2.019Zm43.38 120.785c0-.752-.76-3.878-1.69-6.947-.93-3.068-1.94-5.578-2.24-5.578-.81 0-3.34 4.971-4.15 8.146-.81 3.132-3.04 10.036-4.04 12.455-.37.889-1.03 3.07-1.47 4.848-.44 1.777-1.59 5.231-2.56 7.675-.96 2.444-2.11 5.716-2.54 7.271-.44 1.555-1.28 3.918-1.88 5.251-.59 1.333-1.73 4.424-2.52 6.868-.8 2.444-2.46 6.686-3.69 9.428-3.44 7.654-3.63 8.995-1.37 9.547 1.04.255 12.26.362 24.92.237 22.57-.222 23.03-.26 23.27-1.896.22-1.583-.59-4.143-2.17-6.813-.88-1.497-3.39-8.49-5.37-14.947-.81-2.666-1.88-5.393-2.38-6.059-1.41-1.896-4.29-9.8-4.72-12.927-.39-2.898-2.13-8.126-4.22-12.644-.65-1.4-1.18-3.162-1.18-3.915ZM1422.84 516.249c-.7.778-1.52 2.417-1.83 3.643-.3 1.226-.88 2.429-1.27 2.673-.4.245-.72.987-.72 1.65 0 1.041-4.24 11.738-7.65 19.301-.6 1.333-1.71 4.06-2.46 6.059-.76 2-1.84 4.545-2.41 5.656-.56 1.111-1.29 3.226-1.6 4.699-.32 1.475-1.08 3.656-1.7 4.848-.63 1.192-1.14 2.623-1.14 3.181 0 .556-.73 2.368-1.62 4.027-.89 1.658-1.62 3.405-1.62 3.884 0 .477-.93 3.21-2.08 6.07-2.31 5.771-4.8 12.357-10.37 27.421-3.95 10.699-5.44 14.342-7.36 18.041-.66 1.258-1.2 2.712-1.2 3.232 0 .519-.59 2.035-1.3 3.368-.71 1.333-1.59 3.333-1.95 4.444-.36 1.11-1.45 4.019-2.42 6.463-.96 2.444-2.8 7.534-4.08 11.311-3.01 8.899-3.87 12.803-6.29 14.553-2.35 1.695-6.15 1.369-14.8 1.605l-14.8.404-.54 7.271c-.6 7.905-.69 45.187-.12 47.434.32 1.289 4.24 1.393 56.65 1.517 30.97.072 59.4.176 63.18.231l6.86.101-.18-24.238c-.11-13.33-.48-25.873-.83-27.873l-.64-3.635-13.51-.72c-12.28-.654-13.52-.854-13.52-2.194 0-1.444 1.46-5.312 3.72-9.879.62-1.258 1.37-3.737 1.65-5.508.89-5.609 1.79-5.823 21.51-5.169 21.06.697 27.96 1.091 28.86 1.649.38.237.94 1.607 1.25 3.046.31 1.439.92 3.061 1.36 3.604.43.543 1.09 2.179 1.46 3.635.37 1.457 1.34 4.402 2.15 6.544 2.14 5.687 1.1 6.256-10.12 5.54-4.74-.301-10.98-.548-13.86-.548h-5.26l.29 27.469c.2 19.444.56 27.643 1.21 28.066.51.329 19.65.511 42.53.404l41.61-.193-.02-6.868c-.05-13.476-1.43-43.254-2.09-45.041-.66-1.787-.91-1.818-14.41-1.818-13.45 0-13.76-.038-14.96-1.861-1.14-1.74-3.65-8.349-5.27-13.893-.4-1.333-1.68-4.968-2.85-8.079-1.17-3.11-2.33-6.382-2.56-7.271-.24-.889-1.69-4.836-3.21-8.772s-3.64-9.753-4.7-12.927c-1.06-3.173-2.7-7.77-3.64-10.214-3.33-8.669-4.16-10.936-4.94-13.491-.43-1.422-1.31-3.603-1.96-4.847-.65-1.245-1.18-3.008-1.19-3.919 0-.911-.33-2.002-.74-2.424-.4-.422-1.11-2.04-1.57-3.595-1.71-5.724-4.02-11.919-5.76-15.406-.99-1.969-2.09-4.671-2.45-6.004-.96-3.515-5.53-16.554-6.8-19.39-4.12-9.228-10.15-23.779-10.15-24.511 0-1.801-3.45-2.589-14.71-3.357-16.76-1.145-19.55-1.065-21.06.601Zm46.45 92.304c-4.48-12.01-6.86-18.343-7.51-19.996-.39-.999-1.04-1.818-1.44-1.818-.99 0-4.16 7.525-4.16 9.885 0 1.051-.33 2.257-.73 2.678-.4.422-2.22 5.131-4.04 10.463-3.15 9.223-3.9 11.093-7.1 17.834-2.71 5.706.01 6.567 21.56 6.83 13.53.165 14.4-.231 11.46-5.223-.97-1.635-1.76-3.483-1.76-4.109 0-.627-.58-2.515-1.3-4.196-2.5-5.874-3.33-7.937-4.98-12.348ZM1216.81 773.146l-13.56.26-.88 2.202c-.49 1.211-1.18 3.475-1.53 5.03-.36 1.555-1.42 5.009-2.37 7.675-.94 2.666-2.22 6.665-2.85 8.887-1.12 4.012-5.75 17.309-7.54 21.664-.51 1.251-.94 2.887-.96 3.636-.01.749-.55 2.27-1.18 3.381-.64 1.111-1.18 2.747-1.21 3.635-.03.889-.76 3.07-1.62 4.848-.86 1.777-1.58 3.959-1.61 4.847-.03.889-.59 2.322-1.24 3.184-.65.863-1.2 2.499-1.21 3.636-.02 1.137-.56 2.773-1.22 3.635-.65.863-1.18 2.322-1.18 3.244 0 .921-.73 3.032-1.62 4.69-.89 1.659-1.61 3.583-1.61 4.277 0 .695-1.07 4.423-2.37 8.285-1.29 3.861-3.14 10.293-4.1 14.292-.95 3.999-1.99 7.535-2.3 7.857-.31.322-4.74.621-9.84.664-7.57.066-10.77-.147-12.01 1.307-1.06 1.247-.69 3.72-.41 8.643.28 4.949.74 14.27 1.02 20.713l.52 11.715 9.69-.025c5.33-.014 23.69-.114 40.8-.223 17.11-.107 31.65-.178 32.32-.156.66.021 3.57-.243 6.46-.587l5.25-.625-.21-8.483c-.47-18.515-1.23-30.345-2-31.307-.57-.709-3.78-1.01-10.76-1.01-10.28 0-12-.538-9.88-3.08 1.16-1.383 2.61-4.728 5.06-11.661.75-2.108 1.85-4.108 2.45-4.443.59-.336 8.5-.504 17.57-.377l16.49.234 2.85 5.826c3.39 6.915 5.06 11.783 4.3 12.546-.3.303-5.52.733-11.59.955l-11.05.404.02 21.006c.01 20.495.05 20.999 1.61 20.728 5.02-.87 23.66-1.722 42-1.92l21.01-.226v-18.178c0-13.878-.27-18.821-1.15-20.895l-1.14-2.718-7.34.383c-4.04.211-9.33.161-11.76-.11-4.2-.468-4.46-.637-5.29-3.321-.48-1.555-1.34-3.918-1.93-5.252-2.67-6.141-3.31-7.797-3.33-8.712-.02-.54-.73-2.437-1.59-4.214-.86-1.777-1.57-3.798-1.59-4.491-.01-.693-.56-1.965-1.21-2.828-.66-.862-1.2-2.316-1.21-3.232-.02-.914-.56-2.368-1.22-3.231-.65-.862-1.19-2.24-1.21-3.06-.01-.82-.56-2.456-1.23-3.635-1.33-2.383-3.39-8.007-4.43-12.064-.36-1.457-.99-3.093-1.39-3.636-.84-1.145-3.91-8.936-4.69-11.894-.65-2.469-4.26-12.433-5.71-15.754-2.1-4.817-3.77-9.052-7.21-18.216-1.92-5.131-4.19-10.584-5.04-12.119-.45-.794-.68-1.378-1.08-1.801-1.21-1.279-3.98-1.088-18.76-.805Zm27.42 66.065c-.55-3.351-3.16-10.278-4.83-12.828-.76-1.165-1.67-2.118-2-2.118-.64 0-2.28 4.729-6.72 19.39-1.41 4.666-3.26 9.874-4.11 11.574-1.13 2.256-1.31 3.374-.68 4.136.81.975 7.15 1.823 17.81 2.385 6.79.357 9.62-1.544 7.66-5.132-.96-1.756-3.49-7.357-6.05-13.367-.38-.889-.87-2.707-1.08-4.04Z" clip-rule="evenodd"/></svg>