<svg xmlns="http://www.w3.org/2000/svg" width="1920" height="1080" fill="none"><path fill="#3C4043" fill-rule="evenodd" d="M367.6 153.598H265.607v209.15l-126.099 49.296h.058v72.99h354.073v-72.99h.06L367.6 362.748v-209.15Z" clip-rule="evenodd"/><path fill="#3C4043" d="M550.783 730.84h354.074v179.453H550.783V730.84Z"/><path fill="#3C4043" d="M682.831 827.145V555.034h89.979v272.111h-89.979ZM1626.31 153.598h-102v258.446h-126.04v72.99h354.08v-72.99h.06s-56.01-3.727-86.61-20.127c-30.83-13.781-38.59-25.415-39.49-59.169v-179.15Z"/><path fill="#3C4043" d="M1626.41 153.598h-102v179.15c-.9 33.754-8.66 45.388-39.49 59.169-30.6 16.4-86.61 20.127-86.61 20.127h228.1V153.598ZM676.823 153.598h101.994v209.15l126.098 123.471h-354.19l126.098-123.471v-209.15ZM1307.52 483.171c2.19 4.537 3.98 8.982 3.98 9.878 0 2.074 3.36 2.525-32.22-4.315-76.63-14.735-120.58-18.408-189.22-15.817-35.48 1.341-62.27 4.441-111.016 12.85-15.87 2.737-29.178 4.651-29.575 4.254-.397-.397 2.355-7.403 6.114-15.567 7.571-16.443 16.333-52.701 18.403-76.156 2.527-28.653-5.237-71.913-18.144-101.099-2.812-6.355-4.742-11.924-4.291-12.375.453-.45 5.649 2.836 11.549 7.303 11.194 8.475 24.833 14.206 33.631 14.13 9.949-.084 21.529-7.124 26.819-16.304 8.39-14.533 10.77-31.962 12.57-91.867.71-23.698 1.48-43.301 1.71-43.563.71-.826 41.74-1.106 118.96-.81l74.75.285-.36 54.609c-.4 59.061.22 65.672 7.56 80.305 5.69 11.355 16.2 17.275 30.8 17.345 9.75.046 27.25-8.828 38.45-19.503 7.02-6.687 6.93-4.334-.55 14.363-13.99 34.939-19.99 76.855-16.18 113.061 2.51 23.863 10.19 56.436 16.26 68.993Z"/><path fill="#3C4043" fill-rule="evenodd" d="m326.976 555.151.001.041-2.446-.02 2.445-.021Zm-16.606-.098 14.161.119-14.168.119.007-.238Z" clip-rule="evenodd"/><path fill="#3C4043" d="m337.268 907.961-10.291-352.769-2.446-.02-14.168.119-10.285 352.575c12.393.039 24.868.071 37.19.095Z"/><path fill="#3C4043" d="m259.288 555.721-1.079 50.69c-1.067 50.201-1.136 50.809-7.148 63.05-12.8 26.068-30.582 37.151-63.561 39.618-11.012.824-20.477 2.237-21.036 3.141-.942 1.527-14.661 100.063-18.3 131.465-3.059 26.395-6.656 52.847-7.834 57.605-.932 3.764-.037 5.048 4.273 6.129 2.88.723 100.089.838 192.665.546v-.004c-12.322-.024-24.797-.056-37.19-.095l10.285-352.575-51.075.43ZM379.136 606.312l-1.078-50.69-51.081-.43 10.291 352.769c79.721.156 152.981-.014 155.475-.641 4.31-1.081 5.205-2.364 4.273-6.128-1.178-4.759-4.775-31.21-7.834-57.606-3.639-31.402-17.358-129.937-18.3-131.465-.559-.903-10.024-2.316-21.036-3.14-32.979-2.468-50.761-13.551-63.561-39.618-6.012-12.242-6.081-12.85-7.149-63.051ZM1596.1 854.528c-6.67 11.917-13.36 23.647-14.86 26.07-1.49 2.424-3.73 4.079-4.98 3.681-1.93-.619-8.23-9.409-36.16-50.453-2.31-3.391-5.06-6.178-6.11-6.191-1.05-.012-6.19 3.052-11.43 6.811-20.92 15.018-57.97 30.381-89.54 37.126-12.62 2.699-61.73 3.568-70.06 1.24l-5.29-1.476.53-30.912.52-30.911 6.67-.543c31.41-2.557 60.31-13.495 86.68-32.8 34.64-25.356 53.48-50.775 65.94-88.968 3.93-12.042 4.26-17.023 4.74-70.569.29-31.689 1.06-58.48 1.71-59.537 1.87-3.031 96.12-2.585 97.13.457.43 1.309 1.19 24.243 1.7 50.964 1.04 55.402 3.15 67.437 16.52 94.447 30.36 61.339 84.32 103.769 138.15 108.646l14.19 1.286.08 16.407c.05 9.025.35 21.765.67 28.313.36 7.095-.25 12.593-1.51 13.613-3.32 2.703-28.01 5.919-45.33 5.906-43.74-.031-83.66-12.289-120.51-37.002-7.26-4.866-14.12-8.492-15.25-8.057-1.13.432-7.52 10.537-14.2 22.452ZM1295.32 905.01c-2.86 2.855-29.1 10.185-58.22 16.261-13.13 2.742-25.03 5.05-26.43 5.128-3.38.186-9.67-7.993-14.68-19.101l-4.05-8.978-14.32-.12c-7.88-.065-28.98-.644-46.89-1.287-17.91-.643-39.47-.523-47.92.269l-15.36 1.437-5.81 11.861c-3.2 6.526-7.51 12.513-9.58 13.305-4.27 1.639-45.89-9.126-69.482-17.972-17.976-6.74-17.197-4.682-13.517-35.713 1.882-15.886 10.808-94.069 14.125-123.735 2.814-25.172 7.893-61.867 8.672-62.644.476-.475 5.542 1.359 11.262 4.079 15.49 7.367 28.66 8.069 39.3 2.09 19.59-11.012 23.95-25.511 24.48-81.295.21-21.906 1.04-40.913 1.86-42.237 1.05-1.693 19.79-2.236 63.21-1.83l61.72.577 1.08 51.079c1.05 49.298 1.28 51.451 6.57 61.721 10.37 20.15 33.88 26.178 56.36 14.456 5.13-2.673 10.06-4.068 10.95-3.105.89.964 3.14 14.453 5 29.975 1.86 15.521 7.97 63.195 13.58 105.942 6.63 50.484 9.46 78.463 8.09 79.837Z"/></svg>