<svg width="1920" height="1080" fill="none" xmlns="http://www.w3.org/2000/svg"><path d="M1290.78 458.472v-10.931h99.62v10.931h-99.62ZM1379.8 293l76.46 221.034h24.98v10.93H1358.3v-10.93h22.86l-49.5-152.72-53.6 152.72h28.01v10.93H1239v-10.93h26.65L1343.62 293h36.18Zm248.45 235c-8.28 0-15.49-1.063-21.65-3.188-6.16-2.024-10.95-5.06-14.38-9.109-3.54-4.048-5.3-9.057-5.3-15.029v-68.162c0-7.287-.76-13.916-2.27-19.887-1.62-5.971-4.55-10.778-8.79-14.422-4.34-3.542-10.54-5.313-18.62-5.313-3.53 0-7.42.405-11.66 1.215a55.384 55.384 0 0 0-12.11 4.098c-3.83 1.923-6.96 4.403-9.38 7.439-2.53 3.036-3.79 6.781-3.79 11.234h-13.62c0-7.489 3.07-13.663 9.23-18.521 6.16-4.858 13.48-7.287 21.95-7.287 8.89 0 16.51 2.176 22.86 6.528 6.26 4.251 9.39 10.475 9.39 18.673 0 8.299-3.18 14.725-9.54 19.279-6.46 4.656-14.03 6.984-22.71 6.984-9.08 0-16.6-2.379-22.56-7.135-5.95-4.656-8.93-10.829-8.93-18.521 0-6.578 1.82-12.044 5.45-16.395 3.54-4.453 8.28-7.945 14.23-10.475 5.86-2.632 12.32-4.453 19.38-5.465 7.07-1.114 14.03-1.67 20.9-1.67 16.95 0 31.19 1.923 42.69 5.769 11.61 3.744 20.39 9.31 26.34 16.699 5.86 7.388 8.79 16.445 8.79 27.173v64.215c0 3.745.6 6.933 1.81 9.564 1.21 2.632 3.84 3.947 7.88 3.947 2.32 0 5.04-.708 8.17-2.125s5.6-3.745 7.42-6.983l7.57 4.554c-2.73 7.287-8.58 12.853-17.56 16.699-8.99 3.745-19.38 5.617-31.19 5.617Zm-89.33 0c-13.12 0-23.56-3.39-31.34-10.171-7.87-6.68-11.81-15.788-11.81-27.326 0-13.561 5.96-24.441 17.87-32.639 11.81-8.197 28.46-12.296 49.96-12.296h37.4v9.412h-19.38c-6.36 0-11.36 1.265-14.99 3.795-3.63 2.53-6.21 5.82-7.72 9.868-1.52 4.048-2.27 8.349-2.27 12.904 0 4.554.5 8.298 1.51 11.233 1.11 3.037 2.52 5.263 4.24 6.68 1.82 1.417 3.84 2.125 6.06 2.125 2.72 0 5.55-.911 8.47-2.732 2.83-1.822 5.2-5.01 7.12-9.564 1.92-4.555 2.88-10.93 2.88-19.128h7.57c0 11.537-2.48 21.658-7.42 30.362-5.05 8.703-11.76 15.434-20.14 20.19-8.38 4.858-17.71 7.287-28.01 7.287Z" fill="#3C4043"/><path d="M1290.78 458.472v-10.931h99.62v10.931h-99.62ZM1379.8 293l76.46 221.034h24.98v10.93H1358.3v-10.93h22.86l-49.5-152.72-53.6 152.72h28.01v10.93H1239v-10.93h26.65L1343.62 293h36.18Zm248.45 235c-8.28 0-15.49-1.063-21.65-3.188-6.16-2.024-10.95-5.06-14.38-9.109-3.54-4.048-5.3-9.057-5.3-15.029v-68.162c0-7.287-.76-13.916-2.27-19.887-1.62-5.971-4.55-10.778-8.79-14.422-4.34-3.542-10.54-5.313-18.62-5.313-3.53 0-7.42.405-11.66 1.215a55.384 55.384 0 0 0-12.11 4.098c-3.83 1.923-6.96 4.403-9.38 7.439-2.53 3.036-3.79 6.781-3.79 11.234h-13.62c0-7.489 3.07-13.663 9.23-18.521 6.16-4.858 13.48-7.287 21.95-7.287 8.89 0 16.51 2.176 22.86 6.528 6.26 4.251 9.39 10.475 9.39 18.673 0 8.299-3.18 14.725-9.54 19.279-6.46 4.656-14.03 6.984-22.71 6.984-9.08 0-16.6-2.379-22.56-7.135-5.95-4.656-8.93-10.829-8.93-18.521 0-6.578 1.82-12.044 5.45-16.395 3.54-4.453 8.28-7.945 14.23-10.475 5.86-2.632 12.32-4.453 19.38-5.465 7.07-1.114 14.03-1.67 20.9-1.67 16.95 0 31.19 1.923 42.69 5.769 11.61 3.744 20.39 9.31 26.34 16.699 5.86 7.388 8.79 16.445 8.79 27.173v64.215c0 3.745.6 6.933 1.81 9.564 1.21 2.632 3.84 3.947 7.88 3.947 2.32 0 5.04-.708 8.17-2.125s5.6-3.745 7.42-6.983l7.57 4.554c-2.73 7.287-8.58 12.853-17.56 16.699-8.99 3.745-19.38 5.617-31.19 5.617Zm-89.33 0c-13.12 0-23.56-3.39-31.34-10.171-7.87-6.68-11.81-15.788-11.81-27.326 0-13.561 5.96-24.441 17.87-32.639 11.81-8.197 28.46-12.296 49.96-12.296h37.4v9.412h-19.38c-6.36 0-11.36 1.265-14.99 3.795-3.63 2.53-6.21 5.82-7.72 9.868-1.52 4.048-2.27 8.349-2.27 12.904 0 4.554.5 8.298 1.51 11.233 1.11 3.037 2.52 5.263 4.24 6.68 1.82 1.417 3.84 2.125 6.06 2.125 2.72 0 5.55-.911 8.47-2.732 2.83-1.822 5.2-5.01 7.12-9.564 1.92-4.555 2.88-10.93 2.88-19.128h7.57c0 11.537-2.48 21.658-7.42 30.362-5.05 8.703-11.76 15.434-20.14 20.19-8.38 4.858-17.71 7.287-28.01 7.287Z" fill="#3C4043"/><path d="M1290.78 458.472v-10.931h99.62v10.931h-99.62ZM1379.8 293l76.46 221.034h24.98v10.93H1358.3v-10.93h22.86l-49.5-152.72-53.6 152.72h28.01v10.93H1239v-10.93h26.65L1343.62 293h36.18Zm248.45 235c-8.28 0-15.49-1.063-21.65-3.188-6.16-2.024-10.95-5.06-14.38-9.109-3.54-4.048-5.3-9.057-5.3-15.029v-68.162c0-7.287-.76-13.916-2.27-19.887-1.62-5.971-4.55-10.778-8.79-14.422-4.34-3.542-10.54-5.313-18.62-5.313-3.53 0-7.42.405-11.66 1.215a55.384 55.384 0 0 0-12.11 4.098c-3.83 1.923-6.96 4.403-9.38 7.439-2.53 3.036-3.79 6.781-3.79 11.234h-13.62c0-7.489 3.07-13.663 9.23-18.521 6.16-4.858 13.48-7.287 21.95-7.287 8.89 0 16.51 2.176 22.86 6.528 6.26 4.251 9.39 10.475 9.39 18.673 0 8.299-3.18 14.725-9.54 19.279-6.46 4.656-14.03 6.984-22.71 6.984-9.08 0-16.6-2.379-22.56-7.135-5.95-4.656-8.93-10.829-8.93-18.521 0-6.578 1.82-12.044 5.45-16.395 3.54-4.453 8.28-7.945 14.23-10.475 5.86-2.632 12.32-4.453 19.38-5.465 7.07-1.114 14.03-1.67 20.9-1.67 16.95 0 31.19 1.923 42.69 5.769 11.61 3.744 20.39 9.31 26.34 16.699 5.86 7.388 8.79 16.445 8.79 27.173v64.215c0 3.745.6 6.933 1.81 9.564 1.21 2.632 3.84 3.947 7.88 3.947 2.32 0 5.04-.708 8.17-2.125s5.6-3.745 7.42-6.983l7.57 4.554c-2.73 7.287-8.58 12.853-17.56 16.699-8.99 3.745-19.38 5.617-31.19 5.617Zm-89.33 0c-13.12 0-23.56-3.39-31.34-10.171-7.87-6.68-11.81-15.788-11.81-27.326 0-13.561 5.96-24.441 17.87-32.639 11.81-8.197 28.46-12.296 49.96-12.296h37.4v9.412h-19.38c-6.36 0-11.36 1.265-14.99 3.795-3.63 2.53-6.21 5.82-7.72 9.868-1.52 4.048-2.27 8.349-2.27 12.904 0 4.554.5 8.298 1.51 11.233 1.11 3.037 2.52 5.263 4.24 6.68 1.82 1.417 3.84 2.125 6.06 2.125 2.72 0 5.55-.911 8.47-2.732 2.83-1.822 5.2-5.01 7.12-9.564 1.92-4.555 2.88-10.93 2.88-19.128h7.57c0 11.537-2.48 21.658-7.42 30.362-5.05 8.703-11.76 15.434-20.14 20.19-8.38 4.858-17.71 7.287-28.01 7.287Z" fill="#3C4043"/><path d="M1290.78 458.472v-10.931h99.62v10.931h-99.62ZM1379.8 293l76.46 221.034h24.98v10.93H1358.3v-10.93h22.86l-49.5-152.72-53.6 152.72h28.01v10.93H1239v-10.93h26.65L1343.62 293h36.18Zm248.45 235c-8.28 0-15.49-1.063-21.65-3.188-6.16-2.024-10.95-5.06-14.38-9.109-3.54-4.048-5.3-9.057-5.3-15.029v-68.162c0-7.287-.76-13.916-2.27-19.887-1.62-5.971-4.55-10.778-8.79-14.422-4.34-3.542-10.54-5.313-18.62-5.313-3.53 0-7.42.405-11.66 1.215a55.384 55.384 0 0 0-12.11 4.098c-3.83 1.923-6.96 4.403-9.38 7.439-2.53 3.036-3.79 6.781-3.79 11.234h-13.62c0-7.489 3.07-13.663 9.23-18.521 6.16-4.858 13.48-7.287 21.95-7.287 8.89 0 16.51 2.176 22.86 6.528 6.26 4.251 9.39 10.475 9.39 18.673 0 8.299-3.18 14.725-9.54 19.279-6.46 4.656-14.03 6.984-22.71 6.984-9.08 0-16.6-2.379-22.56-7.135-5.95-4.656-8.93-10.829-8.93-18.521 0-6.578 1.82-12.044 5.45-16.395 3.54-4.453 8.28-7.945 14.23-10.475 5.86-2.632 12.32-4.453 19.38-5.465 7.07-1.114 14.03-1.67 20.9-1.67 16.95 0 31.19 1.923 42.69 5.769 11.61 3.744 20.39 9.31 26.34 16.699 5.86 7.388 8.79 16.445 8.79 27.173v64.215c0 3.745.6 6.933 1.81 9.564 1.21 2.632 3.84 3.947 7.88 3.947 2.32 0 5.04-.708 8.17-2.125s5.6-3.745 7.42-6.983l7.57 4.554c-2.73 7.287-8.58 12.853-17.56 16.699-8.99 3.745-19.38 5.617-31.19 5.617Zm-89.33 0c-13.12 0-23.56-3.39-31.34-10.171-7.87-6.68-11.81-15.788-11.81-27.326 0-13.561 5.96-24.441 17.87-32.639 11.81-8.197 28.46-12.296 49.96-12.296h37.4v9.412h-19.38c-6.36 0-11.36 1.265-14.99 3.795-3.63 2.53-6.21 5.82-7.72 9.868-1.52 4.048-2.27 8.349-2.27 12.904 0 4.554.5 8.298 1.51 11.233 1.11 3.037 2.52 5.263 4.24 6.68 1.82 1.417 3.84 2.125 6.06 2.125 2.72 0 5.55-.911 8.47-2.732 2.83-1.822 5.2-5.01 7.12-9.564 1.92-4.555 2.88-10.93 2.88-19.128h7.57c0 11.537-2.48 21.658-7.42 30.362-5.05 8.703-11.76 15.434-20.14 20.19-8.38 4.858-17.71 7.287-28.01 7.287Z" fill="#3C4043"/><path d="M1290.78 458.472v-10.931h99.62v10.931h-99.62ZM1379.8 293l76.46 221.034h24.98v10.93H1358.3v-10.93h22.86l-49.5-152.72-53.6 152.72h28.01v10.93H1239v-10.93h26.65L1343.62 293h36.18Zm248.45 235c-8.28 0-15.49-1.063-21.65-3.188-6.16-2.024-10.95-5.06-14.38-9.109-3.54-4.048-5.3-9.057-5.3-15.029v-68.162c0-7.287-.76-13.916-2.27-19.887-1.62-5.971-4.55-10.778-8.79-14.422-4.34-3.542-10.54-5.313-18.62-5.313-3.53 0-7.42.405-11.66 1.215a55.384 55.384 0 0 0-12.11 4.098c-3.83 1.923-6.96 4.403-9.38 7.439-2.53 3.036-3.79 6.781-3.79 11.234h-13.62c0-7.489 3.07-13.663 9.23-18.521 6.16-4.858 13.48-7.287 21.95-7.287 8.89 0 16.51 2.176 22.86 6.528 6.26 4.251 9.39 10.475 9.39 18.673 0 8.299-3.18 14.725-9.54 19.279-6.46 4.656-14.03 6.984-22.71 6.984-9.08 0-16.6-2.379-22.56-7.135-5.95-4.656-8.93-10.829-8.93-18.521 0-6.578 1.82-12.044 5.45-16.395 3.54-4.453 8.28-7.945 14.23-10.475 5.86-2.632 12.32-4.453 19.38-5.465 7.07-1.114 14.03-1.67 20.9-1.67 16.95 0 31.19 1.923 42.69 5.769 11.61 3.744 20.39 9.31 26.34 16.699 5.86 7.388 8.79 16.445 8.79 27.173v64.215c0 3.745.6 6.933 1.81 9.564 1.21 2.632 3.84 3.947 7.88 3.947 2.32 0 5.04-.708 8.17-2.125s5.6-3.745 7.42-6.983l7.57 4.554c-2.73 7.287-8.58 12.853-17.56 16.699-8.99 3.745-19.38 5.617-31.19 5.617Zm-89.33 0c-13.12 0-23.56-3.39-31.34-10.171-7.87-6.68-11.81-15.788-11.81-27.326 0-13.561 5.96-24.441 17.87-32.639 11.81-8.197 28.46-12.296 49.96-12.296h37.4v9.412h-19.38c-6.36 0-11.36 1.265-14.99 3.795-3.63 2.53-6.21 5.82-7.72 9.868-1.52 4.048-2.27 8.349-2.27 12.904 0 4.554.5 8.298 1.51 11.233 1.11 3.037 2.52 5.263 4.24 6.68 1.82 1.417 3.84 2.125 6.06 2.125 2.72 0 5.55-.911 8.47-2.732 2.83-1.822 5.2-5.01 7.12-9.564 1.92-4.555 2.88-10.93 2.88-19.128h7.57c0 11.537-2.48 21.658-7.42 30.362-5.05 8.703-11.76 15.434-20.14 20.19-8.38 4.858-17.71 7.287-28.01 7.287Z" stroke="#3C4043"/><path d="M1290.78 458.472v-10.931h99.62v10.931h-99.62ZM1379.8 293l76.46 221.034h24.98v10.93H1358.3v-10.93h22.86l-49.5-152.72-53.6 152.72h28.01v10.93H1239v-10.93h26.65L1343.62 293h36.18Zm248.45 235c-8.28 0-15.49-1.063-21.65-3.188-6.16-2.024-10.95-5.06-14.38-9.109-3.54-4.048-5.3-9.057-5.3-15.029v-68.162c0-7.287-.76-13.916-2.27-19.887-1.62-5.971-4.55-10.778-8.79-14.422-4.34-3.542-10.54-5.313-18.62-5.313-3.53 0-7.42.405-11.66 1.215a55.384 55.384 0 0 0-12.11 4.098c-3.83 1.923-6.96 4.403-9.38 7.439-2.53 3.036-3.79 6.781-3.79 11.234h-13.62c0-7.489 3.07-13.663 9.23-18.521 6.16-4.858 13.48-7.287 21.95-7.287 8.89 0 16.51 2.176 22.86 6.528 6.26 4.251 9.39 10.475 9.39 18.673 0 8.299-3.18 14.725-9.54 19.279-6.46 4.656-14.03 6.984-22.71 6.984-9.08 0-16.6-2.379-22.56-7.135-5.95-4.656-8.93-10.829-8.93-18.521 0-6.578 1.82-12.044 5.45-16.395 3.54-4.453 8.28-7.945 14.23-10.475 5.86-2.632 12.32-4.453 19.38-5.465 7.07-1.114 14.03-1.67 20.9-1.67 16.95 0 31.19 1.923 42.69 5.769 11.61 3.744 20.39 9.31 26.34 16.699 5.86 7.388 8.79 16.445 8.79 27.173v64.215c0 3.745.6 6.933 1.81 9.564 1.21 2.632 3.84 3.947 7.88 3.947 2.32 0 5.04-.708 8.17-2.125s5.6-3.745 7.42-6.983l7.57 4.554c-2.73 7.287-8.58 12.853-17.56 16.699-8.99 3.745-19.38 5.617-31.19 5.617Zm-89.33 0c-13.12 0-23.56-3.39-31.34-10.171-7.87-6.68-11.81-15.788-11.81-27.326 0-13.561 5.96-24.441 17.87-32.639 11.81-8.197 28.46-12.296 49.96-12.296h37.4v9.412h-19.38c-6.36 0-11.36 1.265-14.99 3.795-3.63 2.53-6.21 5.82-7.72 9.868-1.52 4.048-2.27 8.349-2.27 12.904 0 4.554.5 8.298 1.51 11.233 1.11 3.037 2.52 5.263 4.24 6.68 1.82 1.417 3.84 2.125 6.06 2.125 2.72 0 5.55-.911 8.47-2.732 2.83-1.822 5.2-5.01 7.12-9.564 1.92-4.555 2.88-10.93 2.88-19.128h7.57c0 11.537-2.48 21.658-7.42 30.362-5.05 8.703-11.76 15.434-20.14 20.19-8.38 4.858-17.71 7.287-28.01 7.287Z" stroke="#3C4043"/><path d="M1290.78 458.472v-10.931h99.62v10.931h-99.62ZM1379.8 293l76.46 221.034h24.98v10.93H1358.3v-10.93h22.86l-49.5-152.72-53.6 152.72h28.01v10.93H1239v-10.93h26.65L1343.62 293h36.18Zm248.45 235c-8.28 0-15.49-1.063-21.65-3.188-6.16-2.024-10.95-5.06-14.38-9.109-3.54-4.048-5.3-9.057-5.3-15.029v-68.162c0-7.287-.76-13.916-2.27-19.887-1.62-5.971-4.55-10.778-8.79-14.422-4.34-3.542-10.54-5.313-18.62-5.313-3.53 0-7.42.405-11.66 1.215a55.384 55.384 0 0 0-12.11 4.098c-3.83 1.923-6.96 4.403-9.38 7.439-2.53 3.036-3.79 6.781-3.79 11.234h-13.62c0-7.489 3.07-13.663 9.23-18.521 6.16-4.858 13.48-7.287 21.95-7.287 8.89 0 16.51 2.176 22.86 6.528 6.26 4.251 9.39 10.475 9.39 18.673 0 8.299-3.18 14.725-9.54 19.279-6.46 4.656-14.03 6.984-22.71 6.984-9.08 0-16.6-2.379-22.56-7.135-5.95-4.656-8.93-10.829-8.93-18.521 0-6.578 1.82-12.044 5.45-16.395 3.54-4.453 8.28-7.945 14.23-10.475 5.86-2.632 12.32-4.453 19.38-5.465 7.07-1.114 14.03-1.67 20.9-1.67 16.95 0 31.19 1.923 42.69 5.769 11.61 3.744 20.39 9.31 26.34 16.699 5.86 7.388 8.79 16.445 8.79 27.173v64.215c0 3.745.6 6.933 1.81 9.564 1.21 2.632 3.84 3.947 7.88 3.947 2.32 0 5.04-.708 8.17-2.125s5.6-3.745 7.42-6.983l7.57 4.554c-2.73 7.287-8.58 12.853-17.56 16.699-8.99 3.745-19.38 5.617-31.19 5.617Zm-89.33 0c-13.12 0-23.56-3.39-31.34-10.171-7.87-6.68-11.81-15.788-11.81-27.326 0-13.561 5.96-24.441 17.87-32.639 11.81-8.197 28.46-12.296 49.96-12.296h37.4v9.412h-19.38c-6.36 0-11.36 1.265-14.99 3.795-3.63 2.53-6.21 5.82-7.72 9.868-1.52 4.048-2.27 8.349-2.27 12.904 0 4.554.5 8.298 1.51 11.233 1.11 3.037 2.52 5.263 4.24 6.68 1.82 1.417 3.84 2.125 6.06 2.125 2.72 0 5.55-.911 8.47-2.732 2.83-1.822 5.2-5.01 7.12-9.564 1.92-4.555 2.88-10.93 2.88-19.128h7.57c0 11.537-2.48 21.658-7.42 30.362-5.05 8.703-11.76 15.434-20.14 20.19-8.38 4.858-17.71 7.287-28.01 7.287Z" stroke="#3C4043"/><path d="M1290.78 458.472v-10.931h99.62v10.931h-99.62ZM1379.8 293l76.46 221.034h24.98v10.93H1358.3v-10.93h22.86l-49.5-152.72-53.6 152.72h28.01v10.93H1239v-10.93h26.65L1343.62 293h36.18Zm248.45 235c-8.28 0-15.49-1.063-21.65-3.188-6.16-2.024-10.95-5.06-14.38-9.109-3.54-4.048-5.3-9.057-5.3-15.029v-68.162c0-7.287-.76-13.916-2.27-19.887-1.62-5.971-4.55-10.778-8.79-14.422-4.34-3.542-10.54-5.313-18.62-5.313-3.53 0-7.42.405-11.66 1.215a55.384 55.384 0 0 0-12.11 4.098c-3.83 1.923-6.96 4.403-9.38 7.439-2.53 3.036-3.79 6.781-3.79 11.234h-13.62c0-7.489 3.07-13.663 9.23-18.521 6.16-4.858 13.48-7.287 21.95-7.287 8.89 0 16.51 2.176 22.86 6.528 6.26 4.251 9.39 10.475 9.39 18.673 0 8.299-3.18 14.725-9.54 19.279-6.46 4.656-14.03 6.984-22.71 6.984-9.08 0-16.6-2.379-22.56-7.135-5.95-4.656-8.93-10.829-8.93-18.521 0-6.578 1.82-12.044 5.45-16.395 3.54-4.453 8.28-7.945 14.23-10.475 5.86-2.632 12.32-4.453 19.38-5.465 7.07-1.114 14.03-1.67 20.9-1.67 16.95 0 31.19 1.923 42.69 5.769 11.61 3.744 20.39 9.31 26.34 16.699 5.86 7.388 8.79 16.445 8.79 27.173v64.215c0 3.745.6 6.933 1.81 9.564 1.21 2.632 3.84 3.947 7.88 3.947 2.32 0 5.04-.708 8.17-2.125s5.6-3.745 7.42-6.983l7.57 4.554c-2.73 7.287-8.58 12.853-17.56 16.699-8.99 3.745-19.38 5.617-31.19 5.617Zm-89.33 0c-13.12 0-23.56-3.39-31.34-10.171-7.87-6.68-11.81-15.788-11.81-27.326 0-13.561 5.96-24.441 17.87-32.639 11.81-8.197 28.46-12.296 49.96-12.296h37.4v9.412h-19.38c-6.36 0-11.36 1.265-14.99 3.795-3.63 2.53-6.21 5.82-7.72 9.868-1.52 4.048-2.27 8.349-2.27 12.904 0 4.554.5 8.298 1.51 11.233 1.11 3.037 2.52 5.263 4.24 6.68 1.82 1.417 3.84 2.125 6.06 2.125 2.72 0 5.55-.911 8.47-2.732 2.83-1.822 5.2-5.01 7.12-9.564 1.92-4.555 2.88-10.93 2.88-19.128h7.57c0 11.537-2.48 21.658-7.42 30.362-5.05 8.703-11.76 15.434-20.14 20.19-8.38 4.858-17.71 7.287-28.01 7.287Z" stroke="#3C4043"/><path d="M796.703 450.981v-.607h76.139v.607h-76.139ZM881.47 293l80.073 231.361h21.343v.607H865.122v-.607h21.191L831.215 354.1l-60.093 170.261h36.48v.607H741v-.607h29.214L852.104 293h29.366Zm247.34 235c-8.28 0-15.49-1.011-21.65-3.032-6.16-2.123-11-5.206-14.53-9.249-3.43-4.043-5.15-9.046-5.15-15.009v-68.075c0-7.277-.81-14.605-2.42-21.983-1.51-7.48-4.39-13.696-8.63-18.649-4.34-5.054-10.54-7.58-18.62-7.58-4.23 0-9.18.505-14.83 1.516a69.119 69.119 0 0 0-16.65 5.155c-5.45 2.425-9.94 5.761-13.47 10.006-3.53 4.144-5.3 9.451-5.3 15.919h-.3c0-7.479 3.07-13.645 9.23-18.496 6.16-4.852 13.47-7.278 21.95-7.278 8.88 0 16.5 2.173 22.86 6.52 6.35 4.245 9.53 10.461 9.53 18.648 0 8.288-3.23 14.706-9.69 19.255-6.45 4.649-14.02 6.974-22.7 6.974-9.08 0-16.6-2.375-22.56-7.126-5.95-4.649-8.93-10.815-8.93-18.497 0-6.57 1.82-12.028 5.45-16.374 3.54-4.447 8.28-7.934 14.23-10.461 5.85-2.628 12.31-4.447 19.38-5.458 7.06-1.112 14.02-1.668 20.89-1.668 16.95 0 31.18 1.92 42.68 5.761 11.61 3.74 20.39 9.299 26.34 16.678 5.85 7.378 8.78 16.425 8.78 27.138v78.384c0 3.033.96 5.559 2.87 7.581 1.92 2.022 4.7 3.032 8.33 3.032 2.32 0 5.7-1.061 10.14-3.184 4.44-2.122 8.23-6.317 11.35-12.583h.61c-3.43 7.681-9.54 13.291-18.32 16.829-8.77 3.537-19.07 5.306-30.87 5.306Zm-89.31 0c-13.12 0-23.56-3.386-31.34-10.158-7.87-6.671-11.802-15.768-11.802-27.29 0-13.544 5.952-23.955 17.862-31.233 11.81-7.176 28.46-10.764 49.95-10.764h37.39v.606h-16.8c-6.36 0-11.56 2.022-15.59 6.065-4.04 4.043-7.02 8.844-8.93 14.403-1.92 5.458-2.88 10.461-2.88 15.01 0 4.548.4 8.591 1.21 12.129.91 3.537 2.37 6.317 4.39 8.338 2.02 2.022 4.64 3.033 7.87 3.033 3.13 0 5.96-1.466 8.48-4.397 2.52-2.83 4.49-7.075 5.9-12.736 1.51-5.66 2.27-12.583 2.27-20.771h.61c0 12.534-1.92 23.096-5.75 31.688-3.84 8.591-9.34 15.06-16.5 19.406-7.27 4.447-16.05 6.671-26.34 6.671Z" fill="#3C4043"/><path d="M796.703 450.981v-.607h76.139v.607h-76.139ZM881.47 293l80.073 231.361h21.343v.607H865.122v-.607h21.191L831.215 354.1l-60.093 170.261h36.48v.607H741v-.607h29.214L852.104 293h29.366Zm247.34 235c-8.28 0-15.49-1.011-21.65-3.032-6.16-2.123-11-5.206-14.53-9.249-3.43-4.043-5.15-9.046-5.15-15.009v-68.075c0-7.277-.81-14.605-2.42-21.983-1.51-7.48-4.39-13.696-8.63-18.649-4.34-5.054-10.54-7.58-18.62-7.58-4.23 0-9.18.505-14.83 1.516a69.119 69.119 0 0 0-16.65 5.155c-5.45 2.425-9.94 5.761-13.47 10.006-3.53 4.144-5.3 9.451-5.3 15.919h-.3c0-7.479 3.07-13.645 9.23-18.496 6.16-4.852 13.47-7.278 21.95-7.278 8.88 0 16.5 2.173 22.86 6.52 6.35 4.245 9.53 10.461 9.53 18.648 0 8.288-3.23 14.706-9.69 19.255-6.45 4.649-14.02 6.974-22.7 6.974-9.08 0-16.6-2.375-22.56-7.126-5.95-4.649-8.93-10.815-8.93-18.497 0-6.57 1.82-12.028 5.45-16.374 3.54-4.447 8.28-7.934 14.23-10.461 5.85-2.628 12.31-4.447 19.38-5.458 7.06-1.112 14.02-1.668 20.89-1.668 16.95 0 31.18 1.92 42.68 5.761 11.61 3.74 20.39 9.299 26.34 16.678 5.85 7.378 8.78 16.425 8.78 27.138v78.384c0 3.033.96 5.559 2.87 7.581 1.92 2.022 4.7 3.032 8.33 3.032 2.32 0 5.7-1.061 10.14-3.184 4.44-2.122 8.23-6.317 11.35-12.583h.61c-3.43 7.681-9.54 13.291-18.32 16.829-8.77 3.537-19.07 5.306-30.87 5.306Zm-89.31 0c-13.12 0-23.56-3.386-31.34-10.158-7.87-6.671-11.802-15.768-11.802-27.29 0-13.544 5.952-23.955 17.862-31.233 11.81-7.176 28.46-10.764 49.95-10.764h37.39v.606h-16.8c-6.36 0-11.56 2.022-15.59 6.065-4.04 4.043-7.02 8.844-8.93 14.403-1.92 5.458-2.88 10.461-2.88 15.01 0 4.548.4 8.591 1.21 12.129.91 3.537 2.37 6.317 4.39 8.338 2.02 2.022 4.64 3.033 7.87 3.033 3.13 0 5.96-1.466 8.48-4.397 2.52-2.83 4.49-7.075 5.9-12.736 1.51-5.66 2.27-12.583 2.27-20.771h.61c0 12.534-1.92 23.096-5.75 31.688-3.84 8.591-9.34 15.06-16.5 19.406-7.27 4.447-16.05 6.671-26.34 6.671Z" fill="#3C4043"/><path d="M796.703 450.981v-.607h76.139v.607h-76.139ZM881.47 293l80.073 231.361h21.343v.607H865.122v-.607h21.191L831.215 354.1l-60.093 170.261h36.48v.607H741v-.607h29.214L852.104 293h29.366Zm247.34 235c-8.28 0-15.49-1.011-21.65-3.032-6.16-2.123-11-5.206-14.53-9.249-3.43-4.043-5.15-9.046-5.15-15.009v-68.075c0-7.277-.81-14.605-2.42-21.983-1.51-7.48-4.39-13.696-8.63-18.649-4.34-5.054-10.54-7.58-18.62-7.58-4.23 0-9.18.505-14.83 1.516a69.119 69.119 0 0 0-16.65 5.155c-5.45 2.425-9.94 5.761-13.47 10.006-3.53 4.144-5.3 9.451-5.3 15.919h-.3c0-7.479 3.07-13.645 9.23-18.496 6.16-4.852 13.47-7.278 21.95-7.278 8.88 0 16.5 2.173 22.86 6.52 6.35 4.245 9.53 10.461 9.53 18.648 0 8.288-3.23 14.706-9.69 19.255-6.45 4.649-14.02 6.974-22.7 6.974-9.08 0-16.6-2.375-22.56-7.126-5.95-4.649-8.93-10.815-8.93-18.497 0-6.57 1.82-12.028 5.45-16.374 3.54-4.447 8.28-7.934 14.23-10.461 5.85-2.628 12.31-4.447 19.38-5.458 7.06-1.112 14.02-1.668 20.89-1.668 16.95 0 31.18 1.92 42.68 5.761 11.61 3.74 20.39 9.299 26.34 16.678 5.85 7.378 8.78 16.425 8.78 27.138v78.384c0 3.033.96 5.559 2.87 7.581 1.92 2.022 4.7 3.032 8.33 3.032 2.32 0 5.7-1.061 10.14-3.184 4.44-2.122 8.23-6.317 11.35-12.583h.61c-3.43 7.681-9.54 13.291-18.32 16.829-8.77 3.537-19.07 5.306-30.87 5.306Zm-89.31 0c-13.12 0-23.56-3.386-31.34-10.158-7.87-6.671-11.802-15.768-11.802-27.29 0-13.544 5.952-23.955 17.862-31.233 11.81-7.176 28.46-10.764 49.95-10.764h37.39v.606h-16.8c-6.36 0-11.56 2.022-15.59 6.065-4.04 4.043-7.02 8.844-8.93 14.403-1.92 5.458-2.88 10.461-2.88 15.01 0 4.548.4 8.591 1.21 12.129.91 3.537 2.37 6.317 4.39 8.338 2.02 2.022 4.64 3.033 7.87 3.033 3.13 0 5.96-1.466 8.48-4.397 2.52-2.83 4.49-7.075 5.9-12.736 1.51-5.66 2.27-12.583 2.27-20.771h.61c0 12.534-1.92 23.096-5.75 31.688-3.84 8.591-9.34 15.06-16.5 19.406-7.27 4.447-16.05 6.671-26.34 6.671Z" fill="#3C4043"/><path d="M796.703 450.981v-.607h76.139v.607h-76.139ZM881.47 293l80.073 231.361h21.343v.607H865.122v-.607h21.191L831.215 354.1l-60.093 170.261h36.48v.607H741v-.607h29.214L852.104 293h29.366Zm247.34 235c-8.28 0-15.49-1.011-21.65-3.032-6.16-2.123-11-5.206-14.53-9.249-3.43-4.043-5.15-9.046-5.15-15.009v-68.075c0-7.277-.81-14.605-2.42-21.983-1.51-7.48-4.39-13.696-8.63-18.649-4.34-5.054-10.54-7.58-18.62-7.58-4.23 0-9.18.505-14.83 1.516a69.119 69.119 0 0 0-16.65 5.155c-5.45 2.425-9.94 5.761-13.47 10.006-3.53 4.144-5.3 9.451-5.3 15.919h-.3c0-7.479 3.07-13.645 9.23-18.496 6.16-4.852 13.47-7.278 21.95-7.278 8.88 0 16.5 2.173 22.86 6.52 6.35 4.245 9.53 10.461 9.53 18.648 0 8.288-3.23 14.706-9.69 19.255-6.45 4.649-14.02 6.974-22.7 6.974-9.08 0-16.6-2.375-22.56-7.126-5.95-4.649-8.93-10.815-8.93-18.497 0-6.57 1.82-12.028 5.45-16.374 3.54-4.447 8.28-7.934 14.23-10.461 5.85-2.628 12.31-4.447 19.38-5.458 7.06-1.112 14.02-1.668 20.89-1.668 16.95 0 31.18 1.92 42.68 5.761 11.61 3.74 20.39 9.299 26.34 16.678 5.85 7.378 8.78 16.425 8.78 27.138v78.384c0 3.033.96 5.559 2.87 7.581 1.92 2.022 4.7 3.032 8.33 3.032 2.32 0 5.7-1.061 10.14-3.184 4.44-2.122 8.23-6.317 11.35-12.583h.61c-3.43 7.681-9.54 13.291-18.32 16.829-8.77 3.537-19.07 5.306-30.87 5.306Zm-89.31 0c-13.12 0-23.56-3.386-31.34-10.158-7.87-6.671-11.802-15.768-11.802-27.29 0-13.544 5.952-23.955 17.862-31.233 11.81-7.176 28.46-10.764 49.95-10.764h37.39v.606h-16.8c-6.36 0-11.56 2.022-15.59 6.065-4.04 4.043-7.02 8.844-8.93 14.403-1.92 5.458-2.88 10.461-2.88 15.01 0 4.548.4 8.591 1.21 12.129.91 3.537 2.37 6.317 4.39 8.338 2.02 2.022 4.64 3.033 7.87 3.033 3.13 0 5.96-1.466 8.48-4.397 2.52-2.83 4.49-7.075 5.9-12.736 1.51-5.66 2.27-12.583 2.27-20.771h.61c0 12.534-1.92 23.096-5.75 31.688-3.84 8.591-9.34 15.06-16.5 19.406-7.27 4.447-16.05 6.671-26.34 6.671Z" fill="#3C4043"/><path d="M796.703 450.981v-.607h76.139v.607h-76.139ZM881.47 293l80.073 231.361h21.343v.607H865.122v-.607h21.191L831.215 354.1l-60.093 170.261h36.48v.607H741v-.607h29.214L852.104 293h29.366Zm247.34 235c-8.28 0-15.49-1.011-21.65-3.032-6.16-2.123-11-5.206-14.53-9.249-3.43-4.043-5.15-9.046-5.15-15.009v-68.075c0-7.277-.81-14.605-2.42-21.983-1.51-7.48-4.39-13.696-8.63-18.649-4.34-5.054-10.54-7.58-18.62-7.58-4.23 0-9.18.505-14.83 1.516a69.119 69.119 0 0 0-16.65 5.155c-5.45 2.425-9.94 5.761-13.47 10.006-3.53 4.144-5.3 9.451-5.3 15.919h-.3c0-7.479 3.07-13.645 9.23-18.496 6.16-4.852 13.47-7.278 21.95-7.278 8.88 0 16.5 2.173 22.86 6.52 6.35 4.245 9.53 10.461 9.53 18.648 0 8.288-3.23 14.706-9.69 19.255-6.45 4.649-14.02 6.974-22.7 6.974-9.08 0-16.6-2.375-22.56-7.126-5.95-4.649-8.93-10.815-8.93-18.497 0-6.57 1.82-12.028 5.45-16.374 3.54-4.447 8.28-7.934 14.23-10.461 5.85-2.628 12.31-4.447 19.38-5.458 7.06-1.112 14.02-1.668 20.89-1.668 16.95 0 31.18 1.92 42.68 5.761 11.61 3.74 20.39 9.299 26.34 16.678 5.85 7.378 8.78 16.425 8.78 27.138v78.384c0 3.033.96 5.559 2.87 7.581 1.92 2.022 4.7 3.032 8.33 3.032 2.32 0 5.7-1.061 10.14-3.184 4.44-2.122 8.23-6.317 11.35-12.583h.61c-3.43 7.681-9.54 13.291-18.32 16.829-8.77 3.537-19.07 5.306-30.87 5.306Zm-89.31 0c-13.12 0-23.56-3.386-31.34-10.158-7.87-6.671-11.802-15.768-11.802-27.29 0-13.544 5.952-23.955 17.862-31.233 11.81-7.176 28.46-10.764 49.95-10.764h37.39v.606h-16.8c-6.36 0-11.56 2.022-15.59 6.065-4.04 4.043-7.02 8.844-8.93 14.403-1.92 5.458-2.88 10.461-2.88 15.01 0 4.548.4 8.591 1.21 12.129.91 3.537 2.37 6.317 4.39 8.338 2.02 2.022 4.64 3.033 7.87 3.033 3.13 0 5.96-1.466 8.48-4.397 2.52-2.83 4.49-7.075 5.9-12.736 1.51-5.66 2.27-12.583 2.27-20.771h.61c0 12.534-1.92 23.096-5.75 31.688-3.84 8.591-9.34 15.06-16.5 19.406-7.27 4.447-16.05 6.671-26.34 6.671Z" stroke="#3C4043"/><path d="M796.703 450.981v-.607h76.139v.607h-76.139ZM881.47 293l80.073 231.361h21.343v.607H865.122v-.607h21.191L831.215 354.1l-60.093 170.261h36.48v.607H741v-.607h29.214L852.104 293h29.366Zm247.34 235c-8.28 0-15.49-1.011-21.65-3.032-6.16-2.123-11-5.206-14.53-9.249-3.43-4.043-5.15-9.046-5.15-15.009v-68.075c0-7.277-.81-14.605-2.42-21.983-1.51-7.48-4.39-13.696-8.63-18.649-4.34-5.054-10.54-7.58-18.62-7.58-4.23 0-9.18.505-14.83 1.516a69.119 69.119 0 0 0-16.65 5.155c-5.45 2.425-9.94 5.761-13.47 10.006-3.53 4.144-5.3 9.451-5.3 15.919h-.3c0-7.479 3.07-13.645 9.23-18.496 6.16-4.852 13.47-7.278 21.95-7.278 8.88 0 16.5 2.173 22.86 6.52 6.35 4.245 9.53 10.461 9.53 18.648 0 8.288-3.23 14.706-9.69 19.255-6.45 4.649-14.02 6.974-22.7 6.974-9.08 0-16.6-2.375-22.56-7.126-5.95-4.649-8.93-10.815-8.93-18.497 0-6.57 1.82-12.028 5.45-16.374 3.54-4.447 8.28-7.934 14.23-10.461 5.85-2.628 12.31-4.447 19.38-5.458 7.06-1.112 14.02-1.668 20.89-1.668 16.95 0 31.18 1.92 42.68 5.761 11.61 3.74 20.39 9.299 26.34 16.678 5.85 7.378 8.78 16.425 8.78 27.138v78.384c0 3.033.96 5.559 2.87 7.581 1.92 2.022 4.7 3.032 8.33 3.032 2.32 0 5.7-1.061 10.14-3.184 4.44-2.122 8.23-6.317 11.35-12.583h.61c-3.43 7.681-9.54 13.291-18.32 16.829-8.77 3.537-19.07 5.306-30.87 5.306Zm-89.31 0c-13.12 0-23.56-3.386-31.34-10.158-7.87-6.671-11.802-15.768-11.802-27.29 0-13.544 5.952-23.955 17.862-31.233 11.81-7.176 28.46-10.764 49.95-10.764h37.39v.606h-16.8c-6.36 0-11.56 2.022-15.59 6.065-4.04 4.043-7.02 8.844-8.93 14.403-1.92 5.458-2.88 10.461-2.88 15.01 0 4.548.4 8.591 1.21 12.129.91 3.537 2.37 6.317 4.39 8.338 2.02 2.022 4.64 3.033 7.87 3.033 3.13 0 5.96-1.466 8.48-4.397 2.52-2.83 4.49-7.075 5.9-12.736 1.51-5.66 2.27-12.583 2.27-20.771h.61c0 12.534-1.92 23.096-5.75 31.688-3.84 8.591-9.34 15.06-16.5 19.406-7.27 4.447-16.05 6.671-26.34 6.671Z" stroke="#3C4043"/><path d="M796.703 450.981v-.607h76.139v.607h-76.139ZM881.47 293l80.073 231.361h21.343v.607H865.122v-.607h21.191L831.215 354.1l-60.093 170.261h36.48v.607H741v-.607h29.214L852.104 293h29.366Zm247.34 235c-8.28 0-15.49-1.011-21.65-3.032-6.16-2.123-11-5.206-14.53-9.249-3.43-4.043-5.15-9.046-5.15-15.009v-68.075c0-7.277-.81-14.605-2.42-21.983-1.51-7.48-4.39-13.696-8.63-18.649-4.34-5.054-10.54-7.58-18.62-7.58-4.23 0-9.18.505-14.83 1.516a69.119 69.119 0 0 0-16.65 5.155c-5.45 2.425-9.94 5.761-13.47 10.006-3.53 4.144-5.3 9.451-5.3 15.919h-.3c0-7.479 3.07-13.645 9.23-18.496 6.16-4.852 13.47-7.278 21.95-7.278 8.88 0 16.5 2.173 22.86 6.52 6.35 4.245 9.53 10.461 9.53 18.648 0 8.288-3.23 14.706-9.69 19.255-6.45 4.649-14.02 6.974-22.7 6.974-9.08 0-16.6-2.375-22.56-7.126-5.95-4.649-8.93-10.815-8.93-18.497 0-6.57 1.82-12.028 5.45-16.374 3.54-4.447 8.28-7.934 14.23-10.461 5.85-2.628 12.31-4.447 19.38-5.458 7.06-1.112 14.02-1.668 20.89-1.668 16.95 0 31.18 1.92 42.68 5.761 11.61 3.74 20.39 9.299 26.34 16.678 5.85 7.378 8.78 16.425 8.78 27.138v78.384c0 3.033.96 5.559 2.87 7.581 1.92 2.022 4.7 3.032 8.33 3.032 2.32 0 5.7-1.061 10.14-3.184 4.44-2.122 8.23-6.317 11.35-12.583h.61c-3.43 7.681-9.54 13.291-18.32 16.829-8.77 3.537-19.07 5.306-30.87 5.306Zm-89.31 0c-13.12 0-23.56-3.386-31.34-10.158-7.87-6.671-11.802-15.768-11.802-27.29 0-13.544 5.952-23.955 17.862-31.233 11.81-7.176 28.46-10.764 49.95-10.764h37.39v.606h-16.8c-6.36 0-11.56 2.022-15.59 6.065-4.04 4.043-7.02 8.844-8.93 14.403-1.92 5.458-2.88 10.461-2.88 15.01 0 4.548.4 8.591 1.21 12.129.91 3.537 2.37 6.317 4.39 8.338 2.02 2.022 4.64 3.033 7.87 3.033 3.13 0 5.96-1.466 8.48-4.397 2.52-2.83 4.49-7.075 5.9-12.736 1.51-5.66 2.27-12.583 2.27-20.771h.61c0 12.534-1.92 23.096-5.75 31.688-3.84 8.591-9.34 15.06-16.5 19.406-7.27 4.447-16.05 6.671-26.34 6.671Z" stroke="#3C4043"/><path d="M796.703 450.981v-.607h76.139v.607h-76.139ZM881.47 293l80.073 231.361h21.343v.607H865.122v-.607h21.191L831.215 354.1l-60.093 170.261h36.48v.607H741v-.607h29.214L852.104 293h29.366Zm247.34 235c-8.28 0-15.49-1.011-21.65-3.032-6.16-2.123-11-5.206-14.53-9.249-3.43-4.043-5.15-9.046-5.15-15.009v-68.075c0-7.277-.81-14.605-2.42-21.983-1.51-7.48-4.39-13.696-8.63-18.649-4.34-5.054-10.54-7.58-18.62-7.58-4.23 0-9.18.505-14.83 1.516a69.119 69.119 0 0 0-16.65 5.155c-5.45 2.425-9.94 5.761-13.47 10.006-3.53 4.144-5.3 9.451-5.3 15.919h-.3c0-7.479 3.07-13.645 9.23-18.496 6.16-4.852 13.47-7.278 21.95-7.278 8.88 0 16.5 2.173 22.86 6.52 6.35 4.245 9.53 10.461 9.53 18.648 0 8.288-3.23 14.706-9.69 19.255-6.45 4.649-14.02 6.974-22.7 6.974-9.08 0-16.6-2.375-22.56-7.126-5.95-4.649-8.93-10.815-8.93-18.497 0-6.57 1.82-12.028 5.45-16.374 3.54-4.447 8.28-7.934 14.23-10.461 5.85-2.628 12.31-4.447 19.38-5.458 7.06-1.112 14.02-1.668 20.89-1.668 16.95 0 31.18 1.92 42.68 5.761 11.61 3.74 20.39 9.299 26.34 16.678 5.85 7.378 8.78 16.425 8.78 27.138v78.384c0 3.033.96 5.559 2.87 7.581 1.92 2.022 4.7 3.032 8.33 3.032 2.32 0 5.7-1.061 10.14-3.184 4.44-2.122 8.23-6.317 11.35-12.583h.61c-3.43 7.681-9.54 13.291-18.32 16.829-8.77 3.537-19.07 5.306-30.87 5.306Zm-89.31 0c-13.12 0-23.56-3.386-31.34-10.158-7.87-6.671-11.802-15.768-11.802-27.29 0-13.544 5.952-23.955 17.862-31.233 11.81-7.176 28.46-10.764 49.95-10.764h37.39v.606h-16.8c-6.36 0-11.56 2.022-15.59 6.065-4.04 4.043-7.02 8.844-8.93 14.403-1.92 5.458-2.88 10.461-2.88 15.01 0 4.548.4 8.591 1.21 12.129.91 3.537 2.37 6.317 4.39 8.338 2.02 2.022 4.64 3.033 7.87 3.033 3.13 0 5.96-1.466 8.48-4.397 2.52-2.83 4.49-7.075 5.9-12.736 1.51-5.66 2.27-12.583 2.27-20.771h.61c0 12.534-1.92 23.096-5.75 31.688-3.84 8.591-9.34 15.06-16.5 19.406-7.27 4.447-16.05 6.671-26.34 6.671Z" stroke="#3C4043"/><path d="M298.994 453.813v-5.916h98.064v5.916h-98.064ZM356.198 293l78.088 226.049h23.608v5.917h-87.773v-5.917h31.023L341.67 334.417l-64.166 184.632h32.083v5.917H243v-5.917h27.694L349.993 293h6.205Zm238.654 235c-4.742 0-9.08-.86-13.015-2.579-4.035-1.618-7.264-4.4-9.685-8.344-2.422-3.844-3.632-9.052-3.632-15.626v-68.877c0-7.282-.606-14.261-1.816-20.936-1.211-6.675-3.733-12.137-7.567-16.385-3.935-4.248-9.938-6.372-18.009-6.372-4.54 0-9.231.506-14.074 1.517-4.943 1.012-9.483 2.529-13.62 4.552-4.237 2.124-7.667 4.753-10.291 7.889-2.623 3.135-3.934 6.827-3.934 11.074h-7.113c0-5.158 1.715-9.254 5.145-12.288 3.33-2.933 7.012-4.4 11.048-4.4 4.338 0 8.323 1.366 11.955 4.097 3.531 2.831 5.297 6.826 5.297 11.985 0 6.068-1.816 10.468-5.448 13.198-3.733 2.731-7.668 4.097-11.804 4.097-4.641 0-8.525-1.416-11.653-4.248-3.228-2.832-4.843-6.979-4.843-12.441 0-4.753 1.564-9.052 4.692-12.895 3.026-3.742 7.163-6.979 12.409-9.709 5.145-2.63 10.997-4.703 17.555-6.221 6.457-1.416 13.115-2.124 19.976-2.124 13.923 0 24.365 2.428 31.326 7.283 6.861 4.854 11.451 11.075 13.772 18.66 2.32 7.586 3.48 15.475 3.48 23.667v74.642c0 3.337.606 6.169 1.816 8.495 1.11 2.327 3.531 3.49 7.264 3.49 2.623 0 5.549-1.113 8.778-3.338 3.127-2.124 5.549-4.855 7.264-8.192l2.875 5.461c-2.623 4.248-6.306 7.788-11.047 10.62-4.742 2.832-10.442 4.248-17.101 4.248Zm-70.522 0c-13.115 0-23.558-3.388-31.326-10.165-7.869-6.675-11.804-15.778-11.804-27.308 0-13.552 5.801-24.223 17.403-32.011 11.603-7.686 28.148-11.53 49.638-11.53h34.353v5.159h-34.353c-8.878 0-16.041 1.871-21.49 5.613-5.448 3.742-9.433 8.395-11.955 13.957-2.522 5.563-3.783 11.126-3.783 16.688 0 5.058.807 9.912 2.421 14.565 1.513 4.652 3.935 8.496 7.264 11.53 3.329 3.034 7.668 4.551 13.015 4.551 5.549 0 10.997-1.871 16.344-5.613 5.347-3.641 9.786-9.153 13.317-16.537 3.431-7.282 5.146-16.435 5.146-27.459H572c0 11.53-1.816 21.694-5.448 30.494-3.733 8.799-9.13 15.676-16.192 20.632-7.063 4.956-15.739 7.434-26.03 7.434Z" fill="#3C4043"/><path d="M298.994 453.813v-5.916h98.064v5.916h-98.064ZM356.198 293l78.088 226.049h23.608v5.917h-87.773v-5.917h31.023L341.67 334.417l-64.166 184.632h32.083v5.917H243v-5.917h27.694L349.993 293h6.205Zm238.654 235c-4.742 0-9.08-.86-13.015-2.579-4.035-1.618-7.264-4.4-9.685-8.344-2.422-3.844-3.632-9.052-3.632-15.626v-68.877c0-7.282-.606-14.261-1.816-20.936-1.211-6.675-3.733-12.137-7.567-16.385-3.935-4.248-9.938-6.372-18.009-6.372-4.54 0-9.231.506-14.074 1.517-4.943 1.012-9.483 2.529-13.62 4.552-4.237 2.124-7.667 4.753-10.291 7.889-2.623 3.135-3.934 6.827-3.934 11.074h-7.113c0-5.158 1.715-9.254 5.145-12.288 3.33-2.933 7.012-4.4 11.048-4.4 4.338 0 8.323 1.366 11.955 4.097 3.531 2.831 5.297 6.826 5.297 11.985 0 6.068-1.816 10.468-5.448 13.198-3.733 2.731-7.668 4.097-11.804 4.097-4.641 0-8.525-1.416-11.653-4.248-3.228-2.832-4.843-6.979-4.843-12.441 0-4.753 1.564-9.052 4.692-12.895 3.026-3.742 7.163-6.979 12.409-9.709 5.145-2.63 10.997-4.703 17.555-6.221 6.457-1.416 13.115-2.124 19.976-2.124 13.923 0 24.365 2.428 31.326 7.283 6.861 4.854 11.451 11.075 13.772 18.66 2.32 7.586 3.48 15.475 3.48 23.667v74.642c0 3.337.606 6.169 1.816 8.495 1.11 2.327 3.531 3.49 7.264 3.49 2.623 0 5.549-1.113 8.778-3.338 3.127-2.124 5.549-4.855 7.264-8.192l2.875 5.461c-2.623 4.248-6.306 7.788-11.047 10.62-4.742 2.832-10.442 4.248-17.101 4.248Zm-70.522 0c-13.115 0-23.558-3.388-31.326-10.165-7.869-6.675-11.804-15.778-11.804-27.308 0-13.552 5.801-24.223 17.403-32.011 11.603-7.686 28.148-11.53 49.638-11.53h34.353v5.159h-34.353c-8.878 0-16.041 1.871-21.49 5.613-5.448 3.742-9.433 8.395-11.955 13.957-2.522 5.563-3.783 11.126-3.783 16.688 0 5.058.807 9.912 2.421 14.565 1.513 4.652 3.935 8.496 7.264 11.53 3.329 3.034 7.668 4.551 13.015 4.551 5.549 0 10.997-1.871 16.344-5.613 5.347-3.641 9.786-9.153 13.317-16.537 3.431-7.282 5.146-16.435 5.146-27.459H572c0 11.53-1.816 21.694-5.448 30.494-3.733 8.799-9.13 15.676-16.192 20.632-7.063 4.956-15.739 7.434-26.03 7.434Z" fill="#3C4043"/><path d="M298.994 453.813v-5.916h98.064v5.916h-98.064ZM356.198 293l78.088 226.049h23.608v5.917h-87.773v-5.917h31.023L341.67 334.417l-64.166 184.632h32.083v5.917H243v-5.917h27.694L349.993 293h6.205Zm238.654 235c-4.742 0-9.08-.86-13.015-2.579-4.035-1.618-7.264-4.4-9.685-8.344-2.422-3.844-3.632-9.052-3.632-15.626v-68.877c0-7.282-.606-14.261-1.816-20.936-1.211-6.675-3.733-12.137-7.567-16.385-3.935-4.248-9.938-6.372-18.009-6.372-4.54 0-9.231.506-14.074 1.517-4.943 1.012-9.483 2.529-13.62 4.552-4.237 2.124-7.667 4.753-10.291 7.889-2.623 3.135-3.934 6.827-3.934 11.074h-7.113c0-5.158 1.715-9.254 5.145-12.288 3.33-2.933 7.012-4.4 11.048-4.4 4.338 0 8.323 1.366 11.955 4.097 3.531 2.831 5.297 6.826 5.297 11.985 0 6.068-1.816 10.468-5.448 13.198-3.733 2.731-7.668 4.097-11.804 4.097-4.641 0-8.525-1.416-11.653-4.248-3.228-2.832-4.843-6.979-4.843-12.441 0-4.753 1.564-9.052 4.692-12.895 3.026-3.742 7.163-6.979 12.409-9.709 5.145-2.63 10.997-4.703 17.555-6.221 6.457-1.416 13.115-2.124 19.976-2.124 13.923 0 24.365 2.428 31.326 7.283 6.861 4.854 11.451 11.075 13.772 18.66 2.32 7.586 3.48 15.475 3.48 23.667v74.642c0 3.337.606 6.169 1.816 8.495 1.11 2.327 3.531 3.49 7.264 3.49 2.623 0 5.549-1.113 8.778-3.338 3.127-2.124 5.549-4.855 7.264-8.192l2.875 5.461c-2.623 4.248-6.306 7.788-11.047 10.62-4.742 2.832-10.442 4.248-17.101 4.248Zm-70.522 0c-13.115 0-23.558-3.388-31.326-10.165-7.869-6.675-11.804-15.778-11.804-27.308 0-13.552 5.801-24.223 17.403-32.011 11.603-7.686 28.148-11.53 49.638-11.53h34.353v5.159h-34.353c-8.878 0-16.041 1.871-21.49 5.613-5.448 3.742-9.433 8.395-11.955 13.957-2.522 5.563-3.783 11.126-3.783 16.688 0 5.058.807 9.912 2.421 14.565 1.513 4.652 3.935 8.496 7.264 11.53 3.329 3.034 7.668 4.551 13.015 4.551 5.549 0 10.997-1.871 16.344-5.613 5.347-3.641 9.786-9.153 13.317-16.537 3.431-7.282 5.146-16.435 5.146-27.459H572c0 11.53-1.816 21.694-5.448 30.494-3.733 8.799-9.13 15.676-16.192 20.632-7.063 4.956-15.739 7.434-26.03 7.434Z" fill="#3C4043"/><path d="M298.994 453.813v-5.916h98.064v5.916h-98.064ZM356.198 293l78.088 226.049h23.608v5.917h-87.773v-5.917h31.023L341.67 334.417l-64.166 184.632h32.083v5.917H243v-5.917h27.694L349.993 293h6.205Zm238.654 235c-4.742 0-9.08-.86-13.015-2.579-4.035-1.618-7.264-4.4-9.685-8.344-2.422-3.844-3.632-9.052-3.632-15.626v-68.877c0-7.282-.606-14.261-1.816-20.936-1.211-6.675-3.733-12.137-7.567-16.385-3.935-4.248-9.938-6.372-18.009-6.372-4.54 0-9.231.506-14.074 1.517-4.943 1.012-9.483 2.529-13.62 4.552-4.237 2.124-7.667 4.753-10.291 7.889-2.623 3.135-3.934 6.827-3.934 11.074h-7.113c0-5.158 1.715-9.254 5.145-12.288 3.33-2.933 7.012-4.4 11.048-4.4 4.338 0 8.323 1.366 11.955 4.097 3.531 2.831 5.297 6.826 5.297 11.985 0 6.068-1.816 10.468-5.448 13.198-3.733 2.731-7.668 4.097-11.804 4.097-4.641 0-8.525-1.416-11.653-4.248-3.228-2.832-4.843-6.979-4.843-12.441 0-4.753 1.564-9.052 4.692-12.895 3.026-3.742 7.163-6.979 12.409-9.709 5.145-2.63 10.997-4.703 17.555-6.221 6.457-1.416 13.115-2.124 19.976-2.124 13.923 0 24.365 2.428 31.326 7.283 6.861 4.854 11.451 11.075 13.772 18.66 2.32 7.586 3.48 15.475 3.48 23.667v74.642c0 3.337.606 6.169 1.816 8.495 1.11 2.327 3.531 3.49 7.264 3.49 2.623 0 5.549-1.113 8.778-3.338 3.127-2.124 5.549-4.855 7.264-8.192l2.875 5.461c-2.623 4.248-6.306 7.788-11.047 10.62-4.742 2.832-10.442 4.248-17.101 4.248Zm-70.522 0c-13.115 0-23.558-3.388-31.326-10.165-7.869-6.675-11.804-15.778-11.804-27.308 0-13.552 5.801-24.223 17.403-32.011 11.603-7.686 28.148-11.53 49.638-11.53h34.353v5.159h-34.353c-8.878 0-16.041 1.871-21.49 5.613-5.448 3.742-9.433 8.395-11.955 13.957-2.522 5.563-3.783 11.126-3.783 16.688 0 5.058.807 9.912 2.421 14.565 1.513 4.652 3.935 8.496 7.264 11.53 3.329 3.034 7.668 4.551 13.015 4.551 5.549 0 10.997-1.871 16.344-5.613 5.347-3.641 9.786-9.153 13.317-16.537 3.431-7.282 5.146-16.435 5.146-27.459H572c0 11.53-1.816 21.694-5.448 30.494-3.733 8.799-9.13 15.676-16.192 20.632-7.063 4.956-15.739 7.434-26.03 7.434Z" fill="#3C4043"/><path d="M298.994 453.813v-5.916h98.064v5.916h-98.064ZM356.198 293l78.088 226.049h23.608v5.917h-87.773v-5.917h31.023L341.67 334.417l-64.166 184.632h32.083v5.917H243v-5.917h27.694L349.993 293h6.205Zm238.654 235c-4.742 0-9.08-.86-13.015-2.579-4.035-1.618-7.264-4.4-9.685-8.344-2.422-3.844-3.632-9.052-3.632-15.626v-68.877c0-7.282-.606-14.261-1.816-20.936-1.211-6.675-3.733-12.137-7.567-16.385-3.935-4.248-9.938-6.372-18.009-6.372-4.54 0-9.231.506-14.074 1.517-4.943 1.012-9.483 2.529-13.62 4.552-4.237 2.124-7.667 4.753-10.291 7.889-2.623 3.135-3.934 6.827-3.934 11.074h-7.113c0-5.158 1.715-9.254 5.145-12.288 3.33-2.933 7.012-4.4 11.048-4.4 4.338 0 8.323 1.366 11.955 4.097 3.531 2.831 5.297 6.826 5.297 11.985 0 6.068-1.816 10.468-5.448 13.198-3.733 2.731-7.668 4.097-11.804 4.097-4.641 0-8.525-1.416-11.653-4.248-3.228-2.832-4.843-6.979-4.843-12.441 0-4.753 1.564-9.052 4.692-12.895 3.026-3.742 7.163-6.979 12.409-9.709 5.145-2.63 10.997-4.703 17.555-6.221 6.457-1.416 13.115-2.124 19.976-2.124 13.923 0 24.365 2.428 31.326 7.283 6.861 4.854 11.451 11.075 13.772 18.66 2.32 7.586 3.48 15.475 3.48 23.667v74.642c0 3.337.606 6.169 1.816 8.495 1.11 2.327 3.531 3.49 7.264 3.49 2.623 0 5.549-1.113 8.778-3.338 3.127-2.124 5.549-4.855 7.264-8.192l2.875 5.461c-2.623 4.248-6.306 7.788-11.047 10.62-4.742 2.832-10.442 4.248-17.101 4.248Zm-70.522 0c-13.115 0-23.558-3.388-31.326-10.165-7.869-6.675-11.804-15.778-11.804-27.308 0-13.552 5.801-24.223 17.403-32.011 11.603-7.686 28.148-11.53 49.638-11.53h34.353v5.159h-34.353c-8.878 0-16.041 1.871-21.49 5.613-5.448 3.742-9.433 8.395-11.955 13.957-2.522 5.563-3.783 11.126-3.783 16.688 0 5.058.807 9.912 2.421 14.565 1.513 4.652 3.935 8.496 7.264 11.53 3.329 3.034 7.668 4.551 13.015 4.551 5.549 0 10.997-1.871 16.344-5.613 5.347-3.641 9.786-9.153 13.317-16.537 3.431-7.282 5.146-16.435 5.146-27.459H572c0 11.53-1.816 21.694-5.448 30.494-3.733 8.799-9.13 15.676-16.192 20.632-7.063 4.956-15.739 7.434-26.03 7.434Z" stroke="#3C4043"/><path d="M298.994 453.813v-5.916h98.064v5.916h-98.064ZM356.198 293l78.088 226.049h23.608v5.917h-87.773v-5.917h31.023L341.67 334.417l-64.166 184.632h32.083v5.917H243v-5.917h27.694L349.993 293h6.205Zm238.654 235c-4.742 0-9.08-.86-13.015-2.579-4.035-1.618-7.264-4.4-9.685-8.344-2.422-3.844-3.632-9.052-3.632-15.626v-68.877c0-7.282-.606-14.261-1.816-20.936-1.211-6.675-3.733-12.137-7.567-16.385-3.935-4.248-9.938-6.372-18.009-6.372-4.54 0-9.231.506-14.074 1.517-4.943 1.012-9.483 2.529-13.62 4.552-4.237 2.124-7.667 4.753-10.291 7.889-2.623 3.135-3.934 6.827-3.934 11.074h-7.113c0-5.158 1.715-9.254 5.145-12.288 3.33-2.933 7.012-4.4 11.048-4.4 4.338 0 8.323 1.366 11.955 4.097 3.531 2.831 5.297 6.826 5.297 11.985 0 6.068-1.816 10.468-5.448 13.198-3.733 2.731-7.668 4.097-11.804 4.097-4.641 0-8.525-1.416-11.653-4.248-3.228-2.832-4.843-6.979-4.843-12.441 0-4.753 1.564-9.052 4.692-12.895 3.026-3.742 7.163-6.979 12.409-9.709 5.145-2.63 10.997-4.703 17.555-6.221 6.457-1.416 13.115-2.124 19.976-2.124 13.923 0 24.365 2.428 31.326 7.283 6.861 4.854 11.451 11.075 13.772 18.66 2.32 7.586 3.48 15.475 3.48 23.667v74.642c0 3.337.606 6.169 1.816 8.495 1.11 2.327 3.531 3.49 7.264 3.49 2.623 0 5.549-1.113 8.778-3.338 3.127-2.124 5.549-4.855 7.264-8.192l2.875 5.461c-2.623 4.248-6.306 7.788-11.047 10.62-4.742 2.832-10.442 4.248-17.101 4.248Zm-70.522 0c-13.115 0-23.558-3.388-31.326-10.165-7.869-6.675-11.804-15.778-11.804-27.308 0-13.552 5.801-24.223 17.403-32.011 11.603-7.686 28.148-11.53 49.638-11.53h34.353v5.159h-34.353c-8.878 0-16.041 1.871-21.49 5.613-5.448 3.742-9.433 8.395-11.955 13.957-2.522 5.563-3.783 11.126-3.783 16.688 0 5.058.807 9.912 2.421 14.565 1.513 4.652 3.935 8.496 7.264 11.53 3.329 3.034 7.668 4.551 13.015 4.551 5.549 0 10.997-1.871 16.344-5.613 5.347-3.641 9.786-9.153 13.317-16.537 3.431-7.282 5.146-16.435 5.146-27.459H572c0 11.53-1.816 21.694-5.448 30.494-3.733 8.799-9.13 15.676-16.192 20.632-7.063 4.956-15.739 7.434-26.03 7.434Z" stroke="#3C4043"/><path d="M298.994 453.813v-5.916h98.064v5.916h-98.064ZM356.198 293l78.088 226.049h23.608v5.917h-87.773v-5.917h31.023L341.67 334.417l-64.166 184.632h32.083v5.917H243v-5.917h27.694L349.993 293h6.205Zm238.654 235c-4.742 0-9.08-.86-13.015-2.579-4.035-1.618-7.264-4.4-9.685-8.344-2.422-3.844-3.632-9.052-3.632-15.626v-68.877c0-7.282-.606-14.261-1.816-20.936-1.211-6.675-3.733-12.137-7.567-16.385-3.935-4.248-9.938-6.372-18.009-6.372-4.54 0-9.231.506-14.074 1.517-4.943 1.012-9.483 2.529-13.62 4.552-4.237 2.124-7.667 4.753-10.291 7.889-2.623 3.135-3.934 6.827-3.934 11.074h-7.113c0-5.158 1.715-9.254 5.145-12.288 3.33-2.933 7.012-4.4 11.048-4.4 4.338 0 8.323 1.366 11.955 4.097 3.531 2.831 5.297 6.826 5.297 11.985 0 6.068-1.816 10.468-5.448 13.198-3.733 2.731-7.668 4.097-11.804 4.097-4.641 0-8.525-1.416-11.653-4.248-3.228-2.832-4.843-6.979-4.843-12.441 0-4.753 1.564-9.052 4.692-12.895 3.026-3.742 7.163-6.979 12.409-9.709 5.145-2.63 10.997-4.703 17.555-6.221 6.457-1.416 13.115-2.124 19.976-2.124 13.923 0 24.365 2.428 31.326 7.283 6.861 4.854 11.451 11.075 13.772 18.66 2.32 7.586 3.48 15.475 3.48 23.667v74.642c0 3.337.606 6.169 1.816 8.495 1.11 2.327 3.531 3.49 7.264 3.49 2.623 0 5.549-1.113 8.778-3.338 3.127-2.124 5.549-4.855 7.264-8.192l2.875 5.461c-2.623 4.248-6.306 7.788-11.047 10.62-4.742 2.832-10.442 4.248-17.101 4.248Zm-70.522 0c-13.115 0-23.558-3.388-31.326-10.165-7.869-6.675-11.804-15.778-11.804-27.308 0-13.552 5.801-24.223 17.403-32.011 11.603-7.686 28.148-11.53 49.638-11.53h34.353v5.159h-34.353c-8.878 0-16.041 1.871-21.49 5.613-5.448 3.742-9.433 8.395-11.955 13.957-2.522 5.563-3.783 11.126-3.783 16.688 0 5.058.807 9.912 2.421 14.565 1.513 4.652 3.935 8.496 7.264 11.53 3.329 3.034 7.668 4.551 13.015 4.551 5.549 0 10.997-1.871 16.344-5.613 5.347-3.641 9.786-9.153 13.317-16.537 3.431-7.282 5.146-16.435 5.146-27.459H572c0 11.53-1.816 21.694-5.448 30.494-3.733 8.799-9.13 15.676-16.192 20.632-7.063 4.956-15.739 7.434-26.03 7.434Z" stroke="#3C4043"/><path d="M298.994 453.813v-5.916h98.064v5.916h-98.064ZM356.198 293l78.088 226.049h23.608v5.917h-87.773v-5.917h31.023L341.67 334.417l-64.166 184.632h32.083v5.917H243v-5.917h27.694L349.993 293h6.205Zm238.654 235c-4.742 0-9.08-.86-13.015-2.579-4.035-1.618-7.264-4.4-9.685-8.344-2.422-3.844-3.632-9.052-3.632-15.626v-68.877c0-7.282-.606-14.261-1.816-20.936-1.211-6.675-3.733-12.137-7.567-16.385-3.935-4.248-9.938-6.372-18.009-6.372-4.54 0-9.231.506-14.074 1.517-4.943 1.012-9.483 2.529-13.62 4.552-4.237 2.124-7.667 4.753-10.291 7.889-2.623 3.135-3.934 6.827-3.934 11.074h-7.113c0-5.158 1.715-9.254 5.145-12.288 3.33-2.933 7.012-4.4 11.048-4.4 4.338 0 8.323 1.366 11.955 4.097 3.531 2.831 5.297 6.826 5.297 11.985 0 6.068-1.816 10.468-5.448 13.198-3.733 2.731-7.668 4.097-11.804 4.097-4.641 0-8.525-1.416-11.653-4.248-3.228-2.832-4.843-6.979-4.843-12.441 0-4.753 1.564-9.052 4.692-12.895 3.026-3.742 7.163-6.979 12.409-9.709 5.145-2.63 10.997-4.703 17.555-6.221 6.457-1.416 13.115-2.124 19.976-2.124 13.923 0 24.365 2.428 31.326 7.283 6.861 4.854 11.451 11.075 13.772 18.66 2.32 7.586 3.48 15.475 3.48 23.667v74.642c0 3.337.606 6.169 1.816 8.495 1.11 2.327 3.531 3.49 7.264 3.49 2.623 0 5.549-1.113 8.778-3.338 3.127-2.124 5.549-4.855 7.264-8.192l2.875 5.461c-2.623 4.248-6.306 7.788-11.047 10.62-4.742 2.832-10.442 4.248-17.101 4.248Zm-70.522 0c-13.115 0-23.558-3.388-31.326-10.165-7.869-6.675-11.804-15.778-11.804-27.308 0-13.552 5.801-24.223 17.403-32.011 11.603-7.686 28.148-11.53 49.638-11.53h34.353v5.159h-34.353c-8.878 0-16.041 1.871-21.49 5.613-5.448 3.742-9.433 8.395-11.955 13.957-2.522 5.563-3.783 11.126-3.783 16.688 0 5.058.807 9.912 2.421 14.565 1.513 4.652 3.935 8.496 7.264 11.53 3.329 3.034 7.668 4.551 13.015 4.551 5.549 0 10.997-1.871 16.344-5.613 5.347-3.641 9.786-9.153 13.317-16.537 3.431-7.282 5.146-16.435 5.146-27.459H572c0 11.53-1.816 21.694-5.448 30.494-3.733 8.799-9.13 15.676-16.192 20.632-7.063 4.956-15.739 7.434-26.03 7.434Z" stroke="#3C4043"/><rect x="1216" y="813" width="461" height="50" rx="25" fill="#D2E3FC"/><rect x="1216" y="813" width="80" height="50" rx="25" fill="#1A73E8"/><rect x="1216" y="713" width="461" height="50" rx="25" fill="#D2E3FC"/><rect x="1216" y="713" width="420" height="50" rx="25" fill="#FF6D7F"/><rect x="729" y="813" width="461" height="50" rx="25" fill="#D2E3FC"/><rect x="729" y="813" width="461" height="50" rx="25" fill="#1A73E8"/><rect x="729" y="713" width="461" height="50" rx="25" fill="#D2E3FC"/><rect x="729" y="713" width="420" height="50" rx="25" fill="#FF6D7F"/><rect x="243" y="813" width="461" height="50" rx="25" fill="#D2E3FC"/><rect x="243" y="813" width="80" height="50" rx="25" fill="#1A73E8"/><rect x="243" y="713" width="461" height="50" rx="25" fill="#D2E3FC"/><rect x="243" y="713" width="80" height="50" rx="25" fill="#FF6D7F"/><path d="M148.908 753H143.4l-2.34-23.904h-.432L138.288 753h-5.508l-2.556-25.2h2.736l2.412 23.904h.432l2.268-23.904h5.544l2.268 23.904h.432l2.412-23.904h2.736l-2.556 25.2Zm11.567-12.096h11.232V753h-2.808v-3.024h-.432c-.408 1.056-1.128 1.908-2.16 2.556-1.032.648-2.232.972-3.6.972-2.712 0-4.848-.876-6.408-2.628-1.536-1.752-2.304-4.308-2.304-7.668v-5.616c0-3.264.78-5.796 2.34-7.596 1.56-1.8 3.732-2.7 6.516-2.7 1.44 0 2.712.24 3.816.72 1.104.456 2.028 1.104 2.772 1.944.744.816 1.308 1.788 1.692 2.916.384 1.104.576 2.292.576 3.564v.432h-3.024v-.432a7.92 7.92 0 0 0-.36-2.376 5.383 5.383 0 0 0-1.044-2.016c-.456-.6-1.056-1.068-1.8-1.404-.72-.36-1.596-.54-2.628-.54-1.944 0-3.408.708-4.392 2.124-.96 1.416-1.44 3.276-1.44 5.58v5.184c0 2.472.48 4.38 1.44 5.724.984 1.32 2.472 1.98 4.464 1.98 1.8 0 3.204-.576 4.212-1.728 1.032-1.152 1.548-2.76 1.548-4.824v-.432h-8.208v-2.808Zm16.067-13.104h3.024v11.16h10.728V727.8h3.024V753h-3.024v-11.232h-10.728V753h-3.024v-25.2Zm21.575 0h17.712v2.808h-7.344V753h-3.024v-22.392h-7.344V727.8Z" fill="#FF6D7F"/><path d="M131.988 836.592c0-3.264.78-5.796 2.34-7.596 1.56-1.8 3.732-2.7 6.516-2.7s4.956.9 6.516 2.7c1.56 1.8 2.34 4.332 2.34 7.596v5.616c0 3.36-.78 5.916-2.34 7.668-1.56 1.752-3.732 2.628-6.516 2.628s-4.956-.876-6.516-2.628c-1.56-1.752-2.34-4.308-2.34-7.668v-5.616Zm8.856 13.104c1.944 0 3.396-.66 4.356-1.98.984-1.344 1.476-3.252 1.476-5.724v-5.184c0-2.304-.492-4.164-1.476-5.58-.96-1.416-2.412-2.124-4.356-2.124s-3.408.708-4.392 2.124c-.96 1.416-1.44 3.276-1.44 5.58v5.184c0 2.472.48 4.38 1.44 5.724.984 1.32 2.448 1.98 4.392 1.98Zm17.111-8.064V852h-3.024v-25.2h9c1.296 0 2.424.192 3.384.576.96.36 1.752.852 2.376 1.476a5.83 5.83 0 0 1 1.44 2.196 6.74 6.74 0 0 1 .504 2.592v1.08c0 .912-.168 1.788-.504 2.628a6.158 6.158 0 0 1-1.44 2.232c-.648.624-1.452 1.128-2.412 1.512-.96.36-2.076.54-3.348.54h-5.976Zm0-2.808h5.616c3.36 0 5.04-1.44 5.04-4.32v-.648c0-1.272-.42-2.292-1.26-3.06-.816-.792-2.076-1.188-3.78-1.188h-5.616v9.216Zm32.915-4.752c0-.816-.168-1.536-.504-2.16a4.27 4.27 0 0 0-1.296-1.548 6.154 6.154 0 0 0-1.908-.936 7.85 7.85 0 0 0-2.268-.324c-.696 0-1.356.096-1.98.288a5.694 5.694 0 0 0-1.692.756c-.48.336-.864.756-1.152 1.26-.288.48-.432 1.044-.432 1.692v.216c0 .696.144 1.296.432 1.8.288.48.708.9 1.26 1.26.576.336 1.284.624 2.124.864.84.216 1.824.408 2.952.576 2.64.408 4.584 1.188 5.832 2.34 1.248 1.128 1.872 2.652 1.872 4.572v.432c0 1.08-.192 2.076-.576 2.988a6.023 6.023 0 0 1-1.656 2.304c-.72.648-1.62 1.152-2.7 1.512-1.08.36-2.328.54-3.744.54-1.608 0-3.036-.228-4.284-.684-1.224-.48-2.256-1.128-3.096-1.944a8.68 8.68 0 0 1-1.872-2.916c-.432-1.128-.648-2.352-.648-3.672v-1.08h3.024v.864c0 2.208.6 3.864 1.8 4.968 1.224 1.104 2.916 1.656 5.076 1.656 1.872 0 3.276-.408 4.212-1.224.96-.84 1.44-1.944 1.44-3.312v-.216c0-1.32-.492-2.328-1.476-3.024-.96-.696-2.532-1.2-4.716-1.512-1.272-.168-2.424-.42-3.456-.756-1.008-.36-1.872-.816-2.592-1.368a5.91 5.91 0 0 1-1.656-2.052c-.384-.792-.576-1.728-.576-2.808v-.432c0-.984.204-1.884.612-2.7a6.563 6.563 0 0 1 1.692-2.124c.744-.6 1.62-1.056 2.628-1.368 1.032-.336 2.16-.504 3.384-.504 1.416 0 2.676.204 3.78.612 1.128.408 2.076.96 2.844 1.656a6.386 6.386 0 0 1 1.728 2.412c.408.912.612 1.872.612 2.88v1.512h-3.024v-1.296Zm7.859-7.272h16.848v4.536l-15.12 17.424v.432h15.552V852h-18.144v-4.536l15.12-17.424v-.432h-14.256V826.8Z" fill="#1A73E8"/></svg>