<svg xmlns="http://www.w3.org/2000/svg" version="1.1" viewBox="0 0 1200 946">
  <defs/>
  <g transform="translate(0, 820)">
    <g transform="translate(0, 0)">
      <path d="M1200,-592 L1200,-592 Q1200,-601 1200,-619 Q1200,-637 1200,-653 Q1200,-669 1200,-671 L1200,-712 L1200,-759 Q1187,-750 1174,-743.5 Q1161,-737 1149,-732 Q1137,-726 1125,-721.5 Q1113,-717 1101,-713 Q1077,-705 1053,-701 Q1041,-699 1030,-697 Q1019,-695 1007,-694 Q995,-693 983.5,-692.5 Q972,-692 962,-692 Q951,-692 940,-692.5 Q929,-693 919,-694 Q908,-695 897.5,-696 Q887,-697 877,-699 Q866,-700 855.5,-701.5 Q845,-703 835,-705 Q825,-707 815,-709.5 Q805,-712 795,-714 Q785,-716 775,-718.5 Q765,-721 756,-723 Q746,-725 736,-728 Q726,-731 716,-733 Q706,-736 696.5,-739 Q687,-742 677,-745 Q667,-748 657,-750.5 Q647,-753 638,-756 Q628,-759 618,-761.5 Q608,-764 598,-767 Q588,-770 578.5,-773 Q569,-776 559,-778 Q549,-781 539,-783.5 Q529,-786 519,-789 Q510,-791 500,-793.5 Q490,-796 480,-798 Q470,-800 460,-802 Q450,-804 440,-807 Q430,-809 419.5,-810.5 Q409,-812 398,-813 Q388,-815 377.5,-816 Q367,-817 356,-818 Q346,-819 335,-819.5 Q324,-820 313,-820 Q302,-820 290.5,-819.5 Q279,-819 268,-818 Q257,-816 245.5,-814.5 Q234,-813 222,-811 Q210,-808 198,-805.5 Q186,-803 174,-799 Q151,-792 126,-780 Q114,-775 101,-768 Q88,-761 75,-753 L75,-706 Q75,-699 75,-682.5 Q75,-666 75,-651.5 Q75,-637 75,-637 L75,-590 Q88,-598 100.5,-604.5 Q113,-611 126,-616 Q138,-622 150,-626.5 Q162,-631 174,-635 Q198,-643 222,-647 Q234,-649 245,-651 Q256,-653 268,-654 Q280,-654 291.5,-655 Q303,-656 313,-656 Q324,-656 335,-655 Q346,-654 356,-654 Q367,-653 377.5,-651.5 Q388,-650 398,-649 Q409,-648 419,-646.5 Q429,-645 440,-643 Q450,-640 460,-638 Q470,-636 480,-634 Q490,-632 500,-630 Q510,-628 519,-625 Q529,-622 539,-619 Q549,-616 559,-613 Q569,-611 578.5,-608 Q588,-605 598,-602 Q608,-599 618,-596.5 Q628,-594 638,-591 Q647,-588 657,-585.5 Q667,-583 677,-580 Q687,-577 696.5,-574 Q706,-571 716,-568 Q726,-566 736,-563 Q746,-560 756,-557 Q765,-555 775,-552.5 Q785,-550 795,-548 Q805,-546 815,-543.5 Q825,-541 835,-539 Q846,-538 856,-536 Q866,-534 877,-533 Q887,-531 897.5,-530 Q908,-529 919,-528 Q929,-527 940,-526.5 Q951,-526 962,-526 Q973,-526 984.5,-526.5 Q996,-527 1007,-528 Q1018,-530 1029.5,-531.5 Q1041,-533 1053,-535 Q1065,-537 1077,-540 Q1089,-543 1101,-547 Q1113,-550 1125,-555 Q1137,-560 1149,-566 Q1173,-575 1200,-592 Z" fill="#5BCEFA"/>
      <path d="M1200,-429 Q1200,-470 1200,-511 Q1200,-552 1200,-594 Q1130,-551 1050.5,-537 Q971,-523 891,-533 Q816,-542 743.5,-562.5 Q671,-583 598,-604 Q527,-624 454,-641.5 Q381,-659 306,-657 Q270,-657 234,-651 Q198,-645 163,-633 Q130,-622 99,-606 Q95,-603 85,-597.5 Q75,-592 75,-592 Q75,-592 75,-572.5 Q75,-553 75,-525.5 Q75,-498 75,-471 Q75,-444 75,-429 Q185,-493 313,-493 Q391,-493 467,-475 Q543,-457 617.5,-433.5 Q692,-410 766,-392 Q821,-378 876.5,-369.5 Q932,-361 988,-364 Q1044,-366 1098,-383 Q1152,-400 1200,-429 Z" fill="#F5A9B8"/>
      <path d="M1200,-266 Q1200,-307 1200,-348 Q1200,-389 1200,-431 Q1130,-388 1050.5,-374 Q971,-360 891,-370 Q815,-379 741.5,-400 Q668,-421 595,-442 Q524,-462 452,-479 Q380,-496 306,-494 Q269,-494 232.5,-488 Q196,-482 162,-470 Q127,-457 96,-441 Q92,-439 83.5,-434 Q75,-429 75,-429 Q75,-429 75,-409.5 Q75,-390 75,-362 Q75,-334 75,-307.5 Q75,-281 75,-266 Q130,-298 189.5,-315 Q249,-332 313,-331 Q340,-331 368,-328 Q396,-325 423,-320 Q478,-311 534,-295 Q592,-279 650,-262 Q708,-245 766,-229 Q820,-214 876,-206 Q932,-198 988,-200 Q1044,-203 1098,-220 Q1152,-237 1200,-266 Z" fill="white"/>
      <path d="M1200,-103 Q1200,-143 1200,-184.5 Q1200,-226 1200,-267 Q1128,-223 1042,-207 Q1000,-200 957.5,-201 Q915,-202 873,-208 Q834,-213 796,-222.5 Q758,-232 720,-243 Q680,-254 641,-265.5 Q602,-277 562,-288 Q489,-308 412,-323 Q335,-338 258,-328 Q219,-323 182,-312.5 Q145,-302 110,-285 Q106,-283 98,-278.5 Q90,-274 82.5,-270 Q75,-266 75,-266 Q75,-266 75,-246.5 Q75,-227 75,-199 Q75,-171 75,-144 Q75,-117 75,-103 Q129,-136 191,-152.5 Q253,-169 316,-168 Q373,-168 428,-157.5 Q483,-147 537,-131 Q595,-115 653.5,-98 Q712,-81 770,-65 Q823,-50 879.5,-42.5 Q936,-35 991,-38 Q1104,-44 1200,-103 Z" fill="#F5A9B8"/>
      <path d="M1200,61 Q1200,47 1200,30.5 Q1200,14 1200,14 L1200,-56 L1200,-103 Q1187,-95 1174,-88.5 Q1161,-82 1149,-76 Q1137,-71 1125,-66.5 Q1113,-62 1101,-58 Q1077,-50 1053,-45 Q1041,-43 1030,-41 Q1019,-39 1007,-39 Q995,-38 983.5,-37.5 Q972,-37 962,-37 Q951,-37 940,-37.5 Q929,-38 919,-39 Q908,-39 897.5,-40.5 Q887,-42 877,-43 Q866,-45 855.5,-46.5 Q845,-48 835,-50 Q825,-52 815,-54 Q805,-56 795,-58 Q785,-61 775,-63.5 Q765,-66 756,-69 Q746,-72 736,-74.5 Q726,-77 716,-80 Q706,-83 696.5,-85.5 Q687,-88 677,-91 Q667,-94 657,-97 Q647,-100 638,-103 Q628,-105 618,-108 Q608,-111 598,-114 Q588,-117 578.5,-119.5 Q569,-122 559,-125 Q549,-128 539,-130.5 Q529,-133 519,-136 Q510,-139 500,-141.5 Q490,-144 480,-147 Q470,-149 460,-151 Q450,-153 440,-155 Q430,-157 419.5,-158.5 Q409,-160 398,-162 Q388,-163 377.5,-164.5 Q367,-166 356,-166 Q346,-167 335,-167.5 Q324,-168 313,-168 Q302,-168 290.5,-167.5 Q279,-167 268,-166 Q257,-165 245.5,-163.5 Q234,-162 222,-160 Q210,-157 198,-154.5 Q186,-152 174,-148 Q162,-143 150,-138.5 Q138,-134 126,-129 Q102,-119 75,-103 L75,-56 Q75,-49 75,-32 Q75,-15 75,-0.5 Q75,14 75,14 L75,61 Q88,53 101,46.5 Q114,40 126,34 Q138,29 150,24.5 Q162,20 174,16 Q198,8 222,3 Q234,1 245,-0.5 Q256,-2 268,-3 Q280,-4 291.5,-4.5 Q303,-5 313,-5 Q324,-5 335,-4.5 Q346,-4 356,-3 Q367,-2 377.5,-1 Q388,0 398,2 Q409,3 419,4.5 Q429,6 440,8 Q450,10 460,12 Q470,14 480,17 Q490,19 500,21.5 Q510,24 519,27 Q529,30 539,32.5 Q549,35 559,38 Q569,41 578.5,44 Q588,47 598,49 Q608,52 618,55 Q628,58 638,61 Q647,63 657,66 Q667,69 677,72 Q687,75 696.5,77.5 Q706,80 716,83 Q726,86 736,89 Q746,92 756,94 Q765,97 775,100 Q785,103 795,105 Q805,107 815,109 Q825,111 835,113 Q846,115 856,116.5 Q866,118 877,120 Q887,121 897.5,122.5 Q908,124 919,124 Q929,125 940,125.5 Q951,126 962,126 Q973,126 984.5,125.5 Q996,125 1007,124 Q1018,123 1029.5,122 Q1041,121 1053,118 Q1065,115 1077,112.5 Q1089,110 1101,106 Q1113,101 1125,96.5 Q1137,92 1149,87 Q1173,77 1200,61 Z" fill="#5BCEFA"/>
      <path d="M1163,-701 Q1147,-693 1131,-686.5 Q1115,-680 1099,-675 Q1030,-654 960,-655 Q890,-656 820.5,-671.5 Q751,-687 682.5,-708.5 Q614,-730 548,-748 Q480,-767 410,-779.5 Q340,-792 269,-785 Q222,-780 186.5,-769.5 Q151,-759 131.5,-749.5 Q112,-740 112,-740 Q112,-740 112,-706.5 Q112,-673 112,-618.5 Q112,-564 112,-500.5 Q112,-437 112,-375 Q112,-313 112,-265 Q112,-217 112,-195 Q112,-145 112,-95.5 Q112,-46 112,3 Q129,-4 145,-11.5 Q161,-19 179,-24 Q250,-44 324.5,-42.5 Q399,-41 471,-24 Q524,-11 576.5,5.5 Q629,22 682,37 Q754,58 826,73 Q898,88 973,89 Q1007,89 1040.5,82.5 Q1074,76 1101.5,67 Q1129,58 1146,51 Q1163,44 1163,44 Q1163,44 1163,7.5 Q1163,-29 1163,-90 Q1163,-151 1163,-225 Q1163,-299 1163,-375.5 Q1163,-452 1163,-520 Q1163,-588 1163,-636 Q1163,-684 1163,-701 Z M1200,-759 Q1200,-756 1200,-720 Q1200,-684 1200,-625 Q1200,-566 1200,-493 Q1200,-420 1200,-343 Q1200,-266 1200,-194 Q1200,-122 1200,-64.5 Q1200,-7 1200,27 Q1200,61 1200,61 Q1131,101 1063.5,115 Q996,129 925,125 Q851,120 779.5,100.5 Q708,81 638,61 Q566,40 494.5,20.5 Q423,1 348,-4 Q277,-8 207,7.5 Q137,23 75,61 Q75,56 75,19.5 Q75,-17 75,-76 Q75,-135 75,-207 Q75,-279 75,-355 Q75,-431 75,-502.5 Q75,-574 75,-630.5 Q75,-687 75,-720.5 Q75,-754 75,-754 Q75,-754 90.5,-762 Q106,-770 123,-778 Q140,-786 145,-788 Q204,-812 260.5,-816 Q317,-820 353,-818 Q427,-813 498.5,-794 Q570,-775 641,-755 Q711,-735 781.5,-716.5 Q852,-698 925,-694 Q998,-689 1067.5,-705 Q1137,-721 1200,-759 Z" fill="#424242" opacity="0.2"/>
    </g>
  </g>
</svg>
