<svg width="1920" height="1080" fill="none" xmlns="http://www.w3.org/2000/svg"><mask id="a" style="mask-type:alpha" maskUnits="userSpaceOnUse" x="50" y="50" width="1820" height="980"><path fill="#C4C4C4" d="M50 50h1820v980H50z"/></mask><g mask="url(#a)"><path d="m430.998 1121.93-.034.03-.033.04-24.53 25H248V923h208v174.4l-25.002 24.53Z" fill="#F3F7FE" stroke="#D2E3FC" stroke-width="10"/><path d="M335.609 1073c-6.102 0-10.725-1.62-13.871-4.86-3.051-3.34-4.576-7.48-4.576-12.44 0-4.29 1.096-7.82 3.289-10.58 2.288-2.86 4.957-5.06 8.008-6.58 3.05-1.53 7.007-3.1 11.869-4.72 5.148-1.72 8.913-3.29 11.297-4.72 2.383-1.43 3.575-3.43 3.575-6.01v-12.72c0-3.05-.763-5.77-2.288-8.15-1.526-2.387-4.147-3.579-7.865-3.579-2.956 0-5.625.81-8.008 2.429 3.241 1.15 5.624 2.86 7.15 5.15 1.62 2.19 2.431 4.67 2.431 7.44 0 3.71-1.335 6.72-4.004 9-2.574 2.2-5.72 3.29-9.438 3.29-3.718 0-6.674-1.14-8.866-3.43-2.098-2.38-3.146-5.38-3.146-9.01 0-2.86.715-5.34 2.145-7.43 1.43-2.1 3.67-4.01 6.721-5.72 5.338-3.054 12.965-4.579 22.88-4.579 5.243 0 9.771.524 13.585 1.573 3.813.953 7.054 2.816 9.724 5.576 1.906 2 3.146 4.53 3.718 7.58.667 2.96 1.001 7.1 1.001 12.44v38.32c0 2.39.143 4.01.429 4.87.381.85 1.001 1.28 1.859 1.28.667 0 1.382-.19 2.145-.57.762-.47 1.477-1 2.145-1.57l1.43 2.43c-4.1 3.53-9.963 5.29-17.589 5.29-5.72 0-9.724-.95-12.012-2.86-2.288-2-3.528-4.67-3.718-8.01-4.481 7.25-11.154 10.87-20.02 10.87Zm14.3-11.44c2.002 0 3.765-.81 5.291-2.43v-30.17c-.858 1.43-2.431 3.29-4.719 5.57-2.574 2.48-4.529 4.91-5.863 7.3-1.335 2.28-2.002 5.43-2.002 9.43 0 6.87 2.431 10.3 7.293 10.3Z" fill="#D2E3FC"/><path d="m430.998 832.931-.034.033-.033.034L406.401 858H248V634h208v174.401l-25.002 24.53Z" fill="#F3F7FE" stroke="#3C4043" stroke-width="10"/><path d="M404 806h57l-28.5 28.5L404 863v-57ZM357.328 738.744v8.366c-3.336.572-6.029 1.215-8.079 1.93-2.05.715-3.623 1.502-4.719 2.36-1.049.858-1.764 1.835-2.145 2.931-.381 1.097-.572 2.336-.572 3.718 0 2.908.477 4.958 1.43 6.149.953 1.144 2.55 1.716 4.79 1.716 1.335 0 2.503-.286 3.504-.858 1.049-.619 1.835-1.43 2.359-2.431.572-1.048.858-2.216.858-3.503v-27.814c0-3.05-.786-5.386-2.359-7.007-1.525-1.668-4.004-2.502-7.436-2.502-1.764 0-3.337.095-4.719.286-1.335.143-2.479.334-3.432.572l2.574-5.863c-.429 2.908-.858 5.315-1.287 7.221-.429 1.859-.858 3.385-1.287 4.576-.429 1.192-.93 2.241-1.502 3.146-.762 1.383-2.002 2.431-3.718 3.146-1.668.668-3.789 1.001-6.363 1.001-2.812 0-4.934-.476-6.364-1.43-1.43-1.001-2.145-2.383-2.145-4.147 0-2.192 1.025-4.409 3.075-6.649 2.05-2.24 4.886-4.266 8.508-6.078 3.671-1.859 7.865-3.336 12.584-4.433 4.767-1.144 9.867-1.716 15.301-1.716 6.817 0 12.155.978 16.016 2.932 3.861 1.954 6.555 4.695 8.08 8.222 1.573 3.48 2.359 7.556 2.359 12.227v30.173c0 1.144.167 2.073.501 2.788.334.715.81 1.24 1.43 1.573.62.286 1.406.429 2.359.429.763 0 1.597-.095 2.503-.285.906-.191 1.93-.573 3.074-1.145v6.864c-2.907 1.955-6.077 3.599-9.509 4.934-3.384 1.335-6.721 2.002-10.01 2.002-3.909 0-7.102-.715-9.581-2.145-2.431-1.382-4.242-3.408-5.434-6.078-1.192-2.717-1.883-6.006-2.074-9.867l.93-.429c-1.239 4.529-2.836 8.151-4.791 10.868-1.954 2.717-4.29 4.672-7.007 5.864-2.717 1.191-5.886 1.787-9.509 1.787-6.149 0-11.035-1.478-14.658-4.433-3.622-3.003-5.434-7.627-5.434-13.871 0-2.908.549-5.529 1.645-7.865 1.144-2.383 3.217-4.576 6.22-6.578 3.003-2.002 7.246-3.861 12.727-5.577 5.482-1.764 12.584-3.456 21.307-5.077Z" fill="#3C4043"/><path d="m430.998 543.931-.034.033-.033.034L406.401 569H248V345h208v174.401l-25.002 24.53Z" fill="#F3F7FE" stroke="#D2E3FC" stroke-width="10"/><path d="M404 517h57l-28.5 28.5L404 574v-57ZM355.5 418.491c10.01 0 17.827 2.479 23.452 7.436s8.437 12.012 8.437 21.164V499h-18.876l-5.291-10.439h-.572c-2.193 2.765-4.481 5.053-6.864 6.864-2.288 1.716-4.957 2.955-8.008 3.718-3.051.858-6.769 1.287-11.154 1.287-6.864 0-12.584-2.097-17.16-6.292-4.576-4.195-6.864-10.63-6.864-19.305 0-8.485 2.908-14.777 8.723-18.876 5.911-4.099 14.443-6.387 25.597-6.864l13.156-.429v-1.144c0-3.527-.858-6.006-2.574-7.436-1.716-1.525-4.052-2.288-7.007-2.288-3.146 0-6.626.572-10.439 1.716-3.813 1.049-7.674 2.431-11.583 4.147l-7.865-18.018c4.576-2.383 9.724-4.147 15.444-5.291 5.815-1.239 12.298-1.859 19.448-1.859Zm-1.573 45.474c-4.957.191-8.485 1.096-10.582 2.717-2.002 1.525-3.003 3.718-3.003 6.578 0 2.669.715 4.671 2.145 6.006 1.43 1.239 3.337 1.859 5.72 1.859 3.337 0 6.149-1.049 8.437-3.146 2.383-2.097 3.575-4.814 3.575-8.151v-6.149l-6.292.286Z" fill="#D2E3FC"/><path d="m430.998 254.931-.034.033-.033.034L406.401 280H248V56h208v174.401l-25.002 24.53Z" fill="#F3F7FE" stroke="#D2E3FC" stroke-width="10"/><path d="M404 228h57l-28.5 28.5L404 285v-57ZM335.7 212.43c-4.1 0-7.865-.858-11.297-2.574-3.432-1.716-6.197-4.29-8.294-7.722-2.002-3.527-3.003-7.96-3.003-13.299 0-7.913 2.621-13.728 7.865-17.446 5.243-3.718 13.156-5.768 23.738-6.149l11.583-.429v-7.436c0-5.339-.62-9.2-1.859-11.583-1.24-2.479-3.099-3.718-5.577-3.718-2.288 0-4.1 1.287-5.434 3.861-1.335 2.574-2.002 6.387-2.002 11.44-7.532 0-13.156-.763-16.874-2.288-3.623-1.525-5.434-4.099-5.434-7.722s1.43-6.53 4.29-8.723c2.955-2.288 6.864-3.909 11.726-4.862 4.957-1.049 10.343-1.573 16.159-1.573 10.963 0 19.162 1.811 24.596 5.434 5.529 3.527 8.294 9.724 8.294 18.59v36.036c0 3.813.572 6.435 1.716 7.865 1.239 1.43 3.479 2.145 6.721 2.145h.572V211h-31.889l-3.575-8.008h-1.43c-2.098 2.479-4.1 4.433-6.006 5.863-1.812 1.335-3.861 2.24-6.149 2.717-2.193.572-5.005.858-8.437.858Zm11.297-11.583c2.86 0 5.148-1.525 6.864-4.576 1.716-3.146 2.574-7.341 2.574-12.584v-10.153l-4.433.429c-4.004.286-6.769 1.716-8.294 4.29-1.526 2.479-2.288 6.149-2.288 11.011 0 7.722 1.859 11.583 5.577 11.583Z" fill="#D2E3FC"/><path d="m187.998 999.931-.034.033-.033.034-24.53 25.002H5V801h208v174.401l-25.002 24.53Z" fill="#F3F7FE" stroke="#D2E3FC" stroke-width="10"/><path d="M161 973h57l-28.5 28.5L161 1030v-57ZM95.585 951.716c9.867 0 19.519-3.361 25.454-9.367.143.429.286.93.429 1.359 1.001 2.931 3.003 5.434 3.861 6.292H153.5c-1.073-.93-3.075-3.575-4.147-7.15-1.001-3.289-1.001-7.293-1.001-11.512v-29.529c0-20.163-19.377-29.315-40.326-29.315-22.165 0-39.897 10.081-39.897 29.243h28.385c0-5.291 3.647-8.222 11.297-8.222 7.079 0 11.655 2.931 11.655 6.435v.071c0 2.646-4.219 3.218-19.52 4.648-16.159 1.501-32.818 7.936-32.818 24.739 0 14.3 12.155 22.308 28.457 22.308Zm8.58-20.449c-5.148 0-8.151-1.502-8.151-4.719 0-3.218 3.146-4.433 9.724-5.148 4.361-.501 9.152-1.216 13.656-2.217-2.002 8.938-9.009 12.084-15.229 12.084Z" fill="#D2E3FC"/><path d="m187.998 710.931-.034.033-.033.034L163.401 736H5V512h208v174.401l-25.002 24.53Z" fill="#F3F7FE" stroke="#D2E3FC" stroke-width="10"/><path d="M161 684h57l-28.5 28.5L161 741v-57ZM96.096 656.002c-2.574 0-4.957-.62-7.15-1.859-2.193-1.239-3.956-2.86-5.291-4.862-1.24-2.002-1.86-4.195-1.86-6.578 0-3.241 1.002-5.958 3.004-8.151 2.097-2.193 5.148-4.147 9.152-5.863l12.727-5.577c1.907-.858 3.051-1.621 3.432-2.288.477-.667.715-1.907.715-3.718l.143-8.151c.095-2.669-.381-4.767-1.43-6.292-1.049-1.621-2.622-2.431-4.719-2.431-1.239 0-2.479.286-3.718.858-1.24.477-2.193 1.049-2.86 1.716-.286.381-.524.858-.715 1.43a8.04 8.04 0 0 0-.143 1.573c0 .572.048 1.287.143 2.145.095.763.143 1.43.143 2.002 0 .572-.763 1.335-2.288 2.288-1.525.858-3.29 1.668-5.291 2.431-2.002.667-3.718 1.001-5.148 1.001-.667 0-1.287-.286-1.86-.858-.476-.572-.714-1.287-.714-2.145 0-1.525.524-3.003 1.573-4.433 1.049-1.525 2.765-3.241 5.148-5.148a49.236 49.236 0 0 1 8.15-5.577c2.956-1.621 5.864-2.908 8.724-3.861 2.955-.953 5.434-1.43 7.436-1.43 5.148 0 9.247 1.668 12.298 5.005 3.051 3.241 4.481 7.579 4.29 13.013l-.715 28.886c-.095 2.193.286 4.052 1.144 5.577.858 1.525 1.907 2.288 3.146 2.288 1.811 0 3.384-.62 4.719-1.859.286-.286.572-.429.858-.429.477 0 .858.143 1.144.429.381.286.572.667.572 1.144 0 1.144-.858 2.622-2.574 4.433-1.811 1.716-3.718 3.003-5.72 3.861a14.465 14.465 0 0 1-6.292 1.43c-5.339 0-9.772-2.717-13.299-8.151h-.286c-3.146 2.86-6.006 4.91-8.58 6.149-2.479 1.335-5.148 2.002-8.008 2.002Zm8.58-9.295c1.049 0 1.907-.143 2.574-.429.667-.381 1.335-.953 2.002-1.716.286-.381.524-.858.715-1.43.191-.667.286-1.43.286-2.288l.429-10.296c0-.953-.143-1.573-.429-1.859a1.372 1.372 0 0 0-1.001-.429c-.191 0-.429.048-.715.143-.286.095-.62.238-1.001.429-2.765 1.335-4.814 2.717-6.149 4.147-1.335 1.335-2.002 3.527-2.002 6.578 0 2.765.572 4.671 1.716 5.72 1.144.953 2.336 1.43 3.575 1.43Z" fill="#D2E3FC"/><path d="m187.998 421.931-.034.033-.033.034L163.401 447H5V223h208v174.401l-25.002 24.53Z" fill="#F3F7FE" stroke="#D2E3FC" stroke-width="10"/><path d="M161 395h57l-28.5 28.5L161 452v-57ZM135.769 375c-4.385 0-7.913-1.096-10.582-3.289-2.669-2.288-4.242-5.529-4.719-9.724h-.715c-1.335 4.862-4.004 8.532-8.008 11.011-3.909 2.479-8.723 3.718-14.443 3.718-7.15 0-12.918-1.907-17.303-5.72-4.29-3.909-6.435-9.343-6.435-16.302 0-7.722 2.812-13.442 8.437-17.16s13.87-5.577 24.739-5.577h11.869v-3.718c0-4.385-1.049-7.674-3.146-9.867-2.002-2.288-5.434-3.432-10.296-3.432-4.481 0-8.103.858-10.868 2.574-2.765 1.716-5.148 3.956-7.15 6.721l-11.583-10.296c2.479-4.195 6.34-7.627 11.583-10.296 5.339-2.765 12.155-4.147 20.449-4.147 10.105 0 17.97 2.336 23.595 7.007 5.72 4.576 8.58 11.535 8.58 20.878v32.318h8.151V375h-12.155Zm-30.459-12.155c3.718 0 6.864-.906 9.438-2.717 2.574-1.811 3.861-4.433 3.861-7.865v-8.866h-11.297c-8.675 0-13.013 2.908-13.013 8.723v2.86c0 2.574 1 4.528 3.003 5.863 2.002 1.335 4.671 2.002 8.008 2.002Z" fill="#D2E3FC"/><path d="m187.998 132.931-.034.033-.033.034L163.401 158H5V-66h208v174.401l-25.002 24.53Z" fill="#F3F7FE" stroke="#D2E3FC" stroke-width="10"/><path d="M161 106h57l-28.5 28.5L161 163v-57ZM137.603 73.263c0 2.288.19 3.956.572 5.005.476.953 1.382 1.764 2.717 2.431l-5.434 17.589c-4.576-.381-8.342-1.335-11.297-2.86-2.956-1.525-5.244-3.909-6.864-7.15-4.672 7.055-11.107 10.582-19.305 10.582-6.388 0-11.488-2.193-15.301-6.578-3.718-4.48-5.577-10.391-5.577-17.732 0-8.39 2.621-14.824 7.865-19.305 5.338-4.48 13.108-6.721 23.309-6.721h2.86v-2.145c0-4.29-.525-7.15-1.573-8.58-.954-1.43-3.051-2.145-6.292-2.145-3.909 0-9.2 1.24-15.873 3.718l-5.863-16.588c3.909-1.907 8.341-3.384 13.299-4.433 4.957-1.049 9.628-1.573 14.014-1.573 9.724 0 16.921 2.24 21.593 6.721 4.766 4.385 7.15 11.488 7.15 21.307v28.457Zm-30.602 6.578c.762 0 1.525-.334 2.288-1.001.762-.763 1.382-1.716 1.859-2.86V62.824h-.572c-2.574 0-4.433.763-5.577 2.288-1.144 1.43-1.716 3.718-1.716 6.864 0 2.574.333 4.528 1.001 5.863.667 1.335 1.573 2.002 2.717 2.002Z" fill="#D2E3FC"/><path d="M491 238c0-8.284 6.716-15 15-15h422c8.284 0 15 6.716 15 15v158c0 8.284-6.716 15-15 15H506c-8.284 0-15-6.716-15-15V238Z" fill="#D2E3FC" stroke="#1A73E8" stroke-width="10"/><path d="M526.16 277.64v-4.32h11.304c2.352 0 4.224.624 5.616 1.872 1.392 1.248 2.088 3.12 2.088 5.616v12.24c0 1.008-.324 1.836-.972 2.484-.624.648-1.44.972-2.448.972h-4.428c-.912 0-1.584-.192-2.016-.576a2.436 2.436 0 0 1-.72-1.44h-.648c-.216.552-.612 1.032-1.188 1.44-.552.384-1.356.576-2.412.576-.84 0-1.62-.168-2.34-.504-.696-.312-1.308-.792-1.836-1.44-.504-.672-.912-1.512-1.224-2.52-.288-1.008-.432-2.196-.432-3.564v-.216c0-1.368.156-2.556.468-3.564.336-1.008.768-1.836 1.296-2.484.552-.672 1.188-1.164 1.908-1.476a5.706 5.706 0 0 1 2.376-.504c.912 0 1.608.18 2.088.54.504.336.864.756 1.08 1.26h.648v-1.296h4.32v10.656c0 .672.324 1.008.972 1.008h.216c.648 0 .972-.336.972-1.008v-9.432c0-2.88-1.44-4.32-4.32-4.32H526.16Zm5.472 14.76c.984 0 1.68-.36 2.088-1.08.432-.744.648-1.692.648-2.844v-.216c0-1.152-.216-2.088-.648-2.808-.408-.744-1.104-1.116-2.088-1.116-.912 0-1.608.372-2.088 1.116-.48.72-.72 1.656-.72 2.808v.216c0 1.152.24 2.1.72 2.844.48.72 1.176 1.08 2.088 1.08Zm20.675-14.256h5.076v-3.672c0-1.032.348-1.896 1.044-2.592.696-.72 1.56-1.08 2.592-1.08h7.272v4.32h-5.4c-.648 0-.972.36-.972 1.08v1.944h7.02v4.32h-7.02V296h-4.536v-13.536h-5.076v-4.32Zm43.283 9.144c0 1.488-.252 2.808-.756 3.96a8.629 8.629 0 0 1-2.052 2.88 9.117 9.117 0 0 1-2.988 1.764 9.992 9.992 0 0 1-3.492.612c-1.224 0-2.4-.204-3.528-.612a9.203 9.203 0 0 1-2.952-1.764 8.629 8.629 0 0 1-2.052-2.88c-.504-1.152-.756-2.472-.756-3.96v-.432c0-1.464.252-2.76.756-3.888.504-1.152 1.188-2.124 2.052-2.916a8.885 8.885 0 0 1 2.952-1.8 10.293 10.293 0 0 1 3.528-.612c1.224 0 2.388.204 3.492.612a8.807 8.807 0 0 1 2.988 1.8c.864.792 1.548 1.764 2.052 2.916.504 1.128.756 2.424.756 3.888v.432Zm-9.288 4.896c.648 0 1.26-.108 1.836-.324a4.454 4.454 0 0 0 1.512-.936 4.25 4.25 0 0 0 1.008-1.476c.264-.6.396-1.272.396-2.016v-.72c0-.744-.132-1.404-.396-1.98a4.182 4.182 0 0 0-1.008-1.512 4.454 4.454 0 0 0-1.512-.936 5.186 5.186 0 0 0-1.836-.324c-.648 0-1.26.108-1.836.324a4.454 4.454 0 0 0-1.512.936c-.432.408-.78.912-1.044 1.512-.24.576-.36 1.236-.36 1.98v.72c0 .744.12 1.416.36 2.016a4.695 4.695 0 0 0 1.044 1.476c.432.408.936.72 1.512.936a5.186 5.186 0 0 0 1.836.324ZM608.273 296h-4.536v-17.856h4.536v2.664h.648a4.738 4.738 0 0 1 1.98-2.34c.912-.552 1.98-.828 3.204-.828.864 0 1.668.144 2.412.432.768.264 1.44.684 2.016 1.26.576.576 1.02 1.308 1.332 2.196.336.888.504 1.944.504 3.168V296h-4.536v-10.152c0-1.272-.312-2.268-.936-2.988-.6-.744-1.476-1.116-2.628-1.116-1.344 0-2.352.456-3.024 1.368-.648.888-.972 2.088-.972 3.6V296Zm20.603-17.856h5.292V270.8h4.536v7.344h6.444v4.32h-6.444v8.136c0 .72.324 1.08.972 1.08h4.824V296h-7.56c-.816 0-1.488-.264-2.016-.792-.504-.528-.756-1.2-.756-2.016v-10.728h-5.292v-4.32Zm28.739 5.904h11.232v4.104h-11.232v-4.104Zm22.907-5.904h5.076v-3.672c0-1.032.348-1.896 1.044-2.592.696-.72 1.56-1.08 2.592-1.08h7.272v4.32h-5.4c-.648 0-.972.36-.972 1.08v1.944h7.02v4.32h-7.02V296h-4.536v-13.536h-5.076v-4.32Zm37.343 15.264c-.48 1.128-1.152 1.932-2.016 2.412-.864.456-1.872.684-3.024.684-1.08 0-2.1-.204-3.06-.612a7.248 7.248 0 0 1-2.484-1.8c-.72-.792-1.296-1.752-1.728-2.88-.408-1.128-.612-2.412-.612-3.852v-.576c0-1.416.204-2.688.612-3.816.408-1.128.96-2.088 1.656-2.88a6.99 6.99 0 0 1 2.412-1.8 7.045 7.045 0 0 1 2.988-.648c1.272 0 2.292.216 3.06.648.792.432 1.416 1.104 1.872 2.016h.648v-2.16h4.536V290.6c0 .72.324 1.08.972 1.08h.684V296h-3.096c-.816 0-1.488-.24-2.016-.72-.504-.48-.756-1.104-.756-1.872h-.648Zm-4.032-1.224c1.32 0 2.376-.432 3.168-1.296.792-.888 1.188-2.088 1.188-3.6v-.432c0-1.512-.396-2.7-1.188-3.564-.792-.888-1.848-1.332-3.168-1.332s-2.376.444-3.168 1.332c-.792.864-1.188 2.052-1.188 3.564v.432c0 1.512.396 2.712 1.188 3.6.792.864 1.848 1.296 3.168 1.296Zm35.543-2.736c-.408 2.112-1.38 3.816-2.916 5.112-1.512 1.296-3.54 1.944-6.084 1.944-1.32 0-2.556-.204-3.708-.612a8.714 8.714 0 0 1-2.952-1.764c-.84-.768-1.5-1.716-1.98-2.844s-.72-2.412-.72-3.852V287c0-1.44.24-2.736.72-3.888.48-1.152 1.14-2.136 1.98-2.952a8.988 8.988 0 0 1 2.988-1.872 10.371 10.371 0 0 1 3.672-.648c2.496 0 4.512.648 6.048 1.944 1.56 1.296 2.544 3 2.952 5.112l-4.464 1.152a4.67 4.67 0 0 0-1.368-2.736c-.768-.768-1.848-1.152-3.24-1.152-.648 0-1.26.12-1.836.36-.576.24-1.08.588-1.512 1.044-.432.432-.78.972-1.044 1.62-.24.624-.36 1.332-.36 2.124v.216c0 .792.12 1.5.36 2.124.264.6.612 1.104 1.044 1.512.432.408.936.72 1.512.936a5.768 5.768 0 0 0 1.836.288c1.392 0 2.448-.348 3.168-1.044.744-.696 1.224-1.632 1.44-2.808l4.464 1.116Zm12.215-.9c.024.528.144 1.02.36 1.476.24.432.552.816.936 1.152.408.312.864.564 1.368.756.528.168 1.08.252 1.656.252 1.128 0 1.992-.192 2.592-.576.6-.408 1.032-.888 1.296-1.44l3.888 2.16a8.209 8.209 0 0 1-.9 1.44c-.384.48-.888.924-1.512 1.332-.6.408-1.344.744-2.232 1.008-.864.264-1.884.396-3.06.396-1.344 0-2.568-.216-3.672-.648a8.301 8.301 0 0 1-2.88-1.872c-.792-.816-1.416-1.812-1.872-2.988-.432-1.176-.648-2.508-.648-3.996v-.216c0-1.368.228-2.616.684-3.744.48-1.128 1.128-2.088 1.944-2.88a8.655 8.655 0 0 1 2.844-1.836 9.15 9.15 0 0 1 3.528-.684c1.536 0 2.856.276 3.96.828 1.104.528 2.016 1.212 2.736 2.052a7.855 7.855 0 0 1 1.584 2.736c.336.984.504 1.944.504 2.88v2.412h-13.104Zm4.284-6.804c-1.152 0-2.088.3-2.808.9-.72.576-1.188 1.248-1.404 2.016h8.424c-.144-.84-.6-1.536-1.368-2.088-.744-.552-1.692-.828-2.844-.828Z" fill="#1A73E8"/><path d="M593 350c0-8.284 6.716-15 15-15h806c8.28 0 15 6.716 15 15v158c0 8.284-6.72 15-15 15H608c-8.284 0-15-6.716-15-15V350Z" fill="#D2E3FC" stroke="#1A73E8" stroke-width="10"/><path d="M633.408 405.2h-4.536v-25.056h4.536v2.592h.648c.48-.984 1.176-1.74 2.088-2.268.912-.552 2.076-.828 3.492-.828 1.056 0 2.052.204 2.988.612a6.82 6.82 0 0 1 2.484 1.8c.72.768 1.284 1.716 1.692 2.844.432 1.128.648 2.412.648 3.852v.648c0 1.464-.204 2.76-.612 3.888-.408 1.128-.96 2.088-1.656 2.88a7.015 7.015 0 0 1-2.484 1.764c-.936.384-1.956.576-3.06.576-.816 0-1.524-.084-2.124-.252a5.956 5.956 0 0 1-1.584-.684 5.507 5.507 0 0 1-1.116-.972 8.99 8.99 0 0 1-.756-1.188h-.648v9.792Zm4.752-11.016c1.416 0 2.556-.432 3.42-1.296.888-.888 1.332-2.088 1.332-3.6v-.432c0-1.512-.444-2.7-1.332-3.564-.864-.888-2.004-1.332-3.42-1.332s-2.568.456-3.456 1.368c-.864.888-1.296 2.064-1.296 3.528v.432c0 1.464.432 2.652 1.296 3.564.888.888 2.04 1.332 3.456 1.332Zm49.342-23.328c0-1.08.336-1.956 1.008-2.628.696-.696 1.584-1.044 2.664-1.044h4.752v4.32h-2.916c-.648 0-.972.36-.972 1.08v9.684c0 .816-.264 1.488-.792 2.016-.504.528-1.176.792-2.016.792h-.216v.648h.216c.84 0 1.512.264 2.016.792.528.528.792 1.2.792 2.016v9.684c0 .72.324 1.08.972 1.08h2.916v4.32h-4.752c-1.08 0-1.968-.348-2.664-1.044-.672-.672-1.008-1.548-1.008-2.628v-10.908c0-.696-.324-1.044-.972-1.044h-2.268v-5.184h2.268c.648 0 .972-.348.972-1.044v-10.908Zm-6.552 54.288h5.076v-3.672c0-1.032.348-1.896 1.044-2.592.696-.72 1.56-1.08 2.592-1.08h7.272v4.32h-5.4c-.648 0-.972.36-.972 1.08v1.944h7.02v4.32h-7.02V443h-4.536v-13.536h-5.076v-4.32Zm43.283 9.144c0 1.488-.252 2.808-.756 3.96a8.629 8.629 0 0 1-2.052 2.88 9.117 9.117 0 0 1-2.988 1.764 9.992 9.992 0 0 1-3.492.612c-1.224 0-2.4-.204-3.528-.612a9.203 9.203 0 0 1-2.952-1.764 8.629 8.629 0 0 1-2.052-2.88c-.504-1.152-.756-2.472-.756-3.96v-.432c0-1.464.252-2.76.756-3.888.504-1.152 1.188-2.124 2.052-2.916a8.885 8.885 0 0 1 2.952-1.8 10.293 10.293 0 0 1 3.528-.612c1.224 0 2.388.204 3.492.612a8.807 8.807 0 0 1 2.988 1.8c.864.792 1.548 1.764 2.052 2.916.504 1.128.756 2.424.756 3.888v.432Zm-9.288 4.896c.648 0 1.26-.108 1.836-.324a4.454 4.454 0 0 0 1.512-.936 4.25 4.25 0 0 0 1.008-1.476c.264-.6.396-1.272.396-2.016v-.72c0-.744-.132-1.404-.396-1.98a4.182 4.182 0 0 0-1.008-1.512 4.454 4.454 0 0 0-1.512-.936 5.186 5.186 0 0 0-1.836-.324c-.648 0-1.26.108-1.836.324a4.454 4.454 0 0 0-1.512.936c-.432.408-.78.912-1.044 1.512-.24.576-.36 1.236-.36 1.98v.72c0 .744.12 1.416.36 2.016a4.695 4.695 0 0 0 1.044 1.476c.432.408.936.72 1.512.936a5.186 5.186 0 0 0 1.836.324ZM736.916 443h-4.536v-17.856h4.536v2.664h.648a4.738 4.738 0 0 1 1.98-2.34c.912-.552 1.98-.828 3.204-.828.864 0 1.668.144 2.412.432.768.264 1.44.684 2.016 1.26.576.576 1.02 1.308 1.332 2.196.336.888.504 1.944.504 3.168V443h-4.536v-10.152c0-1.272-.312-2.268-.936-2.988-.6-.744-1.476-1.116-2.628-1.116-1.344 0-2.352.456-3.024 1.368-.648.888-.972 2.088-.972 3.6V443Zm20.603-17.856h5.292V417.8h4.536v7.344h6.444v4.32h-6.444v8.136c0 .72.324 1.08.972 1.08h4.824V443h-7.56c-.816 0-1.488-.264-2.016-.792-.504-.528-.756-1.2-.756-2.016v-10.728h-5.292v-4.32Zm28.739 5.904h11.232v4.104h-11.232v-4.104Zm22.907-5.904h5.076v-3.672c0-1.032.348-1.896 1.044-2.592.696-.72 1.56-1.08 2.592-1.08h7.272v4.32h-5.4c-.648 0-.972.36-.972 1.08v1.944h7.02v4.32h-7.02V443h-4.536v-13.536h-5.076v-4.32Zm37.343 15.264c-.48 1.128-1.152 1.932-2.016 2.412-.864.456-1.872.684-3.024.684-1.08 0-2.1-.204-3.06-.612a7.248 7.248 0 0 1-2.484-1.8c-.72-.792-1.296-1.752-1.728-2.88-.408-1.128-.612-2.412-.612-3.852v-.576c0-1.416.204-2.688.612-3.816.408-1.128.96-2.088 1.656-2.88a6.99 6.99 0 0 1 2.412-1.8 7.045 7.045 0 0 1 2.988-.648c1.272 0 2.292.216 3.06.648.792.432 1.416 1.104 1.872 2.016h.648v-2.16h4.536V437.6c0 .72.324 1.08.972 1.08h.684V443h-3.096c-.816 0-1.488-.24-2.016-.72-.504-.48-.756-1.104-.756-1.872h-.648Zm-4.032-1.224c1.32 0 2.376-.432 3.168-1.296.792-.888 1.188-2.088 1.188-3.6v-.432c0-1.512-.396-2.7-1.188-3.564-.792-.888-1.848-1.332-3.168-1.332s-2.376.444-3.168 1.332c-.792.864-1.188 2.052-1.188 3.564v.432c0 1.512.396 2.712 1.188 3.6.792.864 1.848 1.296 3.168 1.296ZM878.523 443h-4.536v-12.528c0-.504-.132-.876-.396-1.116-.24-.264-.564-.396-.972-.396-.48 0-.864.144-1.152.432-.264.288-.396.72-.396 1.296V443h-4.536v-12.528c0-.504-.144-.876-.432-1.116a1.321 1.321 0 0 0-.972-.396c-.432 0-.792.144-1.08.432-.288.288-.432.72-.432 1.296V443h-4.536v-17.856h4.536v1.728h.648a2.744 2.744 0 0 1 .972-1.584c.528-.432 1.212-.648 2.052-.648.792 0 1.464.216 2.016.648.552.408.924.936 1.116 1.584h.648c.192-.648.588-1.176 1.188-1.584.624-.432 1.392-.648 2.304-.648 1.2 0 2.16.408 2.88 1.224.72.792 1.08 1.896 1.08 3.312V443Zm8.039-4.32h6.048v-9.216h-5.616v-4.32h10.152v13.536h5.184V443h-15.768v-4.32Zm11.7-18.828c0 .48-.096.936-.288 1.368a3.277 3.277 0 0 1-.72 1.08 4.059 4.059 0 0 1-1.116.72 3.37 3.37 0 0 1-1.296.252c-.48 0-.924-.084-1.332-.252a4.242 4.242 0 0 1-1.08-.72 3.806 3.806 0 0 1-.756-1.08 3.74 3.74 0 0 1-.252-1.368c0-.48.084-.924.252-1.332.192-.432.444-.792.756-1.08a3.277 3.277 0 0 1 1.08-.72 3.089 3.089 0 0 1 1.332-.288c.456 0 .888.096 1.296.288.432.168.804.408 1.116.72.312.288.552.648.72 1.08.192.408.288.852.288 1.332Zm13.511 18.828h6.264v-16.56h-6.048v-4.32h10.584v20.88h5.832V443h-16.632v-4.32Zm37.847-13.536h4.536v22.248c0 .816-.264 1.488-.792 2.016-.504.528-1.164.792-1.98.792h-10.62v-4.32h7.884c.648 0 .972-.36.972-1.08v-4.392h-.648c-.792 2.064-2.496 3.096-5.112 3.096a7.018 7.018 0 0 1-2.484-.432 5.384 5.384 0 0 1-2.016-1.332c-.576-.6-1.032-1.344-1.368-2.232-.312-.912-.468-1.98-.468-3.204v-11.16h4.536v10.224c0 1.272.3 2.268.9 2.988.6.696 1.5 1.044 2.7 1.044 1.368 0 2.364-.432 2.988-1.296.648-.888.972-2.088.972-3.6v-9.36Zm25.175 14.94c0 .48-.096.936-.288 1.368a3.277 3.277 0 0 1-.72 1.08 3.49 3.49 0 0 1-1.116.684c-.408.192-.84.288-1.296.288-.48 0-.924-.096-1.332-.288a3.595 3.595 0 0 1-1.08-.684 3.806 3.806 0 0 1-.756-1.08 3.74 3.74 0 0 1-.252-1.368c0-.48.084-.924.252-1.332.192-.432.444-.792.756-1.08a3.277 3.277 0 0 1 1.08-.72 3.089 3.089 0 0 1 1.332-.288c.456 0 .888.096 1.296.288.432.168.804.408 1.116.72.312.288.552.648.72 1.08.192.408.288.852.288 1.332Zm0-12.024c0 .48-.096.936-.288 1.368a3.277 3.277 0 0 1-.72 1.08 4.059 4.059 0 0 1-1.116.72 3.37 3.37 0 0 1-1.296.252c-.48 0-.924-.084-1.332-.252a4.242 4.242 0 0 1-1.08-.72 3.806 3.806 0 0 1-.756-1.08 3.74 3.74 0 0 1-.252-1.368c0-.48.084-.924.252-1.332.192-.432.444-.792.756-1.08a3.277 3.277 0 0 1 1.08-.72 3.089 3.089 0 0 1 1.332-.288c.456 0 .888.096 1.296.288.432.168.804.408 1.116.72.312.288.552.648.72 1.08.192.408.288.852.288 1.332Zm46.465-4.248c-.6-.264-1.1-.672-1.48-1.224a3.529 3.529 0 0 1-.54-1.908c0-.456.08-.888.25-1.296.19-.432.45-.792.76-1.08.31-.312.67-.552 1.08-.72.41-.192.85-.288 1.33-.288.46 0 .89.096 1.3.288.43.168.79.408 1.08.72.31.288.55.648.72 1.08.19.408.28.84.28 1.296 0 .696-.19 1.332-.57 1.908-.36.552-.83.96-1.41 1.224v4.5h-2.8v-4.5Zm30.46 16.812h.65V417.8h4.75V443h-9.28l-2.96-22.824h-.64V443h-4.76v-25.2h9.29l2.95 22.824Zm18.01-5.076c.03.528.15 1.02.36 1.476.24.432.56.816.94 1.152.41.312.86.564 1.37.756.53.168 1.08.252 1.65.252 1.13 0 2-.192 2.6-.576.6-.408 1.03-.888 1.29-1.44l3.89 2.16c-.22.456-.52.936-.9 1.44-.38.48-.89.924-1.51 1.332-.6.408-1.35.744-2.23 1.008-.87.264-1.89.396-3.06.396-1.35 0-2.57-.216-3.68-.648a8.376 8.376 0 0 1-2.88-1.872c-.79-.816-1.41-1.812-1.87-2.988-.43-1.176-.65-2.508-.65-3.996v-.216c0-1.368.23-2.616.69-3.744.48-1.128 1.13-2.088 1.94-2.88a8.722 8.722 0 0 1 2.85-1.836 9.124 9.124 0 0 1 3.52-.684c1.54 0 2.86.276 3.96.828 1.11.528 2.02 1.212 2.74 2.052a7.752 7.752 0 0 1 1.58 2.736c.34.984.51 1.944.51 2.88v2.412h-13.11Zm4.29-6.804c-1.15 0-2.09.3-2.81.9-.72.576-1.19 1.248-1.4 2.016h8.42c-.14-.84-.6-1.536-1.37-2.088-.74-.552-1.69-.828-2.84-.828ZM1108.88 443h-7.85l-1.01-13.536v-2.16h-.86v2.16L1098.15 443h-7.85l-1.19-17.856h4.18l.79 13.536v2.16h.87v-2.16l.9-13.536h7.48l.9 13.536v2.16h.87v-2.16l.79-13.536h4.18L1108.88 443Zm13.83-12.816c0 .576.3.996.9 1.26.6.24 1.69.444 3.28.612 1.82.192 3.31.744 4.46 1.656 1.15.888 1.73 2.136 1.73 3.744v.216c0 1.776-.65 3.192-1.94 4.248-1.3 1.056-3.12 1.584-5.48 1.584-1.39 0-2.58-.18-3.56-.54-.98-.36-1.8-.804-2.45-1.332-.65-.552-1.15-1.152-1.51-1.8a7.393 7.393 0 0 1-.68-1.944l4.17-1.368c.19.768.59 1.44 1.19 2.016.62.576 1.57.864 2.84.864 1.13 0 1.9-.168 2.31-.504.43-.36.65-.744.65-1.152 0-.24-.06-.456-.18-.648-.1-.216-.29-.408-.58-.576-.29-.192-.68-.348-1.19-.468-.48-.12-1.09-.216-1.83-.288-2.02-.168-3.63-.684-4.83-1.548-1.17-.888-1.76-2.184-1.76-3.888v-.216c0-.888.19-1.668.57-2.34.39-.672.89-1.236 1.52-1.692.62-.48 1.34-.84 2.16-1.08.81-.24 1.65-.36 2.52-.36 1.12 0 2.1.144 2.91.432.84.264 1.55.624 2.13 1.08.57.432 1.04.924 1.4 1.476.36.528.64 1.044.83 1.548l-4.11 1.656c-.21-.648-.58-1.152-1.11-1.512-.53-.384-1.21-.576-2.05-.576-.77 0-1.35.144-1.73.432-.39.264-.58.6-.58 1.008Zm19.09-5.04h7.56v2.592h.65c.34-.984.9-1.74 1.69-2.268.82-.552 1.79-.828 2.92-.828 1.78 0 3.2.564 4.28 1.692 1.08 1.104 1.62 2.796 1.62 5.076v.792l-4.68.432v-.504c0-.984-.25-1.764-.75-2.34-.51-.6-1.26-.9-2.27-.9s-1.8.348-2.38 1.044c-.57.696-.86 1.692-.86 2.988v5.76h4.1V443h-12.31v-4.32h3.67v-9.216h-3.24v-4.32Zm30.51 10.404c.02.528.14 1.02.36 1.476.24.432.55.816.93 1.152.41.312.87.564 1.37.756.53.168 1.08.252 1.66.252 1.12 0 1.99-.192 2.59-.576.6-.408 1.03-.888 1.29-1.44l3.89 2.16c-.21.456-.51.936-.9 1.44-.38.48-.89.924-1.51 1.332-.6.408-1.34.744-2.23 1.008-.87.264-1.89.396-3.06.396-1.35 0-2.57-.216-3.67-.648a8.192 8.192 0 0 1-2.88-1.872c-.8-.816-1.42-1.812-1.88-2.988-.43-1.176-.64-2.508-.64-3.996v-.216c0-1.368.22-2.616.68-3.744.48-1.128 1.13-2.088 1.94-2.88a8.722 8.722 0 0 1 2.85-1.836 9.138 9.138 0 0 1 3.53-.684c1.53 0 2.85.276 3.96.828 1.1.528 2.01 1.212 2.73 2.052a7.933 7.933 0 0 1 1.59 2.736c.33.984.5 1.944.5 2.88v2.412h-13.1Zm4.28-6.804c-1.15 0-2.09.3-2.81.9-.72.576-1.19 1.248-1.4 2.016h8.42c-.14-.84-.6-1.536-1.37-2.088-.74-.552-1.69-.828-2.84-.828Zm28.92 11.664c-.48 1.128-1.15 1.932-2.02 2.412-.86.456-1.87.684-3.02.684-1.08 0-2.1-.204-3.06-.612a7.196 7.196 0 0 1-2.48-1.8c-.72-.792-1.3-1.752-1.73-2.88-.41-1.128-.61-2.412-.61-3.852v-.576c0-1.416.2-2.688.61-3.816.41-1.128.96-2.088 1.65-2.88.7-.792 1.5-1.392 2.42-1.8a7.01 7.01 0 0 1 2.98-.648c1.28 0 2.3.216 3.06.648.8.432 1.42 1.104 1.88 2.016h.64v-2.16h4.54V437.6c0 .72.32 1.08.97 1.08h.69V443h-3.1c-.82 0-1.49-.24-2.02-.72-.5-.48-.75-1.104-.75-1.872h-.65Zm-4.03-1.224c1.32 0 2.37-.432 3.17-1.296.79-.888 1.18-2.088 1.18-3.6v-.432c0-1.512-.39-2.7-1.18-3.564-.8-.888-1.85-1.332-3.17-1.332-1.32 0-2.38.444-3.17 1.332-.79.864-1.19 2.052-1.19 3.564v.432c0 1.512.4 2.712 1.19 3.6.79.864 1.85 1.296 3.17 1.296Zm30.93 1.224h-.65c-.19.408-.43.804-.72 1.188-.26.36-.62.684-1.08.972-.43.288-.96.516-1.58.684-.6.168-1.33.252-2.2.252-1.1 0-2.13-.192-3.09-.576a7.453 7.453 0 0 1-2.49-1.764c-.69-.792-1.24-1.752-1.65-2.88-.39-1.128-.58-2.424-.58-3.888v-.648c0-1.44.21-2.724.61-3.852.44-1.128 1.01-2.076 1.73-2.844a7.587 7.587 0 0 1 2.56-1.8 7.96 7.96 0 0 1 3.09-.612c1.44 0 2.58.276 3.42.828.84.528 1.5 1.284 1.98 2.268h.65V417.8h4.54V443h-4.54v-2.592Zm-4.75-1.224c1.42 0 2.56-.444 3.42-1.332.89-.912 1.33-2.1 1.33-3.564v-.432c0-1.464-.44-2.64-1.33-3.528-.86-.912-2-1.368-3.42-1.368s-2.57.444-3.46 1.332c-.86.864-1.29 2.052-1.29 3.564v.432c0 1.512.43 2.712 1.29 3.6.89.864 2.04 1.296 3.46 1.296Zm21.58-3.636c.02.528.14 1.02.36 1.476.24.432.55.816.93 1.152.41.312.87.564 1.37.756.53.168 1.08.252 1.66.252 1.12 0 1.99-.192 2.59-.576.6-.408 1.03-.888 1.29-1.44l3.89 2.16c-.21.456-.51.936-.9 1.44-.38.48-.89.924-1.51 1.332-.6.408-1.34.744-2.23 1.008-.87.264-1.89.396-3.06.396-1.35 0-2.57-.216-3.67-.648a8.192 8.192 0 0 1-2.88-1.872c-.8-.816-1.42-1.812-1.88-2.988-.43-1.176-.64-2.508-.64-3.996v-.216c0-1.368.22-2.616.68-3.744.48-1.128 1.13-2.088 1.94-2.88a8.722 8.722 0 0 1 2.85-1.836 9.138 9.138 0 0 1 3.53-.684c1.53 0 2.85.276 3.96.828 1.1.528 2.01 1.212 2.73 2.052a7.933 7.933 0 0 1 1.59 2.736c.33.984.5 1.944.5 2.88v2.412h-13.1Zm4.28-6.804c-1.15 0-2.09.3-2.81.9-.72.576-1.19 1.248-1.4 2.016h8.42c-.14-.84-.6-1.536-1.37-2.088-.74-.552-1.69-.828-2.84-.828Zm16.5-3.6h7.56v2.592h.65c.33-.984.9-1.74 1.69-2.268.81-.552 1.79-.828 2.91-.828 1.78 0 3.21.564 4.29 1.692 1.08 1.104 1.62 2.796 1.62 5.076v.792l-4.68.432v-.504c0-.984-.25-1.764-.76-2.34-.5-.6-1.26-.9-2.27-.9-1 0-1.8.348-2.37 1.044-.58.696-.87 1.692-.87 2.988v5.76h4.11V443h-12.31v-4.32h3.67v-9.216h-3.24v-4.32Zm33.31-1.332a3.522 3.522 0 0 1-1.48-1.224 3.529 3.529 0 0 1-.54-1.908c0-.456.09-.888.26-1.296.19-.432.44-.792.75-1.08.31-.312.67-.552 1.08-.72.41-.192.85-.288 1.33-.288.46 0 .89.096 1.3.288.43.168.79.408 1.08.72.31.288.55.648.72 1.08.19.408.29.84.29 1.296 0 .696-.19 1.332-.58 1.908-.36.552-.83.96-1.4 1.224v4.5h-2.81v-4.5Zm23.63 16.272c0-.456.08-.888.25-1.296.19-.432.44-.792.75-1.08.32-.312.68-.552 1.08-.72a3.13 3.13 0 0 1 1.34-.288c.45 0 .88.096 1.29.288.43.168.81.408 1.12.72.31.288.55.648.72 1.08.19.408.29.84.29 1.296v4.392c0 .912-.32 1.68-.94 2.304-.6.624-1.36.936-2.27.936h-2.3v-2.808h1.73c.64 0 .97-.36.97-1.08v-.432c-.19.072-.4.108-.61.108-.48 0-.93-.096-1.34-.288-.4-.168-.76-.408-1.08-.72a3.787 3.787 0 0 1-.75-1.08 3.427 3.427 0 0 1-.25-1.332Zm52.18-9.9c0 .576.3.996.9 1.26.6.24 1.69.444 3.28.612 1.82.192 3.31.744 4.46 1.656 1.15.888 1.73 2.136 1.73 3.744v.216c0 1.776-.65 3.192-1.94 4.248-1.3 1.056-3.12 1.584-5.48 1.584-1.39 0-2.58-.18-3.56-.54-.98-.36-1.8-.804-2.45-1.332-.65-.552-1.15-1.152-1.51-1.8a7.393 7.393 0 0 1-.68-1.944l4.17-1.368c.19.768.59 1.44 1.19 2.016.62.576 1.57.864 2.84.864 1.13 0 1.9-.168 2.31-.504.43-.36.65-.744.65-1.152 0-.24-.06-.456-.18-.648-.1-.216-.29-.408-.58-.576-.29-.192-.68-.348-1.19-.468-.48-.12-1.09-.216-1.83-.288-2.02-.168-3.63-.684-4.83-1.548-1.17-.888-1.76-2.184-1.76-3.888v-.216c0-.888.19-1.668.57-2.34.39-.672.89-1.236 1.52-1.692.62-.48 1.34-.84 2.16-1.08.81-.24 1.65-.36 2.52-.36 1.12 0 2.1.144 2.91.432.84.264 1.55.624 2.13 1.08.57.432 1.04.924 1.4 1.476.36.528.64 1.044.83 1.548l-4.11 1.656c-.21-.648-.58-1.152-1.11-1.512-.53-.384-1.21-.576-2.05-.576-.77 0-1.35.144-1.73.432-.39.264-.58.6-.58 1.008Zm23.95 5.364c.03.528.15 1.02.36 1.476.24.432.56.816.94 1.152.41.312.86.564 1.37.756.53.168 1.08.252 1.65.252 1.13 0 2-.192 2.6-.576.6-.408 1.03-.888 1.29-1.44l3.89 2.16c-.22.456-.52.936-.9 1.44-.38.48-.89.924-1.51 1.332-.6.408-1.35.744-2.23 1.008-.87.264-1.89.396-3.06.396-1.35 0-2.57-.216-3.68-.648a8.376 8.376 0 0 1-2.88-1.872c-.79-.816-1.41-1.812-1.87-2.988-.43-1.176-.65-2.508-.65-3.996v-.216c0-1.368.23-2.616.69-3.744.48-1.128 1.13-2.088 1.94-2.88a8.722 8.722 0 0 1 2.85-1.836 9.124 9.124 0 0 1 3.52-.684c1.54 0 2.86.276 3.96.828 1.11.528 2.02 1.212 2.74 2.052a7.752 7.752 0 0 1 1.58 2.736c.34.984.51 1.944.51 2.88v2.412h-13.11Zm4.29-6.804c-1.15 0-2.09.3-2.81.9-.72.576-1.19 1.248-1.4 2.016h8.42c-.14-.84-.6-1.536-1.37-2.088-.74-.552-1.69-.828-2.84-.828Zm-767.564 43.02c0 .696.324 1.044.972 1.044h2.268v5.184h-2.268c-.648 0-.972.348-.972 1.044v10.908c0 1.08-.348 1.956-1.044 2.628-.672.696-1.548 1.044-2.628 1.044h-4.752v-4.32h2.916c.648 0 .972-.36.972-1.08v-9.684c0-.816.252-1.488.756-2.016.528-.528 1.212-.792 2.052-.792h.216v-.648h-.216c-.84 0-1.524-.264-2.052-.792-.504-.528-.756-1.2-.756-2.016v-9.684c0-.72-.324-1.08-.972-1.08h-2.916v-4.32h4.752c1.08 0 1.956.348 2.628 1.044.696.672 1.044 1.548 1.044 2.628v10.908Z" fill="#1A73E8"/><path d="M1221 318c0-52.467 42.53-95 95-95h709v853c0 52.47-42.53 95-95 95h-709V318Z" fill="#F3F7FE" stroke="#3C4043" stroke-width="10"/><rect x="1256" y="329" width="711" height="868" rx="20" fill="#1A73E8"/><path d="m1324.74 565.624-5.98-.324 4.57-4.464h3.03l2.12 17.676-4.07.432-7.2-10.8 3.42 3.852c-1.25-.888-2.69-1.56-4.32-2.016-1.61-.48-3.35-.72-5.22-.72-2.97 0-5.11.408-6.41 1.224-1.29.792-1.94 2.004-1.94 3.636 0 1.152.36 2.1 1.08 2.844.72.744 1.69 1.356 2.92 1.836 1.24.48 2.65.924 4.21 1.332 1.58.384 3.24.804 4.97 1.26 1.7.456 3.42 1.032 5.14 1.728a18.5 18.5 0 0 1 4.79 2.772c1.44 1.128 2.59 2.592 3.46 4.392.89 1.776 1.33 3.984 1.33 6.624 0 3.816-.97 6.996-2.92 9.54-1.92 2.544-4.63 4.452-8.13 5.724-3.48 1.272-7.59 1.908-12.31 1.908-2.98 0-5.67-.132-8.07-.396-2.4-.264-4.88-.804-7.45-1.62l-2.48-14.868h3.6l11.26 14.724-10.47-7.128c2.06.984 3.95 1.668 5.65 2.052 1.73.384 3.64.576 5.72.576 2.86 0 5.1-.24 6.74-.72 1.65-.48 2.83-1.176 3.52-2.088.7-.912 1.05-2.028 1.05-3.348 0-1.416-.43-2.556-1.3-3.42-.86-.864-2-1.548-3.42-2.052a35.907 35.907 0 0 0-4.68-1.296c-1.68-.36-3.35-.756-5-1.188a37.941 37.941 0 0 1-4.79-1.692 15.16 15.16 0 0 1-4.14-2.664c-1.2-1.104-2.16-2.508-2.88-4.212-.7-1.704-1.04-3.804-1.04-6.3 0-3.288.87-6.096 2.62-8.424 1.78-2.328 4.29-4.116 7.53-5.364 3.26-1.248 7.13-1.872 11.59-1.872 2.57 0 4.93.216 7.09.648 2.19.408 4.45 1.14 6.81 2.196Zm28.74 12.852c3.46 0 6.34.636 8.64 1.908 2.33 1.272 4.12 3.192 5.37 5.76 1.25 2.568 2 5.784 2.27 9.648h-25.24v-4.176l17.42-.72-4.96 2.376c0-2.4-.17-4.296-.51-5.688-.31-1.416-.8-2.412-1.47-2.988-.65-.6-1.48-.9-2.49-.9-.91 0-1.7.252-2.37.756-.65.48-1.16 1.404-1.52 2.772-.36 1.368-.54 3.372-.54 6.012 0 2.712.39 4.92 1.16 6.624.79 1.68 1.96 2.928 3.52 3.744 1.59.792 3.54 1.188 5.87 1.188 1.27 0 2.45-.06 3.53-.18a19.202 19.202 0 0 0 6.26-1.8l.98 3.168c-1.85 1.632-3.65 3.06-5.4 4.284-1.76 1.2-3.51 2.136-5.26 2.808a15.036 15.036 0 0 1-5.44 1.008c-3.79 0-7.03-.72-9.72-2.16-2.68-1.44-4.75-3.456-6.19-6.048-1.41-2.592-2.12-5.604-2.12-9.036 0-3.48.68-6.6 2.05-9.36 1.39-2.784 3.44-4.98 6.16-6.588 2.71-1.608 6.04-2.412 10-2.412Zm41.88 0c3.03 0 5.44.288 7.24.864 1.8.576 3.11 1.368 3.92 2.376.82.984 1.23 2.1 1.23 3.348 0 1.104-.28 2.064-.83 2.88a5.75 5.75 0 0 1-2.13 1.908c-.84.432-1.7.648-2.59.648-.74 0-1.5-.24-2.27-.72-.76-.48-1.52-1.068-2.26-1.764-.75-.72-1.48-1.44-2.2-2.16-.7-.72-1.37-1.32-2.02-1.8-.62-.48-1.2-.72-1.72-.72-1.01 0-1.91.276-2.7.828-.77.528-1.38 1.44-1.84 2.736-.43 1.272-.65 3.036-.65 5.292 0 3.048.37 5.484 1.12 7.308.77 1.8 1.91 3.108 3.42 3.924 1.53.792 3.44 1.188 5.72 1.188 1.87 0 3.55-.144 5.04-.432 1.51-.312 3.06-.852 4.65-1.62l1 3.348c-2.13 1.992-4.12 3.588-5.97 4.788-1.85 1.176-3.59 2.028-5.22 2.556-1.61.552-3.19.828-4.75.828-3.72 0-6.92-.708-9.58-2.124-2.66-1.416-4.7-3.396-6.12-5.94-1.42-2.568-2.12-5.544-2.12-8.928 0-2.616.46-5.052 1.4-7.308a17.28 17.28 0 0 1 4.18-5.94c1.84-1.704 4.11-3.024 6.8-3.96 2.69-.936 5.77-1.404 9.25-1.404Zm34.96 29.628c1.06 0 1.93-.312 2.63-.936.72-.624 1.25-1.68 1.58-3.168.36-1.512.54-3.576.54-6.192 0-3.048-.16-5.556-.5-7.524-.34-1.968-.88-3.432-1.62-4.392-.72-.96-1.68-1.44-2.88-1.44-1.03 0-1.91.312-2.63.936-.69.624-1.22 1.68-1.58 3.168-.36 1.488-.54 3.552-.54 6.192 0 3.024.17 5.532.5 7.524.34 1.968.88 3.432 1.62 4.392.75.96 1.71 1.44 2.88 1.44Zm-.61 5.976c-3.94 0-7.3-.708-10.08-2.124-2.76-1.416-4.87-3.42-6.34-6.012-1.46-2.616-2.19-5.688-2.19-9.216 0-3.696.8-6.912 2.41-9.648 1.61-2.736 3.88-4.848 6.8-6.336 2.93-1.512 6.39-2.268 10.37-2.268 3.96 0 7.32.708 10.08 2.124 2.76 1.416 4.87 3.42 6.34 6.012 1.46 2.592 2.19 5.664 2.19 9.216 0 3.672-.8 6.876-2.41 9.612-1.58 2.736-3.84 4.86-6.77 6.372-2.92 1.512-6.39 2.268-10.4 2.268Zm41.93-27.504v22.68l2.6 1.296V613h-20.67v-2.448l4-1.692v-19.404a10.715 10.715 0 0 0-1.98-2.088 34.32 34.32 0 0 0-2.77-2.124v-2.304l13.75-4.464h2.05l3.02 8.1Zm6.12 23.976 2.6-1.296v-17.244c0-.888-.15-1.608-.44-2.16-.26-.552-.7-.948-1.33-1.188-.6-.264-1.41-.396-2.45-.396-1.1 0-2.16.108-3.16.324-.99.192-1.92.492-2.81.9l-1.26-2.448c2.04-1.944 3.77-3.492 5.18-4.644 1.42-1.152 2.64-2.004 3.67-2.556 1.06-.576 2.04-.948 2.96-1.116.91-.168 1.88-.252 2.91-.252 3.65 0 6.36.996 8.14 2.988 1.77 1.968 2.66 4.896 2.66 8.784v18.612l4.07 1.692V613h-20.74v-2.448Zm48.02-20.016c0-2.016-.34-3.588-1.04-4.716-.67-1.128-1.72-1.692-3.13-1.692-1.23 0-2.28.348-3.17 1.044-.89.696-1.57 1.872-2.05 3.528-.48 1.632-.72 3.888-.72 6.768 0 2.616.25 4.74.75 6.372.51 1.608 1.24 2.784 2.2 3.528.98.744 2.21 1.116 3.67 1.116.72 0 1.57-.072 2.56-.216a12.34 12.34 0 0 0 2.81-.828v3.276a116.256 116.256 0 0 1-4.22 2.736c-1.17.696-2.2 1.236-3.09 1.62-.89.384-1.69.648-2.41.792-.72.144-1.43.216-2.13.216-3.12 0-5.73-.672-7.85-2.016-2.11-1.368-3.7-3.276-4.78-5.724-1.06-2.448-1.59-5.292-1.59-8.532 0-3.168.55-5.952 1.66-8.352 1.1-2.4 2.6-4.416 4.5-6.048a19.233 19.233 0 0 1 6.44-3.672c2.4-.84 4.91-1.26 7.53-1.26 1.51 0 2.92.108 4.24.324 1.35.192 2.69.516 4.04.972 1.36.432 2.88 1.032 4.53 1.8h-8.75v-10.008c-.36-.408-.84-.804-1.44-1.188a15.69 15.69 0 0 0-1.98-1.188c-.74-.408-1.53-.804-2.37-1.188v-2.952l18.29-4.284h2.37l-.79 9.432v34.596c.26.288.59.6.97.936.41.312.84.636 1.3.972.48.336.96.66 1.44.972.48.288.96.552 1.44.792v2.088l-15.41 3.528h-1.69l-2.13-6.696v-16.848Zm54.42 10.944c0 1.392.47 2.436 1.4 3.132.96.696 2.47 1.044 4.54 1.044 1.01 0 2.11-.096 3.31-.288a32.93 32.93 0 0 0 3.92-.9v3.564c-2.35 1.44-4.42 2.604-6.22 3.492-1.78.888-3.38 1.536-4.79 1.944-1.42.408-2.75.612-4 .612-2.49 0-4.65-.384-6.48-1.152-1.82-.768-3.23-1.956-4.21-3.564-.98-1.632-1.48-3.708-1.48-6.228v-15.444l-5.86-4.86v-2.52c.62-.36 1.42-.828 2.41-1.404 1.01-.576 2.11-1.212 3.31-1.908 1.22-.696 2.47-1.404 3.74-2.124 1.28-.744 2.5-1.452 3.68-2.124 1.17-.696 2.23-1.308 3.16-1.836h3.57v30.564Zm-5.8-15.3.07-6.624h17.57l-.54 6.624h-17.1Zm49.85-7.38c1.9 0 3.24.54 4.04 1.62.81 1.056 1.22 2.328 1.22 3.816 0 2.016-.53 3.564-1.58 4.644-1.06 1.08-2.12 1.62-3.17 1.62-1.42 0-2.62-.072-3.6-.216-.96-.144-1.89-.288-2.77-.432-.87-.144-1.86-.216-2.99-.216-.63 0-1.18.048-1.66.144-.45.096-.9.264-1.33.504-.41.216-.86.528-1.37.936l-.97-2.304c1.58-1.968 3.01-3.6 4.28-4.896 1.28-1.296 2.45-2.316 3.53-3.06 1.11-.768 2.16-1.32 3.17-1.656 1.03-.336 2.1-.504 3.2-.504Zm-10.44 7.776v22.032l4.72 1.944V613h-22.79v-2.448l4-1.692v-19.404c-.39-.528-.82-1.02-1.3-1.476-.48-.48-1.01-.948-1.58-1.404-.55-.456-1.18-.9-1.87-1.332v-2.304l14.47-4.464h2.01l2.34 8.1Zm38.28 5.652v4.212c-1.68.288-3.03.612-4.06.972-1.04.36-1.83.756-2.38 1.188-.53.432-.89.924-1.08 1.476a5.73 5.73 0 0 0-.29 1.872c0 1.464.24 2.496.72 3.096.48.576 1.29.864 2.41.864.68 0 1.26-.144 1.77-.432.53-.312.92-.72 1.19-1.224.28-.528.43-1.116.43-1.764v-14.004c0-1.536-.4-2.712-1.19-3.528-.77-.84-2.02-1.26-3.74-1.26-.89 0-1.68.048-2.38.144-.67.072-1.25.168-1.73.288l1.3-2.952c-.22 1.464-.43 2.676-.65 3.636-.22.936-.43 1.704-.65 2.304-.21.6-.47 1.128-.75 1.584-.39.696-1.01 1.224-1.88 1.584-.84.336-1.9.504-3.2.504-1.42 0-2.48-.24-3.2-.72-.72-.504-1.08-1.2-1.08-2.088 0-1.104.51-2.22 1.54-3.348 1.04-1.128 2.46-2.148 4.29-3.06 1.85-.936 3.96-1.68 6.33-2.232 2.4-.576 4.97-.864 7.71-.864 3.43 0 6.12.492 8.06 1.476 1.95.984 3.3 2.364 4.07 4.14.79 1.752 1.19 3.804 1.19 6.156v15.192c0 .576.08 1.044.25 1.404.17.36.41.624.72.792.31.144.71.216 1.19.216.38 0 .8-.048 1.26-.144.45-.096.97-.288 1.54-.576v3.456a24.172 24.172 0 0 1-4.78 2.484c-1.71.672-3.39 1.008-5.04 1.008-1.97 0-3.58-.36-4.83-1.08-1.22-.696-2.13-1.716-2.73-3.06-.6-1.368-.95-3.024-1.05-4.968l.47-.216c-.62 2.28-1.43 4.104-2.41 5.472-.98 1.368-2.16 2.352-3.53 2.952-1.37.6-2.96.9-4.79.9-3.09 0-5.55-.744-7.38-2.232-1.82-1.512-2.73-3.84-2.73-6.984 0-1.464.27-2.784.83-3.96.57-1.2 1.62-2.304 3.13-3.312 1.51-1.008 3.65-1.944 6.41-2.808 2.76-.888 6.33-1.74 10.72-2.556Zm30.75-18.468c-2.5 0-4.43-.6-5.8-1.8-1.34-1.2-2.02-2.796-2.02-4.788 0-1.944.68-3.492 2.02-4.644 1.37-1.176 3.3-1.764 5.8-1.764 2.52 0 4.45.588 5.79 1.764 1.37 1.152 2.05 2.7 2.05 4.644 0 1.992-.68 3.588-2.05 4.788-1.34 1.2-3.27 1.8-5.79 1.8Zm7.77 4.716-.68 10.008v20.376l3.99 1.692V613h-22.06v-2.448l3.99-1.692v-19.872a10.05 10.05 0 0 0-1.26-1.404c-.48-.48-1.02-.96-1.62-1.44-.6-.48-1.22-.948-1.87-1.404v-2.268l16.38-3.996h3.13Zm24.05 30.384 3.99 1.692V613h-22.06v-2.448l3.99-1.692v-36.684a9.26 9.26 0 0 0-1.4-1.332c-.53-.456-1.17-.912-1.91-1.368a31.93 31.93 0 0 0-2.48-1.476v-2.952l18.28-4.284h2.42l-.83 9.432v38.664Zm25.61-30.384c3.46 0 6.34.636 8.64 1.908 2.33 1.272 4.12 3.192 5.37 5.76 1.24 2.568 2 5.784 2.26 9.648h-25.23v-4.176l17.42-.72-4.97 2.376c0-2.4-.16-4.296-.5-5.688-.31-1.416-.8-2.412-1.48-2.988-.64-.6-1.47-.9-2.48-.9-.91 0-1.7.252-2.38.756-.64.48-1.15 1.404-1.51 2.772-.36 1.368-.54 3.372-.54 6.012 0 2.712.39 4.92 1.15 6.624.8 1.68 1.97 2.928 3.53 3.744 1.59.792 3.54 1.188 5.87 1.188 1.27 0 2.45-.06 3.53-.18a19.202 19.202 0 0 0 6.26-1.8l.97 3.168c-1.84 1.632-3.64 3.06-5.4 4.284-1.75 1.2-3.5 2.136-5.25 2.808a15.075 15.075 0 0 1-5.44 1.008c-3.79 0-7.03-.72-9.72-2.16-2.69-1.44-4.75-3.456-6.19-6.048-1.42-2.592-2.12-5.604-2.12-9.036 0-3.48.68-6.6 2.05-9.36 1.39-2.784 3.44-4.98 6.15-6.588 2.72-1.608 6.05-2.412 10.01-2.412Zm48.94.324c1.89 0 3.24.54 4.03 1.62.82 1.056 1.22 2.328 1.22 3.816 0 2.016-.52 3.564-1.58 4.644s-2.11 1.62-3.17 1.62c-1.41 0-2.61-.072-3.6-.216-.96-.144-1.88-.288-2.77-.432-.86-.144-1.86-.216-2.99-.216-.62 0-1.17.048-1.65.144-.46.096-.9.264-1.34.504-.4.216-.86.528-1.36.936l-.98-2.304c1.59-1.968 3.02-3.6 4.29-4.896 1.27-1.296 2.45-2.316 3.53-3.06 1.1-.768 2.16-1.32 3.16-1.656a10.33 10.33 0 0 1 3.21-.504Zm-10.44 7.776v22.032l4.71 1.944V613h-22.78v-2.448l3.99-1.692v-19.404c-.38-.528-.81-1.02-1.29-1.476-.48-.48-1.01-.948-1.59-1.404-.55-.456-1.17-.9-1.87-1.332v-2.304l14.47-4.464h2.02l2.34 8.1ZM1316.71 668.8c1.89 0 3.24.54 4.03 1.62.82 1.056 1.22 2.328 1.22 3.816 0 2.016-.52 3.564-1.58 4.644s-2.11 1.62-3.17 1.62c-1.41 0-2.61-.072-3.6-.216-.96-.144-1.88-.288-2.77-.432-.86-.144-1.86-.216-2.99-.216-.62 0-1.17.048-1.65.144-.46.096-.9.264-1.34.504-.4.216-.86.528-1.36.936l-.98-2.304c1.59-1.968 3.02-3.6 4.29-4.896 1.27-1.296 2.45-2.316 3.53-3.06 1.1-.768 2.16-1.32 3.16-1.656a10.33 10.33 0 0 1 3.21-.504Zm-10.44 7.776v22.032l4.71 1.944V703h-22.78v-2.448l3.99-1.692v-19.404c-.38-.528-.81-1.02-1.29-1.476-.48-.48-1.01-.948-1.59-1.404-.55-.456-1.17-.9-1.87-1.332v-2.304l14.47-4.464h2.02l2.34 8.1Zm35.54-8.1c3.46 0 6.34.636 8.64 1.908 2.33 1.272 4.12 3.192 5.37 5.76 1.24 2.568 2 5.784 2.26 9.648h-25.23v-4.176l17.42-.72-4.97 2.376c0-2.4-.16-4.296-.5-5.688-.31-1.416-.8-2.412-1.48-2.988-.64-.6-1.47-.9-2.48-.9-.91 0-1.7.252-2.38.756-.64.48-1.15 1.404-1.51 2.772-.36 1.368-.54 3.372-.54 6.012 0 2.712.39 4.92 1.15 6.624.8 1.68 1.97 2.928 3.53 3.744 1.59.792 3.54 1.188 5.87 1.188 1.27 0 2.45-.06 3.53-.18a19.202 19.202 0 0 0 6.26-1.8l.97 3.168c-1.84 1.632-3.64 3.06-5.4 4.284-1.75 1.2-3.5 2.136-5.25 2.808a15.075 15.075 0 0 1-5.44 1.008c-3.79 0-7.03-.72-9.72-2.16-2.69-1.44-4.75-3.456-6.19-6.048-1.42-2.592-2.12-5.604-2.12-9.036 0-3.48.68-6.6 2.05-9.36 1.39-2.784 3.44-4.98 6.15-6.588 2.72-1.608 6.05-2.412 10.01-2.412Zm37.6 30.384 3.99 1.692V703h-22.06v-2.448l3.99-1.692v-36.684a9.26 9.26 0 0 0-1.4-1.332c-.53-.456-1.17-.912-1.91-1.368a31.93 31.93 0 0 0-2.48-1.476v-2.952l18.28-4.284h2.42l-.83 9.432v38.664Zm25.61-30.384c3.46 0 6.34.636 8.64 1.908 2.33 1.272 4.12 3.192 5.37 5.76 1.24 2.568 2 5.784 2.26 9.648h-25.23v-4.176l17.42-.72-4.97 2.376c0-2.4-.16-4.296-.5-5.688-.31-1.416-.8-2.412-1.48-2.988-.64-.6-1.47-.9-2.48-.9-.91 0-1.7.252-2.38.756-.64.48-1.15 1.404-1.51 2.772-.36 1.368-.54 3.372-.54 6.012 0 2.712.39 4.92 1.15 6.624.8 1.68 1.97 2.928 3.53 3.744 1.59.792 3.54 1.188 5.87 1.188 1.27 0 2.45-.06 3.53-.18a19.202 19.202 0 0 0 6.26-1.8l.97 3.168c-1.84 1.632-3.64 3.06-5.4 4.284-1.75 1.2-3.5 2.136-5.25 2.808a15.075 15.075 0 0 1-5.44 1.008c-3.79 0-7.03-.72-9.72-2.16-2.69-1.44-4.75-3.456-6.19-6.048-1.42-2.592-2.12-5.604-2.12-9.036 0-3.48.68-6.6 2.05-9.36 1.39-2.784 3.44-4.98 6.15-6.588 2.72-1.608 6.05-2.412 10.01-2.412Zm41.2 13.752v4.212c-1.68.288-3.04.612-4.07.972-1.03.36-1.82.756-2.38 1.188-.52.432-.88.924-1.08 1.476-.19.552-.28 1.176-.28 1.872 0 1.464.24 2.496.72 3.096.48.576 1.28.864 2.41.864.67 0 1.26-.144 1.76-.432.53-.312.93-.72 1.19-1.224.29-.528.43-1.116.43-1.764v-14.004c0-1.536-.39-2.712-1.19-3.528-.76-.84-2.01-1.26-3.74-1.26-.89 0-1.68.048-2.38.144-.67.072-1.24.168-1.72.288l1.29-2.952a45.706 45.706 0 0 1-.65 3.636c-.21.936-.43 1.704-.64 2.304-.22.6-.47 1.128-.76 1.584-.38.696-1.01 1.224-1.87 1.584-.84.336-1.91.504-3.21.504-1.41 0-2.48-.24-3.2-.72-.72-.504-1.08-1.2-1.08-2.088 0-1.104.52-2.22 1.55-3.348 1.03-1.128 2.46-2.148 4.28-3.06 1.85-.936 3.96-1.68 6.34-2.232 2.4-.576 4.97-.864 7.7-.864 3.43 0 6.12.492 8.07 1.476 1.94.984 3.3 2.364 4.06 4.14.8 1.752 1.19 3.804 1.19 6.156v15.192c0 .576.09 1.044.25 1.404.17.36.41.624.72.792.32.144.71.216 1.19.216.39 0 .81-.048 1.26-.144.46-.096.97-.288 1.55-.576v3.456a24.256 24.256 0 0 1-4.79 2.484c-1.7.672-3.38 1.008-5.04 1.008-1.97 0-3.57-.36-4.82-1.08-1.23-.696-2.14-1.716-2.74-3.06-.6-1.368-.95-3.024-1.04-4.968l.47-.216c-.63 2.28-1.43 4.104-2.42 5.472-.98 1.368-2.16 2.352-3.52 2.952-1.37.6-2.97.9-4.79.9-3.1 0-5.56-.744-7.38-2.232-1.83-1.512-2.74-3.84-2.74-6.984 0-1.464.28-2.784.83-3.96.58-1.2 1.62-2.304 3.13-3.312 1.51-1.008 3.65-1.944 6.41-2.808 2.76-.888 6.34-1.74 10.73-2.556Zm36.32-13.752c2.35 0 4.37.132 6.05.396 1.68.24 3.36.636 5.04 1.188l.5 9.18h-3.71l-5.11-8.568 3.89 3.672a16.519 16.519 0 0 0-3.28-1.008c-1.1-.24-2.07-.36-2.91-.36-1.9 0-3.29.264-4.18.792-.89.504-1.33 1.272-1.33 2.304 0 .672.17 1.272.5 1.8.36.504 1.13.996 2.31 1.476 1.2.48 3.07 1.02 5.61 1.62 1.9.432 3.51.984 4.83 1.656 1.34.648 2.43 1.428 3.27 2.34a8.07 8.07 0 0 1 1.84 3.096c.41 1.176.61 2.484.61 3.924 0 2.64-.68 4.86-2.05 6.66-1.34 1.776-3.29 3.132-5.83 4.068-2.52.912-5.57 1.368-9.15 1.368-2.25 0-4.44-.144-6.55-.432-2.11-.288-3.92-.684-5.43-1.188l-1.08-10.08h3.31l5.87 9.54-5.69-3.6c.77.24 1.59.432 2.48.576a53.5 53.5 0 0 0 2.74.36c.91.072 1.77.108 2.59.108 2.3 0 4.02-.312 5.15-.936 1.13-.648 1.69-1.632 1.69-2.952 0-.6-.12-1.116-.36-1.548-.24-.456-.68-.864-1.33-1.224-.63-.36-1.53-.72-2.7-1.08-1.15-.384-2.64-.792-4.47-1.224-2.44-.6-4.34-1.392-5.68-2.376-1.35-1.008-2.28-2.184-2.81-3.528-.51-1.368-.76-2.844-.76-4.428 0-2.544.69-4.68 2.05-6.408 1.4-1.728 3.3-3.024 5.73-3.888 2.45-.864 5.23-1.296 8.35-1.296Zm36.25 0c3.45 0 6.33.636 8.64 1.908 2.33 1.272 4.11 3.192 5.36 5.76 1.25 2.568 2.01 5.784 2.27 9.648h-25.24v-4.176l17.43-.72-4.97 2.376c0-2.4-.17-4.296-.5-5.688-.32-1.416-.81-2.412-1.48-2.988-.65-.6-1.48-.9-2.48-.9-.92 0-1.71.252-2.38.756-.65.48-1.15 1.404-1.51 2.772-.36 1.368-.54 3.372-.54 6.012 0 2.712.38 4.92 1.15 6.624.79 1.68 1.97 2.928 3.53 3.744 1.58.792 3.54 1.188 5.87 1.188 1.27 0 2.44-.06 3.52-.18a19.166 19.166 0 0 0 6.27-1.8l.97 3.168c-1.85 1.632-3.65 3.06-5.4 4.284-1.75 1.2-3.5 2.136-5.26 2.808a15.022 15.022 0 0 1-5.43 1.008c-3.79 0-7.03-.72-9.72-2.16-2.69-1.44-4.75-3.456-6.19-6.048-1.42-2.592-2.13-5.604-2.13-9.036 0-3.48.69-6.6 2.05-9.36 1.4-2.784 3.45-4.98 6.16-6.588 2.71-1.608 6.05-2.412 10.01-2.412Zm44.54 12.06c0-2.016-.35-3.588-1.04-4.716-.67-1.128-1.72-1.692-3.13-1.692-1.23 0-2.28.348-3.17 1.044-.89.696-1.57 1.872-2.05 3.528-.48 1.632-.72 3.888-.72 6.768 0 2.616.25 4.74.75 6.372.51 1.608 1.24 2.784 2.2 3.528.98.744 2.21 1.116 3.67 1.116.72 0 1.57-.072 2.56-.216.98-.168 1.92-.444 2.8-.828v3.276a108.64 108.64 0 0 1-4.21 2.736c-1.17.696-2.21 1.236-3.09 1.62-.89.384-1.7.648-2.42.792-.72.144-1.42.216-2.12.216-3.12 0-5.74-.672-7.85-2.016-2.11-1.368-3.71-3.276-4.79-5.724-1.05-2.448-1.58-5.292-1.58-8.532 0-3.168.55-5.952 1.66-8.352 1.1-2.4 2.6-4.416 4.5-6.048a19.233 19.233 0 0 1 6.44-3.672c2.4-.84 4.91-1.26 7.52-1.26 1.52 0 2.93.108 4.25.324 1.35.192 2.69.516 4.03.972 1.37.432 2.88 1.032 4.54 1.8h-8.75v-10.008c-.36-.408-.84-.804-1.44-1.188a15.69 15.69 0 0 0-1.98-1.188c-.74-.408-1.53-.804-2.37-1.188v-2.952l18.28-4.284h2.38l-.79 9.432v34.596c.26.288.59.6.97.936.41.312.84.636 1.3.972.48.336.96.66 1.44.972.48.288.96.552 1.44.792v2.088l-15.41 3.528h-1.69l-2.13-6.696v-16.848Zm46.09-4.356-3.96 1.296-6.84-2.988v-2.268l7.45-3.6 6.98.936h17.14l-.54 6.624h-20.23Zm10.11 22.464 4.79 1.908V703h-22.86v-2.448l4-1.692v-27.576c0-3.504.51-6.54 1.55-9.108 1.05-2.568 2.56-4.692 4.53-6.372 1.97-1.68 4.35-2.94 7.13-3.78 2.81-.84 5.95-1.26 9.43-1.26 2.23 0 4.09.156 5.58.468 1.49.288 2.67.696 3.53 1.224.86.528 1.48 1.152 1.84 1.872.38.72.57 1.512.57 2.376 0 1.44-.5 2.652-1.51 3.636s-2.28 1.476-3.82 1.476c-.79 0-1.53-.276-2.23-.828a46.823 46.823 0 0 1-2.12-1.944 13.271 13.271 0 0 0-2.45-1.98c-.91-.576-1.98-.864-3.2-.864-1.06 0-1.95.216-2.67.648-.69.408-1.22 1.032-1.58 1.872-.34.84-.51 1.908-.51 3.204v36.72Zm31.22-.54c1.06 0 1.93-.312 2.63-.936.72-.624 1.25-1.68 1.58-3.168.36-1.512.54-3.576.54-6.192 0-3.048-.16-5.556-.5-7.524-.34-1.968-.88-3.432-1.62-4.392-.72-.96-1.68-1.44-2.88-1.44-1.03 0-1.91.312-2.63.936-.69.624-1.22 1.68-1.58 3.168-.36 1.488-.54 3.552-.54 6.192 0 3.024.17 5.532.5 7.524.34 1.968.88 3.432 1.62 4.392.75.96 1.71 1.44 2.88 1.44Zm-.61 5.976c-3.94 0-7.3-.708-10.08-2.124-2.76-1.416-4.87-3.42-6.34-6.012-1.46-2.616-2.19-5.688-2.19-9.216 0-3.696.8-6.912 2.41-9.648 1.61-2.736 3.88-4.848 6.8-6.336 2.93-1.512 6.39-2.268 10.37-2.268 3.96 0 7.32.708 10.08 2.124 2.76 1.416 4.87 3.42 6.34 6.012 1.46 2.592 2.19 5.664 2.19 9.216 0 3.672-.8 6.876-2.41 9.612-1.58 2.736-3.84 4.86-6.77 6.372-2.92 1.512-6.39 2.268-10.4 2.268Zm52.37-35.28c1.9 0 3.24.54 4.03 1.62.82 1.056 1.23 2.328 1.23 3.816 0 2.016-.53 3.564-1.59 4.644-1.05 1.08-2.11 1.62-3.16 1.62-1.42 0-2.62-.072-3.6-.216-.96-.144-1.89-.288-2.78-.432-.86-.144-1.86-.216-2.98-.216-.63 0-1.18.048-1.66.144-.46.096-.9.264-1.33.504-.41.216-.87.528-1.37.936l-.97-2.304c1.58-1.968 3.01-3.6 4.28-4.896 1.27-1.296 2.45-2.316 3.53-3.06 1.1-.768 2.16-1.32 3.17-1.656 1.03-.336 2.1-.504 3.2-.504Zm-10.44 7.776v22.032l4.72 1.944V703H1674v-2.448l4-1.692v-19.404c-.39-.528-.82-1.02-1.3-1.476-.48-.48-1.01-.948-1.58-1.404-.56-.456-1.18-.9-1.88-1.332v-2.304l14.48-4.464h2.01l2.34 8.1Zm-385.8 90v22.68l2.59 1.296V793h-20.66v-2.448l3.99-1.692v-19.404a10.715 10.715 0 0 0-1.98-2.088c-.74-.648-1.67-1.356-2.77-2.124v-2.304l13.75-4.464h2.05l3.03 8.1Zm6.12 23.976 2.59-1.296v-17.244c0-.888-.14-1.608-.43-2.16-.27-.552-.71-.948-1.33-1.188-.6-.264-1.42-.396-2.45-.396-1.11 0-2.16.108-3.17.324-.98.192-1.92.492-2.81.9l-1.26-2.448c2.04-1.944 3.77-3.492 5.19-4.644 1.41-1.152 2.64-2.004 3.67-2.556 1.05-.576 2.04-.948 2.95-1.116.91-.168 1.88-.252 2.92-.252 3.64 0 6.36.996 8.13 2.988 1.78 1.968 2.67 4.896 2.67 8.784v18.612l4.06 1.692V793h-20.73v-2.448Zm42.01-32.076c3.45 0 6.33.636 8.64 1.908 2.33 1.272 4.11 3.192 5.36 5.76 1.25 2.568 2.01 5.784 2.27 9.648h-25.24v-4.176l17.43-.72-4.97 2.376c0-2.4-.17-4.296-.5-5.688-.32-1.416-.81-2.412-1.48-2.988-.65-.6-1.48-.9-2.48-.9-.92 0-1.71.252-2.38.756-.65.48-1.15 1.404-1.51 2.772-.36 1.368-.54 3.372-.54 6.012 0 2.712.38 4.92 1.15 6.624.79 1.68 1.97 2.928 3.53 3.744 1.58.792 3.54 1.188 5.87 1.188 1.27 0 2.44-.06 3.52-.18a19.166 19.166 0 0 0 6.27-1.8l.97 3.168c-1.85 1.632-3.65 3.06-5.4 4.284-1.75 1.2-3.5 2.136-5.26 2.808a15.022 15.022 0 0 1-5.43 1.008c-3.79 0-7.03-.72-9.72-2.16-2.69-1.44-4.75-3.456-6.19-6.048-1.42-2.592-2.13-5.604-2.13-9.036 0-3.48.69-6.6 2.05-9.36 1.4-2.784 3.45-4.98 6.16-6.588 2.71-1.608 6.05-2.412 10.01-2.412Zm69.65 4.86-3.13-1.188v-2.592h13.11v2.592l-3.17 1.224-8.14 29.628h-11.66l-9.25-23.976 3.09-1.296-9.14 25.272h-11.7l-8.53-29.16-4.14-1.764v-2.52h21.78v2.592l-3.42 1.152 5.65 22.14-2.67-.216 8.82-25.668h11.09l9.54 26.388-2.95-.072 4.82-22.536Zm59.17 2.844H1460l-3.96 1.296-6.84-2.988v-2.268l7.46-3.6 6.98.936h17.64l11.45-.72h3.13l-.68 9.648v20.376l3.99 1.692V793h-22.07v-2.448l4-1.692v-24.552l2.12 1.872Zm-13.1 22.68 4 1.692V793h-22.07v-2.448l3.99-1.692v-27.576c0-3.504.53-6.54 1.59-9.108 1.05-2.568 2.59-4.692 4.61-6.372 2.04-1.68 4.5-2.94 7.38-3.78 2.88-.84 6.13-1.26 9.75-1.26 3.58 0 6.35.3 8.32.9 1.99.6 3.38 1.404 4.17 2.412.82.984 1.23 2.076 1.23 3.276 0 .984-.25 1.92-.76 2.808-.5.864-1.2 1.56-2.09 2.088-.88.504-1.93.756-3.13.756-1.01 0-1.87-.336-2.59-1.008a26.607 26.607 0 0 1-2.16-2.376c-.72-.888-1.57-1.68-2.56-2.376-.98-.696-2.23-1.044-3.74-1.044-1.39 0-2.52.216-3.38.648-.87.408-1.52 1.068-1.95 1.98-.41.888-.61 2.052-.61 3.492v36.54Zm49.77 0 4 1.692V793h-22.07v-2.448l4-1.692v-36.684a9.86 9.86 0 0 0-1.41-1.332 14.34 14.34 0 0 0-1.91-1.368c-.72-.48-1.54-.972-2.48-1.476v-2.952l18.29-4.284h2.41l-.83 9.432v38.664Zm25.58-22.284v22.68l2.27 1.296V793h-20.34v-2.448l4-1.692v-19.404a11.347 11.347 0 0 0-1.98-2.088 32.942 32.942 0 0 0-2.78-2.124v-2.304l13.76-4.464h2.05l3.02 8.1Zm21.82 3.204v19.476l2.3 1.296V793h-18.65v-2.448l2.31-1.296v-17.784c0-.84-.13-1.5-.4-1.98-.24-.504-.65-.864-1.22-1.08-.55-.24-1.3-.36-2.23-.36-1.01 0-1.97.096-2.88.288-.92.168-1.78.432-2.6.792l-1.18-2.412c1.96-1.896 3.62-3.384 4.96-4.464 1.37-1.104 2.56-1.92 3.57-2.448 1.03-.552 1.98-.912 2.84-1.08.89-.168 1.83-.252 2.81-.252 2.35 0 4.28.42 5.8 1.26 1.53.84 2.67 2.1 3.42 3.78.76 1.68 1.15 3.768 1.15 6.264Zm21.85 0v19.08l4.03 1.692V793h-20.37v-2.448l2.3-1.296v-17.784c0-.84-.13-1.5-.4-1.98-.24-.504-.64-.864-1.22-1.08-.55-.24-1.31-.36-2.27-.36-1.01 0-1.97.096-2.88.288-.91.168-1.77.432-2.59.792l-1.19-2.412c1.97-1.872 3.64-3.36 5.01-4.464 1.36-1.104 2.55-1.92 3.56-2.448 1.01-.552 1.94-.912 2.81-1.08.89-.168 1.82-.252 2.81-.252 3.52 0 6.14.96 7.84 2.88 1.71 1.896 2.56 4.704 2.56 8.424Zm33.51-16.02c-2.5 0-4.43-.6-5.8-1.8-1.34-1.2-2.01-2.796-2.01-4.788 0-1.944.67-3.492 2.01-4.644 1.37-1.176 3.3-1.764 5.8-1.764 2.52 0 4.45.588 5.79 1.764 1.37 1.152 2.06 2.7 2.06 4.644 0 1.992-.69 3.588-2.06 4.788-1.34 1.2-3.27 1.8-5.79 1.8Zm7.77 4.716-.68 10.008v20.376l4 1.692V793h-22.07v-2.448l3.99-1.692v-19.872a10.05 10.05 0 0 0-1.26-1.404c-.48-.48-1.02-.96-1.62-1.44-.6-.48-1.22-.948-1.87-1.404v-2.268l16.38-3.996h3.13Zm24.95 8.1v22.68l2.59 1.296V793h-20.66v-2.448l3.99-1.692v-19.404a10.715 10.715 0 0 0-1.98-2.088c-.74-.648-1.66-1.356-2.77-2.124v-2.304l13.75-4.464h2.06l3.02 8.1Zm6.12 23.976 2.59-1.296v-17.244c0-.888-.14-1.608-.43-2.16-.26-.552-.71-.948-1.33-1.188-.6-.264-1.42-.396-2.45-.396-1.1 0-2.16.108-3.17.324-.98.192-1.92.492-2.81.9l-1.26-2.448c2.04-1.944 3.77-3.492 5.19-4.644 1.41-1.152 2.64-2.004 3.67-2.556 1.06-.576 2.04-.948 2.95-1.116.91-.168 1.89-.252 2.92-.252 3.65 0 6.36.996 8.13 2.988 1.78 1.968 2.67 4.896 2.67 8.784v18.612l4.07 1.692V793h-20.74v-2.448Zm-323.15 62.784-3.13-1.188v-2.592h13.11v2.592l-3.17 1.224-8.14 29.628h-11.66l-9.25-23.976 3.09-1.296-9.14 25.272h-11.7l-8.53-29.16-4.14-1.764v-2.52h21.78v2.592l-3.42 1.152 5.65 22.14-2.67-.216 8.82-25.668h11.09l9.54 26.388-2.95-.072 4.82-22.536Zm30.46 24.768c1.06 0 1.93-.312 2.63-.936.72-.624 1.25-1.68 1.58-3.168.36-1.512.54-3.576.54-6.192 0-3.048-.17-5.556-.5-7.524-.34-1.968-.88-3.432-1.62-4.392-.72-.96-1.68-1.44-2.88-1.44-1.03 0-1.91.312-2.63.936-.7.624-1.22 1.68-1.58 3.168-.36 1.488-.54 3.552-.54 6.192 0 3.024.16 5.532.5 7.524.34 1.968.88 3.432 1.62 4.392.74.96 1.7 1.44 2.88 1.44Zm-.61 5.976c-3.94 0-7.3-.708-10.08-2.124-2.76-1.416-4.87-3.42-6.34-6.012-1.46-2.616-2.19-5.688-2.19-9.216 0-3.696.8-6.912 2.41-9.648 1.61-2.736 3.87-4.848 6.8-6.336 2.93-1.512 6.39-2.268 10.37-2.268 3.96 0 7.32.708 10.08 2.124 2.76 1.416 4.87 3.42 6.34 6.012 1.46 2.592 2.19 5.664 2.19 9.216 0 3.672-.8 6.876-2.41 9.612-1.58 2.736-3.84 4.86-6.77 6.372-2.93 1.512-6.39 2.268-10.4 2.268Zm52.37-35.28c1.9 0 3.24.54 4.03 1.62.82 1.056 1.23 2.328 1.23 3.816 0 2.016-.53 3.564-1.59 4.644-1.05 1.08-2.11 1.62-3.17 1.62-1.41 0-2.61-.072-3.6-.216-.96-.144-1.88-.288-2.77-.432-.86-.144-1.86-.216-2.99-.216-.62 0-1.17.048-1.65.144-.46.096-.9.264-1.33.504-.41.216-.87.528-1.37.936l-.97-2.304c1.58-1.968 3.01-3.6 4.28-4.896 1.27-1.296 2.45-2.316 3.53-3.06 1.1-.768 2.16-1.32 3.17-1.656 1.03-.336 2.1-.504 3.2-.504Zm-10.44 7.776v22.032l4.72 1.944V883h-22.79v-2.448l3.99-1.692v-19.404c-.38-.528-.81-1.02-1.29-1.476-.48-.48-1.01-.948-1.59-1.404-.55-.456-1.17-.9-1.87-1.332v-2.304l14.47-4.464h2.02l2.34 8.1Zm35.52 22.284 4 1.692V883h-22.07v-2.448l4-1.692v-36.684a9.86 9.86 0 0 0-1.41-1.332 14.34 14.34 0 0 0-1.91-1.368c-.72-.48-1.54-.972-2.48-1.476v-2.952l18.29-4.284h2.41l-.83 9.432v38.664Zm31.63-18.324c0-2.016-.35-3.588-1.04-4.716-.68-1.128-1.72-1.692-3.14-1.692-1.22 0-2.28.348-3.16 1.044-.89.696-1.58 1.872-2.06 3.528-.48 1.632-.72 3.888-.72 6.768 0 2.616.26 4.74.76 6.372.5 1.608 1.24 2.784 2.2 3.528.98.744 2.2 1.116 3.67 1.116.72 0 1.57-.072 2.55-.216.99-.168 1.92-.444 2.81-.828v3.276a108.64 108.64 0 0 1-4.21 2.736c-1.18.696-2.21 1.236-3.1 1.62-.88.384-1.69.648-2.41.792-.72.144-1.43.216-2.12.216-3.12 0-5.74-.672-7.85-2.016-2.11-1.368-3.71-3.276-4.79-5.724-1.05-2.448-1.58-5.292-1.58-8.532 0-3.168.55-5.952 1.65-8.352 1.11-2.4 2.61-4.416 4.5-6.048a19.376 19.376 0 0 1 6.45-3.672c2.4-.84 4.91-1.26 7.52-1.26 1.51 0 2.93.108 4.25.324 1.34.192 2.69.516 4.03.972 1.37.432 2.88 1.032 4.54 1.8h-8.75v-10.008c-.36-.408-.84-.804-1.44-1.188-.58-.408-1.24-.804-1.98-1.188-.74-.408-1.54-.804-2.38-1.188v-2.952l18.29-4.284h2.38l-.79 9.432v34.596c.26.288.58.6.97.936.41.312.84.636 1.29.972.48.336.96.66 1.44.972.48.288.96.552 1.44.792v2.088l-15.4 3.528h-1.7l-2.12-6.696v-16.848Zm22.09-8.028c2.5-1.152 4.14-2.232 4.93-3.24.8-1.032 1.19-2.016 1.19-2.952 0-.792-.3-1.476-.9-2.052-.6-.6-1.29-1.128-2.09-1.584-.76-.456-1.45-.876-2.05-1.26-.6-.408-.9-.84-.9-1.296 0-1.968.69-3.66 2.05-5.076 1.37-1.416 3.2-2.124 5.48-2.124 2.37 0 4.23.684 5.58 2.052 1.36 1.368 2.05 3.24 2.05 5.616 0 2.28-.42 4.344-1.26 6.192-.82 1.848-2.21 3.552-4.18 5.112-1.94 1.56-4.62 3.036-8.03 4.428l-1.87-3.816Zm32.61-4.032c2.35 0 4.37.132 6.05.396 1.68.24 3.36.636 5.04 1.188l.5 9.18h-3.71l-5.11-8.568 3.89 3.672a16.519 16.519 0 0 0-3.28-1.008c-1.1-.24-2.07-.36-2.91-.36-1.9 0-3.29.264-4.18.792-.89.504-1.33 1.272-1.33 2.304 0 .672.17 1.272.5 1.8.36.504 1.13.996 2.31 1.476 1.2.48 3.07 1.02 5.61 1.62 1.9.432 3.51.984 4.83 1.656 1.34.648 2.43 1.428 3.27 2.34a8.07 8.07 0 0 1 1.84 3.096c.41 1.176.61 2.484.61 3.924 0 2.64-.68 4.86-2.05 6.66-1.34 1.776-3.29 3.132-5.83 4.068-2.52.912-5.57 1.368-9.15 1.368-2.25 0-4.44-.144-6.55-.432-2.11-.288-3.92-.684-5.43-1.188l-1.08-10.08h3.31l5.87 9.54-5.69-3.6c.77.24 1.59.432 2.48.576a53.5 53.5 0 0 0 2.74.36c.91.072 1.77.108 2.59.108 2.3 0 4.02-.312 5.15-.936 1.13-.648 1.69-1.632 1.69-2.952 0-.6-.12-1.116-.36-1.548-.24-.456-.68-.864-1.33-1.224-.63-.36-1.53-.72-2.7-1.08-1.15-.384-2.64-.792-4.47-1.224-2.44-.6-4.34-1.392-5.68-2.376-1.35-1.008-2.28-2.184-2.81-3.528-.51-1.368-.76-2.844-.76-4.428 0-2.544.69-4.68 2.05-6.408 1.4-1.728 3.3-3.024 5.73-3.888 2.45-.864 5.23-1.296 8.35-1.296Zm43.87 29.988h2.7l-6.59 5.256-5.58-.576 1.52-8.424v-32.544a9.86 9.86 0 0 0-1.41-1.332 14.34 14.34 0 0 0-1.91-1.368c-.72-.48-1.54-.972-2.48-1.476v-2.952l18.29-4.284h2.37l-.79 9.432v31.068c0 1.512.16 2.784.47 3.816.31 1.008.8 1.776 1.48 2.304.67.504 1.52.756 2.55.756 1.15 0 2.15-.348 2.99-1.044.84-.696 1.49-1.884 1.94-3.564.46-1.704.69-4.044.69-7.02 0-2.448-.25-4.44-.76-5.976-.48-1.536-1.22-2.664-2.23-3.384-.98-.72-2.2-1.08-3.64-1.08-.5 0-1.06.036-1.69.108-.62.072-1.26.18-1.91.324-.64.144-1.26.36-1.83.648l-1.91-2.664a85.118 85.118 0 0 1 4.32-2.736c1.3-.768 2.48-1.392 3.56-1.872 1.08-.48 2.1-.828 3.06-1.044.99-.24 1.95-.36 2.88-.36 3.12 0 5.74.672 7.85 2.016 2.11 1.344 3.7 3.24 4.75 5.688 1.06 2.448 1.59 5.304 1.59 8.568 0 3.336-.52 6.228-1.55 8.676-1.01 2.424-2.39 4.428-4.14 6.012-1.73 1.584-3.66 2.76-5.8 3.528a19.843 19.843 0 0 1-6.58 1.116c-1.66 0-3.2-.168-4.61-.504a12.018 12.018 0 0 1-3.96-1.692c-1.25-.816-2.46-1.956-3.64-3.42Zm45.61-34.704c-2.49 0-4.43-.6-5.79-1.8-1.35-1.2-2.02-2.796-2.02-4.788 0-1.944.67-3.492 2.02-4.644 1.36-1.176 3.3-1.764 5.79-1.764 2.52 0 4.45.588 5.8 1.764 1.37 1.152 2.05 2.7 2.05 4.644 0 1.992-.68 3.588-2.05 4.788-1.35 1.2-3.28 1.8-5.8 1.8Zm7.78 4.716-.69 10.008v20.376l4 1.692V883h-22.07v-2.448l4-1.692v-19.872c-.34-.456-.76-.924-1.26-1.404-.48-.48-1.02-.96-1.62-1.44-.6-.48-1.23-.948-1.87-1.404v-2.268l16.38-3.996h3.13Zm23.65 52.812c-3.34 0-6.15-.168-8.43-.504-2.28-.336-4.11-.828-5.5-1.476-1.37-.648-2.37-1.416-2.99-2.304-.6-.864-.9-1.824-.9-2.88 0-.936.2-1.776.61-2.52.41-.72 1.16-1.368 2.27-1.944 1.1-.576 2.66-1.092 4.68-1.548 2.01-.456 4.63-.876 7.85-1.26h4.03l.03.612c-2.52.264-4.44.6-5.76 1.008-1.29.432-2.18.936-2.66 1.512-.46.576-.68 1.26-.68 2.052 0 .936.32 1.74.97 2.412.65.696 1.68 1.224 3.09 1.584 1.44.384 3.3.576 5.58.576 2.33 0 4.25-.18 5.76-.54 1.52-.36 2.63-.864 3.35-1.512.72-.648 1.08-1.356 1.08-2.124 0-.576-.17-1.068-.5-1.476-.31-.408-.95-.756-1.91-1.044-.96-.288-2.36-.528-4.21-.72-1.85-.192-4.29-.384-7.31-.576-3.02-.168-5.5-.516-7.42-1.044-1.89-.504-3.36-1.164-4.39-1.98-1.03-.816-1.74-1.728-2.12-2.736a8.656 8.656 0 0 1-.54-3.312c.07-2.424 1.02-4.344 2.84-5.76 1.83-1.416 4.67-2.292 8.53-2.628l1.08 1.584c-1.48.096-2.48.324-2.98.684-.48.36-.72.84-.72 1.44 0 .48.13.876.39 1.188.29.312.84.576 1.66.792.84.192 2.09.348 3.74.468 1.68.12 3.91.228 6.7.324 3.09.12 5.7.396 7.81.828 2.11.408 3.8 1.02 5.08 1.836 1.27.792 2.19 1.8 2.77 3.024.57 1.248.86 2.724.86 4.428.03 2.712-.79 5.076-2.45 7.092-1.63 2.04-4.06 3.624-7.3 4.752-3.22 1.128-7.22 1.692-11.99 1.692Zm.03-28.008c-3.62 0-6.67-.492-9.14-1.476-2.45-1.008-4.31-2.436-5.58-4.284-1.25-1.872-1.87-4.08-1.87-6.624 0-2.688.69-4.956 2.09-6.804 1.39-1.848 3.33-3.24 5.83-4.176 2.52-.96 5.43-1.44 8.75-1.44 2.83 0 5.28.36 7.34 1.08 2.09.72 3.82 1.692 5.18 2.916 1.37 1.2 2.39 2.532 3.06 3.996.68 1.464 1.01 2.928 1.01 4.392 0 2.664-.69 4.932-2.09 6.804-1.36 1.848-3.3 3.252-5.79 4.212-2.5.936-5.43 1.404-8.79 1.404Zm.29-4.824c1.06 0 1.87-.492 2.45-1.476.6-.984.9-2.868.9-5.652 0-3.192-.34-5.364-1.01-6.516-.67-1.176-1.59-1.764-2.77-1.764-1.06 0-1.87.492-2.45 1.476-.57.984-.86 2.88-.86 5.688 0 3.168.32 5.34.97 6.516.67 1.152 1.6 1.728 2.77 1.728Zm5.4-16.596-.57-2.7c1.96.192 3.73.276 5.29.252 1.56-.048 2.95-.144 4.17-.288 1.25-.144 2.34-.288 3.28-.432.96-.144 1.81-.216 2.56-.216.84 0 1.44.216 1.8.648.38.432.57 1.224.57 2.376 0 1.824-.29 3.048-.86 3.672-.58.624-1.24.936-1.98.936-.7 0-1.42-.24-2.16-.72-.72-.48-1.6-1.02-2.63-1.62-1.01-.6-2.27-1.104-3.78-1.512-1.51-.408-3.41-.54-5.69-.396Zm35.83 49.428c-3.33 0-6.14-.168-8.42-.504-2.28-.336-4.12-.828-5.51-1.476-1.37-.648-2.36-1.416-2.99-2.304-.6-.864-.9-1.824-.9-2.88 0-.936.21-1.776.61-2.52.41-.72 1.17-1.368 2.27-1.944 1.11-.576 2.67-1.092 4.68-1.548 2.02-.456 4.63-.876 7.85-1.26h4.03l.04.612c-2.52.264-4.44.6-5.76 1.008-1.3.432-2.19.936-2.67 1.512-.45.576-.68 1.26-.68 2.052 0 .936.32 1.74.97 2.412.65.696 1.68 1.224 3.1 1.584 1.44.384 3.3.576 5.58.576 2.33 0 4.25-.18 5.76-.54 1.51-.36 2.63-.864 3.35-1.512.72-.648 1.08-1.356 1.08-2.124 0-.576-.17-1.068-.51-1.476-.31-.408-.95-.756-1.91-1.044-.96-.288-2.36-.528-4.21-.72-1.85-.192-4.28-.384-7.31-.576-3.02-.168-5.49-.516-7.41-1.044-1.9-.504-3.36-1.164-4.39-1.98-1.04-.816-1.74-1.728-2.13-2.736a9.057 9.057 0 0 1-.54-3.312c.07-2.424 1.02-4.344 2.85-5.76 1.82-1.416 4.66-2.292 8.53-2.628l1.08 1.584c-1.49.096-2.49.324-2.99.684-.48.36-.72.84-.72 1.44 0 .48.13.876.4 1.188.28.312.84.576 1.65.792.84.192 2.09.348 3.75.468 1.68.12 3.91.228 6.69.324 3.1.12 5.7.396 7.81.828 2.12.408 3.81 1.02 5.08 1.836 1.27.792 2.2 1.8 2.77 3.024.58 1.248.87 2.724.87 4.428.02 2.712-.8 5.076-2.45 7.092-1.63 2.04-4.07 3.624-7.31 4.752-3.22 1.128-7.21 1.692-11.99 1.692Zm.04-28.008c-3.63 0-6.67-.492-9.15-1.476-2.44-1.008-4.3-2.436-5.58-4.284-1.24-1.872-1.87-4.08-1.87-6.624 0-2.688.7-4.956 2.09-6.804 1.39-1.848 3.34-3.24 5.83-4.176 2.52-.96 5.44-1.44 8.75-1.44 2.83 0 5.28.36 7.34 1.08 2.09.72 3.82 1.692 5.19 2.916 1.37 1.2 2.39 2.532 3.06 3.996.67 1.464 1.01 2.928 1.01 4.392 0 2.664-.7 4.932-2.09 6.804-1.37 1.848-3.3 3.252-5.8 4.212-2.49.936-5.42 1.404-8.78 1.404Zm.29-4.824c1.05 0 1.87-.492 2.44-1.476.6-.984.9-2.868.9-5.652 0-3.192-.33-5.364-1-6.516-.68-1.176-1.6-1.764-2.78-1.764-1.05 0-1.87.492-2.44 1.476-.58.984-.87 2.88-.87 5.688 0 3.168.33 5.34.97 6.516.68 1.152 1.6 1.728 2.78 1.728Zm5.4-16.596-.58-2.7c1.97.192 3.73.276 5.29.252 1.56-.048 2.95-.144 4.18-.288 1.25-.144 2.34-.288 3.27-.432.96-.144 1.82-.216 2.56-.216.84 0 1.44.216 1.8.648.38.432.58 1.224.58 2.376 0 1.824-.29 3.048-.87 3.672-.57.624-1.23.936-1.98.936-.69 0-1.41-.24-2.16-.72-.72-.48-1.59-1.02-2.63-1.62-1-.6-2.26-1.104-3.78-1.512-1.51-.408-3.4-.54-5.68-.396Zm36.25-3.384c3.45 0 6.33.636 8.64 1.908 2.32 1.272 4.11 3.192 5.36 5.76 1.25 2.568 2 5.784 2.27 9.648h-25.24v-4.176l17.43-.72-4.97 2.376c0-2.4-.17-4.296-.51-5.688-.31-1.416-.8-2.412-1.47-2.988-.65-.6-1.48-.9-2.49-.9-.91 0-1.7.252-2.37.756-.65.48-1.15 1.404-1.51 2.772-.36 1.368-.54 3.372-.54 6.012 0 2.712.38 4.92 1.15 6.624.79 1.68 1.97 2.928 3.53 3.744 1.58.792 3.54 1.188 5.86 1.188 1.28 0 2.45-.06 3.53-.18 1.08-.12 2.13-.324 3.13-.612a19.3 19.3 0 0 0 3.14-1.188l.97 3.168c-1.85 1.632-3.65 3.06-5.4 4.284-1.75 1.2-3.51 2.136-5.26 2.808a15.022 15.022 0 0 1-5.43 1.008c-3.8 0-7.04-.72-9.72-2.16-2.69-1.44-4.76-3.456-6.2-6.048-1.41-2.592-2.12-5.604-2.12-9.036 0-3.48.68-6.6 2.05-9.36 1.39-2.784 3.45-4.98 6.16-6.588 2.71-1.608 6.05-2.412 10.01-2.412Zm36.94 0c2.35 0 4.37.132 6.05.396 1.68.24 3.36.636 5.04 1.188l.5 9.18h-3.7l-5.12-8.568 3.89 3.672a16.633 16.633 0 0 0-3.27-1.008c-1.11-.24-2.08-.36-2.92-.36-1.9 0-3.29.264-4.18.792-.88.504-1.33 1.272-1.33 2.304 0 .672.17 1.272.51 1.8.36.504 1.12.996 2.3 1.476 1.2.48 3.07 1.02 5.62 1.62 1.89.432 3.5.984 4.82 1.656 1.34.648 2.44 1.428 3.28 2.34.84.888 1.45 1.92 1.83 3.096.41 1.176.61 2.484.61 3.924 0 2.64-.68 4.86-2.05 6.66-1.34 1.776-3.29 3.132-5.83 4.068-2.52.912-5.57 1.368-9.14 1.368-2.26 0-4.44-.144-6.56-.432-2.11-.288-3.92-.684-5.43-1.188l-1.08-10.08h3.31l5.87 9.54-5.69-3.6c.77.24 1.6.432 2.48.576.92.144 1.83.264 2.74.36.91.072 1.78.108 2.59.108 2.31 0 4.02-.312 5.15-.936 1.13-.648 1.69-1.632 1.69-2.952 0-.6-.12-1.116-.36-1.548-.24-.456-.68-.864-1.33-1.224-.62-.36-1.52-.72-2.7-1.08-1.15-.384-2.64-.792-4.46-1.224-2.45-.6-4.35-1.392-5.69-2.376-1.35-1.008-2.28-2.184-2.81-3.528-.5-1.368-.76-2.844-.76-4.428 0-2.544.69-4.68 2.06-6.408 1.39-1.728 3.3-3.024 5.72-3.888 2.45-.864 5.23-1.296 8.35-1.296Zm35.85 23.004c0 1.392.47 2.436 1.41 3.132.96.696 2.47 1.044 4.53 1.044 1.01 0 2.12-.096 3.32-.288 1.2-.192 2.5-.492 3.92-.9v3.564c-2.35 1.44-4.43 2.604-6.23 3.492-1.77.888-3.37 1.536-4.79 1.944-1.41.408-2.74.612-3.99.612-2.5 0-4.66-.384-6.48-1.152-1.83-.768-3.23-1.956-4.21-3.564-.99-1.632-1.48-3.708-1.48-6.228v-15.444l-5.87-4.86v-2.52a245 245 0 0 0 2.41-1.404c1.01-.576 2.12-1.212 3.32-1.908 1.22-.696 2.47-1.404 3.74-2.124 1.27-.744 2.5-1.452 3.67-2.124 1.18-.696 2.23-1.308 3.17-1.836h3.56v30.564Zm-5.79-15.3.07-6.624h17.57l-.54 6.624h-17.1Zm-498.69 82.296c2.35 0 4.37.132 6.05.396 1.68.24 3.36.636 5.04 1.188l.5 9.18h-3.71l-5.11-8.568 3.89 3.672a16.519 16.519 0 0 0-3.28-1.008c-1.1-.24-2.07-.36-2.91-.36-1.9 0-3.29.264-4.18.792-.89.504-1.33 1.272-1.33 2.304 0 .672.17 1.272.5 1.8.36.504 1.13.996 2.31 1.476 1.2.48 3.07 1.02 5.61 1.62 1.9.432 3.51.984 4.83 1.656 1.34.648 2.43 1.428 3.27 2.34a8.07 8.07 0 0 1 1.84 3.096c.41 1.176.61 2.484.61 3.924 0 2.64-.68 4.86-2.05 6.66-1.34 1.776-3.29 3.132-5.83 4.068-2.52.912-5.57 1.368-9.15 1.368-2.25 0-4.44-.144-6.55-.432-2.11-.288-3.92-.684-5.43-1.188l-1.08-10.08h3.31l5.87 9.54-5.69-3.6c.77.24 1.59.432 2.48.576a53.5 53.5 0 0 0 2.74.36c.91.072 1.77.108 2.59.108 2.3 0 4.02-.312 5.15-.936 1.13-.648 1.69-1.632 1.69-2.952 0-.6-.12-1.116-.36-1.548-.24-.456-.68-.864-1.33-1.224-.63-.36-1.53-.72-2.7-1.08-1.15-.384-2.64-.792-4.47-1.224-2.44-.6-4.34-1.392-5.68-2.376-1.35-1.008-2.28-2.184-2.81-3.528-.51-1.368-.76-2.844-.76-4.428 0-2.544.69-4.68 2.05-6.408 1.4-1.728 3.3-3.024 5.73-3.888 2.45-.864 5.23-1.296 8.35-1.296Zm39.6 0c3.02 0 5.43.288 7.23.864 1.8.576 3.11 1.368 3.93 2.376.81.984 1.22 2.1 1.22 3.348 0 1.104-.28 2.064-.83 2.88a5.798 5.798 0 0 1-2.12 1.908 5.62 5.62 0 0 1-2.59.648c-.75 0-1.5-.24-2.27-.72s-1.53-1.068-2.27-1.764c-.74-.72-1.48-1.44-2.2-2.16-.69-.72-1.36-1.32-2.01-1.8-.63-.48-1.2-.72-1.73-.72-1.01 0-1.91.276-2.7.828-.77.528-1.38 1.44-1.84 2.736-.43 1.272-.64 3.036-.64 5.292 0 3.048.37 5.484 1.11 7.308.77 1.8 1.91 3.108 3.42 3.924 1.54.792 3.45 1.188 5.73 1.188 1.87 0 3.55-.144 5.04-.432 1.51-.312 3.06-.852 4.64-1.62l1.01 3.348c-2.14 1.992-4.13 3.588-5.98 4.788-1.85 1.176-3.59 2.028-5.22 2.556-1.61.552-3.19.828-4.75.828-3.72 0-6.91-.708-9.58-2.124-2.66-1.416-4.7-3.396-6.12-5.94-1.41-2.568-2.12-5.544-2.12-8.928 0-2.616.47-5.052 1.4-7.308.96-2.256 2.36-4.236 4.18-5.94 1.85-1.704 4.12-3.024 6.8-3.96 2.69-.936 5.78-1.404 9.26-1.404Zm26.82-4.716c-2.5 0-4.43-.6-5.8-1.8-1.34-1.2-2.01-2.796-2.01-4.788 0-1.944.67-3.492 2.01-4.644 1.37-1.176 3.3-1.764 5.8-1.764 2.52 0 4.45.588 5.8 1.764 1.36 1.152 2.05 2.7 2.05 4.644 0 1.992-.69 3.588-2.05 4.788-1.35 1.2-3.28 1.8-5.8 1.8Zm7.78 4.716-.69 10.008v20.376l4 1.692V973h-22.07v-2.448l4-1.692v-19.872c-.34-.456-.76-.924-1.26-1.404-.48-.48-1.02-.96-1.62-1.44-.6-.48-1.23-.948-1.88-1.404v-2.268l16.38-3.996h3.14Zm7.61 13.356h20.45v8.388h-20.45v-8.388Zm56.83-5.652h-23.22l-3.96 1.296-6.84-2.988v-2.268l7.45-3.6 6.98.936h17.64l11.45-.72h3.13l-.68 9.648v20.376l3.99 1.692V973h-22.06v-2.448l3.99-1.692v-24.552l2.13 1.872Zm-13.11 22.68 4 1.692V973h-22.07v-2.448l4-1.692v-27.576c0-3.504.52-6.54 1.58-9.108 1.06-2.568 2.59-4.692 4.61-6.372 2.04-1.68 4.5-2.94 7.38-3.78 2.88-.84 6.13-1.26 9.75-1.26 3.58 0 6.35.3 8.32.9 1.99.6 3.38 1.404 4.18 2.412.81.984 1.22 2.076 1.22 3.276 0 .984-.25 1.92-.76 2.808-.5.864-1.2 1.56-2.08 2.088-.89.504-1.94.756-3.14.756-1 0-1.87-.336-2.59-1.008a26.607 26.607 0 0 1-2.16-2.376c-.72-.888-1.57-1.68-2.55-2.376-.99-.696-2.24-1.044-3.75-1.044-1.39 0-2.52.216-3.38.648-.87.408-1.51 1.068-1.95 1.98-.4.888-.61 2.052-.61 3.492v36.54Zm64.45-30.384c2.36 0 4.37.132 6.05.396 1.68.24 3.36.636 5.04 1.188l.51 9.18h-3.71l-5.11-8.568 3.88 3.672a16.633 16.633 0 0 0-3.27-1.008c-1.11-.24-2.08-.36-2.92-.36-1.89 0-3.29.264-4.17.792-.89.504-1.34 1.272-1.34 2.304 0 .672.17 1.272.51 1.8.36.504 1.13.996 2.3 1.476 1.2.48 3.07 1.02 5.62 1.62 1.89.432 3.5.984 4.82 1.656 1.35.648 2.44 1.428 3.28 2.34.84.888 1.45 1.92 1.83 3.096.41 1.176.62 2.484.62 3.924 0 2.64-.69 4.86-2.06 6.66-1.34 1.776-3.28 3.132-5.83 4.068-2.52.912-5.57 1.368-9.14 1.368-2.26 0-4.44-.144-6.55-.432-2.12-.288-3.93-.684-5.44-1.188l-1.08-10.08h3.31l5.87 9.54-5.69-3.6c.77.24 1.6.432 2.49.576.91.144 1.82.264 2.73.36.91.072 1.78.108 2.59.108 2.31 0 4.02-.312 5.15-.936 1.13-.648 1.69-1.632 1.69-2.952 0-.6-.12-1.116-.36-1.548-.24-.456-.68-.864-1.33-1.224-.62-.36-1.52-.72-2.7-1.08-1.15-.384-2.64-.792-4.46-1.224-2.45-.6-4.35-1.392-5.69-2.376-1.34-1.008-2.28-2.184-2.81-3.528-.5-1.368-.75-2.844-.75-4.428 0-2.544.68-4.68 2.05-6.408 1.39-1.728 3.3-3.024 5.72-3.888 2.45-.864 5.23-1.296 8.35-1.296Zm36.25 0c3.46 0 6.34.636 8.64 1.908 2.33 1.272 4.12 3.192 5.37 5.76 1.24 2.568 2 5.784 2.26 9.648h-25.23v-4.176l17.42-.72-4.97 2.376c0-2.4-.16-4.296-.5-5.688-.31-1.416-.8-2.412-1.48-2.988-.64-.6-1.47-.9-2.48-.9-.91 0-1.7.252-2.38.756-.64.48-1.15 1.404-1.51 2.772-.36 1.368-.54 3.372-.54 6.012 0 2.712.39 4.92 1.15 6.624.8 1.68 1.97 2.928 3.53 3.744 1.59.792 3.54 1.188 5.87 1.188 1.27 0 2.45-.06 3.53-.18a19.202 19.202 0 0 0 6.26-1.8l.97 3.168c-1.84 1.632-3.64 3.06-5.4 4.284-1.75 1.2-3.5 2.136-5.25 2.808a15.075 15.075 0 0 1-5.44 1.008c-3.79 0-7.03-.72-9.72-2.16-2.69-1.44-4.75-3.456-6.19-6.048-1.42-2.592-2.12-5.604-2.12-9.036 0-3.48.68-6.6 2.05-9.36 1.39-2.784 3.44-4.98 6.15-6.588 2.72-1.608 6.05-2.412 10.01-2.412Zm48.94.324c1.89 0 3.24.54 4.03 1.62.82 1.056 1.22 2.328 1.22 3.816 0 2.016-.52 3.564-1.58 4.644s-2.11 1.62-3.17 1.62c-1.41 0-2.61-.072-3.6-.216-.96-.144-1.88-.288-2.77-.432-.86-.144-1.86-.216-2.99-.216-.62 0-1.17.048-1.65.144-.46.096-.9.264-1.34.504-.4.216-.86.528-1.36.936l-.98-2.304c1.59-1.968 3.02-3.6 4.29-4.896 1.27-1.296 2.45-2.316 3.53-3.06 1.1-.768 2.16-1.32 3.16-1.656a10.33 10.33 0 0 1 3.21-.504Zm-10.44 7.776v22.032l4.71 1.944V973h-22.78v-2.448l3.99-1.692v-19.404c-.38-.528-.81-1.02-1.29-1.476-.48-.48-1.01-.948-1.59-1.404-.55-.456-1.17-.9-1.87-1.332v-2.304l14.47-4.464h2.02l2.34 8.1Zm29.43-12.816c-2.49 0-4.43-.6-5.79-1.8-1.35-1.2-2.02-2.796-2.02-4.788 0-1.944.67-3.492 2.02-4.644 1.36-1.176 3.3-1.764 5.79-1.764 2.52 0 4.45.588 5.8 1.764 1.37 1.152 2.05 2.7 2.05 4.644 0 1.992-.68 3.588-2.05 4.788-1.35 1.2-3.28 1.8-5.8 1.8Zm7.78 4.716-.69 10.008v20.376l4 1.692V973h-22.07v-2.448l4-1.692v-19.872c-.34-.456-.76-.924-1.26-1.404-.48-.48-1.02-.96-1.62-1.44-.6-.48-1.23-.948-1.87-1.404v-2.268l16.38-3.996h3.13Zm24.98 0c3.46 0 6.34.636 8.64 1.908 2.33 1.272 4.12 3.192 5.36 5.76 1.25 2.568 2.01 5.784 2.27 9.648h-25.23v-4.176l17.42-.72-4.97 2.376c0-2.4-.17-4.296-.5-5.688-.31-1.416-.81-2.412-1.48-2.988-.65-.6-1.47-.9-2.48-.9-.91 0-1.71.252-2.38.756-.65.48-1.15 1.404-1.51 2.772-.36 1.368-.54 3.372-.54 6.012 0 2.712.38 4.92 1.15 6.624.79 1.68 1.97 2.928 3.53 3.744 1.58.792 3.54 1.188 5.87 1.188 1.27 0 2.45-.06 3.53-.18 1.08-.12 2.12-.324 3.13-.612 1.03-.288 2.07-.684 3.13-1.188l.97 3.168c-1.85 1.632-3.65 3.06-5.4 4.284-1.75 1.2-3.5 2.136-5.25 2.808a15.115 15.115 0 0 1-5.44 1.008c-3.79 0-7.03-.72-9.72-2.16-2.69-1.44-4.75-3.456-6.19-6.048-1.42-2.592-2.13-5.604-2.13-9.036 0-3.48.69-6.6 2.06-9.36 1.39-2.784 3.44-4.98 6.15-6.588 2.71-1.608 6.05-2.412 10.01-2.412Zm36.95 0c2.35 0 4.37.132 6.05.396 1.68.24 3.36.636 5.04 1.188l.5 9.18h-3.71l-5.11-8.568 3.89 3.672a16.519 16.519 0 0 0-3.28-1.008c-1.1-.24-2.07-.36-2.91-.36-1.9 0-3.29.264-4.18.792-.89.504-1.33 1.272-1.33 2.304 0 .672.17 1.272.5 1.8.36.504 1.13.996 2.31 1.476 1.2.48 3.07 1.02 5.61 1.62 1.9.432 3.51.984 4.83 1.656 1.34.648 2.43 1.428 3.27 2.34.84.888 1.45 1.92 1.84 3.096.41 1.176.61 2.484.61 3.924 0 2.64-.68 4.86-2.05 6.66-1.35 1.776-3.29 3.132-5.83 4.068-2.52.912-5.57 1.368-9.15 1.368-2.25 0-4.44-.144-6.55-.432-2.11-.288-3.92-.684-5.44-1.188l-1.08-10.08h3.32l5.86 9.54-5.68-3.6c.76.24 1.59.432 2.48.576.91.144 1.82.264 2.74.36.91.072 1.77.108 2.59.108 2.3 0 4.02-.312 5.15-.936 1.12-.648 1.69-1.632 1.69-2.952 0-.6-.12-1.116-.36-1.548-.24-.456-.69-.864-1.33-1.224-.63-.36-1.53-.72-2.7-1.08-1.16-.384-2.64-.792-4.47-1.224-2.45-.6-4.34-1.392-5.69-2.376-1.34-1.008-2.28-2.184-2.8-3.528-.51-1.368-.76-2.844-.76-4.428 0-2.544.68-4.68 2.05-6.408 1.39-1.728 3.3-3.024 5.73-3.888 2.44-.864 5.23-1.296 8.35-1.296ZM1293.16 500v-24.876h12.02l-.5 3.42h-6.95v7.596h6.05v3.42h-6.05V500h-4.57Zm24.49-24.876V500h-4.57v-24.876h4.57Zm14.3 0v21.096h8.02l-.5 3.78h-12.1v-24.876h4.58ZM1367.77 500h-4.35l-.43-10.512c-.15-3.84-.22-6.576-.22-8.208l.04-1.872-3.42 17.856h-4.32l-3.57-17.892c.03.72.04 1.824.04 3.312 0 2.52-.05 4.836-.15 6.948L1351 500h-4.29l1.59-24.876h5.76l3.24 17.532 3.02-17.532h5.87l1.58 24.876Zm37.02 0h-5.83l-6.3-20.376c.19 1.728.34 3.324.43 4.788.12 1.44.18 3.156.18 5.148V500h-4.03v-24.876h5.8l6.3 20.376c-.15-.864-.29-2.088-.43-3.672a63.844 63.844 0 0 1-.18-4.824v-11.88h4.06V500Zm22.06-24.876-.46 3.42h-7.31v7.128h6.37v3.384h-6.37v7.488h7.77V500h-12.34v-24.876h12.34Zm31.24 0L1454.6 500h-6.02l-2.66-20.016-2.77 20.016h-5.91l-3.42-24.876h4.43l2.31 21.204 2.98-21.204h4.86l2.92 21.204 2.52-21.204h4.25Zm14.02-.504c1.44 0 2.71.252 3.81.756 1.11.504 2.13 1.26 3.06 2.268l-2.12 2.448c-.75-.672-1.48-1.176-2.2-1.512a5.046 5.046 0 0 0-2.23-.504c-.91 0-1.63.288-2.16.864-.53.552-.79 1.284-.79 2.196 0 .912.27 1.656.83 2.232.55.576 1.63 1.176 3.24 1.8 2.06.84 3.57 1.824 4.53 2.952.99 1.128 1.48 2.724 1.48 4.788 0 1.416-.33 2.712-.97 3.888-.65 1.152-1.59 2.064-2.81 2.736-1.2.672-2.61 1.008-4.21 1.008-1.66 0-3.1-.288-4.32-.864-1.23-.6-2.34-1.44-3.35-2.52l2.3-2.52c.87.768 1.69 1.356 2.49 1.764a5.55 5.55 0 0 0 2.59.612c1.1 0 1.95-.336 2.55-1.008.63-.696.94-1.632.94-2.808 0-1.032-.28-1.872-.83-2.52-.53-.672-1.52-1.284-2.99-1.836-2.2-.888-3.8-1.908-4.78-3.06-.96-1.152-1.44-2.592-1.44-4.32 0-1.32.31-2.496.93-3.528.65-1.032 1.54-1.836 2.67-2.412 1.12-.6 2.38-.9 3.78-.9Z" fill="#fff"/><path d="M542.585 727.032v-73.559l32.137 32.137c2.569 2.568 6.783 2.568 9.352 0a6.56 6.56 0 0 0 0-9.286l-43.398-43.398a6.56 6.56 0 0 0-9.286 0l-43.464 43.332a6.56 6.56 0 0 0 0 9.286 6.56 6.56 0 0 0 9.286 0l32.203-32.071v73.559c0 3.622 2.963 6.585 6.585 6.585s6.585-2.963 6.585-6.585Z" fill="#1A73E8"/></g></svg>