<svg width="1920" height="1080" fill="none" xmlns="http://www.w3.org/2000/svg"><path d="M625.984 466.391v2.641h-14.445v7.256h-3.343v-7.256h-14.98v-2.641h32.768Zm-25.245 14.077h21.601v2.675h-24.878v-10.266h3.344l-.067 7.591Zm20.999-18.19h-24.209v-12.639h24.209v12.639Zm-3.344-10.031h-17.722v7.322h17.722v-7.322ZM605.488 499.092a17.29 17.29 0 0 0 9.295 14.545l-1.872 2.642a19.391 19.391 0 0 1-9.028-11.034 20.467 20.467 0 0 1-9.195 12.004l-1.906-2.608a18.859 18.859 0 0 0 9.462-15.482v-4.648h-8.225v-2.741h19.46v2.741h-7.991v4.581Zm21.5 6.287h-5.952v18.557h-3.344v-35.811h3.344v14.478h5.952v2.776ZM625.917 546.541v2.641H593.35v-2.641h32.567Zm-25.111 14.177h21.6v2.675h-24.91v-10.6h3.343l-.033 7.925Zm21.4-18.892H597.73v-12.271h3.344v9.496h21.165l-.033 2.775ZM612.342 590.01a8.929 8.929 0 1 1 0-2.709h7.29v-9.863h3.343v26.415h-3.343V590.01h-7.29Zm-9.128 4.547a5.845 5.845 0 0 0 4.348-1.651 5.826 5.826 0 0 0 1.331-1.967 5.833 5.833 0 0 0 .44-2.334 6.152 6.152 0 0 0-12.271 0 5.815 5.815 0 0 0 6.152 5.952Zm20.798 15.248v2.708h-24.008v-11.335h3.344v8.627h20.664ZM623.008 617.562v35.945h-3.343v-19.661h-7.824c-.335 7.056-3.913 11.469-8.928 11.469-5.016 0-8.961-4.882-8.961-12.539s3.711-12.539 8.961-12.539c5.249 0 8.393 4.18 8.928 10.934h7.824v-13.609h3.343Zm-14.21 15.315c0-5.818-2.408-9.597-5.818-9.597-3.411 0-5.885 3.678-5.885 9.496 0 5.818 2.407 9.63 5.851 9.63s5.852-3.778 5.852-9.63v.101ZM625.985 674.399v2.474h-32.601v-2.474h32.601Zm-25.379 16.417h22.436v2.341h-25.713v-8.058h21.333v-3.01h-21.4v-2.374h24.677v7.657h-21.333v3.444Zm17.956-29.759h-21.099v-2.34h24.342v7.49h-20.998v3.109h21.634v2.341H597.53v-7.691h21.032v-2.909ZM612.343 710.576c0 10.399-4.781 19.527-16.718 25.379l-1.772-2.675c9.663-4.615 14.478-11.503 15.147-20.063h-13.375v-2.641h16.718Zm10.533-3.879v35.945h-3.344v-35.945h3.344ZM625.984 766.589v2.675H593.35v-2.675h14.645v-3.778h-10.466v-8.794h21.032v-3.712h-21.099v-2.575h24.343v8.761h-20.999v3.745h21.768v2.575h-11.235v3.778h14.645Zm-28.889 5.45h25.01v10.433h-3.343v-7.758h-21.667v-2.675ZM605.521 792.706h8.861v2.642h-21.199v-2.642h9.062v-5.316h3.343l-.067 5.316Zm7.189 13.91a8.76 8.76 0 1 1-8.794-8.293 8.194 8.194 0 0 1 8.794 8.293Zm-3.143 0a5.647 5.647 0 0 0-3.388-5.277 5.649 5.649 0 0 0-7.529 7.224 5.652 5.652 0 0 0 5.133 3.603 5.419 5.419 0 0 0 5.381-3.347 5.416 5.416 0 0 0 .403-2.203Zm17.421-2.107h-5.918V822.9h-3.344v-35.912h3.344v14.746h5.918v2.775ZM612.343 830.953c0 10.399-4.781 19.527-16.718 25.379l-1.772-2.675c9.663-4.615 14.478-11.503 15.147-20.063h-13.375v-2.641h16.718Zm10.533-3.879v35.945h-3.344v-35.945h3.344ZM569.108 468.664a89.045 89.045 0 0 1-10.298 1.204v12.94h-3.344v-12.74c-3.578.168-6.989.201-10.031.201l-.435-2.775c7.923.146 15.845-.279 23.707-1.271l.401 2.441Zm-21.266-11.603c0-4.413 3.812-7.423 9.162-7.423 5.35 0 9.162 3.01 9.162 7.423 0 4.414-3.812 7.39-9.162 7.39-5.35 0-9.162-3.009-9.162-7.39Zm3.143 0c0 2.809 2.508 4.715 6.019 4.715s5.985-1.906 5.985-4.715c0-2.808-2.474-4.681-5.985-4.681s-6.019 1.873-6.019 4.681ZM574.726 448v35.978h-3.344V448h3.344ZM566.567 495.149h-21.233v-2.642h8.962v-4.413h3.343v4.413h8.995l-.067 2.642Zm-10.633 15.414c-5.082 0-8.593-2.641-8.593-6.687s3.343-6.687 8.593-6.687 8.627 2.641 8.627 6.687-3.545 6.687-8.627 6.687Zm0-2.541c3.344 0 5.484-1.605 5.484-4.146s-2.241-4.079-5.484-4.079-5.45 1.605-5.45 4.079c0 2.474 2.207 4.079 5.45 4.079v.067Zm-1.906 12.573h20.698v2.675h-23.975v-10.299h3.344l-.067 7.624Zm24.409-20.631v2.775h-5.316v12.338h-3.344v-26.983h3.344v11.87h5.316ZM564.261 556.706a15.056 15.056 0 0 1-8.56-8.125 15.145 15.145 0 0 1-8.761 9.128l-1.705-2.608a13.173 13.173 0 0 0 8.928-12.372v-3.678h3.343v3.979a12.209 12.209 0 0 0 8.493 11.001l-1.738 2.675Zm9.262 10.031c0 4.18-4.514 6.688-11.804 6.688-7.289 0-11.87-2.341-11.87-6.688 0-4.347 4.514-6.687 11.87-6.687 7.356 0 11.971 2.34 11.971 6.553l-.167.134Zm-3.344 0c0-2.541-3.344-4.012-8.527-4.012-5.182 0-8.593 1.471-8.593 4.012 0 2.541 3.344 3.979 8.593 3.979 5.25 0 8.694-1.638 8.694-4.113l-.167.134Zm8.225-20.062v2.742h-5.35v9.763h-3.343v-21.868h3.343v9.263l5.35.1ZM565.597 597.5a15.126 15.126 0 0 1-9.028-8.059 15.484 15.484 0 0 1-9.094 8.995l-1.739-2.608a12.872 12.872 0 0 0 9.061-11.837v-1.036h-8.225v-2.675H566.3v2.675h-8.126v1.036a12.204 12.204 0 0 0 9.028 10.934l-1.605 2.575Zm9.263 9.329c0 4.28-4.615 6.687-12.071 6.687-7.457 0-12.071-2.441-12.071-6.687 0-4.247 4.614-6.688 12.071-6.688 7.456 0 12.071 2.241 12.071 6.554v.134Zm-3.344 0c0-2.709-3.344-4.18-8.794-4.18-5.45 0-8.828 1.471-8.828 4.18 0 2.708 3.344 4.146 8.828 4.146s8.861-1.639 8.861-4.28l-.067.134Zm3.143-7.624h-3.344v-21.767h3.344v21.767ZM555.7 637.619a16.349 16.349 0 0 0 7.724 14.278l-1.873 2.474a16.721 16.721 0 0 1-7.389-10.031 17.825 17.825 0 0 1-7.223 10.7L545 652.599a17.854 17.854 0 0 0 7.557-14.98v-1.739h-6.688v-2.741h6.688v-5.551h3.176v5.316h6.688v2.742h-6.688l-.033 1.973Zm9.697-10.232h3.109v33.237h-3.109V643.37h-5.484v-2.742h5.484v-13.241Zm10.365-.836v35.812h-3.143v-35.912l3.143.1ZM565.431 667.512h3.143v33.17h-3.143v-12.439h-6.487v-2.675h6.487v-6.319h-5.919a25.943 25.943 0 0 1-12.405 15.515l-1.939-2.341a23.002 23.002 0 0 0 12.171-18.591H546.94v-2.775h13.81a32.756 32.756 0 0 1-.468 5.45h5.316l-.167-8.995Zm10.332-.936v35.912h-3.11v-35.912h3.11ZM564.828 722.011c0 7.657-3.812 12.539-9.129 12.539-5.316 0-9.161-4.882-9.161-12.539s3.811-12.572 9.161-12.572 9.129 5.083 9.129 12.572Zm-15.147 0c0 5.852 2.474 9.63 6.018 9.63 3.545 0 5.952-3.778 5.952-9.63 0-5.851-2.474-9.596-5.952-9.596-3.477 0-6.018 3.778-6.018 9.596Zm24.977-15.314v36.045h-3.344v-36.045h3.344ZM550.049 771.066a86.27 86.27 0 0 0 16.183-1.204l.368 2.742a85.823 85.823 0 0 1-17.02 1.271h-2.842v-23.607h16.719v2.709h-13.375l-.033 18.089Zm28.789-7.323h-5.952v19.126h-3.344v-36.045h3.344v14.178h5.952v2.741ZM275.668 319.924v2.641h-14.445v7.256h-3.343v-7.256h-14.913v-2.641h32.701Zm-25.211 14.077h21.567v2.675h-24.878V326.41h3.344l-.033 7.591Zm20.965-18.19h-24.175v-12.606h24.175v12.606Zm-3.344-10.031h-17.722v7.322h17.722v-7.322ZM292.086 312.501a17.286 17.286 0 0 0 9.295 14.545l-1.872 2.641a19.391 19.391 0 0 1-9.028-11.034 20.064 20.064 0 0 1-9.195 11.937l-1.906-2.608a18.859 18.859 0 0 0 9.463-15.481v-4.581h-8.226v-2.842h19.46v2.708h-7.991v4.715Zm21.667 6.286h-6.119v18.691h-3.344v-35.945h3.344v14.478h6.119v2.776ZM349.464 319.82v2.642h-32.601v-2.642h32.601Zm-25.145 14.077h21.601v2.708h-24.911v-10.532h3.344l-.034 7.824Zm21.4-18.792h-24.443v-12.271h3.344v9.496h21.166l-.067 2.775ZM383.971 314.175a8.928 8.928 0 1 1 0-2.675h7.323v-10.031h3.344v26.515h-3.344v-13.809h-7.323Zm-9.128 4.581a5.848 5.848 0 0 0 4.361-1.662 5.864 5.864 0 0 0 1.758-4.324 6.152 6.152 0 0 0-12.271 0 5.854 5.854 0 0 0 3.812 5.629 5.852 5.852 0 0 0 2.374.357h-.034Zm20.798 15.247v2.675h-23.974v-11.302h3.343v8.627h20.631ZM431.586 301.497v36.045h-3.344v-19.628h-7.757c-.334 7.056-3.879 11.469-8.894 11.469-5.016 0-8.995-4.915-8.995-12.572 0-7.657 3.745-12.539 8.995-12.539 5.249 0 8.359 4.146 8.894 10.834h7.824v-13.71l3.277.101Zm-14.177 15.314c0-5.818-2.408-9.563-5.818-9.563-3.411 0-5.885 3.745-5.885 9.563 0 5.818 2.407 9.63 5.885 9.63 3.477 0 5.818-3.779 5.818-9.63ZM471.475 318.215v2.508h-32.601v-2.508h32.601Zm-25.379 16.418h22.436v2.374h-25.679v-7.992h21.366v-3.009h-21.467v-2.374h24.811v7.657h-21.467v3.344Zm18.123-29.759h-21.266v-2.341h24.342v7.524h-20.998v3.076h21.633v2.374h-24.877v-7.724h21.166v-2.909ZM505.982 305.412c0 10.366-4.781 19.527-16.718 25.379l-1.639-2.709c9.664-4.614 14.479-11.502 15.181-20.062h-13.375v-2.608h16.551Zm10.567-3.912v35.978h-3.344V301.5h3.344ZM556.539 321.258v2.709h-32.634v-2.709h14.679v-3.745h-10.466v-8.794h20.998v-3.644h-21.098V302.5h24.342v8.727h-20.999v3.879h21.768v2.574h-11.235v3.745l14.645-.167Zm-28.99 5.484h25.011v10.399h-3.343v-7.724h-21.734l.066-2.675ZM572.99 307.284h8.86v2.642h-21.199v-2.642h9.062v-5.35h3.344l-.067 5.35Zm7.189 13.91a8.766 8.766 0 0 1-5.064 8.416 8.76 8.76 0 1 1-3.73-16.708 8.16 8.16 0 0 1 8.794 8.292Zm-3.143 0a5.654 5.654 0 0 0-6.691-5.654 5.643 5.643 0 0 0-4.494 4.414 5.652 5.652 0 0 0 5.534 6.791 5.422 5.422 0 0 0 5.257-3.381 5.41 5.41 0 0 0 .394-2.17Zm17.42-2.14h-5.885v18.424h-3.343v-35.945h3.343v14.779h6.052l-.167 2.742ZM616.726 305.412c0 10.366-4.781 19.527-16.718 25.379l-1.773-2.709c9.664-4.614 14.479-11.502 15.181-20.062h-13.542v-2.608h16.852Zm10.566-3.912v35.978h-3.344V301.5h3.344ZM266.941 370.348c-3.418.599-6.868 1-10.332 1.203v12.941h-3.344v-12.74c-3.577.167-6.988.201-10.031.201l-.468-2.776c7.923.147 15.846-.277 23.707-1.27l.468 2.441Zm-21.299-11.603c0-4.414 3.812-7.39 9.161-7.39 5.35 0 9.162 2.976 9.162 7.39s-3.711 7.39-9.128 7.39-9.162-3.01-9.162-7.39h-.033Zm3.143 0c0 2.809 2.508 4.715 6.018 4.715 3.511 0 5.986-1.906 5.986-4.715s-2.475-4.681-5.986-4.681c-3.51 0-5.985 1.906-5.985 4.681h-.033Zm23.774-9.061v35.978h-3.344v-35.978h3.344ZM301.315 356.702h-21.233v-2.642h8.961v-4.414h3.344v4.414h8.994l-.066 2.642Zm-10.633 15.247c-5.083 0-8.594-2.675-8.594-6.687 0-4.013 3.344-6.688 8.594-6.688 5.249 0 8.626 2.642 8.626 6.688 0 4.045-3.544 6.687-8.626 6.687Zm0-2.575c3.343 0 5.483-1.605 5.483-4.146s-2.24-4.079-5.483-4.079c-3.244 0-5.451 1.605-5.451 4.079 0 2.474 2.207 4.28 5.451 4.28v-.134Zm-1.873 12.64h20.698v2.675h-24.008v-10.165h3.344l-.034 7.49Zm24.376-20.631v2.775h-5.283v12.472h-3.344v-26.984h3.344v11.871l5.283-.134ZM347.19 369.144a15.06 15.06 0 0 1-5.102-3.176 15.059 15.059 0 0 1-3.457-4.916 15.164 15.164 0 0 1-3.447 5.527 15.133 15.133 0 0 1-5.448 3.568l-1.738-2.608a13.144 13.144 0 0 0 8.894-12.305v-3.745h3.344v3.979a12.165 12.165 0 0 0 8.693 11.101l-1.739 2.575Zm9.262 10.031c0 4.18-4.514 6.687-11.803 6.687-7.289 0-11.87-2.374-11.87-6.687 0-4.313 4.514-6.687 11.87-6.687 7.356 0 11.77 2.34 11.77 6.553l.033.134Zm-3.343 0c0-2.508-3.344-4.012-8.527-4.012-5.182 0-8.593 1.504-8.593 4.012 0 2.508 3.344 3.979 8.593 3.979 5.25 0 8.56-1.605 8.56-4.113l-.033.134Zm8.225-20.062v2.742h-5.283v9.797h-3.343v-21.968h3.343v9.262l5.283.167ZM385.408 369.712a15.2 15.2 0 0 1-9.028-8.058 15.421 15.421 0 0 1-9.129 8.961l-1.738-2.608a12.842 12.842 0 0 0 9.061-11.803v-.97h-8.159v-2.708h19.728v2.708h-8.158v1.037a12.17 12.17 0 0 0 9.028 10.9l-1.605 2.541Zm9.262 9.296c0 4.28-4.615 6.687-12.071 6.687-7.456 0-12.071-2.474-12.071-6.687s4.615-6.688 12.071-6.688c7.456 0 12.071 2.408 12.071 6.688Zm-3.344 0c0-2.675-3.344-4.18-8.794-4.18-5.45 0-8.593 1.505-8.593 4.18s3.344 4.18 8.827 4.18c5.484 0 8.627-1.539 8.627-4.18h-.067Zm3.344-7.624h-3.344v-21.7h3.344v21.7ZM423.66 360.714a16.313 16.313 0 0 0 7.724 14.278l-1.873 2.508a16.951 16.951 0 0 1-7.389-10.032 17.521 17.521 0 0 1-7.29 10.7l-1.939-2.441a17.687 17.687 0 0 0 7.624-15.08v-1.705h-6.688V356.2h6.688v-5.249h3.343v5.316h6.688v2.742h-6.688l-.2 1.705Zm9.697-10.232h3.143v33.437h-3.143v-17.353h-5.484v-2.709h5.484v-13.375Zm10.398-.836v35.945h-3.176v-35.945h3.176ZM470.305 350.616h3.143v33.17h-3.143v-12.439h-6.487v-2.742h6.487v-6.353h-5.918a25.968 25.968 0 0 1-4.659 8.992 25.965 25.965 0 0 1-7.746 6.523l-1.906-2.307a23.044 23.044 0 0 0 12.137-18.558h-10.532v-2.675h13.776a33.081 33.081 0 0 1-.468 5.451h5.316v-9.062Zm10.366-.97v35.945h-3.077v-35.945h3.077ZM506.618 364.961c0 7.657-3.812 12.572-9.129 12.572-5.316 0-9.161-4.915-9.161-12.572 0-7.657 3.811-12.539 9.161-12.539s9.129 4.882 9.129 12.539Zm-15.147 0c0 5.851 2.474 9.63 6.018 9.63 3.545 0 5.986-3.779 5.986-9.63 0-5.852-2.475-9.563-5.818-9.563-3.344 0-6.186 3.745-6.186 9.563Zm24.977-15.315v36.046h-3.343v-36.046h3.343ZM528.753 373.922a89.069 89.069 0 0 0 16.184-1.204l.367 2.708a83.012 83.012 0 0 1-16.986 1.304h-2.875v-23.639h16.718v2.741h-13.374l-.034 18.09Zm28.789-7.356h-5.951v19.126h-3.344v-36.046h3.344v14.211h5.951v2.709ZM1670.17 459.194a42.143 42.143 0 0 1-9.41 15.617 36.983 36.983 0 0 0 15.81 7.728c-.82.827-1.52 1.767-2.08 2.792a37.167 37.167 0 0 1-16.23-8.344 45.08 45.08 0 0 1-15.82 8.377 12.32 12.32 0 0 0-1.85-2.76 42.244 42.244 0 0 0 15.46-7.695 44.466 44.466 0 0 1-9.26-15.715h-5.71v-2.825h15.85v-6.494h2.92v6.494h16.23v2.825h-5.91Zm-20.03 0a37.604 37.604 0 0 0 8.38 13.604 36.42 36.42 0 0 0 8.31-13.604h-16.69ZM1675.3 512.383h-15.13v8.344c0 1.721-.48 2.566-1.85 3.02-2.13.46-4.32.623-6.49.487-.32-1.001-.76-1.96-1.3-2.857h5.81c.65 0 .91-.195.91-.714v-8.313h-15.1v-2.759h15.1v-2.89h1.43a30.602 30.602 0 0 0 5.52-4.124h-15.78v-2.695h19.09l1.88 1.429a37.032 37.032 0 0 1-9.09 7.208v1.201h15.13l-.13 2.663Zm-30.1-10.325h-2.82v-9.059h14.68v-4.286h2.98v4.286h14.78v9.059h-2.99v-6.494h-26.63v6.494ZM1649.26 529.719c-.28.828-.51 1.674-.68 2.533a100.822 100.822 0 0 0-1.88 15.39c-.03 1.762.1 3.522.39 5.26.58-1.753 1.46-3.994 2.14-5.584l1.65 1.298c-1.08 2.746-2 5.554-2.76 8.41a8.294 8.294 0 0 0-.19 1.721v1.298l-2.73.195a45.726 45.726 0 0 1-1.46-12.046c.22-5.39.79-10.759 1.72-16.072.18-.899.28-1.812.29-2.727l3.51.324Zm18.83-.26c0 .715-.19 1.494-.22 2.273-.04.78 0 2.825 0 4.611 2.18-.187 4.34-.491 6.49-.909v3.019c-2.15.361-4.32.599-6.49.715 0 3.864.29 7.662.45 10.877a24.41 24.41 0 0 1 7.57 4.87l-1.69 2.598a31.876 31.876 0 0 0-5.75-4.383v.746c0 3.247-1.49 6.169-6.49 6.169S1654 558 1654 554.558s2.89-5.747 7.86-5.747c1.19-.018 2.38.102 3.54.357 0-2.922-.33-6.688-.39-9.74h-3.64c-2.21 0-4.19-.001-6.49-.293v-2.922c2.14.195 4.15.292 6.49.292h3.57v-4.708c0-.783-.06-1.565-.19-2.338h3.34Zm-6.91 27.762c3.24 0 4.12-1.559 4.12-4.124v-1.331a12.486 12.486 0 0 0-3.86-.585c-2.89 0-4.84 1.234-4.84 3.085s1.85 2.89 4.58 2.89v.065ZM1676.05 572.098v2.533h-34.61v-2.533h34.61Zm-29.22 16.007h23.47v11.981h-2.89v-1.526h-17.69v1.656h-2.83l-.06-12.111Zm22.92-8.215h-22.5v-2.435h22.5v2.435Zm-22.5 2.825h22.5v2.371h-22.5v-2.371Zm21.95-13.474h-21.27v-2.403h21.33l-.06 2.403Zm-19.48 21.299v5.585h17.69v-5.585h-17.69ZM1640.75 610.178h14.06v2.37h-14.06v-2.37Zm12.99 27.241h-8.6v1.754h-2.53v-12.988h11.13v11.234Zm0-19.481h-10.91v-2.305h10.91v2.305Zm-10.91 2.987h10.91v2.305h-10.91v-2.305Zm10.85-13.507h-10.62v-2.338h10.62v2.338Zm-8.41 21.17v6.494h5.91v-6.494h-5.91Zm31.46-8.767v2.598h-21.53v-2.598h5.07c.36-1.623.75-3.604 1.1-5.617h-4.41v-2.5h4.8c.23-1.364.42-2.728.62-4.026h-6.01v-2.533h19.13v2.533h-10.3c-.19 1.298-.42 2.662-.65 4.026h8.77v8.117h3.41Zm-19.06 5.52h16.24v13.702h-2.8v-1.624h-10.84v1.786h-2.6v-13.864Zm2.7 2.565v6.883h10.84v-6.883h-10.84Zm3.41-13.767c-.36 2.045-.72 3.994-1.08 5.617h7.5v-5.617h-6.42ZM1657.67 643.749c-.29 1.48-.65 2.944-1.1 4.383 3.88-.165 7.75-.555 11.59-1.169v2.858c-4.19.57-8.41.917-12.63 1.039a31.59 31.59 0 0 1-3.51 5.909 11.492 11.492 0 0 1 5.29-1.396 4.88 4.88 0 0 1 3.16.802c.92.62 1.61 1.541 1.94 2.607 2.66-1.234 4.97-2.143 6.92-3.084 1.17-.52 2.08-.942 3.24-1.494l1.27 2.922c-1.01.293-2.34.78-3.25 1.202-2.14.844-4.87 1.915-7.76 3.247v7.305h-2.95v-5.942c-3.61 1.883-6.04 3.864-6.04 6.494s2.95 3.442 6.88 3.442a66.9 66.9 0 0 0 10.43-.942v3.247c-3.47.406-6.97.623-10.46.649-5.52 0-9.74-1.201-9.74-5.811 0-4.611 4.55-7.436 8.99-9.741a3.228 3.228 0 0 0-1.31-1.804 3.229 3.229 0 0 0-2.16-.534 10.045 10.045 0 0 0-6.49 2.825 47.32 47.32 0 0 0-3.48 3.994l-2.69-1.949a39.304 39.304 0 0 0 8.86-11.656h-1.66c-1.62 0-4.15 0-6.26-.195v-2.922c2.15.263 4.32.404 6.49.422h2.5c.46-1.659.69-3.375.68-5.098l3.25.39ZM1640.75 686.348h15.36v2.37h-15.36v-2.37Zm13.8 26.884h-9.41v1.786h-2.57V702.03h11.85l.13 11.202Zm-11.94-21.624h12.07v2.305h-12.07v-2.305Zm0 5.162h12.07v2.338h-12.07v-2.338Zm12.2-13.182h-12.01v-2.338h12.01v2.338Zm-9.74 20.748v6.493h6.82v-6.493h-6.82Zm25.98 7.954c2.11 0 2.4-1.006 2.63-6.493.83.564 1.75.972 2.73 1.201-.43 6.234-1.3 7.955-5.17 7.955h-7.79c-4.03 0-5.23-.877-5.23-4.546v-15.78h13.25v-9.74h-13.67v-2.728h16.56v17.469h-2.89v-2.143h-10.23v12.987c0 1.526.39 1.818 2.54 1.818h7.27ZM1663.68 746.354a158.914 158.914 0 0 1-7.41 5.422l-.87-1.526c-4.9 1.104-9.97 2.143-13.77 2.987l-.58-2.662 6.49-1.169v-11.884h-6.1v-2.532h6.07v-3.962h-4.03v-1.753c-.49.52-1.04 1.007-1.59 1.526a9.34 9.34 0 0 0-1.79-1.818 27.856 27.856 0 0 0 7.28-10.001h2.6c2.39 2.1 4.57 4.439 6.49 6.981l-1.92 2.143a43.97 43.97 0 0 0-5.48-6.494 37.43 37.43 0 0 1-4.91 6.884h10.26v2.5h-4.48v4.124h5.56v2.532h-5.56v11.299l5.36-1.104v1.234c1.98-1.234 4.68-3.052 7.31-4.838l1.07 2.111Zm-19.48-6.689a29.928 29.928 0 0 1 1.55 7.306l-2.14.552c-.16-2.505-.63-4.98-1.39-7.371l1.98-.487Zm7.14 6.656a67.212 67.212 0 0 0 1.59-7.013l2.24.585c-.62 2.37-1.33 5.13-1.92 6.915l-1.91-.487Zm15.71-10.942a21.82 21.82 0 0 0 3.54 8.239 21.744 21.744 0 0 0 6.56 6.113c-.72.698-1.35 1.483-1.88 2.337a21.77 21.77 0 0 1-8.09-10v9.351c0 1.364-.26 2.143-1.2 2.565-1.45.417-2.97.56-4.48.422a10.26 10.26 0 0 0-.81-2.532h3.25c.45 0 .52 0 .52-.585v-16.884h-8.74v-2.532h14.94v-3.247h-12.05v-2.338h12.05v-3.247h-12.99v-2.468h15.46V732.1h3.24v2.533h-9.28l-.04.746Zm-6.49 7.663a23.914 23.914 0 0 0-4.16-5.292l1.95-1.234a22.263 22.263 0 0 1 4.32 5.13l-2.11 1.396Zm8.6-1.721a37.77 37.77 0 0 0 4.55-5.487l2.24 1.396a46.403 46.403 0 0 1-4.97 5.39l-1.82-1.299ZM1663.22 758.529c0 .422 0 1.916-.19 2.403-.2.487 0 1.461 0 2.468h11.72v2.889c-2.18 0-5.58-.162-11.2-.162h-.52v6.234a9.757 9.757 0 0 1 1.2 4.903c0 5.13-2.53 10.91-11.43 13.54l-2.56-2.533c2.06-.226 4.05-.93 5.8-2.057a13.467 13.467 0 0 0 4.26-4.437 5.257 5.257 0 0 1-3.25.974 6.125 6.125 0 0 1-4.55-1.873 6.068 6.068 0 0 1-1.34-2.131 6.039 6.039 0 0 1-.37-2.49 6.668 6.668 0 0 1 2.04-4.615 6.663 6.663 0 0 1 4.68-1.878c.86-.006 1.72.137 2.53.422v-3.767c-5.78 0-12.3.293-17.04.617v-2.987c4.22 0 11.39-.325 17.07-.39v-2.5c-.05-.805-.15-1.607-.29-2.402l3.44-.228Zm-5.55 21.397c2.24 0 3.7-1.72 3.25-5.292a3.255 3.255 0 0 0-3.25-2.468 3.801 3.801 0 0 0-3.6 2.473 3.753 3.753 0 0 0-.23 1.521c-.02.507.06 1.012.24 1.485.19.472.47.899.83 1.255.36.355.8.631 1.27.808.48.176.99.251 1.49.218ZM1651.18 796.682c2.01 0 11.1-.292 12.99-.487.7-.018 1.4-.138 2.07-.357l1.76 2.305c-.69.487-1.46.974-2.15 1.526-1.88 1.461-7.11 5.91-10.06 8.377a16.84 16.84 0 0 1 5.29-.876c6.49 0 10.91 3.863 10.91 8.994 0 6.169-5.06 10.227-13.15 10.227-5.23 0-8.38-2.305-8.38-5.454.05-.718.24-1.418.57-2.06.32-.642.77-1.213 1.32-1.679a5.366 5.366 0 0 1 1.87-1.034c.68-.217 1.4-.294 2.12-.228a7.485 7.485 0 0 1 5.28 1.802 7.48 7.48 0 0 1 2.58 4.952 6.684 6.684 0 0 0 3.43-2.463 6.706 6.706 0 0 0 1.28-4.031c0-3.734-3.58-6.494-8.61-6.494-6.3 0-9.74 2.695-14.54 7.598l-2.28-2.273 10.26-8.507c2.15-1.818 6.89-5.747 8.83-7.435l-11.55.487c-.88 0-1.73 0-2.6.227v-3.247c.91.091 1.84.135 2.76.13Zm7.3 26.917c1.03.011 2.05-.065 3.06-.227a5.133 5.133 0 0 0-1.5-3.584 5.115 5.115 0 0 0-3.57-1.514 2.78 2.78 0 0 0-2.14.484c-.3.222-.56.504-.75.828-.19.324-.31.685-.36 1.058.2 1.883 2.28 2.955 5.3 2.955h-.04ZM1655.56 834.474c-.16.812-.36 1.786-.58 2.825 2.45-.295 4.88-.751 7.27-1.363v3.052a75.794 75.794 0 0 1-7.89 1.331 326.17 326.17 0 0 1-1.23 5.033 112.423 112.423 0 0 1-5.98 17.5l-3.41-1.168a81.89 81.89 0 0 0 6.5-17.047c.35-1.266.68-2.695.97-4.058H1643.32v-3.02c1.52.216 3.05.313 4.58.292h4.06c.26-1.396.45-2.565.58-3.247.15-1.075.2-2.162.16-3.247l3.67.293c-.39.617-.68 2.11-.81 2.824Zm4.48 21.333c0 1.785.98 3.539 6.5 3.539 2.5-.026 5-.287 7.46-.779v3.246a52.92 52.92 0 0 1-7.4.552c-6.01 0-9.35-1.915-9.35-5.682.04-1.512.24-3.014.62-4.48l2.89.259a12.788 12.788 0 0 0-.72 3.345Zm6.69-12.988c2.17-.022 4.34.087 6.49.325v2.922a49.095 49.095 0 0 0-6.49-.455c-2.36 0-4.73.13-7.08.39v-2.857c2.11-.26 4.68-.39 7.08-.39v.065ZM1618.35 451.537c-.23.941-.52 2.272-.65 2.987-.13.714-.39 1.688-.65 2.597 2.94.402 5.63 1.886 7.53 4.162 1.9 2.276 2.89 5.18 2.77 8.144 0 7.565-5.46 12.208-13.64 13.345l-1.79-2.76c7.99-.714 12.37-4.838 12.37-10.715a9.288 9.288 0 0 0-2.13-6.29 9.272 9.272 0 0 0-5.79-3.256 51.268 51.268 0 0 1-5.58 12.988c.71.945 1.49 1.835 2.33 2.662l-2.43 1.981a23.289 23.289 0 0 1-1.82-2.175 10.356 10.356 0 0 1-3.22 3.241 10.39 10.39 0 0 1-4.31 1.532c-2.89 0-5.29-2.468-5.29-6.916.08-2.275.65-4.505 1.66-6.542a16.145 16.145 0 0 1 4.21-5.277c-.42-1.169-.81-2.37-1.17-3.507a28.583 28.583 0 0 0-1.26-3.474l3.24-1.007c.2 1.007.49 2.306.78 3.247.3.942.56 1.884.88 2.923a20.36 20.36 0 0 1 9.74-2.695c.26-.895.45-1.806.59-2.728.15-.966.24-1.943.25-2.922l3.38.455Zm-16.72 25.358c1.92 0 3.9-1.883 5.58-4.124-.32-.422-.58-.941-.9-1.461a45.852 45.852 0 0 1-3.41-7.305 12.94 12.94 0 0 0-4.09 8.831c0 2.533 1.13 4.059 2.82 4.059Zm7.34-6.786c1.9-3.324 3.4-6.867 4.45-10.553a16.37 16.37 0 0 0-8.15 2.663 52.815 52.815 0 0 0 2.95 6.689l.75 1.201ZM1602.93 489.587c-.23.65-.55 1.883-.72 2.598a93.711 93.711 0 0 0-1.88 14.643c-.02 1.759.09 3.517.33 5.26.68-1.721 1.55-3.993 2.2-5.552l1.63 1.266a85.208 85.208 0 0 0-2.73 8.54c0 .552-.2 1.266-.2 1.721v1.331l-2.79.195a49.279 49.279 0 0 1-1.43-12.274c.23-5.131.8-10.24 1.72-15.293 0-.909.26-1.883.26-2.727l3.61.292Zm8.76 18.508a13.026 13.026 0 0 0-.58 3.506c0 1.754 1.23 3.247 6.49 3.247 3.17.045 6.33-.282 9.42-.974v3.247c-3.15.585-6.35.846-9.55.779-6.49 0-9.28-2.143-9.28-5.714.03-1.513.24-3.016.61-4.481l2.89.39Zm-1.52-15.586c5.21.617 10.47.617 15.68 0v3.247c-5.22.471-10.46.471-15.68 0v-3.247ZM1606.31 525.495a57.66 57.66 0 0 1-3.84 8.312v26.138h-2.89v-21.657a36.427 36.427 0 0 1-3.86 4.643 13.523 13.523 0 0 0-1.66-2.89 43.132 43.132 0 0 0 9.75-15.455l2.5.909Zm11.39 8.215v5.552h11.07v2.695h-11.07v5.877h11.63v2.727h-11.63v9.416h-2.92V533.71h-2.56a42.901 42.901 0 0 1-5.56 8.085c-.7-.697-1.45-1.348-2.24-1.949a40.983 40.983 0 0 0 8.57-14.903l2.76.747c-.61 1.786-1.36 3.539-2.14 5.26h16.24v2.76h-12.15ZM1603.12 582.224a18.13 18.13 0 0 1 12.34-4.74c5.88 0 9.74 3.571 9.74 8.02 0 6.818-6.07 11.494-20.26 10.292l-.91-3.247c12.05 1.429 17.92-1.98 17.92-7.24 0-2.987-2.82-5.195-6.72-5.195-2.22-.086-4.44.33-6.49 1.218a14.735 14.735 0 0 0-5.32 3.912 6.107 6.107 0 0 0-1.14 1.883l-2.86-.682c.92-5.114 1.57-10.273 1.95-15.455l3.25.39c-.39 2.694-1.08 8.344-1.5 10.844Zm17.21-14.773-.75 2.954c-3.6-.487-11.91-2.175-14.77-2.954l.78-2.955c4.84 1.324 9.77 2.311 14.74 2.955ZM1603.74 600.535h3.64c-.2.942-.49 3.085-.75 5.78h.19l1.08 1.331c-.46.714-1.11 1.721-1.66 2.662l-.19 2.208c2.98-2.792 7.89-6.494 11.75-6.494a4.835 4.835 0 0 1 2.1.23c.67.231 1.28.609 1.79 1.106.51.497.91 1.101 1.15 1.769.25.667.35 1.381.28 2.091 0 3.798-1.42 10.357-1.42 14.253 0 1.267.61 2.273 1.98 2.273a8.297 8.297 0 0 0 3.22-1.025 8.28 8.28 0 0 0 2.56-2.222l.48 3.247a9.634 9.634 0 0 1-3.17 2.349c-1.2.558-2.51.864-3.84.898-2.57 0-4.25-1.688-4.25-4.805 0-4.254 1.42-10.52 1.42-14.222.08-.426.06-.866-.06-1.283a2.708 2.708 0 0 0-.64-1.115 2.694 2.694 0 0 0-1.07-.706 2.789 2.789 0 0 0-1.28-.143c-3.24 0-7.73 3.572-11.23 7.371v4.416c0 3.506 0 5.844.16 9.253 0 .65 0 1.591.2 2.306h-3.25v-13.378c-1.85 2.76-4.39 6.494-6.24 8.929l-1.94-2.63c2.14-2.662 6.49-8.604 8.5-11.624 0-1.233 0-2.467.23-3.733l-7.5 1.266-.29-3.247h2.5c.94 0 3.47-.325 5.45-.617 0-1.818.2-3.247.2-3.637.05-.953.01-1.909-.1-2.857ZM1608.97 640.637c0 .812-.36 1.786-.59 2.825 2.46-.295 4.88-.751 7.28-1.364v3.052a75.53 75.53 0 0 1-7.89 1.331c-.39 1.656-.78 3.247-1.24 5.033-1.5 5.989-3.5 11.843-5.97 17.501l-3.44-1.169a80.519 80.519 0 0 0 6.49-17.046c.36-1.266.68-2.695.97-4.059h-3.44c-1.69 0-3.24 0-4.45-.162v-3.02c1.53.215 3.07.313 4.62.292 1.23 0 2.59 0 4.05-.162.26-1.396.46-2.565.59-3.247.09-1.08.09-2.166 0-3.247l3.67.293c-.39.941-.65 2.435-.65 3.149Zm4.48 21.332c0 1.786.97 3.539 6.49 3.539 2.51-.026 5.01-.287 7.47-.779v3.247c-2.45.356-4.92.541-7.4.552-6.01 0-9.35-1.916-9.35-5.682.03-1.512.24-3.015.61-4.481l2.89.26a12.897 12.897 0 0 0-.87 3.344h.16Zm6.69-12.987c2.17-.006 4.33.102 6.49.324v2.922a55.861 55.861 0 0 0-6.49-.454c-2.37-.001-4.73.129-7.08.39v-2.858c1.95-.259 4.51-.389 6.92-.389l.16.065ZM1594 679.888h15.36v2.371H1594v-2.371Zm13.8 26.885h-9.42v1.786h-2.4v-12.988h11.98l-.16 11.202Zm-11.82-21.625h12.05v2.306h-12.05v-2.306Zm0 5.131h12.05v2.337h-12.05v-2.337Zm12.21-12.988h-12.21v-2.338h12.01l.2 2.338Zm-9.74 20.748v6.493h6.82v-6.493h-6.82Zm25.97 7.955c2.11 0 2.41-1.007 2.63-6.494.83.564 1.76.972 2.73 1.201-.42 6.234-1.3 7.955-5.16 7.955h-7.79c-4.03 0-5.23-.909-5.23-4.546v-15.78h13.25v-9.74h-13.67v-2.728h16.56v17.501h-2.89v-2.143h-10.36v12.988c0 1.493.39 1.818 2.53 1.818l7.4-.032ZM1606.01 731.031l-1.17 3.442h19.49v1.364c-.98 6.786-1.92 9.741-3.25 11.104a4.742 4.742 0 0 1-3.25 1.072h-6.49a5 5 0 0 0-.98-2.728c2.76.228 5.56.26 6.5.26.64.084 1.29-.041 1.85-.357 1.04-.812 1.82-3.247 2.6-7.89h-17.15l-1.04 2.662-3.24-.519c.94-2.143 2.11-5.39 3.02-8.28h-8.41v-2.597h34.84v2.597l-23.32-.13Zm18.35-5.617h-24.61v-11.396h24.61v11.396Zm-2.92-8.766h-18.97v6.169h18.87l.1-6.169ZM1598.84 756.483c2.47-.26 10.36-1.039 16.72-1.591 4.16-.358 7.95-.585 10.49-.65v3.247c-2.57-.091-5.14.105-7.67.585a13.676 13.676 0 0 0-6.24 4.628 13.607 13.607 0 0 0-2.72 7.288c0 7.468 7.18 9.74 13.38 10l-1.1 3.247c-7.08-.292-15.39-4.058-15.39-12.63.06-2.605.76-5.155 2.05-7.421a15.685 15.685 0 0 1 5.32-5.567c-4.13.422-13.8 1.429-17.93 2.305l-.32-3.247c1.46-.032 2.63-.097 3.41-.194Zm24.84 10.844-1.98.877a41.86 41.86 0 0 0-3.25-5.39l1.91-.812a44.599 44.599 0 0 1 3.32 5.325Zm4.28-1.688-1.95.941c-.91-1.87-2-3.652-3.24-5.324l1.88-.877a49.32 49.32 0 0 1 3.31 5.26ZM1610.79 787.332c-.2.552-.3 1.168-.43 1.655-.13.488-.26 1.786-.42 2.923 4.48-.163 8.93-.706 13.31-1.624v2.793c-4.52.731-9.09 1.219-13.67 1.461-.19 1.461-.29 3.084-.42 4.74a24.16 24.16 0 0 1 6.5-.974h1.36c.01-.141.01-.281 0-.422.22-.706.37-1.436.42-2.175l3.05.779c-.22.487-.58 1.526-.78 2.143a9.377 9.377 0 0 1 5.44 3.133 9.405 9.405 0 0 1 2.23 5.861c0 5.487-3.64 10.26-12.5 11.656l-1.63-2.565c6.89-.779 11.14-4.318 11.14-9.254a6.719 6.719 0 0 0-5.55-6.493c-1.72 4.756-4.61 9-8.41 12.338.29 1.039.58 2.045.94 3.247l-2.89.811c-.19-.681-.42-1.331-.62-2.078a12.525 12.525 0 0 1-6.49 2.078 4.26 4.26 0 0 1-1.83-.305 4.227 4.227 0 0 1-1.53-1.052 4.198 4.198 0 0 1-.94-1.6 4.138 4.138 0 0 1-.18-1.848 15.258 15.258 0 0 1 9.48-12.338c0-1.948.23-3.897.42-5.682h-2.3c-1.63 0-4.61-.163-6.17-.26v-2.857c2.15.297 4.32.47 6.49.519h2.47c0-1.136.29-2.143.36-2.987.06-.605.06-1.214 0-1.818l3.15.195Zm-4.42 15.812a11.733 11.733 0 0 0-6.49 8.961c0 1.527.74 2.403 2.17 2.403a9.945 9.945 0 0 0 5.23-1.98 45.268 45.268 0 0 1-.85-8.767l-.06-.617Zm2.73.195c-.01 2.394.2 4.785.61 7.143a25.346 25.346 0 0 0 6.5-9.741h-.75c-2.21.012-4.41.397-6.49 1.137l.13 1.461ZM1604.45 826.682c2.02 0 11.11-.292 12.99-.487a7.285 7.285 0 0 0 2.08-.357l1.75 2.305c-.68.487-1.46.974-2.14 1.526-1.88 1.494-7.11 5.91-10.07 8.377a16.95 16.95 0 0 1 5.3-.876c6.49 0 10.91 3.863 10.91 9.026 0 6.137-5.07 10.195-12.99 10.195-5.23 0-8.38-2.305-8.38-5.454.05-.718.24-1.418.57-2.06.32-.642.77-1.213 1.32-1.679a5.278 5.278 0 0 1 1.87-1.034c.68-.217 1.4-.294 2.12-.228a7.485 7.485 0 0 1 5.28 1.802 7.525 7.525 0 0 1 2.58 4.952 6.684 6.684 0 0 0 3.43-2.463 6.63 6.63 0 0 0 1.27-4.031c0-3.766-3.57-6.494-8.6-6.494-6.3 0-9.74 2.695-14.55 7.598l-2.27-2.273 10.26-8.507c2.11-1.786 6.88-5.747 8.83-7.435l-11.56.487c-.87 0-1.72 0-2.59.227v-3.247c.86.086 1.73.129 2.59.13Zm7.31 26.949c1.02.002 2.04-.085 3.05-.259a5.133 5.133 0 0 0-5.06-5.098 2.772 2.772 0 0 0-3.09 2.37c0 1.884 2.08 2.987 5.1 2.987ZM1404.38 310.91a41.264 41.264 0 0 1-9.41 15.618c4.58 3.802 10 6.452 15.81 7.728-.82.827-1.52 1.767-2.08 2.792a37.562 37.562 0 0 1-16.07-8.312 45.499 45.499 0 0 1-15.81 8.345 12.22 12.22 0 0 0-1.82-2.76 42.94 42.94 0 0 0 15.46-7.695 44.205 44.205 0 0 1-9.29-15.716h-5.72v-2.824h15.85v-6.494h2.92v6.494h16.24v2.824h-6.08Zm-20 0a37.165 37.165 0 0 0 8.35 13.605 36.022 36.022 0 0 0 8.31-13.605h-16.66ZM1448.48 325.131h-15.13v8.345c0 1.721-.49 2.565-1.85 3.02-2.14.462-4.32.626-6.5.487-.34-.997-.79-1.954-1.33-2.858h5.85c.68 0 .87-.227.87-.746v-8.313h-15.1v-2.759h15.1v-2.89h1.46a28.844 28.844 0 0 0 5.49-4.124h-15.78v-2.695h19.09l1.89 1.429a35.149 35.149 0 0 1-9.1 7.208v1.201h15.14l-.1 2.695Zm-30.1-10.325h-2.83v-9.059h14.68v-4.351h2.99v4.286h14.77v9.059h-2.95v-6.494h-26.66v6.559ZM1460.56 306.984a96.628 96.628 0 0 0-1.95 15.715c-.02 1.804.11 3.607.39 5.39.61-1.753 1.56-4.123 2.2-5.714l1.6 1.233c-.95 2.728-2.37 6.722-2.76 8.637a6.646 6.646 0 0 0-.17 1.721c-.03.454-.03.91 0 1.364l-2.72.195a46.864 46.864 0 0 1-1.5-12.306c.22-5.446.82-10.871 1.79-16.235.14-.924.21-1.857.23-2.792l3.44.292c-.24.82-.43 1.655-.55 2.5Zm19.64-.519v4.708a65.02 65.02 0 0 0 6.72-.909v2.987c-2.14.357-4.38.584-6.72.747 0 3.928.29 7.825.45 11.104a25.52 25.52 0 0 1 7.73 5.033l-1.72 2.597a32.457 32.457 0 0 0-5.88-4.513v.812c0 3.247-1.49 6.266-6.75 6.266s-8.08-2.045-8.08-5.552c0-3.507 2.92-5.877 8.02-5.877 1.2-.012 2.41.097 3.6.325 0-2.987-.33-6.786-.39-10.001h-3.73c-2.21 0-4.26 0-6.5-.292v-2.922c2.21.195 4.29.325 6.5.325h3.63v-7.176h3.51c-.18.77-.31 1.551-.39 2.338Zm-6.82 25.975c3.25 0 4.25-1.688 4.25-4.253v-1.364c-1.28-.41-2.61-.618-3.96-.617-2.92 0-5 1.234-5 3.247s1.92 3.052 4.71 3.052v-.065ZM1527.15 308.899v2.532h-34.64v-2.532h34.64Zm-29.22 16.007h23.47v11.981h-2.95v-1.494h-17.63v1.624h-2.86l-.03-12.111Zm22.92-8.215h-22.5v-2.305h22.5v2.305Zm-22.5 2.858h22.5v2.37h-22.5v-2.37Zm21.98-13.475h-21.36v-2.435h21.33l.03 2.435Zm-19.48 21.3v5.552h17.66v-5.552h-17.66ZM1530.85 308.054h14.03v2.37h-14.03v-2.37Zm12.99 27.209h-8.64v1.753h-2.53v-12.987h11.17v11.234Zm-.16-19.481h-10.91v-2.306h10.91v2.306Zm-10.91 2.987h10.91v2.305h-10.91v-2.305Zm10.87-13.507H1533v-2.338h10.64v2.338Zm-8.44 21.202v6.494h6.11v-6.494h-6.11Zm31.5-8.767v2.565h-21.56v-2.63h5.06c.36-1.656.75-3.636 1.11-5.649h-4.42v-2.5h4.81c.22-1.364.42-2.728.61-3.994h-6.04v-2.533h19.13v2.533h-10.26c-.2 1.266-.46 2.63-.68 3.994h8.76v8.149l3.48.065Zm-18.74 5.552h16.24v13.702h-2.79v-1.623h-10.82v1.786h-2.72l.09-13.865Zm2.73 2.566v6.915h10.81v-6.915h-10.81Zm3.25-13.767c-.36 2.045-.72 3.993-1.04 5.649h7.47v-5.649h-6.43ZM1584.49 307.893c3.98-.155 7.95-.567 11.88-1.234v2.89c-4.3.614-8.64.982-12.98 1.104a30.562 30.562 0 0 1-3.51 6.039 11.13 11.13 0 0 1 5.42-1.461 5.061 5.061 0 0 1 5.23 3.507c2.63-1.267 5-2.208 7.05-3.247 1.16-.52 2.07-.942 3.24-1.526l1.3 2.922c-1.18.35-2.34.773-3.47 1.266-2.18.812-4.94 1.948-7.93 3.247v7.468h-2.98v-6.072c-3.61 1.916-6.14 3.961-6.14 6.494 0 3.052 3.02 3.507 7.05 3.507 3.55-.029 7.1-.333 10.61-.909v3.246c-3.54.42-7.11.648-10.68.682-5.55 0-10.03-1.201-10.03-5.942 0-4.74 4.64-7.5 9.19-9.74a3.26 3.26 0 0 0-1.32-1.867 3.245 3.245 0 0 0-2.22-.536c-2.51.093-4.9 1.097-6.72 2.825-1.11 1.071-2.21 2.5-3.54 4.058l-2.63-1.948a41.435 41.435 0 0 0 8.99-11.916h-1.56c-1.69 0-4.25 0-6.49-.227v-2.922c2.15.257 4.32.398 6.49.422h2.57c.53-1.575.86-3.212.97-4.871l3.25.26c-.26 1.513-.6 3.009-1.04 4.481ZM1639.46 321.949a70.82 70.82 0 0 1-8.28 5.618 21.487 21.487 0 0 0 10.49 6.851 9.024 9.024 0 0 0-1.88 2.532 25.191 25.191 0 0 1-10.28-6.913 25.257 25.257 0 0 1-5.73-10.977 34.788 34.788 0 0 1-5.75 4.545v8.832c3.25-.747 6.5-1.559 9.74-2.403l.33 2.598c-6.14 1.623-12.73 3.247-17.37 4.416l-.95-2.63c1.56-.358 3.45-.78 5.46-1.299v-7.76a46.556 46.556 0 0 1-7.83 3.441 16.283 16.283 0 0 0-1.88-2.37 42.985 42.985 0 0 0 14.77-7.565h-13.47v-2.533h15.39v-3.506h-12.21v-2.371h12.21v-3.247h-13.96v-2.565h13.96v-3.247h2.86v3.247h14.19v2.533h-14.19v3.247h12.69v2.37h-12.69v3.507h15.36v2.532h-13.97a26.978 26.978 0 0 0 3.25 6.819 56.619 56.619 0 0 0 7.37-5.52l2.37 1.818ZM1665.21 305.713v2.532h11.98v2.89c-2.17 0-5.71-.195-11.4-.195h-.55v6.494a9.394 9.394 0 0 1 1.24 4.968c0 5.26-2.57 11.104-11.63 13.831l-2.6-2.565c2.15-.241 4.2-.996 6-2.2a13.51 13.51 0 0 0 4.3-4.715 5.35 5.35 0 0 1-3.25 1.071 6.182 6.182 0 0 1-4.68-1.809 6.064 6.064 0 0 1-1.4-2.151 5.937 5.937 0 0 1-.41-2.534c0-.896.17-1.784.52-2.612.34-.827.85-1.578 1.49-2.209a6.705 6.705 0 0 1 2.22-1.467 6.801 6.801 0 0 1 2.62-.498c.89-.002 1.78.14 2.63.422v-3.929c-5.94 0-12.57.293-17.41.65V308.7c4.32 0 11.66-.325 17.44-.39v-2.565c0-.552-.19-2.143-.23-2.468h3.54c-.29.39-.39 1.916-.42 2.436Zm-5.52 19.481c2.27 0 3.77-1.818 3.25-5.52a3.508 3.508 0 0 0-3.48-2.467c-.53.003-1.05.114-1.54.325-.49.211-.93.519-1.3.903-.36.385-.65.84-.84 1.337a4.13 4.13 0 0 0-.25 1.558c0 .531.1 1.057.31 1.544a3.758 3.758 0 0 0 2.28 2.067c.51.163 1.04.216 1.57.156v.097ZM1381.07 356a28.65 28.65 0 0 1-3.63 5.552 22.587 22.587 0 0 0-2.44-1.591 27.63 27.63 0 0 0 5.75-10.26l2.76.682c-.36 1.072-.78 2.111-1.17 3.247h9.74v2.5h-6.04c.71 1.526 1.59 3.247 2.08 4.351l-2.57.909c-.55-1.299-1.52-3.474-2.37-5.26l-2.11-.13Zm5.36 5.942a48.837 48.837 0 0 1-2.7 4.773v18.702h-2.66v-14.871a36.02 36.02 0 0 1-3.76 4.027 20.93 20.93 0 0 0-1.99-2.306c3.53-3.13 6.4-6.926 8.45-11.169l2.66.844Zm23.64 6.332h-5.26v13.377c0 1.883-.46 2.695-1.79 3.247-2.33.51-4.73.685-7.11.519-.19-.973-.52-1.913-.97-2.792h6.1c.78 0 .94-.195.94-.877v-13.377h-15.36v-2.695h15.36v-4.156h2.83v4.156h5.48l-.22 2.598Zm-18.84 2.11c1.66 2.37 3.9 5.585 4.94 7.5l-2.4 1.494c-1.04-2.013-3.25-5.325-4.87-7.76l2.33-1.234ZM1396.2 356c-1 1.934-2.26 3.716-3.76 5.293a22.85 22.85 0 0 0-2.37-1.624 23.092 23.092 0 0 0 5.74-9.968l2.76.65a26.845 26.845 0 0 1-1.17 3.246h12.31v2.501h-7.76a35.771 35.771 0 0 1 2.3 3.669l-2.5 1.039a53.844 53.844 0 0 0-2.85-4.708l-2.7-.098ZM1426.14 368.441c-.39 1.104-.78 2.273-1.17 3.247h19.48v1.363c-.97 6.786-1.91 9.741-3.24 11.105a4.758 4.758 0 0 1-3.25 1.071h-6.5a5.08 5.08 0 0 0-.97-2.727 87.3 87.3 0 0 0 6.49.26c.64.083 1.29-.042 1.85-.357 1.04-.812 1.82-3.247 2.6-7.89h-17.14c-.39.974-.75 1.915-1.07 2.694l-3.05-.551c.9-2.143 2.07-5.39 3.01-8.248h-8.4v-2.467h34.48v2.63l-23.12-.13Zm18.31-5.65h-24.61v-11.396h24.61v11.396Zm-2.89-8.766h-18.86v6.169h18.86v-6.169ZM1456.63 356.583c2.53-.26 9.74-1.007 17.08-1.591 4.22-.357 7.89-.585 10.48-.715v3.247a32.77 32.77 0 0 0-7.63.617 13.772 13.772 0 0 0-6.31 4.842 13.708 13.708 0 0 0-2.58 7.529c0 7.565 7.08 10 13.44 10.228l-1.14 3.247c-7.21-.26-15.42-4.124-15.42-12.793.05-2.596.74-5.138 2.01-7.403a15.871 15.871 0 0 1 5.26-5.585c-4.15.455-14.09 1.396-18.31 2.273l-.32-3.247c1.46-.487 2.72-.584 3.44-.649Zm25.16 11.007-1.98.941a37.726 37.726 0 0 0-3.25-5.487l1.98-.844a48.802 48.802 0 0 1 3.19 5.39h.06Zm4.45-1.656-2.05.974a33.158 33.158 0 0 0-3.24-5.455l1.91-.909a60.224 60.224 0 0 1 3.38 5.39ZM1504.46 353.31c0 .812-.3 1.851-.46 2.955 4.6-.14 9.17-.694 13.67-1.656v2.89c-4.63.745-9.31 1.233-13.99 1.461-.23 1.526-.33 3.247-.46 4.805a23.99 23.99 0 0 1 6.49-.974h1.43v-.389c.23-.739.37-1.502.43-2.273l3.24.779a36.91 36.91 0 0 0-.78 2.24 9.53 9.53 0 0 1 5.48 3.215 9.53 9.53 0 0 1 2.25 5.942c0 5.617-3.7 10.455-12.73 11.883l-1.69-2.597c7.05-.747 11.43-4.384 11.43-9.449a7.003 7.003 0 0 0-1.65-4.3 7.07 7.07 0 0 0-3.96-2.356 32.062 32.062 0 0 1-8.67 12.663c.29 1.136.61 2.175.91 3.247l-2.8.877c-.22-.682-.42-1.397-.61-2.176a13.56 13.56 0 0 1-6.5 2.111 4.351 4.351 0 0 1-1.86-.314 4.378 4.378 0 0 1-1.57-1.072 4.48 4.48 0 0 1-.96-1.632 4.302 4.302 0 0 1-.18-1.885c0-5 4.35-10.098 9.74-12.598 0-1.948.29-3.896.45-5.747h-2.4c-1.66 0-4.71 0-6.3-.292v-2.923c2.15.318 4.32.492 6.49.52h2.63c0-1.137.23-2.143.33-3.02.09-.876 0-1.396 0-1.85h3.24a15.99 15.99 0 0 0-.64 1.915Zm-8.48 25.975a9.746 9.746 0 0 0 5.39-2.045 47.13 47.13 0 0 1-.94-8.864v-.682c-1.77.878-3.3 2.174-4.46 3.774a12.295 12.295 0 0 0-2.2 5.415c-.03 1.591.68 2.402 2.18 2.402h.03Zm7.83-4.091a25.511 25.511 0 0 0 6.49-9.968h-.65c-2.22.031-4.42.46-6.49 1.267v1.591c0 2.383.2 4.762.61 7.11h.04ZM1535.11 353.857c2.01 0 11.3-.325 13.34-.52.71-.023 1.42-.121 2.11-.292l1.79 2.24c-.68.52-1.46 1.039-2.18 1.624-1.95 1.461-7.24 5.974-10.26 8.507 1.74-.569 3.56-.843 5.39-.812 6.5 0 11.11 3.896 11.11 9.156 0 6.267-5.13 10.325-13.41 10.325-5.3 0-8.51-2.305-8.51-5.552.05-.73.25-1.442.58-2.095.34-.652.8-1.232 1.35-1.704a5.513 5.513 0 0 1 4.08-1.266 7.516 7.516 0 0 1 5.36 1.847 7.548 7.548 0 0 1 2.56 5.069 6.858 6.858 0 0 0 3.5-2.448 6.867 6.867 0 0 0 1.37-4.046c0-3.831-3.67-6.721-8.74-6.721-6.49 0-9.96 2.792-14.9 7.793l-2.21-2.306c3.25-2.63 8.22-6.786 10.46-8.701 2.24-1.916 7.04-5.877 9.06-7.631-2.08 0-9.74.422-11.92.552-.87.026-1.74.102-2.6.228v-3.247c.89.057 1.78.057 2.67 0Zm7.4 27.501a23.72 23.72 0 0 0 3.25-.227 5.353 5.353 0 0 0-1.54-3.722 5.341 5.341 0 0 0-3.69-1.603 2.832 2.832 0 0 0-1.13.064c-.37.097-.72.267-1.02.5-.31.233-.56.524-.75.857-.19.332-.3.699-.35 1.079.03 1.883 2.18 3.052 5.23 3.052ZM1122.36 450.393v7.933h-3.08v-5.095h-28.21v5.095h-2.98v-7.933h34.27Zm-10.71 26.16h-23.05v-2.804h23.05v2.804Zm6.84-9.917v1.402c-.96 10.259-1.88 14.192-3.42 15.731a4.403 4.403 0 0 1-3.42 1.299c-2.2.126-4.4.126-6.6 0a6.85 6.85 0 0 0-.99-2.872c2.8.274 5.61.342 6.63.342.34.049.68.029 1-.059.32-.089.62-.243.89-.454 1.19-1.026 2.05-4.514 2.87-12.55h-21.72c1.1-3.899 2.53-10.499 3.42-15.287l3.08.274c-.27 1.402-.62 2.907-.92 4.446h18.16v2.667h-18.74c-.41 1.847-.79 3.42-1.2 5.198l20.96-.137ZM1100.09 516.704c.21.887.48 1.756.83 2.599a53.311 53.311 0 0 0-8.49 6.258c-.39-.964-.91-1.872-1.53-2.702.47-.334.85-.782 1.1-1.302.25-.521.36-1.096.33-1.673v-14.773h-5.64v-2.907h8.51v17.817l4.89-3.317Zm-5.06-17.988a58.329 58.329 0 0 0-6.15-6.463l1.95-1.847a49.433 49.433 0 0 1 6.29 6.122l-2.09 2.188Zm28.83 7.66v2.805h-25.99v-2.805h6.84c.48-1.641.92-3.419 1.37-5.574h-5.2v-2.53h5.81c.38-1.573.65-3.147.89-4.583h-8.24v-2.77h23.19v2.77h-11.83c-.28 1.436-.62 3.01-.96 4.583h7.59l.44-.171 2.16.205c-.17 2.599-.48 5.574-.82 8.207l4.75-.137Zm-22.57 6.156h19.8v14.157h-2.97v-1.47h-13.92v1.573h-2.91v-14.26Zm2.91 2.667v7.353h13.92v-7.182l-13.92-.171Zm4.89-14.397c-.45 2.018-.92 3.933-1.34 5.574h8.38c.24-1.812.45-3.864.62-5.574h-7.66ZM1123.55 536.502v2.668h-36.45v-2.668h18.29a32.795 32.795 0 0 0-3.69-5.3l2.87-.89a24.414 24.414 0 0 1 4.11 5.711l-1.44.479h16.31Zm-30.77 18.501h25.34v12.687h-3.08v-1.607h-19.29v1.71h-2.97v-12.79Zm24.89-9.952h-24.52v-2.564h24.52v2.564Zm-24.52 3.42h24.52v2.531h-24.52v-2.531Zm2.6 9.028v5.848h19.29v-5.848h-19.29ZM1097.94 571.934c-.72 1.983-1.44 4.24-2.16 6.019h6.84v26.605h-11.38v3.249h-2.81v-29.854h4.62a55.977 55.977 0 0 0 1.64-6.635l3.25.616Zm1.88 8.754h-8.62v8.584h8.62v-8.584Zm0 21.134v-9.849h-8.62v9.849h8.62Zm22.84-22.433c-.65 18.706-1.19 25.032-2.83 27.016a4.02 4.02 0 0 1-1.43 1.215c-.56.286-1.19.432-1.82.426-2.02.153-4.04.153-6.06 0a7.175 7.175 0 0 0-1.02-2.975c2.67.239 5.13.239 6.05.239.31.047.64.016.93-.092.3-.107.57-.287.78-.523 1.33-1.437 1.95-7.695 2.5-23.938h-10.43a35.55 35.55 0 0 1-3.87 7.181 22.394 22.394 0 0 0-2.49-1.71 42.456 42.456 0 0 0 6.29-14.91l2.91.719a60.143 60.143 0 0 1-1.78 5.881h12.27v1.471Zm-9.06 18.501a71.98 71.98 0 0 0-6.26-9.473l2.4-1.402a78.892 78.892 0 0 1 6.43 9.267l-2.57 1.608ZM1122.7 637.318h-15.9v8.823c0 1.813-.48 2.702-1.92 3.146-2.24.519-4.54.703-6.84.548a14.6 14.6 0 0 0-1.4-3.01h6.12c.72 0 .96-.205.96-.786v-8.789h-15.97v-2.907h15.97v-2.53c2.58-1.3 4.98-2.92 7.15-4.822h-16.42v-2.873h20.14l2.09 1.573a41.729 41.729 0 0 1-9.78 7.319v1.504h15.9l-.1 2.804Zm-31.56-12.208h-3.01v-8.378h16.14c-.6-1.205-1.31-2.35-2.12-3.42l2.9-.992a21.83 21.83 0 0 1 2.77 4.583h14.47v8.378h-3.11v-5.472h-28.04v5.301ZM1118.66 671.102c-.24 4.343-.54 7.728-.85 10.259h4.27v2.804h-4.72a10.23 10.23 0 0 1-1.64 4.719 4.076 4.076 0 0 1-1.47 1.373c-.6.329-1.27.503-1.95.508-2.05.148-4.1.148-6.15 0a7.571 7.571 0 0 0-.89-2.736c2.56.206 4.82.24 5.85.24.33.048.67 0 .98-.139.31-.139.57-.364.76-.648a6.862 6.862 0 0 0 1.3-3.214h-24.49c.72-3.42 1.51-8.208 2.3-13.132h-4.83v-2.873h5.27c.65-4.445 1.23-8.959 1.68-12.755h25.27v1.71a500.92 500.92 0 0 1-.55 11.045h4.45v2.873l-4.59-.034Zm-4 10.259c.38-2.531.69-5.916.99-10.259h-20.51c-.59 3.761-1.17 7.318-1.75 10.259h21.27Zm-17.75-23.186c-.41 3.181-.92 6.634-1.4 9.986h20.25c.2-2.941.34-6.224.51-9.986h-19.36Zm11.02 22.331a33.262 33.262 0 0 0-8.62-6.121l1.91-1.813c3.2 1.51 6.14 3.506 8.72 5.916l-2.01 2.018Zm-5.2-20.724a36.822 36.822 0 0 1 8.03 5.13l-1.84 2.086a36.992 36.992 0 0 0-8.01-5.369l1.82-1.847ZM1072.63 453.814v8.446h-3.11v-5.506h-27.36v5.506h-3.14v-8.446h16.14a27.986 27.986 0 0 0-2.36-4.993l2.98-.821a32.625 32.625 0 0 1 2.77 5.643l-.52.171h14.6Zm-7.66 27.939c3.22 0 3.7-1.026 4.11-6.464.93.587 1.94 1.026 3.01 1.3-.55 6.36-1.75 8.139-7.08 8.139h-12.69c-5.78 0-7.45-1.129-7.45-5.54v-18.535h3.11v9.267a87.93 87.93 0 0 0 17.1-6.36l2.49 2.394c-6.35 2.89-12.95 5.18-19.73 6.839v6.395c0 2.12.72 2.565 4.31 2.565h12.82ZM1057.83 522.856c1.61.172 3.23.252 4.85.24h12.07c-.48.915-.84 1.893-1.06 2.906h-11.14c-8.25 0-13.44-1.299-16.8-6.839a20.83 20.83 0 0 1-6.39 7.728 13.645 13.645 0 0 0-2.26-2.188 19.184 19.184 0 0 0 5.41-5.821 19.146 19.146 0 0 0 2.56-7.516l3.08.41a36.235 36.235 0 0 1-1.06 4.104 10.807 10.807 0 0 0 3.06 4.219 10.847 10.847 0 0 0 4.67 2.313v-12.346h-16.79v-2.77h36.01v2.77h-16.21v4.549h13.68v2.701h-13.68v5.54Zm11.69-18.329h-27.36v-13.679h27.36v13.679Zm-3.04-11.183h-21.2v3.42h21.2v-3.42Zm0 5.54h-21.2v3.42h21.2v-3.42ZM1074.69 547.039v3.42h-37.24v-3.42h37.24ZM1058.89 572.648c-.38.616-.69 1.231-1.1 1.813a50.223 50.223 0 0 0 17.27 13.131 8.155 8.155 0 0 0-2.22 2.702 52.098 52.098 0 0 1-16.72-13.371 49.047 49.047 0 0 1-16.69 13.405 11.99 11.99 0 0 0-2.26-2.77 42.423 42.423 0 0 0 19.15-16.107l2.57 1.197Zm-4.52 10.806h3.11v25.375h-3.11v-25.375ZM1043.46 618.948a30.27 30.27 0 0 1-3.79 5.847c-.83-.621-1.7-1.181-2.6-1.675a28.644 28.644 0 0 0 5.98-10.841l2.91.753c-.34 1.128-.82 2.222-1.23 3.419h10.26v2.634h-6.36l2.22 4.582-2.7.957c-.58-1.367-1.61-3.659-2.5-5.539l-2.19-.137Zm5.68 6.258c-.86 1.722-1.81 3.4-2.84 5.027v19.663h-2.91v-15.662a36.164 36.164 0 0 1-3.96 4.24c-.64-.868-1.35-1.68-2.12-2.428a37.668 37.668 0 0 0 8.92-11.763l2.91.923Zm24.9 6.668h-5.54v14.09c0 1.983-.52 2.838-1.89 3.419-2.46.537-5 .721-7.52.547a9.881 9.881 0 0 0-1.02-2.941h6.46c.82 0 .96-.205.96-.923v-14.089h-16.21v-2.838h16.14v-4.344h3.01v4.378h5.54l.07 2.701Zm-19.87 2.189c1.78 2.531 4.1 5.916 5.23 7.934l-2.57 1.538a85.041 85.041 0 0 0-5.13-8.138l2.47-1.334Zm5.26-15.115a25.181 25.181 0 0 1-4 5.574 15.376 15.376 0 0 0-2.49-1.71 24.494 24.494 0 0 0 6.08-10.533l2.91.718c-.38 1.095-.79 2.257-1.23 3.42h12.96v2.633h-8.21a35.15 35.15 0 0 1 2.46 3.865l-2.66 1.094a56.316 56.316 0 0 0-2.98-4.959l-2.84-.102ZM1049.96 672.673c-.44 1.505-.99 3.078-1.47 4.514h20.28c-.01.483-.07.964-.17 1.436-.92 6.84-1.95 9.883-3.42 11.149a5.1 5.1 0 0 1-3.42 1.196h-6.84a6.343 6.343 0 0 0-1.06-2.906c2.91.273 5.81.342 6.84.342.67.089 1.34-.057 1.91-.411 1.03-.786 1.85-3.043 2.6-7.797H1044.01c.89-1.949 1.85-4.787 2.74-7.284h-8.45v-2.804h35.43v2.804l-23.77-.239Zm18.81-6.497h-25.58v-10.944h25.58v10.944Zm-3.15-8.174h-19.45v5.472h19.45v-5.472ZM1050.34 720.551a43.958 43.958 0 0 1-9.17 8.857 15.882 15.882 0 0 0-2.67-1.983 32.632 32.632 0 0 0 8.79-7.934l3.05 1.06Zm7.55-3.693v10.977c0 1.71-.34 2.531-1.71 3.01-2.07.539-4.22.724-6.36.547a9.532 9.532 0 0 0-1.12-3.01h5.3c.65 0 .82-.205.82-.718v-10.532c-11.19.786-12.79 1.06-13.92 1.504a17.85 17.85 0 0 0-.96-2.838 19.629 19.629 0 0 0 5.71-2.223c1.4-.65 4.38-2.291 7.9-4.411a44.42 44.42 0 0 0-10.26.991 20.86 20.86 0 0 0-.92-2.77 6.489 6.489 0 0 0 3.01-1.641 44.707 44.707 0 0 0 6.84-5.848c-3.8.308-7.66.582-11.22.718a9.248 9.248 0 0 0-.79-2.667c9.51-.322 18.98-1.397 28.32-3.215l2.15 2.497a116.472 116.472 0 0 1-14.22 2.257 65.124 65.124 0 0 1-8.62 7.523l9.95-.479c2.19-1.47 4.45-3.111 6.5-4.787l2.36 1.949a108.565 108.565 0 0 1-18.33 11.285l17.88-1.128a51.8 51.8 0 0 0-3.42-3.42l2.3-1.163c3.1 2.695 5.9 5.722 8.34 9.028l-2.39 1.471a54.274 54.274 0 0 0-2.88-3.694l-10.26.787Zm6.06 2.428a84.877 84.877 0 0 1 9.74 8.378l-2.56 1.847a78.082 78.082 0 0 0-9.61-8.652l2.43-1.573ZM1050.61 756.49c-.09.887-.09 1.781 0 2.668a60.537 60.537 0 0 0-12.34 3.146c0-.616-.65-2.086-.96-2.907.82-.205 1.78-1.197 3.08-2.702a57.002 57.002 0 0 0 4.1-5.368c-2.19.107-4.36.521-6.43 1.231-.29-1.08-.65-2.142-1.06-3.181.72 0 1.5-1.094 2.36-2.428a58.128 58.128 0 0 0 5.78-11.558l3.15 1.436a76.16 76.16 0 0 1-6.84 12.242l4.95-.547c.96-1.436 1.82-2.975 2.6-4.445l2.7 1.573a78.95 78.95 0 0 1-8.68 12.345l7.59-1.505Zm.44 9.917-12.99 4.207-.68-3.044c3.42-.855 8.27-2.359 13.2-3.83l.47 2.667Zm8.38-10.943c-.34 9.199-1.6 14.397-8.99 17.407a7.794 7.794 0 0 0-1.88-2.428c6.84-2.497 7.59-6.84 7.86-14.979h3.01Zm12.21 1.026a31.385 31.385 0 0 0-1.64-3.009c-14.74 1.402-16.48 1.607-17.58 2.12-.26-1.018-.6-2.013-1.02-2.975a5.301 5.301 0 0 0 2.56-1.265 73.3 73.3 0 0 0 5.64-7.148h-7.38v-2.735h9.88a41.154 41.154 0 0 0-2.22-5.232l2.8-.787a49.553 49.553 0 0 1 2.43 5.164l-2.6.855h11.7v2.735h-11.05c-1.71 2.428-4.07 5.575-5.88 7.797l11.25-.923a71.87 71.87 0 0 0-2.7-3.864l2.36-1.197a79.068 79.068 0 0 1 6.05 8.994l-2.6 1.47Zm-.78 13.029c.88 0 1.02-.752 1.16-5.642a6.875 6.875 0 0 0 2.63 1.231c-.24 5.574-.96 7.045-3.42 7.045h-3.42c-2.87 0-3.59-.89-3.59-3.865V755.43h3.01v12.995c0 1.094 0 1.231 1.03 1.231l2.6-.137ZM830.3 302.362v7.9h-3.078v-5.096h-28.213v5.096H796v-7.934l34.3.034Zm-10.704 26.161h-22.912v-2.804h23.049l-.137 2.804Zm6.84-9.917v1.402c-.958 10.259-1.881 14.192-3.42 15.731a4.387 4.387 0 0 1-3.42 1.299c-2.21.126-4.425.126-6.634 0a7.134 7.134 0 0 0-.958-2.872c2.77.273 5.574.342 6.6.342a2.422 2.422 0 0 0 1.881-.513c1.197-1.026 2.052-4.514 2.873-12.551h-21.613c1.094-3.898 2.531-10.498 3.42-15.286l3.078.274c-.308 1.402-.616 2.941-.958 4.445h18.159v2.668h-18.74c-.411 1.846-.787 3.591-1.197 5.198l20.929-.137ZM849.039 327.357c.202.888.476 1.757.821 2.599a53.03 53.03 0 0 0-8.481 6.258 13.18 13.18 0 0 0-1.505-2.701 3.428 3.428 0 0 0 1.436-2.976v-14.841h-5.676v-2.941h8.549v18.022l4.856-3.42Zm-5.061-17.988a58.154 58.154 0 0 0-6.156-6.429l1.95-1.846a44.925 44.925 0 0 1 6.292 6.087l-2.086 2.188Zm28.828 7.661v2.804H846.85v-2.736h6.84c.444-1.641.889-3.42 1.334-5.574h-5.199v-2.668h5.814c.376-1.538.65-3.146.889-4.582h-8.241v-2.77h23.185v2.77h-11.798c-.307 1.436-.615 3.044-.991 4.582h7.591l.445-.171 2.154.206c0 2.599-.478 5.574-.82 8.207l4.753-.068Zm-22.57 6.155h19.8v14.431h-2.975v-1.47h-13.918v1.573h-2.907v-14.534Zm2.907 2.667v7.353h13.918v-7.353h-13.918Zm4.89-14.397a208.473 208.473 0 0 1-1.3 5.575h8.344c.24-1.813.479-3.865.616-5.575h-7.66ZM913.535 306.262v2.667h-36.454v-2.667h18.295a34.642 34.642 0 0 0-3.693-5.301l2.873-.889a24.214 24.214 0 0 1 4.103 5.711l-1.436.479h16.312Zm-30.777 18.501h25.34v12.858h-3.078v-1.608h-19.424v1.71h-3.009l.171-12.96Zm24.895-9.952h-24.519v-2.565h24.519v2.565Zm-24.519 3.42h24.519v2.531h-24.519v-2.531Zm2.462 9.131v5.847h19.253v-5.847h-19.253ZM928.959 300.65c-.718 2.017-1.436 4.274-2.154 6.018h6.839v26.64h-11.422v3.215h-2.77v-29.684h4.583a53.633 53.633 0 0 0 1.641-6.634l3.283.445Zm1.881 8.788h-8.618v8.55h8.618v-8.55Zm0 21.1v-9.849h-8.618v9.849h8.618Zm22.844-22.433c-.65 18.706-1.197 25.032-2.839 27.05a4.007 4.007 0 0 1-3.214 1.607 40.432 40.432 0 0 1-6.088 0 6.842 6.842 0 0 0-1.025-2.975c2.667.239 5.129.239 6.087.239.957 0 1.265 0 1.675-.615 1.334-1.437 1.95-7.661 2.497-23.938h-10.465a32.786 32.786 0 0 1-3.864 7.181 20.03 20.03 0 0 0-2.496-1.71 41.652 41.652 0 0 0 6.36-14.944l2.907.718a51.203 51.203 0 0 1-1.778 5.916h12.277l-.034 1.471Zm-9.063 18.5a71.818 71.818 0 0 0-6.224-9.472l2.36-1.402a82.826 82.826 0 0 1 6.463 9.267l-2.599 1.607ZM994.754 324.998h-15.902v8.823c0 1.812-.444 2.702-1.88 3.146a23.687 23.687 0 0 1-6.84.547 11.239 11.239 0 0 0-1.402-2.975h6.121c.719 0 .992-.205.992-.786v-8.789h-16.004v-2.907h16.004v-2.53a34.774 34.774 0 0 0 7.113-4.822h-16.414v-2.873h20.142l2.12 1.539a41.75 41.75 0 0 1-9.815 7.318v1.505h15.902l-.137 2.804ZM963.19 312.79h-3.009v-8.379h16.175a23.938 23.938 0 0 0-2.154-3.419l2.941-.992a23.186 23.186 0 0 1 2.735 4.582h14.466v8.379h-3.112v-5.472H963.19v5.301ZM1031.79 317.75c-.27 4.343-.58 7.763-.89 10.259h4.27v2.804h-4.71a9.995 9.995 0 0 1-1.65 4.72 4.094 4.094 0 0 1-3.42 1.881c-2.04.165-4.1.165-6.15 0a8.494 8.494 0 0 0-.86-2.736c2.53.205 4.79.239 5.82.239.33.047.68.002.99-.13.31-.133.58-.348.79-.622a7.796 7.796 0 0 0 1.26-3.249h-24.48c.71-3.42 1.5-8.207 2.29-13.132h-4.79v-2.872h5.23a467.58 467.58 0 0 0 1.68-12.756h25.47v1.71c-.17 4.206-.34 7.9-.54 11.046h4.44v2.872l-4.75-.034Zm-4.04 10.259c.38-2.53.69-5.882 1-10.259h-20.52c-.58 3.762-1.17 7.353-1.71 10.259h21.23Zm-17.74-23.151c-.41 3.146-.93 6.6-1.41 9.951h20.28c.17-2.941.31-6.224.48-9.951h-19.35Zm11.01 22.296a33.54 33.54 0 0 0-8.59-6.121l1.88-1.778a33.26 33.26 0 0 1 8.72 5.882l-2.01 2.017Zm-5.2-20.723a37.085 37.085 0 0 1 8.04 5.129l-1.85 2.086a36.888 36.888 0 0 0-8-5.368l1.81-1.847ZM829.787 354.892v8.446h-3.112v-5.471h-27.358v5.471h-2.975v-8.446h16.107a32.21 32.21 0 0 0-2.325-4.993l2.941-.821a32.724 32.724 0 0 1 2.769 5.643l-.512.171h14.465Zm-7.66 27.939c3.249 0 3.693-1.026 4.104-6.429.946.569 1.972.995 3.043 1.265-.581 6.361-1.778 8.173-7.113 8.173h-12.653c-5.813 0-7.489-1.163-7.489-5.54v-18.432h3.112v9.267a83.96 83.96 0 0 0 17.098-6.36l2.497 2.393a114.505 114.505 0 0 1-19.732 6.84v6.395c0 2.086.718 2.53 4.309 2.53l12.824-.102ZM856.016 382.895c1.612.184 3.233.276 4.856.274h12.106c-.502.924-.87 1.914-1.095 2.941h-11.148c-8.241 0-13.439-1.334-16.756-6.84a21.58 21.58 0 0 1-6.395 7.729 15.318 15.318 0 0 0-2.257-2.189 19.139 19.139 0 0 0 7.933-13.337l3.078.411a35.8 35.8 0 0 1-1.06 4.103 10.94 10.94 0 0 0 7.763 6.532v-12.345h-16.825v-2.736h36.01v2.736h-16.21v4.548h13.679v2.702h-13.679v5.471Zm11.695-18.329h-27.357v-13.679h27.357v13.679Zm-3.043-11.183h-21.202v3.42h21.202v-3.42Zm0 5.54h-21.202v3.42h21.202v-3.42ZM913.911 366.035v3.42H876.67v-3.42h37.241ZM939.149 350.615a15.793 15.793 0 0 1-1.094 1.812 50.157 50.157 0 0 0 17.27 13.132 8.466 8.466 0 0 0-2.223 2.702 52.445 52.445 0 0 1-16.825-13.44 48.66 48.66 0 0 1-16.688 13.405 11.33 11.33 0 0 0-2.257-2.735 42.344 42.344 0 0 0 19.15-16.141l2.667 1.265Zm-4.479 10.806h3.111v25.375h-3.111v-25.375ZM964.763 355.878a31.777 31.777 0 0 1-3.796 5.882 17.985 17.985 0 0 0-2.599-1.71 28.025 28.025 0 0 0 5.882-10.806l2.941.718c-.376 1.129-.821 2.223-1.231 3.42h10.259v2.633h-6.361c.787 1.607 1.71 3.42 2.223 4.583l-2.701.957a177.222 177.222 0 0 0-2.497-5.54l-2.12-.137Zm5.677 6.258a52.27 52.27 0 0 1-2.839 5.027v19.698h-2.906v-15.696a36.91 36.91 0 0 1-3.967 4.24 21.437 21.437 0 0 0-2.086-2.428 37.61 37.61 0 0 0 8.891-11.764l2.907.923Zm24.895 6.84h-5.54v14.089c0 1.984-.478 2.838-1.88 3.42-2.47.537-5.003.721-7.524.547a8.87 8.87 0 0 0-1.026-2.941h6.463c.821 0 .992-.205.992-.923v-14.089h-16.175v-2.839h16.175v-4.685h2.975v4.377h5.54v3.044Zm-19.868 2.223c1.778 2.496 4.103 5.882 5.232 7.899l-2.565 1.573a87.726 87.726 0 0 0-5.129-8.173l2.462-1.299Zm5.266-15.15a24.489 24.489 0 0 1-3.967 5.575 22.708 22.708 0 0 0-2.496-1.71 24.667 24.667 0 0 0 6.053-10.499l2.906.684a105.953 105.953 0 0 1-1.231 3.42h13.03v2.633h-8.208a34.401 34.401 0 0 1 2.462 3.864l-2.667 1.095a55.499 55.499 0 0 0-2.975-4.959l-2.907-.103ZM1012.3 368.394c-.45 1.539-.99 3.077-1.47 4.514h20.28c.03.478.03.958 0 1.436-.96 6.839-1.99 9.883-3.42 11.148a4.961 4.961 0 0 1-3.42 1.197c-1.37 0-4.11 0-6.84-.171a6.466 6.466 0 0 0-1.06-2.907c2.9.308 5.81.342 7.01.342.68.1 1.37-.045 1.95-.41 1.02-.787 1.84-3.044 2.56-7.797h-21.27c.86-1.983 1.85-4.822 2.7-7.318h-8.44v-2.77h35.18v2.77l-23.76-.034Zm18.81-6.464h-25.58v-10.977h25.58v10.977Zm-3.15-8.207h-19.25v5.506h19.42l-.17-5.506ZM1053.71 375.512a44.859 44.859 0 0 1-9.17 8.891c-.8-.774-1.7-1.451-2.66-2.017a32.338 32.338 0 0 0 8.79-7.934l3.04 1.06Zm7.59-3.659v10.943c0 1.71-.38 2.531-1.74 3.044-2.08.506-4.23.679-6.36.513a9.585 9.585 0 0 0-1.13-2.975h5.33c.65 0 .82-.206.82-.684v-10.67c-11.21.821-12.82 1.06-13.95 1.505-.24-.971-.56-1.92-.96-2.839a18.95 18.95 0 0 0 5.71-2.188c1.41-.684 4.38-2.326 7.9-4.446-3.44-.065-6.89.268-10.26.992-.24-.933-.55-1.848-.92-2.736a6.815 6.815 0 0 0 3.01-1.676 42.62 42.62 0 0 0 6.84-5.847c-3.8.342-7.63.581-11.22.752a9.893 9.893 0 0 0-.75-2.667c9.5-.348 18.95-1.435 28.28-3.249l2.19 2.496a110.58 110.58 0 0 1-14.26 2.257 64.414 64.414 0 0 1-8.58 7.558l9.91-.513a82.179 82.179 0 0 0 6.54-4.788l2.32 1.984a108.322 108.322 0 0 1-18.33 11.251l17.89-1.129c-1.06-1.197-2.23-2.291-3.42-3.419l2.29-1.197c3.1 2.704 5.91 5.73 8.38 9.028l-2.43 1.47c-.72-1.026-1.75-2.325-2.87-3.693l-10.23.923Zm6.02 2.394a84.977 84.977 0 0 1 9.75 8.378l-2.57 1.847a81.194 81.194 0 0 0-9.61-8.652l2.43-1.573ZM1095.02 370.31c-.11.886-.11 1.781 0 2.667-10.26 2.223-11.49 2.633-12.34 3.146-.18-.615-.69-2.086-1-2.907a7.585 7.585 0 0 0 3.08-2.701c1.45-1.708 2.8-3.5 4.04-5.369-2.19.114-4.36.528-6.43 1.231a28.92 28.92 0 0 0-1.06-3.146c.75-.171 1.5-1.129 2.39-2.462a62.027 62.027 0 0 0 5.78-11.525l3.11 1.436a74.064 74.064 0 0 1-6.84 12.209l4.96-.513c.96-1.436 1.81-3.01 2.6-4.48l2.7 1.607a82.547 82.547 0 0 1-8.65 12.311l7.66-1.504Zm.45 9.917-13 4.206-.68-3.044c3.42-.854 8.27-2.325 13.2-3.83l.48 2.668Zm8.37-10.943c-.34 9.199-1.6 14.397-8.99 17.406a6.932 6.932 0 0 0-1.88-2.428c6.84-2.496 7.59-6.839 7.86-14.978h3.01Zm12.21 1.026a26.354 26.354 0 0 0-1.64-2.976c-14.74 1.368-16.48 1.574-17.58 2.086-.26-1.018-.6-2.013-1.02-2.975a5.45 5.45 0 0 0 2.6-1.265 85.721 85.721 0 0 0 5.6-7.113h-7.38v-2.77h9.88a42.981 42.981 0 0 0-2.22-5.232l2.8-.787c.89 1.642 1.95 3.899 2.46 5.164l-2.63.855h11.7v2.77h-11.05c-1.71 2.394-4.07 5.574-5.85 7.763l11.22-.924c-.85-1.333-1.81-2.667-2.7-3.864l2.39-1.197a82.994 82.994 0 0 1 6.02 8.994l-2.6 1.471Zm-.75 13.063c.85 0 1.03-.787 1.13-5.677a6.875 6.875 0 0 0 2.63 1.231c-.24 5.574-.96 7.045-3.42 7.045h-3.42c-2.87 0-3.42-.889-3.42-3.83v-12.893h2.98v12.824c0 1.061 0 1.232 1.02 1.232l2.5.068Z" fill="#3C4043"/><path d="M246.228 244h-3.024v-25.2h3.024v11.16h.828l9.684-11.16h3.744v.216l-10.44 12.168v.432l10.872 12.168V244H257.1l-10.044-11.232h-.828V244Zm17.975-15.408c0-3.264.78-5.796 2.34-7.596 1.56-1.8 3.732-2.7 6.516-2.7s4.956.9 6.516 2.7c1.56 1.8 2.34 4.332 2.34 7.596v5.616c0 3.36-.78 5.916-2.34 7.668-1.56 1.752-3.732 2.628-6.516 2.628s-4.956-.876-6.516-2.628c-1.56-1.752-2.34-4.308-2.34-7.668v-5.616Zm8.856 13.104c1.944 0 3.396-.66 4.356-1.98.984-1.344 1.476-3.252 1.476-5.724v-5.184c0-2.304-.492-4.164-1.476-5.58-.96-1.416-2.412-2.124-4.356-2.124s-3.408.708-4.392 2.124c-.96 1.416-1.44 3.276-1.44 5.58v5.184c0 2.472.48 4.38 1.44 5.724.984 1.32 2.448 1.98 4.392 1.98ZM302.986 244h-3.024v-8.424c0-.624-.144-1.104-.432-1.44-.288-.336-.792-.504-1.512-.504h-7.848V244h-3.024v-25.2h9c1.296 0 2.424.192 3.384.576.96.36 1.752.852 2.376 1.476a5.83 5.83 0 0 1 1.44 2.196 6.74 6.74 0 0 1 .504 2.592v1.08c0 .936-.264 1.872-.792 2.808-.504.936-1.296 1.656-2.376 2.16v.432c.72.12 1.284.408 1.692.864.408.456.612 1.104.612 1.944V244Zm-12.816-13.176h5.616c1.704 0 2.964-.36 3.78-1.08.84-.744 1.26-1.824 1.26-3.24v-.648c0-1.272-.42-2.292-1.26-3.06-.816-.792-2.076-1.188-3.78-1.188h-5.616v9.216Zm19.343-12.024h15.264v2.808h-12.24v8.352h12.024v2.808h-12.024v8.424h12.456V244h-15.48v-25.2Zm35.075 18.936h-10.8L331.952 244h-3.24l7.632-25.2h5.688l7.632 25.2h-3.24l-1.836-6.264Zm-5.616-17.64-4.356 14.832h9.144l-4.356-14.832h-.432Zm27.191 22.608h.432V218.8h3.024V244h-6.048l-7.272-23.904h-.432V244h-3.024v-25.2h6.048l7.272 23.904ZM804.16 241.696c1.032 0 1.908-.168 2.628-.504.744-.36 1.344-.828 1.8-1.404a5.77 5.77 0 0 0 1.044-2.016 8.04 8.04 0 0 0 .36-2.412v-.432h3.024v.432c0 1.272-.192 2.472-.576 3.6a8.618 8.618 0 0 1-1.692 2.916c-.744.816-1.668 1.464-2.772 1.944-1.104.456-2.376.684-3.816.684-2.784 0-4.956-.876-6.516-2.628-1.56-1.752-2.34-4.308-2.34-7.668v-5.616c0-3.264.78-5.796 2.34-7.596 1.56-1.8 3.732-2.7 6.516-2.7 1.44 0 2.712.24 3.816.72 1.104.456 2.028 1.104 2.772 1.944.744.816 1.308 1.788 1.692 2.916.384 1.104.576 2.292.576 3.564v.432h-3.024v-.432a8.795 8.795 0 0 0-.396-2.376 5.383 5.383 0 0 0-1.044-2.016 4.636 4.636 0 0 0-1.764-1.404c-.72-.36-1.596-.54-2.628-.54-1.944 0-3.408.708-4.392 2.124-.96 1.416-1.44 3.276-1.44 5.58v5.184c0 2.472.48 4.38 1.44 5.724.984 1.32 2.448 1.98 4.392 1.98Zm13.511-22.896h3.024v11.16h10.728V218.8h3.024V244h-3.024v-11.232h-10.728V244h-3.024v-25.2Zm22.439 0h15.984v2.808h-6.48v19.584h6.48V244H840.11v-2.808h6.48v-19.584h-6.48V218.8Zm34.967 23.904h.432V218.8h3.024V244h-6.048l-7.272-23.904h-.432V244h-3.024v-25.2h6.048l7.272 23.904Zm9.479-23.904h15.264v2.808h-12.24v8.352h12.024v2.808H887.58v8.424h12.456V244h-15.48v-25.2Zm35.615 7.272c0-.816-.168-1.536-.504-2.16a4.27 4.27 0 0 0-1.296-1.548 6.154 6.154 0 0 0-1.908-.936 7.85 7.85 0 0 0-2.268-.324c-.696 0-1.356.096-1.98.288a5.694 5.694 0 0 0-1.692.756c-.48.336-.864.756-1.152 1.26-.288.48-.432 1.044-.432 1.692v.216c0 .696.144 1.296.432 1.8.288.48.708.9 1.26 1.26.576.336 1.284.624 2.124.864.84.216 1.824.408 2.952.576 2.64.408 4.584 1.188 5.832 2.34 1.248 1.128 1.872 2.652 1.872 4.572v.432c0 1.08-.192 2.076-.576 2.988a6.023 6.023 0 0 1-1.656 2.304c-.72.648-1.62 1.152-2.7 1.512-1.08.36-2.328.54-3.744.54-1.608 0-3.036-.228-4.284-.684-1.224-.48-2.256-1.128-3.096-1.944a8.68 8.68 0 0 1-1.872-2.916c-.432-1.128-.648-2.352-.648-3.672v-1.08h3.024v.864c0 2.208.6 3.864 1.8 4.968 1.224 1.104 2.916 1.656 5.076 1.656 1.872 0 3.276-.408 4.212-1.224.96-.84 1.44-1.944 1.44-3.312v-.216c0-1.32-.492-2.328-1.476-3.024-.96-.696-2.532-1.2-4.716-1.512-1.272-.168-2.424-.42-3.456-.756-1.008-.36-1.872-.816-2.592-1.368a5.91 5.91 0 0 1-1.656-2.052c-.384-.792-.576-1.728-.576-2.808v-.432c0-.984.204-1.884.612-2.7a6.563 6.563 0 0 1 1.692-2.124c.744-.6 1.62-1.056 2.628-1.368 1.032-.336 2.16-.504 3.384-.504 1.416 0 2.676.204 3.78.612 1.128.408 2.076.96 2.844 1.656a6.386 6.386 0 0 1 1.728 2.412c.408.912.612 1.872.612 2.88v1.512h-3.024v-1.296Zm8.471-7.272h15.264v2.808h-12.24v8.352h12.024v2.808h-12.024v8.424h12.456V244h-15.48v-25.2ZM989 246.952v2.664h-1.296c-1.68 0-3.288-.312-4.824-.936a11.928 11.928 0 0 1-4.068-2.736c-1.176-1.176-2.112-2.604-2.808-4.284-.696-1.68-1.044-3.588-1.044-5.724v-9.072c0-2.112.348-4.008 1.044-5.688.696-1.704 1.632-3.144 2.808-4.32a11.928 11.928 0 0 1 4.068-2.736 12.696 12.696 0 0 1 4.824-.936H989v2.664h-1.296a9.2 9.2 0 0 0-3.744.792 9.293 9.293 0 0 0-3.168 2.196c-.912.96-1.644 2.136-2.196 3.528-.552 1.368-.828 2.916-.828 4.644v8.784c0 1.728.276 3.288.828 4.68.552 1.368 1.284 2.532 2.196 3.492a9.293 9.293 0 0 0 3.168 2.196 9.2 9.2 0 0 0 3.744.792H989Zm19.34-20.88c0-.816-.17-1.536-.5-2.16a4.281 4.281 0 0 0-1.3-1.548 6.143 6.143 0 0 0-1.91-.936 7.806 7.806 0 0 0-2.26-.324c-.7 0-1.36.096-1.98.288a5.678 5.678 0 0 0-1.695.756c-.48.336-.864.756-1.152 1.26-.288.48-.432 1.044-.432 1.692v.216c0 .696.144 1.296.432 1.8.288.48.708.9 1.26 1.26.576.336 1.287.624 2.127.864.84.216 1.82.408 2.95.576 2.64.408 4.58 1.188 5.83 2.34 1.25 1.128 1.87 2.652 1.87 4.572v.432c0 1.08-.19 2.076-.57 2.988a6.076 6.076 0 0 1-1.66 2.304c-.72.648-1.62 1.152-2.7 1.512-1.08.36-2.33.54-3.74.54-1.61 0-3.039-.228-4.287-.684-1.224-.48-2.256-1.128-3.096-1.944a8.68 8.68 0 0 1-1.872-2.916c-.432-1.128-.648-2.352-.648-3.672v-1.08h3.024v.864c0 2.208.6 3.864 1.8 4.968 1.224 1.104 2.919 1.656 5.079 1.656 1.87 0 3.27-.408 4.21-1.224.96-.84 1.44-1.944 1.44-3.312v-.216c0-1.32-.49-2.328-1.48-3.024-.96-.696-2.53-1.2-4.71-1.512-1.28-.168-2.427-.42-3.459-.756-1.008-.36-1.872-.816-2.592-1.368a5.91 5.91 0 0 1-1.656-2.052c-.384-.792-.576-1.728-.576-2.808v-.432c0-.984.204-1.884.612-2.7a6.563 6.563 0 0 1 1.692-2.124c.744-.6 1.62-1.056 2.628-1.368 1.031-.336 2.161-.504 3.381-.504 1.42 0 2.68.204 3.78.612 1.13.408 2.08.96 2.85 1.656a6.41 6.41 0 0 1 1.72 2.412c.41.912.62 1.872.62 2.88v1.512h-3.03v-1.296Zm8.11-7.272h15.99v2.808h-6.48v19.584h6.48V244h-15.99v-2.808h6.48v-19.584h-6.48V218.8Zm20.68 0h5.76l3.38 23.904h.43l3.39-23.904h5.76V244h-2.81v-23.904h-.43L1049.22 244h-5.47l-3.38-23.904h-.43V244h-2.81v-25.2Zm26.47 14.832V244h-3.02v-25.2h9c1.29 0 2.42.192 3.38.576.96.36 1.75.852 2.38 1.476a6.027 6.027 0 0 1 1.44 2.196c.33.816.5 1.68.5 2.592v1.08c0 .912-.17 1.788-.5 2.628-.32.84-.8 1.584-1.44 2.232-.65.624-1.46 1.128-2.42 1.512-.96.36-2.07.54-3.34.54h-5.98Zm0-2.808h5.62c3.36 0 5.04-1.44 5.04-4.32v-.648c0-1.272-.42-2.292-1.26-3.06-.82-.792-2.08-1.188-3.78-1.188h-5.62v9.216Zm19.09-12.024h3.02v22.392h13.18V244h-16.2v-25.2Zm21.94 0h15.98v2.808h-6.48v19.584h6.48V244h-15.98v-2.808h6.48v-19.584h-6.48V218.8Zm22.43 0h15.48v2.808h-12.45v8.352h12.24v2.808h-12.24V244h-3.03v-25.2Zm21.65 0h15.99v2.808h-6.48v19.584h6.48V244h-15.99v-2.808h6.48v-19.584h-6.48V218.8Zm22.4 0h15.27v2.808h-12.24v8.352h12.02v2.808h-12.02v8.424h12.45V244h-15.48v-25.2Zm21.29 0h8.28c3.12 0 5.4.744 6.84 2.232 1.44 1.488 2.16 3.864 2.16 7.128v6.48c0 3.264-.72 5.64-2.16 7.128-1.44 1.488-3.72 2.232-6.84 2.232h-8.28v-2.844h2.16v-19.548h-2.16V218.8Zm7.85 22.392c1.1 0 2.05-.108 2.84-.324.82-.216 1.49-.576 2.02-1.08.53-.528.91-1.224 1.15-2.088.27-.864.4-1.956.4-3.276v-6.048c0-1.32-.13-2.412-.4-3.276-.24-.864-.62-1.548-1.15-2.052-.53-.528-1.2-.9-2.02-1.116-.79-.216-1.74-.324-2.84-.324h-2.66v19.584h2.66Zm15.24 5.76c1.29 0 2.54-.264 3.74-.792a9.281 9.281 0 0 0 3.17-2.196c.91-.96 1.64-2.124 2.2-3.492.55-1.392.82-2.952.82-4.68v-8.784c0-1.728-.27-3.276-.82-4.644-.56-1.392-1.29-2.568-2.2-3.528a9.281 9.281 0 0 0-3.17-2.196 9.203 9.203 0 0 0-3.74-.792h-1.3v-2.664h1.3c1.68 0 3.29.312 4.82.936 1.54.624 2.89 1.536 4.07 2.736 1.18 1.176 2.11 2.616 2.81 4.32.69 1.68 1.04 3.576 1.04 5.688v9.072c0 2.136-.35 4.044-1.04 5.724-.7 1.68-1.63 3.108-2.81 4.284a11.936 11.936 0 0 1-4.07 2.736c-1.53.624-3.14.936-4.82.936h-1.3v-2.664h1.3ZM1389.18 236.44c0 2.616-.65 4.62-1.94 6.012-1.28 1.368-3.15 2.052-5.62 2.052s-4.43-.684-5.87-2.052c-1.41-1.392-2.12-3.396-2.12-6.012v-1.944h3.02v1.944c0 1.584.41 2.856 1.23 3.816.81.96 2.06 1.44 3.74 1.44 1.68 0 2.86-.48 3.53-1.44.67-.96 1.01-2.232 1.01-3.816v-14.832h-2.6V218.8h7.78v2.808h-2.16v14.832Zm20.28 1.296h-10.8l-1.84 6.264h-3.24l7.63-25.2h5.69l7.63 25.2h-3.24l-1.83-6.264Zm-5.62-17.64-4.35 14.832h9.14l-4.36-14.832h-.43Zm17.33 13.536V244h-3.02v-25.2h9c1.29 0 2.42.192 3.38.576.96.36 1.75.852 2.38 1.476a6.027 6.027 0 0 1 1.44 2.196c.33.816.5 1.68.5 2.592v1.08c0 .912-.17 1.788-.5 2.628-.32.84-.8 1.584-1.44 2.232-.65.624-1.46 1.128-2.42 1.512-.96.36-2.07.54-3.34.54h-5.98Zm0-2.808h5.62c3.36 0 5.04-1.44 5.04-4.32v-.648c0-1.272-.42-2.292-1.26-3.06-.82-.792-2.08-1.188-3.78-1.188h-5.62v9.216Zm32.37 6.912h-10.8l-1.83 6.264h-3.24l7.63-25.2h5.69l7.63 25.2h-3.24l-1.84-6.264Zm-5.61-17.64-4.36 14.832h9.15l-4.36-14.832h-.43Zm27.19 22.608h.43V218.8h3.03V244h-6.05l-7.27-23.904h-.44V244h-3.02v-25.2h6.05l7.27 23.904Zm9.48-23.904h15.26v2.808h-12.24v8.352h12.03v2.808h-12.03v8.424h12.46V244h-15.48v-25.2Zm35.61 7.272c0-.816-.16-1.536-.5-2.16a4.185 4.185 0 0 0-1.3-1.548 6.088 6.088 0 0 0-1.9-.936 7.875 7.875 0 0 0-2.27-.324c-.7 0-1.36.096-1.98.288-.63.168-1.19.42-1.69.756-.48.336-.87.756-1.16 1.26-.28.48-.43 1.044-.43 1.692v.216c0 .696.15 1.296.43 1.8.29.48.71.9 1.26 1.26.58.336 1.29.624 2.13.864.84.216 1.82.408 2.95.576 2.64.408 4.58 1.188 5.83 2.34 1.25 1.128 1.87 2.652 1.87 4.572v.432c0 1.08-.19 2.076-.57 2.988a5.97 5.97 0 0 1-1.66 2.304c-.72.648-1.62 1.152-2.7 1.512-1.08.36-2.33.54-3.74.54-1.61 0-3.04-.228-4.29-.684-1.22-.48-2.25-1.128-3.09-1.944a8.584 8.584 0 0 1-1.87-2.916c-.44-1.128-.65-2.352-.65-3.672v-1.08h3.02v.864c0 2.208.6 3.864 1.8 4.968 1.23 1.104 2.92 1.656 5.08 1.656 1.87 0 3.27-.408 4.21-1.224.96-.84 1.44-1.944 1.44-3.312v-.216c0-1.32-.49-2.328-1.48-3.024-.96-.696-2.53-1.2-4.71-1.512-1.27-.168-2.43-.42-3.46-.756-1.01-.36-1.87-.816-2.59-1.368a5.99 5.99 0 0 1-1.66-2.052c-.38-.792-.57-1.728-.57-2.808v-.432c0-.984.2-1.884.61-2.7.41-.816.97-1.524 1.69-2.124.75-.6 1.62-1.056 2.63-1.368 1.03-.336 2.16-.504 3.38-.504 1.42 0 2.68.204 3.78.612 1.13.408 2.08.96 2.85 1.656a6.435 6.435 0 0 1 1.73 2.412c.4.912.61 1.872.61 2.88v1.512h-3.03v-1.296Zm8.47-7.272h15.27v2.808h-12.24v8.352h12.02v2.808h-12.02v8.424h12.45V244h-15.48v-25.2Z" fill="#FF6D7F"/></svg>