<svg width="1920" height="1080" fill="none" xmlns="http://www.w3.org/2000/svg"><path d="M1006.48 610.816v57.24c0 1.44-.58 1.944-2.09 1.944-1.37.072-6.55.144-11.806-.072.864 1.512 1.872 4.032 2.232 5.544 6.694.072 11.164-.072 13.754-.936 2.52-.936 3.6-2.52 3.6-6.48v-57.24h-5.69Zm17.21 18.144c6.12 10.296 11.88 23.688 13.61 32.184l5.61-2.376c-1.8-8.568-7.85-21.672-14.18-31.752l-5.04 1.944Zm-36.002-1.44c-1.728 9.648-5.688 22.032-12.096 29.592 1.44.576 3.744 1.872 5.04 2.808 6.48-7.992 10.656-20.88 12.96-31.32l-5.904-1.08Zm72.072 27.72c4.32 2.736 10.01 6.696 12.89 9.072l3.17-3.384c-2.88-2.304-8.72-6.048-12.96-8.712l-3.1 3.024Zm.72-13.968c4.18 2.52 9.58 6.12 12.38 8.28l3.17-3.456c-2.95-2.016-8.42-5.472-12.53-7.776l-3.02 2.952Zm41.18 19.368c-3.16-2.304-9.14-5.976-13.53-8.496l-3.03 3.024c4.47 2.664 10.37 6.552 13.4 8.928l3.16-3.456Zm.51-14.688c-3.03-2.016-8.79-5.4-13.03-7.704l-3.03 3.024c4.39 2.448 10.08 6.048 12.96 8.136l3.1-3.456Zm10.8-26.424v-5.256h-63.94v5.256h29.09v9.504h-25.63V675.4h5.11v-41.328h20.52v40.608h5.26v-40.608h21.16v34.56c0 1.152-.36 1.512-1.58 1.584-1.3 0-5.54.072-10.15-.072.79 1.368 1.58 3.456 1.87 4.896 5.76 0 9.79-.072 12.1-.864 2.3-.864 3.02-2.376 3.02-5.544v-39.6h-26.42v-9.504h29.59Zm37.15-6.48-5.9-.504c-.15 2.664-.8 5.904-1.8 9-1.59.072-3.24.072-4.76.072-3.31 0-8.35-.288-12.16-.792v5.4c3.96.288 8.71.432 11.8.432h3.17c-2.73 5.832-7.56 13.248-16.63 22.032l4.9 3.6c2.44-2.88 4.46-5.544 6.55-7.488 3.24-3.024 7.85-5.256 12.38-5.256 3.24 0 5.83 1.368 6.55 4.464-8.42 4.392-16.99 9.72-16.99 18.216 0 8.784 8.28 11.016 18.58 11.016 6.26 0 14.25-.576 19.73-1.296l.14-5.76c-6.34 1.08-14.04 1.728-19.66 1.728-7.41 0-13.03-.864-13.03-6.48 0-4.752 4.68-8.568 11.38-12.096 0 3.816-.07 8.496-.22 11.232h5.55c-.08-3.528-.15-9.648-.22-13.824 5.47-2.592 10.58-4.68 14.62-6.192 1.94-.792 4.53-1.8 6.4-2.304l-2.37-5.4c-2.02 1.08-3.75 1.872-5.91 2.808-3.74 1.728-8.13 3.456-13.03 5.832-1.15-4.176-4.97-6.48-9.65-6.48-3.09 0-7.27.936-10 2.664 2.44-3.24 4.82-7.344 6.48-11.16 7.84-.288 16.77-.864 23.9-2.016l.07-5.328c-6.77 1.224-14.61 1.872-21.96 2.232 1.08-3.384 1.66-6.192 2.09-8.352Zm60.55 9.72h5.19v-3.888h17.85v3.888h5.26v-3.888h17.64v-4.464h-17.64v-4.608h-5.26v4.608h-17.85v-4.608h-5.19v4.608h-17.28v4.464h17.28v3.888Zm-.79 35.136c-2.02 4.248-5.54 9.288-9.86 12.312l3.96 2.88c4.39-3.528 7.7-8.784 10-13.248l-4.1-1.944Zm8.42 12.312c0 .72-.21.936-1.08 1.008-.72 0-3.45 0-6.4-.072.64 1.296 1.36 3.024 1.58 4.32 4.1 0 6.77 0 8.5-.72 1.8-.792 2.3-1.944 2.3-4.392v-17.208h-4.9v17.064Zm6.84-9.792c2.16 3.816 4.4 8.856 4.97 12.024l4.25-1.512c-.72-3.168-3.02-8.064-5.26-11.736l-3.96 1.224Zm7.85-1.656c4.25 4.32 9.07 10.368 11.09 14.328l4.25-2.232c-2.16-3.96-7.13-9.864-11.38-14.04l-3.96 1.944Zm-25.85-23.76h35.79v4.464h-35.79v-4.464Zm0-7.776h35.79v4.32h-35.79v-4.32Zm49.83 24.264v-4.32h-38.81c.86-1.368 1.66-2.664 2.38-4.104h27.5V623.56h-45.86v19.512h12.45c-.65 1.368-1.44 2.736-2.52 4.104h-19.01v4.32h15.12c-3.96 3.672-9.36 6.984-16.27 9.432 1.15.792 2.67 2.52 3.39 3.744 8.64-3.384 15.04-7.992 19.58-13.176H1234c5.04 5.688 13.1 10.944 20.45 13.464.72-1.224 2.23-2.952 3.24-3.96-6.27-1.8-13.03-5.4-17.71-9.504h16.99Zm55.87-5.472c0 12.888-12.31 19.8-29.81 21.96l3.24 5.472c18.65-2.808 32.69-11.592 32.69-27.216 0-10.296-7.63-15.984-17.86-15.984-8.28 0-16.48 2.304-21.52 3.456-2.16.504-4.61.936-6.63 1.08l1.87 6.696a79.89 79.89 0 0 1 6.05-2.232c4.25-1.224 11.31-3.6 19.66-3.6 7.41 0 12.31 4.32 12.31 10.368Zm-30.24-32.4-.94 5.472c8.14 1.44 22.68 2.88 30.68 3.384l.86-5.544c-7.06-.072-22.68-1.512-30.6-3.312Zm72.58.36-5.69 2.376c3.31 7.848 7.13 16.272 10.44 22.176-7.71 5.4-12.46 11.232-12.46 18.648 0 10.8 9.79 14.832 23.33 14.832 9 0 17.28-.864 22.75-1.8v-6.408c-5.61 1.44-15.19 2.448-23.04 2.448-11.37 0-17.06-3.744-17.06-9.72 0-5.472 4.03-10.224 10.73-14.544 7.05-4.68 16.99-9.432 21.88-11.952 2.09-1.08 3.89-2.016 5.55-3.024l-3.17-5.112c-1.51 1.224-3.02 2.16-5.11 3.384-3.96 2.16-11.74 5.976-18.51 10.08-3.16-5.688-6.76-13.464-9.64-21.384Zm105.62-.288h-39.46v4.464h39.46v-4.464Zm-3.46 43.848v10.296h-32.68v-10.296h32.68ZM1419.4 675.4h5.26v-3.024h32.68v2.808h5.48v-22.176h-43.42V675.4Zm.79-27.936h41.62v-4.392h-41.62v4.392Zm41.62-14.112h-41.62v4.464h41.62v-4.464Zm-52.63-9.936v4.68h64.08v-4.68h-64.08Zm119.66 22.608c0 12.888-12.31 19.8-29.81 21.96l3.24 5.472c18.65-2.808 32.69-11.592 32.69-27.216 0-10.296-7.63-15.984-17.86-15.984-8.28 0-16.48 2.304-21.52 3.456-2.16.504-4.61.936-6.63 1.08l1.87 6.696a79.89 79.89 0 0 1 6.05-2.232c4.25-1.224 11.31-3.6 19.66-3.6 7.41 0 12.31 4.32 12.31 10.368Zm-30.24-32.4-.94 5.472c8.14 1.44 22.68 2.88 30.68 3.384l.86-5.544c-7.06-.072-22.68-1.512-30.6-3.312ZM250.992 614.344c3.888 3.528 8.64 8.64 10.944 11.808l3.816-3.888c-2.304-3.024-7.272-7.848-11.16-11.16l-3.6 3.24Zm-4.824 17.784v5.328h13.608v-5.328h-13.608Zm9.432 40.896c1.008-1.44 3.096-3.024 16.632-12.96-.648-1.152-1.44-3.312-1.872-4.824l-14.328 10.08-1.512 2.304 1.08 5.4Zm0 0c0-2.16 6.48-6.624 6.48-6.624v-34.272h-5.4v29.304c0 3.24-2.736 5.688-4.176 6.624 1.08 1.152 2.592 3.6 3.096 4.968Zm18.072-61.344c2.664 3.816 5.472 9.072 6.408 12.456l4.968-2.16c-1.08-3.384-4.032-8.424-6.84-12.24l-4.536 1.944Zm25.056-2.088c-1.584 4.68-4.464 11.304-6.768 15.408l4.824 1.728c2.376-4.032 5.184-10.008 7.56-15.336l-5.616-1.8Zm-22.896 19.296h24.48v13.104h-24.48v-13.104Zm-5.184-4.824v22.824h35.136v-22.824h-35.136Zm9.144 21.6c-.792 12.384-2.952 21.312-15.48 26.064 1.224.936 2.736 2.88 3.384 4.104 13.68-5.616 16.56-15.768 17.568-30.168h-5.472Zm11.88-.432v22.392c0 5.544 1.296 7.2 6.624 7.2h7.2c4.608 0 5.976-2.448 6.48-11.808-1.512-.36-3.672-1.224-4.824-2.16-.144 7.776-.504 8.856-2.232 8.856h-5.832c-1.8 0-2.088-.288-2.088-2.16v-22.32h-5.328Zm73.944-30.96c4.248 3.744 9.144 8.928 11.304 12.384l4.464-3.168c-2.376-3.312-7.416-8.424-11.664-12.024l-4.104 2.808Zm-46.656 16.56v5.184h64.152v-5.184H318.96ZM317.88 652l1.584 5.4c9.072-2.016 21.816-4.968 33.624-7.704l-.432-4.896c-12.672 2.736-26.208 5.616-34.776 7.2Zm16.56-35.136v51.912c0 1.296-.432 1.656-1.728 1.656-1.296.072-5.544.144-10.152-.072.792 1.584 1.728 4.032 2.016 5.472 5.976.072 9.792-.144 12.096-1.008 2.304-.864 3.168-2.448 3.168-5.976v-51.984h-5.4Zm13.68-6.48c-6.912 2.592-18.576 5.04-28.728 6.624.72 1.224 1.368 3.24 1.656 4.464 10.296-1.44 22.536-3.672 30.888-6.552l-3.816-4.536Zm7.2-.216c.288 34.272 6.696 65.88 20.808 65.88 5.4 0 7.344-3.528 8.352-15.48-1.512-.576-3.456-1.8-4.608-3.024-.432 9.288-1.296 13.032-3.24 13.032-8.784 0-15.84-27.36-15.696-60.408h-5.616Zm19.512 29.16c-6.408 12.168-18.288 23.256-31.104 29.448 1.368 1.224 2.88 2.952 3.744 4.32 13.248-6.984 25.128-18.576 32.184-31.752l-4.824-2.016Zm45.144-12.96h24.48v5.904h-24.48v-5.904Zm0-9.792h24.48v5.832h-24.48v-5.832Zm-5.112-4.104v23.976h34.92v-23.976h-34.92Zm4.608 29.376-2.232 4.32h32.616v-4.32h-30.384Zm29.016 0v1.008c-.72 19.368-1.584 26.28-2.88 27.936-.504.72-1.008.864-2.016.792-.936.072-3.096 0-5.472-.216.576 1.152 1.08 2.952 1.152 4.104 2.664.216 5.256.216 6.768 0 1.656-.144 3.024-.576 4.104-2.016 1.8-2.376 2.592-9.072 3.528-29.304v-2.304h-5.184Zm-16.344 5.4c-1.728 5.256-5.616 9.288-10.656 11.952.792.648 2.232 2.16 2.736 2.952 5.4-3.096 9.864-7.992 11.88-14.4l-3.96-.504Zm-1.368 6.912c3.672 2.16 8.136 5.328 10.44 7.416l2.304-3.096c-2.232-2.016-6.84-4.968-10.368-7.056l-2.376 2.736Zm-11.736-17.712c-1.944 4.824-5.616 10.656-11.232 14.976 1.008.792 2.52 2.52 3.168 3.6 6.336-5.184 10.44-11.592 12.96-17.712l-4.896-.864Zm-5.112 15.912v15.12h30.312v-4.104h-25.488V652.36h-4.824Zm-20.736-38.376c4.248 2.448 9.72 6.192 12.384 8.64l3.384-4.176c-2.736-2.376-8.28-5.904-12.456-8.136l-3.312 3.672Zm-3.6 19.656c4.248 2.304 9.648 5.76 12.312 8.208l3.24-4.248c-2.736-2.376-8.208-5.688-12.384-7.776l-3.168 3.816Zm1.872 37.08 4.752 3.384c3.6-6.696 7.848-15.696 11.016-23.256l-4.248-3.312c-3.456 8.136-8.208 17.64-11.52 23.184Zm76.464-22.68v4.536h54.648v-4.536h-54.648Zm-5.688-30.96v4.752H495v-4.752h-32.76Zm38.736-5.04v4.104h20.808v-4.104h-20.808Zm.504 9.36v3.888h20.592V621.4H501.48Zm-.504 9.504v3.888h20.88v-3.888h-20.88Zm-29.952 27.72v4.464h48.024v-4.464h-48.024Zm-7.992 10.944v4.536h63.936v-4.536h-63.936Zm29.16-19.512v22.248h5.472v-22.248h-5.472Zm6.336-38.016c0 19.152-.144 25.992-8.208 30.456 1.08.936 2.52 2.88 3.096 4.104 9.504-5.256 10.152-13.824 10.224-34.56h-5.112Zm20.808 0v28.08c0 .792-.288 1.08-1.296 1.152-1.008.072-4.608.072-8.352-.072.72 1.296 1.512 3.312 1.8 4.608 5.04.072 8.352 0 10.368-.792 2.088-.792 2.664-2.16 2.664-4.896v-28.08h-5.184Zm-45.072-1.008c1.656 2.808 3.384 6.552 4.104 9l5.04-1.8c-.792-2.304-2.592-5.904-4.392-8.568l-4.752 1.368Zm-5.328 32.328c1.44-1.008 3.888-1.8 23.4-6.84-.144-1.008-.144-3.096 0-4.464l-21.384 5.04-2.448 1.872.432 4.392Zm0 0c0-1.872 6.12-4.968 6.12-4.968v-18.288l-5.184-.144v14.4c0 2.952-1.872 4.176-3.096 4.752.792.936 1.8 3.024 2.16 4.248Zm65.232-4.392v5.904h65.88v-5.904h-65.88ZM606.6 627.16v5.112h21.816v-5.112H606.6Zm8.784-16.776v48.24h5.112v-48.24h-5.112Zm-9.864 50.328 1.8 5.472c6.264-2.376 14.4-5.616 21.96-8.712l-1.008-4.896c-8.352 3.096-16.992 6.336-22.752 8.136ZM630 612.976v5.112h30.096v-5.112H630Zm35.28 19.8v1.152c-1.368 24.12-2.952 33.192-4.968 35.352-.72.936-1.368 1.08-2.52 1.08-1.224 0-3.96-.072-6.912-.36.792 1.44 1.368 3.672 1.44 5.184 3.096.144 5.976.144 7.776-.072 2.088-.144 3.456-.72 4.896-2.448 2.52-3.024 4.032-11.88 5.472-37.224.144-.792.216-2.664.216-2.664h-5.4Zm-32.76 5.976c0-1.08 3.816-2.592 3.816-2.592v-.144c8.64-4.752 18.072-11.808 27.792-20.52l-4.104-3.024-2.592 1.08v.36c-6.984 7.416-16.992 14.4-19.944 16.2-2.736 1.8-5.4 3.312-7.272 3.6.792 1.296 1.944 3.888 2.304 5.04Zm0 0c.648-.576 2.952-.864 6.264-.864h28.368v-5.112h-31.536l-3.096 1.512v4.464Zm23.256-3.096c-4.392 16.488-12.744 29.304-25.488 36.936 1.224.72 3.24 2.232 4.104 3.096 12.456-8.352 21.24-21.456 26.136-39.096l-4.752-.936Zm-11.088.072c-2.808 8.928-8.496 16.416-15.696 21.024 1.152.72 3.168 2.304 4.032 3.096 7.2-5.184 13.248-13.248 16.416-23.112l-4.752-1.008Zm63.648-25.128v57.672c0 1.44-.504 1.944-2.016 1.944-1.44.072-6.624.144-11.952-.072.936 1.584 1.944 4.104 2.232 5.688 6.84 0 11.304-.144 13.896-1.08 2.592-.864 3.672-2.448 3.672-6.48V610.6h-5.832Zm17.424 18.36c6.12 10.296 11.952 23.832 13.68 32.328l5.76-2.304c-1.872-8.712-7.992-21.888-14.256-32.04l-5.184 2.016Zm-36.288-1.512c-1.8 9.72-5.76 22.176-12.168 29.808 1.44.576 3.816 1.872 5.112 2.88 6.552-8.064 10.728-21.096 13.104-31.68l-6.048-1.008Zm90.576-10.224v57.744h5.328v-57.744h-5.328Zm-17.784 24.048c4.176 2.52 9.648 6.192 12.456 8.352l3.24-3.456c-2.952-2.16-8.496-5.544-12.6-7.92l-3.096 3.024Zm-.72 14.04c4.392 2.88 10.08 6.84 12.96 9.216l3.24-3.528c-2.952-2.232-8.784-6.048-13.032-8.64l-3.168 2.952Zm26.568-14.04c4.392 2.52 10.152 6.12 13.032 8.28l3.096-3.528c-2.952-2.16-8.856-5.544-13.104-7.848l-3.024 3.096Zm-1.008 13.968c4.464 2.736 10.44 6.696 13.464 9.072l3.168-3.528c-3.168-2.376-9.144-6.048-13.608-8.568l-3.024 3.024ZM754.2 628.888v46.8h5.184V634h49.536v-5.112H754.2Zm52.488 0v39.96c0 1.152-.288 1.512-1.584 1.584-1.296 0-5.616.072-10.296-.072.792 1.368 1.656 3.528 1.944 4.968 5.832 0 9.864-.072 12.168-.864 2.304-.864 3.096-2.448 3.096-5.544v-40.032h-5.328Zm-55.944-14.832v5.328h64.44v-5.328h-64.44Z" fill="#3C4043"/><path d="M252.16 431.696c1.032 0 1.908-.168 2.628-.504.744-.36 1.344-.828 1.8-1.404a5.77 5.77 0 0 0 1.044-2.016 8.04 8.04 0 0 0 .36-2.412v-.432h3.024v.432c0 1.272-.192 2.472-.576 3.6a8.618 8.618 0 0 1-1.692 2.916c-.744.816-1.668 1.464-2.772 1.944-1.104.456-2.376.684-3.816.684-2.784 0-4.956-.876-6.516-2.628-1.56-1.752-2.34-4.308-2.34-7.668v-5.616c0-3.264.78-5.796 2.34-7.596 1.56-1.8 3.732-2.7 6.516-2.7 1.44 0 2.712.24 3.816.72 1.104.456 2.028 1.104 2.772 1.944.744.816 1.308 1.788 1.692 2.916.384 1.104.576 2.292.576 3.564v.432h-3.024v-.432a8.795 8.795 0 0 0-.396-2.376 5.383 5.383 0 0 0-1.044-2.016 4.636 4.636 0 0 0-1.764-1.404c-.72-.36-1.596-.54-2.628-.54-1.944 0-3.408.708-4.392 2.124-.96 1.416-1.44 3.276-1.44 5.58v5.184c0 2.472.48 4.38 1.44 5.724.984 1.32 2.448 1.98 4.392 1.98Zm13.511-22.896h3.024v11.16h10.728V408.8h3.024V434h-3.024v-11.232h-10.728V434h-3.024v-25.2Zm22.439 0h15.984v2.808h-6.48v19.584h6.48V434H288.11v-2.808h6.48v-19.584h-6.48V408.8Zm34.967 23.904h.432V408.8h3.024V434h-6.048l-7.272-23.904h-.432V434h-3.024v-25.2h6.048l7.272 23.904Zm9.479-23.904h15.264v2.808h-12.24v8.352h12.024v2.808H335.58v8.424h12.456V434h-15.48v-25.2Zm35.615 7.272c0-.816-.168-1.536-.504-2.16a4.27 4.27 0 0 0-1.296-1.548 6.154 6.154 0 0 0-1.908-.936 7.85 7.85 0 0 0-2.268-.324c-.696 0-1.356.096-1.98.288a5.694 5.694 0 0 0-1.692.756c-.48.336-.864.756-1.152 1.26-.288.48-.432 1.044-.432 1.692v.216c0 .696.144 1.296.432 1.8.288.48.708.9 1.26 1.26.576.336 1.284.624 2.124.864.84.216 1.824.408 2.952.576 2.64.408 4.584 1.188 5.832 2.34 1.248 1.128 1.872 2.652 1.872 4.572v.432c0 1.08-.192 2.076-.576 2.988a6.023 6.023 0 0 1-1.656 2.304c-.72.648-1.62 1.152-2.7 1.512-1.08.36-2.328.54-3.744.54-1.608 0-3.036-.228-4.284-.684-1.224-.48-2.256-1.128-3.096-1.944a8.68 8.68 0 0 1-1.872-2.916c-.432-1.128-.648-2.352-.648-3.672v-1.08h3.024v.864c0 2.208.6 3.864 1.8 4.968 1.224 1.104 2.916 1.656 5.076 1.656 1.872 0 3.276-.408 4.212-1.224.96-.84 1.44-1.944 1.44-3.312v-.216c0-1.32-.492-2.328-1.476-3.024-.96-.696-2.532-1.2-4.716-1.512-1.272-.168-2.424-.42-3.456-.756-1.008-.36-1.872-.816-2.592-1.368a5.91 5.91 0 0 1-1.656-2.052c-.384-.792-.576-1.728-.576-2.808v-.432c0-.984.204-1.884.612-2.7a6.563 6.563 0 0 1 1.692-2.124c.744-.6 1.62-1.056 2.628-1.368 1.032-.336 2.16-.504 3.384-.504 1.416 0 2.676.204 3.78.612 1.128.408 2.076.96 2.844 1.656a6.386 6.386 0 0 1 1.728 2.412c.408.912.612 1.872.612 2.88v1.512h-3.024v-1.296Zm8.471-7.272h15.264v2.808h-12.24v8.352h12.024v2.808h-12.024v8.424h12.456V434h-15.48v-25.2ZM437 436.952v2.664h-1.296c-1.68 0-3.288-.312-4.824-.936a11.928 11.928 0 0 1-4.068-2.736c-1.176-1.176-2.112-2.604-2.808-4.284-.696-1.68-1.044-3.588-1.044-5.724v-9.072c0-2.112.348-4.008 1.044-5.688.696-1.704 1.632-3.144 2.808-4.32a11.928 11.928 0 0 1 4.068-2.736 12.696 12.696 0 0 1 4.824-.936H437v2.664h-1.296a9.2 9.2 0 0 0-3.744.792 9.293 9.293 0 0 0-3.168 2.196c-.912.96-1.644 2.136-2.196 3.528-.552 1.368-.828 2.916-.828 4.644v8.784c0 1.728.276 3.288.828 4.68.552 1.368 1.284 2.532 2.196 3.492a9.293 9.293 0 0 0 3.168 2.196 9.2 9.2 0 0 0 3.744.792H437Zm19.343-20.88c0-.816-.168-1.536-.504-2.16a4.27 4.27 0 0 0-1.296-1.548 6.154 6.154 0 0 0-1.908-.936 7.85 7.85 0 0 0-2.268-.324c-.696 0-1.356.096-1.98.288a5.694 5.694 0 0 0-1.692.756c-.48.336-.864.756-1.152 1.26-.288.48-.432 1.044-.432 1.692v.216c0 .696.144 1.296.432 1.8.288.48.708.9 1.26 1.26.576.336 1.284.624 2.124.864.84.216 1.824.408 2.952.576 2.64.408 4.584 1.188 5.832 2.34 1.248 1.128 1.872 2.652 1.872 4.572v.432c0 1.08-.192 2.076-.576 2.988a6.023 6.023 0 0 1-1.656 2.304c-.72.648-1.62 1.152-2.7 1.512-1.08.36-2.328.54-3.744.54-1.608 0-3.036-.228-4.284-.684-1.224-.48-2.256-1.128-3.096-1.944a8.68 8.68 0 0 1-1.872-2.916c-.432-1.128-.648-2.352-.648-3.672v-1.08h3.024v.864c0 2.208.6 3.864 1.8 4.968 1.224 1.104 2.916 1.656 5.076 1.656 1.872 0 3.276-.408 4.212-1.224.96-.84 1.44-1.944 1.44-3.312v-.216c0-1.32-.492-2.328-1.476-3.024-.96-.696-2.532-1.2-4.716-1.512-1.272-.168-2.424-.42-3.456-.756-1.008-.36-1.872-.816-2.592-1.368a5.91 5.91 0 0 1-1.656-2.052c-.384-.792-.576-1.728-.576-2.808v-.432c0-.984.204-1.884.612-2.7a6.563 6.563 0 0 1 1.692-2.124c.744-.6 1.62-1.056 2.628-1.368 1.032-.336 2.16-.504 3.384-.504 1.416 0 2.676.204 3.78.612 1.128.408 2.076.96 2.844 1.656a6.386 6.386 0 0 1 1.728 2.412c.408.912.612 1.872.612 2.88v1.512h-3.024v-1.296Zm8.111-7.272h15.984v2.808h-6.48v19.584h6.48V434h-15.984v-2.808h6.48v-19.584h-6.48V408.8Zm20.675 0h5.76l3.384 23.904h.432l3.384-23.904h5.76V434h-2.808v-23.904h-.432L497.225 434h-5.472l-3.384-23.904h-.432V434h-2.808v-25.2Zm26.471 14.832V434h-3.024v-25.2h9c1.296 0 2.424.192 3.384.576.96.36 1.752.852 2.376 1.476a5.83 5.83 0 0 1 1.44 2.196 6.74 6.74 0 0 1 .504 2.592v1.08c0 .912-.168 1.788-.504 2.628a6.158 6.158 0 0 1-1.44 2.232c-.648.624-1.452 1.128-2.412 1.512-.96.36-2.076.54-3.348.54H511.6Zm0-2.808h5.616c3.36 0 5.04-1.44 5.04-4.32v-.648c0-1.272-.42-2.292-1.26-3.06-.816-.792-2.076-1.188-3.78-1.188H511.6v9.216Zm19.091-12.024h3.024v22.392h13.176V434h-16.2v-25.2Zm21.935 0h15.984v2.808h-6.48v19.584h6.48V434h-15.984v-2.808h6.48v-19.584h-6.48V408.8Zm22.439 0h15.48v2.808h-12.456v8.352h12.24v2.808h-12.24V434h-3.024v-25.2Zm21.647 0h15.983v2.808h-6.479v19.584h6.479V434h-15.983v-2.808h6.479v-19.584h-6.479V408.8Zm22.402 0h15.264v2.808h-12.24v8.352h12.024v2.808h-12.024v8.424h12.456V434h-15.48v-25.2Zm21.287 0h8.28c3.12 0 5.4.744 6.84 2.232 1.44 1.488 2.16 3.864 2.16 7.128v6.48c0 3.264-.72 5.64-2.16 7.128-1.44 1.488-3.72 2.232-6.84 2.232h-8.28v-2.844h2.16v-19.548h-2.16V408.8Zm7.848 22.392c1.104 0 2.052-.108 2.844-.324.816-.216 1.488-.576 2.016-1.08.528-.528.912-1.224 1.152-2.088.264-.864.396-1.956.396-3.276v-6.048c0-1.32-.132-2.412-.396-3.276-.24-.864-.624-1.548-1.152-2.052-.528-.528-1.2-.9-2.016-1.116-.792-.216-1.74-.324-2.844-.324h-2.664v19.584h2.664Zm15.239 5.76a9.2 9.2 0 0 0 3.744-.792 9.293 9.293 0 0 0 3.168-2.196c.912-.96 1.644-2.124 2.196-3.492.552-1.392.828-2.952.828-4.68v-8.784c0-1.728-.276-3.276-.828-4.644-.552-1.392-1.284-2.568-2.196-3.528a9.293 9.293 0 0 0-3.168-2.196 9.2 9.2 0 0 0-3.744-.792h-1.296v-2.664h1.296c1.68 0 3.288.312 4.824.936a11.928 11.928 0 0 1 4.068 2.736c1.176 1.176 2.112 2.616 2.808 4.32.696 1.68 1.044 3.576 1.044 5.688v9.072c0 2.136-.348 4.044-1.044 5.724-.696 1.68-1.632 3.108-2.808 4.284a11.928 11.928 0 0 1-4.068 2.736 12.696 12.696 0 0 1-4.824.936h-1.296v-2.664h1.296ZM991.18 426.44c0 2.616-.648 4.62-1.944 6.012-1.272 1.368-3.144 2.052-5.616 2.052-2.472 0-4.428-.684-5.868-2.052-1.416-1.392-2.124-3.396-2.124-6.012v-1.944h3.024v1.944c0 1.584.408 2.856 1.224 3.816.816.96 2.064 1.44 3.744 1.44 1.68 0 2.856-.48 3.528-1.44.672-.96 1.008-2.232 1.008-3.816v-14.832h-2.592V408.8h7.776v2.808h-2.16v14.832Zm20.28 1.296h-10.8L998.823 434h-3.24l7.627-25.2h5.69l7.63 25.2h-3.24l-1.83-6.264Zm-5.62-17.64-4.35 14.832h9.14l-4.36-14.832h-.43Zm17.33 13.536V434h-3.02v-25.2h9c1.29 0 2.42.192 3.38.576.96.36 1.75.852 2.38 1.476a6.027 6.027 0 0 1 1.44 2.196c.33.816.5 1.68.5 2.592v1.08c0 .912-.17 1.788-.5 2.628-.32.84-.8 1.584-1.44 2.232-.65.624-1.46 1.128-2.42 1.512-.96.36-2.07.54-3.34.54h-5.98Zm0-2.808h5.62c3.36 0 5.04-1.44 5.04-4.32v-.648c0-1.272-.42-2.292-1.26-3.06-.82-.792-2.08-1.188-3.78-1.188h-5.62v9.216Zm32.37 6.912h-10.8l-1.83 6.264h-3.24l7.63-25.2h5.69l7.63 25.2h-3.24l-1.84-6.264Zm-5.61-17.64-4.36 14.832h9.15l-4.36-14.832h-.43Zm27.19 22.608h.43V408.8h3.03V434h-6.05l-7.27-23.904h-.44V434h-3.02v-25.2h6.05l7.27 23.904Zm9.48-23.904h15.26v2.808h-12.24v8.352h12.03v2.808h-12.03v8.424h12.46V434h-15.48v-25.2Zm35.61 7.272c0-.816-.16-1.536-.5-2.16a4.185 4.185 0 0 0-1.3-1.548 6.088 6.088 0 0 0-1.9-.936 7.875 7.875 0 0 0-2.27-.324c-.7 0-1.36.096-1.98.288-.63.168-1.19.42-1.69.756-.48.336-.87.756-1.16 1.26-.28.48-.43 1.044-.43 1.692v.216c0 .696.15 1.296.43 1.8.29.48.71.9 1.26 1.26.58.336 1.29.624 2.13.864.84.216 1.82.408 2.95.576 2.64.408 4.58 1.188 5.83 2.34 1.25 1.128 1.87 2.652 1.87 4.572v.432c0 1.08-.19 2.076-.57 2.988a5.97 5.97 0 0 1-1.66 2.304c-.72.648-1.62 1.152-2.7 1.512-1.08.36-2.33.54-3.74.54-1.61 0-3.04-.228-4.29-.684-1.22-.48-2.25-1.128-3.09-1.944a8.584 8.584 0 0 1-1.87-2.916c-.44-1.128-.65-2.352-.65-3.672v-1.08h3.02v.864c0 2.208.6 3.864 1.8 4.968 1.23 1.104 2.92 1.656 5.08 1.656 1.87 0 3.27-.408 4.21-1.224.96-.84 1.44-1.944 1.44-3.312v-.216c0-1.32-.49-2.328-1.48-3.024-.96-.696-2.53-1.2-4.71-1.512-1.27-.168-2.43-.42-3.46-.756-1.01-.36-1.87-.816-2.59-1.368a5.99 5.99 0 0 1-1.66-2.052c-.38-.792-.57-1.728-.57-2.808v-.432c0-.984.2-1.884.61-2.7.41-.816.97-1.524 1.69-2.124.75-.6 1.62-1.056 2.63-1.368 1.03-.336 2.16-.504 3.38-.504 1.42 0 2.68.204 3.78.612 1.13.408 2.08.96 2.85 1.656a6.435 6.435 0 0 1 1.73 2.412c.4.912.61 1.872.61 2.88v1.512h-3.03v-1.296Zm8.47-7.272h15.27v2.808h-12.24v8.352h12.02v2.808h-12.02v8.424h12.45V434h-15.48v-25.2Z" fill="#FF6D7F"/></svg>