<svg width="1920" height="1080" fill="none" xmlns="http://www.w3.org/2000/svg"><path fill="#D2E3FC" d="M51 628h1218v73H51zM1467 628h403v73h-403z"/><path fill="#D2E3FC" d="M587 623h158v78H587zM917 609h199v92H917zM1269 638h198v90h-198v-90ZM1627 612h50v110h-50V612Z"/><path d="M299.494 701h-10.71l-38.964-60.486h-.408c.068 1.224.136 2.584.204 4.08.136 1.496.238 3.128.306 4.896.068 1.7.136 3.468.204 5.304.068 1.836.102 3.672.102 5.508V701h-8.466v-72.828h10.608l38.862 60.282h.408a100.5 100.5 0 0 1-.204-3.366 705.64 705.64 0 0 1-.204-4.896 4250.63 4250.63 0 0 1-.204-5.61 149.268 149.268 0 0 1-.102-5.304v-41.106h8.568V701Zm39.654-55.692c4.692 0 8.704 1.02 12.036 3.06 3.4 2.04 5.984 4.93 7.752 8.67 1.836 3.672 2.754 7.99 2.754 12.954v5.406h-37.434c.136 6.188 1.7 10.914 4.692 14.178 3.06 3.196 7.31 4.794 12.75 4.794 3.468 0 6.528-.306 9.18-.918 2.72-.68 5.508-1.632 8.364-2.856v7.854c-2.788 1.224-5.542 2.108-8.262 2.652-2.72.612-5.95.918-9.69.918-5.168 0-9.758-1.054-13.77-3.162-3.944-2.108-7.038-5.236-9.282-9.384-2.176-4.216-3.264-9.35-3.264-15.402 0-5.984.986-11.118 2.958-15.402 2.04-4.284 4.862-7.582 8.466-9.894 3.672-2.312 7.922-3.468 12.75-3.468Zm-.102 7.344c-4.284 0-7.684 1.394-10.2 4.182-2.448 2.72-3.91 6.528-4.386 11.424h27.846c0-3.128-.476-5.848-1.428-8.16-.952-2.312-2.414-4.114-4.386-5.406-1.904-1.36-4.386-2.04-7.446-2.04Zm69.862 17.442a331.309 331.309 0 0 0-1.224-4.182 564.703 564.703 0 0 1-1.122-3.978 98.187 98.187 0 0 0-.816-3.57 44.559 44.559 0 0 1-.612-2.754h-.408c-.136.748-.34 1.666-.612 2.754a51.212 51.212 0 0 1-.816 3.57 59.546 59.546 0 0 1-1.02 4.08 56.805 56.805 0 0 1-1.224 4.182l-9.792 30.702h-10.2l-14.994-54.672h9.282l7.548 29.172a155.498 155.498 0 0 1 1.53 6.018 108.84 108.84 0 0 1 1.224 5.712c.408 1.768.68 3.298.816 4.59h.408c.204-.816.442-1.836.714-3.06.272-1.224.544-2.516.816-3.876l1.02-4.08c.408-1.36.782-2.584 1.122-3.672l9.69-30.804h9.792l9.384 30.804c.476 1.564.952 3.23 1.428 4.998a85.733 85.733 0 0 1 1.428 5.202c.408 1.632.68 3.094.816 4.386h.408c.136-1.156.374-2.584.714-4.284.408-1.768.85-3.672 1.326-5.712a799.392 799.392 0 0 1 1.632-6.222l7.65-29.172h9.18l-15.198 54.672h-10.506l-9.384-30.804ZM629.68 701l-23.97-63.852h-.408c.136 1.36.238 3.094.306 5.202.136 2.108.238 4.42.306 6.936.068 2.448.102 4.964.102 7.548V701h-8.466v-72.828h13.566l22.44 59.67h.408l22.848-59.67h13.464V701h-9.078v-44.778c0-2.38.034-4.726.102-7.038.068-2.38.17-4.59.306-6.63.136-2.108.238-3.876.306-5.304h-.408L637.228 701h-7.548Zm106.715-27.438c0 6.052-1.054 11.22-3.162 15.504-2.04 4.216-4.964 7.446-8.772 9.69-3.808 2.176-8.33 3.264-13.566 3.264-4.828 0-9.146-1.088-12.954-3.264-3.74-2.244-6.698-5.474-8.874-9.69-2.176-4.284-3.264-9.452-3.264-15.504 0-9.044 2.278-16.014 6.834-20.91 4.556-4.896 10.744-7.344 18.564-7.344 3.604 0 6.902.612 9.894 1.836 3.06 1.224 5.678 2.958 7.854 5.202 2.04-.612 3.536-1.598 4.488-2.958 1.02-1.428 1.666-3.128 1.938-5.1a46.34 46.34 0 0 0 .408-6.324h9.588l.714 1.122c-.612 3.128-1.462 5.916-2.55 8.364-1.02 2.448-2.38 4.556-4.08 6.324-1.7 1.7-3.876 3.026-6.528 3.978 1.088 2.108 1.938 4.488 2.55 7.14.612 2.652.918 5.542.918 8.67Zm-41.31 0c0 4.556.544 8.398 1.632 11.526 1.156 3.128 2.89 5.508 5.202 7.14 2.38 1.564 5.44 2.346 9.18 2.346 3.74 0 6.766-.782 9.078-2.346 2.38-1.632 4.114-4.012 5.202-7.14 1.156-3.128 1.734-6.97 1.734-11.526s-.578-8.364-1.734-11.424c-1.088-3.06-2.822-5.372-5.202-6.936s-5.44-2.346-9.18-2.346c-5.576 0-9.622 1.734-12.138 5.202s-3.774 8.636-3.774 15.504Zm30.396-49.674c-.612.952-1.496 2.108-2.652 3.468a100.609 100.609 0 0 1-3.876 4.284 121.26 121.26 0 0 1-4.182 4.182 52.345 52.345 0 0 1-3.876 3.366h-5.916v-1.224c1.02-1.292 2.108-2.822 3.264-4.59a148.505 148.505 0 0 0 3.57-5.406c1.156-1.904 2.108-3.604 2.856-5.1h10.812v1.02Zm35.212 22.44V701h-8.976v-54.672h8.976Zm-4.386-20.502c1.36 0 2.55.476 3.57 1.428 1.088.884 1.632 2.312 1.632 4.284 0 1.904-.544 3.332-1.632 4.284-1.02.952-2.21 1.428-3.57 1.428-1.496 0-2.754-.476-3.774-1.428s-1.53-2.38-1.53-4.284c0-1.972.51-3.4 1.53-4.284 1.02-.952 2.278-1.428 3.774-1.428ZM920.885 637.556h58.038v7.242h-10.506V701h-8.262v-30.396h-18.462v5.508c0 1.904-.476 3.332-1.428 4.284s-2.21 1.428-3.774 1.428c-1.632 0-3.366-.714-5.202-2.142-1.836-1.428-3.4-3.162-4.692-5.202-1.292-2.04-1.938-4.012-1.938-5.916 0-1.564.442-2.822 1.326-3.774.952-.952 2.584-1.428 4.896-1.428h29.274v-18.564h-39.27v-7.242Zm114.815 7.242h-10.6V701h-8.16v-16.83c-1.77 1.224-3.95 2.346-6.53 3.366-2.52.952-5.58 1.428-9.18 1.428-3.673 0-6.937-.714-9.793-2.142-2.856-1.428-5.134-3.4-6.834-5.916-1.632-2.584-2.448-5.61-2.448-9.078 0-5.848 1.938-10.336 5.814-13.464 3.944-3.128 9.112-4.692 15.501-4.692.89 0 1.97.068 3.27.204 1.36.068 2.65.17 3.87.306 1.29.136 2.28.306 2.96.51l-.51 7.446a53.33 53.33 0 0 0-4.39-.714 38.596 38.596 0 0 0-4.79-.306c-4.215 0-7.513.918-9.893 2.754-2.38 1.836-3.57 4.454-3.57 7.854 0 3.468 1.054 6.018 3.162 7.65 2.176 1.632 4.794 2.448 7.851 2.448 3.54 0 6.56-.748 9.08-2.244 2.58-1.564 4.73-3.264 6.43-5.1v-29.682h-39.477v-7.242h58.237v7.242Zm-20.43-6.528c-1.16-2.38-2.04-4.658-2.65-6.834-.61-2.176-.92-4.42-.92-6.732 0-4.42 1.43-8.024 4.28-10.812 2.86-2.856 6.84-4.284 11.94-4.284 4.08 0 7.48.986 10.2 2.958 2.72 1.904 5.06 4.93 7.04 9.078 1.97 4.08 3.84 9.384 5.61 15.912h11.22v7.242h-10.51V701h-8.26v-56.202h-9.08v-7.242h8.87c-1.9-7.072-3.91-12.274-6.01-15.606-2.04-3.4-4.93-5.1-8.67-5.1-2.72 0-4.8.85-6.23 2.55-1.42 1.632-2.14 3.91-2.14 6.834 0 2.312.34 4.42 1.02 6.324.68 1.836 1.5 3.74 2.45 5.712h-8.16Zm45.27-.714h58.04v7.242h-10.51V701h-8.26v-30.396h-18.46v5.508c0 1.904-.48 3.332-1.43 4.284s-2.21 1.428-3.78 1.428c-1.63 0-3.36-.714-5.2-2.142a20.317 20.317 0 0 1-4.69-5.202c-1.29-2.04-1.94-4.012-1.94-5.916 0-1.564.44-2.822 1.33-3.774.95-.952 2.58-1.428 4.89-1.428h29.28v-18.564h-39.27v-7.242ZM1335.01 637.556v7.242h-10.71V701h-7.85v-24.786l1.63 5.712c-2.25-3.128-4.69-5.95-7.35-8.466-2.65-2.516-5.37-4.522-8.16-6.018-2.78-1.496-5.5-2.244-8.16-2.244-2.51 0-4.65.68-6.42 2.04-1.7 1.292-2.55 3.23-2.55 5.814 0 2.04.71 3.808 2.14 5.304 1.43 1.428 3.64 2.72 6.63 3.876l-3.88 7.242c-4.14-1.7-7.41-3.978-9.79-6.834-2.31-2.924-3.47-6.222-3.47-9.894 0-3.332.79-6.086 2.35-8.262 1.63-2.244 3.67-3.91 6.12-4.998 2.52-1.088 5.07-1.632 7.65-1.632 3.54 0 6.77.612 9.69 1.836 2.92 1.224 5.64 2.89 8.16 4.998 2.58 2.108 5.03 4.556 7.34 7.344l-1.42.408a53.082 53.082 0 0 1-.41-4.59c-.07-1.564-.1-3.128-.1-4.692v-18.36h-45.09v-7.242h63.65Zm40.45 58.344c-5.58 0-10.78-1.36-15.61-4.08-4.83-2.788-9.18-7.276-13.06-13.464-3.8-6.188-7.1-14.484-9.89-24.888l7.75-2.04c2.38 8.432 4.97 15.368 7.75 20.808 2.86 5.44 6.12 9.452 9.8 12.036 3.74 2.584 8.09 3.876 13.05 3.876 3.2 0 5.88-.374 8.06-1.122 2.18-.816 3.91-1.938 5.2-3.366a12.952 12.952 0 0 0 2.96-4.896c.61-1.904.92-3.944.92-6.12 0-2.856-.55-5.44-1.63-7.752-1.09-2.38-2.62-4.25-4.59-5.61-1.98-1.36-4.29-2.04-6.94-2.04-2.72 0-4.69.578-5.92 1.734-1.15 1.156-1.73 2.686-1.73 4.59 0 .68.07 1.394.2 2.142.14.748.38 1.598.72 2.55l-7.86 1.53c-.4-1.292-.74-2.55-1.02-3.774a23.37 23.37 0 0 1-.3-3.774c0-2.652.64-4.862 1.94-6.63 1.36-1.836 3.19-3.23 5.5-4.182 2.38-.952 5.07-1.428 8.06-1.428 4.22 0 7.92.986 11.12 2.958 3.2 1.904 5.71 4.59 7.55 8.058 1.83 3.468 2.75 7.48 2.75 12.036 0 4.284-.92 8.16-2.75 11.628-1.77 3.4-4.49 6.12-8.16 8.16s-8.3 3.06-13.87 3.06Zm31.62-58.344v7.242h-74.16v-7.242h74.16Zm-41.25 90.576c-1.84 0-3.84-.408-6.02-1.224-2.17-.748-4.01-1.972-5.51-3.672-1.56-1.7-2.34-3.978-2.34-6.834 0-3.468 1.32-6.256 3.98-8.364 2.65-2.04 6.35-3.06 11.11-3.06 4.22 0 8.3.748 12.24 2.244 3.88 1.564 7.86 3.706 11.94 6.426 4.01 2.72 8.29 5.882 12.85 9.486l-4.59 5.508c-4.56-3.808-8.7-6.97-12.44-9.486-3.74-2.516-7.28-4.42-10.61-5.712-3.33-1.292-6.63-1.938-9.9-1.938-2.44 0-4.28.476-5.5 1.428-1.23.952-1.84 2.176-1.84 3.672 0 1.904.68 3.23 2.04 3.978 1.29.816 2.82 1.224 4.59 1.224 2.52 0 4.56-.544 6.12-1.632 1.5-1.02 2.65-2.312 3.47-3.876a16.087 16.087 0 0 0 1.63-4.896c.27-1.632.41-3.094.41-4.386v-14.28h7.24v13.056c0 1.836-.2 4.012-.61 6.528s-1.23 4.964-2.45 7.344c-1.29 2.448-3.2 4.454-5.71 6.018-2.52 1.632-5.88 2.448-10.1 2.448Zm102.86-90.576v7.242h-10.71V701h-7.86v-24.786l1.63 5.712a59.01 59.01 0 0 0-7.34-8.466c-2.65-2.516-5.37-4.522-8.16-6.018-2.79-1.496-5.51-2.244-8.16-2.244-2.52 0-4.66.68-6.43 2.04-1.7 1.292-2.55 3.23-2.55 5.814 0 2.04.72 3.808 2.15 5.304 1.42 1.428 3.63 2.72 6.63 3.876l-3.88 7.242c-4.15-1.7-7.41-3.978-9.79-6.834-2.31-2.924-3.47-6.222-3.47-9.894 0-3.332.78-6.086 2.35-8.262 1.63-2.244 3.67-3.91 6.12-4.998 2.51-1.088 5.06-1.632 7.65-1.632 3.53 0 6.76.612 9.69 1.836 2.92 1.224 5.64 2.89 8.16 4.998 2.58 2.108 5.03 4.556 7.34 7.344l-1.43.408c-.2-1.564-.34-3.094-.41-4.59a122.4 122.4 0 0 1-.1-4.692v-18.36h-45.08v-7.242h63.65ZM1676.4 678.968v5.916c0 5.372-1.87 9.418-5.61 12.138-3.74 2.652-9.35 3.978-16.83 3.978-14.89 0-22.34-5.372-22.34-16.116v-23.052c-1.77-2.244-3.06-3.978-3.87-5.202-.75-1.224-1.13-2.278-1.13-3.162 0-.68.07-1.258.21-1.734.2-.544.54-1.156 1.02-1.836.54-.748 1.32-1.768 2.34-3.06 1.09-1.36 2.52-3.23 4.29-5.61h28.86c1.36 0 2.32-.204 2.86-.612.54-.408.82-1.02.82-1.836v-6.528h9.38v6.528c0 3.128-.88 5.474-2.65 7.038-1.7 1.496-4.25 2.244-7.65 2.244h-31.42c-.27.408-.51.748-.71 1.02-.21.204-.34.374-.41.51a.877.877 0 0 0-.1.408c0 .544.24 1.224.71 2.04.55.816 1.36 1.87 2.45 3.162 1.16 1.292 2.62 2.958 4.39 4.998v24.684c0 3.06 1.05 5.372 3.16 6.936 2.17 1.564 5.44 2.346 9.79 2.346 4.42 0 7.68-.782 9.79-2.346 2.18-1.564 3.27-3.876 3.27-6.936v-5.916h9.38Zm0 1.836h-9.38v-4.794c-2.32 0-4.32-.34-6.02-1.02-1.7-.748-3.03-1.802-3.98-3.162-.95-1.428-1.43-3.162-1.43-5.202 0-3.4 1.23-5.984 3.67-7.752 2.45-1.768 5.38-2.652 8.78-2.652 2.58 0 4.62.51 6.12 1.53 1.49 1.02 2.24 2.516 2.24 4.488v18.564Zm-9.38-11.73v-6.018c-.96 0-1.81.136-2.55.408-.68.204-1.19.544-1.53 1.02-.34.408-.51.952-.51 1.632 0 1.02.37 1.768 1.12 2.244.81.476 1.97.714 3.47.714Zm5.12 53.814c-1.36 0-2.52-.306-3.47-.918-1.02-.612-1.8-1.394-2.34-2.346a8.656 8.656 0 0 1-1.13-2.856h-30.49v-6.12h30.49v-10.2h8.37v10.2c1.7.272 2.96.986 3.77 2.142.75 1.224 1.12 2.482 1.12 3.774 0 1.156-.23 2.21-.71 3.162-.54.952-1.29 1.7-2.24 2.244-.96.612-2.08.918-3.37.918Zm.88-88.656h-6.83v-22.338h6.83v22.338Zm-37.33 0c-1.7 0-2.96-.612-3.77-1.836-.82-1.224-1.23-3.094-1.23-5.61 0-2.244.61-4.284 1.84-6.12 1.15-1.904 2.89-3.434 5.2-4.59 2.31-1.156 5.13-1.734 8.47-1.734 2.44 0 4.89.34 7.34 1.02a39.57 39.57 0 0 1 7.14 2.754 54.502 54.502 0 0 1 6.53 3.978 78.234 78.234 0 0 1 5.81 4.692v7.446h-37.33Zm2.55-6.426h25.3c-1.84-1.36-3.57-2.482-5.21-3.366-1.7-.884-3.26-1.598-4.69-2.142-1.49-.544-2.85-.918-4.08-1.122-1.22-.272-2.34-.408-3.36-.408-2.52 0-4.46.51-5.82 1.53-1.43 1.02-2.14 2.856-2.14 5.508Z" fill="#3C4043"/><path d="M288.525 351.8h3.024v22.392h13.176V377h-16.2v-25.2Zm35.327 18.936h-10.8L311.216 377h-3.24l7.632-25.2h5.688l7.632 25.2h-3.24l-1.836-6.264Zm-5.616-17.64-4.356 14.832h9.144l-4.356-14.832h-.432Zm13.403-1.296h17.712v2.808h-7.344V377h-3.024v-22.392h-7.344V351.8Zm22.906 0h15.984v2.808h-6.48v19.584h6.48V377h-15.984v-2.808h6.48v-19.584h-6.48V351.8Zm34.967 23.904h.432V351.8h3.024V377h-6.048l-7.272-23.904h-.432V377h-3.024v-25.2h6.048l7.272 23.904ZM266.734 399.8h15.264v2.808h-12.24v8.352h12.024v2.808h-12.024v8.424h12.456V425h-15.48v-25.2Zm34.607 23.904h.432V399.8h3.024V425h-6.048l-7.272-23.904h-.432V425h-3.024v-25.2h6.048l7.272 23.904Zm14.699-10.8h11.232V425h-2.808v-3.024h-.432c-.408 1.056-1.128 1.908-2.16 2.556-1.032.648-2.232.972-3.6.972-2.712 0-4.848-.876-6.408-2.628-1.536-1.752-2.304-4.308-2.304-7.668v-5.616c0-3.264.78-5.796 2.34-7.596 1.56-1.8 3.732-2.7 6.516-2.7 1.44 0 2.712.24 3.816.72 1.104.456 2.028 1.104 2.772 1.944.744.816 1.308 1.788 1.692 2.916.384 1.104.576 2.292.576 3.564v.432h-3.024v-.432a7.92 7.92 0 0 0-.36-2.376 5.383 5.383 0 0 0-1.044-2.016c-.456-.6-1.056-1.068-1.8-1.404-.72-.36-1.596-.54-2.628-.54-1.944 0-3.408.708-4.392 2.124-.96 1.416-1.44 3.276-1.44 5.58v5.184c0 2.472.48 4.38 1.44 5.724.984 1.32 2.472 1.98 4.464 1.98 1.8 0 3.204-.576 4.212-1.728 1.032-1.152 1.548-2.76 1.548-4.824v-.432h-8.208v-2.808Zm16.571-13.104h3.024v22.392h13.176V425h-16.2v-25.2Zm21.934 0h15.984v2.808h-6.48v19.584h6.48V425h-15.984v-2.808h6.48v-19.584h-6.48V399.8Zm35.975 7.272c0-.816-.168-1.536-.504-2.16a4.27 4.27 0 0 0-1.296-1.548 6.154 6.154 0 0 0-1.908-.936 7.85 7.85 0 0 0-2.268-.324c-.696 0-1.356.096-1.98.288a5.694 5.694 0 0 0-1.692.756c-.48.336-.864.756-1.152 1.26-.288.48-.432 1.044-.432 1.692v.216c0 .696.144 1.296.432 1.8.288.48.708.9 1.26 1.26.576.336 1.284.624 2.124.864.84.216 1.824.408 2.952.576 2.64.408 4.584 1.188 5.832 2.34 1.248 1.128 1.872 2.652 1.872 4.572v.432c0 1.08-.192 2.076-.576 2.988a6.023 6.023 0 0 1-1.656 2.304c-.72.648-1.62 1.152-2.7 1.512-1.08.36-2.328.54-3.744.54-1.608 0-3.036-.228-4.284-.684-1.224-.48-2.256-1.128-3.096-1.944a8.68 8.68 0 0 1-1.872-2.916c-.432-1.128-.648-2.352-.648-3.672v-1.08h3.024v.864c0 2.208.6 3.864 1.8 4.968 1.224 1.104 2.916 1.656 5.076 1.656 1.872 0 3.276-.408 4.212-1.224.96-.84 1.44-1.944 1.44-3.312v-.216c0-1.32-.492-2.328-1.476-3.024-.96-.696-2.532-1.2-4.716-1.512-1.272-.168-2.424-.42-3.456-.756-1.008-.36-1.872-.816-2.592-1.368a5.91 5.91 0 0 1-1.656-2.052c-.384-.792-.576-1.728-.576-2.808v-.432c0-.984.204-1.884.612-2.7a6.563 6.563 0 0 1 1.692-2.124c.744-.6 1.62-1.056 2.628-1.368 1.032-.336 2.16-.504 3.384-.504 1.416 0 2.676.204 3.78.612 1.128.408 2.076.96 2.844 1.656a6.386 6.386 0 0 1 1.728 2.412c.408.912.612 1.872.612 2.88v1.512h-3.024v-1.296Zm7.715-7.272h3.024v11.16h10.728V399.8h3.024V425h-3.024v-11.232h-10.728V425h-3.024v-25.2ZM625.525 351.8h3.024v22.392h13.176V377h-16.2v-25.2Zm35.327 18.936h-10.8L648.216 377h-3.24l7.632-25.2h5.688l7.632 25.2h-3.24l-1.836-6.264Zm-5.616-17.64-4.356 14.832h9.144l-4.356-14.832h-.432Zm13.403-1.296h17.712v2.808h-7.344V377h-3.024v-22.392h-7.344V351.8Zm22.906 0h15.984v2.808h-6.48v19.584h6.48V377h-15.984v-2.808h6.48v-19.584h-6.48V351.8Zm34.967 23.904h.432V351.8h3.024V377h-6.048l-7.272-23.904h-.432V377h-3.024v-25.2h6.048l7.272 23.904ZM568.257 399.8h3.24l6.588 23.904h.432l6.588-23.904h3.24l-7.128 25.2h-5.832l-7.128-25.2Zm24.095 0h15.984v2.808h-6.48v19.584h6.48V425h-15.984v-2.808h6.48v-19.584h-6.48V399.8Zm22.403 0h15.264v2.808h-12.24v8.352h12.024v2.808h-12.024v8.424h12.456V425h-15.48v-25.2Zm20.819 0h17.712v2.808h-7.344V425h-3.024v-22.392h-7.344V399.8Zm35.831 23.904h.432V399.8h3.024V425h-6.048l-7.272-23.904h-.432V425h-3.024v-25.2h6.048l7.272 23.904Zm22.511-4.968h-10.8L681.28 425h-3.24l7.632-25.2h5.688l7.632 25.2h-3.24l-1.836-6.264Zm-5.616-17.64-4.356 14.832h9.144l-4.356-14.832h-.432Zm12.899-1.296h5.76l3.384 23.904h.432l3.384-23.904h5.76V425h-2.808v-23.904h-.432L713.295 425h-5.472l-3.384-23.904h-.432V425h-2.808v-25.2Zm23.771 0h15.264v2.808h-12.24v8.352h12.024v2.808h-12.024v8.424h12.456V425h-15.48v-25.2Zm35.615 7.272c0-.816-.168-1.536-.504-2.16a4.27 4.27 0 0 0-1.296-1.548 6.154 6.154 0 0 0-1.908-.936 7.85 7.85 0 0 0-2.268-.324c-.696 0-1.356.096-1.98.288a5.694 5.694 0 0 0-1.692.756c-.48.336-.864.756-1.152 1.26-.288.48-.432 1.044-.432 1.692v.216c0 .696.144 1.296.432 1.8.288.48.708.9 1.26 1.26.576.336 1.284.624 2.124.864.84.216 1.824.408 2.952.576 2.64.408 4.584 1.188 5.832 2.34 1.248 1.128 1.872 2.652 1.872 4.572v.432c0 1.08-.192 2.076-.576 2.988a6.023 6.023 0 0 1-1.656 2.304c-.72.648-1.62 1.152-2.7 1.512-1.08.36-2.328.54-3.744.54-1.608 0-3.036-.228-4.284-.684-1.224-.48-2.256-1.128-3.096-1.944a8.68 8.68 0 0 1-1.872-2.916c-.432-1.128-.648-2.352-.648-3.672v-1.08h3.024v.864c0 2.208.6 3.864 1.8 4.968 1.224 1.104 2.916 1.656 5.076 1.656 1.872 0 3.276-.408 4.212-1.224.96-.84 1.44-1.944 1.44-3.312v-.216c0-1.32-.492-2.328-1.476-3.024-.96-.696-2.532-1.2-4.716-1.512-1.272-.168-2.424-.42-3.456-.756-1.008-.36-1.872-.816-2.592-1.368a5.91 5.91 0 0 1-1.656-2.052c-.384-.792-.576-1.728-.576-2.808v-.432c0-.984.204-1.884.612-2.7a6.563 6.563 0 0 1 1.692-2.124c.744-.6 1.62-1.056 2.628-1.368 1.032-.336 2.16-.504 3.384-.504 1.416 0 2.676.204 3.78.612 1.128.408 2.076.96 2.844 1.656a6.386 6.386 0 0 1 1.728 2.412c.408.912.612 1.872.612 2.88v1.512h-3.024v-1.296Zm8.471-7.272h15.264v2.808h-12.24v8.352h12.024v2.808H772.08v8.424h12.456V425h-15.48v-25.2ZM909.913 351.8h8.28c3.12 0 5.4.744 6.84 2.232 1.44 1.488 2.16 3.864 2.16 7.128v6.48c0 3.264-.72 5.64-2.16 7.128-1.44 1.488-3.72 2.232-6.84 2.232h-8.28v-2.844h2.16v-19.548h-2.16V351.8Zm7.848 22.392c1.104 0 2.052-.108 2.844-.324.816-.216 1.488-.576 2.016-1.08.528-.528.912-1.224 1.152-2.088.264-.864.396-1.956.396-3.276v-6.048c0-1.32-.132-2.412-.396-3.276-.24-.864-.624-1.548-1.152-2.052-.528-.528-1.2-.9-2.016-1.116-.792-.216-1.74-.324-2.844-.324h-2.664v19.584h2.664Zm14.951-22.392h15.264v2.808h-12.24v8.352h12.024v2.808h-12.024v8.424h12.456V377h-15.48v-25.2Zm19.631 0h3.24l6.588 23.904h.432l6.588-23.904h3.24l-7.128 25.2h-5.832l-7.128-25.2Zm37.487 18.936h-10.8L977.194 377h-3.24l7.632-25.2h5.688l7.632 25.2h-3.24l-1.836-6.264Zm-5.616-17.64-4.356 14.832h9.144l-4.356-14.832h-.432Zm27.196 22.608h.43V351.8h3.02V377h-6.05l-7.27-23.904h-.43V377h-3.025v-25.2h6.045l7.28 23.904Zm22.51-4.968h-10.8l-1.84 6.264h-3.24l7.63-25.2h5.69l7.63 25.2h-3.24l-1.83-6.264Zm-5.62-17.64-4.36 14.832h9.15l-4.36-14.832h-.43Zm19.85 11.808h11.23V377h-2.81v-3.024h-.43c-.41 1.056-1.13 1.908-2.16 2.556-1.03.648-2.23.972-3.6.972-2.71 0-4.85-.876-6.41-2.628-1.54-1.752-2.3-4.308-2.3-7.668v-5.616c0-3.264.78-5.796 2.34-7.596 1.56-1.8 3.73-2.7 6.51-2.7 1.44 0 2.71.24 3.82.72 1.1.456 2.03 1.104 2.77 1.944a8.177 8.177 0 0 1 1.69 2.916c.39 1.104.58 2.292.58 3.564v.432h-3.03v-.432a7.92 7.92 0 0 0-.36-2.376 5.29 5.29 0 0 0-1.04-2.016 4.636 4.636 0 0 0-1.8-1.404c-.72-.36-1.6-.54-2.63-.54-1.94 0-3.41.708-4.39 2.124-.96 1.416-1.44 3.276-1.44 5.58v5.184c0 2.472.48 4.38 1.44 5.724.98 1.32 2.47 1.98 4.46 1.98 1.8 0 3.21-.576 4.22-1.728 1.03-1.152 1.54-2.76 1.54-4.824v-.432h-8.2v-2.808Zm29.85 5.832h-10.8l-1.83 6.264h-3.24l7.63-25.2h5.69l7.63 25.2h-3.24l-1.84-6.264Zm-5.61-17.64-4.36 14.832h9.14l-4.35-14.832h-.43ZM1102.53 377h-3.03v-8.424c0-.624-.14-1.104-.43-1.44-.29-.336-.79-.504-1.51-.504h-7.85V377h-3.02v-25.2h9c1.29 0 2.42.192 3.38.576.96.36 1.75.852 2.38 1.476a5.783 5.783 0 0 1 1.44 2.196c.33.816.5 1.68.5 2.592v1.08c0 .936-.26 1.872-.79 2.808-.5.936-1.3 1.656-2.38 2.16v.432c.72.12 1.29.408 1.7.864.4.456.61 1.104.61 1.944V377Zm-12.82-13.176h5.62c1.7 0 2.96-.36 3.78-1.08.84-.744 1.26-1.824 1.26-3.24v-.648c0-1.272-.42-2.292-1.26-3.06-.82-.792-2.08-1.188-3.78-1.188h-5.62v9.216Zm18.99-12.024h15.98v2.808h-6.48v19.584h6.48V377h-15.98v-2.808h6.48v-19.584h-6.48V351.8Zm-166.694 48h5.76l3.384 23.904h.432l3.384-23.904h5.76V425h-2.808v-23.904h-.432L954.102 425h-5.472l-3.384-23.904h-.432V425h-2.808v-25.2Zm36.803 18.936h-10.8L966.173 425h-3.24l7.632-25.2h5.688l7.632 25.2h-3.24l-1.836-6.264Zm-5.616-17.64-4.356 14.832h9.144l-4.356-14.832h-.432ZM1003.34 425h-3.03v-8.424c0-.624-.14-1.104-.43-1.44-.288-.336-.792-.504-1.512-.504h-7.848V425h-3.024v-25.2h9c1.296 0 2.424.192 3.384.576.96.36 1.75.852 2.38 1.476a6.027 6.027 0 0 1 1.44 2.196c.33.816.5 1.68.5 2.592v1.08c0 .936-.26 1.872-.79 2.808-.51.936-1.3 1.656-2.38 2.16v.432c.72.12 1.29.408 1.69.864.41.456.62 1.104.62 1.944V425Zm-12.82-13.176h5.616c1.704 0 2.964-.36 3.78-1.08.844-.744 1.264-1.824 1.264-3.24v-.648c0-1.272-.42-2.292-1.264-3.06-.816-.792-2.076-1.188-3.78-1.188h-5.616v9.216Zm32.37 6.912h-10.8l-1.83 6.264h-3.24l7.63-25.2h5.69l7.63 25.2h-3.24l-1.84-6.264Zm-5.61-17.64-4.36 14.832h9.15l-4.36-14.832h-.43Zm13.4-1.296h17.71v2.808h-7.34V425h-3.02v-22.392h-7.35V399.8Zm22.51 0h3.03v11.16h10.72V399.8h3.03V425h-3.03v-11.232h-10.72V425h-3.03v-25.2Zm22.44 0h15.99v2.808h-6.48v19.584h6.48V425h-15.99v-2.808h6.48v-19.584h-6.48V399.8ZM1292.4 374.192h2.16v-19.584h-2.16V351.8h10.19c1.2 0 2.26.168 3.17.504.93.336 1.71.792 2.34 1.368a5.231 5.231 0 0 1 1.44 2.088c.33.792.5 1.656.5 2.592v.432c0 .696-.11 1.332-.32 1.908a5.417 5.417 0 0 1-.9 1.548c-.39.456-.84.852-1.37 1.188a6.38 6.38 0 0 1-1.66.72v.432c1.2.336 2.21.984 3.03 1.944.81.936 1.22 2.088 1.22 3.456v.432c0 .936-.17 1.812-.5 2.628a5.587 5.587 0 0 1-1.44 2.088c-.63.576-1.41 1.032-2.34 1.368-.91.336-1.97.504-3.17.504h-10.19v-2.808Zm5.19 0h4.78c1.42 0 2.57-.348 3.46-1.044.89-.72 1.33-1.704 1.33-2.952v-.216c0-1.296-.42-2.316-1.26-3.06-.84-.768-1.98-1.152-3.42-1.152h-4.89v8.424Zm0-11.232h4.89c1.44 0 2.58-.372 3.42-1.116.84-.744 1.26-1.764 1.26-3.06v-.216c0-1.224-.44-2.184-1.33-2.88-.89-.72-2.04-1.08-3.46-1.08h-4.78v8.352Zm18.19-11.16h15.26v2.808h-12.24v8.352h12.02v2.808h-12.02v8.424h12.46V377h-15.48v-25.2Zm34.6 23.904h.44V351.8h3.02V377h-6.05l-7.27-23.904h-.43V377h-3.03v-25.2h6.05l7.27 23.904Zm14.7-10.8h11.23V377h-2.8v-3.024h-.44c-.4 1.056-1.12 1.908-2.16 2.556-1.03.648-2.23.972-3.6.972-2.71 0-4.84-.876-6.4-2.628-1.54-1.752-2.31-4.308-2.31-7.668v-5.616c0-3.264.78-5.796 2.34-7.596 1.56-1.8 3.73-2.7 6.52-2.7 1.44 0 2.71.24 3.81.72a7.458 7.458 0 0 1 2.78 1.944c.74.816 1.3 1.788 1.69 2.916.38 1.104.57 2.292.57 3.564v.432h-3.02v-.432a7.92 7.92 0 0 0-.36-2.376c-.22-.768-.56-1.44-1.04-2.016a4.636 4.636 0 0 0-1.8-1.404c-.72-.36-1.6-.54-2.63-.54-1.95 0-3.41.708-4.39 2.124-.96 1.416-1.44 3.276-1.44 5.58v5.184c0 2.472.48 4.38 1.44 5.724.98 1.32 2.47 1.98 4.46 1.98 1.8 0 3.2-.576 4.21-1.728 1.03-1.152 1.55-2.76 1.55-4.824v-.432h-8.21v-2.808Zm29.86 5.832h-10.8L1382.3 377h-3.24l7.63-25.2h5.69l7.63 25.2h-3.24l-1.83-6.264Zm-5.62-17.64-4.35 14.832h9.14l-4.36-14.832h-.43Zm14.38-1.296h3.02v22.392h13.18V377h-16.2v-25.2Zm21.93 0h15.99v2.808h-6.48v19.584h6.48V377h-15.99v-2.808h6.48v-19.584h-6.48V351.8ZM1603.62 377h-3.02v-25.2h3.02v11.16h.83l9.68-11.16h3.75v.216l-10.44 12.168v.432l10.87 12.168V377h-3.82l-10.04-11.232h-.83V377Zm18.44-25.2h3.03v11.16h10.73V351.8h3.02V377h-3.02v-11.232h-10.73V377h-3.03v-25.2Zm21.07 0h5.76l3.39 23.904h.43l3.38-23.904h5.76V377h-2.8v-23.904h-.44L1655.23 377h-5.47l-3.39-23.904h-.43V377h-2.81v-25.2Zm23.78 0h15.26v2.808h-12.24v8.352h12.02v2.808h-12.02v8.424h12.46V377h-15.48v-25.2Zm37.55 25.2h-3.02v-8.424c0-.624-.14-1.104-.43-1.44-.29-.336-.79-.504-1.51-.504h-7.85V377h-3.03v-25.2h9c1.3 0 2.43.192 3.39.576.96.36 1.75.852 2.37 1.476a5.783 5.783 0 0 1 1.44 2.196c.34.816.51 1.68.51 2.592v1.08c0 .936-.27 1.872-.79 2.808-.51.936-1.3 1.656-2.38 2.16v.432c.72.12 1.28.408 1.69.864.41.456.61 1.104.61 1.944V377Zm-12.81-13.176h5.61c1.71 0 2.97-.36 3.78-1.08.84-.744 1.26-1.824 1.26-3.24v-.648c0-1.272-.42-2.292-1.26-3.06-.81-.792-2.07-1.188-3.78-1.188h-5.61v9.216Z" fill="#FF6D7F"/></svg>