<svg width="1920" height="1080" viewBox="0 0 1920 1080" fill="none" xmlns="http://www.w3.org/2000/svg">
<path d="M1459 594.864V443H1471.19V586.159L1469.16 594.864H1459ZM1480.09 595.445C1476.22 595.445 1472.8 593.51 1469.83 589.641C1466.93 585.772 1465.48 580.677 1465.48 574.358L1471.19 568.457C1471.19 573.165 1471.54 577.292 1472.25 580.839C1473.03 584.385 1474.03 586.159 1475.25 586.159C1476.8 586.159 1477.57 583.225 1477.57 577.356C1477.57 571.424 1477.57 557.849 1477.57 536.634C1477.57 515.547 1477.57 502.037 1477.57 496.104C1477.57 490.107 1476.8 487.108 1475.25 487.108C1474.03 487.108 1473.03 488.914 1472.25 492.525C1471.54 496.136 1471.19 500.199 1471.19 504.713L1465.48 498.909C1465.48 492.59 1466.93 487.495 1469.83 483.626C1472.8 479.757 1476.22 477.822 1480.09 477.822C1486.47 477.822 1489.66 482.53 1489.66 491.945C1489.66 501.295 1489.66 516.191 1489.66 536.634C1489.66 557.011 1489.66 571.907 1489.66 581.322C1489.66 590.737 1486.47 595.445 1480.09 595.445Z" fill="#3C4043"/>
<path d="M1510.46 595.541C1500.28 595.541 1495.18 590.092 1495.18 579.194C1495.18 568.296 1495.18 554.174 1495.18 536.827C1495.18 516.449 1495.18 501.521 1495.18 492.042C1495.18 482.498 1500.31 477.726 1510.56 477.726C1520.81 477.726 1525.94 482.369 1525.94 491.655C1525.94 500.941 1525.94 515.901 1525.94 536.537C1525.94 538.02 1525.94 539.471 1525.94 540.89H1506.11V532.377H1514.72L1513.66 534.022C1513.66 515.45 1513.66 503.004 1513.66 496.684C1513.66 490.3 1512.62 487.108 1510.56 487.108C1508.5 487.108 1507.47 490.3 1507.47 496.684C1507.47 503.004 1507.47 516.224 1507.47 536.343C1507.47 554.012 1507.47 566.748 1507.47 574.551C1507.47 582.29 1508.47 586.159 1510.46 586.159V595.541ZM1510.46 586.159C1511.24 586.159 1511.82 585.546 1512.21 584.321C1512.66 583.031 1512.98 581 1513.17 578.227C1513.37 575.454 1513.5 571.875 1513.56 567.49C1513.62 563.04 1513.66 557.688 1513.66 551.433H1525.94C1525.94 558.14 1525.84 563.943 1525.65 568.844C1525.46 573.745 1525.07 577.937 1524.49 581.419C1523.91 584.837 1523.07 587.577 1521.98 589.641C1520.88 591.704 1519.36 593.22 1517.43 594.187C1515.56 595.09 1513.24 595.541 1510.46 595.541L1509.69 591.285L1510.46 586.159Z" fill="#3C4043"/>
<path d="M1547.89 595.541C1540.99 595.541 1536.61 592.994 1534.74 587.9C1532.87 582.805 1531.93 571.037 1531.93 552.594H1544.61C1544.61 567.168 1544.7 576.421 1544.9 580.355C1545.09 584.224 1546.06 586.159 1547.8 586.159C1549.6 586.159 1550.54 584.708 1550.6 581.806C1550.67 578.904 1550.7 574.197 1550.7 567.683C1550.7 558.526 1550.22 552.368 1549.25 549.208C1548.28 545.984 1545.89 543.243 1542.09 540.986C1537.12 538.213 1534.13 534.796 1533.09 530.733C1532.06 526.67 1531.55 519.093 1531.55 508.002C1531.55 498.651 1532.45 491.3 1534.26 485.948C1536.06 480.531 1540.41 477.822 1547.31 477.822C1554.21 477.822 1558.57 480.789 1560.37 486.721C1562.24 492.654 1563.18 503.939 1563.18 520.577H1550.51C1550.51 507.808 1550.41 499.038 1550.22 494.266C1550.09 489.494 1549.12 487.108 1547.31 487.108C1545.57 487.108 1544.61 489.075 1544.41 493.009C1544.22 496.942 1544.12 502.037 1544.12 508.292C1544.12 516.546 1544.61 521.898 1545.57 524.349C1546.54 526.735 1548.86 529.024 1552.54 531.217C1557.5 533.99 1560.53 537.794 1561.63 542.631C1562.73 547.403 1563.27 555.496 1563.27 566.91C1563.27 577.485 1562.4 584.901 1560.66 589.157C1558.92 593.413 1554.66 595.541 1547.89 595.541Z" fill="#3C4043"/>
<path d="M1568.76 637.425V478.79H1579.6L1580.95 490.687V637.425H1568.76ZM1589.85 595.445C1585.98 595.445 1582.56 593.51 1579.6 589.641C1576.7 585.772 1575.25 580.677 1575.25 574.358L1580.95 568.457C1580.95 573.165 1581.31 577.292 1582.02 580.839C1582.79 584.385 1583.79 586.159 1585.02 586.159C1586.56 586.159 1587.34 583.225 1587.34 577.356C1587.34 571.424 1587.34 557.849 1587.34 536.634C1587.34 515.547 1587.34 502.037 1587.34 496.104C1587.34 490.107 1586.56 487.108 1585.02 487.108C1583.79 487.108 1582.79 488.914 1582.02 492.525C1581.31 496.136 1580.95 500.199 1580.95 504.713L1575.25 498.909C1575.25 492.59 1576.7 487.495 1579.6 483.626C1582.56 479.757 1585.98 477.822 1589.85 477.822C1596.24 477.822 1599.43 482.53 1599.43 491.945C1599.43 501.295 1599.43 516.191 1599.43 536.634C1599.43 557.011 1599.43 571.907 1599.43 581.322C1599.43 590.737 1596.24 595.445 1589.85 595.445Z" fill="#3C4043"/>
<path d="M1620.23 595.541C1610.04 595.541 1604.95 591.124 1604.95 582.29C1604.95 573.39 1604.95 558.204 1604.95 536.73C1604.95 515.192 1604.95 499.973 1604.95 491.074C1604.95 482.111 1610.04 477.629 1620.23 477.629C1630.42 477.629 1635.51 482.111 1635.51 491.074C1635.51 499.973 1635.51 515.192 1635.51 536.73C1635.51 558.204 1635.51 573.39 1635.51 582.29C1635.51 591.124 1630.42 595.541 1620.23 595.541ZM1620.23 586.159C1622.23 586.159 1623.23 583.225 1623.23 577.356C1623.23 571.424 1623.23 557.882 1623.23 536.73C1623.23 515.579 1623.23 502.005 1623.23 496.007C1623.23 490.01 1622.23 487.012 1620.23 487.012C1618.17 487.012 1617.13 490.01 1617.13 496.007C1617.13 502.005 1617.13 515.579 1617.13 536.73C1617.13 557.882 1617.13 571.424 1617.13 577.356C1617.13 583.225 1618.17 586.159 1620.23 586.159Z" fill="#3C4043"/>
<path d="M1640.93 594.864V443H1653.12V535.183L1651.67 534.022L1661.83 478.79H1674.21L1663.95 522.608L1664.54 518.545L1674.4 594.864H1661.92L1655.44 528.605L1658.83 528.412L1652.83 552.207L1653.12 544.372V594.864H1640.93Z" fill="#3C4043"/>
<path d="M1692.59 595.541C1682.4 595.541 1677.3 590.092 1677.3 579.194C1677.3 568.296 1677.3 554.174 1677.3 536.827C1677.3 516.449 1677.3 501.521 1677.3 492.042C1677.3 482.498 1682.43 477.726 1692.68 477.726C1702.94 477.726 1708.06 482.369 1708.06 491.655C1708.06 500.941 1708.06 515.901 1708.06 536.537C1708.06 538.02 1708.06 539.471 1708.06 540.89H1688.23V532.377H1696.84L1695.78 534.022C1695.78 515.45 1695.78 503.004 1695.78 496.684C1695.78 490.3 1694.75 487.108 1692.68 487.108C1690.62 487.108 1689.59 490.3 1689.59 496.684C1689.59 503.004 1689.59 516.224 1689.59 536.343C1689.59 554.012 1689.59 566.748 1689.59 574.551C1689.59 582.29 1690.59 586.159 1692.59 586.159V595.541ZM1692.59 586.159C1693.36 586.159 1693.94 585.546 1694.33 584.321C1694.78 583.031 1695.1 581 1695.29 578.227C1695.49 575.454 1695.62 571.875 1695.68 567.49C1695.75 563.04 1695.78 557.688 1695.78 551.433H1708.06C1708.06 558.14 1707.97 563.943 1707.77 568.844C1707.58 573.745 1707.19 577.937 1706.61 581.419C1706.03 584.837 1705.19 587.577 1704.1 589.641C1703 591.704 1701.49 593.22 1699.55 594.187C1697.68 595.09 1695.36 595.541 1692.59 595.541L1691.81 591.285L1692.59 586.159ZM1685.82 473.853L1692.14 456.436H1704.53L1695.59 473.853H1685.82Z" fill="#3C4043"/>
<path d="M1854.4 456.436L1848.07 473.853H1857.85L1866.79 456.436H1854.4Z" fill="#3C4043"/>
<path d="M1730.76 637.594V478.959H1741.59L1742.95 490.857V637.594H1730.76ZM1751.85 595.614C1747.98 595.614 1744.56 593.679 1741.59 589.81C1738.69 585.941 1737.24 580.847 1737.24 574.527L1742.95 568.627C1742.95 573.334 1743.3 577.461 1744.01 581.008C1744.79 584.555 1745.78 586.328 1747.01 586.328C1748.56 586.328 1749.33 583.394 1749.33 577.526C1749.33 571.593 1749.33 558.019 1749.33 536.803C1749.33 515.716 1749.33 502.206 1749.33 496.273C1749.33 490.276 1748.56 487.278 1747.01 487.278C1745.78 487.278 1744.79 489.083 1744.01 492.694C1743.3 496.306 1742.95 500.368 1742.95 504.882L1737.24 499.079C1737.24 492.759 1738.69 487.665 1741.59 483.795C1744.56 479.926 1747.98 477.992 1751.85 477.992C1758.23 477.992 1761.42 482.699 1761.42 492.114C1761.42 501.465 1761.42 516.361 1761.42 536.803C1761.42 557.18 1761.42 572.077 1761.42 581.492C1761.42 590.907 1758.23 595.614 1751.85 595.614Z" fill="#3C4043"/>
<path d="M1782.22 595.711C1772.04 595.711 1766.94 591.293 1766.94 582.459C1766.94 573.56 1766.94 558.373 1766.94 536.9C1766.94 515.361 1766.94 500.143 1766.94 491.244C1766.94 482.28 1772.04 477.798 1782.22 477.798C1792.41 477.798 1797.51 482.28 1797.51 491.244C1797.51 500.143 1797.51 515.361 1797.51 536.9C1797.51 558.373 1797.51 573.56 1797.51 582.459C1797.51 591.293 1792.41 595.711 1782.22 595.711ZM1782.22 586.328C1784.22 586.328 1785.22 583.394 1785.22 577.526C1785.22 571.593 1785.22 558.051 1785.22 536.9C1785.22 515.748 1785.22 502.174 1785.22 496.177C1785.22 490.18 1784.22 487.181 1782.22 487.181C1780.16 487.181 1779.13 490.18 1779.13 496.177C1779.13 502.174 1779.13 515.748 1779.13 536.9C1779.13 558.051 1779.13 571.593 1779.13 577.526C1779.13 583.394 1780.16 586.328 1782.22 586.328Z" fill="#3C4043"/>
<path d="M1802.93 595.034V443.169H1815.12V535.352L1813.67 534.191L1823.82 478.959H1836.2L1825.95 522.777L1826.53 518.715L1836.4 595.034H1823.92L1817.44 528.774L1820.82 528.581L1814.83 552.376L1815.12 544.541V595.034H1802.93Z" fill="#3C4043"/>
<path d="M1854.58 595.711C1844.39 595.711 1839.3 590.262 1839.3 579.364C1839.3 568.465 1839.3 554.343 1839.3 536.996C1839.3 516.619 1839.3 501.69 1839.3 492.211C1839.3 482.667 1844.43 477.895 1854.68 477.895C1864.93 477.895 1870.06 482.538 1870.06 491.824C1870.06 501.11 1870.06 516.071 1870.06 536.706C1870.06 538.189 1870.06 539.64 1870.06 541.059H1850.23V532.547H1858.84L1857.77 534.191C1857.77 515.619 1857.77 503.173 1857.77 496.854C1857.77 490.47 1856.74 487.278 1854.68 487.278C1852.61 487.278 1851.58 490.47 1851.58 496.854C1851.58 503.173 1851.58 516.393 1851.58 536.513C1851.58 554.182 1851.58 566.918 1851.58 574.721C1851.58 582.459 1852.58 586.328 1854.58 586.328V595.711ZM1854.58 586.328C1855.36 586.328 1855.94 585.715 1856.32 584.49C1856.77 583.2 1857.1 581.169 1857.29 578.396C1857.48 575.623 1857.61 572.044 1857.68 567.659C1857.74 563.21 1857.77 557.857 1857.77 551.602H1870.06C1870.06 558.309 1869.96 564.113 1869.77 569.014C1869.57 573.914 1869.19 578.106 1868.61 581.588C1868.03 585.006 1867.19 587.747 1866.09 589.81C1865 591.874 1863.48 593.389 1861.55 594.357C1859.68 595.259 1857.35 595.711 1854.58 595.711L1853.81 591.455L1854.58 586.328Z" fill="#3C4043"/>
<mask id="path-3-inside-1_3529_16011" fill="white">
<path fill-rule="evenodd" clip-rule="evenodd" d="M864 523.235C864.172 575.981 906.984 618.688 959.771 618.688C1012.56 618.688 1055.37 575.981 1055.54 523.235H864Z"/>
</mask>
<path fill-rule="evenodd" clip-rule="evenodd" d="M864 523.235C864.172 575.981 906.984 618.688 959.771 618.688C1012.56 618.688 1055.37 575.981 1055.54 523.235H864Z" fill="#F3F7FE"/>
<path d="M864 523.235V510.508H851.231L851.273 523.276L864 523.235ZM1055.54 523.235L1068.27 523.276L1068.31 510.508H1055.54V523.235ZM959.771 605.961C913.999 605.961 876.876 568.929 876.727 523.193L851.273 523.276C851.467 583.033 899.969 631.415 959.771 631.415V605.961ZM1042.81 523.193C1042.67 568.929 1005.54 605.961 959.771 605.961V631.415C1019.57 631.415 1068.07 583.033 1068.27 523.276L1042.81 523.193ZM1055.54 510.508H864V535.962H1055.54V510.508Z" fill="#3C4043" mask="url(#path-3-inside-1_3529_16011)"/>
<mask id="path-5-inside-2_3529_16011" fill="white">
<path fill-rule="evenodd" clip-rule="evenodd" d="M1017.14 536.429C1017.46 533.967 1017.63 531.457 1017.63 528.908C1017.63 496.926 991.702 471 959.721 471C927.739 471 901.812 496.926 901.812 528.908C901.812 531.457 901.977 533.967 902.296 536.429H1017.14ZM964.074 586.655H955.367C956.805 586.762 958.256 586.816 959.721 586.816C961.185 586.816 962.637 586.762 964.074 586.655Z"/>
</mask>
<path fill-rule="evenodd" clip-rule="evenodd" d="M1017.14 536.429C1017.46 533.967 1017.63 531.457 1017.63 528.908C1017.63 496.926 991.702 471 959.721 471C927.739 471 901.812 496.926 901.812 528.908C901.812 531.457 901.977 533.967 902.296 536.429H1017.14ZM964.074 586.655H955.367C956.805 586.762 958.256 586.816 959.721 586.816C961.185 586.816 962.637 586.762 964.074 586.655Z" fill="#F3F7FE"/>
<path d="M1017.14 536.429V549.156H1028.33L1029.77 538.065L1017.14 536.429ZM902.296 536.429L889.675 538.065L891.113 549.156H902.296V536.429ZM964.074 586.655L965.017 599.347L964.074 573.928V586.655ZM955.367 586.655V573.928L954.424 599.347L955.367 586.655ZM1004.9 528.908C1004.9 530.908 1004.77 532.872 1004.52 534.792L1029.77 538.065C1030.16 535.062 1030.36 532.006 1030.36 528.908H1004.9ZM959.721 483.727C984.673 483.727 1004.9 503.955 1004.9 528.908H1030.36C1030.36 489.897 998.731 458.273 959.721 458.273V483.727ZM914.54 528.908C914.54 503.955 934.768 483.727 959.721 483.727V458.273C920.71 458.273 889.085 489.897 889.085 528.908H914.54ZM914.918 534.792C914.669 532.872 914.54 530.908 914.54 528.908H889.085C889.085 532.006 889.286 535.062 889.675 538.065L914.918 534.792ZM902.296 549.156H1017.14V523.702H902.296V549.156ZM964.074 573.928H955.367V599.382H964.074V573.928ZM959.721 574.089C958.571 574.089 957.434 574.047 956.311 573.963L954.424 599.347C956.175 599.477 957.941 599.543 959.721 599.543V574.089ZM963.131 573.963C962.007 574.047 960.87 574.089 959.721 574.089V599.543C961.5 599.543 963.266 599.477 965.017 599.347L963.131 573.963Z" fill="#3C4043" mask="url(#path-5-inside-2_3529_16011)"/>
<path d="M983.461 529.969C984.051 528.95 984.784 527.87 985.67 526.709C987.812 523.904 990.379 521.2 993.349 518.071C994.618 516.734 995.961 515.319 997.375 513.785C1005.02 505.504 1013.5 494.99 1015.95 480.083C1016.99 480.864 1018.1 481.874 1019.28 483.154C1022.87 487.06 1026.33 492.713 1029.36 499.287C1034.15 509.68 1037.4 521.331 1038.58 529.969H1038.57H1038.43H1038.3H1038.17H1038.03H1037.9H1037.77H1037.63H1037.5H1037.36H1037.23H1037.1H1036.96H1036.83H1036.69H1036.55H1036.42H1036.28H1036.15H1036.01H1035.88H1035.74H1035.6H1035.47H1035.33H1035.19H1035.06H1034.92H1034.78H1034.64H1034.51H1034.37H1034.23H1034.09H1033.95H1033.81H1033.68H1033.54H1033.4H1033.26H1033.12H1032.98H1032.84H1032.7H1032.56H1032.42H1032.28H1032.14H1032H1031.86H1031.72H1031.58H1031.44H1031.3H1031.15H1031.01H1030.87H1030.73H1030.59H1030.45H1030.3H1030.16H1030.02H1029.88H1029.74H1029.59H1029.45H1029.31H1029.17H1029.02H1028.88H1028.74H1028.59H1028.45H1028.31H1028.16H1028.02H1027.87H1027.73H1027.59H1027.44H1027.3H1027.15H1027.01H1026.86H1026.72H1026.57H1026.43H1026.28H1026.14H1025.99H1025.85H1025.7H1025.56H1025.41H1025.27H1025.12H1024.98H1024.83H1024.68H1024.54H1024.39H1024.25H1024.1H1023.95H1023.81H1023.66H1023.51H1023.37H1023.22H1023.07H1022.93H1022.78H1022.63H1022.49H1022.34H1022.19H1022.04H1021.9H1021.75H1021.6H1021.45H1021.31H1021.16H1021.01H1020.86H1020.72H1020.57H1020.42H1020.27H1020.12H1019.98H1019.83H1019.68H1019.53H1019.38H1019.24H1019.09H1018.94H1018.79H1018.64H1018.49H1018.34H1018.2H1018.05H1017.9H1017.75H1017.6H1017.45H1017.3H1017.16H1017.01H1016.86H1016.71H1016.56H1016.41H1016.26H1016.11H1015.96H1015.82H1015.67H1015.52H1015.37H1015.22H1015.07H1014.92H1014.77H1014.62H1014.47H1014.32H1014.18H1014.03H1013.88H1013.73H1013.58H1013.43H1013.28H1013.13H1012.98H1012.83H1012.68H1012.53H1012.39H1012.24H1012.09H1011.94H1011.79H1011.64H1011.49H1011.34H1011.19H1011.04H1010.89H1010.75H1010.6H1010.45H1010.3H1010.15H1010H1009.85H1009.7H1009.55H1009.41H1009.26H1009.11H1008.96H1008.81H1008.66H1008.51H1008.36H1008.22H1008.07H1007.92H1007.77H1007.62H1007.47H1007.32H1007.18H1007.03H1006.88H1006.73H1006.58H1006.44H1006.29H1006.14H1005.99H1005.84H1005.7H1005.55H1005.4H1005.25H1005.1H1004.96H1004.81H1004.66H1004.51H1004.37H1004.22H1004.07H1003.93H1003.78H1003.63H1003.48H1003.34H1003.19H1003.04H1002.9H1002.75H1002.6H1002.46H1002.31H1002.17H1002.02H1001.87H1001.73H1001.58H1001.44H1001.29H1001.14H1001H1000.85H1000.71H1000.56H1000.42H1000.27H1000.13H999.981H999.836H999.691H999.546H999.402H999.257H999.113H998.968H998.824H998.68H998.536H998.392H998.248H998.105H997.961H997.817H997.674H997.531H997.388H997.245H997.102H996.959H996.816H996.674H996.531H996.389H996.247H996.104H995.962H995.821H995.679H995.537H995.396H995.254H995.113H994.972H994.831H994.69H994.55H994.409H994.269H994.128H993.988H993.848H993.708H993.568H993.429H993.289H993.15H993.011H992.872H992.733H992.594H992.456H992.317H992.179H992.041H991.903H991.765H991.627H991.49H991.352H991.215H991.078H990.941H990.805H990.668H990.532H990.395H990.259H990.123H989.988H989.852H989.717H989.582H989.446H989.312H989.177H989.042H988.908H988.774H988.64H988.506H988.372H988.239H988.106H987.973H987.84H987.707H987.574H987.442H987.31H987.178H987.046H986.915H986.783H986.652H986.521H986.39H986.26H986.129H985.999H985.869H985.739H985.609H985.48H985.351H985.222H985.093H984.964H984.836H984.708H984.58H984.452H984.325H984.197H984.07H983.943H983.817H983.69H983.564H983.461Z" fill="#F3F7FE" stroke="#3C4043" stroke-width="12.7271"/>
<mask id="path-8-inside-3_3529_16011" fill="white">
<path fill-rule="evenodd" clip-rule="evenodd" d="M891.668 505.757C879.301 509.071 871.963 521.782 875.276 534.148L875.861 536.333H957.508C958.156 532.988 958.074 529.449 957.133 525.937L953.703 513.134C950.389 500.768 937.678 493.429 925.311 496.742L891.668 505.757Z"/>
</mask>
<path fill-rule="evenodd" clip-rule="evenodd" d="M891.668 505.757C879.301 509.071 871.963 521.782 875.276 534.148L875.861 536.333H957.508C958.156 532.988 958.074 529.449 957.133 525.937L953.703 513.134C950.389 500.768 937.678 493.429 925.311 496.742L891.668 505.757Z" fill="#F3F7FE"/>
<path d="M875.276 534.148L887.57 530.854H887.57L875.276 534.148ZM891.668 505.757L888.374 493.464H888.374L891.668 505.757ZM875.861 536.333L863.568 539.627L866.096 549.06H875.861V536.333ZM957.508 536.333V549.06H968.005L970.002 538.755L957.508 536.333ZM957.133 525.937L969.427 522.643V522.643L957.133 525.937ZM953.703 513.134L941.409 516.428V516.428L953.703 513.134ZM925.311 496.742L928.605 509.036L925.311 496.742ZM887.57 530.854C886.075 525.277 889.385 519.545 894.962 518.051L888.374 493.464C869.218 498.597 857.85 518.286 862.983 537.442L887.57 530.854ZM888.155 533.039L887.57 530.854L862.983 537.442L863.568 539.627L888.155 533.039ZM875.861 549.06H957.508V523.606H875.861V549.06ZM944.84 529.231C945.27 530.837 945.302 532.421 945.013 533.911L970.002 538.755C971.01 533.556 970.878 528.061 969.427 522.643L944.84 529.231ZM941.409 516.428L944.84 529.231L969.427 522.643L965.996 509.84L941.409 516.428ZM928.605 509.036C934.182 507.541 939.915 510.851 941.409 516.428L965.996 509.84C960.863 490.684 941.173 479.316 922.017 484.449L928.605 509.036ZM894.962 518.051L928.605 509.036L922.017 484.449L888.374 493.464L894.962 518.051Z" fill="#3C4043" mask="url(#path-8-inside-3_3529_16011)"/>
<path d="M92.3633 498.395V273.75H110.392V485.517L107.387 498.395H92.3633ZM123.556 499.253C117.833 499.253 112.777 496.392 108.389 490.668C104.096 484.945 101.95 477.409 101.95 468.061L110.392 459.332C110.392 466.296 110.917 472.401 111.966 477.647C113.111 482.894 114.589 485.517 116.402 485.517C118.691 485.517 119.836 481.177 119.836 472.496C119.836 463.72 119.836 443.641 119.836 412.257C119.836 381.064 119.836 361.08 119.836 352.304C119.836 343.433 118.691 338.997 116.402 338.997C114.589 338.997 113.111 341.668 111.966 347.01C110.917 352.352 110.392 358.361 110.392 365.039L101.95 356.453C101.95 347.105 104.096 339.569 108.389 333.846C112.777 328.122 117.833 325.261 123.556 325.261C133 325.261 137.722 332.224 137.722 346.151C137.722 359.983 137.722 382.018 137.722 412.257C137.722 442.401 137.722 464.436 137.722 478.363C137.722 492.29 133 499.253 123.556 499.253Z" fill="#3C4043"/>
<path d="M168.492 499.397C153.42 499.397 145.884 491.336 145.884 475.215C145.884 459.094 145.884 438.203 145.884 412.543C145.884 382.4 145.884 360.317 145.884 346.294C145.884 332.176 153.468 325.117 168.635 325.117C183.802 325.117 191.386 331.986 191.386 345.722C191.386 359.458 191.386 381.589 191.386 412.114C191.386 414.308 191.386 416.454 191.386 418.553H162.053V405.961H174.788L173.214 408.394C173.214 380.921 173.214 362.511 173.214 353.162C173.214 343.719 171.687 338.997 168.635 338.997C165.582 338.997 164.056 343.719 164.056 353.162C164.056 362.511 164.056 382.066 164.056 411.828C164.056 437.965 164.056 456.805 164.056 468.347C164.056 479.794 165.535 485.517 168.492 485.517V499.397ZM168.492 485.517C169.637 485.517 170.495 484.611 171.067 482.799C171.735 480.891 172.212 477.886 172.498 473.784C172.784 469.682 172.975 464.388 173.071 457.902C173.166 451.32 173.214 443.402 173.214 434.149H191.386C191.386 444.07 191.243 452.655 190.956 459.905C190.67 467.154 190.098 473.355 189.239 478.506C188.381 483.562 187.141 487.616 185.519 490.668C183.898 493.721 181.656 495.962 178.794 497.393C176.028 498.729 172.594 499.397 168.492 499.397L167.347 493.101L168.492 485.517Z" fill="#3C4043"/>
<path d="M223.86 499.397C213.653 499.397 207.166 495.629 204.4 488.093C201.634 480.557 200.25 463.148 200.25 435.866H218.995C218.995 457.425 219.138 471.113 219.424 476.932C219.71 482.655 221.141 485.517 223.716 485.517C226.387 485.517 227.771 483.371 227.866 479.078C227.961 474.786 228.009 467.822 228.009 458.188C228.009 444.642 227.294 435.532 225.863 430.858C224.432 426.089 220.902 422.035 215.274 418.696C207.929 414.594 203.494 409.538 201.967 403.529C200.441 397.519 199.678 386.311 199.678 369.903C199.678 356.072 201.013 345.197 203.684 337.28C206.355 329.267 212.794 325.261 223.001 325.261C233.208 325.261 239.647 329.649 242.318 338.425C245.084 347.2 246.467 363.894 246.467 388.505H227.723C227.723 369.617 227.58 356.644 227.294 349.585C227.103 342.526 225.672 338.997 223.001 338.997C220.426 338.997 218.995 341.906 218.708 347.725C218.422 353.544 218.279 361.08 218.279 370.333C218.279 382.543 218.995 390.46 220.426 394.085C221.856 397.615 225.29 401.001 230.728 404.244C238.073 408.346 242.556 413.974 244.178 421.128C245.799 428.187 246.61 440.159 246.61 457.043C246.61 472.687 245.323 483.657 242.747 489.953C240.171 496.249 233.876 499.397 223.86 499.397Z" fill="#3C4043"/>
<path d="M254.733 561.353V326.691H270.758L272.762 344.291V561.353H254.733ZM285.925 499.253C280.202 499.253 275.146 496.392 270.758 490.668C266.466 484.945 264.319 477.409 264.319 468.061L272.762 459.332C272.762 466.296 273.286 472.401 274.335 477.647C275.48 482.894 276.959 485.517 278.771 485.517C281.061 485.517 282.205 481.177 282.205 472.496C282.205 463.72 282.205 443.641 282.205 412.257C282.205 381.064 282.205 361.08 282.205 352.304C282.205 343.433 281.061 338.997 278.771 338.997C276.959 338.997 275.48 341.668 274.335 347.01C273.286 352.352 272.762 358.361 272.762 365.039L264.319 356.453C264.319 347.105 266.466 339.569 270.758 333.846C275.146 328.122 280.202 325.261 285.925 325.261C295.369 325.261 300.091 332.224 300.091 346.151C300.091 359.983 300.091 382.018 300.091 412.257C300.091 442.401 300.091 464.436 300.091 478.363C300.091 492.29 295.369 499.253 285.925 499.253Z" fill="#3C4043"/>
<path d="M330.861 499.397C315.79 499.397 308.254 492.862 308.254 479.794C308.254 466.63 308.254 444.165 308.254 412.4C308.254 380.54 308.254 358.027 308.254 344.863C308.254 331.604 315.79 324.974 330.861 324.974C345.933 324.974 353.469 331.604 353.469 344.863C353.469 358.027 353.469 380.54 353.469 412.4C353.469 444.165 353.469 466.63 353.469 479.794C353.469 492.862 345.933 499.397 330.861 499.397ZM330.861 485.517C333.818 485.517 335.297 481.177 335.297 472.496C335.297 463.72 335.297 443.688 335.297 412.4C335.297 381.112 335.297 361.032 335.297 352.161C335.297 343.289 333.818 338.854 330.861 338.854C327.809 338.854 326.283 343.289 326.283 352.161C326.283 361.032 326.283 381.112 326.283 412.4C326.283 443.688 326.283 463.72 326.283 472.496C326.283 481.177 327.809 485.517 330.861 485.517Z" fill="#3C4043"/>
<path d="M361.488 498.395V273.75H379.517V410.111L377.371 408.394L392.395 326.691H410.71L395.543 391.51L396.402 385.5L410.996 498.395H392.538L382.951 400.381L387.959 400.095L379.088 435.294L379.517 423.704V498.395H361.488Z" fill="#3C4043"/>
<path d="M437.897 499.397C422.825 499.397 415.289 491.336 415.289 475.215C415.289 459.094 415.289 438.203 415.289 412.543C415.289 382.4 415.289 360.317 415.289 346.294C415.289 332.176 422.872 325.117 438.04 325.117C453.207 325.117 460.79 331.986 460.79 345.722C460.79 359.458 460.79 381.589 460.79 412.114C460.79 414.308 460.79 416.454 460.79 418.553H431.458V405.961H444.192L442.618 408.394C442.618 380.921 442.618 362.511 442.618 353.162C442.618 343.719 441.092 338.997 438.04 338.997C434.987 338.997 433.461 343.719 433.461 353.162C433.461 362.511 433.461 382.066 433.461 411.828C433.461 437.965 433.461 456.805 433.461 468.347C433.461 479.794 434.939 485.517 437.897 485.517V499.397ZM437.897 485.517C439.041 485.517 439.9 484.611 440.472 482.799C441.14 480.891 441.617 477.886 441.903 473.784C442.189 469.682 442.38 464.388 442.475 457.902C442.571 451.32 442.618 443.402 442.618 434.149H460.79C460.79 444.07 460.647 452.655 460.361 459.905C460.075 467.154 459.503 473.355 458.644 478.506C457.786 483.562 456.545 487.616 454.924 490.668C453.302 493.721 451.06 495.962 448.199 497.393C445.432 498.729 441.998 499.397 437.897 499.397L436.752 493.101L437.897 485.517ZM427.88 319.389L437.241 293.625H455.565L442.341 319.389H427.88Z" fill="#3C4043"/>
<path d="M436.888 540.892L427.527 566.656H441.988L455.212 540.892H436.888Z" fill="#3C4043"/>
<path d="M254.941 807.71V573.049H270.967L272.97 590.648V807.71H254.941ZM286.134 745.611C280.411 745.611 275.355 742.749 270.967 737.026C266.674 731.302 264.528 723.766 264.528 714.418L272.97 705.69C272.97 712.653 273.495 718.758 274.544 724.005C275.689 729.251 277.167 731.874 278.98 731.874C281.269 731.874 282.414 727.534 282.414 718.854C282.414 710.078 282.414 689.998 282.414 658.614C282.414 627.421 282.414 607.437 282.414 598.661C282.414 589.79 281.269 585.354 278.98 585.354C277.167 585.354 275.689 588.025 274.544 593.367C273.495 598.709 272.97 604.718 272.97 611.396L264.528 602.811C264.528 593.462 266.674 585.926 270.967 580.203C275.355 574.48 280.411 571.618 286.134 571.618C295.578 571.618 300.3 578.581 300.3 592.508C300.3 606.34 300.3 628.375 300.3 658.614C300.3 688.758 300.3 710.793 300.3 724.72C300.3 738.647 295.578 745.611 286.134 745.611Z" fill="#3C4043"/>
<path d="M331.07 745.754C315.998 745.754 308.462 739.22 308.462 726.151C308.462 712.987 308.462 690.523 308.462 658.757C308.462 626.897 308.462 604.385 308.462 591.221C308.462 577.961 315.998 571.332 331.07 571.332C346.142 571.332 353.678 577.961 353.678 591.221C353.678 604.385 353.678 626.897 353.678 658.757C353.678 690.523 353.678 712.987 353.678 726.151C353.678 739.22 346.142 745.754 331.07 745.754ZM331.07 731.874C334.027 731.874 335.506 727.534 335.506 718.854C335.506 710.078 335.506 690.046 335.506 658.757C335.506 627.469 335.506 607.389 335.506 598.518C335.506 589.647 334.027 585.211 331.07 585.211C328.018 585.211 326.491 589.647 326.491 598.518C326.491 607.389 326.491 627.469 326.491 658.757C326.491 690.046 326.491 710.078 326.491 718.854C326.491 727.534 328.018 731.874 331.07 731.874Z" fill="#3C4043"/>
<path d="M361.697 744.752V520.107H379.726V656.468L377.58 654.751L392.604 573.049H410.919L395.752 637.867L396.61 631.857L411.205 744.752H392.747L383.16 646.738L388.168 646.452L379.297 681.651L379.726 670.061V744.752H361.697Z" fill="#3C4043"/>
<path d="M438.105 745.754C423.034 745.754 415.498 737.693 415.498 721.572C415.498 705.451 415.498 684.561 415.498 658.9C415.498 628.757 415.498 606.674 415.498 592.651C415.498 578.534 423.081 571.475 438.248 571.475C453.416 571.475 460.999 578.343 460.999 592.079C460.999 605.815 460.999 627.946 460.999 658.471C460.999 660.665 460.999 662.811 460.999 664.91H431.666V652.318H444.401L442.827 654.751C442.827 627.278 442.827 608.868 442.827 599.52C442.827 590.076 441.301 585.354 438.248 585.354C435.196 585.354 433.67 590.076 433.67 599.52C433.67 608.868 433.67 628.423 433.67 658.185C433.67 684.322 433.67 703.162 433.67 714.704C433.67 726.151 435.148 731.874 438.105 731.874V745.754ZM438.105 731.874C439.25 731.874 440.108 730.968 440.681 729.156C441.349 727.248 441.826 724.243 442.112 720.141C442.398 716.04 442.589 710.745 442.684 704.259C442.779 697.677 442.827 689.759 442.827 680.506H460.999C460.999 690.427 460.856 699.012 460.57 706.262C460.284 713.512 459.711 719.712 458.853 724.863C457.994 729.919 456.754 733.973 455.133 737.026C453.511 740.078 451.269 742.32 448.408 743.751C445.641 745.086 442.207 745.754 438.105 745.754L436.961 739.458L438.105 731.874Z" fill="#3C4043"/>
<mask id="path-12-inside-4_3529_16011" fill="white">
<path fill-rule="evenodd" clip-rule="evenodd" d="M50 650.826C50.1715 703.556 92.9697 746.248 145.739 746.248C198.509 746.248 241.307 703.556 241.478 650.826H50Z"/>
</mask>
<path fill-rule="evenodd" clip-rule="evenodd" d="M50 650.826C50.1715 703.556 92.9697 746.248 145.739 746.248C198.509 746.248 241.307 703.556 241.478 650.826H50Z" fill="#F3F7FE"/>
<path d="M50 650.826V638.104H37.2357L37.2772 650.868L50 650.826ZM241.478 650.826L254.201 650.868L254.243 638.104H241.478V650.826ZM145.739 733.525C99.9825 733.525 62.8715 696.506 62.7228 650.785L37.2772 650.868C37.4715 710.605 85.9569 758.971 145.739 758.971V733.525ZM228.756 650.785C228.607 696.506 191.496 733.525 145.739 733.525V758.971C205.521 758.971 254.007 710.605 254.201 650.868L228.756 650.785ZM241.478 638.104H50V663.549H241.478V638.104Z" fill="#3C4043" mask="url(#path-12-inside-4_3529_16011)"/>
<mask id="path-14-inside-5_3529_16011" fill="white">
<path fill-rule="evenodd" clip-rule="evenodd" d="M203.095 664.016C203.414 661.555 203.579 659.046 203.579 656.498C203.579 624.527 177.661 598.609 145.69 598.609C113.719 598.609 87.8008 624.527 87.8008 656.498C87.8008 659.046 87.9654 661.555 88.2845 664.016H203.095ZM150.042 714.226H141.338C142.775 714.333 144.226 714.387 145.69 714.387C147.154 714.387 148.605 714.333 150.042 714.226Z"/>
</mask>
<path fill-rule="evenodd" clip-rule="evenodd" d="M203.095 664.016C203.414 661.555 203.579 659.046 203.579 656.498C203.579 624.527 177.661 598.609 145.69 598.609C113.719 598.609 87.8008 624.527 87.8008 656.498C87.8008 659.046 87.9654 661.555 88.2845 664.016H203.095ZM150.042 714.226H141.338C142.775 714.333 144.226 714.387 145.69 714.387C147.154 714.387 148.605 714.333 150.042 714.226Z" fill="#F3F7FE"/>
<path d="M203.095 664.016V676.739H214.275L215.713 665.652L203.095 664.016ZM88.2845 664.016L75.6673 665.652L77.105 676.739H88.2845V664.016ZM150.042 714.226L150.985 726.914L150.042 701.503V714.226ZM141.338 714.226V701.503L140.395 726.914L141.338 714.226ZM190.856 656.498C190.856 658.497 190.727 660.46 190.478 662.38L215.713 665.652C216.102 662.65 216.302 659.594 216.302 656.498H190.856ZM145.69 611.332C170.635 611.332 190.856 631.554 190.856 656.498H216.302C216.302 617.5 184.688 585.886 145.69 585.886V611.332ZM100.524 656.498C100.524 631.554 120.745 611.332 145.69 611.332V585.886C106.692 585.886 75.0779 617.5 75.0779 656.498H100.524ZM100.902 662.38C100.653 660.46 100.524 658.497 100.524 656.498H75.0779C75.0779 659.594 75.278 662.65 75.6673 665.652L100.902 662.38ZM88.2845 676.739H203.095V651.293H88.2845V676.739ZM150.042 701.503H141.338V726.949H150.042V701.503ZM145.69 701.664C144.541 701.664 143.404 701.622 142.281 701.538L140.395 726.914C142.145 727.044 143.911 727.11 145.69 727.11V701.664ZM149.099 701.538C147.976 701.622 146.839 701.664 145.69 701.664V727.11C147.469 727.11 149.235 727.044 150.985 726.914L149.099 701.538Z" fill="#3C4043" mask="url(#path-14-inside-5_3529_16011)"/>
<path d="M169.423 657.559C170.013 656.54 170.745 655.46 171.631 654.3C173.773 651.495 176.339 648.792 179.307 645.664C180.576 644.328 181.919 642.913 183.333 641.38C190.971 633.102 199.453 622.591 201.899 607.689C202.941 608.47 204.053 609.48 205.229 610.759C208.821 614.664 212.278 620.315 215.306 626.887C220.093 637.276 223.343 648.924 224.523 657.559H224.51H224.378H224.245H224.111H223.978H223.844H223.711H223.577H223.443H223.309H223.174H223.04H222.905H222.77H222.635H222.499H222.364H222.228H222.093H221.957H221.82H221.684H221.548H221.411H221.274H221.137H221H220.863H220.726H220.588H220.45H220.312H220.174H220.036H219.898H219.759H219.621H219.482H219.343H219.204H219.065H218.925H218.786H218.646H218.506H218.367H218.226H218.086H217.946H217.805H217.665H217.524H217.383H217.242H217.101H216.96H216.818H216.677H216.535H216.393H216.252H216.11H215.967H215.825H215.683H215.54H215.398H215.255H215.112H214.969H214.826H214.683H214.54H214.396H214.253H214.109H213.965H213.821H213.678H213.533H213.389H213.245H213.101H212.956H212.812H212.667H212.522H212.377H212.233H212.088H211.942H211.797H211.652H211.507H211.361H211.215H211.07H210.924H210.778H210.632H210.486H210.34H210.194H210.048H209.902H209.755H209.609H209.462H209.316H209.169H209.022H208.876H208.729H208.582H208.435H208.288H208.14H207.993H207.846H207.699H207.551H207.404H207.256H207.109H206.961H206.813H206.666H206.518H206.37H206.222H206.074H205.926H205.778H205.63H205.482H205.334H205.186H205.037H204.889H204.741H204.592H204.444H204.295H204.147H203.998H203.85H203.701H203.553H203.404H203.255H203.106H202.958H202.809H202.66H202.511H202.362H202.214H202.065H201.916H201.767H201.618H201.469H201.32H201.171H201.022H200.873H200.724H200.575H200.426H200.277H200.127H199.978H199.829H199.68H199.531H199.382H199.233H199.084H198.935H198.785H198.636H198.487H198.338H198.189H198.04H197.891H197.742H197.593H197.444H197.295H197.146H196.997H196.848H196.699H196.55H196.401H196.252H196.103H195.954H195.805H195.656H195.508H195.359H195.21H195.061H194.913H194.764H194.615H194.467H194.318H194.169H194.021H193.872H193.724H193.576H193.427H193.279H193.131H192.982H192.834H192.686H192.538H192.39H192.242H192.094H191.946H191.798H191.65H191.503H191.355H191.207H191.06H190.912H190.765H190.617H190.47H190.323H190.175H190.028H189.881H189.734H189.587H189.44H189.293H189.147H189H188.853H188.707H188.56H188.414H188.268H188.121H187.975H187.829H187.683H187.537H187.391H187.245H187.1H186.954H186.809H186.663H186.518H186.373H186.228H186.082H185.938H185.793H185.648H185.503H185.359H185.214H185.07H184.925H184.781H184.637H184.493H184.349H184.206H184.062H183.918H183.775H183.632H183.488H183.345H183.202H183.059H182.917H182.774H182.631H182.489H182.347H182.204H182.062H181.92H181.779H181.637H181.495H181.354H181.213H181.071H180.93H180.789H180.649H180.508H180.367H180.227H180.087H179.947H179.807H179.667H179.527H179.388H179.248H179.109H178.97H178.831H178.692H178.553H178.415H178.276H178.138H178H177.862H177.724H177.587H177.449H177.312H177.175H177.038H176.901H176.764H176.628H176.491H176.355H176.219H176.083H175.948H175.812H175.677H175.542H175.407H175.272H175.137H175.003H174.868H174.734H174.6H174.466H174.333H174.199H174.066H173.933H173.8H173.668H173.535H173.403H173.271H173.139H173.007H172.875H172.744H172.613H172.482H172.351H172.221H172.09H171.96H171.83H171.7H171.571H171.441H171.312H171.183H171.055H170.926H170.798H170.67H170.542H170.414H170.286H170.159H170.032H169.905H169.779H169.652H169.526H169.423Z" fill="#F3F7FE" stroke="#3C4043" stroke-width="12.7229"/>
<mask id="path-17-inside-6_3529_16011" fill="white">
<path fill-rule="evenodd" clip-rule="evenodd" d="M77.6564 633.355C65.2939 636.667 57.9575 649.374 61.27 661.737L61.8551 663.92H143.475C144.123 660.577 144.041 657.039 143.1 653.528L139.671 640.729C136.358 628.367 123.651 621.03 111.289 624.343L77.6564 633.355Z"/>
</mask>
<path fill-rule="evenodd" clip-rule="evenodd" d="M77.6564 633.355C65.2939 636.667 57.9575 649.374 61.27 661.737L61.8551 663.92H143.475C144.123 660.577 144.041 657.039 143.1 653.528L139.671 640.729C136.358 628.367 123.651 621.03 111.289 624.343L77.6564 633.355Z" fill="#F3F7FE"/>
<path d="M61.27 661.737L73.5594 658.444H73.5594L61.27 661.737ZM77.6564 633.355L80.9493 645.644L77.6564 633.355ZM61.8551 663.92L49.5657 667.213L52.0925 676.643H61.8551V663.92ZM143.475 663.92V676.643H153.968L155.965 666.342L143.475 663.92ZM143.1 653.528L130.811 656.821V656.821L143.1 653.528ZM139.671 640.729L151.96 637.436V637.436L139.671 640.729ZM111.289 624.343L107.996 612.054L111.289 624.343ZM73.5594 658.444C72.0655 652.869 75.3741 647.138 80.9493 645.644L74.3634 621.065C55.2138 626.196 43.8495 645.88 48.9806 665.03L73.5594 658.444ZM74.1444 660.627L73.5594 658.444L48.9806 665.03L49.5657 667.213L74.1444 660.627ZM61.8551 676.643H143.475V651.197H61.8551V676.643ZM130.811 656.821C131.241 658.426 131.273 660.01 130.984 661.499L155.965 666.342C156.973 661.144 156.841 655.651 155.39 650.235L130.811 656.821ZM127.381 644.022L130.811 656.821L155.39 650.235L151.96 637.436L127.381 644.022ZM114.582 636.632C120.157 635.138 125.888 638.447 127.381 644.022L151.96 637.436C146.829 618.287 127.146 606.922 107.996 612.054L114.582 636.632ZM80.9493 645.644L114.582 636.632L107.996 612.054L74.3634 621.065L80.9493 645.644Z" fill="#3C4043" mask="url(#path-17-inside-6_3529_16011)"/>
<path d="M458.5 239L458.5 220L52.5 220L52.5 239" stroke="#FF6D7F" stroke-width="5" stroke-linecap="round" stroke-linejoin="round"/>
<path d="M1867 237L1867 218L1461 218L1461 237" stroke="#FF6D7F" stroke-width="5" stroke-linecap="round" stroke-linejoin="round"/>
<path d="M757 840L757 859L1163 859L1163 840" stroke="#FF6D7F" stroke-width="5" stroke-linecap="round" stroke-linejoin="round"/>
<circle cx="254" cy="218" r="50" fill="#FF6D7F"/>
<path d="M254.043 240V201.216H252.891L246.875 215.424H238.299L247.451 195.2H262.235V240H254.043Z" fill="#F3F7FE"/>
<circle cx="960" cy="850" r="50" fill="#FF6D7F"/>
<path d="M943.688 872V866.624C943.688 863.509 944.2 860.928 945.224 858.88C946.248 856.789 947.72 855.083 949.64 853.76C951.603 852.395 953.992 851.285 956.808 850.432L961.096 849.088C962.675 848.576 963.997 847.957 965.064 847.232C966.131 846.464 966.941 845.547 967.496 844.48C968.093 843.413 968.392 842.197 968.392 840.832V840.576C968.392 838.443 967.667 836.757 966.216 835.52C964.765 834.24 962.781 833.6 960.264 833.6C957.789 833.6 955.784 834.283 954.248 835.648C952.755 836.971 952.008 838.891 952.008 841.408V842.56H943.816V841.536C943.816 838.293 944.541 835.541 945.992 833.28C947.443 831.019 949.405 829.291 951.88 828.096C954.397 826.901 957.192 826.304 960.264 826.304C963.336 826.304 966.109 826.901 968.584 828.096C971.059 829.248 973 830.891 974.408 833.024C975.859 835.115 976.584 837.589 976.584 840.448V841.088C976.584 843.947 975.987 846.379 974.792 848.384C973.64 850.347 972.061 851.968 970.056 853.248C968.051 854.485 965.768 855.509 963.208 856.32L959.112 857.6C957.277 858.155 955.848 858.773 954.824 859.456C953.8 860.096 953.075 860.821 952.648 861.632C952.264 862.4 952.072 863.339 952.072 864.448V864.704H976.2V872H943.688Z" fill="#F3F7FE"/>
<circle cx="1666" cy="218" r="50" fill="#FF6D7F"/>
<path d="M1665.99 240.896C1662.62 240.896 1659.63 240.299 1657.03 239.104C1654.42 237.909 1652.38 236.203 1650.88 233.984C1649.43 231.723 1648.71 229.056 1648.71 225.984V224.832H1656.9V225.728C1656.9 228.117 1657.73 230.037 1659.4 231.488C1661.06 232.896 1663.26 233.6 1665.99 233.6C1668.76 233.6 1670.89 232.939 1672.39 231.616C1673.92 230.293 1674.69 228.629 1674.69 226.624V225.984C1674.69 224.619 1674.35 223.509 1673.67 222.656C1672.98 221.803 1672.07 221.184 1670.92 220.8C1669.76 220.373 1668.46 220.16 1667.01 220.16H1658.05V211.2L1672.52 203.52V202.496H1649.86V195.2H1681.6V206.08L1668.1 213.248V214.272H1670.47C1672.47 214.272 1674.41 214.677 1676.29 215.488C1678.21 216.299 1679.79 217.557 1681.03 219.264C1682.26 220.928 1682.88 223.104 1682.88 225.792V226.56C1682.88 229.461 1682.18 232 1680.77 234.176C1679.36 236.309 1677.38 237.973 1674.82 239.168C1672.3 240.32 1669.36 240.896 1665.99 240.896Z" fill="#F3F7FE"/>
</svg>
